<svg width="80" height="80" viewBox="0 0 80 80" fill="none" xmlns="http://www.w3.org/2000/svg">
  <path fill-rule="evenodd" clip-rule="evenodd" d="M63.6411 29.4996H33.937L42.7269 14.2751C45.171 14.5342 47.587 15.1426 49.8987 16.1001C56.0358 18.6422 60.9517 23.4438 63.6411 29.4996Z" fill="#F2C94C" />
  <path fill-rule="evenodd" clip-rule="evenodd" d="M60.9134 55.2238L46.0613 29.4994L63.641 29.4994C64.6387 31.7456 65.3199 34.1421 65.6465 36.6229C66.5135 43.2087 64.8131 49.8669 60.9134 55.2238Z" fill="#F2994A" />
  <path fill-rule="evenodd" clip-rule="evenodd" d="M37.2722 65.7237L52.1243 39.9992L60.9141 55.2237C59.4677 57.2109 57.7329 58.999 55.7477 60.5222C50.4777 64.566 43.8614 66.4225 37.2722 65.7237Z" fill="#EB5757" />
  <path fill-rule="evenodd" clip-rule="evenodd" d="M16.3579 50.4995L46.062 50.4995L37.2722 65.724C34.828 65.4649 32.412 64.8566 30.1003 63.899C23.9632 61.357 19.0473 56.5553 16.3579 50.4995Z" fill="#219653" />
  <path fill-rule="evenodd" clip-rule="evenodd" d="M19.0857 24.7752L33.9377 50.4996L16.358 50.4996C15.3603 48.2534 14.6791 45.857 14.3525 43.3761C13.4855 36.7903 15.1859 30.1321 19.0857 24.7752Z" fill="#2F80ED" />
  <path fill-rule="evenodd" clip-rule="evenodd" d="M42.7268 14.2753L27.8748 39.9998L19.0849 24.7753C20.5313 22.7882 22.2661 21.0001 24.2513 19.4768C29.5213 15.433 36.1376 13.5765 42.7268 14.2753Z" fill="#9B51E0" />
</svg>