<svg width="80" height="80" viewBox="0 0 80 80" fill="none" xmlns="http://www.w3.org/2000/svg">
  <path d="M30.0048 16.1016L30.7701 17.9493V17.9493L30.0048 16.1016ZM37.1902 16.2872C38.2877 16.1616 39.0755 15.1702 38.9499 14.0728C38.8244 12.9754 37.8329 12.1876 36.7355 12.3131L37.1902 16.2872ZM36.7541 12.311C35.6566 12.4358 34.8681 13.4267 34.9929 14.5242C35.1178 15.6217 36.1086 16.4102 37.2061 16.2854L36.7541 12.311ZM37.2894 16.2761C38.3873 16.1551 39.1793 15.167 39.0583 14.069C38.9373 12.9711 37.9492 12.1791 36.8513 12.3001L37.2894 16.2761ZM16.0048 30.1016L14.157 29.3362H14.157L16.0048 30.1016ZM16.0048 49.9006L14.157 50.6659H14.157L16.0048 49.9006ZM30.0048 63.9006L29.2394 65.7483H29.2394L30.0048 63.9006ZM63.8038 49.9006L65.6515 50.6659L63.8038 49.9006ZM66.4711 48.4195C66.8048 47.3665 66.2217 46.2424 65.1687 45.9087C64.1158 45.575 62.9917 46.1581 62.658 47.211L66.4711 48.4195ZM30.7701 17.9493C32.8411 17.0915 35.0024 16.5375 37.1902 16.2872L36.7355 12.3131C34.1809 12.6054 31.6572 13.2523 29.2394 14.2538L30.7701 17.9493ZM37.2061 16.2854C37.2339 16.2822 37.2616 16.2791 37.2894 16.2761L36.8513 12.3001C36.8189 12.3037 36.7865 12.3073 36.7541 12.311L37.2061 16.2854ZM17.8525 30.8669C20.2751 25.0184 24.9217 20.3718 30.7701 17.9493L29.2394 14.2538C22.4108 17.0823 16.9855 22.5076 14.157 29.3362L17.8525 30.8669ZM17.8525 49.1352C15.43 43.2867 15.43 36.7154 17.8525 30.8669L14.157 29.3362C11.3285 36.1648 11.3285 43.8373 14.157 50.6659L17.8525 49.1352ZM30.7701 62.0528C24.9217 59.6303 20.2751 54.9837 17.8525 49.1352L14.157 50.6659C16.9855 57.4945 22.4108 62.9198 29.2394 65.7483L30.7701 62.0528ZM49.0384 62.0528C43.1899 64.4753 36.6186 64.4753 30.7701 62.0528L29.2394 65.7483C36.068 68.5768 43.7405 68.5768 50.5691 65.7483L49.0384 62.0528ZM61.956 49.1352C59.5335 54.9837 54.8869 59.6303 49.0384 62.0528L50.5691 65.7483C57.3977 62.9198 62.823 57.4945 65.6515 50.6659L61.956 49.1352ZM65.6515 50.6659C65.9579 49.9263 66.2311 49.1768 66.4711 48.4195L62.658 47.211C62.4524 47.8596 62.2184 48.5016 61.956 49.1352L65.6515 50.6659Z" fill="#56CCF2" />
  <path d="M37.0703 23.4038L37.0703 6.59619C37.0703 4.90008 39.121 4.05067 40.3203 5.25L47.949 12.8787C49.1206 14.0503 49.1206 15.9497 47.949 17.1213L40.3203 24.75C39.121 25.9493 37.0703 25.0999 37.0703 23.4038Z" fill="#2F80ED" stroke="#2F80ED" stroke-width="3" stroke-linecap="round" stroke-linejoin="round" />
</svg>