<svg width="80" height="80" viewBox="0 0 80 80" fill="none" xmlns="http://www.w3.org/2000/svg">
  <path d="M22 24C22 22.8954 21.1046 22 20 22C18.8954 22 18 22.8954 18 24H22ZM58 56C58 57.1046 58.8954 58 60 58C61.1046 58 62 57.1046 62 56H58ZM22 54V24H18V54H22ZM58 26V56H62V26H58ZM42 54V26H38V54H42ZM50 14C43.3726 14 38 19.3726 38 26H42C42 21.5817 45.5817 18 50 18V14ZM30 66C36.6274 66 42 60.6274 42 54H38C38 58.4183 34.4183 62 30 62V66ZM62 26C62 19.3726 56.6274 14 50 14V18C54.4183 18 58 21.5817 58 26H62ZM18 54C18 60.6274 23.3726 66 30 66V62C25.5817 62 22 58.4183 22 54H18Z" fill="#56CCF2" />
  <path d="M27.7574 24L12.2426 24C10.677 24 9.89293 22.1071 11 21L17.8787 14.1213C19.0503 12.9497 20.9497 12.9497 22.1213 14.1213L29 21C30.1071 22.1071 29.323 24 27.7574 24Z" fill="#2F80ED" stroke="#2F80ED" stroke-width="4" stroke-linecap="round" stroke-linejoin="round" />
  <path d="M52.2426 56L67.7574 56C69.323 56 70.1071 57.8929 69 59L62.1213 65.8787C60.9497 67.0503 59.0503 67.0503 57.8787 65.8787L51 59C49.8929 57.8929 50.677 56 52.2426 56Z" fill="#2F80ED" stroke="#2F80ED" stroke-width="4" stroke-linecap="round" stroke-linejoin="round" />
</svg>