<svg width="80" height="80" viewBox="0 0 80 80" fill="none" xmlns="http://www.w3.org/2000/svg">
  <path d="M42 21C42 19.8954 41.1046 19 40 19C38.8954 19 38 19.8954 38 21H42ZM38 34C38 35.1046 38.8954 36 40 36C41.1046 36 42 35.1046 42 34H38ZM38 21V34H42V21H38Z" fill="#56CCF2" />
  <path d="M45.818 21L34.182 21C33.0078 21 32.4197 19.5803 33.25 18.75L37.8787 14.1213C39.0503 12.9497 40.9497 12.9497 42.1213 14.1213L46.75 18.75C47.5803 19.5803 46.9923 21 45.818 21Z" fill="#2F80ED" stroke="#2F80ED" stroke-width="4" stroke-linecap="round" stroke-linejoin="round" />
  <path d="M42 59C42 60.1046 41.1046 61 40 61C38.8954 61 38 60.1046 38 59H42ZM38 46C38 44.8954 38.8954 44 40 44C41.1046 44 42 44.8954 42 46H38ZM38 59V46H42V59H38Z" fill="#56CCF2" />
  <path d="M45.818 59L34.182 59C33.0078 59 32.4197 60.4197 33.25 61.25L37.8787 65.8787C39.0503 67.0503 40.9497 67.0503 42.1213 65.8787L46.75 61.25C47.5803 60.4197 46.9923 59 45.818 59Z" fill="#2F80ED" stroke="#2F80ED" stroke-width="4" stroke-linecap="round" stroke-linejoin="round" />
  <path d="M59 42C60.1046 42 61 41.1046 61 40C61 38.8954 60.1046 38 59 38L59 42ZM46 38C44.8954 38 44 38.8954 44 40C44 41.1046 44.8954 42 46 42L46 38ZM59 38L46 38L46 42L59 42L59 38Z" fill="#56CCF2" />
  <path d="M59 45.818L59 34.182C59 33.0078 60.4197 32.4197 61.25 33.25L65.8787 37.8787C67.0503 39.0503 67.0503 40.9497 65.8787 42.1213L61.25 46.75C60.4197 47.5803 59 46.9923 59 45.818Z" fill="#2F80ED" stroke="#2F80ED" stroke-width="3" stroke-linecap="round" stroke-linejoin="round" />
  <path d="M21 42C19.8954 42 19 41.1046 19 40C19 38.8954 19.8954 38 21 38L21 42ZM34 38C35.1046 38 36 38.8954 36 40C36 41.1046 35.1046 42 34 42L34 38ZM21 38L34 38L34 42L21 42L21 38Z" fill="#56CCF2" />
  <path d="M21 45.818L21 34.182C21 33.0078 19.5803 32.4197 18.75 33.25L14.1213 37.8787C12.9497 39.0503 12.9497 40.9497 14.1213 42.1213L18.75 46.75C19.5803 47.5803 21 46.9923 21 45.818Z" fill="#2F80ED" stroke="#2F80ED" stroke-width="4" stroke-linecap="round" stroke-linejoin="round" />
</svg>