<svg viewBox="0 0 80 80" fill="none">
  <path d="M52.8633 41.5771C51.7587 41.5771 50.8633 40.6817 50.8633 39.5771C50.8633 38.4726 51.7587 37.5771 52.8633 37.5771L52.8633 41.5771ZM69.8633 37.5771C70.9679 37.5771 71.8633 38.4726 71.8633 39.5771C71.8633 40.6817 70.9679 41.5771 69.8633 41.5771L69.8633 37.5771ZM52.8633 37.5771L69.8633 37.5771L69.8633 41.5771L52.8633 41.5771L52.8633 37.5771Z" fill="#2F80ED" />
  <path d="M52.8633 45.3952L52.8633 33.7591C52.8633 32.5849 51.4436 31.9968 50.6133 32.8271L45.9846 37.4558C44.813 38.6274 44.813 40.5269 45.9846 41.6985L50.6133 46.3272C51.4436 47.1575 52.8633 46.5694 52.8633 45.3952Z" fill="#2F80ED" stroke="#2F80ED" stroke-width="4" stroke-linecap="round" stroke-linejoin="round" />
  <path d="M26.292 41.5771C27.3966 41.5771 28.292 40.6817 28.292 39.5771C28.292 38.4726 27.3966 37.5771 26.292 37.5771L26.292 41.5771ZM9.29199 37.5771C8.18742 37.5771 7.29199 38.4726 7.29199 39.5771C7.29199 40.6817 8.18742 41.5771 9.29199 41.5771L9.29199 37.5771ZM26.292 37.5771L9.29199 37.5771L9.29199 41.5771L26.292 41.5771L26.292 37.5771Z" fill="#56CCF2" />
  <path d="M26.292 45.3952L26.292 33.7591C26.292 32.5849 27.7117 31.9968 28.542 32.8271L33.1707 37.4558C34.3422 38.6274 34.3422 40.5269 33.1707 41.6985L28.542 46.3272C27.7117 47.1575 26.292 46.5694 26.292 45.3952Z" fill="#2F80ED" stroke="#2F80ED" stroke-width="4" stroke-linecap="round" stroke-linejoin="round" />
  <path d="M37.5767 52.8643C37.5767 51.7597 38.4721 50.8643 39.5767 50.8643C40.6812 50.8643 41.5767 51.7597 41.5767 52.8643L37.5767 52.8643ZM41.5767 69.8643C41.5767 70.9688 40.6812 71.8643 39.5767 71.8643C38.4721 71.8643 37.5767 70.9688 37.5767 69.8643L41.5767 69.8643ZM41.5767 52.8643L41.5767 69.8643L37.5767 69.8643L37.5767 52.8643L41.5767 52.8643Z" fill="#56CCF2" />
  <path d="M33.7586 52.8643L45.3947 52.8643C46.5689 52.8643 47.157 51.4446 46.3267 50.6143L41.698 45.9856C40.5264 44.814 38.6269 44.814 37.4553 45.9856L32.8267 50.6143C31.9964 51.4446 32.5844 52.8643 33.7586 52.8643Z" fill="#2F80ED" stroke="#2F80ED" stroke-width="4" stroke-linecap="round" stroke-linejoin="round" />
  <path d="M37.5767 26.292C37.5767 27.3966 38.4721 28.292 39.5767 28.292C40.6812 28.292 41.5767 27.3966 41.5767 26.292L37.5767 26.292ZM41.5767 9.29199C41.5767 8.18742 40.6812 7.29199 39.5767 7.29199C38.4721 7.29199 37.5767 8.18742 37.5767 9.29199L41.5767 9.29199ZM41.5767 26.292L41.5767 9.29199L37.5767 9.29199L37.5767 26.292L41.5767 26.292Z" fill="#56CCF2" />
  <path d="M33.7586 26.292L45.3947 26.292C46.5689 26.292 47.157 27.7117 46.3267 28.542L41.698 33.1707C40.5264 34.3422 38.6269 34.3422 37.4553 33.1707L32.8267 28.542C31.9964 27.7117 32.5844 26.292 33.7586 26.292Z" fill="#2F80ED" stroke="#2F80ED" stroke-width="4" stroke-linecap="round" stroke-linejoin="round" />
</svg>