<svg width="80" height="80" viewBox="0 0 80 80" fill="none" xmlns="http://www.w3.org/2000/svg">
  <path d="M32.7793 36.2794L34.1935 34.8652L32.7793 36.2794ZM32.6788 39.0074C33.4598 39.7884 34.7262 39.7884 35.5072 39.0074C36.2883 38.2263 36.2883 36.96 35.5072 36.1789L32.6788 39.0074ZM46.8209 47.4926C46.0399 46.7116 44.7736 46.7116 43.9925 47.4926C43.2115 48.2737 43.2115 49.54 43.9925 50.3211L46.8209 47.4926ZM54.7499 67.75L52.7499 67.75L54.7499 67.75ZM52.7499 68.25C52.7499 69.3546 53.6453 70.25 54.7499 70.25C55.8544 70.25 56.7499 69.3546 56.7499 68.25L52.7499 68.25ZM27.9156 22.005C27.7803 20.9087 26.7819 20.1297 25.6856 20.2651C24.5894 20.4004 23.8104 21.3988 23.9457 22.495L27.9156 22.005ZM23.9489 22.521C24.0854 23.6171 25.0846 24.395 26.1807 24.2585C27.2768 24.1221 28.0548 23.1229 27.9183 22.0268L23.9489 22.521ZM27.9198 22.039C27.7828 20.9429 26.7832 20.1655 25.6871 20.3026C24.5911 20.4396 23.8137 21.4392 23.9507 22.5353L27.9198 22.039ZM31.3651 37.6937L32.6788 39.0074L35.5072 36.1789L34.1935 34.8652L31.3651 37.6937ZM43.9925 50.3211L46.6181 52.9467L49.4466 50.1183L46.8209 47.4926L43.9925 50.3211ZM52.7499 67.75L52.7499 68.25L56.7499 68.25L56.7499 67.75L52.7499 67.75ZM46.6181 52.9467C50.5442 56.8728 52.7499 62.1977 52.7499 67.75L56.7499 67.75C56.7499 61.1368 54.1228 54.7945 49.4466 50.1183L46.6181 52.9467ZM23.9457 22.495C23.9468 22.5036 23.9479 22.5123 23.9489 22.521L27.9183 22.0268C27.9174 22.0195 27.9165 22.0123 27.9156 22.005L23.9457 22.495ZM23.9507 22.5353C24.6642 28.2414 27.2558 33.5844 31.3651 37.6937L34.1935 34.8652C30.7165 31.3883 28.5235 26.8672 27.9198 22.039L23.9507 22.5353Z" fill="#56CCF2" />
  <path d="M32.2145 22.25L19.2855 22.25C17.9808 22.25 17.3274 20.6726 18.25 19.75L23.6287 14.3713C24.8003 13.1997 26.6997 13.1997 27.8713 14.3713L33.25 19.75C34.1726 20.6726 33.5192 22.25 32.2145 22.25Z" fill="#2F80ED" stroke="#2F80ED" stroke-width="4" stroke-linecap="round" stroke-linejoin="round" />
  <path d="M47.2207 36.2794L45.8065 34.8652L47.2207 36.2794ZM31.9677 51.5325L30.5534 50.1183L31.9677 51.5325ZM25.2501 67.75L23.2501 67.75L25.2501 67.75ZM27.2501 68.25C27.2501 69.3546 26.3547 70.25 25.2501 70.25C24.1456 70.25 23.2501 69.3546 23.2501 68.25L27.2501 68.25ZM52.0844 22.005C52.2197 20.9087 53.2181 20.1297 54.3144 20.2651C55.4106 20.4004 56.1896 21.3988 56.0543 22.495L52.0844 22.005ZM56.0511 22.521C55.9146 23.6171 54.9154 24.395 53.8193 24.2585C52.7232 24.1221 51.9452 23.1229 52.0817 22.0268L56.0511 22.521ZM52.0802 22.039C52.2172 20.9429 53.2168 20.1655 54.3129 20.3026C55.4089 20.4396 56.1863 21.4392 56.0493 22.5353L52.0802 22.039ZM48.6349 37.6937L33.3819 52.9467L30.5534 50.1183L45.8065 34.8652L48.6349 37.6937ZM27.2501 67.75L27.2501 68.25L23.2501 68.25L23.2501 67.75L27.2501 67.75ZM33.3819 52.9467C29.4558 56.8728 27.2501 62.1977 27.2501 67.75L23.2501 67.75C23.2501 61.1368 25.8772 54.7945 30.5534 50.1183L33.3819 52.9467ZM56.0543 22.495C56.0532 22.5036 56.0521 22.5123 56.0511 22.521L52.0817 22.0268C52.0826 22.0195 52.0835 22.0123 52.0844 22.005L56.0543 22.495ZM56.0493 22.5353C55.3358 28.2414 52.7442 33.5844 48.6349 37.6937L45.8065 34.8652C49.2835 31.3883 51.4765 26.8672 52.0802 22.039L56.0493 22.5353Z" fill="#56CCF2" />
  <path d="M47.7855 22.25L60.7145 22.25C62.0192 22.25 62.6726 20.6726 61.75 19.75L56.3713 14.3713C55.1997 13.1997 53.3003 13.1997 52.1287 14.3713L46.75 19.75C45.8274 20.6726 46.4808 22.25 47.7855 22.25Z" fill="#2F80ED" stroke="#2F80ED" stroke-width="4" stroke-linecap="round" stroke-linejoin="round" />
</svg>