<svg width="80" height="80" viewBox="0 0 80 80" fill="none" xmlns="http://www.w3.org/2000/svg">
  <path d="M38.0005 28C38.0005 26.8954 38.8959 26 40.0005 26C41.1051 26 42.0005 26.8954 42.0005 28H38.0005ZM52.0005 65.9995C53.1051 65.9995 54.0005 66.8949 54.0005 67.9995C54.0005 69.1041 53.1051 69.9995 52.0005 69.9995V65.9995ZM42.0005 28L42.0005 59.9995H38.0005L38.0005 28H42.0005ZM48.0005 65.9995H52.0005V69.9995H48.0005V65.9995ZM42.0005 59.9995C42.0005 63.3132 44.6868 65.9995 48.0005 65.9995V69.9995C42.4776 69.9995 38.0005 65.5224 38.0005 59.9995H42.0005Z" fill="#56CCF2" />
  <path d="M29.6573 28L50.3436 28C52.4312 28 53.4766 25.4761 52.0005 24L42.1218 14.1213C40.9502 12.9497 39.0507 12.9497 37.8792 14.1213L28.0005 24C26.5244 25.4761 27.5698 28 29.6573 28Z" fill="#2F80ED" />
</svg>