<svg width="80" height="80" viewBox="0 0 80 80" fill="none" xmlns="http://www.w3.org/2000/svg">
  <rect x="16" y="16" width="48" height="48" rx="2" fill="#6FCF97" stroke="#219653" stroke-width="4" stroke-linecap="round" stroke-linejoin="round" />
  <path d="M42 27.7426C42 26.6381 41.1046 25.7426 40 25.7426C38.8954 25.7426 38 26.6381 38 27.7426H42ZM38 36.9842C38 38.0887 38.8954 38.9842 40 38.9842C41.1046 38.9842 42 38.0887 42 36.9842H38ZM42 37.0001C42 35.8955 41.1046 35.0001 40 35.0001C38.8954 35.0001 38 35.8955 38 37.0001H42ZM38 54.0001C38 55.1046 38.8954 56.0001 40 56.0001C41.1046 56.0001 42 55.1046 42 54.0001H38ZM38 27.7426V36.9842H42V27.7426H38ZM38 37.0001V54.0001H42V37.0001H38Z" fill="#F2994A" />
  <path d="M52 37L42.1213 27.1213C40.9497 25.9497 39.0503 25.9497 37.8787 27.1213L28 37" stroke="#F2994A" stroke-width="4" stroke-linecap="round" stroke-linejoin="round" />
</svg>