<svg width="80" height="80" viewBox="0 0 80 80" fill="none" xmlns="http://www.w3.org/2000/svg">
  <path d="M20 64.334H60C62.2091 64.334 64 62.5431 64 60.334V20.334C64 18.1248 62.2091 16.334 60 16.334H20C17.7909 16.334 16 18.1248 16 20.334V60.334C16 62.5431 17.7909 64.334 20 64.334Z" fill="#56CCF2" />
  <path d="M62.8995 20.2626C63.6805 19.4816 63.6805 18.2152 62.8995 17.4342C62.1184 16.6532 60.8521 16.6532 60.0711 17.4342L62.8995 20.2626ZM34.615 42.8902C33.834 43.6713 33.834 44.9376 34.615 45.7187C35.3961 46.4997 36.6624 46.4997 37.4434 45.7187L34.615 42.8902ZM60.0711 17.4342L34.615 42.8902L37.4434 45.7187L62.8995 20.2626L60.0711 17.4342Z" fill="#F2F2F2" />
  <path d="M65.1984 22.5616L57.7738 15.1369C56.6813 14.0444 57.3049 12.1735 58.8345 11.955L66.0116 10.9296C67.9915 10.6468 69.6885 12.3439 69.4057 14.3238L68.3804 21.5009C68.1619 23.0305 66.291 23.6541 65.1984 22.5616Z" fill="#2F80ED" stroke="#2F80ED" stroke-width="4" stroke-linecap="round" stroke-linejoin="round" />
</svg>