<svg width="80" height="80" viewBox="0 0 80 80" fill="none" xmlns="http://www.w3.org/2000/svg">
  <path d="M41.9989 28C41.9989 26.8954 41.1035 26 39.9989 26C38.8944 26 37.9989 26.8954 37.9989 28H41.9989ZM37.9989 64.0003C37.9989 65.1049 38.8944 66.0003 39.9989 66.0003C41.1035 66.0003 41.9989 65.1049 41.9989 64.0003H37.9989ZM37.9989 28V64.0003H41.9989V28H37.9989Z" fill="#56CCF2" />
  <path d="M47.7579 28L32.2431 28C30.6775 28 29.8934 26.1071 31.0005 25L37.8792 18.1213C39.0507 16.9497 40.9502 16.9497 42.1218 18.1213L49.0005 25C50.1076 26.1071 49.3235 28 47.7579 28Z" fill="#2F80ED" stroke="#2F80ED" stroke-width="4" stroke-linecap="round" stroke-linejoin="round" />
</svg>