<svg width="80" height="80" viewBox="0 0 80 80" fill="none" xmlns="http://www.w3.org/2000/svg">
  <path fill-rule="evenodd" clip-rule="evenodd" d="M33.8587 57C33.4162 57.9211 33.1755 58.9434 33.1755 60C33.1755 62.4752 34.496 64.7624 36.6396 66C38.7832 67.2376 41.4242 67.2376 43.5678 66C45.7114 64.7624 47.0319 62.4752 47.0319 60C47.0319 58.9434 46.7913 57.9211 46.3488 57H33.8587Z" fill="#EB5757" />
  <path fill-rule="evenodd" clip-rule="evenodd" d="M39.7312 17C35.4877 17 31.4181 18.6857 28.4175 21.6863L27.7901 22.3137C24.7895 25.3143 23.1038 29.384 23.1038 33.6274V36.5656C23.1038 41.9665 20.9582 47.1461 17.1392 50.9651C16.4762 51.6281 16.1038 52.5273 16.1038 53.4649C16.1038 55.4173 17.6865 57.0001 19.639 57.0001L60.5686 57.0001C62.521 57.0001 64.1038 55.4173 64.1038 53.4649C64.1038 52.5273 63.7313 51.6281 63.0683 50.9651C59.2493 47.1461 57.1038 41.9665 57.1038 36.5656V33.6274C57.1038 29.384 55.4181 25.3143 52.4175 22.3137L51.7901 21.6863C48.7895 18.6857 44.7198 17 40.4763 17H39.7312Z" fill="#F2C94C" />
  <path fill-rule="evenodd" clip-rule="evenodd" d="M42.1038 17.0829V14C42.1038 12.8954 41.2083 12 40.1038 12C38.9992 12 38.1038 12.8954 38.1038 14V17.0829C38.6421 17.0279 39.1852 17 39.7312 17H40.4763C41.0223 17 41.5654 17.0279 42.1038 17.0829Z" fill="#F2994A" />
  <path d="M68 12L12 68" stroke="#EB5757" stroke-width="4" stroke-linecap="round" stroke-linejoin="round" />
</svg>