<svg width="80" height="80" viewBox="0 0 80 80" fill="none" xmlns="http://www.w3.org/2000/svg">
  <path fill-rule="evenodd" clip-rule="evenodd" d="M27 12C26.4477 12 26 12.4477 26 13V19L53 19C53.5523 19 54 19.4477 54 20L54 55.5487L59.3753 59.8489C60.0301 60.3727 61 59.9066 61 59.0681L61 13C61 12.4477 60.5523 12 60 12L27 12Z" fill="#EB5757" />
  <path d="M26 19H24C24 20.1046 24.8954 21 26 21V19ZM54 55.5487H52C52 56.1563 52.2762 56.7309 52.7506 57.1104L54 55.5487ZM59.3753 59.8489L60.6247 58.2872H60.6247L59.3753 59.8489ZM28 13C28 13.5523 27.5523 14 27 14V10C25.3431 10 24 11.3431 24 13H28ZM28 19V13H24V19H28ZM26 21L53 21V17L26 17V21ZM53 21C52.4477 21 52 20.5523 52 20H56C56 18.3431 54.6569 17 53 17V21ZM52 20L52 55.5487H56L56 20H52ZM60.6247 58.2872L55.2494 53.9869L52.7506 57.1104L58.1259 61.4107L60.6247 58.2872ZM59 59.0681C59 58.2296 59.9699 57.7634 60.6247 58.2872L58.1259 61.4107C60.0902 62.9821 63 61.5836 63 59.0681H59ZM59 13L59 59.0681H63L63 13H59ZM60 14C59.4477 14 59 13.5523 59 13H63C63 11.3431 61.6568 10 60 10V14ZM27 14L60 14V10L27 10V14Z" fill="#EB5757" />
  <path fill-rule="evenodd" clip-rule="evenodd" d="M19 20C19 19.4477 19.4477 19 20 19L53 19C53.5523 19 54 19.4477 54 20L54 66.0681C54 66.9066 53.0301 67.3727 52.3753 66.8489L37.1247 54.6484C36.7595 54.3563 36.2405 54.3563 35.8753 54.6484L20.6247 66.8489C19.9699 67.3727 19 66.9066 19 66.0681L19 20Z" fill="#F2C94C" />
  <path d="M20.6247 66.8489L19.3753 65.2872L20.6247 66.8489ZM37.1247 54.6484L38.3741 53.0867L37.1247 54.6484ZM35.8753 54.6484L34.6259 53.0867L35.8753 54.6484ZM52.3753 66.8489L53.6247 65.2872L52.3753 66.8489ZM53 17L20 17V21L53 21V17ZM56 66.0681L56 20H52L52 66.0681L56 66.0681ZM35.8753 56.2102L51.1259 68.4107L53.6247 65.2872L38.3741 53.0867L35.8753 56.2102ZM21.8741 68.4107L37.1247 56.2102L34.6259 53.0867L19.3753 65.2872L21.8741 68.4107ZM17 20L17 66.0681H21L21 20H17ZM19.3753 65.2872C20.0301 64.7634 21 65.2295 21 66.0681H17C17 68.5836 19.9098 69.9821 21.8741 68.4107L19.3753 65.2872ZM38.3741 53.0867C37.2784 52.2102 35.7216 52.2102 34.6259 53.0867L37.1247 56.2102C36.7595 56.5023 36.2405 56.5023 35.8753 56.2102L38.3741 53.0867ZM52 66.0681C52 65.2296 52.9699 64.7634 53.6247 65.2872L51.1259 68.4107C53.0902 69.9821 56 68.5836 56 66.0681L52 66.0681ZM20 17C18.3431 17 17 18.3431 17 20H21C21 20.5523 20.5523 21 20 21V17ZM53 21C52.4477 21 52 20.5523 52 20H56C56 18.3431 54.6569 17 53 17V21Z" fill="#F2C94C" />
</svg>