<svg width="80" height="80" viewBox="0 0 80 80" fill="none" xmlns="http://www.w3.org/2000/svg">
  <path d="M24 17L56 17V23L24 23V17Z" fill="#4F4F4F" stroke="#4F4F4F" stroke-width="4" stroke-linecap="round" stroke-linejoin="round" />
  <path d="M40 17L40 13" stroke="#4F4F4F" stroke-width="4" stroke-linecap="round" stroke-linejoin="round" />
  <path fill-rule="evenodd" clip-rule="evenodd" d="M20 23L60 23L60 67H20L20 23Z" fill="#E0E0E0" />
  <path d="M60 23H62C62 21.8954 61.1046 21 60 21V23ZM20 23V21C18.8954 21 18 21.8954 18 23H20ZM60 67V69C61.1046 69 62 68.1046 62 67H60ZM20 67H18C18 68.1046 18.8954 69 20 69V67ZM18 21C16.8954 21 16 21.8954 16 23C16 24.1046 16.8954 25 18 25V21ZM62 25C63.1046 25 64 24.1046 64 23C64 21.8954 63.1046 21 62 21V25ZM18 65C16.8954 65 16 65.8954 16 67C16 68.1046 16.8954 69 18 69V65ZM20 69C21.1046 69 22 68.1046 22 67C22 65.8954 21.1046 65 20 65V69ZM60 65C58.8954 65 58 65.8954 58 67C58 68.1046 58.8954 69 60 69V65ZM62 69C63.1046 69 64 68.1046 64 67C64 65.8954 63.1046 65 62 65V69ZM60 21L20 21V25L60 25V21ZM62 67L62 23H58L58 67H62ZM20 69H60V65H20V69ZM18 23L18 67H22L22 23H18ZM18 25L62 25V21L18 21V25ZM18 69H20V65H18V69ZM60 69H62V65H60V69Z" fill="#E0E0E0" />
  <path d="M43 53H37C35.8954 53 35 53.8954 35 55V67H45V55C45 53.8954 44.1046 53 43 53Z" fill="#4F4F4F" stroke="#4F4F4F" stroke-width="4" stroke-linecap="round" />
  <path fill-rule="evenodd" clip-rule="evenodd" d="M37.0908 43.5384L37.0908 45.5384C37.0908 46.0906 37.5385 46.5384 38.0908 46.5384L42.0908 46.5384C42.6431 46.5384 43.0908 46.0906 43.0908 45.5384L43.0908 43.5384V41.9999L43.0908 41.846V41.6922V41.5384V41.3845V41.2307V41.0768C43.0908 41.0344 43.1252 40.9999 43.1676 40.9999H43.3215H43.4753L45.6292 40.9999H47.6292C48.1815 40.9999 48.6292 40.5522 48.6292 39.9999V35.9999C48.6292 35.4476 48.1815 34.9999 47.6292 34.9999L45.6292 34.9999H43.4753H43.3215H43.1676C43.1252 34.9999 43.0908 34.9654 43.0908 34.923V34.846V34.7691V34.6922V34.6153V34.4614V34.3076V34.1537V33.9999V33.846V33.6922V33.6921L43.0908 33.5384V33.5383L43.0908 33.3845L43.0908 32.4614L43.0908 30.4614C43.0908 29.9092 42.6431 29.4614 42.0908 29.4614L38.0908 29.4614C37.5385 29.4614 37.0908 29.9091 37.0908 30.4614L37.0908 32.4614L37.0908 33.3845L37.0908 33.5383V33.5384L37.0908 33.6922V33.6923V33.846V33.9999V34.1537V34.3076L37.0908 34.4614V34.6153V34.6922V34.7691V34.846V34.923C37.0908 34.9655 37.0564 34.9999 37.0139 34.9999L34.5522 34.9999L32.5522 34.9999C32 34.9999 31.5522 35.4476 31.5522 35.9999V39.9999C31.5522 40.5522 32 40.9999 32.5522 40.9999H34.5522H37.0139C37.0564 40.9999 37.0908 41.0343 37.0908 41.0768V41.2307V41.3845V41.5384V41.6922V41.846V41.9999L37.0908 43.5384Z" fill="#EB5757" />
</svg>