<svg width="80" height="80" viewBox="0 0 80 80" fill="none" xmlns="http://www.w3.org/2000/svg">
  <path fill-rule="evenodd" clip-rule="evenodd" d="M49.4587 29.0388L11.052 39.3299L12.1964 28.9658C12.5582 25.689 14.8931 22.9697 18.0775 22.1164L34.7677 17.6443C37.9521 16.791 41.3338 17.9786 43.2856 20.6355L49.4587 29.0388Z" fill="#56CCF2" />
  <path fill-rule="evenodd" clip-rule="evenodd" d="M12.665 57.4023L14.0878 62.7121C14.3737 63.7791 15.4704 64.4122 16.5373 64.1264L22.3328 62.5734C23.3998 62.2876 24.0329 61.1909 23.7471 60.1239L22.3569 54.9359L13.6636 57.2652C13.33 57.3546 12.9951 57.3991 12.665 57.4023ZM47.471 48.2066L48.8611 53.3947C49.147 54.4616 50.2437 55.0948 51.3106 54.8089L57.1062 53.256C58.1731 52.9701 58.8063 51.8734 58.5204 50.8065L57.0976 45.4967C56.8102 45.6589 56.4978 45.7878 56.1643 45.8772L47.471 48.2066Z" fill="#828282" />
  <path d="M7.21167 48.641C6.06813 44.3733 8.60079 39.9866 12.8685 38.843L47.6418 29.5255C51.9096 28.382 56.2963 30.9147 57.4398 35.1824L58.9927 40.9779C59.5645 43.1118 58.2982 45.3052 56.1643 45.8769L13.6636 57.265C11.5297 57.8367 9.33635 56.5704 8.76458 54.4365L7.21167 48.641Z" fill="#EB5757" />
  <rect x="13.5518" y="45.2559" width="6" height="6" rx="3" transform="rotate(-15 13.5518 45.2559)" fill="#F2C94C" />
  <rect width="6" height="6" rx="3" transform="matrix(-0.965926 0.258819 0.258819 0.965926 50.2568 35.4209)" fill="#F2C94C" />
  <path d="M52.5928 16.7061L58.6487 20.0724L63.6269 15.2534L65.5288 21.9159L72.4565 22.0285L69.0902 28.0844L73.9092 33.0627L67.2467 34.9645L67.134 41.8922" stroke="#F2C94C" stroke-width="4" stroke-linecap="round" stroke-linejoin="round" />
</svg>