<svg viewBox="0 0 82 80" fill="none">
  <path fill-rule="evenodd" clip-rule="evenodd" d="M43.7563 19.6408L15.6407 47.7564L11.4497 38.2087C10.1247 35.19 10.7871 31.6675 13.1182 29.3364L25.3363 17.1183C27.6674 14.7872 31.1899 14.1247 34.2086 15.4498L43.7563 19.6408Z" fill="#56CCF2" />
  <path fill-rule="evenodd" clip-rule="evenodd" d="M26.0737 62.6006L29.9608 66.4876C30.7418 67.2687 32.0081 67.2687 32.7892 66.4876L37.0318 62.245C37.8129 61.4639 37.8129 60.1976 37.0318 59.4166L33.2339 55.6186L26.8699 61.9826C26.6258 62.2268 26.3579 62.4328 26.0737 62.6006ZM51.6187 37.2339L55.4166 41.0318C56.1977 41.8128 57.464 41.8128 58.245 41.0318L62.4877 36.7891C63.2687 36.0081 63.2687 34.7418 62.4877 33.9607L58.6006 30.0737C58.4328 30.3578 58.2268 30.6257 57.9826 30.8699L51.6187 37.2339Z" fill="#828282" />
  <path d="M16.9703 57.7399C13.8461 54.6157 13.8461 49.5503 16.9703 46.4262L42.4262 20.9703C45.5504 17.8461 50.6157 17.8461 53.7399 20.9703L57.9825 25.213C59.5446 26.775 59.5446 29.3077 57.9825 30.8698L26.8698 61.9825C25.3077 63.5446 22.7751 63.5446 21.213 61.9825L16.9703 57.7399Z" fill="#EB5757" />
  <rect x="20.7686" y="51.6387" width="6" height="6" rx="3" transform="rotate(-45 20.7686 51.6387)" fill="#F2C94C" />
  <rect width="6" height="6" rx="3" transform="matrix(-0.707107 0.707107 0.707107 0.707107 47.6387 24.7686)" fill="#F2C94C" />
  <path d="M10 67.0732H74" stroke="#828282" stroke-width="4" stroke-linecap="round" stroke-linejoin="round" />
</svg>