<svg width="80" height="80" viewBox="0 0 80 80" fill="none" xmlns="http://www.w3.org/2000/svg">
  <path d="M36 38.954H34H36ZM63.8528 58.8923C64.8519 58.4214 65.2801 57.2296 64.8091 56.2305C64.3381 55.2314 63.1464 54.8032 62.1472 55.2742L63.8528 58.8923ZM61.847 57.6268L60.9942 55.8177L61.847 57.6268ZM62.1472 24.7257C63.1464 25.1967 64.3381 24.7685 64.8091 23.7694C65.2801 22.7702 64.8519 21.5785 63.8528 21.1075L62.1472 24.7257ZM61.847 22.3731L62.6997 20.564L61.847 22.3731ZM51.3165 20.8782L51.6321 22.8531L51.3165 20.8782ZM51.3165 59.1217L51.0009 61.0966L51.3165 59.1217ZM39.8941 52.3396L38.3155 53.5676L38.3155 53.5676L39.8941 52.3396ZM39.8941 27.6602L41.4728 28.8881L39.8941 27.6602ZM34 38.954V41.0458H38V38.954H34ZM62.1472 55.2742L60.9942 55.8177L62.6997 59.4359L63.8528 58.8923L62.1472 55.2742ZM63.8528 21.1075L62.6997 20.564L60.9942 24.1822L62.1472 24.7257L63.8528 21.1075ZM51.6321 22.8531C54.8154 22.3444 58.0782 22.8076 60.9942 24.1822L62.6997 20.564C59.0559 18.8464 54.9788 18.2676 51.0009 18.9033L51.6321 22.8531ZM51.0009 61.0966C54.9788 61.7323 59.0559 61.1535 62.6997 59.4359L60.9942 55.8177C58.0782 57.1922 54.8154 57.6554 51.6321 57.1467L51.0009 61.0966ZM38.3155 53.5676C41.4267 57.5675 45.9826 60.2947 51.0009 61.0966L51.6321 57.1467C47.629 56.507 43.9706 54.323 41.4728 51.1117L38.3155 53.5676ZM34 41.0458C34 45.5718 35.5443 50.0049 38.3155 53.5676L41.4728 51.1117C39.2401 48.2413 38 44.6698 38 41.0458H34ZM41.4728 28.8881C43.9706 25.6768 47.629 23.4928 51.6321 22.8531L51.0009 18.9033C45.9826 19.7052 41.4267 22.4324 38.3155 26.4323L41.4728 28.8881ZM38 38.954C38 35.33 39.2401 31.7585 41.4728 28.8881L38.3155 26.4323C35.5443 29.9949 34 34.428 34 38.954H38Z" fill="#F2C94C" />
  <rect x="16" y="20" width="14" height="14" rx="7" stroke="#F2994A" stroke-width="4" stroke-linecap="round" stroke-linejoin="round" />
</svg>