<svg width="80" height="80" viewBox="0 0 80 80" fill="none" xmlns="http://www.w3.org/2000/svg">
  <path d="M10.9142 38.6774C10.1332 37.8964 8.86684 37.8964 8.08579 38.6774C7.30474 39.4585 7.30474 40.7248 8.08579 41.5059L10.9142 38.6774ZM23.6421 57.0622C24.4232 57.8433 25.6895 57.8433 26.4706 57.0622C27.2516 56.2812 27.2516 55.0148 26.4706 54.2338L23.6421 57.0622ZM34.8043 45.9C34.0233 46.6811 34.0233 47.9474 34.8043 48.7285C35.5854 49.5095 36.8517 49.5095 37.6327 48.7285L34.8043 45.9ZM61.8259 24.5353C62.6069 23.7543 62.6069 22.4879 61.8259 21.7069C61.0448 20.9258 59.7785 20.9258 58.9975 21.7069L61.8259 24.5353ZM8.08579 41.5059L23.6421 57.0622L26.4706 54.2338L10.9142 38.6774L8.08579 41.5059ZM37.6327 48.7285L61.8259 24.5353L58.9975 21.7069L34.8043 45.9L37.6327 48.7285Z" fill="#6FCF97" />
  <path d="M19.3089 40.092L34.8652 55.6484C35.6463 56.4294 36.9126 56.4294 37.6937 55.6484L70.2206 23.1214" stroke="#219653" stroke-width="4" stroke-linecap="round" stroke-linejoin="round" />
</svg>