<svg width="80" height="80" viewBox="0 0 80 80" fill="none" xmlns="http://www.w3.org/2000/svg">
  <path fill-rule="evenodd" clip-rule="evenodd" d="M27.0212 10C28.1233 10 29.0177 10.8916 29.0212 11.9938L29.0367 16.9578C29.04 18.0234 28.0868 18.8315 27.0212 18.8315C25.9557 18.8316 25.0024 18.0234 25.0057 16.9578L25.0212 11.9938C25.0246 10.8916 25.919 10 27.0212 10ZM19.2811 21.3466C20.1431 20.7203 20.4393 19.5062 19.8103 18.6461L16.8798 14.639C16.2292 13.7494 14.9815 13.5538 14.0899 14.2016C13.1983 14.8494 12.9987 16.0965 13.6438 16.9902L16.5492 21.0155C17.1728 21.8795 18.4191 21.973 19.2811 21.3466ZM14.4976 27.9308C14.8268 26.9174 14.3528 25.7611 13.3384 25.435L8.61214 23.9156C7.56289 23.5783 6.43851 24.1534 6.09793 25.2016C5.75735 26.2498 6.32896 27.376 7.37608 27.7198L12.0927 29.2687C13.1051 29.6011 14.1683 28.9442 14.4976 27.9308ZM14.4976 36.0692C14.1683 35.0558 13.1051 34.3989 12.0927 34.7313L7.37608 36.2802C6.32896 36.624 5.75735 37.7502 6.09793 38.7984C6.43851 39.8466 7.56289 40.4217 8.61214 40.0844L13.3384 38.565C14.3528 38.2389 14.8268 37.0826 14.4976 36.0692ZM19.2811 42.6534C18.4191 42.027 17.1728 42.1205 16.5492 42.9845L13.6511 46.9997L13.6438 47.0098C12.9987 47.9035 13.1983 49.1506 14.0899 49.7984C14.9815 50.4462 16.2292 50.2506 16.8798 49.361L16.8872 49.3509L19.8103 45.3538C20.4393 44.4938 20.1431 43.2797 19.2811 42.6534ZM35.7996 31.8868C35.4189 32.2086 35.0517 32.5488 34.6993 32.907C32.7325 34.9058 31.3303 37.3578 30.5888 40.0215C30.3108 40.1451 30.0256 40.2546 29.7342 40.3493C27.971 40.9222 26.0717 40.9222 24.3085 40.3493C22.5453 39.7764 21.0087 38.66 19.919 37.1602C18.8293 35.6603 18.2424 33.8539 18.2424 32C18.2424 30.1461 18.8293 28.3397 19.919 26.8398C21.0087 25.34 22.5453 24.2236 24.3085 23.6507C26.0717 23.0778 27.971 23.0778 29.7342 23.6507C31.4974 24.2236 33.034 25.34 34.1237 26.8398C35.1912 28.3092 35.7762 30.0726 35.7996 31.8868ZM40.4964 29.1069C40.0607 28.8579 39.7107 28.4391 39.5455 27.9306C39.2162 26.9172 39.6902 25.7609 40.7046 25.4348L45.4183 23.9195L45.4302 23.9156C46.4795 23.5783 47.6038 24.1534 47.9444 25.2016C48.285 26.2498 47.7134 27.376 46.6663 27.7198L46.6544 27.7237L45.7682 28.0147C43.945 28.0908 42.1659 28.464 40.4964 29.1069ZM34.7616 21.3463C35.6236 21.9726 36.8698 21.8791 37.4934 21.0151L40.3912 17.0003L40.3986 16.9902C41.0436 16.0965 40.8441 14.8494 39.9524 14.2016C39.0608 13.5538 37.8131 13.7494 37.1625 14.639L34.2323 18.6458C33.6033 19.5059 33.8995 20.72 34.7616 21.3463Z" fill="#F2C94C" />
  <path fill-rule="evenodd" clip-rule="evenodd" d="M46.7183 28C51.1616 28 55.4515 29.7652 58.6438 32.9068C61.836 36.0484 63.6698 40.3094 63.7413 44.7521L63.7671 46.3537C65.6471 46.8424 67.3812 47.8248 68.7782 49.2218C70.8411 51.2847 72 54.0826 72 57C72 59.9174 70.8411 62.7153 68.7782 64.7782C66.7153 66.8411 63.9174 68 61 68H57H56.4436H54C53.9898 68 53.9796 68 53.9694 67.9999H44.0493C44.0329 68.0001 44.0165 68.0002 44 68.0002H39.799H38H34C30.287 68.0002 26.726 66.5252 24.1005 63.8997C21.475 61.2742 20 57.7132 20 54.0002C20 50.2872 21.475 46.7262 24.1005 44.1007C25.9441 42.2571 28.2489 40.9808 30.7436 40.3841C31.456 37.5805 32.895 34.9961 34.9507 32.9068C38.0419 29.7652 42.275 28 46.7183 28Z" fill="#2F80ED" />
</svg>