<svg width="80" height="80" viewBox="0 0 80 80" fill="none" xmlns="http://www.w3.org/2000/svg">
  <path fill-rule="evenodd" clip-rule="evenodd" d="M40.7183 20C45.1616 20 49.4515 21.7652 52.6438 24.9068C55.836 28.0484 57.6698 32.3094 57.7413 36.7521L57.7671 38.3537C59.6471 38.8424 61.3812 39.8248 62.7782 41.2218C64.8411 43.2847 66 46.0826 66 49C66 51.9174 64.8411 54.7153 62.7782 56.7782C60.7153 58.8411 57.9174 60 55 60H51H50.4436H48C47.9898 60 47.9796 60 47.9694 59.9999H38.0493C38.0329 60.0001 38.0165 60.0002 38 60.0002L33.799 60.0002H32H28C24.287 60.0002 20.726 58.5252 18.1005 55.8997C15.475 53.2742 14 49.7132 14 46.0002C14 42.2872 15.475 38.7262 18.1005 36.1007C19.9441 34.2571 22.2489 32.9808 24.7437 32.3841C25.456 29.5805 26.895 26.9961 28.9507 24.9068C32.0419 21.7652 36.275 20 40.7183 20Z" fill="#56CCF2" />
  <path d="M40.7185 20.0002C36.2752 20.0002 32.0421 21.7655 28.9509 24.9071C25.8598 28.0487 24.1631 32.3104 24.2346 36.7531C24.3061 41.1957 26.1399 45.4575 29.3321 48.5991C32.5244 51.7407 36.8143 53.5059 41.2576 53.5059C42.461 53.5059 43.6489 53.3764 44.8029 53.1252C44.2777 51.8269 44.0002 50.4279 44.0002 49.0002C44.0002 46.0829 45.1591 43.285 47.222 41.2221C49.2849 39.1592 52.0828 38.0002 55.0002 38.0002C55.9156 38.0002 56.8193 38.1144 57.6922 38.3347C57.7334 37.8111 57.7501 37.2834 57.7415 36.7531C57.67 32.3104 55.8362 28.0487 52.644 24.9071C49.4517 21.7655 45.1618 20.0002 40.7185 20.0002Z" fill="#2F80ED" />
</svg>