<svg width="80" height="80" viewBox="0 0 80 80" fill="none" xmlns="http://www.w3.org/2000/svg">
  <path fill-rule="evenodd" clip-rule="evenodd" d="M57.0644 21.5748C60.6954 23.6326 63.344 27.0276 64.4342 31.0213C65.0248 33.1848 65.132 35.4286 64.7757 37.6053C66.0682 38.1968 67.261 39.0119 68.2944 40.0262L68.3765 40.1069C70.6943 42.382 72 45.4933 72 48.7411C72 51.9888 70.6943 55.1002 68.3765 57.3753L68.2944 57.4559C65.9809 59.7268 62.8686 60.999 59.6269 60.999H56.8111C56.8012 60.9998 56.7913 61.0002 56.7813 61.0002L23.2203 61.0002C23.2179 61.0002 23.2154 61.0001 23.2129 61.0001H20.3731C17.1314 61.0001 14.0191 59.7278 11.7056 57.457L11.6235 57.3763C9.30573 55.1012 8 51.9899 8 48.7421C8 45.4944 9.30573 42.383 11.6235 40.1079L11.7056 40.0273C13.5867 38.1808 15.9959 36.9946 18.5734 36.6157C18.6316 36.2445 18.7097 35.875 18.8078 35.5088C19.5518 32.7309 21.3869 30.3668 23.9092 28.9374C26.4315 27.5079 29.4348 27.13 32.2576 27.8864C32.9854 28.0815 33.686 28.3479 34.3501 28.6786L35.1356 27.3431C37.2774 23.7018 40.7991 21.0438 44.9174 19.9607C48.986 18.8906 53.3056 19.4446 56.9366 21.5024L57.0644 21.5748Z" fill="#56CCF2" />
  <path d="M43.3888 19.7769C47.9585 18.575 52.8504 19.1867 56.9285 21.4979L57.0721 21.5793C61.1503 23.8905 64.1359 27.7431 65.3604 32.2287C65.894 34.1836 66.0744 36.2049 65.9116 38.1981C64.0228 37.0845 61.8554 36.4832 59.6269 36.4832H59.3975C56.1557 36.4832 53.0434 37.7555 50.73 40.0263L50.6478 40.107C48.3301 42.3821 47.0244 45.4934 47.0244 48.7412C47.0244 50.7362 47.5171 52.6799 48.4345 54.4098C45.1925 54.4851 41.962 53.6997 39.1252 52.0921L38.9817 52.0107C37.1899 50.9953 35.6091 49.6823 34.2958 48.1489C31.9282 49.274 29.2128 49.5239 26.6466 48.8362C23.8238 48.0797 21.4115 46.25 19.9417 43.7511C18.4719 41.2522 18.0638 38.2867 18.8078 35.5089C19.5517 32.731 21.3869 30.3669 23.9091 28.9375C26.4314 27.508 29.4348 27.1301 32.2575 27.8865C32.3397 27.9086 32.4215 27.9315 32.5029 27.9553C34.8836 23.9272 38.8267 20.9768 43.3888 19.7769Z" fill="#2F80ED" />
</svg>