<svg width="80" height="80" viewBox="0 0 80 80" fill="none" xmlns="http://www.w3.org/2000/svg">
  <path fill-rule="evenodd" clip-rule="evenodd" d="M33.0234 14.2028C33.0923 13.3383 33.7093 12.6095 34.5624 12.4533C37.8654 11.8486 41.2534 11.8489 44.5563 12.4543C45.4092 12.6107 46.026 13.3394 46.0949 14.2038L46.4658 18.8603C46.5283 19.6444 47.048 20.311 47.7705 20.6219C48.5128 20.9413 49.241 21.3059 49.951 21.7158C50.6613 22.1259 51.3415 22.5745 51.9896 23.0579C52.62 23.5282 53.4573 23.6451 54.1676 23.3071L58.3833 21.3013C59.1665 20.9286 60.1063 21.0986 60.668 21.7593C62.8432 24.3178 64.5368 27.2524 65.6638 30.4159C65.9548 31.2326 65.632 32.1311 64.9179 32.6229L61.0737 35.2703C60.4259 35.7164 60.1085 36.4999 60.2005 37.281C60.295 38.0834 60.3433 38.8962 60.3433 39.7158C60.3433 40.5359 60.295 41.349 60.2003 42.1519C60.1083 42.933 60.4257 43.7165 61.0735 44.1626L64.9158 46.8087C65.63 47.3006 65.9527 48.1993 65.6615 49.0162C64.5337 52.1795 62.8393 55.1139 60.6632 57.672C60.1014 58.3324 59.1618 58.5022 58.3788 58.1297L54.1664 56.1254C53.4562 55.7874 52.619 55.9042 51.9885 56.3745C51.3408 56.8577 50.6609 57.3059 49.951 57.7158C49.241 58.1257 48.5129 58.4903 47.7706 58.8097C47.0481 59.1206 46.5284 59.7872 46.4659 60.5713L46.0955 65.2217C46.0266 66.0861 45.4098 66.8148 44.557 66.9712C41.2536 67.5768 37.8652 67.5771 34.5617 66.9722C33.7087 66.816 33.0917 66.0872 33.0228 65.2227L32.6523 60.5716C32.5899 59.7876 32.0701 59.1209 31.3475 58.8101C30.605 58.4906 29.8766 58.1259 29.1664 57.7158C28.4565 57.306 27.7768 56.8578 27.1291 56.3747C26.4987 55.9045 25.6615 55.7877 24.9513 56.1256L20.7357 58.1314C19.9528 58.504 19.0133 58.3342 18.4514 57.6739C16.2753 55.1162 14.5807 52.1822 13.4526 49.0192C13.1613 48.2024 13.484 47.3035 14.1983 46.8116L18.0439 44.1632C18.6917 43.717 19.0091 42.9335 18.9171 42.1524C18.8224 41.3494 18.7741 40.536 18.7741 39.7158C18.7741 38.896 18.8223 38.083 18.9169 37.2805C19.0089 36.4993 18.6915 35.7159 18.0437 35.2698L14.1961 32.62C13.482 32.1282 13.1592 31.2296 13.4503 30.4128C14.5776 27.2497 16.2713 24.3155 18.4466 21.7574C19.0084 21.0968 19.9481 20.9269 20.7312 21.2995L24.9501 23.3069C25.6603 23.6448 26.4976 23.528 27.1281 23.0577C27.776 22.5743 28.4561 22.1259 29.1664 21.7158C29.8766 21.3058 30.605 20.941 31.3477 20.6215C32.0702 20.3107 32.59 19.644 32.6524 18.8599L33.0234 14.2028ZM44.7545 30.7162C41.5391 28.8598 37.5775 28.8598 34.3622 30.7162C31.1468 32.5726 29.166 36.0034 29.166 39.7162C29.166 43.429 31.1468 46.8598 34.3622 48.7162C37.5775 50.5726 41.5391 50.5726 44.7545 48.7162C47.9698 46.8598 49.9506 43.429 49.9506 39.7162C49.9506 36.0034 47.9698 32.5726 44.7545 30.7162Z" fill="#2F80ED" />
</svg>