<svg width="84" height="80" viewBox="0 0 84 80" fill="none" xmlns="http://www.w3.org/2000/svg">
  <path fill-rule="evenodd" clip-rule="evenodd" d="M26.0743 29.4964C26.3759 29.9316 26.8746 30.1878 27.404 30.1796L32.2497 30.1038C32.7554 30.0959 33.2271 29.8476 33.5198 29.4351L35.7276 26.3231C36.1146 25.7776 36.804 25.5277 37.4384 25.7397C39.9723 26.5867 42.3264 27.9017 44.3755 29.6138C44.9141 30.0637 45.0478 30.8274 44.7356 31.4559L43.1225 34.7035C42.8859 35.1799 42.9035 35.743 43.1694 36.2036L45.4223 40.1058C45.6883 40.5664 46.1672 40.8632 46.698 40.8965L50.3151 41.1232C51.0156 41.1671 51.6102 41.6649 51.7305 42.3564C52.1881 44.9873 52.1492 47.6837 51.615 50.3017C51.4813 50.9569 50.9203 51.4288 50.2545 51.4912L46.4581 51.847C45.9545 51.8942 45.5036 52.1785 45.2439 52.6125L42.7561 56.77C42.4843 57.2244 42.4568 57.7844 42.6829 58.2631L44.1955 61.4663C44.4902 62.0904 44.3515 62.8378 43.8236 63.2824C41.788 64.9969 39.4638 66.3391 36.9614 67.2453C36.3123 67.4804 35.5955 67.2268 35.2023 66.6594L33.1844 63.7476C32.8828 63.3124 32.3841 63.0562 31.8547 63.0645L27.0098 63.1402C26.5041 63.1481 26.0324 63.3965 25.7397 63.809L23.5316 66.9214C23.1447 67.4667 22.4556 67.7167 21.8213 67.5049C19.2871 66.6588 16.9326 65.3447 14.8829 63.6334C14.344 63.1835 14.2102 62.4196 14.5224 61.7909L16.1362 58.5419C16.3728 58.0656 16.3552 57.5024 16.0893 57.0418L13.8358 53.1388C13.5699 52.6782 13.091 52.3813 12.5602 52.3481L8.93769 52.1211C8.23724 52.0772 7.64266 51.5794 7.52234 50.888C7.06457 48.2575 7.1031 45.5615 7.63679 42.9438C7.77039 42.2885 8.33148 41.8165 8.99736 41.7541L12.7994 41.3978C13.303 41.3506 13.7539 41.0663 14.0136 40.6323L16.5023 36.4732C16.7742 36.0188 16.8016 35.4588 16.5755 34.9801L15.061 31.7726C14.7662 31.1484 14.905 30.4009 15.4331 29.9563C17.4689 28.2425 19.793 26.901 22.2954 25.9954C22.9444 25.7605 23.661 26.0141 24.0541 26.5814L26.0743 29.4964ZM29.6282 38.384C26.6977 38.4298 23.9992 39.9877 22.4942 42.5028L22.359 42.7288C20.8648 45.2259 20.8405 48.3364 22.2955 50.8565C23.7504 53.3766 26.4564 54.9108 29.3659 54.8653L29.6294 54.8612C32.5599 54.8154 35.2584 53.2574 36.7634 50.7424L36.8986 50.5163C38.3928 48.0192 38.4171 44.9087 36.9621 42.3887C35.5072 39.8686 32.8012 38.3344 29.8917 38.3798L29.6282 38.384Z" fill="#F2C94C" />
  <path fill-rule="evenodd" clip-rule="evenodd" d="M74.7392 23.8768C74.4436 24.0805 74.2673 24.4167 74.2679 24.7757L74.2731 28.1542C74.2736 28.5116 74.4494 28.846 74.7435 29.0491L76.8048 30.4729C77.194 30.7417 77.369 31.2323 77.2094 31.6775C76.5925 33.3987 75.673 34.9979 74.4956 36.3958C74.1894 36.7593 73.6742 36.8534 73.2455 36.6485L70.9952 35.5732C70.6711 35.4184 70.2916 35.4332 69.9806 35.6127L67.0749 37.2903C66.7639 37.4699 66.5613 37.7912 66.5334 38.1493L66.3396 40.6342C66.3027 41.108 65.9634 41.5072 65.4955 41.5905C63.6959 41.9107 61.851 41.9069 60.052 41.5801C59.5868 41.4956 59.2496 41.0988 59.2114 40.6275L59.0092 38.1328C58.9803 37.7766 58.7786 37.4572 58.4694 37.2781L55.5465 35.5845C55.2359 35.4045 54.8566 35.3891 54.5324 35.5433L52.2919 36.6085C51.8632 36.8124 51.3488 36.7177 51.043 36.3546C49.8661 34.9573 48.9439 33.3602 48.3218 31.6425C48.1601 31.1961 48.3353 30.7032 48.7262 30.4338L50.7696 29.0257C51.0652 28.822 51.2415 28.4858 51.241 28.1268L51.2357 24.7489C51.2352 24.3915 51.0594 24.0572 50.7654 23.854L48.7039 22.4301C48.3148 22.1614 48.1398 21.671 48.2992 21.2259C48.9154 19.5045 49.8343 17.905 51.0112 16.5066C51.3172 16.1429 51.8326 16.0487 52.2615 16.2536L54.5134 17.3297C54.8375 17.4846 55.217 17.4698 55.5281 17.2902L58.4334 15.6128C58.7444 15.4332 58.947 15.1119 58.9749 14.7539L59.1691 12.2641C59.206 11.7902 59.5452 11.3911 60.0131 11.3078C61.8123 10.9873 63.6569 10.9908 65.4557 11.3173C65.921 11.4017 66.2583 11.7985 66.2965 12.2699L66.4992 14.7697C66.528 15.1259 66.7297 15.4453 67.039 15.6245L69.9621 17.3182C70.2727 17.4981 70.652 17.5136 70.9762 17.3594L73.221 16.2921C73.6498 16.0883 74.1643 16.183 74.47 16.5462C75.6464 17.9437 76.5682 19.5407 77.1898 21.2583C77.3514 21.7047 77.1762 22.1975 76.7853 22.4668L74.7392 23.8768ZM68.5122 26.459C68.509 24.4028 67.4046 22.4899 65.6254 21.459C63.8475 20.4289 61.6469 20.4227 59.8674 21.4501C58.0879 22.4775 56.9929 24.3864 56.9961 26.4412C56.9993 28.4975 58.1036 30.4103 59.8829 31.4412C61.6608 32.4713 63.8614 32.4775 65.6409 31.4501C67.4204 30.4227 68.5154 28.5139 68.5122 26.459Z" fill="#2F80ED" />
</svg>