<svg width="80" height="80" viewBox="0 0 80 80" fill="none" xmlns="http://www.w3.org/2000/svg">
  <path fill-rule="evenodd" clip-rule="evenodd" d="M71.3366 19.4103L67.0368 35.9518L67.0372 35.952L66.2623 38.9334L61.5417 57.0941C47.3779 53.7587 32.6291 53.7787 18.4724 57.154L8.66211 19.413L21.8665 32.0155L32.8807 27.1466L39.9979 9.06641L47.1146 27.145L58.1303 32.0146L71.3366 19.4103Z" fill="#F2C94C" />
  <path d="M67.0368 35.9518L65.1011 35.4487C64.8552 36.3949 65.3294 37.3802 66.2223 37.7784L67.0368 35.9518ZM71.3366 19.4103L73.2722 19.9135C73.4971 19.0484 73.1207 18.1392 72.3502 17.6862C71.5798 17.2332 70.6023 17.3464 69.9557 17.9635L71.3366 19.4103ZM67.0372 35.952L68.9729 36.4551C69.2189 35.5089 68.7447 34.5236 67.8518 34.1254L67.0372 35.952ZM66.2623 38.9334L68.198 39.4366V39.4366L66.2623 38.9334ZM61.5417 57.0941L61.0833 59.0408C62.1409 59.2899 63.204 58.6489 63.4774 57.5972L61.5417 57.0941ZM18.4724 57.154L16.5367 57.6572C16.8106 58.7109 17.8771 59.352 18.9362 59.0995L18.4724 57.154ZM8.66211 19.413L10.043 17.9662C9.39641 17.3491 8.4189 17.2359 7.64843 17.6889C6.87796 18.1419 6.50158 19.0511 6.72643 19.9161L8.66211 19.413ZM21.8665 32.0155L20.4857 33.4623C21.0709 34.0209 21.9351 34.1718 22.6751 33.8447L21.8665 32.0155ZM32.8807 27.1466L33.6893 28.9758C34.1708 28.763 34.5489 28.369 34.7417 27.8792L32.8807 27.1466ZM39.9979 9.06641L41.8589 8.33383C41.5579 7.56913 40.8198 7.06641 39.9979 7.06641C39.1761 7.06641 38.438 7.56913 38.1369 8.33383L39.9979 9.06641ZM47.1146 27.145L45.2536 27.8776C45.4464 28.3674 45.8245 28.7615 46.3059 28.9743L47.1146 27.145ZM58.1303 32.0146L57.3217 33.8439C58.0617 34.171 58.9258 34.02 59.5111 33.4614L58.1303 32.0146ZM68.9725 36.455L73.2722 19.9135L69.4009 18.9072L65.1011 35.4487L68.9725 36.455ZM67.8518 34.1254L67.8514 34.1252L66.2223 37.7784L66.2227 37.7786L67.8518 34.1254ZM68.198 39.4366L68.9729 36.4551L65.1016 35.4489L64.3266 38.4303L68.198 39.4366ZM63.4774 57.5972L68.198 39.4366L64.3266 38.4303L59.606 56.5909L63.4774 57.5972ZM18.9362 59.0995C32.7898 55.7964 47.2228 55.7769 61.0833 59.0408L62.0001 55.1473C47.5331 51.7405 32.4684 51.7609 18.0085 55.2085L18.9362 59.0995ZM6.72643 19.9161L16.5367 57.6572L20.408 56.6509L10.5978 18.9098L6.72643 19.9161ZM23.2474 30.5687L10.043 17.9662L7.28125 20.8598L20.4857 33.4623L23.2474 30.5687ZM32.0721 25.3174L21.0579 30.1862L22.6751 33.8447L33.6893 28.9758L32.0721 25.3174ZM38.1369 8.33383L31.0197 26.414L34.7417 27.8792L41.8589 9.79899L38.1369 8.33383ZM48.9756 26.4125L41.8589 8.33383L38.1369 9.79899L45.2536 27.8776L48.9756 26.4125ZM58.9389 30.1854L47.9232 25.3158L46.3059 28.9743L57.3217 33.8439L58.9389 30.1854ZM69.9557 17.9635L56.7494 30.5678L59.5111 33.4614L72.7174 20.8571L69.9557 17.9635Z" fill="#F2994A" />
  <path d="M14.5342 59.695C14.5342 58.7772 15.1588 57.9773 16.0491 57.7547L28.4925 54.6438C36.136 52.7329 44.1324 52.7329 51.7759 54.6438L64.2193 57.7547C65.1096 57.9773 65.7342 58.7772 65.7342 59.695V68.3718C65.7342 69.673 64.5114 70.6277 63.2491 70.3121L51.7759 67.4438C44.1324 65.5329 36.136 65.5329 28.4925 67.4438L17.0193 70.3121C15.757 70.6277 14.5342 69.673 14.5342 68.3718V59.695Z" fill="#EB5757" stroke="#EB5757" stroke-width="4" stroke-linecap="round" stroke-linejoin="round" />
</svg>