<svg width="80" height="80" viewBox="0 0 80 80" fill="none" xmlns="http://www.w3.org/2000/svg">
  <path d="M41.5617 16.9522C40.7611 15.9514 39.2389 15.9514 38.4383 16.9522L20.9995 38.7506C20.4152 39.481 20.4152 40.519 20.9995 41.2494L38.4383 63.0478C39.2389 64.0486 40.7611 64.0486 41.5617 63.0478L59.0005 41.2494C59.5848 40.519 59.5848 39.481 59.0005 38.7506L41.5617 16.9522Z" fill="#EB5757" stroke="#EB5757" stroke-width="4" stroke-linecap="round" stroke-linejoin="round" />
  <path d="M41.5776 25.9104C40.7772 24.9253 39.2735 24.9253 38.4732 25.9104L28.0501 38.7388C27.4531 39.4736 27.4531 40.5264 28.0501 41.2612L38.4732 54.0896C39.2735 55.0747 40.7772 55.0747 41.5776 54.0896L52.0007 41.2612C52.5977 40.5264 52.5977 39.4736 52.0007 38.7388L41.5776 25.9104Z" fill="#F2F2F2" />
</svg>