<svg width="80" height="80" viewBox="0 0 80 80" fill="none" xmlns="http://www.w3.org/2000/svg">
  <path d="M24 16H23.8172H22.8399C18.1069 16 14.4087 20.0865 14.8796 24.796L15.4514 30.5141C15.7817 33.8172 14.0379 36.9811 11.0688 38.4656L8 40L11.0688 41.5344C14.0379 43.0189 15.7817 46.1828 15.4514 49.4859L14.8796 55.204C14.4087 59.9135 18.1069 64 22.8399 64H23.8172H24" stroke="#2F80ED" stroke-width="4" stroke-linecap="round" stroke-linejoin="round" />
  <path d="M56 16H56.1828H57.1601C61.8931 16 65.5913 20.0865 65.1204 24.796L64.5486 30.5141C64.2183 33.8172 65.9621 36.9811 68.9312 38.4656L72 40L68.9312 41.5344C65.9621 43.0189 64.2183 46.1828 64.5486 49.4859L65.1204 55.204C65.5913 59.9135 61.8931 64 57.1601 64H56.1828H56" stroke="#2F80ED" stroke-width="4" stroke-linecap="round" stroke-linejoin="round" />
  <path d="M27.7852 40H28.2852" stroke="#9B51E0" stroke-width="4" stroke-linecap="round" stroke-linejoin="round" />
  <path d="M39.7852 40H40.2852" stroke="#9B51E0" stroke-width="4" stroke-linecap="round" stroke-linejoin="round" />
  <path d="M51.7852 40H52.2852" stroke="#9B51E0" stroke-width="4" stroke-linecap="round" stroke-linejoin="round" />
</svg>