<svg width="80" height="80" viewBox="0 0 80 80" fill="none" xmlns="http://www.w3.org/2000/svg">
  <path d="M38.4 22.7417C39.5046 22.7417 40.4 21.8463 40.4 20.7417C40.4 19.6371 39.5046 18.7417 38.4 18.7417V22.7417ZM62 42.342C62 41.2374 61.1046 40.342 60 40.342C58.8954 40.342 58 41.2374 58 42.342H62ZM10 22.7417L10 66.7417H14L14 22.7417H10ZM14 70.7417H58V66.7417H14V70.7417ZM38.4 18.7417L14 18.7417V22.7417L38.4 22.7417V18.7417ZM62 66.7417L62 42.342H58L58 66.7417H62ZM58 70.7417C60.2091 70.7417 62 68.9508 62 66.7417H58V66.7417V70.7417ZM10 66.7417C10 68.9508 11.7909 70.7417 14 70.7417V66.7417H10ZM14 22.7417L14 22.7417V18.7417C11.7909 18.7417 10 20.5326 10 22.7417H14Z" fill="#2F80ED" />
  <path fill-rule="evenodd" clip-rule="evenodd" d="M68.0148 21.8972C68.7946 21.1174 68.7946 19.8532 68.0148 19.0734L62.358 13.4165C61.5756 12.6342 60.3072 12.6342 59.5249 13.4166L30.6999 42.2415C28.1994 44.742 26.5977 48.0005 26.1452 51.5077L25.8375 53.8921L25.7118 54.8664C25.6482 55.3589 26.0677 55.7785 26.5603 55.7149L27.5345 55.5892L29.919 55.2815C33.4262 54.829 36.6847 53.2273 39.1852 50.7268L68.0148 21.8972Z" fill="#9B51E0" />
  <path d="M52.1465 20.8037L60.6271 29.2843" stroke="#F2C94C" stroke-width="4" stroke-linejoin="round" />
</svg>