<svg width="80" height="80" viewBox="0 0 80 80" fill="none" xmlns="http://www.w3.org/2000/svg">
  <path fill-rule="evenodd" clip-rule="evenodd" d="M68 33.8203V33.8048V31.66C68 30.4923 67.4897 29.383 66.6032 28.623L45.2063 10.2829C42.2104 7.71495 37.7896 7.71495 34.7937 10.2829L13.3968 28.623C12.5102 29.383 12 30.4924 12 31.66V33.8048V33.8203V33.8358L12 35.9806C12 37.1483 12.5102 38.2577 13.3968 39.0176L34.7937 57.3577C37.7896 59.9257 42.2104 59.9257 45.2063 57.3577L66.6032 39.0176C67.4897 38.2577 68 37.1483 68 35.9806V33.8358V33.8203ZM12 40V36.1622C12 37.3299 12.5102 38.4393 13.3968 39.1992L34.7937 57.5394C37.7896 60.1073 42.2104 60.1073 45.2063 57.5394L66.6032 39.1992C67.4897 38.4393 68 37.3299 68 36.1622V40V54V68C68 70.2091 66.2091 72 64 72H16C13.7909 72 12 70.2091 12 68L12 54L12 40Z" fill="#56CCF2" />
  <path fill-rule="evenodd" clip-rule="evenodd" d="M68 33.9845V34V34.0155V36.1603C68 37.328 67.4897 38.4374 66.6032 39.1973L45.2063 57.5374C42.2104 60.1054 37.7896 60.1054 34.7937 57.5374L13.3968 39.1973C12.5102 38.4374 12 37.328 12 36.1603L12 34.0155V34V33.9845V31.8397C12 30.672 12.5102 29.5626 13.3968 28.8027L34.7937 10.4626C37.7896 7.89464 42.2104 7.89464 45.2063 10.4626L66.6032 28.8027C67.4897 29.5626 68 30.672 68 31.8397V33.9845Z" fill="#2F80ED" />
</svg>