<svg width="80" height="80" viewBox="0 0 80 80" fill="none" xmlns="http://www.w3.org/2000/svg">
  <path fill-rule="evenodd" clip-rule="evenodd" d="M44.8188 34.2705C43.5737 32.8287 41.763 32 39.858 32C37.953 32 36.1423 32.8287 34.8971 34.2705L34.7775 34.409C34.1706 35.1117 33.7106 35.9287 33.4246 36.812L28.0187 53.5036C27.9394 53.7487 28.1221 54 28.3797 54H35L35 66C35 67.1046 35.8954 68 37 68H43C44.1046 68 45 67.1046 45 66L45 54H51.3362C51.5939 54 51.7766 53.7487 51.6972 53.5036L46.2914 36.812C46.0054 35.9287 45.5453 35.1117 44.9385 34.409L44.8188 34.2705Z" fill="#F2C94C" />
  <path d="M44.8188 34.2705L43.3052 35.5777L43.3052 35.5777L44.8188 34.2705ZM34.8971 34.2705L33.3835 32.9632L33.3835 32.9632L34.8971 34.2705ZM34.7775 34.409L36.2911 35.7163L36.2911 35.7163L34.7775 34.409ZM33.4246 36.812L31.5219 36.1958L31.5219 36.1958L33.4246 36.812ZM28.0187 53.5036L26.116 52.8874H26.116L28.0187 53.5036ZM35 54H37C37 52.8954 36.1046 52 35 52V54ZM45 54V52C43.8954 52 43 52.8954 43 54H45ZM51.6972 53.5036L53.5999 52.8874L53.5999 52.8874L51.6972 53.5036ZM46.2914 36.812L48.1941 36.1958V36.1958L46.2914 36.812ZM44.9385 34.409L46.4522 33.1018L46.4521 33.1018L44.9385 34.409ZM39.858 34C41.1817 34 42.44 34.5759 43.3052 35.5777L46.3325 32.9632C44.7074 31.0816 42.3442 30 39.858 30V34ZM36.4108 35.5777C37.276 34.5759 38.5342 34 39.858 34V30C37.3718 30 35.0085 31.0816 33.3835 32.9632L36.4108 35.5777ZM36.2911 35.7163L36.4108 35.5777L33.3835 32.9632L33.2638 33.1018L36.2911 35.7163ZM35.3273 37.4282C35.5311 36.799 35.8588 36.2169 36.2911 35.7163L33.2638 33.1018C32.4825 34.0065 31.8902 35.0585 31.5219 36.1958L35.3273 37.4282ZM29.9214 54.1199L35.3273 37.4282L31.5219 36.1958L26.116 52.8874L29.9214 54.1199ZM28.3797 52C29.48 52 30.2605 53.0731 29.9214 54.1199L26.116 52.8874C25.6183 54.4244 26.7642 56 28.3797 56V52ZM35 52H28.3797V56H35V52ZM37 66L37 54H33L33 66H37ZM37 66H33C33 68.2091 34.7909 70 37 70V66ZM43 66H37V70H43V66ZM43 66V70C45.2091 70 47 68.2091 47 66H43ZM43 54L43 66H47L47 54H43ZM51.3362 52H45V56H51.3362V52ZM49.7945 54.1199C49.4555 53.0731 50.2359 52 51.3362 52V56C52.9518 56 54.0977 54.4244 53.5999 52.8874L49.7945 54.1199ZM44.3887 37.4282L49.7945 54.1199L53.5999 52.8874L48.1941 36.1958L44.3887 37.4282ZM43.4249 35.7163C43.8572 36.2169 44.1849 36.799 44.3887 37.4282L48.1941 36.1958C47.8258 35.0585 47.2335 34.0065 46.4522 33.1018L43.4249 35.7163ZM43.3052 35.5777L43.4249 35.7163L46.4521 33.1018L46.3325 32.9632L43.3052 35.5777Z" fill="#F2C94C" />
  <path d="M36.8727 26.494C38.8489 27.4457 41.1511 27.4457 43.1273 26.494C45.1036 25.5422 46.5389 23.7424 47.027 21.6039C47.5151 19.4654 47.0029 17.221 45.6352 15.506C44.2676 13.7911 42.1935 12.7922 40 12.7922C37.8065 12.7922 35.7324 13.7911 34.3648 15.506C32.9971 17.221 32.4849 19.4654 32.973 21.6039C33.4611 23.7424 34.8964 25.5422 36.8727 26.494Z" fill="#F2994A" stroke="#F2994A" stroke-width="4" stroke-linecap="round" stroke-linejoin="round" />
</svg>