<svg width="80" height="80" viewBox="0 0 80 80" fill="none" xmlns="http://www.w3.org/2000/svg">
  <path d="M28 62C26.8954 62 26 62.8954 26 64C26 65.1046 26.8954 66 28 66V62ZM48 18C49.1046 18 50 17.1046 50 16C50 14.8954 49.1046 14 48 14V18ZM28 66H38V62H28V66ZM30 35L30 17H26L26 35H30ZM29 18L48 18V14L29 14V18ZM38 34H29V38H38V34ZM30 17C30 17.5523 29.5523 18 29 18V14C27.3431 14 26 15.3431 26 17H30ZM26 35C26 36.6569 27.3431 38 29 38V34C29.5523 34 30 34.4477 30 35H26ZM54 50C54 41.1634 46.8366 34 38 34V38C44.6274 38 50 43.3726 50 50L54 50ZM38 66C46.8366 66 54 58.8366 54 50L50 50C50 56.6274 44.6274 62 38 62V66Z" fill="#F2994A" />
</svg>