<svg width="80" height="80" viewBox="0 0 80 80" fill="none" xmlns="http://www.w3.org/2000/svg">
  <path d="M16.1038 40.3093C17.2409 37.1254 20.2568 35 23.6378 35L68.324 35C71.0901 35 73.0213 37.7404 72.091 40.3453L64.9481 60.3453C64.3795 61.9373 62.8716 63 61.1811 63L10.838 63C9.45495 63 8.48935 61.6298 8.95453 60.3273L16.1038 40.3093Z" fill="#F2C94C" />
  <path fill-rule="evenodd" clip-rule="evenodd" d="M12 17C9.79086 17 8 18.7909 8 21V29V45V59C8 59.9655 8.34209 60.8511 8.91167 61.5423C8.80338 61.1611 8.80685 60.7408 8.95453 60.3273L13 49V34C13 31.7909 14.7909 30 17 30H55C57.2091 30 59 31.7909 59 34V35H64V29C64 26.7909 62.2091 25 60 25H31.3992C31.0329 25 30.689 24.8233 30.4757 24.5254L30.1359 24.0508L29.7597 23.5254L29.3835 23L26.2841 18.6713C25.533 17.6223 24.322 17 23.0318 17H12Z" fill="#F2994A" />
  <path fill-rule="evenodd" clip-rule="evenodd" d="M17 30C14.7909 30 13 31.7909 13 34V49L16.1038 40.3093C17.2409 37.1254 20.2568 35 23.6378 35H59V34C59 31.7909 57.2091 30 55 30H17Z" fill="#F2F2F2" />
</svg>