<svg width="80" height="80" viewBox="0 0 80 80" fill="none" xmlns="http://www.w3.org/2000/svg">
  <path fill-rule="evenodd" clip-rule="evenodd" d="M38 24H6V68H30V40H38V38.4369C36.1329 36.6949 35.4502 33.7897 36.8564 31.2584C37.1732 30.6882 37.5611 30.1986 38 29.7895V24Z" fill="#6FCF97" />
  <path d="M6 24V22C4.89543 22 4 22.8954 4 24H6ZM38 24H40C40 22.8954 39.1046 22 38 22V24ZM6 68H4C4 69.1046 4.89543 70 6 70V68ZM30 68V70C31.1046 70 32 69.1046 32 68H30ZM30 40V38C28.8954 38 28 38.8954 28 40H30ZM38 40V42C39.1046 42 40 41.1046 40 40H38ZM38 38.4369H40C40 37.8824 39.7698 37.3528 39.3644 36.9746L38 38.4369ZM36.8564 31.2584L38.6047 32.2297V32.2297L36.8564 31.2584ZM38 29.7895L39.3636 31.2526C39.7695 30.8743 40 30.3444 40 29.7895H38ZM6 26H38V22H6V26ZM8 68V24H4V68H8ZM30 66H6V70H30V66ZM28 40V68H32V40H28ZM38 38H30V42H38V38ZM36 38.4369V40H40V38.4369H36ZM35.1081 30.2871C33.2189 33.6876 34.1537 37.5836 36.6356 39.8993L39.3644 36.9746C38.112 35.8061 37.6814 33.8917 38.6047 32.2297L35.1081 30.2871ZM36.6364 28.3265C36.0439 28.8787 35.5263 29.5344 35.1081 30.2871L38.6047 32.2297C38.8201 31.8421 39.0783 31.5185 39.3636 31.2526L36.6364 28.3265ZM36 24V29.7895H40V24H36Z" fill="#6FCF97" />
  <path d="M22 34V58" stroke="#F2C94C" stroke-width="4" stroke-linecap="round" stroke-linejoin="round" stroke-dasharray="1 8" />
  <path d="M22 12L24 11.9995C23.9997 10.8951 23.1044 10 22 10C20.8956 10 20.0003 10.8951 20 11.9995L22 12ZM22.0031 23.9884L20.0031 23.9889C20.0033 24.8939 20.6113 25.686 21.4855 25.9203C22.3596 26.1545 23.2822 25.7725 23.7349 24.9889L22.0031 23.9884ZM21.9969 23.9884L20.2651 24.9889C20.7178 25.7725 21.6404 26.1545 22.5145 25.9203C23.3887 25.686 23.9967 24.8939 23.9969 23.9889L21.9969 23.9884ZM16 13.6077L17.7318 12.6072C17.1794 11.651 15.9564 11.3235 15 11.8756C14.0436 12.4278 13.7158 13.6507 14.2677 14.6072L16 13.6077ZM21.9915 23.9915L20.992 25.7238C21.7759 26.1761 22.7658 26.0457 23.4057 25.4057C24.0457 24.7658 24.1761 23.7759 23.7238 22.992L21.9915 23.9915ZM11.6077 18L12.6072 16.2677C11.6507 15.7158 10.4278 16.0436 9.87564 17C9.32346 17.9564 9.65098 19.1794 10.6072 19.7318L11.6077 18ZM21.9884 23.9969L21.9889 25.9969C22.8939 25.9967 23.686 25.3887 23.9203 24.5145C24.1545 23.6404 23.7725 22.7178 22.9889 22.2651L21.9884 23.9969ZM10 24L9.99948 22C8.89501 22.0003 7.99986 22.8958 8 24.0003C8.00014 25.1047 8.89553 26 10 26L10 24ZM34 24V26C35.1045 26 35.9999 25.1047 36 24.0003C36.0001 22.8958 35.105 22.0003 34.0005 22L34 24ZM22.0116 23.9969L21.0111 22.2651C20.2275 22.7178 19.8455 23.6404 20.0797 24.5145C20.314 25.3887 21.1061 25.9967 22.0111 25.9969L22.0116 23.9969ZM32.3923 18L33.3928 19.7318C34.349 19.1794 34.6765 17.9564 34.1244 17C33.5722 16.0436 32.3493 15.7158 31.3928 16.2677L32.3923 18ZM22.0085 23.9915L20.2762 22.992C19.8239 23.7759 19.9543 24.7658 20.5943 25.4057C21.2342 26.0457 22.2241 26.1761 23.008 25.7238L22.0085 23.9915ZM28 13.6077L29.7323 14.6072C30.2842 13.6507 29.9564 12.4278 29 11.8756C28.0436 11.3235 26.8206 11.651 26.2682 12.6072L28 13.6077ZM20 12.0005L20.0031 23.9889L24.0031 23.9879L24 11.9995L20 12.0005ZM23.9969 23.9889L24 12.0005L20 11.9995L19.9969 23.9879L23.9969 23.9889ZM14.2682 14.6081L20.2651 24.9889L23.7287 22.988L17.7318 12.6072L14.2682 14.6081ZM23.7238 22.992L17.7323 12.6081L14.2677 14.6072L20.2592 24.9911L23.7238 22.992ZM10.6081 19.7323L20.992 25.7238L22.9911 22.2592L12.6072 16.2677L10.6081 19.7323ZM22.9889 22.2651L12.6081 16.2682L10.6072 19.7318L20.988 25.7287L22.9889 22.2651ZM10.0005 26L21.9889 25.9969L21.9879 21.9969L9.99948 22L10.0005 26ZM10 26H34V22H10V26ZM22.0111 25.9969L33.9995 26L34.0005 22L22.0121 21.9969L22.0111 25.9969ZM31.3919 16.2682L21.0111 22.2651L23.012 25.7287L33.3928 19.7318L31.3919 16.2682ZM23.008 25.7238L33.3919 19.7323L31.3928 16.2677L21.0089 22.2592L23.008 25.7238ZM26.2677 12.6081L20.2762 22.992L23.7408 24.9911L29.7323 14.6072L26.2677 12.6081ZM23.7349 24.9889L29.7318 14.6081L26.2682 12.6072L20.2713 22.988L23.7349 24.9889Z" fill="#EB5757" />
  <rect x="30" y="40" width="44" height="28" fill="#9B51E0" stroke="#9B51E0" stroke-width="4" stroke-linecap="round" stroke-linejoin="round" />
  <path d="M30 54H74" stroke="#EB5757" stroke-width="4" stroke-linecap="round" stroke-linejoin="round" />
  <path d="M52 40V68" stroke="#EB5757" stroke-width="4" stroke-linecap="round" stroke-linejoin="round" />
  <path d="M36.8564 31.2584C39.0983 27.2231 44.9017 27.2231 47.1436 31.2584L51.8168 39.6702C51.899 39.8182 51.792 40 51.6228 40V40H42C37.5135 40 34.6776 35.1803 36.8564 31.2584V31.2584Z" stroke="#EB5757" stroke-width="4" stroke-linecap="round" stroke-linejoin="round" />
  <path d="M67.1436 31.2584C64.9017 27.2231 59.0983 27.2231 56.8564 31.2584L52.1832 39.6702C52.101 39.8182 52.208 40 52.3772 40V40H62C66.4865 40 69.3224 35.1803 67.1436 31.2584V31.2584Z" stroke="#EB5757" stroke-width="4" stroke-linecap="round" stroke-linejoin="round" />
</svg>