<svg width="80" height="80" viewBox="0 0 80 80" fill="none" xmlns="http://www.w3.org/2000/svg">
  <path fill-rule="evenodd" clip-rule="evenodd" d="M36 48C36 45.7909 30.6274 44 24 44C17.3726 44 12 45.7909 12 48V52C12 58.6274 17.3726 64 24 64C30.6274 64 36 58.6274 36 52V48Z" fill="#56CCF2" />
  <path d="M24 46C27.1586 46 29.9351 46.4297 31.8528 47.0689C32.8221 47.392 33.4623 47.7327 33.819 48.0138C34.1983 48.3128 34 48.3232 34 48H38C38 46.5723 37.1301 45.5304 36.2949 44.8722C35.4372 44.1962 34.32 43.675 33.1177 43.2742C30.6923 42.4657 27.4689 42 24 42V46ZM14 48C14 48.3232 13.8017 48.3128 14.181 48.0138C14.5377 47.7327 15.1779 47.392 16.1472 47.0689C18.0649 46.4297 20.8414 46 24 46V42C20.5311 42 17.3077 42.4657 14.8823 43.2742C13.68 43.675 12.5628 44.1962 11.7051 44.8722C10.8699 45.5304 10 46.5723 10 48H14ZM14 52V48H10V52H14ZM34 48V52H38V48H34ZM24 66C31.732 66 38 59.732 38 52H34C34 57.5228 29.5228 62 24 62V66ZM10 52C10 59.732 16.268 66 24 66V62C18.4772 62 14 57.5228 14 52H10Z" fill="#9B51E0" />
  <path d="M12 47L18.8385 20.5007C19.5223 17.8513 21.9119 16 24.6482 16H28" stroke="#9B51E0" stroke-width="4" stroke-linecap="round" stroke-linejoin="round" />
  <path d="M36 47H44" stroke="#9B51E0" stroke-width="4" stroke-linecap="round" stroke-linejoin="round" />
  <path fill-rule="evenodd" clip-rule="evenodd" d="M44 48C44 45.7909 49.3726 44 56 44C62.6274 44 68 45.7909 68 48V52C68 58.6274 62.6274 64 56 64C49.3726 64 44 58.6274 44 52V48Z" fill="#56CCF2" />
  <path d="M56 46C52.8414 46 50.0649 46.4297 48.1472 47.0689C47.1779 47.392 46.5377 47.7327 46.181 48.0138C45.8017 48.3128 46 48.3232 46 48H42C42 46.5723 42.8699 45.5304 43.7051 44.8722C44.5628 44.1962 45.68 43.675 46.8823 43.2742C49.3077 42.4657 52.5311 42 56 42V46ZM66 48C66 48.3232 66.1983 48.3128 65.819 48.0138C65.4623 47.7327 64.8221 47.392 63.8528 47.0689C61.9351 46.4297 59.1586 46 56 46V42C59.4689 42 62.6923 42.4657 65.1177 43.2742C66.32 43.675 67.4372 44.1962 68.2949 44.8722C69.1301 45.5304 70 46.5723 70 48H66ZM66 52V48H70V52H66ZM46 48V52H42V48H46ZM56 66C48.268 66 42 59.732 42 52H46C46 57.5228 50.4772 62 56 62V66ZM70 52C70 59.732 63.732 66 56 66V62C61.5228 62 66 57.5228 66 52H70Z" fill="#9B51E0" />
  <path d="M68 47L61.1615 20.5007C60.4777 17.8513 58.0881 16 55.3518 16H52" stroke="#9B51E0" stroke-width="4" stroke-linecap="round" stroke-linejoin="round" />
</svg>