<svg viewBox="0 0 80 80" fill="none">
  <path d="M29.3934 14.3934C36.1847 11.5804 43.8153 11.5804 50.6066 14.3934C57.3979 17.2064 62.7936 22.6021 65.6066 29.3934C68.4196 36.1847 68.4196 43.8153 65.6066 50.6066C62.7936 57.3979 57.3979 62.7936 50.6066 65.6066C43.8153 68.4196 36.1847 68.4196 29.3934 65.6066C22.6021 62.7936 17.2064 57.3979 14.3934 50.6066C11.5804 43.8153 11.5804 36.1847 14.3934 29.3934C17.2064 22.6021 22.6021 17.2064 29.3934 14.3934Z" fill="#2F80ED" />
  <path fill-rule="evenodd" clip-rule="evenodd" d="M24.4121 45.6111C25.6336 45.7398 26.8493 45.3201 27.7312 44.4653L28.9063 43.3262C30.3663 41.9111 32.3298 41.1359 34.3627 41.1719L34.4187 41.1729L38.2003 45.5406L41.1013 45.2763L42.6238 45.1376C43.5145 45.0564 44.3486 44.6657 44.9811 44.0333C45.6427 43.3718 46.5239 42.9757 47.4578 42.9201L49.8527 42.7773L52.3911 45.6403C53.8732 47.312 53.7885 49.8512 52.1981 51.4203C51.3766 52.2309 50.258 52.668 49.1046 52.6291L45.515 52.508C45.0372 52.4919 44.5909 52.7453 44.3599 53.1638C44.0595 53.708 43.4095 53.955 42.8236 53.7476L36.9642 51.6732C36.3868 51.4688 35.9749 50.955 35.901 50.347C35.8001 49.5165 35.0811 48.901 34.2451 48.9292L28.6206 49.1188C28.272 49.1306 27.9382 48.9775 27.7197 48.7056C27.2727 48.1495 26.4242 48.1547 25.9841 48.7164L22.8055 52.7733C22.2051 53.5395 21.832 54.4589 21.7286 55.4268L21.2022 60.3532C23.5814 62.5504 26.3495 64.3343 29.3991 65.5974C36.1903 68.4105 43.821 68.4105 50.6123 65.5974C52.9583 64.6256 55.1378 63.3457 57.1018 61.8065L54.1286 58.7489C53.5563 58.1604 53.6579 57.1971 54.3404 56.7409C54.8706 56.3864 55.5789 56.4641 56.0198 56.925L59.0678 60.1113C61.2756 58.0195 63.137 55.5667 64.5628 52.8419L64.4527 52.732C64.123 52.4032 64.0557 51.8938 64.2885 51.4905C64.5302 51.0719 65.0094 50.8984 65.4378 51.0092C65.497 50.8725 65.5552 50.7353 65.6123 50.5974C68.4253 43.8061 68.4253 36.1755 65.6123 29.3842C64.1133 25.7654 61.881 22.5429 59.0951 19.8962L57.5701 19.9023C55.5133 19.9104 53.5325 19.1262 52.0388 17.7123L51.5702 17.2687C50.2086 15.9799 48.4367 15.2101 46.5654 15.094C44.2966 14.9532 42.0741 15.7842 40.4547 17.3795L37.6856 20.1073C37.1279 20.6567 36.9206 21.4699 37.1471 22.2192C37.5912 23.6882 39.4059 24.2056 40.5579 23.1917L43.1942 20.8714C43.787 20.3496 44.695 20.4261 45.1922 21.0397C45.6282 21.5777 45.6016 22.3547 45.1298 22.8616L42.8053 25.3591C42.4254 25.7672 42.1921 26.2901 42.1421 26.8453C42.0274 28.1194 40.9736 29.1038 39.6947 29.1316L36.3633 29.204C34.8579 29.2367 33.4151 29.8128 32.3012 30.826L28.4924 34.2905L27.0712 28.9107C26.0822 25.167 21.5868 23.6551 18.5365 26.0403L18.1591 26.3354C17.1942 27.0899 16.5952 28.2187 16.5113 29.4407C16.3436 31.8835 18.2389 33.9767 20.6863 34.0516L28.4924 34.2905L26.3788 38.8195C25.9083 39.8278 25.0391 40.5945 23.98 40.9354L22.3981 41.4447C21.4364 41.7543 20.8426 42.7173 20.998 43.7156C21.1412 44.6361 21.8859 45.345 22.8124 45.4426L24.4121 45.6111ZM49.8527 42.7773L50.7982 40.7447C51.7232 38.756 53.6509 37.4226 55.8381 37.2586L57.0832 37.1653C58.4409 37.0634 59.7519 37.6841 60.5337 38.7987L61.2313 39.7932C61.9411 40.8052 61.7939 42.186 60.8867 43.0257C60.0984 43.7553 58.9289 43.892 57.9935 43.3639L56.9835 42.7937C56.2508 42.38 55.4076 42.2042 54.5705 42.2905L49.8527 42.7773Z" fill="#6FCF97" />
</svg>