<svg width="80" height="80" viewBox="0 0 80 80" fill="none" xmlns="http://www.w3.org/2000/svg">
  <path d="M29.3934 14.3934C36.1847 11.5804 43.8153 11.5804 50.6066 14.3934C57.3979 17.2064 62.7936 22.6021 65.6066 29.3934C68.4196 36.1847 68.4196 43.8153 65.6066 50.6066C62.7936 57.3979 57.3979 62.7936 50.6066 65.6066C43.8153 68.4196 36.1847 68.4196 29.3934 65.6066C22.6021 62.7936 17.2064 57.3979 14.3934 50.6066C11.5804 43.8153 11.5804 36.1847 14.3934 29.3934C17.2064 22.6021 22.6021 17.2064 29.3934 14.3934Z" fill="#2F80ED" />
  <path fill-rule="evenodd" clip-rule="evenodd" d="M33.1025 13.148C33.1952 13.2081 33.2864 13.2709 33.3761 13.3363L34.0104 13.7984C34.7181 14.3139 35.571 14.5917 36.4465 14.5917H36.9598C37.6336 14.5917 38.2845 14.8369 38.7908 15.2815C39.2972 15.7262 39.9481 15.9714 40.6219 15.9714L50.4903 15.9714C50.8292 15.9714 51.1546 16.1038 51.3973 16.3403L52.1351 17.0593C52.7008 17.6107 52.3104 18.5705 51.5205 18.5705C51.1906 18.5705 50.8883 18.7549 50.7374 19.0483L50.4457 19.6153C50.0992 20.2891 49.3897 20.697 48.6331 20.6576L47.6473 20.6062C46.6886 20.5562 45.7525 20.9076 45.0635 21.576L44.4596 22.1618C43.9258 22.6796 43.2182 22.9796 42.475 23.0033L42.218 23.0115C40.7597 23.0581 39.598 24.2472 39.5856 25.7062C39.5797 26.3981 39.3103 27.0617 38.8322 27.5619L35.2061 31.3555C34.6864 31.8992 33.9649 32.2038 33.2127 32.197C31.8531 32.1847 30.6927 33.1771 30.4939 34.5222L30.4843 34.5868C30.3684 35.3715 29.9248 36.0701 29.264 36.5089L28.625 36.9332C27.918 37.4027 27.5234 38.2204 27.5957 39.066L27.6273 39.4348C27.7049 40.3407 27.1228 41.1722 26.2451 41.4094C25.4527 41.6235 24.6131 41.2986 24.1711 40.607L23.742 39.9354C22.6246 38.1866 20.1028 38.0969 18.864 39.7619L18.3926 40.3954C18.19 40.6677 18.0374 40.9738 17.9417 41.2994L17.3829 43.202C17.296 43.4979 17.003 43.6832 16.6985 43.6349C16.5228 43.607 16.3679 43.5042 16.2739 43.3532L13.974 39.6571C13.5715 39.0103 13.0063 38.4984 12.3496 38.1613C12.5474 35.1711 13.2305 32.2053 14.399 29.3844C17.212 22.5931 22.6077 17.1975 29.399 14.3844C30.6099 13.8828 31.8476 13.4707 33.1025 13.148ZM26.6926 43.881C25.578 44.0995 25.0356 45.3737 25.6507 46.3285L27.2832 48.8624C27.7872 49.6447 28.5709 50.2051 29.4741 50.429L30.8849 50.7788C31.4229 50.9122 31.9915 50.7539 32.3832 50.3617C33.0235 49.7206 32.9946 48.6736 32.3201 48.0687L28.0745 44.2616C27.6991 43.925 27.1874 43.7841 26.6926 43.881ZM41.8496 29.9604C42.636 29.0941 42.2309 27.7028 41.1024 27.3941C40.4529 27.2165 39.7626 27.4733 39.3872 28.0321L37.9809 30.1252C37.4569 30.9052 37.8458 31.9696 38.7493 32.2279C39.2558 32.3727 39.8006 32.2175 40.1546 31.8274L41.8496 29.9604ZM37.1822 48.3531C37.0055 49.1349 37.581 49.8856 38.3818 49.9179L41.7377 50.0534C42.1699 50.0709 42.5956 49.9438 42.9475 49.6922L43.2288 49.4912C43.5039 49.2945 43.6813 48.9893 43.716 48.6529C43.7877 47.9576 43.2422 47.3529 42.5432 47.3529H38.4336C37.834 47.3529 37.3143 47.7682 37.1822 48.3531ZM39.5958 52.2849C38.1896 52.3529 36.8609 52.9496 35.8758 53.9554L35.2299 54.6149C34.5172 55.3427 34.1522 56.342 34.2281 57.3578C34.3662 59.2071 35.9069 60.6371 37.7614 60.6371H38.9295C39.9918 60.6371 41.0149 61.0382 41.7942 61.7602L42.2349 62.1685C42.7309 62.628 43.3821 62.8832 44.0582 62.8832C45.5399 62.8832 46.741 61.6821 46.741 60.2004V58.3533C46.741 57.2371 46.3289 56.1601 45.5837 55.3291L44.6643 54.3037C43.4334 52.9309 41.6496 52.1856 39.8079 52.2747L39.5958 52.2849ZM33.0279 45.1204C32.0471 44.5008 31.8856 43.1353 32.6948 42.304L34.709 40.2348C34.9494 39.9878 35.306 39.8928 35.6374 39.9874C36.2392 40.1591 36.5067 40.8612 36.1717 41.3898L36.1211 41.4697C35.9983 41.6635 35.9453 41.8935 35.9709 42.1215L36.0579 42.896C36.118 43.4306 35.9757 43.9683 35.6592 44.4032L35.4787 44.6513C34.9129 45.4288 33.8408 45.634 33.0279 45.1204ZM49.9933 63.0658C49.6468 62.6127 49.6321 61.9879 49.9568 61.5189L50.8613 60.2127C51.3144 59.5583 52.24 59.4525 52.8291 59.9876C53.319 60.4325 53.4025 61.1719 53.0243 61.7149L52.1162 63.0186C51.6073 63.7493 50.5343 63.7732 49.9933 63.0658Z" fill="#6FCF97" />
</svg>