<svg width="80" height="80" viewBox="0 0 80 80" fill="none" xmlns="http://www.w3.org/2000/svg">
  <path d="M39.2129 65C39.2129 63.8954 38.3175 63 37.2129 63C36.1083 63 35.2129 63.8954 35.2129 65H39.2129ZM53.2129 73.4373C54.3175 73.4373 55.2129 72.5419 55.2129 71.4373C55.2129 70.3328 54.3175 69.4373 53.2129 69.4373V73.4373ZM21.2129 69.4373C20.1083 69.4373 19.2129 70.3328 19.2129 71.4373C19.2129 72.5419 20.1083 73.4373 21.2129 73.4373L21.2129 69.4373ZM39.2129 71.4373V65H35.2129V71.4373H39.2129ZM37.2129 73.4373L53.2129 73.4373V69.4373L37.2129 69.4373V73.4373ZM37.2129 69.4373L21.2129 69.4373L21.2129 73.4373L37.2129 73.4373V69.4373Z" fill="#828282" />
  <path d="M20.4739 58.1217L18.8499 56.9543H18.8499L20.4739 58.1217ZM20.712 59.5035L21.8237 57.841L21.8237 57.841L20.712 59.5035ZM24.2033 52.9336L25.3707 51.3097L23.7467 50.1423L22.5794 51.7662L24.2033 52.9336ZM34.2517 56.9132L34.5128 54.9303H34.5128L34.2517 56.9132ZM50.644 52.5209L49.4265 50.9342H49.4265L50.644 52.5209ZM59.1293 37.824L57.1464 37.5629L57.1464 37.5629L59.1293 37.824ZM54.737 21.4317L53.1503 22.6492L54.737 21.4317ZM46.2664 14.7193L44.4435 13.8966L43.6208 15.7195L45.4437 16.5422L46.2664 14.7193ZM48.8961 8.89239L50.719 9.71509L48.8961 8.89239ZM50.2118 8.40762L49.3279 10.2017L50.2118 8.40762ZM60.6008 16.9304L62.1875 15.7128L60.6008 16.9304ZM66.4572 38.7868L64.4743 38.5257V38.5257L66.4572 38.7868ZM55.1435 58.3827L53.926 56.796L55.1435 58.3827ZM33.2871 64.2391L33.5482 62.2562H33.5482L33.2871 64.2391ZM18.8499 56.9543C17.8936 58.2846 18.1639 60.2056 19.6002 61.1661L21.8237 57.841C22.3418 58.1874 22.4094 58.8556 22.0979 59.289L18.8499 56.9543ZM22.5794 51.7662L18.8499 56.9543L22.0979 59.289L25.8273 54.101L22.5794 51.7662ZM34.5128 54.9303C31.1834 54.492 28.0489 53.2348 25.3707 51.3097L23.036 54.5576C26.2449 56.8643 30.001 58.3709 33.9907 58.8961L34.5128 54.9303ZM49.4265 50.9342C45.1819 54.1912 39.8173 55.6287 34.5128 54.9303L33.9907 58.8961C40.347 59.7329 46.7753 58.0104 51.8616 54.1076L49.4265 50.9342ZM57.1464 37.5629C56.4481 42.8674 53.6712 47.6772 49.4265 50.9342L51.8616 54.1076C56.9478 50.2048 60.2754 44.4413 61.1122 38.085L57.1464 37.5629ZM53.1503 22.6492C56.4073 26.8938 57.8448 32.2584 57.1464 37.5629L61.1122 38.085C61.949 31.7288 60.2266 25.3004 56.3237 20.2141L53.1503 22.6492ZM45.4437 16.5422C48.45 17.899 51.106 19.985 53.1503 22.6492L56.3237 20.2141C53.874 17.0216 50.6912 14.522 47.0892 12.8963L45.4437 16.5422ZM47.0731 8.0697L44.4435 13.8966L48.0894 15.542L50.719 9.71509L47.0731 8.0697ZM51.0958 6.61356C49.5458 5.84988 47.7471 6.57632 47.0731 8.0697L50.719 9.71509C50.4995 10.2016 49.887 10.4772 49.3279 10.2017L51.0958 6.61356ZM62.1875 15.7128C59.2097 11.8321 55.4022 8.73536 51.0958 6.61356L49.3279 10.2017C53.0889 12.0547 56.4137 14.7589 59.0141 18.1479L62.1875 15.7128ZM68.4401 39.0478C69.5328 30.7481 67.2837 22.3543 62.1875 15.7128L59.0141 18.1479C63.4644 23.9477 65.4286 31.2778 64.4743 38.5257L68.4401 39.0478ZM56.361 59.9694C63.0025 54.8733 67.3474 47.3475 68.4401 39.0478L64.4743 38.5257C63.5201 45.7737 59.7258 52.3457 53.926 56.796L56.361 59.9694ZM33.0261 66.222C41.3258 67.3147 49.7196 65.0655 56.361 59.9694L53.926 56.796C48.1262 61.2463 40.7961 63.2104 33.5482 62.2562L33.0261 66.222ZM19.6002 61.1661C23.5909 63.8346 28.1764 65.5835 33.0261 66.222L33.5482 62.2562C29.3131 61.6987 25.3089 60.1715 21.8237 57.841L19.6002 61.1661Z" fill="#828282" />
  <path d="M40.107 13.0165C45.9374 13.7841 51.224 16.8364 54.8039 21.5018C58.3839 26.1673 59.9638 32.0637 59.1962 37.8941C58.4287 43.7245 55.3764 49.0111 50.711 52.591C46.0455 56.171 40.149 57.7509 34.3187 56.9834C28.4883 56.2158 23.2016 53.1635 19.6217 48.4981C16.0418 43.8326 14.4618 37.9361 15.2294 32.1058C15.997 26.2754 19.0492 20.9888 23.7147 17.4088C28.3802 13.8289 34.2766 12.2489 40.107 13.0165Z" fill="#2F80ED" stroke="#2F80ED" stroke-width="4" stroke-linecap="round" stroke-linejoin="round" />
  <path fill-rule="evenodd" clip-rule="evenodd" d="M27.462 21.9435C27.9092 22.2681 28.4769 22.3788 29.0133 22.246L29.7272 22.0692C30.6152 21.8494 31.5541 21.9906 32.3382 22.4619L32.3637 22.4772L32.863 25.0249L34.0557 25.5768L34.6836 25.8673C35.0486 26.0362 35.4612 26.0725 35.8501 25.9698C36.2569 25.8623 36.6889 25.9071 37.0651 26.0955L38.0349 26.5814L38.3838 28.2574C38.589 29.2426 37.9834 30.2151 37.0087 30.4656C36.5101 30.5937 35.9809 30.5122 35.544 30.2401L34.159 29.3774C33.9767 29.2638 33.7461 29.2618 33.5618 29.3723C33.3224 29.5157 33.0145 29.4658 32.8327 29.254L31.0049 27.1238C30.826 26.9152 30.7807 26.6233 30.8882 26.3703C31.0347 26.0257 30.8936 25.6262 30.5632 25.4499L28.3178 24.2518C28.1792 24.1779 28.0834 24.0432 28.0588 23.8881C28.0087 23.5709 27.6771 23.3822 27.3787 23.5011L25.2338 24.3557C24.8236 24.5191 24.4679 24.7949 24.2075 25.1515L23.0399 26.7502C22.0078 28.1633 21.6742 29.969 22.1333 31.6576L22.4188 32.7079C22.6281 33.4778 23.1287 34.136 23.8147 34.5433C25.2422 35.3907 25.738 37.2191 24.9342 38.6716L24.3381 39.7488C23.9876 40.3823 23.9415 41.1401 24.2128 41.8114C24.4798 42.4719 24.4397 43.2169 24.1034 43.845L22.7749 46.3256C22.5328 46.7777 22.4333 47.2926 22.4895 47.8024C22.576 48.5863 23.0284 49.2894 23.7028 49.6983C24.3153 50.0697 25.0607 50.1718 25.7491 49.9739L26.9923 49.6164C28.3606 49.2229 29.5241 48.3162 30.24 47.0855L32.1319 43.8333C32.6944 42.8662 33.614 42.1584 34.693 41.8622L35.7497 41.572C36.5528 41.3515 37.1794 40.7229 37.3974 39.9192C37.504 39.5263 37.5068 39.1124 37.4056 38.7182L36.1292 33.7476C36.037 33.3885 36.2945 33.0343 36.6645 33.0112C36.9493 32.9934 37.206 33.1816 37.2747 33.4585L37.9212 36.0649C38.1076 36.8164 38.5768 37.4669 39.2309 37.881L39.7243 38.1934C40.1153 38.441 40.5917 38.5147 41.0392 38.3969C41.9347 38.1613 42.4661 37.2406 42.2222 36.3474L41.5103 33.7396C41.4549 33.5366 41.5437 33.3217 41.7263 33.217C41.9873 33.0674 42.3195 33.2032 42.4009 33.4929L42.7321 34.6715C42.8313 35.0246 43.0636 35.3255 43.3801 35.5108L44.0405 35.8972C45.0219 36.4717 45.64 37.5095 45.6775 38.646L45.7925 42.1268C45.7972 42.269 45.8634 42.4022 45.974 42.4918C46.1656 42.6471 46.4428 42.6359 46.6213 42.4657L47.7695 41.371C47.966 41.1837 48.1942 41.0327 48.4435 40.9251L49.0235 40.6747C50.5477 40.0167 52.259 41.0876 52.3337 42.7461L52.3623 43.383C52.3919 44.039 52.8437 44.5999 53.4783 44.7685C54.1813 44.9553 54.9171 44.612 55.2257 43.9534L55.3514 43.6852C55.6395 43.0705 56.2399 42.6618 56.9175 42.6193L57.53 42.581C57.7243 42.5688 57.9141 42.5315 58.0954 42.4713C58.6226 40.9991 58.9965 39.4643 59.2038 37.8899C59.9714 32.0596 58.3914 26.1631 54.8115 21.4976C54.6711 21.3147 54.5282 21.1343 54.3827 20.9565C53.8228 20.8441 53.2351 20.8941 52.6921 21.1119L52.2953 21.271C51.2061 21.7079 49.977 21.6229 48.9584 21.0401L46.3021 19.5205C45.4143 19.0126 44.7549 18.1837 44.4598 17.2044L44.4213 17.0769C44.177 16.2664 43.657 15.5667 42.9512 15.0991C42.0958 14.5324 41.0405 14.3543 40.0465 14.6089L38.3621 15.0404C38.0195 15.1282 37.7543 15.3995 37.6743 15.744C37.5189 16.4137 38.106 17.0207 38.7805 16.8878L40.3449 16.5794C40.6916 16.5111 41.0259 16.7435 41.0825 17.0923C41.1326 17.4012 40.9464 17.6995 40.6469 17.7903L39.1831 18.2337C38.9432 18.3063 38.7345 18.4571 38.59 18.6619C38.2603 19.1298 37.6317 19.2752 37.1299 18.9998L35.8016 18.2706C35.2078 17.9446 34.5165 17.8433 33.8542 17.9852L31.5898 18.4701L32.2379 16.0685C32.4988 15.1014 32.1443 14.1615 31.4679 13.5818C30.1624 13.9325 28.889 14.4026 27.6643 14.9875C27.6721 15.6248 27.9947 16.2462 28.5795 16.608L31.5898 18.4701L29.751 19.7494C29.3403 20.0351 28.8292 20.1371 28.3403 20.0307L27.6025 19.8702C27.1598 19.7739 26.7129 20.0147 26.5498 20.4374C26.3998 20.8262 26.5302 21.2672 26.8674 21.5119L27.462 21.9435ZM54.1906 49.2668C53.4291 50.1723 52.5925 51.02 51.6865 51.7999C51.4059 51.3692 51.2417 50.8686 51.2163 50.3474L51.0988 47.9388C51.0545 47.0313 51.9401 46.3655 52.7996 46.6599C53.1813 46.7907 53.4794 47.093 53.6048 47.4764L54.1906 49.2668ZM38.0349 26.5814L38.8508 26.0123C39.6634 25.4454 40.7186 25.3609 41.6111 25.7912L42.1274 26.0402C42.6747 26.304 43.0434 26.8356 43.0989 27.4406L43.1486 27.9831C43.1996 28.5392 42.8297 29.0466 42.2847 29.1683C41.8161 29.2729 41.3334 29.0645 41.0881 28.6518L40.8175 28.1966C40.6238 27.8706 40.3341 27.6124 39.988 27.4572L38.0349 26.5814ZM32.5983 48.8154C32.1381 48.5497 31.9958 47.9518 32.2869 47.5072L32.699 46.8779C32.8796 46.6023 33.1391 46.3875 33.4437 46.2618L33.8891 46.0781C34.1075 45.9879 34.3546 45.9991 34.564 46.1087C34.9755 46.3239 35.1173 46.8435 34.8722 47.2379L34.2864 48.181C34.1594 48.3855 33.9831 48.5548 33.7737 48.6736L33.5175 48.8189C33.2321 48.9808 32.8824 48.9795 32.5983 48.8154Z" fill="#6FCF97" />
</svg>