<svg viewBox="0 0 80 80" fill="none">
  <path fill-rule="evenodd" clip-rule="evenodd" d="M8.8125 66.375C8.8125 66.6511 9.03636 66.875 9.3125 66.875H46.3938C52.695 66.875 58.8086 64.7305 63.729 60.7941L69.6551 56.0533C71.2723 54.7595 71.5345 52.3996 70.2408 50.7824C68.947 49.1652 66.5871 48.903 64.9699 50.1967L59.0438 54.9376C58.2404 55.5804 57.2235 55.875 56.1945 55.875H55.3125L34.8124 55.875C34.6744 55.875 34.5625 55.7631 34.5625 55.6251C34.5625 55.4896 34.6705 55.3787 34.806 55.3768C34.897 55.3756 34.988 55.375 35.0791 55.375H44.8125C46.8836 55.375 48.5625 53.6961 48.5625 51.625C48.5625 49.5539 46.8836 47.875 44.8125 47.875H35.0791C30.4929 47.875 25.9925 49.0114 21.974 51.1644C20.6071 51.8968 19.1042 52.375 17.5535 52.375H9.3125C9.03636 52.375 8.8125 52.5989 8.8125 52.875L8.8125 66.375Z" fill="#F2C94C" />
  <path d="M37.2739 26.0437L36.7386 27.9707H36.7386L37.2739 26.0437ZM40.2792 26.8785L40.8497 24.9616C40.838 24.9581 40.8262 24.9547 40.8145 24.9514L40.2792 26.8785ZM42.7822 27.6234L43.3527 25.7065L42.7822 27.6234ZM34.8125 32.5903C34.8125 31.4857 33.9171 30.5903 32.8125 30.5903C31.7079 30.5903 30.8125 31.4857 30.8125 32.5903H34.8125ZM44.3458 21.4097C44.3458 22.5143 45.2413 23.4097 46.3458 23.4097C47.4504 23.4097 48.3458 22.5143 48.3458 21.4097L44.3458 21.4097ZM37.8125 15.3333C37.8125 16.4379 38.7079 17.3333 39.8125 17.3333C40.9171 17.3333 41.8125 16.4379 41.8125 15.3333L37.8125 15.3333ZM41.8125 13C41.8125 11.8954 40.9171 11 39.8125 11C38.7079 11 37.8125 11.8954 37.8125 13L41.8125 13ZM37.8125 41C37.8125 42.1046 38.7079 43 39.8125 43C40.9171 43 41.8125 42.1046 41.8125 41H37.8125ZM41.8125 38.6667C41.8125 37.5621 40.9171 36.6667 39.8125 36.6667C38.7079 36.6667 37.8125 37.5621 37.8125 38.6667H41.8125ZM40.5125 13.3333H38.7338V17.3333L40.5125 17.3333V13.3333ZM38.6458 40.6667H41.1737V36.6667H38.6458V40.6667ZM36.7386 27.9707L39.7439 28.8055L40.8145 24.9514L37.8092 24.1166L36.7386 27.9707ZM39.7087 28.7954L42.2117 29.5403L43.3527 25.7065L40.8497 24.9616L39.7087 28.7954ZM34.8125 32.8333V32.5903H30.8125V32.8333H34.8125ZM44.3458 21.1667V21.4097L48.3458 21.4097V21.1667L44.3458 21.1667ZM48.8125 33.0279C48.8125 29.6484 46.5918 26.6705 43.3527 25.7065L42.2117 29.5403C43.7547 29.9995 44.8125 31.4181 44.8125 33.0279H48.8125ZM31.2792 20.788C31.2792 24.1367 33.5121 27.0745 36.7386 27.9707L37.8092 24.1166C36.314 23.7013 35.2792 22.3399 35.2792 20.788H31.2792ZM41.1737 40.6667C45.3925 40.6667 48.8125 37.2467 48.8125 33.0279H44.8125C44.8125 35.0375 43.1834 36.6667 41.1737 36.6667V40.6667ZM38.6458 36.6667C36.5287 36.6667 34.8125 34.9504 34.8125 32.8333H30.8125C30.8125 37.1596 34.3196 40.6667 38.6458 40.6667V36.6667ZM40.5125 17.3333C42.6296 17.3333 44.3458 19.0496 44.3458 21.1667L48.3458 21.1667C48.3458 16.8404 44.8387 13.3333 40.5125 13.3333V17.3333ZM38.7338 13.3333C34.6167 13.3333 31.2792 16.6709 31.2792 20.788H35.2792C35.2792 18.88 36.8259 17.3333 38.7338 17.3333V13.3333ZM41.8125 15.3333V13L37.8125 13V15.3333L41.8125 15.3333ZM41.8125 41V38.6667H37.8125V41H41.8125Z" fill="#219653" />
</svg>