<svg width="80" height="80" viewBox="0 0 80 80" fill="none" xmlns="http://www.w3.org/2000/svg">
  <path fill-rule="evenodd" clip-rule="evenodd" d="M20.5336 16.8266C25.0966 12.4461 31.1768 10 37.5021 10H38.4979C44.8232 10 50.9034 12.4461 55.4664 16.8266L55.8286 17.1743C58.7645 19.9928 60.8825 23.5003 62.0253 27.3276C62.0771 27.3684 62.1174 27.4259 62.137 27.4971L65.6148 40.1932C65.6359 40.2703 65.6546 40.3473 65.671 40.4242C65.3347 40.1601 64.9092 40 64.4384 40H45.5616C44.6438 40 43.8439 40.6246 43.6213 41.5149L39.6213 57.5149C39.3057 58.7772 40.2604 60 41.5616 60H47V68.25C47 69.3546 46.1046 70.25 45 70.25H23C21.8954 70.25 21 69.3546 21 68.25V51.6096C20.8428 51.4664 20.6874 51.321 20.5336 51.1734L20.1714 50.8257C15.5899 46.4274 13 40.351 13 34C13 27.649 15.5899 21.5726 20.1714 17.1743L20.5336 16.8266Z" fill="#F2C94C" />
  <path d="M20.5336 16.8266L19.1486 15.3838L20.5336 16.8266ZM55.4664 16.8266L54.0813 18.2694L54.0813 18.2694L55.4664 16.8266ZM55.8286 17.1743L57.2137 15.7316L57.2137 15.7316L55.8286 17.1743ZM62.0253 27.3276L60.1089 27.8998C60.2268 28.2947 60.4638 28.6435 60.7875 28.8986L62.0253 27.3276ZM62.137 27.4971L64.0659 26.9687V26.9687L62.137 27.4971ZM65.6148 40.1932L63.6859 40.7216V40.7216L65.6148 40.1932ZM65.671 40.4242L64.4357 41.9971C65.0978 42.5171 66.0146 42.5668 66.729 42.1215C67.4433 41.6762 67.8024 40.8312 67.6272 40.0078L65.671 40.4242ZM43.6213 41.5149L45.5616 42V42L43.6213 41.5149ZM39.6213 57.5149L37.681 57.0299L39.6213 57.5149ZM47 60H49C49 58.8954 48.1046 58 47 58V60ZM21 51.6096H23C23 51.0469 22.763 50.5102 22.347 50.1313L21 51.6096ZM20.5336 51.1734L21.9187 49.7306L21.9187 49.7306L20.5336 51.1734ZM20.1714 50.8257L21.5565 49.3829L20.1714 50.8257ZM20.1714 17.1743L21.5565 18.6171H21.5565L20.1714 17.1743ZM37.5021 8C30.6605 8 24.084 10.6458 19.1486 15.3838L21.9187 18.2694C26.1092 14.2465 31.6931 12 37.5021 12V8ZM38.4979 8H37.5021V12H38.4979V8ZM56.8514 15.3838C51.916 10.6458 45.3395 8 38.4979 8V12C44.3069 12 49.8908 14.2465 54.0813 18.2694L56.8514 15.3838ZM57.2137 15.7316L56.8514 15.3838L54.0813 18.2694L54.4435 18.6171L57.2137 15.7316ZM63.9417 26.7554C62.701 22.6001 60.4013 18.7917 57.2137 15.7316L54.4435 18.6171C57.1276 21.1938 59.064 24.4005 60.1089 27.8998L63.9417 26.7554ZM64.0659 26.9687C63.9299 26.4721 63.6401 26.0538 63.2631 25.7567L60.7875 28.8986C60.514 28.6831 60.305 28.3796 60.208 28.0255L64.0659 26.9687ZM67.5437 39.6648L64.0659 26.9687L60.208 28.0255L63.6859 40.7216L67.5437 39.6648ZM67.6272 40.0078C67.6028 39.8933 67.575 39.7789 67.5437 39.6648L63.6859 40.7216C63.6968 40.7616 63.7064 40.8013 63.7148 40.8406L67.6272 40.0078ZM64.4384 42C64.4425 42 64.4441 42.0003 64.4436 42.0002C64.4432 42.0002 64.442 41.9999 64.4404 41.9994C64.437 41.9982 64.4354 41.9969 64.4357 41.9971L66.9062 38.8513C66.231 38.321 65.3739 38 64.4384 38V42ZM45.5616 42H64.4384V38H45.5616V42ZM45.5616 42V42V38C43.7261 38 42.1261 39.2492 41.681 41.0299L45.5616 42ZM41.5616 58L45.5616 42L41.681 41.0299L37.681 57.0299L41.5616 58ZM41.5616 58V58L37.681 57.0299C37.0498 59.5544 38.9593 62 41.5616 62V58ZM47 58H41.5616V62H47V58ZM49 68.25V60H45V68.25H49ZM45 72.25C47.2091 72.25 49 70.4591 49 68.25H45V72.25ZM23 72.25H45V68.25H23V72.25ZM19 68.25C19 70.4591 20.7909 72.25 23 72.25V68.25H19ZM19 51.6096V68.25H23V51.6096H19ZM19.1485 52.6162C19.3148 52.7758 19.483 52.9331 19.653 53.0879L22.347 50.1313C22.2027 49.9997 22.0599 49.8662 21.9187 49.7306L19.1485 52.6162ZM18.7863 52.2684L19.1486 52.6162L21.9187 49.7306L21.5565 49.3829L18.7863 52.2684ZM11 34C11 40.8956 13.8119 47.493 18.7863 52.2684L21.5565 49.3829C17.3678 45.3618 15 39.8064 15 34H11ZM18.7863 15.7316C13.8119 20.507 11 27.1044 11 34H15C15 28.1936 17.3678 22.6382 21.5565 18.6171L18.7863 15.7316ZM19.1486 15.3838L18.7863 15.7316L21.5565 18.6171L21.9187 18.2694L19.1486 15.3838Z" fill="#F2C94C" />
  <path d="M41.5783 41.4406L37.9547 55.935L23.7581 40.6465C22.3989 39.1826 23.7892 36.8498 25.7235 37.349L41.5783 41.4406Z" stroke="#F2F2F2" stroke-width="4" stroke-linecap="round" stroke-linejoin="round" />
  <path d="M43.6213 41.5149C43.8439 40.6246 44.6438 40 45.5616 40H64.4384C65.7396 40 66.6943 41.2228 66.3787 42.4851L63.5149 53.9403C62.6246 57.5016 59.4247 60 55.7538 60H41.5616C40.2604 60 39.3057 58.7772 39.6213 57.5149L43.6213 41.5149Z" fill="#56CCF2" />
  <path fill-rule="evenodd" clip-rule="evenodd" d="M64.1166 51.5335L63.5149 53.9402C63.3783 54.4869 63.1871 55.0086 62.9483 55.5H52C50.8954 55.5 50 54.6046 50 53.5C50 52.3954 50.8954 51.5 52 51.5H63.75C63.8752 51.5 63.9978 51.5115 64.1166 51.5335ZM65.8666 44.5335L64.875 48.5H52C50.8954 48.5 50 47.6046 50 46.5C50 45.3954 50.8954 44.5 52 44.5H65.5C65.6252 44.5 65.7478 44.5115 65.8666 44.5335Z" fill="#F2F2F2" />
  <path d="M55 30.25L53 30.75V30.75C52.3889 30.9028 52.3405 31.7527 52.9303 31.9739L55 32.75" stroke="#4F4F4F" stroke-width="4" stroke-linecap="round" stroke-linejoin="round" />
</svg>