<svg width="80" height="80" viewBox="0 0 80 80" fill="none" xmlns="http://www.w3.org/2000/svg">
  <path d="M67.0326 51.4686L67.3613 53.4413C68.1631 53.3077 68.8042 52.7022 68.9834 51.9094L67.0326 51.4686ZM53.8571 21.3601L54.8571 19.628V19.628L53.8571 21.3601ZM26.1442 21.3601L25.1442 19.628L26.1442 21.3601ZM12.995 51.5833L11.046 52.0325C11.2279 52.8215 11.8675 53.423 12.6662 53.5561L12.995 51.5833ZM17.279 54.3249C18.3685 54.5065 19.399 53.7705 19.5806 52.681C19.7622 51.5914 19.0261 50.561 17.9366 50.3794L17.279 54.3249ZM62.0636 50.2691C60.9741 50.4507 60.238 51.4812 60.4196 52.5707C60.6012 53.6603 61.6317 54.3963 62.7212 54.2147L62.0636 50.2691ZM68.9834 51.9094C69.4636 49.7844 69.7135 47.5897 69.7135 45.3601L65.7135 45.3601C65.7135 47.2905 65.4971 49.1894 65.0817 51.0277L68.9834 51.9094ZM69.7135 45.3601C69.7135 34.7447 64.0502 24.9357 54.8571 19.628L52.8571 23.0921C60.8126 27.6853 65.7135 36.1738 65.7135 45.3601L69.7135 45.3601ZM54.8571 19.628C45.6639 14.3204 34.3374 14.3204 25.1442 19.628L27.1442 23.0921C35.0998 18.499 44.9015 18.499 52.8571 23.0921L54.8571 19.628ZM25.1442 19.628C15.9511 24.9357 10.2878 34.7447 10.2878 45.3601H14.2878C14.2878 36.1738 19.1887 27.6853 27.1442 23.0921L25.1442 19.628ZM10.2878 45.3601C10.2878 47.6328 10.5475 49.8692 11.046 52.0325L14.9439 51.1342C14.5126 49.2628 14.2878 47.3277 14.2878 45.3601H10.2878ZM12.6662 53.5561L17.279 54.3249L17.9366 50.3794L13.3238 49.6106L12.6662 53.5561ZM62.7212 54.2147L67.3613 53.4413L66.7038 49.4958L62.0636 50.2691L62.7212 54.2147Z" fill="#F2C94C" />
  <path fill-rule="evenodd" clip-rule="evenodd" d="M49 41.375C49 40.9608 49.3358 40.625 49.75 40.625H52H54.25C54.6642 40.625 55 40.9608 55 41.375C55 41.9827 55.3242 42.5442 55.8505 42.8481L60.3923 45.4703C61.6299 46.1848 62.3923 47.5053 62.3923 48.9344V56.3156C62.3923 57.7447 61.6299 59.0652 60.3923 59.7797L55.8505 62.4019C55.3242 62.7058 55 63.2673 55 63.875C55 64.2892 54.6642 64.625 54.25 64.625H52H49.75C49.3358 64.625 49 64.2892 49 63.875V62.8929V42.3571V41.375ZM31 63.875C31 64.2892 30.6642 64.625 30.25 64.625H28H25.75C25.3358 64.625 25 64.2892 25 63.875C25 63.2673 24.6758 62.7057 24.1495 62.4019L19.6077 59.7797C18.3701 59.0652 17.6077 57.7447 17.6077 56.3156V48.9344C17.6077 47.5053 18.3701 46.1848 19.6077 45.4703L24.1495 42.8481C24.6758 42.5442 25 41.9827 25 41.375C25 40.9608 25.3358 40.625 25.75 40.625H28H30.25C30.6642 40.625 31 40.9608 31 41.375V42.357L31 62.893V63.875Z" fill="#EB5757" />
  <path d="M24.1495 42.8481L25.1495 44.5802L24.1495 42.8481ZM19.6077 59.7797L20.6077 58.0476L19.6077 59.7797ZM55.8505 62.4019L54.8505 60.6699L55.8505 62.4019ZM60.3923 59.7797L61.3923 61.5118L60.3923 59.7797ZM24.1495 62.4019L23.1495 64.1339L24.1495 62.4019ZM55.8505 42.8481L56.8505 41.116L55.8505 42.8481ZM49.75 42.625C50.4404 42.625 51 42.0654 51 41.375H47C47 39.8562 48.2312 38.625 49.75 38.625V42.625ZM52 42.625H49.75V38.625H52V42.625ZM54.25 42.625H52V38.625H54.25V42.625ZM53 41.375C53 42.0654 53.5596 42.625 54.25 42.625V38.625C55.7688 38.625 57 39.8562 57 41.375H53ZM59.3923 47.2024L54.8505 44.5801L56.8505 41.116L61.3923 43.7382L59.3923 47.2024ZM60.3923 56.3156V48.9344H64.3923V56.3156H60.3923ZM54.8505 60.6699L59.3923 58.0476L61.3923 61.5118L56.8505 64.134L54.8505 60.6699ZM54.25 62.625C53.5596 62.625 53 63.1846 53 63.875H57C57 65.3938 55.7688 66.625 54.25 66.625V62.625ZM52 62.625H54.25V66.625H52V62.625ZM49.75 62.625H52V66.625H49.75V62.625ZM51 63.875C51 63.1846 50.4404 62.625 49.75 62.625V66.625C48.2312 66.625 47 65.3938 47 63.875H51ZM51 62.8929V63.875H47V62.8929H51ZM47 62.8929V42.3571H51V62.8929H47ZM51 41.375V42.3571H47V41.375H51ZM30.25 62.625C29.5596 62.625 29 63.1846 29 63.875L33 63.875C33 65.3938 31.7688 66.625 30.25 66.625L30.25 62.625ZM28 62.625L30.25 62.625L30.25 66.625H28L28 62.625ZM25.75 62.625H28L28 66.625H25.75L25.75 62.625ZM27 63.875C27 63.1846 26.4404 62.625 25.75 62.625L25.75 66.625C24.2312 66.625 23 65.3938 23 63.875H27ZM20.6077 58.0476L25.1495 60.6698L23.1495 64.1339L18.6077 61.5118L20.6077 58.0476ZM19.6077 48.9344V56.3156H15.6077V48.9344H19.6077ZM25.1495 44.5802L20.6077 47.2023L18.6077 43.7382L23.1495 41.1161L25.1495 44.5802ZM25.75 42.625C26.4404 42.625 27 42.0654 27 41.375H23C23 39.8562 24.2312 38.625 25.75 38.625V42.625ZM28 42.625H25.75V38.625H28V42.625ZM30.25 42.625H28V38.625H30.25V42.625ZM29 41.375C29 42.0654 29.5596 42.625 30.25 42.625V38.625C31.7688 38.625 33 39.8562 33 41.375H29ZM29 42.357V41.375H33V42.357H29ZM33 42.357V62.893L29 62.893L29 42.357H33ZM29 63.875V62.893L33 62.893V63.875L29 63.875ZM23.1495 41.1161C23.057 41.1695 23 41.2682 23 41.375H27C27 42.6972 26.2946 43.919 25.1495 44.5802L23.1495 41.1161ZM15.6077 48.9344C15.6077 46.7908 16.7513 44.81 18.6077 43.7382L20.6077 47.2023C19.9889 47.5596 19.6077 48.2199 19.6077 48.9344H15.6077ZM18.6077 61.5118C16.7513 60.44 15.6077 58.4592 15.6077 56.3156H19.6077C19.6077 57.0301 19.9889 57.6904 20.6077 58.0476L18.6077 61.5118ZM56.8505 64.134C56.943 64.0806 57 63.9818 57 63.875H53C53 62.5528 53.7054 61.331 54.8505 60.6699L56.8505 64.134ZM64.3923 56.3156C64.3923 58.4592 63.2487 60.44 61.3923 61.5118L59.3923 58.0476C60.0111 57.6904 60.3923 57.0301 60.3923 56.3156H64.3923ZM23 63.875C23 63.9818 23.057 64.0805 23.1495 64.1339L25.1495 60.6698C26.2946 61.331 27 62.5528 27 63.875H23ZM61.3923 43.7382C63.2487 44.81 64.3923 46.7908 64.3923 48.9344H60.3923C60.3923 48.2199 60.0111 47.5596 59.3923 47.2024L61.3923 43.7382ZM57 41.375C57 41.2682 56.943 41.1694 56.8505 41.116L54.8505 44.5801C53.7054 43.919 53 42.6972 53 41.375H57Z" fill="#EB5757" />
</svg>