<svg width="80" height="80" viewBox="0 0 80 80" fill="none" xmlns="http://www.w3.org/2000/svg">
  <path fill-rule="evenodd" clip-rule="evenodd" d="M17.102 20.6547C14.4765 23.2802 13.0015 26.8412 13.0015 30.5542C13.0015 34.2672 14.4765 37.8282 17.102 40.4537L31.2441 54.5958L38.3152 61.6669C39.0962 62.4479 40.3626 62.4479 41.1436 61.6669L48.2147 54.5958L62.3568 40.4537C64.9823 37.8282 66.4573 34.2672 66.4573 30.5542C66.4573 26.8412 64.9823 23.2802 62.3568 20.6547C59.7313 18.0292 56.1703 16.5542 52.4573 16.5542C48.7443 16.5542 45.1833 18.0292 42.5578 20.6547L40.4204 22.7921C40.0388 23.1738 39.42 23.1738 39.0384 22.7921L36.901 20.6547C34.2754 18.0292 30.7145 16.5542 27.0015 16.5542C23.2884 16.5542 19.7275 18.0292 17.102 20.6547Z" fill="#EB5757" />
  <path fill-rule="evenodd" clip-rule="evenodd" d="M47.0541 17.6387C47.0427 17.7654 47.0067 17.8927 46.943 18.014L42.4412 26.5972C42.3596 26.7528 42.4434 26.9439 42.6131 26.9894L43.7904 27.3049L45.2349 27.6919L48.4321 28.5486C49.1308 28.7358 49.4057 29.5801 48.9512 30.1429L34.8351 47.6185C34.5919 47.9196 34.1198 47.6224 34.2861 47.2729L40.3337 34.5672C40.6023 34.0029 40.2933 33.3333 39.6896 33.1715L39.0789 33.0079L37.7256 32.6453L33.015 31.3831C32.4342 31.2275 32.1211 30.598 32.3474 30.0409L36.3659 20.1467C36.5483 20.3108 36.7268 20.4801 36.9011 20.6544L39.0385 22.7918C39.4201 23.1735 40.0389 23.1735 40.4205 22.7918L42.558 20.6544C43.8588 19.3536 45.3893 18.3352 47.0541 17.6387Z" fill="#F2C94C" />
</svg>