<svg viewBox="0 0 80 80" fill="none">
  <path d="M30.1692 15.7567L30.9345 17.6045L30.9345 17.6045L30.1692 15.7567ZM25.2195 20.9688C24.3547 21.656 23.0966 21.5121 22.4094 20.6473C21.7222 19.7825 21.8662 18.5244 22.7309 17.8372L25.2195 20.9688ZM22.7163 17.8489C23.5806 17.1611 24.8389 17.3042 25.5266 18.1685C26.2144 19.0328 26.0713 20.291 25.207 20.9788L22.7163 17.8489ZM25.1416 21.0311C24.2797 21.7219 23.021 21.5832 22.3301 20.7213C21.6393 19.8594 21.778 18.6007 22.6399 17.9099L25.1416 21.0311ZM49.9681 15.7567L50.7335 13.9089L50.7335 13.9089L49.9681 15.7567ZM63.9681 29.7567L65.8159 28.9913L65.8159 28.9913L63.9681 29.7567ZM63.9681 49.5557L65.8159 50.321L65.8159 50.321L63.9681 49.5557ZM30.1692 63.5557L29.4038 65.4034L30.1692 63.5557ZM27.2358 64.3945C26.2553 63.8859 25.8727 62.6787 26.3813 61.6982C26.8899 60.7177 28.097 60.3351 29.0776 60.8437L27.2358 64.3945ZM30.9345 17.6045C28.8636 18.4623 26.9436 19.5988 25.2195 20.9688L22.7309 17.8372C24.744 16.2375 26.986 14.9104 29.4038 13.9089L30.9345 17.6045ZM25.207 20.9788C25.1851 20.9962 25.1633 21.0136 25.1416 21.0311L22.6399 17.9099C22.6654 17.8895 22.6908 17.8691 22.7163 17.8489L25.207 20.9788ZM49.2028 17.6045C43.3543 15.1819 36.783 15.1819 30.9345 17.6045L29.4038 13.9089C36.2324 11.0804 43.9049 11.0804 50.7335 13.9089L49.2028 17.6045ZM62.1204 30.5221C59.6979 24.6736 55.0513 20.027 49.2028 17.6045L50.7335 13.9089C57.5621 16.7374 62.9874 22.1627 65.8159 28.9913L62.1204 30.5221ZM62.1204 48.7903C64.5429 42.9418 64.5429 36.3705 62.1204 30.5221L65.8159 28.9913C68.6444 35.8199 68.6444 43.4925 65.8159 50.321L62.1204 48.7903ZM49.2028 61.7079C55.0513 59.2854 59.6979 54.6388 62.1204 48.7903L65.8159 50.321C62.9874 57.1497 57.5621 62.5749 50.7335 65.4034L49.2028 61.7079ZM30.9345 61.7079C36.783 64.1304 43.3543 64.1304 49.2028 61.7079L50.7335 65.4034C43.9049 68.2319 36.2324 68.2319 29.4038 65.4034L30.9345 61.7079ZM29.4038 65.4034C28.6642 65.0971 27.941 64.7603 27.2358 64.3945L29.0776 60.8437C29.6815 61.157 30.301 61.4455 30.9345 61.7079L29.4038 65.4034Z" fill="#F2C94C" />
  <path d="M30.3364 25.9161L18.4517 14.0314C17.2523 12.832 15.2017 13.6815 15.2017 15.3776L15.2017 26.1661C15.2017 27.823 16.5448 29.1661 18.2017 29.1661L28.9903 29.1661C30.6864 29.1661 31.5358 27.1155 30.3364 25.9161Z" fill="#F2994A" stroke="#F2994A" stroke-width="4" stroke-linecap="round" stroke-linejoin="round" />
  <path d="M47.274 31.6053C47.9451 30.7281 47.7781 29.4728 46.9008 28.8016C46.0236 28.1304 44.7683 28.2975 44.0971 29.1747L47.274 31.6053ZM39.2363 35.528C38.5651 36.4052 38.7321 37.6605 39.6094 38.3317C40.4866 39.0029 41.7419 38.8358 42.4131 37.9586L39.2363 35.528ZM51.919 48.7729C52.8791 49.3191 54.1001 48.9836 54.6463 48.0235C55.1925 47.0634 54.8569 45.8423 53.8969 45.2962L51.919 48.7729ZM42.599 38.869C41.6389 38.3228 40.4178 38.6583 39.8717 39.6184C39.3255 40.5785 39.661 41.7996 40.6211 42.3458L42.599 38.869ZM38.001 39.1255C38.001 38.5732 38.4487 38.1255 39.001 38.1255V34.1255C36.2396 34.1255 34.001 36.3641 34.001 39.1255H38.001ZM39.001 40.1255C38.4487 40.1255 38.001 39.6778 38.001 39.1255H34.001C34.001 41.8869 36.2396 44.1255 39.001 44.1255V40.1255ZM40.001 39.1255C40.001 39.6778 39.5533 40.1255 39.001 40.1255V44.1255C41.7624 44.1255 44.001 41.8869 44.001 39.1255H40.001ZM39.001 38.1255C39.5533 38.1255 40.001 38.5732 40.001 39.1255H44.001C44.001 36.3641 41.7624 34.1255 39.001 34.1255V38.1255ZM44.0971 29.1747L39.2363 35.528L42.4131 37.9586L47.274 31.6053L44.0971 29.1747ZM53.8969 45.2962L42.599 38.869L40.6211 42.3458L51.919 48.7729L53.8969 45.2962Z" fill="#EB5757" />
</svg>