<svg viewBox="0 0 80 80" fill="none">
  <path fill-rule="evenodd" clip-rule="evenodd" d="M60 34L40 18L20 34L20 62L60 62L60 34Z" fill="#FFC200" class="fill-yellow" />
  <path d="M60 34H62C62 33.3924 61.7238 32.8178 61.2494 32.4383L60 34ZM40 18L41.2494 16.4383C40.519 15.8539 39.481 15.8539 38.7506 16.4383L40 18ZM20 34L18.7506 32.4383C18.2762 32.8178 18 33.3924 18 34H20ZM20 62H18C18 63.1046 18.8954 64 20 64V62ZM60 62V64C61.1046 64 62 63.1046 62 62H60ZM61.2494 32.4383L41.2494 16.4383L38.7506 19.5617L58.7506 35.5617L61.2494 32.4383ZM38.7506 16.4383L18.7506 32.4383L21.2494 35.5617L41.2494 19.5617L38.7506 16.4383ZM18 34L18 62H22L22 34H18ZM20 64H60V60L20 60V64ZM62 62L62 34H58L58 62H62Z" fill="#FFC200" class="fill-yellow" />
  <path d="M67.5 40L64.5 37.6L40 18L15.5 37.6L12.5 40" stroke="#D33131" stroke-width="4" stroke-linecap="round" stroke-linejoin="round" class="stroke-red" />
  <path fill-rule="evenodd" clip-rule="evenodd" d="M55 30V19H49V25.2L55 30Z" fill="#D33131" class="fill-red" />
  <path d="M55 19H57C57 17.8954 56.1046 17 55 17V19ZM55 30L53.7506 31.5617C54.3509 32.042 55.1734 32.1356 55.8664 31.8026C56.5593 31.4696 57 30.7688 57 30H55ZM49 19V17C47.8954 17 47 17.8954 47 19H49ZM49 25.2H47C47 25.8076 47.2762 26.3822 47.7506 26.7617L49 25.2ZM53 19V30H57V19H53ZM49 21H55V17H49V21ZM51 25.2V19H47V25.2H51ZM47.7506 26.7617L53.7506 31.5617L56.2494 28.4383L50.2494 23.6383L47.7506 26.7617Z" fill="#D33131" class="fill-red" />
  <path d="M38.7209 32.3194C39.2328 31.2411 40.7672 31.2411 41.2791 32.3194L42.2039 34.2674C42.855 35.639 43.6075 36.9602 44.455 38.2201L46.8863 41.8343C48.2037 43.7927 48.4353 46.2864 47.501 48.4539C46.7729 50.143 45.404 51.474 43.6951 52.1542L43.1195 52.3833C41.1163 53.1807 38.8837 53.1807 36.8805 52.3833L36.3049 52.1542C34.596 51.474 33.2271 50.143 32.499 48.4539C31.5647 46.2864 31.7963 43.7927 33.1137 41.8343L35.545 38.2201C36.3925 36.9602 37.145 35.639 37.7961 34.2674L38.7209 32.3194Z" fill="#1CB0F6" class="fill-blue" />
</svg>