<svg width="80" height="80" viewBox="0 0 80 80" fill="none" xmlns="http://www.w3.org/2000/svg">
  <rect x="12" y="20" width="56" height="40" rx="6" fill="#2F80ED" />
  <path fill-rule="evenodd" clip-rule="evenodd" d="M20 54H42L60 54C61.1046 54 62 53.1046 62 52V50L54 42L48.7826 47.2174L33 30L18 46.3636V52C18 53.1046 18.8954 54 20 54Z" fill="#6FCF97" />
  <path d="M53.8349 27.25C55.1747 26.4765 56.8253 26.4765 58.1651 27.25C59.5048 28.0235 60.3301 29.453 60.3301 31C60.3301 32.547 59.5048 33.9765 58.1651 34.75C56.8253 35.5235 55.1747 35.5235 53.8349 34.75C52.4952 33.9765 51.6699 32.547 51.6699 31C51.6699 29.453 52.4952 28.0235 53.8349 27.25Z" fill="#F2C94C" />
</svg>