<svg width="80" height="80" viewBox="0 0 80 80" fill="none" xmlns="http://www.w3.org/2000/svg">
  <path fill-rule="evenodd" clip-rule="evenodd" d="M16 16.2559C13.7909 16.2559 12 18.0467 12 20.2559L12 56.2559H32.126C32.5701 57.9811 34.1362 59.2559 36 59.2559H44C45.8638 59.2559 47.4299 57.9811 47.874 56.2559H68V20.2559C68 18.0467 66.2091 16.2559 64 16.2559L16 16.2559Z" fill="#4F4F4F" />
  <path fill-rule="evenodd" clip-rule="evenodd" d="M32.126 56.2559L4.15215 56.2559C4.06812 56.2559 4 56.324 4 56.408C4 60.7423 7.51361 64.2559 11.8479 64.2559L68.1521 64.2559C72.4864 64.2559 76 60.7423 76 56.408C76 56.324 75.9319 56.2559 75.8479 56.2559L47.874 56.2559C47.4299 57.9811 45.8638 59.2559 44 59.2559H36C34.1362 59.2559 32.5701 57.9811 32.126 56.2559Z" fill="#BB6BD9" />
  <path d="M28.0001 28.2559L35.8477 35.5221C36.2751 35.9179 36.2751 36.5938 35.8477 36.9896L28.0001 44.2559" stroke="#6FCF97" stroke-width="4" stroke-linecap="round" stroke-linejoin="round" />
  <path d="M52 44.2559L46.7636 44.2559L45.7164 44.2559L40.48 44.2559" stroke="#6FCF97" stroke-width="4" stroke-linecap="round" stroke-linejoin="round" />
</svg>