<svg width="80" height="80" viewBox="0 0 80 80" fill="none" xmlns="http://www.w3.org/2000/svg">
  <path fill-rule="evenodd" clip-rule="evenodd" d="M66 12C67.1046 12 68 12.8954 68 14V34C68 35.1046 67.1046 36 66 36H56V26C56 24.8954 55.1046 24 54 24L44 24V14C44 12.8954 44.8954 12 46 12L66 12Z" fill="#2F80ED" />
  <path fill-rule="evenodd" clip-rule="evenodd" d="M62.5 16.5C63.0523 16.5 63.5 16.9477 63.5 17.5V30.5C63.5 31.0523 63.0523 31.5 62.5 31.5H56V26C56 24.8954 55.1046 24 54 24L48.5 24V17.5C48.5 16.9477 48.9477 16.5 49.5 16.5L62.5 16.5Z" fill="#56CCF2" />
  <path fill-rule="evenodd" clip-rule="evenodd" d="M14 68C12.8954 68 12 67.1046 12 66L12 46C12 44.8954 12.8954 44 14 44H24L24 54C24 55.1046 24.8954 56 26 56H36V66C36 67.1046 35.1046 68 34 68H14Z" fill="#2F80ED" />
  <path fill-rule="evenodd" clip-rule="evenodd" d="M17.5 63.5C16.9477 63.5 16.5 63.0523 16.5 62.5L16.5 49.5C16.5 48.9477 16.9477 48.5 17.5 48.5H24L24 54C24 55.1046 24.8954 56 26 56H31.5V62.5C31.5 63.0523 31.0523 63.5 30.5 63.5H17.5Z" fill="#56CCF2" />
  <path d="M56 26C56 24.8954 55.1046 24 54 24L26 24C24.8954 24 24 24.8954 24 26L24 54C24 55.1046 24.8954 56 26 56L54 56C55.1046 56 56 55.1046 56 54L56 26Z" fill="#9B51E0" />
</svg>