<svg width="80" height="80" viewBox="0 0 80 80" fill="none" xmlns="http://www.w3.org/2000/svg">
  <path d="M16 18C16 16.8954 16.8954 16 18 16L46 16C47.1046 16 48 16.8954 48 18V46C48 47.1046 47.1046 48 46 48L18 48C16.8954 48 16 47.1046 16 46L16 18Z" fill="#2F80ED" />
  <path d="M22 23C22 22.4477 22.4477 22 23 22L41 22C41.5523 22 42 22.4477 42 23V41C42 41.5523 41.5523 42 41 42H23C22.4477 42 22 41.5523 22 41L22 23Z" fill="#56CCF2" />
  <path fill-rule="evenodd" clip-rule="evenodd" d="M32 48V62C32 63.1046 32.8954 64 34 64H62C63.1046 64 64 63.1046 64 62V34C64 32.8954 63.1046 32 62 32L48 32V46C48 47.1046 47.1046 48 46 48H32Z" fill="#9B51E0" />
</svg>