<svg width="80" height="80" viewBox="0 0 80 80" fill="none" xmlns="http://www.w3.org/2000/svg">
  <path fill-rule="evenodd" clip-rule="evenodd" d="M64.4342 21.5938C63.344 17.6001 60.6954 14.2051 57.0644 12.1474L56.9366 12.0749C53.3056 10.0172 48.986 9.46307 44.9174 10.5332C40.7991 11.6164 37.2774 14.2743 35.1356 17.9156L34.3501 19.2511C33.686 18.9204 32.9854 18.654 32.2576 18.459C29.4348 17.7025 26.4315 18.0804 23.9092 19.5099C21.3869 20.9393 19.5518 23.3034 18.8078 26.0813C18.7097 26.4475 18.6316 26.817 18.5734 27.1882C15.9959 27.5671 13.5867 28.7533 11.7056 30.5998L11.6235 30.6805C9.30573 32.9555 8 36.0669 8 39.3146C8 42.5624 9.30573 45.6738 11.6235 47.9488L11.7056 48.0295C14.0191 50.3004 17.1314 51.5726 20.3731 51.5726H23.2129L23.2203 51.5727H29.8191L42.3245 32.8382C42.6515 32.3484 43.4151 32.5799 43.4151 33.1688V47.9183L51.3627 47.9183C51.8384 47.9183 52.122 48.4486 51.8579 48.8442L50.0366 51.5727H56.7813C56.7913 51.5727 56.8012 51.5723 56.8111 51.5715H59.6269C62.8686 51.5715 65.9809 50.2993 68.2944 48.0284L68.3765 47.9478C70.6943 45.6727 72 42.5613 72 39.3136C72 36.0658 70.6943 32.9545 68.3765 30.6794L68.2944 30.5987C67.261 29.5844 66.0682 28.7693 64.7757 28.1778C65.132 26.0011 65.0248 23.7573 64.4342 21.5938Z" fill="#2F80ED" />
  <path fill-rule="evenodd" clip-rule="evenodd" d="M36.5376 55.0814L28.59 55.0814C28.1143 55.0814 27.8307 54.5511 28.0948 54.1555L42.3243 32.8382C42.6513 32.3484 43.4149 32.5798 43.4149 33.1687V47.9182L51.3624 47.9182C51.8381 47.9182 52.1217 48.4485 51.8576 48.8442L37.6282 70.1614C37.3012 70.6512 36.5376 70.4198 36.5376 69.8309L36.5376 55.0814Z" fill="#F2C94C" />
</svg>