<svg width="80" height="80" viewBox="0 0 80 80" fill="none" xmlns="http://www.w3.org/2000/svg">
  <path fill-rule="evenodd" clip-rule="evenodd" d="M9.83333 38.25C8.82081 38.25 8 39.0708 8 40.0833L8 66.4167C8 67.4292 8.82081 68.25 9.83333 68.25H50.1667C51.1792 68.25 52 67.4292 52 66.4167L52 40.0833C52 39.0708 51.1792 38.25 50.1667 38.25L9.83333 38.25ZM33 56.25C31.3431 57.9069 28.6569 57.9069 27 56.25C25.3431 54.5931 25.3431 51.9069 27 50.25C28.6569 48.5931 31.3431 48.5931 33 50.25C34.6569 51.9069 34.6569 54.5931 33 56.25Z" fill="#F2C94C" />
  <path fill-rule="evenodd" clip-rule="evenodd" d="M57 11.25C48.4396 11.25 41.5 18.1896 41.5 26.75L41.5 38.25H45.5L45.5 26.75C45.5 20.3987 50.6487 15.25 57 15.25C63.3513 15.25 68.5 20.3987 68.5 26.75V35.25C68.5 36.3546 69.3954 37.25 70.5 37.25C71.6046 37.25 72.5 36.3546 72.5 35.25V26.75C72.5 18.1896 65.5604 11.25 57 11.25Z" fill="#828282" />
</svg>