<svg viewBox="0 0 80 80" fill="none">
  <path d="M33.7854 24.1862C33.0045 24.9675 33.0048 26.2338 33.7861 27.0147C34.5673 27.7955 35.8336 27.7952 36.6145 27.014L33.7854 24.1862ZM44.5348 16.2609L43.1203 14.847L43.1203 14.847L44.5348 16.2609ZM42.7954 64.0001C42.7954 65.1047 43.6909 66.0001 44.7954 66.0001C45.9 66.0001 46.7954 65.1047 46.7954 64.0001H42.7954ZM36.6145 27.014L45.9494 17.6747L43.1203 14.847L33.7854 24.1862L36.6145 27.014ZM42.7954 16.3688L42.7954 64.0001H46.7954L46.7954 16.3688L42.7954 16.3688ZM45.9494 17.6748C44.7857 18.8389 42.7954 18.0148 42.7954 16.3688L46.7954 16.3688C46.7954 14.4507 44.4762 13.4904 43.1203 14.847L45.9494 17.6748Z" fill="#F2994A" />
</svg>