<svg width="80" height="80" viewBox="0 0 80 80" fill="none" xmlns="http://www.w3.org/2000/svg">
  <g opacity="0.9">
    <path fill-rule="evenodd" clip-rule="evenodd" d="M51.0923 47.379C50.6451 47.1705 50.2023 46.9543 49.7642 46.7306C47.9571 45.8079 45.6813 46.4767 44.8417 48.3239C43.686 50.8664 40.3466 51.4719 38.3718 49.4971L38.2105 49.3359L29.7253 40.8506L29.564 40.6894C27.5892 38.7146 28.1948 35.3752 30.7373 34.2195C32.4879 33.4238 33.1045 31.2538 32.1904 29.562C31.8042 28.8474 31.4384 28.1199 31.0934 27.3801C30.405 25.9039 29.8075 24.395 29.3015 22.8615C28.4673 20.3333 25.597 18.9234 23.2248 20.132L16.9733 23.3173C15.9441 23.8417 15.3055 24.9188 15.4062 26.0694C16.2534 35.7531 20.4854 44.8287 27.359 51.7022C34.2325 58.5758 43.3081 62.8078 52.9917 63.655C54.1432 63.7557 55.221 63.1167 55.7457 62.0868L59.1039 55.4959C60.3278 53.094 58.8666 50.1894 56.2924 49.3892C54.5242 48.8395 52.7867 48.1691 51.0923 47.379Z" fill="#EB5757" />
  </g>
</svg>