<svg viewBox="0 0 80 80" fill="none">
  <path d="M40.1311 34.6353C40.1311 33.5307 39.2357 32.6353 38.1311 32.6353C37.0265 32.6353 36.1311 33.5307 36.1311 34.6353L40.1311 34.6353ZM36.1311 58.7898C36.1311 59.8944 37.0265 60.7898 38.1311 60.7898C39.2357 60.7898 40.1311 59.8943 40.1311 58.7898H36.1311ZM36.1311 34.6353L36.1311 58.7898H40.1311L40.1311 34.6353L36.1311 34.6353Z" fill="#4F4F4F" />
  <path d="M32.8782 15.0328C36.1287 13.1561 40.1336 13.1561 43.3841 15.0328C46.6346 16.9095 48.637 20.3778 48.637 24.1311C48.637 27.8845 46.6346 31.3528 43.3841 33.2295C40.1335 35.1062 36.1287 35.1062 32.8782 33.2295C29.6277 31.3528 27.6253 27.8845 27.6253 24.1311C27.6253 20.3778 29.6277 16.9095 32.8782 15.0328Z" fill="#219653" stroke="#219653" stroke-width="4" stroke-linecap="round" stroke-linejoin="round" />
</svg>