<svg width="80" height="80" viewBox="0 0 80 80" fill="none" xmlns="http://www.w3.org/2000/svg">
  <path fill-rule="evenodd" clip-rule="evenodd" d="M14.3252 40.0396H24.5019C24.4865 41.0139 24.1481 41.9498 23.8092 42.8871C23.5782 43.5261 23.347 44.1657 23.2177 44.8186C23.1675 45.072 23.1415 45.3323 23.1415 45.5962C23.1415 47.0258 23.9041 48.3468 25.1422 49.0615C26.3802 49.7763 27.9055 49.7763 29.1436 49.0615C30.3816 48.3468 31.1443 47.0258 31.1443 45.5962C31.1443 45.3322 31.1183 45.072 31.0681 44.8185C30.9387 44.1656 30.7075 43.5259 30.4764 42.8869L30.4764 42.8868C30.1375 41.9496 29.7992 41.0138 29.7835 40.0396H40.0395V50.325H40.277C41.2572 50.325 42.199 49.989 43.1422 49.6525C43.8011 49.4174 44.4607 49.1821 45.1346 49.0608C45.3602 49.0203 45.591 48.9993 45.8249 48.9993C47.2172 48.9993 48.5037 49.7421 49.1999 50.9479C49.896 52.1536 49.896 53.6392 49.1999 54.845C48.5037 56.0507 47.2172 56.7935 45.8249 56.7935C45.591 56.7935 45.3602 56.7726 45.1346 56.732C44.4607 56.6108 43.8011 56.3754 43.1422 56.1404C42.199 55.8038 41.2572 55.4678 40.277 55.4678H40.0395V65.7538H27.1823H14.3252V52.8967V40.0396Z" fill="#219653" />
  <path fill-rule="evenodd" clip-rule="evenodd" d="M56.1405 36.9364C55.8039 37.8797 55.4679 38.8215 55.4679 39.8018V40.0395H65.7538V52.8966V65.7538H52.8967H40.0396V55.4979C41.0137 55.5135 41.9495 55.8519 42.8867 56.1907L42.8867 56.1907C43.5258 56.4218 44.1655 56.6531 44.8184 56.7824C45.0718 56.8326 45.3321 56.8586 45.5961 56.8586C47.0256 56.8586 48.3466 56.096 49.0614 54.8579C49.7762 53.6199 49.7762 52.0945 49.0614 50.8565C48.3466 49.6185 47.0256 48.8558 45.5961 48.8558C45.3321 48.8558 45.0718 48.8818 44.8184 48.932C44.1656 49.0613 43.5259 49.2926 42.8869 49.5236C41.9497 49.8624 41.0138 50.2008 40.0396 50.2163V40.0395H50.325V39.8012C50.325 38.821 49.9891 37.8792 49.6526 36.9361C49.4176 36.2772 49.1823 35.6177 49.061 34.9439C49.0205 34.7183 48.9995 34.4874 48.9995 34.2536C48.9995 32.8613 49.7423 31.5747 50.9481 30.8786C52.1538 30.1824 53.6394 30.1824 54.8452 30.8786C56.051 31.5747 56.7937 32.8613 56.7937 34.2536C56.7937 34.4874 56.7728 34.7183 56.7322 34.9439C56.6109 35.6178 56.3756 36.2775 56.1405 36.9364Z" fill="#F2C94C" />
  <path fill-rule="evenodd" clip-rule="evenodd" d="M40.0398 14.3252H52.897H65.7541V27.1823V40.0395H55.4683V39.8026C55.4683 38.8223 55.8043 37.8805 56.1409 36.9372L56.1409 36.9371C56.376 36.2782 56.6113 35.6186 56.7326 34.9447C56.7732 34.7191 56.7941 34.4882 56.7941 34.2543C56.7941 32.862 56.0513 31.5755 54.8456 30.8793C53.6398 30.1832 52.1542 30.1832 50.9485 30.8793C49.7427 31.5755 48.9999 32.862 48.9999 34.2543C48.9999 34.4882 49.0209 34.719 49.0614 34.9446C49.1826 35.6185 49.4179 36.278 49.653 36.9368L49.653 36.9368C49.9895 37.88 50.3254 38.8217 50.3254 39.8019V40.0395H40.0398V29.6107H39.6594C38.6792 29.6107 37.7374 29.9467 36.7941 30.2832C36.1353 30.5183 35.4757 30.7536 34.8018 30.8748C34.5762 30.9154 34.3453 30.9363 34.1115 30.9363C32.7192 30.9363 31.4326 30.1936 30.7365 28.9878C30.0403 27.782 30.0403 26.2964 30.7365 25.0907C31.4326 23.8849 32.7192 23.1421 34.1115 23.1421C34.3453 23.1421 34.5762 23.1631 34.8018 23.2037C35.4757 23.3249 36.1353 23.5602 36.7941 23.7953C37.7374 24.1318 38.6792 24.4678 39.6594 24.4678H40.0398V14.3252Z" fill="#EB5757" />
  <path fill-rule="evenodd" clip-rule="evenodd" d="M14.3252 14.3252H27.1823H40.0395V24.5025H40.0297C39.0303 24.5025 38.0722 24.1562 37.1128 23.8093C36.4738 23.5783 35.8341 23.347 35.1813 23.2177C34.9279 23.1675 34.6676 23.1415 34.4036 23.1415C32.9741 23.1415 31.6531 23.9042 30.9383 25.1422C30.2235 26.3803 30.2235 27.9056 30.9383 29.1436C31.6531 30.3817 32.9741 31.1443 34.4036 31.1443C34.6676 31.1443 34.9279 31.1183 35.1813 31.0681C35.8343 30.9388 36.4739 30.7075 37.113 30.4764C38.0726 30.1295 39.0308 29.783 40.0302 29.783H40.0395V40.0395H29.6107V40.1334C29.6107 41.1137 29.9468 42.0555 30.2833 42.9988C30.5184 43.6577 30.7538 44.3173 30.875 44.9913C30.9156 45.2169 30.9366 45.4477 30.9366 45.6816C30.9366 47.0739 30.1938 48.3605 28.988 49.0566C27.7822 49.7528 26.2967 49.7528 25.0909 49.0566C23.8851 48.3605 23.1423 47.0739 23.1423 45.6816C23.1423 45.4478 23.1633 45.2169 23.2039 44.9913C23.3251 44.3175 23.5604 43.6579 23.7954 42.9991C24.1319 42.0559 24.4679 41.1142 24.4679 40.134V40.0395H14.3252V27.1823V14.3252Z" fill="#2F80ED" />
</svg>