<svg viewBox="0 0 80 80" fill="none">
  <path fill-rule="evenodd" clip-rule="evenodd" d="M29.6558 36.2246C29.6745 36.2433 29.6931 36.2621 29.7116 36.281L29.9092 37.0411C30.0411 37.0096 30.1731 36.9788 30.3052 36.9486C30.3052 36.9486 30.3052 36.9486 30.3052 36.9487C30.0179 37.0144 29.731 37.083 29.4447 37.1546C28.6327 37.3576 28.063 38.0872 28.063 38.9243V41.3241C28.063 42.2845 28.8473 43.0228 29.7565 43.0238L29.5394 43.3349C27.3625 46.4546 26.553 50.3275 27.298 54.0579L27.7145 56.1435C28.27 58.9249 29.763 61.4038 31.9068 63.1891C31.8404 63.1828 31.7741 63.1563 31.7163 63.1057L17.3542 50.5389C15.4011 48.8299 14.2808 46.361 14.2808 43.7657V42.5619C14.2808 40.185 15.225 37.9054 16.9058 36.2246C18.5865 34.5439 20.8661 33.5996 23.2431 33.5996H23.3185C25.6954 33.5996 27.975 34.5439 29.6558 36.2246ZM49.731 42.9176L50.0221 43.3349C52.199 46.4546 53.0085 50.3275 52.2635 54.0579L51.847 56.1435C51.2915 58.9249 49.7985 61.4038 47.6547 63.1891C47.7211 63.1828 47.7874 63.1563 47.8452 63.1057L62.2073 50.5389C64.1604 48.8299 65.2808 46.361 65.2808 43.7657V42.5619C65.2808 40.185 64.3365 37.9054 62.6558 36.2246C60.975 34.5439 58.6954 33.5996 56.3185 33.5996H56.2431C54.1041 33.5996 52.0439 34.3643 50.4281 35.7422L50.0977 37.0129C50.2925 37.0588 50.487 37.106 50.6812 37.1546C51.4933 37.3576 52.063 38.0872 52.063 38.9243V41.3241C52.063 42.4293 51.0243 43.2403 49.952 42.9723C49.8784 42.9538 49.8047 42.9356 49.731 42.9176Z" fill="#9B51E0" />
  <path fill-rule="evenodd" clip-rule="evenodd" d="M29.7747 43.0233L29.5572 43.335C27.3804 46.4547 26.5708 50.3276 27.3158 54.058L27.7323 56.1436C28.4429 59.7013 30.6873 62.7642 33.8657 64.5135C37.5597 66.5466 42.0375 66.5466 45.7314 64.5135C48.9099 62.7642 51.1543 59.7013 51.8648 56.1436L52.2814 54.058C53.0264 50.3276 52.2168 46.4547 50.04 43.335L49.752 42.9223C43.3198 41.3488 36.6001 41.3653 30.1739 42.9718C30.0397 43.0054 29.906 43.022 29.7747 43.0233Z" fill="#F2C94C" />
  <path fill-rule="evenodd" clip-rule="evenodd" d="M54.6892 19.3486L52.6737 27.1025L52.3104 28.5L50.0976 37.013C43.4584 35.4496 36.545 35.4589 29.9091 37.0411L27.689 28.5L27.3257 27.1025L25.3105 19.35L31.4999 25.2572L36.663 22.9748L39.9991 14.5L43.335 22.9742L48.4988 25.2569L54.6892 19.3486Z" fill="#F2994A" />
  <path d="M28.063 38.9243C28.063 38.0872 28.6327 37.3576 29.4447 37.1546C36.4163 35.4117 43.7097 35.4117 50.6812 37.1546C51.4933 37.3576 52.063 38.0872 52.063 38.9243V41.3241C52.063 42.4293 51.0243 43.2403 49.952 42.9723C43.4592 41.3491 36.6667 41.3491 30.1739 42.9723C29.1017 43.2403 28.063 42.4293 28.063 41.3241V38.9243Z" fill="#EB5757" />
</svg>