<svg width="80" height="80" viewBox="0 0 80 80" fill="none" xmlns="http://www.w3.org/2000/svg">
  <path fill-rule="evenodd" clip-rule="evenodd" d="M64.4342 19.5938C63.344 15.6001 60.6954 12.2051 57.0644 10.1474L56.9366 10.0749C53.3056 8.01715 48.986 7.46306 44.9174 8.53318C40.7991 9.61635 37.2774 12.2743 35.1356 15.9156L34.3501 17.2511C33.686 16.9204 32.9854 16.654 32.2576 16.459C29.4348 15.7025 26.4315 16.0804 23.9092 17.5099C21.3869 18.9393 19.5518 21.3034 18.8078 24.0813C18.7097 24.4475 18.6316 24.817 18.5734 25.1882C15.9959 25.5671 13.5867 26.7533 11.7056 28.5998L11.6235 28.6804C9.30573 30.9555 8 34.0669 8 37.3146C8 40.5624 9.30573 43.6737 11.6235 45.9488L11.7056 46.0295C14.0191 48.3004 17.1314 49.5726 20.3731 49.5726H23.2129L23.2203 49.5727H33.6534L35.7574 46.0541L38.9029 38.5998C39.3124 37.6294 40.6876 37.6294 41.0971 38.5998L44.2426 46.0541L46.3466 49.5727H56.7813C56.7869 49.5727 56.7925 49.5725 56.798 49.5723C56.8024 49.5721 56.8067 49.5719 56.8111 49.5715H59.6269C62.8686 49.5715 65.9809 48.2993 68.2944 46.0284L68.3765 45.9478C70.6943 43.6727 72 40.5613 72 37.3136C72 34.0658 70.6943 30.9545 68.3765 28.6794L68.2944 28.5987C67.261 27.5844 66.0682 26.7693 64.7757 26.1778C65.132 24.0011 65.0248 21.7573 64.4342 19.5938Z" fill="#2F80ED" />
  <path d="M38.9029 38.5998C39.3124 37.6294 40.6876 37.6294 41.0971 38.5998L44.2426 46.0541L49.2755 54.4706C50.9956 57.3473 51.2896 60.881 50.0904 64.0109C49.068 66.6795 47.0207 68.8562 44.4125 70.0241C41.6051 71.2812 38.3949 71.2812 35.5875 70.0241C32.9793 68.8562 30.932 66.6795 29.9096 64.0109C28.7104 60.881 29.0044 57.3473 30.7246 54.4706L35.7574 46.0541L38.9029 38.5998Z" fill="#56CCF2" />
</svg>