<svg width="80" height="80" viewBox="0 0 80 80" fill="none" xmlns="http://www.w3.org/2000/svg">
  <path fill-rule="evenodd" clip-rule="evenodd" d="M64 12V68L56 62L48 68L40 62L32 68L24 62L16 68V12L24 18L32 12L40 18L48 12L56 18L64 12Z" fill="#F2F2F2" />
  <path d="M64 68L62.8 69.6C63.406 70.0545 64.2169 70.1276 64.8944 69.7889C65.572 69.4501 66 68.7575 66 68H64ZM64 12H66C66 11.2425 65.572 10.5499 64.8944 10.2111C64.2169 9.87236 63.406 9.94547 62.8 10.4L64 12ZM56 62L57.2 60.4C56.4889 59.8667 55.5111 59.8667 54.8 60.4L56 62ZM48 68L46.8 69.6C47.5111 70.1333 48.4889 70.1333 49.2 69.6L48 68ZM40 62L41.2 60.4C40.4889 59.8667 39.5111 59.8667 38.8 60.4L40 62ZM32 68L30.8 69.6C31.5111 70.1333 32.4889 70.1333 33.2 69.6L32 68ZM24 62L25.2 60.4C24.4889 59.8667 23.5111 59.8667 22.8 60.4L24 62ZM16 68H14C14 68.7575 14.428 69.4501 15.1056 69.7889C15.7831 70.1276 16.594 70.0545 17.2 69.6L16 68ZM16 12L17.2 10.4C16.594 9.94547 15.7831 9.87236 15.1056 10.2111C14.428 10.5499 14 11.2425 14 12H16ZM24 18L22.8 19.6C23.5111 20.1333 24.4889 20.1333 25.2 19.6L24 18ZM32 12L33.2 10.4C32.4889 9.86667 31.5111 9.86667 30.8 10.4L32 12ZM40 18L38.8 19.6C39.5111 20.1333 40.4889 20.1333 41.2 19.6L40 18ZM48 12L49.2 10.4C48.4889 9.86667 47.5111 9.86667 46.8 10.4L48 12ZM56 18L54.8 19.6C55.5111 20.1333 56.4889 20.1333 57.2 19.6L56 18ZM66 68V12H62V68H66ZM54.8 63.6L62.8 69.6L65.2 66.4L57.2 60.4L54.8 63.6ZM49.2 69.6L57.2 63.6L54.8 60.4L46.8 66.4L49.2 69.6ZM38.8 63.6L46.8 69.6L49.2 66.4L41.2 60.4L38.8 63.6ZM33.2 69.6L41.2 63.6L38.8 60.4L30.8 66.4L33.2 69.6ZM22.8 63.6L30.8 69.6L33.2 66.4L25.2 60.4L22.8 63.6ZM17.2 69.6L25.2 63.6L22.8 60.4L14.8 66.4L17.2 69.6ZM14 12V68H18V12H14ZM25.2 16.4L17.2 10.4L14.8 13.6L22.8 19.6L25.2 16.4ZM30.8 10.4L22.8 16.4L25.2 19.6L33.2 13.6L30.8 10.4ZM41.2 16.4L33.2 10.4L30.8 13.6L38.8 19.6L41.2 16.4ZM46.8 10.4L38.8 16.4L41.2 19.6L49.2 13.6L46.8 10.4ZM57.2 16.4L49.2 10.4L46.8 13.6L54.8 19.6L57.2 16.4ZM62.8 10.4L54.8 16.4L57.2 19.6L65.2 13.6L62.8 10.4Z" fill="#E0E0E0" />
  <path d="M27 27.5H53" stroke="#2F80ED" stroke-width="4" stroke-linecap="round" stroke-linejoin="round" />
  <path d="M27 39.5H53" stroke="#2F80ED" stroke-width="4" stroke-linecap="round" stroke-linejoin="round" />
  <path d="M27 51.5H53" stroke="#2F80ED" stroke-width="4" stroke-linecap="round" stroke-linejoin="round" />
</svg>