<svg viewBox="0 0 99 99" fill="none">
  <path d="M69.781 44.3688C69.2251 43.4059 67.9939 43.076 67.0311 43.6319C66.0682 44.1879 65.7383 45.419 66.2942 46.3819L69.781 44.3688ZM57.5522 65.6058C56.4404 65.6058 55.5391 66.5071 55.5391 67.6189C55.5391 68.7307 56.4404 69.632 57.5522 69.632L57.5522 65.6058ZM75.6492 58.5589L73.9058 59.5655L75.6492 58.5589ZM66.2942 46.3819L73.9058 59.5655L77.3925 57.5524L69.781 44.3688L66.2942 46.3819ZM70.4184 65.6058L57.5522 65.6058L57.5522 69.632L70.4184 69.632L70.4184 65.6058ZM77.3925 65.6055C78.8311 63.1138 78.8311 60.044 77.3925 57.5524L73.9058 59.5655C74.6251 60.8114 74.6251 62.3464 73.9058 63.5924L77.3925 65.6055ZM73.9058 63.5924C73.1864 64.8383 71.857 65.6058 70.4184 65.6058L70.4184 69.632C73.2955 69.632 75.954 68.0971 77.3925 65.6055L73.9058 63.5924Z" fill="#6FCF97" />
  <path d="M57.5581 62.4143L57.5581 72.8251C57.5581 73.8757 56.2879 74.4019 55.545 73.659L51.641 69.7549C50.4617 68.5757 50.4617 66.6637 51.641 65.4845L55.545 61.5804C56.2879 60.8375 57.5581 61.3637 57.5581 62.4143Z" fill="#219653" stroke="#219653" stroke-width="4" stroke-linecap="round" stroke-linejoin="round" />
  <path d="M34.9145 34.5028C34.3586 35.4657 34.6885 36.6969 35.6514 37.2528C36.6142 37.8087 37.8454 37.4788 38.4013 36.5159L34.9145 34.5028ZM59.4207 34.4747C59.9766 35.4376 61.2078 35.7675 62.1706 35.2116C63.1335 34.6557 63.4634 33.4245 62.9075 32.4616L59.4207 34.4747ZM38.4013 36.5159L46.0128 23.3323L42.5261 21.3192L34.9145 34.5028L38.4013 36.5159ZM52.9876 23.3323L59.4207 34.4747L62.9075 32.4616L56.4744 21.3192L52.9876 23.3323ZM49.5002 17.2927C46.6231 17.2927 43.9646 18.8276 42.5261 21.3192L46.0128 23.3323C46.7322 22.0864 48.0616 21.3189 49.5002 21.3189L49.5002 17.2927ZM49.5002 21.3189C50.9389 21.3189 52.2683 22.0864 52.9876 23.3323L56.4744 21.3192C55.0359 18.8276 52.3773 17.2927 49.5002 17.2927L49.5002 21.3189Z" fill="#6FCF97" />
  <path d="M56.6541 36.0651L65.6702 30.8597C66.5801 30.3344 67.6708 31.1713 67.3989 32.1861L65.9699 37.5192C65.5383 39.1301 63.8825 40.0861 62.2716 39.6544L56.9385 38.2254C55.9237 37.9535 55.7443 36.5904 56.6541 36.0651Z" fill="#219653" stroke="#219653" stroke-width="4" stroke-linecap="round" stroke-linejoin="round" />
  <path d="M43.804 69.6289C44.9158 69.6289 45.8171 68.7276 45.8171 67.6158C45.8171 66.504 44.9158 65.6027 43.804 65.6027L43.804 69.6289ZM31.5266 48.42C32.0825 47.4571 31.7526 46.2259 30.7897 45.67C29.8269 45.1141 28.5957 45.444 28.0398 46.4069L31.5266 48.42ZM28.5809 67.6158L28.5809 65.6027L28.5809 67.6158ZM43.804 65.6027L28.5809 65.6027L28.5809 69.6289L43.804 69.6289L43.804 65.6027ZM25.0935 59.5624L31.5266 48.42L28.0398 46.4069L21.6067 57.5493L25.0935 59.5624ZM21.6067 65.6023C23.0453 68.094 25.7038 69.6289 28.5809 69.6289L28.5809 65.6027C27.1422 65.6027 25.8129 64.8352 25.0935 63.5892L21.6067 65.6023ZM25.0935 63.5892C24.3742 62.3433 24.3742 60.8083 25.0935 59.5624L21.6067 57.5493C20.1682 60.0409 20.1682 63.1107 21.6067 65.6023L25.0935 63.5892Z" fill="#6FCF97" />
  <path d="M34.2873 50.0201L25.2712 44.8147C24.3613 44.2894 24.5408 42.9263 25.5556 42.6544L30.8886 41.2254C32.4995 40.7937 34.1553 41.7497 34.587 43.3606L36.0159 48.6937C36.2879 49.7085 35.1971 50.5454 34.2873 50.0201Z" fill="#219653" stroke="#219653" stroke-width="4" stroke-linecap="round" stroke-linejoin="round" />
</svg>