<svg viewBox="0 0 80 80" fill="none">
  <path fill-rule="evenodd" clip-rule="evenodd" d="M53.1716 13.1716C52.4214 12.4214 51.404 12 50.3431 12H16C13.7909 12 12 13.7909 12 16V64C12 66.2091 13.7909 68 16 68H64C66.2091 68 68 66.2091 68 64V29.6569C68 28.596 67.5786 27.5786 66.8284 26.8284L53.1716 13.1716Z" fill="#2F80ED" />
  <path d="M66.8284 26.8284L68.2426 25.4142L66.8284 26.8284ZM53.1716 13.1716L51.7574 14.5858L53.1716 13.1716ZM16 14H50.3431V10H16V14ZM14 64V16H10V64H14ZM64 66H16V70H64V66ZM66 29.6569V64H70V29.6569H66ZM51.7574 14.5858L65.4142 28.2426L68.2426 25.4142L54.5858 11.7574L51.7574 14.5858ZM70 29.6569C70 28.0656 69.3679 26.5394 68.2426 25.4142L65.4142 28.2426C65.7893 28.6177 66 29.1264 66 29.6569H70ZM64 70C67.3137 70 70 67.3137 70 64H66C66 65.1046 65.1046 66 64 66V70ZM10 64C10 67.3137 12.6863 70 16 70V66C14.8954 66 14 65.1046 14 64H10ZM50.3431 14C50.8736 14 51.3823 14.2107 51.7574 14.5858L54.5858 11.7574C53.4606 10.6321 51.9344 10 50.3431 10V14ZM16 10C12.6863 10 10 12.6863 10 16H14C14 14.8954 14.8954 14 16 14V10Z" fill="#2F80ED" />
  <path d="M48 27V13C48 12.4477 47.5523 12 47 12H21C20.4477 12 20 12.4477 20 13V27C20 27.5523 20.4477 28 21 28H47C47.5523 28 48 27.5523 48 27Z" fill="#56CCF2" stroke="#56CCF2" stroke-width="3" stroke-linecap="round" stroke-linejoin="round" />
  <path d="M35.8038 38C39.0192 36.1436 42.9808 36.1436 46.1962 38C49.4115 39.8564 51.3923 43.2872 51.3923 47C51.3923 50.7128 49.4115 54.1436 46.1962 56C42.9808 57.8564 39.0192 57.8564 35.8038 56C32.5885 54.1436 30.6077 50.7128 30.6077 47C30.6077 43.2872 32.5885 39.8564 35.8038 38Z" fill="#F2F2F2" stroke="#F2F2F2" stroke-width="4" stroke-linecap="round" stroke-linejoin="round" />
</svg>