<svg width="80" height="80" viewBox="0 0 80 80" fill="none" xmlns="http://www.w3.org/2000/svg">
  <path fill-rule="evenodd" clip-rule="evenodd" d="M30.7836 55.2639C30.991 55.2191 31.1916 55.1297 31.3706 54.9944L42.6338 46.4861C42.8211 46.3446 42.9727 46.161 43.0762 45.9502L57.2088 17.1593C57.5598 16.4442 57.2906 15.5794 56.5958 15.1899C55.9009 14.8003 55.0227 15.0219 54.5958 15.6945L37.4766 42.6652L29.4778 52.6329C30.0995 53.4138 30.5408 54.3133 30.7836 55.2639ZM40.0646 43.1732C40.5429 43.4494 40.7067 44.0609 40.4306 44.5392C40.1544 45.0175 39.5429 45.1814 39.0646 44.9053C38.5863 44.6291 38.4224 44.0175 38.6985 43.5392C38.9747 43.0609 39.5863 42.8971 40.0646 43.1732Z" fill="#9B51E0" />
  <path d="M29.0636 62.2274C27.1306 65.5754 22.8494 66.7225 19.5014 64.7896V64.7896C16.1533 62.8566 15.0062 58.5754 16.9392 55.2274L17.9392 53.4953C19.8722 50.1473 24.1533 49.0001 27.5014 50.9331V50.9331C30.8494 52.8661 31.9966 57.1473 30.0636 60.4953L29.0636 62.2274Z" stroke="#9B51E0" stroke-width="4" stroke-linecap="round" stroke-linejoin="round" />
  <path fill-rule="evenodd" clip-rule="evenodd" d="M48.3438 55.2639C48.1365 55.2191 47.9359 55.1297 47.7568 54.9944L36.4937 46.4861C36.3063 46.3446 36.1548 46.161 36.0513 45.9502L21.9187 17.1593C21.5676 16.4442 21.8368 15.5794 22.5317 15.1899C23.2265 14.8003 24.1047 15.0219 24.5316 15.6945L41.6508 42.6652L49.6496 52.6329C49.0279 53.4138 48.5866 54.3133 48.3438 55.2639ZM39.0629 43.1732C38.5846 43.4494 38.4207 44.0609 38.6969 44.5392C38.973 45.0175 39.5846 45.1814 40.0629 44.9053C40.5412 44.6291 40.705 44.0175 40.4289 43.5392C40.1528 43.0609 39.5412 42.8971 39.0629 43.1732Z" fill="#2F80ED" />
  <path d="M50.0639 62.2274C51.9969 65.5754 56.278 66.7225 59.6261 64.7896V64.7896C62.9741 62.8566 64.1212 58.5754 62.1882 55.2274L61.1882 53.4953C59.2552 50.1473 54.9741 49.0001 51.6261 50.9331V50.9331C48.278 52.8661 47.1309 57.1473 49.0639 60.4953L50.0639 62.2274Z" stroke="#2F80ED" stroke-width="4" stroke-linecap="round" stroke-linejoin="round" />
</svg>