<svg viewBox="0 0 80 80" fill="none">
  <path fill-rule="evenodd" clip-rule="evenodd" d="M33.9235 23.0204L35.7197 22.6592C36.7515 23.4973 38.0671 23.9995 39.5 23.9995C40.8394 23.9995 42.0763 23.5607 43.0747 22.8189L44.0765 23.0204C47.8124 23.7716 50.5 27.0534 50.5 30.8641V47.4995C50.5 52.6304 47.1398 56.9765 42.5 58.4572V52C42.5 49.7909 40.7091 48 38.5 48C36.2909 48 34.5 49.7909 34.5 52V58.0858C30.3851 56.3344 27.5 52.2539 27.5 47.4995V30.8641C27.5 27.0534 30.1876 23.7716 33.9235 23.0204Z" fill="#2F80ED" />
  <path d="M35.7197 22.6592L36.9807 21.1068C36.5175 20.7305 35.9105 20.5808 35.3255 20.6984L35.7197 22.6592ZM33.9235 23.0204L33.5292 21.0596L33.9235 23.0204ZM43.0747 22.8189L43.469 20.8582C42.9135 20.7465 42.3367 20.8756 41.8819 21.2135L43.0747 22.8189ZM44.0765 23.0204L44.4708 21.0596V21.0596L44.0765 23.0204ZM42.5 58.4572H40.5C40.5 59.0956 40.8047 59.6956 41.3202 60.0722C41.8357 60.4488 42.4999 60.5566 43.1081 60.3626L42.5 58.4572ZM34.5 58.0858L33.7168 59.926C34.3345 60.189 35.043 60.1244 35.6031 59.7541C36.1631 59.3838 36.5 58.7572 36.5 58.0858H34.5ZM35.3255 20.6984L33.5292 21.0596L34.3178 24.9811L36.114 24.6199L35.3255 20.6984ZM39.5 21.9995C38.5429 21.9995 37.6691 21.6659 36.9807 21.1068L34.4588 24.2116C35.834 25.3286 37.5914 25.9995 39.5 25.9995V21.9995ZM41.8819 21.2135C41.2166 21.7078 40.3953 21.9995 39.5 21.9995V25.9995C41.2835 25.9995 42.9359 25.4136 44.2674 24.4243L41.8819 21.2135ZM44.4708 21.0596L43.469 20.8582L42.6804 24.7797L43.6822 24.9811L44.4708 21.0596ZM52.5 30.8641C52.5 26.1009 49.1406 21.9986 44.4708 21.0596L43.6822 24.9811C46.4842 25.5446 48.5 28.006 48.5 30.8641H52.5ZM52.5 47.4995V30.8641H48.5V47.4995H52.5ZM43.1081 60.3626C48.5529 58.6249 52.5 53.5258 52.5 47.4995H48.5C48.5 51.7351 45.7268 55.3281 41.8919 56.5519L43.1081 60.3626ZM40.5 52V58.4572H44.5V52H40.5ZM38.5 50C39.6046 50 40.5 50.8954 40.5 52H44.5C44.5 48.6863 41.8137 46 38.5 46V50ZM36.5 52C36.5 50.8954 37.3954 50 38.5 50V46C35.1863 46 32.5 48.6863 32.5 52H36.5ZM36.5 58.0858V52H32.5V58.0858H36.5ZM25.5 47.4995C25.5 53.0839 28.8902 57.8717 33.7168 59.926L35.2832 56.2455C31.88 54.797 29.5 51.4239 29.5 47.4995H25.5ZM25.5 30.8641V47.4995H29.5V30.8641H25.5ZM33.5292 21.0596C28.8594 21.9986 25.5 26.1009 25.5 30.8641H29.5C29.5 28.006 31.5158 25.5446 34.3178 24.9811L33.5292 21.0596Z" fill="#2F80ED" />
  <path fill-rule="evenodd" clip-rule="evenodd" d="M33.8414 16C33.6203 16.6256 33.5 17.2987 33.5 18C33.5 18.7013 33.6203 19.3744 33.8414 20H24.5C23.3954 20 22.5 19.1046 22.5 18C22.5 16.8954 23.3954 16 24.5 16H33.8414ZM45.1586 20C45.3797 19.3744 45.5 18.7013 45.5 18C45.5 17.2987 45.3797 16.6256 45.1586 16H54.5C55.6046 16 56.5 16.8954 56.5 18C56.5 19.1046 55.6046 20 54.5 20H45.1586Z" fill="#828282" />
  <rect x="34.5" y="48" width="8" height="20" rx="4" fill="#828282" />
  <rect x="33.5" y="12" width="12" height="12" rx="6" fill="#F2C94C" />
</svg>