<svg width="80" height="80" viewBox="0 0 80 80" fill="none" xmlns="http://www.w3.org/2000/svg">
  <path d="M31.2603 33.614L29.5453 34.643L31.6033 38.073L33.3183 37.044L31.2603 33.614ZM48.4727 27.9513L50.1877 26.9223L48.1297 23.4924L46.4147 24.5213L48.4727 27.9513ZM46.4162 55.4856L48.1312 56.5146L50.1891 53.0846L48.4742 52.0557L46.4162 55.4856ZM33.3199 42.9631L31.6049 41.9341L29.5469 45.3641L31.2619 46.3931L33.3199 42.9631ZM33.3183 37.044L48.4727 27.9513L46.4147 24.5213L31.2603 33.614L33.3183 37.044ZM48.4742 52.0557L33.3199 42.9631L31.2619 46.3931L46.4162 55.4856L48.4742 52.0557Z" fill="#BB6BD9" />
  <path d="M29.3306 47.5002C26.6511 49.0472 23.3499 49.0473 20.6704 47.5002C17.9909 45.9532 16.3402 43.0943 16.3402 40.0002C16.3402 36.9062 17.9909 34.0473 20.6704 32.5002C23.3499 30.9532 26.6511 30.9532 29.3306 32.5002C32.0101 34.0472 33.6607 36.9062 33.6607 40.0002C33.6607 43.0943 32.0101 45.9532 29.3306 47.5002Z" fill="#9B51E0" stroke="#9B51E0" stroke-width="4" stroke-linecap="square" stroke-linejoin="round" />
  <path d="M59.3306 65.5002C56.6511 67.0472 53.3499 67.0473 50.6704 65.5002C47.9909 63.9532 46.3402 61.0943 46.3402 58.0002C46.3402 54.9062 47.9909 52.0473 50.6704 50.5002C53.3499 48.9532 56.6511 48.9532 59.3306 50.5002C62.0101 52.0472 63.6607 54.9062 63.6607 58.0002C63.6607 61.0943 62.0101 63.9532 59.3306 65.5002Z" fill="#9B51E0" stroke="#9B51E0" stroke-width="4" stroke-linecap="square" stroke-linejoin="round" />
  <path d="M59.3306 29.5002C56.6511 31.0472 53.3499 31.0473 50.6704 29.5002C47.9909 27.9532 46.3402 25.0943 46.3402 22.0002C46.3402 18.9062 47.9909 16.0473 50.6704 14.5002C53.3499 12.9532 56.6511 12.9532 59.3306 14.5002C62.0101 16.0472 63.6607 18.9062 63.6607 22.0002C63.6607 25.0943 62.0101 27.9532 59.3306 29.5002Z" fill="#9B51E0" stroke="#9B51E0" stroke-width="4" stroke-linecap="square" stroke-linejoin="round" />
</svg>