<svg viewBox="0 0 80 80" fill="none">
  <path fill-rule="evenodd" clip-rule="evenodd" d="M62.7891 18.172C64.1843 24.0059 64.3862 30.1072 63.3291 36.1023C61.5273 46.321 56.1826 55.5782 48.2339 62.248C45.6853 64.3866 42.9212 66.2152 39.9999 67.7129C37.0785 66.2152 34.3144 64.3866 31.7658 62.248C23.8171 55.5782 18.4724 46.321 16.6706 36.1023C15.6134 30.1069 15.8155 24.0054 17.2109 18.1712C19.6358 16.7091 22.2103 15.4751 24.9041 14.4947C34.6547 10.9458 45.3439 10.9458 55.0945 14.4947C57.7887 15.4753 60.3637 16.7096 62.7891 18.172Z" fill="#219653" />
  <path d="M62.7891 18.172L64.7342 17.7068C64.6095 17.1855 64.2808 16.736 63.8218 16.4593L62.7891 18.172ZM63.3291 36.1023L65.2987 36.4496L63.3291 36.1023ZM48.2339 62.248L49.5195 63.7801L48.2339 62.248ZM39.9999 67.7129L39.0874 69.4927C39.6603 69.7864 40.3395 69.7864 40.9123 69.4927L39.9999 67.7129ZM31.7658 62.248L33.0514 60.7159L31.7658 62.248ZM16.6706 36.1023L14.701 36.4496H14.701L16.6706 36.1023ZM17.2109 18.1712L16.1782 16.4584C15.7192 16.7352 15.3904 17.1846 15.2657 17.706L17.2109 18.1712ZM24.9041 14.4947L24.22 12.6153V12.6153L24.9041 14.4947ZM55.0945 14.4947L55.7786 12.6153V12.6153L55.0945 14.4947ZM60.8439 18.6372C62.1759 24.2068 62.3687 30.0315 61.3595 35.755L65.2987 36.4496C66.4038 30.1828 66.1926 23.805 64.7342 17.7068L60.8439 18.6372ZM61.3595 35.755C59.6393 45.5107 54.5369 54.3484 46.9483 60.7159L49.5195 63.7801C57.8284 56.8081 63.4152 47.1314 65.2987 36.4496L61.3595 35.755ZM46.9483 60.7159C44.5152 62.7576 41.8764 64.5034 39.0874 65.9332L40.9123 69.4927C43.9661 67.9271 46.8554 66.0155 49.5195 63.7801L46.9483 60.7159ZM40.9123 65.9332C38.1233 64.5034 35.4846 62.7576 33.0514 60.7159L30.4803 63.7801C33.1443 66.0155 36.0337 67.9271 39.0874 69.4927L40.9123 65.9332ZM33.0514 60.7159C25.4628 54.3484 20.3604 45.5107 18.6402 35.755L14.701 36.4496C16.5845 47.1314 22.1713 56.8081 30.4803 63.7801L33.0514 60.7159ZM18.6402 35.755C17.631 30.0313 17.8238 24.2063 19.156 18.6364L15.2657 17.706C13.8071 23.8044 13.5959 30.1825 14.701 36.4496L18.6402 35.755ZM18.2435 19.884C20.5586 18.4882 23.0164 17.3101 25.5881 16.3741L24.22 12.6153C21.4043 13.6402 18.7131 14.9301 16.1782 16.4584L18.2435 19.884ZM25.5881 16.3741C34.8969 12.986 45.1017 12.986 54.4105 16.3741L55.7786 12.6153C45.5861 8.90557 34.4125 8.90557 24.22 12.6153L25.5881 16.3741ZM54.4105 16.3741C56.9827 17.3103 59.4409 18.4886 61.7563 19.8847L63.8218 16.4593C61.2865 14.9305 58.5948 13.6404 55.7786 12.6153L54.4105 16.3741Z" fill="#219653" />
  <path fill-rule="evenodd" clip-rule="evenodd" d="M54.6469 26.0153C55.5445 29.756 55.6757 33.6694 54.9959 37.5113C53.8385 44.052 50.3907 49.9906 45.2951 54.2515C43.6597 55.619 41.881 56.7899 39.9999 57.7497C38.1187 56.7899 36.34 55.619 34.7046 54.2515C29.609 49.9907 26.1612 44.052 25.0038 37.5113C24.324 33.6692 24.4552 29.7556 25.3529 26.0148C26.9087 25.0797 28.5587 24.2911 30.2823 23.6659C36.5428 21.3952 43.4561 21.3952 49.7167 23.6659C51.4406 24.2912 53.0909 25.08 54.6469 26.0153Z" fill="#6FCF97" />
  <path d="M54.6469 26.0153L56.5917 25.5486C56.4665 25.027 56.137 24.5775 55.6773 24.3011L54.6469 26.0153ZM54.9959 37.5113L53.0264 37.1629L54.9959 37.5113ZM45.2951 54.2515L46.5781 55.7858L45.2951 54.2515ZM39.9999 57.7497L39.0909 59.5312C39.6619 59.8225 40.3378 59.8225 40.9088 59.5312L39.9999 57.7497ZM34.7046 54.2515L35.9875 52.7172H35.9875L34.7046 54.2515ZM25.0038 37.5113L26.9733 37.1629L25.0038 37.5113ZM25.3529 26.0148L24.3226 24.3006C23.8628 24.577 23.5333 25.0265 23.4081 25.5481L25.3529 26.0148ZM30.2823 23.6659L30.9642 25.5461H30.9642L30.2823 23.6659ZM49.7167 23.6659L50.3986 21.7858V21.7858L49.7167 23.6659ZM52.7021 26.482C53.5362 29.9581 53.6579 33.594 53.0264 37.1629L56.9653 37.8598C57.6934 33.7447 57.5528 29.5539 56.5917 25.5486L52.7021 26.482ZM53.0264 37.1629C51.9515 43.2379 48.7479 48.7573 44.0122 52.7172L46.5781 55.7858C52.0335 51.224 55.7256 44.8661 56.9653 37.8598L53.0264 37.1629ZM44.0122 52.7172C42.4932 53.9874 40.8402 55.0757 39.0909 55.9681L40.9088 59.5312C42.9218 58.5042 44.8262 57.2507 46.5781 55.7858L44.0122 52.7172ZM40.9088 55.9681C39.1595 55.0757 37.5065 53.9874 35.9875 52.7172L33.4216 55.7858C35.1735 57.2507 37.0779 58.5042 39.0909 59.5312L40.9088 55.9681ZM35.9875 52.7172C31.2518 48.7573 28.0482 43.2379 26.9733 37.1629L23.0344 37.8598C24.2741 44.8661 27.9662 51.224 33.4216 55.7858L35.9875 52.7172ZM26.9733 37.1629C26.3417 33.5938 26.4635 29.9577 27.2977 26.4815L23.4081 25.5481C22.4469 29.5535 22.3063 33.7445 23.0344 37.8598L26.9733 37.1629ZM26.3832 27.729C27.8294 26.8598 29.3629 26.1269 30.9642 25.5461L29.6003 21.7858C27.7546 22.4553 25.988 23.2996 24.3226 24.3006L26.3832 27.729ZM30.9642 25.5461C36.7842 23.4352 43.2148 23.4352 49.0348 25.5461L50.3986 21.7858C43.6975 19.3553 36.3015 19.3553 29.6003 21.7858L30.9642 25.5461ZM49.0348 25.5461C50.6364 26.127 52.1701 26.86 53.6165 27.7295L55.6773 24.3011C54.0116 23.3 52.2447 22.4554 50.3986 21.7858L49.0348 25.5461Z" fill="#6FCF97" />
</svg>