<svg width="80" height="80" viewBox="0 0 80 80" fill="none" xmlns="http://www.w3.org/2000/svg">
  <path d="M12 21C10.8954 21 10 21.8954 10 23C10 24.1046 10.8954 25 12 25V21ZM21 25C22.1046 25 23 24.1046 23 23C23 21.8954 22.1046 21 21 21V25ZM29 21C27.8954 21 27 21.8954 27 23C27 24.1046 27.8954 25 29 25V21ZM68 25C69.1046 25 70 24.1046 70 23C70 21.8954 69.1046 21 68 21V25ZM12 38C10.8954 38 10 38.8954 10 40C10 41.1046 10.8954 42 12 42L12 38ZM51 42C52.1046 42 53 41.1046 53 40C53 38.8954 52.1046 38 51 38V42ZM59 38C57.8954 38 57 38.8954 57 40C57 41.1046 57.8954 42 59 42V38ZM68 42C69.1046 42 70 41.1046 70 40C70 38.8954 69.1046 38 68 38V42ZM12 55C10.8954 55 10 55.8954 10 57C10 58.1046 10.8954 59 12 59V55ZM33 59C34.1046 59 35 58.1046 35 57C35 55.8954 34.1046 55 33 55L33 59ZM41 55C39.8954 55 39 55.8954 39 57C39 58.1046 39.8954 59 41 59L41 55ZM68 59C69.1046 59 70 58.1046 70 57C70 55.8954 69.1046 55 68 55V59ZM12 25H21V21H12V25ZM29 25L68 25V21L29 21V25ZM12 42L51 42V38L12 38L12 42ZM59 42L68 42V38H59V42ZM12 59H33L33 55H12V59ZM41 59H68V55H41L41 59Z" fill="#56CCF2" />
  <rect x="21" y="15" width="8" height="16" rx="2" fill="#9B51E0" stroke="#9B51E0" stroke-width="4" stroke-linecap="square" stroke-linejoin="round" />
  <rect x="51" y="32" width="8" height="16" rx="2" fill="#9B51E0" stroke="#9B51E0" stroke-width="4" stroke-linecap="square" stroke-linejoin="round" />
  <rect x="33" y="49" width="8" height="16" rx="2" fill="#9B51E0" stroke="#9B51E0" stroke-width="4" stroke-linecap="square" stroke-linejoin="round" />
</svg>