<svg width="80" height="80" viewBox="0 0 80 80" fill="none" xmlns="http://www.w3.org/2000/svg">
  <path d="M22 44H58V57.2174V60H22V57.2174V44Z" fill="#EB5757" />
  <path fill-rule="evenodd" clip-rule="evenodd" d="M30.2858 16C21.4492 16 14.2858 23.1634 14.2858 32V36.0911C18.3221 36.6685 21.4946 39.9241 21.9451 44L22.0001 44H58.0001L58.055 44C58.5056 39.9241 61.678 36.6685 65.7143 36.0911V32C65.7143 23.1634 58.5509 16 49.7143 16H30.2858Z" fill="#F2994A" />
  <path d="M4 40.8228C4 38.1592 6.15925 36 8.82281 36H13C17.9706 36 22 40.0294 22 45V57.5714C22 61.1218 19.1218 64 15.5714 64C12.021 64 9.14286 61.1218 9.14286 57.5714V52.8704C9.14286 50.3638 8.29666 47.9305 6.74132 45.9647L5.04066 43.8153C4.36668 42.9634 4 41.909 4 40.8228Z" fill="#EB5757" />
  <path d="M76 40.8228C76 38.1592 73.8408 36 71.1772 36H67C62.0294 36 58 40.0294 58 45V57.5714C58 61.1218 60.8782 64 64.4286 64C67.979 64 70.8571 61.1218 70.8571 57.5714V52.8704C70.8571 50.3638 71.7033 47.9305 73.2587 45.9647L74.9593 43.8153C75.6333 42.9634 76 41.909 76 40.8228Z" fill="#EB5757" />
</svg>