<svg width="80" height="80" viewBox="0 0 80 80" fill="none" xmlns="http://www.w3.org/2000/svg">
  <path d="M38.1441 12.6217C38.8159 10.9488 41.1841 10.9488 41.8559 12.6217L47.8081 27.4439C48.0942 28.1563 48.7628 28.642 49.5288 28.694L65.4648 29.7745C67.2635 29.8965 67.9953 32.1489 66.6118 33.3047L54.3544 43.5459C53.7653 44.0381 53.5099 44.8241 53.6972 45.5686L57.5941 61.0586C58.0339 62.8069 56.1179 64.199 54.5911 63.2404L41.0634 54.7476C40.4132 54.3394 39.5868 54.3394 38.9366 54.7476L25.4089 63.2404C23.8821 64.199 21.9661 62.8069 22.4059 61.0586L26.3028 45.5686C26.4901 44.8241 26.2347 44.0381 25.6456 43.5459L13.3882 33.3047C12.0047 32.1489 12.7365 29.8965 14.5352 29.7745L30.4712 28.694C31.2372 28.642 31.9058 28.1563 32.1919 27.4439L38.1441 12.6217Z" fill="#F2994A" />
  <path d="M39.0515 26.3108C39.3874 25.4744 40.5716 25.4744 40.9075 26.3108L43.8835 33.7219C44.0266 34.0781 44.3609 34.321 44.7439 34.347L52.7119 34.8873C53.6112 34.9482 53.9771 36.0744 53.2854 36.6524L47.1567 41.7729C46.8621 42.0191 46.7344 42.4121 46.8281 42.7843L48.7765 50.5293C48.9964 51.4035 48.0384 52.0995 47.275 51.6202L40.5112 47.3738C40.1861 47.1697 39.7729 47.1697 39.4478 47.3738L32.684 51.6202C31.9205 52.0995 30.9626 51.4035 31.1825 50.5293L33.1309 42.7843C33.2245 42.4121 33.0968 42.0191 32.8023 41.7729L26.6736 36.6524C25.9818 36.0744 26.3478 34.9482 27.2471 34.8873L35.2151 34.347C35.5981 34.321 35.9324 34.0781 36.0754 33.7219L39.0515 26.3108Z" fill="#F2C94C" />
</svg>