<svg width="80" height="80" viewBox="0 0 80 80" fill="none" xmlns="http://www.w3.org/2000/svg">
  <path fill-rule="evenodd" clip-rule="evenodd" d="M30.7574 10.2427C33.1005 7.89956 36.8995 7.89957 39.2426 10.2427L55.2426 26.2427C56.3679 27.3679 57 28.8941 57 30.4853L57 60.0001C57 63.3138 54.3137 66.0001 51 66.0001H19C15.6863 66.0001 13 63.3138 13 60.0001V30.4854C13 28.8941 13.6321 27.3679 14.7574 26.2427L30.7574 10.2427Z" fill="#F2C94C" />
  <path d="M31.5 24.5C33.433 22.567 36.567 22.567 38.5 24.5V24.5C40.433 26.433 40.433 29.567 38.5 31.5V31.5C36.567 33.433 33.433 33.433 31.5 31.5V31.5C29.567 29.567 29.567 26.433 31.5 24.5V24.5Z" stroke="#EB5757" stroke-width="4" stroke-linecap="round" stroke-linejoin="round" />
  <path fill-rule="evenodd" clip-rule="evenodd" d="M21 66V68C21 71.3138 23.6863 74 27 74H59C62.3137 74 65 71.3138 65 68L65 38.4853C65 36.894 64.3679 35.3679 63.2426 34.2427L55.2585 26.2585C56.3738 27.3822 57 28.9015 57 30.4853L57 60C57 63.3137 54.3137 66 51 66H21Z" fill="#F2994A" />
</svg>