<svg width="80" height="80" viewBox="0 0 80 80" fill="none" xmlns="http://www.w3.org/2000/svg">
  <path fill-rule="evenodd" clip-rule="evenodd" d="M22.2787 11.8446C19.5684 13.1997 17.8564 15.9698 17.8564 19L17.8564 42.7063C17.8564 43.3557 17.5346 43.9573 17.0338 44.3707C13.8766 46.9771 12 50.8828 12 55.0557C12 60.0061 14.641 64.5805 18.9282 67.0557C23.2154 69.5309 28.4974 69.5309 32.7846 67.0557C37.0718 64.5805 39.7128 60.0061 39.7128 55.0557C39.7128 50.8828 37.8363 46.9771 34.679 44.3707C34.1782 43.9573 33.8564 43.3557 33.8564 42.7063V19C33.8564 15.9698 32.1444 13.1997 29.4341 11.8446C27.1819 10.7185 24.5309 10.7185 22.2787 11.8446Z" fill="#F2F2F2" />
  <path d="M22.2787 11.8446L23.1731 13.6334V13.6334L22.2787 11.8446ZM18.9282 67.0557L17.9282 68.7878L18.9282 67.0557ZM32.7846 67.0557L33.7846 68.7878L32.7846 67.0557ZM29.4341 11.8446L30.3285 10.0557L30.3285 10.0557L29.4341 11.8446ZM34.679 44.3707L33.4057 45.913L34.679 44.3707ZM17.0338 44.3707L15.7605 42.8284L17.0338 44.3707ZM19.8564 19C19.8564 16.7274 21.1404 14.6498 23.1731 13.6334L21.3843 10.0557C17.9964 11.7496 15.8564 15.2123 15.8564 19H19.8564ZM19.8564 42.7063L19.8564 19H15.8564L15.8564 42.7063H19.8564ZM14 55.0557C14 51.4855 15.6055 48.1433 18.3071 45.913L15.7605 42.8284C12.1476 45.811 10 50.2802 10 55.0557H14ZM19.9282 65.3237C16.2598 63.2057 14 59.2916 14 55.0557H10C10 60.7207 13.0222 65.9553 17.9282 68.7878L19.9282 65.3237ZM31.7846 65.3237C28.1162 67.4416 23.5966 67.4416 19.9282 65.3237L17.9282 68.7878C22.8342 71.6203 28.8786 71.6203 33.7846 68.7878L31.7846 65.3237ZM37.7128 55.0557C37.7128 59.2916 35.453 63.2057 31.7846 65.3237L33.7846 68.7878C38.6906 65.9553 41.7128 60.7207 41.7128 55.0557H37.7128ZM33.4057 45.913C36.1073 48.1433 37.7128 51.4855 37.7128 55.0557H41.7128C41.7128 50.2802 39.5652 45.811 35.9523 42.8284L33.4057 45.913ZM31.8564 19L31.8564 42.7063H35.8564V19H31.8564ZM28.5397 13.6334C30.5724 14.6498 31.8564 16.7274 31.8564 19H35.8564C35.8564 15.2123 33.7164 11.7496 30.3285 10.0557L28.5397 13.6334ZM23.1731 13.6334C24.8623 12.7889 26.8505 12.7889 28.5397 13.6334L30.3285 10.0557C27.5133 8.64809 24.1995 8.64809 21.3843 10.0557L23.1731 13.6334ZM35.9523 42.8284C35.905 42.7893 35.8779 42.7506 35.8651 42.7254C35.8535 42.7024 35.8564 42.6968 35.8564 42.7063H31.8564C31.8564 44.0308 32.5087 45.1725 33.4057 45.913L35.9523 42.8284ZM15.8564 42.7063C15.8564 42.6968 15.8593 42.7024 15.8477 42.7254C15.8349 42.7506 15.8079 42.7893 15.7605 42.8284L18.3071 45.913C19.2041 45.1725 19.8564 44.0308 19.8564 42.7063H15.8564Z" fill="#F2F2F2" />
  <path fill-rule="evenodd" clip-rule="evenodd" d="M29.2668 49H22.5329C22.4994 49.0186 22.4661 49.0375 22.4329 49.0566C20.2893 50.2942 18.9688 52.5814 18.9688 55.0566C18.9688 57.5318 20.2893 59.819 22.4329 61.0566C24.5764 62.2942 27.2175 62.2942 29.3611 61.0566C31.5046 59.819 32.8252 57.5318 32.8252 55.0566C32.8252 52.5814 31.5046 50.2942 29.3611 49.0566C29.3293 49.0383 29.2979 49.0194 29.2668 49Z" fill="#2F80ED" />
  <path d="M53.0399 11.4566C52.2319 10.7035 50.9664 10.748 50.2133 11.556C49.4601 12.364 49.5046 13.6296 50.3127 14.3827L53.0399 11.4566ZM55.0015 16.0188L53.6378 17.4819C54.406 18.1978 55.597 18.1978 56.3651 17.4819L55.0015 16.0188ZM49.0177 19.4736L49.6029 21.3861C50.607 21.0788 51.2025 20.0474 50.9665 19.0242L49.0177 19.4736ZM49.9451 14.5949C49.6969 13.5186 48.6231 12.8472 47.5468 13.0955C46.4705 13.3437 45.7992 14.4174 46.0474 15.4937L49.9451 14.5949ZM59.6893 14.3836C60.4973 13.6305 60.5418 12.3649 59.7887 11.5569C59.0356 10.7489 57.77 10.7044 56.962 11.4575L59.6893 14.3836ZM63.9552 15.495C64.2034 14.4187 63.5321 13.345 62.4558 13.0968C61.3795 12.8486 60.3057 13.5199 60.0575 14.5962L63.9552 15.495ZM60.9853 19.4736L59.0364 19.0242C58.8005 20.0474 59.396 21.0788 60.4 21.3861L60.9853 19.4736ZM64.8073 22.7347C65.8635 23.0579 66.9817 22.4637 67.3049 21.4074C67.6282 20.3512 67.0339 19.233 65.9777 18.9097L64.8073 22.7347ZM65.9777 26.9469C67.0339 26.6237 67.6282 25.5055 67.3049 24.4492C66.9817 23.393 65.8635 22.7988 64.8073 23.122L65.9777 26.9469ZM60.9853 26.3831L60.4 24.4706C59.396 24.7779 58.8005 25.8093 59.0364 26.8325L60.9853 26.3831ZM60.0869 31.388C60.3351 32.4643 61.4089 33.1356 62.4852 32.8874C63.5615 32.6392 64.2328 31.5655 63.9846 30.4892L60.0869 31.388ZM57.0577 34.4884C57.8658 35.2415 59.1313 35.197 59.8844 34.389C60.6375 33.581 60.593 32.3154 59.785 31.5623L57.0577 34.4884ZM55.0015 29.8378L56.3651 28.3748C55.597 27.6588 54.406 27.6588 53.6378 28.3748L55.0015 29.8378ZM50.2169 31.5632C49.4089 32.3163 49.3644 33.5819 50.1175 34.3899C50.8706 35.1979 52.1362 35.2424 52.9442 34.4893L50.2169 31.5632ZM46.018 30.4905C45.7698 31.5668 46.4411 32.6405 47.5174 32.8887C48.5937 33.1369 49.6675 32.4656 49.9157 31.3893L46.018 30.4905ZM49.0177 26.3831L50.9665 26.8325C51.2025 25.8093 50.607 24.7779 49.6029 24.4706L49.0177 26.3831ZM45.1931 23.1212C44.1369 22.798 43.0186 23.3922 42.6954 24.4485C42.3722 25.5047 42.9664 26.6229 44.0227 26.9461L45.1931 23.1212ZM44.0227 18.9105C42.9664 19.2337 42.3722 20.352 42.6954 21.4082C43.0186 22.4644 44.1369 23.0587 45.1931 22.7355L44.0227 18.9105ZM50.3127 14.3827L53.6378 17.4819L56.3651 14.5558L53.0399 11.4566L50.3127 14.3827ZM50.9665 19.0242L49.9451 14.5949L46.0474 15.4937L47.0688 19.923L50.9665 19.0242ZM56.3651 17.4819L59.6893 14.3836L56.962 11.4575L53.6378 14.5558L56.3651 17.4819ZM60.0575 14.5962L59.0364 19.0242L62.9341 19.923L63.9552 15.495L60.0575 14.5962ZM60.4 21.3861L64.8073 22.7347L65.9777 18.9097L61.5705 17.5611L60.4 21.3861ZM64.8073 23.122L60.4 24.4706L61.5705 28.2955L65.9777 26.9469L64.8073 23.122ZM59.0364 26.8325L60.0869 31.388L63.9846 30.4892L62.9341 25.9337L59.0364 26.8325ZM59.785 31.5623L56.3651 28.3748L53.6378 31.3009L57.0577 34.4884L59.785 31.5623ZM53.6378 28.3748L50.2169 31.5632L52.9442 34.4893L56.3651 31.3009L53.6378 28.3748ZM49.9157 31.3893L50.9665 26.8325L47.0688 25.9337L46.018 30.4905L49.9157 31.3893ZM49.6029 24.4706L45.1931 23.1212L44.0227 26.9461L48.4324 28.2955L49.6029 24.4706ZM45.1931 22.7355L49.6029 21.3861L48.4324 17.5611L44.0227 18.9105L45.1931 22.7355Z" fill="#56CCF2" />
  <path d="M55 11L57 10.998C56.9989 9.89421 56.1038 9 55 9C53.8962 9 53.0011 9.89421 53 10.998L55 11ZM65.3923 17L66.394 18.731C67.3494 18.1782 67.6762 16.9559 67.1243 16C66.5724 15.0441 65.3505 14.716 64.394 15.2669L65.3923 17ZM65.3923 29L64.394 30.7331C65.3505 31.284 66.5724 30.9559 67.1243 30C67.6762 29.0441 67.3494 27.8218 66.394 27.269L65.3923 29ZM55 35L53 35.002C53.0011 36.1058 53.8962 37 55 37C56.1038 37 56.9989 36.1058 57 35.002L55 35ZM44.6077 29L43.6059 27.269C42.6506 27.8218 42.3237 29.0441 42.8756 30C43.4275 30.9559 44.6495 31.284 45.6059 30.7331L44.6077 29ZM44.6077 17L45.6059 15.2669C44.6495 14.716 43.4275 15.0441 42.8756 16C42.3237 16.9559 42.6506 18.1782 43.6059 18.731L44.6077 17ZM50.4958 20.3916L51.494 18.6586L50.4958 20.3916ZM54.9932 17.7951L56.9932 17.7971L54.9932 17.7951ZM50.489 20.4034L49.4872 22.1345L50.489 20.4034ZM54.9932 28.2049L56.9932 28.2029L54.9932 28.2049ZM50.4958 25.6084L51.494 27.3414L50.4958 25.6084ZM55.0068 28.2049L53.0068 28.2029L55.0068 28.2049ZM59.511 20.4034L60.5127 22.1345L59.511 20.4034ZM59.511 25.5966L60.5127 23.8655L59.511 25.5966ZM55.0068 17.7951L53.0068 17.7971L55.0068 17.7951ZM59.5042 20.3916L60.5024 22.1247L59.5042 20.3916ZM53 11.002L53.0068 17.7971L57.0068 17.7931L57 10.998L53 11.002ZM60.5024 22.1247L66.3905 18.7331L64.394 15.2669L58.5059 18.6586L60.5024 22.1247ZM64.3905 15.269L58.5092 18.6724L60.5127 22.1345L66.394 18.731L64.3905 15.269ZM58.5092 27.3276L64.3905 30.731L66.394 27.269L60.5127 23.8655L58.5092 27.3276ZM66.3905 27.2669L60.5024 23.8753L58.5059 27.3414L64.394 30.7331L66.3905 27.2669ZM53.0068 28.2029L53 34.998L57 35.002L57.0068 28.2069L53.0068 28.2029ZM57 34.998L56.9932 28.2029L52.9932 28.2069L53 35.002L57 34.998ZM49.4975 23.8753L43.6094 27.2669L45.6059 30.7331L51.494 27.3414L49.4975 23.8753ZM45.6094 30.731L51.4907 27.3276L49.4872 23.8655L43.6059 27.269L45.6094 30.731ZM51.4907 18.6724L45.6094 15.269L43.6059 18.731L49.4872 22.1345L51.4907 18.6724ZM43.6094 18.7331L49.4975 22.1247L51.494 18.6586L45.6059 15.2669L43.6094 18.7331ZM56.9932 17.7971L57 11.002L53 10.998L52.9932 17.7931L56.9932 17.7971ZM49.4975 22.1247C52.8289 24.0436 56.9893 21.6416 56.9932 17.7971L52.9932 17.7931C52.9924 18.562 52.1603 19.0424 51.494 18.6586L49.4975 22.1247ZM51.4907 27.3276C54.8182 25.402 54.8182 20.598 51.4907 18.6724L49.4872 22.1345C50.1527 22.5196 50.1527 23.4804 49.4872 23.8655L51.4907 27.3276ZM56.9932 28.2029C56.9893 24.3584 52.8289 21.9564 49.4975 23.8753L51.494 27.3414C52.1603 26.9576 52.9924 27.438 52.9932 28.2069L56.9932 28.2029ZM60.5024 23.8753C57.171 21.9564 53.0106 24.3584 53.0068 28.2029L57.0068 28.2069C57.0075 27.438 57.8396 26.9576 58.5059 27.3414L60.5024 23.8753ZM58.5092 18.6724C55.1817 20.598 55.1817 25.402 58.5092 27.3276L60.5127 23.8655C59.8472 23.4804 59.8472 22.5196 60.5127 22.1345L58.5092 18.6724ZM53.0068 17.7971C53.0106 21.6416 57.171 24.0436 60.5024 22.1247L58.5059 18.6586C57.8396 19.0424 57.0075 18.562 57.0068 17.7931L53.0068 17.7971Z" fill="#56CCF2" />
</svg>