<svg width="80" height="80" viewBox="0 0 80 80" fill="none" xmlns="http://www.w3.org/2000/svg">
  <path fill-rule="evenodd" clip-rule="evenodd" d="M26.2888 59.8828L19.5858 66.5858C18.8047 67.3668 18.8047 68.6332 19.5858 69.4142C20.3668 70.1953 21.6332 70.1953 22.4142 69.4142L30.4142 61.4142C30.8059 61.0225 31.0012 60.5087 31 59.9952H27.9225C27.3733 59.9952 26.8275 59.9573 26.2888 59.8828ZM49 59.9952C48.9988 60.5087 49.1941 61.0225 49.5858 61.4142L57.5858 69.4142C58.3668 70.1953 59.6332 70.1953 60.4142 69.4142C61.1953 68.6332 61.1953 67.3668 60.4142 66.5858L53.7112 59.8828C53.1725 59.9573 52.6267 59.9952 52.0775 59.9952H49Z" fill="#828282" />
  <path fill-rule="evenodd" clip-rule="evenodd" d="M20.2588 57.2059C17.5592 54.9406 16 51.597 16 48.0728V23.9225C16 20.3983 17.5592 17.0546 20.2588 14.7893C22.4061 12.9876 25.1194 12 27.9225 12H52.0775C54.8806 12 57.5939 12.9876 59.7412 14.7893C62.4408 17.0546 64 20.3983 64 23.9224V48.0728C64 51.597 62.4408 54.9406 59.7412 57.2059C57.5939 59.0077 54.8806 59.9952 52.0775 59.9952H27.9225C25.1195 59.9952 22.4061 59.0077 20.2588 57.2059Z" fill="#2F80ED" />
  <path d="M16 24H64V40H16V24Z" fill="#56CCF2" />
  <rect x="37" y="47" width="6" height="6" rx="3" fill="#F2C94C" stroke="#F2C94C" stroke-width="4" stroke-linecap="round" stroke-linejoin="round" />
</svg>