<svg width="80" height="80" viewBox="0 0 80 80" fill="none" xmlns="http://www.w3.org/2000/svg">
  <rect x="40.0001" y="6" width="48" height="48" rx="2" transform="rotate(45 40.0001 6)" fill="#F2C94C" stroke="#F2C94C" stroke-width="4" stroke-linecap="round" stroke-linejoin="round" />
  <path d="M32.4287 46C32.4287 47.1046 31.5333 48 30.4287 48C29.3242 48 28.4287 47.1046 28.4287 46L32.4287 46ZM30.4287 34L28.4287 34L30.4287 34ZM38.4287 26L38.4287 24L38.4287 26ZM41.0002 26L41.0002 28L41.0002 26ZM51.0002 50C51.0002 51.1046 50.1047 52 49.0002 52C47.8956 52 47.0002 51.1046 47.0002 50L51.0002 50ZM28.4287 46L28.4287 34L32.4287 34L32.4287 46L28.4287 46ZM38.4287 24L41.0002 24L41.0002 28L38.4287 28L38.4287 24ZM51.0002 34L51.0002 40L47.0002 40L47.0002 34L51.0002 34ZM51.0002 40L51.0002 47L47.0002 47L47.0002 40L51.0002 40ZM51.0002 47L51.0002 50L47.0002 50L47.0002 47L51.0002 47ZM41.0002 24C46.523 24 51.0002 28.4771 51.0002 34L47.0002 34C47.0002 30.6863 44.3139 28 41.0002 28L41.0002 24ZM28.4287 34C28.4287 28.4771 32.9059 24 38.4287 24L38.4287 28C35.115 28 32.4287 30.6863 32.4287 34L28.4287 34Z" fill="#333333" />
  <path d="M35.128 46L25.7294 46C24.6902 46 24.1501 47.2385 24.8573 48L29.0155 52.478C29.7785 53.2997 31.0789 53.2997 31.8419 52.478L36.0001 48C36.7073 47.2385 36.1672 46 35.128 46Z" fill="#333333" stroke="#333333" stroke-width="2" stroke-linecap="round" stroke-linejoin="round" />
</svg>