<svg width="80" height="80" viewBox="0 0 80 80" fill="none" xmlns="http://www.w3.org/2000/svg">
  <path d="M25.6592 48L25.6592 58C25.6592 65.732 31.9272 72 39.6592 72V72C47.3912 72 53.6592 65.732 53.6592 58L53.6592 48" stroke="#EB5757" stroke-width="4" stroke-linecap="round" stroke-linejoin="round" />
  <path d="M25.6592 32L25.6592 22C25.6592 14.268 31.9272 8 39.6592 8V8C47.3912 8 53.6592 14.268 53.6592 22L53.6592 32" stroke="#EB5757" stroke-width="4" stroke-linecap="round" stroke-linejoin="round" />
  <path d="M35.6592 40L43.6592 40" stroke="#F2C94C" stroke-width="4" stroke-linecap="round" stroke-linejoin="round" />
  <path d="M15.6592 49L21.6592 43" stroke="#EB5757" stroke-width="4" stroke-linecap="round" stroke-linejoin="round" />
  <path d="M15.6592 31L21.6592 37" stroke="#EB5757" stroke-width="4" stroke-linecap="round" stroke-linejoin="round" />
  <path d="M63.6592 49L57.6592 43" stroke="#EB5757" stroke-width="4" stroke-linecap="round" stroke-linejoin="round" />
  <path d="M63.6592 31L57.6592 37" stroke="#EB5757" stroke-width="4" stroke-linecap="round" stroke-linejoin="round" />
</svg>