<svg width="80" height="80" viewBox="0 0 80 80" fill="none" xmlns="http://www.w3.org/2000/svg">
  <path d="M48.4 71.9999L11.6 71.9999C9.61178 71.9999 8 70.3881 8 68.3999C8 62.452 11.7089 57.1351 17.2909 55.081L18.7054 54.5605C25.9962 51.8776 34.0038 51.8776 41.2946 54.5605L42.7091 55.081C48.2911 57.1351 52 62.452 52 68.3999C52 70.3881 50.3882 71.9999 48.4 71.9999Z" fill="#EB5757" />
  <path d="M24.4715 44.0116C27.9486 45.7652 32.0514 45.7652 35.5285 44.0116C38.8318 42.3456 41.2077 39.2788 41.9955 35.664L42.1437 34.9842C42.9441 31.3115 42.0932 27.4725 39.816 24.4819L39.5802 24.1723C37.3028 21.1815 33.7592 19.4259 30 19.4259C26.2408 19.4259 22.6972 21.1815 20.4198 24.1723L20.184 24.4819C17.9068 27.4725 17.0559 31.3115 17.8563 34.9842L18.0045 35.664C18.7923 39.2788 21.1682 42.3456 24.4715 44.0116Z" fill="#EB5757" />
  <path fill-rule="evenodd" clip-rule="evenodd" d="M52 8C49.7909 8 48 9.79087 48 12V22.8571C48 25.0663 49.7909 26.8571 52 26.8571H53.1429V32L60 26.8571H68C70.2091 26.8571 72 25.0663 72 22.8571V12C72 9.79086 70.2091 8 68 8L52 8Z" fill="#F2C94C" />
</svg>