<svg width="80" height="80" viewBox="0 0 80 80" fill="none" xmlns="http://www.w3.org/2000/svg">
  <path fill-rule="evenodd" clip-rule="evenodd" d="M39.7321 49.7612C39.357 49.3861 38.8483 49.1754 38.3179 49.1754H28.1465C27.0419 49.1754 26.1465 48.28 26.1465 47.1754V33.1754C26.1465 32.0708 27.0419 31.1754 28.1465 31.1754H38.3183C38.8487 31.1754 39.3574 30.9647 39.7325 30.5896L50.7323 19.5898C51.9922 18.3299 54.1465 19.2222 54.1465 21.004V21.1736L54.1465 58.1736V59.3472C54.1465 61.129 51.9922 62.0213 50.7323 60.7614L39.7321 49.7612Z" fill="#EB5757" />
  <path d="M54.1465 21.1736H56.1465V21.1736L54.1465 21.1736ZM50.7323 60.7614L52.1465 59.3472L50.7323 60.7614ZM39.7325 30.5896L41.1467 32.0038L39.7325 30.5896ZM39.7321 49.7612L41.1463 48.347L39.7321 49.7612ZM38.3179 47.1754H28.1465V51.1754H38.3179V47.1754ZM28.1465 47.1754V33.1754H24.1465V47.1754H28.1465ZM28.1465 33.1754H38.3183V29.1754H28.1465L28.1465 33.1754ZM41.1467 32.0038L52.1465 21.004L49.3181 18.1756L38.3183 29.1754L41.1467 32.0038ZM52.1465 21.004V21.1736L56.1465 21.1736V21.004L52.1465 21.004ZM52.1465 21.1736L52.1465 58.1736H56.1465L56.1465 21.1736H52.1465ZM52.1465 58.1736V59.3472H56.1465V58.1736H52.1465ZM52.1465 59.3472L41.1463 48.347L38.3179 51.1754L49.3181 62.1756L52.1465 59.3472ZM52.1465 59.3472L49.3181 62.1756C51.8379 64.6954 56.1465 62.9108 56.1465 59.3472H52.1465ZM52.1465 21.004L52.1465 21.004L56.1465 21.004C56.1465 17.4404 51.8379 15.6557 49.3181 18.1756L52.1465 21.004ZM38.3183 33.1754C39.3791 33.1754 40.3965 32.754 41.1467 32.0038L38.3183 29.1754H38.3183V33.1754ZM28.1465 33.1754L28.1465 29.1754C25.9373 29.1754 24.1465 30.9663 24.1465 33.1754H28.1465ZM28.1465 47.1754H28.1465H24.1465C24.1465 49.3845 25.9373 51.1754 28.1465 51.1754V47.1754ZM38.3179 51.1754H38.3179L41.1463 48.347C40.3961 47.5968 39.3787 47.1754 38.3179 47.1754V51.1754Z" fill="#EB5757" />
</svg>