<svg width="80" height="80" viewBox="0 0 80 80" fill="none" xmlns="http://www.w3.org/2000/svg">
  <path fill-rule="evenodd" clip-rule="evenodd" d="M34.9517 45.6001L32.392 54.3722C32.1543 55.1868 31.6636 55.9048 30.991 56.4222L26.5614 59.8296C24.8103 61.1765 24.4828 63.6879 25.8297 65.4389C27.1766 67.19 29.688 67.5175 31.439 66.1706L35.8687 62.7632C37.8866 61.2109 39.3586 59.0571 40.0717 56.6131L40.9069 53.7511L38.0882 49.805C36.6968 48.6621 35.6312 47.2123 34.9517 45.6001Z" fill="#F2C94C" />
  <path d="M32.392 54.3722L31.912 54.2321L32.392 54.3722ZM34.9517 45.6001L35.4125 45.4059L34.866 44.1091L34.4717 45.46L34.9517 45.6001ZM30.991 56.4222L31.2959 56.8185H31.2959L30.991 56.4222ZM26.5614 59.8296L26.8662 60.2259H26.8662L26.5614 59.8296ZM25.8297 65.4389L25.4334 65.7438L25.8297 65.4389ZM31.439 66.1706L31.7439 66.5669L31.439 66.1706ZM35.8687 62.7632L35.5638 62.3669L35.8687 62.7632ZM40.0717 56.6131L39.5918 56.4731L40.0717 56.6131ZM40.9069 53.7511L41.3869 53.8912L41.4549 53.6581L41.3137 53.4605L40.9069 53.7511ZM38.0882 49.805L38.4951 49.5144L38.4566 49.4606L38.4056 49.4186L38.0882 49.805ZM32.872 54.5122L35.4317 45.7402L34.4717 45.46L31.912 54.2321L32.872 54.5122ZM31.2959 56.8185C32.0526 56.2364 32.6046 55.4287 32.872 54.5122L31.912 54.2321C31.704 54.9449 31.2747 55.5731 30.6861 56.0259L31.2959 56.8185ZM26.8662 60.2259L31.2959 56.8185L30.6861 56.0259L26.2565 59.4333L26.8662 60.2259ZM26.226 65.1341C25.0474 63.602 25.3341 61.4045 26.8662 60.2259L26.2565 59.4333C24.2866 60.9486 23.9181 63.7739 25.4334 65.7438L26.226 65.1341ZM31.1342 65.7743C29.602 66.9529 27.4046 66.6662 26.226 65.1341L25.4334 65.7438C26.9487 67.7137 29.774 68.0822 31.7439 66.5669L31.1342 65.7743ZM35.5638 62.3669L31.1342 65.7743L31.7439 66.5669L36.1735 63.1595L35.5638 62.3669ZM39.5918 56.4731C38.9083 58.8152 37.4977 60.8793 35.5638 62.3669L36.1735 63.1595C38.2756 61.5426 39.8089 59.299 40.5517 56.7532L39.5918 56.4731ZM40.4269 53.6111L39.5918 56.4731L40.5517 56.7532L41.3869 53.8912L40.4269 53.6111ZM41.3137 53.4605L38.4951 49.5144L37.6813 50.0956L40.5 54.0418L41.3137 53.4605ZM38.4056 49.4186C37.0779 48.3281 36.061 46.9446 35.4125 45.4059L34.491 45.7943C35.2014 47.48 36.3158 48.9962 37.7708 50.1914L38.4056 49.4186Z" fill="#F2C94C" />
  <path fill-rule="evenodd" clip-rule="evenodd" d="M36.6218 26.7121C37.9853 25.7383 39.619 25.2148 41.2945 25.2148C44.5524 25.2148 47.4883 27.181 48.7288 30.1935L50.1198 33.5716C50.4688 34.4192 51.0983 35.1212 51.9031 35.5602L54.9154 37.2033C56.8548 38.2611 57.5694 40.6909 56.5116 42.6303C55.4537 44.5696 53.024 45.2843 51.0846 44.2264L48.0723 42.5833C47.3384 42.1831 46.6531 41.7098 46.0252 41.1736L45.2179 46.0228L48.3722 50.4388C49.2473 51.664 49.8841 53.0429 50.2492 54.5035L52.3806 63.0298C52.9163 65.173 51.6132 67.3447 49.47 67.8805C47.3268 68.4162 45.1551 67.1131 44.6194 64.9699L42.488 56.4436C42.3663 55.9567 42.1541 55.4971 41.8624 55.0887L38.0881 49.8048C35.5838 47.7478 34.1348 44.6965 34.0933 41.4933L32.9865 43.4609C31.9035 45.3863 29.4646 46.0692 27.5392 44.9862C25.6137 43.9031 24.9309 41.4643 26.0139 39.5388L29.6405 33.0915C30.5034 31.5576 31.693 30.2323 33.1251 29.2094L36.6218 26.7121Z" fill="#F2C94C" />
  <path d="M36.6218 26.7121L36.9124 27.119L36.6218 26.7121ZM48.7288 30.1935L49.1911 30.0032L48.7288 30.1935ZM50.1198 33.5716L50.5821 33.3812L50.1198 33.5716ZM51.9031 35.5602L51.6636 35.9991L51.9031 35.5602ZM54.9154 37.2033L55.1548 36.7643L54.9154 37.2033ZM56.5116 42.6303L56.0726 42.3908L56.5116 42.6303ZM51.0846 44.2264L50.8451 44.6654L51.0846 44.2264ZM48.0723 42.5833L47.8328 43.0223L48.0723 42.5833ZM46.0252 41.1736L46.35 40.7934L45.6773 40.2189L45.532 41.0915L46.0252 41.1736ZM45.2179 46.0228L44.7247 45.9407L44.6907 46.1449L44.8111 46.3134L45.2179 46.0228ZM48.3722 50.4388L47.9654 50.7294L48.3722 50.4388ZM50.2492 54.5035L50.7343 54.3823L50.2492 54.5035ZM52.3806 63.0298L52.8656 62.9086L52.3806 63.0298ZM44.6194 64.9699L44.1343 65.0912L44.6194 64.9699ZM42.488 56.4436L42.0029 56.5649L42.488 56.4436ZM41.8624 55.0887L41.4555 55.3793L41.8624 55.0887ZM38.0881 49.8048L38.495 49.5142L38.4566 49.4604L38.4055 49.4185L38.0881 49.8048ZM34.0933 41.4933L34.5933 41.4868L34.5692 39.6274L33.6575 41.2481L34.0933 41.4933ZM32.9865 43.4609L33.4223 43.706L32.9865 43.4609ZM27.5392 44.9862L27.294 45.422H27.294L27.5392 44.9862ZM26.0139 39.5388L26.4497 39.784L26.0139 39.5388ZM29.6405 33.0915L29.2048 32.8464L29.6405 33.0915ZM33.1251 29.2094L32.8345 28.8026L33.1251 29.2094ZM41.2945 24.7148C39.5147 24.7148 37.7795 25.2709 36.3312 26.3053L36.9124 27.119C38.1911 26.2058 39.7232 25.7148 41.2945 25.7148V24.7148ZM49.1911 30.0032C47.8735 26.8033 44.7551 24.7148 41.2945 24.7148V25.7148C44.3498 25.7148 47.1031 27.5587 48.2665 30.3839L49.1911 30.0032ZM50.5821 33.3812L49.1911 30.0032L48.2665 30.3839L49.6574 33.762L50.5821 33.3812ZM52.1425 35.1212C51.4384 34.7372 50.8875 34.1229 50.5821 33.3812L49.6574 33.762C50.0501 34.7155 50.7583 35.5053 51.6636 35.9991L52.1425 35.1212ZM55.1548 36.7643L52.1425 35.1212L51.6636 35.9991L54.676 37.6422L55.1548 36.7643ZM56.9505 42.8697C58.1406 40.6879 57.3366 37.9544 55.1548 36.7643L54.676 37.6422C56.3729 38.5678 56.9982 40.6939 56.0726 42.3908L56.9505 42.8697ZM50.8451 44.6654C53.027 45.8555 55.7604 45.0515 56.9505 42.8697L56.0726 42.3908C55.147 44.0878 53.021 44.7131 51.324 43.7875L50.8451 44.6654ZM47.8328 43.0223L50.8451 44.6654L51.324 43.7875L48.3117 42.1444L47.8328 43.0223ZM45.7005 41.5538C46.3545 42.1124 47.0684 42.6053 47.8328 43.0223L48.3117 42.1444C47.6084 41.7608 46.9516 41.3073 46.35 40.7934L45.7005 41.5538ZM45.7111 46.1049L46.5184 41.2557L45.532 41.0915L44.7247 45.9407L45.7111 46.1049ZM48.7791 50.1482L45.6248 45.7322L44.8111 46.3134L47.9654 50.7294L48.7791 50.1482ZM50.7343 54.3823C50.3539 52.8608 49.6907 51.4244 48.7791 50.1482L47.9654 50.7294C48.804 51.9035 49.4142 53.225 49.7641 54.6248L50.7343 54.3823ZM52.8656 62.9086L50.7343 54.3823L49.7641 54.6248L51.8955 63.1511L52.8656 62.9086ZM49.5913 68.3655C52.0024 67.7628 53.4684 65.3197 52.8656 62.9086L51.8955 63.1511C52.3643 65.0264 51.2241 66.9266 49.3488 67.3954L49.5913 68.3655ZM44.1343 65.0912C44.737 67.5023 47.1802 68.9683 49.5913 68.3655L49.3488 67.3954C47.4735 67.8642 45.5732 66.724 45.1045 64.8487L44.1343 65.0912ZM42.0029 56.5649L44.1343 65.0912L45.1045 64.8487L42.9731 56.3224L42.0029 56.5649ZM41.4555 55.3793C41.7107 55.7367 41.8964 56.1389 42.0029 56.5649L42.9731 56.3224C42.8362 55.7746 42.5974 55.2575 42.2692 54.7981L41.4555 55.3793ZM37.6813 50.0954L41.4555 55.3793L42.2692 54.7981L38.495 49.5142L37.6813 50.0954ZM33.5934 41.4997C33.6368 44.8494 35.1518 48.04 37.7708 50.1912L38.4055 49.4185C36.0158 47.4555 34.6329 44.5436 34.5933 41.4868L33.5934 41.4997ZM33.4223 43.706L34.5291 41.7384L33.6575 41.2481L32.5507 43.2158L33.4223 43.706ZM27.294 45.422C29.4602 46.6404 32.2039 45.8722 33.4223 43.706L32.5507 43.2158C31.6031 44.9005 29.4691 45.4981 27.7843 44.5504L27.294 45.422ZM25.5781 39.2937C24.3597 41.4598 25.1279 44.2035 27.294 45.422L27.7843 44.5504C26.0996 43.6027 25.502 41.4687 26.4497 39.784L25.5781 39.2937ZM29.2048 32.8464L25.5781 39.2937L26.4497 39.784L30.0763 33.3366L29.2048 32.8464ZM32.8345 28.8026C31.3427 29.868 30.1035 31.2486 29.2048 32.8464L30.0763 33.3366C30.9032 31.8667 32.0433 30.5965 33.4157 29.6163L32.8345 28.8026ZM36.3312 26.3053L32.8345 28.8026L33.4157 29.6163L36.9124 27.119L36.3312 26.3053Z" fill="#F2C94C" />
  <path d="M40.6545 23.8705C42.1367 24.5843 43.8633 24.5843 45.3455 23.8705C46.8277 23.1567 47.9042 21.8068 48.2703 20.2029C48.6364 18.599 48.2522 16.9157 47.2264 15.6295C46.2007 14.3433 44.6451 13.5942 43 13.5942C41.3549 13.5942 39.7993 14.3433 38.7736 15.6295C37.7478 16.9157 37.3636 18.599 37.7297 20.2029C38.0958 21.8068 39.1723 23.1567 40.6545 23.8705Z" fill="#F2994A" stroke="#F2994A" stroke-width="4" stroke-linecap="round" stroke-linejoin="round" />
</svg>