<svg width="80" height="80" viewBox="0 0 80 80" fill="none" xmlns="http://www.w3.org/2000/svg">
  <path d="M31 23.5002L32.4142 24.9144L32.4142 24.9144L31 23.5002ZM30.4853 24.0149L29.0711 22.6007L29.0711 22.6007L30.4853 24.0149ZM32.5 22.0002L33.9142 23.4144L33.9142 23.4144L32.5 22.0002ZM31.5 23.0002L30.0858 21.5859L30.0858 21.5859L31.5 23.0002ZM22 25.5296C20.8954 25.5296 20 26.425 20 27.5296C20 28.6342 20.8954 29.5296 22 29.5296V25.5296ZM37.5147 24.0149L38.9289 22.6007V22.6007L37.5147 24.0149ZM55 23.5002L56.4142 24.9144L56.4142 24.9144L55 23.5002ZM54.4853 24.0149L53.0711 22.6007L53.0711 22.6007L54.4853 24.0149ZM56.5 22.0002L57.9142 23.4144V23.4144L56.5 22.0002ZM55.5 23.0002L54.0858 21.5859V21.5859L55.5 23.0002ZM61.5147 24.0149L60.1005 25.4291V25.4291L61.5147 24.0149ZM70 29.5296C71.1046 29.5296 72 28.6342 72 27.5296C72 26.425 71.1046 25.5296 70 25.5296V29.5296ZM59 21.5002L60.4142 20.0859L59 21.5002ZM35 21.5002L36.4142 20.0859L35 21.5002ZM29.5858 22.0859L29.0711 22.6007L31.8995 25.4291L32.4142 24.9144L29.5858 22.0859ZM31.5858 20.0859L31.0858 20.5859L33.9142 23.4144L34.4142 22.9144L31.5858 20.0859ZM31.0858 20.5859L30.5858 21.0859L33.4142 23.9144L33.9142 23.4144L31.0858 20.5859ZM30.5858 21.0859L30.0858 21.5859L32.9142 24.4144L33.4142 23.9144L30.5858 21.0859ZM30.0858 21.5859L29.5858 22.0859L32.4142 24.9144L32.9142 24.4144L30.0858 21.5859ZM22 29.5296C25.5798 29.5296 29.1662 28.1624 31.8995 25.4291L29.0711 22.6007C27.1181 24.5537 24.5623 25.5296 22 25.5296V29.5296ZM38.9289 22.6007L36.4142 20.0859L33.5858 22.9144L36.1005 25.4291L38.9289 22.6007ZM53.5858 22.0859L53.0711 22.6007L55.8995 25.4291L56.4142 24.9144L53.5858 22.0859ZM55.5858 20.0859L55.0858 20.5859L57.9142 23.4144L58.4142 22.9144L55.5858 20.0859ZM55.0858 20.5859L54.5858 21.0859L57.4142 23.9144L57.9142 23.4144L55.0858 20.5859ZM54.5858 21.0859L54.0858 21.5859L56.9142 24.4144L57.4142 23.9144L54.5858 21.0859ZM54.0858 21.5859L53.5858 22.0859L56.4142 24.9144L56.9142 24.4144L54.0858 21.5859ZM36.1005 25.4291C41.5678 30.8964 50.4321 30.8964 55.8995 25.4291L53.0711 22.6007C49.1658 26.5059 42.8342 26.5059 38.9289 22.6007L36.1005 25.4291ZM62.9289 22.6007L60.4142 20.0859L57.5858 22.9144L60.1005 25.4291L62.9289 22.6007ZM60.1005 25.4291C62.8338 28.1624 66.4202 29.5296 70 29.5296V25.5296C67.4377 25.5296 64.8819 24.5537 62.9289 22.6007L60.1005 25.4291ZM58.4142 22.9144C58.1854 23.1431 57.8145 23.1431 57.5858 22.9144L60.4142 20.0859C59.0809 18.7526 56.9191 18.7526 55.5858 20.0859L58.4142 22.9144ZM34.4142 22.9144C34.1854 23.1431 33.8145 23.1431 33.5858 22.9144L36.4142 20.0859C35.0809 18.7526 32.9191 18.7526 31.5858 20.0859L34.4142 22.9144Z" fill="#56CCF2" />
  <path d="M31 54.9572L32.4142 56.3714L32.4142 56.3714L31 54.9572ZM30.4853 55.4719L29.0711 54.0577L29.0711 54.0577L30.4853 55.4719ZM32.5 53.4572L33.9142 54.8714L33.9142 54.8714L32.5 53.4572ZM31.5 54.4572L30.0858 53.043L30.0858 53.043L31.5 54.4572ZM22 56.9866C20.8954 56.9866 20 57.8821 20 58.9866C20 60.0912 20.8954 60.9866 22 60.9866V56.9866ZM37.5147 55.4719L38.9289 54.0577V54.0577L37.5147 55.4719ZM55 54.9572L56.4142 56.3714L56.4142 56.3714L55 54.9572ZM54.4853 55.4719L53.0711 54.0577L53.0711 54.0577L54.4853 55.4719ZM56.5 53.4572L57.9142 54.8714V54.8714L56.5 53.4572ZM55.5 54.4572L54.0858 53.043V53.043L55.5 54.4572ZM61.5147 55.4719L60.1005 56.8861V56.8861L61.5147 55.4719ZM70 60.9866C71.1046 60.9866 72 60.0912 72 58.9866C72 57.8821 71.1046 56.9866 70 56.9866V60.9866ZM59 52.9572L60.4142 51.543L59 52.9572ZM35 52.9572L36.4142 51.543L35 52.9572ZM29.5858 53.543L29.0711 54.0577L31.8995 56.8861L32.4142 56.3714L29.5858 53.543ZM31.5858 51.543L31.0858 52.043L33.9142 54.8714L34.4142 54.3714L31.5858 51.543ZM31.0858 52.043L30.5858 52.543L33.4142 55.3714L33.9142 54.8714L31.0858 52.043ZM30.5858 52.543L30.0858 53.043L32.9142 55.8714L33.4142 55.3714L30.5858 52.543ZM30.0858 53.043L29.5858 53.543L32.4142 56.3714L32.9142 55.8714L30.0858 53.043ZM22 60.9866C25.5798 60.9866 29.1662 59.6194 31.8995 56.8861L29.0711 54.0577C27.1181 56.0107 24.5623 56.9866 22 56.9866V60.9866ZM38.9289 54.0577L36.4142 51.543L33.5858 54.3714L36.1005 56.8861L38.9289 54.0577ZM53.5858 53.543L53.0711 54.0577L55.8995 56.8861L56.4142 56.3714L53.5858 53.543ZM55.5858 51.543L55.0858 52.043L57.9142 54.8714L58.4142 54.3714L55.5858 51.543ZM55.0858 52.043L54.5858 52.543L57.4142 55.3714L57.9142 54.8714L55.0858 52.043ZM54.5858 52.543L54.0858 53.043L56.9142 55.8714L57.4142 55.3714L54.5858 52.543ZM54.0858 53.043L53.5858 53.543L56.4142 56.3714L56.9142 55.8714L54.0858 53.043ZM36.1005 56.8861C41.5678 62.3535 50.4321 62.3535 55.8995 56.8861L53.0711 54.0577C49.1658 57.9629 42.8342 57.9629 38.9289 54.0577L36.1005 56.8861ZM62.9289 54.0577L60.4142 51.543L57.5858 54.3714L60.1005 56.8861L62.9289 54.0577ZM60.1005 56.8861C62.8338 59.6194 66.4202 60.9866 70 60.9866V56.9866C67.4377 56.9866 64.8819 56.0107 62.9289 54.0577L60.1005 56.8861ZM58.4142 54.3714C58.1854 54.6002 57.8145 54.6002 57.5858 54.3714L60.4142 51.543C59.0809 50.2096 56.9191 50.2096 55.5858 51.543L58.4142 54.3714ZM34.4142 54.3714C34.1854 54.6002 33.8145 54.6002 33.5858 54.3714L36.4142 51.543C35.0809 50.2096 32.9191 50.2096 31.5858 51.543L34.4142 54.3714Z" fill="#56CCF2" />
  <path d="M19 39.2287L20.4142 40.6429L20.4142 40.6429L19 39.2287ZM18.4853 39.7434L17.0711 38.3292L17.0711 38.3292L18.4853 39.7434ZM20.5 37.7287L21.9142 39.1429L21.9142 39.1429L20.5 37.7287ZM19.5 38.7287L18.0858 37.3145L18.0858 37.3145L19.5 38.7287ZM10 41.2581C8.89543 41.2581 8 42.1535 8 43.2581C8 44.3627 8.89543 45.2581 10 45.2581L10 41.2581ZM25.5147 39.7434L26.9289 38.3292V38.3292L25.5147 39.7434ZM43 39.2287L44.4142 40.6429L44.4142 40.6429L43 39.2287ZM42.4853 39.7434L41.0711 38.3292L41.0711 38.3292L42.4853 39.7434ZM44.5 37.7287L45.9142 39.1429V39.1429L44.5 37.7287ZM43.5 38.7287L42.0858 37.3145V37.3145L43.5 38.7287ZM49.5147 39.7434L48.1005 41.1576V41.1576L49.5147 39.7434ZM58 45.2581C59.1046 45.2581 60 44.3627 60 43.2581C60 42.1535 59.1046 41.2581 58 41.2581V45.2581ZM47 37.2287L48.4142 35.8145L47 37.2287ZM23 37.2287L24.4142 35.8145L23 37.2287ZM17.5858 37.8145L17.0711 38.3292L19.8995 41.1576L20.4142 40.6429L17.5858 37.8145ZM19.5858 35.8145L19.0858 36.3145L21.9142 39.1429L22.4142 38.6429L19.5858 35.8145ZM19.0858 36.3145L18.5858 36.8145L21.4142 39.6429L21.9142 39.1429L19.0858 36.3145ZM18.5858 36.8145L18.0858 37.3145L20.9142 40.1429L21.4142 39.6429L18.5858 36.8145ZM18.0858 37.3145L17.5858 37.8145L20.4142 40.6429L20.9142 40.1429L18.0858 37.3145ZM10 45.2581C13.5798 45.2581 17.1662 43.8909 19.8995 41.1576L17.0711 38.3292C15.1181 40.2822 12.5623 41.2581 10 41.2581L10 45.2581ZM26.9289 38.3292L24.4142 35.8145L21.5858 38.6429L24.1005 41.1576L26.9289 38.3292ZM41.5858 37.8144L41.0711 38.3292L43.8995 41.1576L44.4142 40.6429L41.5858 37.8144ZM43.5858 35.8145L43.0858 36.3145L45.9142 39.1429L46.4142 38.6429L43.5858 35.8145ZM43.0858 36.3145L42.5858 36.8145L45.4142 39.6429L45.9142 39.1429L43.0858 36.3145ZM42.5858 36.8145L42.0858 37.3145L44.9142 40.1429L45.4142 39.6429L42.5858 36.8145ZM42.0858 37.3145L41.5858 37.8145L44.4142 40.6429L44.9142 40.1429L42.0858 37.3145ZM24.1005 41.1576C29.5678 46.6249 38.4321 46.6249 43.8995 41.1576L41.0711 38.3292C37.1658 42.2344 30.8342 42.2344 26.9289 38.3292L24.1005 41.1576ZM50.9289 38.3292L48.4142 35.8145L45.5858 38.6429L48.1005 41.1576L50.9289 38.3292ZM48.1005 41.1576C50.8338 43.8909 54.4202 45.2581 58 45.2581V41.2581C55.4377 41.2581 52.8819 40.2822 50.9289 38.3292L48.1005 41.1576ZM46.4142 38.6429C46.1854 38.8716 45.8145 38.8716 45.5858 38.6429L48.4142 35.8145C47.0809 34.4811 44.9191 34.4811 43.5858 35.8145L46.4142 38.6429ZM22.4142 38.6429C22.1854 38.8716 21.8145 38.8716 21.5858 38.6429L24.4142 35.8145C23.0809 34.4811 20.9191 34.4811 19.5858 35.8145L22.4142 38.6429Z" fill="#2F80ED" />
</svg>