<svg width="80" height="80" viewBox="0 0 80 80" fill="none" xmlns="http://www.w3.org/2000/svg">
  <path fill-rule="evenodd" clip-rule="evenodd" d="M70.2137 34.0872L41.4141 62.8867C40.6331 63.6678 39.3667 63.6678 38.5857 62.8867L9.78613 34.0872C11.317 31.4002 13.206 28.9179 15.4114 26.7125C19.7276 22.3963 25.1039 19.2923 30.9999 17.7125C36.8959 16.1326 43.1039 16.1326 48.9999 17.7125C54.8959 19.2923 60.2722 22.3963 64.5883 26.7125C66.7938 28.9179 68.6828 31.4002 70.2137 34.0872Z" fill="#2F80ED" />
  <path fill-rule="evenodd" clip-rule="evenodd" d="M70.2136 34.0872L41.4141 62.8867C40.6331 63.6678 39.3667 63.6678 38.5857 62.8867L9.78613 34.0872C11.317 31.4002 13.206 28.9179 15.4114 26.7125C19.7276 22.3963 25.1039 19.2923 30.9999 17.7125C36.8959 16.1326 43.1039 16.1326 48.9999 17.7125C54.8959 19.2923 60.2722 22.3963 64.5883 26.7125C66.7938 28.9179 68.6828 31.4002 70.2136 34.0872Z" fill="#2F80ED" />
</svg>