<svg width="80" height="80" viewBox="0 0 80 80" fill="none" xmlns="http://www.w3.org/2000/svg">
  <circle cx="40" cy="60" r="4" fill="#BB6BD9" stroke="#BB6BD9" stroke-width="4" stroke-linecap="round" stroke-linejoin="round" />
  <path d="M30.2821 47.9364L29.0352 46.3727L30.2821 47.9364ZM36.5368 44.9243L36.9818 46.8742H36.9818L36.5368 44.9243ZM25.1862 50.6432C24.5907 51.5734 24.862 52.8103 25.7923 53.4059C26.7225 54.0015 27.9594 53.7301 28.555 52.7999L25.1862 50.6432ZM49.7336 47.9364L48.4866 49.5L49.7336 47.9364ZM51.4593 52.7976C52.055 53.7278 53.292 53.9989 54.2221 53.4031C55.1523 52.8074 55.4234 51.5704 54.8276 50.6403L51.4593 52.7976ZM43.4789 44.9243L43.0339 46.8742L43.4789 44.9243ZM22.9878 36.7895L24.2347 38.3532L24.2347 38.3532L22.9878 36.7895ZM33.9334 31.5184L33.4884 29.5685L33.9334 31.5184ZM16.6729 40.416C16.005 41.2957 16.1767 42.5504 17.0565 43.2183C17.9362 43.8862 19.1909 43.7145 19.8588 42.8347L16.6729 40.416ZM57.0278 36.7895L55.7808 38.3532V38.3532L57.0278 36.7895ZM60.1552 42.8326C60.8232 43.7123 62.0778 43.8839 62.9575 43.2159C63.8372 42.5479 64.0088 41.2932 63.3408 40.4135L60.1552 42.8326ZM46.0821 31.5184L46.5272 29.5685L46.0821 31.5184ZM15.6875 25.6476L14.4406 24.0839L15.6875 25.6476ZM31.3242 18.1174L31.7692 20.0672L31.3242 18.1174ZM8.15231 30.3226C7.45681 31.1807 7.58863 32.4402 8.44674 33.1357C9.30485 33.8312 10.5643 33.6993 11.2598 32.8412L8.15231 30.3226ZM64.3161 25.6476L65.5631 24.0839V24.0839L64.3161 25.6476ZM68.7477 32.8459C69.443 33.7041 70.7025 33.8362 71.5607 33.1408C72.4189 32.4454 72.5509 31.186 71.8556 30.3278L68.7477 32.8459ZM48.6795 18.1174L48.2345 20.0672L48.6795 18.1174ZM31.5291 49.5C33.1264 48.2263 34.9901 47.3288 36.9818 46.8742L36.0918 42.9744C33.5142 43.5628 31.1022 44.7243 29.0352 46.3727L31.5291 49.5ZM28.555 52.7999C29.3568 51.5475 30.3607 50.4318 31.5291 49.5L29.0352 46.3727C27.523 47.5786 26.2239 49.0224 25.1862 50.6432L28.555 52.7999ZM48.4866 49.5C49.6543 50.4313 50.6577 51.5461 51.4593 52.7976L54.8276 50.6403C53.7903 49.0206 52.4918 47.5779 50.9806 46.3727L48.4866 49.5ZM43.0339 46.8742C45.0256 47.3288 46.8894 48.2263 48.4866 49.5L50.9806 46.3727C48.9135 44.7243 46.5016 43.5628 43.924 42.9744L43.0339 46.8742ZM43.924 42.9744C41.3464 42.3861 38.6693 42.3861 36.0917 42.9744L36.9818 46.8742C38.9736 46.4196 41.0421 46.4196 43.0339 46.8742L43.924 42.9744ZM24.2347 38.3532C27.2061 35.9836 30.6732 34.314 34.3785 33.4683L33.4884 29.5685C29.1973 30.548 25.182 32.4816 21.7408 35.2259L24.2347 38.3532ZM19.8588 42.8347C21.1223 41.1705 22.591 39.6641 24.2347 38.3532L21.7408 35.2259C19.8371 36.744 18.1362 38.4887 16.6729 40.416L19.8588 42.8347ZM55.7808 38.3532C57.4239 39.6635 58.8921 41.1693 60.1552 42.8326L63.3408 40.4135C61.878 38.4872 60.1777 36.7434 58.2748 35.2259L55.7808 38.3532ZM45.6371 33.4683C49.3424 34.314 52.8094 35.9836 55.7808 38.3532L58.2748 35.2259C54.8336 32.4816 50.8183 30.548 46.5272 29.5685L45.6371 33.4683ZM46.5272 29.5685C42.2361 28.5891 37.7795 28.5891 33.4884 29.5685L34.3785 33.4683C38.0837 32.6226 41.9319 32.6226 45.6371 33.4683L46.5272 29.5685ZM16.9345 27.2113C21.28 23.7458 26.3505 21.304 31.7692 20.0672L30.8791 16.1675C24.8745 17.538 19.2559 20.2438 14.4406 24.0839L16.9345 27.2113ZM11.2598 32.8412C12.9372 30.7716 14.8386 28.8827 16.9345 27.2113L14.4406 24.0839C12.118 25.9361 10.0111 28.0292 8.15231 30.3226L11.2598 32.8412ZM63.0692 27.2113C65.1667 28.884 67.0693 30.7745 68.7477 32.8459L71.8556 30.3278C69.9958 28.0324 67.8874 25.9375 65.5631 24.0839L63.0692 27.2113ZM48.2345 20.0672C53.6532 21.304 58.7237 23.7458 63.0692 27.2113L65.5631 24.0839C60.7478 20.2438 55.1292 17.538 49.1246 16.1675L48.2345 20.0672ZM49.1246 16.1675C43.12 14.797 36.8837 14.797 30.8791 16.1675L31.7692 20.0672C37.1879 18.8304 42.8157 18.8305 48.2345 20.0672L49.1246 16.1675Z" fill="#9B51E0" />
</svg>