<svg viewBox="0 0 80 80" fill="none">
  <circle cx="40.0039" cy="60" r="4" fill="#BB6BD9" stroke="#BB6BD9" stroke-width="4" stroke-linecap="round" stroke-linejoin="round" />
  <path d="M30.286 47.9364L31.533 49.5H31.533L30.286 47.9364ZM36.5407 44.9243L36.9857 46.8742L36.5407 44.9243ZM25.1901 50.6432C24.5946 51.5734 24.8659 52.8103 25.7962 53.4059C26.7264 54.0015 27.9633 53.7301 28.5589 52.7999L25.1901 50.6432ZM49.7375 47.9364L48.4905 49.5V49.5L49.7375 47.9364ZM51.4632 52.7976C52.0589 53.7278 53.2959 53.9989 54.226 53.4031C55.1562 52.8074 55.4273 51.5704 54.8315 50.6403L51.4632 52.7976ZM43.4828 44.9243L43.9279 42.9744L43.4828 44.9243ZM31.533 49.5C33.1303 48.2263 34.994 47.3288 36.9857 46.8742L36.0956 42.9744C33.518 43.5628 31.1061 44.7243 29.0391 46.3727L31.533 49.5ZM28.5589 52.7999C29.3607 51.5475 30.3646 50.4318 31.533 49.5L29.0391 46.3727C27.5269 47.5786 26.2278 49.0224 25.1901 50.6432L28.5589 52.7999ZM48.4905 49.5C49.6582 50.4313 50.6616 51.5461 51.4632 52.7976L54.8315 50.6403C53.7942 49.0207 52.4957 47.5779 50.9845 46.3727L48.4905 49.5ZM43.0378 46.8742C45.0295 47.3288 46.8932 48.2263 48.4905 49.5L50.9845 46.3727C48.9174 44.7243 46.5055 43.5628 43.9279 42.9744L43.0378 46.8742ZM43.9279 42.9744C41.3503 42.3861 38.6732 42.3861 36.0956 42.9744L36.9857 46.8742C38.9775 46.4196 41.046 46.4196 43.0378 46.8742L43.9279 42.9744Z" fill="#9B51E0" />
</svg>