<svg viewBox="0 0 80 80" fill="none">
  <path fill-rule="evenodd" clip-rule="evenodd" d="M70.2136 34.0872L41.4141 62.8867C40.6331 63.6678 39.3667 63.6678 38.5857 62.8867L9.78613 34.0872C11.317 31.4002 13.206 28.9179 15.4114 26.7125C19.7276 22.3963 25.1039 19.2923 30.9999 17.7125C36.8959 16.1326 43.1039 16.1326 48.9999 17.7125C54.8959 19.2923 60.2722 22.3963 64.5883 26.7125C66.7938 28.9179 68.6828 31.4002 70.2136 34.0872Z" fill="#56CCF2" />
  <path fill-rule="evenodd" clip-rule="evenodd" d="M50.0872 54.2135L41.414 62.8867C40.633 63.6678 39.3666 63.6678 38.5856 62.8867L29.6335 53.9347C30.1577 52.9833 30.8152 52.1061 31.5899 51.3315C33.0286 49.8928 34.8207 48.8581 36.786 48.3315C38.7514 47.8049 40.8207 47.8049 42.786 48.3315C44.7514 48.8581 46.5435 49.8928 47.9822 51.3315C48.832 52.1813 49.5408 53.1543 50.0872 54.2135Z" fill="#2F80ED" />
</svg>