<svg width="80" height="80" viewBox="0 0 80 80" fill="none" xmlns="http://www.w3.org/2000/svg">
  <path d="M23.8824 45H18" stroke="#2F80ED" stroke-width="4" stroke-linecap="round" stroke-linejoin="round" />
  <path d="M38 33L23 33" stroke="#2F80ED" stroke-width="4" stroke-linecap="round" stroke-linejoin="round" />
  <path d="M43 39L14 39" stroke="#56CCF2" stroke-width="4" stroke-linecap="round" stroke-linejoin="round" />
  <path d="M23.4121 45H27.5117H30.4121C34.2781 45 37.4121 48.134 37.4121 52V52C37.4121 55.866 34.2781 59 30.4121 59H30.1846C26.4442 59 23.4121 55.9679 23.4121 52.2275V52.2275V52V51.99" stroke="#2F80ED" stroke-width="4" stroke-linecap="round" stroke-linejoin="round" />
  <path d="M37.4102 33H41.5098H44.4102C48.2761 33 51.4102 29.866 51.4102 26V26C51.4102 22.134 48.2761 19 44.4102 19H44.1826C40.4423 19 37.4102 22.0321 37.4102 25.7725V25.7725V26V26.01" stroke="#2F80ED" stroke-width="4" stroke-linecap="round" stroke-linejoin="round" />
  <path d="M42.8159 39H49.2582H53.8159C59.8911 39 64.8159 43.9249 64.8159 50V50C64.8159 56.0751 59.8911 61 53.8159 61H53.4584C47.5807 61 42.8159 56.2352 42.8159 50.3576V50.3576V50V49.9843" stroke="#56CCF2" stroke-width="4" stroke-linecap="round" stroke-linejoin="round" />
</svg>