<svg width="80" height="80" viewBox="0 0 80 80" fill="none" xmlns="http://www.w3.org/2000/svg">
  <path fill-rule="evenodd" clip-rule="evenodd" d="M40 12C32.5744 12 25.4523 14.9504 20.2016 20.2011C14.9505 25.4521 12 32.5748 12 40.0009C12 47.4266 14.9499 54.5485 20.2007 59.7993C25.4502 65.0488 32.5708 67.9986 39.9946 68C36.2837 67.9986 32.7243 66.5238 30.1003 63.8997C27.4749 61.2744 26 57.7135 26 54.0007C26 50.2876 27.4754 46.7261 30.1009 44.1006C32.725 41.4765 36.284 40.0014 39.9948 40L40 40C43.7128 40 47.2744 38.5251 49.8997 35.8997C52.5251 33.2744 54 29.7135 54 26.0007C54 22.2876 52.5246 18.7261 49.8991 16.1006C47.2738 13.4753 43.7127 12 40 12ZM39.8696 22C37.6605 22 35.8696 23.7909 35.8696 26C35.8696 28.2091 37.6605 30 39.8696 30C42.0788 30 43.8696 28.2091 43.8696 26C43.8696 23.7909 42.0788 22 39.8696 22Z" fill="#F2F2F2" />
  <path fill-rule="evenodd" clip-rule="evenodd" d="M40 68C47.4256 68 54.5477 65.0496 59.7984 59.7989C65.0495 54.5479 68 47.4252 68 39.9991C68 32.5734 65.0501 25.4515 59.7993 20.2007C54.5498 14.9512 47.4292 12.0014 40.0054 12C43.7163 12.0014 47.2757 13.4762 49.8997 16.1003C52.5251 18.7256 54 22.2865 54 25.9993C54 29.7124 52.5246 33.2739 49.8991 35.8994C47.275 38.5235 43.716 39.9986 40.0052 40L40 40C36.2872 40 32.7256 41.4749 30.1003 44.1003C27.4749 46.7256 26 50.2865 26 53.9993C26 57.7124 27.4754 61.2739 30.1009 63.8994C32.7262 66.5247 36.2873 68 40 68ZM40.1304 58C42.3395 58 44.1304 56.2091 44.1304 54C44.1304 51.7909 42.3395 50 40.1304 50C37.9212 50 36.1304 51.7909 36.1304 54C36.1304 56.2091 37.9212 58 40.1304 58Z" fill="#EB5757" />
  <rect x="36" y="22" width="8" height="8" rx="4" fill="#EB5757" />
  <rect x="36" y="50" width="8" height="8" rx="4" fill="#F2F2F2" />
</svg>