<svg viewBox="0 0 80 80" fill="none">
  <path fill-rule="evenodd" clip-rule="evenodd" d="M62.1887 14.2766C59.3869 13.1161 56.2389 13.1161 53.4372 14.2766C52.1954 14.791 51.0667 15.5147 50.0937 16.4051L52.4166 17.3673C58.6649 19.9554 63.6291 24.9195 66.2171 31.1678L66.618 32.1355C67.3404 31.2636 67.9356 30.2815 68.3769 29.2163C69.5374 26.4146 69.5374 23.2666 68.3769 20.4648C67.2164 17.6631 64.9904 15.4371 62.1887 14.2766ZM52.2892 11.505C55.826 10.04 59.7999 10.04 63.3367 11.505C66.8735 12.97 69.6835 15.78 71.1485 19.3168C72.6135 22.8536 72.6135 26.8275 71.1485 30.3643C70.2755 32.4719 68.9249 34.3214 67.2277 35.7819C66.3535 36.5341 65.0435 36.1736 64.6237 35.1602L63.4455 32.3158C61.1619 26.8027 56.7817 22.4225 51.2686 20.1389L48.4242 18.9607C46.9338 18.3434 46.037 16.2431 47.4737 14.7683C48.8279 13.3783 50.4615 12.262 52.2892 11.505ZM16.6635 11.5052C20.2003 10.0402 24.1742 10.0402 27.711 11.5052C29.3855 12.1988 30.8972 13.194 32.1803 14.4249C32.9465 15.1601 33.1367 16.1678 32.9055 17.035C32.681 17.8765 32.0642 18.6042 31.2034 18.9607L28.359 20.1389C22.8459 22.4225 18.4657 26.8027 16.1821 32.3158L16.0921 32.5333C15.6377 33.6302 14.6896 34.3769 13.6213 34.5838C12.5216 34.7969 11.3144 34.4241 10.5415 33.3688C9.86569 32.4459 9.29661 31.4387 8.85168 30.3645C7.38668 26.8277 7.38668 22.8538 8.85168 19.317C10.3167 15.7801 13.1267 12.9702 16.6635 11.5052ZM26.563 14.2768C23.7612 13.1163 20.6133 13.1163 17.8115 14.2768C15.0098 15.4373 12.7838 17.6633 11.6233 20.465C10.4628 23.2667 10.4628 26.4147 11.6233 29.2164C11.9758 30.0675 12.4266 30.8653 12.9619 31.5963C12.9807 31.622 12.994 31.6329 12.9984 31.6363C13.001 31.6382 13.0031 31.6394 13.0031 31.6394L13.0041 31.6399C13.0041 31.6399 13.0069 31.641 13.0138 31.6415C13.021 31.642 13.0334 31.6419 13.0508 31.6386C13.1259 31.624 13.2498 31.5556 13.3204 31.3852L13.4105 31.1678C15.9986 24.9195 20.9628 19.9554 27.211 17.3673L29.7891 16.2994C28.8431 15.4574 27.7552 14.7706 26.563 14.2768Z" fill="currentColor" />
  <path d="M17.8115 14.2768C20.6133 13.1163 23.7612 13.1163 26.563 14.2768C27.7552 14.7706 28.8431 15.4574 29.7891 16.2994L27.211 17.3673C20.9628 19.9554 15.9986 24.9195 13.4105 31.1678L13.3204 31.3852C13.2498 31.5556 13.1259 31.624 13.0508 31.6386C13.0334 31.6419 13.021 31.642 13.0138 31.6415C13.0069 31.641 13.0041 31.6399 13.0041 31.6399L13.0031 31.6394C13.0031 31.6394 13.001 31.6382 12.9984 31.6363C12.994 31.6329 12.9807 31.622 12.9619 31.5963C12.4266 30.8653 11.9758 30.0675 11.6233 29.2164C10.4628 26.4147 10.4628 23.2667 11.6233 20.465C12.7838 17.6633 15.0098 15.4373 17.8115 14.2768Z" fill="currentColor" />
  <path d="M53.4372 14.2766C56.2389 13.1161 59.3869 13.1161 62.1887 14.2766C64.9904 15.4371 67.2164 17.6631 68.3769 20.4648C69.5374 23.2666 69.5374 26.4146 68.3769 29.2163C67.9356 30.2815 67.3404 31.2636 66.618 32.1355L66.2171 31.1678C63.6291 24.9195 58.6649 19.9554 52.4166 17.3673L50.0937 16.4051C51.0667 15.5147 52.1954 14.791 53.4372 14.2766Z" fill="currentColor" />
  <path d="M22.7058 57.8751L14.4012 66.18C13.6202 66.9611 13.6202 68.2274 14.4012 69.0085C15.1823 69.7895 16.4486 69.7895 17.2297 69.0084L25.5181 60.7197C24.4971 59.8583 23.5557 58.9062 22.7058 57.8751Z" fill="currentColor" />
  <path d="M54.1132 60.7196L62.4012 69.0075C63.1823 69.7886 64.4486 69.7886 65.2296 69.0075C66.0107 68.2265 66.0107 66.9602 65.2296 66.1791L56.9255 57.875C56.0756 58.906 55.1343 59.8582 54.1132 60.7196Z" fill="currentColor" />
  <path d="M39.8154 42.2719C38.987 42.2719 38.3154 42.9434 38.3154 43.7719C38.3154 44.6003 38.987 45.2719 39.8154 45.2719C40.6439 45.2719 41.3154 44.6003 41.3154 43.7719C41.3154 42.9434 40.6439 42.2719 39.8154 42.2719Z" fill="currentColor" />
  <path fill-rule="evenodd" clip-rule="evenodd" d="M48.3 23.2865C42.867 21.036 36.7625 21.036 31.3294 23.2865C25.8964 25.5369 21.5799 29.8534 19.3294 35.2865C17.079 40.7195 17.079 46.824 19.3294 52.257C21.5799 57.6901 25.8964 62.0066 31.3294 64.257C36.7625 66.5075 42.867 66.5075 48.3 64.257C53.733 62.0066 58.0496 57.6901 60.3 52.257C62.5504 46.824 62.5504 40.7195 60.3 35.2865C58.0496 29.8534 53.733 25.5369 48.3 23.2865ZM47.6118 33.6054C48.2692 34.1094 48.3936 35.051 47.8895 35.7085L43.5885 41.3186C44.0483 42.0243 44.3154 42.8669 44.3154 43.7719C44.3154 44.0481 44.2905 44.3185 44.2429 44.581L53.826 50.06C53.9398 50.0936 54.0501 50.1409 54.1545 50.2015L55.884 51.2061C56.5962 51.6198 56.8416 52.5305 56.4337 53.2461L56.4081 53.2908C56.2101 53.6359 55.8831 53.8883 55.4991 53.9923C55.1151 54.0963 54.7054 54.0435 54.3604 53.8454L52.6257 52.85C52.5581 52.8112 52.4947 52.7679 52.4355 52.7208L42.7502 47.1833C41.9623 47.8617 40.9368 48.2719 39.8154 48.2719C37.3301 48.2719 35.3154 46.2572 35.3154 43.7719C35.3154 41.2866 37.3301 39.2719 39.8154 39.2719C40.3018 39.2719 40.7701 39.349 41.2089 39.4918L45.5087 33.8832C46.0127 33.2257 46.9543 33.1014 47.6118 33.6054ZM41.1424 26.1388C41.1413 25.7391 40.9808 25.3564 40.6964 25.0755C40.4121 24.7947 40.0274 24.6389 39.6277 24.6428L39.5734 24.6434C38.754 24.6538 38.0945 25.3199 38.0924 26.1394L38.0871 28.1396C38.0861 28.5419 38.2467 28.9278 38.5328 29.2105C38.819 29.4933 39.2067 29.6493 39.609 29.6434L39.6636 29.6427C40.4873 29.6339 41.1497 28.9626 41.1476 28.1389L41.1424 26.1388ZM49.1016 27.0473C48.3872 26.6506 47.4868 26.8987 47.0764 27.6053L46.0716 29.3351C45.869 29.684 45.8154 30.0999 45.9231 30.4887C46.0307 30.8776 46.2905 31.2067 46.6438 31.4017L46.6911 31.4279C47.4083 31.8274 48.3134 31.5762 48.722 30.8641L49.7176 29.1293C49.917 28.7817 49.9691 28.3688 49.8622 27.9825C49.7553 27.5963 49.4982 27.2689 49.1484 27.0734L49.1016 27.0473ZM32.2563 27.7739C32.0565 27.4299 31.7282 27.1793 31.3436 27.0774C30.9591 26.9754 30.5498 27.0304 30.2058 27.2302L30.1585 27.2578C29.4475 27.6735 29.2047 28.5849 29.6147 29.2993L30.6102 31.034C30.8094 31.3811 31.139 31.6342 31.5258 31.737C31.9126 31.8399 32.3244 31.7839 32.6696 31.5815L32.7172 31.5538C33.4335 31.1377 33.6769 30.2197 33.2608 29.5033L32.2563 27.7739ZM56.2198 33.9317C55.7994 33.2309 54.8956 32.9955 54.1868 33.4022L52.4518 34.3979C52.1018 34.5988 51.8476 34.9321 51.7464 35.3227C51.6452 35.7133 51.7056 36.1282 51.914 36.4737L51.9414 36.5194C52.3628 37.224 53.2723 37.459 53.9822 37.0466L55.7118 36.042C56.0583 35.8408 56.3099 35.5092 56.4104 35.1212C56.511 34.7333 56.4521 34.3213 56.2469 33.977L56.2198 33.9317ZM25.3425 33.5713C24.6281 33.1613 23.7168 33.4041 23.301 34.1151L23.2735 34.1624C23.0736 34.5064 23.0186 34.9157 23.1206 35.3002C23.2225 35.6848 23.4731 36.0131 23.8171 36.2129L25.5465 37.2174C26.2629 37.6335 27.1808 37.3901 27.5969 36.6738L27.6247 36.6263C27.827 36.2811 27.8831 35.8692 27.7802 35.4825C27.6774 35.0957 27.4243 34.766 27.0772 34.5668L25.3425 33.5713ZM25.6864 43.5657C25.6922 43.1634 25.5363 42.7757 25.2535 42.4895C24.9708 42.2034 24.5849 42.0428 24.1826 42.0438L22.1824 42.049C21.3629 42.0512 20.6967 42.7106 20.6864 43.5301L20.6858 43.5844C20.6819 43.984 20.8376 44.3687 21.1185 44.6531C21.3994 44.9375 21.7821 45.098 22.1818 45.099L24.1819 45.1043C25.0055 45.1064 25.6769 44.444 25.6857 43.6203L25.6864 43.5657ZM55.4468 42.0448C55.0445 42.0438 54.6587 42.2044 54.3759 42.4905C54.0932 42.7766 53.9372 43.1644 53.9431 43.5666L53.9437 43.6194C53.9526 44.443 54.6239 45.1054 55.4476 45.1032L57.4476 45.098C57.8473 45.097 58.23 44.9365 58.5109 44.6521C58.7918 44.3677 58.9475 43.983 58.9436 43.5833L58.943 43.5311C58.9327 42.7117 58.2666 42.0522 57.4471 42.0501L55.4468 42.0448ZM27.4446 50.6007C27.2496 50.2475 26.9205 49.9877 26.5317 49.88C26.1428 49.7723 25.7269 49.8259 25.378 50.0285L23.6482 51.0333C22.9417 51.4437 22.6936 52.3441 23.0902 53.0585L23.1163 53.1053C23.3118 53.4551 23.6392 53.7122 24.0254 53.8191C24.4117 53.926 24.8246 53.874 25.1722 53.6745L26.907 52.6789C27.6191 52.2703 27.8704 51.3652 27.4709 50.648L27.4446 50.6007ZM32.5167 55.871C32.1712 55.6627 31.7563 55.6022 31.3657 55.7035C30.9752 55.8047 30.6418 56.059 30.441 56.4089L29.4453 58.1439C29.0386 58.8526 29.274 59.7565 29.9747 60.1768L30.0201 60.204C30.3643 60.4092 30.7764 60.468 31.1643 60.3675C31.5522 60.267 31.8838 60.0154 32.0851 59.6689L33.0897 57.9393C33.5021 57.2294 33.2671 56.3199 32.5625 55.8985L32.5167 55.871ZM48.8933 56.5825C48.481 55.8641 47.5644 55.6158 46.8459 56.028L46.8004 56.054C46.4526 56.2518 46.1982 56.5805 46.0938 56.9668C45.9895 57.3532 46.0439 57.7652 46.2449 58.1113L47.2494 59.8408C47.6632 60.5531 48.5739 60.7985 49.2895 60.3904L49.3342 60.3649C49.6793 60.1669 49.9316 59.8399 50.0356 59.4559C50.1397 59.0719 50.0868 58.6622 49.8888 58.3172L48.8933 56.5825ZM39.6099 57.9001C39.2077 57.8943 38.82 58.0502 38.5338 58.333C38.2477 58.6157 38.0871 59.0016 38.0882 59.4039L38.0934 61.4041C38.0955 62.2236 38.755 62.8897 39.5744 62.9001L39.6267 62.9007C40.0263 62.9046 40.411 62.7488 40.6954 62.4679C40.9798 62.1871 41.1403 61.8043 41.1413 61.4046L41.1465 59.4046C41.1487 58.5809 40.4863 57.9096 39.6627 57.9008L39.6099 57.9001Z" fill="currentColor" />
</svg>