<svg viewBox="0 0 80 80" fill="none">
  <path d="M55.2689 59.5824L30.0183 34.3317C28.5096 32.8231 27.6648 30.7663 27.6708 28.6328V28.6328C27.6832 24.2203 31.2722 20.6331 35.6847 20.6492V20.6492C37.7923 20.6568 39.8114 21.4975 41.3018 22.9878L41.9517 23.6378L42.2758 23.9619" stroke="currentColor" stroke-width="6" stroke-linecap="round" stroke-linejoin="round" />
  <path d="M32.5546 57.8285L34.0546 55.2305L32.5546 57.8285ZM27.1128 31.2767C28.2761 30.0969 30.1755 30.0835 31.3553 31.2467C32.5351 32.41 32.5485 34.3095 31.3853 35.4893L27.1128 31.2767ZM51.3738 38.2524C50.574 36.8014 51.102 34.9767 52.5531 34.1769C54.0041 33.3772 55.8288 33.9052 56.6285 35.3562L51.3738 38.2524ZM48.1431 57.8285L49.6431 60.4266V60.4266L48.1431 57.8285ZM27.7604 44.3285C27.7604 48.826 30.1597 52.9817 34.0546 55.2305L31.0546 60.4266C25.3033 57.1061 21.7604 50.9695 21.7604 44.3285H27.7604ZM21.7604 44.3285C21.7604 39.378 23.7292 34.7084 27.1128 31.2767L31.3853 35.4893C29.0929 37.8142 27.7604 40.9768 27.7604 44.3285H21.7604ZM52.9373 44.3285C52.9373 42.166 52.3829 40.0832 51.3738 38.2524L56.6285 35.3562C58.118 38.0587 58.9373 41.1357 58.9373 44.3285H52.9373ZM46.6431 55.2305C50.5379 52.9817 52.9373 48.826 52.9373 44.3285H58.9373C58.9373 50.9696 55.3943 57.1061 49.6431 60.4266L46.6431 55.2305ZM49.6431 60.4266C43.8918 63.7471 36.8059 63.7471 31.0546 60.4266L34.0546 55.2305C37.9495 57.4792 42.7482 57.4792 46.6431 55.2305L49.6431 60.4266Z" fill="currentColor" />
</svg>