<svg viewBox="0 0 80 80" fill="none">
  <path d="M42.7324 27C42.7324 28.6569 41.3893 30 39.7324 30C38.0756 30 36.7324 28.6569 36.7324 27H42.7324ZM36.7324 12C36.7324 10.3431 38.0756 9 39.7324 9C41.3893 9 42.7324 10.3431 42.7324 12L36.7324 12ZM36.7324 27L36.7324 12L42.7324 12L42.7324 27H36.7324Z" fill="currentColor" />
  <path d="M45.5504 27L33.9144 27C32.7402 27 32.1521 28.4197 32.9824 29.25L38.3182 34.5858C39.0993 35.3668 40.3656 35.3668 41.1466 34.5858L46.4824 29.25C47.3127 28.4197 46.7247 27 45.5504 27Z" fill="currentColor" stroke="currentColor" stroke-width="3" stroke-linecap="round" stroke-linejoin="round" />
  <path d="M42.7324 53C42.7324 51.3431 41.3893 50 39.7324 50C38.0756 50 36.7324 51.3431 36.7324 53H42.7324ZM36.7324 68C36.7324 69.6569 38.0756 71 39.7324 71C41.3893 71 42.7324 69.6569 42.7324 68H36.7324ZM36.7324 53L36.7324 68H42.7324L42.7324 53H36.7324Z" fill="currentColor" />
  <path d="M45.5504 53L33.9144 53C32.7402 53 32.1521 51.5803 32.9824 50.75L38.3182 45.4142C39.0993 44.6332 40.3656 44.6332 41.1466 45.4142L46.4824 50.75C47.3127 51.5803 46.7247 53 45.5504 53Z" fill="currentColor" stroke="currentColor" stroke-width="3" stroke-linecap="round" stroke-linejoin="round" />
</svg>