<svg viewBox="0 0 80 80" fill="none">
  <path fill-rule="evenodd" clip-rule="evenodd" d="M27.4907 14.0241C35.3958 10.2172 44.6042 10.2172 52.5093 14.0241C60.4144 17.831 66.1557 25.0304 68.1081 33.5844C70.0605 42.1384 68.0114 51.116 62.541 57.9758C62.3691 58.1913 62.1945 58.404 62.0171 58.6138C60.8168 57.8368 59.1962 58.0099 58.1903 59.0942C57.2629 60.0938 57.1469 61.5564 57.8119 62.671C52.7819 66.6227 46.5229 68.831 40 68.831C33.477 68.831 27.2179 66.6227 22.1878 62.6708C22.8527 61.5562 22.7366 60.0938 21.8093 59.0942C20.8034 58.01 19.183 57.8369 17.9827 58.6137C17.8054 58.4039 17.6308 58.1912 17.459 57.9758C11.9885 51.116 9.93942 42.1384 11.8918 33.5844C12.9308 29.0325 15.0427 24.8641 17.9827 21.3864C19.1829 22.1632 20.8034 21.9901 21.8093 20.9059C22.7367 19.9063 22.8527 18.4438 22.1877 17.3292C23.8153 16.0503 25.5905 14.9392 27.4907 14.0241ZM22.37 52.9156C21.5416 54.3506 22.0333 56.1853 23.4682 57.0137C24.9031 57.842 26.7379 57.3503 27.5663 55.9154C28.3601 54.5402 29.0501 53.1075 29.6303 51.6294C30.2357 50.0871 29.4762 48.346 27.9339 47.7407C26.3916 47.1353 24.6506 47.8948 24.0452 49.4371C23.5743 50.6367 23.0143 51.7996 22.37 52.9156ZM27.5663 24.0847C26.7379 22.6497 24.9031 22.158 23.4682 22.9864C22.0333 23.8148 21.5416 25.6495 22.37 27.0844C23.0143 28.2005 23.5743 29.3634 24.0452 30.563C24.6506 32.1053 26.3916 32.8648 27.9339 32.2594C29.4762 31.654 30.2357 29.913 29.6303 28.3707C29.0501 26.8926 28.3601 25.4598 27.5663 24.0847ZM25.7585 41.9309C25.6348 43.5831 26.8739 45.0228 28.5262 45.1465C30.1784 45.2702 31.6181 44.0311 31.7418 42.3788C31.8008 41.5904 31.8307 40.7969 31.8307 40C31.8307 39.2031 31.8008 38.4097 31.7418 37.6212C31.6181 35.969 30.1784 34.7299 28.5262 34.8536C26.874 34.9773 25.6348 36.417 25.7585 38.0692C25.8064 38.709 25.8307 39.353 25.8307 40C25.8307 40.647 25.8064 41.291 25.7585 41.9309ZM58.1903 20.9059C57.2629 19.9063 57.1469 18.4437 57.812 17.3291C59.3522 18.5393 60.7603 19.8997 62.0171 21.3863C60.8168 22.1632 59.1962 21.9902 58.1903 20.9059ZM56.5314 22.9864C57.9663 23.8148 58.458 25.6495 57.6296 27.0844C56.9853 28.2005 56.4253 29.3634 55.9544 30.563C55.349 32.1053 53.608 32.8648 52.0657 32.2594C50.5234 31.654 49.7639 29.913 50.3693 28.3707C50.9495 26.8926 51.6395 25.4598 52.4333 24.0846C53.2617 22.6497 55.0964 22.158 56.5314 22.9864ZM56.5314 57.0137C55.0964 57.842 53.2617 57.3503 52.4333 55.9154C51.6395 54.5402 50.9495 53.1075 50.3693 51.6294C49.7639 50.0871 50.5234 48.346 52.0657 47.7407C53.608 47.1353 55.349 47.8948 55.9544 49.4371C56.4253 50.6367 56.9853 51.7996 57.6296 52.9156C58.458 54.3506 57.9663 56.1853 56.5314 57.0137ZM51.4734 34.8536C53.1256 34.9773 54.3648 36.417 54.2411 38.0692C54.1932 38.709 54.1689 39.353 54.1689 40C54.1689 40.647 54.1932 41.291 54.2411 41.9309C54.3648 43.5831 53.1256 45.0228 51.4734 45.1465C49.8212 45.2702 48.3815 44.0311 48.2578 42.3788C48.1988 41.5903 48.1689 40.7969 48.1689 40C48.1689 39.2031 48.1988 38.4097 48.2578 37.6212C48.3815 35.969 49.8212 34.7299 51.4734 34.8536Z" fill="currentColor" />
</svg>