<svg viewBox="0 0 80 80" fill="none">
  <path fill-rule="evenodd" clip-rule="evenodd" d="M43.9422 16.5121C43.2609 14.9419 41.7125 13.9258 40.0008 13.9258C38.2891 13.9258 36.7407 14.9419 36.0595 16.5121L34.6054 19.8638L31.6703 17.6882C30.2952 16.6689 28.4462 16.5632 26.9638 17.419C25.4814 18.2749 24.6485 19.929 24.8437 21.6296L25.2602 25.2592L21.6306 24.8427C19.93 24.6475 18.2759 25.4804 17.42 26.9628C16.5642 28.4452 16.6699 30.2942 17.6892 31.6693L19.8648 34.6044L16.5131 36.0585C14.9428 36.7398 13.9268 38.2882 13.9268 39.9999C13.9268 41.7116 14.9428 43.26 16.5131 43.9412L19.8648 45.3953L17.6892 48.3304C16.6699 49.7055 16.5642 51.5545 17.42 53.0369C18.2759 54.5193 19.93 55.3522 21.6306 55.157L25.2602 54.7405L24.8437 58.3701C24.6485 60.0707 25.4814 61.7248 26.9638 62.5807C28.4462 63.4365 30.2952 63.3308 31.6703 62.3115L34.6054 60.1359L36.0595 63.4876C36.7407 65.0579 38.2891 66.0739 40.0008 66.0739C41.7125 66.0739 43.2609 65.0579 43.9422 63.4876L45.3963 60.1359L48.3314 62.3115C49.7065 63.3308 51.5555 63.4365 53.0379 62.5807C54.5202 61.7248 55.3532 60.0707 55.158 58.3701L54.7415 54.7405L58.3711 55.157C60.0716 55.3522 61.7258 54.5193 62.5816 53.0369C63.4375 51.5545 63.3317 49.7055 62.3125 48.3304L60.1369 45.3953L63.4885 43.9412C65.0588 43.26 66.0749 41.7116 66.0749 39.9999C66.0749 38.2882 65.0588 36.7398 63.4885 36.0585L60.1369 34.6044L62.3125 31.6693C63.3317 30.2942 63.4375 28.4452 62.5816 26.9628C61.7258 25.4804 60.0716 24.6475 58.3711 24.8427L54.7415 25.2592L55.158 21.6296C55.3532 19.929 54.5202 18.2749 53.0379 17.419C51.5555 16.5632 49.7065 16.6689 48.3314 17.6882L45.3963 19.8638L43.9422 16.5121Z" fill="currentColor" />
  <path d="M43.9422 16.5121L41.6487 17.5072V17.5072L43.9422 16.5121ZM36.0595 16.5121L33.766 15.5171V15.5171L36.0595 16.5121ZM34.6054 19.8638L33.1167 21.8722L35.6459 23.7469L36.8989 20.8588L34.6054 19.8638ZM31.6703 17.6882L33.159 15.6798L31.6703 17.6882ZM26.9638 17.419L28.2138 19.5841V19.5841L26.9638 17.419ZM24.8437 21.6296L27.3274 21.3445V21.3445L24.8437 21.6296ZM25.2602 25.2592L24.9752 27.7429L28.1028 28.1019L27.7439 24.9742L25.2602 25.2592ZM21.6306 24.8427L21.9156 22.359H21.9156L21.6306 24.8427ZM17.42 26.9628L15.255 25.7128L15.255 25.7128L17.42 26.9628ZM17.6892 31.6693L15.6808 33.158H15.6808L17.6892 31.6693ZM19.8648 34.6044L20.8598 36.8979L23.7479 35.6449L21.8732 33.1157L19.8648 34.6044ZM16.5131 36.0585L17.5081 38.352H17.5081L16.5131 36.0585ZM16.5131 43.9412L15.5181 46.2347H15.5181L16.5131 43.9412ZM19.8648 45.3953L21.8732 46.884L23.7479 44.3548L20.8598 43.1018L19.8648 45.3953ZM17.6892 48.3304L15.6808 46.8417H15.6808L17.6892 48.3304ZM21.6306 55.157L21.3455 52.6733L21.3455 52.6733L21.6306 55.157ZM25.2602 54.7405L27.7439 55.0255L28.1028 51.8978L24.9752 52.2568L25.2602 54.7405ZM24.8437 58.3701L27.3274 58.6552L24.8437 58.3701ZM26.9638 62.5807L25.7138 64.7457L25.7138 64.7457L26.9638 62.5807ZM31.6703 62.3115L30.1816 60.3031L31.6703 62.3115ZM34.6054 60.1359L36.8989 59.1409L35.6459 56.2528L33.1167 58.1275L34.6054 60.1359ZM36.0595 63.4876L33.766 64.4826L36.0595 63.4876ZM43.9422 63.4876L41.6487 62.4926V62.4926L43.9422 63.4876ZM45.3963 60.1359L46.885 58.1275L44.3558 56.2528L43.1028 59.1409L45.3963 60.1359ZM48.3314 62.3115L46.8427 64.3199L48.3314 62.3115ZM53.0379 62.5807L54.2879 64.7457L54.2879 64.7457L53.0379 62.5807ZM55.158 58.3701L52.6743 58.6552L52.6743 58.6552L55.158 58.3701ZM54.7415 54.7405L55.0265 52.2568L51.8988 51.8978L52.2578 55.0255L54.7415 54.7405ZM58.3711 55.157L58.6561 52.6733L58.6561 52.6733L58.3711 55.157ZM62.5816 53.0369L64.7467 54.2869L64.7467 54.2869L62.5816 53.0369ZM62.3125 48.3304L64.3209 46.8417L62.3125 48.3304ZM60.1369 45.3953L59.1419 43.1018L56.2538 44.3548L58.1285 46.884L60.1369 45.3953ZM63.4885 43.9412L64.4835 46.2347L63.4885 43.9412ZM63.4885 36.0585L64.4835 33.765L63.4885 36.0585ZM60.1369 34.6044L58.1285 33.1157L56.2538 35.6449L59.1419 36.8979L60.1369 34.6044ZM62.3125 31.6693L64.3209 33.158L62.3125 31.6693ZM62.5816 26.9628L64.7467 25.7128L64.7467 25.7128L62.5816 26.9628ZM58.3711 24.8427L58.0861 22.359L58.3711 24.8427ZM54.7415 25.2592L52.2578 24.9742L51.8988 28.1019L55.0265 27.7429L54.7415 25.2592ZM55.158 21.6296L52.6743 21.3445L52.6743 21.3446L55.158 21.6296ZM53.0379 17.419L54.2879 15.254V15.254L53.0379 17.419ZM48.3314 17.6882L46.8427 15.6798V15.6798L48.3314 17.6882ZM45.3963 19.8638L43.1028 20.8588L44.3558 23.7469L46.885 21.8722L45.3963 19.8638ZM40.0008 16.4258C40.7165 16.4258 41.3639 16.8506 41.6487 17.5072L46.2357 15.5171C45.158 13.0331 42.7086 11.4258 40.0008 11.4258V16.4258ZM38.3529 17.5072C38.6378 16.8506 39.2852 16.4258 40.0008 16.4258V11.4258C37.2931 11.4258 34.8437 13.0331 33.766 15.5171L38.3529 17.5072ZM36.8989 20.8588L38.3529 17.5072L33.766 15.5171L32.3119 18.8688L36.8989 20.8588ZM30.1816 19.6967L33.1167 21.8722L36.0941 17.8554L33.159 15.6798L30.1816 19.6967ZM28.2138 19.5841C28.8336 19.2263 29.6067 19.2705 30.1816 19.6967L33.159 15.6798C30.9837 14.0674 28.0588 13.9001 25.7138 15.254L28.2138 19.5841ZM27.3274 21.3445C27.2458 20.6335 27.594 19.9419 28.2138 19.5841L25.7138 15.254C23.3688 16.6079 22.0512 19.2245 22.36 21.9146L27.3274 21.3445ZM27.7439 24.9742L27.3274 21.3445L22.36 21.9146L22.7765 25.5443L27.7439 24.9742ZM21.3455 27.3264L24.9752 27.7429L25.5452 22.7755L21.9156 22.359L21.3455 27.3264ZM19.5851 28.2128C19.9429 27.593 20.6345 27.2448 21.3455 27.3264L21.9156 22.359C19.2255 22.0503 16.6088 23.3678 15.255 25.7128L19.5851 28.2128ZM19.6976 30.1806C19.2715 29.6057 19.2273 28.8326 19.5851 28.2128L15.255 25.7128C13.9011 28.0578 14.0684 30.9827 15.6808 33.158L19.6976 30.1806ZM21.8732 33.1157L19.6976 30.1806L15.6808 33.158L17.8563 36.0931L21.8732 33.1157ZM17.5081 38.352L20.8598 36.8979L18.8698 32.3109L15.5181 33.765L17.5081 38.352ZM16.4268 39.9999C16.4268 39.2842 16.8516 38.6368 17.5081 38.352L15.5181 33.765C13.0341 34.8427 11.4268 37.2921 11.4268 39.9999H16.4268ZM17.5081 41.6478C16.8516 41.3629 16.4268 40.7155 16.4268 39.9999H11.4268C11.4268 42.7076 13.0341 45.157 15.5181 46.2347L17.5081 41.6478ZM20.8598 43.1018L17.5081 41.6478L15.5181 46.2347L18.8698 47.6888L20.8598 43.1018ZM19.6976 49.8191L21.8732 46.884L17.8563 43.9066L15.6808 46.8417L19.6976 49.8191ZM19.5851 51.7869C19.2273 51.1671 19.2715 50.394 19.6976 49.8191L15.6808 46.8417C14.0684 49.017 13.9011 51.9419 15.255 54.2869L19.5851 51.7869ZM21.3455 52.6733C20.6345 52.7549 19.9429 52.4067 19.5851 51.7869L15.255 54.2869C16.6088 56.6319 19.2255 57.9494 21.9156 57.6407L21.3455 52.6733ZM24.9752 52.2568L21.3455 52.6733L21.9156 57.6407L25.5452 57.2242L24.9752 52.2568ZM27.3274 58.6552L27.7439 55.0255L22.7765 54.4554L22.36 58.0851L27.3274 58.6552ZM28.2138 60.4156C27.594 60.0578 27.2458 59.3662 27.3274 58.6552L22.36 58.0851C22.0512 60.7752 23.3688 63.3919 25.7138 64.7457L28.2138 60.4156ZM30.1816 60.3031C29.6067 60.7292 28.8336 60.7734 28.2138 60.4156L25.7138 64.7457C28.0588 66.0996 30.9837 65.9323 33.159 64.3199L30.1816 60.3031ZM33.1167 58.1275L30.1816 60.3031L33.159 64.3199L36.0941 62.1443L33.1167 58.1275ZM38.3529 62.4926L36.8989 59.1409L32.3119 61.1309L33.766 64.4826L38.3529 62.4926ZM40.0008 63.5739C39.2852 63.5739 38.6378 63.1491 38.3529 62.4926L33.766 64.4826C34.8437 66.9666 37.2931 68.5739 40.0008 68.5739V63.5739ZM41.6487 62.4926C41.3639 63.1491 40.7165 63.5739 40.0008 63.5739V68.5739C42.7086 68.5739 45.158 66.9666 46.2357 64.4826L41.6487 62.4926ZM43.1028 59.1409L41.6487 62.4926L46.2356 64.4826L47.6897 61.1309L43.1028 59.1409ZM49.8201 60.3031L46.885 58.1275L43.9076 62.1443L46.8427 64.3199L49.8201 60.3031ZM51.7879 60.4156C51.1681 60.7734 50.395 60.7292 49.8201 60.3031L46.8427 64.3199C49.018 65.9323 51.9429 66.0996 54.2879 64.7457L51.7879 60.4156ZM52.6743 58.6552C52.7559 59.3662 52.4077 60.0578 51.7879 60.4156L54.2879 64.7457C56.6328 63.3919 57.9504 60.7752 57.6417 58.0851L52.6743 58.6552ZM52.2578 55.0255L52.6743 58.6552L57.6417 58.0851L57.2252 54.4554L52.2578 55.0255ZM58.6561 52.6733L55.0265 52.2568L54.4564 57.2242L58.0861 57.6407L58.6561 52.6733ZM60.4166 51.7869C60.0587 52.4067 59.3671 52.7549 58.6561 52.6733L58.0861 57.6407C60.7761 57.9494 63.3928 56.6319 64.7467 54.2869L60.4166 51.7869ZM60.304 49.8191C60.7302 50.394 60.7744 51.1671 60.4166 51.7869L64.7467 54.2869C66.1006 51.9419 65.9333 49.017 64.3209 46.8417L60.304 49.8191ZM58.1285 46.884L60.304 49.8191L64.3209 46.8417L62.1453 43.9066L58.1285 46.884ZM62.4935 41.6478L59.1419 43.1018L61.1319 47.6888L64.4835 46.2347L62.4935 41.6478ZM63.5749 39.9999C63.5749 40.7155 63.1501 41.3629 62.4935 41.6478L64.4835 46.2347C66.9676 45.157 68.5749 42.7076 68.5749 39.9999H63.5749ZM62.4935 38.352C63.1501 38.6368 63.5749 39.2842 63.5749 39.9999H68.5749C68.5749 37.2921 66.9676 34.8427 64.4835 33.765L62.4935 38.352ZM59.1419 36.8979L62.4935 38.352L64.4835 33.765L61.1319 32.311L59.1419 36.8979ZM60.304 30.1806L58.1285 33.1157L62.1453 36.0931L64.3209 33.158L60.304 30.1806ZM60.4166 28.2128C60.7744 28.8326 60.7302 29.6057 60.304 30.1806L64.3209 33.158C65.9333 30.9827 66.1006 28.0578 64.7467 25.7128L60.4166 28.2128ZM58.6561 27.3264C59.3671 27.2448 60.0587 27.593 60.4166 28.2128L64.7467 25.7128C63.3928 23.3679 60.7761 22.0503 58.0861 22.359L58.6561 27.3264ZM55.0265 27.7429L58.6561 27.3264L58.0861 22.359L54.4564 22.7755L55.0265 27.7429ZM52.6743 21.3446L52.2578 24.9742L57.2252 25.5443L57.6417 21.9146L52.6743 21.3446ZM51.7879 19.5841C52.4077 19.9419 52.7559 20.6335 52.6743 21.3445L57.6417 21.9146C57.9504 19.2245 56.6328 16.6078 54.2879 15.254L51.7879 19.5841ZM49.8201 19.6967C50.395 19.2705 51.1681 19.2263 51.7879 19.5841L54.2879 15.254C51.9429 13.9001 49.018 14.0674 46.8427 15.6798L49.8201 19.6967ZM46.885 21.8722L49.8201 19.6967L46.8427 15.6798L43.9076 17.8554L46.885 21.8722ZM41.6487 17.5072L43.1028 20.8588L47.6897 18.8688L46.2356 15.5171L41.6487 17.5072Z" fill="currentColor" />
</svg>