<svg viewBox="0 0 80 80" fill="none">
  <path fill-rule="evenodd" clip-rule="evenodd" d="M46.0191 18.8301C46.0809 19.6107 46.5962 20.2754 47.3136 20.5892C48.0214 20.8988 48.7158 21.2504 49.3933 21.6439C50.0481 22.0243 50.6767 22.4392 51.2775 22.8853C51.9102 23.3552 52.7494 23.4715 53.4603 23.1311L57.5672 21.1649C58.3522 20.7891 59.2959 20.9593 59.8578 21.6239C62.0233 24.1851 63.7057 27.1308 64.8191 30.2987C65.1049 31.112 64.7839 32.0043 64.0753 32.4953L60.3052 35.1078C59.6629 35.5529 59.3474 36.3305 59.4357 37.1069C59.5231 37.8745 59.5676 38.6506 59.5676 39.4316C59.5676 40.2131 59.523 40.9895 59.4356 41.7575C59.3472 42.534 59.6627 43.3116 60.3051 43.7567L64.0732 46.368C64.7819 46.859 65.1029 47.7516 64.8169 48.5649C63.7027 51.7327 62.0194 54.6782 59.8531 57.239C59.2911 57.9033 58.3476 58.0734 57.5628 57.6977L53.4592 55.733C52.7483 55.3926 51.9092 55.5089 51.2764 55.9787C50.6759 56.4246 50.0477 56.8391 49.3933 57.2193C48.7158 57.6129 48.0214 57.9644 47.3137 58.274C46.5963 58.5878 46.081 59.2525 46.0192 60.0331L45.6558 64.6234C45.5876 65.4853 44.9744 66.2132 44.1245 66.3718C40.8204 66.9882 37.4282 66.9886 34.124 66.3728C33.2739 66.2144 32.6605 65.4864 32.5923 64.6244L32.2288 60.0335C32.167 59.2528 31.6517 58.5882 30.9343 58.2744C30.2263 57.9647 29.5316 57.613 28.8539 57.2193C28.1996 56.8392 27.5714 56.4247 26.971 55.9789C26.3383 55.5091 25.4991 55.3929 24.7883 55.7332L20.6816 57.6994C19.8969 58.0751 18.9534 57.9051 18.3914 57.2409C16.225 54.6805 14.5416 51.7354 13.4271 48.568C13.1409 47.7546 13.4619 46.8619 14.1707 46.3708L17.9421 43.7573C18.5845 43.3122 18.9 42.5345 18.8116 41.758C18.7241 40.9899 18.6795 40.2133 18.6795 39.4316C18.6795 38.6504 18.7241 37.8742 18.8115 37.1064C18.8998 36.33 18.5843 35.5524 17.942 35.1073L14.1686 32.4924C13.46 32.0014 13.139 31.109 13.4249 30.2957C14.5386 27.1282 16.2211 24.1829 18.3867 21.6221C18.9486 20.9576 19.8923 20.7873 20.6772 21.1631L24.7872 23.1309C25.498 23.4712 26.3372 23.355 26.97 22.8851C27.5707 22.439 28.1992 22.0243 28.8539 21.6439C29.5316 21.2502 30.2263 20.8985 30.9344 20.5888C31.6518 20.2751 32.1672 19.6104 32.2289 18.8298L32.5929 14.2328C32.6611 13.3707 33.2745 12.6428 34.1246 12.4844C37.4284 11.8688 40.8202 11.8691 44.1238 12.4854C44.9738 12.644 45.587 13.3719 45.6552 14.2338L46.0191 18.8301ZM44.2581 30.5381C41.0833 28.6937 37.1632 28.6937 33.9884 30.5381C30.8391 32.3677 28.9012 35.7898 28.9012 39.432C28.9012 43.0741 30.8391 46.4963 33.9884 48.3258C37.1632 50.1702 41.0833 50.1702 44.2581 48.3258C47.4073 46.4963 49.3453 43.0741 49.3453 39.432C49.3453 35.7898 47.4073 32.3677 44.2581 30.5381Z" fill="currentColor" />
  <path d="M49.3933 21.6439L48.3886 23.3733V23.3733L49.3933 21.6439ZM49.3933 57.2193L48.3886 55.49V55.49L49.3933 57.2193ZM28.8539 57.2193L27.8492 58.9487L27.8492 58.9487L28.8539 57.2193ZM28.8539 21.6439L27.8492 19.9146L27.8492 19.9146L28.8539 21.6439ZM33.9884 30.5381L32.9837 28.8088L33.9884 30.5381ZM44.2581 30.5381L43.2534 32.2675L44.2581 30.5381ZM33.9884 48.3258L32.9837 50.0552L33.9884 48.3258ZM44.2581 48.3258L45.2627 50.0552L44.2581 48.3258ZM45.6552 14.2338L47.649 14.0759L45.6552 14.2338ZM14.1686 32.4924L13.0294 34.1363L14.1686 32.4924ZM17.942 35.1073L16.8028 36.7511L17.942 35.1073ZM17.9421 43.7573L19.0813 45.4012L17.9421 43.7573ZM13.4271 48.568L15.3137 47.9042L13.4271 48.568ZM14.1707 46.3708L13.0315 44.7269L14.1707 46.3708ZM18.3914 57.2409L19.9182 55.949L18.3914 57.2409ZM26.971 55.9789L25.7788 57.5847L26.971 55.9789ZM24.7883 55.7332L23.9246 53.9293L24.7883 55.7332ZM32.2288 60.0335L30.2351 60.1913L32.2288 60.0335ZM30.9343 58.2744L30.1329 60.1068L30.9343 58.2744ZM34.124 66.3728L34.4904 64.4066L34.124 66.3728ZM32.5923 64.6244L30.5985 64.7822L32.5923 64.6244ZM53.4592 55.733L54.3229 53.9291L53.4592 55.733ZM51.2764 55.9787L50.0841 54.373L51.2764 55.9787ZM59.8531 57.239L58.3262 55.9473L59.8531 57.239ZM57.5628 57.6977L56.6991 59.5016L57.5628 57.6977ZM64.0732 46.368L62.9341 48.0118L64.0732 46.368ZM64.8169 48.5649L62.9302 47.9013L64.8169 48.5649ZM59.4356 41.7575L57.4484 41.5313L59.4356 41.7575ZM60.3051 43.7567L59.1659 45.4006L60.3051 43.7567ZM32.5929 14.2328L30.5991 14.075L32.5929 14.2328ZM60.3052 35.1078L61.4444 36.7517L60.3052 35.1078ZM59.4357 37.1069L61.4229 36.8808L59.4357 37.1069ZM30.9344 20.5888L30.133 18.7564L30.9344 20.5888ZM32.2289 18.8298L34.2227 18.9876L32.2289 18.8298ZM64.8191 30.2987L66.7059 29.6356L64.8191 30.2987ZM59.8578 21.6239L58.3306 22.9152L59.8578 21.6239ZM45.6558 64.6234L43.6621 64.4656L45.6558 64.6234ZM26.97 22.8851L25.7776 21.2794L26.97 22.8851ZM51.2775 22.8853L50.0851 24.491L51.2775 22.8853ZM53.4603 23.1311L54.324 24.9351L53.4603 23.1311ZM47.3137 58.274L46.5122 56.4416L47.3137 58.274ZM46.0192 60.0331L48.013 60.1909L46.0192 60.0331ZM20.6772 21.1631L21.5409 19.3592L20.6772 21.1631ZM47.3136 20.5892L46.5121 22.4216L47.3136 20.5892ZM46.0191 18.8301L48.0129 18.6723L46.0191 18.8301ZM50.3979 19.9146C49.6545 19.4827 48.8922 19.0967 48.1151 18.7568L46.5121 22.4216C47.1506 22.7008 47.7771 23.0181 48.3886 23.3733L50.3979 19.9146ZM52.4699 21.2797C51.8093 20.7891 51.1181 20.333 50.3979 19.9146L48.3886 23.3733C48.978 23.7157 49.544 24.0892 50.0851 24.491L52.4699 21.2797ZM56.7035 19.361L52.5967 21.3272L54.324 24.9351L58.4309 22.9688L56.7035 19.361ZM66.7059 29.6356C65.5124 26.2396 63.7086 23.0807 61.3851 20.3326L58.3306 22.9152C60.338 25.2895 61.899 28.0221 62.9322 30.9619L66.7059 29.6356ZM61.4444 36.7517L65.2145 34.1391L62.9362 30.8514L59.1661 33.464L61.4444 36.7517ZM61.5676 39.4316C61.5676 38.5745 61.5187 37.7229 61.4229 36.8808L57.4486 37.3331C57.5274 38.0261 57.5676 38.7266 57.5676 39.4316H61.5676ZM61.4228 41.9837C61.5187 41.1412 61.5676 40.2892 61.5676 39.4316H57.5676C57.5676 40.137 57.5274 40.8379 57.4484 41.5313L61.4228 41.9837ZM65.2124 44.7241L61.4442 42.1129L59.1659 45.4006L62.9341 48.0118L65.2124 44.7241ZM61.38 58.5307C63.7044 55.783 65.5091 52.6244 66.7036 49.2285L62.9302 47.9013C61.8962 50.841 60.3344 53.5734 58.3262 55.9473L61.38 58.5307ZM52.5955 57.5369L56.6991 59.5016L58.4264 55.8938L54.3229 53.9291L52.5955 57.5369ZM50.3979 58.9487C51.1177 58.5305 51.8086 58.0746 52.4687 57.5844L50.0841 54.373C49.5433 54.7745 48.9777 55.1478 48.3886 55.49L50.3979 58.9487ZM48.1152 60.1064C48.8923 59.7665 49.6545 59.3806 50.3979 58.9487L48.3886 55.49C47.7772 55.8452 47.1506 56.1624 46.5122 56.4416L48.1152 60.1064ZM47.6496 64.7813L48.013 60.1909L44.0255 59.8752L43.6621 64.4656L47.6496 64.7813ZM33.7576 68.3389C37.3041 68.9999 40.9449 68.9995 44.4913 68.3378L43.7576 64.4057C40.6959 64.9769 37.5523 64.9773 34.4904 64.4066L33.7576 68.3389ZM30.2351 60.1913L30.5985 64.7822L34.586 64.4666L34.2226 59.8756L30.2351 60.1913ZM27.8492 58.9487C28.5929 59.3807 29.3555 59.7668 30.1329 60.1068L31.7357 56.442C31.097 56.1626 30.4702 55.8453 29.8586 55.49L27.8492 58.9487ZM25.7788 57.5847C26.4388 58.0748 27.1296 58.5306 27.8492 58.9487L29.8586 55.49C29.2696 55.1478 28.704 54.7746 28.1633 54.3732L25.7788 57.5847ZM21.5453 59.5033L25.652 57.5371L23.9246 53.9293L19.818 55.8955L21.5453 59.5033ZM11.5405 49.2318C12.7352 52.6273 14.5401 55.7854 16.8646 58.5327L19.9182 55.949C17.91 53.5755 16.348 50.8435 15.3137 47.9042L11.5405 49.2318ZM16.803 42.1134L13.0315 44.7269L15.3098 48.0147L19.0813 45.4012L16.803 42.1134ZM16.6795 39.4316C16.6795 40.2894 16.7285 41.1416 16.8244 41.9843L20.7988 41.5317C20.7198 40.8382 20.6795 40.1371 20.6795 39.4316H16.6795ZM16.8243 36.8803C16.7284 37.7226 16.6795 38.5743 16.6795 39.4316H20.6795C20.6795 38.7265 20.7197 38.0258 20.7986 37.3326L16.8243 36.8803ZM13.0294 34.1363L16.8028 36.7511L19.0811 33.4634L15.3077 30.8485L13.0294 34.1363ZM16.8595 20.3306C14.5359 23.0783 12.732 26.2368 11.5381 29.6323L15.3117 30.959C16.3452 28.0196 17.9063 25.2874 19.9138 22.9135L16.8595 20.3306ZM25.6508 21.327L21.5409 19.3592L19.8135 22.9671L23.9235 24.9348L25.6508 21.327ZM27.8492 19.9146C27.1292 20.3329 26.438 20.789 25.7776 21.2794L28.1624 24.4908C28.7033 24.0891 29.2692 23.7157 29.8586 23.3733L27.8492 19.9146ZM30.133 18.7564C29.3556 19.0964 28.593 19.4825 27.8492 19.9146L29.8585 23.3733C30.4703 23.0179 31.0971 22.7006 31.7358 22.4213L30.133 18.7564ZM30.5991 14.075L30.2352 18.6719L34.2227 18.9876L34.5866 14.3907L30.5991 14.075ZM44.4906 10.5194C40.9447 9.85785 37.3043 9.85748 33.7583 10.5182L34.491 14.4506C37.5525 13.8801 40.6957 13.8804 43.7571 14.4515L44.4906 10.5194ZM48.0129 18.6723L47.649 14.0759L43.6615 14.3916L44.0253 18.988L48.0129 18.6723ZM34.993 32.2675C37.5467 30.784 40.6998 30.784 43.2534 32.2675L45.2627 28.8088C41.4668 26.6035 36.7797 26.6035 32.9837 28.8088L34.993 32.2675ZM30.9012 39.432C30.9012 36.4905 32.4702 33.7331 34.993 32.2675L32.9837 28.8088C29.208 31.0023 26.9012 35.0892 26.9012 39.432H30.9012ZM34.993 46.5965C32.4702 45.1308 30.9012 42.3735 30.9012 39.432H26.9012C26.9012 43.7748 29.208 47.8617 32.9837 50.0552L34.993 46.5965ZM43.2534 46.5965C40.6998 48.08 37.5467 48.08 34.993 46.5965L32.9837 50.0552C36.7797 52.2604 41.4668 52.2604 45.2627 50.0552L43.2534 46.5965ZM47.3453 39.432C47.3453 42.3735 45.7762 45.1308 43.2534 46.5965L45.2627 50.0552C49.0385 47.8617 51.3453 43.7748 51.3453 39.432H47.3453ZM43.2534 32.2675C45.7762 33.7331 47.3453 36.4905 47.3453 39.432H51.3453C51.3453 35.0892 49.0385 31.0023 45.2627 28.8088L43.2534 32.2675ZM43.7571 14.4515C43.7394 14.4482 43.7204 14.4412 43.7035 14.4314C43.6873 14.4219 43.6769 14.4122 43.6709 14.4052C43.6599 14.3925 43.6611 14.3866 43.6615 14.3916L47.649 14.0759C47.5145 12.377 46.2909 10.8552 44.4906 10.5194L43.7571 14.4515ZM15.3077 30.8485C15.3036 30.8457 15.3093 30.8476 15.3146 30.8632C15.3176 30.8717 15.3207 30.8853 15.3208 30.9037C15.3209 30.9228 15.3175 30.9424 15.3117 30.959L11.5381 29.6323C10.933 31.3533 11.6323 33.1681 13.0294 34.1363L15.3077 30.8485ZM20.7986 37.3326C20.9623 35.8946 20.385 34.367 19.0811 33.4634L16.8028 36.7511C16.7972 36.7473 16.8026 36.7474 16.8112 36.7676C16.8211 36.7907 16.83 36.8302 16.8243 36.8803L20.7986 37.3326ZM19.0813 45.4012C20.3853 44.4975 20.9625 42.9698 20.7988 41.5317L16.8244 41.9843C16.8301 42.0343 16.8212 42.0739 16.8114 42.0969C16.8028 42.1171 16.7974 42.1173 16.803 42.1134L19.0813 45.4012ZM15.3137 47.9042C15.3196 47.9208 15.323 47.9404 15.3229 47.9596C15.3228 47.9779 15.3196 47.9915 15.3167 48C15.3113 48.0156 15.3057 48.0175 15.3098 48.0147L13.0315 44.7269C11.6341 45.6953 10.9349 47.5107 11.5405 49.2318L15.3137 47.9042ZM19.818 55.8955C19.8134 55.8977 19.818 55.8936 19.8346 55.8969C19.8437 55.8986 19.8575 55.9028 19.8738 55.9123C19.891 55.9221 19.9066 55.9352 19.9182 55.949L16.8646 58.5327C18.0551 59.9397 19.9985 60.2439 21.5453 59.5033L19.818 55.8955ZM28.1633 54.3732C26.9939 53.5049 25.3682 53.2382 23.9246 53.9293L25.652 57.5371C25.6456 57.5402 25.6486 57.5354 25.6711 57.5381C25.6969 57.5412 25.737 57.5537 25.7788 57.5847L28.1633 54.3732ZM34.2226 59.8756C34.0971 58.2908 33.0633 57.0226 31.7357 56.442L30.1329 60.1068C30.1796 60.1272 30.2097 60.1552 30.2249 60.1755C30.2382 60.1933 30.2356 60.1981 30.2351 60.1913L34.2226 59.8756ZM34.4904 64.4066C34.5081 64.4099 34.5271 64.4169 34.544 64.4268C34.5602 64.4363 34.5706 64.446 34.5766 64.453C34.5876 64.4657 34.5864 64.4716 34.586 64.4666L30.5985 64.7822C30.733 66.4814 31.9569 68.0034 33.7576 68.3389L34.4904 64.4066ZM54.3229 53.9291C52.8793 53.2379 51.2535 53.5047 50.0841 54.373L52.4687 57.5844C52.5105 57.5534 52.5506 57.5409 52.5764 57.5378C52.5989 57.5351 52.6018 57.5399 52.5955 57.5369L54.3229 53.9291ZM58.3262 55.9473C58.3378 55.9335 58.3534 55.9204 58.3705 55.9105C58.3869 55.9011 58.4007 55.8969 58.4098 55.8951C58.4264 55.8919 58.431 55.8959 58.4264 55.8938L56.6991 59.5016C58.246 60.2422 60.1895 59.9379 61.38 58.5307L58.3262 55.9473ZM62.9341 48.0118C62.9382 48.0147 62.9326 48.0128 62.9272 47.9972C62.9243 47.9887 62.9211 47.975 62.921 47.9567C62.9209 47.9375 62.9243 47.918 62.9302 47.9013L66.7036 49.2285C67.3089 47.5075 66.6097 45.6924 65.2124 44.7241L62.9341 48.0118ZM57.4484 41.5313C57.2847 42.9693 57.862 44.497 59.1659 45.4006L61.4442 42.1129C61.4498 42.1167 61.4444 42.1165 61.4358 42.0964C61.426 42.0733 61.4171 42.0337 61.4228 41.9837L57.4484 41.5313ZM34.5866 14.3907C34.587 14.3856 34.5882 14.3915 34.5772 14.4043C34.5712 14.4112 34.5608 14.421 34.5446 14.4304C34.5277 14.4403 34.5087 14.4473 34.491 14.4506L33.7583 10.5182C31.9576 10.8538 30.7336 12.3757 30.5991 14.075L34.5866 14.3907ZM59.1661 33.464C57.8622 34.3675 57.285 35.8951 57.4486 37.3331L61.4229 36.8808C61.4172 36.8308 61.4262 36.7912 61.436 36.7682C61.4446 36.748 61.45 36.7478 61.4444 36.7517L59.1661 33.464ZM31.7358 22.4213C33.0634 21.8406 34.0972 20.5724 34.2227 18.9876L30.2352 18.6719C30.2357 18.6651 30.2383 18.6699 30.225 18.6877C30.2098 18.7081 30.1797 18.736 30.133 18.7564L31.7358 22.4213ZM62.9322 30.9619C62.9264 30.9452 62.923 30.9257 62.9231 30.9065C62.9232 30.8882 62.9264 30.8745 62.9293 30.866C62.9347 30.8505 62.9403 30.8485 62.9362 30.8514L65.2145 34.1391C66.6115 33.1711 67.3108 31.3564 66.7059 29.6356L62.9322 30.9619ZM58.4309 22.9688C58.4354 22.9666 58.4308 22.9707 58.4142 22.9674C58.4051 22.9657 58.3913 22.9614 58.3749 22.952C58.3578 22.9421 58.3422 22.929 58.3306 22.9152L61.3851 20.3326C60.1947 18.9248 58.2508 18.6202 56.7035 19.361L58.4309 22.9688ZM43.6621 64.4656C43.6617 64.4706 43.6605 64.4647 43.6715 64.452C43.6775 64.4451 43.6879 64.4353 43.7041 64.4259C43.721 64.416 43.74 64.409 43.7576 64.4057L44.4913 68.3378C46.2916 68.0019 47.5151 66.4802 47.6496 64.7813L43.6621 64.4656ZM23.9235 24.9348C25.3671 25.626 26.9929 25.3592 28.1624 24.4908L25.7776 21.2794C25.7359 21.3104 25.6957 21.3229 25.67 21.326C25.6474 21.3287 25.6445 21.324 25.6508 21.327L23.9235 24.9348ZM50.0851 24.491C51.2545 25.3594 52.8803 25.6262 54.324 24.9351L52.5967 21.3272C52.603 21.3242 52.6001 21.329 52.5775 21.3263C52.5517 21.3232 52.5116 21.3107 52.4699 21.2797L50.0851 24.491ZM46.5122 56.4416C45.1847 57.0223 44.1509 58.2905 44.0255 59.8752L48.013 60.1909C48.0124 60.1978 48.0099 60.1929 48.0232 60.1751C48.0383 60.1548 48.0685 60.1268 48.1152 60.1064L46.5122 56.4416ZM19.9138 22.9135C19.9022 22.9273 19.8866 22.9404 19.8694 22.9503C19.8531 22.9597 19.8393 22.9639 19.8302 22.9657C19.8136 22.9689 19.809 22.9649 19.8135 22.9671L21.5409 19.3592C19.9937 18.6185 18.0499 18.923 16.8595 20.3306L19.9138 22.9135ZM48.1151 18.7568C48.0684 18.7364 48.0382 18.7085 48.023 18.6881C48.0097 18.6703 48.0123 18.6655 48.0129 18.6723L44.0253 18.988C44.1508 20.5727 45.1846 21.8409 46.5121 22.4216L48.1151 18.7568Z" fill="currentColor" />
</svg>