<svg viewBox="0 0 80 80" fill="none">
  <path fill-rule="evenodd" clip-rule="evenodd" d="M45.1699 15.176C44.4199 14.4261 43.4027 14.0048 42.3422 14.0047L24.0004 14.0027C21.7911 14.0024 20 15.7934 20 18.0027L20 62.0022C20 64.2114 21.7909 66.0022 24 66.0022H56C58.2091 66.0022 60 64.2114 60 62.0022L60 31.6605C60 30.5995 59.5785 29.582 58.8282 28.8318L58.6276 28.6312C59.0867 29.1577 58.7174 30.0007 58 30.0007H48C45.7909 30.0007 44 28.2099 44 26.0007V16.0007C44 15.2906 44.8261 14.9216 45.3534 15.3595L45.1699 15.176Z" fill="currentColor" />
  <path d="M42.3422 14.0047L42.3419 16.0047L42.3422 14.0047ZM45.1699 15.176L43.7558 16.5904L45.1699 15.176ZM24.0004 14.0027L24.0007 12.0027L24.0004 14.0027ZM20 18.0027L22 18.0027L20 18.0027ZM20 62.0022H18H20ZM58.8282 28.8318L57.4141 30.2461L57.4141 30.2461L58.8282 28.8318ZM58.6276 28.6312L60.0416 27.2169C59.2793 26.4547 58.0501 26.4338 57.2623 27.1697C56.4746 27.9055 56.4117 29.1333 57.1202 29.9457L58.6276 28.6312ZM45.3534 15.3595L44.0757 16.8981C44.8978 17.5809 46.1115 17.4967 46.8315 16.7069C47.5515 15.9171 47.5233 14.7008 46.7675 13.9452L45.3534 15.3595ZM42.3419 16.0047C42.8722 16.0048 43.3808 16.2154 43.7558 16.5904L46.584 13.7617C45.4589 12.6369 43.9333 12.0049 42.3424 12.0047L42.3419 16.0047ZM24.0002 16.0027L42.3419 16.0047L42.3424 12.0047L24.0007 12.0027L24.0002 16.0027ZM22 18.0027C22 16.898 22.8956 16.0026 24.0002 16.0027L24.0007 12.0027C20.6867 12.0023 18 14.6887 18 18.0027L22 18.0027ZM22 62.0022L22 18.0027L18 18.0027L18 62.0022H22ZM24 64.0022C22.8954 64.0022 22 63.1068 22 62.0022H18C18 65.316 20.6863 68.0022 24 68.0022V64.0022ZM56 64.0022H24V68.0022H56V64.0022ZM58 62.0022C58 63.1068 57.1046 64.0022 56 64.0022V68.0022C59.3137 68.0022 62 65.316 62 62.0022H58ZM58 31.6605L58 62.0022H62L62 31.6605H58ZM57.4141 30.2461C57.7892 30.6212 58 31.13 58 31.6605H62C62 30.069 61.3677 28.5427 60.2423 27.4175L57.4141 30.2461ZM57.2135 30.0456L57.4141 30.2461L60.2423 27.4175L60.0416 27.2169L57.2135 30.0456ZM58 32.0007C60.4567 32.0007 61.7075 29.12 60.1349 27.3167L57.1202 29.9457C56.4659 29.1954 56.978 28.0007 58 28.0007V32.0007ZM48 32.0007L58 32.0007V28.0007H48V32.0007ZM42 26.0007C42 29.3144 44.6863 32.0007 48 32.0007V28.0007C46.8954 28.0007 46 27.1053 46 26.0007H42ZM42 16.0007V26.0007H46V16.0007H42ZM46.6312 13.8209C44.824 12.3201 42 13.5662 42 16.0007H46C46 17.0151 44.8282 17.5231 44.0757 16.8981L46.6312 13.8209ZM43.7558 16.5904L43.9394 16.7739L46.7675 13.9452L46.584 13.7617L43.7558 16.5904Z" fill="currentColor" />
  <path d="M58.5858 28.5858L57.1716 30L58.5858 28.5858ZM45.4142 15.4142L44 16.8284L45.4142 15.4142ZM44 16.8284L57.1716 30L60 27.1716L46.8284 14L44 16.8284ZM42 16V26H46V16H42ZM48 32H58V28H48V32ZM42 26C42 29.3137 44.6863 32 48 32V28C46.8954 28 46 27.1046 46 26H42ZM57.1716 30C56.4335 29.262 56.9562 28 58 28V32C60.5199 32 61.7818 28.9534 60 27.1716L57.1716 30ZM46.8284 14C45.0466 12.2182 42 13.4802 42 16H46C46 17.0438 44.738 17.5665 44 16.8284L46.8284 14Z" fill="currentColor" />
</svg>