<svg viewBox="0 0 80 80" fill="none">
  <path d="M35 60.1082C35 61.765 36.3431 63.1082 38 63.1082C39.6569 63.1082 41 61.765 41 60.1082H35ZM41 20.1082C41 18.4513 39.6569 17.1082 38 17.1082C36.3431 17.1082 35 18.4513 35 20.1082H41ZM7 60.1082C7 61.765 8.34315 63.1082 10 63.1082C11.6569 63.1082 13 61.765 13 60.1082H7ZM13 20.1082C13 18.4513 11.6569 17.1082 10 17.1082C8.34315 17.1082 7 18.4513 7 20.1082H13ZM10 37.1082C8.34315 37.1082 7 38.4513 7 40.1082C7 41.765 8.34315 43.1082 10 43.1082V37.1082ZM38 43.1082C39.6569 43.1082 41 41.765 41 40.1082C41 38.4513 39.6569 37.1082 38 37.1082V43.1082ZM41 60.1082V20.1082H35V60.1082H41ZM13 60.1082V20.1082H7V60.1082H13ZM10 43.1082H38V37.1082H10V43.1082Z" fill="currentColor" />
  <path d="M50.4961 46.3305L52.9067 48.1161L52.9067 48.1161L50.4961 46.3305ZM69.504 20.6697L71.9147 22.4554V22.4554L69.504 20.6697ZM70 47.0001V50.0001C71.6569 50.0001 73 48.6569 73 47.0001H70ZM73 47.0001C73 45.3432 71.6569 44.0001 70 44.0001C68.3432 44.0001 67 45.3432 67 47.0001H73ZM67 60.0001C67 61.6569 68.3432 63.0001 70 63.0001C71.6569 63.0001 73 61.6569 73 60.0001H67ZM73 50.0002C74.6569 50.0002 76 48.657 76 47.0002C76 45.3433 74.6569 44.0002 73 44.0002V50.0002ZM70 44.0002C68.3432 44.0002 67 45.3433 67 47.0002C67 48.657 68.3432 50.0002 70 50.0002V44.0002ZM52.9067 48.1161L71.9147 22.4554L67.0933 18.884L48.0854 44.5448L52.9067 48.1161ZM50.8334 44.0001C52.9525 44.0001 54.1681 46.4133 52.9067 48.1161L48.0854 44.5448C46.4136 46.8017 48.0247 50.0001 50.8334 50.0001V44.0001ZM70 44.0001H50.8334V50.0001H70V44.0001ZM67 20.8334V47.0001H73V20.8334H67ZM71.9147 22.4554C70.351 24.5663 67 23.4604 67 20.8334H73C73 17.6762 68.9726 16.347 67.0933 18.884L71.9147 22.4554ZM67 47.0001V60.0001H73V47.0001H67ZM73 44.0002H70V50.0002H73V44.0002Z" fill="currentColor" />
</svg>