<svg viewBox="0 0 80 80" fill="none">
  <path fill-rule="evenodd" clip-rule="evenodd" d="M40 23.6564L39.7279 23.9285L36.8995 21.1C34.274 18.4745 30.713 16.9995 27 16.9995C23.287 16.9995 19.726 18.4745 17.1005 21.1C14.475 23.7255 13 27.2865 13 30.9995C13 34.7125 14.475 38.2735 17.1005 40.899L31.1809 54.9794L31.2425 55.0413L38.3136 62.1124C38.7735 62.5723 39.4017 62.7614 40 62.6797V23.6564Z" fill="currentColor" />
  <path d="M40 23.6564H42C42 22.8475 41.5127 22.1182 40.7654 21.8086C40.018 21.4991 39.1578 21.6702 38.5858 22.2422L40 23.6564ZM39.7279 23.9285L38.3137 25.3427C38.6888 25.7177 39.1975 25.9285 39.7279 25.9285C40.2584 25.9285 40.7671 25.7177 41.1421 25.3427L39.7279 23.9285ZM36.8995 21.1L38.3137 19.6858V19.6858L36.8995 21.1ZM17.1005 21.1L18.5147 22.5142L17.1005 21.1ZM17.1005 40.899L18.5147 39.4848H18.5147L17.1005 40.899ZM31.1809 54.9794L32.5989 53.569L32.5951 53.5652L31.1809 54.9794ZM31.2425 55.0413L29.8245 56.4518L29.8283 56.4555L31.2425 55.0413ZM38.3136 62.1124L39.7278 60.6982L38.3136 62.1124ZM40 62.6797L40.2707 64.6613C41.2615 64.5259 42 63.6796 42 62.6797H40ZM38.5858 22.2422L38.3137 22.5142L41.1421 25.3427L41.4142 25.0706L38.5858 22.2422ZM41.1421 22.5142L38.3137 19.6858L35.4853 22.5142L38.3137 25.3427L41.1421 22.5142ZM38.3137 19.6858C35.3131 16.6852 31.2435 14.9995 27 14.9995V18.9995C30.1826 18.9995 33.2348 20.2638 35.4853 22.5142L38.3137 19.6858ZM27 14.9995C22.7565 14.9995 18.6869 16.6852 15.6863 19.6858L18.5147 22.5142C20.7652 20.2638 23.8174 18.9995 27 18.9995V14.9995ZM15.6863 19.6858C12.6857 22.6864 11 26.756 11 30.9995H15C15 27.8169 16.2643 24.7647 18.5147 22.5142L15.6863 19.6858ZM11 30.9995C11 35.243 12.6857 39.3126 15.6863 42.3132L18.5147 39.4848C16.2643 37.2344 15 34.1821 15 30.9995H11ZM15.6863 42.3132L29.7667 56.3936L32.5951 53.5652L18.5147 39.4848L15.6863 42.3132ZM29.7629 56.3899L29.8245 56.4518L32.6605 53.6309L32.5989 53.569L29.7629 56.3899ZM29.8283 56.4555L36.8993 63.5266L39.7278 60.6982L32.6567 53.6271L29.8283 56.4555ZM36.8993 63.5266C37.8201 64.4473 39.0797 64.824 40.2707 64.6613L39.7293 60.6981C39.7272 60.6984 39.7256 60.6979 39.7261 60.6981C39.7267 60.6983 39.7278 60.6987 39.7289 60.6994C39.7302 60.7002 39.7299 60.7003 39.7278 60.6982L36.8993 63.5266ZM42 62.6797V23.6564H38V62.6797H42Z" fill="currentColor" />
</svg>