<svg viewBox="0 0 80 80" fill="none">
  <path fill-rule="evenodd" clip-rule="evenodd" d="M19.445 12.6613L19.429 8.50098L19.4129 12.6616L19.4293 12.6548L19.445 12.6613ZM26.0217 15.3855L26.038 15.3922L26.0446 15.4081L28.9749 12.455L26.0217 15.3855ZM28.7688 21.9849L28.7754 22.001L28.7688 22.017L32.929 22.001L28.7688 21.9849ZM26.0446 28.5939L26.038 28.6097L26.0217 28.6165L28.9749 31.5469L26.0446 28.5939ZM19.445 31.3406L19.4293 31.3471L19.4129 31.3403L19.429 35.501L19.445 31.3406ZM12.8364 28.6163L12.8205 28.6097L12.8138 28.5934L9.88301 31.5469L12.8364 28.6163ZM10.0898 22.017L10.0831 22.001L10.0898 21.9849L5.92896 22.001L10.0898 22.017ZM12.8138 15.4085L12.8205 15.3922L12.8364 15.3857L9.88301 12.455L12.8138 15.4085Z" fill="currentColor" />
  <path d="M19.429 8.50098L21.4289 8.49325C21.4247 7.39171 20.5305 6.50098 19.429 6.50098C18.3274 6.50098 17.4332 7.39171 17.429 8.49325L19.429 8.50098ZM19.445 12.6613L18.6797 14.5091C19.2981 14.7653 20.0036 14.6951 20.5594 14.3221C21.1152 13.9492 21.4476 13.323 21.445 12.6536L19.445 12.6613ZM19.4129 12.6616L17.4129 12.6539C17.4103 13.3232 17.7427 13.9495 18.2985 14.3224C18.8544 14.6953 19.5599 14.7655 20.1783 14.5094L19.4129 12.6616ZM19.4293 12.6548L20.1946 10.8071C19.7046 10.6041 19.1539 10.6041 18.6639 10.8071L19.4293 12.6548ZM26.0217 15.3855L24.613 13.9658C24.1378 14.4373 23.9301 15.1152 24.0594 15.7719C24.1887 16.4286 24.638 16.9771 25.2563 17.2333L26.0217 15.3855ZM26.038 15.3922L27.8857 14.6268C27.6827 14.1368 27.2934 13.7475 26.8034 13.5445L26.038 15.3922ZM26.0446 15.4081L24.1968 16.1736C24.453 16.7919 25.0015 17.2411 25.6582 17.3704C26.3149 17.4997 26.9928 17.2919 27.4642 16.8168L26.0446 15.4081ZM28.9749 12.455L30.3946 13.8638C31.1705 13.0819 31.168 11.8197 30.3891 11.0408C29.6102 10.2619 28.3481 10.2595 27.5662 11.0354L28.9749 12.455ZM28.7688 21.9849L28.7765 19.9849C28.1071 19.9823 27.4809 20.3148 27.1079 20.8706C26.735 21.4264 26.6649 22.132 26.921 22.7504L28.7688 21.9849ZM28.7754 22.001L30.6231 22.7664C30.8262 22.2763 30.8262 21.7256 30.6231 21.2355L28.7754 22.001ZM28.7688 22.017L26.921 21.2516C26.6649 21.87 26.735 22.5755 27.1079 23.1314C27.4809 23.6872 28.1071 24.0196 28.7765 24.017L28.7688 22.017ZM32.929 22.001L32.9367 24.001C34.0382 23.9967 34.929 23.1025 34.929 22.001C34.929 20.8994 34.0382 20.0052 32.9367 20.001L32.929 22.001ZM26.0446 28.5939L27.4642 27.1851C26.9928 26.71 26.3149 26.5022 25.6582 26.6315C25.0015 26.7608 24.453 27.2101 24.1968 27.8284L26.0446 28.5939ZM26.038 28.6097L26.8034 30.4574C27.2934 30.2545 27.6827 29.8651 27.8857 29.3751L26.038 28.6097ZM26.0217 28.6165L25.2563 26.7687C24.6379 27.0249 24.1887 27.5734 24.0594 28.2301C23.9301 28.8868 24.1379 29.5647 24.613 30.0361L26.0217 28.6165ZM28.9749 31.5469L27.5662 32.9666C28.3481 33.7425 29.6102 33.74 30.3891 32.9611C31.168 32.1822 31.1705 30.9201 30.3946 30.1382L28.9749 31.5469ZM19.445 31.3406L21.445 31.3483C21.4476 30.679 21.1152 30.0527 20.5594 29.6798C20.0035 29.3069 19.298 29.2367 18.6796 29.4929L19.445 31.3406ZM19.4293 31.3471L18.6639 33.1949C19.154 33.3979 19.7046 33.3979 20.1947 33.1949L19.4293 31.3471ZM19.4129 31.3403L20.1783 29.4926C19.5599 29.2364 18.8544 29.3066 18.2985 29.6795C17.7427 30.0525 17.4103 30.6787 17.4129 31.3481L19.4129 31.3403ZM19.429 35.501L17.429 35.5087C17.4332 36.6102 18.3274 37.501 19.429 37.501C20.5305 37.501 21.4247 36.6102 21.4289 35.5087L19.429 35.501ZM12.8364 28.6163L14.2451 30.0359C14.7202 29.5645 14.928 28.8866 14.7987 28.2299C14.6694 27.5732 14.2202 27.0247 13.6018 26.7685L12.8364 28.6163ZM12.8205 28.6097L10.9728 29.3751C11.1758 29.8651 11.5651 30.2545 12.0552 30.4575L12.8205 28.6097ZM12.8138 28.5934L14.6615 27.828C14.4054 27.2097 13.8569 26.7604 13.2002 26.6311C12.5435 26.5018 11.8656 26.7096 11.3941 27.1847L12.8138 28.5934ZM9.88301 31.5469L8.46335 30.1382C7.68745 30.9201 7.68988 32.1822 8.4688 32.9611C9.24772 33.74 10.5098 33.7425 11.2918 32.9666L9.88301 31.5469ZM10.0898 22.017L10.082 24.017C10.7514 24.0196 11.3776 23.6872 11.7506 23.1314C12.1235 22.5756 12.1937 21.87 11.9375 21.2517L10.0898 22.017ZM10.0831 22.001L8.23536 21.2356C8.03236 21.7257 8.03236 22.2763 8.23536 22.7664L10.0831 22.001ZM10.0898 21.9849L11.9375 22.7503C12.1937 22.1319 12.1235 21.4264 11.7506 20.8706C11.3776 20.3147 10.7514 19.9823 10.082 19.9849L10.0898 21.9849ZM5.92896 22.001L5.92123 20.001C4.81968 20.0052 3.92896 20.8994 3.92896 22.001C3.92896 23.1025 4.81968 23.9967 5.92123 24.001L5.92896 22.001ZM12.8138 15.4085L11.3941 16.8173C11.8656 17.2924 12.5434 17.5002 13.2002 17.3709C13.8569 17.2416 14.4054 16.7923 14.6615 16.1739L12.8138 15.4085ZM12.8205 15.3922L12.0552 13.5445C11.5651 13.7475 11.1758 14.1368 10.9728 14.6269L12.8205 15.3922ZM12.8364 15.3857L13.6018 17.2334C14.2202 16.9773 14.6694 16.4288 14.7987 15.7721C14.928 15.1153 14.7202 14.4375 14.2451 13.966L12.8364 15.3857ZM9.88301 12.455L11.2918 11.0354C10.5098 10.2595 9.24772 10.2619 8.4688 11.0408C7.68988 11.8197 7.68745 13.0819 8.46335 13.8638L9.88301 12.455ZM17.429 8.5087L17.445 12.6691L21.445 12.6536L21.4289 8.49325L17.429 8.5087ZM21.4129 12.6693L21.4289 8.5087L17.429 8.49325L17.4129 12.6539L21.4129 12.6693ZM20.1783 14.5094L20.1947 14.5026L18.6639 10.8071L18.6475 10.8139L20.1783 14.5094ZM18.6639 14.5026L18.6797 14.5091L20.2104 10.8136L20.1946 10.8071L18.6639 14.5026ZM25.2563 17.2333L25.2726 17.24L26.8034 13.5445L26.7871 13.5377L25.2563 17.2333ZM24.1903 16.1577L24.1968 16.1736L27.8923 14.6426L27.8857 14.6268L24.1903 16.1577ZM27.5552 11.0463L24.6249 13.9994L27.4642 16.8168L30.3946 13.8638L27.5552 11.0463ZM27.4304 16.8052L30.3836 13.8747L27.5662 11.0354L24.613 13.9658L27.4304 16.8052ZM26.921 22.7504L26.9277 22.7664L30.6231 21.2355L30.6165 21.2195L26.921 22.7504ZM26.9277 21.2355L26.921 21.2516L30.6165 22.7825L30.6231 22.7664L26.9277 21.2355ZM32.9212 20.001L28.761 20.0171L28.7765 24.017L32.9367 24.001L32.9212 20.001ZM28.761 23.9849L32.9212 24.001L32.9367 20.001L28.7765 19.9849L28.761 23.9849ZM24.1968 27.8284L24.1903 27.8443L27.8857 29.3751L27.8923 29.3593L24.1968 27.8284ZM25.2726 26.762L25.2563 26.7687L26.7871 30.4642L26.8034 30.4574L25.2726 26.762ZM30.3836 30.1273L27.4304 27.1968L24.613 30.0361L27.5662 32.9666L30.3836 30.1273ZM24.6249 30.0026L27.5552 32.9557L30.3946 30.1382L27.4642 27.1851L24.6249 30.0026ZM18.6796 29.4929L18.6639 29.4994L20.1947 33.1949L20.2104 33.1883L18.6796 29.4929ZM20.1947 29.4994L20.1783 29.4926L18.6475 33.1881L18.6639 33.1949L20.1947 29.4994ZM21.4289 35.4933L21.4129 31.3326L17.4129 31.3481L17.429 35.5087L21.4289 35.4933ZM17.445 31.3329L17.429 35.4933L21.4289 35.5087L21.445 31.3483L17.445 31.3329ZM13.6018 26.7685L13.5859 26.762L12.0552 30.4575L12.071 30.464L13.6018 26.7685ZM14.6683 27.8443L14.6615 27.828L10.966 29.3588L10.9728 29.3751L14.6683 27.8443ZM11.3027 32.9557L14.2335 30.0022L11.3941 27.1847L8.46335 30.1382L11.3027 32.9557ZM11.4276 27.1966L8.47427 30.1273L11.2918 32.9666L14.2451 30.0359L11.4276 27.1966ZM11.9375 21.2517L11.9309 21.2356L8.23536 22.7664L8.24202 22.7824L11.9375 21.2517ZM11.9309 22.7664L11.9375 22.7503L8.24202 21.2195L8.23536 21.2356L11.9309 22.7664ZM5.93668 24.001L10.0975 23.9849L10.082 19.9849L5.92123 20.001L5.93668 24.001ZM10.0975 20.0171L5.93668 20.001L5.92123 24.001L10.082 24.017L10.0975 20.0171ZM14.6615 16.1739L14.6683 16.1576L10.9728 14.6269L10.966 14.6431L14.6615 16.1739ZM13.5859 17.24L13.6018 17.2334L12.071 13.5379L12.0552 13.5445L13.5859 17.24ZM8.47427 13.8747L11.4276 16.8053L14.2451 13.966L11.2918 11.0354L8.47427 13.8747ZM14.2335 13.9998L11.3027 11.0463L8.46335 13.8638L11.3941 16.8173L14.2335 13.9998Z" fill="currentColor" />
  <path d="M17.2261 16.6827C18.6366 16.0985 20.2214 16.0985 21.6319 16.6827C23.0424 17.267 24.1631 18.3876 24.7473 19.7981C25.3316 21.2086 25.3316 22.7934 24.7473 24.2039C24.1631 25.6144 23.0424 26.7351 21.6319 27.3193C20.2214 27.9036 18.6366 27.9036 17.2261 27.3193C15.8156 26.7351 14.695 25.6144 14.1107 24.2039C13.5265 22.7934 13.5265 21.2086 14.1107 19.7981C14.695 18.3876 15.8156 17.267 17.2261 16.6827Z" fill="currentColor" stroke="currentColor" stroke-width="4" stroke-linecap="square" stroke-linejoin="round" />
  <ellipse cx="58" cy="31.7144" rx="2.11765" ry="2.14286" fill="currentColor" stroke="currentColor" stroke-width="4" stroke-linecap="round" stroke-linejoin="round" />
  <path d="M52.8553 25.2517L54.1113 26.8081H54.1113L52.8553 25.2517ZM49.359 26.2101C48.7685 27.1436 49.0464 28.379 49.9799 28.9696C50.9133 29.5601 52.1487 29.2822 52.7393 28.3487L49.359 26.2101ZM63.1531 25.2517L64.4091 23.6952V23.6952L63.1531 25.2517ZM63.2684 28.3477C63.8591 29.281 65.0946 29.5587 66.028 28.968C66.9613 28.3772 67.239 27.1417 66.6483 26.2084L63.2684 28.3477ZM48.9935 19.2801L50.2495 20.8366V20.8366L48.9935 19.2801ZM54.7883 16.4563L54.3382 14.5076L54.7883 16.4563ZM44.8939 20.6705C44.231 21.554 44.4099 22.8076 45.2934 23.4705C46.177 24.1334 47.4306 23.9546 48.0935 23.071L44.8939 20.6705ZM67.0147 19.2801L68.2707 17.7237L68.2707 17.7237L67.0147 19.2801ZM67.914 23.07C68.577 23.9535 69.8306 24.1322 70.7141 23.4692C71.5976 22.8062 71.7763 21.5526 71.1133 20.6691L67.914 23.07ZM61.22 16.4563L60.7699 18.405L61.22 16.4563ZM45.1287 13.3112L46.3847 14.8677H46.3847L45.1287 13.3112ZM53.4069 9.27721L52.9568 7.32851V7.32851L53.4069 9.27721ZM40.401 15.24C39.7105 16.1022 39.8496 17.3608 40.7117 18.0513C41.5738 18.7419 42.8325 18.6028 43.523 17.7407L40.401 15.24ZM70.8733 13.3112L69.6173 14.8677V14.8677L70.8733 13.3112ZM72.4808 17.7431C73.1712 18.6053 74.4299 18.7446 75.2921 18.0542C76.1543 17.3638 76.2936 16.1052 75.6033 15.2429L72.4808 17.7431ZM62.595 9.27721L62.145 11.2259L62.595 9.27721ZM54.1113 26.8081C54.8467 26.2146 55.7032 25.7977 56.6166 25.5868L55.7165 21.6894C54.2109 22.0371 52.8038 22.7233 51.5993 23.6952L54.1113 26.8081ZM52.7393 28.3487C53.1099 27.763 53.5732 27.2423 54.1113 26.8081L51.5993 23.6952C50.7182 24.4062 49.9623 25.2566 49.359 26.2101L52.7393 28.3487ZM61.8971 26.8081C62.4348 27.242 62.8979 27.7624 63.2684 28.3477L66.6483 26.2084C66.0452 25.2556 65.2896 24.4058 64.4091 23.6952L61.8971 26.8081ZM59.3917 25.5868C60.3052 25.7977 61.1616 26.2146 61.8971 26.8081L64.4091 23.6952C63.2046 22.7233 61.7975 22.0371 60.2919 21.6894L59.3917 25.5868ZM60.2919 21.6894C58.7862 21.3416 57.2222 21.3416 55.7165 21.6894L56.6166 25.5868C57.53 25.3758 58.4783 25.3758 59.3917 25.5868L60.2919 21.6894ZM50.2495 20.8366C51.7125 19.656 53.4178 18.8255 55.2384 18.405L54.3382 14.5076C51.9254 15.0649 49.6695 16.1647 47.7375 17.7237L50.2495 20.8366ZM48.0935 23.071C48.7165 22.2407 49.4402 21.4897 50.2495 20.8366L47.7375 17.7237C46.6688 18.5861 45.7145 19.5768 44.8939 20.6705L48.0935 23.071ZM65.7587 20.8366C66.5677 21.4894 67.2912 22.2401 67.914 23.07L71.1133 20.6691C70.293 19.5759 69.339 18.5858 68.2707 17.7237L65.7587 20.8366ZM60.7699 18.405C62.5905 18.8255 64.2958 19.656 65.7587 20.8366L68.2707 17.7237C66.3388 16.1647 64.0828 15.0649 61.67 14.5076L60.7699 18.405ZM61.67 14.5076C59.2572 13.9504 56.751 13.9504 54.3382 14.5076L55.2384 18.405C57.0589 17.9846 58.9494 17.9846 60.7699 18.405L61.67 14.5076ZM46.3847 14.8677C48.5751 13.1001 51.1293 11.8559 53.857 11.2259L52.9568 7.32851C49.6369 8.09528 46.5321 9.60873 43.8727 11.7548L46.3847 14.8677ZM43.523 17.7407C44.3693 16.6841 45.3282 15.7203 46.3847 14.8677L43.8727 11.7548C42.59 12.7899 41.4269 13.9593 40.401 15.24L43.523 17.7407ZM69.6173 14.8677C70.6746 15.7209 71.6341 16.6856 72.4808 17.7431L75.6033 15.2429C74.5768 13.961 73.4129 12.7907 72.1292 11.7548L69.6173 14.8677ZM62.145 11.2259C64.8727 11.8559 67.4269 13.1001 69.6173 14.8677L72.1292 11.7548C69.4698 9.60873 66.365 8.09528 63.0451 7.32851L62.145 11.2259ZM63.0451 7.32851C59.7251 6.56172 56.2768 6.56172 52.9568 7.32851L53.857 11.2259C56.5847 10.5959 59.4173 10.5959 62.145 11.2259L63.0451 7.32851Z" fill="currentColor" />
  <path d="M12.6538 63.6471L12.6538 46" stroke="currentColor" stroke-width="4" stroke-linecap="round" stroke-linejoin="round" />
  <ellipse cx="8.32692" cy="63.6469" rx="4.32692" ry="3.43137" fill="currentColor" stroke="currentColor" stroke-width="4" stroke-linejoin="round" />
  <path d="M29 67.5687L29 49.9216" stroke="currentColor" stroke-width="4" stroke-linecap="round" stroke-linejoin="round" />
  <ellipse cx="24.6731" cy="67.5686" rx="4.32692" ry="3.43137" fill="currentColor" stroke="currentColor" stroke-width="4" stroke-linejoin="round" />
  <path d="M12.6538 50.9019L29 54.8235" stroke="currentColor" stroke-width="4" stroke-linecap="round" stroke-linejoin="round" />
  <path d="M12.6538 46.0001L29 49.9216" stroke="currentColor" stroke-width="4" stroke-linecap="round" stroke-linejoin="round" />
  <path d="M52.584 68.9397L64.5006 48.2994" stroke="currentColor" stroke-width="4" stroke-linecap="round" stroke-linejoin="round" />
  <path d="M52.3544 69.3373C51.4684 70.8718 49.5063 71.3976 47.9717 70.5116C46.4372 69.6257 45.9114 67.6635 46.7974 66.129L47.2557 65.3351C48.1417 63.8006 50.1039 63.2748 51.6384 64.1608C53.1729 65.0467 53.6987 67.0089 52.8127 68.5435L52.3544 69.3373Z" fill="currentColor" stroke="currentColor" stroke-width="4" stroke-linecap="round" stroke-linejoin="round" />
  <path d="M61.75 68.9397L49.8333 48.2994" stroke="currentColor" stroke-width="4" stroke-linecap="round" stroke-linejoin="round" />
  <path d="M61.9796 69.3373C62.8655 70.8718 64.8277 71.3976 66.3622 70.5116C67.8968 69.6257 68.4225 67.6635 67.5366 66.129L67.0782 65.3351C66.1923 63.8006 64.2301 63.2748 62.6956 64.1608C61.1611 65.0467 60.6353 67.0089 61.5213 68.5435L61.9796 69.3373Z" fill="currentColor" stroke="currentColor" stroke-width="4" stroke-linecap="round" stroke-linejoin="round" />
</svg>