<svg viewBox="0 0 80 80" fill="none">
  <path d="M33 32.2198L19.5 46.9471V52C19.5 52.2761 19.7239 52.5 20 52.5H60C60.2761 52.5 60.5 52.2761 60.5 52V50.6213L54 44.1213L49.8433 48.2781C49.554 48.5674 49.1591 48.7259 48.75 48.717C48.341 48.7082 47.9533 48.5326 47.6769 48.231L33 32.2198Z" fill="currentColor" />
  <path d="M54.5849 28.549C55.4606 28.0435 56.5394 28.0435 57.4151 28.549C58.2907 29.0546 58.8301 29.9889 58.8301 31C58.8301 32.0111 58.2907 32.9454 57.4151 33.451C56.5394 33.9565 55.4606 33.9565 54.5849 33.451C53.7093 32.9454 53.1699 32.0111 53.1699 31C53.1699 29.9889 53.7093 29.0546 54.5849 28.549Z" fill="currentColor" />
  <path fill-rule="evenodd" clip-rule="evenodd" d="M12 26C12 22.6863 14.6863 20 18 20H62C65.3137 20 68 22.6863 68 26V54C68 57.3137 65.3137 60 62 60H18C14.6863 60 12 57.3137 12 54V26ZM33 28.5C33.4205 28.5 33.8216 28.6765 34.1057 28.9864L48.8297 45.049L52.9393 40.9393C53.5251 40.3536 54.4749 40.3536 55.0607 40.9393L63.0607 48.9393C63.342 49.2206 63.5 49.6022 63.5 50V52C63.5 53.933 61.933 55.5 60 55.5H20C18.067 55.5 16.5 53.933 16.5 52V46.3636C16.5 45.9883 16.6407 45.6267 16.8943 45.3501L31.8943 28.9864C32.1784 28.6765 32.5795 28.5 33 28.5ZM58.9151 25.951C57.1112 24.9095 54.8888 24.9095 53.0849 25.951C51.2811 26.9924 50.1699 28.9171 50.1699 31C50.1699 33.0829 51.2811 35.0076 53.0849 36.049C54.8888 37.0905 57.1112 37.0905 58.9151 36.049C60.7189 35.0076 61.8301 33.0829 61.8301 31C61.8301 28.9171 60.7189 26.9924 58.9151 25.951Z" fill="currentColor" />
</svg>