<svg viewBox="0 0 80 80" fill="none">
  <path fill-rule="evenodd" clip-rule="evenodd" d="M68 12C70.2091 12 72 13.7909 72 16V34.9091V39.0703C70.8233 38.3896 69.4571 38 68 38L55.5418 38C52.076 38 49.0044 40.2317 47.9334 43.5279L46.4984 47.9443H33.5016L32.0666 43.5279C30.9956 40.2317 27.924 38 24.4582 38H12C10.5429 38 9.17669 38.3896 8 39.0703L8 34.9091L8 16C8 13.7909 9.79086 12 12 12L68 12ZM12 46H24.4582L25.8932 50.4164C26.9641 53.7126 30.0358 55.9443 33.5016 55.9443H46.4984C49.9642 55.9443 53.0359 53.7126 54.1068 50.4164L55.5418 46H68L68 64H12L12 46Z" fill="currentColor" />
  <path fill-rule="evenodd" clip-rule="evenodd" d="M28.2624 44.7639C27.7269 43.1158 26.1911 42 24.4582 42H12C9.79086 42 8 43.7909 8 46L8 64C8 66.2091 9.79086 68 12 68L68 68C70.2091 68 72 66.2091 72 64V46C72 43.7909 70.2091 42 68 42H55.5418C53.8089 42 52.2731 43.1158 51.7376 44.7639L50.3026 49.1803C49.7671 50.8284 48.2313 51.9443 46.4984 51.9443L33.5016 51.9443C31.7687 51.9443 30.2329 50.8284 29.6974 49.1803L28.2624 44.7639Z" fill="currentColor" />
</svg>