<svg viewBox="0 0 80 80" fill="none">
  <path d="M59 16C59 14.3431 57.6569 13 56 13C54.3431 13 53 14.3431 53 16H59ZM27 47.5C27 45.8431 25.6569 44.5 24 44.5C22.3431 44.5 21 45.8431 21 47.5H27ZM34.6667 13C33.0098 13 31.6667 14.3431 31.6667 16C31.6667 17.6569 33.0098 19 34.6667 19V13ZM56 19C57.6569 19 59 17.6569 59 16C59 14.3431 57.6569 13 56 13V19ZM59 40V16H53V40H59ZM59 48V40H53V48H59ZM27 48V47.5H21V48H27ZM40 61C32.8203 61 27 55.1797 27 48H21C21 58.4934 29.5066 67 40 67V61ZM40 67C50.4934 67 59 58.4934 59 48H53C53 55.1797 47.1797 61 40 61V67ZM34.6667 19H56V13H34.6667V19Z" fill="currentColor" />
</svg>