<svg viewBox="0 0 80 80" fill="none">
  <path d="M26 44H54V57.2174V60H26V57.2174V44Z" fill="currentColor" />
  <path fill-rule="evenodd" clip-rule="evenodd" d="M36 16C27.1634 16 20 23.1634 20 32V33.0494C24.3858 33.4848 27.9381 36.7539 28.8 41H51.2C52.0619 36.7539 55.6142 33.4848 60 33.0494V32C60 23.1634 52.8366 16 44 16H36ZM60 39.1304V39.126C58.2748 39.5701 57 41.1362 57 43V43.6282C58.7615 42.8951 60 41.1574 60 39.1304ZM23 43.6282V43C23 41.1362 21.7252 39.5701 20 39.126V39.1304C20 41.1574 21.2385 42.8951 23 43.6282Z" fill="currentColor" />
  <path d="M12 41.0661C12 38.2682 14.2682 36 17.0661 36H19C22.866 36 26 39.134 26 43V59C26 61.7614 23.7614 64 21 64C18.2386 64 16 61.7614 16 59V52.309C16 50.1455 15.3996 48.0244 14.2657 46.1818L12.7515 43.7212C12.2602 42.9228 12 42.0036 12 41.0661Z" fill="currentColor" />
  <path d="M68 41.0661C68 38.2682 65.7318 36 62.9339 36H61C57.134 36 54 39.134 54 43V59C54 61.7614 56.2386 64 59 64C61.7614 64 64 61.7614 64 59V52.309C64 50.1455 64.6004 48.0244 65.7343 46.1818L67.2485 43.7212C67.7398 42.9228 68 42.0036 68 41.0661Z" fill="currentColor" />
</svg>