<svg viewBox="0 0 80 80" fill="none">
  <path fill-rule="evenodd" clip-rule="evenodd" d="M23.5 29C25.1569 29 26.5 30.3431 26.5 32V40C26.5 47.1797 32.3203 53 39.5 53C46.6797 53 52.5 47.1797 52.5 40V32C52.5 30.3431 53.8431 29 55.5 29C57.1569 29 58.5 30.3431 58.5 32V40C58.5 49.4726 51.568 57.3261 42.5 58.7645V64H49.5C51.1569 64 52.5 65.3431 52.5 67C52.5 68.6569 51.1569 70 49.5 70H29.5C27.8431 70 26.5 68.6569 26.5 67C26.5 65.3431 27.8431 64 29.5 64H36.5V58.7645C27.432 57.3261 20.5 49.4726 20.5 40V32C20.5 30.3431 21.8431 29 23.5 29Z" fill="currentColor" />
  <path d="M30.5 21C30.5 16.0294 34.5294 12 39.5 12C44.4706 12 48.5 16.0294 48.5 21V21.5H40.5C39.6716 21.5 39 22.1716 39 23C39 23.8284 39.6716 24.5 40.5 24.5H48.5V28.5H40.5C39.6716 28.5 39 29.1716 39 30C39 30.8284 39.6716 31.5 40.5 31.5H48.5V35.5H40.5C39.6716 35.5 39 36.1716 39 37C39 37.8284 39.6716 38.5 40.5 38.5H48.5V39C48.5 43.9706 44.4706 48 39.5 48C34.5294 48 30.5 43.9706 30.5 39V21Z" fill="currentColor" />
</svg>