<svg viewBox="0 0 80 80" fill="none">
  <path d="M24 16V13C22.3431 13 21 14.3431 21 16H24ZM21 64C21 65.6569 22.3431 67 24 67C25.6569 67 27 65.6569 27 64H21ZM59 16C59 14.3431 57.6569 13 56 13C54.3431 13 53 14.3431 53 16H59ZM56 64V67C57.6569 67 59 65.6569 59 64H56ZM25.0667 16L27.6138 14.4151C27.0662 13.535 26.1032 13 25.0667 13V16ZM54.9333 64L52.3862 65.5849C52.9338 66.465 53.8968 67 54.9333 67V64ZM21 16V64H27V16H21ZM53 16V64H59V16H53ZM24 19H25.0667V13H24V19ZM22.5195 17.5849L52.3862 65.5849L57.4805 62.4151L27.6138 14.4151L22.5195 17.5849ZM54.9333 67H56V61H54.9333V67Z" fill="currentColor" />
</svg>