<svg viewBox="0 0 80 80" fill="none">
  <path fill-rule="evenodd" clip-rule="evenodd" d="M36 24V20C36 17.7909 34.2091 16 32 16L24 16C21.7909 16 20 17.7909 20 20V24L20 56.2807V60.2807C20 62.4898 21.7909 64.2807 24 64.2807H32C34.2091 64.2807 36 62.4898 36 60.2807L36 56.2807L36 24ZM60 24V20C60 17.7909 58.2091 16 56 16L48 16C45.7909 16 44 17.7909 44 20V24L44 56.2807V60.2807C44 62.4898 45.7909 64.2807 48 64.2807H56C58.2091 64.2807 60 62.4898 60 60.2807V56.2807L60 24Z" fill="currentColor" />
  <path d="M36 24L37.5 24L36 24ZM36 56.2807H37.5H37.5H36ZM44 24H45.5H44ZM44 56.2807H42.5H44ZM34.5 20V24L37.5 24V20H34.5ZM24 17.5L32 17.5V14.5L24 14.5V17.5ZM21.5 24V20H18.5V24H21.5ZM21.5 56.2807L21.5 24H18.5L18.5 56.2807H21.5ZM21.5 60.2807V56.2807H18.5V60.2807H21.5ZM32 62.7807H24V65.7807H32V62.7807ZM34.5 56.2807L34.5 60.2807H37.5V56.2807H34.5ZM34.5 24L34.5 56.2807H37.5L37.5 24L34.5 24ZM58.5 20V24H61.5V20H58.5ZM48 17.5L56 17.5V14.5L48 14.5V17.5ZM45.5 24V20H42.5V24H45.5ZM45.5 56.2807L45.5 24H42.5L42.5 56.2807H45.5ZM45.5 60.2807V56.2807H42.5V60.2807H45.5ZM56 62.7807H48V65.7807H56V62.7807ZM58.5 56.2807V60.2807H61.5V56.2807H58.5ZM58.5 24L58.5 56.2807H61.5L61.5 24H58.5ZM56 65.7807C59.0376 65.7807 61.5 63.3183 61.5 60.2807H58.5C58.5 61.6614 57.3807 62.7807 56 62.7807V65.7807ZM48 14.5C44.9624 14.5 42.5 16.9624 42.5 20H45.5C45.5 18.6193 46.6193 17.5 48 17.5V14.5ZM61.5 20C61.5 16.9624 59.0376 14.5 56 14.5V17.5C57.3807 17.5 58.5 18.6193 58.5 20H61.5ZM32 65.7807C35.0376 65.7807 37.5 63.3183 37.5 60.2807H34.5C34.5 61.6614 33.3807 62.7807 32 62.7807V65.7807ZM42.5 60.2807C42.5 63.3183 44.9624 65.7807 48 65.7807V62.7807C46.6193 62.7807 45.5 61.6614 45.5 60.2807H42.5ZM24 14.5C20.9624 14.5 18.5 16.9624 18.5 20H21.5C21.5 18.6193 22.6193 17.5 24 17.5V14.5ZM18.5 60.2807C18.5 63.3183 20.9624 65.7807 24 65.7807V62.7807C22.6193 62.7807 21.5 61.6614 21.5 60.2807H18.5ZM37.5 20C37.5 16.9624 35.0376 14.5 32 14.5V17.5C33.3807 17.5 34.5 18.6193 34.5 20H37.5Z" fill="currentColor" />
</svg>