<svg viewBox="0 0 80 80" fill="none">
  <path d="M40.08 40.0503L37.08 40.0529C37.0809 41.1229 37.6516 42.1113 38.5778 42.6471L40.08 40.0503ZM40.0572 13.6895L43.0572 13.6869C43.0557 12.0315 41.7138 10.6902 40.0585 10.6895L40.0572 13.6895ZM62.8076 53.1983L65.4032 54.7026C65.8023 54.0138 65.9114 53.1947 65.7063 52.4255C65.5012 51.6563 64.9989 51.0002 64.3098 50.6016L62.8076 53.1983ZM62.7956 53.2189L61.2979 55.8183C62.7298 56.6434 64.5594 56.1549 65.3896 54.7259L62.7956 53.2189ZM40.0454 40.1103L41.5431 37.5109C40.6161 36.9768 39.4747 36.9768 38.5476 37.5109L40.0454 40.1103ZM17.2952 53.2189L14.7012 54.7259C15.5314 56.1549 17.3609 56.6433 18.7929 55.8183L17.2952 53.2189ZM17.2832 53.1983L15.781 50.6015C15.0919 51.0002 14.5895 51.6564 14.3844 52.4257C14.1794 53.195 14.2885 54.0142 14.6878 54.7029L17.2832 53.1983ZM40.0107 40.0503L41.513 42.6471C42.4391 42.1113 43.0098 41.1229 43.0107 40.0529L40.0107 40.0503ZM40.0336 13.6895L40.0322 10.6895C38.3769 10.6902 37.035 12.0315 37.0336 13.6869L40.0336 13.6895ZM43.0455 40.1104C43.0455 38.4535 41.7023 37.1104 40.0455 37.1104C38.3886 37.1104 37.0455 38.4535 37.0455 40.1104H43.0455ZM37.0455 66.3122C37.0455 67.9691 38.3886 69.3122 40.0455 69.3122C41.7023 69.3122 43.0455 67.9691 43.0455 66.3122H37.0455ZM43.08 40.0477L43.0572 13.6869L37.0572 13.6921L37.08 40.0529L43.08 40.0477ZM64.3098 50.6016L41.5823 37.4535L38.5778 42.6471L61.3053 55.7951L64.3098 50.6016ZM60.2119 51.6941C60.2086 51.6998 60.2052 51.7057 60.2016 51.7119L65.3896 54.7259C65.394 54.7184 65.3985 54.7106 65.4032 54.7026L60.2119 51.6941ZM38.5476 42.7097L61.2979 55.8183L64.2934 50.6195L41.5431 37.5109L38.5476 42.7097ZM18.7929 55.8183L41.5431 42.7097L38.5476 37.5109L15.7974 50.6195L18.7929 55.8183ZM19.8892 51.7119C19.8855 51.7056 19.882 51.6995 19.8786 51.6937L14.6878 54.7029C14.6924 54.7108 14.6968 54.7185 14.7012 54.7259L19.8892 51.7119ZM38.5085 37.4535L15.781 50.6015L18.7855 55.7951L41.513 42.6471L38.5085 37.4535ZM37.0336 13.6869L37.0107 40.0477L43.0107 40.0529L43.0336 13.6921L37.0336 13.6869ZM40.0349 16.6895C40.0419 16.6895 40.0489 16.6895 40.0558 16.6895L40.0585 10.6895C40.0497 10.6895 40.041 10.6895 40.0322 10.6895L40.0349 16.6895ZM37.0455 40.1104V66.3122H43.0455V40.1104H37.0455Z" fill="currentColor" />
  <path d="M31.001 15.2754C36.8138 13.1597 43.1862 13.1597 48.999 15.2754V15.2754C54.8119 17.3911 59.6934 21.4872 62.7863 26.8443V26.8443C65.8793 32.2014 66.9858 38.477 65.9117 44.5689V44.5689C64.8375 50.6608 61.6513 56.1795 56.9126 60.1557V60.1557C52.174 64.1319 46.1859 66.3114 40 66.3114V66.3114C33.8141 66.3114 27.826 64.1319 23.0874 60.1557V60.1557C18.3487 56.1795 15.1625 50.6608 14.0883 44.5689V44.5689C13.0142 38.477 14.1207 32.2014 17.2137 26.8443V26.8443C20.3066 21.4872 25.1881 17.3911 31.001 15.2754V15.2754Z" stroke="currentColor" stroke-width="6" stroke-linecap="round" stroke-linejoin="round" />
</svg>