<svg viewBox="0 0 80 80" fill="none">
  <path d="M50.9067 68.8563C51.1542 70.0939 50.2076 71.2485 48.9455 71.2485L29.8249 71.2485C28.5628 71.2485 27.6162 70.0939 27.8637 68.8563L29.0637 62.8563C29.2507 61.9215 30.0715 61.2485 31.0249 61.2485L47.7456 61.2485C48.699 61.2485 49.5199 61.9215 49.7068 62.8563L50.9067 68.8563Z" fill="currentColor" />
  <path d="M48.8414 61.0659L30.8414 61.0659C30.2167 61.0659 29.6333 60.7537 29.2867 60.2339L23.7581 51.9409C21.3407 48.3148 21.0792 43.6632 23.075 39.789L35.4675 15.7328C35.5057 15.6587 35.5456 15.5859 35.5872 15.5143C36.3143 14.2624 37.8414 15.1222 37.8414 16.57L37.8414 38.4369C37.8414 39.1532 37.4269 39.7885 36.9365 40.3106C36.728 40.5327 36.5397 40.7845 36.3772 41.0659C34.8376 43.7326 36.7621 47.0659 39.8413 47.0659C42.9205 47.0659 44.845 43.7326 43.3054 41.0659C43.143 40.7845 42.9547 40.5328 42.7462 40.3107C42.2559 39.7886 41.8414 39.1533 41.8414 38.4371L41.8414 16.57C41.8414 15.1222 43.3686 14.2624 44.0956 15.5143C44.1372 15.5859 44.1771 15.6587 44.2153 15.7328L56.6079 39.789C58.6036 43.6632 58.3422 48.3148 55.9248 51.9409L55.1835 53.0527C55.1105 53.1623 55.0268 53.2644 54.9337 53.3575L48.3232 59.968C48.1822 60.109 48.1822 60.3376 48.3232 60.4786L48.8613 61.0167C48.8796 61.035 48.8672 61.0659 48.8414 61.0659Z" fill="currentColor" />
</svg>