<svg viewBox="0 0 80 80" fill="none">
  <path d="M38.0397 16.3252H16.3254V38.0395H24.5022C25.0381 38.0395 25.5516 38.2546 25.9276 38.6366C26.3035 39.0185 26.5105 39.5354 26.5019 40.0713C26.4936 40.5939 26.4192 41.1002 26.3128 41.5751C26.1568 42.3363 25.9122 43.0201 25.7168 43.5664L25.6794 43.6711C25.434 44.3589 25.2595 44.862 25.1725 45.3454C25.1541 45.4479 25.1439 45.5528 25.1427 45.6594C25.1645 46.35 25.5415 46.9825 26.1424 47.3294C26.3199 47.4319 26.5091 47.505 26.7034 47.5487C27.1381 47.6269 27.5939 47.5522 27.9882 47.3246C28.5752 46.9857 28.9368 46.3594 28.9368 45.6816C28.9368 45.5673 28.9266 45.455 28.9069 45.3454C28.8199 44.8619 28.6453 44.3588 28.3999 43.6709L28.3624 43.5661C28.0497 42.692 27.611 41.4654 27.611 40.1334V40.0395C27.611 38.9349 28.5064 38.0395 29.611 38.0395H38.0397V32.2687C37.9602 32.2971 37.8781 32.3266 37.7933 32.3573L37.7398 32.3766C37.1354 32.5953 36.3736 32.8709 35.5702 33.03C35.1898 33.1054 34.7993 33.1443 34.4039 33.1443C32.9507 33.1443 31.5724 32.6189 30.5012 31.7022C29.9049 31.2407 29.3936 30.6621 29.0043 29.9878C27.9509 28.1632 27.9509 25.9153 29.0043 24.0907C30.0577 22.2661 32.0045 21.1421 34.1114 21.1421C34.1558 21.1421 34.2002 21.1426 34.2446 21.1436C34.2976 21.1422 34.3507 21.1415 34.4039 21.1415C34.7993 21.1415 35.1897 21.1805 35.5701 21.2558C36.3734 21.4149 37.1351 21.6904 37.7394 21.909L37.793 21.9284C37.8779 21.9591 37.9601 21.9887 38.0397 22.0171V16.3252Z" fill="currentColor" />
  <path d="M42.0397 42.0395V47.703L42.2071 47.6427L42.2607 47.6233C42.865 47.4047 43.6267 47.1292 44.43 46.9701C44.8104 46.8948 45.2008 46.8558 45.5962 46.8558C46.9352 46.8558 48.2106 47.3019 49.2408 48.0891C49.9206 48.5721 50.5012 49.2013 50.9322 49.9478C51.9856 51.7724 51.9856 54.0203 50.9322 55.8449C50.1572 57.1872 48.8986 58.1504 47.4485 58.5657C46.8587 58.7572 46.2347 58.8586 45.5962 58.8586C45.2008 58.8586 44.8104 58.8196 44.4299 58.7443C43.6265 58.5851 42.8647 58.3096 42.2603 58.0909L42.2068 58.0715L42.252 57.9465L42.1928 57.9257L42.144 58.0477C42.1644 58.0558 42.1849 58.0636 42.2056 58.0711L42.0397 58.0114V63.7538H63.754V42.0395H55.4682" fill="currentColor" />
  <path d="M55.4682 42.0395C55.3302 42.0395 55.1952 42.0255 55.0651 41.9988L55.4682 42.0395Z" fill="currentColor" />
  <path d="M55.0651 41.9988C54.1537 41.8124 53.4681 41.006 53.4681 40.0395V39.8018C53.4681 38.4697 53.9068 37.2432 54.2195 36.369L54.257 36.2643C54.5024 35.5764 54.677 35.0732 54.764 34.5898C54.7837 34.4802 54.7939 34.3678 54.7939 34.2536C54.7939 34.165 54.7877 34.0773 54.7757 33.991C54.6954 33.4173 54.3555 32.9059 53.8455 32.6114C53.2585 32.2725 52.5353 32.2725 51.9483 32.6114C51.3614 32.9503 50.9998 33.5766 50.9998 34.2543C50.9998 34.3435 51.006 34.4315 51.0181 34.5179C51.0215 34.542 51.0253 34.5659 51.0296 34.5897C51.1166 35.0731 51.2911 35.5762 51.5365 36.264L51.5739 36.3688C51.8127 37.0364 52.125 37.9095 52.2592 38.8782C52.3008 39.178 52.3253 39.487 52.3253 39.8019V40.0395C52.3253 40.9629 51.6996 41.7401 50.849 41.9702C50.6821 42.0154 50.5065 42.0395 50.3253 42.0395C50.3253 42.0395 50.3254 42.0395 50.3253 42.0395H42.0397" fill="currentColor" />
  <path d="M42.0397 24.5025C42.0397 25.6071 41.1443 26.5025 40.0397 26.5025H40.0299C39.7599 26.5025 39.4943 26.4846 39.2349 26.4534C38.0684 26.3752 37.0071 25.9956 36.2267 25.7164L36.122 25.679C35.4341 25.4336 34.931 25.259 34.4476 25.1721C34.3832 25.1605 34.3179 25.1522 34.2517 25.1473C33.5961 25.1972 33.0026 25.5672 32.6706 26.1422C32.3131 26.7615 32.3131 27.5244 32.6706 28.1436C32.7688 28.3137 32.8898 28.4658 33.0286 28.597C33.3413 28.8143 33.7177 28.9364 34.1114 28.9364C34.2256 28.9364 34.338 28.9261 34.4476 28.9064C34.931 28.8194 35.4341 28.6449 36.122 28.3995L36.2267 28.3621C37.1008 28.0494 38.3273 27.6107 39.6593 27.6107H40.0397C41.1443 27.6107 42.0397 28.5061 42.0397 29.6107V38.0395H47.9208C47.8742 37.9047 47.8239 37.7622 47.7698 37.6108L47.7486 37.5513C47.5267 36.9297 47.2437 36.1369 47.0929 35.2987C47.0922 35.2947 47.0915 35.2906 47.0907 35.2865C47.0687 35.1624 47.0506 35.0373 47.0364 34.9113C47.0121 34.6943 46.9997 34.4747 46.9997 34.2536C46.9997 32.1467 48.1237 30.1999 49.9482 29.1465C51.7728 28.0931 54.0208 28.0931 55.8454 29.1465C57.4331 30.0632 58.4903 31.6563 58.738 33.4427C58.775 33.7095 58.794 33.9806 58.794 34.2543C58.794 34.6078 58.7623 34.9572 58.7009 35.2988C58.5501 36.1371 58.267 36.93 58.045 37.5516L58.0245 37.6092C58.0203 37.621 58.0157 37.6327 58.0116 37.6444C58.0156 37.6337 58.0195 37.623 58.0234 37.6123C57.9696 37.7631 57.9194 37.9051 57.873 38.0395H63.754V16.3252H42.0397V24.5025Z" fill="currentColor" />
  <path d="M16.3254 42.0395H21.989L21.9286 42.207L21.9092 42.2606C21.6906 42.8649 21.4151 43.6266 21.256 44.4299C21.1807 44.8103 21.1417 45.2007 21.1417 45.5962C21.1417 45.6308 21.142 45.6655 21.1426 45.7001C21.1492 47.7998 22.2719 49.7383 24.0911 50.7887C24.6639 51.1194 25.2785 51.3462 25.9085 51.4693C27.3344 51.7689 28.8446 51.5436 30.1438 50.7935C32.0007 49.7215 33.1445 47.7402 33.1445 45.5962C33.1445 45.2007 33.1056 44.8103 33.0302 44.4299C32.8711 43.6264 32.5955 42.8647 32.3768 42.2603L32.3575 42.2067L32.2972 42.0395H38.0397V50.3249C38.0397 51.4295 38.9352 52.3249 40.0397 52.3249H40.2772C41.6092 52.3249 42.8357 51.8862 43.7098 51.5735L43.8145 51.5361C44.5024 51.2907 45.0055 51.1161 45.4889 51.0292C45.5985 51.0095 45.7108 50.9992 45.8251 50.9992C46.2018 50.9992 46.5625 51.1109 46.8668 51.3108C47.0498 51.4611 47.2074 51.645 47.3295 51.8565C47.687 52.4757 47.687 53.2387 47.3295 53.8579C47.0905 54.2718 46.7161 54.5795 46.2806 54.738C46.1334 54.7744 45.9806 54.7935 45.8251 54.7935C45.7108 54.7935 45.5985 54.7832 45.4889 54.7635C45.0055 54.6765 44.5024 54.502 43.8145 54.2566L43.7098 54.2192C42.8357 53.9065 41.6092 53.4678 40.2772 53.4678H40.0397C38.9352 53.4678 38.0397 54.3632 38.0397 55.4678V63.7538H16.3254V42.0395Z" fill="currentColor" />
</svg>