<svg viewBox="0 0 80 80" fill="none">
  <path fill-rule="evenodd" clip-rule="evenodd" d="M64.7071 18.7071C64.2544 18.2544 63.6403 18 63 18H14.5C9.80558 18 6 21.8056 6 26.5V38.1005C6 44.439 8.51797 50.518 13 55C13.0702 55.0702 13.1903 55.0377 13.2174 54.9422C14.0896 51.8657 16.2394 49.2976 19.1371 47.9022C22.2102 46.4223 25.7898 46.4223 28.8629 47.9022C31.9359 49.3821 34.1678 52.1808 34.9268 55.506C35.2358 56.8602 36.3339 58 37.7229 58H44.2771C45.6661 58 46.7642 56.8602 47.0732 55.506C47.8322 52.1808 50.0641 49.3821 53.1371 47.9022C56.2102 46.4223 59.7898 46.4223 62.8629 47.9022C65.9359 49.3821 68.1678 52.1808 68.9268 55.506C68.9356 55.5447 68.9442 55.5834 68.9526 55.6221C69.2334 56.9153 70.2806 58 71.604 58C72.9273 58 74 56.9273 74 55.604V54.5V43.1C74 43.0448 73.9552 43 73.9 43H52C50.8954 43 50 42.1046 50 41V35C50 33.8954 50.8954 33 52 33H73C73.5523 33 74 32.5523 74 32V28.5C74 28.1799 73.8728 27.8728 73.6464 27.6464L64.7071 18.7071ZM20 33C18.8954 33 18 33.8954 18 35V41C18 42.1046 18.8954 43 20 43H36C37.1046 43 38 42.1046 38 41V35C38 33.8954 37.1046 33 36 33H20Z" fill="currentColor" />
  <path d="M19.1371 47.9022L18.2694 46.1002L18.2694 46.1002L19.1371 47.9022ZM28.8629 47.9022L29.7306 46.1002V46.1002L28.8629 47.9022ZM53.1371 47.9022L52.2694 46.1002V46.1002L53.1371 47.9022ZM62.8629 47.9022L63.7306 46.1002V46.1002L62.8629 47.9022ZM68.9268 55.506L70.8766 55.061L68.9268 55.506ZM68.9526 55.6221L66.9981 56.0465L68.9526 55.6221ZM73.6464 27.6464L75.0607 26.2322L73.6464 27.6464ZM13.2174 54.9422L11.2933 54.3967L13.2174 54.9422ZM14.5 20H63V16H14.5V20ZM8 38.1005V26.5H4V38.1005H8ZM18.2694 46.1002C14.8545 47.7447 12.3212 50.7711 11.2933 54.3967L15.1416 55.4877C15.8581 52.9604 17.6243 50.8505 20.0049 49.7041L18.2694 46.1002ZM29.7306 46.1002C26.1092 44.3563 21.8908 44.3563 18.2694 46.1002L20.0049 49.7041C22.5296 48.4883 25.4704 48.4883 27.9951 49.7041L29.7306 46.1002ZM36.8766 55.061C35.9822 51.1423 33.352 47.8442 29.7306 46.1002L27.9951 49.7041C30.5197 50.9199 32.3534 53.2192 32.9769 55.9511L36.8766 55.061ZM44.2771 56H37.7229V60H44.2771V56ZM52.2694 46.1002C48.648 47.8442 46.0178 51.1423 45.1234 55.061L49.0231 55.9511C49.6466 53.2192 51.4803 50.9199 54.0049 49.7041L52.2694 46.1002ZM63.7306 46.1002C60.1092 44.3563 55.8908 44.3563 52.2694 46.1002L54.0049 49.7041C56.5296 48.4883 59.4704 48.4883 61.9951 49.7041L63.7306 46.1002ZM70.8766 55.061C69.9822 51.1423 67.352 47.8442 63.7306 46.1002L61.9951 49.7041C64.5197 50.9199 66.3534 53.2192 66.9769 55.9511L70.8766 55.061ZM70.9071 55.1978C70.8972 55.1521 70.887 55.1066 70.8766 55.061L66.9769 55.9511C66.9841 55.9829 66.9912 56.0147 66.9981 56.0465L70.9071 55.1978ZM72 54.5V55.604H76V54.5H72ZM72 43.1V54.5H76V43.1H72ZM52 45H73.9V41H52V45ZM48 41C48 43.2091 49.7909 45 52 45V41H48ZM48 35V41H52V35H48ZM52 31C49.7909 31 48 32.7909 48 35H52V31ZM73 31H52V35H73V31ZM72 28.5V32H76V28.5H72ZM63.2929 20.1213L72.2322 29.0607L75.0607 26.2322L66.1213 17.2929L63.2929 20.1213ZM20 35V31C17.7909 31 16 32.7909 16 35H20ZM20 41V35H16V41H20ZM20 41H16C16 43.2091 17.7909 45 20 45V41ZM36 41H20V45H36V41ZM36 41V45C38.2091 45 40 43.2091 40 41H36ZM36 35V41H40V35H36ZM36 35H40C40 32.7909 38.2091 31 36 31V35ZM20 35H36V31H20V35ZM73 35C74.6569 35 76 33.6569 76 32H72C72 31.4477 72.4477 31 73 31V35ZM76 43.1C76 41.9402 75.0598 41 73.9 41V45C72.8506 45 72 44.1493 72 43.1H76ZM66.9981 56.0465C67.4224 58.0006 69.0981 60 71.604 60V56C71.5149 56 71.3962 55.9689 71.2542 55.836C71.102 55.6935 70.9653 55.4662 70.9071 55.1978L66.9981 56.0465ZM44.2771 60C46.8508 60 48.5681 57.9446 49.0231 55.9511L45.1234 55.061C45.0531 55.3689 44.8948 55.6314 44.7157 55.7986C44.5469 55.956 44.3979 56 44.2771 56V60ZM32.9769 55.9511C33.4319 57.9446 35.1492 60 37.7229 60V56C37.6022 56 37.4531 55.956 37.2843 55.7986C37.1052 55.6314 36.9469 55.3689 36.8766 55.061L32.9769 55.9511ZM4 38.1005C4 44.9695 6.72869 51.5571 11.5858 56.4142L14.4142 53.5858C10.3073 49.4788 8 43.9086 8 38.1005H4ZM14.5 16C8.70101 16 4 20.701 4 26.5H8C8 22.9101 10.9101 20 14.5 20V16ZM76 28.5C76 27.6494 75.6621 26.8337 75.0607 26.2322L72.2322 29.0607C72.0835 28.912 72 28.7103 72 28.5H76ZM71.604 60C74.0318 60 76 58.0318 76 55.604H72C72 55.8227 71.8227 56 71.604 56V60ZM11.5858 56.4142C12.7611 57.5896 14.708 57.0172 15.1416 55.4877L11.2933 54.3967C11.6727 53.0582 13.3793 52.5508 14.4142 53.5858L11.5858 56.4142ZM63 20C63.1099 20 63.2152 20.0436 63.2929 20.1213L66.1213 17.2929C65.2935 16.4651 64.1707 16 63 16V20Z" fill="currentColor" />
  <rect x="32" y="14" width="16" height="4" rx="2" fill="currentColor" stroke="currentColor" stroke-width="4" stroke-linecap="round" stroke-linejoin="round" />
  <path d="M50 35C50 33.8954 50.8954 33 52 33H66L74 43H52C50.8954 43 50 42.1046 50 41V35Z" stroke="currentColor" stroke-width="4" stroke-linecap="round" stroke-linejoin="round" />
  <path d="M20.8727 51.506C22.8489 50.5543 25.1511 50.5543 27.1273 51.506C29.1036 52.4578 30.5389 54.2576 31.027 56.3961C31.5151 58.5346 31.0029 60.779 29.6352 62.494C28.2676 64.2089 26.1935 65.2078 24 65.2078C21.8065 65.2078 19.7324 64.2089 18.3648 62.494C16.9971 60.779 16.4849 58.5346 16.973 56.3961C17.4611 54.2576 18.8964 52.4578 20.8727 51.506Z" fill="currentColor" />
  <path d="M54.8727 51.506C56.8489 50.5543 59.1511 50.5543 61.1273 51.506C63.1036 52.4578 64.5389 54.2576 65.027 56.3961C65.5151 58.5346 65.0029 60.779 63.6352 62.494C62.2676 64.2089 60.1935 65.2078 58 65.2078C55.8065 65.2078 53.7324 64.2089 52.3648 62.494C50.9971 60.779 50.4849 58.5346 50.973 56.3961C51.4611 54.2576 52.8964 52.4578 54.8727 51.506Z" fill="currentColor" />
</svg>