<svg viewBox="0 0 80 80" fill="none">
  <path fill-rule="evenodd" clip-rule="evenodd" d="M43.2695 15.1809C47.4276 15.7302 51.2634 17.3013 54.5163 19.6339L58.8239 15.3594C54.4153 11.9751 49.0711 9.74896 43.2462 9.13599L43.2695 15.1809ZM35.7135 15.3242L35.7369 9.25009C30.047 10.0259 24.8483 12.3456 20.5768 15.7733L24.8699 20.0335C27.9925 17.665 31.6887 16.0135 35.7135 15.3242ZM19.6024 25.4556L15.3267 21.1467C12.0456 25.4361 9.85926 30.6074 9.18506 36.2433L15.2426 36.2199C15.8389 32.2492 17.3691 28.5842 19.6024 25.4556ZM15.2534 43.7799L9.19365 43.7565C9.87983 49.3823 12.0731 54.5428 15.3574 58.822L19.632 54.5143C17.396 51.3953 15.8599 47.7406 15.2534 43.7799ZM24.9106 59.9259L20.6164 64.187C24.8804 67.5973 30.0645 69.9051 35.7368 70.6785L35.7133 64.6044C31.706 63.918 28.0245 62.2778 24.9106 59.9259ZM43.2697 64.7477L43.2464 70.7926C49.0534 70.1815 54.3827 67.9671 58.7835 64.6002L54.4747 60.3245C51.2308 62.6406 47.41 64.2007 43.2697 64.7477ZM59.8934 55.0603L64.1535 59.3534C67.6699 54.9721 70.0206 49.615 70.7349 43.7527L64.6753 43.7761C64.0334 47.9719 62.3484 51.8242 59.8934 55.0603ZM64.6861 36.2236L70.7435 36.247C70.0417 30.3745 67.6982 25.0063 64.185 20.6145L59.9239 24.9086C62.3762 28.1547 64.055 32.0177 64.6861 36.2236Z" fill="currentColor" />
</svg>