<svg viewBox="0 0 80 80" fill="none">
  <path fill-rule="evenodd" clip-rule="evenodd" d="M55.519 18.9637C54.0527 20.4187 54.0481 22.7883 55.5088 24.2489L55.5707 24.3108C57.0314 25.7715 59.401 25.7669 60.8559 24.3006C62.303 22.8423 62.2985 20.4885 60.8458 19.0358L60.7839 18.9739C59.3312 17.5212 56.9773 17.5166 55.519 18.9637ZM69.4745 39.8352C69.4745 37.7976 67.8268 36.1435 65.7892 36.1356C63.7403 36.1277 62.0752 37.7864 62.0752 39.8352V39.9832C62.0752 42.032 63.7403 43.6907 65.7892 43.6828C67.8268 43.6749 69.4745 42.0209 69.4745 39.9832V39.8352ZM60.8914 60.7392C62.3195 59.3112 62.324 56.9972 60.9014 55.5636C59.4711 54.1222 57.1417 54.1177 55.7058 55.5536L55.5548 55.7046C54.1189 57.1405 54.1234 59.4699 55.5648 60.9002C56.9984 62.3228 59.3124 62.3183 60.7404 60.8902L60.8914 60.7392ZM40.033 69.4745C42.0438 69.4745 43.676 67.8485 43.6838 65.8378C43.6916 63.816 42.0548 62.1729 40.033 62.1729H39.7878C37.766 62.1729 36.1292 63.816 36.137 65.8378C36.1448 67.8485 37.777 69.4745 39.7878 69.4745L40.033 69.4745ZM19.0844 60.8944C20.5102 62.3202 22.8205 62.3247 24.2518 60.9044C25.6909 59.4763 25.6954 57.1506 24.2618 55.717L24.1027 55.5578C22.669 54.1242 20.3433 54.1287 18.9152 55.5678C17.495 56.9991 17.4994 59.3094 18.9252 60.7352L19.0844 60.8944ZM10.3462 39.9915C10.3462 42.0246 11.9902 43.675 14.0233 43.6829C16.0676 43.6908 17.729 42.0357 17.729 39.9915V39.827C17.729 37.7827 16.0676 36.1277 14.0233 36.1356C11.9902 36.1434 10.3462 37.7938 10.3462 39.827V39.9915ZM18.9709 19.0398C17.5204 20.4902 17.5159 22.8404 18.9607 24.2964C20.4135 25.7604 22.7794 25.765 24.2377 24.3066L24.3078 24.2365C25.7662 22.7782 25.7616 20.4123 24.2976 18.9595C22.8416 17.5147 20.4914 17.5193 19.041 18.9697L18.9709 19.0398ZM39.9104 10.3462C37.8504 10.3462 36.1445 12.012 36.1366 14.072C36.1286 16.1433 37.8391 17.8266 39.9104 17.8266C41.9817 17.8266 43.6922 16.1433 43.6842 14.072C43.6763 12.012 41.9704 10.3462 39.9104 10.3462Z" fill="currentColor" />
  <path d="M18.9252 60.7352L17.8646 61.7959L18.9252 60.7352ZM24.1027 55.5578L23.042 56.6185L24.1027 55.5578ZM24.2618 55.717L25.3225 54.6563L24.2618 55.717ZM39.7878 69.4745L39.7878 70.9745L39.7878 69.4745ZM60.8458 19.0358L59.7851 20.0964L60.8458 19.0358ZM56.6314 23.2502L56.5695 23.1883L54.4481 25.3096L54.51 25.3715L56.6314 23.2502ZM61.9064 17.9751L61.8445 17.9132L59.7232 20.0345L59.7851 20.0964L61.9064 17.9751ZM63.5752 39.9832V39.8352H60.5752V39.9832H63.5752ZM70.9745 39.9832V39.8352H67.9745V39.9832H70.9745ZM56.6155 56.7652L56.7664 56.6143L54.6451 54.4929L54.4941 54.6439L56.6155 56.7652ZM61.8011 61.9509L61.9521 61.7999L59.8308 59.6786L59.6798 59.8296L61.8011 61.9509ZM39.7878 63.6729H40.033V60.6729H39.7878V63.6729ZM39.7878 70.9745L40.033 70.9745L40.033 67.9745L39.7878 67.9745L39.7878 70.9745ZM23.042 56.6185L23.2012 56.7776L25.3225 54.6563L25.1633 54.4971L23.042 56.6185ZM17.8646 61.7959L18.0237 61.9551L20.1451 59.8337L19.9859 59.6746L17.8646 61.7959ZM16.229 39.827V39.9915H19.229V39.827H16.229ZM8.84619 39.827V39.9915H11.8462V39.827H8.84619ZM23.2472 23.1759L23.1771 23.246L25.2984 25.3673L25.3685 25.2972L23.2472 23.1759ZM17.9803 17.909L17.9102 17.9791L20.0315 20.1004L20.1016 20.0303L17.9803 17.909ZM45.1842 14.0662C45.173 11.1626 42.7791 8.84619 39.9104 8.84619V11.8462C41.1618 11.8462 42.1796 12.8613 42.1843 14.0778L45.1842 14.0662ZM39.9104 19.3266C42.7949 19.3266 45.1955 16.9856 45.1842 14.0662L42.1843 14.0778C42.189 15.301 41.1686 16.3266 39.9104 16.3266V19.3266ZM37.6366 14.0778C37.6413 12.8613 38.6591 11.8462 39.9104 11.8462V8.84619C37.0417 8.84619 34.6478 11.1626 34.6366 14.0662L37.6366 14.0778ZM34.6366 14.0662C34.6253 16.9856 37.0259 19.3266 39.9104 19.3266V16.3266C38.6522 16.3266 37.6318 15.301 37.6366 14.0778L34.6366 14.0662ZM25.3542 17.8948C23.3117 15.868 20.0149 15.8744 17.9803 17.909L20.1016 20.0303C20.9679 19.1641 22.3715 19.1614 23.2411 20.0243L25.3542 17.8948ZM25.3685 25.2972C27.4143 23.2514 27.4078 19.9326 25.3542 17.8948L23.2411 20.0243C24.1154 20.8919 24.1182 22.3049 23.2472 23.1759L25.3685 25.2972ZM20.0255 23.2399C19.1626 22.3703 19.1653 20.9667 20.0315 20.1004L17.9102 17.9791C15.8756 20.0137 15.8692 23.3105 17.896 25.353L20.0255 23.2399ZM17.896 25.353C19.9338 27.4066 23.2526 27.4131 25.2984 25.3673L23.1771 23.246C22.3061 24.117 20.8931 24.1142 20.0255 23.2399L17.896 25.353ZM14.0175 34.6356C11.1583 34.6466 8.84619 36.9676 8.84619 39.827H11.8462C11.8462 38.62 12.8222 37.6402 14.0291 37.6356L14.0175 34.6356ZM19.229 39.827C19.229 36.952 16.8925 34.6245 14.0175 34.6356L14.0291 37.6356C15.2427 37.6309 16.229 38.6134 16.229 39.827H19.229ZM14.0291 42.1829C12.8222 42.1782 11.8462 41.1985 11.8462 39.9915H8.84619C8.84619 42.8508 11.1583 45.1718 14.0176 45.1828L14.0291 42.1829ZM14.0176 45.1828C16.8925 45.1939 19.229 42.8664 19.229 39.9915H16.229C16.229 41.2051 15.2427 42.1876 14.0291 42.1829L14.0176 45.1828ZM17.8505 54.5113C15.8483 56.529 15.8546 59.7859 17.8646 61.7959L19.9859 59.6746C19.1443 58.833 19.1416 57.4692 19.98 56.6244L17.8505 54.5113ZM25.1633 54.4971C23.1423 52.4761 19.8637 52.4825 17.8505 54.5113L19.98 56.6244C20.8229 55.7749 22.1958 55.7722 23.042 56.6185L25.1633 54.4971ZM23.1953 59.8396C22.3504 60.678 20.9867 60.6754 20.1451 59.8337L18.0237 61.9551C20.0337 63.9651 23.2906 63.9713 25.3084 61.9691L23.1953 59.8396ZM25.3084 61.9691C27.3372 59.956 27.3435 56.6773 25.3225 54.6563L23.2012 56.7776C24.0474 57.6239 24.0447 58.9967 23.1953 59.8396L25.3084 61.9691ZM34.637 65.8436C34.648 68.6805 36.9509 70.9745 39.7878 70.9745L39.7878 67.9745C38.6032 67.9745 37.6416 67.0166 37.637 65.832L34.637 65.8436ZM39.7878 60.6729C36.9353 60.6729 34.626 62.9911 34.637 65.8436L37.637 65.832C37.6324 64.6409 38.5967 63.6729 39.7878 63.6729V60.6729ZM42.1838 65.832C42.1792 67.0166 41.2176 67.9745 40.033 67.9745L40.033 70.9745C42.87 70.9745 45.1728 68.6805 45.1838 65.8436L42.1838 65.832ZM45.1838 65.8436C45.1948 62.9911 42.8855 60.6729 40.033 60.6729V63.6729C41.2241 63.6729 42.1884 64.6409 42.1838 65.832L45.1838 65.8436ZM54.5083 61.965C56.5283 63.9694 59.7889 63.9632 61.8011 61.9509L59.6798 59.8296C58.8359 60.6735 57.4685 60.6761 56.6214 59.8355L54.5083 61.965ZM54.4941 54.6439C52.4709 56.6672 52.4772 59.9495 54.5083 61.965L56.6214 59.8355C55.7696 58.9903 55.767 57.6138 56.6155 56.7652L54.4941 54.6439ZM59.8367 56.6202C60.6773 57.4673 60.6747 58.8347 59.8308 59.6786L61.9521 61.7999C63.9644 59.7877 63.9706 56.5271 61.9662 54.5071L59.8367 56.6202ZM61.9662 54.5071C59.9507 52.476 56.6684 52.4697 54.6451 54.4929L56.7664 56.6143C57.6149 55.7658 58.9915 55.7684 59.8367 56.6202L61.9662 54.5071ZM65.795 45.1828C68.6588 45.1717 70.9745 42.847 70.9745 39.9832H67.9745C67.9745 41.1947 66.9948 42.1781 65.7834 42.1828L65.795 45.1828ZM60.5752 39.9832C60.5752 42.8627 62.9155 45.1939 65.795 45.1828L65.7834 42.1828C64.5652 42.1875 63.5752 41.2013 63.5752 39.9832H60.5752ZM65.7834 37.6356C66.9948 37.6403 67.9745 38.6237 67.9745 39.8352H70.9745C70.9745 36.9714 68.6588 34.6467 65.795 34.6356L65.7834 37.6356ZM65.795 34.6356C62.9155 34.6245 60.5752 36.9557 60.5752 39.8352H63.5752C63.5752 38.6171 64.5652 37.6309 65.7834 37.6356L65.795 34.6356ZM61.8445 17.9132C59.8076 15.8763 56.5072 15.8699 54.4624 17.8989L56.5756 20.0284C57.4474 19.1633 58.8547 19.166 59.7232 20.0345L61.8445 17.9132ZM61.9207 25.3572C63.9497 23.3125 63.9433 20.012 61.9064 17.9751L59.7851 20.0964C60.6536 20.9649 60.6563 22.3722 59.7912 23.2441L61.9207 25.3572ZM56.5695 23.1883C55.6962 22.315 55.6989 20.8983 56.5756 20.0284L54.4624 17.8989C52.4065 19.939 52.4001 23.2615 54.4481 25.3096L56.5695 23.1883ZM54.51 25.3715C56.5581 27.4195 59.8806 27.4131 61.9207 25.3572L59.7912 23.2441C58.9213 24.1207 57.5046 24.1234 56.6314 23.2502L54.51 25.3715Z" fill="currentColor" />
</svg>