<svg viewBox="0 0 80 80" fill="none">
  <path fill-rule="evenodd" clip-rule="evenodd" d="M75.3185 41.3327C76.1512 40.6064 76.2402 39.3392 75.4785 38.5387C74.0082 36.9935 72.4302 35.5465 70.7537 34.2095C65.2572 29.8262 58.8437 26.7377 51.9897 25.1733C45.1357 23.6089 38.0173 23.6089 31.1633 25.1733C24.3093 26.7377 17.8958 29.8262 12.3993 34.2095C10.6864 35.5755 9.07627 37.0563 7.57888 38.6394C6.81814 39.4437 6.91295 40.7134 7.75142 41.4363L28.5696 59.3848C29.4061 60.1061 30.6613 60.001 31.4854 59.2655C32.6168 58.256 33.8947 57.4177 35.279 56.7811C37.2706 55.865 39.4358 55.3877 41.628 55.3814C43.8202 55.375 45.9882 55.8399 47.9851 56.7444C49.373 57.3731 50.6558 58.2039 51.7929 59.2069C52.6213 59.9376 53.877 60.0354 54.7094 59.3094L75.3185 41.3327ZM39.526 30.2728C39.5262 29.1684 40.4214 28.2732 41.5258 28.2731H41.5354C42.6397 28.2732 43.535 29.1684 43.5352 30.2728L43.5355 32.2728C43.5356 32.8033 43.3249 33.3121 42.9497 33.6873C42.5746 34.0624 42.0658 34.2731 41.5353 34.2731H41.5259C40.9954 34.2731 40.4866 34.0624 40.1114 33.6873C39.7363 33.3121 39.5256 32.8033 39.5257 32.2728L39.526 30.2728ZM51.9153 31.5522C52.2549 30.5077 53.3732 29.9324 54.4204 30.2636L54.4296 30.2665C54.9377 30.4274 55.3607 30.7844 55.6045 31.2584C55.8483 31.7324 55.8929 32.2841 55.7282 32.791L55.1105 34.6933C54.7712 35.7381 53.6527 36.3137 52.6053 35.9825L52.5964 35.9797C52.0879 35.819 51.6646 35.4619 51.4206 34.9877C51.1766 34.5135 51.1321 33.9614 51.2969 33.4543L51.9153 31.5522ZM28.6404 30.2638C29.6877 29.9323 30.8063 30.5076 31.1459 31.5522L31.7642 33.4543C31.9291 33.9614 31.8846 34.5134 31.6406 34.9876C31.3967 35.4618 30.9734 35.8189 30.4649 35.9797L30.4561 35.9824C29.4087 36.3138 28.29 35.7382 27.9507 34.6933L27.3329 32.791C27.1683 32.2842 27.2128 31.7325 27.4566 31.2586C27.7003 30.7846 28.1232 30.4276 28.6313 30.2667L28.6404 30.2638ZM63.3698 36.5306C64.0123 35.6465 65.2457 35.4419 66.1393 36.0713L66.1436 36.0743L66.1469 36.0767C66.5846 36.385 66.8804 36.856 66.9681 37.3842C67.0557 37.9125 66.9279 38.4538 66.6133 38.887L65.4378 40.5054C64.7956 41.3896 63.5625 41.5946 62.6687 40.9657L62.6611 40.9604C62.2228 40.6521 61.9266 40.1809 61.8387 39.6523C61.7509 39.1238 61.8788 38.5821 62.1938 38.1486L63.3698 36.5306ZM16.9216 36.0716C17.8152 35.4419 19.0488 35.6464 19.6914 36.5306L20.8674 38.1487C21.1824 38.5821 21.3103 39.1237 21.2225 39.6523C21.1347 40.1808 20.8385 40.652 20.4003 40.9603L20.3929 40.9655C19.4991 41.5947 18.2657 41.3898 17.6234 40.5054L16.4479 38.887C16.1333 38.4539 16.0055 37.9127 16.0931 37.3846C16.1806 36.8565 16.4763 36.3855 16.9138 36.0771L16.9216 36.0716ZM43.5306 38C43.5306 36.8954 42.6352 36 41.5306 36C40.4261 36 39.5306 36.8954 39.5306 38L39.5306 50C39.5306 51.1046 40.4261 52 41.5306 52C42.6352 52 43.5306 51.1046 43.5306 50L43.5306 38Z" fill="currentColor" />
</svg>