<svg viewBox="0 0 80 80" fill="none">
  <path d="M36.8039 50.0002C36.8039 48.8583 37.4131 47.8032 38.402 47.2322C39.3909 46.6613 40.6092 46.6613 41.5981 47.2322C42.587 47.8032 43.1962 48.8583 43.1962 50.0002C43.1962 51.1421 42.587 52.1972 41.5981 52.7681C40.6092 53.3391 39.3909 53.3391 38.402 52.7681C37.4131 52.1972 36.8039 51.1421 36.8039 50.0002Z" fill="currentColor" />
  <path fill-rule="evenodd" clip-rule="evenodd" d="M51.3138 16.6865C44.0697 13.6859 35.9304 13.6859 28.6863 16.6865C21.4423 19.6871 15.6869 25.4424 12.6863 32.6865C9.68577 39.9305 9.68577 48.0698 12.6864 55.3139C14.3937 59.4357 16.9928 63.0755 20.2506 66.0002H59.7495C63.0073 63.0755 65.6065 59.4357 67.3138 55.3139C70.3144 48.0698 70.3144 39.9305 67.3138 32.6865C64.3132 25.4424 58.5578 19.6871 51.3138 16.6865ZM37.9973 20.8044C37.9976 19.7001 38.8928 18.805 39.997 18.8049H40.0031C41.1074 18.805 42.0026 19.7001 42.0029 20.8044L42.0034 22.8044C42.0035 23.3349 41.7928 23.8438 41.4177 24.219C41.0425 24.5942 40.5336 24.805 40.0031 24.8049H39.9971C39.4665 24.805 38.9576 24.5942 38.5825 24.219C38.2073 23.8438 37.9966 23.3349 37.9968 22.8044L37.9973 20.8044ZM49.8621 22.9131C50.4145 21.9568 51.6375 21.6293 52.5939 22.1815L52.5982 22.184C53.5544 22.7362 53.8829 23.9594 53.331 24.9159L52.3315 26.6482C52.0662 27.1079 51.6291 27.4433 51.1164 27.5806C50.6038 27.7179 50.0575 27.6457 49.5981 27.3801L49.5926 27.377C48.6364 26.8243 48.3092 25.6012 48.8616 24.6449L49.8621 22.9131ZM28.9234 21.9816C29.4358 22.1187 29.8727 22.4538 30.1381 22.9131L31.1385 24.6449C31.691 25.6012 31.3637 26.8243 30.4075 27.377L30.4021 27.3801C29.9426 27.6458 29.3964 27.7179 28.8837 27.5806C28.371 27.4433 27.9339 27.1079 27.6687 26.6482L26.6691 24.9159C26.1174 23.9598 26.4447 22.7375 27.4003 22.185L27.4058 22.1818C27.8651 21.9164 28.411 21.8444 28.9234 21.9816ZM59.0773 30.6733C60.0338 30.1214 61.2566 30.4491 61.8088 31.4054L61.8134 31.4133C62.3633 32.3695 62.0352 33.5905 61.0801 34.1423L59.3483 35.1427C58.8888 35.4082 58.3427 35.4801 57.8301 35.3427C57.3175 35.2054 56.8806 34.8699 56.6154 34.4102L56.613 34.4061L56.6121 34.4045C56.0602 33.4478 56.3884 32.2248 57.345 31.6729L59.0773 30.6733ZM19.4046 30.474C19.9171 30.3364 20.4632 30.4081 20.9228 30.6733L22.6552 31.6729C23.6115 32.2247 23.9398 33.4472 23.3884 34.4038L23.3855 34.4089C23.1205 34.869 22.6835 35.2049 22.1708 35.3425C21.658 35.4802 21.1116 35.4083 20.6518 35.1427L18.92 34.1423C17.9644 33.5902 17.6366 32.3683 18.1875 31.412L18.1905 31.407C18.4554 30.9472 18.8922 30.6116 19.4046 30.474ZM16.8265 41.9974L18.8265 41.9969C19.9305 41.9966 20.826 42.891 20.827 43.995L20.827 44.0011C20.8276 44.5321 20.6171 45.0415 20.2419 45.4171C19.8666 45.7927 19.3574 46.0036 18.8265 46.0035L16.8265 46.003C15.7229 46.0027 14.8282 45.1087 14.827 44.0051L14.827 43.9991C14.8265 43.4684 15.037 42.9594 15.412 42.5839C15.787 42.2085 16.2958 41.9975 16.8265 41.9974ZM59.7591 42.5825C60.1343 42.2074 60.6432 41.9967 61.1737 41.9969L63.1737 41.9974C64.2781 41.9977 65.1732 42.893 65.1732 43.9974L65.1732 44.003C65.1732 45.1074 64.278 46.0027 63.1737 46.003L61.1737 46.0035C60.6432 46.0036 60.1343 45.793 59.7591 45.4179C59.384 45.0428 59.1732 44.534 59.1732 44.0035L59.1732 43.9969C59.1732 43.4663 59.384 42.9576 59.7591 42.5825ZM20.6711 52.8465C21.6271 52.2943 22.8498 52.6211 23.4027 53.5768L23.4058 53.5822C23.6718 54.0417 23.7441 54.5881 23.6069 55.1009C23.4697 55.6138 23.1342 56.0511 22.6744 56.3164L20.9421 57.316C19.986 57.8676 18.7637 57.5404 18.2111 56.5848L18.2101 56.5831L18.2081 56.5796C17.9427 56.1203 17.8706 55.5743 18.0077 55.0618C18.1448 54.5494 18.4799 54.1124 18.9393 53.847L20.6711 52.8465ZM56.5975 53.5768C57.1504 52.6211 58.3731 52.2943 59.3291 52.8465L61.0609 53.847C61.5204 54.1125 61.8556 54.5497 61.9926 55.0625C62.1297 55.5752 62.0572 56.1214 61.7914 56.5807L61.7903 56.5825L61.7886 56.5856C61.2358 57.5406 60.0139 57.8675 59.0581 57.316L57.3258 56.3164C56.866 56.0511 56.5305 55.6139 56.3933 55.1011C56.2561 54.5884 56.3283 54.042 56.5941 53.5826L56.5954 53.5804L56.5975 53.5768ZM42.0001 32.0002C42.0001 30.8956 41.1046 30.0002 40.0001 30.0002C38.8955 30.0002 38.0001 30.8956 38.0001 32.0002L38.0001 43.0874C37.4486 43.2469 36.9117 43.4738 36.402 43.7681C34.1755 45.0536 32.8039 47.4292 32.8039 50.0002C32.8039 52.5711 34.1755 54.9468 36.402 56.2322C38.6285 57.5177 41.3716 57.5177 43.5981 56.2322C45.8246 54.9468 47.1962 52.5711 47.1962 50.0002C47.1962 47.4292 45.8246 45.0536 43.5981 43.7681C43.0884 43.4738 42.5516 43.2469 42.0001 43.0874V32.0002Z" fill="currentColor" />
</svg>