<svg viewBox="0 0 80 80" fill="none">
  <path fill-rule="evenodd" clip-rule="evenodd" d="M75.3183 41.3327C76.151 40.6064 76.24 39.3392 75.4784 38.5387C74.0081 36.9935 72.43 35.5465 70.7535 34.2095C65.257 29.8262 58.8436 26.7377 51.9896 25.1733C45.1356 23.6089 38.0172 23.6089 31.1632 25.1733C24.3092 26.7377 17.8957 29.8262 12.3992 34.2095C10.6863 35.5755 9.07615 37.0563 7.57876 38.6394C6.81802 39.4437 6.91283 40.7134 7.7513 41.4363L28.5694 59.3848C29.406 60.1061 30.6612 60.001 31.4853 59.2655C32.6166 58.256 33.8946 57.4177 35.2788 56.7811C37.2705 55.865 39.4357 55.3877 41.6279 55.3814C43.8201 55.375 45.9881 55.8399 47.985 56.7444C49.3729 57.3731 50.6556 58.2039 51.7928 59.2069C52.6212 59.9376 53.8769 60.0354 54.7093 59.3094L75.3183 41.3327ZM39.5259 30.2728C39.526 29.1684 40.4213 28.2732 41.5256 28.2731H41.5353C42.6396 28.2732 43.5349 29.1684 43.535 30.2728L43.5354 32.2728C43.5354 32.8033 43.3247 33.3121 42.9496 33.6873C42.5745 34.0624 42.0657 34.2731 41.5351 34.2731H41.5258C40.9953 34.2731 40.4864 34.0624 40.1113 33.6873C39.7362 33.3121 39.5255 32.8033 39.5256 32.2728L39.5259 30.2728ZM51.9152 31.5522C52.2547 30.5077 53.3731 29.9324 54.4203 30.2636L54.4294 30.2665C54.9376 30.4274 55.3606 30.7844 55.6044 31.2584C55.8482 31.7324 55.8928 32.2841 55.7281 32.791L55.1104 34.6933C54.7711 35.7381 53.6526 36.3137 52.6052 35.9825L52.5963 35.9797C52.0878 35.819 51.6645 35.4619 51.4205 34.9877C51.1764 34.5135 51.1319 33.9614 51.2968 33.4543L51.9152 31.5522ZM28.6403 30.2638C29.6876 29.9323 30.8061 30.5076 31.1458 31.5522L31.7641 33.4543C31.929 33.9614 31.8845 34.5134 31.6405 34.9876C31.3965 35.4618 30.9733 35.8189 30.4648 35.9797L30.456 35.9824C29.4085 36.3138 28.2899 35.7382 27.9506 34.6933L27.3328 32.791C27.1682 32.2842 27.2127 31.7325 27.4565 31.2586C27.7002 30.7846 28.1231 30.4276 28.6311 30.2667L28.6403 30.2638ZM63.3696 36.5306C64.0122 35.6465 65.2455 35.4419 66.1391 36.0713L66.1435 36.0743L66.1468 36.0767C66.5845 36.385 66.8803 36.856 66.968 37.3842C67.0556 37.9125 66.9278 38.4538 66.6132 38.887L65.4377 40.5054C64.7955 41.3896 63.5623 41.5946 62.6685 40.9657L62.661 40.9604C62.2227 40.6521 61.9264 40.1809 61.8386 39.6523C61.7507 39.1238 61.8787 38.5821 62.1937 38.1486L63.3696 36.5306ZM16.9215 36.0716C17.815 35.4419 19.0486 35.6464 19.6913 36.5306L20.8673 38.1487C21.1823 38.5821 21.3102 39.1237 21.2224 39.6523C21.1346 40.1808 20.8384 40.652 20.4002 40.9603L20.3927 40.9655C19.499 41.5947 18.2656 41.3898 17.6232 40.5054L16.4478 38.887C16.1332 38.4539 16.0054 37.9127 16.0929 37.3846C16.1805 36.8565 16.4761 36.3855 16.9137 36.0771L16.9215 36.0716ZM43.5305 38C43.5305 36.8954 42.6351 36 41.5305 36C40.4259 36 39.5305 36.8954 39.5305 38L39.5305 50C39.5305 51.1046 40.4259 52 41.5305 52C42.6351 52 43.5305 51.1046 43.5305 50L43.5305 38Z" fill="currentColor" />
</svg>