<svg viewBox="0 0 80 80" fill="none">
  <path fill-rule="evenodd" clip-rule="evenodd" d="M17.8564 19C17.8564 15.9698 19.5684 13.1997 22.2787 11.8446C24.5309 10.7185 27.1819 10.7185 29.4341 11.8446C32.1444 13.1997 33.8564 15.9698 33.8564 19V42.7063C33.8564 43.3557 34.1782 43.9573 34.679 44.3707C37.8363 46.9771 39.7128 50.8828 39.7128 55.0557C39.7128 60.0061 37.0718 64.5805 32.7846 67.0557C28.4974 69.5309 23.2154 69.5309 18.9282 67.0557C14.641 64.5805 12 60.0061 12 55.0557C12 50.8828 13.8766 46.9771 17.0338 44.3707C17.5346 43.9573 17.8564 43.3557 17.8564 42.7063L17.8564 19ZM22.5329 49H29.2668C29.2979 49.0194 29.3294 49.0383 29.3611 49.0566C31.5047 50.2942 32.8252 52.5814 32.8252 55.0566C32.8252 57.5318 31.5047 59.819 29.3611 61.0566C27.2175 62.2942 24.5765 62.2942 22.4329 61.0566C20.2893 59.819 18.9688 57.5318 18.9688 55.0566C18.9688 52.5814 20.2893 50.2942 22.4329 49.0566C22.4661 49.0375 22.4995 49.0186 22.5329 49Z" fill="currentColor" />
  <path d="M53.0401 11.4568C52.2321 10.7037 50.9665 10.7482 50.2134 11.5562C49.4603 12.3642 49.5048 13.6298 50.3128 14.3829L53.0401 11.4568ZM55.0016 16.0191L53.638 17.4821C54.4061 18.1981 55.5971 18.1981 56.3653 17.4821L55.0016 16.0191ZM49.0178 19.4738L49.603 21.3863C50.6071 21.079 51.2026 20.0476 50.9667 19.0244L49.0178 19.4738ZM49.9453 14.5951C49.697 13.5188 48.6233 12.8475 47.547 13.0957C46.4707 13.3439 45.7993 14.4176 46.0475 15.4939L49.9453 14.5951ZM59.6894 14.3838C60.4974 13.6307 60.542 12.3651 59.7888 11.5571C59.0357 10.7491 57.7702 10.7046 56.9622 11.4577L59.6894 14.3838ZM63.9554 15.4953C64.2036 14.4189 63.5323 13.3452 62.456 13.097C61.3796 12.8488 60.3059 13.5201 60.0577 14.5964L63.9554 15.4953ZM60.9854 19.4738L59.0366 19.0244C58.8006 20.0476 59.3961 21.079 60.4002 21.3863L60.9854 19.4738ZM64.8074 22.7349C65.8636 23.0581 66.9819 22.4639 67.3051 21.4077C67.6283 20.3514 67.0341 19.2332 65.9779 18.91L64.8074 22.7349ZM65.9779 26.9472C67.0341 26.6239 67.6283 25.5057 67.3051 24.4495C66.9819 23.3932 65.8636 22.799 64.8074 23.1222L65.9779 26.9472ZM60.9854 26.3833L60.4002 24.4708C59.3961 24.7781 58.8006 25.8095 59.0366 26.8327L60.9854 26.3833ZM60.0871 31.3882C60.3353 32.4645 61.409 33.1359 62.4854 32.8876C63.5617 32.6394 64.233 31.5657 63.9848 30.4894L60.0871 31.3882ZM57.0579 34.4886C57.8659 35.2417 59.1315 35.1972 59.8846 34.3892C60.6377 33.5812 60.5932 32.3156 59.7852 31.5625L57.0579 34.4886ZM55.0016 29.8381L56.3653 28.375C55.5971 27.6591 54.4061 27.6591 53.638 28.375L55.0016 29.8381ZM50.2171 31.5634C49.4091 32.3166 49.3646 33.5821 50.1177 34.3901C50.8708 35.1981 52.1363 35.2427 52.9444 34.4895L50.2171 31.5634ZM46.0181 30.4907C45.7699 31.567 46.4413 32.6407 47.5176 32.889C48.5939 33.1372 49.6676 32.4658 49.9158 31.3895L46.0181 30.4907ZM49.0178 26.3833L50.9667 26.8327C51.2026 25.8095 50.6071 24.7781 49.603 24.4708L49.0178 26.3833ZM45.1932 23.1214C44.137 22.7982 43.0188 23.3925 42.6956 24.4487C42.3724 25.5049 42.9666 26.6232 44.0228 26.9464L45.1932 23.1214ZM44.0228 18.9108C42.9666 19.234 42.3724 20.3522 42.6956 21.4084C43.0188 22.4647 44.137 23.0589 45.1932 22.7357L44.0228 18.9108ZM50.3128 14.3829L53.638 17.4821L56.3653 14.556L53.0401 11.4568L50.3128 14.3829ZM50.9667 19.0244L49.9453 14.5951L46.0475 15.4939L47.069 19.9232L50.9667 19.0244ZM56.3653 17.4821L59.6894 14.3838L56.9622 11.4577L53.638 14.556L56.3653 17.4821ZM60.0577 14.5964L59.0366 19.0244L62.9343 19.9232L63.9554 15.4953L60.0577 14.5964ZM60.4002 21.3863L64.8074 22.7349L65.9779 18.91L61.5706 17.5613L60.4002 21.3863ZM64.8074 23.1222L60.4002 24.4708L61.5706 28.2958L65.9779 26.9472L64.8074 23.1222ZM59.0366 26.8327L60.0871 31.3882L63.9848 30.4894L62.9343 25.9339L59.0366 26.8327ZM59.7852 31.5625L56.3653 28.375L53.638 31.3011L57.0579 34.4886L59.7852 31.5625ZM53.638 28.375L50.2171 31.5634L52.9444 34.4895L56.3653 31.3011L53.638 28.375ZM49.9158 31.3895L50.9667 26.8327L47.069 25.9339L46.0181 30.4907L49.9158 31.3895ZM49.603 24.4708L45.1932 23.1214L44.0228 26.9464L48.4326 28.2958L49.603 24.4708ZM45.1932 22.7357L49.603 21.3863L48.4326 17.5613L44.0228 18.9108L45.1932 22.7357Z" fill="currentColor" />
  <path d="M55 11L57 10.998C56.9989 9.89421 56.1038 9 55 9C53.8962 9 53.0011 9.89421 53 10.998L55 11ZM65.3923 17L66.394 18.731C67.3494 18.1782 67.6762 16.9559 67.1243 16C66.5724 15.0441 65.3505 14.716 64.394 15.2669L65.3923 17ZM65.3923 29L64.394 30.7331C65.3505 31.284 66.5724 30.9559 67.1243 30C67.6762 29.0441 67.3494 27.8218 66.394 27.269L65.3923 29ZM55 35L53 35.002C53.0011 36.1058 53.8962 37 55 37C56.1038 37 56.9989 36.1058 57 35.002L55 35ZM44.6077 29L43.6059 27.269C42.6506 27.8218 42.3237 29.0441 42.8756 30C43.4275 30.9559 44.6495 31.284 45.6059 30.7331L44.6077 29ZM44.6077 17L45.6059 15.2669C44.6495 14.716 43.4275 15.0441 42.8756 16C42.3237 16.9559 42.6506 18.1782 43.6059 18.731L44.6077 17ZM50.4958 20.3916L51.494 18.6586L50.4958 20.3916ZM54.9932 17.7951L56.9932 17.7971L54.9932 17.7951ZM50.489 20.4034L49.4872 22.1345L50.489 20.4034ZM54.9932 28.2049L56.9932 28.2029L54.9932 28.2049ZM50.4958 25.6084L51.494 27.3414L50.4958 25.6084ZM55.0068 28.2049L53.0068 28.2029L55.0068 28.2049ZM59.511 20.4034L60.5127 22.1345L59.511 20.4034ZM59.511 25.5966L60.5127 23.8655L59.511 25.5966ZM55.0068 17.7951L53.0068 17.7971L55.0068 17.7951ZM59.5042 20.3916L60.5024 22.1247L59.5042 20.3916ZM53 11.002L53.0068 17.7971L57.0068 17.7931L57 10.998L53 11.002ZM60.5024 22.1247L66.3905 18.7331L64.394 15.2669L58.5059 18.6586L60.5024 22.1247ZM64.3905 15.269L58.5092 18.6724L60.5127 22.1345L66.394 18.731L64.3905 15.269ZM58.5092 27.3276L64.3905 30.731L66.394 27.269L60.5127 23.8655L58.5092 27.3276ZM66.3905 27.2669L60.5024 23.8753L58.5059 27.3414L64.394 30.7331L66.3905 27.2669ZM53.0068 28.2029L53 34.998L57 35.002L57.0068 28.2069L53.0068 28.2029ZM57 34.998L56.9932 28.2029L52.9932 28.2069L53 35.002L57 34.998ZM49.4975 23.8753L43.6094 27.2669L45.6059 30.7331L51.494 27.3414L49.4975 23.8753ZM45.6094 30.731L51.4907 27.3276L49.4872 23.8655L43.6059 27.269L45.6094 30.731ZM51.4907 18.6724L45.6094 15.269L43.6059 18.731L49.4872 22.1345L51.4907 18.6724ZM43.6094 18.7331L49.4975 22.1247L51.494 18.6586L45.6059 15.2669L43.6094 18.7331ZM56.9932 17.7971L57 11.002L53 10.998L52.9932 17.7931L56.9932 17.7971ZM49.4975 22.1247C52.8289 24.0436 56.9893 21.6416 56.9932 17.7971L52.9932 17.7931C52.9924 18.562 52.1603 19.0424 51.494 18.6586L49.4975 22.1247ZM51.4907 27.3276C54.8182 25.402 54.8182 20.598 51.4907 18.6724L49.4872 22.1345C50.1527 22.5196 50.1527 23.4804 49.4872 23.8655L51.4907 27.3276ZM56.9932 28.2029C56.9893 24.3584 52.8289 21.9564 49.4975 23.8753L51.494 27.3414C52.1603 26.9576 52.9924 27.438 52.9932 28.2069L56.9932 28.2029ZM60.5024 23.8753C57.171 21.9564 53.0106 24.3584 53.0068 28.2029L57.0068 28.2069C57.0075 27.438 57.8396 26.9576 58.5059 27.3414L60.5024 23.8753ZM58.5092 18.6724C55.1817 20.598 55.1817 25.402 58.5092 27.3276L60.5127 23.8655C59.8472 23.4804 59.8472 22.5196 60.5127 22.1345L58.5092 18.6724ZM53.0068 17.7971C53.0106 21.6416 57.171 24.0436 60.5024 22.1247L58.5059 18.6586C57.8396 19.0424 57.0075 18.562 57.0068 17.7931L53.0068 17.7971Z" fill="currentColor" />
</svg>