<svg viewBox="0 0 80 80" fill="none">
  <path fill-rule="evenodd" clip-rule="evenodd" d="M17.8564 19C17.8564 15.9698 19.5684 13.1997 22.2787 11.8446C24.5309 10.7185 27.1819 10.7185 29.4341 11.8446C32.1444 13.1997 33.8564 15.9698 33.8564 19V42.7063C33.8564 43.3557 34.1782 43.9573 34.679 44.3707C37.8363 46.9771 39.7128 50.8828 39.7128 55.0557C39.7128 60.0061 37.0718 64.5805 32.7846 67.0557C28.4974 69.5309 23.2154 69.5309 18.9282 67.0557C14.641 64.5805 12 60.0061 12 55.0557C12 50.8828 13.8766 46.9771 17.0338 44.3707C17.5346 43.9573 17.8564 43.3557 17.8564 42.7063L17.8564 19ZM22.5329 49H29.2668C29.2979 49.0194 29.3294 49.0383 29.3611 49.0566C31.5047 50.2942 32.8252 52.5814 32.8252 55.0566C32.8252 57.5318 31.5047 59.819 29.3611 61.0566C27.2175 62.2942 24.5765 62.2942 22.4329 61.0566C20.2893 59.819 18.9688 57.5318 18.9688 55.0566C18.9688 52.5814 20.2893 50.2942 22.4329 49.0566C22.4661 49.0375 22.4995 49.0186 22.5329 49Z" fill="currentColor" />
  <path d="M53.0403 11.4571C52.2323 10.704 50.9668 10.7485 50.2136 11.5565C49.4605 12.3646 49.505 13.6301 50.3131 14.3832L53.0403 11.4571ZM55.0019 16.0194L53.6382 17.4824C54.4064 18.1984 55.5974 18.1984 56.3655 17.4824L55.0019 16.0194ZM49.0181 19.4741L49.6033 21.3866C50.6074 21.0794 51.2029 20.0479 50.9669 19.0247L49.0181 19.4741ZM49.9455 14.5954C49.6973 13.5191 48.6235 12.8478 47.5472 13.096C46.4709 13.3442 45.7996 14.418 46.0478 15.4943L49.9455 14.5954ZM59.6897 14.3841C60.4977 13.631 60.5422 12.3655 59.7891 11.5575C59.036 10.7494 57.7704 10.7049 56.9624 11.4581L59.6897 14.3841ZM63.9556 15.4956C64.2038 14.4193 63.5325 13.3455 62.4562 13.0973C61.3799 12.8491 60.3061 13.5204 60.0579 14.5968L63.9556 15.4956ZM60.9857 19.4741L59.0368 19.0247C58.8008 20.0479 59.3963 21.0794 60.4004 21.3866L60.9857 19.4741ZM64.8077 22.7352C65.8639 23.0584 66.9821 22.4642 67.3053 21.408C67.6286 20.3518 67.0343 19.2335 65.9781 18.9103L64.8077 22.7352ZM65.9781 26.9475C67.0343 26.6243 67.6286 25.506 67.3053 24.4498C66.9821 23.3936 65.8639 22.7994 64.8077 23.1226L65.9781 26.9475ZM60.9857 26.3836L60.4004 24.4712C59.3963 24.7784 58.8008 25.8099 59.0368 26.8331L60.9857 26.3836ZM60.0873 31.3885C60.3355 32.4649 61.4093 33.1362 62.4856 32.888C63.5619 32.6398 64.2332 31.566 63.985 30.4897L60.0873 31.3885ZM57.0581 34.489C57.8661 35.2421 59.1317 35.1976 59.8848 34.3895C60.6379 33.5815 60.5934 32.316 59.7854 31.5629L57.0581 34.489ZM55.0019 29.8384L56.3655 28.3753C55.5974 27.6594 54.4064 27.6594 53.6382 28.3753L55.0019 29.8384ZM50.2173 31.5638C49.4093 32.3169 49.3648 33.5824 50.1179 34.3905C50.871 35.1985 52.1366 35.243 52.9446 34.4899L50.2173 31.5638ZM46.0184 30.491C45.7702 31.5673 46.4415 32.6411 47.5178 32.8893C48.5941 33.1375 49.6679 32.4662 49.9161 31.3899L46.0184 30.491ZM49.0181 26.3836L50.9669 26.8331C51.2029 25.8099 50.6074 24.7784 49.6033 24.4712L49.0181 26.3836ZM45.1935 23.1218C44.1373 22.7986 43.019 23.3928 42.6958 24.449C42.3726 25.5052 42.9668 26.6235 44.023 26.9467L45.1935 23.1218ZM44.023 18.9111C42.9668 19.2343 42.3726 20.3525 42.6958 21.4088C43.019 22.465 44.1373 23.0592 45.1935 22.736L44.023 18.9111ZM50.3131 14.3832L53.6382 17.4824L56.3655 14.5564L53.0403 11.4571L50.3131 14.3832ZM50.9669 19.0247L49.9455 14.5954L46.0478 15.4943L47.0692 19.9236L50.9669 19.0247ZM56.3655 17.4824L59.6897 14.3841L56.9624 11.4581L53.6382 14.5564L56.3655 17.4824ZM60.0579 14.5968L59.0368 19.0247L62.9345 19.9236L63.9556 15.4956L60.0579 14.5968ZM60.4004 21.3866L64.8077 22.7352L65.9781 18.9103L61.5709 17.5617L60.4004 21.3866ZM64.8077 23.1226L60.4004 24.4712L61.5709 28.2961L65.9781 26.9475L64.8077 23.1226ZM59.0368 26.8331L60.0873 31.3885L63.985 30.4897L62.9345 25.9342L59.0368 26.8331ZM59.7854 31.5629L56.3655 28.3753L53.6382 31.3014L57.0581 34.489L59.7854 31.5629ZM53.6382 28.3753L50.2173 31.5638L52.9446 34.4899L56.3655 31.3014L53.6382 28.3753ZM49.9161 31.3899L50.9669 26.8331L47.0692 25.9342L46.0184 30.491L49.9161 31.3899ZM49.6033 24.4712L45.1935 23.1218L44.023 26.9467L48.4328 28.2961L49.6033 24.4712ZM45.1935 22.736L49.6033 21.3866L48.4328 17.5617L44.023 18.9111L45.1935 22.736Z" fill="currentColor" />
  <path d="M55 11L57 10.998C56.9989 9.89421 56.1038 9 55 9C53.8962 9 53.0011 9.89421 53 10.998L55 11ZM65.3923 17L66.394 18.731C67.3494 18.1782 67.6762 16.9559 67.1243 16C66.5724 15.0441 65.3505 14.716 64.394 15.2669L65.3923 17ZM65.3923 29L64.394 30.7331C65.3505 31.284 66.5724 30.9559 67.1243 30C67.6762 29.0441 67.3494 27.8218 66.394 27.269L65.3923 29ZM55 35L53 35.002C53.0011 36.1058 53.8962 37 55 37C56.1038 37 56.9989 36.1058 57 35.002L55 35ZM44.6077 29L43.6059 27.269C42.6506 27.8218 42.3237 29.0441 42.8756 30C43.4275 30.9559 44.6495 31.284 45.6059 30.7331L44.6077 29ZM44.6077 17L45.6059 15.2669C44.6495 14.716 43.4275 15.0441 42.8756 16C42.3237 16.9559 42.6506 18.1782 43.6059 18.731L44.6077 17ZM50.4958 20.3916L51.494 18.6586L50.4958 20.3916ZM54.9932 17.7951L56.9932 17.7971L54.9932 17.7951ZM50.489 20.4034L49.4872 22.1345L50.489 20.4034ZM54.9932 28.2049L56.9932 28.2029L54.9932 28.2049ZM50.4958 25.6084L51.494 27.3414L50.4958 25.6084ZM55.0068 28.2049L53.0068 28.2029L55.0068 28.2049ZM59.511 20.4034L60.5127 22.1345L59.511 20.4034ZM59.511 25.5966L60.5127 23.8655L59.511 25.5966ZM55.0068 17.7951L53.0068 17.7971L55.0068 17.7951ZM59.5042 20.3916L60.5024 22.1247L59.5042 20.3916ZM53 11.002L53.0068 17.7971L57.0068 17.7931L57 10.998L53 11.002ZM60.5024 22.1247L66.3905 18.7331L64.394 15.2669L58.5059 18.6586L60.5024 22.1247ZM64.3905 15.269L58.5092 18.6724L60.5127 22.1345L66.394 18.731L64.3905 15.269ZM58.5092 27.3276L64.3905 30.731L66.394 27.269L60.5127 23.8655L58.5092 27.3276ZM66.3905 27.2669L60.5024 23.8753L58.5059 27.3414L64.394 30.7331L66.3905 27.2669ZM53.0068 28.2029L53 34.998L57 35.002L57.0068 28.2069L53.0068 28.2029ZM57 34.998L56.9932 28.2029L52.9932 28.2069L53 35.002L57 34.998ZM49.4975 23.8753L43.6094 27.2669L45.6059 30.7331L51.494 27.3414L49.4975 23.8753ZM45.6094 30.731L51.4907 27.3276L49.4872 23.8655L43.6059 27.269L45.6094 30.731ZM51.4907 18.6724L45.6094 15.269L43.6059 18.731L49.4872 22.1345L51.4907 18.6724ZM43.6094 18.7331L49.4975 22.1247L51.494 18.6586L45.6059 15.2669L43.6094 18.7331ZM56.9932 17.7971L57 11.002L53 10.998L52.9932 17.7931L56.9932 17.7971ZM49.4975 22.1247C52.8289 24.0436 56.9893 21.6416 56.9932 17.7971L52.9932 17.7931C52.9924 18.562 52.1603 19.0424 51.494 18.6586L49.4975 22.1247ZM51.4907 27.3276C54.8182 25.402 54.8182 20.598 51.4907 18.6724L49.4872 22.1345C50.1527 22.5196 50.1527 23.4804 49.4872 23.8655L51.4907 27.3276ZM56.9932 28.2029C56.9893 24.3584 52.8289 21.9564 49.4975 23.8753L51.494 27.3414C52.1603 26.9576 52.9924 27.438 52.9932 28.2069L56.9932 28.2029ZM60.5024 23.8753C57.171 21.9564 53.0106 24.3584 53.0068 28.2029L57.0068 28.2069C57.0075 27.438 57.8396 26.9576 58.5059 27.3414L60.5024 23.8753ZM58.5092 18.6724C55.1817 20.598 55.1817 25.402 58.5092 27.3276L60.5127 23.8655C59.8472 23.4804 59.8472 22.5196 60.5127 22.1345L58.5092 18.6724ZM53.0068 17.7971C53.0106 21.6416 57.171 24.0436 60.5024 22.1247L58.5059 18.6586C57.8396 19.0424 57.0075 18.562 57.0068 17.7931L53.0068 17.7971Z" fill="currentColor" />
</svg>