<svg viewBox="0 0 80 80" fill="none">
  <path fill-rule="evenodd" clip-rule="evenodd" d="M17.8564 19C17.8564 15.9698 19.5684 13.1997 22.2787 11.8446C24.5309 10.7185 27.1819 10.7185 29.4341 11.8446C32.1444 13.1997 33.8564 15.9698 33.8564 19V42.7063C33.8564 43.3557 34.1782 43.9573 34.679 44.3707C37.8363 46.9771 39.7128 50.8828 39.7128 55.0557C39.7128 60.0061 37.0718 64.5805 32.7846 67.0557C28.4974 69.5309 23.2154 69.5309 18.9282 67.0557C14.641 64.5805 12 60.0061 12 55.0557C12 50.8828 13.8766 46.9771 17.0338 44.3707C17.5346 43.9573 17.8564 43.3557 17.8564 42.7063L17.8564 19ZM22.5329 49H29.2668C29.2979 49.0194 29.3294 49.0383 29.3611 49.0566C31.5047 50.2942 32.8252 52.5814 32.8252 55.0566C32.8252 57.5318 31.5047 59.819 29.3611 61.0566C27.2175 62.2942 24.5765 62.2942 22.4329 61.0566C20.2893 59.819 18.9688 57.5318 18.9688 55.0566C18.9688 52.5814 20.2893 50.2942 22.4329 49.0566C22.4661 49.0375 22.4995 49.0186 22.5329 49Z" fill="currentColor" />
  <path d="M53.0405 11.4574C52.2325 10.7042 50.9669 10.7488 50.2138 11.5568C49.4607 12.3648 49.5052 13.6303 50.3132 14.3835L53.0405 11.4574ZM55.002 16.0196L53.6384 17.4827C54.4065 18.1986 55.5975 18.1986 56.3656 17.4827L55.002 16.0196ZM49.0182 19.4744L49.6034 21.3868C50.6075 21.0796 51.203 20.0481 50.9671 19.025L49.0182 19.4744ZM49.9456 14.5957C49.6974 13.5193 48.6237 12.848 47.5474 13.0962C46.4711 13.3444 45.7997 14.4182 46.0479 15.4945L49.9456 14.5957ZM59.6898 14.3844C60.4978 13.6313 60.5423 12.3657 59.7892 11.5577C59.0361 10.7497 57.7706 10.7052 56.9626 11.4583L59.6898 14.3844ZM63.9558 15.4958C64.204 14.4195 63.5327 13.3458 62.4564 13.0975C61.38 12.8493 60.3063 13.5207 60.0581 14.597L63.9558 15.4958ZM60.9858 19.4744L59.037 19.025C58.801 20.0481 59.3965 21.0796 60.4006 21.3868L60.9858 19.4744ZM64.8078 22.7355C65.864 23.0587 66.9823 22.4644 67.3055 21.4082C67.6287 20.352 67.0345 19.2337 65.9783 18.9105L64.8078 22.7355ZM65.9783 26.9477C67.0345 26.6245 67.6287 25.5063 67.3055 24.45C66.9823 23.3938 65.864 22.7996 64.8078 23.1228L65.9783 26.9477ZM60.9858 26.3839L60.4006 24.4714C59.3965 24.7787 58.801 25.8101 59.037 26.8333L60.9858 26.3839ZM60.0875 31.3888C60.3357 32.4651 61.4094 33.1364 62.4858 32.8882C63.5621 32.64 64.2334 31.5662 63.9852 30.4899L60.0875 31.3888ZM57.0583 34.4892C57.8663 35.2423 59.1318 35.1978 59.885 34.3898C60.6381 33.5817 60.5936 32.3162 59.7855 31.5631L57.0583 34.4892ZM55.002 29.8386L56.3656 28.3756C55.5975 27.6596 54.4065 27.6596 53.6384 28.3756L55.002 29.8386ZM50.2175 31.564C49.4095 32.3171 49.365 33.5827 50.1181 34.3907C50.8712 35.1987 52.1367 35.2432 52.9448 34.4901L50.2175 31.564ZM46.0185 30.4912C45.7703 31.5676 46.4416 32.6413 47.518 32.8895C48.5943 33.1377 49.668 32.4664 49.9162 31.3901L46.0185 30.4912ZM49.0182 26.3839L50.9671 26.8333C51.203 25.8101 50.6075 24.7787 49.6034 24.4714L49.0182 26.3839ZM45.1936 23.122C44.1374 22.7988 43.0192 23.393 42.696 24.4492C42.3728 25.5055 42.967 26.6237 44.0232 26.9469L45.1936 23.122ZM44.0232 18.9113C42.967 19.2345 42.3728 20.3528 42.696 21.409C43.0192 22.4652 44.1374 23.0595 45.1936 22.7362L44.0232 18.9113ZM50.3132 14.3835L53.6384 17.4827L56.3656 14.5566L53.0405 11.4574L50.3132 14.3835ZM50.9671 19.025L49.9456 14.5957L46.0479 15.4945L47.0694 19.9238L50.9671 19.025ZM56.3656 17.4827L59.6898 14.3844L56.9626 11.4583L53.6384 14.5566L56.3656 17.4827ZM60.0581 14.597L59.037 19.025L62.9347 19.9238L63.9558 15.4958L60.0581 14.597ZM60.4006 21.3868L64.8078 22.7355L65.9783 18.9105L61.571 17.5619L60.4006 21.3868ZM64.8078 23.1228L60.4006 24.4714L61.571 28.2963L65.9783 26.9477L64.8078 23.1228ZM59.037 26.8333L60.0875 31.3888L63.9852 30.4899L62.9347 25.9345L59.037 26.8333ZM59.7855 31.5631L56.3656 28.3756L53.6384 31.3017L57.0583 34.4892L59.7855 31.5631ZM53.6384 28.3756L50.2175 31.564L52.9448 34.4901L56.3656 31.3017L53.6384 28.3756ZM49.9162 31.3901L50.9671 26.8333L47.0694 25.9345L46.0185 30.4912L49.9162 31.3901ZM49.6034 24.4714L45.1936 23.122L44.0232 26.9469L48.433 28.2963L49.6034 24.4714ZM45.1936 22.7362L49.6034 21.3868L48.433 17.5619L44.0232 18.9113L45.1936 22.7362Z" fill="currentColor" />
  <path d="M55 11L57 10.998C56.9989 9.89421 56.1038 9 55 9C53.8962 9 53.0011 9.89421 53 10.998L55 11ZM65.3923 17L66.394 18.731C67.3494 18.1782 67.6762 16.9559 67.1243 16C66.5724 15.0441 65.3505 14.716 64.394 15.2669L65.3923 17ZM65.3923 29L64.394 30.7331C65.3505 31.284 66.5724 30.9559 67.1243 30C67.6762 29.0441 67.3494 27.8218 66.394 27.269L65.3923 29ZM55 35L53 35.002C53.0011 36.1058 53.8962 37 55 37C56.1038 37 56.9989 36.1058 57 35.002L55 35ZM44.6077 29L43.6059 27.269C42.6506 27.8218 42.3237 29.0441 42.8756 30C43.4275 30.9559 44.6495 31.284 45.6059 30.7331L44.6077 29ZM44.6077 17L45.6059 15.2669C44.6495 14.716 43.4275 15.0441 42.8756 16C42.3237 16.9559 42.6506 18.1782 43.6059 18.731L44.6077 17ZM50.4958 20.3916L51.494 18.6586L50.4958 20.3916ZM54.9932 17.7951L56.9932 17.7971L54.9932 17.7951ZM50.489 20.4034L49.4872 22.1345L50.489 20.4034ZM54.9932 28.2049L56.9932 28.2029L54.9932 28.2049ZM50.4958 25.6084L51.494 27.3414L50.4958 25.6084ZM55.0068 28.2049L53.0068 28.2029L55.0068 28.2049ZM59.511 20.4034L60.5127 22.1345L59.511 20.4034ZM59.511 25.5966L60.5127 23.8655L59.511 25.5966ZM55.0068 17.7951L53.0068 17.7971L55.0068 17.7951ZM59.5042 20.3916L60.5024 22.1247L59.5042 20.3916ZM53 11.002L53.0068 17.7971L57.0068 17.7931L57 10.998L53 11.002ZM60.5024 22.1247L66.3905 18.7331L64.394 15.2669L58.5059 18.6586L60.5024 22.1247ZM64.3905 15.269L58.5092 18.6724L60.5127 22.1345L66.394 18.731L64.3905 15.269ZM58.5092 27.3276L64.3905 30.731L66.394 27.269L60.5127 23.8655L58.5092 27.3276ZM66.3905 27.2669L60.5024 23.8753L58.5059 27.3414L64.394 30.7331L66.3905 27.2669ZM53.0068 28.2029L53 34.998L57 35.002L57.0068 28.2069L53.0068 28.2029ZM57 34.998L56.9932 28.2029L52.9932 28.2069L53 35.002L57 34.998ZM49.4975 23.8753L43.6094 27.2669L45.6059 30.7331L51.494 27.3414L49.4975 23.8753ZM45.6094 30.731L51.4907 27.3276L49.4872 23.8655L43.6059 27.269L45.6094 30.731ZM51.4907 18.6724L45.6094 15.269L43.6059 18.731L49.4872 22.1345L51.4907 18.6724ZM43.6094 18.7331L49.4975 22.1247L51.494 18.6586L45.6059 15.2669L43.6094 18.7331ZM56.9932 17.7971L57 11.002L53 10.998L52.9932 17.7931L56.9932 17.7971ZM49.4975 22.1247C52.8289 24.0436 56.9893 21.6416 56.9932 17.7971L52.9932 17.7931C52.9924 18.562 52.1603 19.0424 51.494 18.6586L49.4975 22.1247ZM51.4907 27.3276C54.8182 25.402 54.8182 20.598 51.4907 18.6724L49.4872 22.1345C50.1527 22.5196 50.1527 23.4804 49.4872 23.8655L51.4907 27.3276ZM56.9932 28.2029C56.9893 24.3584 52.8289 21.9564 49.4975 23.8753L51.494 27.3414C52.1603 26.9576 52.9924 27.438 52.9932 28.2069L56.9932 28.2029ZM60.5024 23.8753C57.171 21.9564 53.0106 24.3584 53.0068 28.2029L57.0068 28.2069C57.0075 27.438 57.8396 26.9576 58.5059 27.3414L60.5024 23.8753ZM58.5092 18.6724C55.1817 20.598 55.1817 25.402 58.5092 27.3276L60.5127 23.8655C59.8472 23.4804 59.8472 22.5196 60.5127 22.1345L58.5092 18.6724ZM53.0068 17.7971C53.0106 21.6416 57.171 24.0436 60.5024 22.1247L58.5059 18.6586C57.8396 19.0424 57.0075 18.562 57.0068 17.7931L53.0068 17.7971Z" fill="currentColor" />
</svg>