<svg viewBox="0 0 80 80" fill="none">
  <path fill-rule="evenodd" clip-rule="evenodd" d="M17.8564 19C17.8564 15.9698 19.5684 13.1997 22.2787 11.8446C24.5309 10.7185 27.1819 10.7185 29.4341 11.8446C32.1444 13.1997 33.8564 15.9698 33.8564 19V42.7063C33.8564 43.3557 34.1782 43.9573 34.679 44.3707C37.8363 46.9771 39.7128 50.8828 39.7128 55.0557C39.7128 60.0061 37.0718 64.5805 32.7846 67.0557C28.4974 69.5309 23.2154 69.5309 18.9282 67.0557C14.641 64.5805 12 60.0061 12 55.0557C12 50.8828 13.8766 46.9771 17.0338 44.3707C17.5346 43.9573 17.8564 43.3557 17.8564 42.7063L17.8564 19ZM22.5329 49H29.2668C29.2979 49.0194 29.3294 49.0383 29.3611 49.0566C31.5047 50.2942 32.8252 52.5814 32.8252 55.0566C32.8252 57.5318 31.5047 59.819 29.3611 61.0566C27.2175 62.2942 24.5765 62.2942 22.4329 61.0566C20.2893 59.819 18.9688 57.5318 18.9688 55.0566C18.9688 52.5814 20.2893 50.2942 22.4329 49.0566C22.4661 49.0375 22.4995 49.0186 22.5329 49Z" fill="currentColor" />
  <path d="M53.0404 11.4572C52.2324 10.7041 50.9668 10.7486 50.2137 11.5567C49.4606 12.3647 49.5051 13.6302 50.3131 14.3833L53.0404 11.4572ZM55.0019 16.0195L53.6383 17.4826C54.4064 18.1985 55.5974 18.1985 56.3656 17.4826L55.0019 16.0195ZM49.0181 19.4743L49.6034 21.3867C50.6074 21.0795 51.2029 20.048 50.967 19.0248L49.0181 19.4743ZM49.9456 14.5956C49.6974 13.5192 48.6236 12.8479 47.5473 13.0961C46.471 13.3443 45.7997 14.4181 46.0479 15.4944L49.9456 14.5956ZM59.6897 14.3843C60.4978 13.6311 60.5423 12.3656 59.7892 11.5576C59.036 10.7496 57.7705 10.7051 56.9625 11.4582L59.6897 14.3843ZM63.9557 15.4957C64.2039 14.4194 63.5326 13.3456 62.4563 13.0974C61.38 12.8492 60.3062 13.5205 60.058 14.5969L63.9557 15.4957ZM60.9857 19.4743L59.0369 19.0248C58.8009 20.048 59.3964 21.0795 60.4005 21.3867L60.9857 19.4743ZM64.8077 22.7353C65.864 23.0586 66.9822 22.4643 67.3054 21.4081C67.6286 20.3519 67.0344 19.2336 65.9782 18.9104L64.8077 22.7353ZM65.9782 26.9476C67.0344 26.6244 67.6286 25.5061 67.3054 24.4499C66.9822 23.3937 65.864 22.7995 64.8077 23.1227L65.9782 26.9476ZM60.9857 26.3838L60.4005 24.4713C59.3964 24.7785 58.8009 25.81 59.0369 26.8332L60.9857 26.3838ZM60.0874 31.3887C60.3356 32.465 61.4094 33.1363 62.4857 32.8881C63.562 32.6399 64.2333 31.5661 63.9851 30.4898L60.0874 31.3887ZM57.0582 34.4891C57.8662 35.2422 59.1318 35.1977 59.8849 34.3897C60.638 33.5816 60.5935 32.3161 59.7855 31.563L57.0582 34.4891ZM55.0019 29.8385L56.3656 28.3755C55.5974 27.6595 54.4064 27.6595 53.6383 28.3755L55.0019 29.8385ZM50.2174 31.5639C49.4094 32.317 49.3649 33.5826 50.118 34.3906C50.8711 35.1986 52.1367 35.2431 52.9447 34.49L50.2174 31.5639ZM46.0185 30.4911C45.7703 31.5674 46.4416 32.6412 47.5179 32.8894C48.5942 33.1376 49.668 32.4663 49.9162 31.39L46.0185 30.4911ZM49.0181 26.3838L50.967 26.8332C51.2029 25.81 50.6074 24.7785 49.6034 24.4713L49.0181 26.3838ZM45.1936 23.1219C44.1373 22.7987 43.0191 23.3929 42.6959 24.4491C42.3727 25.5054 42.9669 26.6236 44.0231 26.9468L45.1936 23.1219ZM44.0231 18.9112C42.9669 19.2344 42.3727 20.3527 42.6959 21.4089C43.0191 22.4651 44.1373 23.0593 45.1936 22.7361L44.0231 18.9112ZM50.3131 14.3833L53.6383 17.4826L56.3656 14.5565L53.0404 11.4572L50.3131 14.3833ZM50.967 19.0248L49.9456 14.5956L46.0479 15.4944L47.0693 19.9237L50.967 19.0248ZM56.3656 17.4826L59.6897 14.3843L56.9625 11.4582L53.6383 14.5565L56.3656 17.4826ZM60.058 14.5969L59.0369 19.0248L62.9346 19.9237L63.9557 15.4957L60.058 14.5969ZM60.4005 21.3867L64.8077 22.7353L65.9782 18.9104L61.571 17.5618L60.4005 21.3867ZM64.8077 23.1227L60.4005 24.4713L61.571 28.2962L65.9782 26.9476L64.8077 23.1227ZM59.0369 26.8332L60.0874 31.3887L63.9851 30.4898L62.9346 25.9343L59.0369 26.8332ZM59.7855 31.563L56.3656 28.3755L53.6383 31.3015L57.0582 34.4891L59.7855 31.563ZM53.6383 28.3755L50.2174 31.5639L52.9447 34.49L56.3656 31.3015L53.6383 28.3755ZM49.9162 31.39L50.967 26.8332L47.0693 25.9343L46.0185 30.4911L49.9162 31.39ZM49.6034 24.4713L45.1936 23.1219L44.0231 26.9468L48.4329 28.2962L49.6034 24.4713ZM45.1936 22.7361L49.6034 21.3867L48.4329 17.5618L44.0231 18.9112L45.1936 22.7361Z" fill="currentColor" />
  <path d="M55 11L57 10.998C56.9989 9.89421 56.1038 9 55 9C53.8962 9 53.0011 9.89421 53 10.998L55 11ZM65.3923 17L66.394 18.731C67.3494 18.1782 67.6762 16.9559 67.1243 16C66.5724 15.0441 65.3505 14.716 64.394 15.2669L65.3923 17ZM65.3923 29L64.394 30.7331C65.3505 31.284 66.5724 30.9559 67.1243 30C67.6762 29.0441 67.3494 27.8218 66.394 27.269L65.3923 29ZM55 35L53 35.002C53.0011 36.1058 53.8962 37 55 37C56.1038 37 56.9989 36.1058 57 35.002L55 35ZM44.6077 29L43.6059 27.269C42.6506 27.8218 42.3237 29.0441 42.8756 30C43.4275 30.9559 44.6495 31.284 45.6059 30.7331L44.6077 29ZM44.6077 17L45.6059 15.2669C44.6495 14.716 43.4275 15.0441 42.8756 16C42.3237 16.9559 42.6506 18.1782 43.6059 18.731L44.6077 17ZM50.4958 20.3916L51.494 18.6586L50.4958 20.3916ZM54.9932 17.7951L56.9932 17.7971L54.9932 17.7951ZM50.489 20.4034L49.4872 22.1345L50.489 20.4034ZM54.9932 28.2049L56.9932 28.2029L54.9932 28.2049ZM50.4958 25.6084L51.494 27.3414L50.4958 25.6084ZM55.0068 28.2049L53.0068 28.2029L55.0068 28.2049ZM59.511 20.4034L60.5127 22.1345L59.511 20.4034ZM59.511 25.5966L60.5127 23.8655L59.511 25.5966ZM55.0068 17.7951L53.0068 17.7971L55.0068 17.7951ZM59.5042 20.3916L60.5024 22.1247L59.5042 20.3916ZM53 11.002L53.0068 17.7971L57.0068 17.7931L57 10.998L53 11.002ZM60.5024 22.1247L66.3905 18.7331L64.394 15.2669L58.5059 18.6586L60.5024 22.1247ZM64.3905 15.269L58.5092 18.6724L60.5127 22.1345L66.394 18.731L64.3905 15.269ZM58.5092 27.3276L64.3905 30.731L66.394 27.269L60.5127 23.8655L58.5092 27.3276ZM66.3905 27.2669L60.5024 23.8753L58.5059 27.3414L64.394 30.7331L66.3905 27.2669ZM53.0068 28.2029L53 34.998L57 35.002L57.0068 28.2069L53.0068 28.2029ZM57 34.998L56.9932 28.2029L52.9932 28.2069L53 35.002L57 34.998ZM49.4975 23.8753L43.6094 27.2669L45.6059 30.7331L51.494 27.3414L49.4975 23.8753ZM45.6094 30.731L51.4907 27.3276L49.4872 23.8655L43.6059 27.269L45.6094 30.731ZM51.4907 18.6724L45.6094 15.269L43.6059 18.731L49.4872 22.1345L51.4907 18.6724ZM43.6094 18.7331L49.4975 22.1247L51.494 18.6586L45.6059 15.2669L43.6094 18.7331ZM56.9932 17.7971L57 11.002L53 10.998L52.9932 17.7931L56.9932 17.7971ZM49.4975 22.1247C52.8289 24.0436 56.9893 21.6416 56.9932 17.7971L52.9932 17.7931C52.9924 18.562 52.1603 19.0424 51.494 18.6586L49.4975 22.1247ZM51.4907 27.3276C54.8182 25.402 54.8182 20.598 51.4907 18.6724L49.4872 22.1345C50.1527 22.5196 50.1527 23.4804 49.4872 23.8655L51.4907 27.3276ZM56.9932 28.2029C56.9893 24.3584 52.8289 21.9564 49.4975 23.8753L51.494 27.3414C52.1603 26.9576 52.9924 27.438 52.9932 28.2069L56.9932 28.2029ZM60.5024 23.8753C57.171 21.9564 53.0106 24.3584 53.0068 28.2029L57.0068 28.2069C57.0075 27.438 57.8396 26.9576 58.5059 27.3414L60.5024 23.8753ZM58.5092 18.6724C55.1817 20.598 55.1817 25.402 58.5092 27.3276L60.5127 23.8655C59.8472 23.4804 59.8472 22.5196 60.5127 22.1345L58.5092 18.6724ZM53.0068 17.7971C53.0106 21.6416 57.171 24.0436 60.5024 22.1247L58.5059 18.6586C57.8396 19.0424 57.0075 18.562 57.0068 17.7931L53.0068 17.7971Z" fill="currentColor" />
</svg>