<svg viewBox="0 0 80 80" fill="none">
  <path fill-rule="evenodd" clip-rule="evenodd" d="M8 36.1C8 36.0448 8.04477 36 8.1 36H71.9C71.9552 36 72 36.0448 72 36.1V50C72 50.9591 71.6624 51.8394 71.0997 52.5285C71.0707 51.7862 70.9732 51.0421 70.8051 50.3056C69.9851 46.713 67.5738 43.6893 64.2538 42.0904C60.9337 40.4916 57.0663 40.4916 53.7462 42.0904C50.4262 43.6893 48.0149 46.713 47.1949 50.3056C46.9153 51.5305 46.8311 52.776 46.9326 54H33.0674C33.1689 52.776 33.0847 51.5305 32.8051 50.3056C31.9851 46.713 29.5738 43.6893 26.2538 42.0904C22.9337 40.4916 19.0663 40.4916 15.7462 42.0904C12.4262 43.6893 10.0149 46.713 9.19487 50.3056C9.02676 51.0421 8.92928 51.7862 8.90035 52.5285C8.33756 51.8394 8 50.9591 8 50V36.1ZM62.9852 54H55.0148C54.8593 53.3801 54.8485 52.7246 54.9943 52.0857C55.2725 50.8667 56.0907 49.8407 57.2173 49.2982C58.3438 48.7556 59.6562 48.7556 60.7827 49.2982C61.9093 49.8407 62.7275 50.8667 63.0057 52.0857C63.1515 52.7246 63.1407 53.3801 62.9852 54ZM25.0057 52.0857C25.1515 52.7246 25.1407 53.3801 24.9852 54H17.0148C16.8593 53.3801 16.8485 52.7246 16.9943 52.0857C17.2725 50.8667 18.0907 49.8407 19.2173 49.2982C20.3439 48.7556 21.6561 48.7556 22.7827 49.2982C23.9093 49.8407 24.7275 50.8667 25.0057 52.0857Z" fill="currentColor" />
  <path d="M71.0997 52.5285L68.6015 52.6258C68.642 53.6643 69.3207 54.5694 70.3062 54.8992C71.2918 55.229 72.3786 54.9148 73.0359 54.1099L71.0997 52.5285ZM70.8051 50.3056L73.2424 49.7493V49.7493L70.8051 50.3056ZM47.1949 50.3056L44.7575 49.7493V49.7493L47.1949 50.3056ZM46.9326 54V56.5C47.6315 56.5 48.2986 56.2074 48.7719 55.6931C49.2453 55.1789 49.4818 54.49 49.424 53.7934L46.9326 54ZM33.0674 54L30.576 53.7934C30.5182 54.49 30.7547 55.1789 31.2281 55.6931C31.7014 56.2074 32.3685 56.5 33.0674 56.5V54ZM32.8051 50.3056L35.2425 49.7493L35.2424 49.7493L32.8051 50.3056ZM26.2538 42.0904L27.3385 39.838V39.838L26.2538 42.0904ZM9.19487 50.3056L6.75755 49.7493L9.19487 50.3056ZM8.90035 52.5285L6.96406 54.1099C7.62144 54.9148 8.70823 55.229 9.69375 54.8992C10.6793 54.5694 11.358 53.6643 11.3985 52.6258L8.90035 52.5285ZM55.0148 54L52.59 54.6084C52.869 55.7203 53.8685 56.5 55.0148 56.5V54ZM62.9852 54V56.5C64.1315 56.5 65.131 55.7203 65.41 54.6084L62.9852 54ZM54.9943 52.0857L52.557 51.5294V51.5294L54.9943 52.0857ZM63.0057 52.0857L65.443 51.5294V51.5294L63.0057 52.0857ZM24.9852 54V56.5C26.1315 56.5 27.131 55.7203 27.41 54.6084L24.9852 54ZM25.0057 52.0857L27.443 51.5294V51.5294L25.0057 52.0857ZM17.0148 54L14.59 54.6084C14.869 55.7203 15.8685 56.5 17.0148 56.5V54ZM16.9943 52.0857L14.557 51.5294V51.5294L16.9943 52.0857ZM22.7827 49.2982L21.698 51.5506H21.698L22.7827 49.2982ZM8.1 33.5C6.66405 33.5 5.5 34.6641 5.5 36.1H10.5C10.5 37.4255 9.42549 38.5 8.1 38.5V33.5ZM71.9 33.5H8.1V38.5H71.9V33.5ZM74.5 36.1C74.5 34.6641 73.336 33.5 71.9 33.5V38.5C70.5745 38.5 69.5 37.4254 69.5 36.1H74.5ZM74.5 50V36.1H69.5V50H74.5ZM73.0359 54.1099C73.9499 52.9907 74.5 51.5562 74.5 50H69.5C69.5 50.362 69.375 50.688 69.1634 50.9471L73.0359 54.1099ZM68.3678 50.8619C68.5013 51.4466 68.5786 52.037 68.6015 52.6258L73.5978 52.4311C73.5628 51.5353 73.4452 50.6376 73.2424 49.7493L68.3678 50.8619ZM63.1691 44.3428C65.8037 45.6116 67.7171 48.011 68.3678 50.8619L73.2424 49.7493C72.2532 45.4149 69.344 41.767 65.3385 39.838L63.1691 44.3428ZM54.8309 44.3428C57.4655 43.0741 60.5345 43.0741 63.1691 44.3428L65.3385 39.838C61.333 37.909 56.667 37.909 52.6615 39.838L54.8309 44.3428ZM49.6322 50.8619C50.2829 48.011 52.1963 45.6116 54.8309 44.3428L52.6615 39.838C48.656 41.767 45.7468 45.4149 44.7575 49.7493L49.6322 50.8619ZM49.424 53.7934C49.3435 52.8223 49.4103 51.8341 49.6322 50.8619L44.7575 49.7493C44.4203 51.2268 44.3187 52.7298 44.4411 54.2066L49.424 53.7934ZM33.0674 56.5H46.9326V51.5H33.0674V56.5ZM30.3678 50.8619C30.5897 51.8341 30.6565 52.8223 30.576 53.7934L35.5589 54.2066C35.6813 52.7298 35.5797 51.2268 35.2425 49.7493L30.3678 50.8619ZM25.1691 44.3428C27.8037 45.6116 29.7171 48.011 30.3678 50.8619L35.2424 49.7493C34.2532 45.4149 31.344 41.767 27.3385 39.838L25.1691 44.3428ZM16.8309 44.3428C19.4655 43.0741 22.5345 43.0741 25.1691 44.3428L27.3385 39.838C23.333 37.909 18.667 37.909 14.6615 39.838L16.8309 44.3428ZM11.6322 50.8619C12.2829 48.011 14.1963 45.6116 16.8309 44.3428L14.6615 39.838C10.656 41.767 7.74683 45.4149 6.75755 49.7493L11.6322 50.8619ZM11.3985 52.6258C11.4214 52.037 11.4987 51.4466 11.6322 50.8619L6.75755 49.7493C6.55479 50.6376 6.43716 51.5353 6.40225 52.4311L11.3985 52.6258ZM5.5 50C5.5 51.5562 6.05007 52.9907 6.96406 54.1099L10.8366 50.9471C10.625 50.688 10.5 50.362 10.5 50H5.5ZM5.5 36.1V50H10.5V36.1H5.5ZM55.0148 56.5H62.9852V51.5H55.0148V56.5ZM52.557 51.5294C52.3224 52.557 52.3399 53.6116 52.59 54.6084L57.4397 53.3916C57.3787 53.1486 57.3745 52.8922 57.4316 52.642L52.557 51.5294ZM56.1326 47.0457C54.3206 47.9184 53.0045 49.5686 52.557 51.5294L57.4316 52.642C57.5406 52.1647 57.8609 51.763 58.302 51.5506L56.1326 47.0457ZM61.8674 47.0457C60.0554 46.1731 57.9446 46.1731 56.1326 47.0457L58.302 51.5506C58.7431 51.3382 59.2569 51.3382 59.698 51.5506L61.8674 47.0457ZM65.443 51.5294C64.9955 49.5686 63.6794 47.9184 61.8674 47.0457L59.698 51.5506C60.1391 51.763 60.4594 52.1647 60.5684 52.642L65.443 51.5294ZM65.41 54.6084C65.6601 53.6116 65.6776 52.557 65.443 51.5294L60.5684 52.642C60.6255 52.8922 60.6213 53.1486 60.5603 53.3916L65.41 54.6084ZM27.41 54.6084C27.6601 53.6116 27.6776 52.557 27.443 51.5294L22.5684 52.642C22.6255 52.8922 22.6213 53.1486 22.5603 53.3916L27.41 54.6084ZM17.0148 56.5H24.9852V51.5H17.0148V56.5ZM14.557 51.5294C14.3224 52.557 14.3399 53.6116 14.59 54.6084L19.4397 53.3916C19.3787 53.1486 19.3745 52.8922 19.4316 52.642L14.557 51.5294ZM18.1326 47.0457C16.3206 47.9184 15.0045 49.5687 14.557 51.5294L19.4316 52.642C19.5406 52.1647 19.8609 51.763 20.302 51.5506L18.1326 47.0457ZM23.8674 47.0457C22.0554 46.1731 19.9446 46.1731 18.1326 47.0457L20.302 51.5506C20.7431 51.3382 21.2569 51.3382 21.698 51.5506L23.8674 47.0457ZM27.443 51.5294C26.9955 49.5687 25.6794 47.9184 23.8674 47.0457L21.698 51.5506C22.1391 51.763 22.4594 52.1647 22.5684 52.642L27.443 51.5294Z" fill="currentColor" />
  <path d="M71.9124 35.9212L73.5848 34.0629L71.9124 35.9212ZM12 20.5H50.4651V15.5H12V20.5ZM10.5 35.9V22H5.5V35.9H10.5ZM8.1 33.5C9.42553 33.5 10.5 34.5746 10.5 35.9H5.5C5.5 37.3359 6.66401 38.5 8.1 38.5V33.5ZM71.9 33.5H8.1V38.5H71.9V33.5ZM73.5848 34.0629L54.8133 17.1686L51.4685 20.8851L70.24 37.7794L73.5848 34.0629ZM50.4651 20.5C50.8356 20.5 51.1931 20.6372 51.4685 20.8851L54.8133 17.1686C53.6198 16.0944 52.0708 15.5 50.4651 15.5V20.5ZM71.9 38.5C72.4541 38.5 73.1121 38.3131 73.6497 37.8001C74.1635 37.3098 74.3671 36.7128 74.4184 36.242C74.5145 35.3606 74.1466 34.5686 73.5848 34.0629L70.24 37.7794C69.7088 37.3013 69.3553 36.5487 69.4479 35.6999C69.4975 35.2453 69.6948 34.6629 70.1976 34.183C70.7242 33.6805 71.3665 33.5 71.9 33.5V38.5ZM12 15.5C8.41015 15.5 5.5 18.4101 5.5 22H10.5C10.5 21.1716 11.1716 20.5 12 20.5V15.5Z" fill="currentColor" />
  <path d="M8.1001 33.5C6.71939 33.5 5.6001 34.6193 5.6001 36C5.6001 37.3807 6.71939 38.5 8.1001 38.5V33.5ZM71.8321 38.5C73.2128 38.5 74.3321 37.3807 74.3321 36C74.3321 34.6193 73.2128 33.5 71.8321 33.5V38.5ZM37.3321 36C37.3321 37.3807 38.4514 38.5 39.8321 38.5C41.2128 38.5 42.3321 37.3807 42.3321 36H37.3321ZM42.3321 18C42.3321 16.6193 41.2128 15.5 39.8321 15.5C38.4514 15.5 37.3321 16.6193 37.3321 18H42.3321ZM21.3321 36C21.3321 37.3807 22.4514 38.5 23.8321 38.5C25.2128 38.5 26.3321 37.3807 26.3321 36H21.3321ZM26.3321 18C26.3321 16.6193 25.2128 15.5 23.8321 15.5C22.4514 15.5 21.3321 16.6193 21.3321 18L26.3321 18ZM8.1001 38.5H71.8321V33.5H8.1001V38.5ZM42.3321 36V18H37.3321V36H42.3321ZM26.3321 36V18L21.3321 18L21.3321 36H26.3321Z" fill="currentColor" />
  <path d="M17.4818 45.6943C19.7051 44.6236 22.2949 44.6236 24.5182 45.6943C26.7415 46.765 28.3563 48.7898 28.9054 51.1956C29.4545 53.6015 28.8782 56.1264 27.3397 58.0557C25.8011 59.985 23.4677 61.1087 21 61.1087C18.5323 61.1087 16.1989 59.985 14.6603 58.0557C13.1218 56.1264 12.5455 53.6015 13.0946 51.1956C13.6437 48.7898 15.2585 46.765 17.4818 45.6943Z" fill="currentColor" />
  <path d="M55.4818 45.6943C57.7051 44.6236 60.2949 44.6236 62.5182 45.6943C64.7415 46.765 66.3563 48.7898 66.9054 51.1956C67.4545 53.6015 66.8782 56.1264 65.3397 58.0557C63.8011 59.985 61.4677 61.1087 59 61.1087C56.5323 61.1087 54.1989 59.985 52.6603 58.0557C51.1218 56.1264 50.5455 53.6015 51.0946 51.1956C51.6437 48.7898 53.2585 46.765 55.4818 45.6943Z" fill="currentColor" />
</svg>