<svg viewBox="0 0 80 80" fill="none">
  <path fill-rule="evenodd" clip-rule="evenodd" d="M17.732 49.7466C17.357 49.3716 16.8484 49.161 16.3181 49.161H6.14648C5.04191 49.161 4.14648 48.2656 4.14648 47.161V33.1678C4.14648 32.0632 5.04191 31.1678 6.14648 31.1678H16.3185C16.8488 31.1678 17.3574 30.9572 17.7324 30.5823L28.7325 19.5863C29.9926 18.3267 32.1465 19.2191 32.1465 21.0008V21.1698V58.1559V59.3284C32.1465 61.1101 29.9926 62.0025 28.7325 60.7429L17.732 49.7466Z" fill="currentColor" />
  <path d="M32.1465 21.1698H33.6465V21.1698L32.1465 21.1698ZM28.7325 60.7429L29.793 59.6821L28.7325 60.7429ZM32.1465 21.0008L30.6465 21.0008L32.1465 21.0008ZM17.7324 30.5823L16.672 29.5214L17.7324 30.5823ZM17.732 49.7466L16.6716 50.8074L17.732 49.7466ZM16.3181 47.661H6.14648V50.661H16.3181V47.661ZM5.64648 47.161V33.1678H2.64648V47.161H5.64648ZM6.14648 32.6678H16.3185V29.6678H6.14648V32.6678ZM18.7929 31.6431L29.793 20.6472L27.6721 18.5254L16.672 29.5214L18.7929 31.6431ZM30.6465 21.0008V21.1698L33.6465 21.1698V21.0008L30.6465 21.0008ZM30.6465 21.1698V58.1559H33.6465V21.1698H30.6465ZM30.6465 58.1559V59.3284H33.6465V58.1559H30.6465ZM29.793 59.6821L18.7925 48.6857L16.6716 50.8074L27.6721 61.8038L29.793 59.6821ZM30.6465 59.3284C30.6465 59.7739 30.108 59.997 29.793 59.6821L27.6721 61.8038C29.8771 64.008 33.6465 62.4463 33.6465 59.3284H30.6465ZM29.793 20.6472C30.108 20.3323 30.6465 20.5554 30.6465 21.0008L33.6465 21.0008C33.6465 17.8829 29.8771 16.3212 27.6721 18.5254L29.793 20.6472ZM16.3185 32.6678C17.2465 32.6678 18.1365 32.2992 18.7929 31.6431L16.672 29.5214C16.5782 29.6151 16.451 29.6678 16.3185 29.6678V32.6678ZM5.64648 33.1678C5.64648 32.8917 5.87034 32.6678 6.14648 32.6678V29.6678C4.21349 29.6678 2.64648 31.2348 2.64648 33.1678H5.64648ZM6.14648 47.661C5.87034 47.661 5.64648 47.4372 5.64648 47.161H2.64648C2.64648 49.094 4.21348 50.661 6.14648 50.661V47.661ZM16.3181 50.661C16.4507 50.661 16.5778 50.7137 16.6716 50.8074L18.7925 48.6857C18.1362 48.0296 17.2461 47.661 16.3181 47.661V50.661Z" fill="currentColor" />
  <path d="M41.3948 30.9091L43.2454 29.2282L43.2454 29.2282L41.3948 30.9091ZM44.6043 36.7602L42.1847 37.3892L44.6043 36.7602ZM38.5866 25.5383C37.383 24.8618 35.8589 25.2891 35.1824 26.4927C34.5058 27.6963 34.9331 29.2205 36.1367 29.897L38.5866 25.5383ZM41.3948 49.1056L43.2454 50.7865L43.2454 50.7865L41.3948 49.1056ZM36.1391 50.1164C34.9356 50.7931 34.5085 52.3173 35.1853 53.5208C35.862 54.7243 37.3863 55.1513 38.5897 54.4746L36.1391 50.1164ZM44.6043 43.2545L42.1847 42.6254L44.6043 43.2545ZM39.5443 32.59C40.8428 34.0195 41.7358 35.6626 42.1847 37.3892L47.0238 36.1312C46.3615 33.5832 45.0606 31.2265 43.2454 29.2282L39.5443 32.59ZM36.1367 29.897C37.444 30.6318 38.5938 31.5435 39.5443 32.59L43.2454 29.2282C41.9182 27.767 40.3408 26.5243 38.5866 25.5383L36.1367 29.897ZM39.5443 47.4247C38.5943 48.4705 37.4454 49.3818 36.1391 50.1164L38.5897 54.4746C40.3427 53.4889 41.919 52.2468 43.2454 50.7865L39.5443 47.4247ZM42.1847 42.6254C41.7358 44.352 40.8428 45.9951 39.5443 47.4247L43.2454 50.7865C45.0606 48.7881 46.3615 46.4314 47.0238 43.8835L42.1847 42.6254ZM47.0238 43.8835C47.6867 41.3337 47.6867 38.6809 47.0238 36.1312L42.1847 37.3892C42.6331 39.114 42.6331 40.9007 42.1847 42.6254L47.0238 43.8835Z" fill="currentColor" />
</svg>