<svg viewBox="0 0 80 80" fill="none">
  <path fill-rule="evenodd" clip-rule="evenodd" d="M13.5775 30.724C15.8197 22.3559 22.3559 15.8197 30.724 13.5775C39.092 11.3353 48.0206 13.7277 54.1464 19.8536C60.2723 25.9794 62.6647 34.908 60.4225 43.276C58.1802 51.6441 51.6441 58.1802 43.276 60.4225C34.908 62.6647 25.9794 60.2723 19.8536 54.1464C13.7277 48.0206 11.3353 39.092 13.5775 30.724ZM52.0887 55.9828L64.6608 68.5548C65.8324 69.7264 67.7318 69.7264 68.9034 68.5548C70.075 67.3833 70.075 65.4838 68.9034 64.3122L56.288 51.6967C55.0707 53.2939 53.6597 54.7338 52.0887 55.9828ZM25 34C23.3432 34 22 35.3431 22 37C22 38.6569 23.3432 40 25 40H49C50.6569 40 52 38.6569 52 37C52 35.3431 50.6569 34 49 34H25Z" fill="currentColor" />
</svg>