<svg viewBox="0 0 80 80" fill="none">
  <path fill-rule="evenodd" clip-rule="evenodd" d="M13.5775 30.724C15.8197 22.3559 22.3559 15.8197 30.724 13.5775C39.092 11.3353 48.0206 13.7277 54.1464 19.8536C60.2723 25.9794 62.6647 34.908 60.4225 43.276C58.1802 51.6441 51.6441 58.1802 43.276 60.4225C34.908 62.6647 25.9794 60.2723 19.8536 54.1464C13.7277 48.0206 11.3353 39.092 13.5775 30.724ZM52.0887 55.9828L64.6608 68.5548C65.8324 69.7264 67.7318 69.7264 68.9034 68.5548C70.075 67.3833 70.075 65.4838 68.9034 64.3122L56.288 51.6967C55.0707 53.2939 53.6597 54.7338 52.0887 55.9828ZM39.8711 25C39.8711 23.3431 38.528 22 36.8711 22C35.2143 22 33.8711 23.3431 33.8711 25V34H24.8711C23.2143 34 21.8711 35.3431 21.8711 37C21.8711 38.6569 23.2143 40 24.8711 40H33.8711V49C33.8711 50.6568 35.2143 52 36.8711 52C38.528 52 39.8711 50.6568 39.8711 49V40H48.8711C50.528 40 51.8711 38.6569 51.8711 37C51.8711 35.3431 50.528 34 48.8711 34H39.8711V25Z" fill="currentColor" />
</svg>