<svg viewBox="0 0 80 80" fill="none">
  <mask id="mask0" mask-type="alpha" maskUnits="userSpaceOnUse" x="0" y="0" width="80" height="80">
    <circle cx="40" cy="40" r="40" fill="#C4C4C4" />
  </mask>
  <g mask="url(#mask0)">
    <rect width="80" height="80" fill="#2F80ED" />
    <rect x="20" width="40" height="80" fill="#F2C94C" />
    <path d="M37 28.5L40 23L43 28.5H40H37Z" fill="#333333" />
    <path d="M40 57.5V23M40 23L37 28.5H43L40 23Z" stroke="black" stroke-width="3" stroke-linecap="square" />
    <path d="M28.5 30L25.0001 27.5C25.0001 27.5 26.1553 28.6552 27.4569 30.5L28.5 30Z" fill="#333333" />
    <path d="M52.5431 30.5C51.4227 32.088 50.1938 34.187 49.4999 36.5C47.9999 41.5 47.9999 47.5 47.9999 47.5L39.9999 46.5L31.9999 47.5C31.9999 47.5 32.0001 41.5 30.5001 36.5C29.8062 34.187 28.5773 32.088 27.4569 30.5M52.5431 30.5C53.8447 28.6552 54.9999 27.5 54.9999 27.5L51.5 30L52.5431 30.5ZM27.4569 30.5C26.1553 28.6552 25.0001 27.5 25.0001 27.5L28.5 30L27.4569 30.5Z" stroke="black" stroke-width="3" stroke-linecap="square" />
  </g>
</svg>