<svg viewBox="0 0 80 80" fill="none">
  <mask id="mask0" mask-type="alpha" maskUnits="userSpaceOnUse" x="0" y="0" width="80" height="80">
    <circle cx="40" cy="40" r="40" fill="#C4C4C4" />
  </mask>
  <g mask="url(#mask0)">
    <g clip-path="url(#clip0)">
      <path d="M80 0H0V80H80V0Z" fill="#2F80ED" />
      <path d="M7.41516 0.0771332H87.4151V79.9213" fill="#F2C94C" />
      <path d="M0.0400386 1.52533L1.68584 6.26008L6.69743 6.36221L2.703 9.39058L4.15454 14.1884L0.0400386 11.3253L-4.07446 14.1884L-2.62292 9.39058L-6.61736 6.36221L-1.60576 6.26008L0.0400386 1.52533Z" fill="#F2F2F2" />
      <path d="M10.0802 11.5655L11.726 16.3003L16.7376 16.4024L12.7432 19.4308L14.1947 24.2286L10.0802 21.3655L5.9657 24.2286L7.41724 19.4308L3.4228 16.4024L8.4344 16.3003L10.0802 11.5655Z" fill="#F2F2F2" />
      <path d="M20.1205 21.6057L21.7663 26.3405L26.7779 26.4426L22.7834 29.471L24.235 34.2688L20.1205 31.4057L16.006 34.2688L17.4575 29.471L13.4631 26.4426L18.4747 26.3405L20.1205 21.6057Z" fill="#F2F2F2" />
      <path d="M30.1606 31.6459L31.8064 36.3807L36.818 36.4828L32.8236 39.5112L34.2751 44.309L30.1606 41.4459L26.0461 44.309L27.4977 39.5112L23.5032 36.4828L28.5148 36.3807L30.1606 31.6459Z" fill="#F2F2F2" />
      <path d="M40.2008 41.6861L41.8466 46.4208L46.8582 46.523L42.8638 49.5513L44.3153 54.3492L40.2008 51.4861L36.0863 54.3492L37.5378 49.5513L33.5434 46.523L38.555 46.4208L40.2008 41.6861Z" fill="#F2F2F2" />
      <path d="M50.241 51.7263L51.8868 56.461L56.8984 56.5632L52.9039 59.5915L54.3555 64.3894L50.241 61.5263L46.1265 64.3894L47.578 59.5915L43.5836 56.5632L48.5952 56.461L50.241 51.7263Z" fill="#F2F2F2" />
      <path d="M60.2812 61.7665L61.927 66.5012L66.9386 66.6034L62.9442 69.6317L64.3957 74.4296L60.2812 71.5665L56.1668 74.4296L57.6183 69.6317L53.6239 66.6034L58.6355 66.5012L60.2812 61.7665Z" fill="#F2F2F2" />
      <path d="M70.3214 71.8067L71.9672 76.5414L76.9788 76.6436L72.9844 79.6719L74.4359 84.4698L70.3214 81.6067L66.2069 84.4698L67.6585 79.6719L63.664 76.6436L68.6756 76.5414L70.3214 71.8067Z" fill="#F2F2F2" />
    </g>
  </g>
  <defs>
    <clipPath id="clip0">
      <rect width="80" height="80" fill="white" />
    </clipPath>
  </defs>
</svg>