<svg viewBox="0 0 80 80" fill="none">
  <mask id="mask05BO4" mask-type="alpha" maskUnits="userSpaceOnUse" x="0" y="0" width="80" height="80">
    <circle cx="40" cy="40" r="40" fill="#C4C4C4" />
  </mask>
  <g mask="url(#mask05BO4)">
    <g clip-path="url(#clip05BO4)">
      <path d="M120 -0.0102539H0V19.9897H120V-0.0102539Z" fill="#F2C94C" />
      <path d="M120 19.9897H0V39.9897H120V19.9897Z" fill="#F2F2F2" />
      <path d="M120 39.9897H0V59.9897H120V39.9897Z" fill="#EB5757" />
      <path d="M120 59.9897H0V79.9897H120V59.9897Z" fill="#2F80ED" />
      <path d="M56 40L0 0V80L56 40Z" fill="#219653" />
      <path fill-rule="evenodd" clip-rule="evenodd" d="M24.5391 25.2654C17.3753 26.6072 11.967 32.6895 11.967 39.9897C11.967 47.29 17.3753 53.3723 24.5391 54.7141C23.5735 54.895 22.576 54.9897 21.5556 54.9897C12.9645 54.9897 6 48.274 6 39.9897C6 31.7055 12.9645 24.9897 21.5556 24.9897C22.576 24.9897 23.5735 25.0845 24.5391 25.2654Z" fill="#F2F2F2" />
      <path d="M23.8513 27.4343C24.2555 27.3076 24.6888 27.3076 25.093 27.4343L25.1259 27.4446C25.5183 27.5675 25.8624 27.8103 26.1099 28.1387L26.1228 28.1559C26.3717 28.4862 26.5063 28.8886 26.5063 29.3022C26.5063 29.7159 26.3717 30.1183 26.1228 30.4486L26.1099 30.4658C25.8624 30.7942 25.5183 31.037 25.1259 31.1599L25.093 31.1702C24.6888 31.2969 24.2555 31.2969 23.8513 31.1702L23.8184 31.1599C23.426 31.037 23.0819 30.7942 22.8344 30.4658L22.8215 30.4486C22.5726 30.1183 22.4379 29.7159 22.4379 29.3022C22.4379 28.8886 22.5726 28.4862 22.8215 28.1559L22.8344 28.1387C23.0819 27.8103 23.426 27.5675 23.8184 27.4446L23.8513 27.4343Z" fill="#F2F2F2" />
      <path d="M23.8513 34.5593C24.2555 34.4326 24.6888 34.4326 25.093 34.5593L25.1259 34.5696C25.5183 34.6925 25.8624 34.9353 26.1099 35.2637L26.1228 35.2809C26.3717 35.6112 26.5063 36.0136 26.5063 36.4272C26.5063 36.8409 26.3717 37.2433 26.1228 37.5736L26.1099 37.5908C25.8624 37.9192 25.5183 38.162 25.1259 38.2849L25.093 38.2952C24.6888 38.4219 24.2555 38.4219 23.8513 38.2952L23.8184 38.2849C23.426 38.162 23.0819 37.9192 22.8344 37.5908L22.8215 37.5736C22.5726 37.2433 22.4379 36.8409 22.4379 36.4272C22.4379 36.0136 22.5726 35.6112 22.8215 35.2809L22.8344 35.2637C23.0819 34.9353 23.426 34.6925 23.8184 34.5696L23.8513 34.5593Z" fill="#F2F2F2" />
      <path d="M23.8513 41.6843C24.2555 41.5576 24.6888 41.5576 25.093 41.6843L25.1259 41.6946C25.5183 41.8175 25.8624 42.0603 26.1099 42.3887L26.1228 42.4059C26.3717 42.7362 26.5063 43.1386 26.5063 43.5522C26.5063 43.9659 26.3717 44.3683 26.1228 44.6986L26.1099 44.7158C25.8624 45.0442 25.5183 45.287 25.1259 45.4099L25.093 45.4202C24.6888 45.5469 24.2555 45.5469 23.8513 45.4202L23.8184 45.4099C23.426 45.287 23.0819 45.0442 22.8344 44.7158L22.8215 44.6986C22.5726 44.3683 22.4379 43.9659 22.4379 43.5522C22.4379 43.1386 22.5726 42.7362 22.8215 42.4059L22.8344 42.3887C23.0819 42.0603 23.426 41.8175 23.8184 41.6946L23.8513 41.6843Z" fill="#F2F2F2" />
      <path d="M23.8513 48.8093C24.2555 48.6826 24.6888 48.6826 25.093 48.8093L25.1259 48.8196C25.5183 48.9425 25.8624 49.1853 26.1099 49.5137L26.1228 49.5309C26.3717 49.8612 26.5063 50.2636 26.5063 50.6772C26.5063 51.0909 26.3717 51.4933 26.1228 51.8236L26.1099 51.8408C25.8624 52.1692 25.5183 52.412 25.1259 52.5349L25.093 52.5452C24.6888 52.6719 24.2555 52.6719 23.8513 52.5452L23.8184 52.5349C23.426 52.412 23.0819 52.1692 22.8344 51.8408L22.8215 51.8236C22.5726 51.4933 22.4379 51.0909 22.4379 50.6772C22.4379 50.2636 22.5726 49.8612 22.8215 49.5309L22.8344 49.5137C23.0819 49.1853 23.426 48.9425 23.8184 48.8196L23.8513 48.8093Z" fill="#F2F2F2" />
    </g>
  </g>
  <defs>
    <clipPath id="clip05BO4">
      <rect width="80" height="80" fill="white" />
    </clipPath>
  </defs>
</svg>