<svg viewBox="0 0 80 80" fill="none">
  <mask id="mask0" mask-type="alpha" maskUnits="userSpaceOnUse" x="0" y="0" width="80" height="80">
    <circle cx="40" cy="40" r="40" fill="#C4C4C4" />
  </mask>
  <g mask="url(#mask0)">
    <g clip-path="url(#clip0)">
      <path d="M60 40L0 80V0L60 40Z" fill="#219653" />
      <path d="M80 0V80L20 40L80 0Z" fill="#219653" />
      <path d="M40 40L80 80H0L40 40Z" fill="#F2C94C" />
      <path d="M80 0L40 40L0 0H80Z" fill="#F2C94C" />
      <path d="M40 5.5C59.0538 5.5 74.5 20.9462 74.5 40C74.5 59.0538 59.0538 74.5 40 74.5C20.9462 74.5 5.5 59.0538 5.5 40C5.5 20.9462 20.9462 5.5 40 5.5Z" stroke="#EB5757" stroke-width="11" />
      <path d="M40 2.5127L40.7772 4.90409H43.2916L41.2574 6.38206L42.0346 8.77362L40 7.29542L37.9656 8.77362L38.7428 6.38206L36.7084 4.90409H39.2228L40 2.5127Z" fill="#F2C94C" />
      <path d="M40 71.3823L40.7772 73.7737H43.2916L41.2574 75.2519L42.0346 77.6432L40 76.1652L37.9656 77.6432L38.7428 75.2519L36.7084 73.7737H39.2228L40 71.3823Z" fill="#F2C94C" />
      <path d="M19.8658 2.5127L20.643 4.90409H23.1571L21.1232 6.38206L21.9004 8.77362L19.8658 7.29542L17.8316 8.77362L18.6086 6.38206L16.5742 4.90409H19.0886L19.8658 2.5127Z" fill="#F2C94C" />
      <path d="M60.1342 2.5127L60.9114 4.90409H63.4258L61.3916 6.38206L62.1686 8.77362L60.1342 7.29542L58.1001 8.77362L58.8773 6.38206L56.8429 4.90409H59.357L60.1342 2.5127Z" fill="#F2C94C" />
      <path d="M19.8658 71.3823L20.643 73.7737H23.1571L21.1232 75.2519L21.9004 77.6432L19.8658 76.1652L17.8316 77.6432L18.6086 75.2519L16.5742 73.7737H19.0886L19.8658 71.3823Z" fill="#F2C94C" />
      <path d="M60.1342 71.3823L60.9114 73.7737H63.4258L61.3916 75.2519L62.1686 77.6432L60.1342 76.1652L58.1001 77.6432L58.8773 75.2519L56.8429 73.7737H59.357L60.1342 71.3823Z" fill="#F2C94C" />
      <path d="M40 48.9812C44.9172 48.9812 48.9034 44.9949 48.9034 40.0778C48.9034 35.1606 44.9172 31.1743 40 31.1743C35.0828 31.1743 31.0966 35.1606 31.0966 40.0778C31.0966 44.9949 35.0828 48.9812 40 48.9812Z" fill="#EB5757" />
      <path d="M40 31.1738L41.9959 37.3168H48.4555L43.2299 41.1141L45.2256 47.2574L40 43.4607L34.7739 47.2574L36.7701 41.1141L31.5444 37.3168H38.0038L40 31.1738Z" fill="#F2C94C" />
      <path d="M25.2316 39.3405C26.2589 40.9607 25.7761 43.1047 24.153 44.1305C22.53 45.1562 20.3815 44.6741 19.3537 43.054C17.4935 40.1207 18.5721 35.3309 18.5721 35.3309C18.5721 35.3309 23.3709 36.4074 25.2316 39.3405Z" fill="#F2C94C" />
      <path d="M23.2226 44.3992C24.1831 44.3992 24.9616 43.6221 24.9616 42.6635C24.9616 41.7049 24.1831 40.9279 23.2226 40.9279C22.2621 40.9279 21.4835 41.7049 21.4835 42.6635C21.4835 43.6221 22.2621 44.3992 23.2226 44.3992Z" fill="#EB5757" />
    </g>
  </g>
  <defs>
    <clipPath id="clip0">
      <rect width="80" height="80" fill="white" />
    </clipPath>
  </defs>
</svg>