<svg viewBox="0 0 80 80" fill="none">
  <mask id="mask0" mask-type="alpha" maskUnits="userSpaceOnUse" x="0" y="0" width="80" height="80">
    <rect width="80" height="80" rx="40" fill="white" />
  </mask>
  <g mask="url(#mask0)">
    <g clip-path="url(#clip0)">
      <path d="M80 0.0791016H0V79.9214H80V0.0791016Z" fill="#F0F0F0" />
      <path d="M80.1562 0H0V26H80.1562V0Z" fill="#338AF3" />
      <path d="M80.1562 54H0V80H80.1562V54Z" fill="#338AF3" />
      <path d="M27 29.9414L27.8981 32.7H30.8042L28.4531 34.4048L29.3511 37.1634L27 35.4585L24.6489 37.1634L25.5469 34.4048L23.1958 32.7H26.1019L27 29.9414Z" fill="#338AF3" />
      <path d="M27 43.9141L27.8981 46.6726L30.8042 46.6726L28.4531 48.3775L29.3511 51.136L27 49.4312L24.6489 51.136L25.5469 48.3775L23.1958 46.6726L26.1019 46.6726L27 43.9141Z" fill="#338AF3" />
      <path d="M52 29.9414L52.8981 32.7H55.8042L53.4531 34.4048L54.3511 37.1634L52 35.4585L49.6489 37.1634L50.5469 34.4048L48.1958 32.7H51.1019L52 29.9414Z" fill="#338AF3" />
      <path d="M52 43.9141L52.8981 46.6726L55.8042 46.6726L53.4531 48.3775L54.3511 51.136L52 49.4312L49.6489 51.136L50.5469 48.3775L48.1958 46.6726L51.1019 46.6726L52 43.9141Z" fill="#338AF3" />
      <path d="M40 36.9277L40.8981 39.6863H43.8042L41.4531 41.3912L42.3511 44.1497L40 42.4448L37.6489 44.1497L38.5469 41.3912L36.1958 39.6863H39.1019L40 36.9277Z" fill="#338AF3" />
    </g>
  </g>
  <defs>
    <clipPath id="clip0">
      <rect width="80" height="80" fill="white" />
    </clipPath>
  </defs>
</svg>