<svg viewBox="0 0 80 80" fill="none">
  <mask id="mask0" mask-type="alpha" maskUnits="userSpaceOnUse" x="0" y="0" width="80" height="80">
    <circle cx="40" cy="40" r="40" fill="#C4C4C4" />
  </mask>
  <g mask="url(#mask0)">
    <path d="M80 0H0V80H80V0Z" fill="#56CCF2" />
    <path d="M8 8L12 12.5714L8 17.1429L4 12.5714L8 8Z" fill="#F2C94C" />
    <path d="M8 21.7143L12 26.2857L8 30.8571L4 26.2857L8 21.7143Z" fill="#F2C94C" />
    <path d="M8 33.9048L12 40L8 46.0952L4 40L8 33.9048Z" fill="#F2C94C" />
    <path d="M8 49.1429L12 53.7143L8 58.2857L4 53.7143L8 49.1429Z" fill="#F2C94C" />
    <path d="M8 62.8571L12 67.4286L8 72L4 67.4286L8 62.8571Z" fill="#F2C94C" />
    <path d="M40 24L42.7034 26.7345L46.5136 26.3957L46.8451 30.2464L49.9794 32.4618L47.784 35.6269L48.7758 39.36L45.0806 40.3585L43.4658 43.8624L40 42.2272L36.5342 43.8624L34.9194 40.3585L31.2243 39.36L32.2161 35.6269L30.0206 32.4618L33.155 30.2464L33.4865 26.3957L37.2967 26.7345L40 24Z" fill="#F2C94C" />
    <path fill-rule="evenodd" clip-rule="evenodd" d="M57.6012 34.8448C56.5285 42.4387 49.0572 48.32 40 48.32C30.9428 48.32 23.4715 42.4387 22.3988 34.8448C21.497 36.6331 21 38.5896 21 40.64C21 49.1231 29.5066 56 40 56C50.4934 56 59 49.1231 59 40.64C59 38.5896 58.503 36.6331 57.6012 34.8448Z" fill="#F2C94C" />
  </g>
</svg>