<svg viewBox="0 0 80 80" fill="none">
  <mask id="mask0" mask-type="alpha" maskUnits="userSpaceOnUse" x="0" y="0" width="80" height="80">
    <circle cx="40" cy="40" r="40" fill="#C4C4C4" />
  </mask>
  <g mask="url(#mask0)">
    <g clip-path="url(#clip0)">
      <path d="M80 0H0V80H80V0Z" fill="#F2F2F2" />
      <path d="M17 0H-30V80H17V0Z" fill="#219653" />
      <path d="M110 0H63V80H110V0Z" fill="#EB5757" />
      <path fill-rule="evenodd" clip-rule="evenodd" d="M25.7358 40.9219C25.1085 40.7347 24.698 39.8851 24.7995 38.9181C24.9098 37.8674 25.5827 37.0761 26.3025 37.1505C27.0223 37.2249 27.5164 38.137 27.4061 39.1876C27.3047 40.1531 26.7282 40.8997 26.0768 40.9565C26.1039 41.4696 26.1728 41.9742 26.2807 42.4681C26.9859 42.2935 27.8105 42.8659 28.1701 43.8064C28.501 44.6717 28.329 45.5632 27.7974 45.96C28.1033 46.4123 28.4458 46.8462 28.8218 47.259C29.3523 46.7649 30.4202 46.9068 31.2846 47.6091C32.1223 48.2897 32.4779 49.2603 32.1502 49.8782C32.4862 50.067 32.833 50.2442 33.1895 50.4091C33.652 49.9414 34.7093 49.7919 35.8323 50.0883C37.0118 50.3997 37.882 51.1022 37.9853 51.7654C38.6875 51.8529 39.4072 51.8983 40.1405 51.8983C40.9236 51.8983 41.6913 51.8465 42.4388 51.7469C42.5551 51.0892 43.4201 50.3968 44.5887 50.0883C45.6758 49.8013 46.7014 49.9323 47.1853 50.3653C47.5477 50.1947 47.8997 50.0113 48.2405 49.8159C47.967 49.1966 48.3263 48.2673 49.1363 47.6091C49.9593 46.9404 50.9669 46.7798 51.5194 47.1923C51.8922 46.7767 52.2314 46.3401 52.5337 45.8851C52.0735 45.4586 51.9394 44.6209 52.2509 43.8064C52.5878 42.9253 53.3328 42.3672 54.0054 42.4439C54.1119 41.9504 54.1794 41.4463 54.2053 40.9338C53.6125 40.7915 53.1089 40.0839 53.0148 39.1876C52.9046 38.137 53.3986 37.2249 54.1184 37.1505C54.8382 37.0761 55.5111 37.8674 55.6214 38.9181C55.7304 39.9561 55.2494 40.8588 54.5437 40.9521C54.5166 41.4906 54.4455 42.0195 54.3332 42.5364C55.0057 42.8514 55.2561 43.8418 54.8896 44.8002C54.5098 45.7935 53.6112 46.3763 52.8825 46.1018C52.8604 46.0935 52.8386 46.0845 52.8173 46.0747C52.5001 46.5517 52.1438 47.0086 51.752 47.4426C52.1423 48.0556 51.7918 49.0716 50.9242 49.7765C50.0424 50.493 48.9489 50.6262 48.43 50.0961C48.0956 50.2884 47.7508 50.4693 47.3964 50.6382C47.4185 50.6831 47.4361 50.73 47.4492 50.7787C47.649 51.5243 46.6923 52.4241 45.3123 52.7884C43.9323 53.1527 42.6516 52.8436 42.4518 52.098L42.4488 52.0867C41.6968 52.1857 40.9257 52.2371 40.1405 52.2371C39.4023 52.2371 38.6766 52.1917 37.9675 52.104C37.7625 52.8453 36.4849 53.1518 35.1086 52.7884C33.7286 52.4241 32.7719 51.5243 32.9717 50.7787C32.9796 50.7494 32.9891 50.7207 33.0003 50.6928C32.6361 50.5229 32.2818 50.3404 31.9383 50.146C31.4009 50.6169 30.3497 50.4695 29.4968 49.7765C28.6726 49.1069 28.3151 48.1567 28.6158 47.5378C28.2016 47.0886 27.8258 46.6142 27.4925 46.1179C26.7724 46.3517 25.9032 45.7727 25.5313 44.8002C25.1885 43.9036 25.3855 42.979 25.963 42.6056C25.8397 42.057 25.7628 41.4949 25.7358 40.9219Z" fill="#6FCF97" />
      <path d="M25.1375 41.1063C25.0708 41.3438 24.8227 41.4827 24.5834 41.4165C24.344 41.3503 24.2041 41.1041 24.2708 40.8665C24.3375 40.629 24.5856 40.4901 24.8249 40.5563C25.0643 40.6225 25.2042 40.8687 25.1375 41.1063Z" fill="#F2C94C" />
      <path d="M27.6868 41.2551C27.6201 41.4926 27.372 41.6315 27.1327 41.5653C26.8933 41.4991 26.7534 41.2529 26.8201 41.0154C26.8868 40.7778 27.1349 40.6389 27.3742 40.7051C27.6136 40.7713 27.7535 41.0176 27.6868 41.2551Z" fill="#F2C94C" />
      <path d="M29.3364 45.5712C29.2697 45.8087 29.0216 45.9476 28.7822 45.8814C28.5429 45.8152 28.4029 45.569 28.4697 45.3314C28.5364 45.0939 28.7845 44.955 29.0238 45.0212C29.2631 45.0874 29.4031 45.3337 29.3364 45.5712Z" fill="#F2C94C" />
      <path d="M27.3869 46.9107C27.3202 47.1482 27.0721 47.2871 26.8328 47.2209C26.5934 47.1547 26.4535 46.9084 26.5202 46.6709C26.5869 46.4334 26.835 46.2945 27.0743 46.3607C27.3137 46.4269 27.4536 46.6731 27.3869 46.9107Z" fill="#F2C94C" />
      <path d="M32.1856 51.0779C32.1189 51.3155 31.8708 51.4543 31.6315 51.3881C31.3921 51.3219 31.2522 51.0757 31.3189 50.8382C31.3856 50.6006 31.6337 50.4617 31.873 50.5279C32.1124 50.5941 32.2523 50.8404 32.1856 51.0779Z" fill="#F2C94C" />
      <path d="M33.2353 48.9943C33.1686 49.2318 32.9205 49.3707 32.6812 49.3045C32.4418 49.2383 32.3019 48.9921 32.3686 48.7545C32.4353 48.517 32.6834 48.3781 32.9228 48.4443C33.1621 48.5105 33.302 48.7568 33.2353 48.9943Z" fill="#F2C94C" />
      <path d="M47.9314 49.1431C47.8647 49.3807 47.6166 49.5195 47.3772 49.4533C47.1379 49.3871 46.998 49.1409 47.0647 48.9034C47.1314 48.6658 47.3795 48.5269 47.6188 48.5931C47.8581 48.6594 47.9981 48.9056 47.9314 49.1431Z" fill="#F2C94C" />
      <path d="M49.281 51.0779C49.2143 51.3155 48.9662 51.4543 48.7269 51.3881C48.4875 51.3219 48.3476 51.0757 48.4143 50.8382C48.481 50.6006 48.7291 50.4617 48.9684 50.5279C49.2078 50.5941 49.3477 50.8404 49.281 51.0779Z" fill="#F2C94C" />
      <path d="M53.6299 47.3572C53.5631 47.5947 53.315 47.7336 53.0757 47.6674C52.8364 47.6012 52.6964 47.3549 52.7631 47.1174C52.8298 46.8799 53.0779 46.741 53.3173 46.8072C53.5566 46.8734 53.6966 47.1196 53.6299 47.3572Z" fill="#F2C94C" />
      <path d="M51.6804 45.72C51.6137 45.9576 51.3656 46.0964 51.1262 46.0302C50.8869 45.964 50.747 45.7178 50.8137 45.4803C50.8804 45.2427 51.1285 45.1038 51.3678 45.17C51.6071 45.2363 51.7471 45.4825 51.6804 45.72Z" fill="#F2C94C" />
      <path d="M56.0292 41.7016C55.9625 41.9391 55.7144 42.078 55.4751 42.0118C55.2357 41.9456 55.0958 41.6994 55.1625 41.4618C55.2292 41.2243 55.4773 41.0854 55.7166 41.1516C55.956 41.2178 56.0959 41.4641 56.0292 41.7016Z" fill="#F2C94C" />
      <path d="M53.7798 41.2551C53.7131 41.4926 53.465 41.6315 53.2257 41.5653C52.9863 41.4991 52.8464 41.2529 52.9131 41.0154C52.9798 40.7778 53.2279 40.6389 53.4672 40.7051C53.7066 40.7713 53.8465 41.0176 53.7798 41.2551Z" fill="#F2C94C" />
      <path d="M39.1998 53.6874C39.1998 53.6874 39.0724 53.5516 38.9029 53.463C38.7333 53.3746 38.6763 53.4008 38.6763 53.4008L38.5978 53.373L38.7464 52.9887L39.8637 51.9301L40.0367 50.866L40.0779 50.8649L40.7252 50.8582L40.7182 52.3105L40.9236 52.4027L42.1706 53.1445L42.1666 53.4674C42.1666 53.4674 42.1049 53.4892 41.9845 53.5364C41.8635 53.5842 41.8346 53.6192 41.8346 53.6192L41.364 53.6631L40.542 53.072L40.2025 52.7179L39.583 53.5053L39.1997 53.6873L39.1998 53.6874Z" fill="#F2F2F2" />
      <path d="M40.0779 50.8646C40.0779 50.8646 40.0595 50.9208 40.0515 51.0844C40.043 51.248 40.0624 52.1059 40.0201 52.2232C39.978 52.3405 39.3766 52.5867 39.0329 52.8838C38.6893 53.1819 38.6763 53.4005 38.6763 53.4005C38.6763 53.4005 38.563 53.4091 38.3498 53.488C38.1368 53.5663 38.0411 53.6847 38.0411 53.6847C38.0411 53.6847 38.1673 53.1556 38.7238 52.6655C39.2812 52.1745 39.5503 52.1332 39.6123 52.0508C39.6746 51.9691 39.6123 51.0302 39.6257 50.9543C39.6383 50.8791 39.7052 50.8724 39.7512 50.8656C39.797 50.859 40.0778 50.8647 40.0778 50.8647L40.0779 50.8646Z" fill="#6FCF97" />
      <path d="M41.4987 54C41.4987 54 41.5863 53.8297 41.6426 53.7725C41.6987 53.7157 41.8344 53.6192 41.8344 53.6192C41.8344 53.6192 41.8555 53.5976 41.551 53.4662C41.2465 53.3349 41.0899 53.3786 40.8726 53.2257C40.6553 53.0726 40.4375 52.8098 40.4375 52.8098L40.1461 53.0679C40.1461 53.0679 40.3206 53.3131 40.4856 53.4707C40.6504 53.6279 41.0245 53.6806 41.19 53.7725C41.3553 53.8647 41.4987 54 41.4987 54Z" fill="#6FCF97" />
      <path d="M40.6238 50.8583C40.6238 50.8583 40.9534 50.8388 40.9992 50.8894C41.0447 50.94 41.038 50.9961 41.04 51.0128C41.0413 51.0286 41.0572 51.806 40.9992 52.0615C40.9379 52.3285 40.7988 52.5951 40.7204 52.6742C40.6419 52.7529 40.1464 53.1822 39.9113 53.4094C39.6765 53.6369 39.4375 53.9613 39.4375 53.9613C39.4375 53.9613 39.3505 53.8648 39.2765 53.7726C39.2028 53.6808 39.1282 53.6502 39.1458 53.5891C39.1631 53.528 39.4114 53.1599 39.8073 52.9017C40.2027 52.6434 40.5337 52.3503 40.6074 51.9303C40.682 51.5099 40.6238 50.8583 40.6238 50.8583L40.6238 50.8583Z" fill="#EB5757" />
      <path d="M48.5383 45.125C45.0057 47.4398 42.4213 45.0741 36.3916 45.125C32.9933 45.1537 30.7872 43.0104 29.5775 41.1066" stroke="#56CCF2" stroke-width="0.677588" stroke-linecap="round" />
      <ellipse rx="2.18866" ry="1.39769" transform="matrix(0.966876 0.255247 -0.258877 0.96591 34.0709 44.4291)" fill="#56CCF2" />
      <ellipse rx="2.18939" ry="1.67052" transform="matrix(0.989317 0.145782 -0.147954 0.988994 38.1198 45.3218)" fill="#56CCF2" />
      <ellipse rx="2.43679" ry="1.85929" transform="matrix(0.989317 0.145782 -0.147954 0.988994 42.3766 45.3099)" fill="#56CCF2" />
      <ellipse rx="1.96674" ry="1.40483" transform="matrix(0.776122 0.630583 -0.636317 0.771428 30.8641 42.6119)" fill="#56CCF2" />
      <ellipse rx="1.969" ry="1.4032" transform="matrix(-0.868312 0.496018 -0.501683 -0.865051 46.9098 45.8861)" fill="#56CCF2" />
      <ellipse rx="0.902561" ry="0.644315" transform="matrix(-0.800525 0.599299 -0.605101 -0.796149 48.9009 44.9138)" fill="#EB5757" />
      <ellipse rx="0.373129" ry="0.400771" transform="matrix(-0.800525 0.599299 -0.605101 -0.796149 49.8292 44.2537)" fill="#F2C94C" />
      <ellipse rx="0.899586" ry="0.646439" transform="matrix(0.451284 0.89238 -0.895099 0.445866 29.4583 40.9312)" fill="#EB5757" />
      <ellipse rx="0.371899" ry="0.402093" transform="matrix(0.451284 0.89238 -0.895099 0.445866 28.9713 39.9061)" fill="#F2C94C" />
      <path d="M37.4919 41.1175C37.1556 41.6364 36.2157 41.6311 35.3925 41.1056C34.5693 40.5802 34.1745 39.7335 34.5108 39.2146C34.8471 38.6957 35.787 38.701 36.6102 39.2265C37.4334 39.752 37.8282 40.5986 37.4919 41.1175Z" fill="#F2C94C" />
      <path d="M33.9515 39.2265C34.165 39.0843 34.4102 39.0335 34.6471 39.0586C34.8592 38.8755 35.1806 38.802 35.5423 38.8377C35.0419 38.7883 34.5571 38.8232 33.9515 39.2265Z" fill="#F2C94C" />
      <path d="M33.1332 29.1078C33.5022 29.4968 33.4048 30.1828 32.9155 30.64C32.7359 30.8079 32.5285 30.9216 32.3197 30.979C32.2351 31.0023 32.1503 31.0163 32.067 31.021C31.9699 31.0265 31.8749 31.0192 31.7847 30.999C31.6226 30.9627 31.4762 30.8847 31.3614 30.7637C30.9923 30.3748 31.0898 29.6888 31.579 29.2315C32.0683 28.7742 32.7641 28.7188 33.1332 29.1078Z" fill="#6FCF97" />
      <path d="M31.3523 31.2652C31.3553 31.2609 31.3583 31.2567 31.3614 31.2525C31.4646 31.1119 31.6207 31.0238 31.7847 30.999C31.879 30.9847 31.976 30.9914 32.067 31.021C32.1482 31.0475 32.2247 31.0923 32.2903 31.1569C32.4962 31.3598 32.5276 31.6942 32.35 31.9493C32.1516 32.2343 31.7674 32.3123 31.4919 32.1234C31.2164 31.9345 31.1539 31.5503 31.3523 31.2652Z" fill="#6FCF97" />
      <path d="M32.4924 37.6313C32.6578 37.3024 33.0863 37.1815 33.4494 37.3614C33.8125 37.5413 33.9727 37.9539 33.8072 38.2828C33.6417 38.6118 33.2132 38.7326 32.8501 38.5527C32.4871 38.3728 32.3269 37.9603 32.4924 37.6313Z" fill="#6FCF97" />
      <path d="M32.2924 36.3189C31.9588 36.159 31.8421 35.7135 32.0317 35.3237C32.0654 35.2545 32.1065 35.1917 32.1531 35.1361C32.3691 34.8787 32.7047 34.7761 32.9791 34.9075C33.3127 35.0674 33.4295 35.513 33.2398 35.9027C33.2352 35.9122 33.2305 35.9216 33.2256 35.9308C33.0296 36.3013 32.6179 36.4749 32.2924 36.3189Z" fill="#6FCF97" />
      <path d="M31.663 38.7033C31.931 38.5918 32.2554 38.7551 32.3877 39.068C32.52 39.381 32.41 39.7252 32.1421 39.8367C31.8742 39.9483 31.5497 39.785 31.4175 39.472C31.2852 39.159 31.3951 38.8148 31.663 38.7033Z" fill="#6FCF97" />
      <path d="M30.4641 37.1093C30.7518 37.0686 31.024 37.3081 31.0723 37.6441C31.1205 37.9801 30.9264 38.2855 30.6388 38.3261C30.3511 38.3668 30.0789 38.1274 30.0306 37.7914C30.0234 37.7413 30.0216 37.692 30.0247 37.6441C30.0423 37.3703 30.2193 37.1439 30.4641 37.1093Z" fill="#6FCF97" />
      <path d="M30.86 35.3157C31.0813 35.2844 31.2925 35.4381 31.3752 35.6728C31.3888 35.7115 31.3989 35.7524 31.4051 35.795C31.4175 35.8816 31.412 35.9659 31.3917 36.043C31.3413 36.2339 31.2002 36.3804 31.0165 36.4063C30.7587 36.4428 30.5147 36.2282 30.4715 35.927C30.4283 35.6258 30.6022 35.3522 30.86 35.3157Z" fill="#6FCF97" />
      <path d="M28.8649 34.8473C28.9181 34.5943 29.2045 34.4396 29.5045 34.5018C29.8046 34.5639 30.0047 34.8194 29.9515 35.0724C29.914 35.2507 29.7607 35.3802 29.5684 35.4194C29.4879 35.4358 29.4005 35.4363 29.3119 35.418C29.0118 35.3558 28.8117 35.1003 28.8649 34.8473Z" fill="#6FCF97" />
      <path d="M32.3197 30.979C32.2351 31.0023 32.1503 31.0163 32.067 31.021C32.1482 31.0475 32.2247 31.0923 32.2903 31.1569C32.2147 31.0825 32.2142 31.0081 32.3197 30.979Z" fill="#6FCF97" />
      <path d="M31.7847 30.999C31.6226 30.9627 31.4762 30.8847 31.3614 30.7637C31.3512 30.8876 31.3472 31.1543 31.3614 31.2525C31.4646 31.1119 31.6207 31.0238 31.7847 30.999Z" fill="#6FCF97" />
      <path d="M34.0061 32.1837C33.9313 31.8214 34.1667 31.4677 34.5318 31.3938C34.7634 31.3469 34.9917 31.4239 35.1466 31.579C35.2358 31.6684 35.3007 31.7836 35.328 31.916C35.4027 32.2784 35.1674 32.632 34.8023 32.706C34.5469 32.7577 34.2956 32.6587 34.1422 32.4705C34.0763 32.3897 34.0285 32.2925 34.0061 32.1837Z" fill="#6FCF97" />
      <path d="M34.4544 33.4339C34.4332 33.3312 34.4401 33.2293 34.4697 33.136C34.4749 33.1198 34.4807 33.1039 34.4872 33.0882C34.5607 32.9114 34.7186 32.7729 34.9217 32.7317C35.2462 32.666 35.5631 32.8739 35.6295 33.1959C35.6638 33.3622 35.6246 33.5264 35.534 33.6554C35.4492 33.7763 35.3192 33.8663 35.1622 33.8981C34.8377 33.9638 34.5208 33.756 34.4544 33.4339Z" fill="#6FCF97" />
      <path d="M32.35 31.9493C32.1516 32.2343 31.7674 32.3123 31.4919 32.1234C32.1177 32.5525 33.839 32.0987 34.1422 32.4705C34.0763 32.3897 34.0285 32.2925 34.0061 32.1837C33.9313 31.8214 34.1667 31.4677 34.5318 31.3938C34.7634 31.3469 34.9917 31.4239 35.1466 31.579C34.725 31.1569 34.1422 31.021 33.6923 31.1569C33.2332 31.2955 32.508 31.3714 32.2903 31.1569C32.4962 31.3598 32.5276 31.6942 32.35 31.9493Z" fill="#6FCF97" />
      <path d="M35.328 31.916C35.4027 32.2784 35.1674 32.632 34.8023 32.706C34.5469 32.7577 34.2956 32.6587 34.1422 32.4705C34.3512 32.7269 34.5144 32.9431 34.4872 33.0882C34.5607 32.9114 34.7186 32.7729 34.9217 32.7317C35.2462 32.666 35.5631 32.8739 35.6295 33.1959C35.6638 33.3622 35.6246 33.5264 35.534 33.6554C35.982 33.0173 35.7846 32.218 35.1466 31.579C35.2358 31.6684 35.3007 31.7836 35.328 31.916Z" fill="#6FCF97" />
      <path d="M32.1531 35.1361C32.3691 34.8787 32.7047 34.7761 32.9791 34.9075C33.3127 35.0674 33.4295 35.513 33.2398 35.9027C33.4295 35.513 34.9217 34.5278 35.534 33.6554C35.4492 33.7763 35.3192 33.8663 35.1622 33.8981C34.8377 33.9638 34.5208 33.756 34.4544 33.4339C34.4332 33.3312 34.4401 33.2293 34.4697 33.136C34.3274 33.5837 32.695 34.4495 32.1531 35.1361Z" fill="#6FCF97" />
      <path d="M32.4924 37.6313C32.6578 37.3024 33.0863 37.1815 33.4494 37.3614C32.9134 37.0959 32.9765 36.4315 33.2256 35.9308C33.0296 36.3013 32.6179 36.4749 32.2924 36.3189C31.9588 36.159 31.8421 35.7135 32.0317 35.3237C31.6121 36.1862 31.8178 38.0412 32.8501 38.5527C32.4871 38.3728 32.3269 37.9603 32.4924 37.6313Z" fill="#6FCF97" />
      <path d="M34.7442 38.1736C34.7145 37.8039 34.9915 37.4945 35.363 37.4825C35.4651 37.4792 35.5638 37.4988 35.6537 37.5365C35.891 37.636 36.0679 37.8622 36.0895 38.1302C36.1192 38.4999 35.8422 38.8093 35.4707 38.8213C35.3517 38.8251 35.2376 38.798 35.1363 38.7472C34.9212 38.6394 34.7644 38.4249 34.7442 38.1736Z" fill="#6FCF97" />
      <path d="M34.8944 39.7387C34.8802 39.5626 34.9287 39.3989 35.0213 39.2681C35.0315 39.2537 35.0423 39.2396 35.0536 39.226C35.1783 39.0755 35.3657 38.9778 35.5819 38.9709C35.6954 38.9672 35.805 38.9889 35.905 39.0309C36.1686 39.1414 36.3652 39.3927 36.3891 39.6905C36.4094 39.9425 36.3015 40.1692 36.1197 40.31C36.0051 40.3987 35.8612 40.4532 35.7016 40.4584C35.2888 40.4717 34.9275 40.1495 34.8944 39.7387Z" fill="#6FCF97" />
      <path d="M32.2635 40.0847C32.4774 40.0498 32.6994 40.1026 32.8841 40.2157C33.0625 40.325 33.206 40.4906 33.2734 40.6879C33.4107 41.0895 33.1811 41.4706 32.7607 41.539C32.6379 41.559 32.5123 41.5501 32.3928 41.5175C32.3049 41.4935 32.2202 41.4567 32.1421 41.4092C31.9628 41.2999 31.8185 41.1338 31.7508 40.9358C31.6135 40.5341 31.8431 40.1531 32.2635 40.0847Z" fill="#6FCF97" />
      <path d="M35.7016 40.4584C35.2888 40.4717 34.9275 40.1495 34.8944 39.7387C34.8802 39.5626 34.9287 39.3989 35.0213 39.2681C34.6187 39.8367 33.2915 40.4652 32.8841 40.2157C33.0625 40.325 33.206 40.4906 33.2734 40.6879C33.4107 41.0895 33.1811 41.4706 32.7607 41.539C32.6379 41.559 32.5123 41.5501 32.3928 41.5175C33.543 41.8499 35.7158 40.6228 36.1197 40.31C36.0051 40.3987 35.8612 40.4532 35.7016 40.4584Z" fill="#6FCF97" />
      <path d="M36.0895 38.1302C36.1192 38.4999 35.8422 38.8093 35.4707 38.8213C35.3517 38.8251 35.2376 38.798 35.1363 38.7472C35.269 38.8138 35.1522 39.0853 35.0536 39.226C35.1783 39.0755 35.3657 38.9778 35.5819 38.9709C35.6954 38.9672 35.805 38.9889 35.905 39.0309C36.1686 39.1414 36.3652 39.3927 36.3891 39.6905C36.3361 39.0309 36.4897 37.8872 35.6537 37.5365C35.891 37.636 36.0679 37.8622 36.0895 38.1302Z" fill="#6FCF97" />
      <path d="M33.4494 37.3614C33.8125 37.5413 33.9727 37.9539 33.8072 38.2828C33.6417 38.6118 33.2132 38.7326 32.8501 38.5527C33.6538 38.9509 34.8944 38.626 35.1363 38.7472C34.9212 38.6394 34.7644 38.4249 34.7442 38.1736C34.7145 37.8039 34.9915 37.4945 35.363 37.4825C34.7442 37.5025 34.2921 37.779 33.4494 37.3614Z" fill="#6FCF97" />
      <path d="M30.4715 35.927C30.4283 35.6258 30.6022 35.3522 30.86 35.3157C31.0813 35.2844 31.2925 35.4381 31.3752 35.6728C31.1211 34.9521 29.8237 34.5679 29.5045 34.5018C29.8046 34.5639 30.0047 34.8194 29.9515 35.0724C29.914 35.2507 29.7607 35.3802 29.5684 35.4194C29.8364 35.3648 30.4089 35.4913 30.4715 35.927Z" fill="#6FCF97" />
      <path d="M30.4641 37.1093C30.7518 37.0686 31.024 37.3081 31.0723 37.6441C31.007 37.1891 31.3131 36.4911 31.3917 36.043C31.3413 36.2339 31.2002 36.3804 31.0165 36.4063C30.7587 36.4428 30.5147 36.2282 30.4715 35.927C30.5345 36.3659 30.0828 36.738 30.0247 37.6441C30.0423 37.3703 30.2193 37.1439 30.4641 37.1093Z" fill="#6FCF97" />
      <path d="M31.663 38.7033C31.931 38.5918 32.2554 38.7551 32.3877 39.068C32.1421 38.487 31.1238 38.0031 31.0723 37.6441C31.1205 37.9801 30.9264 38.2855 30.6388 38.3261C30.3511 38.3668 30.0789 38.1274 30.0306 37.7914C30.1358 38.524 31.2055 38.9705 31.4175 39.472C31.2852 39.159 31.3951 38.8148 31.663 38.7033Z" fill="#6FCF97" />
      <path d="M32.3877 39.068C32.52 39.381 32.41 39.7252 32.1421 39.8367C31.8742 39.9483 31.5497 39.785 31.4175 39.472C31.5497 39.785 31.6206 40.5548 31.7508 40.9358C31.6135 40.5341 31.8431 40.1531 32.2635 40.0847C32.4774 40.0498 32.6994 40.1026 32.8841 40.2157C32.5189 39.9921 32.52 39.381 32.3877 39.068Z" fill="#6FCF97" />
      <ellipse rx="0.869418" ry="0.65245" transform="matrix(0.963805 0.266608 -0.270374 0.962755 29.4646 34.9442)" fill="#F2C94C" />
      <ellipse rx="1.08639" ry="1.11885" transform="matrix(0.893003 -0.450051 0.455493 0.890239 34.5722 40.1579)" fill="#F2C94C" />
      <ellipse rx="1.68677" ry="1.07904" transform="matrix(0.999972 0.00752512 -0.00763973 0.999971 42.8175 44.3701)" fill="#F2C94C" />
      <path d="M48.4206 29.5012C49.5693 30.689 50.4145 31.9788 50.8918 33.1663C51.0798 33.6338 51.2107 34.0854 51.2806 34.5086C51.4434 35.4934 51.2762 36.3247 50.7297 36.8453C48.286 39.1733 43.9888 35.1507 42.3157 32.9457C42.2364 32.8412 42.163 32.7408 42.096 32.6454C42.0163 32.5318 41.9393 32.4181 41.8652 32.3044C41.218 31.3121 40.7877 30.3241 40.6073 29.4455C40.3873 28.3745 40.5387 27.4661 41.1214 26.911C41.8701 26.1978 43.1767 26.2144 44.6395 26.8183C45.869 27.3259 47.2089 28.2484 48.4206 29.5012Z" fill="#F2994A" />
      <path d="M39.1986 26.3845C39.8133 26.3092 40.3608 26.6436 40.4215 27.1314C40.512 27.859 39.6334 28.2488 39.016 28.1423C38.5807 28.0672 38.2424 27.7816 38.1954 27.4042C38.1528 27.0613 38.3621 26.7337 38.7038 26.5433C38.8481 26.4629 39.016 26.4069 39.1986 26.3845Z" fill="#F2994A" />
      <path d="M39.1986 26.3845C39.8133 26.3092 40.3608 26.6436 40.4215 27.1314C40.512 27.859 39.6334 28.2488 39.016 28.1423C39.6346 28.249 40.3865 28.3704 40.6073 29.4455C40.3873 28.3745 40.5387 27.4661 41.1214 26.911C41.8701 26.1978 43.1767 26.2144 44.6395 26.8183C43.1764 26.2143 40.5535 25.4717 38.7038 26.5433C38.8481 26.4629 39.016 26.4069 39.1986 26.3845Z" fill="#F2994A" />
      <path d="M51.2806 34.5086C51.4434 35.4934 51.2762 36.3247 50.7297 36.8453C48.286 39.1733 43.9888 35.1507 42.3157 32.9457C42.7508 33.5222 43.4445 34.3585 44.2535 35.3032C44.2572 35.3075 44.2609 35.3118 44.2646 35.3161C46.9484 38.4493 50.8918 42.7658 50.8918 42.7658C51.8472 39.5567 51.6932 36.4566 51.2806 34.5086Z" fill="#F2994A" />
      <path d="M42.8552 34.4522C43.1642 35.1339 43.2946 35.8439 43.2658 36.5177C43.2075 37.8774 42.5007 39.0896 41.3045 39.6238C40.5261 39.9714 39.6687 39.9746 38.8716 39.698C38.1481 39.4468 37.4743 38.9651 36.9542 38.3009C36.7303 38.0149 36.5349 37.6951 36.3763 37.3453C35.8715 36.2318 35.8433 35.0426 36.2075 34.0592C36.2193 34.0273 36.2315 33.9956 36.2442 33.9641C36.5616 33.1738 37.1378 32.5262 37.927 32.1738C39.0962 31.6517 40.4435 31.9065 41.4972 32.7198C41.52 32.7374 41.5427 32.7553 41.5653 32.7734C42.0946 33.1993 42.5452 33.7685 42.8552 34.4522Z" fill="#F2994A" />
      <path d="M35.9247 28.5699C36.3973 28.3856 36.8707 28.3034 37.2914 28.314C37.8475 28.2941 38.509 28.5885 38.6908 29.0477C38.9857 29.7924 37.8495 30.7507 36.6166 31.2315C35.3838 31.7123 34.5211 31.5335 34.2263 30.7888C33.9314 30.0441 34.6918 29.0507 35.9247 28.5699Z" fill="#F2994A" />
      <path d="M38.6908 29.0477C38.9857 29.7924 37.8495 30.7507 36.6166 31.2315C37.8058 30.7677 36.6096 33.0478 36.2442 33.9641C36.5616 33.1738 37.1378 32.5262 37.927 32.1738C39.0962 31.6517 40.4435 31.9065 41.4972 32.7198C40.4406 31.9012 41.0404 30.1897 39.9907 29.2223C39.1509 28.4483 37.8413 28.2943 37.2914 28.314C37.8475 28.2941 38.509 28.5885 38.6908 29.0477Z" fill="#F2994A" />
      <path d="M44.0706 38.183C44.1016 38.3476 44.1208 38.5113 44.1291 38.673C44.2841 41.7226 40.5021 42.9926 39.0661 40.1613C39.0355 40.1009 39.0064 40.0393 38.9791 39.9764C38.9397 39.886 38.9038 39.7931 38.8716 39.698C38.8179 39.5395 38.7745 39.3746 38.7424 39.2043C38.5689 38.2826 38.7625 37.3883 39.2101 36.7171C39.2246 36.6953 39.2394 36.6738 39.2545 36.6525C39.6326 36.1174 40.1768 35.7348 40.8259 35.6104C41.7333 35.4364 42.6337 35.8079 43.2658 36.5177C43.3034 36.56 43.3401 36.6034 43.3758 36.6481C43.4814 36.7801 43.5782 36.9223 43.6647 37.0735C43.854 37.4043 43.9943 37.7781 44.0706 38.183Z" fill="#F2994A" />
      <path d="M49.5881 42.7658L44.1291 38.673C44.2841 41.7226 40.5021 42.9926 39.0661 40.1613C40.5003 42.9891 42.75 43.8969 43.2898 43.6588C43.8297 43.4207 43.8147 42.617 43.7397 42.2449L44.8644 43.5844C47.7436 44.1797 49.2132 43.2867 49.5881 42.7658Z" fill="#F2994A" />
      <path d="M39.8407 41.0543C39.8407 41.7119 39.1694 42.2449 38.3412 42.2449C37.5129 42.2449 36.8416 41.7119 36.8416 41.0543C36.8416 40.6386 37.1098 40.2727 37.5164 40.0597C37.753 39.9358 38.0365 39.8636 38.3412 39.8636C38.5693 39.8636 38.7855 39.9041 38.9791 39.9764C39.4883 40.1667 39.8407 40.5778 39.8407 41.0543Z" fill="#F2994A" />
      <path d="M38.9791 39.9764C38.9397 39.886 38.9038 39.7931 38.8716 39.698C38.1481 39.4468 37.4743 38.9651 36.9542 38.3009C37.8864 39.4916 37.9663 39.8241 37.5164 40.0597C37.753 39.9358 38.0365 39.8636 38.3412 39.8636C38.5693 39.8636 38.7855 39.9041 38.9791 39.9764Z" fill="#F2994A" />
      <path d="M42.3157 32.9457C42.2364 32.8412 42.163 32.7408 42.096 32.6454C42.0163 32.5318 41.9393 32.4181 41.8652 32.3044C42.2331 32.8686 42.2384 33.3151 41.5653 32.7734C42.0946 33.1993 42.5452 33.7685 42.8552 34.4522C43.1642 35.1339 43.2946 35.8439 43.2658 36.5177C43.3034 36.56 43.3401 36.6034 43.3758 36.6481C43.4814 36.7801 43.5782 36.9223 43.6647 37.0735C43.1423 36.1608 43.4644 34.3919 44.2535 35.3032C43.4445 34.3585 42.7508 33.5222 42.3157 32.9457Z" fill="#F2994A" />
      <path d="M35.18 29.5942C35.4079 29.749 35.4679 30.0705 35.2999 30.2967C35.144 30.5229 34.8201 30.5825 34.5921 30.4158" fill="#F2C94C" />
      <path fill-rule="evenodd" clip-rule="evenodd" d="M33.3784 31.2274C32.9992 31.5716 32.9849 32.1687 33.3465 32.5611C33.6371 32.8764 34.0819 32.9636 34.4422 32.8071C34.2172 32.7251 33.7974 32.4514 33.9173 32.0128C34.0373 31.5741 34.6318 31.4858 34.8926 31.4946C34.8566 31.4327 34.7704 31.3698 34.7197 31.3147C34.3581 30.9224 33.7576 30.8833 33.3784 31.2274Z" fill="#F2C94C" />
      <path d="M34.9018 31.5816C34.8304 31.283 35.1778 30.9454 35.6777 30.8276C36.1777 30.7098 36.6409 30.8565 36.7123 31.1551C36.7487 31.3072 36.6765 31.4693 36.5309 31.6074C36.3905 31.7406 36.1818 31.8514 35.9364 31.9092C35.8718 31.9244 35.8078 31.9352 35.7452 31.9419C35.3233 31.9865 34.964 31.8417 34.9018 31.5816Z" fill="#F2C94C" />
      <path d="M33.3784 31.2274C33.7576 30.8833 34.3581 30.9224 34.7197 31.3147C34.7704 31.3698 34.8566 31.4327 34.8926 31.4946C34.8986 31.22 35.2259 30.934 35.6777 30.8276C35.1778 30.9454 34.8249 30.7553 34.5172 30.6362C34.2095 30.5172 33.7576 30.8833 33.3784 31.2274Z" fill="#F2C94C" />
    </g>
  </g>
  <defs>
    <clipPath id="clip0">
      <rect width="80" height="80" fill="white" />
    </clipPath>
  </defs>
</svg>