<svg viewBox="0 0 80 80" fill="none">
  <mask id="mask0" mask-type="alpha" maskUnits="userSpaceOnUse" x="0" y="0" width="80" height="80">
    <circle cx="40" cy="40" r="40" fill="#C4C4C4" />
  </mask>
  <g mask="url(#mask0)">
    <g clip-path="url(#clip0)">
      <path d="M80 0H0V80H80V0Z" fill="#2F80ED" />
      <path d="M80 0H0V26.6667H80V0Z" fill="#EB5757" />
      <path opacity="0.9" d="M80 53.3333H0V80H80V53.3333Z" fill="#F2F2F2" />
      <path d="M16 23.7895H48V45.3065C48 51.2241 44.4882 56.5775 39.0602 58.9344L32 62L24.9398 58.9344C19.5118 56.5775 16 51.2241 16 45.3065V23.7895Z" fill="#EB5757" />
      <path d="M24 28.4211H40V21.4736L36.4444 22.5591L32 18L27.5556 22.5591L24 21.4736V28.4211Z" fill="#F2C94C" />
      <path d="M40 51.8718L32 41.7368L24 51.8718" stroke="#F2C94C" stroke-width="3.42857" />
      <path fill-rule="evenodd" clip-rule="evenodd" d="M32 34.0267C31.3857 33.0906 30.3353 32.4737 29.1427 32.4737C27.2492 32.4737 25.7141 34.0289 25.7141 35.9474C25.7141 36.225 25.7463 36.495 25.807 36.7538L20.123 35.3684C18.9193 36.2485 18.2856 37.2469 18.2856 38.2632C18.2856 39.2794 18.9193 40.2778 20.123 41.1579C20.7209 41.5951 21.449 41.9954 22.286 42.35C22.3012 44.4873 23.7454 46.2804 25.6987 46.7973C26.3755 48.3903 27.6237 49.6755 29.1817 50.388L27.4286 53.6086L32 57.3684L36.5715 53.6086L34.8183 50.3879C36.3762 49.6754 37.6242 48.3903 38.3011 46.7974C40.2546 46.2806 41.6989 44.4874 41.7141 42.3499C42.551 41.9954 43.279 41.595 43.8769 41.1579C45.0805 40.2778 45.7142 39.2794 45.7142 38.2632C45.7142 37.2469 45.0805 36.2485 43.8768 35.3684L38.1929 36.7538C38.2536 36.495 38.2858 36.225 38.2858 35.9474C38.2858 34.0289 36.7507 32.4737 34.8572 32.4737C33.6646 32.4737 32.6142 33.0906 32 34.0267Z" fill="#F2F2F2" />
    </g>
  </g>
  <defs>
    <clipPath id="clip0">
      <rect width="80" height="80" fill="white" />
    </clipPath>
  </defs>
</svg>