<svg viewBox="0 0 80 80" fill="none">
  <mask id="mask0" mask-type="alpha" maskUnits="userSpaceOnUse" x="0" y="0" width="80" height="80">
    <circle cx="40" cy="40" r="40" fill="#C4C4C4" />
  </mask>
  <g mask="url(#mask0)">
    <g clip-path="url(#clip0)">
      <path d="M80 0H0V80H80V0Z" fill="#2F80ED" />
      <path d="M80 0H0V26.6667H80V0Z" fill="#F2F2F2" />
      <path opacity="0.9" d="M80 53.3333H0V80H80V53.3333Z" fill="#EB5757" />
      <path d="M20 15H40V26.853C40 30.5656 37.7397 33.9041 34.2926 35.2829L30 37L25.7074 35.283C22.2603 33.9041 20 30.5656 20 26.853V15Z" fill="#2F80ED" />
      <path fill-rule="evenodd" clip-rule="evenodd" d="M40 25.54V26.853C40 30.5656 37.7397 33.9041 34.2926 35.2829L30 37L25.7074 35.2829C22.2603 33.9041 20 30.5656 20 26.853V25.5404L23.7497 28.5172L29.9997 23.5555L36.2497 28.5172L40 25.54Z" fill="#F2F2F2" />
    </g>
  </g>
  <defs>
    <clipPath id="clip0">
      <rect width="80" height="80" fill="white" />
    </clipPath>
  </defs>
</svg>