<svg viewBox="0 0 80 80" fill="none">
  <mask id="mask0" mask-type="alpha" maskUnits="userSpaceOnUse" x="0" y="0" width="80" height="80">
    <circle cx="40" cy="40" r="40" fill="#C4C4C4" />
  </mask>
  <g mask="url(#mask0)">
    <g clip-path="url(#clip0)">
      <path d="M40.0781 0.000152588H0V79.9976H40.0781V0.000152588Z" fill="#F2C94C" />
      <path d="M80.1562 0H40.0781V80H80.1562V0Z" fill="#F2F2F2" />
      <path fill-rule="evenodd" clip-rule="evenodd" d="M71.1793 51.1695C73.5062 49.2169 73.8098 45.7478 71.8572 43.4209C70.239 41.4923 67.5789 40.9537 65.3908 41.9374L53.3662 27.607L52.2171 28.5711L51.068 29.5353L46.0887 33.7134L51.231 39.8418L56.2103 35.6637L63.0927 43.8657C61.744 45.8498 61.8125 48.563 63.4308 50.4915C65.3833 52.8185 68.8524 53.122 71.1793 51.1695ZM69.5591 45.3492C70.4466 46.4069 70.3087 47.9838 69.251 48.8713C68.1933 49.7588 66.6164 49.6209 65.7289 48.5632C64.8414 47.5055 64.9793 45.9286 66.037 45.0411C67.0947 44.1536 68.6716 44.2916 69.5591 45.3492Z" fill="#828282" />
      <path fill-rule="evenodd" clip-rule="evenodd" d="M48.1879 51.1695C45.8609 49.2169 45.5574 45.7478 47.5099 43.4209C49.1282 41.4923 51.7883 40.9537 53.9764 41.9374L66.001 27.607L67.1501 28.5711L68.2992 29.5353L73.2784 33.7134L68.1361 39.8418L63.1569 35.6637L56.2745 43.8657C57.6232 45.8498 57.5547 48.563 55.9364 50.4915C53.9839 52.8185 50.5148 53.122 48.1879 51.1695ZM49.8081 45.3492C48.9206 46.4069 49.0585 47.9838 50.1162 48.8713C51.1739 49.7588 52.7508 49.6209 53.6383 48.5632C54.5258 47.5055 54.3878 45.9286 53.3302 45.0411C52.2725 44.1536 50.6956 44.2916 49.8081 45.3492Z" fill="#F2C94C" />
    </g>
  </g>
  <defs>
    <clipPath id="clip0">
      <rect width="80" height="80" fill="white" />
    </clipPath>
  </defs>
</svg>