<svg viewBox="0 0 80 80" fill="none">
  <path fill-rule="evenodd" clip-rule="evenodd" d="M40.1329 20.6794C36.7976 20.6794 33.4615 21.5423 30.4727 23.2679C24.4949 26.7191 20.8124 33.0974 20.8124 39.9999C20.8124 46.9025 24.4949 53.2807 30.4727 56.732C33.4615 58.4576 36.7976 59.3204 40.1329 59.3204C41.2375 59.3204 42.1329 58.425 42.1329 57.3204V22.6794C42.1329 21.5748 41.2375 20.6794 40.1329 20.6794ZM32.4727 26.732C34.2442 25.7092 36.169 25.0687 38.1329 24.8103V55.1895C36.169 54.9312 34.2442 54.2906 32.4727 53.2679C27.7325 50.5311 24.8124 45.4734 24.8124 39.9999C24.8124 34.5264 27.7325 29.4687 32.4727 26.732Z" stroke="currentColor" stroke-linecap="round" stroke-linejoin="round" />
  <path fill-rule="evenodd" clip-rule="evenodd" d="M54.9891 14.2679C45.796 8.96019 34.4695 8.96019 25.2763 14.2679C16.0832 19.5756 10.4199 29.3846 10.4199 39.9999C10.4199 50.6153 16.0832 60.4243 25.2763 65.732C34.4695 71.0397 45.796 71.0397 54.9891 65.732C64.1823 60.4243 69.8456 50.6153 69.8456 39.9999C69.8456 29.3846 64.1823 19.5756 54.9891 14.2679ZM27.2763 17.732C35.2319 13.1388 45.0336 13.1388 52.9891 17.732C60.9447 22.3251 65.8456 30.8136 65.8456 39.9999C65.8456 49.1862 60.9447 57.6747 52.9891 62.2679C45.0336 66.861 35.2319 66.861 27.2763 62.2679C19.3208 57.6747 14.4199 49.1862 14.4199 39.9999C14.4199 30.8136 19.3208 22.3251 27.2763 17.732Z" stroke="currentColor" stroke-linecap="round" stroke-linejoin="round" />
</svg>