<svg viewBox="0 0 80 80" fill="none">
  <path fill-rule="evenodd" clip-rule="evenodd" d="M29.3219 28.3555C29.3313 25.0413 32.0283 22.3543 35.3285 22.3663C36.9083 22.372 38.4216 23.0021 39.5387 24.1191L40.5128 25.0932C41.2938 25.8742 42.5601 25.8742 43.3412 25.0932C44.1222 24.3121 44.1222 23.0458 43.3412 22.2648L42.3671 21.2907C40.5035 19.4271 37.9786 18.3759 35.3431 18.3663C29.8185 18.3462 25.3375 22.8336 25.3219 28.3442C25.3174 29.9366 25.6924 31.4951 26.3978 32.8942C23.86 35.9906 22.4115 39.9145 22.4115 44.0451C22.4115 50.3288 25.7638 56.1352 31.2057 59.2771C36.6476 62.419 43.3523 62.419 48.7942 59.2771C49.4819 58.88 50.1363 58.4404 50.7548 57.9626L53.5058 60.7137C54.2869 61.4947 55.5532 61.4947 56.3343 60.7137C57.1153 59.9326 57.1153 58.6663 56.3343 57.8853L53.6214 55.1724C56.1474 52.0794 57.5884 48.1648 57.5884 44.0451C57.5884 41.0239 56.8133 38.1126 55.4039 35.5554C54.8707 34.5881 53.6542 34.2361 52.6869 34.7693C51.7195 35.3024 51.3675 36.5189 51.9007 37.4862C52.9899 39.4623 53.5884 41.7108 53.5884 44.0451C53.5884 47.089 52.5702 49.9879 50.7743 52.3253L31.0836 32.6346C30.9421 32.4931 30.8084 32.3452 30.6827 32.1914C30.588 32.0056 30.4624 31.8316 30.306 31.677C29.6663 30.6983 29.3186 29.5429 29.3219 28.3555ZM28.941 36.1489C27.3224 38.4164 26.4115 41.166 26.4115 44.0451C26.4115 48.8997 29.0014 53.3857 33.2057 55.813C37.41 58.2403 42.5899 58.2403 46.7942 55.813C47.175 55.5931 47.5426 55.3564 47.8962 55.104L28.941 36.1489Z" stroke="currentColor" stroke-linecap="round" stroke-linejoin="round" />
</svg>