<svg viewBox="0 0 80 80" fill="none">
  <path fill-rule="evenodd" clip-rule="evenodd" d="M35.5359 12.2679C38.2983 10.6731 41.7017 10.6731 44.4641 12.2679C47.2265 13.8628 48.9282 16.8102 48.9282 20C48.9282 23.1897 47.2265 26.1372 44.4641 27.732C43.6842 28.1823 42.8531 28.5055 41.9998 28.7015V34H48C49.1046 34 50 34.8954 50 36C50 37.1046 49.1046 38 48 38H41.9998V65.197L43.5698 64.6569C50.3981 62.3079 56.2743 57.8628 60.3874 52H59C58.2729 52 57.6032 51.6054 57.2507 50.9695C56.8983 50.3336 56.9187 49.5565 57.304 48.94L62.304 40.94C62.6695 40.3552 63.3104 40 64 40C64.6896 40 65.3305 40.3552 65.696 40.94L70.696 48.94C71.0813 49.5565 71.1017 50.3336 70.7493 50.9695C70.3968 51.6054 69.7271 52 69 52H65.1533C60.5471 59.687 53.369 65.516 44.871 68.4393L40.6504 69.8912C40.2288 70.0363 39.7709 70.0363 39.3492 69.8912L35.1286 68.4393C26.6307 65.516 19.4525 59.687 14.8463 52H11C10.273 52 9.60317 51.6054 9.25072 50.9695C8.89826 50.3336 8.91867 49.5565 9.304 48.94L14.304 40.94C14.6695 40.3552 15.3104 40 16 40C16.6896 40 17.3305 40.3552 17.696 40.94L22.696 48.94C23.0813 49.5565 23.1017 50.3336 22.7493 50.9695C22.3968 51.6054 21.7271 52 21 52H19.6122C23.7253 57.8627 29.6015 62.3079 36.4298 64.6569L37.9998 65.197V38H32C30.8954 38 30 37.1046 30 36C30 34.8954 30.8954 34 32 34H37.9998V28.7014C37.1467 28.5054 36.3157 28.1823 35.5359 27.732C32.7735 26.1372 31.0718 23.1897 31.0718 20C31.0718 16.8102 32.7735 13.8628 35.5359 12.2679ZM42.4641 15.732C40.9393 14.8517 39.0607 14.8517 37.5359 15.732C36.0111 16.6124 35.0718 18.2393 35.0718 20C35.0718 21.7607 36.0111 23.3876 37.5359 24.2679C39.0607 25.1483 40.9393 25.1483 42.4641 24.2679C43.9889 23.3876 44.9282 21.7607 44.9282 20C44.9282 18.2393 43.9889 16.6124 42.4641 15.732ZM64.0378 48H65.3915L64 45.7736L62.6085 48H63.9655C63.9896 47.9995 64.0137 47.9995 64.0378 48ZM15.9619 48C15.986 47.9995 16.0101 47.9995 16.0342 48H17.3915L16 45.7736L14.6085 48H15.9619Z" stroke="currentColor" stroke-linecap="round" stroke-linejoin="round" />
</svg>