<svg viewBox="0 0 80 80" fill="none">
  <path d="M19.6465 15.8891L20 16.2426L20 16.2426L19.6465 15.8891ZM20.3536 15.8891L20.7071 15.5355L20.7071 15.5355L20.3536 15.8891ZM14.0355 21.5L13.682 21.1464C13.539 21.2894 13.4962 21.5045 13.5736 21.6913C13.651 21.8782 13.8333 22 14.0355 22V21.5ZM25.9645 21.5V22C26.1667 22 26.349 21.8782 26.4264 21.6913C26.5038 21.5045 26.461 21.2894 26.318 21.1464L25.9645 21.5ZM22.5 26.5V26C22.2239 26 22 26.2239 22 26.5H22.5ZM62.5 53.5H62C62 53.7761 62.2239 54 62.5 54V53.5ZM70.7678 60.7678L70.4142 60.4142L70.4142 60.4142L70.7678 60.7678ZM63.8891 67.6465L64.2426 68L64.2426 68L63.8891 67.6465ZM52.2426 53.5L52.2426 54H52.2426V53.5ZM57.5 53.5V54C57.7761 54 58 53.7761 58 53.5H57.5ZM17.5 26.5H18C18 26.2239 17.7761 26 17.5 26V26.5ZM9.23223 19.2322L9.58579 19.5858L9.58579 19.5858L9.23223 19.2322ZM16.1109 12.3536L15.7574 12L15.7574 12L16.1109 12.3536ZM23.8891 12.3536L24.2426 12L24.2426 12L23.8891 12.3536ZM30.7678 19.2322L30.4142 19.5858L30.4142 19.5858L30.7678 19.2322ZM54.0355 58.5V58C53.8333 58 53.651 58.1218 53.5736 58.3087C53.4962 58.4955 53.539 58.7106 53.682 58.8536L54.0355 58.5ZM60.3535 64.1109L60 63.7574L60 63.7574L60.3535 64.1109ZM65.9645 58.5L66.318 58.8536C66.461 58.7106 66.5038 58.4955 66.4264 58.3087C66.349 58.1218 66.1667 58 65.9645 58V58.5ZM20 16.2426L20 16.2426L20.7071 15.5355C20.3166 15.145 19.6834 15.145 19.2929 15.5355L20 16.2426ZM14.3891 21.8536L20 16.2426L19.2929 15.5355L13.682 21.1464L14.3891 21.8536ZM20 21H14.0355V22H20V21ZM25.9645 21L20 21V22L25.9645 22V21ZM20 16.2426L25.6109 21.8536L26.318 21.1464L20.7071 15.5355L20 16.2426ZM22.5 27L27.7574 27V26L22.5 26V27ZM23 54L23 26.5H22L22 54H23ZM30 61C26.134 61 23 57.866 23 54H22C22 58.4183 25.5817 62 30 62V61ZM37 54C37 57.866 33.866 61 30 61V62C34.4183 62 38 58.4183 38 54H37ZM37 26L37 54H38L38 26H37ZM50 13C42.8203 13 37 18.8203 37 26H38C38 19.3726 43.3726 14 50 14V13ZM63 26C63 18.8203 57.1797 13 50 13V14C56.6274 14 62 19.3726 62 26H63ZM63 53.5L63 26H62L62 53.5H63ZM62.5 54H67.7574V53H62.5V54ZM67.7574 54C71.1048 54 72.7812 58.0472 70.4142 60.4142L71.1213 61.1213C74.1183 58.1244 71.9957 53 67.7574 53V54ZM70.4142 60.4142L63.5355 67.2929L64.2426 68L71.1213 61.1213L70.4142 60.4142ZM63.5355 67.2929C61.5829 69.2455 58.4171 69.2455 56.4645 67.2929L55.7574 68C58.1005 70.3431 61.8995 70.3432 64.2426 68L63.5355 67.2929ZM56.4645 67.2929L49.5858 60.4142L48.8787 61.1213L55.7574 68L56.4645 67.2929ZM49.5858 60.4142C47.2188 58.0472 48.8952 54 52.2426 54L52.2426 53C48.0043 53 45.8817 58.1243 48.8787 61.1213L49.5858 60.4142ZM52.2426 54H57.5V53H52.2426V54ZM57 26L57 53.5H58L58 26H57ZM50 19C53.866 19 57 22.134 57 26H58C58 21.5817 54.4183 18 50 18V19ZM43 26C43 22.134 46.134 19 50 19V18C45.5817 18 42 21.5817 42 26H43ZM43 54L43 26H42L42 54H43ZM30 67C37.1797 67 43 61.1797 43 54H42C42 60.6274 36.6274 66 30 66V67ZM17 54C17 61.1797 22.8203 67 30 67V66C23.3726 66 18 60.6274 18 54H17ZM17 26.5L17 54H18L18 26.5H17ZM12.2426 27H17.5V26H12.2426V27ZM8.87868 18.8787C5.88171 21.8756 8.00428 27 12.2426 27V26C8.89519 26 7.21878 21.9528 9.58579 19.5858L8.87868 18.8787ZM15.7574 12L8.87868 18.8787L9.58579 19.5858L16.4645 12.7071L15.7574 12ZM24.2426 12C21.8995 9.65686 18.1005 9.65685 15.7574 12L16.4645 12.7071C18.4171 10.7545 21.5829 10.7545 23.5355 12.7071L24.2426 12ZM31.1213 18.8787L24.2426 12L23.5355 12.7071L30.4142 19.5858L31.1213 18.8787ZM27.7574 27C31.9957 27 34.1183 21.8756 31.1213 18.8787L30.4142 19.5858C32.7812 21.9528 31.1048 26 27.7574 26V27ZM60 58H54.0355V59H60V58ZM53.682 58.8536L59.2929 64.4645L60 63.7574L54.3891 58.1464L53.682 58.8536ZM59.2929 64.4645C59.6834 64.855 60.3166 64.855 60.7071 64.4645L60 63.7574L60 63.7574L59.2929 64.4645ZM60.7071 64.4645L66.318 58.8536L65.6109 58.1464L60 63.7574L60.7071 64.4645ZM65.9645 58H60V59H65.9645V58Z" fill="currentColor" />
</svg>