<svg viewBox="0 0 80 80" fill="none">
  <path d="M27.5534 32.7937L27.5534 32.2937L27.5534 32.7937ZM26.4217 30.0615L26.0681 29.7079L26.0681 29.7079L26.4217 30.0615ZM33.6537 32.7937L33.6537 33.2937L33.6537 32.7937ZM36.1536 35.2712L36.6536 35.2667L36.6536 35.2667L36.1536 35.2712ZM37.7057 44.793L38.1813 44.6385L38.1813 44.6385L37.7057 44.793ZM49.2352 60.6621L49.5291 60.2576L49.5291 60.2576L49.2352 60.6621ZM67.8904 66.7235L67.8904 66.2235L67.8904 66.7235ZM72.7597 66.3478L72.8364 66.8418C73.0438 66.8096 73.209 66.6514 73.2501 66.4456C73.2911 66.2398 73.1993 66.0302 73.0201 65.9209L72.7597 66.3478ZM70.2986 64.7068L70.5925 64.3023L70.5925 64.3023L70.2986 64.7068ZM56.9527 46.3378L57.4283 46.1833L57.4283 46.1833L56.9527 46.3378ZM55.1561 35.3163L54.6562 35.3208L54.6562 35.3208L55.1561 35.3163ZM55.8803 33.5339L56.2355 33.8859L56.2355 33.8859L55.8803 33.5339ZM57.656 32.7937L57.656 33.2937L57.656 32.7937ZM63.7544 32.7937L63.7544 32.2937L63.7544 32.7937ZM64.8861 30.0615L64.5326 30.4151L64.5326 30.4151L64.8861 30.0615ZM47.5984 12.7738L47.2449 13.1274L47.2449 13.1274L47.5984 12.7738ZM43.7093 12.7738L43.3558 12.4202L43.3558 12.4202L43.7093 12.7738ZM22.8861 26.526L22.5326 26.1724L22.5326 26.1724L22.8861 26.526ZM27.5534 37.7937L27.5534 37.2937L27.5534 37.2937L27.5534 37.7937ZM40.1738 9.23827L39.8203 8.88472L39.8203 8.88472L40.1738 9.23827ZM51.134 9.23827L51.4875 8.88472L51.4875 8.88472L51.134 9.23827ZM68.4217 26.526L68.7752 26.1724L68.7752 26.1724L68.4217 26.526ZM63.7544 37.7937L63.7544 37.2937L63.7544 37.7937ZM60.2791 37.7937L60.2791 37.2937C60.1388 37.2937 60.005 37.3527 59.9103 37.4562C59.8156 37.5597 59.7687 37.6982 59.7811 37.838L60.2791 37.7937ZM61.708 44.7927L61.2325 44.9472L61.2325 44.9472L61.708 44.7927ZM73.2375 60.6617L73.5314 60.2572L73.5314 60.2572L73.2375 60.6617ZM76.2828 62.6191L76.5288 62.1838L76.5288 62.1838L76.2828 62.6191ZM78.6858 67.0175L79.1849 67.0483L79.1849 67.0483L78.6858 67.0175ZM75.2633 70.9761L75.1629 70.4863L75.1629 70.4863L75.2633 70.9761ZM46.2963 64.7071L46.0024 65.1117L46.0024 65.1117L46.2963 64.7071ZM32.9504 46.3381L32.4749 46.4926L32.4749 46.4926L32.9504 46.3381ZM31.2598 37.7937L31.7584 37.7555C31.7384 37.495 31.5212 37.2937 31.2598 37.2937L31.2598 37.7937ZM27.5534 32.2937C26.5729 32.2937 26.0819 31.1083 26.7752 30.415L26.0681 29.7079C24.7449 31.0312 25.682 33.2937 27.5534 33.2937L27.5534 32.2937ZM33.6537 32.2937L27.5534 32.2937L27.5534 33.2937L33.6537 33.2937L33.6537 32.2937ZM36.6536 35.2667C36.6388 33.6205 35.3001 32.2937 33.6537 32.2937L33.6537 33.2937C34.7513 33.2937 35.6438 34.1782 35.6537 35.2757L36.6536 35.2667ZM38.1813 44.6385C37.1913 41.5918 36.6821 38.431 36.6536 35.2667L35.6537 35.2757C35.6831 38.5412 36.2086 41.8033 37.2302 44.9476L38.1813 44.6385ZM49.5291 60.2576C44.1922 56.38 40.2198 50.9125 38.1813 44.6385L37.2302 44.9476C39.334 51.4223 43.4336 57.0649 48.9414 61.0666L49.5291 60.2576ZM67.8904 66.2235C61.2936 66.2235 54.8661 64.1351 49.5291 60.2576L48.9414 61.0666C54.4491 65.0682 61.0824 67.2235 67.8904 67.2235L67.8904 66.2235ZM72.683 65.8537C71.1046 66.0988 69.5026 66.2235 67.8904 66.2235L67.8904 67.2235C69.5542 67.2235 71.2075 67.0948 72.8364 66.8418L72.683 65.8537ZM70.0047 65.1113C70.8158 65.7007 71.6481 66.2553 72.4993 66.7746L73.0201 65.9209C72.1918 65.4156 71.3819 64.8758 70.5925 64.3023L70.0047 65.1113ZM56.4772 46.4923C58.9073 53.9713 63.6427 60.489 70.0047 65.1113L70.5925 64.3023C64.4013 59.8042 59.7931 53.4615 57.4283 46.1833L56.4772 46.4923ZM54.6562 35.3208C54.6901 39.0926 55.2972 42.8605 56.4772 46.4923L57.4283 46.1833C56.2799 42.649 55.6892 38.9823 55.6561 35.3118L54.6562 35.3208ZM55.5252 33.182C54.9618 33.7505 54.6489 34.5205 54.6562 35.3208L55.6561 35.3118C55.6513 34.7782 55.8599 34.2649 56.2355 33.8859L55.5252 33.182ZM57.656 32.2937C56.8557 32.2937 56.0885 32.6135 55.5252 33.182L56.2355 33.8859C56.611 33.5069 57.1225 33.2937 57.656 33.2937L57.656 32.2937ZM63.7544 32.2937L57.656 32.2937L57.656 33.2937L63.7544 33.2937L63.7544 32.2937ZM64.5326 30.4151C65.2258 31.1083 64.7348 32.2937 63.7544 32.2937L63.7544 33.2937C65.6258 33.2937 66.5629 31.0312 65.2397 29.7079L64.5326 30.4151ZM47.2449 13.1274L64.5326 30.4151L65.2397 29.7079L47.952 12.4203L47.2449 13.1274ZM44.0629 13.1274C44.9416 12.2487 46.3662 12.2487 47.2449 13.1274L47.952 12.4203C46.6828 11.151 44.625 11.151 43.3558 12.4202L44.0629 13.1274ZM26.7752 30.415L44.0629 13.1274L43.3558 12.4202L26.0681 29.7079L26.7752 30.415ZM22.5326 26.1724C18.0595 30.6455 21.2275 38.2937 27.5534 38.2937L27.5534 37.2937C22.1184 37.2937 19.3966 30.7226 23.2397 26.8795L22.5326 26.1724ZM39.8203 8.88472L22.5326 26.1724L23.2397 26.8795L40.5274 9.59182L39.8203 8.88472ZM51.4875 8.88472C48.2657 5.66289 43.0421 5.66289 39.8203 8.88472L40.5274 9.59182C43.3587 6.76052 47.9491 6.76052 50.7804 9.59182L51.4875 8.88472ZM68.7752 26.1724L51.4875 8.88472L50.7804 9.59182L68.0681 26.8795L68.7752 26.1724ZM63.7544 38.2937C70.0803 38.2937 73.2483 30.6455 68.7752 26.1724L68.0681 26.8795C71.9112 30.7226 69.1894 37.2937 63.7544 37.2937L63.7544 38.2937ZM60.2791 38.2937L63.7544 38.2937L63.7544 37.2937L60.2791 37.2937L60.2791 38.2937ZM62.1835 44.6382C61.4528 42.3893 60.984 40.0782 60.7772 37.7495L59.7811 37.838C59.9946 40.2413 60.4784 42.6263 61.2325 44.9472L62.1835 44.6382ZM73.5314 60.2572C68.1945 56.3797 64.2221 50.9122 62.1835 44.6382L61.2325 44.9472C63.3363 51.422 67.4358 57.0646 72.9436 61.0662L73.5314 60.2572ZM76.5288 62.1838C75.4976 61.6013 74.4967 60.9586 73.5314 60.2572L72.9436 61.0662C73.9398 61.79 74.9728 62.4534 76.0369 63.0545L76.5288 62.1838ZM79.1849 67.0483C79.2985 65.2089 78.4012 63.2415 76.5288 62.1838L76.0369 63.0545C77.5523 63.9105 78.2785 65.5012 78.1868 66.9866L79.1849 67.0483ZM75.3636 71.4659C77.784 70.9701 79.0659 68.9741 79.1849 67.0483L78.1868 66.9866C78.0911 68.5342 77.073 70.0949 75.1629 70.4863L75.3636 71.4659ZM67.8904 72.2235C70.4143 72.2235 72.9175 71.967 75.3636 71.4659L75.1629 70.4863C72.7825 70.9739 70.3465 71.2235 67.8904 71.2235L67.8904 72.2235ZM46.0024 65.1117C52.3645 69.7339 60.0265 72.2235 67.8904 72.2235L67.8904 71.2235C60.2377 71.2235 52.7814 68.8008 46.5902 64.3026L46.0024 65.1117ZM32.4749 46.4926C34.905 53.9717 39.6404 60.4894 46.0024 65.1117L46.5902 64.3026C40.399 59.8045 35.7908 53.4618 33.426 46.1836L32.4749 46.4926ZM30.7613 37.8319C30.9857 40.7597 31.5569 43.6674 32.4749 46.4926L33.426 46.1836C32.5326 43.4342 31.9768 40.6047 31.7584 37.7555L30.7613 37.8319ZM27.5534 38.2937L31.2598 38.2937L31.2598 37.2937L27.5534 37.2937L27.5534 38.2937Z" fill="currentColor" />
</svg>