<svg viewBox="0 0 80 80" fill="none">
  <path fill-rule="evenodd" clip-rule="evenodd" d="M28 14C28 11.7909 29.7909 10 32 10H48C50.2091 10 52 11.7909 52 14V28H66C68.2091 28 70 29.7909 70 32V48C70 50.2091 68.2091 52 66 52H52V66C52 68.2091 50.2091 70 48 70H32C29.7909 70 28 68.2091 28 66V52H14C11.7909 52 10 50.2091 10 48V32C10 29.7909 11.7909 28 14 28H28V14ZM48 14V28H32V14L48 14ZM14 32H28V48H14V32ZM32 66V52H48V66H32ZM66 32H52V48H66V32ZM35 35H37.5V37.5H35V35ZM42.5 35H45V37.5H42.5V35ZM35 42.5H37.5V45H35V42.5ZM42.5 42.5H45V45H42.5V42.5Z" stroke="currentColor" stroke-linecap="round" stroke-linejoin="round" />
</svg>