<svg viewBox="0 0 80 80" fill="none">
  <path d="M10 22C10 20.8954 10.8954 20 12 20H56C57.1046 20 58 20.8954 58 22C58 23.1046 57.1046 24 56 24H12C10.8954 24 10 23.1046 10 22Z" stroke="currentColor" stroke-linecap="round" stroke-linejoin="round" />
  <path d="M10 40C10 38.8954 10.8954 38 12 38H56C57.1046 38 58 38.8954 58 40C58 41.1046 57.1046 42 56 42H12C10.8954 42 10 41.1046 10 40Z" stroke="currentColor" stroke-linecap="round" stroke-linejoin="round" />
  <path d="M68 56C69.1046 56 70 56.8954 70 58C70 59.1046 69.1046 60 68 60H24C22.8954 60 22 59.1046 22 58C22 56.8954 22.8954 56 24 56H68Z" stroke="currentColor" stroke-linecap="round" stroke-linejoin="round" />
</svg>