<svg viewBox="0 0 80 80" fill="none">
  <path fill-rule="evenodd" clip-rule="evenodd" d="M22.0001 20C22.0001 18.8954 22.8956 18 24.0001 18H34.0001C35.1047 18 36.0001 18.8954 36.0001 20C36.0001 21.1046 35.1047 22 34.0001 22H30.5933L33.2933 28H48.0001V21C48.0001 19.3431 49.3433 18 51.0001 18H56.3335C59.4631 18 62.0001 20.5371 62.0001 23.6667C62.0001 26.7963 59.4631 29.3333 56.3335 29.3333H56.1112C55.0067 29.3333 54.1112 28.4379 54.1112 27.3333C54.1112 26.2288 55.0067 25.3333 56.1112 25.3333H56.3335C57.2539 25.3333 58.0001 24.5871 58.0001 23.6667C58.0001 22.7462 57.2539 22 56.3335 22H52.0001V29.5529L54.303 34.4465C57.1589 33.6053 60.232 33.7597 63.0081 34.9096C66.2147 36.2378 68.7623 38.7854 70.0905 41.992C71.4187 45.1986 71.4187 48.8014 70.0905 52.008C68.7623 55.2146 66.2147 57.7622 63.0081 59.0904C59.8016 60.4186 56.1987 60.4186 52.9921 59.0904C49.7855 57.7622 47.2379 55.2146 45.9097 52.008C44.5815 48.8014 44.5815 45.1986 45.9097 41.992C46.9003 39.6005 48.5691 37.5756 50.6837 36.1497L49.7658 34.199L41.2492 48.0477C40.8853 48.6395 40.2403 49 39.5456 49H34.933C34.7746 50.0244 34.4938 51.0345 34.0905 52.008C32.7623 55.2146 30.2147 57.7622 27.0081 59.0904C23.8016 60.4186 20.1987 60.4186 16.9921 59.0904C13.7855 57.7622 11.2379 55.2146 9.90973 52.008C8.58152 48.8014 8.58152 45.1986 9.90973 41.992C11.2379 38.7854 13.7855 36.2378 16.9921 34.9096C20.1406 33.6055 23.6711 33.5818 26.8335 34.8387L29.7518 29.8775L26.207 22H24.0001C22.8956 22 22.0001 21.1046 22.0001 20ZM56.1905 47.8516L52.4163 39.8315C51.1864 40.7896 50.2124 42.057 49.6052 43.5227C48.683 45.7492 48.683 48.2508 49.6052 50.4773C50.5275 52.7037 52.2964 54.4726 54.5229 55.3949C56.7493 56.3171 59.2509 56.3171 61.4774 55.3949C63.7039 54.4726 65.4728 52.7037 66.395 50.4773C67.3172 48.2508 67.3172 45.7492 66.395 43.5227C65.4728 41.2963 63.7039 39.5273 61.4774 38.6051C59.7437 37.887 57.8432 37.7281 56.0356 38.1283L59.8098 46.1484C60.2801 47.1478 59.8512 48.3393 58.8517 48.8096C57.8523 49.28 56.6608 48.851 56.1905 47.8516ZM36.4697 45H34.933C34.7746 43.9756 34.4938 42.9655 34.0905 41.992C33.2559 39.977 31.9398 38.2223 30.2812 36.8668L31.7509 34.3684L36.4697 45ZM30.395 43.5227C29.8964 42.3189 29.1502 41.2489 28.2181 40.3741L25.497 45H30.8639C30.7507 44.4984 30.5944 44.0041 30.395 43.5227ZM20.2763 45.986L24.7704 38.346C22.7306 37.693 20.5164 37.7794 18.5229 38.6051C16.2964 39.5273 14.5275 41.2963 13.6052 43.5227C12.683 45.7492 12.683 48.2508 13.6052 50.4773C14.5275 52.7037 16.2964 54.4726 18.5229 55.3949C20.7493 56.3171 23.2509 56.3171 25.4774 55.3949C27.7039 54.4726 29.4728 52.7037 30.395 50.4773C30.5944 49.9959 30.7507 49.5016 30.8639 49L22.0001 49C21.2827 49 20.6202 48.6157 20.264 47.993C19.9078 47.3702 19.9125 46.6043 20.2763 45.986ZM39.8322 42.7159L35.076 32H46.4223L39.8322 42.7159Z" stroke="currentColor" stroke-linecap="round" stroke-linejoin="round" />
</svg>