<svg viewBox="0 0 80 80" fill="none">
  <path fill-rule="evenodd" clip-rule="evenodd" d="M26.8212 13.5828C27.0292 12.1017 28.2964 11 29.792 11H44.5649C46.5206 11 47.9534 12.8412 47.4729 14.737L43.8582 29H54.2316C56.4617 29 57.9122 31.3469 56.9149 33.3416L39.6686 67.8342C38.3118 70.5477 34.1979 69.1188 34.8154 66.1485L39.4195 44H26.0002C24.1774 44 22.7758 42.3879 23.0293 40.5828L26.8212 13.5828ZM30.6614 15L27.1504 40H40.6488C42.5512 40 43.9732 41.748 43.586 43.6106L40.9372 56.3526L52.6135 33H41.9194C40.2953 33 39.1055 31.471 39.5045 29.8967L43.2798 15H30.6614Z" stroke="currentColor" stroke-linecap="round" stroke-linejoin="round" />
</svg>