<svg viewBox="0 0 80 80" fill="none">
  <path fill-rule="evenodd" clip-rule="evenodd" d="M28.722 16C24.6058 16 20.91 18.5223 19.4098 22.3554L15.5922 32.1095C11.2904 32.7852 8 36.5084 8 41V48C8 50.9491 10.1277 53.4013 12.9318 53.9052C13.1073 55.8552 13.8476 57.7364 15.0967 59.3027C17.0147 61.7079 19.9237 63.1087 23 63.1087C26.0763 63.1087 28.9853 61.7079 30.9033 59.3027C32.1321 57.7618 32.8686 55.9161 33.0592 54H46.9408C47.1314 55.9161 47.8679 57.7618 49.0967 59.3027C51.0147 61.7079 53.9237 63.1087 57 63.1087C60.0763 63.1087 62.9853 61.7079 64.9033 59.3027C66.1524 57.7364 66.8927 55.8552 67.0682 53.9052C69.8723 53.4013 72 50.9492 72 48V46C72 39.0185 66.8897 33.2305 60.2056 32.1727L52.8152 20.6134C50.9776 17.7391 47.8015 16 44.39 16H28.722ZM63.0622 52.2468C63.037 52.0442 63.0015 51.842 62.9556 51.6407C62.5419 49.8283 61.3254 48.3028 59.6505 47.4962C58.1849 46.7905 56.5079 46.7022 54.9895 47.2316C54.7726 47.3072 54.5589 47.3954 54.3495 47.4962C52.6746 48.3028 51.4581 49.8283 51.0444 51.6407C50.9985 51.842 50.963 52.0442 50.9378 52.2468C50.7361 53.8698 51.1936 55.5166 52.224 56.8087C53.3831 58.2622 55.141 59.1087 57 59.1087C58.859 59.1087 60.6169 58.2622 61.776 56.8087C62.8064 55.5166 63.2639 53.8698 63.0622 52.2468ZM66.6221 49.9013C67.4221 49.6397 68 48.8874 68 48V46C68 40.4772 63.5229 36 58 36H17C14.2386 36 12 38.2386 12 41V48C12 48.8874 12.5779 49.6398 13.3779 49.9013C14.2224 47.2781 16.1082 45.0991 18.614 43.8924C21.3857 42.5576 24.6143 42.5576 27.386 43.8924C29.9232 45.1142 31.8247 47.3328 32.6533 50H47.3467C48.1753 47.3328 50.0768 45.1142 52.614 43.8924C55.3857 42.5576 58.6143 42.5576 61.386 43.8924C63.8918 45.0991 65.7776 47.2781 66.6221 49.9013ZM18.224 56.8087C17.1936 55.5166 16.7361 53.8699 16.9378 52.2468C16.963 52.0442 16.9985 51.842 17.0444 51.6407C17.4581 49.8283 18.6746 48.3028 20.3495 47.4962C21.8151 46.7905 23.4921 46.7022 25.0105 47.2316C25.2274 47.3072 25.4411 47.3954 25.6505 47.4962C27.2207 48.2524 28.388 49.6404 28.8687 51.3043C28.9007 51.4153 28.9297 51.5274 28.9556 51.6407C29.0015 51.842 29.037 52.0442 29.0622 52.2468C29.2639 53.8698 28.8064 55.5166 27.776 56.8087C26.6169 58.2622 24.859 59.1087 23 59.1087C21.141 59.1087 19.3831 58.2622 18.224 56.8087ZM55.3475 32L49.4451 22.768C48.3426 21.0435 46.4369 20 44.39 20H35V32H55.3475ZM31 32V20H28.722C26.2523 20 24.0348 21.5134 23.1347 23.8132L19.9305 32H31Z" stroke="currentColor" stroke-linecap="round" stroke-linejoin="round" />
</svg>