<svg viewBox="0 0 80 80" fill="none">
  <path fill-rule="evenodd" clip-rule="evenodd" d="M34.4964 16.612C35.4478 14.419 37.6103 13 40.0007 13C42.3912 13 44.5536 14.419 45.505 16.612L45.9764 17.6985L46.9279 16.9932C48.8483 15.5698 51.4305 15.4221 53.5007 16.6173C55.5709 17.8126 56.7342 20.1227 56.4616 22.4976L56.3266 23.6742L57.5032 23.5391C59.8781 23.2666 62.1882 24.4298 63.3834 26.5C64.5787 28.5702 64.431 31.1524 63.0075 33.0729L62.3022 34.0243L63.3887 34.4957C65.5817 35.4471 67.0007 37.6095 67.0007 40C67.0007 42.3905 65.5817 44.5529 63.3887 45.5043L62.3022 45.9757L63.0075 46.9271C64.431 48.8476 64.5787 51.4298 63.3834 53.5C62.1882 55.5702 59.8781 56.7334 57.5032 56.4609L56.3266 56.3258L56.4616 57.5024C56.7342 59.8773 55.571 62.1874 53.5007 63.3827C51.4305 64.5779 48.8483 64.4302 46.9279 63.0068L45.9764 62.3015L45.505 63.388C44.5536 65.581 42.3912 67 40.0007 67C37.6103 67 35.4478 65.581 34.4964 63.388L34.0251 62.3015L33.0736 63.0068C31.1532 64.4302 28.5709 64.5779 26.5007 63.3827C24.4305 62.1874 23.2673 59.8773 23.5399 57.5024L23.6749 56.3258L22.4983 56.4609C20.1234 56.7334 17.8133 55.5702 16.618 53.5C15.4228 51.4298 15.5705 48.8476 16.994 46.9271L17.6992 45.9757L16.6127 45.5043C14.4197 44.5529 13.0007 42.3905 13.0007 40C13.0007 37.6095 14.4197 35.4471 16.6127 34.4957L17.6992 34.0243L16.994 33.0729C15.5705 31.1524 15.4228 28.5702 16.618 26.5C17.8133 24.4298 20.1234 23.2666 22.4983 23.5391L23.6749 23.6742L23.5399 22.4976C23.2673 20.1227 24.4305 17.8126 26.5007 16.6173C28.571 15.4221 31.1532 15.5698 33.0736 16.9932L34.0251 17.6985L34.4964 16.612ZM40.0007 17C39.2039 17 38.4831 17.473 38.166 18.204L35.6898 23.9115L30.6917 20.2067C30.0515 19.7322 29.1908 19.683 28.5007 20.0814C27.8107 20.4798 27.4229 21.2499 27.5138 22.0415L28.2231 28.2224L22.0422 27.513C21.2506 27.4222 20.4806 27.8099 20.0821 28.5C19.6837 29.1901 19.733 30.0508 20.2075 30.691L23.9122 35.6891L18.2047 38.1652C17.4737 38.4824 17.0007 39.2032 17.0007 40C17.0007 40.7968 17.4737 41.5176 18.2047 41.8348L23.9122 44.3109L20.2075 49.309C19.733 49.9492 19.6837 50.8099 20.0821 51.5C20.4806 52.1901 21.2506 52.5778 22.0422 52.487L28.2231 51.7776L27.5138 57.9585C27.4229 58.7501 27.8107 59.5202 28.5007 59.9186C29.1908 60.317 30.0515 60.2678 30.6917 59.7933L35.6898 56.0885L38.166 61.796C38.4831 62.527 39.2039 63 40.0007 63C40.7976 63 41.5184 62.527 41.8355 61.796L44.3116 56.0885L49.3098 59.7933C49.9499 60.2678 50.8107 60.317 51.5007 59.9186C52.1908 59.5202 52.5785 58.7501 52.4877 57.9585L51.7784 51.7776L57.9592 52.487C58.7509 52.5778 59.5209 52.1901 59.9193 51.5C60.3177 50.8099 60.2685 49.9492 59.794 49.309L56.0893 44.3109L61.7967 41.8348C62.5277 41.5176 63.0007 40.7968 63.0007 40C63.0007 39.2032 62.5277 38.4824 61.7967 38.1652L56.0893 35.6891L59.794 30.691C60.2685 30.0508 60.3177 29.1901 59.9193 28.5C59.5209 27.8099 58.7509 27.4222 57.9592 27.513L51.7784 28.2224L52.4877 22.0415C52.5785 21.2499 52.1908 20.4798 51.5007 20.0814C50.8107 19.683 49.9499 19.7322 49.3098 20.2067L44.3116 23.9115L41.8355 18.204C41.5184 17.473 40.7976 17 40.0007 17Z" stroke="currentColor" stroke-linecap="round" stroke-linejoin="round" />
</svg>