<svg viewBox="0 0 80 80" fill="none">
  <path fill-rule="evenodd" clip-rule="evenodd" d="M40.0008 11.9258C37.4923 11.9258 35.2231 13.4149 34.2247 15.7161L33.773 16.7573L32.8613 16.0815C30.846 14.5877 28.1362 14.4327 25.9638 15.687C23.7913 16.9413 22.5707 19.3654 22.8567 21.8576L22.9861 22.9851L21.8586 22.8557C19.3664 22.5697 16.9422 23.7904 15.688 25.9628C14.4337 28.1353 14.5887 30.845 16.0825 32.8603L16.7583 33.772L15.7171 34.2237C13.4158 35.2221 11.9268 37.4913 11.9268 39.9999C11.9268 42.5084 13.4158 44.7776 15.7171 45.776L16.7583 46.2277L16.0825 47.1394C14.5887 49.1547 14.4337 51.8644 15.688 54.0369C16.9422 56.2093 19.3664 57.43 21.8586 57.144L22.9861 57.0146L22.8567 58.1421C22.5707 60.6343 23.7913 63.0585 25.9638 64.3127C28.1362 65.567 30.846 65.412 32.8613 63.9182L33.773 63.2424L34.2247 64.2836C35.2231 66.5849 37.4923 68.0739 40.0008 68.0739C42.5094 68.0739 44.7786 66.5849 45.777 64.2836L46.2287 63.2424L47.1404 63.9182C49.1557 65.412 51.8654 65.567 54.0379 64.3127C56.2103 63.0584 57.431 60.6343 57.145 58.1421L57.0156 57.0146L58.1431 57.144C60.6353 57.43 63.0594 56.2093 64.3137 54.0369C65.568 51.8644 65.413 49.1547 63.9192 47.1394L63.2434 46.2277L64.2845 45.776C66.5858 44.7776 68.0749 42.5084 68.0749 39.9999C68.0749 37.4913 66.5858 35.2221 64.2845 34.2237L63.2434 33.772L63.9192 32.8603C65.413 30.845 65.568 28.1353 64.3137 25.9628C63.0594 23.7904 60.6353 22.5697 58.1431 22.8557L57.0156 22.9851L57.145 21.8576C57.431 19.3654 56.2103 16.9413 54.0379 15.687C51.8654 14.4327 49.1557 14.5877 47.1404 16.0815L46.2287 16.7573L45.777 15.7161C44.7786 13.4149 42.5094 11.9258 40.0008 11.9258ZM40.0008 15.9258C39.086 15.9258 38.2584 16.4689 37.8942 17.3082L35.4378 22.9703L30.4793 19.295C29.7444 18.7502 28.7561 18.6937 27.9638 19.1511C27.1715 19.6085 26.7263 20.4926 26.8306 21.4016L27.5343 27.5333L21.4025 26.8296C20.4936 26.7253 19.6095 27.1705 19.1521 27.9628C18.6946 28.7551 18.7512 29.7434 19.2959 30.4784L22.9713 35.4368L17.3091 37.8933C16.4698 38.2574 15.9268 39.085 15.9268 39.9999C15.9268 40.9147 16.4698 41.7423 17.3091 42.1064L22.9713 44.5629L19.2959 49.5213C18.7512 50.2563 18.6946 51.2446 19.1521 52.0369C19.6095 52.8292 20.4936 53.2744 21.4025 53.1701L27.5343 52.4664L26.8306 58.5982C26.7263 59.5071 27.1715 60.3912 27.9638 60.8486C28.7561 61.306 29.7444 61.2495 30.4793 60.7047L35.4378 57.0294L37.8942 62.6916C38.2584 63.5309 39.086 64.0739 40.0008 64.0739C40.9157 64.0739 41.7433 63.5309 42.1074 62.6916L44.5639 57.0294L49.5223 60.7047C50.2573 61.2495 51.2456 61.3061 52.0379 60.8486C52.8302 60.3912 53.2753 59.5071 53.171 58.5982L52.4673 52.4664L58.5991 53.1701C59.508 53.2744 60.3922 52.8292 60.8496 52.0369C61.307 51.2446 61.2505 50.2563 60.7057 49.5214L57.0304 44.5629L62.6925 42.1064C63.5318 41.7423 64.0749 40.9147 64.0749 39.9999C64.0749 39.085 63.5318 38.2574 62.6925 37.8933L57.0304 35.4368L60.7057 30.4784C61.2505 29.7434 61.307 28.7551 60.8496 27.9628C60.3922 27.1705 59.508 26.7253 58.5991 26.8296L52.4673 27.5333L53.171 21.4016C53.2753 20.4926 52.8302 19.6085 52.0379 19.1511C51.2456 18.6937 50.2573 18.7502 49.5223 19.295L44.5639 22.9703L42.1074 17.3082C41.7433 16.4689 40.9157 15.9258 40.0008 15.9258Z" stroke="currentColor" stroke-linecap="round" stroke-linejoin="round" />
</svg>