<svg viewBox="0 0 80 80" fill="none">
  <path fill-rule="evenodd" clip-rule="evenodd" d="M47.7968 29.8334C48.4543 30.3375 48.5786 31.279 48.0746 31.9365L43.7736 37.5467C44.2333 38.2523 44.5005 39.0949 44.5005 39.9999C44.5005 40.2761 44.4756 40.5465 44.4279 40.809L54.011 46.288C54.1249 46.3217 54.2352 46.3689 54.3395 46.4295L56.069 47.4341C56.7813 47.8478 57.0267 48.7585 56.6187 49.4741L56.5931 49.5188C56.3952 49.864 56.0682 50.1163 55.6842 50.2203C55.3001 50.3243 54.8905 50.2715 54.5454 50.0735L52.8108 49.078C52.7432 49.0392 52.6797 48.9959 52.6206 48.9488L42.9353 43.4113C42.1474 44.0898 41.1218 44.4999 40.0005 44.4999C37.5152 44.4999 35.5005 42.4852 35.5005 39.9999C35.5005 37.5146 37.5152 35.4999 40.0005 35.4999C40.4869 35.4999 40.9552 35.5771 41.394 35.7198L45.6938 30.1112C46.1978 29.4538 47.1394 29.3294 47.7968 29.8334ZM40.0005 38.4999C39.1721 38.4999 38.5005 39.1715 38.5005 39.9999C38.5005 40.8283 39.1721 41.4999 40.0005 41.4999C40.8289 41.4999 41.5005 40.8283 41.5005 39.9999C41.5005 39.1715 40.8289 38.4999 40.0005 38.4999Z" stroke="currentColor" stroke-linecap="round" stroke-linejoin="round" />
  <path d="M41.3274 22.3669C41.3264 21.9672 41.1659 21.5844 40.8815 21.3036C40.5971 21.0227 40.2124 20.8669 39.8128 20.8708L39.7585 20.8715C38.939 20.8818 38.2796 21.5479 38.2774 22.3674L38.2722 24.3677C38.2711 24.77 38.4317 25.1558 38.7179 25.4386C39.004 25.7213 39.3918 25.8773 39.794 25.8714L39.8487 25.8707C40.6723 25.8619 41.3348 25.1906 41.3326 24.3669L41.3274 22.3669Z" stroke="currentColor" stroke-linecap="round" stroke-linejoin="round" />
  <path d="M49.2867 23.2753C48.5723 22.8787 47.6718 23.1268 47.2614 23.8333L46.2567 25.5631C46.054 25.9121 46.0005 26.3279 46.1081 26.7168C46.2158 27.1056 46.4756 27.4347 46.8288 27.6297L46.8761 27.656C47.5933 28.0555 48.4984 27.8042 48.9071 27.0922L49.9026 25.3574C50.1021 25.0098 50.1542 24.5968 50.0472 24.2106C49.9403 23.8243 49.6833 23.4969 49.3335 23.3014L49.2867 23.2753Z" stroke="currentColor" stroke-linecap="round" stroke-linejoin="round" />
  <path d="M32.4413 24.0019C32.2415 23.6579 31.9132 23.4074 31.5287 23.3054C31.1441 23.2035 30.7348 23.2584 30.3908 23.4583L30.3436 23.4858C29.6325 23.9016 29.3898 24.8129 29.7997 25.5273L30.7952 27.262C30.9944 27.6091 31.3241 27.8622 31.7108 27.9651C32.0976 28.0679 32.5094 28.0119 32.8547 27.8095L32.9022 27.7818C33.6185 27.3657 33.8619 26.4477 33.4459 25.7314L32.4413 24.0019Z" stroke="currentColor" stroke-linecap="round" stroke-linejoin="round" />
  <path d="M56.4048 30.1597C55.9845 29.4589 55.0806 29.2236 54.3719 29.6303L52.6369 30.626C52.2869 30.8268 52.0326 31.1601 51.9314 31.5507C51.8302 31.9413 51.8906 32.3562 52.099 32.7017L52.1265 32.7474C52.5478 33.452 53.4574 33.687 54.1673 33.2747L55.8968 32.2701C56.2434 32.0688 56.495 31.7372 56.5955 31.3493C56.696 30.9613 56.6371 30.5493 56.4319 30.205L56.4048 30.1597Z" stroke="currentColor" stroke-linecap="round" stroke-linejoin="round" />
  <path d="M25.5275 29.7993C24.8131 29.3894 23.9018 29.6321 23.486 30.3432L23.4585 30.3904C23.2587 30.7344 23.2037 31.1437 23.3056 31.5283C23.4076 31.9128 23.6581 32.2411 24.0022 32.4409L25.7316 33.4455C26.4479 33.8615 27.3659 33.6182 27.782 32.9019L27.8097 32.8544C28.0121 32.5091 28.0681 32.0973 27.9653 31.7105C27.8625 31.3237 27.6094 30.994 27.2623 30.7948L25.5275 29.7993Z" stroke="currentColor" stroke-linecap="round" stroke-linejoin="round" />
  <path d="M25.8714 39.7937C25.8773 39.3915 25.7213 39.0037 25.4386 38.7175C25.1558 38.4314 24.77 38.2708 24.3677 38.2718L22.3674 38.2771C21.5479 38.2792 20.8818 38.9387 20.8715 39.7581L20.8709 39.8124C20.8669 40.2121 21.0227 40.5968 21.3036 40.8811C21.5844 41.1655 21.9672 41.326 22.3669 41.3271L24.3669 41.3323C25.1906 41.3345 25.8619 40.672 25.8707 39.8484L25.8714 39.7937Z" stroke="currentColor" stroke-linecap="round" stroke-linejoin="round" />
  <path d="M55.6319 38.2729C55.2296 38.2718 54.8438 38.4324 54.561 38.7185C54.2783 39.0047 54.1223 39.3924 54.1281 39.7946L54.1288 39.8474C54.1377 40.671 54.809 41.3334 55.6326 41.3313L57.6327 41.326C58.0324 41.325 58.4151 41.1645 58.696 40.8801C58.9768 40.5957 59.1326 40.211 59.1287 39.8114L59.1281 39.7591C59.1177 38.9397 58.4516 38.2802 57.6321 38.2781L55.6319 38.2729Z" stroke="currentColor" stroke-linecap="round" stroke-linejoin="round" />
  <path d="M27.6297 46.8287C27.4347 46.4755 27.1056 46.2157 26.7167 46.108C26.3279 46.0004 25.912 46.0539 25.5631 46.2566L23.8333 47.2613C23.1267 47.6717 22.8786 48.5722 23.2753 49.2865L23.3013 49.3333C23.4969 49.6831 23.8242 49.9402 24.2105 50.0471C24.5967 50.1541 25.0097 50.102 25.3573 49.9025L27.0921 48.907C27.8041 48.4983 28.0554 47.5932 27.6559 46.876L27.6297 46.8287Z" stroke="currentColor" stroke-linecap="round" stroke-linejoin="round" />
  <path d="M32.7017 52.0991C32.3562 51.8907 31.9414 51.8303 31.5508 51.9315C31.1602 52.0327 30.8269 52.287 30.6261 52.6369L29.6304 54.372C29.2237 55.0807 29.459 55.9845 30.1598 56.4049L30.2051 56.432C30.5494 56.6372 30.9614 56.6961 31.3494 56.5955C31.7373 56.495 32.0689 56.2434 32.2702 55.8969L33.2748 54.1673C33.6871 53.4574 33.4522 52.5479 32.7476 52.1266L32.7017 52.0991Z" stroke="currentColor" stroke-linecap="round" stroke-linejoin="round" />
  <path d="M49.0784 52.8105C48.6661 52.0921 47.7495 51.8438 47.031 52.256L46.9855 52.282C46.6376 52.4798 46.3832 52.8085 46.2789 53.1948C46.1746 53.5812 46.2289 53.9932 46.4299 54.3393L47.4345 56.0688C47.8482 56.7811 48.759 57.0265 49.4746 56.6185L49.5193 56.5929C49.8644 56.3949 50.1167 56.068 50.2207 55.6839C50.3247 55.2999 50.2719 54.8903 50.0739 54.5452L49.0784 52.8105Z" stroke="currentColor" stroke-linecap="round" stroke-linejoin="round" />
  <path d="M39.795 54.1281C39.3927 54.1223 39.005 54.2783 38.7189 54.561C38.4327 54.8438 38.2722 55.2296 38.2732 55.6319L38.2784 57.6321C38.2806 58.4516 38.94 59.1177 39.7595 59.1281L39.8117 59.1287C40.2114 59.1326 40.5961 58.9768 40.8805 58.696C41.1648 58.4151 41.3253 58.0324 41.3264 57.6327L41.3316 55.6326C41.3338 54.809 40.6714 54.1377 39.8478 54.1288L39.795 54.1281Z" stroke="currentColor" stroke-linecap="round" stroke-linejoin="round" />
  <path fill-rule="evenodd" clip-rule="evenodd" d="M30.9405 18.1287C36.741 15.726 43.2585 15.726 49.0591 18.1287C54.8596 20.5313 59.4682 25.1399 61.8709 30.9405C64.2735 36.741 64.2735 43.2585 61.8709 49.0591C59.4682 54.8596 54.8596 59.4682 49.0591 61.8709C43.2585 64.2735 36.741 64.2735 30.9405 61.8709C25.1399 59.4682 20.5313 54.8596 18.1287 49.0591C15.726 43.2585 15.726 36.741 18.1287 30.9405C20.5313 25.1399 25.1399 20.5313 30.9405 18.1287ZM47.911 20.9003C42.8455 18.8021 37.154 18.8021 32.0885 20.9003C27.023 22.9985 22.9985 27.023 20.9003 32.0885C18.8021 37.154 18.8021 42.8455 20.9003 47.911C22.9985 52.9765 27.023 57.001 32.0885 59.0992C37.154 61.1974 42.8455 61.1974 47.911 59.0992C52.9765 57.001 57.001 52.9765 59.0992 47.911C61.1974 42.8455 61.1974 37.154 59.0992 32.0885C57.001 27.023 52.9765 22.9985 47.911 20.9003Z" stroke="currentColor" stroke-linecap="round" stroke-linejoin="round" />
</svg>