<svg viewBox="0 0 80 80" fill="none">
  <path d="M23.2203 63.0005H56.7813C56.8043 63.0005 56.8274 63.0001 56.8504 62.9995H59.6269C63.3926 62.9995 67.008 61.5216 69.6954 58.8837L69.7775 58.803C72.4784 56.1518 74 52.5261 74 48.7415C74 44.9569 72.4784 41.3312 69.7776 38.6801L69.6954 38.5994C68.0565 36.9907 66.0725 35.8134 63.9199 35.1396C64.3963 32.9439 64.3463 30.6469 63.7468 28.4507C62.7546 24.8157 60.3376 21.6981 57.0363 19.8272L56.9365 19.7706C53.6367 17.9006 49.6954 17.4123 46.0204 18.3789C43.77 18.9708 41.7054 20.0909 40 21.6184C38.2948 20.0911 36.2303 18.9712 33.9802 18.3794C30.3052 17.4128 26.364 17.901 23.0641 19.7711L22.9643 19.8277C19.663 21.6986 17.2461 24.8161 16.2538 28.4511C15.6543 30.6475 15.6043 32.9445 16.0808 35.1404C13.9279 35.8141 11.9437 36.9914 10.3046 38.6003L10.2224 38.681C7.52158 41.3321 6 44.9578 6 48.7425C6 52.5271 7.52158 56.1528 10.2224 58.8039L10.3046 58.8846C12.992 61.5225 16.6074 63.0004 20.3731 63.0004H23.2031M23.2203 63.0005C23.2148 63.0005 23.2091 63.0005 23.2031 63.0004M23.2203 63.0005L23.2031 63.0004M47.0379 22.2473C49.7223 21.5413 52.5887 21.9043 54.9643 23.2506L55.0641 23.3072C57.4383 24.6527 59.1763 26.8967 59.888 29.504C60.4623 31.6078 60.3315 33.8492 59.5296 35.8729L58.5963 38.2285L61.1042 38.5893C63.277 38.9018 65.3087 39.8985 66.8933 41.454L66.9755 41.5346C68.9101 43.4336 70 46.0307 70 48.7415C70 51.4524 68.9101 54.0494 66.9755 55.9484L66.8933 56.0291C64.9538 57.9329 62.3446 58.9995 59.6269 58.9995H56.7383L56.7243 59.0005H23.2348L23.2314 59.0004H20.3731C17.6554 59.0004 15.0462 57.9338 13.1067 56.03L13.0245 55.9494C11.0899 54.0504 10 51.4533 10 48.7425C10 46.0316 11.0899 43.4345 13.0245 41.5356L13.1067 41.4549C14.6914 39.8993 16.7234 38.9026 18.8965 38.5901L21.4046 38.2294L20.4711 35.8737C19.6692 33.8499 19.5383 31.6083 20.1126 29.5045C20.8243 26.8972 22.5623 24.6532 24.9365 23.3077L25.0363 23.2511C27.4119 21.9048 30.2784 21.5417 32.9627 22.2478C35.1321 22.8184 37.0604 24.0651 38.4502 25.7692L40.0002 27.6696L41.5501 25.7691C42.9399 24.0648 44.8684 22.8179 47.0379 22.2473Z" stroke="currentColor" stroke-linecap="round" stroke-linejoin="round" />
</svg>