<svg viewBox="0 0 80 80" fill="none">
  <path fill-rule="evenodd" clip-rule="evenodd" d="M48.4924 15.8791C49.978 14.6578 52.0023 14.322 53.8028 14.998C55.6032 15.674 56.9062 17.2591 57.221 19.1564C57.5358 21.0536 56.8145 22.9746 55.3288 24.1958C53.8432 25.4171 51.8189 25.7529 50.0184 25.0769C48.218 24.4009 46.915 22.8158 46.6002 20.9185C46.2854 19.0213 47.0067 17.1003 48.4924 15.8791ZM52.3967 18.7427C51.9342 18.569 51.4141 18.6553 51.0324 18.9691C50.6507 19.2828 50.4654 19.7764 50.5463 20.2638C50.6271 20.7512 50.9619 21.1585 51.4245 21.3322C51.887 21.5059 52.4071 21.4196 52.7888 21.1058C53.1705 20.7921 53.3558 20.2985 53.2749 19.8111C53.1941 19.3237 52.8593 18.9164 52.3967 18.7427Z" stroke="currentColor" stroke-linecap="round" stroke-linejoin="round" />
  <path fill-rule="evenodd" clip-rule="evenodd" d="M55.7591 47.3175C57.5837 45.8027 59.9987 45.2013 62.3206 45.6834C64.6425 46.1655 66.6185 47.6787 67.6892 49.7946C68.76 51.9105 68.8089 54.3989 67.8222 56.5553C66.8355 58.7116 64.9206 60.3014 62.6195 60.8744C60.3184 61.4475 57.8815 60.9415 55.9987 59.4997C54.116 58.0579 52.9922 55.8373 52.9456 53.4663C52.8989 51.0954 53.9345 48.8322 55.7591 47.3175ZM61.5074 49.5999C60.3774 49.3653 59.2021 49.658 58.3141 50.3951C57.4261 51.1323 56.9221 52.2337 56.9448 53.3876C56.9675 54.5415 57.5144 55.6223 58.4307 56.3239C59.347 57.0256 60.533 57.2719 61.6529 56.993C62.7728 56.7141 63.7047 55.9404 64.1849 54.8909C64.6651 53.8415 64.6413 52.6305 64.1202 51.6007C63.5991 50.5709 62.6374 49.8345 61.5074 49.5999Z" stroke="currentColor" stroke-linecap="round" stroke-linejoin="round" />
  <path fill-rule="evenodd" clip-rule="evenodd" d="M33.2396 36.1382C31.619 33.7005 28.6131 32.5836 25.794 33.3716C22.9748 34.1596 20.9837 36.6733 20.862 39.5979C20.7402 42.5226 22.5156 45.193 25.2595 46.2126C28.0034 47.2321 31.0917 46.3689 32.9093 44.0743C34.7268 41.7798 34.8602 38.5758 33.2396 36.1382ZM26.8707 37.224C28.0209 36.9025 29.2473 37.3582 29.9085 38.3527C30.5697 39.3473 30.5153 40.6545 29.7738 41.5906C29.0322 42.5268 27.7722 42.879 26.6527 42.463C25.5332 42.0471 24.8088 40.9575 24.8585 39.7643C24.9082 38.571 25.7206 37.5455 26.8707 37.224Z" stroke="currentColor" stroke-linecap="round" stroke-linejoin="round" />
  <path fill-rule="evenodd" clip-rule="evenodd" d="M45.8813 9.83021C45.9232 8.88634 46.6199 8.10056 47.5519 7.94591L52.3774 7.14529C53.3094 6.99065 54.2226 7.50934 54.5671 8.3891L55.5123 10.803L57.8126 9.60771C58.651 9.17207 59.6799 9.38254 60.2798 10.1124L63.3859 13.891C63.9858 14.6209 63.9932 15.6711 63.4036 16.4093L61.7856 18.4348L63.971 19.8293C64.7674 20.3375 65.0996 21.3338 64.7675 22.2183L63.0481 26.7976C62.716 27.6821 61.8103 28.2135 60.8761 28.072L58.313 27.6836L58.198 30.2734C58.1561 31.2173 57.4594 32.0031 56.5273 32.1577L51.7019 32.9583C50.7698 33.113 49.8567 32.5943 49.5122 31.7145L48.567 29.3006L47.5347 29.837C48.317 30.0075 48.9411 30.6381 49.0799 31.4572L50.7316 41.2054C50.8382 41.8343 50.6379 42.4526 50.2303 42.8953L52.1289 43.3692C52.2293 43.2806 52.3313 43.1933 52.4347 43.1074C52.5387 43.0211 52.6439 42.9365 52.7501 42.8536L52.5955 40.2614C52.5382 39.3 53.1741 38.4343 54.1087 38.2016L59.832 36.7763C60.7665 36.5435 61.7342 37.0099 62.1344 37.8858L63.2136 40.2477C63.3464 40.2711 63.4791 40.2965 63.6116 40.324C63.7431 40.3513 63.874 40.3806 64.0042 40.4118L65.9343 38.6748C66.6502 38.0306 67.7236 37.9881 68.4882 38.5736L73.171 42.1596C73.9356 42.7452 74.1743 43.7925 73.739 44.6516L72.5665 46.9655C72.6315 47.0848 72.6949 47.2053 72.7564 47.327C72.8171 47.4469 72.8759 47.5675 72.9327 47.6887L75.4914 48.1144C76.4414 48.2724 77.1438 49.085 77.1628 50.0479L77.2788 55.9449C77.2977 56.9078 76.6278 57.7475 75.6847 57.9427L73.1477 58.4681C73.0948 58.5937 73.0399 58.7187 72.983 58.8431C72.9268 58.966 72.8687 59.0879 72.8089 59.2087L74.0699 61.4718C74.5387 62.3131 74.3413 63.3689 73.6003 63.9841L69.0622 67.7515C68.3212 68.3667 67.247 68.3664 66.5064 67.7508L64.5149 66.0957C64.3842 66.1325 64.2528 66.1674 64.1207 66.2003C63.9884 66.2333 63.8559 66.2641 63.7231 66.2929L62.7404 68.6887C62.375 69.5797 61.4264 70.0837 60.4835 69.888L54.7085 68.6888C53.7655 68.4931 53.096 67.653 53.1155 66.6902L53.1679 64.0997C53.0585 64.0211 52.9502 63.9408 52.8429 63.8586C52.7344 63.7755 52.6273 63.6908 52.5216 63.6047L50.0342 64.3306C49.1097 64.6004 48.1242 64.173 47.6894 63.3137L45.0262 58.051C44.5914 57.1917 44.8307 56.1446 45.5956 55.5594L47.6562 53.9833C47.6495 53.8496 47.6448 53.7156 47.6422 53.5813C47.6395 53.4451 47.6389 53.3091 47.6404 53.1732L46.6355 52.4654C46.685 53.097 46.4329 53.7363 45.9168 54.1635L38.3004 60.4681C37.5386 61.0986 36.4304 61.0778 35.6928 60.4191L32.2852 57.3756C31.3186 57.6237 30.3307 57.7911 29.3322 57.875L27.1168 61.8721C26.6374 62.7371 25.5979 63.1218 24.6709 62.7774L15.4028 59.3336C14.4759 58.9892 13.9398 58.019 14.1415 57.0509L15.0733 52.5788C14.371 51.8628 13.7314 51.0903 13.1607 50.2705L8.59509 50.3504C7.60635 50.3677 6.7534 49.6598 6.5882 48.6848L4.93651 38.9366C4.77131 37.9616 5.34346 37.0122 6.28272 36.7028L10.5992 35.2811C10.8704 34.3001 11.2233 33.3506 11.651 32.4412L9.31233 28.5493C8.80297 27.7016 8.98955 26.609 9.75132 25.9785L17.3677 19.6739C18.1295 19.0434 19.2377 19.0642 19.9753 19.7229L23.3486 22.7358C24.3476 22.4765 25.3548 22.3068 26.3602 22.2231L28.5513 18.2698C29.0307 17.4049 30.0702 17.0202 30.9972 17.3646L40.2653 20.8083C41.0279 21.0917 41.526 21.7986 41.5663 22.5795L42.2936 21.6688L40.1083 20.2743C39.3118 19.7661 38.9797 18.7698 39.3118 17.8853L41.0311 13.3061C41.3632 12.4216 42.269 11.8901 43.2031 12.0316L45.7663 12.42L45.8813 9.83021ZM40.8393 26.39L40.6043 27.5178C41.3103 28.2372 41.9616 29.0228 42.5482 29.8707L43.6841 29.8509L40.8393 26.39ZM44.8838 49.1432L47.1581 44.1727L45.0686 44.861C44.799 45.8272 44.4469 46.7751 44.0127 47.6935L44.8838 49.1432ZM49.8054 11.6267L49.7166 13.627C49.6883 14.2653 49.3567 14.8516 48.8244 15.2048C48.6601 15.3138 48.5003 15.4319 48.3457 15.559C48.1914 15.6858 48.0448 15.8196 47.9062 15.9595C47.4566 16.4132 46.8173 16.625 46.1858 16.5293L44.2062 16.2293L43.6262 17.7741L45.3131 18.8506C45.8518 19.1943 46.1938 19.7748 46.2334 20.4125C46.2457 20.6097 46.268 20.8074 46.3008 21.0051C46.3336 21.2023 46.3761 21.3962 46.428 21.5862C46.5962 22.2025 46.46 22.862 46.0613 23.3612L44.8125 24.9245L45.8604 26.1992L47.635 25.2771C48.202 24.9825 48.8757 24.9765 49.4478 25.2611C49.6248 25.3491 49.8073 25.4286 49.9949 25.4991C50.1824 25.5695 50.3719 25.6297 50.5627 25.6798C51.1807 25.8422 51.6839 26.29 51.9168 26.8849L52.646 28.747L54.2738 28.4769L54.3626 26.4791C54.3909 25.8408 54.7225 25.2545 55.2549 24.9013C55.4193 24.7922 55.5792 24.6741 55.7339 24.5469C55.8888 24.4196 56.0358 24.2854 56.1748 24.145C56.6244 23.6909 57.2639 23.479 57.8957 23.5747L59.8731 23.8743L60.4531 22.3295L58.7663 21.2531C58.2279 20.9095 57.8859 20.3293 57.8461 19.6918C57.8338 19.4951 57.8115 19.2979 57.7788 19.1008C57.746 18.9031 57.7033 18.7087 57.6512 18.5182C57.4828 17.9018 57.619 17.242 58.0178 16.7427L59.2667 15.1791L58.2189 13.9044L56.4422 14.8276C55.8754 15.1221 55.202 15.1282 54.63 14.8439C54.4536 14.7562 54.2717 14.677 54.0847 14.6068C53.8974 14.5364 53.708 14.4763 53.5173 14.4262C52.8994 14.2638 52.3963 13.816 52.1634 13.2211L51.4333 11.3566L49.8054 11.6267ZM56.6873 41.6816L56.8089 43.7209C56.852 44.4423 56.5025 45.1307 55.8949 45.5218C55.582 45.7231 55.2796 45.9444 54.9897 46.1851C54.7002 46.4254 54.4275 46.6815 54.1724 46.9515C53.6762 47.4766 52.9353 47.6932 52.2344 47.5183L50.2525 47.0236L49.1809 49.3656L50.8494 50.5409C51.4404 50.9571 51.7608 51.6598 51.6874 52.3789C51.6496 52.7499 51.634 53.125 51.6414 53.5027C51.6488 53.8787 51.679 54.2515 51.731 54.6192C51.8321 55.3346 51.5396 56.0489 50.9658 56.4878L49.3454 57.7272L50.5083 60.0254L52.4645 59.4544C53.1585 59.2519 53.9077 59.4396 54.4242 59.9454C54.6909 60.2066 54.9747 60.453 55.2749 60.6829C55.574 60.9119 55.8848 61.1211 56.2053 61.31C56.8278 61.6768 57.2041 62.351 57.1894 63.0734L57.1483 65.1101L59.6701 65.6338L60.4427 63.75C60.717 63.0813 61.3308 62.6126 62.0481 62.5241C62.4183 62.4784 62.7875 62.4101 63.154 62.3189C63.5205 62.2276 63.8786 62.1147 64.2268 61.9815C64.9019 61.7233 65.6638 61.8494 66.2197 62.3114L67.7854 63.6127L69.7672 61.9676L68.7757 60.1883C68.424 59.5571 68.4401 58.7852 68.8179 58.1692C69.0124 57.852 69.1889 57.5215 69.3457 57.1787C69.503 56.8349 69.6381 56.4842 69.7512 56.1285C69.9702 55.4395 70.5438 54.9224 71.2517 54.7758L73.2469 54.3627L73.1962 51.7875L71.1842 51.4528C70.4715 51.3343 69.8782 50.8406 69.632 50.1614C69.5055 49.8122 69.3573 49.4688 69.1874 49.1331C69.0168 48.796 68.827 48.4719 68.6196 48.162C68.2176 47.5613 68.171 46.7904 68.4977 46.1456L69.4201 44.3254L67.3752 42.7594L65.857 44.1257C65.3199 44.6089 64.564 44.765 63.8795 44.534C63.5276 44.4152 63.1667 44.317 62.7984 44.2405C62.4293 44.1638 62.0584 44.1102 61.6875 44.0791C60.9674 44.0187 60.3359 43.5746 60.0356 42.9173L59.1866 41.0592L56.6873 41.6816ZM29.3204 25.1335L31.2161 21.7132L37.2599 23.9588L36.462 27.7887C36.3162 28.4884 36.5548 29.2127 37.088 29.6886C37.9564 30.4638 38.7372 31.3577 39.4045 32.3615C39.5265 32.5449 39.6435 32.7303 39.7557 32.9177C40.1234 33.5315 40.791 33.9021 41.5064 33.8896L45.4234 33.821L46.5005 40.1779L42.764 41.4087C42.0859 41.632 41.5783 42.1999 41.4321 42.8987C41.1494 44.2498 40.664 45.5653 39.978 46.7981C39.63 47.4235 39.6427 48.1872 40.0114 48.8007L42.0414 52.1789L37.0747 56.2901L34.1232 53.654C33.591 53.1787 32.8459 53.0229 32.1679 53.2452C30.8533 53.6762 29.4767 53.9105 28.0849 53.9355C27.3708 53.9483 26.7177 54.3409 26.3714 54.9656L24.452 58.4288L18.4082 56.1831L19.2155 52.3084C19.3612 51.609 19.1228 50.885 18.5901 50.409C17.5514 49.481 16.6612 48.4041 15.9465 47.2188C15.5781 46.6077 14.9121 46.2393 14.1987 46.2517L10.2447 46.3209L9.1676 39.964L12.9069 38.7324C13.5869 38.5084 14.0952 37.9382 14.24 37.2371C14.5255 35.8539 15.0175 34.5391 15.6865 33.33C16.0323 32.7052 16.0187 31.9435 15.6509 31.3315L13.6268 27.9631L18.5935 23.8519L21.5133 26.4598C22.047 26.9364 22.7945 27.0916 23.4738 26.8669C23.6806 26.7985 23.89 26.7346 24.1016 26.6754C25.2638 26.3506 26.4401 26.1834 27.6051 26.1636C28.3199 26.1515 28.9739 25.7588 29.3204 25.1335Z" stroke="currentColor" stroke-linecap="round" stroke-linejoin="round" />
</svg>