<svg viewBox="0 0 80 80" fill="none">
  <path fill-rule="evenodd" clip-rule="evenodd" d="M10.0001 25.9751C10.0135 22.6728 12.6946 20 16 20H64C67.3137 20 70 22.6863 70 26V54C70 57.3137 67.3137 60 64 60H16C12.6863 60 10 57.3137 10 54V26C10 25.9917 10 25.9834 10.0001 25.9751ZM14 30.3432V54C14 55.1046 14.8954 56 16 56H64C65.1046 56 66 55.1046 66 54V30.3409L46.5066 47.0495C42.7617 50.2595 37.2357 50.2595 33.4908 47.0495L14 30.3432ZM65.8384 25.2111L43.9034 44.0125C41.6565 45.9385 38.3409 45.9385 36.0939 44.0125L14.1609 25.2128C14.4666 24.4996 15.1749 24 16 24H64C64.8244 24 65.5323 24.4988 65.8384 25.2111Z" stroke="currentColor" stroke-linecap="round" stroke-linejoin="round" />
</svg>