<svg viewBox="0 0 80 80" fill="none">
  <path d="M19.9999 26C18.8953 26 17.9999 26.8954 17.9999 28C17.9999 29.1046 18.8953 30 19.9999 30H35.9999C37.1045 30 37.9999 29.1046 37.9999 28C37.9999 26.8954 37.1045 26 35.9999 26H19.9999Z" stroke="currentColor" stroke-linecap="round" stroke-linejoin="round" />
  <path d="M43.914 50C42.8094 50 41.914 50.8954 41.914 52C41.914 53.1046 42.8094 54 43.914 54H49.914V60C49.914 61.1046 50.8094 62 51.914 62C53.0185 62 53.914 61.1046 53.914 60V54H59.914C61.0185 54 61.914 53.1046 61.914 52C61.914 50.8954 61.0185 50 59.914 50H53.914V44C53.914 42.8954 53.0185 42 51.914 42C50.8094 42 49.914 42.8954 49.914 44V50H43.914Z" stroke="currentColor" stroke-linecap="round" stroke-linejoin="round" />
  <path fill-rule="evenodd" clip-rule="evenodd" d="M10 64C10 65.6491 10.6679 67.1459 11.7432 68.2284L11.7573 68.2427C12.8409 69.3263 14.3436 70 15.9999 70H63.9999C67.3136 70 69.9999 67.3137 69.9999 64V16C69.9999 14.3508 69.3319 12.8539 68.2565 11.7714L68.2427 11.7574C67.1591 10.6738 65.6563 10 64 10H16C12.6863 10 10 12.6863 10 16V64ZM16 14C14.8954 14 14 14.8954 14 16V63.1716L63.1716 14H16ZM63.9999 66H16.8285L65.9999 16.8286V64C65.9999 65.1046 65.1045 66 63.9999 66Z" stroke="currentColor" stroke-linecap="round" stroke-linejoin="round" />
</svg>