<svg viewBox="0 0 80 80" fill="none">
  <path d="M26.8538 21.9187L26.6839 21.4485C26.6001 21.4787 26.526 21.5308 26.4691 21.5994L26.8538 21.9187ZM23.9323 34.1634L23.4448 34.2746L23.4448 34.2746L23.9323 34.1634ZM29.889 47.413L29.393 47.476C29.4144 47.6441 29.5194 47.79 29.6721 47.8635L29.889 47.413ZM45.6975 47.413L45.4806 46.9625L45.4806 46.9625L45.6975 47.413ZM55.554 35.0534L55.0665 34.9422L55.0665 34.9422L55.554 35.0534ZM54.978 24.953L55.2443 24.5298C55.0643 24.4165 54.8323 24.4295 54.6661 24.5623C54.4999 24.695 54.4358 24.9183 54.5064 25.1189L54.978 24.953ZM63.0117 32.1375L63.4026 31.8257L63.4026 31.8257L63.0117 32.1375ZM66.5995 37.736L67.0461 37.9609C67.1173 37.8194 67.1173 37.6525 67.0461 37.5111L66.5995 37.736ZM63.0108 43.3361L62.6199 43.0244L62.6199 43.0244L63.0108 43.3361ZM12.6033 43.3361L12.2124 43.6479L12.2124 43.6479L12.6033 43.3361ZM9.01541 37.7377L8.56884 37.5128C8.4976 37.6542 8.4976 37.8211 8.56885 37.9626L9.01541 37.7377ZM12.6041 32.1375L12.9951 32.4492L12.6041 32.1375ZM20.4631 25.0637L20.9548 25.1546C20.991 24.9589 20.9076 24.7602 20.7425 24.649C20.5773 24.5378 20.3619 24.5351 20.1941 24.6422L20.4631 25.0637ZM20.8291 24.8335L20.5658 24.4085C20.5061 24.4455 20.4548 24.4947 20.4153 24.5529L20.8291 24.8335ZM34.6526 20.1546L34.7015 20.6522C34.9763 20.6252 35.1772 20.3805 35.1502 20.1057C35.1232 19.8309 34.8785 19.63 34.6037 19.657L34.6526 20.1546ZM28.7042 38.0872L29.0985 37.7797C28.96 37.6022 28.72 37.5391 28.5121 37.6256C28.3043 37.7121 28.1799 37.9269 28.2082 38.1502L28.7042 38.0872ZM31.6246 43.8092L31.8415 43.3587L31.8415 43.3587L31.6246 43.8092ZM43.962 43.8092L44.1789 44.2596L43.962 43.8092ZM51.6543 34.1634L51.1668 34.0521L51.1668 34.0521L51.6543 34.1634ZM48.9089 22.1353L49.2998 21.8235L49.2998 21.8235L48.9089 22.1353ZM48.7195 21.9027L49.1037 21.5828C49.0075 21.4673 48.8645 21.4012 48.7142 21.4028L48.7195 21.9027ZM27.2203 26.4068L26.7243 26.4698C26.7527 26.6931 26.9268 26.87 27.1497 26.9018C27.3725 26.9336 27.5892 26.8125 27.6789 26.606L27.2203 26.4068ZM27.8101 25.2362L27.3771 24.9862L27.3771 24.9862L27.8101 25.2362ZM30.5422 24.5041L30.2922 24.9371L30.2922 24.9371L30.5422 24.5041ZM31.2743 27.2361L30.8412 26.9861L30.8412 26.9861L31.2743 27.2361ZM34.0276 37.5142L34.2777 37.0813L34.2777 37.0813L34.0276 37.5142ZM34.7593 40.2464L35.1923 40.4964L35.1923 40.4964L34.7593 40.2464ZM32.0271 40.9781L32.2772 40.5451L32.2772 40.5451L32.0271 40.9781ZM66.139 29.6435L66.5299 29.3318L66.5299 29.3318L66.139 29.6435ZM51.0603 18.5054L51.4334 18.1727C51.3797 18.1124 51.3123 18.0661 51.2368 18.0376L51.0603 18.5054ZM50.6007 18.3321L50.7772 17.8642L50.7772 17.8642L50.6007 18.3321ZM34.5412 16.1473L34.4962 15.6494C34.2212 15.6743 34.0184 15.9174 34.0433 16.1924C34.0682 16.4674 34.3113 16.6702 34.5863 16.6453L34.5412 16.1473ZM20.8452 20.2153L20.8171 19.7161C20.7451 19.7202 20.6749 19.7397 20.6112 19.7735L20.8452 20.2153ZM9.47681 29.6435L9.0859 29.3318L9.0859 29.3318L9.47681 29.6435ZM4.98065 36.8908L4.52769 36.6791L4.52769 36.6791L4.98065 36.8908ZM4.58474 37.7378L4.13178 37.5261C4.06905 37.6602 4.06906 37.8153 4.13179 37.9495L4.58474 37.7378ZM4.9807 38.5847L5.43365 38.373L5.43365 38.373L4.9807 38.5847ZM9.47597 45.8301L9.08506 46.1418L9.08506 46.1418L9.47597 45.8301ZM66.1381 45.8301L65.7472 45.5184L65.7472 45.5184L66.1381 45.8301ZM70.6343 38.5828L70.1813 38.3711L70.1813 38.3711L70.6343 38.5828ZM71.0302 37.7359L71.4832 37.9476C71.5459 37.8134 71.5459 37.6583 71.4832 37.5241L71.0302 37.7359ZM70.6342 36.8889L70.1813 37.1006L70.1813 37.1007L70.6342 36.8889ZM24.5024 18.5311L24.1288 18.1989C23.9749 18.3718 23.96 18.6278 24.0926 18.8175C24.2252 19.0073 24.4707 19.0812 24.686 18.9962L24.5024 18.5311ZM24.5063 18.5267L24.329 18.0592C24.2536 18.0878 24.1863 18.1342 24.1327 18.1945L24.5063 18.5267ZM24.7613 18.4301L24.9413 18.8965C25.1984 18.7973 25.3267 18.5088 25.2283 18.2514C25.1298 17.994 24.8417 17.8648 24.584 17.9625L24.7613 18.4301ZM29.393 47.476C29.4278 47.75 29.6781 47.9438 29.952 47.909C30.226 47.8742 30.4198 47.624 30.385 47.35L29.393 47.476ZM29.2003 38.0242C29.1655 37.7503 28.9152 37.5564 28.6412 37.5912C28.3673 37.626 28.1734 37.8763 28.2082 38.1502L29.2003 38.0242ZM20.8171 19.7161C20.5414 19.7317 20.3305 19.9678 20.346 20.2435C20.3615 20.5192 20.5976 20.7301 20.8733 20.7145L20.8171 19.7161ZM51.0949 19.0119C51.3706 18.9964 51.5815 18.7603 51.566 18.4846C51.5505 18.2089 51.3144 17.998 51.0387 18.0135L51.0949 19.0119ZM27.0686 22.447C27.1246 22.3767 27.1813 22.3071 27.2386 22.238L26.4691 21.5994C26.4077 21.6734 26.3469 21.7481 26.2867 21.8235L27.0686 22.447ZM24.4198 34.0521C23.4908 29.9822 24.4658 25.7108 27.0686 22.447L26.2867 21.8235C23.4942 25.3252 22.4482 29.908 23.4448 34.2746L24.4198 34.0521ZM29.5479 41.9626C26.9804 40.0315 25.1473 37.2394 24.4198 34.0521L23.4448 34.2746C24.2254 37.6944 26.1922 40.69 28.9468 42.7618L29.5479 41.9626ZM30.385 47.35L29.7434 42.2992L28.7513 42.4252L29.393 47.476L30.385 47.35ZM45.4806 46.9625C40.6227 49.302 34.9639 49.302 30.106 46.9625L29.6721 47.8635C34.8042 50.335 40.7824 50.335 45.9145 47.8635L45.4806 46.9625ZM55.0665 34.9422C53.8667 40.1989 50.3385 44.6231 45.4806 46.9625L45.9145 47.8635C51.0466 45.392 54.7739 40.7181 56.0414 35.1647L55.0665 34.9422ZM54.5064 25.1189C55.6038 28.2383 55.8199 31.6416 55.0665 34.9422L56.0414 35.1647C56.8373 31.6777 56.609 28.0823 55.4497 24.7871L54.5064 25.1189ZM63.4026 31.8257C61.084 28.9184 58.3184 26.4641 55.2443 24.5298L54.7117 25.3762C57.6919 27.2514 60.373 29.6306 62.6207 32.4492L63.4026 31.8257ZM67.0461 37.5111C66.04 35.5133 64.8229 33.6068 63.4026 31.8257L62.6207 32.4492C63.9977 34.1759 65.1776 36.0243 66.153 37.9609L67.0461 37.5111ZM63.4017 43.6479C64.8224 41.8664 66.0398 39.9592 67.0461 37.9609L66.153 37.5111C65.1775 39.4483 63.9973 41.2972 62.6199 43.0244L63.4017 43.6479ZM37.8071 55.9736C47.7697 55.9736 57.1901 51.437 63.4017 43.6479L62.6199 43.0244C56.598 50.5756 47.4653 54.9736 37.8071 54.9736V55.9736ZM12.2124 43.6479C18.424 51.437 27.8444 55.9736 37.8071 55.9736V54.9736C28.1488 54.9736 19.0161 50.5756 12.9942 43.0244L12.2124 43.6479ZM8.56885 37.9626C9.57497 39.9603 10.7921 41.8669 12.2124 43.6479L12.9942 43.0244C11.6172 41.2977 10.4373 39.4494 9.46197 37.5127L8.56885 37.9626ZM12.2132 31.8257C10.7925 33.6073 9.57512 35.5144 8.56884 37.5128L9.46199 37.9625C10.4375 36.0253 11.6177 34.1764 12.9951 32.4492L12.2132 31.8257ZM20.1941 24.6422C17.191 26.5589 14.4871 28.9744 12.2132 31.8257L12.9951 32.4492C15.1995 29.6849 17.8208 27.3433 20.7321 25.4852L20.1941 24.6422ZM20.4153 24.5529C20.3458 24.6554 20.2937 24.7245 20.2574 24.7674C20.2089 24.8248 20.2183 24.7998 20.2748 24.7685C20.2991 24.7551 20.4222 24.6888 20.5916 24.7275C20.8017 24.7756 20.8976 24.9356 20.9292 25.023C20.9563 25.0979 20.9534 25.1544 20.9533 25.1582C20.9529 25.1701 20.9518 25.1705 20.9548 25.1546L19.9714 24.9727C19.963 25.0183 19.9555 25.0712 19.9538 25.1265C19.9523 25.1736 19.953 25.2642 19.989 25.3635C20.0294 25.4752 20.1393 25.6499 20.3686 25.7024C20.5573 25.7455 20.7049 25.6734 20.7591 25.6434C20.8755 25.579 20.9661 25.4781 21.0214 25.4126C21.0889 25.3327 21.1629 25.2321 21.2429 25.1142L20.4153 24.5529ZM34.6037 19.657C29.5891 20.1498 24.7912 21.7908 20.5658 24.4085L21.0925 25.2586C25.1889 22.7207 29.8402 21.13 34.7015 20.6522L34.6037 19.657ZM27.0238 22.3889C29.4843 21.4996 32.0619 20.9118 34.7015 20.6522L34.6036 19.657C31.8808 19.9248 29.2219 20.5311 26.6839 21.4485L27.0238 22.3889ZM29.7434 42.2992L29.2003 38.0242L28.2082 38.1502L28.7513 42.4252L29.7434 42.2992ZM31.8415 43.3587C31.0259 42.9659 30.2587 42.4972 29.5479 41.9626L28.9468 42.7618C29.7095 43.3355 30.5327 43.8383 31.4076 44.2596L31.8415 43.3587ZM43.7451 43.3587C39.9839 45.1699 35.6027 45.1699 31.8415 43.3587L31.4076 44.2596C35.443 46.203 40.1436 46.203 44.1789 44.2596L43.7451 43.3587ZM51.1668 34.0521C50.2379 38.122 47.5062 41.5474 43.7451 43.3587L44.1789 44.2596C48.2143 42.3163 51.1451 38.6412 52.1417 34.2746L51.1668 34.0521ZM48.518 22.447C51.1208 25.7108 52.0957 29.9822 51.1668 34.0521L52.1417 34.2746C53.1384 29.908 52.0924 25.3252 49.2998 21.8235L48.518 22.447ZM48.3352 22.2226C48.3968 22.2967 48.4578 22.3715 48.518 22.447L49.2998 21.8235C49.2352 21.7425 49.1698 21.6623 49.1037 21.5828L48.3352 22.2226ZM26.6829 22.6352L48.7247 22.4027L48.7142 21.4028L26.6724 21.6353L26.6829 22.6352ZM27.7163 26.3438L27.1737 22.0722L26.1816 22.1983L26.7243 26.4698L27.7163 26.3438ZM27.6789 26.606C27.8457 26.2221 28.0342 25.8482 28.2431 25.4862L27.3771 24.9862C27.1492 25.381 26.9437 25.7888 26.7617 26.2075L27.6789 26.606ZM28.2431 25.4862C28.6573 24.7687 29.5747 24.5229 30.2922 24.9371L30.7922 24.0711C29.5964 23.3807 28.0674 23.7904 27.3771 24.9862L28.2431 25.4862ZM30.2922 24.9371C31.0096 25.3513 31.2555 26.2687 30.8412 26.9861L31.7073 27.4861C32.3976 26.2904 31.9879 24.7614 30.7922 24.0711L30.2922 24.9371ZM30.8412 26.9861C30.1484 28.1862 29.7662 29.5648 29.7662 30.9983H30.7662C30.7662 29.7434 31.1007 28.5368 31.7073 27.4861L30.8412 26.9861ZM29.7662 30.9983C29.7662 33.8648 31.2953 36.5136 33.7776 37.9472L34.2777 37.0813C32.1048 35.8263 30.7662 33.5076 30.7662 30.9983H29.7662ZM33.7776 37.9472C34.4949 38.3615 34.7406 39.2789 34.3263 39.9963L35.1923 40.4964C35.8828 39.3008 35.4733 37.7718 34.2777 37.0813L33.7776 37.9472ZM34.3263 39.9963C33.912 40.7137 32.9946 40.9594 32.2772 40.5451L31.7771 41.411C32.9727 42.1016 34.5017 41.6921 35.1923 40.4964L34.3263 39.9963ZM32.2772 40.5451C31.0293 39.8244 29.9569 38.8802 29.0985 37.7797L28.31 38.3947C29.2463 39.5952 30.4162 40.6251 31.7771 41.411L32.2772 40.5451ZM50.8838 18.9781C56.6454 21.2435 61.7927 24.9954 65.7481 29.9553L66.5299 29.3318C62.4638 24.233 57.1724 20.3762 51.2497 18.0474L50.8838 18.9781ZM51.4399 18.18L51.4334 18.1727L50.6871 18.8382L50.6936 18.8455L51.4399 18.18ZM51.2368 18.0376L50.7772 17.8642L50.4242 18.7999L50.8838 18.9732L51.2368 18.0376ZM50.7772 17.8642C46.6816 16.319 42.2947 15.4998 37.8103 15.4998V16.4998C42.1727 16.4998 46.4401 17.2966 50.4242 18.7999L50.7772 17.8642ZM37.8103 15.4998C36.6986 15.4998 35.5929 15.5501 34.4962 15.6494L34.5863 16.6453C35.6532 16.5487 36.7288 16.4998 37.8103 16.4998V15.4998ZM34.5863 16.6453C35.6524 16.5489 36.7272 16.5 37.8079 16.5V15.5C36.697 15.5 35.5922 15.5503 34.4962 15.6494L34.5863 16.6453ZM37.8079 16.5C42.3395 16.5 46.7683 17.3598 50.8838 18.9781L51.2497 18.0474C47.0191 16.3839 42.4663 15.5 37.8079 15.5V16.5ZM20.8733 20.7145L51.0949 19.0119L51.0387 18.0135L20.8171 19.7161L20.8733 20.7145ZM9.86773 29.9553C12.9661 26.07 16.7958 22.9261 21.0793 20.6572L20.6112 19.7735C16.2079 22.1059 12.271 25.3378 9.0859 29.3318L9.86773 29.9553ZM5.43361 37.1025C6.61357 34.5782 8.09594 32.177 9.86773 29.9553L9.0859 29.3318C7.26459 31.6156 5.74071 34.084 4.52769 36.6791L5.43361 37.1025ZM5.03769 37.9495L5.43361 37.1025L4.52769 36.6791L4.13178 37.5261L5.03769 37.9495ZM5.43365 38.373L5.03768 37.526L4.13179 37.9495L4.52776 38.7965L5.43365 38.373ZM9.86689 45.5184C8.09554 43.2972 6.61346 40.8966 5.43365 38.373L4.52776 38.7965C5.74062 41.3908 7.2642 43.8586 9.08506 46.1418L9.86689 45.5184ZM37.8071 58.9736C26.9315 58.9736 16.6477 54.0212 9.86689 45.5184L9.08506 46.1418C16.0556 54.8827 26.6271 59.9736 37.8071 59.9736V58.9736ZM65.7472 45.5184C58.9664 54.0212 48.6826 58.9736 37.8071 58.9736V59.9736C48.987 59.9736 59.5585 54.8827 66.529 46.1418L65.7472 45.5184ZM70.1813 38.3711C69.0014 40.8954 67.519 43.2966 65.7472 45.5184L66.529 46.1418C68.3504 43.858 69.8742 41.3896 71.0873 38.7946L70.1813 38.3711ZM70.5773 37.5241L70.1813 38.3711L71.0873 38.7946L71.4832 37.9476L70.5773 37.5241ZM70.1813 37.1007L70.5773 37.9476L71.4832 37.5241L71.0872 36.6771L70.1813 37.1007ZM65.7481 29.9553C67.5194 32.1765 69.0015 34.577 70.1813 37.1006L71.0872 36.6771C69.8743 34.0828 68.3507 31.6151 66.5299 29.3318L65.7481 29.9553ZM24.876 18.8634L24.8799 18.859L24.1327 18.1945L24.1288 18.1989L24.876 18.8634ZM24.5812 17.9636C24.4936 17.9974 24.4061 18.0316 24.3188 18.066L24.686 18.9962C24.771 18.9626 24.8561 18.9294 24.9413 18.8965L24.5812 17.9636ZM24.6836 18.9942L24.9385 18.8976L24.584 17.9625L24.329 18.0592L24.6836 18.9942ZM30.385 47.35L29.2003 38.0242L28.2082 38.1502L29.393 47.476L30.385 47.35ZM20.8733 20.7145L51.0949 19.0119L51.0387 18.0135L20.8171 19.7161L20.8733 20.7145Z" fill="currentColor" />
</svg>