<svg viewBox="0 0 80 80" fill="none">
  <path fill-rule="evenodd" clip-rule="evenodd" d="M24 18C19.0294 18 15 22.0294 15 27C15 31.9706 19.0294 36 24 36C28.9706 36 33 31.9706 33 27C33 22.0294 28.9706 18 24 18ZM19 27C19 24.2386 21.2386 22 24 22C26.7614 22 29 24.2386 29 27C29 29.7614 26.7614 32 24 32C21.2386 32 19 29.7614 19 27Z" stroke="currentColor" stroke-linecap="round" stroke-linejoin="round" />
  <path d="M37 20C37 18.8954 37.8954 18 39 18H62C63.1046 18 64 18.8954 64 20C64 21.1046 63.1046 22 62 22H41V38H56.9688C58.0733 38 58.9688 38.8954 58.9688 40C58.9688 41.1046 58.0733 42 56.9688 42H41V60C41 61.1046 40.1046 62 39 62C37.8954 62 37 61.1046 37 60V20Z" stroke="currentColor" stroke-linecap="round" stroke-linejoin="round" />
</svg>