<svg viewBox="0 0 80 80" fill="none">
  <path d="M31.9102 17.507C30.7835 15.9335 28.9671 15 27.0318 15H16C12.6863 15 10 17.6863 10 21V59C10 62.3137 12.6863 65 16 65H64C67.3137 65 70 62.3137 70 59V29C70 25.6863 67.3137 23 64 23H35.8433L31.9102 17.507ZM31.9102 17.507L30.3032 18.6576M14 21C14 19.8954 14.8954 19 16 19H27.0318C27.6769 19 28.2824 19.3112 28.6579 19.8357L32.8496 25.6898C33.4384 26.5121 34.3878 27 35.3992 27H64C65.1046 27 66 27.8954 66 29V59C66 60.1046 65.1046 61 64 61H16C14.8954 61 14 60.1046 14 59V21Z" stroke="currentColor" stroke-linecap="round" stroke-linejoin="round" />
</svg>