<svg viewBox="0 0 80 80" fill="none">
  <path fill-rule="evenodd" clip-rule="evenodd" d="M28.6281 12.5452C35.9095 9.52919 44.0907 9.52919 51.372 12.5452C58.6534 15.5613 64.4384 21.3463 67.4544 28.6276C70.4705 35.909 70.4705 44.0902 67.4544 51.3716C64.4384 58.6529 58.6534 64.4379 51.372 67.4539C48.372 68.6966 45.2192 69.4273 42.0396 69.6459C41.9997 69.6509 41.9596 69.6548 41.9192 69.6574C40.642 69.74 39.3607 69.7401 38.0835 69.6575C38.0431 69.6549 38.003 69.6511 37.9631 69.6461C34.7825 69.4276 31.6289 68.6969 28.6281 67.4539C21.3468 64.4379 15.5617 58.6529 12.5457 51.3716C9.52968 44.0902 9.52968 35.909 12.5457 28.6276C15.5617 21.3463 21.3468 15.5613 28.6281 12.5452ZM49.8413 63.7584C48.8052 64.1876 47.748 64.5462 46.6766 64.8343C48.5573 62.2081 50.148 59.3565 51.404 56.3242C52.126 54.5812 52.7275 52.8024 53.2087 50.9996H63.2452C60.522 56.7547 55.7512 61.3105 49.8413 63.7584ZM64.7455 46.9996C66.1348 42.0887 66.0332 36.8646 64.4405 31.9996H53.8933C54.8392 36.9516 54.899 42.0314 54.0729 46.9996H64.7455ZM50.0121 46.9996H29.9882C29.0747 42.0384 29.1407 36.9411 30.1861 31.9996H49.8132C50.859 36.941 50.9253 42.0384 50.0121 46.9996ZM49.0533 50.9996H30.9474C31.3276 52.28 31.7755 53.5455 32.2913 54.7907C33.9616 58.8231 36.2846 62.5024 39.1329 65.7014C39.7116 65.7209 40.2908 65.7208 40.8694 65.7013C43.7166 62.503 46.0388 58.8246 47.7085 54.7934C48.2247 53.5473 48.6729 52.2809 49.0533 50.9996ZM25.9274 46.9996C25.101 42.0314 25.1605 36.9517 26.1061 31.9996H15.5596C13.967 36.8646 13.8653 42.0887 15.2546 46.9996H25.9274ZM16.755 50.9996H26.7919C27.2729 52.8015 27.8742 54.5794 28.5958 56.3215C29.8524 59.3551 31.4439 62.2078 33.3255 64.8348C32.2535 64.5467 31.1956 64.1879 30.1588 63.7584C24.2489 61.3105 19.4781 56.7547 16.755 50.9996ZM17.255 27.9996H27.0721C27.5002 26.5396 28.0081 25.0969 28.5958 23.678C29.8525 20.6443 31.444 17.7914 33.3258 15.1643C32.2537 15.4524 31.1957 15.8113 30.1588 16.2407C24.5955 18.5451 20.0416 22.7174 17.255 27.9996ZM31.2592 27.9996C31.5663 27.0597 31.9103 26.1287 32.2913 25.2088C33.961 21.1778 36.2831 17.4995 39.1301 14.3013C39.709 14.2817 40.2884 14.2817 40.8673 14.3012C43.7154 17.5001 46.0383 21.1793 47.7085 25.2115C48.0892 26.1305 48.433 27.0606 48.7398 27.9996H31.2592ZM52.927 27.9996C52.499 26.5405 51.9914 25.0987 51.404 23.6807C50.1469 20.6456 48.5544 17.7916 46.6716 15.1636C47.7446 15.4518 48.8035 15.8109 49.8413 16.2407C55.4046 18.5451 59.9585 22.7174 62.7451 27.9996H52.927Z" stroke="currentColor" stroke-linecap="round" stroke-linejoin="round" />
</svg>