<svg viewBox="0 0 80 80" fill="none">
  <path fill-rule="evenodd" clip-rule="evenodd" d="M34.9775 15.8561C35.656 13.1383 38.1137 11.125 41.0416 11.125C43.9695 11.125 46.4272 13.1383 47.1058 15.8561C47.9811 15.3895 48.9804 15.125 50.0416 15.125C53.4934 15.125 56.2916 17.9232 56.2916 21.375V23.7609C57.1215 23.3537 58.0548 23.125 59.0416 23.125C62.4934 23.125 65.2916 25.9232 65.2916 29.375V46.875C65.2916 47.1884 65.268 47.5014 65.2211 47.8113L62.7211 64.3113C62.2581 67.3666 59.6318 69.625 56.5416 69.625H34.0416C31.9802 69.625 30.0514 68.6085 28.8861 66.9081L15.2201 46.9667C13.2688 44.1194 13.9951 40.2294 16.8425 38.2781C19.6898 36.3268 23.5798 37.0531 25.5311 39.9005L25.7916 40.2806V21.375C25.7916 17.9232 28.5898 15.125 32.0416 15.125C33.1028 15.125 34.1022 15.3895 34.9775 15.8561ZM41.0416 15.125C39.799 15.125 38.7916 16.1324 38.7916 17.375V39.459C38.7916 40.7243 37.7659 41.75 36.5006 41.75C35.2806 41.75 34.2916 40.761 34.2916 39.541V21.375C34.2916 20.1324 33.2842 19.125 32.0416 19.125C30.799 19.125 29.7916 20.1324 29.7916 21.375V46C29.7916 48.19 26.9633 49.0661 25.7253 47.2596L22.2316 42.1617C21.5291 41.1366 20.1287 40.8751 19.1037 41.5776C18.0786 42.2801 17.8171 43.6805 18.5196 44.7055L32.1856 64.6469C32.6051 65.2591 33.2995 65.625 34.0416 65.625H56.5416C57.6541 65.625 58.5996 64.812 58.7662 63.7121L61.2662 47.2121C61.2831 47.1005 61.2916 46.9878 61.2916 46.875V29.375C61.2916 28.1324 60.2842 27.125 59.0416 27.125C57.799 27.125 56.7916 28.1324 56.7916 29.375V39.459C56.7916 40.7243 55.7659 41.75 54.5006 41.75C53.2806 41.75 52.2916 40.761 52.2916 39.541V21.375C52.2916 20.1324 51.2842 19.125 50.0416 19.125C48.799 19.125 47.7916 20.1324 47.7916 21.375V39.459C47.7916 40.7243 46.7659 41.75 45.5006 41.75C44.2806 41.75 43.2916 40.761 43.2916 39.541V17.375C43.2916 16.1324 42.2842 15.125 41.0416 15.125Z" stroke="currentColor" stroke-linecap="round" stroke-linejoin="round" />
</svg>