<svg viewBox="0 0 80 80" fill="none">
  <path fill-rule="evenodd" clip-rule="evenodd" d="M17.5 17C17.5 16.1716 18.1716 15.5 19 15.5H61C61.8284 15.5 62.5 16.1716 62.5 17C62.5 17.8284 61.8284 18.5 61 18.5H58.8207V27.1798C58.8207 30.0489 57.524 32.7644 55.2926 34.568L48.5727 39.9997L55.2934 45.432C57.5248 47.2356 58.8215 49.9511 58.8215 52.8202V61.5H61C61.8284 61.5 62.5 62.1716 62.5 63C62.5 63.8284 61.8284 64.5 61 64.5H19C18.1716 64.5 17.5 63.8284 17.5 63C17.5 62.1716 18.1716 61.5 19 61.5H21.1805V52.8202C21.1805 49.9511 22.4772 47.2356 24.7086 45.432L31.4285 40.0003L24.7078 34.568C22.4764 32.7644 21.1797 30.0489 21.1797 27.1798V18.5H19C18.1716 18.5 17.5 17.8284 17.5 17ZM24.1797 18.5V27.1798C24.1797 29.1429 25.0669 31.0008 26.5937 32.2349L34.7576 38.8337C35.1099 39.1185 35.3147 39.5473 35.3147 40.0003C35.3147 40.4533 35.1099 40.8821 34.7576 41.1669L26.5944 47.7651C25.0677 48.9992 24.1805 50.8571 24.1805 52.8202V61.5H55.8215V52.8202C55.8215 50.8571 54.9343 48.9992 53.4075 47.7651L45.2436 41.1663C44.8912 40.8815 44.6865 40.4527 44.6865 39.9997C44.6865 39.5467 44.8912 39.1179 45.2436 38.8331L53.4067 32.2349C54.9335 31.0008 55.8207 29.1429 55.8207 27.1798V18.5H24.1797Z" stroke="currentColor" stroke-linecap="round" stroke-linejoin="round" />
</svg>