<svg viewBox="0 0 80 80" fill="none">
  <path fill-rule="evenodd" clip-rule="evenodd" d="M19.429 6.77295C20.5305 6.77295 21.4247 7.66368 21.4289 8.76522L21.445 12.9256C21.4476 13.5949 21.1152 14.2212 20.5594 14.5941L20.5531 14.5983C21.1812 14.6903 21.8008 14.8598 22.3972 15.1069C22.9937 15.3539 23.5516 15.6722 24.0609 16.0513L24.0594 16.0439C23.9301 15.3871 24.1378 14.7093 24.613 14.2378L27.5662 11.3073C28.3481 10.5314 29.6102 10.5339 30.3891 11.3128C31.168 12.0917 31.1705 13.3538 30.3946 14.1357L27.4642 17.0888C26.9928 17.5639 26.3149 17.7717 25.6582 17.6424L25.6504 17.6409C26.0296 18.1501 26.3479 18.7082 26.595 19.3047C26.8421 19.9012 27.0116 20.5208 27.1036 21.1491L27.1079 21.1426C27.4809 20.5867 28.1071 20.2543 28.7765 20.2569L32.9367 20.273C34.0382 20.2772 34.929 21.1714 34.929 22.2729C34.929 23.3745 34.0382 24.2687 32.9367 24.2729L28.7765 24.289C28.1071 24.2916 27.4809 23.9592 27.1079 23.4033L27.1036 23.3968C27.0116 24.0251 26.8421 24.6447 26.595 25.2412C26.3479 25.8377 26.0296 26.3958 25.6504 26.905L25.6582 26.9035C26.3149 26.7742 26.9928 26.982 27.4642 27.4571L30.3946 30.4101C31.1705 31.1921 31.168 32.4542 30.3891 33.2331C29.6102 34.012 28.3481 34.0145 27.5662 33.2386L24.613 30.3081C24.1379 29.8366 23.9301 29.1588 24.0594 28.5021L24.0609 28.4946C23.5516 28.8737 22.9937 29.1919 22.3972 29.439C21.8008 29.6861 21.1812 29.8556 20.5531 29.9476L20.5594 29.9518C21.1152 30.3247 21.4476 30.951 21.445 31.6203L21.4289 35.7807C21.4247 36.8822 20.5305 37.7729 19.429 37.7729C18.3274 37.7729 17.4332 36.8822 17.429 35.7807L17.4129 31.62C17.4103 30.9507 17.7427 30.3245 18.2985 29.9515L18.3045 29.9475C17.6765 29.8555 17.057 29.686 16.4607 29.439C15.8643 29.192 15.3065 28.8738 14.7973 28.4948L14.7987 28.5019C14.928 29.1586 14.7202 29.8365 14.2451 30.3079L11.2918 33.2386C10.5098 34.0145 9.24772 34.012 8.4688 33.2331C7.68988 32.4542 7.68745 31.1921 8.46335 30.4101L11.3941 27.4566C11.8656 26.9815 12.5435 26.7738 13.2002 26.9031L13.207 26.9044C12.828 26.3953 12.5099 25.8375 12.2629 25.2412C12.0159 24.645 11.8464 24.0256 11.7544 23.3976L11.7506 23.4034C11.3776 23.9592 10.7514 24.2916 10.082 24.289L5.92123 24.2729C4.81968 24.2687 3.92896 23.3745 3.92896 22.2729C3.92896 21.1714 4.81968 20.2772 5.92123 20.273L10.082 20.2569C10.7514 20.2543 11.3776 20.5867 11.7506 21.1425L11.7544 21.1483C11.8464 20.5203 12.0159 19.9009 12.2629 19.3047C12.5099 18.7084 12.828 18.1506 13.207 17.6415L13.2002 17.6428C12.5434 17.7721 11.8656 17.5644 11.3941 17.0893L8.46335 14.1357C7.68745 13.3538 7.68988 12.0917 8.4688 11.3128C9.24772 10.5339 10.5098 10.5314 11.2918 11.3073L14.2451 14.238C14.7202 14.7094 14.928 15.3873 14.7987 16.044L14.7973 16.0511C15.3065 15.6721 15.8643 15.3539 16.4607 15.1069C17.057 14.8599 17.6765 14.6904 18.3045 14.5984L18.2985 14.5944C17.7427 14.2214 17.4103 13.5952 17.4129 12.9259L17.429 8.76522C17.4332 7.66368 18.3274 6.77295 19.429 6.77295ZM17.9914 18.8024C18.9119 18.4212 19.9461 18.4212 20.8665 18.8024C21.7869 19.1837 22.5182 19.915 22.8995 20.8354C23.2808 21.7558 23.2808 22.79 22.8995 23.7105C22.5182 24.6309 21.7869 25.3622 20.8665 25.7435C19.9461 26.1247 18.9119 26.1247 17.9914 25.7435C17.071 25.3622 16.3397 24.6309 15.9584 23.7105C15.5772 22.79 15.5772 21.7558 15.9584 20.8354C16.3397 19.915 17.071 19.1837 17.9914 18.8024Z" stroke="currentColor" stroke-linecap="round" stroke-linejoin="round" />
  <path d="M63.0451 7.60044C59.7251 6.83365 56.2768 6.83365 52.9568 7.60044C49.6369 8.36721 46.5321 9.88067 43.8727 12.0267C42.59 13.0618 41.4269 14.2312 40.401 15.512C39.7105 16.3741 39.8496 17.6327 40.7117 18.3233C41.5738 19.0138 42.8325 18.8747 43.523 18.0126C44.3693 16.956 45.3281 15.9922 46.3847 15.1396C48.5751 13.372 51.1292 12.1278 53.857 11.4978C56.5846 10.8679 59.4173 10.8679 62.145 11.4978C64.8727 12.1278 67.4268 13.372 69.6172 15.1396C70.6746 15.9928 71.6341 16.9575 72.4808 18.015C73.1712 18.8772 74.4299 19.0165 75.2921 18.3261C76.1543 17.6357 76.2936 16.3771 75.6032 15.5149C74.5768 14.233 73.4129 13.0626 72.1292 12.0267C69.4698 9.88067 66.365 8.36721 63.0451 7.60044Z" stroke="currentColor" stroke-linecap="round" stroke-linejoin="round" />
  <path d="M61.67 14.7796C59.2572 14.2223 56.751 14.2223 54.3382 14.7796C51.9254 15.3368 49.6695 16.4366 47.7375 17.9956C46.6688 18.8581 45.7145 19.8487 44.8939 20.9424C44.231 21.8259 44.4099 23.0796 45.2934 23.7425C46.1769 24.4054 47.4306 24.2265 48.0935 23.343C48.7164 22.5127 49.4401 21.7616 50.2495 21.1085C51.7124 19.928 53.4178 19.0974 55.2383 18.677C57.0589 18.2565 58.9493 18.2565 60.7699 18.677C62.5905 19.0974 64.2958 19.928 65.7587 21.1085C66.5677 21.7614 67.2912 22.512 67.914 23.3419C68.5769 24.2254 69.8306 24.4041 70.7141 23.7411C71.5975 23.0781 71.7763 21.8245 71.1133 20.941C70.2929 19.8479 69.339 18.8577 68.2707 17.9956C66.3387 16.4366 64.0828 15.3368 61.67 14.7796Z" stroke="currentColor" stroke-linecap="round" stroke-linejoin="round" />
  <path d="M60.2919 21.9613C58.7862 21.6135 57.2221 21.6135 55.7165 21.9613C54.2108 22.309 52.8037 22.9952 51.5993 23.9672C50.7182 24.6781 49.9622 25.5286 49.359 26.482C48.7684 27.4155 49.0464 28.6509 49.9798 29.2415C50.9133 29.8321 52.1487 29.5541 52.7393 28.6207C53.1099 28.0349 53.5732 27.5142 54.1112 27.08C54.8467 26.4865 55.7032 26.0697 56.6166 25.8587C57.53 25.6477 58.4783 25.6477 59.3917 25.8587C60.3051 26.0697 61.1616 26.4865 61.8971 27.08C62.4348 27.514 62.8979 28.0343 63.2684 28.6196C63.8591 29.5529 65.0946 29.8307 66.0279 29.2399C66.9613 28.6492 67.239 27.4137 66.6482 26.4803C66.0452 25.5276 65.2896 24.6777 64.4091 23.9672C63.2046 22.9952 61.7975 22.309 60.2919 21.9613Z" stroke="currentColor" stroke-linecap="round" stroke-linejoin="round" />
  <path fill-rule="evenodd" clip-rule="evenodd" d="M58 27.8434C55.7036 27.8434 53.8824 29.7206 53.8824 31.9863C53.8824 34.2519 55.7036 36.1291 58 36.1291C60.2964 36.1291 62.1176 34.2519 62.1176 31.9863C62.1176 29.7206 60.2964 27.8434 58 27.8434Z" stroke="currentColor" stroke-linecap="round" stroke-linejoin="round" />
  <path fill-rule="evenodd" clip-rule="evenodd" d="M10.6675 46.0368C10.6563 46.1305 10.6519 46.2239 10.6538 46.3163L10.6538 51.1329C10.6532 51.1614 10.6532 51.1899 10.6538 51.2183V58.8763C9.90141 58.6208 9.10584 58.4877 8.32692 58.4877C5.28998 58.4877 2 60.5118 2 63.919C2 67.3263 5.28998 69.3504 8.32692 69.3504C11.3639 69.3504 14.6538 67.3263 14.6538 63.919L14.6538 53.7105L27 56.6724V62.7979C26.2476 62.5424 25.452 62.4092 24.6731 62.4092C21.6361 62.4092 18.3462 64.4334 18.3462 67.8406C18.3462 71.2478 21.6361 73.272 24.6731 73.272C27.71 73.272 31 71.2478 31 67.8406L31 55.1364C31.0003 55.1233 31.0004 55.1102 31.0005 55.0972L31.0004 55.0768L31 55.0513V50.2344C31.0036 50.0682 30.9862 49.9046 30.9499 49.7467C30.8829 49.453 30.7512 49.1839 30.5706 48.9552C30.3906 48.7266 30.1601 48.536 29.8907 48.4023C29.7452 48.3298 29.5897 48.2746 29.4267 48.2392L13.1634 44.3375C13.0743 44.3141 12.9828 44.2966 12.8893 44.2857C12.6557 44.2577 12.4248 44.2718 12.205 44.3225C11.912 44.3897 11.6437 44.5212 11.4155 44.7014C11.1867 44.8815 10.9961 45.1122 10.8624 45.3818C10.7621 45.5832 10.6948 45.8039 10.6675 46.0368ZM27 51.7705L14.6538 48.8085V49.597L27 52.5589V51.7705ZM10.6538 63.9184C10.6532 63.535 10.0685 62.4877 8.32692 62.4877C6.58448 62.4877 6 63.5361 6 63.919C6 64.302 6.58448 65.3504 8.32692 65.3504C10.0694 65.3504 10.6538 64.3014 10.6538 63.9184ZM27 67.8406C27 67.4576 26.4155 66.4092 24.6731 66.4092C22.9306 66.4092 22.3462 67.4576 22.3462 67.8406C22.3462 68.2236 22.9306 69.272 24.6731 69.272C26.4155 69.272 27 68.2236 27 67.8406Z" stroke="currentColor" stroke-linecap="round" stroke-linejoin="round" />
  <path fill-rule="evenodd" clip-rule="evenodd" d="M54.0865 70.6093C52.6483 73.1004 49.4629 73.9539 46.9718 72.5157C44.4807 71.0774 43.6272 67.8921 45.0654 65.4009L45.5238 64.6071C46.962 62.116 50.1474 61.2625 52.6385 62.7007C52.9987 62.9087 53.3247 63.1532 53.6144 63.4269L54.8577 61.2735L48.1014 49.5713C47.5491 48.6147 47.8768 47.3915 48.8334 46.8392C49.79 46.2869 51.0132 46.6147 51.5655 47.5713L57.1671 57.2735L62.7687 47.5713C63.321 46.6147 64.5442 46.2869 65.5007 46.8392C66.4573 47.3915 66.7851 48.6147 66.2328 49.5713L59.4765 61.2735L60.7197 63.4269C61.0095 63.1532 61.3354 62.9087 61.6957 62.7007C64.1868 61.2625 67.3721 62.116 68.8104 64.6071L69.2687 65.401C70.707 67.8921 69.8535 71.0774 67.3623 72.5157C64.8712 73.9539 61.6859 73.1004 60.2476 70.6093L59.7893 69.8154C59.7856 69.809 59.7819 69.8026 59.7782 69.7962L57.1671 65.2735L54.5555 69.797L54.5449 69.8154L54.0865 70.6093ZM50.8451 68.2236L50.852 68.2115L51.0808 67.8154L51.0861 67.806C51.4123 67.2295 51.2133 66.4967 50.6385 66.1648C50.0605 65.8311 49.3215 66.0292 48.9879 66.6071L48.5295 67.401C48.1959 67.9789 48.3939 68.7179 48.9718 69.0516C49.5498 69.3852 50.2888 69.1872 50.6224 68.6093L50.8451 68.2236ZM63.4892 68.2238L63.7117 68.6093C64.0454 69.1872 64.7844 69.3852 65.3623 69.0516C65.9403 68.7179 66.1383 67.9789 65.8046 67.401L65.3463 66.6071C65.0126 66.0292 64.2736 65.8311 63.6957 66.1648C63.1209 66.4966 62.9219 67.2294 63.2479 67.8059C63.2497 67.8091 63.2516 67.8122 63.2534 67.8154L63.4821 68.2115C63.4845 68.2156 63.4869 68.2197 63.4892 68.2238Z" stroke="currentColor" stroke-linecap="round" stroke-linejoin="round" />
</svg>