<svg viewBox="0 0 80 80" fill="none">
  <path d="M57.5052 14.683C58.2325 15.5143 58.1483 16.7778 57.317 17.5052L35.9144 36.2325L57.5493 62.7353C58.2478 63.5909 58.1204 64.8508 57.2648 65.5494C56.4091 66.2479 55.1492 66.1204 54.4507 65.2648L32.9023 38.868L26 44.9076V64C26 65.1046 25.1046 66 24 66C22.8954 66 22 65.1046 22 64V16C22 14.8955 22.8954 14 24 14C25.1046 14 26 14.8955 26 16V39.5925L54.683 14.4949C55.5143 13.7675 56.7778 13.8517 57.5052 14.683Z" stroke="currentColor" stroke-linecap="round" stroke-linejoin="round" />
</svg>