<svg viewBox="0 0 80 80" fill="none">
  <path fill-rule="evenodd" clip-rule="evenodd" d="M66 18C66 15.7909 64.2091 14 62 14L34 14C31.7909 14 30 15.7909 30 18V30H18C15.7909 30 14 31.7909 14 34V62C14 64.2091 15.7909 66 18 66H46C48.2091 66 50 64.2091 50 62V50H62C64.2091 50 66 48.2091 66 46V18ZM50 46H62V18H34V30H36V23C36 21.3431 37.3431 20 39 20H57C58.6569 20 60 21.3431 60 23V41C60 42.6569 58.6569 44 57 44H50V46ZM50 40H56V24H40V30H46C48.2091 30 50 31.7909 50 34V40ZM18 34V62H46V34H18Z" stroke="currentColor" stroke-linecap="round" stroke-linejoin="round" />
</svg>