<svg viewBox="0 0 80 80" fill="none">
  <path fill-rule="evenodd" clip-rule="evenodd" d="M38.4243 14.4994C39.4305 14.0682 40.5695 14.0682 41.5757 14.4994L64.4985 24.3235C67.7309 25.7088 67.7309 30.2913 64.4985 31.6767L60.2439 33.5001L64.4985 35.3235C67.7309 36.7088 67.7309 41.2913 64.4985 42.6766L60.2438 44.5L64.4985 46.3235C67.7309 47.7088 67.7309 52.2913 64.4985 53.6766L41.5757 63.5007C40.5695 63.9319 39.4305 63.9319 38.4243 63.5007L15.5015 53.6766C12.2691 52.2913 12.2691 47.7088 15.5015 46.3235L19.7561 44.5L15.5015 42.6766C12.269 41.2913 12.269 36.7088 15.5015 35.3235L19.7561 33.5001L15.5015 31.6767C12.2691 30.2913 12.2691 25.7088 15.5015 24.3235L38.4243 14.4994ZM24.1987 35.948L17.0771 39L40 48.8241L62.9228 39L55.8013 35.948L41.7726 41.9602C40.6407 42.4454 39.3593 42.4454 38.2273 41.9602L24.1987 35.948ZM24.1987 46.948L17.0772 50L40 59.8241L62.9228 50L55.8013 46.948L41.7726 52.9603C40.6407 53.4454 39.3593 53.4454 38.2274 52.9603L24.1987 46.948ZM62.9228 28.0001L40 18.176L17.0772 28.0001L40 37.8242L62.9228 28.0001Z" stroke="currentColor" stroke-linecap="round" stroke-linejoin="round" />
</svg>