<svg viewBox="0 0 80 80" fill="none">
  <path fill-rule="evenodd" clip-rule="evenodd" d="M40 2C33.9234 2 27.8994 3.12608 22.2332 5.3212C21.1902 5.72524 20.1627 6.16422 19.1522 6.63712C18.4492 6.96616 18 7.6723 18 8.44855V29.9159C18 30.6921 18.4492 31.3983 19.1522 31.7273C20.1627 32.2002 21.1902 32.6392 22.2332 33.0432C25.8385 34.44 29.5887 35.4039 33.4051 35.9203L32.2117 69.9337C32.057 74.3422 35.5888 78.0001 40 78.0001C44.4112 78.0001 47.9431 74.3422 47.7884 69.9337L46.5949 35.9203C50.4113 35.4039 54.1615 34.44 57.7668 33.0432C58.8098 32.6392 59.8373 32.2002 60.8478 31.7273C61.5508 31.3983 62 30.6921 62 29.9159V8.44855C62 7.6723 61.5508 6.96616 60.8478 6.63712C59.8373 6.16422 58.8098 5.72524 57.7668 5.32119C52.1006 3.12608 46.0766 2 40 2ZM23.6781 9.05108C28.8835 7.03449 34.4176 6 40 6C45.5824 6 51.1164 7.03449 56.3219 9.05108C56.8863 9.26973 57.4458 9.49952 58 9.74025V28.6242C57.4458 28.8649 56.8863 29.0947 56.3219 29.3134C51.1164 31.3299 45.5824 32.3644 40 32.3644C34.4176 32.3644 28.8835 31.3299 23.6781 29.3134C23.1137 29.0947 22.5542 28.8649 22 28.6242V9.74025C22.5542 9.49952 23.1137 9.26974 23.6781 9.05108ZM36.2092 70.074L37.3944 36.2955C38.2613 36.3415 39.1301 36.3646 40 36.3646C40.8699 36.3646 41.7388 36.3415 42.6057 36.2955L43.7909 70.074C43.8661 72.2197 42.1471 74.0001 40 74.0001C37.853 74.0001 36.1339 72.2197 36.2092 70.074Z" stroke="currentColor" stroke-linecap="round" stroke-linejoin="round" />
</svg>