<svg viewBox="0 0 80 80" fill="none">
  <path fill-rule="evenodd" clip-rule="evenodd" d="M50.7337 28.6869C49.9881 25.4204 47.7956 22.6712 44.7769 21.2174C41.7582 19.7637 38.2418 19.7637 35.2231 21.2174C32.2044 22.6712 30.0119 25.4204 29.2663 28.6869C28.5208 31.9534 29.3033 35.3817 31.3923 38.0012C33.4813 40.6208 36.6495 42.1465 40 42.1465C43.3505 42.1465 46.5187 40.6208 48.6077 38.0012C50.6967 35.3817 51.4792 31.9534 50.7337 28.6869ZM36.9586 24.8213C38.8806 23.8957 41.1194 23.8957 43.0414 24.8213C44.9634 25.7469 46.3593 27.4973 46.8339 29.577C47.3086 31.6567 46.8104 33.8395 45.4804 35.5073C44.1504 37.1751 42.1332 38.1465 40 38.1465C37.8668 38.1465 35.8496 37.1751 34.5196 35.5073C33.1896 33.8395 32.6914 31.6567 33.1661 29.577C33.6407 27.4973 35.0366 25.7469 36.9586 24.8213Z" stroke="currentColor" stroke-linecap="round" stroke-linejoin="round" />
  <path fill-rule="evenodd" clip-rule="evenodd" d="M40 10.0176C27.8497 10.0176 18 19.8673 18 32.0176V33.2222C18 38.0586 19.5112 42.7741 22.3223 46.7097L38.333 69.1247C39.15 70.2686 40.85 70.2686 41.667 69.1247L57.6777 46.7097C60.4888 42.7741 62 38.0586 62 33.2222V32.0176C62 19.8673 52.1503 10.0176 40 10.0176ZM22 32.0176C22 22.0765 30.0589 14.0176 40 14.0176C49.9411 14.0176 58 22.0765 58 32.0176V33.2222C58 37.2249 56.7493 41.1276 54.4228 44.3847L40 64.5766L25.5772 44.3847C23.2507 41.1276 22 37.2249 22 33.2222V32.0176Z" stroke="currentColor" stroke-linecap="round" stroke-linejoin="round" />
</svg>