<svg viewBox="0 0 80 80" fill="none">
  <path d="M50.8922 21.3504C51.8444 21.9101 52.1626 23.1358 51.6029 24.0881L31.7039 57.9397C31.1441 58.8919 29.9184 59.2101 28.9662 58.6503C28.014 58.0906 27.6958 56.8649 28.2555 55.9127L48.1545 22.061C48.7143 21.1088 49.94 20.7906 50.8922 21.3504Z" stroke="currentColor" stroke-linecap="round" stroke-linejoin="round" />
  <path fill-rule="evenodd" clip-rule="evenodd" d="M28.064 34.2874C25.3185 31.6926 25.3185 27.4856 28.064 24.8908C30.8096 22.296 35.261 22.296 38.0065 24.8908C40.752 27.4856 40.752 31.6926 38.0065 34.2874C35.261 36.8822 30.8096 36.8822 28.064 34.2874ZM30.9711 27.6383C29.8312 28.7157 29.8312 30.4625 30.9711 31.5399C32.1111 32.6173 33.9594 32.6173 35.0994 31.5399C36.2394 30.4625 36.2394 28.7157 35.0994 27.6383C33.9594 26.5609 32.1111 26.5609 30.9711 27.6383Z" stroke="currentColor" stroke-linecap="round" stroke-linejoin="round" />
  <path fill-rule="evenodd" clip-rule="evenodd" d="M41.9933 45.712C39.2478 48.3067 39.2478 52.5137 41.9933 55.1085C44.7389 57.7033 49.1903 57.7033 51.9358 55.1085C54.6813 52.5137 54.6813 48.3067 51.9358 45.712C49.1903 43.1172 44.7389 43.1172 41.9933 45.712ZM44.9004 52.361C43.7604 51.2836 43.7604 49.5368 44.9004 48.4594C46.0404 47.3821 47.8887 47.3821 49.0287 48.4594C50.1687 49.5368 50.1687 51.2836 49.0287 52.361C47.8887 53.4384 46.0404 53.4384 44.9004 52.361Z" stroke="currentColor" stroke-linecap="round" stroke-linejoin="round" />
</svg>