<svg viewBox="0 0 80 80" fill="none">
  <path d="M29 22C27.8954 22 27 22.8954 27 24C27 25.1046 27.8954 26 29 26H53C54.1046 26 55 25.1046 55 24C55 22.8954 54.1046 22 53 22H29Z" stroke="currentColor" stroke-linecap="round" stroke-linejoin="round" />
  <path d="M27 40C27 38.8954 27.8954 38 29 38H53C54.1046 38 55 38.8954 55 40C55 41.1046 54.1046 42 53 42H29C27.8954 42 27 41.1046 27 40Z" stroke="currentColor" stroke-linecap="round" stroke-linejoin="round" />
  <path d="M29 54C27.8954 54 27 54.8954 27 56C27 57.1046 27.8954 58 29 58H53C54.1046 58 55 57.1046 55 56C55 54.8954 54.1046 54 53 54H29Z" stroke="currentColor" stroke-linecap="round" stroke-linejoin="round" />
  <path d="M27 32C27 30.8954 27.8954 30 29 30H45C46.1046 30 47 30.8954 47 32C47 33.1046 46.1046 34 45 34H29C27.8954 34 27 33.1046 27 32Z" stroke="currentColor" stroke-linecap="round" stroke-linejoin="round" />
  <path d="M29 46C27.8954 46 27 46.8954 27 48C27 49.1046 27.8954 50 29 50H45C46.1046 50 47 49.1046 47 48C47 46.8954 46.1046 46 45 46H29Z" stroke="currentColor" stroke-linecap="round" stroke-linejoin="round" />
  <path fill-rule="evenodd" clip-rule="evenodd" d="M23 10C19.6863 10 17 12.6863 17 16V18C15.8954 18 15 18.8954 15 20C15 21.1046 15.8954 22 17 22V26C15.8954 26 15 26.8954 15 28C15 29.1046 15.8954 30 17 30V34C15.8954 34 15 34.8954 15 36C15 37.1046 15.8954 38 17 38V42C15.8954 42 15 42.8954 15 44C15 45.1046 15.8954 46 17 46V50C15.8954 50 15 50.8954 15 52C15 53.1046 15.8954 54 17 54V58C15.8954 58 15 58.8954 15 60C15 61.1046 15.8954 62 17 62V64C17 67.3137 19.6863 70 23 70H59C62.3137 70 65 67.3137 65 64V16C65 12.6863 62.3137 10 59 10H23ZM21 46V50C22.1046 50 23 50.8954 23 52C23 53.1046 22.1046 54 21 54V58C22.1046 58 23 58.8954 23 60C23 61.1046 22.1046 62 21 62V64C21 65.1046 21.8954 66 23 66H59C60.1046 66 61 65.1046 61 64V16C61 14.8954 60.1046 14 59 14H23C21.8954 14 21 14.8954 21 16V18C22.1046 18 23 18.8954 23 20C23 21.1046 22.1046 22 21 22V26C22.1046 26 23 26.8954 23 28C23 29.1046 22.1046 30 21 30V34C22.1046 34 23 34.8954 23 36C23 37.1046 22.1046 38 21 38V42C22.1046 42 23 42.8954 23 44C23 45.1046 22.1046 46 21 46Z" stroke="currentColor" stroke-linecap="round" stroke-linejoin="round" />
</svg>