<svg viewBox="0 0 80 80" fill="none">
  <path d="M36.9948 18.4758C33.8883 18.4762 30.781 19.2801 27.9972 20.8873L27.5456 21.148C21.9764 24.3634 18.5456 30.3057 18.5456 36.7364V36.9962C18.5456 38.1008 19.4411 38.9962 20.5456 38.9962C21.6502 38.9962 22.5456 38.1008 22.5456 36.9962V36.7364C22.5456 31.7347 25.214 27.113 29.5456 24.6121L29.9972 24.3514C32.1625 23.1013 34.5784 22.4761 36.9953 22.4758C38.0999 22.4756 38.9952 21.5801 38.995 20.4755C38.9949 19.3709 38.0993 18.4756 36.9948 18.4758Z" stroke="currentColor" stroke-linecap="round" stroke-linejoin="round" />
  <path fill-rule="evenodd" clip-rule="evenodd" d="M11.6457 30.2064C14.0729 21.1482 21.1482 14.0729 30.2064 11.6457C39.2646 9.21859 48.9296 11.8083 55.5607 18.4394C62.1918 25.0705 64.7815 34.7355 62.3543 43.7937C61.3415 47.5737 59.5192 51.0084 57.0812 53.9042L68.1964 65.0193C68.9774 65.8004 68.9774 67.0667 68.1964 67.8478C67.4153 68.6288 66.149 68.6288 65.3679 67.8478L54.2793 56.7592C51.3069 59.359 47.7383 61.2974 43.7937 62.3544C34.7355 64.7815 25.0705 62.1918 18.4394 55.5607C11.8083 48.9296 9.21859 39.2646 11.6457 30.2064ZM31.2416 15.5094C23.5638 17.5667 17.5667 23.5638 15.5094 31.2417C13.4522 38.9195 15.6472 47.1117 21.2678 52.7323C26.8884 58.3528 35.0806 60.5479 42.7584 58.4907C50.4363 56.4334 56.4334 50.4363 58.4906 42.7584C60.5479 35.0806 58.3528 26.8884 52.7323 21.2678C47.1117 15.6472 38.9195 13.4522 31.2416 15.5094Z" stroke="currentColor" stroke-linecap="round" stroke-linejoin="round" />
</svg>