<svg viewBox="0 0 80 80" fill="none">
  <path d="M30.957 12.3964L30.8276 11.9135L30.8276 11.9135L30.957 12.3964ZM12.3964 30.9571L12.8794 31.0865L12.3964 30.9571ZM56.3113 19.1901L56.6649 18.8365L56.6649 18.8365L56.3113 19.1901ZM63.105 44.5444L63.588 44.6738L63.588 44.6738L63.105 44.5444ZM57.8318 54.6549L57.4493 54.3328C57.2822 54.5314 57.2947 54.8249 57.4783 55.0084L57.8318 54.6549ZM68.947 65.77L69.3006 65.4165L69.3006 65.4165L68.947 65.77ZM68.947 68.5985L69.3006 68.952L69.3006 68.952L68.947 68.5985ZM66.1186 68.5985L66.4721 68.2449L66.4721 68.2449L66.1186 68.5985ZM55.03 57.5099L55.3836 57.1563C55.1975 56.9702 54.8989 56.9603 54.7008 57.1335L55.03 57.5099ZM44.5444 63.105L44.415 62.6221L44.415 62.6221L44.5444 63.105ZM19.1901 56.3114L18.8365 56.6649L18.8365 56.6649L19.1901 56.3114ZM16.2601 31.9923L16.7431 32.1218L16.7431 32.1218L16.2601 31.9923ZM31.9923 16.2601L31.8629 15.7772L31.8629 15.7772L31.9923 16.2601ZM22.0185 53.4829L22.372 53.1294L22.372 53.1294L22.0185 53.4829ZM43.5091 59.2413L43.6385 59.7243L43.6385 59.7243L43.5091 59.2413ZM59.2413 43.5091L59.7243 43.6385L59.7243 43.6385L59.2413 43.5091ZM53.4829 22.0185L53.8365 21.665L53.8365 21.665L53.4829 22.0185ZM28.7478 21.638L28.9978 22.071L28.9978 22.071L28.7478 21.638ZM37.7454 19.2265L37.7454 18.7265L37.7454 18.7265L37.7454 19.2265ZM28.2963 21.8987L28.0463 21.4657L28.0463 21.4657L28.2963 21.8987ZM30.2963 25.3628L30.0463 24.9298L30.0463 24.9298L30.2963 25.3628ZM30.7478 25.1021L30.9978 25.5351L30.9978 25.5351L30.7478 25.1021ZM37.746 23.2265L37.746 23.7265L37.746 23.7265L37.746 23.2265ZM39.7457 21.2262L40.2457 21.2261L39.7457 21.2262ZM30.8276 11.9135C21.5969 14.3868 14.3868 21.5969 11.9134 30.8277L12.8794 31.0865C15.2603 22.2008 22.2008 15.2603 31.0864 12.8794L30.8276 11.9135ZM56.6649 18.8365C49.9075 12.0791 40.0584 9.44008 30.8276 11.9135L31.0864 12.8794C39.9721 10.4985 49.453 13.0389 55.9578 19.5436L56.6649 18.8365ZM63.588 44.6738C66.0614 35.443 63.4223 25.5939 56.6649 18.8365L55.9578 19.5436C62.4626 26.0484 65.003 35.5293 62.6221 44.415L63.588 44.6738ZM58.2143 54.9769C60.6988 52.026 62.5558 48.5258 63.588 44.6738L62.6221 44.415C61.6285 48.1231 59.8409 51.4923 57.4493 54.3328L58.2143 54.9769ZM69.3006 65.4165L58.1854 54.3013L57.4783 55.0084L68.5935 66.1236L69.3006 65.4165ZM69.3006 68.952C70.2769 67.9757 70.2769 66.3928 69.3006 65.4165L68.5935 66.1236C69.1793 66.7094 69.1793 67.6591 68.5935 68.2449L69.3006 68.952ZM65.765 68.952C66.7414 69.9283 68.3243 69.9283 69.3006 68.952L68.5935 68.2449C68.0077 68.8307 67.0579 68.8307 66.4721 68.2449L65.765 68.952ZM54.6765 57.8634L65.765 68.952L66.4721 68.2449L55.3836 57.1563L54.6765 57.8634ZM44.6738 63.588C48.6935 62.5109 52.3301 60.5355 55.3592 57.8862L54.7008 57.1335C51.785 59.6838 48.2845 61.5852 44.415 62.6221L44.6738 63.588ZM18.8365 56.6649C25.5939 63.4223 35.443 66.0614 44.6738 63.588L44.415 62.6221C35.5293 65.003 26.0484 62.4626 19.5436 55.9578L18.8365 56.6649ZM11.9134 30.8277C9.44006 40.0584 12.0791 49.9075 18.8365 56.6649L19.5436 55.9578C13.0389 49.4531 10.4985 39.9722 12.8794 31.0865L11.9134 30.8277ZM16.7431 32.1218C18.7541 24.6164 24.6164 18.7541 32.1217 16.7431L31.8629 15.7772C24.0125 17.8807 17.8806 24.0125 15.7771 31.8629L16.7431 32.1218ZM22.372 53.1294C16.8778 47.6351 14.732 39.6271 16.7431 32.1218L15.7771 31.8629C13.6736 39.7133 15.918 48.0896 21.6649 53.8365L22.372 53.1294ZM43.3797 58.7584C35.8744 60.7694 27.8663 58.6237 22.372 53.1294L21.6649 53.8365C27.4118 59.5834 35.7881 61.8278 43.6385 59.7243L43.3797 58.7584ZM58.7583 43.3797C56.7473 50.885 50.885 56.7473 43.3797 58.7584L43.6385 59.7243C51.4889 57.6208 57.6208 51.4889 59.7243 43.6385L58.7583 43.3797ZM53.1294 22.3721C58.6236 27.8663 60.7694 35.8744 58.7583 43.3797L59.7243 43.6385C61.8278 35.7881 59.5834 27.4119 53.8365 21.665L53.1294 22.3721ZM32.1217 16.7431C39.627 14.7321 47.6351 16.8778 53.1294 22.3721L53.8365 21.665C48.0896 15.9181 39.7133 13.6737 31.8629 15.7772L32.1217 16.7431ZM28.9978 22.071C31.7043 20.5084 34.7252 19.7269 37.7455 19.7265L37.7454 18.7265C34.5527 18.7269 31.359 19.5531 28.4978 21.205L28.9978 22.071ZM28.5463 22.3317L28.9978 22.071L28.4978 21.205L28.0463 21.4657L28.5463 22.3317ZM19.7963 37.4871C19.7963 31.235 23.1318 25.4578 28.5463 22.3317L28.0463 21.4657C22.3224 24.7704 18.7963 30.8777 18.7963 37.4871H19.7963ZM19.7963 37.7469V37.4871H18.7963V37.7469H19.7963ZM21.2963 39.2469C20.4679 39.2469 19.7963 38.5753 19.7963 37.7469H18.7963C18.7963 39.1276 19.9156 40.2469 21.2963 40.2469V39.2469ZM22.7963 37.7469C22.7963 38.5753 22.1247 39.2469 21.2963 39.2469V40.2469C22.677 40.2469 23.7963 39.1276 23.7963 37.7469H22.7963ZM22.7963 37.4871V37.7469H23.7963V37.4871H22.7963ZM30.0463 24.9298C25.56 27.52 22.7963 32.3068 22.7963 37.4871H23.7963C23.7963 32.6641 26.3694 28.2073 30.5463 25.7958L30.0463 24.9298ZM30.4978 24.6691L30.0463 24.9298L30.5463 25.7958L30.9978 25.5351L30.4978 24.6691ZM37.7459 22.7265C35.2428 22.7268 32.7404 23.3743 30.4978 24.6691L30.9978 25.5351C33.0858 24.3296 35.4154 23.7268 37.746 23.7265L37.7459 22.7265ZM39.2457 21.2263C39.2458 22.0547 38.5743 22.7264 37.7459 22.7265L37.746 23.7265C39.1268 23.7263 40.2459 22.6068 40.2457 21.2261L39.2457 21.2263ZM37.7455 19.7265C38.5739 19.7264 39.2456 20.3978 39.2457 21.2263L40.2457 21.2261C40.2455 19.8454 39.1261 18.7263 37.7454 18.7265L37.7455 19.7265Z" fill="currentColor" />
</svg>