<svg viewBox="0 0 80 80" fill="none">
  <path fill-rule="evenodd" clip-rule="evenodd" d="M7 6C5.89543 6 5 6.89543 5 8C5 9.10457 5.89543 10 7 10H13.3134L25.0303 53.5199C25.2654 54.3932 26.0572 55 26.9616 55H62C63.1046 55 64 54.1046 64 53C64 51.8954 63.1046 51 62 51H28.4943L27.1481 45.9998H65.4615C66.3659 45.9998 67.1577 45.3929 67.3928 44.5197L74.9312 16.5197C75.093 15.9189 74.9659 15.277 74.5874 14.7832C74.209 14.2893 73.6222 13.9998 73 13.9998H18.5327L16.7774 7.48005C16.5423 6.60682 15.7505 6 14.8462 6H7ZM19.6097 17.9998L26.0712 41.9998H63.9288L70.3903 17.9998H19.6097Z" stroke="currentColor" stroke-linecap="round" stroke-linejoin="round" />
  <path fill-rule="evenodd" clip-rule="evenodd" d="M27.4019 59.7679C29.6284 58.4825 32.3716 58.4825 34.5981 59.7679C36.8246 61.0534 38.1962 63.4291 38.1962 66C38.1962 68.5709 36.8246 70.9466 34.5981 72.232C32.3716 73.5175 29.6284 73.5175 27.4019 72.232C25.1754 70.9466 23.8038 68.5709 23.8038 66C23.8038 63.4291 25.1754 61.0534 27.4019 59.7679ZM32.5981 63.2321C31.6092 62.6611 30.3908 62.6611 29.4019 63.2321C28.413 63.803 27.8038 64.8581 27.8038 66C27.8038 67.1419 28.413 68.197 29.4019 68.7679C30.3908 69.3389 31.6092 69.3389 32.5981 68.7679C33.587 68.197 34.1962 67.1419 34.1962 66C34.1962 64.8581 33.587 63.803 32.5981 63.2321Z" stroke="currentColor" stroke-linecap="round" stroke-linejoin="round" />
  <path fill-rule="evenodd" clip-rule="evenodd" d="M60.5981 59.7679C58.3716 58.4825 55.6284 58.4825 53.4019 59.7679C51.1754 61.0534 49.8038 63.4291 49.8038 66C49.8038 68.5709 51.1754 70.9466 53.4019 72.232C55.6284 73.5175 58.3716 73.5175 60.5981 72.232C62.8246 70.9466 64.1962 68.5709 64.1962 66C64.1962 63.4291 62.8246 61.0534 60.5981 59.7679ZM55.4019 63.2321C56.3908 62.6611 57.6092 62.6611 58.5981 63.2321C59.587 63.803 60.1962 64.8581 60.1962 66C60.1962 67.1419 59.587 68.197 58.5981 68.7679C57.6092 69.3389 56.3908 69.3389 55.4019 68.7679C54.413 68.197 53.8038 67.1419 53.8038 66C53.8038 64.8581 54.413 63.803 55.4019 63.2321Z" stroke="currentColor" stroke-linecap="round" stroke-linejoin="round" />
</svg>