<svg viewBox="0 0 80 80" fill="none">
  <path fill-rule="evenodd" clip-rule="evenodd" d="M9 11C7.89543 11 7 11.8954 7 13C7 14.1046 7.89543 15 9 15H15.4384L26.501 59.2503C26.1243 59.3898 25.7566 59.562 25.4019 59.7667C23.1754 61.0522 21.8038 63.4278 21.8038 65.9988C21.8038 68.5697 23.1754 70.9454 25.4019 72.2308C27.6284 73.5163 30.3716 73.5163 32.5981 72.2308C34.8246 70.9454 36.1962 68.5697 36.1962 65.9988C36.1962 64.9459 35.9661 63.9259 35.5416 63H55.4584C55.0339 63.9259 54.8038 64.9459 54.8038 65.9988C54.8038 68.5697 56.1754 70.9454 58.4019 72.2308C60.6284 73.5163 63.3716 73.5163 65.5981 72.2308C67.8246 70.9454 69.1962 68.5697 69.1962 65.9988C69.1962 63.4278 67.8246 61.0522 65.5981 59.7667C63.9811 58.8332 62.0917 58.5776 60.3255 59H30.6745C30.6346 58.9905 30.5947 58.9813 30.5547 58.9724L28.5615 50.9998H64C64.9177 50.9998 65.7177 50.3752 65.9403 49.4848L72.9403 21.4848C73.0897 20.8873 72.9554 20.2544 72.5764 19.7689C72.1974 19.2835 71.6159 18.9998 71 18.9998H20.5615L18.9403 12.5149C18.7177 11.6246 17.9177 11 17 11H9ZM61.0954 62.9332C61.1172 62.9275 61.1388 62.9213 61.1603 62.9148C61.9718 62.6939 62.8505 62.7992 63.5981 63.2308C64.587 63.8018 65.1962 64.8569 65.1962 65.9988C65.1962 67.1407 64.587 68.1958 63.5981 68.7667C62.6092 69.3377 61.3908 69.3377 60.4019 68.7667C59.413 68.1958 58.8038 67.1407 58.8038 65.9988C58.8038 64.8569 59.413 63.8018 60.4019 63.2308C60.6233 63.103 60.8562 63.0038 61.0954 62.9332ZM27.4019 63.2308C27.877 62.9565 28.4051 62.814 28.9352 62.8033C28.9574 62.8034 28.9797 62.8032 29.0021 62.8026C29.2839 62.8028 29.5656 62.8402 29.8397 62.9148C29.8612 62.9213 29.8829 62.9275 29.9047 62.9333C30.1439 63.0038 30.3767 63.103 30.5981 63.2308C31.587 63.8018 32.1962 64.8569 32.1962 65.9988C32.1962 67.1407 31.587 68.1958 30.5981 68.7667C29.6092 69.3377 28.3908 69.3377 27.4019 68.7667C26.413 68.1958 25.8038 67.1407 25.8038 65.9988C25.8038 64.8569 26.413 63.8018 27.4019 63.2308ZM27.5616 46.9998L21.5616 22.9998H68.4384L62.4384 46.9998H27.5616Z" stroke="currentColor" stroke-linecap="round" stroke-linejoin="round" />
</svg>