<svg viewBox="0 0 80 80" fill="none">
  <path fill-rule="evenodd" clip-rule="evenodd" d="M41.2378 6.91357L43.4557 7.14697C49.6585 7.79972 55.3497 10.1709 60.042 13.7729L61.8576 15.1668L54.7251 22.2445L53.351 21.2592C50.3579 19.113 46.831 17.6687 43.0078 17.1637L41.2765 16.935L41.2378 6.91357ZM45.2553 11.4455L45.2632 13.4845C48.5139 14.1316 51.5541 15.3622 54.2694 17.0615L55.7253 15.6168C52.598 13.5879 49.0565 12.146 45.2553 11.4455Z" stroke="currentColor" />
  <path fill-rule="evenodd" clip-rule="evenodd" d="M37.7459 6.95769L37.7071 17.0119L36.0513 17.2955C32.3513 17.9292 28.9523 19.4473 26.0788 21.627L24.6946 22.6769L17.5783 15.6153L19.3252 14.2135C23.8711 10.5656 29.407 8.09467 35.4669 7.26843L37.7459 6.95769ZM23.6377 15.993L25.086 17.4302C27.6834 15.712 30.5965 14.4302 33.7199 13.6904L33.7278 11.6361C30.0563 12.4404 26.6447 13.9408 23.6377 15.993Z" stroke="currentColor" />
  <path fill-rule="evenodd" clip-rule="evenodd" d="M64.3456 17.6134L65.747 19.3652C69.4859 24.0393 71.9821 29.7557 72.7295 36.0097L72.9979 38.2558L62.9629 38.217L62.7083 36.5204C62.1282 32.6536 60.585 29.1014 58.3283 26.1142L57.2831 24.7307L64.3456 17.6134ZM62.5252 25.1268C64.3228 27.8551 65.6397 30.93 66.3536 34.2301L68.3993 34.238C67.6286 30.3885 66.0955 26.814 63.9628 23.678L62.5252 25.1268Z" stroke="currentColor" />
  <path fill-rule="evenodd" clip-rule="evenodd" d="M15.1314 18.1104L22.2106 25.2444L21.2304 26.6176C19.1754 29.4963 17.7688 32.8663 17.2205 36.5169L16.9658 38.2133L6.93066 38.252L7.19938 36.0057C7.91736 30.0038 10.2461 24.4969 13.7383 19.9316L15.1314 18.1104ZM15.5873 24.2486C13.6519 27.244 12.2544 30.6176 11.5298 34.2342L13.5756 34.2263C14.2397 31.1589 15.4247 28.2859 17.0326 25.7051L15.5873 24.2486Z" stroke="currentColor" />
  <path fill-rule="evenodd" clip-rule="evenodd" d="M72.9946 41.7439L72.7203 43.9946C71.9596 50.2378 69.4558 55.9424 65.7134 60.6053L64.3116 62.352L57.25 55.2357L58.3002 53.8515C60.5595 50.8735 62.1083 47.331 62.6984 43.4737L62.9571 41.7828L72.9946 41.7439ZM66.3381 45.7697C65.6169 49.06 64.2961 52.1253 62.497 54.8445L63.9341 56.2928C66.0685 53.1659 67.6062 49.6014 68.385 45.7618L66.3381 45.7697Z" stroke="currentColor" />
  <path fill-rule="evenodd" clip-rule="evenodd" d="M6.93399 41.7477L16.9716 41.7865L17.2305 43.4771C17.7881 47.1186 19.2002 50.4791 21.2576 53.349L22.2426 54.723L15.1648 61.8557L13.771 60.0397C10.2754 55.4853 7.93927 49.9899 7.20853 43.9986L6.93399 41.7477ZM11.5442 45.7656C12.2762 49.3725 13.678 52.7366 15.6151 55.723L17.0598 54.2671C15.4506 51.6951 14.2618 48.8315 13.5911 45.7735L11.5442 45.7656Z" stroke="currentColor" />
  <path fill-rule="evenodd" clip-rule="evenodd" d="M24.7327 57.285L26.1162 58.33C28.9818 60.4944 32.3673 62.0021 36.0511 62.6331L37.7069 62.9167L37.7458 72.9709L35.4667 72.6601C29.4256 71.8364 23.9053 69.3783 19.3674 65.7489L17.6153 64.3476L24.7327 57.285ZM25.129 62.5269L23.6802 63.9645C26.6768 66.0019 30.0735 67.4919 33.7277 68.2925L33.7197 66.2381C30.6136 65.5025 27.7155 64.2307 25.129 62.5269Z" stroke="currentColor" />
  <path fill-rule="evenodd" clip-rule="evenodd" d="M54.6859 57.7164L61.8199 64.7955L59.9989 66.1886C55.315 69.7722 49.6397 72.1308 43.4558 72.7816L41.2379 73.015L41.2767 62.9936L43.008 62.7649C46.8148 62.262 50.3279 60.8279 53.3127 58.6968L54.6859 57.7164ZM45.2634 66.4441L45.2555 68.4831C49.039 67.7858 52.5653 66.354 55.6819 64.3399L54.2254 62.8946C51.5214 64.5797 48.4964 65.8004 45.2634 66.4441Z" stroke="currentColor" />
</svg>