<svg viewBox="0 0 80 80" fill="none">
  <path fill-rule="evenodd" clip-rule="evenodd" d="M42.5982 12.5C41.4435 10.5 38.5568 10.5 37.4021 12.5L30.7625 24H17.4835C15.1741 24 13.7307 26.5 14.8854 28.5L21.5249 40L14.8854 51.5C13.7307 53.5 15.1741 56 17.4835 56H30.7625L37.4021 67.5C38.5568 69.5 41.4435 69.5 42.5982 67.5L49.2377 56H62.5168C64.8262 56 66.2696 53.5 65.1149 51.5L58.4753 40L65.1149 28.5C66.2696 26.5 64.8262 24 62.5168 24H49.2377L42.5982 12.5ZM44.6189 24L40.0001 16L35.3813 24H44.6189ZM33.0719 28H46.9283L53.8565 40L46.9283 52H33.0719L26.1437 40L33.0719 28ZM28.4531 28H19.2155L23.8343 36L28.4531 28ZM23.8343 44L19.2155 52H28.4531L23.8343 44ZM35.3813 56L40.0001 64L44.6189 56H35.3813ZM51.5471 52H60.7848L56.1659 44L51.5471 52ZM56.1659 36L51.5471 28H60.7848L56.1659 36Z" stroke="currentColor" stroke-linecap="round" stroke-linejoin="round" />
</svg>