<svg viewBox="0 0 80 80" fill="none">
  <path fill-rule="evenodd" clip-rule="evenodd" d="M40 70C47.9563 70 55.5873 66.8394 61.2134 61.2134C66.8394 55.5874 70 47.9568 70 40.0004C70 32.0439 66.839 24.4129 61.2129 18.7868C55.587 13.1609 47.9563 10 40 10C32.0437 10 24.413 13.1609 18.7871 18.7868C13.161 24.4129 10 32.0439 10 40.0004C10 47.9568 13.1606 55.5874 18.7866 61.2134C24.4127 66.8394 32.0437 70 40 70ZM42 14.077V65.923C48.1639 65.4477 53.9827 62.7872 58.3849 58.3849C63.2608 53.5091 66 46.8959 66 40.0004C66 33.1048 63.2605 26.4912 58.3845 21.6153C53.9823 17.2131 48.1637 14.5523 42 14.077ZM38 65.923V14.077C31.8363 14.5523 26.0177 17.2131 21.6155 21.6153C16.7395 26.4912 14 33.1048 14 40.0004C14 46.8959 16.7392 53.5091 21.6151 58.3849C26.0173 62.7872 31.8361 65.4477 38 65.923Z" stroke="currentColor" stroke-linecap="round" stroke-linejoin="round" />
</svg>