<svg viewBox="0 0 80 80" fill="none">
  <path fill-rule="evenodd" clip-rule="evenodd" d="M38.5916 15.7138C39.4119 15.374 40.3335 15.374 41.1538 15.7138C41.9741 16.0536 42.6258 16.7053 42.9656 17.5256C43.3054 18.3459 43.3054 19.2676 42.9656 20.0879C42.6258 20.9082 41.9741 21.5599 41.1538 21.8997C40.3335 22.2394 39.4119 22.2394 38.5916 21.8997C37.7713 21.5599 37.1195 20.9082 36.7798 20.0879C36.44 19.2676 36.44 18.3459 36.7798 17.5256C37.1195 16.7053 37.7713 16.0536 38.5916 15.7138ZM40.0058 18.4855C39.9206 18.4502 39.8248 18.4502 39.7396 18.4855C39.6544 18.5208 39.5867 18.5885 39.5514 18.6737C39.5161 18.7589 39.5161 18.8546 39.5514 18.9398C39.5867 19.025 39.6544 19.0927 39.7396 19.128C39.8248 19.1633 39.9206 19.1633 40.0058 19.128C40.091 19.0927 40.1587 19.025 40.194 18.9398C40.2293 18.8546 40.2293 18.7589 40.194 18.6737C40.1587 18.5885 40.091 18.5208 40.0058 18.4855Z" stroke="currentColor" stroke-linecap="round" stroke-linejoin="round" />
  <path d="M44.123 19.0294C44.3314 18.2276 45.1502 17.7464 45.952 17.9547C47.0046 18.2282 48.0429 18.5754 49.0591 18.9963C54.8596 21.399 59.4682 26.0075 61.8709 31.8081C64.2735 37.6087 64.2735 44.1262 61.8709 49.9267C59.4682 55.7273 54.8596 60.3358 49.0591 62.7385C43.2585 65.1412 36.741 65.1412 30.9405 62.7385C25.1399 60.3358 20.5313 55.7273 18.1287 49.9267C15.726 44.1262 15.726 37.6087 18.1287 31.8081L18.3945 31.1665C18.7941 30.2016 19.2595 29.2722 19.7852 28.3837C20.207 27.6707 21.1269 27.4346 21.8399 27.8564C22.5529 28.2783 22.7889 29.1982 22.3671 29.9112C21.9132 30.6785 21.5113 31.4811 21.1661 32.3145L20.9003 32.9562C18.8021 38.0217 18.8021 43.7132 20.9003 48.7787C22.9985 53.8442 27.023 57.8687 32.0885 59.9669C37.154 62.0651 42.8455 62.0651 47.911 59.9669C52.9765 57.8687 57.001 53.8442 59.0992 48.7787C61.1974 43.7132 61.1974 38.0217 59.0992 32.9562C57.001 27.8907 52.9765 23.8662 47.911 21.768C47.0235 21.4003 46.1168 21.0971 45.1977 20.8584C44.3959 20.6501 43.9147 19.8312 44.123 19.0294Z" stroke="currentColor" stroke-linecap="round" stroke-linejoin="round" />
  <path fill-rule="evenodd" clip-rule="evenodd" d="M23.9975 22.7973C23.4019 22.2933 22.5195 22.33 21.9679 22.8817C21.4162 23.4333 21.3795 24.3157 21.8835 24.9112L36.8609 42.6119C37.5131 43.3826 38.4715 43.8271 39.4811 43.8271C41.3766 43.8271 42.9133 42.2904 42.9133 40.3949C42.9133 39.3853 42.4688 38.4269 41.6981 37.7747L23.9975 22.7973ZM39.1511 40.6741L35.8006 36.7144L39.7603 40.0649C39.8573 40.147 39.9133 40.2677 39.9133 40.3949C39.9133 40.6336 39.7198 40.8271 39.4811 40.8271C39.3539 40.8271 39.2332 40.7711 39.1511 40.6741Z" stroke="currentColor" stroke-linecap="round" stroke-linejoin="round" />
</svg>