<svg viewBox="0 0 80 80" fill="none">
  <path d="M33 28C34.1046 28 35 28.8955 35 30V58C35 59.1046 34.1046 60 33 60C31.8954 60 31 59.1046 31 58V30C31 28.8955 31.8954 28 33 28Z" stroke="currentColor" stroke-linecap="round" stroke-linejoin="round" />
  <path d="M49 30C49 28.8955 48.1046 28 47 28C45.8954 28 45 28.8955 45 30V58C45 59.1046 45.8954 60 47 60C48.1046 60 49 59.1046 49 58V30Z" stroke="currentColor" stroke-linecap="round" stroke-linejoin="round" />
  <path fill-rule="evenodd" clip-rule="evenodd" d="M33.9256 10.3865C33.317 10.3865 32.7415 10.6636 32.362 11.1395L26.8909 18H15C13.8954 18 13 18.8955 13 20C13 21.1046 13.8954 22 15 22H17V64C17 67.3137 19.6863 70 23 70H57C60.3137 70 63 67.3137 63 64V22H65C66.1046 22 67 21.1046 67 20C67 18.8955 66.1046 18 65 18H53.1091L47.638 11.1395C47.2585 10.6636 46.683 10.3865 46.0744 10.3865H33.9256ZM32.0082 17.9986L34.8888 14.3865H45.1112L47.9918 17.9986H32.0082ZM21 64V22H59V64C59 65.1046 58.1046 66 57 66H23C21.8954 66 21 65.1046 21 64Z" stroke="currentColor" stroke-linecap="round" stroke-linejoin="round" />
</svg>