<svg viewBox="0 0 80 80" fill="none">
  <path d="M28 16C28 14.8954 28.8954 14 30 14H40.8754C48.1239 14 54 19.8761 54 27.1246C54 32.0958 51.1913 36.6404 46.7449 38.8636L40.8944 41.7889C34.2176 45.1273 30 51.9515 30 59.4164V62H52C53.1046 62 54 62.8954 54 64C54 65.1046 53.1046 66 52 66H29C27.3431 66 26 64.6569 26 63V59.4164C26 50.4364 31.0736 42.2271 39.1056 38.2111L44.956 35.2859C48.0473 33.7403 50 30.5808 50 27.1246C50 22.0852 45.9148 18 40.8754 18H30C28.8954 18 28 17.1046 28 16Z" stroke="currentColor" stroke-linecap="round" stroke-linejoin="round" />
</svg>