<svg viewBox="0 0 80 80" fill="none">
  <path fill-rule="evenodd" clip-rule="evenodd" d="M41.2738 32.3168C40.4959 35.9907 38.1131 39.1229 34.7801 40.853C31.1563 42.7341 26.8437 42.7341 23.2199 40.853C19.8869 39.1229 17.5041 35.9907 16.7262 32.3168L16.5215 31.3503C15.7318 27.6206 16.5776 23.7313 18.8451 20.6665L19.1754 20.2201C21.48 17.1051 25.1252 15.2676 29 15.2676C32.8748 15.2676 36.52 17.1051 38.8246 20.2201L39.1549 20.6665C41.4224 23.7313 42.2682 27.6206 41.4785 31.3503L41.2738 32.3168ZM25.0628 37.3028C27.5312 38.5842 30.4688 38.5842 32.9372 37.3028C35.2076 36.1243 36.8307 33.9907 37.3606 31.4882L37.5652 30.5217C38.1179 27.9118 37.526 25.1902 35.9393 23.0455L35.609 22.5991C34.0587 20.5037 31.6066 19.2676 29 19.2676C26.3934 19.2676 23.9413 20.5037 22.391 22.5991L22.0607 23.0455C20.474 25.1902 19.8821 27.9118 20.4348 30.5217L20.6394 31.4882C21.1693 33.9907 22.7924 36.1243 25.0628 37.3028Z" stroke="currentColor" stroke-linecap="round" stroke-linejoin="round" />
  <path fill-rule="evenodd" clip-rule="evenodd" d="M49.7479 30.4429C51.4692 28.176 54.1516 26.8447 56.9979 26.8447C59.8442 26.8447 62.5267 28.176 64.248 30.4429L64.3958 30.6376C66.0924 32.872 66.7262 35.7369 66.1305 38.4785L66.0377 38.9055C65.446 41.6278 63.6591 43.9385 61.1731 45.1959C58.548 46.5236 55.4479 46.5236 52.8228 45.1959C50.3368 43.9385 48.5498 41.6278 47.9582 38.9055L47.8654 38.4785C47.2696 35.7369 47.9034 32.872 49.6 30.6376L49.7479 30.4429ZM56.9979 30.8447C55.4023 30.8447 53.8985 31.591 52.9336 32.8618L52.7857 33.0566C51.7963 34.3596 51.4267 36.0303 51.7742 37.629L51.867 38.056C52.2028 39.6012 53.2171 40.9128 54.6281 41.6264C56.1181 42.3801 57.8777 42.3801 59.3678 41.6264C60.7788 40.9128 61.7931 39.6012 62.1289 38.056L62.2217 37.629C62.5691 36.0303 62.1995 34.3596 61.2101 33.0566L61.0623 32.8618C60.0973 31.591 58.5936 30.8447 56.9979 30.8447Z" stroke="currentColor" stroke-linecap="round" stroke-linejoin="round" />
  <path fill-rule="evenodd" clip-rule="evenodd" d="M65.7248 48.2909C69.4944 49.682 71.9979 53.2745 71.9979 57.2925V57.8663C71.9979 60.1491 70.1474 61.9996 67.8646 61.9996H49.8609C49.3193 64.2932 47.259 66 44.8 66H13.2C10.3281 66 8 63.6719 8 60.8V59.5929C8 54.1916 11.3411 49.3534 16.3923 47.4403C24.5159 44.3636 33.4841 44.3636 41.6077 47.4403C43.0902 48.0018 44.4255 48.8153 45.5722 49.8211C46.3684 49.1793 47.2758 48.6582 48.2711 48.2909C53.9033 46.2124 60.0925 46.2124 65.7248 48.2909ZM46 60.8V60.0662C45.9993 60.0441 45.9989 60.0219 45.9989 59.9996V59.5926C45.9989 57.4877 45.2664 55.5068 44.0007 53.9396C43.991 53.9276 43.9815 53.9156 43.9721 53.9034C42.9941 52.7053 41.7032 51.7538 40.1909 51.181C32.9802 48.45 25.0198 48.45 17.8091 51.181C14.3127 52.5052 12 55.8541 12 59.5929V60.8C12 61.4627 12.5373 62 13.2 62H44.8C45.4627 62 46 61.4627 46 60.8ZM67.8646 57.9996H49.9024C49.6766 56.1668 49.0657 54.4306 48.1384 52.8908C48.5889 52.5371 49.0985 52.2492 49.6559 52.0435C54.3944 50.2949 59.6015 50.2949 64.34 52.0435C66.5381 52.8547 67.9979 54.9495 67.9979 57.2925V57.8663C67.9979 57.9399 67.9382 57.9996 67.8646 57.9996Z" stroke="currentColor" stroke-linecap="round" stroke-linejoin="round" />
</svg>