<svg viewBox="0 0 80 80" fill="none">
  <path fill-rule="evenodd" clip-rule="evenodd" d="M30.5 26.7766V16C30.5 12.9624 32.9625 10.5 36 10.5H44C47.0376 10.5 49.5 12.9624 49.5 16V26.7766C51.9429 28.5317 53.8729 30.945 55.0427 33.7691C56.6952 37.7587 56.6952 42.2413 55.0427 46.2309C53.8729 49.055 51.9429 51.4683 49.5 53.2234V64C49.5 67.0376 47.0376 69.5 44 69.5H36C32.9625 69.5 30.5 67.0376 30.5 64V53.2234C28.0571 51.4683 26.1271 49.055 24.9574 46.2309C23.3048 42.2413 23.3048 37.7587 24.9574 33.7691C26.1271 30.945 28.0571 28.5317 30.5 26.7766ZM33.5 16C33.5 14.6193 34.6193 13.5 36 13.5H44C45.3807 13.5 46.5 14.6193 46.5 16V25.0716C46.4107 25.0328 46.321 24.9947 46.2309 24.9573C45.7322 24.7508 45.2258 24.57 44.7136 24.4151C41.1284 23.3306 37.26 23.5114 33.7692 24.9573C33.7635 24.9597 33.7579 24.962 33.7523 24.9643C33.6678 24.9994 33.5837 25.0352 33.5 25.0716V16ZM32.8118 28.8311C30.5531 30.2848 28.7712 32.4011 27.729 34.9172C26.3809 38.1717 26.3809 41.8283 27.729 45.0828C28.7712 47.5989 30.5531 49.7152 32.8118 51.1689C33.4333 51.5689 34.0908 51.9187 34.7791 52.2129C34.825 52.2326 34.871 52.2519 34.9172 52.271C38.1717 53.6191 41.8284 53.6191 45.0829 52.271C45.8214 51.9651 46.5254 51.5956 47.1882 51.1689C49.447 49.7152 51.2289 47.5989 52.2711 45.0828C53.6191 41.8283 53.6191 38.1717 52.2711 34.9172C51.2289 32.4011 49.447 30.2848 47.1882 28.8311C46.5254 28.4045 45.8214 28.0349 45.0829 27.729C42.2352 26.5494 39.0796 26.402 36.1549 27.2866C35.7371 27.413 35.324 27.5605 34.9172 27.729C34.1787 28.0349 33.4747 28.4045 32.8118 28.8311ZM33.5 54.9284V64C33.5 65.3807 34.6193 66.5 36 66.5H44C45.3807 66.5 46.5 65.3807 46.5 64V54.9284C46.4107 54.9672 46.321 55.0053 46.2309 55.0427C42.74 56.4886 38.8717 56.6694 35.2864 55.5849C34.7742 55.43 34.2678 55.2492 33.7691 55.0427C33.679 55.0053 33.5893 54.9672 33.5 54.9284Z" stroke="currentColor" stroke-linecap="round" stroke-linejoin="round" />
</svg>