<svg viewBox="0 0 80 80" fill="none">
  <path fill-rule="evenodd" clip-rule="evenodd" d="M30.5001 26.7766V16C30.5001 12.9624 32.9625 10.5 36.0001 10.5H44.0001C47.0377 10.5 49.5001 12.9624 49.5001 16V26.7766C51.943 28.5317 53.873 30.945 55.0428 33.7691C56.6953 37.7587 56.6953 42.2413 55.0428 46.2309C53.873 49.055 51.943 51.4683 49.5001 53.2234V64C49.5001 67.0376 47.0377 69.5 44.0001 69.5H36.0001C32.9625 69.5 30.5001 67.0376 30.5001 64V53.2234C28.0572 51.4683 26.1272 49.055 24.9574 46.2309C23.3049 42.2413 23.3049 37.7587 24.9574 33.7691C26.1272 30.945 28.0572 28.5317 30.5001 26.7766ZM33.5001 16C33.5001 14.6193 34.6194 13.5 36.0001 13.5H44.0001C45.3808 13.5 46.5001 14.6193 46.5001 16V25.0716C46.4108 25.0328 46.3211 24.9947 46.231 24.9573C45.7323 24.7508 45.2259 24.57 44.7137 24.4151C41.1285 23.3306 37.2601 23.5114 33.7692 24.9573C33.7636 24.9597 33.7579 24.962 33.7523 24.9643C33.6679 24.9994 33.5838 25.0352 33.5001 25.0716V16ZM32.8119 28.8311C30.5531 30.2848 28.7712 32.4011 27.7291 34.9172C26.381 38.1717 26.381 41.8283 27.7291 45.0828C28.7712 47.5989 30.5531 49.7152 32.8119 51.1689C33.4333 51.5689 34.0909 51.9187 34.7792 52.2129C34.8251 52.2326 34.8711 52.2519 34.9173 52.271C38.1717 53.6191 41.8284 53.6191 45.0829 52.271C45.8214 51.9651 46.5254 51.5956 47.1883 51.1689C49.4471 49.7152 51.2289 47.5989 52.2711 45.0828C53.6192 41.8283 53.6192 38.1717 52.2711 34.9172C51.2289 32.4011 49.4471 30.2848 47.1883 28.8311C46.5254 28.4045 45.8214 28.0349 45.0829 27.729C42.2352 26.5494 39.0796 26.402 36.155 27.2866C35.7372 27.413 35.3241 27.5605 34.9173 27.729C34.1787 28.0349 33.4748 28.4045 32.8119 28.8311ZM33.5001 54.9284V64C33.5001 65.3807 34.6194 66.5 36.0001 66.5H44.0001C45.3808 66.5 46.5001 65.3807 46.5001 64V54.9284C46.4108 54.9672 46.3211 55.0053 46.231 55.0427C42.7401 56.4886 38.8717 56.6694 35.2865 55.5849C34.7743 55.43 34.2679 55.2492 33.7692 55.0427C33.6791 55.0053 33.5894 54.9672 33.5001 54.9284Z" stroke="currentColor" stroke-linecap="round" stroke-linejoin="round" />
</svg>