<svg viewBox="0 0 80 80" fill="none">
  <path fill-rule="evenodd" clip-rule="evenodd" d="M26.5 20.5145V16C26.5 12.9624 28.9624 10.5 32 10.5H48C51.0376 10.5 53.5 12.9624 53.5 16V20.5145C57.9617 20.7733 61.5 24.4734 61.5 29V51C61.5 55.5266 57.9617 59.2267 53.5 59.4855V64C53.5 67.0376 51.0376 69.5 48 69.5H32C28.9624 69.5 26.5 67.0376 26.5 64V59.4855C22.0383 59.2267 18.5 55.5266 18.5 51V29C18.5 24.4734 22.0383 20.7733 26.5 20.5145ZM29.5 16C29.5 14.6193 30.6193 13.5 32 13.5H48C49.3807 13.5 50.5 14.6193 50.5 16V20.5H29.5V16ZM27 23.5C23.9624 23.5 21.5 25.9624 21.5 29V51C21.5 54.0376 23.9624 56.5 27 56.5H53C56.0376 56.5 58.5 54.0376 58.5 51V29C58.5 25.9624 56.0376 23.5 53 23.5H27ZM29.5 59.5V64C29.5 65.3807 30.6193 66.5 32 66.5H48C49.3807 66.5 50.5 65.3807 50.5 64V59.5H29.5Z" stroke="currentColor" stroke-linecap="round" stroke-linejoin="round" />
</svg>