<svg width="80" height="80" viewBox="0 0 80 80" fill="none" xmlns="http://www.w3.org/2000/svg">
  <rect x="6.25" y="6.25" width="67.5" height="67.5" fill="#021D25" stroke="#32CAFA" stroke-width="2.5" />
  <path d="M20 23.0232C20 22.8154 20.4485 22.6558 20.7079 22.6558C22.7465 22.5519 25.7376 22.5 28.8769 22.5C37.6575 22.5 41.0786 27.3161 41.0786 33.4864C41.0786 41.5454 35.2409 44.9997 28.0801 44.9997C26.8792 44.9997 26.4603 44.9478 25.6227 44.9478V57.1327C25.6227 57.3961 25.5189 57.5 25.2557 57.5H20.3669C20.1038 57.5 20 57.3961 20 57.1327V23.0232ZM25.6227 39.872C26.3529 39.9239 26.9311 39.9239 28.1838 39.9239C31.894 39.9239 35.3818 38.6142 35.3818 33.594C35.3818 29.5646 32.891 27.5239 28.6546 27.5239C27.4018 27.5239 26.1972 27.5758 25.6227 27.6277V39.872ZM52.891 36.1022C50.3818 36.1022 49.5441 37.3601 49.5441 38.4064C49.5441 39.5566 50.1186 40.3432 53.4655 42.0685C58.4322 44.4766 60 46.777 60 50.1794C60 55.2552 56.1305 57.5 50.9044 57.5C48.1357 57.5 45.7747 56.9396 44.4181 56.153C44.2105 56.0491 44.1549 55.8933 44.1549 55.6298V51.4335C44.1549 51.1181 44.3106 51.0143 44.5219 51.1701C46.5085 52.4799 48.8139 53.055 50.9044 53.055C53.4136 53.055 54.4589 52.0086 54.4589 50.595C54.4589 49.4448 53.7287 48.4504 50.5374 46.777C46.0415 44.6324 44.1586 42.4321 44.1586 38.77C44.1586 34.6886 47.3462 31.6118 52.8873 31.6118C55.6042 31.6118 57.5241 31.7055 58.5693 32.1767C58.8325 32.3325 58.8844 32.5959 58.8844 32.8037V37.1486C58.8844 37.4083 58.7287 37.5678 58.4136 37.464C57.4056 36.8654 55.4003 36.1022 52.891 36.1022Z" fill="#32CAFA" />
</svg>