<svg width="80" height="80" viewBox="0 0 80 80" fill="none" xmlns="http://www.w3.org/2000/svg">
  <rect x="6.25" y="6.25" width="67.5" height="67.5" fill="#261302" stroke="#FB7C33" stroke-width="2.5" />
  <path d="M29.9252 47.9015L27.5846 57.1849C27.5362 57.4384 27.4394 57.5 27.1456 57.5H22.8068C22.5164 57.5 22.468 57.3986 22.5164 57.04L30.9036 26.2525C31.0488 25.691 31.149 25.2057 31.1974 23.6736C31.1974 23.4707 31.2942 23.3657 31.4429 23.3657H37.6348C37.8284 23.3657 37.9287 23.4164 37.9771 23.6736L47.3876 57.0907C47.436 57.3442 47.3876 57.5 47.1422 57.5H42.2675C42.0255 57.5 41.8768 57.4384 41.8284 57.2356L39.3911 47.9015H29.9252ZM38.1637 42.8705L34.6547 28.3207L31.194 42.8705H38.1637ZM51.4568 25.6657C51.4568 23.6735 52.774 22.5 54.4784 22.5C56.2831 22.5 57.5 23.7786 57.5 25.6657C57.5 27.7085 56.2312 28.8314 54.43 28.8314C52.6737 28.8314 51.4568 27.7085 51.4568 25.6657ZM51.7887 32.7034C51.7887 32.4462 51.8855 32.3448 52.1309 32.3448H56.7671C57.0125 32.3448 57.1093 32.4462 57.1093 32.7034V57.1414C57.1093 57.3986 57.0609 57.5 56.7671 57.5H52.1793C51.8855 57.5 51.7887 57.3479 51.7887 57.0907V32.7034Z" fill="#FB7C33" />
</svg>