<svg width="80" height="80" viewBox="0 0 80 80" fill="none" xmlns="http://www.w3.org/2000/svg">
  <path fill-rule="evenodd" clip-rule="evenodd" d="M31.4789 9.71109C34.0005 8.30267 36.9065 7.5 40 7.5C43.0935 7.5 45.9995 8.30267 48.5211 9.71109L50.3661 7.86612C50.8543 7.37796 51.6457 7.37796 52.1339 7.86612C52.622 8.35427 52.622 9.14573 52.1339 9.63388L50.6529 11.1149C54.8164 14.314 57.5 19.3436 57.5 25H22.5C22.5 19.3436 25.1836 14.314 29.3471 11.1149L27.8661 9.63388C27.378 9.14573 27.378 8.35427 27.8661 7.86612C28.3543 7.37796 29.1457 7.37796 29.6339 7.86612L31.4789 9.71109ZM35 17.5C35 18.8807 33.8807 20 32.5 20C31.1193 20 30 18.8807 30 17.5C30 16.1193 31.1193 15 32.5 15C33.8807 15 35 16.1193 35 17.5ZM47.5 20C48.8807 20 50 18.8807 50 17.5C50 16.1193 48.8807 15 47.5 15C46.1193 15 45 16.1193 45 17.5C45 18.8807 46.1193 20 47.5 20Z" fill="#87C527" />
  <path d="M12.5 31.25C12.5 29.1789 14.1789 27.5 16.25 27.5C18.3211 27.5 20 29.1789 20 31.25V46.25C20 48.3211 18.3211 50 16.25 50C14.1789 50 12.5 48.3211 12.5 46.25V31.25Z" fill="#87C527" />
  <path d="M30 60V68.75C30 70.8211 31.6789 72.5 33.75 72.5C35.8211 72.5 37.5 70.8211 37.5 68.75V60H42.5V68.75C42.5 70.8211 44.1789 72.5 46.25 72.5C48.3211 72.5 50 70.8211 50 68.75V60H52.5C55.2614 60 57.5 57.7614 57.5 55V27.5H22.5V55C22.5 57.7614 24.7386 60 27.5 60H30Z" fill="#87C527" />
  <path d="M60 31.25C60 29.1789 61.6789 27.5 63.75 27.5C65.8211 27.5 67.5 29.1789 67.5 31.25V46.25C67.5 48.3211 65.8211 50 63.75 50C61.6789 50 60 48.3211 60 46.25V31.25Z" fill="#87C527" />
</svg>