<svg width="80" height="80" viewBox="0 0 80 80" fill="none" xmlns="http://www.w3.org/2000/svg">
  <path d="M40 5C20.6953 5 5 20.6953 5 40C5 59.3047 20.6953 75 40 75C59.3047 75 75 59.3047 75 40C75 20.6953 59.3047 5 40 5Z" fill="url(#paint0_radial)" />
  <path d="M51.3009 39.8528C46.496 39.8528 42.6015 43.803 42.6015 48.6761C42.6015 53.5495 46.496 57.5 51.3009 57.5C56.1052 57.5 60 53.5495 60 48.6761C60 43.803 56.1052 39.8528 51.3009 39.8528ZM28.6993 39.8534C23.8949 39.8534 20 43.803 20 48.6765C20 53.5495 23.8949 57.5 28.6993 57.5C33.5039 57.5 37.399 53.5495 37.399 48.6765C37.399 43.803 33.5039 39.8534 28.6993 39.8534ZM48.699 28.8233C48.699 33.6964 44.8046 37.6475 40.0002 37.6475C35.1954 37.6475 31.3008 33.6964 31.3008 28.8233C31.3008 23.9505 35.1954 20 40.0002 20C44.8046 20 48.699 23.9505 48.699 28.8233Z" fill="white" />
  <defs>
    <radialGradient id="paint0_radial" cx="0" cy="0" r="1" gradientUnits="userSpaceOnUse" gradientTransform="translate(40 43.2565) scale(46.3843)">
      <stop stop-color="#FFB900" />
      <stop offset="0.6" stop-color="#F95D8F" />
      <stop offset="0.9991" stop-color="#F95353" />
    </radialGradient>
  </defs>
</svg>