<svg width="80" height="80" viewBox="0 0 80 80" fill="none" xmlns="http://www.w3.org/2000/svg">
  <path d="M7.27175 7.50019C6.60919 7.49137 5.97675 7.78554 5.5441 8.30381C5.11145 8.82207 4.92287 9.51137 5.02894 10.1868L14.5497 69.8711C14.7945 71.3787 16.0523 72.4871 17.5326 72.4998H63.2075C64.3186 72.5146 65.2726 71.687 65.4503 70.5543L74.9711 10.1984C75.0771 9.52295 74.8885 8.83365 74.4559 8.31539C74.0232 7.79712 73.3908 7.50295 72.7282 7.51177L7.27175 7.50019ZM47.362 50.6364H32.7837L28.8364 29.3404H50.8945L47.362 50.6364Z" fill="#2684FF" />
  <path fill-rule="evenodd" clip-rule="evenodd" d="M71.9434 29.3411H50.8946L47.3622 50.637H32.7839L15.5703 71.7361C16.1159 72.2233 16.8115 72.4942 17.5328 72.5004H63.2189C64.3299 72.5152 65.284 71.6876 65.4617 70.555L71.9434 29.3411Z" fill="url(#paint0_linear)" />
  <defs>
    <linearGradient id="paint0_linear" x1="76.8103" y1="35.3049" x2="51.44" y2="70.1884" gradientUnits="userSpaceOnUse">
      <stop offset="0.18" stop-color="#0052CC" />
      <stop offset="1" stop-color="#2684FF" />
    </linearGradient>
  </defs>
</svg>