<svg width="80" height="80" viewBox="0 0 80 80" fill="none" xmlns="http://www.w3.org/2000/svg">
  <path fill-rule="evenodd" clip-rule="evenodd" d="M40.0002 24.3617C31.3634 24.3617 24.3619 31.3632 24.3619 40C24.3619 42.7399 25.0665 45.3152 26.3043 47.5547L10.7989 20.6985C10.7989 20.6985 10.7989 20.6985 10.7989 20.6986L10.7988 20.6985C13.6773 16.3524 17.5 12.6863 21.9744 9.99265L23.0824 9.35299C28.0939 6.58059 33.8578 5.00173 39.9901 5H40.0002H40.0102C53.7153 5.00386 65.5792 12.8849 71.3207 24.3617H40.0002Z" fill="#DE5347" />
  <path fill-rule="evenodd" clip-rule="evenodd" d="M40.0164 24.3618H71.3205L71.3205 24.3618C73.675 29.0683 74.9998 34.3794 74.9998 40.0001C74.9998 59.3301 59.3298 75.0001 39.9998 75.0001H37.8501L37.8864 74.9374L53.4077 48.0538L53.693 47.5595C54.9325 45.3189 55.6381 42.7419 55.6381 40.0001C55.6381 31.3688 48.6456 24.3708 40.0164 24.3618Z" fill="#FFCD42" />
  <path fill-rule="evenodd" clip-rule="evenodd" d="M40 55.6383C45.6913 55.6383 50.6725 52.5981 53.4081 48.0531L53.4078 48.0538L37.8866 74.9373C32.5399 74.6187 27.5165 73.1 23.0819 70.6469C22.7085 70.4403 22.3394 70.2272 21.9746 70.0075C11.8035 63.8846 5 52.7369 5 40C5 32.8666 7.13411 26.2315 10.7987 20.6985L26.3067 47.5591L26.5925 48.054C29.3283 52.5985 34.3092 55.6383 40 55.6383Z" fill="#1CA261" />
  <path fill-rule="evenodd" clip-rule="evenodd" d="M39.9999 52.6595C46.9916 52.6595 52.6595 46.9916 52.6595 39.9999C52.6595 33.0082 46.9916 27.3403 39.9999 27.3403C33.0082 27.3403 27.3403 33.0082 27.3403 39.9999C27.3403 46.9916 33.0082 52.6595 39.9999 52.6595Z" fill="#4B8BF5" />
</svg>