<svg viewBox="0 0 80 80" fill="none">
  <path d="M68.1797 57.0949C67.2464 57.583 66.284 58.013 65.2978 58.3827C62.1588 59.5571 58.8336 60.1555 55.482 60.1489C42.5438 60.1489 31.2734 51.2495 31.2734 39.8293C31.2899 38.2976 31.715 36.798 32.5047 35.4854C33.2944 34.1728 34.4202 33.0948 35.7657 32.3625C24.0633 32.8547 21.0557 45.0486 21.0557 52.1927C21.0557 72.392 39.6729 74.4398 43.6839 74.4398C45.8467 74.4398 49.1086 73.811 51.0663 73.1931L51.4245 73.0728C58.9579 70.4686 65.3801 65.3773 69.6343 58.6369C69.7646 58.4316 69.8227 58.1888 69.7996 57.9468C69.7764 57.7047 69.6733 57.4773 69.5065 57.3005C69.3396 57.1236 69.1186 57.0074 68.8783 56.9701C68.638 56.9329 68.3922 56.9768 68.1797 57.0949Z" fill="url(#paint0_linear7TL2)" />
  <path opacity="0.35" d="M68.1797 57.0949C67.2464 57.583 66.284 58.013 65.2978 58.3827C62.1588 59.5571 58.8336 60.1555 55.482 60.1489C42.5438 60.1489 31.2734 51.2495 31.2734 39.8293C31.2899 38.2976 31.715 36.798 32.5047 35.4854C33.2944 34.1728 34.4202 33.0948 35.7657 32.3625C24.0633 32.8547 21.0557 45.0486 21.0557 52.1927C21.0557 72.392 39.6729 74.4398 43.6839 74.4398C45.8467 74.4398 49.1086 73.811 51.0663 73.1931L51.4245 73.0728C58.9579 70.4686 65.3801 65.3773 69.6343 58.6369C69.7646 58.4316 69.8227 58.1888 69.7996 57.9468C69.7764 57.7047 69.6733 57.4773 69.5065 57.3005C69.3396 57.1236 69.1186 57.0074 68.8783 56.9701C68.638 56.9329 68.3922 56.9768 68.1797 57.0949Z" fill="url(#paint1_radial7TL2)" />
  <path d="M33.9089 71.0056C31.4702 69.4921 29.3567 67.5088 27.6913 65.1712C25.7932 62.5707 24.487 59.5865 23.8644 56.4279C23.2418 53.2692 23.3178 50.0126 24.0872 46.8865C24.8565 43.7603 26.3005 40.8403 28.3179 38.3313C30.3353 35.8223 32.8772 33.785 35.7654 32.3624C36.6185 31.9605 38.0758 31.2332 40.0144 31.2687C41.3801 31.2787 42.725 31.6047 43.9437 32.2214C45.1623 32.838 46.2216 33.7285 47.0385 34.823C48.1427 36.2972 48.7515 38.0832 48.7775 39.9248C48.7775 39.8674 55.4654 18.1616 26.9039 18.1616C14.9007 18.1616 5.03024 29.5517 5.03024 39.5448C4.98289 44.8309 6.114 50.0612 8.34136 54.8555C11.9815 62.6218 18.3471 68.781 26.2293 72.1635C34.1116 75.546 42.9616 75.9162 51.0988 73.2038C48.2497 74.1021 45.2396 74.3717 42.2761 73.9941C39.3126 73.6165 36.4663 72.6007 33.9335 71.0166L33.9089 71.0056Z" fill="url(#paint2_linear7TL2)" />
  <path opacity="0.41" d="M33.9089 71.0056C31.4702 69.4921 29.3567 67.5088 27.6913 65.1712C25.7932 62.5707 24.487 59.5865 23.8644 56.4279C23.2418 53.2692 23.3178 50.0126 24.0872 46.8865C24.8565 43.7603 26.3005 40.8403 28.3179 38.3313C30.3353 35.8223 32.8772 33.785 35.7654 32.3624C36.6185 31.9605 38.0758 31.2332 40.0144 31.2687C41.3801 31.2787 42.725 31.6047 43.9437 32.2214C45.1623 32.838 46.2216 33.7285 47.0385 34.823C48.1427 36.2972 48.7515 38.0832 48.7775 39.9248C48.7775 39.8674 55.4654 18.1616 26.9039 18.1616C14.9007 18.1616 5.03024 29.5517 5.03024 39.5448C4.98289 44.8309 6.114 50.0612 8.34136 54.8555C11.9815 62.6218 18.3471 68.781 26.2293 72.1635C34.1116 75.546 42.9616 75.9162 51.0988 73.2038C48.2497 74.1021 45.2396 74.3717 42.2761 73.9941C39.3126 73.6165 36.4663 72.6007 33.9335 71.0166L33.9089 71.0056Z" fill="url(#paint3_radial7TL2)" />
  <path d="M46.6501 45.6993C46.4287 45.9864 45.7478 46.3828 45.7478 47.2468C45.7478 47.9604 46.2127 48.6466 47.0384 49.2235C50.9702 51.9576 58.3826 51.5967 58.4017 51.5967C61.3151 51.5897 64.1733 50.8013 66.6782 49.3137C69.2051 47.8383 71.3024 45.7279 72.7619 43.1918C74.2214 40.6557 74.9924 37.782 74.9984 34.856C75.0695 28.729 72.811 24.6552 71.8978 22.8507C66.104 11.518 53.5977 5 39.9978 5C30.8005 4.99909 21.9724 8.61853 15.423 15.0755C8.87362 21.5325 5.12934 30.3079 5 39.5039C5.13124 29.5136 15.0619 21.4454 26.8736 21.4454C27.8306 21.4454 33.2881 21.5384 38.3573 24.1986C42.825 26.5444 45.1655 29.3769 46.7923 32.1848C48.4821 35.1021 48.7828 38.7876 48.7828 40.2558C48.7828 41.724 48.0336 43.9003 46.6501 45.6993Z" fill="url(#paint4_radial7TL2)" />
  <path d="M46.6501 45.6993C46.4287 45.9864 45.7478 46.3828 45.7478 47.2468C45.7478 47.9604 46.2127 48.6466 47.0384 49.2235C50.9702 51.9576 58.3826 51.5967 58.4017 51.5967C61.3151 51.5897 64.1733 50.8013 66.6782 49.3137C69.2051 47.8383 71.3024 45.7279 72.7619 43.1918C74.2214 40.6557 74.9924 37.782 74.9984 34.856C75.0695 28.729 72.811 24.6552 71.8978 22.8507C66.104 11.518 53.5977 5 39.9978 5C30.8005 4.99909 21.9724 8.61853 15.423 15.0755C8.87362 21.5325 5.12934 30.3079 5 39.5039C5.13124 29.5136 15.0619 21.4454 26.8736 21.4454C27.8306 21.4454 33.2881 21.5384 38.3573 24.1986C42.825 26.5444 45.1655 29.3769 46.7923 32.1848C48.4821 35.1021 48.7828 38.7876 48.7828 40.2558C48.7828 41.724 48.0336 43.9003 46.6501 45.6993Z" fill="url(#paint5_radial7TL2)" />
  <defs>
    <linearGradient id="paint0_linear7TL2" x1="21.0557" y1="53.4067" x2="69.8175" y2="53.4067" gradientUnits="userSpaceOnUse">
      <stop stop-color="#0C59A4" />
      <stop offset="1" stop-color="#114A8B" />
    </linearGradient>
    <radialGradient id="paint1_radial7TL2" cx="0" cy="0" r="1" gradientUnits="userSpaceOnUse" gradientTransform="translate(47.9876 53.7909) scale(26.0788 24.7736)">
      <stop offset="0.72" stop-opacity="0" />
      <stop offset="0.95" stop-opacity="0.53" />
      <stop offset="1" />
    </radialGradient>
    <linearGradient id="paint2_linear7TL2" x1="46.7624" y1="32.2557" x2="16.3078" y2="65.4297" gradientUnits="userSpaceOnUse">
      <stop stop-color="#1B9DE2" />
      <stop offset="0.16" stop-color="#1595DF" />
      <stop offset="0.67" stop-color="#0680D7" />
      <stop offset="1" stop-color="#0078D4" />
    </linearGradient>
    <radialGradient id="paint3_radial7TL2" cx="0" cy="0" r="1" gradientUnits="userSpaceOnUse" gradientTransform="translate(24.3021 59.41) rotate(-81.3839) scale(39.2137 31.6822)">
      <stop offset="0.76" stop-opacity="0" />
      <stop offset="0.95" stop-opacity="0.5" />
      <stop offset="1" />
    </radialGradient>
    <radialGradient id="paint4_radial7TL2" cx="0" cy="0" r="1" gradientUnits="userSpaceOnUse" gradientTransform="translate(12.0713 17.9531) rotate(92.2907) scale(55.39 117.975)">
      <stop stop-color="#35C1F1" />
      <stop offset="0.11" stop-color="#34C1ED" />
      <stop offset="0.23" stop-color="#2FC2DF" />
      <stop offset="0.31" stop-color="#2BC3D2" />
      <stop offset="0.67" stop-color="#36C752" />
    </radialGradient>
    <radialGradient id="paint5_radial7TL2" cx="0" cy="0" r="1" gradientUnits="userSpaceOnUse" gradientTransform="translate(70.6406 26.1633) rotate(73.739) scale(26.6135 21.643)">
      <stop stop-color="#66EB6E" />
      <stop offset="1" stop-color="#66EB6E" stop-opacity="0" />
    </radialGradient>
  </defs>
</svg>