<svg width="80" height="80" viewBox="0 0 80 80" fill="none" xmlns="http://www.w3.org/2000/svg">
  <path d="M28.7444 60.1431C28.7444 60.416 28.429 60.6344 28.0315 60.6344C27.579 60.6754 27.2637 60.457 27.2637 60.1431C27.2637 59.8702 27.579 59.6518 27.9766 59.6518C28.3879 59.6109 28.7444 59.8292 28.7444 60.1431ZM24.4806 59.529C24.3847 59.8019 24.6589 60.1158 25.0702 60.1977C25.4266 60.3342 25.8379 60.1977 25.9202 59.9247C26.0024 59.6518 25.7419 59.3379 25.3306 59.2151C24.9742 59.1195 24.5766 59.256 24.4806 59.529ZM30.5403 59.297C30.1427 59.3925 29.8685 59.6518 29.9097 59.9657C29.9508 60.2386 30.3073 60.4161 30.7185 60.3205C31.1161 60.225 31.3903 59.9657 31.3492 59.6927C31.3081 59.4334 30.9379 59.256 30.5403 59.297ZM39.5613 7C20.546 7 6 21.3707 6 40.2997C6 55.4347 15.5694 68.3862 29.2379 72.9444C30.9927 73.2583 31.6097 72.1801 31.6097 71.2931C31.6097 70.4469 31.5685 65.7795 31.5685 62.9135C31.5685 62.9135 21.9718 64.9606 19.9565 58.8466C19.9565 58.8466 18.3935 54.8752 16.1452 53.8516C16.1452 53.8516 13.0056 51.709 16.3645 51.7499C16.3645 51.7499 19.7782 52.0229 21.6565 55.271C24.6589 60.5389 29.6903 59.024 31.6508 58.1233C31.9661 55.9397 32.8573 54.4248 33.8444 53.5241C26.1806 52.678 18.4484 51.5725 18.4484 38.4437C18.4484 34.6906 19.4903 32.8073 21.6839 30.4053C21.3274 29.5183 20.1621 25.8608 22.0403 21.1387C24.9056 20.2517 31.5 24.8235 31.5 24.8235C34.2419 24.0593 37.1895 23.6635 40.1097 23.6635C43.0298 23.6635 45.9774 24.0593 48.7194 24.8235C48.7194 24.8235 55.3137 20.238 58.179 21.1387C60.0573 25.8744 58.8919 29.5183 58.5355 30.4053C60.729 32.8209 62.0726 34.7043 62.0726 38.4437C62.0726 51.6135 53.9976 52.6643 46.3339 53.5241C47.5952 54.6022 48.6645 56.6494 48.6645 59.8565C48.6645 64.4557 48.6234 70.1467 48.6234 71.2658C48.6234 72.1528 49.254 73.231 50.9952 72.9171C64.7048 68.3862 74 55.4347 74 40.2997C74 21.3707 58.5766 7 39.5613 7ZM19.3258 54.07C19.1476 54.2065 19.1887 54.5204 19.4218 54.7797C19.6411 54.998 19.9565 55.0936 20.1347 54.9161C20.3129 54.7797 20.2718 54.4658 20.0387 54.2065C19.8194 53.9881 19.504 53.8926 19.3258 54.07ZM17.8452 52.9646C17.7492 53.142 17.8863 53.3603 18.1605 53.4968C18.3798 53.6333 18.654 53.5923 18.75 53.4013C18.846 53.2239 18.7089 53.0055 18.4347 52.869C18.1605 52.7871 17.9411 52.8281 17.8452 52.9646ZM22.2871 57.823C22.0677 58.0005 22.15 58.4099 22.4653 58.6692C22.7806 58.9831 23.1782 59.024 23.3565 58.8057C23.5347 58.6282 23.4524 58.2188 23.1782 57.9595C22.8766 57.6456 22.4653 57.6047 22.2871 57.823ZM20.7242 55.8169C20.5048 55.9533 20.5048 56.3082 20.7242 56.6221C20.9435 56.936 21.3137 57.0724 21.4919 56.936C21.7113 56.7585 21.7113 56.4037 21.4919 56.0898C21.3 55.7759 20.9435 55.6395 20.7242 55.8169Z" fill="black" />
</svg>