<svg width="80" height="80" viewBox="0 0 80 80" fill="none" xmlns="http://www.w3.org/2000/svg">
  <circle cx="40" cy="40" r="35" fill="#3290E8" />
  <path fill-rule="evenodd" clip-rule="evenodd" d="M55 20H25C22.2743 19.9958 20.0048 22.2793 20 25V55C20 57.7611 22.2392 60 25 60H55C57.7257 60.0042 59.9952 57.7207 60 55V25C60 22.2389 57.7619 20 55 20ZM45.3322 27.3333C45.3322 26.5978 45.9302 26 46.6667 26C47.4031 26 48 26.5978 48 27.3333V45.1478C48 45.8833 47.402 46.4811 46.6667 46.4811C45.9608 46.4817 45.3351 45.856 45.3333 45.1478L45.3322 27.3333ZM38.6656 26.6589C38.6656 25.9222 39.2636 25.3256 40 25.3256C40.7364 25.3256 41.3344 25.9222 41.3344 26.6589V45.9922C41.3344 46.7289 40.7364 47.3256 40 47.3256C39.2941 47.3261 38.6684 46.7005 38.6667 45.9922L38.6656 26.6589ZM32 27.3333C32 26.5978 32.598 26 33.3333 26C34.0698 26 34.6667 26.5978 34.6667 27.3333V45.1478C34.6667 45.8833 34.0698 46.4811 33.3333 46.4811C32.6274 46.4817 32.0018 45.856 32 45.1478V27.3333ZM25.3333 30C25.3333 29.2633 25.9302 28.6667 26.6667 28.6667C27.4031 28.6667 28 29.2633 28 30V41.9922C28 42.7289 27.402 43.3256 26.6667 43.3256C25.9398 43.3268 25.3345 42.7178 25.3333 41.9922V30ZM54.2016 50.3378C53.9967 50.5156 49.0565 54.6589 40 54.6589C30.9435 54.6589 26.0066 50.5144 25.7984 50.3367C25.2476 49.8647 25.1824 49.0083 25.6545 48.4578C26.1147 47.922 26.993 47.8534 27.5305 48.3111C27.608 48.3767 32.0188 51.9922 39.9989 51.9922C48.0786 51.9922 52.4219 48.35 52.464 48.3144C53.0007 47.8533 53.8823 47.9205 54.3433 48.4578C54.8186 49.0072 54.7542 49.866 54.2016 50.3378ZM54.6667 41.9933C54.6667 42.7289 54.0687 43.3267 53.3333 43.3267C52.6064 43.3279 52.0012 42.7189 52 41.9933V30C52 29.2633 52.5969 28.6667 53.3322 28.6667C54.0687 28.6667 54.6667 29.2633 54.6667 30V41.9933Z" fill="white" />
</svg>