<svg viewBox="0 0 80 80" fill="none">
  <path d="M65.7949 7.87305H13.3984C10.1942 7.87305 7.59668 10.4705 7.59668 13.6748V66.0713C7.59668 69.2755 10.1942 71.873 13.3984 71.873H65.7949C68.9992 71.873 71.5967 69.2755 71.5967 66.0713V13.6748C71.5967 10.4705 68.9992 7.87305 65.7949 7.87305Z" fill="#FF3366" />
  <path d="M28.9855 28.009C31.113 28.009 32.8953 26.3415 32.8953 24.156C32.8953 21.9719 31.113 20.3047 28.9855 20.3047C26.858 20.3047 25.0763 21.9719 25.0763 24.156C25.0763 26.3412 26.858 28.009 28.9855 28.009ZM20.879 48.639C20.6493 49.6165 20.534 50.672 20.534 51.533C20.534 54.9258 22.3738 57.1781 26.2835 57.1781C29.526 57.1781 32.1548 55.2526 34.0475 52.1433L32.8918 56.7816H39.3305L43.0105 42.0218C43.9305 38.2847 45.7128 36.345 48.4153 36.345C50.5425 36.345 51.8648 37.668 51.8648 39.852C51.8648 40.4848 51.8073 41.174 51.5773 41.9218L49.6798 48.706C49.3923 49.6835 49.2778 50.6615 49.2778 51.5808C49.2778 54.8016 51.1745 57.1573 55.1418 57.1573C58.534 57.1573 61.236 54.9736 62.731 49.7413L60.2015 48.7648C58.9365 52.27 57.844 52.9038 56.9815 52.9038C56.119 52.9038 55.659 52.3293 55.659 51.18C55.659 50.6625 55.7745 50.0883 55.9465 49.3968L57.7868 42.7873C58.2465 41.2353 58.4193 39.859 58.4193 38.5945C58.4193 33.65 55.4293 31.0695 51.8073 31.0695C48.4153 31.0695 44.9653 34.1292 43.2408 37.3495L44.5053 31.5695H34.6743L33.2943 36.6605H37.894L35.0615 48.0005C32.8373 52.945 28.7515 53.0253 28.2388 52.9105C27.3968 52.7205 26.8583 52.4008 26.8583 51.3068C26.8583 50.6755 26.9733 49.7688 27.2608 48.6755L31.5733 31.5695H20.6493L19.2693 36.6605H23.811L20.8793 48.639" fill="white" />
</svg>