<svg width="80" height="80" viewBox="0 0 80 80" fill="none" xmlns="http://www.w3.org/2000/svg">
  <path d="M75 40C75 59.32 59.3375 75 40 75C20.6625 75 5 59.32 5 40C5 20.6625 20.6625 5 40 5C59.3375 5 75 20.6625 75 40Z" fill="#283544" />
  <path d="M17.7149 52.0984H21.5377V34.3608H17.7149V52.0984ZM19.6186 32.0348C20.8007 32.0348 21.7526 31.0308 21.7526 29.7758C21.7526 28.4873 20.8007 27.5 19.6186 27.5C18.4518 27.5 17.5 28.4873 17.5 29.7758C17.5 31.0308 18.4518 32.0348 19.6186 32.0348Z" fill="white" />
  <path d="M34.8941 27.5502C28.4308 27.5502 24.3778 32.3527 24.3778 40.0335C24.3778 47.7142 28.4308 52.5 34.8941 52.5C41.3421 52.5 45.3951 47.7142 45.3951 40.0335C45.3951 32.3527 41.3421 27.5502 34.8941 27.5502ZM34.8941 31.2316C38.8397 31.2316 41.3575 34.6452 41.3575 40.0335C41.3575 45.405 38.8397 48.8186 34.8941 48.8186C30.9333 48.8186 28.4308 45.405 28.4308 40.0335C28.4308 34.6452 30.9333 31.2316 34.8941 31.2316Z" fill="white" />
  <path d="M47.6519 45.3046C47.8208 49.7557 51.1676 52.5 56.2645 52.5C61.6225 52.5 65 49.6218 65 45.0368C65 41.4391 63.0963 39.4143 58.5981 38.2932L56.0496 37.6573C53.3323 36.9545 52.2115 36.0174 52.2115 34.411C52.2115 32.4029 53.9003 31.0643 56.4027 31.0643C58.9358 31.0643 60.6707 32.4197 60.8549 34.6787H64.6315C64.5394 30.4284 61.3154 27.5502 56.4334 27.5502C51.6128 27.5502 48.1892 30.4451 48.1892 34.7289C48.1892 38.176 50.1236 40.3179 54.2073 41.3387L57.0782 42.075C59.8723 42.7945 61.0084 43.7985 61.0084 45.5388C61.0084 47.5469 59.1508 48.9859 56.4795 48.9859C53.7775 48.9859 51.7356 47.5301 51.49 45.3046H47.6519Z" fill="white" />
</svg>