<svg width="80" height="80" viewBox="0 0 80 80" fill="none" xmlns="http://www.w3.org/2000/svg">
  <rect x="5" y="5" width="70" height="70" fill="#FFCA28" />
  <path d="M47.5 63.2196L52.6538 59.8094C53.0577 61.0783 55.6154 64.092 58.8462 64.092C62.0769 64.092 63.5769 62.3274 63.5769 61.1576C63.5769 57.9696 60.2779 56.8456 58.6934 56.3057C58.4351 56.2177 58.2224 56.1453 58.0769 56.0819C58.0024 56.0494 57.8895 56.0063 57.7447 55.951C55.9824 55.2777 49.4808 52.7937 49.4808 45.5934C49.4808 37.6625 57.1346 36.7505 58.8654 36.7505C59.9977 36.7505 65.4423 36.8893 68.1538 41.9848L63.1538 45.4744C62.0577 43.2538 60.2365 42.5202 59.1154 42.5202C56.3462 42.5202 55.7692 44.5503 55.7692 45.4744C55.7692 48.0674 58.7779 49.2297 61.3183 50.211C61.983 50.4678 62.6156 50.7121 63.1538 50.9665C65.9231 52.2751 70 54.4164 70 61.1576C70 64.5341 67.168 70.0005 60.0385 70.0005C50.4615 70.0005 47.9231 64.2506 47.5 63.2196Z" fill="#3E3E3E" />
  <path d="M22.5 63.8968L27.8717 60.4883C28.2926 61.7566 29.9282 64.095 32.3013 64.095C34.6745 64.095 35.8891 61.6575 35.8891 60.4883V37.5005H42.4955V60.4883C42.6024 63.659 40.8439 70.0005 33.083 70.0005C25.9475 70.0005 22.981 65.7597 22.5 63.8968Z" fill="#3E3E3E" />
</svg>