<svg width="80" height="80" viewBox="0 0 80 80" fill="none" xmlns="http://www.w3.org/2000/svg">
  <path d="M12.5 69.7992C12.5 71.3957 13.4309 72.499 15.0124 72.499H44.9347C40.9189 64.5672 36.423 57.332 30.8267 50.5493C25.0366 54.1796 18.9165 57.3188 12.5 59.8773V69.7992Z" fill="#F15713" />
  <path d="M12.5 20.3932C18.9002 22.9436 25.0061 26.0736 30.7821 29.6907C36.3976 22.8958 41.26 15.4521 45.2859 7.5H15.6184C13.8958 7.5 12.5 8.90942 12.5 10.6483" fill="#69AAB5" />
  <path d="M30.8266 50.551C35.7986 47.4342 40.527 43.9615 44.9549 40.1359C40.5138 36.2992 35.7682 32.8163 30.784 29.6924C27.7549 33.3583 24.5005 36.8229 21.0664 40.0952C24.5178 43.3859 27.7864 46.8678 30.8266 50.551Z" fill="#FFB1A2" />
  <path d="M44.9537 40.1367C40.5262 43.9619 35.7982 47.4342 30.8267 50.5507C36.4229 57.3334 40.9187 64.5685 44.9345 72.5003L67.4049 72.5005C69.4788 72.5005 70.2452 71.029 69.4788 69.7081C62.978 58.51 54.6612 48.5261 44.9537 40.1367Z" fill="#F37036" />
  <path d="M45.284 7.50336C41.2602 15.4507 36.3934 22.9002 30.7819 29.6917C35.766 32.8156 40.5138 36.2985 44.9549 40.1353C54.8084 31.6167 63.2318 21.4599 69.7741 10.0565C70.4238 8.92365 69.5914 7.5 68.292 7.5L45.284 7.50336Z" fill="#85B8C1" />
  <path d="M12.5 47.5174C15.4722 45.1785 18.3298 42.7044 21.0675 40.0961C18.3298 37.4887 15.4722 35.0116 12.5 32.6758V47.5174Z" fill="#F76F6D" />
  <path d="M12.5 20.3931C18.9002 22.9434 25.0061 26.0734 30.7821 29.6905C27.753 33.3564 24.5006 36.8222 21.0666 40.0945C18.329 37.4873 15.4722 35.0111 12.5002 32.6755L12.5 20.3931Z" fill="#F39D90" />
  <path d="M30.8269 50.5509C27.7867 46.8678 24.5179 43.3858 21.0666 40.0952C18.3288 42.7036 15.4722 45.1789 12.5 47.5177V59.8787C18.9165 57.3202 25.0368 54.1812 30.8269 50.5509Z" fill="#FA8176" />
</svg>