<svg viewBox="0 0 80 80" fill="none">
  <rect x="22" y="8.5" width="54" height="63" rx="5" fill="#2FB776" />
  <path d="M22 55.75H76V66.5C76 69.2614 73.7614 71.5 71 71.5H27C24.2386 71.5 22 69.2614 22 66.5V55.75Z" fill="url(#paint0_linearYP3o)" />
  <rect x="49" y="40" width="27" height="15.75" fill="#229C5B" />
  <rect x="22" y="40" width="27" height="15.75" fill="#1B5B38" />
  <rect x="49" y="24.25" width="27" height="15.75" fill="#27AE68" />
  <rect x="22" y="24.25" width="27" height="15.75" fill="#197B43" />
  <path d="M22 13.5C22 10.7386 24.2386 8.5 27 8.5H49V24.25H22V13.5Z" fill="#1D854F" />
  <path d="M22 31.75C22 27.6079 25.3579 24.25 29.5 24.25H41.5C45.6421 24.25 49 27.6079 49 31.75V57.25C49 61.3921 45.6421 64.75 41.5 64.75H22V31.75Z" fill="black" fill-opacity="0.3" />
  <rect x="4" y="19.75" width="40.5" height="40.5" rx="5" fill="url(#paint1_linearYP3o)" />
  <rect x="4" y="19.75" width="40.5" height="40.5" rx="5" fill="url(#paint2_linearYP3o)" />
  <path d="M33.25 51.25L26.9098 39.775L32.9716 28.75H28.0232L24.2809 35.7893L20.6005 28.75H15.4974L21.5902 39.775L15.25 51.25H20.1985L24.1881 43.7929L28.1469 51.25H33.25Z" fill="white" />
  <defs>
    <linearGradient id="paint0_linearYP3o" x1="22" y1="63.625" x2="76" y2="63.625" gradientUnits="userSpaceOnUse">
      <stop stop-color="#163C27" />
      <stop offset="1" stop-color="#2A6043" />
    </linearGradient>
    <linearGradient id="paint1_linearYP3o" x1="4" y1="40" x2="44.5" y2="40" gradientUnits="userSpaceOnUse">
      <stop stop-color="#185A30" />
      <stop offset="1" stop-color="#176F3D" />
    </linearGradient>
    <linearGradient id="paint2_linearYP3o" x1="4" y1="40" x2="44.5" y2="40" gradientUnits="userSpaceOnUse">
      <stop stop-color="#185A30" />
      <stop offset="1" stop-color="#176F3D" />
    </linearGradient>
  </defs>
</svg>