<svg viewBox="0 0 80 80" fill="none">
  <path d="M12.6402 30.084H7.03984C6.6566 30.084 6.33069 30.3692 6.27091 30.7568L4.00588 45.4692C3.96085 45.7593 4.18029 46.0211 4.46773 46.0211H7.14138C7.52461 46.0211 7.85054 45.7359 7.91032 45.3475L8.5212 41.3793C8.58016 40.9909 8.9069 40.7057 9.28932 40.7057H11.0622C14.7512 40.7057 16.8803 38.8769 17.4364 35.2526C17.6869 33.6671 17.4469 32.4213 16.7223 31.5488C15.9264 30.5907 14.5146 30.084 12.6402 30.084ZM13.2863 35.4573C12.98 37.5161 11.4446 37.5161 9.95998 37.5161H9.11489L9.70776 33.6712C9.74298 33.4389 9.93951 33.2677 10.1688 33.2677H10.5561C11.5675 33.2677 12.5215 33.2677 13.0144 33.8583C13.3084 34.2107 13.3985 34.7342 13.2863 35.4573Z" fill="#253B80" />
  <path d="M29.3806 35.3915H26.6987C26.4702 35.3915 26.2729 35.5626 26.2377 35.795L26.119 36.5635L25.9314 36.2849C25.3509 35.4216 24.0563 35.1331 22.764 35.1331C19.8005 35.1331 17.2694 37.4326 16.7763 40.6582C16.52 42.2673 16.8844 43.8059 17.7753 44.879C18.5926 45.8655 19.7619 46.2765 21.1533 46.2765C23.5412 46.2765 24.8652 44.7036 24.8652 44.7036L24.7457 45.4669C24.7008 45.759 24.9201 46.0206 25.2059 46.0206H27.6216C28.0058 46.0206 28.33 45.7354 28.3905 45.347L29.84 35.9435C29.8858 35.654 29.6672 35.3915 29.3806 35.3915ZM25.6424 40.7388C25.3836 42.3083 24.1676 43.3621 22.6166 43.3621C21.8379 43.3621 21.2156 43.1062 20.8159 42.6213C20.4195 42.1399 20.2689 41.4545 20.395 40.691C20.6366 39.1347 21.8731 38.0467 23.4003 38.0467C24.1619 38.0467 24.7809 38.306 25.1888 38.795C25.5973 39.2892 25.7596 39.9787 25.6424 40.7388Z" fill="#253B80" />
  <path d="M43.6626 35.3931H40.9677C40.7104 35.3931 40.4689 35.5239 40.3232 35.7429L36.6062 41.3519L35.0308 35.9619C34.9317 35.6246 34.6277 35.3931 34.2839 35.3931H31.6356C31.3138 35.3931 31.0902 35.7152 31.1926 36.0255L34.1611 44.9502L31.3702 48.9862C31.1509 49.3042 31.372 49.7412 31.751 49.7412H34.4427C34.6982 49.7412 34.9373 49.6138 35.0823 49.399L44.0458 36.1439C44.2604 35.8268 44.0401 35.3931 43.6626 35.3931Z" fill="#253B80" />
  <path d="M52.5854 30.084H46.9844C46.6018 30.084 46.2761 30.3692 46.2161 30.7568L43.9512 45.469C43.9061 45.7594 44.1256 46.0212 44.4114 46.0212H47.2856C47.5526 46.0212 47.7811 45.8215 47.8229 45.5496L48.4656 41.3794C48.5246 40.991 48.8513 40.7056 49.2337 40.7056H51.0059C54.6958 40.7056 56.8239 38.8768 57.3809 35.2526C57.6323 33.667 57.3908 32.4212 56.6659 31.5488C55.8708 30.5907 54.46 30.084 52.5854 30.084ZM53.2315 35.4573C52.9262 37.516 51.3908 37.516 49.9053 37.516H49.0609L49.6546 33.6712C49.6898 33.4389 49.8848 33.2677 50.1148 33.2677H50.5023C51.5128 33.2677 52.4675 33.2677 52.9606 33.8583C53.2544 34.2107 53.3438 34.7342 53.2315 35.4573Z" fill="#179BD7" />
  <path d="M69.3263 35.3915H66.6462C66.4159 35.3915 66.2202 35.5626 66.1859 35.795L66.0672 36.5635L65.8789 36.2849C65.2982 35.4216 64.0043 35.1331 62.7122 35.1331C59.7487 35.1331 57.2182 37.4326 56.7253 40.6582C56.4698 42.2673 56.8325 43.8059 57.7235 44.879C58.5424 45.8655 59.7102 46.2765 61.1013 46.2765C63.4892 46.2765 64.8135 44.7036 64.8135 44.7036L64.694 45.4669C64.6488 45.759 64.8683 46.0206 65.1557 46.0206H67.5707C67.9531 46.0206 68.279 45.7354 68.3387 45.347L69.7891 35.9435C69.8332 35.654 69.6137 35.3915 69.3263 35.3915ZM65.5881 40.7388C65.3309 42.3083 64.1133 43.3621 62.5624 43.3621C61.7851 43.3621 61.1613 43.1062 60.7616 42.6213C60.3652 42.1399 60.2161 41.4545 60.3407 40.691C60.5839 39.1347 61.8188 38.0467 63.346 38.0467C64.1077 38.0467 64.7267 38.306 65.1345 38.795C65.5447 39.2892 65.7068 39.9787 65.5881 40.7388Z" fill="#179BD7" />
  <path d="M72.4859 30.4884L70.1873 45.47C70.1422 45.7601 70.3617 46.022 70.6475 46.022H72.9583C73.3425 46.022 73.6684 45.7367 73.7274 45.3483L75.994 30.6368C76.039 30.3466 75.8195 30.084 75.5338 30.084H72.9461C72.7176 30.0848 72.5211 30.256 72.4859 30.4884Z" fill="#179BD7" />
</svg>