<svg width="80" height="80" viewBox="0 0 80 80" fill="none" xmlns="http://www.w3.org/2000/svg">
  <path fill-rule="evenodd" clip-rule="evenodd" d="M47.1874 68.8477C44.5034 69.5985 41.6736 70 38.75 70C21.4911 70 7.5 56.0089 7.5 38.75C7.5 21.4911 21.4911 7.5 38.75 7.5C56.0089 7.5 70 21.4911 70 38.75C70 48.6102 65.4334 57.4038 58.2997 63.1312C60.2646 65.612 62.5448 67.5331 65.0372 67.5331C69.1478 67.5331 70.3847 64.2245 70.4893 62.5702H75C75 71.3274 69.7636 77.198 61.1551 77.4772C58.1207 77.5757 53.0366 77.7406 47.1874 68.8477ZM44.4368 64.0644C42.7881 64.6743 40.9021 65 38.75 65C25.8226 65 22.5 53.2475 22.5 38.75C22.5 24.2525 25.8256 12.5 38.75 12.5C51.6744 12.5 55 24.2525 55 38.75C55 44.634 54.4527 50.0658 52.9381 54.4432C50.4892 50.1357 46.6252 45 39.5025 45C33.5718 45 29.0297 47.4281 27.5 48.6421L29.3827 52.4043C29.9057 52.2309 31.2263 51.884 32.3245 51.884C33.6973 51.884 38.5611 51.4437 43.268 61.6496C43.6597 62.499 44.0494 63.3031 44.4368 64.0644Z" fill="#B72D2C" />
</svg>