<svg width="80" height="80" viewBox="0 0 80 80" fill="none" xmlns="http://www.w3.org/2000/svg">
  <circle cx="40" cy="40" r="35" fill="#5FCF80" />
  <path d="M59.8035 25.7961C57.8104 24.6037 55.5616 22.9307 53.4823 25.0688C50.8985 28.7379 46.1552 33.678 48.5756 38.4779C49.5528 40.32 51.1677 41.6945 52.4656 43.2961C53.2272 44.0792 53.629 45.099 53.4823 46.2052C53.3055 47.7052 52.112 48.887 50.6532 49.0689C48.7083 49.2961 47.0285 47.7052 47.0285 45.7507C46.8517 44.7052 47.1169 42.3416 45.3487 42.0689C44.1994 41.887 42.7407 43.7507 41.9892 46.2052C41.3878 48.2321 41.724 49.9567 41.724 51.9779C41.724 54.1435 40.1562 56.0903 37.834 55.8416C36.2868 55.6598 34.9607 54.387 34.7397 52.7961C34.5457 51.5327 35.0899 50.2487 35.8448 49.2507C36.5963 48.1143 37.7456 46.387 38.3202 44.7961C38.9391 43.1143 39.8477 41.7735 38.6739 40.887C37.5 40.0006 32.5187 47.4165 29.7888 46.9325C28.5511 46.7052 27.5786 45.6598 27.3576 44.4325C27.0039 42.5689 28.1974 40.9325 29.833 40.6143C31.7528 40.2659 37.4423 38.1258 36.8173 35.7961C36.2493 33.8103 31.3678 37.4892 29.7888 37.3416C28.2859 37.2961 27.0923 35.9779 27.0481 34.4325C27.0481 32.7037 28.4287 31.4779 30.0982 31.4779C32.0545 31.4779 33.9887 32.3033 35.9774 31.8416C41.0749 30.7098 42.9837 26.1638 45.5255 22.1143C46.7191 20.2052 46.1444 17.6143 44.1994 16.4779C41.8128 15.1486 39.345 14.359 36.7731 15.887L20.1523 25.7961C18.5167 26.7507 17.5 28.5688 17.5 30.5234V49.5234C17.5 51.4779 18.5167 53.2961 20.1523 54.2507L36.8173 64.1143C38.7623 65.2961 41.1935 65.2961 43.1827 64.1143L59.8477 54.2507C61.4833 53.2961 62.5 51.4779 62.5 49.5234V30.5234C62.4558 28.5688 61.4391 26.7507 59.8035 25.7961Z" fill="white" />
</svg>