<svg viewBox="0 0 80 80" fill="none">
  <path d="M35.1999 50.9266H29.3674L33.0156 29.146H38.8478L35.1999 50.9266Z" fill="#00579F" />
  <path d="M56.3444 29.678C55.194 29.2373 53.3695 28.7507 51.1132 28.7507C45.3534 28.7507 41.2975 31.7164 41.2726 35.9566C41.2246 39.0848 44.1766 40.8224 46.3843 41.8655C48.6409 42.9314 49.4079 43.6271 49.4079 44.577C49.3849 46.0364 47.5845 46.7089 45.9051 46.7089C43.5766 46.7089 42.3289 46.3622 40.4329 45.5504L39.6647 45.2023L38.8486 50.0915C40.2166 50.6934 42.7369 51.2273 45.3534 51.2507C51.4734 51.2507 55.4575 48.3309 55.5047 43.8125C55.5281 41.333 53.9693 39.4331 50.6089 37.8808C48.5691 36.884 47.3197 36.2122 47.3197 35.1925C47.3437 34.2655 48.3763 33.316 50.6791 33.316C52.5752 33.2695 53.9684 33.7096 55.0237 34.15L55.5513 34.3813L56.3444 29.678Z" fill="#00579F" />
  <path d="M64.0949 43.2104C64.5753 41.9592 66.4237 37.1165 66.4237 37.1165C66.3994 37.1629 66.9029 35.8421 67.1909 35.0312L67.5986 36.908C67.5986 36.908 68.7031 42.1214 68.943 43.2104C68.0313 43.2104 65.2469 43.2104 64.0949 43.2104ZM71.2944 29.146H66.783C65.3918 29.146 64.3347 29.5396 63.7347 30.9531L55.071 50.9264H61.191C61.191 50.9264 62.1986 48.2381 62.415 47.6591C63.0864 47.6591 69.04 47.6591 69.9035 47.6591C70.0709 48.4237 70.5994 50.9264 70.5994 50.9264H75.9999L71.2944 29.146Z" fill="#00579F" />
  <path d="M24.4952 29.146L18.7831 43.9982L18.159 40.9861C17.1031 37.5103 13.7911 33.7341 10.0952 31.8564L15.3271 50.9034H21.4948L30.6625 29.146H24.4952Z" fill="#00579F" />
  <path d="M13.4799 29.146H4.09601L4 29.5861C11.3202 31.3935 16.168 35.7503 18.1597 40.987L16.1199 30.9768C15.7839 29.5858 14.7519 29.1919 13.4799 29.146Z" fill="#FAA61A" />
</svg>