<svg width="80" height="80" viewBox="0 0 80 80" fill="none" xmlns="http://www.w3.org/2000/svg">
  <rect x="5" y="5" width="70" height="70" rx="15" fill="#2789F6" />
  <path d="M57.3083 45.8352C56.7697 45.1045 56.6491 44.3648 56.9434 43.6153C57.6778 41.6157 68.3734 28.9153 63.9178 28.9153C60.856 28.956 57.174 28.9153 54.2386 28.9153C53.6937 29.048 53.3411 29.3339 53.1205 29.9158C51.404 33.8737 49.3036 38.7037 46.2252 41.8079C45.8202 42.1344 45.5676 42.1205 45.1063 41.9997C42.9469 39.7264 45.2494 31.9377 43.9363 28.8601C43.6774 28.2577 43.111 27.9856 42.5314 27.8324C39.5997 27.1337 32.9042 27.5496 31.8118 28.956C31.4995 29.3581 31.4559 29.5775 31.6814 29.6135C32.7222 29.7778 33.4591 30.1706 33.8928 30.7917C34.7109 32.5934 35.3139 42.191 32.9042 42.191C30.4945 42.191 26.6088 32.772 25.5414 30.1609C25.2573 29.3747 24.5341 28.924 23.7722 28.7909L16.6432 28.8454C15.3901 28.8454 14.6898 29.4636 15.134 30.7089C18.847 39.9257 26.9724 57.791 39.4348 57.3437C40.6832 57.3437 42.8309 57.823 43.806 56.7407C45.1459 54.9631 43.5117 51.7971 45.8094 50.5897C46.3888 50.2814 46.9894 50.5399 47.4872 50.9189C50.0429 52.8649 51.3998 56.2805 54.5515 57.3174C55.1056 57.5 55.5912 57.5457 56.0081 57.4544L62.6684 57.345C63.905 57.345 65.1231 56.7948 64.8672 55.3165C63.8962 52.1462 60.0269 48.8874 57.3083 45.8352Z" fill="white" />
</svg>