<svg viewBox="0 0 80 80" fill="none">
  <path d="M36.7204 15.2815C26.4583 11.0011 0 31.8293 0 49.392C0 59.6737 13.0016 69.9995 34.4895 69.9995C60.814 69.9995 73.4854 52.0838 69.1129 43.3024C66.3248 37.7032 59.2524 37.2129 58.8062 35.7125C58.5175 34.7417 62.0633 28.9169 58.2261 25.7838C51.6817 20.4403 40.5575 28.1226 39.3082 26.7546C38.5284 25.9007 42.253 17.5892 36.7204 15.2815Z" fill="#E31C34" />
  <path d="M56.3377 47.3617C57.1786 55.9572 47.0943 63.9554 33.8138 65.2263C20.5333 66.4971 9.08564 60.5592 8.24475 51.9637C7.40386 43.3681 17.4882 35.3699 30.7687 34.0991C44.0492 32.8283 55.4968 38.7661 56.3377 47.3617Z" fill="white" />
  <path fill-rule="evenodd" clip-rule="evenodd" d="M42.8383 47.8038C44.4639 53.5487 40.2407 59.7395 33.4056 61.6314C26.5704 63.5232 19.7117 60.3996 18.086 54.6547C16.4604 48.9098 20.6836 42.719 27.5187 40.8272C34.3539 38.9353 41.2126 42.0589 42.8383 47.8038ZM30.6804 51.5052C31.5841 53.4277 30.4694 55.8356 28.1906 56.8833C25.9118 57.9311 23.3319 57.222 22.4281 55.2995C21.5244 53.377 22.6392 50.9691 24.918 49.9213C27.1968 48.8735 29.7767 49.5826 30.6804 51.5052ZM33.6691 50.5053C34.5571 50.097 34.9914 49.1588 34.6393 48.4097C34.2872 47.6606 33.2819 47.3843 32.394 47.7925C31.506 48.2008 31.0717 49.139 31.4238 49.8882C31.7759 50.6373 32.7812 50.9136 33.6691 50.5053Z" fill="black" />
  <path d="M54.5954 11.1933C55.8125 10.8953 57.088 10.7365 58.405 10.7365C67.1282 10.7365 74.1997 17.7304 74.1997 26.3576C74.1997 28.2631 73.856 30.0828 73.2292 31.7635C72.6749 33.2497 73.4437 34.899 74.9465 35.4472C76.4492 35.9954 78.1168 35.235 78.6711 33.7488C79.5315 31.4418 80 28.9506 80 26.3576C80 14.5621 70.3316 4.99998 58.405 4.99998C56.6147 4.99998 54.8713 5.21607 53.2019 5.6247C51.6471 6.00528 50.6986 7.56035 51.0834 9.09807C51.4682 10.6358 53.0406 11.5738 54.5954 11.1933Z" fill="#FD9940" />
  <path d="M57.158 21.2061C57.5553 21.1125 57.9723 21.0624 58.405 21.0624C61.362 21.0624 63.7591 23.4331 63.7591 26.3576C63.7591 26.996 63.6462 27.6019 63.4415 28.161C62.8961 29.6504 63.6748 31.2952 65.1808 31.8346C66.6868 32.374 68.3498 31.6038 68.8952 30.1144C69.3259 28.938 69.5595 27.6716 69.5595 26.3576C69.5595 20.2649 64.5654 15.3258 58.405 15.3258C57.5167 15.3258 56.6489 15.4291 55.8149 15.6254C54.2567 15.9922 53.2942 17.5389 53.6651 19.0799C54.036 20.621 55.5999 21.5729 57.158 21.2061Z" fill="#FD9940" />
</svg>