<svg width="80" height="80" viewBox="0 0 80 80" fill="none" xmlns="http://www.w3.org/2000/svg">
  <circle cx="40" cy="40" r="35" fill="#028CB0" />
  <path d="M16.1385 40C16.1385 49.4558 21.6385 57.6 29.5923 61.4712L18.2115 30.2904C16.8449 33.345 16.1385 36.6536 16.1385 40ZM40 63.8615C42.7712 63.8615 45.4365 63.375 47.9327 62.5077L47.7635 62.1904L40.4231 42.0942L33.2731 62.8885C35.3885 63.5231 37.6519 63.8615 40 63.8615ZM43.2788 28.8096L51.9096 54.4692L54.3 46.5154C55.3154 43.2154 56.0981 40.8462 56.0981 38.7942C56.0981 35.8327 55.0404 33.8019 54.1519 32.2365C52.925 30.2481 51.8038 28.5769 51.8038 26.6308C51.8038 24.4308 53.4538 22.4 55.8231 22.4H56.1192C51.7225 18.3637 45.9685 16.1285 40 16.1385C36.0481 16.1377 32.1579 17.1194 28.6796 18.9952C25.2012 20.871 22.2437 23.5821 20.0731 26.8846L21.5962 26.9269C24.0923 26.9269 27.9423 26.6096 27.9423 26.6096C29.2538 26.5462 29.4019 28.4288 28.1115 28.5769C28.1115 28.5769 26.8212 28.7462 25.3615 28.8096L34.0769 54.6596L39.3019 39.0058L35.5788 28.8096C34.7449 28.7636 33.9125 28.6931 33.0827 28.5981C31.7923 28.5135 31.9404 26.5462 33.2308 26.6096C33.2308 26.6096 37.1654 26.9269 39.5135 26.9269C42.0096 26.9269 45.8596 26.6096 45.8596 26.6096C47.15 26.5462 47.3192 28.4288 46.0288 28.5769C46.0288 28.5769 44.7385 28.725 43.2788 28.8096ZM51.9942 60.625C55.604 58.5261 58.5998 55.5166 60.6823 51.8973C62.7648 48.278 63.861 44.1756 63.8615 40C63.8615 35.8538 62.8038 31.9615 60.9423 28.5558C61.3203 32.3027 60.7531 36.0846 59.2923 39.5558L51.9942 60.625ZM40 67.5C32.7065 67.5 25.7118 64.6027 20.5546 59.4454C15.3973 54.2882 12.5 47.2935 12.5 40C12.5 32.7065 15.3973 25.7118 20.5546 20.5546C25.7118 15.3973 32.7065 12.5 40 12.5C47.2935 12.5 54.2882 15.3973 59.4454 20.5546C64.6027 25.7118 67.5 32.7065 67.5 40C67.5 47.2935 64.6027 54.2882 59.4454 59.4454C54.2882 64.6027 47.2935 67.5 40 67.5Z" fill="white" />
</svg>