<svg width="80" height="80" viewBox="0 0 80 80" fill="none" xmlns="http://www.w3.org/2000/svg">
  <path d="M63.9345 5.00146C68.6662 7.42773 72.7303 13.7947 72.5265 22.4343C71.9081 33.0796 64.238 42.254 55.8928 50.7068C55.4255 40.3983 53.198 33.8289 49.72 24.5908C46.4364 15.2812 56.0365 5.29944 63.9345 5.00146Z" fill="url(#paint0_linear)" />
  <path d="M43.8014 42.0493C42.5519 44.5354 40.79 47.2782 38.3402 50.3446C34.0778 55.7508 29.7796 64.6166 31.1017 75.0104C50.2015 72.8906 55.0521 57.4224 54.7076 50.7314C54.6951 50.5821 54.6819 50.4324 54.6679 50.2821C54.6672 50.2812 54.6664 50.2803 54.6656 50.2794C54.6801 50.4297 54.6944 50.5809 54.7076 50.7314C51.7016 46.8357 48.1103 44.1498 43.8014 42.0493Z" fill="url(#paint1_linear)" />
  <path d="M46.1181 25.8066C50.9094 33.2929 53.927 41.87 54.7071 50.7303C51.7007 46.8342 48.1092 44.1489 43.7996 42.0483C47.2776 35.1289 46.7892 30.1986 46.1181 25.8066Z" fill="url(#paint2_linear)" />
  <path d="M44.3133 23.1613C35.8578 11.5955 21.2118 6.04438 7.60313 11.4634C6.97835 19.5949 10.4343 31.6868 24.4482 35.5353C25.9919 35.9953 27.4147 36.4091 28.7542 36.7987C32.5354 37.8984 35.6536 38.8052 38.9596 40.0138C40.6667 40.6378 42.2781 41.3068 43.7998 42.0487C47.2777 35.1294 46.7893 30.1991 46.1182 25.8072C46.1182 25.8072 44.6425 23.6115 44.3133 23.1613Z" fill="url(#paint3_linear)" />
  <defs>
    <linearGradient id="paint0_linear" x1="60.7961" y1="5.00146" x2="60.7961" y2="50.7068" gradientUnits="userSpaceOnUse">
      <stop stop-color="#73B723" />
      <stop offset="1" stop-color="#D8EE61" />
    </linearGradient>
    <linearGradient id="paint1_linear" x1="51.1106" y1="50.4983" x2="28.4161" y2="67.3601" gradientUnits="userSpaceOnUse">
      <stop stop-color="#98C9EA" />
      <stop offset="0.68865" stop-color="#026FB2" />
      <stop offset="1" stop-color="#086EB6" />
    </linearGradient>
    <linearGradient id="paint2_linear" x1="47.1766" y1="33.5312" x2="56.7776" y2="37.3523" gradientUnits="userSpaceOnUse">
      <stop stop-color="#D4C883" />
      <stop offset="1" stop-color="#A1D1A7" />
    </linearGradient>
    <linearGradient id="paint3_linear" x1="7.53406" y1="11.4573" x2="36.9363" y2="37.6769" gradientUnits="userSpaceOnUse">
      <stop stop-color="#D73721" />
      <stop offset="1" stop-color="#F7D768" />
    </linearGradient>
  </defs>
</svg>