<svg width="80" height="80" viewBox="0 0 80 80" fill="none" xmlns="http://www.w3.org/2000/svg">
  <path d="M5 29C5 20.5992 5 16.3988 6.6349 13.1901C8.073 10.3677 10.3677 8.073 13.1901 6.6349C16.3988 5 20.5992 5 29 5H51C59.4008 5 63.6012 5 66.8099 6.6349C69.6323 8.073 71.927 10.3677 73.3651 13.1901C75 16.3988 75 20.5992 75 29V51C75 59.4008 75 63.6012 73.3651 66.8099C71.927 69.6323 69.6323 71.927 66.8099 73.3651C63.6012 75 59.4008 75 51 75H29C20.5992 75 16.3988 75 13.1901 73.3651C10.3677 71.927 8.073 69.6323 6.6349 66.8099C5 63.6012 5 59.4008 5 51V29Z" fill="#4087FC" />
  <path d="M20.6667 25C18.9178 25 17.5 26.599 17.5 28.5714V45.8929C17.5 50.9226 21.1153 55 25.575 55L44.3333 54.8215C46.0822 54.8215 47.5 53.2225 47.5 51.2501V33.7501C47.5 28.7203 43.2097 25.0001 38.75 25.0001L20.6667 25Z" fill="white" />
  <path d="M51.7805 31.819C50.6489 32.9379 50 34.5528 50 36.2501V43.4983C50 45.1955 50.6489 46.8104 51.7805 47.9293L58.822 54.1311C60.2548 55.5479 62.5 54.4003 62.5 52.2513V27.8379C62.5 25.6889 60.2548 24.5413 58.822 25.9581L51.7805 31.819Z" fill="white" />
</svg>