<svg viewBox="0 0 80 80" fill="none">
  <path d="M17.8654 49.271L14.5175 50.4942L14.3394 60.4526L25.9279 56.2193C21.9498 54.8871 19.0487 52.5391 17.8654 49.271Z" fill="#FDBD39" class="fill-brown" />
  <path d="M19.6177 38.7383L8 42.9822L14.5175 50.4969L17.8654 49.2737C16.6847 46.0163 17.4133 42.3387 19.6177 38.7383Z" fill="#F69833" class="fill-brown" />
  <path d="M39.165 24.3652C24.3722 29.7685 14.8339 40.9209 17.8653 49.2706L71.4337 29.702C68.4023 21.3524 53.9578 18.9618 39.165 24.3652Z" fill="#FECF33" class="fill-yellow" />
  <path d="M50.1314 54.61C64.9241 49.2067 74.4784 38.1048 71.431 29.7046L17.8628 49.2705C20.9102 57.6733 35.3386 60.0134 50.1314 54.61Z" fill="#EE6723" class="fill-brown" />
  <path d="M71.431 29.7021L17.8655 49.2707C18.9132 52.1638 22.9152 53.5891 28.5259 53.5891C33.9984 53.5891 41.0026 52.2356 48.3046 49.5685C63.0973 44.1652 73.5025 35.414 71.431 29.7021Z" fill="#F69833" class="fill-brown" />
  <path d="M60.7704 25.3862C55.3006 25.3862 48.2938 26.7397 40.9918 29.4068C26.199 34.8102 15.7938 43.5587 17.8653 49.2705L71.4335 29.702C70.3832 26.8089 66.3838 25.3862 60.7704 25.3862Z" fill="#FDBD39" class="fill-brown" />
  <path opacity="0.9" d="M46.7316 22.2556C45.3289 17.2769 43.6701 14.22 42.1381 14.3554C39.2543 14.6103 37.9122 26.0811 39.1404 39.9762C40.3687 53.8712 43.7022 64.9287 46.586 64.6738C48.2504 64.5267 49.4012 60.6438 49.8408 54.7152C49.9376 54.6805 50.0345 54.6454 50.1314 54.61C52.7146 53.6665 55.1381 52.5491 57.3626 51.3027C59.4567 55.9461 60.1367 59.2986 58.8901 60.1752C56.5219 61.8405 48.0977 53.9402 40.0741 42.5295C32.0506 31.1189 27.466 20.5187 29.8343 18.8535C31.2133 17.8838 34.6456 20.1575 38.8566 24.479" stroke="#EE6723" stroke-width="1.2" class="stroke-brown" />
</svg>