<svg viewBox="0 0 80 80" fill="none">
  <mask id="mask0" mask-type="alpha" maskUnits="userSpaceOnUse" x="0" y="0" width="80" height="80">
    <rect width="80" height="80" rx="40" fill="white" class="fill-white" />
  </mask>
  <g mask="url(#mask0)">
    <rect width="80" height="80" fill="white" class="fill-white" />
    <rect width="16" height="80" fill="#FF0000" class="fill-red" />
    <rect x="64" width="16" height="80" fill="#FF0000" class="fill-red" />
    <path fill-rule="evenodd" clip-rule="evenodd" d="M39.8072 19L44.9245 25.8732L48.7156 24.7052L45.4841 39.0584L45.5195 39.1753L49.5909 32.5885L51.0195 35.3422L57.1499 34.422L57.15 34.4221L56.2462 40.664L58.9502 42.1182L48.443 48.8496L49.8072 53.3636L39.8072 50.6314L29.8072 53.3636L31.1613 48.8825L20.6059 42.1438L23.3575 40.664L22.4536 34.422L28.5842 35.3422L30.0381 32.5397L33.7934 38.6363L30.6409 24.6258L34.6899 25.8732L39.8072 19Z" fill="#FF0000" class="fill-red" />
    <path d="M39.8071 40.6362L39.8073 60.9999" stroke="#FF0000" stroke-width="3" stroke-linecap="square" stroke-linejoin="round" class="stroke-red" />
  </g>
</svg>