<svg viewBox="0 0 80 80" fill="none">
  <path d="M50.6667 35.2H52.6667C52.6667 34.0954 51.7712 33.2 50.6667 33.2V35.2ZM50.6667 49.6H52.6667H50.6667ZM48 37.2C49.1046 37.2 50 36.3046 50 35.2C50 34.0954 49.1046 33.2 48 33.2V37.2ZM42.6667 18C43.7712 18 44.6667 17.1046 44.6667 16C44.6667 14.8954 43.7712 14 42.6667 14V18ZM50.6667 35.2H48.6667C48.6667 35.7304 48.8774 36.2391 49.2525 36.6142C49.6275 36.9893 50.1362 37.2 50.6667 37.2V35.2ZM56 37.2C57.1046 37.2 58 36.3046 58 35.2C58 34.0954 57.1046 33.2 56 33.2V37.2ZM52.6667 30.4C52.6667 29.2954 51.7712 28.4 50.6667 28.4C49.5621 28.4 48.6667 29.2954 48.6667 30.4L52.6667 30.4ZM38.4 33.2C29.3425 33.2 22 40.5425 22 49.6H26C26 42.7517 31.5517 37.2 38.4 37.2V33.2ZM50.6667 33.2H38.4V37.2H50.6667V33.2ZM52.6667 49.6L52.6667 35.2H48.6667L48.6667 49.6H52.6667ZM52.6667 50.6667V49.6H48.6667V50.6667H52.6667ZM37.3333 66C45.8017 66 52.6667 59.135 52.6667 50.6667H48.6667C48.6667 56.9259 43.5926 62 37.3333 62V66ZM22 50.6667C22 59.135 28.865 66 37.3333 66V62C31.0741 62 26 56.9259 26 50.6667H22ZM22 49.6V50.6667H26V49.6H22ZM48 33.2H36.2667V37.2H48V33.2ZM36.2667 18L42.6667 18V14L36.2667 14V18ZM36.2667 33.2C32.0693 33.2 28.6667 29.7974 28.6667 25.6H24.6667C24.6667 32.0065 29.8602 37.2 36.2667 37.2V33.2ZM28.6667 25.6C28.6667 21.4026 32.0693 18 36.2667 18V14C29.8602 14 24.6667 19.1935 24.6667 25.6H28.6667ZM50.6667 37.2H56V33.2H50.6667V37.2ZM48.6667 30.4L48.6667 35.2H52.6667L52.6667 30.4L48.6667 30.4Z" fill="#7AC70C" class="fill-green" />
</svg>