<svg viewBox="0 0 80 80" fill="none">
  <path d="M55.2689 59.5824L30.0183 34.3317C28.5096 32.8231 27.6648 30.7663 27.6708 28.6328V28.6328C27.6832 24.2203 31.2722 20.6331 35.6847 20.6492V20.6492C37.7923 20.6568 39.8114 21.4975 41.3018 22.9878L41.9517 23.6378L42.2758 23.9619" stroke="#D33131" stroke-width="4" stroke-linecap="round" stroke-linejoin="round" class="stroke-red" />
  <path d="M32.5546 57.8285L33.5546 56.0965L32.5546 57.8285ZM27.8249 31.9788C28.6004 31.1922 29.8667 31.1833 30.6532 31.9588C31.4398 32.7343 31.4487 34.0006 30.6732 34.7872L27.8249 31.9788ZM52.2496 37.7697C51.7164 36.8023 52.0684 35.5859 53.0358 35.0527C54.0031 34.5196 55.2196 34.8715 55.7527 35.8389L52.2496 37.7697ZM48.1431 57.8285L49.1431 59.5606V59.5606L48.1431 57.8285ZM26.7604 44.3285C26.7604 49.1832 29.3503 53.6691 33.5546 56.0965L31.5546 59.5606C26.1127 56.4187 22.7604 50.6123 22.7604 44.3285H26.7604ZM22.7604 44.3285C22.7604 39.6444 24.6232 35.226 27.8249 31.9788L30.6732 34.7872C28.199 37.2966 26.7604 40.7103 26.7604 44.3285H22.7604ZM53.9373 44.3285C53.9373 41.9943 53.3387 39.7458 52.2496 37.7697L55.7527 35.8389C57.1622 38.3961 57.9373 41.3074 57.9373 44.3285H53.9373ZM47.1431 56.0965C51.3473 53.6691 53.9373 49.1832 53.9373 44.3285H57.9373C57.9373 50.6123 54.5849 56.4187 49.1431 59.5606L47.1431 56.0965ZM49.1431 59.5606C43.7012 62.7025 36.9965 62.7025 31.5546 59.5606L33.5546 56.0965C37.7589 58.5238 42.9388 58.5238 47.1431 56.0965L49.1431 59.5606Z" fill="#D33131" class="fill-red" />
</svg>