<svg viewBox="0 0 80 80" fill="none">
  <path d="M24 40H41V36H24V40ZM41 40H43V36H41V40ZM41 14H24.5V18H41V14ZM43 62H24.5V66H43V62ZM22 16.5V38H26V16.5H22ZM22 38V63.5H26V38H22ZM41 40C48.1797 40 54 34.1797 54 27H50C50 31.9706 45.9706 36 41 36V40ZM41 18C45.9706 18 50 22.0294 50 27H54C54 19.8203 48.1797 14 41 14V18ZM43 40C49.0751 40 54 44.9249 54 51H58C58 42.7157 51.2843 36 43 36V40ZM24.5 62C25.3284 62 26 62.6716 26 63.5H22C22 64.8807 23.1193 66 24.5 66V62ZM54 51C54 57.0751 49.0751 62 43 62V66C51.2843 66 58 59.2843 58 51H54ZM24.5 14C23.1193 14 22 15.1193 22 16.5H26C26 17.3284 25.3284 18 24.5 18V14Z" fill="#1CB0F6" class="fill-blue" />
</svg>