<svg viewBox="0 0 80 80" fill="none">
  <path fill-rule="evenodd" clip-rule="evenodd" d="M25 12C17.8203 12 12 17.8203 12 25V43C12 49.8432 17.2876 55.4515 24 55.9621V68L40 56H55C62.1797 56 68 50.1797 68 43V25C68 17.8203 62.1797 12 55 12H25Z" fill="#7AC70C" class="fill-green" />
  <path d="M24 55.9621H26C26 54.9164 25.1944 54.0472 24.1517 53.9679L24 55.9621ZM24 68H22C22 68.7575 22.428 69.4501 23.1056 69.7889C23.7831 70.1276 24.594 70.0545 25.2 69.6L24 68ZM40 56V54C39.5673 54 39.1462 54.1404 38.8 54.4L40 56ZM14 25C14 18.9249 18.9249 14 25 14V10C16.7157 10 10 16.7157 10 25H14ZM14 43V25H10V43H14ZM24.1517 53.9679C18.474 53.536 14 48.7895 14 43H10C10 50.897 16.1011 57.367 23.8483 57.9563L24.1517 53.9679ZM22 55.9621V68H26V55.9621H22ZM25.2 69.6L41.2 57.6L38.8 54.4L22.8 66.4L25.2 69.6ZM55 54H40V58H55V54ZM66 43C66 49.0751 61.0751 54 55 54V58C63.2843 58 70 51.2843 70 43H66ZM66 25V43H70V25H66ZM55 14C61.0751 14 66 18.9249 66 25H70C70 16.7157 63.2843 10 55 10V14ZM25 14H55V10H25V14Z" fill="#7AC70C" class="fill-green" />
  <rect x="20.6582" y="19" width="39" height="30" rx="8" fill="#FFC200" class="fill-yellow" />
</svg>