<svg viewBox="0 0 80 80" fill="none">
  <path fill-rule="evenodd" clip-rule="evenodd" d="M31.9885 16.2848L29.8009 22H14C12.3431 22 11 23.3432 11 25V61C11 62.6569 12.3431 64 14 64H34.8749C33.8029 63.5851 32.7552 63.0851 31.7417 62.5C24.775 58.4777 20.4833 51.0444 20.4833 43C20.4833 34.9555 24.775 27.5222 31.7417 23.5C38.7083 19.4777 47.2917 19.4777 54.2583 23.5C61.225 27.5222 65.5167 34.9555 65.5167 43C65.5167 51.0444 61.225 58.4777 54.2583 62.5C53.2448 63.0851 52.1971 63.5851 51.1251 64H64C65.6569 64 67 62.6569 67 61V25C67 23.3432 65.6569 22 64 22H56.3202L54.1326 16.2848C53.8363 15.5108 53.0934 14.9998 52.2647 14.9998H33.8564C33.0277 14.9998 32.2848 15.5108 31.9885 16.2848Z" fill="#252525" class="fill-grey" />
  <path fill-rule="evenodd" clip-rule="evenodd" d="M23.9151 22H16.1195L16.6504 19.5726C16.8513 18.6545 17.6644 18 18.6042 18H21.4304C22.3703 18 23.1834 18.6545 23.3842 19.5726L23.9151 22Z" fill="#D33131" class="fill-red" />
  <path fill-rule="evenodd" clip-rule="evenodd" d="M50.8302 15L35.239 15L36.4645 12.1984C36.783 11.4704 37.5022 11 38.2969 11L47.7723 11C48.5669 11 49.2861 11.4704 49.6046 12.1984L50.8302 15Z" fill="#606060" class="fill-grey" />
  <path d="M31.7417 23.5C38.7083 19.4778 47.2917 19.4778 54.2583 23.5C61.225 27.5222 65.5167 34.9556 65.5167 43C65.5167 51.0444 61.225 58.4778 54.2583 62.5C47.2917 66.5222 38.7083 66.5222 31.7417 62.5C24.775 58.4778 20.4833 51.0444 20.4833 43C20.4833 34.9556 24.775 27.5222 31.7417 23.5Z" fill="#84D3FF" class="fill-blue" />
  <path d="M36.0718 31C40.359 28.5248 45.641 28.5248 49.9282 31C54.2154 33.4752 56.8564 38.0496 56.8564 43C56.8564 47.9504 54.2154 52.5248 49.9282 55C45.641 57.4752 40.359 57.4752 36.0718 55C31.7846 52.5248 29.1436 47.9504 29.1436 43C29.1436 38.0496 31.7846 33.4752 36.0718 31Z" fill="#252525" class="fill-grey" />
  <path d="M39.5353 36.9998L40.5353 38.7319L39.5353 36.9998ZM34.5085 45.7568C34.8498 46.8073 35.9781 47.3822 37.0286 47.0408C38.0791 46.6995 38.654 45.5712 38.3127 44.5207L34.5085 45.7568ZM42.9982 38.0718C44.1027 38.0716 44.998 37.1761 44.9979 36.0715C44.9978 34.967 44.1022 34.0716 42.9977 34.0718L42.9982 38.0718ZM38.0718 42.9987C38.0718 41.2385 39.0109 39.612 40.5353 38.7319L38.5353 35.2678C35.7733 36.8624 34.0718 39.8094 34.0718 42.9987H38.0718ZM38.3127 44.5207C38.1553 44.0363 38.0718 43.5239 38.0718 42.9987H34.0718C34.0718 43.9489 34.223 44.8783 34.5085 45.7568L38.3127 44.5207ZM42.9977 34.0718C41.4572 34.072 39.9159 34.4707 38.5353 35.2678L40.5353 38.7319C41.2974 38.2919 42.1473 38.0719 42.9982 38.0718L42.9977 34.0718Z" fill="#84D3FF" class="fill-blue" />
</svg>