<svg viewBox="0 0 80 80" fill="none">
  <path fill-rule="evenodd" clip-rule="evenodd" d="M11.5147 48.5147C9.26427 50.7651 8 53.8173 8 56.9999C8 60.1825 9.26436 63.2348 11.5148 65.4853C13.7652 67.7357 16.8175 69 20 69H40H60C63.1825 69 66.2348 67.7357 68.4852 65.4853C70.7356 63.2348 72 60.1825 72 56.9999C72 53.8173 70.7357 50.7651 68.4853 48.5147C66.2349 46.2643 63.1826 45 60 45C56.8174 45 53.7651 46.2643 51.5147 48.5147C50.9451 49.0842 50.4387 49.7052 50 50.3666C49.5613 49.7052 49.0549 49.0842 48.4853 48.5147C46.2349 46.2643 43.1826 45 40 45C36.8174 45 33.7651 46.2643 31.5147 48.5147C30.9451 49.0842 30.4387 49.7052 30 50.3666C29.5613 49.7052 29.0549 49.0842 28.4853 48.5147C26.2349 46.2643 23.1826 45 20 45C16.8174 45 13.7651 46.2643 11.5147 48.5147Z" fill="#606060" class="fill-grey" />
  <path fill-rule="evenodd" clip-rule="evenodd" d="M30.9605 33.3285L24.4161 23.9279L23.9206 24.6397C21.3682 28.3059 20 32.666 20 37.1332V39C20 41.1036 20.3248 43.1313 20.9269 45.0358C23.7704 45.256 26.4544 46.4838 28.4853 48.5147C29.0549 49.0842 29.5613 49.7052 30 50.3666C30.4387 49.7052 30.9451 49.0842 31.5147 48.5147C33.7651 46.2643 36.8174 45 40 45C43.1826 45 46.2349 46.2643 48.4853 48.5147C49.0549 49.0842 49.5613 49.7052 50 50.3666C50.4387 49.7052 50.9451 49.0842 51.5147 48.5147C53.5456 46.4838 56.2296 45.256 59.0731 45.0358C59.6752 43.1313 60 41.1036 60 39V37.1332C60 32.666 58.6318 28.3059 56.0794 24.6396L46.5839 11L31.0395 33.3285C31.0204 33.356 30.9797 33.356 30.9605 33.3285Z" fill="#D33131" class="fill-red" />
  <path fill-rule="evenodd" clip-rule="evenodd" d="M30.9606 42.5629L26.3496 35.9396C26.1186 36.9469 26 37.9828 26 39.0286C26 43.1675 27.8192 46.8815 30.7016 49.4146C30.9562 49.1025 31.2274 48.8021 31.5147 48.5148C33.7651 46.2644 36.8175 45.0001 40.0001 45.0001C43.1826 45.0001 46.235 46.2644 48.4854 48.5148C48.7727 48.8021 49.0439 49.1025 49.2985 49.4145C52.1808 46.8814 54 43.1675 54 39.0286C54 36.0137 53.0142 33.0815 51.1929 30.6789L45.0001 22.5095L31.0396 42.5629C31.0204 42.5904 30.9797 42.5904 30.9606 42.5629Z" fill="#FFC200" class="fill-yellow" />
  <path fill-rule="evenodd" clip-rule="evenodd" d="M28 56.9999C28 53.8173 29.2643 50.7651 31.5147 48.5147C33.7651 46.2643 36.8174 45 40 45C43.1826 45 46.2349 46.2643 48.4853 48.5147C50.7357 50.7651 52 53.8173 52 56.9999C52 60.1825 50.7356 63.2348 48.4852 65.4853C46.2348 67.7357 43.1825 69 40 69C36.8175 69 33.7652 67.7357 31.5148 65.4853C29.2644 63.2348 28 60.1825 28 56.9999Z" fill="#D2D2D2" class="fill-undefined" />
</svg>