<svg viewBox="0 0 80 80" fill="none">
  <path fill-rule="evenodd" clip-rule="evenodd" d="M20.6716 37.5573C20.4249 38.3274 20.2917 39.1482 20.2917 40.0001V49.4417C20.2917 53.2551 22.9834 56.5385 26.7228 57.2863L38.7228 59.6863C39.7585 59.8935 40.825 59.8935 41.8607 59.6863L53.8607 57.2863C57.6001 56.5385 60.2917 53.2551 60.2917 49.4417V40.0001C60.2917 39.0833 60.1375 38.2025 59.8536 37.3823L40.3162 43.8947C40.111 43.9631 39.889 43.9631 39.6838 43.8947L20.6716 37.5573Z" fill="black" class="fill-grey" />
  <path d="M20.6716 37.5573L21.304 35.66C20.7969 35.4909 20.2433 35.5319 19.7666 35.7738C19.29 36.0156 18.9299 36.4382 18.7669 36.9472L20.6716 37.5573ZM26.7228 57.2863L26.3306 59.2475H26.3306L26.7228 57.2863ZM38.7228 59.6863L39.1151 57.7252L38.7228 59.6863ZM41.8607 59.6863L41.4684 57.7252L41.8607 59.6863ZM53.8607 57.2863L53.4684 55.3252L53.8607 57.2863ZM59.8536 37.3823L61.7436 36.7281C61.3852 35.6927 60.2605 35.1384 59.2211 35.4849L59.8536 37.3823ZM40.3162 43.8947L40.9487 45.7921L40.3162 43.8947ZM39.6838 43.8947L40.3162 41.9974L39.6838 43.8947ZM22.2917 40.0001C22.2917 39.3577 22.392 38.7426 22.5762 38.1674L18.7669 36.9472C18.4578 37.9121 18.2917 38.9387 18.2917 40.0001H22.2917ZM22.2917 49.4417V40.0001H18.2917V49.4417H22.2917ZM27.1151 55.3252C24.3105 54.7643 22.2917 52.3018 22.2917 49.4417H18.2917C18.2917 54.2085 21.6564 58.3127 26.3306 59.2475L27.1151 55.3252ZM39.1151 57.7252L27.1151 55.3252L26.3306 59.2475L38.3306 61.6475L39.1151 57.7252ZM41.4684 57.7252C40.6917 57.8805 39.8918 57.8805 39.1151 57.7252L38.3306 61.6475C39.6252 61.9064 40.9583 61.9064 42.2529 61.6475L41.4684 57.7252ZM53.4684 55.3252L41.4684 57.7252L42.2529 61.6475L54.2529 59.2475L53.4684 55.3252ZM58.2917 49.4417C58.2917 52.3018 56.273 54.7643 53.4684 55.3252L54.2529 59.2475C58.9272 58.3127 62.2917 54.2085 62.2917 49.4417H58.2917ZM58.2917 40.0001V49.4417H62.2917V40.0001H58.2917ZM57.9636 38.0365C58.1757 38.6491 58.2917 39.309 58.2917 40.0001H62.2917C62.2917 38.8577 62.0994 37.7559 61.7436 36.7281L57.9636 38.0365ZM59.2211 35.4849L39.6838 41.9974L40.9487 45.7921L60.4861 39.2796L59.2211 35.4849ZM39.6838 41.9974C39.889 41.9289 40.111 41.9289 40.3162 41.9974L39.0513 45.7921C39.6671 45.9974 40.3329 45.9974 40.9487 45.7921L39.6838 41.9974ZM40.3162 41.9974L21.304 35.66L20.0391 39.4547L39.0513 45.7921L40.3162 41.9974Z" fill="black" class="fill-grey" />
  <path d="M39.6838 20.1054C39.889 20.037 40.111 20.037 40.3162 20.1054L73.154 31.0513C74.0657 31.3552 74.0656 32.6448 73.154 32.9487L40.3162 43.8946C40.111 43.963 39.889 43.963 39.6838 43.8946L6.84604 32.9487C5.93435 32.6448 5.93435 31.3552 6.84605 31.0513L39.6838 20.1054Z" fill="black" stroke="#FFC200" stroke-width="4" stroke-linecap="round" stroke-linejoin="round" class="fill-grey stroke-yellow" />
  <path d="M39 31L16.077 37.5494C13.0718 38.408 11 41.1547 11 44.2801V50.5M10 62L11 50.5M11 50.5L12 62" stroke="#FFC200" stroke-width="4" stroke-linecap="round" class="stroke-yellow" />
</svg>