<svg viewBox="0 0 80 80" fill="none">
  <path fill-rule="evenodd" clip-rule="evenodd" d="M49.8987 16.1007C43.5601 13.4752 36.4382 13.4752 30.0997 16.1007C23.7611 18.7262 18.7252 23.7622 16.0997 30.1007C13.4742 36.4393 13.4742 43.5612 16.0997 49.8997C18.7252 56.2383 23.7611 61.2742 30.0997 63.8997C36.4382 66.5252 43.5601 66.5252 49.8987 63.8997C50.1666 63.7887 50.4322 63.6735 50.6954 63.5539C52.4693 62.7484 51.7084 60.1519 49.8243 59.6557C48.9428 59.4236 48.0732 59.1312 47.2215 58.7784C42.2412 56.7155 38.2844 52.7587 36.2215 47.7784C34.1586 42.7981 34.1586 37.2024 36.2215 32.2221C38.2844 27.2418 42.2412 23.285 47.2215 21.2221C48.0732 20.8693 48.9429 20.5769 49.8244 20.3447C51.7084 19.8486 52.4694 17.2521 50.6955 16.4465C50.4322 16.327 50.1666 16.2117 49.8987 16.1007Z" fill="#7B61FF" class="fill-purple" />
  <path d="M30.0997 16.1007L29.3343 14.253L30.0997 16.1007ZM49.8987 16.1007L50.664 14.253V14.253L49.8987 16.1007ZM16.0997 30.1007L17.9474 30.8661H17.9474L16.0997 30.1007ZM16.0997 49.8997L17.9474 49.1343L16.0997 49.8997ZM30.0997 63.8997L29.3343 65.7475L30.0997 63.8997ZM49.8987 63.8997L50.664 65.7475L49.8987 63.8997ZM47.2215 58.7784L46.4562 60.6262L47.2215 58.7784ZM36.2215 47.7784L34.3738 48.5438L36.2215 47.7784ZM36.2215 32.2221L34.3738 31.4567L36.2215 32.2221ZM47.2215 21.2221L46.4562 19.3743L47.2215 21.2221ZM50.6955 16.4465L49.8685 18.2676L50.6955 16.4465ZM50.6954 63.5539L49.8685 61.7329L50.6954 63.5539ZM49.8243 59.6557L49.315 61.5898L49.8243 59.6557ZM30.8651 17.9485C36.7135 15.526 43.2848 15.526 49.1333 17.9485L50.664 14.253C43.8354 11.4245 36.1629 11.4245 29.3343 14.253L30.8651 17.9485ZM17.9474 30.8661C20.37 25.0176 25.0166 20.371 30.8651 17.9485L29.3343 14.253C22.5057 17.0815 17.0804 22.5068 14.2519 29.3354L17.9474 30.8661ZM17.9474 49.1343C15.5249 43.2859 15.5249 36.7146 17.9474 30.8661L14.2519 29.3354C11.4234 36.164 11.4234 43.8365 14.2519 50.6651L17.9474 49.1343ZM30.8651 62.052C25.0166 59.6294 20.37 54.9828 17.9474 49.1343L14.2519 50.6651C17.0804 57.4937 22.5057 62.919 29.3343 65.7475L30.8651 62.052ZM49.1333 62.052C43.2848 64.4745 36.7135 64.4745 30.8651 62.052L29.3343 65.7475C36.1629 68.576 43.8354 68.576 50.664 65.7475L49.1333 62.052ZM49.8685 61.7329C49.6256 61.8432 49.3805 61.9495 49.1333 62.052L50.664 65.7475C50.9527 65.6279 51.2388 65.5037 51.5223 65.375L49.8685 61.7329ZM50.3336 57.7217C49.5389 57.5124 48.7548 57.2487 47.9869 56.9307L46.4562 60.6262C47.3915 61.0136 48.3467 61.3348 49.315 61.5898L50.3336 57.7217ZM47.9869 56.9307C43.4967 55.0707 39.9292 51.5033 38.0693 47.0131L34.3738 48.5438C36.6396 54.0141 40.9858 58.3603 46.4562 60.6262L47.9869 56.9307ZM38.0693 47.0131C36.2094 42.5228 36.2094 37.4777 38.0693 32.9874L34.3738 31.4567C32.1079 36.927 32.1079 43.0734 34.3738 48.5438L38.0693 47.0131ZM38.0693 32.9874C39.9292 28.4972 43.4967 24.9297 47.9869 23.0698L46.4562 19.3743C40.9858 21.6402 36.6396 25.9864 34.3738 31.4567L38.0693 32.9874ZM47.9869 23.0698C48.7548 22.7517 49.5389 22.4881 50.3336 22.2788L49.3151 18.4107C48.3468 18.6656 47.3915 18.9869 46.4562 19.3743L47.9869 23.0698ZM49.1333 17.9485C49.3806 18.0509 49.6257 18.1573 49.8685 18.2676L51.5224 14.6255C51.2388 14.4967 50.9527 14.3725 50.664 14.253L49.1333 17.9485ZM50.3336 22.2788C52.0436 21.8285 53.2062 20.4521 53.5714 18.9991C53.7586 18.2539 53.7606 17.3941 53.4245 16.5702C53.0757 15.7152 52.4136 15.0302 51.5224 14.6255L49.8685 18.2676C49.8787 18.2722 49.8518 18.2613 49.8124 18.2209C49.7729 18.1804 49.7411 18.1307 49.7209 18.0812C49.6821 17.9861 49.7087 17.9576 49.692 18.0242C49.6757 18.0891 49.6311 18.1815 49.5527 18.2643C49.4792 18.3419 49.3975 18.389 49.3151 18.4107L50.3336 22.2788ZM51.5223 65.375C52.4135 64.9703 53.0756 64.2852 53.4244 63.4303C53.7606 62.6063 53.7585 61.7466 53.5713 61.0014C53.2062 59.5484 52.0435 58.1719 50.3336 57.7217L49.315 61.5898C49.3974 61.6115 49.4791 61.6586 49.5527 61.7362C49.631 61.8189 49.6756 61.9114 49.6919 61.9762C49.7087 62.0429 49.682 62.0143 49.7208 61.9193C49.741 61.8698 49.7728 61.8201 49.8123 61.7796C49.8517 61.7392 49.8787 61.7283 49.8685 61.7329L51.5223 65.375Z" fill="#7B61FF" class="fill-purple" />
  <path fill-rule="evenodd" clip-rule="evenodd" d="M31.2788 19.8129C32.2027 19.4302 33.2407 19.4302 34.1646 19.8129C35.0884 20.1955 35.8224 20.9295 36.2051 21.8534C36.5877 22.7772 36.5877 23.8152 36.2051 24.7391C35.8224 25.6629 35.0884 26.3969 34.1646 26.7796C33.2407 27.1623 32.2027 27.1623 31.2788 26.7796C30.355 26.3969 29.621 25.6629 29.2383 24.7391C28.8557 23.8152 28.8557 22.7772 29.2383 21.8534C29.621 20.9295 30.355 20.1955 31.2788 19.8129ZM21.5228 33.4946C23.1155 32.8349 24.9051 32.8349 26.4979 33.4946C28.0906 34.1543 29.356 35.4197 30.0157 37.0125C30.6755 38.6052 30.6755 40.3948 30.0157 41.9875C29.356 43.5803 28.0906 44.8457 26.4979 45.5054C24.9051 46.1651 23.1155 46.1651 21.5228 45.5054C19.9301 44.8457 18.6647 43.5803 18.0049 41.9875C17.3452 40.3948 17.3452 38.6052 18.0049 37.0125C18.6647 35.4197 19.9301 34.1543 21.5228 33.4946ZM37.5466 55.7979C37.1856 55.6483 36.78 55.6483 36.419 55.7979C36.058 55.9474 35.7712 56.2342 35.6216 56.5952C35.4721 56.9562 35.4721 57.3619 35.6216 57.7229C35.7712 58.0839 36.058 58.3707 36.419 58.5202C36.78 58.6698 37.1856 58.6698 37.5466 58.5202C37.9076 58.3707 38.1944 58.0839 38.344 57.7229C38.4935 57.3619 38.4935 56.9562 38.344 56.5952C38.1944 56.2342 37.9076 55.9474 37.5466 55.7979Z" fill="#F4F4F4" class="fill-white" />
</svg>