<svg viewBox="0 0 80 80" fill="none">
  <path fill-rule="evenodd" clip-rule="evenodd" d="M32.1127 68.1128C32.1127 72.5311 35.6944 76.1128 40.1127 76.1128C44.5309 76.1128 48.1127 72.5311 48.1127 68.1128L48.1127 19.3745C48.1127 15.9684 46.9535 12.6638 44.8257 10.0041L41.7127 6.11279L40.9127 5.11279C40.5025 4.60013 39.7228 4.60013 39.3127 5.11279L38.5127 6.11279L35.3996 10.0041C33.2719 12.6638 32.1127 15.9684 32.1127 19.3745L32.1127 68.1128Z" fill="#FFC200" class="fill-yellow" />
  <path fill-rule="evenodd" clip-rule="evenodd" d="M32.2531 69.6128C32.1609 69.1269 32.1127 68.6255 32.1127 68.1128L32.1127 66.6128H48.1039C48.1068 66.6128 48.1097 66.6128 48.1127 66.6128V68.1128C48.1127 68.6255 48.0644 69.1269 47.9723 69.6128H32.2531ZM47.8126 16.6412C48.0111 17.6512 48.1127 18.6838 48.1127 19.7253V20.2259L45.8743 22.4655C44.8979 23.4424 43.3142 23.4424 42.3378 22.4655L40.1083 20.2347L37.8787 22.4655C36.9023 23.4424 35.3186 23.4424 34.3422 22.4655L32.1127 20.2347V19.7253C32.1127 18.6844 32.2142 17.6524 32.4124 16.6429C32.6913 16.6995 32.9573 16.836 33.1736 17.0524L36.1105 19.9909L38.34 17.7601C39.3164 16.7832 40.9001 16.7832 41.8765 17.7601L44.1061 19.9909L47.0429 17.0524C47.2614 16.8338 47.5306 16.6967 47.8126 16.6412Z" fill="#F4F4F4" class="fill-white" />
  <path fill-rule="evenodd" clip-rule="evenodd" d="M35.315 10.1099L38.5126 6.11279L39.3126 5.11279L40.1126 4.11279L40.9126 5.11279L41.7126 6.11279L44.9103 10.1099L35.315 10.1099Z" fill="black" class="fill-grey" />
  <path d="M40.1083 62.1128L40.1083 29.1128" stroke="#FF9100" stroke-width="4" stroke-linecap="round" stroke-linejoin="round" class="stroke-orange" />
</svg>