<svg viewBox="0 0 80 80" fill="none">
  <path fill-rule="evenodd" clip-rule="evenodd" d="M55.8074 61.9659C55.0938 63.3664 53.6239 64.2364 52.0613 64.0661C51.3897 63.9928 50.7188 63.9033 50.0491 63.7972C41.3208 62.4148 33.2542 58.3046 27.0054 52.0558C20.7566 45.8071 16.6465 37.7404 15.2641 29.0121C15.1581 28.3429 15.0685 27.6725 14.9954 27.0013C14.825 25.4387 15.6949 23.9688 17.0955 23.2551L23.2248 20.1321C25.597 18.9234 28.4673 20.3333 29.3016 22.8616C29.8075 24.395 30.4051 25.904 31.0934 27.3802C31.4384 28.1199 31.8043 28.8474 32.1904 29.5621C33.1045 31.2539 32.4879 33.4238 30.7373 34.2196C28.1948 35.3752 27.5892 38.7146 29.5641 40.6895L29.7253 40.8507L38.2106 49.336L38.3718 49.4972C40.3466 51.472 43.686 50.8665 44.8417 48.324C45.6813 46.4768 47.9571 45.808 49.7642 46.7306C50.2024 46.9543 50.6451 47.1705 51.0923 47.379C52.7867 48.1692 54.5242 48.8396 56.2924 49.3893C58.8666 50.1895 60.3278 53.0941 59.104 55.496L55.8074 61.9659Z" fill="#7AC70C" class="fill-green" />
</svg>