<svg viewBox="0 0 80 80" fill="none">
  <path fill-rule="evenodd" clip-rule="evenodd" d="M38.0078 54.1084C38.1651 53.966 38.2941 53.7882 38.3815 53.5816L43.8815 40.5816C43.973 40.3653 44.0124 40.1306 43.9967 39.8963L41.8404 7.89625C41.7869 7.10145 41.1214 6.48714 40.3248 6.49722C39.5283 6.5073 38.8785 7.13826 38.8451 7.93417L37.5049 39.8511L35.5615 52.4828C36.4904 52.8483 37.3223 53.4066 38.0078 54.1084ZM40.0001 38.9971C40.5523 38.9971 41.0001 39.4448 41.0001 39.9971C41.0001 40.5494 40.5523 40.9971 40.0001 40.9971C39.4478 40.9971 39.0001 40.5494 39.0001 39.9971C39.0001 39.4448 39.4478 38.9971 40.0001 38.9971Z" fill="#7B61FF" class="fill-purple" />
  <path d="M40 60.999C40 64.865 36.866 67.999 33 67.999V67.999C29.134 67.999 26 64.865 26 60.999L26 58.999C26 55.133 29.134 51.999 33 51.999V51.999C36.866 51.999 40 55.133 40 58.999L40 60.999Z" stroke="#7B61FF" stroke-width="4" stroke-linecap="round" stroke-linejoin="round" class="stroke-purple" />
  <path fill-rule="evenodd" clip-rule="evenodd" d="M41.9922 54.1091C41.8349 53.9667 41.7059 53.7889 41.6185 53.5823L36.1185 40.5823C36.027 40.366 35.9876 40.1313 36.0033 39.897L38.1596 7.89699C38.2131 7.10218 38.8786 6.48787 39.6752 6.49795C40.4717 6.50803 41.1215 7.139 41.1549 7.9349L42.4951 39.8519L44.4385 52.4836C43.5096 52.849 42.6777 53.4073 41.9922 54.1091ZM39.9999 38.9978C39.4477 38.9978 38.9999 39.4455 38.9999 39.9978C38.9999 40.5501 39.4477 40.9978 39.9999 40.9978C40.5522 40.9978 40.9999 40.5501 40.9999 39.9978C40.9999 39.4455 40.5522 38.9978 39.9999 38.9978Z" fill="#1CB0F6" class="fill-blue" />
  <path d="M40 60.9998C40 64.8657 43.134 67.9998 47 67.9998V67.9998C50.866 67.9998 54 64.8657 54 60.9998L54 58.9998C54 55.1338 50.866 51.9998 47 51.9998V51.9998C43.134 51.9998 40 55.1338 40 58.9998L40 60.9998Z" stroke="#1CB0F6" stroke-width="4" stroke-linecap="round" stroke-linejoin="round" class="stroke-blue" />
</svg>