<svg viewBox="0 0 80 80" fill="none">
  <path fill-rule="evenodd" clip-rule="evenodd" d="M49.7681 15.9691C43.4296 13.3436 36.3077 13.3436 29.9691 15.9691C23.6306 18.5946 18.5946 23.6306 15.9691 29.9691C13.3436 36.3077 13.3436 43.4296 15.9691 49.7681C18.5946 56.1067 23.6306 61.1426 29.9691 63.7681C36.3077 66.3936 43.4296 66.3936 49.7681 63.7681C50.2532 63.5672 50.0167 62.8448 49.4938 62.8918C45.7641 63.227 41.9738 62.6776 38.4427 61.2436L38.14 61.1207C32.5044 58.8321 28.0085 54.3988 25.6412 48.7958C23.23 43.0887 23.23 36.6489 25.6412 30.9418C28.0085 25.3388 32.5044 20.9055 38.14 18.6169L38.4427 18.494C41.9738 17.06 45.764 16.5106 49.4936 16.8458C50.0168 16.8928 50.2534 16.1701 49.7681 15.9691Z" fill="#D33131" class="fill-red" />
  <path d="M51.9417 31.3109C52.2776 30.4744 53.4617 30.4744 53.7976 31.3108L55.7392 36.1458C55.8822 36.502 56.2165 36.7449 56.5995 36.7709L61.7978 37.1233C62.6971 37.1843 63.063 38.3105 62.3713 38.8884L58.373 42.2291C58.0784 42.4752 57.9507 42.8682 58.0444 43.2404L59.3155 48.2932C59.5354 49.1674 58.5774 49.8634 57.814 49.3841L53.4013 46.6138C53.0762 46.4097 52.663 46.4097 52.3379 46.6138L47.9252 49.3841C47.1618 49.8634 46.2038 49.1674 46.4237 48.2932L47.6949 43.2404C47.7885 42.8682 47.6608 42.4752 47.3663 42.2291L43.3679 38.8884C42.6762 38.3105 43.0421 37.1843 43.9415 37.1233L49.1398 36.7709C49.5227 36.7449 49.857 36.502 50.0001 36.1458L51.9417 31.3109Z" fill="#FFC200" class="fill-yellow" />
</svg>