<svg viewBox="0 0 80 80" fill="none">
  <path fill-rule="evenodd" clip-rule="evenodd" d="M33.8564 54H56.7889C60.6025 54 64.2561 52.4673 66.9283 49.7465L67.0768 49.5953C69.5917 47.0347 71.0008 43.5891 71.0008 40C71.0008 36.4109 69.5917 32.9653 67.0768 30.4047L66.9283 30.2535C64.2561 27.5327 60.6025 26 56.7889 26L33.8564 26C34.1734 26.1553 34.4864 26.3219 34.7948 26.5C39.6179 29.2846 42.589 34.4308 42.589 40C42.589 45.5692 39.6179 50.7154 34.7948 53.5C34.4864 53.6781 34.1734 53.8447 33.8564 54Z" fill="#FFC200" class="fill-yellow" />
  <path d="M33.8564 54L32.9766 52.204C32.1409 52.6134 31.698 53.5451 31.9081 54.4516C32.1182 55.3582 32.9259 56 33.8564 56V54ZM66.9283 49.7465L65.5014 48.3451L65.5014 48.3451L66.9283 49.7465ZM67.0768 49.5953L68.5037 50.9967L68.5037 50.9967L67.0768 49.5953ZM67.0768 30.4047L68.5037 29.0033L68.5037 29.0033L67.0768 30.4047ZM66.9283 30.2535L65.5014 31.6549L65.5014 31.6549L66.9283 30.2535ZM56.7889 26V24V26ZM33.8564 26L33.8564 24C32.9259 24 32.1182 24.6418 31.9081 25.5484C31.698 26.4549 32.1409 27.3866 32.9765 27.796L33.8564 26ZM34.7948 26.5L33.7948 28.2321L33.7948 28.2321L34.7948 26.5ZM34.7948 53.5L33.7948 51.768L33.7948 51.768L34.7948 53.5ZM33.8564 56H56.7889V52H33.8564V56ZM56.7889 56C61.1392 56 65.3069 54.2516 68.3552 51.1479L65.5014 48.3451C63.2052 50.683 60.0658 52 56.7889 52V56ZM68.3552 51.1479L68.5037 50.9967L65.6499 48.1939L65.5014 48.3451L68.3552 51.1479ZM68.5037 50.9967C71.3859 48.0621 73.0008 44.1133 73.0008 40H69.0008C69.0008 43.0649 67.7975 46.0073 65.6499 48.1939L68.5037 50.9967ZM73.0008 40C73.0008 35.8867 71.3859 31.9379 68.5037 29.0033L65.6499 31.8061C67.7975 33.9927 69.0008 36.9351 69.0008 40H73.0008ZM68.5037 29.0033L68.3552 28.8521L65.5014 31.6549L65.6499 31.8061L68.5037 29.0033ZM68.3552 28.8521C65.3069 25.7484 61.1392 24 56.7889 24V28C60.0658 28 63.2052 29.317 65.5014 31.6549L68.3552 28.8521ZM56.7889 24L33.8564 24L33.8564 28L56.7889 28V24ZM32.9765 27.796C33.2529 27.9314 33.5258 28.0767 33.7948 28.2321L35.7948 24.7679C35.447 24.5672 35.0939 24.3791 34.7363 24.204L32.9765 27.796ZM33.7948 28.2321C37.9991 30.6594 40.589 35.1453 40.589 40H44.589C44.589 33.7163 41.2367 27.9098 35.7948 24.7679L33.7948 28.2321ZM40.589 40C40.589 44.8547 37.9991 49.3406 33.7948 51.768L35.7948 55.2321C41.2367 52.0902 44.589 46.2838 44.589 40H40.589ZM33.7948 51.768C33.5258 51.9233 33.2529 52.0686 32.9766 52.204L34.7363 55.796C35.094 55.6209 35.447 55.4328 35.7948 55.2321L33.7948 51.768Z" fill="#FFC200" class="fill-yellow" />
  <path d="M19.2058 26.5C24.0289 23.7154 29.9711 23.7154 34.7942 26.5C39.6173 29.2846 42.5885 34.4308 42.5885 40C42.5885 45.5692 39.6173 50.7154 34.7942 53.5C29.9711 56.2846 24.0289 56.2846 19.2058 53.5C14.3827 50.7154 11.4115 45.5692 11.4115 40C11.4115 34.4308 14.3827 29.2846 19.2058 26.5Z" fill="#D33131" stroke="#D33131" stroke-width="4" stroke-linecap="round" stroke-linejoin="round" class="fill-red stroke-red" />
</svg>