<svg viewBox="0 0 80 80" fill="none">
  <path fill-rule="evenodd" clip-rule="evenodd" d="M17.732 49.7466C17.357 49.3716 16.8484 49.161 16.3181 49.161H6.14648C5.04191 49.161 4.14648 48.2656 4.14648 47.161V33.1678C4.14648 32.0632 5.04191 31.1678 6.14648 31.1678H16.3185C16.8488 31.1678 17.3574 30.9572 17.7324 30.5823L28.7325 19.5863C29.9926 18.3267 32.1465 19.2191 32.1465 21.0008V21.1698V58.1559V59.3284C32.1465 61.1101 29.9926 62.0025 28.7325 60.7429L17.732 49.7466Z" fill="#D33131" class="fill-red" />
  <path d="M32.1465 21.1698H34.1465V21.1698L32.1465 21.1698ZM28.7325 60.7429L30.1465 59.3284L28.7325 60.7429ZM17.7324 30.5823L16.3185 29.1678L17.7324 30.5823ZM17.732 49.7466L16.3181 51.161L17.732 49.7466ZM16.3181 47.161H6.14648V51.161H16.3181V47.161ZM6.14648 47.161V33.1678H2.14648V47.161H6.14648ZM6.14648 33.1678H16.3185V29.1678H6.14648V33.1678ZM19.1464 31.9968L30.1465 21.0008L27.3186 18.1718L16.3185 29.1678L19.1464 31.9968ZM30.1465 21.0008V21.1698L34.1465 21.1698V21.0008L30.1465 21.0008ZM30.1465 21.1698V58.1559H34.1465V21.1698H30.1465ZM30.1465 58.1559V59.3284H34.1465V58.1559H30.1465ZM30.1465 59.3284L19.146 48.3321L16.3181 51.161L27.3186 62.1574L30.1465 59.3284ZM30.1465 59.3284L27.3186 62.1574C29.8387 64.6765 34.1465 62.8917 34.1465 59.3284H30.1465ZM30.1465 21.0008L30.1465 21.0008L34.1465 21.0008C34.1465 17.4375 29.8387 15.6527 27.3186 18.1718L30.1465 21.0008ZM16.3185 33.1678C17.3791 33.1678 18.3963 32.7466 19.1464 31.9968L16.3185 29.1678H16.3185V33.1678ZM6.14648 33.1678V33.1678V29.1678C3.93734 29.1678 2.14648 30.9587 2.14648 33.1678H6.14648ZM6.14648 47.161H6.14648H2.14648C2.14648 49.3702 3.93734 51.161 6.14648 51.161V47.161ZM16.3181 51.161H16.3181L19.146 48.3321C18.3959 47.5823 17.3787 47.161 16.3181 47.161V51.161Z" fill="#D33131" class="fill-red" />
  <path d="M41.3947 30.9091L39.9142 32.2538L39.9142 32.2538L41.3947 30.9091ZM44.6041 36.7602L42.6685 37.2634L42.6685 37.2634L44.6041 36.7602ZM38.3415 25.9742C37.3786 25.433 36.1593 25.7748 35.6181 26.7377C35.0769 27.7006 35.4187 28.9199 36.3816 29.4611L38.3415 25.9742ZM41.3947 49.1056L42.8751 50.4503L42.8751 50.4503L41.3947 49.1056ZM36.384 50.5522C35.4212 51.0936 35.0796 52.3129 35.621 53.2757C36.1624 54.2385 37.3817 54.5801 38.3445 54.0388L36.384 50.5522ZM44.6041 43.2544L42.6685 42.7512L42.6685 42.7512L44.6041 43.2544ZM53.2719 24.0853L51.7914 25.43L53.2719 24.0853ZM58.8884 34.3248L56.9528 34.828L56.9528 34.828L58.8884 34.3248ZM49.2285 18.0038C48.3094 17.3912 47.0677 17.6397 46.4551 18.5588C45.8424 19.4779 46.0909 20.7196 47.01 21.3322L49.2285 18.0038ZM53.2719 55.9292L51.7914 54.5845L51.7914 54.5845L53.2719 55.9292ZM47.0122 58.6808C46.0932 59.2935 45.8448 60.5352 46.4576 61.4543C47.0703 62.3733 48.312 62.6216 49.2311 62.0089L47.0122 58.6808ZM58.8884 45.6897L56.9528 45.1865L58.8884 45.6897ZM39.9142 32.2538C41.2644 33.7402 42.1982 35.4547 42.6685 37.2634L46.5398 36.257C45.8987 33.7912 44.6386 31.5058 42.8751 29.5643L39.9142 32.2538ZM36.3816 29.4611C37.7336 30.221 38.926 31.1659 39.9142 32.2538L42.8751 29.5643C41.5856 28.1447 40.051 26.935 38.3415 25.9742L36.3816 29.4611ZM39.9142 47.7608C38.9266 48.8481 37.735 49.7925 36.384 50.5522L38.3445 54.0388C40.0528 53.0782 41.5864 51.8691 42.8751 50.4503L39.9142 47.7608ZM42.6685 42.7512C42.1982 44.56 41.2644 46.2744 39.9142 47.7608L42.8751 50.4503C44.6386 48.5088 45.8987 46.2235 46.5398 43.7577L42.6685 42.7512ZM46.5398 43.7577C47.1812 41.2904 47.1812 38.7242 46.5398 36.257L42.6685 37.2634C43.1383 39.0707 43.1383 40.944 42.6685 42.7512L46.5398 43.7577ZM51.7914 25.43C54.3092 28.2019 56.0658 31.4163 56.9528 34.828L60.8241 33.8215C59.7663 29.7528 57.6835 25.9675 54.7523 22.7406L51.7914 25.43ZM47.01 21.3322C48.7919 22.5199 50.3983 23.8962 51.7914 25.43L54.7523 22.7406C53.1311 20.9557 51.2734 19.3669 49.2285 18.0038L47.01 21.3322ZM51.7914 54.5845C50.3989 56.1176 48.7932 57.4934 47.0122 58.6808L49.2311 62.0089C51.275 60.6463 53.1318 59.058 54.7523 57.2739L51.7914 54.5845ZM56.9528 45.1865C56.0658 48.5982 54.3092 51.8126 51.7914 54.5845L54.7523 57.2739C57.6835 54.0469 59.7663 50.2617 60.8241 46.1929L56.9528 45.1865ZM60.8241 46.1929C61.8822 42.1227 61.8822 37.8918 60.8241 33.8215L56.9528 34.828C57.8393 38.2382 57.8393 41.7763 56.9528 45.1865L60.8241 46.1929Z" fill="#FF9100" class="fill-orange" />
</svg>