<svg viewBox="0 0 80 80" fill="none">
  <path fill-rule="evenodd" clip-rule="evenodd" d="M34.9517 45.6001L32.392 54.3722C32.1543 55.1868 31.6636 55.9048 30.991 56.4222L26.5614 59.8296C24.8103 61.1765 24.4828 63.6879 25.8297 65.4389C27.1766 67.19 29.688 67.5175 31.439 66.1706L35.8687 62.7632C37.8866 61.2109 39.3586 59.0571 40.0717 56.6131L40.9069 53.7511L38.0882 49.805C36.6968 48.6621 35.6312 47.2123 34.9517 45.6001Z" fill="#FFC200" class="fill-yellow" />
  <path fill-rule="evenodd" clip-rule="evenodd" d="M36.6218 26.7121C37.9853 25.7383 39.619 25.2148 41.2945 25.2148C44.5524 25.2148 47.4883 27.181 48.7288 30.1935L50.1198 33.5716C50.4688 34.4192 51.0983 35.1212 51.9031 35.5602L54.9154 37.2033C56.8548 38.2611 57.5694 40.6909 56.5116 42.6303C55.4537 44.5696 53.024 45.2843 51.0846 44.2264L48.0723 42.5833C47.3384 42.1831 46.6531 41.7098 46.0252 41.1736L45.2179 46.0228L48.3722 50.4388C49.2473 51.664 49.8841 53.0429 50.2492 54.5035L52.3806 63.0298C52.9163 65.173 51.6132 67.3447 49.47 67.8805C47.3268 68.4162 45.1551 67.1131 44.6194 64.9699L42.488 56.4436C42.3663 55.9567 42.1541 55.4971 41.8624 55.0887L38.0881 49.8048C35.5838 47.7478 34.1348 44.6965 34.0933 41.4933L32.9865 43.4609C31.9035 45.3863 29.4646 46.0692 27.5392 44.9862C25.6137 43.9031 24.9309 41.4643 26.0139 39.5388L29.6405 33.0915C30.5034 31.5576 31.693 30.2323 33.1251 29.2094L36.6218 26.7121Z" fill="#FFC200" class="fill-yellow" />
  <path d="M40.6545 23.8705C42.1367 24.5843 43.8633 24.5843 45.3455 23.8705C46.8277 23.1567 47.9042 21.8068 48.2703 20.2029C48.6364 18.599 48.2522 16.9157 47.2264 15.6295C46.2007 14.3433 44.6451 13.5942 43 13.5942C41.3549 13.5942 39.7993 14.3433 38.7736 15.6295C37.7478 16.9157 37.3636 18.599 37.7297 20.2029C38.0958 21.8068 39.1723 23.1567 40.6545 23.8705Z" fill="#FF9100" stroke="#FF9100" stroke-width="4" stroke-linecap="square" stroke-linejoin="round" class="fill-orange stroke-orange" />
</svg>