<svg viewBox="0 0 80 80" fill="none">
  <path d="M26.1436 16C34.718 11.0496 45.282 11.0496 53.8564 16C62.4308 20.9504 67.7128 30.0992 67.7128 40C67.7128 49.9008 62.4308 59.0496 53.8564 64C45.282 68.9504 34.718 68.9504 26.1436 64C17.5692 59.0496 12.2872 49.9008 12.2872 40C12.2872 30.0992 17.5692 20.9504 26.1436 16Z" fill="#FFC200" />
  <path fill-rule="evenodd" clip-rule="evenodd" d="M40.133 22.6795C37.1426 22.6795 34.1522 23.453 31.4728 25C26.1138 28.094 22.8125 33.812 22.8125 40C22.8125 46.188 26.1138 51.906 31.4728 55C34.1522 56.547 37.1426 57.3205 40.133 57.3205L40.133 22.6795Z" fill="#7B61FF" />
</svg>