<svg viewBox="0 0 80 80" fill="none">
  <path d="M39.9999 68L39.3493 69.8912C39.7709 70.0363 40.2289 70.0363 40.6505 69.8912L39.9999 68ZM35.7793 66.5481L35.1287 68.4393L35.7793 66.5481ZM41.9999 26.9282C41.9999 25.8237 41.1045 24.9282 39.9999 24.9282C38.8953 24.9282 37.9999 25.8237 37.9999 26.9282H41.9999ZM44.2205 66.5481L43.5699 64.6569H43.5699L44.2205 66.5481ZM65.7466 50.9742C66.2846 50.0095 65.9387 48.7914 64.9741 48.2533C64.0094 47.7153 62.7912 48.0612 62.2532 49.0258L65.7466 50.9742ZM17.7466 49.0258C17.2085 48.0612 15.9904 47.7153 15.0257 48.2533C14.061 48.7914 13.7151 50.0095 14.2532 50.9742L17.7466 49.0258ZM40.6505 66.1088L36.4299 64.6569L35.1287 68.4393L39.3493 69.8912L40.6505 66.1088ZM37.9999 26.9282V68H41.9999V26.9282H37.9999ZM40.6505 69.8912L44.8711 68.4393L43.5699 64.6569L39.3493 66.1088L40.6505 69.8912ZM44.8711 68.4393C53.7431 65.3873 61.1765 59.1682 65.7466 50.9742L62.2532 49.0258C58.163 56.3594 51.5102 61.9254 43.5699 64.6569L44.8711 68.4393ZM36.4299 64.6569C28.4896 61.9254 21.8367 56.3594 17.7466 49.0258L14.2532 50.9742C18.8232 59.1682 26.2567 65.3873 35.1287 68.4393L36.4299 64.6569Z" fill="#2F80ED" />
  <path d="M16 42L21 50H20.7669H16H11.232H11L15.8832 42.187L16 42Z" fill="#9B51E0" stroke="#9B51E0" stroke-width="4" stroke-linecap="round" stroke-linejoin="round" />
  <path d="M64 42L69 50H68.7669H64H59.232H59L63.8832 42.187L64 42Z" fill="#9B51E0" stroke="#9B51E0" stroke-width="4" stroke-linecap="round" stroke-linejoin="round" />
  <path d="M36.5359 14C38.6795 12.7624 41.3205 12.7624 43.4641 14C45.6077 15.2376 46.9282 17.5248 46.9282 20C46.9282 22.4752 45.6077 24.7624 43.4641 26C41.3205 27.2376 38.6795 27.2376 36.5359 26C34.3923 24.7624 33.0718 22.4752 33.0718 20C33.0718 17.5248 34.3923 15.2376 36.5359 14Z" fill="#56CCF2" stroke="#2F80ED" stroke-width="4" stroke-linecap="round" stroke-linejoin="round" />
  <path d="M32 36H48" stroke="#9B51E0" stroke-width="4" stroke-linecap="round" stroke-linejoin="round" />
</svg>