<svg viewBox="0 0 80 80" fill="none">
  <path d="M16 50L16 50.5L16 64C16 66.2091 17.7909 68 20 68L60 68C62.2091 68 64 66.2091 64 64L64 50.5L64 50" stroke="#84D3FF" stroke-width="4" stroke-linecap="round" stroke-linejoin="round" class="stroke-blue" />
  <path fill-rule="evenodd" clip-rule="evenodd" d="M48 35.9997L56.4013 35.9997C59.5401 35.9997 61.0824 32.1785 58.8229 29.9997L43.8005 15.5138C41.7668 13.5527 38.5458 13.5527 36.5121 15.5138L21.4896 29.9997C19.2302 32.1784 20.7725 35.9997 23.9112 35.9997L32 35.9997L32 47.9997L32 53.9997C32 55.1043 32.8955 55.9997 34 55.9997L46 55.9997C47.1046 55.9997 48 55.1043 48 53.9997L48 47.9997L48 35.9997Z" fill="#84D3FF" class="fill-blue" />
  <path d="M48 35.9997L48 33.9997C47.4696 33.9997 46.9609 34.2104 46.5858 34.5855C46.2107 34.9606 46 35.4693 46 35.9997H48ZM58.8229 29.9997L60.2112 28.56L58.8229 29.9997ZM43.8005 15.5138L45.1888 14.0741V14.0741L43.8005 15.5138ZM36.5121 15.5138L35.1238 14.0741L35.1238 14.0741L36.5121 15.5138ZM21.4896 29.9997L20.1013 28.56H20.1013L21.4896 29.9997ZM32 35.9997L34 35.9997C34 34.8952 33.1046 33.9997 32 33.9997V35.9997ZM32 47.9997H34H32ZM48 47.9997H50H48ZM56.4013 33.9997L48 33.9997L48 37.9997L56.4013 37.9997L56.4013 33.9997ZM57.4347 31.4394C58.3988 32.3691 57.7407 33.9997 56.4013 33.9997L56.4013 37.9997C61.3395 37.9997 63.7659 31.9878 60.2112 28.56L57.4347 31.4394ZM42.4122 16.9535L57.4347 31.4394L60.2112 28.56L45.1888 14.0741L42.4122 16.9535ZM37.9003 16.9535C39.1593 15.7395 41.1532 15.7395 42.4122 16.9535L45.1888 14.0741C42.3803 11.3659 37.9323 11.3659 35.1238 14.0741L37.9003 16.9535ZM22.8779 31.4394L37.9003 16.9535L35.1238 14.0741L20.1013 28.56L22.8779 31.4394ZM23.9112 33.9997C22.5719 33.9997 21.9137 32.3691 22.8779 31.4394L20.1013 28.56C16.5466 31.9878 18.9731 37.9997 23.9112 37.9997L23.9112 33.9997ZM32 33.9997L23.9112 33.9997L23.9112 37.9997L32 37.9997L32 33.9997ZM34 47.9997L34 35.9997L30 35.9997L30 47.9997L34 47.9997ZM34 53.9997L34 47.9997L30 47.9997L30 53.9997L34 53.9997ZM34 53.9997L30 53.9997C30 56.2089 31.7909 57.9997 34 57.9997V53.9997ZM46 53.9997L34 53.9997V57.9997L46 57.9997V53.9997ZM46 53.9997V57.9997C48.2092 57.9997 50 56.2089 50 53.9997L46 53.9997ZM46 47.9997L46 53.9997L50 53.9997L50 47.9997L46 47.9997ZM46 35.9997L46 47.9997L50 47.9997L50 35.9997L46 35.9997Z" fill="#84D3FF" class="fill-blue" />
  <path d="M56.4013 36L23.9112 36C20.7724 36 19.2301 32.1787 21.4896 30L36.512 15.5141C38.5457 13.553 41.7667 13.553 43.8004 15.5141L58.8229 30C61.0823 32.1787 59.54 36 56.4013 36Z" fill="#1CB0F6" stroke="#1CB0F6" stroke-width="3" stroke-linecap="round" stroke-linejoin="round" class="fill-blue stroke-blue" />
</svg>