<svg viewBox="0 0 80 80" fill="none">
  <path fill-rule="evenodd" clip-rule="evenodd" d="M24.9629 37.0004C24.9941 40.4685 25.5522 43.933 26.6372 47.2723C28.8715 54.1488 33.2254 60.1414 39.0749 64.3913C44.9244 68.6412 51.9692 70.9302 59.1995 70.9302C61.5202 70.9302 63.8217 70.6944 66.0707 70.2336C67.8823 69.8625 67.9725 67.4121 66.3624 66.5025C65.2322 65.8641 64.1352 65.1596 63.0772 64.391C57.2277 60.1411 52.8738 54.1484 50.6395 47.272C49.5545 43.9328 48.9964 40.4684 48.9652 37.0004L24.9629 37.0004Z" fill="#84D3FF" />
  <path d="M24.9629 37.0004L24.9629 34.5004L22.4403 34.5004L22.463 37.0229L24.9629 37.0004ZM26.6372 47.2723L29.0149 46.4997L29.0149 46.4997L26.6372 47.2723ZM39.0749 64.3913L40.5444 62.3688L40.5444 62.3688L39.0749 64.3913ZM66.0707 70.2336L65.5689 67.7845L65.5689 67.7845L66.0707 70.2336ZM66.3624 66.5025L65.1328 68.6793L65.1328 68.6793L66.3624 66.5025ZM63.0772 64.391L64.5467 62.3684L64.5467 62.3684L63.0772 64.391ZM50.6395 47.272L53.0172 46.4994L53.0172 46.4994L50.6395 47.272ZM48.9652 37.0004L51.4651 36.9779L51.4427 34.5004L48.9652 34.5004L48.9652 37.0004ZM22.463 37.0229C22.4965 40.7442 23.0954 44.4617 24.2596 48.0448L29.0149 46.4997C28.0091 43.4043 27.4917 40.1928 27.4628 36.9779L22.463 37.0229ZM24.2596 48.0448C26.657 55.4234 31.3289 61.8536 37.6055 66.4138L40.5444 62.3688C35.122 58.4292 31.086 52.8741 29.0149 46.4997L24.2596 48.0448ZM37.6055 66.4138C43.8821 70.9741 51.4412 73.4302 59.1995 73.4302L59.1995 68.4302C52.4971 68.4302 45.9667 66.3083 40.5444 62.3688L37.6055 66.4138ZM59.1995 73.4302C61.6896 73.4302 64.1591 73.1772 66.5724 72.6828L65.5689 67.7845C63.4842 68.2116 61.3508 68.4302 59.1995 68.4302L59.1995 73.4302ZM66.5724 72.6828C68.7377 72.2392 69.8876 70.4608 69.9949 68.7242C70.0977 67.0617 69.2859 65.2827 67.592 64.3258L65.1328 68.6793C65.049 68.6319 64.9972 68.5329 65.0045 68.4158C65.0088 68.3454 65.0374 68.2062 65.1585 68.0556C65.2953 67.8855 65.4675 67.8053 65.5689 67.7845L66.5724 72.6828ZM67.592 64.3258C66.5444 63.734 65.5274 63.081 64.5467 62.3684L61.6077 66.4135C62.7429 67.2383 63.9201 67.9942 65.1328 68.6793L67.592 64.3258ZM64.5467 62.3684C59.1243 58.4288 55.0883 52.8738 53.0172 46.4994L48.2619 48.0445C50.6593 55.4231 55.3311 61.8533 61.6077 66.4135L64.5467 62.3684ZM53.0172 46.4994C52.0114 43.404 51.494 40.1927 51.4651 36.9779L46.4653 37.0229C46.4988 40.7441 47.0977 44.4615 48.2619 48.0445L53.0172 46.4994ZM48.9652 34.5004L24.9629 34.5004L24.9629 39.5004L48.9652 39.5004L48.9652 34.5004Z" fill="#84D3FF" />
  <path d="M55.8509 37.5005L18.0748 37.5005C14.9893 37.5005 13.5925 33.6425 15.9629 31.6672L33.6019 16.968C35.5489 15.3455 38.3769 15.3455 40.3239 16.968L57.9629 31.6672C60.3333 33.6425 58.9365 37.5005 55.8509 37.5005Z" fill="#1CB0F6" />
  <path d="M15.9629 31.6672L16.9232 32.8195L15.9629 31.6672ZM33.6019 16.968L32.6416 15.8156L33.6019 16.968ZM40.3239 16.968L39.3636 18.1203L40.3239 16.968ZM57.9629 31.6672L57.0026 32.8195L57.0026 32.8195L57.9629 31.6672ZM18.0748 39.0005L55.8509 39.0005L55.8509 36.0005L18.0748 36.0005L18.0748 39.0005ZM16.9232 32.8195L34.5622 18.1203L32.6416 15.8156L15.0026 30.5148L16.9232 32.8195ZM39.3636 18.1203L57.0026 32.8195L58.9232 30.5148L41.2841 15.8156L39.3636 18.1203ZM18.0748 36.0005C16.3923 36.0005 15.6306 33.8966 16.9232 32.8195L15.0026 30.5148C11.5545 33.3883 13.5864 39.0005 18.0748 39.0005L18.0748 36.0005ZM55.8509 39.0005C60.3394 39.0005 62.3713 33.3883 58.9232 30.5148L57.0026 32.8195C58.2952 33.8966 57.5335 36.0005 55.8509 36.0005L55.8509 39.0005ZM34.5622 18.1203C35.9529 16.9614 37.9729 16.9614 39.3636 18.1203L41.2841 15.8156C38.7809 13.7296 35.1449 13.7296 32.6416 15.8156L34.5622 18.1203Z" fill="#1CB0F6" />
</svg>