<svg viewBox="0 0 80 80" fill="none">
  <path fill-rule="evenodd" clip-rule="evenodd" d="M31.9999 37.0002H26.3322C23.7165 37.0002 22.4313 33.8158 24.3141 32.0002L36.2255 20.5143C38.2592 18.5532 41.4802 18.5532 43.5139 20.5143L55.4252 32.0002C57.3081 33.8158 56.0229 37.0002 53.4072 37.0002H47.9999L47.9999 47.0002V53.0002C47.9999 54.1048 47.1045 55.0002 45.9999 55.0002H33.9999C32.8953 55.0002 31.9999 54.1048 31.9999 53.0002L31.9999 47.0002V37.0002Z" fill="#84D3FF" />
  <path d="M31.9999 37.0002V35.0002C33.1045 35.0002 33.9999 35.8956 33.9999 37.0002H31.9999ZM24.3141 32.0002L25.7024 33.4399L25.7024 33.4399L24.3141 32.0002ZM36.2255 20.5143L37.6138 21.954V21.954L36.2255 20.5143ZM43.5139 20.5143L44.9022 19.0746L44.9022 19.0746L43.5139 20.5143ZM55.4252 32.0002L56.8135 30.5605L55.4252 32.0002ZM47.9999 37.0002H45.9999C45.9999 35.8956 46.8953 35.0002 47.9999 35.0002V37.0002ZM47.9999 47.0002H45.9999H47.9999ZM31.9999 53.0002H29.9999H31.9999ZM31.9999 47.0002H33.9999H31.9999ZM26.3322 35.0002H31.9999V39.0002H26.3322V35.0002ZM25.7024 33.4399C25.1148 34.0065 25.5159 35.0002 26.3322 35.0002V39.0002C21.9171 39.0002 19.7477 33.6252 22.9259 30.5605L25.7024 33.4399ZM37.6138 21.954L25.7024 33.4399L22.9259 30.5605L34.8372 19.0746L37.6138 21.954ZM42.1256 21.954C40.8667 20.74 38.8727 20.74 37.6138 21.954L34.8372 19.0746C37.6457 16.3664 42.0937 16.3664 44.9022 19.0746L42.1256 21.954ZM54.037 33.4399L42.1256 21.954L44.9022 19.0746L56.8135 30.5605L54.037 33.4399ZM53.4072 35.0002C54.2235 35.0002 54.6245 34.0065 54.037 33.4399L56.8135 30.5605C59.9916 33.6252 57.8223 39.0002 53.4072 39.0002V35.0002ZM47.9999 35.0002H53.4072V39.0002H47.9999V35.0002ZM45.9999 47.0002L45.9999 37.0002H49.9999L49.9999 47.0002H45.9999ZM45.9999 53.0002V47.0002H49.9999V53.0002H45.9999ZM45.9999 53.0002H49.9999C49.9999 55.2094 48.209 57.0002 45.9999 57.0002V53.0002ZM33.9999 53.0002H45.9999V57.0002H33.9999V53.0002ZM33.9999 53.0002H33.9999V57.0002C31.7908 57.0002 29.9999 55.2094 29.9999 53.0002H33.9999ZM33.9999 47.0002L33.9999 53.0002H29.9999L29.9999 47.0002H33.9999ZM33.9999 37.0002V47.0002H29.9999V37.0002H33.9999Z" fill="#84D3FF" />
  <path d="M56 63H24" stroke="#84D3FF" stroke-width="4" stroke-linecap="round" />
  <path d="M26.3323 37L53.4074 37C56.023 37 57.3083 33.8156 55.4254 32L43.5141 20.5141C41.4803 18.553 38.2594 18.553 36.2256 20.5141L24.3143 32C22.4314 33.8156 23.7167 37 26.3323 37Z" fill="#1CB0F6" stroke="#1CB0F6" stroke-width="4" stroke-linecap="round" stroke-linejoin="round" />
</svg>