<svg viewBox="0 0 80 80" fill="none">
  <path d="M27.4907 14.0242C35.3958 10.2173 44.6042 10.2173 52.5093 14.0242C60.4144 17.8311 66.1558 25.0305 68.1082 33.5845C70.0605 42.1385 68.0115 51.1161 62.541 57.9758C57.0705 64.8356 48.774 68.831 40 68.831C31.226 68.831 22.9295 64.8356 17.459 57.9758C11.9885 51.1161 9.93945 42.1385 11.8918 33.5845C13.8442 25.0305 19.5856 17.8311 27.4907 14.0242Z" fill="#F4F4F4" stroke="#D2D2D2" stroke-width="4" stroke-linecap="round" stroke-linejoin="round" class="fill-white stroke-undefined" />
  <path fill-rule="evenodd" clip-rule="evenodd" d="M18.6524 20.6219C19.5068 19.6805 20.4244 18.7947 21.3996 17.9712C21.7613 18.6951 21.6592 19.5976 21.0764 20.2258C20.4407 20.911 19.4368 21.0504 18.6524 20.6219ZM18.6523 59.3784C19.4368 58.9498 20.4407 59.0892 21.0764 59.7744C21.6592 60.4026 21.7613 61.3052 21.3996 62.0291C20.4313 61.2115 19.5131 60.3267 18.6523 59.3784ZM23.2362 53.4157C22.6839 54.3723 23.0117 55.5955 23.9683 56.1477C24.925 56.6999 26.1481 56.3721 26.7004 55.4155C27.4693 54.0835 28.1376 52.6958 28.6996 51.2641C29.1032 50.2359 28.5968 49.0752 27.5687 48.6716C26.5405 48.268 25.3798 48.7743 24.9762 49.8025C24.4871 51.0486 23.9054 52.2564 23.2362 53.4157ZM26.7004 24.5847C26.1481 23.6281 24.925 23.3003 23.9683 23.8525C23.0117 24.4048 22.6839 25.6279 23.2362 26.5845C23.9054 27.7438 24.4871 28.9516 24.9762 30.1977C25.3798 31.2259 26.5405 31.7322 27.5687 31.3286C28.5968 30.925 29.1032 29.7643 28.6996 28.7361C28.1376 27.3045 27.4693 25.9167 26.7004 24.5847ZM26.7559 42.0056C26.6734 43.1071 27.4995 44.0669 28.601 44.1494C29.7025 44.2318 30.6623 43.4057 30.7447 42.3043C30.8019 41.5405 30.8308 40.772 30.8308 40.0001C30.8308 39.2282 30.8019 38.4597 30.7447 37.696C30.6623 36.5945 29.7025 35.7684 28.601 35.8509C27.4995 35.9333 26.6734 36.8931 26.7559 37.9946C26.8057 38.6592 26.8308 39.3281 26.8308 40.0001C26.8308 40.6721 26.8057 41.341 26.7559 42.0056Z" fill="#D33131" class="fill-red" />
  <path fill-rule="evenodd" clip-rule="evenodd" d="M58.6002 62.0291C58.2385 61.3052 58.3406 60.4026 58.9234 59.7744C59.5591 59.0892 60.563 58.9498 61.3474 59.3784C60.4867 60.3267 59.5684 61.2115 58.6002 62.0291ZM58.6001 17.9712C58.2385 18.6951 58.3406 19.5976 58.9234 20.2258C59.5591 20.911 60.563 21.0504 61.3474 20.6219C60.4929 19.6805 59.5754 18.7947 58.6001 17.9712ZM56.7636 26.5845C57.3158 25.6279 56.988 24.4048 56.0314 23.8525C55.0748 23.3003 53.8517 23.6281 53.2994 24.5847C52.5305 25.9167 51.8621 27.3045 51.3002 28.7361C50.8966 29.7643 51.4029 30.925 52.4311 31.3286C53.4593 31.7322 54.62 31.2259 55.0236 30.1977C55.5127 28.9516 56.0944 27.7438 56.7636 26.5845ZM53.2994 55.4155C53.8517 56.3721 55.0748 56.6999 56.0314 56.1477C56.988 55.5955 57.3158 54.3723 56.7636 53.4157C56.0944 52.2564 55.5127 51.0486 55.0236 49.8025C54.62 48.7743 53.4593 48.268 52.4311 48.6716C51.4029 49.0752 50.8966 50.2359 51.3002 51.2641C51.8621 52.6957 52.5305 54.0835 53.2994 55.4155ZM53.2439 37.9946C53.3264 36.8931 52.5003 35.9333 51.3988 35.8509C50.2973 35.7684 49.3375 36.5945 49.255 37.696C49.1979 38.4597 49.1689 39.2282 49.1689 40.0001C49.1689 40.772 49.1979 41.5405 49.255 42.3043C49.3375 43.4057 50.2973 44.2318 51.3988 44.1493C52.5003 44.0669 53.3264 43.1071 53.2439 42.0056C53.1941 41.341 53.1689 40.6721 53.1689 40.0001C53.1689 39.3281 53.1941 38.6592 53.2439 37.9946Z" fill="#D33131" class="fill-red" />
</svg>