<svg viewBox="0 0 80 80" fill="none">
  <g clip-path="url(#clip0)">
    <path d="M28.4551 12.6863C35.6991 9.68571 43.8385 9.68571 51.0825 12.6863C58.3266 15.6869 64.0819 21.4422 67.0825 28.6863C70.0831 35.9303 70.0831 44.0697 67.0825 51.3137C64.0819 58.5578 58.3266 64.3131 51.0825 67.3137C43.8385 70.3143 35.6991 70.3143 28.4551 67.3137C21.211 64.3131 15.4557 58.5578 12.4551 51.3137C9.45451 44.0697 9.45451 35.9303 12.4551 28.6863C15.4557 21.4422 21.211 15.6869 28.4551 12.6863Z" fill="#FF9100" />
    <path fill-rule="evenodd" clip-rule="evenodd" d="M10.2723 38L37.7685 38V10.5038C39.1003 10.4135 40.4367 10.4135 41.7685 10.5037V38L69.2652 38C69.3554 39.3318 69.3555 40.6682 69.2652 42H41.7685V69.4966C40.4367 69.5869 39.1003 69.5869 37.7685 69.4966V42H10.2723C10.182 40.6682 10.182 39.3318 10.2723 38Z" fill="#252525" />
    <path fill-rule="evenodd" clip-rule="evenodd" d="M19.2325 61.2675C21.7802 58.7267 23.8305 55.6873 25.2342 52.2985C28.0318 45.5445 28.0318 37.9558 25.2342 31.2018C23.5172 27.0566 20.8327 23.4342 17.4536 20.6075C18.3321 19.5966 19.2784 18.6466 20.2856 17.764C24.0302 20.9672 27.0087 25.0334 28.9297 29.6711C32.1333 37.4052 32.1333 46.0951 28.9297 53.8292C27.3676 57.6006 25.106 60.9941 22.3019 63.8529C21.2199 63.0605 20.1945 62.1965 19.2325 61.2675ZM59.2515 17.7637C55.5067 20.967 52.5281 25.0333 50.607 29.6711C47.4034 37.4052 47.4034 46.0951 50.607 53.8292C52.1692 57.6008 54.4309 60.9944 57.2352 63.8532C58.3172 63.0609 59.3425 62.1969 60.3046 61.2679C57.7567 58.727 55.7063 55.6875 54.3025 52.2985C51.5049 45.5445 51.5049 37.9558 54.3025 31.2018C56.0196 27.0564 58.7043 23.4339 62.0835 20.6071C61.205 19.5963 60.2588 18.6462 59.2515 17.7637Z" fill="#252525" />
  </g>
  <defs>
    <clipPath id="clip0">
      <rect width="64" height="64" fill="white" transform="translate(7.7688 8)" />
    </clipPath>
  </defs>
</svg>