<svg viewBox="0 0 80 80" fill="none">
  <path fill-rule="evenodd" clip-rule="evenodd" d="M21.1038 45.2778L32.8066 45.2778L32.8066 58L14 58C11.7909 58 10 56.2091 10 54L10 26C10 23.7909 11.7909 22 14 22L35.031 22L20.2767 43.7158C19.8256 44.3798 20.3011 45.2778 21.1038 45.2778ZM43.1226 22V34.7217L54.8253 34.7217C55.628 34.7217 56.1036 35.6198 55.6525 36.2837L40.8978 58H62C64.2091 58 66 56.2091 66 54V26C66 23.7909 64.2091 22 62 22L43.1226 22Z" fill="#1CB0F6" class="fill-blue" />
  <path fill-rule="evenodd" clip-rule="evenodd" d="M32.8066 45.2779L21.1038 45.2779C20.3011 45.2779 19.8256 44.3798 20.2767 43.7159L41.2954 12.78C41.8489 11.9653 43.1226 12.3571 43.1226 13.3419L43.1226 34.7217L54.8253 34.7217C55.628 34.7217 56.1036 35.6198 55.6525 36.2837L34.6337 67.2196C34.0803 68.0343 32.8066 67.6425 32.8066 66.6577L32.8066 45.2779Z" fill="#FFC200" class="fill-yellow" />
  <path d="M66 32.5C66 32.2239 66.2239 32 66.5 32C68.433 32 70 33.567 70 35.5V44.5C70 46.433 68.433 48 66.5 48C66.2239 48 66 47.7761 66 47.5V32.5Z" fill="#FFC200" class="fill-yellow" />
</svg>