<svg viewBox="0 0 80 80" fill="none">
  <path d="M20.0001 29.1676L18.8245 27.5495L18.0001 28.1485V29.1676H20.0001ZM33.5001 19.3593H35.5001V15.434L32.3245 17.7412L33.5001 19.3593ZM20.0001 39.5V41.5H22.0001V39.5H20.0001ZM15.7202 39.5V37.5H12.9675L13.8181 40.118L15.7202 39.5ZM22.0561 59L20.154 59.618L20.6031 61H22.0561V59ZM29.5001 59H31.5001V57H29.5001V59ZM29.5001 63.8435H27.5001V65.8435H29.5001V63.8435ZM49.5001 63.8435V65.8435H51.5001V63.8435H49.5001ZM49.5001 59V57H47.5001V59H49.5001ZM56.944 59V61H58.3971L58.8461 59.618L56.944 59ZM63.28 39.5L65.1821 40.118L66.0327 37.5H63.28V39.5ZM59.0001 39.5H57.0001L57.0001 41.5H59.0001L59.0001 39.5ZM59.0001 29.1676H61.0001V28.1485L60.1757 27.5495L59.0001 29.1676ZM45.5001 19.3593L46.6757 17.7412L43.5001 15.434V19.3593H45.5001ZM45.5001 21V23L47.5001 23V21H45.5001ZM33.5001 21H31.5001V23H33.5001V21ZM21.1757 30.7856L34.6757 20.9773L32.3245 17.7412L18.8245 27.5495L21.1757 30.7856ZM22.0001 39.5L22.0001 29.1676H18.0001L18.0001 39.5H22.0001ZM15.7202 41.5H20.0001V37.5H15.7202V41.5ZM23.9583 58.382L17.6223 38.882L13.8181 40.118L20.154 59.618L23.9583 58.382ZM29.5001 57H22.0561V61H29.5001V57ZM31.5001 63.8435V59H27.5001V63.8435H31.5001ZM49.5001 61.8435L29.5001 61.8435V65.8435H49.5001V61.8435ZM47.5001 59V63.8435H51.5001V59H47.5001ZM56.944 57H49.5001V61H56.944V57ZM61.3778 38.882L55.0419 58.382L58.8461 59.618L65.1821 40.118L61.3778 38.882ZM63.28 37.5H59.0001L59.0001 41.5H63.28L63.28 37.5ZM61.0001 39.5V29.1676H57.0001V39.5H61.0001ZM44.3245 20.9773L57.8245 30.7856L60.1757 27.5495L46.6757 17.7412L44.3245 20.9773ZM47.5001 21V19.3593H43.5001V21H47.5001ZM33.5001 23H45.5001V19H33.5001V23ZM31.5001 19.3593V21H35.5001V19.3593H31.5001Z" fill="#AEEE52" class="fill-green" />
  <rect x="33.5" y="9" width="12" height="12" fill="#FF9100" stroke="#FF9100" stroke-width="4" stroke-linecap="square" stroke-linejoin="round" class="fill-orange stroke-orange" />
  <rect x="17.5" y="59" width="12" height="12" fill="#FF9100" stroke="#FF9100" stroke-width="4" stroke-linecap="square" stroke-linejoin="round" class="fill-orange stroke-orange" />
  <rect x="49.5" y="59" width="12" height="12" fill="#FF9100" stroke="#FF9100" stroke-width="4" stroke-linecap="square" stroke-linejoin="round" class="fill-orange stroke-orange" />
  <rect x="8" y="27.5" width="12" height="12" fill="#FF9100" stroke="#FF9100" stroke-width="4" stroke-linecap="square" stroke-linejoin="round" class="fill-orange stroke-orange" />
  <rect x="59" y="27.5" width="12" height="12" fill="#FF9100" stroke="#FF9100" stroke-width="4" stroke-linecap="square" stroke-linejoin="round" class="fill-orange stroke-orange" />
</svg>