<svg viewBox="0 0 80 80" fill="none">
  <path fill-rule="evenodd" clip-rule="evenodd" d="M27.4223 20.1952C22.0202 19.047 16.9893 21.1816 16.1855 24.9632L4.49506 51.1038C3.11715 57.5864 9.00703 64.331 17.6505 66.1682C26.2939 68.0054 34.4179 64.2396 35.7958 57.757L35.7484 29.1214C36.5522 25.3399 32.8245 21.3435 27.4223 20.1952ZM18.69 61.2774C24.6324 62.5405 30.1013 60.4989 30.905 56.7174C31.7088 52.9359 27.5432 48.8465 21.6008 47.5834C15.6584 46.3203 10.1896 48.3619 9.3858 52.1434C8.58202 55.9249 12.7477 60.0143 18.69 61.2774Z" fill="#FFC200" />
  <path fill-rule="evenodd" clip-rule="evenodd" d="M28.6698 14.3265C32.4513 15.1303 35.1445 17.5336 34.6852 19.6944L33.8533 23.608C32.3463 22.0223 30.0882 20.762 27.4223 20.1954C24.7564 19.6287 22.1809 19.8615 20.1593 20.6972L20.9911 16.7837C21.4504 14.6228 24.8883 13.5227 28.6698 14.3265Z" fill="#D33131" />
  <ellipse cx="20.1455" cy="54.4304" rx="11" ry="7" transform="rotate(12 20.1455 54.4304)" fill="#84D3FF" />
  <path fill-rule="evenodd" clip-rule="evenodd" d="M52.3736 20.1952C57.7757 19.047 62.8066 21.1816 63.6104 24.9632L75.3008 51.1038C76.6788 57.5864 70.7889 64.331 62.1454 66.1682C53.502 68.0054 45.378 64.2396 44.0001 57.757L44.0475 29.1214C43.2437 25.3399 46.9714 21.3435 52.3736 20.1952ZM61.1059 61.2774C55.1635 62.5405 49.6946 60.4989 48.8908 56.7174C48.0871 52.9359 52.2527 48.8465 58.1951 47.5834C64.1375 46.3203 69.6063 48.3619 70.4101 52.1434C71.2139 55.9249 67.0482 60.0143 61.1059 61.2774Z" fill="#FFC200" />
  <path fill-rule="evenodd" clip-rule="evenodd" d="M51.1261 14.3265C47.3446 15.1303 44.6514 17.5336 45.1107 19.6944L45.9426 23.608C47.4496 22.0223 49.7077 20.762 52.3736 20.1954C55.0395 19.6287 57.615 19.8615 59.6366 20.6972L58.8048 16.7837C58.3455 14.6228 54.9076 13.5227 51.1261 14.3265Z" fill="#D33131" />
  <ellipse rx="11" ry="7" transform="matrix(-0.978148 0.207912 0.207912 0.978148 59.6503 54.4304)" fill="#84D3FF" />
  <path fill-rule="evenodd" clip-rule="evenodd" d="M44.0446 30.7476H35.751L35.7774 46.7476H44.0182L44.0446 30.7476Z" fill="#FF9100" />
</svg>