<svg viewBox="0 0 80 80" fill="none">
  <path fill-rule="evenodd" clip-rule="evenodd" d="M33.999 45.8295L20.0017 45.8295C19.1927 45.8295 18.7186 44.9188 19.1825 44.2561L44.2619 8.42842C44.8225 7.62745 46.0811 8.02418 46.0811 9.00189V33.8295L60.0784 33.8295C60.8874 33.8295 61.3616 34.7402 60.8976 35.403L35.8183 71.2306C35.2576 72.0316 33.999 71.6349 33.999 70.6572L33.999 45.8295Z" fill="#2F80ED" />
  <path fill-rule="evenodd" clip-rule="evenodd" d="M52.999 54.001L65.1705 41.8295H65.0811V17.0019C65.0811 16.0242 63.8225 15.6275 63.2619 16.4284L38.1825 52.2561C37.7186 52.9188 38.1927 53.8295 39.0017 53.8295L52.999 53.8295V54.001Z" fill="#84D3FF" />
</svg>