<svg viewBox="0 0 80 80" fill="none">
  <path fill-rule="evenodd" clip-rule="evenodd" d="M22 11L63.0204 11C63.5614 11 64 11.4386 64 11.9796L64 56.75C64 56.8881 63.8881 57 63.75 57H58L27.75 57H22C18.7702 57 16.1364 59.552 16.0051 62.7496C16.0049 62.7548 16 62.7552 16 62.75L16 17C16 13.6863 18.6863 11 22 11Z" fill="#AEEE52" class="fill-green" />
  <path fill-rule="evenodd" clip-rule="evenodd" d="M63.3755 66.755C63.7412 67.1942 64 67.7268 64 68.2983V68.75C64 68.8881 63.8881 69 63.75 69H63.5H22C18.6863 69 16 66.3137 16 63C16 59.6863 18.6863 57 22 57L63.9375 57C63.972 57 64 57.028 64 57.0625V57.6017C64 58.1732 63.7412 58.7058 63.3755 59.145C62.5166 60.1764 62 61.5029 62 62.95C62 64.3971 62.5166 65.7236 63.3755 66.755Z" fill="#7AC70C" class="fill-green" />
  <path d="M34.594 21.7202C37.7632 20.4074 41.3242 20.4074 44.4934 21.7202V21.7202C47.6627 23.0329 50.1807 25.5509 51.4934 28.7202V28.7202C52.8062 31.8894 52.8062 35.4504 51.4934 38.6197V38.6197C50.1807 41.7889 47.6627 44.3069 44.4934 45.6197V45.6197C41.3242 46.9324 37.7632 46.9324 34.594 45.6197V45.6197C31.4247 44.3069 28.9067 41.7889 27.594 38.6197V38.6197C26.2812 35.4504 26.2812 31.8894 27.594 28.7202V28.7202C28.9067 25.5509 31.4247 23.0329 34.594 21.7202V21.7202Z" stroke="#7B61FF" stroke-width="4" class="stroke-purple" />
  <path d="M44.0033 40.9307L42.1555 40.1653L44.0033 40.9307ZM44.0033 26.4114L42.1555 27.1768L44.0033 26.4114ZM40.379 46.5786L40.5082 48.5745C41.0185 48.5415 41.4967 48.3142 41.8447 47.9395L40.379 46.5786ZM38.7094 46.5787L37.2438 47.9397C37.5918 48.3144 38.0701 48.5416 38.5804 48.5746L38.7094 46.5787ZM35.084 40.9295L36.9318 40.1642L35.084 40.9295ZM35.084 26.4103L33.2363 25.6449L35.084 26.4103ZM38.7066 20.7641L38.5772 18.7683C38.0669 18.8014 37.5886 19.0287 37.2407 19.4035L38.7066 20.7641ZM40.3796 20.7641L41.8453 19.4033C41.4974 19.0285 41.0191 18.8013 40.5088 18.7682L40.3796 20.7641ZM45.851 41.696C47.9794 36.5577 47.9794 30.7844 45.851 25.646L42.1555 27.1768C43.8779 31.335 43.8779 36.0071 42.1555 40.1653L45.851 41.696ZM41.8447 47.9395C43.5247 46.1301 44.888 44.0211 45.851 41.696L42.1555 40.1653C41.3761 42.0469 40.273 43.7535 38.9134 45.2178L41.8447 47.9395ZM38.5804 48.5746C39.2223 48.616 39.8663 48.616 40.5082 48.5745L40.2499 44.5828C39.7799 44.6132 39.3083 44.6133 38.8383 44.5829L38.5804 48.5746ZM33.2363 41.6949C34.1996 44.0205 35.5632 46.13 37.2438 47.9397L40.1749 45.2178C38.8148 43.7532 37.7114 42.0463 36.9318 40.1642L33.2363 41.6949ZM33.2363 25.6449C31.1079 30.7832 31.1079 36.5566 33.2363 41.6949L36.9318 40.1642C35.2094 36.006 35.2094 31.3339 36.9318 27.1756L33.2363 25.6449ZM37.2407 19.4035C35.5615 21.2125 34.199 23.3207 33.2363 25.6449L36.9318 27.1756C37.7109 25.2947 38.8134 23.5888 40.1724 22.1248L37.2407 19.4035ZM40.5088 18.7682C39.8656 18.7266 39.2204 18.7266 38.5772 18.7683L38.8359 22.7599C39.3069 22.7294 39.7794 22.7294 40.2504 22.7599L40.5088 18.7682ZM45.851 25.646C44.8881 23.3213 43.5251 21.2126 41.8453 19.4033L38.9139 22.1248C40.2733 23.589 41.3762 25.2954 42.1555 27.1768L45.851 25.646Z" fill="#7B61FF" class="fill-purple" />
  <path d="M27.3099 39.8698H51.7767V35.8698H27.3099V39.8698ZM27.4802 31.0032L51.6064 31.0032V27.0032L27.4802 27.0032V31.0032Z" fill="#7B61FF" class="fill-purple" />
</svg>