<svg viewBox="0 0 80 80" fill="none">
  <path d="M42 16C42 14.8954 41.1046 14 40 14C38.8954 14 38 14.8954 38 16L42 16ZM38 64C38 65.1046 38.8954 66 40 66C41.1046 66 42 65.1046 42 64H38ZM16 38C14.8954 38 14 38.8954 14 40C14 41.1046 14.8954 42 16 42V38ZM64 42C65.1046 42 66 41.1046 66 40C66 38.8954 65.1046 38 64 38L64 42ZM42 63.995C42 62.8904 41.1046 61.995 40 61.995C38.8954 61.995 38 62.8904 38 63.995L42 63.995ZM38 56.005C38 57.1096 38.8954 58.005 40 58.005C41.1046 58.005 42 57.1096 42 56.005L38 56.005ZM42 55.995C42 54.8904 41.1046 53.995 40 53.995C38.8954 53.995 38 54.8904 38 55.995L42 55.995ZM38 48.005C38 49.1096 38.8954 50.005 40 50.005C41.1046 50.005 42 49.1096 42 48.005L38 48.005ZM42 47.995C42 46.8904 41.1046 45.995 40 45.995C38.8954 45.995 38 46.8904 38 47.995H42ZM38 40.005C38 41.1096 38.8954 42.005 40 42.005C41.1046 42.005 42 41.1096 42 40.005H38ZM42 39.995C42 38.8904 41.1046 37.995 40 37.995C38.8954 37.995 38 38.8904 38 39.995L42 39.995ZM38 32.005C38 33.1096 38.8954 34.005 40 34.005C41.1046 34.005 42 33.1096 42 32.005L38 32.005ZM42 31.995C42 30.8904 41.1046 29.995 40 29.995C38.8954 29.995 38 30.8904 38 31.995H42ZM38 24.005C38 25.1096 38.8954 26.005 40 26.005C41.1046 26.005 42 25.1096 42 24.005H38ZM42 23.995C42 22.8904 41.1046 21.995 40 21.995C38.8954 21.995 38 22.8904 38 23.995H42ZM38 16.005C38 17.1096 38.8954 18.005 40 18.005C41.1046 18.005 42 17.1096 42 16.005L38 16.005ZM16.005 42C17.1096 42 18.005 41.1046 18.005 40C18.005 38.8954 17.1096 38 16.005 38V42ZM23.995 38C22.8904 38 21.995 38.8954 21.995 40C21.995 41.1046 22.8904 42 23.995 42V38ZM24.005 42C25.1096 42 26.005 41.1046 26.005 40C26.005 38.8954 25.1096 38 24.005 38V42ZM31.995 38C30.8904 38 29.995 38.8954 29.995 40C29.995 41.1046 30.8904 42 31.995 42V38ZM32.005 42C33.1096 42 34.005 41.1046 34.005 40C34.005 38.8954 33.1096 38 32.005 38V42ZM39.995 38C38.8904 38 37.995 38.8954 37.995 40C37.995 41.1046 38.8904 42 39.995 42V38ZM40.005 42C41.1096 42 42.005 41.1046 42.005 40C42.005 38.8954 41.1096 38 40.005 38V42ZM47.995 38C46.8904 38 45.995 38.8954 45.995 40C45.995 41.1046 46.8904 42 47.995 42V38ZM48.005 42C49.1096 42 50.005 41.1046 50.005 40C50.005 38.8954 49.1096 38 48.005 38L48.005 42ZM55.995 38C54.8904 38 53.995 38.8954 53.995 40C53.995 41.1046 54.8904 42 55.995 42L55.995 38ZM56.005 42C57.1096 42 58.005 41.1046 58.005 40C58.005 38.8954 57.1096 38 56.005 38L56.005 42ZM63.995 38C62.8904 38 61.995 38.8954 61.995 40C61.995 41.1046 62.8904 42 63.995 42L63.995 38ZM42 64V63.995L38 63.995V64H42ZM42 56.005V55.995L38 55.995V56.005L42 56.005ZM42 48.005V47.995H38V48.005L42 48.005ZM42 40.005V39.995L38 39.995V40.005H42ZM42 32.005V31.995H38V32.005L42 32.005ZM42 24.005V23.995H38V24.005H42ZM42 16.005V16L38 16V16.005L42 16.005ZM16 42H16.005V38H16V42ZM23.995 42H24.005V38H23.995V42ZM31.995 42H32.005V38H31.995V42ZM39.995 42H40.005V38H39.995V42ZM47.995 42H48.005L48.005 38H47.995V42ZM55.995 42H56.005L56.005 38H55.995L55.995 42ZM63.995 42H64L64 38H63.995L63.995 42Z" fill="#56CCF2" />
  <path d="M16 62C14.8954 62 14 62.8954 14 64C14 65.1046 14.8954 66 16 66V62ZM64 66C65.1046 66 66 65.1046 66 64C66 62.8954 65.1046 62 64 62V66ZM66 16C66 14.8954 65.1046 14 64 14C62.8954 14 62 14.8954 62 16L66 16ZM62 64C62 65.1046 62.8954 66 64 66C65.1046 66 66 65.1046 66 64H62ZM16 14C14.8954 14 14 14.8954 14 16C14 17.1046 14.8954 18 16 18V14ZM64 18C65.1046 18 66 17.1046 66 16C66 14.8954 65.1046 14 64 14V18ZM18 16C18 14.8954 17.1046 14 16 14C14.8954 14 14 14.8954 14 16L18 16ZM14 64C14 65.1046 14.8954 66 16 66C17.1046 66 18 65.1046 18 64H14ZM16 66H64V62L16 62V66ZM62 16L62 64H66L66 16L62 16ZM16 18L64 18V14L16 14V18ZM14 16L14 64H18L18 16L14 16Z" fill="#2F80ED" />
</svg>