<svg viewBox="0 0 80 80" fill="none">
  <path fill-rule="evenodd" clip-rule="evenodd" d="M59.8807 46H20.1191L23.9069 36.2853C25.1045 33.2137 28.0637 31.1914 31.3604 31.1914H48.6394C51.9361 31.1914 54.8953 33.2138 56.0929 36.2853L59.8807 46Z" fill="#84D3FF" />
  <path fill-rule="evenodd" clip-rule="evenodd" d="M17 63.874V69.3711C17 70.4757 17.8954 71.3711 19 71.3711H25C26.1046 71.3711 27 70.4757 27 69.3711V64H18C17.6547 64 17.3196 63.9563 17 63.874ZM53 64V69.3711C53 70.4757 53.8954 71.3711 55 71.3711H61C62.1046 71.3711 63 70.4757 63 69.3711V63.874C62.6804 63.9563 62.3453 64 62 64H53Z" fill="#252525" />
  <path d="M14 54C14 49.5817 17.5817 46 22 46H58C62.4183 46 66 49.5817 66 54V60C66 62.2091 64.2091 64 62 64H18C15.7909 64 14 62.2091 14 60V54Z" fill="#D33131" />
  <rect x="21" y="52.3711" width="6" height="6" rx="3" fill="#FFC200" />
  <rect width="6" height="6" rx="3" transform="matrix(-1 0 0 1 59 52.3711)" fill="#FFC200" />
  <path d="M21.2575 9.64228C21.5463 9.00339 22.4537 9.00339 22.7425 9.64228L23.2182 10.6945C23.5841 11.5037 24.0083 12.2853 24.4874 13.0331L25.8419 15.1473C26.5678 16.2803 26.6957 17.6961 26.1847 18.941C25.769 19.9535 24.9682 20.7595 23.9583 21.1815L23.7757 21.2578C22.6395 21.7327 21.3605 21.7327 20.2243 21.2578L20.0417 21.1815C19.0318 20.7595 18.231 19.9535 17.8153 18.941C17.3043 17.6961 17.4322 16.2803 18.1581 15.1473L19.5126 13.0331C19.9917 12.2853 20.4159 11.5037 20.7818 10.6945L21.2575 9.64228Z" fill="#1CB0F6" />
  <path d="M39.2575 9.64228C39.5463 9.00339 40.4537 9.00339 40.7425 9.64228L41.2182 10.6945C41.5841 11.5037 42.0083 12.2853 42.4874 13.0331L43.8419 15.1473C44.5678 16.2803 44.6957 17.6961 44.1847 18.941C43.769 19.9535 42.9682 20.7595 41.9583 21.1815L41.7757 21.2578C40.6395 21.7327 39.3605 21.7327 38.2243 21.2578L38.0417 21.1815C37.0318 20.7595 36.231 19.9535 35.8153 18.941C35.3043 17.6961 35.4322 16.2803 36.1581 15.1473L37.5126 13.0331C37.9917 12.2853 38.4159 11.5037 38.7818 10.6945L39.2575 9.64228Z" fill="#1CB0F6" />
  <path d="M57.2575 9.64228C57.5463 9.00339 58.4537 9.00339 58.7425 9.64228L59.2182 10.6945C59.5841 11.5037 60.0083 12.2853 60.4874 13.0331L61.8419 15.1473C62.5678 16.2803 62.6957 17.6961 62.1847 18.941C61.769 19.9535 60.9682 20.7595 59.9583 21.1815L59.7757 21.2578C58.6395 21.7327 57.3605 21.7327 56.2243 21.2578L56.0417 21.1815C55.0318 20.7595 54.231 19.9535 53.8153 18.941C53.3043 17.6961 53.4322 16.2803 54.1581 15.1473L55.5126 13.0331C55.9917 12.2853 56.4159 11.5037 56.7818 10.6945L57.2575 9.64228Z" fill="#1CB0F6" />
</svg>