<svg viewBox="0 0 80 80" fill="none">
  <path fill-rule="evenodd" clip-rule="evenodd" d="M28.7218 18H31.4998V34H17.4998C17.2594 34 17.0944 33.7582 17.182 33.5344L21.272 23.0843C22.4722 20.0178 25.4288 18 28.7218 18ZM58.4998 34H34.4998V18H44.3898C47.119 18 49.6598 19.3913 51.1299 21.6907L58.7304 33.5787C58.847 33.761 58.7161 34 58.4998 34Z" fill="#84D3FF" />
  <path fill-rule="evenodd" clip-rule="evenodd" d="M10 41C10 37.134 13.134 34 17 34H58C64.6274 34 70 39.3726 70 46V48C70 50.2091 68.2091 52 66 52H65.0469C65.0134 51.7311 64.9664 51.4626 64.9054 51.1956C64.3563 48.7898 62.7415 46.765 60.5182 45.6943C58.2949 44.6236 55.7051 44.6236 53.4818 45.6943C51.2585 46.765 49.6437 48.7898 49.0946 51.1956C49.0336 51.4626 48.9866 51.7311 48.9531 52H31.0469C31.0134 51.7311 30.9664 51.4626 30.9054 51.1956C30.3563 48.7898 28.7415 46.765 26.5182 45.6943C24.2949 44.6236 21.7051 44.6236 19.4818 45.6943C17.2585 46.765 15.6437 48.7898 15.0946 51.1956C15.0336 51.4626 14.9866 51.7311 14.9531 52H14C11.7909 52 10 50.2091 10 48V41Z" fill="#D33131" />
  <path d="M19.4818 45.6943C21.7051 44.6236 24.2949 44.6236 26.5182 45.6943C28.7415 46.765 30.3563 48.7898 30.9054 51.1956C31.4545 53.6015 30.8782 56.1264 29.3397 58.0557C27.8011 59.985 25.4677 61.1087 23 61.1087C20.5323 61.1087 18.1989 59.985 16.6603 58.0557C15.1218 56.1264 14.5455 53.6015 15.0946 51.1956C15.6437 48.7898 17.2585 46.765 19.4818 45.6943Z" fill="black" />
  <path d="M53.4818 45.6943C55.7051 44.6236 58.2949 44.6236 60.5182 45.6943C62.7415 46.765 64.3563 48.7898 64.9054 51.1956C65.4545 53.6015 64.8782 56.1264 63.3397 58.0557C61.8011 59.985 59.4677 61.1087 57 61.1087C54.5323 61.1087 52.1989 59.985 50.6603 58.0557C49.1218 56.1264 48.5455 53.6015 49.0946 51.1956C49.6437 48.7898 51.2585 46.765 53.4818 45.6943Z" fill="black" />
</svg>