<svg viewBox="0 0 80 80" fill="none">
  <path fill-rule="evenodd" clip-rule="evenodd" d="M43.9421 16.5121C43.2608 14.9419 41.7124 13.9258 40.0007 13.9258C38.289 13.9258 36.7406 14.9419 36.0593 16.5121L34.6053 19.8638L31.6702 17.6882C30.295 16.6689 28.4461 16.5632 26.9637 17.419C25.4813 18.2749 24.6484 19.929 24.8435 21.6296L25.2601 25.2592L21.6304 24.8427C19.9299 24.6475 18.2758 25.4804 17.4199 26.9628C16.564 28.4452 16.6698 30.2942 17.6891 31.6693L19.8646 34.6044L16.513 36.0585C14.9427 36.7398 13.9266 38.2882 13.9266 39.9999C13.9266 41.7116 14.9427 43.26 16.513 43.9412L19.8646 45.3953L17.6891 48.3304C16.6698 49.7055 16.564 51.5545 17.4199 53.0369C18.2758 54.5193 19.9299 55.3522 21.6304 55.157L25.2601 54.7405L24.8435 58.3701C24.6484 60.0707 25.4813 61.7248 26.9637 62.5807C28.4461 63.4365 30.295 63.3308 31.6702 62.3115L34.6053 60.1359L36.0593 63.4876C36.7406 65.0579 38.289 66.0739 40.0007 66.0739C41.7124 66.0739 43.2608 65.0579 43.9421 63.4876L45.3962 60.1359L48.3312 62.3115C49.7064 63.3308 51.5554 63.4365 53.0377 62.5807C54.5201 61.7248 55.353 60.0707 55.1579 58.3701L54.7413 54.7405L58.371 55.157C60.0715 55.3522 61.7257 54.5193 62.5815 53.0369C63.4374 51.5545 63.3316 49.7055 62.3123 48.3304L60.1368 45.3953L63.4884 43.9412C65.0587 43.26 66.0748 41.7116 66.0748 39.9999C66.0748 38.2882 65.0587 36.7398 63.4884 36.0585L60.1368 34.6044L62.3123 31.6693C63.3316 30.2942 63.4374 28.4452 62.5815 26.9628C61.7257 25.4804 60.0715 24.6475 58.371 24.8427L54.7413 25.2592L55.1579 21.6296C55.353 19.929 54.5201 18.2749 53.0377 17.419C51.5554 16.5632 49.7064 16.6689 48.3312 17.6882L45.3962 19.8638L43.9421 16.5121Z" fill="#FF9100" class="fill-orange" />
  <path d="M43.9421 16.5121L41.9714 17.3671V17.3671L43.9421 16.5121ZM36.0593 16.5121L34.0887 15.6572L34.0887 15.6572L36.0593 16.5121ZM34.6053 19.8638L33.3261 21.5896L35.4993 23.2004L36.5759 20.7188L34.6053 19.8638ZM31.6702 17.6882L32.9494 15.9625L31.6702 17.6882ZM26.9637 17.419L28.0377 19.2794V19.2794L26.9637 17.419ZM24.8435 21.6296L26.9777 21.3847V21.3847L24.8435 21.6296ZM25.2601 25.2592L25.0152 27.3934L27.7027 27.7018L27.3942 25.0143L25.2601 25.2592ZM21.6304 24.8427L21.8754 22.7085H21.8754L21.6304 24.8427ZM17.4199 26.9628L15.5595 25.8887L15.5595 25.8887L17.4199 26.9628ZM17.6891 31.6693L15.9633 32.9485L17.6891 31.6693ZM19.8646 34.6044L20.7196 36.5751L23.2012 35.4985L21.5904 33.3252L19.8646 34.6044ZM16.513 36.0585L17.368 38.0292H17.368L16.513 36.0585ZM16.513 43.9412L15.658 45.9119L15.658 45.9119L16.513 43.9412ZM19.8646 45.3953L21.5904 46.6745L23.2012 44.5013L20.7196 43.4246L19.8646 45.3953ZM17.6891 48.3304L15.9633 47.0512L17.6891 48.3304ZM21.6304 55.157L21.3855 53.0229H21.3855L21.6304 55.157ZM25.2601 54.7405L27.3942 54.9854L27.7026 52.2979L25.0152 52.6063L25.2601 54.7405ZM24.8435 58.3701L26.9777 58.615L24.8435 58.3701ZM26.9637 62.5807L25.8896 64.441L25.8896 64.441L26.9637 62.5807ZM31.6702 62.3115L30.391 60.5857L31.6702 62.3115ZM34.6053 60.1359L36.5759 59.281L35.4993 56.7993L33.3261 58.4102L34.6053 60.1359ZM36.0593 63.4876L34.0887 64.3425V64.3425L36.0593 63.4876ZM43.9421 63.4876L41.9714 62.6326H41.9714L43.9421 63.4876ZM45.3962 60.1359L46.6753 58.4102L44.5021 56.7993L43.4255 59.281L45.3962 60.1359ZM48.3312 62.3115L47.0521 64.0372L47.0521 64.0372L48.3312 62.3115ZM53.0377 62.5807L54.1118 64.441L53.0377 62.5807ZM55.1579 58.3701L53.0237 58.615V58.615L55.1579 58.3701ZM54.7413 54.7405L54.9862 52.6063L52.2988 52.2979L52.6072 54.9854L54.7413 54.7405ZM58.371 55.157L58.6159 53.0229H58.6159L58.371 55.157ZM62.5815 53.0369L64.4419 54.111L62.5815 53.0369ZM62.3123 48.3304L64.0381 47.0512L64.0381 47.0512L62.3123 48.3304ZM60.1368 45.3953L59.2818 43.4246L56.8002 44.5013L58.411 46.6745L60.1368 45.3953ZM63.4884 43.9412L64.3434 45.9119H64.3434L63.4884 43.9412ZM63.4884 36.0585L64.3434 34.0878H64.3434L63.4884 36.0585ZM60.1368 34.6044L58.411 33.3252L56.8002 35.4985L59.2818 36.5751L60.1368 34.6044ZM62.3123 31.6693L64.0381 32.9485L62.3123 31.6693ZM62.5815 26.9628L64.4419 25.8887L64.4419 25.8887L62.5815 26.9628ZM58.371 24.8427L58.1261 22.7085L58.371 24.8427ZM54.7413 25.2592L52.6072 25.0143L52.2988 27.7018L54.9862 27.3934L54.7413 25.2592ZM55.1579 21.6296L53.0237 21.3847V21.3847L55.1579 21.6296ZM53.0377 17.419L54.1118 15.5587V15.5587L53.0377 17.419ZM48.3312 17.6882L47.0521 15.9625L47.0521 15.9625L48.3312 17.6882ZM45.3962 19.8638L43.4255 20.7188L44.5021 23.2004L46.6753 21.5896L45.3962 19.8638ZM40.0007 16.0739C40.8566 16.0739 41.6308 16.582 41.9714 17.3671L45.9127 15.6572C44.8909 13.3017 42.5683 11.7776 40.0007 11.7776V16.0739ZM38.03 17.3671C38.3707 16.582 39.1449 16.0739 40.0007 16.0739V11.7776C37.4332 11.7776 35.1106 13.3017 34.0887 15.6572L38.03 17.3671ZM36.5759 20.7188L38.03 17.3671L34.0887 15.6572L32.6346 19.0088L36.5759 20.7188ZM30.391 19.414L33.3261 21.5896L35.8844 18.138L32.9494 15.9625L30.391 19.414ZM28.0377 19.2794C28.7789 18.8515 29.7034 18.9043 30.391 19.414L32.9494 15.9625C30.8867 14.4335 28.1132 14.2749 25.8896 15.5587L28.0377 19.2794ZM26.9777 21.3847C26.8801 20.5344 27.2966 19.7073 28.0377 19.2794L25.8896 15.5587C23.666 16.8425 22.4167 19.3237 22.7094 21.8745L26.9777 21.3847ZM27.3942 25.0143L26.9777 21.3847L22.7094 21.8745L23.1259 25.5042L27.3942 25.0143ZM21.3855 26.9768L25.0152 27.3934L25.505 23.1251L21.8754 22.7085L21.3855 26.9768ZM19.2803 28.0369C19.7082 27.2957 20.5353 26.8792 21.3855 26.9768L21.8754 22.7085C19.3245 22.4158 16.8433 23.6652 15.5595 25.8887L19.2803 28.0369ZM19.4148 30.3901C18.9052 29.7026 18.8523 28.7781 19.2803 28.0369L15.5595 25.8887C14.2758 28.1123 14.4344 30.8858 15.9633 32.9485L19.4148 30.3901ZM21.5904 33.3252L19.4148 30.3901L15.9633 32.9485L18.1389 35.8836L21.5904 33.3252ZM17.368 38.0292L20.7196 36.5751L19.0097 32.6337L15.658 34.0878L17.368 38.0292ZM16.0748 39.9999C16.0748 39.144 16.5828 38.3698 17.368 38.0292L15.658 34.0878C13.3026 35.1097 11.7785 37.4323 11.7785 39.9999H16.0748ZM17.368 41.9705C16.5828 41.6299 16.0748 40.8557 16.0748 39.9999H11.7785C11.7785 42.5674 13.3026 44.89 15.658 45.9119L17.368 41.9705ZM20.7196 43.4246L17.368 41.9705L15.658 45.9119L19.0097 47.366L20.7196 43.4246ZM19.4148 49.6096L21.5904 46.6745L18.1389 44.1161L15.9633 47.0512L19.4148 49.6096ZM19.2803 51.9628C18.8523 51.2216 18.9052 50.2971 19.4148 49.6096L15.9633 47.0512C14.4344 49.1139 14.2758 51.8874 15.5595 54.111L19.2803 51.9628ZM21.3855 53.0229C20.5352 53.1205 19.7082 52.704 19.2803 51.9628L15.5595 54.111C16.8433 56.3345 19.3245 57.5839 21.8754 57.2912L21.3855 53.0229ZM25.0152 52.6063L21.3855 53.0229L21.8754 57.2912L25.505 56.8746L25.0152 52.6063ZM26.9777 58.615L27.3942 54.9854L23.1259 54.4956L22.7094 58.1252L26.9777 58.615ZM28.0377 60.7203C27.2966 60.2924 26.8801 59.4653 26.9777 58.615L22.7094 58.1252C22.4167 60.676 23.666 63.1572 25.8896 64.441L28.0377 60.7203ZM30.391 60.5857C29.7034 61.0954 28.7789 61.1482 28.0377 60.7203L25.8896 64.441C28.1132 65.7248 30.8867 65.5662 32.9494 64.0372L30.391 60.5857ZM33.3261 58.4102L30.391 60.5857L32.9494 64.0372L35.8844 61.8617L33.3261 58.4102ZM38.03 62.6326L36.5759 59.281L32.6346 60.9909L34.0887 64.3425L38.03 62.6326ZM40.0007 63.9258C39.1449 63.9258 38.3707 63.4177 38.03 62.6326L34.0887 64.3425C35.1106 66.698 37.4332 68.2221 40.0007 68.2221V63.9258ZM41.9714 62.6326C41.6308 63.4177 40.8566 63.9258 40.0007 63.9258V68.2221C42.5683 68.2221 44.8909 66.698 45.9127 64.3425L41.9714 62.6326ZM43.4255 59.281L41.9714 62.6326L45.9127 64.3425L47.3668 60.9909L43.4255 59.281ZM49.6104 60.5857L46.6753 58.4102L44.117 61.8617L47.0521 64.0372L49.6104 60.5857ZM51.9637 60.7203C51.2225 61.1482 50.298 61.0954 49.6104 60.5857L47.0521 64.0372C49.1148 65.5662 51.8882 65.7248 54.1118 64.441L51.9637 60.7203ZM53.0237 58.615C53.1213 59.4653 52.7049 60.2924 51.9637 60.7203L54.1118 64.441C56.3354 63.1572 57.5848 60.676 57.292 58.1252L53.0237 58.615ZM52.6072 54.9854L53.0237 58.615L57.292 58.1252L56.8755 54.4956L52.6072 54.9854ZM58.6159 53.0229L54.9862 52.6063L54.4964 56.8746L58.1261 57.2912L58.6159 53.0229ZM60.7212 51.9628C60.2932 52.704 59.4662 53.1205 58.6159 53.0229L58.1261 57.2912C60.6769 57.5839 63.1581 56.3345 64.4419 54.111L60.7212 51.9628ZM60.5866 49.6096C61.0962 50.2971 61.1491 51.2216 60.7212 51.9628L64.4419 54.111C65.7256 51.8874 65.567 49.1139 64.0381 47.0512L60.5866 49.6096ZM58.411 46.6745L60.5866 49.6096L64.0381 47.0512L61.8625 44.1161L58.411 46.6745ZM62.6334 41.9705L59.2818 43.4246L60.9917 47.366L64.3434 45.9119L62.6334 41.9705ZM63.9266 39.9999C63.9266 40.8557 63.4186 41.6299 62.6334 41.9705L64.3434 45.9119C66.6988 44.89 68.2229 42.5674 68.2229 39.9999H63.9266ZM62.6334 38.0292C63.4186 38.3698 63.9266 39.144 63.9266 39.9999H68.2229C68.2229 37.4323 66.6988 35.1097 64.3434 34.0878L62.6334 38.0292ZM59.2818 36.5751L62.6334 38.0292L64.3434 34.0878L60.9917 32.6337L59.2818 36.5751ZM60.5866 30.3901L58.411 33.3252L61.8625 35.8836L64.0381 32.9485L60.5866 30.3901ZM60.7212 28.0369C61.1491 28.7781 61.0962 29.7026 60.5866 30.3901L64.0381 32.9485C65.567 30.8858 65.7256 28.1123 64.4419 25.8887L60.7212 28.0369ZM58.6159 26.9768C59.4662 26.8792 60.2932 27.2957 60.7212 28.0369L64.4419 25.8887C63.1581 23.6652 60.6769 22.4158 58.1261 22.7085L58.6159 26.9768ZM54.9862 27.3934L58.6159 26.9768L58.1261 22.7085L54.4964 23.1251L54.9862 27.3934ZM53.0237 21.3847L52.6072 25.0143L56.8755 25.5042L57.292 21.8745L53.0237 21.3847ZM51.9637 19.2794C52.7049 19.7073 53.1213 20.5344 53.0237 21.3847L57.292 21.8745C57.5848 19.3237 56.3354 16.8425 54.1118 15.5587L51.9637 19.2794ZM49.6104 19.414C50.298 18.9043 51.2225 18.8515 51.9637 19.2794L54.1118 15.5587C51.8882 14.2749 49.1148 14.4335 47.0521 15.9625L49.6104 19.414ZM46.6753 21.5896L49.6104 19.414L47.0521 15.9625L44.117 18.138L46.6753 21.5896ZM41.9714 17.3671L43.4255 20.7188L47.3668 19.0088L45.9127 15.6572L41.9714 17.3671Z" fill="#FF9100" class="fill-orange" />
  <g opacity="0.5">
    <path fill-rule="evenodd" clip-rule="evenodd" d="M42.4821 25.7007C42.0532 24.712 41.0783 24.0723 40.0005 24.0723C38.9228 24.0723 37.9479 24.712 37.5189 25.7007L36.6845 27.624L35.0002 26.3756C34.1344 25.7338 32.9702 25.6672 32.0369 26.2061C31.1035 26.745 30.5791 27.7865 30.702 28.8572L30.941 30.9401L28.8582 30.701C27.7875 30.5781 26.746 31.1026 26.2071 32.0359C25.6682 32.9693 25.7348 34.1334 26.3766 34.9993L27.625 36.6836L25.7017 37.518C24.713 37.9469 24.0732 38.9218 24.0732 39.9996C24.0732 41.0773 24.713 42.0522 25.7017 42.4812L27.625 43.3156L26.3766 44.9999C25.7348 45.8657 25.6682 47.0299 26.2071 47.9632C26.746 48.8966 27.7875 49.421 28.8582 49.2981L30.941 49.0591L30.702 51.1419C30.5791 52.2126 31.1035 53.2541 32.0369 53.793C32.9702 54.3319 34.1344 54.2653 35.0002 53.6235L36.6845 52.3751L37.5189 54.2984C37.9479 55.2871 38.9228 55.9269 40.0005 55.9269C41.0783 55.9269 42.0532 55.2871 42.4821 54.2984L43.3166 52.3751L45.0008 53.6235C45.8667 54.2653 47.0308 54.3319 47.9642 53.793C48.8975 53.2541 49.422 52.2126 49.2991 51.1419L49.0601 49.0591L51.1429 49.2981C52.2136 49.421 53.2551 48.8966 53.794 47.9632C54.3329 47.0299 54.2663 45.8657 53.6245 44.9999L52.3761 43.3156L54.2994 42.4812C55.2881 42.0522 55.9278 41.0773 55.9278 39.9996C55.9278 38.9218 55.2881 37.9469 54.2994 37.518L52.3761 36.6836L53.6245 34.9993C54.2663 34.1334 54.3329 32.9693 53.794 32.0359C53.2551 31.1026 52.2136 30.5781 51.1429 30.701L49.0601 30.9401L49.2991 28.8572C49.422 27.7865 48.8975 26.745 47.9642 26.2061C47.0308 25.6672 45.8667 25.7338 45.0008 26.3756L43.3166 27.624L42.4821 25.7007Z" fill="#F4F4F4" class="fill-white" />
    <path d="M42.4821 25.7007L41.2413 26.239V26.239L42.4821 25.7007ZM37.5189 25.7007L38.7597 26.239V26.239L37.5189 25.7007ZM36.6845 27.624L35.8791 28.7106L37.2474 29.7249L37.9253 28.1623L36.6845 27.624ZM35.0002 26.3756L34.1948 27.4622L35.0002 26.3756ZM32.0369 26.2061L31.3606 25.0348L31.3606 25.0348L32.0369 26.2061ZM30.702 28.8572L29.3583 29.0114L29.3583 29.0114L30.702 28.8572ZM30.941 30.9401L30.7868 32.2838L32.4789 32.478L32.2847 30.7858L30.941 30.9401ZM28.8582 30.701L29.0124 29.3573L28.8582 30.701ZM26.2071 32.0359L27.3784 32.7122L27.3784 32.7122L26.2071 32.0359ZM26.3766 34.9993L25.29 35.8047H25.29L26.3766 34.9993ZM27.625 36.6836L28.1633 37.9244L29.7258 37.2465L28.7116 35.8781L27.625 36.6836ZM25.7017 37.518L25.1634 36.2772H25.1634L25.7017 37.518ZM25.7017 42.4812L26.24 41.2404L26.24 41.2404L25.7017 42.4812ZM27.625 43.3156L28.7116 44.121L29.7258 42.7527L28.1633 42.0748L27.625 43.3156ZM26.3766 44.9999L25.29 44.1945H25.29L26.3766 44.9999ZM26.2071 47.9632L25.0358 48.6395L25.0358 48.6395L26.2071 47.9632ZM28.8582 49.2981L29.0124 50.6418L29.0124 50.6418L28.8582 49.2981ZM30.941 49.0591L32.2847 49.2133L32.4789 47.5212L30.7868 47.7154L30.941 49.0591ZM30.702 51.1419L29.3583 50.9877L29.3583 50.9877L30.702 51.1419ZM32.0369 53.793L32.7132 52.6217H32.7132L32.0369 53.793ZM35.0002 53.6235L34.1948 52.5369L35.0002 53.6235ZM36.6845 52.3751L37.9253 51.8368L37.2474 50.2743L35.8791 51.2885L36.6845 52.3751ZM37.5189 54.2984L38.7597 53.7601L37.5189 54.2984ZM42.4821 54.2984L41.2413 53.7601V53.7601L42.4821 54.2984ZM43.3166 52.3751L44.122 51.2885L42.7536 50.2743L42.0758 51.8368L43.3166 52.3751ZM45.0008 53.6235L45.8062 52.5369L45.0008 53.6235ZM49.2991 51.1419L50.6428 50.9877V50.9877L49.2991 51.1419ZM49.0601 49.0591L49.2143 47.7154L47.5221 47.5212L47.7163 49.2133L49.0601 49.0591ZM51.1429 49.2981L50.9887 50.6418L50.9887 50.6418L51.1429 49.2981ZM53.794 47.9632L54.9653 48.6395L54.9653 48.6395L53.794 47.9632ZM53.6245 44.9999L52.5379 45.8053V45.8053L53.6245 44.9999ZM52.3761 43.3156L51.8378 42.0748L50.2752 42.7527L51.2895 44.121L52.3761 43.3156ZM54.2994 42.4812L53.7611 41.2404L53.7611 41.2404L54.2994 42.4812ZM54.2994 37.518L54.8377 36.2772L54.2994 37.518ZM52.3761 36.6836L51.2895 35.8781L50.2752 37.2465L51.8378 37.9244L52.3761 36.6836ZM53.6245 34.9993L52.5379 34.1939V34.1939L53.6245 34.9993ZM53.794 32.0359L52.6227 32.7122V32.7122L53.794 32.0359ZM51.1429 30.701L51.2971 32.0447L51.1429 30.701ZM49.0601 30.9401L47.7163 30.7858L47.5221 32.478L49.2143 32.2838L49.0601 30.9401ZM49.2991 28.8572L50.6428 29.0114V29.0114L49.2991 28.8572ZM47.9642 26.2061L48.6405 25.0348L48.6405 25.0348L47.9642 26.2061ZM45.0008 26.3756L44.1954 25.289L44.1954 25.289L45.0008 26.3756ZM43.3166 27.624L42.0758 28.1623L42.7536 29.7249L44.122 28.7106L43.3166 27.624ZM40.0005 25.4248C40.5394 25.4248 41.0269 25.7447 41.2413 26.239L43.7229 25.1624C43.0795 23.6794 41.6172 22.7197 40.0005 22.7197V25.4248ZM38.7597 26.239C38.9742 25.7447 39.4617 25.4248 40.0005 25.4248V22.7197C38.3839 22.7197 36.9216 23.6794 36.2781 25.1624L38.7597 26.239ZM37.9253 28.1623L38.7597 26.239L36.2781 25.1624L35.4437 27.0857L37.9253 28.1623ZM34.1948 27.4622L35.8791 28.7106L37.4899 26.5374L35.8057 25.289L34.1948 27.4622ZM32.7132 27.3775C33.1798 27.108 33.7619 27.1413 34.1948 27.4622L35.8057 25.289C34.5069 24.3264 32.7606 24.2265 31.3606 25.0348L32.7132 27.3775ZM32.0457 28.703C31.9843 28.1676 32.2465 27.6469 32.7132 27.3775L31.3606 25.0348C29.9606 25.8431 29.174 27.4053 29.3583 29.0114L32.0457 28.703ZM32.2847 30.7858L32.0457 28.703L29.3583 29.0114L29.5973 31.0943L32.2847 30.7858ZM28.704 32.0447L30.7868 32.2838L31.0952 29.5963L29.0124 29.3573L28.704 32.0447ZM27.3784 32.7122C27.6479 32.2455 28.1686 31.9833 28.704 32.0447L29.0124 29.3573C27.4063 29.173 25.8441 29.9596 25.0358 31.3596L27.3784 32.7122ZM27.4632 34.1939C27.1423 33.7609 27.109 33.1789 27.3784 32.7122L25.0358 31.3596C24.2275 32.7597 24.3273 34.5059 25.29 35.8047L27.4632 34.1939ZM28.7116 35.8781L27.4632 34.1939L25.29 35.8047L26.5384 37.489L28.7116 35.8781ZM26.24 38.7588L28.1633 37.9244L27.0867 35.4428L25.1634 36.2772L26.24 38.7588ZM25.4258 39.9996C25.4258 39.4607 25.7457 38.9732 26.24 38.7588L25.1634 36.2772C23.6803 36.9206 22.7207 38.383 22.7207 39.9996H25.4258ZM26.24 41.2404C25.7457 41.0259 25.4258 40.5384 25.4258 39.9996H22.7207C22.7207 41.6162 23.6803 43.0786 25.1634 43.722L26.24 41.2404ZM28.1633 42.0748L26.24 41.2404L25.1634 43.722L27.0867 44.5564L28.1633 42.0748ZM27.4632 45.8053L28.7116 44.121L26.5384 42.5102L25.29 44.1945L27.4632 45.8053ZM27.3784 47.287C27.109 46.8203 27.1423 46.2382 27.4632 45.8053L25.29 44.1945C24.3273 45.4932 24.2275 47.2395 25.0358 48.6395L27.3784 47.287ZM28.704 47.9544C28.1686 48.0158 27.6479 47.7536 27.3784 47.2869L25.0358 48.6395C25.8441 50.0395 27.4063 50.8262 29.0124 50.6418L28.704 47.9544ZM30.7868 47.7154L28.704 47.9544L29.0124 50.6418L31.0952 50.4028L30.7868 47.7154ZM32.0457 51.2961L32.2847 49.2133L29.5973 48.9049L29.3583 50.9877L32.0457 51.2961ZM32.7132 52.6217C32.2465 52.3522 31.9843 51.8315 32.0457 51.2961L29.3583 50.9877C29.174 52.5938 29.9606 54.156 31.3606 54.9643L32.7132 52.6217ZM34.1948 52.5369C33.7619 52.8578 33.1798 52.8911 32.7132 52.6217L31.3606 54.9643C32.7606 55.7727 34.5069 55.6728 35.8057 54.7101L34.1948 52.5369ZM35.8791 51.2885L34.1948 52.5369L35.8057 54.7101L37.4899 53.4617L35.8791 51.2885ZM38.7597 53.7601L37.9253 51.8368L35.4437 52.9134L36.2781 54.8367L38.7597 53.7601ZM40.0005 54.5743C39.4617 54.5743 38.9742 54.2545 38.7597 53.7601L36.2781 54.8367C36.9216 56.3198 38.3839 57.2794 40.0005 57.2794V54.5743ZM41.2413 53.7601C41.0269 54.2545 40.5394 54.5743 40.0005 54.5743V57.2794C41.6172 57.2794 43.0795 56.3198 43.7229 54.8367L41.2413 53.7601ZM42.0758 51.8368L41.2413 53.7601L43.7229 54.8367L44.5574 52.9134L42.0758 51.8368ZM45.8062 52.5369L44.122 51.2885L42.5111 53.4617L44.1954 54.7101L45.8062 52.5369ZM47.2879 52.6217C46.8213 52.8911 46.2392 52.8578 45.8062 52.5369L44.1954 54.7101C45.4942 55.6728 47.2404 55.7727 48.6405 54.9643L47.2879 52.6217ZM47.9554 51.2961C48.0168 51.8315 47.7546 52.3522 47.2879 52.6217L48.6405 54.9643C50.0405 54.156 50.8271 52.5938 50.6428 50.9877L47.9554 51.2961ZM47.7163 49.2133L47.9554 51.2961L50.6428 50.9877L50.4038 48.9049L47.7163 49.2133ZM51.2971 47.9544L49.2143 47.7154L48.9058 50.4028L50.9887 50.6418L51.2971 47.9544ZM52.6227 47.2869C52.3532 47.7536 51.8325 48.0158 51.2971 47.9544L50.9887 50.6418C52.5948 50.8262 54.157 50.0395 54.9653 48.6395L52.6227 47.2869ZM52.5379 45.8053C52.8588 46.2382 52.8921 46.8203 52.6227 47.287L54.9653 48.6395C55.7736 47.2395 55.6737 45.4932 54.7111 44.1945L52.5379 45.8053ZM51.2895 44.121L52.5379 45.8053L54.7111 44.1945L53.4627 42.5102L51.2895 44.121ZM53.7611 41.2404L51.8378 42.0748L52.9144 44.5564L54.8377 43.722L53.7611 41.2404ZM54.5753 39.9996C54.5753 40.5384 54.2554 41.0259 53.7611 41.2404L54.8377 43.722C56.3208 43.0786 57.2804 41.6162 57.2804 39.9996H54.5753ZM53.7611 38.7588C54.2554 38.9732 54.5753 39.4607 54.5753 39.9996H57.2804C57.2804 38.383 56.3208 36.9206 54.8377 36.2772L53.7611 38.7588ZM51.8378 37.9244L53.7611 38.7588L54.8377 36.2772L52.9144 35.4428L51.8378 37.9244ZM52.5379 34.1939L51.2895 35.8781L53.4627 37.489L54.7111 35.8047L52.5379 34.1939ZM52.6227 32.7122C52.8921 33.1789 52.8588 33.7609 52.5379 34.1939L54.7111 35.8047C55.6737 34.5059 55.7736 32.7597 54.9653 31.3596L52.6227 32.7122ZM51.2971 32.0447C51.8325 31.9833 52.3532 32.2455 52.6227 32.7122L54.9653 31.3596C54.157 29.9596 52.5948 29.173 50.9887 29.3573L51.2971 32.0447ZM49.2143 32.2838L51.2971 32.0447L50.9887 29.3573L48.9058 29.5963L49.2143 32.2838ZM47.9554 28.703L47.7163 30.7858L50.4038 31.0943L50.6428 29.0114L47.9554 28.703ZM47.2879 27.3775C47.7546 27.6469 48.0168 28.1676 47.9554 28.703L50.6428 29.0114C50.8271 27.4053 50.0405 25.8431 48.6405 25.0348L47.2879 27.3775ZM45.8062 27.4622C46.2392 27.1413 46.8212 27.108 47.2879 27.3775L48.6405 25.0348C47.2404 24.2265 45.4942 24.3264 44.1954 25.289L45.8062 27.4622ZM44.122 28.7106L45.8062 27.4622L44.1954 25.289L42.5111 26.5374L44.122 28.7106ZM41.2413 26.239L42.0758 28.1623L44.5574 27.0857L43.7229 25.1624L41.2413 26.239Z" fill="#F4F4F4" class="fill-white" />
  </g>
</svg>