<svg viewBox="0 0 80 81" fill="none">
  <path d="M6.58561 24.0415C5.80457 23.2604 5.80457 21.9941 6.58561 21.2131C7.36666 20.432 8.63299 20.432 9.41404 21.2131L6.58561 24.0415ZM61.7399 45.2547C62.521 46.0357 62.521 47.3021 61.7399 48.0831C60.9589 48.8642 59.6926 48.8642 58.9115 48.0831L61.7399 45.2547ZM9.41404 21.2131L26.0311 37.8301L23.2026 40.6585L6.58561 24.0415L9.41404 21.2131ZM28.8595 37.8301L37.3448 29.3448L40.1732 32.1732L31.6879 40.6585L28.8595 37.8301ZM45.83 29.3448L61.7399 45.2547L58.9115 48.0831L43.0016 32.1732L45.83 29.3448ZM37.3448 29.3448C39.6879 27.0016 43.4869 27.0016 45.83 29.3448L43.0016 32.1732C42.2206 31.3922 40.9542 31.3922 40.1732 32.1732L37.3448 29.3448ZM26.0311 37.8301C26.8121 38.6111 28.0784 38.6111 28.8595 37.8301L31.6879 40.6585C29.3448 43.0016 25.5458 43.0016 23.2026 40.6585L26.0311 37.8301Z" fill="#FF9100" />
  <path d="M65.811 41.1838L54.8404 52.1544C53.7333 53.2614 54.5174 55.1544 56.083 55.1544L65.811 55.1544C67.4678 55.1544 68.811 53.8112 68.811 52.1544L68.811 42.4264C68.811 40.8608 66.918 40.0767 65.811 41.1838Z" fill="#D33131" stroke="#D33131" stroke-width="4" stroke-linecap="round" stroke-linejoin="round" />
  <path d="M8 13V67C8 68.1046 8.89543 69 10 69H72" stroke="#606060" stroke-width="4" stroke-linecap="round" stroke-linejoin="round" />
</svg>