<svg viewBox="0 0 80 80" fill="none">
  <path d="M6.58561 23.0415C5.80457 22.2604 5.80457 20.9941 6.58561 20.2131C7.36666 19.432 8.63299 19.432 9.41404 20.2131L6.58561 23.0415ZM61.7399 44.2547C62.521 45.0357 62.521 46.3021 61.7399 47.0831C60.9589 47.8642 59.6926 47.8642 58.9115 47.0831L61.7399 44.2547ZM9.41404 20.2131L26.0311 36.8301L23.2026 39.6585L6.58561 23.0415L9.41404 20.2131ZM28.8595 36.8301L37.3448 28.3448L40.1732 31.1732L31.6879 39.6585L28.8595 36.8301ZM45.83 28.3448L61.7399 44.2547L58.9115 47.0831L43.0016 31.1732L45.83 28.3448ZM37.3448 28.3448C39.6879 26.0016 43.4869 26.0016 45.83 28.3448L43.0016 31.1732C42.2206 30.3922 40.9542 30.3922 40.1732 31.1732L37.3448 28.3448ZM26.0311 36.8301C26.8121 37.6111 28.0784 37.6111 28.8595 36.8301L31.6879 39.6585C29.3448 42.0016 25.5458 42.0016 23.2026 39.6585L26.0311 36.8301Z" fill="#FF9100" class="fill-orange" />
  <path d="M65.811 40.1838L54.8404 51.1544C53.7333 52.2614 54.5174 54.1544 56.083 54.1544L65.811 54.1544C67.4678 54.1544 68.811 52.8112 68.811 51.1544L68.811 41.4264C68.811 39.8608 66.918 39.0767 65.811 40.1838Z" fill="#D33131" stroke="#D33131" stroke-width="4" stroke-linecap="round" stroke-linejoin="round" class="fill-red stroke-red" />
  <path d="M8 12V66C8 67.1046 8.89543 68 10 68H72" stroke="#606060" stroke-width="4" stroke-linecap="round" stroke-linejoin="round" class="stroke-grey" />
</svg>