<svg viewBox="0 0 88 88" fill="none">
  <path fill-rule="evenodd" clip-rule="evenodd" d="M69.7714 29.1208C71.7069 32.4733 72.9886 36.2033 73.5037 40.1157C74.5338 47.9406 72.4134 55.8543 67.6088 62.1157C62.8042 68.3772 55.709 72.4736 47.8841 73.5038C40.0592 74.5339 32.1456 72.4135 25.8841 67.6089C22.7534 65.2066 20.1639 62.2317 18.2284 58.8792L31.4472 51.2473C33.3693 54.5764 36.5352 57.0057 40.2484 58.0007C43.9617 58.9956 47.9181 58.4747 51.2472 56.5526C54.5764 54.6305 57.0057 51.4646 58.0006 47.7514C58.9956 44.0382 58.4747 40.0818 56.5526 36.7526L69.7714 29.1208Z" fill="#2F80ED" />
  <path fill-rule="evenodd" clip-rule="evenodd" d="M45.1695 14.2645L44.5698 29.5166C41.9791 29.4147 39.4086 30.0096 37.1261 31.2391C34.8435 32.4687 32.9326 34.288 31.5924 36.5074C30.2522 38.7268 29.5318 41.265 29.5064 43.8576C29.4809 46.4501 30.1512 49.002 31.4476 51.2473L18.2287 58.8792C16.2931 55.5267 15.0115 51.7967 14.4964 47.8843C13.4662 40.0594 15.5867 32.1457 20.3913 25.8843C25.1959 19.6228 32.2911 15.5264 40.1159 14.4962C41.8022 14.2742 43.4925 14.1985 45.1695 14.2645Z" fill="#219653" />
  <path fill-rule="evenodd" clip-rule="evenodd" d="M45.1564 14.2639C51.2662 14.5015 57.2001 16.6191 62.1158 20.391C65.2376 22.7865 67.8213 25.7514 69.7551 29.0922L56.5448 36.7387C55.3193 34.6216 53.578 32.8491 51.4831 31.5862C49.3881 30.3234 47.0076 29.6112 44.5633 29.5162L45.1564 14.2639Z" fill="#F2C94C" />
</svg>