<svg viewBox="0 0 80 80" fill="none">
  <path fill-rule="evenodd" clip-rule="evenodd" d="M65.6031 25.2178C67.526 28.5484 68.7993 32.2541 69.311 36.141C70.3344 43.9148 68.2278 51.7768 63.4546 57.9974C58.6814 64.218 51.6325 68.2877 43.8587 69.3111C36.0849 70.3346 28.2229 68.228 22.0023 63.4547C18.892 61.0681 16.3194 58.1126 14.3965 54.782L27.5291 47.1999C29.4386 50.5073 32.5839 52.9207 36.2729 53.9092C39.9618 54.8977 43.8924 54.3802 47.1999 52.4706C50.5073 50.5611 52.9207 47.4158 53.9092 43.7269C54.8976 40.0379 54.3802 36.1073 52.4706 32.7999L65.6031 25.2178Z" fill="#1CB0F6" class="fill-blue" />
  <path fill-rule="evenodd" clip-rule="evenodd" d="M41.1618 10.4585L40.566 25.611C37.9923 25.5098 35.4385 26.1008 33.1709 27.3224C30.9032 28.5439 29.0048 30.3513 27.6733 32.5562C26.3419 34.7611 25.6262 37.2828 25.6009 39.8584C25.5756 42.434 26.2416 44.9693 27.5294 47.1999L14.3968 54.782C12.4739 51.4514 11.2006 47.7457 10.6889 43.8588C9.66546 36.085 11.7721 28.223 16.5453 22.0024C21.3185 15.7818 28.3674 11.7122 36.1412 10.6887C37.8164 10.4682 39.4957 10.393 41.1618 10.4585Z" fill="#7AC70C" class="fill-green" />
  <path fill-rule="evenodd" clip-rule="evenodd" d="M41.1488 10.4579C47.2187 10.6939 53.1139 12.7977 57.9974 16.545C61.0989 18.9249 63.6657 21.8704 65.5869 25.1895L52.4628 32.786C51.2454 30.6827 49.5155 28.9218 47.4342 27.6672C45.3529 26.4126 42.9879 25.7051 40.5595 25.6107L41.1488 10.4579Z" fill="#FFC200" class="fill-yellow" />
</svg>