<svg viewBox="0 0 80 80" fill="none">
  <path fill-rule="evenodd" clip-rule="evenodd" d="M19.8181 20.8179C21.5756 19.0606 24.4248 19.0607 26.1821 20.8181L32.6467 27.2833C34.0665 28.7031 35.9921 29.5008 38 29.5008C40.0079 29.5008 41.9335 28.7031 43.3533 27.2833L49.8179 20.8181C51.5752 19.0607 54.4244 19.0606 56.1819 20.8179C57.9393 22.5752 57.9394 25.4244 56.1821 27.1819L48.4919 34.8727C47.8568 35.5078 47.5 36.3692 47.5 37.2674V46L47.5 63C47.5 65.4853 45.4853 67.5 43 67.5C40.5147 67.5 38.5 65.4853 38.5 63L38.5 51C38.5 50.7239 38.2761 50.5 38 50.5C37.7239 50.5 37.5 50.7239 37.5 51L37.5 63C37.5 65.4853 35.4853 67.5 33 67.5C30.5147 67.5 28.5 65.4853 28.5 63L28.5 46V37.2674C28.5 36.3692 28.1432 35.5078 27.5081 34.8727L19.8179 27.1819C18.0606 25.4244 18.0607 22.5752 19.8181 20.8179Z" fill="#FFC200" />
  <path d="M33.3123 15.1842C36.0474 12.9762 39.9526 12.9762 42.6877 15.1842C45.0322 17.0768 46.0086 20.1937 45.1629 23.0857L44.7748 24.4126C43.8949 27.4219 41.1353 29.4901 38 29.4901C34.8647 29.4901 32.1052 27.4219 31.2252 24.4126L30.8371 23.0857C29.9914 20.1937 30.9678 17.0768 33.3123 15.1842Z" fill="#FF9100" />
</svg>