<svg viewBox="0 0 80 80" fill="none">
  <path fill-rule="evenodd" clip-rule="evenodd" d="M27.021 10C28.1232 10 29.0176 10.8916 29.021 11.9938L29.0365 16.9578C29.0398 18.0234 28.0866 18.8315 27.0211 18.8315C25.9555 18.8316 25.0022 18.0234 25.0056 16.9578L25.0211 11.9938C25.0245 10.8916 25.9189 10 27.021 10ZM19.281 21.3466C20.143 20.7203 20.4392 19.5062 19.8102 18.6461L16.8797 14.639C16.2291 13.7494 14.9814 13.5538 14.0898 14.2016C13.1981 14.8494 12.9986 16.0965 13.6436 16.9902L16.549 21.0155C17.1727 21.8795 18.4189 21.973 19.281 21.3466ZM14.4974 27.9308C14.8267 26.9174 14.3527 25.7611 13.3382 25.435L8.61201 23.9156C7.56276 23.5783 6.43838 24.1534 6.0978 25.2016C5.75722 26.2498 6.32882 27.376 7.37595 27.7198L12.0926 29.2687C13.105 29.6011 14.1682 28.9442 14.4974 27.9308ZM14.4974 36.0692C14.1682 35.0558 13.105 34.3989 12.0926 34.7313L7.37595 36.2802C6.32882 36.624 5.75722 37.7502 6.0978 38.7984C6.43838 39.8466 7.56276 40.4217 8.61201 40.0844L13.3382 38.565C14.3527 38.2389 14.8267 37.0826 14.4974 36.0692ZM19.281 42.6534C18.4189 42.027 17.1727 42.1205 16.5491 42.9845L13.651 46.9997L13.6436 47.0098C12.9986 47.9035 13.1981 49.1506 14.0898 49.7984C14.9814 50.4462 16.2291 50.2506 16.8797 49.361L16.887 49.3509L19.8101 45.3538C20.4391 44.4938 20.143 43.2797 19.281 42.6534ZM35.7995 31.8868C35.4188 32.2086 35.0516 32.5488 34.6992 32.907C32.7324 34.9058 31.3301 37.3578 30.5887 40.0215C30.3106 40.1451 30.0255 40.2546 29.7341 40.3493C27.9709 40.9222 26.0716 40.9222 24.3084 40.3493C22.5452 39.7764 21.0086 38.66 19.9189 37.1602C18.8292 35.6603 18.2422 33.8539 18.2422 32C18.2422 30.1461 18.8292 28.3397 19.9189 26.8398C21.0086 25.34 22.5452 24.2236 24.3084 23.6507C26.0716 23.0778 27.9709 23.0778 29.7341 23.6507C31.4973 24.2236 33.0339 25.34 34.1236 26.8398C35.1911 28.3092 35.7761 30.0726 35.7995 31.8868ZM40.4963 29.1069C40.0606 28.8579 39.7106 28.4391 39.5453 27.9306C39.2161 26.9172 39.6901 25.7609 40.7045 25.4348L45.4182 23.9195L45.4301 23.9156C46.4793 23.5783 47.6037 24.1534 47.9443 25.2016C48.2849 26.2498 47.7133 27.376 46.6661 27.7198L46.6543 27.7237L45.7681 28.0147C43.9449 28.0908 42.1658 28.464 40.4963 29.1069ZM34.7614 21.3463C35.6235 21.9726 36.8697 21.8791 37.4933 21.0151L40.3911 17.0003L40.3984 16.9902C41.0435 16.0965 40.844 14.8494 39.9523 14.2016C39.0607 13.5538 37.813 13.7494 37.1624 14.639L34.2322 18.6458C33.6032 19.5059 33.8994 20.72 34.7614 21.3463Z" fill="#FFC200" class="fill-yellow" />
  <path fill-rule="evenodd" clip-rule="evenodd" d="M46.7183 28C51.1616 28 55.4515 29.7652 58.6438 32.9068C61.836 36.0484 63.6698 40.3094 63.7413 44.7521L63.7671 46.3537C65.6471 46.8424 67.3812 47.8248 68.7782 49.2218C70.8411 51.2847 72 54.0826 72 57C72 59.9174 70.8411 62.7153 68.7782 64.7782C66.7153 66.8411 63.9174 68 61 68H57H56.4436H54C53.9898 68 53.9796 68 53.9694 67.9999H44.0493C44.0329 68.0001 44.0165 68.0002 44 68.0002H39.799H38H34C30.287 68.0002 26.726 66.5252 24.1005 63.8997C21.475 61.2742 20 57.7132 20 54.0002C20 50.2872 21.475 46.7262 24.1005 44.1007C25.9441 42.2571 28.2489 40.9808 30.7436 40.3841C31.456 37.5805 32.895 34.9961 34.9507 32.9068C38.0419 29.7652 42.275 28 46.7183 28Z" fill="#1CB0F6" class="fill-blue" />
</svg>