<svg viewBox="0 0 80 80" fill="none">
  <path fill-rule="evenodd" clip-rule="evenodd" d="M9.19259 24.6205C9.94256 21.7661 11.7904 19.2981 14.3122 17.8132C16.8341 16.3284 19.8537 15.9304 22.6527 16.6952C25.4488 17.4593 27.8515 19.3223 29.2918 21.8666L29.8804 22.9062C30.3249 22.6786 30.7939 22.4946 31.2817 22.3588L31.3523 22.3391C33.2724 21.8045 35.3302 22.078 37.0625 23.098C38.7947 24.1179 40.0559 25.7987 40.5619 27.7618L40.5805 27.834C40.6453 28.0851 40.6973 28.3382 40.7366 28.5923C42.5204 28.8742 44.1801 29.7217 45.4606 31.0277L45.5203 31.0886C45.658 31.2289 45.7903 31.3735 45.9174 31.5219C45.0865 32.3562 44.3583 33.2978 43.7556 34.3294L43.0565 35.526C42.4756 35.2349 41.8629 35.0005 41.2267 34.8288C38.7614 34.1637 36.1271 34.4952 33.9205 35.7543C31.7139 37.0133 30.1062 39.1021 29.4565 41.5447C29.3702 41.8688 29.3017 42.1959 29.2506 42.5247C26.9811 42.8696 24.852 43.9332 23.2043 45.5616C23.0602 45.704 22.9205 45.8502 22.7852 45.9999H14.4629C14.4557 45.9999 14.4485 45.9996 14.4415 45.9991H12.5854C10.3108 45.9991 8.13189 45.084 6.53941 43.4599L6.47968 43.399C4.8903 41.7781 4 39.5985 4 37.3284V37.1585C4 34.8883 4.8903 32.7088 6.47968 31.0879L6.5394 31.027C7.2443 30.3081 8.06411 29.7281 8.95626 29.3049C8.71291 27.7592 8.78799 26.1605 9.19259 24.6205Z" fill="#84D3FF" />
  <path d="M14.3122 17.8132L15.327 19.5367L15.327 19.5367L14.3122 17.8132ZM9.19259 24.6205L11.1269 25.1288L11.1269 25.1288L9.19259 24.6205ZM22.6527 16.6952L23.1799 14.766L22.6527 16.6952ZM29.2918 21.8666L31.0323 20.8813V20.8813L29.2918 21.8666ZM29.8804 22.9062L28.1399 23.8915C28.668 24.8243 29.8377 25.1749 30.7919 24.6864L29.8804 22.9062ZM31.2817 22.3588L30.7452 20.4321L30.7452 20.4321L31.2817 22.3588ZM31.3523 22.3391L31.8888 24.2659L31.8888 24.2659L31.3523 22.3391ZM37.0625 23.098L36.0477 24.8214L36.0477 24.8214L37.0625 23.098ZM40.5619 27.7618L42.4986 27.2626L42.4986 27.2625L40.5619 27.7618ZM40.5805 27.834L38.6438 28.3331L38.6438 28.3332L40.5805 27.834ZM40.7366 28.5923L38.7602 28.8986C38.8933 29.7575 39.5659 30.4321 40.4244 30.5678L40.7366 28.5923ZM45.4606 31.0277L44.0326 32.4279L44.0326 32.4279L45.4606 31.0277ZM45.5203 31.0886L46.9484 29.6883L46.9483 29.6883L45.5203 31.0886ZM45.9174 31.5219L47.3344 32.9333C48.0704 32.1943 48.115 31.0139 47.4369 30.2216L45.9174 31.5219ZM43.7556 34.3294L42.0287 33.3205L43.7556 34.3294ZM43.0565 35.526L42.1606 37.3141C43.1036 37.7866 44.2514 37.4456 44.7834 36.5349L43.0565 35.526ZM41.2267 34.8288L40.7057 36.7598H40.7057L41.2267 34.8288ZM33.9205 35.7543L32.9294 34.0172L33.9205 35.7543ZM29.4565 41.5447L31.3892 42.0588L29.4565 41.5447ZM29.2506 42.5247L29.5511 44.502C30.4144 44.3708 31.0928 43.6947 31.2269 42.8318L29.2506 42.5247ZM23.2043 45.5616L21.7985 44.139L21.7985 44.139L23.2043 45.5616ZM22.7852 45.9999V47.9999C23.3507 47.9999 23.8899 47.7604 24.2691 47.3408L22.7852 45.9999ZM14.4415 45.9991L14.5986 44.0052C14.5463 44.0011 14.4939 43.9991 14.4415 43.9991V45.9991ZM6.53941 43.4599L7.96744 42.0596L7.96742 42.0596L6.53941 43.4599ZM6.47968 43.399L5.05165 44.7992L5.05167 44.7993L6.47968 43.399ZM6.47968 31.0879L5.05167 29.6876L5.05165 29.6876L6.47968 31.0879ZM6.5394 31.027L7.96741 32.4272L7.96743 32.4272L6.5394 31.027ZM8.95626 29.3049L9.81341 31.1119C10.6145 30.7319 11.0698 29.8698 10.9319 28.9939L8.95626 29.3049ZM13.2974 16.0898C10.3119 17.8477 8.13975 20.7572 7.25824 24.1123L11.1269 25.1288C11.7454 22.775 13.2688 20.7486 15.327 19.5367L13.2974 16.0898ZM23.1799 14.766C19.8603 13.8589 16.2845 14.331 13.2974 16.0898L15.327 19.5367C17.3836 18.3257 19.8472 18.0019 22.1255 18.6245L23.1799 14.766ZM31.0323 20.8813C29.3294 17.8732 26.49 15.6705 23.1799 14.766L22.1255 18.6245C24.4077 19.2482 26.3736 20.7714 27.5514 22.8519L31.0323 20.8813ZM31.6208 21.9209L31.0323 20.8813L27.5514 22.8519L28.1399 23.8915L31.6208 21.9209ZM30.7452 20.4321C30.1269 20.6043 29.5323 20.8375 28.9689 21.126L30.7919 24.6864C31.1175 24.5197 31.4609 24.385 31.8182 24.2855L30.7452 20.4321ZM30.8159 20.4124L30.7452 20.4321L31.8182 24.2855L31.8888 24.2659L30.8159 20.4124ZM38.0772 21.3745C35.8815 20.0817 33.2642 19.7307 30.8159 20.4124L31.8888 24.2659C33.2805 23.8784 34.7789 24.0743 36.0477 24.8214L38.0772 21.3745ZM42.4986 27.2625C41.8612 24.79 40.2715 22.6665 38.0772 21.3745L36.0477 24.8214C37.318 25.5694 38.2505 26.8073 38.6252 28.261L42.4986 27.2625ZM42.5172 27.3348L42.4986 27.2626L38.6252 28.2609L38.6438 28.3331L42.5172 27.3348ZM42.7131 28.286C42.6637 27.9672 42.5984 27.6497 42.5172 27.3347L38.6438 28.3332C38.6921 28.5205 38.7309 28.7092 38.7602 28.8986L42.7131 28.286ZM46.8886 29.6274C45.3056 28.013 43.2539 26.9653 41.0489 26.6168L40.4244 30.5678C41.7869 30.7831 43.0546 31.4305 44.0326 32.4279L46.8886 29.6274ZM46.9483 29.6883L46.8886 29.6274L44.0326 32.4279L44.0923 32.4888L46.9483 29.6883ZM47.4369 30.2216C47.2806 30.0389 47.1177 29.861 46.9484 29.6883L44.0923 32.4888C44.1982 32.5969 44.3001 32.7081 44.3978 32.8223L47.4369 30.2216ZM45.4825 35.3382C45.9985 34.455 46.6222 33.6483 47.3344 32.9333L44.5003 30.1106C43.5507 31.064 42.718 32.1406 42.0287 33.3205L45.4825 35.3382ZM44.7834 36.5349L45.4825 35.3382L42.0287 33.3205L41.3296 34.5171L44.7834 36.5349ZM40.7057 36.7598C41.2115 36.8963 41.6987 37.0826 42.1606 37.3141L43.9525 33.7379C43.2525 33.3872 42.5143 33.1047 41.7477 32.8979L40.7057 36.7598ZM34.9117 37.4914C36.6553 36.4965 38.7456 36.2309 40.7057 36.7598L41.7477 32.8979C38.7773 32.0964 35.5989 32.494 32.9294 34.0172L34.9117 37.4914ZM31.3892 42.0588C31.9011 40.1347 33.1689 38.4858 34.9117 37.4914L32.9294 34.0172C30.2589 35.5408 28.3113 38.0696 27.5237 41.0305L31.3892 42.0588ZM31.2269 42.8318C31.2671 42.5725 31.3212 42.3145 31.3892 42.0588L27.5237 41.0305C27.4192 41.4232 27.3362 41.8194 27.2743 42.2176L31.2269 42.8318ZM24.6101 46.9841C25.9568 45.6533 27.6987 44.7835 29.5511 44.502L28.9501 40.5474C26.2634 40.9556 23.7473 42.2131 21.7985 44.139L24.6101 46.9841ZM24.2691 47.3408C24.3792 47.2189 24.4929 47.1 24.6102 46.9841L21.7985 44.139C21.6275 44.308 21.4617 44.4814 21.3013 44.659L24.2691 47.3408ZM14.4629 47.9999H22.7852V43.9999H14.4629V47.9999ZM14.2844 47.9929C14.3438 47.9975 14.4033 47.9999 14.4629 47.9999V43.9999C14.5081 43.9999 14.5533 44.0017 14.5986 44.0052L14.2844 47.9929ZM12.5854 47.9991H14.4415V43.9991H12.5854V47.9991ZM5.11138 44.8601C7.08 46.8678 9.77357 47.9991 12.5854 47.9991V43.9991C10.8481 43.9991 9.18379 43.3001 7.96744 42.0596L5.11138 44.8601ZM5.05167 44.7993L5.1114 44.8602L7.96742 42.0596L7.90769 41.9987L5.05167 44.7993ZM2 37.3284C2 40.1221 3.09566 42.8045 5.05165 44.7992L7.90771 41.9987C6.68494 40.7517 6 39.0749 6 37.3284H2ZM2 37.1585V37.3284H6V37.1585H2ZM5.05165 29.6876C3.09566 31.6824 2 34.3647 2 37.1585H6C6 35.412 6.68494 33.7351 7.90771 32.4881L5.05165 29.6876ZM5.11139 29.6267L5.05167 29.6876L7.90769 32.4881L7.96741 32.4272L5.11139 29.6267ZM8.09911 27.4979C6.99628 28.021 5.98273 28.738 5.11136 29.6267L7.96743 32.4272C8.50588 31.8781 9.13195 31.4352 9.81341 31.1119L8.09911 27.4979ZM7.25824 24.1123C6.78282 25.9218 6.69463 27.7996 6.9806 29.616L10.9319 28.9939C10.7312 27.7189 10.7932 26.3991 11.1269 25.1288L7.25824 24.1123Z" fill="#84D3FF" />
  <path fill-rule="evenodd" clip-rule="evenodd" d="M62.8744 29.2365C66.064 31.0563 68.4303 34.0913 69.3863 37.6174C69.9017 39.5182 69.995 41.4925 69.6824 43.4058C70.8284 43.9347 71.8849 44.6616 72.7947 45.5607C74.8305 47.5726 75.999 50.3382 75.999 53.2004C75.999 56.0625 74.8305 58.8282 72.7947 60.84C70.7614 62.8495 67.995 63.999 65.1362 63.999H62.709C62.7003 63.9997 62.6915 64 62.6827 64H33.3168C33.3141 64 33.3115 64 33.3088 63.9999H30.8618C28.003 63.9999 25.2367 62.8504 23.2033 60.8409C21.1676 58.8291 19.999 56.0634 19.999 53.2013C19.999 50.3391 21.1676 47.5735 23.2033 45.5617C24.851 43.9333 26.9801 42.8696 29.2496 42.5247C29.3007 42.196 29.3692 41.8689 29.4555 41.5447C30.1052 39.1022 31.7129 37.0134 33.9195 35.7544C36.1261 34.4953 38.7604 34.1637 41.2257 34.8289C41.8619 35.0006 42.4746 35.235 43.0555 35.5261L43.7546 34.3294C45.6213 31.1341 48.6927 28.802 52.2883 27.8499C55.8563 26.9051 59.6849 27.4166 62.8744 29.2365Z" fill="#1CB0F6" />
  <path d="M69.3863 37.6174L67.456 38.1407L67.456 38.1407L69.3863 37.6174ZM62.8744 29.2365L61.8833 30.9736V30.9736L62.8744 29.2365ZM69.6824 43.4058L67.7086 43.0834C67.5637 43.9704 68.0283 44.8452 68.8444 45.2218L69.6824 43.4058ZM72.7947 45.5607L71.3889 46.9833L72.7947 45.5607ZM72.7947 60.84L74.2006 62.2626L72.7947 60.84ZM62.709 63.999V61.999C62.6583 61.999 62.6076 62.0009 62.557 62.0048L62.709 63.999ZM33.3088 63.9999L33.3548 62.0004C33.3395 62.0001 33.3241 61.9999 33.3088 61.9999V63.9999ZM23.2033 60.8409L24.6092 59.4184H24.6092L23.2033 60.8409ZM23.2033 45.5617L24.6092 46.9842H24.6092L23.2033 45.5617ZM29.2496 42.5247L29.5501 44.502C30.4134 44.3708 31.0918 43.6947 31.2259 42.8319L29.2496 42.5247ZM29.4555 41.5447L31.3883 42.0589V42.0589L29.4555 41.5447ZM33.9195 35.7544L34.9107 37.4915L34.9107 37.4915L33.9195 35.7544ZM41.2257 34.8289L40.7048 36.7599V36.7599L41.2257 34.8289ZM43.0555 35.5261L42.1596 37.3142C43.1026 37.7867 44.2504 37.4456 44.7824 36.5349L43.0555 35.5261ZM43.7546 34.3294L42.0277 33.3206L43.7546 34.3294ZM52.2883 27.8499L52.8003 29.7833L52.8003 29.7833L52.2883 27.8499ZM71.3166 37.094C70.2195 33.0477 67.5109 29.5793 63.8656 27.4993L61.8833 30.9736C64.617 32.5334 66.641 35.1349 67.456 38.1407L71.3166 37.094ZM71.6563 43.7282C72.0143 41.5366 71.9076 39.2738 71.3166 37.094L67.456 38.1407C67.8957 39.7626 67.9757 41.4483 67.7086 43.0834L71.6563 43.7282ZM74.2006 44.1382C73.1237 43.074 71.8744 42.2147 70.5205 41.5899L68.8444 45.2218C69.7823 45.6546 70.6461 46.2493 71.3889 46.9833L74.2006 44.1382ZM77.999 53.2004C77.999 49.7974 76.612 46.5213 74.2006 44.1382L71.3889 46.9833C73.049 48.6239 73.999 50.8791 73.999 53.2004L77.999 53.2004ZM74.2006 62.2626C76.612 59.8794 77.999 56.6034 77.999 53.2004L73.999 53.2004C73.999 55.5217 73.049 57.7769 71.3889 59.4175L74.2006 62.2626ZM65.1362 65.999C68.5276 65.999 71.7973 64.6377 74.2006 62.2626L71.3889 59.4175C69.7254 61.0614 67.4625 61.999 65.1362 61.999V65.999ZM62.709 65.999H65.1362V61.999H62.709V65.999ZM62.557 62.0048C62.5986 62.0016 62.6405 62 62.6827 62V66C62.7426 66 62.8021 65.9977 62.8611 65.9932L62.557 62.0048ZM62.6827 62L33.3168 62V66H62.6827V62ZM33.3168 62C33.3294 62 33.342 62.0001 33.3548 62.0004L33.2629 65.9994C33.2809 65.9998 33.2989 66 33.3168 66V62ZM30.8618 65.9999H33.3088V61.9999H30.8618V65.9999ZM21.7975 62.2635C24.2008 64.6386 27.4705 65.9999 30.8618 65.9999V61.9999C28.5356 61.9999 26.2726 61.0623 24.6092 59.4184L21.7975 62.2635ZM17.999 53.2013C17.999 56.6043 19.3861 59.8803 21.7975 62.2635L24.6092 59.4184C22.9491 57.7778 21.999 55.5226 21.999 53.2013H17.999ZM21.7975 44.1391C19.3861 46.5222 17.999 49.7983 17.999 53.2013H21.999C21.999 50.88 22.9491 48.6248 24.6092 46.9842L21.7975 44.1391ZM28.9491 40.5474C26.2625 40.9557 23.7463 42.2132 21.7975 44.1391L24.6092 46.9842C25.9558 45.6533 27.6977 44.7835 29.5501 44.502L28.9491 40.5474ZM27.5227 41.0306C27.4182 41.4232 27.3352 41.8195 27.2733 42.2176L31.2259 42.8319C31.2662 42.5725 31.3203 42.3145 31.3883 42.0589L27.5227 41.0306ZM32.9284 34.0172C30.258 35.5409 28.3104 38.0696 27.5227 41.0306L31.3883 42.0589C31.9001 40.1347 33.1679 38.4859 34.9107 37.4915L32.9284 34.0172ZM41.7467 32.898C38.7763 32.0965 35.5979 32.4941 32.9284 34.0172L34.9107 37.4915C36.6544 36.4966 38.7446 36.231 40.7048 36.7599L41.7467 32.898ZM43.9515 33.738C43.2516 33.3873 42.5133 33.1048 41.7467 32.898L40.7048 36.7599C41.2106 36.8963 41.6977 37.0827 42.1596 37.3142L43.9515 33.738ZM42.0277 33.3206L41.3286 34.5172L44.7824 36.5349L45.4815 35.3383L42.0277 33.3206ZM51.7764 25.9166C47.6724 27.0033 44.1628 29.666 42.0277 33.3206L45.4815 35.3383C47.0799 32.6023 49.7131 30.6008 52.8003 29.7833L51.7764 25.9166ZM63.8656 27.4993C60.2229 25.4209 55.8548 24.8366 51.7764 25.9166L52.8003 29.7833C55.8578 28.9736 59.1468 29.4123 61.8833 30.9736L63.8656 27.4993Z" fill="#1CB0F6" />
</svg>