<svg viewBox="0 0 80 80" fill="none">
  <path fill-rule="evenodd" clip-rule="evenodd" d="M44.3278 21.3331C44.3717 21.5977 44.4288 21.8581 44.4986 22.1136L42.2384 24.9432L45.3445 28.7219L48.5571 27.0525C48.7949 27.1708 49.0401 27.2776 49.2919 27.3721C49.5434 27.4666 49.7979 27.5474 50.0545 27.6148L51.3745 30.9859L56.2 30.1853L56.3606 26.5685C56.5816 26.4219 56.7964 26.2632 57.0039 26.0926C57.2117 25.9218 57.4092 25.7415 57.5961 25.5528L61.1757 26.0952L62.8951 21.5159L59.8422 19.5678C59.8257 19.3035 59.7957 19.0386 59.7518 18.774C59.7077 18.5088 59.6504 18.2477 59.5804 17.9916L61.8408 15.1617L58.7348 11.3831L55.52 13.0535C55.283 12.9357 55.0386 12.8293 54.7876 12.735C54.5363 12.6407 54.282 12.5599 54.0257 12.4925L52.7047 9.11896L47.8793 9.91958L47.7185 13.5389C47.4977 13.6855 47.2831 13.8441 47.0757 14.0146C46.8686 14.1848 46.6717 14.3644 46.4854 14.5525L42.9035 14.0097L41.1841 18.589L44.2372 20.5372C44.2537 20.8022 44.2838 21.0678 44.3278 21.3331ZM53.0997 16.871C51.9682 16.4461 50.696 16.6572 49.7624 17.4247C48.8287 18.1922 48.3754 19.3995 48.5732 20.5918C48.771 21.7841 49.5899 22.7804 50.7214 23.2052C51.8529 23.63 53.1251 23.419 54.0588 22.6515C54.9925 21.884 55.4458 20.6767 55.2479 19.4844C55.0501 18.292 54.2312 17.2958 53.0997 16.871Z" fill="#7AC70C" class="fill-green" />
  <path fill-rule="evenodd" clip-rule="evenodd" d="M49.6418 53.5424C49.6508 53.9994 49.6874 54.4525 49.7506 54.8997L46.8107 57.1484L49.4739 62.4111L53.0248 61.3748C53.3491 61.6923 53.6941 61.9919 54.0589 62.2712C54.4224 62.5495 54.8001 62.8038 55.1898 63.0334L55.115 66.731L60.89 67.9301L62.2931 64.5094C62.7431 64.4539 63.1919 64.3709 63.6373 64.26C64.0826 64.1491 64.5179 64.0119 64.9413 63.85L67.7847 66.2131L72.3228 62.4457L70.5228 59.2152C70.7593 58.8296 70.9738 58.4277 71.1643 58.0113C71.3555 57.5936 71.5197 57.1672 71.6572 56.7347L75.2791 55.9847L75.1631 50.0877L71.5123 49.4804C71.3584 49.0558 71.1783 48.6383 70.9719 48.2305C70.7646 47.8209 70.5339 47.4269 70.2817 47.05L71.955 43.7479L67.2722 40.1619L64.5191 42.6394C64.0912 42.495 63.6525 42.3756 63.2049 42.2827C62.7565 42.1895 62.3056 42.1244 61.8546 42.0865L60.3153 38.7174L54.5919 40.1427L54.8124 43.8404C54.432 44.0853 54.0645 44.3542 53.7121 44.6467C53.3604 44.9387 53.0289 45.25 52.7187 45.5782L49.125 44.6812L46.671 50.0446L49.6977 52.1764C49.6517 52.6275 49.6327 53.0836 49.6418 53.5424ZM61.914 47.6421C60.188 47.2837 58.3928 47.7308 57.0365 48.8567C55.6802 49.9827 54.9105 51.665 54.9452 53.4274C54.9798 55.1898 55.8152 56.8405 57.2147 57.9123C58.6142 58.984 60.4256 59.3601 62.1361 58.9341C63.8466 58.5082 65.2701 57.3264 66.0035 55.7235C66.737 54.1206 66.7006 52.2709 65.9047 50.6981C65.1087 49.1253 63.6399 48.0004 61.914 47.6421Z" fill="#1CB0F6" class="fill-blue" />
  <path fill-rule="evenodd" clip-rule="evenodd" d="M41.07 31.2548C40.3073 30.1075 39.414 29.0847 38.4199 28.1972L39.5686 22.6837L30.3006 19.24L27.5711 24.1646C26.2373 24.1872 24.8915 24.3786 23.5632 24.7499C23.3214 24.8175 23.0821 24.8905 22.8456 24.9687L18.643 21.2152L11.0266 27.5197L13.9366 32.3623C13.1712 33.7455 12.608 35.2502 12.2812 36.8334L6.90838 38.6031L8.56007 48.3513L14.2337 48.2521C15.0509 49.6075 16.0691 50.8392 17.2576 51.901L16.0994 57.4595L25.3675 60.9032L28.1207 55.9358C29.7132 55.9072 31.2877 55.6391 32.7909 55.1463L37.0251 58.928L44.6415 52.6235L41.7256 47.7712C42.5108 46.3602 43.0663 44.8545 43.3897 43.3089L48.7597 41.5401L47.108 31.7919L41.4714 31.8905C41.3431 31.6763 41.2093 31.4644 41.07 31.2548ZM31.574 37.2461C30.4331 35.53 28.317 34.7437 26.3323 35.2984C24.3477 35.8532 22.9459 37.6228 22.8602 39.6817C22.7745 41.7407 24.0244 43.6207 25.956 44.3384C27.8877 45.0562 30.0619 44.4484 31.3415 42.8331C32.621 41.2177 32.7149 38.9622 31.574 37.2461Z" fill="#FFC200" class="fill-yellow" />
</svg>