<svg viewBox="0 0 80 80" fill="none">
  <path fill-rule="evenodd" clip-rule="evenodd" d="M44.3278 21.3326C44.3717 21.5972 44.4288 21.8576 44.4986 22.1131L42.2384 24.9427L45.3445 28.7214L48.5571 27.052C48.7949 27.1703 49.0401 27.2771 49.2919 27.3716C49.5434 27.4661 49.7979 27.5469 50.0545 27.6143L51.3745 30.9855L56.2 30.1848L56.3606 26.568C56.5816 26.4214 56.7964 26.2627 57.0039 26.0921C57.2117 25.9213 57.4092 25.741 57.5961 25.5523L61.1757 26.0947L62.8951 21.5154L59.8422 19.5673C59.8257 19.303 59.7957 19.0381 59.7518 18.7736C59.7077 18.5083 59.6504 18.2472 59.5804 17.9911L61.8408 15.1612L58.7348 11.3826L55.52 13.053C55.283 12.9352 55.0386 12.8288 54.7876 12.7345C54.5363 12.6402 54.282 12.5594 54.0257 12.492L52.7047 9.11847L47.8793 9.91909L47.7185 13.5385C47.4977 13.685 47.2831 13.8436 47.0757 14.0141C46.8686 14.1843 46.6717 14.3639 46.4854 14.552L42.9035 14.0092L41.1841 18.5885L44.2372 20.5367C44.2537 20.8017 44.2838 21.0673 44.3278 21.3326ZM53.0997 16.8705C51.9682 16.4457 50.696 16.6567 49.7624 17.4242C48.8287 18.1917 48.3754 19.399 48.5732 20.5913C48.771 21.7836 49.5899 22.7799 50.7214 23.2047C51.8529 23.6295 53.1251 23.4185 54.0588 22.651C54.9925 21.8835 55.4458 20.6762 55.2479 19.4839C55.0501 18.2916 54.2312 17.2953 53.0997 16.8705Z" fill="#7AC70C" class="fill-green" />
  <path fill-rule="evenodd" clip-rule="evenodd" d="M49.6418 53.5429C49.6508 53.9999 49.6874 54.453 49.7506 54.9001L46.8107 57.1489L49.4739 62.4116L53.0248 61.3753C53.3491 61.6928 53.6941 61.9923 54.0589 62.2717C54.4224 62.55 54.8001 62.8043 55.1898 63.0339L55.115 66.7315L60.89 67.9306L62.2931 64.5099C62.7431 64.4544 63.1919 64.3714 63.6373 64.2605C64.0826 64.1496 64.5179 64.0124 64.9413 63.8505L67.7847 66.2136L72.3228 62.4462L70.5228 59.2157C70.7593 58.8301 70.9738 58.4282 71.1643 58.0118C71.3555 57.5941 71.5197 57.1677 71.6572 56.7352L75.2791 55.9852L75.1631 50.0882L71.5123 49.4809C71.3584 49.0563 71.1783 48.6388 70.9719 48.231C70.7646 47.8214 70.5339 47.4274 70.2817 47.0505L71.955 43.7484L67.2722 40.1624L64.5191 42.6399C64.0912 42.4955 63.6525 42.3761 63.2049 42.2832C62.7565 42.19 62.3056 42.1249 61.8546 42.087L60.3153 38.7179L54.5919 40.1432L54.8124 43.8409C54.432 44.0857 54.0645 44.3547 53.7121 44.6472C53.3604 44.9392 53.0289 45.2504 52.7187 45.5787L49.125 44.6817L46.671 50.045L49.6977 52.1769C49.6517 52.628 49.6327 53.0841 49.6418 53.5429ZM61.914 47.6426C60.188 47.2842 58.3928 47.7313 57.0365 48.8572C55.6802 49.9832 54.9105 51.6655 54.9452 53.4279C54.9798 55.1903 55.8152 56.841 57.2147 57.9127C58.6142 58.9845 60.4256 59.3606 62.1361 58.9346C63.8466 58.5086 65.2701 57.3269 66.0035 55.724C66.737 54.1211 66.7006 52.2714 65.9047 50.6986C65.1087 49.1257 63.6399 48.0009 61.914 47.6426Z" fill="#1CB0F6" class="fill-blue" />
  <path fill-rule="evenodd" clip-rule="evenodd" d="M41.07 31.2544C40.3073 30.1071 39.414 29.0842 38.4199 28.1967L39.5686 22.6832L30.3006 19.2395L27.5711 24.1641C26.2373 24.1867 24.8915 24.3781 23.5632 24.7494C23.3214 24.817 23.0821 24.89 22.8456 24.9682L18.643 21.2147L11.0266 27.5192L13.9366 32.3618C13.1712 33.745 12.608 35.2497 12.2812 36.8329L6.90838 38.6026L8.56007 48.3509L14.2337 48.2516C15.0509 49.607 16.0691 50.8388 17.2576 51.9005L16.0994 57.459L25.3675 60.9027L28.1207 55.9353C29.7132 55.9067 31.2877 55.6386 32.7909 55.1458L37.0251 58.9275L44.6415 52.623L41.7256 47.7707C42.5108 46.3597 43.0663 44.854 43.3897 43.3084L48.7597 41.5397L47.108 31.7914L41.4714 31.89C41.3431 31.6759 41.2093 31.4639 41.07 31.2544ZM31.574 37.2456C30.4331 35.5295 28.317 34.7432 26.3323 35.2979C24.3477 35.8527 22.9459 37.6223 22.8602 39.6812C22.7745 41.7402 24.0244 43.6202 25.956 44.3379C27.8877 45.0557 30.0619 44.448 31.3415 42.8326C32.621 41.2173 32.7149 38.9617 31.574 37.2456Z" fill="#FFC200" class="fill-yellow" />
</svg>