<svg viewBox="0 0 90 80" fill="none">
  <path fill-rule="evenodd" clip-rule="evenodd" d="M49.3278 21.3326C49.3717 21.5972 49.4288 21.8576 49.4986 22.1131L47.2384 24.9427L50.3445 28.7214L53.5571 27.052C53.7949 27.1703 54.0401 27.2771 54.2919 27.3716C54.5434 27.4661 54.7979 27.5469 55.0545 27.6143L56.3745 30.9855L61.2 30.1848L61.3606 26.568C61.5816 26.4214 61.7964 26.2627 62.0039 26.0921C62.2117 25.9213 62.4092 25.741 62.5961 25.5523L66.1757 26.0947L67.8951 21.5154L64.8422 19.5673C64.8257 19.303 64.7957 19.0381 64.7518 18.7736C64.7077 18.5083 64.6504 18.2472 64.5804 17.9911L66.8408 15.1612L63.7348 11.3826L60.52 13.053C60.283 12.9352 60.0386 12.8288 59.7876 12.7345C59.5363 12.6402 59.282 12.5594 59.0257 12.492L57.7047 9.11847L52.8793 9.91909L52.7185 13.5385C52.4977 13.685 52.2831 13.8436 52.0757 14.0141C51.8686 14.1843 51.6717 14.3639 51.4854 14.552L47.9035 14.0092L46.1841 18.5885L49.2372 20.5367C49.2537 20.8017 49.2838 21.0673 49.3278 21.3326ZM58.0997 16.8705C56.9682 16.4457 55.696 16.6567 54.7624 17.4242C53.8287 18.1917 53.3754 19.399 53.5732 20.5913C53.771 21.7836 54.5899 22.7799 55.7214 23.2047C56.8529 23.6295 58.1251 23.4185 59.0588 22.651C59.9925 21.8835 60.4458 20.6762 60.2479 19.4839C60.0501 18.2916 59.2312 17.2953 58.0997 16.8705Z" fill="#7AC70C" />
  <path fill-rule="evenodd" clip-rule="evenodd" d="M54.6418 53.5429C54.6508 53.9999 54.6874 54.453 54.7506 54.9001L51.8107 57.1489L54.4739 62.4116L58.0248 61.3753C58.3491 61.6928 58.6941 61.9923 59.0589 62.2717C59.4224 62.55 59.8001 62.8043 60.1898 63.0339L60.115 66.7315L65.89 67.9306L67.2931 64.5099C67.7431 64.4544 68.1919 64.3714 68.6373 64.2605C69.0826 64.1496 69.5179 64.0124 69.9413 63.8505L72.7847 66.2136L77.3228 62.4462L75.5228 59.2157C75.7593 58.8301 75.9738 58.4282 76.1643 58.0118C76.3555 57.5941 76.5197 57.1677 76.6572 56.7352L80.2791 55.9852L80.1631 50.0882L76.5123 49.4809C76.3584 49.0563 76.1783 48.6388 75.9719 48.231C75.7646 47.8214 75.5339 47.4274 75.2817 47.0505L76.955 43.7484L72.2722 40.1624L69.5191 42.6399C69.0912 42.4955 68.6525 42.3761 68.2049 42.2832C67.7565 42.19 67.3056 42.1249 66.8546 42.087L65.3153 38.7179L59.5919 40.1432L59.8124 43.8409C59.432 44.0857 59.0645 44.3547 58.7121 44.6472C58.3604 44.9392 58.0289 45.2504 57.7187 45.5787L54.125 44.6817L51.671 50.045L54.6977 52.1769C54.6517 52.628 54.6327 53.0841 54.6418 53.5429ZM66.914 47.6426C65.188 47.2842 63.3928 47.7313 62.0365 48.8572C60.6802 49.9832 59.9105 51.6655 59.9452 53.4279C59.9798 55.1903 60.8152 56.841 62.2147 57.9127C63.6142 58.9845 65.4256 59.3606 67.1361 58.9346C68.8466 58.5086 70.2701 57.3269 71.0035 55.724C71.737 54.1211 71.7006 52.2714 70.9047 50.6986C70.1087 49.1257 68.6399 48.0009 66.914 47.6426Z" fill="#1CB0F6" />
  <path fill-rule="evenodd" clip-rule="evenodd" d="M46.07 31.2544C45.3073 30.1071 44.414 29.0842 43.4199 28.1967L44.5686 22.6832L35.3006 19.2395L32.5711 24.1641C31.2373 24.1867 29.8915 24.3781 28.5632 24.7494C28.3214 24.817 28.0821 24.89 27.8456 24.9682L23.643 21.2147L16.0266 27.5192L18.9366 32.3618C18.1712 33.745 17.608 35.2497 17.2812 36.8329L11.9084 38.6026L13.5601 48.3509L19.2337 48.2516C20.0509 49.607 21.0691 50.8388 22.2576 51.9005L21.0994 57.459L30.3675 60.9027L33.1207 55.9353C34.7132 55.9067 36.2877 55.6386 37.7909 55.1458L42.0251 58.9275L49.6415 52.623L46.7256 47.7707C47.5108 46.3597 48.0663 44.854 48.3897 43.3084L53.7597 41.5397L52.108 31.7914L46.4714 31.89C46.3431 31.6759 46.2093 31.4639 46.07 31.2544ZM36.574 37.2456C35.4331 35.5295 33.317 34.7432 31.3323 35.2979C29.3477 35.8527 27.9459 37.6223 27.8602 39.6812C27.7745 41.7402 29.0244 43.6202 30.956 44.3379C32.8877 45.0557 35.0619 44.448 36.3415 42.8326C37.621 41.2173 37.7149 38.9617 36.574 37.2456Z" fill="#FFC200" />
</svg>