<svg viewBox="0 0 80 80" fill="none">
  <path fill-rule="evenodd" clip-rule="evenodd" d="M40 66C54.3594 66 66 54.3594 66 40C66 25.6406 54.3594 14 40 14C25.6406 14 14 25.6406 14 40C14 46.5596 16.4291 52.5518 20.4369 57.1261L16 66L40 66Z" fill="#84D3FF" class="fill-blue" />
  <path d="M40 66V68V66ZM20.4369 57.1261L22.2258 58.0206C22.5892 57.2938 22.4767 56.4193 21.9412 55.8082L20.4369 57.1261ZM16 66L14.2111 65.1056C13.9012 65.7255 13.9343 66.4618 14.2987 67.0515C14.6631 67.6411 15.3068 68 16 68L16 66ZM64 40C64 53.2548 53.2548 64 40 64V68C55.464 68 68 55.464 68 40H64ZM40 16C53.2548 16 64 26.7452 64 40H68C68 24.536 55.464 12 40 12V16ZM16 40C16 26.7452 26.7452 16 40 16V12C24.536 12 12 24.536 12 40H16ZM21.9412 55.8082C18.2407 51.5845 16 46.0564 16 40H12C12 47.0627 14.6176 53.519 18.9326 58.4441L21.9412 55.8082ZM17.7889 66.8944L22.2258 58.0206L18.6481 56.2317L14.2111 65.1056L17.7889 66.8944ZM40 64L16 64L16 68L40 68V64Z" fill="#84D3FF" class="fill-blue" />
  <path d="M38.1328 52.0001C38.1328 53.1047 39.0282 54.0001 40.1328 54.0001C41.2374 54.0001 42.1328 53.1047 42.1328 52.0001H38.1328ZM42.1328 32.4001C42.1328 31.2955 41.2374 30.4001 40.1328 30.4001C39.0282 30.4001 38.1328 31.2955 38.1328 32.4001H42.1328ZM42 26.1001C42 24.9955 41.1046 24.1001 40 24.1001C38.8954 24.1001 38 24.9955 38 26.1001H42ZM38 27.5001C38 28.6047 38.8954 29.5001 40 29.5001C41.1046 29.5001 42 28.6047 42 27.5001H38ZM32.1328 30.4001C31.0282 30.4001 30.1328 31.2955 30.1328 32.4001C30.1328 33.5047 31.0282 34.4001 32.1328 34.4001V30.4001ZM40.1328 34.4001C41.2374 34.4001 42.1328 33.5047 42.1328 32.4001C42.1328 31.2955 41.2374 30.4001 40.1328 30.4001V34.4001ZM32 50.0001C30.8954 50.0001 30 50.8955 30 52.0001C30 53.1047 30.8954 54.0001 32 54.0001V50.0001ZM48 54.0001C49.1046 54.0001 50 53.1047 50 52.0001C50 50.8955 49.1046 50.0001 48 50.0001V54.0001ZM42.1328 52.0001V32.4001H38.1328V52.0001H42.1328ZM38 26.1001V27.5001H42V26.1001H38ZM32.1328 34.4001H40.1328V30.4001H32.1328V34.4001ZM32 54.0001H48V50.0001H32V54.0001Z" fill="#F4F4F4" class="fill-white" />
</svg>