<svg viewBox="0 0 80 80" fill="none">
  <path fill-rule="evenodd" clip-rule="evenodd" d="M30 54.9998L30 39.5695C30 38.5152 30.4163 37.5034 31.1583 36.7544L41.6276 26.1863C42.3787 25.4281 43.4016 25.0015 44.4689 25.0014L50 25.0008V17.0002C50 14.7907 48.2087 12.9998 45.9993 13.0002L37.8095 13.0016L22.0004 12.9999C19.7911 12.9996 18 14.7906 18 16.9999L18 50.9998C18 53.2089 19.7909 54.9998 22 54.9998H30Z" fill="#FFC200" class="fill-yellow" />
  <path fill-rule="evenodd" clip-rule="evenodd" d="M41.73 26.0868C42.4703 25.391 43.4494 25.0017 44.4689 25.0016L57.9996 25.0001C60.2089 24.9999 62 26.7908 62 29.0001L62 63C62 65.2092 60.2091 67 58 67H34C31.7909 67 30 65.2092 30 63L30 39.5698C30 38.5531 30.3871 37.576 31.0801 36.8359C30.7326 37.2613 31.0304 37.9217 31.6 37.9217L38.8 37.9217C41.0091 37.9217 42.8 36.1309 42.8 33.9217V26.6139C42.8 26.0509 42.1531 25.7558 41.73 26.0868Z" fill="#FF9100" class="fill-orange" />
  <path d="M31.1257 36.7845L41.6631 26.1458C42.0808 25.724 42.7998 26.0198 42.7998 26.6134V33.9212C42.7998 36.1304 41.0089 37.9212 38.7998 37.9212H31.5998C31.0069 37.9212 30.7085 37.2057 31.1257 36.7845Z" fill="#F4F4F4" class="fill-white" />
</svg>