<svg viewBox="0 0 80 80" fill="none">
  <path fill-rule="evenodd" clip-rule="evenodd" d="M46 19V15C46 13.8954 45.1046 13 44 13L36 13C34.8954 13 34 13.8954 34 15V19V25.2333V25.636V26.1006V26.5653C34 26.8054 33.8054 27 33.5653 27H26L22 27C20.8954 27 20 27.8954 20 29V37C20 38.1046 20.8954 39 22 39H26H33.9512C33.9782 39 34 39.0218 34 39.0488L34 61V65C34 66.1046 34.8954 67 36 67H44C45.1046 67 46 66.1046 46 65V61L46 39.0488C46 39.0218 46.0218 39 46.0488 39L54 39H58C59.1046 39 60 38.1046 60 37L60 29C60 27.8954 59.1046 27 58 27H54L46.4347 27C46.1946 27 46 26.8054 46 26.5653V26.1006V25.636V25.2333V19Z" fill="#FFC200" />
  <path fill-rule="evenodd" clip-rule="evenodd" d="M41.5 19V18.5C41.5 17.9477 41.0523 17.5 40.5 17.5H39.5C38.9477 17.5 38.5 17.9477 38.5 18.5V19V25.2333V25.636V26.1006V26.5653V27.0299V27.4326V27.8043V28.3V28.6407V29.0434V29.3841V29.7868V30.5C38.5 31.0523 38.0523 31.5 37.5 31.5H26H25.5C24.9477 31.5 24.5 31.9477 24.5 32.5V33.5C24.5 34.0523 24.9477 34.5 25.5 34.5H26H37.6064C38.0999 34.5 38.5 34.9001 38.5 35.3936V35.7653V36.075V36.4777V36.9114V37.2212V37.469V37.9026V38.3363V38.739V39.0488L38.5 61V61.5C38.5 62.0523 38.9477 62.5 39.5 62.5H40.5C41.0523 62.5 41.5 62.0523 41.5 61.5V61L41.5 39.0488V38.739V38.3363V37.9026V37.469V37.2212V36.9114V36.4777V36.075V35.7653V35.3936C41.5 34.9001 41.9001 34.5 42.3936 34.5H54H54.5C55.0523 34.5 55.5 34.0523 55.5 33.5V32.5C55.5 31.9477 55.0523 31.5 54.5 31.5H54L42.5 31.5C41.9477 31.5 41.5 31.0523 41.5 30.5V29.7868V29.3841V29.0434V28.6407V28.3V27.8043V27.4326V27.0299V26.5653V26.1006V25.636V25.2333V19Z" fill="#FF9100" />
</svg>