<svg viewBox="0 0 80 80" fill="none">
  <path d="M30.1005 16.1005C36.439 13.475 43.561 13.475 49.8995 16.1005C56.238 18.726 61.274 23.762 63.8995 30.1005C66.525 36.439 66.525 43.561 63.8995 49.8995C61.274 56.238 56.238 61.274 49.8995 63.8995C43.561 66.525 36.439 66.525 30.1005 63.8995C23.762 61.274 18.726 56.238 16.1005 49.8995C13.475 43.561 13.475 36.439 16.1005 30.1005C18.726 23.762 23.762 18.726 30.1005 16.1005Z" fill="#F2C94C" />
  <path fill-rule="evenodd" clip-rule="evenodd" d="M14.2089 42.0015C14.1055 40.6692 14.1055 39.3307 14.2089 37.9984L25.2165 37.9906C25.7474 37.9902 26.2566 38.201 26.6321 38.5763C27.0075 38.9517 27.2182 39.461 27.2179 39.9918V40.0081C27.2182 40.539 27.0075 41.0482 26.6321 41.4236C26.2566 41.799 25.7474 42.0097 25.2165 42.0093L14.2089 42.0015ZM42.0015 65.7911C40.6692 65.8944 39.3307 65.8944 37.9984 65.7911L37.9906 54.7835C37.9902 54.2528 38.2008 53.7437 38.5759 53.3683C38.951 52.993 39.4599 52.782 39.9906 52.782H39.9907H39.9907H39.9907H39.9908H39.9908H39.9908H39.9909H39.9909H39.9909H39.991H39.991H39.9911H39.9911H39.9911H39.9912H39.9912H39.9912H39.9913H39.9913H39.9914H39.9914H39.9914H39.9915H39.9915H39.9915H39.9916H39.9916H39.9916H39.9917H39.9917H39.9918H39.9918H39.9918H39.9919H39.9919H39.9919H39.992H39.992H39.992H39.9921H39.9921H39.9922H39.9922H39.9922H39.9923H39.9923H39.9923H39.9924H39.9924H39.9924H39.9925H39.9925H39.9926H39.9926H39.9926H39.9927H39.9927H39.9927H39.9928H39.9928H39.9928H39.9929H39.9929H39.993H39.993H39.993H39.9931H39.9931H39.9931H39.9932H39.9932H39.9933H39.9933H39.9933H39.9934H39.9934H39.9934H39.9935H39.9935H39.9935H39.9936H39.9936H39.9937H39.9937H39.9937H39.9938H39.9938H39.9938H39.9939H39.9939H39.9939H39.994H39.994H39.9941H39.9941H39.9941H39.9942H39.9942H39.9942H39.9943H39.9943H39.9943H39.9944H39.9944H39.9945H39.9945H39.9945H39.9946H39.9946H39.9946H39.9947H39.9947H39.9948H39.9948H39.9948H39.9949H39.9949H39.9949H39.995H39.995H39.995H39.9951H39.9951H39.9952H39.9952H39.9952H39.9953H39.9953H39.9953H39.9954H39.9954H39.9954H39.9955H39.9955H39.9956H39.9956H39.9956H39.9957H39.9957H39.9957H39.9958H39.9958H39.9958H39.9959H39.9959H39.996H39.996H39.996H39.9961H39.9961H39.9961H39.9962H39.9962H39.9962H39.9963H39.9963H39.9964H39.9964H39.9964H39.9965H39.9965H39.9965H39.9966H39.9966H39.9967H39.9967H39.9967H39.9968H39.9968H39.9968H39.9969H39.9969H39.9969H39.997H39.997H39.9971H39.9971H39.9971H39.9972H39.9972H39.9972H39.9973H39.9973H39.9973H39.9974H39.9974H39.9975H39.9975H39.9975H39.9976H39.9976H39.9976H39.9977H39.9977H39.9977H39.9978H39.9978H39.9979H39.9979H39.9979H39.998H39.998H39.998H39.9981H39.9981H39.9981H39.9982H39.9982H39.9983H39.9983H39.9983H39.9984H39.9984H39.9984H39.9985H39.9985H39.9986H39.9986H39.9986H39.9987H39.9987H39.9987H39.9988H39.9988H39.9988H39.9989H39.9989H39.999H39.999H39.999H39.9991H39.9991H39.9991H39.9992H39.9992H39.9992H39.9993H39.9993H39.9994H39.9994H39.9994H39.9995H39.9995H39.9995H39.9996H39.9996H39.9996H39.9997H39.9997H39.9998H39.9998H39.9998H39.9999H39.9999H39.9999H40H40H40H40.0001H40.0001H40.0002H40.0002H40.0002H40.0003H40.0003H40.0003H40.0004H40.0004H40.0005H40.0005H40.0005H40.0006H40.0006H40.0006H40.0007H40.0007H40.0007H40.0008H40.0008H40.0009H40.0009H40.0009H40.001H40.001H40.001H40.0011H40.0011H40.0011H40.0012H40.0012H40.0013H40.0013H40.0013H40.0014H40.0014H40.0014H40.0015H40.0015H40.0015H40.0016H40.0016H40.0017H40.0017H40.0017H40.0018H40.0018H40.0018H40.0019H40.0019H40.0019H40.002H40.002H40.0021H40.0021H40.0021H40.0022H40.0022H40.0022H40.0023H40.0023H40.0023H40.0024H40.0024H40.0025H40.0025H40.0025H40.0026H40.0026H40.0026H40.0027H40.0027H40.0028H40.0028H40.0028H40.0029H40.0029H40.0029H40.003H40.003H40.003H40.0031H40.0031H40.0032H40.0032H40.0032H40.0033H40.0033H40.0033H40.0034H40.0034H40.0034H40.0035H40.0035H40.0036H40.0036H40.0036H40.0037H40.0037H40.0037H40.0038H40.0038H40.0038H40.0039H40.0039H40.004H40.004H40.004H40.0041H40.0041H40.0041H40.0042H40.0042H40.0042H40.0043H40.0043H40.0044H40.0044H40.0044H40.0045H40.0045H40.0045H40.0046H40.0046H40.0047H40.0047H40.0047H40.0048H40.0048H40.0048H40.0049H40.0049H40.0049H40.005H40.005H40.0051H40.0051H40.0051H40.0052H40.0052H40.0052H40.0053H40.0053H40.0053H40.0054H40.0054H40.0055H40.0055H40.0055H40.0056H40.0056H40.0056H40.0057H40.0057H40.0057H40.0058H40.0058H40.0059H40.0059H40.0059H40.006H40.006H40.006H40.0061H40.0061H40.0061H40.0062H40.0062H40.0063H40.0063H40.0063H40.0064H40.0064H40.0064H40.0065H40.0065H40.0066H40.0066H40.0066H40.0067H40.0067H40.0067H40.0068H40.0068H40.0068H40.0069H40.0069H40.007H40.007H40.007H40.0071H40.0071H40.0071H40.0072H40.0072H40.0072H40.0073H40.0073H40.0074H40.0074H40.0074H40.0075H40.0075H40.0075H40.0076H40.0076H40.0076H40.0077H40.0077H40.0078H40.0078H40.0078H40.0079H40.0079H40.0079H40.008H40.008H40.0081H40.0081H40.0081H40.0082H40.0082H40.0082H40.0083H40.0083H40.0083H40.0084H40.0084H40.0085H40.0085H40.0085H40.0086H40.0086H40.0086H40.0087H40.0087H40.0087H40.0088H40.0088H40.0089H40.0089H40.0089H40.009H40.009H40.009H40.0091H40.0091H40.0091H40.0092H40.0092H40.0093H40.0093H40.0093C40.54 52.782 41.0489 52.993 41.424 53.3683C41.7992 53.7437 42.0097 54.2528 42.0093 54.7835L42.0015 65.7911ZM65.7911 37.9984C65.8944 39.3307 65.8944 40.6692 65.7911 42.0015L54.7835 42.0093C54.2528 42.0097 53.7437 41.7992 53.3683 41.424C52.993 41.0489 52.782 40.54 52.782 40.0093V40.0093V40.0093V40.0092V40.0092V40.0091V40.0091V40.0091V40.009V40.009V40.009V40.0089V40.0089V40.0089V40.0088V40.0088V40.0087V40.0087V40.0087V40.0086V40.0086V40.0086V40.0085V40.0085V40.0085V40.0084V40.0084V40.0083V40.0083V40.0083V40.0082V40.0082V40.0082V40.0081V40.0081V40.0081V40.008V40.008V40.0079V40.0079V40.0079V40.0078V40.0078V40.0078V40.0077V40.0077V40.0076V40.0076V40.0076V40.0075V40.0075V40.0075V40.0074V40.0074V40.0074V40.0073V40.0073V40.0072V40.0072V40.0072V40.0071V40.0071V40.0071V40.007V40.007V40.007V40.0069V40.0069V40.0068V40.0068V40.0068V40.0067V40.0067V40.0067V40.0066V40.0066V40.0066V40.0065V40.0065V40.0064V40.0064V40.0064V40.0063V40.0063V40.0063V40.0062V40.0062V40.0061V40.0061V40.0061V40.006V40.006V40.006V40.0059V40.0059V40.0059V40.0058V40.0058V40.0057V40.0057V40.0057V40.0056V40.0056V40.0056V40.0055V40.0055V40.0055V40.0054V40.0054V40.0053V40.0053V40.0053V40.0052V40.0052V40.0052V40.0051V40.0051V40.0051V40.005V40.005V40.0049V40.0049V40.0049V40.0048V40.0048V40.0048V40.0047V40.0047V40.0047V40.0046V40.0046V40.0045V40.0045V40.0045V40.0044V40.0044V40.0044V40.0043V40.0043V40.0042V40.0042V40.0042V40.0041V40.0041V40.0041V40.004V40.004V40.004V40.0039V40.0039V40.0038V40.0038V40.0038V40.0037V40.0037V40.0037V40.0036V40.0036V40.0036V40.0035V40.0035V40.0034V40.0034V40.0034V40.0033V40.0033V40.0033V40.0032V40.0032V40.0032V40.0031V40.0031V40.003V40.003V40.003V40.0029V40.0029V40.0029V40.0028V40.0028V40.0028V40.0027V40.0027V40.0026V40.0026V40.0026V40.0025V40.0025V40.0025V40.0024V40.0024V40.0023V40.0023V40.0023V40.0022V40.0022V40.0022V40.0021V40.0021V40.0021V40.002V40.002V40.0019V40.0019V40.0019V40.0018V40.0018V40.0018V40.0017V40.0017V40.0017V40.0016V40.0016V40.0015V40.0015V40.0015V40.0014V40.0014V40.0014V40.0013V40.0013V40.0013V40.0012V40.0012V40.0011V40.0011V40.0011V40.001V40.001V40.001V40.0009V40.0009V40.0009V40.0008V40.0008V40.0007V40.0007V40.0007V40.0006V40.0006V40.0006V40.0005V40.0005V40.0005V40.0004V40.0004V40.0003V40.0003V40.0003V40.0002V40.0002V40.0002V40.0001V40.0001V40V40V40V39.9999V39.9999V39.9999V39.9998V39.9998V39.9998V39.9997V39.9997V39.9996V39.9996V39.9996V39.9995V39.9995V39.9995V39.9994V39.9994V39.9994V39.9993V39.9993V39.9992V39.9992V39.9992V39.9991V39.9991V39.9991V39.999V39.999V39.999V39.9989V39.9989V39.9988V39.9988V39.9988V39.9987V39.9987V39.9987V39.9986V39.9986V39.9986V39.9985V39.9985V39.9984V39.9984V39.9984V39.9983V39.9983V39.9983V39.9982V39.9982V39.9981V39.9981V39.9981V39.998V39.998V39.998V39.9979V39.9979V39.9979V39.9978V39.9978V39.9977V39.9977V39.9977V39.9976V39.9976V39.9976V39.9975V39.9975V39.9975V39.9974V39.9974V39.9973V39.9973V39.9973V39.9972V39.9972V39.9972V39.9971V39.9971V39.9971V39.997V39.997V39.9969V39.9969V39.9969V39.9968V39.9968V39.9968V39.9967V39.9967V39.9967V39.9966V39.9966V39.9965V39.9965V39.9965V39.9964V39.9964V39.9964V39.9963V39.9963V39.9962V39.9962V39.9962V39.9961V39.9961V39.9961V39.996V39.996V39.996V39.9959V39.9959V39.9958V39.9958V39.9958V39.9957V39.9957V39.9957V39.9956V39.9956V39.9956V39.9955V39.9955V39.9954V39.9954V39.9954V39.9953V39.9953V39.9953V39.9952V39.9952V39.9952V39.9951V39.9951V39.995V39.995V39.995V39.9949V39.9949V39.9949V39.9948V39.9948V39.9948V39.9947V39.9947V39.9946V39.9946V39.9946V39.9945V39.9945V39.9945V39.9944V39.9944V39.9943V39.9943V39.9943V39.9942V39.9942V39.9942V39.9941V39.9941V39.9941V39.994V39.994V39.9939V39.9939V39.9939V39.9938V39.9938V39.9938V39.9937V39.9937V39.9937V39.9936V39.9936V39.9935V39.9935V39.9935V39.9934V39.9934V39.9934V39.9933V39.9933V39.9933V39.9932V39.9932V39.9931V39.9931V39.9931V39.993V39.993V39.993V39.9929V39.9929V39.9928V39.9928V39.9928V39.9927V39.9927V39.9927V39.9926V39.9926V39.9926V39.9925V39.9925V39.9924V39.9924V39.9924V39.9923V39.9923V39.9923V39.9922V39.9922V39.9922V39.9921V39.9921V39.992V39.992V39.992V39.9919V39.9919V39.9919V39.9918V39.9918V39.9918V39.9917V39.9917V39.9916V39.9916V39.9916V39.9915V39.9915V39.9915V39.9914V39.9914V39.9914V39.9913V39.9913V39.9912V39.9912V39.9912V39.9911V39.9911V39.9911V39.991V39.991V39.9909V39.9909V39.9909V39.9908V39.9908V39.9908V39.9907V39.9907V39.9907V39.9906C52.782 39.4599 52.993 38.951 53.3683 38.5759C53.7437 38.2008 54.2528 37.9902 54.7835 37.9906L65.7911 37.9984ZM42.0015 14.2089L42.0093 25.2165C42.0097 25.7474 41.799 26.2566 41.4236 26.6321C41.0482 27.0075 40.539 27.2182 40.0081 27.2179H39.9918C39.461 27.2182 38.9517 27.0075 38.5763 26.6321C38.201 26.2566 37.9902 25.7474 37.9906 25.2165L37.9984 14.2089C39.3307 14.1055 40.6692 14.1055 42.0015 14.2089Z" fill="#EB5757" />
</svg>