<svg viewBox="0 0 80 80" fill="none">
  <path fill-rule="evenodd" clip-rule="evenodd" d="M39.9442 22.0002C39.5918 22.0006 39.25 21.9554 38.9243 21.8703L33.6116 40.637L23.9967 25.3512C23.899 25.4107 23.798 25.4664 23.6937 25.5182L23.6034 25.5633C22.8227 25.9548 21.975 26.0667 21.1741 25.937L21.3521 44.2367L14.443 38.1313C13.9212 39.0111 13.0716 39.6742 12.0615 39.9514L18.2508 59H61.7493L67.9382 39.9525C66.9274 39.6763 66.0768 39.0137 65.5542 38.134L58.648 44.2367L58.826 25.9363C58.0238 26.0672 57.1743 25.9555 56.3922 25.5633L56.3019 25.5182C56.1988 25.467 56.0988 25.4119 56.0022 25.3532L46.3886 40.637L41.0755 21.8691C40.7486 21.955 40.4053 22.0006 40.0514 22.0002L39.9978 22.0001L39.9442 22.0002Z" fill="#FFC200" />
  <rect x="16" y="59" width="48" height="8" rx="2" fill="#7B61FF" />
  <path fill-rule="evenodd" clip-rule="evenodd" d="M39.9978 14L39.9344 14C37.7252 14.0028 35.9366 15.7958 35.9393 18.0049C35.942 20.2141 37.7351 22.0027 39.9442 22L39.9978 22L40.0513 22C42.2605 22.0027 44.0535 20.2141 44.0563 18.0049C44.059 15.7958 42.2703 14.0028 40.0612 14L39.9978 14ZM23.6937 25.5181C25.6721 24.5352 26.4792 22.1346 25.4963 20.1562C24.5134 18.1777 22.1128 17.3706 20.1344 18.3535L20.0174 18.4119C18.0426 19.4021 17.2445 21.8057 18.2348 23.7805C19.225 25.7553 21.6286 26.5534 23.6034 25.5632L23.6937 25.5181ZM59.8612 18.3535C57.8827 17.3706 55.4821 18.1777 54.4992 20.1562C53.5164 22.1346 54.3234 24.5352 56.3019 25.5181L56.3922 25.5632C58.3669 26.5534 60.7705 25.7553 61.7608 23.7805C62.751 21.8057 61.9529 19.4021 59.9782 18.4119L59.8612 18.3535ZM15.0001 35.9971C15.0114 33.788 13.2297 31.9881 11.0205 31.9768C8.81144 31.9655 7.01147 33.7472 7.0002 35.9564L7 36.0352L7.0002 36.114C7.01147 38.3231 8.81144 40.1048 11.0205 40.0936C13.2297 40.0823 15.0114 38.2823 15.0001 36.0732L15 36.0352L15.0001 35.9971ZM72.9953 35.9564C72.9841 33.7472 71.1841 31.9655 68.975 31.9768C66.7659 31.9881 64.9842 33.788 64.9955 35.9971L64.9955 36.0352L64.9955 36.0732C64.9842 38.2823 66.7659 40.0823 68.975 40.0936C71.1841 40.1048 72.9841 38.3231 72.9953 36.114L72.9955 36.0352L72.9953 35.9564Z" fill="#D33131" />
</svg>