<svg viewBox="0 0 80 80" fill="none">
  <path fill-rule="evenodd" clip-rule="evenodd" d="M30.0001 57V63C30.0001 64.6569 31.3433 66 33.0001 66H45.0001C46.657 66 48.0001 64.6569 48.0001 63L48.0001 57V48.4999C48.0001 48.2238 48.2239 48 48.5 48H49H49.5H50H57H63C64.6569 48 66 46.6569 66 45V33C66 31.3431 64.6569 30 63 30H57H50H49.5H49H48.5C48.2239 30 48.0001 29.7761 48.0001 29.5V29V28.5V28V21L48.0001 15C48.0001 13.3431 46.657 12 45.0001 12L33.0001 12C31.3433 12 30.0001 13.3431 30.0001 15V21L30.0001 28V28.5V29V29.5V29.9999C30.0001 30 30.0001 30 30 30L21 30H15C13.3431 30 12 31.3431 12 33L12 45C12 46.6569 13.3431 48 15 48H21L30 48C30.0001 48 30.0001 48 30.0001 48.0001V57Z" fill="#84D3FF" />
  <path d="M48.0001 57H50.0001H48.0001ZM48.5 28C47.3954 28 46.5 28.8954 46.5 30C46.5 31.1046 47.3954 32 48.5 32V28ZM48.0001 21L46.0001 21V21H48.0001ZM30.0001 21H32.0001H30.0001ZM30.0001 28H28.0001H30.0001ZM21 48V50H21L21 48ZM32.0001 63V57H28.0001V63H32.0001ZM45.0001 64H33.0001L33.0001 68H45.0001V64ZM46.0001 57L46.0001 63L50.0001 63L50.0001 57H46.0001ZM46.0001 48.4999V57H50.0001V48.4999H46.0001ZM49 46H48.5V50H49V46ZM49.5 46H49V50H49.5V46ZM50 46H49.5V50H50V46ZM57 46H50V50H57V46ZM63 46H57V50H63V46ZM64 33L64 45H68V33L64 33ZM57 32H63V28H57V32ZM50 32H57V28H50V32ZM49.5 32H50V28H49.5V32ZM49 32H49.5V28H49V32ZM48.5 32H49V28H48.5V32ZM46.0001 29V29.5H50.0001V29H46.0001ZM46.0001 28.5V29H50.0001V28.5H46.0001ZM46.0001 28V28.5H50.0001V28H46.0001ZM46.0001 21V28H50.0001V21H46.0001ZM46.0001 15L46.0001 21L50.0001 21L50.0001 15L46.0001 15ZM33.0001 14L45.0001 14V10L33.0001 10V14ZM32.0001 21V15H28.0001V21L32.0001 21ZM32.0001 28L32.0001 21L28.0001 21L28.0001 28L32.0001 28ZM32.0001 28.5V28H28.0001V28.5H32.0001ZM32.0001 29V28.5H28.0001V29H32.0001ZM32.0001 29.5V29H28.0001V29.5H32.0001ZM32.0001 29.9999V29.5H28.0001V29.9999H32.0001ZM21 32H30V28L21 28L21 32ZM15 32H21L21 28H15V32ZM14 45L14 33H10L10 45H14ZM21 46H15L15 50H21V46ZM30 46L21 46L21 50L30 50V46ZM32.0001 57V48.0001H28.0001V57H32.0001ZM30 50C28.8896 50 28.0001 49.0987 28.0001 48.0001H32.0001C32.0001 46.9014 31.1105 46 30 46V50ZM28.0001 29.9999C28.0001 28.937 28.8316 28.0597 29.893 28.0029L30.107 31.9971C31.1685 31.9403 32.0001 31.0629 32.0001 29.9999H28.0001ZM68 33C68 30.2386 65.7614 28 63 28V32C63.5523 32 64 32.4477 64 33L68 33ZM10 45C10 47.7614 12.2386 50 15 50L15 46C14.4477 46 14 45.5523 14 45H10ZM28.0001 63C28.0001 65.7614 30.2387 68 33.0001 68L33.0001 64C32.4478 64 32.0001 63.5523 32.0001 63H28.0001ZM50.0001 15C50.0001 12.2386 47.7615 10 45.0001 10V14C45.5524 14 46.0001 14.4477 46.0001 15L50.0001 15ZM48.5 28C49.3291 28 50.0001 28.6721 50.0001 29.5H46.0001C46.0001 30.8801 47.1188 32 48.5 32L48.5 28ZM63 50C65.7614 50 68 47.7614 68 45H64C64 45.5523 63.5523 46 63 46V50ZM15 28C12.2386 28 10 30.2386 10 33H14C14 32.4477 14.4477 32 15 32V28ZM50.0001 48.4999C50.0001 49.3284 49.3285 50 48.5 50V46C47.1193 46 46.0001 47.1192 46.0001 48.4999H50.0001ZM33.0001 10C30.2387 10 28.0001 12.2386 28.0001 15H32.0001C32.0001 14.4477 32.4478 14 33.0001 14V10ZM45.0001 68C47.7615 68 50.0001 65.7614 50.0001 63L46.0001 63C46.0001 63.5523 45.5524 64 45.0001 64V68Z" fill="#1CB0F6" />
  <path d="M43 39C43 41.2091 41.2091 43 39 43C36.7909 43 35 41.2091 35 39C35 36.7909 36.7909 35 39 35C41.2091 35 43 36.7909 43 39Z" fill="#7B61FF" />
  <path d="M41 39C41 40.1046 40.1046 41 39 41V45C42.3137 45 45 42.3137 45 39H41ZM39 41C37.8954 41 37 40.1046 37 39H33C33 42.3137 35.6863 45 39 45V41ZM37 39C37 37.8954 37.8954 37 39 37V33C35.6863 33 33 35.6863 33 39H37ZM39 37C40.1046 37 41 37.8954 41 39H45C45 35.6863 42.3137 33 39 33V37Z" fill="#7B61FF" />
  <path d="M42.9895 21L34.9895 21L35.9895 20L38.9895 17L41.9895 20L42.9895 21Z" fill="#F4F4F4" />
  <path d="M57 42.9893L57 34.9893L58 35.9893L61 38.9893L58 41.9893L57 42.9893Z" fill="#F4F4F4" />
  <path d="M42.9895 57L34.9895 57L35.9895 58L38.9895 61L41.9895 58L42.9895 57Z" fill="#F4F4F4" />
  <path d="M21 42.9893L21 34.9893L20 35.9893L17 38.9893L20 41.9893L21 42.9893Z" fill="#F4F4F4" />
</svg>