<svg viewBox="0 0 80 80" fill="none">
  <path d="M38.1776 16.0307C38.8866 14.4627 41.1134 14.4627 41.8224 16.0307L44.8729 22.7778C46.3364 26.0148 48.0331 29.1412 49.9494 32.1323L55.3675 40.5891C58.2711 45.1213 58.7829 50.7845 56.7389 55.7639C55.0762 59.814 51.8728 63.0378 47.8332 64.7261L47.1029 65.0314C42.5581 66.9309 37.4419 66.9309 32.8971 65.0314L32.1668 64.7261C28.1272 63.0378 24.9238 59.814 23.2611 55.7639C21.2171 50.7845 21.7289 45.1213 24.6325 40.5891L30.0506 32.1323C31.9669 29.1412 33.6636 26.0148 35.1271 22.7778L38.1776 16.0307Z" fill="#1CB0F6" stroke="#1CB0F6" stroke-width="4" stroke-linecap="square" stroke-linejoin="round" class="fill-blue stroke-blue" />
  <path d="M34.7549 60.2441L33.9895 62.0919L34.7549 60.2441ZM28.756 54.2452L30.6038 53.4798L30.6038 53.4798L28.756 54.2452ZM43.0412 62.4472C44.0917 62.1057 44.6664 60.9773 44.325 59.9269C43.9835 58.8764 42.8552 58.3016 41.8047 58.6431L43.0412 62.4472ZM29.9122 50.0031C29.9123 48.8985 29.0169 48.0031 27.9123 48.0031C26.8077 48.003 25.9123 48.8984 25.9122 50.003L29.9122 50.0031ZM35.5203 58.3964C33.2943 57.4743 31.5258 55.7058 30.6038 53.4798L26.9082 55.0106C28.2362 58.2167 30.7835 60.7639 33.9895 62.0919L35.5203 58.3964ZM41.8047 58.6431C39.7549 59.3094 37.5259 59.2271 35.5203 58.3964L33.9895 62.0919C36.8783 63.2885 40.0887 63.4069 43.0412 62.4472L41.8047 58.6431ZM25.9122 50.003C25.9122 51.7051 26.2442 53.4075 26.9082 55.0106L30.6038 53.4798C30.1427 52.3668 29.9122 51.185 29.9122 50.0031L25.9122 50.003Z" fill="#F4F4F4" class="fill-white" />
</svg>