<svg viewBox="0 0 80 80" fill="none">
  <path d="M42 14C43.1046 14 44 13.1046 44 12C44 10.8954 43.1046 10 42 10V14ZM70 36.9117C70 35.8071 69.1046 34.9117 68 34.9117C66.8954 34.9117 66 35.8071 66 36.9117H70ZM10 42C10 43.1046 10.8954 44 12 44C13.1046 44 14 43.1046 14 42H10ZM36.9117 66C35.8071 66 34.9117 66.8954 34.9117 68C34.9117 69.1046 35.8071 70 36.9117 70V66ZM16 14H42V10H16V14ZM66 36.9117V64H70V36.9117H66ZM14 42V16H10V42H14ZM64 66H36.9117V70H64V66ZM66 64C66 65.1046 65.1046 66 64 66V70C67.3137 70 70 67.3137 70 64H66ZM16 10C12.6863 10 10 12.6863 10 16H14C14 14.8954 14.8954 14 16 14V10Z" fill="#FF9100" />
  <path fill-rule="evenodd" clip-rule="evenodd" d="M68.4 23.139C69.9604 21.5786 69.9604 19.0488 68.4 17.4884L62.7432 11.8315C61.1793 10.2677 58.6439 10.2677 57.0801 11.8315L18.0553 50.8563C16.7708 52.1408 15.9617 53.8242 15.7611 55.6297L14.9396 63.023L14.7982 64.2957C14.7257 64.9483 15.2771 65.4996 15.9296 65.4271L17.2024 65.2857L24.5956 64.4642C26.4011 64.2636 28.0845 63.4545 29.369 62.17L68.4 23.139Z" fill="#D33131" />
  <path d="M48.6035 20.3192L59.911 31.6267" stroke="#FFC200" stroke-width="4" stroke-linejoin="round" />
</svg>