<svg viewBox="0 0 80 80" fill="none">
  <path fill-rule="evenodd" clip-rule="evenodd" d="M71.03 39.7359C69.8996 42.1541 68.4795 44.4545 66.782 46.5831C60.2858 54.7291 50.4337 59.4736 40.0146 59.4736C29.5955 59.4736 19.7434 54.7291 13.2472 46.5831C11.5501 44.455 10.1302 42.1553 9 39.7377C10.1304 37.3195 11.5505 35.0191 13.248 32.8905C19.7442 24.7445 29.5963 20 40.0154 20C50.4345 20 60.2866 24.7445 66.7828 32.8905C68.4799 35.0186 69.8997 37.3183 71.03 39.7359Z" fill="#F4F4F4" />
  <path d="M71.03 39.7359L72.8418 40.5828L73.2377 39.7359L72.8418 38.8889L71.03 39.7359ZM66.782 46.5831L65.2183 45.3361V45.3361L66.782 46.5831ZM13.2472 46.5831L11.6835 47.8301L11.6835 47.8301L13.2472 46.5831ZM9 39.7377L7.18817 38.8908L6.79226 39.7378L7.18822 40.5847L9 39.7377ZM13.248 32.8905L11.6843 31.6435H11.6843L13.248 32.8905ZM66.7828 32.8905L68.3465 31.6435V31.6435L66.7828 32.8905ZM69.2182 38.889C68.1539 41.1658 66.8168 43.3317 65.2183 45.3361L68.3457 47.8301C70.1422 45.5773 71.6453 43.1425 72.8418 40.5828L69.2182 38.889ZM65.2183 45.3361C59.1016 53.0063 49.825 57.4736 40.0146 57.4736V61.4736C51.0423 61.4736 61.47 56.4519 68.3457 47.8301L65.2183 45.3361ZM40.0146 57.4736C30.2041 57.4736 20.9275 53.0063 14.8108 45.3361L11.6835 47.8301C18.5592 56.4519 28.9868 61.4736 40.0146 61.4736V57.4736ZM14.8108 45.3361C13.2127 43.3322 11.8759 41.1669 10.8118 38.8907L7.18822 40.5847C8.38456 43.1437 9.88739 45.5779 11.6835 47.8301L14.8108 45.3361ZM11.6843 31.6435C9.88779 33.8963 8.38466 36.3311 7.18817 38.8908L10.8118 40.5846C11.8761 38.3078 13.2132 36.1419 14.8117 34.1375L11.6843 31.6435ZM40.0154 18C28.9877 18 18.56 23.0217 11.6843 31.6435L14.8117 34.1375C20.9284 26.4674 30.205 22 40.0154 22V18ZM68.3465 31.6435C61.4708 23.0217 51.0432 18 40.0154 18V22C49.8259 22 59.1025 26.4674 65.2192 34.1375L68.3465 31.6435ZM72.8418 38.8889C71.6454 36.3299 70.1426 33.8958 68.3465 31.6435L65.2192 34.1375C66.8173 36.1415 68.1541 38.3068 69.2182 40.5829L72.8418 38.8889Z" fill="#D2D2D2" />
  <path fill-rule="evenodd" clip-rule="evenodd" d="M55.8116 36.6086C54.7134 41.4203 51.4839 45.4699 47.0373 47.6113C42.5907 49.7527 37.4109 49.7527 32.9643 47.6113C28.5177 45.4699 25.2882 41.4203 24.19 36.6086C23.0917 31.797 24.2443 26.7471 27.3215 22.8885C27.5029 22.661 27.6899 22.4391 27.8821 22.2229C31.7136 20.7703 35.8197 20 40.0178 20C44.1972 20 48.2853 20.7634 52.1022 22.2035C52.3005 22.4258 52.4932 22.6542 52.6801 22.8885C55.7572 26.7471 56.9098 31.797 55.8116 36.6086Z" fill="#84D3FF" />
  <path d="M55.8116 36.6086L53.8618 36.1636V36.1636L55.8116 36.6086ZM32.9643 47.6113L33.8321 45.8094L32.9643 47.6113ZM24.19 36.6086L26.1398 36.1636L24.19 36.6086ZM27.3215 22.8885L25.7578 21.6415L25.7578 21.6415L27.3215 22.8885ZM27.8821 22.2229L27.1731 20.3528L26.7138 20.5269L26.3874 20.894L27.8821 22.2229ZM52.1022 22.2035L53.5947 20.8722L53.2678 20.5057L52.8082 20.3323L52.1022 22.2035ZM52.6801 22.8885L54.2438 21.6415L54.2438 21.6415L52.6801 22.8885ZM47.905 49.4133C52.9 47.0078 56.5278 42.4587 57.7615 37.0537L53.8618 36.1636C52.899 40.3818 50.0677 43.9321 46.1695 45.8094L47.905 49.4133ZM32.0965 49.4133C37.0915 51.8187 42.9101 51.8187 47.905 49.4133L46.1695 45.8094C42.2713 47.6867 37.7303 47.6867 33.8321 45.8094L32.0965 49.4133ZM22.2401 37.0537C23.4738 42.4587 27.1016 47.0078 32.0965 49.4133L33.8321 45.8094C29.9338 43.9321 27.1026 40.3818 26.1398 36.1636L22.2401 37.0537ZM25.7578 21.6415C22.3012 25.976 21.0064 31.6487 22.2401 37.0537L26.1398 36.1636C25.177 31.9454 26.1875 27.5182 28.8851 24.1355L25.7578 21.6415ZM26.3874 20.894C26.1715 21.1368 25.9616 21.386 25.7578 21.6415L28.8851 24.1355C29.0443 23.936 29.2082 23.7414 29.3767 23.5519L26.3874 20.894ZM28.5911 24.093C32.1988 22.7252 36.0648 22 40.0178 22V18C35.5746 18 31.2285 18.8153 27.1731 20.3528L28.5911 24.093ZM40.0178 22C43.9532 22 47.8023 22.7188 51.3962 24.0748L52.8082 20.3323C48.7683 18.808 44.4412 18 40.0178 18V22ZM54.2438 21.6415C54.0339 21.3784 53.8174 21.1219 53.5947 20.8722L50.6097 23.5349C50.7836 23.7298 50.9526 23.93 51.1164 24.1355L54.2438 21.6415ZM57.7615 37.0537C58.9951 31.6487 57.7004 25.976 54.2438 21.6415L51.1164 24.1355C53.8141 27.5182 54.8246 31.9454 53.8618 36.1636L57.7615 37.0537Z" fill="#84D3FF" />
  <path d="M33.4817 29.2363C34.0339 28.2797 33.7062 27.0565 32.7496 26.5043C31.793 25.952 30.5698 26.2798 30.0175 27.2364L33.4817 29.2363ZM34.2345 42.9782C35.1911 43.5306 36.4143 43.2031 36.9667 42.2466C37.5191 41.29 37.1915 40.0668 36.235 39.5144L34.2345 42.9782ZM32.4736 32.9985C32.4736 31.6543 32.832 30.3617 33.4817 29.2363L30.0175 27.2364C29.0229 28.9591 28.4736 30.9399 28.4736 32.9985H32.4736ZM36.235 39.5144C33.9074 38.1701 32.4736 35.6864 32.4736 32.9985H28.4736C28.4736 37.1153 30.6696 40.9194 34.2345 42.9782L36.235 39.5144Z" fill="#F4F4F4" />
  <path d="M16 64L64 16" stroke="#606060" stroke-width="4" stroke-linecap="round" stroke-linejoin="round" />
</svg>