<svg viewBox="0 0 80 80" fill="none">
  <path d="M4 37.1041L2.69678 35.587C1.94876 36.2296 1.78072 37.3215 2.30093 38.1592L4 37.1041ZM10.1948 31.7827L12.0038 30.9298C11.7375 30.365 11.2228 29.9571 10.6122 29.8268C10.0016 29.6965 9.36517 29.8588 8.89156 30.2656L10.1948 31.7827ZM4.0012 37.1061L2.30214 38.1611C2.61017 38.6572 3.11961 38.9939 3.69671 39.0828C4.27382 39.1716 4.86095 39.0039 5.30399 38.6235L4.0012 37.1061ZM10.1968 31.787L11.4996 33.3045C12.1825 32.7182 12.3896 31.7481 12.0058 30.9341L10.1968 31.787ZM14.2236 46.1585L13.2798 47.9218C14.1963 48.4124 15.3358 48.1191 15.9015 47.2469L14.2236 46.1585ZM14.2217 46.1575L12.5434 45.0696C12.2391 45.5391 12.1453 46.1145 12.2849 46.6563C12.4244 47.1981 12.7845 47.6567 13.2778 47.9208L14.2217 46.1575ZM18.5967 39.4168L20.2746 40.5051C20.5834 40.0291 20.6754 39.4444 20.5279 38.8966C20.3803 38.3487 20.007 37.8893 19.5009 37.6328L18.5967 39.4168ZM18.5927 39.4147L19.4969 37.6308C18.5847 37.1684 17.4707 37.4687 16.9144 38.3268L18.5927 39.4147ZM27.0602 50.6647L26.6525 52.6227C27.671 52.8348 28.6821 52.2306 28.9777 51.2331L27.0602 50.6647ZM27.0577 50.6642L25.14 50.0963C24.9813 50.6324 25.0542 51.2105 25.3411 51.6904C25.6279 52.1703 26.1026 52.5082 26.65 52.6222L27.0577 50.6642ZM29.3428 42.9644L31.2603 43.5328C31.4205 42.9925 31.3453 42.4098 31.0533 41.9279C30.7612 41.4459 30.2795 41.1096 29.7265 41.0015L29.3428 42.9644ZM29.338 42.9634L29.7217 41.0006C28.7096 40.8028 27.7131 41.4068 27.4203 42.3956L29.338 42.9634ZM40.3172 52.0003V54.0003C41.4217 54.0003 42.3171 53.105 42.3172 52.0006L40.3172 52.0003ZM40.3184 44.0003L42.3184 44.0006C42.3184 43.4701 42.1078 42.9613 41.7327 42.5862C41.3576 42.211 40.8488 42.0003 40.3184 42.0003V44.0003ZM40.3134 44.0003V42.0003C39.7829 42.0003 39.2741 42.211 38.899 42.5862C38.524 42.9613 38.3133 43.4701 38.3134 44.0006L40.3134 44.0003ZM40.3145 52.0003L38.3145 52.0006C38.3147 53.105 39.21 54.0003 40.3145 54.0003V52.0003ZM53.574 50.6643L53.9815 52.6223C54.5289 52.5084 55.0037 52.1705 55.2906 51.6906C55.5775 51.2107 55.6505 50.6326 55.4917 50.0964L53.574 50.6643ZM53.5715 50.6648L51.654 51.2332C51.9496 52.2306 52.9605 52.8348 53.979 52.6228L53.5715 50.6648ZM51.2937 42.9635L53.2114 42.3957C52.9186 41.4068 51.9219 40.8028 50.9098 41.0007L51.2937 42.9635ZM51.2889 42.9644L50.9051 41.0016C50.3521 41.1098 49.8704 41.4462 49.5784 41.9281C49.2864 42.4099 49.2113 42.9926 49.3714 43.5329L51.2889 42.9644ZM66.4102 46.1577L67.354 47.921C67.8473 47.6569 68.2074 47.1983 68.347 46.6565C68.4865 46.1147 68.3927 45.5393 68.0884 45.0698L66.4102 46.1577ZM66.4082 46.1587L64.7303 47.2471C65.296 48.1193 66.4356 48.4126 67.3521 47.922L66.4082 46.1587ZM62.0392 39.4149L63.7174 38.327C63.1611 37.4689 62.0471 37.1686 61.135 37.631L62.0392 39.4149ZM62.0351 39.4169L61.1309 37.633C60.6249 37.8895 60.2515 38.3489 60.104 38.8967C59.9564 39.4446 60.0485 40.0293 60.3572 40.5053L62.0351 39.4169ZM76.632 37.1044L78.3302 38.161C78.8515 37.3231 78.6838 36.2303 77.9353 35.5873L76.632 37.1044ZM76.6308 37.1063L75.328 38.6238C75.7708 39.004 76.3576 39.1718 76.9344 39.0832C77.5113 38.9946 78.0206 38.6584 78.329 38.1629L76.6308 37.1063ZM70.4373 31.783L71.7405 30.2659C71.2668 29.859 70.6301 29.6967 70.0194 29.8272C69.4086 29.9577 68.8939 30.366 68.6278 30.931L70.4373 31.783ZM70.4353 31.7873L68.6258 30.9353C68.2426 31.7492 68.4499 32.7188 69.1325 33.3048L70.4353 31.7873ZM5.30322 38.6212L11.498 33.2998L8.89156 30.2656L2.69678 35.587L5.30322 38.6212ZM5.70027 36.051L5.69907 36.0491L2.30093 38.1592L2.30214 38.1611L5.70027 36.051ZM8.89402 30.2695L2.69841 35.5886L5.30399 38.6235L11.4996 33.3045L8.89402 30.2695ZM8.38578 32.6357L8.38781 32.64L12.0058 30.9341L12.0038 30.9298L8.38578 32.6357ZM15.1675 44.3953L15.1655 44.3942L13.2778 47.9208L13.2798 47.9218L15.1675 44.3953ZM16.9188 38.3284L12.5457 45.0701L15.9015 47.2469L20.2746 40.5051L16.9188 38.3284ZM17.6885 41.1986L17.6925 41.2007L19.5009 37.6328L19.4969 37.6308L17.6885 41.1986ZM15.8999 47.2454L20.2709 40.5026L16.9144 38.3268L12.5434 45.0696L15.8999 47.2454ZM27.4679 48.7067L27.4654 48.7062L26.65 52.6222L26.6525 52.6227L27.4679 48.7067ZM27.4253 42.3959L25.1427 50.0963L28.9777 51.2331L31.2603 43.5328L27.4253 42.3959ZM28.9544 44.9263L28.9592 44.9272L29.7265 41.0015L29.7217 41.0006L28.9544 44.9263ZM28.9754 51.232L31.2557 43.5313L27.4203 42.3956L25.14 50.0963L28.9754 51.232ZM40.3172 50.0003H40.3161V54.0003H40.3172V50.0003ZM38.3184 44L38.3172 52L42.3172 52.0006L42.3184 44.0006L38.3184 44ZM40.3161 46.0003H40.3184V42.0003H40.3161V46.0003ZM40.3134 46.0003H40.3161V42.0003H40.3134V46.0003ZM42.3145 52L42.3134 44L38.3134 44.0006L38.3145 52.0006L42.3145 52ZM40.3161 50.0003H40.3145V54.0003H40.3161V50.0003ZM53.1666 48.7062L53.1641 48.7067L53.979 52.6228L53.9815 52.6223L53.1666 48.7062ZM49.376 43.5314L51.6563 51.2321L55.4917 50.0964L53.2114 42.3957L49.376 43.5314ZM51.6728 44.9273L51.6776 44.9263L50.9098 41.0007L50.9051 41.0016L51.6728 44.9273ZM55.4891 50.0964L53.2065 42.396L49.3714 43.5329L51.654 51.2332L55.4891 50.0964ZM65.4663 44.3944L65.4644 44.3955L67.3521 47.922L67.354 47.921L65.4663 44.3944ZM60.3609 40.5028L64.7319 47.2456L68.0884 45.0698L63.7174 38.327L60.3609 40.5028ZM62.9393 41.2009L62.9434 41.1988L61.135 37.631L61.1309 37.633L62.9393 41.2009ZM68.0861 45.0703L63.713 38.3286L60.3572 40.5053L64.7303 47.2471L68.0861 45.0703ZM74.9339 36.0478L74.9327 36.0498L78.329 38.1629L78.3302 38.161L74.9339 36.0478ZM69.1341 33.3001L75.3288 38.6215L77.9353 35.5873L71.7405 30.2659L69.1341 33.3001ZM72.2447 32.6393L72.2467 32.635L68.6278 30.931L68.6258 30.9353L72.2447 32.6393ZM77.9336 35.5889L71.738 30.2698L69.1325 33.3048L75.328 38.6238L77.9336 35.5889Z" fill="#FF00FF" />
  <path d="M9.31592 28C9.31592 30.1011 10.1178 32.1817 11.6757 34.1229C13.2335 36.0641 15.517 37.828 18.3956 39.3137C21.2742 40.7994 24.6916 41.978 28.4527 42.7821C32.2138 43.5861 36.2449 44 40.3159 44C44.3869 44 48.418 43.5861 52.1791 42.7821C55.9402 41.978 59.3576 40.7994 62.2362 39.3137C65.1148 37.828 67.3983 36.0641 68.9562 34.1229C70.5141 32.1817 71.3159 30.1011 71.3159 28" stroke="#FF00FF" stroke-width="4" stroke-linecap="round" stroke-linejoin="round" />
</svg>