<svg viewBox="0 0 80 80" fill="none">
  <path d="M62 22C63.1046 22 64 21.1046 64 20C64 18.8954 63.1046 18 62 18V22ZM39 20V18C37.8954 18 37 18.8954 37 20H39ZM37 60C37 61.1046 37.8954 62 39 62C40.1046 62 41 61.1046 41 60H37ZM39 38C37.8954 38 37 38.8954 37 40C37 41.1046 37.8954 42 39 42V38ZM56.9688 42C58.0733 42 58.9688 41.1046 58.9688 40C58.9688 38.8954 58.0733 38 56.9688 38V42ZM62 18L39 18V22L62 22V18ZM37 20V20.4167H41V20H37ZM37 59.5833V60H41V59.5833H37ZM37 20.4167V40H41V20.4167H37ZM37 40L37 59.5833H41L41 40H37ZM39 42H56.9688V38H39V42Z" fill="#F2C94C" />
  <rect x="17" y="20" width="14" height="14" rx="7" stroke="#F2994A" stroke-width="4" stroke-linecap="round" stroke-linejoin="round" />
</svg>