<svg viewBox="0 0 80 80" fill="none">
  <path d="M28.5952 47.5961L30.2023 48.7865L30.2023 48.7865L28.5952 47.5961ZM51.4048 16.8032L49.7977 15.6127V15.6127L51.4048 16.8032ZM52 48.3996L52 50.3996C53.1046 50.3996 54 49.5042 54 48.3996H52ZM52 48.3996V46.3996C50.8954 46.3996 50 47.295 50 48.3996H52ZM50 63.9996C50 65.1042 50.8954 65.9996 52 65.9996C53.1046 65.9996 54 65.1042 54 63.9996L50 63.9996ZM55.6 50.3996C56.7046 50.3996 57.6 49.5042 57.6 48.3996C57.6 47.295 56.7046 46.3996 55.6 46.3996L55.6 50.3996ZM30.2023 48.7865L53.0119 17.9936L49.7977 15.6127L26.9881 46.4056L30.2023 48.7865ZM29 46.3996C30.2289 46.3996 30.9338 47.799 30.2023 48.7865L26.9881 46.4056C25.7641 48.058 26.9437 50.3996 29 50.3996L29 46.3996ZM52 46.3996H29L29 50.3996L52 50.3996L52 46.3996ZM50 16.9996V48.3996H54V16.9996H50ZM53.0119 17.9936C52.0536 19.2873 50 18.6095 50 16.9996H54C54 14.7534 51.1347 13.8077 49.7977 15.6127L53.0119 17.9936ZM50 48.3996L50 63.9996L54 63.9996L54 48.3996H50ZM55.6 46.3996H52L52 50.3996H55.6L55.6 46.3996Z" fill="#D33131" />
</svg>