<svg viewBox="0 0 80 80" fill="none">
  <path fill-rule="evenodd" clip-rule="evenodd" d="M55.9597 22.0693C59.0779 21.7916 62.253 22.3484 65.1424 23.7399C69.9596 26.0597 73.4582 30.4468 74.6479 35.6594C75.8377 40.872 74.589 46.3427 71.2554 50.5229C67.9219 54.7031 62.8662 57.1378 57.5195 57.1378C52.4103 57.1378 47.5667 54.9145 44.2377 51.0693L36.2915 51.0693C36.2309 51.1479 36.1696 51.2261 36.1077 51.3038C32.6886 55.5912 27.5033 58.0883 22.0195 58.0883C16.5358 58.0883 11.3505 55.5912 7.93142 51.3038C4.51237 47.0164 3.2317 41.4055 4.45195 36.0592C5.67219 30.713 9.26055 26.2133 14.2012 23.834C16.9319 22.519 19.9114 21.9307 22.8647 22.0693L55.9597 22.0693Z" fill="#7B61FF" />
  <path d="M65.1424 23.7399L64.2746 25.5418L65.1424 23.7399ZM55.9597 22.0693V24.0693C56.019 24.0693 56.0782 24.0667 56.1372 24.0614L55.9597 22.0693ZM74.6479 35.6594L76.5978 35.2144L74.6479 35.6594ZM71.2554 50.5229L69.6918 49.2759L69.6918 49.2759L71.2554 50.5229ZM44.2377 51.0693L45.7498 49.7603C45.3699 49.3215 44.8181 49.0693 44.2377 49.0693V51.0693ZM36.2915 51.0693V49.0693C35.6713 49.0693 35.0861 49.3571 34.7075 49.8483L36.2915 51.0693ZM36.1077 51.3038L34.544 50.0568L34.544 50.0568L36.1077 51.3038ZM7.93142 51.3038L9.49509 50.0568L7.93142 51.3038ZM4.45195 36.0592L6.4018 36.5042L4.45195 36.0592ZM14.2012 23.834L15.069 25.6359L14.2012 23.834ZM22.8647 22.0693L22.771 24.0671C22.8022 24.0686 22.8335 24.0693 22.8647 24.0693V22.0693ZM66.0102 21.9379C62.7918 20.388 59.255 19.7679 55.7823 20.0772L56.1372 24.0614C58.9007 23.8153 61.7142 24.3088 64.2746 25.5418L66.0102 21.9379ZM76.5978 35.2144C75.2726 29.4084 71.3757 24.5218 66.0102 21.9379L64.2746 25.5418C68.5434 27.5975 71.6438 31.4853 72.6981 36.1045L76.5978 35.2144ZM72.8191 51.7699C76.5322 47.1139 77.923 41.0204 76.5978 35.2144L72.6981 36.1045C73.7524 40.7237 72.6459 45.5716 69.6918 49.2759L72.8191 51.7699ZM57.5195 59.1378C63.4748 59.1378 69.106 56.4259 72.8191 51.7699L69.6918 49.2759C66.7377 52.9803 62.2575 55.1378 57.5195 55.1378V59.1378ZM42.7257 52.3784C46.4337 56.6614 51.8286 59.1378 57.5195 59.1378V55.1378C52.992 55.1378 48.6997 53.1676 45.7498 49.7603L42.7257 52.3784ZM44.2377 49.0693L36.2915 49.0693V53.0693L44.2377 53.0693V49.0693ZM37.6713 52.5508C37.7402 52.4644 37.8082 52.3776 37.8755 52.2904L34.7075 49.8483C34.6536 49.9182 34.5991 49.9877 34.544 50.0568L37.6713 52.5508ZM22.0195 60.0883C28.1119 60.0883 33.8728 57.314 37.6713 52.5508L34.544 50.0568C31.5044 53.8683 26.8946 56.0883 22.0195 56.0883V60.0883ZM6.36776 52.5508C10.1663 57.314 15.9272 60.0883 22.0195 60.0883V56.0883C17.1445 56.0883 12.5347 53.8683 9.49509 50.0568L6.36776 52.5508ZM2.50209 35.6142C1.14641 41.5538 2.56922 47.7875 6.36776 52.5508L9.49509 50.0568C6.45552 46.2453 5.31699 41.2571 6.4018 36.5042L2.50209 35.6142ZM13.3335 22.0321C7.8444 24.6754 3.85777 29.6745 2.50209 35.6142L6.4018 36.5042C7.48661 31.7514 10.6767 27.7512 15.069 25.6359L13.3335 22.0321ZM22.9585 20.0715C19.6777 19.9176 16.3672 20.5711 13.3335 22.0321L15.069 25.6359C17.4966 24.4669 20.1452 23.9439 22.771 24.0671L22.9585 20.0715ZM22.8647 24.0693L55.9597 24.0693V20.0693L22.8647 20.0693V24.0693Z" fill="#7B61FF" />
  <path fill-rule="evenodd" clip-rule="evenodd" d="M22.0195 29.5664C23.4002 29.5664 24.5195 30.6857 24.5195 32.0664V36.5664H29.0195C30.4002 36.5664 31.5195 37.6857 31.5195 39.0664C31.5195 40.4471 30.4002 41.5664 29.0195 41.5664H24.5195V46.0664C24.5195 47.4471 23.4002 48.5664 22.0195 48.5664C20.6388 48.5664 19.5195 47.4471 19.5195 46.0664L19.5195 41.5664L15.0195 41.5664C13.6388 41.5664 12.5195 40.4471 12.5195 39.0664C12.5195 37.6857 13.6388 36.5664 15.0195 36.5664L19.5195 36.5664V32.0664C19.5195 30.6857 20.6388 29.5664 22.0195 29.5664Z" fill="#F4F4F4" />
  <path d="M48.5195 37.0664C49.6241 35.9618 51.415 35.9618 52.5195 37.0664C53.6241 38.171 53.6241 39.9618 52.5195 41.0664C51.415 42.171 49.6241 42.171 48.5195 41.0664C47.415 39.9618 47.415 38.171 48.5195 37.0664Z" fill="#84D3FF" />
  <path d="M55.5195 44.0664C56.6241 42.9618 58.415 42.9618 59.5195 44.0664C60.6241 45.171 60.6241 46.9618 59.5195 48.0664C58.415 49.171 56.6241 49.171 55.5195 48.0664C54.415 46.9618 54.415 45.171 55.5195 44.0664Z" fill="#84D3FF" />
  <path d="M55.5195 30.0664C56.6241 28.9618 58.415 28.9618 59.5195 30.0664C60.6241 31.171 60.6241 32.9618 59.5195 34.0664C58.415 35.171 56.6241 35.171 55.5195 34.0664C54.415 32.9618 54.415 31.171 55.5195 30.0664Z" fill="#84D3FF" />
  <path d="M62.5195 37.0664C63.6241 35.9618 65.415 35.9618 66.5195 37.0664C67.6241 38.171 67.6241 39.9618 66.5195 41.0664C65.415 42.171 63.6241 42.171 62.5195 41.0664C61.415 39.9618 61.415 38.171 62.5195 37.0664Z" fill="#84D3FF" />
</svg>