<svg viewBox="0 0 80 80" fill="none">
  <rect x="24" y="24" width="32" height="44" fill="#AEEE52" stroke="#AEEE52" stroke-width="4" stroke-linecap="round" stroke-linejoin="round" />
  <path d="M40 34V58" stroke="#FFC200" stroke-width="4" stroke-linecap="round" stroke-linejoin="round" stroke-dasharray="4 12" />
  <path d="M40 12L42 11.9995C41.9997 10.8951 41.1044 10 40 10C38.8956 10 38.0003 10.8951 38 11.9995L40 12ZM40.0031 23.9884L38.0031 23.9889C38.0033 24.8939 38.6113 25.686 39.4855 25.9203C40.3596 26.1545 41.2822 25.7725 41.7349 24.9889L40.0031 23.9884ZM39.9969 23.9884L38.2651 24.9889C38.7178 25.7725 39.6404 26.1545 40.5145 25.9203C41.3887 25.686 41.9967 24.8939 41.9969 23.9889L39.9969 23.9884ZM34 13.6077L35.7318 12.6072C35.1794 11.651 33.9564 11.3235 33 11.8756C32.0436 12.4278 31.7158 13.6507 32.2677 14.6072L34 13.6077ZM39.9915 23.9915L38.992 25.7238C39.7759 26.1761 40.7658 26.0457 41.4057 25.4057C42.0457 24.7658 42.1761 23.7759 41.7238 22.992L39.9915 23.9915ZM29.6077 18L30.6072 16.2677C29.6507 15.7158 28.4278 16.0436 27.8756 17C27.3235 17.9564 27.651 19.1794 28.6072 19.7318L29.6077 18ZM39.9884 23.9969L39.9889 25.9969C40.8939 25.9967 41.686 25.3887 41.9203 24.5145C42.1545 23.6404 41.7725 22.7178 40.9889 22.2651L39.9884 23.9969ZM28 24L27.9995 22C26.895 22.0003 25.9999 22.8958 26 24.0003C26.0001 25.1047 26.8955 26 28 26L28 24ZM52 24V26C53.1045 26 53.9999 25.1047 54 24.0003C54.0001 22.8958 53.105 22.0003 52.0005 22L52 24ZM40.0116 23.9969L39.0111 22.2651C38.2275 22.7178 37.8455 23.6404 38.0797 24.5145C38.314 25.3887 39.1061 25.9967 40.0111 25.9969L40.0116 23.9969ZM50.3923 18L51.3928 19.7318C52.349 19.1794 52.6765 17.9564 52.1244 17C51.5722 16.0436 50.3493 15.7158 49.3928 16.2677L50.3923 18ZM40.0085 23.9915L38.2762 22.992C37.8239 23.7759 37.9543 24.7658 38.5943 25.4057C39.2342 26.0457 40.2241 26.1761 41.008 25.7238L40.0085 23.9915ZM46 13.6077L47.7323 14.6072C48.2842 13.6507 47.9564 12.4278 47 11.8756C46.0436 11.3235 44.8206 11.651 44.2682 12.6072L46 13.6077ZM38 12.0005L38.0031 23.9889L42.0031 23.9879L42 11.9995L38 12.0005ZM41.9969 23.9889L42 12.0005L38 11.9995L37.9969 23.9879L41.9969 23.9889ZM32.2682 14.6081L38.2651 24.9889L41.7287 22.988L35.7318 12.6072L32.2682 14.6081ZM41.7238 22.992L35.7323 12.6081L32.2677 14.6072L38.2592 24.9911L41.7238 22.992ZM28.6081 19.7323L38.992 25.7238L40.9911 22.2592L30.6072 16.2677L28.6081 19.7323ZM40.9889 22.2651L30.6081 16.2682L28.6072 19.7318L38.988 25.7287L40.9889 22.2651ZM28.0005 26L39.9889 25.9969L39.9879 21.9969L27.9995 22L28.0005 26ZM28 26H52V22H28V26ZM40.0111 25.9969L51.9995 26L52.0005 22L40.0121 21.9969L40.0111 25.9969ZM49.3919 16.2682L39.0111 22.2651L41.012 25.7287L51.3928 19.7318L49.3919 16.2682ZM41.008 25.7238L51.3919 19.7323L49.3928 16.2677L39.0089 22.2592L41.008 25.7238ZM44.2677 12.6081L38.2762 22.992L41.7408 24.9911L47.7323 14.6072L44.2677 12.6081ZM41.7349 24.9889L47.7318 14.6081L44.2682 12.6072L38.2713 22.988L41.7349 24.9889Z" fill="#D33131" />
</svg>