<svg viewBox="0 0 80 80" fill="none">
  <path d="M29.3934 14.3934C36.1847 11.5804 43.8153 11.5804 50.6066 14.3934C57.3979 17.2064 62.7936 22.6021 65.6066 29.3934C68.4196 36.1847 68.4196 43.8153 65.6066 50.6066C62.7936 57.3979 57.3979 62.7936 50.6066 65.6066C43.8153 68.4196 36.1847 68.4196 29.3934 65.6066C22.6021 62.7936 17.2064 57.3979 14.3934 50.6066C11.5804 43.8153 11.5804 36.1847 14.3934 29.3934C17.2064 22.6021 22.6021 17.2064 29.3934 14.3934Z" fill="#1CB0F6" class="fill-blue" />
  <path fill-rule="evenodd" clip-rule="evenodd" d="M35.39 12.6611C33.3937 12.9982 31.4255 13.5556 29.5223 14.3333C29.6667 14.4761 29.852 14.5793 30.0623 14.6233L33.8256 15.4106C34.6616 15.5855 35.4939 15.0981 35.7505 14.2835C35.9407 13.6795 35.7701 13.0762 35.39 12.6611ZM18.5618 22.4303C20.6909 19.8305 23.2836 17.629 26.2203 15.9454L34.6403 17.4412C35.303 17.5589 35.8863 17.9485 36.2488 18.5156L36.5163 18.9339C36.9363 19.5908 36.871 20.4464 36.356 21.0318C35.7574 21.7124 35.7777 22.7374 36.4027 23.3938L37.2876 24.323C37.8577 24.9218 38.673 25.2227 39.4955 25.1379L40.3752 25.0472C41.076 24.975 41.638 24.4354 41.7386 23.738L41.8486 22.9756C41.984 22.0374 43.1319 21.6558 43.802 22.3263C43.9846 22.5091 44.2234 22.6251 44.48 22.6556L45.7237 22.8038C46.4892 22.8951 47.1298 23.4273 47.3597 24.1631C47.5733 24.8468 47.3963 25.5926 46.8981 26.1073L39.629 33.6172C39.4213 33.8317 39.3156 34.1251 39.3388 34.4228L39.3429 34.4767C39.4203 35.4729 38.1722 35.9798 37.533 35.2119C37.3382 34.9779 37.0495 34.8426 36.7451 34.8426H35.0558C34.0135 34.8426 33.1685 35.6875 33.1685 36.7298C33.1685 37.5698 33.7236 38.3086 34.5304 38.5425L35.7504 38.8961C36.3986 39.084 36.9805 39.4514 37.4288 39.9559L37.8983 40.4842C38.9811 41.7026 40.5113 42.4304 42.1397 42.5015L42.7161 42.5267C44.3303 42.5972 45.8487 43.3122 46.9313 44.5115L47.4555 45.0923C47.8409 45.5193 48.3346 45.8342 48.8843 46.0037C50.2225 46.4164 51.1355 47.6533 51.1355 49.0538V49.4902C51.1355 50.4734 50.7527 51.4179 50.0684 52.1237L42.0375 60.4059C41.4914 60.9691 41.186 61.7227 41.186 62.5072V65.9822C41.186 66.9877 40.0485 67.5716 39.2315 66.9855C39.0334 66.8434 38.8819 66.6459 38.7959 66.4178L38.1365 64.6686C37.8216 63.8333 37.6602 62.9479 37.6602 62.0552V57.7127C37.6602 55.9998 37.0837 54.3367 36.0235 52.9913C35.016 51.7128 34.4439 50.1456 34.3908 48.5187L34.314 46.1639C34.2918 45.4835 34.5339 44.8209 34.9895 44.3151L35.0836 44.2106C35.8992 43.3051 35.9326 41.9401 35.1621 40.9958C34.7801 40.5276 34.2397 40.2156 33.6432 40.119L32.3073 39.9025C30.9548 39.6834 29.7172 39.0105 28.798 37.9946L24.9378 33.7287C23.8499 32.5265 23.153 31.022 22.9394 29.4148L22.6277 27.0686C22.4493 25.726 21.7587 24.5044 20.7003 23.6593L20.0756 23.1605C19.6253 22.8009 19.1067 22.555 18.5618 22.4303ZM50.2073 14.22C50.3426 14.2736 50.4775 14.3282 50.6122 14.384C54.3015 15.9122 57.579 18.2025 60.2543 21.0648L58.189 23.0919C56.8103 24.4451 54.5511 24.3128 53.3099 22.8325C52.8 22.2244 52.527 21.4406 52.5561 20.6475C52.5875 19.7932 52.2762 18.9618 51.6916 18.3381L50.7676 17.3524C50.1439 16.687 49.8669 15.7685 50.0187 14.8692C50.057 14.6423 50.1209 14.4249 50.2073 14.22ZM40.1688 13.7333C39.3302 14.4282 39.3414 15.7179 40.1919 16.3982L44.1346 19.552C44.3299 19.7082 44.5742 19.7903 44.8243 19.7837C45.6806 19.7609 46.1571 18.7841 45.648 18.0953L42.6471 14.035C42.0607 13.2417 40.9284 13.1038 40.1688 13.7333Z" fill="#AEEE52" class="fill-green" />
</svg>