<svg viewBox="0 0 80 80" fill="none">
  <g clip-path="url(#clip0)">
    <path d="M38.5 65.1296C38.5 64.3012 37.8284 63.6296 37 63.6296C36.1716 63.6296 35.5 64.3012 35.5 65.1296H38.5ZM53 73.067C53.8284 73.067 54.5 72.3954 54.5 71.567C54.5 70.7386 53.8284 70.067 53 70.067V73.067ZM21 70.067C20.1716 70.067 19.5 70.7386 19.5 71.567C19.5 72.3954 20.1716 73.067 21 73.067L21 70.067ZM38.5 71.567V65.1296H35.5V71.567H38.5ZM37 73.067L53 73.067V70.067L37 70.067V73.067ZM37 70.067L21 70.067L21 73.067L37 73.067V70.067Z" fill="#606060" class="fill-grey" />
    <path d="M20.2611 58.2513L19.0431 57.3758L20.2611 58.2513ZM20.4991 59.6332L21.3329 58.3862L21.3329 58.3862L20.4991 59.6332ZM23.9905 53.0633L24.866 51.8453L23.6481 50.9698L22.7725 52.1877L23.9905 53.0633ZM34.0389 57.0429L33.8431 58.53L33.8431 58.53L34.0389 57.0429ZM58.9165 37.9536L60.4037 38.1494L60.4037 38.1494L58.9165 37.9536ZM54.5242 21.5613L53.3342 22.4744L54.5242 21.5613ZM46.0536 14.8489L44.6864 14.2319L44.0694 15.5991L45.4366 16.2161L46.0536 14.8489ZM48.6833 9.02203L50.0505 9.63905L48.6833 9.02203ZM49.999 8.53726L50.662 7.19171L49.999 8.53726ZM60.388 17.06L61.578 16.1469L61.578 16.1469L60.388 17.06ZM66.2444 38.9164L64.7572 38.7206L64.7572 38.7206L66.2444 38.9164ZM54.9307 58.5123L54.0176 57.3223L54.9307 58.5123ZM33.0743 64.3687L33.2701 62.8816L33.0743 64.3687ZM19.0431 57.3758C18.2453 58.4856 18.4733 60.083 19.6653 60.8801L21.3329 58.3862C21.6067 58.5693 21.6321 58.9139 21.479 59.1268L19.0431 57.3758ZM22.7725 52.1877L19.0431 57.3758L21.479 59.1268L25.2085 53.9388L22.7725 52.1877ZM34.2347 55.5557C30.8228 55.1065 27.6105 53.8182 24.866 51.8453L23.115 54.2812C26.2575 56.5402 29.936 58.0156 33.8431 58.53L34.2347 55.5557ZM49.5181 51.4605C45.1682 54.7983 39.6707 56.2713 34.2347 55.5557L33.8431 58.53C40.0679 59.3495 46.3633 57.6627 51.3444 53.8406L49.5181 51.4605ZM57.4293 37.7578C56.7137 43.1938 53.8679 48.1228 49.5181 51.4605L51.3444 53.8406C56.3254 50.0185 59.5842 44.3742 60.4037 38.1494L57.4293 37.7578ZM53.3342 22.4744C56.6719 26.8243 58.145 32.3219 57.4293 37.7578L60.4037 38.1494C61.2232 31.9246 59.5363 25.6292 55.7142 20.6482L53.3342 22.4744ZM45.4366 16.2161C48.5174 17.6065 51.2392 19.7442 53.3342 22.4744L55.7142 20.6482C53.3152 17.5217 50.1982 15.0738 46.6706 13.4817L45.4366 16.2161ZM47.316 8.40502L44.6864 14.2319L47.4208 15.466L50.0505 9.63905L47.316 8.40502ZM50.662 7.19171C49.3756 6.55793 47.8783 7.15913 47.316 8.40502L50.0505 9.63905C49.9426 9.87812 49.6315 10.0284 49.3361 9.88281L50.662 7.19171ZM61.578 16.1469C58.6474 12.3276 54.9002 9.27992 50.662 7.19171L49.3361 9.88281C53.1652 11.7694 56.5504 14.5227 59.198 17.9732L61.578 16.1469ZM67.7316 39.1122C68.8069 30.944 66.5934 22.6831 61.578 16.1469L59.198 17.9732C63.729 23.8781 65.7288 31.3412 64.7572 38.7206L67.7316 39.1122ZM55.8438 59.7024C62.3801 54.6869 66.6562 47.2804 67.7316 39.1122L64.7572 38.7206C63.7857 46.1 59.9225 52.7912 54.0176 57.3223L55.8438 59.7024ZM32.8785 65.8559C41.0467 66.9313 49.3076 64.7178 55.8438 59.7024L54.0176 57.3223C48.1126 61.8534 40.6495 63.8531 33.2701 62.8816L32.8785 65.8559ZM19.6653 60.8801C23.5929 63.5063 28.1057 65.2275 32.8785 65.8559L33.2701 62.8816C28.9582 62.3139 24.8813 60.759 21.3329 58.3862L19.6653 60.8801Z" fill="#606060" class="fill-grey" />
    <path d="M39.8941 13.1462C45.7245 13.9137 51.0111 16.966 54.5911 21.6314C58.171 26.2969 59.7509 32.1934 58.9834 38.0237C58.2158 43.8541 55.1635 49.1408 50.4981 52.7207C45.8326 56.3006 39.9361 57.8806 34.1058 57.113C28.2754 56.3454 22.9888 53.2932 19.4088 48.6277C15.8289 43.9623 14.2489 38.0658 15.0165 32.2354C15.7841 26.405 18.8364 21.1184 23.5018 17.5385C28.1673 13.9585 34.0637 12.3786 39.8941 13.1462Z" fill="#1CB0F6" stroke="#1CB0F6" stroke-width="4" class="fill-blue stroke-blue" />
    <path fill-rule="evenodd" clip-rule="evenodd" d="M44.7415 14.3448C43.2236 13.7799 41.637 13.3788 40.0074 13.1562C40.0502 13.3129 40.1373 13.4586 40.2654 13.5732L42.5578 15.624C43.0671 16.0795 43.8387 16.0748 44.3423 15.6131C44.7157 15.2707 44.8388 14.7844 44.7415 14.3448ZM29.1748 14.3818C31.6888 13.4326 34.3647 12.9445 37.0716 12.9524C37.1186 12.9902 37.1653 13.0285 37.2115 13.0674L42.31 17.3567C42.7221 17.7033 42.9704 18.2065 42.9947 18.7444L43.0127 19.1413C43.0409 19.7644 42.6534 20.331 42.0625 20.5306C41.3755 20.7627 40.9795 21.481 41.15 22.1857L41.3914 23.1835C41.5469 23.8264 41.9914 24.361 42.5951 24.6312L43.2409 24.9202C43.7553 25.1505 44.3605 25.0015 44.7091 24.5586L45.0903 24.0743C45.5594 23.4785 46.5074 23.6733 46.7034 24.4059C46.7568 24.6055 46.8759 24.7814 47.0414 24.9052L47.8438 25.5054C48.3377 25.8748 48.5686 26.4998 48.4335 27.1015C48.3081 27.6607 47.887 28.1066 47.336 28.2639L39.2959 30.5592C39.0662 30.6248 38.8756 30.7858 38.7726 31.0013L38.7539 31.0403C38.4091 31.7614 37.3415 31.6134 37.2059 30.8256C37.1645 30.5856 37.0186 30.3764 36.8077 30.2546L35.6373 29.5789C34.9152 29.162 33.9918 29.4094 33.5749 30.1315C33.2389 30.7135 33.328 31.4474 33.7934 31.9321L34.4972 32.6651C34.8711 33.0546 35.1273 33.5419 35.2361 34.0707L35.3501 34.6245C35.6129 35.9018 36.3819 37.0181 37.4817 37.7187L37.871 37.9667C38.9611 38.6613 39.727 39.764 39.9973 41.028L40.1282 41.64C40.2244 42.09 40.4405 42.5057 40.7535 42.843C41.5156 43.6642 41.6534 44.8863 41.0932 45.8566L40.9186 46.159C40.5254 46.8401 39.8824 47.3414 39.1259 47.5566L30.2491 50.0824C29.6455 50.2541 29.1324 50.6541 28.8187 51.1976L27.4286 53.6052C27.0264 54.3018 26.0048 54.2513 25.6732 53.5185C25.5928 53.3408 25.5668 53.1433 25.5985 52.9509L25.8413 51.4753C25.9573 50.7706 26.1996 50.0926 26.5567 49.4741L28.2937 46.4656C28.9789 45.2788 29.2447 43.896 29.0483 42.5398C28.8617 41.251 29.0922 39.9364 29.7062 38.788L30.5949 37.1258C30.8517 36.6455 31.2844 36.2833 31.8024 36.1151L31.9094 36.0804C32.8367 35.7793 33.4058 34.8469 33.2497 33.8845C33.1724 33.4073 32.9228 32.975 32.5481 32.6695L31.7091 31.9851C30.8598 31.2923 30.2715 30.3311 30.041 29.2596L29.1654 25.1897C28.8324 23.6418 28.9775 22.0292 29.5817 20.5656L30.1365 19.2217C30.5499 18.2202 30.5601 17.0976 30.1649 16.0888L29.9316 15.4933C29.7634 15.064 29.5025 14.6862 29.1748 14.3818ZM54.3836 21.3518C54.4559 21.443 54.5276 21.5348 54.5986 21.6273C56.5433 24.1618 57.8979 27.0596 58.6065 30.1128L56.3648 30.6911C54.8683 31.0771 53.356 30.0818 53.0882 28.5597C52.9782 27.9345 53.1026 27.2822 53.44 26.7444C53.8034 26.1651 53.9204 25.4645 53.7648 24.7986L53.5189 23.7461C53.3529 23.0356 53.5284 22.2884 53.9933 21.7261C54.1106 21.5842 54.2418 21.4592 54.3836 21.3518ZM47.6235 16.9992C46.7645 17.1452 46.2564 18.0432 46.5735 18.8547L48.0436 22.6168C48.1164 22.8032 48.2528 22.9578 48.4287 23.0532C49.0311 23.38 49.752 22.8938 49.6748 22.2129L49.2198 18.1995C49.1309 17.4154 48.4015 16.8669 47.6235 16.9992Z" fill="#AEEE52" class="fill-green" />
  </g>
  <defs>
    <clipPath id="clip0">
      <rect width="80" height="80" fill="white" class="fill-white" />
    </clipPath>
  </defs>
</svg>