<svg viewBox="0 0 80 80" fill="none">
  <path d="M29.3934 14.3934C36.1847 11.5804 43.8153 11.5804 50.6066 14.3934C57.3979 17.2064 62.7936 22.6021 65.6066 29.3934C68.4196 36.1847 68.4196 43.8153 65.6066 50.6066C62.7936 57.3979 57.3979 62.7936 50.6066 65.6066C43.8153 68.4196 36.1847 68.4196 29.3934 65.6066C22.6021 62.7936 17.2064 57.3979 14.3934 50.6066C11.5804 43.8153 11.5804 36.1847 14.3934 29.3934C17.2064 22.6021 22.6021 17.2064 29.3934 14.3934Z" fill="#1CB0F6" />
  <path fill-rule="evenodd" clip-rule="evenodd" d="M47.0796 13.1922L43.2452 17.1854C42.9819 17.4596 42.8481 17.8331 42.8773 18.2122L42.8841 18.3005C42.9821 19.5722 41.3864 20.2162 40.5743 19.2327C40.3261 18.9321 39.9567 18.7581 39.567 18.7581L37.4366 18.7581C36.0952 18.7581 35.0078 19.8455 35.0078 21.1869C35.0078 22.2659 35.7197 23.2156 36.7554 23.5182L38.2957 23.9683C39.1258 24.2108 39.87 24.6839 40.4418 25.3325L41.0391 26.01C42.4205 27.5769 44.3801 28.5141 46.467 28.606L47.1691 28.6369C49.2376 28.728 51.1821 29.6488 52.5633 31.1913L53.2301 31.936C53.7218 32.4852 54.3533 32.8907 55.0572 33.1096C56.7623 33.6396 57.9241 35.2174 57.9241 37.0029V37.5951C57.9241 38.8569 57.4355 40.0697 56.5608 40.9791L46.3147 51.6306C45.6213 52.3516 45.2339 53.313 45.2339 54.3134V58.8083C45.2339 60.0921 43.779 60.8354 42.7387 60.0831C42.4875 59.9015 42.2956 59.6497 42.187 59.3593L41.2437 56.8369C40.9085 55.9406 40.7369 54.9915 40.7369 54.0346V47.5185C40.7369 45.7328 40.1394 43.9983 39.0395 42.5914L38.2797 41.6194C37.2344 40.2824 36.6415 38.6475 36.5865 36.9512L36.4687 33.311C36.4404 32.4378 36.7494 31.5872 37.3315 30.9357L37.4563 30.796C38.4952 29.6334 38.5378 27.889 37.5569 26.6771C37.0657 26.0703 36.3684 25.6654 35.5979 25.5395L33.9097 25.2638C32.1849 24.9821 30.608 24.1194 29.4405 22.8189L24.334 17.1302C25.9105 16.0495 27.6061 15.1268 29.399 14.3842C35.0343 12.05 41.2475 11.6527 47.0796 13.1922Z" fill="#AEEE52" />
</svg>