<svg viewBox="0 0 88 89" fill="none">
  <path d="M45.5099 73.6497C45.5099 72.8158 44.8339 72.1398 44.0001 72.1398C43.1662 72.1398 42.4902 72.8158 42.4902 73.6497H45.5099ZM60.1052 81.6391C60.9391 81.6391 61.615 80.9632 61.615 80.1293C61.615 79.2954 60.9391 78.6194 60.1052 78.6194V81.6391ZM27.895 78.6194C27.0611 78.6194 26.3851 79.2954 26.3851 80.1293C26.3851 80.9632 27.0611 81.6392 27.895 81.6392L27.895 78.6194ZM45.5099 80.1293V73.6497H42.4902V80.1293H45.5099ZM44.0001 81.6391L60.1052 81.6391V78.6194L44.0001 78.6194V81.6391ZM44.0001 78.6194L27.895 78.6194L27.895 81.6392L44.0001 81.6391V78.6194Z" fill="#606060" />
  <path d="M27.1512 66.7261L25.9252 65.8448L27.1512 66.7261ZM27.3908 68.1171L28.2301 66.862L28.2301 66.8619L27.3908 68.1171ZM30.9051 61.504L31.7864 60.278L30.5604 59.3968L29.6791 60.6227L30.9051 61.504ZM41.0195 65.5097L40.8225 67.0067L40.8225 67.0067L41.0195 65.5097ZM66.0606 46.2951L67.5575 46.4922L67.5575 46.4922L66.0606 46.2951ZM61.6394 29.7951L60.4416 30.7142L61.6394 29.7951ZM53.1132 23.0386L51.737 22.4175L51.1159 23.7937L52.4921 24.4148L53.1132 23.0386ZM55.7601 17.1734L57.1363 17.7945L55.7601 17.1734ZM57.0845 16.6855L57.7518 15.3311L57.0845 16.6855ZM67.5417 25.2642L68.7396 24.3451L68.7396 24.3451L67.5417 25.2642ZM73.4366 47.2642L71.9397 47.0671L71.9397 47.0671L73.4366 47.2642ZM62.0486 66.9889L61.1294 65.791L62.0486 66.9889ZM40.0486 72.8838L40.2456 71.3868L40.0486 72.8838ZM25.9252 65.8448C25.1221 66.962 25.3516 68.5698 26.5515 69.3722L28.2301 66.8619C28.5057 67.0463 28.5312 67.393 28.3771 67.6074L25.9252 65.8448ZM29.6791 60.6227L25.9252 65.8448L28.3771 67.6074L32.1311 62.3853L29.6791 60.6227ZM41.2166 64.0128C37.7823 63.5607 34.5489 62.2638 31.7864 60.278L30.0238 62.73C33.187 65.0038 36.8897 66.4889 40.8225 67.0067L41.2166 64.0128ZM56.6004 59.8907C52.222 63.2504 46.6883 64.7332 41.2166 64.0128L40.8225 67.0067C47.0881 67.8316 53.4249 66.1336 58.4387 62.2864L56.6004 59.8907ZM64.5636 46.098C63.8433 51.5697 60.9788 56.5311 56.6004 59.8907L58.4387 62.2864C63.4525 58.4392 66.7326 52.7578 67.5575 46.4922L64.5636 46.098ZM60.4416 30.7142C63.8012 35.0926 65.284 40.6264 64.5636 46.098L67.5575 46.4922C68.3824 40.2265 66.6845 33.8897 62.8373 28.8759L60.4416 30.7142ZM52.4921 24.4148C55.5931 25.8143 58.3328 27.9661 60.4416 30.7142L62.8373 28.8759C60.4225 25.7289 57.285 23.2649 53.7343 21.6624L52.4921 24.4148ZM54.3839 16.5524L51.737 22.4175L54.4894 23.6597L57.1363 17.7945L54.3839 16.5524ZM57.7518 15.3311C56.457 14.6931 54.9499 15.2983 54.3839 16.5524L57.1363 17.7945C57.0277 18.0351 56.7146 18.1864 56.4172 18.0399L57.7518 15.3311ZM68.7396 24.3451C65.7897 20.5007 62.0179 17.433 57.7518 15.3311L56.4172 18.0399C60.2715 19.9389 63.6789 22.7103 66.3439 26.1834L68.7396 24.3451ZM74.9335 47.4613C76.016 39.2394 73.7879 30.9242 68.7396 24.3451L66.3439 26.1834C70.9047 32.1271 72.9176 39.6393 71.9397 47.0671L74.9335 47.4613ZM62.9677 68.1867C69.5469 63.1384 73.8511 55.6832 74.9335 47.4613L71.9397 47.0671C70.9618 54.495 67.0732 61.2302 61.1294 65.791L62.9677 68.1867ZM39.8515 74.3807C48.0734 75.4631 56.3886 73.2351 62.9677 68.1867L61.1294 65.791C55.1856 70.3519 47.6735 72.3647 40.2456 71.3868L39.8515 74.3807ZM26.5515 69.3722C30.5049 72.0157 35.0473 73.7482 39.8515 74.3807L40.2456 71.3868C35.9055 70.8154 31.8018 69.2503 28.2301 66.862L26.5515 69.3722Z" fill="#606060" />
  <path d="M46.9132 21.3247C52.7819 22.0973 58.1033 25.1696 61.7067 29.8657C65.3101 34.5618 66.9005 40.497 66.1279 46.3657C65.3552 52.2344 62.2829 57.5557 57.5868 61.1592C52.8907 64.7626 46.9555 66.353 41.0868 65.5803C35.2182 64.8077 29.8968 61.7354 26.2933 57.0393C22.6899 52.3432 21.0996 46.408 21.8722 40.5393C22.6448 34.6706 25.7171 29.3493 30.4132 25.7458C35.1093 22.1424 41.0445 20.552 46.9132 21.3247Z" fill="#1CB0F6" stroke="#1CB0F6" stroke-width="4" />
  <path fill-rule="evenodd" clip-rule="evenodd" d="M34.1851 30.3102C34.6353 30.6369 35.2067 30.7484 35.7466 30.6147L36.4653 30.4368C37.3591 30.2156 38.3041 30.3577 39.0933 30.832L39.1191 30.8475L39.6216 33.4119L40.8221 33.9674L41.4541 34.2598C41.8216 34.4299 42.2369 34.4663 42.6284 34.363C43.0378 34.2548 43.4727 34.2999 43.8513 34.4896L44.8275 34.9787L45.1787 36.6656C45.3852 37.6573 44.7756 38.6362 43.7945 38.8883C43.2927 39.0173 42.76 38.9353 42.3202 38.6613L40.9262 37.793C40.7426 37.6787 40.5105 37.6767 40.325 37.7878C40.0841 37.9322 39.7741 37.8819 39.5912 37.6687L37.7513 35.5246C37.5712 35.3147 37.5257 35.0208 37.6339 34.7662C37.7813 34.4192 37.6393 34.0171 37.3067 33.8396L35.0465 32.6337C34.9071 32.5593 34.8106 32.4238 34.7859 32.2677C34.7354 31.9483 34.4016 31.7584 34.1013 31.8781L31.9423 32.7383C31.5294 32.9028 31.1714 33.1804 30.9093 33.5393L29.734 35.1485C28.6951 36.5709 28.3594 38.3885 28.8214 40.0882L29.1088 41.1454C29.3195 41.9203 29.8234 42.5829 30.5139 42.9928C31.9508 43.8458 32.4498 45.6862 31.6408 47.1482L31.0408 48.2325C30.6879 48.8702 30.6416 49.633 30.9146 50.3087C31.1834 50.9736 31.143 51.7234 30.8044 52.3556L29.4672 54.8525C29.2235 55.3076 29.1234 55.8259 29.18 56.339C29.2671 57.1281 29.7224 57.8358 30.4013 58.2474C31.0177 58.6212 31.7681 58.724 32.461 58.5248L33.7124 58.1649C35.0897 57.7689 36.2608 56.8562 36.9814 55.6175L38.8857 52.3438C39.452 51.3704 40.3776 50.658 41.4636 50.3598L42.5273 50.0677C43.3356 49.8458 43.9664 49.213 44.1859 48.404C44.2931 48.0085 44.2959 47.592 44.194 47.1951L42.9093 42.1919C42.8165 41.8305 43.0757 41.4739 43.4482 41.4506C43.7347 41.4327 43.9932 41.6222 44.0623 41.9009L44.7131 44.5245C44.9007 45.2808 45.3729 45.9356 46.0313 46.3525L46.528 46.6669C46.9216 46.9161 47.4011 46.9903 47.8516 46.8718C48.7529 46.6346 49.2878 45.7079 49.0424 44.8088L48.3258 42.1838C48.27 41.9795 48.3593 41.7632 48.5431 41.6579C48.8059 41.5072 49.1403 41.6439 49.2222 41.9355L49.5555 43.1219C49.6554 43.4773 49.8892 43.7801 50.2079 43.9666L50.8725 44.3557C51.8604 44.9339 52.4825 45.9785 52.5203 47.1225L52.636 50.6261C52.6408 50.7693 52.7074 50.9034 52.8187 50.9935C53.0117 51.1498 53.2906 51.1386 53.4703 50.9672L54.6261 49.8654C54.8239 49.6768 55.0536 49.5248 55.3045 49.4165L55.8883 49.1645C57.4225 48.5022 59.1451 49.5801 59.2202 51.2495L59.2491 51.8906C59.2788 52.5509 59.7336 53.1155 60.3724 53.2852C61.0799 53.4732 61.8206 53.1277 62.1313 52.4648L62.2578 52.1948C62.5477 51.576 63.1522 51.1646 63.8342 51.1219L64.4507 51.0833C64.6462 51.071 64.8374 51.0335 65.0198 50.9729C65.5505 49.491 65.9269 47.9462 66.1355 46.3615C66.9081 40.4928 65.3178 34.5576 61.7143 29.8615C61.5731 29.6774 61.4292 29.4958 61.2827 29.3167C60.7192 29.2036 60.1276 29.2539 59.581 29.4731L59.1816 29.6334C58.0852 30.0731 56.848 29.9875 55.8227 29.401L53.149 27.8713C52.2554 27.36 51.5917 26.5257 51.2946 25.54L51.2559 25.4117C51.01 24.5958 50.4865 23.8916 49.7761 23.4209C48.9151 22.8505 47.8528 22.6712 46.8523 22.9275L45.1569 23.3618C44.812 23.4501 44.545 23.7232 44.4645 24.07C44.3081 24.7441 44.899 25.3551 45.578 25.2213L47.1527 24.9109C47.5016 24.8421 47.8381 25.0761 47.8951 25.4271C47.9455 25.7381 47.7581 26.0384 47.4567 26.1297L45.9833 26.576C45.7418 26.6492 45.5317 26.8009 45.3863 27.0071C45.0544 27.478 44.4216 27.6244 43.9166 27.3472L42.5795 26.6132C41.9818 26.2851 41.286 26.1831 40.6193 26.3259L38.3401 26.814L38.9924 24.3966C39.2551 23.4233 38.8983 22.4771 38.2174 21.8937C36.9033 22.2467 35.6215 22.7198 34.3888 23.3085C34.3966 23.95 34.7213 24.5755 35.31 24.9397L38.3401 26.814L36.4892 28.1017C36.0758 28.3894 35.5613 28.4919 35.0692 28.3849L34.3266 28.2233C33.8809 28.1264 33.4311 28.3688 33.2669 28.7943C33.116 29.1856 33.2472 29.6295 33.5866 29.8758L34.1851 30.3102ZM61.0893 57.8131C60.3228 58.7246 59.4807 59.5778 58.5688 60.3628C58.2864 59.9293 58.1211 59.4254 58.0955 58.9008L57.9772 56.4764C57.9327 55.5629 58.824 54.8926 59.6892 55.1891C60.0734 55.3207 60.3735 55.625 60.4997 56.0109L61.0893 57.8131ZM44.8275 34.9787L45.6487 34.4058C46.4667 33.8352 47.5289 33.7501 48.4273 34.1833L48.9469 34.4338C49.4978 34.6994 49.8689 35.2345 49.9247 35.8435L49.9748 36.3895C50.0261 36.9493 49.6538 37.46 49.1052 37.5825C48.6335 37.6878 48.1476 37.4781 47.9008 37.0626L47.6284 36.6044C47.4334 36.2763 47.1418 36.0163 46.7935 35.8602L44.8275 34.9787ZM39.3552 57.3587C38.892 57.0912 38.7487 56.4894 39.0418 56.0419L39.4566 55.4085C39.6383 55.131 39.8996 54.9149 40.2062 54.7884L40.6544 54.6034C40.8743 54.5127 41.123 54.5239 41.3338 54.6342C41.748 54.8508 41.8907 55.3738 41.6441 55.7709L41.0544 56.7201C40.9265 56.9259 40.7491 57.0964 40.5383 57.216L40.2804 57.3623C39.9932 57.5252 39.6412 57.5238 39.3552 57.3587Z" fill="#AEEE52" />
</svg>