<svg viewBox="0 0 80 80" fill="none">
  <path d="M36 60.1083C36 61.2128 36.8954 62.1083 38 62.1083C39.1046 62.1083 40 61.2128 40 60.1083H36ZM40 20.1083C40 19.0037 39.1046 18.1083 38 18.1083C36.8954 18.1083 36 19.0037 36 20.1083H40ZM8 60.1083C8 61.2128 8.89543 62.1083 10 62.1083C11.1046 62.1083 12 61.2128 12 60.1083H8ZM12 20.1083C12 19.0037 11.1046 18.1083 10 18.1083C8.89543 18.1083 8 19.0037 8 20.1083H12ZM10 38.1083C8.89543 38.1083 8 39.0037 8 40.1083C8 41.2128 8.89543 42.1083 10 42.1083V38.1083ZM38 42.1083C39.1046 42.1083 40 41.2128 40 40.1083C40 39.0037 39.1046 38.1083 38 38.1083V42.1083ZM40 60.1083V20.1083H36V60.1083H40ZM12 60.1083V20.1083H8V60.1083H12ZM10 42.1083H38V38.1083H10V42.1083Z" fill="#84D3FF" />
  <path d="M50 58C48.8954 58 48 58.8954 48 60C48 61.1046 48.8954 62 50 62V58ZM69.5071 20.6629L67.9021 19.4696V19.4696L69.5071 20.6629ZM57.8551 36.3352L56.2501 35.1419L56.2501 35.1419L57.8551 36.3352ZM50 18C48.8954 18 48 18.8954 48 20C48 21.1046 48.8954 22 50 22V18ZM58.441 36.6741L58.4589 34.6742H58.4588L58.441 36.6741ZM58.0217 36.6704L58.0396 34.6704L58.0217 36.6704ZM58.3368 58H50V62H58.3368V58ZM67.9021 19.4696L56.2501 35.1419L59.4602 37.5285L71.1121 21.8562L67.9021 19.4696ZM50 22H69.1739V18H50V22ZM58.4588 34.6742L58.0396 34.6704L58.0039 38.6703L58.4231 38.674L58.4588 34.6742ZM56.2501 35.1419C55.1715 36.5926 56.1962 38.6541 58.0039 38.6703L58.0396 34.6704C59.5038 34.6835 60.3338 36.3533 59.4602 37.5285L56.2501 35.1419ZM72 48.3368C72 40.8385 65.9569 34.7412 58.4589 34.6742L58.4231 38.674C63.7261 38.7214 68 43.0337 68 48.3368H72ZM68 48.3368C68 53.6736 63.6736 58 58.3368 58V62C65.8828 62 72 55.8828 72 48.3368H68ZM71.1121 21.8562C72.2968 20.2628 71.1595 18 69.1739 18V22C67.871 22 67.1248 20.5152 67.9021 19.4696L71.1121 21.8562Z" fill="#1CB0F6" />
</svg>