<svg viewBox="0 0 80 80" fill="none">
  <path fill-rule="evenodd" clip-rule="evenodd" d="M9 48.625C9 48.9011 9.22386 49.125 9.5 49.125L46.5813 49.125C52.8825 49.125 58.9961 46.9805 63.9165 43.0441L69.8426 38.3033C71.4598 37.0095 71.722 34.6496 70.4283 33.0324C69.1345 31.4152 66.7746 31.153 65.1574 32.4467L59.2313 37.1876C58.4279 37.8304 57.411 38.125 56.382 38.125H55.5L34.9999 38.125C34.8619 38.125 34.75 38.0131 34.75 37.8751C34.75 37.7396 34.858 37.6287 34.9935 37.6268C35.0845 37.6256 35.1755 37.625 35.2666 37.625H45C47.0711 37.625 48.75 35.9461 48.75 33.875C48.75 31.8039 47.0711 30.125 45 30.125L35.2666 30.125C30.6804 30.125 26.18 31.2614 22.1615 33.4144C20.7946 34.1468 19.2917 34.625 17.741 34.625H9.5C9.22386 34.625 9 34.8489 9 35.125L9 48.625Z" fill="#FFC200" class="fill-yellow" />
</svg>