<svg viewBox="0 0 80 80" fill="none">
  <path fill-rule="evenodd" clip-rule="evenodd" d="M8.8125 66.375C8.8125 66.6511 9.03636 66.875 9.3125 66.875H46.3938C52.695 66.875 58.8086 64.7305 63.729 60.7941L69.6551 56.0533C71.2723 54.7595 71.5345 52.3996 70.2408 50.7824C68.947 49.1652 66.5871 48.903 64.9699 50.1967L59.0438 54.9376C58.2404 55.5804 57.2235 55.875 56.1945 55.875H55.3125L34.8124 55.875C34.6744 55.875 34.5625 55.7631 34.5625 55.6251C34.5625 55.4896 34.6705 55.3787 34.806 55.3768C34.897 55.3756 34.988 55.375 35.0791 55.375H44.8125C46.8836 55.375 48.5625 53.6961 48.5625 51.625C48.5625 49.5539 46.8836 47.875 44.8125 47.875H35.0791C30.4929 47.875 25.9925 49.0114 21.974 51.1644C20.6071 51.8968 19.1042 52.375 17.5535 52.375H9.3125C9.03636 52.375 8.8125 52.5989 8.8125 52.875L8.8125 66.375Z" fill="#F2C94C" />
  <path d="M38.3275 16.2846C38.9052 15.0068 40.7198 15.0068 41.2975 16.2846L42.249 18.3889C42.9807 20.0074 43.829 21.5706 44.7872 23.0662L47.4962 27.2946C48.9481 29.5607 49.204 32.3923 48.1819 34.8819C47.3506 36.907 45.7489 38.5189 43.7291 39.3631L43.3639 39.5157C41.0916 40.4654 38.5334 40.4654 36.2611 39.5157L35.8959 39.3631C33.8761 38.5189 32.2744 36.907 31.4431 34.8819C30.421 32.3923 30.6769 29.5607 32.1288 27.2946L34.8378 23.0662C35.796 21.5706 36.6443 20.0074 37.376 18.3889L38.3275 16.2846Z" fill="#2D9CDB" />
</svg>