<svg viewBox="0 0 80 80" fill="none">
  <path fill-rule="evenodd" clip-rule="evenodd" d="M17.1005 21.1C14.475 23.7255 13 27.2865 13 30.9995C13 34.7125 14.475 38.2735 17.1005 40.899L31.1813 54.9798C31.2016 55.0003 31.222 55.0208 31.2425 55.0413L38.3136 62.1124C39.0946 62.8934 40.3609 62.8934 41.142 62.1124L41.1421 62.1122L48.2132 55.0411L62.3552 40.8992C64.9807 38.2737 66.4557 34.7127 66.4557 30.9997C66.4557 27.2867 64.9807 23.7257 62.3552 21.1002C59.7297 18.4747 56.1687 16.9997 52.4557 16.9997C48.7427 16.9997 45.1817 18.4747 42.5562 21.1002L39.7279 23.9285L36.8995 21.1C34.274 18.4745 30.713 16.9995 27 16.9995C23.287 16.9995 19.726 18.4745 17.1005 21.1Z" fill="#D33131" class="fill-red" />
  <path d="M17.1005 21.1L15.6863 19.6858L17.1005 21.1ZM17.1005 40.899L18.5147 39.4848H18.5147L17.1005 40.899ZM31.1813 54.9798L32.603 53.5731L32.5955 53.5656L31.1813 54.9798ZM31.2425 55.0413L32.6567 53.6271L31.2425 55.0413ZM38.3136 62.1124L36.8993 63.5266H36.8993L38.3136 62.1124ZM41.142 62.1124L42.5562 63.5266C42.5781 63.5047 42.5995 63.4823 42.6204 63.4594L41.142 62.1124ZM41.1421 62.1122L39.7279 60.698C39.706 60.7199 39.6846 60.7423 39.6637 60.7652L41.1421 62.1122ZM48.2132 55.0411L46.799 53.6269H46.799L48.2132 55.0411ZM62.3552 40.8992L63.7694 42.3134L63.7694 42.3134L62.3552 40.8992ZM62.3552 21.1002L63.7694 19.686V19.686L62.3552 21.1002ZM52.4557 16.9997V14.9997V16.9997ZM42.5562 21.1002L41.142 19.686L42.5562 21.1002ZM39.7279 23.9285L38.3137 25.3427C38.6888 25.7177 39.1975 25.9285 39.7279 25.9285C40.2584 25.9285 40.7671 25.7177 41.1421 25.3427L39.7279 23.9285ZM36.8995 21.1L38.3137 19.6858V19.6858L36.8995 21.1ZM15 30.9995C15 27.8169 16.2643 24.7647 18.5147 22.5142L15.6863 19.6858C12.6857 22.6864 11 26.756 11 30.9995H15ZM18.5147 39.4848C16.2643 37.2344 15 34.1821 15 30.9995H11C11 35.243 12.6857 39.3126 15.6863 42.3132L18.5147 39.4848ZM32.5955 53.5656L18.5147 39.4848L15.6863 42.3132L29.7671 56.394L32.5955 53.5656ZM29.7596 56.3864C29.7823 56.4095 29.8053 56.4325 29.8283 56.4555L32.6567 53.6271C32.6388 53.6092 32.6209 53.5912 32.603 53.5731L29.7596 56.3864ZM29.8283 56.4555L36.8993 63.5266L39.7278 60.6982L32.6567 53.6271L29.8283 56.4555ZM36.8993 63.5266C38.4614 65.0887 40.9941 65.0887 42.5562 63.5266L39.7278 60.6982L39.7278 60.6982L36.8993 63.5266ZM42.6204 63.4594L42.6205 63.4592L39.6637 60.7652L39.6636 60.7654L42.6204 63.4594ZM46.799 53.6269L39.7279 60.698L42.5563 63.5264L49.6274 56.4554L46.799 53.6269ZM49.6274 56.4554L63.7694 42.3134L60.941 39.485L46.799 53.6269L49.6274 56.4554ZM63.7694 42.3134C66.77 39.3128 68.4557 35.2432 68.4557 30.9997H64.4557C64.4557 34.1823 63.1914 37.2345 60.941 39.485L63.7694 42.3134ZM68.4557 30.9997C68.4557 26.7562 66.77 22.6866 63.7694 19.686L60.941 22.5144C63.1914 24.7648 64.4557 27.8171 64.4557 30.9997H68.4557ZM63.7694 19.686C60.7688 16.6854 56.6992 14.9997 52.4557 14.9997V18.9997C55.6383 18.9997 58.6905 20.264 60.941 22.5144L63.7694 19.686ZM52.4557 14.9997C48.2122 14.9997 44.1426 16.6854 41.142 19.686L43.9704 22.5144C46.2208 20.264 49.2731 18.9997 52.4557 18.9997V14.9997ZM41.142 19.686L38.3137 22.5142L41.1421 25.3427L43.9704 22.5144L41.142 19.686ZM35.4853 22.5142L38.3137 25.3427L41.1421 22.5142L38.3137 19.6858L35.4853 22.5142ZM27 18.9995C30.1826 18.9995 33.2348 20.2638 35.4853 22.5142L38.3137 19.6858C35.3131 16.6852 31.2435 14.9995 27 14.9995V18.9995ZM18.5147 22.5142C20.7652 20.2638 23.8174 18.9995 27 18.9995V14.9995C22.7565 14.9995 18.6869 16.6852 15.6863 19.6858L18.5147 22.5142Z" fill="#FFC200" class="fill-yellow" />
  <path d="M48.2128 35.2424C48.9938 36.0234 50.2602 36.0234 51.0412 35.2424C51.8223 34.4613 51.8223 33.195 51.0412 32.414L48.2128 35.2424ZM41.1418 22.5145C40.3607 21.7334 39.0944 21.7334 38.3133 22.5145C37.5323 23.2955 37.5323 24.5619 38.3133 25.3429L41.1418 22.5145ZM51.0412 32.414L41.1418 22.5145L38.3133 25.3429L48.2128 35.2424L51.0412 32.414Z" fill="#FFC200" class="fill-yellow" />
</svg>