<svg viewBox="0 0 80 80" fill="none">
  <path d="M68 40C68 55.464 55.464 68 40 68C24.536 68 12 55.464 12 40C12 24.536 24.536 12 40 12C55.464 12 68 24.536 68 40Z" fill="#F4F4F4" />
  <path d="M66 40C66 54.3594 54.3594 66 40 66V70C56.5685 70 70 56.5685 70 40H66ZM40 66C25.6406 66 14 54.3594 14 40H10C10 56.5685 23.4315 70 40 70V66ZM14 40C14 25.6406 25.6406 14 40 14V10C23.4315 10 10 23.4315 10 40H14ZM40 14C54.3594 14 66 25.6406 66 40H70C70 23.4315 56.5685 10 40 10V14Z" fill="#D2D2D2" />
  <path d="M49 56C49 57.1046 49.8954 58 51 58C52.1046 58 53 57.1046 53 56H49ZM53 24C53 22.8954 52.1046 22 51 22C49.8954 22 49 22.8954 49 24H53ZM27 56C27 57.1046 27.8954 58 29 58C30.1046 58 31 57.1046 31 56H27ZM31 24C31 22.8954 30.1046 22 29 22C27.8954 22 27 22.8954 27 24H31ZM29 38C27.8954 38 27 38.8954 27 40C27 41.1046 27.8954 42 29 42V38ZM51 42C52.1046 42 53 41.1046 53 40C53 38.8954 52.1046 38 51 38V42ZM53 56V24H49V56H53ZM31 56V24H27V56H31ZM29 42H51V38H29V42Z" fill="#D33131" />
</svg>