<svg viewBox="0 0 80 80" fill="none">
  <path fill-rule="evenodd" clip-rule="evenodd" d="M60 34L40 18L20 34L20 62L60 62L60 34Z" fill="#FFC200" />
  <path d="M40 18L41.2494 16.4383C40.519 15.8539 39.481 15.8539 38.7506 16.4383L40 18ZM60 34H62C62 33.3924 61.7238 32.8178 61.2494 32.4383L60 34ZM20 34L18.7506 32.4383C18.2762 32.8178 18 33.3924 18 34H20ZM20 62H18C18 63.1046 18.8954 64 20 64V62ZM60 62V64C61.1046 64 62 63.1046 62 62H60ZM38.7506 19.5617L58.7506 35.5617L61.2494 32.4383L41.2494 16.4383L38.7506 19.5617ZM21.2494 35.5617L41.2494 19.5617L38.7506 16.4383L18.7506 32.4383L21.2494 35.5617ZM22 62L22 34H18L18 62H22ZM60 60L20 60V64H60V60ZM58 34L58 62H62L62 34H58Z" fill="#FFC200" />
  <path d="M67.5 40L64.5 37.6L40 18L15.5 37.6L12.5 40" stroke="#D33131" stroke-width="4" stroke-linecap="round" stroke-linejoin="round" />
  <path fill-rule="evenodd" clip-rule="evenodd" d="M55 30V19H49V25.2L55 30Z" fill="#D33131" />
  <path d="M55 19H57C57 17.8954 56.1046 17 55 17V19ZM55 30L53.7506 31.5617C54.3509 32.042 55.1734 32.1356 55.8664 31.8026C56.5593 31.4696 57 30.7688 57 30H55ZM49 19V17C47.8954 17 47 17.8954 47 19H49ZM49 25.2H47C47 25.8076 47.2762 26.3822 47.7506 26.7617L49 25.2ZM53 19V30H57V19H53ZM49 21H55V17H49V21ZM51 25.2V19H47V25.2H51ZM47.7506 26.7617L53.7506 31.5617L56.2494 28.4383L50.2494 23.6383L47.7506 26.7617Z" fill="#D33131" />
  <g opacity="0.9">
    <path fill-rule="evenodd" clip-rule="evenodd" d="M40 55.625C45.5228 55.625 50 51.1479 50 45.625V45.0147C50 42.8044 49.3097 40.6492 48.0255 38.8502L40.0198 27.6352C40.0101 27.6216 39.9899 27.6216 39.9802 27.6352C38.8496 29.2191 38.8154 31.3369 39.8945 32.9565L42.0333 36.1668C42.6637 37.1129 43 38.2243 43 39.3611V40.1224C43 42.8838 40.7614 45.1224 38 45.1224C35.2386 45.1224 33 42.8838 33 40.1224V39.3611C33 38.2243 33.3363 37.1129 33.9667 36.1668L35.0393 34.5568L31.9745 38.8502C30.6903 40.6492 30 42.8044 30 45.0147V45.625C30 51.1479 34.4772 55.625 40 55.625Z" fill="#D33131" />
  </g>
</svg>