<svg viewBox="0 0 80 80" fill="none">
  <rect x="18" y="18" width="44" height="44" rx="6" fill="#1CB0F6" />
  <path fill-rule="evenodd" clip-rule="evenodd" d="M24 62L43 62L56 62C58.8222 62 61.1893 60.0515 61.8294 57.4264C61.905 57.1164 61.7952 56.7952 61.5696 56.5696L55.7071 50.7071C55.3166 50.3166 54.6834 50.3166 54.2929 50.7071L50.5212 54.4789C50.1186 54.8814 49.4616 54.8672 49.0769 54.4475L34.7372 38.8042C34.3408 38.3718 33.6592 38.3718 33.2629 38.8042L18.2628 55.1678C18.0938 55.3523 18 55.5934 18 55.8436V56C18 59.3137 20.6863 62 24 62Z" fill="#AEEE52" />
  <path d="M45.4019 25.5C47.0096 24.5718 48.9904 24.5718 50.5981 25.5C52.2058 26.4282 53.1962 28.1436 53.1962 30C53.1962 31.8564 52.2058 33.5718 50.5981 34.5C48.9904 35.4282 47.0096 35.4282 45.4019 34.5C43.7942 33.5718 42.8038 31.8564 42.8038 30C42.8038 28.1436 43.7942 26.4282 45.4019 25.5Z" fill="#FFC200" />
</svg>