<svg viewBox="0 0 80 80" fill="none">
  <path fill-rule="evenodd" clip-rule="evenodd" d="M21 21C17.6863 21 15 23.6863 15 27L15 59C15 62.3137 17.6863 65 21 65H53C56.3137 65 59 62.3137 59 59L27 59C23.6863 59 21 56.3137 21 53L21 21Z" fill="#606060" />
  <g opacity="0.9">
    <rect x="21" y="15" width="44" height="44" rx="6" fill="#1CB0F6" />
    <path fill-rule="evenodd" clip-rule="evenodd" d="M27 59L46 59L59 59C61.8222 59 64.1893 57.0515 64.8294 54.4264C64.905 54.1164 64.7952 53.7952 64.5696 53.5696L58.7071 47.7071C58.3166 47.3166 57.6834 47.3166 57.2929 47.7071L53.5212 51.4789C53.1186 51.8814 52.4616 51.8672 52.0769 51.4475L37.7372 35.8042C37.3408 35.3718 36.6592 35.3718 36.2629 35.8042L21.2628 52.1678C21.0938 52.3523 21 52.5934 21 52.8436V53C21 56.3137 23.6863 59 27 59Z" fill="#AEEE52" />
    <path d="M48.4019 22.5C50.0096 21.5718 51.9904 21.5718 53.5981 22.5C55.2058 23.4282 56.1962 25.1436 56.1962 27C56.1962 28.8564 55.2058 30.5718 53.5981 31.5C51.9904 32.4282 50.0096 32.4282 48.4019 31.5C46.7942 30.5718 45.8038 28.8564 45.8038 27C45.8038 25.1436 46.7942 23.4282 48.4019 22.5Z" fill="#FFC200" />
  </g>
</svg>