<svg viewBox="0 0 80 80" fill="none">
  <path d="M68 40C68 55.464 55.464 68 40 68C24.536 68 12 55.464 12 40C12 24.536 24.536 12 40 12C55.464 12 68 24.536 68 40Z" fill="#1CB0F6" />
  <path d="M66 40C66 54.3594 54.3594 66 40 66V70C56.5685 70 70 56.5685 70 40H66ZM40 66C25.6406 66 14 54.3594 14 40H10C10 56.5685 23.4315 70 40 70V66ZM14 40C14 25.6406 25.6406 14 40 14V10C23.4315 10 10 23.4315 10 40H14ZM40 14C54.3594 14 66 25.6406 66 40H70C70 23.4315 56.5685 10 40 10V14Z" fill="#84D3FF" />
  <path d="M38.1494 53.5253C38.1494 54.6299 39.0448 55.5253 40.1494 55.5253C41.254 55.5253 42.1494 54.6299 42.1494 53.5253H38.1494ZM42.1494 31.1253C42.1494 30.0207 41.254 29.1253 40.1494 29.1253C39.0448 29.1253 38.1494 30.0207 38.1494 31.1253H42.1494ZM42 23.9253C42 22.8207 41.1046 21.9253 40 21.9253C38.8954 21.9253 38 22.8207 38 23.9253H42ZM38 25.5253C38 26.6299 38.8954 27.5253 40 27.5253C41.1046 27.5253 42 26.6299 42 25.5253H38ZM31.1494 29.1253C30.0448 29.1253 29.1494 30.0207 29.1494 31.1253C29.1494 32.2299 30.0448 33.1253 31.1494 33.1253V29.1253ZM40.1494 33.1253C41.254 33.1253 42.1494 32.2299 42.1494 31.1253C42.1494 30.0207 41.254 29.1253 40.1494 29.1253V33.1253ZM31 51.5253C29.8954 51.5253 29 52.4207 29 53.5253C29 54.6299 29.8954 55.5253 31 55.5253V51.5253ZM49 55.5253C50.1046 55.5253 51 54.6299 51 53.5253C51 52.4207 50.1046 51.5253 49 51.5253V55.5253ZM42.1494 53.5253V31.1253H38.1494V53.5253H42.1494ZM38 23.9253V25.5253H42V23.9253H38ZM31.1494 33.1253H40.1494V29.1253H31.1494V33.1253ZM31 55.5253H49V51.5253H31V55.5253Z" fill="#FFC200" />
</svg>