<svg viewBox="0 0 80 80" fill="none">
  <path fill-rule="evenodd" clip-rule="evenodd" d="M52.066 50.3646C51.3555 53.9223 49.111 56.9852 45.9326 58.7345C42.2386 60.7676 37.7609 60.7676 34.0669 58.7345C30.8885 56.9852 28.6441 53.9223 27.9335 50.3646L27.517 48.279C27.0035 45.7079 27.2285 43.0691 28.1306 40.6559C31.7077 42.8044 35.8057 43.9428 39.9872 43.9428C44.1766 43.9428 48.2823 42.8 51.8643 40.6436C52.7703 43.0601 52.9969 45.7035 52.4825 48.279L52.066 50.3646Z" fill="#FFC200" />
  <path fill-rule="evenodd" clip-rule="evenodd" d="M55.5873 23.2313L52.9789 30.4664H27.0215L24.4131 23.2313C29.3509 21.2696 34.6381 20.2485 40.0001 20.2485C45.3622 20.2485 50.6494 21.2697 55.5873 23.2313Z" fill="#1CB0F6" />
  <path fill-rule="evenodd" clip-rule="evenodd" d="M54.1868 39.0442C53.6249 39.4844 53.0412 39.8994 52.4373 40.2875C48.7235 42.6741 44.402 43.9431 39.9875 43.9431C35.573 43.9431 31.2514 42.6741 27.5377 40.2875C26.9338 39.8994 26.3501 39.4843 25.7881 39.0442L27.0087 37.4663H52.9662L54.1868 39.0442Z" fill="#1CB0F6" />
  <path d="M27 30.4663H53V37.4663H27V30.4663Z" fill="#7B61FF" />
</svg>