<svg viewBox="0 0 80 80" fill="none">
  <path fill-rule="evenodd" clip-rule="evenodd" d="M27.517 54.2792C26.807 50.7239 27.5089 47.0392 29.4609 44.0005H50.5387C52.4906 47.0392 53.1926 50.7239 52.4825 54.2792L52.066 56.3648C51.3555 59.9226 49.111 62.9854 45.9326 64.7347C42.2386 66.7678 37.7609 66.7678 34.0669 64.7347C30.8885 62.9854 28.6441 59.9226 27.9335 56.3648L27.517 54.2792Z" fill="#FFC200" />
  <path fill-rule="evenodd" clip-rule="evenodd" d="M35.0528 28.717L38.1475 22.0117C39.2793 22.7091 40.7191 22.7094 41.8511 22.0126L44.9458 28.7175C45.5985 30.1318 47.2249 30.8112 48.6897 30.2816L50.4328 29.6514C52.7994 28.7957 55.4049 29.1674 57.4204 30.5818C56.7727 31.272 56.4542 32.1587 56.4647 33.0421C55.3489 33.1864 54.3047 33.6955 53.5004 34.4996C52.5397 35.4602 52 36.763 52 38.1216V38.3432C52 38.5585 51.988 38.771 51.9646 38.98C51.9634 38.9906 51.9716 38.9998 51.9823 38.9998C51.9921 38.9998 52 39.0078 52 39.0176V43.9995C52 43.9997 51.9999 43.9998 51.9997 43.9998H51.9991L51.9991 43.9998L51.9991 43.9999H28.001C28.0001 43.9999 27.9995 43.999 27.9999 43.9982L28 43.9977V39.0175C28 39.0078 28.008 38.9998 28.0177 38.9998C28.0283 38.9998 28.0366 38.9906 28.0354 38.9801C28.012 38.771 27.9999 38.5585 27.9999 38.3432V38.1216C27.9999 36.763 27.4602 35.4602 26.4995 34.4996C25.6952 33.6955 24.6511 33.1864 23.5353 33.0421C23.5458 32.1587 23.2273 31.272 22.5796 30.5818C24.5951 29.1674 27.2006 28.7957 29.5672 29.6514L31.3088 30.2811C32.7736 30.8107 34.4 30.1312 35.0528 28.717Z" fill="#AEEE52" />
  <path d="M17.5 30.5C18.8807 29.1193 21.1193 29.1193 22.5 30.5C23.8807 31.8807 23.8807 34.1193 22.5 35.5C21.1193 36.8807 18.8807 36.8807 17.5 35.5C16.1193 34.1193 16.1193 31.8807 17.5 30.5Z" fill="#1CB0F6" stroke="#1CB0F6" stroke-width="4" stroke-linecap="round" stroke-linejoin="round" />
  <path d="M37.5 16.5C38.8807 15.1193 41.1193 15.1193 42.5 16.5C43.8807 17.8807 43.8807 20.1193 42.5 21.5C41.1193 22.8807 38.8807 22.8807 37.5 21.5C36.1193 20.1193 36.1193 17.8807 37.5 16.5Z" fill="#1CB0F6" stroke="#1CB0F6" stroke-width="4" stroke-linecap="round" stroke-linejoin="round" />
  <path d="M57.5 30.5C58.8807 29.1193 61.1193 29.1193 62.5 30.5C63.8807 31.8807 63.8807 34.1193 62.5 35.5C61.1193 36.8807 58.8807 36.8807 57.5 35.5C56.1193 34.1193 56.1193 31.8807 57.5 30.5Z" fill="#1CB0F6" stroke="#1CB0F6" stroke-width="4" stroke-linecap="round" stroke-linejoin="round" />
  <path d="M37.9995 51C39.1041 49.8954 40.8949 49.8954 41.9995 51C43.1041 52.1046 43.1041 53.8954 41.9995 55C40.8949 56.1046 39.1041 56.1046 37.9995 55C36.8949 53.8954 36.8949 52.1046 37.9995 51Z" fill="#D33131" stroke="#D33131" stroke-width="4" stroke-linecap="round" stroke-linejoin="round" />
</svg>