<svg viewBox="0 0 80 80" fill="none">
  <path fill-rule="evenodd" clip-rule="evenodd" d="M21.3964 12.9816L10.9091 21.3475L8 69.5001H72L69.0909 21.3475L58.6036 12.9816C46.2669 14.6447 33.7331 14.6447 21.3964 12.9816Z" fill="#828282" />
  <path d="M21.3964 12.9816L21.6636 10.9995C21.1228 10.9266 20.5757 11.0778 20.1491 11.4181L21.3964 12.9816ZM10.9091 21.3475L9.66187 19.784C9.21913 20.1372 8.94688 20.6616 8.91273 21.2269L10.9091 21.3475ZM8 69.5001L6.00364 69.3794C5.97039 69.9298 6.16583 70.4695 6.54377 70.871C6.92171 71.2724 7.44863 71.5001 8 71.5001V69.5001ZM72 69.5001V71.5001C72.5514 71.5001 73.0783 71.2724 73.4562 70.871C73.8342 70.4695 74.0296 69.9298 73.9964 69.3794L72 69.5001ZM69.0909 21.3475L71.0873 21.2269C71.0531 20.6616 70.7809 20.1372 70.3381 19.784L69.0909 21.3475ZM58.6036 12.9816L59.8508 11.4181C59.4242 11.0778 58.8772 10.9266 58.3364 10.9995L58.6036 12.9816ZM20.1491 11.4181L9.66187 19.784L12.1563 22.911L22.6436 14.5451L20.1491 11.4181ZM8.91273 21.2269L6.00364 69.3794L9.99636 69.6207L12.9055 21.4681L8.91273 21.2269ZM8 71.5001H72V67.5001H8V71.5001ZM73.9964 69.3794L71.0873 21.2269L67.0946 21.4681L70.0036 69.6207L73.9964 69.3794ZM70.3381 19.784L59.8508 11.4181L57.3564 14.545L67.8437 22.911L70.3381 19.784ZM58.3364 10.9995C46.177 12.6387 33.823 12.6387 21.6636 10.9995L21.1292 14.9637C33.6432 16.6507 46.3567 16.6507 58.8708 14.9636L58.3364 10.9995Z" fill="#EB5757" />
  <path fill-rule="evenodd" clip-rule="evenodd" d="M23.8675 13.2922C22.7028 13.1564 21.6579 14.0296 21.6047 15.201L20.2767 44.4151C20.2344 45.3462 20.8404 46.186 21.7436 46.4163C33.7209 49.4695 46.2794 49.4695 58.2567 46.4162C59.1599 46.186 59.7659 45.3462 59.7236 44.415L58.3957 15.201C58.3424 14.0295 57.2975 13.1563 56.1328 13.2921C45.4204 14.5412 34.5799 14.5412 23.8675 13.2922Z" fill="#EB5757" />
  <path fill-rule="evenodd" clip-rule="evenodd" d="M10.236 69.5H8L8.30732 64.4132L20.4737 40.0803L20.2767 44.415C20.2344 45.3461 20.8403 46.1859 21.7436 46.4162C21.7537 46.4187 21.7639 46.4213 21.7741 46.4239L10.236 69.5ZM71.6927 64.4132L72 69.5H69.764L58.2259 46.424C58.2362 46.4214 58.2464 46.4187 58.2567 46.4161C59.1599 46.1859 59.7659 45.3461 59.7235 44.4149L59.5265 40.0809L71.6927 64.4132Z" fill="#EB5757" />
</svg>