<svg viewBox="0 0 80 80" fill="none">
  <path d="M30.4297 16.5674C36.4829 13.6785 43.5171 13.6785 49.5703 16.5674C55.6838 19.4851 60.1349 25.0425 61.6552 31.6438C63.1394 38.0879 61.6843 44.8682 57.6801 50.1309L55.6676 52.7758C54.7221 54.0185 53.6743 55.1799 52.5351 56.2479L40.5 67.5312C40.2188 67.7949 39.7812 67.7949 39.5 67.5312L27.4649 56.2479C26.3257 55.1799 25.2779 54.0185 24.3324 52.7758L22.3199 50.1309C18.3157 44.8682 16.8606 38.0879 18.3448 31.6438C19.8651 25.0425 24.3162 19.4851 30.4297 16.5674Z" fill="#EB5757" stroke="#EB5757" stroke-width="4" stroke-linecap="round" stroke-linejoin="round" />
  <path d="M35.7689 25.739C38.446 24.4663 41.5538 24.4663 44.2309 25.739L44.3248 25.7836C46.9808 27.0463 48.9151 29.4524 49.5776 32.3177C50.2453 35.2057 49.5325 38.2585 47.6698 40.5644C45.8217 42.852 43.024 44.1995 40.0832 44.1995H39.9167C36.9758 44.1995 34.1781 42.852 32.3301 40.5644C30.4673 38.2585 29.7545 35.2057 30.4222 32.3177C31.0847 29.4524 33.019 27.0463 35.675 25.7836L35.7689 25.739Z" fill="#F2F2F2" stroke="#F2F2F2" stroke-width="4" stroke-linecap="round" stroke-linejoin="round" />
  <path d="M16 68H64" stroke="#F2994A" stroke-width="4" stroke-linecap="round" stroke-linejoin="round" />
</svg>