<svg viewBox="0 0 80 80" fill="none">
  <path fill-rule="evenodd" clip-rule="evenodd" d="M69.5127 45.3679C68.6951 48.5935 65.2204 50 61.8927 50H18.9846C15.6569 50 12.1822 48.5935 11.3646 45.3679C10.1707 40.6573 11.9088 35.3197 16.579 32.4349L20.3788 30.0878C21.5986 29.3344 22.6389 28.333 23.5986 27.2678C24.1256 26.6827 24.6828 26.1255 25.2679 25.5985C26.3331 24.6388 27.3344 23.5985 28.0879 22.3787L30.4349 18.579C35.0298 11.1403 45.8475 11.1403 50.4424 18.579L52.7894 22.3786C53.5429 23.5984 54.5442 24.6387 55.6094 25.5984C56.1945 26.1255 56.7518 26.6828 57.2789 27.2678C58.2385 28.3331 59.2789 29.3344 60.4987 30.0879L64.2983 32.4349C68.9685 35.3197 70.7066 40.6573 69.5127 45.3679ZM45.799 42.9452C47.4892 43.6454 49.3884 43.6454 51.0787 42.9452C52.769 42.2451 54.1119 40.9022 54.812 39.2119C55.5122 37.5216 55.5122 35.6224 54.812 33.9322C54.1119 32.2419 52.769 30.899 51.0787 30.1988C49.3884 29.4987 47.4892 29.4987 45.799 30.1988C44.1087 30.899 42.7658 32.2419 42.0656 33.9322C41.3655 35.6224 41.3655 37.5216 42.0656 39.2119C42.7658 40.9022 44.1087 42.2451 45.799 42.9452ZM31.2806 37.0138C30.3148 37.4139 29.2295 37.4139 28.2636 37.0138C27.2978 36.6138 26.5304 35.8464 26.1303 34.8805C25.7302 33.9146 25.7302 32.8294 26.1303 31.8635C26.5304 30.8977 27.2978 30.1303 28.2636 29.7302C29.2295 29.3301 30.3148 29.3301 31.2806 29.7302C32.2465 30.1303 33.0139 30.8977 33.414 31.8635C33.814 32.8294 33.814 33.9146 33.414 34.8805C33.0139 35.8464 32.2465 36.6138 31.2806 37.0138ZM40.2179 22.9265C40.7009 23.1265 41.2435 23.1265 41.7264 22.9265C42.2094 22.7265 42.593 22.3428 42.7931 21.8598C42.9931 21.3769 42.9931 20.8343 42.7931 20.3513C42.593 19.8684 42.2094 19.4847 41.7264 19.2847C41.2435 19.0846 40.7009 19.0846 40.2179 19.2847C39.735 19.4847 39.3513 19.8684 39.1513 20.3513C38.9512 20.8343 38.9512 21.3769 39.1513 21.8598C39.3513 22.3428 39.735 22.7265 40.2179 22.9265Z" fill="#D33131" class="fill-red" />
  <path d="M45.799 42.9451C47.4892 43.6452 49.3884 43.6452 51.0787 42.9451C52.769 42.245 54.1119 40.902 54.812 39.2118C55.5122 37.5215 55.5122 35.6223 54.812 33.932C54.1119 32.2418 52.769 30.8988 51.0787 30.1987C49.3884 29.4986 47.4892 29.4986 45.799 30.1987C44.1087 30.8988 42.7658 32.2418 42.0656 33.932C41.3655 35.6223 41.3655 37.5215 42.0656 39.2118C42.7658 40.902 44.1087 42.245 45.799 42.9451Z" fill="#F4F4F4" class="fill-white" />
  <path d="M28.2638 37.0133C29.2297 37.4134 30.3149 37.4134 31.2808 37.0133C32.2466 36.6133 33.014 35.8459 33.4141 34.88C33.8142 33.9141 33.8142 32.8289 33.4141 31.863C33.014 30.8972 32.2466 30.1298 31.2808 29.7297C30.3149 29.3296 29.2297 29.3296 28.2638 29.7297C27.2979 30.1298 26.5305 30.8972 26.1305 31.863C25.7304 32.8289 25.7304 33.9141 26.1305 34.88C26.5305 35.8459 27.2979 36.6133 28.2638 37.0133Z" fill="#F4F4F4" class="fill-white" />
  <path d="M40.2177 22.9259C40.7006 23.1259 41.2433 23.1259 41.7262 22.9259C42.2091 22.7258 42.5928 22.3421 42.7929 21.8592C42.9929 21.3763 42.9929 20.8336 42.7929 20.3507C42.5928 19.8678 42.2091 19.4841 41.7262 19.284C41.2433 19.084 40.7006 19.084 40.2177 19.284C39.7348 19.4841 39.3511 19.8678 39.151 20.3507C38.951 20.8336 38.951 21.3763 39.151 21.8592C39.3511 22.3421 39.7348 22.7258 40.2177 22.9259Z" fill="#F4F4F4" class="fill-white" />
  <path fill-rule="evenodd" clip-rule="evenodd" d="M36.9109 50C36.3587 50 35.9109 50.4477 35.9109 51V60.8342C35.9109 61.8966 35.6289 62.9399 35.0936 63.8575L34.1377 65.4961C33.7488 66.1628 34.2297 67 35.0015 67H36.9109H42.9109H45.5194C46.2912 67 46.7721 66.1628 46.3832 65.4961L44.7283 62.6591C44.193 61.7415 43.9109 60.6982 43.9109 59.6358V51C43.9109 50.4477 43.4632 50 42.9109 50H36.9109Z" fill="#FF9100" class="fill-orange" />
</svg>