<svg viewBox="0 0 80 80" fill="none">
  <path fill-rule="evenodd" clip-rule="evenodd" d="M23.0011 24.2727C26.1114 21.8861 30.0424 20.8328 33.9294 21.3445C35.1861 21.51 35.1631 23.278 34.0905 23.9535C33.7886 24.1436 33.4945 24.3483 33.2091 24.5673C30.7653 26.4425 29.1665 29.2116 28.7644 32.2656C28.3624 35.3196 29.19 38.4083 31.0652 40.8521C32.1399 42.2528 33.5084 43.3758 35.0558 44.1551C33.6164 45.2548 32.5713 46.8147 32.1057 48.5808C32.0316 48.8618 31.9727 49.1455 31.9289 49.4307C30.8645 49.5952 29.8387 49.9423 28.8966 50.4528C25.4784 49.719 22.4164 47.7929 20.2725 44.9989C17.8859 41.8886 16.8326 37.9576 17.3443 34.0707C17.856 30.1838 19.8908 26.6594 23.0011 24.2727Z" fill="#F2C94C" />
  <path d="M33.9294 21.3445L34.1904 19.3616L33.9294 21.3445ZM23.0011 24.2727L24.2187 25.8594V25.8594L23.0011 24.2727ZM34.0905 23.9535L33.0247 22.2612L33.0247 22.2612L34.0905 23.9535ZM33.2091 24.5673L31.9916 22.9805L31.9916 22.9805L33.2091 24.5673ZM28.7644 32.2656L30.7473 32.5267V32.5267L28.7644 32.2656ZM31.0652 40.8521L32.6519 39.6346H32.6519L31.0652 40.8521ZM35.0558 44.1551L36.2699 45.7444C36.8174 45.3261 37.1111 44.6555 37.0472 43.9695C36.9832 43.2835 36.5707 42.6787 35.9554 42.3688L35.0558 44.1551ZM32.1057 48.5808L30.1718 48.071V48.071L32.1057 48.5808ZM31.9289 49.4307L32.2343 51.4072C33.0966 51.274 33.773 50.5971 33.9056 49.7347L31.9289 49.4307ZM28.8966 50.4528L28.4768 52.4083C28.9432 52.5084 29.43 52.4385 29.8495 52.2112L28.8966 50.4528ZM20.2725 44.9989L21.8592 43.7814L21.8592 43.7814L20.2725 44.9989ZM17.3443 34.0707L15.3614 33.8096L17.3443 34.0707ZM34.1904 19.3616C29.7776 18.7807 25.3147 19.9765 21.7836 22.686L24.2187 25.8594C26.9082 23.7957 30.3073 22.8849 33.6683 23.3274L34.1904 19.3616ZM35.1563 25.6459C36.3437 24.898 36.9201 23.5891 36.8824 22.3947C36.8629 21.7767 36.6759 21.0828 36.2043 20.4865C35.7097 19.861 34.9975 19.4679 34.1904 19.3616L33.6683 23.3274C33.4895 23.3039 33.2458 23.1939 33.0668 22.9675C32.9109 22.7704 32.8867 22.5916 32.8844 22.5208C32.8813 22.4207 32.9098 22.3335 33.0247 22.2612L35.1563 25.6459ZM34.4266 26.154C34.6629 25.9727 34.9064 25.8032 35.1563 25.6459L33.0247 22.2612C32.6708 22.484 32.326 22.7239 31.9916 22.9805L34.4266 26.154ZM30.7473 32.5267C31.0802 29.9986 32.4037 27.7063 34.4266 26.154L31.9916 22.9805C29.127 25.1787 27.2529 28.4247 26.7816 32.0046L30.7473 32.5267ZM32.6519 39.6346C31.0996 37.6116 30.4145 35.0548 30.7473 32.5267L26.7816 32.0046C26.3103 35.5845 27.2804 39.205 29.4785 42.0696L32.6519 39.6346ZM35.9554 42.3688C34.6743 41.7237 33.5416 40.794 32.6519 39.6346L29.4785 42.0696C30.7383 43.7115 32.3425 45.028 34.1562 45.9414L35.9554 42.3688ZM34.0396 49.0907C34.3916 47.7555 35.1827 46.575 36.2699 45.7444L33.8417 42.5658C32.05 43.9345 30.7511 45.8738 30.1718 48.071L34.0396 49.0907ZM33.9056 49.7347C33.9389 49.5185 33.9835 49.3035 34.0396 49.0907L30.1718 48.071C30.0797 48.4202 30.0066 48.7726 29.9521 49.1267L33.9056 49.7347ZM29.8495 52.2112C30.5909 51.8094 31.3979 51.5365 32.2343 51.4072L31.6234 47.4542C30.3311 47.6539 29.0864 48.0751 27.9437 48.6944L29.8495 52.2112ZM18.6858 46.2164C21.1198 49.3885 24.5961 51.5751 28.4768 52.4083L29.3164 48.4974C26.3607 47.8629 23.713 46.1973 21.8592 43.7814L18.6858 46.2164ZM15.3614 33.8096C14.7804 38.2225 15.9763 42.6853 18.6858 46.2164L21.8592 43.7814C19.7955 41.0919 18.8847 37.6928 19.3272 34.3318L15.3614 33.8096ZM21.7836 22.686C18.2525 25.3956 15.9424 29.3968 15.3614 33.8096L19.3272 34.3318C19.7697 30.9707 21.5292 27.9232 24.2187 25.8594L21.7836 22.686Z" fill="#F2C94C" />
  <path fill-rule="evenodd" clip-rule="evenodd" d="M60.7508 37.9344C63.4989 39.5165 65.5121 42.1301 66.334 45.1887C66.7763 46.8349 66.8562 48.5405 66.5882 50.1926C67.5706 50.6491 68.4757 51.2766 69.2565 52.0552C71.0102 53.8039 72.0005 56.1833 72.0005 58.6599C72.0005 61.1365 71.0102 63.5159 69.2565 65.2646C67.5033 67.0129 65.1238 67.9993 62.6479 67.9993L60.6094 67.9993C60.6018 67.9998 60.5942 68.0001 60.5865 68.0001H35.4157C35.4129 68.0001 35.4101 68.0001 35.4074 68L33.3531 68C30.8772 68 28.4977 67.0136 26.7445 65.2654C24.9908 63.5167 24.0005 61.1373 24.0005 58.6607C24.0005 56.1841 24.9908 53.8047 26.7445 52.056C28.158 50.6464 29.9787 49.7322 31.9287 49.4308C31.9726 49.1456 32.0315 48.8619 32.1056 48.5809C32.6611 46.4737 34.0414 44.6601 35.9323 43.5715C37.8232 42.4828 40.0885 42.1976 42.1963 42.7715C42.7409 42.9197 43.2657 43.1222 43.7634 43.3736L44.3759 42.3158C45.9677 39.5665 48.5888 37.5603 51.6618 36.7392C54.729 35.9197 58.0027 36.3522 60.7508 37.9344Z" fill="#9B51E0" />
  <path d="M66.334 45.1887L68.2655 44.6697V44.6697L66.334 45.1887ZM60.7508 37.9344L61.7487 36.2011V36.2011L60.7508 37.9344ZM66.5882 50.1926L64.614 49.8722C64.4705 50.7567 64.9327 51.6287 65.7453 52.0063L66.5882 50.1926ZM69.2565 52.0552L67.8443 53.4714L69.2565 52.0552ZM69.2565 65.2646L67.8443 63.8484L69.2565 65.2646ZM62.6479 67.9993V69.9993V67.9993ZM60.6094 67.9993V65.9993C60.5578 65.9993 60.5063 66.0012 60.455 66.0052L60.6094 67.9993ZM35.4074 68L35.4636 66.0008C35.4449 66.0003 35.4261 66 35.4074 66L35.4074 68ZM33.3531 68V70H33.3531L33.3531 68ZM26.7445 65.2654L28.1567 63.8492H28.1567L26.7445 65.2654ZM26.7445 52.056L28.1567 53.4722H28.1567L26.7445 52.056ZM31.9287 49.4308L32.2342 51.4073C33.0965 51.2741 33.7729 50.5972 33.9055 49.7348L31.9287 49.4308ZM32.1056 48.5809L30.1717 48.071L32.1056 48.5809ZM35.9323 43.5715L36.9302 45.3047L35.9323 43.5715ZM42.1963 42.7715L41.671 44.7013V44.7013L42.1963 42.7715ZM43.7634 43.3736L42.8618 45.1588C43.8081 45.6368 44.963 45.2932 45.4942 44.3757L43.7634 43.3736ZM44.3759 42.3158L42.645 41.3137V41.3137L44.3759 42.3158ZM51.6618 36.7392L51.1455 34.807H51.1455L51.6618 36.7392ZM68.2655 44.6697C67.3054 41.0969 64.9552 38.0472 61.7487 36.2011L59.7529 39.6676C62.0425 40.9858 63.7188 43.1634 64.4025 45.7077L68.2655 44.6697ZM68.5623 50.5129C68.8753 48.5841 68.7821 46.5923 68.2655 44.6697L64.4025 45.7077C64.7706 47.0775 64.8371 48.4969 64.614 49.8722L68.5623 50.5129ZM70.6687 50.639C69.721 49.694 68.6228 48.9327 67.431 48.3788L65.7453 52.0063C66.5184 52.3656 67.2303 52.8592 67.8443 53.4714L70.6687 50.639ZM74.0005 58.6599C74.0005 55.6504 72.7976 52.7619 70.6687 50.639L67.8443 53.4714C69.2227 54.846 70.0005 56.7163 70.0005 58.6599H74.0005ZM70.6687 66.6808C72.7976 64.558 74.0005 61.6694 74.0005 58.6599H70.0005C70.0005 60.6036 69.2227 62.4739 67.8443 63.8484L70.6687 66.6808ZM62.6479 69.9993C65.6547 69.9993 68.5417 68.8019 70.6687 66.6808L67.8443 63.8484C66.4649 65.2239 64.5928 65.9993 62.6479 65.9993V69.9993ZM60.6094 69.9993H62.6479V65.9993L60.6094 65.9993V69.9993ZM60.455 66.0052C60.4985 66.0019 60.5424 66.0001 60.5865 66.0001V70.0001C60.6459 70.0001 60.7051 69.9978 60.7638 69.9933L60.455 66.0052ZM60.5865 66.0001H35.4157V70.0001H60.5865V66.0001ZM35.4157 66.0001C35.432 66.0001 35.448 66.0004 35.4636 66.0008L35.3511 69.9992C35.3723 69.9998 35.3939 70.0001 35.4157 70.0001V66.0001ZM33.3531 70H35.4074L35.4074 66L33.3531 66L33.3531 70ZM25.3323 66.6816C27.4593 68.8026 30.3463 70 33.3531 70V66C31.4082 66 29.536 65.2246 28.1567 63.8492L25.3323 66.6816ZM22.0005 58.6607C22.0005 61.6702 23.2034 64.5587 25.3323 66.6816L28.1567 63.8492C26.7782 62.4746 26.0005 60.6043 26.0005 58.6607H22.0005ZM25.3323 50.6397C23.2034 52.7626 22.0005 55.6512 22.0005 58.6607H26.0005C26.0005 56.717 26.7782 54.8467 28.1567 53.4722L25.3323 50.6397ZM31.6233 47.4542C29.2564 47.82 27.0476 48.9293 25.3323 50.6397L28.1567 53.4722C29.2684 52.3636 30.7009 51.6443 32.2342 51.4073L31.6233 47.4542ZM30.1717 48.071C30.0796 48.4202 30.0064 48.7727 29.952 49.1268L33.9055 49.7348C33.9388 49.5186 33.9834 49.3036 34.0395 49.0908L30.1717 48.071ZM34.9345 41.8382C32.5776 43.1951 30.8625 45.4509 30.1717 48.071L34.0395 49.0908C34.4598 47.4965 35.5052 46.1251 36.9302 45.3047L34.9345 41.8382ZM42.7217 40.8417C40.105 40.1294 37.2911 40.4814 34.9345 41.8382L36.9302 45.3047C38.3554 44.4842 40.0719 44.2659 41.671 44.7013L42.7217 40.8417ZM44.665 41.5884C44.0481 41.2768 43.3974 41.0257 42.7217 40.8417L41.671 44.7013C42.0844 44.8138 42.4832 44.9676 42.8618 45.1588L44.665 41.5884ZM42.645 41.3137L42.0326 42.3715L45.4942 44.3757L46.1067 43.3179L42.645 41.3137ZM51.1455 34.807C47.5612 35.7647 44.5028 38.105 42.645 41.3137L46.1067 43.3179C47.4325 41.028 49.6165 39.3559 52.178 38.6715L51.1455 34.807ZM61.7487 36.2011C58.5427 34.3554 54.7247 33.8507 51.1455 34.807L52.178 38.6715C54.7334 37.9887 57.4627 38.3491 59.7529 39.6676L61.7487 36.2011Z" fill="#9B51E0" />
</svg>