<svg viewBox="0 0 80 80" fill="none">
  <path fill-rule="evenodd" clip-rule="evenodd" d="M48.5599 20.4768C53.3138 18.5077 58.6552 18.5077 63.4091 20.4768C68.163 22.446 71.94 26.2229 73.9091 30.9768C74.3706 32.0911 74.724 33.2377 74.9692 34.4014H65.3706L60.9692 30L56.5678 34.4014H44.7746C44.1292 31.5477 43.2955 28.7411 42.2794 26H41.064C43.0592 23.5996 45.6231 21.6933 48.5599 20.4768Z" fill="#7AC70C" class="fill-green" />
  <path fill-rule="evenodd" clip-rule="evenodd" d="M35.6216 34.6593C36.1733 42.9693 35.1363 51.3165 32.558 59.2518C31.5815 62.2571 30.3914 65.1803 29 68.0001H43.6185C44.467 65.169 45.1263 62.28 45.59 59.3521C46.6763 52.4935 46.6763 45.5066 45.59 38.648C44.9875 34.844 44.055 31.1057 42.8061 27.4749L35.6216 34.6593Z" fill="#FF9100" class="fill-orange" />
  <path fill-rule="evenodd" clip-rule="evenodd" d="M31.4093 13.4768C26.6554 11.5077 21.314 11.5077 16.5601 13.4768C11.8062 15.446 8.02922 19.2229 6.06009 23.9768C5.59855 25.0911 5.24518 26.2377 5 27.4014H14.5986L19 23L22.7376 26.7376C23.4379 26.3386 24.166 25.9816 24.9185 25.6699C29.6724 23.7007 35.0138 23.7007 39.7677 25.6699C40.882 26.1314 41.9426 26.6923 42.9388 27.3418L42.8793 27.4014H42.9694C42.7242 26.2377 42.3709 25.0911 41.9093 23.9768C39.9402 19.2229 36.1632 15.446 31.4093 13.4768Z" fill="#7AC70C" class="fill-green" />
  <path fill-rule="evenodd" clip-rule="evenodd" d="M14.4187 36.1699C16.3878 31.416 20.1648 27.639 24.9187 25.6699C29.6726 23.7007 35.014 23.7007 39.7679 25.6699C40.8822 26.1314 41.9428 26.6923 42.939 27.3418L29.1023 41.1785L22.8779 41.1785V47.403L16.0906 54.1902C15.4411 53.194 14.8802 52.1334 14.4187 51.0191C12.4496 46.2652 12.4496 40.9238 14.4187 36.1699Z" fill="#7AC70C" class="fill-green" />
</svg>