<svg viewBox="0 0 80 80" fill="none">
  <path d="M50.2283 63.896C51.0365 70.2106 46.1169 75.8 39.7509 75.8C33.3856 75.8 28.4662 70.2118 29.2732 63.8979L33.1213 33.7919C33.1937 33.2248 33.6764 32.8 34.248 32.8H45.248C45.8198 32.8 46.3024 33.2248 46.375 33.7919L50.2283 63.896Z" fill="#7AC70C" />
  <path d="M33.752 38.8H45.752" stroke="#F4F4F4" stroke-width="4" stroke-linecap="square" />
  <path fill-rule="evenodd" clip-rule="evenodd" d="M34.352 32.7999H45.152C45.5269 32.7999 45.8769 32.6125 46.0849 32.3006L48.6099 28.513C50.5493 25.604 50.759 21.8723 49.1579 18.7643L42.3764 5.60002C41.8831 4.64261 40.752 5.30999 40.752 6.38697L40.752 18.5259C40.752 19.3107 41.2821 19.9871 41.7262 20.6342C41.7626 20.6874 41.7975 20.7426 41.8306 20.7999C42.7543 22.3999 41.5996 24.3999 39.7521 24.3999C37.9046 24.3999 36.7499 22.3999 37.6736 20.7999C37.7067 20.7426 37.7415 20.6874 37.778 20.6342C38.222 19.9872 38.752 19.3108 38.752 18.5261L38.752 6.38697C38.752 5.30998 37.6209 4.6426 37.1277 5.60002L30.3461 18.7643C28.745 21.8723 28.9548 25.604 30.8941 28.513L33.4192 32.3006C33.6271 32.6125 33.9772 32.7999 34.352 32.7999Z" fill="#FFC200" />
</svg>