<svg viewBox="0 0 80 80" fill="none">
  <path d="M54.1125 17.4336L25.6854 62.5691" stroke="#D33131" stroke-width="4" stroke-linecap="round" stroke-linejoin="round" />
  <path d="M25.0253 30.5519C22.2499 28.1037 22.2499 24.1345 25.0253 21.6864V21.6864C27.8006 19.2383 32.3004 19.2383 35.0758 21.6864V21.6864C37.8511 24.1345 37.8511 28.1037 35.0758 30.5519V30.5519C32.3004 33 27.8006 33 25.0253 30.5519V30.5519Z" stroke="#FF9100" stroke-width="4" stroke-linecap="round" stroke-linejoin="round" />
  <path d="M44.9242 58.3136C42.1488 55.8655 42.1488 51.8963 44.9242 49.4481V49.4481C47.6996 47 52.1993 47 54.9747 49.4481V49.4481C57.7501 51.8963 57.7501 55.8655 54.9747 58.3136V58.3136C52.1993 60.7617 47.6996 60.7617 44.9242 58.3136V58.3136Z" stroke="#FF9100" stroke-width="4" stroke-linecap="round" stroke-linejoin="round" />
</svg>