<svg viewBox="0 0 80 80" fill="none">
  <path fill-rule="evenodd" clip-rule="evenodd" d="M36.9043 25.5761C38.6028 25.0918 40.4034 25.095 42.0986 25.5824C44.3365 26.2258 46.2617 27.6744 47.4985 29.6513L48.8918 31.8784L48.9413 31.9575L48.987 32.0388L53.487 40.0388C54.5701 41.9643 53.8872 44.4031 51.9618 45.4862C50.0363 46.5692 47.5975 45.8864 46.5144 43.9609L45.0007 41.2699V45.4277L49.8382 61.8746C50.4615 63.9939 49.2488 66.2174 47.1294 66.8407C45.01 67.4641 42.7866 66.2513 42.1633 64.132L39.5007 55.0796L36.8382 64.132C36.2148 66.2513 33.9914 67.4641 31.872 66.8407C29.7526 66.2174 28.5399 63.9939 29.1633 61.8746L34.0007 45.4277V41.2712L32.4866 43.9617C31.4031 45.8869 28.9641 46.5692 27.0389 45.4858C25.1137 44.4023 24.4314 41.9633 25.5148 40.0381L30.0148 32.042L30.0553 31.9701L30.0987 31.9L31.4676 29.6863C32.7042 27.6865 34.6431 26.2207 36.9043 25.5761Z" fill="#FFC200" />
  <path d="M42.0986 25.5824L41.9604 26.0629L42.0986 25.5824ZM36.9043 25.5761L36.7672 25.0952L36.9043 25.5761ZM47.4985 29.6513L47.9223 29.3861V29.3861L47.4985 29.6513ZM48.8918 31.8784L48.4679 32.1436L48.8918 31.8784ZM48.9413 31.9575L49.377 31.7124L49.3713 31.7022L49.3651 31.6923L48.9413 31.9575ZM48.987 32.0388L49.4228 31.7937L49.4228 31.7937L48.987 32.0388ZM53.487 40.0388L53.9228 39.7937V39.7937L53.487 40.0388ZM51.9618 45.4862L52.2069 45.922L52.2069 45.922L51.9618 45.4862ZM46.5144 43.9609L46.0786 44.2061L46.5144 43.9609ZM45.0007 41.2699L45.4365 41.0248L44.5007 39.3612V41.2699H45.0007ZM45.0007 45.4277H44.5007V45.4997L44.521 45.5688L45.0007 45.4277ZM49.8382 61.8746L49.3585 62.0157L49.8382 61.8746ZM47.1294 66.8407L47.2705 67.3204L47.1294 66.8407ZM42.1633 64.132L41.6836 64.2731L42.1633 64.132ZM39.5007 55.0796L39.9804 54.9385L39.5007 53.3076L39.021 54.9385L39.5007 55.0796ZM36.8382 64.132L36.3585 63.9909L36.8382 64.132ZM31.872 66.8407L31.7309 67.3204L31.872 66.8407ZM29.1633 61.8746L29.6429 62.0157L29.1633 61.8746ZM34.0007 45.4277L34.4804 45.5688L34.5007 45.4997V45.4277H34.0007ZM34.0007 41.2712H34.5007V39.3633L33.565 41.026L34.0007 41.2712ZM32.4866 43.9617L32.0509 43.7164L32.4866 43.9617ZM27.0389 45.4858L26.7937 45.9215H26.7937L27.0389 45.4858ZM25.5148 40.0381L25.9506 40.2833L25.5148 40.0381ZM30.0148 32.042L29.5791 31.7968L30.0148 32.042ZM30.0553 31.9701L29.63 31.7072L29.6246 31.7159L29.6195 31.7249L30.0553 31.9701ZM30.0987 31.9L29.6734 31.637L29.6734 31.637L30.0987 31.9ZM31.4676 29.6863L31.8928 29.9493L31.4676 29.6863ZM42.2367 25.1018C40.4518 24.5886 38.5558 24.5853 36.7672 25.0952L37.0413 26.0569C38.6498 25.5984 40.355 25.6013 41.9604 26.0629L42.2367 25.1018ZM47.9223 29.3861C46.6201 27.3045 44.593 25.7793 42.2367 25.1018L41.9604 26.0629C44.08 26.6723 45.9033 28.0443 47.0746 29.9165L47.9223 29.3861ZM49.3157 31.6132L47.9223 29.3861L47.0746 29.9165L48.4679 32.1436L49.3157 31.6132ZM49.3651 31.6923L49.3157 31.6132L48.4679 32.1436L48.5174 32.2227L49.3651 31.6923ZM49.4228 31.7937L49.377 31.7124L48.5055 32.2026L48.5512 32.284L49.4228 31.7937ZM53.9228 39.7937L49.4228 31.7937L48.5512 32.284L53.0512 40.284L53.9228 39.7937ZM52.2069 45.922C54.373 44.7035 55.1412 41.9598 53.9228 39.7937L53.0512 40.284C53.9989 41.9687 53.4014 44.1027 51.7166 45.0504L52.2069 45.922ZM46.0786 44.2061C47.2971 46.3722 50.0408 47.1404 52.2069 45.922L51.7166 45.0504C50.0319 45.9981 47.8979 45.4006 46.9502 43.7158L46.0786 44.2061ZM44.5649 41.515L46.0786 44.2061L46.9502 43.7158L45.4365 41.0248L44.5649 41.515ZM45.5007 45.4277V41.2699H44.5007V45.4277H45.5007ZM50.3178 61.7335L45.4804 45.2867L44.521 45.5688L49.3585 62.0157L50.3178 61.7335ZM47.2705 67.3204C49.6548 66.6191 51.0191 64.1178 50.3178 61.7335L49.3585 62.0157C49.9039 63.8701 48.8428 65.8156 46.9883 66.361L47.2705 67.3204ZM41.6836 64.2731C42.3849 66.6573 44.8862 68.0217 47.2705 67.3204L46.9883 66.361C45.1339 66.9065 43.1884 65.8453 42.6429 63.9909L41.6836 64.2731ZM39.021 55.2207L41.6836 64.2731L42.6429 63.9909L39.9804 54.9385L39.021 55.2207ZM37.3178 64.2731L39.9804 55.2207L39.021 54.9385L36.3585 63.9909L37.3178 64.2731ZM31.7309 67.3204C34.1152 68.0217 36.6166 66.6573 37.3178 64.2731L36.3585 63.9909C35.813 65.8453 33.8675 66.9065 32.0131 66.361L31.7309 67.3204ZM28.6836 61.7335C27.9823 64.1178 29.3466 66.6191 31.7309 67.3204L32.0131 66.361C30.1587 65.8156 29.0975 63.8701 29.6429 62.0157L28.6836 61.7335ZM33.521 45.2867L28.6836 61.7335L29.6429 62.0157L34.4804 45.5688L33.521 45.2867ZM33.5007 41.2712V45.4277H34.5007V41.2712H33.5007ZM32.9223 44.2069L34.4364 41.5164L33.565 41.026L32.0509 43.7164L32.9223 44.2069ZM26.7937 45.9215C28.9596 47.1404 31.7034 46.3727 32.9223 44.2069L32.0509 43.7164C31.1028 45.401 28.9687 45.9981 27.2842 45.05L26.7937 45.9215ZM25.0791 39.7929C23.8602 41.9587 24.6279 44.7026 26.7937 45.9215L27.2842 45.05C25.5996 44.102 25.0025 41.9679 25.9506 40.2833L25.0791 39.7929ZM29.5791 31.7968L25.0791 39.7929L25.9506 40.2833L30.4506 32.2872L29.5791 31.7968ZM29.6195 31.7249L29.5791 31.7968L30.4506 32.2872L30.491 32.2154L29.6195 31.7249ZM29.6734 31.637L29.63 31.7072L30.4805 32.2331L30.5239 32.163L29.6734 31.637ZM31.0423 29.4233L29.6734 31.637L30.5239 32.163L31.8928 29.9493L31.0423 29.4233ZM36.7672 25.0952C34.3862 25.774 32.3445 27.3176 31.0423 29.4233L31.8928 29.9493C33.0639 28.0555 34.9001 26.6674 37.0413 26.0569L36.7672 25.0952Z" fill="#FFC200" />
  <path d="M37.6545 23.8705C39.1367 24.5843 40.8633 24.5843 42.3455 23.8705C43.8277 23.1567 44.9042 21.8068 45.2703 20.2029C45.6364 18.599 45.2522 16.9157 44.2264 15.6295C43.2007 14.3433 41.6451 13.5942 40 13.5942C38.3549 13.5942 36.7993 14.3433 35.7736 15.6295C34.7478 16.9157 34.3636 18.599 34.7297 20.2029C35.0958 21.8068 36.1723 23.1567 37.6545 23.8705Z" fill="#FF9100" stroke="#FF9100" stroke-width="4" stroke-linecap="round" stroke-linejoin="round" />
</svg>