<svg viewBox="0 0 80 80" fill="none">
  <path fill-rule="evenodd" clip-rule="evenodd" d="M27.201 45.0004C21.7337 50.4677 21.7337 59.3321 27.201 64.7994C32.6683 70.2667 41.5327 70.2667 47 64.7994L56.8995 54.8999L37.1005 35.1009L27.201 45.0004Z" fill="#D33131" class="fill-red" />
  <path d="M56.8995 54.8999L58.3137 56.3141C59.0948 55.5331 59.0948 54.2667 58.3137 53.4857L56.8995 54.8999ZM37.1005 35.1009L38.5147 33.6867C37.7337 32.9057 36.4673 32.9057 35.6863 33.6867L37.1005 35.1009ZM28.6152 63.3852C23.9289 58.6989 23.9289 51.1009 28.6152 46.4146L25.7868 43.5862C19.5384 49.8346 19.5384 59.9652 25.7868 66.2136L28.6152 63.3852ZM45.5858 63.3852C40.8995 68.0715 33.3015 68.0715 28.6152 63.3852L25.7868 66.2136C32.0352 72.462 42.1658 72.462 48.4142 66.2136L45.5858 63.3852ZM55.4853 53.4857L45.5858 63.3852L48.4142 66.2136L58.3137 56.3141L55.4853 53.4857ZM35.6863 36.5151L55.4853 56.3141L58.3137 53.4857L38.5147 33.6867L35.6863 36.5151ZM28.6152 46.4146L38.5147 36.5151L35.6863 33.6867L25.7868 43.5862L28.6152 46.4146Z" fill="#D2D2D2" class="fill-undefined" />
  <path fill-rule="evenodd" clip-rule="evenodd" d="M46.9999 25.2013C52.4673 19.7339 61.3316 19.7339 66.7989 25.2013C72.2662 30.6686 72.2662 39.5329 66.7989 45.0002L56.8994 54.8997L37.1004 35.1007L46.9999 25.2013Z" fill="#F4F4F4" class="fill-white" />
  <path d="M56.8994 54.8997L58.3136 56.314C57.5326 57.095 56.2662 57.095 55.4852 56.314L56.8994 54.8997ZM37.1004 35.1007L35.6862 36.515C34.9052 35.7339 34.9052 34.4676 35.6862 33.6865L37.1004 35.1007ZM65.3847 26.6155C60.6984 21.9292 53.1004 21.9292 48.4141 26.6155L45.5857 23.787C51.8341 17.5387 61.9647 17.5387 68.2131 23.787L65.3847 26.6155ZM65.3847 43.586C70.071 38.8997 70.071 31.3018 65.3847 26.6155L68.2131 23.787C74.4615 30.0354 74.4615 40.1661 68.2131 46.4145L65.3847 43.586ZM55.4852 53.4855L65.3847 43.586L68.2131 46.4145L58.3136 56.314L55.4852 53.4855ZM38.5146 33.6865L58.3136 53.4855L55.4852 56.314L35.6862 36.515L38.5146 33.6865ZM48.4141 26.6155L38.5146 36.515L35.6862 33.6865L45.5857 23.787L48.4141 26.6155Z" fill="#D2D2D2" class="fill-undefined" />
  <path fill-rule="evenodd" clip-rule="evenodd" d="M19.9998 11C23.1824 11 26.2348 12.2644 28.4853 14.5148C30.7356 16.7652 32 19.8175 32 23C32 26.1825 30.7356 29.2348 28.4853 31.4852C26.2348 33.7356 23.1824 35 19.9998 35C16.8173 35 13.765 33.7357 11.5147 31.4853C9.26426 29.235 8 26.1825 8 23C8 19.8175 9.26426 16.765 11.5146 14.5146C13.765 12.2643 16.8173 11 19.9998 11Z" fill="#F4F4F4" class="fill-white" />
  <path d="M12.9289 15.9289C14.8042 14.0535 17.3477 13 19.9998 13L19.9998 9C16.2869 9 12.7259 10.475 10.1004 13.1004L12.9289 15.9289ZM10 23C10 20.3479 11.0536 17.8042 12.9289 15.9289L10.1004 13.1004C7.47494 15.7259 6 19.2871 6 23L10 23ZM12.9289 30.0711C11.0536 28.1958 10 25.6521 10 23L6 23C6 26.7129 7.47494 30.2741 10.1004 32.8996L12.9289 30.0711ZM19.9998 33C17.3477 33 14.8042 31.9465 12.9289 30.0711L10.1004 32.8996C12.7259 35.525 16.2869 37 19.9998 37L19.9998 33ZM27.071 30.0709C25.1957 31.9463 22.652 33 19.9998 33L19.9998 37C23.7129 37 27.274 35.5249 29.8995 32.8994L27.071 30.0709ZM30 23C30 25.652 28.9464 28.1956 27.071 30.0709L29.8995 32.8994C32.5249 30.274 34 26.713 34 23L30 23ZM27.071 15.9291C28.9464 17.8044 30 20.348 30 23L34 23C34 19.287 32.5249 15.726 29.8995 13.1006L27.071 15.9291ZM29.8995 13.1006C27.274 10.4751 23.7129 9 19.9998 9L19.9998 13C22.652 13 25.1957 14.0537 27.071 15.9291L29.8995 13.1006Z" fill="#D2D2D2" class="fill-undefined" />
  <path fill-rule="evenodd" clip-rule="evenodd" d="M8.16779 21L31.8322 21C31.9432 21.6565 32 22.3253 32 23C32 23.6746 31.9432 24.3435 31.8322 25L8.16779 25C8.05681 24.3434 8 23.6746 8 23C8 22.3253 8.05681 21.6565 8.16779 21Z" fill="#D2D2D2" class="fill-undefined" />
</svg>