<svg viewBox="0 0 80 80" fill="none">
  <path d="M42 38.1224C42 37.0178 41.1046 36.1224 40 36.1224C38.8954 36.1224 38 37.0178 38 38.1224H42ZM38 65.998C38 67.1026 38.8954 67.998 40 67.998C41.1046 67.998 42 67.1026 42 65.998H38ZM38 38.1224L38 65.998H42L42 38.1224H38Z" fill="#606060" class="fill-grey" />
  <path d="M33.9378 15.5C37.6891 13.3342 42.3109 13.3342 46.0622 15.5C49.8135 17.6658 52.1244 21.6684 52.1244 26C52.1244 30.3316 49.8135 34.3342 46.0622 36.5C42.3109 38.6658 37.6891 38.6658 33.9378 36.5C30.1865 34.3342 27.8756 30.3316 27.8756 26C27.8756 21.6684 30.1865 17.6658 33.9378 15.5Z" fill="#7AC70C" stroke="#7AC70C" stroke-width="4" stroke-linecap="round" stroke-linejoin="round" class="fill-green stroke-green" />
</svg>