<svg viewBox="0 0 80 80" fill="none">
  <path fill-rule="evenodd" clip-rule="evenodd" d="M30 14C31.6569 14 33 15.3431 33 17V25C33 26.1046 32.1046 27 31 27H29C27.8954 27 27 26.1046 27 25V17C27 15.3431 28.3431 14 30 14ZM51 27C52.1046 27 53 26.1046 53 25V17C53 15.3431 51.6569 14 50 14C48.3431 14 47 15.3431 47 17V25C47 26.1046 47.8954 27 49 27H51Z" fill="#84D3FF" />
  <path d="M35 17C35 14.2386 32.7614 12 30 12V16C30.5523 16 31 16.4477 31 17H35ZM35 25V17H31V25H35ZM31 25H29L29 29H31L31 25ZM25 17V25H29V17H25ZM30 12C27.2386 12 25 14.2386 25 17H29C29 16.4477 29.4477 16 30 16V12ZM55 25V17H51V25L55 25ZM55 17C55 14.2386 52.7614 12 50 12V16C50.5523 16 51 16.4477 51 17H55ZM50 12C47.2386 12 45 14.2386 45 17H49C49 16.4477 49.4477 16 50 16V12ZM45 17V25H49V17H45ZM51 25H49V29H51V25ZM45 25C45 27.2091 46.7909 29 49 29V25H45ZM51 25V29C53.2091 29 55 27.2091 55 25L51 25ZM29 25H29H25C25 27.2091 26.7909 29 29 29L29 25ZM31 25L31 29C33.2091 29 35 27.2091 35 25H31Z" fill="#84D3FF" />
  <path d="M40 53V63" stroke="#7B61FF" stroke-width="4" stroke-linecap="round" stroke-linejoin="round" />
  <path fill-rule="evenodd" clip-rule="evenodd" d="M58.3409 35C59.2572 35 60 34.2572 60 33.3409V29C60 27.8954 59.1046 27 58 27H54.6059L25.3941 27H22C20.8954 27 20 27.8954 20 29V33.3409C20 34.2572 20.7428 35 21.6591 35C22.5754 35 23.3094 35.7448 23.4042 36.6562C23.5626 38.1784 23.9399 39.6833 24.5362 41.1229L24.7359 41.605C26.3598 45.5254 29.4746 48.6402 33.395 50.2641L33.8771 50.4638C37.7975 52.0877 42.2025 52.0877 46.1229 50.4638L46.605 50.2641C50.5254 48.6402 53.6402 45.5254 55.2641 41.605L55.4638 41.1229C56.0601 39.6834 56.4374 38.1784 56.5958 36.6562C56.6906 35.7448 57.4245 35 58.3409 35Z" fill="#7B61FF" />
  <path d="M24.5362 41.1229L26.384 40.3576V40.3576L24.5362 41.1229ZM24.7359 41.605L22.8881 42.3704L22.8881 42.3704L24.7359 41.605ZM33.395 50.2641L34.1604 48.4164H34.1604L33.395 50.2641ZM33.8771 50.4638L33.1117 52.3116H33.1117L33.8771 50.4638ZM46.1229 50.4638L45.3576 48.616H45.3576L46.1229 50.4638ZM46.605 50.2641L47.3703 52.1119H47.3704L46.605 50.2641ZM55.2641 41.605L57.1119 42.3704L57.1119 42.3704L55.2641 41.605ZM55.4638 41.1229L53.616 40.3576L53.616 40.3576L55.4638 41.1229ZM56.5958 36.6562L58.5851 36.8631L56.5958 36.6562ZM23.4042 36.6562L21.4149 36.8631L23.4042 36.6562ZM58 29V33.3409H62V29H58ZM54.6059 29H58V25H54.6059V29ZM25.3941 29L54.6059 29V25L25.3941 25V29ZM22 29H25.3941V25H22V29ZM22 33.3409V29H18V33.3409H22ZM26.384 40.3576C25.8622 39.0978 25.532 37.7811 25.3935 36.4492L21.4149 36.8631C21.5931 38.5757 22.0176 40.2688 22.6884 41.8883L26.384 40.3576ZM26.5836 40.8396L26.384 40.3576L22.6884 41.8883L22.8881 42.3704L26.5836 40.8396ZM34.1604 48.4164C30.73 46.9954 28.0045 44.27 26.5836 40.8396L22.8881 42.3704C24.715 46.7809 28.2191 50.285 32.6296 52.1119L34.1604 48.4164ZM34.6424 48.616L34.1604 48.4164L32.6296 52.1119L33.1117 52.3116L34.6424 48.616ZM45.3576 48.616C41.9272 50.037 38.0728 50.037 34.6424 48.616L33.1117 52.3116C37.5222 54.1384 42.4778 54.1384 46.8883 52.3116L45.3576 48.616ZM45.8396 48.4164L45.3576 48.616L46.8883 52.3116L47.3703 52.1119L45.8396 48.4164ZM53.4164 40.8396C51.9954 44.27 49.27 46.9954 45.8396 48.4164L47.3704 52.1119C51.7809 50.285 55.285 46.7809 57.1119 42.3704L53.4164 40.8396ZM53.616 40.3576L53.4164 40.8396L57.1119 42.3704L57.3116 41.8883L53.616 40.3576ZM54.6065 36.4492C54.468 37.7811 54.1378 39.0978 53.616 40.3576L57.3116 41.8883C57.9823 40.2689 58.4069 38.5757 58.5851 36.8631L54.6065 36.4492ZM58.5851 36.8631C58.5836 36.8771 58.5777 36.8978 58.5517 36.923C58.5368 36.9374 58.5113 36.9569 58.4727 36.9732C58.4324 36.9902 58.386 37 58.3409 37V33C56.274 33 54.7938 34.6494 54.6065 36.4492L58.5851 36.8631ZM22 25C19.7909 25 18 26.7909 18 29H22H22V25ZM21.6591 37C21.6139 37 21.5676 36.9902 21.5272 36.9732C21.4887 36.9569 21.4632 36.9374 21.4483 36.923C21.4223 36.8978 21.4164 36.8771 21.4149 36.8631L25.3935 36.4492C25.2062 34.6494 23.726 33 21.6591 33V37ZM58 33.3409C58 33.1526 58.1526 33 58.3409 33V37C60.3617 37 62 35.3617 62 33.3409H58ZM18 33.3409C18 35.3618 19.6383 37 21.6591 37V33C21.8474 33 22 33.1526 22 33.3409H18ZM62 29C62 26.7909 60.2091 25 58 25V29H58H62Z" fill="#7B61FF" />
</svg>