<svg viewBox="0 0 99 99" fill="none">
  <path d="M69.7813 44.3686C69.2254 43.4057 67.9942 43.0758 67.0313 43.6317C66.0685 44.1876 65.7386 45.4188 66.2945 46.3817L69.7813 44.3686ZM57.5525 65.6057C56.4407 65.6057 55.5394 66.507 55.5394 67.6188C55.5394 68.7306 56.4407 69.6319 57.5525 69.6319L57.5525 65.6057ZM75.6495 58.5588L73.9061 59.5654L75.6495 58.5588ZM70.4187 67.6188V65.6057V67.6188ZM66.2945 46.3817L73.9061 59.5654L77.3929 57.5523L69.7813 44.3686L66.2945 46.3817ZM70.4187 65.6057L57.5525 65.6057L57.5525 69.6319L70.4187 69.6319L70.4187 65.6057ZM77.3929 65.6054C78.8314 63.1137 78.8314 60.0439 77.3929 57.5523L73.9061 59.5654C74.6254 60.8113 74.6254 62.3463 73.9061 63.5923L77.3929 65.6054ZM73.9061 63.5923C73.1867 64.8382 71.8573 65.6057 70.4187 65.6057L70.4187 69.6319C73.2958 69.6319 75.9543 68.097 77.3929 65.6054L73.9061 63.5923Z" fill="#AEEE52" />
  <path d="M57.5584 62.4146L57.5584 72.8255C57.5584 73.8761 56.2882 74.4023 55.5453 73.6594L51.6412 69.7553C50.462 68.576 50.462 66.6641 51.6412 65.4848L55.5453 61.5807C56.2882 60.8378 57.5584 61.364 57.5584 62.4146Z" fill="#7AC70C" stroke="#7AC70C" stroke-width="4" stroke-linecap="round" stroke-linejoin="round" />
  <path d="M34.9148 34.5025C34.3589 35.4654 34.6888 36.6966 35.6516 37.2525C36.6145 37.8084 37.8457 37.4785 38.4016 36.5156L34.9148 34.5025ZM59.421 34.4744C59.9769 35.4372 61.2081 35.7671 62.171 35.2112C63.1339 34.6553 63.4638 33.4241 62.9079 32.4613L59.421 34.4744ZM44.2698 22.3254L46.0132 23.332L44.2698 22.3254ZM54.7314 22.3254L52.988 23.332L54.7314 22.3254ZM38.4016 36.5156L46.0132 23.332L42.5264 21.3188L34.9148 34.5025L38.4016 36.5156ZM52.988 23.332L59.421 34.4744L62.9079 32.4613L56.4748 21.3188L52.988 23.332ZM49.5006 17.2923C46.6235 17.2923 43.9649 18.8272 42.5264 21.3188L46.0132 23.332C46.7325 22.086 48.0619 21.3185 49.5006 21.3185L49.5006 17.2923ZM49.5006 21.3185C50.9392 21.3185 52.2686 22.086 52.988 23.332L56.4748 21.3188C55.0362 18.8272 52.3777 17.2923 49.5006 17.2923L49.5006 21.3185Z" fill="#AEEE52" />
  <path d="M56.6544 36.0648L65.6705 30.8593C66.5804 30.334 67.6712 31.171 67.3992 32.1858L65.9702 37.5189C65.5386 39.1298 63.8828 40.0858 62.2719 39.6541L56.9388 38.2251C55.924 37.9532 55.7446 36.5901 56.6544 36.0648Z" fill="#7AC70C" stroke="#7AC70C" stroke-width="4" stroke-linecap="round" stroke-linejoin="round" />
  <path d="M43.8042 69.6292C44.916 69.6292 45.8173 68.7279 45.8173 67.616C45.8173 66.5042 44.916 65.6029 43.8042 65.6029L43.8042 69.6292ZM31.5267 48.4202C32.0826 47.4573 31.7527 46.2261 30.7898 45.6702C29.827 45.1143 28.5958 45.4442 28.0399 46.4071L31.5267 48.4202ZM23.3502 58.556L25.0936 59.5626L23.3502 58.556ZM43.8042 65.6029L28.581 65.6029L28.581 69.6292L43.8042 69.6292L43.8042 65.6029ZM25.0936 59.5626L31.5267 48.4202L28.0399 46.4071L21.6068 57.5495L25.0936 59.5626ZM21.6068 65.6026C23.0454 68.0942 25.7039 69.6292 28.581 69.6292L28.581 65.6029C27.1423 65.6029 25.813 64.8354 25.0936 63.5895L21.6068 65.6026ZM25.0936 63.5895C24.3743 62.3436 24.3743 60.8085 25.0936 59.5626L21.6068 57.5495C20.1683 60.0411 20.1683 63.1109 21.6068 65.6026L25.0936 63.5895Z" fill="#AEEE52" />
  <path d="M34.2874 50.0209L25.2713 44.8154C24.3614 44.2901 24.5409 42.927 25.5557 42.6551L30.8888 41.2261C32.4997 40.7944 34.1555 41.7504 34.5871 43.3613L36.0161 48.6944C36.288 49.7092 35.1973 50.5462 34.2874 50.0209Z" fill="#7AC70C" stroke="#7AC70C" stroke-width="4" stroke-linecap="round" stroke-linejoin="round" />
</svg>