<svg viewBox="0 0 80 80" fill="none">
  <path fill-rule="evenodd" clip-rule="evenodd" d="M21 60.9512V66.9512C21 68.0557 21.8954 68.9512 23 68.9512H27C28.1046 68.9512 29 68.0557 29 66.9512V60.9512H21ZM51 60.9512V66.9512C51 68.0557 51.8954 68.9512 53 68.9512H57C58.1046 68.9512 59 68.0557 59 66.9512V60.9512H51Z" fill="#606060" class="fill-grey" />
  <path d="M21 60.9512V58.9512H19V60.9512H21ZM29 60.9512H31V58.9512H29V60.9512ZM51 60.9512V58.9512H49V60.9512H51ZM59 60.9512H61V58.9512H59V60.9512ZM19 60.9512V66.9512H23V60.9512H19ZM19 66.9512C19 69.1603 20.7909 70.9512 23 70.9512V66.9512H19ZM23 70.9512H27V66.9512H23V70.9512ZM27 70.9512C29.2091 70.9512 31 69.1603 31 66.9512H27V70.9512ZM31 66.9512V60.9512H27V66.9512H31ZM29 58.9512H21V62.9512H29V58.9512ZM49 60.9512V66.9512H53V60.9512H49ZM49 66.9512C49 69.1603 50.7909 70.9512 53 70.9512V66.9512H49ZM53 70.9512H57V66.9512H53V70.9512ZM57 70.9512C59.2091 70.9512 61 69.1603 61 66.9512H57V70.9512ZM61 66.9512V60.9512H57V66.9512H61ZM59 58.9512H51V62.9512H59V58.9512Z" fill="#606060" class="fill-grey" />
  <path fill-rule="evenodd" clip-rule="evenodd" d="M20 23.9512H16C14.8954 23.9512 14 24.8466 14 25.9512V33.9512C14 35.0557 14.8954 35.9512 16 35.9512H20V23.9512ZM60 35.9512H64C65.1046 35.9512 66 35.0557 66 33.9512V25.9512C66 24.8466 65.1046 23.9512 64 23.9512H60V35.9512Z" fill="#D2D2D2" class="fill-undefined" />
  <path d="M20 23.9512H22V21.9512H20V23.9512ZM20 35.9512V37.9512H22V35.9512H20ZM60 35.9512H58V37.9512H60V35.9512ZM60 23.9512V21.9512H58V23.9512H60ZM16 25.9512H20V21.9512H16V25.9512ZM16 25.9512V25.9512V21.9512C13.7909 21.9512 12 23.742 12 25.9512H16ZM16 33.9512V25.9512H12V33.9512H16ZM16 33.9512H16H12C12 36.1603 13.7909 37.9512 16 37.9512V33.9512ZM20 33.9512H16V37.9512H20V33.9512ZM22 35.9512V23.9512H18V35.9512H22ZM64 33.9512H60V37.9512H64V33.9512ZM64 33.9512V37.9512C66.2091 37.9512 68 36.1603 68 33.9512H64ZM64 25.9512V33.9512H68V25.9512H64ZM64 25.9512H68C68 23.742 66.2091 21.9512 64 21.9512V25.9512ZM60 25.9512H64V21.9512H60V25.9512ZM58 23.9512V35.9512H62V23.9512H58Z" fill="#D2D2D2" class="fill-undefined" />
  <path fill-rule="evenodd" clip-rule="evenodd" d="M59.0967 15.0591C59.6507 15.3058 60 15.8599 60 16.4663V36.9512C60 38.0557 59.1046 38.9512 58 38.9512H22C20.8954 38.9512 20 38.0557 20 36.9512V16.4663C20 15.8599 20.3493 15.3058 20.9033 15.0591C26.9141 12.3829 33.4203 11 40 11C46.5797 11 53.0859 12.3829 59.0967 15.0591Z" fill="#FFC200" class="fill-yellow" />
  <path d="M58 16.4663V36.9512H62V16.4663H58ZM58 36.9512H22V40.9512H58V36.9512ZM22 36.9512V16.4663H18V36.9512H22ZM40 9C33.14 9 26.3567 10.4418 20.0898 13.232L21.7168 16.8862C27.4715 14.324 33.7006 13 40 13V9ZM59.9102 13.232C53.6433 10.4418 46.86 9 40 9V13C46.2994 13 52.5285 14.324 58.2832 16.8862L59.9102 13.232ZM22 16.4663C22 16.6254 21.9063 16.8018 21.7168 16.8862L20.0898 13.232C18.7922 13.8098 18 15.0943 18 16.4663H22ZM22 36.9512H22H18C18 39.1603 19.7909 40.9512 22 40.9512V36.9512ZM58 36.9512V36.9512V40.9512C60.2091 40.9512 62 39.1603 62 36.9512H58ZM62 16.4663C62 15.0943 61.2078 13.8098 59.9102 13.232L58.2832 16.8862C58.0937 16.8018 58 16.6254 58 16.4663H62Z" fill="#FFC200" class="fill-yellow" />
  <rect x="20" y="22.9512" width="40" height="16" fill="#84D3FF" stroke="#84D3FF" stroke-width="4" stroke-linecap="square" class="fill-blue stroke-blue" />
  <path d="M16 44.9512C16 41.6375 18.6863 38.9512 22 38.9512H58C61.3137 38.9512 64 41.6375 64 44.9512V56.9512C64 59.1603 62.2091 60.9512 60 60.9512H20C17.7909 60.9512 16 59.1603 16 56.9512V44.9512Z" fill="#FFC200" stroke="#FFC200" stroke-width="4" stroke-linecap="square" class="fill-yellow stroke-yellow" />
  <path fill-rule="evenodd" clip-rule="evenodd" d="M26 46.9512C24.3431 46.9512 23 48.2943 23 49.9512C23 51.608 24.3431 52.9512 26 52.9512C27.6569 52.9512 29 51.608 29 49.9512C29 48.2943 27.6569 46.9512 26 46.9512ZM54 46.9512C52.3431 46.9512 51 48.2943 51 49.9512C51 51.608 52.3431 52.9512 54 52.9512C55.6569 52.9512 57 51.608 57 49.9512C57 48.2943 55.6569 46.9512 54 46.9512Z" fill="#D33131" class="fill-red" />
  <path d="M25 49.9512C25 49.3989 25.4477 48.9512 26 48.9512V44.9512C23.2386 44.9512 21 47.1897 21 49.9512H25ZM26 50.9512C25.4477 50.9512 25 50.5035 25 49.9512H21C21 52.7126 23.2386 54.9512 26 54.9512V50.9512ZM27 49.9512C27 50.5035 26.5523 50.9512 26 50.9512V54.9512C28.7614 54.9512 31 52.7126 31 49.9512H27ZM26 48.9512C26.5523 48.9512 27 49.3989 27 49.9512H31C31 47.1897 28.7614 44.9512 26 44.9512V48.9512ZM53 49.9512C53 49.3989 53.4477 48.9512 54 48.9512V44.9512C51.2386 44.9512 49 47.1897 49 49.9512H53ZM54 50.9512C53.4477 50.9512 53 50.5035 53 49.9512H49C49 52.7126 51.2386 54.9512 54 54.9512V50.9512ZM55 49.9512C55 50.5035 54.5523 50.9512 54 50.9512V54.9512C56.7614 54.9512 59 52.7126 59 49.9512H55ZM54 48.9512C54.5523 48.9512 55 49.3989 55 49.9512H59C59 47.1897 56.7614 44.9512 54 44.9512V48.9512Z" fill="#D33131" class="fill-red" />
</svg>