<svg viewBox="0 0 80 80" fill="none">
  <path fill-rule="evenodd" clip-rule="evenodd" d="M63.4534 67.7487L50.7249 55.0169C49.5542 53.8459 49.5544 51.9476 50.7252 50.7768C51.8963 49.6057 53.795 49.6058 54.9659 50.7771L67.6944 63.5089C68.865 64.6799 68.8649 66.5782 67.6941 67.749C66.523 68.9201 64.6243 68.92 63.4534 67.7487Z" fill="#F2C94C" />
  <path d="M50.7249 55.0169L52.1393 53.6028L50.7249 55.0169ZM63.4534 67.7487L64.8678 66.3347L63.4534 67.7487ZM50.7252 50.7768L49.311 49.3626L50.7252 50.7768ZM54.9659 50.7771L53.5515 52.1911L53.5515 52.1911L54.9659 50.7771ZM67.6944 63.5089L69.1088 62.0949V62.0949L67.6944 63.5089ZM67.6941 67.749L66.2799 66.3348V66.3348L67.6941 67.749ZM48.8593 46.0841C48.0782 45.3031 46.8119 45.3031 46.0309 46.0841C45.2498 46.8652 45.2498 48.1315 46.0309 48.9125L48.8593 46.0841ZM49.3101 52.1918C50.0912 52.9729 51.3575 52.9729 52.1386 52.1918C52.9196 51.4108 52.9196 50.1445 52.1386 49.3634L49.3101 52.1918ZM49.3104 52.1916C50.0915 52.9726 51.3578 52.9726 52.1389 52.1916C52.9199 51.4105 52.9199 50.1442 52.1389 49.3631L49.3104 52.1916ZM48.8596 46.0838C48.0785 45.3028 46.8122 45.3028 46.0311 46.0838C45.2501 46.8649 45.2501 48.1312 46.0311 48.9123L48.8596 46.0838ZM49.3105 56.4309L62.039 69.1628L64.8678 66.3347L52.1393 53.6028L49.3105 56.4309ZM49.311 49.3626C47.3592 51.3144 47.359 54.4788 49.3105 56.4309L52.1393 53.6028C51.7495 53.2129 51.7496 52.5808 52.1394 52.191L49.311 49.3626ZM56.3803 49.363C54.4283 47.4106 51.2632 47.4104 49.311 49.3626L52.1394 52.191C52.5294 51.801 53.1616 51.8011 53.5515 52.1911L56.3803 49.363ZM69.1088 62.0949L56.3803 49.363L53.5515 52.1911L66.28 64.923L69.1088 62.0949ZM69.1083 69.1632C71.0601 67.2114 71.0603 64.047 69.1088 62.0949L66.28 64.923C66.6698 65.3129 66.6697 65.945 66.2799 66.3348L69.1083 69.1632ZM62.039 69.1628C63.9909 71.1152 67.1561 71.1154 69.1083 69.1632L66.2799 66.3348C65.8899 66.7248 65.2577 66.7247 64.8678 66.3347L62.039 69.1628ZM46.0309 48.9125L49.3101 52.1918L52.1386 49.3634L48.8593 46.0841L46.0309 48.9125ZM52.1389 49.3631L48.8596 46.0838L46.0311 48.9123L49.3104 52.1916L52.1389 49.3631Z" fill="#F2C94C" />
  <path d="M15.5965 29.0688C17.3583 22.4939 22.4939 17.3584 29.0687 15.5966C35.6436 13.8349 42.6589 15.7147 47.4721 20.5278C52.2852 25.341 54.165 32.3563 52.4033 38.9312C50.6415 45.5061 45.506 50.6416 38.9311 52.4034C32.3562 54.1651 25.3409 52.2853 20.5277 47.4722C15.7146 42.659 13.8348 35.6437 15.5965 29.0688Z" fill="#2F80ED" />
  <path d="M20.7417 33.9973C20.7416 35.1019 21.637 35.9973 22.7416 35.9974C23.8462 35.9975 24.7416 35.1021 24.7417 33.9975L20.7417 33.9973ZM28.3698 24.2498L29.3698 25.9818L28.3698 24.2498ZM33.9968 24.7417C35.1014 24.7416 35.9967 23.846 35.9966 22.7415C35.9964 21.6369 35.1009 20.7416 33.9963 20.7417L33.9968 24.7417ZM24.7417 33.9975C24.7419 30.6907 26.5061 27.6352 29.3698 25.9818L27.3698 22.5177C23.2685 24.8856 20.7419 29.2616 20.7417 33.9973L24.7417 33.9975ZM33.9963 20.7417C31.7086 20.742 29.42 21.334 27.3698 22.5177L29.3698 25.9818C30.8015 25.1552 32.3987 24.7419 33.9968 24.7417L33.9963 20.7417Z" fill="#F2F2F2" />
</svg>