<svg viewBox="0 0 80 80" fill="none">
  <path fill-rule="evenodd" clip-rule="evenodd" d="M55.8545 34.3421C58.2157 35.2866 59.4918 37.853 58.8198 40.3057L55.8629 51.0982C53.3646 50.858 50.8102 51.3721 48.5517 52.6404C47.795 53.0653 46.8716 53.0653 46.1148 52.6404C42.3172 50.5077 37.6827 50.5077 33.885 52.6404C33.1283 53.0653 32.2049 53.0653 31.4482 52.6404C29.1894 51.3719 26.6346 50.8579 24.1359 51.0983L21.179 40.3057C20.5071 37.853 21.7832 35.2866 24.1444 34.3421L38.1425 28.7429C39.3345 28.266 40.6643 28.266 41.8564 28.7429L55.8545 34.3421Z" fill="#2F80ED" />
  <path fill-rule="evenodd" clip-rule="evenodd" d="M37.9995 28.3853V31.3491L37.9995 51.202C39.3239 50.9872 40.6751 50.9872 41.9995 51.2018L41.9995 31.3491V28.3853H37.9995Z" fill="#F2F2F2" />
  <path fill-rule="evenodd" clip-rule="evenodd" d="M33.4995 16C32.6711 16 31.9995 16.6716 31.9995 17.5V21.4V22H33.9995H45.9995H47.9995V21.4V17.5C47.9995 16.6716 47.3279 16 46.4995 16H45.7138H43.4281H36.5709H34.2852H33.4995Z" fill="#EB5757" />
  <path fill-rule="evenodd" clip-rule="evenodd" d="M25.9995 24.5C25.9995 23.1193 27.1188 22 28.4995 22H29.9995H33.9995H45.9995H49.9995H51.4995C52.8802 22 53.9995 23.1193 53.9995 24.5V31V32V33.6004L41.8565 28.7431C40.6644 28.2663 39.3346 28.2663 38.1426 28.7431L25.9995 33.6004V32V31V24.5Z" fill="#F2F2F2" />
  <path d="M21.6667 56.0001L20.6874 54.2563H20.6874L21.6667 56.0001ZM29.0001 56.0001L29.9794 54.2563V54.2563L29.0001 56.0001ZM16.5341 54.76C15.4697 54.465 14.3676 55.0888 14.0726 56.1532C13.7777 57.2177 14.4014 58.3197 15.4659 58.6147L16.5341 54.76ZM36.3334 56.0001L35.3541 54.2563V54.2563L36.3334 56.0001ZM43.6667 56.0001L42.6874 57.744L42.6874 57.744L43.6667 56.0001ZM51.0001 56.0001L50.0208 54.2563L51.0001 56.0001ZM58.3334 56.0001L59.3127 54.2563V54.2563L58.3334 56.0001ZM64.5341 58.6148C65.5985 58.3198 66.2223 57.2178 65.9274 56.1533C65.6324 55.0889 64.5304 54.4651 63.4659 54.76L64.5341 58.6148ZM22.646 57.744C24.315 56.8067 26.3518 56.8067 28.0208 57.744L29.9794 54.2563C27.094 52.6359 23.5728 52.6359 20.6874 54.2563L22.646 57.744ZM20.6874 54.2563C19.4089 54.9743 17.9142 55.1424 16.5341 54.76L15.4659 58.6147C17.8509 59.2756 20.4349 58.9857 22.646 57.744L20.6874 54.2563ZM37.3127 57.744C38.9817 56.8067 41.0184 56.8067 42.6874 57.744L44.646 54.2563C41.7606 52.6359 38.2395 52.6359 35.3541 54.2563L37.3127 57.744ZM35.3541 54.2563C33.6851 55.1935 31.6484 55.1935 29.9794 54.2563L28.0208 57.744C30.9062 59.3643 34.4273 59.3643 37.3127 57.744L35.3541 54.2563ZM51.9794 57.744C53.6484 56.8067 55.6851 56.8067 57.3541 57.744L59.3127 54.2563C56.4273 52.6359 52.9062 52.6359 50.0208 54.2563L51.9794 57.744ZM50.0208 54.2563C48.3518 55.1935 46.315 55.1935 44.646 54.2563L42.6874 57.744C45.5728 59.3643 49.094 59.3643 51.9794 57.744L50.0208 54.2563ZM63.4659 54.76C62.0858 55.1424 60.5912 54.9742 59.3127 54.2563L57.3541 57.744C59.5651 58.9856 62.1491 59.2756 64.5341 58.6148L63.4659 54.76Z" fill="#56CCF2" />
  <path d="M23.6441 59.1925C22.5572 59.3891 21.8354 60.4296 22.0319 61.5165C22.2285 62.6034 23.269 63.3252 24.3559 63.1287L23.6441 59.1925ZM29.0001 62.0001L29.9794 60.2563L29.9794 60.2563L29.0001 62.0001ZM36.3334 62.0001L37.3127 63.744H37.3127L36.3334 62.0001ZM43.6667 62.0001L42.6874 63.744L42.6874 63.744L43.6667 62.0001ZM51.0001 62.0001L50.0208 60.2563V60.2563L51.0001 62.0001ZM55.6441 63.1286C56.7311 63.3252 57.7715 62.6034 57.9681 61.5164C58.1646 60.4295 57.4428 59.389 56.3559 59.1925L55.6441 63.1286ZM24.3559 63.1287C25.5946 62.9047 26.8919 63.11 28.0208 63.744L29.9794 60.2563C28.027 59.1599 25.7838 58.8056 23.6441 59.1925L24.3559 63.1287ZM37.3127 63.744C38.9817 62.8067 41.0184 62.8067 42.6874 63.744L44.646 60.2563C41.7606 58.6359 38.2395 58.6359 35.3541 60.2563L37.3127 63.744ZM35.3541 60.2563C33.6851 61.1935 31.6484 61.1935 29.9794 60.2563L28.0208 63.744C30.9062 65.3643 34.4273 65.3643 37.3127 63.744L35.3541 60.2563ZM51.9794 63.744C53.1082 63.11 54.4055 62.9047 55.6441 63.1286L56.3559 59.1925C54.2162 58.8056 51.973 59.1599 50.0208 60.2563L51.9794 63.744ZM50.0208 60.2563C48.3518 61.1935 46.315 61.1935 44.646 60.2563L42.6874 63.744C45.5728 65.3643 49.094 65.3643 51.9794 63.744L50.0208 60.2563Z" fill="#56CCF2" />
</svg>