<svg viewBox="0 0 80 80" fill="none">
  <path d="M33.6085 15.0162C32.8004 14.2631 31.5349 14.3076 30.7818 15.1156C30.0287 15.9236 30.0732 17.1892 30.8812 17.9423L33.6085 15.0162ZM40.0035 23.7107L38.6399 25.1737C39.408 25.8897 40.599 25.8897 41.3671 25.1737L40.0035 23.7107ZM26.0413 31.7718L26.6265 33.6842C27.6306 33.377 28.2261 32.3456 27.9901 31.3224L26.0413 31.7718ZM25.6068 20.9874C25.3586 19.9111 24.2849 19.2398 23.2086 19.488C22.1323 19.7362 21.4609 20.81 21.7091 21.8863L25.6068 20.9874ZM49.1236 17.9443C49.9316 17.1912 49.9761 15.9256 49.223 15.1176C48.4699 14.3096 47.2044 14.2651 46.3963 15.0182L49.1236 17.9443ZM58.2972 21.8892C58.5454 20.8128 57.874 19.7391 56.7977 19.4909C55.7214 19.2427 54.6477 19.914 54.3995 20.9903L58.2972 21.8892ZM53.9657 31.7718L52.0168 31.3224C51.7809 32.3456 52.3764 33.377 53.3805 33.6842L53.9657 31.7718ZM63.6642 36.8311C64.7204 37.1543 65.8386 36.5601 66.1618 35.5038C66.485 34.4476 65.8908 33.3294 64.8346 33.0061L63.6642 36.8311ZM64.8346 46.6596C65.8908 46.3363 66.485 45.2181 66.1618 44.1619C65.8386 43.1056 64.7204 42.5114 63.6642 42.8346L64.8346 46.6596ZM53.9657 47.8939L53.3805 45.9815C52.3764 46.2887 51.7809 47.3202 52.0168 48.3433L53.9657 47.8939ZM54.4681 58.9729C54.7163 60.0492 55.79 60.7206 56.8663 60.4723C57.9427 60.2241 58.614 59.1504 58.3658 58.0741L54.4681 58.9729ZM46.6197 64.8557C47.4277 65.6088 48.6933 65.5643 49.4464 64.7563C50.1995 63.9482 50.155 62.6827 49.347 61.9296L46.6197 64.8557ZM40.0035 55.955L41.3671 54.492C40.599 53.776 39.408 53.776 38.6398 54.492L40.0035 55.955ZM30.6578 61.9316C29.8498 62.6847 29.8053 63.9503 30.5584 64.7583C31.3116 65.5663 32.5771 65.6108 33.3851 64.8577L30.6578 61.9316ZM21.6405 58.0769C21.3923 59.1533 22.0636 60.227 23.14 60.4752C24.2163 60.7234 25.29 60.0521 25.5382 58.9758L21.6405 58.0769ZM26.0413 47.8939L27.9901 48.3433C28.2261 47.3202 27.6306 46.2887 26.6265 45.9815L26.0413 47.8939ZM16.3372 42.8329C15.2809 42.5097 14.1627 43.1039 13.8395 44.1601C13.5163 45.2164 14.1105 46.3346 15.1667 46.6578L16.3372 42.8329ZM15.1667 33.0079C14.1105 33.3311 13.5163 34.4493 13.8395 35.5056C14.1627 36.5618 15.2809 37.156 16.3372 36.8328L15.1667 33.0079ZM30.8812 17.9423L38.6399 25.1737L41.3671 22.2477L33.6085 15.0162L30.8812 17.9423ZM27.9901 31.3224L25.6068 20.9874L21.7091 21.8863L24.0924 32.2212L27.9901 31.3224ZM41.3671 25.1737L49.1236 17.9443L46.3963 15.0182L38.6399 22.2477L41.3671 25.1737ZM54.3995 20.9903L52.0168 31.3224L55.9145 32.2212L58.2972 21.8892L54.3995 20.9903ZM53.3805 33.6842L63.6642 36.8311L64.8346 33.0061L54.5509 29.8593L53.3805 33.6842ZM63.6642 42.8346L53.3805 45.9815L54.5509 49.8064L64.8346 46.6596L63.6642 42.8346ZM52.0168 48.3433L54.4681 58.9729L58.3658 58.0741L55.9145 47.4445L52.0168 48.3433ZM49.347 61.9296L41.3671 54.492L38.6398 57.4181L46.6197 64.8557L49.347 61.9296ZM38.6398 54.492L30.6578 61.9316L33.3851 64.8577L41.3671 57.4181L38.6398 54.492ZM25.5382 58.9758L27.9901 48.3433L24.0924 47.4445L21.6405 58.0769L25.5382 58.9758ZM26.6265 45.9815L16.3372 42.8329L15.1667 46.6578L25.4561 49.8064L26.6265 45.9815ZM16.3372 36.8328L26.6265 33.6842L25.4561 29.8593L15.1667 33.0079L16.3372 36.8328Z" fill="#84D3FF" />
  <path d="M39.9999 12L41.9999 11.998C41.9988 10.8942 41.1037 10 39.9999 10C38.8961 10 38.001 10.8942 37.9999 11.998L39.9999 12ZM64.2486 26L65.2504 27.731C66.2057 27.1782 66.5326 25.9559 65.9807 25C65.4288 24.0441 64.2068 23.716 63.2504 24.2669L64.2486 26ZM64.2486 54L63.2504 55.7331C64.2068 56.284 65.4288 55.9559 65.9807 55C66.5326 54.0441 66.2057 52.8218 65.2504 52.269L64.2486 54ZM39.9999 68L37.9999 68.002C38.001 69.1058 38.8961 70 39.9999 70C41.1037 70 41.9988 69.1058 41.9999 68.002L39.9999 68ZM15.7512 54L14.7495 52.269C13.7941 52.8218 13.4673 54.0441 14.0192 55C14.5711 55.9559 15.793 56.284 16.7495 55.7331L15.7512 54ZM15.7512 26L16.7495 24.2669C15.793 23.716 14.5711 24.0441 14.0192 25C13.4673 25.9559 13.7941 27.1782 14.7495 27.731L15.7512 26ZM33.9823 36.5014L34.9806 34.7684L33.9823 36.5014ZM33.9823 43.4986L34.9806 45.2317L33.9823 43.4986ZM46.0175 43.4986L45.0193 45.2317L46.0175 43.4986ZM40.021 46.9607L38.021 46.9587L40.021 46.9607ZM46.0386 36.5379L45.0369 34.8069L46.0386 36.5379ZM46.0386 43.4621L45.0369 45.1931L46.0386 43.4621ZM40.021 33.0393L38.021 33.0413L40.021 33.0393ZM46.0175 36.5014L45.0193 34.7683L46.0175 36.5014ZM37.9999 12.002L38.021 33.0413L42.021 33.0373L41.9999 11.998L37.9999 12.002ZM47.0158 38.2345L65.2469 27.7331L63.2504 24.2669L45.0193 34.7683L47.0158 38.2345ZM63.2469 24.269L45.0369 34.8069L47.0403 38.269L65.2504 27.731L63.2469 24.269ZM45.0369 45.1931L63.2469 55.731L65.2504 52.269L47.0403 41.731L45.0369 45.1931ZM65.2469 52.2669L47.0158 41.7655L45.0193 45.2317L63.2504 55.7331L65.2469 52.2669ZM38.021 46.9587L37.9999 67.998L41.9999 68.002L42.021 46.9627L38.021 46.9587ZM41.9999 67.998L41.9789 46.9587L37.9789 46.9627L37.9999 68.002L41.9999 67.998ZM32.9841 41.7655L14.753 52.2669L16.7495 55.7331L34.9806 45.2317L32.9841 41.7655ZM16.753 55.731L34.963 45.1931L32.9595 41.731L14.7495 52.269L16.753 55.731ZM34.963 34.8069L16.753 24.269L14.7495 27.731L32.9595 38.269L34.963 34.8069ZM14.753 27.7331L32.9841 38.2345L34.9806 34.7684L16.7495 24.2669L14.753 27.7331ZM41.9789 33.0413L41.9999 12.002L37.9999 11.998L37.9789 33.0373L41.9789 33.0413ZM32.9841 38.2345C36.9818 40.5372 41.9742 37.6548 41.9789 33.0413L37.9789 33.0373C37.9773 34.5751 36.3132 35.5359 34.9806 34.7684L32.9841 38.2345ZM34.963 45.1931C38.9561 42.8824 38.956 37.1176 34.963 34.8069L32.9595 38.269C34.2905 39.0392 34.2905 40.9608 32.9595 41.731L34.963 45.1931ZM41.9789 46.9587C41.9742 42.3452 36.9817 39.4628 32.9841 41.7655L34.9806 45.2317C36.3132 44.4641 37.9773 45.4249 37.9789 46.9627L41.9789 46.9587ZM47.0158 41.7655C43.0181 39.4628 38.0256 42.3452 38.021 46.9587L42.021 46.9627C42.0225 45.4249 43.6867 44.4641 45.0193 45.2317L47.0158 41.7655ZM45.0369 34.8069C41.0438 37.1176 41.0438 42.8824 45.0369 45.1931L47.0403 41.731C45.7093 40.9608 45.7093 39.0392 47.0403 38.269L45.0369 34.8069ZM38.021 33.0413C38.0256 37.6548 43.0181 40.5372 47.0158 38.2345L45.0193 34.7683C43.6867 35.5359 42.0225 34.5751 42.021 33.0373L38.021 33.0413Z" fill="#1CB0F6" />
</svg>