<svg viewBox="0 0 80 80" fill="none">
  <path fill-rule="evenodd" clip-rule="evenodd" d="M39.9999 11.3669C39.2399 11.3669 38.4799 11.7852 38.144 12.6216L32.1918 27.4438C31.9058 28.1562 31.2371 28.642 30.4712 28.6939L14.5352 29.7745C12.7365 29.8964 12.0047 32.1488 13.3881 33.3047L25.6455 43.5458C26.2346 44.0381 26.49 44.8241 26.3027 45.5686L22.4059 61.0586C21.9661 62.8069 23.882 64.1989 25.4089 63.2404L38.9365 54.7476C39.2616 54.5435 39.6308 54.4414 39.9999 54.4414L39.9999 11.3669Z" fill="#F2994A" />
  <path fill-rule="evenodd" clip-rule="evenodd" d="M39.9997 25.6836C39.6197 25.6836 39.2397 25.8927 39.0718 26.3109L36.0957 33.722C35.9526 34.0782 35.6183 34.3211 35.2353 34.3471L27.2673 34.8874C26.368 34.9483 26.0021 36.0745 26.6938 36.6525L32.8225 41.773C33.1171 42.0192 33.2448 42.4122 33.1511 42.7844L31.2027 50.5294C30.9828 51.4036 31.9408 52.0996 32.7042 51.6203L39.468 47.3739C39.6306 47.2719 39.8151 47.2208 39.9997 47.2208V25.6836Z" fill="#F2C94C" />
</svg>