<svg viewBox="0 0 80 80" fill="none">
  <path fill-rule="evenodd" clip-rule="evenodd" d="M12 40.0004C12 32.5744 14.9503 25.4521 20.2013 20.2011C25.4522 14.9502 32.5741 12 40 12C47.4259 12 54.5478 14.9502 59.7987 20.2011C65.0497 25.4521 68 32.5744 68 40.0004C68 47.4264 65.0501 54.5482 59.7992 59.7991C54.5482 65.0501 47.4259 68 40 68C32.5741 68 25.4518 65.0501 20.2008 59.7991C14.9499 54.5482 12 47.4264 12 40.0004Z" fill="#F2F2F2" />
  <path fill-rule="evenodd" clip-rule="evenodd" d="M38 67.9285V12.0715C38.6634 12.024 39.3305 12 40 12C40.6695 12 41.3366 12.024 42 12.0715V67.9285C41.3366 67.976 40.6695 68 40 68C39.3305 68 38.6634 67.976 38 67.9285Z" fill="#828282" />
</svg>