<svg viewBox="0 0 80 80" fill="none">
  <path fill-rule="evenodd" clip-rule="evenodd" d="M70.9014 39.3727C71.7338 38.6466 71.8233 37.3796 71.0592 36.582C69.7398 35.2046 68.3265 33.9131 66.8274 32.7176C61.789 28.6996 55.91 25.8684 49.6271 24.4344C43.3443 23.0004 36.8191 23.0004 30.5362 24.4344C24.2534 25.8684 18.3744 28.6996 13.3359 32.7176C11.7719 33.9649 10.3013 35.3166 8.93331 36.7613C8.17385 37.5634 8.2707 38.8298 9.10728 39.5511L28.361 56.1508C29.1976 56.8721 30.4521 56.765 31.2892 56.0443C32.2406 55.2251 33.3043 54.5407 34.4509 54.0134C36.205 53.2066 38.112 52.7862 40.0427 52.7806C41.9735 52.775 43.8829 53.1844 45.6416 53.9811C46.7912 54.5018 47.8589 55.18 48.815 55.9937C49.6562 56.7096 50.9113 56.8094 51.7437 56.0833L70.9014 39.3727Z" fill="#F2F2F2" />
  <path d="M66.8274 32.7176L65.5804 34.2813V34.2813L66.8274 32.7176ZM49.6271 24.4344L49.1821 26.3843L49.6271 24.4344ZM30.5362 24.4344L30.0912 22.4845L30.5362 24.4344ZM13.3359 32.7176L12.089 31.154L13.3359 32.7176ZM34.4509 54.0134L33.6152 52.1964L34.4509 54.0134ZM40.0427 52.7806L40.037 50.7806L40.0427 52.7806ZM48.815 55.9937L50.1112 54.4706L48.815 55.9937ZM51.7437 56.0833L53.0583 57.5905L51.7437 56.0833ZM8.93331 36.7613L7.48106 35.3862L8.93331 36.7613ZM28.361 56.1508L27.0551 57.6656L28.361 56.1508ZM31.2892 56.0443L29.9842 54.5287L31.2892 56.0443ZM65.5804 34.2813C67.0097 35.4211 68.357 36.6523 69.6149 37.9655L72.5035 35.1985C71.1226 33.7569 69.6434 32.4052 68.0744 31.154L65.5804 34.2813ZM49.1821 26.3843C55.172 27.7514 60.7769 30.4506 65.5804 34.2813L68.0744 31.154C62.801 26.9486 56.6479 23.9854 50.0722 22.4845L49.1821 26.3843ZM30.9813 26.3843C36.9712 25.0171 43.1922 25.0171 49.1821 26.3843L50.0722 22.4845C43.4964 20.9837 36.667 20.9837 30.0912 22.4845L30.9813 26.3843ZM14.5829 34.2813C19.3865 30.4506 24.9914 27.7514 30.9813 26.3843L30.0912 22.4845C23.5154 23.9854 17.3623 26.9486 12.089 31.154L14.5829 34.2813ZM10.3856 38.1365C11.6898 36.7591 13.0918 35.4704 14.5829 34.2813L12.089 31.154C10.452 32.4594 8.91289 33.8741 7.48106 35.3862L10.3856 38.1365ZM7.80132 41.0658L27.0551 57.6656L29.667 54.6361L10.4132 38.0363L7.80132 41.0658ZM32.5942 57.5599C33.4044 56.8623 34.3102 56.2795 35.2866 55.8304L33.6152 52.1964C32.2984 52.802 31.0768 53.5879 29.9842 54.5287L32.5942 57.5599ZM35.2866 55.8304C36.7804 55.1434 38.4043 54.7854 40.0485 54.7806L40.037 50.7806C37.8197 50.787 35.6296 51.2698 33.6152 52.1964L35.2866 55.8304ZM40.0485 54.7806C41.6927 54.7759 43.3187 55.1245 44.8164 55.8029L46.4668 52.1593C44.447 51.2444 42.2543 50.7742 40.037 50.7806L40.0485 54.7806ZM44.8164 55.8029C45.7953 56.2463 46.7045 56.8239 47.5188 57.5168L50.1112 54.4706C49.0132 53.5361 47.787 52.7573 46.4668 52.1593L44.8164 55.8029ZM53.0583 57.5905L72.216 40.8799L69.5867 37.8655L50.429 54.5761L53.0583 57.5905ZM47.5188 57.5168C48.9725 58.754 51.3476 59.0828 53.0583 57.5905L50.429 54.5761C50.4285 54.5765 50.4302 54.5758 50.4281 54.5765C50.4238 54.5779 50.4061 54.5828 50.3731 54.5813C50.2998 54.578 50.1984 54.5449 50.1112 54.4706L47.5188 57.5168ZM7.48106 35.3862C5.89457 37.0617 6.14789 39.6403 7.80132 41.0658L10.4132 38.0363C10.4102 38.0337 10.4164 38.0389 10.4173 38.0533C10.4178 38.0609 10.4172 38.0746 10.411 38.0926C10.404 38.1125 10.3933 38.1283 10.3856 38.1365L7.48106 35.3862ZM27.0551 57.6656C28.7745 59.1479 31.1476 58.8054 32.5942 57.5599L29.9842 54.5287C29.8974 54.6035 29.7962 54.6371 29.7229 54.6409C29.6899 54.6426 29.6722 54.6378 29.6679 54.6364C29.6658 54.6357 29.6675 54.6365 29.667 54.6361L27.0551 57.6656ZM69.6149 37.9655C69.6072 37.9573 69.5963 37.9416 69.5893 37.9218C69.5829 37.9038 69.5822 37.8901 69.5827 37.8824C69.5835 37.8681 69.5897 37.8628 69.5867 37.8655L72.216 40.8799C73.8612 39.4448 74.0996 36.8648 72.5035 35.1985L69.6149 37.9655Z" fill="#BDBDBD" />
  <path d="M16.8809 36.7414L18.4987 35.5656C18.1852 35.1342 17.7123 34.8459 17.1852 34.7647C16.6581 34.6836 16.1204 34.8163 15.6916 35.1334L16.8809 36.7414ZM16.8755 36.7454L15.6859 35.1377C14.8035 35.7906 14.6122 37.0326 15.2573 37.9207L16.8755 36.7454ZM18.0567 38.3594L19.2469 39.9667C20.129 39.3135 20.3199 38.0714 19.6746 37.1835L18.0567 38.3594ZM18.0509 38.3637L16.4326 39.539C16.7462 39.9708 17.2194 40.2594 17.7469 40.3405C18.2743 40.4216 18.8123 40.2885 19.2412 39.9709L18.0509 38.3637ZM62.5844 36.3529L64.2026 37.5282C64.516 37.0967 64.6441 36.5579 64.5584 36.0315C64.4727 35.5051 64.1804 35.0348 63.7463 34.725L62.5844 36.3529ZM61.4091 37.9712L60.2482 39.5998C61.142 40.2369 62.3823 40.0346 63.0273 39.1465L61.4091 37.9712ZM61.4032 37.967L59.7854 36.7912C59.4716 37.2229 59.3434 37.7622 59.4293 38.289C59.5153 38.8158 59.8082 39.2864 60.2429 39.596L61.4032 37.967ZM62.5791 36.3491L63.741 34.7212C62.8474 34.0834 61.6067 34.2852 60.9613 35.1733L62.5791 36.3491ZM51.6437 30.9053L53.5459 31.523C53.7107 31.0153 53.6658 30.4628 53.4211 29.9884C53.1764 29.514 52.7522 29.1571 52.2429 28.9971L51.6437 30.9053ZM51.6374 30.9033L52.2363 28.9951C51.19 28.6667 50.0744 29.2421 49.7354 30.285L51.6374 30.9033ZM51.0259 32.8076L50.4283 34.7162C51.4745 35.0438 52.5895 34.4681 52.9281 33.4253L51.0259 32.8076ZM51.019 32.8054L49.117 32.1871C48.9518 32.6952 48.9968 33.2482 49.2419 33.723C49.487 34.1977 49.9119 34.5546 50.4217 34.7142L51.019 32.8054ZM39.5907 29.123L41.5907 29.1227C41.5906 28.5887 41.377 28.0769 40.9973 27.7013C40.6177 27.3257 40.1037 27.1175 39.5697 27.1232L39.5907 29.123ZM39.5841 29.1231L39.5627 27.1232C38.4667 27.135 37.5843 28.0267 37.5841 29.1228L39.5841 29.1231ZM39.5838 31.1232L37.5838 31.1229C37.5837 31.6573 37.7975 32.1695 38.1774 32.5453C38.5574 32.921 39.0719 33.1291 39.6063 33.1231L39.5838 31.1232ZM39.591 31.1232L39.6131 33.123C40.7091 33.1109 41.5912 32.2189 41.591 31.1228L39.591 31.1232ZM27.6162 31.1458L29.5183 30.5275C29.3532 30.0198 28.992 29.5991 28.5151 29.3592C28.0382 29.1192 27.4852 29.0799 26.9791 29.25L27.6162 31.1458ZM28.2346 33.0479L28.8729 34.9433C29.9119 34.5934 30.4756 33.4722 30.1366 32.4296L28.2346 33.0479ZM27.6099 31.1479L26.9725 29.2522C25.9332 29.6017 25.3691 30.7228 25.7077 31.7657L27.6099 31.1479ZM28.2277 33.0502L26.3255 33.668C26.4905 34.1761 26.8519 34.597 27.3292 34.837C27.8065 35.077 28.3599 35.1161 28.8662 34.9456L28.2277 33.0502ZM15.6916 35.1334C15.6898 35.1348 15.6879 35.1362 15.6859 35.1377L18.0651 38.3532C18.0667 38.352 18.0683 38.3508 18.0701 38.3495L15.6916 35.1334ZM15.263 37.9173L16.4389 39.5352L19.6746 37.1835L18.4987 35.5656L15.263 37.9173ZM19.2412 39.9709C19.2431 39.9695 19.245 39.9681 19.2469 39.9667L16.8666 36.752C16.8646 36.7535 16.8626 36.755 16.8606 36.7565L19.2412 39.9709ZM19.6691 37.1884L18.4937 35.5701L15.2573 37.9207L16.4326 39.539L19.6691 37.1884ZM60.9662 35.1776L59.7908 36.7958L63.0273 39.1465L64.2026 37.5282L60.9662 35.1776ZM60.2429 39.596C60.2455 39.5979 60.2433 39.5963 60.2482 39.5998L62.5699 36.3425C62.5693 36.3421 62.5687 36.3417 62.5676 36.3409C62.5666 36.3402 62.5651 36.3391 62.5635 36.338L60.2429 39.596ZM63.0211 39.1428L64.197 37.5249L60.9613 35.1733L59.7854 36.7912L63.0211 39.1428ZM63.7463 34.725C63.7463 34.725 63.7463 34.725 63.7463 34.725C63.7463 34.725 63.7463 34.725 63.7463 34.725C63.7463 34.7249 63.7463 34.7249 63.7463 34.7249C63.7462 34.7249 63.7462 34.7249 63.7462 34.7249C63.7462 34.7249 63.7462 34.7249 63.7462 34.7249C63.7462 34.7249 63.7462 34.7249 63.7462 34.7249C63.7462 34.7249 63.7462 34.7249 63.7462 34.7249C63.7462 34.7249 63.7462 34.7249 63.7462 34.7249C63.7462 34.7249 63.7462 34.7249 63.7462 34.7249C63.7462 34.7249 63.7462 34.7249 63.7462 34.7249C63.7462 34.7249 63.7462 34.7249 63.7462 34.7249C63.7462 34.7249 63.7462 34.7249 63.7462 34.7249C63.7462 34.7249 63.7462 34.7249 63.7461 34.7249C63.7461 34.7249 63.7461 34.7249 63.7461 34.7249C63.7461 34.7249 63.7461 34.7249 63.7461 34.7249C63.7461 34.7249 63.7461 34.7249 63.7461 34.7248C63.7461 34.7248 63.7461 34.7248 63.7461 34.7248C63.7461 34.7248 63.7461 34.7248 63.7461 34.7248C63.7461 34.7248 63.7461 34.7248 63.7461 34.7248C63.7461 34.7248 63.7461 34.7248 63.7461 34.7248C63.7461 34.7248 63.7461 34.7248 63.7461 34.7248C63.7461 34.7248 63.7461 34.7248 63.7461 34.7248C63.746 34.7248 63.746 34.7248 63.746 34.7248C63.746 34.7248 63.746 34.7248 63.746 34.7248C63.746 34.7248 63.746 34.7248 63.746 34.7248C63.746 34.7248 63.746 34.7248 63.746 34.7248C63.746 34.7248 63.746 34.7248 63.746 34.7248C63.746 34.7248 63.746 34.7248 63.746 34.7248C63.746 34.7248 63.746 34.7248 63.746 34.7248C63.746 34.7247 63.746 34.7247 63.746 34.7247C63.746 34.7247 63.746 34.7247 63.746 34.7247C63.746 34.7247 63.746 34.7247 63.7459 34.7247C63.7459 34.7247 63.7459 34.7247 63.7459 34.7247C63.7459 34.7247 63.7459 34.7247 63.7459 34.7247C63.7459 34.7247 63.7459 34.7247 63.7459 34.7247C63.7459 34.7247 63.7459 34.7247 63.7459 34.7247C63.7459 34.7247 63.7459 34.7247 63.7459 34.7247C63.7459 34.7247 63.7459 34.7247 63.7459 34.7247C63.7459 34.7247 63.7459 34.7247 63.7459 34.7247C63.7459 34.7247 63.7459 34.7247 63.7459 34.7247C63.7459 34.7247 63.7459 34.7247 63.7459 34.7247C63.7459 34.7247 63.7458 34.7247 63.7458 34.7247C63.7458 34.7247 63.7458 34.7247 63.7458 34.7246C63.7458 34.7246 63.7458 34.7246 63.7458 34.7246C63.7458 34.7246 63.7458 34.7246 63.7458 34.7246C63.7458 34.7246 63.7458 34.7246 63.7458 34.7246C63.7458 34.7246 63.7458 34.7246 63.7458 34.7246C63.7458 34.7246 63.7458 34.7246 63.7458 34.7246C63.7458 34.7246 63.7458 34.7246 63.7458 34.7246C63.7458 34.7246 63.7458 34.7246 63.7458 34.7246C63.7458 34.7246 63.7458 34.7246 63.7458 34.7246C63.7457 34.7246 63.7457 34.7246 63.7457 34.7246C63.7457 34.7246 63.7457 34.7246 63.7457 34.7246C63.7457 34.7246 63.7457 34.7246 63.7457 34.7246C63.7457 34.7246 63.7457 34.7246 63.7457 34.7246C63.7457 34.7246 63.7457 34.7246 63.7457 34.7246C63.7457 34.7245 63.7457 34.7245 63.7457 34.7245C63.7457 34.7245 63.7457 34.7245 63.7457 34.7245C63.7457 34.7245 63.7457 34.7245 63.7457 34.7245C63.7457 34.7245 63.7457 34.7245 63.7457 34.7245C63.7457 34.7245 63.7457 34.7245 63.7456 34.7245C63.7456 34.7245 63.7456 34.7245 63.7456 34.7245C63.7456 34.7245 63.7456 34.7245 63.7456 34.7245C63.7456 34.7245 63.7456 34.7245 63.7456 34.7245C63.7456 34.7245 63.7456 34.7245 63.7456 34.7245C63.7456 34.7245 63.7456 34.7245 63.7456 34.7245C63.7456 34.7245 63.7456 34.7245 63.7456 34.7245C63.7456 34.7245 63.7456 34.7245 63.7456 34.7245C63.7456 34.7245 63.7456 34.7245 63.7456 34.7245C63.7456 34.7245 63.7456 34.7245 63.7456 34.7244C63.7456 34.7244 63.7455 34.7244 63.7455 34.7244C63.7455 34.7244 63.7455 34.7244 63.7455 34.7244C63.7455 34.7244 63.7455 34.7244 63.7455 34.7244C63.7455 34.7244 63.7455 34.7244 63.7455 34.7244C63.7455 34.7244 63.7455 34.7244 63.7455 34.7244C63.7455 34.7244 63.7455 34.7244 63.7455 34.7244C63.7455 34.7244 63.7455 34.7244 63.7455 34.7244C63.7455 34.7244 63.7455 34.7244 63.7455 34.7244C63.7455 34.7244 63.7455 34.7244 63.7455 34.7244C63.7455 34.7244 63.7455 34.7244 63.7454 34.7244C63.7454 34.7244 63.7454 34.7244 63.7454 34.7244C63.7454 34.7244 63.7454 34.7244 63.7454 34.7244C63.7454 34.7244 63.7454 34.7244 63.7454 34.7244C63.7454 34.7243 63.7454 34.7243 63.7454 34.7243C63.7454 34.7243 63.7454 34.7243 63.7454 34.7243C63.7454 34.7243 63.7454 34.7243 63.7454 34.7243C63.7454 34.7243 63.7454 34.7243 63.7454 34.7243C63.7454 34.7243 63.7454 34.7243 63.7454 34.7243C63.7454 34.7243 63.7454 34.7243 63.7454 34.7243C63.7454 34.7243 63.7453 34.7243 63.7453 34.7243C63.7453 34.7243 63.7453 34.7243 63.7453 34.7243C63.7453 34.7243 63.7453 34.7243 63.7453 34.7243C63.7453 34.7243 63.7453 34.7243 63.7453 34.7243C63.7453 34.7243 63.7453 34.7243 63.7453 34.7243C63.7453 34.7243 63.7453 34.7243 63.7453 34.7243C63.7453 34.7243 63.7453 34.7243 63.7453 34.7243C63.7453 34.7243 63.7453 34.7243 63.7453 34.7242C63.7453 34.7242 63.7453 34.7242 63.7453 34.7242C63.7453 34.7242 63.7453 34.7242 63.7453 34.7242C63.7453 34.7242 63.7452 34.7242 63.7452 34.7242C63.7452 34.7242 63.7452 34.7242 63.7452 34.7242C63.7452 34.7242 63.7452 34.7242 63.7452 34.7242C63.7452 34.7242 63.7452 34.7242 63.7452 34.7242C63.7452 34.7242 63.7452 34.7242 63.7452 34.7242C63.7452 34.7242 63.7452 34.7242 63.7452 34.7242C63.7452 34.7242 63.7452 34.7242 63.7452 34.7242C63.7452 34.7242 63.7452 34.7242 63.7452 34.7242C63.7452 34.7242 63.7452 34.7242 63.7452 34.7242C63.7452 34.7242 63.7452 34.7242 63.7451 34.7242C63.7451 34.7242 63.7451 34.7242 63.7451 34.7242C63.7451 34.7241 63.7451 34.7241 63.7451 34.7241C63.7451 34.7241 63.7451 34.7241 63.7451 34.7241C63.7451 34.7241 63.7451 34.7241 63.7451 34.7241C63.7451 34.7241 63.7451 34.7241 63.7451 34.7241C63.7451 34.7241 63.7451 34.7241 63.7451 34.7241C63.7451 34.7241 63.7451 34.7241 63.7451 34.7241C63.7451 34.7241 63.7451 34.7241 63.7451 34.7241C63.7451 34.7241 63.7451 34.7241 63.7451 34.7241C63.7451 34.7241 63.745 34.7241 63.745 34.7241C63.745 34.7241 63.745 34.7241 63.745 34.7241C63.745 34.7241 63.745 34.7241 63.745 34.7241C63.745 34.7241 63.745 34.7241 63.745 34.7241C63.745 34.7241 63.745 34.7241 63.745 34.7241C63.745 34.7241 63.745 34.7241 63.745 34.724C63.745 34.724 63.745 34.724 63.745 34.724C63.745 34.724 63.745 34.724 63.745 34.724C63.745 34.724 63.745 34.724 63.745 34.724C63.745 34.724 63.745 34.724 63.7449 34.724C63.7449 34.724 63.7449 34.724 63.7449 34.724C63.7449 34.724 63.7449 34.724 63.7449 34.724C63.7449 34.724 63.7449 34.724 63.7449 34.724C63.7449 34.724 63.7449 34.724 63.7449 34.724C63.7449 34.724 63.7449 34.724 63.7449 34.724C63.7449 34.724 63.7449 34.724 63.7449 34.724C63.7449 34.724 63.7449 34.724 63.7449 34.724C63.7449 34.724 63.7449 34.724 63.7449 34.724C63.7449 34.724 63.7449 34.724 63.7449 34.724C63.7449 34.7239 63.7449 34.7239 63.7448 34.7239C63.7448 34.7239 63.7448 34.7239 63.7448 34.7239C63.7448 34.7239 63.7448 34.7239 63.7448 34.7239C63.7448 34.7239 63.7448 34.7239 63.7448 34.7239C63.7448 34.7239 63.7448 34.7239 63.7448 34.7239C63.7448 34.7239 63.7448 34.7239 63.7448 34.7239C63.7448 34.7239 63.7448 34.7239 63.7448 34.7239C63.7448 34.7239 63.7448 34.7239 63.7448 34.7239C63.7448 34.7239 63.7448 34.7239 63.7448 34.7239C63.7448 34.7239 63.7448 34.7239 63.7448 34.7239C63.7448 34.7239 63.7447 34.7239 63.7447 34.7239C63.7447 34.7239 63.7447 34.7239 63.7447 34.7239C63.7447 34.7239 63.7447 34.7239 63.7447 34.7239C63.7447 34.7239 63.7447 34.7238 63.7447 34.7238C63.7447 34.7238 63.7447 34.7238 63.7447 34.7238C63.7447 34.7238 63.7447 34.7238 63.7447 34.7238C63.7447 34.7238 63.7447 34.7238 63.7447 34.7238C63.7447 34.7238 63.7447 34.7238 63.7447 34.7238C63.7447 34.7238 63.7447 34.7238 63.7447 34.7238C63.7447 34.7238 63.7447 34.7238 63.7446 34.7238C63.7446 34.7238 63.7446 34.7238 63.7446 34.7238C63.7446 34.7238 63.7446 34.7238 63.7446 34.7238C63.7446 34.7238 63.7446 34.7238 63.7446 34.7238C63.7446 34.7238 63.7446 34.7238 63.7446 34.7238C63.7446 34.7238 63.7446 34.7238 63.7446 34.7238C63.7446 34.7238 63.7446 34.7238 63.7446 34.7238C63.7446 34.7238 63.7446 34.7238 63.7446 34.7238C63.7446 34.7237 63.7446 34.7237 63.7446 34.7237C63.7446 34.7237 63.7446 34.7237 63.7446 34.7237C63.7446 34.7237 63.7445 34.7237 63.7445 34.7237C63.7445 34.7237 63.7445 34.7237 63.7445 34.7237C63.7445 34.7237 63.7445 34.7237 63.7445 34.7237C63.7445 34.7237 63.7445 34.7237 63.7445 34.7237C63.7445 34.7237 63.7445 34.7237 63.7445 34.7237C63.7445 34.7237 63.7445 34.7237 63.7445 34.7237C63.7445 34.7237 63.7445 34.7237 63.7445 34.7237C63.7445 34.7237 63.7445 34.7237 63.7445 34.7237C63.7445 34.7237 63.7445 34.7237 63.7445 34.7237C63.7445 34.7237 63.7445 34.7237 63.7445 34.7237C63.7444 34.7237 63.7444 34.7237 63.7444 34.7237C63.7444 34.7237 63.7444 34.7236 63.7444 34.7236C63.7444 34.7236 63.7444 34.7236 63.7444 34.7236C63.7444 34.7236 63.7444 34.7236 63.7444 34.7236C63.7444 34.7236 63.7444 34.7236 63.7444 34.7236C63.7444 34.7236 63.7444 34.7236 63.7444 34.7236C63.7444 34.7236 63.7444 34.7236 63.7444 34.7236C63.7444 34.7236 63.7444 34.7236 63.7444 34.7236C63.7444 34.7236 63.7444 34.7236 63.7444 34.7236C63.7444 34.7236 63.7444 34.7236 63.7443 34.7236C63.7443 34.7236 63.7443 34.7236 63.7443 34.7236C63.7443 34.7236 63.7443 34.7236 63.7443 34.7236C63.7443 34.7236 63.7443 34.7236 63.7443 34.7236C63.7443 34.7236 63.7443 34.7236 63.7443 34.7236C63.7443 34.7236 63.7443 34.7236 63.7443 34.7236C63.7443 34.7235 63.7443 34.7235 63.7443 34.7235C63.7443 34.7235 63.7443 34.7235 63.7443 34.7235C63.7443 34.7235 63.7443 34.7235 63.7443 34.7235C63.7443 34.7235 63.7443 34.7235 63.7443 34.7235C63.7443 34.7235 63.7442 34.7235 63.7442 34.7235C63.7442 34.7235 63.7442 34.7235 63.7442 34.7235C63.7442 34.7235 63.7442 34.7235 63.7442 34.7235C63.7442 34.7235 63.7442 34.7235 63.7442 34.7235C63.7442 34.7235 63.7442 34.7235 63.7442 34.7235C63.7442 34.7235 63.7442 34.7235 63.7442 34.7235C63.7442 34.7235 63.7442 34.7235 63.7442 34.7235C63.7442 34.7235 63.7442 34.7235 63.7442 34.7235C63.7442 34.7235 63.7442 34.7235 63.7442 34.7235C63.7442 34.7235 63.7442 34.7234 63.7442 34.7234C63.7441 34.7234 63.7441 34.7234 63.7441 34.7234C63.7441 34.7234 63.7441 34.7234 63.7441 34.7234C63.7441 34.7234 63.7441 34.7234 63.7441 34.7234C63.7441 34.7234 63.7441 34.7234 63.7441 34.7234C63.7441 34.7234 63.7441 34.7234 63.7441 34.7234C63.7441 34.7234 63.7441 34.7234 63.7441 34.7234C63.7441 34.7234 63.7441 34.7234 63.7441 34.7234C63.7441 34.7234 63.7441 34.7234 63.7441 34.7234C63.7441 34.7234 63.7441 34.7234 63.7441 34.7234C63.7441 34.7234 63.744 34.7234 63.744 34.7234C63.744 34.7234 63.744 34.7234 63.744 34.7234C63.744 34.7234 63.744 34.7234 63.744 34.7234C63.744 34.7234 63.744 34.7234 63.744 34.7234C63.744 34.7233 63.744 34.7233 63.744 34.7233C63.744 34.7233 63.744 34.7233 63.744 34.7233C63.744 34.7233 63.744 34.7233 63.744 34.7233C63.744 34.7233 63.744 34.7233 63.744 34.7233C63.744 34.7233 63.744 34.7233 63.744 34.7233C63.744 34.7233 63.744 34.7233 63.744 34.7233C63.7439 34.7233 63.7439 34.7233 63.7439 34.7233C63.7439 34.7233 63.7439 34.7233 63.7439 34.7233C63.7439 34.7233 63.7439 34.7233 63.7439 34.7233C63.7439 34.7233 63.7439 34.7233 63.7439 34.7233C63.7439 34.7233 63.7439 34.7233 63.7439 34.7233C63.7439 34.7233 63.7439 34.7233 63.7439 34.7233C63.7439 34.7233 63.7439 34.7233 63.7439 34.7233C63.7439 34.7233 63.7439 34.7232 63.7439 34.7232C63.7439 34.7232 63.7439 34.7232 63.7439 34.7232C63.7439 34.7232 63.7439 34.7232 63.7439 34.7232C63.7438 34.7232 63.7438 34.7232 63.7438 34.7232C63.7438 34.7232 63.7438 34.7232 63.7438 34.7232C63.7438 34.7232 63.7438 34.7232 63.7438 34.7232C63.7438 34.7232 63.7438 34.7232 63.7438 34.7232C63.7438 34.7232 63.7438 34.7232 63.7438 34.7232C63.7438 34.7232 63.7438 34.7232 63.7438 34.7232C63.7438 34.7232 63.7438 34.7232 63.7438 34.7232C63.7438 34.7232 63.7438 34.7232 63.7438 34.7232C63.7438 34.7232 63.7438 34.7232 63.7438 34.7232C63.7438 34.7232 63.7437 34.7232 63.7437 34.7232C63.7437 34.7232 63.7437 34.7232 63.7437 34.7231C63.7437 34.7231 63.7437 34.7231 63.7437 34.7231C63.7437 34.7231 63.7437 34.7231 63.7437 34.7231C63.7437 34.7231 63.7437 34.7231 63.7437 34.7231C63.7437 34.7231 63.7437 34.7231 63.7437 34.7231C63.7437 34.7231 63.7437 34.7231 63.7437 34.7231C63.7437 34.7231 63.7437 34.7231 63.7437 34.7231C63.7437 34.7231 63.7437 34.7231 63.7437 34.7231C63.7437 34.7231 63.7437 34.7231 63.7437 34.7231C63.7436 34.7231 63.7436 34.7231 63.7436 34.7231C63.7436 34.7231 63.7436 34.7231 63.7436 34.7231C63.7436 34.7231 63.7436 34.7231 63.7436 34.7231C63.7436 34.7231 63.7436 34.7231 63.7436 34.7231C63.7436 34.7231 63.7436 34.7231 63.7436 34.7231C63.7436 34.7231 63.7436 34.723 63.7436 34.723C63.7436 34.723 63.7436 34.723 63.7436 34.723C63.7436 34.723 63.7436 34.723 63.7436 34.723C63.7436 34.723 63.7436 34.723 63.7436 34.723C63.7436 34.723 63.7435 34.723 63.7435 34.723C63.7435 34.723 63.7435 34.723 63.7435 34.723C63.7435 34.723 63.7435 34.723 63.7435 34.723C63.7435 34.723 63.7435 34.723 63.7435 34.723C63.7435 34.723 63.7435 34.723 63.7435 34.723C63.7435 34.723 63.7435 34.723 63.7435 34.723C63.7435 34.723 63.7435 34.723 63.7435 34.723C63.7435 34.723 63.7435 34.723 63.7435 34.723C63.7435 34.723 63.7435 34.723 63.7435 34.723C63.7435 34.723 63.7435 34.723 63.7435 34.7229C63.7435 34.7229 63.7434 34.7229 63.7434 34.7229C63.7434 34.7229 63.7434 34.7229 63.7434 34.7229C63.7434 34.7229 63.7434 34.7229 63.7434 34.7229C63.7434 34.7229 63.7434 34.7229 63.7434 34.7229C63.7434 34.7229 63.7434 34.7229 63.7434 34.7229C63.7434 34.7229 63.7434 34.7229 63.7434 34.7229C63.7434 34.7229 63.7434 34.7229 63.7434 34.7229C63.7434 34.7229 63.7434 34.7229 63.7434 34.7229C63.7434 34.7229 63.7434 34.7229 63.7434 34.7229C63.7434 34.7229 63.7434 34.7229 63.7434 34.7229C63.7433 34.7229 63.7433 34.7229 63.7433 34.7229C63.7433 34.7229 63.7433 34.7229 63.7433 34.7229C63.7433 34.7229 63.7433 34.7229 63.7433 34.7229C63.7433 34.7229 63.7433 34.7228 63.7433 34.7228C63.7433 34.7228 63.7433 34.7228 63.7433 34.7228C63.7433 34.7228 63.7433 34.7228 63.7433 34.7228C63.7433 34.7228 63.7433 34.7228 63.7433 34.7228C63.7433 34.7228 63.7433 34.7228 63.7433 34.7228C63.7433 34.7228 63.7433 34.7228 63.7433 34.7228C63.7433 34.7228 63.7432 34.7228 63.7432 34.7228C63.7432 34.7228 63.7432 34.7228 63.7432 34.7228C63.7432 34.7228 63.7432 34.7228 63.7432 34.7228C63.7432 34.7228 63.7432 34.7228 63.7432 34.7228C63.7432 34.7228 63.7432 34.7228 63.7432 34.7228C63.7432 34.7228 63.7432 34.7228 63.7432 34.7228C63.7432 34.7228 63.7432 34.7228 63.7432 34.7228C63.7432 34.7228 63.7432 34.7228 63.7432 34.7227C63.7432 34.7227 63.7432 34.7227 63.7432 34.7227C63.7432 34.7227 63.7432 34.7227 63.7432 34.7227C63.7431 34.7227 63.7431 34.7227 63.7431 34.7227C63.7431 34.7227 63.7431 34.7227 63.7431 34.7227C63.7431 34.7227 63.7431 34.7227 63.7431 34.7227C63.7431 34.7227 63.7431 34.7227 63.7431 34.7227C63.7431 34.7227 63.7431 34.7227 63.7431 34.7227C63.7431 34.7227 63.7431 34.7227 63.7431 34.7227C63.7431 34.7227 63.7431 34.7227 63.7431 34.7227C63.7431 34.7227 63.7431 34.7227 63.7431 34.7227C63.7431 34.7227 63.7431 34.7227 63.7431 34.7227C63.7431 34.7227 63.7431 34.7227 63.743 34.7227C63.743 34.7227 63.743 34.7227 63.743 34.7227C63.743 34.7227 63.743 34.7226 63.743 34.7226C63.743 34.7226 63.743 34.7226 63.743 34.7226C63.743 34.7226 63.743 34.7226 63.743 34.7226C63.743 34.7226 63.743 34.7226 63.743 34.7226C63.743 34.7226 63.743 34.7226 63.743 34.7226C63.743 34.7226 63.743 34.7226 63.743 34.7226C63.743 34.7226 63.743 34.7226 63.743 34.7226C63.743 34.7226 63.743 34.7226 63.743 34.7226C63.743 34.7226 63.7429 34.7226 63.7429 34.7226C63.7429 34.7226 63.7429 34.7226 63.7429 34.7226C63.7429 34.7226 63.7429 34.7226 63.7429 34.7226C63.7429 34.7226 63.7429 34.7226 63.7429 34.7226C63.7429 34.7226 63.7429 34.7226 63.7429 34.7226C63.7429 34.7226 63.7429 34.7226 63.7429 34.7225C63.7429 34.7225 63.7429 34.7225 63.7429 34.7225C63.7429 34.7225 63.7429 34.7225 63.7429 34.7225C63.7429 34.7225 63.7429 34.7225 63.7429 34.7225C63.7429 34.7225 63.7429 34.7225 63.7429 34.7225C63.7428 34.7225 63.7428 34.7225 63.7428 34.7225C63.7428 34.7225 63.7428 34.7225 63.7428 34.7225C63.7428 34.7225 63.7428 34.7225 63.7428 34.7225C63.7428 34.7225 63.7428 34.7225 63.7428 34.7225C63.7428 34.7225 63.7428 34.7225 63.7428 34.7225C63.7428 34.7225 63.7428 34.7225 63.7428 34.7225C63.7428 34.7225 63.7428 34.7225 63.7428 34.7225C63.7428 34.7225 63.7428 34.7225 63.7428 34.7225C63.7428 34.7225 63.7428 34.7225 63.7428 34.7225C63.7428 34.7225 63.7428 34.7224 63.7427 34.7224C63.7427 34.7224 63.7427 34.7224 63.7427 34.7224C63.7427 34.7224 63.7427 34.7224 63.7427 34.7224C63.7427 34.7224 63.7427 34.7224 63.7427 34.7224C63.7427 34.7224 63.7427 34.7224 63.7427 34.7224C63.7427 34.7224 63.7427 34.7224 63.7427 34.7224C63.7427 34.7224 63.7427 34.7224 63.7427 34.7224C63.7427 34.7224 63.7427 34.7224 63.7427 34.7224C63.7427 34.7224 63.7427 34.7224 63.7427 34.7224C63.7427 34.7224 63.7427 34.7224 63.7427 34.7224C63.7426 34.7224 63.7426 34.7224 63.7426 34.7224C63.7426 34.7224 63.7426 34.7224 63.7426 34.7224C63.7426 34.7224 63.7426 34.7224 63.7426 34.7224C63.7426 34.7224 63.7426 34.7224 63.7426 34.7223C63.7426 34.7223 63.7426 34.7223 63.7426 34.7223C63.7426 34.7223 63.7426 34.7223 63.7426 34.7223C63.7426 34.7223 63.7426 34.7223 63.7426 34.7223C63.7426 34.7223 63.7426 34.7223 63.7426 34.7223C63.7426 34.7223 63.7426 34.7223 63.7426 34.7223C63.7426 34.7223 63.7426 34.7223 63.7425 34.7223C63.7425 34.7223 63.7425 34.7223 63.7425 34.7223C63.7425 34.7223 63.7425 34.7223 63.7425 34.7223C63.7425 34.7223 63.7425 34.7223 63.7425 34.7223C63.7425 34.7223 63.7425 34.7223 63.7425 34.7223C63.7425 34.7223 63.7425 34.7223 63.7425 34.7223C63.7425 34.7223 63.7425 34.7223 63.7425 34.7223C63.7425 34.7223 63.7425 34.7223 63.7425 34.7223C63.7425 34.7222 63.7425 34.7222 63.7425 34.7222C63.7425 34.7222 63.7425 34.7222 63.7425 34.7222C63.7425 34.7222 63.7425 34.7222 63.7424 34.7222C63.7424 34.7222 63.7424 34.7222 63.7424 34.7222C63.7424 34.7222 63.7424 34.7222 63.7424 34.7222C63.7424 34.7222 63.7424 34.7222 63.7424 34.7222C63.7424 34.7222 63.7424 34.7222 63.7424 34.7222C63.7424 34.7222 63.7424 34.7222 63.7424 34.7222C63.7424 34.7222 63.7424 34.7222 63.7424 34.7222C63.7424 34.7222 63.7424 34.7222 63.7424 34.7222C63.7424 34.7222 63.7424 34.7222 63.7424 34.7222C63.7424 34.7222 63.7424 34.7222 63.7424 34.7222C63.7423 34.7222 63.7423 34.7222 63.7423 34.7222C63.7423 34.7222 63.7423 34.7222 63.7423 34.7221C63.7423 34.7221 63.7423 34.7221 63.7423 34.7221C63.7423 34.7221 63.7423 34.7221 63.7423 34.7221C63.7423 34.7221 63.7423 34.7221 63.7423 34.7221C63.7423 34.7221 63.7423 34.7221 63.7423 34.7221C63.7423 34.7221 63.7423 34.7221 63.7423 34.7221C63.7423 34.7221 63.7423 34.7221 63.7423 34.7221C63.7423 34.7221 63.7423 34.7221 63.7423 34.7221C63.7423 34.7221 63.7423 34.7221 63.7422 34.7221C63.7422 34.7221 63.7422 34.7221 63.7422 34.7221C63.7422 34.7221 63.7422 34.7221 63.7422 34.7221C63.7422 34.7221 63.7422 34.7221 63.7422 34.7221C63.7422 34.7221 63.7422 34.7221 63.7422 34.7221C63.7422 34.7221 63.7422 34.7221 63.7422 34.7221C63.7422 34.722 63.7422 34.722 63.7422 34.722C63.7422 34.722 63.7422 34.722 63.7422 34.722C63.7422 34.722 63.7422 34.722 63.7422 34.722C63.7422 34.722 63.7422 34.722 63.7422 34.722C63.7422 34.722 63.7421 34.722 63.7421 34.722C63.7421 34.722 63.7421 34.722 63.7421 34.722C63.7421 34.722 63.7421 34.722 63.7421 34.722C63.7421 34.722 63.7421 34.722 63.7421 34.722C63.7421 34.722 63.7421 34.722 63.7421 34.722C63.7421 34.722 63.7421 34.722 63.7421 34.722C63.7421 34.722 63.7421 34.722 63.7421 34.722C63.7421 34.722 63.7421 34.722 63.7421 34.722C63.7421 34.722 63.7421 34.722 63.7421 34.722C63.7421 34.722 63.7421 34.722 63.7421 34.7219C63.742 34.7219 63.742 34.7219 63.742 34.7219C63.742 34.7219 63.742 34.7219 63.742 34.7219C63.742 34.7219 63.742 34.7219 63.742 34.7219C63.742 34.7219 63.742 34.7219 63.742 34.7219C63.742 34.7219 63.742 34.7219 63.742 34.7219C63.742 34.7219 63.742 34.7219 63.742 34.7219C63.742 34.7219 63.742 34.7219 63.742 34.7219C63.742 34.7219 63.742 34.7219 63.742 34.7219C63.742 34.7219 63.742 34.7219 63.742 34.7219C63.742 34.7219 63.742 34.7219 63.7419 34.7219C63.7419 34.7219 63.7419 34.7219 63.7419 34.7219C63.7419 34.7219 63.7419 34.7219 63.7419 34.7219C63.7419 34.7219 63.7419 34.7219 63.7419 34.7219C63.7419 34.7218 63.7419 34.7218 63.7419 34.7218C63.7419 34.7218 63.7419 34.7218 63.7419 34.7218C63.7419 34.7218 63.7419 34.7218 63.7419 34.7218C63.7419 34.7218 63.7419 34.7218 63.7419 34.7218C63.7419 34.7218 63.7419 34.7218 63.7419 34.7218C63.7419 34.7218 63.7419 34.7218 63.7419 34.7218C63.7419 34.7218 63.7418 34.7218 63.7418 34.7218C63.7418 34.7218 63.7418 34.7218 63.7418 34.7218C63.7418 34.7218 63.7418 34.7218 63.7418 34.7218C63.7418 34.7218 63.7418 34.7218 63.7418 34.7218C63.7418 34.7218 63.7418 34.7218 63.7418 34.7218C63.7418 34.7218 63.7418 34.7218 63.7418 34.7218C63.7418 34.7218 63.7418 34.7218 63.7418 34.7218C63.7418 34.7218 63.7418 34.7218 63.7418 34.7217C63.7418 34.7217 63.7418 34.7217 63.7418 34.7217C63.7418 34.7217 63.7418 34.7217 63.7417 34.7217C63.7417 34.7217 63.7417 34.7217 63.7417 34.7217C63.7417 34.7217 63.7417 34.7217 63.7417 34.7217C63.7417 34.7217 63.7417 34.7217 63.7417 34.7217C63.7417 34.7217 63.7417 34.7217 63.7417 34.7217C63.7417 34.7217 63.7417 34.7217 63.7417 34.7217C63.7417 34.7217 63.7417 34.7217 63.7417 34.7217C63.7417 34.7217 63.7417 34.7217 63.7417 34.7217C63.7417 34.7217 63.7417 34.7217 63.7417 34.7217C63.7417 34.7217 63.7417 34.7217 63.7417 34.7217C63.7417 34.7217 63.7416 34.7217 63.7416 34.7217C63.7416 34.7217 63.7416 34.7217 63.7416 34.7217C63.7416 34.7216 63.7416 34.7216 63.7416 34.7216C63.7416 34.7216 63.7416 34.7216 63.7416 34.7216C63.7416 34.7216 63.7416 34.7216 63.7416 34.7216C63.7416 34.7216 63.7416 34.7216 63.7416 34.7216C63.7416 34.7216 63.7416 34.7216 63.7416 34.7216C63.7416 34.7216 63.7416 34.7216 63.7416 34.7216C63.7416 34.7216 63.7416 34.7216 63.7416 34.7216C63.7416 34.7216 63.7416 34.7216 63.7416 34.7216C63.7416 34.7216 63.7415 34.7216 63.7415 34.7216C63.7415 34.7216 63.7415 34.7216 63.7415 34.7216C63.7415 34.7216 63.7415 34.7216 63.7415 34.7216C63.7415 34.7216 63.7415 34.7216 63.7415 34.7216C63.7415 34.7216 63.7415 34.7216 63.7415 34.7216C63.7415 34.7216 63.7415 34.7215 63.7415 34.7215C63.7415 34.7215 63.7415 34.7215 63.7415 34.7215C63.7415 34.7215 63.7415 34.7215 63.7415 34.7215C63.7415 34.7215 63.7415 34.7215 63.7415 34.7215C63.7415 34.7215 63.7415 34.7215 63.7414 34.7215C63.7414 34.7215 63.7414 34.7215 63.7414 34.7215C63.7414 34.7215 63.7414 34.7215 63.7414 34.7215C63.7414 34.7215 63.7414 34.7215 63.7414 34.7215C63.7414 34.7215 63.7414 34.7215 63.7414 34.7215C63.7414 34.7215 63.7414 34.7215 63.7414 34.7215C63.7414 34.7215 63.7414 34.7215 63.7414 34.7215C63.7414 34.7215 63.7414 34.7215 63.7414 34.7215C63.7414 34.7215 63.7414 34.7215 63.7414 34.7215C63.7414 34.7215 63.7414 34.7215 63.7414 34.7215C63.7414 34.7214 63.7413 34.7214 63.7413 34.7214C63.7413 34.7214 63.7413 34.7214 63.7413 34.7214C63.7413 34.7214 63.7413 34.7214 63.7413 34.7214C63.7413 34.7214 63.7413 34.7214 63.7413 34.7214C63.7413 34.7214 63.7413 34.7214 63.7413 34.7214C63.7413 34.7214 63.7413 34.7214 63.7413 34.7214C63.7413 34.7214 63.7413 34.7214 63.7413 34.7214C63.7413 34.7214 63.7413 34.7214 63.7413 34.7214C63.7413 34.7214 63.7413 34.7214 63.7413 34.7214C63.7413 34.7214 63.7413 34.7214 63.7412 34.7214C63.7412 34.7214 63.7412 34.7214 63.7412 34.7214C63.7412 34.7214 63.7412 34.7214 63.7412 34.7214C63.7412 34.7214 63.7412 34.7214 63.7412 34.7214C63.7412 34.7214 63.7412 34.7213 63.7412 34.7213C63.7412 34.7213 63.7412 34.7213 63.7412 34.7213C63.7412 34.7213 63.7412 34.7213 63.7412 34.7213C63.7412 34.7213 63.7412 34.7213 63.7412 34.7213C63.7412 34.7213 63.7412 34.7213 63.7412 34.7213C63.7412 34.7213 63.7412 34.7213 63.7412 34.7213C63.7412 34.7213 63.7411 34.7213 63.7411 34.7213C63.7411 34.7213 63.7411 34.7213 63.7411 34.7213C63.7411 34.7213 63.7411 34.7213 63.7411 34.7213C63.7411 34.7213 63.7411 34.7213 63.7411 34.7213C63.7411 34.7213 63.7411 34.7213 63.7411 34.7213C63.7411 34.7213 63.7411 34.7213 63.7411 34.7213C63.7411 34.7213 63.7411 34.7213 63.7411 34.7213C63.7411 34.7213 63.7411 34.7213 63.7411 34.7213C63.7411 34.7212 63.7411 34.7212 63.7411 34.7212C63.7411 34.7212 63.7411 34.7212 63.7411 34.7212C63.7411 34.7212 63.741 34.7212 63.741 34.7212C63.741 34.7212 63.741 34.7212 63.741 34.7212C63.741 34.7212 63.741 34.7212 63.741 34.7212C63.741 34.7212 63.741 34.7212 63.741 34.7212C63.741 34.7212 63.741 34.7212 63.741 34.7212C63.741 34.7212 63.741 34.7212 63.741 34.7212C63.741 34.7212 63.741 34.7212 63.741 34.7212C63.741 34.7212 63.741 34.7212 63.741 34.7212C63.741 34.7212 63.741 34.7212 63.741 34.7212L61.4172 37.977C61.4173 37.977 61.4173 37.977 61.4173 37.977C61.4173 37.977 61.4173 37.977 61.4173 37.977C61.4173 37.977 61.4173 37.977 61.4173 37.977C61.4173 37.977 61.4173 37.977 61.4173 37.977C61.4173 37.977 61.4173 37.977 61.4173 37.977C61.4173 37.977 61.4173 37.977 61.4173 37.977C61.4173 37.977 61.4173 37.977 61.4173 37.977C61.4173 37.977 61.4173 37.977 61.4173 37.977C61.4173 37.9771 61.4173 37.9771 61.4173 37.9771C61.4173 37.9771 61.4174 37.9771 61.4174 37.9771C61.4174 37.9771 61.4174 37.9771 61.4174 37.9771C61.4174 37.9771 61.4174 37.9771 61.4174 37.9771C61.4174 37.9771 61.4174 37.9771 61.4174 37.9771C61.4174 37.9771 61.4174 37.9771 61.4174 37.9771C61.4174 37.9771 61.4174 37.9771 61.4174 37.9771C61.4174 37.9771 61.4174 37.9771 61.4174 37.9771C61.4174 37.9771 61.4174 37.9771 61.4174 37.9771C61.4174 37.9771 61.4174 37.9771 61.4174 37.9771C61.4174 37.9771 61.4174 37.9771 61.4174 37.9771C61.4174 37.9771 61.4175 37.9771 61.4175 37.9771C61.4175 37.9771 61.4175 37.9771 61.4175 37.9771C61.4175 37.9771 61.4175 37.9772 61.4175 37.9772C61.4175 37.9772 61.4175 37.9772 61.4175 37.9772C61.4175 37.9772 61.4175 37.9772 61.4175 37.9772C61.4175 37.9772 61.4175 37.9772 61.4175 37.9772C61.4175 37.9772 61.4175 37.9772 61.4175 37.9772C61.4175 37.9772 61.4175 37.9772 61.4175 37.9772C61.4175 37.9772 61.4175 37.9772 61.4175 37.9772C61.4175 37.9772 61.4175 37.9772 61.4175 37.9772C61.4176 37.9772 61.4176 37.9772 61.4176 37.9772C61.4176 37.9772 61.4176 37.9772 61.4176 37.9772C61.4176 37.9772 61.4176 37.9772 61.4176 37.9772C61.4176 37.9772 61.4176 37.9772 61.4176 37.9772C61.4176 37.9772 61.4176 37.9772 61.4176 37.9772C61.4176 37.9772 61.4176 37.9772 61.4176 37.9772C61.4176 37.9773 61.4176 37.9773 61.4176 37.9773C61.4176 37.9773 61.4176 37.9773 61.4176 37.9773C61.4176 37.9773 61.4176 37.9773 61.4176 37.9773C61.4176 37.9773 61.4177 37.9773 61.4177 37.9773C61.4177 37.9773 61.4177 37.9773 61.4177 37.9773C61.4177 37.9773 61.4177 37.9773 61.4177 37.9773C61.4177 37.9773 61.4177 37.9773 61.4177 37.9773C61.4177 37.9773 61.4177 37.9773 61.4177 37.9773C61.4177 37.9773 61.4177 37.9773 61.4177 37.9773C61.4177 37.9773 61.4177 37.9773 61.4177 37.9773C61.4177 37.9773 61.4177 37.9773 61.4177 37.9773C61.4177 37.9773 61.4177 37.9773 61.4177 37.9773C61.4177 37.9773 61.4177 37.9773 61.4177 37.9773C61.4178 37.9773 61.4178 37.9774 61.4178 37.9774C61.4178 37.9774 61.4178 37.9774 61.4178 37.9774C61.4178 37.9774 61.4178 37.9774 61.4178 37.9774C61.4178 37.9774 61.4178 37.9774 61.4178 37.9774C61.4178 37.9774 61.4178 37.9774 61.4178 37.9774C61.4178 37.9774 61.4178 37.9774 61.4178 37.9774C61.4178 37.9774 61.4178 37.9774 61.4178 37.9774C61.4178 37.9774 61.4178 37.9774 61.4178 37.9774C61.4178 37.9774 61.4178 37.9774 61.4178 37.9774C61.4178 37.9774 61.4178 37.9774 61.4179 37.9774C61.4179 37.9774 61.4179 37.9774 61.4179 37.9774C61.4179 37.9774 61.4179 37.9774 61.4179 37.9774C61.4179 37.9774 61.4179 37.9774 61.4179 37.9774C61.4179 37.9774 61.4179 37.9774 61.4179 37.9774C61.4179 37.9775 61.4179 37.9775 61.4179 37.9775C61.4179 37.9775 61.4179 37.9775 61.4179 37.9775C61.4179 37.9775 61.4179 37.9775 61.4179 37.9775C61.4179 37.9775 61.4179 37.9775 61.4179 37.9775C61.4179 37.9775 61.4179 37.9775 61.4179 37.9775C61.4179 37.9775 61.418 37.9775 61.418 37.9775C61.418 37.9775 61.418 37.9775 61.418 37.9775C61.418 37.9775 61.418 37.9775 61.418 37.9775C61.418 37.9775 61.418 37.9775 61.418 37.9775C61.418 37.9775 61.418 37.9775 61.418 37.9775C61.418 37.9775 61.418 37.9775 61.418 37.9775C61.418 37.9775 61.418 37.9775 61.418 37.9775C61.418 37.9775 61.418 37.9775 61.418 37.9775C61.418 37.9775 61.418 37.9776 61.418 37.9776C61.418 37.9776 61.418 37.9776 61.418 37.9776C61.4181 37.9776 61.4181 37.9776 61.4181 37.9776C61.4181 37.9776 61.4181 37.9776 61.4181 37.9776C61.4181 37.9776 61.4181 37.9776 61.4181 37.9776C61.4181 37.9776 61.4181 37.9776 61.4181 37.9776C61.4181 37.9776 61.4181 37.9776 61.4181 37.9776C61.4181 37.9776 61.4181 37.9776 61.4181 37.9776C61.4181 37.9776 61.4181 37.9776 61.4181 37.9776C61.4181 37.9776 61.4181 37.9776 61.4181 37.9776C61.4181 37.9776 61.4181 37.9776 61.4181 37.9776C61.4181 37.9776 61.4181 37.9776 61.4182 37.9776C61.4182 37.9776 61.4182 37.9776 61.4182 37.9776C61.4182 37.9776 61.4182 37.9776 61.4182 37.9776C61.4182 37.9777 61.4182 37.9777 61.4182 37.9777C61.4182 37.9777 61.4182 37.9777 61.4182 37.9777C61.4182 37.9777 61.4182 37.9777 61.4182 37.9777C61.4182 37.9777 61.4182 37.9777 61.4182 37.9777C61.4182 37.9777 61.4182 37.9777 61.4182 37.9777C61.4182 37.9777 61.4182 37.9777 61.4182 37.9777C61.4182 37.9777 61.4182 37.9777 61.4182 37.9777C61.4183 37.9777 61.4183 37.9777 61.4183 37.9777C61.4183 37.9777 61.4183 37.9777 61.4183 37.9777C61.4183 37.9777 61.4183 37.9777 61.4183 37.9777C61.4183 37.9777 61.4183 37.9777 61.4183 37.9777C61.4183 37.9777 61.4183 37.9777 61.4183 37.9777C61.4183 37.9777 61.4183 37.9777 61.4183 37.9777C61.4183 37.9777 61.4183 37.9778 61.4183 37.9778C61.4183 37.9778 61.4183 37.9778 61.4183 37.9778C61.4183 37.9778 61.4183 37.9778 61.4183 37.9778C61.4183 37.9778 61.4183 37.9778 61.4184 37.9778C61.4184 37.9778 61.4184 37.9778 61.4184 37.9778C61.4184 37.9778 61.4184 37.9778 61.4184 37.9778C61.4184 37.9778 61.4184 37.9778 61.4184 37.9778C61.4184 37.9778 61.4184 37.9778 61.4184 37.9778C61.4184 37.9778 61.4184 37.9778 61.4184 37.9778C61.4184 37.9778 61.4184 37.9778 61.4184 37.9778C61.4184 37.9778 61.4184 37.9778 61.4184 37.9778C61.4184 37.9778 61.4184 37.9778 61.4184 37.9778C61.4184 37.9778 61.4184 37.9778 61.4184 37.9778C61.4184 37.9778 61.4184 37.9778 61.4185 37.9778C61.4185 37.9779 61.4185 37.9779 61.4185 37.9779C61.4185 37.9779 61.4185 37.9779 61.4185 37.9779C61.4185 37.9779 61.4185 37.9779 61.4185 37.9779C61.4185 37.9779 61.4185 37.9779 61.4185 37.9779C61.4185 37.9779 61.4185 37.9779 61.4185 37.9779C61.4185 37.9779 61.4185 37.9779 61.4185 37.9779C61.4185 37.9779 61.4185 37.9779 61.4185 37.9779C61.4185 37.9779 61.4185 37.9779 61.4185 37.9779C61.4185 37.9779 61.4185 37.9779 61.4185 37.9779C61.4186 37.9779 61.4186 37.9779 61.4186 37.9779C61.4186 37.9779 61.4186 37.9779 61.4186 37.9779C61.4186 37.9779 61.4186 37.9779 61.4186 37.9779C61.4186 37.9779 61.4186 37.9779 61.4186 37.9779C61.4186 37.9779 61.4186 37.978 61.4186 37.978C61.4186 37.978 61.4186 37.978 61.4186 37.978C61.4186 37.978 61.4186 37.978 61.4186 37.978C61.4186 37.978 61.4186 37.978 61.4186 37.978C61.4186 37.978 61.4186 37.978 61.4186 37.978C61.4186 37.978 61.4186 37.978 61.4187 37.978C61.4187 37.978 61.4187 37.978 61.4187 37.978C61.4187 37.978 61.4187 37.978 61.4187 37.978C61.4187 37.978 61.4187 37.978 61.4187 37.978C61.4187 37.978 61.4187 37.978 61.4187 37.978C61.4187 37.978 61.4187 37.978 61.4187 37.978C61.4187 37.978 61.4187 37.978 61.4187 37.978C61.4187 37.978 61.4187 37.978 61.4187 37.978C61.4187 37.978 61.4187 37.978 61.4187 37.9781C61.4187 37.9781 61.4187 37.9781 61.4187 37.9781C61.4188 37.9781 61.4188 37.9781 61.4188 37.9781C61.4188 37.9781 61.4188 37.9781 61.4188 37.9781C61.4188 37.9781 61.4188 37.9781 61.4188 37.9781C61.4188 37.9781 61.4188 37.9781 61.4188 37.9781C61.4188 37.9781 61.4188 37.9781 61.4188 37.9781C61.4188 37.9781 61.4188 37.9781 61.4188 37.9781C61.4188 37.9781 61.4188 37.9781 61.4188 37.9781C61.4188 37.9781 61.4188 37.9781 61.4188 37.9781C61.4188 37.9781 61.4188 37.9781 61.4188 37.9781C61.4188 37.9781 61.4188 37.9781 61.4188 37.9781C61.4189 37.9781 61.4189 37.9781 61.4189 37.9781C61.4189 37.9781 61.4189 37.9781 61.4189 37.9781C61.4189 37.9781 61.4189 37.9782 61.4189 37.9782C61.4189 37.9782 61.4189 37.9782 61.4189 37.9782C61.4189 37.9782 61.4189 37.9782 61.4189 37.9782C61.4189 37.9782 61.4189 37.9782 61.4189 37.9782C61.4189 37.9782 61.4189 37.9782 61.4189 37.9782C61.4189 37.9782 61.4189 37.9782 61.4189 37.9782C61.4189 37.9782 61.4189 37.9782 61.4189 37.9782C61.4189 37.9782 61.4189 37.9782 61.419 37.9782C61.419 37.9782 61.419 37.9782 61.419 37.9782C61.419 37.9782 61.419 37.9782 61.419 37.9782C61.419 37.9782 61.419 37.9782 61.419 37.9782C61.419 37.9782 61.419 37.9782 61.419 37.9782C61.419 37.9782 61.419 37.9782 61.419 37.9782C61.419 37.9782 61.419 37.9782 61.419 37.9783C61.419 37.9783 61.419 37.9783 61.419 37.9783C61.419 37.9783 61.419 37.9783 61.419 37.9783C61.419 37.9783 61.419 37.9783 61.419 37.9783C61.4191 37.9783 61.4191 37.9783 61.4191 37.9783C61.4191 37.9783 61.4191 37.9783 61.4191 37.9783C61.4191 37.9783 61.4191 37.9783 61.4191 37.9783C61.4191 37.9783 61.4191 37.9783 61.4191 37.9783C61.4191 37.9783 61.4191 37.9783 61.4191 37.9783C61.4191 37.9783 61.4191 37.9783 61.4191 37.9783C61.4191 37.9783 61.4191 37.9783 61.4191 37.9783C61.4191 37.9783 61.4191 37.9783 61.4191 37.9783C61.4191 37.9783 61.4191 37.9783 61.4191 37.9783C61.4191 37.9783 61.4191 37.9783 61.4192 37.9783C61.4192 37.9783 61.4192 37.9784 61.4192 37.9784C61.4192 37.9784 61.4192 37.9784 61.4192 37.9784C61.4192 37.9784 61.4192 37.9784 61.4192 37.9784C61.4192 37.9784 61.4192 37.9784 61.4192 37.9784C61.4192 37.9784 61.4192 37.9784 61.4192 37.9784C61.4192 37.9784 61.4192 37.9784 61.4192 37.9784C61.4192 37.9784 61.4192 37.9784 61.4192 37.9784C61.4192 37.9784 61.4192 37.9784 61.4192 37.9784C61.4192 37.9784 61.4192 37.9784 61.4192 37.9784C61.4192 37.9784 61.4193 37.9784 61.4193 37.9784C61.4193 37.9784 61.4193 37.9784 61.4193 37.9784C61.4193 37.9784 61.4193 37.9784 61.4193 37.9784C61.4193 37.9784 61.4193 37.9784 61.4193 37.9784C61.4193 37.9784 61.4193 37.9784 61.4193 37.9785C61.4193 37.9785 61.4193 37.9785 61.4193 37.9785C61.4193 37.9785 61.4193 37.9785 61.4193 37.9785C61.4193 37.9785 61.4193 37.9785 61.4193 37.9785C61.4193 37.9785 61.4193 37.9785 61.4193 37.9785C61.4193 37.9785 61.4193 37.9785 61.4193 37.9785C61.4194 37.9785 61.4194 37.9785 61.4194 37.9785C61.4194 37.9785 61.4194 37.9785 61.4194 37.9785C61.4194 37.9785 61.4194 37.9785 61.4194 37.9785C61.4194 37.9785 61.4194 37.9785 61.4194 37.9785C61.4194 37.9785 61.4194 37.9785 61.4194 37.9785C61.4194 37.9785 61.4194 37.9785 61.4194 37.9785C61.4194 37.9785 61.4194 37.9785 61.4194 37.9785C61.4194 37.9785 61.4194 37.9785 61.4194 37.9785C61.4194 37.9785 61.4194 37.9786 61.4194 37.9786C61.4194 37.9786 61.4194 37.9786 61.4195 37.9786C61.4195 37.9786 61.4195 37.9786 61.4195 37.9786C61.4195 37.9786 61.4195 37.9786 61.4195 37.9786C61.4195 37.9786 61.4195 37.9786 61.4195 37.9786C61.4195 37.9786 61.4195 37.9786 61.4195 37.9786C61.4195 37.9786 61.4195 37.9786 61.4195 37.9786C61.4195 37.9786 61.4195 37.9786 61.4195 37.9786C61.4195 37.9786 61.4195 37.9786 61.4195 37.9786C61.4195 37.9786 61.4195 37.9786 61.4195 37.9786C61.4195 37.9786 61.4195 37.9786 61.4195 37.9786C61.4195 37.9786 61.4196 37.9786 61.4196 37.9786C61.4196 37.9786 61.4196 37.9786 61.4196 37.9786C61.4196 37.9786 61.4196 37.9786 61.4196 37.9787C61.4196 37.9787 61.4196 37.9787 61.4196 37.9787C61.4196 37.9787 61.4196 37.9787 61.4196 37.9787C61.4196 37.9787 61.4196 37.9787 61.4196 37.9787C61.4196 37.9787 61.4196 37.9787 61.4196 37.9787C61.4196 37.9787 61.4196 37.9787 61.4196 37.9787C61.4196 37.9787 61.4196 37.9787 61.4196 37.9787C61.4196 37.9787 61.4196 37.9787 61.4197 37.9787C61.4197 37.9787 61.4197 37.9787 61.4197 37.9787C61.4197 37.9787 61.4197 37.9787 61.4197 37.9787C61.4197 37.9787 61.4197 37.9787 61.4197 37.9787C61.4197 37.9787 61.4197 37.9787 61.4197 37.9787C61.4197 37.9787 61.4197 37.9787 61.4197 37.9787C61.4197 37.9787 61.4197 37.9787 61.4197 37.9787C61.4197 37.9788 61.4197 37.9788 61.4197 37.9788C61.4197 37.9788 61.4197 37.9788 61.4197 37.9788C61.4197 37.9788 61.4197 37.9788 61.4197 37.9788C61.4197 37.9788 61.4198 37.9788 61.4198 37.9788C61.4198 37.9788 61.4198 37.9788 61.4198 37.9788C61.4198 37.9788 61.4198 37.9788 61.4198 37.9788C61.4198 37.9788 61.4198 37.9788 61.4198 37.9788C61.4198 37.9788 61.4198 37.9788 61.4198 37.9788C61.4198 37.9788 61.4198 37.9788 61.4198 37.9788C61.4198 37.9788 61.4198 37.9788 61.4198 37.9788C61.4198 37.9788 61.4198 37.9788 61.4198 37.9788C61.4198 37.9788 61.4198 37.9788 61.4198 37.9788C61.4198 37.9788 61.4198 37.9788 61.4198 37.9788C61.4198 37.9788 61.4199 37.9788 61.4199 37.9789C61.4199 37.9789 61.4199 37.9789 61.4199 37.9789C61.4199 37.9789 61.4199 37.9789 61.4199 37.9789C61.4199 37.9789 61.4199 37.9789 61.4199 37.9789C61.4199 37.9789 61.4199 37.9789 61.4199 37.9789C61.4199 37.9789 61.4199 37.9789 61.4199 37.9789C61.4199 37.9789 61.4199 37.9789 61.4199 37.9789C61.4199 37.9789 61.4199 37.9789 61.4199 37.9789C61.4199 37.9789 61.4199 37.9789 61.4199 37.9789C61.4199 37.9789 61.4199 37.9789 61.42 37.9789C61.42 37.9789 61.42 37.9789 61.42 37.9789C61.42 37.9789 61.42 37.9789 61.42 37.9789C61.42 37.9789 61.42 37.9789 61.42 37.9789C61.42 37.9789 61.42 37.9789 61.42 37.9789C61.42 37.979 61.42 37.979 61.42 37.979C61.42 37.979 61.42 37.979 61.42 37.979C61.42 37.979 61.42 37.979 61.42 37.979C61.42 37.979 61.42 37.979 61.42 37.979C61.42 37.979 61.42 37.979 61.42 37.979C61.42 37.979 61.4201 37.979 61.4201 37.979C61.4201 37.979 61.4201 37.979 61.4201 37.979C61.4201 37.979 61.4201 37.979 61.4201 37.979C61.4201 37.979 61.4201 37.979 61.4201 37.979C61.4201 37.979 61.4201 37.979 61.4201 37.979C61.4201 37.979 61.4201 37.979 61.4201 37.979C61.4201 37.979 61.4201 37.979 61.4201 37.979C61.4201 37.979 61.4201 37.979 61.4201 37.979C61.4201 37.979 61.4201 37.979 61.4201 37.9791C61.4201 37.9791 61.4201 37.9791 61.4201 37.9791C61.4202 37.9791 61.4202 37.9791 61.4202 37.9791C61.4202 37.9791 61.4202 37.9791 61.4202 37.9791C61.4202 37.9791 61.4202 37.9791 61.4202 37.9791C61.4202 37.9791 61.4202 37.9791 61.4202 37.9791C61.4202 37.9791 61.4202 37.9791 61.4202 37.9791C61.4202 37.9791 61.4202 37.9791 61.4202 37.9791C61.4202 37.9791 61.4202 37.9791 61.4202 37.9791C61.4202 37.9791 61.4202 37.9791 61.4202 37.9791C61.4202 37.9791 61.4202 37.9791 61.4202 37.9791C61.4202 37.9791 61.4202 37.9791 61.4203 37.9791C61.4203 37.9791 61.4203 37.9791 61.4203 37.9791C61.4203 37.9791 61.4203 37.9791 61.4203 37.9791C61.4203 37.9792 61.4203 37.9792 61.4203 37.9792C61.4203 37.9792 61.4203 37.9792 61.4203 37.9792C61.4203 37.9792 61.4203 37.9792 61.4203 37.9792C61.4203 37.9792 61.4203 37.9792 61.4203 37.9792C61.4203 37.9792 61.4203 37.9792 61.4203 37.9792C61.4203 37.9792 61.4203 37.9792 61.4203 37.9792C61.4203 37.9792 61.4203 37.9792 61.4203 37.9792C61.4203 37.9792 61.4204 37.9792 61.4204 37.9792C61.4204 37.9792 61.4204 37.9792 61.4204 37.9792C61.4204 37.9792 61.4204 37.9792 61.4204 37.9792C61.4204 37.9792 61.4204 37.9792 61.4204 37.9792C61.4204 37.9792 61.4204 37.9792 61.4204 37.9792C61.4204 37.9792 61.4204 37.9792 61.4204 37.9792C61.4204 37.9792 61.4204 37.9792 61.4204 37.9793C61.4204 37.9793 61.4204 37.9793 61.4204 37.9793C61.4204 37.9793 61.4204 37.9793 61.4204 37.9793C61.4204 37.9793 61.4204 37.9793 61.4205 37.9793C61.4205 37.9793 61.4205 37.9793 61.4205 37.9793C61.4205 37.9793 61.4205 37.9793 61.4205 37.9793C61.4205 37.9793 61.4205 37.9793 61.4205 37.9793C61.4205 37.9793 61.4205 37.9793 61.4205 37.9793C61.4205 37.9793 61.4205 37.9793 61.4205 37.9793C61.4205 37.9793 61.4205 37.9793 61.4205 37.9793C61.4205 37.9793 61.4205 37.9793 61.4205 37.9793C61.4205 37.9793 61.4205 37.9793 61.4205 37.9793C61.4205 37.9793 61.4205 37.9793 61.4205 37.9793C61.4205 37.9793 61.4206 37.9793 61.4206 37.9793C61.4206 37.9794 61.4206 37.9794 61.4206 37.9794C61.4206 37.9794 61.4206 37.9794 61.4206 37.9794C61.4206 37.9794 61.4206 37.9794 61.4206 37.9794C61.4206 37.9794 61.4206 37.9794 61.4206 37.9794C61.4206 37.9794 61.4206 37.9794 61.4206 37.9794C61.4206 37.9794 61.4206 37.9794 61.4206 37.9794C61.4206 37.9794 61.4206 37.9794 61.4206 37.9794C61.4206 37.9794 61.4206 37.9794 61.4206 37.9794C61.4206 37.9794 61.4206 37.9794 61.4206 37.9794C61.4207 37.9794 61.4207 37.9794 61.4207 37.9794C61.4207 37.9794 61.4207 37.9794 61.4207 37.9794C61.4207 37.9794 61.4207 37.9794 61.4207 37.9794C61.4207 37.9794 61.4207 37.9794 61.4207 37.9794C61.4207 37.9794 61.4207 37.9795 61.4207 37.9795C61.4207 37.9795 61.4207 37.9795 61.4207 37.9795C61.4207 37.9795 61.4207 37.9795 61.4207 37.9795C61.4207 37.9795 61.4207 37.9795 61.4207 37.9795C61.4207 37.9795 61.4207 37.9795 61.4207 37.9795C61.4207 37.9795 61.4207 37.9795 61.4208 37.9795C61.4208 37.9795 61.4208 37.9795 61.4208 37.9795C61.4208 37.9795 61.4208 37.9795 61.4208 37.9795C61.4208 37.9795 61.4208 37.9795 61.4208 37.9795C61.4208 37.9795 61.4208 37.9795 61.4208 37.9795C61.4208 37.9795 61.4208 37.9795 61.4208 37.9795C61.4208 37.9795 61.4208 37.9795 61.4208 37.9795C61.4208 37.9795 61.4208 37.9795 61.4208 37.9795C61.4208 37.9795 61.4208 37.9795 61.4208 37.9795C61.4208 37.9796 61.4208 37.9796 61.4208 37.9796C61.4208 37.9796 61.4209 37.9796 61.4209 37.9796C61.4209 37.9796 61.4209 37.9796 61.4209 37.9796C61.4209 37.9796 61.4209 37.9796 61.4209 37.9796C61.4209 37.9796 61.4209 37.9796 61.4209 37.9796C61.4209 37.9796 61.4209 37.9796 61.4209 37.9796C61.4209 37.9796 61.4209 37.9796 61.4209 37.9796C61.4209 37.9796 61.4209 37.9796 61.4209 37.9796C61.4209 37.9796 61.4209 37.9796 61.4209 37.9796C61.4209 37.9796 61.4209 37.9796 61.4209 37.9796C61.4209 37.9796 61.4209 37.9796 61.4209 37.9796C61.421 37.9796 61.421 37.9796 61.421 37.9796C61.421 37.9796 61.421 37.9796 61.421 37.9796C61.421 37.9796 61.421 37.9797 61.421 37.9797C61.421 37.9797 61.421 37.9797 61.421 37.9797C61.421 37.9797 61.421 37.9797 61.421 37.9797C61.421 37.9797 61.421 37.9797 61.421 37.9797C61.421 37.9797 61.421 37.9797 61.421 37.9797C61.421 37.9797 61.421 37.9797 61.421 37.9797C61.421 37.9797 61.421 37.9797 61.421 37.9797C61.421 37.9797 61.4211 37.9797 61.4211 37.9797C61.4211 37.9797 61.4211 37.9797 61.4211 37.9797C61.4211 37.9797 61.4211 37.9797 61.4211 37.9797C61.4211 37.9797 61.4211 37.9797 61.4211 37.9797C61.4211 37.9797 61.4211 37.9797 61.4211 37.9797C61.4211 37.9797 61.4211 37.9797 61.4211 37.9797C61.4211 37.9797 61.4211 37.9797 61.4211 37.9797C61.4211 37.9798 61.4211 37.9798 61.4211 37.9798C61.4211 37.9798 61.4211 37.9798 61.4211 37.9798C61.4211 37.9798 61.4211 37.9798 61.4211 37.9798C61.4212 37.9798 61.4212 37.9798 61.4212 37.9798C61.4212 37.9798 61.4212 37.9798 61.4212 37.9798C61.4212 37.9798 61.4212 37.9798 61.4212 37.9798C61.4212 37.9798 61.4212 37.9798 61.4212 37.9798C61.4212 37.9798 61.4212 37.9798 61.4212 37.9798C61.4212 37.9798 61.4212 37.9798 61.4212 37.9798C61.4212 37.9798 61.4212 37.9798 61.4212 37.9798C61.4212 37.9798 61.4212 37.9798 61.4212 37.9798C61.4212 37.9798 61.4212 37.9798 61.4212 37.9798C61.4212 37.9798 61.4212 37.9798 61.4212 37.9798C61.4213 37.9798 61.4213 37.9799 61.4213 37.9799C61.4213 37.9799 61.4213 37.9799 61.4213 37.9799C61.4213 37.9799 61.4213 37.9799 61.4213 37.9799C61.4213 37.9799 61.4213 37.9799 61.4213 37.9799C61.4213 37.9799 61.4213 37.9799 61.4213 37.9799C61.4213 37.9799 61.4213 37.9799 61.4213 37.9799C61.4213 37.9799 61.4213 37.9799 61.4213 37.9799C61.4213 37.9799 61.4213 37.9799 61.4213 37.9799C61.4213 37.9799 61.4213 37.9799 61.4213 37.9799C61.4213 37.9799 61.4214 37.9799 61.4214 37.9799C61.4214 37.9799 61.4214 37.9799 61.4214 37.9799C61.4214 37.9799 61.4214 37.9799 61.4214 37.9799C61.4214 37.9799 61.4214 37.9799 61.4214 37.9799C61.4214 37.9799 61.4214 37.9799 61.4214 37.9799C61.4214 37.98 61.4214 37.98 61.4214 37.98C61.4214 37.98 61.4214 37.98 61.4214 37.98C61.4214 37.98 61.4214 37.98 61.4214 37.98C61.4214 37.98 61.4214 37.98 61.4214 37.98C61.4214 37.98 61.4214 37.98 61.4214 37.98C61.4215 37.98 61.4215 37.98 61.4215 37.98C61.4215 37.98 61.4215 37.98 61.4215 37.98C61.4215 37.98 61.4215 37.98 61.4215 37.98C61.4215 37.98 61.4215 37.98 61.4215 37.98C61.4215 37.98 61.4215 37.98 61.4215 37.98C61.4215 37.98 61.4215 37.98 61.4215 37.98C61.4215 37.98 61.4215 37.98 61.4215 37.98C61.4215 37.98 61.4215 37.98 61.4215 37.98C61.4215 37.98 61.4215 37.9801 61.4215 37.9801C61.4215 37.9801 61.4215 37.9801 61.4216 37.9801C61.4216 37.9801 61.4216 37.9801 61.4216 37.9801C61.4216 37.9801 61.4216 37.9801 61.4216 37.9801C61.4216 37.9801 61.4216 37.9801 61.4216 37.9801C61.4216 37.9801 61.4216 37.9801 61.4216 37.9801C61.4216 37.9801 61.4216 37.9801 61.4216 37.9801C61.4216 37.9801 61.4216 37.9801 61.4216 37.9801C61.4216 37.9801 61.4216 37.9801 61.4216 37.9801C61.4216 37.9801 61.4216 37.9801 61.4216 37.9801C61.4216 37.9801 61.4216 37.9801 61.4216 37.9801C61.4216 37.9801 61.4217 37.9801 61.4217 37.9801C61.4217 37.9801 61.4217 37.9801 61.4217 37.9801C61.4217 37.9801 61.4217 37.9801 61.4217 37.9802C61.4217 37.9802 61.4217 37.9802 61.4217 37.9802C61.4217 37.9802 61.4217 37.9802 61.4217 37.9802C61.4217 37.9802 61.4217 37.9802 61.4217 37.9802C61.4217 37.9802 61.4217 37.9802 61.4217 37.9802C61.4217 37.9802 61.4217 37.9802 61.4217 37.9802C61.4217 37.9802 61.4217 37.9802 61.4217 37.9802C61.4217 37.9802 61.4217 37.9802 61.4217 37.9802C61.4218 37.9802 61.4218 37.9802 61.4218 37.9802C61.4218 37.9802 61.4218 37.9802 61.4218 37.9802C61.4218 37.9802 61.4218 37.9802 61.4218 37.9802C61.4218 37.9802 61.4218 37.9802 61.4218 37.9802C61.4218 37.9802 61.4218 37.9802 61.4218 37.9802C61.4218 37.9802 61.4218 37.9802 61.4218 37.9802C61.4218 37.9802 61.4218 37.9803 61.4218 37.9803C61.4218 37.9803 61.4218 37.9803 61.4218 37.9803C61.4218 37.9803 61.4218 37.9803 61.4218 37.9803C61.4218 37.9803 61.4218 37.9803 61.4219 37.9803C61.4219 37.9803 61.4219 37.9803 61.4219 37.9803C61.4219 37.9803 61.4219 37.9803 61.4219 37.9803C61.4219 37.9803 61.4219 37.9803 61.4219 37.9803C61.4219 37.9803 61.4219 37.9803 61.4219 37.9803C61.4219 37.9803 61.4219 37.9803 61.4219 37.9803C61.4219 37.9803 61.4219 37.9803 61.4219 37.9803C61.4219 37.9803 61.4219 37.9803 61.4219 37.9803C61.4219 37.9803 61.4219 37.9803 61.4219 37.9803C61.4219 37.9803 61.4219 37.9803 61.4219 37.9803C61.422 37.9803 61.422 37.9803 61.422 37.9804C61.422 37.9804 61.422 37.9804 61.422 37.9804C61.422 37.9804 61.422 37.9804 61.422 37.9804C61.422 37.9804 61.422 37.9804 61.422 37.9804C61.422 37.9804 61.422 37.9804 61.422 37.9804C61.422 37.9804 61.422 37.9804 61.422 37.9804C61.422 37.9804 61.422 37.9804 61.422 37.9804C61.422 37.9804 61.422 37.9804 61.422 37.9804C61.422 37.9804 61.422 37.9804 61.422 37.9804C61.422 37.9804 61.422 37.9804 61.4221 37.9804C61.4221 37.9804 61.4221 37.9804 61.4221 37.9804C61.4221 37.9804 61.4221 37.9804 61.4221 37.9804C61.4221 37.9804 61.4221 37.9804 61.4221 37.9804C61.4221 37.9804 61.4221 37.9804 61.4221 37.9804C61.4221 37.9804 61.4221 37.9805 61.4221 37.9805C61.4221 37.9805 61.4221 37.9805 61.4221 37.9805C61.4221 37.9805 61.4221 37.9805 61.4221 37.9805C61.4221 37.9805 61.4221 37.9805 61.4221 37.9805C61.4221 37.9805 61.4221 37.9805 61.4221 37.9805C61.4221 37.9805 61.4221 37.9805 61.4222 37.9805C61.4222 37.9805 61.4222 37.9805 61.4222 37.9805C61.4222 37.9805 61.4222 37.9805 61.4222 37.9805C61.4222 37.9805 61.4222 37.9805 61.4222 37.9805C61.4222 37.9805 61.4222 37.9805 61.4222 37.9805C61.4222 37.9805 61.4222 37.9805 61.4222 37.9805C61.4222 37.9805 61.4222 37.9805 61.4222 37.9805C61.4222 37.9805 61.4222 37.9805 61.4222 37.9805C61.4222 37.9805 61.4222 37.9805 61.4222 37.9806C61.4222 37.9806 61.4222 37.9806 61.4222 37.9806C61.4223 37.9806 61.4223 37.9806 61.4223 37.9806C61.4223 37.9806 61.4223 37.9806 61.4223 37.9806C61.4223 37.9806 61.4223 37.9806 61.4223 37.9806C61.4223 37.9806 61.4223 37.9806 61.4223 37.9806C61.4223 37.9806 61.4223 37.9806 61.4223 37.9806C61.4223 37.9806 61.4223 37.9806 61.4223 37.9806C61.4223 37.9806 61.4223 37.9806 61.4223 37.9806C61.4223 37.9806 61.4223 37.9806 61.4223 37.9806C61.4223 37.9806 61.4223 37.9806 61.4223 37.9806C61.4223 37.9806 61.4223 37.9806 61.4224 37.9806C61.4224 37.9806 61.4224 37.9806 61.4224 37.9806C61.4224 37.9806 61.4224 37.9806 61.4224 37.9806C61.4224 37.9806 61.4224 37.9807 61.4224 37.9807C61.4224 37.9807 61.4224 37.9807 61.4224 37.9807C61.4224 37.9807 61.4224 37.9807 61.4224 37.9807C61.4224 37.9807 61.4224 37.9807 61.4224 37.9807C61.4224 37.9807 61.4224 37.9807 61.4224 37.9807C61.4224 37.9807 61.4224 37.9807 61.4224 37.9807C61.4224 37.9807 61.4224 37.9807 61.4224 37.9807C61.4225 37.9807 61.4225 37.9807 61.4225 37.9807C61.4225 37.9807 61.4225 37.9807 61.4225 37.9807C61.4225 37.9807 61.4225 37.9807 61.4225 37.9807C61.4225 37.9807 61.4225 37.9807 61.4225 37.9807C61.4225 37.9807 61.4225 37.9807 61.4225 37.9807C61.4225 37.9807 61.4225 37.9807 61.4225 37.9807C61.4225 37.9807 61.4225 37.9807 61.4225 37.9808C61.4225 37.9808 61.4225 37.9808 61.4225 37.9808C61.4225 37.9808 61.4225 37.9808 61.4225 37.9808C61.4225 37.9808 61.4225 37.9808 61.4226 37.9808C61.4226 37.9808 61.4226 37.9808 61.4226 37.9808C61.4226 37.9808 61.4226 37.9808 61.4226 37.9808L63.7463 34.725ZM52.2429 28.9971C52.2409 28.9965 52.2371 28.9953 52.2363 28.9951L51.0385 32.8115C51.0418 32.8126 51.0422 32.8127 51.0444 32.8134L52.2429 28.9971ZM49.7415 30.2875L49.1237 32.1898L52.9281 33.4253L53.5459 31.523L49.7415 30.2875ZM50.4217 34.7142C50.4257 34.7154 50.4218 34.7142 50.4283 34.7162L51.6235 30.899C51.6228 30.8987 51.6221 30.8985 51.6208 30.8981C51.6197 30.8978 51.618 30.8972 51.6163 30.8967L50.4217 34.7142ZM52.921 33.4238L53.5394 31.5216L49.7354 30.285L49.117 32.1871L52.921 33.4238ZM39.5697 27.1232C39.5674 27.1232 39.565 27.1232 39.5627 27.1232L39.6055 31.123C39.6076 31.123 39.6096 31.123 39.6118 31.1229L39.5697 27.1232ZM41.5838 31.1236L41.5841 29.1234L37.5841 29.1228L37.5838 31.1229L41.5838 31.1236ZM39.6063 33.1231C39.6087 33.1231 39.611 33.1231 39.6131 33.123L39.5689 29.1233C39.5663 29.1233 39.5636 29.1233 39.5613 29.1234L39.6063 33.1231ZM37.5907 29.1234L37.591 31.1235L41.591 31.1228L41.5907 29.1227L37.5907 29.1234ZM25.7142 31.7641L26.3326 33.6662L30.1366 32.4296L29.5183 30.5275L25.7142 31.7641ZM26.9791 29.25C26.9771 29.2507 26.9748 29.2514 26.9725 29.2522L28.2474 33.0436C28.2493 33.043 28.2511 33.0424 28.2533 33.0416L26.9791 29.25ZM30.1299 32.4325L29.5121 30.5302L25.7077 31.7657L26.3255 33.668L30.1299 32.4325ZM28.8662 34.9456C28.8684 34.9448 28.8702 34.9442 28.8729 34.9433L27.5963 31.1525C27.5944 31.1532 27.5916 31.1541 27.5892 31.1549L28.8662 34.9456Z" fill="#4F4F4F" />
  <g clip-path="url(#clip0)">
    <path d="M39.5898 37V47" stroke="#EB5757" stroke-width="4" stroke-linecap="round" stroke-linejoin="round" />
  </g>
  <defs>
    <clipPath id="clip0">
      <rect width="4" height="26" fill="white" transform="translate(37.5874 29)" />
    </clipPath>
  </defs>
</svg>