<svg viewBox="0 0 80 80" fill="none">
  <path fill-rule="evenodd" clip-rule="evenodd" d="M35.7574 14.2426C38.1005 11.8994 41.8995 11.8994 44.2426 14.2426L60.2426 30.2426C61.3679 31.3678 62 32.8939 62 34.4852L62 63.9999C62 67.3137 59.3137 69.9999 56 69.9999H24C20.6863 69.9999 18 67.3137 18 63.9999V34.4852C18 32.8939 18.6321 31.3678 19.7574 30.2426L35.7574 14.2426Z" fill="#FFC200" class="fill-yellow" />
  <path d="M60.2426 30.2426L61.6569 28.8284L60.2426 30.2426ZM62 34.4852H60H62ZM61.6569 28.8284L45.6569 12.8284L42.8284 15.6568L58.8284 31.6568L61.6569 28.8284ZM60 34.4852L60 63.9999H64L64 34.4852H60ZM56 67.9999H24V71.9999H56V67.9999ZM20 63.9999V34.4852H16V63.9999H20ZM34.3431 12.8284L18.3431 28.8284L21.1716 31.6568L37.1716 15.6568L34.3431 12.8284ZM20 34.4852C20 33.4244 20.4214 32.4069 21.1716 31.6568L18.3431 28.8284C16.8429 30.3287 16 32.3635 16 34.4852H20ZM24 67.9999C21.7909 67.9999 20 66.2091 20 63.9999H16C16 68.4182 19.5817 71.9999 24 71.9999V67.9999ZM60 63.9999C60 66.2091 58.2091 67.9999 56 67.9999V71.9999C60.4183 71.9999 64 68.4182 64 63.9999H60ZM45.6569 12.8284C42.5327 9.70419 37.4673 9.70418 34.3431 12.8284L37.1716 15.6568C38.7337 14.0947 41.2663 14.0947 42.8284 15.6568L45.6569 12.8284ZM58.8284 31.6568C59.5786 32.4069 60 33.4244 60 34.4852H64C64 32.3635 63.1572 30.3287 61.6569 28.8284L58.8284 31.6568Z" fill="#FFC200" class="fill-yellow" />
  <path d="M36.5 28.5C38.433 26.567 41.567 26.567 43.5 28.5C45.433 30.433 45.433 33.567 43.5 35.5C41.567 37.433 38.433 37.433 36.5 35.5C34.567 33.567 34.567 30.433 36.5 28.5Z" fill="#FFC200" stroke="#D33131" stroke-width="4" stroke-linecap="round" stroke-linejoin="round" class="fill-yellow stroke-red" />
</svg>