<svg viewBox="0 0 80 80" fill="none">
  <path fill-rule="evenodd" clip-rule="evenodd" d="M22.2787 11.8446C19.5684 13.1997 17.8564 15.9698 17.8564 19L17.8564 42.7063C17.8564 43.3557 17.5346 43.9573 17.0338 44.3707C13.8766 46.9771 12 50.8828 12 55.0557C12 60.0061 14.641 64.5805 18.9282 67.0557C23.2154 69.5309 28.4974 69.5309 32.7846 67.0557C37.0718 64.5805 39.7128 60.0061 39.7128 55.0557C39.7128 50.8828 37.8363 46.9771 34.679 44.3707C34.1782 43.9573 33.8564 43.3557 33.8564 42.7063V19C33.8564 15.9698 32.1444 13.1997 29.4341 11.8446C27.1819 10.7185 24.5309 10.7185 22.2787 11.8446Z" fill="#F4F4F4" class="fill-white" />
  <path d="M22.2787 11.8446L23.1731 13.6334V13.6334L22.2787 11.8446ZM18.9282 67.0557L17.9282 68.7878L18.9282 67.0557ZM32.7846 67.0557L33.7846 68.7878L32.7846 67.0557ZM29.4341 11.8446L30.3285 10.0557L30.3285 10.0557L29.4341 11.8446ZM34.679 44.3707L33.4057 45.913L34.679 44.3707ZM17.0338 44.3707L15.7605 42.8284L17.0338 44.3707ZM19.8564 19C19.8564 16.7274 21.1404 14.6498 23.1731 13.6334L21.3843 10.0557C17.9964 11.7496 15.8564 15.2123 15.8564 19H19.8564ZM19.8564 42.7063L19.8564 19H15.8564L15.8564 42.7063H19.8564ZM14 55.0557C14 51.4855 15.6055 48.1433 18.3071 45.913L15.7605 42.8284C12.1476 45.811 10 50.2802 10 55.0557H14ZM19.9282 65.3237C16.2598 63.2057 14 59.2916 14 55.0557H10C10 60.7207 13.0222 65.9553 17.9282 68.7878L19.9282 65.3237ZM31.7846 65.3237C28.1162 67.4416 23.5966 67.4416 19.9282 65.3237L17.9282 68.7878C22.8342 71.6203 28.8786 71.6203 33.7846 68.7878L31.7846 65.3237ZM37.7128 55.0557C37.7128 59.2916 35.453 63.2057 31.7846 65.3237L33.7846 68.7878C38.6906 65.9553 41.7128 60.7207 41.7128 55.0557H37.7128ZM33.4057 45.913C36.1073 48.1433 37.7128 51.4855 37.7128 55.0557H41.7128C41.7128 50.2802 39.5652 45.811 35.9523 42.8284L33.4057 45.913ZM31.8564 19L31.8564 42.7063H35.8564V19H31.8564ZM28.5397 13.6334C30.5724 14.6498 31.8564 16.7274 31.8564 19H35.8564C35.8564 15.2123 33.7164 11.7496 30.3285 10.0557L28.5397 13.6334ZM23.1731 13.6334C24.8623 12.7889 26.8505 12.7889 28.5397 13.6334L30.3285 10.0557C27.5133 8.64809 24.1995 8.64809 21.3843 10.0557L23.1731 13.6334ZM35.9523 42.8284C35.905 42.7893 35.8779 42.7506 35.8651 42.7254C35.8535 42.7024 35.8564 42.6968 35.8564 42.7063H31.8564C31.8564 44.0308 32.5087 45.1725 33.4057 45.913L35.9523 42.8284ZM15.8564 42.7063C15.8564 42.6968 15.8593 42.7024 15.8477 42.7254C15.8349 42.7506 15.8079 42.7893 15.7605 42.8284L18.3071 45.913C19.2041 45.1725 19.8564 44.0308 19.8564 42.7063H15.8564Z" fill="#F4F4F4" class="fill-white" />
  <path fill-rule="evenodd" clip-rule="evenodd" d="M29.2668 49H22.5329C22.4994 49.0186 22.4661 49.0375 22.4329 49.0566C20.2893 50.2942 18.9688 52.5814 18.9688 55.0566C18.9688 57.5318 20.2893 59.819 22.4329 61.0566C24.5764 62.2942 27.2175 62.2942 29.3611 61.0566C31.5046 59.819 32.8252 57.5318 32.8252 55.0566C32.8252 52.5814 31.5046 50.2942 29.3611 49.0566C29.3293 49.0383 29.2979 49.0194 29.2668 49Z" fill="#1CB0F6" class="fill-blue" />
  <path d="M53.04 11.4567C52.232 10.7036 50.9664 10.7481 50.2133 11.5561C49.4602 12.3641 49.5047 13.6297 50.3127 14.3828L53.04 11.4567ZM55.0015 16.019L53.6379 17.482C54.406 18.1979 55.597 18.1979 56.3652 17.482L55.0015 16.019ZM49.0177 19.4737L49.603 21.3862C50.607 21.0789 51.2025 20.0475 50.9666 19.0243L49.0177 19.4737ZM49.9452 14.595C49.697 13.5187 48.6232 12.8474 47.5469 13.0956C46.4706 13.3438 45.7993 14.4175 46.0475 15.4938L49.9452 14.595ZM59.6894 14.3837C60.4974 13.6306 60.5419 12.365 59.7888 11.557C59.0357 10.749 57.7701 10.7045 56.9621 11.4576L59.6894 14.3837ZM63.9553 15.4951C64.2035 14.4188 63.5322 13.3451 62.4559 13.0969C61.3796 12.8487 60.3058 13.52 60.0576 14.5963L63.9553 15.4951ZM60.9853 19.4737L59.0365 19.0243C58.8005 20.0475 59.396 21.0789 60.4001 21.3862L60.9853 19.4737ZM64.8073 22.7348C65.8636 23.058 66.9818 22.4638 67.305 21.4075C67.6282 20.3513 67.034 19.2331 65.9778 18.9099L64.8073 22.7348ZM65.9778 26.947C67.034 26.6238 67.6282 25.5056 67.305 24.4494C66.9818 23.3931 65.8636 22.7989 64.8073 23.1221L65.9778 26.947ZM60.9853 26.3832L60.4001 24.4707C59.396 24.778 58.8005 25.8094 59.0365 26.8326L60.9853 26.3832ZM60.087 31.3881C60.3352 32.4644 61.409 33.1357 62.4853 32.8875C63.5616 32.6393 64.2329 31.5656 63.9847 30.4893L60.087 31.3881ZM57.0578 34.4885C57.8658 35.2416 59.1314 35.1971 59.8845 34.3891C60.6376 33.5811 60.5931 32.3155 59.7851 31.5624L57.0578 34.4885ZM55.0015 29.8379L56.3652 28.3749C55.597 27.659 54.406 27.659 53.6379 28.3749L55.0015 29.8379ZM50.217 31.5633C49.409 32.3165 49.3645 33.582 50.1176 34.39C50.8707 35.198 52.1363 35.2425 52.9443 34.4894L50.217 31.5633ZM46.0181 30.4906C45.7699 31.5669 46.4412 32.6406 47.5175 32.8888C48.5938 33.1371 49.6676 32.4657 49.9158 31.3894L46.0181 30.4906ZM49.0177 26.3832L50.9666 26.8326C51.2026 25.8094 50.607 24.778 49.603 24.4707L49.0177 26.3832ZM45.1932 23.1213C44.1369 22.7981 43.0187 23.3923 42.6955 24.4486C42.3723 25.5048 42.9665 26.623 44.0227 26.9463L45.1932 23.1213ZM44.0227 18.9106C42.9665 19.2339 42.3723 20.3521 42.6955 21.4083C43.0187 22.4646 44.1369 23.0588 45.1932 22.7356L44.0227 18.9106ZM50.3127 14.3828L53.6379 17.482L56.3652 14.5559L53.04 11.4567L50.3127 14.3828ZM50.9666 19.0243L49.9452 14.595L46.0475 15.4938L47.0689 19.9231L50.9666 19.0243ZM56.3652 17.482L59.6894 14.3837L56.9621 11.4576L53.6379 14.5559L56.3652 17.482ZM60.0576 14.5963L59.0365 19.0243L62.9342 19.9231L63.9553 15.4951L60.0576 14.5963ZM60.4001 21.3862L64.8073 22.7348L65.9778 18.9099L61.5706 17.5612L60.4001 21.3862ZM64.8073 23.1221L60.4001 24.4707L61.5706 28.2957L65.9778 26.947L64.8073 23.1221ZM59.0365 26.8326L60.087 31.3881L63.9847 30.4893L62.9342 25.9338L59.0365 26.8326ZM59.7851 31.5624L56.3652 28.3749L53.6379 31.301L57.0578 34.4885L59.7851 31.5624ZM53.6379 28.3749L50.217 31.5633L52.9443 34.4894L56.3652 31.301L53.6379 28.3749ZM49.9158 31.3894L50.9666 26.8326L47.0689 25.9338L46.0181 30.4906L49.9158 31.3894ZM49.603 24.4707L45.1932 23.1213L44.0227 26.9463L48.4325 28.2957L49.603 24.4707ZM45.1932 22.7356L49.603 21.3862L48.4325 17.5612L44.0227 18.9106L45.1932 22.7356Z" fill="#84D3FF" class="fill-blue" />
  <path d="M55.0002 11L57.0002 10.998C56.9991 9.89421 56.104 9 55.0002 9C53.8964 9 53.0013 9.89421 53.0002 10.998L55.0002 11ZM65.3925 17L66.3943 18.731C67.3496 18.1782 67.6765 16.9559 67.1246 16C66.5727 15.0441 65.3507 14.716 64.3943 15.2669L65.3925 17ZM65.3925 29L64.3943 30.7331C65.3507 31.284 66.5727 30.9559 67.1246 30C67.6765 29.0441 67.3496 27.8218 66.3943 27.269L65.3925 29ZM55.0002 35L53.0002 35.002C53.0013 36.1058 53.8964 37 55.0002 37C56.104 37 56.9991 36.1058 57.0002 35.002L55.0002 35ZM44.6079 29L43.6062 27.269C42.6508 27.8218 42.324 29.0441 42.8759 30C43.4278 30.9559 44.6497 31.284 45.6062 30.7331L44.6079 29ZM44.6079 17L45.6062 15.2669C44.6497 14.716 43.4278 15.0441 42.8759 16C42.324 16.9559 42.6508 18.1782 43.6062 18.731L44.6079 17ZM50.496 20.3916L51.4943 18.6586L50.496 20.3916ZM54.9934 17.7951L56.9934 17.7971L54.9934 17.7951ZM50.4892 20.4034L49.4875 22.1345L50.4892 20.4034ZM54.9934 28.2049L56.9934 28.2029L54.9934 28.2049ZM50.496 25.6084L51.4943 27.3414L50.496 25.6084ZM55.007 28.2049L53.007 28.2029L55.007 28.2049ZM59.5112 20.4034L60.513 22.1345L59.5112 20.4034ZM59.5112 25.5966L60.513 23.8655L59.5112 25.5966ZM55.007 17.7951L53.007 17.7971L55.007 17.7951ZM59.5044 20.3916L60.5027 22.1247L59.5044 20.3916ZM53.0002 11.002L53.007 17.7971L57.007 17.7931L57.0002 10.998L53.0002 11.002ZM60.5027 22.1247L66.3908 18.7331L64.3943 15.2669L58.5062 18.6586L60.5027 22.1247ZM64.3908 15.269L58.5095 18.6724L60.513 22.1345L66.3943 18.731L64.3908 15.269ZM58.5095 27.3276L64.3908 30.731L66.3943 27.269L60.513 23.8655L58.5095 27.3276ZM66.3908 27.2669L60.5027 23.8753L58.5062 27.3414L64.3943 30.7331L66.3908 27.2669ZM53.007 28.2029L53.0002 34.998L57.0002 35.002L57.007 28.2069L53.007 28.2029ZM57.0002 34.998L56.9934 28.2029L52.9934 28.2069L53.0002 35.002L57.0002 34.998ZM49.4977 23.8753L43.6096 27.2669L45.6062 30.7331L51.4943 27.3414L49.4977 23.8753ZM45.6096 30.731L51.4909 27.3276L49.4875 23.8655L43.6062 27.269L45.6096 30.731ZM51.4909 18.6724L45.6096 15.269L43.6062 18.731L49.4875 22.1345L51.4909 18.6724ZM43.6096 18.7331L49.4977 22.1247L51.4943 18.6586L45.6062 15.2669L43.6096 18.7331ZM56.9934 17.7971L57.0002 11.002L53.0002 10.998L52.9934 17.7931L56.9934 17.7971ZM49.4977 22.1247C52.8291 24.0436 56.9896 21.6416 56.9934 17.7971L52.9934 17.7931C52.9926 18.562 52.1606 19.0424 51.4943 18.6586L49.4977 22.1247ZM51.4909 27.3276C54.8185 25.402 54.8185 20.598 51.4909 18.6724L49.4875 22.1345C50.153 22.5196 50.153 23.4804 49.4875 23.8655L51.4909 27.3276ZM56.9934 28.2029C56.9896 24.3584 52.8292 21.9564 49.4977 23.8753L51.4943 27.3414C52.1606 26.9576 52.9926 27.438 52.9934 28.2069L56.9934 28.2029ZM60.5027 23.8753C57.1713 21.9564 53.0109 24.3584 53.007 28.2029L57.007 28.2069C57.0078 27.438 57.8399 26.9576 58.5062 27.3414L60.5027 23.8753ZM58.5095 18.6724C55.1819 20.598 55.1819 25.402 58.5095 27.3276L60.513 23.8655C59.8474 23.4804 59.8474 22.5196 60.513 22.1345L58.5095 18.6724ZM53.007 17.7971C53.0109 21.6416 57.1713 24.0436 60.5027 22.1247L58.5062 18.6586C57.8399 19.0424 57.0078 18.562 57.007 17.7931L53.007 17.7971Z" fill="#84D3FF" class="fill-blue" />
</svg>