<svg viewBox="0 0 80 80" fill="none">
  <rect x="39.9412" y="6" width="48" height="48" rx="4" transform="rotate(45 39.9412 6)" fill="#FFC200" stroke="#FFC200" stroke-width="4" stroke-linecap="round" stroke-linejoin="round" class="fill-yellow stroke-yellow" />
  <path d="M48.0522 36.4805C49.1568 36.4805 50.0522 35.585 50.0522 34.4805C50.0522 33.3759 49.1568 32.4805 48.0522 32.4805V36.4805ZM24.941 51.2497C24.941 52.3543 25.8365 53.2497 26.941 53.2497C28.0456 53.2497 28.941 52.3543 28.941 51.2497H24.941ZM48.0522 32.4805H36.941V36.4805H48.0522V32.4805ZM24.941 44.4805V51.2497H28.941V44.4805H24.941ZM36.941 32.4805C30.3136 32.4805 24.941 37.8531 24.941 44.4805H28.941C28.941 40.0622 32.5228 36.4805 36.941 36.4805V32.4805Z" fill="#252525" class="fill-grey" />
  <path d="M48.0523 40.5078L48.0523 28.4537C48.0523 27.2911 49.4681 26.7202 50.2745 27.5577L55.7851 33.2802C56.4305 33.9505 56.4305 35.0111 55.7851 35.6813L50.2745 41.4038C49.4681 42.2413 48.0523 41.6704 48.0523 40.5078Z" fill="#252525" stroke="#252525" stroke-width="4" stroke-linecap="round" stroke-linejoin="round" class="fill-grey stroke-grey" />
</svg>