<svg viewBox="0 0 80 80" fill="none">
  <rect x="40" y="6" width="48" height="48" rx="2" transform="rotate(45 40 6)" fill="#FFC200" stroke="#FFC200" stroke-width="4" stroke-linecap="round" stroke-linejoin="round" />
  <path d="M32.4286 46C32.4286 47.1046 31.5332 48 30.4286 48C29.324 48 28.4286 47.1046 28.4286 46L32.4286 46ZM30.4286 34L28.4286 34L30.4286 34ZM38.4286 26L38.4286 28L38.4286 26ZM41 26L41 24L41 26ZM49 34L47 34L49 34ZM49 40L51 40L49 40ZM49 47L47 47L49 47ZM51 50C51 51.1046 50.1046 52 49 52C47.8955 52 47 51.1046 47 50L51 50ZM28.4286 46L28.4286 34L32.4286 34L32.4286 46L28.4286 46ZM38.4286 24L41 24L41 28L38.4286 28L38.4286 24ZM51 34L51 40L47 40L47 34L51 34ZM51 40L51 47L47 47L47 40L51 40ZM51 47L51 50L47 50L47 47L51 47ZM41 24C46.5229 24 51 28.4771 51 34L47 34C47 30.6863 44.3137 28 41 28L41 24ZM28.4286 34C28.4286 28.4772 32.9057 24 38.4286 24L38.4286 28C35.1149 28 32.4286 30.6863 32.4286 34L28.4286 34Z" fill="#252525" />
  <path d="M35.1279 46L25.7293 46C24.6901 46 24.15 47.2385 24.8571 48L29.0153 52.478C29.7783 53.2997 31.0788 53.2997 31.8418 52.478L36 48C36.7071 47.2385 36.1671 46 35.1279 46Z" fill="#252525" stroke="#252525" stroke-width="2" stroke-linecap="round" stroke-linejoin="round" />
</svg>