<svg viewBox="0 0 80 80" fill="none">
  <path fill-rule="evenodd" clip-rule="evenodd" d="M36 12C33.7909 12 32 13.7909 32 16V27.5697C32.7378 27.0949 33.5213 26.6836 34.3431 26.3431C37.9652 24.8429 42.0348 24.8429 45.6569 26.3431C46.4787 26.6836 47.2622 27.0949 48 27.5697V16C48 13.7909 46.2091 12 44 12H43.0769H36.9231H36ZM48 52.4303C47.2622 52.9051 46.4787 53.3164 45.6569 53.6569C42.0348 55.1571 37.9652 55.1571 34.3431 53.6569C33.5213 53.3164 32.7378 52.9051 32 52.4303V64C32 66.2091 33.7909 68 36 68H36.9231H43.0769H44C46.2091 68 48 66.2091 48 64V52.4303Z" fill="#1CB0F6" class="fill-blue" />
  <path d="M34.3431 26.3431C37.9652 24.8429 42.0348 24.8429 45.6569 26.3431C49.2789 27.8434 52.1566 30.7211 53.6569 34.3431C55.1571 37.9652 55.1571 42.0348 53.6569 45.6569C52.1566 49.2789 49.2789 52.1566 45.6569 53.6569C42.0348 55.1571 37.9652 55.1571 34.3431 53.6569C30.7211 52.1566 27.8434 49.2789 26.3431 45.6569C24.8429 42.0348 24.8429 37.9652 26.3431 34.3431C27.8434 30.7211 30.7211 27.8434 34.3431 26.3431Z" fill="#F4F4F4" stroke="#84D3FF" stroke-width="4" stroke-linecap="round" stroke-linejoin="round" class="fill-white stroke-blue" />
</svg>