<svg viewBox="0 0 80 80" fill="none">
  <path d="M25.0667 14C23.9621 14 23.0667 14.8954 23.0667 16C23.0667 17.1046 23.9621 18 25.0667 18V14ZM54.9333 16H56.9333C56.9333 14.8954 56.0379 14 54.9333 14V16ZM56 66C57.1046 66 58 65.1046 58 64C58 62.8954 57.1046 62 56 62V66ZM24 64H22C22 65.1046 22.8954 66 24 66V64ZM54.9333 17L56.593 18.1161C56.8148 17.7861 56.9333 17.3976 56.9333 17H54.9333ZM24 63L22.3404 61.8839C22.1185 62.2139 22 62.6024 22 63H24ZM25.0667 18H54.9333V14H25.0667V18ZM56 62H24V66H56V62ZM52.9333 16V17H56.9333V16H52.9333ZM53.2737 15.8839L22.3404 61.8839L25.6596 64.1161L56.593 18.1161L53.2737 15.8839ZM22 63V64H26V63H22Z" fill="#1CB0F6" class="fill-blue" />
</svg>