<svg viewBox="0 0 80 80" fill="none">
  <path d="M51.6538 58.0519C53.2991 60.0717 55.2734 62.4191 55.2734 62.4191C67.3933 62.037 72 54.176 72 54.2306C72 36.8165 64.1028 22.6778 64.1028 22.6778C56.2605 16.8367 48.7472 17.0005 48.7472 17.0005L47.9794 17.8739C57.3025 20.658 61.635 24.7522 61.635 24.7522C55.9314 21.6952 50.3376 20.1667 45.1277 19.5662C41.1791 19.1295 37.395 19.2386 34.0497 19.6754C33.7207 19.6754 33.4464 19.7299 33.1174 19.7845C31.1979 20.0029 26.5364 20.658 20.6684 23.2237C18.6392 24.0971 17.4327 24.7522 17.4327 24.7522C17.4327 24.7522 21.9297 20.4396 31.8012 17.6555L31.2528 17.0005C31.2528 17.0005 23.7943 16.8367 15.8972 22.6778C15.8972 22.6778 8 36.8165 8 54.2306C8 54.2306 12.6067 62.0916 24.7266 62.4737C24.7266 62.4737 26.7558 60.0717 28.401 57.9973C21.4362 55.9229 18.8038 51.6103 18.8038 51.6103C18.8038 51.6103 19.3522 51.9925 20.3393 52.5384C20.3942 52.5384 20.449 52.5929 20.5587 52.6475C20.7232 52.7567 20.8877 52.8113 21.0523 52.9205C22.4233 53.6847 23.7943 54.2852 25.0557 54.7765C27.3042 55.7046 29.9914 56.5234 33.1174 57.1239C37.2305 57.8881 42.0566 58.1611 47.3213 57.1785C49.8989 56.6872 52.5313 55.9775 55.2734 54.8311C57.1928 54.1215 59.3316 53.0843 61.5801 51.6103C61.5801 51.6103 58.838 56.0321 51.6538 58.0519Z" stroke="currentColor" stroke-linecap="round" stroke-linejoin="round" />
  <path d="M24.1782 43.1484C24.1782 39.8184 26.6461 37.1436 29.7721 37.1436C32.898 37.1436 35.4207 39.8184 35.3659 43.1484C35.3659 46.4784 32.898 49.1533 29.7721 49.1533C26.7009 49.1533 24.1782 46.4784 24.1782 43.1484Z" stroke="currentColor" stroke-linecap="round" stroke-linejoin="round" />
  <path d="M44.1953 43.1484C44.1953 39.8184 46.6632 37.1436 49.7891 37.1436C52.8603 37.1436 55.383 39.8184 55.383 43.1484C55.383 46.4784 52.9151 49.1533 49.7891 49.1533C46.718 49.1533 44.1953 46.4784 44.1953 43.1484Z" stroke="currentColor" stroke-linecap="round" stroke-linejoin="round" />
</svg>