<svg viewBox="0 0 80 80" fill="none">
  <path fill-rule="evenodd" clip-rule="evenodd" d="M53.8111 33.5507L49.6634 39.9583H53.5505C56.8642 39.9583 59.5505 42.6446 59.5505 45.9583L59.5505 57.9895C59.5505 60.1986 57.7597 61.9895 55.5505 61.9895C53.3414 61.9895 51.5505 60.1986 51.5505 57.9895L51.5505 47.9583L47.2541 47.9583C46.2441 44.647 44.012 41.7804 40.9282 40C39.5482 39.2032 38.065 38.6629 36.5452 38.3791L42.391 29.337L38.4103 27.3483L32.3662 32.5691C30.6944 34.0132 28.1685 33.8286 26.7244 32.1568C25.2803 30.485 25.4649 27.959 27.1367 26.515L34.1896 20.4228C36.0223 18.8399 38.6268 18.5137 40.7932 19.596L51.4558 24.9228C54.656 26.5216 55.755 30.5477 53.8111 33.5507Z" fill="currentColor" />
  <path opacity="0.25" d="M27.0718 40C31.359 37.5248 36.641 37.5248 40.9282 40C45.2154 42.4752 47.8564 47.0496 47.8564 52C47.8564 56.9504 45.2154 61.5248 40.9282 64C36.641 66.4752 31.359 66.4752 27.0718 64C22.7846 61.5248 20.1436 56.9504 20.1436 52C20.1436 47.0496 22.7846 42.4752 27.0718 40Z" fill="currentColor" />
  <path opacity="0.5" d="M52.2636 24.6822C53.9928 25.515 56.0072 25.515 57.7364 24.6822C59.4656 23.8495 60.7216 22.2746 61.1487 20.4034C61.5757 18.5322 61.1275 16.5684 59.9308 15.0678C58.7342 13.5672 56.9193 12.6932 55 12.6932C53.0807 12.6932 51.2658 13.5672 50.0692 15.0678C48.8725 16.5684 48.4243 18.5322 48.8513 20.4034C49.2784 22.2746 50.5344 23.8495 52.2636 24.6822Z" fill="currentColor" />
</svg>