<svg viewBox="0 0 80 80" fill="none">
  <path fill-rule="evenodd" clip-rule="evenodd" d="M40 69.4167C38.8954 69.4167 38 68.5212 38 67.4167V59.7494H42V67.4167C42 68.5212 41.1046 69.4167 40 69.4167ZM42 45.7494V33.0834H38V45.7494H42ZM42 11.4167V19.0834H38V11.4167C38 10.3121 38.8954 9.41669 40 9.41669C41.1046 9.41669 42 10.3121 42 11.4167Z" fill="currentColor" />
  <path opacity="0.25" d="M21.334 23.0827C21.334 20.8736 23.1248 19.0827 25.334 19.0827L54.6673 19.0827C56.8765 19.0827 58.6673 20.8736 58.6673 23.0827V29.0827C58.6673 31.2918 56.8765 33.0827 54.6673 33.0827L25.334 33.0827C23.1248 33.0827 21.334 31.2918 21.334 29.0827V23.0827Z" fill="currentColor" />
  <path opacity="0.25" d="M26 49.7507C26 47.5415 27.7909 45.7507 30 45.7507L50 45.7507C52.2091 45.7507 54 47.5415 54 49.7507V55.7507C54 57.9598 52.2091 59.7507 50 59.7507H30C27.7909 59.7507 26 57.9598 26 55.7507V49.7507Z" fill="currentColor" />
</svg>