<svg viewBox="0 0 80 80" fill="none">
  <g opacity="0.25">
    <path fill-rule="evenodd" clip-rule="evenodd" d="M31.9999 36.9997H26.3322C23.7165 36.9997 22.4313 33.8153 24.3141 31.9997L36.2255 20.5138C38.2592 18.5527 41.4802 18.5527 43.5139 20.5138L55.4252 31.9997C57.3081 33.8153 56.0229 36.9997 53.4072 36.9997H47.9999L47.9999 46.9997V52.9997C47.9999 54.1043 47.1045 54.9997 45.9999 54.9997L33.9999 54.9997C32.8953 54.9997 31.9999 54.1043 31.9999 52.9997L31.9999 46.9997V36.9997Z" fill="currentColor" />
    <path d="M31.9999 36.9997V34.9997C33.1045 34.9997 33.9999 35.8952 33.9999 36.9997H31.9999ZM24.3141 31.9997L25.7024 33.4394L25.7024 33.4394L24.3141 31.9997ZM36.2255 20.5138L37.6138 21.9535V21.9535L36.2255 20.5138ZM43.5139 20.5138L44.9022 19.0741L44.9022 19.0741L43.5139 20.5138ZM55.4252 31.9997L56.8135 30.56L55.4252 31.9997ZM47.9999 36.9997H45.9999C45.9999 35.8952 46.8953 34.9997 47.9999 34.9997V36.9997ZM47.9999 46.9997H45.9999H47.9999ZM45.9999 54.9997V56.9997H45.9999L45.9999 54.9997ZM33.9999 54.9997V52.9997V54.9997ZM31.9999 52.9997H29.9999H31.9999ZM31.9999 46.9997H33.9999H31.9999ZM26.3322 34.9997L31.9999 34.9997V38.9997H26.3322V34.9997ZM25.7024 33.4394C25.1148 34.006 25.5159 34.9997 26.3322 34.9997V38.9997C21.9171 38.9997 19.7477 33.6247 22.9259 30.56L25.7024 33.4394ZM37.6138 21.9535L25.7024 33.4394L22.9259 30.56L34.8372 19.0741L37.6138 21.9535ZM42.1256 21.9535C40.8667 20.7395 38.8727 20.7395 37.6138 21.9535L34.8372 19.0741C37.6457 16.3659 42.0937 16.3659 44.9022 19.0741L42.1256 21.9535ZM54.037 33.4394L42.1256 21.9535L44.9022 19.0741L56.8135 30.56L54.037 33.4394ZM53.4072 34.9997C54.2235 34.9997 54.6245 34.006 54.037 33.4394L56.8135 30.56C59.9916 33.6247 57.8223 38.9997 53.4072 38.9997V34.9997ZM47.9999 34.9997H53.4072V38.9997H47.9999V34.9997ZM45.9999 46.9997L45.9999 36.9997H49.9999L49.9999 46.9997H45.9999ZM45.9999 52.9997V46.9997H49.9999V52.9997H45.9999ZM45.9999 52.9997H49.9999C49.9999 55.2089 48.209 56.9997 45.9999 56.9997V52.9997ZM33.9999 52.9997L45.9999 52.9997L45.9999 56.9997L33.9999 56.9997V52.9997ZM33.9999 52.9997V56.9997C31.7908 56.9997 29.9999 55.2089 29.9999 52.9997H33.9999ZM33.9999 46.9997L33.9999 52.9997H29.9999L29.9999 46.9997H33.9999ZM33.9999 36.9997V46.9997H29.9999V36.9997H33.9999Z" fill="currentColor" />
  </g>
  <path opacity="0.5" d="M56 63L24 63" stroke="currentColor" stroke-width="4" stroke-linecap="round" />
  <path d="M26.3323 37L53.4074 37C56.023 37 57.3083 33.8156 55.4254 32L43.5141 20.5141C41.4803 18.553 38.2594 18.553 36.2256 20.5141L24.3143 32C22.4314 33.8156 23.7167 37 26.3323 37Z" fill="currentColor" stroke="currentColor" stroke-width="4" stroke-linecap="round" stroke-linejoin="round" />
</svg>