<svg viewBox="0 0 80 80" fill="none">
  <g opacity="0.25">
    <path fill-rule="evenodd" clip-rule="evenodd" d="M24.9629 36.9999C24.9941 40.468 25.5522 43.9325 26.6372 47.2718C28.8715 54.1483 33.2254 60.1409 39.0749 64.3908C44.9244 68.6407 51.9692 70.9297 59.1995 70.9297C61.5202 70.9297 63.8217 70.6939 66.0707 70.2332C67.8823 69.862 67.9725 67.4116 66.3624 66.5021C65.2322 65.8636 64.1352 65.1591 63.0772 64.3905C57.2277 60.1406 52.8738 54.1479 50.6395 47.2715C49.5545 43.9323 48.9964 40.4679 48.9652 36.9999L24.9629 36.9999Z" fill="currentColor" />
    <path d="M24.9629 36.9999L24.9629 34.4999L22.4403 34.4999L22.463 37.0224L24.9629 36.9999ZM26.6372 47.2718L29.0149 46.4992L26.6372 47.2718ZM39.0749 64.3908L37.6055 66.4133L39.0749 64.3908ZM66.0707 70.2332L66.5724 72.6823L66.0707 70.2332ZM66.3624 66.5021L67.592 64.3253L67.592 64.3253L66.3624 66.5021ZM63.0772 64.3905L64.5467 62.3679L64.5467 62.3679L63.0772 64.3905ZM50.6395 47.2715L53.0172 46.4989L50.6395 47.2715ZM48.9652 36.9999L51.4651 36.9774L51.4427 34.4999L48.9652 34.4999L48.9652 36.9999ZM22.463 37.0224C22.4965 40.7437 23.0954 44.4612 24.2596 48.0443L29.0149 46.4992C28.0091 43.4038 27.4917 40.1923 27.4628 36.9774L22.463 37.0224ZM24.2596 48.0443C26.657 55.4229 31.3289 61.8531 37.6055 66.4133L40.5444 62.3683C35.122 58.4287 31.086 52.8736 29.0149 46.4992L24.2596 48.0443ZM37.6055 66.4133C43.8821 70.9736 51.4412 73.4297 59.1995 73.4297L59.1995 68.4297C52.4971 68.4297 45.9668 66.3078 40.5444 62.3683L37.6055 66.4133ZM59.1995 73.4297C61.6896 73.4297 64.1592 73.1767 66.5724 72.6823L65.5689 67.784C63.4842 68.2111 61.3508 68.4297 59.1995 68.4297L59.1995 73.4297ZM66.5724 72.6823C68.7377 72.2387 69.8876 70.4603 69.995 68.7237C70.0977 67.0613 69.2859 65.2822 67.592 64.3253L65.1328 68.6788C65.049 68.6315 64.9972 68.5324 65.0045 68.4153C65.0088 68.3449 65.0374 68.2058 65.1585 68.0551C65.2953 67.885 65.4675 67.8048 65.5689 67.784L66.5724 72.6823ZM67.592 64.3253C66.5444 63.7335 65.5274 63.0805 64.5467 62.3679L61.6077 66.413C62.7429 67.2378 63.9201 67.9937 65.1328 68.6788L67.592 64.3253ZM64.5467 62.3679C59.1243 58.4284 55.0883 52.8733 53.0172 46.4989L48.2619 48.044C50.6593 55.4226 55.3311 61.8528 61.6077 66.413L64.5467 62.3679ZM53.0172 46.4989C52.0114 43.4035 51.494 40.1922 51.4651 36.9774L46.4653 37.0225C46.4988 40.7436 47.0977 44.461 48.2619 48.044L53.0172 46.4989ZM48.9652 34.4999L24.9629 34.4999L24.9629 39.4999L48.9652 39.4999L48.9652 34.4999Z" fill="currentColor" />
  </g>
  <path d="M55.0634 37L18.8624 37C15.2092 37 13.3797 32.5832 15.9629 30L33.2506 12.7123C35.3008 10.6621 38.625 10.6621 40.6752 12.7123L57.9629 30C60.5461 32.5832 58.7166 37 55.0634 37Z" fill="currentColor" />
  <path d="M55.0634 37L55.0634 38.5L55.0634 37ZM18.8624 37L18.8624 35.5L18.8624 37ZM15.9629 30L17.0236 31.0607L17.0236 31.0607L15.9629 30ZM33.2506 12.7123L32.1899 11.6516L33.2506 12.7123ZM40.6752 12.7123L41.7359 11.6516L41.7359 11.6516L40.6752 12.7123ZM57.9629 30L56.9022 31.0607L57.9629 30ZM55.0634 35.5L18.8624 35.5L18.8624 38.5L55.0634 38.5L55.0634 35.5ZM18.8624 35.5C16.5456 35.5 15.3853 32.6989 17.0236 31.0607L14.9022 28.9393C11.3741 32.4675 13.8729 38.5 18.8624 38.5L18.8624 35.5ZM17.0236 31.0607L34.3112 13.773L32.1899 11.6516L14.9022 28.9393L17.0236 31.0607ZM34.3112 13.773C35.7757 12.3085 38.1501 12.3085 39.6145 13.773L41.7359 11.6516C39.0998 9.01561 34.826 9.01561 32.1899 11.6516L34.3112 13.773ZM39.6145 13.773L56.9022 31.0607L59.0236 28.9393L41.7359 11.6516L39.6145 13.773ZM56.9022 31.0607C58.5405 32.6989 57.3802 35.5 55.0634 35.5L55.0634 38.5C60.0529 38.5 62.5517 32.4675 59.0236 28.9393L56.9022 31.0607Z" fill="currentColor" />
</svg>