<svg viewBox="0 0 80 80" fill="none">
  <path opacity="0.5" fill-rule="evenodd" clip-rule="evenodd" d="M20 27.0001C20 25.1436 20.7376 23.363 22.0504 22.0503C23.3631 20.7376 25.1436 20 27 20C28.8565 20 30.637 20.7376 31.9497 22.0503C33.2624 23.363 34 25.1435 34 27V27.0001V49.0003C34 45.2872 32.5249 41.726 29.8993 39.1005C27.2739 36.4751 23.7129 35 20 35C16.2871 35 12.7261 36.4751 10.1007 39.1005C9.24583 39.9554 8.51293 40.9094 7.9132 41.9356L7.90698 41.9339L14.6723 30.8359C15.8595 28.8884 17.8061 27.5615 20.0015 27.142C20.0005 27.0948 20 27.0475 20 27.0001ZM33.9991 49.1622L34 49.1625V49.0003C34 49.0543 33.9997 49.1083 33.9991 49.1622Z" fill="currentColor" />
  <path opacity="0.5" fill-rule="evenodd" clip-rule="evenodd" d="M59.9997 27.0001C59.9997 25.1436 59.2622 23.363 57.9494 22.0503C56.6367 20.7376 54.8562 20 52.9997 20C51.1433 20 49.3628 20.7376 48.0501 22.0503C46.7374 23.363 45.9998 25.1435 45.9997 27V27.0001V49.0003C45.9997 45.2872 47.4749 41.726 50.1004 39.1005C52.7258 36.4751 56.2868 35 59.9997 35C63.7127 35 67.2737 36.4751 69.8991 39.1005C70.7539 39.9554 71.4868 40.9094 72.0866 41.9356L72.0928 41.9339L65.3275 30.8359C64.1402 28.8884 62.1936 27.5615 59.9983 27.142C59.9993 27.0948 59.9997 27.0475 59.9997 27.0001ZM46.0007 49.1622L45.9997 49.1625V49.0003C45.9997 49.0543 46.0001 49.1083 46.0007 49.1622Z" fill="currentColor" />
  <path opacity="0.25" fill-rule="evenodd" clip-rule="evenodd" d="M44.2426 24.7574C45.3677 25.8826 46 27.4087 46 29H46V43H46C46 41.4087 45.3677 39.8826 44.2426 38.7574C43.1174 37.6322 41.5912 37 40 37C38.4088 37 36.8826 37.6322 35.7574 38.7574C34.6369 39.8779 34.0052 41.3962 34 42.9804V29.0199L34 29.0001C34 27.4088 34.6322 25.8826 35.7574 24.7574C36.8826 23.6322 38.4088 23 40 23C41.5912 23 43.1174 23.6322 44.2426 24.7574Z" fill="currentColor" />
  <path opacity="0.1" fill-rule="evenodd" clip-rule="evenodd" d="M46 43.0001C46 41.4088 45.3678 39.8826 44.2426 38.7574C43.1174 37.6322 41.5912 37 40 37C38.4088 37 36.8826 37.6322 35.7574 38.7574C34.6322 39.8826 34 41.4088 34 43.0001C34 44.5914 34.6321 46.1175 35.7573 47.2427C36.8825 48.3679 38.4087 49 40 49C41.5913 49 43.1175 48.3679 44.2427 47.2427C45.3679 46.1175 46 44.5914 46 43.0001Z" fill="currentColor" />
  <path fill-rule="evenodd" clip-rule="evenodd" d="M6 49.0003C6 45.2872 7.47516 41.726 10.1007 39.1005C12.7261 36.4751 16.2871 35 20 35C23.7129 35 27.2739 36.4751 29.8993 39.1005C32.5248 41.726 34 45.2872 34 49.0003C34 52.7132 32.525 56.2741 29.8996 58.8996C27.2741 61.525 23.7129 63 20 63C16.2871 63 12.7259 61.525 10.1004 58.8996C7.47496 56.2741 6 52.7132 6 49.0003Z" fill="currentColor" />
  <path fill-rule="evenodd" clip-rule="evenodd" d="M74 49.0003C74 45.2872 72.5248 41.726 69.8993 39.1005C67.2739 36.4751 63.7129 35 60 35C56.2871 35 52.7261 36.4751 50.1007 39.1005C47.4752 41.726 46 45.2872 46 49.0003C46 52.7132 47.475 56.2741 50.1004 58.8996C52.7259 61.525 56.2871 63 60 63C63.7129 63 67.2741 61.525 69.8996 58.8996C72.525 56.2741 74 52.7132 74 49.0003Z" fill="currentColor" />
</svg>