<svg viewBox="0 0 80 80" fill="none">
  <path opacity="0.25" fill-rule="evenodd" clip-rule="evenodd" d="M61.7401 29.0416L58.9117 26.2132L43.0018 42.1231C42.2207 42.9041 40.9544 42.9041 40.1733 42.1231L31.6881 33.6378C29.3449 31.2947 25.5459 31.2947 23.2028 33.6378L6.58577 50.2548C5.80472 51.0359 5.80472 52.3022 6.58577 53.0832C7.36681 53.8643 8.63314 53.8643 9.41419 53.0832L26.0312 36.4662C26.8122 35.6852 28.0786 35.6852 28.8596 36.4662L37.3449 44.9515C39.6881 47.2947 43.487 47.2947 45.8302 44.9515L61.7401 29.0416Z" fill="currentColor" />
  <path opacity="0.5" d="M65.811 33.1126L54.8404 22.142C53.7333 21.0349 54.5174 19.142 56.083 19.142L65.811 19.142C67.4678 19.142 68.811 20.4852 68.811 22.142L68.811 31.8699C68.811 33.4356 66.918 34.2197 65.811 33.1126Z" fill="currentColor" />
  <path d="M8 12V66C8 67.1046 8.89543 68 10 68H72" stroke="currentColor" stroke-width="4" stroke-linecap="round" stroke-linejoin="round" />
</svg>