<svg viewBox="0 0 80 80" fill="none">
  <path fill-rule="evenodd" clip-rule="evenodd" d="M38.0213 13.9938C38.0179 12.8916 37.1235 12 36.0213 12C34.9192 12 34.0248 12.8916 34.0213 13.9938L34.0059 18.9578C34.0025 20.0234 34.9558 20.8316 36.0214 20.8315C37.0869 20.8315 38.0401 20.0234 38.0368 18.9578L38.0213 13.9938ZM28.8104 20.6461C29.4394 21.5062 29.1433 22.7203 28.2813 23.3466C27.4192 23.973 26.173 23.8795 25.5493 23.0155L22.6439 18.9902C21.9989 18.0965 22.1984 16.8494 23.0901 16.2016C23.9817 15.5538 25.2294 15.7494 25.88 16.639L28.8104 20.6461ZM42.0319 34.7241C42.7049 33.5715 43.5267 32.5255 44.4683 31.608C44.1883 30.6193 43.7352 29.6813 43.1239 28.8398C42.0341 27.34 40.4976 26.2236 38.7344 25.6507C36.9712 25.0778 35.0719 25.0778 33.3087 25.6507C31.5455 26.2236 30.0089 27.34 28.9192 28.8398L28.9104 28.852C29.0279 28.9574 29.1433 29.0656 29.2566 29.1764C31.0786 30.9589 32.2271 33.2992 32.5266 35.7911C34.6592 34.8316 37.0822 34.6354 39.3668 35.2521C39.7019 35.3426 40.0308 35.4496 40.3525 35.5723C40.6741 35.695 40.9885 35.8335 41.2945 35.9869L42.0319 34.7241ZM51.0209 27.8961C52.9934 27.3735 55.0411 27.2733 57.0276 27.5732C57.0121 27.4492 56.9846 27.3249 56.9446 27.2016C56.604 26.1534 55.4796 25.5783 54.4304 25.9156L54.4185 25.9195L49.7048 27.4348C49.0582 27.6427 48.6312 28.1878 48.4918 28.8183C49.2994 28.4377 50.1454 28.128 51.0209 27.8961ZM15.0213 28.1124C16.167 27.2664 17.4745 26.6573 18.8596 26.3166L17.6123 25.9156C16.563 25.5783 15.4387 26.1534 15.0981 27.2016C14.9993 27.5057 14.9773 27.8163 15.0213 28.1124ZM46.4936 23.0151C45.8699 23.8791 44.6238 23.9726 43.7617 23.3463C42.8996 22.72 42.6035 21.5059 43.2325 20.6458L46.1627 16.639C46.8133 15.7494 48.061 15.5538 48.9526 16.2016C49.8443 16.8494 50.0438 18.0965 49.3987 18.9902L49.3914 19.0003L46.4936 23.0151Z" fill="currentColor" />
  <path opacity="0.25" fill-rule="evenodd" clip-rule="evenodd" d="M29.2537 29.1763C27.1742 27.1419 24.3555 26 21.4697 26C18.5838 26 15.8021 27.1419 13.7885 29.1763C12.4435 30.5352 11.5004 32.2182 11.0311 34.0454C9.39948 34.4321 7.88873 35.2648 6.68274 36.4637C4.97168 38.1647 4 40.4873 4 42.9C4 45.3127 4.97168 47.6353 6.68274 49.3362C8.39279 51.0362 10.7156 51.9999 13.1269 51.9999H16.942L16.9439 51.9997H17.1123L17.1538 51.9999H17.3112C17.8029 49.955 18.8614 48.0624 20.3758 46.5651C22.1119 44.8486 24.3547 43.7278 26.7461 43.3641C26.7999 43.0175 26.8722 42.6727 26.963 42.331C27.6475 39.7567 29.3415 37.5545 31.6663 36.2275C31.9459 36.0678 32.2321 35.9223 32.5237 35.7911C32.2242 33.2992 31.0757 30.9589 29.2537 29.1763Z" fill="currentColor" />
  <path opacity="0.5" fill-rule="evenodd" clip-rule="evenodd" d="M62.1723 29.3573C65.5336 31.276 68.0257 34.4743 69.0331 38.1916C69.5761 40.1953 69.6744 42.2762 69.3452 44.2928C70.5525 44.8502 71.6656 45.6163 72.6242 46.5641C74.7696 48.6853 76 51.5996 76 54.6166C76 57.6335 74.7696 60.5478 72.6242 62.669C70.4813 64.7878 67.5662 65.9989 64.5527 65.9989H61.9979C61.9888 65.9996 61.9796 65.9999 61.9703 65.9999H31.0312C31.0287 65.9999 31.0261 65.9999 31.0236 65.9998H28.4473C25.4338 65.9998 22.5187 64.7887 20.3758 62.67C18.2304 60.5488 17 57.6344 17 54.6175C17 51.6006 18.2304 48.6862 20.3758 46.5651C22.1119 44.8486 24.3547 43.7278 26.7461 43.3641C26.7999 43.0176 26.8722 42.6727 26.963 42.331C27.6475 39.7567 29.3415 37.5546 31.6663 36.2275C33.991 34.9004 36.7669 34.551 39.364 35.2521C40.0342 35.433 40.6797 35.6801 41.2917 35.9868L42.0291 34.7241C43.9953 31.3569 47.2305 28.8995 51.0181 27.896C54.7778 26.9 58.811 27.4385 62.1723 29.3573Z" fill="currentColor" />
</svg>