<svg viewBox="0 0 80 80" fill="none">
  <g opacity="0.5">
    <path fill-rule="evenodd" clip-rule="evenodd" d="M33.9999 12L34.0249 20.0079L34.0005 20H34.0004L33.9749 20.0083L33.9999 12ZM23.4449 23.4297L18.7175 16.9656L23.4046 23.4593L23.4203 23.4377H23.4203L23.4449 23.4297ZM16.8967 32.4166L9.27246 29.9656L16.8814 32.4641V32.4377L16.8967 32.4166ZM16.8814 43.5359L9.27246 46.0344L16.8968 43.5834L16.8815 43.5623H16.8814V43.5359ZM23.4046 52.5407L18.7175 59.0344L23.4449 52.5703L23.4203 52.5623H23.4203L23.4046 52.5407ZM51.1194 32.4377H51.1195V32.4638L58.7274 29.9656L51.104 32.4163L51.1194 32.4377ZM44.5958 23.4586L49.2823 16.9656L44.5552 23.4294L44.5806 23.4377H44.5806L44.5958 23.4586ZM37.5266 27.1459C39.8188 27.8907 41.8163 29.342 43.233 31.2918C44.6496 33.2416 45.4126 35.5899 45.4126 38C45.4126 39.225 45.2155 40.4341 44.8356 41.583C44.6739 41.8208 44.5203 42.0651 44.3753 42.3156L43.7628 43.3734C43.2651 43.1221 42.7403 42.9196 42.1957 42.7713C40.0879 42.1975 37.8226 42.4827 35.9317 43.5713C34.0408 44.6599 32.6605 46.4735 32.105 48.5807C32.0483 48.7955 32.0006 49.0118 31.9616 49.2292C31.4597 49.1381 30.9624 49.0131 30.4732 48.8541C28.1811 48.1093 26.1835 46.658 24.7669 44.7082C23.3502 42.7584 22.5873 40.4101 22.5873 38C22.5873 35.5899 23.3502 33.2416 24.7669 31.2918C26.1835 29.342 28.1811 27.8907 30.4732 27.1459C32.7654 26.4011 35.2345 26.4011 37.5266 27.1459Z" fill="currentColor" />
    <path d="M34.0249 20.0079L33.4069 21.91C34.0168 22.1082 34.6848 22.0019 35.203 21.6241C35.7212 21.2464 36.0269 20.643 36.0249 20.0017L34.0249 20.0079ZM33.9999 12L35.9999 11.9938C35.9965 10.8916 35.1021 10 33.9999 10C32.8978 10 32.0034 10.8916 31.9999 11.9938L33.9999 12ZM34.0005 20L34.6185 18.0979C34.4189 18.033 34.2104 18 34.0005 18V20ZM34.0004 20V18C33.7901 18 33.5811 18.0332 33.3811 18.0983L34.0004 20ZM33.9749 20.0083L31.975 20.0021C31.973 20.6436 32.2788 21.2472 32.7974 21.6249C33.316 22.0026 33.9843 22.1087 34.5943 21.91L33.9749 20.0083ZM18.7175 16.9656L20.3319 15.7849C19.6813 14.8953 18.4336 14.6997 17.5419 15.3475C16.6503 15.9953 16.4508 17.2424 17.0958 18.1361L18.7175 16.9656ZM23.4449 23.4297L24.0629 25.3318C24.6728 25.1337 25.1507 24.655 25.348 24.0448C25.5452 23.4346 25.4378 22.7668 25.0592 22.2491L23.4449 23.4297ZM23.4046 23.4593L21.7829 24.6298C22.1582 25.1498 22.7602 25.4583 23.4015 25.4593C24.0428 25.4603 24.6457 25.1537 25.0226 24.6349L23.4046 23.4593ZM23.4203 23.4377V21.4377C22.7801 21.4377 22.1786 21.7442 21.8023 22.2621L23.4203 23.4377ZM23.4203 23.4377V25.4377C23.6302 25.4377 23.8388 25.4047 24.0383 25.3398L23.4203 23.4377ZM9.27246 29.9656L9.88456 28.0615C8.83531 27.7242 7.71093 28.2993 7.37035 29.3475C7.02977 30.3957 7.60137 31.5219 8.6485 31.8657L9.27246 29.9656ZM16.8967 32.4166L18.5148 33.5921C18.8917 33.0733 18.997 32.4052 18.7979 31.7956C18.5988 31.186 18.1194 30.7088 17.5088 30.5125L16.8967 32.4166ZM16.8814 32.4641L16.2574 34.3643C16.8667 34.5644 17.535 34.4601 18.0544 34.084C18.5739 33.7078 18.8814 33.1054 18.8814 32.4641H16.8814ZM16.8814 32.4377L15.2634 31.2621C15.0151 31.6038 14.8814 32.0153 14.8814 32.4377H16.8814ZM9.27246 46.0344L8.6485 44.1343C7.60137 44.4781 7.02977 45.6043 7.37035 46.6525C7.71093 47.7007 8.83531 48.2758 9.88456 47.9385L9.27246 46.0344ZM16.8814 43.5359H18.8814C18.8814 42.8946 18.5739 42.2922 18.0544 41.916C17.535 41.5399 16.8667 41.4356 16.2574 41.6357L16.8814 43.5359ZM16.8968 43.5834L17.5089 45.4874C18.1194 45.2912 18.5988 44.814 18.7979 44.2044C18.9971 43.5948 18.8918 42.9267 18.5148 42.4078L16.8968 43.5834ZM16.8815 43.5623L18.4995 42.3867C18.1232 41.8688 17.5217 41.5623 16.8815 41.5623V43.5623ZM16.8814 43.5623H14.8814C14.8814 44.6669 15.7768 45.5623 16.8814 45.5623V43.5623ZM18.7175 59.0344L17.0958 57.8639C16.4508 58.7576 16.6503 60.0047 17.5419 60.6525C18.4336 61.3003 19.6813 61.1047 20.3319 60.2151L18.7175 59.0344ZM23.4046 52.5407L25.0248 51.368C24.6484 50.848 24.0453 50.5403 23.4033 50.5407C22.7614 50.5411 22.1586 50.8496 21.7829 51.3702L23.4046 52.5407ZM23.4449 52.5703L25.0592 53.7509C25.4378 53.2332 25.5452 52.5654 25.3479 51.9552C25.1507 51.3449 24.6728 50.8663 24.0628 50.6681L23.4449 52.5703ZM23.4203 52.5623L24.0383 50.6602C23.8387 50.5953 23.6302 50.5623 23.4203 50.5623V52.5623ZM23.4203 52.5623L21.8001 53.7349C22.1762 54.2546 22.7788 54.5623 23.4203 54.5623V52.5623ZM51.1195 32.4377H53.1195C53.1195 31.3331 52.2241 30.4377 51.1195 30.4377V32.4377ZM51.1194 32.4377L49.4993 33.6104C49.8754 34.13 50.478 34.4377 51.1194 34.4377V32.4377ZM51.1195 32.4638H49.1195C49.1195 33.1051 49.427 33.7075 49.9464 34.0836C50.4659 34.4598 51.1342 34.564 51.7435 34.364L51.1195 32.4638ZM58.7274 29.9656L59.3514 31.8657C60.3985 31.5219 60.9701 30.3957 60.6295 29.3475C60.2889 28.2993 59.1646 27.7242 58.1153 28.0615L58.7274 29.9656ZM51.104 32.4163L50.4919 30.5123C49.8819 30.7083 49.4028 31.1848 49.2034 31.7936C49.0039 32.4025 49.1082 33.07 49.4838 33.589L51.104 32.4163ZM49.2823 16.9656L50.904 18.1361C51.5491 17.2424 51.3496 15.9953 50.4579 15.3475C49.5663 14.6997 48.3186 14.8953 47.668 15.7849L49.2823 16.9656ZM44.5958 23.4586L42.9777 24.6341C43.3547 25.153 43.9576 25.4596 44.5989 25.4586C45.2402 25.4576 45.8421 25.1491 46.2175 24.6291L44.5958 23.4586ZM44.5552 23.4294L42.9408 22.2488C42.5624 22.7663 42.455 23.4338 42.6519 24.0438C42.8488 24.6539 43.3263 25.1326 43.9358 25.3311L44.5552 23.4294ZM44.5806 23.4377L43.9612 25.3394C44.1612 25.4045 44.3702 25.4377 44.5806 25.4377V23.4377ZM44.5806 23.4377L46.1986 22.2621C45.8223 21.7442 45.2208 21.4377 44.5806 21.4377V23.4377ZM37.5266 27.1459L36.9086 29.048L37.5266 27.1459ZM44.8356 41.583L46.4895 42.7075C46.5938 42.5541 46.6762 42.387 46.7345 42.2109L44.8356 41.583ZM44.3753 42.3156L46.1061 43.3178L46.1061 43.3178L44.3753 42.3156ZM43.7628 43.3734L42.8612 45.1587C43.8075 45.6366 44.9624 45.2931 45.4936 44.3756L43.7628 43.3734ZM42.1957 42.7713L41.6703 44.7011H41.6703L42.1957 42.7713ZM35.9317 43.5713L36.9296 45.3046L36.9296 45.3046L35.9317 43.5713ZM32.105 48.5807L30.1711 48.0709H30.1711L32.105 48.5807ZM31.9616 49.2292L31.6045 51.197C32.1271 51.2919 32.6661 51.175 33.1024 50.872C33.5387 50.569 33.8366 50.1048 33.9303 49.5819L31.9616 49.2292ZM30.4732 48.8541L29.8552 50.7562L29.8552 50.7562L30.4732 48.8541ZM24.7669 44.7082L26.3849 43.5326L26.3849 43.5326L24.7669 44.7082ZM24.7669 31.2918L23.1488 30.1162L23.1488 30.1162L24.7669 31.2918ZM30.4732 27.1459L31.0913 29.048L30.4732 27.1459ZM36.0249 20.0017L35.9999 11.9938L31.9999 12.0062L32.0249 20.0142L36.0249 20.0017ZM33.3824 21.9021L33.4069 21.91L34.643 18.1058L34.6185 18.0979L33.3824 21.9021ZM34.0004 22H34.0005V18H34.0004V22ZM34.5943 21.91L34.6198 21.9017L33.3811 18.0983L33.3556 18.1066L34.5943 21.91ZM31.9999 11.9938L31.975 20.0021L35.9749 20.0145L35.9999 12.0062L31.9999 11.9938ZM17.1032 18.1462L21.8305 24.6103L25.0592 22.2491L20.3319 15.7849L17.1032 18.1462ZM25.0263 22.2888L20.3392 15.795L17.0958 18.1361L21.7829 24.6298L25.0263 22.2888ZM21.8023 22.2621L21.7866 22.2837L25.0226 24.6349L25.0383 24.6133L21.8023 22.2621ZM23.4203 21.4377H23.4203V25.4377H23.4203V21.4377ZM22.8269 21.5276L22.8023 21.5356L24.0383 25.3398L24.0629 25.3318L22.8269 21.5276ZM8.66036 31.8696L16.2847 34.3206L17.5088 30.5125L9.88456 28.0615L8.66036 31.8696ZM17.5054 30.5639L9.89643 28.0654L8.6485 31.8657L16.2574 34.3643L17.5054 30.5639ZM14.8814 32.4377V32.4641H18.8814V32.4377H14.8814ZM15.2787 31.241L15.2634 31.2621L18.4994 33.6133L18.5148 33.5921L15.2787 31.241ZM9.89643 47.9346L17.5054 45.4361L16.2574 41.6357L8.6485 44.1343L9.89643 47.9346ZM16.2847 41.6794L8.66036 44.1304L9.88456 47.9385L17.5089 45.4874L16.2847 41.6794ZM15.2634 44.7379L15.2788 44.759L18.5148 42.4078L18.4995 42.3867L15.2634 44.7379ZM16.8814 45.5623H16.8815V41.5623H16.8814V45.5623ZM14.8814 43.5359V43.5623H18.8814V43.5359H14.8814ZM20.3392 60.205L25.0263 53.7112L21.7829 51.3702L17.0958 57.8639L20.3392 60.205ZM21.8305 51.3897L17.1032 57.8538L20.3319 60.2151L25.0592 53.7509L21.8305 51.3897ZM22.8024 54.4644L22.8269 54.4724L24.0628 50.6681L24.0383 50.6602L22.8024 54.4644ZM23.4203 54.5623H23.4203V50.5623H23.4203V54.5623ZM21.7845 53.7133L21.8001 53.7349L25.0405 51.3897L25.0248 51.368L21.7845 53.7133ZM51.1195 30.4377H51.1194V34.4377H51.1195V30.4377ZM53.1195 32.4638V32.4377H49.1195V32.4638H53.1195ZM58.1034 28.0654L50.4955 30.5636L51.7435 34.364L59.3514 31.8657L58.1034 28.0654ZM51.716 34.3203L59.3395 31.8696L58.1153 28.0615L50.4919 30.5123L51.716 34.3203ZM52.7396 31.265L52.7241 31.2436L49.4838 33.589L49.4993 33.6104L52.7396 31.265ZM47.6607 15.795L42.9741 22.2881L46.2175 24.6291L50.904 18.1361L47.6607 15.795ZM46.1695 24.61L50.8967 18.1462L47.668 15.7849L42.9408 22.2488L46.1695 24.61ZM45.1999 21.536L45.1745 21.5278L43.9358 25.3311L43.9612 25.3394L45.1999 21.536ZM44.5806 21.4377H44.5806V25.4377H44.5806V21.4377ZM46.2138 22.283L46.1986 22.2621L42.9626 24.6133L42.9777 24.6341L46.2138 22.283ZM44.851 30.1162C43.1861 27.8247 40.8385 26.1191 38.1447 25.2438L36.9086 29.048C38.7991 29.6623 40.4466 30.8592 41.6149 32.4674L44.851 30.1162ZM47.4126 38C47.4126 35.1675 46.5159 32.4078 44.851 30.1162L41.6149 32.4674C42.7833 34.0755 43.4126 36.0122 43.4126 38H47.4126ZM46.7345 42.2109C47.1809 40.8607 47.4126 39.4397 47.4126 38H43.4126C43.4126 39.0104 43.25 40.0075 42.9367 40.9551L46.7345 42.2109ZM46.1061 43.3178C46.2269 43.1091 46.3548 42.9056 46.4895 42.7075L43.1816 40.4585C42.9929 40.7361 42.8137 41.0212 42.6445 41.3135L46.1061 43.3178ZM45.4936 44.3756L46.1061 43.3178L42.6445 41.3135L42.032 42.3713L45.4936 44.3756ZM41.6703 44.7011C42.0838 44.8136 42.4826 44.9675 42.8612 45.1587L44.6644 41.5882C44.0475 41.2766 43.3968 41.0255 42.7211 40.8416L41.6703 44.7011ZM36.9296 45.3046C38.3548 44.484 40.0713 44.2658 41.6703 44.7011L42.7211 40.8416C40.1044 40.1292 37.2905 40.4813 34.9338 41.838L36.9296 45.3046ZM34.0389 49.0906C34.4592 47.4963 35.5046 46.1249 36.9296 45.3046L34.9338 41.838C32.577 43.1949 30.8618 45.4507 30.1711 48.0709L34.0389 49.0906ZM33.9303 49.5819C33.9598 49.4172 33.996 49.2533 34.0389 49.0906L30.1711 48.0709C30.1007 48.3377 30.0414 48.6065 29.993 48.8765L33.9303 49.5819ZM29.8552 50.7562C30.4301 50.943 31.0146 51.09 31.6045 51.197L32.3188 47.2614C31.9049 47.1862 31.4948 47.0831 31.0912 46.952L29.8552 50.7562ZM23.1488 45.8838C24.8137 48.1753 27.1613 49.8809 29.8552 50.7562L31.0913 46.952C29.2008 46.3377 27.5533 45.1408 26.3849 43.5326L23.1488 45.8838ZM20.5873 38C20.5873 40.8325 21.484 43.5923 23.1488 45.8838L26.3849 43.5326C25.2165 41.9245 24.5873 39.9878 24.5873 38H20.5873ZM23.1488 30.1162C21.484 32.4077 20.5873 35.1675 20.5873 38H24.5873C24.5873 36.0122 25.2165 34.0755 26.3849 32.4674L23.1488 30.1162ZM29.8552 25.2438C27.1613 26.1191 24.8137 27.8247 23.1488 30.1162L26.3849 32.4674C27.5533 30.8592 29.2008 29.6623 31.0913 29.048L29.8552 25.2438ZM38.1447 25.2438C35.4508 24.3685 32.549 24.3685 29.8552 25.2438L31.0913 29.048C32.9817 28.4338 35.0181 28.4338 36.9086 29.048L38.1447 25.2438Z" fill="currentColor" />
  </g>
  <path fill-rule="evenodd" clip-rule="evenodd" d="M60.7503 37.9344C63.4984 39.5165 65.5117 42.1301 66.3335 45.1887C66.7759 46.8349 66.8558 48.5405 66.5877 50.1926C67.5702 50.6491 68.4752 51.2766 69.256 52.0552C71.0097 53.8039 72 56.1833 72 58.6599C72 61.1365 71.0097 63.5159 69.256 65.2646C67.5028 67.0128 65.1233 67.9992 62.6474 67.9992L60.6089 67.9992C60.6013 67.9998 60.5937 68.0001 60.586 68.0001H35.4152C35.4124 68.0001 35.4097 68.0001 35.4069 68L33.3526 68C30.8767 68 28.4972 67.0136 26.744 65.2654C24.9903 63.5167 24 61.1372 24 58.6607C24 56.1841 24.9903 53.8047 26.744 52.0559C28.1575 50.6464 29.9782 49.7321 31.9283 49.4308C31.9721 49.1456 32.031 48.8619 32.1051 48.5809C32.6607 46.4737 34.041 44.66 35.9319 43.5714C37.8228 42.4828 40.088 42.1976 42.1959 42.7715C42.7404 42.9197 43.2652 43.1222 43.763 43.3736L44.3754 42.3158C45.9672 39.5665 48.5884 37.5603 51.6613 36.7392C54.7286 35.9197 58.0023 36.3522 60.7503 37.9344Z" fill="currentColor" />
  <path d="M66.3335 45.1887L68.265 44.6697L66.3335 45.1887ZM60.7503 37.9344L61.7482 36.2011V36.2011L60.7503 37.9344ZM66.5877 50.1926L64.6135 49.8722C64.47 50.7567 64.9323 51.6287 65.7449 52.0063L66.5877 50.1926ZM69.256 52.0552L67.8438 53.4714V53.4714L69.256 52.0552ZM69.256 65.2646L67.8438 63.8484L69.256 65.2646ZM62.6474 67.9992V69.9992V67.9992ZM60.6089 67.9992V65.9992C60.5574 65.9992 60.5058 66.0012 60.4545 66.0052L60.6089 67.9992ZM35.4069 68L35.4631 66.0008C35.4444 66.0003 35.4256 66 35.4069 66L35.4069 68ZM33.3526 68V70H33.3526L33.3526 68ZM26.744 65.2654L28.1562 63.8492H28.1562L26.744 65.2654ZM26.744 52.0559L28.1562 53.4722H28.1562L26.744 52.0559ZM31.9283 49.4308L32.2337 51.4073C33.096 51.274 33.7724 50.5972 33.905 49.7348L31.9283 49.4308ZM32.1051 48.5809L30.1712 48.071V48.071L32.1051 48.5809ZM42.1959 42.7715L41.6705 44.7012L42.1959 42.7715ZM43.763 43.3736L42.8614 45.1588C43.8077 45.6368 44.9626 45.2932 45.4938 44.3757L43.763 43.3736ZM44.3754 42.3158L46.1062 43.3179V43.3179L44.3754 42.3158ZM51.6613 36.7392L51.1451 34.807H51.1451L51.6613 36.7392ZM68.265 44.6697C67.305 41.0969 64.9548 38.0472 61.7482 36.2011L59.7525 39.6676C62.042 40.9858 63.7184 43.1634 64.4021 45.7077L68.265 44.6697ZM68.5619 50.5129C68.8749 48.5841 68.7817 46.5923 68.265 44.6697L64.4021 45.7077C64.7701 47.0775 64.8367 48.4969 64.6135 49.8722L68.5619 50.5129ZM70.6682 50.639C69.7206 49.694 68.6224 48.9327 67.4306 48.3788L65.7449 52.0063C66.518 52.3655 67.2298 52.8592 67.8438 53.4714L70.6682 50.639ZM74 58.6599C74 55.6504 72.7971 52.7618 70.6682 50.639L67.8438 53.4714C69.2222 54.8459 70 56.7162 70 58.6599H74ZM70.6682 66.6808C72.7971 64.5579 74 61.6694 74 58.6599H70C70 60.6035 69.2222 62.4738 67.8438 63.8484L70.6682 66.6808ZM62.6474 69.9992C65.6542 69.9992 68.5412 68.8018 70.6682 66.6808L67.8438 63.8484C66.4644 65.2238 64.5923 65.9992 62.6474 65.9992V69.9992ZM60.6089 69.9992H62.6474V65.9992L60.6089 65.9992V69.9992ZM60.4545 66.0052C60.498 66.0018 60.5419 66.0001 60.586 66.0001V70.0001C60.6455 70.0001 60.7046 69.9978 60.7633 69.9933L60.4545 66.0052ZM60.586 66.0001H35.4152V70.0001H60.586V66.0001ZM35.4152 66.0001C35.4315 66.0001 35.4475 66.0003 35.4631 66.0008L35.3506 69.9992C35.3718 69.9998 35.3934 70.0001 35.4152 70.0001V66.0001ZM33.3526 70H35.4069L35.4069 66L33.3526 66L33.3526 70ZM25.3318 66.6816C27.4588 68.8026 30.3458 70 33.3526 70V66C31.4077 66 29.5355 65.2246 28.1562 63.8492L25.3318 66.6816ZM22 58.6607C22 61.6701 23.2029 64.5587 25.3318 66.6816L28.1562 63.8492C26.7778 62.4746 26 60.6043 26 58.6607H22ZM25.3318 50.6397C23.2029 52.7626 22 55.6512 22 58.6607H26C26 56.717 26.7778 54.8467 28.1562 53.4722L25.3318 50.6397ZM31.6228 47.4542C29.256 47.82 27.0471 48.9293 25.3318 50.6397L28.1562 53.4722C29.268 52.3636 30.7005 51.6442 32.2337 51.4073L31.6228 47.4542ZM30.1712 48.071C30.0791 48.4202 30.006 48.7726 29.9515 49.1267L33.905 49.7348C33.9383 49.5186 33.9829 49.3036 34.039 49.0907L30.1712 48.071ZM34.934 41.8381C32.5772 43.195 30.862 45.4508 30.1712 48.071L34.039 49.0907C34.4593 47.4965 35.5048 46.1251 36.9297 45.3047L34.934 41.8381ZM42.7212 40.8417C40.1046 40.1293 37.2906 40.4814 34.934 41.8381L36.9297 45.3047C38.355 44.4842 40.0715 44.2659 41.6705 44.7012L42.7212 40.8417ZM44.6646 41.5883C44.0477 41.2768 43.3969 41.0256 42.7212 40.8417L41.6705 44.7012C42.0839 44.8138 42.4827 44.9676 42.8614 45.1588L44.6646 41.5883ZM42.6446 41.3137L42.0321 42.3715L45.4938 44.3757L46.1062 43.3179L42.6446 41.3137ZM51.1451 34.807C47.5607 35.7647 44.5024 38.105 42.6446 41.3137L46.1062 43.3179C47.4321 41.028 49.6161 39.3559 52.1776 38.6715L51.1451 34.807ZM61.7482 36.2011C58.5423 34.3554 54.7242 33.8507 51.1451 34.807L52.1776 38.6715C54.733 37.9887 57.4622 38.3491 59.7525 39.6676L61.7482 36.2011Z" fill="currentColor" />
</svg>