<svg viewBox="0 0 80 80" fill="none">
  <path opacity="0.25" fill-rule="evenodd" clip-rule="evenodd" d="M11.5147 48.5147C9.26427 50.7651 8 53.8173 8 56.9999C8 60.1825 9.26436 63.2348 11.5148 65.4853C13.7652 67.7357 16.8175 69 20 69H40H60C63.1825 69 66.2348 67.7357 68.4852 65.4853C70.7356 63.2348 72 60.1825 72 56.9999C72 53.8173 70.7357 50.7651 68.4853 48.5147C66.2349 46.2643 63.1826 45 60 45C56.8174 45 53.7651 46.2643 51.5147 48.5147C50.9451 49.0842 50.4387 49.7052 50 50.3666C49.5613 49.7052 49.0549 49.0842 48.4853 48.5147C46.2349 46.2643 43.1826 45 40 45C36.8174 45 33.7651 46.2643 31.5147 48.5147C30.9451 49.0842 30.4387 49.7052 30 50.3666C29.5613 49.7052 29.0549 49.0842 28.4853 48.5147C26.2349 46.2643 23.1826 45 20 45C16.8174 45 13.7651 46.2643 11.5147 48.5147Z" fill="currentColor" />
  <path opacity="0.5" fill-rule="evenodd" clip-rule="evenodd" d="M41.5638 3.78906C40.3955 4.21579 39.1562 4.49513 37.8684 4.60459L36.6793 6.31274C41.3323 9.33626 43.1631 15.914 39.573 21.0709L34.3208 28.6154C35.9167 29.6525 37.8448 30.2714 40 30.2714C48.4387 30.2714 53.3944 20.783 48.573 13.8573L41.5638 3.78906ZM20 44.6358C20 38.4339 23.9304 33.15 29.4362 31.1391L30.9605 33.3287C30.9797 33.3562 31.0204 33.3562 31.0395 33.3287L33.1316 30.3236C33.5379 30.2891 33.9491 30.2714 34.3643 30.2714H45.6356C53.5689 30.2714 60 36.7026 60 44.6358C60 44.7576 59.9985 44.879 59.9955 45.0001C56.8145 45.0013 53.764 46.2655 51.5147 48.5148C50.9451 49.0844 50.4387 49.7053 50 50.3667C49.5613 49.7053 49.0549 49.0844 48.4853 48.5148C46.2349 46.2644 43.1826 45.0001 40 45.0001C36.8174 45.0001 33.7651 46.2644 31.5147 48.5148C30.9451 49.0844 30.4387 49.7053 30 50.3667C29.5613 49.7053 29.0549 49.0844 28.4853 48.5148C26.236 46.2655 23.1855 45.0013 20.0045 45.0001C20.0015 44.879 20 44.7576 20 44.6358Z" fill="currentColor" />
  <path fill-rule="evenodd" clip-rule="evenodd" d="M39.5731 30.3049C42.5352 26.05 41.807 20.8279 38.848 17.4329L39.9723 15.9498C39.9862 15.9315 40.0138 15.9315 40.0277 15.9498L45.5426 23.225C49.0149 27.8055 45.7478 34.3817 40 34.3817C38.9601 34.3817 38.0014 34.1665 37.1491 33.7867L39.5731 30.3049ZM30.9606 42.5627L27.8412 38.082C26.685 39.6242 26 41.5401 26 43.616C26 44.8126 26.2276 45.9561 26.6419 47.0055C27.3002 47.4429 27.9183 47.9474 28.4854 48.5146C29.055 49.0841 29.5613 49.7051 30.0001 50.3665C30.4388 49.7051 30.9452 49.0841 31.5147 48.5146C33.7651 46.2642 36.8175 44.9999 40.0001 44.9999C43.1826 44.9999 46.235 46.2642 48.4854 48.5146C49.055 49.0841 49.5613 49.7051 50.0001 50.3665C50.4388 49.7051 50.9452 49.0841 51.5147 48.5146C52.0818 47.9475 52.6998 47.443 53.358 47.0056C53.7724 45.9562 54 44.8127 54 43.616C54 38.5161 49.8657 34.3818 44.7658 34.3818H36.7349L31.0396 42.5627C31.0204 42.5902 30.9797 42.5902 30.9606 42.5627Z" fill="currentColor" />
</svg>