<svg viewBox="0 0 80 80" fill="none">
  <path opacity="0.25" d="M15.5002 39.6557L14.3908 41.3198H14.3908L15.5002 39.6557ZM13.9378 38.6141L15.0472 36.95V36.95L13.9378 38.6141ZM12.6248 35.7708C11.5756 35.4257 10.4452 35.9966 10.1001 37.0459C9.75502 38.0951 10.3259 39.2255 11.3752 39.5706L12.6248 35.7708ZM29.0626 38.6141L27.9532 36.95L27.9532 36.95L29.0626 38.6141ZM25.9378 40.6973L27.0472 42.3614L25.9378 40.6973ZM17.0626 40.6973L18.172 39.0332L17.0626 40.6973ZM39.5002 39.6557L38.3908 41.3198L39.5002 39.6557ZM37.9378 38.6141L39.0472 36.95L37.9378 38.6141ZM53.0626 38.6141L54.172 40.2782L53.0626 38.6141ZM49.9378 40.6973L48.8284 39.0332V39.0332L49.9378 40.6973ZM41.0626 40.6973L42.172 39.0332L42.172 39.0332L41.0626 40.6973ZM55.6249 39.5707C56.6742 39.2255 57.245 38.0952 56.8999 37.0459C56.5547 35.9966 55.4243 35.4258 54.3751 35.771L55.6249 39.5707ZM16.6096 37.9916L15.0472 36.95L12.8284 40.2782L14.3908 41.3198L16.6096 37.9916ZM11.3752 39.5706C11.8809 39.7369 12.3699 39.9726 12.8284 40.2782L15.0472 36.95C14.285 36.4419 13.4695 36.0486 12.6248 35.7708L11.3752 39.5706ZM27.9532 36.95L24.8284 39.0332L27.0472 42.3614L30.172 40.2782L27.9532 36.95ZM18.172 39.0332L16.6096 37.9916L14.3908 41.3198L15.9532 42.3614L18.172 39.0332ZM40.6096 37.9916L39.0472 36.95L36.8284 40.2782L38.3908 41.3198L40.6096 37.9916ZM30.172 40.2782C32.1874 38.9346 34.813 38.9346 36.8284 40.2782L39.0472 36.95C35.6882 34.7107 31.3122 34.7107 27.9532 36.95L30.172 40.2782ZM24.8284 39.0332C22.813 40.3768 20.1874 40.3768 18.172 39.0332L15.9532 42.3614C19.3122 44.6007 23.6882 44.6007 27.0472 42.3614L24.8284 39.0332ZM51.9532 36.95L48.8284 39.0332L51.0472 42.3614L54.172 40.2782L51.9532 36.95ZM42.172 39.0332L40.6096 37.9916L38.3908 41.3198L39.9532 42.3614L42.172 39.0332ZM54.172 40.2782C54.6303 39.9726 55.1193 39.737 55.6249 39.5707L54.3751 35.771C53.5306 36.0487 52.7152 36.442 51.9532 36.95L54.172 40.2782ZM48.8284 39.0332C46.813 40.3768 44.1874 40.3768 42.172 39.0332L39.9532 42.3614C43.3122 44.6007 47.6882 44.6007 51.0472 42.3614L48.8284 39.0332Z" fill="currentColor" />
  <path d="M27.5002 25.8853L26.3908 24.2212H26.3908L27.5002 25.8853ZM25.9378 26.9269L27.0472 28.591V28.591L25.9378 26.9269ZM24.6248 29.7702C23.5756 30.1153 22.4452 29.5444 22.1001 28.4951C21.755 27.4459 22.3259 26.3155 23.3752 25.9704L24.6248 29.7702ZM41.0626 26.9269L39.9532 28.591L39.9532 28.591L41.0626 26.9269ZM37.9378 24.8437L39.0472 23.1796L37.9378 24.8437ZM29.0626 24.8437L30.172 26.5078L29.0626 24.8437ZM51.5002 25.8853L50.3908 24.2212L51.5002 25.8853ZM49.9378 26.9269L51.0472 28.591L49.9378 26.9269ZM65.0626 26.9269L66.172 25.2628L65.0626 26.9269ZM61.9378 24.8437L60.8284 26.5078V26.5078L61.9378 24.8437ZM53.0626 24.8437L54.172 26.5078L54.172 26.5078L53.0626 24.8437ZM67.6249 25.9703C68.6742 26.3155 69.245 27.4459 68.8999 28.4951C68.5547 29.5444 67.4243 30.1152 66.3751 29.7701L67.6249 25.9703ZM28.6096 27.5494L27.0472 28.591L24.8284 25.2628L26.3908 24.2212L28.6096 27.5494ZM23.3752 25.9704C23.8809 25.8041 24.3699 25.5684 24.8284 25.2628L27.0472 28.591C26.285 29.0991 25.4695 29.4924 24.6248 29.7702L23.3752 25.9704ZM39.9532 28.591L36.8284 26.5078L39.0472 23.1796L42.172 25.2628L39.9532 28.591ZM30.172 26.5078L28.6096 27.5494L26.3908 24.2212L27.9532 23.1796L30.172 26.5078ZM52.6096 27.5494L51.0472 28.591L48.8284 25.2628L50.3908 24.2212L52.6096 27.5494ZM42.172 25.2628C44.1874 26.6064 46.813 26.6064 48.8284 25.2628L51.0472 28.591C47.6882 30.8303 43.3122 30.8303 39.9532 28.591L42.172 25.2628ZM36.8284 26.5078C34.813 25.1642 32.1874 25.1642 30.172 26.5078L27.9532 23.1796C31.3122 20.9403 35.6882 20.9403 39.0472 23.1796L36.8284 26.5078ZM63.9532 28.591L60.8284 26.5078L63.0472 23.1796L66.172 25.2628L63.9532 28.591ZM54.172 26.5078L52.6096 27.5494L50.3908 24.2212L51.9532 23.1796L54.172 26.5078ZM66.172 25.2628C66.6303 25.5684 67.1193 25.804 67.6249 25.9703L66.3751 29.7701C65.5306 29.4923 64.7152 29.099 63.9532 28.591L66.172 25.2628ZM60.8284 26.5078C58.813 25.1642 56.1874 25.1642 54.172 26.5078L51.9532 23.1796C55.3122 20.9403 59.6882 20.9403 63.0472 23.1796L60.8284 26.5078Z" fill="currentColor" />
  <path d="M27.5002 53.4244L26.3908 51.7603H26.3908L27.5002 53.4244ZM25.9378 54.466L27.0472 56.1301V56.1301L25.9378 54.466ZM24.6248 57.3093C23.5756 57.6543 22.4452 57.0835 22.1001 56.0342C21.755 54.9849 22.3259 53.8546 23.3752 53.5095L24.6248 57.3093ZM41.0626 54.466L39.9532 56.1301L39.9532 56.1301L41.0626 54.466ZM37.9378 52.3828L39.0472 50.7187L37.9378 52.3828ZM29.0626 52.3828L30.172 54.0469L29.0626 52.3828ZM51.5002 53.4244L50.3908 51.7603L51.5002 53.4244ZM49.9378 54.466L51.0472 56.1301L49.9378 54.466ZM65.0626 54.466L66.172 52.8019L65.0626 54.466ZM61.9378 52.3828L60.8284 54.0469V54.0469L61.9378 52.3828ZM53.0626 52.3828L54.172 54.0469L54.172 54.0469L53.0626 52.3828ZM67.6249 53.5094C68.6742 53.8545 69.245 54.9849 68.8999 56.0342C68.5547 57.0834 67.4243 57.6543 66.3751 57.3091L67.6249 53.5094ZM28.6096 55.0885L27.0472 56.1301L24.8284 52.8019L26.3908 51.7603L28.6096 55.0885ZM23.3752 53.5095C23.8809 53.3431 24.3699 53.1075 24.8284 52.8019L27.0472 56.1301C26.285 56.6382 25.4695 57.0315 24.6248 57.3093L23.3752 53.5095ZM39.9532 56.1301L36.8284 54.0469L39.0472 50.7187L42.172 52.8019L39.9532 56.1301ZM30.172 54.0469L28.6096 55.0885L26.3908 51.7603L27.9532 50.7187L30.172 54.0469ZM52.6096 55.0885L51.0472 56.1301L48.8284 52.8019L50.3908 51.7603L52.6096 55.0885ZM42.172 52.8019C44.1874 54.1455 46.813 54.1455 48.8284 52.8019L51.0472 56.1301C47.6882 58.3694 43.3122 58.3694 39.9532 56.1301L42.172 52.8019ZM36.8284 54.0469C34.813 52.7033 32.1874 52.7033 30.172 54.0469L27.9532 50.7187C31.3122 48.4793 35.6882 48.4793 39.0472 50.7187L36.8284 54.0469ZM63.9532 56.1301L60.8284 54.0469L63.0472 50.7187L66.172 52.8019L63.9532 56.1301ZM54.172 54.0469L52.6096 55.0885L50.3908 51.7603L51.9532 50.7187L54.172 54.0469ZM66.172 52.8019C66.6303 53.1075 67.1193 53.3431 67.6249 53.5094L66.3751 57.3091C65.5306 57.0313 64.7152 56.6381 63.9532 56.1301L66.172 52.8019ZM60.8284 54.0469C58.813 52.7033 56.1874 52.7033 54.172 54.0469L51.9532 50.7187C55.3122 48.4793 59.6882 48.4793 63.0472 50.7187L60.8284 54.0469Z" fill="currentColor" />
</svg>