<svg viewBox="0 0 80 80" fill="none">
  <path d="M11.5626 17.8436L10.4532 16.1795L10.4532 16.1795L11.5626 17.8436ZM8.43776 19.9268L9.54716 21.5909L8.43776 19.9268ZM22.0002 18.8852L23.1096 17.2211L23.1096 17.2211L22.0002 18.8852ZM20.4378 17.8436L19.3284 19.5077L19.3284 19.5077L20.4378 17.8436ZM4.00004 19.2704C2.89547 19.2704 2.00002 20.1658 2 21.2704C1.99998 22.3749 2.89539 23.2704 3.99996 23.2704L4.00004 19.2704ZM35.5626 17.8436L36.672 19.5077L35.5626 17.8436ZM32.4378 19.9268L31.3284 18.2627L31.3284 18.2627L32.4378 19.9268ZM23.5626 19.9268L22.4532 21.5909L22.4532 21.5909L23.5626 19.9268ZM46.0002 18.8852L47.1096 17.2211V17.2211L46.0002 18.8852ZM44.4378 17.8436L43.3284 19.5077V19.5077L44.4378 17.8436ZM59.5626 17.8436L60.672 19.5077L59.5626 17.8436ZM56.4378 19.9268L55.3284 18.2627V18.2627L56.4378 19.9268ZM47.5626 19.9268L46.4532 21.5909V21.5909L47.5626 19.9268ZM70.0002 18.8852L68.8908 20.5493V20.5493L70.0002 18.8852ZM68.4378 17.8436L67.3284 19.5077V19.5077L68.4378 17.8436ZM71.5626 19.9268L72.672 18.2627V18.2627L71.5626 19.9268ZM76 23.2704C77.1045 23.2704 78 22.375 78 21.2704C78 20.1659 77.1046 19.2704 76 19.2704L76 23.2704ZM10.4532 16.1795L7.32836 18.2627L9.54716 21.5909L12.672 19.5077L10.4532 16.1795ZM23.1096 17.2211L21.5472 16.1795L19.3284 19.5077L20.8908 20.5493L23.1096 17.2211ZM12.672 19.5077C14.6874 18.1641 17.313 18.1641 19.3284 19.5077L21.5472 16.1795C18.1882 13.9402 13.8122 13.9402 10.4532 16.1795L12.672 19.5077ZM7.32836 18.2627C6.32052 18.9346 5.16104 19.2704 4.00004 19.2704L3.99996 23.2704C5.93307 23.2704 7.86772 22.7105 9.54716 21.5909L7.32836 18.2627ZM34.4532 16.1795L31.3284 18.2627L33.5472 21.5909L36.672 19.5077L34.4532 16.1795ZM24.672 18.2627L23.1096 17.2211L20.8908 20.5493L22.4532 21.5909L24.672 18.2627ZM47.1096 17.2211L45.5472 16.1795L43.3284 19.5077L44.8908 20.5493L47.1096 17.2211ZM36.672 19.5077C38.6874 18.1641 41.313 18.1641 43.3284 19.5077L45.5472 16.1795C42.1882 13.9402 37.8121 13.9402 34.4532 16.1795L36.672 19.5077ZM31.3284 18.2627C29.313 19.6063 26.6874 19.6063 24.672 18.2627L22.4532 21.5909C25.8122 23.8302 30.1882 23.8302 33.5472 21.5909L31.3284 18.2627ZM58.4532 16.1795L55.3284 18.2627L57.5472 21.5909L60.672 19.5077L58.4532 16.1795ZM48.672 18.2627L47.1096 17.2211L44.8908 20.5493L46.4532 21.5909L48.672 18.2627ZM71.1096 17.2211L69.5472 16.1795L67.3284 19.5077L68.8908 20.5493L71.1096 17.2211ZM60.672 19.5077C62.6874 18.1641 65.313 18.1641 67.3284 19.5077L69.5472 16.1795C66.1882 13.9402 61.8121 13.9402 58.4532 16.1795L60.672 19.5077ZM55.3284 18.2627C53.313 19.6063 50.6874 19.6063 48.672 18.2627L46.4532 21.5909C49.8121 23.8302 54.1882 23.8302 57.5472 21.5909L55.3284 18.2627ZM72.672 18.2627L71.1096 17.2211L68.8908 20.5493L70.4532 21.5909L72.672 18.2627ZM76 19.2704C74.8391 19.2704 73.6797 18.9345 72.672 18.2627L70.4532 21.5909C72.1325 22.7104 74.067 23.2704 76 23.2704L76 19.2704Z" fill="currentColor" />
  <path opacity="0.25" d="M11.5626 31.6131L10.4532 29.949L10.4532 29.949L11.5626 31.6131ZM8.43776 33.6963L9.54716 35.3604L8.43776 33.6963ZM22.0002 32.6547L23.1096 30.9906L23.1096 30.9906L22.0002 32.6547ZM20.4378 31.6131L19.3284 33.2772L19.3284 33.2772L20.4378 31.6131ZM4.00004 33.0399C2.89547 33.0399 2.00002 33.9353 2 35.0399C1.99998 36.1445 2.89539 37.0399 3.99996 37.0399L4.00004 33.0399ZM35.5626 31.6131L36.672 33.2772L35.5626 31.6131ZM32.4378 33.6963L31.3284 32.0322L31.3284 32.0322L32.4378 33.6963ZM23.5626 33.6963L22.4532 35.3604L22.4532 35.3604L23.5626 33.6963ZM46.0002 32.6547L47.1096 30.9906V30.9906L46.0002 32.6547ZM44.4378 31.6131L43.3284 33.2772V33.2772L44.4378 31.6131ZM59.5626 31.6131L60.672 33.2772L59.5626 31.6131ZM56.4378 33.6963L55.3284 32.0322V32.0322L56.4378 33.6963ZM47.5626 33.6963L46.4532 35.3604V35.3604L47.5626 33.6963ZM70.0002 32.6547L68.8908 34.3188V34.3188L70.0002 32.6547ZM68.4378 31.6131L67.3284 33.2772V33.2772L68.4378 31.6131ZM71.5626 33.6963L72.672 32.0322V32.0322L71.5626 33.6963ZM76 37.0399C77.1045 37.0399 78 36.1445 78 35.04C78 33.9354 77.1046 33.0399 76 33.0399L76 37.0399ZM10.4532 29.949L7.32836 32.0322L9.54716 35.3604L12.672 33.2772L10.4532 29.949ZM23.1096 30.9906L21.5472 29.949L19.3284 33.2772L20.8908 34.3188L23.1096 30.9906ZM12.672 33.2772C14.6874 31.9336 17.313 31.9336 19.3284 33.2772L21.5472 29.949C18.1882 27.7097 13.8122 27.7097 10.4532 29.949L12.672 33.2772ZM7.32836 32.0322C6.32052 32.7041 5.16104 33.0399 4.00004 33.0399L3.99996 37.0399C5.93307 37.04 7.86772 36.4801 9.54716 35.3604L7.32836 32.0322ZM34.4532 29.949L31.3284 32.0322L33.5472 35.3604L36.672 33.2772L34.4532 29.949ZM24.672 32.0322L23.1096 30.9906L20.8908 34.3188L22.4532 35.3604L24.672 32.0322ZM47.1096 30.9906L45.5472 29.949L43.3284 33.2772L44.8908 34.3188L47.1096 30.9906ZM36.672 33.2772C38.6874 31.9336 41.313 31.9336 43.3284 33.2772L45.5472 29.949C42.1882 27.7097 37.8121 27.7097 34.4532 29.949L36.672 33.2772ZM31.3284 32.0322C29.313 33.3758 26.6874 33.3758 24.672 32.0322L22.4532 35.3604C25.8122 37.5998 30.1882 37.5998 33.5472 35.3604L31.3284 32.0322ZM58.4532 29.949L55.3284 32.0322L57.5472 35.3604L60.672 33.2772L58.4532 29.949ZM48.672 32.0322L47.1096 30.9906L44.8908 34.3188L46.4532 35.3604L48.672 32.0322ZM71.1096 30.9906L69.5472 29.949L67.3284 33.2772L68.8908 34.3188L71.1096 30.9906ZM60.672 33.2772C62.6874 31.9336 65.313 31.9336 67.3284 33.2772L69.5472 29.949C66.1882 27.7097 61.8121 27.7097 58.4532 29.949L60.672 33.2772ZM55.3284 32.0322C53.313 33.3758 50.6874 33.3758 48.672 32.0322L46.4532 35.3604C49.8121 37.5998 54.1882 37.5998 57.5472 35.3604L55.3284 32.0322ZM72.672 32.0322L71.1096 30.9906L68.8908 34.3188L70.4532 35.3604L72.672 32.0322ZM76 33.0399C74.8391 33.0399 73.6797 32.7041 72.672 32.0322L70.4532 35.3604C72.1325 36.48 74.067 37.0399 76 37.0399L76 33.0399Z" fill="currentColor" />
  <path d="M11.5626 45.3827L10.4532 43.7186L10.4532 43.7186L11.5626 45.3827ZM8.43776 47.4659L9.54716 49.13L8.43776 47.4659ZM22.0002 46.4243L23.1096 44.7602L23.1096 44.7602L22.0002 46.4243ZM20.4378 45.3827L19.3284 47.0468L19.3284 47.0468L20.4378 45.3827ZM4.00004 46.8095C2.89547 46.8094 2.00002 47.7048 2 48.8094C1.99998 49.914 2.89539 50.8094 3.99996 50.8095L4.00004 46.8095ZM35.5626 45.3827L36.672 47.0468L35.5626 45.3827ZM32.4378 47.4659L31.3284 45.8018L31.3284 45.8018L32.4378 47.4659ZM23.5626 47.4659L22.4532 49.13L22.4532 49.13L23.5626 47.4659ZM46.0002 46.4243L47.1096 44.7602V44.7602L46.0002 46.4243ZM44.4378 45.3827L43.3284 47.0468V47.0468L44.4378 45.3827ZM59.5626 45.3827L60.672 47.0468L59.5626 45.3827ZM56.4378 47.4659L55.3284 45.8018V45.8018L56.4378 47.4659ZM47.5626 47.4659L46.4532 49.13V49.13L47.5626 47.4659ZM70.0002 46.4243L68.8908 48.0884V48.0884L70.0002 46.4243ZM68.4378 45.3827L67.3284 47.0468V47.0468L68.4378 45.3827ZM71.5626 47.4659L72.672 45.8018V45.8018L71.5626 47.4659ZM76 50.8095C77.1045 50.8095 78 49.9141 78 48.8095C78 47.7049 77.1046 46.8095 76 46.8095L76 50.8095ZM10.4532 43.7186L7.32836 45.8018L9.54716 49.13L12.672 47.0468L10.4532 43.7186ZM23.1096 44.7602L21.5472 43.7186L19.3284 47.0468L20.8908 48.0884L23.1096 44.7602ZM12.672 47.0468C14.6874 45.7032 17.313 45.7032 19.3284 47.0468L21.5472 43.7186C18.1882 41.4792 13.8122 41.4792 10.4532 43.7186L12.672 47.0468ZM7.32836 45.8018C6.32052 46.4737 5.16104 46.8095 4.00004 46.8095L3.99996 50.8095C5.93307 50.8095 7.86772 50.2496 9.54716 49.13L7.32836 45.8018ZM34.4532 43.7186L31.3284 45.8018L33.5472 49.13L36.672 47.0468L34.4532 43.7186ZM24.672 45.8018L23.1096 44.7602L20.8908 48.0884L22.4532 49.13L24.672 45.8018ZM47.1096 44.7602L45.5472 43.7186L43.3284 47.0468L44.8908 48.0884L47.1096 44.7602ZM36.672 47.0468C38.6874 45.7032 41.313 45.7032 43.3284 47.0468L45.5472 43.7186C42.1882 41.4792 37.8121 41.4792 34.4532 43.7186L36.672 47.0468ZM31.3284 45.8018C29.313 47.1454 26.6874 47.1454 24.672 45.8018L22.4532 49.13C25.8122 51.3693 30.1882 51.3693 33.5472 49.13L31.3284 45.8018ZM58.4532 43.7186L55.3284 45.8018L57.5472 49.13L60.672 47.0468L58.4532 43.7186ZM48.672 45.8018L47.1096 44.7602L44.8908 48.0884L46.4532 49.13L48.672 45.8018ZM71.1096 44.7602L69.5472 43.7186L67.3284 47.0468L68.8908 48.0884L71.1096 44.7602ZM60.672 47.0468C62.6874 45.7032 65.313 45.7032 67.3284 47.0468L69.5472 43.7186C66.1882 41.4792 61.8121 41.4792 58.4532 43.7186L60.672 47.0468ZM55.3284 45.8018C53.313 47.1454 50.6874 47.1454 48.672 45.8018L46.4532 49.13C49.8121 51.3693 54.1882 51.3693 57.5472 49.13L55.3284 45.8018ZM72.672 45.8018L71.1096 44.7602L68.8908 48.0884L70.4532 49.13L72.672 45.8018ZM76 46.8095C74.8391 46.8094 73.6797 46.4736 72.672 45.8018L70.4532 49.13C72.1325 50.2495 74.067 50.8094 76 50.8095L76 46.8095Z" fill="currentColor" />
  <path opacity="0.25" d="M11.5626 59.1522L10.4532 57.4881L10.4532 57.4881L11.5626 59.1522ZM8.43776 61.2354L9.54716 62.8995L8.43776 61.2354ZM22.0002 60.1938L23.1096 58.5297L23.1096 58.5297L22.0002 60.1938ZM20.4378 59.1522L19.3284 60.8163L19.3284 60.8163L20.4378 59.1522ZM4.00004 60.579C2.89547 60.579 2.00002 61.4744 2 62.5789C1.99998 63.6835 2.89539 64.579 3.99996 64.579L4.00004 60.579ZM35.5626 59.1522L36.672 60.8163L35.5626 59.1522ZM32.4378 61.2354L31.3284 59.5713L31.3284 59.5713L32.4378 61.2354ZM23.5626 61.2354L22.4532 62.8995L22.4532 62.8995L23.5626 61.2354ZM46.0002 60.1938L47.1096 58.5297V58.5297L46.0002 60.1938ZM44.4378 59.1522L43.3284 60.8163V60.8163L44.4378 59.1522ZM59.5626 59.1522L60.672 60.8163L59.5626 59.1522ZM56.4378 61.2354L55.3284 59.5713V59.5713L56.4378 61.2354ZM47.5626 61.2354L46.4532 62.8995V62.8995L47.5626 61.2354ZM70.0002 60.1938L68.8908 61.8579V61.8579L70.0002 60.1938ZM68.4378 59.1522L67.3284 60.8163V60.8163L68.4378 59.1522ZM71.5626 61.2354L72.672 59.5713V59.5713L71.5626 61.2354ZM76 64.579C77.1045 64.579 78 63.6836 78 62.579C78 61.4745 77.1046 60.579 76 60.579L76 64.579ZM10.4532 57.4881L7.32836 59.5713L9.54716 62.8995L12.672 60.8163L10.4532 57.4881ZM23.1096 58.5297L21.5472 57.4881L19.3284 60.8163L20.8908 61.8579L23.1096 58.5297ZM12.672 60.8163C14.6874 59.4727 17.313 59.4727 19.3284 60.8163L21.5472 57.4881C18.1882 55.2488 13.8122 55.2488 10.4532 57.4881L12.672 60.8163ZM7.32836 59.5713C6.32052 60.2432 5.16104 60.579 4.00004 60.579L3.99996 64.579C5.93307 64.579 7.86772 64.0191 9.54716 62.8995L7.32836 59.5713ZM34.4532 57.4881L31.3284 59.5713L33.5472 62.8995L36.672 60.8163L34.4532 57.4881ZM24.672 59.5713L23.1096 58.5297L20.8908 61.8579L22.4532 62.8995L24.672 59.5713ZM47.1096 58.5297L45.5472 57.4881L43.3284 60.8163L44.8908 61.8579L47.1096 58.5297ZM36.672 60.8163C38.6874 59.4727 41.313 59.4727 43.3284 60.8163L45.5472 57.4881C42.1882 55.2488 37.8121 55.2488 34.4532 57.4881L36.672 60.8163ZM31.3284 59.5713C29.313 60.9149 26.6874 60.9149 24.672 59.5713L22.4532 62.8995C25.8122 65.1388 30.1882 65.1388 33.5472 62.8995L31.3284 59.5713ZM58.4532 57.4881L55.3284 59.5713L57.5472 62.8995L60.672 60.8163L58.4532 57.4881ZM48.672 59.5713L47.1096 58.5297L44.8908 61.8579L46.4532 62.8995L48.672 59.5713ZM71.1096 58.5297L69.5472 57.4881L67.3284 60.8163L68.8908 61.8579L71.1096 58.5297ZM60.672 60.8163C62.6874 59.4727 65.313 59.4727 67.3284 60.8163L69.5472 57.4881C66.1882 55.2488 61.8121 55.2488 58.4532 57.4881L60.672 60.8163ZM55.3284 59.5713C53.313 60.9149 50.6874 60.9149 48.672 59.5713L46.4532 62.8995C49.8121 65.1388 54.1882 65.1388 57.5472 62.8995L55.3284 59.5713ZM72.672 59.5713L71.1096 58.5297L68.8908 61.8579L70.4532 62.8995L72.672 59.5713ZM76 60.579C74.8391 60.579 73.6797 60.2431 72.672 59.5713L70.4532 62.8995C72.1325 64.019 74.067 64.579 76 64.579L76 60.579Z" fill="currentColor" />
</svg>