<svg viewBox="0 0 80 80" fill="none">
  <path d="M38.5 65C38.5 64.1716 37.8284 63.5 37 63.5C36.1716 63.5 35.5 64.1716 35.5 65H38.5ZM53 72.9373C53.8284 72.9373 54.5 72.2658 54.5 71.4373C54.5 70.6089 53.8284 69.9373 53 69.9373V72.9373ZM21 69.9373C20.1716 69.9373 19.5 70.6089 19.5 71.4373C19.5 72.2658 20.1716 72.9373 21 72.9373L21 69.9373ZM38.5 71.4373V65H35.5V71.4373H38.5ZM37 72.9373L53 72.9373V69.9373L37 69.9373V72.9373ZM37 69.9373L21 69.9373L21 72.9373L37 72.9373V69.9373Z" fill="currentColor" />
  <path d="M20.2611 58.1217L19.0431 57.2461L20.2611 58.1217ZM20.4991 59.5035L21.3329 58.2566L21.3329 58.2566L20.4991 59.5035ZM23.9905 52.9336L24.866 51.7157L23.6481 50.8401L22.7725 52.0581L23.9905 52.9336ZM34.0389 56.9132L33.8431 58.4004L33.8431 58.4004L34.0389 56.9132ZM58.9165 37.824L60.4037 38.0198L60.4037 38.0198L58.9165 37.824ZM54.5242 21.4317L53.3342 22.3448L54.5242 21.4317ZM46.0536 14.7193L44.6864 14.1023L44.0694 15.4695L45.4366 16.0865L46.0536 14.7193ZM48.6833 8.8924L50.0505 9.50941L48.6833 8.8924ZM49.999 8.40762L50.662 7.06207L49.999 8.40762ZM60.388 16.9304L61.578 16.0172L61.578 16.0172L60.388 16.9304ZM66.2444 38.7868L64.7572 38.591L64.7572 38.591L66.2444 38.7868ZM54.9307 58.3827L54.0176 57.1927L54.9307 58.3827ZM33.0743 64.2391L33.2701 62.7519L33.0743 64.2391ZM19.0431 57.2461C18.2453 58.356 18.4733 59.9533 19.6653 60.7504L21.3329 58.2566C21.6067 58.4397 21.6321 58.7842 21.479 58.9972L19.0431 57.2461ZM22.7725 52.0581L19.0431 57.2461L21.479 58.9972L25.2085 53.8092L22.7725 52.0581ZM34.2347 55.426C30.8228 54.9769 27.6105 53.6885 24.866 51.7157L23.115 54.1516C26.2575 56.4106 29.936 57.886 33.8431 58.4004L34.2347 55.426ZM49.5181 51.3309C45.1682 54.6686 39.6707 56.1417 34.2347 55.426L33.8431 58.4004C40.0679 59.2199 46.3633 57.533 51.3444 53.7109L49.5181 51.3309ZM57.4293 37.6282C56.7137 43.0641 53.8679 47.9931 49.5181 51.3309L51.3444 53.7109C56.3254 49.8888 59.5842 44.2445 60.4037 38.0198L57.4293 37.6282ZM53.3342 22.3448C56.6719 26.6946 58.145 32.1922 57.4293 37.6282L60.4037 38.0198C61.2232 31.795 59.5363 25.4996 55.7142 20.5185L53.3342 22.3448ZM45.4366 16.0865C48.5174 17.4769 51.2392 19.6146 53.3342 22.3448L55.7142 20.5185C53.3152 17.392 50.1982 14.9441 46.6706 13.3521L45.4366 16.0865ZM47.316 8.27538L44.6864 14.1023L47.4208 15.3363L50.0505 9.50941L47.316 8.27538ZM50.662 7.06207C49.3756 6.42829 47.8783 7.02949 47.316 8.27538L50.0505 9.50941C49.9426 9.74848 49.6315 9.89875 49.3361 9.75317L50.662 7.06207ZM61.578 16.0172C58.6474 12.1979 54.9002 9.15028 50.662 7.06207L49.3361 9.75317C53.1652 11.6398 56.5504 14.3931 59.198 17.8435L61.578 16.0172ZM67.7316 38.9826C68.8069 30.8143 66.5934 22.5534 61.578 16.0172L59.198 17.8435C63.729 23.7485 65.7288 31.2116 64.7572 38.591L67.7316 38.9826ZM55.8438 59.5727C62.3801 54.5573 66.6562 47.1508 67.7316 38.9826L64.7572 38.591C63.7857 45.9704 59.9225 52.6616 54.0176 57.1927L55.8438 59.5727ZM32.8785 65.7263C41.0467 66.8016 49.3076 64.5881 55.8438 59.5727L54.0176 57.1927C48.1126 61.7237 40.6495 63.7235 33.2701 62.7519L32.8785 65.7263ZM19.6653 60.7504C23.5929 63.3767 28.1057 65.0979 32.8785 65.7263L33.2701 62.7519C28.9582 62.1843 24.8813 60.6294 21.3329 58.2566L19.6653 60.7504Z" fill="currentColor" />
  <g clip-path="url(#clip0)">
    <path opacity="0.25" d="M39.8941 13.0165C45.7245 13.7841 51.0111 16.8364 54.5911 21.5018C58.171 26.1673 59.7509 32.0637 58.9834 37.8941C58.2158 43.7245 55.1635 49.0111 50.4981 52.5911C45.8326 56.171 39.9361 57.7509 34.1058 56.9834C28.2754 56.2158 22.9888 53.1635 19.4088 48.4981C15.8289 43.8326 14.2489 37.9361 15.0165 32.1058C15.7841 26.2754 18.8364 20.9888 23.5018 17.4088C28.1673 13.8289 34.0637 12.2489 39.8941 13.0165Z" fill="currentColor" stroke="currentColor" stroke-width="4" />
    <path fill-rule="evenodd" clip-rule="evenodd" d="M22.6692 41.7594C23.8469 32.8138 28.53 24.7024 35.6883 19.2096C38.4665 17.0778 41.5293 15.4082 44.7603 14.232C47.0627 15.0925 49.2067 16.3302 51.1033 17.8937C51.7007 21.2809 51.7864 24.7693 51.3292 28.2424C50.1514 37.188 45.4683 45.2994 38.31 50.7922C35.5305 52.925 32.4662 54.5952 29.2336 55.7714C26.9332 54.9113 24.791 53.6746 22.8958 52.1127C22.2977 48.724 22.2117 45.2341 22.6692 41.7594ZM37.5146 21.5897C40.5984 19.2234 44.0667 17.4816 47.7281 16.4158C48.6363 20.1204 48.8623 23.996 48.3548 27.8508C47.281 36.0076 43.0108 43.4037 36.4838 48.4121C33.3999 50.7784 29.9316 52.5202 26.2703 53.586C25.362 49.8814 25.136 46.0058 25.6435 42.151C26.7174 33.9942 30.9875 26.5981 37.5146 21.5897Z" fill="currentColor" />
    <path fill-rule="evenodd" clip-rule="evenodd" d="M21.8902 18.7709C22.4031 18.2935 22.9404 17.8387 23.501 17.4085C23.7953 17.1826 24.0946 16.9648 24.3984 16.7549L59.0999 36.7898C59.07 37.1579 59.031 37.5259 58.9825 37.8938C58.8903 38.5944 58.7651 39.2871 58.608 39.97L21.8902 18.7709ZM14.9865 32.3365C14.9958 32.2595 15.0056 32.1825 15.0157 32.1054C15.1445 31.1271 15.3376 30.1641 15.5919 29.2219L52.7063 50.65C52.0175 51.3413 51.2801 51.99 50.4972 52.5907C50.4356 52.638 50.3738 52.6849 50.3117 52.7315L14.9865 32.3365Z" fill="currentColor" />
  </g>
  <defs>
    <clipPath id="clip0">
      <rect width="48" height="48" fill="currentColor" transform="translate(28.2153 2.21533) rotate(30)" />
    </clipPath>
  </defs>
</svg>