<svg viewBox="0 0 80 80" fill="none">
  <g clip-path="url(#clip0)">
    <path d="M38.5 65C38.5 64.1716 37.8284 63.5 37 63.5C36.1716 63.5 35.5 64.1716 35.5 65H38.5ZM53 72.9373C53.8284 72.9373 54.5 72.2658 54.5 71.4373C54.5 70.6089 53.8284 69.9373 53 69.9373V72.9373ZM21 69.9374C20.1716 69.9374 19.5 70.6089 19.5 71.4374C19.5 72.2658 20.1716 72.9374 21 72.9374L21 69.9374ZM38.5 71.4373V65H35.5V71.4373H38.5ZM37 72.9373L53 72.9373V69.9373L37 69.9373V72.9373ZM37 69.9373L21 69.9374L21 72.9374L37 72.9373V69.9373Z" fill="currentColor" />
    <path d="M20.2611 58.1217L19.0431 57.2461L20.2611 58.1217ZM20.4991 59.5035L21.3329 58.2566L21.3329 58.2566L20.4991 59.5035ZM23.9905 52.9336L24.866 51.7157L23.6481 50.8401L22.7725 52.0581L23.9905 52.9336ZM34.0389 56.9132L33.8431 58.4004L33.8431 58.4004L34.0389 56.9132ZM58.9165 37.824L60.4037 38.0198L60.4037 38.0198L58.9165 37.824ZM54.5242 21.4317L53.3342 22.3448L54.5242 21.4317ZM46.0536 14.7193L44.6864 14.1023L44.0694 15.4695L45.4366 16.0865L46.0536 14.7193ZM48.6833 8.8924L50.0505 9.50941L48.6833 8.8924ZM49.999 8.40762L50.662 7.06207L49.999 8.40762ZM60.388 16.9304L61.578 16.0172L61.578 16.0172L60.388 16.9304ZM66.2444 38.7868L64.7572 38.591L64.7572 38.591L66.2444 38.7868ZM54.9307 58.3827L54.0176 57.1927L54.9307 58.3827ZM33.0743 64.2391L33.2701 62.7519L33.0743 64.2391ZM19.0431 57.2461C18.2453 58.356 18.4733 59.9533 19.6653 60.7504L21.3329 58.2566C21.6067 58.4397 21.6321 58.7842 21.479 58.9972L19.0431 57.2461ZM22.7725 52.0581L19.0431 57.2461L21.479 58.9972L25.2085 53.8092L22.7725 52.0581ZM34.2347 55.426C30.8228 54.9769 27.6105 53.6885 24.866 51.7157L23.115 54.1516C26.2575 56.4106 29.936 57.886 33.8431 58.4004L34.2347 55.426ZM49.5181 51.3309C45.1682 54.6686 39.6707 56.1417 34.2347 55.426L33.8431 58.4004C40.0679 59.2199 46.3633 57.533 51.3444 53.7109L49.5181 51.3309ZM57.4293 37.6282C56.7137 43.0641 53.8679 47.9931 49.5181 51.3309L51.3444 53.7109C56.3254 49.8888 59.5842 44.2445 60.4037 38.0198L57.4293 37.6282ZM53.3342 22.3448C56.6719 26.6946 58.145 32.1922 57.4293 37.6282L60.4037 38.0198C61.2232 31.795 59.5363 25.4996 55.7142 20.5185L53.3342 22.3448ZM45.4366 16.0865C48.5174 17.4769 51.2392 19.6146 53.3342 22.3448L55.7142 20.5185C53.3152 17.392 50.1982 14.9441 46.6706 13.3521L45.4366 16.0865ZM47.316 8.27538L44.6864 14.1023L47.4208 15.3363L50.0505 9.50941L47.316 8.27538ZM50.662 7.06207C49.3756 6.42829 47.8783 7.02949 47.316 8.27538L50.0505 9.50941C49.9426 9.74848 49.6315 9.89875 49.3361 9.75317L50.662 7.06207ZM61.578 16.0172C58.6474 12.1979 54.9002 9.15028 50.662 7.06207L49.3361 9.75317C53.1652 11.6398 56.5504 14.3931 59.198 17.8435L61.578 16.0172ZM67.7316 38.9826C68.8069 30.8143 66.5934 22.5534 61.578 16.0172L59.198 17.8435C63.729 23.7485 65.7288 31.2116 64.7572 38.591L67.7316 38.9826ZM55.8438 59.5727C62.3801 54.5573 66.6562 47.1508 67.7316 38.9826L64.7572 38.591C63.7857 45.9704 59.9225 52.6616 54.0176 57.1927L55.8438 59.5727ZM32.8785 65.7263C41.0467 66.8016 49.3076 64.5881 55.8438 59.5727L54.0176 57.1927C48.1126 61.7237 40.6495 63.7235 33.2701 62.7519L32.8785 65.7263ZM19.6653 60.7504C23.5929 63.3767 28.1057 65.0979 32.8785 65.7263L33.2701 62.7519C28.9582 62.1843 24.8813 60.6294 21.3329 58.2566L19.6653 60.7504Z" fill="currentColor" />
    <path opacity="0.25" d="M39.8941 13.0165C45.7245 13.7841 51.0111 16.8364 54.5911 21.5018C58.171 26.1673 59.7509 32.0637 58.9834 37.8941C58.2158 43.7245 55.1635 49.0111 50.4981 52.5911C45.8326 56.171 39.9361 57.7509 34.1058 56.9834C28.2754 56.2158 22.9888 53.1635 19.4088 48.4981C15.8289 43.8326 14.2489 37.9361 15.0165 32.1058C15.7841 26.2754 18.8364 20.9888 23.5018 17.4088C28.1673 13.8289 34.0637 12.2489 39.8941 13.0165Z" fill="currentColor" stroke="currentColor" stroke-width="4" />
    <path fill-rule="evenodd" clip-rule="evenodd" d="M42.9621 13.637C43.0023 13.7158 43.0404 13.7959 43.0765 13.877L43.3311 14.4509C43.6151 15.0911 44.095 15.6248 44.7015 15.975L45.0571 16.1802C45.524 16.4498 45.8768 16.88 46.0498 17.3906C46.2227 17.9013 46.5755 18.3315 47.0424 18.601L53.8794 22.5484C54.1142 22.6839 54.2867 22.9058 54.3603 23.1668L54.5838 23.96C54.7552 24.5683 54.1008 25.0771 53.5535 24.7611C53.3249 24.6292 53.0418 24.6361 52.8199 24.7789L52.391 25.0551C51.8814 25.3833 51.2267 25.3821 50.7183 25.0522L50.0558 24.6222C49.4116 24.2042 48.6225 24.0731 47.8778 24.2606L47.225 24.4249C46.6482 24.5701 46.0379 24.495 45.5135 24.2141L45.3322 24.117C44.3032 23.5659 43.0227 23.9251 42.4305 24.931C42.1497 25.408 41.6976 25.76 41.1663 25.9153L37.1366 27.0931C36.559 27.2619 35.9373 27.1843 35.4189 26.8788C34.4819 26.3264 33.2809 26.5498 32.6052 27.4022L32.5728 27.4431C32.1785 27.9404 31.5918 28.247 30.9584 28.2867L30.346 28.325C29.6684 28.3675 29.0679 28.7762 28.7798 29.3909L28.6541 29.6591C28.3455 30.3177 27.6097 30.661 26.9067 30.4742C26.2721 30.3056 25.8203 29.7447 25.7907 29.0887L25.7621 28.4518C25.6874 26.7932 23.9761 25.7224 22.4519 26.3804L21.8719 26.6308C21.6226 26.7384 21.3944 26.8894 21.1979 27.0767L20.0497 28.1714C19.8712 28.3416 19.594 28.3527 19.4024 28.1975C19.2918 28.1079 19.2256 27.9747 19.2209 27.8325L19.1059 24.3517C19.0858 23.7427 18.899 23.162 18.5789 22.6657C19.912 20.6731 21.5716 18.8916 23.5095 17.4046C28.1749 13.8247 34.0714 12.2447 39.9018 13.0123C40.9414 13.1492 41.9637 13.3587 42.9621 13.637ZM26.228 32.3656C25.3685 32.0711 24.4829 32.737 24.5272 33.6445L24.6447 36.0531C24.681 36.7967 24.9998 37.4984 25.536 38.0148L26.3735 38.8215C26.6929 39.1291 27.1501 39.2469 27.5784 39.1318C28.2784 38.9438 28.6772 38.2068 28.4518 37.518L27.0332 33.1821C26.9078 32.7987 26.6097 32.4964 26.228 32.3656ZM42.2973 28.784C43.1887 28.4984 43.4646 27.3724 42.8062 26.7071C42.4273 26.3243 41.8463 26.226 41.3627 26.463L39.5512 27.3507C38.8761 27.6815 38.7198 28.5744 39.2425 29.1148C39.5354 29.4177 39.975 29.5281 40.3763 29.3995L42.2973 28.784ZM31.7066 39.6598C31.2715 40.1308 31.3699 40.8811 31.9119 41.2238L34.1826 42.66C34.4751 42.845 34.8209 42.9273 35.1653 42.8937L35.4406 42.867C35.7099 42.8408 35.9549 42.7002 36.1135 42.4811C36.4413 42.028 36.3052 41.3909 35.8209 41.1113L32.9737 39.4675C32.5583 39.2276 32.0321 39.3075 31.7066 39.6598ZM31.8061 43.3493C30.8046 42.8339 29.6454 42.7158 28.5606 43.0187L27.8493 43.2173C27.0644 43.4364 26.4118 43.9827 26.0581 44.7168C25.414 46.0533 25.9095 47.6603 27.1943 48.4021L28.0036 48.8694C28.7396 49.2943 29.288 49.9814 29.5391 50.7933L29.6811 51.2525C29.8409 51.7692 30.19 52.2065 30.6584 52.477C31.6849 53.0697 32.9976 52.7179 33.5902 51.6914L34.3291 50.4117C34.7756 49.6383 34.9208 48.7274 34.737 47.8536L34.5102 46.7754C34.2065 45.3319 33.2687 44.102 31.9572 43.427L31.8061 43.3493ZM30.1215 35.7584C29.6899 34.9368 30.1242 33.9262 31.0173 33.674L33.2405 33.046C33.5058 32.9711 33.7909 33.0479 33.9827 33.246C34.3309 33.6057 34.2354 34.1991 33.7919 34.4313L33.7249 34.4664C33.5622 34.5516 33.4335 34.6897 33.36 34.8579L33.1105 35.4293C32.9383 35.8237 32.6247 36.1393 32.2314 36.3141L32.0071 36.4137C31.3041 36.7261 30.4793 36.4394 30.1215 35.7584ZM34.6974 54.9776C34.6385 54.525 34.8783 54.0862 35.2908 53.8912L36.44 53.348C37.0156 53.0759 37.6992 53.3728 37.8934 53.9792C38.0548 54.4834 37.8169 55.0291 37.3377 55.254L36.187 55.794C35.5421 56.0967 34.7892 55.684 34.6974 54.9776Z" fill="currentColor" />
  </g>
  <defs>
    <clipPath id="clip0">
      <rect width="80" height="80" fill="currentColor" />
    </clipPath>
  </defs>
</svg>