<svg viewBox="0 0 80 80" fill="none">
  <path opacity="0.5" d="M36 60.1083C36 61.2128 36.8954 62.1083 38 62.1083C39.1046 62.1083 40 61.2128 40 60.1083H36ZM40 20.1083C40 19.0037 39.1046 18.1083 38 18.1083C36.8954 18.1083 36 19.0037 36 20.1083H40ZM8 60.1083C8 61.2128 8.89543 62.1083 10 62.1083C11.1046 62.1083 12 61.2128 12 60.1083H8ZM12 20.1083C12 19.0037 11.1046 18.1083 10 18.1083C8.89543 18.1083 8 19.0037 8 20.1083H12ZM10 38.1083C8.89543 38.1083 8 39.0037 8 40.1083C8 41.2128 8.89543 42.1083 10 42.1083V38.1083ZM38 42.1083C39.1046 42.1083 40 41.2128 40 40.1083C40 39.0037 39.1046 38.1083 38 38.1083V42.1083ZM40 60.1083V20.1083H36V60.1083H40ZM12 60.1083V20.1083H8V60.1083H12ZM10 42.1083H38V38.1083H10V42.1083Z" fill="currentColor" />
  <path d="M54.5855 26.5862C53.8046 27.3674 53.8049 28.6337 54.5861 29.4146C55.3673 30.1955 56.6337 30.1952 57.4145 29.4139L54.5855 26.5862ZM63.7791 20.2173L65.1936 21.6312L65.1936 21.6312L63.7791 20.2173ZM61.9962 60.0001C61.9962 61.1046 62.8917 62.0001 63.9962 62.0001C65.1008 62.0001 65.9962 61.1046 65.9962 60.0001H61.9962ZM57.4145 29.4139L65.1936 21.6312L62.3645 18.8035L54.5855 26.5862L57.4145 29.4139ZM61.9962 20.3073V60.0001H65.9962V20.3073H61.9962ZM65.1936 21.6312C64.0139 22.8114 61.9962 21.976 61.9962 20.3073H65.9962C65.9962 18.4119 63.7044 17.4629 62.3645 18.8035L65.1936 21.6312Z" fill="currentColor" />
</svg>