<svg viewBox="0 0 80 80" fill="none">
  <path opacity="0.5" d="M36 60.1083C36 61.2128 36.8954 62.1083 38 62.1083C39.1046 62.1083 40 61.2128 40 60.1083H36ZM40 20.1083C40 19.0037 39.1046 18.1083 38 18.1083C36.8954 18.1083 36 19.0037 36 20.1083H40ZM8 60.1083C8 61.2128 8.89543 62.1083 10 62.1083C11.1046 62.1083 12 61.2128 12 60.1083H8ZM12 20.1083C12 19.0037 11.1046 18.1083 10 18.1083C8.89543 18.1083 8 19.0037 8 20.1083H12ZM10 38.1083C8.89543 38.1083 8 39.0037 8 40.1083C8 41.2128 8.89543 42.1083 10 42.1083V38.1083ZM38 42.1083C39.1046 42.1083 40 41.2128 40 40.1083C40 39.0037 39.1046 38.1083 38 38.1083V42.1083ZM40 60.1083V20.1083H36V60.1083H40ZM12 60.1083V20.1083H8V60.1083H12ZM10 42.1083H38V38.1083H10V42.1083Z" fill="currentColor" />
  <path d="M51.6667 18C50.5621 18 49.6667 18.8954 49.6667 20C49.6667 21.1046 50.5621 22 51.6667 22V18ZM70 62C71.1046 62 72 61.1046 72 60C72 58.8954 71.1046 58 70 58V62ZM64.8754 37.5623L63.981 35.7735H63.981L64.8754 37.5623ZM60 40L60.8944 41.7889L60 40ZM51.6667 22H60.7295V18H51.6667V22ZM50.8333 62H70V58H50.8333V62ZM63.981 35.7735L59.1056 38.2111L60.8944 41.7889L65.7698 39.3512L63.981 35.7735ZM48 56.1803V59.1667H52V56.1803H48ZM50.8333 58C51.4777 58 52 58.5223 52 59.1667H48C48 60.7315 49.2685 62 50.8333 62V58ZM59.1056 38.2111C52.2993 41.6143 48 48.5707 48 56.1803H52C52 50.0858 55.4433 44.5144 60.8944 41.7889L59.1056 38.2111ZM68 29.2705C68 32.0244 66.4441 34.5419 63.981 35.7735L65.7698 39.3512C69.5881 37.442 72 33.5395 72 29.2705H68ZM60.7295 22C64.7449 22 68 25.2551 68 29.2705H72C72 23.046 66.954 18 60.7295 18V22Z" fill="currentColor" />
</svg>