<svg viewBox="0 0 80 80" fill="none">
  <path opacity="0.25" fill-rule="evenodd" clip-rule="evenodd" d="M40.0002 23.2295C39.7502 23.2294 39.5001 23.134 39.3094 22.9432L37.172 20.8058C34.5464 18.1803 30.9855 16.7053 27.2725 16.7053C23.5594 16.7053 19.9985 18.1803 17.373 20.8058C14.7475 23.4313 13.2725 26.9923 13.2725 30.7053C13.2725 34.4184 14.7475 37.9793 17.373 40.6048L31.5151 54.747L38.5862 61.818C38.9766 62.2085 39.4884 62.4038 40.0002 62.4038V23.2295Z" fill="currentColor" />
  <path fill-rule="evenodd" clip-rule="evenodd" d="M40.0002 31.8173L39.6547 31.4717L38.586 30.403C37.2732 29.0903 35.4927 28.3528 33.6362 28.3528C31.7797 28.3528 29.9992 29.0903 28.6865 30.403C27.3737 31.7158 26.6362 33.4963 26.6362 35.3528C26.6362 37.2093 27.3737 38.9898 28.6865 40.3025L40.0002 51.6162L40.0002 31.8173Z" fill="currentColor" />
</svg>