<svg viewBox="0 0 80 80" fill="none">
  <path opacity="0.25" fill-rule="evenodd" clip-rule="evenodd" d="M17.373 20.8056C14.7475 23.4311 13.2725 26.992 13.2725 30.7051C13.2725 34.4181 14.7475 37.9791 17.373 40.6046L31.5151 54.7467L38.5862 61.8178C39.3672 62.5988 40.6335 62.5988 41.4146 61.8178L48.4857 54.7467L62.6278 40.6046C65.2533 37.9791 66.7283 34.4181 66.7283 30.7051C66.7283 26.992 65.2533 23.4311 62.6278 20.8056C60.0023 18.1801 56.4413 16.7051 52.7283 16.7051C49.0153 16.7051 45.4543 18.1801 42.8288 20.8056L40.6914 22.943C40.3098 23.3246 39.691 23.3246 39.3094 22.943L37.172 20.8056C34.5464 18.1801 30.9855 16.7051 27.2725 16.7051C23.5594 16.7051 19.9985 18.1801 17.373 20.8056Z" fill="currentColor" />
  <path fill-rule="evenodd" clip-rule="evenodd" d="M28.5683 30.4028C27.2556 31.7155 26.5181 33.496 26.5181 35.3525C26.5181 37.2091 27.2556 38.9895 28.5683 40.3023L39.882 51.616C39.882 51.616 39.882 51.616 39.882 51.616C39.882 51.616 39.8821 51.616 39.8821 51.616C39.8821 51.616 39.8821 51.616 39.8821 51.616L51.1958 40.3023C52.5085 38.9895 53.246 37.2091 53.246 35.3525C53.246 33.496 52.5085 31.7155 51.1958 30.4028C49.883 29.09 48.1026 28.3525 46.246 28.3525C44.3895 28.3525 42.609 29.09 41.2963 30.4028L40.2276 31.4715L39.8821 31.817C39.8821 31.817 39.882 31.817 39.882 31.817C39.882 31.817 39.882 31.817 39.882 31.817L39.5365 31.4715L38.4678 30.4028C37.1551 29.09 35.3746 28.3525 33.5181 28.3525C31.6616 28.3525 29.8811 29.09 28.5683 30.4028Z" fill="currentColor" />
</svg>