<svg viewBox="0 0 80 80" fill="none">
  <path opacity="0.5" d="M15.6519 25.6471L15.6519 8" stroke="currentColor" stroke-width="4" stroke-linecap="round" stroke-linejoin="round" />
  <ellipse cx="11.325" cy="25.6469" rx="4.32692" ry="3.43137" fill="currentColor" stroke="currentColor" stroke-width="4" stroke-linejoin="round" />
  <path opacity="0.5" d="M31.998 29.5687L31.998 11.9216" stroke="currentColor" stroke-width="4" stroke-linecap="round" stroke-linejoin="round" />
  <ellipse cx="27.6712" cy="29.5686" rx="4.32692" ry="3.43137" fill="currentColor" stroke="currentColor" stroke-width="4" stroke-linejoin="round" />
  <path d="M15.6519 12.9019L31.998 16.8235" stroke="currentColor" stroke-width="4" stroke-linecap="round" stroke-linejoin="round" />
  <path d="M15.6519 8.00006L31.998 11.9216" stroke="currentColor" stroke-width="4" stroke-linecap="round" stroke-linejoin="round" />
  <path d="M50.4917 16.5837L71.132 28.5004" stroke="currentColor" stroke-width="4" stroke-linecap="round" stroke-linejoin="round" />
  <path d="M50.0941 16.3543C48.5596 15.4683 48.0338 13.5061 48.9198 11.9716V11.9716C49.8057 10.4371 51.7679 9.91133 53.3024 10.7973L54.0963 11.2556C55.6308 12.1416 56.1566 14.1038 55.2706 15.6383V15.6383C54.3847 17.1728 52.4225 17.6986 50.8879 16.8126L50.0941 16.3543Z" stroke="currentColor" stroke-width="4" stroke-linecap="round" stroke-linejoin="round" />
  <g opacity="0.5">
    <path d="M50.4917 25.7502L71.132 13.8336" stroke="currentColor" stroke-width="4" stroke-linecap="round" stroke-linejoin="round" />
    <path d="M50.0941 25.9797C48.5596 26.8657 48.0338 28.8278 48.9198 30.3624V30.3624C49.8057 31.8969 51.7679 32.4227 53.3024 31.5367L54.0963 31.0784C55.6308 30.1924 56.1566 28.2302 55.2706 26.6957V26.6957C54.3847 25.1612 52.4225 24.6354 50.8879 25.5214L50.0941 25.9797Z" stroke="currentColor" stroke-width="4" stroke-linecap="round" stroke-linejoin="round" />
  </g>
  <ellipse opacity="0.5" cx="20.998" cy="67.7144" rx="2.11765" ry="2.14286" fill="currentColor" stroke="currentColor" stroke-width="4" stroke-linecap="round" stroke-linejoin="round" />
  <path d="M15.8532 61.2517L17.1092 62.8081H17.1092L15.8532 61.2517ZM12.3569 62.2101C11.7664 63.1436 12.0443 64.379 12.9778 64.9696C13.9112 65.5601 15.1467 65.2822 15.7372 64.3487L12.3569 62.2101ZM26.151 61.2517L27.407 59.6952V59.6952L26.151 61.2517ZM26.2663 64.3477C26.8571 65.281 28.0926 65.5587 29.0259 64.968C29.9592 64.3772 30.2369 63.1417 29.6462 62.2084L26.2663 64.3477ZM11.9915 55.2801L13.2474 56.8366V56.8366L11.9915 55.2801ZM17.7862 52.4563L17.3361 50.5076L17.7862 52.4563ZM7.89183 56.6705C7.22894 57.554 7.4078 58.8076 8.29134 59.4705C9.17488 60.1334 10.4285 59.9546 11.0914 59.071L7.89183 56.6705ZM30.0126 55.2801L31.2686 53.7237L31.2686 53.7237L30.0126 55.2801ZM30.9119 59.07C31.5749 59.9535 32.8285 60.1322 33.712 59.4692C34.5955 58.8062 34.7742 57.5526 34.1112 56.6691L30.9119 59.07ZM24.2179 52.4563L23.7678 54.405L24.2179 52.4563ZM8.12663 49.3112L9.38262 50.8677H9.38262L8.12663 49.3112ZM16.4048 45.2772L15.9548 43.3285V43.3285L16.4048 45.2772ZM3.39896 51.24C2.70843 52.1022 2.84753 53.3608 3.70965 54.0513C4.57177 54.7419 5.83043 54.6028 6.52096 53.7407L3.39896 51.24ZM33.8712 49.3112L32.6152 50.8677V50.8677L33.8712 49.3112ZM35.4788 53.7431C36.1692 54.6053 37.4278 54.7446 38.29 54.0542C39.1523 53.3638 39.2916 52.1052 38.6012 51.2429L35.4788 53.7431ZM25.593 45.2772L25.1429 47.2259L25.593 45.2772ZM17.1092 62.8081C17.8446 62.2146 18.7011 61.7977 19.6145 61.5868L18.7144 57.6894C17.2088 58.0371 15.8017 58.7233 14.5972 59.6952L17.1092 62.8081ZM15.7372 64.3487C16.1078 63.763 16.5711 63.2423 17.1092 62.8081L14.5972 59.6952C13.7161 60.4062 12.9602 61.2566 12.3569 62.2101L15.7372 64.3487ZM24.895 62.8081C25.4328 63.242 25.8958 63.7624 26.2663 64.3477L29.6462 62.2084C29.0431 61.2556 28.2875 60.4058 27.407 59.6952L24.895 62.8081ZM22.3897 61.5868C23.3031 61.7977 24.1596 62.2146 24.895 62.8081L27.407 59.6952C26.2025 58.7233 24.7954 58.0371 23.2898 57.6894L22.3897 61.5868ZM23.2898 57.6894C21.7841 57.3416 20.2201 57.3416 18.7144 57.6894L19.6145 61.5868C20.5279 61.3758 21.4763 61.3758 22.3897 61.5868L23.2898 57.6894ZM13.2474 56.8366C14.7104 55.656 16.4157 54.8255 18.2363 54.405L17.3361 50.5076C14.9234 51.0649 12.6674 52.1647 10.7355 53.7237L13.2474 56.8366ZM11.0914 59.071C11.7144 58.2407 12.4381 57.4897 13.2474 56.8366L10.7355 53.7237C9.66674 54.5861 8.71241 55.5768 7.89183 56.6705L11.0914 59.071ZM28.7567 56.8366C29.5657 57.4894 30.2891 58.2401 30.9119 59.07L34.1112 56.6691C33.2909 55.5759 32.3369 54.5858 31.2686 53.7237L28.7567 56.8366ZM23.7678 54.405C25.5884 54.8255 27.2937 55.656 28.7567 56.8366L31.2686 53.7237C29.3367 52.1647 27.0807 51.0649 24.668 50.5076L23.7678 54.405ZM24.668 50.5076C22.2551 49.9504 19.749 49.9504 17.3361 50.5076L18.2363 54.405C20.0568 53.9846 21.9473 53.9846 23.7678 54.405L24.668 50.5076ZM9.38262 50.8677C11.573 49.1001 14.1272 47.8559 16.8549 47.2259L15.9548 43.3285C12.6348 44.0953 9.53007 45.6087 6.87064 47.7548L9.38262 50.8677ZM6.52096 53.7407C7.36723 52.6841 8.32608 51.7203 9.38262 50.8677L6.87064 47.7548C5.58796 48.7899 4.42482 49.9593 3.39896 51.24L6.52096 53.7407ZM32.6152 50.8677C33.6725 51.7209 34.632 52.6856 35.4788 53.7431L38.6012 51.2429C37.5747 49.961 36.4108 48.7907 35.1272 47.7548L32.6152 50.8677ZM25.1429 47.2259C27.8706 47.8559 30.4248 49.1001 32.6152 50.8677L35.1272 47.7548C32.4677 45.6087 29.363 44.0953 26.043 43.3285L25.1429 47.2259ZM26.043 43.3285C22.7231 42.5617 19.2747 42.5617 15.9548 43.3285L16.8549 47.2259C19.5826 46.5959 22.4152 46.5959 25.1429 47.2259L26.043 43.3285Z" fill="currentColor" />
  <path opacity="0.5" d="M59.5109 49.158L58.8929 51.0601C59.5028 51.2583 60.1708 51.1519 60.689 50.7742C61.2073 50.3964 61.5129 49.7931 61.5109 49.1517L59.5109 49.158ZM59.498 45L61.4979 44.9938C61.4945 43.8916 60.6001 43 59.498 43C58.3958 43 57.5014 43.8916 57.498 44.9938L59.498 45ZM59.4982 49.1538L60.1163 47.2517C59.7146 47.1212 59.2819 47.1212 58.8802 47.2517L59.4982 49.1538ZM59.485 49.1581L57.485 49.1519C57.483 49.7932 57.7886 50.3966 58.3069 50.7743C58.8251 51.1521 59.4931 51.2584 60.103 51.0603L59.485 49.1581ZM54.0174 50.9347L54.6355 52.8368C55.2454 52.6386 55.7233 52.16 55.9205 51.5497C56.1177 50.9395 56.0104 50.2717 55.6318 49.754L54.0174 50.9347ZM51.5629 47.5783L53.1772 46.3977C52.5266 45.508 51.2789 45.3124 50.3873 45.9602C49.4956 46.6081 49.2961 47.8551 49.9412 48.7488L51.5629 47.5783ZM53.9965 50.95L52.3748 52.1205C52.7502 52.6405 53.3521 52.949 53.9934 52.95C54.6347 52.951 55.2376 52.6444 55.6146 52.1256L53.9965 50.95ZM54.0047 50.9388L53.3867 49.0367C52.985 49.1672 52.6349 49.4215 52.3866 49.7632L54.0047 50.9388ZM50.6175 55.6009L52.2355 56.7765C52.6124 56.2576 52.7177 55.5895 52.5186 54.9799C52.3195 54.3703 51.8401 53.8931 51.2296 53.6969L50.6175 55.6009ZM46.6587 54.3283L47.2708 52.4242C46.2215 52.0869 45.0972 52.662 44.7566 53.7102C44.416 54.7584 44.9876 55.8846 46.0347 56.2284L46.6587 54.3283ZM50.6095 55.6256L49.9855 57.5258C50.5948 57.7259 51.2631 57.6216 51.7825 57.2455C52.302 56.8693 52.6095 56.2669 52.6095 55.6256H50.6095ZM50.6095 55.6119L48.9914 54.4363C48.7432 54.778 48.6095 55.1895 48.6095 55.6119H50.6095ZM50.6095 61.3744H52.6095C52.6095 60.7331 52.302 60.1307 51.7825 59.7545C51.2631 59.3784 50.5948 59.2741 49.9855 59.4742L50.6095 61.3744ZM46.6587 62.6717L46.0347 60.7716C44.9876 61.1154 44.416 62.2416 44.7566 63.2898C45.0972 64.338 46.2215 64.9131 47.2708 64.5758L46.6587 62.6717ZM50.6175 61.3991L51.2296 63.3031C51.8401 63.1069 52.3195 62.6297 52.5186 62.0201C52.7177 61.4105 52.6124 60.7424 52.2355 60.2235L50.6175 61.3991ZM50.6095 61.3881H48.6095C48.6095 61.8105 48.7432 62.222 48.9914 62.5637L50.6095 61.3881ZM53.9965 66.05L55.6145 64.8744C55.2376 64.3555 54.6347 64.049 53.9934 64.05C53.3521 64.051 52.7502 64.3595 52.3748 64.8795L53.9965 66.05ZM51.5629 69.4217L49.9412 68.2512C49.2961 69.1449 49.4956 70.3919 50.3873 71.0398C51.2789 71.6876 52.5266 71.492 53.1772 70.6023L51.5629 69.4217ZM54.0174 66.0653L55.6318 67.246C56.0104 66.7283 56.1177 66.0605 55.9205 65.4503C55.7233 64.8401 55.2454 64.3614 54.6355 64.1632L54.0174 66.0653ZM54.0047 66.0612L52.3867 67.2368C52.6349 67.5785 52.985 67.8328 53.3866 67.9633L54.0047 66.0612ZM59.485 67.8419L60.1029 65.9397C59.493 65.7416 58.8251 65.8479 58.3069 66.2257C57.7886 66.6034 57.483 67.2068 57.485 67.8481L59.485 67.8419ZM59.498 72L57.498 72.0062C57.5014 73.1084 58.3958 74 59.498 74C60.6001 74 61.4945 73.1084 61.4979 72.0062L59.498 72ZM59.5109 67.842L61.5109 67.8483C61.5129 67.207 61.2073 66.6036 60.6891 66.2259C60.1708 65.8481 59.5029 65.7417 58.893 65.9399L59.5109 67.842ZM59.4982 67.8462L58.8803 69.7483C59.2819 69.8788 59.7145 69.8788 60.1161 69.7483L59.4982 67.8462ZM64.9786 66.0655L64.3605 64.1634C63.7506 64.3616 63.2727 64.8402 63.0755 65.4504C62.8783 66.0607 62.9856 66.7284 63.3642 67.2461L64.9786 66.0655ZM67.4331 69.4217L65.8187 70.6023C66.4693 71.492 67.717 71.6876 68.6086 71.0398C69.5003 70.3919 69.6998 69.1449 69.0547 68.2512L67.4331 69.4217ZM64.9996 66.0503L66.6213 64.8798C66.246 64.3598 65.644 64.0513 65.0027 64.0503C64.3614 64.0493 63.7585 64.356 63.3816 64.8748L64.9996 66.0503ZM64.9917 66.0612L65.6098 67.9633C66.0115 67.8328 66.3616 67.5784 66.6098 67.2367L64.9917 66.0612ZM68.3789 61.3992L66.7609 60.2236C66.3839 60.7424 66.2786 61.4105 66.4777 62.0202C66.6768 62.6298 67.1562 63.107 67.7668 63.3033L68.3789 61.3992ZM72.3372 62.6717L71.7251 64.5758C72.7744 64.9131 73.8988 64.338 74.2393 63.2898C74.5799 62.2416 74.0083 61.1154 72.9612 60.7716L72.3372 62.6717ZM68.3869 61.3746L69.0109 59.4744C68.4016 59.2743 67.7333 59.3786 67.2139 59.7547C66.6945 60.1308 66.3869 60.7333 66.3869 61.3746H68.3869ZM68.3869 61.3881L70.0049 62.5638C70.2532 62.2221 70.3869 61.8105 70.3869 61.3881H68.3869ZM68.3869 55.6254H66.3869C66.3869 56.2667 66.6945 56.8692 67.2139 57.2453C67.7333 57.6214 68.4016 57.7257 69.0109 57.5256L68.3869 55.6254ZM72.3372 54.3283L72.9612 56.2284C74.0083 55.8846 74.5799 54.7584 74.2393 53.7102C73.8988 52.662 72.7744 52.0869 71.7251 52.4242L72.3372 54.3283ZM68.3789 55.6008L67.7668 53.6967C67.1562 53.893 66.6768 54.3702 66.4777 54.9798C66.2786 55.5894 66.3839 56.2575 66.7609 56.7764L68.3789 55.6008ZM68.3869 55.6119H70.3869C70.3869 55.1895 70.2532 54.778 70.0049 54.4363L68.3869 55.6119ZM64.9996 50.9497L63.3817 52.1253C63.7586 52.6441 64.3615 52.9507 65.0028 52.9497C65.6441 52.9486 66.246 52.6402 66.6213 52.1202L64.9996 50.9497ZM67.4331 47.5783L69.0547 48.7488C69.6998 47.8551 69.5003 46.6081 68.6086 45.9602C67.717 45.3124 66.4693 45.508 65.8187 46.3977L67.4331 47.5783ZM64.9786 50.9345L63.3642 49.7539C62.9856 50.2716 62.8783 50.9393 63.0755 51.5496C63.2727 52.1598 63.7506 52.6384 64.3605 52.8366L64.9786 50.9345ZM64.9917 50.9388L66.6097 49.7632C66.3615 49.4215 66.0114 49.1672 65.6098 49.0367L64.9917 50.9388ZM61.5109 49.1517L61.4979 44.9938L57.498 45.0062L57.5109 49.1642L61.5109 49.1517ZM58.8801 51.056L58.8929 51.0601L60.129 47.2559L60.1163 47.2517L58.8801 51.056ZM60.103 51.0603L60.1162 51.056L58.8802 47.2517L58.867 47.256L60.103 51.0603ZM57.498 44.9938L57.485 49.1519L61.485 49.1644L61.4979 45.0062L57.498 44.9938ZM55.6318 49.754L53.1772 46.3977L49.9485 48.7589L52.4031 52.1153L55.6318 49.754ZM49.9412 48.7488L52.3748 52.1205L55.6182 49.7795L53.1845 46.4078L49.9412 48.7488ZM55.6146 52.1256L55.6227 52.1144L52.3866 49.7632L52.3785 49.7744L55.6146 52.1256ZM54.6227 52.8409L54.6355 52.8368L53.3994 49.0325L53.3867 49.0367L54.6227 52.8409ZM51.2296 53.6969L47.2708 52.4242L46.0466 56.2323L50.0054 57.5049L51.2296 53.6969ZM46.0347 56.2284L49.9855 57.5258L51.2335 53.7254L47.2827 52.4281L46.0347 56.2284ZM52.6095 55.6256V55.6119H48.6095V55.6256H52.6095ZM52.2275 56.7874L52.2355 56.7765L48.9994 54.4254L48.9914 54.4363L52.2275 56.7874ZM49.9855 59.4742L46.0347 60.7716L47.2827 64.5719L51.2335 63.2746L49.9855 59.4742ZM47.2708 64.5758L51.2296 63.3031L50.0054 59.4951L46.0466 60.7677L47.2708 64.5758ZM52.2355 60.2235L52.2275 60.2126L48.9914 62.5637L48.9994 62.5746L52.2355 60.2235ZM52.6095 61.3881V61.3744H48.6095V61.3881H52.6095ZM52.3748 64.8795L49.9412 68.2512L53.1845 70.5922L55.6182 67.2205L52.3748 64.8795ZM53.1772 70.6023L55.6318 67.246L52.4031 64.8847L49.9485 68.2411L53.1772 70.6023ZM54.6355 64.1632L54.6227 64.1591L53.3866 67.9633L53.3994 67.9675L54.6355 64.1632ZM55.6227 64.8856L55.6145 64.8744L52.3785 67.2256L52.3867 67.2368L55.6227 64.8856ZM57.485 67.8481L57.498 72.0062L61.4979 71.9938L61.485 67.8356L57.485 67.8481ZM61.4979 72.0062L61.5109 67.8483L57.5109 67.8358L57.498 71.9938L61.4979 72.0062ZM58.893 65.9399L58.8803 65.944L60.1161 69.7483L60.1289 69.7442L58.893 65.9399ZM60.1162 65.944L60.1029 65.9397L58.867 69.744L58.8803 69.7483L60.1162 65.944ZM63.3642 67.2461L65.8187 70.6023L69.0474 68.2411L66.5929 64.8849L63.3642 67.2461ZM69.0547 68.2512L66.6213 64.8798L63.3779 67.2209L65.8114 70.5922L69.0547 68.2512ZM63.3816 64.8748L63.3737 64.8857L66.6098 67.2367L66.6177 67.2259L63.3816 64.8748ZM64.3737 64.1591L64.3605 64.1634L65.5966 67.9676L65.6098 67.9633L64.3737 64.1591ZM67.7668 63.3033L71.7251 64.5758L72.9493 60.7677L68.991 59.4952L67.7668 63.3033ZM72.9612 60.7716L69.0109 59.4744L67.763 63.2747L71.7133 64.5719L72.9612 60.7716ZM66.3869 61.3746V61.3881H70.3869V61.3746H66.3869ZM66.769 60.2125L66.7609 60.2236L69.9968 62.5749L70.0049 62.5638L66.769 60.2125ZM69.0109 57.5256L72.9612 56.2284L71.7133 52.4281L67.763 53.7253L69.0109 57.5256ZM71.7251 52.4242L67.7668 53.6967L68.991 57.5048L72.9493 56.2323L71.7251 52.4242ZM66.7609 56.7764L66.7689 56.7875L70.0049 54.4363L69.9969 54.4252L66.7609 56.7764ZM66.3869 55.6119V55.6254H70.3869V55.6119H66.3869ZM66.6213 52.1202L69.0547 48.7488L65.8114 46.4078L63.3779 49.7791L66.6213 52.1202ZM65.8187 46.3977L63.3642 49.7539L66.5929 52.1151L69.0474 48.7589L65.8187 46.3977ZM64.3605 52.8366L64.3737 52.8409L65.6098 49.0367L65.5966 49.0324L64.3605 52.8366ZM63.3738 52.1145L63.3817 52.1253L66.6176 49.774L66.6097 49.7632L63.3738 52.1145Z" fill="currentColor" />
  <path d="M57.6669 52.8643C58.8571 52.4776 60.1391 52.4776 61.3293 52.8643C62.5194 53.251 63.5566 54.0045 64.2922 55.017C65.0277 56.0294 65.4239 57.2486 65.4239 58.5001C65.4239 59.7515 65.0277 60.9708 64.2922 61.9832C63.5566 62.9956 62.5194 63.7491 61.3293 64.1358C60.1391 64.5225 58.8571 64.5225 57.6669 64.1358C56.4768 63.7491 55.4396 62.9956 54.704 61.9832C53.9685 60.9708 53.5723 59.7515 53.5723 58.5001C53.5723 57.2486 53.9685 56.0294 54.704 55.017C55.4396 54.0045 56.4768 53.251 57.6669 52.8643Z" fill="currentColor" />
</svg>