<svg viewBox="0 0 80 80" fill="none">
  <path opacity="0.25" fill-rule="evenodd" clip-rule="evenodd" d="M16 16.2559C13.7909 16.2559 12 18.0467 12 20.2559L12 56.2559H32.126C32.5701 57.9811 34.1362 59.2559 36 59.2559H44C45.8638 59.2559 47.4299 57.9811 47.874 56.2559H68V20.2559C68 18.0467 66.2091 16.2559 64 16.2559L16 16.2559Z" fill="currentColor" />
  <path fill-rule="evenodd" clip-rule="evenodd" d="M32.126 56.2559L4.15215 56.2559C4.06812 56.2559 4 56.324 4 56.408C4 60.7423 7.51361 64.2559 11.8479 64.2559L68.1521 64.2559C72.4864 64.2559 76 60.7423 76 56.408C76 56.324 75.9319 56.2559 75.8479 56.2559L47.874 56.2559C47.4299 57.9811 45.8638 59.2559 44 59.2559H36C34.1362 59.2559 32.5701 57.9811 32.126 56.2559Z" fill="currentColor" />
  <path fill-rule="evenodd" clip-rule="evenodd" d="M42.7739 27.1323C42.8019 27.4709 43.0286 27.7576 43.3424 27.8878C43.6672 28.0225 43.9862 28.1766 44.2977 28.35L44.5484 28.4896C44.8397 28.6518 45.1194 28.8292 45.3866 29.0205C45.652 29.2104 45.998 29.2575 46.2945 29.1214L48.2451 28.2265C48.574 28.0756 48.9647 28.1455 49.204 28.417C50.1574 29.4985 50.9026 30.748 51.4009 32.1001C51.5321 32.4563 51.3887 32.8505 51.0724 33.0605L49.3636 34.1954C49.0766 34.386 48.9355 34.7295 48.9772 35.0715C49.02 35.4214 49.0419 35.7762 49.0419 36.1341C49.0419 36.4921 49.02 36.847 48.9772 37.1972C48.9354 37.5392 49.0765 37.8827 49.3635 38.0733L51.0715 39.2076C51.3878 39.4176 51.5312 39.812 51.3998 40.1682C50.9012 41.5203 50.1557 42.7697 49.2018 43.851C48.9625 44.1224 48.572 44.1922 48.2431 44.0413L46.294 43.1471C45.9975 43.011 45.6515 43.0581 45.3862 43.248C45.1191 43.4392 44.8396 43.6165 44.5484 43.7785L44.2977 43.9182C43.9862 44.0915 43.6673 44.2456 43.3425 44.3803C43.0287 44.5105 42.8019 44.7972 42.7739 45.1358L42.6092 47.1304C42.5784 47.5025 42.3109 47.8149 41.9432 47.8797C40.5287 48.1291 39.0805 48.1293 37.6659 47.8802C37.2981 47.8155 37.0305 47.503 36.9997 47.1309L36.8349 45.136C36.807 44.7974 36.5802 44.5106 36.2664 44.3805C35.9415 44.2457 35.6224 44.0916 35.3108 43.9182L35.0601 43.7785C34.769 43.6165 34.4896 43.4392 34.2225 43.2481C33.9572 43.0582 33.6112 43.0111 33.3146 43.1472L31.3638 44.0422C31.035 44.1931 30.6444 44.1233 30.4051 43.852C29.4512 42.7709 28.7056 41.5216 28.2068 40.1698C28.0754 39.8135 28.2188 39.4191 28.5351 39.2091L30.245 38.0736C30.5321 37.8829 30.6732 37.5394 30.6314 37.1974C30.5885 36.8472 30.5667 36.4922 30.5667 36.1341C30.5667 35.7761 30.5885 35.4213 30.6313 35.0713C30.6731 34.7293 30.532 34.3858 30.245 34.1951L28.5342 33.059C28.2179 32.849 28.0745 32.4547 28.2058 32.0985C28.7042 30.7466 29.4494 29.4973 30.4029 28.416C30.6423 28.1446 31.0329 28.0747 31.3618 28.2256L33.3141 29.1213C33.6107 29.2574 33.9567 29.2103 34.222 29.0204C34.4892 28.8291 34.7688 28.6517 35.0601 28.4896L35.3108 28.35C35.6224 28.1765 35.9415 28.0224 36.2664 27.8876C36.5803 27.7575 36.807 27.4707 36.835 27.1321L37 25.1346C37.0307 24.7624 37.2984 24.45 37.6662 24.3853C39.0806 24.1363 40.5286 24.1364 41.943 24.3858C42.3106 24.4506 42.5782 24.763 42.6089 25.1351L42.7739 27.1323ZM42.0506 32.2422C40.6538 31.4645 38.9541 31.4645 37.5572 32.2422L37.4318 32.312C36.045 33.0841 35.1851 34.5469 35.1851 36.1342C35.1851 37.7215 36.045 39.1843 37.4318 39.9564L37.5572 40.0262C38.9541 40.8039 40.6538 40.8039 42.0506 40.0262L42.176 39.9564C43.5629 39.1843 44.4227 37.7215 44.4227 36.1342C44.4227 34.5469 43.5629 33.0841 42.176 32.312L42.0506 32.2422Z" fill="currentColor" />
  <path d="M44.2977 28.35L43.8113 29.2237L44.2977 28.35ZM44.5484 28.4896L45.0349 27.6159V27.6159L44.5484 28.4896ZM44.5484 43.7785L44.062 42.9048H44.062L44.5484 43.7785ZM44.2977 43.9182L44.7841 44.7919L44.7841 44.7919L44.2977 43.9182ZM35.3108 43.9182L35.7973 43.0444H35.7973L35.3108 43.9182ZM35.0601 43.7785L34.5736 44.6523L34.5736 44.6523L35.0601 43.7785ZM35.0601 28.4896L35.5465 29.3633L35.0601 28.4896ZM35.3108 28.35L34.8244 27.4763V27.4763L35.3108 28.35ZM37.5572 32.2422L37.0708 31.3684L37.0708 31.3684L37.5572 32.2422ZM42.0506 32.2422L42.5371 31.3684V31.3684L42.0506 32.2422ZM37.4318 32.312L37.9183 33.1857L37.9183 33.1857L37.4318 32.312ZM37.4318 39.9564L37.9183 39.0827L37.4318 39.9564ZM37.5572 40.0262L37.0708 40.9V40.9L37.5572 40.0262ZM42.0506 40.0262L42.5371 40.9L42.5371 40.9L42.0506 40.0262ZM42.176 39.9564L41.6896 39.0827L41.6896 39.0827L42.176 39.9564ZM42.176 32.312L41.6896 33.1857H41.6896L42.176 32.312ZM41.943 24.3858L41.7693 25.3706L41.943 24.3858ZM42.6089 25.1351L43.6055 25.0527L42.6089 25.1351ZM30.6313 35.0713L29.6387 34.95L30.6313 35.0713ZM30.245 34.1951L30.7982 33.3621L30.245 34.1951ZM28.5351 39.2091L29.0884 40.0421L28.5351 39.2091ZM31.3638 44.0422L30.9468 43.1333L31.3638 44.0422ZM30.4051 43.852L29.6552 44.5136L30.4051 43.852ZM34.2225 43.2481L33.6405 44.0613L34.2225 43.2481ZM33.3146 43.1472L33.7316 44.0561L33.3146 43.1472ZM36.8349 45.136L35.8383 45.2183L36.8349 45.136ZM36.2664 44.3805L36.6495 43.4568L36.2664 44.3805ZM37.6659 47.8802L37.4925 48.8651L37.6659 47.8802ZM36.9997 47.1309L36.0031 47.2133L36.9997 47.1309ZM46.294 43.1471L45.877 44.056L46.294 43.1471ZM45.3862 43.248L44.8041 42.4348L45.3862 43.248ZM49.2018 43.851L48.4519 43.1895L49.2018 43.851ZM48.2431 44.0413L47.8261 44.9502L48.2431 44.0413ZM37 25.1346L36.0034 25.0522L37 25.1346ZM51.3998 40.1682L52.3381 40.5142L51.3998 40.1682ZM36.835 27.1321L35.8384 27.0498L36.835 27.1321ZM48.9772 37.1972L49.9698 37.3185L48.9772 37.1972ZM49.3635 38.0733L48.8103 38.9064L49.3635 38.0733ZM33.3141 29.1213L32.8971 30.0302L33.3141 29.1213ZM34.222 29.0204L33.6399 28.2072L34.222 29.0204ZM51.4009 32.1001L50.4626 32.4459L51.4009 32.1001ZM51.0724 33.0605L51.6256 33.8936L51.0724 33.0605ZM42.6092 47.1304L41.6126 47.0481L42.6092 47.1304ZM41.9432 47.8797L41.7696 46.8949L41.9432 47.8797ZM48.2451 28.2265L48.6621 29.1354L48.2451 28.2265ZM43.3425 44.3803L42.9593 43.4566L43.3425 44.3803ZM42.7739 45.1358L43.7705 45.2181L42.7739 45.1358ZM28.2058 32.0985L27.2675 31.7526L28.2058 32.0985ZM45.3866 29.0205L45.9687 28.2073L45.3866 29.0205ZM46.2945 29.1214L46.7116 30.0303L46.2945 29.1214ZM49.3636 34.1954L49.9168 35.0284L49.3636 34.1954ZM43.3424 27.8878L42.9593 28.8115L43.3424 27.8878ZM42.7739 27.1323L41.7773 27.2146L42.7739 27.1323ZM44.7841 27.4763C44.4391 27.2842 44.0856 27.1134 43.7255 26.9641L42.9593 28.8115C43.2489 28.9316 43.5334 29.069 43.8113 29.2237L44.7841 27.4763ZM45.0349 27.6159L44.7841 27.4763L43.8113 29.2237L44.062 29.3633L45.0349 27.6159ZM45.9687 28.2073C45.6709 27.9941 45.3593 27.7965 45.0349 27.6159L44.062 29.3633C44.3202 29.507 44.5679 29.6642 44.8046 29.8336L45.9687 28.2073ZM47.8281 27.3176L45.8775 28.2125L46.7116 30.0303L48.6621 29.1354L47.8281 27.3176ZM52.3392 31.7543C51.7982 30.2864 50.9893 28.9298 49.9541 27.7557L48.4539 29.0783C49.3256 30.0671 50.0069 31.2097 50.4626 32.4459L52.3392 31.7543ZM49.9168 35.0284L51.6256 33.8936L50.5192 32.2275L48.8104 33.3623L49.9168 35.0284ZM50.0419 36.1341C50.0419 35.7354 50.0175 35.3402 49.9699 34.9502L47.9846 35.1928C48.0225 35.5027 48.0419 35.8169 48.0419 36.1341H50.0419ZM49.9698 37.3185C50.0175 36.9283 50.0419 36.5329 50.0419 36.1341H48.0419C48.0419 36.4514 48.0225 36.7658 47.9846 37.0758L49.9698 37.3185ZM51.6247 38.3745L49.9167 37.2403L48.8103 38.9064L50.5183 40.0406L51.6247 38.3745ZM49.9518 44.5125C50.9874 43.3385 51.7967 41.9821 52.3381 40.5142L50.4616 39.8222C50.0057 41.0584 49.324 42.2008 48.4519 43.1895L49.9518 44.5125ZM45.877 44.056L47.8261 44.9502L48.6601 43.1324L46.711 42.2382L45.877 44.056ZM45.0349 44.6523C45.3591 44.4718 45.6705 44.2742 45.9682 44.0612L44.8041 42.4348C44.5676 42.6041 44.32 42.7612 44.062 42.9048L45.0349 44.6523ZM44.7841 44.7919L45.0349 44.6523L44.062 42.9048L43.8113 43.0444L44.7841 44.7919ZM43.7256 45.304C44.0856 45.1547 44.4391 44.984 44.7841 44.7919L43.8113 43.0444C43.5334 43.1991 43.2489 43.3365 42.9593 43.4566L43.7256 45.304ZM43.6058 47.2128L43.7705 45.2181L41.7773 45.0535L41.6126 47.0481L43.6058 47.2128ZM37.4925 48.8651C39.0219 49.1344 40.5875 49.1342 42.1169 48.8645L41.7696 46.8949C40.4698 47.1241 39.1391 47.1242 37.8393 46.8954L37.4925 48.8651ZM35.8383 45.2183L36.0031 47.2133L37.9963 47.0486L37.8315 45.0536L35.8383 45.2183ZM34.8244 44.7919C35.1696 44.984 35.5231 45.1548 35.8833 45.3042L36.6495 43.4568C36.3598 43.3366 36.0752 43.1992 35.7973 43.0444L34.8244 44.7919ZM34.5736 44.6523L34.8244 44.7919L35.7973 43.0444L35.5465 42.9048L34.5736 44.6523ZM33.6405 44.0613C33.9381 44.2743 34.2495 44.4718 34.5736 44.6523L35.5465 42.9048C35.2886 42.7612 35.041 42.6042 34.8045 42.4349L33.6405 44.0613ZM31.7808 44.9511L33.7316 44.0561L32.8976 42.2383L30.9468 43.1333L31.7808 44.9511ZM27.2686 40.516C27.8102 41.9836 28.6196 43.3398 29.6552 44.5136L31.155 43.1904C30.2828 42.2019 29.6011 41.0597 29.145 39.8236L27.2686 40.516ZM29.6918 37.2405L27.9819 38.376L29.0884 40.0421L30.7983 38.9066L29.6918 37.2405ZM29.5667 36.1341C29.5667 36.533 29.591 36.9285 29.6387 37.3187L31.624 37.076C31.586 36.7659 31.5667 36.4514 31.5667 36.1341H29.5667ZM29.6387 34.95C29.591 35.3401 29.5667 35.7354 29.5667 36.1341H31.5667C31.5667 35.8168 31.586 35.5025 31.6239 35.1926L29.6387 34.95ZM27.981 33.8921L29.6918 35.0282L30.7982 33.3621L29.0874 32.226L27.981 33.8921ZM29.6529 27.7546C28.6177 28.9286 27.8087 30.2849 27.2675 31.7526L29.1441 32.4445C29.5998 31.2084 30.2812 30.066 31.153 29.0774L29.6529 27.7546ZM33.7311 28.2124L31.7788 27.3167L30.9447 29.1345L32.8971 30.0302L33.7311 28.2124ZM34.5736 27.6159C34.2493 27.7965 33.9377 27.9941 33.6399 28.2072L34.8041 29.8335C35.0407 29.6641 35.2884 29.507 35.5465 29.3633L34.5736 27.6159ZM34.8244 27.4763L34.5736 27.6159L35.5465 29.3633L35.7973 29.2237L34.8244 27.4763ZM35.8833 26.9639C35.5232 27.1133 35.1696 27.2841 34.8244 27.4763L35.7973 29.2237C36.0752 29.069 36.3598 28.9315 36.6495 28.8114L35.8833 26.9639ZM36.0034 25.0522L35.8384 27.0498L37.8316 27.2145L37.9966 25.2169L36.0034 25.0522ZM42.1166 23.401C40.5874 23.1314 39.022 23.1312 37.4928 23.4004L37.8395 25.3701C39.1392 25.1413 40.4697 25.1415 41.7693 25.3706L42.1166 23.401ZM43.7705 27.05L43.6055 25.0527L41.6123 25.2174L41.7773 27.2146L43.7705 27.05ZM38.0436 33.1159C39.1381 32.5066 40.4698 32.5066 41.5642 33.1159L42.5371 31.3684C40.8378 30.4224 38.7701 30.4224 37.0708 31.3684L38.0436 33.1159ZM37.9183 33.1857L38.0437 33.1159L37.0708 31.3684L36.9454 31.4382L37.9183 33.1857ZM36.1851 36.1342C36.1851 34.9097 36.8484 33.7813 37.9183 33.1857L36.9454 31.4382C35.2415 32.3869 34.1851 34.184 34.1851 36.1342H36.1851ZM37.9183 39.0827C36.8484 38.4871 36.1851 37.3587 36.1851 36.1342H34.1851C34.1851 38.0844 35.2415 39.8815 36.9454 40.8302L37.9183 39.0827ZM38.0436 39.1525L37.9183 39.0827L36.9454 40.8302L37.0708 40.9L38.0436 39.1525ZM41.5642 39.1525C40.4698 39.7618 39.1381 39.7618 38.0436 39.1525L37.0708 40.9C38.7701 41.846 40.8378 41.846 42.5371 40.9L41.5642 39.1525ZM41.6896 39.0827L41.5642 39.1525L42.5371 40.9L42.6625 40.8302L41.6896 39.0827ZM43.4227 36.1342C43.4227 37.3587 42.7595 38.4871 41.6896 39.0827L42.6625 40.8302C44.3664 39.8815 45.4227 38.0844 45.4227 36.1342H43.4227ZM41.6896 33.1857C42.7595 33.7813 43.4227 34.9097 43.4227 36.1342H45.4227C45.4227 34.184 44.3664 32.3869 42.6625 31.4382L41.6896 33.1857ZM41.5642 33.1159L41.6896 33.1857L42.6625 31.4382L42.5371 31.3684L41.5642 33.1159ZM41.7693 25.3706C41.6598 25.3513 41.6164 25.2675 41.6123 25.2174L43.6055 25.0527C43.5399 24.2585 42.9614 23.5499 42.1166 23.401L41.7693 25.3706ZM31.6239 35.1926C31.7071 34.512 31.4304 33.7819 30.7982 33.3621L29.6918 35.0282C29.6649 35.0104 29.65 34.9881 29.6436 34.9733C29.6379 34.9601 29.6384 34.9524 29.6387 34.95L31.6239 35.1926ZM30.7983 38.9066C31.4305 38.4868 31.7072 37.7566 31.624 37.076L29.6387 37.3187C29.6385 37.3163 29.6379 37.3086 29.6436 37.2954C29.65 37.2806 29.665 37.2583 29.6918 37.2405L30.7983 38.9066ZM29.145 39.8236C29.1853 39.9328 29.1302 40.0144 29.0884 40.0421L27.9819 38.376C27.3075 38.8239 26.9654 39.6942 27.2686 40.516L29.145 39.8236ZM30.9468 43.1333C30.9907 43.1132 31.0825 43.1082 31.155 43.1904L29.6552 44.5136C30.2064 45.1383 31.0792 45.273 31.7808 44.9511L30.9468 43.1333ZM34.8045 42.4349C34.2755 42.0563 33.5504 41.9387 32.8976 42.2383L33.7316 44.0561C33.7038 44.0688 33.6785 44.0703 33.663 44.0685C33.649 44.0668 33.6425 44.0627 33.6405 44.0613L34.8045 42.4349ZM37.8315 45.0536C37.77 44.3086 37.2772 43.7171 36.6495 43.4568L35.8833 45.3042C35.8798 45.3027 35.872 45.2986 35.8629 45.2867C35.8528 45.2735 35.8409 45.2498 35.8383 45.2183L37.8315 45.0536ZM37.8393 46.8954C37.9488 46.9147 37.9922 46.9985 37.9963 47.0486L36.0031 47.2133C36.0688 48.0076 36.6474 48.7163 37.4925 48.8651L37.8393 46.8954ZM46.711 42.2382C46.0582 41.9386 45.3331 42.0562 44.8041 42.4348L45.9682 44.0612C45.9662 44.0626 45.9597 44.0667 45.9456 44.0684C45.9301 44.0702 45.9048 44.0687 45.877 44.056L46.711 42.2382ZM48.4519 43.1895C48.5244 43.1073 48.6162 43.1123 48.6601 43.1324L47.8261 44.9502C48.5277 45.2722 49.4006 45.1374 49.9518 44.5125L48.4519 43.1895ZM37.9966 25.2169C37.9925 25.267 37.9491 25.3508 37.8395 25.3701L37.4928 23.4004C36.6477 23.5492 36.069 24.2579 36.0034 25.0522L37.9966 25.2169ZM50.5183 40.0406C50.4765 40.0129 50.4214 39.9314 50.4616 39.8222L52.3381 40.5142C52.6411 39.6926 52.2991 38.8224 51.6247 38.3745L50.5183 40.0406ZM36.6495 28.8114C37.2773 28.551 37.77 27.9596 37.8316 27.2145L35.8384 27.0498C35.841 27.0183 35.8529 26.9946 35.8629 26.9814C35.872 26.9695 35.8798 26.9654 35.8833 26.9639L36.6495 28.8114ZM47.9846 37.0758C47.9014 37.7565 48.1781 38.4865 48.8103 38.9064L49.9167 37.2403C49.9435 37.2581 49.9585 37.2804 49.9649 37.2952C49.9706 37.3084 49.9701 37.3161 49.9698 37.3185L47.9846 37.0758ZM32.8971 30.0302C33.55 30.3298 34.2751 30.2122 34.8041 29.8335L33.6399 28.2072C33.6419 28.2058 33.6484 28.2017 33.6625 28.2C33.678 28.1982 33.7033 28.1997 33.7311 28.2124L32.8971 30.0302ZM50.4626 32.4459C50.4223 32.3367 50.4774 32.2552 50.5192 32.2275L51.6256 33.8936C52.2999 33.4458 52.642 32.5759 52.3392 31.7543L50.4626 32.4459ZM41.6126 47.0481C41.6167 46.998 41.6601 46.9142 41.7696 46.8949L42.1169 48.8645C42.9617 48.7155 43.5402 48.0069 43.6058 47.2128L41.6126 47.0481ZM31.153 29.0774C31.0805 29.1596 30.9887 29.1546 30.9447 29.1345L31.7788 27.3167C31.0771 26.9947 30.204 27.1296 29.6529 27.7546L31.153 29.0774ZM48.6621 29.1354C48.6182 29.1556 48.5264 29.1605 48.4539 29.0783L49.9541 27.7557C49.403 27.1305 48.5299 26.9956 47.8281 27.3176L48.6621 29.1354ZM42.9593 43.4566C42.3316 43.717 41.8389 44.3084 41.7773 45.0535L43.7705 45.2181C43.7679 45.2496 43.7561 45.2734 43.746 45.2865C43.7369 45.2985 43.7291 45.3026 43.7256 45.304L42.9593 43.4566ZM29.0874 32.226C29.1292 32.2538 29.1843 32.3353 29.1441 32.4445L27.2675 31.7526C26.9646 32.5742 27.3066 33.4443 27.981 33.8921L29.0874 32.226ZM44.8046 29.8336C45.3335 30.2123 46.0587 30.3299 46.7116 30.0303L45.8775 28.2125C45.9053 28.1998 45.9307 28.1983 45.9462 28.2001C45.9602 28.2018 45.9667 28.2059 45.9687 28.2073L44.8046 29.8336ZM48.8104 33.3623C48.1782 33.7821 47.9015 34.5122 47.9846 35.1928L49.9699 34.9502C49.9702 34.9526 49.9707 34.9603 49.965 34.9736C49.9586 34.9883 49.9436 35.0106 49.9168 35.0284L48.8104 33.3623ZM43.7255 26.9641C43.7291 26.9655 43.7368 26.9696 43.746 26.9816C43.756 26.9948 43.7679 27.0185 43.7705 27.05L41.7773 27.2146C41.8388 27.9597 42.3315 28.5511 42.9593 28.8115L43.7255 26.9641Z" fill="currentColor" />
</svg>