<svg viewBox="0 0 80 80" fill="none">
  <path opacity="0.25" fill-rule="evenodd" clip-rule="evenodd" d="M41.2492 29.5935C40.7461 29.3779 40.1766 29.3779 39.6736 29.5935L16.7507 39.4175C15.1345 40.1102 15.1345 42.4015 16.7507 43.0941L39.6736 52.9182C40.1767 53.1338 40.7461 53.1338 41.2492 52.9182L64.172 43.0941C65.7883 42.4015 65.7883 40.1102 64.172 39.4175L41.2492 29.5935ZM16.7507 50.4175L24.6601 47.0278L39.4766 53.3778C40.1055 53.6473 40.8173 53.6473 41.4462 53.3778L56.2627 47.0278L64.172 50.4175C65.7883 51.1102 65.7883 53.4015 64.172 54.0941L41.2492 63.9182C40.7461 64.1338 40.1767 64.1338 39.6736 63.9182L16.7507 54.0941C15.1345 53.4015 15.1345 51.1102 16.7507 50.4175Z" fill="currentColor" />
  <path d="M52.4614 22.2559L59.7342 22.2559L61.1887 22.2559L68.4614 22.2559" stroke="currentColor" stroke-width="4" stroke-linecap="round" stroke-linejoin="round" />
  <path fill-rule="evenodd" clip-rule="evenodd" d="M24.6601 47.0278L16.7507 50.4176C15.1345 51.1102 15.1345 53.4015 16.7507 54.0941L39.6736 63.9182C40.1767 64.1338 40.7461 64.1338 41.2492 63.9182L64.172 54.0941C65.7883 53.4015 65.7883 51.1102 64.172 50.4176L56.2627 47.0278L41.4462 53.3778C40.8173 53.6473 40.1055 53.6473 39.4766 53.3778L24.6601 47.0278Z" fill="currentColor" />
</svg>