<svg viewBox="0 0 80 80" fill="none">
  <path d="M50 70C51.1046 70 52 69.1046 52 68C52 66.8954 51.1046 66 50 66V70ZM30 66C28.8954 66 28 66.8954 28 68C28 69.1046 28.8954 70 30 70V66ZM42 55C42 53.8954 41.1046 53 40 53C38.8954 53 38 53.8954 38 55H42ZM38 68C38 69.1046 38.8954 70 40 70C41.1046 70 42 69.1046 42 68H38ZM58 31C58 29.8954 57.1046 29 56 29C54.8954 29 54 29.8954 54 31L58 31ZM26 31C26 29.8954 25.1046 29 24 29C22.8954 29 22 29.8954 22 31H26ZM50 66H30V70H50V66ZM38 55L38 68H42L42 55H38ZM54 31V39H58V31L54 31ZM26 39V31H22V39H26ZM22 39C22 48.9411 30.0589 57 40 57V53C32.268 53 26 46.732 26 39H22ZM54 39C54 46.732 47.732 53 40 53V57C49.9411 57 58 48.9411 58 39H54Z" fill="currentColor" />
  <path opacity="0.25" d="M31 21C31 16.0294 35.0294 12 40 12C44.9706 12 49 16.0294 49 21V39C49 43.9706 44.9706 48 40 48C35.0294 48 31 43.9706 31 39L31 21Z" fill="currentColor" />
  <path fill-rule="evenodd" clip-rule="evenodd" d="M49 35V39H40C38.8954 39 38 38.1046 38 37C38 35.8954 38.8954 35 40 35H49ZM49 28V32H40C38.8954 32 38 31.1046 38 30C38 28.8954 38.8954 28 40 28H49ZM49 21H40C38.8954 21 38 21.8954 38 23C38 24.1046 38.8954 25 40 25H49V21Z" fill="currentColor" />
</svg>