<svg viewBox="0 0 80 80" fill="none">
  <path opacity="0.25" fill-rule="evenodd" clip-rule="evenodd" d="M22 13L30 13C30 15.2091 31.7909 17 34 17H46C48.2091 17 50 15.2091 50 13L58 13C60.2091 13 62 14.7909 62 17L62 65C62 67.2091 60.2091 69 58 69H22C19.7909 69 18 67.2091 18 65L18 17C18 14.7909 19.7909 13 22 13Z" fill="currentColor" />
  <g opacity="0.5">
    <rect x="30" y="9" width="20" height="8" rx="4" fill="currentColor" />
    <rect x="37" y="7" width="6" height="2" rx="1" stroke="currentColor" stroke-width="4" />
  </g>
  <path fill-rule="evenodd" clip-rule="evenodd" d="M35.9999 50.3078V52.3078C35.9999 53.4123 36.8954 54.3078 37.9999 54.3078H41.9999C43.1045 54.3078 43.9999 53.4123 43.9999 52.3078V50.3078V48.0001V47.7693V47.5385V47.3078V47.077V46.8462V46.6155V46.3847V46.1539V46.0385C43.9999 46.0174 44.0171 46.0002 44.0383 46.0002H44.1537H44.3844H44.6152H44.846H45.0768H48.3075H50.3075C51.4121 46.0002 52.3075 45.1048 52.3075 44.0002V40.0002C52.3075 38.8956 51.4121 38.0002 50.3075 38.0002H48.3075H45.0768H44.846H44.6152H44.3844H44.1537H44.0385C44.0172 38.0002 43.9999 37.9829 43.9999 37.9616V37.8462V37.7308V37.6155V37.5001V37.3847V37.2693V37.1539V37.0385V36.9232V36.6924V36.4616V36.2308V36.0001V35.7693V35.5385V35.5385L43.9999 35.3078V35.3077V35.077L43.9999 33.6924L44 31.6924C44 30.5878 43.1045 29.6924 42 29.6924L38 29.6924C36.8954 29.6924 36 30.5878 36 31.6924L35.9999 33.6924L35.9999 35.077V35.3078V35.3078L35.9999 35.5385V35.5386V35.7693V36.0001V36.2308V36.4616V36.6924V36.9232V37.0385V37.1539V37.2693V37.3847V37.5001V37.6155V37.7308V37.8462V37.9616C35.9999 37.9829 35.9827 38.0002 35.9614 38.0002H35.846H31.6921H29.6921C28.5876 38.0002 27.6921 38.8956 27.6921 40.0002L27.6921 44.0002C27.6921 45.1048 28.5876 46.0002 29.6921 46.0002H31.6921L35.846 46.0002H35.9616C35.9828 46.0002 35.9999 46.0174 35.9999 46.0385V46.1539V46.3847V46.6155V46.8462V47.077V47.3078V47.5385V47.7693V48.0001V50.3078Z" fill="currentColor" />
</svg>