<svg viewBox="0 0 80 80" fill="none">
  <path opacity="0.5" fill-rule="evenodd" clip-rule="evenodd" d="M35.92 31.1582C36.5801 31.5099 37.2886 31.7842 38.0339 31.9695C40.2688 32.525 42.5946 32.2187 44.5751 31.1718C48.6226 32.023 51.4712 35.9212 50.8245 40.1965L46.5341 68.5624C46.0612 71.6889 43.3741 74.0001 40.2121 74.0001C37.0497 74.0001 34.3623 71.6882 33.8899 68.5613L29.6046 40.1951C28.9553 35.8971 31.8382 31.9807 35.92 31.1582Z" fill="currentColor" />
  <path fill-rule="evenodd" clip-rule="evenodd" d="M47.3086 29.017C47.3235 29.0022 47.3385 28.9873 47.3534 28.9724C50.593 25.7328 51.8407 20.9683 50.6411 16.5467C49.4398 12.1186 45.9312 8.61002 41.5031 7.40868C39.497 6.86441 37.4203 6.82393 35.4474 7.2447C35.7178 7.73693 35.934 8.26385 36.0883 8.81769L36.1274 8.95803C36.8182 11.438 36.1196 14.0978 34.2992 15.9181C34.2386 15.9788 34.177 16.0382 34.1146 16.0963L34.1178 16.0995L33.7333 16.484C31.4438 18.7736 30.5212 22.0954 31.3023 25.2377C32.1268 28.5548 34.7167 31.1448 38.0339 31.9693C41.1762 32.7504 44.498 31.8278 46.7876 29.5383L47.2649 29.061C47.2795 29.0464 47.2941 29.0317 47.3086 29.017Z" fill="currentColor" />
</svg>