<svg viewBox="0 0 80 80" fill="none">
  <path opacity="0.25" fill-rule="evenodd" clip-rule="evenodd" d="M27.7273 14.1348C27.7273 14.0896 27.7283 14.0447 27.7304 14L21 14C18.2386 14 16 16.2386 16 19L16 57C16 59.7614 18.2386 62 21 62H31L31 40.5718C31 39.5174 31.4163 38.5057 32.1583 37.7567L42.6276 27.1885C43.3787 26.4303 44.4016 26.0038 45.4689 26.0036L54 26.0027V19C54 16.2386 51.7614 14 49 14L42.2696 14C42.2717 14.0447 42.2727 14.0896 42.2727 14.1348C42.2727 15.7074 40.9979 16.9822 39.4253 16.9822H30.5747C29.0021 16.9822 27.7273 15.7074 27.7273 14.1348Z" fill="currentColor" />
  <path fill-rule="evenodd" clip-rule="evenodd" d="M42.73 27.0888C43.4703 26.393 44.4494 26.0037 45.4689 26.0036L58.9996 26.0021C61.2089 26.0018 63 27.7928 63 30.0021L63 64.002C63 66.2111 61.2091 68.002 59 68.002H35C32.7909 68.002 31 66.2111 31 64.002L31 40.5717C31 39.555 31.3871 38.5779 32.0801 37.8378C31.7326 38.2632 32.0304 38.9237 32.6 38.9237L39.8 38.9237C42.0091 38.9237 43.8 37.1328 43.8 34.9237V27.6159C43.8 27.0528 43.1531 26.7577 42.73 27.0888Z" fill="currentColor" />
  <path opacity="0.1" d="M32.1257 37.7864L42.6631 27.1477C43.0808 26.726 43.7998 27.0218 43.7998 27.6154V34.9232C43.7998 37.1323 42.0089 38.9232 39.7998 38.9232H32.5998C32.0069 38.9232 31.7085 38.2077 32.1257 37.7864Z" fill="currentColor" />
  <rect x="27.7275" y="11.2881" width="14.5455" height="5.69491" rx="2.84746" fill="currentColor" />
</svg>