<svg viewBox="0 0 80 80" fill="none">
  <path opacity="0.25" fill-rule="evenodd" clip-rule="evenodd" d="M47.7236 72.1171C47.7236 74.3238 45.9347 76.1127 43.728 76.1127H35.728C33.5165 76.1127 31.7236 74.3198 31.7236 72.1083L31.7236 24.3577C31.7236 17.7258 33.9807 11.2913 38.1236 6.11267L38.9236 5.11267C39.3338 4.60001 40.1135 4.60001 40.5236 5.11267L41.3236 6.11267C45.4666 11.2913 47.7236 17.7258 47.7236 24.3577L47.7236 72.1171Z" fill="currentColor" />
  <path opacity="0.5" d="M55.7314 36.1127C55.7314 35.0081 54.836 34.1127 53.7314 34.1127C52.6269 34.1127 51.7314 35.0081 51.7314 36.1127H55.7314ZM51.7314 62.1127C52.836 62.1127 53.7314 61.2172 53.7314 60.1127C53.7314 59.0081 52.836 58.1127 51.7314 58.1127V62.1127ZM55.7314 58.1127L55.7314 36.1127H51.7314L51.7314 58.1127H55.7314ZM47.7314 62.1127H51.7314V58.1127H47.7314V62.1127ZM51.7314 58.1127V62.1127C53.9406 62.1127 55.7314 60.3218 55.7314 58.1127H51.7314Z" fill="currentColor" />
  <path d="M31.7314 60.1127L47.7227 60.1127" stroke="currentColor" stroke-width="4" stroke-linejoin="round" />
</svg>