<svg viewBox="0 0 80 80" fill="none">
  <path d="M50.4174 64.0372C51.2256 70.3517 46.306 75.9412 39.94 75.9412C33.5747 75.9412 28.6553 70.353 29.4623 64.0391L33.3103 33.9331C33.3828 33.366 33.8654 32.9412 34.4371 32.9412L45.4371 32.9412C46.0088 32.9412 46.4915 33.366 46.5641 33.9331L50.4174 64.0372Z" fill="currentColor" />
  <path opacity="0.2" d="M33.941 38.9412H45.941" stroke="currentColor" stroke-width="4" stroke-linecap="square" />
  <path opacity="0.5" fill-rule="evenodd" clip-rule="evenodd" d="M45.3411 32.9412L34.5411 32.9412C34.1662 32.9412 33.8162 32.7538 33.6083 32.4419L31.0832 28.6543C29.1438 25.7453 28.9341 22.0136 30.5352 18.9056L37.3168 5.74132C37.81 4.7839 38.9411 5.45128 38.9411 6.52827L38.9411 18.6673C38.9411 19.4521 38.4111 20.1284 37.967 20.7755C37.9305 20.8287 37.8957 20.8839 37.8626 20.9412C36.9388 22.5412 38.0935 24.5412 39.941 24.5412C41.7886 24.5412 42.9433 22.5412 42.0195 20.9412C41.9864 20.8839 41.9516 20.8287 41.9151 20.7755C41.4711 20.1285 40.9411 19.4521 40.9411 18.6673L40.9411 6.52826C40.9411 5.45128 42.0722 4.78391 42.5654 5.74132L49.347 18.9056C50.9481 22.0136 50.7383 25.7453 48.799 28.6543L46.2739 32.4419C46.066 32.7538 45.7159 32.9412 45.3411 32.9412Z" fill="currentColor" />
</svg>