<svg viewBox="0 0 80 80" fill="none">
  <path opacity="0.25" fill-rule="evenodd" clip-rule="evenodd" d="M32.1132 68.1127C32.1132 72.5309 35.6949 76.1127 40.1132 76.1127C44.5314 76.1127 48.1132 72.5309 48.1132 68.1127L48.1132 19.7252C48.1132 16.092 46.8767 12.5671 44.6071 9.73005L41.7132 6.11267L40.9132 5.11267C40.503 4.60001 39.7233 4.60001 39.3132 5.11267L38.5132 6.11267L35.6193 9.73005C33.3497 12.5671 32.1132 16.092 32.1132 19.7252L32.1132 68.1127Z" fill="currentColor" />
  <path opacity="0.5" fill-rule="evenodd" clip-rule="evenodd" d="M32.1132 20.2346L34.3427 22.4653C35.3191 23.4423 36.9028 23.4423 37.8792 22.4653L40.1088 20.2346L42.3383 22.4653C43.3147 23.4423 44.8984 23.4423 45.8748 22.4653L44.8139 21.405L45.8748 22.4653L48.1132 20.2258V19.7252C48.1132 18.6837 48.0116 17.6511 47.8131 16.641C47.5311 16.6966 47.2619 16.8337 47.0434 17.0523L44.1066 19.9908L41.877 17.76C40.9006 16.783 39.3169 16.783 38.3405 17.76L36.111 19.9908L33.1741 17.0523C32.9578 16.8359 32.6918 16.6994 32.4129 16.6427C32.2147 17.6522 32.1132 18.6843 32.1132 19.7252V20.2346Z" fill="currentColor" />
  <path fill-rule="evenodd" clip-rule="evenodd" d="M35.3155 10.1097L38.5131 6.11267L39.3131 5.11267L40.1131 4.11267L40.9131 5.11267L41.7131 6.11267L44.9108 10.1097L35.3155 10.1097Z" fill="currentColor" />
  <path d="M48.1053 60.1127L32.1141 60.1127" stroke="currentColor" stroke-width="4" stroke-linejoin="round" />
</svg>