<svg viewBox="0 0 80 80" fill="none">
  <path opacity="0.25" d="M42 38.1226C42 37.018 41.1046 36.1226 40 36.1226C38.8954 36.1226 38 37.018 38 38.1226L42 38.1226ZM38 65.9982C38 67.1028 38.8954 67.9982 40 67.9982C41.1046 67.9982 42 67.1028 42 65.9982H38ZM38 38.1226L38 65.9982H42L42 38.1226L38 38.1226Z" fill="currentColor" />
  <path d="M33.9378 15.5C37.6891 13.3342 42.3109 13.3342 46.0622 15.5C49.8135 17.6658 52.1244 21.6684 52.1244 26C52.1244 30.3316 49.8135 34.3342 46.0622 36.5C42.3109 38.6658 37.6891 38.6658 33.9378 36.5C30.1865 34.3342 27.8756 30.3316 27.8756 26C27.8756 21.6684 30.1865 17.6658 33.9378 15.5Z" fill="currentColor" stroke="currentColor" stroke-width="4" stroke-linecap="round" stroke-linejoin="round" />
</svg>