<svg viewBox="0 0 80 80" fill="none">
  <g opacity="0.5">
    <path fill-rule="evenodd" clip-rule="evenodd" d="M14.3252 40.0396H24.502C24.4865 41.0139 24.1482 41.9498 23.8093 42.8871C23.5783 43.5261 23.3471 44.1657 23.2177 44.8186C23.1676 45.072 23.1415 45.3323 23.1415 45.5962C23.1415 47.0258 23.9042 48.3468 25.1423 49.0615C26.3803 49.7763 27.9056 49.7763 29.1437 49.0615C30.3817 48.3468 31.1444 47.0258 31.1444 45.5962C31.1444 45.3322 31.1184 45.072 31.0682 44.8185C30.9388 44.1656 30.7075 43.5259 30.4765 42.8869L30.4765 42.8868C30.1376 41.9496 29.7992 41.0138 29.7836 40.0396H40.0395V50.325H40.2768C41.2571 50.325 42.1988 49.989 43.1421 49.6525C43.8009 49.4174 44.4605 49.1821 45.1344 49.0608C45.36 49.0203 45.5909 48.9993 45.8247 48.9993C47.217 48.9993 48.5036 49.7421 49.1997 50.9479C49.8959 52.1536 49.8959 53.6392 49.1997 54.845C48.5036 56.0507 47.217 56.7935 45.8247 56.7935C45.5909 56.7935 45.36 56.7726 45.1344 56.732C44.4605 56.6108 43.8009 56.3754 43.1421 56.1404C42.1988 55.8038 41.2571 55.4678 40.2768 55.4678H40.0395V65.7538H27.1823H14.3252V52.8967V40.0396Z" fill="currentColor" />
  </g>
  <g opacity="0.25">
    <path fill-rule="evenodd" clip-rule="evenodd" d="M56.1407 36.9362C55.8042 37.8795 55.4682 38.8212 55.4682 39.8015V40.0395H65.7538V52.8966V65.7538H52.8967H40.0396V55.4979C41.0138 55.5135 41.9497 55.8519 42.8869 56.1907L42.8869 56.1907C43.5259 56.4218 44.1656 56.6531 44.8186 56.7824C45.072 56.8326 45.3323 56.8586 45.5963 56.8586C47.0258 56.8586 48.3468 56.096 49.0616 54.8579C49.7764 53.6199 49.7764 52.0945 49.0616 50.8565C48.3468 49.6185 47.0258 48.8558 45.5963 48.8558C45.3323 48.8558 45.072 48.8818 44.8186 48.932C44.1658 49.0613 43.5261 49.2926 42.8871 49.5236C41.9499 49.8624 41.0139 50.2008 40.0396 50.2163V40.0395H50.3253V39.8015C50.3253 38.8212 49.9893 37.8795 49.6528 36.9362C49.4177 36.2773 49.1824 35.6178 49.0612 34.9439C49.0206 34.7183 48.9996 34.4874 48.9996 34.2536C48.9996 32.8613 49.7424 31.5747 50.9482 30.8786C52.1539 30.1824 53.6395 30.1824 54.8453 30.8786C56.0511 31.5747 56.7938 32.8613 56.7938 34.2536C56.7938 34.4874 56.7729 34.7183 56.7323 34.9439C56.6111 35.6178 56.3757 36.2773 56.1407 36.9362Z" fill="currentColor" />
  </g>
  <g opacity="0.5">
    <path fill-rule="evenodd" clip-rule="evenodd" d="M40.0399 14.3252H52.897H65.7542V27.1823V40.0395H55.4686V39.8022C55.4686 38.8219 55.8046 37.8802 56.1411 36.9369C56.3762 36.278 56.6115 35.6185 56.7327 34.9446C56.7733 34.719 56.7943 34.4881 56.7943 34.2543C56.7943 32.8619 56.0515 31.5754 54.8457 30.8793C53.6399 30.1831 52.1544 30.1831 50.9486 30.8793C49.7428 31.5754 49 32.8619 49 34.2543C49 34.4881 49.021 34.719 49.0616 34.9446C49.1828 35.6185 49.4181 36.278 49.6532 36.9369L49.6532 36.9369C49.9897 37.8802 50.3257 38.8219 50.3257 39.8022V40.0395H40.0399V29.6107H39.6594C38.6792 29.6107 37.7374 29.9467 36.7941 30.2832C36.1353 30.5183 35.4757 30.7536 34.8018 30.8748C34.5762 30.9154 34.3453 30.9363 34.1115 30.9363C32.7192 30.9363 31.4326 30.1936 30.7365 28.9878C30.0403 27.782 30.0403 26.2964 30.7365 25.0907C31.4326 23.8849 32.7192 23.1421 34.1115 23.1421C34.3453 23.1421 34.5762 23.1631 34.8018 23.2037C35.4757 23.3249 36.1353 23.5602 36.7941 23.7953C37.7374 24.1318 38.6792 24.4678 39.6594 24.4678H40.0399V14.3252Z" fill="currentColor" />
  </g>
  <path fill-rule="evenodd" clip-rule="evenodd" d="M14.3252 14.3252H27.1823H40.0395V24.5025H40.0295C39.0302 24.5025 38.0721 24.1562 37.1126 23.8093C36.4736 23.5783 35.834 23.347 35.1811 23.2177C34.9277 23.1675 34.6675 23.1415 34.4035 23.1415C32.9739 23.1415 31.653 23.9042 30.9382 25.1422C30.2234 26.3803 30.2234 27.9056 30.9382 29.1436C31.653 30.3817 32.9739 31.1443 34.4035 31.1443C34.6675 31.1443 34.9277 31.1183 35.1812 31.0681C35.8341 30.9388 36.4738 30.7075 37.1129 30.4764C38.0725 30.1295 39.0306 29.783 40.0301 29.783H40.0395V40.0395H29.611V40.1337C29.611 41.1139 29.947 42.0557 30.2835 42.9989C30.5186 43.6578 30.7539 44.3174 30.8751 44.9913C30.9157 45.2169 30.9367 45.4478 30.9367 45.6816C30.9367 47.0739 30.1939 48.3605 28.9881 49.0566C27.7823 49.7528 26.2968 49.7528 25.091 49.0566C23.8852 48.3605 23.1424 47.0739 23.1424 45.6816C23.1424 45.4478 23.1634 45.2169 23.204 44.9913C23.3252 44.3174 23.5605 43.6578 23.7956 42.9989C24.1321 42.0557 24.4681 41.1139 24.4681 40.1337V40.0395H14.3252V27.1823V14.3252Z" fill="currentColor" />
</svg>