<svg viewBox="0 0 80 80" fill="none">
  <path opacity="0.25" fill-rule="evenodd" clip-rule="evenodd" d="M11.4142 11.5898C10.1543 10.3299 8 11.2222 8 13.004V70.1756C8 71.2802 8.89543 72.1756 10 72.1756H67.1716C68.9534 72.1756 69.8457 70.0213 68.5858 68.7614L11.4142 11.5898ZM24.4142 44.5898C23.1543 43.3299 21 44.2222 21 46.004V57.1756C21 58.2802 21.8954 59.1756 23 59.1756H34.1716C35.9534 59.1756 36.8457 57.0213 35.5858 55.7614L24.4142 44.5898Z" fill="currentColor" />
  <path fill-rule="evenodd" clip-rule="evenodd" d="M20.5092 21.0079L17.004 24.5131C16.223 25.2942 16.223 26.5605 17.004 27.3415C17.785 28.1226 19.0514 28.1226 19.8324 27.3415L23.3376 23.8364L20.5092 21.0079ZM29.2783 29.777L25.1272 33.9281C24.3461 34.7092 24.3461 35.9755 25.1272 36.7566C25.9082 37.5376 27.1746 37.5376 27.9556 36.7566L32.1067 32.6055L29.2783 29.777ZM38.0474 38.5462L34.5422 42.0513C33.7612 42.8324 33.7612 44.0987 34.5422 44.8798C35.3233 45.6608 36.5896 45.6608 37.3706 44.8798L40.8758 41.3746L38.0474 38.5462ZM46.8165 47.3153L42.6654 51.4664C41.8843 52.2474 41.8843 53.5137 42.6654 54.2948C43.4464 55.0758 44.7128 55.0758 45.4938 54.2948L49.6449 50.1437L46.8165 47.3153ZM55.5856 56.0844L52.0804 59.5895C51.2994 60.3706 51.2994 61.6369 52.0804 62.418C52.8615 63.199 54.1278 63.199 54.9089 62.418L58.414 58.9128L55.5856 56.0844Z" fill="currentColor" />
</svg>