<svg viewBox="0 0 80 80" fill="none">
  <g opacity="0.5">
    <path fill-rule="evenodd" clip-rule="evenodd" d="M71 20.9998L64 48.9998H26L19 20.9998H71Z" fill="currentColor" />
    <path d="M64 48.9998V50.9998C64.9177 50.9998 65.7177 50.3752 65.9403 49.4848L64 48.9998ZM71 20.9998L72.9403 21.4848C73.0897 20.8873 72.9554 20.2544 72.5764 19.7689C72.1974 19.2835 71.6159 18.9998 71 18.9998V20.9998ZM26 48.9998L24.0597 49.4848C24.2823 50.3752 25.0823 50.9998 26 50.9998V48.9998ZM19 20.9998V18.9998C18.3841 18.9998 17.8026 19.2835 17.4236 19.7689C17.0446 20.2544 16.9103 20.8873 17.0597 21.4848L19 20.9998ZM65.9403 49.4848L72.9403 21.4848L69.0597 20.5147L62.0597 48.5147L65.9403 49.4848ZM26 50.9998H64V46.9998H26V50.9998ZM17.0597 21.4848L24.0597 49.4848L27.9403 48.5147L20.9403 20.5147L17.0597 21.4848ZM71 18.9998H19V22.9998H71V18.9998Z" fill="currentColor" />
  </g>
  <path fill-rule="evenodd" clip-rule="evenodd" d="M7 13C7 11.8954 7.89543 11 9 11H17C17.9177 11 18.7177 11.6246 18.9403 12.5149L30.4202 58.4347C29.0755 58.1824 27.6788 58.2916 26.3791 58.7625L15.4384 15H9C7.89543 15 7 14.1046 7 13ZM32.8481 59.3337C32.6366 59.2116 32.4208 59.1004 32.2014 59H58.7986C58.5792 59.1004 58.3634 59.2116 58.1519 59.3337C56.6779 60.1847 55.5543 61.4825 54.912 63H36.0879C35.4457 61.4825 34.3221 60.1847 32.8481 59.3337Z" fill="currentColor" />
  <path opacity="0.25" d="M26.4019 61.4988C28.0096 60.5706 29.9904 60.5706 31.5981 61.4988C33.2058 62.427 34.1962 64.1424 34.1962 65.9988C34.1962 67.8552 33.2058 69.5706 31.5981 70.4988C29.9904 71.427 28.0096 71.427 26.4019 70.4988C24.7942 69.5706 23.8038 67.8552 23.8038 65.9988C23.8038 64.1424 24.7942 62.427 26.4019 61.4988Z" fill="currentColor" stroke="currentColor" stroke-width="4" stroke-linecap="round" stroke-linejoin="round" />
  <path opacity="0.25" d="M59.4019 61.4988C61.0096 60.5706 62.9904 60.5706 64.5981 61.4988C66.2058 62.427 67.1962 64.1424 67.1962 65.9988C67.1962 67.8552 66.2058 69.5706 64.5981 70.4988C62.9904 71.427 61.0096 71.427 59.4019 70.4988C57.7942 69.5706 56.8038 67.8552 56.8038 65.9988C56.8038 64.1424 57.7942 62.427 59.4019 61.4988Z" fill="currentColor" stroke="currentColor" stroke-width="4" stroke-linecap="round" stroke-linejoin="round" />
</svg>