<svg viewBox="0 0 80 80" fill="none">
  <path opacity="0.5" fill-rule="evenodd" clip-rule="evenodd" d="M11.1925 33.1699C15.4065 33.1981 19.6158 34.1496 23.5089 36.0244C31.414 39.8313 37.1554 47.0308 39.1078 55.5848C39.5045 57.3229 39.736 59.0786 39.8071 60.8304C31.1045 60.7723 22.8893 56.7853 17.4589 49.9758C13.5958 45.1316 11.4389 39.2314 11.1925 33.1699Z" fill="currentColor" />
  <path opacity="0.25" fill-rule="evenodd" clip-rule="evenodd" d="M68.8075 33.1699C64.5935 33.1981 60.3842 34.1496 56.4911 36.0244C48.586 39.8313 42.8446 47.0308 40.8922 55.5848C40.4955 57.3229 40.264 59.0786 40.1929 60.8304C48.8955 60.7723 57.1107 56.7853 62.5411 49.9758C66.4042 45.1316 68.5611 39.2314 68.8075 33.1699Z" fill="currentColor" />
  <path fill-rule="evenodd" clip-rule="evenodd" d="M27.5381 38.3843C33.3486 42.4533 37.5048 48.5626 39.1076 55.5848C39.5042 57.3224 39.7356 59.0775 39.8069 60.8288C39.9274 60.8303 40.0479 60.831 40.1686 60.831C42.6082 60.831 45.0108 60.5222 47.3261 59.9287C47.3392 59.9107 47.3523 59.8926 47.3653 59.8746C45.047 60.4873 42.6391 60.8141 40.1927 60.8304C40.2638 59.0786 40.4953 57.323 40.8921 55.5848C42.4948 48.5626 46.6511 42.4532 52.4617 38.3843C52.3636 37.7776 52.2458 37.1721 52.108 36.5687C50.4562 29.3314 46.092 23.0637 39.9999 19C33.9078 23.0637 29.5436 29.3314 27.8917 36.5687C27.754 37.1721 27.6362 37.7776 27.5381 38.3843Z" fill="currentColor" />
</svg>