<svg viewBox="0 0 80 80" fill="none">
  <path opacity="0.5" fill-rule="evenodd" clip-rule="evenodd" d="M35.7574 14.2427C38.1005 11.8996 41.8995 11.8996 44.2426 14.2427L60.2426 30.2427C61.3679 31.3679 62 32.8941 62 34.4853L62 64.0001C62 67.3138 59.3137 70.0001 56 70.0001H24C20.6863 70.0001 18 67.3138 18 64.0001V34.4854C18 32.8941 18.6321 31.3679 19.7574 30.2427L35.7574 14.2427Z" fill="currentColor" />
  <path d="M36.5 28.5C38.433 26.567 41.567 26.567 43.5 28.5C45.433 30.433 45.433 33.567 43.5 35.5C41.567 37.433 38.433 37.433 36.5 35.5C34.567 33.567 34.567 30.433 36.5 28.5Z" fill="currentColor" />
</svg>