<svg viewBox="0 0 80 80" fill="none">
  <path fill-rule="evenodd" clip-rule="evenodd" d="M32 12C29.7909 12 28 13.7909 28 16V22H52V16C52 13.7909 50.2091 12 48 12H44.6154H35.3846H32ZM52 58H28V64C28 66.2091 29.7909 68 32 68H35.3846H44.6154H48C50.2091 68 52 66.2091 52 64V58Z" fill="currentColor" />
  <rect opacity="0.25" x="20" y="22" width="40" height="36" rx="7" fill="currentColor" />
  <g opacity="0.5">
    <path fill-rule="evenodd" clip-rule="evenodd" d="M30.3025 32.1026C29.1773 33.2512 28.5452 34.8091 28.5452 36.4336C28.5452 38.058 29.1773 39.616 30.3025 40.7646L40 50.6641C40 50.6641 40 50.6641 40 50.6641C40 50.6641 40 50.6641 40 50.6641C40 50.6641 40.0001 50.6641 40.0001 50.6641L49.6975 40.7646C50.8227 39.616 51.4549 38.058 51.4549 36.4336C51.4549 34.8091 50.8227 33.2512 49.6975 32.1026C48.5723 30.9539 47.0462 30.3086 45.4549 30.3086C43.8636 30.3086 42.3375 30.9539 41.2122 32.1026L40.2962 33.0377L40 33.34C40 33.34 40 33.34 40 33.34C40 33.34 40 33.34 40 33.34L39.7038 33.0377L38.7878 32.1026C37.6626 30.9539 36.1365 30.3086 34.5452 30.3086C32.9539 30.3086 31.4277 30.9539 30.3025 32.1026Z" fill="currentColor" />
  </g>
</svg>