<svg viewBox="0 0 80 80" fill="none">
  <path d="M23.8824 45H18" stroke="currentColor" stroke-width="4" stroke-linecap="round" stroke-linejoin="round" />
  <path d="M38 33L23 33" stroke="currentColor" stroke-width="4" stroke-linecap="round" stroke-linejoin="round" />
  <path d="M23.4121 45H27.5117H30.4121C34.2781 45 37.4121 48.134 37.4121 52V52C37.4121 55.866 34.2781 59 30.4121 59H30.1846C26.4442 59 23.4121 55.9679 23.4121 52.2275V52.2275V52V51.99" stroke="currentColor" stroke-width="4" stroke-linecap="round" stroke-linejoin="round" />
  <path d="M37.4102 33H41.5098H44.4102C48.2761 33 51.4102 29.866 51.4102 26V26C51.4102 22.134 48.2761 19 44.4102 19H44.1826C40.4423 19 37.4102 22.0321 37.4102 25.7725V25.7725V26V26.01" stroke="currentColor" stroke-width="4" stroke-linecap="round" stroke-linejoin="round" />
  <path opacity="0.25" d="M14 37C12.8954 37 12 37.8954 12 39C12 40.1046 12.8954 41 14 41H53.8159C58.7864 41 62.8158 45.0294 62.8158 50C62.8158 54.9706 58.7864 59 53.8158 59H53.4583C48.6852 59 44.8158 55.1306 44.8158 50.3576V49.9843C44.8158 48.8797 43.9204 47.9843 42.8158 47.9843C41.7113 47.9843 40.8158 48.8797 40.8158 49.9843V50.3576C40.8158 57.3398 46.4761 63 53.4583 63H53.8158C60.9956 63 66.8158 57.1797 66.8158 50C66.8158 42.8203 60.9956 37 53.8159 37H14Z" fill="currentColor" />
</svg>