<svg viewBox="0 0 80 80" fill="none">
  <path d="M41.1594 24.9327L32.7783 59.9809C32.0722 62.934 27.9287 63.0894 27.0033 60.1975L20.5401 40H5C3.89543 40 3 39.1045 3 38C3 36.8954 3.89543 36 5 36H21.27C22.5747 36 23.7297 36.8431 24.1273 38.0856L29.7212 55.5665L38.162 20.2686C38.881 17.2619 43.1278 17.1765 43.9671 20.152L52.3024 49.7044L56.8881 37.9126C57.3365 36.7595 58.4468 36 59.6841 36H76C77.1046 36 78 36.8954 78 38C78 39.1045 77.1046 40 76 40H60.3681L54.9472 53.9395C53.9035 56.6233 50.0455 56.438 49.2638 53.6665L41.1594 24.9327Z" stroke="currentColor" stroke-linecap="round" stroke-linejoin="round" />
</svg>