<svg viewBox="0 0 80 80" fill="none">
  <path fill-rule="evenodd" clip-rule="evenodd" d="M25.1435 14.2679C29.7411 11.6135 34.8722 10.2866 40.0032 10.2871C45.132 10.2877 50.2607 11.6146 54.8563 14.2679C64.0495 19.5756 69.7127 29.3846 69.7127 39.9999C69.7127 50.6153 64.0495 60.4243 54.8563 65.732C50.2607 68.3853 45.132 69.7122 40.0032 69.7127L39.9999 69.7127H39.9979C36.848 69.7125 33.6981 69.212 30.6716 68.2112C30.6539 68.2056 30.6361 68.1997 30.6185 68.1936C28.7354 67.5669 26.9005 66.7464 25.1435 65.732C24.328 65.2612 23.5403 64.7549 22.7819 64.2158C22.7525 64.196 22.7235 64.1754 22.6951 64.1539C20.5902 62.6464 18.7124 60.8852 17.094 58.9259C17.0746 58.9034 17.0556 58.8803 17.037 58.8567C15.4726 56.9511 14.1526 54.8597 13.1065 52.6332C13.0966 52.6131 13.0871 52.5928 13.078 52.5724C12.0203 50.3081 11.2454 47.9049 10.7842 45.416C10.7772 45.3826 10.7711 45.3492 10.7658 45.3156C10.4501 43.579 10.2871 41.8011 10.2871 39.9999C10.2871 38.9955 10.3378 37.9984 10.4374 37.0116C10.439 36.9931 10.4409 36.9746 10.443 36.9562C10.8148 33.3403 11.8431 29.8642 13.4388 26.6821C13.4474 26.6644 13.4563 26.6468 13.4654 26.6293C16.0284 21.5438 20.0425 17.2129 25.1435 14.2679ZM16.767 28.9825C16.1122 30.3629 15.5793 31.8039 15.1777 33.2892L37.9999 20.1127V16.7236L16.767 28.9825ZM32.025 15.5545L22.817 20.8707C24.1316 19.6899 25.5784 18.6356 27.1435 17.732C28.7086 16.8284 30.3451 16.1025 32.025 15.5545ZM41.9999 21.3021C42.0004 21.2778 42.0004 21.2534 41.9999 21.229V14.3649C45.7632 14.6582 49.4764 15.7806 52.8563 17.732C60.8119 22.3251 65.7127 30.8136 65.7127 39.9999C65.7127 49.1862 60.8119 57.6747 52.8563 62.2679C49.4764 64.2193 45.7632 65.3416 41.9999 65.6349V61.3021C42.0004 61.2778 42.0004 61.2534 41.9999 61.229V53.2976C42.0004 53.2733 42.0004 53.2489 41.9999 53.2245V45.3021C42.0004 45.2778 42.0004 45.2534 41.9999 45.229V37.3021C42.0004 37.2778 42.0004 37.2534 41.9999 37.229V29.3021C42.0004 29.2778 42.0004 29.2534 41.9999 29.229V21.3021ZM37.9999 24.7315L14.3372 38.3932C14.3039 38.9259 14.2871 39.4617 14.2871 39.9999C14.2871 40.5926 14.3075 41.1823 14.3478 41.7683L37.9999 28.1127V24.7315ZM37.9999 32.7315L14.999 46.0111C15.2343 46.9895 15.5261 47.9501 15.8719 48.8883L37.9999 36.1127V32.7315ZM37.9999 40.7315L17.551 52.5377C18.0275 53.3908 18.5525 54.2167 19.1235 55.011L37.9999 44.1127V40.7315ZM37.9999 48.7315L21.7496 58.1136C22.4698 58.8393 23.236 59.5247 24.0453 60.1649L37.9999 52.1082V48.7315ZM37.9999 56.727L27.7836 62.6254C28.8515 63.2021 29.9501 63.6981 31.0709 64.1132L37.9999 60.1127V56.727ZM37.9999 64.7315L36.6741 65.497C37.1151 65.5544 37.5571 65.6004 37.9999 65.6349V64.7315Z" stroke="currentColor" stroke-linecap="round" stroke-linejoin="round" />
</svg>