<svg viewBox="0 0 80 80" fill="none">
  <path fill-rule="evenodd" clip-rule="evenodd" d="M14 20C10.6863 20 8 22.6863 8 26V54C8 57.3137 10.6863 60 14 60H62C65.3137 60 68 57.3137 68 54V49.793C70.3085 49.14 72 47.0176 72 44.5V35.5C72 32.9824 70.3085 30.86 68 30.207V26C68 22.6863 65.3137 20 62 20H14ZM64 26C64 24.8954 63.1046 24 62 24H14C12.8954 24 12 24.8954 12 26V54C12 55.1046 12.8954 56 14 56H62C63.1046 56 64 55.1046 64 54V26Z" stroke="currentColor" stroke-linecap="round" stroke-linejoin="round" />
</svg>