<svg viewBox="0 0 80 80" fill="none">
  <path fill-rule="evenodd" clip-rule="evenodd" d="M33 10C31.3431 10 30 11.3431 30 13V22H19C17.3431 22 16 23.3431 16 25V67C16 68.6569 17.3431 70 19 70H31C31.3506 70 31.6872 69.9398 32 69.8293C32.3128 69.9398 32.6494 70 33 70H45C46.6569 70 48 68.6569 48 67V39.4065L52.6855 68.6786C52.86 69.7692 53.8857 70.5119 54.9764 70.3373C56.0671 70.1627 56.8098 69.137 56.6352 68.0463L56.4991 67.1963C57.4202 66.8038 58.3943 66.5205 59.4033 66.359C60.544 66.1764 61.691 66.1556 62.8138 66.2876L62.9339 67.0381C63.1085 68.1288 64.1342 68.8715 65.2249 68.6969C66.3156 68.5223 67.0582 67.4966 66.8836 66.4059L66.5383 64.2485C66.5382 64.2476 66.538 64.2468 66.5379 64.2459L61.2234 31.0443C61.0489 29.9536 60.023 29.2101 58.9323 29.3847C58.9126 29.3879 58.893 29.3913 58.8735 29.395L48.743 31.0166C48.7233 31.0191 48.7036 31.022 48.6839 31.0251C48.4357 31.0649 48.2055 31.1487 48 31.2673V13C48 11.3431 46.6569 10 45 10H33ZM51.2911 34.6596L55.8524 63.1563C56.7926 62.821 57.7689 62.5697 58.7711 62.4093C59.9026 62.2281 61.039 62.1675 62.163 62.2222L57.5898 33.6514L51.2911 34.6596ZM30 66V61.998H20V66H30ZM30 57.998V33.998H20V57.998H30ZM30 29.998V26H20V29.998H30ZM34 66H44V61.998H34V66ZM34 57.998V21.998H44V57.998H34ZM34 17.998H44V14H34V17.998Z" stroke="currentColor" stroke-linecap="round" stroke-linejoin="round" />
</svg>