<svg viewBox="0 0 80 80" fill="none">
  <path fill-rule="evenodd" clip-rule="evenodd" d="M40.0001 21.9951C41.1047 21.9951 42.0001 22.8905 42.0001 23.9951V24.0051C42.0001 25.1097 41.1047 26.0051 40.0001 26.0051C38.8955 26.0051 38.0001 25.1097 38.0001 24.0051V23.9951C38.0001 22.8905 38.8955 21.9951 40.0001 21.9951ZM40.0001 29.9951C41.1047 29.9951 42.0001 30.8905 42.0001 31.9951V32.0051C42.0001 33.1097 41.1047 34.0051 40.0001 34.0051C38.8955 34.0051 38.0001 33.1097 38.0001 32.0051V31.9951C38.0001 30.8905 38.8955 29.9951 40.0001 29.9951ZM38.5832 41.4166C38.9454 41.7801 39.4465 42.0051 40.0001 42.0051C40.5536 42.0051 41.0545 41.7803 41.4166 41.417C41.7801 41.0549 42.0051 40.5538 42.0051 40.0001C42.0051 39.4464 41.7801 38.9453 41.4166 38.5832C41.0545 38.2199 40.5535 37.9951 40.0001 37.9951C39.4466 37.9951 38.9456 38.22 38.5835 38.5833C38.22 38.9454 37.9951 39.4465 37.9951 40.0001C37.9951 40.5536 38.2199 41.0545 38.5832 41.4166ZM21.9951 40.0001C21.9951 38.8955 22.8905 38.0001 23.9951 38.0001H24.0051C25.1097 38.0001 26.0051 38.8955 26.0051 40.0001C26.0051 41.1047 25.1097 42.0001 24.0051 42.0001H23.9951C22.8905 42.0001 21.9951 41.1047 21.9951 40.0001ZM29.9951 40.0001C29.9951 38.8955 30.8905 38.0001 31.9951 38.0001H32.0051C33.1097 38.0001 34.0051 38.8955 34.0051 40.0001C34.0051 41.1047 33.1097 42.0001 32.0051 42.0001H31.9951C30.8905 42.0001 29.9951 41.1047 29.9951 40.0001ZM45.9951 40.0001C45.9951 38.8955 46.8905 38.0001 47.9951 38.0001H48.0051C49.1097 38.0001 50.0051 38.8955 50.0051 40.0001C50.0051 41.1047 49.1097 42.0001 48.0051 42.0001H47.9951C46.8905 42.0001 45.9951 41.1047 45.9951 40.0001ZM53.9951 40.0001C53.9951 38.8955 54.8905 38.0001 55.9951 38.0001H56.0051C57.1097 38.0001 58.0051 38.8955 58.0051 40.0001C58.0051 41.1047 57.1097 42.0001 56.0051 42.0001H55.9951C54.8905 42.0001 53.9951 41.1047 53.9951 40.0001ZM40.0001 45.9951C41.1047 45.9951 42.0001 46.8905 42.0001 47.9951V48.0051C42.0001 49.1097 41.1047 50.0051 40.0001 50.0051C38.8955 50.0051 38.0001 49.1097 38.0001 48.0051V47.9951C38.0001 46.8905 38.8955 45.9951 40.0001 45.9951ZM40.0001 53.9951C41.1047 53.9951 42.0001 54.8905 42.0001 55.9951V56.0051C42.0001 57.1097 41.1047 58.0051 40.0001 58.0051C38.8955 58.0051 38.0001 57.1097 38.0001 56.0051V55.9951C38.0001 54.8905 38.8955 53.9951 40.0001 53.9951Z" stroke="currentColor" stroke-linecap="round" stroke-linejoin="round" />
  <path fill-rule="evenodd" clip-rule="evenodd" d="M14 16C14 14.8954 14.8954 14 16 14H64C65.1046 14 66 14.8954 66 16V64C66 65.1046 65.1046 66 64 66H16C14.8954 66 14 65.1046 14 64V16ZM18 18V62H62V18H18Z" stroke="currentColor" stroke-linecap="round" stroke-linejoin="round" />
</svg>