<svg viewBox="0 0 80 80" fill="none">
  <path fill-rule="evenodd" clip-rule="evenodd" d="M64.0001 21.9951C65.1047 21.9951 66.0001 22.8905 66.0001 23.9951V24.0051C66.0001 25.1097 65.1047 26.0051 64.0001 26.0051C62.8955 26.0051 62.0001 25.1097 62.0001 24.0051V23.9951C62.0001 22.8905 62.8955 21.9951 64.0001 21.9951ZM64.0001 29.9951C65.1047 29.9951 66.0001 30.8905 66.0001 31.9951V32.0051C66.0001 33.1097 65.1047 34.0051 64.0001 34.0051C62.8955 34.0051 62.0001 33.1097 62.0001 32.0051V31.9951C62.0001 30.8905 62.8955 29.9951 64.0001 29.9951ZM64.0001 37.9951C65.1047 37.9951 66.0001 38.8905 66.0001 39.9951V40.0051C66.0001 41.1097 65.1047 42.0051 64.0001 42.0051C62.8955 42.0051 62.0001 41.1097 62.0001 40.0051V39.9951C62.0001 38.8905 62.8955 37.9951 64.0001 37.9951ZM64.0001 45.9951C65.1047 45.9951 66.0001 46.8905 66.0001 47.9951V48.0051C66.0001 49.1097 65.1047 50.0051 64.0001 50.0051C62.8955 50.0051 62.0001 49.1097 62.0001 48.0051V47.9951C62.0001 46.8905 62.8955 45.9951 64.0001 45.9951ZM64.0001 53.9951C65.1047 53.9951 66.0001 54.8905 66.0001 55.9951V56.0051C66.0001 57.1097 65.1047 58.0051 64.0001 58.0051C62.8955 58.0051 62.0001 57.1097 62.0001 56.0051V55.9951C62.0001 54.8905 62.8955 53.9951 64.0001 53.9951ZM64.0001 61.9951C65.1047 61.9951 66.0001 62.8905 66.0001 63.9951V64.0001C66.0001 65.1047 65.1047 66.0001 64.0001 66.0001H63.9951C62.8905 66.0001 61.9951 65.1047 61.9951 64.0001C61.9951 63.4466 62.22 62.9455 62.5834 62.5834C62.9455 62.22 63.4466 61.9951 64.0001 61.9951ZM21.9951 64.0001C21.9951 62.8955 22.8905 62.0001 23.9951 62.0001H24.0051C25.1097 62.0001 26.0051 62.8955 26.0051 64.0001C26.0051 65.1047 25.1097 66.0001 24.0051 66.0001H23.9951C22.8905 66.0001 21.9951 65.1047 21.9951 64.0001ZM29.9951 64.0001C29.9951 62.8955 30.8905 62.0001 31.9951 62.0001H32.0051C33.1097 62.0001 34.0051 62.8955 34.0051 64.0001C34.0051 65.1047 33.1097 66.0001 32.0051 66.0001H31.9951C30.8905 66.0001 29.9951 65.1047 29.9951 64.0001ZM37.9951 64.0001C37.9951 62.8955 38.8905 62.0001 39.9951 62.0001H40.0051C41.1097 62.0001 42.0051 62.8955 42.0051 64.0001C42.0051 65.1047 41.1097 66.0001 40.0051 66.0001H39.9951C38.8905 66.0001 37.9951 65.1047 37.9951 64.0001ZM45.9951 64.0001C45.9951 62.8955 46.8905 62.0001 47.9951 62.0001H48.0051C49.1097 62.0001 50.0051 62.8955 50.0051 64.0001C50.0051 65.1047 49.1097 66.0001 48.0051 66.0001H47.9951C46.8905 66.0001 45.9951 65.1047 45.9951 64.0001ZM53.9951 64.0001C53.9951 62.8955 54.8905 62.0001 55.9951 62.0001H56.0051C57.1097 62.0001 58.0051 62.8955 58.0051 64.0001C58.0051 65.1047 57.1097 66.0001 56.0051 66.0001H55.9951C54.8905 66.0001 53.9951 65.1047 53.9951 64.0001Z" stroke="currentColor" stroke-linecap="round" stroke-linejoin="round" />
  <path fill-rule="evenodd" clip-rule="evenodd" d="M14 16C14 14.8954 14.8954 14 16 14H64C65.1046 14 66 14.8954 66 16C66 17.1046 65.1046 18 64 18H18L18 64C18 65.1046 17.1046 66 16 66C14.8954 66 14 65.1046 14 64L14 16Z" stroke="currentColor" stroke-linecap="round" stroke-linejoin="round" />
</svg>