<svg viewBox="0 0 80 80" fill="none">
  <path d="M29 23C29 21.8954 29.8954 21 31 21H33C34.1046 21 35 21.8954 35 23C35 24.1046 34.1046 25 33 25H31C29.8954 25 29 24.1046 29 23Z" stroke="currentColor" stroke-linecap="round" stroke-linejoin="round" />
  <path d="M39 21C37.8954 21 37 21.8954 37 23C37 24.1046 37.8954 25 39 25H41C42.1046 25 43 24.1046 43 23C43 21.8954 42.1046 21 41 21H39Z" stroke="currentColor" stroke-linecap="round" stroke-linejoin="round" />
  <path d="M45 23C45 21.8954 45.8954 21 47 21H49C50.1046 21 51 21.8954 51 23C51 24.1046 50.1046 25 49 25H47C45.8954 25 45 24.1046 45 23Z" stroke="currentColor" stroke-linecap="round" stroke-linejoin="round" />
  <path d="M31 29C29.8954 29 29 29.8954 29 31C29 32.1046 29.8954 33 31 33H33C34.1046 33 35 32.1046 35 31C35 29.8954 34.1046 29 33 29H31Z" stroke="currentColor" stroke-linecap="round" stroke-linejoin="round" />
  <path d="M37 31C37 29.8954 37.8954 29 39 29H41C42.1046 29 43 29.8954 43 31C43 32.1046 42.1046 33 41 33H39C37.8954 33 37 32.1046 37 31Z" stroke="currentColor" stroke-linecap="round" stroke-linejoin="round" />
  <path d="M47 29C45.8954 29 45 29.8954 45 31C45 32.1046 45.8954 33 47 33H49C50.1046 33 51 32.1046 51 31C51 29.8954 50.1046 29 49 29H47Z" stroke="currentColor" stroke-linecap="round" stroke-linejoin="round" />
  <path d="M29 39C29 37.8954 29.8954 37 31 37H33C34.1046 37 35 37.8954 35 39C35 40.1046 34.1046 41 33 41H31C29.8954 41 29 40.1046 29 39Z" stroke="currentColor" stroke-linecap="round" stroke-linejoin="round" />
  <path d="M39 37C37.8954 37 37 37.8954 37 39C37 40.1046 37.8954 41 39 41H41C42.1046 41 43 40.1046 43 39C43 37.8954 42.1046 37 41 37H39Z" stroke="currentColor" stroke-linecap="round" stroke-linejoin="round" />
  <path d="M45 39C45 37.8954 45.8954 37 47 37H49C50.1046 37 51 37.8954 51 39C51 40.1046 50.1046 41 49 41H47C45.8954 41 45 40.1046 45 39Z" stroke="currentColor" stroke-linecap="round" stroke-linejoin="round" />
  <path d="M31 45C29.8954 45 29 45.8954 29 47C29 48.1046 29.8954 49 31 49H33C34.1046 49 35 48.1046 35 47C35 45.8954 34.1046 45 33 45H31Z" stroke="currentColor" stroke-linecap="round" stroke-linejoin="round" />
  <path d="M37 47C37 45.8954 37.8954 45 39 45H41C42.1046 45 43 45.8954 43 47C43 48.1046 42.1046 49 41 49H39C37.8954 49 37 48.1046 37 47Z" stroke="currentColor" stroke-linecap="round" stroke-linejoin="round" />
  <path d="M47 45C45.8954 45 45 45.8954 45 47C45 48.1046 45.8954 49 47 49H49C50.1046 49 51 48.1046 51 47C51 45.8954 50.1046 45 49 45H47Z" stroke="currentColor" stroke-linecap="round" stroke-linejoin="round" />
  <path fill-rule="evenodd" clip-rule="evenodd" d="M20 14C18.8954 14 18 14.8954 18 16C18 17.1046 18.8954 18 20 18H21V62H20C18.8954 62 18 62.8954 18 64C18 65.1046 18.8954 66 20 66H60C61.1046 66 62 65.1046 62 64C62 62.8954 61.1046 62 60 62H59V18H60C61.1046 18 62 17.1046 62 16C62 14.8954 61.1046 14 60 14H20ZM48 62H55V18H25V62H32V58C32 55.7909 33.7909 54 36 54H44C46.2091 54 48 55.7909 48 58V62ZM36 62H44V58H36V62Z" stroke="currentColor" stroke-linecap="round" stroke-linejoin="round" />
</svg>