<svg viewBox="0 0 80 80" fill="none">
  <path d="M42.9976 34.0718C41.4572 34.072 39.9159 34.4707 38.5353 35.2678C35.7733 36.8624 34.0718 39.8095 34.0718 42.9988C34.0718 43.9489 34.223 44.8783 34.5084 45.7568C34.8498 46.8073 35.9781 47.3822 37.0286 47.0409C38.0791 46.6995 38.654 45.5712 38.3126 44.5207C38.1553 44.0364 38.0718 43.5239 38.0718 42.9988C38.0718 41.2385 39.0109 39.612 40.5353 38.7319C41.2974 38.2919 42.1473 38.0719 42.9981 38.0718C44.1027 38.0717 44.998 37.1761 44.9979 36.0715C44.9977 34.967 44.1022 34.0717 42.9976 34.0718Z" stroke="currentColor" stroke-linecap="round" stroke-linejoin="round" />
  <path fill-rule="evenodd" clip-rule="evenodd" d="M35.0718 29.268C39.9778 26.4355 46.0222 26.4355 50.9282 29.268C55.8342 32.1004 58.8564 37.3351 58.8564 43C58.8564 48.665 55.8342 53.8996 50.9282 56.7321C46.0222 59.5645 39.9778 59.5645 35.0718 56.7321C30.1658 53.8996 27.1436 48.665 27.1436 43C27.1436 37.3351 30.1658 32.1004 35.0718 29.268ZM48.9282 32.7321C45.2598 30.6141 40.7402 30.6141 37.0718 32.7321C33.4034 34.85 31.1436 38.7641 31.1436 43C31.1436 47.2359 33.4034 51.15 37.0718 53.268C40.7402 55.3859 45.2598 55.3859 48.9282 53.268C52.5966 51.15 54.8564 47.2359 54.8564 43C54.8564 38.7641 52.5966 34.85 48.9282 32.7321Z" stroke="currentColor" stroke-linecap="round" stroke-linejoin="round" />
  <path fill-rule="evenodd" clip-rule="evenodd" d="M34.6322 11.3969C35.2691 9.94084 36.7076 9 38.2969 9H47.7723C49.3615 9 50.8 9.94084 51.437 11.3969L52.1382 12.9998H52.2647C53.9222 12.9998 55.4079 14.0219 56.0004 15.5698L57.6962 20H64C66.7614 20 69 22.2386 69 25V61C69 63.7614 66.7614 66 64 66H51.4907C46.0143 68.0222 39.9857 68.0222 34.5093 66H14C11.2386 66 9 63.7614 9 61V25C9 22.2386 11.2386 20 14 20H14.5097L14.6966 19.1453C15.0983 17.3089 16.7244 16 18.6042 16H21.4304C23.3102 16 24.9363 17.3089 25.338 19.1453L25.5249 20H28.4249L30.1207 15.5698C30.7132 14.0219 32.1989 12.9998 33.8564 12.9998H33.931L34.6322 11.3969ZM25.5703 60.2423C26.181 60.8598 26.8266 61.4468 27.5051 62H14C13.4477 62 13 61.5523 13 61V25C13 24.4477 13.4477 24 14 24H27.505C23.9702 26.8822 21.3298 30.6797 19.8466 34.9374C18.9567 37.492 18.4833 40.2123 18.4833 43C18.4833 43.4646 18.4965 43.9273 18.5225 44.3878C18.8631 50.4103 21.4083 56.0346 25.5703 60.2423ZM61.2416 26.6191C62.7464 28.2953 64.0101 30.1678 65 32.1801V25C65 24.4477 64.5523 24 64 24H58.495C59.4822 24.805 60.3996 25.6813 61.2416 26.6191ZM65 53.8198C64.2281 55.389 63.2898 56.8731 62.2004 58.2454C61.1111 59.6177 59.8707 60.8782 58.4949 62H64C64.5523 62 65 61.5523 65 61V53.8198ZM35.5967 62.1348C40.3572 63.9773 45.6428 63.9773 50.4033 62.1348C51.0842 61.8713 51.7544 61.57 52.411 61.231C52.6961 61.0838 52.9786 60.9294 53.2583 60.7679C55.6388 59.3936 57.6765 57.5821 59.2937 55.4681C61.9891 51.9448 63.5167 47.5812 63.5167 43C63.5167 37.3856 61.2224 32.0978 57.2959 28.2833C56.0961 27.1178 54.744 26.0898 53.2583 25.2321C46.9105 21.5671 39.0895 21.5671 32.7417 25.2321C27.9808 27.9808 24.5909 32.4778 23.1935 37.6468C22.7277 39.3698 22.4833 41.1675 22.4833 43C22.4833 43.4581 22.4986 43.914 22.5288 44.3672C22.8614 49.3589 25.0039 54.011 28.4756 57.4911C29.7313 58.7499 31.1609 59.8553 32.7417 60.7679C33.0881 60.9679 33.4389 61.157 33.7935 61.3352C34.3846 61.6321 34.9864 61.8986 35.5967 62.1348ZM33.8563 17L32.3585 20.913C39.1292 17.6495 47.0364 17.6736 53.7903 20.9853L52.2648 17H33.8563Z" stroke="currentColor" stroke-linecap="round" stroke-linejoin="round" />
</svg>