<svg viewBox="0 0 80 80" fill="none">
  <path fill-rule="evenodd" clip-rule="evenodd" d="M12 15C8.68629 15 6 17.6863 6 21V59C6 60.3074 6.42021 61.5209 7.13146 62.5072C7.71724 63.9377 9.11579 65 10.838 65H61.1811C63.7168 65 65.9787 63.406 66.8316 61.018L73.9744 41.018C75.37 37.1106 72.4732 33 68.324 33H66V29C66 25.6863 63.3137 23 60 23H31.8433L27.9102 17.507C26.7835 15.9335 24.9671 15 23.0318 15H12ZM62 33V29C62 27.8954 61.1046 27 60 27H31.3992C30.3878 27 29.4384 26.5121 28.8496 25.6898L24.6579 19.8357C24.2824 19.3112 23.6769 19 23.0318 19H12C10.8954 19 10 19.8954 10 21V51.4536L14.2203 39.6366C15.6417 35.6567 19.4116 33 23.6378 33H62ZM17.9873 40.982C18.8401 38.594 21.1021 37 23.6378 37H68.324C69.707 37 70.6726 38.3702 70.2075 39.6727L63.0646 59.6727C62.7803 60.4687 62.0263 61 61.1811 61H10.838L17.9873 40.982Z" stroke="currentColor" stroke-linecap="round" stroke-linejoin="round" />
</svg>