<svg viewBox="0 0 80 80" fill="none">
  <path d="M41.6181 15.0416C44.7427 14.4417 47.9556 14.4722 51.0682 15.1314L52.4139 15.4163C53.4945 15.6452 54.185 16.7067 53.9561 17.7873C53.7273 18.8679 52.6658 19.5584 51.5852 19.3295L50.2396 19.0446C47.6483 18.4959 44.9735 18.4705 42.3723 18.9699C37.5947 19.8872 33.3192 22.5245 30.3554 26.3824L30.2283 26.5478C27.4861 30.1174 25.9995 34.4927 25.9995 38.9939V41.5263C25.9995 45.9145 27.4488 50.1799 30.1221 53.6598L30.2981 53.8889C33.2768 57.7662 37.6233 60.3602 42.4499 61.1412C46.3039 61.7647 50.2564 61.1979 53.7798 59.5162L53.9995 59.4114V42.1729H37.9995C36.8949 42.1729 35.9995 41.2775 35.9995 40.1729C35.9995 39.0684 36.8949 38.1729 37.9995 38.1729H55.9995C57.1041 38.1729 57.9995 39.0684 57.9995 40.1729V60.6286C58.008 61.0223 57.8994 61.4096 57.6913 61.7401C57.5409 61.979 57.3386 62.1884 57.0909 62.3491C57.0052 62.4051 56.915 62.4546 56.8209 62.497L55.5027 63.1262C51.2448 65.1583 46.4684 65.8434 41.811 65.0898C35.9782 64.1461 30.7257 61.0113 27.1261 56.3257L26.9501 56.0966C23.7398 51.9178 21.9995 46.7958 21.9995 41.5263V38.9939C21.9995 33.6113 23.7772 28.3794 27.0563 24.111L27.1834 23.9455C30.7435 19.3114 35.8792 16.1435 41.6181 15.0416Z" stroke="currentColor" stroke-linecap="round" stroke-linejoin="round" />
</svg>