<svg viewBox="0 0 80 80" fill="none">
  <path fill-rule="evenodd" clip-rule="evenodd" d="M36.6018 32.7393C35.6658 32.7393 34.8549 33.3885 34.6502 34.3019L33.929 37.5198C33.7992 38.0985 33.933 38.7049 34.2942 39.1752V39.1752C34.6114 39.5884 34.7614 40.2407 34.3985 40.6143L30.9598 44.1548C30.5615 44.5649 30.3577 45.1258 30.3999 45.6959L30.8643 51.9667C30.9417 53.0111 31.8116 53.819 32.8589 53.819H36.7048C38.7323 53.819 40.6841 54.5888 42.1658 55.9729L42.3751 56.1684C42.7455 56.5144 43.2335 56.7069 43.7404 56.7069H48.5025V56.7069C49.5648 56.7069 51.3044 56.4775 51.9463 57.3238L52.451 57.9892C52.8385 58.5002 53.4477 58.7943 54.0888 58.7801C54.73 58.7658 55.3255 58.445 55.69 57.9173L59.0035 53.1208C59.5713 52.2988 59.4455 51.1838 58.7087 50.5091L56.1981 48.21C55.7711 47.8189 55.1956 47.6321 54.6203 47.6979C54.0451 47.7636 53.5265 48.0754 53.1987 48.5527V48.5527C52.3769 49.7494 50.5025 49.1678 50.5025 47.716V46.6538C50.5025 46.1638 50.3227 45.6909 49.997 45.3248L44.8681 39.5573V39.5573C44.8082 39.4899 44.815 39.3837 44.8881 39.331L45.745 38.7134C46.2086 38.3793 46.5072 37.8628 46.5653 37.2943L46.8057 34.9428C46.8633 34.3799 46.6797 33.8189 46.3005 33.399C45.9213 32.979 45.3819 32.7393 44.8161 32.7393H36.6018ZM34.5405 47.4455C34.4863 46.715 34.7475 45.9962 35.2579 45.4707L36.0701 44.6344C36.9805 43.697 38.2129 43.1403 39.5181 43.0766L39.7586 43.0649C41.5016 42.98 43.1893 43.6888 44.3489 44.9928L45.5335 46.3248C46.1577 47.0267 46.5025 47.9334 46.5025 48.8727V51.2917C46.5025 52.0733 45.8689 52.7069 45.0873 52.7069V52.7069C44.7287 52.7069 44.3834 52.5707 44.1213 52.3259L42.0141 50.3575C41.6437 50.0115 41.1557 49.819 40.6488 49.819H37.0962C35.7543 49.819 34.6396 48.7838 34.5405 47.4455V47.4455Z" stroke="currentColor" stroke-linecap="round" stroke-linejoin="round" />
  <path fill-rule="evenodd" clip-rule="evenodd" d="M35.0314 10.7018C35.7151 10.5859 36.4019 10.4941 37.0905 10.4263C37.1532 10.4144 37.2167 10.4055 37.2809 10.3996C38.9961 10.2417 40.7217 10.2332 42.438 10.3741C42.5062 10.3797 42.5737 10.3887 42.6401 10.4011C45.6158 10.6664 48.561 11.3813 51.372 12.5456C58.6534 15.5617 64.4384 21.3467 67.4544 28.628C70.4705 35.9094 70.4705 44.0906 67.4544 51.372C64.4384 58.6533 58.6534 64.4383 51.372 67.4544C44.0907 70.4704 35.9095 70.4704 28.6281 67.4544C21.3468 64.4383 15.5617 58.6533 12.5457 51.372C9.52968 44.0906 9.52968 35.9094 12.5457 28.628C13.5204 26.2749 14.7843 24.0781 16.2944 22.0805C16.3076 22.0618 16.3211 22.0434 16.335 22.0251C19.4939 17.8633 23.7235 14.5703 28.6337 12.5364C30.648 11.7021 32.7314 11.0985 34.8456 10.7257C34.9076 10.7148 34.9696 10.7069 35.0314 10.7018ZM18.9801 28.6308C18.4751 27.8339 17.3122 27.8556 16.8978 28.7032C16.6646 29.1801 16.4456 29.6655 16.2412 30.1588C13.6312 36.46 13.6312 43.54 16.2412 49.8412C18.8513 56.1425 23.8576 61.1488 30.1588 63.7588C36.4601 66.3689 43.5401 66.3689 49.8413 63.7588C56.1425 61.1488 61.1489 56.1425 63.7589 49.8412C66.369 43.54 66.369 36.46 63.7589 30.1588C61.1489 23.8575 56.1425 18.8512 49.8413 16.2412C48.6954 15.7665 47.5237 15.3781 46.3356 15.0761C44.3184 14.5633 42.2456 15.3883 40.8529 16.9351V16.9351C40.3406 17.5042 39.5484 17.7307 38.8126 17.5186L35.4249 16.542C35.3731 16.5271 35.3222 16.5102 35.2722 16.4913C34.9104 16.3547 34.4726 16.3621 34.2065 16.6428V16.6428C33.8245 17.0458 33.2921 17.2718 32.7369 17.2668V17.2668C31.1417 17.2522 29.7807 18.4175 29.5494 19.9958L29.5194 20.2008C29.4374 20.7599 29.1227 21.2582 28.6532 21.5726L28.5961 21.6108C27.0142 22.67 26.1323 24.5047 26.2933 26.4016V26.4016C26.3597 27.1843 25.9635 27.9148 25.3118 28.2965C25.2082 28.3572 25.192 28.5135 25.2811 28.594V28.594L25.8787 29.1344C26.2286 29.4507 26.8222 29.2727 27.1497 28.9334V28.9334L32.2188 23.6828C32.7329 23.1502 33.4992 22.9452 34.2106 23.1499L36.4335 23.7894C37.0375 23.9632 37.5247 24.4109 37.749 24.998C37.9732 25.5852 37.9083 26.2436 37.5738 26.7758V26.7758C37.0622 27.5898 36.8415 28.5533 36.948 29.5089L36.9867 29.856C37.0417 30.3493 36.9112 30.8455 36.6207 31.248L34.4806 34.2132C34.1786 34.6316 33.7432 34.9 33.2728 34.9994C33.0396 35.0487 32.8612 35.4475 33.0379 35.6074V35.6074C33.4431 35.9737 33.6808 36.4898 33.6959 37.0358C33.7109 37.5818 33.502 38.1102 33.1176 38.4983L30.8102 40.8279C30.3134 41.3294 29.589 41.5319 28.9042 41.3607L24.2064 40.1863C23.7108 40.0624 23.2813 39.7535 23.0062 39.3229L18.2875 31.9382C17.9315 31.3811 17.8739 30.684 18.1335 30.0759C18.2879 29.7144 18.5425 29.4122 18.86 29.1996C19.0387 29.0798 19.0952 28.8125 18.9801 28.6308V28.6308V28.6308ZM23.9439 19.9119C24.4858 19.4787 25.0458 19.067 25.6227 18.678C25.6556 18.6558 25.699 18.6832 25.6933 18.7225V18.7225C25.6914 18.7353 25.6842 18.7467 25.6735 18.7538L23.9439 19.9119ZM20.5563 23.6454C20.4532 23.4826 20.4675 23.2713 20.594 23.1259C20.8596 22.8204 21.1324 22.5212 21.412 22.2287C21.5603 22.0736 21.9288 22.2768 21.9469 22.4907V22.4907L22.1388 24.7517C22.155 24.9415 22.0332 25.1157 21.8494 25.1658V25.1658C21.6823 25.2113 21.5051 25.1426 21.4124 24.9963L20.5563 23.6454ZM32.0743 30.1716C31.8951 30.0575 31.8655 29.8078 32.0131 29.6549L32.4071 29.2467C32.5808 29.0668 32.8856 29.1707 32.9133 29.4192V29.4192C32.9214 29.4921 32.9021 29.5654 32.8592 29.6248L32.5272 30.0849C32.423 30.2292 32.2244 30.2672 32.0743 30.1716V30.1716ZM26.9912 36.7594C26.3216 36.592 25.7413 36.1746 25.3697 35.5929L23.2802 32.3229C23.2594 32.2903 23.2779 32.2469 23.3158 32.2394V32.2394C23.3328 32.2361 23.3504 32.241 23.3633 32.2526L28.7801 37.1502C28.7924 37.1613 28.7929 37.1804 28.7812 37.1922V37.1922C28.774 37.1995 28.7635 37.2025 28.7535 37.2L26.9912 36.7594Z" stroke="currentColor" stroke-linecap="round" stroke-linejoin="round" />
</svg>