<svg viewBox="0 0 80 80" fill="none">
  <path fill-rule="evenodd" clip-rule="evenodd" d="M50.8828 6.61364C55.1893 8.73544 58.9967 11.8321 61.9746 15.7129C67.0707 22.3544 69.3198 30.7482 68.2272 39.0479C67.1345 47.3476 62.7895 54.8733 56.1481 59.9695C51.1598 63.7971 45.1829 66.0187 38.9999 66.4245V69.4374H52.9999C54.1044 69.4374 54.9999 70.3328 54.9999 71.4374C54.9999 72.5419 54.1044 73.4373 52.9999 73.4373L20.9999 73.4374C19.8953 73.4374 18.9999 72.5419 18.9999 71.4374C18.9999 70.3328 19.8953 69.4374 20.9999 69.4374L34.9999 69.4374V66.4329C34.2711 66.3882 33.5417 66.318 32.8131 66.2221C27.9634 65.5836 23.378 63.8347 19.3873 61.1661C17.9509 60.2057 17.6807 58.2847 18.637 56.9544L21.2417 53.331C19.9897 52.2548 18.8423 51.0453 17.822 49.7157C13.9192 44.6294 12.1967 38.2011 13.0336 31.8448C13.8704 25.4885 17.1979 19.725 22.2842 15.8222C27.3705 11.9194 33.7988 10.1969 40.1551 11.0337C41.8186 11.2527 43.4415 11.6423 45.001 12.1894L46.8602 8.06979C47.5341 6.57641 49.3328 5.84997 50.8828 6.61364ZM26.469 52.1769C26.7737 52.3618 27.0834 52.5386 27.3976 52.7071C30.533 51.6444 33.5032 50.0691 36.1794 48.0156C36.881 47.4772 37.5562 46.9107 38.2037 46.3183L26.5964 39.6168C26.4073 40.4731 26.2545 41.3403 26.1392 42.2164C25.6985 45.564 25.82 48.9273 26.469 52.1769ZM27.7535 35.6661L41.0464 43.3407C43.4552 40.4499 45.311 37.1355 46.5163 33.5661L33.4829 26.0413C30.9946 28.87 29.0523 32.1344 27.7535 35.6661ZM29.958 24.0062C27.5408 26.886 25.6109 30.141 24.2441 33.6399L17.5198 29.7576C18.5079 26.0854 20.5169 22.7599 23.32 20.1737L29.958 24.0062ZM32.7849 21.0195L26.8269 17.5797C30.6705 15.335 35.173 14.4123 39.633 14.9995C40.1298 15.0649 40.6222 15.1485 41.1095 15.2499C39.1036 16.2407 37.1848 17.4313 35.3838 18.8132C34.4778 19.5084 33.6108 20.245 32.7849 21.0195ZM36.4262 23.1218L47.5727 29.5572C47.6852 28.9713 47.7808 28.3806 47.8591 27.7857C48.3013 24.4267 48.1775 21.0519 47.5226 17.792C47.2325 17.6146 46.9379 17.4445 46.6392 17.282C43.4896 18.3449 40.506 19.9247 37.8189 21.9866C37.3423 22.3523 36.878 22.7309 36.4262 23.1218ZM50.0412 35.6012C48.756 39.1346 46.9022 42.4336 44.5558 45.3669L51.1931 49.1989C53.8832 46.5106 55.7632 43.1107 56.6065 39.3917L50.0412 35.6012ZM57.1057 35.0611L51.2141 31.6596C51.4716 30.5579 51.6759 29.4394 51.8249 28.3078C52.1211 26.058 52.1927 23.8017 52.0481 21.5699C52.3559 21.9182 52.6526 22.2781 52.9374 22.6493C55.6823 26.2265 57.1348 30.5993 57.1057 35.0611ZM47.8551 51.8905L41.8159 48.4038C40.8121 49.3919 39.7436 50.3226 38.6144 51.189C36.8387 52.5516 34.9483 53.7281 32.973 54.7105C33.4114 54.7983 33.8539 54.8717 34.2998 54.9304C39.053 55.5562 43.8544 54.467 47.8551 51.8905ZM16.852 33.9909L22.9841 37.5313C22.6306 38.894 22.3591 40.284 22.1734 41.6943C21.8771 43.9447 21.8055 46.2015 21.9503 48.4338C21.619 48.0626 21.3004 47.678 20.9955 47.2806C18.0707 43.469 16.6132 38.7542 16.852 33.9909ZM33.8446 58.9663C31.2293 58.622 28.7142 57.856 26.3879 56.7193C26.3547 56.705 26.3218 56.6899 26.2893 56.6738C25.6718 56.3687 25.0677 56.0373 24.4788 55.6808L22.511 58.4181C25.7787 60.4243 29.4604 61.7462 33.3352 62.2563C40.5831 63.2105 47.9133 61.2464 53.713 56.7961C59.5128 52.3457 63.3072 45.7737 64.2614 38.5258C65.2156 31.2779 63.2515 23.9478 58.8012 18.148C56.4219 15.0472 53.4362 12.5197 50.0648 10.6929L48.665 13.7947C50.8012 14.9805 52.7564 16.4893 54.4564 18.2783C55.0634 18.9121 55.6383 19.5815 56.1777 20.2844C60.0805 25.3706 61.803 31.799 60.9662 38.1552C60.1294 44.5115 56.8018 50.275 51.7155 54.1778C46.6292 58.0807 40.2009 59.8031 33.8446 58.9663Z" stroke="currentColor" stroke-linecap="round" stroke-linejoin="round" />
</svg>