<svg viewBox="0 0 80 80" fill="none">
  <path fill-rule="evenodd" clip-rule="evenodd" d="M67.4679 39.3879L64.0659 26.9687C64.013 26.7755 63.9368 26.5942 63.8413 26.4272C62.579 22.3996 60.3172 18.711 57.2137 15.7316L56.8514 15.3838C51.916 10.6458 45.3395 8 38.4979 8H37.5021C30.6605 8 24.084 10.6458 19.1486 15.3838L18.7863 15.7316C13.8119 20.507 11 27.1044 11 34C11 40.8956 13.8119 47.493 18.7863 52.2684L19 52.4736V68.25C19 70.4591 20.7909 72.25 23 72.25H45C47.2091 72.25 49 70.4591 49 68.25V62H55.7538C60.3425 62 64.3423 58.877 65.4552 54.4254L68.319 42.9701C68.652 41.6382 68.2778 40.3283 67.4679 39.3879ZM21.9187 18.2694C26.1092 14.2465 31.6931 12 37.5021 12H38.4979C44.3069 12 49.8908 14.2465 54.0813 18.2694L54.4435 18.6171C57.1276 21.1938 59.064 24.4005 60.1089 27.8998C60.1528 28.0469 60.2132 28.1876 60.2885 28.3194L62.9403 38H45.5616C45.0312 38 44.5204 38.1043 44.0516 38.2956C43.6289 37.9628 43.1319 37.7104 42.5778 37.5675L26.723 33.4759C20.9202 31.9784 16.7491 38.9767 20.827 43.3683L35.0235 58.6569C35.869 59.5674 36.9778 59.9689 38.0605 59.9357C38.7346 61.1504 40.0277 62 41.5616 62H45V68.25H23V51.6096C23 51.0469 22.763 50.5102 22.347 50.1313C22.2027 49.9997 22.0599 49.8662 21.9187 49.7306L21.5565 49.3829C17.3678 45.3618 15 39.8064 15 34C15 28.1936 17.3678 22.6382 21.5565 18.6171L21.9187 18.2694ZM45.5616 42H64.4384L61.5746 53.4552C60.9069 56.1262 58.507 58 55.7538 58H41.5616L45.5616 42ZM25.7235 37.349L41.5783 41.4406L37.9547 55.9351L23.7581 40.6465C22.3988 39.1826 23.7892 36.8498 25.7235 37.349Z" stroke="currentColor" stroke-linecap="round" stroke-linejoin="round" />
</svg>