<svg viewBox="0 0 80 80" fill="none">
  <path fill-rule="evenodd" clip-rule="evenodd" d="M15.6863 19.6858C18.6869 16.6852 22.7565 14.9995 27 14.9995C31.2435 14.9995 35.3131 16.6852 38.3137 19.6858L40.3081 21.6802C40.4629 21.7043 40.6164 21.7469 40.7654 21.8086C41.5127 22.1182 42 22.8475 42 23.6564V62.6797C42 63.6796 41.2615 64.5259 40.2707 64.6613C39.0797 64.824 37.8201 64.4473 36.8993 63.5266L29.8283 56.4555L29.8245 56.4517L29.7671 56.394L29.7633 56.3902L15.6863 42.3132C12.6857 39.3126 11 35.243 11 30.9995C11 26.756 12.6857 22.6864 15.6863 19.6858ZM38 25.0289L35.4853 22.5142C33.2348 20.2638 30.1826 18.9995 27 18.9995C23.8174 18.9995 20.7652 20.2638 18.5147 22.5142C16.2643 24.7647 15 27.8169 15 30.9995C15 34.1821 16.2643 37.2344 18.5147 39.4848L32.5993 53.5693L32.6567 53.6271L32.6605 53.6309L38 58.9704V25.0289Z" stroke="currentColor" stroke-linecap="round" stroke-linejoin="round" />
</svg>