<svg viewBox="0 0 80 80" fill="none">
  <path d="M45.1361 17.1526C45.3309 16.6186 45.7449 16.1909 46.2763 15.9797C47.6732 15.4246 49.149 15.066 50.6615 14.9214C51.1657 14.8732 51.6739 14.8488 52.1847 14.8488C52.5183 14.8488 52.8508 14.8592 53.1819 14.8799C56.5351 15.0891 59.7335 16.349 62.3248 18.4722C62.7316 18.8055 63.1233 19.16 63.4984 19.5351C66.3114 22.3481 67.9688 26.1008 68.165 30.0554C68.1781 30.3191 68.1847 30.5836 68.1847 30.8488C68.1847 35.0923 66.499 39.1619 63.4984 42.1625L42.2895 63.3714L42.2852 63.3757C40.7231 64.9378 38.1904 64.9378 36.6283 63.3757L29.5573 56.3046L29.5535 56.3009L29.4961 56.2431L29.4923 56.2393L15.4153 42.1623C12.4147 39.1618 10.729 35.0921 10.729 30.8486C10.729 30.5834 10.7356 30.3189 10.7487 30.0552C10.9449 26.1006 12.6022 22.348 15.4153 19.5349C18.4159 16.5343 22.4855 14.8486 26.729 14.8486C30.2459 14.8486 33.6434 16.0065 36.412 18.1112C36.8075 18.4119 37.1901 18.7319 37.5585 19.0706C38.096 19.5648 38.3155 20.3056 38.1516 21.001C38.1282 21.1003 38.097 21.1987 38.0577 21.2954L34.6262 29.7443L40.2069 31.2396C41.767 31.6577 42.6712 33.2064 42.3767 34.7098C42.3346 34.9246 42.2681 35.1384 42.1755 35.3479L46.4287 30.0824L42.0952 28.9212C40.8635 28.5912 40.1777 27.3362 40.4789 26.163C40.522 25.9954 40.5851 25.8295 40.6698 25.6682L45.1361 17.1526ZM45.1361 17.1526C45.1361 17.1526 45.1361 17.1526 45.1361 17.1526ZM26.729 18.8486C23.9442 18.8486 21.2593 19.8166 19.1239 21.5662C18.8189 21.8162 18.525 22.082 18.2437 22.3634C16.1339 24.4731 14.8909 27.2876 14.7438 30.2536C14.7339 30.4513 14.729 30.6497 14.729 30.8486C14.729 33.6334 15.697 36.3184 17.4466 38.4537C17.6965 38.7588 17.9624 39.0526 18.2437 39.3339L32.3283 53.4185L32.3857 53.4762L32.3895 53.48L39.4569 60.5471L60.67 39.3341C62.9204 37.0837 64.1847 34.0314 64.1847 30.8488C64.1847 28.064 63.2167 25.3791 61.4671 23.2437C61.2172 22.9387 60.9513 22.6448 60.67 22.3635C58.4195 20.1131 55.3673 18.8488 52.1847 18.8488C51.0644 18.8488 49.9604 19.0054 48.9017 19.3066C48.7504 19.3496 48.6001 19.3956 48.4508 19.4445L45.214 25.6158L48.9494 26.6167C51.0457 27.1784 51.8704 29.7113 50.5067 31.3996L36.3907 48.8751C34.6581 51.02 31.295 48.9028 32.48 46.4133L38.0112 34.7924L32.4971 33.3149C30.7545 32.848 29.8152 30.9597 30.4941 29.2882L33.7986 21.1521C31.7583 19.6645 29.2857 18.8486 26.729 18.8486Z" stroke="currentColor" stroke-linecap="round" stroke-linejoin="round" />
</svg>