<svg viewBox="0 0 80 80" fill="none">
  <path fill-rule="evenodd" clip-rule="evenodd" d="M66.8859 20.2064C66.7394 20.1339 66.5827 20.0788 66.4186 20.0439L32.5009 12.0633C32.413 12.0406 32.3228 12.0238 32.2307 12.0132C31.9972 11.9858 31.7663 12.0003 31.5468 12.0516C31.2539 12.1194 30.9858 12.2516 30.7579 12.4324C30.53 12.6127 30.3402 12.8433 30.2072 13.1126C30.107 13.3145 30.04 13.5358 30.0132 13.7694C30.0023 13.8615 29.9981 13.9533 30 14.0441V23.9594C29.9994 23.9877 29.9994 24.0159 30 24.044L30 43.0491C28.026 41.7381 25.5291 41 23 41C17.4218 41 12 44.5908 12 50C12 55.4092 17.4218 59 23 59C28.5782 59 34 55.4092 34 50L34 26.5252L64 33.5841V51.0491C62.026 49.7381 59.5291 49 57 49C51.4218 49 46 52.5908 46 58C46 63.4092 51.4218 67 57 67C62.5782 67 68 63.4092 68 58V32.0407C68.0006 32.0123 68.0006 31.9841 68 31.956V22.0407C68.0036 21.8723 67.9857 21.7066 67.9484 21.5468C67.8807 21.2544 67.7488 20.9866 67.5685 20.759C67.3877 20.5302 67.1563 20.3397 66.8859 20.2064ZM34 16.5252V22.416L64 29.4748V23.5841L34 16.5252ZM30 49.9966C29.9974 47.6746 27.3607 45 23 45C18.6371 45 16 47.6772 16 50C16 52.3228 18.6371 55 23 55C27.3629 55 30 52.3228 30 50V49.9966ZM64 58C64 55.6772 61.3629 53 57 53C52.6371 53 50 55.6772 50 58C50 60.3228 52.6371 63 57 63C61.3629 63 64 60.3228 64 58Z" stroke="currentColor" stroke-linecap="round" stroke-linejoin="round" />
</svg>