<svg viewBox="0 0 80 80" fill="none">
  <path fill-rule="evenodd" clip-rule="evenodd" d="M33.7646 39.3444C33.7292 45.8821 32.6848 52.3894 30.6559 58.6337C29.7092 61.5473 28.5554 64.3813 27.2065 67.115C26.9006 67.7349 26.9365 68.4688 27.3015 69.0559C27.6665 69.643 28.3087 70 29 70H43.6185C44.5019 70 45.2806 69.4204 45.5343 68.5742C46.4085 65.6576 47.0876 62.6813 47.5654 59.6649C48.6845 52.599 48.6845 45.401 47.5654 38.3351C47.463 37.6886 47.3514 37.044 47.2305 36.4014H56.5678C57.0983 36.4014 57.607 36.1907 57.9821 35.8156L60.9692 32.8284L63.9564 35.8156C64.3314 36.1907 64.8401 36.4014 65.3706 36.4014H74.9692C75.572 36.4014 76.1426 36.1295 76.5224 35.6614C76.9021 35.1933 77.0505 34.5789 76.9262 33.989C76.6558 32.7053 76.266 31.4405 75.7569 30.2115C73.5848 24.9675 69.4184 20.8012 64.1745 18.6291C58.9305 16.457 53.0385 16.457 47.7945 18.6291C46.0405 19.3556 44.4071 20.3053 42.9285 21.4437C40.6109 17.0342 36.8146 13.551 32.1747 11.6291C26.9308 9.45697 21.0387 9.45697 15.7947 11.6291C10.5508 13.8012 6.38447 17.9675 4.21235 23.2115C3.70327 24.4405 3.31346 25.7053 3.04298 26.989C2.91871 27.5789 3.06709 28.1933 3.44685 28.6614C3.82661 29.1295 4.39724 29.4014 5.00002 29.4014H14.5987C15.1291 29.4014 15.6378 29.1907 16.0129 28.8156L19 25.8284L19.5839 26.4123C16.5017 28.7012 14.0646 31.798 12.5708 35.4045C10.3986 40.6485 10.3986 46.5405 12.5708 51.7845C13.0798 53.0135 13.6985 54.1835 14.415 55.2825C14.7442 55.7874 15.2836 56.117 15.8831 56.1794C16.4827 56.2419 17.0784 56.0307 17.5046 55.6044L24.2919 48.8172C24.667 48.4421 24.8777 47.9334 24.8777 47.403V43.1785H29.1022C29.6326 43.1785 30.1413 42.9678 30.5164 42.5927L33.7646 39.3444ZM30.644 15.3246C26.3801 13.5585 21.5893 13.5585 17.3255 15.3246C13.0616 17.0908 9.67401 20.4784 7.90787 24.7422C7.81741 24.9606 7.73159 25.1804 7.6504 25.4014H13.7702L17.5858 21.5858C18.3669 20.8047 19.6332 20.8047 20.4142 21.5858L23.1138 24.2853C23.4552 24.1222 23.8018 23.9677 24.1532 23.8221C24.1913 23.8063 24.2295 23.7906 24.2677 23.7751C29.1205 21.7977 34.5184 21.6739 39.4395 23.4037C37.56 19.7716 34.4513 16.9017 30.644 15.3246ZM39.6506 27.8017C39.6239 27.7893 39.5972 27.7771 39.5705 27.7648C39.3829 27.6792 39.1935 27.5968 39.0024 27.5176C34.7386 25.7515 29.9477 25.7515 25.6839 27.5176C25.6417 27.5351 25.5996 27.5527 25.5576 27.5705C24.9273 27.8374 24.3166 28.1398 23.7278 28.4753C20.3881 30.3783 17.7528 33.3464 16.2663 36.9352C14.5001 41.1991 14.5001 45.9899 16.2663 50.2537C16.3567 50.4721 16.4515 50.6882 16.5503 50.9019L20.8777 46.5745V41.1785C20.8777 40.0739 21.7731 39.1785 22.8777 39.1785H28.2737L39.6506 27.8017ZM44.9265 26.989C44.9693 27.1924 44.9798 27.3986 44.9595 27.6008C45.4825 29.1829 45.9476 30.7842 46.3535 32.4014H55.7394L59.555 28.5858C60.336 27.8047 61.6024 27.8047 62.3834 28.5858L66.199 32.4014H72.3188C72.2376 32.1804 72.1518 31.9606 72.0614 31.7422C70.2952 27.4784 66.9076 24.0908 62.6438 22.3246C58.3799 20.5585 53.5891 20.5585 49.3252 22.3246C47.5484 23.0606 45.9237 24.0782 44.5051 25.3235C44.6682 25.8741 44.8087 26.4298 44.9265 26.989ZM34.4601 59.8698C37.0229 51.9822 38.108 43.6998 37.6715 35.4378L41.8918 31.2175C42.6242 33.7568 43.2 36.3428 43.6146 38.9608C44.6681 45.6121 44.6681 52.3878 43.6146 59.0392C43.2425 61.3888 42.7405 63.7125 42.1121 66H32.1336C33.0062 63.9994 33.783 61.9537 34.4601 59.8698Z" stroke="currentColor" stroke-linecap="round" stroke-linejoin="round" />
</svg>