<svg viewBox="0 0 80 80" fill="none">
  <path fill-rule="evenodd" clip-rule="evenodd" d="M18 20C18 16.6863 20.6863 14 24 14H32C35.3137 14 38 16.6863 38 20L38 60.2807C38 63.5944 35.3137 66.2807 32 66.2807H24C20.6863 66.2807 18 63.5944 18 60.2807V20ZM24 18C22.8954 18 22 18.8954 22 20V60.2807C22 61.3853 22.8954 62.2807 24 62.2807H32C33.1046 62.2807 34 61.3853 34 60.2807L34 20C34 18.8954 33.1046 18 32 18H24Z" stroke="currentColor" stroke-linecap="round" stroke-linejoin="round" />
  <path fill-rule="evenodd" clip-rule="evenodd" d="M42 20C42 16.6863 44.6863 14 48 14H56C59.3137 14 62 16.6863 62 20V60.2807C62 63.5944 59.3137 66.2807 56 66.2807H48C44.6863 66.2807 42 63.5944 42 60.2807L42 20ZM48 18C46.8954 18 46 18.8954 46 20L46 60.2807C46 61.3853 46.8954 62.2807 48 62.2807H56C57.1046 62.2807 58 61.3853 58 60.2807V20C58 18.8954 57.1046 18 56 18H48Z" stroke="currentColor" stroke-linecap="round" stroke-linejoin="round" />
</svg>