<svg viewBox="0 0 80 80" fill="none">
  <path fill-rule="evenodd" clip-rule="evenodd" d="M44.1084 78.1125C47.4245 78.1125 50.1128 75.4243 50.1128 72.1081V16.9188C50.1128 14.6481 49.34 12.445 47.9215 10.6718L42.4745 3.86314C41.2637 2.34966 38.9618 2.34966 37.7511 3.86314L32.3041 10.6718C30.8856 12.445 30.1128 14.6481 30.1128 16.9188V72.1169C30.1128 75.4282 32.7971 78.1125 36.1084 78.1125H44.1084ZM46.1128 72.1081C46.1128 73.2151 45.2154 74.1125 44.1084 74.1125H36.1084C35.0063 74.1125 34.1128 73.2191 34.1128 72.1169V62.1125H46.1128V72.1081ZM46.1128 58.1125V16.9188C46.1128 15.5563 45.6491 14.2345 44.798 13.1706L40.1128 7.31409L35.4276 13.1706C34.5765 14.2345 34.1128 15.5563 34.1128 16.9188V58.1125H46.1128Z" stroke="currentColor" stroke-linecap="round" stroke-linejoin="round" />
</svg>