<svg viewBox="0 0 80 80" fill="none">
  <path fill-rule="evenodd" clip-rule="evenodd" d="M43.8564 13.9999C42.1989 13.9999 40.7132 15.0221 40.1207 16.57L38.0422 22H24.5249L24.338 21.1453C23.9363 19.3089 22.3102 18 20.4304 18H17.6042C15.7244 18 14.0983 19.3089 13.6966 21.1453L13.4566 22.2428C11.4505 22.8932 10 24.7772 10 27V61C10 63.7614 12.2386 66 15 66H65C67.7614 66 70 63.7614 70 61V27C70 25.71 69.5115 24.5342 68.7094 23.6473L66.0004 16.57C65.4079 15.0221 63.9222 13.9999 62.2647 13.9999H43.8564ZM66 38V27C66 26.4477 65.5523 26 65 26H15C14.4477 26 14 26.4477 14 27V38H27.2133C28.4201 35.4288 30.3949 33.2361 32.9378 31.768C37.3079 29.2449 42.6921 29.2449 47.0622 31.768C49.6051 33.2361 51.5799 35.4288 52.7867 38H66ZM29.8756 44C29.8756 43.7591 29.8842 43.5194 29.9011 43.2814C30.138 39.9446 32.0139 36.9202 34.9378 35.2321C38.0703 33.4235 41.9297 33.4235 45.0622 35.2321C47.9445 36.8962 49.8085 39.8589 50.0878 43.1394C50.1121 43.424 50.1244 43.7111 50.1244 44C50.1244 44.3878 50.1022 44.7723 50.0588 45.152C49.6969 48.3159 47.8589 51.1533 45.0622 52.768C41.9297 54.5765 38.0703 54.5765 34.9378 52.768C31.9304 51.0316 30.0317 47.8816 29.8848 44.4319C29.8787 44.2884 29.8756 44.1445 29.8756 44ZM47.0622 56.2321C49.6051 54.7639 51.5799 52.5712 52.7867 50H66V61C66 61.5523 65.5523 62 65 62H15C14.4477 62 14 61.5523 14 61V50H27.2133C28.4201 52.5712 30.3949 54.7639 32.9378 56.2321C37.3079 58.7551 42.6921 58.7551 47.0622 56.2321ZM26.0177 46C25.9714 45.6759 25.9362 45.349 25.9124 45.02C25.888 44.6821 25.8756 44.3419 25.8756 44C25.8756 43.6626 25.8877 43.3269 25.9115 42.9934C25.9352 42.6598 25.9707 42.3285 26.0177 42H14V46H26.0177ZM53.9823 42C53.994 42.0821 54.005 42.1644 54.0153 42.2468C54.0875 42.8241 54.1244 43.4095 54.1244 44C54.1244 44.5905 54.0875 45.1758 54.0153 45.7531C54.005 45.8356 53.994 45.9179 53.9823 46H66V42H53.9823ZM43.8564 17.9999L62.2647 17.9999L63.7958 21.9999H42.3253L43.8564 17.9999Z" stroke="currentColor" stroke-linecap="round" stroke-linejoin="round" />
</svg>