<svg viewBox="0 0 80 80" fill="none">
  <path d="M40 26C36.134 26 33 29.134 33 33V33.5082C33 34.6128 32.1046 35.5082 31 35.5082C29.8954 35.5082 29 34.6128 29 33.5082V33C29 26.9249 33.9249 22 40 22H40.7729C46.4212 22 51 26.5788 51 32.2271C51 35.8353 49.0986 39.1765 45.9966 41.0195L44.9452 41.6441C43.1192 42.7289 42 44.6957 42 46.8197V47.2C42 48.3046 41.1046 49.2 40 49.2C38.8954 49.2 38 48.3046 38 47.2V46.8197C38 43.2845 39.8629 40.0109 42.9022 38.2052L43.9535 37.5806C45.8423 36.4584 47 34.424 47 32.2271C47 28.7879 44.2121 26 40.7729 26H40Z" stroke="currentColor" stroke-linecap="round" stroke-linejoin="round" />
  <path d="M42 53.5999C42 52.4953 41.1046 51.5999 40 51.5999C38.8954 51.5999 38 52.4953 38 53.5999V55.1999C38 56.3044 38.8954 57.1999 40 57.1999C41.1046 57.1999 42 56.3044 42 55.1999V53.5999Z" stroke="currentColor" stroke-linecap="round" stroke-linejoin="round" />
  <path fill-rule="evenodd" clip-rule="evenodd" d="M10 40C10 23.4315 23.4315 10 40 10C56.5685 10 70 23.4315 70 40C70 56.5685 56.5685 70 40 70C23.4315 70 10 56.5685 10 40ZM40 14C25.6406 14 14 25.6406 14 40C14 54.3594 25.6406 66 40 66C54.3594 66 66 54.3594 66 40C66 25.6406 54.3594 14 40 14Z" stroke="currentColor" stroke-linecap="round" stroke-linejoin="round" />
</svg>