<svg viewBox="0 0 80 80" fill="none">
  <path fill-rule="evenodd" clip-rule="evenodd" d="M46 24.4998V29.7572C46 33.5501 50.5858 35.4496 53.2678 32.7676L60.6768 25.3586C62.5318 23.5036 62.5318 20.4961 60.6768 18.6411L53.2678 11.232C50.5858 8.55006 46 10.4495 46 14.2425V19.4998H29.5711C24.3805 19.4998 19.4025 21.5618 15.7322 25.232C12.0619 28.9023 10 33.8803 10 39.0709V40.9287C10 43.4847 10.5 45.9893 11.4458 48.3114C11.9667 49.5901 13.4255 50.2044 14.7042 49.6836C15.9829 49.1628 16.5973 47.704 16.0765 46.4252C15.3722 44.6963 15 42.8318 15 40.9287V39.0709C15 35.2064 16.5352 31.5002 19.2678 28.7676C22.0004 26.035 25.7066 24.4998 29.5711 24.4998H46ZM51 16.0354L56.9645 21.9998L51 27.9643V16.0354Z" stroke="currentColor" stroke-linecap="round" stroke-linejoin="round" />
  <path fill-rule="evenodd" clip-rule="evenodd" d="M64.2678 54.7676C60.5975 58.4379 55.6195 60.4998 50.4289 60.4998H34V65.7572C34 69.5501 29.4142 71.4496 26.7322 68.7676L19.3232 61.3586C17.4682 59.5036 17.4682 56.496 19.3232 54.6411L26.7322 47.232C29.4142 44.5501 34 46.4496 34 50.2425V55.4998H50.4289C54.2934 55.4998 57.9996 53.9647 60.7322 51.232C63.4648 48.4994 65 44.7932 65 40.9287V39.0709C65 37.1679 64.6278 35.3034 63.9235 33.5744C63.4027 32.2957 64.0171 30.8369 65.2958 30.316C66.5745 29.7952 68.0333 30.4096 68.5542 31.6883C69.5 34.0103 70 36.5149 70 39.0709V40.9287C70 46.1193 67.9381 51.0973 64.2678 54.7676ZM29 52.0354L23.0355 57.9998L29 63.9643V52.0354Z" stroke="currentColor" stroke-linecap="round" stroke-linejoin="round" />
</svg>