<svg viewBox="0 0 80 80" fill="none">
  <path fill-rule="evenodd" clip-rule="evenodd" d="M6.5962 35.0703H12.555C12.9045 33.0858 13.4709 31.1302 14.2541 29.2393C17.0826 22.4108 22.5079 16.9855 29.3365 14.157C36.1651 11.3285 43.8376 11.3285 50.6662 14.157C57.4948 16.9855 62.9201 22.4108 65.7486 29.2393C68.5771 36.0679 68.5771 43.7405 65.7486 50.5691C62.9201 57.3977 57.4948 62.823 50.6662 65.6515C43.8376 68.48 36.1651 68.48 29.3365 65.6515L28.1669 65.167C25.0701 63.8843 22.2974 62.0016 19.9894 59.6597C19.2141 58.8729 19.2234 57.6066 20.0101 56.8313C20.7968 56.056 22.0631 56.0652 22.8384 56.852C24.7745 58.8165 27.1001 60.3956 29.6977 61.4715L30.8672 61.9559C36.7157 64.3785 43.287 64.3785 49.1355 61.9559C54.984 59.5334 59.6306 54.8868 62.0531 49.0383C64.4756 43.1899 64.4756 36.6186 62.0531 30.7701C59.6306 24.9216 54.984 20.275 49.1355 17.8525C43.287 15.43 36.7157 15.43 30.8672 17.8525C25.0187 20.275 20.3721 24.9216 17.9496 30.7701C17.3702 32.1688 16.9294 33.6088 16.6272 35.0703H23.4038C26.8817 35.0703 28.6235 39.2753 26.1642 41.7345L18.5355 49.3632C16.5829 51.3158 13.4171 51.3158 11.4645 49.3632L3.83579 41.7345C1.37654 39.2753 3.11828 35.0703 6.5962 35.0703ZM14.3106 39.0703C14.2974 39.0705 14.2843 39.0705 14.2711 39.0703H6.82844L14.2929 46.5348C14.6834 46.9253 15.3166 46.9253 15.7071 46.5348L23.1716 39.0703H14.3106Z" stroke="currentColor" stroke-linecap="round" stroke-linejoin="round" />
  <path fill-rule="evenodd" clip-rule="evenodd" d="M35.1312 27.8575C32.4657 26.4036 29.2158 28.3329 29.2158 31.3691L29.2158 48.6309C29.2158 51.6672 32.4657 53.5964 35.1312 52.1425L50.9546 43.5116C53.734 41.9955 53.734 38.0045 50.9546 36.4884L35.1312 27.8575ZM33.2158 31.3691L49.0392 40L33.2158 48.6309L33.2158 31.3691Z" stroke="currentColor" stroke-linecap="round" stroke-linejoin="round" />
</svg>