<svg viewBox="0 0 80 80" fill="none">
  <path fill-rule="evenodd" clip-rule="evenodd" d="M25.8284 43.4477C23.3086 40.9278 19 42.7125 19 46.2761V57.4477C19 59.6568 20.7909 61.4477 23 61.4477H34.1716C37.7352 61.4477 39.5199 57.1391 37 54.6192L25.8284 43.4477ZM23 46.2761L34.1716 57.4477L23 57.4477V46.2761Z" stroke="currentColor" stroke-linecap="round" stroke-linejoin="round" />
  <path fill-rule="evenodd" clip-rule="evenodd" d="M12.8284 10.4477C10.3086 7.9278 6 9.71246 6 13.2761V70.4477C6 72.6568 7.79086 74.4477 10 74.4477H67.1716C70.7352 74.4477 72.5199 70.1391 70 67.6192L12.8284 10.4477ZM57.1615 60.4375L67.1716 70.4477L10 70.4477V13.2761L19.2566 22.5327L17.0041 24.7852C16.223 25.5662 16.223 26.8326 17.0041 27.6136C17.7851 28.3947 19.0515 28.3947 19.8325 27.6136L22.085 25.3611L28.0257 31.3018L25.1273 34.2002C24.3462 34.9813 24.3462 36.2476 25.1273 37.0287C25.9083 37.8097 27.1746 37.8097 27.9557 37.0287L30.8541 34.1302L36.7948 40.0709L34.5423 42.3234C33.7613 43.1045 33.7613 44.3708 34.5423 45.1518C35.3234 45.9329 36.5897 45.9329 37.3707 45.1518L39.6232 42.8993L45.5639 48.84L42.6655 51.7384C41.8844 52.5195 41.8844 53.7858 42.6655 54.5669C43.4465 55.3479 44.7129 55.3479 45.4939 54.5669L48.3923 51.6684L54.333 57.6091L52.0805 59.8616C51.2995 60.6427 51.2995 61.909 52.0805 62.6901C52.8616 63.4711 54.1279 63.4711 54.909 62.6901L57.1615 60.4375Z" stroke="currentColor" stroke-linecap="round" stroke-linejoin="round" />
</svg>