<svg viewBox="0 0 80 80" fill="none">
  <path fill-rule="evenodd" clip-rule="evenodd" d="M39.0876 11.4849C39.6604 11.1912 40.3396 11.1912 40.9124 11.4849C46.822 14.5146 53.4058 16.1255 60.1358 16.1255C61.0445 16.1255 61.9505 16.0961 62.8525 16.0379C63.839 15.9741 64.7241 16.6408 64.9352 17.6065C66.2101 23.4375 66.3511 29.5051 65.299 35.472C63.4155 46.1538 57.8287 55.8305 49.5197 62.8025C46.8557 65.0379 43.9663 66.9495 40.9125 68.5151C40.3397 68.8088 39.6605 68.8088 39.0877 68.5151C36.0339 66.9495 33.1446 65.0379 30.4805 62.8025C22.1715 55.8305 16.5847 46.1538 14.7012 35.472C13.6491 29.5051 13.7902 23.4376 15.065 17.6065C15.2761 16.6408 16.1612 15.9742 17.1477 16.0379C18.0497 16.0961 18.9556 16.1255 19.8643 16.1255C26.5942 16.1255 33.178 14.5146 39.0876 11.4849ZM40 15.4995C33.7675 18.5227 26.8886 20.1255 19.8643 20.1255C19.4579 20.1255 19.0519 20.1201 18.6466 20.1094C17.7934 24.9245 17.7783 29.8879 18.6405 34.7774C20.3607 44.5331 25.4631 53.3708 33.0517 59.7383C35.2179 61.556 37.5471 63.1392 40.0001 64.4736C42.4532 63.1392 44.7823 61.556 46.9486 59.7383C54.5371 53.3708 59.6396 44.5331 61.3598 34.7774C62.2219 29.8879 62.2068 24.9246 61.3537 20.1094C60.9482 20.1201 60.5422 20.1255 60.1358 20.1255C53.1114 20.1255 46.2325 18.5227 40 15.4995Z" stroke="currentColor" stroke-linecap="round" stroke-linejoin="round" />
</svg>