<svg viewBox="0 0 80 80" fill="none">
  <path fill-rule="evenodd" clip-rule="evenodd" d="M38.5918 15.7138C39.4121 15.374 40.3338 15.374 41.1541 15.7138C41.9744 16.0536 42.6261 16.7053 42.9659 17.5256C43.3056 18.3459 43.3056 19.2676 42.9659 20.0879C42.6261 20.9082 41.9744 21.5599 41.1541 21.8997C40.3338 22.2394 39.4121 22.2394 38.5918 21.8997C37.7715 21.5599 37.1198 20.9082 36.78 20.0879C36.4402 19.2676 36.4402 18.3459 36.78 17.5256C37.1198 16.7053 37.7715 16.0536 38.5918 15.7138ZM40.006 18.4855C39.9208 18.4502 39.8251 18.4502 39.7399 18.4855C39.6546 18.5208 39.5869 18.5885 39.5517 18.6737C39.5164 18.7589 39.5164 18.8546 39.5517 18.9398C39.5869 19.025 39.6546 19.0927 39.7399 19.128C39.8251 19.1633 39.9208 19.1633 40.006 19.128C40.0912 19.0927 40.1589 19.025 40.1942 18.9398C40.2295 18.8546 40.2295 18.7589 40.1942 18.6737C40.1589 18.5885 40.0912 18.5208 40.006 18.4855Z" stroke="currentColor" stroke-linecap="round" stroke-linejoin="round" />
  <path d="M44.1233 19.0294C44.3316 18.2276 45.1505 17.7464 45.9523 17.9547C47.0049 18.2282 48.0431 18.5754 49.0593 18.9963C54.8599 21.399 59.4684 26.0075 61.8711 31.8081C64.2738 37.6087 64.2738 44.1262 61.8711 49.9267C59.4684 55.7273 54.8599 60.3358 49.0593 62.7385C43.2587 65.1412 36.7413 65.1412 30.9407 62.7385C25.1401 60.3358 20.5316 55.7273 18.1289 49.9267C15.7262 44.1262 15.7262 37.6087 18.1289 31.8081L18.3947 31.1665C18.7943 30.2016 19.2597 29.2722 19.7854 28.3837C20.2072 27.6707 21.1272 27.4346 21.8402 27.8564C22.5532 28.2783 22.7892 29.1982 22.3674 29.9112C21.9134 30.6785 21.5115 31.4811 21.1663 32.3145L20.9005 32.9562C18.8024 38.0217 18.8024 43.7132 20.9006 48.7787C22.9987 53.8442 27.0233 57.8687 32.0888 59.9669C37.1542 62.0651 42.8458 62.0651 47.9113 59.9669C52.9768 57.8687 57.0013 53.8442 59.0995 48.7787C61.1977 43.7132 61.1977 38.0217 59.0995 32.9562C57.0013 27.8907 52.9768 23.8662 47.9113 21.768C47.0237 21.4003 46.117 21.0971 45.1979 20.8584C44.3961 20.6501 43.915 19.8312 44.1233 19.0294Z" stroke="currentColor" stroke-linecap="round" stroke-linejoin="round" />
  <path fill-rule="evenodd" clip-rule="evenodd" d="M23.9977 22.7973C23.4022 22.2933 22.5198 22.33 21.9681 22.8817C21.4165 23.4333 21.3798 24.3157 21.8837 24.9112L36.8612 42.6119C37.5133 43.3826 38.4717 43.8271 39.4813 43.8271C41.3769 43.8271 42.9136 42.2904 42.9136 40.3949C42.9136 39.3853 42.4691 38.4269 41.6984 37.7747L23.9977 22.7973ZM39.1513 40.6741L35.8008 36.7144L39.7605 40.0649C39.8576 40.147 39.9136 40.2677 39.9136 40.3949C39.9136 40.6336 39.72 40.8271 39.4813 40.8271C39.3542 40.8271 39.2335 40.7711 39.1513 40.6741Z" stroke="currentColor" stroke-linecap="round" stroke-linejoin="round" />
</svg>