<svg viewBox="0 0 80 80" fill="none">
  <path d="M30.7504 27.2985C30.0873 27.6919 29.9014 28.5494 30.2867 29.2172L30.3558 29.337C30.76 30.0375 31.676 30.2313 32.3745 29.8237C33.0685 29.4187 33.3607 28.5301 32.9588 27.8343L32.8896 27.7146C32.5013 27.0425 31.658 26.776 30.9846 27.162C30.9062 27.2069 30.8281 27.2524 30.7504 27.2985Z" stroke="currentColor" stroke-linecap="round" stroke-linejoin="round" />
  <path d="M24.2708 33.8757C23.8848 34.5491 24.1512 35.3925 24.8233 35.7807L24.9431 35.8499C25.6388 36.2518 26.5275 35.9597 26.9324 35.2657C27.34 34.5672 27.1462 33.6512 26.4458 33.247L26.326 33.1779C25.6582 32.7925 24.8006 32.9784 24.4073 33.6415C24.3612 33.7192 24.3157 33.7973 24.2708 33.8757Z" stroke="currentColor" stroke-linecap="round" stroke-linejoin="round" />
  <path d="M21.8704 42.812C21.867 43.5928 22.5217 44.1964 23.3025 44.1966L23.4407 44.1966C24.2397 44.1968 24.8618 43.5119 24.8712 42.7129C24.8808 41.8998 24.2537 41.1909 23.4404 41.1911L23.3022 41.1911C22.5357 41.1913 21.8884 41.7748 21.8736 42.5412C21.8718 42.6315 21.8708 42.7218 21.8704 42.812Z" stroke="currentColor" stroke-linecap="round" stroke-linejoin="round" />
  <path d="M24.2207 51.8193C24.6065 52.5011 25.4783 52.6989 26.1568 52.3074L26.2766 52.2383C26.9664 51.8403 27.1666 50.9445 26.7794 50.2486C26.3827 49.5357 25.4801 49.2276 24.7736 49.6357L24.6539 49.7049C23.9924 50.087 23.7229 50.9121 24.0891 51.5825C24.1324 51.6618 24.1763 51.7408 24.2207 51.8193Z" stroke="currentColor" stroke-linecap="round" stroke-linejoin="round" />
  <path d="M30.7988 58.5129C31.4737 58.9104 32.3277 58.6458 32.7195 57.9676L32.7887 57.8477C33.1871 57.1582 32.9039 56.2777 32.2209 55.8683C31.5212 55.4488 30.5935 55.6388 30.1858 56.3454L30.1167 56.4652C29.7349 57.1269 29.914 57.9762 30.5664 58.3737C30.6435 58.4206 30.7209 58.467 30.7988 58.5129Z" stroke="currentColor" stroke-linecap="round" stroke-linejoin="round" />
  <path d="M39.9208 61.0211C40.7015 61.0245 41.3051 60.3697 41.3053 59.589L41.3053 59.4506C41.3055 58.6517 40.6206 58.0296 39.8217 58.0202C39.0086 58.0106 38.2998 58.6377 38.3 59.4509L38.3001 59.5892C38.3003 60.3557 38.8838 61.0031 39.6502 61.0179C39.7404 61.0196 39.8306 61.0207 39.9208 61.0211Z" stroke="currentColor" stroke-linecap="round" stroke-linejoin="round" />
  <path d="M49.1143 58.5638C49.7852 58.1736 49.9762 57.31 49.5882 56.6377L49.5191 56.5178C49.1175 55.8219 48.2101 55.6254 47.5127 56.0243C46.8108 56.4258 46.5119 57.3203 46.9164 58.0205L46.9857 58.1404C47.3713 58.808 48.207 59.0758 48.8792 58.6982C48.9579 58.654 49.0363 58.6092 49.1143 58.5638Z" stroke="currentColor" stroke-linecap="round" stroke-linejoin="round" />
  <path fill-rule="evenodd" clip-rule="evenodd" d="M55.8069 51.7703C56.1845 51.0981 55.9167 50.2625 55.2491 49.8768L55.1293 49.8076C55.0387 49.7553 54.9449 49.7147 54.8494 49.6853C54.7829 49.63 54.7108 49.5797 54.6331 49.5353L44.4282 43.7008C44.4759 43.4383 44.5007 43.1679 44.5007 42.8917C44.5007 41.9867 44.2336 41.1441 43.7739 40.4384L48.0749 34.8283C48.5789 34.1708 48.4545 33.2292 47.7971 32.7252C47.1396 32.2212 46.1981 32.3455 45.694 33.003L41.3942 38.6116C40.9555 38.4688 40.4871 38.3917 40.0007 38.3917C37.5155 38.3917 35.5007 40.4064 35.5007 42.8917C35.5007 45.377 37.5155 47.3917 40.0007 47.3917C41.1221 47.3917 42.1476 46.9815 42.9356 46.3031L53.1441 52.1397C53.2325 52.1903 53.3239 52.2308 53.4169 52.2617C53.4808 52.3166 53.5507 52.3664 53.6266 52.4102L53.7465 52.4794C54.4188 52.8673 55.2824 52.6764 55.6726 52.0054C55.7179 51.9274 55.7627 51.849 55.8069 51.7703ZM40.0007 41.3917C39.1723 41.3917 38.5007 42.0632 38.5007 42.8917C38.5007 43.7201 39.1723 44.3917 40.0007 44.3917C40.8292 44.3917 41.5007 43.7201 41.5007 42.8917C41.5007 42.0632 40.8292 41.3917 40.0007 41.3917Z" stroke="currentColor" stroke-linecap="round" stroke-linejoin="round" />
  <path d="M58.1265 42.5413C58.1117 41.7749 57.4643 41.1914 56.6978 41.1912L56.5595 41.1912C55.7463 41.191 55.1192 41.8998 55.1288 42.7129C55.1382 43.5118 55.7603 44.1967 56.5592 44.1965L56.6976 44.1965C57.4783 44.1963 58.1331 43.5927 58.1297 42.8119C58.1293 42.7217 58.1282 42.6315 58.1265 42.5413Z" stroke="currentColor" stroke-linecap="round" stroke-linejoin="round" />
  <path d="M55.4822 33.4577C55.0848 32.8054 54.2354 32.6262 53.5738 33.008L53.4539 33.0771C52.7473 33.4849 52.5574 34.4125 52.9769 35.1122C53.3863 35.7952 54.2668 36.0784 54.9563 35.6801L55.0761 35.6108C55.7544 35.219 56.019 34.365 55.6215 33.6901C55.5756 33.6123 55.5292 33.5348 55.4822 33.4577Z" stroke="currentColor" stroke-linecap="round" stroke-linejoin="round" />
  <path d="M48.6912 26.9805C48.0208 26.6143 47.1957 26.8838 46.8135 27.5453L46.7443 27.6651C46.3363 28.3715 46.6444 29.2741 47.3573 29.6708C48.0532 30.058 48.949 29.8578 49.347 29.1681L49.4161 29.0482C49.8076 28.3697 49.6098 27.4979 48.928 27.1122C48.8494 27.0677 48.7705 27.0238 48.6912 26.9805Z" stroke="currentColor" stroke-linecap="round" stroke-linejoin="round" />
  <path d="M39.9209 24.7618C40.7016 24.7583 41.3052 25.4131 41.3054 26.1939L41.3054 26.3321C41.3056 27.1311 40.6207 27.7532 39.8217 27.7626C39.0086 27.7722 38.2997 27.1451 38.2999 26.3318L38.3 26.1936C38.3002 25.4271 38.8837 24.7798 39.65 24.765C39.7403 24.7632 39.8306 24.7621 39.9209 24.7618Z" stroke="currentColor" stroke-linecap="round" stroke-linejoin="round" />
  <path fill-rule="evenodd" clip-rule="evenodd" d="M35 13.4351C34.1715 13.4351 33.5 14.1066 33.5 14.9351C33.5 15.7635 34.1715 16.4351 35 16.4351H38.4999V19.266C35.9247 19.4294 33.3698 20.0143 30.9407 21.0204C28.5019 22.0306 26.2738 23.4308 24.3318 25.1455L22.3226 23.1363L24.0903 21.3685C24.6761 20.7827 24.6761 19.833 24.0903 19.2472C23.5045 18.6614 22.5548 18.6614 21.969 19.2472L19.1487 22.0675L19.1406 22.0756L19.1325 22.0837L16.3121 24.9041C15.7264 25.4898 15.7264 26.4396 16.3121 27.0254C16.8979 27.6112 17.8477 27.6112 18.4335 27.0254L20.2013 25.2576L22.2132 27.2695C20.5171 29.2007 19.1311 31.4128 18.1289 33.8322C15.7263 39.6328 15.7263 46.1503 18.1289 51.9508C20.5316 57.7514 25.1401 62.36 30.9407 64.7626C36.7413 67.1653 43.2588 67.1653 49.0593 64.7626C54.8599 62.36 59.4684 57.7514 61.8711 51.9508C64.2738 46.1503 64.2738 39.6328 61.8711 33.8322C60.869 31.4128 59.483 29.2007 57.7869 27.2696L59.7986 25.2579L61.5667 27.026C62.1525 27.6118 63.1022 27.6118 63.688 27.026C64.2738 26.4402 64.2738 25.4905 63.688 24.9047L60.8862 22.1028C60.8822 22.0986 60.8781 22.0944 60.874 22.0902C60.8693 22.0853 60.8644 22.0804 60.8596 22.0756C60.8506 22.0666 60.8415 22.0577 60.8323 22.049L58.0312 19.2478C57.4454 18.662 56.4956 18.662 55.9099 19.2478C55.3241 19.8336 55.3241 20.7834 55.9099 21.3691L57.6773 23.1366L55.6683 25.1455C53.7263 23.4308 51.4982 22.0306 49.0593 21.0204C46.6302 20.0142 44.0753 19.4294 41.4999 19.266V16.4351H44.9999C45.8284 16.4351 46.4999 15.7635 46.4999 14.9351C46.4999 14.1066 45.8284 13.4351 44.9999 13.4351H35ZM54.6364 28.2918C52.7311 26.3817 50.4522 24.8445 47.9113 23.7921C45.3781 22.7428 42.6883 22.2182 39.9985 22.2184C37.3098 22.2186 34.621 22.7432 32.0888 23.7921C27.0233 25.8903 22.9988 29.9148 20.9006 34.9803C18.8024 40.0458 18.8024 45.7373 20.9006 50.8028C22.9988 55.8683 27.0233 59.8928 32.0888 61.991C37.1543 64.0892 42.8458 64.0892 47.9113 61.991C52.9768 59.8928 57.0013 55.8683 59.0995 50.8028C61.1977 45.7373 61.1977 40.0458 59.0995 34.9803C58.0551 32.4588 56.5334 30.1953 54.6436 28.2989L54.6399 28.2953L54.6364 28.2918Z" stroke="currentColor" stroke-linecap="round" stroke-linejoin="round" />
</svg>