<svg viewBox="0 0 80 80" fill="none">
  <path fill-rule="evenodd" clip-rule="evenodd" d="M46.9275 33.4331C47.4316 32.7757 47.3072 31.8341 46.6498 31.3301C45.9923 30.826 45.0507 30.9504 44.5467 31.6078L41.0686 36.1446C40.7286 36.0507 40.3705 36.0005 40.0007 36.0005C37.7915 36.0005 36.0007 37.7913 36.0007 40.0005C36.0007 42.2096 37.7915 44.0005 40.0007 44.0005C40.9335 44.0005 41.7917 43.6812 42.472 43.1459L50.8294 47.9242C51.5486 48.3354 52.4649 48.0857 52.8761 47.3665C53.2873 46.6474 53.0376 45.731 52.3184 45.3198L43.9641 40.5433C43.9882 40.3658 44.0007 40.1846 44.0007 40.0005C44.0007 39.2598 43.7994 38.5661 43.4484 37.9712L46.9275 33.4331ZM39.0007 40.0005C39.0007 39.4482 39.4484 39.0005 40.0007 39.0005C40.553 39.0005 41.0007 39.4482 41.0007 40.0005C41.0007 40.5528 40.553 41.0005 40.0007 41.0005C39.4484 41.0005 39.0007 40.5528 39.0007 40.0005Z" stroke="currentColor" stroke-linecap="round" stroke-linejoin="round" />
  <path fill-rule="evenodd" clip-rule="evenodd" d="M26.5 16V22.8507C23.5873 25.1437 21.2798 28.1624 19.836 31.6478C17.6209 36.9956 17.6209 43.0044 19.836 48.3522C21.2798 51.8376 23.5873 54.8563 26.5 57.1493V64C26.5 67.0376 28.9625 69.5 32 69.5H48C51.0376 69.5 53.5 67.0376 53.5 64V57.1493C56.4127 54.8563 58.7203 51.8376 60.164 48.3522C62.3792 43.0044 62.3792 36.9956 60.164 31.6478C58.7203 28.1624 56.4127 25.1437 53.5 22.8507V16C53.5 12.9624 51.0376 10.5 48 10.5H32C28.9625 10.5 26.5 12.9624 26.5 16ZM32 13.5C30.6193 13.5 29.5 14.6193 29.5 16V20.8663C30.1934 20.4858 30.9102 20.1415 31.6478 19.836C36.3272 17.8978 41.5125 17.6555 46.3184 19.1092C47.005 19.3168 47.6838 19.5591 48.3522 19.836C49.0899 20.1415 49.8066 20.4858 50.5 20.8663V16C50.5 14.6193 49.3807 13.5 48 13.5H32ZM22.6077 32.7959C23.9393 29.5811 26.1229 26.8267 28.8857 24.8057C30.087 23.9269 31.3978 23.1867 32.7959 22.6076C37.4086 20.697 42.5914 20.697 47.2042 22.6076C47.2916 22.6438 47.3786 22.6807 47.4653 22.7181C48.7657 23.2798 49.9882 23.9818 51.1144 24.8057C53.8772 26.8267 56.0608 29.5811 57.3924 32.7959C59.303 37.4086 59.303 42.5914 57.3924 47.2041C56.0608 50.4189 53.8771 53.1733 51.1144 55.1943C49.9131 56.0731 48.6022 56.8133 47.2042 57.3924C46.6276 57.6312 46.0421 57.8402 45.4499 58.0193C41.3046 59.2732 36.832 59.0642 32.7959 57.3924C31.3978 56.8133 30.087 56.0731 28.8857 55.1943C26.1229 53.1733 23.9393 50.4189 22.6077 47.2041C20.697 42.5914 20.697 37.4086 22.6077 32.7959ZM29.5 64V59.1337C30.1934 59.5142 30.9102 59.8585 31.6478 60.164C36.9957 62.3791 43.0044 62.3791 48.3522 60.164C49.0899 59.8585 49.8066 59.5142 50.5 59.1337V64C50.5 65.3807 49.3807 66.5 48 66.5H32C30.6193 66.5 29.5 65.3807 29.5 64Z" stroke="currentColor" stroke-linecap="round" stroke-linejoin="round" />
</svg>