<svg viewBox="0 0 80 80" fill="none">
  <path fill-rule="evenodd" clip-rule="evenodd" d="M30 26.5226V16C30 12.6863 32.6863 10 36 10H44C47.3137 10 50 12.6863 50 16V26.5226C52.4193 28.3179 54.3323 30.7477 55.5046 33.5778C57.2079 37.6899 57.2079 42.3101 55.5046 46.4222C54.3323 49.2523 52.4193 51.6821 50 53.4774V64C50 67.3137 47.3137 70 44 70H36C32.6863 70 30 67.3137 30 64V53.4774C27.5806 51.6821 25.6676 49.2523 24.4954 46.4222C22.7921 42.3101 22.7921 37.6899 24.4954 33.5778C25.6676 30.7477 27.5806 28.3179 30 26.5226ZM34 16C34 14.8954 34.8954 14 36 14H44C45.1045 14 46 14.8954 46 16V24.3272C42.137 22.8482 37.8629 22.8482 34 24.3272V16ZM33.0824 29.2515C30.9086 30.6505 29.1938 32.6872 28.1909 35.1085C26.8936 38.2405 26.8936 41.7595 28.1909 44.8915C29.1938 47.3128 30.9086 49.3495 33.0824 50.7485C33.6804 51.1334 34.3132 51.47 34.9756 51.7532C35.0198 51.7721 35.0641 51.7907 35.1085 51.8091C38.2404 53.1064 41.7595 53.1064 44.8915 51.8091C45.6022 51.5147 46.2797 51.159 46.9176 50.7485C49.0913 49.3495 50.8061 47.3128 51.8091 44.8915C53.1064 41.7595 53.1064 38.2405 51.8091 35.1085C50.8061 32.6872 49.0913 30.6505 46.9176 29.2515C46.2797 28.841 45.6022 28.4853 44.8915 28.1909C41.7595 26.8936 38.2404 26.8936 35.1085 28.1909C34.3977 28.4853 33.7203 28.841 33.0824 29.2515ZM34 55.6729V64C34 65.1046 34.8954 66 36 66H44C45.1045 66 46 65.1046 46 64V55.6729C42.137 57.1518 37.8629 57.1518 34 55.6729Z" stroke="currentColor" stroke-linecap="round" stroke-linejoin="round" />
</svg>