<svg width="80" height="80" viewBox="0 0 80 80" fill="none" xmlns="http://www.w3.org/2000/svg">
  <path d="M29.1786 10.1012L56.2065 72.4977H75.0001L47.668 9.39106C47.2923 8.48722 46.4676 7.5 44.7485 7.5H26.0946C23.9884 7.5 23.2618 8.72738 23.0218 9.35921M29.1786 10.1012C28.713 9.03891 27.9666 7.6682 26.0347 7.6682C24.3084 7.6682 23.486 8.48304 23.0218 9.35921M29.1786 10.1012L35.3597 24.3709L21.7055 55.8733H9.95576M23.0218 9.35921L5.89862 49.2225C5.37717 50.4922 5.00024 51.2501 5.00024 52.2578M5.00024 52.2578C5.00024 54.0633 6.40689 55.8733 9.95576 55.8733M5.00024 52.2578C5.00024 53.0643 5.0097 53.4374 5.60512 54.5571L14.2484 70.1818C15.1947 71.8024 16.1802 72.5002 18.0771 72.5002C21.0198 72.5002 25.2139 70.1765 26.3166 69.5404L48.9403 55.8734L9.95576 55.8733" stroke="currentColor" stroke-linecap="round" stroke-linejoin="round" />
</svg>