<svg viewBox="0 0 80 80" fill="none">
  <path d="M47.3623 50.637H32.7279L28.8366 29.341M47.3623 50.637L50.8947 29.341M47.3623 50.637L32.7837 50.6364M50.8947 29.341H28.8366M50.8947 29.341H71.9432L65.4615 70.5549C65.2838 71.6876 64.3297 72.5152 63.2186 72.5004L17.5326 72.4998M28.8366 29.341L32.7837 50.6364M17.5326 72.4998C16.0523 72.4871 14.7945 71.3787 14.5497 69.8711L5.02894 10.1868C4.92287 9.51137 5.11145 8.82207 5.5441 8.30381C5.97675 7.78554 6.60919 7.49137 7.27175 7.50019L72.7282 7.51177C73.3908 7.50295 74.0232 7.79712 74.4559 8.31539C74.8885 8.83365 75.0771 9.52295 74.9711 10.1984L65.4503 70.5543C65.2726 71.687 64.3186 72.5146 63.2075 72.4998H17.5326ZM17.5326 72.4998C16.8114 72.4936 16.1157 72.2233 15.5701 71.7361L32.7837 50.6364" stroke="currentColor" stroke-linecap="round" stroke-linejoin="round" />
</svg>