<svg viewBox="0 0 80 80" fill="none">
  <path d="M63.7448 14.1679C63.2336 13.6232 62.6936 13.1056 62.1273 12.6173C63.1115 13.3979 64.0401 14.2448 64.9066 15.152C65.9979 16.2339 67.0154 17.3863 67.9528 18.6014C71.1412 22.7955 73.3272 27.6511 74.3462 32.8027C75.3652 37.9544 75.1907 43.2678 73.8356 48.343C72.4808 53.4181 69.9806 58.1229 66.5236 62.1027C63.0667 66.0828 58.7429 69.2343 53.8779 71.3201C49.0129 73.406 43.7333 74.3718 38.4368 74.1448C33.1402 73.9179 27.9646 72.504 23.2998 70.0098C18.635 67.5155 14.6023 64.006 11.5055 59.7451C8.4087 55.4843 6.32843 50.5834 5.42131 45.4113C5.36182 44.966 5.31458 44.5181 5.26209 44.0694C4.53824 38.1471 5.31948 32.1395 7.5349 26.5917C9.05712 22.9553 12.1418 19.0294 14.5642 17.788C12.6279 21.4448 11.3942 25.4257 10.9258 29.5285C12.3956 24.4725 15.4945 20.0311 19.7502 16.881C26.986 11.6099 36.7081 11.382 40.5879 14.7379C33.3959 17.1799 25.5531 27.0423 27.2825 38.6069C27.5676 40.5119 28.1468 42.3621 28.9999 44.0928C27.6648 40.5835 27.5424 35.6372 29.7059 32.4321C32.1168 28.8632 35.5794 28.0939 37.4228 28.4864C30.5886 34.2503 33.8997 47.5908 47.0355 48.3704C47.3557 48.3938 47.6741 48.3938 47.9898 48.3938C51.5999 48.5439 55.1861 47.7507 58.3886 46.094C61.591 44.4374 64.297 41.9757 66.2345 38.956C69.7243 33.5669 69.8433 26.7052 68.0158 21.2227M63.7448 14.1679C65.6598 16.1914 67.1159 18.5967 68.0158 21.2227M63.7448 14.1679C61.469 11.8197 58.7709 9.91221 55.7891 8.54328C53.2996 7.32819 50.6746 6.40681 47.968 5.79811C43.197 4.764 38.2597 4.73448 33.4764 5.71148C28.5047 6.75098 24.1332 8.88111 21.3679 11.544C23.5729 10.3105 25.9362 9.37805 28.3936 8.77197C33.1688 7.58374 38.1692 7.60361 42.9347 8.82973C47.7002 10.0559 52.0777 12.4489 55.6649 15.7887C57.1188 17.1539 58.3913 18.6966 59.452 20.3797C63.7344 27.2743 63.3293 35.9421 59.99 41.0539C57.5099 44.8516 52.1979 48.4171 47.2419 48.3756C50.9719 48.6542 54.7084 47.9256 58.0532 46.2672C61.398 44.6088 64.2256 42.0829 66.2346 38.9585C69.7243 33.5668 69.8433 26.7052 68.0158 21.2227" stroke="currentColor" stroke-linecap="round" stroke-linejoin="round" />
</svg>