<svg width="80" height="80" viewBox="0 0 80 80" fill="none" xmlns="http://www.w3.org/2000/svg">
  <path d="M75 40C75 59.33 59.33 75 40 75C20.67 75 5 59.33 5 40C5 20.67 20.67 5 40 5C59.33 5 75 20.67 75 40Z" stroke="currentColor" stroke-linecap="round" stroke-linejoin="round" />
  <path d="M52.0785 24.3591L50.9917 29.8529C50.8675 30.438 50.3395 30.9581 49.6874 30.9581H40.2472C39.1913 30.9581 38.3219 31.8683 38.3219 32.9736V34.1764C38.3219 35.2817 39.1913 36.1919 40.2472 36.1919H48.2279C48.9732 36.1919 49.5943 36.9395 49.439 37.7522C49.2837 38.5975 48.4453 42.8884 48.3521 43.3435C48.29 43.8311 47.7932 44.4488 47.0479 44.4488H40.5267C39.1603 44.4813 38.8809 44.5138 38.0735 45.554C37.2661 46.5943 29.9996 55.8323 29.9996 55.8323V24.099C29.9996 23.3514 30.5896 22.7337 31.3038 22.7337H50.8986C51.5817 22.7337 52.2649 23.4489 52.0785 24.3591ZM53.507 17.5H29.3164C25.9937 17.5 25 20.1331 25 21.791V62.0353C25 64.3945 27.4751 66.2059 29.4096 64.1807C29.4096 64.1807 40.8993 50.17 41.0857 49.9425C41.272 49.7149 41.3651 49.7149 41.4893 49.7149H48.7558C51.8612 49.7149 52.4512 47.4719 52.7927 46.1066C53.0722 44.9688 56.2707 28.7151 57.2644 23.5789C58.0098 19.613 57.0471 17.5 53.507 17.5Z" stroke="currentColor" stroke-linecap="round" stroke-linejoin="round" />
</svg>