<svg width="80" height="80" viewBox="0 0 80 80" fill="none" xmlns="http://www.w3.org/2000/svg">
  <path d="M5 59.2307V20.7692M5 59.2307C5 62.417 7.61167 65 10.8333 65H69.1667C72.3883 65 75 62.417 75 59.2307M5 59.2307V22.1484L12.7778 27.3973V64.9994H10.7526C7.56814 64.9567 5 62.3903 5 59.2307ZM75 59.2307V20.7692M75 59.2307V22.9544L67.2227 28.024V64.9999H69.1962C72.4043 64.9841 75 62.4072 75 59.2307ZM75 20.7692C75 17.583 72.3883 15 69.1667 15H10.8333C7.61167 15 5 17.583 5 20.7692M75 20.7692C75 17.9653 72.9778 15.6286 70.2968 15.1082L40 35.1915L10.5396 15.0073C7.45457 15.1587 5 17.6805 5 20.7692M75 20.7692L75.0003 22.9527L40 45.7684L5.00032 22.1733L5 20.7692" stroke="currentColor" stroke-linecap="round" stroke-linejoin="round" />
</svg>