<svg viewBox="0 0 80 80" fill="none">
  <path d="M75 40C75 59.33 59.33 75 40 75C20.67 75 5 59.33 5 40C5 20.67 20.67 5 40 5C59.33 5 75 20.67 75 40Z" stroke="currentColor" stroke-linecap="round" stroke-linejoin="round" />
  <path fill-rule="evenodd" clip-rule="evenodd" d="M39.9911 17.5C52.4115 17.5 62.5 27.5707 62.5 39.9911C62.5 51.5001 53.6574 63.0692 39.9911 70V61.25C28.2247 61.25 17.5 51.7575 17.5 39.9911C17.5 27.5707 27.5707 17.5 39.9911 17.5ZM27.5 42.5V32.5H37.5V42.5C37.5 45.5 35.0822 47.5 32.5 47.5V42.5H27.5ZM42.5 42.5V32.5H52.5V42.5C52.5 45.5 50.0822 47.5 47.5 47.5V42.5H42.5Z" stroke="currentColor" stroke-linecap="round" stroke-linejoin="round" />
</svg>