<svg width="80" height="80" viewBox="0 0 80 80" fill="none" xmlns="http://www.w3.org/2000/svg">
  <path d="M5 29C5 20.5992 5 16.3988 6.6349 13.1901C8.073 10.3677 10.3677 8.073 13.1901 6.6349C16.3988 5 20.5992 5 29 5H51C59.4008 5 63.6012 5 66.8099 6.6349C69.6323 8.073 71.927 10.3677 73.3651 13.1901C75 16.3988 75 20.5992 75 29V51C75 59.4008 75 63.6012 73.3651 66.8099C71.927 69.6323 69.6323 71.927 66.8099 73.3651C63.6012 75 59.4008 75 51 75H29C20.5992 75 16.3988 75 13.1901 73.3651C10.3677 71.927 8.073 69.6323 6.6349 66.8099C5 63.6012 5 59.4008 5 51V29Z" stroke="currentColor" stroke-linecap="round" stroke-linejoin="round" />
  <path d="M5 29C5 20.5992 5 16.3988 6.6349 13.1901C8.073 10.3677 10.3677 8.073 13.1901 6.6349C16.3988 5 20.5992 5 29 5H51C59.4008 5 63.6012 5 66.8099 6.6349C69.6323 8.073 71.927 10.3677 73.3651 13.1901C75 16.3988 75 20.5992 75 29V51C75 59.4008 75 63.6012 73.3651 66.8099C71.927 69.6323 69.6323 71.927 66.8099 73.3651C63.6012 75 59.4008 75 51 75H29C20.5992 75 16.3988 75 13.1901 73.3651C10.3677 71.927 8.073 69.6323 6.6349 66.8099C5 63.6012 5 59.4008 5 51V29Z" stroke="currentColor" stroke-linecap="round" stroke-linejoin="round" />
  <path d="M5 29C5 20.5992 5 16.3988 6.6349 13.1901C8.073 10.3677 10.3677 8.073 13.1901 6.6349C16.3988 5 20.5992 5 29 5H51C59.4008 5 63.6012 5 66.8099 6.6349C69.6323 8.073 71.927 10.3677 73.3651 13.1901C75 16.3988 75 20.5992 75 29V51C75 59.4008 75 63.6012 73.3651 66.8099C71.927 69.6323 69.6323 71.927 66.8099 73.3651C63.6012 75 59.4008 75 51 75H29C20.5992 75 16.3988 75 13.1901 73.3651C10.3677 71.927 8.073 69.6323 6.6349 66.8099C5 63.6012 5 59.4008 5 51V29Z" stroke="currentColor" stroke-linecap="round" stroke-linejoin="round" />
  <path d="M57.5 26.25C57.5 28.3211 55.8211 30 53.75 30C51.6789 30 50 28.3211 50 26.25C50 24.1789 51.6789 22.5 53.75 22.5C55.8211 22.5 57.5 24.1789 57.5 26.25Z" stroke="currentColor" stroke-linecap="round" stroke-linejoin="round" />
  <path fill-rule="evenodd" clip-rule="evenodd" d="M40 52.5C46.9036 52.5 52.5 46.9036 52.5 40C52.5 33.0964 46.9036 27.5 40 27.5C33.0964 27.5 27.5 33.0964 27.5 40C27.5 46.9036 33.0964 52.5 40 52.5ZM40 47.5C44.1421 47.5 47.5 44.1421 47.5 40C47.5 35.8579 44.1421 32.5 40 32.5C35.8579 32.5 32.5 35.8579 32.5 40C32.5 44.1421 35.8579 47.5 40 47.5Z" stroke="currentColor" stroke-linecap="round" stroke-linejoin="round" />
  <path fill-rule="evenodd" clip-rule="evenodd" d="M15 39C15 30.5992 15 26.3988 16.6349 23.1901C18.073 20.3677 20.3677 18.073 23.1901 16.6349C26.3988 15 30.5992 15 39 15H41C49.4008 15 53.6012 15 56.8099 16.6349C59.6323 18.073 61.927 20.3677 63.3651 23.1901C65 26.3988 65 30.5992 65 39V41C65 49.4008 65 53.6012 63.3651 56.8099C61.927 59.6323 59.6323 61.927 56.8099 63.3651C53.6012 65 49.4008 65 41 65H39C30.5992 65 26.3988 65 23.1901 63.3651C20.3677 61.927 18.073 59.6323 16.6349 56.8099C15 53.6012 15 49.4008 15 41V39ZM39 20H41C45.2829 20 48.1944 20.0039 50.4448 20.1878C52.6369 20.3669 53.7579 20.6915 54.5399 21.0899C56.4215 22.0487 57.9513 23.5785 58.9101 25.4601C59.3085 26.2421 59.6331 27.3631 59.8122 29.5552C59.9961 31.8056 60 34.7171 60 39V41C60 45.2829 59.9961 48.1944 59.8122 50.4448C59.6331 52.6369 59.3085 53.7579 58.9101 54.5399C57.9513 56.4215 56.4215 57.9513 54.5399 58.9101C53.7579 59.3085 52.6369 59.6331 50.4448 59.8122C48.1944 59.9961 45.2829 60 41 60H39C34.7171 60 31.8056 59.9961 29.5552 59.8122C27.3631 59.6331 26.2421 59.3085 25.4601 58.9101C23.5785 57.9513 22.0487 56.4215 21.0899 54.5399C20.6915 53.7579 20.3669 52.6369 20.1878 50.4448C20.0039 48.1944 20 45.2829 20 41V39C20 34.7171 20.0039 31.8056 20.1878 29.5552C20.3669 27.3631 20.6915 26.2421 21.0899 25.4601C22.0487 23.5785 23.5785 22.0487 25.4601 21.0899C26.2421 20.6915 27.3631 20.3669 29.5552 20.1878C31.8056 20.0039 34.7171 20 39 20Z" stroke="currentColor" stroke-linecap="round" stroke-linejoin="round" />
</svg>