<svg width="80" height="80" viewBox="0 0 80 80" fill="none" xmlns="http://www.w3.org/2000/svg">
  <path d="M65.7949 7.87305H13.3984C10.1942 7.87305 7.59668 10.4705 7.59668 13.6748V66.0713C7.59668 69.2755 10.1942 71.873 13.3984 71.873H65.7949C68.9992 71.873 71.5967 69.2755 71.5967 66.0713V13.6748C71.5967 10.4705 68.9992 7.87305 65.7949 7.87305Z" stroke="currentColor" stroke-linecap="round" stroke-linejoin="round" />
  <path d="M28.9854 28.0093C31.1129 28.0093 32.8952 26.3418 32.8952 24.1563C32.8952 21.9723 31.1129 20.305 28.9854 20.305C26.8579 20.305 25.0762 21.9723 25.0762 24.1563C25.0762 26.3416 26.8579 28.0093 28.9854 28.0093ZM20.8789 48.6394C20.6492 49.6169 20.5339 50.6724 20.5339 51.5334C20.5339 54.9262 22.3737 57.1784 26.2834 57.1784C29.5259 57.1784 32.1547 55.2529 34.0474 52.1437L32.8917 56.7819H39.3304L43.0104 42.0221C43.9304 38.2851 45.7127 36.3453 48.4152 36.3453C50.5424 36.3453 51.8647 37.6684 51.8647 39.8524C51.8647 40.4851 51.8072 41.1744 51.5772 41.9221L49.6797 48.7064C49.3922 49.6839 49.2777 50.6619 49.2777 51.5812C49.2777 54.8019 51.1744 57.1577 55.1417 57.1577C58.5339 57.1577 61.2359 54.9739 62.7309 49.7416L60.2014 48.7651C58.9364 52.2704 57.8439 52.9042 56.9814 52.9042C56.1189 52.9042 55.6589 52.3297 55.6589 51.1804C55.6589 50.6629 55.7744 50.0886 55.9464 49.3971L57.7867 42.7876C58.2464 41.2356 58.4192 39.8594 58.4192 38.5949C58.4192 33.6503 55.4292 31.0698 51.8072 31.0698C48.4152 31.0698 44.9652 34.1296 43.2407 37.3499L44.5052 31.5698H34.6742L33.2942 36.6609H37.8939L35.0614 48.0009C32.8372 52.9454 28.7514 53.0257 28.2387 52.9109C27.3967 52.7209 26.8582 52.4012 26.8582 51.3071C26.8582 50.6759 26.9732 49.7691 27.2607 48.6759L31.5732 31.5698H20.6492L19.2692 36.6609H23.8109L20.8789 48.6394Z" stroke="currentColor" stroke-linecap="round" stroke-linejoin="round" />
</svg>