<svg viewBox="0 0 80 81" fill="none">
  <path d="M40.1231 21.6015C56.5933 8.81515 48.1403 0.499999 48.1403 0.499999C49.3983 13.7184 34.5312 16.8395 30.5461 25.9229C27.8267 32.1211 32.4082 37.5483 40.1176 44.3883C39.436 42.8734 38.3848 41.4014 37.3207 39.9111C33.6911 34.8281 29.91 29.5329 40.1231 21.6015Z" stroke="currentColor" stroke-linecap="round" stroke-linejoin="round" />
  <path d="M42.7524 47.1924C42.7524 47.1924 47.7076 43.1945 43.7835 38.7518C30.4815 23.6796 58.332 16.8395 58.332 16.8395C41.3281 25.0312 43.8666 29.8935 48.1404 35.8003C52.7164 42.1343 42.7524 47.1924 42.7524 47.1924Z" stroke="currentColor" stroke-linecap="round" stroke-linejoin="round" />
  <path d="M57.3424 59.1141C72.6056 51.3147 65.5485 43.8196 60.6228 44.8293C59.4155 45.0764 58.8771 45.2905 58.8771 45.2905C58.8771 45.2905 59.3253 44.6001 60.1814 44.3013C69.9261 40.9323 77.4204 54.2375 57.0357 59.5071C57.0357 59.5071 57.2718 59.2997 57.3424 59.1141Z" stroke="currentColor" stroke-linecap="round" stroke-linejoin="round" />
  <path d="M25.5825 49.2425C16.0328 47.9884 30.8186 44.535 30.8186 44.535C30.8186 44.535 25.0767 44.1542 18.0148 47.511C9.66441 51.483 38.6701 53.2895 53.6848 49.4064C55.2458 48.3582 57.4034 47.4496 57.4034 47.4496C57.4034 47.4496 51.2592 48.5288 45.1402 49.0363C37.6529 49.6532 29.6147 49.7734 25.5825 49.2425Z" stroke="currentColor" stroke-linecap="round" stroke-linejoin="round" />
  <path d="M29.2158 56.6897C23.8905 56.148 27.3774 53.6099 27.3774 53.6099C13.5974 58.1074 35.0443 63.2076 54.2996 57.6708C52.2529 56.9611 50.9513 55.6635 50.9513 55.6635C41.5407 57.4454 36.1023 57.3883 29.2158 56.6897Z" stroke="currentColor" stroke-linecap="round" stroke-linejoin="round" />
  <path d="M31.5361 64.748C26.2148 64.1464 29.3237 62.3686 29.3237 62.3686C16.8148 65.8056 36.9322 72.9064 52.858 66.1944C50.2496 65.1969 48.3818 64.0453 48.3818 64.0453C41.2776 65.3675 37.9828 65.4712 31.5361 64.748Z" stroke="currentColor" stroke-linecap="round" stroke-linejoin="round" />
  <path d="M64.8465 68.847C64.8465 68.847 67.1471 70.7111 62.3128 72.1532C53.1202 74.8917 24.0523 75.7186 15.9773 72.2623C13.0746 71.0205 18.518 69.2973 20.2303 68.9357C22.0161 68.5549 23.0366 68.6258 23.0366 68.6258C19.8084 66.3895 2.17122 73.0168 14.0777 74.9147C46.5486 80.093 73.269 72.5829 64.8465 68.847Z" stroke="currentColor" stroke-linecap="round" stroke-linejoin="round" />
  <path d="M69.9999 72.9198C69.467 79.7368 46.9692 81.1707 32.3184 80.2485C22.7607 79.6458 20.8453 78.1396 20.8172 78.1175C29.9646 79.6006 45.3871 79.8705 57.8918 77.5564C68.9756 75.5041 69.9999 72.9198 69.9999 72.9198Z" stroke="currentColor" stroke-linecap="round" stroke-linejoin="round" />
</svg>