<svg width="80" height="80" viewBox="0 0 80 80" fill="none" xmlns="http://www.w3.org/2000/svg">
  <path d="M40 75C43.3812 71.7317 45.2809 67.2986 45.2809 62.6751C45.2809 58.0516 43.3812 53.6168 40 50.3485M40 75L63.4719 52.2989L50.7281 39.9731L40 50.3485M40 75L5.83815 41.9588C4.72062 40.8766 4.72062 39.1234 5.83815 38.0412L40 5L74.1618 38.0412C75.2794 39.1234 75.2794 40.8766 74.1618 41.9588L40 75ZM40 50.3485L29.3005 40L40 29.6515M40 50.3485L50.6995 40L40 29.6515M40 29.6515C32.9948 22.8753 32.9605 11.8999 39.9234 5.08301L16.5088 27.7203L29.2526 40.046L40 29.6515Z" stroke="currentColor" stroke-linecap="round" stroke-linejoin="round" />
</svg>