<svg width="80" height="80" viewBox="0 0 80 80" fill="none" xmlns="http://www.w3.org/2000/svg">
  <path fill-rule="evenodd" clip-rule="evenodd" d="M40 75C59.33 75 75 59.33 75 40C75 20.67 59.33 5 40 5C20.67 5 5 20.67 5 40C5 59.33 20.67 75 40 75Z" stroke="currentColor" stroke-linecap="round" stroke-linejoin="round" />
  <path fill-rule="evenodd" clip-rule="evenodd" d="M36.5117 32.3029C39.0746 32.3308 34.5626 45.6346 35.0469 51.4183C35.5355 57.2533 41.9919 55.5733 41.5821 52.2142C40.8849 46.5036 44.6889 28.6096 48.5468 28.6096C51.2537 28.6096 45.5488 40.9454 46.6713 48.8447C47.414 54.071 54.1551 52.258 53.47 49.1592C51.204 38.9037 58.2249 29.0476 57.4381 22.0644C57.094 19.009 55.2565 17.5148 53.4185 17.5001C46.9831 17.4506 42.0121 30.6479 42.0121 30.6479C42.0121 30.6479 42.5297 23.147 37.5282 22.8717C29.8705 22.4497 22.2897 41.6145 22.5045 58.7268C22.5729 64.186 29.3674 63.2562 29.0101 58.9036C28.3457 50.8091 32.8587 32.2638 36.5117 32.3029Z" stroke="currentColor" stroke-linecap="round" stroke-linejoin="round" />
</svg>