<svg width="80" height="80" viewBox="0 0 80 80" fill="none" xmlns="http://www.w3.org/2000/svg">
  <path d="M26.5 13.5C26.5 10.7386 28.7386 8.5 31.5 8.5H66.5C69.2614 8.5 71.5 10.7386 71.5 13.5V66.5C71.5 69.2614 69.2614 71.5 66.5 71.5H31.5C28.7386 71.5 26.5 69.2614 26.5 66.5V64.25H39.5C44.4706 64.25 48.5 60.2206 48.5 55.25V24.75C48.5 19.7794 44.4706 15.75 39.5 15.75H26.5V13.5Z" stroke="currentColor" stroke-linecap="round" stroke-linejoin="round" />
  <path d="M24.2856 47.1053C27.7745 47.1053 30.1954 44.5187 30.1954 40.2181V39.8442C30.1954 35.5436 27.7033 32.8947 24.25 32.8947C20.7611 32.8947 18.3402 35.4813 18.3402 39.7819V40.1558C18.3402 44.4564 20.7967 47.1053 24.2856 47.1053Z" stroke="currentColor" stroke-linecap="round" stroke-linejoin="round" />
  <path fill-rule="evenodd" clip-rule="evenodd" d="M9 19.75C6.23858 19.75 4 21.9886 4 24.75V55.25C4 58.0114 6.23858 60.25 9 60.25H39.5C42.2614 60.25 44.5 58.0114 44.5 55.25V24.75C44.5 21.9886 42.2614 19.75 39.5 19.75H9ZM35.5 39.7819V40.1558C35.5 46.669 30.8006 51.25 24.25 51.25C17.6638 51.25 13 46.7001 13 40.2181V39.8442C13 33.331 17.6994 28.75 24.2856 28.75C30.8362 28.75 35.5 33.2999 35.5 39.7819Z" stroke="currentColor" stroke-linecap="round" stroke-linejoin="round" />
</svg>