<svg viewBox="0 0 80 80" fill="none">
  <path d="M38.4419 63.125L50.8284 74.875C57.2898 69.4025 62.1783 62.4231 64.8124 54.5548L73.3752 56.875C75.0778 51.573 76.0001 45.8987 76.0001 40C76.0001 34.1013 75.0778 28.427 73.3752 23.125L64.5102 25.8703C61.8137 17.8571 57.0502 10.7459 50.8284 5.125L41.2681 14.7986C45.3921 15.6201 48.5001 19.2596 48.5001 23.625V54.125C48.5001 59.0956 44.4707 63.125 39.5001 63.125H38.4419Z" stroke="currentColor" stroke-linecap="round" stroke-linejoin="round" />
  <path fill-rule="evenodd" clip-rule="evenodd" d="M9 18.625C6.23858 18.625 4 20.8636 4 23.625V54.125C4 56.8864 6.23858 59.125 9 59.125H39.5C42.2614 59.125 44.5 56.8864 44.5 54.125V23.625C44.5 20.8636 42.2614 18.625 39.5 18.625H9ZM18.443 27.625L23.7473 36.6061H24.718L30.0223 27.625H35.5L26.8328 42.1208V50.125H21.6325V42.1208L13 27.625H18.443Z" stroke="currentColor" stroke-linecap="round" stroke-linejoin="round" />
</svg>