<svg width="80" height="80" viewBox="0 0 80 80" fill="none" xmlns="http://www.w3.org/2000/svg">
  <path d="M19.4611 36.7155C19.4611 36.4232 19.2983 36.1469 19.038 36.0007L12.1375 32.0377C12.0234 31.9726 11.8933 31.9402 11.7632 31.9239H11.698C11.5679 31.9239 11.4376 31.9726 11.3237 32.0377L4.42315 36.0007C4.16264 36.1469 4 36.423 4 36.7155L4.01633 47.3702C4.01633 47.5164 4.09773 47.6625 4.22784 47.7276C4.35809 47.8088 4.52074 47.8088 4.6348 47.7276L8.73605 45.3887C8.99642 45.2425 9.1592 44.9664 9.1592 44.6741V39.6877C9.1592 39.3954 9.32184 39.1193 9.58235 38.9731L11.3237 37.9661C11.4539 37.8848 11.6004 37.8522 11.7468 37.8522C11.8933 37.8522 12.0397 37.8848 12.1538 37.9661L13.8951 38.9731C14.1556 39.1193 14.3183 39.3953 14.3183 39.6877V44.6741C14.3183 44.9664 14.481 45.2425 14.7414 45.3887L18.8427 47.7276C18.9729 47.8088 19.1356 47.8088 19.2658 47.7276C19.3961 47.6625 19.4775 47.5164 19.4775 47.3702L19.4611 36.7155ZM52.6293 22.0488C52.4992 21.9837 52.3364 21.9837 52.2223 22.0488C52.0922 22.13 52.0108 22.2599 52.0108 22.406V32.9635C52.0108 33.0609 51.9621 33.1583 51.8644 33.2234C51.7668 33.272 51.669 33.272 51.5715 33.2234L49.8463 32.2326C49.7198 32.1608 49.5768 32.123 49.4313 32.123C49.2857 32.123 49.1427 32.1608 49.0162 32.2326L42.1157 36.2119C41.8553 36.3581 41.6925 36.6342 41.6925 36.9265V44.8689C41.6925 45.1612 41.8553 45.4375 42.1157 45.5836L49.0162 49.5629C49.1427 49.6348 49.2857 49.6726 49.4313 49.6726C49.5768 49.6726 49.7198 49.6348 49.8463 49.5629L56.7469 45.5836C57.0072 45.4375 57.17 45.1613 57.17 44.8689V25.0698C57.17 24.7612 57.0072 24.4852 56.7469 24.3389L52.6293 22.0488ZM51.9946 42.254C51.9946 42.3352 51.9621 42.4001 51.8969 42.4326L49.5371 43.7969C49.5041 43.8129 49.4679 43.8213 49.4313 43.8213C49.3946 43.8213 49.3584 43.8129 49.3254 43.7969L46.9657 42.4326C46.9005 42.4001 46.8679 42.3189 46.8679 42.254V39.5253C46.8679 39.444 46.9005 39.3791 46.9657 39.3467L49.3254 37.9822C49.3584 37.9662 49.3946 37.9578 49.4313 37.9578C49.4679 37.9578 49.5041 37.9662 49.5371 37.9822L51.8969 39.3467C51.9621 39.379 51.9946 39.4603 51.9946 39.5253V42.254ZM75.593 39.4603C75.8536 39.3142 76 39.038 76 38.7456V36.8129C76 36.5205 75.8372 36.2444 75.593 36.0982L68.7414 32.1352C68.6149 32.0634 68.4719 32.0256 68.3264 32.0256C68.1809 32.0256 68.0379 32.0634 67.9114 32.1352L61.0109 36.1144C60.7504 36.2606 60.5877 36.5367 60.5877 36.8292V44.7715C60.5877 45.0638 60.7504 45.3399 61.0109 45.4861L67.8626 49.3842C68.1231 49.5303 68.4321 49.5303 68.6763 49.3842L72.8263 47.078C72.9566 47.013 73.0379 46.8668 73.0379 46.7207C73.0379 46.5745 72.9566 46.4284 72.8263 46.3633L65.8932 42.384C65.7631 42.3029 65.6817 42.1729 65.6817 42.0267V39.5417C65.6817 39.3956 65.7631 39.2494 65.8932 39.1843L68.0579 37.9499C68.1212 37.9101 68.1946 37.889 68.2694 37.889C68.3443 37.889 68.4176 37.9101 68.481 37.9499L70.6455 39.1843C70.7757 39.2656 70.8571 39.3954 70.8571 39.5417V41.4908C70.8571 41.6369 70.9385 41.7831 71.0686 41.848C71.1989 41.9292 71.3615 41.9292 71.4918 41.848L75.593 39.4603Z" stroke="currentColor" stroke-linecap="round" stroke-linejoin="round" />
  <path d="M31 32.1677C30.8735 32.0959 30.7305 32.0581 30.585 32.0581C30.4395 32.0581 30.2965 32.0959 30.17 32.1677L23.3183 36.1143C23.0578 36.2604 22.9114 36.5366 22.9114 36.8289V44.7389C22.9114 45.0312 23.0742 45.3074 23.3183 45.4535L30.17 49.4004C30.2965 49.4722 30.4395 49.51 30.585 49.51C30.7305 49.51 30.8735 49.4722 31 49.4004L37.8518 45.4535C38.1121 45.3074 38.2587 45.0312 38.2587 44.7389V36.829C38.2587 36.5367 38.0958 36.2606 37.8518 36.1144L31 32.1677Z" stroke="currentColor" stroke-linecap="round" stroke-linejoin="round" />
</svg>