<svg width="80" height="80" viewBox="0 0 80 80" fill="none" xmlns="http://www.w3.org/2000/svg">
  <path fill-rule="evenodd" clip-rule="evenodd" d="M14.29 73.0445L5.69159 62.3329C3.62282 59.7557 2.5 56.5865 2.5 53.3247V14.5375C2.5 9.65161 6.40896 5.59742 11.4518 5.25313L51.3303 2.53046C54.2275 2.33266 57.107 3.10273 59.4869 4.71176L73.4981 14.1848C76.0061 15.8805 77.5 18.6525 77.5 21.6106V65.7079C77.5 70.4894 73.6564 74.4482 68.7191 74.7522L24.4583 77.4767C20.5183 77.7192 16.71 76.0592 14.29 73.0445Z" stroke="currentColor" stroke-linecap="round" stroke-linejoin="round" />
  <path d="M28.1204 33.9455V33.4377C28.1204 32.1505 29.1513 31.0829 30.48 30.9942L40.1584 30.3481L53.5428 50.0576V32.7591L50.0977 32.2999V32.0587C50.0977 30.7563 51.1522 29.6817 52.4978 29.6128L61.3041 29.1617V30.429C61.3041 31.0239 60.8617 31.5328 60.2554 31.6353L58.1362 31.9937V60.008L55.4766 60.9226C53.2547 61.6867 50.7811 60.8688 49.5091 58.9495L36.5153 39.3417V58.0562L40.5148 58.8216L40.4591 59.1926C40.2845 60.3546 39.2813 61.2334 38.0676 61.2875L28.1204 61.7302C27.9889 60.4806 28.9254 59.3627 30.2174 59.227L31.5259 59.0895V34.1369L28.1204 33.9455Z" stroke="currentColor" stroke-linecap="round" stroke-linejoin="round" />
  <path fill-rule="evenodd" clip-rule="evenodd" d="M51.6874 7.41574L11.8088 10.1384C9.42013 10.3015 7.56851 12.2219 7.56851 14.5363V53.3235C7.56851 55.498 8.31706 57.6108 9.69624 59.3289L18.2946 70.0405C19.6848 71.7724 21.8726 72.726 24.136 72.5867L68.3968 69.8622C70.6653 69.7225 72.4312 67.9036 72.4312 65.7067V21.6094C72.4312 20.2503 71.7449 18.9766 70.5925 18.1975L56.5813 8.72451C55.1534 7.7591 53.4257 7.29705 51.6874 7.41574ZM13.7863 15.1413C13.2317 14.7306 13.4956 13.8751 14.1924 13.8252L51.9556 11.1166C53.1588 11.0303 54.3544 11.3616 55.3275 12.051L62.9044 17.4191C63.192 17.6229 63.0571 18.0629 62.701 18.0822L22.7098 20.2572C21.4996 20.323 20.305 19.9675 19.3427 19.255L13.7863 15.1413ZM20.8341 27.0756C20.8341 25.7764 21.8837 24.7032 23.2258 24.6301L65.5078 22.3274C66.8158 22.2562 67.917 23.2621 67.917 24.5283V62.7119C67.917 64.0088 66.8711 65.0808 65.5316 65.157L23.5174 67.5476C22.0616 67.6304 20.8341 66.5118 20.8341 65.1025V27.0756Z" stroke="currentColor" stroke-linecap="round" stroke-linejoin="round" />
</svg>