<svg viewBox="0 0 80 80" fill="none">
  <path d="M5 30.3333C5 21.4658 5 17.0321 6.72573 13.6452C8.24373 10.6659 10.6659 8.24373 13.6452 6.72573C17.0321 5 21.4658 5 30.3333 5H49.6667C58.5342 5 62.9679 5 66.3549 6.72573C69.3341 8.24373 71.7563 10.6659 73.2743 13.6452C75 17.0321 75 21.4658 75 30.3333V49.6667C75 58.5342 75 62.9679 73.2743 66.3549C71.7563 69.3341 69.3341 71.7563 66.3549 73.2743C62.9679 75 58.5342 75 49.6667 75H30.3333C21.4658 75 17.0321 75 13.6452 73.2743C10.6659 71.7563 8.24373 69.3341 6.72573 66.3549C5 62.9679 5 58.5342 5 49.6667V30.3333Z" stroke="currentColor" stroke-linecap="round" stroke-linejoin="round" />
  <path d="M13 67.4124C13 67.4139 13 67.4155 13 67.417C13.4444 64.8059 15.4833 58.6837 20.0833 55.0837C25.9668 50.4792 36.0508 51.1451 47.4635 45.6236M13 67.4124C13.0005 61.3295 13.9276 54.4058 17.769 48.3396M13 67.4124L13.0003 67.4155M13 67.4124C13 66.8399 13.0083 66.26 13.0264 65.6741M17.769 48.3396C19.4526 45.6808 21.6961 43.1867 24.6667 41.0003C34.3335 33.8856 41.7038 35.5264 52.6383 29.8721M17.769 48.3396C14.6646 53.2419 13.4635 58.7042 13.1166 63.8302M47.4635 45.6236C49.3062 44.7321 51.1835 43.6793 53.0833 42.417C56.1603 40.3726 58.6121 38.1884 60.5443 35.9275C60.7576 35.6779 60.9646 35.4274 61.1654 35.176C67.1807 27.6446 67.6395 19.3489 66.3612 12.5632C66.352 12.5144 66.3427 12.4656 66.3334 12.417C65.1174 21.1817 60.968 25.0015 55.25 28.417C54.3562 28.9509 53.4865 29.4334 52.6383 29.8721M47.4635 45.6236C45.844 46.4072 44.2513 47.0661 42.6935 47.6332M52.6383 29.8721C51.431 30.4963 50.2672 31.0316 49.139 31.4996" stroke="currentColor" stroke-linecap="round" stroke-linejoin="round" />
</svg>