<svg viewBox="0 0 80 80" fill="none">
  <path d="M46.4791 30.9654L29.2025 47.0662L14.0701 50.4707L10.5875 40.5648C12.9768 36.0583 17.9614 26.611 18.2461 26.4652C18.5338 26.3225 26.5134 18.7337 30.6255 14.8983L43.6776 10L51.3547 15.4358L46.4791 30.9654ZM46.4791 30.9654L29.3058 46.9701L52.4571 54.3911L46.4869 30.9409L46.4791 30.9654ZM56.4847 49.6018L22.2284 69.9996L66.5838 66.9814L70.0001 22.1315L56.4847 49.6018ZM66.6564 66.9513L62.8441 40.565L52.4597 54.3154L66.6564 66.9513ZM66.7079 66.9506L38.7781 64.752L22.3767 69.9421L66.7079 66.9506ZM22.4162 69.9492L29.3934 47.0279L14.0399 50.32L22.4162 69.9492ZM68.5433 29.5292L51.1759 15.3051L46.3397 30.9838L68.5433 29.5292ZM60.4216 10.2333L50.2071 15.8938L43.7629 10.1574L60.4216 10.2333ZM10 58.0079L14.279 50.1822L10.8176 40.8594L10 58.0079ZM22.8158 22.7691C31.7282 13.9079 43.2176 8.67253 47.6268 13.1335C52.0333 17.5945 47.3603 28.4357 38.448 37.2939C29.5357 46.152 18.1886 51.6759 13.7824 47.2149C9.37313 42.757 13.9035 31.6273 22.8158 22.7691ZM22.4161 69.9389L29.3388 46.9446L52.3298 54.3513C44.017 62.1678 34.7716 68.7758 22.4161 69.9389ZM46.5094 30.92L52.4116 54.3636C59.3555 47.0421 65.5878 39.1708 68.6401 29.435L46.5094 30.92ZM68.5798 29.5545C70.9419 22.406 71.487 12.1509 60.3485 10.2468L51.2091 15.3091L68.5798 29.5545ZM10 57.9049C10.3271 69.7029 18.8154 69.8788 22.4312 69.9823L14.0791 50.4223L10 57.9049ZM46.5424 30.9567C51.8783 34.2455 62.6321 40.8504 62.8502 40.9718C63.189 41.1632 67.4865 33.7049 68.4616 29.4899L46.5424 30.9567ZM29.3299 46.9446L38.5844 64.8493C44.0565 61.8733 48.3416 58.2474 52.2663 54.3634L29.3299 46.9446ZM14.0429 50.4461L12.7317 66.1035C15.2058 69.4925 18.6096 69.7871 22.18 69.5229C19.5969 63.0759 14.4366 50.1849 14.0429 50.4461ZM51.1548 15.3483L69.5396 17.9356C68.5585 13.7661 65.5453 11.0756 60.4093 10.2344L51.1548 15.3483Z" stroke="currentColor" stroke-linecap="round" stroke-linejoin="round" />
</svg>