<svg viewBox="0 0 80 80" fill="none">
  <path d="M22.8725 36.5828C23.282 36.7798 23.9222 37.0877 24.764 37.0877C25.347 37.0877 25.9995 36.9228 26.4792 36.4145C26.9531 35.9124 27.0644 35.2799 27.0254 34.7372C26.9082 33.1033 26.7693 30.8247 26.7693 29.1844C26.7693 27.4154 27.4554 24.4387 29.4581 21.9318C31.415 19.4822 34.6774 17.4144 40.0294 17.4144C45.3809 17.4144 48.627 19.4816 50.5689 21.9287C52.5567 24.4338 53.2307 27.4108 53.2307 29.1844C53.2307 30.8247 53.0918 33.1033 52.9745 34.7372C52.9356 35.2799 53.0469 35.9124 53.5208 36.4145C54.0005 36.9228 54.653 37.0877 55.236 37.0877C56.0778 37.0877 56.718 36.7798 57.1275 36.5828M22.8725 36.5828C22.8562 36.575 22.8404 36.5673 22.8249 36.5599M22.8725 36.5828L22.8249 36.5599M22.8249 36.5599C22.3679 36.3408 22.1277 36.2389 21.7745 36.2389C21.4532 36.2389 21.0609 36.377 20.7499 36.6287C20.4345 36.8838 20.3431 37.1335 20.3431 37.2764C20.3431 37.5673 20.4505 37.7751 20.8449 38.0302C21.3107 38.3315 21.9744 38.558 22.8445 38.8434M22.8445 38.8434C22.8695 38.8516 22.8948 38.8599 22.9202 38.8682M22.8445 38.8434L22.9202 38.8682M22.9202 38.8682C23.6428 39.105 24.5378 39.3982 25.244 39.8384C26.0368 40.3326 26.7693 41.1268 26.7693 42.3503C26.7693 42.6711 26.6806 42.9798 26.5973 43.2135C26.507 43.4673 26.3849 43.7353 26.2481 44.0025C25.9739 44.538 25.6032 45.1428 25.1956 45.7445C24.3871 46.9384 23.3593 48.2294 22.505 49.0512C21.6414 49.882 20.3426 50.8158 19.029 51.5444C18.3674 51.9113 17.6767 52.2404 17.0107 52.4807C16.4145 52.6958 15.772 52.8643 15.1556 52.8907C15.1402 52.8971 15.1233 52.9049 15.1055 52.9138C15.0771 52.9281 15.0505 52.9436 15.0273 52.9592M15.0273 52.9592C15.0231 52.962 15.0154 52.9674 15.0154 52.9674M15.0273 52.9592L15.0154 52.9674M15.0154 52.9674C15.0178 52.984 15.0204 52.9963 15.0226 53.005C15.0276 53.0243 15.0334 53.038 15.0413 53.0523C15.0655 53.096 15.1036 53.1448 15.2578 53.31L15.2982 53.3534C15.5759 53.6522 16.2604 54.0399 17.3454 54.3867C18.3787 54.717 19.6006 54.9555 20.755 55.065C21.3326 55.1198 21.6655 55.4807 21.8064 55.6752C21.9515 55.8753 22.0344 56.0867 22.0829 56.227C22.1767 56.4985 22.2475 56.8329 22.3034 57.0967L22.3119 57.1368C22.3881 57.4963 22.4549 57.8036 22.5419 58.0606C22.5726 58.1514 22.601 58.2205 22.6254 58.2713C22.6805 58.2776 22.765 58.2836 22.8873 58.2831C23.4181 58.281 23.9496 58.2019 24.4755 58.1385C25.317 58.0371 26.3583 57.9116 27.4608 57.9116C30.0178 57.9116 31.705 59.0645 33.3349 60.1781L33.4264 60.2406C34.0295 60.6525 34.634 61.0648 35.3137 61.4665C37.2293 62.5985 38.6868 62.5903 39.7516 62.5843C39.8266 62.5839 39.8995 62.5835 39.9706 62.5835C40.041 62.5835 40.1136 62.5839 40.1882 62.5843C41.2648 62.5901 42.7712 62.5982 44.6863 61.4665C45.366 61.0648 45.9705 60.6525 46.5736 60.2406L46.6651 60.1781C48.295 59.0645 49.9823 57.9116 52.5392 57.9116C53.6417 57.9116 54.683 58.0371 55.5245 58.1385L55.5499 58.1415C56.2303 58.2235 56.7282 58.2816 57.1127 58.2831C57.235 58.2836 57.3195 58.2776 57.3746 58.2713C57.399 58.2205 57.4274 58.1514 57.4581 58.0606C57.5451 57.8036 57.6119 57.4963 57.6881 57.1368L57.6966 57.0966C57.7525 56.8329 57.8233 56.4985 57.9171 56.227C57.9656 56.0867 58.0485 55.8753 58.1936 55.6752C58.3345 55.4807 58.6674 55.1198 59.245 55.065C60.3994 54.9555 61.6213 54.717 62.6546 54.3867C63.7396 54.0399 64.424 53.6522 64.7018 53.3534L64.7422 53.31C64.8964 53.1448 64.9345 53.096 64.9587 53.0523C64.9666 53.038 64.9724 53.0243 64.9774 53.005C64.9796 52.9963 64.9822 52.984 64.9846 52.9674M64.9846 52.9674C64.9846 52.9674 64.9769 52.962 64.9727 52.9592M64.9846 52.9674L64.9727 52.9592M64.9727 52.9592C64.9495 52.9436 64.9229 52.9281 64.8945 52.9138C64.8767 52.9049 64.8598 52.8971 64.8444 52.8907C64.228 52.8643 63.5855 52.6958 62.9893 52.4807C62.3233 52.2404 61.6326 51.9113 60.971 51.5444C59.6574 50.8158 58.3586 49.882 57.495 49.0512C56.6407 48.2294 55.6129 46.9384 54.8044 45.7445C54.3968 45.1428 54.0261 44.538 53.7519 44.0025C53.6151 43.7353 53.493 43.4673 53.4027 43.2135C53.3194 42.9798 53.2307 42.6711 53.2307 42.3503C53.2307 41.1268 53.9632 40.3326 54.756 39.8384C55.4622 39.3982 56.3572 39.105 57.0798 38.8682M57.0798 38.8682C57.1052 38.8599 57.1305 38.8516 57.1555 38.8434M57.0798 38.8682L57.1555 38.8434M57.1555 38.8434C58.0256 38.558 58.6893 38.3315 59.1551 38.0302C59.5495 37.7751 59.6569 37.5673 59.6569 37.2764C59.6569 37.1335 59.5655 36.8838 59.2501 36.6287C58.9391 36.377 58.5468 36.2389 58.2255 36.2389C57.8723 36.2389 57.6321 36.3408 57.1751 36.5599M57.1751 36.5599C57.1596 36.5673 57.1437 36.575 57.1275 36.5828M57.1751 36.5599L57.1275 36.5828M56.0556 34.399C55.7953 34.5238 55.631 34.5965 55.4974 34.6353C55.6108 33.0187 55.7405 30.8235 55.7405 29.1844C55.7405 26.9592 54.9316 23.4476 52.5638 20.4638C50.1501 17.422 46.1682 15 40.0294 15C34.7728 15.0518 24.2595 17.9611 24.2595 29.1844C24.2595 30.8235 24.3892 33.0187 24.5026 34.6353C24.369 34.5965 24.2047 34.5238 23.9444 34.399M56.0556 34.399C56.0675 34.3933 56.0796 34.3875 56.0918 34.3817M56.0556 34.399L56.0918 34.3817M56.0918 34.3817C56.5521 34.1606 57.2521 33.8246 58.2255 33.8246C59.2089 33.8246 60.1597 34.2098 60.8656 34.7809C61.5673 35.3486 62.1667 36.2212 62.1667 37.2764C62.1667 38.5959 61.424 39.4721 60.5556 40.0338C59.7842 40.5327 58.8115 40.8514 58.0416 41.1037M58.0416 41.1037C58.016 41.1121 57.9906 41.1204 57.9655 41.1286M58.0416 41.1037L57.9655 41.1286M57.9655 41.1286C57.1413 41.3989 56.5373 41.605 56.1208 41.8646C55.7966 42.0667 55.7474 42.1945 55.7413 42.3159C55.7455 42.3332 55.7554 42.3705 55.777 42.4311C55.8215 42.5559 55.8954 42.7247 56.0035 42.9358C56.219 43.3568 56.5333 43.8745 56.9072 44.4266C57.6615 45.5403 58.5821 46.6825 59.2697 47.344C59.948 47.9965 61.0609 48.8074 62.2246 49.4527C62.8017 49.7728 63.366 50.038 63.8708 50.2201C64.3919 50.4082 64.7738 50.4799 65.0098 50.4799C65.1966 50.4799 65.3583 50.5182 65.4288 50.5359C65.528 50.5608 65.6306 50.5935 65.7322 50.6316C65.9336 50.7073 66.1736 50.8208 66.4113 50.9808C66.8656 51.2865 67.5 51.9029 67.5 52.8754C67.5 53.3831 67.3808 53.8127 67.1749 54.1855C66.9946 54.5118 66.7628 54.7595 66.6294 54.902M66.6294 54.902C66.6225 54.9093 66.6159 54.9163 66.6097 54.9231M66.6294 54.902L66.6097 54.9231M66.6097 54.9231L66.5728 54.9626C65.8392 55.7518 64.6248 56.3011 63.446 56.6779C62.433 57.0017 61.3005 57.2429 60.197 57.3878C60.1814 57.4589 60.1651 57.5356 60.1472 57.6196L60.1415 57.6467C60.072 57.9744 59.98 58.4084 59.8445 58.8085C59.7166 59.1861 59.485 59.7443 59.0109 60.1419C58.4071 60.6483 57.6173 60.6996 57.102 60.6975C56.5488 60.6952 55.903 60.6173 55.2901 60.5435L55.238 60.5372C54.3756 60.4333 53.4736 60.326 52.5392 60.326C50.8341 60.326 49.7413 61.0383 48.0265 62.2094L48.0149 62.2173C47.4209 62.6229 46.7559 63.077 46 63.5237C43.4682 65.0199 41.3575 65.0063 40.1903 64.9989C40.1129 64.9984 40.0396 64.9979 39.9706 64.9979C39.9016 64.9979 39.8286 64.9983 39.7518 64.9988C38.5864 65.0062 36.5305 65.0191 34 63.5237C33.2441 63.077 32.5791 62.6229 31.9851 62.2173L31.9735 62.2094C30.2587 61.0383 29.1659 60.326 27.4608 60.326C26.5264 60.326 25.6244 60.4333 24.762 60.5372L24.7099 60.5435C24.097 60.6173 23.4512 60.6952 22.898 60.6975C22.3827 60.6996 21.5929 60.6483 20.9891 60.1419C20.515 59.7443 20.2834 59.1861 20.1555 58.8085C20.02 58.4084 19.928 57.9743 19.8585 57.6466L19.8528 57.6196C19.8349 57.5355 19.8186 57.4589 19.803 57.3878C18.6995 57.2429 17.567 57.0017 16.554 56.6779C15.3752 56.3012 14.1609 55.7519 13.4273 54.9627L13.3904 54.9231M13.3904 54.9231C13.384 54.9163 13.3774 54.9093 13.3706 54.9019M13.3904 54.9231L13.3706 54.9019M13.3706 54.9019C13.2372 54.7594 13.0054 54.5118 12.8251 54.1855C12.6192 53.8127 12.5 53.3831 12.5 52.8754C12.5 51.9029 13.1344 51.2865 13.5887 50.9808C13.8264 50.8208 14.0664 50.7073 14.2678 50.6316C14.3694 50.5935 14.472 50.5608 14.5712 50.5359C14.6417 50.5182 14.8034 50.4799 14.9902 50.4799C15.2262 50.4799 15.6081 50.4082 16.1292 50.2201C16.634 50.038 17.1983 49.7728 17.7754 49.4527C18.9391 48.8074 20.052 47.9965 20.7303 47.344C21.4179 46.6825 22.3385 45.5403 23.0928 44.4266C23.4667 43.8745 23.781 43.3568 23.9965 42.9358C24.1046 42.7247 24.1785 42.5559 24.223 42.4311C24.2446 42.3705 24.2545 42.3333 24.2587 42.3159C24.2526 42.1945 24.2034 42.0667 23.8792 41.8646C23.4627 41.605 22.8587 41.3989 22.0345 41.1286M22.0345 41.1286C22.0094 41.1204 21.984 41.1121 21.9584 41.1037M22.0345 41.1286L21.9584 41.1037M21.9584 41.1037C21.1885 40.8514 20.2158 40.5327 19.4444 40.0338C18.576 39.4721 17.8333 38.5959 17.8333 37.2764C17.8333 36.2212 18.4327 35.3486 19.1344 34.7809C19.8403 34.2098 20.7911 33.8246 21.7745 33.8246C22.7479 33.8246 23.4479 34.1606 23.9082 34.3817M23.9082 34.3817C23.9204 34.3875 23.9325 34.3933 23.9444 34.399M23.9082 34.3817L23.9444 34.399M75 40C75 59.33 59.33 75 40 75C20.67 75 5 59.33 5 40C5 20.67 20.67 5 40 5C59.33 5 75 20.67 75 40Z" stroke="currentColor" stroke-linecap="round" stroke-linejoin="round" />
</svg>