<svg width="80" height="80" viewBox="0 0 80 80" fill="none" xmlns="http://www.w3.org/2000/svg">
  <path d="M13.1901 73.3651L12.9631 73.8106L13.1901 73.3651ZM6.6349 66.8099L6.1894 67.0369L6.6349 66.8099ZM73.3651 66.8099L73.8106 67.0369L73.3651 66.8099ZM66.8099 73.3651L67.0369 73.8106L66.8099 73.3651ZM66.8099 6.6349L67.0369 6.1894L66.8099 6.6349ZM73.3651 13.1901L73.8106 12.9631L73.3651 13.1901ZM13.1901 6.6349L12.9631 6.1894L13.1901 6.6349ZM6.6349 13.1901L6.1894 12.9631L6.6349 13.1901ZM29 5.5H51V4.5H29V5.5ZM74.5 29V51H75.5V29H74.5ZM51 74.5H29V75.5H51V74.5ZM5.5 51V29H4.5V51H5.5ZM29 74.5C24.7914 74.5 21.6649 74.4996 19.1887 74.2973C16.7184 74.0955 14.9392 73.6951 13.4171 72.9196L12.9631 73.8106C14.6497 74.67 16.5751 75.0871 19.1073 75.294C21.6337 75.5004 24.8079 75.5 29 75.5V74.5ZM4.5 51C4.5 55.1921 4.49961 58.3663 4.70602 60.8927C4.91291 63.4249 5.33005 65.3503 6.1894 67.0369L7.08041 66.5829C6.30485 65.0608 5.90454 63.2816 5.7027 60.8113C5.50039 58.3351 5.5 55.2086 5.5 51H4.5ZM13.4171 72.9196C10.6888 71.5294 8.47057 69.3112 7.08041 66.5829L6.1894 67.0369C7.67544 69.9534 10.0466 72.3246 12.9631 73.8106L13.4171 72.9196ZM74.5 51C74.5 55.2086 74.4996 58.3351 74.2973 60.8113C74.0955 63.2816 73.6951 65.0608 72.9196 66.5829L73.8106 67.0369C74.67 65.3503 75.0871 63.4249 75.294 60.8927C75.5004 58.3663 75.5 55.1921 75.5 51H74.5ZM51 75.5C55.1921 75.5 58.3663 75.5004 60.8927 75.294C63.4249 75.0871 65.3503 74.67 67.0369 73.8106L66.5829 72.9196C65.0608 73.6951 63.2816 74.0955 60.8113 74.2973C58.3351 74.4996 55.2086 74.5 51 74.5V75.5ZM72.9196 66.5829C71.5294 69.3112 69.3112 71.5294 66.5829 72.9196L67.0369 73.8106C69.9534 72.3246 72.3246 69.9534 73.8106 67.0369L72.9196 66.5829ZM51 5.5C55.2086 5.5 58.3351 5.50039 60.8113 5.7027C63.2816 5.90454 65.0608 6.30485 66.5829 7.08041L67.0369 6.1894C65.3503 5.33005 63.4249 4.91291 60.8927 4.70602C58.3663 4.49961 55.1921 4.5 51 4.5V5.5ZM75.5 29C75.5 24.8079 75.5004 21.6337 75.294 19.1073C75.0871 16.5751 74.67 14.6497 73.8106 12.9631L72.9196 13.4171C73.6951 14.9392 74.0955 16.7184 74.2973 19.1887C74.4996 21.6649 74.5 24.7914 74.5 29H75.5ZM66.5829 7.08041C69.3112 8.47057 71.5294 10.6888 72.9196 13.4171L73.8106 12.9631C72.3246 10.0466 69.9534 7.67544 67.0369 6.1894L66.5829 7.08041ZM29 4.5C24.8079 4.5 21.6337 4.49961 19.1073 4.70602C16.5751 4.91291 14.6497 5.33005 12.9631 6.1894L13.4171 7.08041C14.9392 6.30485 16.7184 5.90454 19.1887 5.7027C21.6649 5.50039 24.7914 5.5 29 5.5V4.5ZM5.5 29C5.5 24.7914 5.50039 21.6649 5.7027 19.1887C5.90454 16.7184 6.30485 14.9392 7.08041 13.4171L6.1894 12.9631C5.33005 14.6497 4.91291 16.5751 4.70602 19.1073C4.49961 21.6337 4.5 24.8079 4.5 29H5.5ZM12.9631 6.1894C10.0466 7.67544 7.67544 10.0466 6.1894 12.9631L7.08041 13.4171C8.47057 10.6888 10.6888 8.47057 13.4171 7.08041L12.9631 6.1894Z" fill="currentColor" />
  <path d="M57.2128 53.1253C57.2128 36.2737 43.5519 22.6128 26.7003 22.6128V23.6128C42.9996 23.6128 56.2128 36.826 56.2128 53.1253H57.2128ZM26.7003 40.2378C33.8179 40.2378 39.5878 46.0077 39.5878 53.1253H40.5878C40.5878 45.4554 34.3701 39.2378 26.7003 39.2378V40.2378ZM43.7628 57.3003H53.0378V56.3003H43.7628V57.3003ZM22.6128 26.7003V36.1503H23.6128V26.7003H22.6128ZM56.2128 53.1253C56.2128 54.8788 54.7913 56.3003 53.0378 56.3003V57.3003C55.3436 57.3003 57.2128 55.4311 57.2128 53.1253H56.2128ZM39.5878 53.1253C39.5878 55.4311 41.457 57.3003 43.7628 57.3003V56.3003C42.0093 56.3003 40.5878 54.8788 40.5878 53.1253H39.5878ZM26.7003 22.6128C24.4428 22.6128 22.6128 24.4428 22.6128 26.7003H23.6128C23.6128 24.9951 24.9951 23.6128 26.7003 23.6128V22.6128ZM26.7003 39.2378C24.9951 39.2378 23.6128 37.8555 23.6128 36.1503H22.6128C22.6128 38.4078 24.4428 40.2378 26.7003 40.2378V39.2378Z" fill="currentColor" />
</svg>