<svg width="80" height="80" viewBox="0 0 80 80" fill="none" xmlns="http://www.w3.org/2000/svg">
  <path d="M7.17987 15.9202C5 20.1984 5 25.799 5 37V43C5 54.201 5 59.8016 7.17987 64.0798C9.09734 67.8431 12.1569 70.9027 15.9202 72.8201C20.1984 75 25.799 75 37 75H43C54.201 75 59.8016 75 64.0798 72.8201C67.8431 70.9027 70.9027 67.8431 72.8201 64.0798C75 59.8016 75 54.201 75 43V37C75 25.799 75 20.1984 72.8201 15.9202C70.9027 12.1569 67.8431 9.09734 64.0798 7.17987C59.8016 5 54.201 5 43 5H37C25.799 5 20.1984 5 15.9202 7.17987C12.1569 9.09734 9.09734 12.1569 7.17987 15.9202Z" stroke="currentColor" stroke-linecap="round" stroke-linejoin="round" />
  <path fill-rule="evenodd" clip-rule="evenodd" d="M37.3523 33.4447C37.3523 31.838 38.6659 31.2201 40.8416 31.2201C43.9614 31.2201 47.9022 32.1676 51.022 33.8567V24.1753C47.6149 22.8158 44.2487 22.2803 40.8416 22.2803C32.5083 22.2803 26.9666 26.6472 26.9666 33.9391C26.9666 45.3096 42.5657 43.4969 42.5657 48.3994C42.5657 50.2944 40.9237 50.9124 38.6248 50.9124C35.2177 50.9124 30.8663 49.5117 27.4181 47.6166V57.4216C31.2358 59.0695 35.0945 59.7698 38.6248 59.7698C47.1633 59.7698 53.0335 55.5265 53.0335 48.1522C52.9924 35.8754 37.3523 38.0588 37.3523 33.4447Z" stroke="currentColor" stroke-linecap="round" stroke-linejoin="round" />
</svg>