<svg viewBox="0 0 80 80" fill="none">
  <path d="M69.2897 21.6077C71.2473 20.4537 74.4836 17.3403 75.5231 13.608C73.4608 14.9377 69.2423 16.4753 66.4392 17.1321C63.786 14.2819 60.0064 12.5 55.8117 12.5C47.7835 12.5 41.2754 19.0273 41.2754 27.0791C41.2754 28.2011 41.4017 29.2934 41.6409 30.3426C28.953 30.0464 18.6971 24.7217 11.8538 15.2409C10.1676 17.4569 6.73698 27.7206 16.2728 34.5436C14.9936 34.6602 11.7375 34.1937 9.81869 32.8524C9.46982 35.5933 11.0397 44.574 21.2733 47.14C19.2383 47.9564 15.6332 47.6065 14.8773 47.3149C15.4007 50.2307 19.4127 57.0538 28.3089 57.462C22.3952 63.1028 12.8875 63.9377 7.5 63.589C13.8454 67.6477 21.3844 70 29.4719 70C53.1912 70 70.8682 49.8451 70.3443 26.7411C73.16 24.7893 76.5911 21.3031 77.5 19.2064C75.662 20.4534 71.0093 21.3476 69.2897 21.6077ZM69.2897 21.6077C69.2738 21.5683 69.306 21.6469 69.2897 21.6077Z" stroke="currentColor" stroke-linecap="round" stroke-linejoin="round" />
</svg>