<svg width="80" height="80" viewBox="0 0 80 80" fill="none" xmlns="http://www.w3.org/2000/svg">
  <path d="M47.5428 63.0251C49.9493 61.9329 52.5987 60.587 55.1658 58.996C52.6855 61.8513 50.0274 62.608 47.5428 63.0251Z" stroke="currentColor" stroke-linecap="round" stroke-linejoin="round" />
  <path d="M39.3388 67.3124C39.3388 68.0692 41.4115 68.0692 41.6543 68.0692C49.698 68.0692 63.2874 60.3376 65.5249 49.7507C64.4538 51.0923 63.2874 52.3479 62.1253 53.5305C61.6718 53.9566 61.1797 54.3458 60.7043 54.7218C59.966 55.3057 59.2678 55.8579 58.8168 56.4674C58.4795 56.8564 58.2531 57.3554 58.0272 57.8532C57.8611 58.2194 57.6953 58.5849 57.4858 58.9057C56.6576 60.2516 54.8363 61.8512 53.5918 62.6081C52.3517 63.3649 51.0204 63.8637 49.9493 64.1217C49.0344 64.3668 47.4561 64.4571 47.2913 64.4571C47.1705 64.4571 46.5746 64.3932 45.9762 64.3289C45.3724 64.2642 44.7659 64.1991 44.6418 64.1991C44.477 64.1991 41.8234 64.8742 40.5832 65.3816C40.0022 65.545 39.3388 66.8953 39.3388 67.3124Z" stroke="currentColor" stroke-linecap="round" stroke-linejoin="round" />
  <path fill-rule="evenodd" clip-rule="evenodd" d="M40 75C59.33 75 75 59.33 75 40C75 20.67 59.33 5 40 5C20.67 5 5 20.67 5 40C5 59.33 20.67 75 40 75ZM59.8879 17.4823C55.7511 13.2725 50.9423 11.432 46.7189 10.5075C45.1405 10.1678 43.4841 10 42.0749 10C40.8304 10 40.167 10 38.8444 10.3398C38.2559 10.4476 37.4609 10.7993 36.9248 11.0365C36.6275 11.168 36.4098 11.2643 36.3511 11.2643C36.303 11.2643 36.2544 11.2575 36.181 11.2473C35.8838 11.2061 35.1801 11.1085 32.4571 11.174C32.2143 11.174 28.8147 11.2642 28.8147 12.7779C28.8147 13.2724 29.643 14.0293 30.2197 14.0293C30.3893 14.0293 31.0105 13.6498 31.6245 13.2748C31.921 13.0937 32.2157 12.9137 32.4571 12.7779C32.3791 12.7779 32.2924 12.7779 32.2144 12.6876C32.7087 12.5199 33.3722 12.4383 33.615 12.4383C33.78 12.4383 34.1224 12.4383 34.287 12.5199C28.8927 15.9686 23.4248 18.996 18.1173 21.2622C17.8746 21.3466 17.612 21.4684 17.3491 21.5903C17.0765 21.7167 16.8036 21.8433 16.5519 21.9287C15.8798 22.1867 14.9736 22.6855 14.9736 23.4423C14.9736 24.3974 15.999 24.526 16.6077 24.6024C16.6458 24.6072 16.6822 24.6117 16.7167 24.6163L27.4835 24.3668C28.1331 24.4117 28.7825 24.4502 29.4301 24.4885C31.2639 24.5971 33.0842 24.7049 34.8594 24.9559C35.654 25.0563 36.926 25.2786 37.854 25.4408C38.4756 25.5494 38.9429 25.6311 39.009 25.6311C39.2297 25.6311 39.9713 24.914 40.4868 24.4155C40.7413 24.1695 40.9406 23.9768 40.9951 23.9498C37.1879 23.1929 32.9515 22.6854 29.2267 22.436L20.6887 22.3501C23.1777 21.0944 25.749 19.6625 28.2337 18.1489C28.4688 17.9985 28.9008 17.7033 29.4213 17.3477C30.9258 16.3195 33.1697 14.7861 33.5369 14.7861C34.8595 14.7861 42.981 16.7255 43.6488 16.9749C43.7312 16.8072 43.6488 16.7254 43.6488 16.7254C41.866 14.1461 39.647 13.8918 37.5142 13.6475C36.8665 13.5733 36.2267 13.5 35.6095 13.3628C36.0214 12.6876 36.6024 12.4383 37.023 12.4383C37.2659 12.4383 39.3386 12.8553 40.4184 13.1951C42.0748 13.7025 44.7243 15.6333 44.9758 17.4823V19.1637C44.5552 21.0944 43.2326 23.2745 41.4114 25.0462C33.9444 32.021 25.8271 35.0441 18.2822 36.8931C16.7948 37.2242 14.0586 37.6499 13.8938 37.6499C13.651 37.6499 13.7291 37.564 13.7291 37.564C13.8339 37.5093 13.9387 37.4467 14.0437 37.3841C14.2687 37.2498 14.4944 37.1152 14.7221 37.0565C15.8202 36.703 16.9746 36.4439 18.1346 36.1836C18.9075 36.0101 19.6829 35.8361 20.4459 35.6332C22.4319 35.1258 24.9122 34.2013 26.9849 33.3628H24.0839C23.1776 33.3628 10 34.2873 10 38.0714C10 40.0022 12.3155 40.0795 13.4862 40.0795C16.5811 40.0795 19.879 39.0827 22.9629 38.1506C23.34 38.0366 23.7139 37.9236 24.0839 37.8134C24.6451 37.6547 26.0404 37.0899 27.3869 36.5447C28.8494 35.9527 30.2544 35.3838 30.4711 35.3838C35.358 35.3838 43.3973 37.392 47.6251 39.4948C48.1333 39.7323 48.8494 40.203 49.4118 40.5725C49.8571 40.8652 50.206 41.0945 50.2788 41.0945C50.5216 41.0945 51.4366 40.2473 51.8485 39.8302C45.8039 35.8009 39.7462 34.4592 33.7015 33.6121C35.9434 32.2705 38.1809 30.8385 40.4184 28.9937C40.7601 28.7084 41.2084 28.2916 41.6479 27.883C42.374 27.2081 43.0758 26.5556 43.2325 26.5556C44.3122 26.5556 51.2718 29.1658 51.7704 29.4109C53.8432 30.4171 56.0808 31.5911 58.1535 33.1048C58.5655 32.52 58.895 31.8491 59.1465 31.2643C54.251 27.8113 49.2858 25.9708 44.555 24.7066C46.1334 22.4361 47.0485 20.1699 46.8838 17.8994H47.1264C51.4366 19.3227 55.7512 21.0041 60.0527 24.2894C59.888 23.3649 59.3936 22.2684 58.9817 21.5933C58.9325 21.5117 58.8836 21.427 58.8344 21.3416C58.6318 20.9903 58.4221 20.6268 58.1535 20.4193C57.5746 20.0788 56.9435 19.7656 56.3389 19.4656C55.8975 19.2465 55.4702 19.0344 55.0877 18.8239C52.8502 17.8134 50.1921 16.8072 48.0414 16.1407C47.7826 16.04 47.4988 15.9917 47.2241 15.945C46.7945 15.8719 46.3874 15.8026 46.1334 15.5429C45.8172 15.3175 45.5756 14.993 45.3293 14.6622C45.1198 14.3808 44.9069 14.0948 44.6418 13.8616C43.896 13.1951 42.7383 12.606 42.0749 12.348C41.9808 12.3124 41.8874 12.2764 41.7954 12.2409C41.4758 12.1177 41.1728 12.0009 40.917 11.9308C40.7091 11.8479 40.4833 11.806 40.2573 11.764C40.0259 11.7211 39.7943 11.678 39.5815 11.591C40.2536 11.4319 41.3247 11.3417 41.4894 11.3417C47.7899 11.3417 60.7161 16.8072 61.4663 25.2957V27.3942C60.0527 40.4193 36.0214 52.9456 20.3591 52.9456C20.223 52.9456 20.0881 52.9461 19.9541 52.9467C18.4565 52.9528 17.0747 52.9585 15.5503 52.1888C15.2164 52.0211 14.7221 51.6814 14.7221 51.5137C14.7221 50.3398 17.7878 48.9938 18.2041 48.9078C19.3662 48.409 20.6887 48.0692 22.02 47.8112C23.6764 47.4844 25.8271 47.3124 27.5703 47.3124C30.6806 47.3124 34.0565 48.1135 35.4152 48.4359C35.7575 48.5172 35.9718 48.568 36.0216 48.568C36.1143 48.568 36.6016 48.3813 37.1436 48.1736C37.5643 48.0124 38.018 47.8386 38.3458 47.7296C34.4519 45.9708 30.8007 45.5451 26.9849 45.5451C25.2547 45.5451 12.4803 46.0524 12.4803 51.6813C12.4803 55.4655 19.3661 55.6332 20.9401 55.6332C24.9988 55.6332 28.9796 54.8764 33.2074 53.6121C34.6167 53.195 36.0216 52.778 37.3528 52.2705C37.8406 52.093 38.4909 51.8261 39.0986 51.5767C39.9331 51.2341 40.6874 50.9245 40.8304 50.9245C40.9213 50.9245 41.1385 51.1035 41.3842 51.306C41.5843 51.4708 41.8032 51.6511 41.9881 51.7631C43.6488 53.0273 44.6418 55.3838 44.6418 56.8975C44.6418 57.7317 44.0608 59.6624 43.3974 60.5096L43.4023 60.5081C43.986 60.3366 44.5566 60.1689 45.0539 59.8302C45.4702 59.5851 45.9688 57.564 45.9688 56.6395C45.9688 54.7087 44.7243 52.0211 42.5693 50.1677C46.1336 48.409 49.8627 46.2202 53.4227 43.5326C56.4928 46.3879 57.6505 49.4152 57.7372 52.2705C57.7372 52.2471 57.8739 52.1399 58.0687 51.9871C58.5522 51.6078 59.3937 50.9477 59.3937 50.5891C59.3937 50.4171 59.1464 49.4152 58.9817 48.9078C57.98 45.3816 55.0012 42.3501 55.0012 42.3501C55.0012 42.2209 55.6679 41.5735 56.4606 40.8038C57.1982 40.0877 58.0449 39.2655 58.5653 38.6562L58.5785 38.6406C59.0685 38.0609 59.5621 37.477 59.9747 36.8931C60.0834 36.7544 60.1917 36.608 60.2998 36.462C60.5233 36.1597 60.7455 35.8593 60.9677 35.6332C63.2875 37.8994 64.4539 40.1698 65.2822 42.436C65.2822 42.4122 65.3514 42.1965 65.4516 41.8844C65.714 41.0675 66.1884 39.5899 66.1884 39.1637C66.1884 38.1488 62.0475 33.5305 62.0475 33.5305C62.0475 33.4502 62.1995 33.1009 62.3846 32.6755C62.5862 32.2122 62.8271 31.6588 62.9537 31.2643C63.3743 30.0817 63.617 28.9077 63.7818 27.8112C66.2751 30.3397 67.5196 34.2872 67.5196 37.0565C67.5196 51.9307 44.6419 64.3668 29.8858 64.3668C29.721 64.3668 27.6483 64.1991 26.6554 64.0314C26.161 63.9497 23.8411 63.4423 23.8411 62.6081C23.8411 61.4341 26.742 60.6773 26.9068 60.6773C28.3019 60.3187 28.7004 60.3231 29.6309 60.3334C29.8051 60.3354 29.998 60.3375 30.2197 60.3375C32.6219 60.3375 35.28 60.8364 37.5955 61.6835C37.7468 61.7186 37.8971 61.7908 38.0398 61.8592C38.212 61.9418 38.3729 62.019 38.5104 62.019C38.6393 62.019 39.323 61.8136 39.8947 61.6419C40.0538 61.5941 40.2042 61.5489 40.3316 61.5115C36.7672 59.8301 33.1206 58.8239 29.643 58.8239C28.3985 58.8239 21.9331 59.0733 21.9331 62.7758C21.9331 66.7276 29.1486 66.8093 30.7139 66.8093C32.2889 66.8093 34.725 66.422 36.6071 66.1227C37.202 66.0282 37.7415 65.9424 38.1809 65.8804C38.0161 66.4695 37.8469 67.2221 37.8469 67.4801C37.8469 69.8323 41.1598 70 42.3176 70C51.9353 70 67.2682 60.6773 68.1831 47.7296V45.6311C68.1831 45.4739 68.147 45.4158 68.1202 45.3728C68.1045 45.3475 68.0921 45.3275 68.0921 45.2957C69.1761 42.9435 70 39.9205 70 37.4823C70 36.2998 69.4189 33.1048 69.0893 32.4383C68.9732 32.2 68.8925 31.9436 68.8145 31.6955C68.7263 31.4154 68.6414 31.1457 68.5126 30.9245C67.9272 29.5829 67.2681 28.3186 66.1884 27.1447C65.8011 26.632 65.3418 26.1766 64.8948 25.7333C64.3857 25.2285 63.8923 24.7394 63.5391 24.1991C63.2824 23.8421 63.1823 23.357 63.0881 22.9001C63.028 22.6085 62.9702 22.3284 62.8756 22.1006C62.3813 20.6773 61.2191 18.824 59.8879 17.4823Z" stroke="currentColor" stroke-linecap="round" stroke-linejoin="round" />
</svg>