<svg viewBox="0 0 80 80" fill="none">
  <path d="M63.8124 67.9151L55.2652 59.368M15.8124 67.916L24.3599 59.3681M46.4978 35.3589L42.1096 41.0944M53.7202 52.0034L42.8132 45.7986M46.7939 19.1662L57.8099 11.1626L71.1247 20.8364L66.9169 33.7864L46.7939 19.1662ZM13.0059 33.5675L33.0138 19.0309L22.1842 11.1628L8.86938 20.8365L13.0059 33.5675ZM39.8125 20.0942L62.6379 36.6778L53.9193 63.5106H25.7057L16.9871 36.6778L39.8125 20.0942ZM30.5174 33.03C30.5192 33.0285 30.5211 33.027 30.5229 33.0254L31.8091 34.5572C31.8069 34.559 31.8047 34.5608 31.8025 34.5626L30.5174 33.03ZM25.5544 41.4305C25.5548 41.4281 25.5553 41.4258 25.5557 41.4235L27.5257 41.7701C27.5252 41.7729 27.5246 41.7757 27.5241 41.7785L25.5544 41.4305ZM27.1509 51.1357C27.1497 51.1337 27.1486 51.1316 27.1474 51.1296L28.8794 50.1288C28.8807 50.1313 28.8821 50.1337 28.8835 50.1362L27.1509 51.1357ZM34.6912 57.5583C34.689 57.5574 34.6868 57.5566 34.6847 57.5558L35.3681 55.6761C35.3707 55.677 35.3733 55.678 35.376 55.679L34.6912 57.5583ZM44.6233 57.5559C44.6211 57.5567 44.6189 57.5575 44.6167 57.5583L43.932 55.679C43.9346 55.6781 43.9372 55.6771 43.9399 55.6761L44.6233 57.5559ZM52.1606 51.1296C52.1595 51.1317 52.1583 51.1337 52.1572 51.1358L50.4246 50.1363C50.4259 50.1338 50.4273 50.1314 50.4287 50.1289L52.1606 51.1296ZM53.7524 41.4234C53.7528 41.4258 53.7533 41.4281 53.7537 41.4304L51.784 41.7785C51.7835 41.7757 51.7829 41.7729 51.7824 41.7701L53.7524 41.4234ZM48.7851 33.0254C48.7869 33.0269 48.7888 33.0284 48.7906 33.0299L47.5055 34.5625C47.5033 34.5607 47.5011 34.5589 47.4989 34.5571L48.7851 33.0254ZM39.6503 29.7453C39.6528 29.7453 39.6552 29.7453 39.6576 29.7453L39.6583 31.7453C39.6554 31.7453 39.6525 31.7453 39.6497 31.7453L39.6503 29.7453ZM36.8132 41.0944H42.8132V47.0944H36.8132V41.0944Z" stroke="currentColor" stroke-linecap="square" />
</svg>