<svg viewBox="0 0 80 80" fill="none">
  <path d="M63.8124 67.9151L55.2652 59.368M15.8124 67.916L24.3599 59.3681M46.4978 35.3589L42.1096 41.0944M53.7202 52.0034L42.8132 45.7986M46.7939 19.1662L57.8099 11.1626L71.1247 20.8364L66.9169 33.7864L46.7939 19.1662ZM13.0059 33.5675L33.0138 19.0309L22.1842 11.1628L8.86938 20.8365L13.0059 33.5675ZM39.8125 20.0942L62.6379 36.6778L53.9193 63.5106H25.7057L16.9871 36.6778L39.8125 20.0942ZM26.1884 36.1414L26.1926 36.1383L28.0891 37.2326L28.0839 37.2364L26.1884 36.1414ZM24.5088 43.9155L24.5072 43.9105L26.6099 43.91L26.6119 43.916L24.5088 43.9155ZM26.9013 51.2787L26.8996 51.2737L28.6702 50.2508L28.6722 50.2569L26.9013 51.2787ZM31.2675 58.4429H31.2627L32.4167 56.4429H32.4229L31.2675 58.4429ZM39.6566 58.4429H39.6513L39.6508 56.4429H39.6571L39.6566 58.4429ZM48.0452 58.4429H48.0404L46.885 56.4429H46.8912L48.0452 58.4429ZM52.4084 51.2738L52.4068 51.2788L50.6359 50.257L50.6379 50.2509L52.4084 51.2738ZM54.8009 43.9105L54.7993 43.9155L52.6962 43.916L52.6982 43.91L54.8009 43.9105ZM53.1154 36.1383L53.1196 36.1413L51.2241 37.2363L51.2189 37.2325L53.1154 36.1383ZM46.792 31.5441L46.7964 31.5473L45.7914 33.2892L45.7861 33.2854L46.792 31.5441ZM39.6541 26.358L39.6558 26.3593L39.6565 28.8319L39.6541 28.8302L39.6515 28.8321L39.6521 26.3595L39.6541 26.358ZM32.516 31.5442L33.5219 33.2855L33.5166 33.2893L32.5116 31.5474L32.516 31.5442ZM36.8132 41.0944H42.8132V47.0944H36.8132V41.0944Z" stroke="currentColor" stroke-linecap="square" />
</svg>