<svg viewBox="0 0 80 80" fill="none">
  <path d="M64.9373 27.3719L51.0125 36.6998V43H29.0403V36.7062L15.0664 27.3857L20.6153 19.0665L35.5548 29.031H44.4926L59.3718 19.0637L64.9373 27.3719Z" stroke="currentColor" stroke-linecap="square" />
  <path d="M28.0743 47.9259L18.5171 57.4831L29.9865 73.0231L38.0324 67.0848L31.6734 58.469L35.5468 54.5956L28.0743 47.9259Z" stroke="currentColor" stroke-linecap="square" />
  <path d="M44.481 54.5706L47.9514 58.041L48.3957 58.4799L42.0168 67.0608L50.0422 73.0267L61.6052 57.4722L55.0009 50.9483L51.9535 47.901L44.481 54.5706Z" stroke="currentColor" stroke-linecap="square" />
  <path d="M39.9999 9L50.4616 16.6008L46.4656 28.8992H33.5343L29.5383 16.6008L39.9999 9Z" stroke="currentColor" stroke-linecap="square" />
  <path d="M43.9999 55L51.9999 47.8595V43H27.9999V47.8595L35.9999 55H43.9999Z" stroke="currentColor" stroke-linecap="square" />
</svg>