<svg viewBox="0 0 80 80" fill="none">
  <path d="M12 48.4209L12 31.5788L29 31.5788V30.7367H17L17 21.15L22.8072 15.3429L28.464 20.9997L26.727 22.7367H29V11.9297L37 11.9297V39.5788H20V40.4209H37L37 68.07H29V57.263H26.727L28.464 59L22.8072 64.6569L17 58.8497V49.263H29V48.4209H12Z" stroke="currentColor" stroke-linecap="square" />
  <path d="M68 48.4209V31.5788L51 31.5788V30.7367H63V21.15L57.1928 15.3429L51.536 20.9997L53.273 22.7367H51V11.9297L43 11.9297L43 39.5788H60V40.4209H43V68.07H51V57.263H53.273L51.536 59L57.1928 64.6569L63 58.8497V49.263H51V48.4209H68Z" stroke="currentColor" stroke-linecap="square" />
</svg>