<svg viewBox="0 0 80 80" fill="none">
  <path d="M33 18V34M64.0365 47.3886L65.089 52H70V34H10V52H14.911L15.9635 47.3886M64.0365 47.3886L57 44L49.9635 47.3886M64.0365 47.3886L65.7744 55.0027L60.905 61.1087H53.095L48.2256 55.0027L49.9635 47.3886M49.9635 47.3886L48.911 52H31.089L30.0365 47.3886M30.0365 47.3886L23 44L15.9635 47.3886M30.0365 47.3886L31.7744 55.0027L26.905 61.1087H19.095L14.2256 55.0027L15.9635 47.3886M48.7706 18L59 34H17L23.2622 18H48.7706Z" stroke="currentColor" stroke-linecap="square" />
</svg>