<svg viewBox="0 0 80 80" fill="none">
  <path d="M26 54L62 18M29 15H23V23H29V15ZM29 29V51H51V57H23V29H29ZM57 51V57H65V51H57ZM51 65H57V23H15V29H51V65Z" stroke="currentColor" stroke-linecap="square" />
  <path d="M26 54L62 18M29 15H23V23H29V15ZM29 29V51H51V57H23V29H29ZM57 51V57H65V51H57ZM51 65H57V23H15V29H51V65Z" stroke="currentColor" stroke-linecap="square" />
  <path d="M26 54L62 18M29 15H23V23H29V15ZM29 29V51H51V57H23V29H29ZM57 51V57H65V51H57ZM51 65H57V23H15V29H51V65Z" stroke="currentColor" stroke-linecap="square" />
</svg>