<svg viewBox="0 0 80 80" fill="none">
  <path d="M31.0001 67H49.0001L49.0001 49L67 49V31L49.0001 31L49.0001 13L31.0001 13L31.0001 31L13 31V49H31L31.0001 67Z" stroke="currentColor" stroke-linecap="square" />
  <path d="M44.0001 40C44.0001 42.2091 42.2092 44 40.0001 44C37.791 44 36.0001 42.2091 36.0001 40C36.0001 37.7909 37.791 36 40.0001 36C42.2092 36 44.0001 37.7909 44.0001 40Z" stroke="currentColor" stroke-linecap="square" />
  <path d="M43.9895 22H35.9895L39.9895 18L43.9895 22Z" stroke="currentColor" stroke-linecap="square" />
  <path d="M58.0001 43.9894V35.9894L62.0001 39.9894L58.0001 43.9894Z" stroke="currentColor" stroke-linecap="square" />
  <path d="M43.9895 58H35.9895L39.9895 62L43.9895 58Z" stroke="currentColor" stroke-linecap="square" />
  <path d="M22.0001 43.9894L22.0001 35.9894L18.0001 39.9894L22.0001 43.9894Z" stroke="currentColor" stroke-linecap="square" />
</svg>