<svg viewBox="0 0 80 80" fill="none">
  <path d="M40.3161 44.0003H40.3184L40.3172 52.0003H40.3145L40.3134 44.0003H40.3161ZM40.3161 44.0003C36.2451 44.0003 32.2139 43.5861 28.4528 42.7821C24.6917 41.978 21.2743 40.7994 18.3957 39.3137C15.5171 37.828 13.2336 36.0641 11.6757 34.1229C10.1178 32.1817 9.31601 30.1012 9.31601 28M40.3161 44.0003C44.3871 44.0003 48.4181 43.5861 52.1792 42.7821C55.9403 41.978 59.3577 40.7994 62.2363 39.3137C65.1149 37.828 67.3984 36.0641 68.9563 34.1229C70.5142 32.1817 71.316 30.1012 71.316 28M4 37.1041L10.1948 31.7827L10.1968 31.787L4.0012 37.1061L4 37.1041ZM14.2236 46.1585L14.2217 46.1575L18.5927 39.4147L18.5967 39.4168L14.2236 46.1585ZM27.0602 50.6647L27.0577 50.6642L29.338 42.9634L29.3428 42.9644L27.0602 50.6647ZM53.574 50.6643L53.5715 50.6648L51.2889 42.9644L51.2937 42.9635L53.574 50.6643ZM66.4102 46.1577L66.4082 46.1587L62.0351 39.4169L62.0392 39.4149L66.4102 46.1577ZM76.632 37.1044L76.6308 37.1063L70.4353 31.7873L70.4373 31.783L76.632 37.1044Z" stroke="currentColor" stroke-linecap="square" />
</svg>