<svg viewBox="0 0 80 80" fill="none">
  <path d="M64.9707 45.0001L72 52.0294V61.9706L64.9705 69.0001H15.0295L8 61.9706V52.0294L15.0293 45.0001H24.9707M64.9707 45.0001H55.0293L50 50.0294L44.9707 45.0001H35.0293M64.9707 45.0001L68 48.0294V33.5042L51.8856 11L33.2 37.0951L25.3143 26.0826L20 33.5042V45.0001L24.9707 45.0001M64.9707 45.0001L60.7999 45.0001V38.2925L49.9871 24.4248L35.2539 45.0001L35.0293 45.0001M35.0293 45.0001L30 50.0294L24.9707 45.0001M35.0293 45.0001L32.7664 47.2631L27.1999 39.4893V47.2293L24.9707 45.0001M66.9495 67.021H68V65.9706L66.9495 67.021Z" stroke="currentColor" stroke-linecap="square" />
</svg>