<svg viewBox="0 0 80 80" fill="none">
  <path d="M39.9998 10L65.9806 25V55L39.9998 70L14.019 55V25L39.9998 10Z" stroke="currentColor" stroke-linecap="square" />
  <path d="M33.7453 13.6051L35.0992 14.5914H38.0051L39.5763 15.9712H50.3637L51.9705 16.8989L53.6854 18.5703H50.983L49.8761 20.7221L46.1438 20.5276L43.6299 22.9662L39.6077 23.0946L39.5763 26.783L34.3914 32.2074L30.8405 32.1753L30.302 35.8193L27.4782 37.6944L27.7611 40.9994L24.9135 41.7689L21.4285 36.3146L18.0861 40.8068L17.2308 43.7191L16.4217 43.5908L14.0246 39.7385V24.9908L33.7453 13.6051Z" stroke="currentColor" stroke-linecap="square" />
  <path d="M52.139 62.9855L50.6079 63.8694L49.4118 62.3054L51.7166 58.9771L53.6854 60.7652L52.139 62.9855Z" stroke="currentColor" stroke-linecap="square" />
  <path d="M27.4782 43.7268L24.3673 44.3365L28.0677 50.0801L31.7518 50.9935L33.5613 49.1817L27.4782 43.7268Z" stroke="currentColor" stroke-linecap="square" />
  <path d="M43.5671 28.0681L40.0154 27.0966L36.9195 31.7045L39.5763 32.4641L43.5671 28.0681Z" stroke="currentColor" stroke-linecap="square" />
  <path d="M37.408 47.3527L36.8424 49.8555L42.4044 50.0801L43.6613 49.1817L43.8499 47.3527H37.408Z" stroke="currentColor" stroke-linecap="square" />
  <path d="M37.408 52.3904L34.1086 55.7596L34.4728 60.6369H40.5818L43.0063 62.883H46.7408V56.6195L42.7186 52.1337L37.408 52.3904Z" stroke="currentColor" stroke-linecap="square" />
  <path d="M34.4728 46.0331L31.1239 43.9174L35.0992 39.8336L36.8424 40.331L35.9311 41.7689L36.1511 43.7268L34.4728 46.0331Z" stroke="currentColor" stroke-linecap="square" />
</svg>