<svg viewBox="0 0 80 80" fill="none">
  <path d="M40 9.99992L65.9808 24.9999V54.9999L40 69.9999L14.0193 54.9999V24.9999L40 9.99992Z" stroke="currentColor" stroke-linecap="square" />
  <path d="M38.4746 10.8747L40.0056 9.99072L42.9063 11.6654L39.3666 15.5968L35.9788 14.6202L38.4746 10.8747Z" stroke="currentColor" stroke-linecap="square" />
  <path d="M35.0376 12.859L30.8966 15.2498L32.7551 15.2668L35.0376 12.859Z" stroke="currentColor" stroke-linecap="square" />
  <path d="M27.9765 16.9357L27.5405 19.9106L23.9397 22.3214L24.3004 26.5707L20.6694 27.5602L17.6975 22.8704L27.9765 16.9357Z" stroke="currentColor" stroke-linecap="square" />
  <path d="M23.9397 30.0774L19.9728 30.8613L24.6915 38.246L29.3892 39.4204L31.6966 37.0908L23.9397 30.0774Z" stroke="currentColor" stroke-linecap="square" />
  <path d="M36.6018 34.7393L35.8805 37.9572L42.9729 38.246L44.5756 37.0908L44.8161 34.7393H36.6018Z" stroke="currentColor" stroke-linecap="square" />
  <path d="M36.6018 41.2163L32.3944 45.5481L32.8588 51.8189H40.6488L43.7403 54.7068H48.5025V46.6537L43.3736 40.8863L36.6018 41.2163Z" stroke="currentColor" stroke-linecap="square" />
  <path d="M32.8588 33.0427L28.5886 30.3225L33.6576 25.0718L35.8805 25.7114L34.7185 27.5602L34.999 30.0774L32.8588 33.0427Z" stroke="currentColor" stroke-linecap="square" />
  <path d="M54.0444 56.7805L51.9084 53.9642L54.8474 49.6849L57.3579 51.984L54.0444 56.7805Z" stroke="currentColor" stroke-linecap="square" />
</svg>