<svg viewBox="0 0 80 80" fill="none">
  <path d="M60.7089 29.3323L63.0242 31.9623L61.182 33.793L58.4229 33.6992L58.0221 34.4307L54.5291 33.1853L54.3955 32.0782L50.9748 32.1943L50.429 31.5103L48.2136 34.3581L47.6388 39.775L51.2238 43.3848L55.4062 43.4364L55.5026 48.8148L57.2734 50.2177L57.4227 54.9621L58.6177 56.6123L60.9828 56.6639L64.1694 53.3119L64.1943 45.5507L65.9864 43.7105V40.0067L62.128 36.0105L63.1238 35.3401L65.9864 38.3539V29.1203L65.0478 29.9951L63.3918 29.0535L60.7089 29.3323ZM60.7089 29.3323L58.9912 29.4354L58.0949 30.3379L55.5026 30.5758M60.7089 29.3323L61.8007 26.9684L64.9179 26.733L65.9864 28.2671V24.9908L58.3846 20.6019L57.2983 21.7774L57.1738 23.1698L53.6386 23.2471L51.165 25.5132M51.165 25.5132L49.5963 19.5328L45.8706 22.4668L45.6745 25.344L51.165 25.5132ZM51.165 25.5132L49.8909 28.2628L47.6959 28.9745L47.9249 30.4571L50.2031 30.6988L52.369 28.5845L53.8129 28.6103M53.8129 28.6103L55.5026 30.5758M53.8129 28.6103C53.8129 28.6103 54.9549 30.0257 55.5026 30.5758M40 10L65.9808 25V55L40 70L14.0193 55V25L40 10ZM30.0507 15.7383L34.4702 13.1867L39.6723 12.8817L39.988 18.5066L34.5774 23.8917L32.1041 20.9007L32.1788 18.838L29.9382 16.4142L30.0507 15.7383ZM25.0016 18.6534L26.5799 17.7421L27.6229 19.1732L25.706 19.2247L25.0016 18.6534ZM14.0249 34.6483V24.9908L19.2205 21.9911L20.7567 23.627L23.4319 23.3474L23.9149 19.9529L25.4261 21.4864L27.7226 21.7639L28.2967 23.627L21.637 30.6038L21.8666 33.6022L19.9912 31.3174H16.7762V33.9733L19.6085 34.8058L21.8666 37.3825L26.3416 37.5807L28.5646 40.078L31.0142 40.844V44.3196L23.1297 52.565V58.2733L21.3401 56.9714L20.3357 54.2696V47.5702L17.8096 44.3196L17.6565 39.5627L19.4171 37.5807L17.8861 35.6779L14.4381 35.1114L14.0249 34.6483ZM54.8674 19.5328L55.48 18.925L57.2204 19.9298L55.456 21.4938L54.8674 19.5328Z" stroke="currentColor" stroke-linecap="square" />
</svg>