<svg viewBox="0 0 80 80" fill="none">
  <path d="M40 10L65.9808 25V55L40 70L14.0193 55V25L40 10Z" stroke="currentColor" stroke-linecap="square" />
  <path d="M18.9785 22.1308L20.3397 21.3449L23.8348 21.5302L28.6911 23.9131L34.5187 23.1704L48.212 25.6224L50.1833 28.7304L47.7253 31.5474L51.4153 35.4536L55.7212 35.0061L56.4985 29.575L58.9309 32.0286L62.6271 32.4726L63.5512 35.4536L52.8322 46.6165L53.2018 51.4138L50.1833 47.7582H45.0086V52.0077L49.5672 53.3396L53.2018 57.4623L60.4044 57.7794L60.6606 58.0656L46.595 66.1864L46.4255 60.9507L49.2592 57.7794L46.7951 54.735L41.2454 53.8286L32.38 43.9526L31.2095 35.073L26.263 31.0915L20.921 32.8878L18.9785 30.8878V22.1308Z" stroke="currentColor" stroke-linecap="square" />
  <path d="M39.9475 21.5302V19.1275L49.2592 18.2611L47.7253 23.1704L39.9475 21.5302Z" stroke="currentColor" stroke-linecap="square" />
  <path d="M51.8646 22.349L59.3813 28.4099L62.4667 28.3274L55.7212 19.1275L51.8646 22.349Z" stroke="currentColor" stroke-linecap="square" />
</svg>