<svg viewBox="0 0 80 80" fill="none">
  <path d="M40 10L65.9808 25V55L40 70L14.0193 55V25L40 10Z" stroke="currentColor" stroke-linecap="square" />
  <path d="M31.4711 14.9182L36.4574 12.0393L35.2985 15.7189L31.4711 14.9182Z" stroke="currentColor" stroke-linecap="square" />
  <path d="M18.8667 22.1954L28.8748 16.4172L35.6801 17.6261L37.2256 20.0434L35.2985 22.2344L38.1916 25.2725L41.5675 24.9245L42.1769 20.7003L44.084 22.6086L46.9819 22.954L47.7063 25.2725L39.3024 33.9548L39.5922 37.6861L37.2256 34.8428H33.1685V38.1479L36.7426 39.1839L39.5922 42.3904L45.2392 42.6371L48.0444 45.7449L51.1355 46.6981V51.0234L41.1861 61.2842V68.3879L38.9278 66.7678L37.6603 63.4055V55.0685L34.4726 51.0234L34.2794 45.1036L36.5011 42.6371L34.5692 40.2692L30.2181 39.5642L23.2674 31.8829L22.3497 24.9765L18.8667 22.1954Z" stroke="currentColor" stroke-linecap="square" />
  <path d="M49.8799 15.6917L59.8589 21.4531L55.632 25.602L52.5109 21.8798L52.6052 19.3128L49.7778 16.2966L49.8799 15.6917Z" stroke="currentColor" stroke-linecap="square" />
  <path d="M38.5438 15.0801L44.4371 19.7941L46.8561 19.73L41.5675 12.5745L38.5438 15.0801Z" stroke="currentColor" stroke-linecap="square" />
</svg>