<svg viewBox="0 0 80 80" fill="none">
  <path d="M40 9.99992L65.9808 24.9999V54.9999L40 69.9999L14.0193 54.9999V24.9999L40 9.99992Z" stroke="currentColor" stroke-linecap="square" />
  <path d="M57.237 60.0422L48.4512 65.1147H43.5297L43.112 59.4535L46.8962 55.5429L52.9868 55.2449L57.237 60.0422Z" stroke="currentColor" stroke-linecap="square" />
  <path d="M56.1491 19.3112L40.0056 9.99072L14.0249 24.9907V38.4101L14.1006 38.485L18.6361 38.5122L22.8273 45.329L23.7553 45.478L24.7362 42.0977L28.5695 36.8834L32.5664 43.2144L35.8322 42.3211L35.5078 38.485L38.7464 36.3085L39.364 32.0789L43.4364 32.1162L49.3829 25.82L49.4189 21.5388L54.0319 21.3898L56.1491 19.3112Z" stroke="currentColor" stroke-linecap="square" />
  <path d="M14.0249 40.3235L15.7944 42.0977L14.0249 43.8726V40.3235Z" stroke="currentColor" stroke-linecap="square" />
  <path d="M35.5078 45.4869L31.9399 46.1945L36.1839 52.8613L40.4091 53.9215L42.4844 51.8184L35.5078 45.4869Z" stroke="currentColor" stroke-linecap="square" />
  <path d="M53.9598 27.3117L49.8864 26.184L46.3359 31.5325L49.3829 32.4141L53.9598 27.3117Z" stroke="currentColor" stroke-linecap="square" />
  <path d="M46.8962 49.6955L46.2474 52.6006L52.6264 52.8613L54.0679 51.8184L54.2842 49.6955H46.8962Z" stroke="currentColor" stroke-linecap="square" />
  <path d="M43.5297 48.1638L39.689 45.7081L44.2481 40.968L46.2474 41.5453L45.2023 43.2144L45.4546 45.4869L43.5297 48.1638Z" stroke="currentColor" stroke-linecap="square" />
</svg>