<svg viewBox="0 0 80 80" fill="none">
  <path d="M40 9.99992L65.9808 24.9999V54.9999L40 69.9999L14.0193 54.9999V24.9999L40 9.99992Z" stroke="currentColor" stroke-linecap="square" />
  <path d="M40.2535 10.1338L40.0056 9.99072L37.6175 11.3695L39.7296 11.8166L40.2535 10.1338Z" stroke="currentColor" stroke-linecap="square" />
  <path d="M22.1062 20.3249L34.7084 13.0491L40.1673 14.0302L41.9404 16.8361L39.7296 19.3792L43.0485 22.9056L46.9212 22.5017L47.6204 17.5986L49.8081 19.8136L53.1324 20.2144L53.9635 22.9056L44.3228 32.9832L44.6553 37.3142L41.9404 34.0139H37.2862V37.8503L41.3863 39.0527L44.6553 42.7746L51.1333 43.0609L54.3514 46.6682L57.8974 47.7746V52.795L46.4837 64.7049V66.2506L42.874 68.3347L42.439 67.1671V57.4902L38.7822 52.795L38.5606 45.9238L41.1093 43.0609L38.893 40.3124L33.9015 39.4941L25.9279 30.5783L24.8752 22.562L22.1062 20.3249Z" stroke="currentColor" stroke-linecap="square" />
  <path d="M47.3566 14.2348L51.31 16.5173L50.2132 16.5467L47.3566 14.2348Z" stroke="currentColor" stroke-linecap="square" />
</svg>