<svg viewBox="0 0 80 80" fill="none">
  <path d="M34.4187 41.1729L31.187 41.1156L26.3395 45.8141L21.2409 45.277L20.7282 41.9822L25.6409 40.4007L28.4924 34.2905M34.4187 41.1729L38.2003 45.5406M34.4187 41.1729C34.4187 41.1729 36.9745 44.3182 38.2003 45.5406M38.2003 45.5406L44.0022 45.0119L46.0081 43.0065L49.8526 42.7773M49.8526 42.7773L55.0344 48.6218L50.9113 52.69L44.7363 52.4817L43.8392 54.1071L36.0216 51.3395L35.7226 48.8794L28.0668 49.1375L26.8451 47.6175L21.8868 53.9457L21.3248 59.2054L40.0056 69.9908L56.0517 60.7266L53.0286 57.6177L55.2573 56.1279L58.3739 59.3859L65.9864 54.9908V54.2622L63.8937 52.1743L64.9523 50.3408L65.9864 51.3573V24.9908L57.1755 19.9038L54.3658 19.915L49.9421 15.7276L49.1191 15.2525L42.9993 14.8727L36.7787 21.0007L38.0961 25.3584L44.2808 19.915L45.9524 21.9778L42.2192 25.9887L41.9406 29.0828L34.0286 29.2547L28.4924 34.2905M49.8526 42.7773L52.2962 37.5242L59.2728 37.0011L62.4704 41.5599L59.5635 44.2503L55.8571 42.1578L49.8526 42.7773ZM28.4924 34.2905L24.9815 21.0007L16.6431 27.5208L16.2042 33.9144L28.4924 34.2905ZM40 10L65.9808 25V55L40 70L14.0193 55V25L40 10Z" stroke="currentColor" stroke-linecap="square" />
</svg>