<svg viewBox="0 0 80 80" fill="none">
  <path d="M45.9861 31.1849L39.9427 25.1415L54.0852 10.999L73.8804 30.7942L61.7872 42.8874C61.7753 42.8996 61.7634 42.9118 61.7513 42.9239L42.3814 62.2938C41.0316 63.6435 38.8432 63.6435 37.4935 62.2938C36.1437 60.944 36.1437 58.7556 37.4935 57.4059L46.6733 48.2261L46.5921 48.1449L37.4123 57.3247C36.0625 58.6744 33.8741 58.6744 32.5244 57.3247C31.1746 55.9749 31.1746 53.7866 32.5244 52.4368L41.7042 43.257L41.623 43.1758L32.4432 52.3556C31.0934 53.7054 28.9051 53.7054 27.5553 52.3556C26.2056 51.0059 26.2056 48.8175 27.5553 47.4677L36.7351 38.2879L36.6536 38.2064L27.4738 47.3862C26.124 48.7359 23.9356 48.7359 22.5859 47.3862C21.297 46.0973 21.2389 44.0438 22.4115 42.6859L22.5926 42.5048M45.9861 31.1849C47.3358 32.5346 47.3358 34.723 45.9861 36.0728C44.6363 37.4225 42.448 37.4225 41.0982 36.0728L35.0614 30.036L22.5926 42.5048M45.9861 31.1849L37.7979 22.997C37.7729 22.9721 37.7477 22.9476 37.7222 22.9236L25.7995 11.0009L6 30.8005L20.1483 44.9488L22.5926 42.5048" stroke="currentColor" stroke-linecap="square" />
</svg>