<svg viewBox="0 0 80 80" fill="none">
  <path d="M40.0002 23.9996L38.105 22.1044L33.8989 31.2177L24.9996 28L22.5 30.4996L24.9998 33.0002M40.0002 23.9996L41.8942 22.1056L46.1 31.2182L55.0007 28L57.5004 30.4997L55.0002 32.9998M40.0002 23.9996L45 19L40 14L35 19L40.0002 23.9996ZM55.0002 32.9998L52.0002 36V44L27.9993 44.0001L28.0001 43.9983V36L24.9998 33.0002M55.0002 32.9998L60 38L65 33L60 28L55.0002 32.9998ZM24.9998 33.0002L20 28L15 33L20 38L24.9998 33.0002ZM29.4487 44.0005L26.3511 48.4397L29.0544 61.9758L40.0001 68L50.9457 61.9758L53.6491 48.4397L50.5514 44.0005H29.4487ZM39.9995 49L43.9995 53L39.9995 57L35.9995 53L39.9995 49Z" stroke="currentColor" stroke-linecap="square" />
</svg>