<svg viewBox="0 0 80 80" fill="none">
  <path d="M40 8L67.7129 24V56L40 72M40 8L12.2872 24V56L40 72M40 8L46.0107 11.4703L46.0305 25.4816L40 21.9999M40 8L33.9895 11.4703L33.9697 25.4816L40 21.9999M40 72L46.0107 68.5298L46.0305 54.5183L40 57.9999M40 72L33.9895 68.5298L33.9697 54.5183L40 57.9999M40 21.9999L55.5885 30.9999V48.9999L40 57.9999M40 21.9999L24.4116 30.9999V48.9999L40 57.9999M12.2873 33.9883V46.0118L24.4116 46.029V33.9711L12.2873 33.9883ZM67.7129 46.0118V33.9883L55.5885 33.9711V46.029L67.7129 46.0118Z" stroke="currentColor" stroke-linecap="square" />
</svg>