<svg viewBox="0 0 80 80" fill="none">
  <path d="M67.4256 23.7128L39.7128 7.71283L12 23.7128V55.7128L39.7128 71.7128L48.6368 66.5606L43.6524 56.5918C43.0346 55.3561 42.7129 53.9935 42.7129 52.612C42.7129 47.6971 46.6972 43.7128 51.6121 43.7128H67.4256V23.7128Z" stroke="currentColor" stroke-linecap="square" />
  <path d="M24.7129 44.7128L27.311 46.2128V49.2128L24.7129 50.7128L22.1148 49.2128V46.2128L24.7129 44.7128Z" stroke="currentColor" stroke-linecap="square" />
  <path d="M25.7129 27.7128L28.311 29.2128V32.2128L25.7129 33.7128L23.1148 32.2128V29.2128L25.7129 27.7128Z" stroke="currentColor" stroke-linecap="square" />
  <path d="M40 20L42.5981 21.5V24.5L40 26L37.4019 24.5V21.5L40 20Z" stroke="currentColor" stroke-linecap="square" />
  <path d="M54 28L56.5981 29.5V32.5L54 34L51.4019 32.5V29.5L54 28Z" stroke="currentColor" stroke-linecap="square" />
</svg>