<svg viewBox="0 0 80 80" fill="none">
  <path d="M14.3252 40.0395H24.5023V42.8941L22.7487 44.1682L24.4272 49.334H29.8588L31.5373 44.1682L29.7828 42.8935V40.0395H40.0395M14.3252 40.0395H24.4682V43.0498L22.7599 44.291L24.3946 49.3221H29.6847L31.3194 44.291L29.6111 43.0498V40.0395H40.0395M14.3252 40.0395V65.7538H40.0395M14.3252 40.0395V14.3252L40.0395 14.3252M40.0395 65.7538V55.4675H43.1934L44.4345 57.1758L49.4657 55.5411V50.251L44.4345 48.6163L43.1934 50.3246H40.0395V40.0395M40.0395 65.7538V55.4971H42.8935L44.1682 57.2516L49.334 55.5731V50.1415L44.1682 48.463L42.8942 50.2166H40.0395V40.0395M40.0395 65.7538L65.7538 65.7538V40.0395M40.0395 40.0395H50.3249V36.8854L48.6166 35.6442L50.2513 30.6131H55.5414L57.1761 35.6442L55.4678 36.8854V40.0395H65.7538M40.0395 40.0395V29.6108H36.7429L35.5017 31.3192L30.4706 29.6844V24.3944L35.5017 22.7597L36.7429 24.468H40.0395V14.3252M40.0395 40.0395V29.7828H37.1062L35.8315 31.5373L30.6657 29.8588V24.4272L35.8315 22.7487L37.1055 24.5023H40.0395V14.3252M65.7538 40.0395V14.3252H40.0395" stroke="currentColor" stroke-linecap="square" />
</svg>