<svg viewBox="0 0 80 80" fill="none">
  <path d="M29.9086 37.0386L29.7115 36.2803L27.0308 33.5996H19.5308L14.2808 38.8496V47.8496L28.552 60.337L26.1318 48.2184L29.7118 43.0878L28.0631 43.5M29.9086 37.0386L30.3575 36.9263L28.0631 37.5M29.9086 37.0386L40.0628 34.5M29.9086 37.0386L25.3107 19.35L31.5 25.2572L36.6632 22.9748L39.9993 14.5L43.3351 22.9742L48.4989 25.2569L54.6893 19.3486L50.0988 37.0089M28.0631 37.5V43.5M28.0631 37.5L40.0628 34.5M28.0631 43.5L40.0631 40.4997M50.0988 37.0089L50.4421 35.6883L52.5308 33.5996H60.0308L65.2808 38.8496V47.8496L51.0095 60.337L53.4298 48.2184L49.7304 42.9168L52.0631 43.5M50.0988 37.0089L52.0631 37.5M50.0988 37.0089L40.0628 34.5M52.0631 37.5V43.5M52.0631 37.5L40.0628 34.5M52.0631 43.5L40.0631 40.4997M40.0631 40.4997L49.7515 42.9218L53.4476 48.2186L50.7442 61.7548L39.7986 67.7789L28.8529 61.7548L26.1496 48.2186L29.7339 43.082L40.0631 40.4997Z" stroke="currentColor" stroke-linecap="square" />
</svg>