<svg viewBox="0 0 80 80" fill="none">
  <path d="M33.7242 52.4477L31.6001 43.1416L23 39L14.3999 43.1416L12.2758 52.4477M33.7242 52.4477L27.7727 59.9107H18.2273L12.2758 52.4477M33.7242 52.4477L33.2838 53H46.7162L46.2758 52.4477M12.2758 52.4477L12.7162 53H8V31H72V53H67.2838L67.7242 52.4477M67.7242 52.4477L65.6001 43.1416L57 39L48.3999 43.1416L46.2758 52.4477M67.7242 52.4477L61.7727 59.9107H52.2273L46.2758 52.4477M34.167 19H50.667L58.0003 31H34.167M34.167 19V31M34.167 19L14 31H34.167M36 36H42" stroke="currentColor" stroke-linecap="square" />
</svg>