<svg viewBox="0 0 80 80" fill="none">
  <path d="M50 33H74V28L64 18H6V48L16 58H16.6069L17.7453 53.0121M50 33V43H74M50 33H66L74 43M74 43V58H65.3931L64.2547 53.0121M64.2547 53.0121L58 50L51.7453 53.0121M64.2547 53.0121L65.7994 59.7802L61.4711 65.2077H54.5289L50.2006 59.7802L51.7453 53.0121M51.7453 53.0121L50.6069 58H31.3931L30.2547 53.0121M30.2547 53.0121L24 50L17.7453 53.0121M30.2547 53.0121L31.7994 59.7802L27.4711 65.2077H20.5289L16.2006 59.7802L17.7453 53.0121M32 14H48V18H32V14ZM18 33H38V43H18V33Z" stroke="currentColor" stroke-linecap="square" />
</svg>