<svg viewBox="0 0 80 80" fill="none">
  <path fill-rule="evenodd" clip-rule="evenodd" d="M33.1778 53.5944L43.0701 46.1216C43.2574 45.9801 43.409 45.7965 43.5124 45.5857L57.6451 16.7948C57.9961 16.0797 57.7269 15.2149 57.032 14.8254C56.3372 14.4358 55.459 14.6574 55.0321 15.33L37.9129 42.3007L30.2203 51.8869L33.1778 53.5944ZM40.5008 42.8087C40.9791 43.0849 41.143 43.6964 40.8669 44.1747C40.5907 44.653 39.9791 44.8169 39.5008 44.5408C39.0226 44.2646 38.8587 43.653 39.1348 43.1747C39.411 42.6964 40.0226 42.5326 40.5008 42.8087Z" stroke="currentColor" stroke-linecap="square" />
  <path d="M25.9998 67.9251L13.8755 60.9251L21.8755 47.0687L33.9998 54.0687L25.9998 67.9251Z" stroke="currentColor" stroke-linecap="square" />
  <path fill-rule="evenodd" clip-rule="evenodd" d="M46.8222 53.5944L36.93 46.1216C36.7426 45.9801 36.5911 45.7965 36.4876 45.5857L22.3549 16.7948C22.0039 16.0797 22.2731 15.2149 22.968 14.8254C23.6628 14.4358 24.541 14.6574 24.9679 15.33L42.0871 42.3007L49.7797 51.8869L46.8222 53.5944ZM39.4992 42.8087C39.0209 43.0849 38.857 43.6964 39.1331 44.1747C39.4093 44.653 40.0209 44.8169 40.4992 44.5408C40.9775 44.2646 41.1413 43.653 40.8652 43.1747C40.589 42.6964 39.9775 42.5326 39.4992 42.8087Z" stroke="currentColor" stroke-linecap="square" />
  <path d="M54.0002 67.9251L66.1245 60.9251L58.1245 47.0687L46.0002 54.0687L54.0002 67.9251Z" stroke="currentColor" stroke-linecap="square" />
</svg>