<svg viewBox="0 0 80 80" fill="none">
  <path d="M39.9994 28.0001L59.9994 36.0001L56.7603 47.8229L54.6666 46.6471L47.3333 50.7653L39.9999 46.6471M39.9994 28.0001L19.9994 36.0001L23.2387 47.8234L25.3333 46.6471L32.6666 50.7653L39.9999 46.6471M39.9994 28.0001L53.9995 33.6004V22H45.9995M39.9994 28.0001L25.9995 33.6004V22H33.9995M39.9999 46.6471L39.9995 28.3853M33.9995 22H31.9995V16H47.9995V22H45.9995M33.9995 22H45.9995M16 56.9359L18.0001 58.0591L25.3334 53.9409L32.6667 58.0591L40.0001 53.9409L47.3334 58.0591L54.6667 53.9409L62.0001 58.0591L64 56.936M24 60.6897L25.3334 59.9409L32.6667 64.0591L40.0001 59.9409L47.3334 64.0591L54.6667 59.9409L56 60.6896" stroke="currentColor" stroke-linecap="square" />
</svg>