<svg viewBox="0 0 80 80" fill="none">
  <path d="M52.861 21.6012L58.2185 26.9586L63.4731 21.6631L58.1565 16.3465L52.861 21.6012Z" stroke="currentColor" stroke-linecap="round" stroke-linejoin="round" />
  <path d="M69.4745 36.1499L62.0752 36.1213V43.6972L69.4745 43.6686V36.1499Z" stroke="currentColor" stroke-linecap="round" stroke-linejoin="round" />
  <path d="M63.4743 58.1564L58.3086 52.9507L52.9519 58.3074L58.1576 63.4731L63.4743 58.1564Z" stroke="currentColor" stroke-linecap="round" stroke-linejoin="round" />
  <path d="M43.6697 69.4745L43.698 62.1729H36.1228L36.1511 69.4745L43.6697 69.4745Z" stroke="currentColor" stroke-linecap="round" stroke-linejoin="round" />
  <path d="M21.6631 63.4731L26.8606 58.3157L21.5039 52.9591L16.3465 58.1565L21.6631 63.4731Z" stroke="currentColor" stroke-linecap="round" stroke-linejoin="round" />
  <path d="M10.3462 43.6687L17.729 43.6972V36.1213L10.3462 36.1498V43.6687Z" stroke="currentColor" stroke-linecap="round" stroke-linejoin="round" />
  <path d="M16.3476 21.6631L21.5941 26.9503L26.9515 21.5929L21.6643 16.3464L16.3476 21.6631Z" stroke="currentColor" stroke-linecap="round" stroke-linejoin="round" />
  <path d="M36.151 10.3462L36.1221 17.8266H43.6987L43.6699 10.3462H36.151Z" stroke="currentColor" stroke-linecap="round" stroke-linejoin="round" />
</svg>