<svg viewBox="0 0 80 80" fill="none">
  <path d="M48.3191 26.1072L53.7114 31.4996L63.4727 21.6626L58.156 16.346L48.3191 26.1072Z" stroke="currentColor" stroke-linecap="round" stroke-linejoin="round" />
  <path d="M69.474 36.1494L55.6158 36.0958V43.7217L69.474 43.6681V36.1494Z" stroke="currentColor" stroke-linecap="round" stroke-linejoin="round" />
  <path d="M63.4738 58.1559L53.7123 48.3188L48.32 53.7111L58.1571 63.4726L63.4738 58.1559Z" stroke="currentColor" stroke-linecap="round" stroke-linejoin="round" />
  <path d="M43.6693 69.474L43.7229 55.6156H36.097L36.1506 69.474L43.6693 69.474Z" stroke="currentColor" stroke-linecap="round" stroke-linejoin="round" />
  <path d="M21.6626 63.4727L31.4998 53.7112L26.1075 48.3188L16.346 58.156L21.6626 63.4727Z" stroke="currentColor" stroke-linecap="round" stroke-linejoin="round" />
  <path d="M10.3457 43.6682L24.2039 43.7217V36.0958L10.3457 36.1493V43.6682Z" stroke="currentColor" stroke-linecap="round" stroke-linejoin="round" />
  <path d="M16.3471 21.6626L26.1084 31.4996L31.5008 26.1072L21.6638 16.3459L16.3471 21.6626Z" stroke="currentColor" stroke-linecap="round" stroke-linejoin="round" />
  <path d="M36.1505 10.3457L36.097 24.2037L43.7229 24.2037L43.6694 10.3457H36.1505Z" stroke="currentColor" stroke-linecap="round" stroke-linejoin="round" />
</svg>