<svg viewBox="0 0 80 80" fill="none">
  <path d="M24.4548 24.433L21.6152 21.6152L24.433 24.4548C24.4402 24.4475 24.4475 24.4402 24.4548 24.433Z" stroke="currentColor" stroke-linecap="square" />
  <path d="M18.0005 39.9845L14 40L18.0005 40.0155C18.0005 40.0052 18.0005 39.9948 18.0005 39.9845Z" stroke="currentColor" stroke-linecap="square" />
  <path d="M24.433 55.5452L21.6152 58.3848L24.4548 55.567C24.4475 55.5598 24.4402 55.5525 24.433 55.5452Z" stroke="currentColor" stroke-linecap="square" />
  <path d="M39.9846 62L40 66L40.0154 62C40.0051 62 39.9949 62 39.9846 62Z" stroke="currentColor" stroke-linecap="square" />
  <path d="M55.5456 55.5675L58.3848 58.3848L55.5675 55.5457C55.5602 55.553 55.553 55.5602 55.5456 55.5675Z" stroke="currentColor" stroke-linecap="square" />
  <path d="M62.0005 40.0154L66 40L62.0005 39.9846C62.0005 39.9949 62.0005 40.0051 62.0005 40.0154Z" stroke="currentColor" stroke-linecap="square" />
  <path d="M55.5675 24.4543L58.3848 21.6152L55.5456 24.4325C55.553 24.4398 55.5602 24.447 55.5675 24.4543Z" stroke="currentColor" stroke-linecap="square" />
  <path d="M40.0154 18L40 14L39.9846 18C39.9949 18 40.0051 18 40.0154 18Z" stroke="currentColor" stroke-linecap="square" />
  <path d="M40 28L52 40L40 52L28 40L40 28Z" stroke="currentColor" stroke-linecap="square" />
</svg>