<svg viewBox="0 0 80 80" fill="none">
  <path d="M39.9999 35.9998V47.9998M40.0458 20.7964L73.136 39.901L51.6715 58.6239C50.2305 56.9718 48.4513 55.6488 46.4544 54.7442C44.4575 53.8397 42.2895 53.3749 40.0973 53.3812C37.9051 53.3875 35.7399 53.8649 33.7483 54.7809C31.7566 55.6969 29.9851 57.0303 28.5536 58.6906L6.83838 39.9687L40.0458 20.7964ZM20.2521 40.8287L19.0703 39.2016L19.0794 39.1964L20.2617 40.8232L20.2521 40.8287ZM60.9295 39.2016L59.7477 40.8287L59.7381 40.8231L60.9204 39.1963L60.9295 39.2016ZM51.1895 33.5782L51.1805 33.573L50.5483 35.5174L50.558 35.523L51.1895 33.5782ZM40.0044 27.8914C40.0014 27.8914 39.9984 27.8914 39.9954 27.8914L39.995 29.8914C39.9983 29.8914 40.0015 29.8914 40.0047 29.8914L40.0044 27.8914ZM28.8193 33.573L29.4515 35.5175L29.4418 35.523L28.8102 33.5783L28.8193 33.573Z" stroke="currentColor" stroke-linecap="square" />
</svg>