<svg viewBox="0 0 80 80" fill="none">
  <path d="M53.9258 28.8462L59.7988 22.9731M56.9704 20.1454L62.6273 25.8022M39.9998 18.7285V14.772M39.9998 18.7285L62.8253 35.312L54.1068 62.1449H25.8931L17.1746 35.312L39.9998 18.7285ZM34.9998 14.772H44.9998M26.0741 28.8461L20.2011 22.9731M17.3727 25.8016L23.0295 20.1448M46.6852 33.9931L42.297 39.7286M53.9076 50.6376L43.0006 44.4328M26.3758 34.7756L26.3801 34.7725L28.2765 35.8668L28.2713 35.8706L26.3758 34.7756ZM24.6962 42.5497L24.6946 42.5447L26.7974 42.5442L26.7993 42.5502L24.6962 42.5497ZM27.0887 49.913L27.0871 49.9079L28.8576 48.8851L28.8596 48.8911L27.0887 49.913ZM31.4549 57.0771H31.4501L32.6042 55.0771H32.6103L31.4549 57.0771ZM39.844 57.0771H39.8387L39.8382 55.0771H39.8445L39.844 57.0771ZM48.2326 57.0771H48.2278L47.0725 55.0771H47.0786L48.2326 57.0771ZM52.5959 49.908L52.5942 49.913L50.8233 48.8912L50.8253 48.8851L52.5959 49.908ZM54.9883 42.5447L54.9867 42.5497L52.8836 42.5502L52.8856 42.5442L54.9883 42.5447ZM53.3028 34.7725L53.307 34.7756L51.4116 35.8706L51.4063 35.8668L53.3028 34.7725ZM46.9794 30.1783L46.9838 30.1815L45.9788 31.9234L45.9735 31.9196L46.9794 30.1783ZM39.8415 24.9923L39.8432 24.9936L39.8439 27.4662L39.8415 27.4644L39.8389 27.4663L39.8395 24.9937L39.8415 24.9923ZM32.7034 30.1784L33.7093 31.9197L33.704 31.9235L32.699 30.1816L32.7034 30.1784ZM37.0006 39.7286H43.0006V45.7286H37.0006V39.7286Z" stroke="currentColor" stroke-linecap="square" />
</svg>