<svg viewBox="0 0 80 80" fill="none">
  <path d="M53.9258 28.8462L59.7988 22.9731M56.9704 20.1454L62.6273 25.8022M39.9998 18.7285V14.772M39.9998 18.7285L62.8253 35.312L54.1068 62.1449H25.8931L17.1746 35.312L39.9998 18.7285ZM34.9998 14.772H44.9998M26.0741 28.8461L20.2011 22.9731M17.3727 25.8016L23.0295 20.1448M46.6852 33.9931L42.297 39.7286M53.9076 50.6376L43.0006 44.4328M30.7048 31.6642C30.7066 31.6627 30.7085 31.6612 30.7104 31.6597L31.9965 33.1914C31.9943 33.1932 31.9921 33.195 31.9899 33.1968L30.7048 31.6642ZM25.7418 40.0647C25.7423 40.0624 25.7427 40.06 25.7431 40.0577L27.7131 40.4043C27.7126 40.4071 27.712 40.4099 27.7115 40.4127L25.7418 40.0647ZM27.3383 49.7699C27.3371 49.7679 27.336 49.7658 27.3348 49.7638L29.0668 48.763C29.0682 48.7655 29.0695 48.7679 29.0709 48.7704L27.3383 49.7699ZM34.8786 56.1925C34.8764 56.1917 34.8743 56.1908 34.8721 56.19L35.5555 54.3103C35.5581 54.3112 35.5607 54.3122 35.5634 54.3132L34.8786 56.1925ZM44.8107 56.1901C44.8085 56.1909 44.8063 56.1917 44.8041 56.1925L44.1194 54.3132C44.122 54.3123 44.1247 54.3113 44.1273 54.3103L44.8107 56.1901ZM52.3481 49.7639C52.3469 49.7659 52.3458 49.768 52.3446 49.77L50.612 48.7705C50.6134 48.768 50.6147 48.7656 50.6161 48.7631L52.3481 49.7639ZM53.9398 40.0576C53.9402 40.06 53.9407 40.0623 53.9411 40.0647L51.9714 40.4127C51.9709 40.4099 51.9703 40.4071 51.9698 40.4043L53.9398 40.0576ZM48.9725 31.6596C48.9743 31.6611 48.9762 31.6626 48.978 31.6642L47.6929 33.1968C47.6907 33.1949 47.6885 33.1931 47.6863 33.1913L48.9725 31.6596ZM39.8378 28.3796C39.8402 28.3796 39.8426 28.3795 39.845 28.3795L39.8457 30.3796C39.8428 30.3795 39.8399 30.3795 39.8371 30.3796L39.8378 28.3796ZM37.0006 39.7286H43.0006V45.7286H37.0006V39.7286Z" stroke="currentColor" stroke-linecap="square" />
</svg>