<svg viewBox="0 0 80 80" fill="none">
  <path d="M21 51.9998V58.0001H8V51.0001L19 46.8023L26.8318 49.791L21 51.9998ZM21 51.9998L40 44.8041L59 51.9998M21 51.9998V64.0002H59V51.9998M59 51.9998V58.0003H72V51.0003L61 46.8026L53.1685 49.7912L59 51.9998ZM19 44.9334L25.5385 39.7741L23.041 31.4261H14.959L12.4615 39.7741L19 44.9334ZM61 44.9336L54.4615 39.7743L56.959 31.4263H65.041L67.5385 39.7743L61 44.9336ZM40 41.6002L51.2938 32.7557L46.9799 18.4448H33.0201L28.7062 32.7557L40 41.6002Z" stroke="currentColor" stroke-linecap="square" />
</svg>