<svg viewBox="0 0 80 80" fill="none">
  <path d="M38.1328 49.8675L40.9068 53.7512L38.9742 60.3744L28.2685 68.6095L23.3908 62.2685L32.0261 55.6259L34.4699 47.2512L35.1753 47.755M38.1328 49.8675L35.1753 47.755M38.1328 49.8675L42.3038 55.707L45.5894 68.8507L53.3506 66.9106L49.6966 52.2932L45.1536 45.9329L45.7004 41.2899L54.5961 46.1421L58.427 39.1189L50.6592 34.8819L46.6787 25.2151H38.686L31.1561 30.7607L23.2231 40.335L29.3833 45.4391L34.2365 39.5819L33.1589 46.3147L35.1753 47.755M43 25.0001L48.7063 20.8542L46.5267 14.146H39.4733L37.2937 20.8542L43 25.0001Z" stroke="currentColor" stroke-linecap="square" />
</svg>