<svg viewBox="0 0 80 80" fill="none">
  <path d="M4.5 27.5432L16 16.0432L27.4999 27.5432M28.5 27.5432L40 16.0432L51.4999 27.5432M52.5 27.5432L64 16.0432L75.4999 27.5432M4.5 41.2717L16 29.7717L27.4999 41.2717M28.5 41.2717L40 29.7717L51.4999 41.2717M52.5 41.2717L64 29.7717L75.4999 41.2717M4.5 55.0002L16 43.5002L27.4999 55.0002M28.5 55.0002L40 43.5002L51.4999 55.0002M52.5 55.0002L64 43.5002L75.4999 55.0002M4.5 68.7287L16 57.2288L27.4999 68.7287M28.5 68.7287L40 57.2288L51.4999 68.7287M52.5 68.7287L64 57.2288L75.4999 68.7287" stroke="currentColor" stroke-linecap="square" />
</svg>