<svg viewBox="0 0 80 80" fill="none">
  <path fill-rule="evenodd" clip-rule="evenodd" d="M56.1642 27.225C57.0015 27.1065 57.8248 26.8596 58.6042 26.4843C60.8818 25.3875 62.536 23.3132 63.0985 20.8486C63.6611 18.384 63.0707 15.7974 61.4945 13.8209C59.9184 11.8445 57.528 10.6934 55 10.6934C52.4721 10.6934 50.0817 11.8445 48.5055 13.8209C47.0323 15.6683 46.4203 18.0487 46.806 20.3643L41.687 17.807C38.7986 16.364 35.3258 16.7988 32.8823 18.9094L25.8294 25.0016C23.3217 27.1677 23.0448 30.9566 25.2109 33.4643C27.377 35.972 31.1659 36.2489 33.6736 34.0828L38.709 29.7334L39.4984 30.1277L35.5593 36.2205C32.3135 35.9001 28.9911 36.5826 26.0718 38.2681C21.1658 41.1006 18.1436 46.3352 18.1436 52.0001C18.1436 57.6651 21.1658 62.8997 26.0718 65.7322C30.9778 68.5647 37.0222 68.5647 41.9282 65.7322C45.9224 63.4261 48.668 59.5279 49.5506 55.1015L49.5506 57.9896C49.5506 61.3033 52.2369 63.9896 55.5506 63.9896C58.8643 63.9896 61.5506 61.3033 61.5506 57.9896L61.5505 45.9584C61.5505 41.5401 57.9688 37.9584 53.5505 37.9584H53.3405L55.4901 34.6377C56.9863 32.3263 57.1305 29.5605 56.1642 27.225ZM53.1314 22.8804C54.3122 23.4491 55.6878 23.4491 56.8687 22.8804C58.0495 22.3117 58.9072 21.2363 59.1988 19.9585C59.4905 18.6807 59.1844 17.3396 58.3672 16.3149C57.55 15.2902 56.3107 14.6934 55 14.6934C53.6894 14.6934 52.45 15.2902 51.6328 16.3149C50.8157 17.3396 50.5096 18.6807 50.8012 19.9585C51.0929 21.2363 51.9505 22.3117 53.1314 22.8804ZM40.8829 42.3459C42.767 43.6887 44.1974 45.5399 45.0301 47.651C45.5681 49.0148 45.8564 50.487 45.8564 52.0001C45.8564 56.236 43.5966 60.1502 39.9282 62.2681C36.2598 64.386 31.7402 64.386 28.0718 62.2681C24.4034 60.1502 22.1436 56.236 22.1436 52.0001C22.1436 47.7643 24.4034 43.8501 28.0718 41.7322C31.5926 39.6995 35.8974 39.6177 39.4813 41.4867C39.6315 41.5651 39.7806 41.6469 39.9282 41.7322C40.258 41.9226 40.5764 42.1275 40.8829 42.3459ZM48.6604 45.9584C48.6233 45.8683 48.5853 45.7785 48.5465 45.6891C48.2948 45.1092 48.0088 44.5452 47.6903 44.0002C47.2722 43.2846 46.7981 42.6018 46.2718 41.9584H53.5505C55.7597 41.9584 57.5505 43.7493 57.5505 45.9584L57.5506 57.9896C57.5506 59.0942 56.6551 59.9896 55.5506 59.9896C54.446 59.9896 53.5506 59.0942 53.5506 57.9896L53.5505 45.9584H48.6604ZM46.1113 41.7654C45.8202 41.4209 45.5139 41.0882 45.193 40.7683C44.2304 39.8089 43.1364 38.9657 41.9282 38.2681C41.5798 38.0669 41.2255 37.88 40.8663 37.7074C40.4795 37.5215 40.0869 37.3521 39.6896 37.1993L45.2838 28.5466L38.1117 24.9636L31.0589 31.0557C30.2229 31.7778 28.96 31.6854 28.238 30.8495C27.5159 30.0136 27.6082 28.7507 28.4441 28.0286L35.497 21.9365C36.7188 20.8812 38.4552 20.6638 39.8994 21.3853L50.562 26.7121C52.6954 27.778 53.4282 30.462 52.1322 32.464L46.1113 41.7654Z" stroke="currentColor" stroke-linecap="square" stroke-linejoin="round" />
</svg>