<svg width="80" height="80" viewBox="0 0 80 80" fill="none" xmlns="http://www.w3.org/2000/svg">
  <path fill-rule="evenodd" clip-rule="evenodd" d="M63.5251 11.3648C59.8658 9.84909 55.7542 9.84909 52.0949 11.3648C50.6294 11.9719 49.2843 12.8022 48.101 13.8147C46.9171 14.8277 46.6251 16.2894 46.9714 17.5381C47.3026 18.7322 48.2031 19.7486 49.4184 20.238C49.4964 20.2695 49.5743 20.3013 49.6521 20.3335C55.9534 22.9436 60.9597 27.9499 63.5697 34.2511C63.9795 35.2403 64.824 35.9387 65.7972 36.1788C66.8018 36.4266 67.9661 36.1798 68.7951 35.2798C69.9728 34.001 70.9295 32.5144 71.6075 30.8775C73.1233 27.2181 73.1233 23.1066 71.6075 19.4472C70.0918 15.7879 67.1845 12.8806 63.5251 11.3648ZM53.6256 15.0604C56.3048 13.9506 59.3152 13.9506 61.9944 15.0604C64.6736 16.1701 66.8022 18.2987 67.912 20.978C69.0218 23.6572 69.0218 26.6675 67.912 29.3467C67.5954 30.1109 67.196 30.8303 66.7246 31.494C63.587 24.7906 58.0505 19.4827 51.1829 16.638C51.1343 16.6179 51.0858 16.5979 51.0372 16.5781C51.8193 15.961 52.6888 15.4484 53.6256 15.0604Z" stroke="currentColor" stroke-linecap="round" stroke-linejoin="round" />
  <path fill-rule="evenodd" clip-rule="evenodd" d="M27.8994 11.365C24.2401 9.84925 20.1285 9.84925 16.4692 11.365C12.8099 12.8807 9.90255 15.7881 8.38681 19.4474C6.87106 23.1067 6.87106 27.2183 8.38681 30.8776C9.04699 32.4714 9.97126 33.9227 11.1066 35.1784C12.761 37.0082 15.3226 36.0121 16.052 34.2511C18.6621 27.9499 23.6684 22.9436 29.9697 20.3335C30.1211 20.2708 30.273 20.2096 30.4253 20.1499C31.6592 19.6661 32.5739 18.6418 32.9082 17.437C33.2583 16.175 32.9549 14.6975 31.7432 13.6881C30.5967 12.7329 29.3033 11.9465 27.8994 11.365ZM17.9999 15.0605C20.6791 13.9507 23.6895 13.9507 26.3687 15.0605C27.255 15.4277 28.081 15.9062 28.8298 16.4793C28.6992 16.5313 28.5689 16.5842 28.4389 16.638C21.6814 19.4371 16.2126 24.6211 13.0499 31.1728C12.6731 30.6001 12.3484 29.9893 12.0823 29.3469C10.9726 26.6677 10.9726 23.6573 12.0823 20.9781C13.1921 18.2989 15.3207 16.1703 17.9999 15.0605Z" stroke="currentColor" stroke-linecap="round" stroke-linejoin="round" />
  <path d="M30.0001 42.4998C28.8955 42.4998 28.0001 43.3952 28.0001 44.4998C28.0001 45.6044 28.8955 46.4998 30.0001 46.4998H50C51.1046 46.4998 52 45.6044 52 44.4998C52 43.3952 51.1046 42.4998 50 42.4998H30.0001Z" stroke="currentColor" stroke-linecap="round" stroke-linejoin="round" />
  <path fill-rule="evenodd" clip-rule="evenodd" d="M62.1457 53.3446C61.1958 55.6379 59.9082 57.7487 58.3431 59.617L65.2267 66.5006C66.0078 67.2817 66.0078 68.548 65.2267 69.3291C64.4457 70.1101 63.1793 70.1101 62.3983 69.3291L55.5295 62.4603C53.6138 64.0997 51.4362 65.4441 49.0633 66.427C43.1402 68.8804 36.4851 68.8804 30.562 66.427C28.1891 65.4441 26.0116 64.0998 24.096 62.4604L17.2267 69.3299C16.4457 70.111 15.1794 70.111 14.3983 69.33C13.6173 68.549 13.6172 67.2826 14.3983 66.5016L21.2824 59.6172C19.7172 57.7489 18.4295 55.638 17.4796 53.3446C15.0262 47.4215 15.0262 40.7664 17.4796 34.8433C19.933 28.9202 24.6389 24.2144 30.562 21.7609C36.4851 19.3075 43.1402 19.3075 49.0633 21.7609C54.9864 24.2144 59.6923 28.9202 62.1457 34.8433C64.5991 40.7664 64.5991 47.4215 62.1457 53.3446ZM54.1661 58.2685L54.1849 58.25C55.9906 56.4167 57.4463 54.2374 58.4502 51.8139C60.4976 46.8709 60.4976 41.317 58.4502 36.3741C56.4027 31.4311 52.4755 27.5039 47.5326 25.4565C42.5896 23.409 37.0357 23.409 32.0927 25.4565C27.1497 27.5039 23.2226 31.4311 21.1751 36.3741C19.1277 41.317 19.1277 46.8709 21.1751 51.8139C22.1786 54.2365 23.6336 56.4151 25.4384 58.2479L25.4593 58.2686C25.4718 58.281 25.484 58.2936 25.4961 58.3063C27.3622 60.1861 29.5981 61.6982 32.0927 62.7315C37.0357 64.7789 42.5896 64.7789 47.5326 62.7315C50.0282 61.6978 52.2649 60.1849 54.1315 58.304C54.1371 58.2981 54.1427 58.2923 54.1483 58.2866C54.1542 58.2805 54.1602 58.2745 54.1661 58.2685Z" stroke="currentColor" stroke-linecap="round" stroke-linejoin="round" />
</svg>