<svg viewBox="0 0 80 80" fill="none">
  <path fill-rule="evenodd" clip-rule="evenodd" d="M40.592 33.7444L40.1121 33.7174C40.0374 33.7132 39.9626 33.7132 39.8879 33.7174L39.408 33.7444C39.3333 33.7486 39.2589 33.757 39.1851 33.7695L38.7113 33.85C38.6376 33.8625 38.5646 33.8792 38.4927 33.8999L38.0308 34.033C37.959 34.0537 37.8883 34.0784 37.8192 34.107L37.3751 34.2909C37.306 34.3196 37.2385 34.3521 37.1731 34.3883L36.7524 34.6207C36.6869 34.6569 36.6235 34.6968 36.5625 34.7401L36.1706 35.0182C36.1095 35.0615 36.051 35.1082 35.9952 35.158L35.6369 35.4783C35.5811 35.5281 35.5281 35.5811 35.4783 35.6369L35.158 35.9952C35.1082 36.051 35.0615 36.1095 35.0182 36.1706L34.7401 36.5625C34.6968 36.6235 34.6569 36.6869 34.6207 36.7524L34.3883 37.1731C34.3521 37.2385 34.3196 37.306 34.2909 37.3751L34.107 37.8192C34.0784 37.8883 34.0537 37.959 34.033 38.0308L33.8999 38.4927C33.8792 38.5646 33.8625 38.6376 33.85 38.7113L33.7695 39.1851C33.757 39.2589 33.7486 39.3333 33.7444 39.408L33.7174 39.8879C33.7132 39.9626 33.7132 40.0374 33.7174 40.1121L33.7444 40.592C33.7486 40.6667 33.757 40.7411 33.7695 40.8149L33.85 41.2887C33.8625 41.3624 33.8792 41.4354 33.8999 41.5073L34.033 41.9692C34.0537 42.0411 34.0784 42.1117 34.107 42.1808L34.2909 42.6249C34.3196 42.694 34.3521 42.7615 34.3883 42.8269L34.6207 43.2476C34.6569 43.3131 34.6968 43.3765 34.7401 43.4375L35.0182 43.8294C35.0615 43.8905 35.1082 43.949 35.158 44.0048L35.4783 44.3632C35.5281 44.4189 35.5811 44.4719 35.6369 44.5217L35.9952 44.842C36.051 44.8918 36.1095 44.9385 36.1706 44.9818L36.5625 45.2599C36.6235 45.3032 36.6869 45.3431 36.7524 45.3793L37.1731 45.6117C37.2385 45.6479 37.306 45.6804 37.3751 45.7091L37.8191 45.893C37.8883 45.9216 37.959 45.9463 38.0309 45.9671L38.4927 46.1001C38.5646 46.1208 38.6376 46.1375 38.7113 46.15L39.1851 46.2305C39.2589 46.243 39.3333 46.2514 39.408 46.2556L39.8879 46.2826C39.9626 46.2868 40.0374 46.2868 40.1121 46.2826L40.592 46.2556C40.6667 46.2514 40.7411 46.243 40.8149 46.2305L41.2887 46.15C41.3624 46.1375 41.4354 46.1208 41.5073 46.1001L41.9691 45.9671C42.041 45.9463 42.1117 45.9216 42.1809 45.893L42.6249 45.7091C42.694 45.6804 42.7615 45.6479 42.8269 45.6117L43.2476 45.3793C43.3131 45.3431 43.3765 45.3032 43.4375 45.2599L43.8294 44.9818C43.8905 44.9385 43.949 44.8918 44.0048 44.842L44.3632 44.5217C44.4189 44.4719 44.4719 44.4189 44.5217 44.3632L44.842 44.0048C44.8918 43.949 44.9385 43.8905 44.9818 43.8294L45.2599 43.4375C45.3032 43.3765 45.3431 43.3131 45.3793 43.2476L45.6117 42.8269C45.6479 42.7615 45.6804 42.694 45.7091 42.6249L45.893 42.1809C45.9216 42.1117 45.9463 42.041 45.9671 41.9691L46.1001 41.5073C46.1208 41.4354 46.1375 41.3624 46.15 41.2887L46.2305 40.8149C46.243 40.7411 46.2514 40.6667 46.2556 40.592L46.2826 40.1121C46.2868 40.0374 46.2868 39.9626 46.2826 39.8879L46.2556 39.408C46.2514 39.3333 46.243 39.2589 46.2305 39.1851L46.15 38.7113C46.1375 38.6376 46.1208 38.5646 46.1001 38.4927L45.9671 38.0309C45.9463 37.959 45.9216 37.8883 45.893 37.8191L45.7091 37.3751C45.6804 37.306 45.6479 37.2385 45.6117 37.1731L45.3793 36.7524C45.3431 36.6869 45.3032 36.6235 45.2599 36.5625L44.9818 36.1706C44.9385 36.1095 44.8918 36.051 44.842 35.9952L44.5217 35.6369C44.4719 35.5811 44.4189 35.5281 44.3632 35.4783L44.0048 35.158C43.949 35.1082 43.8905 35.0615 43.8294 35.0182L43.4375 34.7401C43.3765 34.6968 43.3131 34.6569 43.2476 34.6207L42.8269 34.3883C42.7615 34.3521 42.694 34.3196 42.6249 34.2909L42.1808 34.107C42.1117 34.0784 42.0411 34.0537 41.9692 34.033L41.5073 33.8999C41.4354 33.8792 41.3624 33.8625 41.2887 33.85L40.8149 33.7695C40.7411 33.757 40.6667 33.7486 40.592 33.7444ZM39.4921 37.7747L39.7444 37.7318L40 37.7174L40.2556 37.7318L40.5079 37.7747L40.7539 37.8455L40.9904 37.9435L41.2144 38.0673L41.4232 38.2154L41.614 38.386L41.7846 38.5768L41.9327 38.7856L42.0565 39.0096L42.1545 39.2461L42.2253 39.4921L42.2682 39.7444L42.2826 40L42.2682 40.2556L42.2253 40.5079L42.1545 40.7539L42.0565 40.9904L41.9327 41.2144L41.7846 41.4232L41.614 41.614L41.4232 41.7846L41.2144 41.9327L40.9904 42.0565L40.7539 42.1545L40.5079 42.2253L40.2556 42.2682L40 42.2826L39.7444 42.2682L39.4921 42.2253L39.2461 42.1545L39.0096 42.0565L38.7856 41.9327L38.5768 41.7846L38.386 41.614L38.2154 41.4232L38.0673 41.2144L37.9435 40.9904L37.8455 40.7539L37.7747 40.5079L37.7318 40.2556L37.7174 40L37.7318 39.7444L37.7747 39.4921L37.8455 39.2461L37.9435 39.0096L38.0673 38.7856L38.2154 38.5768L38.386 38.386L38.5768 38.2154L38.7856 38.0673L39.0096 37.9435L39.2461 37.8455L39.4921 37.7747Z" stroke="currentColor" stroke-linecap="round" stroke-linejoin="round" />
  <path fill-rule="evenodd" clip-rule="evenodd" d="M39.8879 14.0031C39.9626 13.999 40.0374 13.999 40.1121 14.0031L42.7993 14.1541C42.874 14.1582 42.9484 14.1666 43.0222 14.1792L45.6755 14.63C45.7493 14.6425 45.8223 14.6592 45.8942 14.6799L48.4804 15.425C48.5523 15.4457 48.6229 15.4704 48.6921 15.499L51.1786 16.529C51.2477 16.5576 51.3152 16.5901 51.3806 16.6263L53.7362 17.9282C53.8017 17.9644 53.8651 18.0042 53.9261 18.0475L56.1211 19.6049C56.1821 19.6482 56.2407 19.6949 56.2965 19.7448L58.3033 21.5382C58.359 21.588 58.412 21.641 58.4618 21.6967L60.2552 23.7036C60.3051 23.7593 60.3518 23.8179 60.3951 23.8789L61.9525 26.0739C61.9958 26.1349 62.0356 26.1983 62.0718 26.2638L63.3737 28.6194C63.4099 28.6848 63.4424 28.7523 63.471 28.8214L64.501 31.3079C64.5296 31.3771 64.5543 31.4477 64.575 31.5196L65.3201 34.1058C65.3408 34.1777 65.3575 34.2507 65.37 34.3245L65.8208 36.9778C65.8334 37.0516 65.8417 37.126 65.8459 37.2007L65.9969 39.8879C66.001 39.9626 66.001 40.0374 65.9969 40.1121L65.8459 42.7993C65.8417 42.874 65.8334 42.9484 65.8208 43.0222L65.37 45.6755C65.3575 45.7493 65.3408 45.8223 65.3201 45.8942L64.575 48.4804C64.5543 48.5523 64.5296 48.6229 64.501 48.6921L63.471 51.1786C63.4424 51.2477 63.4099 51.3152 63.3737 51.3806L62.0718 53.7362C62.0356 53.8017 61.9958 53.8651 61.9525 53.9261L60.3951 56.1211C60.3518 56.1821 60.3051 56.2407 60.2552 56.2965L58.4618 58.3033C58.412 58.359 58.359 58.412 58.3033 58.4618L56.2965 60.2552C56.2407 60.3051 56.1821 60.3518 56.1211 60.3951L53.9261 61.9525C53.8651 61.9958 53.8017 62.0356 53.7362 62.0718L51.3806 63.3737C51.3152 63.4099 51.2477 63.4424 51.1786 63.471L48.6921 64.501C48.6229 64.5296 48.5523 64.5543 48.4804 64.575L45.8942 65.3201C45.8223 65.3408 45.7493 65.3575 45.6755 65.37L43.0222 65.8208C42.9484 65.8334 42.874 65.8417 42.7993 65.8459L40.1121 65.9969C40.0374 66.001 39.9626 66.001 39.8879 65.9969L37.2007 65.8459C37.126 65.8417 37.0516 65.8334 36.9778 65.8208L34.3245 65.37C34.2507 65.3575 34.1777 65.3408 34.1058 65.3201L31.5196 64.575C31.4477 64.5543 31.3771 64.5296 31.3079 64.501L28.8214 63.471C28.7523 63.4424 28.6848 63.4099 28.6194 63.3737L26.2638 62.0718C26.1983 62.0356 26.1349 61.9958 26.0739 61.9525L23.8789 60.3951C23.8179 60.3518 23.7593 60.3051 23.7036 60.2552L21.6967 58.4618C21.641 58.412 21.588 58.359 21.5382 58.3033L19.7448 56.2965C19.6949 56.2407 19.6482 56.1821 19.6049 56.1211L18.0475 53.9261C18.0042 53.8651 17.9644 53.8017 17.9282 53.7362L16.6263 51.3806C16.5901 51.3152 16.5576 51.2477 16.529 51.1786L15.499 48.6921C15.4704 48.6229 15.4457 48.5523 15.425 48.4804L14.6799 45.8942C14.6592 45.8223 14.6425 45.7493 14.63 45.6755L14.1792 43.0222C14.1666 42.9484 14.1582 42.874 14.1541 42.7993L14.0031 40.1121C13.999 40.0374 13.999 39.9626 14.0031 39.8879L14.1541 37.2007C14.1582 37.126 14.1666 37.0516 14.1792 36.9778L14.63 34.3245C14.6425 34.2507 14.6592 34.1777 14.6799 34.1058L15.425 31.5196C15.4457 31.4477 15.4704 31.3771 15.499 31.3079L16.529 28.8214C16.5576 28.7523 16.5901 28.6848 16.6263 28.6194L17.9282 26.2638C17.9644 26.1983 18.0042 26.1349 18.0475 26.0739L19.6049 23.8789C19.6482 23.8179 19.6949 23.7593 19.7448 23.7036L21.5382 21.6967C21.588 21.641 21.641 21.588 21.6967 21.5382L23.7036 19.7448C23.7593 19.6949 23.8179 19.6482 23.8789 19.6049L26.0739 18.0475C26.1349 18.0042 26.1983 17.9644 26.2638 17.9282L28.6194 16.6263C28.6848 16.5901 28.7523 16.5576 28.8214 16.529L31.3079 15.499C31.3771 15.4704 31.4477 15.4457 31.5196 15.425L34.1058 14.6799C34.1777 14.6592 34.2507 14.6425 34.3245 14.63L36.9778 14.1792C37.0516 14.1666 37.126 14.1582 37.2007 14.1541L39.8879 14.0031ZM37.5371 18.1415L35.1052 18.5547L32.7349 19.2375L30.4559 20.1815L28.297 21.3747L26.2852 22.8022L24.4459 24.4459L22.8022 26.2852L21.3747 28.297L20.1815 30.4559L19.2375 32.7349L18.5547 35.1052L18.1415 37.5371L18.0032 40L18.1415 42.4629L18.5547 44.8948L19.2375 47.2651L20.1815 49.5441L21.3747 51.703L22.8022 53.7148L24.4459 55.5541L26.2852 57.1978L28.297 58.6253L30.4559 59.8185L32.7349 60.7625L35.1052 61.4453L37.5371 61.8585L40 61.9968L42.4629 61.8585L44.8948 61.4453L47.2651 60.7625L49.5441 59.8185L51.703 58.6253L53.7148 57.1978L55.5541 55.5541L57.1978 53.7148L58.6253 51.703L59.8185 49.5441L60.7625 47.2651L61.4453 44.8948L61.8585 42.4629L61.9968 40L61.8585 37.5371L61.4453 35.1052L60.7625 32.7349L59.8185 30.4559L58.6253 28.297L57.1978 26.2852L55.5541 24.4459L53.7148 22.8022L51.703 21.3747L49.5441 20.1815L47.2651 19.2375L44.8948 18.5547L42.4629 18.1415L40 18.0032L37.5371 18.1415Z" stroke="currentColor" stroke-linecap="round" stroke-linejoin="round" />
  <path fill-rule="evenodd" clip-rule="evenodd" d="M8 12C8 9.79086 9.79086 8 12 8H68C70.2091 8 72 9.79086 72 12V68C72 70.2091 70.2091 72 68 72H12C9.79086 72 8 70.2091 8 68V12ZM68 12L12 12V68H68V12Z" stroke="currentColor" stroke-linecap="round" stroke-linejoin="round" />
</svg>