<svg width="80" height="80" viewBox="0 0 80 80" fill="none" xmlns="http://www.w3.org/2000/svg">
  <path d="M17.9999 10C16.8953 10 15.9999 10.8954 15.9999 12C15.9999 13.1046 16.8953 14 17.9999 14H61.9999C63.1045 14 63.9999 13.1046 63.9999 12C63.9999 10.8954 63.1045 10 61.9999 10H17.9999Z" stroke="currentColor" stroke-linecap="round" stroke-linejoin="round" />
  <path d="M11.9999 18C11.9999 16.8954 12.8953 16 13.9999 16H65.9999C67.1045 16 67.9999 16.8954 67.9999 18C67.9999 19.1046 67.1045 20 65.9999 20H13.9999C12.8953 20 11.9999 19.1046 11.9999 18Z" stroke="currentColor" stroke-linecap="round" stroke-linejoin="round" />
  <path fill-rule="evenodd" clip-rule="evenodd" d="M40.5592 40.985L40.0794 40.9659C40.0264 40.9638 39.9734 40.9638 39.9204 40.9659L39.4405 40.985C39.3872 40.9871 39.334 40.9913 39.2811 40.9977L38.8072 41.0547C38.7533 41.0612 38.6996 41.0699 38.6463 41.0808L38.1845 41.175C38.1296 41.1862 38.0751 41.1998 38.0213 41.2155L37.5773 41.3458C37.5212 41.3623 37.4658 41.3812 37.4113 41.4025L36.9907 41.5672C36.9332 41.5897 36.8768 41.6149 36.8216 41.6426L36.4297 41.8396C36.3709 41.8691 36.3136 41.9015 36.2581 41.9367L35.8997 42.1635C35.8401 42.2013 35.7824 42.2422 35.7271 42.2861L35.4069 42.5399C35.3471 42.5873 35.2901 42.638 35.2362 42.6918L34.9581 42.9695C34.8997 43.0278 34.845 43.0896 34.7943 43.1546L34.5618 43.4525C34.507 43.5227 34.457 43.5964 34.4121 43.6733L34.3149 43.8395C34.2091 44.0205 34.1163 44.2088 34.0373 44.403L34.0329 44.414C33.9524 44.6117 33.887 44.8152 33.8373 45.0228L33.8358 45.0288C33.7852 45.2399 33.7511 45.4546 33.734 45.6709C33.7166 45.89 33.7166 46.11 33.734 46.3291C33.7511 46.5454 33.7852 46.7601 33.8358 46.9712L33.8373 46.9772C33.887 47.1848 33.9524 47.3883 34.0329 47.586L34.0373 47.597C34.1163 47.7912 34.2091 47.9795 34.3149 48.1605L34.4121 48.3267C34.457 48.4036 34.507 48.4773 34.5618 48.5475L34.7943 48.8454C34.845 48.9104 34.8997 48.9722 34.9581 49.0305L35.2362 49.3082C35.2901 49.362 35.3471 49.4127 35.4069 49.4601L35.7271 49.7139C35.7824 49.7578 35.8401 49.7987 35.8997 49.8365L36.2581 50.0633C36.3136 50.0985 36.3709 50.1309 36.4297 50.1604L36.8216 50.3574C36.8768 50.3851 36.9332 50.4103 36.9907 50.4328L37.4113 50.5975C37.4658 50.6188 37.5212 50.6377 37.5773 50.6542L38.0213 50.7845C38.0751 50.8002 38.1296 50.8138 38.1845 50.825L38.6463 50.9192C38.6996 50.9301 38.7533 50.9388 38.8072 50.9453L39.2811 51.0023C39.334 51.0087 39.3872 51.0129 39.4405 51.015L39.9204 51.0341C39.9734 51.0362 40.0264 51.0362 40.0794 51.0341L40.5592 51.015C40.6125 51.0129 40.6657 51.0087 40.7187 51.0023L41.1925 50.9453C41.2465 50.9388 41.3002 50.9301 41.3534 50.9192L41.8153 50.825C41.8702 50.8138 41.9246 50.8002 41.9784 50.7845L42.4225 50.6542C42.4786 50.6377 42.534 50.6188 42.5885 50.5975L43.0091 50.4328C43.0666 50.4103 43.123 50.3851 43.1782 50.3574L43.5701 50.1604C43.6289 50.1309 43.6861 50.0985 43.7417 50.0633L44.1001 49.8365C44.1597 49.7987 44.2173 49.7578 44.2727 49.7139L44.5929 49.4601C44.6527 49.4127 44.7097 49.362 44.7636 49.3082L45.0417 49.0305C45.1001 48.9722 45.1548 48.9104 45.2055 48.8454L45.438 48.5475C45.4927 48.4773 45.5427 48.4036 45.5877 48.3267L45.6849 48.1605C45.7907 47.9795 45.8835 47.7912 45.9624 47.597L45.9669 47.586C46.0473 47.3883 46.1127 47.1848 46.1625 46.9772L46.164 46.9712C46.2146 46.7601 46.2486 46.5454 46.2658 46.3291C46.2832 46.11 46.2832 45.89 46.2658 45.6709C46.2486 45.4546 46.2146 45.2399 46.164 45.0288L46.1625 45.0228C46.1127 44.8152 46.0473 44.6117 45.9669 44.414L45.9624 44.403C45.8835 44.2088 45.7907 44.0205 45.6849 43.8395L45.5877 43.6733C45.5427 43.5964 45.4927 43.5227 45.438 43.4525L45.2055 43.1546C45.1548 43.0896 45.1001 43.0278 45.0417 42.9695L44.7636 42.6918C44.7097 42.638 44.6527 42.5873 44.5929 42.5399L44.2727 42.2861C44.2173 42.2422 44.1597 42.2013 44.1001 42.1635L43.7417 41.9367C43.6861 41.9015 43.6289 41.8691 43.5701 41.8396L43.1782 41.6426C43.123 41.6149 43.0666 41.5897 43.0091 41.5672L42.5885 41.4025C42.534 41.3812 42.4786 41.3623 42.4225 41.3458L41.9784 41.2155C41.9246 41.1998 41.8702 41.1862 41.8153 41.175L41.3534 41.0808C41.3002 41.0699 41.2465 41.0612 41.1925 41.0547L40.7187 40.9977C40.6657 40.9913 40.6125 40.9871 40.5592 40.985ZM39.3662 45.0163L39.6795 44.9786L39.9999 44.9659L40.3202 44.9786L40.6336 45.0163L40.933 45.0774L41.2121 45.1593L41.4647 45.2582L41.6857 45.3693L41.8711 45.4866L42.0186 45.6035L42.1281 45.7128L42.2022 45.8078L42.2319 45.8587C42.2416 45.8752 42.25 45.8923 42.2572 45.91L42.2617 45.921C42.2663 45.9323 42.27 45.9439 42.2729 45.9558L42.2743 45.9619C42.2763 45.9701 42.2776 45.9786 42.2783 45.9871C42.279 45.9957 42.279 46.0043 42.2783 46.0129C42.2776 46.0214 42.2763 46.0299 42.2743 46.0381L42.2729 46.0442C42.27 46.0561 42.2663 46.0677 42.2617 46.079L42.2572 46.09C42.25 46.1077 42.2416 46.1248 42.2319 46.1413L42.2022 46.1922L42.1281 46.2872L42.0186 46.3965L41.8711 46.5134L41.6857 46.6307L41.4647 46.7418L41.2121 46.8407L40.933 46.9226L40.6336 46.9837L40.3202 47.0214L39.9999 47.0341L39.6795 47.0214L39.3662 46.9837L39.0667 46.9226L38.7877 46.8407L38.5351 46.7418L38.3141 46.6307L38.1287 46.5134L37.9812 46.3965L37.8717 46.2872L37.7976 46.1922L37.7678 46.1413C37.7582 46.1248 37.7498 46.1077 37.7426 46.09L37.7381 46.079C37.7335 46.0677 37.7298 46.0561 37.7269 46.0442L37.7255 46.0381C37.7235 46.0299 37.7221 46.0214 37.7215 46.0129C37.7208 46.0043 37.7208 45.9957 37.7215 45.9871C37.7221 45.9786 37.7235 45.9701 37.7255 45.9619L37.7269 45.9558C37.7298 45.9439 37.7335 45.9323 37.7381 45.921L37.7426 45.91C37.7498 45.8923 37.7582 45.8752 37.7678 45.8587L37.7976 45.8078L37.8717 45.7128L37.9812 45.6035L38.1287 45.4866L38.3141 45.3693L38.5351 45.2582L38.7877 45.1593L39.0667 45.0774L39.3662 45.0163Z" stroke="currentColor" stroke-linecap="round" stroke-linejoin="round" />
  <path fill-rule="evenodd" clip-rule="evenodd" d="M39.9204 27.0016C39.9734 26.9995 40.0264 26.9995 40.0794 27.0016L42.7665 27.1085C42.8198 27.1106 42.873 27.1148 42.926 27.1212L45.5794 27.4406C45.6333 27.4471 45.687 27.4557 45.7403 27.4666L48.3265 27.9944C48.3814 28.0056 48.4358 28.0191 48.4896 28.0349L50.9762 28.7644C51.0323 28.7809 51.0877 28.7998 51.1422 28.8212L53.4977 29.7433C53.5552 29.7658 53.6116 29.791 53.6668 29.8187L55.8618 30.9219C55.9205 30.9514 55.9778 30.9838 56.0333 31.019L58.0402 32.2893C58.0998 32.3271 58.1574 32.368 58.2128 32.4118L60.0062 33.8333C60.0659 33.8807 60.1229 33.9314 60.1768 33.9853L61.7343 35.54C61.7926 35.5983 61.8473 35.6601 61.8981 35.7251L63.1999 37.3937C63.2547 37.4638 63.3047 37.5376 63.3496 37.6144L63.8941 38.5455C64.2654 39.1805 64.5909 39.8412 64.868 40.5226L64.8932 40.5844C65.1691 41.2629 65.3935 41.9613 65.5644 42.6737L65.5725 42.7075C65.7441 43.423 65.8596 44.1508 65.9177 44.8843C65.9766 45.6269 65.9766 46.3731 65.9177 47.1157C65.8596 47.8492 65.7441 48.577 65.5725 49.2925L65.5644 49.3263C65.3935 50.0387 65.1691 50.7371 64.8932 51.4156L64.868 51.4774C64.5909 52.1588 64.2654 52.8195 63.8941 53.4545L63.3496 54.3856C63.3047 54.4624 63.2547 54.5362 63.1999 54.6063L61.8981 56.2749C61.8473 56.3399 61.7926 56.4017 61.7343 56.46L60.1768 58.0147C60.1229 58.0686 60.0659 58.1193 60.0062 58.1667L58.2128 59.5882C58.1574 59.632 58.0998 59.6729 58.0402 59.7107L56.0333 60.981C55.9778 61.0162 55.9205 61.0486 55.8618 61.0781L53.6668 62.1813C53.6116 62.209 53.5552 62.2342 53.4977 62.2567L51.1422 63.1788C51.0877 63.2002 51.0323 63.2191 50.9762 63.2356L48.4896 63.9651C48.4358 63.9809 48.3814 63.9944 48.3265 64.0056L45.7403 64.5334C45.687 64.5443 45.6333 64.553 45.5794 64.5594L42.926 64.8788C42.873 64.8852 42.8198 64.8894 42.7665 64.8915L40.0794 64.9984C40.0264 65.0005 39.9734 65.0005 39.9204 64.9984L37.2332 64.8915C37.1799 64.8894 37.1267 64.8852 37.0738 64.8788L34.4204 64.5594C34.3664 64.553 34.3128 64.5443 34.2595 64.5334L31.6733 64.0056C31.6184 63.9944 31.5639 63.9809 31.5101 63.9651L29.0236 63.2356C28.9675 63.2191 28.9121 63.2002 28.8576 63.1788L26.502 62.2567C26.4445 62.2342 26.3881 62.209 26.333 62.1813L24.138 61.0781C24.0792 61.0486 24.022 61.0162 23.9664 60.981L21.9596 59.7107C21.9 59.6729 21.8423 59.632 21.787 59.5882L19.9936 58.1667C19.9339 58.1193 19.8769 58.0686 19.8229 58.0147L18.2655 56.46C18.2071 56.4017 18.1524 56.3399 18.1017 56.2749L16.7998 54.6063C16.7451 54.5362 16.6951 54.4624 16.6502 54.3856L16.1057 53.4546C15.7344 52.8195 15.4089 52.1588 15.1317 51.4774L15.1066 51.4156C14.8306 50.7371 14.6062 50.0387 14.4354 49.3263L14.4273 49.2925C14.2556 48.577 14.1402 47.8492 14.0821 47.1156C14.0232 46.373 14.0232 45.627 14.0821 44.8844C14.1402 44.1508 14.2556 43.423 14.4273 42.7075L14.4354 42.6737C14.6062 41.9613 14.8306 41.2629 15.1066 40.5844L15.1317 40.5226C15.4089 39.8412 15.7344 39.1805 16.1057 38.5454L16.6502 37.6144C16.6951 37.5376 16.7451 37.4638 16.7998 37.3937L18.1017 35.7251C18.1524 35.6601 18.2071 35.5983 18.2655 35.54L19.8229 33.9853C19.8769 33.9314 19.9339 33.8807 19.9936 33.8333L21.787 32.4118C21.8423 32.368 21.9 32.3271 21.9596 32.2893L23.9664 31.019C24.022 30.9838 24.0792 30.9514 24.138 30.9219L26.333 29.8187C26.3881 29.791 26.4445 29.7658 26.502 29.7433L28.8576 28.8212C28.9121 28.7998 28.9675 28.7809 29.0236 28.7644L31.5101 28.0349C31.5639 28.0191 31.6184 28.0056 31.6733 27.9944L34.2595 27.4666C34.3128 27.4557 34.3664 27.4471 34.4204 27.4406L37.0738 27.1212C37.1267 27.1148 37.1799 27.1106 37.2332 27.1085L39.9204 27.0016ZM37.4722 31.1021L34.9793 31.4021L32.5555 31.8968L30.234 32.5779L28.0465 33.4343L26.0224 34.4515L24.1886 35.6124L22.5679 36.8969L21.1791 38.2834L20.0356 39.7489L19.5587 40.5646C19.2835 41.0352 19.0423 41.5247 18.837 42.0296L18.8119 42.0914C18.6117 42.5835 18.449 43.0901 18.325 43.6067L18.3169 43.6405C18.1939 44.1532 18.1112 44.6748 18.0695 45.2005C18.0274 45.7327 18.0274 46.2673 18.0695 46.7995C18.1112 47.3252 18.1939 47.8468 18.3169 48.3595L18.325 48.3933C18.449 48.9099 18.6117 49.4165 18.8119 49.9086L18.837 49.9704C19.0423 50.4753 19.2835 50.9648 19.5587 51.4354L20.0356 52.2511L21.1791 53.7166L22.5679 55.1031L24.1886 56.3876L26.0224 57.5485L28.0465 58.5657L30.234 59.4221L32.5555 60.1032L34.9793 60.5979L37.4722 60.8979L39.9999 60.9984L42.5275 60.8979L45.0204 60.5979L47.4442 60.1032L49.7658 59.4221L51.9533 58.5657L53.9773 57.5485L55.8112 56.3876L57.4318 55.1031L58.8206 53.7166L59.9641 52.2511L60.4411 51.4354C60.7163 50.9648 60.9574 50.4753 61.1628 49.9704L61.1879 49.9086C61.3881 49.4165 61.5508 48.9099 61.6747 48.3933L61.6828 48.3595C61.8058 47.8468 61.8885 47.3252 61.9302 46.7995C61.9724 46.2673 61.9724 45.7327 61.9302 45.2005C61.8885 44.6748 61.8058 44.1533 61.6828 43.6405L61.6747 43.6067C61.5508 43.0901 61.3881 42.5835 61.1879 42.0914L61.1628 42.0296C60.9574 41.5247 60.7163 41.0352 60.4411 40.5646L59.9641 39.7489L58.8206 38.2834L57.4318 36.8969L55.8112 35.6124L53.9773 34.4515L51.9533 33.4343L49.7658 32.5779L47.4443 31.8968L45.0204 31.4021L42.5275 31.1021L39.9999 31.0016L37.4722 31.1021Z" stroke="currentColor" stroke-linecap="round" stroke-linejoin="round" />
  <path fill-rule="evenodd" clip-rule="evenodd" d="M8.09699 26.1816C7.99344 23.9036 9.81242 22 12.0929 22H67.9069C70.1873 22 72.0063 23.9036 71.9028 26.1816L70.0846 66.1816C69.9875 68.3179 68.2272 70 66.0887 70H13.911C11.7725 70 10.0123 68.3179 9.91517 66.1816L8.09699 26.1816ZM12.0929 26L13.911 66H66.0887L67.9069 26H12.0929Z" stroke="currentColor" stroke-linecap="round" stroke-linejoin="round" />
</svg>