<svg width="80" height="80" viewBox="0 0 80 80" fill="none" xmlns="http://www.w3.org/2000/svg">
  <path d="M69.4142 13.4142C70.1953 12.6332 70.1953 11.3668 69.4142 10.5858C68.6332 9.80474 67.3668 9.80474 66.5858 10.5858L10.5858 66.5858C9.80474 67.3668 9.80474 68.6332 10.5858 69.4142C11.3668 70.1953 12.6332 70.1953 13.4142 69.4142L69.4142 13.4142Z" stroke="currentColor" stroke-linecap="round" stroke-linejoin="round" />
  <path d="M16 13.9648C14.8954 13.9648 14 14.8603 14 15.9648C14 17.0694 14.8954 17.9648 16 17.9648H52.7215C53.826 17.9648 54.7215 17.0694 54.7215 15.9648C54.7215 14.8603 53.826 13.9648 52.7215 13.9648H16Z" stroke="currentColor" stroke-linecap="round" stroke-linejoin="round" />
  <path d="M16 26C14.8954 26 14 26.8954 14 28C14 29.1046 14.8954 30 16 30H40.6863C41.7909 30 42.6863 29.1046 42.6863 28C42.6863 26.8954 41.7909 26 40.6863 26H16Z" stroke="currentColor" stroke-linecap="round" stroke-linejoin="round" />
  <path d="M63.3137 26C62.2091 26 61.3137 26.8954 61.3137 28C61.3137 29.1046 62.2091 30 63.3137 30H64C65.1046 30 66 29.1046 66 28C66 26.8954 65.1046 26 64 26H63.3137Z" stroke="currentColor" stroke-linecap="round" stroke-linejoin="round" />
  <path d="M16 37.9648C14.8954 37.9648 14 38.8603 14 39.9648C14 41.0694 14.8954 41.9648 16 41.9648H28.7215C29.826 41.9648 30.7215 41.0694 30.7215 39.9648C30.7215 38.8603 29.826 37.9648 28.7215 37.9648H16Z" stroke="currentColor" stroke-linecap="round" stroke-linejoin="round" />
  <path d="M51.3489 37.9648C50.2443 37.9648 49.3489 38.8603 49.3489 39.9648C49.3489 41.0694 50.2443 41.9648 51.3489 41.9648H64C65.1046 41.9648 66 41.0694 66 39.9648C66 38.8603 65.1046 37.9648 64 37.9648H51.3489Z" stroke="currentColor" stroke-linecap="round" stroke-linejoin="round" />
  <path d="M16 50C14.8954 50 14 50.8954 14 52C14 53.1046 14.8954 54 16 54H16.6863C17.7909 54 18.6863 53.1046 18.6863 52C18.6863 50.8954 17.7909 50 16.6863 50H16Z" stroke="currentColor" stroke-linecap="round" stroke-linejoin="round" />
  <path d="M39.3137 50C38.2091 50 37.3137 50.8954 37.3137 52C37.3137 53.1046 38.2091 54 39.3137 54H64C65.1046 54 66 53.1046 66 52C66 50.8954 65.1046 50 64 50H39.3137Z" stroke="currentColor" stroke-linecap="round" stroke-linejoin="round" />
  <path d="M27.3489 61.9648C26.2443 61.9648 25.3489 62.8603 25.3489 63.9648C25.3489 65.0694 26.2443 65.9648 27.3489 65.9648H64C65.1046 65.9648 66 65.0694 66 63.9648C66 62.8603 65.1046 61.9648 64 61.9648H27.3489Z" stroke="currentColor" stroke-linecap="round" stroke-linejoin="round" />
</svg>