<svg width="80" height="80" viewBox="0 0 80 80" fill="none" xmlns="http://www.w3.org/2000/svg">
  <path fill-rule="evenodd" clip-rule="evenodd" d="M40 9.41663C41.1046 9.41663 42 10.3121 42 11.4166V17.0826H54.6673C57.981 17.0826 60.6673 19.7689 60.6673 23.0826V29.0826C60.6673 32.3963 57.981 35.0826 54.6673 35.0826H42V43.7506H50C53.3137 43.7506 56 46.4369 56 49.7506V55.7506C56 59.0643 53.3137 61.7506 50 61.7506H42V67.4166C42 68.5212 41.1046 69.4166 40 69.4166C38.8954 69.4166 38 68.5212 38 67.4166V61.7506H30C26.6863 61.7506 24 59.0643 24 55.7506V49.7506C24 46.4369 26.6863 43.7506 30 43.7506H38V35.0826H25.334C22.0203 35.0826 19.334 32.3963 19.334 29.0826V23.0826C19.334 19.7689 22.0203 17.0826 25.334 17.0826H38V11.4166C38 10.3121 38.8954 9.41663 40 9.41663ZM40.0727 57.7506C40.0486 57.7497 40.0243 57.7493 40 57.7493C39.9757 57.7493 39.9514 57.7497 39.9273 57.7506H30C28.8954 57.7506 28 56.8552 28 55.7506V49.7506C28 48.646 28.8954 47.7506 30 47.7506H50C51.1046 47.7506 52 48.646 52 49.7506V55.7506C52 56.8552 51.1046 57.7506 50 57.7506H40.0727ZM40 21.0833C39.9827 21.0833 39.9655 21.0831 39.9483 21.0826H25.334C24.2294 21.0826 23.334 21.9781 23.334 23.0826V29.0826C23.334 30.1872 24.2294 31.0826 25.334 31.0826H54.6673C55.7719 31.0826 56.6673 30.1872 56.6673 29.0826V23.0826C56.6673 21.9781 55.7719 21.0826 54.6673 21.0826H40.0517C40.0345 21.0831 40.0173 21.0833 40 21.0833Z" stroke="currentColor" stroke-linecap="round" stroke-linejoin="round" />
</svg>