<svg width="80" height="80" viewBox="0 0 80 80" fill="none" xmlns="http://www.w3.org/2000/svg">
  <path fill-rule="evenodd" clip-rule="evenodd" d="M26.2428 17.1717C30.3375 13.0769 36.9764 13.0769 41.0712 17.1717C45.1659 21.2664 45.1659 27.9053 41.0712 32.0001L36.4854 36.5859L49.657 49.7574L56.2428 43.1717C57.0238 42.3906 58.2901 42.3906 59.0712 43.1717C59.8522 43.9527 59.8522 45.219 59.0712 46.0001L52.4854 52.5859L59.0712 59.1717C59.8522 59.9527 59.8522 61.219 59.0712 62.0001C58.2901 62.7811 57.0238 62.7811 56.2428 62.0001L49.657 55.4143L43.0712 62.0001C37.8719 67.1994 29.4421 67.1994 24.2428 62.0001C19.0434 56.8008 19.0434 48.371 24.2428 43.1717L30.8285 36.5859L26.2428 32.0001C22.148 27.9053 22.148 21.2664 26.2428 17.1717ZM38.2428 20.0001C35.7101 17.4674 31.6038 17.4674 29.0712 20.0001C26.5385 22.5327 26.5385 26.639 29.0712 29.1716L33.657 33.7574L38.2428 29.1717C40.7754 26.639 40.7754 22.5327 38.2428 20.0001ZM27.0712 46.0001L33.657 39.4143L46.8285 52.5859L40.2428 59.1717C36.6055 62.8089 30.7084 62.8089 27.0712 59.1717C23.434 55.5344 23.434 49.6373 27.0712 46.0001Z" stroke="currentColor" stroke-linecap="round" stroke-linejoin="round" />
</svg>