<svg width="80" height="80" viewBox="0 0 80 80" fill="none" xmlns="http://www.w3.org/2000/svg">
  <path d="M40.3536 31.061C40.1583 30.8657 39.8417 30.8657 39.6464 31.061L29.7678 40.9397C28.7915 41.916 27.2085 41.916 26.2322 40.9397C25.2559 39.9634 25.2559 38.3805 26.2322 37.4041L36.1109 27.5255C38.2588 25.3776 41.7412 25.3776 43.8891 27.5255L53.7678 37.4041C54.7441 38.3805 54.7441 39.9634 53.7678 40.9397C52.7915 41.916 51.2085 41.916 50.2322 40.9397L40.3536 31.061Z" stroke="currentColor" stroke-linecap="round" stroke-linejoin="round" />
  <path d="M40.3536 43.061C40.1583 42.8657 39.8417 42.8657 39.6464 43.061L29.7678 52.9397C28.7915 53.916 27.2085 53.916 26.2322 52.9397C25.2559 51.9634 25.2559 50.3805 26.2322 49.4041L36.1109 39.5255C38.2588 37.3776 41.7412 37.3776 43.8891 39.5255L53.7678 49.4041C54.7441 50.3805 54.7441 51.9634 53.7678 52.9397C52.7915 53.916 51.2085 53.916 50.2322 52.9397L40.3536 43.061Z" stroke="currentColor" stroke-linecap="round" stroke-linejoin="round" />
</svg>