<svg width="80" height="80" viewBox="0 0 80 80" fill="none" xmlns="http://www.w3.org/2000/svg">
  <path d="M42.4963 16.7892L66.2322 40.5252C67.2085 41.5015 68.7915 41.5015 69.7678 40.5252C70.7441 39.5489 70.7441 37.9659 69.7678 36.9896L46.0104 13.2323C42.6909 9.91281 37.309 9.91282 33.9896 13.2323L10.2322 36.9896C9.25592 37.9659 9.25592 39.5489 10.2322 40.5252C11.2085 41.5015 12.7915 41.5015 13.7678 40.5252L37.4963 16.7966L37.4944 19.7559L37.4944 19.7575L37.4943 66.7576C37.4943 68.1383 38.6136 69.2576 39.9943 69.2576C41.375 69.2576 42.4943 68.1383 42.4943 66.7576L42.4963 16.7892Z" stroke="currentColor" stroke-linecap="round" stroke-linejoin="round" />
</svg>