<svg width="80" height="80" viewBox="0 0 80 80" fill="none" xmlns="http://www.w3.org/2000/svg">
  <path d="M40 14.8267C40.043 14.8267 40.0857 14.8277 40.1281 14.8299C41.4927 14.8615 42.8477 15.398 43.8891 16.4393L57.7678 30.318C58.7441 31.2943 58.7441 32.8772 57.7678 33.8535C56.7915 34.8298 55.2085 34.8298 54.2322 33.8535L42.5 22.1213V32.0644L42.5 32.0751L42.5 32.0858L42.5 55.0858C42.5 56.4665 41.3807 57.5858 40 57.5858C38.6193 57.5858 37.5 56.4665 37.5 55.0858L37.5 32.0858L37.5 32.0751L37.5 32.0644V22.1213L25.7678 33.8535C24.7915 34.8298 23.2085 34.8298 22.2322 33.8535C21.2559 32.8772 21.2559 31.2943 22.2322 30.318L36.1109 16.4393C37.1523 15.3979 38.5073 14.8615 39.8719 14.8299C39.9143 14.8277 39.957 14.8267 40 14.8267Z" stroke="currentColor" stroke-linecap="round" stroke-linejoin="round" />
  <path d="M24 60.5859C22.6193 60.5859 21.5 61.7052 21.5 63.0859C21.5 64.4667 22.6193 65.5859 24 65.5859H56C57.3807 65.5859 58.5 64.4667 58.5 63.0859C58.5 61.7052 57.3807 60.5859 56 60.5859L24 60.5859Z" stroke="currentColor" stroke-linecap="round" stroke-linejoin="round" />
</svg>