<svg viewBox="0 0 80 80" fill="none">
  <path fill-rule="evenodd" clip-rule="evenodd" d="M45.48 14.5302C42.4534 11.5036 37.5464 11.5036 34.5198 14.5302L17.2321 31.8179C13.074 35.976 16.019 43.0856 21.8994 43.0856H25.6757V64.5856C25.6757 67.0709 27.6904 69.0856 30.1757 69.0856L50.1757 69.0856C52.6609 69.0856 54.6757 67.0709 54.6757 64.5856V43.0856H58.1004C63.9808 43.0856 66.9257 35.976 62.7677 31.8179L45.48 14.5302ZM38.0553 18.0657C39.1293 16.9918 40.8705 16.9918 41.9444 18.0657L59.2321 35.3534C60.2404 36.3617 59.5263 38.0856 58.1004 38.0856H52.1757C50.795 38.0856 49.6757 39.2049 49.6757 40.5856V64.0856L30.6757 64.0856V40.5856C30.6757 39.2049 29.5564 38.0856 28.1757 38.0856H21.8994C20.4735 38.0856 19.7594 36.3617 20.7677 35.3534L38.0553 18.0657Z" stroke="currentColor" stroke-linecap="round" stroke-linejoin="round" />
</svg>