<svg width="80" height="80" viewBox="0 0 80 80" fill="none" xmlns="http://www.w3.org/2000/svg">
  <path fill-rule="evenodd" clip-rule="evenodd" d="M32 10C29.7909 10 28 11.7909 28 14V28H14C11.7909 28 10 29.7909 10 32V48C10 50.2091 11.7909 52 14 52H28V66C28 68.2091 29.7909 70 32 70H48C50.2091 70 52 68.2091 52 66V52H66C68.2091 52 70 50.2091 70 48V32C70 29.7909 68.2091 28 66 28H52V14C52 11.7909 50.2091 10 48 10H32ZM48 14V28H32V14L48 14ZM14 32H28V48H14V32ZM32 66V52H48V66H32ZM66 32H52V48H66V32ZM35 32C33.3431 32 32 33.3431 32 35V35.5C32 37.1569 33.3431 38.5 35 38.5H35.5C37.1569 38.5 38.5 37.1569 38.5 35.5V35C38.5 33.3431 37.1569 32 35.5 32H35ZM44.5 32C42.8431 32 41.5 33.3431 41.5 35V35.5C41.5 37.1569 42.8431 38.5 44.5 38.5H45C46.6569 38.5 48 37.1569 48 35.5V35C48 33.3431 46.6569 32 45 32H44.5ZM35 41.5C33.3431 41.5 32 42.8431 32 44.5V45C32 46.6569 33.3431 48 35 48H35.5C37.1569 48 38.5 46.6569 38.5 45V44.5C38.5 42.8431 37.1569 41.5 35.5 41.5H35ZM44.5 41.5C42.8431 41.5 41.5 42.8431 41.5 44.5V45C41.5 46.6569 42.8431 48 44.5 48H45C46.6569 48 48 46.6569 48 45V44.5C48 42.8431 46.6569 41.5 45 41.5H44.5Z" stroke="currentColor" stroke-linecap="round" stroke-linejoin="round" />
</svg>