<svg width="80" height="80" viewBox="0 0 80 80" fill="none" xmlns="http://www.w3.org/2000/svg">
  <path fill-rule="evenodd" clip-rule="evenodd" d="M35.4999 8L44.4999 8C47.0175 8 49.14 9.6915 49.7929 12H53.9999C57.3136 12 59.9999 14.6863 59.9999 18L59.9999 66C59.9999 69.3137 57.3136 72 53.9999 72H25.9999C22.6862 72 19.9999 69.3137 19.9999 66L19.9999 18C19.9999 14.6863 22.6862 12 25.9999 12H30.207C30.8599 9.6915 32.9824 8 35.4999 8ZM25.9999 16C24.8954 16 23.9999 16.8954 23.9999 18L23.9999 66C23.9999 67.1046 24.8954 68 25.9999 68H53.9999C55.1045 68 55.9999 67.1046 55.9999 66L55.9999 18C55.9999 16.8954 55.1045 16 53.9999 16H25.9999ZM26.7616 43.1632L39.8815 22.4738C41.4901 19.9371 45.415 21.0766 45.415 24.0804V36.2298L50.6575 36.2298C53.0227 36.2298 54.4577 38.839 53.1911 40.8364L40.0712 61.5258C38.4626 64.0625 34.5377 62.923 34.5377 59.9192V47.7699L29.2951 47.7698C26.93 47.7698 25.495 45.1606 26.7616 43.1632ZM41.415 27.5247L31.1134 43.7698L36.5377 43.7699C37.6422 43.7699 38.5377 44.6653 38.5377 45.7699V56.4749L48.8393 40.2298H43.415C42.3104 40.2298 41.415 39.3343 41.415 38.2297V27.5247Z" stroke="currentColor" stroke-linecap="round" stroke-linejoin="round" />
</svg>