<svg width="80" height="80" viewBox="0 0 80 80" fill="none" xmlns="http://www.w3.org/2000/svg">
  <path fill-rule="evenodd" clip-rule="evenodd" d="M4 17C5.10457 17 6 17.8954 6 19V29H30C30.1749 29 30.3472 29.0112 30.5162 29.033C31.203 27.8192 32.5058 27 34 27H60C69.9411 27 78 35.0589 78 45V52.5C78 52.5892 77.9953 52.6773 77.9862 52.764C77.9953 52.8414 78 52.9202 78 53V61C78 62.1046 77.1046 63 76 63C74.8954 63 74 62.1046 74 61V55H6V61C6 62.1046 5.10457 63 4 63C2.89543 63 2 62.1046 2 61V19C2 17.8954 2.89543 17 4 17ZM34 51H74V45C74 37.268 67.732 31 60 31H34V51ZM30 33L6 33V51H30V33Z" stroke="currentColor" stroke-linecap="round" stroke-linejoin="round" />
</svg>