<svg width="80" height="80" viewBox="0 0 80 80" fill="none" xmlns="http://www.w3.org/2000/svg">
  <path fill-rule="evenodd" clip-rule="evenodd" d="M69.4142 13.4142C70.1953 12.6332 70.1953 11.3668 69.4142 10.5858C68.6332 9.80474 67.3668 9.80474 66.5858 10.5858L54.9933 22.1783C54.6283 21.7355 54.2409 21.3087 53.8317 20.8995L53.2043 20.2721C50.6968 17.7646 47.5257 16.0733 44.1038 15.3692V14C44.1038 11.7909 42.3129 10 40.1038 10C37.8946 10 36.1038 11.7909 36.1038 14V15.3692C32.6818 16.0733 29.5107 17.7646 27.0033 20.2721L26.3758 20.8995C23.0002 24.2752 21.1038 28.8535 21.1038 33.6274V36.5656C21.1038 41.436 19.169 46.107 15.725 49.5508C14.6869 50.5889 14.1038 51.9968 14.1038 53.4649C14.1038 56.0701 15.9036 58.255 18.3277 58.8438L10.5858 66.5858C9.80474 67.3668 9.80474 68.6332 10.5858 69.4142C11.3668 70.1953 12.6332 70.1953 13.4142 69.4142L23.8284 59.0001H31.2316C31.1945 59.3298 31.1756 59.6636 31.1756 60C31.1756 63.1897 32.8773 66.1372 35.6397 67.7321C38.4021 69.3269 41.8055 69.3269 44.5679 67.7321C47.3303 66.1372 49.032 63.1897 49.032 60C49.032 59.6636 49.013 59.3298 48.9759 59.0001H60.5686C63.6256 59.0001 66.1038 56.5219 66.1038 53.4649C66.1038 51.9968 65.5206 50.5889 64.4825 49.5508C61.0386 46.107 59.1038 41.436 59.1038 36.5656V33.6274C59.1038 30.8186 58.4473 28.0775 57.2192 25.6092L69.4142 13.4142ZM52.148 25.0236C51.7953 24.5709 51.4133 24.138 51.0033 23.7279L50.3758 23.1005C48.0882 20.8128 45.0903 19.3986 41.9004 19.0726C41.4294 19.0244 40.9542 19 40.4763 19H39.7312C39.2534 19 38.7781 19.0244 38.3071 19.0726C35.1173 19.3986 32.1194 20.8128 29.8317 23.1005L29.2043 23.7279C26.5788 26.3534 25.1038 29.9144 25.1038 33.6274V36.5656C25.1038 42.4969 22.7475 48.1853 18.5534 52.3793C18.2655 52.6672 18.1038 53.0577 18.1038 53.4649C18.1038 54.3127 18.7911 55.0001 19.639 55.0001H22.1715L52.148 25.0236ZM27.8284 55.0001L54.1861 28.6423C54.7871 30.2194 55.1038 31.9071 55.1038 33.6274V36.5656C55.1038 42.4969 57.46 48.1853 61.6541 52.3793C61.942 52.6672 62.1038 53.0577 62.1038 53.4649C62.1038 54.3127 61.4164 55.0001 60.5686 55.0001H27.8284ZM35.2779 59.0001C35.2105 59.3254 35.1756 59.6601 35.1756 60C35.1756 61.7607 36.1149 63.3876 37.6397 64.2679C39.1644 65.1483 41.0431 65.1483 42.5679 64.2679C44.0927 63.3876 45.032 61.7607 45.032 60C45.032 59.6601 44.997 59.3254 44.9296 59.0001H35.2779Z" stroke="currentColor" stroke-linecap="round" stroke-linejoin="round" />
</svg>