<svg width="80" height="80" viewBox="0 0 80 80" fill="none" xmlns="http://www.w3.org/2000/svg">
  <path d="M39.4688 40.501L38.5936 26.4971C38.5429 25.6858 39.1872 25 40 25C40.8128 25 41.4571 25.6858 41.4064 26.4971L40.5312 40.501C40.5137 40.7815 40.281 41 40 41C39.719 41 39.4863 40.7815 39.4688 40.501Z" stroke="currentColor" stroke-linecap="round" stroke-linejoin="round" />
  <path d="M39 48C39 47.4477 39.4477 47 40 47C40.5523 47 41 47.4477 41 48C41 48.5523 40.5523 49 40 49C39.4477 49 39 48.5523 39 48Z" stroke="currentColor" stroke-linecap="round" stroke-linejoin="round" />
  <path fill-rule="evenodd" clip-rule="evenodd" d="M36 14C36 11.7909 37.7909 10 40 10C42.2091 10 44 11.7909 44 14V15.3692C47.4219 16.0733 50.593 17.7646 53.1005 20.2721L53.7279 20.8995C57.1036 24.2752 59 28.8535 59 33.6274V36.5656C59 41.436 60.9348 46.107 64.3787 49.5508C65.4168 50.5889 66 51.9968 66 53.4649C66 56.5219 63.5218 59.0001 60.4648 59.0001H48.8721C48.9093 59.3298 48.9282 59.6636 48.9282 60C48.9282 63.1897 47.2265 66.1372 44.4641 67.7321C41.7017 69.3269 38.2983 69.3269 35.5359 67.7321C32.7735 66.1372 31.0718 63.1897 31.0718 60C31.0718 59.6636 31.0907 59.3298 31.1279 59.0001H19.5352C16.4782 59.0001 14 56.5219 14 53.4649C14 51.9968 14.5832 50.5889 15.6213 49.5508C19.0652 46.107 21 41.436 21 36.5656V33.6274C21 28.8535 22.8964 24.2752 26.2721 20.8995L26.8995 20.2721C29.407 17.7646 32.5781 16.0733 36 15.3692V14ZM40.3726 19C40.8504 19 41.3256 19.0244 41.7966 19.0726C44.9865 19.3986 47.9844 20.8128 50.2721 23.1005L50.8995 23.7279C53.525 26.3534 55 29.9144 55 33.6274V36.5656C55 42.4969 57.3562 48.1853 61.5503 52.3793C61.8383 52.6672 62 53.0577 62 53.4649C62 54.3127 61.3127 55.0001 60.4648 55.0001H19.5352C18.6873 55.0001 18 54.3127 18 53.4649C18 53.0577 18.1617 52.6672 18.4497 52.3793C22.6438 48.1853 25 42.4969 25 36.5656V33.6274C25 29.9144 26.475 26.3534 29.1005 23.7279L29.7279 23.1005C32.0156 20.8128 35.0135 19.3986 38.2034 19.0726C38.6744 19.0244 39.1496 19 39.6274 19H40.3726ZM35.1741 59.0001C35.1068 59.3254 35.0718 59.6601 35.0718 60C35.0718 61.7607 36.0111 63.3876 37.5359 64.2679C39.0607 65.1483 40.9393 65.1483 42.4641 64.2679C43.9889 63.3876 44.9282 61.7607 44.9282 60C44.9282 59.6601 44.8932 59.3254 44.8259 59.0001H35.1741Z" stroke="currentColor" stroke-linecap="round" stroke-linejoin="round" />
</svg>