<svg width="80" height="80" viewBox="0 0 80 80" fill="none" xmlns="http://www.w3.org/2000/svg">
  <path fill-rule="evenodd" clip-rule="evenodd" d="M40 10C37.7909 10 36 11.7909 36 14V15.3692C32.5781 16.0733 29.407 17.7646 26.8995 20.2721L26.2721 20.8995C22.8964 24.2752 21 28.8535 21 33.6274V36.5655C21 41.436 19.0652 46.1069 15.6213 49.5508C14.5832 50.5888 14 51.9968 14 53.4648C14 56.5218 16.4782 59 19.5352 59H31.1279C31.0907 59.3298 31.0718 59.6636 31.0718 60C31.0718 63.1897 32.7735 66.1372 35.5359 67.7321C38.2983 69.3269 41.7017 69.3269 44.4641 67.7321C47.2265 66.1372 48.9282 63.1897 48.9282 60C48.9282 59.6636 48.9093 59.3298 48.8721 59H60.4648C63.5218 59 66 56.5218 66 53.4648C66 51.9968 65.4168 50.5888 64.3787 49.5508C60.9348 46.1069 59 41.436 59 36.5655V33.6274C59 28.8535 57.1036 24.2752 53.7279 20.8995L53.1005 20.2721C50.593 17.7646 47.4219 16.0733 44 15.3692V14C44 11.7909 42.2091 10 40 10ZM40.3726 19H39.6274C35.9144 19 32.3534 20.475 29.7279 23.1005L29.1005 23.7279C26.475 26.3534 25 29.9144 25 33.6274V36.5655C25 42.4968 22.6438 48.1852 18.4497 52.3792C18.1617 52.6672 18 53.0576 18 53.4648C18 54.3127 18.6873 55 19.5352 55H60.4648C61.3127 55 62 54.3127 62 53.4648C62 53.0576 61.8383 52.6672 61.5503 52.3792C57.3562 48.1852 55 42.4968 55 36.5655V33.6274C55 29.9144 53.525 26.3534 50.8995 23.7279L50.2721 23.1005C47.6466 20.475 44.0856 19 40.3726 19ZM35.0718 60C35.0718 59.6601 35.1068 59.3253 35.1742 59H44.8258C44.8932 59.3253 44.9282 59.6601 44.9282 60C44.9282 61.7607 43.9889 63.3876 42.4641 64.2679C40.9393 65.1483 39.0607 65.1483 37.5359 64.2679C36.0111 63.3876 35.0718 61.7607 35.0718 60Z" stroke="currentColor" stroke-linecap="round" stroke-linejoin="round" />
</svg>