<svg width="80" height="80" viewBox="0 0 80 80" fill="none" xmlns="http://www.w3.org/2000/svg">
  <path fill-rule="evenodd" clip-rule="evenodd" d="M34 9C32.8954 9 32 9.89543 32 11V23C32 23.8102 32.4818 24.5079 33.1744 24.8222L19.2154 49H11C9.89543 49 9 49.8954 9 51V63C9 64.1046 9.89543 65 11 65H23C24.1046 65 25 64.1046 25 63V59.5H55V63C55 64.1046 55.8954 65 57 65H69C70.1046 65 71 64.1046 71 63V51C71 49.8954 70.1046 49 69 49H60.7846L46.8256 24.8222C47.5182 24.5079 48 23.8102 48 23V11C48 9.89543 47.1046 9 46 9H34ZM55 49H56.1658L42.3094 25H37.6906L23.8342 49H25V55.5H55V49ZM59 61H67V53H59V61ZM21 61H13V53H21V61ZM44 21V13H36V21H44Z" stroke="currentColor" stroke-linecap="round" stroke-linejoin="round" />
</svg>