<svg width="80" height="80" viewBox="0 0 80 80" fill="none" xmlns="http://www.w3.org/2000/svg">
  <path fill-rule="evenodd" clip-rule="evenodd" d="M31.5 7C31.5 5.89543 32.3954 5 33.5 5H45.5C46.6046 5 47.5 5.89543 47.5 7V15.3094L55.1542 19.7286C55.4561 19.007 56.1689 18.5 57 18.5H69C70.1046 18.5 71 19.3954 71 20.5V32.5C71 33.6046 70.1046 34.5 69 34.5H64.8827V45.5H69C70.1046 45.5 71 46.3954 71 47.5V59.5C71 60.6046 70.1046 61.5 69 61.5H57C56.1689 61.5 55.4561 60.993 55.1542 60.2714L47.5 64.6906V73C47.5 74.1046 46.6046 75 45.5 75H33.5C32.3954 75 31.5 74.1046 31.5 73V64.6906L23.8458 60.2714C23.5439 60.993 22.8311 61.5 22 61.5H10C8.89543 61.5 8 60.6046 8 59.5V47.5C8 46.3954 8.89543 45.5 10 45.5H14.1173V34.5H10C8.89543 34.5 8 33.6046 8 32.5V20.5C8 19.3954 8.89543 18.5 10 18.5H22C22.8311 18.5 23.5439 19.007 23.8458 19.7286L31.5 15.3094V7ZM55 55.7417V45.5H60.8827V34.5H55V24.2583L47.5 19.9282V21H31.5V19.9282L24 24.2583V34.5H18.1173V45.5H24V55.7417L31.5 60.0718V59H47.5V60.0718L55 55.7417ZM59 57.5H67V49.5L59 49.5V57.5ZM59 22.5H67V30.5H59V22.5ZM20 57.5V49.5L12 49.5V57.5H20ZM12 22.5H20V30.5H12V22.5ZM43.5 63H35.5V71H43.5V63ZM43.5 9V17H35.5V9H43.5Z" stroke="currentColor" stroke-linecap="round" stroke-linejoin="round" />
</svg>