<svg width="80" height="80" viewBox="0 0 80 80" fill="none" xmlns="http://www.w3.org/2000/svg">
  <path fill-rule="evenodd" clip-rule="evenodd" d="M22 16.5C22 15.1193 23.1193 14 24.5 14H41C48.1797 14 54 19.8203 54 27C54 31.1628 52.0434 34.8686 48.9996 37.248C54.2975 39.5626 58 44.8489 58 51C58 59.2843 51.2843 66 43 66H24.5C23.1193 66 22 64.8807 22 63.5V16.5ZM41 36C45.9706 36 50 31.9706 50 27C50 22.0294 45.9706 18 41 18H26V36H41ZM26 40H43C49.0751 40 54 44.9249 54 51C54 57.0751 49.0751 62 43 62H26V40Z" stroke="currentColor" stroke-linecap="round" stroke-linejoin="round" />
</svg>