<svg width="80" height="80" viewBox="0 0 80 80" fill="none" xmlns="http://www.w3.org/2000/svg">
  <path fill-rule="evenodd" clip-rule="evenodd" d="M48.0811 9.00175C48.0811 6.06862 44.3055 4.87845 42.6234 7.28137L17.5441 43.109C16.1523 45.0973 17.5747 47.8294 20.0018 47.8294L31.9991 47.8294V70.657C31.9991 73.5902 35.7748 74.7803 37.4568 72.3774L62.5361 36.5498C63.928 34.5615 62.5055 31.8294 60.0785 31.8294L48.0811 31.8294V9.00175ZM44.0811 12.1741L21.9225 43.8294L33.9991 43.8294C35.1037 43.8294 35.9991 44.7248 35.9991 45.8294V67.4847L58.1578 35.8294L46.0811 35.8294C44.9766 35.8294 44.0811 34.934 44.0811 33.8294V12.1741Z" stroke="currentColor" stroke-linecap="round" stroke-linejoin="round" />
</svg>