<svg viewBox="0 0 80 80" fill="none">
  <path fill-rule="evenodd" clip-rule="evenodd" d="M22 9C17.5817 9 14 12.5817 14 17V62.75C14 62.776 14.0005 62.8034 14.0017 62.832C14.0006 62.8878 14 62.9439 14 63C14 67.4183 17.5817 71 22 71H63.75C64.9927 71 66 69.9926 66 68.75V68.2983C66 67.1148 65.4697 66.1445 64.9124 65.4752C64.3416 64.7898 64 63.9124 64 62.95C64 61.9876 64.3416 61.1102 64.9124 60.4248C65.4697 59.7555 66 58.7852 66 57.6017V57.0625C66 57.0111 65.9981 56.9601 65.9944 56.9097C65.9981 56.8569 66 56.8037 66 56.75V11.9796C66 10.334 64.666 9 63.0204 9H22ZM61.0496 59H22C21.7309 59 21.468 59.0266 21.2138 59.0773C20.4642 59.2267 19.7901 59.5856 19.2551 60.0904C18.4823 60.8197 18 61.8535 18 63C18 65.2091 19.7909 67 22 67H61.1079C60.4045 65.8135 60 64.4275 60 62.95C60 61.5138 60.3822 60.1641 61.0496 59ZM62 55V13H22C19.7909 13 18 14.7909 18 17V56.0702C18.695 55.6681 19.4562 55.3677 20.2631 55.189C20.8223 55.0653 21.4035 55 22 55H62Z" stroke="currentColor" stroke-linecap="round" stroke-linejoin="round" />
</svg>