<svg width="80" height="80" viewBox="0 0 80 80" fill="none" xmlns="http://www.w3.org/2000/svg">
  <path fill-rule="evenodd" clip-rule="evenodd" d="M40.0001 21.995C41.1047 21.995 42.0001 22.8904 42.0001 23.995V24.005C42.0001 25.1096 41.1047 26.005 40.0001 26.005C38.8955 26.005 38.0001 25.1096 38.0001 24.005V23.995C38.0001 22.8904 38.8955 21.995 40.0001 21.995ZM40.0001 29.995C41.1047 29.995 42.0001 30.8904 42.0001 31.995V32.005C42.0001 33.1096 41.1047 34.005 40.0001 34.005C38.8955 34.005 38.0001 33.1096 38.0001 32.005V31.995C38.0001 30.8904 38.8955 29.995 40.0001 29.995ZM38.5832 41.4165C38.9454 41.78 39.4465 42.005 40.0001 42.005C40.5536 42.005 41.0545 41.7802 41.4166 41.4169C41.7801 41.0547 42.0051 40.5536 42.0051 40C42.0051 39.4463 41.7801 38.9452 41.4166 38.583C41.0545 38.2198 40.5535 37.995 40.0001 37.995C39.4466 37.995 38.9456 38.2198 38.5835 38.5832C38.22 38.9453 37.9951 39.4464 37.9951 40C37.9951 40.5535 38.2199 41.0544 38.5832 41.4165ZM21.9951 40C21.9951 38.8954 22.8905 38 23.9951 38H24.0051C25.1097 38 26.0051 38.8954 26.0051 40C26.0051 41.1046 25.1097 42 24.0051 42H23.9951C22.8905 42 21.9951 41.1046 21.9951 40ZM29.9951 40C29.9951 38.8954 30.8905 38 31.9951 38H32.0051C33.1097 38 34.0051 38.8954 34.0051 40C34.0051 41.1046 33.1097 42 32.0051 42H31.9951C30.8905 42 29.9951 41.1046 29.9951 40ZM45.9951 40C45.9951 38.8954 46.8905 38 47.9951 38H48.0051C49.1097 38 50.0051 38.8954 50.0051 40C50.0051 41.1046 49.1097 42 48.0051 42H47.9951C46.8905 42 45.9951 41.1046 45.9951 40ZM53.9951 40C53.9951 38.8954 54.8905 38 55.9951 38H56.0051C57.1097 38 58.0051 38.8954 58.0051 40C58.0051 41.1046 57.1097 42 56.0051 42H55.9951C54.8905 42 53.9951 41.1046 53.9951 40ZM40.0001 45.995C41.1047 45.995 42.0001 46.8904 42.0001 47.995V48.005C42.0001 49.1096 41.1047 50.005 40.0001 50.005C38.8955 50.005 38.0001 49.1096 38.0001 48.005V47.995C38.0001 46.8904 38.8955 45.995 40.0001 45.995ZM40.0001 53.995C41.1047 53.995 42.0001 54.8904 42.0001 55.995V56.005C42.0001 57.1096 41.1047 58.005 40.0001 58.005C38.8955 58.005 38.0001 57.1096 38.0001 56.005V55.995C38.0001 54.8904 38.8955 53.995 40.0001 53.995Z" stroke="currentColor" stroke-linecap="round" stroke-linejoin="round" />
  <path fill-rule="evenodd" clip-rule="evenodd" d="M14 16C14 14.8954 14.8954 14 16 14H64C65.1046 14 66 14.8954 66 16V64C66 65.1046 65.1046 66 64 66H16C14.8954 66 14 65.1046 14 64V16ZM18 18V62H62V18H18Z" stroke="currentColor" stroke-linecap="round" stroke-linejoin="round" />
</svg>