<svg viewBox="0 0 80 80" fill="none">
  <path fill-rule="evenodd" clip-rule="evenodd" d="M10.0508 33.9469C10.0503 33.9645 10.05 33.9822 10.05 34V66C10.05 67.0769 10.9231 67.95 12 67.95H68C69.077 67.95 69.9501 67.0769 69.9501 66V34.0051L69.9501 33.9999C69.9501 33.9715 69.9494 33.943 69.9482 33.9146C69.9378 33.6741 69.8839 33.4449 69.7941 33.2346L61.8106 13.2758C61.5144 12.5354 60.7974 12.05 60 12.05H20C19.2027 12.05 18.4857 12.5354 18.1895 13.2758L10.2059 33.2347C10.1122 33.4543 10.0575 33.6946 10.0508 33.9469ZM65.1198 32.05L58.6798 15.95H46.1548L47.7648 32.05H65.1198ZM37.7648 15.95H42.2353L43.8453 32.05H36.1548L37.7648 15.95ZM32.05 35.95H13.95V64.05H66.05V35.95H47.9501V44C47.9501 46.1815 46.1816 47.95 44 47.95H36C33.8185 47.95 32.05 46.1815 32.05 44V35.95ZM44.05 35.95H35.9501V44C35.9501 44.0105 35.9518 44.0156 35.9532 44.0189C35.9551 44.0234 35.9588 44.0294 35.9647 44.0353C35.9706 44.0413 35.9766 44.0449 35.9812 44.0469C35.9845 44.0482 35.9895 44.05 36 44.05H44C44.0105 44.05 44.0156 44.0482 44.0189 44.0469C44.0235 44.0449 44.0295 44.0413 44.0354 44.0353C44.0413 44.0294 44.045 44.0234 44.0469 44.0189C44.0483 44.0156 44.05 44.0105 44.05 44V35.95ZM33.8453 15.95L32.2353 32.05H14.8803L21.3203 15.95H33.8453Z" stroke="currentColor" stroke-linecap="square" />
</svg>