<svg width="80" height="80" viewBox="0 0 80 80" fill="none" xmlns="http://www.w3.org/2000/svg">
  <path fill-rule="evenodd" clip-rule="evenodd" d="M10.05 34C10.05 33.9822 10.0503 33.9645 10.0508 33.9469C10.0575 33.6946 10.1122 33.4543 10.2059 33.2347L18.1895 13.2758C18.4857 12.5354 19.2027 12.05 20 12.05H60C60.7974 12.05 61.5144 12.5354 61.8106 13.2758L69.7941 33.2346C69.8839 33.4449 69.9378 33.6741 69.9482 33.9146C69.9494 33.943 69.9501 33.9715 69.9501 33.9999L69.9501 34.0051V66C69.9501 67.0769 69.077 67.95 68 67.95H12C10.9231 67.95 10.05 67.0769 10.05 66V34ZM38.05 15.95H21.3203L14.8803 32.05H38.05V15.95ZM41.9501 32.05V15.95H58.6798L65.1198 32.05H41.9501ZM13.95 35.95V64.05H66.05V35.95H13.95Z" stroke="currentColor" stroke-linecap="round" stroke-linejoin="round" />
</svg>