<svg width="80" height="80" viewBox="0 0 80 80" fill="none" xmlns="http://www.w3.org/2000/svg">
  <path fill-rule="evenodd" clip-rule="evenodd" d="M37.6922 30C35.8229 30 34.3076 31.5153 34.3076 33.3846L34.3076 38.3077H29.3845C27.5152 38.3077 25.9999 39.823 25.9999 41.6923V46.3077C25.9999 48.177 27.5152 49.6923 29.3845 49.6923H34.3076L34.3076 54.6154C34.3076 56.4847 35.8229 58 37.6922 58H42.3076C44.1769 58 45.6922 56.4847 45.6922 54.6154V49.6923H50.6153C52.4846 49.6923 53.9999 48.177 53.9999 46.3077V41.6923C53.9999 39.823 52.4846 38.3077 50.6153 38.3077L45.6922 38.3077L45.6922 33.3846C45.6922 31.5154 44.1769 30 42.3076 30L37.6922 30ZM38.3076 34L41.6922 34L41.6922 40.1923C41.6922 41.3606 42.6393 42.3077 43.8076 42.3077H49.9999V45.6923H43.8076C42.6393 45.6923 41.6922 46.6394 41.6922 47.8077V54H38.3076L38.3076 47.8077C38.3076 46.6394 37.3605 45.6923 36.1922 45.6923H29.9999V42.3077H36.1922C37.3605 42.3077 38.3076 41.3606 38.3076 40.1923L38.3076 34Z" stroke="currentColor" stroke-linecap="round" stroke-linejoin="round" />
  <path fill-rule="evenodd" clip-rule="evenodd" d="M30 20C30 17.7909 31.7909 16 34 16H46C48.2091 16 50 17.7909 50 20V24H64C66.2091 24 68 25.7909 68 28V60C68 62.2091 66.2091 64 64 64H16C13.7909 64 12 62.2091 12 60V28C12 25.7909 13.7909 24 16 24H30V20ZM46 20V24H34V20H46ZM64 28L16 28V60H64V28Z" stroke="currentColor" stroke-linecap="round" stroke-linejoin="round" />
</svg>