<svg width="80" height="80" viewBox="0 0 80 80" fill="none" xmlns="http://www.w3.org/2000/svg">
  <path fill-rule="evenodd" clip-rule="evenodd" d="M31 28C29.8954 28 29 28.8954 29 30V36C29 37.1046 29.8954 38 31 38H37C38.1046 38 39 37.1046 39 36V30C39 28.8954 38.1046 28 37 28H31ZM33 34V32H35V34H33Z" stroke="currentColor" stroke-linecap="round" stroke-linejoin="round" />
  <path fill-rule="evenodd" clip-rule="evenodd" d="M43 28C41.8954 28 41 28.8954 41 30V36C41 37.1046 41.8954 38 43 38H49C50.1046 38 51 37.1046 51 36V30C51 28.8954 50.1046 28 49 28H43ZM45 34V32H47V34H45Z" stroke="currentColor" stroke-linecap="round" stroke-linejoin="round" />
  <path fill-rule="evenodd" clip-rule="evenodd" d="M31 40C29.8954 40 29 40.8954 29 42V48C29 49.1046 29.8954 50 31 50H37C38.1046 50 39 49.1046 39 48V42C39 40.8954 38.1046 40 37 40H31ZM33 46V44H35V46H33Z" stroke="currentColor" stroke-linecap="round" stroke-linejoin="round" />
  <path fill-rule="evenodd" clip-rule="evenodd" d="M43 40C41.8954 40 41 40.8954 41 42V48C41 49.1046 41.8954 50 43 50H49C50.1046 50 51 49.1046 51 48V42C51 40.8954 50.1046 40 49 40H43ZM45 46V44H47V46H45Z" stroke="currentColor" stroke-linecap="round" stroke-linejoin="round" />
  <path fill-rule="evenodd" clip-rule="evenodd" d="M31 52C29.8954 52 29 52.8954 29 54V60C29 61.1046 29.8954 62 31 62H37C38.1046 62 39 61.1046 39 60V54C39 52.8954 38.1046 52 37 52H31ZM33 58V56H35V58H33Z" stroke="currentColor" stroke-linecap="round" stroke-linejoin="round" />
  <path fill-rule="evenodd" clip-rule="evenodd" d="M43 52C41.8954 52 41 52.8954 41 54V60C41 61.1046 41.8954 62 43 62H49C50.1046 62 51 61.1046 51 60V54C51 52.8954 50.1046 52 49 52H43ZM45 58V56H47V58H45Z" stroke="currentColor" stroke-linecap="round" stroke-linejoin="round" />
  <path fill-rule="evenodd" clip-rule="evenodd" d="M42 8C42 6.89543 41.1046 6 40 6C38.8954 6 38 6.89543 38 8V10H31C29.8954 10 29 10.8954 29 12V16H24C22.8954 16 22 16.8954 22 18V24C22 24.7403 22.4022 25.3866 23 25.7324V70C21.8954 70 21 70.8954 21 72C21 73.1046 21.8954 74 23 74H57C58.1046 74 59 73.1046 59 72C59 70.8954 58.1046 70 57 70V25.7324C57.5978 25.3866 58 24.7403 58 24V18C58 16.8954 57.1046 16 56 16H51V12C51 10.8954 50.1046 10 49 10H42V8ZM47 14V16H33V14H47ZM54 20V22H26V20H54ZM27 70V26H53V70H48V68C48 65.7909 46.2091 64 44 64H36C33.7909 64 32 65.7909 32 68V70H27ZM36 68V70H44V68H36Z" stroke="currentColor" stroke-linecap="round" stroke-linejoin="round" />
</svg>