<svg width="80" height="80" viewBox="0 0 80 80" fill="none" xmlns="http://www.w3.org/2000/svg">
  <path d="M48 38C48 35.7909 46.2091 34 44 34C41.7909 34 40 35.7909 40 38C40 40.2091 41.7909 42 44 42C46.2091 42 48 40.2091 48 38Z" stroke="currentColor" stroke-linecap="round" stroke-linejoin="round" />
  <path fill-rule="evenodd" clip-rule="evenodd" d="M24 14C20.6863 14 18 16.6863 18 20V26H12C8.68629 26 6 28.6863 6 32V60C6 63.3137 8.68629 66 12 66H50C53.3137 66 56 63.3137 56 60V57.6216L68.4136 62.9847C71.0544 64.1256 74 62.1894 74 59.3127V33.3982C74 30.5215 71.0544 28.5853 68.4136 29.7262L56 35.0893V32C56 28.6863 53.3137 26 50 26H22V20C22 18.8954 22.8954 18 24 18H48C49.1046 18 50 17.1046 50 16C50 14.8954 49.1046 14 48 14L24 14ZM12 30C10.8954 30 10 30.8954 10 32V60C10 61.1046 10.8954 62 12 62H50C51.1046 62 52 61.1046 52 60V32C52 30.8954 51.1046 30 50 30H12ZM56 39.4466V53.2643L70 59.3127V33.3982L56 39.4466Z" stroke="currentColor" stroke-linecap="round" stroke-linejoin="round" />
</svg>