<svg width="80" height="80" viewBox="0 0 80 80" fill="none" xmlns="http://www.w3.org/2000/svg">
  <path fill-rule="evenodd" clip-rule="evenodd" d="M39.9349 8.71338L41.4398 10.4326C43.9402 13.2891 45.9761 16.5644 47.4366 20.1463L47.5753 20.4866C49.1151 24.2629 49.9771 28.2386 50.1614 32.2381C52.2456 30.6081 54.5476 29.2395 57.0206 28.1796L57.3104 28.0554C60.4095 26.7271 63.6778 25.9413 66.9781 25.6996L69.2566 25.5328L69.1206 27.8134C68.9235 31.1173 68.1816 34.3966 66.8948 37.5139L66.7744 37.8055C65.6373 40.5601 64.1188 43.11 62.2822 45.3909C64.7048 46.4687 66.9116 47.9249 68.831 49.6854L70.5161 51.2309L68.7601 52.6953C66.7134 54.4022 64.3808 55.7764 61.8428 56.7422L61.6023 56.8337C58.8654 57.8752 55.9938 58.4161 53.1192 58.4597C53.5284 59.38 53.8543 60.3318 54.0947 61.3033L54.6462 63.5317L52.3633 63.7727C50.5034 63.9691 48.6068 63.8611 46.7492 63.4361L46.5572 63.3922C44.951 63.0247 43.4191 62.4369 42 61.6561L42 68.9999C42 70.1045 41.1046 70.9999 40 70.9999C38.8955 70.9999 38 70.1045 38 68.9999L38 61.6552C36.5806 62.4363 35.0484 63.0242 33.4417 63.3918L33.2498 63.4358C31.3873 63.8619 29.4856 63.9693 27.621 63.7708L25.3457 63.5286L25.8902 61.3061C26.1213 60.3628 26.4329 59.438 26.8231 58.5422C23.968 58.4923 21.1169 57.9516 18.3985 56.9172L18.1581 56.8257C15.6197 55.8597 13.2867 54.4852 11.2397 52.7779L9.48389 51.3134L11.169 49.768C13.1007 47.9965 15.3234 46.5331 17.7642 45.4534C15.9049 43.1565 14.3689 40.5851 13.2214 37.8053L13.1011 37.5137C11.8143 34.3964 11.0724 31.1171 10.8753 27.8132L10.7392 25.5328L13.0176 25.6994C16.3185 25.9409 19.5874 26.7268 22.6871 28.0553L22.9769 28.1795C25.4013 29.2186 27.6613 30.5544 29.713 32.1422C29.9065 28.1751 30.767 24.2328 32.2945 20.4866L32.4333 20.1463C33.8937 16.5644 35.9296 13.2891 38.43 10.4326L39.9349 8.71338ZM47.4494 59.493C45.4406 59.0333 43.5821 58.1279 42 56.865L42 52.9999C42 51.8953 41.1045 50.9999 40 50.9999C38.8954 50.9999 38 51.8953 38 52.9999L38 56.8638C36.4177 58.1272 34.5588 59.0329 32.5495 59.4926L32.3576 59.5365C31.7881 59.6668 31.2139 59.7582 30.6386 59.8114C30.888 59.2791 31.1743 58.7612 31.4967 58.2617L31.6036 58.0962C31.7338 57.8945 31.8689 57.6968 32.0088 57.5033L34.7499 53.7117L30.1151 54.3502C26.6688 54.825 23.1279 54.437 19.8211 53.1787L19.5808 53.0872C18.241 52.5774 16.9699 51.9314 15.7843 51.1652C16.935 50.3421 18.1771 49.6356 19.4943 49.0624L19.7302 48.9597C20.4045 48.6662 21.0906 48.4099 21.7855 48.1907L24.9001 47.2081L22.6092 44.8804C20.1974 42.4299 18.2554 39.517 16.9188 36.279L16.7984 35.9875C15.9952 34.0416 15.4368 32.023 15.1232 29.976C17.1656 30.3171 19.1764 30.9025 21.1113 31.7318L21.4012 31.8561C24.8068 33.3157 27.8396 35.4477 30.3393 38.0894L34.2712 42.2447L33.7848 36.5447C33.3656 31.632 34.1035 26.6443 35.9985 21.9968L36.1372 21.6566C37.1219 19.2416 38.4022 16.9844 39.9349 14.9288C41.4676 16.9844 42.748 19.2416 43.7326 21.6566L43.8714 21.9968C45.7845 26.6888 46.5183 31.7275 46.0727 36.6857L45.5509 42.4914L49.5271 38.229C52.0516 35.5228 55.131 33.3414 58.5963 31.8562L58.8862 31.7319C60.8205 30.9028 62.8308 30.3175 64.8726 29.9764C64.559 32.0233 64.0006 34.0418 63.1974 35.9877L63.077 36.2792C61.7513 39.4908 59.8301 42.3825 57.4457 44.8205L55.177 47.14L58.2685 48.1246C58.9447 48.34 59.6124 48.5905 60.2689 48.8763L60.5048 48.9789C61.8224 49.5523 63.0647 50.259 64.2157 51.0823C63.0303 51.8483 61.7595 52.4941 60.4201 53.0037L60.1797 53.0952C56.8425 54.3652 53.2667 54.7486 49.7904 54.2534L45.0591 53.5793L47.9001 57.4223C48.0707 57.653 48.2344 57.8898 48.3909 58.1323L48.4977 58.2977C48.8125 58.7854 49.0929 59.2906 49.3381 59.8097C48.7703 59.7562 48.2035 59.6655 47.6414 59.5369L47.4494 59.493Z" stroke="currentColor" stroke-linecap="round" stroke-linejoin="round" />
</svg>