<svg width="80" height="80" viewBox="0 0 80 80" fill="none" xmlns="http://www.w3.org/2000/svg">
  <path fill-rule="evenodd" clip-rule="evenodd" d="M19 44.3711C19 41.6097 21.2386 39.3711 24 39.3711C26.7614 39.3711 29 41.6097 29 44.3711C29 47.1325 26.7614 49.3711 24 49.3711C21.2386 49.3711 19 47.1325 19 44.3711ZM24 43.3711C23.4477 43.3711 23 43.8188 23 44.3711C23 44.9234 23.4477 45.3711 24 45.3711C24.5523 45.3711 25 44.9234 25 44.3711C25 43.8188 24.5523 43.3711 24 43.3711Z" stroke="currentColor" stroke-linecap="round" stroke-linejoin="round" />
  <path fill-rule="evenodd" clip-rule="evenodd" d="M56 39.3711C58.7614 39.3711 61 41.6097 61 44.3711C61 47.1325 58.7614 49.3711 56 49.3711C53.2386 49.3711 51 47.1325 51 44.3711C51 41.6097 53.2386 39.3711 56 39.3711ZM57 44.3711C57 43.8188 56.5523 43.3711 56 43.3711C55.4477 43.3711 55 43.8188 55 44.3711C55 44.9234 55.4477 45.3711 56 45.3711C56.5523 45.3711 57 44.9234 57 44.3711Z" stroke="currentColor" stroke-linecap="round" stroke-linejoin="round" />
  <path fill-rule="evenodd" clip-rule="evenodd" d="M22.0436 24.5587C23.5406 20.7193 27.2395 18.1914 31.3604 18.1914H48.6394C52.7603 18.1914 56.4592 20.7193 57.9562 24.5587L61.4918 33.6266C65.2928 35.0431 68 38.7054 68 43V49C68 51.2208 66.7934 53.1599 65 54.1973V58.3711C65 60.5803 63.2091 62.3711 61 62.3711H55C52.7909 62.3711 51 60.5803 51 58.3711V55H29V58.3711C29 60.5803 27.2091 62.3711 25 62.3711H19C16.7909 62.3711 15 60.5803 15 58.3711V54.1973C13.2066 53.1599 12 51.2208 12 49V43C12 38.7055 14.7071 35.0432 18.508 33.6266L22.0436 24.5587ZM23.0456 33H56.9542L54.2295 26.0118C53.3313 23.7082 51.1119 22.1914 48.6394 22.1914H31.3604C28.8879 22.1914 26.6685 23.7082 25.7703 26.0118L23.0456 33ZM22 37C18.6863 37 16 39.6863 16 43V49C16 50.1046 16.8954 51 18 51H62C63.1046 51 64 50.1046 64 49V43C64 39.6863 61.3137 37 58 37H22ZM19 55V58.3711H25V55H19ZM61 58.3711V55H55V58.3711H61Z" stroke="currentColor" stroke-linecap="round" stroke-linejoin="round" />
</svg>