<svg width="80" height="80" viewBox="0 0 80 80" fill="none" xmlns="http://www.w3.org/2000/svg">
  <path fill-rule="evenodd" clip-rule="evenodd" d="M36.6925 31.4419C38.4987 29.6358 41.4271 29.6358 43.2333 31.4419L51.8771 40.0858C54.4286 42.6373 52.6215 47 49.0131 47L30.9126 47C27.3042 47 25.4972 42.6373 28.0487 40.0858L36.6925 31.4419ZM39.5209 34.2704C39.765 34.0263 40.1608 34.0263 40.4048 34.2704L49.0487 42.9142C49.058 42.9235 49.0633 42.9302 49.0659 42.9338L49.0675 42.9361C49.0673 42.9413 49.0662 42.9529 49.0596 42.969C49.0529 42.985 49.0455 42.994 49.0419 42.9978L49.0392 42.9983C49.0348 42.999 49.0263 43 49.0131 43L30.9126 43C30.8995 43 30.891 42.999 30.8866 42.9983L30.8839 42.9978C30.8803 42.994 30.8729 42.985 30.8662 42.969C30.8596 42.9529 30.8584 42.9413 30.8583 42.9361L30.8598 42.9338C30.8625 42.9302 30.8678 42.9235 30.8771 42.9142L39.5209 34.2704Z" stroke="currentColor" stroke-linecap="round" stroke-linejoin="round" />
  <path fill-rule="evenodd" clip-rule="evenodd" d="M14 18C14 15.7909 15.7909 14 18 14L62 14C64.2091 14 66 15.7909 66 18V62C66 64.2091 64.2091 66 62 66H18C15.7909 66 14 64.2091 14 62L14 18ZM18 18L62 18L62 62L18 62L18 18Z" stroke="currentColor" stroke-linecap="round" stroke-linejoin="round" />
</svg>