<svg viewBox="0 0 80 80" fill="none">
  <path fill-rule="evenodd" clip-rule="evenodd" d="M40.0007 11.9258C37.4922 11.9258 35.223 13.4149 34.2246 15.7161L33.7729 16.7573L32.8611 16.0815C30.8458 14.5877 28.1361 14.4327 25.9637 15.687C23.7912 16.9413 22.5706 19.3654 22.8566 21.8576L22.986 22.9851L21.8585 22.8557C19.3663 22.5697 16.9421 23.7904 15.6878 25.9628C14.4336 28.1353 14.5886 30.845 16.0823 32.8603L16.7582 33.772L15.717 34.2237C13.4157 35.2221 11.9266 37.4913 11.9266 39.9999C11.9266 42.5084 13.4157 44.7776 15.717 45.776L16.7582 46.2277L16.0823 47.1394C14.5886 49.1547 14.4336 51.8644 15.6878 54.0369C16.9421 56.2093 19.3663 57.43 21.8585 57.144L22.986 57.0146L22.8566 58.1421C22.5706 60.6343 23.7912 63.0585 25.9637 64.3127C28.1361 65.567 30.8458 65.412 32.8611 63.9182L33.7729 63.2424L34.2246 64.2836C35.223 66.5849 37.4922 68.0739 40.0007 68.0739C42.5092 68.0739 44.7784 66.5849 45.7768 64.2836L46.2285 63.2424L47.1403 63.9182C49.1556 65.412 51.8653 65.567 54.0377 64.3127C56.2102 63.0584 57.4308 60.6343 57.1448 58.1421L57.0154 57.0146L58.1429 57.144C60.6351 57.43 63.0593 56.2093 64.3136 54.0369C65.5678 51.8644 65.4129 49.1547 63.9191 47.1394L63.2433 46.2277L64.2844 45.776C66.5857 44.7776 68.0748 42.5084 68.0748 39.9999C68.0748 37.4913 66.5857 35.2221 64.2844 34.2237L63.2433 33.772L63.9191 32.8603C65.4129 30.845 65.5678 28.1353 64.3136 25.9628C63.0593 23.7904 60.6351 22.5697 58.143 22.8557L57.0154 22.9851L57.1448 21.8576C57.4308 19.3654 56.2102 16.9413 54.0377 15.687C51.8653 14.4327 49.1556 14.5877 47.1403 16.0815L46.2285 16.7573L45.7768 15.7161C44.7784 13.4149 42.5092 11.9258 40.0007 11.9258ZM40.0007 15.9258C39.0858 15.9258 38.2582 16.4689 37.8941 17.3082L35.4376 22.9703L30.4792 19.295C29.7442 18.7502 28.756 18.6937 27.9637 19.1511C27.1714 19.6085 26.7262 20.4926 26.8305 21.4016L27.5342 27.5333L21.4024 26.8296C20.4935 26.7253 19.6094 27.1705 19.152 27.9628C18.6945 28.7551 18.751 29.7434 19.2958 30.4784L22.9711 35.4368L17.309 37.8933C16.4697 38.2574 15.9266 39.085 15.9266 39.9999C15.9266 40.9147 16.4697 41.7423 17.309 42.1064L22.9711 44.5629L19.2958 49.5213C18.751 50.2563 18.6945 51.2446 19.152 52.0369C19.6094 52.8292 20.4935 53.2744 21.4024 53.1701L27.5342 52.4664L26.8305 58.5982C26.7262 59.5071 27.1714 60.3912 27.9637 60.8486C28.756 61.306 29.7442 61.2495 30.4792 60.7047L35.4376 57.0294L37.8941 62.6916C38.2582 63.5309 39.0858 64.0739 40.0007 64.0739C40.9156 64.0739 41.7432 63.5309 42.1073 62.6916L44.5638 57.0294L49.5222 60.7047C50.2572 61.2495 51.2454 61.3061 52.0377 60.8486C52.8301 60.3912 53.2752 59.5071 53.1709 58.5982L52.4672 52.4664L58.599 53.1701C59.5079 53.2744 60.392 52.8292 60.8495 52.0369C61.3069 51.2446 61.2504 50.2563 60.7056 49.5214L57.0303 44.5629L62.6924 42.1064C63.5317 41.7423 64.0748 40.9147 64.0748 39.9999C64.0748 39.085 63.5317 38.2574 62.6924 37.8933L57.0303 35.4368L60.7056 30.4784C61.2504 29.7434 61.3069 28.7551 60.8495 27.9628C60.392 27.1705 59.5079 26.7253 58.599 26.8296L52.4672 27.5333L53.1709 21.4016C53.2752 20.4926 52.8301 19.6085 52.0377 19.1511C51.2454 18.6937 50.2572 18.7502 49.5222 19.295L44.5638 22.9703L42.1073 17.3082C41.7432 16.4689 40.9156 15.9258 40.0007 15.9258Z" stroke="currentColor" stroke-linecap="round" stroke-linejoin="round" />
</svg>