<svg viewBox="0 0 80 80" fill="none">
  <path fill-rule="evenodd" clip-rule="evenodd" d="M39.0701 12.4515C38.1817 12.4815 37.2915 12.5547 36.4025 12.6717C29.1545 13.6259 22.5825 17.4203 18.1322 23.2201C13.6819 29.0198 11.7178 36.35 12.672 43.5979C13.0603 46.5476 13.919 49.3854 15.1919 52.0138L24.9036 46.4068C24.0252 44.3369 23.5789 42.1016 23.6012 39.8389C23.63 36.9056 24.4451 34.0337 25.9614 31.5225C27.4778 29.0114 29.6399 26.9529 32.2225 25.5617C34.2125 24.4897 36.3961 23.8441 38.6344 23.657L39.0701 12.4515ZM41.2237 8.4595C39.4504 8.39071 37.6631 8.47124 35.8804 8.70594C27.5806 9.79862 20.0549 14.1436 14.9588 20.785C9.86264 27.4264 7.61352 35.8203 8.70619 44.12C9.25253 48.2698 10.612 52.2263 12.665 55.7821C14.7179 59.338 17.4646 62.4935 20.7853 65.0416C27.4267 70.1377 35.8205 72.3868 44.1203 71.2942C52.42 70.2015 59.9457 65.8565 65.0418 59.2151C70.138 52.5737 72.3871 44.1798 71.2944 35.8801C70.7481 31.7303 69.3886 27.7738 67.3357 24.218C67.3328 24.213 67.3299 24.2081 67.327 24.2031C67.3241 24.198 67.3212 24.1929 67.3182 24.1878C65.2671 20.6443 62.5266 17.4994 59.2153 14.9585C54.005 10.9605 47.7163 8.71482 41.2406 8.46016C41.236 8.45998 41.2314 8.4598 41.2269 8.45962M42.6384 23.8136L43.079 12.6083C48.0227 13.1641 52.7678 15.053 56.7803 18.1319C59.1325 19.9368 61.1548 22.0906 62.7915 24.497L53.0863 30.1147C51.8295 28.4511 50.2632 27.0372 48.4671 25.9545C46.673 24.8731 44.6938 24.1486 42.6384 23.8136ZM50.7357 33.7941C50.7345 33.7921 50.7334 33.7901 50.7322 33.7881C49.6839 31.977 48.1942 30.4606 46.402 29.3803C44.6113 28.3008 42.5768 27.6917 40.4876 27.6096C38.2713 27.5224 36.0722 28.0313 34.1196 29.0832C32.1669 30.1351 30.5321 31.6915 29.3856 33.5902C28.239 35.4889 27.6228 37.6603 27.601 39.8782C27.5792 42.0961 28.1527 44.2792 29.2617 46.2C30.906 49.0481 33.6144 51.1263 36.791 51.9775C39.9676 52.8287 43.3523 52.3831 46.2004 50.7387C49.0485 49.0944 51.1267 46.386 51.9779 43.2094C52.829 40.0327 52.3834 36.6481 50.7391 33.8C50.7379 33.798 50.7368 33.7961 50.7357 33.7941ZM55.0972 33.5932C56.5191 36.9436 56.7934 40.6924 55.8416 44.2446C54.7158 48.446 51.9672 52.028 48.2004 54.2028C44.4336 56.3776 39.9571 56.9669 35.7557 55.8412C32.2035 54.8894 29.094 52.7775 26.9035 49.8709L17.192 55.4779C18.8318 57.8944 20.8599 60.057 23.2203 61.8682C29.0201 66.3185 36.3502 68.2826 43.5981 67.3284C50.8461 66.3742 57.4181 62.5798 61.8684 56.78C66.3187 50.9803 68.2828 43.6501 67.3286 36.4022C66.9403 33.4525 66.0816 30.6147 64.8087 27.9863L55.0972 33.5932Z" stroke="currentColor" stroke-linecap="round" stroke-linejoin="round" />
</svg>