<svg width="80" height="80" viewBox="0 0 80 80" fill="none" xmlns="http://www.w3.org/2000/svg">
  <path fill-rule="evenodd" clip-rule="evenodd" d="M39.0701 12.4515C38.1817 12.4815 37.2915 12.5547 36.4025 12.6717C29.1545 13.6259 22.5825 17.4203 18.1322 23.2201C13.6819 29.0198 11.7178 36.35 12.672 43.5979C13.0603 46.5476 13.919 49.3854 15.192 52.0138L38.0448 38.8197L39.0701 12.4515ZM41.2247 8.45954C39.451 8.39068 37.6635 8.47119 35.8804 8.70594C27.5806 9.79862 20.0549 14.1436 14.9588 20.785C9.86264 27.4264 7.61352 35.8203 8.70619 44.12C9.25253 48.2698 10.612 52.2263 12.665 55.7821C14.7179 59.338 17.4646 62.4935 20.7853 65.0416C27.4267 70.1377 35.8205 72.3868 44.1203 71.2942C52.42 70.2015 59.9457 65.8565 65.0418 59.2151C70.138 52.5737 72.3871 44.1798 71.2944 35.8801C70.7481 31.7303 69.3886 27.7738 67.3357 24.218C67.3328 24.213 67.3299 24.208 67.327 24.2031C67.3241 24.198 67.3211 24.1929 67.3182 24.1878C65.2671 20.6443 62.5266 17.4994 59.2153 14.9585C54.005 10.9605 47.7163 8.71482 41.2406 8.46016C41.236 8.45998 41.2314 8.4598 41.2269 8.45962M42.1415 36.4498L43.079 12.6083C48.0227 13.1641 52.7678 15.053 56.7803 18.1319C59.1325 19.9368 61.1548 22.0906 62.7915 24.497L42.1415 36.4498ZM17.192 55.4779C18.8318 57.8944 20.8599 60.057 23.2203 61.8682C29.0201 66.3185 36.3502 68.2826 43.5981 67.3284C50.8461 66.3742 57.4181 62.5798 61.8684 56.78C66.3187 50.9803 68.2828 43.6501 67.3286 36.4022C66.9403 33.4525 66.0816 30.6147 64.8087 27.9863L17.192 55.4779Z" stroke="currentColor" stroke-linecap="round" stroke-linejoin="round" />
</svg>