<svg viewBox="0 0 80 80" fill="none">
  <path d="M61.8259 24.5353C62.6069 23.7543 62.6069 22.4879 61.8259 21.7069C61.0448 20.9258 59.7785 20.9258 58.9975 21.7069L34.5568 46.1475C33.7758 46.9286 33.7758 48.1949 34.5568 48.976C35.3379 49.757 36.6042 49.757 37.3853 48.976L61.8259 24.5353Z" stroke="currentColor" stroke-linecap="round" stroke-linejoin="round" />
  <path d="M10.9142 38.6774C10.1332 37.8964 8.86684 37.8964 8.08579 38.6774C7.30474 39.4585 7.30474 40.7248 8.08579 41.5059L23.6421 57.0622C24.3072 57.7273 25.1535 58.111 26.0222 58.2087C27.1198 58.3321 28.1097 57.5424 28.2332 56.4447C28.3566 55.3476 27.5676 54.358 26.4707 54.2339L10.9142 38.6774Z" stroke="currentColor" stroke-linecap="round" stroke-linejoin="round" />
  <path d="M71.6347 24.5355C72.4158 23.7545 72.4158 22.4882 71.6347 21.7071C70.8537 20.9261 69.5873 20.9261 68.8063 21.7071L36.2794 54.234L20.723 38.6777C19.942 37.8966 18.6756 37.8966 17.8946 38.6777C17.1135 39.4587 17.1135 40.7251 17.8946 41.5061L33.4509 57.0625C35.013 58.6246 37.5457 58.6246 39.1078 57.0625L71.6347 24.5355Z" stroke="currentColor" stroke-linecap="round" stroke-linejoin="round" />
</svg>