<svg viewBox="0 0 80 80" fill="none">
  <path d="M40.7442 22.0619C40.3537 21.6714 39.7205 21.6714 39.33 22.0619L17.4513 43.9406C16.6703 44.7217 15.4039 44.7217 14.6229 43.9406C13.8418 43.1596 13.8418 41.8932 14.6229 41.1122L36.5016 19.2335C38.4542 17.2809 41.62 17.2809 43.5726 19.2335L65.4513 41.1122C66.2324 41.8932 66.2324 43.1596 65.4513 43.9406C64.6703 44.7217 63.4039 44.7217 62.6229 43.9406L40.7442 22.0619Z" stroke="currentColor" stroke-linecap="round" stroke-linejoin="round" />
  <path d="M40.7442 38.0619C40.3537 37.6714 39.7205 37.6714 39.33 38.0619L17.4513 59.9406C16.6703 60.7217 15.4039 60.7217 14.6229 59.9406C13.8418 59.1596 13.8418 57.8932 14.6229 57.1122L36.5016 35.2335C38.4542 33.2809 41.62 33.2809 43.5726 35.2335L65.4513 57.1122C66.2324 57.8932 66.2324 59.1596 65.4513 59.9406C64.6703 60.7217 63.4039 60.7217 62.6229 59.9406L40.7442 38.0619Z" stroke="currentColor" stroke-linecap="round" stroke-linejoin="round" />
</svg>