<svg width="80" height="80" viewBox="0 0 80 80" fill="none" xmlns="http://www.w3.org/2000/svg">
  <path d="M39.8047 35.097C39.9023 34.9994 40.0606 34.9994 40.1582 35.097L50.5672 45.506C51.3483 46.2871 52.6146 46.2871 53.3957 45.506C54.1767 44.725 54.1767 43.4586 53.3957 42.6776L42.9866 32.2686C41.3269 30.6088 38.636 30.6088 36.9762 32.2686L26.5672 42.6776C25.7862 43.4586 25.7862 44.725 26.5672 45.506C27.3483 46.2871 28.6146 46.2871 29.3957 45.506L39.8047 35.097Z" stroke="currentColor" />
  <path fill-rule="evenodd" clip-rule="evenodd" d="M40 10C23.4315 10 10 23.4315 10 40C10 56.5685 23.4315 70 40 70C56.5685 70 70 56.5685 70 40C70 23.4315 56.5685 10 40 10ZM14 40C14 25.6406 25.6406 14 40 14C54.3594 14 66 25.6406 66 40C66 54.3594 54.3594 66 40 66C25.6406 66 14 54.3594 14 40Z" stroke="currentColor" />
</svg>