<svg width="80" height="80" viewBox="0 0 80 80" fill="none" xmlns="http://www.w3.org/2000/svg">
  <path d="M23.2203 63.0005H56.7813C56.8057 63.0005 56.8301 63.0001 56.8543 62.9994H59.6269C63.3926 62.9994 67.008 61.5215 69.6954 58.8835L69.7775 58.8029C72.4784 56.1517 74 52.526 74 48.7414C74 44.9568 72.4784 41.3311 69.7776 38.68L69.6954 38.5993C69.1524 38.0663 68.5714 37.5806 67.9589 37.1448C67.9949 35.3096 67.7707 33.4641 67.279 31.6628C65.913 26.6586 62.5956 22.411 58.0582 19.8395L57.9147 19.7582C53.3786 17.1875 47.9901 16.4989 42.9203 17.8323C38.3109 19.0447 34.2963 21.8413 31.5878 25.6947C28.6198 25.1861 25.5534 25.707 22.9231 27.1977C19.963 28.8753 17.7954 31.6457 16.8978 34.911C14.4306 35.5258 12.1491 36.7898 10.3046 38.6003L10.2224 38.681C7.52158 41.3321 6 44.9579 6 48.7425C6 52.5271 7.52158 56.1528 10.2224 58.8039L10.3046 58.8846C12.992 61.5225 16.6074 63.0004 20.3731 63.0004H23.2022M23.2203 63.0005C23.2143 63.0005 23.2082 63.0005 23.2022 63.0004M23.2203 63.0005L23.2022 63.0004M43.9378 21.7008C48.0075 20.6304 52.3222 21.1865 55.9425 23.2382L56.086 23.3195C59.705 25.3705 62.3373 28.7492 63.4202 32.7161C63.8964 34.4605 64.0565 36.2576 63.9107 38.0299L63.8078 39.2807L64.8894 39.9174C65.6116 40.3426 66.2853 40.857 66.8933 41.4539L66.9755 41.5345C68.9101 43.4335 70 46.0306 70 48.7414C70 51.4523 68.9101 54.0494 66.9755 55.9483L66.8933 56.029C64.9538 57.9328 62.3446 58.9994 59.6269 58.9994H56.736L56.7212 59.0005H23.2352L23.2315 59.0004H20.3731C17.6554 59.0004 15.0462 57.9338 13.1067 56.03L13.0245 55.9494C11.0899 54.0504 10 51.4533 10 48.7425C10 46.0316 11.0899 43.4346 13.0245 41.5356L13.1067 41.4549C14.6836 39.907 16.7034 38.9124 18.8643 38.5948L20.321 38.3806L20.5492 36.9261C20.5965 36.6244 20.66 36.3242 20.7397 36.0265C21.3438 33.7711 22.8352 31.8452 24.8953 30.6777C26.9567 29.5094 29.4195 29.1968 31.7399 29.8186C31.8074 29.8367 31.8748 29.8556 31.9418 29.8752L33.427 30.3097L34.2204 28.9811C36.3608 25.3972 39.8529 22.7752 43.9378 21.7008Z" stroke="currentColor" stroke-linecap="round" stroke-linejoin="round" />
</svg>