<svg width="80" height="80" viewBox="0 0 80 80" fill="none" xmlns="http://www.w3.org/2000/svg">
  <path d="M31.0118 67.9999H28.4473C24.9013 67.9999 21.4827 66.577 18.9696 64.0923C16.4486 61.5997 15 58.175 15 54.6176C15 54.4113 15.0049 54.2053 15.0146 54H13.1269C10.1841 54 7.35527 52.825 5.27271 50.7547C3.18626 48.6806 2 45.8484 2 42.9001C2 39.9518 3.18626 37.1196 5.27271 35.0454C6.45819 33.867 7.88466 32.9793 9.43533 32.4328C10.0545 30.6976 11.0475 29.1027 12.367 27.7695C14.764 25.3477 18.061 24.0001 21.4697 24.0001C24.0193 24.0001 26.5206 24.7536 28.6466 26.1389C29.7965 25.0601 31.1754 24.2409 32.6906 23.7486C34.8555 23.0452 37.1875 23.0452 39.3524 23.7486C41.5173 24.452 43.4039 25.8227 44.7419 27.6643C44.9149 27.9024 45.0775 28.1467 45.2297 28.3967C46.8185 27.2966 48.601 26.4675 50.506 25.9628C54.7761 24.8315 59.3491 25.4429 63.1638 27.6205C66.981 29.7995 69.8152 33.4314 70.9635 37.6686C71.4529 39.4743 71.625 41.3343 71.49 43.1688C72.406 43.7197 73.2603 44.3807 74.0304 45.142C76.5514 47.6346 78 51.0593 78 54.6166C78 58.174 76.5514 61.5987 74.0304 64.0913C71.5173 66.576 68.0987 67.999 64.5527 67.999H62.0406C62.0171 67.9997 61.9937 68 61.9703 68H31.0312M31.0118 67.9999C31.0183 68 31.0247 68 31.0312 68M31.0118 67.9999L31.0312 68M31.0416 64H61.9332C61.9548 63.9993 61.9763 63.999 61.9979 63.999H64.5527C67.0337 63.999 69.4452 62.9997 71.218 61.2469C72.9877 59.4971 74 57.0931 74 54.6166C74 52.1402 72.9877 49.7362 71.218 47.9864C70.4265 47.2038 69.5061 46.57 68.5068 46.1087C67.691 45.732 67.2265 44.8575 67.3713 43.9706C67.6551 42.2322 67.5702 40.4397 67.1027 38.7148C66.2362 35.5175 64.0862 32.7528 61.1808 31.0943C58.2729 29.4344 54.7795 28.9687 51.5303 29.8294C49.4009 30.3936 47.4748 31.4882 45.9209 32.9828C45.9024 33.0023 45.8835 33.0215 45.8641 33.0404C45.05 33.8336 44.3402 34.7373 43.759 35.7327L43.0216 36.9954C42.6593 37.616 42.011 37.9721 41.3364 37.9867C41.0197 37.994 40.6971 37.9261 40.3955 37.7749C39.9025 37.5278 39.3826 37.3288 38.8428 37.183C38.0939 36.9809 37.3271 36.8874 36.5658 36.8995C35.4574 36.9175 34.3605 37.1591 33.3473 37.615C33.3292 37.6231 33.3107 37.6311 33.2924 37.6387C33.0768 37.7376 32.865 37.8462 32.6578 37.9645C30.7969 39.0268 29.4426 40.7889 28.8959 42.845C28.8232 43.1182 28.7654 43.394 28.7224 43.6711C28.5884 44.534 27.9101 45.2102 27.0468 45.3415C25.0725 45.6417 23.2169 46.5686 21.782 47.9874C20.6751 49.0818 19.8646 50.432 19.4127 51.8959C19.142 52.7726 19 53.69 19 54.6176C19 57.0941 20.0123 59.4981 21.782 61.2478C23.5548 63.0006 25.9663 63.9999 28.4473 63.9999H31.0236M31.0416 64C31.0356 64 31.0296 63.9999 31.0236 63.9999M31.0416 64L31.0236 63.9999M38.0213 13.9938C38.0179 12.8916 37.1235 12 36.0213 12C34.9192 12 34.0248 12.8916 34.0213 13.9938L34.0021 20.154C34.0001 20.7953 34.3058 21.3987 34.8241 21.7764C35.1794 22.0354 35.605 22.1668 36.0342 22.16C36.4546 22.1613 36.8704 22.03 37.2187 21.7761C37.7369 21.3984 38.0425 20.795 38.0405 20.1537L38.0213 14.0062V13.9938ZM25.88 16.639C25.2294 15.7494 23.9817 15.5538 23.0901 16.2016C22.1984 16.8494 21.9989 18.0965 22.6439 18.9902L26.2494 23.9854C26.6247 24.5054 27.2266 24.8138 27.868 24.8148C28.3068 24.8155 28.7276 24.6722 29.0704 24.4154C29.4123 24.1692 29.6723 23.818 29.8051 23.4072C30.0024 22.7969 29.895 22.1291 29.5164 21.6115L25.88 16.639ZM49.3987 18.9902C50.0438 18.0965 49.8442 16.8494 48.9526 16.2016C48.061 15.5538 46.8133 15.7494 46.1627 16.639L46.1553 16.6491L42.5264 21.6113C42.1478 22.1289 42.0405 22.7967 42.2377 23.4069C42.3726 23.8245 42.639 24.1805 42.9892 24.4271C43.3289 24.6762 43.7433 24.815 44.175 24.8143C44.8164 24.8133 45.4183 24.5048 45.7937 23.9848L49.3914 19.0003L49.3987 18.9902ZM33.9267 27.5528C35.2882 27.1104 36.7548 27.1104 38.1163 27.5528C39.4779 27.9952 40.6644 28.8572 41.5058 30.0154C41.7615 30.3673 41.9813 30.741 42.1635 31.131C41.525 31.8594 40.9475 32.646 40.4397 33.4841C40.2575 33.4256 40.0735 33.3713 39.888 33.3212C38.7333 33.0095 37.5487 32.8714 36.3727 32.9028C35.5755 32.9239 34.7823 33.0229 34.0049 33.1985C33.5058 31.6121 32.7055 30.126 31.6421 28.8255C32.3099 28.2603 33.0848 27.8263 33.9267 27.5528ZM30.2822 34.7248C27.7385 36.308 25.8762 38.7876 25.0702 41.6704C22.7842 42.2675 20.6703 43.4614 18.9696 45.143C17.575 46.5218 16.5086 48.186 15.834 50H13.1269C11.2471 50 9.43031 49.2476 8.09277 47.918C6.75711 46.5902 6 44.7771 6 42.9001C6 41.023 6.7571 39.21 8.09277 37.8822C9.0352 36.9453 10.2169 36.2939 11.4924 35.9916C12.2152 35.8203 12.7835 35.2625 12.9682 34.543C13.3505 33.0547 14.1177 31.6868 15.2099 30.5833C16.8401 28.9364 19.1067 28.0001 21.4697 28.0001C23.834 28.0001 26.1503 28.9382 27.855 30.606C29.0278 31.7534 29.8592 33.1804 30.2822 34.7248Z" stroke="currentColor" stroke-linecap="round" stroke-linejoin="round" />
</svg>