<svg width="80" height="80" viewBox="0 0 80 80" fill="none" xmlns="http://www.w3.org/2000/svg">
  <path d="M14.8998 42.2224L12.1289 45.712C11.3213 46.7291 11.0248 48.1234 11.4771 49.4299C12.7158 53.0082 14.6284 56.3194 17.1091 59.1805C18.0144 60.2246 19.3696 60.6646 20.6538 60.4738L25.0606 59.819C25.0606 59.819 25.0659 59.8194 25.072 59.821C25.0852 59.8244 25.1068 59.8328 25.1319 59.8508C25.7867 60.3198 26.4678 60.7593 27.1737 61.1669C27.8801 61.5747 28.6017 61.945 29.3359 62.2778L29.3991 62.3236L31.0344 66.4647C31.5113 67.6725 32.5703 68.6263 33.9276 68.888C37.6472 69.6052 41.4725 69.6048 45.1919 68.8868C46.5489 68.6248 47.6075 67.6712 48.0843 66.4636L49.7194 62.323C49.7194 62.323 49.7224 62.3187 49.7269 62.3142C49.7364 62.3044 49.7545 62.2899 49.7826 62.2772C50.5163 61.9446 51.2375 61.5745 51.9435 61.1669C52.6495 60.7593 53.3306 60.3197 53.9855 59.8507C54.0106 59.8327 54.0322 59.8243 54.0454 59.8209C54.0515 59.8193 54.0568 59.8189 54.0568 59.8189L58.4599 60.4731C59.7441 60.6639 61.0993 60.2239 62.0047 59.1797C64.4862 56.3174 66.3992 53.0046 67.6378 49.4246C68.0897 48.1183 67.7932 46.7244 66.9857 45.7075L64.2175 42.2212C64.2175 42.2212 64.2152 42.2164 64.2135 42.2103C64.2099 42.1972 64.2063 42.1743 64.2094 42.1435C64.2882 41.3414 64.3284 40.5313 64.3284 39.7156C64.3284 38.9005 64.2883 38.0909 64.2095 37.2893C64.2065 37.2585 64.21 37.2356 64.2137 37.2225C64.2154 37.2164 64.2176 37.2116 64.2176 37.2116L66.9875 33.7233C67.7948 32.7066 68.0914 31.313 67.6399 30.0069C66.4025 26.4278 64.491 23.1156 62.0112 20.2535C61.1059 19.2086 59.7502 18.7683 58.4656 18.9591L54.0589 19.6139L53.9876 19.5821C53.3321 19.1124 52.6502 18.6724 51.9435 18.2644C51.2372 17.8566 50.5157 17.4863 49.7817 17.1536C49.7536 17.1409 49.7355 17.1264 49.726 17.1166C49.7216 17.1121 49.7185 17.1078 49.7185 17.1078L48.0812 12.9614C47.6043 11.7537 46.5454 10.8 45.1883 10.5381C41.4712 9.82104 37.6485 9.82062 33.9313 10.5369C32.5738 10.7985 31.5145 11.7524 31.0375 12.9603L29.4 17.1072M14.8998 42.2224L14.9008 42.2212M14.8998 42.2224C14.8998 42.2224 14.9021 42.2176 14.9038 42.2115C14.9075 42.1984 14.911 42.1755 14.9079 42.1447C14.829 41.3422 14.7888 40.5317 14.7888 39.7156C14.7888 38.9001 14.8289 38.0901 14.9078 37.2881C14.9108 37.2574 14.9073 37.2345 14.9036 37.2213C14.9019 37.2152 14.8997 37.2105 14.8997 37.2105M14.8997 37.2105L14.9006 37.2117M14.8997 37.2105L12.1271 33.7188C11.3196 32.7019 11.0231 31.308 11.475 30.0017C12.7126 26.4243 14.6236 23.1136 17.1025 20.2527C18.0078 19.2079 19.3635 18.7676 20.6481 18.9585L25.0584 19.6138M25.0584 19.6138L25.06 19.614M25.0584 19.6138C25.0584 19.6138 25.0637 19.6133 25.0698 19.6117C25.0831 19.6084 25.1046 19.5999 25.1298 19.5819C25.7853 19.1123 26.467 18.6723 27.1737 18.2644C27.8804 17.8564 28.6023 17.4859 29.3367 17.1531C29.3649 17.1403 29.383 17.1258 29.3925 17.116C29.3969 17.1115 29.4 17.1072 29.4 17.1072M29.4 17.1072L29.3994 17.1086M33.1198 18.5778L34.7486 14.453C37.9264 13.8486 41.1924 13.849 44.37 14.4541L45.9987 18.5784C46.4039 19.6045 47.1977 20.374 48.1303 20.7968C48.7457 21.0758 49.3508 21.3863 49.9435 21.7285C50.5365 22.0708 51.1084 22.4399 51.658 22.8337C52.4905 23.4301 53.5539 23.7328 54.6453 23.5707L59.0284 22.9194C61.1414 25.3701 62.7746 28.2 63.8392 31.2558L61.0841 34.7254C60.3981 35.5894 60.1286 36.6615 60.2287 37.6805C60.2948 38.3526 60.3284 39.0316 60.3284 39.7156C60.3284 40.4001 60.2947 41.0795 60.2286 41.7521C60.1284 42.7712 60.3979 43.8434 61.084 44.7074L63.8374 48.175C62.7718 51.2315 61.1373 54.062 59.0227 56.5128L54.6432 55.8621C53.5519 55.6999 52.4887 56.0026 51.6562 56.5988C51.1072 56.9921 50.5359 57.3607 49.9435 57.7028C49.3511 58.0448 48.7462 58.3552 48.131 58.6341C47.1985 59.0568 46.4048 59.8263 45.9996 60.8524L44.3732 64.9709C41.1935 65.5768 37.9252 65.5772 34.7455 64.972L33.1189 60.853C32.7137 59.8268 31.9199 59.0573 30.9872 58.6346C30.3717 58.3556 29.7665 58.045 29.1737 57.7028C28.5814 57.3608 28.0101 56.9921 27.4611 56.5989C26.6287 56.0027 25.5655 55.7001 24.4742 55.8622L20.0909 56.5135C17.9771 54.0637 16.343 51.2346 15.2772 48.1796L18.0333 44.7086C18.7195 43.8445 18.989 42.7722 18.8887 41.7531C18.8225 41.0802 18.7888 40.4004 18.7888 39.7156C18.7888 39.0313 18.8225 38.3519 18.8886 37.6795C18.9888 36.6605 18.7193 35.5883 18.0332 34.7243L15.2754 31.2512C16.3402 28.1969 17.973 25.3684 20.0852 22.9187L24.4721 23.5706C25.5635 23.7327 26.6269 23.43 27.4593 22.8336C28.0089 22.4399 28.5807 22.0708 29.1737 21.7285C29.7667 21.3861 30.3722 21.0754 30.988 20.7963C31.9207 20.3736 32.7146 19.604 33.1198 18.5778ZM33.6283 29.4452C37.2967 27.3273 41.8164 27.3273 45.4847 29.4452C49.1531 31.5631 51.4129 35.4773 51.4129 39.7132C51.4129 43.949 49.1531 47.8632 45.4847 49.9811C41.8164 52.099 37.2967 52.099 33.6283 49.9811C29.9599 47.8632 27.7001 43.949 27.7001 39.7132C27.7001 35.4773 29.9599 31.5631 33.6283 29.4452ZM47.4847 25.9811C42.5787 23.1486 36.5343 23.1486 31.6283 25.9811C26.7223 28.8136 23.7001 34.0482 23.7001 39.7132C23.7001 45.3781 26.7223 50.6127 31.6283 53.4452C36.5343 56.2777 42.5787 56.2777 47.4847 53.4452C52.3907 50.6127 55.4129 45.3781 55.4129 39.7132C55.4129 34.0482 52.3907 28.8136 47.4847 25.9811Z" stroke="currentColor" stroke-linecap="round" stroke-linejoin="round" />
</svg>