<svg width="80" height="80" viewBox="0 0 80 80" fill="none" xmlns="http://www.w3.org/2000/svg">
  <path fill-rule="evenodd" clip-rule="evenodd" d="M30.2066 14.1214C37.0352 11.2929 44.7078 11.2929 51.5364 14.1214C58.365 16.9499 63.7902 22.3752 66.6187 29.2038C69.4472 36.0324 69.4472 43.7049 66.6187 50.5335C63.7902 57.3621 58.365 62.7874 51.5364 65.6159C44.7078 68.4444 37.0352 68.4444 30.2066 65.6159C29.5266 65.3342 28.8604 65.0267 28.2092 64.6946L14.5577 68.658C13.8572 68.8614 13.1016 68.6673 12.5858 68.1515C12.0701 67.6358 11.876 66.8801 12.0794 66.1797L16.0432 52.5264C15.712 51.8767 15.4053 51.212 15.1242 50.5335C12.2957 43.7049 12.2957 36.0324 15.1242 29.2038C17.9527 22.3752 23.378 16.9499 30.2066 14.1214ZM50.0056 17.8169C44.1571 15.3944 37.5858 15.3944 31.7374 17.8169C25.8889 20.2394 21.2423 24.886 18.8198 30.7345C16.3972 36.583 16.3972 43.1543 18.8198 49.0028C19.153 49.8074 19.5284 50.5892 19.9431 51.3455C20.1977 51.8098 20.2578 52.3562 20.1102 52.8647L16.9346 63.8028L27.8711 60.6276C28.3798 60.4799 28.9263 60.5401 29.3907 60.7948C30.1483 61.2104 30.9314 61.5865 31.7374 61.9204C37.5859 64.3429 44.1571 64.3429 50.0056 61.9204C55.8541 59.4978 60.5007 54.8512 62.9232 49.0028C65.3457 43.1543 65.3457 36.583 62.9232 30.7345C60.5007 24.886 55.8541 20.2394 50.0056 17.8169Z" stroke="currentColor" stroke-linecap="round" stroke-linejoin="round" />
</svg>