<svg width="80" height="80" viewBox="0 0 80 80" fill="none" xmlns="http://www.w3.org/2000/svg">
  <path d="M28 38C26.8954 38 26 38.8954 26 40C26 41.1046 26.8954 42 28 42H52C53.1046 42 54 41.1046 54 40C54 38.8954 53.1046 38 52 38H28Z" stroke="currentColor" stroke-linecap="round" stroke-linejoin="round" />
  <path fill-rule="evenodd" clip-rule="evenodd" d="M40 12C24.536 12 12 24.536 12 40C12 46.5748 14.2684 52.6242 18.063 57.4019L14.2111 65.1056C13.9012 65.7255 13.9343 66.4618 14.2987 67.0515C14.6631 67.6411 15.3068 68 16 68L40 68C55.464 68 68 55.464 68 40C68 24.536 55.464 12 40 12ZM16 40C16 26.7452 26.7452 16 40 16C53.2548 16 64 26.7452 64 40C64 53.2548 53.2548 64 40 64L19.2361 64L22.2258 58.0206C22.5892 57.2938 22.4767 56.4193 21.9412 55.8082C18.2407 51.5845 16 46.0564 16 40Z" stroke="currentColor" stroke-linecap="round" stroke-linejoin="round" />
</svg>