<svg width="80" height="80" viewBox="0 0 80 80" fill="none" xmlns="http://www.w3.org/2000/svg">
  <path fill-rule="evenodd" clip-rule="evenodd" d="M10 25C10 16.7157 16.7157 10 25 10H55C63.2843 10 70 16.7157 70 25V43C70 51.2843 63.2843 58 55 58H40.6667L25.2 69.6C24.594 70.0545 23.7831 70.1276 23.1056 69.7889C22.428 69.4501 22 68.7575 22 68V57.6997C15.1525 56.3092 10 50.2571 10 43V25ZM25 14C18.9249 14 14 18.9249 14 25V43C14 48.7895 18.474 53.536 24.1517 53.9679C25.1944 54.0472 26 54.9164 26 55.9621V64L38.8 54.4C39.1462 54.1404 39.5673 54 40 54H55C61.0751 54 66 49.0751 66 43V25C66 18.9249 61.0751 14 55 14H25Z" stroke="currentColor" stroke-linecap="round" stroke-linejoin="round" />
</svg>