<svg width="80" height="80" viewBox="0 0 80 80" fill="none" xmlns="http://www.w3.org/2000/svg">
  <path fill-rule="evenodd" clip-rule="evenodd" d="M21 18V21H18C15.2386 21 13 23.2386 13 26C13 28.7614 15.2386 31 18 31H21V54C21 56.7614 23.2386 59 26 59H49V62C49 64.7614 51.2386 67 54 67C56.7614 67 59 64.7614 59 62V59H62C64.7614 59 67 56.7614 67 54C67 51.2386 64.7614 49 62 49H59V26C59 25.3551 58.8779 24.7388 58.6556 24.1728L63.4142 19.4142C64.1953 18.6332 64.1953 17.3668 63.4142 16.5858C62.6332 15.8047 61.3668 15.8047 60.5858 16.5858L55.8272 21.3444C55.2612 21.1221 54.6449 21 54 21H31V18C31 15.2386 28.7614 13 26 13C23.2386 13 21 15.2386 21 18ZM26 17C25.4477 17 25 17.4477 25 18V21H27V18C27 17.4477 26.5523 17 26 17ZM52.1716 25H18C17.4477 25 17 25.4477 17 26C17 26.5523 17.4477 27 18 27H50.1716L52.1716 25ZM46.1716 31H31V46.1716L46.1716 31ZM33.8284 49L49 33.8284V49H33.8284ZM27 50.1716V31H25V52.1716L27 50.1716ZM27.8284 55L29.8284 53H49V55H27.8284ZM53 29.8284L55 27.8284V62C55 62.5523 54.5523 63 54 63C53.4477 63 53 62.5523 53 62V29.8284ZM62 55H59V53H62C62.5523 53 63 53.4477 63 54C63 54.5523 62.5523 55 62 55Z" stroke="currentColor" stroke-linecap="round" stroke-linejoin="round" />
</svg>