<svg width="80" height="80" viewBox="0 0 80 80" fill="none" xmlns="http://www.w3.org/2000/svg">
  <path fill-rule="evenodd" clip-rule="evenodd" d="M41.8586 8.33383C41.5576 7.56913 40.8194 7.06641 39.9976 7.06641C39.1758 7.06641 38.4376 7.56913 38.1366 8.33383L31.3203 25.6495L22.2801 29.6458L10.0426 17.9662C9.39609 17.3491 8.41858 17.2359 7.64811 17.6889C6.87764 18.1419 6.50126 19.0511 6.72611 19.9161L16.0486 55.7806C13.9414 56.7087 12.5344 58.8075 12.5344 61.1717V66.2913C12.5344 69.9503 15.973 72.6351 19.5228 71.7477C33.0556 68.3645 47.2132 68.3645 60.746 71.7477C64.2957 72.6351 67.7344 69.9503 67.7344 66.2913V61.1717C67.7344 58.7172 66.2177 56.5486 63.9756 55.6794L68.9726 36.4551C68.9762 36.4413 68.9797 36.4274 68.983 36.4135L73.2719 19.9135C73.4968 19.0484 73.1204 18.1392 72.3499 17.6862C71.5794 17.2332 70.6019 17.3464 69.9554 17.9635L57.7161 29.6449L48.6743 25.648L41.8586 8.33383ZM59.0244 58.5811C59.7119 58.7263 60.3981 58.8796 61.0829 59.0408C61.0878 59.042 61.0927 59.0431 61.0976 59.0442C61.4994 59.1389 61.9008 59.2364 62.3016 59.3366C63.1436 59.5471 63.7344 60.3037 63.7344 61.1717V66.2913C63.7344 67.348 62.7413 68.1234 61.7161 67.8671C47.5463 64.3246 32.7224 64.3246 18.5527 67.8671C17.5275 68.1234 16.5344 67.348 16.5344 66.2913V61.1717C16.5344 60.3037 17.1251 59.5471 17.9672 59.3366C30.3874 56.2315 43.297 55.7762 55.8607 57.9707C56.9179 58.1554 57.9726 58.3589 59.0244 58.5811ZM60.0924 54.7187L65.0904 35.4906C65.0937 35.4766 65.0972 35.4626 65.1008 35.4487L67.6322 25.7102L59.5108 33.4614C58.9255 34.02 58.0613 34.171 57.3213 33.8439L46.3056 28.9743C45.8242 28.7615 45.446 28.3674 45.2532 27.8776L39.9976 14.5266L34.7414 27.8792C34.5486 28.369 34.1705 28.763 33.689 28.9758L22.6748 33.8447C21.9348 34.1718 21.0706 34.0209 20.4853 33.4623L12.3658 25.7129L19.9197 54.7735C31.6238 52.2359 43.6869 51.9279 55.4781 53.8496C56.813 54.0672 58.1443 54.3133 59.4713 54.588C59.6784 54.6309 59.8854 54.6744 60.0924 54.7187Z" stroke="currentColor" stroke-linecap="round" stroke-linejoin="round" />
</svg>