<svg width="80" height="80" viewBox="0 0 80 80" fill="none" xmlns="http://www.w3.org/2000/svg">
  <path d="M62.4143 40.4036C63.1954 39.6226 63.1954 38.3562 62.4143 37.5752L58.4143 33.5752C57.8423 33.0032 56.9821 32.8321 56.2347 33.1416C55.4874 33.4512 55.0001 34.1805 55.0001 34.9894V42.9894C55.0001 43.7983 55.4874 44.5276 56.2347 44.8372C56.9821 45.1467 57.8423 44.9756 58.4143 44.4036L62.4143 40.4036Z" stroke="currentColor" />
  <path d="M37.5753 62.4142C38.3563 63.1953 39.6227 63.1953 40.4037 62.4142L44.4037 58.4142C44.9757 57.8422 45.1468 56.982 44.8373 56.2346C44.5277 55.4873 43.7984 55 42.9895 55H34.9895C34.1806 55 33.4513 55.4873 33.1417 56.2346C32.8322 56.982 33.0033 57.8422 33.5753 58.4142L37.5753 62.4142Z" stroke="currentColor" />
  <path d="M15.5859 40.4036C14.8048 39.6226 14.8048 38.3562 15.5859 37.5752L19.5859 33.5752C20.1579 33.0032 21.0181 32.8321 21.7655 33.1416C22.5128 33.4512 23.0001 34.1805 23.0001 34.9894V42.9894C23.0001 43.7983 22.5128 44.5276 21.7655 44.8372C21.0181 45.1467 20.1579 44.9756 19.5859 44.4036L15.5859 40.4036Z" stroke="currentColor" />
  <path fill-rule="evenodd" clip-rule="evenodd" d="M28.0001 15C28.0001 12.2386 30.2387 10 33.0001 10L45.0001 10C47.7615 10 50.0001 12.2386 50.0001 15L50.0001 28H63C65.7614 28 68 30.2386 68 33V45C68 47.7614 65.7614 50 63 50H50.0001L50.0001 63C50.0001 65.7614 47.7615 68 45.0001 68H33.0001C30.2387 68 28.0001 65.7614 28.0001 63V50L15 50C12.2386 50 10 47.7614 10 45V33C10 30.2386 12.2386 28 15 28L28.0001 28L28.0001 15ZM32.0001 15C32.0001 14.4477 32.4478 14 33.0001 14L45.0001 14C45.5524 14 46.0001 14.4477 46.0001 15L46.0001 29.75C46.0001 30.9927 47.0075 32 48.2501 32L63 32C63.5523 32 64 32.4477 64 33V45C64 45.5523 63.5523 46 63 46H48.5C47.1188 46 46.0001 47.1199 46.0001 48.5L46.0001 63C46.0001 63.5523 45.5524 64 45.0001 64H33.0001C32.4478 64 32.0001 63.5523 32.0001 63V48.0001C32.0001 46.8955 31.1046 46 30 46L15 46C14.4477 46 14 45.5523 14 45V33C14 32.4477 14.4477 32 15 32H30L30.107 31.9971C31.1685 31.9403 32.0001 31.063 32.0001 29.9999L32.0001 15Z" stroke="currentColor" />
  <path d="M40.4037 15.5858C39.6227 14.8047 38.3563 14.8047 37.5753 15.5858L33.5753 19.5858C33.0033 20.1578 32.8322 21.018 33.1417 21.7654C33.4513 22.5127 34.1806 23 34.9895 23H42.9895C43.7984 23 44.5277 22.5127 44.8373 21.7654C45.1468 21.018 44.9757 20.1578 44.4037 19.5858L40.4037 15.5858Z" stroke="currentColor" />
  <path fill-rule="evenodd" clip-rule="evenodd" d="M62.4143 40.4036C63.1954 39.6226 63.1954 38.3562 62.4143 37.5752L58.4143 33.5752C57.8423 33.0032 56.9821 32.8321 56.2347 33.1416C55.4874 33.4512 55.0001 34.1805 55.0001 34.9894V42.9894C55.0001 43.7983 55.4874 44.5276 56.2347 44.8372C56.9821 45.1467 57.8423 44.9756 58.4143 44.4036L62.4143 40.4036ZM37.5753 62.4142C38.3563 63.1953 39.6227 63.1953 40.4037 62.4142L44.4037 58.4142C44.9757 57.8422 45.1468 56.982 44.8373 56.2346C44.5277 55.4873 43.7984 55 42.9895 55H34.9895C34.1806 55 33.4513 55.4873 33.1417 56.2346C32.8322 56.982 33.0033 57.8422 33.5753 58.4142L37.5753 62.4142ZM15.5859 40.4036C14.8048 39.6226 14.8048 38.3562 15.5859 37.5752L19.5859 33.5752C20.1579 33.0032 21.0181 32.8321 21.7655 33.1416C22.5128 33.4512 23.0001 34.1805 23.0001 34.9894V42.9894C23.0001 43.7983 22.5128 44.5276 21.7655 44.8372C21.0181 45.1467 20.1579 44.9756 19.5859 44.4036L15.5859 40.4036Z" stroke="currentColor" />
  <path fill-rule="evenodd" clip-rule="evenodd" d="M33.0001 39C33.0001 35.6863 35.6864 33 39.0001 33C42.3138 33 45.0001 35.6863 45.0001 39C45.0001 42.3137 42.3138 45 39.0001 45C35.6864 45 33.0001 42.3137 33.0001 39ZM37.0001 39C37.0001 37.8954 37.8955 37 39.0001 37C40.1047 37 41.0001 37.8954 41.0001 39C41.0001 40.1046 40.1047 41 39.0001 41C37.8955 41 37.0001 40.1046 37.0001 39Z" stroke="currentColor" />
</svg>