<svg width="80" height="80" viewBox="0 0 80 80" fill="none" xmlns="http://www.w3.org/2000/svg">
  <path d="M42.8613 45.1587C43.8076 45.6366 44.9625 45.2931 45.4937 44.3756L46.1061 43.3178C46.227 43.1091 46.3549 42.9056 46.4896 42.7075C47.8331 40.7313 49.8494 39.2934 52.1775 38.6713C54.7328 37.9885 57.4621 38.349 59.7523 39.6675C62.0419 40.9856 63.7183 43.1633 64.402 45.7076C64.77 47.0773 64.8366 48.4967 64.6134 49.8721C64.4699 50.7566 64.9322 51.6285 65.7448 52.0061C66.5179 52.3654 67.2297 52.859 67.8437 53.4712C69.2221 54.8458 69.9999 56.7161 69.9999 58.6597C69.9999 60.6034 69.2221 62.4737 67.8437 63.8482C66.4643 65.2237 64.5922 65.9991 62.6473 65.9991H60.6088C60.589 65.9991 60.5691 65.9994 60.5493 66H35.4285L35.4068 65.9999H33.3525C31.4076 65.9999 29.5354 65.2244 28.1561 63.849C26.7777 62.4745 25.9999 60.6042 25.9999 58.6605C25.9999 56.7169 26.7777 54.8466 28.1561 53.472C29.2679 52.3634 30.7003 51.6441 32.2336 51.4072C33.0959 51.2739 33.7723 50.597 33.9049 49.7346C33.9128 49.6837 33.9212 49.6328 33.9303 49.5819C33.9599 49.4172 33.996 49.2533 34.0389 49.0906C34.0406 49.0844 34.0422 49.0781 34.0439 49.0719C34.4674 47.4856 35.5102 46.1217 36.9296 45.3046C38.3548 44.484 40.0713 44.2658 41.6704 44.7011C42.0838 44.8136 42.4827 44.9675 42.8613 45.1587ZM42.8613 45.1587C42.8612 45.1587 42.8613 45.1587 42.8613 45.1587ZM34 10C35.1021 10 35.9965 10.8916 36 11.9938L36.025 20.0017C36.027 20.643 35.7213 21.2464 35.203 21.6241C34.8536 21.8788 34.4362 22.0101 34.0143 22.0079C33.583 22.0164 33.1547 21.8851 32.7975 21.6249C32.2789 21.2472 31.973 20.6436 31.975 20.0021L32 11.9938C32.0034 10.8916 32.8978 10 34 10ZM17.542 15.3475C18.4336 14.6997 19.6813 14.8953 20.3319 15.7849L25.0593 22.2491C25.4379 22.7668 25.5452 23.4346 25.348 24.0448C25.2145 24.4578 24.9525 24.8105 24.608 25.0568C24.2645 25.3155 23.8421 25.46 23.4015 25.4593C22.7602 25.4583 22.1583 25.1498 21.7829 24.6298L17.0959 18.1361C16.4508 17.2424 16.6503 15.9953 17.542 15.3475ZM50.458 15.3475C51.3496 15.9953 51.5491 17.2424 50.9041 18.1361L50.8968 18.1462L46.2175 24.6291C45.8422 25.1491 45.2402 25.4576 44.5989 25.4586C44.1656 25.4592 43.7498 25.3195 43.4094 25.0687C43.0562 24.8218 42.7876 24.464 42.6519 24.0438C42.455 23.4338 42.5624 22.7663 42.9409 22.2488L47.6607 15.795L47.668 15.7849C48.3186 14.8953 49.5663 14.6997 50.458 15.3475ZM23.1489 30.1162C24.8138 27.8247 27.1614 26.1191 29.8552 25.2438C32.5491 24.3685 35.4509 24.3685 38.1447 25.2438C40.8386 26.1191 43.1862 27.8247 44.8511 30.1162C46.214 31.9922 47.0622 34.182 47.325 36.4686C48.4977 35.734 49.7834 35.1707 51.145 34.8069C54.7241 33.8506 58.5422 34.3552 61.7481 36.2009C64.9547 38.047 67.3049 41.0967 68.2649 44.6696C68.6546 46.1198 68.8034 47.6094 68.7187 49.0816C69.4184 49.5243 70.073 50.0454 70.6681 50.6388C72.797 52.7617 73.9999 55.6503 73.9999 58.6597C73.9999 61.6692 72.797 64.5578 70.6681 66.6807C68.5411 68.8017 65.6541 69.9991 62.6473 69.9991H60.6496C60.6284 69.9997 60.6072 70 60.5859 70H35.4151L35.3918 69.9999H33.3525C30.3457 69.9999 27.4587 68.8025 25.3317 66.6814C23.2028 64.5586 21.9999 61.67 21.9999 58.6605C21.9999 58.4057 22.0085 58.1518 22.0256 57.8991L20.3393 60.205L20.3319 60.2151C19.6813 61.1047 18.4336 61.3003 17.542 60.6525C16.6503 60.0047 16.4508 58.7576 17.0959 57.8639L17.1032 57.8538L21.783 51.3702C22.1587 50.8496 22.7614 50.5411 23.4034 50.5407C23.844 50.5404 24.2664 50.6853 24.6097 50.9444C24.6958 51.0061 24.7767 51.0744 24.8517 51.1487C25.006 50.9746 25.166 50.8047 25.3317 50.6396C25.8075 50.1651 26.3213 49.7369 26.8659 49.358C25.425 48.453 24.1608 47.2766 23.1489 45.8838C21.484 43.5923 20.5873 40.8325 20.5873 38C20.5873 35.1675 21.484 32.4077 23.1489 30.1162ZM43.0136 40.7115C43.2766 39.8373 43.4127 38.9242 43.4127 38C43.4127 36.0122 42.7834 34.0755 41.615 32.4674C40.4466 30.8592 38.7991 29.6623 36.9087 29.048C35.0182 28.4338 32.9818 28.4338 31.0913 29.048C29.2008 29.6623 27.5533 30.8592 26.385 32.4674C25.2166 34.0755 24.5873 36.0122 24.5873 38C24.5873 39.9878 25.2166 41.9245 26.385 43.5326C27.4522 45.0015 28.9192 46.1274 30.6059 46.7795C31.4584 44.7157 32.9743 42.9662 34.9339 41.838C36.9959 40.6509 39.4081 40.2329 41.7319 40.6242C42.0639 40.6801 42.394 40.7525 42.7211 40.8416C42.7805 40.8577 42.8398 40.8744 42.8988 40.8916C42.9366 40.8313 42.9749 40.7712 43.0136 40.7115ZM7.37039 29.3475C7.71097 28.2993 8.83535 27.7242 9.8846 28.0615L17.5089 30.5125C18.1194 30.7088 18.5988 31.186 18.7979 31.7956C18.9333 32.21 18.928 32.6514 18.7923 33.0546C18.6659 33.4636 18.4098 33.8267 18.0545 34.084C17.5351 34.4601 16.8668 34.5644 16.2575 34.3643L8.64854 31.8657C7.60142 31.5219 7.02982 30.3957 7.37039 29.3475ZM60.6296 29.3475C60.9701 30.3957 60.3985 31.5219 59.3514 31.8657L59.3395 31.8696L51.7435 34.364C51.1342 34.564 50.4659 34.4598 49.9465 34.0836C49.5936 33.8281 49.3384 33.468 49.2112 33.0623C49.0727 32.6563 49.0666 32.2112 49.2034 31.7936C49.4029 31.1848 49.882 30.7083 50.4919 30.5123L58.1035 28.0654L58.1153 28.0615C59.1646 27.7242 60.289 28.2993 60.6296 29.3475ZM18.7917 42.9435C18.6651 42.5352 18.4092 42.1729 18.0545 41.916C17.5351 41.5399 16.8668 41.4356 16.2575 41.6357L8.66041 44.1304L8.64854 44.1343C7.60142 44.4781 7.02982 45.6043 7.37039 46.6525C7.71097 47.7007 8.83535 48.2758 9.8846 47.9385L9.89647 47.9346L17.5089 45.4874C18.1195 45.2912 18.5989 44.814 18.798 44.2044C18.9336 43.7894 18.928 43.3472 18.7917 42.9435Z" stroke="currentColor" stroke-linecap="round" stroke-linejoin="round" />
</svg>