<svg width="80" height="80" viewBox="0 0 80 80" fill="none" xmlns="http://www.w3.org/2000/svg">
  <path fill-rule="evenodd" clip-rule="evenodd" d="M45 27C45 23.6863 47.6863 21 51 21C54.3137 21 57 23.6863 57 27C57 30.3137 54.3137 33 51 33C47.6863 33 45 30.3137 45 27ZM51 25C49.8954 25 49 25.8954 49 27C49 28.1046 49.8954 29 51 29C52.1046 29 53 28.1046 53 27C53 25.8954 52.1046 25 51 25Z" stroke="currentColor" stroke-linecap="round" stroke-linejoin="round" />
  <path fill-rule="evenodd" clip-rule="evenodd" d="M29 47C25.6863 47 23 49.6863 23 53C23 56.3137 25.6863 59 29 59C32.3137 59 35 56.3137 35 53C35 49.6863 32.3137 47 29 47ZM27 53C27 51.8954 27.8954 51 29 51C30.1046 51 31 51.8954 31 53C31 54.1046 30.1046 55 29 55C27.8954 55 27 54.1046 27 53Z" stroke="currentColor" stroke-linecap="round" stroke-linejoin="round" />
  <path fill-rule="evenodd" clip-rule="evenodd" d="M14 24C14 18.4772 18.4772 14 24 14H56C61.5228 14 66 18.4772 66 24V56C66 61.5228 61.5228 66 56 66H24C18.4772 66 14 61.5228 14 56V24ZM24 18C20.6863 18 18 20.6863 18 24V56C18 59.3137 20.6863 62 24 62H56C59.3137 62 62 59.3137 62 56V24C62 20.6863 59.3137 18 56 18H24Z" stroke="currentColor" stroke-linecap="round" stroke-linejoin="round" />
</svg>