<svg width="80" height="80" viewBox="0 0 80 80" fill="none" xmlns="http://www.w3.org/2000/svg">
  <path fill-rule="evenodd" clip-rule="evenodd" d="M40 34C36.6863 34 34 36.6863 34 40C34 43.3137 36.6863 46 40 46C43.3137 46 46 43.3137 46 40C46 36.6863 43.3137 34 40 34ZM38 40C38 38.8954 38.8954 38 40 38C41.1046 38 42 38.8954 42 40C42 41.1046 41.1046 42 40 42C38.8954 42 38 41.1046 38 40Z" stroke="currentColor" stroke-linecap="round" stroke-linejoin="round" />
  <path fill-rule="evenodd" clip-rule="evenodd" d="M24 14C18.4772 14 14 18.4772 14 24V56C14 61.5228 18.4772 66 24 66H56C61.5228 66 66 61.5228 66 56V24C66 18.4772 61.5228 14 56 14H24ZM18 24C18 20.6863 20.6863 18 24 18H56C59.3137 18 62 20.6863 62 24V56C62 59.3137 59.3137 62 56 62H24C20.6863 62 18 59.3137 18 56V24Z" stroke="currentColor" stroke-linecap="round" stroke-linejoin="round" />
</svg>