<svg width="80" height="80" viewBox="0 0 80 80" fill="none" xmlns="http://www.w3.org/2000/svg">
  <path fill-rule="evenodd" clip-rule="evenodd" d="M51 21C47.6863 21 45 23.6863 45 27C45 30.3137 47.6863 33 51 33C54.3137 33 57 30.3137 57 27C57 23.6863 54.3137 21 51 21ZM49 27C49 25.8954 49.8954 25 51 25C52.1046 25 53 25.8954 53 27C53 28.1046 52.1046 29 51 29C49.8954 29 49 28.1046 49 27Z" stroke="currentColor" stroke-linecap="round" stroke-linejoin="round" />
  <path fill-rule="evenodd" clip-rule="evenodd" d="M34 40C34 36.6863 36.6863 34 40 34C43.3137 34 46 36.6863 46 40C46 43.3137 43.3137 46 40 46C36.6863 46 34 43.3137 34 40ZM40 38C38.8954 38 38 38.8954 38 40C38 41.1046 38.8954 42 40 42C41.1046 42 42 41.1046 42 40C42 38.8954 41.1046 38 40 38Z" stroke="currentColor" stroke-linecap="round" stroke-linejoin="round" />
  <path fill-rule="evenodd" clip-rule="evenodd" d="M29 47C25.6863 47 23 49.6863 23 53C23 56.3137 25.6863 59 29 59C32.3137 59 35 56.3137 35 53C35 49.6863 32.3137 47 29 47ZM27 53C27 51.8954 27.8954 51 29 51C30.1046 51 31 51.8954 31 53C31 54.1046 30.1046 55 29 55C27.8954 55 27 54.1046 27 53Z" stroke="currentColor" stroke-linecap="round" stroke-linejoin="round" />
  <path fill-rule="evenodd" clip-rule="evenodd" d="M24 14C18.4772 14 14 18.4772 14 24V56C14 61.5228 18.4772 66 24 66H56C61.5228 66 66 61.5228 66 56V24C66 18.4772 61.5228 14 56 14H24ZM18 24C18 20.6863 20.6863 18 24 18H56C59.3137 18 62 20.6863 62 24V56C62 59.3137 59.3137 62 56 62H24C20.6863 62 18 59.3137 18 56V24Z" stroke="currentColor" stroke-linecap="round" stroke-linejoin="round" />
</svg>