<svg width="80" height="80" viewBox="0 0 80 80" fill="none" xmlns="http://www.w3.org/2000/svg">
  <path fill-rule="evenodd" clip-rule="evenodd" d="M23 27C23 23.6863 25.6863 21 29 21C32.3137 21 35 23.6863 35 27C35 30.3137 32.3137 33 29 33C25.6863 33 23 30.3137 23 27ZM29 25C27.8954 25 27 25.8954 27 27C27 28.1046 27.8954 29 29 29C30.1046 29 31 28.1046 31 27C31 25.8954 30.1046 25 29 25Z" stroke="currentColor" stroke-linecap="round" stroke-linejoin="round" />
  <path fill-rule="evenodd" clip-rule="evenodd" d="M51 21C47.6863 21 45 23.6863 45 27C45 30.3137 47.6863 33 51 33C54.3137 33 57 30.3137 57 27C57 23.6863 54.3137 21 51 21ZM49 27C49 25.8954 49.8954 25 51 25C52.1046 25 53 25.8954 53 27C53 28.1046 52.1046 29 51 29C49.8954 29 49 28.1046 49 27Z" stroke="currentColor" stroke-linecap="round" stroke-linejoin="round" />
  <path fill-rule="evenodd" clip-rule="evenodd" d="M23 40C23 36.6863 25.6863 34 29 34C32.3137 34 35 36.6863 35 40C35 43.3137 32.3137 46 29 46C25.6863 46 23 43.3137 23 40ZM29 38C27.8954 38 27 38.8954 27 40C27 41.1046 27.8954 42 29 42C30.1046 42 31 41.1046 31 40C31 38.8954 30.1046 38 29 38Z" stroke="currentColor" stroke-linecap="round" stroke-linejoin="round" />
  <path fill-rule="evenodd" clip-rule="evenodd" d="M51 34C47.6863 34 45 36.6863 45 40C45 43.3137 47.6863 46 51 46C54.3137 46 57 43.3137 57 40C57 36.6863 54.3137 34 51 34ZM49 40C49 38.8954 49.8954 38 51 38C52.1046 38 53 38.8954 53 40C53 41.1046 52.1046 42 51 42C49.8954 42 49 41.1046 49 40Z" stroke="currentColor" stroke-linecap="round" stroke-linejoin="round" />
  <path fill-rule="evenodd" clip-rule="evenodd" d="M23 53C23 49.6863 25.6863 47 29 47C32.3137 47 35 49.6863 35 53C35 56.3137 32.3137 59 29 59C25.6863 59 23 56.3137 23 53ZM29 51C27.8954 51 27 51.8954 27 53C27 54.1046 27.8954 55 29 55C30.1046 55 31 54.1046 31 53C31 51.8954 30.1046 51 29 51Z" stroke="currentColor" stroke-linecap="round" stroke-linejoin="round" />
  <path fill-rule="evenodd" clip-rule="evenodd" d="M51 47C47.6863 47 45 49.6863 45 53C45 56.3137 47.6863 59 51 59C54.3137 59 57 56.3137 57 53C57 49.6863 54.3137 47 51 47ZM49 53C49 51.8954 49.8954 51 51 51C52.1046 51 53 51.8954 53 53C53 54.1046 52.1046 55 51 55C49.8954 55 49 54.1046 49 53Z" stroke="currentColor" stroke-linecap="round" stroke-linejoin="round" />
  <path fill-rule="evenodd" clip-rule="evenodd" d="M14 24C14 18.4772 18.4772 14 24 14H56C61.5228 14 66 18.4772 66 24V56C66 61.5228 61.5228 66 56 66H24C18.4772 66 14 61.5228 14 56V24ZM24 18C20.6863 18 18 20.6863 18 24V56C18 59.3137 20.6863 62 24 62H56C59.3137 62 62 59.3137 62 56V24C62 20.6863 59.3137 18 56 18H24Z" stroke="currentColor" stroke-linecap="round" stroke-linejoin="round" />
</svg>