<svg width="80" height="80" viewBox="0 0 80 80" fill="none" xmlns="http://www.w3.org/2000/svg">
  <path fill-rule="evenodd" clip-rule="evenodd" d="M46.2039 30.0752C42.6823 27.3642 37.7767 27.3642 34.2551 30.0752C31.8465 31.9293 30.4353 34.7966 30.4353 37.8362V42.1638C30.4353 45.2034 31.8465 48.0707 34.2551 49.9248C37.7767 52.6358 42.6823 52.6358 46.2039 49.9248C48.6125 48.0707 50.0237 45.2034 50.0237 42.1638V37.8362C50.0237 34.7966 48.6125 31.9293 46.2039 30.0752ZM36.695 33.2448C38.7784 31.641 41.6805 31.641 43.7639 33.2448C45.1888 34.3417 46.0237 36.038 46.0237 37.8362V42.1638C46.0237 43.962 45.1888 45.6583 43.7639 46.7552C41.6805 48.359 38.7784 48.359 36.695 46.7552C35.2701 45.6583 34.4353 43.962 34.4353 42.1638V37.8362C34.4353 36.038 35.2701 34.3417 36.695 33.2448Z" stroke="currentColor" stroke-linecap="round" stroke-linejoin="round" />
  <path fill-rule="evenodd" clip-rule="evenodd" d="M18.1952 35.6352C19.8485 34.3625 22.1515 34.3625 23.8048 35.6352C24.9355 36.5056 25.5981 37.8517 25.5981 39.2787V40.7213C25.5981 42.1483 24.9355 43.4944 23.8048 44.3648C22.1515 45.6375 19.8485 45.6375 18.1952 44.3648C17.0645 43.4944 16.4019 42.1483 16.4019 40.7213V39.2787C16.4019 37.8517 17.0645 36.5056 18.1952 35.6352ZM21.3648 38.8048C21.1498 38.6393 20.8502 38.6393 20.6352 38.8048C20.4881 38.918 20.4019 39.0931 20.4019 39.2787V40.7213C20.4019 40.9069 20.4881 41.082 20.6352 41.1952C20.8502 41.3607 21.1498 41.3607 21.3648 41.1952C21.5119 41.082 21.5981 40.9069 21.5981 40.7213V39.2787C21.5981 39.0931 21.5119 38.918 21.3648 38.8048Z" stroke="currentColor" stroke-linecap="round" stroke-linejoin="round" />
  <path fill-rule="evenodd" clip-rule="evenodd" d="M61.8048 35.6352C60.1515 34.3625 57.8485 34.3625 56.1952 35.6352C55.0645 36.5056 54.4019 37.8517 54.4019 39.2787V40.7213C54.4019 42.1483 55.0644 43.4944 56.1952 44.3648C57.8485 45.6375 60.1515 45.6375 61.8048 44.3648C62.9355 43.4944 63.5981 42.1483 63.5981 40.7213V39.2787C63.5981 37.8517 62.9355 36.5056 61.8048 35.6352ZM58.6352 38.8048C58.8502 38.6393 59.1498 38.6393 59.3648 38.8048C59.5119 38.918 59.5981 39.0931 59.5981 39.2787V40.7213C59.5981 40.9069 59.5119 41.082 59.3648 41.1952C59.1498 41.3607 58.8502 41.3607 58.6352 41.1952C58.4881 41.082 58.4019 40.9069 58.4019 40.7213V39.2787C58.4019 39.0931 58.4881 38.918 58.6352 38.8048Z" stroke="currentColor" stroke-linecap="round" stroke-linejoin="round" />
  <path fill-rule="evenodd" clip-rule="evenodd" d="M6 24C6 21.7909 7.79086 20 10 20H70C72.2091 20 74 21.7909 74 24V56C74 58.2091 72.2091 60 70 60H10C7.79086 60 6 58.2091 6 56V24ZM10 24L15.9291 24C15.4906 27.0657 13.0657 29.4906 10 29.9291V24ZM19.9552 24C19.4796 29.2771 15.2771 33.4796 10 33.9552V46.0448C15.2771 46.5204 19.4796 50.7229 19.9552 56H60.0448C60.5204 50.7229 64.7229 46.5204 70 46.0448V33.9552C64.7229 33.4796 60.5204 29.2771 60.0448 24L19.9552 24ZM10 56V50.0709C13.0657 50.5094 15.4906 52.9343 15.9291 56H10ZM70 56H64.0709C64.5094 52.9343 66.9343 50.5094 70 50.0709V56ZM70 24V29.9291C66.9343 29.4906 64.5094 27.0657 64.0709 24H70Z" stroke="currentColor" stroke-linecap="round" stroke-linejoin="round" />
</svg>