<svg width="80" height="80" viewBox="0 0 80 80" fill="none" xmlns="http://www.w3.org/2000/svg">
  <path d="M48 40C46.8954 40 46 40.8954 46 42C46 43.1046 46.8954 44 48 44H52C53.1046 44 54 43.1046 54 42C54 40.8954 53.1046 40 52 40H48Z" stroke="currentColor" stroke-linecap="round" stroke-linejoin="round" />
  <path fill-rule="evenodd" clip-rule="evenodd" d="M18 14C18 11.7909 19.7909 10 22 10H58C60.2091 10 62 11.7909 62 14V66H68C69.1046 66 70 66.8954 70 68C70 69.1046 69.1046 70 68 70H12C10.8954 70 10 69.1046 10 68C10 66.8954 10.8954 66 12 66H18V14ZM22 14L58 14V66H22V14Z" stroke="currentColor" stroke-linecap="round" stroke-linejoin="round" />
</svg>