<svg width="80" height="80" viewBox="0 0 80 80" fill="none" xmlns="http://www.w3.org/2000/svg">
  <path fill-rule="evenodd" clip-rule="evenodd" d="M55.666 10.4173C58.0109 8.07248 61.8126 8.07247 64.1575 10.4173L69.8144 16.0742C72.1558 18.4156 72.1558 22.2118 69.8144 24.5533L30.7834 63.5842C29.1777 65.1899 27.0734 66.2013 24.8166 66.452L16.1506 67.4149C14.2242 67.6289 12.5965 66.0012 12.8106 64.0749L13.7735 55.4089C14.0242 53.152 15.0356 51.0477 16.6412 49.4421L55.666 10.4173ZM61.3291 13.2458C60.5463 12.463 59.2772 12.463 58.4944 13.2458L51.4265 20.3137L59.9117 28.799L66.9859 21.7248C67.7653 20.9455 67.7653 19.682 66.9859 18.9026L61.3291 13.2458ZM57.0833 31.6274L48.598 23.1421L19.4697 52.2705C18.5063 53.2339 17.8994 54.4965 17.749 55.8506L16.9208 63.3047L24.3749 62.4765C25.729 62.326 26.9916 61.7192 27.9549 60.7558L57.0833 31.6274Z" stroke="currentColor" stroke-linecap="round" stroke-linejoin="round" />
  <path d="M10 16C10 12.6863 12.6863 10 16 10H42C43.1046 10 44 10.8954 44 12C44 13.1046 43.1046 14 42 14H16C14.8954 14 14 14.8954 14 16V42C14 43.1046 13.1046 44 12 44C10.8954 44 10 43.1046 10 42V16Z" stroke="currentColor" stroke-linecap="round" stroke-linejoin="round" />
  <path d="M68 34.9117C69.1046 34.9117 70 35.8072 70 36.9117V64C70 67.3137 67.3137 70 64 70H36.9117C35.8071 70 34.9117 69.1046 34.9117 68C34.9117 66.8954 35.8071 66 36.9117 66H64C65.1046 66 66 65.1046 66 64V36.9117C66 35.8072 66.8954 34.9117 68 34.9117Z" stroke="currentColor" stroke-linecap="round" stroke-linejoin="round" />
</svg>