<svg viewBox="0 0 80 80" fill="none">
  <path fill-rule="evenodd" clip-rule="evenodd" d="M66.9998 17.5C68.1044 17.5 68.9998 18.3954 68.9998 19.5C68.9998 20.6046 68.1044 21.5 66.9998 21.5H60.9998V48.2267C61.2998 48.3092 61.596 48.4106 61.8865 48.5309C63.7348 49.2965 65.2033 50.765 65.9689 52.6133C66.7345 54.4616 66.7345 56.5384 65.9689 58.3867C65.2033 60.235 63.7348 61.7035 61.8865 62.4691C60.0382 63.2347 57.9614 63.2347 56.1131 62.4691C54.2648 61.7035 52.7963 60.235 52.0307 58.3867C51.9104 58.0962 51.809 57.8 51.7265 57.5H26.2732C26.1907 57.8 26.0892 58.0962 25.9689 58.3867C25.2033 60.235 23.7348 61.7035 21.8865 62.4691C20.0382 63.2347 17.9614 63.2347 16.1131 62.4691C14.2648 61.7035 12.7963 60.235 12.0307 58.3867C11.2651 56.5384 11.2651 54.4616 12.0307 52.6133C12.7963 50.765 14.2648 49.2965 16.1131 48.5309C17.9614 47.7653 20.0382 47.7653 21.8865 48.5309C23.7348 49.2965 25.2033 50.765 25.9689 52.6133C26.0892 52.9038 26.1907 53.2 26.2732 53.5H27.8639C27.7507 52.9983 27.5944 52.5039 27.3949 52.0224C26.4727 49.7959 24.7038 48.027 22.4773 47.1048C20.3018 46.2036 17.8634 46.183 15.6759 47.043C14.6479 47.4471 13.4869 46.9413 13.0828 45.9133C12.6787 44.8854 13.1844 43.7244 14.2124 43.3203C17.3631 42.0817 20.8748 42.1114 24.0081 43.4092C27.2146 44.7374 29.7623 47.2851 31.0905 50.4916C31.4937 51.4653 31.7746 52.4755 31.933 53.5H51.7265C51.809 53.2 51.9104 52.9038 52.0307 52.6133C52.7963 50.765 54.2648 49.2965 56.1131 48.5309C56.4036 48.4106 56.6998 48.3092 56.9998 48.2267V21.5H50.9998C49.8953 21.5 48.9998 20.6046 48.9998 19.5C48.9998 18.3954 49.8953 17.5 50.9998 17.5H66.9998ZM22.543 55.5L22.5431 55.4855C22.5412 55.0294 22.4513 54.5736 22.2734 54.144C21.9138 53.2758 21.224 52.5861 20.3558 52.2264C19.4876 51.8668 18.5121 51.8668 17.6439 52.2264C16.7757 52.5861 16.0859 53.2758 15.7263 54.144C15.3666 55.0122 15.3666 55.9878 15.7263 56.856C16.0859 57.7242 16.7757 58.4139 17.6439 58.7736C18.5121 59.1332 19.4876 59.1332 20.3558 58.7736C21.224 58.4139 21.9138 57.7242 22.2734 56.856C22.4513 56.4264 22.5412 55.9706 22.5431 55.5145L22.543 55.5ZM55.7263 54.144C56.0859 53.2758 56.7757 52.5861 57.6439 52.2264C58.5121 51.8668 59.4876 51.8668 60.3558 52.2264C61.224 52.5861 61.9138 53.2758 62.2734 54.144C62.633 55.0122 62.633 55.9878 62.2734 56.856C61.9138 57.7242 61.224 58.4139 60.3558 58.7736C59.4876 59.1332 58.5121 59.1332 57.6439 58.7736C56.7757 58.4139 56.0859 57.7242 55.7263 56.856C55.3666 55.9878 55.3666 55.0122 55.7263 54.144Z" stroke="currentColor" stroke-linecap="round" stroke-linejoin="round" />
  <path fill-rule="evenodd" clip-rule="evenodd" d="M43.5611 23.2966C43.5611 20.342 39.7401 19.1667 38.0797 21.6106L29.0145 34.953C27.6612 36.9448 29.0879 39.6389 31.4959 39.6389L34.4031 39.6389V46.7032C34.4031 49.6578 38.2241 50.8331 39.8846 48.3892L48.9497 35.0468C50.303 33.055 48.8763 30.3609 46.4683 30.3609L43.5611 30.3609V23.2966ZM33.3843 35.6389L39.5611 26.5478V32.3609C39.5611 33.4654 40.4565 34.3609 41.5611 34.3609L44.5799 34.3609L38.4031 43.452V37.6389C38.4031 36.5344 37.5077 35.6389 36.4031 35.6389L33.3843 35.6389Z" stroke="currentColor" stroke-linecap="round" stroke-linejoin="round" />
</svg>