<svg width="80" height="80" viewBox="0 0 80 80" fill="none" xmlns="http://www.w3.org/2000/svg">
  <path d="M51 3.5835C52.1046 3.5835 53 4.47893 53 5.5835V15.4091L54.8035 13.2674C55.515 12.4226 56.7767 12.3144 57.6216 13.0259C58.4665 13.7374 58.5746 14.9991 57.8632 15.844L54.0596 20.3607C52.4614 22.2586 49.5386 22.2586 47.9404 20.3607L44.1368 15.844C43.4253 14.9991 43.5335 13.7374 44.3784 13.0259C45.2233 12.3144 46.485 12.4226 47.1965 13.2674L49 15.4091V5.5835C49 4.47893 49.8954 3.5835 51 3.5835Z" stroke="currentColor" stroke-linecap="round" stroke-linejoin="round" />
  <path d="M27.9404 6.63967C29.5386 4.74173 32.4614 4.74173 34.0596 6.63967L37.8632 11.1563C38.5746 12.0012 38.4665 13.2629 37.6216 13.9744C36.7767 14.6859 35.515 14.5778 34.8035 13.7329L33 11.5912V21.4168C33 22.5214 32.1046 23.4168 31 23.4168C29.8954 23.4168 29 22.5214 29 21.4168V11.5912L27.1965 13.7329C26.485 14.5778 25.2233 14.6859 24.3784 13.9744C23.5335 13.2629 23.4254 12.0012 24.1368 11.1563L27.9404 6.63967Z" stroke="currentColor" stroke-linecap="round" stroke-linejoin="round" />
  <path fill-rule="evenodd" clip-rule="evenodd" d="M24.8431 34.0162C26.0822 32.4465 27.9856 31.5095 30 31.5095C32.0144 31.5095 33.9178 32.4465 35.1569 34.0162C36.3908 35.5792 36.8701 37.6342 36.428 39.5907L36.4158 39.645C36.011 41.4366 34.8777 42.9698 33.3015 43.8844C36.4977 44.1805 39 46.8695 39 50.143V56.5716C39 58.7504 37.3181 60.5363 35.1818 60.7019V67.0002C35.1818 69.2093 33.391 71.0002 31.1818 71.0002H28.8182C26.609 71.0002 24.8182 69.2093 24.8182 67.0002V60.7019C22.6819 60.5363 21 58.7504 21 56.5716V50.143C21 46.8695 23.5023 44.1805 26.6985 43.8844C25.1223 42.9698 23.989 41.4366 23.5842 39.645L23.572 39.5907C23.1299 37.6342 23.6092 35.5792 24.8431 34.0162ZM30 35.5095C29.2244 35.5095 28.4723 35.8744 27.9827 36.4946C27.4879 37.1214 27.3008 37.9443 27.4736 38.7091L27.4859 38.7635C27.6584 39.527 28.1685 40.1708 28.8724 40.5132C29.5843 40.8595 30.4157 40.8595 31.1276 40.5132C31.8315 40.1708 32.3416 39.527 32.5141 38.7635L32.5264 38.7091C32.6992 37.9443 32.5121 37.1214 32.0173 36.4946C31.5277 35.8744 30.7756 35.5095 30 35.5095ZM27.2857 47.8573C26.0233 47.8573 25 48.8807 25 50.143V56.5716C25 56.6505 25.064 56.7145 25.1429 56.7145H26.8182C27.9228 56.7145 28.8182 57.6099 28.8182 58.7145V67.0002L31.1818 67.0002V58.7145C31.1818 57.6099 32.0772 56.7145 33.1818 56.7145H34.8571C34.936 56.7145 35 56.6505 35 56.5716V50.143C35 48.8807 33.9767 47.8573 32.7143 47.8573H27.2857Z" stroke="currentColor" stroke-linecap="round" stroke-linejoin="round" />
  <path fill-rule="evenodd" clip-rule="evenodd" d="M12 31.0002C12 27.6865 14.6863 25.0002 18 25.0002H62C65.3137 25.0002 68 27.6865 68 31.0002V71.0002C68 74.3139 65.3137 77.0002 62 77.0002H18C14.6863 77.0002 12 74.3139 12 71.0002V31.0002ZM18 29.0002C16.8954 29.0002 16 29.8956 16 31.0002V71.0002C16 72.1047 16.8954 73.0002 18 73.0002H62C63.1046 73.0002 64 72.1047 64 71.0002V31.0002C64 29.8956 63.1046 29.0002 62 29.0002H18Z" stroke="currentColor" stroke-linecap="round" stroke-linejoin="round" />
  <path fill-rule="evenodd" clip-rule="evenodd" d="M50.5898 31.5095C48.5897 31.5095 46.7004 32.4285 45.4658 34.0021L45.4351 34.0412C44.2089 35.6041 43.75 37.6354 44.1852 39.5737L44.2047 39.6605C44.6396 41.5972 45.93 43.2318 47.7128 44.1044C47.8683 44.1805 48.0261 44.2501 48.1857 44.3132C47.293 44.6791 46.4892 45.2558 45.8498 46.0082L45.7549 46.12C45.2046 46.7676 44.7884 47.518 44.5304 48.3276L41.1048 59.0786C40.6442 60.5242 41.7229 62.0002 43.2402 62.0002H45.4274V67.0002C45.4274 69.2093 47.2183 71.0002 49.4274 71.0002H51.7522C53.9614 71.0002 55.7522 69.2093 55.7522 67.0002V62.0002H57.7599C59.2771 62.0002 60.3559 60.5241 59.8953 59.0786L56.4696 48.3276C56.2116 47.518 55.7954 46.7676 55.2452 46.12L55.1502 46.0082C54.5315 45.2801 53.7588 44.7165 52.9005 44.3493C53.092 44.277 53.281 44.1953 53.4668 44.1044C55.2496 43.2318 56.54 41.5972 56.9749 39.6605L56.9944 39.5737C57.4297 37.6353 56.9707 35.604 55.7444 34.0411L55.7139 34.0021C54.4792 32.4285 52.59 31.5095 50.5898 31.5095ZM48.6127 36.4712L48.5822 36.5101C48.0975 37.128 47.916 37.931 48.0881 38.6972L48.1075 38.7841C48.2766 39.537 48.7783 40.1725 49.4714 40.5117C50.177 40.8571 51.0026 40.8571 51.7083 40.5117C52.4014 40.1725 52.903 39.537 53.0721 38.7841L53.0916 38.6972C53.2637 37.931 53.0822 37.128 52.5975 36.5102L52.5669 36.4713C52.0905 35.8641 51.3616 35.5095 50.5898 35.5095C49.8181 35.5095 49.0891 35.8641 48.6127 36.4712ZM50.5 47.8573C49.8832 47.8573 49.2975 48.1282 48.898 48.5983L48.8031 48.71C48.5957 48.9541 48.4389 49.2369 48.3416 49.542L45.6466 58.0002H47.4274C48.532 58.0002 49.4274 58.8956 49.4274 60.0002V67.0002H51.7522V60.0002C51.7522 58.8956 52.6477 58.0002 53.7522 58.0002H55.3535L52.6584 49.542C52.5612 49.2369 52.4043 48.9541 52.197 48.71L52.102 48.5983C51.7026 48.1282 51.1169 47.8573 50.5 47.8573Z" stroke="currentColor" stroke-linecap="round" stroke-linejoin="round" />
</svg>