<svg viewBox="0 0 80 80" fill="none">
  <path d="M28.002 26.0005C26.8974 26.0005 26.002 26.8959 26.002 28.0005C26.002 29.1051 26.8974 30.0005 28.002 30.0005H44.002C45.1065 30.0005 46.002 29.1051 46.002 28.0005C46.002 26.8959 45.1065 26.0005 44.002 26.0005H28.002Z" stroke="currentColor" stroke-linecap="round" stroke-linejoin="round" />
  <path d="M28.002 34.0005C26.8974 34.0005 26.002 34.8959 26.002 36.0005C26.002 37.1051 26.8974 38.0005 28.002 38.0005H52.002C53.1065 38.0005 54.002 37.1051 54.002 36.0005C54.002 34.8959 53.1065 34.0005 52.002 34.0005H28.002Z" stroke="currentColor" stroke-linecap="round" stroke-linejoin="round" />
  <path d="M28.002 42.0005C26.8974 42.0005 26.002 42.8959 26.002 44.0005C26.002 45.1051 26.8974 46.0005 28.002 46.0005H44.002C45.1065 46.0005 46.002 45.1051 46.002 44.0005C46.002 42.8959 45.1065 42.0005 44.002 42.0005H28.002Z" stroke="currentColor" stroke-linecap="round" stroke-linejoin="round" />
  <path fill-rule="evenodd" clip-rule="evenodd" d="M46.5079 8.94454L52.4059 14H56.002C59.8679 14 63.002 17.134 63.002 21V23.0823L67.9048 27.2847C69.2346 28.4246 70 30.0887 70 31.8402V33.985L69.9999 34.0005L70 34.016V36.1607C70 36.1989 69.9996 36.2371 69.9989 36.2752C69.9996 36.2973 70 36.3195 70 36.3418V68.1796C70 71.4933 67.3137 74.1796 64 74.1796H16C12.6863 74.1796 10 71.4933 10 68.1796V36.3418C10 36.3195 10.0004 36.2973 10.0011 36.2752C10.0004 36.2371 10 36.1989 10 36.1607V34.016L10.0001 34.0005L10 33.985V31.8402C10 30.0887 10.7654 28.4246 12.0953 27.2847L17.002 23.0789V21C17.002 17.134 20.136 14 24.002 14H27.5941L33.4921 8.94454C37.237 5.73463 42.763 5.73463 46.5079 8.94454ZM36.0953 11.9816C38.3422 10.0556 41.6578 10.0556 43.9047 11.9816L46.2596 14H33.7404L36.0953 11.9816ZM28.3333 18.0005C28.3187 18.0005 28.3042 18.0003 28.2896 18H24.002C22.3451 18 21.002 19.3431 21.002 21V43.2618L36.0972 56.2006C37.125 57.0815 38.3763 57.5595 39.6467 57.6345C41.1531 57.723 42.6861 57.245 43.9047 56.2005L59 43.2617V24.0005C59 23.9708 59.0007 23.9413 59.002 23.9119V21C59.002 19.3431 57.6588 18 56.002 18H51.7104C51.6958 18.0003 51.6813 18.0005 51.6667 18.0005H28.3333ZM65.3016 30.3217L63.002 28.3506V39.6504L65.3016 37.6793C65.7449 37.2993 66 36.7446 66 36.1607V34.2505C65.9898 34.1686 65.9845 34.0852 65.9845 34.0005C65.9845 33.9158 65.9898 33.8324 66 33.7505V31.8402C66 31.2564 65.7449 30.7017 65.3016 30.3217ZM46.5099 59.2376C44.4781 60.9791 41.922 61.7758 39.4105 61.6276C37.2923 61.503 35.2057 60.7063 33.4921 59.2375L14 42.53V68.1796C14 69.2841 14.8954 70.1796 16 70.1796H64C65.1046 70.1796 66 69.2841 66 68.1796V42.53L62.3586 45.6512C62.3406 45.6678 62.3222 45.6841 62.3035 45.7002L46.5099 59.2376ZM14.0155 34.0005C14.0155 33.9158 14.0102 33.8324 14 33.7505V31.8402C14 31.2564 14.2551 30.7017 14.6984 30.3217L17 28.3489V39.652L14.6984 37.6793C14.2551 37.2993 14 36.7446 14 36.1607V34.2505C14.0102 34.1686 14.0155 34.0852 14.0155 34.0005Z" stroke="currentColor" stroke-linecap="round" stroke-linejoin="round" />
</svg>