<svg width="80" height="80" viewBox="0 0 80 80" fill="none" xmlns="http://www.w3.org/2000/svg">
  <path d="M39.9678 26.4747C41.0723 26.4747 41.9678 27.3702 41.9678 28.4747V50.8747C41.9678 51.9793 41.0723 52.8747 39.9678 52.8747C38.8632 52.8747 37.9678 51.9793 37.9678 50.8747V28.4747C37.9678 27.3702 38.8632 26.4747 39.9678 26.4747Z" stroke="currentColor" stroke-linecap="round" stroke-linejoin="round" />
  <path d="M41.9678 58.0746C41.9678 56.97 41.0723 56.0746 39.9678 56.0746C38.8632 56.0746 37.9678 56.97 37.9678 58.0746V59.6746C37.9678 60.7792 38.8632 61.6746 39.9678 61.6746C41.0723 61.6746 41.9678 60.7792 41.9678 59.6746V58.0746Z" stroke="currentColor" stroke-linecap="round" stroke-linejoin="round" />
  <path fill-rule="evenodd" clip-rule="evenodd" d="M36.527 14.0467C38.0626 11.3594 41.9374 11.3594 43.473 14.0467L72.0266 64.0156C73.5504 66.6822 71.6249 70.0001 68.5536 70.0001H11.4463C8.37505 70.0001 6.44958 66.6822 7.97337 64.0156L36.527 14.0467ZM68.5536 66.0001L40 16.0313L11.4463 66.0001H68.5536Z" stroke="currentColor" stroke-linecap="round" stroke-linejoin="round" />
</svg>