<svg viewBox="0 0 80 80" fill="none">
  <path fill-rule="evenodd" clip-rule="evenodd" d="M45 36C43.8954 36 43 36.8954 43 38V44C43 45.1046 43.8954 46 45 46H51C52.1046 46 53 45.1046 53 44V38C53 36.8954 52.1046 36 51 36H45ZM47 42V40H49V42H47Z" stroke="currentColor" stroke-linecap="round" stroke-linejoin="round" />
  <path fill-rule="evenodd" clip-rule="evenodd" d="M22 13C18.9084 13 15.9434 14.2281 13.7574 16.4142L13.5858 16.5858C11.2898 18.8817 10 21.9957 10 25.2426V30.8771C10 30.8979 10.0003 30.9187 10.0009 30.9394C10.0003 30.9596 10 30.9797 10 31V65C10 66.1046 10.8954 67 12 67H68C69.1046 67 70 66.1046 70 65V39.5C70 39.2183 69.9405 38.9397 69.8253 38.6826L63.9675 25.6011C63.7511 25.118 63.352 24.7403 62.8577 24.5509L48.7156 19.1324C48.2549 18.9559 47.7451 18.9559 47.2844 19.1324L33.9587 24.2381C33.7218 21.359 32.4722 18.6438 30.4142 16.5858L30.2426 16.4142C28.0566 14.2281 25.0916 13 22 13ZM52 56V63H44V56H52ZM56 54V63H66V39.9274L60.6546 27.9904L48 23.1418L35.3454 27.9904L34 30.9948L34 31V63H40V54C40 52.8954 40.8954 52 42 52H54C55.1046 52 56 52.8954 56 54ZM14 33V63H30V33H14ZM30 29V25.2426C30 23.0566 29.1316 20.96 27.5858 19.4142L27.4142 19.2426C25.9783 17.8067 24.0307 17 22 17C19.9693 17 18.0217 17.8067 16.5858 19.2426L16.4142 19.4142C14.8684 20.96 14 23.0566 14 25.2426V29H30Z" stroke="currentColor" stroke-linecap="round" stroke-linejoin="round" />
</svg>