<svg viewBox="0 0 80 80" fill="none">
  <path fill-rule="evenodd" clip-rule="evenodd" d="M39.858 29.9995C37.3718 29.9995 35.0085 31.0811 33.3835 32.9627L33.2638 33.1013C32.4825 34.006 31.8902 35.058 31.5219 36.1953L26.116 52.8869C25.6183 54.4239 26.7642 55.9995 28.3797 55.9995H33V65.9995C33 68.2086 34.7909 69.9995 37 69.9995H43C45.2091 69.9995 47 68.2086 47 65.9995V55.9995H51.3363C52.9518 55.9995 54.0977 54.4239 53.5999 52.8869L48.1941 36.1953C47.8258 35.058 47.2335 34.006 46.4522 33.1013L46.3325 32.9627C44.7075 31.0811 42.3442 29.9995 39.858 29.9995ZM39.858 33.9995C38.5343 33.9995 37.276 34.5754 36.4108 35.5772L36.2911 35.7158C35.8588 36.2164 35.5311 36.7985 35.3273 37.4277L30.608 51.9995H35C36.1046 51.9995 37 52.8949 37 53.9995V65.9995H43V53.9995C43 52.8949 43.8954 51.9995 45 51.9995H49.108L44.3887 37.4277C44.1849 36.7985 43.8572 36.2164 43.4249 35.7158L43.3052 35.5772C42.44 34.5754 41.1817 33.9995 39.858 33.9995Z" stroke="currentColor" stroke-linecap="round" stroke-linejoin="round" />
  <path fill-rule="evenodd" clip-rule="evenodd" d="M32.8012 14.2588C34.5483 12.068 37.1979 10.792 40.0001 10.792C42.8022 10.792 45.4519 12.068 47.199 14.2588C48.9461 16.4496 49.6005 19.3168 48.977 22.0487C48.3534 24.7805 46.5198 27.0798 43.9952 28.2956C41.4705 29.5114 38.5296 29.5114 36.005 28.2956C33.4803 27.0798 31.6467 24.7805 31.0232 22.0487C30.3996 19.3168 31.0541 16.4496 32.8012 14.2588ZM40.0001 14.792C38.4152 14.792 36.9166 15.5137 35.9285 16.7528C34.9404 17.9918 34.5702 19.6135 34.9229 21.1586C35.2755 22.7037 36.3126 24.0041 37.7405 24.6918C39.1684 25.3794 40.8317 25.3794 42.2596 24.6918C43.6875 24.0041 44.7246 22.7037 45.0773 21.1586C45.4299 19.6135 45.0598 17.9918 44.0717 16.7528C43.0835 15.5137 41.5849 14.792 40.0001 14.792Z" stroke="currentColor" stroke-linecap="round" stroke-linejoin="round" />
</svg>