<svg width="80" height="80" viewBox="0 0 80 80" fill="none" xmlns="http://www.w3.org/2000/svg">
  <path d="M42 26L42 16.0046L24.0002 16.0026C22.8956 16.0025 22 16.898 22 18.0026L22 62.0022C22 63.1068 22.8954 64.0022 24 64.0022H56C57.1046 64.0022 58 63.1068 58 62.0022V32.0007H48C44.7346 32.0007 42.0784 29.3921 42.0017 26.1451C42.0006 26.0971 42 26.0482 42 26ZM42 26C42 25.9997 42 26.0002 42 26ZM60.0872 27.2624L60.2423 27.4174C61.3677 28.5427 62 30.0689 62 31.6604V62.0022C62 65.3159 59.3137 68.0022 56 68.0022H24C20.6863 68.0022 18 65.3159 18 62.0022L18 18.0026C18 14.6887 20.6867 12.0023 24.0007 12.0026L42.3424 12.0046C43.9333 12.0048 45.4589 12.6368 46.584 13.7616L46.7107 13.8883C46.7505 13.9241 46.7897 13.9613 46.8284 14L60 27.1715C60.0299 27.2015 60.059 27.2318 60.0872 27.2624ZM46 26.0036C46.0019 27.1065 46.8966 28 48 28H55.1716L46 18.8284V26C46 26.0009 46 26.0026 46 26.0036Z" stroke="currentColor" stroke-linecap="round" stroke-linejoin="round" />
</svg>