<svg viewBox="0 0 80 80" fill="none">
  <path fill-rule="evenodd" clip-rule="evenodd" d="M14 9C14.7438 9 15.3927 9.40601 15.7373 10.0085C15.8242 10.0029 15.9117 10 16 10H38C40.2091 10 42 11.7909 42 14H63.0459C65.8758 14 67.8108 16.8581 66.7598 19.4856L60.1541 36L66.7598 52.5144C67.8108 55.1419 65.8758 58 63.0459 58H42C39.7909 58 38 56.2091 38 54H16L16 67C16 68.1046 15.1046 69 14 69C12.8954 69 12 68.1046 12 67L12 11C12 9.89543 12.8954 9 14 9ZM38 14H16V50H38C40.2091 50 42 51.7909 42 54H63.0459L56.4402 37.4856C56.0587 36.5319 56.0587 35.4681 56.4402 34.5144L63.0459 18H42V34C42 35.1046 41.1046 36 40 36C38.8954 36 38 35.1046 38 34V14Z" stroke="currentColor" stroke-linecap="round" stroke-linejoin="round" />
</svg>