<svg width="80" height="80" viewBox="0 0 80 80" fill="none" xmlns="http://www.w3.org/2000/svg">
  <path fill-rule="evenodd" clip-rule="evenodd" d="M35.0801 60.5604L31.7058 49H18.2943L14.9199 60.5604C14.6104 61.6207 13.5 62.2294 12.4396 61.9199C11.3793 61.6104 10.7706 60.4999 11.0801 59.4396L22.6649 19.7509C22.9678 18.7133 23.9191 18 25 18C26.081 18 27.0322 18.7133 27.3351 19.7509L38.9199 59.4396C39.2294 60.4999 38.6208 61.6104 37.5604 61.9199C36.5001 62.2294 35.3896 61.6207 35.0801 60.5604ZM19.4619 45L25 26.0267L30.5382 45H19.4619Z" stroke="currentColor" stroke-linecap="round" stroke-linejoin="round" />
  <path fill-rule="evenodd" clip-rule="evenodd" d="M51 30C49.8955 30 49 30.8954 49 32C49 33.1046 49.8955 34 51 34H56C60.6326 34 64.4477 37.5 64.9451 42H51C45.4772 42 41 46.4772 41 52C41 57.5228 45.4772 62 51 62H56C59.493 62 62.6642 60.6224 65 58.3809V60C65 61.1046 65.8955 62 67 62C68.1046 62 69 61.1046 69 60V43C69 35.8203 63.1797 30 56 30H51ZM51 46H65V49C65 53.9706 60.9706 58 56 58H51C47.6863 58 45 55.3137 45 52C45 48.6863 47.6863 46 51 46Z" stroke="currentColor" stroke-linecap="round" stroke-linejoin="round" />
</svg>