<svg viewBox="0 0 80 80" fill="none">
  <path d="M52.6149 54.1829C52.0819 52.2884 51.6525 50.7142 51.6525 49.1669V48.8702C51.6525 46.9522 52.2386 45.0183 53.0082 42.791C53.0877 42.561 53.1695 42.3269 53.2526 42.0893L53.253 42.0882C53.9366 40.1329 54.7061 37.9321 54.9765 35.6667C55.031 35.2105 55.0588 34.7483 55.0588 34.2822C55.0588 29.847 52.5433 25.7956 48.5683 23.8284L47.199 23.1508C43.2511 21.1971 38.6177 21.1971 34.6698 23.1508L33.3005 23.8284C29.3255 25.7956 26.8101 29.847 26.8101 34.2822C26.8101 38.7173 29.3255 42.7687 33.3005 44.7359L34.6698 45.4135C36.5553 46.3466 37.6525 47.7699 37.6525 49.0981V50.4092C37.6525 51.816 36.832 53.1628 35.6266 55.0918C34.6702 56.6223 34.1382 58.4146 34.1382 60.2822C34.1382 63.7813 36.005 67.0146 39.0353 68.7642C42.0657 70.5138 45.7992 70.5138 48.8296 68.7642C51.8599 67.0146 53.7267 63.7813 53.7267 60.2822C53.7267 58.133 53.144 56.0628 52.6464 54.295M52.6149 54.1829C52.6253 54.2201 52.6359 54.2575 52.6464 54.295M52.6149 54.1829L52.6464 54.295M36.4439 26.7359C39.2738 25.3354 42.595 25.3354 45.4249 26.7359L46.7942 27.4135C49.406 28.706 51.0588 31.368 51.0588 34.2822C51.0588 34.5891 51.0405 34.893 51.0047 35.1926C50.7894 36.9964 50.1726 38.7681 49.4701 40.7862L49.4696 40.7876C49.3899 41.0166 49.309 41.2488 49.2276 41.4846C48.4639 43.6945 47.6525 46.2058 47.6525 48.8702V49.1669C47.6525 51.316 48.2352 53.3863 48.7328 55.154L48.7643 55.2661C49.2973 57.1607 49.7267 58.7348 49.7267 60.2822C49.7267 62.3522 48.6223 64.2651 46.8296 65.3001C45.0368 66.3351 42.8281 66.3351 41.0353 65.3001C39.2426 64.2651 38.1382 62.3522 38.1382 60.2822C38.1382 59.1773 38.4526 58.1176 39.0188 57.2115C39.0805 57.1127 39.1445 57.0111 39.2102 56.9067C40.2257 55.2931 41.6525 53.026 41.6525 50.4092V49.0981C41.6525 45.5508 38.9281 43.0578 36.4439 41.8284L35.0747 41.1508C32.4628 39.8583 30.8101 37.1963 30.8101 34.2822C30.8101 31.368 32.4628 28.706 35.0747 27.4135L36.4439 26.7359Z" stroke="currentColor" stroke-linecap="round" stroke-linejoin="round" />
  <path fill-rule="evenodd" clip-rule="evenodd" d="M37.0409 15.023C37.3345 15.1863 37.5195 15.493 37.5271 15.8288Z" stroke="currentColor" stroke-linecap="round" stroke-linejoin="round" />
  <path d="M37.5271 15.8288L37.5626 17.3877Z" stroke="currentColor" stroke-linecap="round" stroke-linejoin="round" />
  <path fill-rule="evenodd" clip-rule="evenodd" d="M38.9856 11.5276C36.6517 10.2291 33.7084 11.0177 32.3364 13.3092C32.0674 13.7586 31.8754 14.2404 31.7609 14.7363C30.9744 13.9439 29.9642 13.3766 28.8324 13.131C25.8705 12.4882 22.9049 14.2004 21.9806 17.0869C21.3135 19.1704 21.8574 21.4521 23.3927 23.0106L24.4927 24.1272C26.243 25.9039 28.9726 26.2737 31.1325 25.0267C32.7279 24.1056 33.7148 22.4742 33.8543 20.7156C34.9831 21.7851 36.6128 22.2311 38.178 21.8117C39.2858 21.5149 40.2049 20.8264 40.8044 19.9208C41.4006 20.948 42.4781 21.6518 43.7207 21.7387C44.7436 21.8103 45.7138 21.4522 46.434 20.8023C46.6924 21.7162 47.2959 22.5235 48.1625 23.0238C49.1879 23.6158 50.4014 23.674 51.4473 23.2465C51.3749 24.3239 51.7605 25.41 52.559 26.2085C53.7439 27.3934 55.562 27.669 57.0448 26.8887L57.1762 26.8196C58.616 26.0618 59.4284 24.4846 59.2091 22.8724C58.9746 21.1486 57.619 19.793 55.8952 19.5585C55.3621 19.486 54.8329 19.5263 54.3358 19.6648C54.4231 19.0778 54.3784 18.4687 54.1908 17.8829C53.5716 15.9491 51.5848 14.802 49.6005 15.2327C49.0267 15.3572 48.4996 15.6051 48.0487 15.9484C47.9505 15.25 47.6681 14.5799 47.2162 14.0126C45.7551 12.1782 43.0368 11.9881 41.3346 13.6013C41.2531 13.6785 41.1753 13.7587 41.1012 13.8417C40.6723 12.8766 39.9384 12.0576 38.9856 11.5276ZM37.0409 15.023C36.5942 14.7745 36.0309 14.9254 35.7683 15.364C35.5958 15.6522 35.5889 16.0103 35.7502 16.3049L36.4989 17.6727C36.6243 17.9019 36.8903 18.0157 37.1427 17.948C37.3951 17.8804 37.5686 17.6489 37.5626 17.3877L37.5271 15.8288C37.5195 15.493 37.3345 15.1863 37.0409 15.023ZM27.9841 17.04C27.0356 16.8342 26.086 17.3824 25.7901 18.3067C25.5765 18.9738 25.7506 19.7044 26.2422 20.2035L27.3422 21.32C27.8141 21.7991 28.5501 21.8988 29.1325 21.5626C29.7149 21.2263 29.9966 20.5391 29.8176 19.8908L29.4007 18.38C29.2143 17.7047 28.6686 17.1886 27.9841 17.04Z" stroke="currentColor" stroke-linecap="round" stroke-linejoin="round" />
</svg>