<svg width="80" height="80" viewBox="0 0 80 80" fill="none" xmlns="http://www.w3.org/2000/svg">
  <path fill-rule="evenodd" clip-rule="evenodd" d="M17.5195 32.0664C17.5195 29.5811 19.5343 27.5664 22.0195 27.5664C24.5048 27.5664 26.5195 29.5811 26.5195 32.0664V34.5664H29.0195C31.5048 34.5664 33.5195 36.5811 33.5195 39.0664C33.5195 41.5517 31.5048 43.5664 29.0195 43.5664H26.5195V46.0664C26.5195 48.5517 24.5048 50.5664 22.0195 50.5664C19.5343 50.5664 17.5195 48.5517 17.5195 46.0664V43.5664H15.0195C12.5343 43.5664 10.5195 41.5517 10.5195 39.0664C10.5195 36.5811 12.5343 34.5664 15.0195 34.5664H17.5195V32.0664ZM22.0195 31.5664C21.7434 31.5664 21.5195 31.7903 21.5195 32.0664V36.5664C21.5195 37.671 20.6241 38.5664 19.5195 38.5664H15.0195C14.7434 38.5664 14.5195 38.7903 14.5195 39.0664C14.5195 39.3425 14.7434 39.5664 15.0195 39.5664H19.5195C20.6241 39.5664 21.5195 40.4618 21.5195 41.5664V46.0664C21.5195 46.3425 21.7434 46.5664 22.0195 46.5664C22.2957 46.5664 22.5195 46.3425 22.5195 46.0664V41.5664C22.5195 40.4618 23.415 39.5664 24.5195 39.5664H29.0195C29.2957 39.5664 29.5195 39.3425 29.5195 39.0664C29.5195 38.7903 29.2957 38.5664 29.0195 38.5664H24.5195C23.415 38.5664 22.5195 37.671 22.5195 36.5664V32.0664C22.5195 31.7903 22.2957 31.5664 22.0195 31.5664Z" stroke="currentColor" stroke-linecap="round" stroke-linejoin="round" />
  <path fill-rule="evenodd" clip-rule="evenodd" d="M60.9338 28.6522C59.0481 26.7666 55.991 26.7666 54.1053 28.6522C52.2197 30.5378 52.2197 33.595 54.1053 35.4806C55.991 37.3662 59.0481 37.3662 60.9338 35.4806C62.8194 33.595 62.8194 30.5378 60.9338 28.6522ZM56.9338 31.4806C57.2573 31.1571 57.7818 31.1571 58.1053 31.4806C58.4289 31.8041 58.4289 32.3287 58.1053 32.6522C57.7818 32.9757 57.2573 32.9757 56.9338 32.6522C56.6102 32.3287 56.6102 31.8041 56.9338 31.4806Z" stroke="currentColor" stroke-linecap="round" stroke-linejoin="round" />
  <path fill-rule="evenodd" clip-rule="evenodd" d="M53.9338 35.6522C52.0481 33.7666 48.991 33.7666 47.1053 35.6522C45.2197 37.5378 45.2197 40.595 47.1053 42.4806C48.991 44.3662 52.0481 44.3662 53.9338 42.4806C55.8194 40.595 55.8194 37.5378 53.9338 35.6522ZM49.9338 38.4806C50.2573 38.1571 50.7818 38.1571 51.1053 38.4806C51.4289 38.8041 51.4289 39.3287 51.1053 39.6522C50.7818 39.9757 50.2573 39.9757 49.9338 39.6522C49.6102 39.3287 49.6102 38.8041 49.9338 38.4806Z" stroke="currentColor" stroke-linecap="round" stroke-linejoin="round" />
  <path fill-rule="evenodd" clip-rule="evenodd" d="M67.9338 35.6522C66.0481 33.7666 62.991 33.7666 61.1053 35.6522C59.2197 37.5378 59.2197 40.595 61.1053 42.4806C62.991 44.3662 66.0481 44.3662 67.9338 42.4806C69.8194 40.595 69.8194 37.5378 67.9338 35.6522ZM63.9338 38.4806C64.2573 38.1571 64.7818 38.1571 65.1053 38.4806C65.4289 38.8041 65.4289 39.3287 65.1053 39.6522C64.7818 39.9757 64.2573 39.9757 63.9338 39.6522C63.6102 39.3287 63.6102 38.8041 63.9338 38.4806Z" stroke="currentColor" stroke-linecap="round" stroke-linejoin="round" />
  <path fill-rule="evenodd" clip-rule="evenodd" d="M60.9338 42.6522C59.0481 40.7666 55.991 40.7666 54.1053 42.6522C52.2197 44.5378 52.2197 47.595 54.1053 49.4806C55.991 51.3662 59.0481 51.3662 60.9338 49.4806C62.8194 47.595 62.8194 44.5378 60.9338 42.6522ZM56.9338 45.4806C57.2573 45.1571 57.7818 45.1571 58.1053 45.4806C58.4289 45.8041 58.4289 46.3287 58.1053 46.6522C57.7818 46.9757 57.2573 46.9757 56.9338 46.6522C56.6102 46.3287 56.6102 45.8041 56.9338 45.4806Z" stroke="currentColor" stroke-linecap="round" stroke-linejoin="round" />
  <path fill-rule="evenodd" clip-rule="evenodd" d="M55.8733 20.0693C59.3168 19.7788 62.8199 20.4016 66.0102 21.9379C71.3757 24.5218 75.2726 29.4084 76.5978 35.2144C77.923 41.0204 76.5322 47.1139 72.8191 51.7699C69.1061 56.4259 63.4749 59.1378 57.5196 59.1378C52.142 59.1378 47.0287 56.9266 43.3533 53.0693H37.2434C33.4477 57.5147 27.8874 60.0883 22.0196 60.0883C15.9272 60.0883 10.1663 57.314 6.36778 52.5508C2.56924 47.7875 1.14642 41.5538 2.50211 35.6142C3.85779 29.6745 7.84442 24.6754 13.3335 22.0321C16.3524 20.5782 19.6453 19.924 22.9104 20.0693L55.8733 20.0693ZM64.2746 25.5418C61.7142 24.3088 58.9007 23.8153 56.1372 24.0614C56.0782 24.0667 56.019 24.0693 55.9598 24.0693H22.8647C22.8335 24.0693 22.8022 24.0686 22.771 24.0671C20.1452 23.9439 17.4966 24.4669 15.069 25.6359C10.6767 27.7512 7.48663 31.7514 6.40182 36.5042C5.31701 41.2571 6.45554 46.2453 9.4951 50.0568C12.5347 53.8683 17.1445 56.0883 22.0196 56.0883C26.8946 56.0883 31.5044 53.8683 34.544 50.0568C34.5991 49.9877 34.6536 49.9182 34.7075 49.8483C35.0861 49.3571 35.6713 49.0693 36.2915 49.0693H44.2377C44.8181 49.0693 45.3699 49.3215 45.7498 49.7603C48.6997 53.1676 52.992 55.1378 57.5196 55.1378C62.2576 55.1378 66.7377 52.9803 69.6918 49.2759C72.6459 45.5716 73.7524 40.7237 72.6981 36.1045C71.6438 31.4853 68.5434 27.5975 64.2746 25.5418Z" stroke="currentColor" stroke-linecap="round" stroke-linejoin="round" />
</svg>