<svg width="80" height="80" viewBox="0 0 80 80" fill="none" xmlns="http://www.w3.org/2000/svg">
  <path d="M40 32C41.1046 32 42 32.8954 42 34V34.4444C42 35.549 41.1046 36.4444 40 36.4444C38.8954 36.4444 38 35.549 38 34.4444V34C38 32.8954 38.8954 32 40 32Z" stroke="currentColor" stroke-linecap="round" stroke-linejoin="round" />
  <path d="M40 39.5556C41.1046 39.5556 42 40.451 42 41.5556V42.4444C42 43.549 41.1046 44.4444 40 44.4444C38.8954 44.4444 38 43.549 38 42.4444V41.5556C38 40.451 38.8954 39.5556 40 39.5556Z" stroke="currentColor" stroke-linecap="round" stroke-linejoin="round" />
  <path d="M40 47.5556C41.1046 47.5556 42 48.451 42 49.5556V50.4444C42 51.549 41.1046 52.4444 40 52.4444C38.8954 52.4444 38 51.549 38 50.4444V49.5556C38 48.451 38.8954 47.5556 40 47.5556Z" stroke="currentColor" stroke-linecap="round" stroke-linejoin="round" />
  <path d="M40 55.5556C41.1046 55.5556 42 56.451 42 57.5556V58C42 59.1046 41.1046 60 40 60C38.8954 60 38 59.1046 38 58V57.5556C38 56.451 38.8954 55.5556 40 55.5556Z" stroke="currentColor" stroke-linecap="round" stroke-linejoin="round" />
  <path fill-rule="evenodd" clip-rule="evenodd" d="M42 11.9995C41.9997 10.8951 41.1044 10 40 10C38.8956 10 38.0003 10.8951 38 11.9995L37.9988 16.5315L35.7318 12.6072C35.1794 11.651 33.9564 11.3235 33 11.8756C32.0436 12.4278 31.7158 13.6507 32.2677 14.6072L34.5327 18.5327L30.6072 16.2677C29.6507 15.7158 28.4278 16.0436 27.8756 17C27.3235 17.9564 27.651 19.1794 28.6072 19.7318L32.5315 21.9988L24 22C22.8954 22 22 22.8954 22 24V68C22 69.1046 22.8954 70 24 70H56C57.1046 70 58 69.1046 58 68V24C58 22.8954 57.1046 22 56 22L47.4685 21.9988L51.3928 19.7318C52.349 19.1794 52.6765 17.9564 52.1244 17C51.5722 16.0436 50.3493 15.7158 49.3928 16.2677L45.4673 18.5327L47.7318 14.6081L47.7323 14.6072C48.2842 13.6507 47.9564 12.4278 47 11.8756C46.0436 11.3235 44.8206 11.651 44.2682 12.6072L44.2677 12.6081L42.0012 16.5315L42 11.9995ZM26 26V66H54V26H26Z" stroke="currentColor" stroke-linecap="round" stroke-linejoin="round" />
</svg>