<svg width="80" height="80" viewBox="0 0 80 80" fill="none" xmlns="http://www.w3.org/2000/svg">
  <path fill-rule="evenodd" clip-rule="evenodd" d="M14.5903 24.5914C17.8485 19.2138 22.7531 14.9719 28.6337 12.536C29.9358 11.9967 31.2669 11.5537 32.6164 11.2072C32.6749 11.1922 32.7338 11.1799 32.7928 11.1703C38.9358 9.63453 45.4514 10.0928 51.372 12.5452C58.6534 15.5613 64.4384 21.3463 67.4544 28.6276C70.4705 35.909 70.4705 44.0902 67.4544 51.3716C64.4384 58.6529 58.6534 64.4379 51.372 67.4539C44.0907 70.47 35.9095 70.47 28.6281 67.4539C21.3468 64.4379 15.5617 58.6529 12.5457 51.3716C9.52968 44.0902 9.52968 35.909 12.5457 28.6276C13.1273 27.2235 13.8119 25.8751 14.5903 24.5914ZM14.7239 44.647C14.7188 44.6389 14.7064 44.6437 14.7081 44.6531C15.0328 46.4181 15.5439 48.1573 16.2412 49.8408C18.8513 56.1421 23.8576 61.1484 30.1588 63.7584C34.275 65.4634 38.7235 66.0546 43.0702 65.5321C43.5916 65.4694 43.5317 64.8826 43.0065 64.8826V64.8826C42.5025 64.8826 42.017 64.6923 41.6473 64.3497V64.3497C40.4585 63.2484 38.8977 62.6365 37.2771 62.6365H34.473C33.4262 62.6365 32.5565 61.8293 32.4786 60.7854L32.1144 55.9081C32.0716 55.3347 32.2776 54.7706 32.6799 54.3598L35.2529 51.7324C35.4264 51.5553 35.4063 51.2687 35.2555 51.072V51.072C35.1428 50.925 35.0523 50.7647 34.9851 50.5963C34.9837 50.5928 34.9793 50.5919 34.9767 50.5945V50.5945L33.1672 52.4064C32.6714 52.9029 31.9517 53.1032 31.2708 52.9344L27.5867 52.0209C27.092 51.8983 26.6628 51.5914 26.3867 51.1629L22.6863 45.4193C22.3272 44.8619 22.2676 44.1627 22.5273 43.5527V43.5527C22.7578 43.0113 22.9172 42.3582 22.6004 41.8624L22.4269 41.5909C21.8843 40.7417 20.6598 40.6982 20.0583 41.5066V41.5066C19.9566 41.6433 19.88 41.7969 19.832 41.9604L19.15 44.2823C18.8667 45.2471 17.911 45.8516 16.9178 45.694L16.1086 45.5657C15.5356 45.4748 15.0304 45.1396 14.7239 44.647V44.647ZM48.2449 64.2012C48.1981 64.2545 48.2571 64.3545 48.3241 64.3316C48.3272 64.3305 48.3303 64.3294 48.3334 64.3284C48.3756 64.3139 48.3912 64.2623 48.364 64.2269L48.3462 64.2036C48.3212 64.1708 48.2721 64.1702 48.2449 64.2012V64.2012ZM55.0304 59.2843C55.4716 59.685 56.2129 59.9704 56.6668 59.5841C59.7409 56.9679 62.1854 53.6397 63.7589 49.8408C66.369 43.5396 66.369 36.4596 63.7589 30.1584C62.2753 26.5766 60.0175 23.4132 57.1876 20.8705C56.33 20.0999 54.8387 20.5699 53.6857 20.5699V20.5699H53.4031C52.6666 20.5699 51.9918 20.9816 51.6549 21.6365V21.6365C51.2949 22.3363 50.5581 22.7599 49.7723 22.719L49.5376 22.7067C47.8625 22.6194 46.2267 23.2334 45.0227 24.4014V24.4014C44.6654 24.748 44.1916 24.9489 43.694 24.9648L41.825 25.0244C41.6946 25.0286 41.5906 25.135 41.5895 25.2655V25.2655C41.5886 25.3759 41.6621 25.4731 41.7686 25.5022L44.095 26.1386C44.7658 26.3221 45.2932 26.8409 45.4876 27.5086C45.682 28.1763 45.5156 28.8971 45.0481 29.4121L41.0573 33.808C40.5457 34.3716 39.7586 34.5959 39.0268 34.3867L36.37 33.6271C36.2849 33.6027 36.2021 33.573 36.122 33.5382C36.0251 33.496 35.9104 33.5125 35.8374 33.5889V33.5889C35.4557 33.9882 34.9259 34.2119 34.3736 34.2069V34.2069C33.3367 34.1976 32.4517 34.9544 32.3001 35.9802L32.2808 36.1113C32.1979 36.6721 31.8809 37.1714 31.4086 37.485L31.3482 37.5252C30.2532 38.2523 29.642 39.5188 29.7541 40.8284V40.8284C29.802 41.3888 29.6128 41.9224 29.2624 42.3207C29.1785 42.416 29.1776 42.5637 29.2722 42.6485V42.6485C29.3691 42.7355 29.5202 42.7153 29.6049 42.6164C29.6325 42.5841 29.6612 42.5526 29.6911 42.522L33.6663 38.4381C34.1795 37.9109 34.9407 37.708 35.6482 37.9099L37.3915 38.4074C37.9979 38.5804 38.4872 39.0293 38.7116 39.6186C38.9361 40.2079 38.8696 40.8686 38.532 41.4012V41.4012C38.186 41.9471 38.0368 42.5947 38.109 43.237L38.1389 43.5031C38.1947 43.9997 38.0625 44.4992 37.7685 44.9032V44.9032C37.6325 45.0901 37.766 45.3523 37.9971 45.3523H43.8501C44.4163 45.3523 44.9559 45.5922 45.3351 46.0125C45.7143 46.4329 45.8977 46.9942 45.8396 47.5574L45.651 49.3863C45.5922 49.9569 45.2913 50.4748 44.8246 50.8083V50.8083C44.6271 50.9495 44.5961 51.231 44.7582 51.4118L48.2302 55.2839C48.5592 55.6508 48.7411 56.1263 48.7411 56.6191V57.422C48.7411 58.1384 49.6648 58.427 50.0726 57.838V57.838C50.4007 57.3643 50.9171 57.0551 51.4896 56.9896C52.0621 56.9241 52.635 57.1087 53.0615 57.4961L55.0304 59.2843V59.2843ZM18.0113 26.6642C20.831 22.0148 25.0731 18.3473 30.1588 16.2407C30.541 16.0825 30.9259 15.9338 31.3134 15.7947C32.1934 15.4789 33.1661 15.657 33.9218 16.2075V16.2075C34.2639 16.4567 34.6762 16.591 35.0994 16.591H35.9144C36.7764 16.591 37.6091 16.9047 38.2568 17.4736V17.4736C38.6218 17.794 39.0909 17.9708 39.5765 17.9708H48.4889C48.7416 17.9708 48.9048 18.2382 48.7892 18.463V18.463C48.7284 18.5811 48.604 18.6527 48.4713 18.6457L46.2481 18.5299C45.6929 18.501 45.1506 18.7045 44.7515 19.0917V19.0917C43.4913 20.3141 41.8206 21.0226 40.0658 21.0785L39.5442 21.0952C38.4716 21.1294 37.6172 22.004 37.608 23.0771L37.6072 23.1801C37.5919 24.9744 36.8931 26.6955 35.6532 27.9927L35.3995 28.2581C34.2156 29.4967 32.5722 30.1905 30.8589 30.175V30.175C29.8604 30.166 29.0083 30.8948 28.8623 31.8825L28.8193 32.1733C28.5867 33.7469 27.6973 35.1479 26.3721 36.0278V36.0278C25.7633 36.4321 25.4234 37.1363 25.4858 37.8645V37.8645C25.5133 38.1869 25.0904 38.3303 24.9162 38.0577L23.1141 35.2373C22.7602 34.6835 22.1567 34.3388 21.4998 34.3155C20.843 34.2921 20.2165 34.593 19.8242 35.1203L16.4818 39.6126V39.6126C16.436 39.6742 16.3406 39.674 16.3 39.6088L14.8414 37.2647C14.6198 36.9086 14.5256 36.4864 14.5895 36.0718C14.9004 34.0548 15.4528 32.066 16.2468 30.1492C16.7489 28.937 17.3397 27.7727 18.0113 26.6642ZM29.3563 48.3386C29.3327 48.3327 29.3122 48.318 29.299 48.2976V48.2976C29.2386 48.2038 29.3602 48.1001 29.4432 48.1746V48.1746C29.5174 48.2411 29.4531 48.3626 29.3563 48.3386V48.3386ZM35.1698 47.9076C35.1988 47.8968 35.2291 47.9223 35.2222 47.9525L35.2218 47.9542C35.2146 47.9864 35.1721 47.995 35.1521 47.9687V47.9687C35.136 47.9476 35.145 47.9167 35.1698 47.9076V47.9076ZM36.2226 57.2082C36.1896 56.7658 36.3485 56.3306 36.6589 56.0136L37.3048 55.3541C37.9371 54.7085 38.7899 54.3256 39.6925 54.2819L39.9046 54.2717C41.1449 54.2117 42.3463 54.7137 43.1754 55.6382L44.0948 56.6636C44.5109 57.1278 44.7411 57.7292 44.7411 58.3526V60.1998C44.7411 60.5769 44.4354 60.8826 44.0583 60.8826V60.8826C43.8862 60.8826 43.7205 60.8176 43.5942 60.7007L41.9413 59.1693C41.5716 58.8268 41.0861 58.6365 40.5821 58.6365H37.7614C36.9538 58.6365 36.2828 58.0137 36.2226 57.2082V57.2082Z" stroke="currentColor" stroke-linecap="round" stroke-linejoin="round" />
</svg>