<svg width="80" height="80" viewBox="0 0 80 80" fill="none" xmlns="http://www.w3.org/2000/svg">
  <path d="M30.5127 29.7801L30.5612 29.7757C31.1235 29.7248 31.6504 29.4793 32.0511 29.0815V29.0815C32.3968 28.7384 32.8558 28.5332 33.342 28.5044V28.5044C33.946 28.4686 34.482 28.1051 34.7387 27.5572L35.1954 26.5824C35.5019 25.9281 36.1375 25.49 36.858 25.4363L40.7926 25.1434C41.493 25.0912 42.1694 25.4103 42.5747 25.9839L44.378 28.5369C44.9583 29.3583 44.8383 30.4828 44.0978 31.1634L42.4584 32.67V32.67C41.7933 33.2813 40.5957 34.4419 39.9505 35.0741V35.0741V35.0741C39.5907 35.4266 39.7674 36.0986 40.1168 36.4613V36.4613L42.8729 39.3221C43.187 39.6481 43.6147 39.8404 44.067 39.8589L44.7964 39.8887C44.8192 39.8896 44.8413 39.881 44.8575 39.8649V39.8649C44.89 39.8328 44.89 39.7803 44.8575 39.7482L42.1396 37.0557C41.4924 36.4146 41.3603 35.4171 41.8182 34.6295L42.4152 33.6027C42.7251 33.0698 43.2634 32.7096 43.8742 32.6264C44.485 32.5432 45.1001 32.7463 45.5412 33.1768V33.1768C46.5413 34.1531 47.8812 34.7032 49.2788 34.7115L50.2476 34.7173C50.9343 34.7214 51.571 35.0775 51.9338 35.6606L53.7681 38.6086C53.8087 38.6738 53.9041 38.674 53.9499 38.6124V38.6124L57.2923 34.1201C57.6847 33.5928 58.3111 33.2919 58.968 33.3153C59.6248 33.3386 60.2283 33.6833 60.5822 34.2371L62.3843 37.0575C62.5585 37.3301 62.9815 37.1867 62.9539 36.8643V36.8643C62.8915 36.1361 63.2314 35.4319 63.8402 35.0276V35.0276C64.5731 34.541 64.9355 33.6485 64.6894 32.804C64.4288 31.91 64.1186 31.0268 63.7589 30.1584C61.5636 24.8585 57.6732 20.4747 52.7429 17.6622C51.0965 16.723 49.0561 17.2821 47.8854 18.7728V18.7728C47.5079 19.2535 46.9314 19.5351 46.3203 19.5375L38.1816 19.5696C37.6699 19.5717 37.1769 19.3774 36.804 19.027L34.5675 16.9249C34.5658 16.9233 34.5635 16.9223 34.5612 16.9222V16.9222C34.5523 16.9216 34.547 16.9319 34.5526 16.9387L34.9783 17.4603C35.6117 18.2365 35.5731 19.3616 34.888 20.0926L33.9724 21.0693C33.5063 21.5666 33.2197 22.2054 33.1581 22.8843V22.8843C33.0662 23.8982 32.2272 24.6812 31.2094 24.7032L29.4787 24.7405C28.1972 24.7682 26.9684 25.2562 26.0171 26.1154L25.2732 26.7873C25.2386 26.8185 25.2106 26.8563 25.1908 26.8985L25.0192 27.2637C24.9804 27.3461 25.0457 27.4407 25.1367 27.4423V27.4423L26.9454 27.4741C27.0318 27.4751 27.118 27.4816 27.2035 27.4937C27.6668 27.5589 28.1085 27.7859 28.4365 28.1654L29.4846 29.3674C29.7413 29.6618 30.1237 29.8153 30.5127 29.7801V29.7801ZM30.5127 29.7801L30.5901 30.6356M28.6281 12.5452C35.3567 9.75813 42.8538 9.54657 49.6992 11.9105C49.768 11.9269 49.8359 11.9469 49.9028 11.9705C50.3981 12.1455 50.8899 12.334 51.3776 12.536C58.659 15.5521 64.444 21.3371 67.46 28.6184C68.2884 30.6184 68.8893 32.6864 69.2627 34.785C69.2729 34.8426 69.2806 34.9002 69.2857 34.9577C69.8607 38.2981 69.86 41.7134 69.2836 45.0537C69.2789 45.0965 69.2727 45.1394 69.2651 45.1822C68.9823 46.7763 68.5682 48.3527 68.0228 49.8952C68.012 49.9258 68.0005 49.956 67.9883 49.9858C67.8223 50.451 67.6444 50.913 67.4544 51.3716C64.4384 58.6529 58.6534 64.4379 51.372 67.4539C44.0907 70.47 35.9095 70.47 28.6281 67.4539C21.3468 64.4379 15.5617 58.6529 12.5457 51.3716C9.52968 44.0902 9.52968 35.909 12.5457 28.6276C13.2219 26.9952 14.0373 25.4379 14.9775 23.9703C14.9833 23.9609 14.9892 23.9515 14.9951 23.9422C16.5283 21.5529 18.3923 19.4014 20.5254 17.5497C20.5557 17.5234 20.5866 17.4982 20.6181 17.4739C22.9878 15.4349 25.6858 13.764 28.6281 12.5452ZM25.3636 21.3157V21.3157C25.0478 21.6008 24.5423 21.451 24.4329 21.0399L24.2639 20.4048C24.1643 20.0304 24.296 19.6313 24.6063 19.3994C25.0061 19.1006 25.415 18.8132 25.8325 18.5376C26.0202 18.4137 26.2763 18.545 26.3418 18.7601V18.7601L26.8736 20.5068C26.9175 20.651 26.8116 20.7971 26.661 20.8004V20.8004C26.1807 20.8107 25.7201 20.9936 25.3636 21.3157ZM16.2412 30.1584C16.5975 29.2984 16.9983 28.4625 17.441 27.6535C17.5137 27.5207 17.6554 27.4408 17.8068 27.4454L18.5161 27.4669C18.8358 27.4766 18.8987 27.9249 18.5941 28.0223V28.0223C17.6548 28.3225 17.0745 29.2626 17.2272 30.2369L17.5163 32.082C17.6567 32.9779 18.3822 33.6672 19.2841 33.7615V33.7615C19.3986 33.7735 19.455 33.907 19.3837 33.9974L18.2864 35.388C18.0533 35.6834 17.9082 36.0387 17.868 36.4129L17.1425 43.1539C17.0775 43.7581 17.2907 44.3591 17.722 44.7873L22.247 49.2795C22.6157 49.6455 23.1123 49.8537 23.6317 49.86V49.86C25.492 49.8826 26.9977 51.3793 27.0315 53.2394L27.0572 54.6539C27.0681 55.2567 27.3505 55.8225 27.8257 56.1937V56.1937C28.7744 56.9347 29.3451 58.0587 29.3835 59.2619L29.4815 62.3313C29.4944 62.7352 29.6294 63.1257 29.8686 63.4514V63.4514C29.9239 63.5267 29.8451 63.6262 29.7593 63.589C23.6461 60.9352 18.7959 56.0083 16.2412 49.8408C13.6312 43.5396 13.6312 36.4596 16.2412 30.1584ZM49.8413 63.7584C47.6733 64.6564 45.4132 65.2455 43.1243 65.5256C40.8988 65.7979 39.8797 63.2161 41.436 61.6021V61.6021C41.7939 61.2309 41.9946 60.7359 41.9963 60.2204V60.2204C41.997 60.0032 42.1987 59.8394 42.4159 59.8394V59.8394H44.3013C45.0104 59.8394 45.6665 59.4639 46.0257 58.8526L46.7798 57.5691C46.9492 57.2808 47.0436 56.9546 47.0544 56.6204L47.1487 53.7005C47.1667 53.1446 46.9524 52.6065 46.5573 52.2151C46.1623 51.8237 45.6221 51.6145 45.0665 51.6377L43.5267 51.7018C42.9356 51.7265 42.3857 52.0116 42.0249 52.4804V52.4804C42.0238 52.4819 42.0215 52.4811 42.0215 52.4793L42.0246 51.5137C42.0249 51.4277 42.0589 51.3452 42.1194 51.2839L45.1272 48.2389C45.6247 47.7352 45.8188 47.006 45.6377 46.3217L45.0092 43.9472V43.9472C45.0031 43.924 45.021 43.9012 45.0449 43.9021L45.5395 43.9223C46.0947 43.945 46.6343 43.7357 47.029 43.3445L49.1658 41.2268C49.5448 40.8511 49.758 40.3396 49.7579 39.806V39.806C49.7579 39.7861 49.7847 39.7781 49.7952 39.795L52.192 43.6468C52.4985 44.1394 53.0038 44.4746 53.5767 44.5655L54.3859 44.6938C55.3791 44.8514 56.3348 44.2469 56.6182 43.2821L57.3001 40.9602C57.3481 40.7967 57.4247 40.6431 57.5264 40.5064V40.5064C58.1279 39.698 59.3525 39.7415 59.895 40.5907L60.0685 40.8622C60.3853 41.358 60.2259 42.0111 59.9955 42.5525V42.5525C59.7358 43.1625 59.7953 43.8617 60.1544 44.4191L61.4333 46.4042C62.8616 48.621 63.1783 51.4478 61.7754 53.6807C58.9572 58.1662 54.8003 61.7044 49.8413 63.7584ZM35.4306 38.4737V38.4737C35.4604 38.1902 35.2717 37.8928 34.9868 37.8833L34.3509 37.862C34.0625 37.8523 33.7978 38.0011 33.5846 38.1955C33.053 38.68 32.2838 38.8537 31.5737 38.6041L27.1648 37.0542V37.0542C26.1687 36.704 25.2329 35.8721 24.1776 35.9074L23.4087 35.9331V35.9331C23.1422 35.942 22.8737 36.0318 22.7085 36.2412L22.169 36.9249C21.917 37.2442 21.7603 37.6281 21.7168 38.0325L21.4899 40.1411C21.3208 41.7117 21.8751 43.2739 22.9961 44.3868V44.3868C23.9544 45.3382 25.2453 45.8794 26.5956 45.8958L28.9595 45.9245C30.0404 45.9376 30.9152 46.8072 30.9349 47.888L31.005 51.7455C31.0266 52.9364 31.5844 54.054 32.5231 54.7872V54.7872C32.9907 55.1524 33.272 55.7065 33.291 56.2995L33.4481 61.2199C33.4556 61.4567 33.5348 61.6858 33.6751 61.8768V61.8768C33.8908 62.1705 34.2308 62.3473 34.5952 62.3551L34.613 62.3555C34.9502 62.3627 35.2751 62.2288 35.5092 61.986L36.6316 60.8219C37.5091 59.9119 38.0012 58.6982 38.0053 57.4341L38.0277 50.549C38.0294 50.0251 38.2366 49.5228 38.6048 49.1501L41.1009 46.6231C41.3349 46.3861 41.4262 46.0431 41.341 45.7212V45.7212C41.2994 45.5638 41.2176 45.4199 41.1037 45.3036L35.9906 40.0825C35.5735 39.6565 35.3681 39.0666 35.4306 38.4737ZM26.207 31.7352C26.1351 31.6506 26.0655 31.5683 25.9992 31.4895C25.9821 31.4693 25.9572 31.4574 25.9307 31.4569V31.4569C25.9064 31.4565 25.883 31.4657 25.8655 31.4825L25.8007 31.5449C25.6849 31.6564 25.7675 31.8519 25.9282 31.8465L26.1612 31.8387C26.2138 31.837 26.2411 31.7753 26.207 31.7352V31.7352ZM32.8099 33.8081C32.3461 33.7926 31.901 33.9384 31.5427 34.2072C31.4629 34.267 31.3592 34.2887 31.2651 34.2556V34.2556C30.9864 34.1576 31.0373 33.749 31.3316 33.7224L32.5092 33.6158C32.9729 33.5738 33.4075 33.3714 33.738 33.0433L34.1932 32.5914C34.2832 32.502 34.4028 32.4486 34.5294 32.4411V32.4411C34.6883 32.4317 34.8427 32.4954 34.9487 32.6141L35.5618 33.3007C35.6879 33.442 35.6807 33.6575 35.5454 33.79V33.79C35.4763 33.8578 35.3823 33.8943 35.2855 33.8911L32.8099 33.8081ZM20.5356 23.1928V23.1928C20.4234 23.3228 20.511 23.5257 20.6826 23.5309V23.5309C20.8202 23.5351 20.9231 23.4055 20.8877 23.2725V23.2725C20.8456 23.1142 20.6426 23.0688 20.5356 23.1928ZM45.2393 14.8224C43.2381 14.406 41.1991 14.2308 39.1662 14.2967C38.5999 14.3151 38.3594 14.9994 38.7722 15.3874V15.3874C38.8946 15.5024 39.0564 15.5662 39.2243 15.5655L45.1591 15.5421C45.2715 15.5417 45.3775 15.4899 45.4469 15.4015V15.4015C45.6132 15.1897 45.5029 14.8773 45.2393 14.8224Z" stroke="currentColor" stroke-linecap="round" stroke-linejoin="round" />
</svg>