<svg width="80" height="80" viewBox="0 0 80 80" fill="none" xmlns="http://www.w3.org/2000/svg">
  <path fill-rule="evenodd" clip-rule="evenodd" d="M50.8831 6.61364C55.1895 8.73544 58.997 11.8321 61.9748 15.7129C67.071 22.3544 69.3201 30.7482 68.2274 39.0479C67.1347 47.3476 62.7898 54.8733 56.1483 59.9695C51.16 63.7971 45.1832 66.0187 39.0001 66.4245V69.4374H53.0001C54.1047 69.4374 55.0001 70.3328 55.0001 71.4374C55.0001 72.5419 54.1047 73.4373 53.0001 73.4373L21.0001 73.4374C19.8955 73.4374 19.0001 72.5419 19.0001 71.4374C19.0001 70.3328 19.8955 69.4374 21.0001 69.4374L35.0001 69.4374V66.4329C34.2713 66.3882 33.542 66.318 32.8134 66.2221C27.9637 65.5836 23.3782 63.8347 19.3875 61.1661C17.9511 60.2057 17.6809 58.2847 18.6372 56.9544L21.2419 53.331C19.99 52.2548 18.8426 51.0453 17.8223 49.7157C13.9195 44.6294 12.197 38.2011 13.0338 31.8448C13.8706 25.4885 17.1982 19.725 22.2845 15.8222C27.3707 11.9194 33.7991 10.1969 40.1553 11.0337C41.8188 11.2527 43.4417 11.6423 45.0013 12.1894L46.8604 8.06979C47.5344 6.57641 49.3331 5.84997 50.8831 6.61364ZM24.4806 55.6785C27.3141 57.394 30.4973 58.5256 33.8449 58.9663C40.2011 59.8031 46.6295 58.0807 51.7158 54.1778C56.802 50.275 60.1296 44.5115 60.9664 38.1552C61.8032 31.799 60.0808 25.3706 56.1779 20.2844C55.6386 19.5815 55.0637 18.9121 54.4566 18.2783C52.7567 16.4893 50.8014 14.9805 48.6653 13.7947L50.0651 10.6929C53.4365 12.5197 56.4221 15.0472 58.8014 18.148C63.2517 23.9478 65.2158 31.2779 64.2616 38.5258C63.3074 45.7737 59.5131 52.3457 53.7133 56.7961C47.9135 61.2464 40.5834 63.2105 33.3355 62.2563C29.4606 61.7462 25.7789 60.4243 22.5113 58.4181L24.4806 55.6785ZM51.5631 21.0402C48.4043 17.7447 44.2023 15.601 39.6332 14.9995C34.3288 14.3011 28.9641 15.7386 24.7195 18.9956C20.4749 22.2526 17.6979 27.0624 16.9996 32.3669C16.3012 37.6714 17.7387 43.036 20.9957 47.2806C22.0329 48.6324 23.2276 49.8352 24.5456 50.8696L25.158 51.3097C27.8362 53.2349 30.9707 54.4921 34.3001 54.9304C39.6046 55.6288 44.9692 54.1913 49.2138 50.9343C53.4584 47.6773 56.2354 42.8675 56.9337 37.563C57.6321 32.2585 56.1946 26.8939 52.9376 22.6493C52.5059 22.0867 52.0469 21.5498 51.5631 21.0402Z" stroke="currentColor" stroke-linecap="round" stroke-linejoin="round" />
</svg>