<svg width="80" height="80" viewBox="0 0 80 80" fill="none" xmlns="http://www.w3.org/2000/svg">
  <path fill-rule="evenodd" clip-rule="evenodd" d="M10 16C10 12.6863 12.6863 10 16 10H32C35.3137 10 38 12.6863 38 16V32C38 35.3137 35.3137 38 32 38H16C12.6863 38 10 35.3137 10 32V16ZM16 14C14.8954 14 14 14.8954 14 16V32C14 33.1046 14.8954 34 16 34H32C33.1046 34 34 33.1046 34 32V16C34 14.8954 33.1046 14 32 14H16Z" stroke="currentColor" stroke-linecap="round" stroke-linejoin="round" />
  <path fill-rule="evenodd" clip-rule="evenodd" d="M42 16C42 12.6863 44.6863 10 48 10H64C67.3137 10 70 12.6863 70 16V32C70 35.3137 67.3137 38 64 38H48C44.6863 38 42 35.3137 42 32V16ZM48 14C46.8954 14 46 14.8954 46 16V32C46 33.1046 46.8954 34 48 34H64C65.1046 34 66 33.1046 66 32V16C66 14.8954 65.1046 14 64 14H48Z" stroke="currentColor" stroke-linecap="round" stroke-linejoin="round" />
  <path fill-rule="evenodd" clip-rule="evenodd" d="M16 42C12.6863 42 10 44.6863 10 48V64C10 67.3137 12.6863 70 16 70H32C35.3137 70 38 67.3137 38 64V48C38 44.6863 35.3137 42 32 42H16ZM14 48C14 46.8954 14.8954 46 16 46H32C33.1046 46 34 46.8954 34 48V64C34 65.1046 33.1046 66 32 66H16C14.8954 66 14 65.1046 14 64V48Z" stroke="currentColor" stroke-linecap="round" stroke-linejoin="round" />
  <path d="M41.8711 56C41.8711 54.8954 42.7665 54 43.8711 54H53.8711V44C53.8711 42.8954 54.7665 42 55.8711 42C56.9757 42 57.8711 42.8954 57.8711 44V54H67.8711C68.9757 54 69.8711 54.8954 69.8711 56C69.8711 57.1046 68.9757 58 67.8711 58H57.8711V68C57.8711 69.1046 56.9757 70 55.8711 70C54.7665 70 53.8711 69.1046 53.8711 68V58H43.8711C42.7665 58 41.8711 57.1046 41.8711 56Z" stroke="currentColor" stroke-linecap="round" stroke-linejoin="round" />
</svg>