<svg width="80" height="80" viewBox="0 0 80 80" fill="none" xmlns="http://www.w3.org/2000/svg">
  <path fill-rule="evenodd" clip-rule="evenodd" d="M10 18.1083C11.1046 18.1083 12 19.0037 12 20.1083V38.1083H36V20.1083C36 19.0037 36.8954 18.1083 38 18.1083C39.1046 18.1083 40 19.0037 40 20.1083V60.1083C40 61.2128 39.1046 62.1083 38 62.1083C36.8954 62.1083 36 61.2128 36 60.1083V42.1083H12V60.1083C12 61.2128 11.1046 62.1083 10 62.1083C8.89543 62.1083 8 61.2128 8 60.1083V20.1083C8 19.0037 8.89543 18.1083 10 18.1083Z" stroke="currentColor" stroke-linecap="round" stroke-linejoin="round" />
  <path fill-rule="evenodd" clip-rule="evenodd" d="M48 20C48 18.8954 48.8954 18 50 18H69.1739C71.1595 18 72.2968 20.2628 71.1121 21.8562L61.3369 35.0042C67.4447 36.3725 72 41.8266 72 48.3368C72 55.8828 65.8828 62 58.3368 62H50C48.8954 62 48 61.1046 48 60C48 58.8954 48.8954 58 50 58H58.3368C63.6736 58 68 53.6736 68 48.3368C68 43.0337 63.7261 38.7214 58.4231 38.674L58.0039 38.6703C56.1962 38.6541 55.1715 36.5926 56.2501 35.1419L66.0208 22H50C48.8954 22 48 21.1046 48 20Z" stroke="currentColor" stroke-linecap="round" stroke-linejoin="round" />
</svg>