<svg width="80" height="80" viewBox="0 0 80 80" fill="none" xmlns="http://www.w3.org/2000/svg">
  <path fill-rule="evenodd" clip-rule="evenodd" d="M36 2C26.0589 2 18 10.0589 18 20C18 21.1046 18.8954 22 20 22H33.852L30.5751 67.8778C30.1844 73.3475 34.5164 78 40 78C45.4836 78 49.8156 73.3475 49.4249 67.8778L46.148 22H48C48.5304 22 49.0391 21.7893 49.4142 21.4142C49.7893 21.0391 50 20.5304 50 20L52 20C52 21.1046 52.8954 22 54 22H60C61.1046 22 62 21.1046 62 20V4C62 2.89543 61.1046 2 60 2H54C52.8954 2 52 2.89543 52 4L50 4C50 3.46957 49.7893 2.96086 49.4142 2.58579C49.0391 2.21071 48.5304 2 48 2H36ZM42.1378 22H37.8622L34.5649 68.1628C34.3396 71.317 36.8377 74 40 74C43.1623 74 45.6604 71.317 45.4351 68.1628L42.1378 22ZM46 18C46 17.4696 46.2107 16.9609 46.5858 16.5858C46.9609 16.2107 47.4696 16 48 16H54C55.1046 16 56 16.8954 56 18H58V6H56C56 7.10457 55.1046 8 54 8H48C47.4696 8 46.9609 7.78929 46.5858 7.41421C46.2107 7.03914 46 6.53043 46 6L36 6C28.9471 6 23.1122 11.2154 22.1418 18L46 18Z" stroke="currentColor" stroke-linecap="round" stroke-linejoin="round" />
</svg>