<svg viewBox="0 0 80 80" fill="none">
  <path fill-rule="evenodd" clip-rule="evenodd" d="M35.2501 15.5C35.2501 12.0482 38.0483 9.25 41.5001 9.25C44.9518 9.25 47.7501 12.0482 47.7501 15.5V24.4532L48.2782 18.9074C48.6055 15.4712 51.6564 12.9509 55.0926 13.2782C58.5288 13.6054 61.0492 16.6563 60.7219 20.0926L60.2435 25.1159C61.6616 22.9123 64.3796 21.7586 67.0566 22.4469C70.3996 23.3066 72.4128 26.7135 71.5531 30.0565L62.5531 65.0565C61.8428 67.8189 59.3523 69.75 56.5 69.75H34.5C32.7805 69.75 31.1369 69.0415 29.9562 67.7914L12.9562 49.7914C10.5861 47.2819 10.6991 43.3262 13.2086 40.9562C15.7181 38.5861 19.6738 38.6991 22.0438 41.2086L25.8812 45.2717C25.9349 45.3285 25.9694 45.3368 25.9864 45.3401C26.0149 45.3456 26.0614 45.3449 26.1154 45.3235C26.1693 45.302 26.2036 45.2706 26.2206 45.247C26.2306 45.2329 26.2501 45.2032 26.2501 45.125C26.2501 45.0533 26.2441 44.9817 26.2323 44.911L22.3351 21.5275C21.7676 18.1227 24.0677 14.9025 27.4726 14.335C30.8774 13.7676 34.0975 16.0677 34.665 19.4725L35.2501 22.9827V15.5ZM41.5001 13.25C40.2574 13.25 39.2501 14.2574 39.2501 15.5V39.125C39.2501 40.4367 38.1867 41.5 36.8751 41.5H36.56C35.2449 41.5 34.1226 40.5493 33.9065 39.2521L30.7194 20.1301C30.5152 18.9044 29.3559 18.0763 28.1302 18.2806C26.9044 18.4849 26.0764 19.6442 26.2807 20.8699L30.1779 44.2534C30.2259 44.5414 30.2501 44.833 30.2501 45.125C30.2501 48.9372 25.5907 50.7897 22.9731 48.0182L19.1358 43.9551C18.2826 43.0517 16.8585 43.011 15.9551 43.8642C15.0517 44.7174 15.011 46.1415 15.8642 47.0449L32.8642 65.0449C33.2893 65.495 33.881 65.75 34.5 65.75H56.5C57.5268 65.75 58.4234 65.0548 58.6791 64.0603L67.6792 29.0603C67.9886 27.8569 67.2639 26.6304 66.0604 26.3209C64.8569 26.0114 63.6304 26.7362 63.3209 27.9397L60.3663 39.4299C60.053 40.6483 58.9546 41.5 57.6966 41.5C56.0709 41.5 54.7983 40.1004 54.9524 38.4821L56.7399 19.7133C56.8577 18.4763 55.9504 17.3779 54.7134 17.2601C53.4763 17.1423 52.378 18.0496 52.2602 19.2867L50.4334 38.4683C50.2697 40.1873 48.826 41.5 47.0993 41.5H46.1251C44.8134 41.5 43.7501 40.4367 43.7501 39.125V15.5C43.7501 14.2574 42.7427 13.25 41.5001 13.25Z" stroke="currentColor" stroke-linecap="round" stroke-linejoin="round" />
</svg>