<svg width="80" height="80" viewBox="0 0 80 80" fill="none" xmlns="http://www.w3.org/2000/svg">
  <path d="M26 16.1299C26 15.0253 25.1046 14.1299 24 14.1299C22.8954 14.1299 22 15.0253 22 16.1299V64.1299C22 65.2345 22.8954 66.1299 24 66.1299C25.1046 66.1299 26 65.2345 26 64.1299V42.1299H54V64.1299C54 65.2345 54.8954 66.1299 56 66.1299C57.1046 66.1299 58 65.2345 58 64.1299V16.1299C58 15.0253 57.1046 14.1299 56 14.1299C54.8954 14.1299 54 15.0253 54 16.1299V38.1299H26V16.1299Z" stroke="currentColor" stroke-linecap="round" stroke-linejoin="round" />
</svg>