<svg width="80" height="80" viewBox="0 0 80 80" fill="none" xmlns="http://www.w3.org/2000/svg">
  <path fill-rule="evenodd" clip-rule="evenodd" d="M27 14.9995C22.7565 14.9995 18.6869 16.6852 15.6863 19.6858C12.6857 22.6864 11 26.756 11 30.9995C11 35.243 12.6857 39.3126 15.6863 42.3132L29.7596 56.3864L29.8283 56.4555L36.8993 63.5266C38.4614 65.0887 40.9941 65.0887 42.5562 63.5266L42.5605 63.5223L63.7694 42.3134C66.77 39.3128 68.4557 35.2432 68.4557 30.9997C68.4557 26.7562 66.77 22.6866 63.7694 19.686C60.7688 16.6854 56.6992 14.9997 52.4557 14.9997C48.2122 14.9997 44.1426 16.6854 41.142 19.686L39.7279 21.1L38.3137 19.6858C35.3131 16.6852 31.2435 14.9995 27 14.9995ZM18.5147 22.5142C20.7652 20.2638 23.8174 18.9995 27 18.9995C30.1826 18.9995 33.2348 20.2638 35.4853 22.5142L38.2839 25.3129C38.2936 25.3229 38.3034 25.3329 38.3133 25.3429L48.2128 35.2423C48.9938 36.0234 50.2602 36.0234 51.0412 35.2423C51.8223 34.4613 51.8223 33.195 51.0412 32.4139L42.556 23.9288L43.9704 22.5144C46.2208 20.264 49.2731 18.9997 52.4557 18.9997C55.6383 18.9997 58.6905 20.264 60.941 22.5144C63.1914 24.7648 64.4557 27.8171 64.4557 30.9997C64.4557 34.1823 63.1914 37.2345 60.941 39.485L39.7279 60.698L32.6567 53.6271L32.603 53.5731L18.5147 39.4848C16.2643 37.2344 15 34.1821 15 30.9995C15 27.8169 16.2643 24.7647 18.5147 22.5142Z" stroke="currentColor" stroke-linecap="round" stroke-linejoin="round" />
</svg>