<svg width="80" height="80" viewBox="0 0 80 80" fill="none" xmlns="http://www.w3.org/2000/svg">
  <path d="M39.7278 60.6987L32.6567 53.6276L32.603 53.5736L18.5147 39.4853C16.2643 37.2348 15 34.1826 15 31C15 27.8174 16.2643 24.7652 18.5147 22.5147C20.7652 20.2643 23.8174 19 27 19C30.1826 19 33.2348 20.2643 35.4853 22.5147L38.3137 25.3432C38.6888 25.7182 39.1975 25.9289 39.7279 25.9289C40.2584 25.9289 40.7671 25.7182 41.1421 25.3432L43.9704 22.5149C46.2208 20.2645 49.2731 19.0002 52.4557 19.0002C55.6383 19.0002 58.6905 20.2645 60.941 22.5149C63.1914 24.7653 64.4557 27.8176 64.4557 31.0002C64.4557 34.1828 63.1914 37.235 60.941 39.4855L39.7278 60.6987ZM39.7278 60.6987C39.7277 60.6987 39.7278 60.6986 39.7278 60.6987ZM27 15C22.7565 15 18.6869 16.6857 15.6863 19.6863C12.6857 22.6869 11 26.7565 11 31C11 35.2435 12.6857 39.3131 15.6863 42.3137L29.7596 56.3869L29.8283 56.456L36.8993 63.5271C38.4614 65.0892 40.9941 65.0892 42.5562 63.5271C42.5576 63.5257 42.5591 63.5242 42.5605 63.5228L63.7694 42.3139C66.77 39.3133 68.4557 35.2436 68.4557 31.0002C68.4557 26.7567 66.77 22.687 63.7694 19.6865C60.7688 16.6859 56.6992 15.0002 52.4557 15.0002C48.2122 15.0002 44.1426 16.6859 41.142 19.6865L39.7279 21.1005L38.3137 19.6863C35.3131 16.6857 31.2435 15 27 15Z" stroke="currentColor" stroke-linecap="round" stroke-linejoin="round" />
</svg>