<svg width="80" height="80" viewBox="0 0 80 80" fill="none" xmlns="http://www.w3.org/2000/svg">
  <path fill-rule="evenodd" clip-rule="evenodd" d="M39.9428 22.3136L42.7735 19.4829C49.0209 13.2355 59.1498 13.2355 65.3971 19.4829C71.6445 25.7302 71.6445 35.8592 65.3971 42.1065L63.2104 44.2933L63.2087 44.295C63.2017 44.3021 63.1946 44.3093 63.1876 44.3165C63.1803 44.3238 63.173 44.3312 63.1657 44.3385L43.7958 63.7084C41.665 65.8392 38.2103 65.8392 36.0795 63.7084C35.133 62.762 34.6069 61.5543 34.5013 60.3175C33.2645 60.2118 32.0568 59.6858 31.1104 58.7393C30.1639 57.7929 29.6379 56.5852 29.5322 55.3484C28.2954 55.2428 27.0877 54.7167 26.1413 53.7703C25.1948 52.8237 24.6687 51.616 24.5631 50.379C23.3262 50.2734 22.1184 49.7474 21.1719 48.8008C20.4012 48.0301 19.9093 47.0865 19.6961 46.095C18.828 45.9968 17.9858 45.6148 17.3201 44.949L14.4857 42.1146C8.23718 35.8661 8.23718 25.7352 14.4857 19.4867C20.7343 13.2381 30.8651 13.2381 37.1137 19.4867L39.1178 21.4908C39.1496 21.5211 39.1811 21.5518 39.2123 21.583L39.9428 22.3136ZM45.6019 22.3113C50.2872 17.626 57.8835 17.6261 62.5687 22.3113C67.254 26.9965 67.254 34.5928 62.5687 39.2781L60.3732 41.4736L60.3523 41.4948L60.349 41.4982L60.3372 41.5101L40.9673 60.88C40.3986 61.4487 39.4766 61.4487 38.9079 60.88C38.3392 60.3113 38.3392 59.3892 38.9079 58.8205L48.0877 49.6408C48.4627 49.2657 48.6734 48.757 48.6734 48.2265C48.6734 47.6961 48.4627 47.1874 48.0876 46.8123L48.0064 46.7311C47.2254 45.9501 45.9591 45.9501 45.178 46.7311L35.9982 55.9109C35.4295 56.4796 34.5075 56.4796 33.9388 55.9109C33.3701 55.3422 33.3701 54.4202 33.9388 53.8515L43.1186 44.6717C43.4936 44.2966 43.7044 43.7879 43.7044 43.2575C43.7044 42.727 43.4936 42.2183 43.1186 41.8433L43.0374 41.7621C42.6623 41.387 42.1536 41.1763 41.6231 41.1763C41.0927 41.1763 40.584 41.387 40.2089 41.7621L31.0292 50.9418C30.4605 51.5105 29.5384 51.5105 28.9697 50.9418C28.401 50.3731 28.401 49.4511 28.9697 48.8824L38.1495 39.7026C38.5246 39.3275 38.7353 38.8188 38.7353 38.2884C38.7353 37.758 38.5246 37.2492 38.1495 36.8742L38.0679 36.7926C37.2869 36.0116 36.0206 36.0116 35.2395 36.7926L26.0597 45.9724C25.491 46.5411 24.569 46.5411 24.0003 45.9724C23.4713 45.4434 23.4342 44.6068 23.8897 44.0365L35.0614 32.8648L39.6838 37.4872C40.8159 38.6193 42.3217 39.1499 43.804 39.079C43.8912 39.0749 43.9783 39.0686 44.0653 39.0603C45.2826 38.9438 46.4682 38.4194 47.4005 37.4872C49.5313 35.3564 49.5313 31.9017 47.4005 29.7709L42.7714 25.1418L45.6019 22.3113ZM43.66 35.0805C43.9924 35.0537 44.3174 34.9131 44.5717 34.6588C45.1404 34.0901 45.1404 33.168 44.5717 32.5993L36.3838 24.4114C36.373 24.4007 36.3621 24.3901 36.3511 24.3797C36.3366 24.366 36.3223 24.3522 36.3082 24.3381L34.2852 22.3151C29.5988 17.6287 22.0006 17.6287 17.3141 22.3151C12.6277 27.0015 12.6277 34.5998 17.3141 39.2862L20.1485 42.1205L32.2328 30.0362C32.93 29.339 33.8205 28.953 34.7318 28.8781C35.8624 28.7852 37.025 29.1712 37.89 30.0362L42.5126 34.6587C42.8269 34.973 43.2491 35.1136 43.66 35.0805Z" stroke="currentColor" stroke-linecap="round" stroke-linejoin="round" />
</svg>