<svg width="80" height="80" viewBox="0 0 80 80" fill="none" xmlns="http://www.w3.org/2000/svg">
  <path d="M46.0001 38C47.1047 38 48.0001 37.1046 48.0001 36C48.0001 34.8954 47.1047 34 46.0001 34H34.0001C32.8956 34 32.0001 34.8954 32.0001 36C32.0001 37.1046 32.8956 38 34.0001 38H46.0001Z" stroke="currentColor" stroke-linecap="round" stroke-linejoin="round" />
  <path fill-rule="evenodd" clip-rule="evenodd" d="M46.0001 11.2121C46.805 11.8198 47.4598 12.6324 47.881 13.5951L53.8324 27.1984C53.9593 27.4882 54.0135 27.7989 53.9973 28.1054L52.2379 70.3331C52.0593 74.6181 48.5335 78 44.2448 78H35.7552C31.4665 78 27.9407 74.6181 27.7621 70.3331L26.0017 28.0833C25.9887 27.7693 26.0498 27.46 26.1763 27.179L32.1192 13.5951C32.5404 12.6324 33.1953 11.8198 34.0001 11.2121V6.66668C34.0001 5.80582 34.551 5.04154 35.3677 4.76931L43.3677 2.10265C43.9776 1.89935 44.648 2.00163 45.1695 2.37753C45.6911 2.75343 46.0001 3.35713 46.0001 4.00001V11.2121ZM30.0851 30H49.9149L48.2413 70.1665C48.1521 72.309 46.3892 74 44.2448 74H35.7552C33.6108 74 31.8479 72.309 31.7587 70.1665L30.0851 30ZM44.2164 15.1984L48.9421 26H31.0582L35.7839 15.1984C36.1024 14.4704 36.8216 14 37.6162 14H42.3841C43.1787 14 43.8979 14.4704 44.2164 15.1984ZM42.0001 10V6.77487L38.0001 8.1082V10H42.0001Z" stroke="currentColor" stroke-linecap="round" stroke-linejoin="round" />
</svg>