<svg width="80" height="80" viewBox="0 0 80 80" fill="none" xmlns="http://www.w3.org/2000/svg">
  <path fill-rule="evenodd" clip-rule="evenodd" d="M13.2017 27.166C13.2017 29.3752 14.9925 31.166 17.2017 31.166H28.9902C32.4682 31.166 34.2099 26.9611 31.7507 24.5018L26.9589 19.71C28.206 18.8903 29.5359 18.1837 30.9347 17.6044C36.7832 15.1819 43.3544 15.1819 49.2029 17.6044C55.0514 20.0269 59.698 24.6735 62.1205 30.522C64.5431 36.3705 64.5431 42.9417 62.1205 48.7902C59.698 54.6387 55.0514 59.2853 49.2029 61.7078C43.3544 64.1304 36.7832 64.1304 30.9347 61.7078L30.0371 61.3361C29.6834 61.1895 29.3345 61.034 28.9908 60.8697C27.9942 60.3934 26.8002 60.8151 26.3238 61.8116C25.8475 62.8082 26.2692 64.0023 27.2658 64.4786C27.6733 64.6734 28.087 64.8579 28.5064 65.0316L29.4039 65.4034C36.2325 68.2319 43.9051 68.2319 50.7337 65.4034C57.5623 62.5749 62.9876 57.1496 65.8161 50.321C68.6446 43.4924 68.6446 35.8198 65.8161 28.9913C62.9876 22.1627 57.5623 16.7374 50.7337 13.9089C43.9051 11.0804 36.2325 11.0804 29.4039 13.9089C27.5131 14.6921 25.7298 15.6744 24.0794 16.8306L19.8659 12.617C17.4066 10.1578 13.2017 11.8995 13.2017 15.3775L13.2017 27.166ZM22.4924 20.9004C22.483 20.8912 22.4736 20.8818 22.4643 20.8724L17.2017 15.6097L17.2017 27.166L28.758 27.166L22.4924 20.9004Z" stroke="currentColor" stroke-linecap="round" stroke-linejoin="round" />
  <path fill-rule="evenodd" clip-rule="evenodd" d="M47.4719 31.3663C48.1439 30.4897 47.9781 29.2343 47.1015 28.5622C46.2249 27.8902 44.9694 28.056 44.2974 28.9326L40.2045 34.2713C39.819 34.176 39.4159 34.1255 39.0009 34.1255C36.2395 34.1255 34.0009 36.3641 34.0009 39.1255C34.0009 41.8869 36.2395 44.1255 39.0009 44.1255C40.1183 44.1255 41.1501 43.759 41.9825 43.1396L51.8961 48.8076C52.855 49.3559 54.0768 49.0229 54.625 48.064C55.1733 47.1051 54.8404 45.8834 53.8815 45.3351L43.9717 39.6693C43.991 39.4907 44.0009 39.3092 44.0009 39.1255C44.0009 38.248 43.7749 37.4233 43.3778 36.7065L47.4719 31.3663ZM38.0009 39.1255C38.0009 38.5732 38.4486 38.1255 39.0009 38.1255C39.5532 38.1255 40.0009 38.5732 40.0009 39.1255C40.0009 39.6778 39.5532 40.1255 39.0009 40.1255C38.4486 40.1255 38.0009 39.6778 38.0009 39.1255Z" stroke="currentColor" stroke-linecap="round" stroke-linejoin="round" />
</svg>