<svg viewBox="0 0 80 80" fill="none">
  <path d="M42.3702 36.2471C41.876 36.3464 41.4996 36.7672 41.4996 37.2713V50C41.4996 50.5523 41.9473 51 42.4996 51H51.675C52.0311 51 52.3632 51.1879 52.5274 51.5038C53.4043 53.1921 53.8783 55.0857 53.8783 57.0354V58.6289C53.8783 59.1812 53.4306 59.6289 52.8783 59.6289H27.1217C26.5694 59.6289 26.1217 59.1812 26.1217 58.6289V57.0354C26.1217 55.0857 26.5958 53.1921 27.4727 51.5038C27.6368 51.1879 27.9689 51 28.325 51H37.4996C38.0519 51 38.4996 50.5523 38.4996 50V37.2712C38.4996 36.7671 38.1233 36.3463 37.6291 36.2469C35.7812 35.8754 34.0025 35.0649 32.4566 33.8154L30.5783 32.2971C29.3861 31.3335 28.4052 30.1639 27.67 28.8606C27.3206 28.2411 27.7998 27.5196 28.5111 27.5196H51.489C52.2002 27.5196 52.6794 28.2411 52.33 28.8606C51.5949 30.1639 50.6139 31.3335 49.4218 32.2971L47.5434 33.8154C45.9974 35.065 44.2184 35.8756 42.3702 36.2471Z" stroke="currentColor" stroke-linecap="round" stroke-linejoin="round" />
  <path fill-rule="evenodd" clip-rule="evenodd" d="M19 15C17.8954 15 17 15.8954 17 17C17 18.1046 17.8954 19 19 19H20.6797V24.3146C20.6797 29.1469 22.8636 33.7203 26.6218 36.758L29.9423 39.4419C30.1823 39.636 30.4266 39.8221 30.6749 40.0003C30.4269 40.1783 30.1829 40.3642 29.9431 40.5581L26.6226 43.242C22.8644 46.2797 20.6805 50.8531 20.6805 55.6854V61H19C17.8954 61 17 61.8954 17 63C17 64.1046 17.8954 65 19 65H61C62.1046 65 63 64.1046 63 63C63 61.8954 62.1046 61 61 61H59.3215V55.6854C59.3215 50.8531 57.1375 46.2797 53.3794 43.242L50.0589 40.5581C49.8188 40.364 49.5745 40.1779 49.3263 39.9997C49.5743 39.8217 49.8183 39.6358 50.0581 39.4419L53.3786 36.758C57.1368 33.7203 59.3207 29.1469 59.3207 24.3146V19H61C62.1046 19 63 18.1046 63 17C63 15.8954 62.1046 15 61 15H19ZM24.6797 24.3146V19H55.3207V24.3146C55.3207 27.9388 53.6827 31.3689 50.8641 33.6472L47.5436 36.3311C46.5885 37.1031 45.5464 37.7065 44.455 38.1427C43.6954 38.4463 43.1973 39.1819 43.1973 39.9999C43.1974 40.8179 43.6955 41.5535 44.4552 41.857C45.5467 42.2933 46.5891 42.8967 47.5444 43.6689L50.8649 46.3529C53.6835 48.6311 55.3215 52.0612 55.3215 55.6854V61H24.6805V55.6854C24.6805 52.0612 26.3184 48.6311 29.137 46.3529L32.4576 43.6689C33.4127 42.8969 34.4548 42.2935 35.5461 41.8573C36.3057 41.5537 36.8039 40.8181 36.8038 40.0001C36.8038 39.1821 36.3056 38.4465 35.546 38.143C34.4544 37.7067 33.4121 37.1033 32.4568 36.3311L29.1363 33.6471C26.3177 31.3689 24.6797 27.9388 24.6797 24.3146Z" stroke="currentColor" stroke-linecap="round" stroke-linejoin="round" />
</svg>