<svg width="80" height="80" viewBox="0 0 80 80" fill="none" xmlns="http://www.w3.org/2000/svg">
  <path fill-rule="evenodd" clip-rule="evenodd" d="M32 29C32 27.8954 32.8954 27 34 27H46C47.1046 27 48 27.8954 48 29V41C48 42.1046 47.1046 43 46 43H34C32.8954 43 32 42.1046 32 41V29ZM36 31V39H44V31H36Z" stroke="currentColor" stroke-linecap="round" stroke-linejoin="round" />
  <path fill-rule="evenodd" clip-rule="evenodd" d="M38.7506 11.4383C39.4811 10.8539 40.519 10.8539 41.2494 11.4383L47 16.0388V15C47 13.3431 48.3432 12 50 12H54C55.6569 12 57 13.3431 57 15V24.0388L68.7494 33.4383C69.6119 34.1283 69.7518 35.3869 69.0617 36.2494C68.3717 37.1119 67.1131 37.2518 66.2506 36.5617L62 33.1613V47.8908C62 48.727 61.4797 49.475 60.6957 49.7659C60.014 50.0188 59.3542 50.353 58.7305 50.7688L57.8245 51.3728C56.2752 52.4056 54.5186 52.985 52.7381 53.1103C52.6914 53.1136 52.6446 53.1152 52.5977 53.1152H51.4026C51.3558 53.1152 51.309 53.1136 51.2623 53.1103C49.4817 52.985 47.7251 52.4056 46.1758 51.3728L45.2698 50.7688C42.0788 48.6414 37.9216 48.6414 34.7305 50.7688L33.8245 51.3728C32.2752 52.4056 30.5186 52.985 28.7381 53.1103C28.6914 53.1136 28.6446 53.1152 28.5977 53.1152H27.4026C27.3558 53.1152 27.309 53.1136 27.2623 53.1103C25.4817 52.985 23.7251 52.4056 22.1758 51.3728L21.2698 50.7688C20.646 50.3529 19.9862 50.0187 19.3043 49.7658C18.5203 49.4749 18 48.7269 18 47.8907V33.1613L13.7494 36.5617C12.8869 37.2518 11.6283 37.1119 10.9383 36.2494C10.2482 35.3869 10.3881 34.1283 11.2506 33.4383L38.7506 11.4383ZM53 20.8388L51 19.2388V16H53V20.8388ZM40 15.5612L58 29.9612V46.5796C57.4904 46.8325 56.9932 47.1196 56.5117 47.4406L55.6057 48.0446C54.6651 48.6717 53.6029 49.0283 52.5227 49.1152H51.4776C50.3975 49.0283 49.3353 48.6717 48.3946 48.0445L47.4886 47.4406C42.954 44.4175 37.0464 44.4175 32.5117 47.4406L31.6057 48.0446C30.665 48.6717 29.6029 49.0283 28.5227 49.1152H27.4776C26.3975 49.0283 25.3353 48.6717 24.3946 48.0445L23.4886 47.4406C23.007 47.1195 22.5097 46.8324 22 46.5794V29.9612L40 15.5612Z" stroke="currentColor" stroke-linecap="round" stroke-linejoin="round" />
  <path d="M20.4378 58.3625C17.7506 56.5711 14.2497 56.5711 11.5626 58.3625L10.6566 58.9665C9.8781 59.4855 9.05329 59.9047 8.20003 60.2235C7.16533 60.6101 6.01313 60.0847 5.62651 59.05C5.23989 58.0153 5.76526 56.8631 6.79996 56.4765C7.36788 56.2643 7.91764 55.9851 8.43775 55.6383L9.34375 55.0343C13.3745 52.3471 18.6258 52.3471 22.6566 55.0343L23.5626 55.6383C26.2497 57.4298 29.7506 57.4298 32.4378 55.6383L33.3438 55.0343C37.3745 52.3471 42.6258 52.3471 46.6566 55.0343L47.5625 55.6383C50.2497 57.4298 53.7506 57.4298 56.4378 55.6383L57.3437 55.0343C61.3745 52.3471 66.6258 52.3471 70.6566 55.0343L71.5625 55.6383C72.0826 55.985 72.6323 56.2642 73.2001 56.4764C74.2348 56.8631 74.7601 58.0153 74.3735 59.05C73.9868 60.0847 72.8346 60.61 71.7999 60.2233C70.9468 59.9045 70.1221 59.4854 69.3438 58.9665L68.4378 58.3625C65.7506 56.5711 62.2497 56.5711 59.5625 58.3625L58.6566 58.9665C54.6258 61.6537 49.3745 61.6537 45.3438 58.9665L44.4378 58.3625C41.7506 56.5711 38.2497 56.5711 35.5625 58.3625L34.6566 58.9665C30.6258 61.6537 25.3745 61.6537 21.3437 58.9665L20.4378 58.3625Z" stroke="currentColor" stroke-linecap="round" stroke-linejoin="round" />
  <path d="M39.9594 64.7886C41.52 64.7806 43.0824 65.2285 44.4378 66.1321L45.3438 66.7361C49.3745 69.4233 54.6258 69.4233 58.6566 66.7361L59.5626 66.1321C60.0826 65.7854 60.6323 65.5062 61.2001 65.294C62.2348 64.9073 62.7601 63.7551 62.3735 62.7204C61.9868 61.6857 60.8346 61.1604 59.7999 61.5471C58.9468 61.8659 58.1221 62.285 57.3438 62.8039L56.4378 63.4079C53.7506 65.1993 50.2497 65.1993 47.5626 63.4079L46.6566 62.8039C42.6258 60.1167 37.3745 60.1167 33.3438 62.8039L32.4378 63.4079C29.7506 65.1993 26.2497 65.1993 23.5626 63.4079L22.6566 62.8039C21.8781 62.2849 21.0533 61.8657 20.2 61.5469C19.1653 61.1603 18.0131 61.6857 17.6265 62.7204C17.2399 63.7551 17.7653 64.9073 18.8 65.2939C19.3679 65.5061 19.9176 65.7853 20.4378 66.1321L21.3438 66.7361C25.3745 69.4233 30.6258 69.4233 34.6566 66.7361L35.5626 66.1321C36.8944 65.2442 38.426 64.7964 39.9594 64.7886Z" stroke="currentColor" stroke-linecap="round" stroke-linejoin="round" />
</svg>