<svg width="80" height="80" viewBox="0 0 80 80" fill="none" xmlns="http://www.w3.org/2000/svg">
  <path fill-rule="evenodd" clip-rule="evenodd" d="M35.5354 32.2309C38.2978 30.6361 41.7012 30.6361 44.4636 32.2309C47.226 33.8258 48.9277 36.7732 48.9277 39.963C48.9277 43.1527 47.226 46.1002 44.4636 47.695C41.7012 49.2899 38.2978 49.2899 35.5354 47.695C32.773 46.1002 31.0713 43.1527 31.0713 39.963C31.0713 36.7732 32.773 33.8258 35.5354 32.2309ZM42.4636 35.695C40.9388 34.8147 39.0602 34.8147 37.5354 35.695C36.0106 36.5754 35.0713 38.2023 35.0713 39.963C35.0713 41.7237 36.0106 43.3506 37.5354 44.2309C39.0602 45.1113 40.9388 45.1113 42.4636 44.2309C43.9884 43.3506 44.9277 41.7237 44.9277 39.963C44.9277 38.2023 43.9884 36.5754 42.4636 35.695Z" stroke="currentColor" stroke-linecap="round" stroke-linejoin="round" />
  <path fill-rule="evenodd" clip-rule="evenodd" d="M39.3889 10.1481C39.8098 10.5826 40.0114 11.1842 39.9373 11.7846L38.8394 20.6773C42.5564 20.454 46.3239 21.305 49.6597 23.2309C50.0685 23.467 50.4667 23.7168 50.8538 23.9796C51.3281 24.2138 51.7965 24.4643 52.2584 24.7309C59.8439 29.1104 64.5167 37.204 64.5167 45.963C64.5167 54.7219 59.8439 62.8156 52.2584 67.195C48.7673 69.2106 44.9028 70.2986 41.0093 70.4589C40.4223 70.483 39.8543 70.2479 39.4562 69.8158C39.0581 69.3838 38.8701 68.7986 38.9421 68.2155L40.0448 59.2834C36.6943 59.2913 33.3417 58.4286 30.3391 56.695C29.9292 56.4583 29.5299 56.2078 29.1418 55.9442C28.6691 55.7106 28.2021 55.4609 27.7417 55.1951C20.1562 50.8156 15.4834 42.722 15.4834 33.963C15.4834 25.2041 20.1562 17.1105 27.7417 12.731C30.8676 10.9263 34.2931 9.86507 37.7707 9.54783C38.3731 9.49288 38.968 9.71354 39.3889 10.1481ZM35.6441 13.9137C33.5994 14.3577 31.6071 15.1181 29.7417 16.1951C23.3939 19.86 19.4834 26.6331 19.4834 33.963C19.4834 41.2929 23.3939 48.066 29.7417 51.731C30.1641 51.9749 30.593 52.2025 31.0274 52.4138C31.1184 52.4581 31.2059 52.5092 31.2892 52.5667C31.6282 52.8009 31.9783 53.0226 32.3391 53.2309C35.3252 54.9549 38.7478 55.5931 42.0578 55.1447C42.6725 55.0615 43.291 55.2681 43.7321 55.7041C44.1733 56.1401 44.3872 56.7561 44.3112 57.3717L43.2181 66.226C45.6605 65.8384 48.0485 65.0068 50.2584 63.7309C56.6063 60.066 60.5167 53.2929 60.5167 45.963C60.5167 38.6331 56.6063 31.86 50.2584 28.195C49.8348 27.9504 49.4047 27.7222 48.969 27.5104C48.878 27.4661 48.7904 27.415 48.7072 27.3575C48.3689 27.1239 48.0196 26.9028 47.6597 26.695C44.3707 24.7962 40.5521 24.2146 36.938 24.9511C36.3073 25.0797 35.6533 24.8968 35.1807 24.4599C34.7081 24.0229 34.4748 23.3852 34.5536 22.7464L35.6441 13.9137Z" stroke="currentColor" stroke-linecap="round" stroke-linejoin="round" />
</svg>