<svg width="80" height="80" viewBox="0 0 80 80" fill="none" xmlns="http://www.w3.org/2000/svg">
  <path fill-rule="evenodd" clip-rule="evenodd" d="M32.8891 10.4025C32.7435 10.3299 32.5878 10.2746 32.4247 10.2392L16.1615 6.3375C16.0722 6.31403 15.9805 6.29658 15.8867 6.28562C15.6536 6.25776 15.423 6.27177 15.2036 6.32241C14.9104 6.38954 14.6418 6.52109 14.4135 6.70137C14.1848 6.88147 13.9941 7.11215 13.8604 7.38179C13.7602 7.58311 13.6929 7.80372 13.6656 8.03655C13.6543 8.13041 13.6499 8.22385 13.6519 8.31633V13.1329C13.6513 13.1614 13.6513 13.1899 13.6519 13.2183L13.6519 20.8763C12.8994 20.6208 12.1039 20.4877 11.3249 20.4877C8.288 20.4877 4.99802 22.5118 4.99802 25.919C4.99802 29.3263 8.288 31.3504 11.3249 31.3504C14.3619 31.3504 17.6519 29.3263 17.6519 25.919L17.6519 15.7105L29.998 18.6724V24.7979C29.2456 24.5424 28.45 24.4092 27.6711 24.4092C24.6342 24.4092 21.3442 26.4334 21.3442 29.8406C21.3442 33.2478 24.6342 35.272 27.6711 35.272C30.708 35.272 33.998 33.2478 33.998 29.8406V17.1365C33.9986 17.108 33.9986 17.0796 33.998 17.0512V12.2345C34.0016 12.0681 33.9842 11.9041 33.9478 11.746C33.8807 11.4526 33.7491 11.1837 33.5686 10.9552C33.3887 10.7267 33.1583 10.5362 32.8891 10.4025ZM17.6519 10.8085V11.597L29.998 14.5589V13.7705L17.6519 10.8085ZM13.6519 25.9182C13.651 25.5345 13.0661 24.4877 11.3249 24.4877C9.58249 24.4877 8.99802 25.5361 8.99802 25.919C8.99802 26.302 9.58249 27.3504 11.3249 27.3504C13.0674 27.3504 13.6519 26.3011 13.6519 25.9182ZM29.998 29.8406C29.998 29.4576 29.4135 28.4092 27.6711 28.4092C25.9286 28.4092 25.3442 29.4576 25.3442 29.8406C25.3442 30.2236 25.9286 31.272 27.6711 31.272C29.4135 31.272 29.998 30.2236 29.998 29.8406Z" stroke="currentColor" stroke-linecap="round" stroke-linejoin="round" />
  <path fill-rule="evenodd" clip-rule="evenodd" d="M49.0941 18.3585C46.603 16.9203 45.7495 13.7349 47.1878 11.2438C48.626 8.75268 51.8114 7.89917 54.3025 9.33741L55.0963 9.79574C57.5874 11.234 58.441 14.4193 57.0027 16.9105C56.7947 17.2707 56.5502 17.5967 56.2766 17.8864L58.4299 19.1296L70.1322 12.3733C71.0888 11.8211 72.3119 12.1488 72.8642 13.1054C73.4165 14.062 73.0888 15.2852 72.1322 15.8374L62.4299 21.4391L72.1322 27.0407C73.0888 27.5929 73.4165 28.8161 72.8642 29.7727C72.3119 30.7293 71.0888 31.057 70.1322 30.5048L58.4299 23.7485L56.2766 24.9917C56.5502 25.2814 56.7947 25.6074 57.0027 25.9676C58.441 28.4588 57.5874 31.6441 55.0963 33.0824L54.3025 33.5407C51.8114 34.9789 48.626 34.1254 47.1878 31.6343C45.7495 29.1432 46.603 25.9578 49.0941 24.5196L49.888 24.0613L49.9068 24.0504L54.4299 21.439L49.907 18.8278L49.888 18.8168L49.0941 18.3585ZM51.4801 15.1172L51.4919 15.124L51.888 15.3527L51.8972 15.358C52.4737 15.6843 53.2067 15.4853 53.5386 14.9105C53.8723 14.3325 53.6743 13.5935 53.0963 13.2598L52.3025 12.8015C51.7245 12.4678 50.9855 12.6659 50.6519 13.2438C50.3182 13.8217 50.5162 14.5607 51.0941 14.8944L51.4801 15.1172ZM51.48 27.7609L51.0941 27.9837C50.5162 28.3174 50.3182 29.0564 50.6519 29.6343C50.9855 30.2122 51.7245 30.4103 52.3025 30.0766L53.0963 29.6183C53.6743 29.2846 53.8723 28.5456 53.5386 27.9676C53.2067 27.3928 52.4738 27.1938 51.8972 27.5201L51.888 27.5254L51.4919 27.7541L51.48 27.7609Z" stroke="currentColor" stroke-linecap="round" stroke-linejoin="round" />
  <path fill-rule="evenodd" clip-rule="evenodd" d="M16.8804 67.9863C16.8804 65.7206 18.7017 63.8434 20.998 63.8434C23.2944 63.8434 25.1157 65.7206 25.1157 67.9863C25.1157 70.2519 23.2944 72.1291 20.998 72.1291C18.7017 72.1291 16.8804 70.2519 16.8804 67.9863ZM20.998 67.8434C20.9553 67.8434 20.8804 67.885 20.8804 67.9863C20.8804 68.0875 20.9553 68.1291 20.998 68.1291C21.0407 68.1291 21.1157 68.0875 21.1157 67.9863C21.1157 67.885 21.0407 67.8434 20.998 67.8434Z" stroke="currentColor" stroke-linecap="round" stroke-linejoin="round" />
  <path d="M26.0431 43.6004C22.7231 42.8337 19.2748 42.8337 15.9548 43.6004C12.6349 44.3672 9.53014 45.8807 6.87071 48.0267C5.58803 49.0618 4.42489 50.2312 3.39903 51.512C2.70851 52.3741 2.84761 53.6328 3.70972 54.3233C4.57184 55.0138 5.83051 54.8747 6.52103 54.0126C7.3673 52.956 8.32615 51.9922 9.38269 51.1396C11.5731 49.372 14.1273 48.1278 16.855 47.4978C19.5827 46.8679 22.4153 46.8679 25.143 47.4978C27.8707 48.1278 30.4249 49.372 32.6153 51.1396C33.6726 51.9928 34.6321 52.9575 35.4788 54.015C36.1692 54.8772 37.4279 55.0165 38.2901 54.3261C39.1523 53.6357 39.2916 52.3771 38.6012 51.5149C37.5748 50.233 36.4109 49.0626 35.1272 48.0267C32.4678 45.8807 29.363 44.3672 26.0431 43.6004Z" stroke="currentColor" stroke-linecap="round" stroke-linejoin="round" />
  <path d="M24.668 50.7796C22.2552 50.2223 19.749 50.2223 17.3362 50.7796C14.9234 51.3368 12.6675 52.4366 10.7355 53.9956C9.66681 54.8581 8.71248 55.8487 7.89191 56.9424C7.22901 57.8259 7.40787 59.0796 8.29141 59.7425C9.17495 60.4054 10.4286 60.2265 11.0915 59.343C11.7144 58.5127 12.4382 57.7616 13.2475 57.1085C14.7105 55.928 16.4158 55.0974 18.2364 54.677C20.0569 54.2565 21.9474 54.2565 23.7679 54.677C25.5885 55.0974 27.2938 55.928 28.7567 57.1085C29.5657 57.7614 30.2892 58.512 30.912 59.3419C31.575 60.2254 32.8286 60.4041 33.7121 59.7411C34.5956 59.0781 34.7743 57.8245 34.1113 56.941C33.291 55.8479 32.337 54.8577 31.2687 53.9956C29.3368 52.4366 27.0808 51.3368 24.668 50.7796Z" stroke="currentColor" stroke-linecap="round" stroke-linejoin="round" />
  <path d="M23.2899 57.9613C21.7842 57.6135 20.2202 57.6135 18.7145 57.9613C17.2088 58.309 15.8018 58.9952 14.5973 59.9672C13.7162 60.6781 12.9603 61.5286 12.357 62.482C11.7665 63.4155 12.0444 64.6509 12.9778 65.2415C13.9113 65.8321 15.1467 65.5541 15.7373 64.6207C16.1079 64.0349 16.5712 63.5142 17.1093 63.08C17.8447 62.4865 18.7012 62.0697 19.6146 61.8587C20.528 61.6477 21.4763 61.6477 22.3897 61.8587C23.3032 62.0697 24.1596 62.4865 24.8951 63.08C25.4328 63.514 25.8959 64.0343 26.2664 64.6196C26.8571 65.5529 28.0926 65.8307 29.026 65.2399C29.9593 64.6492 30.237 63.4137 29.6462 62.4803C29.0432 61.5276 28.2876 60.6777 27.4071 59.9672C26.2026 58.9952 24.7955 58.309 23.2899 57.9613Z" stroke="currentColor" stroke-linecap="round" stroke-linejoin="round" />
  <path d="M59.498 43.272C60.5996 43.272 61.4938 44.1627 61.498 45.2642L61.5141 49.4246C61.5167 50.0939 61.1843 50.7202 60.6284 51.0931C60.2941 51.3175 59.9055 51.4323 59.5144 51.4324C59.1122 51.4388 58.7113 51.324 58.3676 51.0934C57.8118 50.7205 57.4794 50.0942 57.482 49.4249L57.498 45.2642C57.5023 44.1627 58.3965 43.272 59.498 43.272Z" stroke="currentColor" stroke-linecap="round" stroke-linejoin="round" />
  <path d="M48.5379 47.8118C49.3168 47.0329 50.5789 47.0305 51.3608 47.8064L54.3142 50.737C54.7893 51.2085 54.9971 51.8863 54.8678 52.5431C54.7897 52.9398 54.5948 53.297 54.3164 53.5741C54.0371 53.8612 53.6737 54.0622 53.2692 54.1419C52.6125 54.2712 51.9346 54.0634 51.4632 53.5883L48.5324 50.6348C47.7565 49.8529 47.7589 48.5907 48.5379 47.8118Z" stroke="currentColor" stroke-linecap="round" stroke-linejoin="round" />
  <path d="M70.4582 47.8118C71.2371 48.5907 71.2395 49.8529 70.4636 50.6348L67.5333 53.5878C67.0618 54.0629 66.384 54.2707 65.7273 54.1414C65.3306 54.0633 64.9734 53.8685 64.6963 53.5902C64.4091 53.3108 64.2081 52.9474 64.1285 52.5429C63.9991 51.8862 64.2069 51.2083 64.682 50.7368L67.6352 47.8064C68.4171 47.0305 69.6793 47.0329 70.4582 47.8118Z" stroke="currentColor" stroke-linecap="round" stroke-linejoin="round" />
  <path d="M52.1588 58.772C52.1619 58.3753 52.0471 57.9806 51.8196 57.6416C51.4467 57.0857 50.8204 56.7533 50.1511 56.7559L45.9903 56.772C44.8887 56.7762 43.998 57.6704 43.998 58.772C43.998 59.8735 44.8887 60.7677 45.9903 60.772L50.1511 60.788C50.8204 60.7906 51.4467 60.4582 51.8196 59.9024C52.0471 59.5634 52.1619 59.1686 52.1588 58.772Z" stroke="currentColor" stroke-linecap="round" stroke-linejoin="round" />
  <path d="M67.177 57.6416C67.5499 57.0858 68.1762 56.7533 68.8456 56.7559L73.0057 56.772C74.1073 56.7762 74.998 57.6704 74.998 58.772C74.998 59.8735 74.1073 60.7677 73.0057 60.772L68.8456 60.788C68.1762 60.7906 67.5499 60.4582 67.177 59.9024C66.9496 59.5633 66.8347 59.1686 66.8379 58.772C66.8347 58.3753 66.9496 57.9806 67.177 57.6416Z" stroke="currentColor" stroke-linecap="round" stroke-linejoin="round" />
  <path d="M54.3165 63.9698C54.0371 63.6827 53.6737 63.4817 53.2692 63.4021C52.6125 63.2728 51.9346 63.4806 51.4632 63.9557L48.5324 66.9092C47.7565 67.6911 47.7589 68.9532 48.5379 69.7321C49.3168 70.511 50.5789 70.5135 51.3608 69.7376L54.3142 66.8069C54.7893 66.3355 54.9971 65.6576 54.8678 65.0009C54.7897 64.6042 54.5948 64.247 54.3165 63.9698Z" stroke="currentColor" stroke-linecap="round" stroke-linejoin="round" />
  <path d="M65.7273 63.4025C66.384 63.2732 67.0618 63.481 67.5333 63.9561L70.4636 66.9092C71.2395 67.6911 71.2371 68.9532 70.4582 69.7321C69.6793 70.511 68.4171 70.5135 67.6352 69.7376L64.682 66.8071C64.2069 66.3357 63.9991 65.6578 64.1284 65.0011C64.2081 64.5966 64.4091 64.2332 64.6962 63.9539C64.9733 63.6755 65.3306 63.4806 65.7273 63.4025Z" stroke="currentColor" stroke-linecap="round" stroke-linejoin="round" />
  <path d="M59.5143 66.1116C59.1122 66.1051 58.7113 66.22 58.3676 66.4505C57.8118 66.8235 57.4794 67.4497 57.482 68.1191L57.498 72.2797C57.5023 73.3812 58.3965 74.272 59.498 74.272C60.5996 74.272 61.4938 73.3812 61.498 72.2797L61.5141 68.1193C61.5167 67.45 61.1842 66.8237 60.6284 66.4508C60.294 66.2264 59.9055 66.1117 59.5143 66.1116Z" stroke="currentColor" stroke-linecap="round" stroke-linejoin="round" />
  <path d="M61.7009 53.4537C60.2904 52.8694 58.7056 52.8694 57.2951 53.4537C55.8846 54.0379 54.764 55.1586 54.1797 56.5691C53.5955 57.9796 53.5955 59.5644 54.1797 60.9749C54.764 62.3854 55.8846 63.506 57.2951 64.0903C58.7056 64.6745 60.2904 64.6745 61.7009 64.0903C63.1114 63.506 64.2321 62.3854 64.8163 60.9749C65.4006 59.5644 65.4006 57.9796 64.8163 56.5691C64.2321 55.1586 63.1114 54.0379 61.7009 53.4537Z" stroke="currentColor" stroke-linecap="round" stroke-linejoin="round" />
</svg>