<svg width="80" height="80" viewBox="0 0 80 80" fill="none" xmlns="http://www.w3.org/2000/svg">
  <path fill-rule="evenodd" clip-rule="evenodd" d="M10.1401 33.5536H18.1132V35.0519C18.1132 35.2416 18.0628 35.4279 17.9672 35.5918L17.478 36.4305C16.5011 38.1051 17.709 40.2081 19.6477 40.2081H25.0317C26.9704 40.2081 28.1783 38.1051 27.2015 36.4305L26.3543 34.9782C26.2587 34.8143 26.2083 34.628 26.2083 34.4384V33.5536H34.5639C34.9107 33.5536 35.2407 33.4644 35.5291 33.3054L35.6887 33.22C39.3733 31.2486 40.7869 26.6801 38.8594 22.9722C38.1514 21.6102 37.0883 20.5504 35.8436 19.8482C36.5546 16.4289 34.8339 12.8562 31.5248 11.3535C30.5483 10.9101 29.5245 10.6893 28.5132 10.6706C27.1261 8.77566 24.8838 7.54224 22.352 7.54224C19.8201 7.54224 17.5778 8.77566 16.1908 10.6706C15.1794 10.6893 14.1556 10.9101 13.1791 11.3535C9.87008 12.8562 8.14936 16.4289 8.86029 19.8481C7.61568 20.5504 6.55251 21.6102 5.84452 22.9722C3.91708 26.6801 5.33061 31.2486 9.01529 33.22L9.17494 33.3054C9.46331 33.4645 9.79329 33.5536 10.1401 33.5536ZM22.352 11.5422C20.9101 11.5422 19.6598 12.3829 19.0732 13.6105C18.6881 14.4162 17.8156 14.8691 16.935 14.7201C16.2469 14.6037 15.5196 14.6838 14.8331 14.9955C13.016 15.8207 12.2055 17.9577 13.0183 19.7803L13.1988 20.1851C13.4428 20.732 13.4288 21.3594 13.1607 21.8949C12.8926 22.4304 12.3987 22.8176 11.8147 22.9501C10.8043 23.1793 9.90569 23.8321 9.39365 24.8171C8.51942 26.4989 9.08972 28.5528 10.6636 29.5536H20.5959L20.6251 29.5535H23.6964L23.7256 29.5536H34.0403C35.6142 28.5528 36.1845 26.4989 35.3103 24.8171C34.7982 23.8321 33.8996 23.1793 32.8892 22.9501C32.3052 22.8176 31.8113 22.4304 31.5432 21.8949C31.2752 21.3594 31.2612 20.732 31.5051 20.1851L31.6856 19.7803C32.4985 17.9577 31.6879 15.8207 29.8709 14.9955C29.1843 14.6838 28.4571 14.6037 27.7689 14.7201C26.8884 14.8691 26.0158 14.4162 25.6308 13.6105C25.0442 12.3829 23.7938 11.5422 22.352 11.5422ZM22.1132 35.0519V33.5536H22.2083V34.4384C22.2083 35.0449 22.3171 35.644 22.5271 36.2081H21.9796C22.068 35.8307 22.1132 35.4428 22.1132 35.0519Z" stroke="currentColor" stroke-linecap="round" stroke-linejoin="round" />
  <path fill-rule="evenodd" clip-rule="evenodd" d="M59.708 7.54224C51.2529 7.54224 44.3988 14.3964 44.3988 22.8514C44.3988 26.2201 45.4888 29.338 47.3335 31.8665L45.6337 35.2662C45.3237 35.8862 45.3568 36.6224 45.7213 37.2121C46.0857 37.8017 46.7294 38.1606 47.4226 38.1606L59.708 38.1606C68.163 38.1606 75.0172 31.3065 75.0172 22.8514C75.0172 14.3964 68.163 7.54224 59.708 7.54224ZM48.3988 22.8514C48.3988 16.6055 53.4621 11.5422 59.708 11.5422C65.9539 11.5422 71.0172 16.6055 71.0172 22.8514C71.0172 29.0973 65.9539 34.1606 59.708 34.1606L50.6586 34.1606L51.4826 32.5126C51.846 31.7858 51.7336 30.9114 51.1981 30.3002C49.4538 28.3093 48.3988 25.706 48.3988 22.8514Z" stroke="currentColor" stroke-linecap="round" stroke-linejoin="round" />
  <path fill-rule="evenodd" clip-rule="evenodd" d="M65.5592 64.5347V65.5826L65.5592 65.5945L65.5592 65.6063V67.3865C65.5592 70.1873 63.2887 72.4578 60.4878 72.4578H58.4403C55.6394 72.4578 53.3689 70.1873 53.3689 67.3865V64.5354C53.3689 64.1808 53.1411 63.6661 52.5107 63.1848C50.918 61.9689 49.6574 60.3452 48.8773 58.4618C47.7143 55.6541 47.7143 52.4995 48.8773 49.6918C50.0402 46.8842 52.2709 44.6535 55.0786 43.4905C57.8862 42.3275 61.0409 42.3275 63.8486 43.4905C66.6562 44.6535 68.8869 46.8842 70.0499 49.6918C71.2128 52.4995 71.2128 55.6541 70.0499 58.4618C69.2699 60.3449 68.0096 61.9684 66.4173 63.1842C65.7869 63.6655 65.5592 64.1801 65.5592 64.5347ZM56.6093 47.186C58.4369 46.429 60.4903 46.429 62.3178 47.186C64.1454 47.943 65.5974 49.395 66.3543 51.2225C67.1113 53.0501 67.1113 55.1035 66.3543 56.9311C65.8467 58.1567 65.0264 59.2134 63.9898 60.005C62.9449 60.8028 61.9443 62.0349 61.6476 63.5945H57.2804C56.9835 62.0351 55.9828 60.8031 54.9379 60.0054C53.901 59.2138 53.0805 58.1569 52.5728 56.9311C51.8158 55.1035 51.8158 53.0501 52.5728 51.2225C53.3298 49.395 54.7818 47.943 56.6093 47.186ZM57.3891 67.5945H61.539C61.4422 68.0866 61.0084 68.4578 60.4878 68.4578H58.4403C57.9197 68.4578 57.4859 68.0866 57.3891 67.5945Z" stroke="currentColor" stroke-linecap="round" stroke-linejoin="round" />
  <path fill-rule="evenodd" clip-rule="evenodd" d="M15.6853 44.9101C13.2542 44.9101 10.9227 45.8758 9.20362 47.5949C7.48457 49.3139 6.51882 51.6455 6.51882 54.0766C6.51882 56.5077 7.48457 58.8392 9.20362 60.5583L16.4048 67.7594L16.4427 67.7976L20.0624 71.4172C21.2432 72.5981 23.1578 72.5981 24.3386 71.4172L35.1975 60.5584C36.9166 58.8393 37.8823 56.5078 37.8823 54.0767C37.8823 51.6456 36.9166 49.3141 35.1975 47.595C33.4785 45.876 31.1469 44.9102 28.7158 44.9102C26.2847 44.9102 23.9532 45.876 22.2341 47.595L22.2006 47.6285L22.167 47.5949C20.4479 45.8758 18.1164 44.9101 15.6853 44.9101ZM12.032 50.4233C13.001 49.4544 14.3151 48.9101 15.6853 48.9101C17.0555 48.9101 18.3697 49.4544 19.3386 50.4233L20.7864 51.8712C21.1615 52.2462 21.6702 52.4569 22.2006 52.4569C22.7311 52.4569 23.2398 52.2462 23.6148 51.8712L25.0626 50.4234C26.0315 49.4545 27.3456 48.9102 28.7158 48.9102C30.0861 48.9102 31.4002 49.4545 32.3691 50.4234C33.338 51.3923 33.8823 52.7065 33.8823 54.0767C33.8823 55.4469 33.338 56.761 32.3691 57.73L22.2005 67.8985L19.2712 64.9692L19.2332 64.931L12.032 57.7298C11.0631 56.7609 10.5188 55.4468 10.5188 54.0766C10.5188 52.7063 11.0631 51.3922 12.032 50.4233Z" stroke="currentColor" stroke-linecap="round" stroke-linejoin="round" />
</svg>