<svg viewBox="0 0 80 80" fill="none">
  <path fill-rule="evenodd" clip-rule="evenodd" d="M51.5981 23.7679C49.3716 22.4825 46.6284 22.4825 44.4019 23.7679C42.1754 25.0534 40.8038 27.4291 40.8038 30C40.8038 32.5709 42.1754 34.9466 44.4019 36.2321C46.6284 37.5175 49.3716 37.5175 51.5981 36.2321C53.8246 34.9466 55.1962 32.5709 55.1962 30C55.1962 27.4291 53.8246 25.0534 51.5981 23.7679ZM46.4019 27.2321C47.3908 26.6611 48.6092 26.6611 49.5981 27.2321C50.587 27.803 51.1962 28.8581 51.1962 30C51.1962 31.1419 50.587 32.197 49.5981 32.7679C48.6092 33.3389 47.3908 33.3389 46.4019 32.7679C45.413 32.197 44.8038 31.1419 44.8038 30C44.8038 28.8581 45.413 27.803 46.4019 27.2321Z" stroke="currentColor" stroke-linecap="round" stroke-linejoin="round" />
  <path fill-rule="evenodd" clip-rule="evenodd" d="M16 24C16 19.5817 19.5817 16 24 16H56C60.4183 16 64 19.5817 64 24V56C64 60.4183 60.4183 64 56 64H24C19.5817 64 16 60.4183 16 56V24ZM60 24V52.1715L57.1213 49.2929C55.9498 48.1213 54.0503 48.1213 52.8787 49.2929L49.8455 52.3261L36.2115 37.4527C35.0225 36.1556 32.9776 36.1556 31.7886 37.4527L20 50.313V24C20 21.7909 21.7909 20 24 20H56C58.2091 20 60 21.7909 60 24ZM20.0063 56.2257C20.1233 58.3299 21.8666 60 24 60H56C56.1381 60 56.2745 59.993 56.409 59.9793C57.0935 59.9098 57.727 59.6677 58.2653 59.2972C58.899 58.861 59.4007 58.2468 59.6983 57.5267L55 52.8284L51.9354 55.8931C50.7276 57.1008 48.7567 57.058 47.6026 55.7989L34 40.9598L20.0063 56.2257Z" stroke="currentColor" stroke-linecap="round" stroke-linejoin="round" />
</svg>