<svg width="80" height="80" viewBox="0 0 80 80" fill="none" xmlns="http://www.w3.org/2000/svg">
  <path d="M49.8884 39.4664H30.0867C30.1931 39.5231 30.2999 39.579 30.4072 39.6339C33.3639 41.1472 36.6466 41.9431 39.9876 41.9431C43.4498 41.9431 46.8493 41.0884 49.8884 39.4664ZM49.8884 39.4664C49.8884 39.4664 49.8884 39.4664 49.8884 39.4664ZM23.6747 21.3726C28.8464 19.318 34.3841 18.2485 40.0001 18.2485C45.6162 18.2485 51.1539 19.318 56.3257 21.3726C57.3289 21.7712 57.8348 22.8941 57.4687 23.9097L55.0002 30.7569V36.8269L55.7688 37.8205C56.4418 38.6904 56.286 39.9406 55.4201 40.6188C55.033 40.922 54.6365 41.2142 54.2308 41.4949C54.8399 43.8166 54.9238 46.2696 54.4442 48.6709L54.0277 50.7565C53.2016 54.8926 50.5924 58.4533 46.8973 60.4869C42.6029 62.8504 37.3974 62.8504 33.103 60.4869C29.4079 58.4533 26.7987 54.8926 25.9727 50.7565L25.5561 48.6709C25.0776 46.2747 25.1601 43.827 25.7656 41.5097C25.3525 41.2244 24.9488 40.9273 24.5549 40.6187C23.689 39.9405 23.5332 38.6904 24.2063 37.8204L25.0002 36.7942V30.7568L22.5316 23.9096C22.1655 22.894 22.6714 21.7712 23.6747 21.3726ZM51.0002 32.4664H29.0002V35.4664H51.0002V32.4664ZM51.5739 28.4664L53.0331 24.4188C48.8588 22.989 44.4566 22.2485 40.0001 22.2485C35.5437 22.2485 31.1415 22.9889 26.9672 24.4188L28.4264 28.4664H51.5739ZM50.5917 43.5856C47.2844 45.1326 43.6657 45.9431 39.9876 45.9431C39.7582 45.9431 39.5291 45.9399 39.3003 45.9337C35.868 45.8394 32.5015 45.0402 29.4068 43.5966C29.1741 45.0056 29.1933 46.4588 29.4787 47.8875L29.8952 49.9731C30.4902 52.9526 32.3698 55.5176 35.0316 56.9826C38.1252 58.6852 41.8751 58.6852 44.9687 56.9826C47.6305 55.5176 49.5101 52.9526 50.1051 49.9731L50.5217 47.8875C50.8077 46.4551 50.8263 44.9981 50.5917 43.5856Z" stroke="currentColor" stroke-linecap="round" stroke-linejoin="round" />
</svg>