<svg width="80" height="80" viewBox="0 0 80 80" fill="none" xmlns="http://www.w3.org/2000/svg">
  <path fill-rule="evenodd" clip-rule="evenodd" d="M43.4136 49.5857C41.528 47.7001 38.4708 47.7001 36.5852 49.5857C34.6996 51.4713 34.6996 54.5285 36.5852 56.4141C38.4708 58.2997 41.528 58.2997 43.4136 56.4141C45.2992 54.5285 45.2992 51.4713 43.4136 49.5857ZM39.4136 52.4141C39.7371 52.0906 40.2617 52.0906 40.5852 52.4141C40.9087 52.7376 40.9087 53.2622 40.5852 53.5857C40.2617 53.9092 39.7371 53.9092 39.4136 53.5857C39.0901 53.2622 39.0901 52.7376 39.4136 52.4141Z" stroke="currentColor" stroke-linecap="round" stroke-linejoin="round" />
  <path fill-rule="evenodd" clip-rule="evenodd" d="M36.0857 15.0857C38.2474 12.9239 41.7523 12.9239 43.9141 15.0857C45.9452 17.1167 46.068 20.3334 44.2825 22.5078L46.7617 27.8795C46.9793 28.3509 47.5215 28.5774 48.0097 28.4009L49.7528 27.7706C52.2538 26.8663 54.9658 27.0485 57.2749 28.1799C59.3861 26.9848 62.1152 27.2867 63.9141 29.0857C66.0759 31.2474 66.0759 34.7523 63.9141 36.9141C61.7523 39.0759 58.2474 39.0759 56.0857 36.9141C55.7136 36.542 55.4055 36.1301 55.1615 35.6921C55.0757 35.7614 54.9933 35.8354 54.9146 35.914C54.3291 36.4995 54.0001 37.2936 54.0001 38.1216V38.3432C54.0001 38.4927 53.9958 38.6413 53.9873 38.789C53.9958 38.864 54.0001 38.9403 54.0001 39.0177V43.9995C54.0001 44.5104 53.8086 44.9766 53.4934 45.3302C54.7297 48.2548 55.0757 51.5076 54.4439 54.6708L54.0274 56.7564C53.2014 60.8924 50.5921 64.4531 46.8971 66.4868C42.6027 68.8503 37.3971 68.8503 33.1027 66.4868C29.4076 64.4531 26.7984 60.8924 25.9724 56.7564L25.5559 54.6708C24.9241 51.5076 25.2701 48.2548 26.5064 45.3302C26.1649 44.9448 25.9735 44.4325 26.0001 43.9007V39.0176C26.0001 38.9405 26.0044 38.8643 26.0129 38.7894C26.0043 38.6416 26 38.4928 26 38.3432V38.1216C26 37.2936 25.6711 36.4995 25.0855 35.914C25.0068 35.8353 24.9242 35.7612 24.8384 35.6919C24.5943 36.13 24.2863 36.542 23.9141 36.9141C21.7523 39.0759 18.2474 39.0759 16.0857 36.9141C13.9239 34.7523 13.9239 31.2474 16.0857 29.0857C17.8847 27.2867 20.6138 26.9848 22.725 28.18C25.0342 27.0485 27.7462 26.8663 30.2473 27.7706L31.9889 28.4003C32.4772 28.5769 33.0193 28.3504 33.2369 27.879L35.7164 22.5068C33.9319 20.3324 34.055 17.1164 36.0857 15.0857ZM58.9141 34.0857C59.5138 34.6853 60.486 34.6853 61.0857 34.0857C61.6853 33.486 61.6853 32.5138 61.0857 31.9141C60.486 31.3144 59.5138 31.3144 58.9141 31.9141C58.903 31.9252 58.8922 31.9364 58.8815 31.9477L58.8789 31.9505L58.8693 31.9608C58.5954 32.258 58.4601 32.6355 58.4647 33.0183L58.4648 33.0367C58.4739 33.4173 58.6236 33.7952 58.9141 34.0857ZM40.787 24.4795C40.2647 24.5541 39.7338 24.5541 39.2115 24.4793L36.8688 29.5552C35.7809 31.9123 33.0701 33.0447 30.6288 32.162L28.8872 31.5323C27.7216 31.1108 26.4772 31.0926 25.336 31.4374C26.2954 31.7902 27.1769 32.3487 27.9137 33.0854C29.2495 34.421 30 36.2326 30 38.1216V38.3432C30 38.484 30.0079 38.6222 30.023 38.7574C30.0463 38.9649 30.0372 39.1681 30.0001 39.3622V41.9999H50.0001V39.3626C49.9629 39.1684 49.9538 38.965 49.9771 38.7574C49.9922 38.6221 50.0001 38.484 50.0001 38.3432V38.1216C50.0001 36.2326 50.7506 34.421 52.0864 33.0854C52.8232 32.3487 53.7047 31.7902 54.6641 31.4374C53.5229 31.0926 52.2785 31.1108 51.1129 31.5323L49.3698 32.1625C46.9285 33.0452 44.2178 31.9128 43.1299 29.5557L40.787 24.4795ZM41.0857 17.9141C40.486 17.3144 39.5138 17.3144 38.9141 17.9141C38.3144 18.5138 38.3144 19.486 38.9141 20.0857C39.5138 20.6853 40.486 20.6853 41.0857 20.0857C41.6853 19.486 41.6853 18.5138 41.0857 17.9141ZM29.4784 53.8874C28.94 51.1917 29.3492 48.4092 30.6095 46.0004H49.3903C50.6506 48.4092 51.0597 51.1917 50.5214 53.8874L50.1049 55.973C49.5098 58.9525 47.6302 61.5175 44.9684 62.9825C41.8749 64.6851 38.1249 64.6851 35.0314 62.9825C32.3696 61.5175 30.49 58.9525 29.8949 55.973L29.4784 53.8874ZM21.0857 31.9141C20.486 31.3144 19.5138 31.3144 18.9141 31.9141C18.3144 32.5138 18.3144 33.486 18.9141 34.0857C19.5138 34.6853 20.486 34.6853 21.0857 34.0857C21.6853 33.486 21.6853 32.5138 21.0857 31.9141Z" stroke="currentColor" stroke-linecap="round" stroke-linejoin="round" />
</svg>