<svg width="80" height="80" viewBox="0 0 80 80" fill="none" xmlns="http://www.w3.org/2000/svg">
  <path d="M19 34C17.8954 34 17 34.8954 17 36V38C17 39.1046 17.8954 40 19 40H21C22.1046 40 23 39.1046 23 38V36C23 34.8954 22.1046 34 21 34H19Z" stroke="currentColor" stroke-linecap="round" stroke-linejoin="round" />
  <path d="M29 34C27.8954 34 27 34.8954 27 36V38C27 39.1046 27.8954 40 29 40H31C32.1046 40 33 39.1046 33 38V36C33 34.8954 32.1046 34 31 34H29Z" stroke="currentColor" stroke-linecap="round" stroke-linejoin="round" />
  <path d="M39 34C37.8954 34 37 34.8954 37 36V38C37 39.1046 37.8954 40 39 40H41C42.1046 40 43 39.1046 43 38V36C43 34.8954 42.1046 34 41 34H39Z" stroke="currentColor" stroke-linecap="round" stroke-linejoin="round" />
  <path d="M49 34C47.8954 34 47 34.8954 47 36V38C47 39.1046 47.8954 40 49 40H51C52.1046 40 53 39.1046 53 38V36C53 34.8954 52.1046 34 51 34H49Z" stroke="currentColor" stroke-linecap="round" stroke-linejoin="round" />
  <path d="M59 34C57.8954 34 57 34.8954 57 36V38C57 39.1046 57.8954 40 59 40H61C62.1046 40 63 39.1046 63 38V36C63 34.8954 62.1046 34 61 34H59Z" stroke="currentColor" stroke-linecap="round" stroke-linejoin="round" />
  <path d="M24 44C22.8954 44 22 44.8954 22 46V48C22 49.1046 22.8954 50 24 50H26C27.1046 50 28 49.1046 28 48V46C28 44.8954 27.1046 44 26 44H24Z" stroke="currentColor" stroke-linecap="round" stroke-linejoin="round" />
  <path d="M34 44C32.8954 44 32 44.8954 32 46V48C32 49.1046 32.8954 50 34 50H36C37.1046 50 38 49.1046 38 48V46C38 44.8954 37.1046 44 36 44H34Z" stroke="currentColor" stroke-linecap="round" stroke-linejoin="round" />
  <path d="M44 44C42.8954 44 42 44.8954 42 46V48C42 49.1046 42.8954 50 44 50H46C47.1046 50 48 49.1046 48 48V46C48 44.8954 47.1046 44 46 44H44Z" stroke="currentColor" stroke-linecap="round" stroke-linejoin="round" />
  <path d="M54 44C52.8954 44 52 44.8954 52 46V48C52 49.1046 52.8954 50 54 50H56C57.1046 50 58 49.1046 58 48V46C58 44.8954 57.1046 44 56 44H54Z" stroke="currentColor" stroke-linecap="round" stroke-linejoin="round" />
  <path d="M19 54C17.8954 54 17 54.8954 17 56V58C17 59.1046 17.8954 60 19 60H21C22.1046 60 23 59.1046 23 58V56C23 54.8954 22.1046 54 21 54H19Z" stroke="currentColor" stroke-linecap="round" stroke-linejoin="round" />
  <path d="M29 54C27.8954 54 27 54.8954 27 56V58C27 59.1046 27.8954 60 29 60H51C52.1046 60 53 59.1046 53 58V56C53 54.8954 52.1046 54 51 54H29Z" stroke="currentColor" stroke-linecap="round" stroke-linejoin="round" />
  <path d="M59 54C57.8954 54 57 54.8954 57 56V58C57 59.1046 57.8954 60 59 60H61C62.1046 60 63 59.1046 63 58V56C63 54.8954 62.1046 54 61 54H59Z" stroke="currentColor" stroke-linecap="round" stroke-linejoin="round" />
  <path fill-rule="evenodd" clip-rule="evenodd" d="M54 12C55.1046 12 56 12.8954 56 14V17.5C56 20.8137 53.3137 23.5 50 23.5H31C29.8954 23.5 29 24.3954 29 25.5V27H64C67.3137 27 70 29.6863 70 33V61C70 64.3137 67.3137 67 64 67H16C12.6863 67 10 64.3137 10 61V33C10 29.6863 12.6863 27 16 27H25V25.5C25 22.1863 27.6863 19.5 31 19.5H50C51.1046 19.5 52 18.6046 52 17.5V14C52 12.8954 52.8954 12 54 12ZM16 31H64C65.1046 31 66 31.8954 66 33V61C66 62.1046 65.1046 63 64 63H16C14.8954 63 14 62.1046 14 61V33C14 31.8954 14.8954 31 16 31Z" stroke="currentColor" stroke-linecap="round" stroke-linejoin="round" />
</svg>