<svg width="80" height="80" viewBox="0 0 80 80" fill="none" xmlns="http://www.w3.org/2000/svg">
  <path fill-rule="evenodd" clip-rule="evenodd" d="M10 54.2559V20.2559C10 16.9422 12.6863 14.2559 16 14.2559H64C67.3137 14.2559 70 16.9421 70 20.2559V54.2559H75.8479C77.0365 54.2559 78 55.2195 78 56.408C78 61.8468 73.591 66.2559 68.1521 66.2559H11.8479C6.40904 66.2559 2 61.8468 2 56.408C2 55.2194 2.96355 54.2559 4.15215 54.2559H10ZM14 20.2559C14 19.1513 14.8954 18.2559 16 18.2559H64C65.1046 18.2559 66 19.1513 66 20.2559V54.2559H47.874C46.9614 54.2559 46.1646 54.8736 45.9371 55.7573C45.715 56.6204 44.9292 57.2559 44 57.2559H36C35.0708 57.2559 34.285 56.6204 34.0629 55.7573C33.8354 54.8736 33.0386 54.2559 32.126 54.2559H14V20.2559ZM6.29795 58.2559C7.0714 60.58 9.26392 62.2559 11.8479 62.2559H68.1521C70.7361 62.2559 72.9286 60.58 73.702 58.2559H49.1967C48.1597 60.0487 46.2224 61.2559 44 61.2559H36C33.7776 61.2559 31.8403 60.0487 30.8033 58.2559H6.29795Z" stroke="currentColor" stroke-linecap="round" stroke-linejoin="round" />
</svg>