<svg width="80" height="80" viewBox="0 0 80 80" fill="none" xmlns="http://www.w3.org/2000/svg">
  <path fill-rule="evenodd" clip-rule="evenodd" d="M14.5 17.5C14.5 15.8431 15.8431 14.5 17.5 14.5H30.5C32.1569 14.5 33.5 15.8431 33.5 17.5V30.5C33.5 32.1569 32.1569 33.5 30.5 33.5H17.5C15.8431 33.5 14.5 32.1569 14.5 30.5V17.5ZM18.5 18.5V29.5H29.5V18.5H18.5Z" stroke="currentColor" stroke-linecap="round" stroke-linejoin="round" />
  <path fill-rule="evenodd" clip-rule="evenodd" d="M65.5 62.5C65.5 64.1569 64.1569 65.5 62.5 65.5H49.5C47.8431 65.5 46.5 64.1569 46.5 62.5V49.5C46.5 47.8431 47.8431 46.5 49.5 46.5H62.5C64.1569 46.5 65.5 47.8431 65.5 49.5V62.5ZM61.5 61.5V50.5H50.5V61.5H61.5Z" stroke="currentColor" stroke-linecap="round" stroke-linejoin="round" />
  <path fill-rule="evenodd" clip-rule="evenodd" d="M10 14C10 11.7909 11.7909 10 14 10H34C36.2091 10 38 11.7909 38 14V22H54C56.2091 22 58 23.7909 58 26V42H66C68.2091 42 70 43.7909 70 46V66C70 68.2091 68.2091 70 66 70H46C43.7909 70 42 68.2091 42 66V58H26C23.7909 58 22 56.2091 22 54V38H14C11.7909 38 10 36.2091 10 34V14ZM32 34C33.1046 34 34 33.1046 34 32V16C34 14.8954 33.1046 14 32 14L16 14C14.8954 14 14 14.8954 14 16V32C14 33.1046 14.8954 34 16 34H32ZM26 38V54H42V46C42 43.7909 43.7909 42 46 42H54V26H38V34C38 36.2091 36.2091 38 34 38H26ZM46 64C46 65.1046 46.8954 66 48 66H64C65.1046 66 66 65.1046 66 64V48C66 46.8954 65.1046 46 64 46H48C46.8954 46 46 46.8954 46 48V64Z" stroke="currentColor" stroke-linecap="round" stroke-linejoin="round" />
</svg>