<svg viewBox="0 0 80 80" fill="none">
  <path d="M41.4152 47.9312C41.4221 49.0298 42.3149 49.9183 43.4151 49.9183L48.7363 49.9183L48.3731 50.4623L48.3713 50.4651L38.5378 65.1966V55.0814C38.5378 53.9768 37.6424 53.0814 36.5378 53.0814H31.2167L41.4151 37.803V47.9183M41.4152 47.9312C41.4151 47.9269 41.4151 47.9226 41.4151 47.9183M41.4152 47.9312L41.4151 47.9183M55.9505 13.8149C52.7774 12.0167 48.9947 11.5288 45.4261 12.4674C41.8139 13.4175 38.7312 15.7474 36.8595 18.9295L36.074 20.2651C35.5413 21.1707 34.3988 21.5098 33.4584 21.0414C32.9132 20.7698 32.3379 20.551 31.7399 20.3908C29.4195 19.7689 26.9567 20.0816 24.8953 21.2499C22.8352 22.4174 21.3438 24.3433 20.7397 26.5987C20.66 26.8963 20.5965 27.1966 20.5492 27.4983C20.4134 28.3634 19.7307 29.0396 18.8643 29.1669C16.7034 29.4846 14.6836 30.4791 13.1066 32.0271L13.0245 32.1077C11.0899 34.0067 10 36.6038 10 39.3146C10 42.0255 11.0899 44.6225 13.0245 46.5215L13.1067 46.6022C15.0462 48.506 17.6554 49.5726 20.3731 49.5726H23.2129L23.2203 49.5726H28.7495L40.6611 31.7279C42.0863 29.5927 45.4151 30.6016 45.4151 33.1688V45.9183L51.3627 45.9183C53.2865 45.9183 54.4895 47.9079 53.734 49.5726H56.7442C56.7665 49.5719 56.7888 49.5715 56.8111 49.5715H59.6269C62.3446 49.5715 64.9538 48.5049 66.8933 46.6011L66.9755 46.5205C68.9101 44.6215 70 42.0244 70 39.3136C70 36.6027 68.9101 34.0057 66.9755 32.1067L66.8933 32.026C66.027 31.1756 65.0271 30.4923 63.9435 29.9964C63.1238 29.6213 62.6564 28.7443 62.802 27.8547C63.1125 25.9576 63.0188 24.0037 62.5048 22.1205C61.5562 18.6454 59.25 15.6848 56.0783 13.8873L55.9505 13.8149ZM26.1581 53.5726H23.2203L23.2129 53.5726H20.3731C16.6074 53.5726 12.992 52.0947 10.3046 49.4568L10.2224 49.3761C7.52158 46.7249 6 43.0992 6 39.3146C6 35.53 7.52158 31.9043 10.2224 29.2531L10.3046 29.1725C12.1491 27.362 14.4306 26.098 16.8978 25.4831C17.7954 22.2178 19.963 19.4474 22.9231 17.7699C25.9062 16.0793 29.4501 15.636 32.7753 16.5271C33.0211 16.593 33.2644 16.6658 33.5047 16.7453C35.9247 12.7252 39.8433 9.79972 44.4086 8.59895C48.9773 7.39732 53.8337 8.01762 57.9227 10.3349L58.0505 10.4073C62.1407 12.7254 65.1318 16.5548 66.3636 21.0671C66.8997 23.0312 67.083 25.0533 66.9256 27.0466C67.9237 27.635 68.855 28.3465 69.6954 29.1714L69.7776 29.2521C72.4784 31.9033 74 35.529 74 39.3136C74 43.0982 72.4784 46.7239 69.7775 49.375L69.6954 49.4557C67.008 52.0936 63.3926 53.5715 59.6269 53.5715H56.8545C56.8302 53.5723 56.8057 53.5726 56.7813 53.5726H51.1062L39.2919 71.2718C37.8666 73.4069 34.5378 72.3981 34.5378 69.8309V57.0814L28.5903 57.0814C26.7223 57.0814 25.5338 55.2055 26.1581 53.5726Z" stroke="currentColor" stroke-linecap="round" stroke-linejoin="round" />
</svg>