<svg width="80" height="80" viewBox="0 0 80 80" fill="none" xmlns="http://www.w3.org/2000/svg">
  <path fill-rule="evenodd" clip-rule="evenodd" d="M50.001 56.5146V60.001C50.001 60.6855 49.915 61.3499 49.7533 61.9841C49.7507 61.9945 49.748 62.005 49.7452 62.0154C48.8521 65.4585 45.7235 68.001 42.001 68.001H38.001C33.5827 68.001 30.001 64.4193 30.001 60.001V54.4313C30.001 52.9505 29.1001 51.4417 27.5745 50.277C24.7281 48.104 22.4754 45.2023 21.0812 41.8365C19.0029 36.8189 19.0029 31.1812 21.0812 26.1636C23.1596 21.146 27.146 17.1596 32.1636 15.0812C37.1812 13.0029 42.8189 13.0029 47.8365 15.0812C52.8541 17.1596 56.8405 21.146 58.9189 26.1636C60.9972 31.1812 60.9972 36.8189 58.9189 41.8365C57.525 45.2017 55.2727 48.1031 52.427 50.276C50.9017 51.4406 50.001 52.9493 50.001 54.4299V56.4855C50.001 56.4904 50.001 56.4952 50.001 56.5001C50.001 56.5049 50.001 56.5097 50.001 56.5146ZM33.6944 18.7767C37.7318 17.1044 42.2683 17.1044 46.3058 18.7767C50.3432 20.4491 53.551 23.6569 55.2234 27.6944C56.8957 31.7318 56.8957 36.2683 55.2234 40.3058C54.1018 43.0135 52.2896 45.3481 49.9995 47.0968C47.8577 48.7322 46.001 51.2966 46.001 54.4299V54.5001H34.001V54.4313C34.001 51.2976 32.1439 48.733 30.0018 47.0976C27.7111 45.3489 25.8985 43.014 24.7767 40.3058C23.1044 36.2683 23.1044 31.7318 24.7767 27.6944C26.4491 23.6569 29.6569 20.4491 33.6944 18.7767ZM34.001 58.5001V59.5001H46.001V58.5001H34.001ZM43.9406 63.5001H36.0613C36.6358 63.8192 37.2972 64.001 38.001 64.001H42.001C42.7048 64.001 43.3661 63.8192 43.9406 63.5001Z" stroke="currentColor" stroke-linecap="round" stroke-linejoin="round" />
</svg>