<svg viewBox="0 0 80 80" fill="none">
  <path fill-rule="evenodd" clip-rule="evenodd" d="M42 34C42 32.8954 42.8954 32 44 32H62C63.6569 32 65 33.3431 65 35V42C65 45.3137 62.3137 48 59 48C55.6863 48 53 45.3137 53 42V36H44C42.8954 36 42 35.1046 42 34ZM57 36V42C57 43.1046 57.8954 44 59 44C60.1046 44 61 43.1046 61 42V36H57Z" stroke="currentColor" stroke-linecap="round" stroke-linejoin="round" />
  <path d="M18 32C16.8954 32 16 32.8954 16 34C16 35.1046 16.8954 36 18 36H26C27.1046 36 28 35.1046 28 34C28 32.8954 27.1046 32 26 32H18Z" stroke="currentColor" stroke-linecap="round" stroke-linejoin="round" />
  <path fill-rule="evenodd" clip-rule="evenodd" d="M23 18C13.6112 18 6 25.6112 6 35V59.9425C6 61.0788 6.92119 62 8.05754 62H71.9505C73.0824 62 74 61.0824 74 59.9504V36C74 26.0589 65.9411 18 56 18H24C23.8306 18 23.6616 18.0023 23.4931 18.007C23.3293 18.0023 23.1649 18 23 18ZM34.3596 22.3523C34.2266 22.2328 34.0917 22.1153 33.955 22H56C63.732 22 70 28.268 70 36V58H40L40 35C40 30.3056 38.0972 26.0556 35.0208 22.9792C34.806 22.7644 34.5855 22.5554 34.3596 22.3523ZM35.7359 32.38C34.5237 26.4562 29.2822 22 23 22C15.8203 22 10 27.8203 10 35V58H36V35C36 34.5553 35.9777 34.1157 35.9341 33.6825C35.8897 33.2415 35.8232 32.8069 35.7359 32.38Z" stroke="currentColor" stroke-linecap="round" stroke-linejoin="round" />
</svg>