<svg width="80" height="80" viewBox="0 0 80 80" fill="none" xmlns="http://www.w3.org/2000/svg">
  <path fill-rule="evenodd" clip-rule="evenodd" d="M34.9103 23.9326C38.1308 22.4016 41.8693 22.4016 45.0897 23.9326L45.1836 23.9772C48.3907 25.5019 50.7264 28.4072 51.5263 31.867C52.3338 35.3594 51.4716 39.0408 49.2257 41.8211C47.0011 44.5748 43.6334 46.1994 40.0833 46.1994H39.9168C36.3666 46.1994 32.9989 44.5748 30.7744 41.8211C28.5284 39.0408 27.6663 35.3594 28.4737 31.867C29.2737 28.4072 31.6093 25.5019 34.8164 23.9772L34.9103 23.9326ZM43.3723 27.5451C41.2385 26.5307 38.7615 26.5307 36.6277 27.5451L36.5338 27.5898C34.4289 28.5905 32.8959 30.4973 32.3709 32.7681C31.8429 35.0518 32.4064 37.476 33.8859 39.3075C35.3575 41.1291 37.5852 42.1994 39.9168 42.1994H40.0833C42.4148 42.1994 44.6425 41.1291 46.1141 39.3075C47.5936 37.476 48.1571 35.0518 47.6291 32.7681C47.1041 30.4973 45.5712 28.5905 43.4662 27.5898L43.3723 27.5451Z" stroke="currentColor" stroke-linecap="round" stroke-linejoin="round" />
  <path fill-rule="evenodd" clip-rule="evenodd" d="M29.5683 14.7625C36.1663 11.6137 43.8337 11.6137 50.4317 14.7625C57.0965 17.9433 61.9472 24.0006 63.6042 31.195C65.2215 38.2171 63.6362 45.6058 59.2717 51.342L57.2843 53.9541C56.2535 55.3089 55.1092 56.5735 53.8638 57.7343L44.9952 66.0001H64C65.1046 66.0001 66 66.8956 66 68.0001C66 69.1047 65.1046 70.0001 64 70.0001H16C14.8954 70.0001 14 69.1047 14 68.0001C14 66.8956 14.8954 66.0001 16 66.0001H35.0048L26.1362 57.7343C24.8908 56.5735 23.7465 55.3089 22.7157 53.9541L20.7283 51.342C16.3638 45.6058 14.7785 38.2171 16.3958 31.195C18.0528 24.0006 22.9035 17.9433 29.5683 14.7625ZM40 65.1878L51.1366 54.8081C52.2159 53.8022 53.2076 52.7062 54.101 51.532L56.0884 48.92C59.7323 44.1309 61.0573 37.9589 59.7062 32.0928C58.3225 26.0847 54.2712 21.0271 48.7089 18.3725C43.2005 15.7437 36.7995 15.7437 31.2911 18.3725C25.7288 21.0271 21.6775 26.0847 20.2938 32.0928C18.9427 37.9589 20.2677 44.1309 23.9116 48.92L25.899 51.532C26.7924 52.7062 27.7841 53.8022 28.8635 54.8082L40 65.1878Z" stroke="currentColor" stroke-linecap="round" stroke-linejoin="round" />
</svg>