<svg width="80" height="80" viewBox="0 0 80 80" fill="none" xmlns="http://www.w3.org/2000/svg">
  <path fill-rule="evenodd" clip-rule="evenodd" d="M16.5516 32.9032C16.5516 20.1258 26.9098 9.76758 39.6873 9.76758H40.3128C53.0903 9.76758 63.4485 20.1258 63.4485 32.9032C63.4485 37.9557 61.7945 42.8692 58.7393 46.8933L41.6354 69.4211C40.8137 70.5033 39.1864 70.5033 38.3648 69.4212L21.2608 46.8933C18.2056 42.8692 16.5516 37.9557 16.5516 32.9032ZM39.6873 13.7676C29.1189 13.7676 20.5516 22.3349 20.5516 32.9032C20.5516 37.0821 21.9196 41.1462 24.4466 44.4745L40 64.9601L55.5535 44.4745C58.0805 41.1461 59.4485 37.0821 59.4485 32.9032C59.4485 22.3349 50.8812 13.7676 40.3128 13.7676H39.6873Z" stroke="currentColor" stroke-linecap="round" stroke-linejoin="round" />
</svg>