<svg width="80" height="80" viewBox="0 0 80 80" fill="none" xmlns="http://www.w3.org/2000/svg">
  <path fill-rule="evenodd" clip-rule="evenodd" d="M45.0898 23.9326C41.8694 22.4016 38.1308 22.4016 34.9104 23.9326L34.8165 23.9772C31.6094 25.5019 29.2738 28.4072 28.4738 31.867C27.6664 35.3594 28.5285 39.0408 30.7745 41.8211C32.999 44.5748 36.3667 46.1994 39.9169 46.1994H40.0834C43.6335 46.1994 47.0012 44.5748 49.2257 41.8211C51.4717 39.0408 52.3339 35.3594 51.5264 31.867C50.7265 28.4072 48.3908 25.5019 45.1837 23.9772L45.0898 23.9326ZM36.6278 27.5451C38.7616 26.5307 41.2386 26.5307 43.3724 27.5451L43.4663 27.5898C45.5712 28.5905 47.1042 30.4973 47.6292 32.7681C48.1572 35.0518 47.5937 37.476 46.1142 39.3075C44.6426 41.1291 42.4149 42.1994 40.0834 42.1994H39.9169C37.5853 42.1994 35.3576 41.1291 33.886 39.3075C32.4065 37.476 31.843 35.0518 32.371 32.7681C32.896 30.4973 34.429 28.5905 36.5339 27.5898L36.6278 27.5451Z" stroke="currentColor" stroke-linecap="round" stroke-linejoin="round" />
  <path fill-rule="evenodd" clip-rule="evenodd" d="M50.4318 14.7625C43.8338 11.6137 36.1664 11.6137 29.5684 14.7625C22.9036 17.9433 18.0529 24.0006 16.3959 31.195C14.7786 38.2171 16.3639 45.6058 20.7284 51.342L22.7158 53.9541C23.7466 55.3089 24.8909 56.5735 26.1363 57.7343L38.1035 68.8882C39.1463 69.9424 40.8539 69.9424 41.8967 68.8882L53.8639 57.7343C55.1093 56.5735 56.2536 55.3089 57.2844 53.9541L59.2718 51.342C63.6363 45.6058 65.2215 38.2171 63.6043 31.195C61.9473 24.0006 57.0966 17.9433 50.4318 14.7625ZM51.1366 54.8081L40.0001 65.1878L28.8635 54.8082C27.7842 53.8022 26.7925 52.7062 25.8991 51.532L23.9117 48.92C20.2678 44.1309 18.9428 37.9589 20.2939 32.0928C21.6776 26.0847 25.7289 21.0271 31.2912 18.3725C36.7996 15.7437 43.2006 15.7437 48.7089 18.3725C54.2713 21.0271 58.3226 26.0847 59.7063 32.0928C61.0574 37.9589 59.7324 44.1309 56.0885 48.92L54.1011 51.532C53.2077 52.7062 52.216 53.8022 51.1366 54.8081Z" stroke="currentColor" stroke-linecap="round" stroke-linejoin="round" />
</svg>