<svg viewBox="0 0 80 80" fill="none">
  <path fill-rule="evenodd" clip-rule="evenodd" d="M51 21C51 14.9249 46.0751 10 40 10C33.9249 10 29 14.9249 29 21V39C29 45.0751 33.9249 50 40 50C46.0751 50 51 45.0751 51 39V21ZM40 14C36.134 14 33 17.134 33 21V39C33 42.866 36.134 46 40 46C43.866 46 47 42.866 47 39H40C38.8954 39 38 38.1046 38 37C38 35.8954 38.8954 35 40 35H47V32H40C38.8954 32 38 31.1046 38 30C38 28.8954 38.8954 28 40 28H47V25H40C38.8954 25 38 24.1046 38 23C38 21.8954 38.8954 21 40 21H47C47 17.134 43.866 14 40 14Z" stroke="currentColor" stroke-linecap="round" stroke-linejoin="round" />
  <path d="M24 29C25.1046 29 26 29.8954 26 31V39C26 46.732 32.268 53 40 53C47.732 53 54 46.732 54 39V31C54 29.8954 54.8954 29 56 29C57.1046 29 58 29.8954 58 31V39C58 48.2651 50.9999 55.8953 42 56.8901V66H50C51.1046 66 52 66.8954 52 68C52 69.1046 51.1046 70 50 70H30C28.8954 70 28 69.1046 28 68C28 66.8954 28.8954 66 30 66H38V56.8901C29.0001 55.8953 22 48.2651 22 39V31C22 29.8954 22.8954 29 24 29Z" stroke="currentColor" stroke-linecap="round" stroke-linejoin="round" />
</svg>