<svg width="80" height="80" viewBox="0 0 80 80" fill="none" xmlns="http://www.w3.org/2000/svg">
  <path d="M49.6982 17.9876C49.6983 17.9876 49.6983 17.9887 49.6981 17.9909M49.6981 62.0123C49.6981 62.0124 49.698 62.0113 49.698 62.009M30.865 17.9482C36.7135 15.5257 43.2848 15.5257 49.1332 17.9482C49.3003 18.0175 49.4665 18.0885 49.6316 18.1613C49.6106 18.1955 49.5844 18.2306 49.5527 18.264C49.4791 18.3417 49.3974 18.3887 49.315 18.4104C48.3467 18.6654 47.3915 18.9866 46.4561 19.3741C40.9858 21.64 36.6396 25.9861 34.3737 31.4565C32.1078 36.9268 32.1078 43.0732 34.3737 48.5435C36.6396 54.0139 40.9858 58.36 46.4561 60.6259C47.3914 61.0134 48.3467 61.3346 49.3149 61.5896C49.3973 61.6113 49.4791 61.6583 49.5526 61.7359C49.5843 61.7694 49.6105 61.8045 49.6315 61.8387C49.4664 61.9115 49.3003 61.9825 49.1332 62.0517C43.2848 64.4742 36.7135 64.4742 30.865 62.0517C25.0165 59.6292 20.3699 54.9826 17.9474 49.1341C15.5249 43.2856 15.5249 36.7143 17.9474 30.8658C20.3699 25.0174 25.0165 20.3708 30.865 17.9482ZM50.664 14.2527C43.8354 11.4242 36.1629 11.4242 29.3343 14.2527C22.5057 17.0812 17.0804 22.5065 14.2519 29.3351C11.4234 36.1637 11.4234 43.8362 14.2519 50.6648C17.0804 57.4934 22.5057 62.9187 29.3343 65.7472C36.1629 68.5757 43.8354 68.5757 50.664 65.7472C50.9526 65.6277 51.2387 65.5035 51.5222 65.3748C52.4135 64.9701 53.0756 64.285 53.4244 63.43C53.7605 62.6061 53.7585 61.7463 53.5712 61.0011C53.2061 59.5482 52.0435 58.1717 50.3335 57.7214C49.5388 57.5122 48.7548 57.2485 47.9868 56.9304C43.4966 55.0705 39.9291 51.503 38.0692 47.0128C36.2093 42.5226 36.2093 37.4774 38.0692 32.9872C39.9291 28.497 43.4966 24.9295 47.9868 23.0696C48.7548 22.7515 49.5389 22.4878 50.3336 22.2786C52.0435 21.8283 53.2062 20.4518 53.5713 18.9989C53.7586 18.2537 53.7606 17.3939 53.4245 16.57C53.0757 15.715 52.4135 15.0299 51.5223 14.6252C51.2388 14.4965 50.9526 14.3723 50.664 14.2527Z" stroke="currentColor" stroke-linecap="round" stroke-linejoin="round" />
</svg>