<svg width="80" height="80" viewBox="0 0 80 80" fill="none" xmlns="http://www.w3.org/2000/svg">
  <path fill-rule="evenodd" clip-rule="evenodd" d="M43.7331 11.1354C42.4182 7.7166 37.5813 7.71659 36.2663 11.1354L20.4302 52.3092C19.0799 55.8202 22.8822 59.0844 26.1482 57.2181L32.9997 53.303L32.9997 67.1723C32.9997 69.3815 34.7905 71.1723 36.9997 71.1723H42.9997C45.2088 71.1723 46.9997 69.3815 46.9997 67.1723L46.9997 53.3039L53.8518 57.2194C57.1178 59.0857 60.92 55.8214 59.5697 52.3105L43.7331 11.1354ZM39.9997 12.5713L55.8363 53.7464L45.9919 48.1211C45.3729 47.7674 44.6124 47.7699 43.9958 48.1278C43.3792 48.4856 42.9997 49.1446 42.9997 49.8576L42.9997 67.1723H36.9997V49.8566C36.9997 49.1437 36.6202 48.4846 36.0035 48.1268C35.3869 47.7689 34.6264 47.7664 34.0074 48.1201L24.1636 53.7451L39.9997 12.5713Z" stroke="currentColor" stroke-linecap="round" stroke-linejoin="round" />
</svg>