<svg width="80" height="80" viewBox="0 0 80 80" fill="none" xmlns="http://www.w3.org/2000/svg">
  <path fill-rule="evenodd" clip-rule="evenodd" d="M32.2698 38.8188C33.6417 38.1899 34.7287 37.0646 35.3084 35.6651C35.9165 34.1969 35.9165 32.5473 35.3084 31.0791C34.7002 29.6109 33.5338 28.4445 32.0656 27.8363C30.6638 27.2557 29.0965 27.2294 27.6798 27.7576C27.6358 27.774 27.592 27.7909 27.5483 27.8084C27.5252 27.8176 27.5023 27.8269 27.4793 27.8364C26.0111 28.4446 24.8447 29.611 24.2365 31.0792C23.6284 32.5474 23.6284 34.197 24.2365 35.6652C24.8447 37.1334 26.0111 38.2999 27.4793 38.908C28.9346 39.5108 30.5682 39.5161 32.0267 38.9238L32.0656 38.9079L32.2698 38.8188ZM29.0919 31.6069C29.0774 31.6125 29.063 31.6183 29.0486 31.6242C28.585 31.8162 28.2167 32.1846 28.0247 32.6481C27.8327 33.1117 27.8327 33.6325 28.0247 34.0961C28.2167 34.5597 28.585 34.928 29.0486 35.12C29.4831 35.3 29.9679 35.3113 30.4087 35.1538C30.4381 35.1433 30.4673 35.1321 30.4963 35.1201C30.9599 34.9281 31.3282 34.5598 31.5202 34.0962C31.7122 33.6326 31.7122 33.1118 31.5202 32.6482C31.3282 32.1847 30.9599 31.8164 30.4963 31.6243C30.0472 31.4383 29.5444 31.4325 29.0919 31.6069Z" stroke="currentColor" stroke-linecap="round" stroke-linejoin="round" />
  <path fill-rule="evenodd" clip-rule="evenodd" d="M40.1719 33.1477C39.9475 33.6895 39.7785 34.2478 39.665 34.8144C39.5901 35.1883 39.5394 35.5657 39.5127 35.9445C39.4164 37.3153 39.6361 38.7031 40.1719 39.9966C41.08 42.1892 42.822 43.9312 45.0146 44.8394C47.2072 45.7476 49.6708 45.7476 51.8634 44.8394C54.056 43.9312 55.798 42.1892 56.7062 39.9966C56.8197 39.7225 56.919 39.4442 57.0042 39.1627C57.228 38.4228 57.3537 37.6609 57.3814 36.8964C57.4275 35.6249 57.2024 34.3458 56.7062 33.1477C55.798 30.9552 54.056 29.2132 51.8634 28.305C49.6708 27.3968 47.2072 27.3968 45.0147 28.305C42.8221 29.2132 41.0801 30.9552 40.1719 33.1477ZM50.2944 32.093C49.1064 31.6009 47.7716 31.6009 46.5836 32.093C45.3957 32.585 44.4518 33.5289 43.9598 34.7169C43.9113 34.8339 43.8676 34.9523 43.8287 35.0719C43.7194 35.4076 43.6478 35.7523 43.6138 36.0998C43.5369 36.8852 43.6522 37.685 43.9598 38.4275C44.4519 39.6154 45.3957 40.5593 46.5837 41.0514C47.7716 41.5434 49.1064 41.5434 50.2944 41.0514C51.4824 40.5593 52.4262 39.6154 52.9183 38.4275C52.9554 38.3379 52.9897 38.2474 53.0212 38.1563C53.1464 37.7943 53.2274 37.4211 53.2642 37.0447C53.3411 36.2592 53.2258 35.4593 52.9182 34.7169C52.4262 33.5289 51.4823 32.585 50.2944 32.093Z" stroke="currentColor" stroke-linecap="round" stroke-linejoin="round" />
  <path fill-rule="evenodd" clip-rule="evenodd" d="M45.9611 52.0502H61.8929C65.5384 52.0502 70.3285 50.494 71.5 45.8717C72.8961 40.3636 70.8671 34.083 65.3758 30.691L61.5762 28.344C60.5953 27.7381 59.7059 26.8991 58.8021 25.8959C58.2274 25.2579 57.6197 24.6503 56.9817 24.0755C55.9785 23.1717 55.1395 22.2823 54.5337 21.3015L52.1867 17.5019C46.7907 8.76628 34.087 8.7663 28.691 17.5019L26.3439 21.3016C25.7381 22.2824 24.8991 23.1718 23.8959 24.0756C23.258 24.6503 22.6504 25.2579 22.0757 25.8959C21.1719 26.8991 20.2825 27.7381 19.3016 28.3439L15.5019 30.691C10.0106 34.083 7.98155 40.3637 9.37765 45.8717C10.5492 50.494 15.3393 52.0502 18.9848 52.0502H33.8611V60.8345C33.8611 61.5338 33.6754 62.2206 33.3231 62.8247L32.3672 64.4634C31.1811 66.4967 32.6477 69.0502 35.0017 69.0502H45.5196C47.8736 69.0502 49.3402 66.4967 48.1541 64.4634L46.4992 61.6263C46.1468 61.0223 45.9611 60.3354 45.9611 59.6361V52.0502ZM48.6985 19.6566C44.9047 13.5147 35.973 13.5147 32.1792 19.6566L29.8321 23.4563C28.9311 24.915 27.7674 26.1062 26.6402 27.1217C26.1081 27.6011 25.6012 28.108 25.1218 28.6401C24.1063 29.7673 22.915 30.931 21.4563 31.8321L17.6565 34.1792C13.8074 36.5568 12.3602 40.9514 13.352 44.8644C13.8156 46.6934 15.9749 47.9502 18.9848 47.9502H61.8929C64.9027 47.9502 67.0621 46.6934 67.5257 44.8644C68.5175 40.9514 67.0702 36.5568 63.2211 34.1792L59.4215 31.8322C57.9627 30.9311 56.7715 29.7674 55.756 28.6402C55.2765 28.108 54.7696 27.6011 54.2375 27.1217C53.1103 26.1062 51.9465 24.9149 51.0455 23.4561L48.6985 19.6566ZM41.8611 52.0502H37.9611V60.8345C37.9611 62.2597 37.5827 63.6595 36.8645 64.8906L36.8298 64.9502H43.6915L42.9577 63.6922C42.2395 62.4611 41.8611 61.0613 41.8611 59.6361V52.0502Z" stroke="currentColor" stroke-linecap="round" stroke-linejoin="round" />
</svg>