<svg width="80" height="80" viewBox="0 0 80 80" fill="none" xmlns="http://www.w3.org/2000/svg">
  <path fill-rule="evenodd" clip-rule="evenodd" d="M38 27.6923C35.7908 27.6923 34 29.4831 34 31.6923L34 36L29.6922 36.0001C27.483 36.0001 25.6922 37.7909 25.6922 40.0001V44.0001C25.6922 46.2092 27.483 48.0001 29.6922 48.0001H34V52.3077C34 54.5168 35.7908 56.3077 38 56.3077H42C44.2091 56.3077 46 54.5168 46 52.3077V48.0001H50.3076C52.5167 48.0001 54.3076 46.2092 54.3076 44.0001V40.0001C54.3076 37.7909 52.5167 36.0001 50.3076 36.0001H46L46 31.6923C46 29.4831 44.2091 27.6923 42 27.6923L38 27.6923ZM38 31.6923L42 31.6923L42 37.9615C42 39.0874 42.9127 40.0001 44.0386 40.0001H50.3076V44.0001L44.0383 44.0001C42.9126 44.0001 42 44.9127 42 46.0384V52.3077H38V46.0384C38 44.9127 37.0874 44.0001 35.9616 44.0001H29.6922V40.0001H35.9614C37.0873 40.0001 38 39.0874 38 37.9615L38 31.6923Z" stroke="currentColor" stroke-linecap="round" stroke-linejoin="round" />
  <path fill-rule="evenodd" clip-rule="evenodd" d="M46 7H44.8293C44.4175 5.83481 43.3062 5 42 5H38C36.6938 5 35.5825 5.83481 35.1707 7H34C31.3876 7 29.1651 8.66962 28.3414 11H22C18.6863 11 16 13.6863 16 17V65C16 68.3137 18.6863 71 22 71H58C61.3137 71 64 68.3137 64 65V17C64 13.6863 61.3137 11 58 11H51.6586C50.8349 8.66962 48.6124 7 46 7ZM34 11H46C47.1046 11 48 11.8954 48 13C48 14.1046 47.1046 15 46 15H34C32.8954 15 32 14.1046 32 13C32 11.8954 32.8954 11 34 11ZM28.3414 15H22C20.8954 15 20 15.8954 20 17V65C20 66.1046 20.8954 67 22 67H58C59.1046 67 60 66.1046 60 65V17C60 15.8954 59.1046 15 58 15H51.6586C50.8349 17.3304 48.6124 19 46 19H34C31.5147 19 29.3824 17.489 28.4715 15.3355C28.4249 15.2253 28.3815 15.1134 28.3414 15Z" stroke="currentColor" stroke-linecap="round" stroke-linejoin="round" />
</svg>