<svg width="80" height="80" viewBox="0 0 80 80" fill="none" xmlns="http://www.w3.org/2000/svg">
  <path fill-rule="evenodd" clip-rule="evenodd" d="M24.236 14.0138C24.1586 14.0047 24.0798 14 24 14C22.8954 14 22 14.8954 22 16L22 64C22 65.1046 22.8954 66 24 66C25.1046 66 26 65.1046 26 64L26 42H44C51.732 42 58 35.732 58 28C58 20.268 51.732 14 44 14L24.5 14C24.4108 14 24.3227 14.0047 24.236 14.0138ZM26 18L26 38H44C49.5228 38 54 33.5228 54 28C54 22.4772 49.5228 18 44 18L26 18Z" stroke="currentColor" stroke-linecap="round" stroke-linejoin="round" />
</svg>