<svg width="80" height="80" viewBox="0 0 80 80" fill="none" xmlns="http://www.w3.org/2000/svg">
  <path d="M32 44.0003C32 42.8957 32.8954 42.0003 34 42.0003H46C47.1046 42.0003 48 42.8957 48 44.0003C48 45.1049 47.1046 46.0003 46 46.0003H34C32.8954 46.0003 32 45.1049 32 44.0003Z" stroke="currentColor" stroke-linecap="round" stroke-linejoin="round" />
  <path fill-rule="evenodd" clip-rule="evenodd" d="M62 42.0003V31.6607C62 30.0692 61.3677 28.543 60.2423 27.4177L60.0872 27.2627C60.059 27.2321 60.0299 27.2018 60 27.1719L46.8284 14.0003C46.7897 13.9616 46.7505 13.9244 46.7106 13.8886L46.584 13.7619C45.4589 12.6371 43.9333 12.0051 42.3424 12.0049L24.0007 12.0029C20.6867 12.0026 18 14.689 18 18.0029L18 42.0003H12C10.8954 42.0003 10 42.8957 10 44.0003C10 45.1049 10.8954 46.0003 12 46.0003H18V62.0025C18 65.3162 20.6863 68.0025 24 68.0025H56C59.3137 68.0025 62 65.3162 62 62.0025V46.0003H68C69.1046 46.0003 70 45.1049 70 44.0003C70 42.8957 69.1046 42.0003 68 42.0003H62ZM24.0002 16.0029C22.8956 16.0028 22 16.8983 22 18.0029L22 42.0003H24C25.1046 42.0003 26 42.8957 26 44.0003C26 45.1049 25.1046 46.0003 24 46.0003H22L22 62.0025C22 63.1071 22.8954 64.0025 24 64.0025H56C57.1046 64.0025 58 63.1071 58 62.0025V46.0003H56C54.8954 46.0003 54 45.1049 54 44.0003C54 42.8957 54.8954 42.0003 56 42.0003H58V32.001H48C44.7346 32.001 42.0784 29.3924 42.0017 26.1454C42.0006 26.0974 42 26.0492 42 26.001V16.0049L24.0002 16.0029ZM48 28.0003C46.8954 28.0003 46 27.1048 46 26.0003V18.8287L55.1716 28.0003H48Z" stroke="currentColor" stroke-linecap="round" stroke-linejoin="round" />
</svg>