<svg width="80" height="80" viewBox="0 0 80 80" fill="none" xmlns="http://www.w3.org/2000/svg">
  <path d="M26.1128 17.1127C26.1128 11.0375 31.0377 6.11267 37.1128 6.11267C43.1879 6.11267 48.1128 11.0375 48.1128 17.1127V53.1127C48.1128 57.5309 44.5311 61.1127 40.1128 61.1127C35.6945 61.1127 32.1128 57.5309 32.1128 53.1127V24.6127C32.1128 23.5081 33.0082 22.6127 34.1128 22.6127C35.2174 22.6127 36.1128 23.5081 36.1128 24.6127V53.1127C36.1128 55.3218 37.9037 57.1127 40.1128 57.1127C42.3219 57.1127 44.1128 55.3218 44.1128 53.1127V17.1127C44.1128 13.2467 40.9788 10.1127 37.1128 10.1127C33.2468 10.1127 30.1128 13.2467 30.1128 17.1127V60.1127C30.1128 65.6355 34.5899 70.1127 40.1128 70.1127C45.6356 70.1127 50.1128 65.6355 50.1128 60.1127V24.6127C50.1128 23.5081 51.0082 22.6127 52.1128 22.6127C53.2174 22.6127 54.1128 23.5081 54.1128 24.6127V60.1127C54.1128 67.8447 47.8448 74.1127 40.1128 74.1127C32.3808 74.1127 26.1128 67.8447 26.1128 60.1127V17.1127Z" stroke="currentColor" stroke-linecap="round" stroke-linejoin="round" />
</svg>