<svg viewBox="0 0 80 80" fill="none">
  <path fill-rule="evenodd" clip-rule="evenodd" d="M30 72.1084C30 75.4245 32.6883 78.1128 36.0044 78.1128H44.0044C47.3157 78.1128 50 75.4285 50 72.1172V62.1128H52.0078C54.217 62.1128 56.0078 60.3219 56.0078 58.1128V36.1128C56.0078 35.0082 55.1124 34.1128 54.0078 34.1128C52.9032 34.1128 52.0078 35.0082 52.0078 36.1128V58.1128H50V24.3578C50 17.2717 47.5884 10.3967 43.1617 4.86338L42.3617 3.86338C41.151 2.3499 38.849 2.3499 37.6383 3.86338L36.8383 4.86338C32.4116 10.3967 30 17.2717 30 24.3578V72.1084ZM36.0044 74.1128C34.8974 74.1128 34 73.2154 34 72.1084V62.1128H46V72.1172C46 73.2193 45.1065 74.1128 44.0044 74.1128H36.0044ZM46 58.1128V24.3578C46 18.18 43.8975 12.1862 40.0383 7.36216L40 7.31433L39.9617 7.36216C36.1025 12.1862 34 18.18 34 24.3578V58.1128H46Z" stroke="currentColor" stroke-linecap="round" stroke-linejoin="round" />
</svg>