<svg width="80" height="80" viewBox="0 0 80 80" fill="none" xmlns="http://www.w3.org/2000/svg">
  <path fill-rule="evenodd" clip-rule="evenodd" d="M31.5225 32.9187L29.4191 29.7637C27.0769 26.2503 26.8236 21.7433 28.7573 17.9896L35.5389 4.82536C36.0668 3.80054 36.9232 3.01247 37.9411 2.56289V2.14111H41.9411V2.56289C42.9591 3.01247 43.8155 3.80054 44.3434 4.82536L51.125 17.9896C53.0587 21.7433 52.8054 26.2503 50.4631 29.7637L48.3549 32.926C48.4485 33.1635 48.5142 33.4157 48.5479 33.6791L52.4012 63.7832C53.3625 71.2934 47.5114 77.9411 39.94 77.9411C32.3695 77.9411 26.5187 71.2949 27.4785 63.7855L31.3265 33.6795C31.3605 33.4132 31.4273 33.1584 31.5225 32.9187ZM44.8708 30.9411L47.1349 27.5449C48.6714 25.2402 48.8376 22.2837 47.5691 19.8214L41.9411 8.89657L41.9411 18.2151C42.6618 18.5799 43.2979 19.1552 43.7516 19.9411C45.4451 22.8744 43.3282 26.5411 39.9411 26.5411C36.554 26.5411 34.437 22.8744 36.1306 19.9411C36.5843 19.1552 37.2204 18.5799 37.9411 18.2151L37.9411 8.89658L32.3132 19.8214C31.0447 22.2837 31.2109 25.2402 32.7473 27.5449L35.0115 30.9411H44.8708ZM35.1978 34.9411L34.9422 36.9411H44.9328L44.6768 34.9411H35.1978ZM39.5947 21.9411C39.6716 21.8078 39.8063 21.7411 39.941 21.7411C40.0757 21.7411 40.2105 21.8078 40.2875 21.9411C40.4414 22.2078 40.249 22.5411 39.9411 22.5411C39.6332 22.5411 39.4407 22.2078 39.5947 21.9411ZM39.94 73.9411C45.1007 73.9411 49.0888 69.41 48.4336 64.2911L45.4448 40.9411H34.4309L31.4462 64.2926C30.792 69.411 34.7799 73.9411 39.94 73.9411Z" stroke="currentColor" stroke-linecap="round" stroke-linejoin="round" />
</svg>