<svg width="80" height="80" viewBox="0 0 80 80" fill="none" xmlns="http://www.w3.org/2000/svg">
  <path fill-rule="evenodd" clip-rule="evenodd" d="M13 14C14.1046 14 15 14.8954 15 16V16.0548L35.918 22.7784C37.1587 23.1772 38 24.3313 38 25.6345V26.4483L66.6502 35.6573C69.4261 36.5496 69.4261 40.4772 66.6502 41.3695L37.918 50.6048C36.3379 51.1127 34.7279 50.2446 34.1888 48.8028L15 54.9706V64C15 65.1046 14.1046 66 13 66C11.8954 66 11 65.1046 11 64V16C11 14.8954 11.8954 14 13 14ZM15 50.7691V20.2563L34 26.3635V27.1773C34 27.2391 34.0019 27.3005 34.0056 27.3616C34.0019 27.4114 34 27.4619 34 27.5127V35.5127C34 36.6173 34.8954 37.5127 36 37.5127C37.1046 37.5127 38 36.6173 38 35.5127V30.6499L62.4643 38.5134L37.8112 46.4376C37.2721 44.9958 35.6621 44.1277 34.082 44.6356L15 50.7691Z" stroke="currentColor" stroke-linecap="round" stroke-linejoin="round" />
</svg>