<svg width="80" height="80" viewBox="0 0 80 80" fill="none" xmlns="http://www.w3.org/2000/svg">
  <path d="M55.1784 15.7396C56.1131 16.3282 56.3936 17.5631 55.8049 18.4978L27.3778 63.6333C26.7891 64.5679 25.5543 64.8484 24.6196 64.2597C23.685 63.6711 23.4045 62.4362 23.9931 61.5016L52.4203 16.366C53.0089 15.4314 54.2438 15.1509 55.1784 15.7396Z" stroke="currentColor" stroke-linecap="round" stroke-linejoin="round" />
  <path fill-rule="evenodd" clip-rule="evenodd" d="M23.5254 31.8736C19.9217 28.6948 19.9217 23.5409 23.5254 20.3621C27.1292 17.1833 32.9719 17.1833 36.5757 20.3621C40.1794 23.5409 40.1794 28.6948 36.5757 31.8736C32.9719 35.0524 27.1292 35.0524 23.5254 31.8736ZM26.5252 23.0082C24.5782 24.7256 24.5782 27.5101 26.5252 29.2276C28.4722 30.945 31.6289 30.945 33.5759 29.2276C35.5229 27.5101 35.5229 24.7256 33.5759 23.0082C31.6289 21.2907 28.4722 21.2907 26.5252 23.0082Z" stroke="currentColor" stroke-linecap="round" stroke-linejoin="round" />
  <path fill-rule="evenodd" clip-rule="evenodd" d="M43.4244 48.1237C39.8207 51.3025 39.8207 56.4564 43.4244 59.6352C47.0281 62.814 52.8709 62.814 56.4747 59.6352C60.0784 56.4564 60.0784 51.3025 56.4747 48.1237C52.8709 44.9449 47.0281 44.9449 43.4244 48.1237ZM46.4242 56.9891C44.4771 55.2717 44.4771 52.4872 46.4242 50.7697C48.3712 49.0523 51.5279 49.0523 53.4749 50.7697C55.4219 52.4872 55.4219 55.2717 53.4749 56.9891C51.5279 58.7066 48.3712 58.7066 46.4242 56.9891Z" stroke="currentColor" stroke-linecap="round" stroke-linejoin="round" />
</svg>