<svg width="80" height="80" viewBox="0 0 80 80" fill="none" xmlns="http://www.w3.org/2000/svg">
  <path fill-rule="evenodd" clip-rule="evenodd" d="M27.4023 23.4883C26.8961 21.9541 25.2593 21.3402 24.1328 21.9141L18.0035 25.0372C17.2783 25.4067 16.9109 26.1181 16.9836 26.7846C17.0533 27.4236 17.1385 28.0621 17.2394 28.6993C18.5558 37.0105 22.4695 44.6915 28.4196 50.6417C34.3698 56.5918 42.0508 60.5055 50.362 61.8218C50.9997 61.9229 51.6386 62.0082 52.2781 62.0779C52.9445 62.1505 53.6559 61.7832 54.0254 61.0579L57.3219 54.5881C57.9025 53.4487 57.2648 51.786 55.6987 51.2991C53.8449 50.7229 52.0234 50.02 50.2471 49.1917C49.7783 48.9731 49.3141 48.7465 48.8548 48.5119C47.9531 48.0515 46.9806 48.4517 46.6624 49.1516C44.9289 52.9654 39.9198 53.8737 36.9576 50.9114L28.1499 42.1037C25.1876 39.1415 26.0959 34.1324 29.9097 32.3989C30.5001 32.1305 30.8508 31.29 30.4308 30.5128C30.026 29.7637 29.6424 29.0009 29.2808 28.2255C28.5592 26.6779 27.9327 25.0959 27.4023 23.4883ZM22.3169 18.3501C25.9347 16.5067 30.0386 18.7126 31.2008 22.2349C31.6823 23.6942 32.251 25.1301 32.9061 26.535C33.2343 27.239 33.5825 27.9313 33.95 28.6114C35.3583 31.2178 34.4757 34.7172 31.5649 36.0403C30.2937 36.6182 29.9909 38.2879 30.9783 39.2753L39.786 48.083C40.7734 49.0704 42.4431 48.7676 43.021 47.4964C44.3821 44.502 47.9612 43.5645 50.6737 44.9494C51.0906 45.1623 51.512 45.368 51.9375 45.5665C53.55 46.3184 55.2035 46.9564 56.8861 47.4794C60.4685 48.5931 62.7531 52.7395 60.886 56.404L57.5894 62.8739C56.5317 64.9497 54.3034 66.3223 51.8446 66.0543C51.1409 65.9776 50.4379 65.8837 49.7363 65.7726C40.5908 64.3241 32.1386 60.0175 25.5912 53.4701C19.0438 46.9227 14.7372 38.4705 13.2887 29.325C13.1776 28.6239 13.0838 27.9214 13.0071 27.2181C12.739 24.7593 14.1116 22.5309 16.1875 21.4732L22.3169 18.3501Z" stroke="currentColor" stroke-linecap="round" stroke-linejoin="round" />
  <path fill-rule="evenodd" clip-rule="evenodd" d="M54.6509 11.3467C55.7554 11.3467 56.6509 12.2421 56.6509 13.3467V21.3467H64.6509C65.7554 21.3467 66.6509 22.2421 66.6509 23.3467C66.6509 24.4512 65.7554 25.3467 64.6509 25.3467H56.6509V33.3467C56.6509 34.4513 55.7554 35.3467 54.6509 35.3467C53.5463 35.3467 52.6509 34.4512 52.6509 33.3467V25.3467H44.6509C43.5463 25.3467 42.6509 24.4512 42.6509 23.3467C42.6509 22.2421 43.5463 21.3467 44.6509 21.3467H52.6509V13.3467C52.6509 12.2421 53.5463 11.3467 54.6509 11.3467Z" stroke="currentColor" stroke-linecap="round" stroke-linejoin="round" />
</svg>