<svg width="80" height="80" viewBox="0 0 80 80" fill="none" xmlns="http://www.w3.org/2000/svg">
  <path fill-rule="evenodd" clip-rule="evenodd" d="M35.2309 13.3026C36.78 11.3744 39.3263 10.7693 41.5421 11.4892L48.0845 13.615C51.9462 14.8697 53.2884 19.3314 51.6195 22.6439C50.9281 24.0162 50.3148 25.4336 49.7847 26.8902C49.519 27.6202 49.2756 28.3559 49.0546 29.0966C48.2074 31.9355 45.1088 33.7859 42.115 32.6632C40.8075 32.1729 39.4128 33.1394 39.4128 34.5359V46.9919C39.4128 48.3883 40.8075 49.3548 42.115 48.8645C45.1948 47.7096 48.3885 49.5775 49.3273 52.4748C49.4716 52.9202 49.624 53.3636 49.7847 53.8048C50.3932 55.4767 51.1112 57.097 51.9311 58.6567C53.6768 61.9772 52.3603 66.5247 48.4488 67.7956L41.5429 70.0395C39.3272 70.7594 36.7809 70.1543 35.2319 68.2262C34.7885 67.6744 34.3578 67.1109 33.9402 66.5362C28.4976 59.0451 25.5663 50.0233 25.5663 40.7639C25.5663 31.5044 28.4976 22.4826 33.9402 14.9915C34.3575 14.4172 34.7879 13.8541 35.2309 13.3026ZM40.306 15.2934C39.5319 15.0419 38.7692 15.2852 38.3493 15.8078C37.9467 16.309 37.5555 16.8207 37.1763 17.3427C32.2302 24.1504 29.5663 32.3491 29.5663 40.7639C29.5663 49.1786 32.2302 57.3774 37.1763 64.185C37.5558 64.7074 37.9472 65.2194 38.3501 65.7209C38.77 66.2435 39.5328 66.4868 40.3069 66.2353L47.2128 63.9914C48.429 63.5962 49.1537 61.9696 48.3906 60.518C47.4873 58.7997 46.6962 57.0146 46.0259 55.1729C45.849 54.6868 45.681 54.1984 45.5221 53.7078C45.21 52.7446 44.2394 52.3399 43.5195 52.6098C39.597 54.0808 35.4128 51.1811 35.4128 46.9919L35.4128 34.5359C35.4128 30.3466 39.597 27.4469 43.5195 28.9179C44.1268 29.1456 44.969 28.7992 45.2216 27.9528C45.4652 27.1368 45.7332 26.3262 46.0259 25.5222C46.6099 23.9176 47.2855 22.356 48.0472 20.8442C48.7741 19.4014 48.0509 17.8099 46.8485 17.4192L40.306 15.2934Z" stroke="currentColor" stroke-linecap="round" stroke-linejoin="round" />
</svg>