<svg viewBox="0 0 80 80" fill="none">
  <path fill-rule="evenodd" clip-rule="evenodd" d="M34 23C34 19.287 32.5249 15.726 29.8995 13.1006C27.274 10.4751 23.7129 9 19.9998 9C16.2869 9 12.7259 10.475 10.1004 13.1004C7.47494 15.7259 6 19.2871 6 23C6 26.7129 7.47494 30.2741 10.1004 32.8996C12.7259 35.525 16.2869 37 19.9998 37C23.7129 37 27.274 35.5249 29.8995 32.8994C32.5241 30.2747 33.9991 26.715 34 23.0032V23ZM29.798 25L10.202 25C10.5913 26.9069 11.5322 28.6744 12.9289 30.0711C14.8042 31.9465 17.3477 33 19.9998 33C22.652 33 25.1957 31.9463 27.071 30.0709C28.4678 28.6742 29.4087 26.9068 29.798 25ZM10.202 21L29.798 21C29.4087 19.0932 28.4678 17.3258 27.071 15.9291C25.1957 14.0537 22.652 13 19.9998 13C17.3477 13 14.8042 14.0535 12.9289 15.9289C11.5321 17.3256 10.5913 19.0931 10.202 21Z" stroke="currentColor" stroke-linecap="round" stroke-linejoin="round" />
  <path fill-rule="evenodd" clip-rule="evenodd" d="M68.2132 46.4146C74.4616 40.1662 74.4616 30.0356 68.2132 23.7872C61.9648 17.5388 51.8342 17.5388 45.5858 23.7872L25.7868 43.5862C19.5384 49.8346 19.5384 59.9652 25.7868 66.2136C32.0352 72.462 42.1658 72.462 48.4142 66.2136L68.2132 46.4146ZM28.6152 46.4146C23.9289 51.1009 23.9289 58.6989 28.6152 63.3852C33.3015 68.0715 40.8995 68.0715 45.5858 63.3852L54.0711 54.8999L37.1005 37.9293L28.6152 46.4146ZM39.9289 35.1009L56.8995 52.0715L65.3848 43.5862C70.0711 38.8999 70.0711 31.3019 65.3848 26.6156C60.6985 21.9293 53.1005 21.9293 48.4142 26.6156L39.9289 35.1009Z" stroke="currentColor" stroke-linecap="round" stroke-linejoin="round" />
</svg>