<svg width="80" height="80" viewBox="0 0 80 80" fill="none" xmlns="http://www.w3.org/2000/svg">
  <path fill-rule="evenodd" clip-rule="evenodd" d="M47.0623 13.8313C42.6922 11.3082 37.308 11.3082 32.9379 13.8313C28.5678 16.3543 25.8757 21.0172 25.8757 26.0633C25.8757 31.1095 28.5678 35.7723 32.9379 38.2954C34.524 39.2111 36.2438 39.7945 38.0001 40.0455L38.0001 66.0613C38.0001 67.1659 38.8955 68.0613 40.0001 68.0613C41.1047 68.0613 42.0001 67.1659 42.0001 66.0613L42.0001 40.0455C43.7564 39.7945 45.4761 39.2111 47.0623 38.2954C51.4324 35.7723 54.1244 31.1095 54.1244 26.0633C54.1244 21.0172 51.4324 16.3543 47.0623 13.8313ZM40.0827 36.1873C41.8031 36.1733 43.5207 35.7213 45.0623 34.8313C48.1948 33.0227 50.1244 29.6804 50.1244 26.0633C50.1244 22.4462 48.1948 19.1039 45.0623 17.2954C41.9298 15.4868 38.0704 15.4868 34.9379 17.2954C31.8054 19.1039 29.8757 22.4462 29.8757 26.0633C29.8757 29.6804 31.8054 33.0227 34.9379 34.8313C36.4795 35.7213 38.1971 36.1733 39.9175 36.1873C39.9449 36.1862 39.9724 36.1857 40.0001 36.1857C40.0278 36.1857 40.0553 36.1862 40.0827 36.1873Z" stroke="currentColor" stroke-linecap="round" stroke-linejoin="round" />
</svg>