<svg width="80" height="80" viewBox="0 0 80 80" fill="none" xmlns="http://www.w3.org/2000/svg">
  <path fill-rule="evenodd" clip-rule="evenodd" d="M27.9998 10.75C26.8952 10.75 25.9998 11.6454 25.9998 12.75C25.9998 15.4943 27.1069 17.9809 28.8938 19.7859L26.5656 34.9191C23.4092 37.2973 20.9123 40.4928 19.3741 44.2065C18.8153 45.5553 18.3943 46.9454 18.1111 48.3564C17.9932 48.9441 18.1451 49.5538 18.5249 50.0174C18.9048 50.4811 19.4726 50.75 20.072 50.75H37.9998V67.25C37.9998 68.3546 38.8952 69.25 39.9998 69.25C41.1043 69.25 41.9998 68.3546 41.9998 67.25V50.75H59.9279C60.5274 50.75 61.0952 50.4811 61.4751 50.0175C61.8549 49.5538 62.0068 48.9441 61.8888 48.3564C61.6056 46.9454 61.1846 45.5553 60.6259 44.2065C59.0876 40.4926 56.5905 37.297 53.4339 34.9187L51.1057 19.7859C52.8926 17.9809 53.9998 15.4943 53.9998 12.75C53.9998 11.6454 53.1043 10.75 51.9998 10.75H27.9998ZM57.3153 46.75C57.1973 46.4096 57.069 46.0719 56.9304 45.7372C55.5745 42.4639 53.3112 39.6808 50.4443 37.6922C49.9935 37.3795 49.6909 36.8953 49.6075 36.353L46.9881 19.3273C46.8788 18.6168 47.1592 17.9023 47.7226 17.4558C48.6017 16.7591 49.2792 15.8246 49.6588 14.75H30.3408C30.7204 15.8246 31.3979 16.7591 32.2769 17.4558C32.8403 17.9023 33.1207 18.6168 33.0114 19.3273L30.392 36.3533C30.3086 36.8956 30.0061 37.3798 29.5552 37.6925C26.6885 39.6811 24.4254 42.464 23.0696 45.7372C22.9309 46.0719 22.8026 46.4096 22.6847 46.75H57.3153Z" stroke="currentColor" stroke-linecap="round" stroke-linejoin="round" />
</svg>