<svg viewBox="0 0 80 80" fill="none">
  <path fill-rule="evenodd" clip-rule="evenodd" d="M25 17C25 14.2386 27.2386 12 30 12C32.7614 12 35 14.2386 35 17V25H45V17C45 14.2386 47.2386 12 50 12C52.7614 12 55 14.2386 55 17V25H58C60.2091 25 62 26.7909 62 29V33.3409C62 35.2844 60.4847 36.8741 58.5711 36.9929C58.3853 38.6612 57.9654 40.3098 57.3116 41.8883L57.1119 42.3704C55.285 46.7809 51.7809 50.285 47.3704 52.1119L46.8883 52.3116C45.3119 52.9645 43.6659 53.3841 42 53.5703V63C42 64.1046 41.1046 65 40 65C38.8954 65 38 64.1046 38 63V53.5703C36.3341 53.3841 34.6881 52.9645 33.1117 52.3116L32.6296 52.1119C28.2191 50.285 24.715 46.7809 22.8881 42.3704L22.6884 41.8883C22.0346 40.3098 21.6147 38.6612 21.4289 36.9929C19.5153 36.8741 18 35.2844 18 33.3409V29C18 26.7909 19.7909 25 22 25H25V17ZM29 25H31V17C31 16.4477 30.5523 16 30 16C29.4477 16 29 16.4477 29 17V25ZM22 29V33.0152C23.8874 33.1848 25.2167 34.75 25.3935 36.4492C25.532 37.7811 25.8622 39.0978 26.384 40.3576L26.5836 40.8396C28.0045 44.27 30.73 46.9955 34.1604 48.4164L34.6424 48.616C38.0728 50.037 41.9272 50.037 45.3576 48.616L45.8396 48.4164C49.27 46.9955 51.9954 44.27 53.4164 40.8396L53.616 40.3576C54.1378 39.0979 54.468 37.7811 54.6065 36.4492C54.7833 34.75 56.1126 33.1848 58 33.0152L58 29H22ZM51 25V17C51 16.4477 50.5523 16 50 16C49.4477 16 49 16.4477 49 17V25H51Z" stroke="currentColor" stroke-linecap="round" stroke-linejoin="round" />
</svg>