<svg width="80" height="80" viewBox="0 0 80 80" fill="none" xmlns="http://www.w3.org/2000/svg">
  <path d="M63.7538 42.0395H55.4679M63.7538 42.0395H50.3251M63.7538 42.0395H42.0395M63.7538 42.0395V63.7538H42.0395V58.0114L42.2053 58.0711C42.1847 58.0636 42.1642 58.0558 42.1438 58.0477L42.1926 57.9257L42.2517 57.9465L42.2066 58.0715L42.2601 58.0909C42.8645 58.3096 43.6263 58.5851 44.4297 58.7443C44.8101 58.8196 45.2005 58.8586 45.596 58.8586C46.2344 58.8586 46.8584 58.7572 47.4483 58.5657C48.8984 58.1504 50.1569 57.1872 50.9319 55.8449C51.9853 54.0203 51.9853 51.7724 50.9319 49.9478C50.5009 49.2013 49.9204 48.5721 49.2405 48.0891C48.2104 47.3019 46.9349 46.8558 45.596 46.8558C45.2006 46.8558 44.8102 46.8948 44.4298 46.9701C43.6265 47.1292 42.8648 47.4047 42.2605 47.6233L42.2069 47.6427L42.0395 47.703V42.0395M55.4679 42.0395C55.4679 42.0395 55.468 42.0395 55.4679 42.0395ZM55.4679 42.0395C55.2673 42.0395 55.0735 42.0099 54.8907 41.955C54.0675 41.7073 53.4678 40.9434 53.4678 40.0395V39.8018C53.4678 38.4697 53.9066 37.2432 54.2193 36.369L54.2567 36.2643C54.5022 35.5764 54.6767 35.0732 54.7637 34.5898C54.7834 34.4802 54.7937 34.3678 54.7937 34.2536C54.7937 34.1688 54.788 34.0849 54.777 34.0023C54.7735 33.9763 54.7695 33.9505 54.765 33.9249C54.6687 33.3782 54.3356 32.8945 53.8452 32.6114C53.2582 32.2725 52.5351 32.2725 51.9481 32.6114C51.3611 32.9503 50.9995 33.5766 50.9995 34.2543C50.9995 34.3435 51.0058 34.4315 51.0179 34.5179C51.0213 34.542 51.0251 34.5659 51.0294 34.5897C51.1163 35.0731 51.2909 35.5762 51.5362 36.264L51.5737 36.3688C51.8125 37.0364 52.1247 37.9095 52.259 38.8782C52.3006 39.178 52.3251 39.487 52.3251 39.8019V40.0395C52.3251 41.006 51.6395 41.8124 50.728 41.9988C50.5979 42.0255 50.4631 42.0395 50.3251 42.0395M50.3251 42.0395C50.3251 42.0395 50.3251 42.0395 50.3251 42.0395ZM50.3251 42.0395H42.0395M34.4473 28.9064C34.3378 28.9261 34.2254 28.9364 34.1111 28.9364C33.7174 28.9364 33.3411 28.8143 33.0283 28.597C32.8896 28.4658 32.7685 28.3137 32.6704 28.1436C32.3128 27.5244 32.3128 26.7615 32.6704 26.1422C33.0024 25.5672 33.5958 25.1972 34.2515 25.1473C34.3176 25.1522 34.3829 25.1605 34.4473 25.1721C34.9307 25.259 35.4339 25.4336 36.1217 25.679L36.2265 25.7164C37.0069 25.9956 38.0682 26.3752 39.2347 26.4534C39.494 26.4846 39.7597 26.5025 40.0297 26.5025H40.0395C41.1441 26.5025 42.0395 25.6071 42.0395 24.5025V16.3252H63.7538V38.0395H57.8727C57.9191 37.9051 57.9693 37.7631 58.0231 37.6123M34.4473 28.9064L34.4898 29.1425M34.4473 28.9064C34.9307 28.8194 35.4339 28.6449 36.1217 28.3995L36.2265 28.3621C37.1006 28.0494 38.327 27.6107 39.659 27.6107H40.0395C41.1441 27.6107 42.0395 28.5061 42.0395 29.6107V38.0395H47.9205C47.874 37.9047 47.8236 37.7622 47.7696 37.6108L47.7484 37.5513C47.5265 36.9297 47.2435 36.1369 47.0927 35.2987C47.0849 35.2558 47.0777 35.2127 47.0709 35.1695C47.0545 35.0647 47.0408 34.9593 47.03 34.8533C47.0097 34.6552 46.9994 34.455 46.9994 34.2536C46.9994 32.1467 48.1234 30.1999 49.948 29.1465C51.7726 28.0931 54.0205 28.0931 55.8451 29.1465C57.4328 30.0632 58.49 31.6563 58.7378 33.4427C58.7748 33.7095 58.7938 33.9806 58.7938 34.2543C58.7938 34.6078 58.7621 34.9572 58.7006 35.2988C58.5498 36.1371 58.2667 36.93 58.0448 37.5516L58.0242 37.6092M58.0242 37.6092C58.0239 37.6102 58.0235 37.6112 58.0231 37.6123M58.0242 37.6092C58.02 37.621 58.0155 37.6327 58.0113 37.6443C58.0154 37.6337 58.0193 37.623 58.0231 37.6123M14.3252 12.3252C13.2206 12.3252 12.3252 13.2206 12.3252 14.3252V65.7538C12.3252 66.8583 13.2206 67.7538 14.3252 67.7538H65.7538C66.8583 67.7538 67.7538 66.8583 67.7538 65.7538V14.3252C67.7538 13.2206 66.8583 12.3252 65.7538 12.3252H14.3252ZM38.0395 16.3252V22.0171C37.9598 21.9887 37.8777 21.9591 37.7927 21.9284L37.7391 21.909C37.1348 21.6904 36.3732 21.4149 35.5699 21.2558C35.1895 21.1805 34.7991 21.1415 34.4036 21.1415C34.3504 21.1415 34.2973 21.1422 34.2443 21.1436C34.2 21.1426 34.1556 21.1421 34.1111 21.1421C32.0043 21.1421 30.0575 22.2661 29.0041 24.0907C27.9506 25.9153 27.9506 28.1632 29.0041 29.9878C29.3934 30.6621 29.9047 31.2407 30.501 31.7022C31.5721 32.6189 32.9505 33.1443 34.4036 33.1443C34.7991 33.1443 35.1895 33.1054 35.5699 33.03C36.3733 32.8709 37.1351 32.5953 37.7395 32.3766L37.7931 32.3573C37.8779 32.3266 37.9599 32.2971 38.0395 32.2687V38.0395H29.6107C28.5061 38.0395 27.6107 38.9349 27.6107 40.0395V40.1334C27.6107 41.4654 28.0495 42.692 28.3622 43.5661L28.3996 43.6709C28.6451 44.3588 28.8196 44.8619 28.9066 45.3454C28.9263 45.455 28.9366 45.5673 28.9366 45.6816C28.9366 46.3594 28.575 46.9857 27.988 47.3246C27.5937 47.5522 27.1378 47.6269 26.7031 47.5487C26.5088 47.505 26.3196 47.4319 26.1422 47.3294C25.5412 46.9825 25.1642 46.35 25.1425 45.6594C25.1437 45.5528 25.1538 45.4479 25.1723 45.3454C25.2592 44.862 25.4338 44.3589 25.6791 43.6711L25.7166 43.5664C25.9119 43.0201 26.1565 42.3363 26.3125 41.5751C26.419 41.1002 26.4934 40.5939 26.5017 40.0713C26.5102 39.5354 26.3033 39.0185 25.9273 38.6366C25.5514 38.2546 25.0379 38.0395 24.5019 38.0395H16.3252V16.3252H38.0395ZM38.0395 42.0395H32.297L32.3572 42.2067L32.3766 42.2603C32.5952 42.8647 32.8708 43.6264 33.03 44.4299C33.1053 44.8103 33.1443 45.2007 33.1443 45.5962C33.1443 47.7402 32.0004 49.7215 30.1436 50.7935C28.8444 51.5436 27.3342 51.7689 25.9083 51.4693C25.2782 51.3462 24.6637 51.1194 24.0909 50.7887C22.2717 49.7383 21.1489 47.7998 21.1424 45.7001C21.1418 45.6655 21.1415 45.6308 21.1415 45.5962C21.1415 45.2007 21.1804 44.8103 21.2558 44.4299C21.4149 43.6266 21.6904 42.8649 21.909 42.2606L21.9284 42.207L21.9887 42.0395H16.3252V63.7538H38.0395V55.4678C38.0395 54.3632 38.9349 53.4678 40.0395 53.4678H40.277C41.6089 53.4678 42.8354 53.9065 43.7095 54.2192L43.8143 54.2566C44.5021 54.502 45.0053 54.6765 45.4887 54.7635C45.5982 54.7832 45.7106 54.7935 45.8249 54.7935C45.9804 54.7935 46.1331 54.7744 46.2803 54.738C46.7159 54.5795 47.0903 54.2718 47.3293 53.8579C47.6868 53.2387 47.6868 52.4757 47.3293 51.8565C47.2071 51.645 47.0496 51.4611 46.8666 51.3108C46.5622 51.1109 46.2015 50.9992 45.8249 50.9992C45.7106 50.9992 45.5982 51.0095 45.4887 51.0292C45.0053 51.1161 44.5021 51.2907 43.8143 51.5361L43.7095 51.5735C42.8354 51.8862 41.6089 52.3249 40.277 52.3249H40.0395C38.9349 52.3249 38.0395 51.4295 38.0395 50.3249V42.0395Z" stroke="currentColor" stroke-linecap="round" stroke-linejoin="round" />
</svg>