<svg viewBox="0 0 80 80" fill="none">
  <path fill-rule="evenodd" clip-rule="evenodd" d="M26 14C14.9543 14 6 22.9543 6 34V53C6 60.1797 11.8203 66 19 66H25C32.1797 66 38 60.1797 38 53V47C38 39.8203 32.1797 34 25 34H19C18.6638 34 18.3303 34.0128 18 34.038V34C18 29.5817 21.5817 26 26 26C29.3137 26 32 23.3137 32 20C32 16.6863 29.3137 14 26 14ZM10 34C10 25.1634 17.1634 18 26 18C27.1046 18 28 18.8954 28 20C28 21.1046 27.1046 22 26 22C19.3726 22 14 27.3726 14 34V36.4141C14 37.0407 14.2937 37.6311 14.7935 38.0092C15.2933 38.3872 15.9413 38.5091 16.5443 38.3386C17.3226 38.1184 18.1458 38 19 38H25C29.9706 38 34 42.0294 34 47V53C34 57.9706 29.9706 62 25 62H19C14.0294 62 10 57.9706 10 53V34Z" stroke="currentColor" stroke-linecap="round" stroke-linejoin="round" />
  <path fill-rule="evenodd" clip-rule="evenodd" d="M62 14C50.9543 14 42 22.9543 42 34V53C42 60.1797 47.8203 66 55 66H61C68.1797 66 74 60.1797 74 53V47C74 39.8203 68.1797 34 61 34H55C54.6638 34 54.3303 34.0128 54 34.038V34C54 29.5817 57.5817 26 62 26C65.3137 26 68 23.3137 68 20C68 16.6863 65.3137 14 62 14ZM46 34C46 25.1634 53.1634 18 62 18C63.1046 18 64 18.8954 64 20C64 21.1046 63.1046 22 62 22C55.3726 22 50 27.3726 50 34V36.4141C50 37.0407 50.2937 37.6311 50.7935 38.0092C51.2933 38.3872 51.9413 38.5091 52.5443 38.3386C53.3226 38.1184 54.1458 38 55 38H61C65.9706 38 70 42.0294 70 47V53C70 57.9706 65.9706 62 61 62H55C50.0294 62 46 57.9706 46 53V34Z" stroke="currentColor" stroke-linecap="round" stroke-linejoin="round" />
</svg>