<svg width="80" height="80" viewBox="0 0 80 80" fill="none" xmlns="http://www.w3.org/2000/svg">
  <path fill-rule="evenodd" clip-rule="evenodd" d="M30.1271 51.5726L29.008 53.4442C26.97 56.8524 26.6252 61.0287 28.042 64.7265C29.2522 67.885 31.6745 70.4632 34.7701 71.8494C38.0975 73.3394 41.9025 73.3394 45.2299 71.8494C48.3255 70.4632 50.7478 67.885 51.958 64.7265C53.3748 61.0287 53.03 56.8524 50.992 53.4442L49.8729 51.5726H56.7813C56.8056 51.5726 56.83 51.5723 56.8545 51.5715H59.6269C63.3926 51.5715 67.008 50.0936 69.6954 47.4557L69.7775 47.375C72.4784 44.7239 74 41.0982 74 37.3136C74 33.529 72.4784 29.9033 69.7776 27.2521L69.6954 27.1714C68.855 26.3465 67.9237 25.635 66.9256 25.0466C67.083 23.0533 66.8997 21.0312 66.3636 19.0671C65.1318 14.5548 62.1407 10.7254 58.0505 8.40734L57.9227 8.33491C53.8338 6.01762 48.9773 5.39732 44.4086 6.59894C39.8433 7.79972 35.9247 10.7252 33.5047 14.7453C33.2644 14.6658 33.0211 14.593 32.7753 14.5271C29.4501 13.636 25.9062 14.0792 22.9231 15.7699C19.963 17.4474 17.7954 20.2178 16.8978 23.4831C14.4306 24.098 12.1491 25.362 10.3046 27.1725L10.2225 27.2531C7.52159 29.9043 6 33.53 6 37.3146C6 41.0992 7.52158 44.7249 10.2224 47.3761L10.3046 47.4567C12.992 50.0947 16.6074 51.5726 20.3731 51.5726H23.2129L23.2203 51.5726H30.1271ZM55.9505 11.8149C52.7774 10.0167 48.9947 9.52877 45.4261 10.4674C41.8139 11.4175 38.7312 13.7474 36.8595 16.9295L36.074 18.2651C35.5413 19.1707 34.3988 19.5098 33.4584 19.0414C32.9132 18.7698 32.3379 18.551 31.7399 18.3908C29.4195 17.7689 26.9567 18.0816 24.8953 19.2499C22.8352 20.4174 21.3438 22.3433 20.7397 24.5987C20.66 24.8963 20.5965 25.1966 20.5492 25.4983C20.4134 26.3634 19.7307 27.0396 18.8643 27.1669C16.7034 27.4846 14.6836 28.4791 13.1067 30.0271L13.0245 30.1077C11.0899 32.0067 10 34.6038 10 37.3146C10 40.0255 11.0899 42.6225 13.0245 44.5215L13.1067 44.6022C15.0462 46.506 17.6554 47.5726 20.3731 47.5726H23.2129L23.2203 47.5726H32.519L33.9691 45.1476L37.0603 37.8222C38.1576 35.2219 41.8424 35.2219 42.9397 37.8222L46.0309 45.1476L47.481 47.5726H56.7442C56.7665 47.5719 56.7888 47.5715 56.8111 47.5715H59.6269C62.3446 47.5715 64.9538 46.5049 66.8933 44.6011L66.9755 44.5205C68.9101 42.6215 70 40.0244 70 37.3136C70 34.6027 68.9101 32.0057 66.9755 30.1067L66.8933 30.026C66.027 29.1756 65.0271 28.4923 63.9435 27.9964C63.1238 27.6213 62.6564 26.7443 62.802 25.8547C63.1125 23.9576 63.0188 22.0037 62.5048 20.1205C61.5562 16.6454 59.25 13.6848 56.0783 11.8873L55.9505 11.8149ZM44.6315 50.6013L44.6301 50.5991L42.5261 47.0805C42.4783 47.0005 42.4362 46.9174 42.4 46.8316L40 41.1442L37.6 46.8316C37.5638 46.9174 37.5217 47.0005 37.4739 47.0805L35.3699 50.5991L35.3689 50.6007L32.4411 55.497C31.0387 57.8422 30.7955 60.7333 31.7772 63.2953C32.6119 65.474 34.2841 67.249 36.4049 68.1987C38.6922 69.223 41.3078 69.223 43.5951 68.1987C45.7159 67.249 47.3881 65.474 48.2228 63.2953C49.2045 60.7333 48.9613 57.8422 47.5589 55.497L44.6315 50.6013Z" stroke="currentColor" stroke-linecap="round" stroke-linejoin="round" />
</svg>