<svg width="80" height="80" viewBox="0 0 80 80" fill="none" xmlns="http://www.w3.org/2000/svg">
  <path fill-rule="evenodd" clip-rule="evenodd" d="M27.0591 29.2395C25.8634 28.5491 25.4537 27.0202 26.144 25.8244L32.6389 14.575C34.1574 11.9449 36.9637 10.3247 40.0007 10.3247C43.0377 10.3247 45.844 11.9449 47.3625 14.575L52.5009 23.475L54.8155 22.1386C57.6483 20.5031 61.0443 23.109 60.1977 26.2686L58.778 31.5669C57.9919 34.501 54.976 36.2422 52.0419 35.456L46.7436 34.0363C43.584 33.1897 43.0253 28.9457 45.8581 27.3102L48.1707 25.975L43.0323 17.075C42.407 15.9919 41.2513 15.3247 40.0007 15.3247C38.75 15.3247 37.5943 15.9919 36.969 17.075L30.4742 28.3244C29.7838 29.5202 28.2548 29.9298 27.0591 29.2395ZM52.6889 29.1399L51.1355 30.0368L53.336 30.6264C53.6028 30.6979 53.8769 30.5396 53.9484 30.2728L54.538 28.0723L52.9827 28.9703C52.936 29.0016 52.888 29.0315 52.8386 29.06C52.7893 29.0885 52.7393 29.1151 52.6889 29.1399Z" stroke="currentColor" stroke-linecap="round" stroke-linejoin="round" />
  <path fill-rule="evenodd" clip-rule="evenodd" d="M61.65 39.3233C60.9596 38.1276 59.4306 37.7179 58.2349 38.4083C57.0392 39.0986 56.6295 40.6276 57.3198 41.8233L63.8147 53.0727C64.44 54.1558 64.44 55.4903 63.8147 56.5734C63.1893 57.6565 62.0337 58.3237 60.783 58.3237L50.5062 58.3237V55.6533C50.5062 52.3823 46.5514 50.7441 44.2385 53.0571L40.3598 56.9358C38.2119 59.0836 38.2119 62.5661 40.3598 64.7139L44.2385 68.5926C46.5514 70.9056 50.5062 69.2674 50.5062 65.9964V63.3237L60.783 63.3237C63.82 63.3237 66.6263 61.7035 68.1448 59.0734C69.6633 56.4433 69.6633 53.2028 68.1448 50.5727L61.65 39.3233ZM45.5062 60.6541C45.5025 60.7102 45.5006 60.7667 45.5006 60.8237C45.5006 60.8807 45.5025 60.9373 45.5062 60.9933V62.7893L43.8953 61.1784C43.7001 60.9831 43.7001 60.6666 43.8953 60.4713L45.5062 58.8604V60.6541Z" stroke="currentColor" stroke-linecap="round" stroke-linejoin="round" />
  <path fill-rule="evenodd" clip-rule="evenodd" d="M34.7071 60.821C34.7071 62.2017 33.5878 63.321 32.2071 63.321L19.2175 63.321C16.1805 63.321 13.3742 61.7007 11.8557 59.0706C10.3372 56.4405 10.3372 53.2001 11.8557 50.5699L16.994 41.67L14.6794 40.3337C11.8466 38.6982 12.4054 34.4541 15.5649 33.6075L20.8633 32.1878C23.7974 31.4016 26.8132 33.1428 27.5994 36.0769L29.0191 41.3753C29.8657 44.5348 26.4696 47.1407 23.6368 45.5052L21.3242 44.17L16.1858 53.0699C15.5605 54.1531 15.5605 55.4875 16.1858 56.5706C16.8111 57.6537 17.9668 58.321 19.2175 58.321H32.2071C33.5878 58.321 34.7071 59.4402 34.7071 60.821ZM21.806 38.6747L23.3594 39.5716L22.7698 37.371C22.6983 37.1043 22.4241 36.946 22.1574 37.0175L19.9569 37.6071L21.5122 38.5051C21.5626 38.5299 21.6126 38.5565 21.6619 38.585C21.7113 38.6135 21.7593 38.6434 21.806 38.6747Z" stroke="currentColor" stroke-linecap="round" stroke-linejoin="round" />
</svg>