<svg width="80" height="80" viewBox="0 0 80 80" fill="none" xmlns="http://www.w3.org/2000/svg">
  <path fill-rule="evenodd" clip-rule="evenodd" d="M31.0704 10C32.4527 7.6104 35.0362 6 37.9996 6H41.9996C44.9629 6 47.5464 7.6104 48.9287 10H59.9996C63.3133 10 65.9996 12.6863 65.9996 16V28C65.9996 31.3137 63.3133 34 59.9996 34H49.9996L49.9996 37.9999H59.4846C62.1944 37.9999 64.4642 39.7899 65.2182 42.2249C70.0995 43.2769 73.5958 47.8796 73.0402 53.0653L71.7545 65.0653C71.2101 70.1467 66.9219 74 61.8114 74H18.1887C13.0782 74 8.79005 70.1467 8.24561 65.0653L6.9599 53.0653C6.42556 48.0782 9.63799 43.6319 14.226 42.3619C14.9361 39.8574 17.2399 37.9999 20.0002 37.9999H29.9996L29.9996 34H19.9996C16.6859 34 13.9996 31.3137 13.9996 28V16C13.9996 12.6863 16.6859 10 19.9996 10H31.0704ZM19.9996 14C18.895 14 17.9996 14.8954 17.9996 16V28C17.9996 29.1046 18.895 30 19.9996 30H33.9986C31.5703 28.1755 29.9996 25.2712 29.9996 22C29.9996 18.7288 31.5703 15.8245 33.9986 14H19.9996ZM46.0005 14C48.4289 15.8245 49.9996 18.7288 49.9996 22C49.9996 25.2712 48.4289 28.1755 46.0005 30H59.9996C61.1041 30 61.9996 29.1046 61.9996 28V16C61.9996 14.8954 61.1041 14 59.9996 14H46.0005ZM33.9996 34L33.9996 39.9877C33.9996 39.9918 33.9997 39.9958 33.9997 39.9999V46C33.9997 48.2091 35.7905 50 37.9997 50H41.9997C44.2088 50 45.9997 48.2091 45.9997 46L45.9996 34H33.9996ZM29.9997 46L29.9996 41.9999H20.0002C18.8466 41.9999 17.9322 42.9732 18.0041 44.1246L19.5041 68.1246C19.57 69.1787 20.4441 69.9999 21.5002 69.9999H57.9846C59.0407 69.9999 59.9148 69.1787 59.9807 68.1246L61.4807 44.1246C61.481 44.1201 61.4813 44.1156 61.4815 44.1111C61.4835 44.0752 61.4846 44.0395 61.4847 44.0039C61.4881 42.906 60.5977 41.9999 59.4846 41.9999H49.9996L49.9997 46C49.9997 50.4183 46.4179 54 41.9997 54H37.9997C33.5814 54 29.9997 50.4183 29.9997 46ZM65.3442 46.4337L63.9729 68.3741C63.9447 68.8257 63.867 69.263 63.7454 69.6809C65.9013 68.9467 67.5225 67.0171 67.7773 64.6392L69.063 52.6392C69.358 49.8857 67.7478 47.4047 65.3442 46.4337ZM15.6772 69.45C15.5911 69.1028 15.535 68.7432 15.5119 68.3741L14.155 46.6633C12.0328 47.759 10.6632 50.0822 10.9371 52.6392L12.2229 64.6392C12.4543 66.7996 13.8137 68.59 15.6772 69.45ZM39.9996 16C36.6859 16 33.9996 18.6863 33.9996 22C33.9996 25.3137 36.6859 28 39.9996 28C43.3133 28 45.9996 25.3137 45.9996 22C45.9996 18.6863 43.3133 16 39.9996 16ZM39.9996 20C41.1041 20 41.9996 20.8954 41.9996 22V22.01C41.9996 23.1146 41.1041 24.01 39.9996 24.01C38.895 24.01 37.9996 23.1146 37.9996 22.01V22C37.9996 20.8954 38.895 20 39.9996 20Z" stroke="currentColor" stroke-linecap="round" stroke-linejoin="round" />
</svg>