<svg width="80" height="80" viewBox="0 0 80 80" fill="none" xmlns="http://www.w3.org/2000/svg">
  <path fill-rule="evenodd" clip-rule="evenodd" d="M14 10.272C11.7909 10.272 10 12.0628 10 14.272V66.272C10 67.376 10.4499 68.3787 11.1716 69.1004C11.8932 69.8221 12.896 70.272 14 70.272L66 70.272C68.2091 70.272 70 68.4811 70 66.272V46.272C70 44.0628 68.2091 42.272 66 42.272H38V14.272C38 12.0628 36.2091 10.272 34 10.272H14ZM40 46.272L40 52.272C40 53.3765 40.8954 54.272 42 54.272C43.1046 54.272 44 53.3765 44 52.272L44 46.272H49V52.272C49 53.3765 49.8954 54.272 51 54.272C52.1046 54.272 53 53.3765 53 52.272V46.272H58L58 52.272C58 53.3765 58.8954 54.272 60 54.272C61.1046 54.272 62 53.3765 62 52.272L62 46.272H66V66.272L16.8284 66.272L36.8284 46.272H40ZM34 43.4435L14 63.4435V14.272L34 14.272V18.272H28C26.8954 18.272 26 19.1674 26 20.272C26 21.3765 26.8954 22.272 28 22.272L34 22.272V27.272H28C26.8954 27.272 26 28.1674 26 29.272C26 30.3765 26.8954 31.272 28 31.272H34V36.272H28C26.8954 36.272 26 37.1674 26 38.272C26 39.3765 26.8954 40.272 28 40.272H34V43.4435Z" stroke="currentColor" stroke-linecap="round" stroke-linejoin="round" />
</svg>