<svg viewBox="0 0 80 80" fill="none">
  <path d="M23.0667 27.0907C23.0667 19.8609 28.9276 14 36.1573 14L42.9333 14C50.6653 14 56.9333 20.268 56.9333 28V28.5C56.9333 29.6046 56.0379 30.5 54.9333 30.5C53.8288 30.5 52.9333 29.6046 52.9333 28.5V28C52.9333 22.4772 48.4562 18 42.9333 18H36.1573C31.1367 18 27.0667 22.07 27.0667 27.0907C27.0667 31.2621 29.9057 34.8982 33.9525 35.9099L41.5517 37.8097L41.5841 37.8181L48.0244 39.5432C53.9084 41.1192 58 46.4511 58 52.5425C58 59.9749 51.9749 66 44.5425 66H36C28.268 66 22 59.732 22 52V51.5C22 50.3954 22.8954 49.5 24 49.5C25.1046 49.5 26 50.3954 26 51.5V52C26 57.5228 30.4772 62 36 62L44.5425 62C49.7657 62 54 57.7657 54 52.5425C54 48.2616 51.1245 44.5146 46.9895 43.407L40.5654 41.6862L32.9824 39.7905C27.1549 38.3336 23.0667 33.0976 23.0667 27.0907Z" stroke="currentColor" stroke-linecap="round" stroke-linejoin="round" />
</svg>