<svg width="80" height="80" viewBox="0 0 80 80" fill="none" xmlns="http://www.w3.org/2000/svg">
  <path d="M48.1906 51.0724L47.3758 50.2575C45.0919 52.137 42.4017 53.544 39.4489 54.3353C32.1838 56.2819 24.4321 54.2049 19.1137 48.8865C13.7953 43.5681 11.7182 35.8163 13.6648 28.5513C15.6115 21.2862 21.2862 15.6115 28.5513 13.6648C35.8163 11.7182 43.5681 13.7953 48.8865 19.1137C54.2049 24.4321 56.2819 32.1838 54.3353 39.4489C53.5373 42.4268 52.113 45.1376 50.2095 47.4339L51.0187 48.243C52.8126 47.54 54.9309 47.9134 56.3803 49.3631L69.1088 62.095C71.0603 64.0471 71.0601 67.2115 69.1083 69.1633C67.1561 71.1155 63.9909 71.1153 62.039 69.1629L49.3105 56.431C47.8621 54.9821 47.4888 52.8654 48.1906 51.0724ZM48.1906 51.0724L49.3104 52.1916C50.0915 52.9727 51.3578 52.9727 52.1389 52.1916M48.1906 51.0724L52.1389 52.1916M52.1389 52.1916C51.7496 52.5815 51.7497 53.2132 52.1393 53.6029L64.8678 66.3348C65.2577 66.7248 65.8899 66.7248 66.2799 66.3349C66.6697 65.945 66.6698 65.313 66.28 64.923L53.5515 52.1912C53.1616 51.8012 52.5288 51.8017 52.1389 52.1916ZM46.0697 46.0463C48.1456 43.9664 49.6846 41.3504 50.4716 38.4136C52.0484 32.5289 50.3659 26.25 46.058 21.9421C41.7501 17.6342 35.4712 15.9518 29.5865 17.5286C23.7018 19.1054 19.1054 23.7018 17.5286 29.5865C15.9518 35.4712 17.6342 41.7501 21.9421 46.058C26.25 50.3659 32.5289 52.0484 38.4136 50.4716C41.3281 49.6906 43.9266 48.169 45.9988 46.117C46.0093 46.106 46.02 46.095 46.0309 46.0842L46.0333 46.0818C46.0453 46.0698 46.0575 46.058 46.0697 46.0463Z" stroke="currentColor" stroke-linecap="round" stroke-linejoin="round" />
</svg>