<svg width="80" height="80" viewBox="0 0 80 80" fill="none" xmlns="http://www.w3.org/2000/svg">
  <path fill-rule="evenodd" clip-rule="evenodd" d="M30.2064 11.6457C21.1482 14.0729 14.0729 21.1482 11.6457 30.2064C9.21859 39.2646 11.8083 48.9296 18.4394 55.5607C25.0705 62.1918 34.7355 64.7815 43.7937 62.3544C47.7383 61.2974 51.3069 59.359 54.2793 56.7592L65.3679 67.8478C66.149 68.6288 67.4153 68.6288 68.1964 67.8478C68.9774 67.0667 68.9774 65.8004 68.1964 65.0193L57.0812 53.9042C59.5192 51.0084 61.3415 47.5737 62.3543 43.7937C64.7815 34.7355 62.1918 25.0705 55.5607 18.4394C48.9296 11.8083 39.2646 9.21859 30.2064 11.6457ZM15.5094 31.2417C17.5667 23.5638 23.5638 17.5667 31.2416 15.5094C38.9195 13.4522 47.1117 15.6472 52.7323 21.2678C58.3528 26.8884 60.5479 35.0806 58.4906 42.7584C56.4334 50.4363 50.4363 56.4334 42.7584 58.4907C35.0806 60.5479 26.8884 58.3528 21.2678 52.7323C15.6472 47.1117 13.4522 38.9195 15.5094 31.2417Z" stroke="currentColor" stroke-linecap="round" stroke-linejoin="round" />
</svg>