<svg width="80" height="80" viewBox="0 0 80 80" fill="none" xmlns="http://www.w3.org/2000/svg">
  <path fill-rule="evenodd" clip-rule="evenodd" d="M70 16C70 14.8954 70.8954 14 72 14C73.1046 14 74 14.8954 74 16V64C74 65.1046 73.1046 66 72 66C70.8954 66 70 65.1046 70 64V44L44.4 63.2C41.7631 65.1777 38 63.2962 38 60V44L12.4 63.2C9.76306 65.1777 6 63.2962 6 60L6 20C6 16.7038 9.76306 14.8223 12.4 16.8L38 36V20C38 16.7038 41.7631 14.8223 44.4 16.8L70 36V16ZM36.6667 40L10 20L10 60L36.6667 40ZM68.6667 40L42 20V60L68.6667 40Z" stroke="currentColor" stroke-linecap="round" stroke-linejoin="round" />
</svg>