<svg width="80" height="80" viewBox="0 0 80 80" fill="none" xmlns="http://www.w3.org/2000/svg">
  <path fill-rule="evenodd" clip-rule="evenodd" d="M39.3849 8.09695C39.7848 7.96768 40.2153 7.96768 40.6152 8.09695L65.0399 15.9918C65.6872 16.201 66.1837 16.7249 66.358 17.3825C66.8238 19.1401 67.1888 20.9289 67.4493 22.7406C68.7333 31.6714 67.4233 40.7832 63.6751 48.9905C59.927 57.1978 53.8987 64.1548 46.3083 69.0328C44.5504 70.1625 42.7259 71.1697 40.8477 72.0506C40.3097 72.3029 39.6873 72.3029 39.1492 72.0506C37.2711 71.1697 35.4465 70.1625 33.6886 69.0328C26.0983 64.1548 20.07 57.1978 16.3218 48.9905C12.5737 40.7832 11.2636 31.6714 12.5477 22.7406C12.8081 20.9293 13.173 19.1409 13.6386 17.3837C13.8129 16.7261 14.3095 16.2022 14.9568 15.9929L39.3849 8.09695ZM17.241 19.4583C16.9388 20.7269 16.6936 22.0119 16.507 23.3099C15.332 31.4817 16.5308 39.819 19.9604 47.3288C23.39 54.8386 28.9059 61.2043 35.8512 65.6678C37.1935 66.5304 38.5782 67.315 39.9985 68.0194C41.4187 67.315 42.8035 66.5304 44.1458 65.6678C51.091 61.2043 56.607 54.8386 60.0366 47.3288C63.4662 39.819 64.6649 31.4817 63.49 23.3099C63.3033 22.0116 63.058 20.7261 62.7556 19.4572L40.0001 12.1019L17.241 19.4583Z" stroke="currentColor" stroke-linecap="round" stroke-linejoin="round" />
</svg>