<svg width="80" height="80" viewBox="0 0 80 80" fill="none" xmlns="http://www.w3.org/2000/svg">
  <path fill-rule="evenodd" clip-rule="evenodd" d="M24.2203 12.8419C34.4127 9.13213 45.5864 9.13213 55.7788 12.8419C58.5951 13.8669 61.2867 15.1571 63.822 16.6858C64.2811 16.9626 64.6098 17.4121 64.7344 17.9334C66.1929 24.0316 66.404 30.4093 65.299 36.6762C63.4155 47.358 57.8287 57.0346 49.5197 64.0067C46.8557 66.2421 43.9663 68.1537 40.9125 69.7193C40.3397 70.0129 39.6605 70.0129 39.0877 69.7193C36.0339 68.1537 33.1446 66.2421 30.4805 64.0067C22.1715 57.0346 16.5847 47.358 14.7012 36.6762C13.5962 30.409 13.8074 24.031 15.266 17.9325C15.3907 17.4112 15.7194 16.9617 16.1784 16.685C18.7133 15.1566 21.4045 13.8667 24.2203 12.8419ZM54.4107 16.6007C45.102 13.2125 34.8971 13.2125 25.5883 16.6007C23.2834 17.4396 21.0699 18.473 18.9687 19.6833C17.8081 25.0033 17.6807 30.5382 18.6405 35.9816C20.3607 45.7373 25.4631 54.5749 33.0517 60.9425C35.2179 62.7602 37.5471 64.3433 40.0001 65.6778C42.4532 64.3433 44.7823 62.7602 46.9486 60.9425C54.5371 54.5749 59.6396 45.7372 61.3598 35.9816C62.3195 30.5385 62.1922 25.0038 61.0317 19.684C58.9301 18.4734 56.7162 17.4398 54.4107 16.6007Z" stroke="currentColor" stroke-linecap="round" stroke-linejoin="round" />
</svg>