<svg width="80" height="80" viewBox="0 0 80 80" fill="none" xmlns="http://www.w3.org/2000/svg">
  <path d="M47 52C47 50.8954 46.1046 50 45 50C43.8955 50 43 50.8954 43 52V62C43 63.1046 43.8955 64 45 64H65C66.1046 64 67 63.1046 67 62V52C67 50.8954 66.1046 50 65 50C63.8955 50 63 50.8954 63 52V60H47V52Z" stroke="currentColor" stroke-linecap="round" stroke-linejoin="round" />
  <path fill-rule="evenodd" clip-rule="evenodd" d="M32 8C24.2681 8 18 14.268 18 22V28H11.9376C9.83383 28 8.04666 29.5391 7.73459 31.6196L2.40959 67.1196C2.02415 69.6891 4.01425 72 6.61256 72H74C76.2092 72 78 70.2091 78 68V46C78 43.7909 76.2092 42 74 42H57.8223L56.2652 31.6196C55.9531 29.5391 54.166 28 52.0622 28H46V22C46 14.268 39.732 8 32 8ZM35.9999 42C35.8618 42 35.7254 42.007 35.5909 42.0207C33.5739 42.2255 31.9999 43.9289 31.9999 46V68H6.61256C6.45973 68 6.34266 67.8641 6.36533 67.7129L11.6903 32.2129C11.7087 32.0905 11.8138 32 11.9376 32H18V38C18 39.1046 18.8955 40 20 40C21.1046 40 22 39.1046 22 38V32H42V38C42 39.1046 42.8955 40 44 40C45.1046 40 46 39.1046 46 38V32H52.0622C52.186 32 52.2911 32.0905 52.3095 32.2129L53.7775 42H35.9999ZM36 68V46H74V68H36ZM42 28V22C42 16.4772 37.5229 12 32 12C26.4772 12 22 16.4772 22 22V28H42Z" stroke="currentColor" stroke-linecap="round" stroke-linejoin="round" />
</svg>