<svg width="80" height="80" viewBox="0 0 80 80" fill="none" xmlns="http://www.w3.org/2000/svg">
  <path fill-rule="evenodd" clip-rule="evenodd" d="M62.368 10.0719C57.0142 4.71809 48.1762 5.28141 43.5455 11.2716L24.9833 35.2831C24.8209 35.4932 24.689 35.7181 24.5873 35.9521L20.8604 36.6975C16.7199 37.5256 13.3538 40.5334 12.0669 44.555L7.55371 58.6589C7.20236 59.7568 7.25066 60.9196 7.65256 61.9573L7.35432 62.2556L10.1827 65.084L10.481 64.7857C11.5187 65.1877 12.6815 65.236 13.7795 64.8846L27.8833 60.3714C31.9049 59.0845 34.9127 55.7184 35.7408 51.5779L36.4844 47.8596C36.7212 47.7574 36.9487 47.6244 37.161 47.4602L61.1701 28.8931C67.1587 24.2618 67.7212 15.4251 62.368 10.0719ZM35.3157 43.8307L28.613 37.128L29.8462 35.5328L36.9106 42.5973L35.3157 43.8307ZM21.6449 40.6198L25.6474 39.8193L32.619 46.7909L31.8185 50.7934C31.2753 53.5094 29.3022 55.7175 26.6642 56.5617L14.9596 60.3072L21.5488 53.718C22.3163 53.9697 23.173 54.0126 24.0495 53.7778C27.3212 52.9011 28.417 48.8115 26.022 46.4164C23.6269 44.0214 19.5373 45.1172 18.6606 48.3889C18.4258 49.2654 18.4687 50.122 18.7204 50.8895L12.1312 57.4787L15.8766 45.7741C16.7208 43.1361 18.9289 41.163 21.6449 40.6198ZM46.7101 13.7181C49.8665 9.63512 55.8904 9.25116 59.5396 12.9003C63.1883 16.549 62.805 22.5722 58.7231 25.7289L40.1006 40.1304L32.3126 32.3423L46.7101 13.7181ZM22.6279 49.8106C22.7232 49.9058 22.8656 49.9539 23.0142 49.9141C23.3117 49.8344 23.4113 49.4626 23.1936 49.2448C22.9758 49.0271 22.604 49.1267 22.5243 49.4242C22.4845 49.5728 22.5327 49.7153 22.6279 49.8106Z" stroke="currentColor" stroke-linecap="round" stroke-linejoin="round" />
  <path d="M59.6409 65.6157L55.8057 54.9237L51.1009 68.0399C49.8185 71.6151 46.4293 74.0001 42.6311 74.0001H41.921C39.6055 74.0001 37.3617 73.1971 35.572 71.7281L31.7868 68.6213C31.7628 68.6017 31.7282 68.6017 31.7042 68.6213L27.9237 71.7243C26.1309 73.1958 23.8834 74.0001 21.5641 74.0001H8.55566C7.45109 74.0001 6.55566 73.1046 6.55566 72.0001C6.55566 70.8955 7.45109 70.0001 8.55566 70.0001H21.5641C22.9579 70.0001 24.3085 69.5167 25.3859 68.6325L29.1665 65.5295C30.6657 64.299 32.8253 64.299 34.3245 65.5295L38.1097 68.6362C39.1841 69.5181 40.531 70.0001 41.921 70.0001H42.6311C44.7409 70.0001 46.6235 68.6753 47.3358 66.6894L53.3851 49.8248C54.1997 47.5537 57.4116 47.5537 58.2263 49.8248L63.406 64.2652C64.6399 67.7053 67.901 70.0001 71.5557 70.0001H72.5557C73.6602 70.0001 74.5557 70.8955 74.5557 72.0001C74.5557 73.1046 73.6602 74.0001 72.5557 74.0001H71.5557C66.2126 74.0001 61.4449 70.6451 59.6409 65.6157Z" stroke="currentColor" stroke-linecap="round" stroke-linejoin="round" />
</svg>