<svg width="80" height="80" viewBox="0 0 80 80" fill="none" xmlns="http://www.w3.org/2000/svg">
  <path d="M14 63.1714L38.5857 38.5857C38.5877 38.5836 38.5898 38.5816 38.5918 38.5795L63.1715 13.9999C65.6913 11.48 69.9999 13.2647 69.9999 16.8283V65.9999C69.9999 68.209 68.209 69.9999 65.9999 69.9999H16.8283C13.9573 69.9999 12.241 67.2034 12.9999 64.7987C13.183 64.2186 13.5102 63.6612 14 63.1714ZM14 63.1714C14 63.1714 13.9999 63.1714 14 63.1714ZM41.9999 65.9999H65.9999V16.8283L41.9999 40.8284V65.9999ZM37.9999 44.8283L16.8284 65.9998L37.9999 65.9998V44.8283Z" stroke="currentColor" stroke-linecap="round" stroke-linejoin="round" />
</svg>