<svg width="80" height="80" viewBox="0 0 80 80" fill="none" xmlns="http://www.w3.org/2000/svg">
  <path d="M14 63.1714L52.5857 24.5857C52.5878 24.5835 52.59 24.5814 52.5922 24.5792L63.1715 13.9999C65.6913 11.48 69.9999 13.2647 69.9999 16.8283V65.9999C69.9999 68.209 68.209 69.9999 65.9999 69.9999H16.8283C13.9573 69.9999 12.241 67.2034 12.9999 64.7987C13.183 64.2186 13.5102 63.6612 14 63.1714ZM14 63.1714C14 63.1714 13.9999 63.1714 14 63.1714ZM55.9999 65.9999H65.9999V16.8283L55.9999 26.8284V65.9999ZM51.9999 30.8283L16.8284 65.9998L51.9999 65.9998V30.8283Z" stroke="currentColor" stroke-linecap="round" stroke-linejoin="round" />
</svg>