<svg width="80" height="80" viewBox="0 0 80 80" fill="none" xmlns="http://www.w3.org/2000/svg">
  <path fill-rule="evenodd" clip-rule="evenodd" d="M22.8285 14.9999C21.2664 13.4378 18.7338 13.4378 17.1717 14.9999L11.8359 20.3357C9.74566 22.426 11.2261 25.9999 14.1821 25.9999H18.0001L18.0001 64.9999C18.0001 66.1045 18.8955 66.9999 20.0001 66.9999C21.1047 66.9999 22.0001 66.1045 22.0001 64.9999L22.0001 25.9999H25.8181C28.7742 25.9999 30.2546 22.426 28.1643 20.3357L22.8285 14.9999ZM24.1717 21.9999L20.0001 17.8284L15.8285 21.9999H24.1717Z" stroke="currentColor" stroke-linecap="round" stroke-linejoin="round" />
  <path fill-rule="evenodd" clip-rule="evenodd" d="M35.0001 61.9999C35.0001 64.2091 36.791 65.9999 39.0001 65.9999H55.0001C57.2093 65.9999 59.0001 64.2091 59.0001 61.9999V49.9999C59.0001 47.7908 57.2093 45.9999 55.0001 45.9999H39.0001C36.791 45.9999 35.0001 47.7908 35.0001 49.9999V61.9999ZM55.0001 61.9999H39.0001V49.9999H55.0001V61.9999Z" stroke="currentColor" stroke-linecap="round" stroke-linejoin="round" />
  <path fill-rule="evenodd" clip-rule="evenodd" d="M39.0001 41.9999C36.791 41.9999 35.0001 40.2091 35.0001 37.9999V17.9999C35.0001 15.7908 36.791 13.9999 39.0001 13.9999H67.0001C69.2093 13.9999 71.0001 15.7908 71.0001 17.9999V37.9999C71.0001 40.2091 69.2093 41.9999 67.0001 41.9999H39.0001ZM39.0001 37.9999H67.0001V17.9999H39.0001V37.9999Z" stroke="currentColor" stroke-linecap="round" stroke-linejoin="round" />
</svg>