<svg width="80" height="80" viewBox="0 0 80 80" fill="none" xmlns="http://www.w3.org/2000/svg">
  <path d="M54.3979 20.2714V36C54.3979 37.1046 55.2933 38 56.3979 38C57.5025 38 58.3979 37.1046 58.3979 36V16.1536C58.3979 14.3968 56.3486 13.4372 54.9992 14.5623L50.3194 18.4639C49.471 19.1712 49.3567 20.4324 50.064 21.2808C50.7713 22.1291 52.0325 22.2435 52.8809 21.5362L54.3979 20.2714Z" stroke="currentColor" stroke-linecap="round" stroke-linejoin="round" />
  <path fill-rule="evenodd" clip-rule="evenodd" d="M31.8285 16C30.2664 14.4379 27.7338 14.4379 26.1717 16L20.8359 21.3358C18.7457 23.4261 20.2261 27 23.1821 27H27.0001L27.0001 64C27.0001 65.1046 27.8955 66 29.0001 66C30.1047 66 31.0001 65.1046 31.0001 64L31.0001 27H34.8181C37.7742 27 39.2546 23.4261 37.1643 21.3358L31.8285 16ZM33.1717 23L29.0001 18.8285L24.8285 23H33.1717Z" stroke="currentColor" stroke-linecap="round" stroke-linejoin="round" />
  <path fill-rule="evenodd" clip-rule="evenodd" d="M51.5001 62C54.6963 62 57.3538 59.6931 57.8981 56.6534C56.7443 57.2989 55.4143 57.6667 53.9987 57.6667H53.8334C49.5072 57.6667 46.0001 54.1596 46.0001 49.8334C46.0001 45.5071 49.5072 42 53.8334 42H55.0001C58.8661 42 62.0001 45.134 62.0001 49V55.5C62.0001 61.299 57.2991 66 51.5001 66H51.0001C49.8955 66 49.0001 65.1046 49.0001 64C49.0001 62.8955 49.8955 62 51.0001 62H51.5001ZM50.0001 49.8334C50.0001 47.7163 51.7164 46 53.8334 46H55.0001C56.6558 46 57.9982 47.3413 58.0001 48.9965L57.9973 49.6845C57.9883 51.8864 56.2007 53.6667 53.9987 53.6667H53.8334C51.7164 53.6667 50.0001 51.9505 50.0001 49.8334Z" stroke="currentColor" stroke-linecap="round" stroke-linejoin="round" />
</svg>