<svg width="80" height="80" viewBox="0 0 80 80" fill="none" xmlns="http://www.w3.org/2000/svg">
  <path fill-rule="evenodd" clip-rule="evenodd" d="M18.0001 53H14.1821C11.2261 53 9.74566 56.574 11.8359 58.6642L17.1717 64C18.7338 65.5621 21.2664 65.5621 22.8285 64L28.1643 58.6642C30.2546 56.574 28.7742 53 25.8181 53H22.0001L22.0001 16C22.0001 14.8954 21.1047 14 20.0001 14C18.8955 14 18.0001 14.8954 18.0001 16L18.0001 53ZM15.8285 57L20.0001 61.1716L24.1717 57H15.8285Z" stroke="currentColor" stroke-linecap="round" stroke-linejoin="round" />
  <path d="M35.0001 22C35.0001 20.8954 35.8955 20 37.0001 20H45.0001C46.1047 20 47.0001 20.8954 47.0001 22C47.0001 23.1046 46.1047 24 45.0001 24H37.0001C35.8955 24 35.0001 23.1046 35.0001 22Z" stroke="currentColor" stroke-linecap="round" stroke-linejoin="round" />
  <path d="M37.0001 32C35.8955 32 35.0001 32.8954 35.0001 34C35.0001 35.1046 35.8955 36 37.0001 36H53.0001C54.1047 36 55.0001 35.1046 55.0001 34C55.0001 32.8954 54.1047 32 53.0001 32H37.0001Z" stroke="currentColor" stroke-linecap="round" stroke-linejoin="round" />
  <path d="M35.0001 46C35.0001 44.8954 35.8955 44 37.0001 44H61.0001C62.1047 44 63.0001 44.8954 63.0001 46C63.0001 47.1046 62.1047 48 61.0001 48H37.0001C35.8955 48 35.0001 47.1046 35.0001 46Z" stroke="currentColor" stroke-linecap="round" stroke-linejoin="round" />
  <path d="M37.0001 56C35.8955 56 35.0001 56.8954 35.0001 58C35.0001 59.1046 35.8955 60 37.0001 60H69.0001C70.1047 60 71.0001 59.1046 71.0001 58C71.0001 56.8954 70.1047 56 69.0001 56H37.0001Z" stroke="currentColor" stroke-linecap="round" stroke-linejoin="round" />
</svg>