<svg width="80" height="80" viewBox="0 0 80 80" fill="none" xmlns="http://www.w3.org/2000/svg">
  <path fill-rule="evenodd" clip-rule="evenodd" d="M61.168 36.8022L58.8464 31.4998H49.1538L46.8322 36.8022C46.3892 37.814 45.2098 38.2751 44.198 37.8321C43.1861 37.3891 42.725 36.2097 43.168 35.1978L51.8272 15.4207C52.2051 14.5576 53.058 14 54.0001 14C54.9423 14 55.7951 14.5576 56.173 15.4207L64.8322 35.1978C65.2752 36.2097 64.8141 37.3891 63.8023 37.8321C62.7904 38.2751 61.611 37.814 61.168 36.8022ZM54.0001 20.431L57.0951 27.4998H50.9051L54.0001 20.431Z" stroke="currentColor" stroke-linecap="round" stroke-linejoin="round" />
  <path fill-rule="evenodd" clip-rule="evenodd" d="M23.1717 16C24.7338 14.4379 27.2664 14.4379 28.8285 16L34.1643 21.3358C36.2546 23.426 34.7742 27 31.8181 27H28.0001L28.0001 64C28.0001 65.1046 27.1047 66 26.0001 66C24.8955 66 24.0001 65.1046 24.0001 64L24.0001 27H20.1821C17.2261 27 15.7457 23.426 17.8359 21.3358L23.1717 16ZM30.1717 23H21.8285L26.0001 18.8284L30.1717 23Z" stroke="currentColor" stroke-linecap="round" stroke-linejoin="round" />
  <path d="M61.4668 42C62.5714 42 63.4668 42.8954 63.4668 44V44.4167C63.4668 44.8737 63.3102 45.317 63.0232 45.6726L49.8478 62H62.0001C63.1047 62 64.0001 62.8954 64.0001 64C64.0001 65.1046 63.1047 66 62.0001 66H46.0001C44.8955 66 44.0001 65.1046 44.0001 64V63.5833C44.0001 63.1263 44.1567 62.683 44.4437 62.3274L57.6191 46H46.5334C45.4289 46 44.5334 45.1046 44.5334 44C44.5334 42.8954 45.4289 42 46.5334 42H61.4668Z" stroke="currentColor" stroke-linecap="round" stroke-linejoin="round" />
</svg>