<svg width="80" height="80" viewBox="0 0 80 80" fill="none" xmlns="http://www.w3.org/2000/svg">
  <path fill-rule="evenodd" clip-rule="evenodd" d="M50.5335 14.1214C43.7049 11.2929 36.0324 11.2929 29.2038 14.1214C22.3752 16.9499 16.9499 22.3752 14.1214 29.2038C11.2929 36.0324 11.2929 43.7049 14.1214 50.5335C16.9499 57.3621 22.3752 62.7874 29.2038 65.6159C36.0324 68.4444 43.7049 68.4444 50.5335 65.6159C51.1331 65.3675 51.6162 64.8967 51.8619 64.2788C52.0934 63.6967 52.0672 63.1075 51.914 62.6282C51.6121 61.6834 50.6548 60.7794 49.3148 60.8999C45.8993 61.2068 42.4286 60.7037 39.1952 59.3906L38.8925 59.2677C33.7483 57.1787 29.6444 53.1319 27.4836 48.0174C25.2826 42.8079 25.2826 36.9297 27.4836 31.7202C29.6444 26.6057 33.7483 22.5589 38.8925 20.4699L39.1952 20.347C42.4286 19.034 45.8992 18.5308 49.3146 18.8377C50.6548 18.9582 51.6121 18.0541 51.9141 17.1093C52.0673 16.63 52.0935 16.0408 51.862 15.4586C51.6163 14.8407 51.1332 14.3698 50.5335 14.1214ZM30.7345 17.8169C33.5234 16.6617 36.4766 16.0574 39.4374 16.0039C38.8494 16.1945 38.2666 16.4068 37.6902 16.6409L37.3875 16.7638C31.2605 19.252 26.3726 24.0719 23.7989 30.1635C21.1775 36.3682 21.1775 43.3694 23.7989 49.5741C26.3726 55.6657 31.2605 60.4856 37.3875 62.9738L37.6902 63.0967C38.2662 63.3306 38.8486 63.5428 39.4362 63.7333C36.4758 63.6797 33.523 63.0754 30.7345 61.9204C24.886 59.4978 20.2394 54.8512 17.8169 49.0028C15.3944 43.1543 15.3944 36.583 17.8169 30.7345C20.2394 24.886 24.886 20.2394 30.7345 17.8169Z" stroke="currentColor" stroke-linecap="round" stroke-linejoin="round" />
  <path fill-rule="evenodd" clip-rule="evenodd" d="M55.6535 30.5656C54.6458 28.0561 51.0934 28.0562 50.0857 30.5656L48.3781 34.8179L43.8062 35.1279C41.1082 35.3109 40.0104 38.6894 42.0856 40.4232L45.6021 43.3613L44.4842 47.8053C43.8244 50.4278 46.6984 52.5158 48.9887 51.078L52.8696 48.6415L56.7506 51.078C59.0409 52.5158 61.9148 50.4278 61.2551 47.8053L60.1371 43.3613L63.6537 40.4232C65.7288 38.6894 64.6311 35.3109 61.9331 35.1279L57.3612 34.8179L55.6535 30.5656ZM51.856 36.8911L52.8696 34.367L53.8832 36.8911C54.3124 37.9597 55.3153 38.6884 56.4642 38.7663L59.178 38.9503L57.0906 40.6943C56.2069 41.4326 55.8239 42.6116 56.1048 43.7284L56.7684 46.3662L54.4648 44.92C53.4895 44.3077 52.2498 44.3077 51.2745 44.92L48.9708 46.3662L49.6344 43.7284C49.9154 42.6116 49.5323 41.4326 48.6486 40.6943L46.5613 38.9503L49.2751 38.7663C50.424 38.6884 51.4269 37.9597 51.856 36.8911Z" stroke="currentColor" stroke-linecap="round" stroke-linejoin="round" />
</svg>