<svg width="80" height="80" viewBox="0 0 80 80" fill="none" xmlns="http://www.w3.org/2000/svg">
  <path fill-rule="evenodd" clip-rule="evenodd" d="M36.2881 11.8763C36.9584 10.2072 38.5068 9.36694 40 9.36694L42 9.36695V56.4414L40 56.4414L26.4723 64.9342C23.4187 66.8513 19.5867 64.0672 20.4664 60.5706L24.3632 45.0806L12.1058 34.8395C9.33889 32.5277 10.8026 28.023 14.3999 27.7791L30.3359 26.6985L36.2881 11.8763ZM38 18.3474L34.0478 28.1891C33.4757 29.6139 32.1384 30.5855 30.6065 30.6894L14.6705 31.7699L26.9279 42.011C28.1062 42.9955 28.6169 44.5675 28.2423 46.0565L24.3455 61.5465L37.8731 53.0537C37.9151 53.0274 37.9574 53.0019 38 52.9773V18.3474Z" stroke="currentColor" stroke-linecap="round" stroke-linejoin="round" />
</svg>