<svg width="80" height="80" viewBox="0 0 80 80" fill="none" xmlns="http://www.w3.org/2000/svg">
  <path d="M21.5 30C18.3336 30 15.7667 32.5669 15.7667 35.7333V35.8258C15.7667 38.3334 17.3713 40.5597 19.7502 41.3527L21.114 41.8073L22.1995 42.195C22.9794 42.4735 23.5 43.2123 23.5 44.0404C23.5 45.1095 22.6158 46 21.5203 46C20.4025 46 19.5 45.0914 19.5 44V43.8333C19.5 42.7288 18.6046 41.8333 17.5 41.8333C16.3954 41.8333 15.5 42.7288 15.5 43.8333V44C15.5 47.3269 18.2198 50 21.5203 50C24.7985 50 27.5 47.345 27.5 44.0404C27.5 41.5218 25.9167 39.2751 23.5448 38.428L22.4393 38.0332C22.426 38.0284 22.4126 38.0238 22.3991 38.0193L21.0151 37.558C20.2696 37.3094 19.7667 36.6117 19.7667 35.8258V35.7333C19.7667 34.776 20.5427 34 21.5 34C22.4573 34 23.2333 34.776 23.2333 35.7333V36.1667C23.2333 37.2712 24.1288 38.1667 25.2333 38.1667C26.3379 38.1667 27.2333 37.2712 27.2333 36.1667V35.7333C27.2333 32.5669 24.6664 30 21.5 30Z" stroke="currentColor" stroke-linecap="round" stroke-linejoin="round" />
  <path d="M27 32C27 30.8954 27.8954 30 29 30H37C38.1046 30 39 30.8954 39 32C39 33.1046 38.1046 34 37 34H35V48C35 49.1046 34.1046 50 33 50C31.8954 50 31 49.1046 31 48V34H29C27.8954 34 27 33.1046 27 32Z" stroke="currentColor" stroke-linecap="round" stroke-linejoin="round" />
  <path fill-rule="evenodd" clip-rule="evenodd" d="M44.5 30C41.1863 30 38.5 32.6863 38.5 36V44C38.5 47.3137 41.1863 50 44.5 50C47.8137 50 50.5 47.3137 50.5 44V36C50.5 32.6863 47.8137 30 44.5 30ZM42.5 36C42.5 34.8954 43.3954 34 44.5 34C45.6046 34 46.5 34.8954 46.5 36V44C46.5 45.1046 45.6046 46 44.5 46C43.3954 46 42.5 45.1046 42.5 44V36Z" stroke="currentColor" stroke-linecap="round" stroke-linejoin="round" />
  <path fill-rule="evenodd" clip-rule="evenodd" d="M52 32C52 30.8954 52.8954 30 54 30C54.0206 30 54.0411 30.0003 54.0616 30.0009C54.0826 30.0003 54.1038 30 54.125 30H58C61.3137 30 64 32.6863 64 36C64 39.3137 61.3137 42 58 42H56V48C56 49.1046 55.1046 50 54 50C52.8954 50 52 49.1046 52 48V32ZM56 34V38H58C59.1046 38 60 37.1046 60 36C60 34.8954 59.1046 34 58 34H56Z" stroke="currentColor" stroke-linecap="round" stroke-linejoin="round" />
  <path fill-rule="evenodd" clip-rule="evenodd" d="M29.2308 10C28.1699 10 27.1525 10.4214 26.4023 11.1716L11.1716 26.4023C10.4214 27.1525 10 28.1699 10 29.2308V50.7699C10 51.8307 10.4214 52.8482 11.1716 53.5983L26.4017 68.8284C27.1518 69.5786 28.1693 70 29.2301 70H50.7699C51.8307 70 52.8482 69.5786 53.5983 68.8284L68.8284 53.5983C69.5786 52.8482 70 51.8307 70 50.7699V29.2308C70 28.1699 69.5786 27.1525 68.8284 26.4023L53.5977 11.1716C52.8475 10.4214 51.8301 10 50.7692 10H29.2308ZM29.2308 14L50.7692 14L66 29.2308V50.7699L50.7699 66H29.2301L14 50.7699V29.2308L29.2308 14Z" stroke="currentColor" stroke-linecap="round" stroke-linejoin="round" />
</svg>