<svg viewBox="0 0 80 80" fill="none">
  <path d="M42 13.9938C41.9965 12.8916 41.1021 12 40 12C38.8978 12 38.0034 12.8916 38 13.9938L37.9828 19.4938C37.9812 20.0278 38.1931 20.5402 38.5714 20.917C38.9497 21.2939 39.463 21.5038 39.9969 21.5L40.0038 21.5C40.5376 21.5036 41.0507 21.2936 41.4288 20.9168C41.807 20.54 42.0188 20.0276 42.0171 19.4938L42 13.9938Z" stroke="currentColor" stroke-linecap="round" stroke-linejoin="round" />
  <path d="M26.3319 17.7849C25.6813 16.8953 24.4336 16.6997 23.542 17.3475C22.6503 17.9953 22.4508 19.2424 23.0959 20.1361L26.315 24.596C26.6275 25.029 27.1002 25.319 27.6277 25.4015C28.1552 25.484 28.6939 25.3521 29.1236 25.0353L29.1292 25.0312C29.5631 24.7203 29.8548 24.2489 29.9393 23.7217C30.0237 23.1946 29.8939 22.6556 29.5788 22.2247L26.3319 17.7849Z" stroke="currentColor" stroke-linecap="round" stroke-linejoin="round" />
  <path d="M56.9041 20.1361C57.5491 19.2424 57.3496 17.9953 56.458 17.3475C55.5663 16.6997 54.3186 16.8953 53.668 17.7849L53.6607 17.795L50.4215 22.2243C50.1063 22.6552 49.9765 23.1944 50.0611 23.7216C50.1456 24.2487 50.4374 24.7202 50.8716 25.0311L50.8772 25.0352C51.307 25.3518 51.8455 25.4836 52.3729 25.401C52.9003 25.3184 53.3728 25.0284 53.6853 24.5956L56.8967 20.1462L56.9041 20.1361Z" stroke="currentColor" stroke-linecap="round" stroke-linejoin="round" />
  <path d="M15.8846 30.0615C14.8354 29.7242 13.711 30.2993 13.3704 31.3475C13.0298 32.3957 13.6014 33.5219 14.6485 33.8657L19.8745 35.5818C20.3818 35.7484 20.9346 35.7052 21.4099 35.4619C21.8851 35.2186 22.2434 34.7954 22.4049 34.2865L22.407 34.2799C22.5754 33.7733 22.5343 33.2204 22.2928 32.7443C22.0513 32.2682 21.6295 31.9083 21.1212 31.745L15.8846 30.0615Z" stroke="currentColor" stroke-linecap="round" stroke-linejoin="round" />
  <path d="M65.3514 33.8657C66.3985 33.5219 66.9701 32.3957 66.6296 31.3475C66.289 30.2993 65.1646 29.7242 64.1153 30.0615L64.1035 30.0654L58.8796 31.7447C58.3714 31.9081 57.9495 32.2679 57.708 32.744C57.4665 33.2201 57.4254 33.7731 57.5939 34.2797L57.596 34.2863C57.7575 34.7952 58.1158 35.2184 58.591 35.4617C59.0663 35.7049 59.619 35.7481 60.1263 35.5815L65.3395 33.8696L65.3514 33.8657Z" stroke="currentColor" stroke-linecap="round" stroke-linejoin="round" />
  <path d="M22.4049 45.7136C22.2434 45.2047 21.8852 44.7814 21.4099 44.5381C20.9346 44.2948 20.3818 44.2516 19.8745 44.4182L14.6604 46.1304L14.6485 46.1343C13.6014 46.4781 13.0298 47.6043 13.3704 48.6525C13.711 49.7007 14.8354 50.2758 15.8846 49.9385L15.8965 49.9346L21.1212 48.255C21.6295 48.0917 22.0513 47.7318 22.2928 47.2557C22.5343 46.7796 22.5754 46.2267 22.407 45.7201L22.4049 45.7136Z" stroke="currentColor" stroke-linecap="round" stroke-linejoin="round" />
  <path d="M60.1263 44.4185C59.619 44.2519 59.0663 44.2951 58.591 44.5383C58.1158 44.7816 57.7575 45.2048 57.596 45.7137L57.5939 45.7202C57.4254 46.2269 57.4665 46.7798 57.708 47.2559C57.9495 47.7321 58.3713 48.0919 58.8796 48.2553L64.1035 49.9346L64.1153 49.9385C65.1646 50.2758 66.289 49.7007 66.6296 48.6525C66.9701 47.6043 66.3985 46.4781 65.3514 46.1343L65.3395 46.1304L60.1263 44.4185Z" stroke="currentColor" stroke-linecap="round" stroke-linejoin="round" />
  <path d="M29.1237 54.9648C28.694 54.6479 28.1553 54.516 27.6278 54.5985C27.1002 54.681 26.6275 54.971 26.315 55.404L23.1032 59.8538L23.0959 59.8639C22.4508 60.7576 22.6503 62.0047 23.542 62.6525C24.4336 63.3003 25.6813 63.1047 26.3319 62.2151L26.3393 62.205L29.5788 57.7753C29.894 57.3443 30.0237 56.8053 29.9393 56.2781C29.8548 55.751 29.563 55.2795 29.129 54.9686L29.1237 54.9648Z" stroke="currentColor" stroke-linecap="round" stroke-linejoin="round" />
  <path d="M53.6853 55.4044C53.3728 54.9715 52.9003 54.6816 52.3728 54.599C51.8454 54.5165 51.3069 54.6482 50.8771 54.9649L50.8713 54.9691C50.4373 55.2799 50.1455 55.7514 50.061 56.2786C49.9765 56.8057 50.1063 57.3448 50.4215 57.7757L53.6607 62.205L53.668 62.2151C54.3186 63.1047 55.5663 63.3003 56.458 62.6525C57.3496 62.0047 57.5491 60.7576 56.9041 59.8639L56.8967 59.8538L53.6853 55.4044Z" stroke="currentColor" stroke-linecap="round" stroke-linejoin="round" />
  <path d="M39.9968 58.5C39.4629 58.4963 38.9496 58.7062 38.5714 59.083C38.1931 59.4598 37.9812 59.9722 37.9828 60.5062L38 65.9938V66.0062C38.0034 67.1084 38.8978 68 40 68C41.1021 68 41.9965 67.1084 42 66.0062V65.9938L42.0171 60.5062C42.0188 59.9724 41.807 59.46 41.4288 59.0832C41.0507 58.7064 40.5376 58.4964 40.0038 58.5H39.9968Z" stroke="currentColor" stroke-linecap="round" stroke-linejoin="round" />
  <path fill-rule="evenodd" clip-rule="evenodd" d="M44.1447 27.2438C41.4509 26.3685 38.5491 26.3685 35.8552 27.2438C33.1614 28.1191 30.8138 29.8247 29.1489 32.1162C27.484 34.4077 26.5873 37.1675 26.5873 40C26.5873 42.8325 27.484 45.5923 29.1489 47.8838C30.8138 50.1753 33.1614 51.8809 35.8552 52.7562C38.5491 53.6315 41.4509 53.6315 44.1447 52.7562C46.8386 51.8809 49.1862 50.1753 50.8511 47.8838C52.5159 45.5923 53.4127 42.8325 53.4127 40C53.4127 37.1675 52.5159 34.4077 50.8511 32.1162C49.1862 29.8247 46.8386 28.1191 44.1447 27.2438ZM37.0913 31.048C38.9818 30.4338 41.0182 30.4338 42.9087 31.048C44.7991 31.6623 46.4466 32.8592 47.615 34.4674C48.7834 36.0755 49.4127 38.0122 49.4127 40C49.4127 41.9878 48.7834 43.9245 47.615 45.5326C46.4466 47.1408 44.7991 48.3377 42.9087 48.952C41.0182 49.5662 38.9818 49.5662 37.0913 48.952C35.2008 48.3377 33.5533 47.1408 32.385 45.5326C31.2166 43.9245 30.5873 41.9878 30.5873 40C30.5873 38.0122 31.2166 36.0755 32.385 34.4674C33.5533 32.8592 35.2008 31.6623 37.0913 31.048Z" stroke="currentColor" stroke-linecap="round" stroke-linejoin="round" />
</svg>