<svg width="80" height="80" viewBox="0 0 80 80" fill="none" xmlns="http://www.w3.org/2000/svg">
  <path d="M41.9999 9.99376C41.9965 8.89163 41.1021 8 39.9999 8C38.8978 8 38.0034 8.89163 37.9999 9.99376L37.975 18.0021C37.973 18.6436 38.2788 19.2472 38.7974 19.6249C39.1546 19.8851 39.5829 20.0164 40.0143 20.0079C40.4361 20.0101 40.8536 19.8788 41.203 19.6241C41.7212 19.2464 42.0269 18.643 42.0249 18.0017L41.9999 9.99376Z" stroke="currentColor" stroke-linecap="round" stroke-linejoin="round" />
  <path d="M26.3319 13.7849C25.6813 12.8953 24.4336 12.6997 23.5419 13.3475C22.6503 13.9953 22.4508 15.2424 23.0958 16.1361L27.7829 22.6298C28.1582 23.1498 28.7602 23.4583 29.4015 23.4593C29.842 23.46 30.2644 23.3155 30.6079 23.0568C30.9524 22.8105 31.2145 22.4578 31.348 22.0448C31.5452 21.4346 31.4378 20.7668 31.0592 20.2491L26.3319 13.7849Z" stroke="currentColor" stroke-linecap="round" stroke-linejoin="round" />
  <path d="M56.904 16.1361C57.5491 15.2424 57.3496 13.9953 56.4579 13.3475C55.5663 12.6997 54.3186 12.8953 53.668 13.7849L53.6607 13.795L48.9408 20.2488C48.5624 20.7663 48.455 21.4338 48.6519 22.0438C48.7875 22.464 49.0562 22.8218 49.4094 23.0687C49.7498 23.3195 50.1656 23.4592 50.5989 23.4586C51.2402 23.4576 51.8421 23.1491 52.2175 22.6291L56.8967 16.1462L56.904 16.1361Z" stroke="currentColor" stroke-linecap="round" stroke-linejoin="round" />
  <path fill-rule="evenodd" clip-rule="evenodd" d="M35.8552 23.2438C33.1613 24.1191 30.8137 25.8247 29.1488 28.1162C27.8793 29.8637 27.0564 31.8834 26.7372 34H8C6.89543 34 6 34.8954 6 36C6 37.1046 6.89543 38 8 38H72C73.1046 38 74 37.1046 74 36C74 34.8954 73.1046 34 72 34H53.2627C52.9435 31.8834 52.1206 29.8637 50.851 28.1162C49.1861 25.8247 46.8385 24.1191 44.1447 23.2438C41.4508 22.3685 38.549 22.3685 35.8552 23.2438ZM49.1977 34C48.9221 32.7326 48.3859 31.5284 47.6149 30.4674C46.4466 28.8592 44.7991 27.6623 42.9086 27.048C41.0181 26.4338 38.9817 26.4338 37.0913 27.048C35.2008 27.6623 33.5533 28.8592 32.3849 30.4674C31.614 31.5284 31.0778 32.7326 30.8022 34H49.1977Z" stroke="currentColor" stroke-linecap="round" stroke-linejoin="round" />
  <path d="M15.8846 26.0615C14.8353 25.7242 13.7109 26.2993 13.3703 27.3475C13.0298 28.3957 13.6014 29.5219 14.6485 29.8657L22.2574 32.3643C22.8667 32.5644 23.535 32.4601 24.0544 32.084C24.4097 31.8267 24.6659 31.4636 24.7923 31.0546C24.928 30.6514 24.9333 30.21 24.7979 29.7956C24.5988 29.186 24.1194 28.7088 23.5088 28.5125L15.8846 26.0615Z" stroke="currentColor" stroke-linecap="round" stroke-linejoin="round" />
  <path d="M65.3514 29.8657C66.3985 29.5219 66.9701 28.3957 66.6295 27.3475C66.2889 26.2993 65.1646 25.7242 64.1153 26.0615L64.1034 26.0654L56.4919 28.5123C55.8819 28.7083 55.4028 29.1848 55.2034 29.7936C55.0666 30.2112 55.0726 30.6563 55.2111 31.0623C55.3384 31.468 55.5935 31.8281 55.9464 32.0836C56.4659 32.4598 57.1342 32.564 57.7435 32.364L65.3395 29.8696L65.3514 29.8657Z" stroke="currentColor" stroke-linecap="round" stroke-linejoin="round" />
  <path fill-rule="evenodd" clip-rule="evenodd" d="M41.9987 58H46.4645C49.551 58 51.0967 54.2683 48.9142 52.0858L43.182 46.3536C41.4246 44.5962 38.5754 44.5962 36.818 46.3536L31.0858 52.0858C28.9033 54.2683 30.449 58 33.5355 58H37.9987V70.0002C37.9987 71.1048 38.8941 72.0002 39.9987 72.0002C41.1033 72.0002 41.9987 71.1048 41.9987 70.0002V58ZM39.6464 49.182C39.8417 48.9867 40.1583 48.9867 40.3536 49.182L45.1716 54H34.8284L39.6464 49.182Z" stroke="currentColor" stroke-linecap="round" stroke-linejoin="round" />
</svg>