<svg width="80" height="80" viewBox="0 0 80 80" fill="none" xmlns="http://www.w3.org/2000/svg">
  <path d="M29.667 54.6361L10.4503 38.0683C11.7362 36.7165 13.1164 35.4508 14.5829 34.2813C19.3865 30.4506 24.9914 27.7514 30.9813 26.3843C36.9712 25.0171 43.1922 25.0171 49.1821 26.3843C55.172 27.7514 60.7769 30.4506 65.5804 34.2813C66.985 35.4014 68.3106 36.6099 69.5498 37.8976L50.429 54.5761M29.667 54.6361C29.6671 54.6361 29.6671 54.6362 29.667 54.6361ZM29.667 54.6361L29.668 54.6364C29.6722 54.6378 29.69 54.6426 29.723 54.6409C29.7962 54.6371 29.8974 54.6035 29.9842 54.5287C31.0768 53.5879 32.2984 52.802 33.6152 52.1964C35.6296 51.2698 37.8197 50.787 40.037 50.7806C42.2543 50.7742 44.447 51.2444 46.4668 52.1593C47.787 52.7573 49.0132 53.5362 50.1112 54.4706C50.1985 54.5449 50.2998 54.578 50.3731 54.5813C50.4061 54.5828 50.4238 54.5779 50.4281 54.5765L50.429 54.5761M50.429 54.5761C50.4289 54.5762 50.4288 54.5763 50.429 54.5761ZM63.741 34.7213C62.8474 34.0835 61.6067 34.2853 60.9613 35.1733L59.7854 36.7913C59.4716 37.223 59.3434 37.7623 59.4293 38.2891C59.5153 38.8159 59.8082 39.2865 60.2429 39.5961L60.2482 39.5999C61.1421 40.2369 62.3823 40.0346 63.0273 39.1466L64.2026 37.5283C64.516 37.0968 64.6441 36.558 64.5584 36.0316C64.4727 35.5052 64.1801 35.0347 63.746 34.7248L63.7443 34.7236L63.7435 34.723L63.741 34.7213ZM63.741 34.7213L62.5791 36.3492M50.0722 22.4845C43.4964 20.9837 36.667 20.9837 30.0912 22.4845C23.5154 23.9854 17.3623 26.9486 12.089 31.154C10.452 32.4594 8.91289 33.8741 7.48107 35.3862C5.89458 37.0617 6.1479 39.6403 7.80133 41.0658L27.0551 57.6656C28.7745 59.1479 31.1476 58.8054 32.5942 57.5599C33.4044 56.8623 34.3102 56.2795 35.2866 55.8304C36.7804 55.1434 38.4043 54.7853 40.0485 54.7806C41.6927 54.7759 43.3187 55.1245 44.8164 55.8029C45.7953 56.2463 46.7046 56.8239 47.5188 57.5168C48.9725 58.754 51.3476 59.0828 53.0584 57.5905L72.216 40.8799C73.8612 39.4448 74.0997 36.8648 72.5035 35.1985C71.1226 33.7569 69.6434 32.4052 68.0744 31.154C62.801 26.9486 56.6479 23.9854 50.0722 22.4845ZM41.5907 29.1228C41.5906 28.5888 41.377 28.077 40.9974 27.7014C40.6177 27.3258 40.1037 27.1176 39.5697 27.1232L39.5627 27.1233C38.4667 27.135 37.5843 28.0268 37.5841 29.1229L37.5838 31.123C37.5837 31.6574 37.7975 32.1696 38.1774 32.5454C38.5574 32.9211 39.0719 33.1292 39.6063 33.1232L39.6131 33.1231C40.7091 33.111 41.5912 32.219 41.591 31.1229L41.5907 29.1228ZM52.2363 28.9952C51.19 28.6668 50.0744 29.2422 49.7354 30.2851L49.117 32.1872C48.9518 32.6953 48.9968 33.2483 49.2419 33.723C49.487 34.1978 49.9119 34.5547 50.4218 34.7142L50.4283 34.7163C51.4745 35.0439 52.5895 34.4681 52.9281 33.4254L53.5459 31.5231C53.7108 31.0154 53.6658 30.4628 53.4211 29.9884C53.1764 29.514 52.7522 29.1572 52.2429 28.9972L52.2363 28.9952ZM29.5183 30.5275C29.3532 30.0198 28.992 29.5992 28.5151 29.3593C28.0382 29.1193 27.4852 29.08 26.9792 29.2501L26.9725 29.2523C25.9332 29.6018 25.3691 30.7229 25.7077 31.7657L26.3255 33.6681C26.4905 34.1762 26.8519 34.5971 27.3292 34.8371C27.8065 35.0771 28.3599 35.1162 28.8662 34.9457L28.8729 34.9434C29.9119 34.5935 30.4756 33.4723 30.1366 32.4297L29.5183 30.5275ZM18.4987 35.5657C18.1852 35.1343 17.7123 34.846 17.1852 34.7648C16.6581 34.6837 16.1204 34.8164 15.6916 35.1335L15.6859 35.1378C14.8035 35.7907 14.6122 37.0327 15.2573 37.9208L16.4326 39.5391C16.7462 39.9709 17.2194 40.2594 17.7469 40.3406C18.2743 40.4217 18.8123 40.2886 19.2412 39.971L19.2469 39.9668C20.129 39.3136 20.3199 38.0715 19.6746 37.1836L18.4987 35.5657ZM39.5897 35.0001C40.6943 35.0001 41.5897 35.8955 41.5897 37.0001V47.0001C41.5897 48.1046 40.6943 49.0001 39.5897 49.0001C38.4852 49.0001 37.5897 48.1046 37.5897 47.0001V37.0001C37.5897 35.8955 38.4852 35.0001 39.5897 35.0001Z" stroke="currentColor" stroke-linecap="round" stroke-linejoin="round" />
</svg>