<svg width="80" height="80" viewBox="0 0 80 80" fill="none" xmlns="http://www.w3.org/2000/svg">
  <path fill-rule="evenodd" clip-rule="evenodd" d="M55 9C51.6863 9 49 11.6863 49 15C49 18.3137 51.6863 21 55 21C58.3137 21 61 18.3137 61 15C61 11.6863 58.3137 9 55 9ZM53 15C53 13.8954 53.8954 13 55 13C56.1046 13 57 13.8954 57 15C57 16.1046 56.1046 17 55 17C53.8954 17 53 16.1046 53 15Z" stroke="currentColor" stroke-linecap="round" stroke-linejoin="round" />
  <path d="M37.2668 49.0439H30.5329C30.4995 49.0625 30.4661 49.0814 30.4329 49.1006C28.2893 50.3382 26.9688 52.6254 26.9688 55.1006C26.9688 57.5758 28.2893 59.863 30.4329 61.1006C32.5765 62.3382 35.2175 62.3382 37.3611 61.1006C39.5047 59.863 40.8252 57.5758 40.8252 55.1006C40.8252 52.6254 39.5047 50.3382 37.3611 49.1006C37.3294 49.0823 37.2979 49.0634 37.2668 49.0439Z" stroke="currentColor" stroke-linecap="round" stroke-linejoin="round" />
  <path fill-rule="evenodd" clip-rule="evenodd" d="M29.3843 10.0997C32.1995 8.69204 35.5133 8.69204 38.3285 10.0997C41.7164 11.7936 43.8564 15.2562 43.8564 19.0439V42.7476L43.8579 42.7525C43.8592 42.7563 43.8614 42.7619 43.8651 42.7693C43.8779 42.7946 43.905 42.8332 43.9523 42.8723C47.5652 45.855 49.7128 50.3242 49.7128 55.0997C49.7128 60.7646 46.6906 65.9993 41.7846 68.8317C36.8786 71.6642 30.8342 71.6642 25.9282 68.8317C21.0222 65.9993 18 60.7646 18 55.0997C18 50.3242 20.1476 45.855 23.7605 42.8723C23.8079 42.8332 23.8349 42.7946 23.8477 42.7693C23.8535 42.7578 23.8557 42.7506 23.8564 42.7476V19.0439C23.8564 15.2562 25.9964 11.7936 29.3843 10.0997ZM36.5397 13.6774C34.8505 12.8328 32.8623 12.8328 31.1731 13.6774C29.1404 14.6937 27.8564 16.7713 27.8564 19.0439V42.7503C27.8564 44.0747 27.2041 45.2164 26.3071 45.957C23.6055 48.1872 22 51.5294 22 55.0997C22 59.3356 24.2598 63.2497 27.9282 65.3676C31.5966 67.4856 36.1162 67.4856 39.7846 65.3676C43.453 63.2497 45.7128 59.3356 45.7128 55.0997C45.7128 51.5294 44.1073 48.1872 41.4057 45.957C40.5087 45.2164 39.8564 44.0747 39.8564 42.7503V19.0439C39.8564 16.7713 38.5724 14.6937 36.5397 13.6774Z" stroke="currentColor" stroke-linecap="round" stroke-linejoin="round" />
</svg>