<svg width="80" height="80" viewBox="0 0 80 80" fill="none" xmlns="http://www.w3.org/2000/svg">
  <path d="M26.0396 16.8184C27.1442 16.8184 28.0396 17.7138 28.0396 18.8184V47.0185C28.0396 47.8828 28.6126 48.6245 29.3611 49.0566C31.5047 50.2942 32.8252 52.5814 32.8252 55.0566C32.8252 57.5318 31.5047 59.819 29.3611 61.0566C27.2175 62.2942 24.5765 62.2942 22.4329 61.0566C20.2893 59.819 18.9688 57.5318 18.9688 55.0566C18.9688 52.5814 20.2893 50.2942 22.4329 49.0566C22.4988 49.0186 22.5652 48.9817 22.632 48.946C23.424 48.5227 24.0396 47.7605 24.0396 46.8624V18.8184C24.0396 17.7138 24.935 16.8184 26.0396 16.8184Z" stroke="currentColor" stroke-linecap="round" stroke-linejoin="round" />
  <path fill-rule="evenodd" clip-rule="evenodd" d="M21.3843 10.0557C24.1995 8.64809 27.5133 8.64809 30.3285 10.0557C33.7164 11.7496 35.8564 15.2123 35.8564 19V42.7036C35.8571 42.7067 35.8593 42.7138 35.8651 42.7254C35.8779 42.7506 35.905 42.7893 35.9523 42.8284C39.5652 45.811 41.7128 50.2802 41.7128 55.0557C41.7128 60.7207 38.6906 65.9553 33.7846 68.7878C28.8786 71.6203 22.8342 71.6203 17.9282 68.7878C13.0222 65.9553 10 60.7207 10 55.0557C10 50.2802 12.1476 45.811 15.7605 42.8284C15.8079 42.7893 15.8349 42.7506 15.8477 42.7254C15.8535 42.7138 15.8557 42.7067 15.8564 42.7036V19C15.8564 15.2123 17.9964 11.7496 21.3843 10.0557ZM28.5397 13.6334C26.8505 12.7889 24.8623 12.7889 23.1731 13.6334C21.1404 14.6498 19.8564 16.7274 19.8564 19V42.7063C19.8564 44.0308 19.2041 45.1725 18.3071 45.913C15.6055 48.1433 14 51.4855 14 55.0557C14 59.2916 16.2598 63.2057 19.9282 65.3237C23.5966 67.4416 28.1162 67.4416 31.7846 65.3237C35.453 63.2057 37.7128 59.2916 37.7128 55.0557C37.7128 51.4855 36.1073 48.1433 33.4057 45.913C32.5087 45.1725 31.8564 44.0308 31.8564 42.7063V19C31.8564 16.7274 30.5724 14.6498 28.5397 13.6334Z" stroke="currentColor" stroke-linecap="round" stroke-linejoin="round" />
  <path fill-rule="evenodd" clip-rule="evenodd" d="M56.6978 9.94284C56.3326 9.35646 55.6908 9 55 9C54.3092 9 53.6674 9.35646 53.3022 9.94284L51.0739 13.5215L46.9677 12.5667C46.2949 12.4102 45.589 12.6121 45.1005 13.1005C44.6121 13.589 44.4102 14.2949 44.5667 14.9677L45.5215 19.0739L41.9428 21.3022C41.3565 21.6674 41 22.3092 41 23C41 23.6908 41.3565 24.3326 41.9428 24.6978L45.5215 26.9261L44.5667 31.0323C44.4102 31.7051 44.6121 32.411 45.1005 32.8995C45.589 33.3879 46.2949 33.5898 46.9677 33.4333L51.0739 32.4785L53.3022 36.0572C53.6674 36.6435 54.3092 37 55 37C55.6908 37 56.3326 36.6435 56.6978 36.0572L58.9261 32.4785L63.0323 33.4333C63.7051 33.5898 64.411 33.3879 64.8995 32.8995C65.3879 32.411 65.5898 31.7051 65.4333 31.0323L64.4785 26.9261L68.0572 24.6978C68.6435 24.3326 69 23.6908 69 23C69 22.3092 68.6435 21.6674 68.0572 21.3022L64.4785 19.0739L65.4333 14.9677C65.5898 14.2949 65.3879 13.589 64.8995 13.1005C64.411 12.6121 63.7051 12.4102 63.0323 12.5667L58.9261 13.5215L56.6978 9.94284ZM53.7128 16.8509L55 14.7837L56.2872 16.8509C56.7396 17.5775 57.6042 17.9356 58.4379 17.7418L60.8098 17.1902L60.2582 19.5621C60.0644 20.3958 60.4225 21.2604 61.1491 21.7128L63.2163 23L61.1491 24.2872C60.4225 24.7396 60.0644 25.6042 60.2582 26.4379L60.8098 28.8098L58.4379 28.2582C57.6042 28.0644 56.7396 28.4225 56.2872 29.1491L55 31.2163L53.7128 29.1491C53.2604 28.4225 52.3958 28.0644 51.5621 28.2582L49.1902 28.8098L49.7418 26.4379C49.9356 25.6042 49.5775 24.7396 48.8509 24.2872L46.7837 23L48.8509 21.7128C49.5775 21.2604 49.9356 20.3958 49.7418 19.5621L49.1902 17.1902L51.5621 17.7418C52.3958 17.9356 53.2604 17.5775 53.7128 16.8509Z" stroke="currentColor" stroke-linecap="round" stroke-linejoin="round" />
</svg>