<svg width="80" height="80" viewBox="0 0 80 80" fill="none" xmlns="http://www.w3.org/2000/svg">
  <path fill-rule="evenodd" clip-rule="evenodd" d="M38.4005 15.2524C39.3433 14.8618 40.4026 14.8618 41.3454 15.2524C42.2882 15.6429 43.0373 16.3919 43.4278 17.3348C43.6044 17.7612 43.7012 18.2114 43.718 18.664C44.0859 17.7413 45.0916 17.215 46.078 17.4713C47.1528 17.7505 48.213 18.1051 49.2507 18.5349C55.1738 20.9883 59.8796 25.6942 62.333 31.6173C64.7865 37.5404 64.7865 44.1955 62.333 50.1186C59.8796 56.0417 55.1738 60.7475 49.2507 63.201C43.3276 65.6544 36.6725 65.6544 30.7494 63.201C24.8263 60.7475 20.1204 56.0417 17.667 50.1186C15.2135 44.1955 15.2135 37.5404 17.667 31.6173L17.9328 30.9756C18.3415 29.9889 18.8174 29.0383 19.3551 28.1296C19.9175 27.1789 21.1441 26.8642 22.0947 27.4266C23.0454 27.989 23.3601 29.2156 22.7977 30.1663C22.3557 30.9134 21.9644 31.6949 21.6283 32.5063L21.3625 33.148C19.315 38.091 19.315 43.6449 21.3625 48.5878C23.4099 53.5308 27.3371 57.458 32.2801 59.5054C37.2231 61.5529 42.777 61.5529 47.7199 59.5054C52.6629 57.458 56.5901 53.5308 58.6375 48.5878C60.685 43.6449 60.685 38.091 58.6375 33.148C56.5901 28.205 52.6629 24.2778 47.7199 22.2304C46.8538 21.8716 45.9691 21.5758 45.0722 21.3428C44.2881 21.1391 43.734 20.4975 43.6039 19.7481C43.5585 19.9283 43.4998 20.106 43.4278 20.2797C43.0373 21.2225 42.2882 21.9716 41.3454 22.3621C40.4026 22.7526 39.3433 22.7526 38.4005 22.3621C37.4577 21.9716 36.7086 21.2225 36.3181 20.2797C35.9275 19.3369 35.9275 18.2776 36.3181 17.3348C36.7086 16.3919 37.4577 15.6429 38.4005 15.2524ZM39.9312 18.9479C39.9685 18.9324 39.9981 18.9028 40.0136 18.8655C40.029 18.8282 40.029 18.7863 40.0136 18.749C39.9981 18.7117 39.9685 18.682 39.9312 18.6666C39.8939 18.6511 39.852 18.6511 39.8147 18.6666C39.7774 18.682 39.7477 18.7117 39.7323 18.749C39.7168 18.7863 39.7168 18.8282 39.7323 18.8655C39.7477 18.9028 39.7774 18.9324 39.8147 18.9479C39.852 18.9633 39.8939 18.9633 39.9312 18.9479Z" stroke="currentColor" stroke-linecap="round" stroke-linejoin="round" />
  <path d="M24.3207 22.4161C23.5266 21.7442 22.3501 21.7931 21.6146 22.5286C20.8791 23.2641 20.8301 24.4407 21.502 25.2347L36.4795 42.9354C37.2266 43.8183 38.3246 44.3276 39.4813 44.3276C41.653 44.3276 43.4136 42.5671 43.4136 40.3953C43.4136 39.2387 42.9043 38.1407 42.0213 37.3935L24.3207 22.4161Z" stroke="currentColor" stroke-linecap="round" stroke-linejoin="round" />
</svg>