<svg width="80" height="80" viewBox="0 0 80 80" fill="none" xmlns="http://www.w3.org/2000/svg">
  <path fill-rule="evenodd" clip-rule="evenodd" d="M16 22C10.4772 22 6 26.4772 6 32V48C6 53.5228 10.4772 58 16 58H64C69.5228 58 74 53.5228 74 48V32C74 26.4772 69.5228 22 64 22H16ZM32 26H16C12.6863 26 10 28.6863 10 32V48C10 51.3137 12.6863 54 16 54H32C35.3137 54 38 51.3137 38 48V32C38 28.6863 35.3137 26 32 26ZM40.0007 54C41.2561 52.3287 42 50.2512 42 48V32C42 29.7488 41.2561 27.6713 40.0007 26H64C67.3137 26 70 28.6863 70 32V48C70 51.3137 67.3137 54 64 54H40.0007Z" stroke="currentColor" stroke-linecap="round" stroke-linejoin="round" />
</svg>