<svg width="80" height="80" viewBox="0 0 80 80" fill="none" xmlns="http://www.w3.org/2000/svg">
  <path fill-rule="evenodd" clip-rule="evenodd" d="M38.4786 13.6051C34.0353 9.16178 27.5591 7.42648 21.4895 9.05284C20.7563 9.2493 20.0422 9.4913 19.3505 9.77573C18.7319 10.0301 18.2814 10.5769 18.1501 11.2327C18.0187 11.8886 18.224 12.5667 18.6969 13.0397L25.9472 20.2899C25.9763 20.3232 26.0067 20.3557 26.0382 20.3872L28.3775 22.7265L27.1833 27.1831L22.7268 28.3772L20.3875 26.038C20.3563 26.0068 20.3244 25.9768 20.2917 25.9482L13.0398 18.6962C12.5668 18.2233 11.8888 18.0181 11.2329 18.1494C10.5771 18.2807 10.0303 18.7311 9.7759 19.3497C9.49128 20.0417 9.24912 20.7562 9.05256 21.4898C7.4262 27.5594 9.1615 34.0356 13.6048 38.4789C16.1842 41.0583 19.4485 42.725 22.9206 43.3513L9.59394 56.678C8.03184 58.2401 8.03184 60.7728 9.59394 62.3349L16.665 69.406C18.2271 70.9681 20.7598 70.9681 22.3219 69.406L38.5853 53.1425C39.09 52.6378 39.5223 52.088 39.882 51.5062L54.1705 65.7947C57.2947 68.9189 62.3601 68.9189 65.4842 65.7947C68.6084 62.6705 68.6084 57.6052 65.4842 54.481L46.4158 35.4125L49.3308 32.4975L57.1971 32.3302C57.7908 32.3175 58.3481 32.0418 58.7183 31.5775L69.8475 17.6198C70.4821 16.824 70.4178 15.6785 69.698 14.9587L64.0412 9.30188C63.3214 8.58214 62.1759 8.51777 61.3801 9.15234L47.4224 20.2816C46.9581 20.6518 46.6824 21.2091 46.6697 21.8028L46.5024 29.6691L43.5874 32.5841L42.6974 31.6941C42.82 31.3327 42.9313 30.9659 43.0308 30.5942C44.6572 24.5246 42.9219 18.0483 38.4786 13.6051ZM36.0933 43.6143C36.0047 43.5062 35.9109 43.4009 35.8118 43.2988C35.7937 43.2801 35.7754 43.2615 35.7569 43.243C34.8143 42.3005 33.5887 41.8129 32.3535 41.7803C32.2763 41.7782 32.1991 41.778 32.1219 41.7795C30.8756 41.8041 29.6368 42.292 28.6858 43.243L12.4224 59.5065L19.4934 66.5775L35.7569 50.3141C37.5901 48.4809 37.7022 45.5783 36.0933 43.6143ZM41.2125 47.1798L56.999 62.9663C58.5611 64.5284 61.0937 64.5284 62.6558 62.9663C64.2179 61.4042 64.2179 58.8715 62.6558 57.3094L43.5874 38.2409L39.8418 41.9865C40.8354 43.5632 41.2922 45.3812 41.2125 47.1798ZM32.907 37.8045C34.3412 37.9134 35.7542 38.3645 37.0134 39.158L40.7589 35.4125L38.9521 33.6057C38.3735 33.0271 38.2057 32.1546 38.5284 31.4027C38.783 30.8094 38.997 30.1937 39.1671 29.5589C40.4236 24.8697 39.083 19.8663 35.6502 16.4335C32.559 13.3423 28.1943 11.9476 23.9322 12.6181L28.8698 17.5557C28.9013 17.5872 28.9317 17.6196 28.9608 17.653L32.0224 20.7146C32.5277 21.2198 32.725 21.9562 32.54 22.6464L30.7482 29.3337C30.5633 30.0239 30.0242 30.563 29.334 30.7479L22.6467 32.5398C21.9565 32.7247 21.2201 32.5274 20.7148 32.0221L17.6519 28.9592C17.6192 28.9305 17.5872 28.9005 17.5561 28.8694L12.618 23.9313C11.9471 28.1938 13.3418 32.559 16.4332 35.6505C19.1924 38.4096 22.9666 39.8174 26.7767 39.6109C28.4619 38.3275 30.4964 37.7182 32.5131 37.7832C32.6445 37.7875 32.7759 37.7946 32.907 37.8045ZM62.4765 13.394L50.6489 22.8248L50.5288 28.4711L56.1751 28.351L65.6059 16.5234L62.4765 13.394Z" stroke="currentColor" stroke-linecap="round" stroke-linejoin="round" />
</svg>