<svg width="80" height="80" viewBox="0 0 80 80" fill="none" xmlns="http://www.w3.org/2000/svg">
  <path fill-rule="evenodd" clip-rule="evenodd" d="M41.4949 8.67127C41.1153 8.2443 40.5713 8 40 8C39.4288 8 38.8847 8.2443 38.5052 8.67127L22.5052 26.6713C21.982 27.2599 21.8529 28.1008 22.1756 28.8193C22.4982 29.5378 23.2125 30 24 30H27.7175L17.4949 41.683C16.9781 42.2736 16.8545 43.1118 17.1788 43.8264C17.503 44.5411 18.2153 45 19 45H24.8797L14.5052 56.6713C13.982 57.2599 13.8529 58.1008 14.1756 58.8193C14.4982 59.5378 15.2125 60 16 60H33.911V64.8342C33.911 65.5425 33.7229 66.238 33.3661 66.8497L32.4102 68.4884C31.2436 70.4884 32.6862 73 35.0015 73H45.5195C47.8348 73 49.2775 70.4884 48.1108 68.4884L46.4559 65.6513C46.099 65.0396 45.911 64.3441 45.911 63.6358V60H64C64.7876 60 65.5019 59.5378 65.8245 58.8193C66.1472 58.1008 66.0181 57.2599 65.4949 56.6713L55.1204 45H61C61.7848 45 62.497 44.5411 62.8213 43.8264C63.1456 43.1118 63.0219 42.2736 62.5052 41.683L52.2826 30H56C56.7876 30 57.5019 29.5378 57.8245 28.8193C58.1472 28.1008 58.0181 27.2599 57.4949 26.6713L41.4949 8.67127ZM41.911 60H37.911V64.8342C37.911 66.2507 37.5349 67.6417 36.8212 68.8652L36.7426 69H43.7784L43.0007 67.6668C42.287 66.4433 41.911 65.0523 41.911 63.6358V60ZM59.5463 56L49.1719 44.3287C48.6486 43.7401 48.5196 42.8992 48.8422 42.1807C49.1649 41.4622 49.8791 41 50.6667 41H56.5925L46.3699 29.317C45.8531 28.7264 45.7295 27.8882 46.0538 27.1736C46.378 26.4589 47.0903 26 47.875 26H51.5463L40 13.0104L28.4537 26H32.125C32.9098 26 33.622 26.4589 33.9463 27.1736C34.2706 27.8882 34.1469 28.7264 33.6302 29.317L23.4076 41H29.3334C30.121 41 30.8352 41.4622 31.1578 42.1807C31.4805 42.8992 31.3514 43.7401 30.8282 44.3287L20.4537 56H59.5463Z" stroke="currentColor" stroke-linecap="round" stroke-linejoin="round" />
</svg>