<svg width="80" height="80" viewBox="0 0 80 80" fill="none" xmlns="http://www.w3.org/2000/svg">
  <path fill-rule="evenodd" clip-rule="evenodd" d="M24.9412 44.4805C24.9412 37.8531 30.3137 32.4805 36.9412 32.4805H46.0522V28.4536C46.0522 25.4909 49.6601 24.0362 51.7151 26.1703L57.2257 31.8928C58.6169 33.3376 58.6169 35.6237 57.2257 37.0685L51.7151 42.791C49.6601 44.9251 46.0522 43.4704 46.0522 40.5077V36.4805H36.9412C32.5229 36.4805 28.9412 40.0622 28.9412 44.4805V51.2497C28.9412 52.3543 28.0457 53.2497 26.9412 53.2497C25.8366 53.2497 24.9412 52.3543 24.9412 51.2497V44.4805ZM50.0522 34.4901V38.7512L54.1646 34.4807L50.0522 30.2101V34.4708C50.0523 34.474 50.0523 34.4772 50.0523 34.4805C50.0523 34.4837 50.0523 34.4869 50.0522 34.4901Z" stroke="currentColor" stroke-linecap="round" stroke-linejoin="round" />
  <path fill-rule="evenodd" clip-rule="evenodd" d="M35.6985 7.4141C38.0416 5.07095 41.8406 5.07095 44.1838 7.4141L72.468 35.6984C74.8112 38.0415 74.8112 41.8405 72.468 44.1837L44.1838 72.4679C41.8406 74.8111 38.0416 74.8111 35.6985 72.4679L7.41422 44.1837C5.07107 41.8405 5.07107 38.0415 7.41422 35.6984L35.6985 7.4141ZM41.3553 10.2425C40.5743 9.46148 39.308 9.46148 38.5269 10.2425L10.2426 38.5268C9.4616 39.3078 9.4616 40.5742 10.2426 41.3552L38.5269 69.6395C39.308 70.4205 40.5743 70.4205 41.3553 69.6395L69.6396 41.3552C70.4207 40.5742 70.4207 39.3078 69.6396 38.5268L41.3553 10.2425Z" stroke="currentColor" stroke-linecap="round" stroke-linejoin="round" />
</svg>