<svg width="80" height="80" viewBox="0 0 80 80" fill="none" xmlns="http://www.w3.org/2000/svg">
  <path fill-rule="evenodd" clip-rule="evenodd" d="M41.1429 24.0001C35.6989 24.0001 31.2857 28.4133 31.2857 33.8573L31.2857 41.7145H26.6366C23.5128 41.7145 21.9484 45.4913 24.1572 47.7001L30.5078 54.0507C32.042 55.5849 34.5295 55.5849 36.0637 54.0507L42.4142 47.7001C44.6231 45.4912 43.0587 41.7145 39.9349 41.7145H35.2857L35.2857 33.8573C35.2857 30.6224 37.908 28.0001 41.1429 28.0001C44.3777 28.0001 47 30.6224 47 33.8573L47 50.0001C47 51.1047 47.8954 52.0001 49 52.0001C50.1046 52.0001 51 51.1047 51 50.0001L51 33.8573C51 28.4133 46.5868 24.0001 41.1429 24.0001ZM27.8285 45.7145L33.2857 51.1718L38.743 45.7145L27.8285 45.7145Z" stroke="currentColor" stroke-linecap="round" stroke-linejoin="round" />
  <path fill-rule="evenodd" clip-rule="evenodd" d="M37.1716 6.00019C38.7337 4.43809 41.2664 4.43809 42.8285 6.00019L73.9411 37.1129C75.5032 38.675 75.5032 41.2076 73.9411 42.7697L42.8285 73.8824C41.2664 75.4445 38.7337 75.4445 37.1716 73.8824L6.0589 42.7697C4.49681 41.2076 4.4968 38.675 6.0589 37.1129L37.1716 6.00019ZM71.1127 39.9413L40 8.82861L8.88733 39.9413L40 71.054L71.1127 39.9413Z" stroke="currentColor" stroke-linecap="round" stroke-linejoin="round" />
</svg>