<svg width="80" height="80" viewBox="0 0 80 80" fill="none" xmlns="http://www.w3.org/2000/svg">
  <path fill-rule="evenodd" clip-rule="evenodd" d="M34.1465 21.0008C34.1465 17.4375 29.8387 15.6527 27.3186 18.1719L16.3185 29.1678H6.14648C3.93734 29.1678 2.14648 30.9587 2.14648 33.1678V47.1611C2.14648 49.3702 3.93734 51.1611 6.14648 51.1611H16.3181L27.3186 62.1575C29.8387 64.6766 34.1465 62.8917 34.1465 59.3285V21.0008ZM19.1464 31.9968L30.1465 21.0008L30.1465 59.3285L19.146 48.3321C18.3959 47.5823 17.3787 47.1611 16.3181 47.1611H6.14648V33.1678H16.3185C17.3791 33.1678 18.3963 32.7466 19.1464 31.9968Z" stroke="currentColor" stroke-linecap="round" stroke-linejoin="round" />
  <path d="M46.54 43.7577C47.1814 41.2904 47.1814 38.7243 46.54 36.257C45.899 33.7912 44.6389 31.5059 42.8753 29.5644C41.5858 28.1447 40.0512 26.9351 38.3417 25.9742C37.3788 25.433 36.1595 25.7748 35.6183 26.7377C35.0771 27.7006 35.4189 28.9199 36.3818 29.4611C37.7338 30.221 38.9263 31.1659 39.9145 32.2538C41.2646 33.7402 42.1985 35.4547 42.6687 37.2634C43.1385 39.0707 43.1385 40.944 42.6687 42.7513C42.1985 44.56 41.2646 46.2745 39.9145 47.7609C38.9268 48.8482 37.7352 49.7925 36.3842 50.5522C35.4214 51.0936 35.0798 52.313 35.6212 53.2758C36.1626 54.2386 37.382 54.5802 38.3448 54.0388C40.053 53.0782 41.5866 51.8692 42.8753 50.4503C44.6389 48.5088 45.899 46.2235 46.54 43.7577Z" stroke="currentColor" stroke-linecap="round" stroke-linejoin="round" />
</svg>