<svg width="80" height="80" viewBox="0 0 80 80" fill="none" xmlns="http://www.w3.org/2000/svg">
  <path fill-rule="evenodd" clip-rule="evenodd" d="M47.1746 25.1172C48.7056 24.0724 49.8016 22.4813 50.22 20.648C50.7216 18.4507 50.1952 16.1447 48.79 14.3826C47.3848 12.6205 45.2537 11.5942 42.9999 11.5942C40.7461 11.5942 38.615 12.6205 37.2098 14.3826C35.8046 16.1447 35.2783 18.4507 35.7798 20.648C36.0647 21.8961 36.6636 23.032 37.5 23.9596C36.7824 24.2526 36.0972 24.6292 35.4593 25.0848L31.9627 27.5821C30.2918 28.7754 28.9039 30.3216 27.8973 32.1111L24.2707 38.5585C22.6461 41.4466 23.6704 45.1049 26.5586 46.7295C28.4937 47.818 30.7746 47.7173 32.5578 46.6636L30.4719 53.8119C30.3531 54.2193 30.1078 54.5782 29.7714 54.8369L25.3418 58.2444C22.7153 60.2648 22.2239 64.0319 24.2443 66.6584C26.2647 69.2849 30.0318 69.7763 32.6583 67.7559L37.088 64.3484C38.8215 63.015 40.2096 61.301 41.1533 59.3516L42.679 65.4551C43.4826 68.6699 46.7402 70.6245 49.955 69.8209C53.1698 69.0173 55.1244 65.7597 54.3208 62.545L52.1894 54.0187C51.7634 52.3146 51.0206 50.7059 49.9996 49.2765L47.3267 45.5345L47.4914 44.5449L50.1268 45.9824C53.0359 47.5692 56.6805 46.4972 58.2673 43.5881C59.854 40.679 58.7821 37.0344 55.873 35.4476L52.8607 33.8046C52.4583 33.5851 52.1435 33.2341 51.969 32.8103L50.5781 29.4322C49.8509 27.6663 48.6573 26.1884 47.1746 25.1172ZM39.6795 19.7579C39.9101 20.7684 40.5884 21.6189 41.5222 22.0686C42.456 22.5183 43.5438 22.5183 44.4776 22.0686C45.4115 21.6189 46.0897 20.7684 46.3203 19.7579C46.551 18.7474 46.3089 17.6869 45.6627 16.8766C45.0164 16.0662 44.0364 15.5942 42.9999 15.5942C41.9634 15.5942 40.9834 16.0662 40.3371 16.8766C39.6909 17.6869 39.4488 18.7474 39.6795 19.7579ZM36.6077 51.1735L38.7147 54.1233L38.1517 56.0529C37.5574 58.0895 36.3307 59.8844 34.6491 61.1779L30.2195 64.5854C29.344 65.2588 28.0883 65.095 27.4148 64.2195C26.7413 63.344 26.9051 62.0883 27.7806 61.4149L32.2103 58.0074C33.2192 57.2313 33.9552 56.1544 34.3118 54.9324L35.6686 50.2827L35.7024 50.3181C35.9888 50.6161 36.2908 50.9016 36.6077 51.1735ZM43.4897 53.9264L39.5618 48.4274L39.3575 48.2595C39.2296 48.1545 39.1051 48.0463 38.984 47.9351C38.7343 47.7057 38.4992 47.4635 38.2794 47.21C37.9396 46.8182 37.6362 46.3993 37.3715 45.9589C37.1522 45.5942 36.9595 45.2146 36.7946 44.8234L36.7897 44.8118C36.3487 43.7612 36.1081 42.6265 36.0931 41.4675L35.9967 34.0301L31.2433 42.4806C30.7018 43.4433 29.4823 43.7847 28.5196 43.2432C27.5569 42.7017 27.2155 41.4822 27.757 40.5195L31.3836 34.0722C32.1026 32.794 33.094 31.6895 34.2874 30.8371L37.7841 28.3398C38.8084 27.6083 40.0357 27.215 41.2944 27.215C43.7419 27.215 45.9475 28.6921 46.8794 30.9552L48.2703 34.3333C48.7938 35.6047 49.7382 36.6577 50.9453 37.3161L53.9576 38.9592C54.9273 39.4881 55.2846 40.703 54.7557 41.6727C54.2268 42.6424 53.0119 42.9997 52.0422 42.4708L49.0299 40.8277C48.4183 40.4941 47.8472 40.0998 47.324 39.653L44.6334 37.3549L43.109 46.5115L46.7447 51.6015C47.4739 52.6224 48.0045 53.7715 48.3088 54.9887L50.4402 63.515C50.7081 64.5866 50.0565 65.6725 48.9849 65.9403C47.9133 66.2082 46.8275 65.5567 46.5596 64.4851L44.4282 55.9588C44.2457 55.2284 43.9273 54.539 43.4897 53.9264Z" stroke="currentColor" stroke-linecap="round" stroke-linejoin="round" />
</svg>