<svg width="80" height="80" viewBox="0 0 80 80" fill="none" xmlns="http://www.w3.org/2000/svg">
  <path d="M46.531 29.5685C42.2399 28.5891 37.7832 28.5891 33.4922 29.5685C29.201 30.548 25.1858 32.4816 21.7446 35.2259C19.8409 36.744 18.1399 38.4887 16.6767 40.416C16.0088 41.2957 16.1805 42.5504 17.0603 43.2183C17.94 43.8862 19.1947 43.7145 19.8626 42.8347C21.126 41.1705 22.5947 39.6641 24.2385 38.3532C27.2099 35.9836 30.677 34.314 34.3822 33.4683C38.0875 32.6226 41.9356 32.6226 45.6409 33.4683C49.3461 34.314 52.8132 35.9836 55.7846 38.3532C57.4277 39.6635 58.8958 41.1693 60.1589 42.8326C60.827 43.7123 62.0816 43.8839 62.9613 43.2159C63.841 42.5479 64.0126 41.2932 63.3446 40.4135C61.8818 38.4872 60.1814 36.7434 58.2786 35.2259C54.8374 32.4816 50.8221 30.548 46.531 29.5685Z" stroke="currentColor" stroke-linecap="round" stroke-linejoin="round" />
  <path d="M43.9278 42.9744C41.3502 42.3861 38.6731 42.3861 36.0955 42.9744C33.5179 43.5628 31.106 44.7243 29.0389 46.3727C27.5268 47.5786 26.2277 49.0224 25.19 50.6432C24.5945 51.5734 24.8658 52.8104 25.796 53.4059C26.7263 54.0015 27.9632 53.7301 28.5588 52.7999C29.3606 51.5475 30.3645 50.4318 31.5329 49.5C33.1302 48.2263 34.9939 47.3288 36.9856 46.8742C38.9774 46.4196 41.0459 46.4196 43.0377 46.8742C45.0294 47.3288 46.8931 48.2263 48.4904 49.5C49.6581 50.4313 50.6615 51.5461 51.4631 52.7976C52.0588 53.7278 53.2958 53.9989 54.2259 53.4031C55.1561 52.8074 55.4272 51.5704 54.8314 50.6403C53.7941 49.0206 52.4956 47.5779 50.9843 46.3727C48.9173 44.7243 46.5054 43.5628 43.9278 42.9744Z" stroke="currentColor" stroke-linecap="round" stroke-linejoin="round" />
  <path fill-rule="evenodd" clip-rule="evenodd" d="M40.0038 54C36.6901 54 34.0038 56.6863 34.0038 60C34.0038 63.3137 36.6901 66 40.0038 66C43.3175 66 46.0038 63.3137 46.0038 60C46.0038 56.6863 43.3175 54 40.0038 54ZM38.0038 60C38.0038 58.8954 38.8993 58 40.0038 58C41.1084 58 42.0038 58.8954 42.0038 60C42.0038 61.1046 41.1084 62 40.0038 62C38.8993 62 38.0038 61.1046 38.0038 60Z" stroke="currentColor" stroke-linecap="round" stroke-linejoin="round" />
</svg>