<svg width="80" height="80" viewBox="0 0 80 80" fill="none" xmlns="http://www.w3.org/2000/svg">
  <path d="M49.1246 16.1675C43.12 14.797 36.8838 14.797 30.8792 16.1675C24.8746 17.538 19.2559 20.2438 14.4406 24.0839C12.1181 25.9361 10.0112 28.0292 8.15238 30.3226C7.45687 31.1807 7.58869 32.4402 8.4468 33.1357C9.30491 33.8312 10.5644 33.6993 11.2599 32.8412C12.9373 30.7716 14.8386 28.8827 16.9346 27.2113C21.2801 23.7458 26.3505 21.304 31.7693 20.0672C37.188 18.8305 42.8158 18.8305 48.2345 20.0672C53.6533 21.304 58.7237 23.7458 63.0692 27.2113C65.1668 28.884 67.0694 30.7745 68.7477 32.8459C69.4431 33.7041 70.7025 33.8362 71.5608 33.1408C72.419 32.4454 72.551 31.186 71.8556 30.3278C69.9958 28.0324 67.8875 25.9375 65.5632 24.0839C60.7479 20.2438 55.1292 17.538 49.1246 16.1675Z" stroke="currentColor" stroke-linecap="round" stroke-linejoin="round" />
  <path d="M46.5273 29.5685C42.2362 28.5891 37.7795 28.5891 33.4884 29.5685C29.1973 30.548 25.182 32.4816 21.7409 35.2259C19.8372 36.744 18.1362 38.4887 16.673 40.416C16.0051 41.2957 16.1768 42.5504 17.0566 43.2183C17.9363 43.8862 19.1909 43.7145 19.8589 42.8347C21.1223 41.1705 22.591 39.6641 24.2348 38.3532C27.2062 35.9836 30.6733 34.314 34.3785 33.4683C38.0838 32.6226 41.9319 32.6226 45.6372 33.4683C49.3424 34.314 52.8095 35.9836 55.7809 38.3532C57.424 39.6635 58.8921 41.1693 60.1552 42.8326C60.8232 43.7123 62.0779 43.8839 62.9576 43.2159C63.8372 42.5479 64.0088 41.2932 63.3408 40.4135C61.878 38.4872 60.1777 36.7434 58.2748 35.2259C54.8336 32.4816 50.8184 30.548 46.5273 29.5685Z" stroke="currentColor" stroke-linecap="round" stroke-linejoin="round" />
  <path d="M43.924 42.9744C41.3464 42.3861 38.6694 42.3861 36.0918 42.9744C33.5142 43.5628 31.1023 44.7243 29.0352 46.3727C27.5231 47.5786 26.2239 49.0224 25.1863 50.6432C24.5907 51.5734 24.8621 52.8103 25.7923 53.4059C26.7226 54.0015 27.9595 53.7301 28.5551 52.7999C29.3569 51.5475 30.3608 50.4318 31.5292 49.5C33.1264 48.2263 34.9902 47.3288 36.9819 46.8742C38.9736 46.4196 41.0422 46.4196 43.034 46.8742C45.0257 47.3288 46.8894 48.2263 48.4867 49.5C49.6544 50.4313 50.6578 51.5461 51.4594 52.7976C52.0551 53.7278 53.2921 53.9989 54.2222 53.4031C55.1524 52.8074 55.4234 51.5704 54.8277 50.6403C53.7904 49.0206 52.4919 47.5779 50.9806 46.3727C48.9136 44.7243 46.5016 43.5628 43.924 42.9744Z" stroke="currentColor" stroke-linecap="round" stroke-linejoin="round" />
  <path fill-rule="evenodd" clip-rule="evenodd" d="M40.0001 54C36.6864 54 34.0001 56.6863 34.0001 60C34.0001 63.3137 36.6864 66 40.0001 66C43.3138 66 46.0001 63.3137 46.0001 60C46.0001 56.6863 43.3138 54 40.0001 54ZM38.0001 60C38.0001 58.8954 38.8955 58 40.0001 58C41.1047 58 42.0001 58.8954 42.0001 60C42.0001 61.1046 41.1047 62 40.0001 62C38.8955 62 38.0001 61.1046 38.0001 60Z" stroke="currentColor" stroke-linecap="round" stroke-linejoin="round" />
</svg>