<svg viewBox="0 0 80 80" fill="none">
  <path fill-rule="evenodd" clip-rule="evenodd" d="M17.1189 44.2483L8.37197 35.5014C7.7349 34.8643 7.60243 33.8799 8.04843 33.0971C9.66732 30.2556 11.6649 27.6306 13.9973 25.2982C18.5617 20.7338 24.2472 17.4513 30.4823 15.7806C36.7174 14.1099 43.2825 14.1099 49.5176 15.7806C55.7527 17.4513 61.4382 20.7338 66.0026 25.2982C68.3349 27.6306 70.3326 30.2556 71.9515 33.0971C72.3974 33.8799 72.265 34.8643 71.6279 35.5014L62.8813 44.248C62.8791 44.2503 62.8769 44.2525 62.8746 44.2547L42.8284 64.3009C41.4615 65.6677 39.3516 65.8386 37.799 64.8135C37.5772 64.667 37.3668 64.4962 37.1715 64.3009L17.1254 44.2548C17.1232 44.2527 17.1211 44.2505 17.1189 44.2483ZM31.5176 19.6443C37.0745 18.1553 42.9254 18.1553 48.4823 19.6443C54.0392 21.1333 59.1063 24.0587 63.1742 28.1267C64.8923 29.8448 66.4067 31.7412 67.695 33.7774L61.5958 39.8766C61.2538 39.4964 60.9013 39.1247 60.5386 38.762C56.9333 35.1567 52.4426 32.564 47.5177 31.2444C42.5928 29.9247 37.4073 29.9247 32.4824 31.2444C27.5575 32.564 23.0668 35.1567 19.4615 38.762C19.0987 39.1248 18.7462 39.4965 18.4042 39.8767L12.3049 33.7774C13.5932 31.7412 15.1076 29.8448 16.8257 28.1267C20.8936 24.0587 25.9607 21.1333 31.5176 19.6443ZM21.2372 42.7098L39.9999 61.4725L58.7628 42.7097C58.4241 42.3266 58.0731 41.9533 57.7102 41.5904C54.6014 38.4816 50.7291 36.246 46.4824 35.1081C42.2357 33.9702 37.7644 33.9702 33.5177 35.1081C29.271 36.246 25.3987 38.4816 22.2899 41.5904C21.927 41.9534 21.576 42.3267 21.2372 42.7098Z" stroke="currentColor" stroke-linecap="round" stroke-linejoin="round" />
</svg>