<svg viewBox="0 0 80 80" fill="none">
  <path fill-rule="evenodd" clip-rule="evenodd" d="M17.6764 14.5007C18.1065 14.121 18.6788 13.9443 19.2481 14.0155L27.2217 15.0122C27.241 15.0143 27.2602 15.0167 27.2794 15.0194L43.2217 17.0122C43.241 17.0143 43.2603 17.0167 43.2794 17.0194L59.2217 19.0122C59.241 19.0143 59.2602 19.0167 59.2794 19.0194L67.2481 20.0155C68.2489 20.1406 69 20.9914 69 22V42C69 43.0087 68.2489 43.8595 67.2481 43.9846L59.2794 44.9807C59.2602 44.9833 59.241 44.9857 59.2218 44.9879L43.2794 46.9806C43.2603 46.9833 43.241 46.9857 43.2217 46.9879L27.2794 48.9806C27.2603 48.9833 27.241 48.9857 27.2217 48.9879L19.2481 49.9846C18.6788 50.0557 18.1065 49.879 17.6764 49.4994C17.2463 49.1197 17 48.5737 17 48V44H15V64C15 65.1046 14.1046 66 13 66C11.8954 66 11 65.1046 11 64V16C11 14.8954 11.8954 14 13 14C14.1046 14 15 14.8954 15 16V20H17V16C17 15.4263 17.2463 14.8803 17.6764 14.5007ZM29 44.7344L41 43.2344V20.7656L29 19.2656V44.7344ZM25 18.7656V45.2344L21 45.7344V18.2656L25 18.7656ZM45 21.2656V42.7344L57 41.2344V22.7656L45 21.2656ZM61 23.2656V40.7344L65 40.2344V23.7656L61 23.2656ZM15 40H17V24H15V40Z" stroke="currentColor" stroke-linecap="round" stroke-linejoin="round" />
</svg>