<svg width="80" height="80" viewBox="0 0 80 80" fill="none" xmlns="http://www.w3.org/2000/svg">
  <path d="M23 31H44.4102C47.1716 31 49.4102 28.7614 49.4102 26C49.4102 23.2386 47.1716 21 44.4102 21H44.1826C41.5469 21 39.4102 23.1367 39.4102 25.7725V26.01C39.4102 27.1146 38.5147 28.01 37.4102 28.01C36.3056 28.01 35.4102 27.1146 35.4102 26.01V25.7725C35.4102 20.9276 39.3377 17 44.1826 17H44.4102C49.3807 17 53.4102 21.0294 53.4102 26C53.4102 30.9706 49.3807 35 44.4102 35H23C21.8954 35 21 34.1046 21 33C21 31.8954 21.8954 31 23 31Z" stroke="currentColor" stroke-linecap="round" stroke-linejoin="round" />
  <path d="M18 47C16.8954 47 16 46.1046 16 45C16 43.8954 16.8954 43 18 43H30.4121C35.3827 43 39.4121 47.0294 39.4121 52C39.4121 56.9706 35.3827 61 30.4121 61H30.1846C25.3397 61 21.4121 57.0724 21.4121 52.2275V51.99C21.4121 50.8854 22.3075 49.99 23.4121 49.99C24.5167 49.99 25.4121 50.8854 25.4121 51.99V52.2275C25.4121 54.8633 27.5488 57 30.1846 57H30.4121C33.1735 57 35.4121 54.7614 35.4121 52C35.4121 49.2386 33.1735 47 30.4121 47H18Z" stroke="currentColor" stroke-linecap="round" stroke-linejoin="round" />
  <path d="M12 39C12 37.8954 12.8954 37 14 37H53.8159C60.9956 37 66.8158 42.8203 66.8158 50C66.8158 57.1797 60.9956 63 53.8158 63H53.4583C46.4761 63 40.8158 57.3398 40.8158 50.3576V49.9843C40.8158 48.8797 41.7113 47.9843 42.8158 47.9843C43.9204 47.9843 44.8158 48.8797 44.8158 49.9843V50.3576C44.8158 55.1306 48.6852 59 53.4583 59H53.8158C58.7864 59 62.8158 54.9706 62.8158 50C62.8158 45.0294 58.7864 41 53.8159 41H14C12.8954 41 12 40.1046 12 39Z" stroke="currentColor" stroke-linecap="round" stroke-linejoin="round" />
</svg>