<svg width="80" height="80" viewBox="0 0 80 80" fill="none" xmlns="http://www.w3.org/2000/svg">
  <path fill-rule="evenodd" clip-rule="evenodd" d="M33.2942 6.13158C33.8508 6.50248 34.1851 7.12705 34.1851 7.79591L34.1851 18.0517C34.1879 18.0951 34.1894 18.1388 34.1894 18.1829L34.1894 21.4911L38.185 23.798L42.1807 21.4911V18.1829C42.1807 18.1378 42.1822 18.093 42.1851 18.0486L42.1851 7.79631C42.1851 7.12744 42.5195 6.50284 43.0761 6.13195C43.6328 5.76106 44.3379 5.69297 44.9552 5.95053C45.6455 6.2385 46.3215 6.5723 46.9789 6.95184C52.4208 10.0937 55.7731 15.9001 55.7731 22.1839C55.7731 28.0786 52.823 33.5532 47.9653 36.8022L47.9653 68.1834C47.9653 73.7062 43.4882 78.1834 37.9653 78.1834C32.4425 78.1834 27.9653 73.7062 27.9653 68.1834L27.9653 36.4991C23.3692 33.2192 20.5962 27.899 20.5962 22.1839C20.5962 15.9001 23.9485 10.0937 29.3904 6.95184C30.0481 6.5721 30.7245 6.23815 31.4151 5.95007C32.0324 5.69256 32.7376 5.76068 33.2942 6.13158ZM46.1807 18.3172V22.6458C46.1807 23.3604 45.7995 24.0206 45.1807 24.3779L39.185 27.8395C38.5662 28.1967 37.8038 28.1967 37.185 27.8395L31.1894 24.3779C30.5706 24.0206 30.1894 23.3604 30.1894 22.6458L30.1894 18.3141C30.1866 18.2707 30.1851 18.227 30.1851 18.1829L30.1851 11.1994C26.6967 13.739 24.5962 17.8119 24.5962 22.1839C24.5962 26.9056 27.0463 31.2786 31.0486 33.7478C31.6943 34.1461 32.059 34.8754 31.9903 35.631C31.9738 35.8124 31.9653 35.9967 31.9653 36.1834L31.9653 68.1834C31.9653 71.4971 34.6516 74.1834 37.9653 74.1834C41.279 74.1834 43.9653 71.4971 43.9653 68.1834L43.9653 36.1834C43.9653 36.0608 43.9617 35.9393 43.9545 35.819C43.9094 35.0616 44.2967 34.3438 44.9546 33.9658L44.9788 33.9519C49.1831 31.5245 51.7731 27.0386 51.7731 22.1839C51.7731 17.8123 49.673 13.7398 46.1851 11.2001L46.1851 18.1829C46.1851 18.228 46.1836 18.2728 46.1807 18.3172Z" stroke="currentColor" stroke-linecap="round" stroke-linejoin="round" />
</svg>