<svg width="80" height="80" viewBox="0 0 80 80" fill="none" xmlns="http://www.w3.org/2000/svg">
  <path d="M52 26.0007C52 26.0938 51.9989 26.1869 51.9968 26.2798C51.9248 29.3608 50.6692 32.3009 48.4849 34.4852C46.3752 36.5948 43.5606 37.8381 40.595 37.9853C40.399 37.995 40.2024 37.9999 40.0052 38L39.9941 38C39.5094 38.0002 39.0269 38.0224 38.5481 38.066C34.8372 38.404 31.3424 40.0297 28.686 42.6861C25.7556 45.6165 24.0794 49.5668 24.0028 53.7026C24.0009 53.8014 24 53.9003 24 53.9993L24 54.0007C24 56.8334 24.7512 59.5888 26.1434 62.0004C24.5165 60.9758 22.996 59.7662 21.6149 58.3851C16.7392 53.5094 14 46.8962 14 40.0009C14 33.1053 16.7398 26.4913 21.6158 21.6153C26.4915 16.7396 33.1048 14 40 14L40.0373 14.0001C40.2237 14.0006 40.4096 14.0056 40.595 14.0148C43.5606 14.1619 46.3752 15.4052 48.4849 17.5148C50.7002 19.7301 51.9602 22.7229 51.9991 25.8516C51.9995 25.8858 51.9998 25.9201 51.9999 25.9544L52 25.9993M18.7874 18.7869C24.4131 13.1611 32.0439 10 40 10H40.0062C47.9601 10.0016 55.589 13.162 61.2135 18.7865C66.8394 24.4124 70 32.0429 70 39.9991C70 47.9557 66.8387 55.587 61.2127 61.2131C55.5869 66.8389 47.9561 70 40 70H39.9938C32.0399 69.9984 24.411 66.838 18.7865 61.2135C13.1606 55.5876 10 47.9571 10 40.0009C10 32.0443 13.1613 24.413 18.7874 18.7869ZM55.9999 25.9509C55.9997 25.8722 55.9988 25.7936 55.9974 25.715C55.9489 22.9824 55.2021 20.3304 53.8566 17.9996C55.4835 19.0242 57.004 20.2338 58.3851 21.6149C63.2608 26.4906 66 33.1038 66 39.9991C66 46.8947 63.2602 53.5087 58.3842 58.3847C53.5085 63.2604 46.8952 66 40 66H39.9949C39.5458 65.9998 39.0993 65.9744 38.6573 65.9247C35.9691 65.622 33.4466 64.4167 31.5151 62.4852C29.2647 60.2347 28 57.1819 28 53.9993L28.0001 53.9634C28.0003 53.8883 28.0012 53.8133 28.0029 53.7384C28.0703 50.6508 29.3265 47.7034 31.5151 45.5148C33.6236 43.4063 36.4363 42.1633 39.4002 42.015C39.5978 42.0051 39.7961 42.0001 39.9948 42H40.0059L40.0497 41.9999C40.2983 41.9992 40.5462 41.9926 40.7933 41.9803C44.7477 41.7842 48.501 40.1269 51.3139 37.3139C54.2441 34.3838 55.9203 30.434 55.9972 26.2987C55.9991 26.1995 56 26.1001 56 26.0007L56 25.9993L55.9999 25.9509ZM40 20C36.6863 20 34 22.6863 34 26C34 29.3137 36.6863 32 40 32C43.3137 32 46 29.3137 46 26C46 22.6863 43.3137 20 40 20ZM38 26C38 24.8954 38.8954 24 40 24C41.1046 24 42 24.8954 42 26C42 27.1046 41.1046 28 40 28C38.8954 28 38 27.1046 38 26ZM34 54C34 50.6863 36.6863 48 40 48C43.3137 48 46 50.6863 46 54C46 57.3137 43.3137 60 40 60C36.6863 60 34 57.3137 34 54ZM40 52C38.8954 52 38 52.8954 38 54C38 55.1046 38.8954 56 40 56C41.1046 56 42 55.1046 42 54C42 52.8954 41.1046 52 40 52Z" stroke="currentColor" stroke-linecap="round" stroke-linejoin="round" />
</svg>