<svg viewBox="0 0 80 80" fill="none">
  <path fill-rule="evenodd" clip-rule="evenodd" d="M40.1329 20.6795C36.7976 20.6795 33.4615 21.5424 30.4727 23.268C24.4949 26.7193 20.8124 33.0975 20.8124 40C20.8124 46.9026 24.4949 53.2808 30.4727 56.7321C33.4615 58.4577 36.7976 59.3205 40.1329 59.3205C41.2375 59.3205 42.1329 58.4251 42.1329 57.3205V22.6795C42.1329 21.575 41.2375 20.6795 40.1329 20.6795ZM32.4727 26.7321C34.2442 25.7093 36.169 25.0688 38.1329 24.8105V55.1896C36.169 54.9313 34.2442 54.2908 32.4727 53.268C27.7325 50.5312 24.8124 45.4735 24.8124 40C24.8124 34.5265 27.7325 29.4688 32.4727 26.7321Z" stroke="currentColor" stroke-linecap="round" stroke-linejoin="round" />
  <path fill-rule="evenodd" clip-rule="evenodd" d="M54.9891 14.268C45.796 8.96031 34.4695 8.96031 25.2763 14.268C16.0832 19.5757 10.4199 29.3847 10.4199 40C10.4199 50.6154 16.0832 60.4244 25.2763 65.7321C34.4695 71.0398 45.796 71.0398 54.9891 65.7321C64.1823 60.4244 69.8456 50.6154 69.8456 40C69.8456 29.3847 64.1823 19.5757 54.9891 14.268ZM27.2763 17.7321C35.2319 13.1389 45.0336 13.1389 52.9891 17.7321C60.9447 22.3252 65.8456 30.8137 65.8456 40C65.8456 49.1863 60.9447 57.6748 52.9891 62.268C45.0336 66.8611 35.2319 66.8611 27.2763 62.268C19.3208 57.6748 14.4199 49.1863 14.4199 40C14.4199 30.8137 19.3208 22.3252 27.2763 17.7321Z" stroke="currentColor" stroke-linecap="round" stroke-linejoin="round" />
</svg>