<svg viewBox="0 0 80 80" fill="none">
  <path fill-rule="evenodd" clip-rule="evenodd" d="M25.1435 14.2679C29.7411 11.6135 34.8722 10.2866 40.0032 10.2872C45.132 10.2877 50.2607 11.6146 54.8563 14.2679C64.0495 19.5756 69.7127 29.3846 69.7127 40C69.7127 50.6153 64.0495 60.4244 54.8563 65.732C50.2607 68.3853 45.132 69.7122 40.0032 69.7128L39.9999 69.7128H39.9979C36.848 69.7126 33.6981 69.2121 30.6716 68.2113C30.6539 68.2056 30.6361 68.1998 30.6185 68.1936C28.7354 67.567 26.9005 66.7464 25.1435 65.732C24.328 65.2612 23.5403 64.755 22.7819 64.2159C22.7525 64.1961 22.7235 64.1754 22.6951 64.154C20.5902 62.6465 18.7124 60.8853 17.094 58.926C17.0746 58.9034 17.0556 58.8804 17.037 58.8568C15.4726 56.9512 14.1526 54.8598 13.1065 52.6333C13.0966 52.6131 13.0871 52.5929 13.078 52.5725C12.0203 50.3082 11.2454 47.9049 10.7842 45.4161C10.7772 45.3827 10.7711 45.3492 10.7658 45.3157C10.4501 43.579 10.2871 41.8011 10.2871 40C10.2871 38.9956 10.3378 37.9984 10.4374 37.0116C10.439 36.9931 10.4409 36.9747 10.443 36.9562C10.8148 33.3403 11.8431 29.8643 13.4388 26.6822C13.4474 26.6645 13.4563 26.6469 13.4654 26.6294C16.0284 21.5439 20.0425 17.213 25.1435 14.2679ZM16.767 28.9825C16.1122 30.363 15.5793 31.804 15.1777 33.2892L37.9999 20.1128V16.7237L16.767 28.9825ZM32.025 15.5545L22.817 20.8707C24.1316 19.69 25.5784 18.6356 27.1435 17.732C28.7086 16.8284 30.3451 16.1026 32.025 15.5545ZM41.9999 21.3021C42.0004 21.2778 42.0004 21.2535 41.9999 21.2291V14.365C45.7632 14.6583 49.4764 15.7806 52.8563 17.732C60.8119 22.3252 65.7127 30.8137 65.7127 40C65.7127 49.1863 60.8119 57.6748 52.8563 62.2679C49.4764 64.2193 45.7632 65.3417 41.9999 65.635V61.3022C42.0004 61.2778 42.0004 61.2535 41.9999 61.2291V53.2977C42.0004 53.2733 42.0004 53.2489 41.9999 53.2245V45.3021C42.0004 45.2778 42.0004 45.2535 41.9999 45.2291V37.3021C42.0004 37.2778 42.0004 37.2535 41.9999 37.2291V29.3021C42.0004 29.2778 42.0004 29.2535 41.9999 29.2291V21.3021ZM37.9999 24.7316L14.3372 38.3933C14.3039 38.926 14.2871 39.4618 14.2871 40C14.2871 40.5926 14.3075 41.1824 14.3478 41.7683L37.9999 28.1128V24.7316ZM37.9999 32.7316L14.999 46.0112C15.2343 46.9895 15.5261 47.9501 15.8719 48.8884L37.9999 36.1128V32.7316ZM37.9999 40.7316L17.551 52.5378C18.0275 53.3909 18.5525 54.2168 19.1235 55.0111L37.9999 44.1128V40.7316ZM37.9999 48.7316L21.7496 58.1137C22.4698 58.8394 23.236 59.5247 24.0453 60.1649L37.9999 52.1083V48.7316ZM37.9999 56.7271L27.7836 62.6255C28.8515 63.2022 29.9501 63.6981 31.0709 64.1132L37.9999 60.1128V56.7271ZM37.9999 64.7316L36.6741 65.497C37.1151 65.5545 37.5571 65.6005 37.9999 65.635V64.7316Z" stroke="currentColor" stroke-linecap="round" stroke-linejoin="round" />
</svg>