<svg viewBox="0 0 80 80" fill="none">
  <path d="M33 17.9997V14H29V17.9996M33 17.9997L29 17.9996M33 17.9997C32.9999 17.9998 33.0001 17.9995 33 17.9997ZM29 17.9996C28.9999 17.9995 29.0001 17.9996 29 17.9996ZM65.0002 18C65.0002 17.9999 65.0003 18.0001 65.0002 18ZM65.0002 18L65 14H69V18H65.0002ZM25 14C25 11.7909 26.7909 10 29 10H33C35.2091 10 37 11.7909 37 14V18C37 18.1286 36.9939 18.2559 36.9821 18.3814L45.3503 25.3549C45.8533 25.127 46.4118 25 47 25H51C51.5883 25 52.1469 25.127 52.6499 25.355L61.018 18.3816C61.0061 18.256 61 18.1287 61 18V14C61 11.7909 62.7909 10 65 10H69C71.2091 10 73 11.7909 73 14V18C73 20.2091 71.2091 22 69 22H65C64.4118 22 63.8532 21.873 63.3502 21.645L54.982 28.6184C54.9939 28.744 55 28.8713 55 29V33C55 35.2091 53.2091 37 51 37H47C44.7909 37 43 35.2091 43 33V29C43 28.8712 43.0061 28.7438 43.018 28.6182L34.65 21.6449C34.147 21.873 33.5883 22 33 22H29C28.6417 22 28.2944 21.9529 27.964 21.8645L18.8645 30.964C18.9529 31.2944 19 31.6417 19 32V36C19 38.2091 17.2091 40 15 40H11C8.79086 40 7 38.2091 7 36V32C7 29.7909 8.79086 28 11 28H15C15.3583 28 15.7057 28.0471 16.0361 28.1355L25.1355 19.0361C25.0471 18.7057 25 18.3583 25 18V14ZM51 29H47V33H51V29ZM15 32H11V36H15V32ZM29 34C26.7909 34 25 35.7909 25 38V66C25 68.2091 26.7909 70 29 70H33C35.2091 70 37 68.2091 37 66V38C37 35.7909 35.2091 34 33 34H29ZM29 38H33V66H29V38ZM65 34C62.7909 34 61 35.7909 61 38V66C61 68.2091 62.7909 70 65 70H69C71.2091 70 73 68.2091 73 66V38C73 35.7909 71.2091 34 69 34H65ZM65 38H69V66H65V38ZM47 48C44.7909 48 43 49.7909 43 52V66C43 68.2091 44.7909 70 47 70H51C53.2091 70 55 68.2091 55 66V52C55 49.7909 53.2091 48 51 48H47ZM47 52H51V66H47V52ZM11 52C8.79086 52 7 53.7909 7 56V66C7 68.2091 8.79086 70 11 70H15C17.2091 70 19 68.2091 19 66L19 56C19 53.7909 17.2091 52 15 52H11ZM11 56H15L15 66H11V56Z" stroke="currentColor" stroke-linecap="round" stroke-linejoin="round" />
</svg>