<svg viewBox="0 0 80 80" fill="none">
  <path d="M40.3536 31.0605C40.1583 30.8652 39.8417 30.8652 39.6464 31.0605L29.7678 40.9392C28.7915 41.9155 27.2085 41.9155 26.2322 40.9392C25.2559 39.9629 25.2559 38.38 26.2322 37.4037L36.1109 27.525C38.2588 25.3771 41.7412 25.3771 43.8891 27.525L53.7678 37.4037C54.7441 38.38 54.7441 39.9629 53.7678 40.9392C52.7915 41.9155 51.2085 41.9155 50.2322 40.9392L40.3536 31.0605Z" stroke="currentColor" stroke-linecap="round" stroke-linejoin="round" />
  <path d="M40.3536 43.0605C40.1583 42.8652 39.8417 42.8652 39.6464 43.0605L29.7678 52.9392C28.7915 53.9155 27.2085 53.9155 26.2322 52.9392C25.2559 51.9629 25.2559 50.38 26.2322 49.4037L36.1109 39.525C38.2588 37.3771 41.7412 37.3771 43.8891 39.525L53.7678 49.4037C54.7441 50.38 54.7441 51.9629 53.7678 52.9392C52.7915 53.9155 51.2085 53.9155 50.2322 52.9392L40.3536 43.0605Z" stroke="currentColor" stroke-linecap="round" stroke-linejoin="round" />
</svg>