<svg viewBox="0 0 80 80" fill="none">
  <path fill-rule="evenodd" clip-rule="evenodd" d="M19.3047 39.1183C13.4242 39.1183 10.4793 32.0087 14.6374 27.8506L31.9251 10.5629C34.9516 7.53633 39.8587 7.53633 42.8852 10.5629L60.1729 27.8506C64.331 32.0087 61.3861 39.1183 55.5057 39.1183H52.0304C52.2406 41.4844 52.7169 43.8324 53.4593 46.1173C55.5304 52.4917 59.5664 58.0468 64.9888 61.9864C65.9695 62.6989 66.9865 63.352 68.0341 63.9438C69.728 64.9006 70.5398 66.6797 70.4371 68.3421C70.3298 70.0788 69.1798 71.8571 67.0145 72.3007C64.6013 72.7951 62.1317 73.0481 59.6417 73.0481C51.8834 73.0481 44.3242 70.592 38.0476 66.0318C31.771 61.4715 27.0992 55.0413 24.7017 47.6628C23.7961 44.8754 23.2325 42.0068 23.0111 39.1184L19.3047 39.1183ZM18.1729 31.3861C17.1647 32.3944 17.8788 34.1183 19.3047 34.1183H25.405C26.7769 34.1183 27.8926 35.224 27.9049 36.5958C27.9339 39.8107 28.4512 43.0222 29.457 46.1177C31.5282 52.492 35.5641 58.0471 40.9865 61.9867C46.4089 65.9263 52.9393 68.0481 59.6417 68.0481C61.2796 68.0481 62.9073 67.9214 64.511 67.6724C63.6712 67.1601 62.8501 66.6129 62.0499 66.0314C55.7733 61.4712 51.1014 55.041 48.704 47.6624C47.5398 44.0794 46.9409 40.362 46.9074 36.6409C46.9014 35.974 47.1621 35.3323 47.6316 34.8586C48.1011 34.3848 48.7404 34.1183 49.4073 34.1183H55.5057C56.9316 34.1183 57.6457 32.3944 56.6374 31.3861L39.3497 14.0984C38.2758 13.0245 36.5346 13.0245 35.4606 14.0984L18.1729 31.3861Z" stroke="currentColor" stroke-linecap="round" stroke-linejoin="round" />
</svg>