<svg viewBox="0 0 80 80" fill="none">
  <path d="M42 29.8284L50.5858 38.4142C51.3668 39.1953 52.6332 39.1953 53.4142 38.4142C54.1953 37.6332 54.1953 36.3668 53.4142 35.5858L43.5355 25.7071C41.5829 23.7545 38.4171 23.7545 36.4645 25.7071L26.5858 35.5858C25.8047 36.3668 25.8047 37.6332 26.5858 38.4142C27.3668 39.1953 28.6332 39.1953 29.4142 38.4142L38 29.8284V36.9841L38 36.992L38 37L38 54C38 55.1046 38.8954 56 40 56C41.1046 56 42 55.1046 42 54L42 37L42 36.992L42 36.9841V29.8284Z" stroke="currentColor" stroke-linecap="round" stroke-linejoin="round" />
  <path fill-rule="evenodd" clip-rule="evenodd" d="M14 18C14 15.7909 15.7909 14 18 14L62 14C64.2091 14 66 15.7909 66 18V62C66 64.2091 64.2091 66 62 66H18C15.7909 66 14 64.2091 14 62L14 18ZM62 18L18 18L18 62L62 62L62 18Z" stroke="currentColor" stroke-linecap="round" stroke-linejoin="round" />
</svg>