<svg viewBox="0 0 80 80" fill="none">
  <path fill-rule="evenodd" clip-rule="evenodd" d="M34.5704 17.2495C33.3458 17.5366 32.1387 17.9239 30.9615 18.4116C25.2355 20.7833 20.6863 25.3326 18.3145 31.0586C15.9427 36.7845 15.9427 43.2182 18.3145 48.9442C19.6223 52.1015 21.5921 54.901 24.0564 57.1751C25.0711 58.1115 25.1346 59.6931 24.1982 60.7078C23.2618 61.7225 21.6802 61.786 20.6655 60.8496C17.6742 58.0892 15.2827 54.6905 13.6951 50.8576C10.8158 43.9065 10.8158 36.0963 13.6951 29.1452C16.5743 22.194 22.097 16.6714 29.0481 13.7922C30.8414 13.0493 32.6921 12.4981 34.5704 12.1386V6.59623C34.5704 2.67285 39.3139 0.708027 42.0882 3.48227L49.7168 11.1109C51.8647 13.2588 51.8647 16.7412 49.7168 18.8891L42.0882 26.5178C39.3139 29.292 34.5704 27.3272 34.5704 23.4038V17.2495ZM46.1813 14.6465C46.3766 14.8417 46.3766 15.1583 46.1813 15.3536L39.5704 21.9645V14.3181C39.5706 14.3004 39.5706 14.2826 39.5704 14.2649V8.03557L46.1813 14.6465Z" stroke="currentColor" stroke-linecap="round" stroke-linejoin="round" />
  <path fill-rule="evenodd" clip-rule="evenodd" d="M45.4298 67.8615L45.4298 73.4038C45.4298 77.3272 40.6862 79.292 37.912 76.5178L30.2833 68.8891C28.1354 66.7412 28.1354 63.2588 30.2833 61.1109L37.912 53.4823C40.6862 50.708 45.4298 52.6729 45.4298 56.5962V62.7506C46.6544 62.4635 47.8615 62.0761 49.0387 61.5885C54.7646 59.2167 59.3139 54.6675 61.6857 48.9415C64.0575 43.2155 64.0575 36.7819 61.6857 31.0559C60.3779 27.8986 58.4081 25.0991 55.9438 22.8249C54.9291 21.8886 54.8656 20.3069 55.802 19.2923C56.7383 18.2776 58.32 18.2141 59.3347 19.1505C62.326 21.9109 64.7174 25.3096 66.3051 29.1425C69.1843 36.0936 69.1843 43.9038 66.3051 50.8549C63.4258 57.806 57.9032 63.3286 50.9521 66.2079C49.1587 66.9507 47.3081 67.5019 45.4298 67.8615ZM40.4298 65.682V58.0356L33.8189 64.6465C33.6236 64.8417 33.6236 65.1583 33.8189 65.3536L40.4298 71.9645V65.7352C40.4296 65.7174 40.4296 65.6997 40.4298 65.682Z" stroke="currentColor" stroke-linecap="round" stroke-linejoin="round" />
</svg>