<svg viewBox="0 0 80 80" fill="none">
  <path d="M56.13 14.5C57.5108 14.5 58.63 15.6193 58.63 17C58.63 18.3807 57.5108 19.5 56.13 19.5L24.13 19.5C22.7493 19.5 21.63 18.3807 21.63 17C21.63 15.6193 22.7493 14.5 24.13 14.5L56.13 14.5Z" stroke="currentColor" stroke-linecap="round" stroke-linejoin="round" />
  <path fill-rule="evenodd" clip-rule="evenodd" d="M34.6203 26.7145C37.6224 23.8195 42.3772 23.8195 45.3794 26.7144L57.2907 38.2004C60.7927 41.5773 58.4023 47.5 53.5374 47.5H50.63L50.63 61C50.63 63.4853 48.6153 65.5 46.13 65.5H34.13C31.6448 65.5 29.63 63.4853 29.63 61L29.63 47.5H26.4623C21.5974 47.5 19.207 41.5773 22.7089 38.2004L34.6203 26.7145ZM41.9087 30.3137C40.8434 29.2864 39.1563 29.2864 38.091 30.3137L26.1796 41.7996C26.0874 41.8886 26.064 41.9577 26.055 42.0061C26.0433 42.0686 26.0478 42.1538 26.0847 42.2452C26.1215 42.3365 26.1774 42.401 26.2293 42.4379C26.2694 42.4665 26.3341 42.5 26.4623 42.5H32.13C33.5108 42.5 34.63 43.6193 34.63 45L34.63 60.5L45.63 60.5L45.63 45C45.63 43.6193 46.7493 42.5 48.13 42.5H53.5374C53.6656 42.5 53.7303 42.4665 53.7704 42.4379C53.8223 42.401 53.8781 42.3365 53.915 42.2452C53.9519 42.1538 53.9564 42.0686 53.9447 42.0061C53.9357 41.9577 53.9123 41.8886 53.8201 41.7996L41.9087 30.3137Z" stroke="currentColor" stroke-linecap="round" stroke-linejoin="round" />
</svg>