<svg viewBox="0 0 80 80" fill="none">
  <path fill-rule="evenodd" clip-rule="evenodd" d="M40 14C25.6406 14 14 25.6406 14 40C14 54.3594 25.6406 66 40 66H52C53.1046 66 54 65.1046 54 64C54 62.8954 53.1046 62 52 62H40C27.8497 62 18 52.1503 18 40C18 27.8497 27.8497 18 40 18C52.1503 18 62 27.8497 62 40V47.3461C62 49.5519 60.2143 51.3414 58.0085 51.3461C55.796 51.3508 54 49.5585 54 47.3461L54 28.9985C54 27.8939 53.1046 26.9985 52 26.9985C50.9375 26.9985 50.0685 27.827 50.0039 28.8733C47.4624 26.2777 43.9189 24.6671 39.9992 24.6673C32.2675 24.6677 26 30.9356 26 38.6673V41.3333C26 49.0653 32.268 55.3333 40 55.3333C44.2497 55.3333 48.0571 53.4399 50.6247 50.4506C51.8391 53.3322 54.6931 55.3531 58.017 55.346C62.4286 55.3367 66 51.7577 66 47.3461V40C66 25.6406 54.3594 14 40 14ZM50 41.3333V38.6673C50 33.1443 45.5225 28.667 39.9995 28.6673C34.4768 28.6676 30 33.1447 30 38.6673V41.3333C30 46.8562 34.4772 51.3333 40 51.3333C45.5229 51.3333 50 46.8562 50 41.3333Z" stroke="currentColor" stroke-linecap="round" stroke-linejoin="round" />
</svg>