<svg viewBox="0 0 80 80" fill="none">
  <path fill-rule="evenodd" clip-rule="evenodd" d="M25 2C20.5817 2 17 5.58172 17 10V35.4059C17 35.9327 17.052 36.4582 17.1554 36.9748L20.9408 55.9018C20.9563 55.9795 20.9761 56.0553 21 56.1288L21 74.2676C20.4022 74.6134 20 75.2597 20 76C20 77.1046 20.8954 78 22 78H32C33.1046 78 34 77.1046 34 76C34 75.2597 33.5978 74.6134 33 74.2676V56.1289C33.0239 56.0553 33.0437 55.9795 33.0592 55.9018L36.8446 36.9748C36.948 36.4582 37 35.9327 37 35.4059V10C37 5.58172 33.4183 2 29 2H25ZM29 74H25V58H29V74ZM21 10C21 7.79086 22.7909 6 25 6H29C31.2091 6 33 7.79086 33 10V35.4059C33 35.6693 32.974 35.9321 32.9223 36.1903L29.4604 53.5H24.5396L21.0777 36.1903C21.026 35.9321 21 35.6693 21 35.4059V10Z" stroke="currentColor" stroke-linecap="round" stroke-linejoin="round" />
  <path fill-rule="evenodd" clip-rule="evenodd" d="M57.4641 26.6508C54.7017 25.0559 51.2983 25.0559 48.5359 26.6508C45.7735 28.2456 44.0718 31.1931 44.0718 34.3828C44.0718 37.5726 45.7735 40.52 48.5359 42.1149C51.2983 43.7097 54.7017 43.7097 57.4641 42.1149C60.2265 40.52 61.9282 37.5726 61.9282 34.3828C61.9282 31.1931 60.2265 28.2456 57.4641 26.6508ZM50.5359 30.1149C52.0607 29.2345 53.9393 29.2345 55.4641 30.1149C56.9889 30.9952 57.9282 32.6221 57.9282 34.3828C57.9282 36.1435 56.9889 37.7704 55.4641 38.6508C53.9393 39.5311 52.0607 39.5311 50.5359 38.6508C49.0111 37.7704 48.0718 36.1435 48.0718 34.3828C48.0718 32.6221 49.0111 30.9952 50.5359 30.1149Z" stroke="currentColor" stroke-linecap="round" stroke-linejoin="round" />
</svg>