<svg viewBox="0 0 80 80" fill="none">
  <path fill-rule="evenodd" clip-rule="evenodd" d="M44.5 8L35.5 8C32.9824 8 30.86 9.6915 30.207 12L26 12C22.6863 12 20 14.6863 20 18L20 66C20 69.3137 22.6863 72 26 72L54 72C57.3137 72 60 69.3137 60 66V18C60 14.6863 57.3137 12 54 12L49.793 12C49.14 9.69149 47.0176 8 44.5 8ZM26 16C24.8954 16 24 16.8954 24 18L24 66C24 67.1046 24.8954 68 26 68L54 68C55.1046 68 56 67.1046 56 66V18C56 16.8954 55.1046 16 54 16L26 16Z" stroke="currentColor" stroke-linecap="round" stroke-linejoin="round" />
</svg>