<svg viewBox="0 0 80 80" fill="none">
  <path fill-rule="evenodd" clip-rule="evenodd" d="M39.641 11.656L33.9718 20.0001H13.9999C10.6862 20.0001 7.99988 22.6864 7.99988 26.0001V54.0001C7.99988 57.3138 10.6862 60.0001 13.9999 60.0001H30.8065V66.6577C30.8065 69.6124 34.6275 70.7876 36.2879 68.3437L41.9568 60.0001H61.9999C65.3136 60.0001 67.9999 57.3138 67.9999 54.0001V49.7931C70.3084 49.1402 71.9999 47.0177 71.9999 44.5001V35.5001C71.9999 32.9826 70.3084 30.8601 67.9999 30.2071V26.0001C67.9999 22.6864 65.3136 20.0001 61.9999 20.0001H45.1224V13.342C45.1224 10.3874 41.3015 9.21214 39.641 11.656ZM41.1224 16.5932L22.9921 43.2779L34.8065 43.2779V63.4065L52.9368 36.7218L41.1224 36.7218V16.5932ZM63.9999 26.0001C63.9999 24.8955 63.1044 24.0001 61.9999 24.0001H45.1224V32.7218L54.8252 32.7218C57.2333 32.7218 58.6599 35.416 57.3067 37.4078L44.6745 56.0001H61.9999C63.1044 56.0001 63.9999 55.1047 63.9999 54.0001V26.0001ZM13.9999 24.0001H31.2541L18.6223 42.592C17.269 44.5838 18.6956 47.2779 21.1037 47.2779L30.8065 47.2779V56.0001H13.9999C12.8953 56.0001 11.9999 55.1047 11.9999 54.0001V26.0001C11.9999 24.8955 12.8953 24.0001 13.9999 24.0001Z" stroke="currentColor" stroke-linecap="round" stroke-linejoin="round" />
</svg>