<svg viewBox="0 0 80 80" fill="none">
  <path fill-rule="evenodd" clip-rule="evenodd" d="M18 26.3379C15.7909 26.3379 14 28.1288 14 30.3379V50.3379C14 52.547 15.7909 54.3379 18 54.3379H36C38.2091 54.3379 40 52.547 40 50.3379V30.3379C40 28.1288 38.2091 26.3379 36 26.3379H18ZM18 30.3379H36V50.3379L18 50.3379V30.3379Z" stroke="currentColor" stroke-linecap="round" stroke-linejoin="round" />
  <path fill-rule="evenodd" clip-rule="evenodd" d="M8 26C8 22.6863 10.6863 20 14 20H62C65.3137 20 68 22.6863 68 26V30.207C70.3085 30.86 72 32.9824 72 35.5V44.5C72 47.0176 70.3085 49.14 68 49.793V54C68 57.3137 65.3137 60 62 60H14C10.6863 60 8 57.3137 8 54V26ZM64 26V54C64 55.1046 63.1046 56 62 56H14C12.8954 56 12 55.1046 12 54V26C12 24.8954 12.8954 24 14 24H62C63.1046 24 64 24.8954 64 26Z" stroke="currentColor" stroke-linecap="round" stroke-linejoin="round" />
</svg>