<svg viewBox="0 0 80 80" fill="none">
  <path fill-rule="evenodd" clip-rule="evenodd" d="M39.6411 11.656L33.9719 20.0001H13.9999C10.6862 20.0001 7.99994 22.6864 7.99994 26.0001V54.0001C7.99994 57.3138 10.6862 60.0001 13.9999 60.0001H30.8065V66.6577C30.8065 69.6124 34.6275 70.7876 36.288 68.3437L41.9568 60.0001H61.9999C65.3136 60.0001 67.9999 57.3138 67.9999 54.0001V49.7931C70.3084 49.1402 71.9999 47.0177 71.9999 44.5001V35.5001C71.9999 32.9826 70.3084 30.8601 67.9999 30.2071V26.0001C67.9999 22.6864 65.3136 20.0001 61.9999 20.0001H45.1225V13.342C45.1225 10.3874 41.3015 9.21214 39.6411 11.656ZM41.1225 16.5932L22.9922 43.2779L34.8065 43.2779V63.4065L52.9369 36.7218L41.1225 36.7218V16.5932ZM63.9999 26.0001C63.9999 24.8955 63.1045 24.0001 61.9999 24.0001H45.1225V32.7218L54.8253 32.7218C57.2333 32.7218 58.66 35.416 57.3067 37.4078L44.6745 56.0001H61.9999C63.1045 56.0001 63.9999 55.1047 63.9999 54.0001V26.0001ZM13.9999 24.0001H31.2542L18.6223 42.592C17.269 44.5838 18.6957 47.2779 21.1038 47.2779L30.8065 47.2779V56.0001H13.9999C12.8954 56.0001 11.9999 55.1047 11.9999 54.0001V26.0001C11.9999 24.8955 12.8954 24.0001 13.9999 24.0001Z" stroke="currentColor" stroke-linecap="round" stroke-linejoin="round" />
</svg>