<svg viewBox="0 0 80 80" fill="none">
  <path fill-rule="evenodd" clip-rule="evenodd" d="M28 10C25.7909 10 24 11.7909 24 14V15.3692C20.5781 16.0733 17.407 17.7646 14.8995 20.2721L14.2721 20.8995C10.8964 24.2752 9 28.8535 9 33.6274V36.5656C9 41.436 7.06521 46.107 3.62126 49.5508C2.58319 50.5889 2 51.9968 2 53.4649C2 56.5219 4.47819 59.0001 7.53519 59.0001H19.1279C19.0907 59.3298 19.0718 59.6636 19.0718 60C19.0718 63.1897 20.7735 66.1372 23.5359 67.7321C26.2983 69.3269 29.7017 69.3269 32.4641 67.7321C35.2265 66.1372 36.9282 63.1897 36.9282 60C36.9282 59.6636 36.9093 59.3298 36.8721 59.0001H48.4648C51.5218 59.0001 54 56.5219 54 53.4649C54 51.9968 53.4168 50.5889 52.3787 49.5508C48.9348 46.107 47 41.436 47 36.5656V33.6274C47 28.8535 45.1036 24.2752 41.7279 20.8995L41.1005 20.2721C38.593 17.7646 35.4219 16.0733 32 15.3692V14C32 11.7909 30.2091 10 28 10ZM29.7966 19.0726C29.3256 19.0244 28.8504 19 28.3726 19H27.6274C27.1496 19 26.6744 19.0244 26.2034 19.0726C23.0135 19.3986 20.0156 20.8128 17.7279 23.1005L17.1005 23.7279C14.475 26.3534 13 29.9144 13 33.6274V36.5656C13 42.4969 10.6438 48.1853 6.44966 52.3793C6.16175 52.6672 6 53.0577 6 53.4649C6 54.3127 6.68733 55.0001 7.53519 55.0001H48.4648C49.3127 55.0001 50 54.3127 50 53.4649C50 53.0577 49.8383 52.6672 49.5503 52.3793C45.3562 48.1853 43 42.4969 43 36.5656V33.6274C43 29.9144 41.525 26.3534 38.8995 23.7279L38.2721 23.1005C35.9844 20.8128 32.9865 19.3986 29.7966 19.0726ZM23.0718 60C23.0718 59.6601 23.1068 59.3254 23.1741 59.0001H32.8259C32.8932 59.3254 32.9282 59.6601 32.9282 60C32.9282 61.7607 31.9889 63.3876 30.4641 64.2679C28.9393 65.1483 27.0607 65.1483 25.5359 64.2679C24.0111 63.3876 23.0718 61.7607 23.0718 60Z" stroke="currentColor" stroke-linecap="round" stroke-linejoin="round" />
  <path d="M53.8926 22C53.8926 20.8954 54.788 20 55.8926 20H63.8926V12C63.8926 10.8954 64.788 10 65.8926 10C66.9972 10 67.8926 10.8954 67.8926 12V20L75.8926 20C76.9971 20 77.8926 20.8954 77.8926 22C77.8926 23.1046 76.9971 24 75.8926 24L67.8926 24V32C67.8926 33.1046 66.9971 34 65.8926 34C64.788 34 63.8926 33.1046 63.8926 32V24H55.8926C54.788 24 53.8926 23.1046 53.8926 22Z" stroke="currentColor" stroke-linecap="round" stroke-linejoin="round" />
</svg>