<svg viewBox="0 0 80 80" fill="none">
  <path fill-rule="evenodd" clip-rule="evenodd" d="M33.5 7C32.3954 7 31.5 7.89543 31.5 9V18.3402L21.1475 25.8617C20.8227 25.6338 20.427 25.5 20 25.5H8C6.89543 25.5 6 26.3954 6 27.5V39.5C6 40.6046 6.89543 41.5 8 41.5H14.267L19.3033 57H17.5C16.3954 57 15.5 57.8954 15.5 59V71C15.5 72.1046 16.3954 73 17.5 73H29.5C30.6046 73 31.5 72.1046 31.5 71V65.8435H47.5V71C47.5 72.1046 48.3954 73 49.5 73H61.5C62.6046 73 63.5 72.1046 63.5 71V59C63.5 57.8954 62.6046 57 61.5 57H59.6967L64.733 41.5H71C72.1046 41.5 73 40.6046 73 39.5V27.5C73 26.3954 72.1046 25.5 71 25.5H59C58.573 25.5 58.1773 25.6338 57.8525 25.8617L47.5 18.3402V9C47.5 7.89543 46.6046 7 45.5 7H33.5ZM61 29.5V37.5H69V29.5H61ZM57 30.1866L47.1085 23H31.8915L22 30.1866V41.5H18.4729L23.5091 57H31.5V61.8435H47.5V57H55.4909L60.5271 41.5H57V30.1866ZM10 29.5H18V37.5H10V29.5ZM51.5 69H59.5V61H51.5V69ZM27.5 69H19.5V61H27.5V69ZM43.5 11H35.5V19H43.5V11Z" stroke="currentColor" stroke-linecap="round" stroke-linejoin="round" />
</svg>