<svg viewBox="0 0 80 80" fill="none">
  <path fill-rule="evenodd" clip-rule="evenodd" d="M40 21.9951C41.1046 21.9951 42 22.8905 42 23.9951V24.0051C42 25.1097 41.1046 26.0051 40 26.0051C38.8954 26.0051 38 25.1097 38 24.0051V23.9951C38 22.8905 38.8954 21.9951 40 21.9951ZM64 21.9951C65.1046 21.9951 66 22.8905 66 23.9951V24.0051C66 25.1097 65.1046 26.0051 64 26.0051C62.8954 26.0051 62 25.1097 62 24.0051V23.9951C62 22.8905 62.8954 21.9951 64 21.9951ZM16 21.9951C17.1046 21.9951 18 22.8905 18 23.9951V24.0051C18 25.1097 17.1046 26.0051 16 26.0051C14.8954 26.0051 14 25.1097 14 24.0051V23.9951C14 22.8905 14.8954 21.9951 16 21.9951ZM16 29.9951C17.1046 29.9951 18 30.8905 18 31.9951V32.0051C18 33.1097 17.1046 34.0051 16 34.0051C14.8954 34.0051 14 33.1097 14 32.0051V31.9951C14 30.8905 14.8954 29.9951 16 29.9951ZM40 29.9951C41.1046 29.9951 42 30.8905 42 31.9951V32.0051C42 33.1097 41.1046 34.0051 40 34.0051C38.8954 34.0051 38 33.1097 38 32.0051V31.9951C38 30.8905 38.8954 29.9951 40 29.9951ZM64 29.9951C65.1046 29.9951 66 30.8905 66 31.9951V32.0051C66 33.1097 65.1046 34.0051 64 34.0051C62.8954 34.0051 62 33.1097 62 32.0051V31.9951C62 30.8905 62.8954 29.9951 64 29.9951ZM21.995 40.0001C21.995 38.8955 22.8904 38.0001 23.995 38.0001H24.005C25.1096 38.0001 26.005 38.8955 26.005 40.0001C26.005 41.1047 25.1096 42.0001 24.005 42.0001H23.995C22.8904 42.0001 21.995 41.1047 21.995 40.0001ZM29.995 40.0001C29.995 38.8955 30.8904 38.0001 31.995 38.0001H32.005C33.1096 38.0001 34.005 38.8955 34.005 40.0001C34.005 41.1047 33.1096 42.0001 32.005 42.0001H31.995C30.8904 42.0001 29.995 41.1047 29.995 40.0001ZM45.995 40.0001C45.995 38.8955 46.8904 38.0001 47.995 38.0001H48.005C49.1096 38.0001 50.005 38.8955 50.005 40.0001C50.005 41.1047 49.1096 42.0001 48.005 42.0001H47.995C46.8904 42.0001 45.995 41.1047 45.995 40.0001ZM53.995 40.0001C53.995 38.8955 54.8904 38.0001 55.995 38.0001H56.005C57.1096 38.0001 58.005 38.8955 58.005 40.0001C58.005 41.1047 57.1096 42.0001 56.005 42.0001H55.995C54.8904 42.0001 53.995 41.1047 53.995 40.0001ZM16 45.9951C17.1046 45.9951 18 46.8905 18 47.9951V48.0051C18 49.1097 17.1046 50.0051 16 50.0051C14.8954 50.0051 14 49.1097 14 48.0051V47.9951C14 46.8905 14.8954 45.9951 16 45.9951ZM40 45.9951C41.1046 45.9951 42 46.8905 42 47.9951V48.0051C42 49.1097 41.1046 50.0051 40 50.0051C38.8954 50.0051 38 49.1097 38 48.0051V47.9951C38 46.8905 38.8954 45.9951 40 45.9951ZM64 45.9951C65.1046 45.9951 66 46.8905 66 47.9951V48.0051C66 49.1097 65.1046 50.0051 64 50.0051C62.8954 50.0051 62 49.1097 62 48.0051V47.9951C62 46.8905 62.8954 45.9951 64 45.9951ZM16 53.9951C17.1046 53.9951 18 54.8905 18 55.9951V56.0051C18 57.1097 17.1046 58.0051 16 58.0051C14.8954 58.0051 14 57.1097 14 56.0051V55.9951C14 54.8905 14.8954 53.9951 16 53.9951ZM40 53.9951C41.1046 53.9951 42 54.8905 42 55.9951V56.0051C42 57.1097 41.1046 58.0051 40 58.0051C38.8954 58.0051 38 57.1097 38 56.0051V55.9951C38 54.8905 38.8954 53.9951 40 53.9951ZM64 53.9951C65.1046 53.9951 66 54.8905 66 55.9951V56.0051C66 57.1097 65.1046 58.0051 64 58.0051C62.8954 58.0051 62 57.1097 62 56.0051V55.9951C62 54.8905 62.8954 53.9951 64 53.9951ZM17.4167 62.5833C17.0545 62.22 16.5535 61.9951 16 61.9951C14.8954 61.9951 14 62.8905 14 63.9951V64.0001C14 65.1047 14.8954 66.0001 16 66.0001H16.005C17.1096 66.0001 18.005 65.1047 18.005 64.0001C18.005 63.4465 17.7801 62.9455 17.4167 62.5833ZM21.995 64.0001C21.995 62.8955 22.8904 62.0001 23.995 62.0001H24.005C25.1096 62.0001 26.005 62.8955 26.005 64.0001C26.005 65.1047 25.1096 66.0001 24.005 66.0001H23.995C22.8904 66.0001 21.995 65.1047 21.995 64.0001ZM29.995 64.0001C29.995 62.8955 30.8904 62.0001 31.995 62.0001H32.005C33.1096 62.0001 34.005 62.8955 34.005 64.0001C34.005 65.1047 33.1096 66.0001 32.005 66.0001H31.995C30.8904 66.0001 29.995 65.1047 29.995 64.0001ZM45.995 64.0001C45.995 62.8955 46.8904 62.0001 47.995 62.0001H48.005C49.1096 62.0001 50.005 62.8955 50.005 64.0001C50.005 65.1047 49.1096 66.0001 48.005 66.0001H47.995C46.8904 66.0001 45.995 65.1047 45.995 64.0001ZM53.995 64.0001C53.995 62.8955 54.8904 62.0001 55.995 62.0001H56.005C57.1096 62.0001 58.005 62.8955 58.005 64.0001C58.005 65.1047 57.1096 66.0001 56.005 66.0001H55.995C54.8904 66.0001 53.995 65.1047 53.995 64.0001Z" stroke="currentColor" stroke-linecap="round" stroke-linejoin="round" />
  <path d="M37.9927 40.0001C37.9927 38.8955 38.8881 38.0001 39.9927 38.0001H40.0027C41.1072 38.0001 42.0027 38.8955 42.0027 40.0001C42.0027 41.1047 41.1072 42.0001 40.0027 42.0001H39.9927C38.8881 42.0001 37.9927 41.1047 37.9927 40.0001Z" stroke="currentColor" stroke-linecap="round" stroke-linejoin="round" />
  <path d="M61.9755 40.0001C61.9755 38.8956 62.871 38.0001 63.9755 38.0001H63.9855C65.0901 38.0001 65.9855 38.8956 65.9855 40.0001C65.9855 41.1047 65.0901 42.0001 63.9855 42.0001H63.9755C62.871 42.0001 61.9755 41.1047 61.9755 40.0001Z" stroke="currentColor" stroke-linecap="round" stroke-linejoin="round" />
  <path d="M61.99 64.0001C61.99 62.8955 62.8854 62.0001 63.99 62.0001H64C65.1046 62.0001 66 62.8955 66 64.0001C66 65.1047 65.1046 66.0001 64 66.0001H63.99C62.8854 66.0001 61.99 65.1047 61.99 64.0001Z" stroke="currentColor" stroke-linecap="round" stroke-linejoin="round" />
  <path d="M37.9699 64.0001C37.9699 62.8956 38.8654 62.0001 39.9699 62.0001H39.9799C41.0845 62.0001 41.9799 62.8956 41.9799 64.0001C41.9799 65.1047 41.0845 66.0001 39.9799 66.0001H39.9699C38.8654 66.0001 37.9699 65.1047 37.9699 64.0001Z" stroke="currentColor" stroke-linecap="round" stroke-linejoin="round" />
  <path d="M14 40.0001C14 38.8955 14.8954 38.0001 16 38.0001H16.01C17.1146 38.0001 18.01 38.8955 18.01 40.0001C18.01 41.1047 17.1146 42.0001 16.01 42.0001H16C14.8954 42.0001 14 41.1047 14 40.0001Z" stroke="currentColor" stroke-linecap="round" stroke-linejoin="round" />
  <path fill-rule="evenodd" clip-rule="evenodd" d="M14 16C14 14.8954 14.8954 14 16 14H64C65.1046 14 66 14.8954 66 16C66 17.1046 65.1046 18 64 18H16C14.8954 18 14 17.1046 14 16Z" stroke="currentColor" stroke-linecap="round" stroke-linejoin="round" />
</svg>