<svg viewBox="0 0 80 80" fill="none">
  <path fill-rule="evenodd" clip-rule="evenodd" d="M47.0622 30.0941C42.6921 27.5711 37.3079 27.5711 32.9378 30.0941C28.5677 32.6172 25.8756 37.28 25.8756 42.3262C25.8756 47.3723 28.5677 52.0352 32.9378 54.5582C37.3079 57.0813 42.6921 57.0813 47.0622 54.5582C51.4323 52.0352 54.1244 47.3723 54.1244 42.3262C54.1244 37.28 51.4323 32.6172 47.0622 30.0941ZM34.9378 33.5582C38.0703 31.7497 41.9297 31.7497 45.0622 33.5582C48.1947 35.3668 50.1244 38.7091 50.1244 42.3262C50.1244 45.9433 48.1947 49.2856 45.0622 51.0941C41.9297 52.9027 38.0703 52.9027 34.9378 51.0941C31.8053 49.2856 29.8756 45.9433 29.8756 42.3262C29.8756 38.7091 31.8053 35.3668 34.9378 33.5582Z" stroke="currentColor" stroke-linecap="round" stroke-linejoin="round" />
  <path fill-rule="evenodd" clip-rule="evenodd" d="M31.2157 14.3261C29.5583 14.3261 28.0726 15.3483 27.4801 16.8962L25.7844 21.3262H15C12.2386 21.3262 10 23.5648 10 26.3262V60.3262C10 63.0876 12.2386 65.3262 15 65.3262H65C67.7614 65.3262 70 63.0876 70 60.3262V26.3262C70 23.5648 67.7614 21.3262 65 21.3262H55.0555L53.3598 16.8962C52.7673 15.3483 51.2815 14.3261 49.6241 14.3261L31.2157 14.3261ZM31.2157 18.3261L49.6241 18.3261L52.3035 25.3262H65C65.5523 25.3262 66 25.7739 66 26.3262V60.3262C66 60.8785 65.5523 61.3262 65 61.3262H15C14.4477 61.3262 14 60.8785 14 60.3262V26.3262C14 25.7739 14.4477 25.3262 15 25.3262H28.5363L31.2157 18.3261Z" stroke="currentColor" stroke-linecap="round" stroke-linejoin="round" />
</svg>