<svg viewBox="0 0 80 80" fill="none">
  <path fill-rule="evenodd" clip-rule="evenodd" d="M18.846 44.6418C16.4546 46.0225 15.6352 49.0804 17.0159 51.4719C18.3966 53.8634 21.4546 54.6827 23.846 53.302C26.2375 51.9213 27.0569 48.8634 25.6762 46.4719C24.2954 44.0804 21.2375 43.2611 18.846 44.6418ZM20.48 49.4719C20.2039 48.9936 20.3677 48.382 20.846 48.1059C21.3243 47.8297 21.9359 47.9936 22.2121 48.4719C22.4882 48.9502 22.3243 49.5618 21.846 49.8379C21.3677 50.1141 20.7561 49.9502 20.48 49.4719Z" stroke="currentColor" stroke-linecap="round" stroke-linejoin="round" />
  <path fill-rule="evenodd" clip-rule="evenodd" d="M53.389 30.4719C52.0083 28.0804 48.9503 27.2611 46.5588 28.6418C44.1674 30.0225 43.348 33.0804 44.7287 35.4719C46.1094 37.8634 49.1674 38.6827 51.5588 37.302C53.9503 35.9213 54.7697 32.8634 53.389 30.4719ZM48.5588 32.1059C49.0371 31.8297 49.6487 31.9936 49.9249 32.4719C50.201 32.9502 50.0371 33.5618 49.5588 33.8379C49.0805 34.1141 48.469 33.9502 48.1928 33.4719C47.9167 32.9936 48.0805 32.382 48.5588 32.1059Z" stroke="currentColor" stroke-linecap="round" stroke-linejoin="round" />
  <path fill-rule="evenodd" clip-rule="evenodd" d="M14.6305 22.6194C11.0617 24.6799 9.12227 28.7186 9.74553 32.7921L11.2176 42.4129C8.63422 45.5402 8.12091 50.0653 10.2682 53.7845L13.2682 58.9807C14.3786 60.904 16.3931 61.9799 18.4649 61.9817L20.5518 65.5963C21.6564 67.5095 24.1027 68.165 26.0159 67.0604L31.2121 64.0604C33.1252 62.9558 33.7807 60.5095 32.6762 58.5963L30.9906 55.6768L50.0432 44.6768L51.7287 47.5963C52.8333 49.5095 55.2797 50.165 57.1928 49.0604L62.389 46.0604C64.3022 44.9558 64.9577 42.5095 63.8531 40.5963L61.7662 36.9817C62.8006 35.1865 62.876 32.904 61.7656 30.9807L58.7656 25.7845C56.6183 22.0653 52.4426 20.2472 48.4426 20.921L40.8468 14.8358C37.6307 12.2593 33.1633 11.9195 29.5945 13.9799L14.6305 22.6194ZM44.1997 22.6471L14.8339 39.6015L13.6995 32.1871C13.3256 29.743 14.4892 27.3198 16.6305 26.0835L31.5945 17.444C33.7358 16.2078 36.4162 16.4116 38.3459 17.9575L44.1997 22.6471ZM13.7323 51.7845C12.0754 48.9147 13.0587 45.2452 15.9284 43.5884L47.1073 25.5872C49.9768 23.932 53.645 24.9154 55.3015 27.7845L58.3015 32.9807C58.8538 33.9372 58.526 35.1604 57.5694 35.7127L19.4643 57.7127C18.5077 58.265 17.2846 57.9372 16.7323 56.9807L13.7323 51.7845ZM24.0159 63.5963L22.3304 60.6768L27.5265 57.6768L29.2121 60.5963L24.0159 63.5963ZM55.1928 45.5963L53.5073 42.6769L58.7034 39.6769L60.389 42.5963L55.1928 45.5963Z" stroke="currentColor" stroke-linecap="round" stroke-linejoin="round" />
  <path fill-rule="evenodd" clip-rule="evenodd" d="M64.8973 55.5178C61.867 53.7682 58.1335 53.7682 55.1031 55.5178C52.0728 57.2674 50.206 60.5007 50.206 63.9999C50.206 64.8592 50.3187 65.7032 50.5338 66.5132C50.7665 67.3897 51.5599 67.9999 52.4668 67.9999H67.5337C68.4405 67.9999 69.2339 67.3897 69.4667 66.5132C69.6818 65.7032 69.7945 64.8592 69.7945 63.9999C69.7945 60.5007 67.9277 57.2674 64.8973 55.5178ZM57.1031 58.9819C58.8959 57.9469 61.1046 57.9469 62.8973 58.9819C64.6901 60.0169 65.7945 61.9298 65.7945 63.9999L54.206 63.9999C54.206 61.9298 55.3104 60.0169 57.1031 58.9819Z" stroke="currentColor" stroke-linecap="round" stroke-linejoin="round" />
</svg>