<svg viewBox="0 0 80 80" fill="none">
  <path fill-rule="evenodd" clip-rule="evenodd" d="M24.5649 8.81831C23.5671 6.61135 20.4329 6.61134 19.4351 8.81831L18.9594 9.87048C18.6334 10.5915 18.2555 11.2879 17.8286 11.9542L16.4741 14.0684C15.3964 15.7505 15.2065 17.8524 15.9651 19.7005C16.5822 21.2037 17.7712 22.4002 19.2705 23.0268L19.453 23.1031C21.0827 23.7843 22.9173 23.7843 24.547 23.1031L24.7295 23.0268C26.2288 22.4002 27.4178 21.2037 28.0349 19.7005C28.7935 17.8524 28.6036 15.7505 27.5259 14.0683L26.1714 11.9541C25.7445 11.2879 25.3666 10.5915 25.0406 9.87048L24.5649 8.81831ZM21.1967 14.112C21.4822 13.6662 21.7502 13.2097 22 12.7434C22.2498 13.2097 22.5178 13.6662 22.8033 14.112L24.1578 16.2262C24.532 16.8101 24.5979 17.5398 24.3345 18.1814C24.1203 18.7033 23.7076 19.1187 23.1871 19.3362L23.0045 19.4125C22.3618 19.6811 21.6382 19.6811 20.9955 19.4125L20.8129 19.3362C20.2924 19.1187 19.8797 18.7033 19.6655 18.1814C19.4021 17.5398 19.468 16.8101 19.8422 16.2262L21.1967 14.112Z" stroke="currentColor" stroke-linecap="round" stroke-linejoin="round" />
  <path fill-rule="evenodd" clip-rule="evenodd" d="M24 50.3711C21.2386 50.3711 19 52.6096 19 55.3711C19 58.1325 21.2386 60.3711 24 60.3711C26.7614 60.3711 29 58.1325 29 55.3711C29 52.6096 26.7614 50.3711 24 50.3711ZM23 55.3711C23 54.8188 23.4477 54.3711 24 54.3711C24.5523 54.3711 25 54.8188 25 55.3711C25 55.9234 24.5523 56.3711 24 56.3711C23.4477 56.3711 23 55.9234 23 55.3711Z" stroke="currentColor" stroke-linecap="round" stroke-linejoin="round" />
  <path fill-rule="evenodd" clip-rule="evenodd" d="M61 55.3711C61 52.6096 58.7614 50.3711 56 50.3711C53.2386 50.3711 51 52.6096 51 55.3711C51 58.1325 53.2386 60.3711 56 60.3711C58.7614 60.3711 61 58.1325 61 55.3711ZM56 54.3711C56.5523 54.3711 57 54.8188 57 55.3711C57 55.9234 56.5523 56.3711 56 56.3711C55.4477 56.3711 55 55.9234 55 55.3711C55 54.8188 55.4477 54.3711 56 54.3711Z" stroke="currentColor" stroke-linecap="round" stroke-linejoin="round" />
  <path fill-rule="evenodd" clip-rule="evenodd" d="M31.3604 29.1914C27.2395 29.1914 23.5406 31.7193 22.0436 35.5587L18.508 44.6266C14.7071 46.0432 12 49.7054 12 54V60C12 62.2208 13.2066 64.1599 15 65.1973V69.3711C15 71.5802 16.7909 73.3711 19 73.3711H25C27.2091 73.3711 29 71.5802 29 69.3711V66H51V69.3711C51 71.5802 52.7909 73.3711 55 73.3711H61C63.2091 73.3711 65 71.5802 65 69.3711V65.1973C66.7934 64.1599 68 62.2208 68 60V54C68 49.7054 65.2928 46.0431 61.4918 44.6265L57.9562 35.5587C56.4592 31.7193 52.7603 29.1914 48.6394 29.1914H31.3604ZM56.9542 44H23.0456L25.7703 37.0118C26.6685 34.7081 28.8879 33.1914 31.3604 33.1914H48.6394C51.1119 33.1914 53.3313 34.7081 54.2295 37.0118L56.9542 44ZM16 54C16 50.6863 18.6863 48 22 48H58C61.3137 48 64 50.6863 64 54V60C64 61.1045 63.1046 62 62 62H18C16.8954 62 16 61.1045 16 60V54ZM19 69.3711V66H25V69.3711H19ZM61 66V69.3711H55V66H61Z" stroke="currentColor" stroke-linecap="round" stroke-linejoin="round" />
  <path fill-rule="evenodd" clip-rule="evenodd" d="M37.4351 8.81831C38.4329 6.61134 41.5671 6.61135 42.5649 8.81831L43.0406 9.87048C43.3666 10.5915 43.7445 11.2879 44.1714 11.9541L45.5259 14.0683C46.6036 15.7505 46.7935 17.8524 46.0349 19.7005C45.4178 21.2037 44.2288 22.4002 42.7295 23.0268L42.547 23.1031C40.9173 23.7843 39.0827 23.7843 37.453 23.1031L37.2705 23.0268C35.7712 22.4002 34.5822 21.2037 33.9651 19.7005C33.2065 17.8524 33.3964 15.7505 34.4741 14.0684L35.8286 11.9542C36.2555 11.2879 36.6334 10.5915 36.9594 9.87048L37.4351 8.81831ZM40 12.7434C39.7502 13.2097 39.4822 13.6662 39.1967 14.112L37.8422 16.2262C37.468 16.8101 37.4021 17.5398 37.6655 18.1814C37.8797 18.7033 38.2924 19.1187 38.8129 19.3362L38.9955 19.4125C39.6382 19.6811 40.3618 19.6811 41.0045 19.4125L41.1871 19.3362C41.7076 19.1187 42.1203 18.7033 42.3345 18.1814C42.5979 17.5398 42.532 16.8101 42.1578 16.2262L40.8033 14.112C40.5178 13.6662 40.2498 13.2097 40 12.7434Z" stroke="currentColor" stroke-linecap="round" stroke-linejoin="round" />
  <path fill-rule="evenodd" clip-rule="evenodd" d="M60.5649 8.81831C59.5671 6.61135 56.4329 6.61134 55.4351 8.81831L54.9594 9.87048C54.6334 10.5915 54.2555 11.2879 53.8286 11.9542L52.4741 14.0684C51.3964 15.7505 51.2065 17.8524 51.9651 19.7005C52.5822 21.2037 53.7712 22.4002 55.2705 23.0268L55.453 23.1031C57.0827 23.7843 58.9173 23.7843 60.547 23.1031L60.7295 23.0268C62.2288 22.4002 63.4178 21.2037 64.0349 19.7005C64.7935 17.8524 64.6036 15.7505 63.5259 14.0683L62.1714 11.9541C61.7445 11.2879 61.3666 10.5915 61.0406 9.87048L60.5649 8.81831ZM57.1967 14.112C57.4822 13.6662 57.7502 13.2097 58 12.7434C58.2498 13.2097 58.5178 13.6662 58.8033 14.112L60.1578 16.2262C60.532 16.8101 60.5979 17.5398 60.3345 18.1814C60.1203 18.7033 59.7076 19.1187 59.1871 19.3362L59.0045 19.4125C58.3618 19.6811 57.6382 19.6811 56.9955 19.4125L56.8129 19.3362C56.2924 19.1187 55.8797 18.7033 55.6655 18.1814C55.4021 17.5398 55.468 16.8101 55.8422 16.2262L57.1967 14.112Z" stroke="currentColor" stroke-linecap="round" stroke-linejoin="round" />
</svg>