<svg viewBox="0 0 80 80" fill="none">
  <path d="M53.5644 14.9581C52.599 14.4214 51.3813 14.769 50.8446 15.7344C50.308 16.6999 50.6556 17.9176 51.621 18.4542L57.6769 21.8205C58.447 22.2486 59.4066 22.1223 60.0396 21.5095L62.6198 19.0118L63.6055 22.4649C63.8474 23.3122 64.6152 23.9014 65.4962 23.9157L69.0868 23.9741L67.342 27.1128C66.9139 27.8829 67.0403 28.8424 67.6531 29.4755L70.1507 32.0557L66.6976 33.0414C65.8504 33.2833 65.2612 34.0511 65.2469 34.9321L65.1342 41.8598C65.1163 42.9642 65.997 43.8741 67.1014 43.892C68.2059 43.91 69.1157 43.0292 69.1337 41.9248L69.2222 36.4805L74.4581 34.986C75.134 34.793 75.659 34.2594 75.8409 33.5804C76.0229 32.9014 75.835 32.1768 75.3461 31.6717L71.559 27.7595L74.2045 23.0003C74.546 22.3859 74.5399 21.6374 74.1885 21.0286C73.837 20.4198 73.1918 20.0403 72.4889 20.0289L67.0447 19.9403L65.5501 14.7045C65.3571 14.0286 64.8235 13.5035 64.1445 13.3216C63.4655 13.1397 62.7409 13.3275 62.2359 13.8164L58.3236 17.6035L53.5644 14.9581Z" stroke="currentColor" stroke-linecap="round" stroke-linejoin="round" />
  <path fill-rule="evenodd" clip-rule="evenodd" d="M15.9316 42.5478C13.2643 43.2626 11.6814 46.0042 12.3961 48.6716C13.1108 51.3389 15.8525 52.9218 18.5198 52.2071C21.1871 51.4924 22.7701 48.7507 22.0553 46.0834C21.3406 43.416 18.599 41.8331 15.9316 42.5478ZM16.2598 47.6363C16.1169 47.1028 16.4334 46.5545 16.9669 46.4115C17.5004 46.2686 18.0487 46.5852 18.1916 47.1186C18.3346 47.6521 18.018 48.2005 17.4845 48.3434C16.9511 48.4863 16.4027 48.1698 16.2598 47.6363Z" stroke="currentColor" stroke-linecap="round" stroke-linejoin="round" />
  <path fill-rule="evenodd" clip-rule="evenodd" d="M52.965 37.8012C52.2503 35.1338 49.5086 33.5509 46.8413 34.2656C44.1739 34.9803 42.591 37.722 43.3057 40.3894C44.0204 43.0567 46.7621 44.6396 49.4294 43.9249C52.0968 43.2102 53.6797 40.4685 52.965 37.8012ZM47.8765 38.1293C48.41 37.9864 48.9583 38.303 49.1013 38.8364C49.2442 39.3699 48.9276 39.9182 48.3942 40.0612C47.8607 40.2041 47.3124 39.8875 47.1694 39.3541C47.0265 38.8206 47.3431 38.2723 47.8765 38.1293Z" stroke="currentColor" stroke-linecap="round" stroke-linejoin="round" />
  <path fill-rule="evenodd" clip-rule="evenodd" d="M17.5596 20.1848C13.5791 21.2514 10.6604 24.6505 10.2081 28.7466L9.13996 38.4206C5.83526 40.7726 4.16824 45.0107 5.27975 49.1589L6.83266 54.9545C7.40746 57.0997 9.0748 58.6603 11.0756 59.1982L12.1559 63.2298C12.7276 65.3637 14.921 66.63 17.0548 66.0583L22.8504 64.5054C24.9843 63.9336 26.2506 61.7402 25.6788 59.6064L24.8063 56.3501L46.0567 50.6561L46.9292 53.9123C47.501 56.0462 49.6943 57.3125 51.8282 56.7408L57.6237 55.1879C59.7576 54.6161 61.0239 52.4228 60.4522 50.2889L59.3719 46.2573C60.8357 44.791 61.4993 42.6058 60.9245 40.4606L59.3716 34.6651C58.2601 30.5168 54.6972 27.6799 50.6591 27.2954L44.8971 19.4517C42.4574 16.1306 38.2302 14.6461 34.2497 15.7127L17.5596 20.1848ZM46.114 27.8647L13.3608 36.6409L14.184 29.1856C14.4554 26.728 16.2065 24.6885 18.5948 24.0485L35.285 19.5764C37.6733 18.9365 40.2096 19.8271 41.6734 21.8198L46.114 27.8647ZM9.14345 48.1236C8.28604 44.9237 10.1843 41.6346 13.3835 40.7759L48.1594 31.4577C51.3602 30.6 54.6502 32.4995 55.5079 35.7003L57.0608 41.4959C57.3467 42.5628 56.7135 43.6595 55.6466 43.9454L13.1459 55.3334C12.0789 55.6193 10.9822 54.9861 10.6964 53.9192L9.14345 48.1236ZM16.0196 62.1946L15.1471 58.9383L20.9426 57.3854L21.8151 60.6416L16.0196 62.1946ZM50.7929 52.8771L49.9204 49.6209L55.716 48.0679L56.5885 51.3242L50.7929 52.8771Z" stroke="currentColor" stroke-linecap="round" stroke-linejoin="round" />
</svg>