<svg viewBox="0 0 80 80" fill="none">
  <path d="M40.7442 22.0624C40.3537 21.6719 39.7205 21.6719 39.33 22.0624L17.4513 43.9411C16.6703 44.7222 15.4039 44.7222 14.6229 43.9411C13.8418 43.1601 13.8418 41.8937 14.6229 41.1127L36.5016 19.234C38.4542 17.2814 41.62 17.2814 43.5726 19.234L65.4513 41.1127C66.2324 41.8937 66.2324 43.1601 65.4513 43.9411C64.6703 44.7222 63.4039 44.7222 62.6229 43.9411L40.7442 22.0624Z" stroke="currentColor" stroke-linecap="round" stroke-linejoin="round" />
  <path d="M40.7442 38.0624C40.3537 37.6719 39.7205 37.6719 39.33 38.0624L17.4513 59.9411C16.6703 60.7222 15.4039 60.7222 14.6229 59.9411C13.8418 59.1601 13.8418 57.8937 14.6229 57.1127L36.5016 35.234C38.4542 33.2814 41.62 33.2814 43.5726 35.234L65.4513 57.1127C66.2324 57.8937 66.2324 59.1601 65.4513 59.9411C64.6703 60.7222 63.4039 60.7222 62.6229 59.9411L40.7442 38.0624Z" stroke="currentColor" stroke-linecap="round" stroke-linejoin="round" />
</svg>