<svg viewBox="0 0 80 80" fill="none">
  <path d="M40.8 33.9214L40.8 29.8636L34.7989 35.9214H38.8C39.8845 35.9214 40.7674 35.0582 40.7991 33.9815C40.7997 33.9617 40.8 33.9413 40.8 33.9214ZM40.8 33.9214C40.8 33.9216 40.8 33.9212 40.8 33.9214ZM22.0007 11C18.6867 10.9996 16 13.686 16 17L16 50.9999C16 54.3136 18.6863 56.9999 22 56.9999H28V63.0003C28 66.314 30.6863 69.0003 34 69.0003H58C61.3137 69.0003 64 66.314 64 63.0003L64 29.0003C64 25.6864 61.3133 23 57.9993 23.0003L52 23.001V17.0003C52 13.6861 49.3131 10.9997 45.9989 11.0003L22.0007 11ZM32 39.9219H38.8C42.1057 39.9219 44.787 37.2486 44.7999 33.9459C44.8 33.9377 44.8 33.9296 44.8 33.9214L44.8 27.0018L57.9998 27.0003C59.1044 27.0002 60 27.8957 60 29.0003L60 63.0003C60 64.1048 59.1046 65.0003 58 65.0003H34C32.8954 65.0003 32 64.1048 32 63.0003V39.9219ZM40.4273 24.5673C41.5295 23.5625 42.9699 23.0017 44.4686 23.0015L48 23.0011V17.0003C48 15.8956 47.1044 15.0001 45.9996 15.0003L22.0002 15C20.8956 14.9999 20 15.8953 20 17L20 50.9999C20 52.1045 20.8954 52.9999 22 52.9999H28L28 39.57C28 39.4711 28.0024 39.3722 28.0073 39.2739C28.076 37.8798 28.629 36.5522 29.5716 35.5213C29.6138 35.4724 29.6583 35.4243 29.705 35.3772L40.2423 24.7385C40.3025 24.6777 40.3642 24.6207 40.4273 24.5673Z" stroke="currentColor" stroke-linecap="round" stroke-linejoin="round" />
</svg>