<svg viewBox="0 0 80 80" fill="none">
  <path fill-rule="evenodd" clip-rule="evenodd" d="M50 22C48.8954 22 48 22.8954 48 24V32C48 33.1046 48.8954 34 50 34H64C65.1046 34 66 33.1046 66 32V24C66 22.8954 65.1046 22 64 22H50ZM52 30V26H62V30H52Z" stroke="currentColor" stroke-linecap="round" stroke-linejoin="round" />
  <path fill-rule="evenodd" clip-rule="evenodd" d="M14 32C14 30.8954 14.8954 30 16 30H24C25.1046 30 26 30.8954 26 32V40C26 41.1046 25.1046 42 24 42H16C14.8954 42 14 41.1046 14 40V32ZM18 34V38H22V34H18Z" stroke="currentColor" stroke-linecap="round" stroke-linejoin="round" />
  <path d="M16 46C14.8954 46 14 46.8954 14 48C14 49.1046 14.8954 50 16 50H23C24.1046 50 25 49.1046 25 48C25 46.8954 24.1046 46 23 46H16Z" stroke="currentColor" stroke-linecap="round" stroke-linejoin="round" />
  <path d="M28 48C28 46.8954 28.8954 46 30 46H37C38.1046 46 39 46.8954 39 48C39 49.1046 38.1046 50 37 50H30C28.8954 50 28 49.1046 28 48Z" stroke="currentColor" stroke-linecap="round" stroke-linejoin="round" />
  <path d="M44 46C42.8954 46 42 46.8954 42 48C42 49.1046 42.8954 50 44 50H51C52.1046 50 53 49.1046 53 48C53 46.8954 52.1046 46 51 46H44Z" stroke="currentColor" stroke-linecap="round" stroke-linejoin="round" />
  <path d="M56 48C56 46.8954 56.8954 46 58 46H65C66.1046 46 67 46.8954 67 48C67 49.1046 66.1046 50 65 50H58C56.8954 50 56 49.1046 56 48Z" stroke="currentColor" stroke-linecap="round" stroke-linejoin="round" />
  <path d="M16 54C14.8954 54 14 54.8954 14 56C14 57.1046 14.8954 58 16 58H32C33.1046 58 34 57.1046 34 56C34 54.8954 33.1046 54 32 54H16Z" stroke="currentColor" stroke-linecap="round" stroke-linejoin="round" />
  <path fill-rule="evenodd" clip-rule="evenodd" d="M12 14C8.68629 14 6 16.6863 6 20V60C6 63.3137 8.68629 66 12 66H68C71.3137 66 74 63.3137 74 60V20C74 16.6863 71.3137 14 68 14H12ZM10 20C10 18.8954 10.8954 18 12 18H68C69.1046 18 70 18.8954 70 20V60C70 61.1046 69.1046 62 68 62H12C10.8954 62 10 61.1046 10 60V20Z" stroke="currentColor" stroke-linecap="round" stroke-linejoin="round" />
</svg>