<svg viewBox="0 0 80 80" fill="none">
  <path fill-rule="evenodd" clip-rule="evenodd" d="M40.0121 12.1314C43.6334 12.133 47.2544 12.8401 50.6649 14.2527C57.4935 17.0812 62.9188 22.5065 65.7473 29.3351C68.5758 36.1637 68.5758 43.8363 65.7473 50.6649C62.9188 57.4935 57.4935 62.9188 50.6649 65.7473C43.8363 68.5758 36.1637 68.5758 29.3351 65.7473C22.5065 62.9188 17.0812 57.4935 14.2527 50.6649C12.8401 47.2545 12.133 43.6337 12.1314 40.0126C12.1314 40.0089 12.1313 40.0053 12.1313 40.0016V39.9984C12.1313 39.9948 12.1314 39.9913 12.1314 39.9878C12.133 36.3666 12.8401 32.7456 14.2527 29.3351C17.0812 22.5065 22.5065 17.0812 29.3351 14.2527C32.7455 12.8401 36.3663 12.133 39.9874 12.1314C39.991 12.1314 39.9947 12.1313 39.9984 12.1313H40.0016C40.0051 12.1313 40.0086 12.1314 40.0121 12.1314ZM37.997 16.2155C35.5669 16.4201 33.1607 16.9977 30.8659 17.9483C25.0174 20.3708 20.3708 25.0174 17.9483 30.8659C16.9977 33.1607 16.4201 35.5669 16.2155 37.997L25.2165 37.9906C25.7472 37.9902 26.2562 38.2008 26.6316 38.5759C27.007 38.951 27.2179 39.4599 27.2179 39.9906V40.0093C27.2179 40.54 27.007 41.0489 26.6316 41.424C26.2562 41.7992 25.7472 42.0097 25.2165 42.0093L16.2155 42.003C16.4201 44.4331 16.9977 46.8392 17.9483 49.1341C20.3708 54.9826 25.0174 59.6292 30.8659 62.0517C33.1607 63.0023 35.5669 63.5799 37.997 63.7845L37.9906 54.7835C37.9902 54.2528 38.2008 53.7437 38.5759 53.3683C38.951 52.993 39.4599 52.782 39.9906 52.782H40.0093C40.54 52.782 41.0489 52.993 41.424 53.3683C41.7992 53.7437 42.0097 54.2528 42.0093 54.7835L42.003 63.7845C44.4331 63.5799 46.8392 63.0023 49.1341 62.0517C54.9826 59.6292 59.6292 54.9826 62.0517 49.1341C63.0023 46.8392 63.5799 44.4331 63.7845 42.003L54.7835 42.0093C54.2528 42.0097 53.7437 41.7992 53.3683 41.424C52.993 41.0489 52.782 40.54 52.782 40.0093V39.9906C52.782 39.4599 52.993 38.951 53.3683 38.5759C53.7437 38.2008 54.2528 37.9902 54.7835 37.9906L63.7845 37.997C63.5799 35.5669 63.0023 33.1607 62.0517 30.8659C59.6292 25.0174 54.9826 20.3708 49.1341 17.9483C46.8392 16.9977 44.4331 16.4201 42.003 16.2155L42.0093 25.2165C42.0097 25.7472 41.7992 26.2562 41.424 26.6316C41.0489 27.007 40.54 27.2179 40.0093 27.2179H39.9906C39.4599 27.2179 38.951 27.007 38.5759 26.6316C38.2008 26.2562 37.9902 25.7472 37.9906 25.2165L37.997 16.2155Z" stroke="currentColor" stroke-linecap="round" stroke-linejoin="round" />
</svg>