<svg viewBox="0 0 80 80" fill="none">
  <path fill-rule="evenodd" clip-rule="evenodd" d="M40.1121 33.0031L40.672 33.0346C40.7467 33.0388 40.8211 33.0472 40.8948 33.0597L41.4476 33.1536C41.5214 33.1662 41.5944 33.1828 41.6663 33.2035L42.2051 33.3587C42.277 33.3795 42.3476 33.4042 42.4168 33.4328L42.9348 33.6474C43.0039 33.676 43.0714 33.7085 43.1369 33.7447L43.6276 34.0159C43.6931 34.0521 43.7565 34.092 43.8175 34.1353L44.2748 34.4597C44.3358 34.503 44.3944 34.5497 44.4501 34.5996L44.8682 34.9732C44.924 35.023 44.977 35.076 45.0268 35.1318L45.4004 35.5499C45.4503 35.6056 45.497 35.6642 45.5403 35.7252L45.8647 36.1825C45.908 36.2435 45.9479 36.3069 45.9841 36.3724L46.2553 36.8631C46.2915 36.9286 46.324 36.9961 46.3526 37.0652L46.5672 37.5832C46.5958 37.6524 46.6205 37.723 46.6413 37.7949L46.7965 38.3337C46.8172 38.4056 46.8338 38.4786 46.8464 38.5524L46.9403 39.1052C46.9528 39.1789 46.9612 39.2533 46.9654 39.328L46.9969 39.8879C47.001 39.9626 47.001 40.0374 46.9969 40.1121L46.9654 40.672C46.9612 40.7467 46.9528 40.8211 46.9403 40.8948L46.8464 41.4476C46.8338 41.5214 46.8172 41.5944 46.7965 41.6663L46.6413 42.2051C46.6205 42.277 46.5958 42.3476 46.5672 42.4168L46.3526 42.9348C46.324 43.0039 46.2915 43.0714 46.2553 43.1369L45.9841 43.6276C45.9479 43.6931 45.908 43.7565 45.8647 43.8175L45.5403 44.2748C45.497 44.3358 45.4503 44.3944 45.4004 44.4501L45.0268 44.8682C44.977 44.924 44.924 44.977 44.8682 45.0268L44.4501 45.4004C44.3944 45.4503 44.3358 45.497 44.2748 45.5403L43.8175 45.8647C43.7565 45.908 43.6931 45.9479 43.6276 45.9841L43.1369 46.2553C43.0714 46.2915 43.0039 46.324 42.9348 46.3526L42.4168 46.5672C42.3476 46.5958 42.277 46.6205 42.2051 46.6413L41.6663 46.7965C41.5944 46.8172 41.5214 46.8338 41.4476 46.8464L40.8948 46.9403C40.8211 46.9528 40.7467 46.9612 40.672 46.9654L40.1121 46.9969C40.0374 47.001 39.9626 47.001 39.8879 46.9969L39.328 46.9654C39.2533 46.9612 39.1789 46.9528 39.1052 46.9403L38.5524 46.8464C38.4786 46.8338 38.4056 46.8172 38.3337 46.7965L37.7949 46.6413C37.723 46.6205 37.6524 46.5958 37.5832 46.5672L37.0652 46.3526C36.9961 46.324 36.9286 46.2915 36.8631 46.2553L36.3724 45.9841C36.3069 45.9479 36.2435 45.908 36.1825 45.8647L35.7252 45.5403C35.6642 45.497 35.6056 45.4503 35.5499 45.4004L35.1318 45.0268C35.076 44.977 35.023 44.924 34.9732 44.8682L34.5996 44.4501C34.5497 44.3944 34.503 44.3358 34.4597 44.2748L34.1353 43.8175C34.092 43.7565 34.0521 43.6931 34.0159 43.6276L33.7447 43.1369C33.7085 43.0714 33.676 43.0039 33.6474 42.9348L33.4328 42.4168C33.4042 42.3476 33.3795 42.277 33.3587 42.2051L33.2035 41.6663C33.1828 41.5944 33.1662 41.5214 33.1536 41.4476L33.0597 40.8948C33.0472 40.8211 33.0388 40.7467 33.0346 40.672L33.0031 40.1121C32.999 40.0374 32.999 39.9626 33.0031 39.8879L33.0346 39.328C33.0388 39.2533 33.0472 39.1789 33.0597 39.1052L33.1536 38.5524C33.1662 38.4786 33.1828 38.4056 33.2035 38.3337L33.3587 37.7949C33.3795 37.723 33.4042 37.6524 33.4328 37.5832L33.6474 37.0652C33.676 36.9961 33.7085 36.9286 33.7447 36.8631L34.0159 36.3724C34.0521 36.3069 34.092 36.2435 34.1353 36.1825L34.4597 35.7252C34.503 35.6642 34.5497 35.6056 34.5996 35.5499L34.9732 35.1318C35.023 35.076 35.076 35.023 35.1318 34.9732L35.5499 34.5996C35.6056 34.5497 35.6642 34.503 35.7252 34.4597L36.1825 34.1353C36.2435 34.092 36.3069 34.0521 36.3724 34.0159L36.8631 33.7447C36.9286 33.7085 36.9961 33.676 37.0652 33.6474L37.5832 33.4328C37.6524 33.4042 37.723 33.3795 37.7949 33.3587L38.3337 33.2035C38.4056 33.1828 38.4786 33.1662 38.5524 33.1536L39.1052 33.0597C39.1789 33.0472 39.2533 33.0388 39.328 33.0346L39.8879 33.0031C39.9626 32.999 40.0374 32.999 40.1121 33.0031ZM39.6645 37.022L39.3331 37.0783L39.0102 37.1713L38.6997 37.2999L38.4056 37.4625L38.1315 37.657L37.8809 37.8809L37.657 38.1315L37.4625 38.4056L37.2999 38.6997L37.1713 39.0102L37.0783 39.3331L37.022 39.6645L37.0032 40L37.022 40.3355L37.0783 40.6669L37.1713 40.9898L37.2999 41.3003L37.4625 41.5944L37.657 41.8685L37.8809 42.1191L38.1315 42.343L38.4056 42.5375L38.6997 42.7001L39.0102 42.8287L39.3331 42.9217L39.6645 42.978L40 42.9968L40.3355 42.978L40.6669 42.9217L40.9898 42.8287L41.3003 42.7001L41.5944 42.5375L41.8685 42.343L42.1191 42.1191L42.343 41.8685L42.5375 41.5944L42.7001 41.3003L42.8287 40.9898L42.9217 40.6669L42.978 40.3355L42.9968 40L42.978 39.6645L42.9217 39.3331L42.8287 39.0102L42.7001 38.6997L42.5375 38.4056L42.343 38.1315L42.1191 37.8809L41.8685 37.657L41.5944 37.4625L41.3003 37.2999L40.9898 37.1713L40.6669 37.0783L40.3355 37.022L40 37.0032L39.6645 37.022Z" stroke="currentColor" stroke-linecap="round" stroke-linejoin="round" />
  <path d="M30.1005 30.1005C32.726 27.475 36.287 26 40 26C41.1046 26 42 25.1046 42 24C42 22.8954 41.1046 22 40 22C35.2261 22 30.6477 23.8964 27.2721 27.2721C23.8964 30.6477 22 35.2261 22 40C22 41.1046 22.8954 42 24 42C25.1046 42 26 41.1046 26 40C26 36.287 27.475 32.726 30.1005 30.1005Z" stroke="currentColor" stroke-linecap="round" stroke-linejoin="round" />
  <path fill-rule="evenodd" clip-rule="evenodd" d="M39.8879 10.0031C39.9626 9.99895 40.0374 9.99895 40.1121 10.0031L43.2471 10.1792C43.3218 10.1834 43.3963 10.1918 43.47 10.2043L46.5656 10.7303C46.6394 10.7428 46.7124 10.7595 46.7843 10.7802L49.8015 11.6494C49.8734 11.6701 49.9441 11.6949 50.0132 11.7235L52.9141 12.9251C52.9832 12.9537 53.0507 12.9862 53.1162 13.0224L55.8643 14.5413C55.9298 14.5775 55.9932 14.6173 56.0542 14.6606L58.6151 16.4776C58.6761 16.5209 58.7346 16.5676 58.7904 16.6174L61.1317 18.7097C61.1875 18.7596 61.2404 18.8125 61.2903 18.8683L63.3826 21.2096C63.4324 21.2654 63.4791 21.3239 63.5224 21.3849L65.3394 23.9458C65.3827 24.0068 65.4225 24.0702 65.4587 24.1357L66.9776 26.8838C67.0138 26.9493 67.0463 27.0168 67.0749 27.0859L68.2765 29.9868C68.3051 30.0559 68.3299 30.1266 68.3506 30.1985L69.2198 33.2157C69.2405 33.2876 69.2572 33.3606 69.2697 33.4344L69.7957 36.53C69.8082 36.6037 69.8166 36.6782 69.8208 36.7529L69.9969 39.8879C70.001 39.9626 70.001 40.0374 69.9969 40.1121L69.8208 43.2471C69.8166 43.3218 69.8082 43.3963 69.7957 43.47L69.2697 46.5656C69.2572 46.6394 69.2405 46.7124 69.2198 46.7843L68.3506 49.8015C68.3299 49.8734 68.3051 49.9441 68.2765 50.0132L67.0749 52.9141C67.0463 52.9832 67.0138 53.0507 66.9776 53.1162L65.4587 55.8643C65.4225 55.9298 65.3827 55.9932 65.3394 56.0542L63.5224 58.6151C63.4791 58.6761 63.4324 58.7346 63.3826 58.7904L61.2903 61.1317C61.2404 61.1875 61.1875 61.2404 61.1317 61.2903L58.7904 63.3826C58.7346 63.4324 58.6761 63.4791 58.6151 63.5224L56.0542 65.3394C55.9932 65.3827 55.9298 65.4225 55.8643 65.4587L53.1162 66.9776C53.0507 67.0138 52.9832 67.0463 52.9141 67.0749L50.0132 68.2765C49.9441 68.3051 49.8734 68.3299 49.8015 68.3506L46.7843 69.2198C46.7124 69.2405 46.6394 69.2572 46.5656 69.2697L43.47 69.7957C43.3963 69.8082 43.3218 69.8166 43.2471 69.8208L40.1121 69.9969C40.0374 70.001 39.9626 70.001 39.8879 69.9969L36.7529 69.8208C36.6782 69.8166 36.6037 69.8082 36.53 69.7957L33.4344 69.2697C33.3606 69.2572 33.2876 69.2405 33.2157 69.2198L30.1985 68.3506C30.1266 68.3299 30.0559 68.3051 29.9868 68.2765L27.0859 67.0749C27.0168 67.0463 26.9493 67.0138 26.8838 66.9776L24.1357 65.4587C24.0702 65.4225 24.0068 65.3827 23.9458 65.3394L21.3849 63.5224C21.3239 63.4791 21.2654 63.4324 21.2096 63.3826L18.8683 61.2903C18.8125 61.2404 18.7596 61.1875 18.7097 61.1317L16.6174 58.7904C16.5676 58.7346 16.5209 58.6761 16.4776 58.6151L14.6606 56.0542C14.6173 55.9932 14.5775 55.9298 14.5413 55.8643L13.0224 53.1162C12.9862 53.0507 12.9537 52.9832 12.9251 52.9141L11.7235 50.0132C11.6949 49.9441 11.6701 49.8734 11.6494 49.8015L10.7802 46.7843C10.7595 46.7124 10.7428 46.6394 10.7303 46.5656L10.2043 43.47C10.1918 43.3963 10.1834 43.3218 10.1792 43.2471L10.0031 40.1121C9.99895 40.0374 9.99895 39.9626 10.0031 39.8879L10.1792 36.7529C10.1834 36.6782 10.1918 36.6037 10.2043 36.53L10.7303 33.4344C10.7428 33.3606 10.7595 33.2876 10.7802 33.2157L11.6494 30.1985C11.6701 30.1266 11.6949 30.0559 11.7235 29.9868L12.9251 27.0859C12.9537 27.0168 12.9862 26.9493 13.0224 26.8838L14.5413 24.1357C14.5775 24.0702 14.6173 24.0068 14.6606 23.9458L16.4776 21.3849C16.5209 21.3239 16.5676 21.2654 16.6174 21.2096L18.7097 18.8683C18.7596 18.8125 18.8125 18.7596 18.8683 18.7097L21.2096 16.6174C21.2654 16.5676 21.3239 16.5209 21.3849 16.4776L23.9458 14.6606C24.0068 14.6173 24.0702 14.5775 24.1357 14.5413L26.8838 13.0224C26.9493 12.9862 27.0168 12.9537 27.0859 12.9251L29.9868 11.7235C30.0559 11.6949 30.1266 11.6701 30.1985 11.6494L33.2157 10.7802C33.2876 10.7595 33.3606 10.7428 33.4344 10.7303L36.53 10.2043C36.6037 10.1918 36.6782 10.1834 36.7529 10.1792L39.8879 10.0031ZM37.0893 14.1666L34.2152 14.6549L31.4138 15.462L28.7204 16.5777L26.1688 17.9878L23.7912 19.6748L21.6175 21.6175L19.6748 23.7912L17.9878 26.1688L16.5777 28.7204L15.462 31.4138L14.6549 34.2152L14.1666 37.0893L14.0032 40L14.1666 42.9107L14.6549 45.7849L15.462 48.5862L16.5776 51.2796L17.9878 53.8312L19.6748 56.2088L21.6175 58.3826L23.7912 60.3251L26.1688 62.0122L28.7204 63.4223L31.4138 64.538L34.2152 65.3451L37.0893 65.8334L40 65.9968L42.9107 65.8334L45.7849 65.3451L48.5862 64.538L51.2796 63.4223L53.8312 62.0122L56.2088 60.3252L58.3825 58.3825L60.3252 56.2088L62.0122 53.8312L63.4223 51.2796L64.538 48.5862L65.3451 45.7849L65.8334 42.9107L65.9968 40L65.8334 37.0893L65.3451 34.2152L64.538 31.4138L63.4223 28.7204L62.0122 26.1688L60.3251 23.7912L58.3826 21.6175L56.2088 19.6748L53.8312 17.9878L51.2796 16.5776L48.5862 15.462L45.7849 14.6549L42.9107 14.1666L40 14.0032L37.0893 14.1666Z" stroke="currentColor" stroke-linecap="round" stroke-linejoin="round" />
</svg>