<svg viewBox="0 0 80 80" fill="none">
  <path fill-rule="evenodd" clip-rule="evenodd" d="M46.2039 22.0752C42.6823 19.3642 37.7767 19.3642 34.2551 22.0752C31.8465 23.9293 30.4353 26.7966 30.4353 29.8362V34.1638C30.4353 37.2034 31.8465 40.0707 34.2551 41.9248C37.7767 44.6358 42.6823 44.6358 46.2039 41.9248C48.6125 40.0707 50.0237 37.2034 50.0237 34.1638V29.8362C50.0237 26.7966 48.6125 23.9293 46.2039 22.0752ZM36.695 25.2448C38.7784 23.641 41.6805 23.641 43.7639 25.2448C45.1888 26.3417 46.0237 28.038 46.0237 29.8362V34.1638C46.0237 35.962 45.1888 37.6583 43.7639 38.7552C41.6805 40.359 38.7784 40.359 36.695 38.7552C35.2701 37.6583 34.4353 35.962 34.4353 34.1638V29.8362C34.4353 28.038 35.2701 26.3417 36.695 25.2448Z" stroke="currentColor" stroke-linecap="round" stroke-linejoin="round" />
  <path fill-rule="evenodd" clip-rule="evenodd" d="M18.1952 27.6352C19.8485 26.3625 22.1515 26.3625 23.8048 27.6352C24.9355 28.5056 25.5981 29.8517 25.5981 31.2787V32.7213C25.5981 34.1483 24.9355 35.4944 23.8048 36.3648C22.1515 37.6375 19.8485 37.6375 18.1952 36.3648C17.0645 35.4944 16.4019 34.1483 16.4019 32.7213V31.2787C16.4019 29.8517 17.0645 28.5056 18.1952 27.6352ZM21.3648 30.8048C21.1498 30.6393 20.8502 30.6393 20.6352 30.8048C20.4881 30.918 20.4019 31.0931 20.4019 31.2787V32.7213C20.4019 32.9069 20.4881 33.082 20.6352 33.1952C20.8502 33.3607 21.1498 33.3607 21.3648 33.1952C21.5119 33.082 21.5981 32.9069 21.5981 32.7213V31.2787C21.5981 31.0931 21.5119 30.918 21.3648 30.8048Z" stroke="currentColor" stroke-linecap="round" stroke-linejoin="round" />
  <path fill-rule="evenodd" clip-rule="evenodd" d="M61.8048 27.6352C60.1515 26.3625 57.8485 26.3625 56.1952 27.6352C55.0645 28.5056 54.4019 29.8517 54.4019 31.2787V32.7213C54.4019 34.1483 55.0644 35.4944 56.1952 36.3648C57.8485 37.6375 60.1515 37.6375 61.8048 36.3648C62.9355 35.4944 63.5981 34.1483 63.5981 32.7213V31.2787C63.5981 29.8517 62.9355 28.5056 61.8048 27.6352ZM58.6352 30.8048C58.8502 30.6393 59.1498 30.6393 59.3648 30.8048C59.5119 30.918 59.5981 31.0931 59.5981 31.2787V32.7213C59.5981 32.9069 59.5119 33.082 59.3648 33.1952C59.1498 33.3607 58.8502 33.3607 58.6352 33.1952C58.4881 33.082 58.4019 32.9069 58.4019 32.7213V31.2787C58.4019 31.0931 58.4881 30.918 58.6352 30.8048Z" stroke="currentColor" stroke-linecap="round" stroke-linejoin="round" />
  <path fill-rule="evenodd" clip-rule="evenodd" d="M10 12C7.79086 12 6 13.7909 6 16V48C6 50.2091 7.79086 52 10 52H70C72.2091 52 74 50.2091 74 48V16C74 13.7909 72.2091 12 70 12H10ZM10 38.0448V25.9552C15.2771 25.4796 19.4796 21.2771 19.9552 16L60.0448 16C60.5204 21.2771 64.7229 25.4796 70 25.9552V38.0448C64.7229 38.5204 60.5204 42.7229 60.0448 48H19.9552C19.4796 42.7229 15.2771 38.5204 10 38.0448ZM10 16L15.9291 16C15.4906 19.0657 13.0657 21.4906 10 21.9291V16ZM70 21.9291C66.9343 21.4906 64.5094 19.0657 64.0709 16H70V21.9291ZM64.0709 48C64.5094 44.9343 66.9343 42.5094 70 42.0709V48H64.0709ZM10 42.0709C13.0657 42.5094 15.4906 44.9343 15.9291 48H10V42.0709Z" stroke="currentColor" stroke-linecap="round" stroke-linejoin="round" />
  <path d="M6 58C6 56.8954 6.89543 56 8 56H72C73.1046 56 74 56.8954 74 58C74 59.1046 73.1046 60 72 60H8C6.89543 60 6 59.1046 6 58Z" stroke="currentColor" stroke-linecap="round" stroke-linejoin="round" />
  <path d="M6 66C6 64.8954 6.89543 64 8 64H72C73.1046 64 74 64.8954 74 66C74 67.1046 73.1046 68 72 68H8C6.89543 68 6 67.1046 6 66Z" stroke="currentColor" stroke-linecap="round" stroke-linejoin="round" />
</svg>