<svg viewBox="0 0 80 80" fill="none">
  <path d="M42.9134 14.0778L42.4793 14.3259L42.4793 14.3259L42.9134 14.0778ZM35.9675 14.0778L36.4016 14.3259L36.4016 14.3259L35.9675 14.0778ZM71.467 64.0467L71.0329 64.2948L71.0329 64.2948L71.467 64.0467ZM7.41382 64.0467L6.97969 63.7986L6.97969 63.7986L7.41382 64.0467ZM39.4404 16.0624L39.8746 15.8143C39.7855 15.6585 39.6199 15.5624 39.4404 15.5624C39.261 15.5624 39.0953 15.6585 39.0063 15.8143L39.4404 16.0624ZM67.9941 66.0312V66.5312C68.1723 66.5312 68.3371 66.4364 68.4265 66.2822C68.516 66.1281 68.5166 65.9379 68.4282 65.7832L67.9941 66.0312ZM10.8868 66.0312L10.4527 65.7832C10.3642 65.9379 10.3649 66.1281 10.4543 66.2822C10.5438 66.4364 10.7086 66.5312 10.8868 66.5312V66.0312ZM43.3475 13.8298C41.62 10.8066 37.2609 10.8066 35.5333 13.8298L36.4016 14.3259C37.7452 11.9745 41.1357 11.9745 42.4793 14.3259L43.3475 13.8298ZM71.9012 63.7986L43.3475 13.8298L42.4793 14.3259L71.0329 64.2948L71.9012 63.7986ZM67.9941 70.5312C71.4493 70.5312 73.6154 66.7986 71.9012 63.7986L71.0329 64.2948C72.3662 66.6281 70.6814 69.5312 67.9941 69.5312V70.5312ZM10.8868 70.5312H67.9941V69.5312H10.8868V70.5312ZM6.97969 63.7986C5.26544 66.7986 7.43158 70.5312 10.8868 70.5312V69.5312C8.19941 69.5312 6.51463 66.6281 7.84794 64.2948L6.97969 63.7986ZM35.5333 13.8298L6.97969 63.7986L7.84794 64.2948L36.4016 14.3259L35.5333 13.8298ZM39.0063 16.3104L67.56 66.2793L68.4282 65.7832L39.8746 15.8143L39.0063 16.3104ZM11.3209 66.2793L39.8746 16.3104L39.0063 15.8143L10.4527 65.7832L11.3209 66.2793ZM67.9941 65.5312H10.8868V66.5312H67.9941V65.5312ZM41.9082 28.5059C41.9082 27.1251 40.7889 26.0059 39.4082 26.0059V27.0059C40.2366 27.0059 40.9082 27.6774 40.9082 28.5059H41.9082ZM41.9082 51.7059V28.5059H40.9082V51.7059H41.9082ZM39.4082 54.2059C40.7889 54.2059 41.9082 53.0866 41.9082 51.7059H40.9082C40.9082 52.5343 40.2366 53.2059 39.4082 53.2059V54.2059ZM36.9082 51.7059C36.9082 53.0866 38.0275 54.2059 39.4082 54.2059V53.2059C38.5798 53.2059 37.9082 52.5343 37.9082 51.7059H36.9082ZM36.9082 28.5059V51.7059H37.9082V28.5059H36.9082ZM39.4082 26.0059C38.0275 26.0059 36.9082 27.1251 36.9082 28.5059H37.9082C37.9082 27.6774 38.5798 27.0059 39.4082 27.0059V26.0059ZM39.4082 56.6057C40.2366 56.6057 40.9082 57.2773 40.9082 58.1057H41.9082C41.9082 56.725 40.7889 55.6057 39.4082 55.6057V56.6057ZM37.9082 58.1057C37.9082 57.2773 38.5798 56.6057 39.4082 56.6057V55.6057C38.0275 55.6057 36.9082 56.725 36.9082 58.1057H37.9082ZM37.9082 59.7057V58.1057H36.9082V59.7057H37.9082ZM39.4082 61.2057C38.5798 61.2057 37.9082 60.5342 37.9082 59.7057H36.9082C36.9082 61.0864 38.0275 62.2057 39.4082 62.2057V61.2057ZM40.9082 59.7057C40.9082 60.5342 40.2366 61.2057 39.4082 61.2057V62.2057C40.7889 62.2057 41.9082 61.0864 41.9082 59.7057H40.9082ZM40.9082 58.1057V59.7057H41.9082V58.1057H40.9082Z" fill="currentColor" />
</svg>