<svg viewBox="0 0 80 80" fill="none">
  <path fill-rule="evenodd" clip-rule="evenodd" d="M65.4294 17.4142C66.2105 16.6332 66.2105 15.3668 65.4294 14.5858C64.6484 13.8047 63.3821 13.8047 62.601 14.5858L55.6436 21.5432C50.8236 19.2391 45.4937 18 40.0156 18C28.9879 18 18.5603 23.0217 11.6846 31.6435C9.88801 33.8963 8.38488 36.3311 7.1884 38.8908L6.79248 39.7378L7.18844 40.5847C8.38479 43.1437 9.88761 45.5779 11.6837 47.8301C14.3377 51.1581 17.5209 53.9497 21.0636 56.1232L14.601 62.5858C13.82 63.3668 13.82 64.6332 14.601 65.4142C15.3821 66.1953 16.6484 66.1953 17.4294 65.4142L24.7446 58.0991C29.47 60.2949 34.672 61.4736 40.0148 61.4736C51.0426 61.4736 61.4702 56.4519 68.3459 47.8301C70.1424 45.5773 71.6456 43.1425 72.842 40.5828L73.238 39.7359L72.842 38.8889C71.6456 36.3299 70.1428 33.8958 68.3467 31.6435C65.7741 28.4175 62.7042 25.6956 59.2916 23.5521L65.4294 17.4142ZM52.6204 24.5664C48.682 22.8931 44.4022 22 40.0156 22C30.2052 22 20.9286 26.4674 14.8119 34.1375C13.4128 35.8918 12.2141 37.7699 11.2232 39.7377C12.2139 41.7048 13.4124 43.5823 14.811 45.3361C17.3768 48.5535 20.4986 51.2073 23.9825 53.2043L29.7647 47.4221C28.7006 46.0029 27.9295 44.3608 27.5248 42.5877C26.6572 38.7865 27.5678 34.7972 29.9987 31.7489C32.4296 28.7006 36.1163 26.9252 40.0152 26.9252C42.8153 26.9252 45.506 27.8409 47.7006 29.4862L52.6204 24.5664ZM50.4874 32.3563L56.3809 26.4628C59.7308 28.4365 62.7356 31.0229 65.2194 34.1375C66.618 35.8913 67.8165 37.7688 68.8073 39.736C67.8164 41.7038 66.6176 43.5818 65.2186 45.3361C59.1018 53.0063 49.8253 57.4736 40.0148 57.4736C35.7657 57.4736 31.6168 56.6356 27.7814 55.0623L32.6346 50.209C33.207 50.6124 33.8157 50.9711 34.4565 51.2797C37.9692 52.9714 42.0612 52.9714 45.574 51.2797C49.0868 49.588 51.638 46.3888 52.5056 42.5877C53.3167 39.0341 52.5738 35.3161 50.4874 32.3563ZM44.8299 32.3568C43.4142 31.4333 41.7451 30.9252 40.0152 30.9252C37.3336 30.9252 34.798 32.1463 33.126 34.2429C31.4541 36.3394 30.8278 39.0832 31.4245 41.6976C31.6591 42.7255 32.0728 43.6895 32.6353 44.5515L44.8299 32.3568ZM35.525 47.3186L47.597 35.2466C48.7392 37.175 49.1114 39.4827 48.6059 41.6976C48.0092 44.312 46.2545 46.5123 43.8384 47.6758C41.4224 48.8393 38.608 48.8393 36.192 47.6758C35.9636 47.5658 35.7412 47.4466 35.525 47.3186Z" stroke="currentColor" stroke-linecap="round" stroke-linejoin="round" />
</svg>