<svg viewBox="0 0 80 80" fill="none">
  <path d="M42 26L42 16.0047L24.0002 16.0027C22.8956 16.0026 22 16.898 22 18.0027L22 62.0022C22 63.1068 22.8954 64.0022 24 64.0022H56C57.1046 64.0022 58 63.1068 58 62.0022V32.0007H48C44.7346 32.0007 42.0784 29.3921 42.0017 26.1451C42.0006 26.0971 42 26.0483 42 26ZM42 26C42 25.9998 42 26.0003 42 26ZM60.0872 27.2624L60.2423 27.4175C61.3677 28.5427 62 30.069 62 31.6605V62.0022C62 65.316 59.3137 68.0022 56 68.0022H24C20.6863 68.0022 18 65.316 18 62.0022L18 18.0027C18 14.6887 20.6867 12.0023 24.0007 12.0027L42.3424 12.0047C43.9333 12.0049 45.4589 12.6369 46.584 13.7617L46.7107 13.8883C46.7505 13.9242 46.7897 13.9614 46.8284 14L60 27.1716C60.0299 27.2015 60.059 27.2318 60.0872 27.2624ZM46 26.0036C46.0019 27.1065 46.8966 28 48 28H55.1716L46 18.8285V26C46 26.001 46 26.0027 46 26.0036Z" stroke="currentColor" stroke-linecap="round" stroke-linejoin="round" />
</svg>