<svg viewBox="0 0 80 80" fill="none">
  <path fill-rule="evenodd" clip-rule="evenodd" d="M10.1788 13.1731C10.503 12.4585 11.2153 11.9995 12 11.9995H68C68.7848 11.9995 69.497 12.4585 69.8213 13.1731C70.1456 13.8877 70.0219 14.7259 69.5052 15.3165L48 39.8938V56.1172C48 56.7148 47.7328 57.2811 47.2714 57.661L35.2714 67.5434C34.674 68.0354 33.8464 68.1385 33.1465 67.8082C32.4466 67.4779 32 66.7734 32 65.9995V39.8938L10.4949 15.3165C9.97811 14.7259 9.85449 13.8877 10.1788 13.1731ZM16.4076 15.9995L35.5052 37.8254C35.8242 38.1899 36 38.6579 36 39.1424V61.7615L44 55.1733V39.1424C44 38.6579 44.1759 38.1899 44.4949 37.8254L63.5925 15.9995H16.4076Z" stroke="currentColor" stroke-linecap="round" stroke-linejoin="round" />
</svg>