<svg viewBox="0 0 80 80" fill="none">
  <path fill-rule="evenodd" clip-rule="evenodd" d="M46.5839 9C47.2384 9 47.8514 9.32019 48.2253 9.8573L57.7208 23.4969C60.5066 27.4986 62 32.2574 62 37.1332V39C62 40.3977 61.8694 41.7664 61.6194 43.0939C64.7362 43.4568 67.6586 44.8595 69.8995 47.1004C72.525 49.7259 74 53.2869 74 56.9999C74 60.7129 72.5249 64.274 69.8994 66.8995C67.274 69.5249 63.713 71 60 71H20C16.287 71 12.726 69.5249 10.1006 66.8995C7.47508 64.274 6 60.7129 6 56.9999C6 53.2869 7.47497 49.7259 10.1005 47.1004C12.3414 44.8595 15.2638 43.4568 18.3806 43.0939C18.1306 41.7664 18 40.3977 18 39V37.1332C18 32.2574 19.4934 27.4986 22.2792 23.497L22.7747 22.7852C23.1486 22.2481 23.7616 21.9279 24.4161 21.9279C25.0705 21.9279 25.6836 22.2481 26.0575 22.7852L31 29.8848L44.9425 9.8573C45.3164 9.32019 45.9295 9 46.5839 9ZM53.5882 49.3259C55.1825 47.9938 57.1542 47.1904 59.2275 47.0298C59.4836 47.01 59.7413 47 60 47C62.6521 47 65.1958 48.0536 67.0711 49.9289C68.9464 51.8042 70 54.3477 70 56.9999C70 59.652 68.9464 62.1957 67.071 64.071C65.1957 65.9464 62.6521 67 60 67H20C17.3479 67 14.8043 65.9464 12.929 64.071C11.0536 62.1957 10 59.652 10 56.9999C10 54.3477 11.0536 51.8042 12.9289 49.9289C14.8042 48.0536 17.3478 47 20 47C20.2587 47 20.5164 47.01 20.7725 47.0298C23.142 47.2133 25.3787 48.2365 27.0711 49.9289C27.5458 50.4036 27.9678 50.921 28.3333 51.4721L30 53.9847L31.6667 51.4721C31.6895 51.4376 31.7126 51.4033 31.7359 51.3691C31.8939 51.1373 32.062 50.9115 32.2399 50.6926C32.2437 50.688 32.2475 50.6834 32.2513 50.6788C32.4634 50.4188 32.6895 50.1684 32.929 49.9289C34.8043 48.0536 37.3479 47.0001 40.0001 47.0001C41.3261 47.0001 42.625 47.2634 43.8269 47.7612C45.0287 48.259 46.1335 48.9912 47.0711 49.9289C47.1008 49.9586 47.1303 49.9884 47.1595 50.0184C47.3664 50.2305 47.5629 50.4509 47.7488 50.6787C47.9572 50.9342 48.1522 51.199 48.3333 51.4721L50 53.9847L51.6667 51.4721C52.0322 50.921 52.4542 50.4036 52.9289 49.9289C53.1404 49.7173 53.3605 49.5162 53.5882 49.3259ZM55.2588 43.8273C55.9866 43.5653 56.7368 43.3634 57.5019 43.2246C57.8273 41.8713 58 40.4569 58 39V37.1332C58 33.0746 56.7569 29.1133 54.438 25.7823L46.5839 14.5005L32.681 34.4712C31.8661 35.6417 30.134 35.6418 29.3191 34.4712L24.4803 27.5207C22.8588 30.4536 22 33.7598 22 37.1332V39C22 40.4569 22.1727 41.8713 22.4981 43.2246C23.2632 43.3634 24.0134 43.5653 24.7412 43.8273C24.2599 42.3137 24 40.7013 24 39.0285C24 37.8314 24.1358 36.6455 24.4002 35.4925C24.5771 34.7211 25.1922 34.1265 25.9692 33.976C26.7462 33.8254 27.5388 34.1472 27.991 34.7968L31.0001 39.1191L43.3587 21.3667C43.7245 20.8414 44.3196 20.5228 44.9596 20.5098C45.5997 20.4969 46.2072 20.7911 46.5939 21.3012L52.7868 29.4707C54.8716 32.2209 56 35.5774 56 39.0285C56 40.7013 55.7401 42.3137 55.2588 43.8273ZM49.3066 46.5411C50.9909 44.4975 52 41.8817 52 39.0285C52 36.4499 51.1569 33.942 49.5991 31.8871L45.069 25.911L32.681 43.7055C31.8661 44.876 30.134 44.8761 29.3191 43.7055L28.5479 42.5976C29.0084 44.0541 29.7435 45.3886 30.6934 46.5411C33.2495 44.2664 36.5596 43 40 43C41.9952 43 43.9465 43.4259 45.7324 44.2273C46.8545 44.7309 47.9113 45.3828 48.8727 46.1705C49.0172 46.2889 49.1597 46.4104 49.2998 46.535C49.3021 46.537 49.3044 46.5391 49.3066 46.5411Z" stroke="currentColor" stroke-linecap="round" stroke-linejoin="round" />
</svg>