<svg viewBox="0 0 80 80" fill="none">
  <path fill-rule="evenodd" clip-rule="evenodd" d="M36.4468 24.1094C38.5655 22.5701 41.4345 22.5701 43.5532 24.1094C45.6719 25.6488 46.5585 28.3773 45.7492 30.868C44.9399 33.3587 42.6189 35.0451 40 35.0451C37.3811 35.0451 35.06 33.3587 34.2508 30.868C33.4415 28.3773 34.328 25.6488 36.4468 24.1094ZM38.7979 27.3455C38.0811 27.8663 37.7812 28.7893 38.055 29.632C38.3288 30.4746 39.114 31.0451 40 31.0451C40.886 31.0451 41.6712 30.4746 41.945 29.632C42.2188 28.7893 41.9188 27.8663 41.202 27.3455C40.4853 26.8247 39.5147 26.8247 38.7979 27.3455Z" stroke="currentColor" stroke-linecap="round" stroke-linejoin="round" />
  <path fill-rule="evenodd" clip-rule="evenodd" d="M40.8264 14.1787C40.2142 13.9007 39.4949 13.9471 38.9185 14.3176L6.73971 35.004C5.81057 35.6013 5.54157 36.8387 6.13887 37.7678C6.73617 38.697 7.9736 38.966 8.90274 38.3687L9.99997 37.6633V62H8.99997C7.8954 62 6.99997 62.8954 6.99997 64C6.99997 65.1046 7.8954 66 8.99997 66L71 66C72.1045 66 73 65.1046 73 64C73 62.8954 72.1045 62 71 62H70V37.6633L71.0972 38.3687C72.0263 38.966 73.2638 38.697 73.8611 37.7678C74.4584 36.8387 74.1894 35.6013 73.2602 35.004L41.0815 14.3176C40.9991 14.2647 40.9139 14.2184 40.8264 14.1787ZM66 35.0919L40 18.3776L14 35.0919V62H20V40C20 38.8954 20.8954 38 22 38H58C59.1045 38 60 38.8954 60 40V62H66V35.0919ZM56 54V56H24V54H56ZM24 50V48H56V50H24ZM56 42V44H24V42H56ZM24 60V62L56 62V60H24Z" stroke="currentColor" stroke-linecap="round" stroke-linejoin="round" />
</svg>