<svg viewBox="0 0 80 80" fill="none">
  <path d="M24 34C24 32.8954 23.1046 32 22 32C20.8954 32 20 32.8954 20 34V35.5C20 36.6046 20.8954 37.5 22 37.5C23.1046 37.5 24 36.6046 24 35.5V34Z" stroke="currentColor" stroke-linecap="round" stroke-linejoin="round" />
  <path d="M24 44.5C24 43.3954 23.1046 42.5 22 42.5C20.8954 42.5 20 43.3954 20 44.5V47.5C20 48.6046 20.8954 49.5 22 49.5C23.1046 49.5 24 48.6046 24 47.5V44.5Z" stroke="currentColor" stroke-linecap="round" stroke-linejoin="round" />
  <path d="M24 56.5C24 55.3954 23.1046 54.5 22 54.5C20.8954 54.5 20 55.3954 20 56.5V58C20 59.1046 20.8954 60 22 60C23.1046 60 24 59.1046 24 58V56.5Z" stroke="currentColor" stroke-linecap="round" stroke-linejoin="round" />
  <path fill-rule="evenodd" clip-rule="evenodd" d="M24 11.9995C23.9997 10.8951 23.1044 10 22 10C20.8956 10 20.0003 10.8951 20 11.9995L19.9988 16.5315L17.7318 12.6072C17.1794 11.651 15.9564 11.3235 15 11.8756C14.0436 12.4278 13.7158 13.6507 14.2677 14.6072L16.5327 18.5327L12.6072 16.2677C11.6507 15.7158 10.4278 16.0436 9.87564 17C9.32346 17.9564 9.65098 19.1794 10.6072 19.7318L14.5315 21.9988L6 22C4.89543 22 4 22.8954 4 24V68C4 69.1046 4.89543 70 6 70H74C75.1046 70 76 69.1046 76 68V40C76 38.8954 75.1046 38 74 38H68.8609C70.1384 35.7453 70.3272 32.8708 68.8919 30.2871C65.888 24.8802 58.112 24.8802 55.1081 30.2871L52 35.8817L48.8919 30.2871C47.015 26.9087 43.2749 25.6412 40 26.4847V24C40 22.8954 39.1046 22 38 22L29.4685 21.9988L33.3928 19.7318C34.349 19.1794 34.6765 17.9564 34.1244 17C33.5722 16.0436 32.3493 15.7158 31.3928 16.2677L27.4673 18.5327L29.7318 14.6081L29.7323 14.6072C30.2842 13.6507 29.9564 12.4278 29 11.8756C28.0436 11.3235 26.8206 11.651 26.2682 12.6072L26.2677 12.6081L24.0012 16.5315L24 11.9995ZM54 66H72V56H54V66ZM50 56V66H32V56H50ZM54 52H72V42H54V52ZM50 42V52H32V42H50ZM28 40V66H8V26H36V28.9918C35.6767 29.3748 35.3823 29.7976 35.1231 30.2603L35.1081 30.2871C35.0474 30.3963 34.9897 30.506 34.9348 30.6162C33.6907 33.1127 33.9156 35.8405 35.1391 38H30C28.8954 38 28 38.8954 28 40ZM62 38C64.9615 38 66.8335 34.8185 65.3953 32.2297C63.9154 29.566 60.0846 29.566 58.6047 32.2297L55.399 38H62ZM48.601 38L45.3953 32.2297C43.9154 29.566 40.0846 29.566 38.6047 32.2297C38.5687 32.2946 38.5347 32.3599 38.5027 32.4256C37.2611 34.9761 39.1128 38 42 38H48.601Z" stroke="currentColor" stroke-linecap="round" stroke-linejoin="round" />
</svg>