<svg viewBox="0 0 80 80" fill="none">
  <path fill-rule="evenodd" clip-rule="evenodd" d="M20.7751 21.0005C21.2309 19.2342 22.824 18 24.6482 18H28C29.1046 18 30 17.1046 30 16C30 14.8954 29.1046 14 28 14H24.6482C20.9998 14 17.8136 16.4684 16.902 20.001L10.0634 46.5002C9.98183 46.8165 9.98059 47.1346 10.047 47.433C10.0164 47.6147 10 47.8037 10 48V52C10 59.732 16.268 66 24 66C31.732 66 38 59.732 38 52V49H42V52C42 59.732 48.268 66 56 66C63.732 66 70 59.732 70 52V48C70 47.8037 69.9836 47.6147 69.953 47.4329C70.0194 47.1346 70.0182 46.8165 69.9366 46.5002L63.098 20.001C62.1864 16.4684 59.0002 14 55.3518 14H52C50.8954 14 50 14.8954 50 16C50 17.1046 50.8954 18 52 18H55.3518C57.176 18 58.7691 19.2342 59.2249 21.0005L64.9596 43.2223C62.5531 42.4459 59.394 42 56 42C52.5311 42 49.3077 42.4657 46.8823 43.2742C45.68 43.675 44.5628 44.1962 43.7051 44.8722C43.6529 44.9133 43.6006 44.9559 43.5484 45H36.4516C36.3994 44.9559 36.3471 44.9133 36.2949 44.8722C35.4372 44.1962 34.32 43.675 33.1177 43.2742C30.6923 42.4657 27.4688 42 24 42C20.606 42 17.4469 42.4459 15.0404 43.2223L20.7751 21.0005ZM13.9482 48.2402C13.9482 48.2402 13.9501 48.2357 13.9564 48.2269C13.9518 48.2358 13.9482 48.2402 13.9482 48.2402ZM14 48.1753C14.0355 48.1376 14.0925 48.0836 14.181 48.0138C14.5377 47.7327 15.1779 47.392 16.1472 47.0689C18.0649 46.4297 20.8414 46 24 46C27.1586 46 29.9351 46.4297 31.8528 47.0689C32.8221 47.392 33.4623 47.7327 33.819 48.0138C33.9075 48.0836 33.9645 48.1376 34 48.1753V52C34 57.5228 29.5228 62 24 62C18.4771 62 14 57.5228 14 52V48.1753ZM34.0518 48.2402C34.0518 48.2402 34.0482 48.2358 34.0436 48.227C34.0499 48.2357 34.0518 48.2402 34.0518 48.2402ZM66.0518 48.2402C66.0518 48.2402 66.0499 48.2357 66.0436 48.2269C66.0482 48.2358 66.0518 48.2402 66.0518 48.2402ZM66 48.1753C65.9645 48.1376 65.9075 48.0836 65.819 48.0138C65.4623 47.7327 64.8221 47.392 63.8528 47.0689C61.9351 46.4297 59.1586 46 56 46C52.8414 46 50.0649 46.4297 48.1472 47.0689C47.1779 47.392 46.5377 47.7327 46.181 48.0138C46.0925 48.0836 46.0355 48.1376 46 48.1753V52C46 57.5228 50.4771 62 56 62C61.5228 62 66 57.5228 66 52V48.1753ZM45.9482 48.2402C45.9482 48.2402 45.9518 48.2358 45.9563 48.227C45.9501 48.2357 45.9482 48.2402 45.9482 48.2402Z" stroke="currentColor" stroke-linecap="round" stroke-linejoin="round" />
</svg>