<svg viewBox="0 0 80 80" fill="none">
  <path fill-rule="evenodd" clip-rule="evenodd" d="M61.9748 15.7129C58.997 11.8321 55.1895 8.73544 50.8831 6.61364C49.3331 5.84997 47.5344 6.57641 46.8604 8.06979L45.0013 12.1894C44.5606 12.0348 44.1149 11.8928 43.6646 11.7637C43.6137 11.7448 43.5618 11.728 43.5091 11.7133C42.4174 11.4085 41.2996 11.1792 40.163 11.0295C35.0216 10.3526 29.8331 11.3502 25.3458 13.8217C24.2827 14.4067 23.259 15.0744 22.2845 15.8222C17.1982 19.725 13.8706 25.4885 13.0338 31.8448C12.197 38.2011 13.9195 44.6294 17.8223 49.7157C18.8426 51.0453 19.99 52.2548 21.2419 53.331L18.6372 56.9544C17.6809 58.2847 17.9511 60.2057 19.3875 61.1661C23.3782 63.8347 27.9637 65.5836 32.8134 66.2221C33.542 66.318 34.2713 66.3882 35.0001 66.4329V69.4374L21.0001 69.4374C19.8955 69.4374 19.0001 70.3328 19.0001 71.4374C19.0001 72.5419 19.8955 73.4374 21.0001 73.4374L53.0001 73.4373C54.1047 73.4373 55.0001 72.5419 55.0001 71.4374C55.0001 70.3328 54.1047 69.4374 53.0001 69.4374H39.0001V66.4245C45.1832 66.0187 51.16 63.7971 56.1483 59.9695C62.7898 54.8733 67.1347 47.3476 68.2274 39.0479C69.3201 30.7482 67.071 22.3544 61.9748 15.7129ZM17.6525 29.288C17.3568 30.2895 17.1376 31.3186 16.9996 32.3669C16.3012 37.6714 17.7387 43.036 20.9957 47.2806C22.0329 48.6324 23.2276 49.8352 24.5456 50.8696L25.158 51.3097C26.1315 52.0096 27.1654 52.6211 28.247 53.1372C28.15 52.9862 28.073 52.8216 28.0191 52.6474L27.4696 50.8705L23.9161 48.8189C23.0096 48.2955 22.66 47.1616 23.1144 46.2186L24.813 42.6938C25.0626 42.1758 25.5231 41.7903 26.0769 41.6357L28.8763 40.8542L27.4072 41.2489C26.7296 41.4309 26.0062 41.2446 25.5009 40.7578L23.3138 38.6514C22.9467 38.2978 22.7285 37.8174 22.7037 37.3083L22.4374 31.8488C22.4051 31.1866 22.7031 30.5513 23.233 30.1528C23.4137 30.017 23.6134 29.9146 23.823 29.8473L23.74 28.0029L22.6163 28.4879L21.1177 29.9166C20.3899 30.6105 19.26 30.6561 18.4786 30.0231L17.9694 29.6105C17.8508 29.5144 17.7448 29.4061 17.6525 29.288ZM40.1759 54.8407C43.4356 54.3097 46.546 52.9814 49.2138 50.9343C53.4584 47.6773 56.2354 42.8675 56.9337 37.563C57.3851 34.1347 56.9443 30.6812 55.6967 27.5212C55.161 27.703 54.5616 27.6526 54.0537 27.3593L53.2382 26.8885L52.6366 27.2759C51.975 27.702 51.1251 27.7004 50.465 27.2721L48.6884 26.1191L46.8169 26.5902C46.334 26.7117 45.8233 26.6488 45.3844 26.4138L45.2681 26.3515L45.6659 26.7534C46.1551 27.2477 46.3524 27.9607 46.1869 28.6362C46.0214 29.3117 45.5169 29.8527 44.8546 30.0649L40.3313 31.5142C39.6064 31.7464 38.8126 31.5471 38.2834 31L36.7466 29.4111C36.7155 29.3789 36.6856 29.3459 36.657 29.312C36.1663 29.4188 35.6514 29.3374 35.2159 29.0807L34.2693 28.5227L33.5208 29.4669C33.1686 29.9111 32.6444 30.185 32.0786 30.2205L30.5552 30.3159L29.9321 31.6455C29.881 31.7546 29.8211 31.8572 29.7535 31.9528L33.1278 30.9997C33.8358 30.7998 34.5965 31.0047 35.1083 31.5333L36.1171 32.5752C36.5557 33.0283 36.755 33.6617 36.6548 34.2842C36.5545 34.9068 36.1666 35.4457 35.6079 35.7382L35.0249 36.0434L34.6758 36.8429C34.5193 37.2013 34.2623 37.5036 33.939 37.7154L37.7264 39.9021C38.2167 40.1851 38.5641 40.6627 38.6823 41.2163C38.8006 41.77 38.6787 42.3478 38.3468 42.8065L37.4846 43.9982C37.1645 44.4406 36.6783 44.7319 36.1399 44.8068L36.9798 48.799C37.0812 49.2812 37.0011 49.784 36.7547 50.2107L36.1381 51.2787L36.6723 51.0262C37.1932 50.78 37.7951 50.7704 38.3236 50.9999C38.8521 51.2295 39.256 51.6758 39.4317 52.2246L40.0805 54.251C40.143 54.4462 40.1739 54.6447 40.1759 54.8407ZM27.2758 17.3253C31.0188 15.266 35.3457 14.435 39.6332 14.9995C40.2765 15.0842 40.9126 15.1995 41.5395 15.3442L41.9401 16.2473C42.1118 16.6341 42.4017 16.9566 42.7683 17.1682L44.129 17.9538L44.4239 18.8245C44.5797 19.2845 44.8976 19.6721 45.3182 19.915L48.8833 21.9733C48.7742 21.9822 48.6652 22.0001 48.5575 22.0272L46.5908 22.5223L44.4349 21.3677C43.4889 20.861 42.3116 21.1913 41.7671 22.116L40.6719 23.9762L36.5013 25.1952L34.7998 24.1922C33.9397 23.6852 32.8373 23.8903 32.217 24.6727L30.9396 26.284L29.1221 26.3979C28.5625 26.4329 28.0519 26.7 27.7043 27.1212L27.6057 24.9282C27.5761 24.2716 27.2258 23.6714 26.6686 23.3227C26.1114 22.9741 25.4185 22.9214 24.815 23.182L21.1212 24.7766L21.051 22.6532C22.1047 21.2909 23.3372 20.058 24.7271 18.9914C25.5385 18.3688 26.3908 17.8127 27.2758 17.3253ZM33.8449 58.9663C30.4973 58.5256 27.3141 57.394 24.4806 55.6785L22.5113 58.4181C25.7789 60.4243 29.4606 61.7462 33.3355 62.2563C40.5834 63.2105 47.9135 61.2464 53.7133 56.7961C59.5131 52.3457 63.3074 45.7737 64.2616 38.5258C65.2158 31.2779 63.2517 23.9478 58.8014 18.148C56.4221 15.0472 53.4365 12.5197 50.0651 10.6929L48.6653 13.7947C50.8014 14.9805 52.7567 16.4893 54.4566 18.2783C55.0637 18.9121 55.6386 19.5815 56.1779 20.2844C60.0808 25.3706 61.8032 31.799 60.9664 38.1552C60.1296 44.5115 56.802 50.275 51.7158 54.1778C46.6295 58.0807 40.2011 59.8031 33.8449 58.9663ZM30.0306 44.6849L32.269 45.8369L32.9079 48.8736L31.7852 50.8182L31.6089 50.7164L31.0593 48.9395C30.9103 48.458 30.5851 48.0504 30.1486 47.7984L27.5236 46.2829L28.0237 45.2452L30.0306 44.6849Z" stroke="currentColor" stroke-linecap="round" stroke-linejoin="round" />
</svg>