<svg viewBox="0 0 80 80" fill="none">
  <path fill-rule="evenodd" clip-rule="evenodd" d="M61.9748 15.7129C58.997 11.8321 55.1895 8.73544 50.8831 6.61364C49.3331 5.84997 47.5344 6.57641 46.8604 8.06979L45.0013 12.1894C44.5599 12.0346 44.1136 11.8924 43.6626 11.7631C43.6124 11.7446 43.5613 11.728 43.5093 11.7135C42.4175 11.4087 41.2996 11.1793 40.1628 11.0297C35.0789 10.3603 29.9488 11.3283 25.4962 13.7396C24.3792 14.344 23.3048 15.0392 22.2845 15.8222C17.1982 19.725 13.8706 25.4885 13.0338 31.8448C12.197 38.2011 13.9195 44.6294 17.8223 49.7157C18.8426 51.0453 19.99 52.2548 21.2419 53.331L18.6372 56.9544C17.6809 58.2847 17.9511 60.2057 19.3875 61.1661C23.3782 63.8347 27.9637 65.5836 32.8134 66.2221C33.542 66.318 34.2713 66.3882 35.0001 66.4329V69.4374L21.0001 69.4374C19.8955 69.4374 19.0001 70.3328 19.0001 71.4374C19.0001 72.5419 19.8955 73.4374 21.0001 73.4374L53.0001 73.4373C54.1047 73.4373 55.0001 72.5419 55.0001 71.4374C55.0001 70.3328 54.1047 69.4374 53.0001 69.4374H39.0001V66.4245C45.1832 66.0187 51.16 63.7971 56.1483 59.9695C62.7898 54.8733 67.1347 47.3476 68.2274 39.0479C69.3201 30.7482 67.071 22.3544 61.9748 15.7129ZM17.6525 29.2879C17.3568 30.2895 17.1376 31.3185 16.9996 32.3669C16.3012 37.6714 17.7387 43.036 20.9957 47.2806C22.1378 48.7691 23.4709 50.0771 24.9493 51.1782C25.0206 51.2173 25.0903 51.2611 25.158 51.3097C26.1316 52.0096 27.1655 52.6212 28.2472 53.1372C28.1501 52.9862 28.0731 52.8216 28.0192 52.6473L27.4696 50.8704L23.9162 48.8188C23.0096 48.2954 22.66 47.1615 23.1145 46.2185L24.813 42.6937C25.0627 42.1758 25.5231 41.7903 26.0769 41.6356L28.8761 40.8542L27.4073 41.2488C26.7297 41.4308 26.0062 41.2445 25.5009 40.7578L23.3139 38.6513C22.9468 38.2977 22.7285 37.8173 22.7037 37.3082L22.4374 31.8487C22.4051 31.1865 22.7031 30.5512 23.2331 30.1528C23.4138 30.0169 23.6135 29.9146 23.823 29.8472L23.74 28.0028L22.6163 28.4879L21.1178 29.9166C20.3899 30.6105 19.26 30.656 18.4787 30.023L17.9694 29.6104C17.8509 29.5144 17.7448 29.406 17.6525 29.2879ZM40.176 54.8407C43.4357 54.3097 46.546 52.9814 49.2138 50.9343C53.4584 47.6773 56.2354 42.8675 56.9337 37.563C57.3851 34.1346 56.9443 30.6811 55.6966 27.5211C55.161 27.7029 54.5616 27.6525 54.0537 27.3593L53.2383 26.8884L52.6366 27.2758C51.975 27.7019 51.1251 27.7004 50.465 27.272L48.6884 26.119L46.8169 26.5901C46.3341 26.7116 45.8233 26.6487 45.3844 26.4137L45.2682 26.3514L45.6659 26.7533C46.1551 27.2477 46.3524 27.9606 46.1869 28.6361C46.0214 29.3116 45.5169 29.8526 44.8546 30.0648L40.3313 31.5141C39.6065 31.7464 38.8126 31.547 38.2835 30.9999L36.7467 29.411C36.7156 29.3788 36.6857 29.3458 36.657 29.3119C36.1664 29.4187 35.6515 29.3373 35.2159 29.0806L34.2693 28.5226L33.5208 29.4668C33.1686 29.911 32.6445 30.185 32.0786 30.2204L30.5552 30.3158L29.9322 31.6455C29.8811 31.7546 29.8211 31.8572 29.7536 31.9527L33.1278 30.9997C33.8359 30.7997 34.5966 31.0046 35.1083 31.5332L36.1171 32.5751C36.5558 33.0282 36.755 33.6616 36.6548 34.2842C36.5546 34.9068 36.1666 35.4456 35.6079 35.7381L35.0249 36.0434L34.6758 36.8428C34.5194 37.2012 34.2623 37.5035 33.9391 37.7153L37.7265 39.902C38.2168 40.185 38.5641 40.6626 38.6824 41.2163C38.8006 41.7699 38.6787 42.3477 38.3469 42.8064L37.4846 43.9981C37.1646 44.4405 36.6784 44.7318 36.1399 44.8067L36.9798 48.7989C37.0813 49.2811 37.0011 49.7839 36.7547 50.2107L36.1381 51.2786L36.6723 51.0261C37.1933 50.7799 37.7951 50.7703 38.3237 50.9998C38.8522 51.2294 39.256 51.6757 39.4317 52.2245L40.0805 54.2509C40.143 54.4462 40.174 54.6447 40.176 54.8407ZM27.4045 17.2551C31.1178 15.2471 35.3947 14.4415 39.6332 14.9995C40.2766 15.0842 40.9127 15.1995 41.5396 15.3442L41.9402 16.2472C42.1118 16.6341 42.4018 16.9565 42.7683 17.1681L44.129 17.9537L44.424 18.8244C44.5798 19.2845 44.8976 19.6721 45.3182 19.9149L48.8834 21.9732C48.7742 21.9821 48.6652 22 48.5576 22.0271L46.5908 22.5222L44.4349 21.3676C43.4889 20.8609 42.3117 21.1912 41.7672 22.1159L40.672 23.9761L36.5014 25.1951L34.7999 24.1922C33.9397 23.6851 32.8374 23.8902 32.217 24.6726L30.9396 26.2839L29.1221 26.3978C28.5626 26.4328 28.0519 26.6999 27.7044 27.1211L27.6057 24.9282C27.5762 24.2715 27.2259 23.6713 26.6687 23.3227C26.1115 22.974 25.4185 22.9214 24.815 23.1819L21.1212 24.7765L21.0511 22.6531C22.1047 21.2909 23.3371 20.058 24.727 18.9916C25.5777 18.3388 26.4733 17.7591 27.4045 17.2551ZM33.8449 58.9663C30.4973 58.5256 27.3141 57.394 24.4806 55.6785L22.5113 58.4181C25.7789 60.4243 29.4606 61.7462 33.3355 62.2563C40.5834 63.2105 47.9135 61.2464 53.7133 56.7961C59.5131 52.3457 63.3074 45.7737 64.2616 38.5258C65.2158 31.2779 63.2517 23.9478 58.8014 18.148C56.4221 15.0472 53.4365 12.5197 50.0651 10.6929L48.6653 13.7947C50.8014 14.9805 52.7567 16.4893 54.4566 18.2783C55.0637 18.9121 55.6386 19.5815 56.1779 20.2844C60.0808 25.3706 61.8032 31.799 60.9664 38.1552C60.1296 44.5115 56.802 50.275 51.7158 54.1778C46.6295 58.0807 40.2011 59.8031 33.8449 58.9663ZM30.0306 44.6848L32.2691 45.8368L32.908 48.8735L31.7852 50.8181L31.6089 50.7163L31.0593 48.9394C30.9104 48.4579 30.5851 48.0503 30.1486 47.7983L27.5237 46.2828L28.0238 45.2451L30.0306 44.6848Z" stroke="currentColor" stroke-linecap="round" stroke-linejoin="round" />
</svg>