<svg viewBox="0 0 80 80" fill="none">
  <path fill-rule="evenodd" clip-rule="evenodd" d="M10 18.1083C11.1046 18.1083 12 19.0037 12 20.1083V38.1083H36V20.1083C36 19.0037 36.8954 18.1083 38 18.1083C39.1046 18.1083 40 19.0037 40 20.1083V60.1083C40 61.2128 39.1046 62.1083 38 62.1083C36.8954 62.1083 36 61.2128 36 60.1083V42.1083H12V60.1083C12 61.2128 11.1046 62.1083 10 62.1083C8.89543 62.1083 8 61.2128 8 60.1083V20.1083C8 19.0037 8.89543 18.1083 10 18.1083Z" stroke="currentColor" stroke-linecap="round" stroke-linejoin="round" />
  <path fill-rule="evenodd" clip-rule="evenodd" d="M49.6667 20C49.6667 18.8954 50.5621 18 51.6667 18H60.7295C66.954 18 72 23.046 72 29.2705C72 33.5395 69.5881 37.442 65.7698 39.3512L60.8944 41.7889C55.4433 44.5144 52 50.0858 52 56.1803V58H70C71.1046 58 72 58.8954 72 60C72 61.1046 71.1046 62 70 62H50.8333C49.2685 62 48 60.7315 48 59.1667V56.1803C48 48.5707 52.2993 41.6143 59.1056 38.2111L63.981 35.7735C66.4441 34.5419 68 32.0244 68 29.2705C68 25.2551 64.7449 22 60.7295 22H51.6667C50.5621 22 49.6667 21.1046 49.6667 20Z" stroke="currentColor" stroke-linecap="round" stroke-linejoin="round" />
</svg>