<svg viewBox="0 0 80 80" fill="none">
  <path fill-rule="evenodd" clip-rule="evenodd" d="M10 18.1083C11.1046 18.1083 12 19.0037 12 20.1083V38.1083H36V20.1083C36 19.0037 36.8954 18.1083 38 18.1083C39.1046 18.1083 40 19.0037 40 20.1083V60.1083C40 61.2128 39.1046 62.1083 38 62.1083C36.8954 62.1083 36 61.2128 36 60.1083V42.1083H12V60.1083C12 61.2128 11.1046 62.1083 10 62.1083C8.89543 62.1083 8 61.2128 8 60.1083V20.1083C8 19.0037 8.89543 18.1083 10 18.1083Z" stroke="currentColor" stroke-linecap="round" stroke-linejoin="round" />
  <path d="M48.8889 45.14C47.7059 46.7369 48.8459 49 50.8333 49H68V60C68 61.1046 68.8954 62 70 62C71.1046 62 72 61.1046 72 60V49L73 49C74.1046 48.9999 75 48.1045 75 46.9999C74.9999 45.8954 74.1045 44.9999 72.9999 45L72 45V20.8334C72 18.6402 69.2023 17.7169 67.8968 19.4792L48.8889 45.14ZM48.8889 45.14L50.496 46.3304L48.8889 45.14ZM53.9704 45L68 26.0601V45H53.9704ZM52.1031 47.5209L52.104 47.5197C52.1037 47.5201 52.1034 47.5205 52.1031 47.5209L50.8333 46.5803L52.1031 47.5209Z" stroke="currentColor" stroke-linecap="round" stroke-linejoin="round" />
</svg>