<svg viewBox="0 0 80 80" fill="none">
  <path fill-rule="evenodd" clip-rule="evenodd" d="M26.2502 20.5C26.2502 17.0482 29.0484 14.25 32.5002 14.25C35.952 14.25 38.7502 17.0482 38.7502 20.5V28.8859C39.5801 28.4787 40.5134 28.25 41.5002 28.25C43.8152 28.25 45.8363 29.5086 46.9164 31.379C47.9311 30.6675 49.1669 30.25 50.5002 30.25C52.8152 30.25 54.8363 31.5086 55.9164 33.379C56.9311 32.6675 58.1669 32.25 59.5002 32.25C62.952 32.25 65.7502 35.0482 65.7502 38.5V46C65.7502 46.3539 65.7202 46.7072 65.6604 47.056L62.6603 64.556C62.1459 67.5566 59.5445 69.75 56.5002 69.75H34.5002C32.4105 69.75 30.459 68.7056 29.2999 66.9669L15.2999 45.9669C13.3852 43.0948 14.1612 39.2144 17.0333 37.2997C19.9054 35.385 23.7858 36.1611 25.7005 39.0331L26.2502 39.8577V20.5ZM32.5002 18.25C31.2576 18.25 30.2502 19.2574 30.2502 20.5V45.125C30.2502 47.5047 27.1638 48.4392 25.8438 46.4592L22.3723 41.2519C21.683 40.218 20.286 39.9386 19.2521 40.6279C18.2182 41.3172 17.9388 42.7141 18.6281 43.7481L32.6281 64.7481C33.0454 65.374 33.7479 65.75 34.5002 65.75H56.5002C57.5961 65.75 58.5326 64.9604 58.7178 63.8802L61.7179 46.3802C61.7394 46.2546 61.7502 46.1274 61.7502 46V38.5C61.7502 37.2574 60.7429 36.25 59.5002 36.25C58.2576 36.25 57.2502 37.2574 57.2502 38.5V39.25C57.2502 40.4926 56.2429 41.5 55.0002 41.5C53.7576 41.5 52.7502 40.4926 52.7502 39.25V36.5C52.7502 35.2574 51.7429 34.25 50.5002 34.25C49.2576 34.25 48.2502 35.2574 48.2502 36.5V39.25C48.2502 40.4926 47.2429 41.5 46.0002 41.5C44.7576 41.5 43.7502 40.4926 43.7502 39.25V34.5C43.7502 33.2574 42.7429 32.25 41.5002 32.25C40.2576 32.25 39.2502 33.2574 39.2502 34.5V39.25C39.2502 40.4926 38.2429 41.5 37.0002 41.5C35.7576 41.5 34.7502 40.4926 34.7502 39.25V20.5C34.7502 19.2574 33.7429 18.25 32.5002 18.25Z" stroke="currentColor" stroke-linecap="round" stroke-linejoin="round" />
</svg>