<svg viewBox="0 0 80 80" fill="none">
  <path d="M41.8125 13C41.8125 11.8954 40.9171 11 39.8125 11C38.7079 11 37.8125 11.8954 37.8125 13V13.3897C34.1301 13.8436 31.2792 16.9829 31.2792 20.788C31.2792 24.1367 33.5121 27.0745 36.7386 27.9707L39.7262 28.8006L42.2117 29.5403C43.7547 29.9995 44.8125 31.4181 44.8125 33.0279C44.8125 35.0375 43.1834 36.6667 41.1737 36.6667H38.6458C36.5287 36.6667 34.8125 34.9504 34.8125 32.8333V32.5903C34.8125 31.4857 33.9171 30.5903 32.8125 30.5903C31.7079 30.5903 30.8125 31.4857 30.8125 32.5903V32.8333C30.8125 36.8781 33.8781 40.2068 37.8125 40.6229V41C37.8125 42.1046 38.7079 43 39.8125 43C40.9171 43 41.8125 42.1046 41.8125 41V40.6403C45.7324 40.3158 48.8125 37.0316 48.8125 33.0279C48.8125 29.6484 46.5918 26.6705 43.3527 25.7065L40.8497 24.9616C40.838 24.9581 40.8262 24.9547 40.8145 24.9514L37.8092 24.1166C36.314 23.7013 35.2792 22.3399 35.2792 20.788C35.2792 18.88 36.8259 17.3333 38.7338 17.3333H40.5125C42.6296 17.3333 44.3458 19.0496 44.3458 21.1667V21.4097C44.3458 22.5143 45.2413 23.4097 46.3458 23.4097C47.4504 23.4097 48.3458 22.5143 48.3458 21.4097V21.1667C48.3458 17.2833 45.52 14.06 41.8125 13.4407V13Z" stroke="currentColor" stroke-linecap="round" stroke-linejoin="round" />
  <path fill-rule="evenodd" clip-rule="evenodd" d="M35.0791 45.875C30.1623 45.875 25.3376 47.0933 21.0295 49.4015C19.8711 50.0221 18.6928 50.375 17.5535 50.375H9.3125C7.93179 50.375 6.8125 51.4943 6.8125 52.875V66.375C6.8125 67.7557 7.93179 68.875 9.3125 68.875H46.3938C53.1491 68.875 59.7034 66.5759 64.9784 62.3558L70.9045 57.615C73.3842 55.6312 73.7863 52.0128 71.8025 49.533C69.8187 47.0532 66.2003 46.6512 63.7205 48.635L57.7944 53.3759C57.4067 53.6861 56.8543 53.875 56.1945 53.875H50.1056C50.3997 53.1839 50.5625 52.4235 50.5625 51.625C50.5625 48.4494 47.9881 45.875 44.8125 45.875H35.0791ZM22.9185 52.9273C26.6474 50.9295 30.8234 49.875 35.0791 49.875H44.8125C45.779 49.875 46.5625 50.6585 46.5625 51.625C46.5625 52.5915 45.779 53.375 44.8125 53.375H35.0791C34.979 53.375 34.879 53.3757 34.779 53.377C33.534 53.3938 32.5625 54.4112 32.5625 55.6251C32.5625 56.8677 33.5698 57.875 34.8124 57.875H56.1945C57.5927 57.875 59.074 57.4747 60.2932 56.4993L66.2193 51.7585C66.974 51.1547 68.0753 51.2771 68.679 52.0318C69.2828 52.7865 69.1604 53.8878 68.4057 54.4915L62.4797 59.2324C57.9138 62.885 52.2408 64.875 46.3938 64.875H10.8125V54.375H17.5535C19.5157 54.375 21.3431 53.7714 22.9185 52.9273Z" stroke="currentColor" stroke-linecap="round" stroke-linejoin="round" />
</svg>