<svg viewBox="0 0 80 80" fill="none">
  <path fill-rule="evenodd" clip-rule="evenodd" d="M27.272 15.1509C23.0285 15.1509 18.9588 16.8366 15.9583 19.8372C12.9577 22.8378 11.272 26.9074 11.272 31.1509C11.272 35.3943 12.9577 39.464 15.9583 42.4646L30.0315 56.5378L30.1002 56.6069L37.1713 63.678C38.7334 65.2401 41.2661 65.2401 42.8282 63.678L64.0414 42.4648C67.0419 39.4642 68.7277 35.3945 68.7277 31.1511C68.7277 26.9076 67.0419 22.8379 64.0414 19.8373C61.0408 16.8368 56.9711 15.1511 52.7277 15.1511C48.4842 15.1511 44.4145 16.8368 41.4139 19.8373L39.9999 21.2514L38.5857 19.8372C35.5851 16.8366 31.5154 15.1509 27.272 15.1509ZM27.272 19.1509C24.0894 19.1509 21.0371 20.4152 18.7867 22.6656C16.5363 24.916 15.272 27.9683 15.272 31.1509C15.272 34.3335 16.5363 37.3857 18.7867 39.6362L20.3104 41.1599H23.8211L26.1607 36.3843C27.3299 33.9979 30.7955 34.1977 31.6827 36.7027L35.9406 48.7253L44.8836 25.884C45.8489 23.4185 49.3018 23.3212 50.4045 25.7283L57.474 41.1599H59.6894L61.2129 39.6363C63.4634 37.3859 64.7277 34.3336 64.7277 31.1511C64.7277 27.9685 63.4634 24.9162 61.2129 22.6658C58.9625 20.4153 55.9103 19.1511 52.7277 19.1511C49.5451 19.1511 46.4928 20.4153 44.2424 22.6658L41.4141 25.494C41.039 25.8691 40.5303 26.0798 39.9999 26.0798C39.4695 26.0798 38.9608 25.8691 38.5857 25.494L35.7573 22.6656C33.5068 20.4152 30.4546 19.1509 27.272 19.1509ZM55.8534 44.9959C55.0913 44.7327 54.4521 44.1678 54.1047 43.4094L47.7493 29.5363L38.6872 52.6818C37.6744 55.2685 33.9932 55.2082 33.0658 52.5896L28.7063 40.2803L27.1388 43.4798C26.635 44.5081 25.5898 45.1599 24.4447 45.1599H24.3104L32.875 53.7244L32.9287 53.7785L39.9997 60.8495L55.8534 44.9959Z" stroke="currentColor" stroke-linecap="round" stroke-linejoin="round" />
</svg>