<svg viewBox="0 0 80 80" fill="none">
  <path d="M47.7506 26.7617L53.7506 31.5617C53.7511 31.5621 53.7515 31.5624 53.7519 31.5628L58 34.9612V60H22V34.9612L40 20.5613L47.7506 26.7617ZM47.7506 26.7617C47.7505 26.7616 47.7508 26.7619 47.7506 26.7617ZM40.9623 16.2465C40.2643 15.863 39.3898 15.927 38.7506 16.4383L11.2506 38.4383C10.3881 39.1283 10.2483 40.3869 10.9383 41.2494C11.6283 42.1119 12.8869 42.2518 13.7494 41.5617L18 38.1613V62C18 63.1046 18.8954 64 20 64H60C61.1046 64 62 63.1046 62 62V38.1613L66.2506 41.5617C67.1131 42.2518 68.3717 42.1119 69.0618 41.2494C69.7518 40.3869 69.6119 39.1283 68.7494 38.4383L57 29.0387V20C57 18.3431 55.6569 17 54 17H50C48.3432 17 47 18.3431 47 20V21.0387L41.2494 16.4383C41.1581 16.3652 41.062 16.3013 40.9623 16.2465ZM53 25.8387V21H51V24.2388L53 25.8387ZM34 36C32.8954 36 32 36.8954 32 38V50C32 51.1046 32.8954 52 34 52H46C47.1046 52 48 51.1046 48 50V38C48 36.8954 47.1046 36 46 36H34ZM36 48V40H44V48H36Z" stroke="currentColor" stroke-linecap="round" stroke-linejoin="round" />
</svg>