<svg viewBox="0 0 80 80" fill="none">
  <path d="M31.2687 53.9956C32.337 54.8577 33.291 55.8478 34.1113 56.941C34.7743 57.8245 34.5956 59.0781 33.7121 59.7411C32.8286 60.4041 31.575 60.2254 30.912 59.3419C30.2892 58.512 29.5657 57.7613 28.7567 57.1085C27.2938 55.9279 25.5885 55.0974 23.7679 54.6769C21.9474 54.2565 20.0569 54.2565 18.2364 54.6769C16.4158 55.0974 14.7105 55.9279 13.2475 57.1085C12.4382 57.7616 11.7144 58.5126 11.0915 59.3429C10.4286 60.2265 9.17495 60.4053 8.29141 59.7424C7.40787 59.0795 7.22901 57.8259 7.89191 56.9424C8.71248 55.8487 9.66681 54.858 10.7355 53.9956C12.6675 52.4366 14.9234 51.3368 17.3362 50.7795C19.749 50.2223 22.2552 50.2223 24.668 50.7795C27.0808 51.3368 29.3368 52.4366 31.2687 53.9956ZM31.2687 53.9956L30.0127 55.552M32.4247 10.2391C32.5878 10.2746 32.7435 10.3299 32.8891 10.4025C33.1583 10.5361 33.3887 10.7267 33.5686 10.9551C33.7491 11.1837 33.8807 11.4525 33.9478 11.746C33.9842 11.9041 34.0016 12.068 33.998 12.2345V17.0512C33.9986 17.0795 33.9986 17.108 33.998 17.1365V29.8406C33.998 33.2478 30.708 35.2719 27.6711 35.2719C24.6342 35.2719 21.3442 33.2478 21.3442 29.8406C21.3442 26.4333 24.6342 24.4092 27.6711 24.4092C28.45 24.4092 29.2456 24.5423 29.998 24.7978V18.6724L17.6519 15.7105L17.6519 25.919C17.6519 29.3262 14.3619 31.3504 11.3249 31.3504C8.288 31.3504 4.99802 29.3262 4.99802 25.919C4.99802 22.5118 8.288 20.4876 11.3249 20.4876C12.1039 20.4876 12.8994 20.6208 13.6519 20.8763L13.6519 13.2182C13.6513 13.1899 13.6513 13.1614 13.6519 13.1329V8.3163C13.6499 8.22382 13.6543 8.13038 13.6656 8.03652C13.6929 7.80369 13.7602 7.58308 13.8604 7.38176C13.9941 7.11212 14.1848 6.88144 14.4135 6.70134C14.6418 6.52106 14.9104 6.38951 15.2036 6.32238C15.423 6.27174 15.6536 6.25773 15.8867 6.28559C15.9805 6.29655 16.0722 6.314 16.1615 6.33747L32.4247 10.2391ZM17.6519 11.597V10.8085L29.998 13.7704V14.5589L17.6519 11.597ZM11.3249 24.4876C13.0661 24.4876 13.651 25.5345 13.6519 25.9182C13.6519 26.3011 13.0674 27.3504 11.3249 27.3504C9.58249 27.3504 8.99802 26.302 8.99802 25.919C8.99802 25.536 9.58249 24.4876 11.3249 24.4876ZM27.6711 28.4092C29.4135 28.4092 29.998 29.4576 29.998 29.8406C29.998 30.2235 29.4135 31.2719 27.6711 31.2719C25.9286 31.2719 25.3442 30.2235 25.3442 29.8406C25.3442 29.4576 25.9286 28.4092 27.6711 28.4092ZM51.4919 15.124L51.4801 15.1172L51.0941 14.8944C50.5162 14.5607 50.3182 13.8217 50.6519 13.2438C50.9855 12.6658 51.7245 12.4678 52.3025 12.8015L53.0963 13.2598C53.6743 13.5935 53.8723 14.3325 53.5386 14.9104C53.2067 15.4853 52.4737 15.6843 51.8972 15.3579L51.888 15.3527L51.4919 15.124ZM49.0941 18.3585C46.603 16.9202 45.7495 13.7349 47.1878 11.2438C48.626 8.75265 51.8114 7.89914 54.3025 9.33738L55.0963 9.79571C57.5874 11.2339 58.441 14.4193 57.0027 16.9104C56.7947 17.2706 56.5502 17.5966 56.2766 17.8864L58.4299 19.1296L70.1322 12.3733C71.0888 11.821 72.3119 12.1488 72.8642 13.1054C73.4165 14.0619 73.0888 15.2851 72.1322 15.8374L62.4299 21.439L72.1322 27.0406C73.0888 27.5929 73.4165 28.8161 72.8642 29.7727C72.3119 30.7293 71.0888 31.057 70.1322 30.5047L58.4299 23.7484L56.2766 24.9916C56.5502 25.2814 56.7947 25.6074 57.0027 25.9676C58.441 28.4587 57.5874 31.6441 55.0963 33.0823L54.3025 33.5407C51.8114 34.9789 48.626 34.1254 47.1878 31.6343C45.7495 29.1432 46.603 25.9578 49.0941 24.5196L49.888 24.0612L49.9068 24.0504L54.4299 21.439L49.907 18.8277L49.888 18.8168L49.0941 18.3585ZM51.0941 27.9837L51.48 27.7609L51.4919 27.7541L51.888 27.5253L51.8972 27.5201C52.4738 27.1938 53.2067 27.3928 53.5386 27.9676C53.8723 28.5456 53.6743 29.2846 53.0963 29.6182L52.3025 30.0766C51.7245 30.4102 50.9855 30.2122 50.6519 29.6343C50.3182 29.0563 50.5162 28.3173 51.0941 27.9837ZM20.8804 67.9862C20.8804 67.8849 20.9553 67.8434 20.998 67.8434C21.0407 67.8434 21.1157 67.8849 21.1157 67.9862C21.1157 68.0875 21.0407 68.1291 20.998 68.1291C20.9553 68.1291 20.8804 68.0875 20.8804 67.9862ZM20.998 63.8434C18.7017 63.8434 16.8804 65.7206 16.8804 67.9862C16.8804 70.2519 18.7017 72.1291 20.998 72.1291C23.2944 72.1291 25.1157 70.2519 25.1157 67.9862C25.1157 65.7206 23.2944 63.8434 20.998 63.8434ZM15.9548 43.6004C19.2748 42.8336 22.7231 42.8336 26.0431 43.6004C29.363 44.3672 32.4678 45.8806 35.1272 48.0267C36.4109 49.0626 37.5748 50.2329 38.6012 51.5148C39.2916 52.3771 39.1523 53.6357 38.2901 54.3261C37.4279 55.0165 36.1692 54.8772 35.4788 54.015C34.6321 52.9575 33.6726 51.9928 32.6153 51.1396C30.4249 49.372 27.8707 48.1278 25.143 47.4978C22.4153 46.8678 19.5827 46.8678 16.855 47.4978C14.1273 48.1278 11.5731 49.372 9.38269 51.1396C8.32615 51.9922 7.3673 52.956 6.52103 54.0126C5.83051 54.8747 4.57184 55.0138 3.70972 54.3232C2.84761 53.6327 2.70851 52.3741 3.39903 51.5119C4.42489 50.2312 5.58803 49.0618 6.87071 48.0267C9.53014 45.8806 12.6349 44.3672 15.9548 43.6004ZM18.7145 57.9613C20.2202 57.6135 21.7842 57.6135 23.2899 57.9613C24.7955 58.309 26.2026 58.9952 27.4071 59.9671C28.2876 60.6777 29.0432 61.5275 29.6462 62.4803C30.237 63.4136 29.9593 64.6491 29.026 65.2399C28.0926 65.8306 26.8571 65.5529 26.2664 64.6196C25.8959 64.0343 25.4328 63.5139 24.8951 63.08C24.1596 62.4865 23.3032 62.0696 22.3897 61.8587C21.4763 61.6477 20.528 61.6477 19.6146 61.8587C18.7012 62.0696 17.8447 62.4865 17.1093 63.08C16.5712 63.5142 16.1079 64.0349 15.7373 64.6206C15.1467 65.5541 13.9113 65.832 12.9778 65.2415C12.0444 64.6509 11.7665 63.4155 12.357 62.482C12.9603 61.5285 13.7162 60.6781 14.5973 59.9671C15.8018 58.9952 17.2088 58.309 18.7145 57.9613ZM61.498 45.2642C61.4938 44.1627 60.5996 43.2719 59.498 43.2719C58.3965 43.2719 57.5023 44.1627 57.498 45.2642L57.482 49.4249C57.4794 50.0942 57.8118 50.7204 58.3676 51.0934C58.7113 51.324 59.1122 51.4388 59.5144 51.4323C59.9055 51.4322 60.2941 51.3175 60.6284 51.0931C61.1843 50.7202 61.5167 50.0939 61.5141 49.4246L61.498 45.2642ZM51.3608 47.8063C50.5789 47.0304 49.3168 47.0329 48.5379 47.8118C47.7589 48.5907 47.7565 49.8528 48.5324 50.6347L51.4632 53.5882C51.9346 54.0634 52.6125 54.2711 53.2692 54.1418C53.6737 54.0622 54.0371 53.8612 54.3164 53.5741C54.5948 53.297 54.7897 52.9397 54.8678 52.543C54.9971 51.8863 54.7893 51.2084 54.3142 50.737L51.3608 47.8063ZM70.4636 50.6347C71.2395 49.8528 71.2371 48.5907 70.4582 47.8118C69.6793 47.0329 68.4171 47.0304 67.6352 47.8063L64.682 50.7368C64.2069 51.2083 63.9991 51.8861 64.1285 52.5429C64.2081 52.9474 64.4091 53.3108 64.6963 53.5901C64.9734 53.8685 65.3306 54.0633 65.7273 54.1414C66.384 54.2707 67.0618 54.0629 67.5333 53.5878L70.4636 50.6347ZM51.8196 57.6415C52.0471 57.9806 52.1619 58.3753 52.1588 58.7719C52.1619 59.1686 52.0471 59.5633 51.8196 59.9024C51.4467 60.4582 50.8204 60.7906 50.1511 60.788L45.9903 60.7719C44.8887 60.7677 43.998 59.8735 43.998 58.7719C43.998 57.6704 44.8887 56.7762 45.9903 56.772L50.1511 56.7559C50.8204 56.7533 51.4467 57.0857 51.8196 57.6415ZM68.8456 56.7559C68.1762 56.7533 67.5499 57.0857 67.177 57.6416C66.9496 57.9806 66.8347 58.3753 66.8379 58.7719C66.8347 59.1686 66.9496 59.5633 67.177 59.9023C67.5499 60.4582 68.1762 60.7906 68.8456 60.788L73.0057 60.7719C74.1073 60.7677 74.998 59.8735 74.998 58.7719C74.998 57.6704 74.1073 56.7762 73.0057 56.772L68.8456 56.7559ZM53.2692 63.4021C53.6737 63.4817 54.0371 63.6827 54.3165 63.9698C54.5948 64.2469 54.7897 64.6042 54.8678 65.0009C54.9971 65.6576 54.7893 66.3354 54.3142 66.8069L51.3608 69.7375C50.5789 70.5135 49.3168 70.511 48.5379 69.7321C47.7589 68.9532 47.7565 67.6911 48.5324 66.9091L51.4632 63.9556C51.9346 63.4805 52.6125 63.2727 53.2692 63.4021ZM67.5333 63.9561C67.0618 63.481 66.384 63.2732 65.7273 63.4025C65.3306 63.4806 64.9733 63.6755 64.6962 63.9538C64.4091 64.2332 64.2081 64.5966 64.1284 65.001C63.9991 65.6578 64.2069 66.3356 64.682 66.8071L67.6352 69.7375C68.4171 70.5135 69.6793 70.511 70.4582 69.7321C71.2371 68.9532 71.2395 67.6911 70.4636 66.9091L67.5333 63.9561ZM58.3676 66.4505C58.7113 66.2199 59.1122 66.1051 59.5143 66.1116C59.9055 66.1116 60.294 66.2264 60.6284 66.4508C61.1842 66.8237 61.5167 67.45 61.5141 68.1193L61.498 72.2797C61.4938 73.3812 60.5996 74.2719 59.498 74.2719C58.3965 74.2719 57.5023 73.3812 57.498 72.2797L57.482 68.119C57.4794 67.4497 57.8118 66.8234 58.3676 66.4505ZM57.2951 53.4536C58.7056 52.8694 60.2904 52.8694 61.7009 53.4536C63.1114 54.0379 64.2321 55.1585 64.8163 56.569C65.4006 57.9795 65.4006 59.5644 64.8163 60.9749C64.2321 62.3853 63.1114 63.506 61.7009 64.0902C60.2904 64.6745 58.7056 64.6745 57.2951 64.0902C55.8846 63.506 54.764 62.3853 54.1797 60.9748C53.5955 59.5644 53.5955 57.9795 54.1797 56.569C54.764 55.1585 55.8846 54.0379 57.2951 53.4536Z" stroke="currentColor" stroke-linecap="round" stroke-linejoin="round" />
</svg>