<svg viewBox="0 0 80 80" fill="none">
  <path fill-rule="evenodd" clip-rule="evenodd" d="M19.1194 16C16.8076 16 14.7015 17.3281 13.7052 19.4141L6.58583 34.3203C6.20016 35.1278 6 36.0113 6 36.9062V58C6 61.3137 8.68629 64 12 64H68C71.3137 64 74 61.3137 74 58V36.9062C74 36.0113 73.7998 35.1278 73.4142 34.3203L66.2948 19.4141C65.2985 17.3281 63.1924 16 60.8806 16H19.1194ZM70 40C70 38.8954 69.1046 38 68 38H55.5418C54.6754 38 53.9075 38.5579 53.6397 39.382L52.2047 43.7984C51.4015 46.2705 49.0978 47.9443 46.4984 47.9443H33.5016C30.9022 47.9443 28.5985 46.2705 27.7953 43.7984L26.3603 39.382C26.0925 38.5579 25.3246 38 24.4582 38H12C10.8954 38 10 38.8954 10 40V58C10 59.1046 10.8954 60 12 60H68C69.1046 60 70 59.1046 70 58V40ZM68.8574 34.0608L62.6853 21.138C62.3532 20.4427 61.6512 20 60.8806 20H19.1194C18.3488 20 17.6468 20.4427 17.3147 21.138L11.1426 34.0608C11.4226 34.0207 11.7089 34 12 34H24.4582C27.0575 34 29.3613 35.6738 30.1645 38.1459L31.5995 42.5623C31.8672 43.3864 32.6352 43.9443 33.5016 43.9443H46.4984C47.3648 43.9443 48.1328 43.3864 48.4005 42.5623L49.8355 38.1459C50.6387 35.6738 52.9425 34 55.5418 34H68C68.2911 34 68.5774 34.0207 68.8574 34.0608Z" stroke="currentColor" stroke-linecap="round" stroke-linejoin="round" />
</svg>