<svg viewBox="0 0 80 80" fill="none">
  <path fill-rule="evenodd" clip-rule="evenodd" d="M66.9998 17.5H50.9998C49.8953 17.5 48.9998 18.3954 48.9998 19.5C48.9998 20.6046 49.8953 21.5 50.9998 21.5H56.9998V48.2267C56.6998 48.3092 56.4036 48.4106 56.1131 48.5309C54.2648 49.2965 52.7963 50.765 52.0307 52.6133C51.9104 52.9038 51.809 53.2 51.7265 53.5H31.933C31.7746 52.4755 31.4937 51.4653 31.0905 50.4916C29.7623 47.2851 27.2146 44.7374 24.0081 43.4092C20.8748 42.1114 17.3631 42.0817 14.2124 43.3203C13.1844 43.7244 12.6787 44.8854 13.0828 45.9133C13.4869 46.9413 14.6479 47.4471 15.6759 47.043C17.8634 46.183 20.3018 46.2036 22.4773 47.1048C24.7038 48.027 26.4727 49.7959 27.3949 52.0224C27.5944 52.5039 27.7507 52.9983 27.8639 53.5H26.2732C26.1907 53.2 26.0892 52.9038 25.9689 52.6133C25.2033 50.765 23.7348 49.2965 21.8865 48.5309C20.0382 47.7653 17.9614 47.7653 16.1131 48.5309C14.2648 49.2965 12.7963 50.765 12.0307 52.6133C11.2651 54.4616 11.2651 56.5384 12.0307 58.3867C12.7963 60.235 14.2648 61.7035 16.1131 62.4691C17.9614 63.2347 20.0382 63.2347 21.8865 62.4691C23.7348 61.7035 25.2033 60.235 25.9689 58.3867C26.0892 58.0962 26.1907 57.8 26.2732 57.5H51.7265C51.809 57.8 51.9104 58.0962 52.0307 58.3867C52.7963 60.235 54.2648 61.7035 56.1131 62.4691C57.9614 63.2347 60.0382 63.2347 61.8865 62.4691C63.7348 61.7035 65.2033 60.235 65.9689 58.3867C66.7345 56.5384 66.7345 54.4616 65.9689 52.6133C65.2033 50.765 63.7348 49.2965 61.8865 48.5309C61.596 48.4106 61.2998 48.3092 60.9998 48.2267V21.5H66.9998C68.1044 21.5 68.9998 20.6046 68.9998 19.5C68.9998 18.3954 68.1044 17.5 66.9998 17.5ZM22.5431 55.4855L22.543 55.5L22.5431 55.5145C22.5412 55.9706 22.4513 56.4264 22.2734 56.856C21.9138 57.7242 21.224 58.4139 20.3558 58.7736C19.4876 59.1332 18.5121 59.1332 17.6439 58.7736C16.7757 58.4139 16.0859 57.7242 15.7263 56.856C15.3666 55.9878 15.3666 55.0122 15.7263 54.144C16.0859 53.2758 16.7757 52.5861 17.6439 52.2264C18.5121 51.8668 19.4876 51.8668 20.3558 52.2264C21.224 52.5861 21.9138 53.2758 22.2734 54.144C22.4513 54.5736 22.5412 55.0294 22.5431 55.4855ZM57.6439 52.2264C56.7757 52.5861 56.0859 53.2758 55.7263 54.144C55.3666 55.0122 55.3666 55.9878 55.7263 56.856C56.0859 57.7242 56.7757 58.4139 57.6439 58.7736C58.5121 59.1332 59.4876 59.1332 60.3558 58.7736C61.224 58.4139 61.9138 57.7242 62.2734 56.856C62.633 55.9878 62.633 55.0122 62.2734 54.144C61.9138 53.2758 61.224 52.5861 60.3558 52.2264C59.4876 51.8668 58.5121 51.8668 57.6439 52.2264Z" stroke="currentColor" stroke-linecap="round" stroke-linejoin="round" />
</svg>