<svg viewBox="0 0 80 80" fill="none">
  <path fill-rule="evenodd" clip-rule="evenodd" d="M26.2304 52.9021C22.638 52.5024 19.2668 50.8944 16.6863 48.3139C13.6857 45.3133 12 41.2436 12 37.0002C12 32.7567 13.6857 28.6871 16.6863 25.6865C18.5077 23.8651 20.7229 22.5282 23.1317 21.7588C24.0056 19.0534 25.4976 16.5647 27.5251 14.5041C30.9957 10.977 35.7439 9 40.7183 9C45.6912 9 50.4837 10.9749 54.0466 14.4814C57.6096 17.9877 59.661 22.7477 59.741 27.7199L59.7439 27.8965C61.3957 28.5439 62.9135 29.5288 64.1924 30.8076C66.6304 33.2456 68 36.5522 68 40C68 43.4478 66.6304 46.7544 64.1924 49.1924C61.7544 51.6304 58.4478 53 55 53H51.1547L39.2919 70.7719C37.8666 72.907 34.5378 71.8981 34.5378 69.3309V56.5814L28.5903 56.5814C26.6568 56.5814 25.4514 54.5718 26.2304 52.9021ZM30.3763 17.3096C33.0881 14.5535 36.8062 13 40.7183 13C44.6319 13 48.4194 14.5555 51.2409 17.3323C54.0625 20.1091 55.6786 23.8711 55.7416 27.7842L55.7673 29.3859C55.7818 30.2846 56.394 31.0632 57.2639 31.2894C58.8023 31.6892 60.221 32.4931 61.364 33.636C63.0518 35.3239 64 37.6131 64 40C64 42.3869 63.0518 44.6761 61.364 46.364C59.6761 48.0518 57.3869 49 55 49H53.7657C54.4545 47.3506 53.2586 45.4183 51.3627 45.4183L45.4151 45.4183V32.6688C45.4151 32.5083 45.4021 32.354 45.3774 32.2061C45.0064 29.9878 41.9972 29.2262 40.6611 31.2279L28.7979 49.0002H28C24.8174 49.0002 21.7652 47.7359 19.5147 45.4855C17.2643 43.235 16 40.1828 16 37.0002C16 33.8176 17.2643 30.7653 19.5147 28.5149C21.0949 26.9348 23.0703 25.8408 25.2089 25.3293C25.9317 25.1564 26.499 24.5969 26.6821 23.8766C27.3083 21.4119 28.5724 19.1429 30.3763 17.3096ZM31.529 52.1136L31.2167 52.5814H36.5378C37.6424 52.5814 38.5378 53.4769 38.5378 54.5814V64.6967L48.7363 49.4183L43.4151 49.4183C42.3105 49.4183 41.4151 48.5229 41.4151 47.4183V37.3031L31.531 52.1106L31.529 52.1136Z" stroke="currentColor" stroke-linecap="round" stroke-linejoin="round" />
</svg>