<svg viewBox="0 0 80 80" fill="none">
  <path d="M53.5 19.5C53.5 11.768 47.232 5.5 39.5 5.5C31.768 5.5 25.5 11.768 25.5 19.5L25.5 31.5C25.5 38.9596 31.3331 45.0554 38.6883 45.4768C39.7911 45.54 40.7363 44.6972 40.7995 43.5945C40.8626 42.4917 40.0199 41.5465 38.9171 41.4834C33.6665 41.1825 29.5 36.8271 29.5 31.5L29.5 19.5C29.5 13.9772 33.9772 9.5 39.5 9.5C45.0228 9.5 49.5 13.9772 49.5 19.5V31.3685C49.5 32.4731 50.3954 33.3685 51.5 33.3685C52.6046 33.3685 53.5 32.4731 53.5 31.3685V19.5Z" stroke="currentColor" stroke-linecap="round" stroke-linejoin="round" />
  <path d="M25.5 59.5C25.5 67.232 31.768 73.5 39.5 73.5C47.232 73.5 53.5 67.232 53.5 59.5V47.5C53.5 40.0404 47.6669 33.9446 40.3117 33.5232C39.2089 33.46 38.2637 34.3028 38.2005 35.4055C38.1374 36.5083 38.9801 37.4535 40.0829 37.5166C45.3335 37.8175 49.5 42.1729 49.5 47.5V59.5C49.5 65.0228 45.0228 69.5 39.5 69.5C33.9772 69.5 29.5 65.0228 29.5 59.5V47.6315C29.5 46.5269 28.6046 45.6315 27.5 45.6315C26.3954 45.6315 25.5 46.5269 25.5 47.6315L25.5 59.5Z" stroke="currentColor" stroke-linecap="round" stroke-linejoin="round" />
</svg>