<svg viewBox="0 0 80 80" fill="none">
  <path d="M41.6354 69.4211L58.7393 46.8933C61.7945 42.8692 63.4485 37.9557 63.4485 32.9032C63.4485 20.1258 53.0903 9.76758 40.3128 9.76758H39.6873C26.9098 9.76758 16.5516 20.1258 16.5516 32.9032C16.5516 37.9557 18.2056 42.8692 21.2608 46.8933L38.3648 69.4212M41.6354 69.4211C41.6354 69.4211 41.6354 69.4211 41.6354 69.4211ZM41.6354 69.4211C40.8137 70.5033 39.1864 70.5033 38.3648 69.4212M38.3648 69.4212C38.3648 69.4212 38.3648 69.4212 38.3648 69.4212ZM40.002 68.1781L41.5506 67.0024M41.5506 67.0024C41.5506 67.0024 41.5506 67.0024 41.5506 67.0024ZM38.4495 67.0024L39.9981 68.1781M38.4495 67.0024C38.4495 67.0024 38.4495 67.0024 38.4495 67.0024ZM20.5516 32.9032C20.5516 22.3349 29.1189 13.7676 39.6873 13.7676H40.3128C50.8812 13.7676 59.4485 22.3349 59.4485 32.9032C59.4485 37.0821 58.0805 41.1461 55.5535 44.4745L40 64.9601L24.4466 44.4745C21.9196 41.1462 20.5516 37.0821 20.5516 32.9032Z" stroke="currentColor" stroke-linecap="round" stroke-linejoin="round" />
</svg>