<svg viewBox="0 0 80 80" fill="none">
  <path fill-rule="evenodd" clip-rule="evenodd" d="M38 60.0001H9C5.68629 60.0001 3 57.3138 3 54.0001L3 18.0005C3 14.6866 5.68664 12.0002 9.00056 12.0005L71.0006 12.0063C74.314 12.0066 77 14.6928 77 18.0063V54.0001C77 57.3138 74.3137 60.0001 71 60.0001H42V64.0001H61C62.1046 64.0001 63 64.8955 63 66.0001C63 67.1047 62.1046 68.0001 61 68.0001H19C17.8954 68.0001 17 67.1047 17 66.0001C17 64.8955 17.8954 64.0001 19 64.0001H38V60.0001ZM7 18.0005C7 16.8958 7.89554 16.0004 9.00019 16.0005L71.0002 16.0063C72.1047 16.0064 73 16.9018 73 18.0063V54.0001C73 55.1047 72.1046 56.0001 71 56.0001L40 56.0001L9 56.0001C7.89543 56.0001 7 55.1047 7 54.0001V18.0005Z" stroke="currentColor" stroke-linecap="round" stroke-linejoin="round" />
</svg>