<svg viewBox="0 0 80 80" fill="none">
  <path fill-rule="evenodd" clip-rule="evenodd" d="M41.7648 16.4269C41.9563 16.2763 42.176 16.16 42.4146 16.087C42.6532 16.014 42.9002 15.9875 43.1432 16.0051C43.723 16.0461 44.2346 16.3343 44.5732 16.7649C44.6089 16.8104 44.6427 16.8574 44.6745 16.9059L51.064 26.369C55.1536 32.4258 54.5017 40.5078 49.494 45.8307L49.4567 45.8704C48.6998 46.6749 47.4341 46.7136 46.6296 45.9567C45.8251 45.1999 45.7864 43.9341 46.5433 43.1296L46.5806 43.0899C50.3071 39.1288 50.7923 33.1146 47.7489 28.6073L45 24.5361L45 54C45 59.4092 39.5782 63 34 63C28.4218 63 23 59.4092 23 54C23 48.5908 28.4218 45 34 45C36.5291 45 39.026 45.7381 41 47.0491L41 18.0303C40.9992 17.9724 41.0009 17.9145 41.005 17.8569C41.046 17.2771 41.3342 16.7655 41.7648 16.4269ZM34 49C38.3607 49 40.9974 51.6746 41 53.9966V54C41 56.3228 38.3629 59 34 59C29.6371 59 27 56.3228 27 54C27 51.6772 29.6371 49 34 49Z" stroke="currentColor" stroke-linecap="round" stroke-linejoin="round" />
</svg>