<svg viewBox="0 0 80 80" fill="none">
  <path fill-rule="evenodd" clip-rule="evenodd" d="M34.1904 19.3617C29.7776 18.7807 25.3148 19.9765 21.7836 22.686C18.2525 25.3956 15.9424 29.3969 15.3614 33.8097C14.7805 38.2225 15.9763 42.6853 18.6858 46.2164C20.3258 48.3538 22.4391 50.0437 24.8304 51.1737C23.0154 53.2343 22.0006 55.8964 22.0006 58.6606C22.0006 61.6701 23.2035 64.5586 25.3324 66.6815C27.4594 68.8025 30.3464 69.9999 33.3532 69.9999H35.3926L35.4159 70H60.5866C60.6079 70 60.6291 69.9997 60.6503 69.9992H62.648C65.6548 69.9992 68.5418 68.8018 70.6688 66.6807C72.7977 64.5579 74.0006 61.6693 74.0006 58.6598C74.0006 55.6503 72.7977 52.7618 70.6688 50.6389C70.0737 50.0454 69.4192 49.5244 68.7194 49.0817C68.8041 47.6095 68.6554 46.1199 68.2657 44.6696C67.3056 41.0968 64.9554 38.0471 61.7488 36.201C58.5429 34.3553 54.7248 33.8506 51.1457 34.8069C47.7204 35.7222 44.7754 37.9 42.8995 40.8917C42.8405 40.8745 42.7813 40.8578 42.7219 40.8416C40.1245 40.1345 37.3327 40.4762 34.9868 41.8082C34.1011 41.2242 33.31 40.4922 32.6519 39.6346C31.0996 37.6116 30.4145 35.0548 30.7473 32.5267C31.0802 29.9986 32.4037 27.7063 34.4266 26.154C34.6629 25.9727 34.9064 25.8032 35.1563 25.6459C36.3438 24.898 36.9201 23.5891 36.8824 22.3947C36.8629 21.7768 36.6759 21.0828 36.2043 20.4865C35.7097 19.861 34.9975 19.4679 34.1904 19.3617ZM36.2699 45.7444C35.2507 46.5231 34.4917 47.6093 34.1108 48.8422C34.0854 48.9244 34.0617 49.0072 34.0397 49.0906C33.9835 49.3035 33.9389 49.5185 33.9056 49.7347C33.773 50.5971 33.0966 51.274 32.2344 51.4072C31.3979 51.5365 30.5909 51.8094 29.8495 52.2112C29.2328 52.5454 28.6617 52.9686 28.1568 53.4721C26.7784 54.8466 26.0006 56.7169 26.0006 58.6606C26.0006 60.6042 26.7784 62.4745 28.1568 63.8491C29.5362 65.2245 31.4083 65.9999 33.3532 65.9999H35.4075L35.4292 66H60.55C60.5698 65.9994 60.5897 65.9992 60.6095 65.9992H62.648C64.5929 65.9992 66.4651 65.2237 67.8444 63.8483C69.2229 62.4738 70.0006 60.6035 70.0006 58.6598C70.0006 56.7162 69.2229 54.8459 67.8444 53.4713C67.2304 52.8591 66.5186 52.3655 65.7455 52.0062C64.9329 51.6286 64.4706 50.7566 64.6142 49.8722C64.8373 48.4968 64.7708 47.0774 64.4027 45.7076C63.719 43.1633 62.0426 40.9857 59.7531 39.6676C57.4629 38.349 54.7336 37.9886 52.1782 38.6714C49.6167 39.3558 47.4327 41.0279 46.1069 43.3178L45.4944 44.3756C44.9632 45.2931 43.8083 45.6367 42.862 45.1587C42.4834 44.9675 42.0845 44.8137 41.6711 44.7011C40.0721 44.2658 38.3556 44.4841 36.9304 45.3046C36.7 45.4373 36.4795 45.5843 36.2699 45.7444ZM31.903 44.5142C31.0021 43.8112 30.186 42.9917 29.4785 42.0696C27.2804 39.205 26.3103 35.5845 26.7816 32.0046C27.2359 28.5535 28.9939 25.4127 31.6862 23.2219C28.9975 23.2879 26.3791 24.2017 24.2187 25.8595C21.5292 27.9232 19.7697 30.9707 19.3272 34.3318C18.8847 37.6928 19.7955 41.0919 21.8592 43.7814C23.5747 46.017 25.97 47.6101 28.66 48.3382C29.178 48.1029 29.7134 47.9066 30.2617 47.7512C30.6131 46.5756 31.1722 45.4801 31.903 44.5142Z" stroke="currentColor" stroke-linecap="round" stroke-linejoin="round" />
</svg>