<svg viewBox="0 0 80 80" fill="none">
  <path fill-rule="evenodd" clip-rule="evenodd" d="M26.4023 11.1716C27.1525 10.4214 28.1699 10 29.2308 10H50.7692C51.8301 10 52.8475 10.4214 53.5977 11.1716L68.8284 26.4023C69.5786 27.1525 70 28.1699 70 29.2308V50.7699C70 51.8307 69.5786 52.8482 68.8284 53.5983L53.5983 68.8284C52.8482 69.5786 51.8307 70 50.7699 70H29.2301C28.1693 70 27.1518 69.5786 26.4017 68.8284L11.1716 53.5983C10.4214 52.8482 10 51.8307 10 50.7699V29.2308C10 28.1699 10.4214 27.1525 11.1716 26.4023L26.4023 11.1716ZM50.7692 14L29.2308 14L14 29.2308V50.7699L29.2301 66H50.7699L66 50.7699V29.2308L50.7692 14Z" stroke="currentColor" stroke-linecap="round" stroke-linejoin="round" />
</svg>