<svg viewBox="0 0 80 81" fill="none">
  <path d="M51.8353 65.5833L52.3313 65.5198L52.3313 65.5198L51.8353 65.5833ZM26.9126 65.5855L26.4166 65.5221L26.4166 65.5221L26.9126 65.5855ZM30.7606 35.4795L30.2647 35.4161L30.2647 35.4161L30.7606 35.4795ZM30.9566 34.7187L31.3726 34.4413C31.4637 34.5779 31.4819 34.7506 31.4213 34.9032L30.9566 34.7187ZM28.8532 31.5636L28.4372 31.841L28.4372 31.841L28.8532 31.5636ZM28.1914 19.7896L28.6359 20.0185L28.1914 19.7896ZM34.973 6.62531L35.4175 6.85428L35.4175 6.85428L34.973 6.62531ZM37.3752 4.36284H37.8752C37.8752 4.56086 37.7584 4.74022 37.5772 4.82022L37.3752 4.36284ZM37.3752 3.94106H36.8752C36.8752 3.66492 37.0991 3.44106 37.3752 3.44106V3.94106ZM41.3752 3.94106V3.44106C41.6514 3.44106 41.8752 3.66492 41.8752 3.94106H41.3752ZM41.3752 4.36284L41.1732 4.82022C40.9921 4.74022 40.8752 4.56086 40.8752 4.36284H41.3752ZM43.7775 6.62531L43.333 6.85428L43.333 6.85428L43.7775 6.62531ZM50.5591 19.7896L51.0036 19.5606L51.0036 19.5606L50.5591 19.7896ZM49.8972 31.5636L50.3133 31.841L50.3133 31.841L49.8972 31.5636ZM47.789 34.726L47.3238 34.9094C47.2638 34.757 47.2821 34.5849 47.373 34.4487L47.789 34.726ZM47.9821 35.4791L47.4861 35.5426L47.4861 35.5426L47.9821 35.4791ZM47.8677 66.0911L47.3717 66.1546L47.3717 66.1546L47.8677 66.0911ZM44.8789 42.7412V42.2412C45.1305 42.2412 45.343 42.4281 45.3749 42.6777L44.8789 42.7412ZM33.865 42.7412L33.3691 42.6778C33.401 42.4282 33.6134 42.2412 33.865 42.2412V42.7412ZM30.8803 66.0926L30.3844 66.0293L30.8803 66.0926ZM44.3669 38.7412L44.8629 38.6777C44.8811 38.8202 44.8372 38.9637 44.7423 39.0715C44.6474 39.1794 44.5106 39.2412 44.3669 39.2412V38.7412ZM34.3763 38.7412V39.2412C34.2326 39.2412 34.0959 39.1794 34.001 39.0715C33.9061 38.9637 33.8621 38.8203 33.8803 38.6778L34.3763 38.7412ZM44.111 36.7412V36.2412C44.3626 36.2412 44.575 36.4281 44.6069 36.6777L44.111 36.7412ZM34.6319 36.7412L34.1359 36.6778C34.1679 36.4282 34.3803 36.2412 34.6319 36.2412V36.7412ZM41.3752 10.6965L40.8752 10.6965C40.8752 10.4658 41.0332 10.265 41.2574 10.2106C41.4817 10.1562 41.7141 10.2624 41.8197 10.4675L41.3752 10.6965ZM47.0032 21.6214L47.4477 21.3924L47.4477 21.3924L47.0032 21.6214ZM41.3752 20.015L41.1495 20.4611C40.9813 20.376 40.8752 20.2035 40.8752 20.015L41.3752 20.015ZM43.1858 21.7411L42.7528 21.9911L42.7528 21.9911L43.1858 21.7411ZM35.5648 21.7411L35.9978 21.9911L35.9978 21.9911L35.5648 21.7411ZM37.3752 20.0151L37.8752 20.0151C37.8752 20.2036 37.7692 20.3761 37.601 20.4612L37.3752 20.0151ZM37.3752 10.6965L36.9308 10.4675C37.0364 10.2624 37.2688 10.1562 37.493 10.2106C37.7173 10.265 37.8752 10.4658 37.8752 10.6965L37.3752 10.6965ZM31.7473 21.6214L31.3028 21.3924L31.3028 21.3924L31.7473 21.6214ZM32.1814 29.3448L31.7654 29.6222L31.7654 29.6222L32.1814 29.3448ZM34.4456 32.7411V33.2411C34.2784 33.2411 34.1223 33.1575 34.0296 33.0184L34.4456 32.7411ZM44.3049 32.7411L44.7209 33.0184C44.6282 33.1575 44.4721 33.2411 44.3049 33.2411V32.7411ZM46.569 29.3448L46.153 29.0675L46.569 29.3448ZM39.3761 23.5411L39.3761 23.0411L39.377 23.0411L39.3761 23.5411ZM39.7217 23.7411L39.2887 23.9911L39.2887 23.9911L39.7217 23.7411ZM39.3745 23.5411L39.3736 23.0411H39.3745V23.5411ZM39.0289 23.7411L39.4619 23.9911L39.4619 23.9911L39.0289 23.7411ZM39.3741 79.2412C46.6442 79.2412 52.2624 72.858 51.3394 65.6468L52.3313 65.5198C53.3308 73.3289 47.2469 80.2412 39.3741 80.2412V79.2412ZM27.4086 65.6489C26.4869 72.8595 32.1049 79.2412 39.3741 79.2412V80.2412C31.5023 80.2412 25.4186 73.3304 26.4166 65.5221L27.4086 65.6489ZM31.2566 35.5429L27.4086 65.6489L26.4166 65.5221L30.2647 35.4161L31.2566 35.5429ZM31.4213 34.9032C31.3415 35.1044 31.2853 35.3186 31.2566 35.5429L30.2647 35.4161C30.3041 35.108 30.3814 34.8124 30.4919 34.5342L31.4213 34.9032ZM29.2693 31.2863L31.3726 34.4413L30.5406 34.996L28.4372 31.841L29.2693 31.2863ZM28.6359 20.0185C26.7853 23.6108 27.0278 27.924 29.2693 31.2863L28.4372 31.841C25.9943 28.1765 25.73 23.4757 27.7469 19.5606L28.6359 20.0185ZM35.4175 6.85428L28.6359 20.0185L27.7469 19.5606L34.5285 6.39633L35.4175 6.85428ZM37.5772 4.82022C36.6619 5.2245 35.8921 5.933 35.4175 6.85428L34.5285 6.39633C35.1098 5.26798 36.0527 4.40033 37.1732 3.90546L37.5772 4.82022ZM37.8752 3.94106V4.36284H36.8752V3.94106H37.8752ZM39.3752 4.44106H37.3752V3.44106H39.3752V4.44106ZM41.3752 4.44106H39.3752V3.44106H41.3752V4.44106ZM40.8752 4.36284V3.94106H41.8752V4.36284H40.8752ZM43.333 6.85428C42.8584 5.933 42.0886 5.2245 41.1732 4.82022L41.5772 3.90546C42.6978 4.40033 43.6407 5.26798 44.222 6.39633L43.333 6.85428ZM50.1146 20.0185L43.333 6.85428L44.222 6.39633L51.0036 19.5606L50.1146 20.0185ZM49.4812 31.2863C51.7227 27.924 51.9652 23.6108 50.1146 20.0185L51.0036 19.5606C53.0205 23.4757 52.7562 28.1765 50.3133 31.841L49.4812 31.2863ZM47.373 34.4487L49.4812 31.2863L50.3133 31.841L48.205 35.0034L47.373 34.4487ZM47.4861 35.5426C47.4577 35.3207 47.4024 35.1087 47.3238 34.9094L48.2541 34.5427C48.3628 34.8183 48.439 35.1108 48.478 35.4157L47.4861 35.5426ZM51.3394 65.6468L47.4861 35.5426L48.478 35.4157L52.3313 65.5198L51.3394 65.6468ZM48.3636 66.0276C49.0571 71.4455 44.8361 76.2412 39.3741 76.2412V75.2412C44.2335 75.2412 47.9887 70.9746 47.3717 66.1546L48.3636 66.0276ZM45.3749 42.6777L48.3636 66.0276L47.3717 66.1546L44.383 42.8046L45.3749 42.6777ZM33.865 42.2412H44.8789V43.2412H33.865V42.2412ZM30.3844 66.0293L33.3691 42.6778L34.361 42.8046L31.3763 66.156L30.3844 66.0293ZM39.3741 76.2412C33.9127 76.2412 29.6919 71.4466 30.3844 66.0293L31.3763 66.156C30.7603 70.9756 34.5153 75.2412 39.3741 75.2412V76.2412ZM44.3669 39.2412H34.3763V38.2412H44.3669V39.2412ZM44.6069 36.6777L44.8629 38.6777L43.871 38.8046L43.615 36.8046L44.6069 36.6777ZM34.6319 36.2412H44.111V37.2412H34.6319V36.2412ZM33.8803 38.6778L34.1359 36.6778L35.1279 36.8046L34.8722 38.8046L33.8803 38.6778ZM41.8197 10.4675L47.4477 21.3924L46.5587 21.8504L40.9308 10.9255L41.8197 10.4675ZM40.8752 20.015L40.8752 10.6965L41.8752 10.6965L41.8752 20.015L40.8752 20.015ZM42.7528 21.9911C42.3487 21.2911 41.7854 20.783 41.1495 20.4611L41.601 19.5689C42.4065 19.9766 43.1155 20.6192 43.6188 21.4911L42.7528 21.9911ZM39.3753 27.8411C42.3775 27.8411 44.2539 24.5911 42.7528 21.9911L43.6188 21.4911C45.5048 24.7577 43.1473 28.8411 39.3753 28.8411V27.8411ZM35.9978 21.9911C34.4967 24.5911 36.3731 27.8411 39.3753 27.8411V28.8411C35.6033 28.8411 33.2458 24.7577 35.1318 21.4911L35.9978 21.9911ZM37.601 20.4612C36.9651 20.7831 36.4019 21.2911 35.9978 21.9911L35.1318 21.4911C35.6351 20.6193 36.344 19.9767 37.1494 19.569L37.601 20.4612ZM37.8752 10.6965L37.8752 20.0151L36.8752 20.0151L36.8752 10.6965L37.8752 10.6965ZM31.3028 21.3924L36.9308 10.4675L37.8197 10.9255L32.1918 21.8504L31.3028 21.3924ZM31.7654 29.6222C30.1283 27.1664 29.9512 24.0161 31.3028 21.3924L32.1918 21.8504C31.0065 24.1513 31.1618 26.9139 32.5975 29.0675L31.7654 29.6222ZM34.0296 33.0184L31.7654 29.6222L32.5975 29.0675L34.8616 32.4637L34.0296 33.0184ZM44.3049 33.2411H34.4456V32.2411H44.3049V33.2411ZM46.9851 29.6222L44.7209 33.0184L43.8889 32.4637L46.153 29.0675L46.9851 29.6222ZM47.4477 21.3924C48.7993 24.0161 48.6222 27.1664 46.9851 29.6222L46.153 29.0675C47.5887 26.9139 47.744 24.1513 46.5587 21.8504L47.4477 21.3924ZM39.377 23.0411C39.6761 23.0416 39.9821 23.1921 40.1547 23.4911L39.2887 23.9911C39.2964 24.0043 39.3099 24.0185 39.3277 24.0283C39.3441 24.0375 39.3605 24.041 39.3751 24.0411L39.377 23.0411ZM39.3745 23.0411H39.3761V24.0411H39.3745V23.0411ZM38.5959 23.4911C38.7685 23.1921 39.0745 23.0416 39.3736 23.0411L39.3755 24.0411C39.3901 24.041 39.4065 24.0375 39.4229 24.0283C39.4407 24.0185 39.4542 24.0043 39.4619 23.9911L38.5959 23.4911ZM39.3753 24.8411C38.6825 24.8411 38.2495 24.0911 38.5959 23.4911L39.4619 23.9911C39.5004 23.9244 39.4523 23.8411 39.3753 23.8411V24.8411ZM40.1547 23.4911C40.5011 24.0911 40.0681 24.8411 39.3753 24.8411V23.8411C39.2983 23.8411 39.2502 23.9244 39.2887 23.9911L40.1547 23.4911Z" fill="currentColor" />
</svg>