<svg viewBox="0 0 80 80" fill="none">
  <path fill-rule="evenodd" clip-rule="evenodd" d="M44.1084 78.1126C47.4245 78.1126 50.1128 75.4244 50.1128 72.1082V16.9189C50.1128 14.6482 49.34 12.4451 47.9215 10.6719L42.4745 3.86326C41.2637 2.34978 38.9618 2.34978 37.7511 3.86326L32.3041 10.6719C30.8856 12.4451 30.1128 14.6482 30.1128 16.9189V72.1171C30.1128 75.4283 32.7971 78.1126 36.1084 78.1126H44.1084ZM46.1128 72.1082C46.1128 73.2152 45.2154 74.1126 44.1084 74.1126H36.1084C35.0063 74.1126 34.1128 73.2192 34.1128 72.1171V62.1126H46.1128V72.1082ZM46.1128 58.1126V16.9189C46.1128 15.5565 45.6491 14.2346 44.798 13.1707L40.1128 7.31421L35.4276 13.1707C34.5765 14.2346 34.1128 15.5565 34.1128 16.9189V58.1126H46.1128Z" stroke="currentColor" stroke-linecap="round" stroke-linejoin="round" />
</svg>