<svg viewBox="0 0 80 80" fill="none">
  <path fill-rule="evenodd" clip-rule="evenodd" d="M40.1132 78.1126C45.636 78.1126 50.1132 73.6355 50.1132 68.1126V19.7251C50.1132 19.147 50.0853 18.5712 50.0303 17.9997L50.0273 17.9687C49.6884 14.5117 48.3544 11.2126 46.1688 8.48063L42.4749 3.86326C41.2641 2.34978 38.9622 2.34978 37.7514 3.86326L34.0575 8.48064C31.87 11.215 30.5356 14.5175 30.1981 17.9778L30.1952 18.0087C30.1407 18.5772 30.1132 19.15 30.1132 19.7251V68.1126C30.1132 73.6355 34.5903 78.1126 40.1132 78.1126ZM34.1132 62.1126V68.1126C34.1132 71.4264 36.7995 74.1126 40.1132 74.1126C43.4269 74.1126 46.1132 71.4264 46.1132 68.1126V62.1126H34.1132ZM34.1132 58.1126H46.1132V22.9283C44.9352 23.9899 43.1187 23.9534 41.9847 22.8188L40.1088 20.9419L38.2329 22.8188C37.1017 23.9506 35.2913 23.9897 34.1132 22.9362V58.1126ZM45.9288 17.4602C45.5419 15.1007 44.5547 12.8662 43.0453 10.9794L42.3496 10.1097H37.8768L37.181 10.9794C35.67 12.8682 34.6823 15.1055 34.2963 17.4678L36.111 19.2834L37.9869 17.4065C39.1586 16.2342 41.059 16.2342 42.2307 17.4065L44.1066 19.2834L45.9288 17.4602Z" stroke="currentColor" stroke-linecap="round" stroke-linejoin="round" />
</svg>