<svg viewBox="0 0 80 80" fill="none">
  <path fill-rule="evenodd" clip-rule="evenodd" d="M45.1424 11.707C44.0119 11.2456 42.8379 10.9322 41.6482 10.767V4.23315C41.6482 3.12859 40.7528 2.23315 39.6482 2.23315C38.5436 2.23315 37.6482 3.12858 37.6482 4.23315L37.6482 10.767C36.4585 10.9322 35.2845 11.2456 34.154 11.707L34.0357 11.7553C30.5421 13.1814 27.7581 15.9369 26.296 19.4156C25.6066 21.0558 25.2378 22.7932 25.1898 24.5371C25.1625 24.6694 25.1482 24.8065 25.1482 24.9469L25.1482 29.281C25.1482 31.2476 26.7424 32.8418 28.709 32.8418H50.5874C52.554 32.8419 54.1482 31.2476 54.1482 29.281L54.1482 24.9469C54.1482 24.8065 54.1339 24.6695 54.1066 24.5372C54.0586 22.7932 53.6898 21.0558 53.0004 19.4156C51.5383 15.9369 48.7543 13.1814 45.2607 11.7553L45.1424 11.707ZM50.1482 28.8419V25.2932C50.1246 25.1703 50.1121 25.0434 50.1119 24.9136C50.11 23.5706 49.8436 22.2281 49.3129 20.9654C48.2618 18.4647 46.2604 16.4839 43.749 15.4587L43.6306 15.4104C41.0779 14.3683 38.2185 14.3683 35.6658 15.4103L35.5474 15.4587C33.036 16.4839 31.0346 18.4647 29.9835 20.9654C29.4528 22.2281 29.1864 23.5706 29.1845 24.9136C29.1843 25.0434 29.1718 25.1703 29.1482 25.2933L29.1482 28.8418L50.1482 28.8419Z" stroke="currentColor" stroke-linecap="round" stroke-linejoin="round" />
  <path fill-rule="evenodd" clip-rule="evenodd" d="M47.1482 36.0616C49.9096 36.0616 52.1482 38.3002 52.1482 41.0616L52.1482 46.4529C52.1482 46.5715 52.143 46.6889 52.1329 46.8049C53.3254 47.3803 54.1482 48.6009 54.1482 50.0137L54.1482 54.3478C54.1482 54.4882 54.1339 54.6253 54.1066 54.7576C54.0586 56.5015 53.6898 58.2389 53.0004 59.8792C51.5383 63.3579 48.7543 66.1133 45.2607 67.5394L45.1424 67.5877C44.0119 68.0492 42.8379 68.3625 41.6482 68.5277L41.6482 75.0616C41.6482 76.1661 40.7528 77.0616 39.6482 77.0616C38.5436 77.0616 37.6482 76.1662 37.6482 75.0616V68.5277C36.4585 68.3625 35.2845 68.0492 34.154 67.5877L34.0357 67.5394C30.5421 66.1133 27.7581 63.3579 26.296 59.8792C25.6066 58.2389 25.2378 56.5016 25.1898 54.7576C25.1625 54.6253 25.1482 54.4882 25.1482 54.3478L25.1482 50.0137C25.1482 48.6009 25.971 47.3803 27.1635 46.8049C27.1534 46.6889 27.1482 46.5715 27.1482 46.4529L27.1482 41.0616C27.1482 38.3002 29.3868 36.0616 32.1482 36.0616C34.9096 36.0616 37.1482 38.3002 37.1482 41.0616L37.1482 46.4529L42.1482 46.4529V41.0616C42.1482 38.3002 44.3868 36.0616 47.1482 36.0616ZM46.1482 46.4529H48.1482L48.1482 41.0616C48.1482 40.5093 47.7005 40.0616 47.1482 40.0616C46.5959 40.0616 46.1482 40.5093 46.1482 41.0616L46.1482 46.4529ZM29.1482 50.4529L29.1482 54.0014C29.1718 54.1244 29.1843 54.2513 29.1845 54.3811C29.1864 55.7241 29.4528 57.0666 29.9835 58.3293C31.0346 60.83 33.036 62.8109 35.5474 63.8361L35.6657 63.8844C38.2185 64.9264 41.0779 64.9264 43.6306 63.8844L43.749 63.8361C46.2604 62.8109 48.2618 60.83 49.3129 58.3293C49.8436 57.0666 50.11 55.7241 50.1119 54.3811C50.1121 54.2513 50.1246 54.1245 50.1482 54.0015L50.1482 50.4529H29.1482ZM33.1482 46.4529V41.0616C33.1482 40.5093 32.7005 40.0616 32.1482 40.0616C31.5959 40.0616 31.1482 40.5093 31.1482 41.0616V46.4529L33.1482 46.4529Z" stroke="currentColor" stroke-linecap="round" stroke-linejoin="round" />
</svg>