<svg viewBox="0 0 80 80" fill="none">
  <path fill-rule="evenodd" clip-rule="evenodd" d="M27.0591 29.24C25.8634 28.5496 25.4537 27.0206 26.144 25.8249L32.6389 14.5755C34.1574 11.9454 36.9637 10.3252 40.0007 10.3252C43.0377 10.3252 45.844 11.9454 47.3625 14.5755L52.5009 23.4755L54.8155 22.1391C57.6483 20.5036 61.0443 23.1095 60.1977 26.2691L58.778 31.5674C57.9919 34.5015 54.976 36.2427 52.0419 35.4565L46.7436 34.0368C43.584 33.1902 43.0253 28.9462 45.8581 27.3107L48.1707 25.9755L43.0323 17.0755C42.407 15.9924 41.2513 15.3252 40.0007 15.3252C38.75 15.3252 37.5943 15.9924 36.969 17.0755L30.4742 28.3249C29.7838 29.5206 28.2548 29.9303 27.0591 29.24ZM52.6889 29.1404L51.1355 30.0373L53.336 30.6269C53.6028 30.6984 53.8769 30.5401 53.9484 30.2733L54.538 28.0728L52.9827 28.9708C52.936 29.0021 52.888 29.032 52.8386 29.0605C52.7893 29.089 52.7393 29.1156 52.6889 29.1404Z" stroke="currentColor" stroke-linecap="round" stroke-linejoin="round" />
  <path fill-rule="evenodd" clip-rule="evenodd" d="M61.65 39.3238C60.9596 38.1281 59.4306 37.7184 58.2349 38.4088C57.0392 39.0991 56.6295 40.6281 57.3198 41.8238L63.8147 53.0732C64.44 54.1563 64.44 55.4907 63.8147 56.5739C63.1893 57.657 62.0337 58.3242 60.783 58.3242L50.5062 58.3242V55.6538C50.5062 52.3827 46.5514 50.7446 44.2385 53.0576L40.3598 56.9363C38.2119 59.0841 38.2119 62.5665 40.3598 64.7144L44.2385 68.5931C46.5514 70.9061 50.5062 69.2679 50.5062 65.9969V63.3242L60.783 63.3242C63.82 63.3242 66.6263 61.704 68.1448 59.0739C69.6633 56.4437 69.6633 53.2033 68.1448 50.5732L61.65 39.3238ZM45.5062 60.6546C45.5025 60.7107 45.5006 60.7672 45.5006 60.8242C45.5006 60.8812 45.5025 60.9378 45.5062 60.9938V62.7898L43.8953 61.1789C43.7001 60.9836 43.7001 60.667 43.8953 60.4718L45.5062 58.8609V60.6546Z" stroke="currentColor" stroke-linecap="round" stroke-linejoin="round" />
  <path fill-rule="evenodd" clip-rule="evenodd" d="M34.7071 60.8214C34.7071 62.2022 33.5878 63.3214 32.2071 63.3214L19.2175 63.3214C16.1805 63.3214 13.3742 61.7012 11.8557 59.0711C10.3372 56.441 10.3372 53.2006 11.8557 50.5704L16.994 41.6705L14.6794 40.3341C11.8466 38.6986 12.4054 34.4546 15.5649 33.608L20.8633 32.1883C23.7974 31.4021 26.8132 33.1433 27.5994 36.0774L29.0191 41.3758C29.8657 44.5353 26.4696 47.1412 23.6368 45.5057L21.3242 44.1705L16.1858 53.0704C15.5605 54.1535 15.5605 55.488 16.1858 56.5711C16.8111 57.6542 17.9668 58.3214 19.2175 58.3214H32.2071C33.5878 58.3214 34.7071 59.4407 34.7071 60.8214ZM21.806 38.6752L23.3594 39.572L22.7698 37.3715C22.6983 37.1048 22.4241 36.9465 22.1574 37.0179L19.9569 37.6076L21.5122 38.5056C21.5626 38.5303 21.6126 38.557 21.6619 38.5855C21.7113 38.614 21.7593 38.6439 21.806 38.6752Z" stroke="currentColor" stroke-linecap="round" stroke-linejoin="round" />
</svg>