<svg viewBox="0 0 80 80" fill="none">
  <path fill-rule="evenodd" clip-rule="evenodd" d="M46 29.7572V24.4998L29.5711 24.4998C25.7066 24.4998 22.0004 26.035 19.2678 28.7676C16.5352 31.5002 15 35.2064 15 39.0709L15 40.9287C15 42.8318 15.3722 44.6963 16.0765 46.4252C16.5973 47.704 15.9829 49.1628 14.7042 49.6836C13.4255 50.2044 11.9667 49.5901 11.4458 48.3114C10.5 45.9893 10 43.4847 10 40.9287V39.0709C10 33.8803 12.0619 28.9023 15.7322 25.232C19.4025 21.5618 24.3805 19.4998 29.5711 19.4998L46 19.4998V14.2425C46 10.4495 50.5858 8.55006 53.2678 11.232L60.6768 18.6411C62.5318 20.4961 62.5318 23.5036 60.6768 25.3586L53.2678 32.7676C50.5858 35.4496 46 33.5501 46 29.7572ZM56.9645 21.9998L51 16.0354V27.9643L56.9645 21.9998Z" stroke="currentColor" stroke-linecap="round" stroke-linejoin="round" />
  <path fill-rule="evenodd" clip-rule="evenodd" d="M50.4289 60.4998C55.6195 60.4998 60.5975 58.4379 64.2678 54.7676C67.9381 51.0973 70 46.1193 70 40.9287V39.0709C70 36.5149 69.5 34.0103 68.5542 31.6883C68.0333 30.4096 66.5745 29.7952 65.2958 30.316C64.0171 30.8369 63.4027 32.2957 63.9235 33.5744C64.6278 35.3034 65 37.1679 65 39.0709V40.9287C65 44.7932 63.4648 48.4994 60.7322 51.232C57.9996 53.9647 54.2934 55.4998 50.4289 55.4998H34V50.2425C34 46.4496 29.4142 44.5501 26.7322 47.232L19.3232 54.6411C17.4682 56.496 17.4682 59.5036 19.3232 61.3586L26.7322 68.7676C29.4142 71.4496 34 69.5501 34 65.7572L34 60.4998H50.4289ZM29 52.0354V63.9643L23.0355 57.9998L29 52.0354Z" stroke="currentColor" stroke-linecap="round" stroke-linejoin="round" />
  <path d="M37.0985 47.9979L37.0985 37.5988C36.2516 37.8443 35.3004 37.6335 34.6327 36.966C33.6561 35.99 33.6558 34.407 34.6319 33.4305L37.7435 30.3174C39.3503 28.7099 42.0985 29.8479 42.0985 32.1207V47.9979C42.0985 49.3786 40.9792 50.4979 39.5985 50.4979C38.2178 50.4979 37.0985 49.3786 37.0985 47.9979Z" stroke="currentColor" stroke-linecap="round" stroke-linejoin="round" />
</svg>