<svg viewBox="0 0 80 80" fill="none">
  <path fill-rule="evenodd" clip-rule="evenodd" d="M24.9769 22.0487C24.3534 24.7805 22.5197 27.0798 19.9951 28.2956C17.4704 29.5114 14.5296 29.5114 12.0049 28.2956C9.48026 27.0798 7.64664 24.7805 7.02311 22.0487C6.39957 19.3168 7.05398 16.4496 8.80109 14.2588C10.5482 12.068 13.1979 10.792 16 10.792C18.8021 10.792 21.4518 12.068 23.1989 14.2588C24.946 16.4496 25.6004 19.3168 24.9769 22.0487ZM10.9228 21.1586C11.2755 22.7037 12.3125 24.0041 13.7404 24.6918C15.1683 25.3794 16.8317 25.3794 18.2596 24.6918C19.6875 24.0041 20.7245 22.7037 21.0772 21.1586C21.4298 19.6135 21.0597 17.9918 20.0716 16.7528C19.0834 15.5137 17.5848 14.792 16 14.792C14.4152 14.792 12.9166 15.5137 11.9284 16.7528C10.9403 17.9918 10.5702 19.6135 10.9228 21.1586Z" stroke="currentColor" stroke-linecap="round" stroke-linejoin="round" />
  <path d="M39 11.1345C40.1046 11.1345 41 12.0299 41 13.1345L41 68.1345C41 69.2391 40.1046 70.1345 39 70.1345C37.8954 70.1345 37 69.2391 37 68.1345L37 13.1345C37 12.0299 37.8954 11.1345 39 11.1345Z" stroke="currentColor" stroke-linecap="round" stroke-linejoin="round" />
  <path fill-rule="evenodd" clip-rule="evenodd" d="M3 38.6664C3 33.8799 6.8802 29.9997 11.6667 29.9997H20.3333C25.1198 29.9997 29 33.8799 29 38.6664V48.6664C29 51.6119 26.6122 53.9997 23.6667 53.9997H23V65.9997C23 68.2089 21.2091 69.9997 19 69.9997H13C10.7909 69.9997 9 68.2089 9 65.9997V53.9997H8.33333C5.38782 53.9997 3 51.6119 3 48.6664V38.6664ZM11.6667 33.9997C9.08934 33.9997 7 36.0891 7 38.6664V48.6664C7 49.4028 7.59695 49.9997 8.33333 49.9997H11C12.1046 49.9997 13 50.8952 13 51.9997V65.9997H19V51.9997C19 50.8952 19.8954 49.9997 21 49.9997H23.6667C24.403 49.9997 25 49.4028 25 48.6664V38.6664C25 36.0891 22.9107 33.9997 20.3333 33.9997H11.6667Z" stroke="currentColor" stroke-linecap="round" stroke-linejoin="round" />
  <path fill-rule="evenodd" clip-rule="evenodd" d="M56.3835 32.963C58.0085 31.0813 60.3718 29.9997 62.858 29.9997C65.3442 29.9997 67.7074 31.0813 69.3325 32.963L69.4521 33.1015C70.2335 34.0062 70.8258 35.0583 71.1941 36.1955L76.5999 52.8872C77.0977 54.4241 75.9518 55.9997 74.3362 55.9997H70V65.9997C70 68.2089 68.2091 69.9997 66 69.9997H60C57.7909 69.9997 56 68.2089 56 65.9997V55.9997H51.3797C49.7642 55.9997 48.6183 54.4241 49.116 52.8872L54.5219 36.1955C54.8902 35.0583 55.4825 34.0062 56.2638 33.1015L56.3835 32.963ZM62.858 33.9997C61.5342 33.9997 60.276 34.5756 59.4108 35.5775L59.2911 35.716C58.8588 36.2166 58.5311 36.7987 58.3273 37.428L53.608 51.9997H58C59.1046 51.9997 60 52.8952 60 53.9997V65.9997H66V53.9997C66 52.8952 66.8954 51.9997 68 51.9997H72.108L67.3887 37.428C67.1849 36.7987 66.8572 36.2166 66.4249 35.716L66.3052 35.5775C65.44 34.5756 64.1817 33.9997 62.858 33.9997Z" stroke="currentColor" stroke-linecap="round" stroke-linejoin="round" />
  <path fill-rule="evenodd" clip-rule="evenodd" d="M66.9951 28.2956C64.4704 29.5114 61.5296 29.5114 59.0049 28.2956C56.4803 27.0798 54.6466 24.7805 54.0231 22.0487C53.3996 19.3168 54.054 16.4496 55.8011 14.2588C57.5482 12.068 60.1979 10.792 63 10.792C65.8021 10.792 68.4518 12.068 70.1989 14.2588C71.946 16.4496 72.6004 19.3168 71.9769 22.0487C71.3534 24.7805 69.5197 27.0798 66.9951 28.2956ZM60.7404 24.6918C62.1683 25.3794 63.8317 25.3794 65.2596 24.6918C66.6875 24.0041 67.7245 22.7037 68.0772 21.1586C68.4298 19.6135 68.0597 17.9918 67.0716 16.7528C66.0834 15.5137 64.5848 14.792 63 14.792C61.4152 14.792 59.9166 15.5137 58.9284 16.7528C57.9403 17.9918 57.5702 19.6135 57.9228 21.1586C58.2755 22.7037 59.3125 24.0041 60.7404 24.6918Z" stroke="currentColor" stroke-linecap="round" stroke-linejoin="round" />
</svg>