<svg viewBox="0 0 80 80" fill="none">
  <path fill-rule="evenodd" clip-rule="evenodd" d="M25.8284 43.4475C23.3086 40.9277 19 42.7124 19 46.276V57.4475C19 59.6567 20.7909 61.4475 23 61.4475H34.1716C37.7352 61.4475 39.5199 57.139 37 54.6191L25.8284 43.4475ZM23 46.276L34.1716 57.4475L23 57.4475V46.276Z" stroke="currentColor" stroke-linecap="round" stroke-linejoin="round" />
  <path fill-rule="evenodd" clip-rule="evenodd" d="M12.8284 10.4475C10.3086 7.92768 6 9.71234 6 13.276V70.4475C6 72.6567 7.79086 74.4475 10 74.4475H67.1716C70.7352 74.4475 72.5199 70.139 70 67.6191L12.8284 10.4475ZM57.1615 60.4374L67.1716 70.4475L10 70.4475V13.276L19.2566 22.5326L17.0041 24.7851C16.223 25.5661 16.223 26.8324 17.0041 27.6135C17.7851 28.3945 19.0515 28.3945 19.8325 27.6135L22.085 25.361L28.0257 31.3017L25.1273 34.2001C24.3462 34.9812 24.3462 36.2475 25.1273 37.0285C25.9083 37.8096 27.1746 37.8096 27.9557 37.0285L30.8541 34.1301L36.7948 40.0708L34.5423 42.3233C33.7613 43.1043 33.7613 44.3707 34.5423 45.1517C35.3234 45.9328 36.5897 45.9328 37.3707 45.1517L39.6232 42.8992L45.5639 48.8399L42.6655 51.7383C41.8844 52.5194 41.8844 53.7857 42.6655 54.5668C43.4465 55.3478 44.7129 55.3478 45.4939 54.5668L48.3923 51.6683L54.333 57.609L52.0805 59.8615C51.2995 60.6426 51.2995 61.9089 52.0805 62.6899C52.8616 63.471 54.1279 63.471 54.909 62.6899L57.1615 60.4374Z" stroke="currentColor" stroke-linecap="round" stroke-linejoin="round" />
</svg>