<svg viewBox="0 0 80 80" fill="none">
  <path d="M49.5211 25.3561L49.3171 24.8995C49.1724 24.9642 49.0668 25.0937 49.0328 25.2486C48.9987 25.4034 49.0401 25.5653 49.1443 25.6848L49.5211 25.3561ZM49.7137 25.2666L49.4968 24.8162L49.4968 24.8162L49.7137 25.2666ZM53.7206 20.2422L54.2081 20.3534L54.2081 20.3534L53.7206 20.2422ZM52.2906 13.9768L51.8997 14.2885L51.8997 14.2885L52.2906 13.9768ZM39.2804 20.2422L38.7929 20.3534L38.7929 20.3534L39.2804 20.2422ZM39.469 20.919L39.4703 21.419C39.6306 21.4186 39.7809 21.3413 39.8746 21.2113C39.9683 21.0813 39.994 20.9142 39.9437 20.7621L39.469 20.919ZM35.7059 21.5347L35.5477 21.0604L35.5477 21.0604L35.7059 21.5347ZM25.6032 24.9023L25.4451 24.4279L25.4451 24.4279L25.6032 24.9023ZM21.8085 32.4918L22.2828 32.3336L22.2828 32.3336L21.8085 32.4918ZM29.398 36.2865L29.2399 35.8121L29.2398 35.8121L29.398 36.2865ZM29.6928 36.1882L30.1474 36.3963C30.2303 36.2153 30.1979 36.0023 30.0648 35.8542C29.9318 35.706 29.7236 35.6509 29.5347 35.7139L29.6928 36.1882ZM29.0856 37.5147L29.5403 37.7228L29.5403 37.7228L29.0856 37.5147ZM28.5756 38.9624L29.0321 39.1665C29.0439 39.1401 29.0534 39.1128 29.0604 39.0848L28.5756 38.9624ZM25.6106 45.5945V46.0945C25.8078 46.0945 25.9866 45.9786 26.0671 45.7985L25.6106 45.5945ZM36.2024 51.3046L35.746 51.1005L35.746 51.1005L36.2024 51.3046ZM36.8134 49.938L36.983 49.4677C36.7368 49.3789 36.4637 49.495 36.3569 49.734L36.8134 49.938ZM40.7718 51.3656L41.2546 51.4956C41.3222 51.2445 41.1861 50.9835 40.9414 50.8952L40.7718 51.3656ZM38.7069 59.0344L38.2241 58.9044L38.2241 58.9044L38.7069 59.0344ZM42.9406 66.3881L43.0706 65.9052L43.0706 65.9052L42.9406 66.3881ZM50.2943 62.1544L50.7771 62.2844L50.7771 62.2844L50.2943 62.1544ZM52.3591 54.4855L52.8419 54.6155L52.8419 54.6155L52.3591 54.4855ZM50.6562 44.5606L50.6963 44.0622C50.504 44.0468 50.32 44.1433 50.2234 44.3103C50.1268 44.4773 50.135 44.685 50.2443 44.8439L50.6562 44.5606ZM52.6854 32.5944L52.2004 32.7157C52.256 32.9382 52.456 33.0944 52.6854 33.0944V32.5944ZM52.1203 30.3342L51.6352 30.4555L51.6352 30.4555L52.1203 30.3342ZM47.9782 21.6628L48.1952 22.1133L48.1952 22.1133L47.9782 21.6628ZM45.0228 21.6628L44.8058 22.1133L44.8058 22.1133L45.0228 21.6628ZM49.8209 19.3521L49.3334 19.2408L49.3334 19.2408L49.8209 19.3521ZM49.1633 16.4707L49.5542 16.159L49.5542 16.159L49.1633 16.4707ZM43.8377 16.4707L43.4468 16.159L43.4468 16.159L43.8377 16.4707ZM43.1801 19.3521L43.6675 19.2408L43.6675 19.2408L43.1801 19.3521ZM29.8762 45.8529L30.2839 45.5634C30.1421 45.3637 29.8766 45.2961 29.6566 45.4037L29.8762 45.8529ZM29.8765 45.8532L30.2841 45.5637L30.2841 45.5637L29.8765 45.8532ZM27.0732 47.2231L26.8536 46.7739C26.6793 46.8592 26.57 47.0376 26.5733 47.2317C26.5766 47.4258 26.692 47.6004 26.8692 47.6796L27.0732 47.2231ZM28.8991 48.0394L29.3555 48.2435C29.4682 47.9914 29.3552 47.6957 29.1031 47.583L28.8991 48.0394ZM32.5508 49.672L32.0943 49.4679L32.0943 49.4679L32.5508 49.672ZM33.0581 48.5371L33.5146 48.7411C33.6251 48.494 33.5188 48.2037 33.2747 48.0864L33.0581 48.5371ZM38.4504 46.2763L37.9942 46.0717C37.9373 46.1987 37.9358 46.3437 37.9902 46.4717C38.0446 46.5998 38.1499 46.6994 38.2808 46.7466L38.4504 46.2763ZM42.1288 47.6028L41.9592 48.0732L41.9592 48.0732L42.1288 47.6028ZM38.4505 46.2762L38.9067 46.4807C38.9637 46.3537 38.9651 46.2088 38.9107 46.0807C38.8563 45.9526 38.751 45.853 38.6201 45.8058L38.4505 46.2762ZM36.4238 45.5453L36.5935 45.0749L36.5935 45.0749L36.4238 45.5453ZM35.2145 45.1092L35.0449 45.5795L35.0449 45.5795L35.2145 45.1092ZM32.4312 40.0431L32.9189 40.1534C32.9756 39.9026 32.8328 39.6496 32.5887 39.5686L32.4312 40.0431ZM32.4307 40.043L31.943 39.933C31.8864 40.1837 32.0292 40.4365 32.2732 40.5175L32.4307 40.043ZM32.7227 39.1795L33.1773 39.3876L33.1773 39.3876L32.7227 39.1795ZM35.2458 33.6677L34.7911 33.4595L34.7911 33.4595L35.2458 33.6677ZM37.1617 29.4822L37.6163 29.6903C37.6992 29.5093 37.6667 29.2963 37.5337 29.1482C37.4007 29 37.1924 28.9449 37.0035 29.0079L37.1617 29.4822ZM32.7948 30.9379L32.9529 31.4122L32.9529 31.4122L32.7948 30.9379ZM28.1331 32.4918L27.9749 32.0174L27.9749 32.0174L28.1331 32.4918ZM25.6032 31.2268L25.1289 31.385L25.1289 31.385L25.6032 31.2268ZM26.8681 28.697L26.71 28.2227L26.71 28.2227L26.8681 28.697ZM42.0304 25.3295L42.1885 24.8551L42.1885 24.8551L42.0304 25.3295ZM43.0085 25.6555L42.8504 26.1298L42.8504 26.1298L43.0085 25.6555ZM48.2398 31.3045L48.7248 31.1832L48.7248 31.1832L48.2398 31.3045ZM49.0923 34.7141L48.6072 34.8354C48.6742 35.1033 48.9457 35.2661 49.2136 35.1991L49.0923 34.7141ZM50.9113 34.7747C51.1792 34.7077 51.3421 34.4362 51.2751 34.1683C51.2081 33.9004 50.9366 33.7375 50.6687 33.8045L50.9113 34.7747ZM49.0923 34.7141L48.971 34.229C48.7031 34.296 48.5402 34.5675 48.6072 34.8354L49.0923 34.7141ZM45.7851 37.1724L46.226 36.9364L46.226 36.9364L45.7851 37.1724ZM43.7922 33.4486L44.233 33.2127C44.1418 33.0423 43.9606 32.9397 43.7676 32.9492C43.5746 32.9587 43.4043 33.0786 43.3303 33.2571L43.7922 33.4486ZM42.1743 37.35L42.6362 37.5415L42.1743 37.35ZM40.8068 40.6479L41.2686 40.8395L41.2686 40.8395L40.8068 40.6479ZM40.0038 42.5843L39.5419 42.3928C39.4896 42.519 39.4912 42.6612 39.5464 42.7863C39.6016 42.9113 39.7056 43.0083 39.8342 43.0546L40.0038 42.5843ZM41.9757 43.2954L41.8061 43.7658L41.8061 43.7658L41.9757 43.2954ZM43.4858 43.84L43.6554 43.3697L43.6554 43.3697L43.4858 43.84ZM48.4967 53.4455L48.9795 53.5755L48.9795 53.5755L48.4967 53.4455ZM46.4318 61.1144L45.949 60.9844L45.949 60.9844L46.4318 61.1144ZM42.5694 60.0744L43.0522 60.2044L43.0522 60.2044L42.5694 60.0744ZM44.6342 52.4056L44.1514 52.2756L44.1514 52.2756L44.6342 52.4056ZM28.4426 47.8353C28.3299 48.0874 28.4429 48.3832 28.695 48.4959C28.9471 48.6086 29.2428 48.4956 29.3555 48.2435L28.4426 47.8353ZM30.3329 46.0573C30.4456 45.8052 30.3326 45.5095 30.0805 45.3968C29.8284 45.2841 29.5327 45.3971 29.42 45.6491L30.3329 46.0573ZM49.725 25.8126C49.7939 25.7818 49.8625 25.75 49.9307 25.7171L49.4968 24.8162C49.4372 24.8449 49.3773 24.8727 49.3171 24.8995L49.725 25.8126ZM49.9307 25.7171C52.0984 24.6732 53.6727 22.6991 54.2081 20.3534L53.2332 20.1309C52.7655 22.1798 51.3903 23.9043 49.4968 24.8162L49.9307 25.7171ZM54.2081 20.3534C54.7435 18.0078 54.1816 15.5461 52.6815 13.665L51.8997 14.2885C53.21 15.9316 53.7008 18.082 53.2332 20.1309L54.2081 20.3534ZM52.6815 13.665C51.1814 11.784 48.9064 10.6884 46.5005 10.6884V11.6884C48.6021 11.6884 50.5893 12.6454 51.8997 14.2885L52.6815 13.665ZM46.5005 10.6884C44.0946 10.6884 41.8195 11.784 40.3195 13.665L41.1013 14.2885C42.4116 12.6454 44.3989 11.6884 46.5005 11.6884V10.6884ZM40.3195 13.665C38.8194 15.5461 38.2575 18.0078 38.7929 20.3534L39.7678 20.1309C39.3002 18.082 39.791 15.9316 41.1013 14.2885L40.3195 13.665ZM38.7929 20.3534C38.8488 20.5985 38.9161 20.8395 38.9942 21.0759L39.9437 20.7621C39.8755 20.5556 39.8167 20.3451 39.7678 20.1309L38.7929 20.3534ZM39.4677 20.419C38.1437 20.4225 36.8201 20.6363 35.5477 21.0604L35.864 22.0091C37.0346 21.6189 38.2522 21.4222 39.4703 21.419L39.4677 20.419ZM35.5477 21.0604L25.4451 24.4279L25.7613 25.3766L35.864 22.0091L35.5477 21.0604ZM25.4451 24.4279C22.0395 25.5632 20.1989 29.2442 21.3342 32.6499L22.2828 32.3336C21.3223 29.452 22.8797 26.3372 25.7613 25.3766L25.4451 24.4279ZM21.3342 32.6499C22.4694 36.0555 26.1504 37.896 29.5561 36.7608L29.2398 35.8121C26.3582 36.7727 23.2434 35.2153 22.2828 32.3336L21.3342 32.6499ZM29.5561 36.7608L29.8509 36.6626L29.5347 35.7139L29.2399 35.8121L29.5561 36.7608ZM29.2382 35.9801L28.631 37.3065L29.5403 37.7228L30.1474 36.3963L29.2382 35.9801ZM28.631 37.3065C28.4007 37.8096 28.2214 38.3227 28.0908 38.8401L29.0604 39.0848C29.1762 38.626 29.3353 38.1704 29.5403 37.7228L28.631 37.3065ZM28.1192 38.7584L25.1541 45.3904L26.0671 45.7985L29.0321 39.1665L28.1192 38.7584ZM25.6106 45.0945H20.5005V46.0945H25.6106V45.0945ZM20.5005 45.0945C16.9106 45.0945 14.0005 48.0046 14.0005 51.5945H15.0005C15.0005 48.5569 17.4629 46.0945 20.5005 46.0945V45.0945ZM14.0005 51.5945C14.0005 55.1843 16.9106 58.0945 20.5005 58.0945V57.0945C17.4629 57.0945 15.0005 54.632 15.0005 51.5945H14.0005ZM20.5005 58.0945H26.5005V57.0945H20.5005V58.0945ZM26.5005 58.0945C30.889 58.0945 34.8677 55.515 36.6589 51.5086L35.746 51.1005C34.1158 54.7468 30.4947 57.0945 26.5005 57.0945V58.0945ZM36.6589 51.5086L37.2698 50.1421L36.3569 49.734L35.746 51.1005L36.6589 51.5086ZM36.6437 50.4084L40.6022 51.8359L40.9414 50.8952L36.983 49.4677L36.6437 50.4084ZM40.289 51.2356L38.2241 58.9044L39.1897 59.1644L41.2546 51.4956L40.289 51.2356ZM38.2241 58.9044C37.2908 62.3708 39.3442 65.9375 42.8106 66.8709L43.0706 65.9052C40.1375 65.1155 38.4 62.0975 39.1897 59.1644L38.2241 58.9044ZM42.8106 66.8709C46.277 67.8042 49.8437 65.7507 50.7771 62.2844L49.8115 62.0244C49.0217 64.9575 46.0037 66.695 43.0706 65.9052L42.8106 66.8709ZM50.7771 62.2844L52.8419 54.6155L51.8763 54.3555L49.8115 62.0244L50.7771 62.2844ZM52.8419 54.6155C53.8287 50.9507 53.0789 47.2013 51.0682 44.2773L50.2443 44.8439C52.0952 47.5356 52.784 50.9843 51.8763 54.3555L52.8419 54.6155ZM50.6162 45.059C50.9085 45.0825 51.2034 45.0944 51.5006 45.0944V44.0944C51.2302 44.0944 50.9619 44.0835 50.6963 44.0622L50.6162 45.059ZM51.5006 45.0944H54.5006V44.0944H51.5006V45.0944ZM54.5006 45.0944C58.0904 45.0944 61.0006 42.1842 61.0006 38.5944H60.0006C60.0006 41.632 57.5382 44.0944 54.5006 44.0944V45.0944ZM61.0006 38.5944C61.0006 35.0045 58.0904 32.0944 54.5006 32.0944V33.0944C57.5382 33.0944 60.0006 35.5568 60.0006 38.5944H61.0006ZM54.5006 32.0944H52.6854V33.0944H54.5006V32.0944ZM53.1705 32.4731L52.6054 30.2129L51.6352 30.4555L52.2004 32.7157L53.1705 32.4731ZM52.6054 30.2129C52.118 28.2636 51.1782 26.4948 49.8978 25.0273L49.1443 25.6848C50.3223 27.0349 51.1868 28.6621 51.6352 30.4555L52.6054 30.2129ZM47.7613 21.2123C46.9645 21.596 46.0364 21.596 45.2397 21.2123L44.8058 22.1133C45.8767 22.629 47.1242 22.629 48.1952 22.1133L47.7613 21.2123ZM49.3334 19.2408C49.1367 20.103 48.558 20.8286 47.7613 21.2123L48.1952 22.1133C49.2661 21.5975 50.0439 20.6222 50.3084 19.4634L49.3334 19.2408ZM48.7723 16.7825C49.3237 17.4739 49.5302 18.3787 49.3334 19.2408L50.3084 19.4634C50.5729 18.3045 50.2953 17.0883 49.5542 16.159L48.7723 16.7825ZM46.5005 15.6884C47.3848 15.6884 48.221 16.0911 48.7723 16.7825L49.5542 16.159C48.8131 15.2297 47.6891 14.6884 46.5005 14.6884V15.6884ZM44.2286 16.7825C44.78 16.0911 45.6162 15.6884 46.5005 15.6884V14.6884C45.3119 14.6884 44.1879 15.2297 43.4468 16.159L44.2286 16.7825ZM43.6675 19.2408C43.4708 18.3787 43.6773 17.4739 44.2286 16.7825L43.4468 16.159C42.7057 17.0883 42.4281 18.3045 42.6926 19.4634L43.6675 19.2408ZM45.2397 21.2123C44.443 20.8286 43.8643 20.103 43.6675 19.2408L42.6926 19.4634C42.9571 20.6222 43.7349 21.5975 44.8058 22.1133L45.2397 21.2123ZM29.4685 46.1423L29.4688 46.1427L30.2841 45.5637L30.2839 45.5634L29.4685 46.1423ZM27.2928 47.6723L30.0958 46.3021L29.6566 45.4037L26.8536 46.7739L27.2928 47.6723ZM29.1031 47.583L27.2773 46.7667L26.8692 47.6796L28.695 48.4959L29.1031 47.583ZM26.5005 50.0945C27.7339 50.0945 28.8521 49.3695 29.3555 48.2435L28.4426 47.8353C28.1002 48.6013 27.3395 49.0945 26.5005 49.0945V50.0945ZM20.5005 50.0945H26.5005V49.0945H20.5005V50.0945ZM19.0005 51.5945C19.0005 50.766 19.6721 50.0945 20.5005 50.0945V49.0945C19.1198 49.0945 18.0005 50.2137 18.0005 51.5945H19.0005ZM20.5005 53.0945C19.6721 53.0945 19.0005 52.4229 19.0005 51.5945H18.0005C18.0005 52.9752 19.1198 54.0945 20.5005 54.0945V53.0945ZM26.5005 53.0945H20.5005V54.0945H26.5005V53.0945ZM32.0943 49.4679C31.108 51.6741 28.9171 53.0945 26.5005 53.0945V54.0945C29.3115 54.0945 31.8599 52.4423 33.0072 49.8761L32.0943 49.4679ZM32.6017 48.333L32.0943 49.4679L33.0072 49.8761L33.5146 48.7411L32.6017 48.333ZM29.4688 46.1427C30.311 47.3288 31.4537 48.3206 32.8415 48.9877L33.2747 48.0864C32.044 47.4949 31.0313 46.6159 30.2841 45.5637L29.4688 46.1427ZM38.2808 46.7466L41.9592 48.0732L42.2984 47.1325L38.6201 45.8059L38.2808 46.7466ZM37.9942 46.0716L37.9942 46.0717L38.9067 46.4808L38.9067 46.4807L37.9942 46.0716ZM36.2542 46.0156L38.2809 46.7465L38.6201 45.8058L36.5935 45.0749L36.2542 46.0156ZM35.0449 45.5795L36.2542 46.0156L36.5935 45.0749L35.3841 44.6388L35.0449 45.5795ZM31.9435 39.9328C31.4142 42.2739 32.6929 44.7313 35.0449 45.5795L35.3841 44.6388C33.516 43.9651 32.4987 42.0119 32.9189 40.1534L31.9435 39.9328ZM32.2732 40.5175L32.2737 40.5176L32.5887 39.5686L32.5883 39.5684L32.2732 40.5175ZM32.268 38.9714C32.124 39.2861 32.0162 39.6082 31.943 39.933L32.9185 40.1529C32.9765 39.8953 33.0622 39.6391 33.1773 39.3876L32.268 38.9714ZM34.7911 33.4595L32.268 38.9714L33.1773 39.3876L35.7004 33.8758L34.7911 33.4595ZM36.707 29.2741L34.7911 33.4595L35.7004 33.8758L37.6163 29.6903L36.707 29.2741ZM32.9529 31.4122L37.3198 29.9566L37.0035 29.0079L32.6367 30.4635L32.9529 31.4122ZM28.2912 32.9661L32.9529 31.4122L32.6367 30.4635L27.9749 32.0174L28.2912 32.9661ZM25.1289 31.385C25.5655 32.6948 26.9813 33.4027 28.2912 32.9661L27.9749 32.0174C27.189 32.2794 26.3395 31.8546 26.0776 31.0687L25.1289 31.385ZM26.71 28.2227C25.4002 28.6593 24.6923 30.0751 25.1289 31.385L26.0776 31.0687C25.8156 30.2828 26.2403 29.4333 27.0263 29.1714L26.71 28.2227ZM36.8127 24.8551L26.71 28.2227L27.0263 29.1714L37.1289 25.8038L36.8127 24.8551ZM42.1885 24.8551C40.4438 24.2735 38.5574 24.2735 36.8127 24.8551L37.1289 25.8038C38.6684 25.2907 40.3328 25.2907 41.8723 25.8038L42.1885 24.8551ZM43.1666 25.1812L42.1885 24.8551L41.8723 25.8038L42.8504 26.1298L43.1666 25.1812ZM48.7248 31.1832C48.0199 28.3639 45.9236 26.1001 43.1666 25.1812L42.8504 26.1298C45.283 26.9407 47.1327 28.9381 47.7547 31.4257L48.7248 31.1832ZM49.5773 34.5928L48.7248 31.1832L47.7547 31.4257L48.6072 34.8354L49.5773 34.5928ZM50.6687 33.8045L48.971 34.229L49.2136 35.1991L50.9113 34.7747L50.6687 33.8045ZM49.2136 35.1992L50.9113 34.7747L50.6687 33.8045L48.971 34.229L49.2136 35.1992ZM51.5006 36.0944C50.5909 36.0944 49.798 35.4753 49.5773 34.5928L48.6072 34.8354C48.9392 36.163 50.1321 37.0944 51.5006 37.0944V36.0944ZM54.5006 36.0944H51.5006V37.0944H54.5006V36.0944ZM57.0006 38.5944C57.0006 37.2137 55.8813 36.0944 54.5006 36.0944V37.0944C55.329 37.0944 56.0006 37.766 56.0006 38.5944H57.0006ZM54.5006 41.0944C55.8813 41.0944 57.0006 39.9751 57.0006 38.5944H56.0006C56.0006 39.4228 55.329 40.0944 54.5006 40.0944V41.0944ZM51.5006 41.0944H54.5006V40.0944H51.5006V41.0944ZM45.3443 37.4083C46.5378 39.6383 48.8828 41.0944 51.5006 41.0944V40.0944C49.2581 40.0944 47.2486 38.8472 46.226 36.9364L45.3443 37.4083ZM43.3513 33.6845L45.3443 37.4083L46.226 36.9364L44.233 33.2127L43.3513 33.6845ZM42.6362 37.5415L44.254 33.6401L43.3303 33.2571L41.7125 37.1585L42.6362 37.5415ZM41.2686 40.8395L42.6362 37.5415L41.7125 37.1585L40.3449 40.4564L41.2686 40.8395ZM40.4657 42.7758L41.2686 40.8395L40.3449 40.4564L39.5419 42.3928L40.4657 42.7758ZM42.1454 42.8251L40.1734 42.1139L39.8342 43.0546L41.8061 43.7658L42.1454 42.8251ZM43.6554 43.3697L42.1454 42.8251L41.8061 43.7658L43.3162 44.3104L43.6554 43.3697ZM48.9795 53.5755C50.1289 49.3067 47.8141 44.8694 43.6554 43.3697L43.3161 44.3104C46.9856 45.6337 49.0281 49.5489 48.0139 53.3155L48.9795 53.5755ZM46.9146 61.2444L48.9795 53.5755L48.0139 53.3155L45.949 60.9844L46.9146 61.2444ZM43.8506 63.0084C45.1838 63.3674 46.5556 62.5776 46.9146 61.2444L45.949 60.9844C45.7336 61.7843 44.9105 62.2582 44.1106 62.0428L43.8506 63.0084ZM42.0866 59.9444C41.7276 61.2776 42.5174 62.6494 43.8506 63.0084L44.1106 62.0428C43.3107 61.8274 42.8368 61.0043 43.0522 60.2044L42.0866 59.9444ZM44.1514 52.2756L42.0866 59.9444L43.0522 60.2044L45.117 52.5356L44.1514 52.2756ZM41.9592 48.0732C43.6716 48.6907 44.6247 50.5178 44.1514 52.2756L45.117 52.5356C45.7256 50.2756 44.5001 47.9264 42.2984 47.1325L41.9592 48.0732ZM29.3555 48.2435L30.3329 46.0573L29.42 45.6491L28.4426 47.8353L29.3555 48.2435Z" fill="currentColor" />
</svg>