<svg viewBox="0 0 80 80" fill="none">
  <path fill-rule="evenodd" clip-rule="evenodd" d="M32.5284 54.1209L39.5637 48.8063L46.5991 54.1209C45.8027 56.4851 45.9875 59.167 47.3329 61.4973L48.3329 63.2294C50.8182 67.534 56.3225 69.0089 60.6272 66.5236C64.9318 64.0383 66.4067 58.534 63.9214 54.2294L62.9214 52.4973C60.4361 48.1927 54.9318 46.7178 50.6272 49.2031C49.7576 49.7051 49.0035 50.3304 48.3742 51.044L43.5354 45.0142L57.2077 17.1612C57.5587 16.4461 57.2895 15.5813 56.5946 15.1918C55.8998 14.8022 55.0216 15.0238 54.5947 15.6964L39.5637 39.3772L24.5327 15.6964C24.1058 15.0238 23.2277 14.8022 22.5328 15.1918C21.8379 15.5813 21.5688 16.4461 21.9198 17.1612L35.592 45.0142L30.7533 51.044C30.124 50.3304 29.3699 49.7051 28.5003 49.2031C24.1956 46.7178 18.6913 48.1927 16.2061 52.4973L15.2061 54.2294C12.7208 58.534 14.1956 64.0383 18.5003 66.5236C22.8049 69.0089 28.3092 67.534 30.7945 63.2294L31.7945 61.4973C33.1399 59.167 33.3248 56.4851 32.5284 54.1209ZM40.4295 44.5411C40.7056 44.0628 40.5417 43.4513 40.0634 43.1751C40.0055 43.1417 39.9457 43.1147 39.8847 43.0939C39.7816 43.0591 39.6732 43.041 39.5637 43.041C39.4551 43.041 39.3473 43.0588 39.245 43.0932C39.1832 43.114 39.1226 43.1413 39.064 43.1751C38.5857 43.4513 38.4218 44.0628 38.698 44.5411C38.8829 44.8615 39.2184 45.0408 39.5635 45.0413C39.9088 45.0409 40.2444 44.8616 40.4295 44.5411ZM20.5003 63.0595C18.1088 61.6788 17.2894 58.6208 18.6702 56.2294L19.6702 54.4973C21.0509 52.1058 24.1088 51.2865 26.5003 52.6672C28.8917 54.0479 29.7111 57.1058 28.3304 59.4973L27.3304 61.2294C25.9497 63.6208 22.8917 64.4402 20.5003 63.0595ZM58.6272 63.0595C61.0186 61.6788 61.838 58.6208 60.4573 56.2294L59.4573 54.4973C58.0766 52.1058 55.0186 51.2865 52.6272 52.6672C50.2357 54.0479 49.4163 57.1058 50.797 59.4973L51.797 61.2294C53.1777 63.6208 56.2357 64.4402 58.6272 63.0595Z" stroke="currentColor" stroke-linecap="round" stroke-linejoin="round" />
</svg>