<svg viewBox="0 0 80 80" fill="none">
  <path d="M46.9999 52C46.9999 50.8954 46.1045 50 44.9999 50C43.8954 50 42.9999 50.8954 42.9999 52V62C42.9999 63.1046 43.8954 64 44.9999 64H64.9999C66.1045 64 66.9999 63.1046 66.9999 62V52C66.9999 50.8954 66.1045 50 64.9999 50C63.8954 50 62.9999 50.8954 62.9999 52V60H46.9999V52Z" stroke="currentColor" stroke-linecap="round" stroke-linejoin="round" />
  <path fill-rule="evenodd" clip-rule="evenodd" d="M31.9999 8C24.2679 8 17.9999 14.268 17.9999 22V28H11.9374C9.83371 28 8.04653 29.5391 7.73446 31.6196L2.40946 67.1196C2.02403 69.6891 4.01412 72 6.61244 72H73.9999C76.2091 72 77.9999 70.2091 77.9999 68V46C77.9999 43.7909 76.2091 42 73.9999 42H57.8222L56.2651 31.6196C55.953 29.5391 54.1658 28 52.0621 28H45.9999V22C45.9999 14.268 39.7319 8 31.9999 8ZM35.9998 42C35.8617 42 35.7253 42.007 35.5908 42.0207C33.5738 42.2255 31.9998 43.9289 31.9998 46V68H6.61244C6.4596 68 6.34254 67.8641 6.36521 67.7129L11.6902 32.2129C11.7086 32.0905 11.8137 32 11.9374 32H17.9999V38C17.9999 39.1046 18.8954 40 19.9999 40C21.1045 40 21.9999 39.1046 21.9999 38V32H41.9999V38C41.9999 39.1046 42.8954 40 43.9999 40C45.1045 40 45.9999 39.1046 45.9999 38V32H52.0621C52.1859 32 52.291 32.0905 52.3093 32.2129L53.7774 42H35.9998ZM35.9999 68V46H73.9999V68H35.9999ZM41.9999 28V22C41.9999 16.4772 37.5228 12 31.9999 12C26.4771 12 21.9999 16.4772 21.9999 22V28H41.9999Z" stroke="currentColor" stroke-linecap="round" stroke-linejoin="round" />
</svg>