<svg viewBox="0 0 80 80" fill="none">
  <path d="M33.9999 49C35.1045 49 35.9999 49.8954 35.9999 51V65C35.9999 66.1046 35.1045 67 33.9999 67C32.8954 67 31.9999 66.1046 31.9999 65V51C31.9999 49.8954 32.8954 49 33.9999 49Z" stroke="currentColor" stroke-linecap="round" stroke-linejoin="round" />
  <path d="M47.9999 51C47.9999 49.8954 47.1045 49 45.9999 49C44.8954 49 43.9999 49.8954 43.9999 51V65C43.9999 66.1046 44.8954 67 45.9999 67C47.1045 67 47.9999 66.1046 47.9999 65V51Z" stroke="currentColor" stroke-linecap="round" stroke-linejoin="round" />
  <path fill-rule="evenodd" clip-rule="evenodd" d="M33.4999 6C32.1192 6 30.9999 7.11929 30.9999 8.5V12.318C30.9999 14.8858 32.02 17.3485 33.8357 19.1642L34.3179 19.6464C35.3438 20.6723 36.6184 21.3921 37.9999 21.7472V42H29.9999C27.2832 42 24.98 43.9976 24.5958 46.687L21.6723 67.1515C21.1559 70.7661 23.9607 74 27.612 74H52.3879C56.0392 74 58.844 70.7661 58.3276 67.1515L55.4041 46.687C55.0199 43.9976 52.7166 42 49.9999 42H41.9999V21.7472C43.3815 21.3921 44.6561 20.6723 45.6819 19.6464L46.1641 19.1642C47.9799 17.3485 48.9999 14.8858 48.9999 12.318V8.5C48.9999 7.11929 47.8806 6 46.4999 6L33.4999 6ZM39.9999 18C41.0702 18 42.0967 17.5748 42.8535 16.818L43.3357 16.3358C44.4013 15.2702 44.9999 13.825 44.9999 12.318V10L34.9999 10V12.318C34.9999 13.825 35.5986 15.2702 36.6641 16.3358L37.1464 16.818C37.9032 17.5748 38.9296 18 39.9999 18ZM28.5556 47.2527C28.6582 46.5339 29.2738 46 29.9999 46H49.9999C50.726 46 51.3416 46.5339 51.4443 47.2527L54.3678 67.7172C54.5399 68.922 53.605 70 52.3879 70H27.612C26.3949 70 25.4599 68.922 25.6321 67.7172L28.5556 47.2527Z" stroke="currentColor" stroke-linecap="round" stroke-linejoin="round" />
</svg>