<svg viewBox="0 0 80 80" fill="none">
  <path d="M37.512 14.279L38.0359 13.5H37.0971H29.4C28.5716 13.5 27.9 12.8284 27.9 12C27.9 11.1716 28.5716 10.5 29.4 10.5H40.6C41.4284 10.5 42.1 11.1716 42.1 12V12.375C42.1 12.6732 42.0111 12.9646 41.8447 13.212L32.088 27.721L31.5641 28.5H32.5029H41C41.8284 28.5 42.5 29.1716 42.5 30C42.5 30.8284 41.8284 31.5 41 31.5H29C28.1716 31.5 27.5 30.8284 27.5 30V29.625C27.5 29.3268 27.5889 29.0354 27.7553 28.788L37.512 14.279ZM51.1578 47.7116L50.6012 48.5H51.5663H62C62.8284 48.5 63.5 49.1716 63.5 50C63.5 50.8284 62.8284 51.5 62 51.5H48C47.1716 51.5 46.5 50.8284 46.5 50V49.5833C46.5 49.2735 46.5959 48.9712 46.7747 48.7181L58.3755 32.2884L58.9322 31.5H57.967H48.4667C47.6382 31.5 46.9667 30.8284 46.9667 30C46.9667 29.1716 47.6382 28.5 48.4667 28.5H61.5333C62.3618 28.5 63.0333 29.1716 63.0333 30V30.4167C63.0333 30.7265 62.9374 31.0287 62.7587 31.2819L51.1578 47.7116ZM21.0801 65.7077L20.5092 66.5H21.4858H38C38.8284 66.5 39.5 67.1716 39.5 68C39.5 68.8284 38.8284 69.5 38 69.5H18C17.1716 69.5 16.5 68.8284 16.5 68V67.4167C16.5 67.1019 16.599 66.7952 16.783 66.5398L34.2533 42.2923L34.8241 41.5H33.8476H18.6667C17.8382 41.5 17.1667 40.8284 17.1667 40C17.1667 39.1716 17.8382 38.5 18.6667 38.5H37.3333C38.1618 38.5 38.8333 39.1716 38.8333 40V40.5833C38.8333 40.8981 38.7343 41.2048 38.5503 41.4602L21.0801 65.7077Z" stroke="currentColor" />
</svg>