<svg viewBox="0 0 80 80" fill="none">
  <path fill-rule="evenodd" clip-rule="evenodd" d="M42.7912 21.9999C41.2291 20.4378 38.6965 20.4378 37.1344 21.9999L27.9628 31.1715C25.4429 33.6914 27.2276 37.9999 30.7912 37.9999H49.1344C52.698 37.9999 54.4827 33.6914 51.9628 31.1715L42.7912 21.9999ZM39.9628 24.8284L49.1344 33.9999H30.7912L39.9628 24.8284Z" stroke="currentColor" stroke-linecap="round" stroke-linejoin="round" />
  <path fill-rule="evenodd" clip-rule="evenodd" d="M42.7912 57.9999C41.2291 59.562 38.6965 59.562 37.1344 57.9999L27.9628 48.8284C25.4429 46.3085 27.2276 41.9999 30.7912 41.9999H49.1344C52.698 41.9999 54.4827 46.3085 51.9628 48.8284L42.7912 57.9999ZM39.9628 55.1715L49.1344 45.9999H30.7912L39.9628 55.1715Z" stroke="currentColor" stroke-linecap="round" stroke-linejoin="round" />
</svg>