<svg viewBox="0 0 80 80" fill="none">
  <path fill-rule="evenodd" clip-rule="evenodd" d="M40 14C40.8213 14 41.5592 14.5022 41.8605 15.2662L48.3301 31.6699L64.7338 38.1395C65.4978 38.4408 66 39.1787 66 40C66 40.8213 65.4978 41.5592 64.7338 41.8605L48.3301 48.3301L41.8605 64.7338C41.5592 65.4978 40.8213 66 40 66C39.1787 66 38.4408 65.4978 38.1395 64.7338L31.6699 48.3301L15.2662 41.8605C14.5022 41.5592 14 40.8213 14 40C14 39.1787 14.5022 38.4408 15.2662 38.1395L31.6699 31.6699L38.1395 15.2662C38.4408 14.5022 39.1787 14 40 14ZM40 21.4512L35.0723 33.9456C34.869 34.461 34.461 34.869 33.9456 35.0723L21.4512 40L33.9456 44.9277C34.461 45.131 34.869 45.539 35.0723 46.0544L40 58.5488L44.9277 46.0544C45.131 45.539 45.539 45.131 46.0544 44.9277L58.5488 40L46.0544 35.0723C45.539 34.869 45.131 34.461 44.9277 33.9456L40 21.4512Z" stroke="currentColor" stroke-linecap="round" stroke-linejoin="round" />
</svg>