<svg viewBox="0 0 80 80" fill="none">
  <path d="M38.4816 14.4586L37.9816 14.4567L37.9816 14.4567L38.4816 14.4586ZM38.4573 20.7444L38.9573 20.7463L38.9573 20.7463L38.4573 20.7444ZM40.2556 22.5496L40.2556 22.0496L40.2556 22.0496L40.2556 22.5496ZM42.0538 20.7444L41.5538 20.7463L41.5538 20.7463L42.0538 20.7444ZM42.0296 14.4586L42.5295 14.4567L42.5295 14.4567L42.0296 14.4586ZM34.4816 14.4431L34.9816 14.4451L34.9816 14.4451L34.4816 14.4431ZM46.0295 14.4431L46.5295 14.4412L46.5295 14.4412L46.0295 14.4431ZM46.0538 20.7289L45.5538 20.7308L45.5538 20.7308L46.0538 20.7289ZM40.2556 26.5496L40.2556 26.0496L40.2556 26.0496L40.2556 26.5496ZM34.4573 20.7289L33.9574 20.727L33.9574 20.727L34.4573 20.7289ZM26.0867 17.9201L26.4389 17.5651L26.4389 17.5651L26.0867 17.9201ZM30.5486 22.3476L30.1965 22.7025L30.1965 22.7025L30.5486 22.3476ZM30.5645 30.5634L30.9181 30.917L30.9181 30.917L30.5645 30.5634ZM22.3487 30.5476L22.7036 30.1954L22.7036 30.1954L22.3487 30.5476ZM17.9211 26.0856L18.276 25.7335L18.276 25.7335L17.9211 26.0856ZM20.7653 20.7642L21.1189 21.1178L21.1189 21.1178L20.7653 20.7642ZM23.2692 20.7594L22.9171 21.1143L22.9171 21.1143L23.2692 20.7594ZM20.7605 23.2682L20.4055 23.6203L20.4055 23.6203L20.7605 23.2682ZM25.188 27.7301L25.543 27.3779L25.543 27.3779L25.188 27.7301ZM27.7361 27.735L27.3825 27.3814L27.3825 27.3814L27.7361 27.735ZM27.7312 25.187L28.0833 24.832L28.0833 24.832L27.7312 25.187ZM62.5742 17.9359L62.9278 17.5823L62.9278 17.5823L62.5742 17.9359ZM54.4243 17.9201L54.0722 17.5652L54.0722 17.5652L54.4243 17.9201ZM62.5899 26.0857L62.9449 26.4379L62.9449 26.4379L62.5899 26.0857ZM58.1624 30.5476L57.8075 30.1954L57.8075 30.1954L58.1624 30.5476ZM49.9625 22.3477L50.3147 22.7026L50.3147 22.7026L49.9625 22.3477ZM57.2418 20.7595L57.594 21.1144L57.594 21.1144L57.2418 20.7595ZM59.7458 20.7643L59.3922 21.1178L59.3922 21.1178L59.7458 20.7643ZM52.78 25.187L52.4278 24.8321L52.4278 24.8321L52.78 25.187ZM52.775 27.735L53.1286 27.3815L53.1286 27.3815L52.775 27.735ZM55.3231 27.7301L54.9682 27.3779L54.9682 27.3779L55.3231 27.7301ZM59.7506 23.2682L59.3957 22.9161L59.3957 22.9161L59.7506 23.2682ZM20.7289 34.4563L20.727 33.9563L20.727 33.9563L20.7289 34.4563ZM20.7289 46.0527L20.7309 45.5527L20.7309 45.5527L20.7289 46.0527ZM14.443 46.0284L14.4411 46.5284L14.4411 46.5284L14.443 46.0284ZM14.443 34.4805L14.445 34.9805L14.445 34.9805L14.443 34.4805ZM20.7444 38.4562L20.7463 38.9562L20.7463 38.9562L20.7444 38.4562ZM14.4585 38.4805L14.4566 37.9805L14.4566 37.9805L14.4585 38.4805ZM14.4585 42.0285L14.4566 42.5285L14.4566 42.5285L14.4585 42.0285ZM20.7444 42.0527L20.7463 41.5527L20.7463 41.5527L20.7444 42.0527ZM59.7821 34.4563L59.7802 34.9563L59.7821 34.4563ZM66.0681 34.4806L66.0661 34.9806L66.0661 34.9806L66.0681 34.4806ZM66.0681 46.0283L66.0661 45.5284L66.0661 45.5284L66.0681 46.0283ZM59.7821 46.0527L59.7841 46.5527L59.7841 46.5527L59.7821 46.0527ZM59.7667 38.4563L59.7647 38.9563L59.7647 38.9563L59.7667 38.4563ZM59.7667 42.0527L59.7686 42.5527L59.7686 42.5527L59.7667 42.0527ZM66.0526 42.0284L66.0545 42.5284L66.0545 42.5284L66.0526 42.0284ZM66.0526 38.4806L66.0545 37.9806L66.0545 37.9806L66.0526 38.4806ZM58.1634 49.9624L57.8085 50.3146L57.8085 50.3146L58.1634 49.9624ZM62.5911 54.4244L62.2361 54.7766L62.2361 54.7766L62.5911 54.4244ZM62.5753 62.5742L62.9289 62.9278L62.9289 62.9278L62.5753 62.5742ZM54.4255 62.59L54.0733 62.9449L54.0733 62.9449L54.4255 62.59ZM49.9635 58.1624L50.3157 57.8074L49.9635 58.1624ZM52.7761 52.775L52.4225 52.4214L52.4225 52.4214L52.7761 52.775ZM55.3241 52.7799L55.679 52.4277L55.679 52.4277L55.3241 52.7799ZM52.781 55.323L53.1332 54.9681L53.1332 54.9681L52.781 55.323ZM57.243 59.7506L56.8908 60.1056L56.8908 60.1056L57.243 59.7506ZM59.7469 59.7458L59.3933 59.3922L59.3933 59.3922L59.7469 59.7458ZM59.7517 57.2419L59.3968 57.5941L59.3968 57.5941L59.7517 57.2419ZM30.5635 49.9466L30.2099 50.3001L30.2099 50.3001L30.5635 49.9466ZM22.3477 49.9625L21.9928 49.6103L22.3477 49.9625ZM30.5476 58.1624L30.1954 57.8075L30.1954 57.8075L30.5476 58.1624ZM26.0856 62.59L26.4378 62.945L26.4378 62.945L26.0856 62.59ZM17.9358 62.5743L17.5822 62.9279L17.5822 62.9279L17.9358 62.5743ZM17.92 54.4245L18.2749 54.7766L18.2749 54.7766L17.92 54.4245ZM25.187 52.7799L25.5419 53.1321L25.5419 53.1321L25.187 52.7799ZM27.735 52.775L27.3815 53.1286L27.3815 53.1286L27.735 52.775ZM20.7594 57.2419L20.4044 56.8898L20.4044 56.8898L20.7594 57.2419ZM20.7642 59.7459L21.1177 59.3923L21.1177 59.3923L20.7642 59.7459ZM23.2681 59.7507L22.9159 59.3958L22.9159 59.3958L23.2681 59.7507ZM27.7301 55.323L28.0823 55.678L28.0823 55.678L27.7301 55.323ZM34.4574 59.7821L33.9574 59.784L33.9574 59.784L34.4574 59.7821ZM46.0537 59.7821L46.5537 59.784L46.5537 59.784L46.0537 59.7821ZM46.0294 66.0682L45.5294 66.0662L45.5294 66.0662L46.0294 66.0682ZM40.2556 71.8197L40.2556 71.3197H40.2556V71.8197ZM34.4817 66.0682L34.9817 66.0662L34.9817 66.0662L34.4817 66.0682ZM38.4574 59.7666L38.9574 59.7647L38.9574 59.7647L38.4574 59.7666ZM38.4817 66.0527L38.9817 66.0508L38.9817 66.0508L38.4817 66.0527ZM40.2556 67.8197L40.2556 67.3197H40.2556V67.8197ZM42.0295 66.0527L42.5295 66.0546L42.5295 66.0546L42.0295 66.0527ZM42.0538 59.7666L42.5538 59.7686L42.5538 59.7686L42.0538 59.7666ZM38.9816 14.4605C38.9843 13.7589 39.5539 13.1915 40.2556 13.1915V12.1915C39.0031 12.1915 37.9864 13.2042 37.9816 14.4567L38.9816 14.4605ZM38.9573 20.7463L38.9816 14.4605L37.9816 14.4567L37.9573 20.7424L38.9573 20.7463ZM40.2556 22.0496C39.5366 22.0496 38.9545 21.4652 38.9573 20.7463L37.9573 20.7424C37.9524 22.0152 38.9828 23.0496 40.2556 23.0496L40.2556 22.0496ZM41.5538 20.7463C41.5566 21.4652 40.9746 22.0496 40.2556 22.0496V23.0496C41.5283 23.0496 42.5587 22.0152 42.5538 20.7424L41.5538 20.7463ZM41.5296 14.4605L41.5538 20.7463L42.5538 20.7424L42.5295 14.4567L41.5296 14.4605ZM40.2556 13.1915C40.9573 13.1915 41.5268 13.7589 41.5296 14.4605L42.5295 14.4567C42.5247 13.2042 41.508 12.1915 40.2556 12.1915V13.1915ZM40.2556 8.19146C36.8 8.19146 33.995 10.9857 33.9816 14.4412L34.9816 14.4451C34.9928 11.5403 37.3508 9.19146 40.2556 9.19146V8.19146ZM46.5295 14.4412C46.5162 10.9857 43.7111 8.19146 40.2556 8.19146V9.19146C43.1604 9.19146 45.5183 11.5403 45.5295 14.4451L46.5295 14.4412ZM46.5538 20.727L46.5295 14.4412L45.5295 14.4451L45.5538 20.7308L46.5538 20.727ZM40.2556 27.0496C43.7435 27.0496 46.5673 24.2149 46.5538 20.727L45.5538 20.7308C45.5651 23.665 43.1897 26.0496 40.2556 26.0496V27.0496ZM33.9574 20.727C33.9439 24.2149 36.7676 27.0496 40.2556 27.0496L40.2556 26.0496C37.3214 26.0496 34.946 23.665 34.9573 20.7308L33.9574 20.727ZM33.9816 14.4412L33.9574 20.727L34.9573 20.7308L34.9816 14.4451L33.9816 14.4412ZM26.4389 17.5651C23.986 15.1311 20.0268 15.1388 17.5833 17.5822L18.2904 18.2893C20.3444 16.2353 23.6726 16.2289 25.7345 18.275L26.4389 17.5651ZM30.9008 21.9927L26.4389 17.5651L25.7345 18.275L30.1965 22.7025L30.9008 21.9927ZM30.9181 30.917C33.3844 28.4506 33.3767 24.4495 30.9008 21.9927L30.1965 22.7025C32.2792 24.7693 32.2857 28.1351 30.2109 30.2099L30.9181 30.917ZM21.9938 30.8997C24.4506 33.3756 28.4517 33.3833 30.9181 30.917L30.211 30.2099C28.1362 32.2846 24.7704 32.2781 22.7036 30.1954L21.9938 30.8997ZM17.5662 26.4378L21.9938 30.8997L22.7036 30.1954L18.276 25.7335L17.5662 26.4378ZM17.5833 17.5822C15.1399 20.0257 15.1322 23.9849 17.5662 26.4378L18.276 25.7335C16.23 23.6715 16.2364 20.3433 18.2904 18.2893L17.5833 17.5822ZM21.1189 21.1178C21.615 20.6216 22.419 20.6201 22.9171 21.1143L23.6214 20.4045C22.7324 19.5223 21.2974 19.525 20.4117 20.4107L21.1189 21.1178ZM21.1154 22.916C20.6211 22.4179 20.6227 21.6139 21.1189 21.1178L20.4117 20.4107C19.5261 21.2963 19.5234 22.7313 20.4055 23.6203L21.1154 22.916ZM25.543 27.3779L21.1154 22.916L20.4055 23.6203L24.8331 28.0823L25.543 27.3779ZM27.3825 27.3814C26.8741 27.8898 26.0494 27.8882 25.543 27.3779L24.8331 28.0823C25.7296 28.9857 27.1896 28.9885 28.0896 28.0885L27.3825 27.3814ZM27.379 25.5419C27.8893 26.0483 27.8909 26.873 27.3825 27.3814L28.0896 28.0885C28.9896 27.1886 28.9868 25.7285 28.0833 24.832L27.379 25.5419ZM22.9171 21.1143L27.379 25.5419L28.0833 24.832L23.6214 20.4045L22.9171 21.1143ZM62.9278 17.5823C60.4843 15.1389 56.525 15.1312 54.0722 17.5652L54.7765 18.275C56.8384 16.229 60.1666 16.2354 62.2206 18.2894L62.9278 17.5823ZM62.9449 26.4379C65.3789 23.985 65.3712 20.0258 62.9278 17.5823L62.2206 18.2894C64.2746 20.3434 64.2811 23.6716 62.235 25.7335L62.9449 26.4379ZM58.5173 30.8998L62.9449 26.4379L62.235 25.7335L57.8075 30.1954L58.5173 30.8998ZM49.5931 30.917C52.0594 33.3833 56.0605 33.3756 58.5173 30.8998L57.8075 30.1954C55.7408 32.2781 52.3749 32.2846 50.3002 30.2099L49.5931 30.917ZM49.6103 21.9927C47.1344 24.4495 47.1267 28.4507 49.5931 30.917L50.3002 30.2099C48.2254 28.1351 48.2319 24.7693 50.3147 22.7026L49.6103 21.9927ZM54.0722 17.5652L49.6103 21.9927L50.3147 22.7026L54.7765 18.275L54.0722 17.5652ZM57.594 21.1144C58.0921 20.6201 58.8961 20.6217 59.3922 21.1178L60.0993 20.4107C59.2137 19.5251 57.7787 19.5223 56.8896 20.4045L57.594 21.1144ZM53.1322 25.5419L57.594 21.1144L56.8896 20.4045L52.4278 24.8321L53.1322 25.5419ZM53.1286 27.3815C52.6202 26.8731 52.6218 26.0483 53.1322 25.5419L52.4278 24.8321C51.5243 25.7286 51.5215 27.1886 52.4215 28.0886L53.1286 27.3815ZM54.9682 27.3779C54.4617 27.8883 53.637 27.8899 53.1286 27.3815L52.4215 28.0886C53.3215 28.9886 54.7815 28.9857 55.678 28.0823L54.9682 27.3779ZM59.3957 22.9161L54.9682 27.3779L55.678 28.0823L60.1055 23.6204L59.3957 22.9161ZM59.3922 21.1178C59.8884 21.614 59.8899 22.418 59.3957 22.9161L60.1055 23.6204C60.9877 22.7314 60.9849 21.2964 60.0993 20.4107L59.3922 21.1178ZM27.0496 40.2545C27.0496 36.7665 24.2149 33.9428 20.727 33.9563L20.7309 34.9563C23.665 34.9449 26.0496 37.3203 26.0496 40.2545H27.0496ZM20.727 46.5527C24.2149 46.5662 27.0496 43.7424 27.0496 40.2545H26.0496C26.0496 43.1886 23.665 45.564 20.7309 45.5527L20.727 46.5527ZM14.4411 46.5284L20.727 46.5527L20.7309 45.5527L14.445 45.5284L14.4411 46.5284ZM8.19136 40.2545C8.19136 43.7101 10.9856 46.5151 14.4411 46.5284L14.445 45.5284C11.5402 45.5172 9.19136 43.1593 9.19136 40.2545H8.19136ZM14.4411 33.9806C10.9856 33.9939 8.19136 36.7989 8.19136 40.2545H9.19136C9.19136 37.3497 11.5402 34.9918 14.445 34.9805L14.4411 33.9806ZM20.727 33.9563L14.4411 33.9806L14.445 34.9805L20.7309 34.9563L20.727 33.9563ZM20.7463 38.9562C21.4653 38.9535 22.0496 39.5355 22.0496 40.2545H23.0496C23.0496 38.9817 22.0152 37.9513 20.7425 37.9562L20.7463 38.9562ZM14.4604 38.9805L20.7463 38.9562L20.7425 37.9562L14.4566 37.9805L14.4604 38.9805ZM13.1914 40.2545C13.1914 39.5528 13.7587 38.9832 14.4604 38.9805L14.4566 37.9805C13.2041 37.9854 12.1914 39.002 12.1914 40.2545H13.1914ZM14.4604 41.5285C13.7587 41.5258 13.1914 40.9562 13.1914 40.2545H12.1914C12.1914 41.5069 13.2041 42.5236 14.4566 42.5285L14.4604 41.5285ZM20.7463 41.5527L14.4604 41.5285L14.4566 42.5285L20.7425 42.5527L20.7463 41.5527ZM22.0496 40.2545C22.0496 40.9735 21.4653 41.5555 20.7463 41.5527L20.7425 42.5527C22.0152 42.5577 23.0496 41.5273 23.0496 40.2545H22.0496ZM59.7841 33.9563C56.2962 33.9428 53.4615 36.7666 53.4615 40.2545H54.4615C54.4615 37.3204 56.8461 34.945 59.7802 34.9563L59.7841 33.9563ZM66.07 33.9806L59.7841 33.9563L59.7802 34.9563L66.0661 34.9806L66.07 33.9806ZM72.3196 40.2545C72.3196 36.799 69.5255 33.994 66.07 33.9806L66.0661 34.9806C68.9708 34.9919 71.3196 37.3498 71.3196 40.2545H72.3196ZM66.07 46.5283C69.5255 46.515 72.3196 43.71 72.3196 40.2545H71.3196C71.3196 43.1592 68.9708 45.5171 66.0661 45.5284L66.07 46.5283ZM59.7841 46.5527L66.07 46.5283L66.0661 45.5284L59.7802 45.5527L59.7841 46.5527ZM53.4615 40.2545C53.4615 43.7424 56.2962 46.5661 59.7841 46.5527L59.7802 45.5527C56.8461 45.564 54.4615 43.1886 54.4615 40.2545H53.4615ZM58.4615 40.2545C58.4615 39.5355 59.0458 38.9535 59.7647 38.9563L59.7686 37.9563C58.4959 37.9514 57.4615 38.9817 57.4615 40.2545H58.4615ZM59.7647 41.5527C59.0458 41.5555 58.4615 40.9734 58.4615 40.2545H57.4615C57.4615 41.5272 58.4959 42.5576 59.7686 42.5527L59.7647 41.5527ZM66.0507 41.5284L59.7647 41.5527L59.7686 42.5527L66.0545 42.5284L66.0507 41.5284ZM67.3196 40.2545C67.3196 40.9561 66.7523 41.5257 66.0507 41.5284L66.0545 42.5284C67.3069 42.5235 68.3196 41.5069 68.3196 40.2545H67.3196ZM66.0507 38.9806C66.7523 38.9833 67.3196 39.5529 67.3196 40.2545H68.3196C68.3196 39.0021 67.3069 37.9854 66.0545 37.9806L66.0507 38.9806ZM59.7647 38.9563L66.0507 38.9806L66.0545 37.9806L59.7686 37.9563L59.7647 38.9563ZM58.5184 49.6102C56.0616 47.1344 52.0604 47.1267 49.5941 49.593L50.3012 50.3001C52.376 48.2254 55.7418 48.2319 57.8085 50.3146L58.5184 49.6102ZM62.946 54.0722L58.5184 49.6102L57.8085 50.3146L62.2361 54.7766L62.946 54.0722ZM62.9289 62.9278C65.3723 60.4843 65.38 56.5251 62.946 54.0722L62.2361 54.7766C64.2822 56.8385 64.2758 60.1667 62.2218 62.2207L62.9289 62.9278ZM54.0733 62.9449C56.5262 65.3789 60.4854 65.3712 62.9289 62.9278L62.2218 62.2207C60.1678 64.2747 56.8396 64.2811 54.7777 62.2351L54.0733 62.9449ZM49.6113 58.5173L54.0733 62.9449L54.7777 62.2351L50.3157 57.8074L49.6113 58.5173ZM49.5941 49.593C47.1277 52.0594 47.1355 56.0605 49.6113 58.5173L50.3157 57.8074C48.233 55.7407 48.2264 52.3749 50.3012 50.3001L49.5941 49.593ZM53.1296 53.1285C53.638 52.6202 54.4628 52.6217 54.9692 53.1321L55.679 52.4277C54.7825 51.5243 53.3225 51.5215 52.4225 52.4214L53.1296 53.1285ZM53.1332 54.9681C52.6228 54.4617 52.6212 53.6369 53.1296 53.1285L52.4225 52.4214C51.5225 53.3214 51.5254 54.7814 52.4288 55.6779L53.1332 54.9681ZM57.5951 59.3957L53.1332 54.9681L52.4288 55.6779L56.8908 60.1056L57.5951 59.3957ZM59.3933 59.3922C58.8972 59.8884 58.0932 59.89 57.5951 59.3957L56.8908 60.1056C57.7798 60.9877 59.2148 60.985 60.1004 60.0994L59.3933 59.3922ZM59.3968 57.5941C59.8911 58.0921 59.8895 58.8961 59.3933 59.3922L60.1004 60.0994C60.9861 59.2137 60.9888 57.7787 60.1066 56.8897L59.3968 57.5941ZM54.9692 53.1321L59.3968 57.5941L60.1066 56.8897L55.679 52.4277L54.9692 53.1321ZM30.917 49.593C28.4507 47.1267 24.4496 47.1344 21.9928 49.6103L22.7026 50.3146C24.7693 48.2319 28.1352 48.2254 30.2099 50.3001L30.917 49.593ZM30.8998 58.5173C33.3756 56.0605 33.3834 52.0594 30.917 49.593L30.2099 50.3001C32.2847 52.3749 32.2782 55.7407 30.1954 57.8075L30.8998 58.5173ZM26.4378 62.945L30.8998 58.5173L30.1954 57.8075L25.7334 62.2351L26.4378 62.945ZM17.5822 62.9279C20.0257 65.3713 23.9849 65.379 26.4378 62.945L25.7334 62.2351C23.6715 64.2812 20.3433 64.2747 18.2893 62.2208L17.5822 62.9279ZM17.5651 54.0723C15.1311 56.5251 15.1388 60.4844 17.5822 62.9279L18.2893 62.2208C16.2353 60.1668 16.2289 56.8386 18.2749 54.7766L17.5651 54.0723ZM21.9928 49.6103L17.5651 54.0723L18.2749 54.7766L22.7026 50.3146L21.9928 49.6103ZM25.5419 53.1321C26.0484 52.6218 26.8731 52.6202 27.3815 53.1286L28.0886 52.4215C27.1886 51.5215 25.7286 51.5243 24.8321 52.4278L25.5419 53.1321ZM21.1143 57.5941L25.5419 53.1321L24.8321 52.4278L20.4044 56.8898L21.1143 57.5941ZM21.1177 59.3923C20.6216 58.8962 20.62 58.0922 21.1143 57.5941L20.4044 56.8898C19.5222 57.7788 19.525 59.2138 20.4106 60.0994L21.1177 59.3923ZM22.9159 59.3958C22.4179 59.89 21.6139 59.8885 21.1177 59.3923L20.4106 60.0994C21.2963 60.9851 22.7313 60.9878 23.6203 60.1056L22.9159 59.3958ZM27.3779 54.9681L22.9159 59.3958L23.6203 60.1056L28.0823 55.678L27.3779 54.9681ZM27.3815 53.1286C27.8899 53.637 27.8883 54.4617 27.3779 54.9681L28.0823 55.678C28.9858 54.7815 28.9886 53.3214 28.0886 52.4215L27.3815 53.1286ZM40.2556 53.4615C36.7677 53.4615 33.9439 56.2962 33.9574 59.784L34.9574 59.7802C34.9461 56.8461 37.3214 54.4615 40.2556 54.4615V53.4615ZM46.5537 59.784C46.5672 56.2961 43.7435 53.4615 40.2556 53.4615V54.4615C43.1897 54.4615 45.5651 56.8461 45.5537 59.7802L46.5537 59.784ZM46.5294 66.0701L46.5537 59.784L45.5537 59.7802L45.5294 66.0662L46.5294 66.0701ZM40.2556 72.3197C43.7111 72.3198 46.5161 69.5256 46.5294 66.0701L45.5294 66.0662C45.5182 68.971 43.1603 71.3197 40.2556 71.3197L40.2556 72.3197ZM33.9817 66.0701C33.9951 69.5256 36.8001 72.3197 40.2556 72.3197V71.3197C37.3508 71.3197 34.9929 68.971 34.9817 66.0662L33.9817 66.0701ZM33.9574 59.784L33.9817 66.0701L34.9817 66.0662L34.9574 59.7802L33.9574 59.784ZM38.9574 59.7647C38.9546 59.0458 39.5366 58.4615 40.2556 58.4615V57.4615C38.9828 57.4615 37.9525 58.4958 37.9574 59.7686L38.9574 59.7647ZM38.9817 66.0508L38.9574 59.7647L37.9574 59.7686L37.9817 66.0546L38.9817 66.0508ZM40.2556 67.3197C39.5539 67.3197 38.9844 66.7524 38.9817 66.0508L37.9817 66.0546C37.9865 67.307 39.0032 68.3197 40.2556 68.3197V67.3197ZM41.5295 66.0508C41.5268 66.7524 40.9572 67.3197 40.2556 67.3197L40.2556 68.3197C41.508 68.3198 42.5246 67.307 42.5295 66.0546L41.5295 66.0508ZM41.5538 59.7647L41.5295 66.0508L42.5295 66.0546L42.5538 59.7686L41.5538 59.7647ZM40.2556 58.4615C40.9745 58.4615 41.5566 59.0458 41.5538 59.7647L42.5538 59.7686C42.5587 58.4958 41.5283 57.4615 40.2556 57.4615V58.4615Z" fill="currentColor" />
</svg>