<svg viewBox="0 0 80 80" fill="none">
  <path fill-rule="evenodd" clip-rule="evenodd" d="M28.7162 38.2836C29.3544 38.0192 30.0839 38.1029 30.6456 38.505L40.1967 45.3405L49.7479 38.505C50.3096 38.1029 51.0391 38.0192 51.6772 38.2836C52.3154 38.5479 52.772 39.1229 52.885 39.8044L54.8052 51.3915L66.3924 53.3117C67.0738 53.4247 67.6488 53.8813 67.9131 54.5195C68.1775 55.1577 68.0938 55.8871 67.6918 56.4488L62.1935 64.1313H72C73.1046 64.1313 74 65.0268 74 66.1313C74 67.2359 73.1046 68.1313 72 68.1313H8C6.89543 68.1313 6 67.2359 6 66.1313C6 65.0268 6.89543 64.1313 8 64.1313H18.2L12.7017 56.4488C12.2997 55.8871 12.216 55.1577 12.4804 54.5195C12.7447 53.8813 13.3197 53.4247 14.0011 53.3117L25.5883 51.3915L27.5085 39.8044C27.6215 39.1229 28.0781 38.5479 28.7162 38.2836ZM46.9326 59.9013C47.9888 61.0678 48.718 62.4819 49.0606 64.0001H31.333C31.7082 62.3373 32.5471 60.7993 33.7716 59.5748C35.4757 57.8708 37.7869 56.9135 40.1968 56.9135C40.7992 56.9135 41.3955 56.9733 41.9777 57.0896C43.7243 57.4388 45.3439 58.2968 46.6219 59.5748C46.7284 59.6813 46.832 59.7902 46.9326 59.9013ZM49.4503 56.7464C47.6098 54.9058 45.2774 53.6701 42.762 53.1673C41.9235 52.9996 41.0646 52.9134 40.1968 52.9134C36.726 52.9134 33.3974 54.2922 30.9432 56.7464C28.9654 58.7241 27.686 61.2698 27.2639 64H23.0249L17.8238 56.7328L27.6544 55.1037C28.4988 54.9638 29.1606 54.302 29.3005 53.4576L30.9296 43.6271L39.0328 49.4264C39.7288 49.9245 40.6647 49.9245 41.3607 49.4264L49.4639 43.6271L51.093 53.4576C51.2329 54.302 51.8947 54.9638 52.7391 55.1037L62.5697 56.7328L57.3686 64H53.1296C52.7075 61.2698 51.4281 58.7241 49.4503 56.7464Z" stroke="currentColor" stroke-linecap="round" stroke-linejoin="round" />
  <path fill-rule="evenodd" clip-rule="evenodd" d="M41.9987 26H46.4645C49.551 26 51.0967 29.7317 48.9142 31.9142L43.182 37.6464C41.4246 39.4038 38.5754 39.4038 36.818 37.6464L31.0858 31.9142C28.9033 29.7317 30.449 26 33.5355 26H37.9987V13.9998C37.9987 12.8952 38.8941 11.9998 39.9987 11.9998C41.1032 11.9998 41.9987 12.8952 41.9987 13.9998V26ZM34.8284 30L39.6464 34.818C39.8417 35.0132 40.1583 35.0132 40.3536 34.818L45.1716 30H34.8284Z" stroke="currentColor" stroke-linecap="round" stroke-linejoin="round" />
</svg>