<svg viewBox="0 0 80 80" fill="none">
  <path d="M36.5281 34.8885C29.4574 29.585 19.383 31.3107 14.4805 38.6651L14.3358 38.882C13.7232 39.8011 13.9715 41.0428 14.8906 41.6555C15.8097 42.2682 17.0514 42.0198 17.6641 41.1007L17.8087 40.8838C21.4375 35.4402 28.8944 34.1629 34.128 38.0884L43.5014 45.1189C50.5546 50.4091 60.6037 48.6887 65.4954 41.3536L65.6639 41.101C66.2767 40.1821 66.0286 38.9403 65.1096 38.3274C64.1907 37.7146 62.9489 37.9627 62.336 38.8817L62.1676 39.1343C58.5498 44.5591 51.1178 45.8314 45.9016 41.919L36.5281 34.8885Z" stroke="currentColor" stroke-linecap="round" stroke-linejoin="round" />
</svg>