<svg viewBox="0 0 80 80" fill="none">
  <path fill-rule="evenodd" clip-rule="evenodd" d="M40 45C37.2386 45 35 47.2386 35 50C35 52.7614 37.2386 55 40 55C42.7614 55 45 52.7614 45 50C45 47.2386 42.7614 45 40 45ZM39 50C39 49.4477 39.4477 49 40 49C40.5523 49 41 49.4477 41 50C41 50.5523 40.5523 51 40 51C39.4477 51 39 50.5523 39 50Z" stroke="currentColor" stroke-linecap="round" stroke-linejoin="round" />
  <path fill-rule="evenodd" clip-rule="evenodd" d="M66 23.9224C66 19.8071 64.1793 15.9025 61.0267 13.2572C58.5193 11.1533 55.3508 10 52.0775 10H27.9225C24.6492 10 21.4807 11.1533 18.9733 13.2572C15.8207 15.9025 14 19.8071 14 23.9225V48.0728C14 52.1882 15.8207 56.0927 18.9733 58.738C20.6124 60.1134 22.5341 61.0825 24.5828 61.5888L19.5858 66.5858C18.8047 67.3668 18.8047 68.6332 19.5858 69.4142C20.3668 70.1953 21.6332 70.1953 22.4142 69.4142L29.8332 61.9952H50.1668L57.5858 69.4142C58.3668 70.1953 59.6332 70.1953 60.4142 69.4142C61.1953 68.6332 61.1953 67.3668 60.4142 66.5858L55.4172 61.5888C57.4659 61.0825 59.3876 60.1134 61.0267 58.738C64.1793 56.0927 66 52.1882 66 48.0728V23.9224ZM21.5444 16.3214C23.3314 14.8219 25.5897 14 27.9225 14H52.0775C54.4103 14 56.6686 14.8219 58.4556 16.3214C60.2037 17.7883 61.3773 19.7985 61.8121 22H18.1879C18.6227 19.7985 19.7963 17.7883 21.5444 16.3214ZM18 48.0728V42H62V48.0728C62 51.0058 60.7024 53.7885 58.4556 55.6738C56.6686 57.1733 54.4103 57.9952 52.0775 57.9952H27.9225C25.5897 57.9952 23.3314 57.1733 21.5444 55.6738C19.2976 53.7885 18 51.0058 18 48.0728ZM62 26V38H18V26H62Z" stroke="currentColor" stroke-linecap="round" stroke-linejoin="round" />
</svg>