<svg viewBox="0 0 80 80" fill="none">
  <path fill-rule="evenodd" clip-rule="evenodd" d="M12 18C8.68629 18 6 20.6863 6 24V56C6 59.3137 8.68629 62 12 62H50C53.3137 62 56 59.3137 56 56V51.0775L68.3754 56.5777C71.0206 57.7533 74 55.8171 74 52.9225V27.0775C74 24.1829 71.0206 22.2467 68.3754 23.4223L56 28.9225V24C56 20.6863 53.3137 18 50 18H12ZM56 33.2997V46.7003L70 52.9225V27.0775L56 33.2997ZM52 24C52 22.8954 51.1046 22 50 22H12C10.8954 22 10 22.8954 10 24V56C10 57.1046 10.8954 58 12 58H50C51.1046 58 52 57.1046 52 56V24Z" stroke="currentColor" stroke-linecap="round" stroke-linejoin="round" />
</svg>