<svg viewBox="0 0 80 80" fill="none">
  <path d="M46.531 29.5685C42.2399 28.5891 37.7833 28.5891 33.4922 29.5685C29.2011 30.548 25.1858 32.4816 21.7446 35.2259C19.8409 36.744 18.14 38.4887 16.6768 40.416C16.0089 41.2957 16.1806 42.5504 17.0603 43.2183C17.9401 43.8862 19.1947 43.7145 19.8626 42.8347C21.1261 41.1705 22.5948 39.6641 24.2386 38.3532C27.21 35.9836 30.677 34.314 34.3823 33.4683C38.0875 32.6226 41.9357 32.6226 45.641 33.4683C49.3462 34.314 52.8133 35.9836 55.7847 38.3532C57.4277 39.6635 58.8959 41.1693 60.159 42.8326C60.827 43.7123 62.0817 43.8839 62.9613 43.2159C63.841 42.5479 64.0126 41.2932 63.3446 40.4135C61.8818 38.4872 60.1815 36.7434 58.2786 35.2259C54.8374 32.4816 50.8221 30.548 46.531 29.5685Z" stroke="currentColor" stroke-linecap="round" stroke-linejoin="round" />
  <path d="M43.9278 42.9744C41.3502 42.3861 38.6732 42.3861 36.0956 42.9744C33.518 43.5628 31.1061 44.7243 29.039 46.3727C27.5269 47.5786 26.2277 49.0224 25.1901 50.6432C24.5945 51.5734 24.8659 52.8104 25.7961 53.4059C26.7264 54.0015 27.9633 53.7301 28.5588 52.7999C29.3607 51.5475 30.3645 50.4318 31.533 49.5C33.1302 48.2263 34.9939 47.3288 36.9857 46.8742C38.9774 46.4196 41.046 46.4196 43.0377 46.8742C45.0295 47.3288 46.8932 48.2263 48.4905 49.5C49.6582 50.4313 50.6616 51.5461 51.4631 52.7976C52.0589 53.7278 53.2958 53.9989 54.226 53.4031C55.1561 52.8074 55.4272 51.5704 54.8315 50.6403C53.7941 49.0206 52.4956 47.5779 50.9844 46.3727C48.9173 44.7243 46.5054 43.5628 43.9278 42.9744Z" stroke="currentColor" stroke-linecap="round" stroke-linejoin="round" />
  <path fill-rule="evenodd" clip-rule="evenodd" d="M40.0039 54C36.6902 54 34.0039 56.6863 34.0039 60C34.0039 63.3137 36.6902 66 40.0039 66C43.3176 66 46.0039 63.3137 46.0039 60C46.0039 56.6863 43.3176 54 40.0039 54ZM38.0039 60C38.0039 58.8954 38.8993 58 40.0039 58C41.1085 58 42.0039 58.8954 42.0039 60C42.0039 61.1046 41.1085 62 40.0039 62C38.8993 62 38.0039 61.1046 38.0039 60Z" stroke="currentColor" stroke-linecap="round" stroke-linejoin="round" />
</svg>