<svg viewBox="0 0 80 80" fill="none">
  <path d="M46.5311 29.5685C42.24 28.5891 37.7834 28.5891 33.4923 29.5685C29.2012 30.548 25.1859 32.4816 21.7447 35.2259C19.841 36.744 18.1401 38.4887 16.6768 40.416C16.0089 41.2957 16.1806 42.5504 17.0604 43.2183C17.9401 43.8862 19.1948 43.7145 19.8627 42.8347C21.1262 41.1705 22.5949 39.6641 24.2386 38.3532C27.21 35.9836 30.6771 34.314 34.3824 33.4683C38.0876 32.6226 41.9358 32.6226 45.641 33.4683C49.3463 34.314 52.8133 35.9836 55.7847 38.3532C57.4278 39.6635 58.896 41.1693 60.1591 42.8326C60.8271 43.7123 62.0817 43.8839 62.9614 43.2159C63.8411 42.5479 64.0127 41.2932 63.3447 40.4135C61.8819 38.4872 60.1816 36.7434 58.2787 35.2259C54.8375 32.4816 50.8222 30.548 46.5311 29.5685Z" stroke="currentColor" stroke-linecap="round" stroke-linejoin="round" />
  <path d="M43.9279 42.9744C41.3503 42.3861 38.6733 42.3861 36.0957 42.9744C33.5181 43.5628 31.1061 44.7243 29.0391 46.3727C27.5269 47.5786 26.2278 49.0224 25.1901 50.6432C24.5946 51.5734 24.8659 52.8104 25.7962 53.4059C26.7264 54.0015 27.9634 53.7301 28.5589 52.7999C29.3607 51.5475 30.3646 50.4318 31.533 49.5C33.1303 48.2263 34.994 47.3288 36.9857 46.8742C38.9775 46.4196 41.0461 46.4196 43.0378 46.8742C45.0295 47.3288 46.8933 48.2263 48.4905 49.5C49.6582 50.4313 50.6616 51.5461 51.4632 52.7976C52.0589 53.7278 53.2959 53.9989 54.226 53.4031C55.1562 52.8074 55.4273 51.5704 54.8315 50.6403C53.7942 49.0206 52.4957 47.5779 50.9845 46.3727C48.9174 44.7243 46.5055 43.5628 43.9279 42.9744Z" stroke="currentColor" stroke-linecap="round" stroke-linejoin="round" />
  <path fill-rule="evenodd" clip-rule="evenodd" d="M40.0039 54C36.6902 54 34.0039 56.6863 34.0039 60C34.0039 63.3137 36.6902 66 40.0039 66C43.3177 66 46.0039 63.3137 46.0039 60C46.0039 56.6863 43.3177 54 40.0039 54ZM38.0039 60C38.0039 58.8954 38.8994 58 40.0039 58C41.1085 58 42.0039 58.8954 42.0039 60C42.0039 61.1046 41.1085 62 40.0039 62C38.8994 62 38.0039 61.1046 38.0039 60Z" stroke="currentColor" stroke-linecap="round" stroke-linejoin="round" />
</svg>