<svg viewBox="0 0 80 80" fill="none">
  <path d="M43.9279 42.9744C41.3503 42.3861 38.6732 42.3861 36.0956 42.9744C33.518 43.5628 31.1061 44.7243 29.0391 46.3727C27.5269 47.5786 26.2278 49.0224 25.1901 50.6432C24.5946 51.5734 24.8659 52.8103 25.7962 53.4059C26.7264 54.0015 27.9633 53.7301 28.5589 52.7999C29.3607 51.5475 30.3646 50.4318 31.533 49.5C33.1303 48.2263 34.994 47.3288 36.9857 46.8742C38.9775 46.4196 41.046 46.4196 43.0378 46.8742C45.0295 47.3288 46.8932 48.2263 48.4905 49.5C49.6582 50.4313 50.6616 51.5461 51.4632 52.7976C52.0589 53.7278 53.2959 53.9989 54.226 53.4031C55.1562 52.8074 55.4273 51.5704 54.8315 50.6403C53.7942 49.0206 52.4957 47.5779 50.9845 46.3727C48.9174 44.7243 46.5055 43.5628 43.9279 42.9744Z" stroke="currentColor" stroke-linecap="round" stroke-linejoin="round" />
  <path fill-rule="evenodd" clip-rule="evenodd" d="M40.0039 54C36.6902 54 34.0039 56.6863 34.0039 60C34.0039 63.3137 36.6902 66 40.0039 66C43.3176 66 46.0039 63.3137 46.0039 60C46.0039 56.6863 43.3176 54 40.0039 54ZM38.0039 60C38.0039 58.8954 38.8994 58 40.0039 58C41.1085 58 42.0039 58.8954 42.0039 60C42.0039 61.1046 41.1085 62 40.0039 62C38.8994 62 38.0039 61.1046 38.0039 60Z" stroke="currentColor" stroke-linecap="round" stroke-linejoin="round" />
</svg>