<svg viewBox="0 0 80 80" fill="none">
  <path fill-rule="evenodd" clip-rule="evenodd" d="M49.5176 15.7806C43.2825 14.1099 36.7174 14.1099 30.4823 15.7806C24.2472 17.4513 18.5617 20.7338 13.9973 25.2982C11.6649 27.6306 9.66732 30.2556 8.04843 33.0971C7.90905 33.3417 7.82617 33.6061 7.79752 33.8733C7.78089 34.0284 7.78254 34.1845 7.80202 34.3384C7.85636 34.7676 8.04954 35.179 8.37197 35.5014L37.1715 64.3009C38.3431 65.4725 40.0606 65.7654 41.5051 65.1796C41.9867 64.9843 42.4378 64.6914 42.8284 64.3009L71.6279 35.5014C72.265 34.8643 72.3974 33.8799 71.9515 33.0971C70.3326 30.2556 68.3349 27.6306 66.0026 25.2982C62.3741 21.6698 58.0372 18.8513 53.2788 17.0088C52.0515 16.5335 50.7961 16.1232 49.5176 15.7806ZM52.5502 21.0258C51.2301 20.4786 49.8715 20.0166 48.4823 19.6443C42.9254 18.1554 37.0745 18.1554 31.5176 19.6443C25.9607 21.1333 20.8936 24.0588 16.8257 28.1267C15.1076 29.8448 13.5932 31.7412 12.3049 33.7774L39.9999 61.4725L67.695 33.7774C66.5677 31.9957 65.2674 30.3211 63.8089 28.7793C63.6005 28.559 63.389 28.3414 63.1742 28.1267C60.1232 25.0757 56.5103 22.6674 52.5502 21.0258Z" stroke="currentColor" stroke-linecap="round" stroke-linejoin="round" />
</svg>