<svg viewBox="0 0 80 80" fill="none">
  <path d="M54.3359 14.8908C54.9486 13.9718 56.1903 13.7234 57.1094 14.3361C58.0284 14.9488 58.2768 16.1906 57.6641 17.1096L42.4037 40.0002L57.6641 62.8908C58.2768 63.8099 58.0284 65.0516 57.1094 65.6643C56.1903 66.277 54.9486 66.0287 54.3359 65.1096L40 43.6058L25.6641 65.1096C25.0514 66.0287 23.8096 66.277 22.8906 65.6643C21.9715 65.0516 21.7232 63.8099 22.3359 62.8908L37.5963 40.0002L22.3359 17.1096C21.7232 16.1906 21.9715 14.9488 22.8906 14.3361C23.8096 13.7234 25.0514 13.9718 25.6641 14.8908L40 36.3947L54.3359 14.8908Z" stroke="currentColor" stroke-linecap="round" stroke-linejoin="round" />
</svg>