<svg viewBox="0 0 120 80" fill="none">
  <g clip-path="url(#clip0)">
    <path d="M120 0H0V80H120V0Z" fill="#EB5757" />
    <path d="M39.9991 0H0V80H39.9991V0Z" fill="#333333" />
    <path d="M120 0H80.0009V80H120V0Z" fill="#219653" />
    <path opacity="0.75" d="M72 19.2154C76.5754 21.857 80.1513 25.9345 82.1731 30.8156C84.1949 35.6967 84.5496 41.1085 83.1822 46.2117C81.8148 51.3149 78.8017 55.8243 74.6103 59.0405C70.4188 62.2567 65.2832 64 60 64C54.7168 64 49.5812 62.2567 45.3897 59.0405C41.1983 55.8243 38.1852 51.3149 36.8178 46.2117C35.4504 41.1085 35.8051 35.6967 37.8269 30.8156C39.8487 25.9345 43.4246 21.857 48 19.2154" stroke="#F2F2F2" stroke-width="8" />
    <circle opacity="0.75" cx="60" cy="40" r="10" fill="#F2F2F2" />
  </g>
  <defs>
    <clipPath id="clip0">
      <rect width="120" height="80" fill="white" />
    </clipPath>
  </defs>
</svg>