<svg viewBox="0 0 120 80" fill="none">
  <g clip-path="url(#clip0)">
    <path d="M120 0H0V80H120V0Z" fill="#F2C94C" />
    <path d="M40 0H0V80H40V0Z" fill="#2F80ED" />
    <path d="M120 0H80.001V80H120V0Z" fill="#EB5757" />
    <rect x="48" y="30" width="24" height="28" fill="#EB5757" />
    <rect x="60" y="44" width="12" height="14" fill="#F2C94C" />
    <circle cx="54" cy="37" r="5" fill="#F2C94C" />
    <path fill-rule="evenodd" clip-rule="evenodd" d="M64 26C64 26.5305 63.8967 27.0368 63.7092 27.5H68.0309C68.277 25.5268 69.9602 24 72 24C74.2091 24 76 25.7909 76 28C76 29.2632 75.4145 30.3896 74.5 31.1227V32.0309C76.4732 32.277 78 33.9602 78 36C78 38.0398 76.4732 39.723 74.5 39.9691V50C74.5 50.6013 74.4495 51.1908 74.3524 51.7645C75.351 52.4918 76 53.6701 76 55C76 57.2091 74.2091 59 72 59C71.3209 59 70.6813 58.8308 70.1212 58.5322C68.3979 59.7707 66.2841 60.5 64 60.5H63.7092C63.8967 60.9632 64 61.4696 64 62C64 64.2091 62.2091 66 60 66C57.7909 66 56 64.2091 56 62C56 61.4696 56.1033 60.9632 56.2908 60.5H56C53.7159 60.5 51.6021 59.7707 49.8788 58.5322C49.3187 58.8308 48.6791 59 48 59C45.7909 59 44 57.2091 44 55C44 53.6701 44.649 52.4918 45.6476 51.7645C45.5505 51.1908 45.5 50.6013 45.5 50V39.9691C43.5268 39.723 42 38.0398 42 36C42 33.9602 43.5268 32.277 45.5 32.0309V31.1227C44.5855 30.3896 44 29.2632 44 28C44 25.7909 45.7909 24 48 24C50.0398 24 51.723 25.5268 51.9691 27.5H56.2908C56.1033 27.0368 56 26.5305 56 26C56 23.7909 57.7909 22 60 22C62.2091 22 64 23.7909 64 26ZM69.5 50C69.5 50.8715 69.2973 51.6957 68.9365 52.428C68.6978 52.7119 68.4979 53.0295 68.3449 53.3726C67.3387 54.6671 65.7666 55.5 64 55.5H56C54.2334 55.5 52.6613 54.6671 51.6551 53.3726C51.5021 53.0295 51.3022 52.7119 51.0635 52.428C50.7027 51.6957 50.5 50.8715 50.5 50V32.5H69.5V50Z" fill="#F2994A" />
  </g>
  <defs>
    <clipPath id="clip0">
      <rect width="120" height="80" fill="white" />
    </clipPath>
  </defs>
</svg>