<svg viewBox="0 0 120 80" fill="none">
  <g clip-path="url(#clip0)">
    <path d="M120 0H0V80H120V0Z" fill="#2F80ED" />
    <path d="M27.4152 0.0771332H107.415V79.9213" fill="#F2C94C" />
    <path d="M9.99988 -8.51484L11.6457 -3.78009L16.6573 -3.67796L12.6628 -0.649597L14.1144 4.14827L9.99988 1.28515L5.88538 4.14827L7.33692 -0.649597L3.34248 -3.67796L8.35408 -3.78009L9.99988 -8.51484Z" fill="#F2F2F2" />
    <path d="M20.04 1.52534L21.6858 6.26009L26.6974 6.36222L22.703 9.39058L24.1545 14.1885L20.04 11.3253L15.9255 14.1885L17.3771 9.39058L13.3826 6.36222L18.3942 6.26009L20.04 1.52534Z" fill="#F2F2F2" />
    <path d="M30.0802 11.5655L31.726 16.3003L36.7376 16.4024L32.7432 19.4308L34.1947 24.2286L30.0802 21.3655L25.9657 24.2286L27.4172 19.4308L23.4228 16.4024L28.4344 16.3003L30.0802 11.5655Z" fill="#F2F2F2" />
    <path d="M40.1205 21.6057L41.7663 26.3405L46.7779 26.4426L42.7834 29.471L44.235 34.2688L40.1205 31.4057L36.006 34.2688L37.4575 29.471L33.4631 26.4426L38.4747 26.3405L40.1205 21.6057Z" fill="#F2F2F2" />
    <path d="M50.1606 31.6459L51.8064 36.3807L56.818 36.4828L52.8236 39.5112L54.2751 44.309L50.1606 41.4459L46.0461 44.309L47.4977 39.5112L43.5032 36.4828L48.5148 36.3807L50.1606 31.6459Z" fill="#F2F2F2" />
    <path d="M60.2008 41.6861L61.8466 46.4209L66.8582 46.523L62.8638 49.5513L64.3153 54.3492L60.2008 51.4861L56.0863 54.3492L57.5378 49.5513L53.5434 46.523L58.555 46.4209L60.2008 41.6861Z" fill="#F2F2F2" />
    <path d="M70.241 51.7263L71.8868 56.461L76.8984 56.5632L72.9039 59.5915L74.3555 64.3894L70.241 61.5263L66.1265 64.3894L67.578 59.5915L63.5836 56.5632L68.5952 56.461L70.241 51.7263Z" fill="#F2F2F2" />
    <path d="M80.2812 61.7665L81.927 66.5012L86.9386 66.6034L82.9442 69.6317L84.3957 74.4296L80.2812 71.5665L76.1668 74.4296L77.6183 69.6317L73.6239 66.6034L78.6355 66.5012L80.2812 61.7665Z" fill="#F2F2F2" />
    <path d="M90.3214 71.8067L91.9672 76.5414L96.9788 76.6436L92.9844 79.6719L94.4359 84.4698L90.3214 81.6067L86.2069 84.4698L87.6585 79.6719L83.664 76.6436L88.6756 76.5414L90.3214 71.8067Z" fill="#F2F2F2" />
  </g>
  <defs>
    <clipPath id="clip0">
      <rect width="120" height="80" fill="white" />
    </clipPath>
  </defs>
</svg>