<svg viewBox="0 0 120 80" fill="none">
  <g clip-path="url(#clip0onU_)">
    <path d="M120 -0.0101318H0V79.9899H120V-0.0101318Z" fill="#219653" />
    <path d="M60 10L110 40L60 70L10 40L60 10Z" fill="#F2C94C" />
    <path d="M60.0554 58C69.9659 58 78 49.9411 78 40C78 30.0589 69.9659 22 60.0554 22C50.1449 22 42.1108 30.0589 42.1108 40C42.1108 49.9411 50.1449 58 60.0554 58Z" fill="#2F80ED" />
    <path d="M42.5538 35.6662C42.1923 37.0823 42.0063 38.5377 42 39.9995C42 40.5551 42 41.2217 42.1108 41.7773C46.5415 40.6662 51.6369 39.9995 56.843 39.9995C64.5968 39.9995 71.7968 41.444 77.446 43.7773C77.6676 42.5551 77.8891 41.3328 77.8891 39.9995C77.8891 39.2217 77.7783 38.5551 77.7783 37.7773C72.0184 35.3328 64.8184 33.9995 56.843 33.9995C51.7477 33.9995 46.9846 34.5551 42.5538 35.6662Z" fill="white" />
    <path d="M65.9265 31.8889C66.5383 31.8889 67.0342 31.3915 67.0342 30.7778C67.0342 30.1642 66.5383 29.6667 65.9265 29.6667C65.3148 29.6667 64.8189 30.1642 64.8189 30.7778C64.8189 31.3915 65.3148 31.8889 65.9265 31.8889Z" fill="white" />
    <path d="M49.5325 45.3329C50.1442 45.3329 50.6402 44.8355 50.6402 44.2218C50.6402 43.6082 50.1442 43.1107 49.5325 43.1107C48.9207 43.1107 48.4248 43.6082 48.4248 44.2218C48.4248 44.8355 48.9207 45.3329 49.5325 45.3329Z" fill="white" />
    <path d="M55.1816 44.3331C55.671 44.3331 56.0677 43.9351 56.0677 43.4442C56.0677 42.9533 55.671 42.5553 55.1816 42.5553C54.6921 42.5553 54.2954 42.9533 54.2954 43.4442C54.2954 43.9351 54.6921 44.3331 55.1816 44.3331Z" fill="white" />
    <path d="M52.1918 48.7778C52.6812 48.7778 53.078 48.3798 53.078 47.8889C53.078 47.398 52.6812 47 52.1918 47C51.7024 47 51.3057 47.398 51.3057 47.8889C51.3057 48.3798 51.7024 48.7778 52.1918 48.7778Z" fill="white" />
    <path d="M70.1361 50.3328C70.6256 50.3328 71.0223 49.9348 71.0223 49.4439C71.0223 48.953 70.6256 48.555 70.1361 48.555C69.6467 48.555 69.25 48.953 69.25 49.4439C69.25 49.9348 69.6467 50.3328 70.1361 50.3328Z" fill="white" />
    <path d="M72.2406 46.9996C72.73 46.9996 73.1268 46.6016 73.1268 46.1107C73.1268 45.6198 72.73 45.2218 72.2406 45.2218C71.7512 45.2218 71.3545 45.6198 71.3545 46.1107C71.3545 46.6016 71.7512 46.9996 72.2406 46.9996Z" fill="white" />
  </g>
  <defs>
    <clipPath id="clip0onU_">
      <rect width="120" height="80" fill="white" />
    </clipPath>
  </defs>
</svg>