<svg viewBox="0 0 120 80" fill="none">
  <rect width="120" height="80" fill="#219653" />
  <rect y="31" width="120" height="18" fill="#F2F2F2" />
  <rect x="66.75" width="80" height="13.5" transform="rotate(90 66.75 0)" fill="#F2F2F2" />
  <rect y="31" width="120" height="6" fill="#F2C94C" />
  <rect x="66.75" width="80" height="4.49998" transform="rotate(90 66.75 0)" fill="#F2C94C" />
  <rect y="37" width="120" height="6" fill="#333333" />
  <rect x="62.25" width="80" height="4.5" transform="rotate(90 62.25 0)" fill="#333333" />
  <circle cx="60" cy="40" r="22" fill="#EB5757" />
  <path d="M65.5628 42.7274C63.7467 39.0911 61.3859 35.4054 61.3859 35.4054C61.3859 35.4054 61.4445 33.7274 61.4445 32.7274C61.4445 31.221 60.2249 30 58.7202 30C57.2948 30 56.1272 31.0964 56.0079 32.492C54.8873 32.5654 54 33.4959 54 34.6366C54 35.4658 54.4694 36.1843 55.1559 36.5437C55.4972 35.7444 56.1658 35.1202 56.9929 34.8357C57.1276 34.9465 57.2726 35.0448 57.427 35.1283L57.7758 35.2957C57.7758 35.2957 56.4817 38.9473 56.4817 40.9095C56.4817 46.4248 60.1139 48.1255 60.1139 48.1255V48.1824L58.2978 50H61.93V46.3637L63.7461 48.1822C63.7632 48.1477 67.1872 45.9798 65.5628 42.7274Z" fill="#219653" />
  <path d="M60 21L60.6735 23.0729H62.8532L61.0898 24.3541L61.7634 26.4271L60 25.1459L58.2366 26.4271L58.9102 24.3541L57.1468 23.0729H59.3265L60 21Z" fill="#219653" stroke="#219653" stroke-width="0.5" stroke-linejoin="round" />
  <path d="M60 60L60.6735 57.9271H62.8532L61.0898 56.6459L61.7634 54.5729L60 55.8541L58.2366 54.5729L58.9102 56.6459L57.1468 57.9271H59.3265L60 60Z" fill="#219653" stroke="#219653" stroke-width="0.5" stroke-linejoin="round" />
  <path d="M71.2184 24.5501L70.5767 26.6332L72.3595 27.8871L70.1801 27.9206L69.5385 30.0036L68.8332 27.9412L66.6539 27.9747L68.3973 26.6666L67.6921 24.6042L69.4749 25.8582L71.2184 24.5501Z" fill="#219653" stroke="#219653" stroke-width="0.5" stroke-linejoin="round" />
  <path d="M48.7817 56.45L50.5252 55.142L52.308 56.3959L51.6027 54.3335L53.3462 53.0255L51.1668 53.0589L50.4616 50.9965L49.8199 53.0796L47.6405 53.113L49.4234 54.367L48.7817 56.45Z" fill="#219653" stroke="#219653" stroke-width="0.5" stroke-linejoin="round" />
  <path d="M78.3973 34.0354L76.6649 35.3581L77.3875 37.4145L75.5942 36.1755L73.8617 37.4982L74.4859 35.4098L72.6926 34.1709L74.8716 34.1192L75.4958 32.0308L76.2183 34.0872L78.3973 34.0354Z" fill="#219653" stroke="#219653" stroke-width="0.5" stroke-linejoin="round" />
  <path d="M41.6027 46.9646L43.7817 46.9129L44.5042 48.9693L45.1284 46.8809L47.3074 46.8292L45.5141 45.5903L46.1383 43.5019L44.4058 44.8245L42.6126 43.5856L43.3351 45.642L41.6027 46.9646Z" fill="#219653" stroke="#219653" stroke-width="0.5" stroke-linejoin="round" />
  <path d="M78.6056 46.3385L76.4261 46.3605L75.7735 48.4401L75.079 46.3741L72.8995 46.3961L74.6499 45.0972L73.9554 43.0311L75.7316 44.2944L77.482 42.9955L76.8294 45.0752L78.6056 46.3385Z" fill="#219653" stroke="#219653" stroke-width="0.5" stroke-linejoin="round" />
  <path d="M41.3943 34.6622L43.1705 35.9255L42.5179 38.0051L44.2682 36.7062L46.0444 37.9695L45.35 35.9035L47.1003 34.6046L44.9208 34.6266L44.2264 32.5605L43.5738 34.6402L41.3943 34.6622Z" fill="#219653" stroke="#219653" stroke-width="0.5" stroke-linejoin="round" />
  <path d="M71.4448 56.2885L69.6829 55.0055L67.9181 56.2847L68.5939 54.2125L66.8319 52.9294L69.0116 52.9318L69.6874 50.8596L70.3586 52.9333L72.5383 52.9356L70.7735 54.2149L71.4448 56.2885Z" fill="#219653" stroke="#219653" stroke-width="0.5" stroke-linejoin="round" />
  <path d="M48.555 24.7119L49.2263 26.7856L47.4616 28.0648L49.6412 28.0672L50.3125 30.1409L50.9883 28.0686L53.1679 28.071L51.406 26.7879L52.0818 24.7157L50.317 25.995L48.555 24.7119Z" fill="#219653" stroke="#219653" stroke-width="0.5" stroke-linejoin="round" />
</svg>