<svg viewBox="0 0 120 80" fill="none">
  <g clip-path="url(#clip0)">
    <rect width="51" height="31" fill="#2F80ED" />
    <rect width="51" height="31" transform="matrix(-1 0 0 1 120 49)" fill="#2F80ED" />
    <rect x="69" width="51" height="31" fill="#EB5757" />
    <rect width="51" height="31" transform="matrix(-1 0 0 1 51 49)" fill="#EB5757" />
    <rect y="31" width="120" height="18" fill="#F2F2F2" />
    <rect x="69" width="80" height="18" transform="rotate(90 69 0)" fill="#F2F2F2" />
    <path d="M69 40C69 44.9707 64.9707 49 60 49C55.0295 49 51 44.9707 51 40" stroke="#219653" stroke-width="2" />
    <path d="M67.5 36.0232C65.8876 33.5982 63.1305 32 60 32C56.8695 32 54.1124 33.5982 52.5 36.0232" stroke="#2F80ED" />
    <path d="M54.9375 35.5V41.1251C54.9375 43.921 57.2041 46.1876 60 46.1876C62.7959 46.1876 65.0625 43.921 65.0625 41.1251V35.5H54.9375Z" fill="#EB5757" />
    <mask id="mask0" mask-type="alpha" maskUnits="userSpaceOnUse" x="54" y="35" width="12" height="12">
      <path d="M54.9375 35.5V41.1251C54.9375 43.921 57.2041 46.1876 60 46.1876C62.7959 46.1876 65.0625 43.921 65.0625 41.1251V35.5H54.9375Z" fill="#D80027" />
    </mask>
    <g mask="url(#mask0)">
      <rect x="52" y="35" width="7" height="5" fill="#2F80ED" />
      <rect width="8" height="6" transform="matrix(-1 0 0 1 69 41)" fill="#2F80ED" />
      <rect x="61" y="35" width="8" height="5" fill="#EB5757" />
      <rect width="7" height="6" transform="matrix(-1 0 0 1 59 41)" fill="#EB5757" />
      <rect x="54" y="39.5" width="12" height="2" fill="#F2F2F2" />
      <rect x="61" y="35" width="12" height="2" transform="rotate(90 61 35)" fill="#F2F2F2" />
    </g>
  </g>
  <defs>
    <clipPath id="clip0">
      <rect width="120" height="80" fill="white" />
    </clipPath>
  </defs>
</svg>