<svg viewBox="0 0 120 80" fill="none">
  <rect width="120" height="80" fill="#F2F2F2" />
  <rect width="120" height="23" fill="#2F80ED" />
  <rect y="57" width="120" height="23" fill="#2F80ED" />
  <path d="M52.3132 41.5714L59.5714 29L66.8296 41.5714H52.3132Z" fill="#F2C94C" />
  <path d="M68.4608 29.5388L65.1272 32.8724C66.549 34.2944 67.4286 36.2586 67.4286 38.4284C67.4286 42.7679 63.9107 46.2857 59.5712 46.2857C55.2317 46.2857 51.7139 42.7679 51.7139 38.4284C51.7139 36.2588 52.5935 34.2946 54.0153 32.8724L50.6817 29.5388C48.4068 31.8139 47 34.9567 47 38.4284C47 45.3714 52.6285 50.9998 59.5714 50.9998C66.5144 50.9998 72.1429 45.3714 72.1429 38.4284C72.1429 34.9567 70.7356 31.8139 68.4608 29.5388Z" fill="#F2C94C" />
  <path fill-rule="evenodd" clip-rule="evenodd" d="M67.3645 39.4365H51.778C52.2727 43.3 55.5733 46.2859 59.5712 46.2859C63.5692 46.2859 66.8698 43.3 67.3645 39.4365Z" fill="#6FCF97" />
</svg>