<svg viewBox="0 0 120 80" fill="none">
  <g clip-path="url(#clip08CWT)">
    <path d="M120 0H0V80H120V0Z" fill="#F2C94C" />
    <path d="M120 0H0V26.6667H120V0Z" fill="#219653" />
    <path d="M120 53.3401H0V80.0101H120V53.3401Z" fill="#EB5757" />
    <circle cx="60" cy="39.9899" r="24" fill="#2F80ED" />
    <path d="M60 25.9899L63.127 35.6859L73.3148 35.6636L65.0596 41.6338L68.229 51.3161L60 45.3099L51.771 51.3161L54.9404 41.6338L46.6852 35.6636L56.873 35.6859L60 25.9899Z" stroke="#F2C94C" stroke-width="2" />
    <path d="M67.3832 28.1398L59.2466 39.5187L72.5778 43.7565L59.2416 39.5343L59.3307 53.5227L59.2251 39.5345L45.9489 43.9419L59.2199 39.5188L50.9256 28.2544L59.2332 39.5091L67.3832 28.1398Z" stroke="#F2C94C" />
  </g>
  <defs>
    <clipPath id="clip08CWT">
      <rect width="120" height="80" fill="white" />
    </clipPath>
  </defs>
</svg>