<svg viewBox="0 0 120 80" fill="none">
  <g clip-path="url(#clip0wjxU)">
    <path d="M0 0H120L0 80V0Z" fill="#2F80ED" />
    <path d="M120 80H0L120 0V80Z" fill="#219653" />
    <path d="M120 -0.010009L0 79.99" stroke="#F2F2F2" stroke-width="24" />
    <path d="M120 -0.010009L0 79.99" stroke="#EB5757" stroke-width="16" />
    <path fill-rule="evenodd" clip-rule="evenodd" d="M26.271 13.2347L24 8L21.729 13.2347C22.4618 13.0809 23.2214 13 24 13C24.7786 13 25.5382 13.0809 26.271 13.2347ZM27.4166 13.5409C28.8884 14.0214 30.2236 14.8038 31.3491 15.8151L32 10.1436L27.4166 13.5409ZM32.1849 16.6509C33.1962 17.7764 33.9786 19.1116 34.4591 20.5834L37.8564 16L32.1849 16.6509ZM34.7653 21.729C34.9191 22.4618 35 23.2214 35 24C35 24.7786 34.9191 25.5382 34.7653 26.271L40 24L34.7653 21.729ZM34.4591 27.4166C33.9786 28.8884 33.1962 30.2236 32.1849 31.3491L37.8564 32L34.4591 27.4166ZM31.3491 32.1849C30.2236 33.1962 28.8884 33.9786 27.4166 34.4591L32 37.8564L31.3491 32.1849ZM26.271 34.7653C25.5382 34.9191 24.7786 35 24 35C23.2214 35 22.4618 34.9191 21.729 34.7653L24 40L26.271 34.7653ZM20.5834 34.4591C19.1116 33.9786 17.7764 33.1962 16.6509 32.1849L16 37.8564L20.5834 34.4591ZM15.8151 31.3491C14.8038 30.2236 14.0214 28.8884 13.5409 27.4166L10.1436 32L15.8151 31.3491ZM13.2347 26.271C13.0809 25.5382 13 24.7786 13 24C13 23.2214 13.0809 22.4618 13.2347 21.729L8 24L13.2347 26.271ZM13.5409 20.5834C14.0214 19.1116 14.8038 17.7764 15.8151 16.6509L10.1436 16L13.5409 20.5834ZM16.6509 15.8151L16 10.1436L20.5834 13.5409C19.1116 14.0214 17.7764 14.8038 16.6509 15.8151Z" fill="#F2C94C" />
    <circle cx="24" cy="24" r="8" fill="#F2C94C" />
  </g>
  <defs>
    <clipPath id="clip0wjxU">
      <rect width="120" height="80" fill="white" />
    </clipPath>
  </defs>
</svg>