<svg viewBox="0 0 120 80" fill="none">
  <path d="M120 0H0V79.8423H120V0Z" fill="#338AF3" />
  <path d="M120 25.9492H0V53.8946H120V25.9492Z" fill="#F0F0F0" />
  <circle cx="60" cy="40" r="12" stroke="#FFDA44" stroke-width="3" />
  <mask id="mask0" mask-type="alpha" maskUnits="userSpaceOnUse" x="52" y="30" width="16" height="15">
    <path d="M60 30L68 45H52L60 30Z" fill="#FFDA44" />
  </mask>
  <g mask="url(#mask0)">
    <rect x="52" y="43" width="16" height="1" fill="#6DA544" />
    <path d="M65 41C65 40.3434 64.8707 39.6932 64.6194 39.0866C64.3681 38.48 63.9998 37.9288 63.5355 37.4645C63.0712 37.0002 62.52 36.6319 61.9134 36.3806C61.3068 36.1293 60.6566 36 60 36C59.3434 36 58.6932 36.1293 58.0866 36.3806C57.48 36.6319 56.9288 37.0002 56.4645 37.4645C56.0002 37.9288 55.6319 38.48 55.3806 39.0866C55.1293 39.6932 55 40.3434 55 41" stroke="#338AF3" />
    <path d="M66 41H54" stroke="#0052B4" />
    <path d="M59 30L60 41L61 30L59 30Z" fill="#0052B4" />
    <path d="M60 30L68 45H52L60 30Z" stroke="#FFDA44" />
    <path d="M58 40L60 44H56L58 40Z" fill="#6DA544" />
    <path d="M60 40L62 44H58L60 40Z" fill="#6DA544" />
    <path d="M64 40L66 44H62L64 40Z" fill="#6DA544" />
  </g>
</svg>