<svg viewBox="0 0 120 80" fill="none">
  <path d="M120 0H0V79.9983H120V0Z" fill="#219653" />
  <path fill-rule="evenodd" clip-rule="evenodd" d="M65.5152 24.1773C66.3214 23.3711 67.1851 22.6573 68.0931 22.036C65.08 22.9645 62.243 24.6211 59.8584 27.0057C52.0479 34.8162 52.0479 47.4795 59.8584 55.29C67.6688 63.1005 80.3321 63.1005 88.1426 55.29C90.5273 52.9054 92.1838 50.0684 93.1124 47.0553C92.4911 47.9632 91.7773 48.8269 90.9711 49.6332C83.9416 56.6626 72.5446 56.6626 65.5152 49.6332C58.4858 42.6037 58.4858 31.2068 65.5152 24.1773ZM84.3041 27.3481L79.1253 24.7094L81.764 29.8882L77.6541 33.9982L83.3949 33.0889L86.0336 38.2677L86.9429 32.527L92.6836 31.6177L87.5048 28.979L88.4141 23.2382L84.3041 27.3481Z" fill="#F2F2F2" />
  <path d="M28 0H0V80H28V0Z" fill="#F2F2F2" />
</svg>