<svg viewBox="0 0 120 80" fill="none">
  <g clip-path="url(#clip0)">
    <path d="M120 0H0V80H120V0Z" fill="#56CCF2" />
    <path d="M120 0V39.0281L0 40V0H120Z" fill="#F2F2F2" />
    <path d="M60 16V25.6" stroke="#F2994A" stroke-width="3" />
    <path d="M63.3335 19.2L56.6668 19.2" stroke="#F2994A" stroke-width="3" />
    <mask id="path-5-inside-1" fill="white">
      <path fill-rule="evenodd" clip-rule="evenodd" d="M50 26.4C50 27.2488 50.2295 28.0461 50.6322 28.7379C51.1502 29.6279 51.6667 30.5702 51.6667 31.6C51.6667 31.8209 51.8458 32 52.0667 32H67.9333C68.1542 32 68.3333 31.8209 68.3333 31.6C68.3333 30.5702 68.8498 29.6279 69.3679 28.7379C69.7705 28.0461 70 27.2488 70 26.4C70 23.749 67.7614 21.6 65 21.6C63.3957 21.6 61.9679 22.3253 61.053 23.453C60.7915 23.7754 60.4151 24 60 24C59.5849 24 59.2085 23.7754 58.947 23.453C58.0321 22.3253 56.6043 21.6 55 21.6C52.2386 21.6 50 23.749 50 26.4Z" />
    </mask>
    <path fill-rule="evenodd" clip-rule="evenodd" d="M50 26.4C50 27.2488 50.2295 28.0461 50.6322 28.7379C51.1502 29.6279 51.6667 30.5702 51.6667 31.6C51.6667 31.8209 51.8458 32 52.0667 32H67.9333C68.1542 32 68.3333 31.8209 68.3333 31.6C68.3333 30.5702 68.8498 29.6279 69.3679 28.7379C69.7705 28.0461 70 27.2488 70 26.4C70 23.749 67.7614 21.6 65 21.6C63.3957 21.6 61.9679 22.3253 61.053 23.453C60.7915 23.7754 60.4151 24 60 24C59.5849 24 59.2085 23.7754 58.947 23.453C58.0321 22.3253 56.6043 21.6 55 21.6C52.2386 21.6 50 23.749 50 26.4Z" fill="#F2994A" />
    <path d="M58.947 23.453L61.2767 21.5629L58.947 23.453ZM69.3679 28.7379L66.7751 27.2288L69.3679 28.7379ZM61.053 23.453L63.3827 25.3431L61.053 23.453ZM53.2249 27.2288C53.0792 26.9784 53 26.6995 53 26.4H47C47 27.7981 47.3798 29.1138 48.0394 30.247L53.2249 27.2288ZM67.9333 29H52.0667V35H67.9333V29ZM67 26.4C67 26.6995 66.9208 26.9784 66.7751 27.2288L71.9606 30.247C72.6202 29.1138 73 27.7981 73 26.4H67ZM65 24.6C66.2212 24.6 67 25.5201 67 26.4H73C73 21.9779 69.3017 18.6 65 18.6V24.6ZM63.3827 25.3431C63.7355 24.9083 64.3117 24.6 65 24.6V18.6C62.4797 18.6 60.2004 19.7424 58.7233 21.5629L63.3827 25.3431ZM55 24.6C55.6883 24.6 56.2645 24.9083 56.6173 25.3431L61.2767 21.5629C59.7996 19.7424 57.5203 18.6 55 18.6V24.6ZM53 26.4C53 25.5201 53.7788 24.6 55 24.6V18.6C50.6983 18.6 47 21.9779 47 26.4H53ZM60 21C60.7005 21 61.1167 21.3657 61.2767 21.5629L56.6173 25.3431C57.3004 26.185 58.4693 27 60 27V21ZM71.3333 31.6C71.3333 31.5909 71.335 31.4927 71.4343 31.2491C71.5407 30.9883 71.702 30.6915 71.9606 30.247L66.7751 27.2288C66.3061 28.0345 65.3333 29.6465 65.3333 31.6H71.3333ZM58.7233 21.5629C58.8833 21.3657 59.2995 21 60 21V27C61.5307 27 62.6996 26.185 63.3827 25.3431L58.7233 21.5629ZM67.9333 35C69.8111 35 71.3333 33.4778 71.3333 31.6H65.3333C65.3333 30.1641 66.4974 29 67.9333 29V35ZM48.6667 31.6C48.6667 33.4778 50.1889 35 52.0667 35V29C53.5026 29 54.6667 30.1641 54.6667 31.6H48.6667ZM48.0394 30.247C48.298 30.6915 48.4593 30.9883 48.5657 31.2491C48.665 31.4927 48.6667 31.5909 48.6667 31.6H54.6667C54.6667 29.6465 53.6939 28.0345 53.2249 27.2288L48.0394 30.247Z" fill="#F2994A" mask="url(#path-5-inside-1)" />
    <mask id="path-7-outside-2" maskUnits="userSpaceOnUse" x="40" y="28" width="40" height="36" fill="black">
      <rect fill="white" x="40" y="28" width="40" height="36" />
      <path d="M71.5911 38.3765C72.0675 40.4508 72.1285 42.6251 71.7694 44.7313C71.4103 46.8374 70.6408 48.819 69.5202 50.5227C68.3997 52.2263 66.9583 53.6064 65.3075 54.5562C63.6566 55.506 61.8406 56 60 56C58.1593 56 56.3434 55.506 54.6925 54.5562C53.0417 53.6064 51.6003 52.2263 50.4798 50.5227C49.3592 48.819 48.5897 46.8374 48.2306 44.7313C47.8715 42.6251 47.9325 40.4508 48.4089 38.3765L60 42L71.5911 38.3765Z" />
    </mask>
    <path d="M71.5911 38.3765C72.0675 40.4508 72.1285 42.6251 71.7694 44.7313C71.4103 46.8374 70.6408 48.819 69.5202 50.5227C68.3997 52.2263 66.9583 53.6064 65.3075 54.5562C63.6566 55.506 61.8406 56 60 56C58.1593 56 56.3434 55.506 54.6925 54.5562C53.0417 53.6064 51.6003 52.2263 50.4798 50.5227C49.3592 48.819 48.5897 46.8374 48.2306 44.7313C47.8715 42.6251 47.9325 40.4508 48.4089 38.3765L60 42L71.5911 38.3765Z" stroke="#219653" stroke-width="16" mask="url(#path-7-outside-2)" />
    <ellipse cx="60" cy="42" rx="12" ry="14" fill="#56CCF2" />
    <ellipse cx="60" cy="42" rx="12" ry="14" stroke="#F2994A" stroke-width="5" />
    <rect x="51" y="55" width="18" height="6" fill="#F2F2F2" />
    <rect x="44" y="59" width="10" height="4" fill="#F2F2F2" />
    <rect x="66" y="59" width="10" height="4" fill="#F2F2F2" />
  </g>
  <defs>
    <clipPath id="clip0">
      <rect width="120" height="80" fill="white" />
    </clipPath>
  </defs>
</svg>