<svg viewBox="0 0 120 80" fill="none">
  <g clip-path="url(#clip0)">
    <path d="M60.1172 0.000152588H0V79.9976H60.1172V0.000152588Z" fill="#FFDA44" />
    <path d="M120.234 0H60.1172V80H120.234V0Z" fill="#F0F0F0" />
    <path d="M75.4643 34.8053L82.9961 44.7497C81.8095 46.5429 81.8159 48.9593 83.188 50.7712C84.929 53.0697 88.2073 53.5247 90.5105 51.7873C92.8135 50.0496 93.2694 46.7778 91.5283 44.479C90.1562 42.6671 87.8283 42.0022 85.7761 42.6521L74.0373 27.1533L71.2573 29.2507L67.0869 32.3969L71.2902 37.9461L75.4643 34.8053ZM86.3077 46.238C87.0756 45.6586 88.1683 45.8105 88.7488 46.5767C89.3291 47.3428 89.1772 48.4336 88.4095 49.013C87.6418 49.5919 86.5489 49.4405 85.9686 48.6741C85.3884 47.9081 85.5401 46.8171 86.3077 46.238Z" fill="#ACABB1" />
    <path d="M88.3837 37.9466L92.587 32.3974L88.4166 29.2512L85.6367 27.1538L73.8978 42.6526C71.8454 42.0022 69.518 42.6674 68.1456 44.4795C66.4046 46.7783 66.8604 50.0501 69.1634 51.7877C71.4666 53.5254 74.7449 53.0705 76.4859 50.7717C77.8585 48.9598 77.8646 46.5434 76.6778 44.7502L84.2096 34.8058L88.3837 37.9466ZM73.7057 48.6741C73.1255 49.4405 72.0326 49.5919 71.2649 49.013C70.497 48.4336 70.3453 47.3429 70.9256 46.5767C71.5058 45.8108 72.5987 45.6589 73.3666 46.238C74.1341 46.8172 74.286 47.9082 73.7057 48.6741Z" fill="#FFDA44" />
  </g>
  <defs>
    <clipPath id="clip0">
      <rect width="120" height="80" fill="white" />
    </clipPath>
  </defs>
</svg>