<svg viewBox="0 0 120 80" fill="none">
  <g clip-path="url(#clip09max)">
    <path d="M120 -0.0101318H0V26.6565H120V-0.0101318Z" fill="#F2C94C" />
    <path d="M120 26.6565H0V53.3232H120V26.6565Z" fill="#2F80ED" />
    <path d="M120 53.3232H0V79.9899H120V53.3232Z" fill="#EB5757" />
    <path d="M55.1086 27L55.8664 29.2457H58.3185L56.3347 30.6336L57.0924 32.8793L55.1086 31.4914L53.1249 32.8793L53.8826 30.6336L51.8988 29.2457H54.3509L55.1086 27Z" fill="#F2F2F2" />
    <path d="M64.7639 27L65.5217 29.2457H67.9737L65.99 30.6336L66.7477 32.8793L64.7639 31.4914L62.7801 32.8793L63.5379 30.6336L61.5541 29.2457H64.0062L64.7639 27Z" fill="#F2F2F2" />
    <path d="M73.593 30.6332L74.3508 32.8789H76.8028L74.8191 34.2669L75.5768 36.5125L73.593 35.1246L71.6092 36.5125L72.367 34.2669L70.3832 32.8789H72.8353L73.593 30.6332Z" fill="#F2F2F2" />
    <path d="M80.343 37.6273L81.1008 39.873H83.5528L81.5691 41.2609L82.3268 43.5066L80.343 42.1187L78.3592 43.5066L79.117 41.2609L77.1332 39.873H79.5853L80.343 37.6273Z" fill="#F2F2F2" />
    <path d="M83.625 46.5L84.3827 48.7457H86.8348L84.851 50.1336L85.6088 52.3793L83.625 50.9914L81.6412 52.3793L82.399 50.1336L80.4152 48.7457H82.8673L83.625 46.5Z" fill="#F2F2F2" />
    <path d="M46.28 30.6332L47.0378 32.8789H49.4898L47.5061 34.2669L48.2638 36.5125L46.28 35.1246L44.2963 36.5125L45.054 34.2669L43.0702 32.8789H45.5223L46.28 30.6332Z" fill="#F2F2F2" />
    <path d="M39.75 37.6273L40.5077 39.873H42.9598L40.976 41.2609L41.7338 43.5066L39.75 42.1187L37.7662 43.5066L38.524 41.2609L36.5402 39.873H38.9923L39.75 37.6273Z" fill="#F2F2F2" />
    <path d="M36.375 46.5L37.1327 48.7457H39.5848L37.601 50.1336L38.3588 52.3793L36.375 50.9914L34.3912 52.3793L35.149 50.1336L33.1652 48.7457H35.6173L36.375 46.5Z" fill="#F2F2F2" />
  </g>
  <defs>
    <clipPath id="clip09max">
      <rect width="120" height="80" fill="white" />
    </clipPath>
  </defs>
</svg>