<svg viewBox="0 0 120 80" fill="none">
  <g clip-path="url(#clip0chfU)">
    <g opacity="0.9">
      <path d="M120.4 -0.0101318H0.400391V11.4184H120.4V-0.0101318Z" fill="#219653" />
      <path d="M120.4 11.4185H0.400391V22.847H120.4V11.4185Z" fill="#F2C94C" />
      <path d="M120.4 22.847H0.400391V34.2756H120.4V22.847Z" fill="#EB5757" />
      <path d="M120.4 34.2756H0.400391V45.7042H120.4V34.2756Z" fill="#333333" />
      <path d="M120.4 57.1328H0.400391V45.7042H120.4V57.1328Z" fill="#EB5757" />
      <path d="M120.4 68.5613H0.400391V57.1327H120.4V68.5613Z" fill="#F2C94C" />
      <path d="M120.4 79.99H0.400391V68.5614H120.4V79.99Z" fill="#219653" />
    </g>
    <path d="M56 40L0 0V80L56 40Z" fill="#F2F2F2" />
    <path d="M0 0L56 40L0 80" stroke="#333333" stroke-width="3" />
    <path d="M19 27.9899L21.6803 36.3008L30.4127 36.2817L23.3368 41.399L26.0534 49.6981L19 44.5499L11.9466 49.6981L14.6632 41.399L7.58732 36.2817L16.3197 36.3008L19 27.9899Z" fill="#EB5757" />
  </g>
  <defs>
    <clipPath id="clip0chfU">
      <rect width="120" height="80" fill="white" />
    </clipPath>
  </defs>
</svg>