<svg viewBox="0 0 80 80" fill="none">
  <path d="M25 42.5C25 50.7933 31.7067 57.5 40 57.5C48.2933 57.5 55 50.7933 55 42.5C55 35.6915 50.6315 31.3306 46.5872 27.2935C46.457 27.1635 46.3271 27.0338 46.1977 26.9044C43.4044 24.1544 40.7868 20.469 40 17.5C39.2157 20.4664 36.5523 24.1544 33.8023 26.9044C33.6729 27.0338 33.543 27.1635 33.4128 27.2935C29.3685 31.3306 25 35.6915 25 42.5Z" fill="currentColor" />
  <path fill-rule="evenodd" clip-rule="evenodd" d="M40 75C59.33 75 75 59.33 75 40C75 20.67 59.33 5 40 5C20.67 5 5 20.67 5 40C5 59.33 20.67 75 40 75ZM12.5 40C12.5 24.8521 24.8521 12.5 40 12.5C54.9539 12.5 67.5 25.0461 67.5 40C67.5 55.1479 55.1479 67.5 40 67.5C24.8521 67.5 12.5 55.1479 12.5 40Z" fill="currentColor" />
</svg>