<svg viewBox="0 0 80 80" fill="none">
  <path d="M27 8.5C24.2386 8.5 22 10.7386 22 13.5V15.75H39.5C44.4706 15.75 48.5 19.7794 48.5 24.75V55.25C48.5 60.2206 44.4706 64.25 39.5 64.25H22V66.5C22 69.2614 24.2386 71.5 27 71.5H71C73.7614 71.5 76 69.2614 76 66.5V13.5C76 10.7386 73.7614 8.5 71 8.5H27Z" fill="currentColor" />
  <path fill-rule="evenodd" clip-rule="evenodd" d="M9 19.75C6.23858 19.75 4 21.9886 4 24.75V55.25C4 58.0114 6.23858 60.25 9 60.25H39.5C42.2614 60.25 44.5 58.0114 44.5 55.25V24.75C44.5 21.9886 42.2614 19.75 39.5 19.75H9ZM26.9098 39.775L33.25 51.25H28.1469L24.1881 43.7929L20.1985 51.25H15.25L21.5902 39.775L15.4974 28.75H20.6005L24.2809 35.7893L28.0232 28.75H32.9716L26.9098 39.775Z" fill="currentColor" />
</svg>