<svg viewBox="0 0 80 80" fill="none">
  <path d="M22.8315 15.75H39.4998C44.4704 15.75 48.4998 19.7795 48.4998 24.75V55.25C48.4998 60.2206 44.4704 64.25 39.4998 64.25H28.4928C31.0303 68.5869 35.7374 71.5 41.1248 71.5C48.1068 71.5 53.946 66.6075 55.4012 60.0638C56.2497 60.1865 57.1173 60.25 57.9998 60.25C67.941 60.25 75.9998 52.1911 75.9998 42.25C75.9998 32.8206 68.7492 25.0846 59.5191 24.3132C57.0712 15.2049 48.756 8.5 38.8748 8.5C32.4841 8.5 26.7485 11.3046 22.8315 15.75Z" fill="currentColor" />
  <path fill-rule="evenodd" clip-rule="evenodd" d="M9 19.75C6.23858 19.75 4 21.9886 4 24.75V55.25C4 58.0114 6.23858 60.25 9 60.25H39.5C42.2614 60.25 44.5 58.0114 44.5 55.25V24.75C44.5 21.9886 42.2614 19.75 39.5 19.75H9ZM26.0425 37.9574C30.9104 39.7486 33.25 41.2884 33.25 44.7765C33.25 48.8617 29.5896 51.25 24.533 51.25C21.1745 51.25 17.8915 50.3387 15.25 48.5161L17.6651 44.9337C19.816 46.3163 21.967 47.1648 24.4198 47.1648C26.4953 47.1648 27.816 46.4735 27.816 45.0908C27.816 43.9281 27.0991 43.2682 23.3632 41.9483C18.684 40.2828 15.8915 39.0258 15.8915 35.0978C15.8915 31.264 19.4009 28.75 24.3066 28.75C27.5142 28.75 30.1557 29.5042 32.3821 30.8869L30.2689 34.6264C28.1934 33.4951 26.3443 32.8352 24.3821 32.8352C22.4575 32.8352 21.3255 33.6208 21.3255 34.7835C21.3255 36.1348 22.2311 36.5433 26.0425 37.9574Z" fill="currentColor" />
</svg>