<svg viewBox="0 0 80 80" fill="none">
  <path d="M49.3004 9.39404C25.2802 9.39404 13.6512 39.9917 28.4839 57.9429C33.6351 64.1499 40.9879 68.2788 49.3004 68.2788C54.4234 68.2788 59.2218 66.7612 63.3286 64.1226C57.1472 69.4819 48.9476 72.7358 40 72.7358C39.4496 72.7358 38.871 72.7358 38.3206 72.6948C19.7621 71.8608 5 57.0269 5 38.8296C5 20.0991 20.6653 4.92334 40 4.92334H40.1129C49.0181 4.96436 57.1472 8.21826 63.3145 13.5503C59.2218 10.8979 54.4093 9.39404 49.3004 9.39404ZM63.6673 63.7671C57.8952 67.144 50.8669 66.9937 45.0383 62.9741C52.9698 60.1714 58.8266 50.4507 58.8266 38.8296C58.8266 27.2495 53.0121 17.5288 45.0806 14.6851C50.9798 10.6929 57.9516 10.5425 63.8367 14.0015C78.7823 27.4956 78.7258 50.3276 63.6673 63.7671Z" fill="currentColor" />
</svg>