<svg viewBox="0 0 80 80" fill="none">
  <path fill-rule="evenodd" clip-rule="evenodd" d="M5 37C5 25.799 5 20.1984 7.17987 15.9202C9.09734 12.1569 12.1569 9.09734 15.9202 7.17987C20.1984 5 25.799 5 37 5H43C54.201 5 59.8016 5 64.0798 7.17987C67.843 9.09734 70.9027 12.1569 72.8201 15.9202C75 20.1984 75 25.799 75 37V43C75 54.201 75 59.8016 72.8201 64.0798C70.9027 67.843 67.843 70.9027 64.0798 72.8201C59.8016 75 54.201 75 43 75H37C25.799 75 20.1984 75 15.9202 72.8201C12.1569 70.9027 9.09734 67.843 7.17987 64.0798C5 59.8016 5 54.201 5 43V37ZM40.8416 31.2201C38.6659 31.2201 37.3523 31.838 37.3523 33.4447C37.3523 35.199 39.613 35.9707 42.4177 36.928C46.9901 38.4888 53.0081 40.5429 53.0335 48.1522C53.0335 55.5265 47.1633 59.7698 38.6248 59.7698C35.0945 59.7698 31.2358 59.0695 27.4181 57.4216V47.6166C30.8663 49.5117 35.2177 50.9124 38.6248 50.9124C40.9237 50.9124 42.5657 50.2944 42.5657 48.3994C42.5657 46.4562 40.115 45.568 37.1563 44.4957C32.6505 42.8627 26.9666 40.8027 26.9666 33.9391C26.9666 26.6472 32.5083 22.2803 40.8416 22.2803C44.2487 22.2803 47.6149 22.8158 51.022 24.1753V33.8567C47.9022 32.1676 43.9614 31.2201 40.8416 31.2201Z" fill="currentColor" />
</svg>