<svg viewBox="0 0 80 80" fill="none">
  <path fill-rule="evenodd" clip-rule="evenodd" d="M6.6349 13.1901C5 16.3988 5 20.5992 5 29V51C5 59.4008 5 63.6012 6.6349 66.8099C8.073 69.6323 10.3677 71.927 13.1901 73.3651C16.3988 75 20.5992 75 29 75H51C59.4008 75 63.6012 75 66.8099 73.3651C69.6323 71.927 71.927 69.6323 73.3651 66.8099C75 63.6012 75 59.4008 75 51V29C75 20.5992 75 16.3988 73.3651 13.1901C71.927 10.3677 69.6323 8.073 66.8099 6.6349C63.6012 5 59.4008 5 51 5H29C20.5992 5 16.3988 5 13.1901 6.6349C10.3677 8.073 8.073 10.3677 6.6349 13.1901ZM56.9434 43.6153C56.6491 44.3648 56.7697 45.1045 57.3083 45.8352C57.9949 46.6061 58.755 47.3902 59.5232 48.1827C61.7966 50.528 64.1414 52.947 64.8672 55.3165C65.1231 56.7948 63.905 57.345 62.6684 57.345L56.0081 57.4544C55.5912 57.5457 55.1056 57.5 54.5515 57.3174C52.6317 56.6858 51.3779 55.1717 50.1134 53.6447C49.302 52.6648 48.4862 51.6796 47.4872 50.9189C46.9894 50.5399 46.3888 50.2814 45.8094 50.5897C44.5008 51.2774 44.4676 52.6003 44.4339 53.9403C44.4085 54.953 44.3828 55.9755 43.806 56.7407C43.0445 57.586 41.5676 57.4787 40.3626 57.3912C40.0247 57.3667 39.7082 57.3437 39.4348 57.3437C26.9724 57.791 18.847 39.9257 15.134 30.7089C14.6898 29.4636 15.3901 28.8454 16.6432 28.8454L23.7722 28.7909C24.5341 28.924 25.2573 29.3747 25.5413 30.1609C26.6088 32.772 30.4945 42.191 32.9042 42.191C35.3139 42.191 34.7109 32.5934 33.8928 30.7917C33.4591 30.1706 32.7222 29.7778 31.6814 29.6135C31.4559 29.5775 31.4995 29.3581 31.8118 28.956C32.9042 27.5496 39.5997 27.1337 42.5314 27.8324C43.111 27.9856 43.6774 28.2577 43.9363 28.8601C44.5227 30.2345 44.3881 32.5484 44.2517 34.8911C44.0828 37.7943 43.9113 40.7416 45.1063 41.9997C45.5676 42.1205 45.8202 42.1344 46.2252 41.8079C49.3036 38.7037 51.404 33.8737 53.1205 29.9158C53.3411 29.3339 53.6937 29.048 54.2386 28.9153C55.1867 28.9153 56.2127 28.9196 57.2705 28.9239C59.4878 28.9331 61.845 28.9429 63.9178 28.9153C67.1242 28.9153 62.4842 35.4924 59.3567 39.9257C58.1382 41.6529 57.1493 43.0547 56.9434 43.6153Z" fill="currentColor" />
</svg>