<svg viewBox="0 0 80 80" fill="none">
  <path fill-rule="evenodd" clip-rule="evenodd" d="M40 75C59.33 75 75 59.33 75 40C75 20.67 59.33 5 40 5C20.67 5 5 20.67 5 40C5 59.33 20.67 75 40 75ZM50.8237 17.5309C47.4932 15.9075 43.7819 15 39.8811 15C26.132 15 14.9516 26.2711 15.0002 39.9785C15.0002 53.7792 26.1786 65 39.9291 65C44.4006 65 48.5879 63.8083 52.2042 61.755C53.3922 61.0875 54.4864 60.3218 55.4863 59.5576L50.441 53.8251L44.6402 59.1743L34.8391 48.2375L37.5505 45.8511L30.6987 38.162L33.4099 35.7747L26.4651 28.0856L37.3125 18.2948L40.7862 22.0682L46.6852 16.8153L50.1087 20.3972L52.3923 18.3432C51.8717 18.0566 51.346 17.7702 50.8237 17.5309ZM41.2602 33.1L35.3131 38.4492L40.6414 44.4182L46.5898 39.0695L41.2602 33.1ZM45.4472 43.3686L39.5485 48.7651L44.8763 54.6871L50.8237 49.3377L45.4472 43.3686ZM37.0268 22.9281L31.0814 28.2773L36.4078 34.2466L42.3551 28.8977L37.0268 22.9281ZM46.3988 21.3995L41.974 25.4109L45.9712 29.8999L50.3961 25.8411L46.3988 21.3995ZM54.2957 39.7859L49.8723 43.7976L53.8677 48.2881L58.2928 44.2739L54.2957 39.7859ZM58.198 48.8123L53.7729 52.8247L57.7685 57.3119L62.1919 53.2536L58.198 48.8123ZM58.5303 29.5178L55.5811 32.1925L58.2449 35.1536L61.1937 32.4799L58.5303 29.5178ZM54.7245 20.6358L51.775 23.3573L54.4381 26.3184L57.3898 23.644L54.7245 20.6358ZM62.2883 38.354L59.3391 41.0284L62.0039 43.9888L65 41.315L62.2883 38.354ZM50.4911 30.3782L46.066 34.3899L50.0633 38.8313L54.4864 34.8189L50.4911 30.3782Z" fill="currentColor" />
</svg>