<svg viewBox="0 0 80 80" fill="none">
  <path d="M47.7337 22.916L13.2992 42.7967L11.7222 32.4896C11.2236 29.2308 12.7751 25.9998 15.6302 24.3515L30.5942 15.712C33.4492 14.0636 37.0231 14.3354 39.596 16.3967L47.7337 22.916Z" fill="currentColor" fill-opacity="0.25" />
  <path d="M19.535 59.8357L22.2835 64.5963C22.8358 65.5529 24.059 65.8806 25.0156 65.3283L30.2117 62.3283C31.1683 61.7761 31.4961 60.5529 30.9438 59.5963L28.2582 54.9448L20.464 59.4448C20.165 59.6174 19.8529 59.7471 19.535 59.8357Z" fill="currentColor" fill-opacity="0.25" />
  <path d="M50.7749 41.9448L53.4604 46.5963C54.0127 47.5529 55.2359 47.8806 56.1925 47.3283L61.3886 44.3283C62.3452 43.7761 62.673 42.5529 62.1207 41.5963L59.3722 36.8357C59.1365 37.0667 58.8682 37.2721 58.5691 37.4448L50.7749 41.9448Z" fill="currentColor" fill-opacity="0.25" />
  <path d="M11.9999 52.7845C9.79075 48.9582 11.1018 44.0654 14.9281 41.8563L46.105 23.8563C49.9313 21.6472 54.8241 22.9582 57.0332 26.7845L60.0332 31.9806C61.1378 33.8938 60.4823 36.3402 58.5691 37.4448L20.464 59.4448C18.5508 60.5494 16.1045 59.8938 14.9999 57.9806L11.9999 52.7845Z" fill="currentColor" fill-opacity="0.25" />
  <path d="M18.7476 50.4719C17.9192 49.037 18.4108 47.2022 19.8457 46.3738C21.2806 45.5454 23.1153 46.037 23.9438 47.4719C24.7722 48.9068 24.2806 50.7415 22.8457 51.57C21.4108 52.3984 19.576 51.9068 18.7476 50.4719Z" fill="currentColor" fill-opacity="0.25" />
  <path d="M51.6566 31.4719C50.8282 30.037 48.9934 29.5454 47.5585 30.3738C46.1236 31.2022 45.632 33.037 46.4604 34.4719C47.2889 35.9068 49.1236 36.3984 50.5585 35.57C51.9934 34.7415 52.485 32.9068 51.6566 31.4719Z" fill="currentColor" fill-opacity="0.25" />
  <path d="M63.897 57.2498C61.4855 55.8575 58.5143 55.8575 56.1028 57.2498C53.6912 58.6421 52.2057 61.2152 52.2057 63.9998C52.2057 64.6841 52.2954 65.3556 52.4665 65.9999H67.5333C67.7044 65.3556 67.7941 64.6841 67.7941 63.9998C67.7941 61.2152 66.3085 58.6421 63.897 57.2498Z" fill="currentColor" fill-opacity="0.25" />
  <path d="M20.464 59.4448L28.2582 54.9448L30.9438 59.5963C31.4961 60.5529 31.1683 61.7761 30.2117 62.3283L25.0156 65.3283C24.059 65.8806 22.8358 65.5529 22.2835 64.5963L19.535 59.8357C19.8529 59.7471 20.165 59.6174 20.464 59.4448ZM20.464 59.4448L58.5691 37.4448M20.464 59.4448C18.5508 60.5494 16.1045 59.8938 14.9999 57.9806L11.9999 52.7845C9.79075 48.9582 11.1018 44.0654 14.9281 41.8563L46.105 23.8563C49.9313 21.6472 54.8241 22.9582 57.0332 26.7845L60.0332 31.9806C61.1378 33.8938 60.4823 36.3402 58.5691 37.4448M58.5691 37.4448C58.8682 37.2721 59.1365 37.0667 59.3722 36.8357L62.1207 41.5963C62.673 42.5529 62.3452 43.7761 61.3886 44.3283L56.1925 47.3283C55.2359 47.8806 54.0127 47.5529 53.4604 46.5963L50.7749 41.9448L58.5691 37.4448ZM47.7337 22.916L13.2992 42.7967L11.7222 32.4896C11.2236 29.2308 12.7751 25.9998 15.6302 24.3515L30.5942 15.712C33.4492 14.0636 37.0231 14.3354 39.596 16.3967L47.7337 22.916ZM22.8457 51.57C21.4108 52.3984 19.576 51.9068 18.7476 50.4719C17.9192 49.037 18.4108 47.2022 19.8457 46.3738C21.2806 45.5454 23.1153 46.037 23.9438 47.4719C24.7722 48.9068 24.2806 50.7415 22.8457 51.57ZM50.5585 35.57C51.9934 34.7415 52.485 32.9068 51.6566 31.4719C50.8282 30.037 48.9934 29.5454 47.5585 30.3738C46.1236 31.2022 45.632 33.037 46.4604 34.4719C47.2889 35.9068 49.1236 36.3984 50.5585 35.57ZM56.1028 57.2498C58.5143 55.8575 61.4855 55.8575 63.897 57.2498C66.3085 58.6421 67.7941 61.2152 67.7941 63.9998C67.7941 64.6841 67.7044 65.3556 67.5333 65.9999H52.4665C52.2954 65.3556 52.2057 64.6841 52.2057 63.9998C52.2057 61.2152 53.6912 58.6421 56.1028 57.2498Z" stroke="currentColor" stroke-linecap="round" stroke-linejoin="round" />
</svg>