<svg viewBox="0 0 80 80" fill="none">
  <path d="M8.8125 49C8.8125 49.2761 9.03636 49.5 9.3125 49.5H46.3938C52.695 49.5 58.8086 47.3555 63.729 43.4191L69.6551 38.6783C71.2723 37.3845 71.5345 35.0246 70.2408 33.4074C68.947 31.7902 66.5871 31.528 64.9699 32.8217L59.0438 37.5626C58.2404 38.2054 57.2235 38.5 56.1945 38.5H34.8124C34.6744 38.5 34.5625 38.3881 34.5625 38.2501C34.5625 38.1146 34.6705 38.0037 34.806 38.0018C34.897 38.0006 34.988 38 35.0791 38H44.8125C46.8836 38 48.5625 36.3211 48.5625 34.25C48.5625 32.1789 46.8836 30.5 44.8125 30.5H35.0791C30.4929 30.5 25.9925 31.6364 21.974 33.7894C20.6071 34.5218 19.1042 35 17.5535 35H9.3125C9.03636 35 8.8125 35.2239 8.8125 35.5V49Z" fill="currentColor" fill-opacity="0.25" stroke="currentColor" stroke-linecap="round" stroke-linejoin="round" />
</svg>