<svg viewBox="0 0 80 80" fill="none">
  <path d="M52.0664 50.3648C51.3559 53.9226 49.1115 56.9855 45.933 58.7348C42.239 60.7678 37.7613 60.7678 34.0673 58.7348C30.8889 56.9855 28.6445 53.9226 27.9339 50.3648L27.5174 48.2792C27.0039 45.7081 27.2289 43.0694 28.131 40.6562C31.7081 42.8047 35.8061 43.9431 39.9876 43.9431C44.177 43.9431 48.2827 42.8003 51.8647 40.6438C52.7707 43.0604 52.9973 45.7038 52.4829 48.2792L52.0664 50.3648Z" fill="currentColor" fill-opacity="0.25" />
  <path d="M55.5873 23.2313L52.9789 30.4664H27.0215L24.4131 23.2313C29.3509 21.2696 34.6381 20.2485 40.0001 20.2485C45.3622 20.2485 50.6494 21.2697 55.5873 23.2313Z" fill="currentColor" fill-opacity="0.25" />
  <path d="M54.1869 39.0443C53.6249 39.4844 53.0412 39.8994 52.4373 40.2875C48.7236 42.6742 44.4021 43.9431 39.9876 43.9431C35.573 43.9431 31.2515 42.6742 27.5378 40.2875C26.9339 39.8994 26.3501 39.4844 25.7882 39.0442L27.0088 37.4664H52.9662L54.1869 39.0443Z" fill="currentColor" fill-opacity="0.25" />
  <path d="M27.0002 30.4664H53.0002V37.4664H27.0002V30.4664Z" fill="currentColor" fill-opacity="0.25" />
  <path d="M39.9876 43.9431C35.8061 43.9431 31.7081 42.8047 28.131 40.6562C27.2289 43.0694 27.0039 45.7081 27.5174 48.2792L27.9339 50.3648C28.6445 53.9226 30.8889 56.9855 34.0673 58.7348C37.7613 60.7678 42.239 60.7678 45.933 58.7348C49.1115 56.9855 51.3559 53.9226 52.0664 50.3648L52.4829 48.2792C52.9973 45.7038 52.7707 43.0604 51.8647 40.6438C48.2827 42.8003 44.177 43.9431 39.9876 43.9431ZM39.9876 43.9431C44.4021 43.9431 48.7236 42.6742 52.4373 40.2875C53.0412 39.8994 53.6249 39.4844 54.1869 39.0443L52.9662 37.4664H27.0088L25.7882 39.0442C26.3501 39.4844 26.9339 39.8994 27.5378 40.2875C31.2515 42.6742 35.573 43.9431 39.9876 43.9431ZM55.5873 23.2313L52.9789 30.4664H27.0215L24.4131 23.2313C29.3509 21.2696 34.6381 20.2485 40.0001 20.2485C45.3622 20.2485 50.6494 21.2697 55.5873 23.2313ZM27.0002 30.4664H53.0002V37.4664H27.0002V30.4664Z" stroke="currentColor" stroke-linecap="round" stroke-linejoin="round" />
</svg>