<svg viewBox="0 0 80 80" fill="none">
  <path d="M16 14C16 12.8954 16.8954 12 18 12H62C63.1046 12 64 12.8954 64 14V66C64 67.1046 63.1046 68 62 68H18C16.8954 68 16 67.1046 16 66V14Z" fill="currentColor" fill-opacity="0.25" />
  <path d="M25 21C25 19.3431 26.3431 18 28 18H52C53.6569 18 55 19.3431 55 21V53C55 54.6569 53.6569 56 52 56H28C26.3431 56 25 54.6569 25 53V21Z" fill="currentColor" fill-opacity="0.25" />
  <path d="M46 62H34M18 68H62C63.1046 68 64 67.1046 64 66V14C64 12.8954 63.1046 12 62 12H18C16.8954 12 16 12.8954 16 14V66C16 67.1046 16.8954 68 18 68ZM28 56H52C53.6569 56 55 54.6569 55 53V21C55 19.3431 53.6569 18 52 18H28C26.3431 18 25 19.3431 25 21V53C25 54.6569 26.3431 56 28 56Z" stroke="currentColor" stroke-linecap="round" stroke-linejoin="round" />
</svg>