<svg viewBox="0 0 80 80" fill="none">
  <path d="M56.8638 25.6073C57.5923 26.3543 58 27.3565 58 28.3999V36.9516C58 36.9785 57.9781 37.0004 57.9512 37.0004H22.0536C22.024 37.0004 22 36.9764 22 36.9468V16.0024C22 13.7931 23.7911 12.0022 26.0005 12.0024L41.9125 12.0042C42.9907 12.0044 44.0231 12.4397 44.7758 13.2116L44.8342 13.2715C44.358 12.8657 43.6 13.1985 43.6 13.8468V22.77C43.6 24.9791 45.3909 26.77 47.6 26.77H56.2C56.8527 26.77 57.1929 26.0067 56.7809 25.5224L56.8638 25.6073Z" fill="currentColor" fill-opacity="0.25" />
  <path d="M56.7434 25.4805L44.8888 13.3219C44.4185 12.8395 43.6 13.1731 43.6 13.8468V22.77C43.6 24.9791 45.3909 26.77 47.6 26.77H56.2C56.8715 26.77 57.2122 25.9614 56.7434 25.4805Z" fill="currentColor" fill-opacity="0.25" />
  <path d="M22 49C22 47.8954 22.8954 47 24 47H56C57.1046 47 58 47.8954 58 49V66C58 67.1046 57.1046 68 56 68H24C22.8954 68 22 67.1046 22 66V49Z" fill="currentColor" fill-opacity="0.25" />
  <path d="M22 57H12.625C12.2798 57 12 56.7202 12 56.375V44C12 40.134 15.134 37 19 37H61C64.866 37 68 40.134 68 44V56.375C68 56.7202 67.7202 57 67.375 57H58V49C58 47.8954 57.1046 47 56 47H24C22.8954 47 22 47.8954 22 49V57Z" fill="currentColor" fill-opacity="0.25" />
  <path d="M43.6 13.8468C43.6 13.1985 44.358 12.8657 44.8342 13.2715L44.7758 13.2116C44.0231 12.4397 42.9907 12.0044 41.9125 12.0042L26.0005 12.0024C23.7911 12.0022 22 13.7931 22 16.0024V36.9468C22 36.9764 22.024 37.0004 22.0536 37.0004H57.9512C57.9781 37.0004 58 36.9785 58 36.9516V28.3999C58 27.3565 57.5923 26.3543 56.8638 25.6073L56.7809 25.5224C57.1929 26.0067 56.8527 26.77 56.2 26.77M43.6 13.8468V22.77C43.6 24.9791 45.3909 26.77 47.6 26.77H56.2M43.6 13.8468C43.6 13.1731 44.4185 12.8395 44.8888 13.3219L56.7434 25.4805C57.2122 25.9614 56.8715 26.77 56.2 26.77M58 49V66C58 67.1046 57.1046 68 56 68H24C22.8954 68 22 67.1046 22 66V49M58 49C58 47.8954 57.1046 47 56 47H24C22.8954 47 22 47.8954 22 49M58 49V57H67.375C67.7202 57 68 56.7202 68 56.375V44C68 40.134 64.866 37 61 37H19C15.134 37 12 40.134 12 44V56.375C12 56.7202 12.2798 57 12.625 57H22V49" stroke="currentColor" stroke-linecap="round" stroke-linejoin="round" />
</svg>