<svg viewBox="0 0 80 80" fill="none">
  <path d="M56.3735 64.4145L60.9482 20.4973C60.9759 20.2314 60.7673 20 60.5 20H19.5C19.2327 20 19.0241 20.2314 19.0518 20.4973L23.6265 64.4145C23.8388 66.4521 25.5563 68 27.605 68H52.395C54.4437 68 56.1612 66.4521 56.3735 64.4145Z" fill="currentColor" fill-opacity="0.25" />
  <path d="M52.1449 19.9986H27.8551L33.9256 12.3865H46.0744L52.1449 19.9986Z" fill="currentColor" fill-opacity="0.25" />
  <path d="M56.3735 64.4145L60.9482 20.4973C60.9759 20.2314 60.7673 20 60.5 20H19.5C19.2327 20 19.0241 20.2314 19.0518 20.4973L23.6265 64.4145M56.3735 64.4145C56.1612 66.4521 54.4437 68 52.395 68H27.605C25.5563 68 23.8388 66.4521 23.6265 64.4145M56.3735 64.4145L61 20M23.6265 64.4145L19 20M61 20H19M61 20H65M19 20H15M27.8551 19.9986H52.1449L46.0744 12.3865H33.9256L27.8551 19.9986Z" stroke="currentColor" stroke-linecap="round" stroke-linejoin="round" />
</svg>