<svg viewBox="0 0 80 80" fill="none">
  <path d="M12 22V58C12 61.3137 14.6863 64 18 64H62C65.3137 64 68 61.3137 68 58V30C68 26.6863 65.3137 24 62 24H60V22C60 18.6863 57.3137 16 54 16H18C14.6863 16 12 18.6863 12 22Z" fill="currentColor" fill-opacity="0.25" />
  <path d="M52 43C52 40.7909 53.7909 39 56 39C58.2091 39 60 40.7909 60 43C60 45.2091 58.2091 47 56 47C53.7909 47 52 45.2091 52 43Z" fill="currentColor" fill-opacity="0.25" />
  <path d="M60 24V22C60 18.6863 57.3137 16 54 16H18C14.6863 16 12 18.6863 12 22V58C12 61.3137 14.6863 64 18 64H62C65.3137 64 68 61.3137 68 58V30C68 26.6863 65.3137 24 62 24H60ZM60 24H22.5M56 47C53.7909 47 52 45.2091 52 43C52 40.7909 53.7909 39 56 39C58.2091 39 60 40.7909 60 43C60 45.2091 58.2091 47 56 47Z" stroke="currentColor" stroke-linecap="round" stroke-linejoin="round" />
</svg>