<svg viewBox="0 0 80 80" fill="none">
  <path d="M29.3333 46.4C28.2288 46.4 27.3333 47.2954 27.3333 48.4C27.3333 49.5046 28.2288 50.4 29.3333 50.4V46.4ZM50.6667 50.4C51.7712 50.4 52.6667 49.5046 52.6667 48.4C52.6667 47.2954 51.7712 46.4 50.6667 46.4V50.4ZM39.4342 16.4113L37.5317 15.7943V15.7943L39.4342 16.4113ZM22.0976 63.383C21.7568 64.4337 22.3323 65.5617 23.383 65.9024C24.4337 66.2432 25.5617 65.6677 25.9024 64.617L22.0976 63.383ZM40.5658 16.4113L42.4683 15.7943V15.7943L40.5658 16.4113ZM54.0976 64.617C54.4383 65.6677 55.5663 66.2432 56.617 65.9024C57.6677 65.5617 58.2432 64.4337 57.9024 63.383L54.0976 64.617ZM29.3333 50.4H50.6667V46.4H29.3333V50.4ZM37.5317 15.7943L22.0976 63.383L25.9024 64.617L41.3366 17.0283L37.5317 15.7943ZM38.6634 17.0283L54.0976 64.617L57.9024 63.383L42.4683 15.7943L38.6634 17.0283ZM40 18C39.391 18 38.8513 17.6077 38.6634 17.0283L42.4683 15.7943C42.1213 14.7245 41.1247 14 40 14V18ZM41.3366 17.0283C41.1487 17.6077 40.609 18 40 18V14C38.8753 14 37.8787 14.7245 37.5317 15.7943L41.3366 17.0283Z" fill="currentColor" />
</svg>