<svg viewBox="0 0 80 80" fill="none">
  <path opacity="0.25" d="M26.2764 16C34.8508 11.0496 45.4148 11.0496 53.9892 16C62.5636 20.9504 67.8456 30.0992 67.8456 40C67.8456 49.9008 62.5636 59.0496 53.9892 64C45.4148 68.9504 34.8508 68.9504 26.2764 64C17.702 59.0496 12.42 49.9008 12.42 40C12.42 30.0992 17.702 20.9504 26.2764 16Z" fill="currentColor" />
  <path fill-rule="evenodd" clip-rule="evenodd" d="M40.133 22.6794C37.1426 22.6794 34.1522 23.4529 31.4728 25C26.1138 28.094 22.8125 33.8119 22.8125 40C22.8125 46.188 26.1138 51.9059 31.4728 55C34.1522 56.547 37.1426 57.3205 40.133 57.3205L40.133 22.6794Z" fill="currentColor" />
</svg>