<svg viewBox="0 0 80 80" fill="none">
  <path opacity="0.5" fill-rule="evenodd" clip-rule="evenodd" d="M27.4221 20.1955C22.0199 19.0472 16.989 21.1819 16.1852 24.9634L4.49482 51.1041C3.1169 57.5867 9.00678 64.3312 17.6502 66.1684C26.2937 68.0056 34.4176 64.2398 35.7955 57.7572L35.7482 29.1216C36.552 25.3401 32.8243 21.3437 27.4221 20.1955ZM18.6898 61.2777C24.6322 62.5408 30.101 60.4992 30.9048 56.7177C31.7086 52.9362 27.5429 48.8467 21.6006 47.5836C15.6582 46.3205 10.1893 48.3621 9.38556 52.1436C8.58177 55.9251 12.7474 60.0146 18.6898 61.2777Z" fill="currentColor" />
  <path opacity="0.25" fill-rule="evenodd" clip-rule="evenodd" d="M28.6695 14.3265C32.4511 15.1303 35.1442 17.5336 34.6849 19.6944L33.8531 23.608C32.3461 22.0223 30.088 20.762 27.4221 20.1954C24.7562 19.6287 22.1807 19.8615 20.159 20.6972L20.9909 16.7837C21.4502 14.6228 24.888 13.5227 28.6695 14.3265Z" fill="currentColor" />
  <ellipse cx="20.1453" cy="54.4307" rx="11" ry="7" transform="rotate(12 20.1453 54.4307)" fill="currentColor" />
  <path opacity="0.5" fill-rule="evenodd" clip-rule="evenodd" d="M52.3733 20.1955C57.7755 19.0472 62.8064 21.1819 63.6102 24.9634L75.3006 51.1041C76.6785 57.5867 70.7886 64.3312 62.1452 66.1684C53.5017 68.0056 45.3778 64.2398 43.9999 57.7572L44.0472 29.1216C43.2434 25.3401 46.9712 21.3437 52.3733 20.1955ZM61.1056 61.2777C55.1632 62.5408 49.6944 60.4992 48.8906 56.7177C48.0868 52.9362 52.2525 48.8467 58.1948 47.5836C64.1372 46.3205 69.6061 48.3621 70.4099 52.1436C71.2136 55.9251 67.048 60.0146 61.1056 61.2777Z" fill="currentColor" />
  <path opacity="0.25" fill-rule="evenodd" clip-rule="evenodd" d="M51.1259 14.3265C47.3444 15.1303 44.6512 17.5336 45.1105 19.6944L45.9423 23.608C47.4493 22.0223 49.7074 20.762 52.3733 20.1954C55.0392 19.6287 57.6147 19.8615 59.6364 20.6972L58.8045 16.7837C58.3452 14.6228 54.9074 13.5227 51.1259 14.3265Z" fill="currentColor" />
  <ellipse rx="11" ry="7" transform="matrix(-0.978148 0.207912 0.207912 0.978148 59.6501 54.4307)" fill="currentColor" />
  <path opacity="0.25" fill-rule="evenodd" clip-rule="evenodd" d="M44.0446 30.7476H35.751L35.7774 46.7476H44.0182L44.0446 30.7476Z" fill="currentColor" />
</svg>