<svg viewBox="0 0 80 80" fill="none">
  <path d="M24 38.6464H22H24ZM28.5366 54.705L30.1226 53.4866L30.1226 53.4865L28.5366 54.705ZM28.7126 54.9341L27.1266 56.1525L27.1266 56.1525L28.7126 54.9341ZM56.8615 62.3047C57.8583 61.8289 58.2807 60.6351 57.805 59.6382C57.3292 58.6414 56.1354 58.219 55.1385 58.6947L56.8615 62.3047ZM54.6417 61.148L55.5032 62.9529H55.5032L54.6417 61.148ZM28.5366 25.2945L26.9506 24.076L26.9506 24.076L28.5366 25.2945ZM28.7126 25.0654L30.2986 26.2838L30.2986 26.2838L28.7126 25.0654ZM55.1385 21.3047C56.1354 21.7805 57.3292 21.358 57.805 20.3612C58.2807 19.3643 57.8583 18.1705 56.8615 17.6948L55.1385 21.3047ZM54.6417 18.8515L55.5032 17.0465V17.0465L54.6417 18.8515ZM42.131 17.0572L42.4504 19.0315L42.131 17.0572ZM42.131 62.9422L42.4504 60.9679H42.4504L42.131 62.9422ZM22 38.6464V41.3531H26V38.6464H22ZM26.9506 55.9234L27.1266 56.1525L30.2986 53.7156L30.1226 53.4866L26.9506 55.9234ZM55.1385 58.6947L53.7803 59.343L55.5032 62.9529L56.8615 62.3047L55.1385 58.6947ZM30.1226 26.5129L30.2986 26.2838L27.1266 23.847L26.9506 24.076L30.1226 26.5129ZM56.8615 17.6948L55.5032 17.0465L53.7803 20.6564L55.1385 21.3047L56.8615 17.6948ZM42.4504 19.0315C46.3044 18.4079 50.2569 18.9748 53.7803 20.6564L55.5032 17.0465C51.2453 15.0143 46.4689 14.3293 41.8115 15.0829L42.4504 19.0315ZM41.8115 64.9166C46.4689 65.6701 51.2453 64.9851 55.5032 62.9529L53.7803 59.343C50.2569 61.0246 46.3044 61.5915 42.4504 60.9679L41.8115 64.9166ZM27.1266 56.1525C30.7262 60.8381 35.9787 63.9728 41.8115 64.9166L42.4504 60.9679C37.6238 60.187 33.2773 57.593 30.2986 53.7156L27.1266 56.1525ZM22 41.3531C22 46.6226 23.7403 51.7446 26.9506 55.9234L30.1226 53.4865C27.4492 50.0067 26 45.7413 26 41.3531H22ZM30.2986 26.2838C33.2773 22.4065 37.6238 19.8125 42.4504 19.0315L41.8115 15.0829C35.9787 16.0266 30.7262 19.1613 27.1266 23.847L30.2986 26.2838ZM26 38.6464C26 34.2581 27.4493 29.9928 30.1226 26.5129L26.9506 24.076C23.7403 28.2548 22 33.3768 22 38.6464H26Z" fill="currentColor" />
</svg>