<svg viewBox="0 0 80 80" fill="none">
  <g opacity="0.25">
    <path fill-rule="evenodd" clip-rule="evenodd" d="M17.1894 52.3071C16.7399 51.4874 16.3331 50.6401 15.9719 49.7681C13.3464 43.4296 13.3464 36.3077 15.9719 29.9691C18.5975 23.6306 23.6334 18.5946 29.9719 15.9691C36.3105 13.3436 43.4324 13.3436 49.7709 15.9691C56.1095 18.5946 61.1454 23.6306 63.7709 29.9691C66.3964 36.3077 66.3964 43.4296 63.7709 49.7681C61.1454 56.1067 56.1095 61.1426 49.7709 63.7681C43.4324 66.3936 36.3105 66.3936 29.9719 63.7681C29.0985 63.4063 28.2498 62.9988 27.4287 62.5483L13 66.7373L17.1894 52.3071Z" fill="currentColor" />
    <path d="M15.9719 49.7681L17.8197 49.0028L15.9719 49.7681ZM17.1894 52.3071L19.1101 52.8647C19.2577 52.3562 19.1977 51.8098 18.9431 51.3455L17.1894 52.3071ZM15.9719 29.9691L17.8197 30.7345H17.8197L15.9719 29.9691ZM29.9719 15.9691L30.7373 17.8169L29.9719 15.9691ZM49.7709 15.9691L49.0056 17.8169L49.7709 15.9691ZM63.7709 29.9691L61.9232 30.7345L63.7709 29.9691ZM63.7709 49.7681L61.9232 49.0028V49.0028L63.7709 49.7681ZM49.7709 63.7681L50.5363 65.6159L49.7709 63.7681ZM29.9719 63.7681L30.7373 61.9204H30.7373L29.9719 63.7681ZM27.4287 62.5483L28.3906 60.7949C27.9263 60.5401 27.3798 60.4799 26.8711 60.6276L27.4287 62.5483ZM13 66.7373L11.0793 66.1797C10.8759 66.8801 11.07 67.6358 11.5858 68.1515C12.1015 68.6673 12.8572 68.8614 13.5576 68.658L13 66.7373ZM14.1242 50.5335C14.5132 51.4728 14.9515 52.3856 15.4358 53.2687L18.9431 51.3455C18.5283 50.5892 18.153 49.8074 17.8197 49.0028L14.1242 50.5335ZM14.1242 29.2038C11.2957 36.0324 11.2957 43.7049 14.1242 50.5335L17.8197 49.0028C15.3972 43.1543 15.3972 36.583 17.8197 30.7345L14.1242 29.2038ZM29.2066 14.1214C22.378 16.9499 16.9527 22.3752 14.1242 29.2038L17.8197 30.7345C20.2422 24.886 24.8888 20.2394 30.7373 17.8169L29.2066 14.1214ZM50.5363 14.1214C43.7077 11.2929 36.0352 11.2929 29.2066 14.1214L30.7373 17.8169C36.5858 15.3944 43.1571 15.3944 49.0056 17.8169L50.5363 14.1214ZM65.6187 29.2038C62.7902 22.3752 57.3649 16.9499 50.5363 14.1214L49.0056 17.8169C54.8541 20.2394 59.5007 24.886 61.9232 30.7345L65.6187 29.2038ZM65.6187 50.5335C68.4472 43.7049 68.4472 36.0324 65.6187 29.2038L61.9232 30.7345C64.3457 36.583 64.3457 43.1543 61.9232 49.0028L65.6187 50.5335ZM50.5363 65.6159C57.3649 62.7874 62.7902 57.3621 65.6187 50.5335L61.9232 49.0028C59.5007 54.8512 54.854 59.4978 49.0056 61.9204L50.5363 65.6159ZM29.2066 65.6159C36.0352 68.4444 43.7077 68.4444 50.5363 65.6159L49.0056 61.9204C43.1571 64.3429 36.5858 64.3429 30.7373 61.9204L29.2066 65.6159ZM26.4668 64.3018C27.3514 64.7871 28.2657 65.2262 29.2066 65.6159L30.7373 61.9204C29.9313 61.5865 29.1482 61.2104 28.3906 60.7949L26.4668 64.3018ZM26.8711 60.6276L12.4424 64.8166L13.5576 68.658L27.9863 64.469L26.8711 60.6276ZM14.9207 67.2949L19.1101 52.8647L15.2687 51.7495L11.0793 66.1797L14.9207 67.2949Z" fill="currentColor" />
  </g>
  <path d="M24.5605 46.2128C26.2431 50.275 29.4705 53.5023 33.5326 55.1849C37.5947 56.8675 42.1589 56.8675 46.221 55.1849C50.2831 53.5023 53.5104 50.275 55.193 46.2128C56.8756 42.1507 56.8756 37.5866 55.193 33.5245C53.5104 29.4623 50.2831 26.235 46.221 24.5524C42.1589 22.8698 37.5947 22.8698 33.5326 24.5524C29.4705 26.235 26.2431 29.4623 24.5605 33.5245C22.878 37.5866 22.878 42.1507 24.5605 46.2128Z" fill="currentColor" />
</svg>