<svg viewBox="0 0 80 80" fill="none">
  <path opacity="0.25" fill-rule="evenodd" clip-rule="evenodd" d="M46 19V15C46 13.8954 45.1046 13 44 13L36 13C34.8954 13 34 13.8954 34 15V19V25.2333V25.636V26.1006V26.5653C34 26.8054 33.8054 27 33.5653 27H26L22 27C20.8954 27 20 27.8954 20 29V37C20 38.1046 20.8954 39 22 39H26H33.9512C33.9782 39 34 39.0218 34 39.0488L34 61V65C34 66.1046 34.8954 67 36 67H44C45.1046 67 46 66.1046 46 65V61L46 39.0488C46 39.0218 46.0218 39 46.0488 39L54 39H58C59.1046 39 60 38.1046 60 37L60 29C60 27.8954 59.1046 27 58 27H54L46.4347 27C46.1946 27 46 26.8054 46 26.5653V26.1006V25.636V25.2333V19Z" fill="currentColor" />
  <path fill-rule="evenodd" clip-rule="evenodd" d="M42 19V18C42 17.4477 41.5523 17 41 17H39C38.4477 17 38 17.4477 38 18V19V25.2333V25.636V26.1006V26.5653V27.0299V27.4326V27.8043V28.3V28.6407V29.0434V29.3841V29.7868V30C38 30.5523 37.5523 31 37 31H26H25C24.4477 31 24 31.4477 24 32V34C24 34.5523 24.4477 35 25 35H26H37.6064C37.8238 35 38 35.1762 38 35.3936V35.7653V36.075V36.4777V36.9114V37.2212V37.469V37.9026V38.3363V38.739V39.0488L38 61V62C38 62.5523 38.4477 63 39 63H41C41.5523 63 42 62.5523 42 62V61L42 39.0488V38.739V38.3363V37.9026V37.469V37.2212V36.9114V36.4777V36.075V35.7653V35.3936C42 35.1762 42.1762 35 42.3936 35H54H55C55.5523 35 56 34.5523 56 34V32C56 31.4477 55.5523 31 55 31H54L43 31C42.4477 31 42 30.5523 42 30V29.7868V29.3841V29.0434V28.6407V28.3V27.8043V27.4326V27.0299V26.5653V26.1006V25.636V25.2333V19Z" fill="currentColor" />
</svg>