<svg viewBox="0 0 80 80" fill="none">
  <path opacity="0.5" fill-rule="evenodd" clip-rule="evenodd" d="M12 18C12 15.7909 13.7909 14 16 14L27.3255 14C28.448 14 29.5189 14.4717 30.2767 15.2999L33.3835 18.6957L33.7597 19.1069L34.1359 19.5181L34.4757 19.8895C34.6922 20.1261 34.9982 20.2609 35.3189 20.2609L64 20.2609C66.2091 20.2609 68 22.0517 68 24.2609V34C68 31.7909 66.2091 30 64 30V29V28C64 26.3431 62.6569 25 61 25H60L20 25H19C17.3431 25 16 26.3431 16 28V29L16 30C13.7909 30 12 31.7909 12 34L12 24.2609L12 18Z" fill="currentColor" />
  <path d="M12 34C12 31.7909 13.7909 30 16 30L64 30C66.2091 30 68 31.7909 68 34V62C68 64.2091 66.2091 66 64 66H16C13.7909 66 12 64.2091 12 62L12 34Z" fill="currentColor" />
  <path opacity="0.1" fill-rule="evenodd" clip-rule="evenodd" d="M20 25C17.7909 25 16 26.7909 16 29V30C16 30 16 30 16 30L64 30L64 29C64 26.7909 62.2091 25 60 25L20 25Z" fill="currentColor" />
</svg>