<svg viewBox="0 0 80 80" fill="none">
  <path opacity="0.25" d="M36 20H44L47.43 68.0203C47.738 72.3323 44.3229 76 40 76C35.6771 76 32.262 72.3323 32.57 68.0203L36 20Z" fill="currentColor" stroke="currentColor" stroke-width="4" stroke-linecap="round" stroke-linejoin="round" />
  <path fill-rule="evenodd" clip-rule="evenodd" d="M20 20C20 11.1634 27.1634 4 36 4H48L48 6H54V4H60V20H54V18H48L48 20H20Z" fill="currentColor" />
  <path d="M20 20H18C18 21.1046 18.8954 22 20 22V20ZM48 4L50 4C50 3.46957 49.7893 2.96086 49.4142 2.58579C49.0391 2.21071 48.5304 2 48 2V4ZM48 6L46 6C46 6.53043 46.2107 7.03914 46.5858 7.41421C46.9609 7.78929 47.4696 8 48 8V6ZM54 6V8C55.1046 8 56 7.10457 56 6H54ZM54 4V2C52.8954 2 52 2.89543 52 4H54ZM60 4H62C62 2.89543 61.1046 2 60 2V4ZM60 20V22C61.1046 22 62 21.1046 62 20H60ZM54 20H52C52 21.1046 52.8954 22 54 22V20ZM54 18H56C56 16.8954 55.1046 16 54 16V18ZM48 18V16C47.4696 16 46.9609 16.2107 46.5858 16.5858C46.2107 16.9609 46 17.4696 46 18L48 18ZM48 20V22C48.5304 22 49.0391 21.7893 49.4142 21.4142C49.7893 21.0391 50 20.5304 50 20L48 20ZM36 2C26.0589 2 18 10.0589 18 20H22C22 12.268 28.268 6 36 6V2ZM48 2H36V6H48V2ZM50 6L50 4L46 4L46 6L50 6ZM48 8H54V4H48V8ZM52 4V6H56V4H52ZM60 2H54V6H60V2ZM62 20V4H58V20H62ZM54 22H60V18H54V22ZM52 18V20H56V18H52ZM54 16H48V20H54V16ZM50 20L50 18L46 18L46 20L50 20ZM20 22H48V18H20V22Z" fill="currentColor" />
</svg>