<svg viewBox="0 0 80 80" fill="none">
  <path opacity="0.25" d="M67.4226 39C67.7799 39.6188 67.7799 40.3812 67.4226 41L54.5773 63.2487C54.2201 63.8675 53.5598 64.2487 52.8453 64.2487L27.1547 64.2487C26.4402 64.2487 25.7799 63.8675 25.4226 63.2487L12.5773 41C12.2201 40.3812 12.2201 39.6188 12.5773 39L25.4226 16.7513C25.7799 16.1325 26.4402 15.7513 27.1547 15.7513L52.8453 15.7513C53.5598 15.7513 54.2201 16.1325 54.5774 16.7513L67.4226 39Z" fill="currentColor" stroke="currentColor" stroke-width="4" stroke-linecap="square" />
  <path opacity="0.25" d="M67.4226 39C67.7799 39.6188 67.7799 40.3812 67.4226 41L54.5773 63.2487C54.2201 63.8675 53.5598 64.2487 52.8453 64.2487L27.1547 64.2487C26.4402 64.2487 25.7799 63.8675 25.4226 63.2487L12.5773 41C12.2201 40.3812 12.2201 39.6188 12.5773 39L25.4226 16.7513C25.7799 16.1325 26.4402 15.7513 27.1547 15.7513L52.8453 15.7513C53.5598 15.7513 54.2201 16.1325 54.5774 16.7513L67.4226 39Z" fill="currentColor" stroke="currentColor" stroke-width="4" stroke-linecap="square" />
  <path d="M55.6651 39.4318C55.8718 39.7826 55.8718 40.218 55.6651 40.5688L48.3249 53.0281C48.1236 53.3698 47.7565 53.5796 47.3599 53.5796L32.6401 53.5796C32.2435 53.5796 31.8764 53.3698 31.6751 53.0281L24.3349 40.5688C24.1282 40.218 24.1282 39.7826 24.3349 39.4318L31.6751 26.9725C31.8764 26.6308 32.2435 26.421 32.6401 26.421L47.3599 26.421C47.7565 26.421 48.1236 26.6308 48.3249 26.9725L55.6651 39.4318Z" fill="currentColor" stroke="currentColor" stroke-width="2.24" stroke-linecap="square" />
</svg>