<svg viewBox="0 0 80 80" fill="none">
  <path opacity="0.25" d="M30.1692 15.7566L30.9345 17.6043L30.9345 17.6043L30.1692 15.7566ZM25.2195 20.9687C24.3547 21.6559 23.0966 21.512 22.4094 20.6472C21.7222 19.7824 21.8662 18.5243 22.7309 17.8371L25.2195 20.9687ZM22.7163 17.8487C23.5806 17.161 24.8388 17.3041 25.5266 18.1684C26.2144 19.0327 26.0713 20.2909 25.207 20.9787L22.7163 17.8487ZM25.1416 21.0309C24.2797 21.7217 23.021 21.5831 22.3301 20.7212C21.6393 19.8593 21.778 18.6006 22.6399 17.9097L25.1416 21.0309ZM49.9681 15.7566L49.2028 17.6043L49.9681 15.7566ZM63.9681 29.7566L65.8159 28.9912L65.8159 28.9912L63.9681 29.7566ZM63.9681 49.5556L65.8159 50.3209L65.8159 50.3209L63.9681 49.5556ZM49.9681 63.5556L50.7335 65.4033L49.9681 63.5556ZM30.1692 63.5556L29.4038 65.4033L30.1692 63.5556ZM27.2358 64.3943C26.2553 63.8857 25.8727 62.6786 26.3813 61.6981C26.8899 60.7176 28.097 60.335 29.0776 60.8436L27.2358 64.3943ZM30.9345 17.6043C28.8636 18.4621 26.9436 19.5987 25.2195 20.9687L22.7309 17.8371C24.744 16.2374 26.986 14.9103 29.4038 13.9088L30.9345 17.6043ZM25.207 20.9787C25.1851 20.9961 25.1633 21.0135 25.1416 21.0309L22.6399 17.9097C22.6654 17.8894 22.6908 17.869 22.7163 17.8487L25.207 20.9787ZM49.2028 17.6043C43.3543 15.1818 36.783 15.1818 30.9345 17.6043L29.4038 13.9088C36.2324 11.0803 43.9049 11.0803 50.7335 13.9088L49.2028 17.6043ZM62.1204 30.5219C59.6979 24.6735 55.0513 20.0269 49.2028 17.6043L50.7335 13.9088C57.5621 16.7373 62.9874 22.1626 65.8159 28.9912L62.1204 30.5219ZM62.1204 48.7902C64.5429 42.9417 64.5429 36.3704 62.1204 30.5219L65.8159 28.9912C68.6444 35.8198 68.6444 43.4923 65.8159 50.3209L62.1204 48.7902ZM49.2028 61.7078C55.0513 59.2853 59.6979 54.6387 62.1204 48.7902L65.8159 50.3209C62.9874 57.1495 57.5621 62.5748 50.7335 65.4033L49.2028 61.7078ZM30.9345 61.7078C36.783 64.1303 43.3543 64.1303 49.2028 61.7078L50.7335 65.4033C43.9049 68.2318 36.2324 68.2318 29.4038 65.4033L30.9345 61.7078ZM29.4038 65.4033C28.6642 65.097 27.941 64.7601 27.2358 64.3943L29.0776 60.8436C29.6815 61.1569 30.301 61.4454 30.9345 61.7078L29.4038 65.4033Z" fill="currentColor" />
  <path d="M30.3364 25.916L18.4517 14.0312C17.2523 12.8319 15.2017 13.6813 15.2017 15.3774L15.2017 26.166C15.2017 27.8229 16.5448 29.166 18.2017 29.166L28.9903 29.166C30.6864 29.166 31.5358 27.1154 30.3364 25.916Z" fill="currentColor" stroke="currentColor" stroke-width="4" stroke-linecap="round" stroke-linejoin="round" />
  <path d="M47.274 31.6054C47.9451 30.7282 47.7781 29.4729 46.9008 28.8017C46.0236 28.1305 44.7683 28.2976 44.0971 29.1748L47.274 31.6054ZM39.2363 35.5281C38.5651 36.4054 38.7321 37.6606 39.6094 38.3318C40.4866 39.003 41.7419 38.836 42.4131 37.9587L39.2363 35.5281ZM51.919 48.7731C52.8791 49.3192 54.1001 48.9837 54.6463 48.0236C55.1925 47.0635 54.8569 45.8425 53.8969 45.2963L51.919 48.7731ZM42.599 38.8691C41.6389 38.3229 40.4178 38.6585 39.8717 39.6186C39.3255 40.5786 39.661 41.7997 40.6211 42.3459L42.599 38.8691ZM38.001 39.1256C38.001 38.5734 38.4487 38.1256 39.001 38.1256V34.1256C36.2396 34.1256 34.001 36.3642 34.001 39.1256H38.001ZM39.001 40.1256C38.4487 40.1256 38.001 39.6779 38.001 39.1256H34.001C34.001 41.8871 36.2396 44.1256 39.001 44.1256V40.1256ZM40.001 39.1256C40.001 39.6779 39.5533 40.1256 39.001 40.1256V44.1256C41.7624 44.1256 44.001 41.8871 44.001 39.1256H40.001ZM39.001 38.1256C39.5533 38.1256 40.001 38.5734 40.001 39.1256H44.001C44.001 36.3642 41.7624 34.1256 39.001 34.1256V38.1256ZM44.0971 29.1748L39.2363 35.5281L42.4131 37.9587L47.274 31.6054L44.0971 29.1748ZM53.8969 45.2963L42.599 38.8691L40.6211 42.3459L51.919 48.7731L53.8969 45.2963Z" fill="currentColor" />
</svg>