<svg viewBox="0 0 80 80" fill="none">
  <path fill-rule="evenodd" clip-rule="evenodd" d="M27.201 45.0004C21.7337 50.4677 21.7337 59.3321 27.201 64.7994C32.6683 70.2667 41.5327 70.2667 47 64.7994L56.8995 54.8999L37.1005 35.1009L27.201 45.0004Z" fill="currentColor" />
  <path opacity="0.25" fill-rule="evenodd" clip-rule="evenodd" d="M46.9999 25.2013C52.4673 19.7339 61.3316 19.7339 66.7989 25.2013C72.2662 30.6686 72.2662 39.5329 66.7989 45.0002L56.8994 54.8997L37.1004 35.1007L46.9999 25.2013Z" fill="currentColor" />
  <path opacity="0.25" fill-rule="evenodd" clip-rule="evenodd" d="M19.9998 11C23.1824 11 26.2348 12.2644 28.4853 14.5148C30.7356 16.7652 32 19.8175 32 23C32 26.1825 30.7356 29.2348 28.4853 31.4852C26.2348 33.7356 23.1824 35 19.9998 35C16.8173 35 13.765 33.7357 11.5147 31.4853C9.26426 29.235 8 26.1825 8 23C8 19.8175 9.26426 16.765 11.5146 14.5146C13.765 12.2643 16.8173 11 19.9998 11Z" fill="currentColor" />
  <path fill-rule="evenodd" clip-rule="evenodd" d="M8.16779 21L31.8322 21C31.9432 21.6565 32 22.3253 32 23C32 23.6746 31.9432 24.3435 31.8322 25L8.16779 25C8.05681 24.3434 8 23.6746 8 23C8 22.3253 8.05681 21.6565 8.16779 21Z" fill="currentColor" />
</svg>