<svg viewBox="0 0 80 80" fill="none">
  <g opacity="0.25">
    <path d="M30.3652 60.5588L56.3652 15.5255" stroke="currentColor" stroke-width="4" stroke-linecap="round" stroke-linejoin="round" />
    <path d="M29.8643 61.4266C27.9313 64.7746 23.6502 65.9218 20.3022 63.9888V63.9888C16.9541 62.0558 15.807 57.7746 17.74 54.4266L18.74 52.6945C20.673 49.3465 24.9541 48.1994 28.3022 50.1324V50.1324C31.6502 52.0654 32.7973 56.3465 30.8643 59.6945L29.8643 61.4266Z" stroke="currentColor" stroke-width="4" stroke-linecap="round" stroke-linejoin="round" />
  </g>
  <path d="M50.3638 60.5588L24.3638 15.5255" stroke="currentColor" stroke-width="4" stroke-linecap="round" stroke-linejoin="round" />
  <path d="M50.8647 61.4266C52.7977 64.7746 57.0788 65.9218 60.4268 63.9888V63.9888C63.7749 62.0558 64.922 57.7746 62.989 54.4266L61.989 52.6945C60.056 49.3465 55.7749 48.1994 52.4268 50.1324V50.1324C49.0788 52.0654 47.9317 56.3465 49.8647 59.6945L50.8647 61.4266Z" stroke="currentColor" stroke-width="4" stroke-linecap="round" stroke-linejoin="round" />
</svg>