<svg viewBox="0 0 80 80" fill="none">
  <path d="M38.0648 63.4952C37.7859 64.564 38.4264 65.6564 39.4952 65.9352C40.564 66.2141 41.6564 65.5736 41.9352 64.5048L38.0648 63.4952ZM51.9426 18.22L53.8778 18.7249L53.8778 18.7249L51.9426 18.22ZM28 14C26.8954 14 26 14.8954 26 16C26 17.1046 26.8954 18 28 18V14ZM41.9352 64.5048L53.8778 18.7249L50.0074 17.7152L38.0648 63.4952L41.9352 64.5048ZM50.2274 14H28V18H50.2274V14ZM53.8778 18.7249C53.9589 18.414 54 18.0939 54 17.7726H50C50 17.7532 50.0025 17.7339 50.0074 17.7152L53.8778 18.7249ZM54 17.7726C54 15.689 52.311 14 50.2274 14V18C50.1018 18 50 17.8982 50 17.7726H54Z" fill="currentColor" />
</svg>