<svg viewBox="0 0 80 80" fill="none">
  <g opacity="0.25">
    <path fill-rule="evenodd" clip-rule="evenodd" d="M40.0003 70.2389C38.2027 69.3957 36.4563 68.4316 34.7737 67.3503C27.5059 62.6795 21.7338 56.0182 18.1449 48.1596C14.556 40.3011 13.3016 31.5766 14.5311 23.0253C14.7806 21.2904 15.1301 19.5775 15.5761 17.8946L39.9999 10L64.4246 17.8949C64.8706 19.5777 65.2201 21.2905 65.4695 23.0253C66.699 31.5766 65.4446 40.3011 61.8557 48.1596C58.2668 56.0182 52.4948 62.6795 45.2269 67.3503C43.5443 68.4316 41.7979 69.3957 40.0003 70.2389Z" fill="currentColor" />
    <path d="M40.0003 70.2389L39.151 72.0496C39.6891 72.302 40.3115 72.302 40.8496 72.0496L40.0003 70.2389ZM34.7737 67.3503L33.6924 69.0328H33.6924L34.7737 67.3503ZM18.1449 48.1596L19.9642 47.3288L18.1449 48.1596ZM14.5311 23.0253L16.5108 23.3099L14.5311 23.0253ZM15.5761 17.8946L14.9609 15.9915C14.3136 16.2007 13.8171 16.7246 13.6428 17.3822L15.5761 17.8946ZM39.9999 10L40.615 8.09695C40.2151 7.96768 39.7846 7.96768 39.3847 8.09695L39.9999 10ZM64.4246 17.8949L66.3579 17.3826C66.1836 16.725 65.6871 16.201 65.0397 15.9918L64.4246 17.8949ZM65.4695 23.0253L67.4491 22.7406L67.4491 22.7406L65.4695 23.0253ZM61.8557 48.1596L63.675 48.9905L61.8557 48.1596ZM45.2269 67.3503L44.1457 65.6678L45.2269 67.3503ZM40.8496 68.4282C39.1318 67.6225 37.4629 66.7011 35.855 65.6678L33.6924 69.0328C35.4497 70.1621 37.2736 71.169 39.151 72.0496L40.8496 68.4282ZM35.855 65.6678C28.9097 61.2043 23.3938 54.8386 19.9642 47.3288L16.3256 48.9905C20.0738 57.1978 26.102 64.1548 33.6924 69.0328L35.855 65.6678ZM19.9642 47.3288C16.5346 39.819 15.3358 31.4817 16.5108 23.3099L12.5515 22.7406C11.2674 31.6714 12.5775 40.7832 16.3256 48.9905L19.9642 47.3288ZM16.5108 23.3099C16.7491 21.652 17.0831 20.0151 17.5093 18.4069L13.6428 17.3822C13.177 19.1399 12.812 20.9288 12.5515 22.7406L16.5108 23.3099ZM16.1912 19.7976L40.615 11.9031L39.3847 8.09695L14.9609 15.9915L16.1912 19.7976ZM39.3847 11.9031L63.8095 19.7979L65.0397 15.9918L40.615 8.09695L39.3847 11.9031ZM62.4914 18.4072C62.9175 20.0153 63.2515 21.6521 63.4899 23.3099L67.4491 22.7406C67.1887 20.9289 66.8236 19.1401 66.3579 17.3826L62.4914 18.4072ZM63.4899 23.3099C64.6648 31.4817 63.4661 39.819 60.0365 47.3288L63.675 48.9905C67.4231 40.7832 68.7332 31.6714 67.4491 22.7406L63.4899 23.3099ZM60.0365 47.3288C56.6069 54.8386 51.0909 61.2043 44.1457 65.6678L46.3082 69.0328C53.8986 64.1548 59.9268 57.1978 63.675 48.9905L60.0365 47.3288ZM44.1457 65.6678C42.5377 66.7011 40.8688 67.6225 39.151 68.4282L40.8496 72.0496C42.7271 71.169 44.5509 70.1621 46.3082 69.0328L44.1457 65.6678Z" fill="currentColor" />
  </g>
  <path fill-rule="evenodd" clip-rule="evenodd" d="M40.0002 58.686C38.8414 58.1451 37.7165 57.5269 36.6346 56.8341C31.9779 53.8517 28.2566 49.5763 25.9528 44.5492C23.646 39.5155 22.8371 33.9179 23.6278 28.4375C23.7879 27.328 24.0125 26.232 24.2991 25.155L39.9999 20.0977L55.7014 25.1553C55.988 26.2322 56.2125 27.3281 56.3726 28.4375C57.1633 33.9179 56.3544 39.5155 54.0476 44.5492C51.7438 49.5763 48.0226 53.8517 43.3658 56.8341C42.284 57.5269 41.1591 58.1451 40.0002 58.686Z" fill="currentColor" />
  <path d="M40.0002 58.686L39.1543 60.4983C39.6905 60.7486 40.3099 60.7486 40.8461 60.4983L40.0002 58.686ZM36.6346 56.8341L35.556 58.5183H35.556L36.6346 56.8341ZM25.9528 44.5492L27.771 43.7159L25.9528 44.5492ZM23.6278 28.4375L21.6483 28.1519L23.6278 28.4375ZM24.2991 25.155L23.6859 23.2514C23.0384 23.4599 22.5413 23.9833 22.3664 24.6407L24.2991 25.155ZM39.9999 20.0977L40.6131 18.194C40.2144 18.0655 39.7854 18.0655 39.3867 18.194L39.9999 20.0977ZM55.7014 25.1553L57.6341 24.6409C57.4592 23.9835 56.9621 23.4601 56.3146 23.2516L55.7014 25.1553ZM56.3726 28.4375L58.3521 28.1519V28.1519L56.3726 28.4375ZM54.0476 44.5492L52.2294 43.7159H52.2294L54.0476 44.5492ZM43.3658 56.8341L44.4445 58.5183L43.3658 56.8341ZM40.8461 56.8737C39.767 56.37 38.7199 55.7945 37.7132 55.1498L35.556 58.5183C36.7131 59.2593 37.9158 59.9202 39.1543 60.4983L40.8461 56.8737ZM37.7132 55.1498C33.3786 52.3738 29.9146 48.3934 27.771 43.7159L24.1347 45.3824C26.5987 50.7592 30.5771 55.3297 35.556 58.5183L37.7132 55.1498ZM27.771 43.7159C25.6243 39.0315 24.8716 33.8223 25.6073 28.7231L21.6483 28.1519C20.8026 34.0134 21.6678 39.9994 24.1347 45.3824L27.771 43.7159ZM25.6073 28.7231C25.7562 27.691 25.9652 26.6715 26.2319 25.6694L22.3664 24.6407C22.0598 25.7926 21.8196 26.9649 21.6483 28.1519L25.6073 28.7231ZM24.9123 27.0587L40.6131 22.0013L39.3867 18.194L23.6859 23.2514L24.9123 27.0587ZM39.3867 22.0013L55.0882 27.0589L56.3146 23.2516L40.6131 18.194L39.3867 22.0013ZM53.7686 25.6696C54.0353 26.6716 54.2442 27.6911 54.3931 28.7231L58.3521 28.1519C58.1809 26.965 57.9406 25.7928 57.6341 24.6409L53.7686 25.6696ZM54.3931 28.7231C55.1288 33.8223 54.3762 39.0315 52.2294 43.7159L55.8658 45.3824C58.3327 39.9994 59.1978 34.0134 58.3521 28.1519L54.3931 28.7231ZM52.2294 43.7159C50.0859 48.3934 46.6218 52.3738 42.2872 55.1498L44.4445 58.5183C49.4233 55.3297 53.4017 50.7592 55.8658 45.3824L52.2294 43.7159ZM42.2872 55.1498C41.2805 55.7945 40.2335 56.37 39.1543 56.8737L40.8461 60.4983C42.0847 59.9202 43.2874 59.2593 44.4445 58.5183L42.2872 55.1498Z" fill="currentColor" />
</svg>