<svg viewBox="0 0 80 80" fill="none">
  <path d="M46 18C47.1046 18 48 17.1046 48 16C48 14.8954 47.1046 14 46 14V18ZM28.0138 47.9521L30.0138 47.959L28.0138 47.9521ZM30 52V33H26V52H30ZM54 52V47.9931H50V52H54ZM45 18H46V14H45V18ZM26.0138 47.9453L26 51.9932L30 52.0068L30.0138 47.959L26.0138 47.9453ZM54 47.9931C54 40.2649 47.7351 34 40.0069 34V38C45.5259 38 50 42.4741 50 47.9931H54ZM40.0069 34C32.2974 34 26.0402 40.2358 26.0138 47.9453L30.0138 47.959C30.0326 42.4533 34.5012 38 40.0069 38V34ZM30 33C30 24.7157 36.7157 18 45 18V14C34.5066 14 26 22.5066 26 33H30ZM40 62C34.4772 62 30 57.5228 30 52H26C26 59.732 32.268 66 40 66V62ZM50 52C50 57.5228 45.5228 62 40 62V66C47.732 66 54 59.732 54 52H50Z" fill="currentColor" />
</svg>