<svg viewBox="0 0 80 80" fill="none">
  <path d="M50 25C50 23.8954 50.8954 23 52 23H60.385C61.6685 23 62.874 23.6159 63.6262 24.6559L74 39H50V25Z" fill="currentColor" />
  <path opacity="0.25" fill-rule="evenodd" clip-rule="evenodd" d="M74 39H50V55H54.8847C54.9634 54.7198 55.0591 54.4432 55.1716 54.1716C55.9217 52.3606 57.3606 50.9217 59.1716 50.1716C60.9826 49.4214 63.0174 49.4214 64.8284 50.1716C66.6394 50.9217 68.0783 52.3606 68.8284 54.1716C68.9409 54.4432 69.0366 54.7198 69.1153 55H74V39Z" fill="currentColor" />
  <path d="M59.1716 50.1716C60.9826 49.4214 63.0174 49.4214 64.8284 50.1716C66.6394 50.9217 68.0783 52.3606 68.8284 54.1716C69.5786 55.9826 69.5786 58.0174 68.8284 59.8284C68.0783 61.6394 66.6394 63.0783 64.8284 63.8284C63.0174 64.5786 60.9826 64.5786 59.1716 63.8284C57.3606 63.0783 55.9217 61.6394 55.1716 59.8284C54.4214 58.0174 54.4214 55.9826 55.1716 54.1716C55.9217 52.3606 57.3606 50.9217 59.1716 50.1716Z" fill="currentColor" />
  <path opacity="0.5" fill-rule="evenodd" clip-rule="evenodd" d="M10 15C7.79086 15 6 16.7909 6 19V55H11.8847C11.9634 54.7198 12.0591 54.4432 12.1716 54.1716C12.9217 52.3606 14.3606 50.9217 16.1716 50.1716C17.9826 49.4214 20.0174 49.4214 21.8284 50.1716C23.6394 50.9217 25.0783 52.3606 25.8284 54.1716C25.9409 54.4432 26.0366 54.7198 26.1153 55H50V19C50 16.7909 48.2091 15 46 15H10Z" fill="currentColor" />
  <path d="M16.1716 50.1716C17.9826 49.4214 20.0174 49.4214 21.8284 50.1716C23.6394 50.9217 25.0783 52.3606 25.8284 54.1716C26.5786 55.9826 26.5786 58.0174 25.8284 59.8284C25.0783 61.6394 23.6394 63.0783 21.8284 63.8284C20.0174 64.5786 17.9826 64.5786 16.1716 63.8284C14.3606 63.0783 12.9217 61.6394 12.1716 59.8284C11.4214 58.0174 11.4214 55.9826 12.1716 54.1716C12.9217 52.3606 14.3606 50.9217 16.1716 50.1716Z" fill="currentColor" />
</svg>