<svg viewBox="0 0 80 80" fill="none">
  <path fill-rule="evenodd" clip-rule="evenodd" d="M28 16C28 13.7909 29.7909 12 32 12H35.3846H44.6154H48C50.2091 12 52 13.7909 52 16V23.595C50.7029 22.6462 49.2875 21.847 47.7782 21.2218C42.7979 19.1589 37.2021 19.1589 32.2218 21.2218C30.7125 21.847 29.2971 22.6462 28 23.595V16ZM28 56.405V64C28 66.2091 29.7909 68 32 68H35.3846H44.6154H48C50.2091 68 52 66.2091 52 64V56.405C50.7029 57.3538 49.2875 58.153 47.7782 58.7782C42.7979 60.8411 37.2021 60.8411 32.2218 58.7782C30.7125 58.153 29.2971 57.3538 28 56.405Z" fill="currentColor" />
  <path opacity="0.25" d="M32.2218 21.2218C37.2021 19.1589 42.7979 19.1589 47.7782 21.2218C52.7585 23.2847 56.7153 27.2415 58.7782 32.2218C60.8411 37.2021 60.8411 42.7979 58.7782 47.7782C56.7153 52.7585 52.7585 56.7153 47.7782 58.7782C42.7979 60.8411 37.2021 60.8411 32.2218 58.7782C27.2415 56.7153 23.2847 52.7585 21.2218 47.7782C19.1589 42.7979 19.1589 37.2021 21.2218 32.2218C23.2847 27.2415 27.2415 23.2847 32.2218 21.2218Z" fill="currentColor" />
  <path d="M47.1597 33.936C47.8308 33.0587 47.6638 31.8035 46.7865 31.1323C45.9093 30.4611 44.654 30.6282 43.9828 31.5054L47.1597 33.936ZM39.9321 36.7998C39.2609 37.6771 39.4279 38.9324 40.3052 39.6035C41.1824 40.2747 42.4377 40.1077 43.1089 39.2304L39.9321 36.7998ZM50.6009 48.3296C51.561 48.8757 52.782 48.5402 53.3282 47.5801C53.8744 46.62 53.5389 45.399 52.5788 44.8528L50.6009 48.3296ZM43.1639 39.4968C42.2038 38.9506 40.9827 39.2862 40.4366 40.2463C39.8904 41.2063 40.2259 42.4274 41.186 42.9736L43.1639 39.4968ZM39.5007 40.0003C39.5007 39.7242 39.7246 39.5003 40.0007 39.5003V35.5003C37.5155 35.5003 35.5007 37.515 35.5007 40.0003H39.5007ZM40.0007 40.5003C39.7246 40.5003 39.5007 40.2765 39.5007 40.0003H35.5007C35.5007 42.4856 37.5155 44.5003 40.0007 44.5003V40.5003ZM40.5007 40.0003C40.5007 40.2765 40.2769 40.5003 40.0007 40.5003V44.5003C42.486 44.5003 44.5007 42.4856 44.5007 40.0003H40.5007ZM40.0007 39.5003C40.2769 39.5003 40.5007 39.7242 40.5007 40.0003H44.5007C44.5007 37.515 42.486 35.5003 40.0007 35.5003V39.5003ZM43.9828 31.5054L39.9321 36.7998L43.1089 39.2304L47.1597 33.936L43.9828 31.5054ZM52.5788 44.8528L43.1639 39.4968L41.186 42.9736L50.6009 48.3296L52.5788 44.8528Z" fill="currentColor" />
</svg>