<svg viewBox="0 0 80 80" fill="none">
  <path opacity="0.25" fill-rule="evenodd" clip-rule="evenodd" d="M32.1849 10.6839L32.1849 7.7959C31.5729 8.05118 30.9734 8.34717 30.3902 8.68388C25.5671 11.4685 22.5959 16.6147 22.596 22.1839C22.596 27.6006 25.4066 32.6172 29.9983 35.4499C29.9763 35.6915 29.9651 35.9361 29.9651 36.1834L29.9651 68.1834C29.9651 72.6017 33.5468 76.1834 37.9651 76.1834C42.3834 76.1834 45.9651 72.6017 45.9651 68.1834L45.9651 36.1834C45.9651 36.0211 45.9603 35.8599 45.9507 35.7C45.96 35.6946 45.9693 35.6892 45.9786 35.6839C50.8017 32.8993 53.7729 27.7531 53.7729 22.1839C53.7729 16.6147 50.8017 11.4685 45.9786 8.68388C45.3957 8.34735 44.7965 8.05149 44.1849 7.79631L44.1849 10.6839L44.1849 11.1839L44.1849 18.1829L44.1805 18.1829L44.1805 22.6458L38.1848 26.1074L32.1891 22.6458L32.1891 18.1829L32.1849 18.1829L32.1849 11.1839L32.1849 10.6839Z" fill="currentColor" />
  <path fill-rule="evenodd" clip-rule="evenodd" d="M32.1602 8L32.1602 18.387H32.1645L32.1645 22.8499L38.1601 26.3115L44.1558 22.8499L44.1558 18.387H44.1602L44.1602 8.00041C44.7719 8.2556 45.3711 8.55145 45.954 8.88798C50.7771 11.6726 53.7482 16.8188 53.7482 22.388C53.7482 27.9572 50.7771 33.1034 45.954 35.888C41.1309 38.6726 35.1886 38.6726 30.3655 35.888C25.5424 33.1034 22.5713 27.9572 22.5713 22.388C22.5713 16.8188 25.5424 11.6726 30.3655 8.88798C30.9487 8.55127 31.5483 8.25528 32.1602 8Z" fill="currentColor" />
</svg>