<svg viewBox="0 0 80 80" fill="none">
  <rect width="80" height="80" fill="#F2F2F2" />
  <rect width="80" height="23" fill="#2F80ED" />
  <rect y="57" width="80" height="23" fill="#2F80ED" />
  <path d="M32.313 41.5714L39.5712 29L46.8295 41.5714H32.313Z" fill="#F2C94C" />
  <path d="M48.4608 29.5388L45.1272 32.8724C46.549 34.2944 47.4286 36.2586 47.4286 38.4284C47.4286 42.7679 43.9107 46.2857 39.5712 46.2857C35.2317 46.2857 31.7139 42.7679 31.7139 38.4284C31.7139 36.2588 32.5935 34.2946 34.0153 32.8724L30.6817 29.5388C28.4068 31.8139 27 34.9567 27 38.4284C27 45.3714 32.6285 50.9998 39.5714 50.9998C46.5144 50.9998 52.1429 45.3714 52.1429 38.4284C52.1429 34.9567 50.7356 31.8139 48.4608 29.5388Z" fill="#F2C94C" />
  <path fill-rule="evenodd" clip-rule="evenodd" d="M47.3644 39.4365H31.7778C32.2726 43.3 35.5731 46.2859 39.5711 46.2859C43.5691 46.2859 46.8697 43.3 47.3644 39.4365Z" fill="#6FCF97" />
</svg>