<svg viewBox="0 0 80 80" fill="none">
  <g clip-path="url(#clip0a7Dy)">
    <path d="M80 0H0V80H80V0Z" fill="#2F80ED" />
    <path d="M80 40H0" stroke="#F2C94C" stroke-width="48" />
    <path d="M80 40H0" stroke="#EB5757" stroke-width="36" />
    <path d="M8 39.99H72" stroke="#F2C94C" stroke-width="2" stroke-linecap="round" />
    <path d="M13.3333 35.99H63.3333" stroke="#F2C94C" stroke-width="2" stroke-linecap="round" />
    <path d="M16.6667 31.99H66.6667" stroke="#F2C94C" stroke-width="2" stroke-linecap="round" />
    <ellipse cx="11.3333" cy="44.99" rx="3.33333" ry="5" fill="#2F80ED" />
    <ellipse cx="68.6666" cy="44.99" rx="3.33333" ry="5" fill="#2F80ED" />
    <path fill-rule="evenodd" clip-rule="evenodd" d="M40.0001 22.99V56.99C31.8316 56.99 24.7353 50.1036 21.1509 39.99C24.7353 29.8764 31.8316 22.99 40.0001 22.99Z" fill="#333333" />
    <path fill-rule="evenodd" clip-rule="evenodd" d="M40 56.99V22.99C40 22.99 40.0001 22.99 40.0001 22.99C48.1686 22.99 55.2648 29.8764 58.8493 39.99C55.2648 50.1036 48.1686 56.99 40.0001 56.99C40.0001 56.99 40 56.99 40 56.99Z" fill="#F2F2F2" />
    <path d="M28 36.99H36" stroke="#F2F2F2" stroke-width="3" stroke-linecap="round" />
    <path d="M44 36.99H52" stroke="#333333" stroke-width="3" stroke-linecap="round" />
    <path d="M28 42.99H36" stroke="#F2F2F2" stroke-width="3" stroke-linecap="round" />
    <path d="M44 42.99H52" stroke="#333333" stroke-width="3" stroke-linecap="round" />
    <ellipse cx="32.6666" cy="30.99" rx="3.33333" ry="5" fill="#2F80ED" />
  </g>
  <defs>
    <clipPath id="clip0a7Dy">
      <rect width="80" height="80" fill="white" />
    </clipPath>
  </defs>
</svg>