<svg width="80" height="80" viewBox="0 0 80 80" fill="none" xmlns="http://www.w3.org/2000/svg">
  <g clip-path="url(#clip0)">
    <path d="M80 0H0V80H80V0Z" fill="#F2F2F2" />
    <path d="M80 0H0V26.6667H80V0Z" fill="#6FCF97" />
    <path d="M80 53.34H0V80.01H80V53.34Z" fill="#EB5757" />
    <path d="M1.69727 23.9999V55.9999" stroke="#F2F2F2" stroke-width="5" />
    <path d="M10.6973 23.9999V55.9999" stroke="#F2F2F2" stroke-width="5" />
    <path d="M19.6973 23.9999V55.9999" stroke="#F2F2F2" stroke-width="5" />
    <path d="M28.6973 23.9999V55.9999" stroke="#F2F2F2" stroke-width="5" />
    <path d="M37.6973 23.9999V55.9999" stroke="#F2F2F2" stroke-width="5" />
    <path d="M46.6973 23.9999V55.9999" stroke="#F2F2F2" stroke-width="5" />
    <path d="M55.6973 23.9999V55.9999" stroke="#F2F2F2" stroke-width="5" />
    <path d="M64.6973 23.9999V55.9999" stroke="#F2F2F2" stroke-width="5" />
    <path d="M73.6973 23.9999V55.9999" stroke="#F2F2F2" stroke-width="5" />
    <path fill-rule="evenodd" clip-rule="evenodd" d="M42.7141 45.4308C42.1321 45.7407 41.4999 45.2638 41.4999 44.6043L41.4999 32C41.4999 31.4477 41.0522 31 40.4999 31H39.4999C38.9476 31 38.4999 31.4477 38.4999 32L38.4999 44.6043C38.4999 45.2638 37.8678 45.7407 37.2857 45.4308C37.0469 45.3036 36.8145 45.1592 36.5902 44.9977C35.5686 44.2626 34.7564 43.2056 34.2729 41.9484C33.7891 40.6907 33.6611 39.301 33.9089 37.9594C34.1567 36.618 34.766 35.3998 35.6443 34.4539L35.9845 34.0875C36.3603 33.6828 36.3369 33.0501 35.9322 32.6743L35.1994 31.9938C34.7947 31.618 34.1619 31.6415 33.7861 32.0462L33.4459 32.4126C32.1665 33.7904 31.3064 35.5328 30.9588 37.4145C30.6113 39.2959 30.7889 41.2471 31.4728 43.0254C32.157 44.8042 33.3224 46.3423 34.838 47.4328C34.85 47.4414 34.8571 47.4553 34.8571 47.47V48.1154C34.8571 48.6677 35.3048 49.1154 35.8571 49.1154H39.9999H44.1428C44.6951 49.1154 45.1428 48.6677 45.1428 48.1154V47.47C45.1428 47.4553 45.1499 47.4414 45.1619 47.4328C46.6775 46.3423 47.8428 44.8042 48.527 43.0254C49.211 41.2471 49.3885 39.2959 49.041 37.4145C48.6935 35.5328 47.8333 33.7904 46.5539 32.4126L46.2137 32.0462C45.8379 31.6415 45.2052 31.618 44.8005 31.9939L44.0677 32.6743C43.663 33.0501 43.6395 33.6828 44.0153 34.0875L44.3556 34.4539C45.2339 35.3998 45.8432 36.618 46.0909 37.9594C46.3387 39.3011 46.2108 40.6907 45.727 41.9484C45.2434 43.2056 44.4313 44.2626 43.4096 44.9977C43.1853 45.1592 42.9529 45.3036 42.7141 45.4308Z" fill="#EB5757" />
  </g>
  <defs>
    <clipPath id="clip0">
      <rect width="80" height="80" fill="white" />
    </clipPath>
  </defs>
</svg>