<svg width="80" height="80" viewBox="0 0 80 80" fill="none" xmlns="http://www.w3.org/2000/svg">
  <g clip-path="url(#clip0)">
    <path d="M80 0H0V80H80V0Z" fill="#F2F2F2" />
    <path d="M80 0H0V26.6667H80V0Z" fill="#EB5757" />
    <path d="M80 53.34H0V80.01H80V53.34Z" fill="#333333" />
    <path fill-rule="evenodd" clip-rule="evenodd" d="M28 34C28 34.5523 27.54 34.9837 27.0181 35.1644C26.1511 35.4645 25.4645 36.1511 25.1644 37.0181C24.9837 37.54 25.4477 38 26 38H31.5C34.8137 38 37.5 40.6863 37.5 44V47V48C37.5 48.5523 37.0523 49 36.5 49H35.5H19C18.4477 49 18 48.5523 18 48V46C18 45.4477 18.4477 45 19 45H32.5C33.0523 45 33.5 44.5523 33.5 44C33.5 42.8954 32.6046 42 31.5 42H23H22C21.4477 42 21 41.5523 21 41V40V38C21 34.4725 23.6092 31.5544 27.003 31.0705C27.5497 30.9925 28 31.4477 28 32V34ZM44 32C44 31.4477 43.5523 31 43 31H41C40.4477 31 40 31.4477 40 32V47V48C40 48.5523 40.4477 49 41 49H42H46C46.5523 49 47 48.5523 47 48V46C47 45.4477 46.5523 45 46 45H45C44.4477 45 44 44.5523 44 44V32ZM62 46C62 45.4477 61.5523 45 61 45H60C59.4477 45 59 44.5523 59 44V32C59 31.4477 58.5523 31 58 31H56C55.4477 31 55 31.4477 55 32V44C55 44.5523 54.5523 45 54 45C53.4477 45 53 44.5523 53 44V41C53 40.4477 52.5523 40 52 40H50C49.4477 40 49 40.4477 49 41V47V48C49 48.5523 49.4477 49 50 49H51H57H61C61.5523 49 62 48.5523 62 48V46Z" fill="#219653" />
  </g>
  <defs>
    <clipPath id="clip0">
      <rect width="80" height="80" fill="white" />
    </clipPath>
  </defs>
</svg>