<svg width="80" height="80" viewBox="0 0 80 80" fill="none" xmlns="http://www.w3.org/2000/svg">
<path d="M80 0H0V80H80V0Z" fill="#EB5757"/>
<path fill-rule="evenodd" clip-rule="evenodd" d="M41.5438 24.3258L40 19L38.4562 24.3258L35.9031 19.4035L35.428 24.9282L31.9636 20.5985L32.5755 26.1097L28.333 22.5391L30.0083 27.8251L25.1508 25.1508L27.8251 30.0083L22.5391 28.333L26.1097 32.5755L20.5985 31.9636L24.9282 35.428L19.4035 35.9031L24.3258 38.4562L19 40L24.3258 41.5438L19.4035 44.0969L24.9282 44.572L20.5985 48.0364L26.1097 47.4245L22.5391 51.667L27.8251 49.9917L25.1508 54.8492L30.0083 52.1749L28.333 57.4609L32.5755 53.8903L31.9636 59.4015L35.428 55.0718L35.9031 60.5965L38.4562 55.6742L40 61L41.5438 55.6742L44.0969 60.5965L44.572 55.0718L48.0364 59.4015L47.4245 53.8903L51.667 57.4609L49.9917 52.1749L54.8492 54.8492L52.1749 49.9917L57.4609 51.667L53.8903 47.4245L59.4015 48.0364L55.0718 44.572L60.5965 44.0969L55.6742 41.5438L61 40L55.6742 38.4562L60.5965 35.9031L55.0718 35.428L59.4015 31.9636L53.8903 32.5755L57.4609 28.333L52.1749 30.0083L54.8492 25.1508L49.9917 27.8251L51.667 22.5391L47.4245 26.1097L48.0364 20.5985L44.572 24.9282L44.0969 19.4035L41.5438 24.3258ZM40 54C47.732 54 54 47.732 54 40C54 32.268 47.732 26 40 26C32.268 26 26 32.268 26 40C26 47.732 32.268 54 40 54Z" fill="#F2C94C"/>
<path fill-rule="evenodd" clip-rule="evenodd" d="M46.4676 45.1904C47.0202 43.6443 47.3337 41.8771 47.3337 40C47.3337 37.1847 46.6285 34.6163 45.4688 32.6707C44.2645 33.1814 43.0866 33.9842 41.9781 35.0813C44.0032 37.7899 45.5662 41.2593 46.4676 45.1904ZM44.1061 49.1156C43.5706 44.6066 42.1258 40.6553 40.1513 37.6936C40.1013 37.6185 40.051 37.5442 40.0004 37.4706C39.9499 37.5442 39.8996 37.6185 39.8495 37.6936C37.8751 40.6553 36.4302 44.6067 35.8947 49.1158C37.0662 50.3053 38.4792 51 40.0003 51C41.5216 51 42.9346 50.3052 44.1061 49.1156ZM34.5319 32.6707C33.3721 34.6163 32.667 37.1846 32.667 40C32.667 41.8772 32.9805 43.6446 33.5332 45.1907C34.4346 41.2595 35.9976 37.79 38.0227 35.0813C36.9142 33.9842 35.7362 33.1813 34.5319 32.6707ZM43.4608 30.2993C42.43 29.4702 41.2518 29 40.0003 29C38.7489 29 37.5707 29.4702 36.5399 30.2992C37.7678 30.9327 38.9282 31.784 40.0004 32.8224C41.0726 31.784 42.2329 30.9327 43.4608 30.2993Z" fill="#F2C94C"/>
</svg>
