<svg width="80" height="80" viewBox="0 0 80 80" fill="none" xmlns="http://www.w3.org/2000/svg">
  <rect width="80" height="80" fill="#2F80ED" />
  <path d="M80 0V16L0 80L80 0Z" fill="#F2994A" />
  <path d="M80 16V32L0 80L80 16Z" fill="#F2F2F2" />
  <path d="M27 6L28.1879 25.8121L48 27L28.1879 28.1879L27 48L25.8121 28.1879L6 27L25.8121 25.8121L27 6Z" fill="#F2F2F2" />
  <path d="M27 13L27.7675 21.1703L30.6235 13.477L29.2502 21.5676L34 14.8756L30.5795 22.3351L36.8995 17.1005L31.6649 23.4205L39.1244 20L32.4324 24.7498L40.523 23.3765L32.8297 26.2325L41 27L32.8297 27.7675L40.523 30.6235L32.4324 29.2502L39.1244 34L31.6649 30.5795L36.8995 36.8995L30.5795 31.6649L34 39.1244L29.2502 32.4324L30.6235 40.523L27.7675 32.8297L27 41L26.2325 32.8297L23.3765 40.523L24.7498 32.4324L20 39.1244L23.4205 31.6649L17.1005 36.8995L22.3351 30.5795L14.8756 34L21.5676 29.2502L13.477 30.6235L21.1703 27.7675L13 27L21.1703 26.2325L13.477 23.3765L21.5676 24.7498L14.8756 20L22.3351 23.4205L17.1005 17.1005L23.4205 22.3351L20 14.8756L24.7498 21.5676L23.3765 13.477L26.2325 21.1703L27 13Z" fill="#F2F2F2" />
</svg>