<svg width="80" height="81" viewBox="0 0 80 81" fill="none" xmlns="http://www.w3.org/2000/svg">
<g clip-path="url(#clip0)">
<path d="M100 0H-20V80.0008H100V0Z" fill="#219653"/>
<path fill-rule="evenodd" clip-rule="evenodd" d="M25 36V25C25 24.4477 25.4477 24 26 24H28C28.5523 24 29 24.4477 29 25V36C29 40.0803 25.9453 43.4471 21.998 43.9384C21.45 44.0066 21 43.5523 21 43V41C21 40.4477 21.4547 40.0128 21.9899 39.8766C23.7202 39.4361 25 37.8675 25 36ZM31 41C31 40.4477 31.4477 40 32 40H36C36.5523 40 37 40.4477 37 41V43C37 43.5523 36.5523 44 36 44H32C31.4477 44 31 43.5523 31 43V41ZM56 24C55.4477 24 55 24.4477 55 25V33V36C55 37.8675 53.7202 39.4361 51.9899 39.8766C51.4547 40.0128 51 40.4477 51 41V43C51 43.5523 51.45 44.0066 51.998 43.9384C55.9453 43.4471 59 40.0803 59 36V33V25C59 24.4477 58.5523 24 58 24H56ZM43 31V25C43 24.4477 43.4477 24 44 24H46C46.5523 24 47 24.4477 47 25V31V33V36C47 40.0803 43.9453 43.4471 39.998 43.9384C39.45 44.0066 39 43.5523 39 43V41C39 40.4477 39.4547 40.0128 39.9899 39.8766C41.7202 39.4361 43 37.8675 43 36C43 35.9483 42.9526 35.9096 42.9018 35.9189C42.6093 35.9722 42.3079 36 42 36C41.1433 36 40.3369 35.7845 39.6321 35.4048C39.2403 35.1938 38.7597 35.1938 38.3679 35.4048C37.6631 35.7845 36.8567 36 36 36C33.2386 36 31 33.7614 31 31V25C31 24.4477 31.4477 24 32 24H34C34.5523 24 35 24.4477 35 25V31C35 31.5523 35.4477 32 36 32C36.5523 32 37 31.5523 37 31V25C37 24.4477 37.4477 24 38 24H40C40.5523 24 41 24.4477 41 25V31C41 31.5523 41.4477 32 42 32C42.5523 32 43 31.5523 43 31ZM50 24C49.4477 24 49 24.4477 49 25V34.5C49 35.0523 49.4477 35.5 50 35.5H52C52.5523 35.5 53 35.0523 53 34.5V25C53 24.4477 52.5523 24 52 24H50Z" fill="#F2F2F2"/>
<path fill-rule="evenodd" clip-rule="evenodd" d="M50.5 53.5V53H48.5V53.5H24V55.5H48.5V56H50.5V55.5H56V53.5H50.5Z" fill="#F2F2F2"/>
</g>
<defs>
<clipPath id="clip0">
<rect width="80" height="80" fill="white"/>
</clipPath>
</defs>
</svg>
