<svg width="80" height="80" viewBox="0 0 80 80" fill="none" xmlns="http://www.w3.org/2000/svg">
  <g clip-path="url(#clip0)">
    <rect width="120" height="80" fill="#2F80ED" />
    <path d="M120 80H0L120 0V80Z" fill="#219653" />
    <path d="M120 0L0 80" stroke="#F2C94C" stroke-width="8" />
    <path d="M38 4L39.4812 7.96128L43.7063 8.1459L40.3967 10.7787L41.5267 14.8541L38 12.52L34.4733 14.8541L35.6033 10.7787L32.2937 8.1459L36.5188 7.96128L38 4Z" fill="#F2F2F2" />
    <path d="M38 32L39.4812 35.9613L43.7063 36.1459L40.3967 38.7787L41.5267 42.8541L38 40.52L34.4733 42.8541L35.6033 38.7787L32.2937 36.1459L36.5188 35.9613L38 32Z" fill="#F2F2F2" />
    <path d="M10 4L11.4812 7.96128L15.7063 8.1459L12.3967 10.7787L13.5267 14.8541L10 12.52L6.47329 14.8541L7.60334 10.7787L4.29366 8.1459L8.51878 7.96128L10 4Z" fill="#F2F2F2" />
    <path d="M24 18L25.4812 21.9613L29.7063 22.1459L26.3967 24.7787L27.5267 28.8541L24 26.52L20.4733 28.8541L21.6033 24.7787L18.2937 22.1459L22.5188 21.9613L24 18Z" fill="#F2F2F2" />
    <path d="M10 32L11.4812 35.9613L15.7063 36.1459L12.3967 38.7787L13.5267 42.8541L10 40.52L6.47329 42.8541L7.60334 38.7787L4.29366 36.1459L8.51878 35.9613L10 32Z" fill="#F2F2F2" />
  </g>
  <defs>
    <clipPath id="clip0">
      <rect width="80" height="80" fill="white" />
    </clipPath>
  </defs>
</svg>