<svg viewBox="0 0 80 80" fill="none">
  <g clip-path="url(#clip0hicG)">
    <path d="M80 0H0V80H80V0Z" fill="#EB5757" />
    <path d="M14.6667 0H0V80H14.6667V0Z" fill="#219653" />
    <path d="M29.3337 0H14.667V80H29.3337V0Z" fill="#F2994A" />
    <path d="M3.5 76.5V3.5H76.5V76.5H3.5Z" stroke="#F2C94C" stroke-width="7" />
    <path d="M3.5 76.5V3.5H25.8333V76.5H3.5Z" stroke="#F2C94C" stroke-width="7" />
    <path fill-rule="evenodd" clip-rule="evenodd" d="M38.4094 28.2381C38.4094 27.4097 37.7378 26.7381 36.9094 26.7381C36.081 26.7381 35.4094 27.4097 35.4094 28.2381V39.7821C35.4094 39.8718 35.3367 39.9444 35.2471 39.9444C34.4186 39.9444 33.7471 40.616 33.7471 41.4444C33.7471 42.2729 34.4186 42.9444 35.2471 42.9444C35.3367 42.9444 35.4094 43.0171 35.4094 43.1068L35.4094 44.3333V45.3754L35.4094 49.6984C35.4094 50.5268 36.081 51.1984 36.9094 51.1984C37.7378 51.1984 38.4094 50.5268 38.4094 49.6984V47.7088C38.4094 47.0585 39.022 46.5829 39.6684 46.654C40.7762 46.7759 41.903 46.7026 42.9966 46.4311L43.3734 46.3376C43.61 46.2789 43.8582 46.3124 44.0823 46.4082C44.3601 46.5269 44.651 46.6213 44.9521 46.6886C45.4216 46.7936 45.8277 47.1482 45.8242 47.6292C45.8189 48.3359 45.6887 49.0354 45.4405 49.6953C45.3071 50.05 44.9538 50.2619 44.5748 50.2619H43.7276C43.1753 50.2619 42.7276 50.7096 42.7276 51.2619V52.2619C42.7276 52.8142 43.1753 53.2619 43.7276 53.2619H45.5307C45.8187 53.2619 46.0523 53.0284 46.0523 52.7403C46.0523 52.3229 46.5181 52.0746 46.8646 52.3072C47.1038 52.4678 47.4293 52.4048 47.5757 52.1567C48.3424 50.8578 48.7667 49.3929 48.8189 47.8988C48.8394 47.3129 49.2948 46.8095 49.8812 46.8095H55.8214C56.2611 46.8095 56.6365 47.1272 56.7093 47.5609C56.8174 48.205 56.8275 48.8594 56.7411 49.5022C56.6804 49.9541 56.274 50.2619 55.818 50.2619H55.364C54.8117 50.2619 54.364 50.7096 54.364 51.2619V52.2619C54.364 52.8142 54.8117 53.2619 55.364 53.2619H57.6886H58.0482C58.4779 53.2619 58.8595 52.9874 58.9962 52.5801L59.1107 52.2392L59.3052 51.6598C59.8015 50.181 59.9261 48.6027 59.668 47.0643C59.6456 46.931 59.7484 46.8095 59.8835 46.8095H61.0133C61.1559 46.8095 61.2971 46.8036 61.4367 46.7919C61.9424 46.7497 62.4435 47.0604 62.5275 47.5609C62.6356 48.205 62.6456 48.8594 62.5593 49.5022C62.4986 49.9541 62.0921 50.2619 61.6361 50.2619H61.1821C60.6299 50.2619 60.1821 50.7096 60.1821 51.2619V52.2619C60.1821 52.8142 60.6299 53.2619 61.1821 53.2619H63.5068H63.8664C64.2961 53.2619 64.6777 52.9874 64.8144 52.5801L64.9288 52.2392L65.1233 51.6598C65.6197 50.181 65.7443 48.6027 65.4861 47.0643L65.1593 45.1169C65.1155 44.8558 65.1812 44.5904 65.316 44.3625C65.7509 43.6275 66.0003 42.7713 66.0003 41.8571C66.0003 41.4676 65.955 41.0885 65.8694 40.7248C65.8496 40.6411 65.838 40.5555 65.838 40.4694V38.4286C65.838 35.391 63.3755 32.9286 60.338 32.9286H56.8401C56.301 32.9286 55.864 32.4915 55.864 31.9524C55.864 31.4132 56.301 30.9762 56.8401 30.9762H63.338C63.8903 30.9762 64.338 30.5285 64.338 29.9762V28.9762C64.338 28.4239 63.8903 27.9762 63.338 27.9762H56.8401C54.6442 27.9762 52.864 29.7564 52.864 31.9524C52.864 34.1484 54.6442 35.9286 56.8401 35.9286H60.338C60.7094 35.9286 61.0619 36.0096 61.3787 36.1548C61.8468 36.3694 61.5282 36.9048 61.0133 36.9048H53.6793C52.8132 36.9048 52.2754 35.7894 52.5131 34.9566C52.6359 34.5264 52.7016 34.0724 52.7016 33.6032C52.7016 31.0098 50.6943 28.882 48.1383 28.6684C48.1337 28.668 48.1302 28.6642 48.1302 28.6596C48.1302 28.6547 48.1262 28.6508 48.1214 28.6508H47.7146H42.6497C41.5451 28.6508 40.6497 29.5462 40.6497 30.6508V34.0794C40.6497 35.1839 41.5451 36.0794 42.6497 36.0794H43.012C43.249 36.0794 43.4657 36.2081 43.6005 36.403C43.8823 36.8106 43.7579 37.4313 43.3413 37.6997C41.9714 38.5824 41.0653 40.1147 41.0653 41.8571C41.0653 42.0412 41.0754 42.223 41.0951 42.4018C41.1674 43.0586 40.7575 43.7443 40.0997 43.6825C39.535 43.6295 38.9766 43.5025 38.4392 43.3024C38.4213 43.2957 38.4094 43.2786 38.4094 43.2596V43.1068C38.4094 43.0171 38.4821 42.9444 38.5717 42.9444C39.4002 42.9444 40.0717 42.2729 40.0717 41.4444C40.0717 40.616 39.4002 39.9444 38.5717 39.9444C38.4821 39.9444 38.4094 39.8718 38.4094 39.7821V28.2381Z" fill="#F2C94C" />
  </g>
  <defs>
    <clipPath id="clip0hicG">
      <rect width="80" height="80" fill="white" />
    </clipPath>
  </defs>
</svg>