<svg viewBox="0 0 80 80" fill="none">
  <g clip-path="url(#clip0Dbit)">
    <path d="M100 0H-20V80H100V0Z" fill="#F2F2F2" />
    <path d="M100 0H-20V8H100V0Z" fill="#EB5757" />
    <path d="M100 36H-20V44H100V36Z" fill="#EB5757" />
    <path d="M100 18H-20V26H100V18Z" fill="#EB5757" />
    <path d="M100 54H-20V62H100V54Z" fill="#EB5757" />
    <path d="M100 72H-20V80H100V72Z" fill="#EB5757" />
    <path d="M42 0H-20V44H42V0Z" fill="#2F80ED" />
    <path d="M6 3L7.12257 6.45492H10.7553L7.81636 8.59017L8.93893 12.0451L6 9.90983L3.06107 12.0451L4.18364 8.59017L1.24472 6.45492H4.87743L6 3Z" fill="#F2F2F2" />
    <path d="M20 3L21.1226 6.45492H24.7553L21.8164 8.59017L22.9389 12.0451L20 9.90983L17.0611 12.0451L18.1836 8.59017L15.2447 6.45492H18.8774L20 3Z" fill="#F2F2F2" />
    <path d="M34 3L35.1226 6.45492H38.7553L35.8164 8.59017L36.9389 12.0451L34 9.90983L31.0611 12.0451L32.1836 8.59017L29.2447 6.45492H32.8774L34 3Z" fill="#F2F2F2" />
    <path d="M6 17L7.12257 20.4549H10.7553L7.81636 22.5902L8.93893 26.0451L6 23.9098L3.06107 26.0451L4.18364 22.5902L1.24472 20.4549H4.87743L6 17Z" fill="#F2F2F2" />
    <path d="M20 17L21.1226 20.4549H24.7553L21.8164 22.5902L22.9389 26.0451L20 23.9098L17.0611 26.0451L18.1836 22.5902L15.2447 20.4549H18.8774L20 17Z" fill="#F2F2F2" />
    <path d="M34 17L35.1226 20.4549H38.7553L35.8164 22.5902L36.9389 26.0451L34 23.9098L31.0611 26.0451L32.1836 22.5902L29.2447 20.4549H32.8774L34 17Z" fill="#F2F2F2" />
    <path d="M6 31L7.12257 34.4549H10.7553L7.81636 36.5902L8.93893 40.0451L6 37.9098L3.06107 40.0451L4.18364 36.5902L1.24472 34.4549H4.87743L6 31Z" fill="#F2F2F2" />
    <path d="M20 31L21.1226 34.4549H24.7553L21.8164 36.5902L22.9389 40.0451L20 37.9098L17.0611 40.0451L18.1836 36.5902L15.2447 34.4549H18.8774L20 31Z" fill="#F2F2F2" />
    <path d="M34 31L35.1226 34.4549H38.7553L35.8164 36.5902L36.9389 40.0451L34 37.9098L31.0611 40.0451L32.1836 36.5902L29.2447 34.4549H32.8774L34 31Z" fill="#F2F2F2" />
  </g>
  <defs>
    <clipPath id="clip0Dbit">
      <rect width="80" height="80" fill="white" />
    </clipPath>
  </defs>
</svg>