<svg viewBox="0 0 80 80" fill="none">
  <path d="M26.1435 15.9999C34.7179 11.0495 45.282 11.0495 53.8563 15.9999C62.4307 20.9503 67.7127 30.0991 67.7127 39.9999C67.7127 49.9008 62.4307 59.0495 53.8563 63.9999C45.282 68.9503 34.7179 68.9503 26.1435 63.9999C17.5691 59.0495 12.2871 49.9008 12.2871 39.9999C12.2871 30.0991 17.5691 20.9503 26.1435 15.9999Z" stroke="currentColor" stroke-linecap="round" stroke-linejoin="round" />
  <path d="M40 12.2871V67.7127" stroke="currentColor" stroke-linecap="round" stroke-linejoin="round" />
  <path d="M40 13.2598L15.2383 27.556" stroke="currentColor" stroke-linecap="round" stroke-linejoin="round" />
  <path d="M40.0001 21.2676L12.4302 37.1851" stroke="currentColor" stroke-linecap="round" stroke-linejoin="round" />
  <path d="M40.0001 29.2676L12.7422 45.0049" stroke="currentColor" stroke-linecap="round" stroke-linejoin="round" />
  <path d="M40.0001 37.2676L14.9043 51.7566" stroke="currentColor" stroke-linecap="round" stroke-linejoin="round" />
  <path d="M40.0001 45.2676L18.6079 57.6184" stroke="currentColor" stroke-linecap="round" stroke-linejoin="round" />
  <path d="M39.9999 53.2629L23.9009 62.5577" stroke="currentColor" stroke-linecap="round" stroke-linejoin="round" />
  <path d="M39.9999 61.2676L31.2754 66.3047" stroke="currentColor" stroke-linecap="round" stroke-linejoin="round" />
</svg>