<svg viewBox="0 0 80 80" fill="none">
  <path d="M28.455 12.6865C35.6991 9.68589 43.8384 9.68589 51.0824 12.6865C58.3265 15.6871 64.0819 21.4424 67.0824 28.6865C70.083 35.9305 70.083 44.0698 67.0824 51.3139C64.0819 58.5579 58.3265 64.3133 51.0824 67.3139C43.8384 70.3145 35.6991 70.3145 28.455 67.3139C21.211 64.3133 15.4556 58.5579 12.455 51.3139C9.45444 44.0698 9.45444 35.9305 12.455 28.6865C15.4556 21.4424 21.211 15.6871 28.455 12.6865Z" stroke="currentColor" stroke-linecap="round" stroke-linejoin="round" />
  <path d="M39.7683 10.436V69.5643" stroke="currentColor" stroke-linecap="round" stroke-linejoin="round" />
  <path d="M69.3329 40L10.2046 40" stroke="currentColor" stroke-linecap="round" stroke-linejoin="round" />
  <path d="M20.7193 62.6088C23.4173 59.8988 25.5901 56.6652 27.0819 53.0637C30.0825 45.8196 30.0825 37.6803 27.0819 30.4363C25.254 26.0234 22.4039 22.1629 18.8176 19.1411" stroke="currentColor" stroke-linecap="round" stroke-linejoin="round" />
  <path d="M60.7195 19.1411C57.133 22.163 54.2827 26.0235 52.4548 30.4366C49.4542 37.6806 49.4542 45.82 52.4548 53.064C53.9467 56.6657 56.1195 59.8994 58.8178 62.6095" stroke="currentColor" stroke-linecap="round" stroke-linejoin="round" />
</svg>