<svg viewBox="0 0 80 80" fill="none">
  <path d="M18.0456 24.8188C18.0456 24.2665 18.4933 23.8188 19.0456 23.8188H31.0456C31.5979 23.8188 32.0456 24.2665 32.0456 24.8188V66.8188C32.0456 67.3711 31.5979 67.8188 31.0456 67.8188H19.0456C18.4933 67.8188 18.0456 67.3711 18.0456 66.8188V24.8188Z" stroke="currentColor" stroke-linecap="round" stroke-linejoin="round" />
  <path d="M18.0456 31.8168H32.0456" stroke="currentColor" stroke-linecap="round" stroke-linejoin="round" />
  <path d="M18.0456 59.8168H32.0456" stroke="currentColor" stroke-linecap="round" stroke-linejoin="round" />
  <path d="M32.0456 12.8188C32.0456 12.2665 32.4933 11.8188 33.0456 11.8188H45.0456C45.5979 11.8188 46.0456 12.2665 46.0456 12.8188V66.8188C46.0456 67.3711 45.5979 67.8188 45.0456 67.8188H33.0456C32.4933 67.8188 32.0456 67.3711 32.0456 66.8188V12.8188Z" stroke="currentColor" stroke-linecap="round" stroke-linejoin="round" />
  <path d="M32.0456 19.8168H46.0456" stroke="currentColor" stroke-linecap="round" stroke-linejoin="round" />
  <path d="M32.0456 59.8168H46.0456" stroke="currentColor" stroke-linecap="round" stroke-linejoin="round" />
  <path d="M64.9544 66.5409L59.294 31.1785L49.0456 32.8189L54.7059 68.1813" stroke="currentColor" stroke-linecap="round" stroke-linejoin="round" />
  <path d="M54.3371 65.8768C55.8066 65.049 57.4269 64.4759 59.1328 64.2029C60.9757 63.9079 62.833 63.9767 64.6086 64.3807" stroke="currentColor" stroke-linecap="round" stroke-linejoin="round" />
</svg>