<svg viewBox="0 0 80 80" fill="none">
  <path d="M29.3935 14.3935C36.1848 11.5804 43.8154 11.5804 50.6067 14.3935C57.398 17.2065 62.7936 22.6022 65.6067 29.3935C68.4197 36.1848 68.4197 43.8154 65.6067 50.6067C62.7936 57.398 57.398 62.7936 50.6067 65.6067C43.8154 68.4197 36.1848 68.4197 29.3935 65.6067C22.6022 62.7936 17.2065 57.398 14.3935 50.6067C11.5804 43.8154 11.5804 36.1848 14.3935 29.3935C17.2065 22.6022 22.6022 17.2065 29.3935 14.3935Z" stroke="currentColor" stroke-linecap="round" stroke-linejoin="round" />
  <path d="M18.5618 22.4302C19.1067 22.5549 19.6253 22.8008 20.0756 23.1604L20.7003 23.6592C21.7587 24.5043 22.4493 25.7259 22.6277 27.0685L22.9394 29.4146C23.153 31.0219 23.8499 32.5264 24.9378 33.7286L28.798 37.9945C29.7172 39.0104 30.9548 39.6832 32.3073 39.9024L33.6432 40.1188C34.2397 40.2155 34.7801 40.5274 35.1621 40.9956C35.9326 41.9399 35.8992 43.305 35.0836 44.2105L34.9895 44.3149C34.5339 44.8208 34.2918 45.4834 34.314 46.1638L34.3908 48.5186C34.4439 50.1455 35.016 51.7127 36.0235 52.9912C37.0837 54.3366 37.6602 55.9997 37.6602 57.7126V62.055C37.6602 62.9478 37.8216 63.8331 38.1365 64.6685L38.7959 66.4177C38.8819 66.6458 39.0334 66.8433 39.2315 66.9854C40.0485 67.5715 41.186 66.9876 41.186 65.9821V62.5071C41.186 61.7226 41.4914 60.969 42.0375 60.4058L50.0683 52.1236C50.7527 51.4178 51.1355 50.4732 51.1355 49.4901V49.0536C51.1355 47.6532 50.2226 46.4163 48.8843 46.0036C48.3346 45.8341 47.8409 45.5192 47.4555 45.0922L46.9313 44.5114C45.8487 43.3121 44.3303 42.5971 42.7161 42.5265L42.1397 42.5014C40.5113 42.4302 38.9811 41.7025 37.8983 40.4841L37.4288 39.9557C36.9805 39.4513 36.3986 39.0839 35.7504 38.896L34.5304 38.5424C33.7236 38.3085 33.1685 37.5697 33.1685 36.7297C33.1685 35.6874 34.0135 34.8424 35.0558 34.8424H36.7451C37.0495 34.8424 37.3382 34.9778 37.533 35.2118C38.1722 35.9797 39.4203 35.4727 39.3429 34.4766L39.3388 34.4227C39.3156 34.125 39.4213 33.8316 39.629 33.617L46.8981 26.1072C47.3963 25.5925 47.5733 24.8467 47.3597 24.163C47.1298 23.4271 46.4892 22.8949 45.7237 22.8037L44.48 22.6555C44.2234 22.6249 43.9846 22.5089 43.802 22.3262C43.1319 21.6557 41.984 22.0372 41.8486 22.9755L41.7386 23.7379C41.638 24.4353 41.076 24.9749 40.3752 25.0471L39.4955 25.1378C38.673 25.2226 37.8577 24.9216 37.2876 24.3229L36.4027 23.3937C35.7777 22.7373 35.7574 21.7123 36.356 21.0317C36.871 20.4463 36.9363 19.5907 36.5163 18.9338L36.2488 18.5154C35.8863 17.9483 35.303 17.5588 34.6403 17.441L26.2203 15.9453" stroke="currentColor" stroke-linecap="round" stroke-linejoin="round" />
  <path d="M35.3899 12.6611C35.77 13.0762 35.9407 13.6795 35.7504 14.2835C35.4939 15.0981 34.6615 15.5855 33.8255 15.4106L30.0622 14.6233C29.8519 14.5793 29.6666 14.4761 29.5222 14.3333" stroke="currentColor" stroke-linecap="round" stroke-linejoin="round" />
  <path d="M40.1919 16.3982C39.3414 15.7179 39.3302 14.4281 40.1688 13.7332C40.9284 13.1038 42.0607 13.2417 42.6471 14.035L45.648 18.0952C46.1571 18.784 45.6806 19.7609 44.8243 19.7836C44.5743 19.7903 44.3299 19.7082 44.1346 19.5519L40.1919 16.3982Z" stroke="currentColor" stroke-linecap="round" stroke-linejoin="round" />
  <path d="M50.6121 14.3842C50.4774 14.3284 50.3425 14.2738 50.2072 14.2202C50.1208 14.4251 50.0569 14.6425 50.0186 14.8694C49.8667 15.7687 50.1438 16.6872 50.7675 17.3526L51.6915 18.3383C52.2761 18.962 52.5874 19.7934 52.556 20.6477C52.5269 21.4408 52.7999 22.2246 53.3098 22.8327C54.551 24.313 56.8102 24.4453 58.1889 23.0921L60.2542 21.065" stroke="currentColor" stroke-linecap="round" stroke-linejoin="round" />
</svg>