<svg viewBox="0 0 80 80" fill="none">
  <path d="M29.3935 14.3935C36.1848 11.5804 43.8154 11.5804 50.6067 14.3935C57.398 17.2065 62.7936 22.6022 65.6067 29.3935C68.4197 36.1848 68.4197 43.8154 65.6067 50.6067C62.7936 57.398 57.398 62.7936 50.6067 65.6067C43.8154 68.4197 36.1848 68.4197 29.3935 65.6067C22.6022 62.7936 17.2065 57.398 14.3935 50.6067C11.5804 43.8154 11.5804 36.1848 14.3935 29.3935C17.2065 22.6022 22.6022 17.2065 29.3935 14.3935Z" stroke="currentColor" stroke-linecap="round" stroke-linejoin="round" />
  <path d="M35.1928 12.6953L33.7923 14.1726C33.1308 14.8704 32.2089 15.2618 31.2474 15.2531C29.5167 15.2373 28.0401 16.5015 27.7891 18.2139L27.772 18.3307C27.6246 19.3367 27.0584 20.2334 26.2135 20.799L25.4081 21.3383C24.502 21.9449 23.9969 22.9958 24.0892 24.0822L24.1316 24.5825C24.2294 25.7342 23.4904 26.7915 22.3752 27.0953C21.3612 27.3717 20.2855 26.9545 19.723 26.0668L19.1774 25.2057C18.7562 24.5411 18.176 24.0634 17.5271 23.7759" stroke="currentColor" stroke-linecap="round" stroke-linejoin="round" />
  <path d="M37.4641 12.3909L37.3195 12.6079C36.6557 13.6041 37.1518 14.9583 38.3021 15.2899C38.9532 15.4776 39.6543 15.2771 40.1077 14.7735L42.2742 12.3672" stroke="currentColor" stroke-linecap="round" stroke-linejoin="round" />
  <path d="M30.5742 28.2655C29.5483 29.3282 29.7539 31.0645 30.9998 31.8581C32.0436 32.523 33.4247 32.2585 34.149 31.255L34.3782 30.9374C34.7778 30.3838 34.9572 29.7014 34.8816 29.0228L34.7689 28.0115C34.7363 27.7191 34.8038 27.4243 34.9604 27.1752L35.0331 27.0594C35.4574 26.3845 35.1163 25.4913 34.3502 25.2709C33.9241 25.1483 33.4652 25.2711 33.1572 25.59L30.5742 28.2655Z" stroke="currentColor" stroke-linecap="round" stroke-linejoin="round" />
  <path d="M21.5948 33.3997C20.8153 32.1798 21.5078 30.5579 22.928 30.2773C23.5646 30.1515 24.2232 30.3338 24.7045 30.769L30.1213 35.6666C30.9794 36.4424 31.0162 37.7776 30.2021 38.5996C29.6981 39.1084 28.9632 39.3139 28.2684 39.1402L26.5061 38.6996C25.3407 38.4083 24.331 37.6819 23.6842 36.6697L21.5948 33.3997Z" stroke="currentColor" stroke-linecap="round" stroke-linejoin="round" />
  <path d="M37.8556 38.0376C36.8271 37.9957 36.0876 37.0327 36.3128 36.0283C36.4817 35.2748 37.1505 34.7393 37.9227 34.7393H43.1343C44.0341 34.7393 44.7365 35.5171 44.645 36.4122C44.6008 36.8438 44.3742 37.236 44.0222 37.4896L43.6695 37.7438C43.2181 38.0691 42.6706 38.2337 42.1147 38.211L37.8556 38.0376Z" stroke="currentColor" stroke-linecap="round" stroke-linejoin="round" />
  <path d="M34.6354 43.241C35.899 41.9401 37.6093 41.1673 39.4208 41.079L39.6612 41.0673C42.0087 40.9529 44.2817 41.9075 45.8435 43.6638L47.028 44.9958C47.9778 46.0638 48.5025 47.4434 48.5025 48.8727V51.2917C48.5025 53.1779 46.9735 54.7069 45.0873 54.7069C44.2218 54.7069 43.3886 54.3783 42.7561 53.7874L42.1946 53.263C41.2013 52.3351 39.8928 51.819 38.5336 51.819H37.0962C34.707 51.819 32.7224 49.9759 32.5459 47.5933C32.4496 46.2926 32.9145 45.0128 33.8232 44.0773L34.6354 43.241Z" stroke="currentColor" stroke-linecap="round" stroke-linejoin="round" />
  <path d="M56.5238 53.1913L55.3637 54.8706C54.7134 55.812 53.3331 55.8426 52.6417 54.931C52.2039 54.3538 52.1852 53.561 52.5953 52.9638L53.7508 51.2813C54.33 50.438 55.5212 50.3019 56.2756 50.9928C56.8958 51.5608 57.0017 52.4993 56.5238 53.1913Z" stroke="currentColor" stroke-linecap="round" stroke-linejoin="round" />
</svg>