<svg viewBox="0 0 80 80" fill="none">
  <path d="M41.3334 12.75C43.6806 12.75 45.5834 14.6528 45.5834 17V39.166C45.5834 39.2814 45.677 39.375 45.7924 39.375C45.9531 39.375 46.0834 39.2447 46.0834 39.084V21C46.0834 18.6528 47.9862 16.75 50.3334 16.75C52.6806 16.75 54.5834 18.6528 54.5834 21V39.166C54.5834 39.2814 54.677 39.375 54.7924 39.375C54.9531 39.375 55.0834 39.2447 55.0834 39.084V29C55.0834 26.6528 56.9862 24.75 59.3334 24.75C61.6806 24.75 63.5834 26.6528 63.5834 29V46.5C63.5834 46.7131 63.5674 46.926 63.5354 47.1367L61.0354 63.6367C60.7207 65.7143 58.9348 67.25 56.8334 67.25H34.3334C32.9317 67.25 31.6201 66.5588 30.8276 65.4025L17.1616 45.4611C15.8348 43.5249 16.3287 40.8797 18.2649 39.5528C20.201 38.226 22.8463 38.7199 24.1732 40.6561L27.6668 45.754C27.7937 45.9391 28.0834 45.8493 28.0834 45.625V21C28.0834 18.6528 29.9862 16.75 32.3334 16.75C34.6806 16.75 36.5834 18.6528 36.5834 21V39.166C36.5834 39.2814 36.677 39.375 36.7924 39.375C36.9531 39.375 37.0834 39.2447 37.0834 39.084V17C37.0834 14.6528 38.9862 12.75 41.3334 12.75Z" stroke="currentColor" stroke-linecap="round" stroke-linejoin="round" />
</svg>