<svg viewBox="0 0 80 80" fill="none">
  <path d="M33.8147 40.0003L25.6507 33.4015C23.7717 31.8826 22.6797 29.5959 22.6797 27.1798V17H57.3207V27.1798C57.3207 29.5959 56.2287 31.8826 54.3497 33.4015L46.1865 39.9997L54.3504 46.5985C56.2295 48.1174 57.3214 50.4041 57.3214 52.8202V63H22.6804V52.8202C22.6804 50.4041 23.7724 48.1174 25.6515 46.5985L33.8147 40.0003Z" stroke="currentColor" stroke-linecap="round" stroke-linejoin="round" />
  <path d="M61 17H19" stroke="currentColor" stroke-linecap="round" stroke-linejoin="round" />
  <path d="M61 63H19" stroke="currentColor" stroke-linecap="round" stroke-linejoin="round" />
  <path d="M41.4996 39.6555C41.4996 39.0514 41.7726 38.4798 42.2424 38.1001L50.9073 31.0963C51.3295 30.7551 51.7119 30.3751 52.0512 29.9636C52.9277 28.9003 51.9865 27.5195 50.6085 27.5195H29.3915C28.0135 27.5195 27.0724 28.9003 27.9489 29.9636C28.2882 30.3751 28.6706 30.7551 29.0928 31.0963L37.7569 38.0994C38.2266 38.4791 38.4996 39.0508 38.4996 39.6548L38.4996 48.9999C38.4996 50.1045 37.6042 50.9999 36.4996 50.9999H28.398C27.6964 50.9999 27.0281 51.3605 26.7546 52.0066C26.3419 52.9815 26.1217 54.0403 26.1217 55.1252V57.6288C26.1217 58.7334 27.0171 59.6288 28.1217 59.6288H51.8784C52.9829 59.6288 53.8784 58.7334 53.8784 57.6288V55.1252C53.8784 54.0403 53.6582 52.9815 53.2455 52.0066C52.9719 51.3605 52.3037 50.9999 51.6021 50.9999H43.4996C42.3951 50.9999 41.4996 50.1045 41.4996 48.9999L41.4996 39.6555Z" stroke="currentColor" stroke-linecap="round" stroke-linejoin="round" />
</svg>