<svg viewBox="0 0 80 80" fill="none">
  <path d="M39.6736 29.5934C40.1766 29.3777 40.7461 29.3777 41.2492 29.5934L64.172 39.4174C65.7883 40.1101 65.7883 42.4013 64.172 43.094L41.2492 52.9181C40.7461 53.1337 40.1767 53.1337 39.6736 52.9181L16.7507 43.094C15.1345 42.4013 15.1345 40.1101 16.7507 39.4174L39.6736 29.5934Z" stroke="currentColor" stroke-linecap="round" stroke-linejoin="round" />
  <path d="M24.6601 47.0278L16.7507 50.4176C15.1345 51.1102 15.1345 53.4015 16.7507 54.0941L39.6736 63.9182C40.1767 64.1338 40.7461 64.1338 41.2492 63.9182L64.172 54.0941C65.7883 53.4015 65.7883 51.1102 64.172 50.4176L56.2627 47.0278" stroke="currentColor" stroke-linecap="round" stroke-linejoin="round" />
  <path d="M68.3755 22.2559H52.3755" stroke="currentColor" stroke-linecap="round" stroke-linejoin="round" />
  <path d="M60.3755 30.2559L60.3755 14.2559" stroke="currentColor" stroke-linecap="round" stroke-linejoin="round" />
</svg>