<svg viewBox="0 0 80 80" fill="none">
  <path d="M43.23 26.9639C43.9703 26.2681 44.9494 25.8788 45.9689 25.8787L59.4995 25.8772C61.7089 25.877 63.5 27.6679 63.5 29.8772L63.5 63.8771C63.5 66.0863 61.7091 67.8771 59.5 67.8771H35.5C33.2909 67.8771 31.5 66.0863 31.5 63.8771V40.4468C31.5 39.4301 31.8871 38.4531 32.5801 37.713" stroke="currentColor" stroke-linecap="round" stroke-linejoin="round" />
  <path d="M31.5 61.875H21.5C18.7386 61.875 16.5 59.6364 16.5 56.875V18.875C16.5 16.1136 18.7386 13.875 21.5 13.875H28.2304C28.2283 13.9197 28.2273 13.9646 28.2273 14.0098C28.2273 15.5824 29.5021 16.8572 31.0747 16.8572H39.9253C41.4979 16.8572 42.7727 15.5824 42.7727 14.0098C42.7727 13.9646 42.7717 13.9197 42.7696 13.875H49.5C52.2614 13.875 54.5 16.1136 54.5 18.875V25.8777" stroke="currentColor" stroke-linecap="round" stroke-linejoin="round" />
  <path d="M32.6262 37.6615L43.1635 27.0228C43.5812 26.6011 44.3002 26.8974 44.3002 27.491V34.7988C44.3002 37.008 42.5093 38.7988 40.3002 38.7988H33.1002C32.5073 38.7988 32.2089 38.0827 32.6262 37.6615Z" stroke="currentColor" stroke-linecap="round" stroke-linejoin="round" />
  <path d="M28.2275 14.0105C28.2275 12.4379 29.5024 11.1631 31.075 11.1631H39.9255C41.4981 11.1631 42.773 12.4379 42.773 14.0105C42.773 15.5832 41.4981 16.858 39.9255 16.858H31.075C29.5024 16.858 28.2275 15.5832 28.2275 14.0105Z" stroke="currentColor" stroke-linecap="round" stroke-linejoin="round" />
</svg>