<svg viewBox="0 0 80 80" fill="none">
  <path d="M27.2011 45.0006C21.7338 50.4679 21.7338 59.3322 27.2011 64.7996C32.6684 70.2669 41.5327 70.2669 47.0001 64.7996L56.8996 54.9001L66.7991 45.0006C72.2664 39.5332 72.2664 30.6689 66.7991 25.2016C61.3317 19.7342 52.4674 19.7342 47.0001 25.2016L37.1006 35.1011L27.2011 45.0006Z" stroke="currentColor" stroke-linecap="round" stroke-linejoin="round" />
  <path d="M56.8996 54.9001L37.1006 35.1011" stroke="currentColor" stroke-linecap="round" stroke-linejoin="round" />
  <path d="M19.9998 11C23.1824 11 26.2348 12.2644 28.4853 14.5148C30.7356 16.7652 32 19.8175 32 23C32 26.1825 30.7356 29.2348 28.4853 31.4852C26.2348 33.7356 23.1824 35 19.9998 35C16.8173 35 13.765 33.7357 11.5147 31.4853C9.26426 29.235 8 26.1825 8 23C8 19.8175 9.26426 16.765 11.5146 14.5146C13.765 12.2643 16.8173 11 19.9998 11Z" stroke="currentColor" stroke-linecap="round" stroke-linejoin="round" />
  <path d="M8 23L32 23" stroke="currentColor" stroke-linecap="round" stroke-linejoin="round" />
</svg>