<svg viewBox="0 0 80 80" fill="none">
  <path d="M29.4986 61.8651C27.5657 65.2131 23.2845 66.3602 19.9365 64.4272C16.5884 62.4942 15.4413 58.2131 17.3743 54.8651L18.3743 53.133C20.3073 49.785 24.5884 48.6378 27.9365 50.5708C31.2845 52.5038 32.4316 56.785 30.4986 60.133L29.4986 61.8651Z" stroke="currentColor" stroke-linecap="round" stroke-linejoin="round" />
  <path d="M31.8056 54.6318C31.6266 54.7671 31.426 54.8565 31.2186 54.9013C30.9758 53.9507 30.5346 53.0512 29.9128 52.2703L37.9117 42.3026L55.0309 15.3319C55.4577 14.6593 56.3359 14.4377 57.0308 14.8273C57.7256 15.2168 57.9948 16.0816 57.6438 16.7967L43.5112 45.5876C43.4077 45.7984 43.2562 45.982 43.0688 46.1235L31.8056 54.6318Z" stroke="currentColor" stroke-linecap="round" stroke-linejoin="round" />
  <path d="M50.5012 61.8651C52.4342 65.2131 56.7154 66.3602 60.0634 64.4272C63.4115 62.4942 64.5586 58.2131 62.6256 54.8651L61.6256 53.133C59.6926 49.785 55.4115 48.6378 52.0634 50.5708C48.7154 52.5038 47.5683 56.785 49.5012 60.133L50.5012 61.8651Z" stroke="currentColor" stroke-linecap="round" stroke-linejoin="round" />
  <path d="M39.9998 39.0129L24.9688 15.3321C24.5419 14.6595 23.6638 14.438 22.9689 14.8275C22.274 15.2171 22.0049 16.0818 22.3559 16.7969L36.0281 44.6499M39.9998 48.4421L48.194 54.6321C48.3731 54.7673 48.5737 54.8568 48.7811 54.9015C49.0239 53.9509 49.4651 53.0515 50.0868 52.2706L43.9715 44.6499" stroke="currentColor" stroke-linecap="round" stroke-linejoin="round" />
  <path fill-rule="evenodd" clip-rule="evenodd" d="M39.5002 42.8109C39.0219 43.087 38.858 43.6986 39.1341 44.1769C39.4103 44.6552 40.0219 44.8191 40.5002 44.543C40.9785 44.2668 41.1423 43.6552 40.8662 43.1769C40.5901 42.6986 39.9785 42.5348 39.5002 42.8109Z" stroke="currentColor" stroke-linecap="round" stroke-linejoin="round" />
</svg>