<svg viewBox="0 0 80 80" fill="none">
  <path d="M58.8198 40.3057C59.4918 37.853 58.2157 35.2866 55.8545 34.3421L41.8564 28.7429C40.6643 28.266 39.3345 28.266 38.1425 28.7429L24.1444 34.3421C21.7832 35.2866 20.5071 37.853 21.179 40.3057L23.4877 48.7323C25.5879 48.2918 27.8097 48.6116 29.7334 49.6915L29.7345 49.6921C31.5556 50.7147 33.7779 50.7147 35.5989 49.6921C38.3322 48.1571 41.6678 48.1571 44.4012 49.6921C46.2222 50.7147 48.4445 50.7147 50.2656 49.6921C52.1891 48.6119 54.4109 48.2919 56.5112 48.732L58.8198 40.3057Z" stroke="currentColor" />
  <path d="M39.9995 28.3853V48.5409" stroke="currentColor" stroke-linejoin="round" />
  <path d="M53.9995 33.6004V24.5C53.9995 23.1193 52.8802 22 51.4995 22H28.4995C27.1188 22 25.9995 23.1193 25.9995 24.5V33.6004" stroke="currentColor" />
  <path d="M31.9995 22V17.5C31.9995 16.6716 32.6711 16 33.4995 16H46.4995C47.3279 16 47.9995 16.6716 47.9995 17.5V22" stroke="currentColor" />
  <path d="M16 56.6873C17.8826 57.209 19.922 56.98 21.6668 56.0001C23.944 54.7213 26.723 54.7213 29.0002 56.0001C31.2774 57.2789 34.0563 57.2789 36.3335 56.0001C38.6107 54.7213 41.3896 54.7213 43.6668 56.0001C45.944 57.2789 48.723 57.2789 51.0002 56.0001C53.2774 54.7213 56.0563 54.7213 58.3335 56.0001C60.0782 56.9799 62.1175 57.209 64 56.6874" stroke="currentColor" stroke-linecap="round" stroke-linejoin="round" />
  <path d="M24 61.1606C25.6892 60.8551 27.4595 61.1349 29.0002 62.0001C31.2774 63.2789 34.0563 63.2789 36.3335 62.0001C38.6107 60.7213 41.3896 60.7213 43.6668 62.0001C45.944 63.2789 48.723 63.2789 51.0002 62.0001C52.5407 61.135 54.3109 60.8551 56 61.1605" stroke="currentColor" stroke-linecap="round" stroke-linejoin="round" />
</svg>