<svg viewBox="0 0 80 80" fill="none">
  <path d="M60 70.0002H20C17.7909 70.0002 16 68.2094 16 66.0002V64.6639C16 58.8513 19.6061 53.6486 25.049 51.6087C34.6889 47.9957 45.3111 47.9957 54.951 51.6087C60.3939 53.6486 64 58.8513 64 64.6639V66.0002C64 68.2094 62.2091 70.0002 60 70.0002Z" stroke="currentColor" stroke-linecap="round" stroke-linejoin="round" />
  <path d="M33.9015 38.8673C37.7295 40.8336 42.2707 40.8336 46.0986 38.8673C49.6612 37.0373 52.2136 33.7042 53.0517 29.7878L53.2753 28.7425C54.1323 24.7375 53.2169 20.5576 50.7645 17.2773L50.4054 16.797C47.9526 13.5163 44.0963 11.5845 40.0001 11.5845C35.9039 11.5845 32.0475 13.5163 29.5948 16.797L29.2356 17.2773C26.7832 20.5576 25.8679 24.7375 26.7248 28.7425L26.9485 29.7878C27.7865 33.7042 30.339 37.0373 33.9015 38.8673Z" stroke="currentColor" stroke-linecap="round" stroke-linejoin="round" />
</svg>