<svg viewBox="0 0 80 80" fill="none">
  <path fill-rule="evenodd" clip-rule="evenodd" d="M53.9891 15.9999C45.4148 11.0495 34.8507 11.0495 26.2763 15.9999C17.702 20.9503 12.4199 30.0991 12.4199 39.9999C12.4199 49.9008 17.702 59.0495 26.2763 63.9999C34.8507 68.9503 45.4148 68.9503 53.9891 63.9999C62.5635 59.0495 67.8456 49.9008 67.8456 39.9999C67.8456 30.0991 62.5635 20.9503 53.9891 15.9999ZM31.4727 24.9999C34.1522 23.4529 37.1426 22.6794 40.1329 22.6794V57.3204C37.1426 57.3204 34.1522 56.5469 31.4727 54.9999C26.1137 51.9059 22.8124 46.1879 22.8124 39.9999C22.8124 33.8119 26.1137 28.0939 31.4727 24.9999Z" fill="currentColor" stroke="currentColor" stroke-width="2" stroke-linecap="round" stroke-linejoin="round" />
</svg>