<svg viewBox="0 0 80 80" fill="none">
  <path d="M26.1436 16C34.718 11.0496 45.282 11.0496 53.8564 16V16C62.4308 20.9504 67.7128 30.0992 67.7128 40V40C67.7128 49.9008 62.4308 59.0496 53.8564 64V64C45.282 68.9504 34.718 68.9504 26.1436 64V64C17.5692 59.0496 12.2872 49.9008 12.2872 40V40C12.2872 30.0992 17.5692 20.9504 26.1436 16V16Z" stroke="currentColor" stroke-width="5" stroke-linecap="round" stroke-linejoin="round" />
  <path d="M42.5 12.2872C42.5 10.9065 41.3807 9.78719 40 9.78719C38.6193 9.78719 37.5 10.9065 37.5 12.2872L42.5 12.2872ZM37.5 67.7128C37.5 69.0935 38.6193 70.2128 40 70.2128C41.3807 70.2128 42.5 69.0935 42.5 67.7128H37.5ZM37.5 12.2872L37.5 67.7128H42.5L42.5 12.2872L37.5 12.2872Z" fill="currentColor" />
  <path d="M41.2501 15.4246C42.4458 14.7343 42.8555 13.2053 42.1651 12.0096C41.4748 10.8139 39.9458 10.4042 38.7501 11.0945L41.2501 15.4246ZM13.9883 25.3907C12.7926 26.0811 12.3829 27.6101 13.0732 28.8058C13.7636 30.0015 15.2926 30.4112 16.4883 29.7208L13.9883 25.3907ZM41.2501 23.4325C42.4458 22.7422 42.8555 21.2132 42.1651 20.0175C41.4748 18.8217 39.9458 18.4121 38.7501 19.1024L41.2501 23.4325ZM11.1802 35.0199C9.98444 35.7102 9.57476 37.2392 10.2651 38.435C10.9555 39.6307 12.4844 40.0404 13.6802 39.35L11.1802 35.0199ZM41.2501 31.4325C42.4458 30.7422 42.8555 29.2132 42.1651 28.0175C41.4748 26.8217 39.9458 26.4121 38.7501 27.1024L41.2501 31.4325ZM11.4922 42.8398C10.2964 43.5301 9.88675 45.0591 10.5771 46.2548C11.2675 47.4505 12.7964 47.8602 13.9922 47.1699L11.4922 42.8398ZM41.2501 39.4325C42.4458 38.7422 42.8555 37.2132 42.1651 36.0175C41.4748 34.8217 39.9458 34.4121 38.7501 35.1024L41.2501 39.4325ZM13.6543 49.5915C12.4585 50.2818 12.0489 51.8108 12.7392 53.0065C13.4296 54.2023 14.9585 54.6119 16.1543 53.9216L13.6543 49.5915ZM41.2501 47.4325C42.4458 46.7422 42.8555 45.2132 42.1651 44.0175C41.4748 42.8217 39.9458 42.4121 38.7501 43.1024L41.2501 47.4325ZM17.3578 55.4532C16.1621 56.1436 15.7524 57.6725 16.4428 58.8683C17.1331 60.064 18.6621 60.4737 19.8578 59.7833L17.3578 55.4532ZM41.2501 55.428C42.4458 54.7377 42.8555 53.2087 42.1651 52.013C41.4748 50.8172 39.9458 50.4075 38.7501 51.0979L41.2501 55.428ZM22.6511 60.3927C21.4553 61.083 21.0456 62.612 21.736 63.8077C22.4264 65.0035 23.9553 65.4131 25.1511 64.7228L22.6511 60.3927ZM41.2501 63.4325C42.4458 62.7422 42.8555 61.2132 42.1651 60.0175C41.4748 58.8217 39.9458 58.4121 38.7501 59.1024L41.2501 63.4325ZM30.0256 64.1395C28.8298 64.8298 28.4201 66.3588 29.1105 67.5546C29.8009 68.7503 31.3298 69.16 32.5256 68.4696L30.0256 64.1395ZM38.7501 11.0945L13.9883 25.3907L16.4883 29.7208L41.2501 15.4246L38.7501 11.0945ZM38.7501 19.1024L11.1802 35.0199L13.6802 39.35L41.2501 23.4325L38.7501 19.1024ZM38.7501 27.1024L11.4922 42.8398L13.9922 47.1699L41.2501 31.4325L38.7501 27.1024ZM38.7501 35.1024L13.6543 49.5915L16.1543 53.9216L41.2501 39.4325L38.7501 35.1024ZM38.7501 43.1024L17.3578 55.4532L19.8578 59.7833L41.2501 47.4325L38.7501 43.1024ZM38.7501 51.0979L22.6511 60.3927L25.1511 64.7228L41.2501 55.428L38.7501 51.0979ZM38.7501 59.1024L30.0256 64.1395L32.5256 68.4696L41.2501 63.4325L38.7501 59.1024Z" fill="currentColor" />
</svg>