<svg viewBox="0 0 80 80" fill="none">
  <path d="M42.8492 48.6934C41.1924 48.6934 39.8492 50.0365 39.8492 51.6934C39.8492 53.3502 41.1924 54.6934 42.8492 54.6934L42.8492 48.6934ZM64 54.6934C65.6569 54.6934 67 53.3502 67 51.6934C67 50.0365 65.6569 48.6934 64 48.6934V54.6934ZM16 24.6934C14.3431 24.6934 13 26.0365 13 27.6934C13 29.3502 14.3431 30.6934 16 30.6934V24.6934ZM37.1508 30.6934C38.8076 30.6934 40.1508 29.3502 40.1508 27.6934C40.1508 26.0365 38.8076 24.6934 37.1508 24.6934V30.6934ZM16 36.6582C14.3431 36.6582 13 38.0013 13 39.6582C13 41.3151 14.3431 42.6582 16 42.6582V36.6582ZM25.1859 42.6582C26.8428 42.6582 28.1859 41.3151 28.1859 39.6582C28.1859 38.0013 26.8428 36.6582 25.1859 36.6582V42.6582ZM54.8844 36.6582C53.2275 36.6582 51.8844 38.0013 51.8844 39.6582C51.8844 41.3151 53.2275 42.6582 54.8844 42.6582L54.8844 36.6582ZM64 42.6582C65.6569 42.6582 67 41.3151 67 39.6582C67 38.0013 65.6569 36.6582 64 36.6582L64 42.6582ZM30.8844 60.6582C29.2275 60.6582 27.8844 62.0014 27.8844 63.6582C27.8844 65.3151 29.2275 66.6582 30.8844 66.6582V60.6582ZM64 66.6582C65.6569 66.6582 67 65.3151 67 63.6582C67 62.0014 65.6569 60.6582 64 60.6582V66.6582ZM16 12.6582C14.3431 12.6582 13 14.0013 13 15.6582C13 17.3151 14.3431 18.6582 16 18.6582V12.6582ZM49.1859 18.6582C50.8428 18.6582 52.1859 17.3151 52.1859 15.6582C52.1859 14.0013 50.8428 12.6582 49.1859 12.6582V18.6582ZM42.8492 54.6934H64V48.6934H42.8492L42.8492 54.6934ZM16 30.6934L37.1508 30.6934V24.6934L16 24.6934V30.6934ZM16 42.6582H25.1859V36.6582H16V42.6582ZM54.8844 42.6582H64L64 36.6582H54.8844L54.8844 42.6582ZM30.8844 66.6582H64V60.6582L30.8844 60.6582V66.6582ZM16 18.6582L49.1859 18.6582V12.6582L16 12.6582V18.6582Z" fill="currentColor" />
  <path d="M12 67.6934L68 11.6934" stroke="currentColor" stroke-width="6" stroke-linecap="round" stroke-linejoin="round" />
</svg>