<svg viewBox="0 0 80 80" fill="none">
  <path fill-rule="evenodd" clip-rule="evenodd" d="M30 66C31.1046 66 32 65.1046 32 64L32 36C32 34.8954 31.1046 34 30 34L26 34C24.8954 34 24 34.8954 24 36L24 64C24 65.1046 24.8954 66 26 66H30ZM12 66C13.1046 66 14 65.1046 14 64L14 54C14 52.8954 13.1046 52 12 52H8C6.89543 52 6 52.8954 6 54L6 64C6 65.1046 6.89543 66 8 66H12ZM48 48C49.1046 48 50 48.8954 50 50L50 64C50 65.1046 49.1046 66 48 66H44C42.8954 66 42 65.1046 42 64L42 50C42 48.8954 42.8954 48 44 48H48ZM66 66C67.1046 66 68 65.1046 68 64V36C68 34.8954 67.1046 34 66 34H62C60.8954 34 60 34.8954 60 36L60 64C60 65.1046 60.8954 66 62 66H66Z" fill="currentColor" />
  <path d="M14 64H12H14ZM30 36L30 64H34V36H30ZM26 36L30 36V32L26 32V36ZM26 64L26 36H22L22 64H26ZM30 64H26L26 68H30L30 64ZM12 54L12 64H16L16 54H12ZM8 54H12V50H8L8 54ZM8 64L8 54H4L4 64H8ZM12 64H8V68H12L12 64ZM52 64L52 50H48L48 64H52ZM44 68H48V64H44V68ZM40 50L40 64H44L44 50H40ZM48 46H44V50H48V46ZM66 36V64H70V36H66ZM62 36H66V32H62V36ZM62 64L62 36H58L58 64L62 64ZM66 64H62V68H66V64ZM58 64C58 66.2091 59.7909 68 62 68V64L58 64ZM62 32C59.7909 32 58 33.7909 58 36H62V32ZM66 64V68C68.2091 68 70 66.2091 70 64H66ZM70 36C70 33.7909 68.2091 32 66 32V36H70ZM44 50V46C41.7909 46 40 47.7909 40 50H44ZM44 64H40C40 66.2091 41.7909 68 44 68V64ZM52 50C52 47.7909 50.2091 46 48 46V50H52ZM48 64V68C50.2091 68 52 66.2091 52 64H48ZM4 64C4 66.2091 5.79086 68 8 68V64H8H4ZM8 50C5.79086 50 4 51.7909 4 54H8L8 50ZM12 64L12 68C14.2091 68 16 66.2091 16 64H12ZM16 54C16 51.7909 14.2091 50 12 50V54H16ZM22 64C22 66.2091 23.7909 68 26 68L26 64H22ZM26 32C23.7909 32 22 33.7909 22 36H26V32ZM30 64L30 68C32.2091 68 34 66.2091 34 64H30ZM34 36C34 33.7909 32.2091 32 30 32V36H34Z" fill="currentColor" />
  <path d="M11.6468 26.8179C10.6705 27.7942 10.6705 29.3771 11.6468 30.3534C12.6231 31.3297 14.206 31.3297 15.1823 30.3534L11.6468 26.8179ZM26.3539 19.1818C27.3302 18.2055 27.3302 16.6226 26.3539 15.6463C25.3776 14.67 23.7947 14.67 22.8184 15.6463L26.3539 19.1818ZM33.2884 15.1524C32.2277 14.2685 30.6513 14.4118 29.7674 15.4725C28.8835 16.5332 29.0268 18.1096 30.0875 18.9936L33.2884 15.1524ZM40.7116 27.847C41.7723 28.7309 43.3487 28.5876 44.2326 27.5269C45.1166 26.4662 44.9732 24.8898 43.9126 24.0059L40.7116 27.847ZM48.0878 24.0061C47.0271 24.89 46.8838 26.4664 47.7677 27.5271C48.6516 28.5878 50.228 28.7311 51.2887 27.8472L48.0878 24.0061ZM61.9128 18.9937C62.9735 18.1098 63.1168 16.5334 62.2329 15.4727C61.349 14.412 59.7726 14.2687 58.7119 15.1526L61.9128 18.9937ZM15.1823 30.3534L26.3539 19.1818L22.8184 15.6463L11.6468 26.8179L15.1823 30.3534ZM30.0875 18.9936L40.7116 27.847L43.9126 24.0059L33.2884 15.1524L30.0875 18.9936ZM51.2887 27.8472L61.9128 18.9937L58.7119 15.1526L48.0878 24.0061L51.2887 27.8472Z" fill="currentColor" />
  <path fill-rule="evenodd" clip-rule="evenodd" d="M32 12C32 10.8954 31.1046 10 30 10H26C24.8954 10 24 10.8954 24 12V16C24 17.1046 24.8954 18 26 18H30C31.1046 18 32 17.1046 32 16V12ZM14 30C14 28.8954 13.1046 28 12 28H8C6.89543 28 6 28.8954 6 30V34C6 35.1046 6.89543 36 8 36H12C13.1046 36 14 35.1046 14 34V30ZM42 27C42 25.8954 42.8954 25 44 25H48C49.1046 25 50 25.8954 50 27V31C50 32.1046 49.1046 33 48 33H44C42.8954 33 42 32.1046 42 31V27ZM68 12C68 10.8954 67.1046 10 66 10H62C60.8954 10 60 10.8954 60 12V16C60 17.1046 60.8954 18 62 18H66C67.1046 18 68 17.1046 68 16V12Z" fill="currentColor" />
  <path d="M26 12H30V8H26V12ZM26 16V12H22V16H26ZM30 16H26V20H30V16ZM30 12V16H34V12H30ZM8 30H12V26H8L8 30ZM8 34V30H4L4 34H8ZM12 34H8L8 38H12V34ZM12 30V34H16V30H12ZM48 23H44V27H48V23ZM52 31V27H48V31H52ZM44 35H48L48 31H44L44 35ZM40 27V31H44V27H40ZM62 12L66 12V8H62V12ZM62 16V12H58V16H62ZM66 16L62 16V20H66V16ZM66 12V16H70V12H66ZM66 20C68.2091 20 70 18.2091 70 16H66V20ZM58 16C58 18.2091 59.7909 20 62 20V16H58ZM66 12H70C70 9.79086 68.2091 8 66 8V12ZM62 8C59.7909 8 58 9.79086 58 12H62V8ZM44 31H40C40 33.2091 41.7909 35 44 35L44 31ZM48 31L48 35C50.2091 35 52 33.2091 52 31H48ZM44 23C41.7909 23 40 24.7909 40 27H44V23ZM48 27H52C52 24.7909 50.2091 23 48 23V27ZM12 38C14.2091 38 16 36.2091 16 34H12V38ZM4 34C4 36.2091 5.79086 38 8 38L8 34H4ZM12 30H16C16 27.7909 14.2091 26 12 26V30ZM8 26C5.79086 26 4 27.7909 4 30H8L8 26ZM30 20C32.2091 20 34 18.2091 34 16H30V20ZM22 16C22 18.2091 23.7909 20 26 20V16H22ZM30 12H34C34 9.79086 32.2091 8 30 8V12ZM26 8C23.7909 8 22 9.79086 22 12H26V8Z" fill="currentColor" />
</svg>