<svg viewBox="0 0 80 83" fill="none">
  <path fill-rule="evenodd" clip-rule="evenodd" d="M30.4593 15.8844L16.2773 30.0664C14.5615 28.6286 14.1541 25.8464 16 24.0005L33.2877 6.71283C35.3379 4.66258 38.6621 4.66258 40.7123 6.71283L58 24.0005C59.8459 25.8464 59.4386 28.6285 57.7228 30.0663L43.5408 15.8844C39.9285 12.2721 34.0717 12.272 30.4593 15.8844Z" fill="currentColor" />
  <path fill-rule="evenodd" clip-rule="evenodd" d="M49.0021 43.1718L55.1005 43.1718C58.7537 43.1718 60.5832 38.755 58 36.1718L40.7123 18.8841C38.6621 16.8339 35.3379 16.8339 33.2877 18.8841L16 36.1718C13.4168 38.755 15.2463 43.1718 18.8995 43.1718L24.9999 43.1718C25.0311 46.6399 25.5892 50.1044 26.6742 53.4437C28.9085 60.3201 33.2624 66.3128 39.1119 70.5627C44.9614 74.8126 52.0061 77.1016 59.2365 77.1016C61.5571 77.1016 63.8586 76.8658 66.1076 76.405C67.9193 76.0339 68.0095 73.5835 66.3994 72.6739C65.2692 72.0355 64.1721 71.331 63.1142 70.5624C57.2647 66.3125 52.9108 60.3198 50.6765 53.4433C49.5915 50.1041 49.0334 46.6398 49.0021 43.1718Z" fill="currentColor" />
</svg>