<svg viewBox="0 0 80 80" fill="none">
  <path fill-rule="evenodd" clip-rule="evenodd" d="M48.965 36.9999L55.0634 36.9999C58.7166 36.9999 60.5461 32.5831 57.9629 29.9999L40.6752 12.7122C38.6249 10.662 35.3008 10.662 33.2506 12.7122L15.9629 29.9999C13.3797 32.5831 15.2092 36.9999 18.8624 36.9999L24.9627 36.9999C24.994 40.468 25.5521 43.9325 26.6371 47.2718C28.8714 54.1483 33.2253 60.1409 39.0748 64.3908C44.9243 68.6407 51.969 70.9297 59.1994 70.9297C61.52 70.9297 63.8215 70.6939 66.0705 70.2332C67.8822 69.862 67.9724 67.4116 66.3623 66.5021C65.2321 65.8636 64.135 65.1591 63.0771 64.3905C57.2276 60.1406 52.8737 54.1479 50.6394 47.2715C49.5544 43.9323 48.9963 40.4679 48.965 36.9999Z" fill="currentColor" />
  <path d="M55.0634 36.9999L55.0634 38.4999L55.0634 36.9999ZM48.965 36.9999L48.965 35.4999C48.5649 35.4999 48.1813 35.6598 47.8996 35.9441C47.6179 36.2283 47.4615 36.6133 47.4651 37.0134L48.965 36.9999ZM57.9629 29.9999L59.0236 28.9393L57.9629 29.9999ZM40.6752 12.7122L41.7359 11.6516L40.6752 12.7122ZM33.2506 12.7122L32.1899 11.6516L33.2506 12.7122ZM15.9629 29.9999L14.9022 28.9393L14.9022 28.9393L15.9629 29.9999ZM18.8624 36.9999L18.8624 35.4999L18.8624 35.4999L18.8624 36.9999ZM24.9627 36.9999L26.4627 36.9864C26.4553 36.1633 25.7859 35.4999 24.9627 35.4999L24.9627 36.9999ZM26.6371 47.2718L28.0637 46.8083L28.0637 46.8083L26.6371 47.2718ZM39.0748 64.3908L39.9565 63.1773L39.9565 63.1773L39.0748 64.3908ZM66.0705 70.2332L65.7695 68.7637L66.0705 70.2332ZM66.3623 66.5021L65.6245 67.8081L65.6245 67.8081L66.3623 66.5021ZM63.0771 64.3905L63.9587 63.177L63.9587 63.177L63.0771 64.3905ZM50.6394 47.2715L52.066 46.8079L50.6394 47.2715ZM55.0634 35.4999L48.965 35.4999L48.965 38.4999L55.0634 38.4999L55.0634 35.4999ZM56.9022 31.0606C58.5405 32.6988 57.3802 35.4999 55.0634 35.4999L55.0634 38.4999C60.0529 38.4999 62.5517 32.4674 59.0236 28.9393L56.9022 31.0606ZM39.6145 13.7729L56.9022 31.0606L59.0236 28.9393L41.7359 11.6516L39.6145 13.7729ZM34.3112 13.7729C35.7757 12.3084 38.1501 12.3084 39.6145 13.7729L41.7359 11.6516C39.0998 9.01554 34.826 9.01554 32.1899 11.6516L34.3112 13.7729ZM17.0236 31.0606L34.3112 13.7729L32.1899 11.6516L14.9022 28.9393L17.0236 31.0606ZM18.8624 35.4999C16.5456 35.4999 15.3853 32.6988 17.0236 31.0606L14.9022 28.9393C11.3741 32.4674 13.8729 38.4999 18.8624 38.4999L18.8624 35.4999ZM24.9627 35.4999L18.8624 35.4999L18.8624 38.4999L24.9627 38.4999L24.9627 35.4999ZM23.4628 37.0134C23.4954 40.6334 24.078 44.2497 25.2105 47.7353L28.0637 46.8083C27.0262 43.6153 26.4925 40.3026 26.4627 36.9864L23.4628 37.0134ZM25.2105 47.7353C27.5427 54.9131 32.0874 61.1682 38.1931 65.6043L39.9565 63.1773C34.3632 59.1136 30.2001 53.3835 28.0637 46.8083L25.2105 47.7353ZM38.1931 65.6043C44.2989 70.0404 51.6523 72.4297 59.1994 72.4297L59.1994 69.4297C52.2858 69.4297 45.5497 67.241 39.9565 63.1773L38.1931 65.6043ZM59.1994 72.4297C61.6217 72.4297 64.024 72.1836 66.3716 71.7026L65.7695 68.7637C63.619 69.2042 61.4184 69.4297 59.1994 69.4297L59.1994 72.4297ZM66.3716 71.7026C68.0331 71.3623 68.9132 70.0131 68.9967 68.662C69.0774 67.3555 68.4384 65.952 67.1 65.196L65.6245 67.8081C65.8963 67.9616 66.0172 68.2381 66.0024 68.477C65.9955 68.5893 65.9603 68.6536 65.9378 68.6817C65.9246 68.698 65.8898 68.739 65.7695 68.7637L66.3716 71.7026ZM67.1 65.196C66.0194 64.5856 64.9704 63.9119 63.9587 63.177L62.1954 65.604C63.2997 66.4063 64.4448 67.1417 65.6245 67.8081L67.1 65.196ZM63.9587 63.177C58.3655 59.1132 54.2024 53.3832 52.066 46.8079L49.2128 47.735C51.545 54.9127 56.0896 61.1679 62.1954 65.604L63.9587 63.177ZM52.066 46.8079C51.0285 43.615 50.4949 40.3025 50.465 36.9864L47.4651 37.0134C47.4977 40.6333 48.0803 44.2495 49.2128 47.735L52.066 46.8079Z" fill="currentColor" />
</svg>