<svg viewBox="0 0 80 80" fill="none">
  <path fill-rule="evenodd" clip-rule="evenodd" d="M30.4592 15.8834L15.7635 30.5791C13.8531 29.5352 13.2169 26.7825 14.9748 25.0246L15.9999 23.9995L32.0501 7.94925C34.7838 5.21558 39.216 5.21558 41.9496 7.94925L57.9999 23.9995L59.025 25.0246C60.7829 26.7825 60.1467 29.5351 58.2364 30.579L43.5407 15.8834C39.9284 12.271 34.0716 12.271 30.4592 15.8834Z" fill="currentColor" />
  <path fill-rule="evenodd" clip-rule="evenodd" d="M49.0023 43.1718L56.5504 43.1718C59.6686 43.1718 61.2301 39.4018 59.0253 37.1969L58.0001 36.1718L41.9499 20.1215C39.2162 17.3879 34.7841 17.3879 32.0504 20.1215L16.0001 36.1718L14.975 37.1969C12.7701 39.4018 14.3317 43.1718 17.4499 43.1718L25 43.1718C25.0312 46.6399 25.5893 50.1044 26.6743 53.4437C28.9086 60.3201 33.2625 66.3128 39.112 70.5627C44.9615 74.8126 52.0063 77.1016 59.2366 77.1016C61.5573 77.1016 63.8588 76.8658 66.1078 76.405C67.9194 76.0339 68.0097 73.5835 66.3995 72.6739C65.2693 72.0355 64.1723 71.331 63.1143 70.5624C57.2648 66.3125 52.9109 60.3198 50.6766 53.4433C49.5916 50.1041 49.0335 46.6398 49.0023 43.1718Z" fill="currentColor" />
</svg>