<svg viewBox="0 0 80 80" fill="none">
  <path fill-rule="evenodd" clip-rule="evenodd" d="M49.1055 37.5005L55.8509 37.5005C58.9365 37.5005 60.3333 33.6425 57.9629 31.6672L40.3239 16.968C38.3769 15.3456 35.5489 15.3456 33.6019 16.968L15.9629 31.6672C13.5925 33.6425 14.9893 37.5005 18.0748 37.5005L25.1032 37.5005C25.134 40.6123 25.7245 43.7199 26.8746 46.6696C28.9499 51.9922 32.7237 56.4811 37.6107 59.4399L39.9531 60.8581C45.266 64.0748 51.3582 65.7754 57.569 65.7754L60.8297 65.7754C62.2657 65.7754 63.6953 65.6845 65.1104 65.505C67.0412 65.26 67.1733 62.6387 65.4592 61.7167C64.9515 61.4437 64.4501 61.1573 63.9554 60.8578L61.613 59.4396C56.726 56.4807 52.9521 51.9918 50.8768 46.6692C49.7268 43.7197 49.1364 40.6122 49.1055 37.5005Z" fill="currentColor" />
  <path d="M55.8509 37.5005L55.8509 39.0005L55.8509 37.5005ZM49.1055 37.5005L49.1055 36.0005C48.7051 36.0005 48.3213 36.1606 48.0396 36.4451C47.7579 36.7297 47.6016 37.115 47.6056 37.5154L49.1055 37.5005ZM57.9629 31.6672L58.9232 30.5149L57.9629 31.6672ZM40.3239 16.968L39.3636 18.1203L40.3239 16.968ZM33.6019 16.968L34.5622 18.1203L33.6019 16.968ZM15.9629 31.6672L16.9232 32.8195L15.9629 31.6672ZM18.0748 37.5005L18.0748 39.0005L18.0748 37.5005ZM25.1032 37.5005L26.6032 37.4857C26.595 36.6631 25.9259 36.0005 25.1032 36.0005L25.1032 37.5005ZM26.8746 46.6696L25.477 47.2145L26.8746 46.6696ZM37.6107 59.4399L36.8338 60.723L36.8338 60.723L37.6107 59.4399ZM39.9531 60.8581L40.73 59.575L39.9531 60.8581ZM57.569 65.7754L57.569 67.2754L57.569 65.7754ZM60.8297 65.7754L60.8297 67.2754L60.8297 65.7754ZM65.1104 65.505L65.2992 66.993V66.993L65.1104 65.505ZM65.4592 61.7167L64.7487 63.0378L64.7487 63.0378L65.4592 61.7167ZM63.9554 60.8578L63.1785 62.1409L63.1785 62.1409L63.9554 60.8578ZM61.613 59.4396L60.8361 60.7227L61.613 59.4396ZM50.8768 46.6692L52.2744 46.1243L52.2744 46.1243L50.8768 46.6692ZM55.8509 36.0005L49.1055 36.0005L49.1055 39.0005L55.8509 39.0005L55.8509 36.0005ZM57.0026 32.8195C58.2952 33.8967 57.5335 36.0005 55.8509 36.0005L55.8509 39.0005C60.3394 39.0005 62.3713 33.3883 58.9232 30.5149L57.0026 32.8195ZM39.3636 18.1203L57.0026 32.8195L58.9232 30.5149L41.2841 15.8157L39.3636 18.1203ZM34.5622 18.1203C35.9529 16.9614 37.9729 16.9614 39.3636 18.1203L41.2841 15.8157C38.7809 13.7297 35.1449 13.7297 32.6416 15.8157L34.5622 18.1203ZM16.9232 32.8195L34.5622 18.1203L32.6416 15.8157L15.0026 30.5149L16.9232 32.8195ZM18.0748 36.0005C16.3923 36.0005 15.6306 33.8967 16.9232 32.8195L15.0026 30.5149C11.5545 33.3883 13.5864 39.0005 18.0748 39.0005L18.0748 36.0005ZM25.1032 36.0005L18.0748 36.0005L18.0748 39.0005L25.1032 39.0005L25.1032 36.0005ZM23.6033 37.5154C23.6359 40.807 24.2605 44.0943 25.477 47.2145L28.2721 46.1247C27.1885 43.3455 26.6322 40.4176 26.6032 37.4857L23.6033 37.5154ZM25.477 47.2145C27.6723 52.8447 31.6643 57.5932 36.8338 60.723L38.3876 58.1567C33.7831 55.369 30.2274 51.1396 28.2721 46.1247L25.477 47.2145ZM36.8338 60.723L39.1762 62.1413L40.73 59.575L38.3876 58.1567L36.8338 60.723ZM39.1762 62.1412C44.7234 65.4998 51.0843 67.2754 57.569 67.2754L57.569 64.2754C51.6321 64.2754 45.8086 62.6498 40.73 59.575L39.1762 62.1412ZM57.569 67.2754L60.8297 67.2754L60.8297 64.2754L57.569 64.2754L57.569 67.2754ZM60.8297 67.2754C62.329 67.2754 63.8217 67.1805 65.2992 66.993L64.9216 64.0169C63.5689 64.1885 62.2024 64.2754 60.8297 64.2754L60.8297 67.2754ZM65.2992 66.993C67.0771 66.7675 68.0423 65.3777 68.1474 63.977C68.2484 62.6307 67.588 61.1586 66.1698 60.3957L64.7487 63.0378C65.0445 63.1969 65.175 63.4964 65.1558 63.7525C65.1468 63.8723 65.108 63.9329 65.0904 63.953C65.0851 63.9591 65.0552 63.9999 64.9216 64.0169L65.2992 66.993ZM66.1698 60.3957C65.6845 60.1347 65.2052 59.861 64.7323 59.5746L63.1785 62.1409C63.695 62.4536 64.2186 62.7526 64.7487 63.0378L66.1698 60.3957ZM64.7323 59.5746L62.3899 58.1564L60.8361 60.7227L63.1785 62.1409L64.7323 59.5746ZM62.3899 58.1564C57.7854 55.3686 54.2297 51.1392 52.2744 46.1243L49.4793 47.2141C51.6746 52.8444 55.6666 57.5928 60.8361 60.7227L62.3899 58.1564ZM52.2744 46.1243C51.1908 43.3452 50.6345 40.4175 50.6054 37.4857L47.6056 37.5154C47.6382 40.8069 48.2628 44.0941 49.4793 47.2141L52.2744 46.1243Z" fill="currentColor" />
</svg>