<svg viewBox="0 0 80 80" fill="none">
  <path d="M23 24C23 22.3431 21.6569 21 20 21C18.3431 21 17 22.3431 17 24H23ZM57 56C57 57.6569 58.3431 59 60 59C61.6569 59 63 57.6569 63 56H57ZM23 54V24H17V54H23ZM57 26V56H63V26H57ZM43 54V26H37V54H43ZM50 13C42.8203 13 37 18.8203 37 26H43C43 22.134 46.134 19 50 19V13ZM30 67C37.1797 67 43 61.1797 43 54H37C37 57.866 33.866 61 30 61V67ZM63 26C63 18.8203 57.1797 13 50 13V19C53.866 19 57 22.134 57 26H63ZM17 54C17 61.1797 22.8203 67 30 67V61C26.134 61 23 57.866 23 54H17Z" fill="currentColor" />
  <path d="M27.7574 24L12.2426 24C10.677 24 9.89293 22.1071 11 21L17.8787 14.1213C19.0503 12.9497 20.9497 12.9497 22.1213 14.1213L29 21C30.1071 22.1071 29.323 24 27.7574 24Z" fill="currentColor" stroke="currentColor" stroke-width="4" stroke-linecap="round" stroke-linejoin="round" />
  <path d="M52.2426 56L67.7574 56C69.323 56 70.1071 57.8929 69 59L62.1213 65.8787C60.9497 67.0503 59.0503 67.0503 57.8787 65.8787L51 59C49.8929 57.8929 50.677 56 52.2426 56Z" fill="currentColor" stroke="currentColor" stroke-width="4" stroke-linecap="round" stroke-linejoin="round" />
</svg>