<svg viewBox="0 0 80 80" fill="none">
  <path d="M37.0005 28C37.0005 26.3431 38.3436 25 40.0005 25C41.6573 25 43.0005 26.3431 43.0005 28L37.0005 28ZM52.0005 64.9995C53.6573 64.9995 55.0005 66.3427 55.0005 67.9995C55.0005 69.6564 53.6573 70.9995 52.0005 70.9995V64.9995ZM43.0005 28L43.0005 59.9995H37.0005L37.0005 28L43.0005 28ZM48.0005 64.9995H52.0005V70.9995H48.0005V64.9995ZM43.0005 59.9995C43.0005 62.7609 45.2391 64.9995 48.0005 64.9995V70.9995C41.9254 70.9995 37.0005 66.0746 37.0005 59.9995H43.0005Z" fill="currentColor" />
  <path d="M29.6573 28L50.3436 28C52.4312 28 53.4766 25.4761 52.0005 24L42.1218 14.1213C40.9502 12.9497 39.0507 12.9497 37.8792 14.1213L28.0005 24C26.5244 25.4761 27.5698 28 29.6573 28Z" fill="currentColor" stroke="currentColor" stroke-width="3" stroke-linecap="round" stroke-linejoin="round" />
</svg>