<svg viewBox="0 0 80 80" fill="none">
  <path fill-rule="evenodd" clip-rule="evenodd" d="M68 40C68 55.464 55.464 68 40 68C24.536 68 12 55.464 12 40C12 24.536 24.536 12 40 12C55.464 12 68 24.536 68 40ZM43 32.2426L49.8787 39.1213C51.0503 40.2929 52.9497 40.2929 54.1213 39.1213C55.2929 37.9497 55.2929 36.0503 54.1213 34.8787L44.2426 25C41.8995 22.6569 38.1005 22.6569 35.7574 25L25.8787 34.8787C24.7071 36.0503 24.7071 37.9497 25.8787 39.1213C27.0503 40.2929 28.9497 40.2929 30.1213 39.1213L37 32.2426V54C37 55.6569 38.3431 57 40 57C41.6569 57 43 55.6569 43 54V32.2426Z" fill="currentColor" />
</svg>