<svg viewBox="0 0 80 80" fill="none">
  <path fill-rule="evenodd" clip-rule="evenodd" d="M27.9999 40.0004H23.7543C20.5071 40.0004 18.8808 36.0743 21.177 33.7782L36.1314 18.8238C38.1816 16.7736 41.5057 16.7736 43.556 18.8238L58.5103 33.7782C60.8065 36.0743 59.1803 40.0004 55.933 40.0004H51.9999L51.9999 52.4449L51.9999 62.4449C51.9999 63.5494 51.1045 64.4449 49.9999 64.4449L29.9999 64.4449C28.8953 64.4449 27.9999 63.5494 27.9999 62.4449V52.4449V40.0004Z" fill="currentColor" />
  <path d="M27.9999 40.0004V38.5004C28.8283 38.5004 29.4999 39.172 29.4999 40.0004H27.9999ZM21.177 33.7782L22.2377 34.8388L21.177 33.7782ZM36.1314 18.8238L37.192 19.8845L36.1314 18.8238ZM43.556 18.8238L44.6166 17.7632V17.7632L43.556 18.8238ZM58.5103 33.7782L59.571 32.7175L59.571 32.7175L58.5103 33.7782ZM51.9999 40.0004H50.4999C50.4999 39.172 51.1715 38.5004 51.9999 38.5004V40.0004ZM51.9999 52.4449H53.4999H51.9999ZM51.9999 62.4449H53.4999H51.9999ZM49.9999 64.4449V65.9449H49.9999L49.9999 64.4449ZM29.9999 64.4449V62.9449V64.4449ZM23.7543 38.5004H27.9999V41.5004H23.7543V38.5004ZM22.2377 34.8388C20.8864 36.1901 21.8434 38.5004 23.7543 38.5004V41.5004C19.1707 41.5004 16.8752 35.9586 20.1163 32.7175L22.2377 34.8388ZM37.192 19.8845L22.2377 34.8388L20.1163 32.7175L35.0707 17.7632L37.192 19.8845ZM42.4953 19.8845C41.0308 18.42 38.6565 18.42 37.192 19.8845L35.0707 17.7632C37.7067 15.1271 41.9806 15.1271 44.6166 17.7632L42.4953 19.8845ZM57.4497 34.8388L42.4953 19.8845L44.6166 17.7632L59.571 32.7175L57.4497 34.8388ZM55.933 38.5004C57.8439 38.5004 58.8009 36.19 57.4497 34.8388L59.571 32.7175C62.8121 35.9586 60.5166 41.5004 55.933 41.5004V38.5004ZM51.9999 38.5004H55.933V41.5004H51.9999V38.5004ZM50.4999 52.4449L50.4999 40.0004H53.4999L53.4999 52.4449H50.4999ZM50.4999 62.4449V52.4449H53.4999L53.4999 62.4449H50.4999ZM49.9999 62.9449C50.2761 62.9449 50.4999 62.721 50.4999 62.4449L53.4999 62.4449C53.4999 64.3778 51.9329 65.9449 49.9999 65.9449V62.9449ZM29.9999 62.9449L49.9999 62.9449L49.9999 65.9449L29.9999 65.9449V62.9449ZM29.4999 62.4449C29.4999 62.721 29.7238 62.9449 29.9999 62.9449V65.9449C28.0669 65.9449 26.4999 64.3778 26.4999 62.4449H29.4999ZM29.4999 52.4449V62.4449H26.4999V52.4449H29.4999ZM29.4999 40.0004V52.4449H26.4999V40.0004H29.4999Z" fill="currentColor" />
</svg>