<svg viewBox="0 0 80 80" fill="none">
  <path fill-rule="evenodd" clip-rule="evenodd" d="M10 25.6621C10 23.453 11.7909 21.6621 14 21.6621H62C64.2091 21.6621 66 23.453 66 25.6621V32.1621C66 31.886 66.2239 31.6621 66.5 31.6621C68.433 31.6621 70 33.2291 70 35.1621V44.1621C70 46.0951 68.433 47.6621 66.5 47.6621C66.2239 47.6621 66 47.4383 66 47.1621V53.6621C66 55.8713 64.2091 57.6621 62 57.6621H14C11.7909 57.6621 10 55.8713 10 53.6621V25.6621ZM23 30C23 28.8954 22.1046 28 21 28H19C17.8954 28 17 28.8954 17 30V49.6621C17 50.7667 17.8954 51.6621 19 51.6621H21C22.1046 51.6621 23 50.7667 23 49.6621L23 30ZM29 30C29 28.8954 29.8954 28 31 28H33C34.1046 28 35 28.8954 35 30V49.6621C35 50.7667 34.1046 51.6621 33 51.6621H31C29.8954 51.6621 29 50.7667 29 49.6621V30ZM41 30C41 28.8954 41.8954 28 43 28H45C46.1046 28 47 28.8954 47 30V49.6621C47 50.7667 46.1046 51.6621 45 51.6621H43C41.8954 51.6621 41 50.7667 41 49.6621V30ZM53 30C53 28.8954 53.8954 28 55 28H57C58.1046 28 59 28.8954 59 30V49.6621C59 50.7667 58.1046 51.6621 57 51.6621H55C53.8954 51.6621 53 50.7667 53 49.6621V30Z" fill="currentColor" />
</svg>