<svg viewBox="0 0 80 80" fill="none">
  <path d="M41 48C41 48.5523 40.5523 49 40 49C39.4477 49 39 48.5523 39 48C39 47.4477 39.4477 47 40 47C40.5523 47 41 47.4477 41 48Z" fill="currentColor" />
  <path fill-rule="evenodd" clip-rule="evenodd" d="M42 14V17.0829C45.6456 17.4556 49.0718 19.0718 51.6863 21.6863L52.3137 22.3137C55.3143 25.3143 57 29.384 57 33.6274V36.5656C57 41.9665 59.1455 47.1461 62.9645 50.9651C63.6275 51.6281 64 52.5273 64 53.4649C64 55.4173 62.4172 57.0001 60.4648 57.0001H19.5352C17.5828 57.0001 16 55.4173 16 53.4649C16 52.5273 16.3725 51.6281 17.0355 50.9651C20.8545 47.1461 23 41.9665 23 36.5656V33.6274C23 29.384 24.6857 25.3143 27.6863 22.3137L28.3137 21.6863C30.9282 19.0718 34.3544 17.4555 38 17.0829V14C38 12.8954 38.8954 12 40 12C41.1046 12 42 12.8954 42 14ZM40 23C38.0335 23 36.4748 24.6592 36.5974 26.6218L37.4727 40.6257C37.5561 41.9603 38.6628 43 40 43C41.3372 43 42.4439 41.9603 42.5273 40.6257L43.4025 26.6218C43.5252 24.6592 41.9665 23 40 23ZM40 45C38.3431 45 37 46.3431 37 48C37 49.6568 38.3431 51 40 51C41.6568 51 43 49.6568 43 48C43 46.3431 41.6568 45 40 45Z" fill="currentColor" />
  <path d="M33.0718 60C33.0718 62.4752 34.3923 64.7624 36.5359 66C38.6795 67.2376 41.3205 67.2376 43.4641 66C45.6077 64.7624 46.9282 62.4752 46.9282 60H33.0718Z" fill="currentColor" />
</svg>