<svg viewBox="0 0 80 80" fill="none">
  <path d="M20.0001 29.1676L18.2367 26.7405L17.0001 27.639V29.1676H20.0001ZM33.5001 19.3593H36.5001V13.4714L31.7367 16.9322L33.5001 19.3593ZM20.0001 39.5V42.5H23.0001V39.5H20.0001ZM15.7202 39.5V36.5H11.5911L12.867 40.4271L15.7202 39.5ZM22.0561 59L19.203 59.9271L19.8765 62H22.0561V59ZM29.5001 59H32.5001V56H29.5001V59ZM29.5001 63.8435H26.5001V66.8435H29.5001V63.8435ZM49.5001 63.8435V66.8435H52.5001V63.8435H49.5001ZM49.5001 59V56H46.5001V59H49.5001ZM56.944 59V62H59.1236L59.7972 59.9271L56.944 59ZM63.28 39.5L66.1331 40.4271L67.4091 36.5H63.28V39.5ZM59.0001 39.5H56.0001L56.0001 42.5H59.0001L59.0001 39.5ZM59.0001 29.1676H62.0001V27.639L60.7634 26.7405L59.0001 29.1676ZM45.5001 19.3593L47.2634 16.9322L42.5001 13.4714V19.3593H45.5001ZM45.5001 21V24L48.5001 24V21L45.5001 21ZM33.5001 21H30.5001V24H33.5001V21ZM21.7634 31.5946L35.2634 21.7863L31.7367 16.9322L18.2367 26.7405L21.7634 31.5946ZM23.0001 39.5L23.0001 29.1676H17.0001L17.0001 39.5H23.0001ZM15.7202 42.5H20.0001V36.5H15.7202V42.5ZM24.9093 58.0729L18.5734 38.5729L12.867 40.4271L19.203 59.9271L24.9093 58.0729ZM29.5001 56H22.0561V62H29.5001V56ZM32.5001 63.8435V59H26.5001V63.8435H32.5001ZM49.5001 60.8435L29.5001 60.8435V66.8435H49.5001V60.8435ZM46.5001 59V63.8435H52.5001V59H46.5001ZM56.944 56H49.5001V62H56.944V56ZM60.4268 38.5729L54.0909 58.0729L59.7972 59.9271L66.1331 40.4271L60.4268 38.5729ZM63.28 36.5H59.0001L59.0001 42.5H63.28L63.28 36.5ZM62.0001 39.5V29.1676H56.0001V39.5H62.0001ZM43.7367 21.7863L57.2367 31.5946L60.7634 26.7405L47.2634 16.9322L43.7367 21.7863ZM48.5001 21V19.3593H42.5001V21L48.5001 21ZM33.5001 24H45.5001V18H33.5001V24ZM30.5001 19.3593V21H36.5001V19.3593H30.5001Z" fill="currentColor" />
  <rect x="33.5" y="9" width="12" height="12" fill="currentColor" stroke="currentColor" stroke-width="8" stroke-linecap="square" stroke-linejoin="round" />
  <rect x="17.5" y="59" width="12" height="12" fill="currentColor" stroke="currentColor" stroke-width="8" stroke-linecap="square" stroke-linejoin="round" />
  <rect x="49.5" y="59" width="12" height="12" fill="currentColor" stroke="currentColor" stroke-width="8" stroke-linecap="square" stroke-linejoin="round" />
  <rect x="8" y="27.5" width="12" height="12" fill="currentColor" stroke="currentColor" stroke-width="8" stroke-linecap="square" stroke-linejoin="round" />
  <rect x="59" y="27.5" width="12" height="12" fill="currentColor" stroke="currentColor" stroke-width="8" stroke-linecap="square" stroke-linejoin="round" />
</svg>