<svg viewBox="0 0 80 80" fill="none">
  <path fill-rule="evenodd" clip-rule="evenodd" d="M27.4221 20.1955C22.0199 19.0472 16.989 21.1819 16.1852 24.9634L4.49482 51.1041C3.1169 57.5867 9.00678 64.3312 17.6502 66.1684C26.2937 68.0056 34.4176 64.2398 35.7955 57.7572L35.7482 29.1216C36.552 25.3401 32.8243 21.3437 27.4221 20.1955ZM18.6898 61.2777C24.6322 62.5408 30.101 60.4992 30.9048 56.7177C31.7086 52.9362 27.5429 48.8467 21.6006 47.5836C15.6582 46.3205 10.1893 48.3621 9.38556 52.1436C8.58177 55.9251 12.7474 60.0146 18.6898 61.2777Z" fill="currentColor" />
  <path fill-rule="evenodd" clip-rule="evenodd" d="M28.6695 14.3265C32.4511 15.1303 35.1442 17.5336 34.6849 19.6944L34.4558 20.7725C32.6844 19.3413 30.4329 18.2795 27.9419 17.75C25.4508 17.2205 22.9621 17.2747 20.7617 17.8617L20.9909 16.7837C21.4502 14.6228 24.888 13.5227 28.6695 14.3265ZM33.1361 26.981L33.0216 27.5196L19.3276 24.6089L19.4421 24.0702C19.8289 23.6853 20.3586 23.3279 21.0558 23.0321C22.5623 22.3928 24.6414 22.1602 26.9023 22.6407C29.1632 23.1213 30.9679 24.1795 32.0842 25.3762C32.6008 25.93 32.9393 26.472 33.1361 26.981Z" fill="currentColor" />
  <path fill-rule="evenodd" clip-rule="evenodd" d="M52.3733 20.1955C57.7755 19.0472 62.8064 21.1819 63.6102 24.9634L75.3006 51.1041C76.6785 57.5867 70.7886 64.3312 62.1452 66.1684C53.5017 68.0056 45.3778 64.2398 43.9999 57.7572L44.0472 29.1216C43.2434 25.3401 46.9712 21.3437 52.3733 20.1955ZM61.1056 61.2777C55.1632 62.5408 49.6944 60.4992 48.8906 56.7177C48.0868 52.9362 52.2525 48.8467 58.1948 47.5836C64.1372 46.3205 69.6061 48.3621 70.4099 52.1436C71.2136 55.9251 67.048 60.0146 61.1056 61.2777Z" fill="currentColor" />
  <path fill-rule="evenodd" clip-rule="evenodd" d="M51.1259 14.3265C47.3444 15.1303 44.6512 17.5336 45.1105 19.6944L45.3396 20.7725C47.1111 19.3413 49.3625 18.2795 51.8536 17.75C54.3446 17.2205 56.8333 17.2748 59.0337 17.8617L58.8045 16.7837C58.3452 14.6228 54.9074 13.5227 51.1259 14.3265ZM46.6593 26.981L46.7738 27.5196L60.4678 24.6089L60.3533 24.0702C59.9665 23.6853 59.4368 23.3279 58.7396 23.0321C57.2331 22.3928 55.154 22.1602 52.8931 22.6407C50.6322 23.1213 48.8275 24.1795 47.7112 25.3762C47.1946 25.93 46.8561 26.472 46.6593 26.981Z" fill="currentColor" />
  <path fill-rule="evenodd" clip-rule="evenodd" d="M44.0446 30.7476H35.751L35.7774 46.7476H44.0182L44.0446 30.7476Z" fill="currentColor" />
</svg>