<svg viewBox="0 0 80 80" fill="none">
  <path fill-rule="evenodd" clip-rule="evenodd" d="M27.4223 20.1952C22.0202 19.047 16.9893 21.1816 16.1855 24.9632L4.49506 51.1038C3.11715 57.5864 9.00703 64.331 17.6505 66.1682C26.2939 68.0054 34.4179 64.2396 35.7958 57.757L35.7484 29.1214C36.5522 25.3399 32.8245 21.3435 27.4223 20.1952ZM18.69 61.2774C24.6324 62.5405 30.1013 60.4989 30.905 56.7174C31.7088 52.9359 27.5432 48.8465 21.6008 47.5834C15.6584 46.3203 10.1896 48.3619 9.3858 52.1434C8.58202 55.9249 12.7477 60.0143 18.69 61.2774Z" fill="currentColor" />
  <path fill-rule="evenodd" clip-rule="evenodd" d="M28.6698 14.3265C32.4513 15.1303 35.1445 17.5336 34.6852 19.6944L34.456 20.7725C32.6846 19.3413 30.4332 18.2795 27.9421 17.75C25.451 17.2205 22.9624 17.2747 20.762 17.8617L20.9911 16.7837C21.4504 14.6228 24.8883 13.5227 28.6698 14.3265ZM33.1364 26.981L33.0219 27.5196L19.3278 24.6089L19.4423 24.0702C19.8291 23.6853 20.3588 23.3279 21.056 23.0321C22.5625 22.3928 24.6417 22.1602 26.9025 22.6407C29.1634 23.1213 30.9682 24.1795 32.0844 25.3762C32.601 25.93 32.9395 26.472 33.1364 26.981Z" fill="currentColor" />
  <path fill-rule="evenodd" clip-rule="evenodd" d="M52.3736 20.1952C57.7757 19.047 62.8066 21.1816 63.6104 24.9632L75.3008 51.1038C76.6788 57.5864 70.7889 64.331 62.1454 66.1682C53.502 68.0054 45.378 64.2396 44.0001 57.757L44.0475 29.1214C43.2437 25.3399 46.9714 21.3435 52.3736 20.1952ZM61.1059 61.2774C55.1635 62.5405 49.6946 60.4989 48.8908 56.7174C48.0871 52.9359 52.2527 48.8465 58.1951 47.5834C64.1375 46.3203 69.6063 48.3619 70.4101 52.1434C71.2139 55.9249 67.0482 60.0143 61.1059 61.2774Z" fill="currentColor" />
  <path fill-rule="evenodd" clip-rule="evenodd" d="M51.1261 14.3265C47.3446 15.1303 44.6514 17.5336 45.1107 19.6944L45.3399 20.7725C47.1113 19.3413 49.3627 18.2795 51.8538 17.75C54.3449 17.2205 56.8335 17.2748 59.0339 17.8617L58.8048 16.7837C58.3455 14.6228 54.9076 13.5227 51.1261 14.3265ZM46.6595 26.981L46.774 27.5196L60.4681 24.6089L60.3536 24.0702C59.9668 23.6853 59.4371 23.3279 58.7399 23.0321C57.2334 22.3928 55.1542 22.1602 52.8934 22.6407C50.6325 23.1213 48.8277 24.1795 47.7115 25.3762C47.1949 25.93 46.8564 26.472 46.6595 26.981Z" fill="currentColor" />
  <path fill-rule="evenodd" clip-rule="evenodd" d="M44.0446 30.7476H35.751L35.7774 46.7476H44.0182L44.0446 30.7476Z" fill="currentColor" />
</svg>