<svg viewBox="0 0 80 80" fill="none">
  <path fill-rule="evenodd" clip-rule="evenodd" d="M20.0003 27.0001C20.0003 25.1436 20.7378 23.363 22.0506 22.0503C23.3633 20.7376 25.1438 20 27.0003 20C28.8567 20 30.6372 20.7376 31.9499 22.0503C33.2626 23.363 34.0002 25.1435 34.0003 27V27.0001V49.0003C34.0003 45.2872 32.5251 41.726 29.8996 39.1005C27.2742 36.4751 23.7132 35 20.0003 35C16.2873 35 12.7263 36.4751 10.1009 39.1005C9.24608 39.9554 8.51318 40.9094 7.91344 41.9356L7.90723 41.9339L14.6725 30.8359C15.8598 28.8884 17.8064 27.5615 20.0017 27.142C20.0007 27.0948 20.0003 27.0475 20.0003 27.0001ZM33.9993 49.1622L34.0003 49.1625V49.0003C34.0003 49.0543 33.9999 49.1083 33.9993 49.1622Z" fill="currentColor" />
  <path d="M22.0506 22.0503L19.9293 19.9289L19.9293 19.9289L22.0506 22.0503ZM31.9499 22.0503L34.0712 19.929L34.0712 19.9289L31.9499 22.0503ZM34.0003 27H37.0003V26.9999L34.0003 27ZM10.1009 39.1005L7.9796 36.9792L7.9796 36.9792L10.1009 39.1005ZM7.91344 41.9356L7.11288 44.8268C8.42471 45.19 9.81669 44.6245 10.5035 43.4493L7.91344 41.9356ZM7.90723 41.9339L5.34566 40.3723C4.85593 41.1757 4.77146 42.1623 5.11748 43.0372C5.4635 43.9121 6.19993 44.574 7.10667 44.8251L7.90723 41.9339ZM14.6725 30.8359L17.2341 32.3975L14.6725 30.8359ZM20.0017 27.142L20.5647 30.0887C22.0014 29.8143 23.0307 28.5437 23.0011 27.0813L20.0017 27.142ZM33.9993 49.1622L30.9995 49.1276C30.9838 50.4888 31.8866 51.69 33.1985 52.0534L33.9993 49.1622ZM34.0003 49.1625L33.1995 52.0536C34.1026 52.3038 35.0707 52.1176 35.8165 51.5502C36.5624 50.9829 37.0003 50.0996 37.0003 49.1625H34.0003ZM19.9293 19.9289C18.0539 21.8043 17.0003 24.3479 17.0003 27.0001H23.0003C23.0003 25.9393 23.4217 24.9218 24.1719 24.1716L19.9293 19.9289ZM27.0003 17C24.3481 17 21.8046 18.0537 19.9293 19.9289L24.1719 24.1716C24.9221 23.4214 25.9395 23 27.0003 23V17ZM34.0712 19.9289C32.196 18.0537 29.6524 17 27.0003 17V23C28.061 23 29.0785 23.4215 29.8286 24.1716L34.0712 19.9289ZM37.0003 26.9999C37.0002 24.3478 35.9465 21.8042 34.0712 19.929L29.8286 24.1716C30.5787 24.9217 31.0002 25.9393 31.0003 27.0001L37.0003 26.9999ZM37.0003 27.0001V27H31.0003V27.0001H37.0003ZM37.0003 49.0003V27.0001H31.0003V49.0003H37.0003ZM27.7783 41.2219C29.8412 43.2848 31.0003 46.0829 31.0003 49.0003H37.0003C37.0003 44.4915 35.209 40.1673 32.0209 36.9792L27.7783 41.2219ZM20.0003 38C22.9175 38 25.7154 39.159 27.7783 41.2219L32.0209 36.9792C28.8329 33.7912 24.5089 32 20.0003 32V38ZM12.2222 41.2219C14.2851 39.159 17.083 38 20.0003 38V32C15.4916 32 11.1676 33.7912 7.9796 36.9792L12.2222 41.2219ZM10.5035 43.4493C10.9747 42.6431 11.5505 41.8936 12.2222 41.2218L7.9796 36.9792C6.94168 38.0171 6.05165 39.1757 5.32335 40.4218L10.5035 43.4493ZM7.10667 44.8251L7.11288 44.8268L8.714 39.0444L8.70779 39.0427L7.10667 44.8251ZM12.111 29.2744L5.34566 40.3723L10.4688 43.4954L17.2341 32.3975L12.111 29.2744ZM19.4387 24.1953C16.4203 24.772 13.7436 26.5961 12.111 29.2744L17.2341 32.3975C17.9759 31.1806 19.1924 30.3509 20.5647 30.0887L19.4387 24.1953ZM17.0003 27.0001C17.0003 27.0678 17.0009 27.1353 17.0023 27.2028L23.0011 27.0813C23.0005 27.0543 23.0003 27.0272 23.0003 27.0001H17.0003ZM33.1985 52.0534L33.1995 52.0536L34.8011 46.2714L34.8001 46.2711L33.1985 52.0534ZM37.0003 49.1625V49.0003H31.0003V49.1625H37.0003ZM31.0003 49.0003C31.0003 49.0427 31 49.0851 30.9995 49.1276L36.9991 49.1969C36.9999 49.1314 37.0003 49.0659 37.0003 49.0003H31.0003Z" fill="currentColor" />
  <path fill-rule="evenodd" clip-rule="evenodd" d="M59.9997 27.0001C59.9997 25.1436 59.2622 23.363 57.9494 22.0503C56.6367 20.7376 54.8562 20 52.9997 20C51.1433 20 49.3628 20.7376 48.0501 22.0503C46.7374 23.363 45.9998 25.1435 45.9997 27V27.0001V49.0003C45.9997 45.2872 47.4749 41.726 50.1004 39.1005C52.7258 36.4751 56.2868 35 59.9997 35C63.7127 35 67.2737 36.4751 69.8991 39.1005C70.7539 39.9554 71.4868 40.9094 72.0866 41.9356L72.0928 41.9339L65.3275 30.8359C64.1402 28.8884 62.1936 27.5615 59.9983 27.142C59.9993 27.0948 59.9997 27.0475 59.9997 27.0001ZM46.0007 49.1622L45.9997 49.1625V49.0003C45.9997 49.0543 46.0001 49.1083 46.0007 49.1622Z" fill="currentColor" />
  <path d="M57.9494 22.0503L60.0707 19.9289L60.0707 19.9289L57.9494 22.0503ZM48.0501 22.0503L45.9288 19.929L45.9288 19.9289L48.0501 22.0503ZM45.9997 27H42.9997V26.9999L45.9997 27ZM69.8991 39.1005L72.0204 36.9792L72.0204 36.9792L69.8991 39.1005ZM72.0866 41.9356L72.8871 44.8268C71.5753 45.19 70.1833 44.6245 69.4965 43.4493L72.0866 41.9356ZM72.0928 41.9339L74.6543 40.3723C75.1441 41.1757 75.2285 42.1623 74.8825 43.0372C74.5365 43.9121 73.8001 44.574 72.8933 44.8251L72.0928 41.9339ZM65.3275 30.8359L62.7659 32.3975L65.3275 30.8359ZM59.9983 27.142L59.4353 30.0887C57.9986 29.8143 56.9693 28.5437 56.9989 27.0813L59.9983 27.142ZM46.0007 49.1622L49.0005 49.1276C49.0162 50.4888 48.1134 51.69 46.8015 52.0534L46.0007 49.1622ZM45.9997 49.1625L46.8005 52.0536C45.8974 52.3038 44.9293 52.1176 44.1835 51.5502C43.4376 50.9829 42.9997 50.0996 42.9997 49.1625H45.9997ZM60.0707 19.9289C61.9461 21.8043 62.9997 24.3479 62.9997 27.0001H56.9997C56.9997 25.9393 56.5783 24.9218 55.8281 24.1716L60.0707 19.9289ZM52.9997 17C55.6519 17 58.1954 18.0537 60.0707 19.9289L55.8281 24.1716C55.0779 23.4214 54.0605 23 52.9997 23V17ZM45.9288 19.9289C47.804 18.0537 50.3476 17 52.9997 17V23C51.939 23 50.9215 23.4215 50.1714 24.1716L45.9288 19.9289ZM42.9997 26.9999C42.9998 24.3478 44.0535 21.8042 45.9288 19.929L50.1714 24.1716C49.4213 24.9217 48.9998 25.9393 48.9997 27.0001L42.9997 26.9999ZM42.9997 27.0001V27H48.9997V27.0001H42.9997ZM42.9997 49.0003V27.0001H48.9997V49.0003H42.9997ZM52.2217 41.2219C50.1588 43.2848 48.9997 46.0829 48.9997 49.0003H42.9997C42.9997 44.4915 44.791 40.1673 47.9791 36.9792L52.2217 41.2219ZM59.9997 38C57.0825 38 54.2846 39.159 52.2217 41.2219L47.9791 36.9792C51.1671 33.7912 55.4911 32 59.9997 32V38ZM67.7778 41.2219C65.7149 39.159 62.917 38 59.9997 38V32C64.5084 32 68.8324 33.7912 72.0204 36.9792L67.7778 41.2219ZM69.4965 43.4493C69.0253 42.6431 68.4495 41.8936 67.7778 41.2218L72.0204 36.9792C73.0583 38.0171 73.9484 39.1757 74.6767 40.4218L69.4965 43.4493ZM72.8933 44.8251L72.8871 44.8268L71.286 39.0444L71.2922 39.0427L72.8933 44.8251ZM67.889 29.2744L74.6543 40.3723L69.5312 43.4954L62.7659 32.3975L67.889 29.2744ZM60.5613 24.1953C63.5797 24.772 66.2564 26.5961 67.889 29.2744L62.7659 32.3975C62.0241 31.1806 60.8076 30.3509 59.4353 30.0887L60.5613 24.1953ZM62.9997 27.0001C62.9997 27.0678 62.9991 27.1353 62.9977 27.2028L56.9989 27.0813C56.9995 27.0543 56.9997 27.0272 56.9997 27.0001H62.9997ZM46.8015 52.0534L46.8005 52.0536L45.1989 46.2714L45.1999 46.2711L46.8015 52.0534ZM42.9997 49.1625V49.0003H48.9997V49.1625H42.9997ZM48.9997 49.0003C48.9997 49.0427 49 49.0851 49.0005 49.1276L43.0009 49.1969C43.0001 49.1314 42.9997 49.0659 42.9997 49.0003H48.9997Z" fill="currentColor" />
  <path fill-rule="evenodd" clip-rule="evenodd" d="M44.2426 24.7574C45.3677 25.8826 46 27.4087 46 29H46V43H46C46 41.4087 45.3677 39.8826 44.2426 38.7574C43.1174 37.6322 41.5912 37 40 37C38.4088 37 36.8826 37.6322 35.7574 38.7574C34.6369 39.8779 34.0052 41.3962 34 42.9804V29.0199L34 29.0001C34 27.4088 34.6322 25.8826 35.7574 24.7574C36.8826 23.6322 38.4088 23 40 23C41.5912 23 43.1174 23.6322 44.2426 24.7574Z" fill="currentColor" />
  <path d="M46 29L43 29.0001L43.0001 32H46V29ZM44.2426 24.7574L46.3639 22.6361L46.3639 22.6361L44.2426 24.7574ZM46 29H49V26H46V29ZM46 43V46H49V43H46ZM46 43L43 43.0001L43.0001 46H46V43ZM44.2426 38.7574L46.3639 36.6361L46.3639 36.6361L44.2426 38.7574ZM35.7574 38.7574L37.8788 40.8787H37.8788L35.7574 38.7574ZM34 42.9804H31L37 42.9902L34 42.9804ZM34 29.0199H37L37 29.0149L34 29.0199ZM34 29.0001H31L31 29.0051L34 29.0001ZM35.7574 24.7574L37.8788 26.8787H37.8788L35.7574 24.7574ZM49 28.9999C48.9999 26.613 48.0516 24.3238 46.3639 22.6361L42.1212 26.8787C42.6839 27.4413 43 28.2045 43 29.0001L49 28.9999ZM46 26H46V32H46V26ZM49 43V29H43V43H49ZM46 46H46V40H46V46ZM49 42.9999C48.9999 40.613 48.0516 38.3238 46.3639 36.6361L42.1212 40.8787C42.6839 41.4413 43 42.2045 43 43.0001L49 42.9999ZM46.3639 36.6361C44.6761 34.9483 42.3869 34 40 34V40C40.7955 40 41.5586 40.3161 42.1212 40.8787L46.3639 36.6361ZM40 34C37.6131 34 35.3239 34.9483 33.6361 36.6361L37.8788 40.8787C38.4414 40.3161 39.2045 40 40 40V34ZM33.6361 36.6361C31.9553 38.3169 31.0079 40.5942 31 42.9705L37 42.9902C37.0026 42.1982 37.3184 41.439 37.8788 40.8787L33.6361 36.6361ZM31 29.0199V42.9804H37V29.0199H31ZM31 29.0051L31 29.0248L37 29.0149L37 28.9952L31 29.0051ZM33.6361 22.6361C31.9483 24.3238 31 26.6131 31 29.0001H37C37 28.2045 37.3161 27.4413 37.8788 26.8787L33.6361 22.6361ZM40 20C37.6131 20 35.3239 20.9483 33.6361 22.6361L37.8788 26.8787C38.4414 26.3161 39.2045 26 40 26V20ZM46.3639 22.6361C44.6761 20.9483 42.3869 20 40 20V26C40.7955 26 41.5586 26.3161 42.1212 26.8787L46.3639 22.6361Z" fill="currentColor" />
  <path d="M42.1214 45.1214C42.6839 44.5588 43 43.7958 43 43.0001H49C49 45.387 48.0518 47.6762 46.364 49.364L42.1214 45.1214ZM40 46C40.7957 46 41.5588 45.6839 42.1214 45.1214L46.364 49.364C44.6762 51.0519 42.3868 52 40 52V46ZM37.8786 45.1214C38.4412 45.6839 39.2043 46 40 46V52C37.6132 52 35.3238 51.0519 33.636 49.364L37.8786 45.1214ZM37 43.0001C37 43.7958 37.3161 44.5588 37.8786 45.1214L33.636 49.364C31.9482 47.6762 31 45.387 31 43.0001H37ZM37.8788 40.8787C37.3161 41.4413 37 42.2045 37 43.0001H31C31 40.6131 31.9483 38.3238 33.6361 36.6361L37.8788 40.8787ZM40 40C39.2045 40 38.4414 40.3161 37.8788 40.8787L33.6361 36.6361C35.3239 34.9483 37.6131 34 40 34V40ZM42.1212 40.8787C41.5586 40.3161 40.7955 40 40 40V34C42.3869 34 44.6761 34.9483 46.3639 36.6361L42.1212 40.8787ZM46.3639 36.6361C48.0517 38.3238 49 40.6131 49 43.0001H43C43 42.2045 42.6839 41.4413 42.1212 40.8787L46.3639 36.6361Z" fill="currentColor" />
  <path d="M12.2217 56.7783C10.1589 54.7154 9 51.9176 9 49.0003H3C3 53.5088 4.79102 57.8328 7.97909 61.0209L12.2217 56.7783ZM20 60C17.0826 60 14.2845 58.8411 12.2217 56.7783L7.97909 61.0209C11.1672 64.209 15.4915 66 20 66V60ZM27.7783 56.7783C25.7155 58.8411 22.9174 60 20 60V66C24.5085 66 28.8328 64.209 32.0209 61.0209L27.7783 56.7783ZM31 49.0003C31 51.9176 29.8411 54.7154 27.7783 56.7783L32.0209 61.0209C35.209 57.8328 37 53.5088 37 49.0003H31ZM27.778 41.2219C29.8409 43.2848 31 46.0829 31 49.0003H37C37 44.4915 35.2087 40.1673 32.0207 36.9792L27.778 41.2219ZM20 38C22.9172 38 25.7152 39.159 27.778 41.2219L32.0207 36.9792C28.8327 33.7912 24.5086 32 20 32V38ZM12.222 41.2219C14.2848 39.159 17.0828 38 20 38V32C15.4914 32 11.1673 33.7912 7.97935 36.9792L12.222 41.2219ZM7.97935 36.9792C4.79125 40.1673 3 44.4915 3 49.0003H9C9 46.0829 10.1591 43.2848 12.222 41.2219L7.97935 36.9792Z" fill="currentColor" />
  <path d="M67.7783 56.7783C69.8411 54.7154 71 51.9176 71 49.0003H77C77 53.5088 75.209 57.8328 72.0209 61.0209L67.7783 56.7783ZM60 60C62.9174 60 65.7155 58.8411 67.7783 56.7783L72.0209 61.0209C68.8328 64.209 64.5085 66 60 66V60ZM52.2217 56.7783C54.2845 58.8411 57.0826 60 60 60V66C55.4915 66 51.1672 64.209 47.9791 61.0209L52.2217 56.7783ZM49 49.0003C49 51.9176 50.1589 54.7154 52.2217 56.7783L47.9791 61.0209C44.791 57.8328 43 53.5088 43 49.0003H49ZM52.222 41.2219C50.1591 43.2848 49 46.0829 49 49.0003H43C43 44.4915 44.7913 40.1673 47.9793 36.9792L52.222 41.2219ZM60 38C57.0828 38 54.2848 39.159 52.222 41.2219L47.9793 36.9792C51.1673 33.7912 55.4914 32 60 32V38ZM67.778 41.2219C65.7152 39.159 62.9172 38 60 38V32C64.5086 32 68.8327 33.7912 72.0207 36.9792L67.778 41.2219ZM72.0207 36.9792C75.2087 40.1673 77 44.4915 77 49.0003H71C71 46.0829 69.8409 43.2848 67.778 41.2219L72.0207 36.9792Z" fill="currentColor" />
</svg>