<svg viewBox="0 0 80 80" fill="none">
  <path d="M16 61C14.3431 61 13 62.3431 13 64C13 65.6569 14.3431 67 16 67L16 61ZM64 67C65.6568 67 67 65.6569 67 64C67 62.3431 65.6568 61 64 61V67ZM67 16C67 14.3431 65.6569 13 64 13C62.3431 13 61 14.3431 61 16L67 16ZM61 64C61 65.6569 62.3431 67 64 67C65.6568 67 67 65.6569 67 64H61ZM16.005 67C17.6618 67 19.005 65.6569 19.005 64C19.005 62.3431 17.6618 61 16.005 61V67ZM23.995 61C22.3382 61 20.995 62.3431 20.995 64C20.995 65.6569 22.3382 67 23.995 67V61ZM24.005 67C25.6618 67 27.005 65.6569 27.005 64C27.005 62.3431 25.6618 61 24.005 61V67ZM31.995 61C30.3381 61 28.995 62.3431 28.995 64C28.995 65.6569 30.3381 67 31.995 67V61ZM32.005 67C33.6618 67 35.005 65.6569 35.005 64C35.005 62.3431 33.6618 61 32.005 61V67ZM39.995 61C38.3382 61 36.995 62.3431 36.995 64C36.995 65.6569 38.3382 67 39.995 67V61ZM40.005 67C41.6618 67 43.005 65.6569 43.005 64C43.005 62.3431 41.6618 61 40.005 61V67ZM47.995 61C46.3382 61 44.995 62.3431 44.995 64C44.995 65.6569 46.3382 67 47.995 67V61ZM48.005 67C49.6618 67 51.005 65.6569 51.005 64C51.005 62.3431 49.6618 61 48.005 61V67ZM55.995 61C54.3382 61 52.995 62.3431 52.995 64C52.995 65.6569 54.3382 67 55.995 67V61ZM56.005 67C57.6618 67 59.005 65.6569 59.005 64C59.005 62.3431 57.6618 61 56.005 61V67ZM63.995 61C62.3382 61 60.995 62.3431 60.995 64C60.995 65.6569 62.3382 67 63.995 67V61ZM67 63.995C67 62.3382 65.6568 60.995 64 60.995C62.3431 60.995 61 62.3382 61 63.995H67ZM61 56.005C61 57.6618 62.3431 59.005 64 59.005C65.6568 59.005 67 57.6618 67 56.005H61ZM67 55.995C67 54.3382 65.6568 52.995 64 52.995C62.3431 52.995 61 54.3382 61 55.995H67ZM61 48.005C61 49.6618 62.3431 51.005 64 51.005C65.6568 51.005 67 49.6618 67 48.005H61ZM67 47.995C67 46.3382 65.6569 44.995 64 44.995C62.3431 44.995 61 46.3382 61 47.995H67ZM61 40.005C61 41.6618 62.3431 43.005 64 43.005C65.6569 43.005 67 41.6618 67 40.005H61ZM67 39.995C67 38.3382 65.6569 36.995 64 36.995C62.3431 36.995 61 38.3382 61 39.995L67 39.995ZM61 32.005C61 33.6618 62.3431 35.005 64 35.005C65.6569 35.005 67 33.6618 67 32.005L61 32.005ZM67 31.995C67 30.3382 65.6569 28.995 64 28.995C62.3431 28.995 61 30.3382 61 31.995H67ZM61 24.005C61 25.6618 62.3431 27.005 64 27.005C65.6569 27.005 67 25.6618 67 24.005H61ZM67 23.995C67 22.3382 65.6569 20.995 64 20.995C62.3431 20.995 61 22.3382 61 23.995H67ZM61 16.005C61 17.6618 62.3431 19.005 64 19.005C65.6569 19.005 67 17.6618 67 16.005L61 16.005ZM16 67H16.005V61H16L16 67ZM23.995 67H24.005V61H23.995V67ZM31.995 67H32.005V61H31.995V67ZM39.995 67H40.005V61H39.995V67ZM47.995 67H48.005V61H47.995V67ZM55.995 67H56.005V61H55.995V67ZM63.995 67H64V61H63.995V67ZM67 64V63.995H61V64H67ZM67 56.005V55.995H61V56.005H67ZM67 48.005V47.995H61V48.005H67ZM67 40.005V39.995L61 39.995V40.005H67ZM67 32.005V31.995H61V32.005L67 32.005ZM67 24.005V23.995H61V24.005H67ZM67 16.005V16L61 16V16.005L67 16.005Z" fill="currentColor" />
  <path d="M16 13C14.3431 13 13 14.3431 13 16C13 17.6569 14.3431 19 16 19V13ZM64 19C65.6569 19 67 17.6569 67 16C67 14.3431 65.6569 13 64 13V19ZM19 16C19 14.3431 17.6569 13 16 13C14.3431 13 13 14.3431 13 16L19 16ZM13 64C13 65.6569 14.3431 67 16 67C17.6569 67 19 65.6569 19 64H13ZM16 19L64 19V13L16 13V19ZM13 16L13 64H19L19 16L13 16Z" fill="currentColor" />
</svg>