<svg viewBox="0 0 80 80" fill="none">
  <path d="M63.2429 24.81C63.9436 21.584 62.6225 18.183 59.6343 16.7801C58.097 16.0582 56.5064 15.4382 54.8721 14.9266L54.2261 14.7244C46.4798 12.2995 38.1775 12.2996 30.4311 14.7244L29.7852 14.9266C28.9211 15.1971 28.0692 15.4979 27.231 15.8281C24.0092 17.0969 22.5112 20.6518 23.2462 24.0356L28.9864 50.4623C29.0281 50.6542 29.0965 50.8346 29.1873 51H57.47C57.5608 50.8346 57.6292 50.6542 57.6709 50.4623L63.2429 24.81Z" fill="currentColor" />
  <path d="M57.3286 55H29.3286V66.0002C29.3286 67.1047 30.224 68.0002 31.3286 68.0002H55.3286C56.4332 68.0002 57.3286 67.1047 57.3286 66.0002V55Z" fill="currentColor" />
  <path d="M29.1759 51H26.8344C25.4669 50.5415 24.2634 49.6484 23.426 48.4272L17.3425 39.5553C15.1201 36.3144 15.7117 31.9173 18.7115 29.379C20.2719 28.0587 22.1663 27.4857 24.0102 27.5739L28.9864 50.4833C29.0264 50.6671 29.0908 50.8404 29.1759 51Z" fill="currentColor" />
</svg>