<svg viewBox="0 0 80 80" fill="none">
  <path d="M40 11.5C40.8284 11.5 41.5 12.1716 41.5 13V15.5H56C56.8284 15.5 57.5 16.1716 57.5 17V21.5H62C62.8284 21.5 63.5 22.1716 63.5 23C63.5 23.8284 62.8284 24.5 62 24.5H18C17.1716 24.5 16.5 23.8284 16.5 23C16.5 22.1716 17.1716 21.5 18 21.5H22.5V17C22.5 16.1716 23.1716 15.5 24 15.5H38.5V13C38.5 12.1716 39.1716 11.5 40 11.5Z" fill="currentColor" />
  <path d="M16.5 67C16.5 66.1716 17.1716 65.5 18 65.5H62C62.8284 65.5 63.5 66.1716 63.5 67C63.5 67.8284 62.8284 68.5 62 68.5H18C17.1716 68.5 16.5 67.8284 16.5 67Z" fill="currentColor" />
  <path fill-rule="evenodd" clip-rule="evenodd" d="M20 23H60V67H45V55C45 53.8954 44.1046 53 43 53H37C35.8954 53 35 53.8954 35 55V67H20V23ZM37.0908 45.5385L37.0908 42C37.0908 41.4477 36.6431 41 36.0908 41H32.5522C32 41 31.5523 40.5523 31.5523 40V36C31.5523 35.4477 32 35 32.5522 35L37.0139 35C37.0564 35 37.0908 34.9656 37.0908 34.9231V30.4615C37.0908 29.9093 37.5385 29.4615 38.0908 29.4615H42.0908C42.6431 29.4615 43.0908 29.9093 43.0908 30.4615V34.9231C43.0908 34.9655 43.1252 35 43.1676 35H47.6292C48.1815 35 48.6292 35.4477 48.6292 36V40C48.6292 40.5523 48.1815 41 47.6292 41H43.1676C43.1252 41 43.0908 41.0344 43.0908 41.0768L43.0908 45.5385C43.0908 46.0907 42.6431 46.5385 42.0908 46.5385H38.0908C37.5385 46.5385 37.0908 46.0907 37.0908 45.5385Z" fill="currentColor" />
</svg>