<svg viewBox="0 0 80 80" fill="none">
  <path fill-rule="evenodd" clip-rule="evenodd" d="M40 67.9825C51.598 67.9825 61 58.5805 61 46.9825C61 42.4387 59.5263 38.0175 56.8 34.3825L40.0415 12.0378C40.0207 12.0102 39.9793 12.0102 39.9585 12.0378L23.2 34.3825C20.4737 38.0175 19 42.4387 19 46.9825C19 58.5805 28.402 67.9825 40 67.9825ZM40 62.9913C45.5228 62.9913 50 58.5142 50 52.9913V52.389C50 50.1792 49.3095 48.0247 48.0251 46.2265L40.0198 35.019C40.0101 35.0054 39.9899 35.0054 39.9802 35.019L31.9749 46.2265C30.6905 48.0247 30 50.1792 30 52.389V52.9913C30 58.5142 34.4772 62.9913 40 62.9913Z" fill="currentColor" />
</svg>