<svg viewBox="0 0 80 80" fill="none">
  <rect x="8" y="28" width="46" height="36" rx="4" fill="currentColor" />
  <path fill-rule="evenodd" clip-rule="evenodd" d="M57 55.875L69.2068 61.1487C70.5272 61.7191 72 60.7511 72 59.3127V33.3982C72 31.9598 70.5272 30.9917 69.2068 31.5622L57 36.8359V55.875ZM51 53.2828L39.2152 48.1914C37.6062 47.4963 37.6062 45.2146 39.2152 44.5195L51 39.4281V53.2828Z" fill="currentColor" />
  <path d="M42 38C42 39.1046 42.8954 40 44 40C45.1046 40 46 39.1046 46 38C46 36.8954 45.1046 36 44 36C42.8954 36 42 36.8954 42 38Z" fill="currentColor" fill-opacity="0.15" stroke="currentColor" stroke-width="4" stroke-linecap="round" stroke-linejoin="round" />
  <path d="M48 19C49.6569 19 51 17.6569 51 16C51 14.3431 49.6569 13 48 13V19ZM17 28C17 29.6569 18.3431 31 20 31C21.6569 31 23 29.6569 23 28H17ZM24 19H48V13H24V19ZM23 28V20H17V28H23ZM24 13C20.134 13 17 16.134 17 20H23C23 19.4477 23.4477 19 24 19V13Z" fill="currentColor" />
</svg>