<svg viewBox="0 0 82 80" fill="none">
  <path d="M43.7563 19.6408L45.5241 21.4085C46.108 20.8247 46.3659 19.9902 46.2133 19.1787C46.0607 18.3672 45.5172 17.6835 44.7612 17.3516L43.7563 19.6408ZM15.6407 47.7564L13.3515 48.7612C13.6834 49.5173 14.3672 50.0607 15.1786 50.2133C15.9901 50.3659 16.8246 50.108 17.4085 49.5242L15.6407 47.7564ZM11.4497 38.2087L13.7389 37.2038V37.2038L11.4497 38.2087ZM13.1182 29.3364L11.3505 27.5686L13.1182 29.3364ZM25.3363 17.1183L27.1041 18.8861L25.3363 17.1183ZM34.2086 15.4498L33.2038 17.739L33.2038 17.739L34.2086 15.4498ZM41.9886 17.873L13.8729 45.9886L17.4085 49.5242L45.5241 21.4085L41.9886 17.873ZM9.16055 39.2135L13.3515 48.7612L17.9299 46.7516L13.7389 37.2038L9.16055 39.2135ZM11.3505 27.5686C8.29083 30.6282 7.4214 35.2514 9.16055 39.2135L13.7389 37.2038C12.8279 35.1285 13.2833 32.7068 14.886 31.1041L11.3505 27.5686ZM23.5685 15.3505L11.3505 27.5686L14.886 31.1041L27.1041 18.8861L23.5685 15.3505ZM35.2134 13.1606C31.2514 11.4215 26.6282 12.2909 23.5685 15.3505L27.1041 18.8861C28.7067 17.2834 31.1284 16.828 33.2038 17.739L35.2134 13.1606ZM44.7612 17.3516L35.2134 13.1606L33.2038 17.739L42.7515 21.9299L44.7612 17.3516Z" fill="currentColor" />
  <path fill-rule="evenodd" clip-rule="evenodd" d="M27.8763 64.4032L29.9606 66.4874C30.7416 67.2685 32.0079 67.2685 32.789 66.4874L37.0316 62.2448C37.8127 61.4637 37.8127 60.1974 37.0316 59.4164L35.0015 57.3862L28.6375 63.7501C28.397 63.9906 28.1424 64.2083 27.8763 64.4032ZM53.3862 39.0014L55.4164 41.0316C56.1975 41.8126 57.4638 41.8126 58.2448 41.0316L62.4875 36.7889C63.2685 36.0079 63.2685 34.7416 62.4875 33.9605L60.4033 31.8763C60.2084 32.1424 59.9907 32.397 59.7502 32.6375L53.3862 39.0014ZM56.4918 28.7206C56.422 28.858 56.3296 28.987 56.2147 29.1019L50.125 35.1916C50.1584 35.0428 50.233 34.9013 50.3488 34.7855L56.2414 28.8929C56.3159 28.8184 56.401 28.761 56.4918 28.7206ZM24.7206 60.4918C24.761 60.4009 24.8185 60.3158 24.893 60.2413L30.7855 54.3488C30.9014 54.2329 31.0428 54.1583 31.1917 54.1249L25.102 60.2146C24.987 60.3296 24.8581 60.4219 24.7206 60.4918Z" fill="currentColor" />
  <path fill-rule="evenodd" clip-rule="evenodd" d="M16.9703 57.7399C13.8461 54.6157 13.8461 49.5503 16.9703 46.4262L42.4262 20.9703C45.5504 17.8461 50.6157 17.8461 53.7399 20.9703L57.9825 25.213C59.5446 26.775 59.5446 29.3077 57.9825 30.8698L26.8698 61.9825C25.3077 63.5446 22.7751 63.5446 21.213 61.9825L16.9703 57.7399ZM22.6272 53.4972C21.4556 52.3256 21.4556 50.4262 22.6272 49.2546C23.7988 48.083 25.6983 48.083 26.8698 49.2546C28.0414 50.4262 28.0414 52.3256 26.8698 53.4972C25.6983 54.6688 23.7988 54.6688 22.6272 53.4972ZM45.2546 26.6272C46.4262 25.4556 48.3257 25.4556 49.4972 26.6272C50.6688 27.7987 50.6688 29.6982 49.4972 30.8698C48.3257 32.0414 46.4262 32.0414 45.2546 30.8698C44.083 29.6982 44.083 27.7987 45.2546 26.6272Z" fill="currentColor" />
  <path d="M10 67.0732H74" stroke="currentColor" stroke-width="5" stroke-linecap="round" stroke-linejoin="round" />
</svg>