<svg viewBox="0 0 80 80" fill="none">
  <path d="M30.4957 15.5C32.1526 15.5 33.4957 14.1569 33.4957 12.5C33.4957 10.8431 32.1526 9.5 30.4957 9.5V15.5ZM48.5042 9.5C46.8474 9.5 45.5042 10.8431 45.5042 12.5C45.5042 14.1569 46.8474 15.5 48.5042 15.5V9.5ZM63.5 30.4958C63.5 32.1526 64.8431 33.4958 66.5 33.4958C68.1569 33.4958 69.5 32.1526 69.5 30.4958H63.5ZM69.5 48.5042C69.5 46.8474 68.1569 45.5042 66.5 45.5042C64.8431 45.5042 63.5 46.8474 63.5 48.5042H69.5ZM15.5 48.5042C15.5 46.8474 14.1569 45.5042 12.5 45.5042C10.8431 45.5042 9.5 46.8474 9.5 48.5042H15.5ZM9.5 30.4957C9.5 32.1526 10.8431 33.4957 12.5 33.4957C14.1569 33.4957 15.5 32.1526 15.5 30.4957H9.5ZM48.5042 63.5C46.8474 63.5 45.5042 64.8431 45.5042 66.5C45.5042 68.1569 46.8474 69.5 48.5042 69.5V63.5ZM30.4958 69.5C32.1526 69.5 33.4958 68.1569 33.4958 66.5C33.4958 64.8431 32.1526 63.5 30.4958 63.5V69.5ZM20.5 15.5H30.4957V9.5H20.5V15.5ZM48.5042 15.5H58.5V9.5H48.5042V15.5ZM63.5 20.5V30.4958H69.5V20.5H63.5ZM63.5 48.5042V58.5H69.5V48.5042H63.5ZM15.5 58.5V48.5042H9.5V58.5H15.5ZM15.5 30.4957V20.5H9.5V30.4957H15.5ZM58.5 63.5H48.5042V69.5H58.5V63.5ZM30.4958 63.5H20.5V69.5H30.4958V63.5ZM9.5 58.5C9.5 64.5751 14.4249 69.5 20.5 69.5V63.5C17.7386 63.5 15.5 61.2614 15.5 58.5H9.5ZM63.5 58.5C63.5 61.2614 61.2614 63.5 58.5 63.5V69.5C64.5751 69.5 69.5 64.5751 69.5 58.5H63.5ZM58.5 15.5C61.2614 15.5 63.5 17.7386 63.5 20.5H69.5C69.5 14.4249 64.5751 9.5 58.5 9.5V15.5ZM20.5 9.5C14.4249 9.5 9.5 14.4249 9.5 20.5H15.5C15.5 17.7386 17.7386 15.5 20.5 15.5V9.5Z" fill="currentColor" />
  <rect x="29.5" y="30" width="20" height="20" rx="10" fill="currentColor" stroke="currentColor" stroke-width="6" stroke-linecap="round" stroke-linejoin="round" />
</svg>