<svg viewBox="0 0 80 80" fill="none">
  <path d="M5.87851 49.5478C4.70694 50.7194 4.70694 52.6189 5.87851 53.7904C7.05008 54.962 8.94958 54.962 10.1211 53.7904L5.87851 49.5478ZM62.447 29.7488C63.6186 28.5772 63.6186 26.6777 62.447 25.5062C61.2755 24.3346 59.376 24.3346 58.2044 25.5062L62.447 29.7488ZM10.1211 53.7904L26.7382 37.1734L22.4955 32.9308L5.87851 49.5478L10.1211 53.7904ZM28.1524 37.1734L36.6377 45.6587L40.8803 41.4161L32.395 32.9308L28.1524 37.1734ZM46.5371 45.6587L62.447 29.7488L58.2044 25.5062L42.2945 41.4161L46.5371 45.6587ZM36.6377 45.6587C39.3713 48.3924 43.8035 48.3924 46.5371 45.6587L42.2945 41.4161C41.904 41.8066 41.2708 41.8066 40.8803 41.4161L36.6377 45.6587ZM26.7382 37.1734C27.1287 36.7829 27.7618 36.7829 28.1524 37.1734L32.395 32.9308C29.6613 30.1971 25.2292 30.1971 22.4955 32.9308L26.7382 37.1734Z" fill="currentColor" />
  <path d="M65.811 33.1126L54.8404 22.142C53.7333 21.0349 54.5174 19.142 56.083 19.142L65.811 19.142C67.4678 19.142 68.811 20.4852 68.811 22.142L68.811 31.8699C68.811 33.4356 66.918 34.2197 65.811 33.1126Z" fill="currentColor" stroke="currentColor" stroke-width="6" stroke-linecap="round" stroke-linejoin="round" />
  <path d="M8 12V66C8 67.1046 8.89543 68 10 68H72" stroke="currentColor" stroke-width="6" stroke-linecap="round" stroke-linejoin="round" />
</svg>