<svg viewBox="0 0 80 80" fill="none">
  <path d="M5.87851 23.7486C4.70694 22.577 4.70694 20.6775 5.87851 19.5059C7.05008 18.3344 8.94958 18.3344 10.1211 19.5059L5.87851 23.7486ZM62.447 43.5476C63.6186 44.7192 63.6186 46.6186 62.447 47.7902C61.2755 48.9618 59.376 48.9618 58.2044 47.7902L62.447 43.5476ZM10.1211 19.5059L26.7382 36.123L22.4955 40.3656L5.87851 23.7486L10.1211 19.5059ZM28.1524 36.123L36.6377 27.6377L40.8803 31.8803L32.395 40.3656L28.1524 36.123ZM46.5371 27.6377L62.447 43.5476L58.2044 47.7902L42.2945 31.8803L46.5371 27.6377ZM36.6377 27.6377C39.3713 24.904 43.8035 24.904 46.5371 27.6377L42.2945 31.8803C41.904 31.4898 41.2708 31.4898 40.8803 31.8803L36.6377 27.6377ZM26.7382 36.123C27.1287 36.5135 27.7618 36.5135 28.1524 36.123L32.395 40.3656C29.6613 43.0993 25.2292 43.0993 22.4955 40.3656L26.7382 36.123Z" fill="currentColor" />
  <path d="M65.811 40.1838L54.8404 51.1544C53.7333 52.2614 54.5174 54.1544 56.083 54.1544L65.811 54.1544C67.4678 54.1544 68.811 52.8112 68.811 51.1544L68.811 41.4264C68.811 39.8608 66.918 39.0767 65.811 40.1838Z" fill="currentColor" stroke="currentColor" stroke-width="6" stroke-linecap="round" stroke-linejoin="round" />
  <path d="M8 12V66C8 67.1046 8.89543 68 10 68H72" stroke="currentColor" stroke-width="6" stroke-linecap="round" stroke-linejoin="round" />
</svg>