<svg viewBox="0 0 80 80" fill="none">
  <path fill-rule="evenodd" clip-rule="evenodd" d="M18 16C16.8954 16 16 16.8954 16 18V62C16 63.1046 16.8954 64 18 64H62C63.1046 64 64 63.1046 64 62V18C64 16.8954 63.1046 16 62 16H18ZM56.8805 32.3737C58.0465 31.1966 58.0465 29.2882 56.8805 28.1111C55.7145 26.934 53.824 26.934 52.6579 28.1111L35.0769 45.8588L27.342 38.0506C26.176 36.8735 24.2855 36.8735 23.1195 38.0506C21.9534 39.2277 21.9534 41.1361 23.1195 42.3132L31.5581 50.8318C33.5015 52.7937 36.6523 52.7937 38.5957 50.8318L56.8805 32.3737Z" fill="currentColor" />
</svg>