<svg viewBox="0 0 80 80" fill="none">
  <path d="M40.0007 38.9999C39.4484 38.9999 39.0007 39.4476 39.0007 39.9999C39.0007 40.5522 39.4484 40.9999 40.0007 40.9999C40.553 40.9999 41.0007 40.5522 41.0007 39.9999C41.0007 39.4476 40.553 38.9999 40.0007 38.9999Z" fill="currentColor" />
  <path fill-rule="evenodd" clip-rule="evenodd" d="M48.4853 19.5145C43.0523 17.2641 36.9478 17.2641 31.5147 19.5145C26.0817 21.7649 21.7652 26.0815 19.5147 31.5145C17.2643 36.9475 17.2643 43.052 19.5147 48.485C21.7652 53.9181 26.0817 58.2346 31.5147 60.4851C36.9478 62.7355 43.0523 62.7355 48.4853 60.4851C53.9183 58.2346 58.2349 53.9181 60.4853 48.485C62.7357 43.052 62.7357 36.9475 60.4853 31.5145C58.2349 26.0815 53.9183 21.7649 48.4853 19.5145ZM47.9006 29.676C48.7779 30.3472 48.9449 31.6024 48.2737 32.4797L44.3748 37.5757C44.7736 38.2937 45.0007 39.1203 45.0007 39.9999C45.0007 40.1774 44.9915 40.3527 44.9734 40.5254L54.8966 46.1705C55.8152 46.6931 56.1621 47.8335 55.712 48.772C55.6894 48.8201 55.6648 48.8676 55.638 48.9145L55.6139 48.9566C55.35 49.4167 54.914 49.7532 54.402 49.8919C53.8899 50.0305 53.3438 49.9601 52.8837 49.6961L51.3093 48.7926C51.1746 48.7153 51.0523 48.6247 50.9431 48.5234L42.9971 44.003C42.162 44.629 41.1247 44.9999 40.0007 44.9999C37.2393 44.9999 35.0007 42.7613 35.0007 39.9999C35.0007 37.2385 37.2393 34.9999 40.0007 34.9999C40.4136 34.9999 40.8148 35.0499 41.1986 35.1443L45.0969 30.0491C45.336 29.7366 45.6493 29.5142 45.9931 29.3877C45.972 29.3769 45.951 29.3657 45.9301 29.354L45.8893 29.3314C45.4183 29.0714 45.0719 28.6326 44.9284 28.1141C44.7849 27.5956 44.8563 27.0412 45.1265 26.576L46.0384 25.006C46.5856 24.0639 47.7862 23.7331 48.7387 24.262L48.7827 24.2865C49.2492 24.5472 49.5919 24.9838 49.7344 25.4987C49.877 26.0137 49.8076 26.5644 49.5416 27.0278L48.638 28.6023C48.3952 29.0255 48.0208 29.3266 47.5957 29.4832C47.7011 29.5373 47.8032 29.6015 47.9006 29.676ZM41.8435 23.9941C41.8421 23.4612 41.6281 22.9509 41.2489 22.5764C40.8698 22.2019 40.3569 21.9942 39.824 21.9994L39.7729 22C38.6803 22.0138 37.801 22.9019 37.7981 23.9946L37.7934 25.81C37.792 26.3464 38.0061 26.8609 38.3876 27.2379C38.7692 27.6149 39.2862 27.8229 39.8225 27.8151L39.8696 27.8145C40.9678 27.8027 41.8511 26.9076 41.8482 25.8094L41.8435 23.9941ZM33.6921 25.159C33.4257 24.7003 32.988 24.3663 32.4752 24.2303C31.9625 24.0944 31.4168 24.1677 30.9581 24.4341L30.9136 24.4601C29.9656 25.0144 29.6419 26.2295 30.1885 27.182L31.092 28.7565C31.3576 29.2193 31.7972 29.5568 32.3129 29.6939C32.8286 29.831 33.3776 29.7563 33.838 29.4865L33.879 29.4626C34.8341 28.9078 35.1586 27.6838 34.6038 26.7286L33.6921 25.159ZM55.4367 30.74C54.8763 29.8057 53.6711 29.4919 52.7262 30.0342L51.1515 30.9378C50.6848 31.2056 50.3458 31.6501 50.2108 32.1709C50.0759 32.6917 50.1565 33.2448 50.4344 33.7055L50.458 33.7449C51.0198 34.6844 52.2325 34.9977 53.1791 34.4479L54.7488 33.5361C55.2108 33.2677 55.5463 32.8256 55.6803 32.3084C55.8144 31.7911 55.7358 31.2417 55.4623 30.7827L55.4367 30.74ZM27.1828 30.1876C26.2303 29.641 25.0152 29.9647 24.4609 30.9127L24.4349 30.9571C24.1685 31.4158 24.0952 31.9616 24.2311 32.4743C24.3671 32.987 24.7011 33.4248 25.1598 33.6912L26.7294 34.6029C27.6845 35.1576 28.9085 34.8332 29.4633 33.8781L29.4872 33.8371C29.7571 33.3768 29.8318 32.8277 29.6947 32.312C29.5576 31.7963 29.2201 31.3567 28.7573 31.0911L27.1828 30.1876ZM27.8156 39.8216C27.8235 39.2853 27.6155 38.7683 27.2385 38.3868C26.8615 38.0052 26.347 37.7911 25.8106 37.7925L23.9952 37.7972C22.9025 37.8001 22.0144 38.6794 22.0006 39.772L22 39.823C21.9948 40.3559 22.2025 40.8689 22.577 41.248C22.9515 41.6272 23.4618 41.8412 23.9947 41.8426L25.8099 41.8474C26.9082 41.8502 27.8033 40.967 27.815 39.8688L27.8156 39.8216ZM54.1892 37.7934C53.6529 37.792 53.1384 38.0061 52.7614 38.3876C52.3844 38.7691 52.1764 39.2861 52.1842 39.8224L52.1848 39.868C52.1966 40.9661 53.0917 41.8493 54.1899 41.8464L56.0051 41.8417C56.5381 41.8403 57.0484 41.6263 57.4229 41.2471C57.7974 40.8679 58.005 40.355 57.9998 39.8221L57.9993 39.7729C57.9855 38.6803 57.0973 37.801 56.0047 37.7982L54.1892 37.7934ZM29.332 45.8887C29.072 45.4177 28.6332 45.0713 28.1147 44.9277C27.5962 44.7842 27.0417 44.8556 26.5765 45.1258L25.0065 46.0377C24.0644 46.5849 23.7336 47.7855 24.2625 48.738L24.287 48.782C24.5477 49.2484 24.9843 49.5912 25.4992 49.7338C26.0142 49.8763 26.5649 49.8069 27.0283 49.5409L28.6028 48.6374C29.5522 48.0925 29.8872 46.8857 29.3546 45.9295L29.332 45.8887ZM33.7061 50.4338C33.2454 50.1559 32.6922 50.0754 32.1715 50.2103C31.6507 50.3453 31.2063 50.6843 30.9385 51.1509L30.0348 52.7256C29.4925 53.6706 29.8064 54.8757 30.7407 55.4362L30.7834 55.4617C31.2424 55.7353 31.7918 55.8138 32.309 55.6798C32.8263 55.5458 33.2684 55.2103 33.5368 54.7483L34.4486 53.1785C34.9983 52.232 34.6851 51.0193 33.7456 50.4575L33.7061 50.4338ZM48.7935 51.3085C48.2438 50.3506 47.0217 50.0196 46.0636 50.5692L46.0245 50.5915C45.5606 50.8553 45.2214 51.2935 45.0823 51.8087C44.9432 52.3238 45.0157 52.8732 45.2837 53.3346L46.1955 54.9043C46.7471 55.854 47.9614 56.1812 48.9156 55.6372L48.9575 55.6132C49.4177 55.3492 49.7541 54.9132 49.8928 54.4012C50.0315 53.8891 49.9611 53.343 49.697 52.8829L48.7935 51.3085ZM39.8233 52.1836C39.287 52.1759 38.77 52.3838 38.3885 52.7608C38.007 53.1378 37.7929 53.6523 37.7943 54.1887L37.7991 56.0041C37.8019 57.0967 38.6812 57.9849 39.7738 57.9987L39.823 57.9992C40.3559 58.0045 40.8688 57.7968 41.248 57.4223C41.6271 57.0478 41.8412 56.5375 41.8426 56.0046L41.8473 54.1893C41.8502 53.0911 40.967 52.1961 39.8689 52.1842L39.8233 52.1836Z" fill="currentColor" />
</svg>