<svg viewBox="0 0 80 80" fill="none">
  <path fill-rule="evenodd" clip-rule="evenodd" d="M9.19259 24.6205C9.94256 21.7661 11.7904 19.2981 14.3122 17.8132C16.8341 16.3284 19.8537 15.9304 22.6527 16.6952C25.4488 17.4593 27.8515 19.3223 29.2918 21.8666L29.8804 22.9062C30.3249 22.6786 30.7939 22.4946 31.2817 22.3588L31.3523 22.3391C33.2724 21.8045 35.3302 22.078 37.0625 23.098C38.7947 24.1179 40.0559 25.7987 40.5619 27.7618L40.5805 27.834C40.6453 28.0851 40.6973 28.3382 40.7366 28.5923C41.7475 28.7521 42.7186 29.0935 43.6033 29.5971C42.9284 30.2966 42.3116 31.0559 41.7617 31.8685C38.6099 31.0855 35.2609 31.5355 32.4338 33.1486C29.7601 34.6742 27.7524 37.1271 26.7829 40.0216C24.6574 40.6794 22.6985 41.8436 21.0955 43.4278C20.3094 44.2047 19.6242 45.0696 19.0507 45.9999H14.4629C14.4557 45.9999 14.4485 45.9996 14.4415 45.9991H12.5854C10.3108 45.9991 8.13189 45.084 6.53941 43.4599L6.47968 43.399C4.8903 41.7781 4 39.5985 4 37.3284V37.1585C4 34.8883 4.8903 32.7088 6.47968 31.0879L6.5394 31.027C7.2443 30.3081 8.06411 29.7281 8.95626 29.3049C8.71291 27.7592 8.78799 26.1605 9.19259 24.6205ZM47.4919 34.2347C47.8251 35.1646 48 36.153 48 37.1592V37.3291C48 39.5992 47.1097 41.7788 45.5203 43.3997L45.4606 43.4606C43.8681 45.0847 41.6892 45.9998 39.4147 45.9998H37.5441L37.536 45.9999H27.8727C28.4588 45.758 29.073 45.5861 29.7013 45.4906L31.8771 45.16L32.215 42.9853C32.2499 42.7607 32.2967 42.5373 32.3556 42.3159C32.7985 40.6509 33.8964 39.222 35.4073 38.36C36.9195 37.4971 38.7376 37.2645 40.4452 37.7253C40.8858 37.8441 41.3102 38.0065 41.7126 38.2082L44.2278 39.4684L45.6469 37.0393L46.3459 35.8427C46.6805 35.27 47.0646 34.7324 47.4919 34.2347Z" fill="currentColor" />
  <path fill-rule="evenodd" clip-rule="evenodd" d="M62.8744 29.2365C66.064 31.0563 68.4303 34.0913 69.3863 37.6174C69.9017 39.5182 69.995 41.4925 69.6824 43.4058C70.8284 43.9347 71.8849 44.6616 72.7947 45.5607C74.8305 47.5726 75.999 50.3382 75.999 53.2004C75.999 56.0625 74.8305 58.8282 72.7947 60.84C70.7614 62.8495 67.995 63.999 65.1362 63.999H62.709C62.7003 63.9997 62.6915 64 62.6827 64H33.3168C33.3141 64 33.3115 64 33.3088 63.9999H30.8618C28.003 63.9999 25.2367 62.8504 23.2033 60.8409C21.1676 58.8291 19.999 56.0634 19.999 53.2013C19.999 50.3391 21.1676 47.5735 23.2033 45.5617C24.851 43.9333 26.9801 42.8696 29.2496 42.5247C29.3007 42.196 29.3692 41.8689 29.4555 41.5447C30.1052 39.1022 31.7129 37.0134 33.9195 35.7544C36.1261 34.4953 38.7604 34.1637 41.2257 34.8289C41.8619 35.0006 42.4746 35.235 43.0555 35.5261L43.7546 34.3294C45.6213 31.1341 48.6927 28.802 52.2883 27.8499C55.8563 26.9051 59.6849 27.4166 62.8744 29.2365Z" fill="currentColor" />
</svg>