<svg viewBox="0 0 80 80" fill="none">
  <path fill-rule="evenodd" clip-rule="evenodd" d="M12 16C9.79086 16 8 17.7909 8 20V60C8 62.2091 9.79086 64 12 64H68C70.2091 64 72 62.2091 72 60V20C72 17.7909 70.2091 16 68 16H12ZM52 24C50.8954 24 50 24.8954 50 26V30C50 31.1046 50.8954 32 52 32H62C63.1046 32 64 31.1046 64 30V26C64 24.8954 63.1046 24 62 24H52ZM16 34C16 32.8954 16.8954 32 18 32H22C23.1046 32 24 32.8954 24 34V38C24 39.1046 23.1046 40 22 40H18C16.8954 40 16 39.1046 16 38V34ZM16 45C14.3431 45 13 46.3431 13 48C13 49.6569 14.3431 51 16 51H23C24.6569 51 26 49.6569 26 48C26 46.3431 24.6569 45 23 45H16ZM27 48C27 46.3431 28.3431 45 30 45H37C38.6569 45 40 46.3431 40 48C40 49.6569 38.6569 51 37 51H30C28.3431 51 27 49.6569 27 48ZM44 45C42.3431 45 41 46.3431 41 48C41 49.6569 42.3431 51 44 51H51C52.6569 51 54 49.6569 54 48C54 46.3431 52.6569 45 51 45H44ZM55 48C55 46.3431 56.3431 45 58 45H65C66.6569 45 68 46.3431 68 48C68 49.6569 66.6569 51 65 51H58C56.3431 51 55 49.6569 55 48ZM16 53C14.3431 53 13 54.3431 13 56C13 57.6569 14.3431 59 16 59H32C33.6569 59 35 57.6569 35 56C35 54.3431 33.6569 53 32 53H16Z" fill="currentColor" />
</svg>