<svg viewBox="0 0 80 80" fill="none">
  <path d="M12 16C9.79086 16 8 17.7909 8 20V26H72V20C72 17.7909 70.2091 16 68 16H12Z" fill="currentColor" />
  <path fill-rule="evenodd" clip-rule="evenodd" d="M72 36H8V60C8 62.2091 9.79086 64 12 64H68C70.2091 64 72 62.2091 72 60V36ZM14 48C14 46.8954 14.8954 46 16 46H23C24.1046 46 25 46.8954 25 48C25 49.1046 24.1046 50 23 50H16C14.8954 50 14 49.1046 14 48ZM16 54C14.8954 54 14 54.8954 14 56C14 57.1046 14.8954 58 16 58H32C33.1046 58 34 57.1046 34 56C34 54.8954 33.1046 54 32 54H16Z" fill="currentColor" />
</svg>