<svg viewBox="0 0 80 80" fill="none">
  <path d="M67.0368 35.9518L63.6494 35.0713C63.219 36.7272 64.0488 38.4515 65.6113 39.1484L67.0368 35.9518ZM71.3366 19.4103L74.724 20.2908C75.1175 18.777 74.4588 17.1859 73.1105 16.3932C71.7622 15.6004 70.0515 15.7985 68.9201 16.8784L71.3366 19.4103ZM67.0372 35.952L70.4247 36.8325C70.8551 35.1766 70.0253 33.4523 68.4627 32.7554L67.0372 35.952ZM66.2623 38.9334L69.6497 39.8139L69.6497 39.8139L66.2623 38.9334ZM61.5417 57.0941L60.7394 60.5009C62.5904 60.9368 64.4507 59.815 64.9291 57.9746L61.5417 57.0941ZM18.4724 57.154L15.0849 58.0345C15.5643 59.8786 17.4307 61.0005 19.2841 60.5586L18.4724 57.154ZM8.66211 19.413L11.0786 16.881C9.94713 15.8011 8.2365 15.6031 6.88818 16.3958C5.53986 17.1886 4.88119 18.7797 5.27468 20.2935L8.66211 19.413ZM21.8665 32.0155L19.45 34.5474C20.4743 35.525 21.9866 35.7891 23.2816 35.2167L21.8665 32.0155ZM32.8807 27.1466L34.2958 30.3478C35.1383 29.9753 35.8001 29.2858 36.1375 28.4286L32.8807 27.1466ZM39.9979 9.06641L43.2547 7.78439C42.7279 6.44617 41.4361 5.56641 39.9979 5.56641C38.5598 5.56641 37.268 6.44617 36.7412 7.78439L39.9979 9.06641ZM47.1146 27.145L43.8578 28.427C44.1952 29.2842 44.8569 29.9738 45.6995 30.3462L47.1146 27.145ZM58.1303 32.0146L56.7152 35.2158C58.0102 35.7882 59.5225 35.5241 60.5468 34.5465L58.1303 32.0146ZM70.4243 36.8323L74.724 20.2908L67.9491 18.5298L63.6494 35.0713L70.4243 36.8323ZM68.4627 32.7554L68.4623 32.7553L65.6113 39.1484L65.6118 39.1486L68.4627 32.7554ZM69.6497 39.8139L70.4247 36.8325L63.6498 35.0715L62.8749 38.0529L69.6497 39.8139ZM64.9291 57.9746L69.6497 39.8139L62.8749 38.0529L58.1543 56.2136L64.9291 57.9746ZM19.2841 60.5586C32.9103 57.3097 47.1065 57.2905 60.7394 60.5009L62.3439 53.6873C47.6494 50.2269 32.3479 50.2476 17.6606 53.7494L19.2841 60.5586ZM5.27468 20.2935L15.0849 58.0345L21.8598 56.2735L12.0495 18.5324L5.27468 20.2935ZM24.283 29.4836L11.0786 16.881L6.24561 21.9449L19.45 34.5474L24.283 29.4836ZM31.4656 23.9454L20.4514 28.8143L23.2816 35.2167L34.2958 30.3478L31.4656 23.9454ZM36.7412 7.78439L29.624 25.8646L36.1375 28.4286L43.2547 10.3484L36.7412 7.78439ZM50.3713 25.863L43.2547 7.78439L36.7412 10.3484L43.8578 28.427L50.3713 25.863ZM59.5454 28.8134L48.5297 23.9439L45.6995 30.3462L56.7152 35.2158L59.5454 28.8134ZM68.9201 16.8784L55.7138 29.4827L60.5468 34.5465L73.7531 21.9422L68.9201 16.8784Z" fill="currentColor" />
  <path d="M14.5342 61.1718C14.5342 59.3861 15.7495 57.8296 17.4819 57.3965C32.3546 53.6783 47.9138 53.6783 62.7865 57.3965C64.5189 57.8296 65.7342 59.3861 65.7342 61.1718V66.2914C65.7342 68.6493 63.5183 70.3794 61.2308 69.8076C47.3795 66.3447 32.8888 66.3447 19.0375 69.8076C16.7501 70.3794 14.5342 68.6493 14.5342 66.2915V61.1718Z" fill="currentColor" stroke="currentColor" stroke-width="4" stroke-linecap="round" stroke-linejoin="round" />
</svg>