<svg viewBox="0 0 80 80" fill="none">
  <path fill-rule="evenodd" clip-rule="evenodd" d="M8 52.1288V36.0189C8.32833 36.0552 8.66199 36.0739 9 36.0739C13.9706 36.0739 18 32.0444 18 27.0739C18 26.7107 17.9785 26.3526 17.9367 26.0007C23.7427 25.7523 29.5078 24.8718 35.1295 23.3726L44.8705 20.7751C50.4869 19.2773 56.2465 18.3971 62.0471 18.1477C62.0159 18.4522 62 18.7612 62 19.0739C62 24.0444 66.0294 28.0739 71 28.0739C71.338 28.0739 71.6717 28.0552 72 28.0189V44.1288C71.6717 44.0925 71.338 44.0739 71 44.0739C66.0294 44.0739 62 48.1033 62 53.0739C62 53.437 62.0215 53.7951 62.0633 54.147C56.2573 54.3954 50.4922 55.2759 44.8705 56.7751L35.1295 59.3726C29.5131 60.8704 23.7535 61.7506 17.9529 62C17.9841 61.6955 18 61.3866 18 61.0739C18 56.1033 13.9706 52.0739 9 52.0739C8.66199 52.0739 8.32833 52.0925 8 52.1288ZM44.9839 31.7338C42.1814 29.5764 38.2776 29.5764 35.4751 31.7338C33.5583 33.2093 32.4353 35.4911 32.4353 37.91V42.2377C32.4353 44.6566 33.5583 46.9384 35.4751 48.4139C38.2776 50.5713 42.1814 50.5713 44.9839 48.4139C46.9007 46.9384 48.0237 44.6566 48.0237 42.2377V37.91C48.0237 35.4911 46.9007 33.2093 44.9839 31.7338ZM19.4152 41.2938C20.3494 40.5747 21.6506 40.5747 22.5848 41.2938C23.2237 41.7857 23.5981 42.5463 23.5981 43.3526V44.7951C23.5981 45.6014 23.2237 46.362 22.5848 46.8539C21.6506 47.573 20.3494 47.573 19.4152 46.8539C18.7763 46.362 18.4019 45.6014 18.4019 44.7951V43.3526C18.4019 42.5463 18.7763 41.7857 19.4152 41.2938ZM60.5848 33.2938C59.6506 32.5747 58.3494 32.5747 57.4152 33.2938C56.7763 33.7857 56.4019 34.5463 56.4019 35.3526V36.7951C56.4019 37.6014 56.7763 38.362 57.4152 38.8539C58.3494 39.573 59.6506 39.573 60.5848 38.8539C61.2237 38.362 61.5981 37.6014 61.5981 36.7951V35.3526C61.5981 34.5463 61.2237 33.7857 60.5848 33.2938Z" fill="currentColor" />
  <path d="M8 27.9999C8 26.8953 8.89543 25.9999 10 25.9999H14.5165C21.4758 25.9999 28.4053 25.0918 35.1295 23.2987L44.8705 20.7011C51.5947 18.9079 58.5242 17.9999 65.4835 17.9999H70C71.1046 17.9999 72 18.8953 72 19.9999V51.9999C72 53.1044 71.1046 53.9999 70 53.9999H65.4835C58.5242 53.9999 51.5947 54.9079 44.8705 56.7011L35.1295 59.2987C28.4053 61.0918 21.4758 61.9999 14.5165 61.9999H10C8.89543 61.9999 8 61.1044 8 59.9999V27.9999Z" stroke="currentColor" stroke-width="5" stroke-linecap="round" stroke-linejoin="round" />
</svg>