<svg viewBox="0 0 80 80" fill="none">
  <path d="M31 52V48.0627H25V52H31ZM55 52L55 48.0391L49 48.0391L49 52L55 52ZM27 25.9999C27 33.1721 32.8578 38.9554 39.9812 38.9999L40.0188 33.0001C36.1456 32.9759 33 29.8245 33 25.9999H27ZM47 25.9999C47 29.8245 43.8544 32.9759 39.9812 33.0001L40.0188 38.9999C47.1422 38.9554 53 33.1721 53 25.9999H47ZM40 19C43.866 19 47 22.134 47 25.9999H53C53 18.8202 47.1796 13 40 13V19ZM55 48.0391C55 39.7523 48.2965 33.027 40.0098 33L39.9902 39C44.9709 39.0162 49 43.0584 49 48.0391L55 48.0391ZM31 48.0627C31 43.0758 35.0289 39.0259 40.0156 39L39.9844 33C31.6961 33.0432 25 39.7743 25 48.0627H31ZM40 13C32.8204 13 27 18.8202 27 25.9999H33C33 22.134 36.134 19 40 19V13ZM25 52C25 60.2843 31.7157 67 40 67V61C35.0294 61 31 56.9706 31 52H25ZM49 52C49 56.9706 44.9706 61 40 61V67C48.2843 67 55 60.2843 55 52L49 52Z" fill="currentColor" />
</svg>