<svg viewBox="0 0 80 80" fill="none">
  <path d="M67 19.5H51" stroke="currentColor" stroke-width="5" stroke-linecap="round" stroke-linejoin="round" />
  <path d="M61.4998 19.5C61.4998 18.1193 60.3805 17 58.9998 17C57.619 17 56.4998 18.1193 56.4998 19.5H61.4998ZM56.4998 49.9567C56.4998 51.3374 57.619 52.4567 58.9998 52.4567C60.3805 52.4567 61.4998 51.3374 61.4998 49.9567H56.4998ZM53.4565 58C54.8372 58 55.9565 56.8807 55.9565 55.5C55.9565 54.1193 54.8372 53 53.4565 53V58ZM24.543 53C23.1623 53 22.043 54.1193 22.043 55.5C22.043 56.8807 23.1623 58 24.543 58V53ZM56.4998 19.5V49.9567H61.4998V19.5H56.4998ZM53.4565 53H24.543V58H53.4565V53Z" fill="currentColor" />
  <path d="M16.8787 50.3787C18.2369 49.8161 19.7631 49.8161 21.1213 50.3787C22.4796 50.9413 23.5587 52.0204 24.1213 53.3787C24.6839 54.7369 24.6839 56.2631 24.1213 57.6213C23.5587 58.9796 22.4796 60.0587 21.1213 60.6213C19.7631 61.1839 18.2369 61.1839 16.8787 60.6213C15.5204 60.0587 14.4413 58.9796 13.8787 57.6213C13.3161 56.2631 13.3161 54.7369 13.8787 53.3787C14.4413 52.0204 15.5204 50.9413 16.8787 50.3787Z" fill="currentColor" stroke="currentColor" stroke-width="3" stroke-linecap="round" stroke-linejoin="round" />
  <path d="M56.8787 50.3787C58.2369 49.8161 59.7631 49.8161 61.1213 50.3787C62.4796 50.9413 63.5587 52.0204 64.1213 53.3787C64.6839 54.7369 64.6839 56.2631 64.1213 57.6213C63.5587 58.9796 62.4796 60.0587 61.1213 60.6213C59.7631 61.1839 58.2369 61.1839 56.8787 60.6213C55.5204 60.0587 54.4413 58.9796 53.8787 57.6213C53.3161 56.2631 53.3161 54.7369 53.8787 53.3787C54.4413 52.0204 55.5204 50.9413 56.8787 50.3787Z" fill="currentColor" stroke="currentColor" stroke-width="3" stroke-linecap="round" stroke-linejoin="round" />
  <path d="M29.2429 51.257L26.9332 52.2137L26.9332 52.2137L29.2429 51.257ZM27.5868 55.4994C27.5868 56.8801 28.7062 57.9993 30.0869 57.9993C31.4676 57.9992 32.5868 56.8799 32.5868 55.4992L27.5868 55.4994ZM23.2429 45.257L22.2862 47.5667L23.2429 45.257ZM14.0297 42.855C12.7447 43.3601 12.1125 44.8113 12.6177 46.0963C13.1228 47.3813 14.574 48.0134 15.859 47.5083L14.0297 42.855ZM26.9332 52.2137C27.3689 53.2656 27.5868 54.3824 27.5868 55.4994L32.5868 55.4992C32.5867 53.7321 32.242 51.9647 31.5526 50.3003L26.9332 52.2137ZM22.2862 47.5667C24.3901 48.4382 26.0617 50.1098 26.9332 52.2137L31.5526 50.3003C30.1736 46.9712 27.5287 44.3263 24.1996 42.9473L22.2862 47.5667ZM24.1996 42.9473C20.9466 41.5999 17.3007 41.5691 14.0297 42.855L15.859 47.5083C17.9261 46.6957 20.2303 46.7151 22.2862 47.5667L24.1996 42.9473Z" fill="currentColor" />
  <path fill-rule="evenodd" clip-rule="evenodd" d="M36.4035 37.6386L31.4963 37.6386C30.6937 37.6386 30.2181 36.7406 30.6692 36.0767L39.7344 22.7343C40.2878 21.9197 41.5615 22.3114 41.5615 23.2963V32.3606L46.4687 32.3606C47.2714 32.3606 47.7469 33.2586 47.2958 33.9226L38.2307 47.2649C37.6772 48.0795 36.4035 47.6878 36.4035 46.7029V37.6386Z" fill="currentColor" />
  <path d="M36.4035 37.6386H37.9035C37.9035 36.8102 37.2319 36.1386 36.4035 36.1386L36.4035 37.6386ZM31.4963 37.6386L31.4963 39.1386H31.4963L31.4963 37.6386ZM30.6692 36.0767L29.4285 35.2337H29.4285L30.6692 36.0767ZM39.7344 22.7343L40.9751 23.5773L40.9751 23.5773L39.7344 22.7343ZM41.5615 32.3606H40.0615C40.0615 33.189 40.7331 33.8606 41.5615 33.8606L41.5615 32.3606ZM46.4687 32.3606L46.4687 33.8606H46.4687V32.3606ZM47.2958 33.9226L46.0551 33.0796L46.0551 33.0796L47.2958 33.9226ZM38.2307 47.2649L36.9899 46.4219H36.9899L38.2307 47.2649ZM36.4035 36.1386L31.4963 36.1386L31.4963 39.1386L36.4035 39.1386L36.4035 36.1386ZM31.4963 36.1386C31.8977 36.1386 32.1355 36.5877 31.9099 36.9196L29.4285 35.2337C28.3007 36.8935 29.4896 39.1386 31.4963 39.1386L31.4963 36.1386ZM31.9099 36.9196L40.9751 23.5773L38.4936 21.8913L29.4285 35.2337L31.9099 36.9196ZM40.9751 23.5773C40.6983 23.9846 40.0615 23.7887 40.0615 23.2963H43.0615C43.0615 20.8341 39.8774 19.8547 38.4936 21.8913L40.9751 23.5773ZM40.0615 23.2963V32.3606H43.0615V23.2963H40.0615ZM41.5615 33.8606L46.4687 33.8606L46.4687 30.8606L41.5615 30.8606L41.5615 33.8606ZM46.4687 33.8606C46.0674 33.8606 45.8296 33.4115 46.0551 33.0796L48.5366 34.7655C49.6643 33.1057 48.4754 30.8606 46.4687 30.8606V33.8606ZM46.0551 33.0796L36.9899 46.4219L39.4714 48.1079L48.5366 34.7655L46.0551 33.0796ZM36.9899 46.4219C37.2667 46.0146 37.9035 46.2105 37.9035 46.7029H34.9035C34.9035 49.1651 38.0877 50.1445 39.4714 48.1079L36.9899 46.4219ZM37.9035 46.7029V37.6386H34.9035V46.7029H37.9035Z" fill="currentColor" />
</svg>