<svg viewBox="0 0 80 80" fill="none">
  <path fill-rule="evenodd" clip-rule="evenodd" d="M29.3601 24.3429C29.3319 24.3775 29.3039 24.4123 29.2761 24.4472C26.6733 27.711 25.6984 31.9824 26.6273 36.0523C27.5562 40.1222 30.2879 43.5476 34.049 45.3589C37.8102 47.1702 42.1914 47.1702 45.9526 45.3589C49.7137 43.5476 52.4454 40.1222 53.3743 36.0523C54.3032 31.9824 53.3283 27.711 50.7255 24.4472C50.6931 24.4066 50.6605 24.3661 50.6276 24.3259C47.2602 23.1312 43.6769 22.5 40.0178 22.5C36.3414 22.5 32.7415 23.1372 29.3601 24.3429ZM33.9148 29.4863C34.6051 28.2906 34.1954 26.7616 32.9997 26.0713C31.8039 25.381 30.275 25.7907 29.5846 26.9864C28.5469 28.7838 27.9737 30.8507 27.9737 32.9985C27.9737 37.2939 30.265 41.2631 33.9846 43.4113C35.1802 44.1018 36.7093 43.6923 37.3998 42.4967C38.0903 41.301 37.6808 39.772 36.4852 39.0815C34.3123 37.8266 32.9737 35.5078 32.9737 32.9985C32.9737 31.7436 33.3082 30.5371 33.9148 29.4863Z" fill="currentColor" />
  <path d="M56.5519 24.2586C58.6257 28.1853 59.254 32.7615 58.249 37.1649C56.9814 42.7183 53.2541 47.3923 48.122 49.8637C42.9899 52.3352 37.0117 52.3352 31.8796 49.8637C26.7475 47.3923 23.0202 42.7183 21.7526 37.1649C20.7495 32.7701 21.3734 28.203 23.4377 24.2814C19.5566 26.4291 16.0828 29.336 13.248 32.8907C11.5505 35.0194 10.1304 37.3197 9 39.7379C10.1302 42.1555 11.5501 44.4552 13.2472 46.5834C19.7434 54.7293 29.5955 59.4739 40.0146 59.4739C50.4337 59.4739 60.2858 54.7293 66.782 46.5833C68.4795 44.4547 69.8996 42.1544 71.03 39.7361C69.8997 37.3186 68.4799 35.0188 66.7828 32.8907C63.938 29.3235 60.4496 26.4085 56.5519 24.2586Z" fill="currentColor" />
</svg>