<svg viewBox="0 0 80 80" fill="none">
  <path d="M62 23C63.6569 23 65 21.6569 65 20C65 18.3431 63.6569 17 62 17V23ZM39 20V17C37.3431 17 36 18.3431 36 20H39ZM36 60C36 61.6569 37.3431 63 39 63C40.6569 63 42 61.6569 42 60H36ZM39 37C37.3431 37 36 38.3431 36 40C36 41.6569 37.3431 43 39 43L39 37ZM56.9688 43C58.6256 43 59.9688 41.6569 59.9688 40C59.9688 38.3431 58.6256 37 56.9688 37V43ZM62 17L39 17V23L62 23V17ZM36 20V20.4167H42V20H36ZM36 59.5833V60H42V59.5833H36ZM36 20.4167V40H42V20.4167H36ZM36 40L36 59.5833H42L42 40H36ZM39 43H56.9688V37H39L39 43Z" fill="currentColor" />
  <rect x="17" y="20" width="14" height="14" rx="7" stroke="currentColor" stroke-width="6" stroke-linecap="round" stroke-linejoin="round" />
</svg>