<svg viewBox="0 0 80 80" fill="none">
  <path fill-rule="evenodd" clip-rule="evenodd" d="M68 14C68 12.8954 67.1046 12 66 12H14C12.8954 12 12 12.8954 12 14V35.5C12 36.6046 12.8954 37.5 14 37.5H66C67.1046 37.5 68 36.6046 68 35.5V14ZM31 28.5C29.6193 28.5 28.5 27.3807 28.5 26V22C28.5 20.6193 29.6193 19.5 31 19.5C32.3807 19.5 33.5 20.6193 33.5 22C33.5 22.8284 34.1716 23.5 35 23.5H45C45.8284 23.5 46.5 22.8284 46.5 22C46.5 20.6193 47.6193 19.5 49 19.5C50.3807 19.5 51.5 20.6193 51.5 22V26C51.5 27.3807 50.3807 28.5 49 28.5H31Z" fill="currentColor" />
  <path fill-rule="evenodd" clip-rule="evenodd" d="M68 44.5C68 43.3954 67.1046 42.5 66 42.5H14C12.8954 42.5 12 43.3954 12 44.5V66C12 67.1046 12.8954 68 14 68H66C67.1046 68 68 67.1046 68 66V44.5ZM31 56.5C29.6193 56.5 28.5 55.3807 28.5 54V50C28.5 48.6193 29.6193 47.5 31 47.5C32.3807 47.5 33.5 48.6193 33.5 50C33.5 50.8284 34.1716 51.5 35 51.5H45C45.8284 51.5 46.5 50.8284 46.5 50C46.5 48.6193 47.6193 47.5 49 47.5C50.3807 47.5 51.5 48.6193 51.5 50V54C51.5 55.3807 50.3807 56.5 49 56.5H31Z" fill="currentColor" />
</svg>