<svg viewBox="0 0 80 80" fill="none">
  <path d="M16.1038 40.3093C17.2409 37.1254 20.2568 35 23.6378 35L68.324 35C71.0901 35 73.0213 37.7404 72.091 40.3453L64.9481 60.3453C64.3795 61.9373 62.8716 63 61.1811 63L10.838 63C9.45495 63 8.48935 61.6298 8.95453 60.3273L16.1038 40.3093Z" fill="currentColor" />
  <path fill-rule="evenodd" clip-rule="evenodd" d="M8 21C8 18.7909 9.79086 17 12 17H23.0318C24.322 17 25.533 17.6223 26.2841 18.6713L29.3835 23L29.7597 23.5254L30.1359 24.0508L30.4757 24.5254C30.689 24.8233 31.0329 25 31.3992 25H60C62.2091 25 64 26.7909 64 29V32H23.6378C18.989 32 14.8421 34.9224 13.2786 39.3003L8 54.0804V45V29V21ZM64 38V54.0804L62.1229 59.3363C61.9807 59.7343 61.6037 60 61.1811 60H12.257L18.929 41.3183C19.6397 39.3284 21.5247 38 23.6378 38H64Z" fill="currentColor" />
</svg>