<svg viewBox="0 0 80 80" fill="none">
  <path fill-rule="evenodd" clip-rule="evenodd" d="M6 24H38V29.7895C37.5611 30.1986 37.1732 30.6882 36.8564 31.2584C35.4502 33.7897 36.1329 36.6949 38 38.4369V40H30V68H6V24ZM22 30C24.2091 30 26 31.7909 26 34V35.5C26 37.7091 24.2091 39.5 22 39.5C19.7909 39.5 18 37.7091 18 35.5V34C18 31.7909 19.7909 30 22 30ZM22 40.5C24.2091 40.5 26 42.2909 26 44.5V47.5C26 49.7091 24.2091 51.5 22 51.5C19.7909 51.5 18 49.7091 18 47.5V44.5C18 42.2909 19.7909 40.5 22 40.5ZM22 52.5C24.2091 52.5 26 54.2909 26 56.5V58C26 60.2091 24.2091 62 22 62C19.7909 62 18 60.2091 18 58V56.5C18 54.2909 19.7909 52.5 22 52.5Z" fill="currentColor" />
  <path d="M38 24H40C40 22.8954 39.1046 22 38 22V24ZM6 24V22C4.89543 22 4 22.8954 4 24H6ZM38 29.7895L39.3636 31.2526C39.7695 30.8743 40 30.3444 40 29.7895H38ZM36.8564 31.2584L38.6047 32.2297V32.2297L36.8564 31.2584ZM38 38.4369H40C40 37.8824 39.7698 37.3528 39.3644 36.9746L38 38.4369ZM38 40V42C39.1046 42 40 41.1046 40 40H38ZM30 40V38C28.8954 38 28 38.8954 28 40H30ZM30 68V70C31.1046 70 32 69.1046 32 68H30ZM6 68H4C4 69.1046 4.89543 70 6 70V68ZM38 22H6V26H38V22ZM40 29.7895V24H36V29.7895H40ZM38.6047 32.2297C38.8201 31.8421 39.0783 31.5185 39.3636 31.2526L36.6364 28.3265C36.0439 28.8787 35.5263 29.5344 35.1081 30.2871L38.6047 32.2297ZM39.3644 36.9746C38.112 35.8061 37.6814 33.8917 38.6047 32.2297L35.1081 30.2871C33.2189 33.6877 34.1537 37.5836 36.6356 39.8993L39.3644 36.9746ZM40 40V38.4369H36V40H40ZM30 42H38V38H30V42ZM32 68V40H28V68H32ZM6 70H30V66H6V70ZM4 24V68H8V24H4ZM28 34C28 30.6863 25.3137 28 22 28V32C23.1046 32 24 32.8954 24 34H28ZM28 35.5V34H24V35.5H28ZM22 41.5C25.3137 41.5 28 38.8137 28 35.5H24C24 36.6046 23.1046 37.5 22 37.5V41.5ZM16 35.5C16 38.8137 18.6863 41.5 22 41.5V37.5C20.8954 37.5 20 36.6046 20 35.5H16ZM16 34V35.5H20V34H16ZM22 28C18.6863 28 16 30.6863 16 34H20C20 32.8954 20.8954 32 22 32V28ZM28 44.5C28 41.1863 25.3137 38.5 22 38.5V42.5C23.1046 42.5 24 43.3954 24 44.5H28ZM28 47.5V44.5H24V47.5H28ZM22 53.5C25.3137 53.5 28 50.8137 28 47.5H24C24 48.6046 23.1046 49.5 22 49.5V53.5ZM16 47.5C16 50.8137 18.6863 53.5 22 53.5V49.5C20.8954 49.5 20 48.6046 20 47.5H16ZM16 44.5V47.5H20V44.5H16ZM22 38.5C18.6863 38.5 16 41.1863 16 44.5H20C20 43.3954 20.8954 42.5 22 42.5V38.5ZM28 56.5C28 53.1863 25.3137 50.5 22 50.5V54.5C23.1046 54.5 24 55.3954 24 56.5H28ZM28 58V56.5H24V58H28ZM22 64C25.3137 64 28 61.3137 28 58H24C24 59.1046 23.1046 60 22 60V64ZM16 58C16 61.3137 18.6863 64 22 64V60C20.8954 60 20 59.1046 20 58H16ZM16 56.5V58H20V56.5H16ZM22 50.5C18.6863 50.5 16 53.1863 16 56.5H20C20 55.3954 20.8954 54.5 22 54.5V50.5Z" fill="currentColor" />
  <path d="M22 12L24 11.9995C23.9997 10.8951 23.1044 10 22 10C20.8956 10 20.0003 10.8951 20 11.9995L22 12ZM22.0031 23.9884L20.0031 23.9889C20.0033 24.8939 20.6113 25.686 21.4855 25.9203C22.3596 26.1545 23.2822 25.7725 23.7349 24.9889L22.0031 23.9884ZM21.9969 23.9884L20.2651 24.9889C20.7178 25.7725 21.6404 26.1545 22.5145 25.9203C23.3887 25.686 23.9967 24.8939 23.9969 23.9889L21.9969 23.9884ZM16 13.6077L17.7318 12.6072C17.1794 11.651 15.9564 11.3235 15 11.8756C14.0436 12.4278 13.7158 13.6507 14.2677 14.6072L16 13.6077ZM21.9915 23.9915L20.992 25.7238C21.7759 26.1761 22.7658 26.0457 23.4057 25.4057C24.0457 24.7658 24.1761 23.7759 23.7238 22.992L21.9915 23.9915ZM11.6077 18L12.6072 16.2677C11.6507 15.7158 10.4278 16.0436 9.87564 17C9.32346 17.9564 9.65098 19.1794 10.6072 19.7318L11.6077 18ZM21.9884 23.9969L21.9889 25.9969C22.8939 25.9967 23.686 25.3887 23.9203 24.5145C24.1545 23.6404 23.7725 22.7178 22.9889 22.2651L21.9884 23.9969ZM10 24L9.99948 22C8.89501 22.0003 7.99986 22.8958 8 24.0003C8.00014 25.1047 8.89553 26 10 26L10 24ZM34 24V26C35.1045 26 35.9999 25.1047 36 24.0003C36.0001 22.8958 35.105 22.0003 34.0005 22L34 24ZM22.0116 23.9969L21.0111 22.2651C20.2275 22.7178 19.8455 23.6404 20.0797 24.5145C20.314 25.3887 21.1061 25.9967 22.0111 25.9969L22.0116 23.9969ZM32.3923 18L33.3928 19.7318C34.349 19.1794 34.6765 17.9564 34.1244 17C33.5722 16.0436 32.3493 15.7158 31.3928 16.2677L32.3923 18ZM22.0085 23.9915L20.2762 22.992C19.8239 23.7759 19.9543 24.7658 20.5943 25.4057C21.2342 26.0457 22.2241 26.1761 23.008 25.7238L22.0085 23.9915ZM28 13.6077L29.7323 14.6072C30.2842 13.6507 29.9564 12.4278 29 11.8756C28.0436 11.3235 26.8206 11.651 26.2682 12.6072L28 13.6077ZM20 12.0005L20.0031 23.9889L24.0031 23.9879L24 11.9995L20 12.0005ZM23.9969 23.9889L24 12.0005L20 11.9995L19.9969 23.9879L23.9969 23.9889ZM14.2682 14.6081L20.2651 24.9889L23.7287 22.988L17.7318 12.6072L14.2682 14.6081ZM23.7238 22.992L17.7323 12.6081L14.2677 14.6072L20.2592 24.9911L23.7238 22.992ZM10.6081 19.7323L20.992 25.7238L22.9911 22.2592L12.6072 16.2677L10.6081 19.7323ZM22.9889 22.2651L12.6081 16.2682L10.6072 19.7318L20.988 25.7287L22.9889 22.2651ZM10.0005 26L21.9889 25.9969L21.9879 21.9969L9.99948 22L10.0005 26ZM10 26H34V22H10V26ZM22.0111 25.9969L33.9995 26L34.0005 22L22.0121 21.9969L22.0111 25.9969ZM31.3919 16.2682L21.0111 22.2651L23.012 25.7287L33.3928 19.7318L31.3919 16.2682ZM23.008 25.7238L33.3919 19.7323L31.3928 16.2677L21.0089 22.2592L23.008 25.7238ZM26.2677 12.6081L20.2762 22.992L23.7408 24.9911L29.7323 14.6072L26.2677 12.6081ZM23.7349 24.9889L29.7318 14.6081L26.2682 12.6072L20.2713 22.988L23.7349 24.9889Z" fill="currentColor" />
  <rect x="30" y="40" width="44" height="28" fill="currentColor" stroke="currentColor" stroke-width="4" stroke-linecap="round" stroke-linejoin="round" />
  <path d="M30 54H74" stroke="currentColor" stroke-width="4" stroke-linecap="round" stroke-linejoin="round" />
  <path d="M52 40V68" stroke="currentColor" stroke-width="4" stroke-linecap="round" stroke-linejoin="round" />
  <path d="M36.8564 31.2584C39.0983 27.2231 44.9017 27.2231 47.1436 31.2584L51.8168 39.6702C51.899 39.8182 51.792 40 51.6228 40V40H42C37.5135 40 34.6776 35.1803 36.8564 31.2584V31.2584Z" stroke="currentColor" stroke-width="4" stroke-linecap="round" stroke-linejoin="round" />
  <path d="M67.1436 31.2584C64.9017 27.2231 59.0983 27.2231 56.8564 31.2584L52.1832 39.6702C52.101 39.8182 52.208 40 52.3772 40V40H62C66.4865 40 69.3224 35.1803 67.1436 31.2584V31.2584Z" stroke="currentColor" stroke-width="4" stroke-linecap="round" stroke-linejoin="round" />
</svg>