<svg viewBox="0 0 80 80" fill="none">
  <path fill-rule="evenodd" clip-rule="evenodd" d="M56 24H24V68H56V24ZM42 34C42 32.8954 41.1046 32 40 32C38.8954 32 38 32.8954 38 34V35.5C38 36.6046 38.8954 37.5 40 37.5C41.1046 37.5 42 36.6046 42 35.5V34ZM42 44.5C42 43.3954 41.1046 42.5 40 42.5C38.8954 42.5 38 43.3954 38 44.5V47.5C38 48.6046 38.8954 49.5 40 49.5C41.1046 49.5 42 48.6046 42 47.5V44.5ZM42 56.5C42 55.3954 41.1046 54.5 40 54.5C38.8954 54.5 38 55.3954 38 56.5V58C38 59.1046 38.8954 60 40 60C41.1046 60 42 59.1046 42 58V56.5Z" fill="currentColor" />
  <path fill-rule="evenodd" clip-rule="evenodd" d="M40 10C41.1044 10 41.9997 10.8951 42 11.9995L42.0012 16.5315L44.2677 12.6081L44.2682 12.6072C44.8206 11.651 46.0436 11.3235 47 11.8756C47.9564 12.4278 48.2842 13.6507 47.7323 14.6072L45.4673 18.5327L49.3928 16.2677C50.3493 15.7158 51.5722 16.0436 52.1244 17C52.6765 17.9564 52.349 19.1794 51.3928 19.7318L47.4685 21.9988L56 22C57.1046 22 58 22.8954 58 24V68C58 69.1046 57.1046 70 56 70H24C22.8954 70 22 69.1046 22 68V24C22 22.8954 22.8954 22 24 22L32.5315 21.9988L28.6072 19.7318C27.651 19.1794 27.3235 17.9564 27.8756 17C28.4278 16.0436 29.6507 15.7158 30.6072 16.2677L34.5327 18.5327L32.2677 14.6072C31.7158 13.6507 32.0436 12.4278 33 11.8756C33.9564 11.3235 35.1794 11.651 35.7318 12.6072L37.9988 16.5315L38 11.9995C38.0003 10.8951 38.8956 10 40 10ZM26 26V66H54V26H26Z" fill="currentColor" />
</svg>