<svg viewBox="0 0 88 89" fill="none">
  <path d="M46.5165 73.6497C46.5165 72.2599 45.3899 71.1332 44.0001 71.1332C42.6103 71.1332 41.4837 72.2599 41.4837 73.6497H46.5165ZM60.1052 82.6457C61.495 82.6457 62.6216 81.5191 62.6216 80.1293C62.6216 78.7395 61.495 77.6129 60.1052 77.6129V82.6457ZM27.895 77.6129C26.5052 77.6129 25.3785 78.7395 25.3785 80.1293C25.3785 81.5191 26.5052 82.6457 27.895 82.6457L27.895 77.6129ZM46.5165 80.1293L46.5165 73.6497H41.4837V80.1293H46.5165ZM44.0001 82.6457L60.1052 82.6457V77.6129L44.0001 77.6129V82.6457ZM44.0001 77.6129L27.895 77.6129L27.895 82.6457L44.0001 82.6457L44.0001 77.6129Z" fill="currentColor" />
  <path d="M27.1512 66.7261L25.1079 65.2573L27.1512 66.7261ZM27.3908 68.1171L28.7896 66.0252L28.7896 66.0252L27.3908 68.1171ZM30.9051 61.504L32.3739 59.4607L30.3306 57.9919L28.8618 60.0352L30.9051 61.504ZM41.0195 65.5097L40.6911 68.0046L40.6911 68.0046L41.0195 65.5097ZM66.0606 46.2951L68.5555 46.6235L66.0606 46.2951ZM61.6394 29.7951L59.643 31.327L59.643 31.327L61.6394 29.7951ZM53.1132 23.0386L50.8195 22.0035L49.7844 24.2971L52.078 25.3323L53.1132 23.0386ZM55.7601 17.1734L58.0538 18.2086L55.7601 17.1734ZM57.0845 16.6855L55.9723 18.9428L57.0845 16.6855ZM67.5417 25.2642L69.5381 23.7323L69.5381 23.7323L67.5417 25.2642ZM73.4366 47.2642L70.9417 46.9358L70.9417 46.9358L73.4366 47.2642ZM62.0486 66.9889L60.5167 64.9925L60.5167 64.9925L62.0486 66.9889ZM40.0486 72.8838L40.377 70.3889L40.377 70.3889L40.0486 72.8838ZM25.1079 65.2573C23.9858 66.8183 24.3003 69.0777 25.992 70.2089L28.7896 66.0252C29.557 66.5384 29.6676 67.5367 29.1945 68.1949L25.1079 65.2573ZM28.8618 60.0352L25.1079 65.2573L29.1945 68.1949L32.9484 62.9728L28.8618 60.0352ZM41.348 63.0148C38.0798 62.5846 35.0029 61.3505 32.3739 59.4607L29.4363 63.5473C32.7331 65.9171 36.5921 67.465 40.6911 68.0046L41.348 63.0148ZM55.9876 59.0922C51.821 62.2893 46.555 63.7004 41.348 63.0148L40.6911 68.0046C47.2214 68.8644 53.8259 67.0947 59.0514 63.085L55.9876 59.0922ZM63.5657 45.9666C62.8802 51.1736 60.1543 55.895 55.9876 59.0922L59.0514 63.085C64.277 59.0753 67.6957 53.1539 68.5555 46.6235L63.5657 45.9666ZM59.643 31.327C62.8402 35.4936 64.2512 40.7596 63.5657 45.9666L68.5555 46.6235C69.4152 40.0932 67.6456 33.4888 63.6358 28.2632L59.643 31.327ZM52.078 25.3323C55.0291 26.6641 57.6363 28.7118 59.643 31.327L63.6358 28.2632C61.119 24.9832 57.849 22.4151 54.1483 20.745L52.078 25.3323ZM53.4664 16.1383L50.8195 22.0035L55.4068 24.0737L58.0538 18.2086L53.4664 16.1383ZM58.1967 14.4282C56.3711 13.5287 54.2572 14.386 53.4664 16.1383L58.0538 18.2086C57.7203 18.9474 56.8005 19.3508 55.9723 18.9428L58.1967 14.4282ZM69.5381 23.7323C66.4933 19.7641 62.6001 16.5977 58.1967 14.4282L55.9723 18.9428C59.6894 20.7742 62.9753 23.4468 65.5453 26.7961L69.5381 23.7323ZM75.9315 47.5927C77.0488 39.1061 74.749 30.5233 69.5381 23.7323L65.5453 26.7961C69.9436 32.5281 71.8848 39.7726 70.9417 46.9358L75.9315 47.5927ZM63.5805 68.9853C70.3714 63.7744 74.8142 56.0793 75.9315 47.5927L70.9417 46.9358C69.9987 54.099 66.2487 60.5941 60.5167 64.9925L63.5805 68.9853ZM39.7201 75.3786C48.2067 76.4959 56.7895 74.1962 63.5805 68.9853L60.5167 64.9925C54.7847 69.3908 47.5402 71.3319 40.377 70.3889L39.7201 75.3786ZM25.992 70.2089C30.0725 72.9375 34.7612 74.7258 39.7201 75.3787L40.377 70.3889C36.1915 69.8378 32.2341 68.3285 28.7896 66.0252L25.992 70.2089Z" fill="currentColor" />
  <path d="M46.9132 21.3247C52.7819 22.0973 58.1033 25.1696 61.7067 29.8657V29.8657C65.3101 34.5618 66.9005 40.497 66.1279 46.3657V46.3657C65.3552 52.2344 62.2829 57.5557 57.5868 61.1592V61.1592C52.8907 64.7626 46.9555 66.353 41.0868 65.5803V65.5803C35.2182 64.8077 29.8968 61.7354 26.2933 57.0393V57.0393C22.6899 52.3432 21.0996 46.408 21.8722 40.5393V40.5393C22.6448 34.6706 25.7171 29.3493 30.4132 25.7458V25.7458C35.1093 22.1424 41.0445 20.552 46.9132 21.3247V21.3247Z" stroke="currentColor" stroke-width="5" stroke-linecap="round" stroke-linejoin="round" />
  <path fill-rule="evenodd" clip-rule="evenodd" d="M34.1852 30.3102C34.6353 30.6369 35.2067 30.7484 35.7467 30.6147L36.4653 30.4368C37.3591 30.2156 38.3042 30.3577 39.0934 30.832L39.1191 30.8475L39.6216 33.4119L40.8222 33.9674L41.4542 34.2598C41.8216 34.4299 42.2369 34.4663 42.6284 34.363C43.0378 34.2548 43.4727 34.2999 43.8513 34.4896L44.8275 34.9787L45.1788 36.6656C45.3852 37.6573 44.7757 38.6362 43.7946 38.8883C43.2927 39.0173 42.76 38.9353 42.3202 38.6613L40.9262 37.793C40.7426 37.6787 40.5105 37.6767 40.325 37.7878C40.0841 37.9322 39.7741 37.8819 39.5912 37.6687L37.7514 35.5246C37.5712 35.3147 37.5257 35.0208 37.6339 34.7662C37.7813 34.4192 37.6393 34.0171 37.3067 33.8397L35.0466 32.6337C34.9071 32.5593 34.8106 32.4238 34.7859 32.2677C34.7354 31.9483 34.4017 31.7584 34.1013 31.8781L31.9423 32.7383C31.5294 32.9028 31.1714 33.1804 30.9093 33.5393L29.734 35.1485C28.6952 36.5709 28.3594 38.3885 28.8214 40.0882L29.1088 41.1454C29.3195 41.9203 29.8234 42.5829 30.514 42.9928C31.9508 43.8458 32.4498 45.6862 31.6408 47.1482L31.0408 48.2325C30.6879 48.8702 30.6416 49.633 30.9147 50.3087C31.1834 50.9736 31.143 51.7235 30.8045 52.3556L29.4673 54.8525C29.2235 55.3076 29.1234 55.8259 29.18 56.339C29.2671 57.1281 29.7225 57.8358 30.4013 58.2474C31.0178 58.6212 31.7681 58.724 32.461 58.5248L33.7124 58.1649C35.0897 57.7689 36.2609 56.8562 36.9815 55.6175L38.8857 52.3438C39.452 51.3704 40.3776 50.658 41.4636 50.3598L42.5273 50.0677C43.3357 49.8458 43.9665 49.213 44.1859 48.404C44.2932 48.0085 44.296 47.592 44.1941 47.1951L42.9093 42.1919C42.8165 41.8305 43.0757 41.4739 43.4482 41.4506C43.7348 41.4327 43.9932 41.6222 44.0623 41.9009L44.7131 44.5245C44.9008 45.2808 45.373 45.9356 46.0314 46.3525L46.528 46.6669C46.9216 46.9161 47.4011 46.9903 47.8516 46.8718C48.7529 46.6346 49.2878 45.7079 49.0424 44.8088L48.3258 42.1838C48.27 41.9795 48.3594 41.7632 48.5432 41.6579C48.8059 41.5072 49.1403 41.644 49.2222 41.9356L49.5556 43.1219C49.6554 43.4773 49.8893 43.7801 50.2079 43.9666L50.8726 44.3557C51.8604 44.9339 52.4826 45.9785 52.5204 47.1225L52.6361 50.6261C52.6408 50.7693 52.7075 50.9034 52.8188 50.9935C53.0117 51.1498 53.2907 51.1386 53.4704 50.9672L54.6261 49.8654C54.8239 49.6768 55.0536 49.5248 55.3045 49.4165L55.8883 49.1645C57.4226 48.5022 59.1451 49.5801 59.2202 51.2495L59.2491 51.8906C59.2788 52.5509 59.7336 53.1155 60.3724 53.2852C61.08 53.4732 61.8206 53.1277 62.1313 52.4648L62.2578 52.1948C62.5478 51.576 63.1522 51.1647 63.8342 51.1219L64.4507 51.0833C64.6462 51.071 64.8373 51.0335 65.0198 50.973C65.5505 49.4911 65.9268 47.9462 66.1355 46.3614C66.9081 40.4928 65.3178 34.5575 61.7143 29.8614C61.5731 29.6774 61.4292 29.4958 61.2827 29.3167C60.7192 29.2036 60.1276 29.2539 59.5811 29.4732L59.1816 29.6334C58.0853 30.0731 56.8481 29.9875 55.8228 29.401L53.149 27.8713C52.2554 27.3601 51.5917 26.5257 51.2946 25.54L51.2559 25.4117C51.01 24.5958 50.4865 23.8916 49.7761 23.4209C48.9151 22.8505 47.8528 22.6712 46.8523 22.9275L45.1569 23.3618C44.812 23.4501 44.545 23.7232 44.4646 24.07C44.3081 24.7441 44.8991 25.3551 45.578 25.2213L47.1528 24.9109C47.5017 24.8421 47.8381 25.0761 47.8951 25.4271C47.9456 25.7381 47.7582 26.0384 47.4567 26.1297L45.9833 26.576C45.7418 26.6492 45.5317 26.8009 45.3863 27.0071C45.0544 27.478 44.4217 27.6244 43.9166 27.3472L42.5795 26.6132C41.9818 26.2851 41.286 26.1831 40.6193 26.3259L38.3401 26.814L38.9924 24.3966C39.2551 23.4232 38.8983 22.4771 38.2174 21.8936C36.9033 22.2466 35.6215 22.7198 34.3888 23.3085C34.3966 23.95 34.7213 24.5755 35.31 24.9397L38.3401 26.814L36.4892 28.1017C36.0758 28.3894 35.5613 28.4919 35.0692 28.3849L34.3266 28.2233C33.8809 28.1264 33.4311 28.3688 33.267 28.7943C33.116 29.1856 33.2472 29.6295 33.5866 29.8758L34.1852 30.3102ZM61.0894 57.813C60.3228 58.7246 59.4807 59.5778 58.5688 60.3628C58.2864 59.9293 58.1211 59.4254 58.0955 58.9008L57.9773 56.4764C57.9327 55.5629 58.824 54.8926 59.6893 55.1891C60.0734 55.3207 60.3735 55.625 60.4998 56.0109L61.0894 57.813ZM44.8275 34.9787L45.6488 34.4058C46.4668 33.8352 47.5289 33.7501 48.4273 34.1833L48.947 34.4338C49.4978 34.6994 49.869 35.2345 49.9248 35.8435L49.9748 36.3895C50.0261 36.9493 49.6538 37.46 49.1052 37.5825C48.6336 37.6878 48.1477 37.4781 47.9008 37.0626L47.6284 36.6044C47.4334 36.2763 47.1418 36.0164 46.7935 35.8602L44.8275 34.9787ZM39.3553 57.3587C38.892 57.0913 38.7487 56.4894 39.0418 56.0419L39.4566 55.4085C39.6383 55.131 39.8996 54.9149 40.2062 54.7884L40.6545 54.6034C40.8743 54.5127 41.1231 54.5239 41.3338 54.6342C41.748 54.8508 41.8907 55.3738 41.6441 55.7709L41.0544 56.7201C40.9265 56.9259 40.7491 57.0964 40.5383 57.216L40.2804 57.3623C39.9932 57.5252 39.6412 57.5238 39.3553 57.3587Z" fill="currentColor" />
  <path d="M35.7467 30.6147L35.8676 31.1032L35.8676 31.1032L35.7467 30.6147ZM34.1852 30.3102L33.8895 30.7175L33.8895 30.7175L34.1852 30.3102ZM36.4653 30.4368L36.3444 29.9483L36.4653 30.4368ZM39.0934 30.832L38.8341 31.2634L38.8341 31.2634L39.0934 30.832ZM39.1191 30.8475L39.613 30.7507C39.5856 30.611 39.5004 30.4895 39.3784 30.4161L39.1191 30.8475ZM39.6216 33.4119L39.1277 33.5087C39.1588 33.6671 39.2638 33.8009 39.4103 33.8687L39.6216 33.4119ZM40.8222 33.9674L41.0335 33.5107L41.0335 33.5107L40.8222 33.9674ZM41.4542 34.2598L41.2428 34.7166L41.2428 34.7166L41.4542 34.2598ZM42.6284 34.363L42.7569 34.8496L42.7569 34.8496L42.6284 34.363ZM43.8513 34.4896L43.6259 34.9395L43.8513 34.4896ZM45.1788 36.6656L45.6715 36.563L45.1788 36.6656ZM43.7946 38.8883L43.6693 38.4009L43.7946 38.8883ZM42.3202 38.6613L42.5863 38.2341L42.5863 38.2341L42.3202 38.6613ZM40.9262 37.793L40.6601 38.2202L40.6601 38.2202L40.9262 37.793ZM40.325 37.7878L40.0663 37.3561L40.0663 37.3561L40.325 37.7878ZM39.5912 37.6687L39.2092 37.9965L39.5912 37.6687ZM37.7514 35.5246L37.3694 35.8523L37.3694 35.8523L37.7514 35.5246ZM37.6339 34.7662L38.0971 34.963L37.6339 34.7662ZM37.3067 33.8397L37.0698 34.2837L37.0698 34.2837L37.3067 33.8397ZM35.0466 32.6337L34.8096 33.0777L34.8096 33.0777L35.0466 32.6337ZM34.7859 32.2677L35.283 32.189L35.283 32.189L34.7859 32.2677ZM34.1013 31.8781L33.915 31.4105L34.1013 31.8781ZM31.9423 32.7383L32.1286 33.2058L31.9423 32.7383ZM30.9093 33.5393L31.3157 33.8361L30.9093 33.5393ZM29.734 35.1485L29.3276 34.8517L29.734 35.1485ZM28.8214 40.0882L29.3071 39.9561L29.3071 39.9561L28.8214 40.0882ZM29.1088 41.1454L28.6232 41.2774L28.6232 41.2774L29.1088 41.1454ZM30.514 42.9928L30.7709 42.5601L30.514 42.9928ZM31.6408 47.1482L32.0812 47.3919L31.6408 47.1482ZM31.0408 48.2325L30.6004 47.9888L31.0408 48.2325ZM30.9147 50.3087L30.4481 50.4973L30.4481 50.4973L30.9147 50.3087ZM30.8045 52.3556L30.3608 52.118L30.8045 52.3556ZM29.4673 54.8525L29.0236 54.6149L29.4673 54.8525ZM29.18 56.339L28.6798 56.3942L29.18 56.339ZM30.4013 58.2474L30.1403 58.6778L30.1403 58.6778L30.4013 58.2474ZM32.461 58.5248L32.3219 58.0411L32.461 58.5248ZM33.7124 58.1649L33.8515 58.6486L33.8515 58.6486L33.7124 58.1649ZM36.9815 55.6175L36.5464 55.3644L36.5464 55.3644L36.9815 55.6175ZM38.8857 52.3438L38.4507 52.0908L38.8857 52.3438ZM41.4636 50.3598L41.5969 50.8451L41.4636 50.3598ZM42.5273 50.0677L42.3941 49.5824L42.5273 50.0677ZM44.1859 48.404L43.7002 48.2723L43.7002 48.2723L44.1859 48.404ZM44.1941 47.1951L44.6815 47.0699L44.1941 47.1951ZM42.9093 42.1919L43.3968 42.0667L42.9093 42.1919ZM43.4482 41.4506L43.4795 41.9529L43.4795 41.9529L43.4482 41.4506ZM44.0623 41.9009L44.5508 41.7797L44.0623 41.9009ZM44.7131 44.5245L45.2016 44.4033L44.7131 44.5245ZM46.0314 46.3525L46.3006 45.9273L46.0314 46.3525ZM46.528 46.6669L46.2588 47.0922L46.2588 47.0922L46.528 46.6669ZM47.8516 46.8718L47.9797 47.3585L47.8516 46.8718ZM49.0424 44.8088L49.5279 44.6762L49.0424 44.8088ZM48.3258 42.1838L48.8113 42.0513L48.8113 42.0513L48.3258 42.1838ZM48.5432 41.6579L48.2929 41.2212L48.2929 41.2212L48.5432 41.6579ZM49.2222 41.9356L48.7377 42.0717L48.7377 42.0717L49.2222 41.9356ZM49.5556 43.1219L49.071 43.258L49.5556 43.1219ZM50.2079 43.9666L50.4621 43.5323L50.4621 43.5323L50.2079 43.9666ZM50.8726 44.3557L50.6183 44.79L50.8726 44.3557ZM52.5204 47.1225L52.0173 47.1391L52.5204 47.1225ZM52.6361 50.6261L53.1391 50.6095L53.1391 50.6095L52.6361 50.6261ZM52.8188 50.9935L52.5019 51.3846L52.8188 50.9935ZM53.4704 50.9672L53.8176 51.3315L53.8176 51.3315L53.4704 50.9672ZM54.6261 49.8654L54.9734 50.2297L54.9734 50.2297L54.6261 49.8654ZM55.3045 49.4165L55.105 48.9544L55.3045 49.4165ZM55.8883 49.1645L55.6888 48.7024L55.8883 49.1645ZM59.2202 51.2495L59.723 51.2269L59.2202 51.2495ZM59.2491 51.8906L58.7463 51.9133L58.7463 51.9133L59.2491 51.8906ZM60.3724 53.2852L60.5016 52.7988L60.3724 53.2852ZM62.1313 52.4648L61.6756 52.2512L61.6756 52.2512L62.1313 52.4648ZM62.2578 52.1948L61.8021 51.9813L62.2578 52.1948ZM63.8342 51.1219L63.8657 51.6242L63.8342 51.1219ZM64.4507 51.0833L64.4193 50.581L64.4507 51.0833ZM65.0198 50.973L65.1784 51.4506C65.3252 51.4019 65.4414 51.2883 65.4936 51.1426L65.0198 50.973ZM66.1355 46.3614L65.6365 46.2957L66.1355 46.3614ZM61.7143 29.8614L61.315 30.1678L61.315 30.1678L61.7143 29.8614ZM61.2827 29.3167L61.6723 28.9981C61.5986 28.908 61.4959 28.8462 61.3818 28.8233L61.2827 29.3167ZM59.5811 29.4732L59.7684 29.9403L59.5811 29.4732ZM59.1816 29.6334L58.9942 29.1663L58.9942 29.1663L59.1816 29.6334ZM55.8228 29.401L55.5728 29.8378L55.8228 29.401ZM53.149 27.8713L53.3989 27.4345L53.149 27.8713ZM51.2946 25.54L50.8127 25.6852L50.8127 25.6852L51.2946 25.54ZM51.2559 25.4117L51.7378 25.2665L51.7378 25.2665L51.2559 25.4117ZM49.7761 23.4209L49.4982 23.8405L49.7761 23.4209ZM46.8523 22.9275L46.9772 23.415L46.8523 22.9275ZM45.1569 23.3618L45.032 22.8742L45.1569 23.3618ZM44.4646 24.07L43.9743 23.9562L43.9743 23.9562L44.4646 24.07ZM45.578 25.2213L45.6753 25.7151L45.6753 25.7151L45.578 25.2213ZM47.1528 24.9109L47.2501 25.4047L47.2501 25.4047L47.1528 24.9109ZM47.8951 25.4271L47.3983 25.5078L47.3983 25.5078L47.8951 25.4271ZM47.4567 26.1297L47.6026 26.6114L47.6026 26.6114L47.4567 26.1297ZM45.9833 26.576L45.8374 26.0944L45.8374 26.0944L45.9833 26.576ZM45.3863 27.0071L44.975 26.7172L44.975 26.7172L45.3863 27.0071ZM43.9166 27.3472L43.6744 27.7884L43.9166 27.3472ZM42.5795 26.6132L42.3373 27.0544L42.5795 26.6132ZM40.6193 26.3259L40.7247 26.818L40.6193 26.3259ZM38.9924 24.3966L39.4783 24.5277L38.9924 24.3966ZM38.2174 21.8936L38.5449 21.5115C38.4187 21.4034 38.2473 21.3645 38.0868 21.4076L38.2174 21.8936ZM34.3888 23.3085L34.1719 22.8544C33.9949 22.9389 33.8831 23.1185 33.8855 23.3147L34.3888 23.3085ZM35.31 24.9397L35.0453 25.3677L35.0453 25.3677L35.31 24.9397ZM36.4892 28.1017L36.7767 28.5149L36.7767 28.5149L36.4892 28.1017ZM35.0692 28.3849L35.1762 27.8931L35.1762 27.8931L35.0692 28.3849ZM34.3266 28.2233L34.2196 28.7151L34.3266 28.2233ZM33.267 28.7943L32.7974 28.6132L33.267 28.7943ZM33.5866 29.8758L33.8823 29.4685L33.8823 29.4685L33.5866 29.8758ZM61.0894 57.813L61.4745 58.1369C61.5866 58.0037 61.6218 57.822 61.5677 57.6565L61.0894 57.813ZM58.5688 60.3628L58.1472 60.6375C58.2264 60.7591 58.3543 60.8406 58.498 60.861C58.6417 60.8815 58.7872 60.8389 58.8972 60.7442L58.5688 60.3628ZM58.0955 58.9008L57.5928 58.9253L57.5928 58.9253L58.0955 58.9008ZM57.9773 56.4764L58.48 56.4518L57.9773 56.4764ZM59.6893 55.1891L59.8524 54.713L59.6893 55.1891ZM60.4998 56.0109L60.9781 55.8544L60.9781 55.8544L60.4998 56.0109ZM45.6488 34.4058L45.9367 34.8185L45.9367 34.8185L45.6488 34.4058ZM48.4273 34.1833L48.6459 33.7299L48.4273 34.1833ZM48.947 34.4338L49.1656 33.9805L48.947 34.4338ZM49.9248 35.8435L49.4236 35.8894L49.9248 35.8435ZM49.9748 36.3895L50.476 36.3436L50.476 36.3436L49.9748 36.3895ZM49.1052 37.5825L49.2149 38.0737L49.1052 37.5825ZM47.9008 37.0626L48.3334 36.8055L47.9008 37.0626ZM47.6284 36.6044L47.1958 36.8616L47.1958 36.8616L47.6284 36.6044ZM46.7935 35.8602L46.9994 35.4009L46.7935 35.8602ZM39.0418 56.0419L39.4628 56.3176L39.4628 56.3176L39.0418 56.0419ZM39.4566 55.4085L39.8776 55.6842L39.4566 55.4085ZM40.2062 54.7884L40.0142 54.3231L40.2062 54.7884ZM40.6545 54.6034L40.4625 54.1382L40.4625 54.1382L40.6545 54.6034ZM41.3338 54.6342L41.5671 54.1882L41.3338 54.6342ZM41.6441 55.7709L42.0716 56.0364L42.0716 56.0364L41.6441 55.7709ZM41.0544 56.7201L40.6269 56.4545L41.0544 56.7201ZM40.5383 57.216L40.29 56.7782L40.29 56.7782L40.5383 57.216ZM40.2804 57.3623L40.5287 57.8L40.5287 57.8L40.2804 57.3623ZM39.1361 33.5446C39.2094 33.8127 39.4861 33.9707 39.7543 33.8974C40.0224 33.8241 40.1804 33.5474 40.1071 33.2793L39.1361 33.5446ZM39.6158 30.7662C39.5709 30.4919 39.3121 30.3059 39.0378 30.3508C38.7635 30.3957 38.5775 30.6545 38.6224 30.9288L39.6158 30.7662ZM35.6257 30.1262C35.2298 30.2242 34.8109 30.1425 34.4808 29.9029L33.8895 30.7175C34.4598 31.1314 35.1836 31.2726 35.8676 31.1032L35.6257 30.1262ZM36.3444 29.9483L35.6257 30.1262L35.8676 31.1032L36.5862 30.9254L36.3444 29.9483ZM39.3526 30.4007C38.4493 29.8577 37.3675 29.695 36.3444 29.9483L36.5862 30.9254C37.3507 30.7361 38.1591 30.8577 38.8341 31.2634L39.3526 30.4007ZM39.3784 30.4161L39.3526 30.4007L38.8341 31.2634L38.8598 31.2789L39.3784 30.4161ZM40.1155 33.3151L39.613 30.7507L38.6252 30.9443L39.1277 33.5087L40.1155 33.3151ZM41.0335 33.5107L39.833 32.9552L39.4103 33.8687L40.6108 34.4242L41.0335 33.5107ZM41.6655 33.8031L41.0335 33.5107L40.6108 34.4242L41.2428 34.7166L41.6655 33.8031ZM42.4999 33.8764C42.2217 33.9498 41.9266 33.9239 41.6655 33.8031L41.2428 34.7166C41.7166 34.9358 42.2521 34.9829 42.7569 34.8496L42.4999 33.8764ZM44.0768 34.0396C43.5886 33.795 43.0279 33.7369 42.4999 33.8764L42.7569 34.8496C43.0478 34.7727 43.3568 34.8047 43.6259 34.9395L44.0768 34.0396ZM45.053 34.5287L44.0768 34.0396L43.6259 34.9395L44.6021 35.4286L45.053 34.5287ZM45.6715 36.563L45.3202 34.8761L44.3348 35.0813L44.686 36.7682L45.6715 36.563ZM43.9198 39.3758C45.1614 39.0567 45.9328 37.818 45.6715 36.563L44.686 36.7682C44.8377 37.4966 44.3899 38.2157 43.6693 38.4009L43.9198 39.3758ZM42.0541 39.0885C42.6107 39.4352 43.2848 39.539 43.9198 39.3758L43.6693 38.4009C43.3007 38.4956 42.9094 38.4354 42.5863 38.2341L42.0541 39.0885ZM40.6601 38.2202L42.0541 39.0885L42.5863 38.2341L41.1923 37.3658L40.6601 38.2202ZM40.5838 38.2195C40.6073 38.2054 40.6368 38.2057 40.6601 38.2202L41.1923 37.3658C40.8485 37.1517 40.4138 37.1479 40.0663 37.3561L40.5838 38.2195ZM39.2092 37.9965C39.5519 38.3958 40.1324 38.49 40.5838 38.2195L40.0663 37.3561C40.0357 37.3745 39.9964 37.3681 39.9731 37.341L39.2092 37.9965ZM37.3694 35.8523L39.2092 37.9965L39.9731 37.341L38.1333 35.1968L37.3694 35.8523ZM37.1707 34.5694C36.9877 35 37.0647 35.4972 37.3694 35.8523L38.1333 35.1968C38.0778 35.1321 38.0637 35.0415 38.0971 34.963L37.1707 34.5694ZM37.0698 34.2837C37.1724 34.3384 37.2161 34.4624 37.1707 34.5694L38.0971 34.963C38.3465 34.3761 38.1063 33.6958 37.5436 33.3956L37.0698 34.2837ZM34.8096 33.0777L37.0698 34.2837L37.5436 33.3956L35.2835 32.1897L34.8096 33.0777ZM34.2888 32.3463C34.3382 32.6583 34.531 32.9291 34.8096 33.0777L35.2835 32.1897L35.283 32.189L34.2888 32.3463ZM34.2876 32.3456C34.2889 32.3451 34.2892 32.3451 34.2888 32.3452C34.2884 32.3452 34.288 32.3452 34.2876 32.3452C34.287 32.3452 34.2874 32.3451 34.2884 32.3456C34.2894 32.3462 34.2895 32.3466 34.2892 32.3461C34.2889 32.3458 34.2887 32.3454 34.2886 32.3451C34.2884 32.3447 34.2886 32.345 34.2888 32.3463L35.283 32.189C35.1821 31.551 34.5152 31.1714 33.915 31.4105L34.2876 32.3456ZM32.1286 33.2058L34.2876 32.3456L33.915 31.4105L31.756 32.2708L32.1286 33.2058ZM31.3157 33.8361C31.522 33.5537 31.8037 33.3353 32.1286 33.2058L31.756 32.2708C31.2552 32.4703 30.8208 32.8071 30.5029 33.2425L31.3157 33.8361ZM30.1404 35.4454L31.3157 33.8361L30.5029 33.2425L29.3276 34.8517L30.1404 35.4454ZM29.3071 39.9561C28.8852 38.404 29.1918 36.7443 30.1404 35.4454L29.3276 34.8517C28.1985 36.3976 27.8336 38.3729 28.3358 40.2202L29.3071 39.9561ZM29.5945 41.0134L29.3071 39.9561L28.3358 40.2202L28.6232 41.2774L29.5945 41.0134ZM30.7709 42.5601C30.1928 42.2169 29.7709 41.6622 29.5945 41.0134L28.6232 41.2774C28.8681 42.1785 29.4541 42.9489 30.257 43.4256L30.7709 42.5601ZM32.0812 47.3919C33.0219 45.6918 32.4416 43.5519 30.7709 42.5601L30.257 43.4256C31.46 44.1398 31.8778 45.6805 31.2004 46.9045L32.0812 47.3919ZM31.4811 48.4762L32.0812 47.3919L31.2004 46.9045L30.6004 47.9888L31.4811 48.4762ZM31.3813 50.1201C31.1651 49.5851 31.2017 48.9811 31.4811 48.4762L30.6004 47.9888C30.1741 48.7593 30.1181 49.6809 30.4481 50.4973L31.3813 50.1201ZM31.2481 52.5932C31.6572 51.8294 31.706 50.9234 31.3813 50.1201L30.4481 50.4973C30.6608 51.0237 30.6289 51.6175 30.3608 52.118L31.2481 52.5932ZM29.9109 55.0901L31.2481 52.5932L30.3608 52.118L29.0236 54.6149L29.9109 55.0901ZM29.6803 56.2838C29.6348 55.8717 29.7152 55.4556 29.9109 55.0901L29.0236 54.6149C28.7319 55.1597 28.612 55.78 28.6798 56.3942L29.6803 56.2838ZM30.6623 57.8171C30.1158 57.4857 29.75 56.9159 29.6803 56.2838L28.6798 56.3942C28.7842 57.3403 29.3292 58.1859 30.1403 58.6778L30.6623 57.8171ZM32.3219 58.0411C31.7653 58.2011 31.1598 58.1188 30.6622 57.8171L30.1403 58.6778C30.8757 59.1237 31.7709 59.2469 32.6001 59.0085L32.3219 58.0411ZM33.5733 57.6812L32.3219 58.0411L32.6001 59.0085L33.8515 58.6486L33.5733 57.6812ZM36.5464 55.3644C35.8911 56.491 34.8259 57.3211 33.5733 57.6812L33.8515 58.6486C35.3535 58.2167 36.6307 57.2214 37.4165 55.8705L36.5464 55.3644ZM38.4507 52.0908L36.5464 55.3644L37.4165 55.8705L39.3207 52.5969L38.4507 52.0908ZM41.3304 49.8745C40.1172 50.2075 39.0832 51.0033 38.4507 52.0908L39.3207 52.5969C39.8207 51.7374 40.638 51.1084 41.5969 50.8451L41.3304 49.8745ZM42.3941 49.5824L41.3304 49.8745L41.5969 50.8451L42.6606 50.553L42.3941 49.5824ZM43.7002 48.2723C43.5274 48.9093 43.0306 49.4076 42.3941 49.5824L42.6606 50.553C43.6407 50.2839 44.4056 49.5167 44.6716 48.5357L43.7002 48.2723ZM43.7066 47.3203C43.7868 47.6328 43.7846 47.9608 43.7002 48.2723L44.6716 48.5357C44.8017 48.0562 44.8051 47.5512 44.6815 47.0699L43.7066 47.3203ZM42.4219 42.3171L43.7066 47.3203L44.6815 47.0699L43.3968 42.0667L42.4219 42.3171ZM43.4168 40.9483C42.7291 40.9913 42.2505 41.6497 42.4219 42.3171L43.3968 42.0667C43.3826 42.0112 43.4224 41.9565 43.4795 41.9529L43.4168 40.9483ZM44.5508 41.7797C44.4231 41.2651 43.946 40.9153 43.4168 40.9483L43.4795 41.9529C43.5235 41.9502 43.5632 41.9793 43.5738 42.0221L44.5508 41.7797ZM45.2016 44.4033L44.5508 41.7797L43.5738 42.0221L44.2246 44.6456L45.2016 44.4033ZM46.3006 45.9273C45.7517 45.5797 45.358 45.0338 45.2016 44.4033L44.2246 44.6456C44.4435 45.5278 44.9942 46.2915 45.7621 46.7777L46.3006 45.9273ZM46.7972 46.2417L46.3006 45.9273L45.7621 46.7777L46.2588 47.0922L46.7972 46.2417ZM47.7235 46.3851C47.4082 46.468 47.0727 46.4161 46.7972 46.2417L46.2588 47.0922C46.7705 47.4161 47.394 47.5126 47.9797 47.3585L47.7235 46.3851ZM48.5569 44.9413C48.7286 45.5705 48.3543 46.2191 47.7235 46.3851L47.9797 47.3585C49.1516 47.0501 49.847 45.8452 49.5279 44.6762L48.5569 44.9413ZM47.8403 42.3164L48.5569 44.9413L49.5279 44.6762L48.8113 42.0513L47.8403 42.3164ZM48.2929 41.2212C47.9102 41.4406 47.7241 41.8909 47.8403 42.3164L48.8113 42.0513C48.8159 42.0681 48.8086 42.0858 48.7935 42.0945L48.2929 41.2212ZM49.7068 41.7994C49.5362 41.1923 48.84 40.9076 48.2929 41.2212L48.7935 42.0945C48.7719 42.1069 48.7444 42.0956 48.7377 42.0717L49.7068 41.7994ZM50.0401 42.9858L49.7068 41.7994L48.7377 42.0717L49.071 43.258L50.0401 42.9858ZM50.4621 43.5323C50.256 43.4116 50.1047 43.2157 50.0401 42.9858L49.071 43.258C49.2061 43.7389 49.5226 44.1487 49.9537 44.401L50.4621 43.5323ZM51.1268 43.9213L50.4621 43.5323L49.9537 44.401L50.6183 44.79L51.1268 43.9213ZM53.0234 47.1059C52.9799 45.7892 52.2638 44.5868 51.1268 43.9213L50.6183 44.79C51.4571 45.2809 51.9853 46.1678 52.0173 47.1391L53.0234 47.1059ZM53.1391 50.6095L53.0234 47.1059L52.0173 47.1391L52.1331 50.6428L53.1391 50.6095ZM53.1356 50.6025C53.1377 50.6042 53.139 50.6068 53.1391 50.6095L52.1331 50.6428C52.1426 50.9318 52.2772 51.2025 52.5019 51.3846L53.1356 50.6025ZM53.1231 50.603C53.1265 50.5997 53.1319 50.5995 53.1356 50.6025L52.5019 51.3846C52.8915 51.7002 53.4548 51.6775 53.8176 51.3315L53.1231 50.603ZM54.2788 49.5011L53.1231 50.603L53.8176 51.3315L54.9734 50.2297L54.2788 49.5011ZM55.105 48.9544C54.7995 49.0864 54.5197 49.2715 54.2788 49.5011L54.9734 50.2297C55.1281 50.0822 55.3077 49.9633 55.504 49.8786L55.105 48.9544ZM55.6888 48.7024L55.105 48.9544L55.504 49.8786L56.0878 49.6266L55.6888 48.7024ZM59.723 51.2269C59.6321 49.2056 57.5464 47.9005 55.6888 48.7024L56.0878 49.6266C57.2987 49.1038 58.6582 49.9546 58.7175 51.2721L59.723 51.2269ZM59.7519 51.868L59.723 51.2269L58.7175 51.2721L58.7463 51.9133L59.7519 51.868ZM60.5016 52.7988C60.0752 52.6856 59.7717 52.3087 59.7519 51.868L58.7463 51.9133C58.7859 52.7931 59.3919 53.5455 60.2432 53.7717L60.5016 52.7988ZM61.6756 52.2512C61.4682 52.6937 60.9739 52.9243 60.5016 52.7988L60.2432 53.7717C61.1861 54.0221 62.1731 53.5617 62.587 52.6783L61.6756 52.2512ZM61.8021 51.9813L61.6756 52.2512L62.587 52.6783L62.7135 52.4084L61.8021 51.9813ZM63.8028 50.6196C62.9372 50.6739 62.1701 51.1959 61.8021 51.9813L62.7135 52.4084C62.9255 51.9561 63.3672 51.6555 63.8657 51.6242L63.8028 50.6196ZM64.4193 50.581L63.8028 50.6196L63.8657 51.6242L64.4822 51.5856L64.4193 50.581ZM64.8612 50.4953C64.7195 50.5423 64.5712 50.5715 64.4193 50.581L64.4822 51.5856C64.7213 51.5706 64.9551 51.5247 65.1784 51.4506L64.8612 50.4953ZM65.6365 46.2957C65.4326 47.8448 65.0647 49.3548 64.546 50.8033L65.4936 51.1426C66.0363 49.6273 66.4211 48.0476 66.6345 46.4271L65.6365 46.2957ZM61.315 30.1678C64.8372 34.758 66.3917 40.5594 65.6365 46.2957L66.6345 46.4271C67.4245 40.4261 65.7983 34.3571 62.1136 29.5551L61.315 30.1678ZM60.8932 29.6354C61.0363 29.8104 61.177 29.9879 61.315 30.1678L62.1136 29.5551C61.9692 29.3668 61.822 29.1812 61.6723 28.9981L60.8932 29.6354ZM59.7684 29.9403C60.223 29.7579 60.7149 29.7161 61.1837 29.8102L61.3818 28.8233C60.7234 28.6911 60.0323 28.7499 59.3937 29.006L59.7684 29.9403ZM59.369 30.1005L59.7684 29.9403L59.3937 29.006L58.9942 29.1663L59.369 30.1005ZM55.5728 29.8378C56.7316 30.5007 58.1299 30.5975 59.369 30.1005L58.9942 29.1663C58.0406 29.5488 56.9645 29.4743 56.0727 28.9641L55.5728 29.8378ZM52.8991 28.3081L55.5728 29.8378L56.0727 28.9641L53.3989 27.4345L52.8991 28.3081ZM50.8127 25.6852C51.147 26.7943 51.8937 27.733 52.8991 28.3081L53.3989 27.4345C52.6171 26.9872 52.0364 26.2572 51.7765 25.3947L50.8127 25.6852ZM50.7741 25.557L50.8127 25.6852L51.7765 25.3947L51.7378 25.2665L50.7741 25.557ZM49.4982 23.8405C50.1107 24.2463 50.562 24.8535 50.7741 25.557L51.7378 25.2665C51.458 24.3381 50.8624 23.5369 50.0541 23.0014L49.4982 23.8405ZM46.9772 23.415C47.8399 23.194 48.7558 23.3486 49.4982 23.8405L50.0541 23.0014C49.0745 22.3523 47.8658 22.1483 46.7274 22.4399L46.9772 23.415ZM45.2818 23.8493L46.9772 23.415L46.7274 22.4399L45.032 22.8742L45.2818 23.8493ZM44.9548 24.1838C44.9928 24.02 45.1189 23.891 45.2818 23.8493L45.032 22.8742C44.5051 23.0092 44.0973 23.4264 43.9743 23.9562L44.9548 24.1838ZM45.4807 24.7275C45.16 24.7907 44.8809 24.5021 44.9548 24.1838L43.9743 23.9562C43.7353 24.986 44.6381 25.9196 45.6753 25.7151L45.4807 24.7275ZM47.0554 24.4171L45.4807 24.7275L45.6753 25.7151L47.2501 25.4047L47.0554 24.4171ZM48.3919 25.3465C48.2893 24.7146 47.6836 24.2933 47.0554 24.4171L47.2501 25.4047C47.3198 25.3909 47.3869 25.4377 47.3983 25.5078L48.3919 25.3465ZM47.6026 26.6114C48.1454 26.447 48.4827 25.9063 48.3919 25.3465L47.3983 25.5078C47.4084 25.5699 47.371 25.6298 47.3108 25.6481L47.6026 26.6114ZM46.1292 27.0577L47.6026 26.6114L47.3108 25.6481L45.8374 26.0944L46.1292 27.0577ZM45.7977 27.2971C45.8784 27.1826 45.9951 27.0983 46.1292 27.0577L45.8374 26.0944C45.4885 26.2 45.185 26.4192 44.975 26.7172L45.7977 27.2971ZM43.6744 27.7884C44.4041 28.1889 45.3181 27.9774 45.7977 27.2971L44.975 26.7172C44.7906 26.9787 44.4393 27.06 44.1588 26.906L43.6744 27.7884ZM42.3373 27.0544L43.6744 27.7884L44.1588 26.906L42.8217 26.172L42.3373 27.0544ZM40.7247 26.818C41.2732 26.7006 41.8456 26.7845 42.3373 27.0544L42.8217 26.172C42.118 25.7858 41.2988 25.6657 40.5139 25.8338L40.7247 26.818ZM38.4455 27.3062L40.7247 26.818L40.5139 25.8338L38.2347 26.3219L38.4455 27.3062ZM38.5065 24.2655L37.8542 26.6829L38.826 26.9452L39.4783 24.5277L38.5065 24.2655ZM37.8899 22.2758C38.4343 22.7423 38.715 23.4928 38.5065 24.2655L39.4783 24.5277C39.7951 23.3537 39.3623 22.2119 38.5449 21.5115L37.8899 22.2758ZM34.6057 23.7627C35.8106 23.1872 37.0635 22.7247 38.348 22.3797L38.0868 21.4076C36.7432 21.7685 35.4324 22.2523 34.1719 22.8544L34.6057 23.7627ZM35.5748 24.5117C35.139 24.2421 34.8979 23.7795 34.892 23.3023L33.8855 23.3147C33.8954 24.1206 34.3037 24.9089 35.0453 25.3677L35.5748 24.5117ZM38.6049 26.386L35.5748 24.5117L35.0453 25.3677L38.0753 27.2421L38.6049 26.386ZM36.7767 28.5149L38.6275 27.2272L38.0527 26.4009L36.2018 27.6886L36.7767 28.5149ZM34.9622 28.8767C35.591 29.0135 36.2484 28.8824 36.7767 28.5149L36.2018 27.6886C35.9032 27.8963 35.5316 27.9704 35.1762 27.8931L34.9622 28.8767ZM34.2196 28.7151L34.9622 28.8767L35.1762 27.8931L34.4336 27.7316L34.2196 28.7151ZM33.7365 28.9754C33.8114 28.7814 34.0164 28.6709 34.2196 28.7151L34.4336 27.7316C33.7454 27.5819 33.0509 27.9561 32.7974 28.6132L33.7365 28.9754ZM33.8823 29.4685C33.7275 29.3562 33.6677 29.1538 33.7365 28.9754L32.7974 28.6132C32.5643 29.2174 32.7669 29.9028 33.291 30.2832L33.8823 29.4685ZM34.4808 29.9029L33.8823 29.4685L33.291 30.2832L33.8895 30.7175L34.4808 29.9029ZM60.7042 57.4891C59.9549 58.3801 59.1318 59.2141 58.2405 59.9813L58.8972 60.7442C59.8296 59.9415 60.6907 59.069 61.4745 58.1369L60.7042 57.4891ZM58.9905 60.088C58.7564 59.7287 58.6194 59.3111 58.5982 58.8763L57.5928 58.9253C57.6228 59.5397 57.8164 60.1299 58.1472 60.6375L58.9905 60.088ZM58.5982 58.8763L58.48 56.4518L57.4746 56.5009L57.5928 58.9253L58.5982 58.8763ZM58.48 56.4518C58.4527 55.8936 58.9974 55.484 59.5261 55.6652L59.8524 54.713C58.6507 54.3012 57.4127 55.2321 57.4746 56.5009L58.48 56.4518ZM59.5261 55.6652C59.7609 55.7456 59.9443 55.9316 60.0214 56.1674L60.9781 55.8544C60.8027 55.3184 60.3859 54.8958 59.8524 54.713L59.5261 55.6652ZM60.0214 56.1674L60.611 57.9695L61.5677 57.6565L60.9781 55.8544L60.0214 56.1674ZM45.3608 33.993L44.5396 34.5659L45.1155 35.3914L45.9367 34.8185L45.3608 33.993ZM48.6459 33.7299C47.5837 33.2178 46.3279 33.3184 45.3608 33.993L45.9367 34.8185C46.6056 34.352 47.4741 34.2824 48.2087 34.6366L48.6459 33.7299ZM49.1656 33.9805L48.6459 33.7299L48.2087 34.6366L48.7284 34.8872L49.1656 33.9805ZM50.426 35.7975C50.354 35.0126 49.8756 34.3228 49.1656 33.9805L48.7284 34.8872C49.12 35.076 49.3839 35.4564 49.4236 35.8894L50.426 35.7975ZM50.476 36.3436L50.426 35.7975L49.4236 35.8894L49.4736 36.4355L50.476 36.3436ZM49.2149 38.0737C50.0104 37.8961 50.5504 37.1553 50.476 36.3436L49.4736 36.4355C49.5018 36.7432 49.2972 37.024 48.9956 37.0913L49.2149 38.0737ZM47.4681 37.3198C47.8262 37.9222 48.5309 38.2264 49.2149 38.0737L48.9956 37.0913C48.7363 37.1492 48.4692 37.0339 48.3334 36.8055L47.4681 37.3198ZM47.1958 36.8616L47.4681 37.3198L48.3334 36.8055L48.0611 36.3473L47.1958 36.8616ZM46.5876 36.3194C46.8413 36.4332 47.0537 36.6225 47.1958 36.8616L48.0611 36.3473C47.8131 35.93 47.4423 35.5995 46.9994 35.4009L46.5876 36.3194ZM44.6216 35.4379L46.5876 36.3194L46.9994 35.4009L45.0334 34.5194L44.6216 35.4379ZM38.6208 55.7661C38.1693 56.4555 38.39 57.3826 39.1036 57.7946L39.6069 56.9229C39.394 56.7999 39.3281 56.5233 39.4628 56.3176L38.6208 55.7661ZM39.0356 55.1328L38.6208 55.7661L39.4628 56.3176L39.8776 55.6842L39.0356 55.1328ZM40.0142 54.3231C39.6139 54.4883 39.2728 54.7705 39.0356 55.1328L39.8776 55.6842C40.0038 55.4916 40.1853 55.3415 40.3982 55.2536L40.0142 54.3231ZM40.4625 54.1382L40.0142 54.3231L40.3982 55.2536L40.8464 55.0686L40.4625 54.1382ZM41.5671 54.1882C41.2244 54.009 40.82 53.9906 40.4625 54.1382L40.8464 55.0686C40.9287 55.0347 41.0217 55.0389 41.1005 55.0801L41.5671 54.1882ZM42.0716 56.0364C42.4727 55.3908 42.2405 54.5405 41.5671 54.1882L41.1005 55.0801C41.2554 55.1612 41.3088 55.3568 41.2166 55.5053L42.0716 56.0364ZM41.4819 56.9857L42.0716 56.0364L41.2166 55.5053L40.6269 56.4545L41.4819 56.9857ZM40.7866 57.6538C41.0706 57.4927 41.3096 57.263 41.4819 56.9857L40.6269 56.4545C40.5434 56.5889 40.4276 56.7002 40.29 56.7782L40.7866 57.6538ZM40.5287 57.8L40.7866 57.6538L40.29 56.7782L40.0321 56.9245L40.5287 57.8ZM39.1036 57.7946C39.5441 58.0489 40.0863 58.051 40.5287 57.8L40.0321 56.9245C39.9001 56.9994 39.7383 56.9988 39.6069 56.9229L39.1036 57.7946ZM40.1071 33.2793C40.0104 32.9255 39.8883 32.3052 39.788 31.7559C39.7385 31.485 39.6954 31.2372 39.6647 31.0572C39.6493 30.9672 39.637 30.8942 39.6286 30.8439C39.6244 30.8187 39.6212 30.7992 39.619 30.786C39.6179 30.7794 39.6171 30.7744 39.6166 30.7711C39.6163 30.7694 39.6161 30.7682 39.616 30.7674C39.6159 30.767 39.6158 30.7667 39.6158 30.7665C39.6158 30.7664 39.6158 30.7663 39.6158 30.7663C39.6158 30.7662 39.6158 30.7662 39.6158 30.7662C39.6158 30.7662 39.6158 30.7662 39.1191 30.8475C38.6224 30.9288 38.6224 30.9288 38.6224 30.9288C38.6224 30.9289 38.6224 30.9289 38.6224 30.9289C38.6225 30.929 38.6225 30.9291 38.6225 30.9292C38.6225 30.9295 38.6226 30.9298 38.6227 30.9303C38.6228 30.9312 38.623 30.9326 38.6233 30.9344C38.6239 30.9379 38.6248 30.9432 38.6259 30.95C38.6282 30.9637 38.6315 30.9838 38.6358 31.0095C38.6444 31.061 38.6569 31.1353 38.6725 31.2267C38.7037 31.4094 38.7475 31.661 38.7978 31.9367C38.8972 32.4807 39.0263 33.1426 39.1361 33.5446L40.1071 33.2793Z" fill="currentColor" />
</svg>