<svg viewBox="0 0 88 89" fill="none">
  <path d="M46.5165 73.6497C46.5165 72.2599 45.3899 71.1332 44.0001 71.1332C42.6103 71.1332 41.4837 72.2599 41.4837 73.6497H46.5165ZM60.1052 82.6457C61.495 82.6457 62.6216 81.5191 62.6216 80.1293C62.6216 78.7395 61.495 77.6129 60.1052 77.6129V82.6457ZM27.895 77.6129C26.5052 77.6129 25.3785 78.7395 25.3785 80.1293C25.3785 81.5191 26.5052 82.6457 27.895 82.6457L27.895 77.6129ZM46.5165 80.1293L46.5165 73.6497H41.4837V80.1293H46.5165ZM44.0001 82.6457L60.1052 82.6457V77.6129L44.0001 77.6129V82.6457ZM44.0001 77.6129L27.895 77.6129L27.895 82.6457L44.0001 82.6457L44.0001 77.6129Z" fill="currentColor" />
  <path d="M27.1512 66.7261L25.1079 65.2573L27.1512 66.7261ZM27.3908 68.1171L28.7896 66.0252L28.7896 66.0252L27.3908 68.1171ZM30.9051 61.504L32.3739 59.4607L30.3306 57.9919L28.8618 60.0352L30.9051 61.504ZM41.0195 65.5097L40.6911 68.0046L40.6911 68.0046L41.0195 65.5097ZM66.0606 46.2951L68.5555 46.6235L66.0606 46.2951ZM61.6394 29.7951L59.643 31.327L59.643 31.327L61.6394 29.7951ZM53.1132 23.0386L50.8195 22.0035L49.7844 24.2971L52.078 25.3323L53.1132 23.0386ZM55.7601 17.1734L58.0538 18.2086L55.7601 17.1734ZM57.0845 16.6855L58.1967 14.4282L57.0845 16.6855ZM67.5417 25.2642L69.5381 23.7323L69.5381 23.7323L67.5417 25.2642ZM73.4366 47.2642L70.9417 46.9358L70.9417 46.9358L73.4366 47.2642ZM62.0486 66.9889L60.5167 64.9925L60.5167 64.9925L62.0486 66.9889ZM40.0486 72.8838L40.377 70.3889L40.377 70.3889L40.0486 72.8838ZM25.1079 65.2573C23.9858 66.8183 24.3003 69.0777 25.992 70.2089L28.7896 66.0252C29.557 66.5384 29.6676 67.5367 29.1945 68.1949L25.1079 65.2573ZM28.8618 60.0352L25.1079 65.2573L29.1945 68.1949L32.9484 62.9728L28.8618 60.0352ZM41.348 63.0148C38.0798 62.5846 35.0029 61.3505 32.3739 59.4607L29.4363 63.5473C32.7331 65.9171 36.5921 67.465 40.6911 68.0046L41.348 63.0148ZM55.9876 59.0922C51.821 62.2893 46.555 63.7004 41.348 63.0148L40.6911 68.0046C47.2214 68.8644 53.8259 67.0947 59.0514 63.085L55.9876 59.0922ZM63.5657 45.9666C62.8802 51.1736 60.1543 55.895 55.9876 59.0922L59.0514 63.085C64.277 59.0753 67.6957 53.1539 68.5555 46.6235L63.5657 45.9666ZM59.643 31.327C62.8402 35.4936 64.2512 40.7596 63.5657 45.9666L68.5555 46.6235C69.4152 40.0932 67.6456 33.4888 63.6358 28.2632L59.643 31.327ZM52.078 25.3323C55.0291 26.6641 57.6363 28.7118 59.643 31.327L63.6358 28.2632C61.119 24.9832 57.849 22.4151 54.1483 20.745L52.078 25.3323ZM53.4664 16.1383L50.8195 22.0035L55.4068 24.0737L58.0538 18.2086L53.4664 16.1383ZM58.1967 14.4282C56.3711 13.5287 54.2572 14.386 53.4664 16.1383L58.0538 18.2086C57.7203 18.9474 56.8005 19.3508 55.9723 18.9428L58.1967 14.4282ZM69.5381 23.7323C66.4933 19.7641 62.6001 16.5977 58.1967 14.4282L55.9723 18.9428C59.6894 20.7742 62.9753 23.4468 65.5453 26.7961L69.5381 23.7323ZM75.9315 47.5927C77.0488 39.1061 74.749 30.5233 69.5381 23.7323L65.5453 26.7961C69.9436 32.5281 71.8848 39.7726 70.9417 46.9358L75.9315 47.5927ZM63.5805 68.9853C70.3714 63.7744 74.8142 56.0793 75.9315 47.5927L70.9417 46.9358C69.9987 54.099 66.2487 60.5941 60.5167 64.9925L63.5805 68.9853ZM39.7201 75.3786C48.2067 76.4959 56.7895 74.1962 63.5805 68.9853L60.5167 64.9925C54.7847 69.3908 47.5402 71.3319 40.377 70.3889L39.7201 75.3786ZM25.992 70.2089C30.0725 72.9375 34.7612 74.7258 39.7201 75.3787L40.377 70.3889C36.1915 69.8378 32.2341 68.3285 28.7896 66.0252L25.992 70.2089Z" fill="currentColor" />
  <path d="M46.9132 21.3247C52.7819 22.0973 58.1033 25.1696 61.7067 29.8657V29.8657C65.3101 34.5618 66.9005 40.497 66.1279 46.3657V46.3657C65.3552 52.2344 62.2829 57.5557 57.5868 61.1592V61.1592C52.8907 64.7626 46.9555 66.353 41.0868 65.5803V65.5803C35.2182 64.8077 29.8968 61.7354 26.2933 57.0393V57.0393C22.6899 52.3432 21.0996 46.408 21.8722 40.5393V40.5393C22.6448 34.6706 25.7171 29.3493 30.4132 25.7458V25.7458C35.1093 22.1424 41.0445 20.552 46.9132 21.3247V21.3247Z" stroke="currentColor" stroke-width="5" stroke-linecap="round" stroke-linejoin="round" />
  <path fill-rule="evenodd" clip-rule="evenodd" d="M51.7924 22.5312C50.2645 21.9625 48.6675 21.5588 47.0272 21.3348C47.0703 21.4925 47.158 21.6391 47.2869 21.7545L49.5944 23.8187C50.107 24.2773 50.8837 24.2725 51.3906 23.8077C51.7664 23.4631 51.8903 22.9736 51.7924 22.5312ZM36.1235 22.5684C38.654 21.613 41.3474 21.1217 44.0721 21.1296C44.1195 21.1676 44.1664 21.2062 44.2129 21.2453L49.345 25.5628C49.7597 25.9117 50.0096 26.4182 50.0342 26.9597L50.0522 27.3592C50.0806 27.9864 49.6906 28.5567 49.0958 28.7576C48.4043 28.9912 48.0057 29.7142 48.1773 30.4236L48.4203 31.4279C48.5768 32.075 49.0242 32.6131 49.6319 32.8851L50.2819 33.1761C50.7997 33.4079 51.4089 33.2578 51.7598 32.812L52.1435 32.3246C52.6157 31.7248 53.5699 31.9209 53.7672 32.6583C53.821 32.8593 53.9408 33.0363 54.1074 33.1609L54.9151 33.7651C55.4122 34.1369 55.6446 34.766 55.5087 35.3717C55.3824 35.9345 54.9586 36.3833 54.4039 36.5417L46.3111 38.8521C46.0798 38.9181 45.888 39.0801 45.7843 39.297L45.7655 39.3363C45.4184 40.0622 44.3438 39.9132 44.2073 39.1203C44.1656 38.8787 44.0188 38.668 43.8065 38.5455L42.6284 37.8653C41.9016 37.4457 40.9721 37.6947 40.5524 38.4216C40.2142 39.0073 40.3039 39.7461 40.7723 40.234L41.4808 40.9718C41.8572 41.3638 42.115 41.8543 42.2246 42.3866L42.3393 42.9441C42.6038 44.2297 43.3779 45.3534 44.4849 46.0586L44.8767 46.3083C45.974 47.0073 46.745 48.1173 47.0171 49.3896L47.1488 50.0057C47.2457 50.4586 47.4632 50.877 47.7782 51.2165C48.5454 52.0432 48.684 53.2733 48.1201 54.25L47.9444 54.5543C47.5486 55.2399 46.9014 55.7445 46.1399 55.9612L37.2048 58.5035C36.5972 58.6764 36.0808 59.079 35.7649 59.6261L34.3658 62.0495C33.961 62.7507 32.9326 62.6999 32.5988 61.9622C32.5179 61.7833 32.4917 61.5846 32.5236 61.3909L32.768 59.9056C32.8848 59.1962 33.1287 58.5138 33.4882 57.8912L35.2366 54.863C35.9262 53.6684 36.1938 52.2765 35.9961 50.9114C35.8083 49.6142 36.0403 48.2909 36.6583 47.1349L37.5528 45.4618C37.8113 44.9784 38.2469 44.6138 38.7683 44.4445L38.876 44.4095C39.8094 44.1064 40.3822 43.1679 40.2252 42.1992C40.1473 41.7189 39.896 41.2838 39.5189 40.9762L38.6744 40.2873C37.8195 39.59 37.2273 38.6225 36.9953 37.5439L36.1139 33.4473C35.7787 31.8892 35.9249 30.266 36.533 28.7928L37.0914 27.4401C37.5076 26.432 37.5178 25.302 37.12 24.2866L36.8852 23.6872C36.7159 23.2551 36.4533 22.8748 36.1235 22.5684ZM61.4979 29.5841C61.5707 29.676 61.6428 29.7684 61.7143 29.8615C63.6718 32.4127 65.0353 35.3295 65.7485 38.4027L63.492 38.9848C61.9857 39.3734 60.4635 38.3715 60.1939 36.8395C60.0832 36.2101 60.2084 35.5536 60.548 35.0122C60.9139 34.4291 61.0316 33.7239 60.875 33.0536L60.6275 31.9942C60.4604 31.2791 60.637 30.5269 61.105 29.9609C61.223 29.8181 61.3552 29.6923 61.4979 29.5841ZM54.6933 25.2029C53.8287 25.3499 53.3172 26.2538 53.6364 27.0707L55.1162 30.8575C55.1895 31.0451 55.3268 31.2007 55.5039 31.2967C56.1101 31.6257 56.8358 31.1363 56.7581 30.4509L56.3001 26.4112C56.2106 25.6219 55.4764 25.0698 54.6933 25.2029Z" fill="currentColor" />
  <path d="M47.0272 21.3348L47.0952 20.8361C46.9278 20.8133 46.7601 20.876 46.6487 21.0031C46.5373 21.1302 46.4971 21.3047 46.5417 21.4677L47.0272 21.3348ZM51.7924 22.5312L52.2838 22.4224C52.2469 22.2557 52.128 22.1191 51.968 22.0595L51.7924 22.5312ZM47.2869 21.7545L46.9514 22.1295L47.2869 21.7545ZM49.5944 23.8187L49.2588 24.1938L49.2588 24.1938L49.5944 23.8187ZM51.3906 23.8077L51.0504 23.4368L51.0504 23.4368L51.3906 23.8077ZM36.1235 22.5684L35.9457 22.0976C35.7828 22.1591 35.6632 22.3006 35.6296 22.4715C35.5961 22.6425 35.6533 22.8186 35.781 22.9372L36.1235 22.5684ZM44.0721 21.1296L44.3873 20.7372C44.2983 20.6657 44.1877 20.6266 44.0736 20.6263L44.0721 21.1296ZM44.2129 21.2453L43.8889 21.6305L43.8889 21.6305L44.2129 21.2453ZM49.345 25.5628L49.669 25.1777L49.345 25.5628ZM50.0342 26.9597L49.5314 26.9825L49.5314 26.9825L50.0342 26.9597ZM50.0522 27.3592L50.555 27.3364L50.555 27.3364L50.0522 27.3592ZM49.0958 28.7576L49.2568 29.2344L49.0958 28.7576ZM48.1773 30.4236L48.6665 30.3052L48.1773 30.4236ZM48.4203 31.4279L48.9095 31.3096L48.9095 31.3096L48.4203 31.4279ZM49.6319 32.8851L49.4263 33.3445L49.6319 32.8851ZM50.2819 33.1761L50.0763 33.6354L50.2819 33.1761ZM51.7598 32.812L52.1553 33.1233L52.1553 33.1233L51.7598 32.812ZM52.1435 32.3246L51.7481 32.0133L51.7481 32.0133L52.1435 32.3246ZM53.7672 32.6583L53.281 32.7884L53.281 32.7884L53.7672 32.6583ZM54.1074 33.1609L53.806 33.564L54.1074 33.1609ZM54.9151 33.7651L54.6137 34.1681L54.9151 33.7651ZM55.5087 35.3717L55.0176 35.2615L55.0176 35.2615L55.5087 35.3717ZM54.4039 36.5417L54.2658 36.0577L54.4039 36.5417ZM46.3111 38.8521L46.4492 39.336L46.4492 39.336L46.3111 38.8521ZM45.7843 39.297L46.2383 39.5142L46.2383 39.5142L45.7843 39.297ZM45.7655 39.3363L45.3115 39.1191L45.3115 39.1192L45.7655 39.3363ZM44.2073 39.1203L43.7113 39.2057L43.7113 39.2057L44.2073 39.1203ZM43.8065 38.5455L43.5548 38.9813L43.8065 38.5455ZM42.6284 37.8653L42.8801 37.4295L42.6284 37.8653ZM40.7723 40.234L41.1354 39.8854L41.1354 39.8854L40.7723 40.234ZM41.4808 40.9718L41.1177 41.3204L41.4808 40.9718ZM42.2246 42.3866L42.7175 42.2852L42.7175 42.2852L42.2246 42.3866ZM42.3393 42.9441L41.8463 43.0455L41.8463 43.0455L42.3393 42.9441ZM44.4849 46.0586L44.7553 45.6342L44.7553 45.6342L44.4849 46.0586ZM44.8767 46.3083L44.6063 46.7327L44.6063 46.7327L44.8767 46.3083ZM47.0171 49.3896L46.5249 49.4948L47.0171 49.3896ZM47.1488 50.0057L46.6567 50.1109L46.6567 50.1109L47.1488 50.0057ZM47.7782 51.2165L47.4093 51.5589L47.4093 51.5589L47.7782 51.2165ZM46.1399 55.9612L46.0022 55.4771L46.0022 55.4771L46.1399 55.9612ZM37.2048 58.5035L37.067 58.0195L37.2048 58.5035ZM32.5988 61.9622L32.1403 62.1696L32.1403 62.1696L32.5988 61.9622ZM32.5236 61.3909L32.027 61.3092L32.027 61.3092L32.5236 61.3909ZM32.768 59.9056L33.2646 59.9873L32.768 59.9056ZM35.9961 50.9114L36.4942 50.8393L35.9961 50.9114ZM36.6583 47.1349L37.1022 47.3722L36.6583 47.1349ZM37.5528 45.4618L37.9967 45.6991L37.5528 45.4618ZM38.7683 44.4445L38.6129 43.9658L38.6129 43.9658L38.7683 44.4445ZM38.876 44.4095L38.7205 43.9308L38.876 44.4095ZM40.2252 42.1992L39.7284 42.2798L39.7284 42.2798L40.2252 42.1992ZM39.5189 40.9762L39.2008 41.3662L39.2008 41.3662L39.5189 40.9762ZM38.6744 40.2873L38.9925 39.8973L38.6744 40.2873ZM36.9953 37.5439L37.4873 37.4381L36.9953 37.5439ZM36.1139 33.4473L35.6219 33.5531L36.1139 33.4473ZM36.533 28.7928L36.9982 28.9849L36.533 28.7928ZM37.0914 27.4401L37.5567 27.6321L37.0914 27.4401ZM37.12 24.2866L36.6514 24.4701L36.6514 24.4701L37.12 24.2866ZM36.8852 23.6872L37.3538 23.5036L37.3538 23.5036L36.8852 23.6872ZM61.4979 29.5841L61.8923 29.2715C61.7223 29.0571 61.4122 29.0177 61.1941 29.1829L61.4979 29.5841ZM61.7143 29.8615L61.315 30.1679L61.315 30.1679L61.7143 29.8615ZM65.7485 38.4027L65.8743 38.89C66.1388 38.8218 66.3006 38.555 66.2388 38.2889L65.7485 38.4027ZM63.492 38.9848L63.6178 39.4722L63.6178 39.4722L63.492 38.9848ZM60.1939 36.8395L60.6896 36.7522L60.1939 36.8395ZM60.548 35.0122L60.9743 35.2797L60.9743 35.2797L60.548 35.0122ZM60.875 33.0536L60.3849 33.1681L60.3849 33.1681L60.875 33.0536ZM60.6275 31.9942L61.1176 31.8797L61.1176 31.8797L60.6275 31.9942ZM61.105 29.9609L60.7171 29.6402L60.7171 29.6402L61.105 29.9609ZM53.6364 27.0707L54.1052 26.8875L54.1052 26.8875L53.6364 27.0707ZM54.6933 25.2029L54.7776 25.6991L54.7776 25.6991L54.6933 25.2029ZM55.1162 30.8575L55.5849 30.6743L55.5849 30.6743L55.1162 30.8575ZM55.5039 31.2967L55.7439 30.8544L55.5039 31.2967ZM56.7581 30.4509L57.2582 30.3942L57.2582 30.3942L56.7581 30.4509ZM56.3001 26.4112L55.8 26.4679L55.8 26.4679L56.3001 26.4112ZM46.9591 21.8334C48.5625 22.0524 50.1234 22.447 51.6168 23.0029L51.968 22.0595C50.4056 21.478 48.7726 21.0652 47.0952 20.8361L46.9591 21.8334ZM46.5417 21.4677C46.6098 21.7163 46.7483 21.9478 46.9514 22.1295L47.6225 21.3794C47.5677 21.3304 47.5309 21.2687 47.5126 21.2019L46.5417 21.4677ZM46.9514 22.1295L49.2588 24.1938L49.93 23.4436L47.6225 21.3794L46.9514 22.1295ZM49.2588 24.1938C49.9642 24.8249 51.0331 24.8183 51.7307 24.1787L51.0504 23.4368C50.7342 23.7267 50.2497 23.7297 49.93 23.4436L49.2588 24.1938ZM51.7307 24.1787C52.248 23.7043 52.4178 23.028 52.2838 22.4224L51.301 22.64C51.3628 22.9193 51.2848 23.2219 51.0504 23.4368L51.7307 24.1787ZM36.3013 23.0393C38.7748 22.1054 41.4074 21.6251 44.0707 21.6329L44.0736 20.6263C41.2874 20.6182 38.5333 21.1206 35.9457 22.0976L36.3013 23.0393ZM43.7569 21.5219C43.8013 21.5576 43.8453 21.5938 43.8889 21.6305L44.5369 20.8602C44.4875 20.8186 44.4376 20.7776 44.3873 20.7372L43.7569 21.5219ZM43.8889 21.6305L49.021 25.9479L49.669 25.1777L44.5369 20.8602L43.8889 21.6305ZM49.021 25.9479C49.3282 26.2063 49.5132 26.5815 49.5314 26.9825L50.5369 26.9369C50.506 26.255 50.1913 25.6171 49.669 25.1777L49.021 25.9479ZM49.5314 26.9825L49.5495 27.3819L50.555 27.3364L50.5369 26.9369L49.5314 26.9825ZM49.5495 27.3819C49.5677 27.7851 49.317 28.1516 48.9347 28.2808L49.2568 29.2344C50.0642 28.9617 50.5936 28.1877 50.555 27.3364L49.5495 27.3819ZM48.9347 28.2808C47.9962 28.5978 47.4553 29.5791 47.6882 30.5419L48.6665 30.3052C48.5562 29.8493 48.8124 29.3846 49.2568 29.2344L48.9347 28.2808ZM47.6882 30.5419L47.9311 31.5462L48.9095 31.3096L48.6665 30.3052L47.6882 30.5419ZM47.9311 31.5462C48.1243 32.3448 48.6764 33.0088 49.4263 33.3445L49.8375 32.4257C49.3721 32.2174 49.0294 31.8052 48.9095 31.3096L47.9311 31.5462ZM49.4263 33.3445L50.0763 33.6354L50.4875 32.7167L49.8375 32.4257L49.4263 33.3445ZM50.0763 33.6354C50.8047 33.9615 51.6616 33.7504 52.1553 33.1233L51.3644 32.5007C51.1562 32.7652 50.7948 32.8542 50.4875 32.7167L50.0763 33.6354ZM52.1553 33.1233L52.539 32.6359L51.7481 32.0133L51.3644 32.5007L52.1553 33.1233ZM52.539 32.6359C52.7548 32.3618 53.1908 32.4514 53.281 32.7884L54.2534 32.5282C53.9489 31.3904 52.4766 31.0878 51.7481 32.0133L52.539 32.6359ZM53.281 32.7884C53.364 33.0985 53.5489 33.3717 53.806 33.564L54.4089 32.7579C54.3327 32.701 54.278 32.6201 54.2534 32.5282L53.281 32.7884ZM53.806 33.564L54.6137 34.1681L55.2165 33.3621L54.4089 32.7579L53.806 33.564ZM54.6137 34.1681C54.952 34.4211 55.1101 34.8492 55.0176 35.2615L55.9998 35.4819C56.1791 34.6827 55.8724 33.8526 55.2165 33.3621L54.6137 34.1681ZM55.0176 35.2615C54.9317 35.6445 54.6433 35.9499 54.2658 36.0577L54.5421 37.0256C55.274 36.8167 55.8331 36.2245 55.9998 35.4819L55.0176 35.2615ZM54.2658 36.0577L46.1729 38.3681L46.4492 39.336L54.5421 37.0256L54.2658 36.0577ZM46.1729 38.3681C45.803 38.4737 45.4962 38.7329 45.3302 39.0799L46.2383 39.5142C46.2798 39.4273 46.3566 39.3625 46.4492 39.336L46.1729 38.3681ZM45.3302 39.0799L45.3115 39.1191L46.2195 39.5534L46.2383 39.5142L45.3302 39.0799ZM45.3115 39.1192C45.176 39.4025 44.7565 39.3443 44.7032 39.0348L43.7113 39.2057C43.9311 40.482 45.6608 40.7218 46.2195 39.5534L45.3115 39.1192ZM44.7032 39.0348C44.6363 38.6459 44.3999 38.3069 44.0581 38.1096L43.5548 38.9813C43.6377 39.0292 43.695 39.1114 43.7113 39.2057L44.7032 39.0348ZM44.0581 38.1096L42.8801 37.4295L42.3768 38.3012L43.5548 38.9813L44.0581 38.1096ZM42.8801 37.4295C41.9125 36.8708 40.6752 37.2023 40.1166 38.1699L40.9883 38.6732C41.269 38.1871 41.8906 38.0205 42.3768 38.3012L42.8801 37.4295ZM40.1166 38.1699C39.6664 38.9497 39.7857 39.9331 40.4093 40.5826L41.1354 39.8854C40.8221 39.5591 40.7621 39.065 40.9883 38.6732L40.1166 38.1699ZM40.4093 40.5826L41.1177 41.3204L41.8438 40.6233L41.1354 39.8854L40.4093 40.5826ZM41.1177 41.3204C41.4284 41.6439 41.6412 42.0487 41.7316 42.4881L42.7175 42.2852C42.5888 41.6599 42.286 41.0838 41.8438 40.6233L41.1177 41.3204ZM41.7316 42.4881L41.8463 43.0455L42.8322 42.8427L42.7175 42.2852L41.7316 42.4881ZM41.8463 43.0455C42.1383 44.4645 42.9926 45.7047 44.2144 46.4831L44.7553 45.6342C43.7631 45.0021 43.0693 43.995 42.8322 42.8427L41.8463 43.0455ZM44.2144 46.4831L44.6063 46.7327L45.1471 45.8838L44.7553 45.6342L44.2144 46.4831ZM44.6063 46.7327C45.5899 47.3594 46.281 48.3544 46.5249 49.4948L47.5092 49.2844C47.209 47.8803 46.3581 46.6553 45.1471 45.8838L44.6063 46.7327ZM46.5249 49.4948L46.6567 50.1109L47.641 49.9004L47.5092 49.2844L46.5249 49.4948ZM46.6567 50.1109C46.7725 50.6526 47.0325 51.1529 47.4093 51.5589L48.1471 50.8742C47.8938 50.6012 47.7189 50.2647 47.641 49.9004L46.6567 50.1109ZM47.4093 51.5589C48.0262 52.2237 48.1377 53.2129 47.6843 53.9983L48.556 54.5016C49.2303 53.3337 49.0645 51.8627 48.1471 50.8742L47.4093 51.5589ZM47.6843 53.9983L47.5086 54.3027L48.3803 54.806L48.556 54.5016L47.6843 53.9983ZM47.5086 54.3027C47.1781 54.875 46.6378 55.2962 46.0022 55.4771L46.2777 56.4453C47.1649 56.1928 47.919 55.6049 48.3803 54.806L47.5086 54.3027ZM46.0022 55.4771L37.067 58.0195L37.3425 58.9876L46.2777 56.4453L46.0022 55.4771ZM37.067 58.0195C36.3337 58.2281 35.7103 58.7141 35.3291 59.3744L36.2008 59.8777C36.4513 59.4439 36.8607 59.1247 37.3425 58.9876L37.067 58.0195ZM35.3291 59.3744L33.9299 61.7978L34.8017 62.3011L36.2008 59.8777L35.3291 59.3744ZM33.9299 61.7978C33.73 62.1441 33.2222 62.119 33.0574 61.7547L32.1403 62.1696C32.643 63.2807 34.1919 63.3572 34.8017 62.3011L33.9299 61.7978ZM33.0574 61.7547C33.0174 61.6664 33.0045 61.5682 33.0202 61.4726L32.027 61.3092C31.979 61.6009 32.0184 61.9003 32.1403 62.1696L33.0574 61.7547ZM33.0202 61.4726L33.2646 59.9873L32.2714 59.8238L32.027 61.3092L33.0202 61.4726ZM33.2646 59.9873C33.3715 59.3378 33.5949 58.7129 33.924 58.1429L33.0523 57.6396C32.6626 58.3147 32.398 59.0547 32.2714 59.8238L33.2646 59.9873ZM33.924 58.1429L35.6724 55.1146L34.8007 54.6113L33.0523 57.6396L33.924 58.1429ZM35.6724 55.1146C36.4186 53.8222 36.7081 52.3162 36.4942 50.8393L35.498 50.9835C35.6795 52.2368 35.4339 53.5146 34.8007 54.6113L35.6724 55.1146ZM36.4942 50.8393C36.3218 49.6483 36.5348 48.4334 37.1022 47.3722L36.2145 46.8977C35.5459 48.1483 35.2948 49.58 35.498 50.9835L36.4942 50.8393ZM37.1022 47.3722L37.9967 45.6991L37.109 45.2246L36.2145 46.8977L37.1022 47.3722ZM37.9967 45.6991C38.1938 45.3304 38.5261 45.0523 38.9238 44.9232L38.6129 43.9658C37.9678 44.1753 37.4288 44.6264 37.109 45.2246L37.9967 45.6991ZM38.9238 44.9232L39.0314 44.8882L38.7205 43.9308L38.6129 43.9658L38.9238 44.9232ZM39.0314 44.8882C40.201 44.5084 40.9188 43.3325 40.7219 42.1187L39.7284 42.2798C39.8457 43.0034 39.4178 43.7044 38.7205 43.9308L39.0314 44.8882ZM40.7219 42.1187C40.6244 41.5168 40.3095 40.9716 39.8371 40.5862L39.2008 41.3662C39.4825 41.5959 39.6702 41.921 39.7284 42.2798L40.7219 42.1187ZM39.8371 40.5862L38.9925 39.8973L38.3563 40.6773L39.2008 41.3662L39.8371 40.5862ZM38.9925 39.8973C38.2262 39.2722 37.6953 38.4049 37.4873 37.4381L36.5033 37.6498C36.7593 38.8401 37.4128 39.9078 38.3563 40.6773L38.9925 39.8973ZM37.4873 37.4381L36.606 33.3414L35.6219 33.5531L36.5033 37.6498L37.4873 37.4381ZM36.606 33.3414C36.2922 31.883 36.429 30.3637 36.9982 28.9849L36.0678 28.6008C35.4208 30.1682 35.2653 31.8953 35.6219 33.5531L36.606 33.3414ZM36.9982 28.9849L37.5567 27.6321L36.6262 27.248L36.0678 28.6008L36.9982 28.9849ZM37.5567 27.6321C38.0224 26.5039 38.0338 25.2394 37.5886 24.103L36.6514 24.4701C37.0018 25.3646 36.9928 26.36 36.6262 27.248L37.5567 27.6321ZM37.5886 24.103L37.3538 23.5036L36.4166 23.8707L36.6514 24.4701L37.5886 24.103ZM37.3538 23.5036C37.1565 23 36.8504 22.5567 36.466 22.1997L35.781 22.9372C36.0562 23.1929 36.2753 23.5101 36.4166 23.8707L37.3538 23.5036ZM61.1035 29.8968C61.1747 29.9865 61.2451 30.0769 61.315 30.1679L62.1135 29.5552C62.0405 29.46 61.9668 29.3654 61.8923 29.2715L61.1035 29.8968ZM61.315 30.1679C63.2284 32.6615 64.5611 35.5126 65.2583 38.5165L66.2388 38.2889C65.5095 35.1465 64.1153 32.1638 62.1135 29.5552L61.315 30.1679ZM63.6178 39.4722L65.8743 38.89L65.6228 37.9154L63.3663 38.4975L63.6178 39.4722ZM59.6983 36.9267C60.0176 38.7416 61.8212 39.9356 63.6178 39.4722L63.3663 38.4975C62.1503 38.8112 60.9094 38.0015 60.6896 36.7522L59.6983 36.9267ZM60.1217 34.7448C59.7149 35.3931 59.5662 36.1763 59.6983 36.9267L60.6896 36.7522C60.6001 36.2439 60.7019 35.714 60.9743 35.2797L60.1217 34.7448ZM60.3849 33.1681C60.5109 33.7077 60.4162 34.2753 60.1217 34.7448L60.9743 35.2797C61.4115 34.5828 61.5522 33.7402 61.365 32.9391L60.3849 33.1681ZM60.1374 32.1087L60.3849 33.1681L61.365 32.9391L61.1176 31.8797L60.1374 32.1087ZM60.7171 29.6402C60.149 30.3274 59.9346 31.2405 60.1374 32.1087L61.1176 31.8797C60.9862 31.3176 61.1251 30.7265 61.4929 30.2816L60.7171 29.6402ZM61.1941 29.1829C61.0206 29.3143 60.8602 29.4671 60.7171 29.6402L61.4929 30.2816C61.5859 30.1691 61.6898 30.0702 61.8018 29.9853L61.1941 29.1829ZM54.1052 26.8875C53.9021 26.3678 54.2275 25.7926 54.7776 25.6991L54.609 24.7068C53.4299 24.9072 52.7323 26.1399 53.1676 27.2539L54.1052 26.8875ZM55.5849 30.6743L54.1052 26.8875L53.1676 27.2539L54.6474 31.0406L55.5849 30.6743ZM55.7439 30.8544C55.6713 30.815 55.615 30.7512 55.5849 30.6743L54.6474 31.0406C54.764 31.339 54.9823 31.5864 55.2639 31.7391L55.7439 30.8544ZM56.258 30.5076C56.2899 30.7886 55.9924 30.9892 55.7439 30.8544L55.2639 31.7391C56.2279 32.2621 57.3817 31.484 57.2582 30.3942L56.258 30.5076ZM55.8 26.4679L56.258 30.5076L57.2582 30.3942L56.8002 26.3545L55.8 26.4679ZM54.7776 25.6991C55.2759 25.6144 55.7431 25.9657 55.8 26.4679L56.8002 26.3545C56.6781 25.2781 55.6769 24.5252 54.609 24.7068L54.7776 25.6991Z" fill="currentColor" />
</svg>