<svg viewBox="0 0 80 80" fill="none">
  <path d="M29.3929 14.3929C36.1842 11.5799 43.8148 11.5799 50.6061 14.3929V14.3929C57.3974 17.206 62.7931 22.6016 65.6061 29.3929V29.3929C68.4192 36.1842 68.4192 43.8148 65.6061 50.6061V50.6061C62.7931 57.3974 57.3974 62.7931 50.6061 65.6061V65.6061C43.8148 68.4192 36.1842 68.4192 29.3929 65.6061V65.6061C22.6016 62.7931 17.206 57.3974 14.3929 50.6061V50.6061C11.5799 43.8148 11.5799 36.1842 14.3929 29.3929V29.3929C17.206 22.6016 22.6016 17.206 29.3929 14.3929V14.3929Z" stroke="currentColor" stroke-width="5" stroke-linecap="round" stroke-linejoin="round" />
  <path fill-rule="evenodd" clip-rule="evenodd" d="M33.102 13.1475C33.1947 13.2076 33.286 13.2704 33.3757 13.3358L34.01 13.7979C34.7176 14.3134 35.5705 14.5912 36.4461 14.5912H36.9593C37.6332 14.5912 38.284 14.8364 38.7904 15.2811C39.2967 15.7257 39.9476 15.9709 40.6215 15.9709L50.4898 15.9709C50.8287 15.9709 51.1542 16.1033 51.3968 16.3398L52.1346 17.0588C52.7003 17.6102 52.3099 18.57 51.52 18.57C51.1901 18.57 50.8878 18.7544 50.7369 19.0478L50.4452 19.6148C50.0987 20.2886 49.3892 20.6965 48.6326 20.6571L47.6468 20.6057C46.6881 20.5557 45.752 20.9071 45.063 21.5755L44.4591 22.1613C43.9254 22.6791 43.2177 22.9791 42.4745 23.0029L42.2175 23.0111C40.7592 23.0576 39.5976 24.2467 39.5851 25.7057C39.5792 26.3976 39.3098 27.0612 38.8317 27.5614L35.2056 31.355C34.6859 31.8987 33.9644 32.2033 33.2122 32.1965C31.8526 32.1842 30.6922 33.1766 30.4934 34.5217L30.4839 34.5863C30.3679 35.371 29.9243 36.0696 29.2635 36.5084L28.6245 36.9328C27.9175 37.4022 27.5229 38.2199 27.5953 39.0655L27.6268 39.4343C27.7044 40.3402 27.1223 41.1717 26.2446 41.4089C25.4523 41.623 24.6126 41.2982 24.1706 40.6065L23.7415 39.9349C22.6241 38.1861 20.1023 38.0964 18.8635 39.7614L18.3921 40.3949C18.1895 40.6672 18.0369 40.9733 17.9412 41.2989L17.3824 43.2016C17.2956 43.4974 17.0025 43.6827 16.698 43.6344C16.5223 43.6065 16.3674 43.5038 16.2734 43.3527L13.9735 39.6566C13.571 39.0098 13.0058 38.4979 12.3491 38.1608C12.5469 35.1706 13.23 32.2049 14.3985 29.384C17.2115 22.5927 22.6072 17.197 29.3985 14.384C30.6094 13.8823 31.8471 13.4702 33.102 13.1475ZM26.6921 43.8806C25.5775 44.099 25.0351 45.3732 25.6502 46.328L27.2828 48.862C27.7868 49.6442 28.5704 50.2046 29.4736 50.4285L30.8844 50.7783C31.4224 50.9117 31.991 50.7534 32.3827 50.3612C33.023 49.7201 32.9941 48.6731 32.3196 48.0682L28.074 44.2611C27.6986 43.9245 27.1869 43.7836 26.6921 43.8806ZM41.8491 29.9599C42.6355 29.0937 42.2304 27.7024 41.1019 27.3937C40.4525 27.216 39.7621 27.4728 39.3867 28.0316L37.9804 30.1247C37.4564 30.9047 37.8453 31.9691 38.7489 32.2274C39.2553 32.3722 39.8001 32.217 40.1542 31.827L41.8491 29.9599ZM37.1817 48.3526C37.005 49.1345 37.5805 49.8851 38.3814 49.9174L41.7372 50.0529C42.1694 50.0704 42.5951 49.9433 42.947 49.6917L43.2283 49.4907C43.5034 49.294 43.6809 48.9888 43.7155 48.6524C43.7872 47.9571 43.2417 47.3524 42.5427 47.3524H38.4331C37.8335 47.3524 37.3139 47.7678 37.1817 48.3526ZM39.5953 52.2844C38.1891 52.3524 36.8604 52.9491 35.8753 53.955L35.2294 54.6145C34.5167 55.3422 34.1517 56.3415 34.2276 57.3573C34.3657 59.2067 35.9064 60.6366 37.7609 60.6366H38.929C39.9913 60.6366 41.0144 61.0377 41.7937 61.7597L42.2344 62.168C42.7304 62.6275 43.3816 62.8828 44.0577 62.8828C45.5394 62.8828 46.7405 61.6816 46.7405 60.1999V58.3528C46.7405 57.2366 46.3284 56.1597 45.5832 55.3286L44.6638 54.3032C43.4329 52.9304 41.6491 52.1851 39.8074 52.2742L39.5953 52.2844ZM33.0274 45.1199C32.0466 44.5003 31.8851 43.1348 32.6943 42.3035L34.7085 40.2343C34.9489 39.9873 35.3055 39.8923 35.637 39.9869C36.2387 40.1586 36.5062 40.8607 36.1712 41.3893L36.1206 41.4692C35.9978 41.663 35.9448 41.893 35.9704 42.121L36.0574 42.8955C36.1175 43.4301 35.9752 43.9678 35.6587 44.4027L35.4782 44.6508C34.9124 45.4283 33.8404 45.6335 33.0274 45.1199ZM49.9929 63.0653C49.6463 62.6122 49.6316 61.9874 49.9563 61.5184L50.8608 60.2122C51.3139 59.5579 52.2395 59.452 52.8286 59.9871C53.3185 60.432 53.4021 61.1714 53.0238 61.7144L52.1157 63.0181C51.6068 63.7489 50.5338 63.7727 49.9929 63.0653Z" fill="currentColor" />
  <path d="M33.102 13.1475L33.3742 12.7281C33.2569 12.6519 33.1129 12.6284 32.9774 12.6632L33.102 13.1475ZM33.3757 13.3358L33.0812 13.7399L33.0812 13.7399L33.3757 13.3358ZM34.01 13.7979L34.3044 13.3938V13.3938L34.01 13.7979ZM38.7904 15.2811L39.1203 14.9054L39.1203 14.9054L38.7904 15.2811ZM51.3968 16.3398L51.0479 16.6979V16.6979L51.3968 16.3398ZM52.1346 17.0588L51.7856 17.4169V17.4169L52.1346 17.0588ZM50.7369 19.0478L51.1816 19.2765L51.1816 19.2765L50.7369 19.0478ZM50.4452 19.6148L50.8899 19.8436V19.8436L50.4452 19.6148ZM48.6326 20.6571L48.6066 21.1564L48.6326 20.6571ZM47.6468 20.6057L47.6728 20.1064L47.6468 20.6057ZM45.063 21.5755L44.7148 21.2166L45.063 21.5755ZM44.4591 22.1613L44.8072 22.5202L44.8072 22.5202L44.4591 22.1613ZM42.4745 23.0029L42.4586 22.5031L42.4745 23.0029ZM42.2175 23.0111L42.2334 23.5108L42.2175 23.0111ZM39.5851 25.7057L39.0851 25.7014L39.5851 25.7057ZM38.8317 27.5614L38.4702 27.2159V27.2159L38.8317 27.5614ZM35.2056 31.355L34.8442 31.0095L35.2056 31.355ZM33.2122 32.1965L33.2168 31.6965L33.2122 32.1965ZM30.4934 34.5217L30.988 34.5948V34.5948L30.4934 34.5217ZM30.4839 34.5863L29.9892 34.5132V34.5132L30.4839 34.5863ZM29.2635 36.5084L29.5401 36.9249L29.5401 36.9249L29.2635 36.5084ZM28.6245 36.9328L28.9011 37.3493L28.6245 36.9328ZM27.5953 39.0655L27.0971 39.1081L27.5953 39.0655ZM27.6268 39.4343L28.125 39.3917L27.6268 39.4343ZM26.2446 41.4089L26.3751 41.8916L26.2446 41.4089ZM24.1706 40.6065L24.592 40.3373V40.3373L24.1706 40.6065ZM23.7415 39.9349L23.3202 40.2041L23.7415 39.9349ZM18.8635 39.7614L19.2646 40.0599L18.8635 39.7614ZM18.3921 40.3949L18.7933 40.6934L18.3921 40.3949ZM17.9412 41.2989L18.421 41.4398L17.9412 41.2989ZM17.3824 43.2016L16.9027 43.0607H16.9027L17.3824 43.2016ZM16.698 43.6344L16.6197 44.1282H16.6197L16.698 43.6344ZM16.2734 43.3527L16.6979 43.0886H16.6979L16.2734 43.3527ZM13.9735 39.6566L13.549 39.9207L13.9735 39.6566ZM12.3491 38.1608L11.8502 38.1278C11.8371 38.3268 11.9434 38.5146 12.1208 38.6056L12.3491 38.1608ZM14.3985 29.384L14.8604 29.5753L14.3985 29.384ZM29.3985 14.384L29.2071 13.922L29.3985 14.384ZM25.6502 46.328L25.2299 46.5988L25.6502 46.328ZM26.6921 43.8806L26.7882 44.3712H26.7882L26.6921 43.8806ZM27.2828 48.862L26.8624 49.1328L27.2828 48.862ZM29.4736 50.4285L29.594 49.9432H29.594L29.4736 50.4285ZM30.8844 50.7783L30.7641 51.2636H30.7641L30.8844 50.7783ZM32.3827 50.3612L32.0289 50.0079L32.3827 50.3612ZM32.3196 48.0682L32.6534 47.696H32.6534L32.3196 48.0682ZM28.074 44.2611L27.7402 44.6334L28.074 44.2611ZM41.1019 27.3937L41.2338 26.9114L41.1019 27.3937ZM41.8491 29.9599L42.2193 30.296L41.8491 29.9599ZM39.3867 28.0316L38.9717 27.7528L39.3867 28.0316ZM37.9804 30.1247L37.5654 29.8459L37.9804 30.1247ZM38.7489 32.2274L38.8863 31.7467V31.7467L38.7489 32.2274ZM40.1542 31.827L39.784 31.4909L40.1542 31.827ZM38.3814 49.9174L38.3612 50.417H38.3612L38.3814 49.9174ZM37.1817 48.3526L37.6694 48.4628L37.1817 48.3526ZM41.7372 50.0529L41.7573 49.5533L41.7372 50.0529ZM42.947 49.6917L42.6563 49.285L42.6563 49.285L42.947 49.6917ZM43.2283 49.4907L43.5191 49.8975H43.5191L43.2283 49.4907ZM43.7155 48.6524L43.2182 48.6011L43.7155 48.6524ZM35.8753 53.955L36.2325 54.3048L35.8753 53.955ZM39.5953 52.2844L39.5712 51.785H39.5712L39.5953 52.2844ZM35.2294 54.6145L34.8722 54.2646L35.2294 54.6145ZM34.2276 57.3573L34.7262 57.3201V57.3201L34.2276 57.3573ZM41.7937 61.7597L41.4539 62.1265L41.7937 61.7597ZM42.2344 62.168L42.5742 61.8012H42.5742L42.2344 62.168ZM45.5832 55.3286L45.211 55.6624L45.5832 55.3286ZM44.6638 54.3032L45.0361 53.9694L44.6638 54.3032ZM39.8074 52.2742L39.8316 52.7736H39.8316L39.8074 52.2742ZM32.6943 42.3035L32.336 41.9548L32.6943 42.3035ZM33.0274 45.1199L33.2944 44.6972L33.0274 45.1199ZM34.7085 40.2343L34.3502 39.8856V39.8856L34.7085 40.2343ZM35.637 39.9869L35.4998 40.4677L35.4998 40.4677L35.637 39.9869ZM36.1712 41.3893L35.7489 41.1217L36.1712 41.3893ZM36.1206 41.4692L35.6983 41.2015V41.2015L36.1206 41.4692ZM35.9704 42.121L35.4735 42.1769V42.1769L35.9704 42.121ZM36.0574 42.8955L36.5543 42.8397L36.0574 42.8955ZM35.6587 44.4027L36.063 44.6969L36.063 44.6969L35.6587 44.4027ZM35.4782 44.6508L35.0739 44.3566L35.0739 44.3566L35.4782 44.6508ZM49.9563 61.5184L49.5453 61.2338L49.9563 61.5184ZM49.9929 63.0653L50.39 62.7616L49.9929 63.0653ZM50.8608 60.2122L51.2719 60.4968L51.2719 60.4968L50.8608 60.2122ZM52.8286 59.9871L52.4925 60.3572L52.4925 60.3572L52.8286 59.9871ZM53.0238 61.7144L52.6135 61.4286H52.6135L53.0238 61.7144ZM52.1157 63.0181L51.7055 62.7323L52.1157 63.0181ZM32.8297 13.5668C32.9149 13.6222 32.9988 13.6799 33.0812 13.7399L33.6701 12.9317C33.5731 12.861 33.4745 12.7931 33.3742 12.7281L32.8297 13.5668ZM33.0812 13.7399L33.7155 14.202L34.3044 13.3938L33.6701 12.9317L33.0812 13.7399ZM33.7155 14.202C34.5087 14.7799 35.4647 15.0912 36.4461 15.0912V14.0912C35.6764 14.0912 34.9265 13.847 34.3044 13.3938L33.7155 14.202ZM36.4461 15.0912H36.9593V14.0912H36.4461V15.0912ZM36.9593 15.0912C37.5117 15.0912 38.0453 15.2922 38.4604 15.6568L39.1203 14.9054C38.5227 14.3806 37.7546 14.0912 36.9593 14.0912V15.0912ZM38.4604 15.6568C39.058 16.1815 39.8262 16.4709 40.6215 16.4709V15.4709C40.069 15.4709 39.5354 15.2699 39.1203 14.9054L38.4604 15.6568ZM40.6215 16.4709L50.4898 16.4709V15.4709L40.6215 15.4709V16.4709ZM50.4898 16.4709C50.6983 16.4709 50.8985 16.5524 51.0479 16.6979L51.7458 15.9818C51.4098 15.6542 50.9591 15.4709 50.4898 15.4709V16.4709ZM51.0479 16.6979L51.7856 17.4169L52.4836 16.7008L51.7458 15.9818L51.0479 16.6979ZM51.7856 17.4169C52.0301 17.6552 51.8614 18.07 51.52 18.07V19.07C52.7585 19.07 53.3705 17.5652 52.4836 16.7008L51.7856 17.4169ZM51.52 18.07C51.0027 18.07 50.5289 18.3591 50.2923 18.8191L51.1816 19.2765C51.2468 19.1497 51.3774 19.07 51.52 19.07V18.07ZM50.2923 18.8191L50.0006 19.3861L50.8899 19.8436L51.1816 19.2765L50.2923 18.8191ZM50.0006 19.3861C49.744 19.8849 49.2188 20.1869 48.6586 20.1577L48.6066 21.1564C49.5597 21.2061 50.4533 20.6922 50.8899 19.8436L50.0006 19.3861ZM48.6586 20.1577L47.6728 20.1064L47.6207 21.105L48.6066 21.1564L48.6586 20.1577ZM47.6728 20.1064C46.5753 20.0492 45.5036 20.4514 44.7148 21.2166L45.4111 21.9344C46.0004 21.3628 46.8009 21.0623 47.6207 21.105L47.6728 20.1064ZM44.7148 21.2166L44.1109 21.8025L44.8072 22.5202L45.4111 21.9344L44.7148 21.2166ZM44.1109 21.8025C43.6666 22.2335 43.0774 22.4834 42.4586 22.5031L42.4905 23.5026C43.3581 23.4749 44.1842 23.1246 44.8072 22.5202L44.1109 21.8025ZM42.4586 22.5031L42.2016 22.5113L42.2334 23.5108L42.4905 23.5026L42.4586 22.5031ZM42.2016 22.5113C40.4751 22.5664 39.0999 23.9742 39.0851 25.7014L40.0851 25.71C40.0953 24.5193 41.0433 23.5488 42.2334 23.5108L42.2016 22.5113ZM39.0851 25.7014C39.0803 26.2661 38.8604 26.8077 38.4702 27.2159L39.1931 27.9069C39.7591 27.3147 40.0781 26.5291 40.0851 25.71L39.0851 25.7014ZM38.4702 27.2159L34.8442 31.0095L35.5671 31.7005L39.1931 27.9069L38.4702 27.2159ZM34.8442 31.0095C34.4199 31.4534 33.8308 31.7021 33.2168 31.6965L33.2077 32.6965C34.098 32.7045 34.9519 32.344 35.5671 31.7005L34.8442 31.0095ZM33.2168 31.6965C31.6075 31.682 30.2341 32.8566 29.9988 34.4486L30.988 34.5948C31.1503 33.4967 32.0977 32.6865 33.2077 32.6965L33.2168 31.6965ZM29.9988 34.4486L29.9892 34.5132L30.9785 34.6594L30.988 34.5948L29.9988 34.4486ZM29.9892 34.5132C29.894 35.1577 29.5297 35.7315 28.9869 36.0919L29.5401 36.9249C30.319 36.4077 30.8418 35.5843 30.9785 34.6594L29.9892 34.5132ZM28.9869 36.0919L28.3479 36.5162L28.9011 37.3493L29.5401 36.9249L28.9869 36.0919ZM28.3479 36.5162C27.4887 37.0867 27.0091 38.0805 27.0971 39.1081L28.0934 39.0228C28.0366 38.3593 28.3463 37.7177 28.9011 37.3493L28.3479 36.5162ZM27.0971 39.1081L27.1286 39.477L28.125 39.3917L28.0934 39.0228L27.0971 39.1081ZM27.1286 39.477C27.1856 40.1418 26.7584 40.7521 26.1142 40.9262L26.3751 41.8916C27.4863 41.5912 28.2232 40.5386 28.125 39.3917L27.1286 39.477ZM26.1142 40.9262C25.5326 41.0834 24.9163 40.8449 24.592 40.3373L23.7493 40.8757C24.3088 41.7514 25.3719 42.1627 26.3751 41.8916L26.1142 40.9262ZM24.592 40.3373L24.1628 39.6657L23.3202 40.2041L23.7493 40.8757L24.592 40.3373ZM24.1628 39.6657C22.8571 37.622 19.91 37.5172 18.4623 39.4629L19.2646 40.0599C20.2945 38.6756 22.3912 38.7502 23.3202 40.2041L24.1628 39.6657ZM18.4623 39.4629L17.991 40.0965L18.7933 40.6934L19.2646 40.0599L18.4623 39.4629ZM17.991 40.0965C17.7531 40.4162 17.5738 40.7756 17.4615 41.158L18.421 41.4398C18.4999 41.1709 18.626 40.9182 18.7933 40.6934L17.991 40.0965ZM17.4615 41.158L16.9027 43.0607L17.8622 43.3424L18.421 41.4398L17.4615 41.158ZM16.9027 43.0607C16.8867 43.1153 16.8326 43.1495 16.7763 43.1406L16.6197 44.1282C17.1725 44.2159 17.7045 43.8795 17.8622 43.3424L16.9027 43.0607ZM16.7763 43.1406C16.7439 43.1354 16.7153 43.1165 16.6979 43.0886L15.8489 43.6169C16.0195 43.8911 16.3007 44.0776 16.6197 44.1282L16.7763 43.1406ZM16.6979 43.0886L14.398 39.3924L13.549 39.9207L15.8489 43.6169L16.6979 43.0886ZM14.398 39.3924C13.9469 38.6675 13.3134 38.0938 12.5775 37.716L12.1208 38.6056C12.6983 38.9021 13.1951 39.3521 13.549 39.9207L14.398 39.3924ZM12.848 38.1938C13.0422 35.2575 13.713 32.3453 14.8604 29.5753L13.9365 29.1926C12.747 32.0644 12.0515 35.0836 11.8502 38.1278L12.848 38.1938ZM14.8604 29.5753C17.6227 22.9065 22.921 17.6082 29.5898 14.8459L29.2071 13.922C22.2933 16.7858 16.8003 22.2788 13.9365 29.1926L14.8604 29.5753ZM29.5898 14.8459C30.779 14.3533 31.9943 13.9486 33.2265 13.6317L32.9774 12.6632C31.6999 12.9918 30.4399 13.4114 29.2071 13.922L29.5898 14.8459ZM26.0705 46.0572C25.6468 45.3995 26.0204 44.5217 26.7882 44.3712L26.5959 43.3899C25.1346 43.6763 24.4234 45.347 25.2299 46.5988L26.0705 46.0572ZM27.7031 48.5912L26.0705 46.0572L25.2299 46.5988L26.8624 49.1328L27.7031 48.5912ZM29.594 49.9432C28.8144 49.7499 28.1381 49.2663 27.7031 48.5912L26.8624 49.1328C27.4354 50.0222 28.3264 50.6592 29.3533 50.9138L29.594 49.9432ZM31.0048 50.293L29.594 49.9432L29.3533 50.9138L30.7641 51.2636L31.0048 50.293ZM32.0289 50.0079C31.7612 50.276 31.3725 50.3842 31.0047 50.293L30.7641 51.2636C31.4724 51.4392 32.2209 51.2309 32.7365 50.7145L32.0289 50.0079ZM31.9858 48.4405C32.4469 48.854 32.4666 49.5697 32.0289 50.0079L32.7365 50.7145C33.5793 49.8706 33.5414 48.4923 32.6534 47.696L31.9858 48.4405ZM27.7402 44.6334L31.9858 48.4405L32.6534 47.696L28.4078 43.8889L27.7402 44.6334ZM26.7882 44.3712C27.1291 44.3044 27.4816 44.4015 27.7402 44.6334L28.4078 43.8889C27.9156 43.4475 27.2447 43.2627 26.5959 43.3899L26.7882 44.3712ZM40.9699 27.8759C41.7386 28.0862 42.0145 29.0338 41.4789 29.6239L42.2193 30.296C43.2565 29.1535 42.7222 27.3185 41.2338 26.9114L40.9699 27.8759ZM39.8017 28.3105C40.0574 27.9298 40.5276 27.7549 40.9699 27.8759L41.2338 26.9114C40.3773 26.6771 39.4668 27.0157 38.9717 27.7528L39.8017 28.3105ZM38.3955 30.4035L39.8017 28.3105L38.9717 27.7528L37.5654 29.8459L38.3955 30.4035ZM38.8863 31.7467C38.3092 31.5817 38.0607 30.9018 38.3955 30.4035L37.5654 29.8459C36.852 30.9077 37.3815 32.3565 38.6114 32.7081L38.8863 31.7467ZM39.784 31.4909C39.5578 31.74 39.2098 31.8392 38.8863 31.7467L38.6114 32.7081C39.3008 32.9053 40.0424 32.6939 40.5244 32.163L39.784 31.4909ZM41.4789 29.6239L39.784 31.4909L40.5244 32.163L42.2193 30.296L41.4789 29.6239ZM38.4015 49.4178C37.9128 49.3981 37.5615 48.94 37.6694 48.4628L36.694 48.2424C36.4484 49.3289 37.2482 50.3721 38.3612 50.417L38.4015 49.4178ZM41.7573 49.5533L38.4015 49.4178L38.3612 50.417L41.717 50.5525L41.7573 49.5533ZM42.6563 49.285C42.3948 49.4719 42.0785 49.5663 41.7573 49.5533L41.717 50.5525C42.2603 50.5745 42.7954 50.4147 43.2378 50.0985L42.6563 49.285ZM42.9376 49.0839L42.6563 49.285L43.2378 50.0985L43.5191 49.8975L42.9376 49.0839ZM43.2182 48.6011C43.1982 48.7948 43.096 48.9707 42.9376 49.0839L43.5191 49.8975C43.9109 49.6174 44.1635 49.1827 44.2129 48.7037L43.2182 48.6011ZM42.5427 47.8524C42.9453 47.8524 43.2595 48.2007 43.2182 48.6011L44.2129 48.7037C44.315 47.7135 43.5381 46.8524 42.5427 46.8524V47.8524ZM38.4331 47.8524H42.5427V46.8524H38.4331V47.8524ZM37.6694 48.4628C37.75 48.1059 38.0672 47.8524 38.4331 47.8524V46.8524C37.5998 46.8524 36.8777 47.4296 36.694 48.2424L37.6694 48.4628ZM36.2325 54.3048C37.1294 53.389 38.3391 52.8457 39.6195 52.7838L39.5712 51.785C38.039 51.8591 36.5914 52.5092 35.5181 53.6051L36.2325 54.3048ZM35.5867 54.9643L36.2325 54.3048L35.5181 53.6051L34.8722 54.2646L35.5867 54.9643ZM34.7262 57.3201C34.661 56.4477 34.9745 55.5894 35.5867 54.9643L34.8722 54.2646C34.0589 55.0951 33.6424 56.2354 33.729 57.3946L34.7262 57.3201ZM37.7609 60.1366C36.1681 60.1366 34.8448 58.9085 34.7262 57.3201L33.729 57.3946C33.8865 59.5049 35.6447 61.1366 37.7609 61.1366V60.1366ZM38.929 60.1366H37.7609V61.1366H38.929V60.1366ZM42.1335 61.3929C41.2618 60.5853 40.1173 60.1366 38.929 60.1366V61.1366C39.8653 61.1366 40.7671 61.4902 41.4539 62.1265L42.1335 61.3929ZM42.5742 61.8012L42.1335 61.3929L41.4539 62.1265L41.8946 62.5347L42.5742 61.8012ZM44.0577 62.3828C43.5076 62.3828 42.9778 62.175 42.5742 61.8012L41.8946 62.5347C42.483 63.0799 43.2556 63.3828 44.0577 63.3828V62.3828ZM46.2405 60.1999C46.2405 61.4055 45.2632 62.3828 44.0577 62.3828V63.3828C45.8155 63.3828 47.2405 61.9578 47.2405 60.1999H46.2405ZM46.2405 58.3528V60.1999H47.2405V58.3528H46.2405ZM45.211 55.6624C45.8739 56.4017 46.2405 57.3598 46.2405 58.3528H47.2405C47.2405 57.1134 46.7829 55.9176 45.9555 54.9948L45.211 55.6624ZM44.2916 54.637L45.211 55.6624L45.9555 54.9948L45.0361 53.9694L44.2916 54.637ZM39.8316 52.7736C41.5229 52.6918 43.1611 53.3763 44.2916 54.637L45.0361 53.9694C43.7047 52.4846 41.7753 51.6785 39.7833 51.7748L39.8316 52.7736ZM39.6195 52.7838L39.8316 52.7736L39.7833 51.7748L39.5712 51.785L39.6195 52.7838ZM32.336 41.9548C31.3052 43.0138 31.5109 44.7532 32.7603 45.5426L33.2944 44.6972C32.5823 44.2473 32.4651 43.2559 33.0526 42.6523L32.336 41.9548ZM34.3502 39.8856L32.336 41.9548L33.0526 42.6523L35.0668 40.5831L34.3502 39.8856ZM35.7742 39.5061C35.2658 39.361 34.7189 39.5068 34.3502 39.8856L35.0668 40.5831C35.1789 40.4679 35.3452 40.4236 35.4998 40.4677L35.7742 39.5061ZM36.5936 41.657C37.1073 40.8463 36.6971 39.7694 35.7742 39.5061L35.4998 40.4677C35.7804 40.5478 35.9051 40.8752 35.7489 41.1217L36.5936 41.657ZM36.5429 41.7368L36.5936 41.657L35.7489 41.1217L35.6983 41.2015L36.5429 41.7368ZM36.4673 42.0652C36.4544 41.9503 36.4811 41.8345 36.5429 41.7368L35.6983 41.2015C35.5145 41.4916 35.4352 41.8357 35.4735 42.1769L36.4673 42.0652ZM36.5543 42.8397L36.4673 42.0652L35.4735 42.1769L35.5605 42.9514L36.5543 42.8397ZM36.063 44.6969C36.453 44.161 36.6283 43.4984 36.5543 42.8397L35.5605 42.9514C35.6066 43.3618 35.4975 43.7746 35.2544 44.1085L36.063 44.6969ZM35.8825 44.945L36.063 44.6969L35.2544 44.1085L35.0739 44.3566L35.8825 44.945ZM32.7603 45.5426C33.796 46.1969 35.1617 45.9355 35.8825 44.945L35.0739 44.3566C34.6631 44.9211 33.8847 45.0701 33.2944 44.6972L32.7603 45.5426ZM49.5453 61.2338C49.097 61.8811 49.1174 62.7436 49.5957 63.3691L50.39 62.7616C50.1753 62.4808 50.1662 62.0937 50.3674 61.8031L49.5453 61.2338ZM50.4498 59.9275L49.5453 61.2338L50.3674 61.8031L51.2719 60.4968L50.4498 59.9275ZM53.1648 59.617C52.3519 58.8787 51.0749 59.0247 50.4498 59.9275L51.2719 60.4968C51.5529 60.091 52.127 60.0253 52.4925 60.3572L53.1648 59.617ZM53.4341 62.0002C53.956 61.251 53.8407 60.2308 53.1648 59.617L52.4925 60.3572C52.7963 60.6332 52.8481 61.0918 52.6135 61.4286L53.4341 62.0002ZM52.526 63.3039L53.4341 62.0002L52.6135 61.4286L51.7055 62.7323L52.526 63.3039ZM49.5957 63.3691C50.3424 64.3455 51.8235 64.3126 52.526 63.3039L51.7055 62.7323C51.3901 63.1851 50.7252 63.1999 50.39 62.7616L49.5957 63.3691Z" fill="currentColor" />
</svg>