<svg viewBox="0 0 80 80" fill="none">
  <path d="M29.3929 14.3924C36.1842 11.5794 43.8148 11.5794 50.6061 14.3924V14.3924C57.3974 17.2055 62.7931 22.6011 65.6061 29.3924V29.3924C68.4192 36.1837 68.4192 43.8143 65.6061 50.6056V50.6056C62.7931 57.3969 57.3974 62.7926 50.6061 65.6056V65.6056C43.8148 68.4187 36.1842 68.4187 29.3929 65.6056V65.6056C22.6016 62.7926 17.206 57.3969 14.3929 50.6056V50.6056C11.5799 43.8143 11.5799 36.1837 14.3929 29.3924V29.3924C17.206 22.6011 22.6016 17.2055 29.3929 14.3924V14.3924Z" stroke="currentColor" stroke-width="5" stroke-linecap="round" stroke-linejoin="round" />
  <path fill-rule="evenodd" clip-rule="evenodd" d="M47.0791 13.1913L43.2447 17.1845C42.9814 17.4587 42.8476 17.8322 42.8768 18.2112L42.8836 18.2996C42.9816 19.5713 41.3859 20.2152 40.5738 19.2317C40.3256 18.9311 39.9562 18.7571 39.5665 18.7571L37.4361 18.7571C36.0947 18.7571 35.0073 19.8445 35.0073 21.1859C35.0073 22.265 35.7192 23.2146 36.7549 23.5173L38.2952 23.9673C39.1253 24.2098 39.8695 24.6829 40.4413 25.3316L41.0386 26.009C42.42 27.5759 44.3796 28.5132 46.4665 28.605L47.1686 28.636C49.2371 28.727 51.1816 29.6478 52.5628 31.1903L53.2296 31.935C53.7214 32.4842 54.3528 32.8898 55.0568 33.1086C56.7618 33.6386 57.9237 35.2164 57.9237 37.002V37.5941C57.9237 38.8559 57.435 40.0687 56.5603 40.9781L46.3143 51.6297C45.6208 52.3506 45.2334 53.3121 45.2334 54.3124V58.8073C45.2334 60.0912 43.7785 60.8345 42.7382 60.0821C42.487 59.9005 42.2951 59.6487 42.1865 59.3584L41.2432 56.8359C40.908 55.9396 40.7364 54.9905 40.7364 54.0337V47.5176C40.7364 45.7318 40.1389 43.9974 39.039 42.5905L38.2792 41.6185C37.2339 40.2814 36.641 38.6465 36.586 36.9502L36.4682 33.31C36.4399 32.4368 36.7489 31.5862 37.331 30.9347L37.4558 30.7951C38.4947 29.6325 38.5373 27.8881 37.5564 26.6761C37.0652 26.0693 36.3679 25.6644 35.5975 25.5385L33.9093 25.2628C32.1844 24.9811 30.6075 24.1185 29.44 22.8179L24.3335 17.1293C25.91 16.0485 27.6056 15.1259 29.3985 14.3832C35.0338 12.049 41.247 11.6517 47.0791 13.1913Z" fill="currentColor" />
  <path d="M47.0791 13.1913L47.4397 13.5376C47.5624 13.4098 47.6084 13.2266 47.5605 13.0561C47.5126 12.8855 47.378 12.753 47.2067 12.7078L47.0791 13.1913ZM43.2447 17.1845L42.8841 16.8381L43.2447 17.1845ZM42.8768 18.2112L42.3783 18.2496L42.8768 18.2112ZM42.8836 18.2996L42.3851 18.338V18.338L42.8836 18.2996ZM40.5738 19.2317L40.1883 19.55V19.55L40.5738 19.2317ZM36.7549 23.5173L36.8951 23.0373L36.8951 23.0373L36.7549 23.5173ZM38.2952 23.9673L38.155 24.4472L38.2952 23.9673ZM40.4413 25.3316L40.8164 25.0009L40.4413 25.3316ZM41.0386 26.009L41.4136 25.6784L41.4136 25.6784L41.0386 26.009ZM46.4665 28.605L46.4885 28.1055L46.4665 28.605ZM47.1686 28.636L47.1466 29.1355H47.1466L47.1686 28.636ZM52.5628 31.1903L52.1903 31.5239L52.5628 31.1903ZM53.2296 31.935L52.8571 32.2685L53.2296 31.935ZM55.0568 33.1086L54.9083 33.586L55.0568 33.1086ZM56.5603 40.9781L56.1999 40.6315V40.6315L56.5603 40.9781ZM46.3143 51.6297L45.9539 51.283L46.3143 51.6297ZM42.7382 60.0821L42.4452 60.4873H42.4452L42.7382 60.0821ZM42.1865 59.3584L42.6549 59.1832V59.1832L42.1865 59.3584ZM41.2432 56.8359L40.7749 57.011V57.011L41.2432 56.8359ZM39.039 42.5905L39.433 42.2825V42.2825L39.039 42.5905ZM38.2792 41.6185L37.8853 41.9264H37.8853L38.2792 41.6185ZM36.586 36.9502L36.0863 36.9664V36.9664L36.586 36.9502ZM36.4682 33.31L35.9685 33.3262L36.4682 33.31ZM37.331 30.9347L37.7039 31.2679L37.7039 31.2679L37.331 30.9347ZM37.4558 30.7951L37.083 30.4619L37.4558 30.7951ZM37.5564 26.6761L37.1677 26.9907L37.5564 26.6761ZM35.5975 25.5385L35.678 25.0451L35.5975 25.5385ZM33.9093 25.2628L33.8287 25.7563L33.9093 25.2628ZM29.44 22.8179L29.8121 22.4839L29.8121 22.4839L29.44 22.8179ZM24.3335 17.1293L24.0508 16.7169C23.932 16.7983 23.8542 16.9269 23.837 17.0698C23.8199 17.2128 23.8653 17.3561 23.9614 17.4633L24.3335 17.1293ZM29.3985 14.3832L29.5898 14.8452H29.5898L29.3985 14.3832ZM46.7184 12.845L42.8841 16.8381L43.6054 17.5308L47.4397 13.5376L46.7184 12.845ZM42.8841 16.8381C42.5221 17.2151 42.3381 17.7285 42.3783 18.2496L43.3753 18.1728C43.357 17.9358 43.4407 17.7022 43.6054 17.5308L42.8841 16.8381ZM42.3783 18.2496L42.3851 18.338L43.3821 18.2612L43.3753 18.1728L42.3783 18.2496ZM42.3851 18.338C42.4455 19.1229 41.4606 19.5204 40.9594 18.9133L40.1883 19.55C41.3112 20.91 43.5176 20.0196 43.3821 18.2612L42.3851 18.338ZM40.9594 18.9133C40.6162 18.4977 40.1054 18.2571 39.5665 18.2571V19.2571C39.8071 19.2571 40.0351 19.3645 40.1883 19.55L40.9594 18.9133ZM39.5665 18.2571L37.4361 18.2571V19.2571L39.5665 19.2571V18.2571ZM37.4361 18.2571C35.8186 18.2571 34.5073 19.5684 34.5073 21.1859H35.5073C35.5073 20.1207 36.3708 19.2571 37.4361 19.2571V18.2571ZM34.5073 21.1859C34.5073 22.4871 35.3657 23.6323 36.6147 23.9972L36.8951 23.0373C36.0726 22.797 35.5073 22.0428 35.5073 21.1859H34.5073ZM36.6147 23.9972L38.155 24.4472L38.4355 23.4874L36.8951 23.0373L36.6147 23.9972ZM38.155 24.4472C38.8942 24.6632 39.557 25.0845 40.0663 25.6622L40.8164 25.0009C40.182 24.2813 39.3563 23.7564 38.4355 23.4874L38.155 24.4472ZM40.0663 25.6622L40.6635 26.3397L41.4136 25.6784L40.8164 25.0009L40.0663 25.6622ZM40.6635 26.3397C42.1348 28.0085 44.2219 29.0067 46.4445 29.1046L46.4885 28.1055C44.5373 28.0196 42.7052 27.1433 41.4136 25.6784L40.6635 26.3397ZM46.4445 29.1046L47.1466 29.1355L47.1906 28.1364L46.4885 28.1055L46.4445 29.1046ZM47.1466 29.1355C49.0807 29.2206 50.8988 30.0816 52.1903 31.5239L52.9353 30.8568C51.4643 29.2141 49.3935 28.2334 47.1906 28.1364L47.1466 29.1355ZM52.1903 31.5239L52.8571 32.2685L53.6021 31.6015L52.9353 30.8568L52.1903 31.5239ZM52.8571 32.2685C53.4092 32.8851 54.1181 33.3404 54.9083 33.586L55.2052 32.6311C54.5876 32.4391 54.0335 32.0833 53.6021 31.6015L52.8571 32.2685ZM54.9083 33.586C56.4043 34.0511 57.4237 35.4354 57.4237 37.002L58.4237 37.002C58.4237 34.9974 57.1193 33.2261 55.2052 32.6311L54.9083 33.586ZM57.4237 37.002V37.5941L58.4237 37.5941V37.002L57.4237 37.002ZM57.4237 37.5941C57.4237 38.7267 56.9851 39.8152 56.1999 40.6315L56.9206 41.3247C57.885 40.3222 58.4237 38.9852 58.4237 37.5941L57.4237 37.5941ZM56.1999 40.6315L45.9539 51.283L46.6746 51.9763L56.9206 41.3247L56.1999 40.6315ZM45.9539 51.283C45.1708 52.0971 44.7334 53.1828 44.7334 54.3124H45.7334C45.7334 53.4413 46.0707 52.6041 46.6746 51.9763L45.9539 51.283ZM44.7334 54.3124V58.8073H45.7334V54.3124H44.7334ZM44.7334 58.8073C44.7334 59.6831 43.7409 60.1902 43.0312 59.677L42.4452 60.4873C43.8162 61.4787 45.7334 60.4992 45.7334 58.8073H44.7334ZM43.0312 59.677C42.8599 59.5531 42.7289 59.3813 42.6549 59.1832L41.7182 59.5335C41.8613 59.9161 42.1142 60.2479 42.4452 60.4873L43.0312 59.677ZM42.6549 59.1832L41.7115 56.6607L40.7749 57.011L41.7182 59.5335L42.6549 59.1832ZM41.7115 56.6607C41.3973 55.8205 41.2364 54.9307 41.2364 54.0337H40.2364C40.2364 55.0503 40.4188 56.0588 40.7749 57.011L41.7115 56.6607ZM41.2364 54.0337V47.5176H40.2364V54.0337H41.2364ZM41.2364 47.5176C41.2364 45.6202 40.6015 43.7773 39.433 42.2825L38.6451 42.8984C39.6762 44.2174 40.2364 45.8434 40.2364 47.5176H41.2364ZM39.433 42.2825L38.6731 41.3105L37.8853 41.9264L38.6451 42.8984L39.433 42.2825ZM38.6731 41.3105C37.6932 40.057 37.1373 38.5243 37.0858 36.9341L36.0863 36.9664C36.1447 38.7687 36.7747 40.5058 37.8853 41.9264L38.6731 41.3105ZM37.0858 36.9341L36.9679 33.2938L35.9685 33.3262L36.0863 36.9664L37.0858 36.9341ZM36.9679 33.2938C36.9438 32.549 37.2074 31.8236 37.7039 31.2679L36.9582 30.6016C36.2905 31.3489 35.936 32.3246 35.9685 33.3262L36.9679 33.2938ZM37.7039 31.2679L37.8287 31.1282L37.083 30.4619L36.9582 30.6016L37.7039 31.2679ZM37.8287 31.1282C39.0309 29.7828 39.0802 27.7641 37.945 26.3616L37.1677 26.9907C37.9944 28.0121 37.9585 29.4821 37.083 30.4619L37.8287 31.1282ZM37.945 26.3616C37.3766 25.6593 36.5697 25.1907 35.678 25.0451L35.5169 26.032C36.1662 26.1381 36.7538 26.4793 37.1677 26.9907L37.945 26.3616ZM35.678 25.0451L33.9899 24.7694L33.8287 25.7563L35.5169 26.032L35.678 25.0451ZM33.9899 24.7694C32.3775 24.506 30.9035 23.6996 29.8121 22.4839L29.068 23.1519C30.3116 24.5373 31.9913 25.4562 33.8287 25.7563L33.9899 24.7694ZM29.8121 22.4839L24.7056 16.7953L23.9614 17.4633L29.068 23.1519L29.8121 22.4839ZM24.6162 17.5417C26.1643 16.4804 27.8293 15.5744 29.5898 14.8452L29.2071 13.9213C27.3819 14.6773 25.6557 15.6166 24.0508 16.7169L24.6162 17.5417ZM29.5898 14.8452C35.1235 12.5531 41.2246 12.1629 46.9515 13.6747L47.2067 12.7078C41.2694 11.1405 34.9441 11.5449 29.2071 13.9213L29.5898 14.8452Z" fill="currentColor" />
</svg>