<svg viewBox="0 0 80 80" fill="none">
  <path d="M29.6766 14.3934C36.4679 11.5804 44.0985 11.5804 50.8898 14.3934V14.3934C57.6811 17.2064 63.0768 22.6021 65.8898 29.3934V29.3934C68.7028 36.1847 68.7028 43.8153 65.8898 50.6066V50.6066C63.0768 57.3979 57.6811 62.7936 50.8898 65.6066V65.6066C44.0985 68.4196 36.4679 68.4196 29.6766 65.6066V65.6066C22.8853 62.7936 17.4896 57.3979 14.6766 50.6066V50.6066C11.8636 43.8153 11.8636 36.1847 14.6766 29.3934V29.3934C17.4896 22.6021 22.8853 17.2064 29.6766 14.3934V14.3934Z" stroke="currentColor" stroke-width="5" stroke-linecap="round" stroke-linejoin="round" />
  <path fill-rule="evenodd" clip-rule="evenodd" d="M42.9401 67.58C42.7955 66.9734 42.7221 66.3509 42.7221 65.7251V60.2379C42.7221 58.4571 42.1279 56.7272 41.0337 55.3223L40.6655 54.8496C39.6255 53.5143 39.0358 51.8835 38.9813 50.1919L38.8832 47.1506C38.8578 46.3629 39.1358 45.5956 39.6598 45.007L39.774 44.8786C40.7078 43.8297 40.7461 42.2594 39.8646 41.1662C39.4212 40.6164 38.7907 40.2492 38.0936 40.1349L36.5819 39.8871C35.0306 39.6327 33.6131 38.855 32.5651 37.6832L27.858 32.4199C26.785 31.2201 26.0988 29.7245 25.8893 28.1286L25.4718 24.95C25.2705 23.417 24.4875 22.02 23.2847 21.0483L22.5438 20.4497C22.1768 20.1532 21.7693 19.9236 21.3391 19.7641C23.7509 17.5046 26.5699 15.6731 29.6821 14.3841C31.1896 13.7596 32.7385 13.2738 34.3104 12.9266L39.2359 13.8119C40.0097 13.951 40.6896 14.4087 41.1096 15.0734L41.4111 15.5506C41.8933 16.3136 41.8179 17.3024 41.2258 17.9836C40.5371 18.7759 40.5605 19.9611 41.28 20.7256L42.2955 21.8046C42.9483 22.4984 43.8876 22.8475 44.8351 22.7487L45.8298 22.6449C46.6377 22.5607 47.2847 21.9376 47.3993 21.1335L47.5288 20.2258C47.6824 19.1481 49.0034 18.7122 49.7683 19.4867C49.9773 19.6983 50.2519 19.8329 50.5472 19.8685L51.9482 20.0374C52.8407 20.145 53.5863 20.7675 53.8516 21.6265C54.0954 22.416 53.8925 23.2757 53.3212 23.8728L44.9769 32.5953C44.7408 32.8421 44.6208 33.1778 44.647 33.5184L44.6537 33.6062C44.7415 34.7504 43.3048 35.3284 42.5758 34.4421C42.3527 34.171 42.0199 34.0138 41.6688 34.0138H39.7629C38.5514 34.0138 37.5693 34.996 37.5693 36.2075C37.5693 37.1813 38.2112 38.0385 39.1456 38.3125L40.5243 38.7168C41.2722 38.9362 41.9424 39.3636 42.4568 39.9492L42.9933 40.56C44.2359 41.9747 46.0017 42.8215 47.8829 42.9046L48.5003 42.9319C50.3648 43.0143 52.117 43.8462 53.3595 45.239L53.9584 45.9104C54.4008 46.4062 54.9695 46.7727 55.6038 46.9706C57.1366 47.4488 58.1804 48.868 58.1804 50.4737V51.0213C58.1804 52.1595 57.7408 53.2537 56.9533 54.0754L47.7367 63.6927C47.1142 64.3422 46.7667 65.2071 46.7667 66.1067V66.9395C45.5042 67.243 44.2254 67.4565 42.9401 67.58ZM45.9355 12.8555C47.6211 13.2062 49.2819 13.7158 50.8953 14.3841C51.2896 14.5474 51.6791 14.7194 52.0638 14.8999C52.3379 15.6478 51.809 16.5114 50.9466 16.5346C50.656 16.5424 50.372 16.4461 50.146 16.2632L45.9355 12.8555Z" fill="currentColor" />
  <path d="M42.9401 67.58L42.4537 67.6959C42.5115 67.9386 42.7395 68.1015 42.9879 68.0777L42.9401 67.58ZM41.0337 55.3223L41.4281 55.0151L41.0337 55.3223ZM40.6655 54.8496L40.271 55.1568L40.2711 55.1568L40.6655 54.8496ZM38.9813 50.1919L39.481 50.1757L38.9813 50.1919ZM38.8832 47.1506L38.3834 47.1667V47.1667L38.8832 47.1506ZM39.6598 45.007L40.0332 45.3394L40.0332 45.3394L39.6598 45.007ZM39.774 44.8786L39.4006 44.5461L39.4006 44.5462L39.774 44.8786ZM39.8646 41.1662L39.4754 41.4801L39.8646 41.1662ZM38.0936 40.1349L38.1745 39.6415L38.0936 40.1349ZM36.5819 39.8871L36.501 40.3805H36.501L36.5819 39.8871ZM32.5651 37.6832L32.9378 37.3499L32.5651 37.6832ZM27.858 32.4199L27.4853 32.7532H27.4853L27.858 32.4199ZM25.8893 28.1286L25.3935 28.1937L25.8893 28.1286ZM25.4718 24.95L24.9761 25.0151L25.4718 24.95ZM23.2847 21.0483L23.599 20.6594L23.599 20.6594L23.2847 21.0483ZM22.5438 20.4497L22.858 20.0608H22.858L22.5438 20.4497ZM21.3391 19.7641L20.9973 19.3993C20.8708 19.5177 20.8147 19.6931 20.849 19.8629C20.8832 20.0327 21.0029 20.1727 21.1653 20.233L21.3391 19.7641ZM29.6821 14.3841L29.8734 14.846L29.6821 14.3841ZM34.3104 12.9266L34.3988 12.4345C34.3338 12.4228 34.2671 12.4241 34.2025 12.4383L34.3104 12.9266ZM39.2359 13.8119L39.1474 14.304L39.2359 13.8119ZM41.1096 15.0734L41.5323 14.8063V14.8063L41.1096 15.0734ZM41.4111 15.5506L40.9885 15.8177L41.4111 15.5506ZM41.2258 17.9836L40.8485 17.6556L41.2258 17.9836ZM41.28 20.7256L40.9158 21.0683L41.28 20.7256ZM42.2955 21.8046L42.6596 21.462V21.462L42.2955 21.8046ZM44.8351 22.7487L44.887 23.246L44.8351 22.7487ZM45.8298 22.6449L45.8816 23.1423V23.1423L45.8298 22.6449ZM47.3993 21.1335L46.9043 21.0629L47.3993 21.1335ZM47.5288 20.2258L48.0238 20.2964V20.2964L47.5288 20.2258ZM49.7683 19.4867L49.4126 19.838L49.7683 19.4867ZM50.5472 19.8685L50.4874 20.3649L50.5472 19.8685ZM51.9482 20.0374L52.008 19.541L51.9482 20.0374ZM53.8516 21.6265L54.3293 21.4789V21.4789L53.8516 21.6265ZM53.3212 23.8728L53.6825 24.2184V24.2184L53.3212 23.8728ZM44.9769 32.5953L44.6156 32.2497L44.9769 32.5953ZM44.647 33.5184L45.1455 33.4801V33.4801L44.647 33.5184ZM44.6537 33.6062L44.1552 33.6444V33.6444L44.6537 33.6062ZM42.5758 34.4421L42.1896 34.7598V34.7598L42.5758 34.4421ZM39.1456 38.3125L39.2863 37.8327L39.1456 38.3125ZM40.5243 38.7168L40.3836 39.1966L40.5243 38.7168ZM42.4568 39.9492L42.0811 40.2791V40.2791L42.4568 39.9492ZM42.9933 40.56L43.3689 40.23L42.9933 40.56ZM47.8829 42.9046L47.8608 43.4042L47.8829 42.9046ZM48.5003 42.9319L48.5223 42.4324H48.5223L48.5003 42.9319ZM53.3595 45.239L52.9864 45.5718L53.3595 45.239ZM53.9584 45.9104L54.3316 45.5775L54.3316 45.5775L53.9584 45.9104ZM55.6038 46.9706L55.7527 46.4933L55.6038 46.9706ZM56.9533 54.0754L56.5923 53.7295V53.7295L56.9533 54.0754ZM47.7367 63.6927L47.3757 63.3468L47.7367 63.6927ZM46.7667 66.9395L46.8836 67.4256C47.1083 67.3716 47.2667 67.1706 47.2667 66.9395H46.7667ZM45.9355 12.8555L46.0373 12.366C45.8114 12.3189 45.5826 12.4327 45.4837 12.6412C45.3848 12.8498 45.4415 13.0989 45.6209 13.2441L45.9355 12.8555ZM50.8953 14.3841L50.7039 14.846L50.8953 14.3841ZM52.0638 14.8999L52.5332 14.7278C52.4879 14.6041 52.3955 14.5032 52.2762 14.4472L52.0638 14.8999ZM50.9466 16.5346L50.9601 17.0344L50.9466 16.5346ZM50.146 16.2632L50.4605 15.8745V15.8745L50.146 16.2632ZM43.4264 67.464C43.2909 66.8954 43.2221 66.3118 43.2221 65.7251H42.2221C42.2221 66.39 42.3001 67.0514 42.4537 67.6959L43.4264 67.464ZM43.2221 65.7251V60.2379H42.2221V65.7251H43.2221ZM43.2221 60.2379C43.2221 58.3458 42.5907 56.5078 41.4281 55.0151L40.6392 55.6295C41.665 56.9467 42.2221 58.5684 42.2221 60.2379H43.2221ZM41.4281 55.0151L41.06 54.5424L40.2711 55.1568L40.6392 55.6295L41.4281 55.0151ZM41.06 54.5424C40.085 53.2905 39.5322 51.7617 39.481 50.1757L38.4815 50.208C38.5395 52.0054 39.1661 53.7381 40.271 55.1568L41.06 54.5424ZM39.481 50.1757L39.3829 47.1345L38.3834 47.1667L38.4815 50.208L39.481 50.1757ZM39.3829 47.1345C39.3617 46.4749 39.5944 45.8323 40.0332 45.3394L39.2863 44.6745C38.6771 45.3588 38.3539 46.251 38.3834 47.1667L39.3829 47.1345ZM40.0332 45.3394L40.1475 45.2111L39.4006 44.5462L39.2863 44.6745L40.0332 45.3394ZM40.1475 45.2111C41.2438 43.9796 41.2888 42.1359 40.2538 40.8524L39.4754 41.4801C40.2034 42.383 40.1718 43.6799 39.4006 44.5461L40.1475 45.2111ZM40.2538 40.8524C39.7332 40.2068 38.9929 39.7757 38.1745 39.6415L38.0127 40.6283C38.5884 40.7227 39.1092 41.0259 39.4754 41.4801L40.2538 40.8524ZM38.1745 39.6415L36.6628 39.3937L36.501 40.3805L38.0127 40.6283L38.1745 39.6415ZM36.6628 39.3937C35.2242 39.1578 33.9096 38.4366 32.9378 37.3499L32.1924 38.0166C33.3165 39.2735 34.837 40.1077 36.501 40.3805L36.6628 39.3937ZM32.9378 37.3499L28.2307 32.0866L27.4853 32.7532L32.1924 38.0166L32.9378 37.3499ZM28.2307 32.0866C27.2247 30.9618 26.5815 29.5597 26.385 28.0635L25.3935 28.1937C25.6162 29.8894 26.3452 31.4784 27.4853 32.7532L28.2307 32.0866ZM26.385 28.0635L25.9676 24.8849L24.9761 25.0151L25.3935 28.1937L26.385 28.0635ZM25.9676 24.8849C25.7496 23.2246 24.9015 21.7117 23.599 20.6594L22.9705 21.4372C24.0734 22.3283 24.7915 23.6093 24.9761 25.0151L25.9676 24.8849ZM23.599 20.6594L22.858 20.0608L22.2296 20.8386L22.9705 21.4372L23.599 20.6594ZM22.858 20.0608C22.4484 19.7298 21.9933 19.4734 21.5129 19.2953L21.1653 20.233C21.5453 20.3738 21.9053 20.5766 22.2296 20.8386L22.858 20.0608ZM21.681 20.129C24.0492 17.9102 26.8174 16.1118 29.8734 14.846L29.4907 13.9221C26.3225 15.2345 23.4525 17.0989 20.9973 19.3993L21.681 20.129ZM29.8734 14.846C31.3538 14.2328 32.8747 13.7557 34.4182 13.4148L34.2025 12.4383C32.6023 12.7918 31.0254 13.2864 29.4907 13.9221L29.8734 14.846ZM34.2219 13.4187L39.1474 14.304L39.3243 13.3198L34.3988 12.4345L34.2219 13.4187ZM39.1474 14.304C39.7832 14.4183 40.3418 14.7943 40.6869 15.3404L41.5323 14.8063C41.0373 14.023 40.2362 13.4837 39.3243 13.3198L39.1474 14.304ZM40.6869 15.3404L40.9885 15.8177L41.8338 15.2835L41.5323 14.8063L40.6869 15.3404ZM40.9885 15.8177C41.3527 16.394 41.2958 17.141 40.8485 17.6556L41.6032 18.3116C42.3401 17.4639 42.4339 16.2331 41.8338 15.2835L40.9885 15.8177ZM40.8485 17.6556C39.9912 18.6417 40.0204 20.1168 40.9158 21.0683L41.6441 20.3829C41.1006 19.8054 41.0829 18.9101 41.6032 18.3116L40.8485 17.6556ZM40.9158 21.0683L41.9314 22.1473L42.6596 21.462L41.6441 20.3829L40.9158 21.0683ZM41.9314 22.1473C42.6912 22.9547 43.7843 23.361 44.887 23.246L44.7832 22.2514C43.991 22.334 43.2055 22.0421 42.6596 21.462L41.9314 22.1473ZM44.887 23.246L45.8816 23.1423L45.7779 22.1476L44.7832 22.2514L44.887 23.246ZM45.8816 23.1423C46.9176 23.0342 47.7473 22.2353 47.8943 21.2041L46.9043 21.0629C46.822 21.64 46.3577 22.0872 45.7779 22.1476L45.8816 23.1423ZM47.8943 21.2041L48.0238 20.2964L47.0338 20.1552L46.9043 21.0629L47.8943 21.2041ZM48.0238 20.2964C48.1191 19.6281 48.9382 19.3577 49.4126 19.838L50.124 19.1353C49.0685 18.0666 47.2458 18.6682 47.0338 20.1552L48.0238 20.2964ZM49.4126 19.838C49.701 20.13 50.0798 20.3158 50.4874 20.3649L50.6071 19.3721C50.4239 19.35 50.2537 19.2665 50.124 19.1353L49.4126 19.838ZM50.4874 20.3649L51.8883 20.5338L52.008 19.541L50.6071 19.3721L50.4874 20.3649ZM51.8883 20.5338C52.5849 20.6178 53.1668 21.1037 53.3739 21.774L54.3293 21.4789C54.0058 20.4314 53.0964 19.6722 52.008 19.541L51.8883 20.5338ZM53.3739 21.774C53.5642 22.3902 53.4057 23.0612 52.9599 23.5272L53.6825 24.2184C54.3792 23.4902 54.6267 22.4418 54.3293 21.4789L53.3739 21.774ZM52.9599 23.5272L44.6156 32.2497L45.3382 32.9409L53.6825 24.2184L52.9599 23.5272ZM44.6156 32.2497C44.2813 32.5991 44.1114 33.0744 44.1484 33.5566L45.1455 33.4801C45.1302 33.2811 45.2003 33.0851 45.3382 32.9409L44.6156 32.2497ZM44.1484 33.5566L44.1552 33.6444L45.1522 33.5679L45.1455 33.4801L44.1484 33.5566ZM44.1552 33.6444C44.2056 34.3015 43.3806 34.6334 42.9619 34.1245L42.1896 34.7598C43.2291 36.0234 45.2775 35.1993 45.1522 33.5679L44.1552 33.6444ZM42.9619 34.1245C42.6438 33.7379 42.1694 33.5138 41.6688 33.5138V34.5138C41.8704 34.5138 42.0615 34.6041 42.1896 34.7598L42.9619 34.1245ZM41.6688 33.5138H39.7629V34.5138H41.6688V33.5138ZM39.7629 33.5138C38.2753 33.5138 37.0693 34.7198 37.0693 36.2075H38.0693C38.0693 35.2721 38.8275 34.5138 39.7629 34.5138V33.5138ZM37.0693 36.2075C37.0693 37.4032 37.8575 38.4558 39.0049 38.7923L39.2863 37.8327C38.5649 37.6211 38.0693 36.9593 38.0693 36.2075H37.0693ZM39.0049 38.7923L40.3836 39.1966L40.665 38.2371L39.2863 37.8327L39.0049 38.7923ZM40.3836 39.1966C41.0406 39.3893 41.6293 39.7647 42.0811 40.2791L42.8325 39.6192C42.2556 38.9624 41.5039 38.4831 40.665 38.2371L40.3836 39.1966ZM42.0811 40.2791L42.6176 40.89L43.3689 40.23L42.8325 39.6192L42.0811 40.2791ZM42.6176 40.89C43.9501 42.407 45.8436 43.315 47.8608 43.4042L47.9049 42.4051C46.1598 42.328 44.5217 41.5425 43.3689 40.23L42.6176 40.89ZM47.8608 43.4042L48.4782 43.4314L48.5223 42.4324L47.9049 42.4051L47.8608 43.4042ZM48.4782 43.4314C50.208 43.5079 51.8337 44.2797 52.9864 45.5718L53.7326 44.9061C52.4004 43.4128 50.5216 42.5208 48.5223 42.4324L48.4782 43.4314ZM52.9864 45.5718L53.5853 46.2432L54.3316 45.5775L53.7326 44.9061L52.9864 45.5718ZM53.5853 46.2432C54.088 46.8067 54.7341 47.223 55.4549 47.4479L55.7527 46.4933C55.2048 46.3223 54.7136 46.0058 54.3316 45.5775L53.5853 46.2432ZM55.4549 47.4479C56.7788 47.861 57.6804 49.0868 57.6804 50.4737H58.6804C58.6804 48.6493 57.4943 47.0367 55.7527 46.4933L55.4549 47.4479ZM57.6804 50.4737V51.0213H58.6804V50.4737H57.6804ZM57.6804 51.0213C57.6804 52.0305 57.2906 53.0008 56.5923 53.7295L57.3143 54.4214C58.191 53.5065 58.6804 52.2884 58.6804 51.0213H57.6804ZM56.5923 53.7295L47.3757 63.3468L48.0977 64.0387L57.3143 54.4214L56.5923 53.7295ZM47.3757 63.3468C46.664 64.0894 46.2667 65.0781 46.2667 66.1067H47.2667C47.2667 65.336 47.5644 64.5951 48.0977 64.0387L47.3757 63.3468ZM46.2667 66.1067V66.9395H47.2667V66.1067H46.2667ZM46.6499 66.4533C45.4101 66.7514 44.1544 66.961 42.8922 67.0823L42.9879 68.0777C44.2964 67.952 45.5982 67.7346 46.8836 67.4256L46.6499 66.4533ZM45.8336 13.345C47.4888 13.6894 49.1196 14.1897 50.7039 14.846L51.0866 13.9221C49.4441 13.2418 47.7534 12.723 46.0373 12.366L45.8336 13.345ZM50.7039 14.846C51.0911 15.0064 51.4737 15.1753 51.8514 15.3525L52.2762 14.4472C51.8846 14.2635 51.488 14.0884 51.0866 13.9221L50.7039 14.846ZM51.5943 15.072C51.7563 15.5137 51.4383 16.0212 50.9332 16.0348L50.9601 17.0344C52.1798 17.0017 52.9196 15.7819 52.5332 14.7278L51.5943 15.072ZM50.9332 16.0348C50.7616 16.0394 50.594 15.9826 50.4605 15.8745L49.8314 16.6519C50.1501 16.9097 50.5503 17.0454 50.9601 17.0344L50.9332 16.0348ZM50.4605 15.8745L46.25 12.4668L45.6209 13.2441L49.8314 16.6519L50.4605 15.8745Z" fill="currentColor" />
</svg>