<svg viewBox="0 0 80 80" fill="none">
  <path d="M29.3929 14.3929C36.1842 11.5799 43.8148 11.5799 50.6061 14.3929V14.3929C57.3974 17.206 62.7931 22.6016 65.6061 29.3929V29.3929C68.4192 36.1842 68.4192 43.8148 65.6061 50.6061V50.6061C62.7931 57.3974 57.3974 62.7931 50.6061 65.6061V65.6061C43.8148 68.4192 36.1842 68.4192 29.3929 65.6061V65.6061C22.6016 62.7931 17.206 57.3974 14.3929 50.6061V50.6061C11.5799 43.8148 11.5799 36.1842 14.3929 29.3929V29.3929C17.206 22.6016 22.6016 17.206 29.3929 14.3929V14.3929Z" stroke="currentColor" stroke-width="5" stroke-linecap="round" stroke-linejoin="round" />
  <path fill-rule="evenodd" clip-rule="evenodd" d="M21.2838 31.9598C21.9708 32.0317 22.6545 31.7967 23.1522 31.3177L23.8146 30.6802C24.6385 29.8872 25.7431 29.4533 26.8864 29.4734L26.9237 29.4741L29.0564 31.92L30.6925 31.772L31.5537 31.694C32.0545 31.6487 32.5238 31.4301 32.8806 31.0758C33.2538 30.7053 33.7494 30.4837 34.2744 30.4526L35.628 30.3725L37.0532 31.9687C37.891 32.907 37.8432 34.3382 36.9447 35.2186C36.4851 35.6689 35.8612 35.9115 35.2181 35.8899L33.1797 35.8216C32.9113 35.8126 32.6605 35.9546 32.53 36.1893C32.3605 36.4943 31.9959 36.6326 31.6668 36.5169L28.3568 35.3534C28.0327 35.2394 27.8013 34.9516 27.7596 34.6107C27.7027 34.146 27.3003 33.8017 26.8324 33.8174L23.6529 33.9238C23.4567 33.9304 23.2688 33.8445 23.1453 33.6919C22.8927 33.3799 22.4158 33.3828 22.1671 33.698L20.3793 35.9638C20.0374 36.397 19.8247 36.9179 19.7657 37.4666L19.5009 39.9271C19.2669 42.1018 20.0343 44.2651 21.5866 45.8061L22.5521 46.7647C23.2599 47.4673 24.2132 47.8669 25.2104 47.8791C27.2853 47.9043 28.9647 49.5736 29.0024 51.6484L29.0304 53.187C29.0469 54.0919 29.4707 54.9411 30.1839 55.4982C30.8858 56.0464 31.308 56.8779 31.3364 57.7681L31.4487 61.2837C31.4691 61.9244 31.6832 62.544 32.0627 63.0607C32.6463 63.8553 33.5755 64.3336 34.5611 64.3548C35.4562 64.3741 36.327 64.0187 36.9485 63.3742L38.0709 62.2101C39.3062 60.929 39.9991 59.2203 40.0049 57.4406L40.0202 52.7376C40.0247 51.339 40.5779 49.9981 41.5607 49.0031L42.5233 48.0285C43.2549 47.2879 43.5404 46.2157 43.274 45.2094C43.1438 44.7175 42.8882 44.2678 42.5322 43.9042L38.0439 39.3211C37.7197 38.9901 37.777 38.4456 38.1631 38.1893C38.4602 37.9921 38.8558 38.0354 39.1032 38.2922L41.4322 40.7097C42.1036 41.4067 43.018 41.8177 43.9849 41.8572L44.7143 41.887C45.2923 41.9106 45.8541 41.6926 46.265 41.2854C47.087 40.4707 47.0869 39.1419 46.2646 38.3273L43.8641 35.9493C43.6772 35.7641 43.6391 35.4761 43.7713 35.2486C43.9604 34.9235 44.4049 34.8629 44.674 35.1256L45.7691 36.1945C46.0972 36.5148 46.5368 36.6953 46.9952 36.698L47.9516 36.7037C49.3731 36.7121 50.6908 37.4493 51.4418 38.6562L53.7417 42.3523C53.8357 42.5034 53.9906 42.6062 54.1663 42.634C54.4708 42.6823 54.7638 42.497 54.8507 42.2012L55.4095 40.2985C55.5051 39.9729 55.6578 39.6668 55.8604 39.3945L56.3318 38.761C57.5705 37.0961 60.0924 37.1857 61.2098 38.9345L61.6389 39.6061C62.0808 40.2978 62.9205 40.6226 63.7129 40.4085C64.5906 40.1713 65.1726 39.3398 65.0951 38.4339L65.0635 38.0651C64.9912 37.2195 65.3858 36.4018 66.0928 35.9324L66.7318 35.508C66.9345 35.3734 67.1167 35.2144 67.2753 35.036C66.9259 33.1127 66.3714 31.2177 65.6118 29.3838C62.7988 22.5925 57.4031 17.1968 50.6118 14.3838C50.3456 14.2735 50.0781 14.1675 49.8094 14.0659C49.1331 14.2942 48.5281 14.7156 48.0764 15.2907L47.7463 15.7111C46.8403 16.8648 45.4566 17.5409 43.9897 17.5467L40.1644 17.5618C38.8859 17.5668 37.6541 17.0816 36.7224 16.206L36.6012 16.092C35.8301 15.3673 34.8299 14.9349 33.7736 14.8698C32.4934 14.791 31.2397 15.2577 30.3228 16.1546L28.7691 17.6744C28.453 17.9836 28.3355 18.443 28.4642 18.866C28.7145 19.6881 29.7295 19.9783 30.3766 19.4128L31.8774 18.1012C32.21 17.8106 32.7171 17.8533 32.9963 18.1954C33.2437 18.4985 33.2286 18.9378 32.9611 19.2233L31.6536 20.6181C31.4393 20.8467 31.3076 21.1404 31.2793 21.4524C31.2147 22.165 30.6251 22.7153 29.9098 22.7307L28.0161 22.7716C27.1695 22.7898 26.3579 23.1122 25.7296 23.6797L23.5814 25.6199L22.7819 22.615C22.46 21.4051 21.4888 20.6091 20.3943 20.4044C19.2003 21.6 18.1155 22.9047 17.1553 24.3033C17.562 24.9883 18.2996 25.4594 19.1589 25.4855L23.5814 25.6199L22.3904 28.154C22.1244 28.72 21.6348 29.1498 21.0391 29.3403L20.1401 29.6276C19.6006 29.8001 19.2673 30.34 19.355 30.8996C19.4356 31.4142 19.8524 31.8101 20.3704 31.8643L21.2838 31.9598ZM67.2954 44.8328C67.037 46.2891 66.6612 47.7296 66.1679 49.14C65.595 48.8492 65.1043 48.4099 64.751 47.8616L63.1185 45.3276C62.5033 44.3728 63.0458 43.0986 64.1604 42.8802C64.6552 42.7832 65.1669 42.9241 65.5423 43.2608L67.2954 44.8328ZM35.628 30.3725L36.1555 29.2464C36.6809 28.1249 37.7704 27.3739 39.0055 27.2819L39.72 27.2287C40.4773 27.1723 41.2087 27.5173 41.6469 28.1376L42.0398 28.6938C42.4425 29.2639 42.3592 30.0444 41.8453 30.5167C41.4034 30.9228 40.7506 30.999 40.2272 30.7055L39.6498 30.3818C39.2363 30.15 38.7613 30.0515 38.2897 30.0998L35.628 30.3725ZM43.639 57.8394C42.9747 57.8394 42.4469 57.281 42.4842 56.6178L42.5371 55.679C42.5602 55.2678 42.707 54.8731 42.9582 54.5466L43.3254 54.0694C43.5055 53.8353 43.78 53.693 44.0751 53.6807C44.6551 53.6565 45.1334 54.1303 45.1146 54.7105L45.0698 56.0975C45.0601 56.3983 44.9752 56.6918 44.8227 56.9513L44.6362 57.2687C44.4285 57.6222 44.0491 57.8394 43.639 57.8394Z" fill="currentColor" />
  <path d="M23.1522 31.3177L23.4989 31.678H23.4989L23.1522 31.3177ZM21.2838 31.9598L21.2317 32.4571H21.2317L21.2838 31.9598ZM23.8146 30.6802L23.4679 30.3199L23.4678 30.3199L23.8146 30.6802ZM26.8864 29.4734L26.8952 28.9735H26.8952L26.8864 29.4734ZM26.9237 29.4741L27.3005 29.1455C27.2076 29.0389 27.0739 28.9766 26.9325 28.9741L26.9237 29.4741ZM29.0564 31.92L28.6795 32.2486C28.7849 32.3694 28.9418 32.4324 29.1015 32.4179L29.0564 31.92ZM30.6925 31.772L30.6474 31.274H30.6474L30.6925 31.772ZM31.5537 31.694L31.5988 32.192L31.5537 31.694ZM32.8806 31.0758L33.2329 31.4307L33.2329 31.4307L32.8806 31.0758ZM34.2744 30.4526L34.304 30.9518H34.304L34.2744 30.4526ZM37.0532 31.9687L37.4262 31.6356L37.0532 31.9687ZM36.9447 35.2186L36.5947 34.8614L36.5947 34.8614L36.9447 35.2186ZM35.2181 35.8899L35.2014 36.3896L35.2181 35.8899ZM33.1797 35.8216L33.1965 35.3219H33.1965L33.1797 35.8216ZM32.53 36.1893L32.967 36.4323L32.967 36.4322L32.53 36.1893ZM31.6668 36.5169L31.501 36.9886L31.6668 36.5169ZM28.3568 35.3534L28.5226 34.8816H28.5226L28.3568 35.3534ZM27.7596 34.6107L28.2558 34.5499L28.2558 34.5499L27.7596 34.6107ZM26.8324 33.8174L26.8491 34.3171L26.8324 33.8174ZM23.6529 33.9238L23.6696 34.4235H23.6696L23.6529 33.9238ZM23.1453 33.6919L23.5339 33.3774L23.5339 33.3774L23.1453 33.6919ZM22.1671 33.698L22.5596 34.0077H22.5596L22.1671 33.698ZM20.3793 35.9638L20.7718 36.2735L20.7718 36.2735L20.3793 35.9638ZM19.7657 37.4666L20.2628 37.5201H20.2628L19.7657 37.4666ZM19.5009 39.9271L19.998 39.9806V39.9806L19.5009 39.9271ZM21.5866 45.8061L21.9388 45.4513H21.9388L21.5866 45.8061ZM22.5521 46.7647L22.1999 47.1195L22.1999 47.1195L22.5521 46.7647ZM25.2104 47.8791L25.2165 47.3791H25.2165L25.2104 47.8791ZM29.0024 51.6484L29.5024 51.6393L29.0024 51.6484ZM29.0304 53.187L29.5303 53.178V53.178L29.0304 53.187ZM30.1839 55.4982L30.4917 55.1041L30.4917 55.1041L30.1839 55.4982ZM31.3364 57.7681L31.8361 57.7521L31.3364 57.7681ZM31.4487 61.2837L31.9484 61.2677L31.4487 61.2837ZM32.0627 63.0607L31.6597 63.3567L31.6597 63.3567L32.0627 63.0607ZM34.5611 64.3548L34.5504 64.8547L34.5611 64.3548ZM36.9485 63.3742L37.3084 63.7213V63.7212L36.9485 63.3742ZM38.0709 62.2101L37.711 61.8631L38.0709 62.2101ZM40.0049 57.4406L39.5049 57.439L40.0049 57.4406ZM40.0202 52.7376L40.5202 52.7392L40.0202 52.7376ZM41.5607 49.0031L41.205 48.6517L41.5607 49.0031ZM42.5233 48.0285L42.1676 47.6772L42.5233 48.0285ZM43.274 45.2094L42.7907 45.3373L42.7907 45.3373L43.274 45.2094ZM42.5322 43.9042L42.8894 43.5544L42.5322 43.9042ZM38.0439 39.3211L38.4011 38.9713L38.4011 38.9713L38.0439 39.3211ZM38.1631 38.1893L37.8866 37.7727L38.1631 38.1893ZM39.1032 38.2922L39.4633 37.9453H39.4633L39.1032 38.2922ZM41.4322 40.7097L41.7922 40.3628V40.3628L41.4322 40.7097ZM43.9849 41.8572L43.9645 42.3568L43.9849 41.8572ZM44.7143 41.887L44.7347 41.3874H44.7347L44.7143 41.887ZM46.265 41.2854L46.6169 41.6406L46.265 41.2854ZM46.2646 38.3273L45.9128 38.6826L45.9128 38.6826L46.2646 38.3273ZM43.8641 35.9493L44.216 35.5941L44.216 35.5941L43.8641 35.9493ZM43.7713 35.2486L44.2035 35.5L44.2035 35.5L43.7713 35.2486ZM44.674 35.1256L44.3248 35.4834L44.3248 35.4834L44.674 35.1256ZM45.7691 36.1945L46.1184 35.8367L46.1184 35.8367L45.7691 36.1945ZM46.9952 36.698L46.9923 37.198H46.9923L46.9952 36.698ZM47.9516 36.7037L47.9546 36.2037L47.9516 36.7037ZM51.4418 38.6562L51.8663 38.392V38.392L51.4418 38.6562ZM53.7417 42.3523L53.3172 42.6165L53.7417 42.3523ZM54.1663 42.634L54.0879 43.1278L54.0879 43.1278L54.1663 42.634ZM54.8507 42.2012L55.3305 42.3421V42.3421L54.8507 42.2012ZM55.4095 40.2985L55.8892 40.4394L55.8893 40.4394L55.4095 40.2985ZM55.8604 39.3945L55.4592 39.0961L55.4592 39.0961L55.8604 39.3945ZM56.3318 38.761L55.9306 38.4625V38.4625L56.3318 38.761ZM61.2098 38.9345L61.6311 38.6653L61.2098 38.9345ZM61.6389 39.6061L62.0602 39.3369L61.6389 39.6061ZM63.7129 40.4085L63.5825 39.9258L63.7129 40.4085ZM65.0951 38.4339L65.5933 38.3913L65.5933 38.3913L65.0951 38.4339ZM65.0635 38.0651L64.5653 38.1077V38.1077L65.0635 38.0651ZM66.0928 35.9324L66.3693 36.3489L66.0928 35.9324ZM66.7318 35.508L67.0084 35.9246V35.9246L66.7318 35.508ZM67.2753 35.036L67.649 35.3682C67.7511 35.2533 67.7947 35.0978 67.7673 34.9466L67.2753 35.036ZM65.6118 29.3838L66.0738 29.1924L65.6118 29.3838ZM50.6118 14.3838L50.8032 13.9218V13.9218L50.6118 14.3838ZM49.8094 14.0659L49.9863 13.5983C49.8781 13.5573 49.7591 13.5552 49.6495 13.5922L49.8094 14.0659ZM48.0764 15.2907L48.4697 15.5996L48.4697 15.5995L48.0764 15.2907ZM47.7463 15.7111L47.3531 15.4023L47.3531 15.4023L47.7463 15.7111ZM43.9897 17.5467L43.9917 18.0467L43.9897 17.5467ZM40.1644 17.5618L40.1624 17.0618L40.1644 17.5618ZM36.7224 16.206L36.38 16.5703L36.38 16.5703L36.7224 16.206ZM36.6012 16.092L36.9437 15.7277L36.9437 15.7277L36.6012 16.092ZM33.7736 14.8698L33.8044 14.3708V14.3708L33.7736 14.8698ZM30.3228 16.1546L30.6724 16.5121L30.6724 16.5121L30.3228 16.1546ZM28.7691 17.6744L28.4194 17.317L28.4194 17.317L28.7691 17.6744ZM28.4642 18.866L27.9859 19.0116L27.9859 19.0116L28.4642 18.866ZM30.3766 19.4128L30.7056 19.7893L30.7056 19.7893L30.3766 19.4128ZM31.8774 18.1012L32.2064 18.4777L31.8774 18.1012ZM32.9963 18.1954L32.609 18.5116L32.609 18.5116L32.9963 18.1954ZM32.9611 19.2233L33.3259 19.5652L33.3259 19.5652L32.9611 19.2233ZM31.6536 20.6181L32.0184 20.9601V20.9601L31.6536 20.6181ZM31.2793 21.4524L31.7773 21.4976L31.7773 21.4976L31.2793 21.4524ZM29.9098 22.7307L29.899 22.2308L29.9098 22.7307ZM28.0161 22.7716L28.0268 23.2715L28.0161 22.7716ZM25.7296 23.6797L26.0647 24.0508L26.0647 24.0508L25.7296 23.6797ZM22.7819 22.615L22.2987 22.7435V22.7436L22.7819 22.615ZM20.3943 20.4044L20.4862 19.9129C20.324 19.8826 20.1572 19.9343 20.0405 20.0511L20.3943 20.4044ZM17.1553 24.3033L16.7431 24.0203C16.6328 24.181 16.6259 24.391 16.7254 24.5586L17.1553 24.3033ZM19.1589 25.4855L19.1437 25.9853H19.1437L19.1589 25.4855ZM22.3904 28.154L22.8429 28.3667H22.8429L22.3904 28.154ZM21.0391 29.3403L21.1913 29.8165L21.0391 29.3403ZM20.1401 29.6276L20.2924 30.1039H20.2924L20.1401 29.6276ZM19.355 30.8996L19.849 30.8222L19.355 30.8996ZM20.3704 31.8643L20.3184 32.3616H20.3184L20.3704 31.8643ZM67.2954 44.8328L67.7877 44.9202C67.8179 44.7499 67.758 44.576 67.6292 44.4606L67.2954 44.8328ZM66.1679 49.14L65.9416 49.5858C66.0701 49.6511 66.2206 49.6577 66.3544 49.6039C66.4882 49.5501 66.5922 49.4412 66.6398 49.3051L66.1679 49.14ZM64.751 47.8616L65.1714 47.5908V47.5908L64.751 47.8616ZM63.1185 45.3276L62.6981 45.5984V45.5984L63.1185 45.3276ZM64.1604 42.8802L64.2565 43.3708H64.2565L64.1604 42.8802ZM65.5423 43.2608L65.2085 43.633L65.5423 43.2608ZM36.1555 29.2464L35.7027 29.0343L35.7027 29.0343L36.1555 29.2464ZM39.0055 27.2819L39.0427 27.7805L39.0055 27.2819ZM39.72 27.2287L39.6829 26.7301H39.6829L39.72 27.2287ZM41.6469 28.1376L42.0553 27.8491L42.0553 27.8491L41.6469 28.1376ZM42.0398 28.6938L41.6314 28.9822L41.6314 28.9822L42.0398 28.6938ZM41.8453 30.5167L42.1836 30.8849L42.1836 30.8849L41.8453 30.5167ZM40.2272 30.7055L39.9827 31.1416L39.9827 31.1416L40.2272 30.7055ZM39.6498 30.3818L39.4053 30.8179L39.6498 30.3818ZM38.2897 30.0998L38.2387 29.6024H38.2387L38.2897 30.0998ZM42.4842 56.6178L42.9834 56.6459L42.4842 56.6178ZM42.5371 55.679L43.0363 55.7071V55.7071L42.5371 55.679ZM42.9582 54.5466L43.3544 54.8516L43.3544 54.8515L42.9582 54.5466ZM43.3254 54.0694L42.9291 53.7645L42.9291 53.7645L43.3254 54.0694ZM44.0751 53.6807L44.096 54.1802H44.096L44.0751 53.6807ZM45.1146 54.7105L45.6144 54.7266V54.7266L45.1146 54.7105ZM45.0698 56.0975L45.5696 56.1136L45.0698 56.0975ZM44.8227 56.9513L45.2538 57.2046H45.2538L44.8227 56.9513ZM44.6362 57.2687L44.2051 57.0154L44.2051 57.0154L44.6362 57.2687ZM22.8054 30.9575C22.414 31.3342 21.8762 31.5191 21.3358 31.4625L21.2317 32.4571C22.0654 32.5443 22.895 32.2592 23.4989 31.678L22.8054 30.9575ZM23.4678 30.3199L22.8054 30.9575L23.4989 31.678L24.1613 31.0404L23.4678 30.3199ZM26.8952 28.9735C25.6196 28.951 24.3871 29.4352 23.4679 30.3199L24.1613 31.0404C24.8898 30.3393 25.8666 29.9555 26.8776 29.9733L26.8952 28.9735ZM26.9325 28.9741L26.8952 28.9735L26.8776 29.9733L26.9148 29.974L26.9325 28.9741ZM29.4333 31.5914L27.3005 29.1455L26.5468 29.8027L28.6795 32.2486L29.4333 31.5914ZM30.6474 31.274L29.0113 31.422L29.1015 32.4179L30.7375 32.2699L30.6474 31.274ZM31.5087 31.1961L30.6474 31.274L30.7375 32.2699L31.5988 32.192L31.5087 31.1961ZM32.5283 30.721C32.2541 30.9932 31.8935 31.1612 31.5087 31.1961L31.5988 32.192C32.2155 32.1362 32.7934 31.8669 33.2329 31.4307L32.5283 30.721ZM34.2449 29.9535C33.5983 29.9918 32.988 30.2647 32.5283 30.721L33.2329 31.4307C33.5197 31.1459 33.9005 30.9756 34.304 30.9518L34.2449 29.9535ZM35.5984 29.8734L34.2449 29.9535L34.304 30.9518L35.6575 30.8716L35.5984 29.8734ZM37.4262 31.6356L36.0009 30.0395L35.255 30.7055L36.6802 32.3017L37.4262 31.6356ZM37.2946 35.5757C38.384 34.5084 38.4419 32.7733 37.4262 31.6356L36.6802 32.3017C37.3401 33.0407 37.3025 34.168 36.5947 34.8614L37.2946 35.5757ZM35.2014 36.3896C35.981 36.4157 36.7374 36.1217 37.2946 35.5757L36.5947 34.8614C36.2327 35.2161 35.7414 35.4072 35.2349 35.3902L35.2014 36.3896ZM33.163 36.3214L35.2014 36.3896L35.2349 35.3902L33.1965 35.3219L33.163 36.3214ZM32.967 36.4322C33.0064 36.3615 33.082 36.3186 33.163 36.3214L33.1965 35.3219C32.7406 35.3066 32.3146 35.5478 32.093 35.9464L32.967 36.4322ZM31.501 36.9886C32.06 37.1851 32.6792 36.9501 32.967 36.4323L32.093 35.9464C32.0419 36.0384 31.9319 36.0801 31.8326 36.0452L31.501 36.9886ZM28.191 35.8251L31.501 36.9886L31.8326 36.0452L28.5226 34.8816L28.191 35.8251ZM27.2633 34.6714C27.3281 35.201 27.6876 35.6481 28.191 35.8251L28.5226 34.8816C28.3779 34.8308 28.2745 34.7022 28.2558 34.5499L27.2633 34.6714ZM26.8491 34.3171C27.0581 34.3101 27.2378 34.4639 27.2633 34.6714L28.2558 34.5499C28.1675 33.8281 27.5425 33.2933 26.8157 33.3176L26.8491 34.3171ZM23.6696 34.4235L26.8491 34.3171L26.8157 33.3176L23.6362 33.4241L23.6696 34.4235ZM22.7566 34.0065C22.9788 34.281 23.3167 34.4353 23.6696 34.4235L23.6362 33.4241C23.5966 33.4254 23.5588 33.4081 23.5339 33.3774L22.7566 34.0065ZM22.5596 34.0077C22.6097 33.9443 22.7058 33.9437 22.7566 34.0065L23.5339 33.3774C23.0796 32.8161 22.2219 32.8214 21.7746 33.3883L22.5596 34.0077ZM20.7718 36.2735L22.5596 34.0077L21.7746 33.3883L19.9868 35.654L20.7718 36.2735ZM20.2628 37.5201C20.3118 37.065 20.4882 36.6329 20.7718 36.2735L19.9868 35.654C19.5866 36.1611 19.3377 36.7709 19.2686 37.4131L20.2628 37.5201ZM19.998 39.9806L20.2628 37.5201L19.2686 37.4131L19.0038 39.8736L19.998 39.9806ZM21.9388 45.4513C20.4944 44.0173 19.7803 42.0043 19.998 39.9806L19.0038 39.8736C18.7535 42.1994 19.5742 44.5129 21.2343 46.1609L21.9388 45.4513ZM22.9044 46.4098L21.9388 45.4513L21.2343 46.1609L22.1999 47.1195L22.9044 46.4098ZM25.2165 47.3791C24.3492 47.3686 23.52 47.0209 22.9044 46.4098L22.1999 47.1195C22.9998 47.9136 24.0773 48.3653 25.2043 48.379L25.2165 47.3791ZM29.5024 51.6393C29.4598 49.2943 27.5616 47.4076 25.2165 47.3791L25.2043 48.379C27.009 48.401 28.4697 49.8529 28.5025 51.6574L29.5024 51.6393ZM29.5303 53.178L29.5024 51.6393L28.5025 51.6574L28.5305 53.1961L29.5303 53.178ZM30.4917 55.1041C29.8973 54.6398 29.544 53.9321 29.5303 53.178L28.5305 53.1961C28.5497 54.2517 29.0441 55.2423 29.8761 55.8922L30.4917 55.1041ZM31.8361 57.7521C31.803 56.7137 31.3105 55.7437 30.4917 55.1041L29.8761 55.8922C30.4611 56.3491 30.813 57.0422 30.8366 57.784L31.8361 57.7521ZM31.9484 61.2677L31.8361 57.7521L30.8366 57.784L30.9489 61.2996L31.9484 61.2677ZM32.4657 62.7647C32.146 62.3294 31.9656 61.8075 31.9484 61.2677L30.9489 61.2996C30.9726 62.0414 31.2204 62.7585 31.6597 63.3567L32.4657 62.7647ZM34.5719 63.8549C33.74 63.8371 32.9564 63.4328 32.4657 62.7647L31.6597 63.3567C32.3363 64.2777 33.411 64.8302 34.5504 64.8547L34.5719 63.8549ZM36.5886 63.0271C36.0649 63.5702 35.3289 63.8712 34.5719 63.8549L34.5504 64.8547C35.5836 64.8769 36.5892 64.4672 37.3084 63.7213L36.5886 63.0271ZM37.711 61.8631L36.5886 63.0271L37.3084 63.7212L38.4308 62.5572L37.711 61.8631ZM39.5049 57.439C39.4995 59.0898 38.8568 60.6747 37.711 61.8631L38.4308 62.5572C39.7556 61.1833 40.4987 59.3508 40.5049 57.4423L39.5049 57.439ZM39.5202 52.7359L39.5049 57.439L40.5049 57.4423L40.5202 52.7392L39.5202 52.7359ZM41.205 48.6517C40.1301 49.7399 39.5252 51.2064 39.5202 52.7359L40.5202 52.7392C40.5243 51.4716 41.0256 50.2563 41.9164 49.3544L41.205 48.6517ZM42.1676 47.6772L41.205 48.6517L41.9164 49.3544L42.879 48.3799L42.1676 47.6772ZM42.7907 45.3373C43.0117 46.1726 42.7748 47.0625 42.1676 47.6772L42.879 48.3799C43.735 47.5134 44.069 46.2589 43.7574 45.0815L42.7907 45.3373ZM42.1749 44.2541C42.4704 44.5558 42.6826 44.9291 42.7907 45.3373L43.7574 45.0815C43.605 44.5059 43.306 43.9797 42.8894 43.5544L42.1749 44.2541ZM37.6867 39.671L42.1749 44.2541L42.8894 43.5544L38.4011 38.9713L37.6867 39.671ZM37.8866 37.7727C37.2391 38.2026 37.1429 39.1157 37.6867 39.671L38.4011 38.9713C38.2965 38.8644 38.315 38.6887 38.4396 38.6059L37.8866 37.7727ZM39.4633 37.9453C39.0484 37.5147 38.3849 37.442 37.8866 37.7727L38.4396 38.6059C38.5355 38.5423 38.6632 38.5562 38.7431 38.6391L39.4633 37.9453ZM41.7922 40.3628L39.4633 37.9453L38.7431 38.6391L41.0721 41.0566L41.7922 40.3628ZM44.0054 41.3576C43.1671 41.3234 42.3743 40.967 41.7922 40.3628L41.0721 41.0566C41.8328 41.8463 42.8689 42.312 43.9645 42.3568L44.0054 41.3576ZM44.7347 41.3874L44.0054 41.3576L43.9645 42.3568L44.6939 42.3865L44.7347 41.3874ZM45.913 40.9303C45.6008 41.2397 45.1739 41.4053 44.7347 41.3874L44.6939 42.3865C45.4107 42.4158 46.1074 42.1456 46.6169 41.6406L45.913 40.9303ZM45.9128 38.6826C46.5375 39.3015 46.5377 40.3112 45.913 40.9303L46.6169 41.6406C47.6364 40.6302 47.6362 38.9823 46.6165 37.9721L45.9128 38.6826ZM43.5122 36.3045L45.9128 38.6826L46.6165 37.9721L44.216 35.5941L43.5122 36.3045ZM43.3391 34.9973C43.0923 35.4216 43.1635 35.9591 43.5122 36.3045L44.216 35.5941C44.1909 35.5692 44.1858 35.5305 44.2035 35.5L43.3391 34.9973ZM45.0233 34.7678C44.5211 34.2776 43.6918 34.3906 43.3391 34.9973L44.2035 35.5C44.2289 35.4563 44.2886 35.4482 44.3248 35.4834L45.0233 34.7678ZM46.1184 35.8367L45.0233 34.7678L44.3248 35.4834L45.4199 36.5523L46.1184 35.8367ZM46.9982 36.198C46.6692 36.196 46.3538 36.0665 46.1184 35.8367L45.4199 36.5523C45.8406 36.963 46.4043 37.1945 46.9923 37.198L46.9982 36.198ZM47.9546 36.2037L46.9982 36.198L46.9923 37.198L47.9487 37.2037L47.9546 36.2037ZM51.8663 38.392C51.0246 37.0394 49.5477 36.2131 47.9546 36.2037L47.9487 37.2037C49.1984 37.2111 50.3569 37.8592 51.0172 38.9203L51.8663 38.392ZM54.1662 42.0882L51.8663 38.392L51.0172 38.9203L53.3172 42.6165L54.1662 42.0882ZM54.2446 42.1402C54.2122 42.1351 54.1836 42.1161 54.1662 42.0882L53.3172 42.6165C53.4878 42.8907 53.769 43.0773 54.0879 43.1278L54.2446 42.1402ZM54.371 42.0603C54.3549 42.1149 54.3008 42.1491 54.2446 42.1402L54.0879 43.1278C54.6408 43.2155 55.1727 42.8791 55.3305 42.3421L54.371 42.0603ZM54.9298 40.1576L54.371 42.0603L55.3305 42.3421L55.8892 40.4394L54.9298 40.1576ZM55.4592 39.0961C55.2214 39.4158 55.0421 39.7753 54.9298 40.1576L55.8893 40.4394C55.9682 40.1706 56.0943 39.9178 56.2615 39.693L55.4592 39.0961ZM55.9306 38.4625L55.4592 39.0961L56.2615 39.693L56.7329 39.0595L55.9306 38.4625ZM61.6311 38.6653C60.3253 36.6217 57.3783 36.5169 55.9306 38.4625L56.7329 39.0595C57.7628 37.6752 59.8595 37.7498 60.7884 39.2037L61.6311 38.6653ZM62.0602 39.3369L61.6311 38.6653L60.7884 39.2037L61.2176 39.8753L62.0602 39.3369ZM63.5825 39.9258C63.0009 40.083 62.3846 39.8445 62.0602 39.3369L61.2176 39.8753C61.7771 40.751 62.8402 41.1623 63.8433 40.8912L63.5825 39.9258ZM64.5969 38.4766C64.6538 39.1414 64.2266 39.7517 63.5825 39.9258L63.8433 40.8912C64.9546 40.5909 65.6914 39.5382 65.5933 38.3913L64.5969 38.4766ZM64.5653 38.1077L64.5969 38.4766L65.5933 38.3913L65.5617 38.0224L64.5653 38.1077ZM65.8162 35.5158C64.957 36.0864 64.4774 37.0801 64.5653 38.1077L65.5617 38.0224C65.5049 37.3589 65.8146 36.7173 66.3693 36.3489L65.8162 35.5158ZM66.4552 35.0915L65.8162 35.5158L66.3693 36.3489L67.0084 35.9246L66.4552 35.0915ZM66.9016 34.7038C66.7714 34.8504 66.6217 34.9809 66.4552 35.0915L67.0084 35.9246C67.2472 35.766 67.462 35.5785 67.649 35.3682L66.9016 34.7038ZM65.1499 29.5751C65.8958 31.3759 66.4403 33.2368 66.7834 35.1254L67.7673 34.9466C67.4116 32.9887 66.8471 31.0594 66.0738 29.1924L65.1499 29.5751ZM50.4205 14.8457C57.0893 17.608 62.3876 22.9063 65.1499 29.5751L66.0738 29.1924C63.21 22.2786 57.717 16.7856 50.8032 13.9218L50.4205 14.8457ZM49.6325 14.5336C49.8964 14.6334 50.1591 14.7374 50.4205 14.8457L50.8032 13.9218C50.5321 13.8096 50.2598 13.7017 49.9863 13.5983L49.6325 14.5336ZM48.4697 15.5995C48.8605 15.1019 49.3839 14.7372 49.9693 14.5397L49.6495 13.5922C48.8822 13.8511 48.1957 14.3293 47.6832 14.9819L48.4697 15.5995ZM48.1396 16.0199L48.4697 15.5996L47.6832 14.9819L47.3531 15.4023L48.1396 16.0199ZM43.9917 18.0467C45.6113 18.0403 47.1392 17.2937 48.1396 16.0199L47.3531 15.4023C46.5414 16.4358 45.3018 17.0415 43.9877 17.0467L43.9917 18.0467ZM40.1664 18.0618L43.9917 18.0467L43.9877 17.0467L40.1624 17.0618L40.1664 18.0618ZM36.38 16.5703C37.4048 17.5336 38.7599 18.0673 40.1664 18.0618L40.1624 17.0618C39.0118 17.0663 37.9033 16.6297 37.0649 15.8417L36.38 16.5703ZM36.2588 16.4564L36.38 16.5703L37.0649 15.8417L36.9437 15.7277L36.2588 16.4564ZM33.7429 15.3689C34.6827 15.4268 35.5727 15.8115 36.2588 16.4564L36.9437 15.7277C36.0875 14.923 34.977 14.443 33.8044 14.3708L33.7429 15.3689ZM30.6724 16.5121C31.4882 15.714 32.6038 15.2987 33.7429 15.3689L33.8044 14.3708C32.3831 14.2832 30.9911 14.8014 29.9731 15.7972L30.6724 16.5121ZM29.1187 18.0319L30.6724 16.5121L29.9731 15.7972L28.4194 17.317L29.1187 18.0319ZM28.9426 18.7204C28.8682 18.476 28.9361 18.2105 29.1187 18.0319L28.4194 17.317C27.9699 17.7567 27.8028 18.4101 27.9859 19.0116L28.9426 18.7204ZM30.0475 19.0363C29.6737 19.3631 29.0872 19.1954 28.9426 18.7204L27.9859 19.0116C28.3419 20.1808 29.7854 20.5935 30.7056 19.7893L30.0475 19.0363ZM31.5484 17.7247L30.0475 19.0363L30.7056 19.7893L32.2064 18.4777L31.5484 17.7247ZM33.3837 17.8793C32.9257 17.3181 32.0938 17.248 31.5484 17.7247L32.2064 18.4777C32.3261 18.3731 32.5085 18.3885 32.609 18.5116L33.3837 17.8793ZM33.3259 19.5652C33.7647 19.0971 33.7894 18.3764 33.3837 17.8793L32.609 18.5116C32.6979 18.6206 32.6925 18.7786 32.5963 18.8813L33.3259 19.5652ZM32.0184 20.9601L33.3259 19.5652L32.5963 18.8813L31.2888 20.2762L32.0184 20.9601ZM31.7773 21.4976C31.7955 21.2965 31.8804 21.1074 32.0184 20.9601L31.2888 20.2762C30.9983 20.5861 30.8197 20.9842 30.7813 21.4073L31.7773 21.4976ZM29.9206 23.2306C30.8904 23.2097 31.6897 22.4636 31.7773 21.4976L30.7813 21.4073C30.7397 21.8663 30.3599 22.2209 29.899 22.2308L29.9206 23.2306ZM28.0268 23.2715L29.9206 23.2306L29.899 22.2308L28.0053 22.2717L28.0268 23.2715ZM26.0647 24.0508C26.6039 23.5638 27.3004 23.2871 28.0268 23.2715L28.0053 22.2717C27.0387 22.2925 26.1119 22.6606 25.3944 23.3087L26.0647 24.0508ZM23.9165 25.991L26.0647 24.0508L25.3944 23.3087L23.2463 25.2489L23.9165 25.991ZM22.2987 22.7436L23.0982 25.7485L24.0646 25.4914L23.2651 22.4864L22.2987 22.7436ZM20.3024 20.8959C21.2213 21.0677 22.0299 21.7332 22.2987 22.7435L23.2651 22.4864C22.8901 21.077 21.7563 20.1505 20.4862 19.9129L20.3024 20.8959ZM17.5675 24.5863C18.5104 23.2129 19.5756 21.9317 20.7481 20.7577L20.0405 20.0511C18.825 21.2682 17.7206 22.5964 16.7431 24.0203L17.5675 24.5863ZM19.174 24.9857C18.4933 24.9651 17.9086 24.5926 17.5852 24.048L16.7254 24.5586C17.2155 25.384 18.1059 25.9537 19.1437 25.9853L19.174 24.9857ZM23.5966 25.1202L19.174 24.9857L19.1437 25.9853L23.5662 26.1197L23.5966 25.1202ZM22.8429 28.3667L24.0339 25.8326L23.1289 25.4072L21.9379 27.9413L22.8429 28.3667ZM21.1913 29.8165C21.9194 29.5838 22.5178 29.0585 22.8429 28.3667L21.9379 27.9413C21.731 28.3816 21.3502 28.7159 20.8868 28.864L21.1913 29.8165ZM20.2924 30.1039L21.1913 29.8165L20.8868 28.864L19.9879 29.1514L20.2924 30.1039ZM19.849 30.8222C19.7995 30.5062 19.9877 30.2013 20.2924 30.1039L19.9879 29.1514C19.2135 29.3989 18.7352 30.1739 18.861 30.977L19.849 30.8222ZM20.4224 31.367C20.1298 31.3364 19.8945 31.1128 19.849 30.8222L18.861 30.977C18.9767 31.7155 19.5749 32.2838 20.3184 32.3616L20.4224 31.367ZM21.3358 31.4625L20.4224 31.367L20.3184 32.3616L21.2317 32.4571L21.3358 31.4625ZM66.8031 44.7455C66.5494 46.1754 66.1803 47.5899 65.6959 48.9749L66.6398 49.3051C67.1421 47.8692 67.5247 46.4027 67.7877 44.9202L66.8031 44.7455ZM66.3942 48.6942C65.8997 48.4431 65.4762 48.064 65.1714 47.5908L64.3307 48.1324C64.7324 48.7558 65.2902 49.2552 65.9416 49.5858L66.3942 48.6942ZM65.1714 47.5908L63.5388 45.0568L62.6981 45.5984L64.3307 48.1324L65.1714 47.5908ZM63.5388 45.0568C63.115 44.3991 63.4887 43.5213 64.2565 43.3708L64.0642 42.3895C62.6028 42.6759 61.8916 44.3466 62.6981 45.5984L63.5388 45.0568ZM64.2565 43.3708C64.5974 43.304 64.9499 43.4011 65.2085 43.633L65.8761 42.8885C65.3839 42.4471 64.713 42.2623 64.0642 42.3895L64.2565 43.3708ZM65.2085 43.633L66.9616 45.2051L67.6292 44.4606L65.8761 42.8885L65.2085 43.633ZM35.7027 29.0343L35.1752 30.1604L36.0808 30.5846L36.6083 29.4585L35.7027 29.0343ZM38.9684 26.7833C37.5531 26.8887 36.3048 27.7492 35.7027 29.0343L36.6083 29.4585C37.0571 28.5005 37.9877 27.8591 39.0427 27.7805L38.9684 26.7833ZM39.6829 26.7301L38.9684 26.7833L39.0427 27.7805L39.7571 27.7273L39.6829 26.7301ZM42.0553 27.8491C41.5158 27.0854 40.6153 26.6607 39.6829 26.7301L39.7571 27.7273C40.3394 27.684 40.9017 27.9492 41.2385 28.4261L42.0553 27.8491ZM42.4482 28.4053L42.0553 27.8491L41.2385 28.4261L41.6314 28.9822L42.4482 28.4053ZM42.1836 30.8849C42.8827 30.2424 42.996 29.1808 42.4482 28.4053L41.6314 28.9822C41.8891 29.347 41.8358 29.8464 41.507 30.1486L42.1836 30.8849ZM39.9827 31.1416C40.6947 31.5408 41.5826 31.4372 42.1836 30.8849L41.507 30.1486C41.2242 30.4084 40.8066 30.4571 40.4717 30.2694L39.9827 31.1416ZM39.4053 30.8179L39.9827 31.1416L40.4717 30.2694L39.8943 29.9457L39.4053 30.8179ZM38.3406 30.5972C38.7098 30.5594 39.0816 30.6365 39.4053 30.8179L39.8943 29.9457C39.3909 29.6635 38.8128 29.5436 38.2387 29.6024L38.3406 30.5972ZM35.6789 30.8699L38.3406 30.5972L38.2387 29.6024L35.577 29.8751L35.6789 30.8699ZM41.985 56.5897C41.9315 57.5397 42.6875 58.3394 43.639 58.3394V57.3394C43.2619 57.3394 42.9622 57.0224 42.9834 56.6459L41.985 56.5897ZM42.0379 55.6509L41.985 56.5897L42.9834 56.6459L43.0363 55.7071L42.0379 55.6509ZM42.5619 54.2417C42.2493 54.648 42.0666 55.1391 42.0379 55.6509L43.0363 55.7071C43.0538 55.3964 43.1647 55.0982 43.3544 54.8516L42.5619 54.2417ZM42.9291 53.7645L42.5619 54.2417L43.3544 54.8515L43.7217 54.3743L42.9291 53.7645ZM44.0543 53.1811C43.6114 53.1996 43.1995 53.4132 42.9291 53.7645L43.7217 54.3743C43.8116 54.2574 43.9486 54.1864 44.096 54.1802L44.0543 53.1811ZM45.6144 54.7266C45.6425 53.8559 44.9247 53.1448 44.0543 53.1811L44.096 54.1802C44.3855 54.1682 44.6242 54.4047 44.6149 54.6943L45.6144 54.7266ZM45.5696 56.1136L45.6144 54.7266L44.6149 54.6943L44.5701 56.0813L45.5696 56.1136ZM45.2538 57.2046C45.4486 56.873 45.5572 56.4979 45.5696 56.1136L44.5701 56.0813C44.5631 56.2986 44.5017 56.5106 44.3916 56.698L45.2538 57.2046ZM45.0673 57.522L45.2538 57.2046L44.3916 56.698L44.2051 57.0154L45.0673 57.522ZM43.639 58.3394C44.2263 58.3394 44.7698 58.0284 45.0673 57.522L44.2051 57.0154C44.0872 57.2161 43.8718 57.3394 43.639 57.3394V58.3394Z" fill="currentColor" />
</svg>