<svg viewBox="0 0 80 80" fill="none">
  <g clip-path="url(#clip0)">
    <path d="M39.5 65C39.5 63.6193 38.3807 62.5 37 62.5C35.6193 62.5 34.5 63.6193 34.5 65H39.5ZM53 73.9373C54.3807 73.9373 55.5 72.818 55.5 71.4373C55.5 70.0566 54.3807 68.9373 53 68.9373V73.9373ZM21 68.9373C19.6193 68.9373 18.5 70.0566 18.5 71.4373C18.5 72.8181 19.6193 73.9373 21 73.9373L21 68.9373ZM39.5 71.4373V65H34.5V71.4373H39.5ZM37 73.9373L53 73.9373V68.9373L37 68.9373V73.9373ZM37 68.9373L21 68.9373L21 73.9373L37 73.9373L37 68.9373Z" fill="currentColor" />
    <path d="M20.2611 58.1217L18.2311 56.6624L20.2611 58.1217ZM20.4991 59.5035L21.8888 57.4253L21.8888 57.4253L20.4991 59.5035ZM23.9905 52.9336L25.4497 50.9037L23.4198 49.4445L21.9606 51.4744L23.9905 52.9336ZM34.0389 56.9132L33.7126 59.3918L33.7126 59.3918L34.0389 56.9132ZM58.9165 37.824L61.3951 38.1503L58.9165 37.824ZM54.5242 21.4317L52.5408 22.9536L52.5408 22.9536L54.5242 21.4317ZM46.0536 14.7193L43.7749 13.6909L42.7466 15.9696L45.0252 16.998L46.0536 14.7193ZM48.6833 8.8924L50.962 9.92076L48.6833 8.8924ZM49.999 8.40762L51.1039 6.16504L49.999 8.40762ZM60.388 16.9304L62.3714 15.4085L62.3714 15.4085L60.388 16.9304ZM66.2444 38.7868L63.7658 38.4605L63.7658 38.4605L66.2444 38.7868ZM54.9307 58.3827L53.4088 56.3993L53.4088 56.3993L54.9307 58.3827ZM33.0743 64.2391L33.4006 61.7605L33.4006 61.7605L33.0743 64.2391ZM18.2311 56.6624C17.1163 58.2133 17.4288 60.4579 19.1095 61.5817L21.8888 57.4253C22.6512 57.9352 22.7611 58.927 22.291 59.5809L18.2311 56.6624ZM21.9606 51.4744L18.2311 56.6624L22.291 59.5809L26.0204 54.3929L21.9606 51.4744ZM34.3652 54.4346C31.1184 54.0071 28.0615 52.7812 25.4497 50.9037L22.5313 54.9636C25.8065 57.3179 29.6404 58.8557 33.7126 59.3918L34.3652 54.4346ZM48.9093 50.5375C44.7699 53.7138 39.5382 55.1156 34.3652 54.4346L33.7126 59.3918C40.2003 60.246 46.7616 58.4879 51.9531 54.5043L48.9093 50.5375ZM56.4379 37.4977C55.7569 42.6706 53.0487 47.3612 48.9093 50.5375L51.9531 54.5043C57.1446 50.5207 60.541 44.638 61.3951 38.1503L56.4379 37.4977ZM52.5408 22.9536C55.7171 27.093 57.1189 32.3247 56.4379 37.4977L61.3951 38.1503C62.2492 31.6626 60.4911 25.1012 56.5076 19.9098L52.5408 22.9536ZM45.0252 16.998C47.9571 18.3212 50.5472 20.3554 52.5408 22.9536L56.5076 19.9098C54.0072 16.6512 50.7585 14.0999 47.082 12.4406L45.0252 16.998ZM46.4046 7.86403L43.7749 13.6909L48.3323 15.7477L50.962 9.92076L46.4046 7.86403ZM51.1039 6.16504C49.2903 5.27147 47.1902 6.12316 46.4046 7.86403L50.962 9.92076C50.6307 10.6548 49.7168 11.0556 48.8941 10.6502L51.1039 6.16504ZM62.3714 15.4085C59.3464 11.4662 55.4786 8.32044 51.1039 6.16504L48.8941 10.6502C52.5869 12.4696 55.8514 15.1248 58.4046 18.4523L62.3714 15.4085ZM68.723 39.1131C69.833 30.6819 67.5483 22.1551 62.3714 15.4085L58.4046 18.4523C62.7742 24.1469 64.7027 31.344 63.7658 38.4605L68.723 39.1131ZM56.4526 60.3661C63.1992 55.1892 67.613 47.5443 68.723 39.1131L63.7658 38.4605C62.8289 45.5769 59.1034 52.0297 53.4088 56.3993L56.4526 60.3661ZM32.748 66.7177C41.1792 67.8277 49.706 65.543 56.4526 60.3661L53.4088 56.3993C47.7142 60.7689 40.5171 62.6974 33.4006 61.7605L32.748 66.7177ZM19.1095 61.5817C23.1634 64.2925 27.8215 66.0691 32.748 66.7177L33.4006 61.7605C29.2424 61.213 25.3108 59.7136 21.8888 57.4253L19.1095 61.5817Z" fill="currentColor" />
    <path d="M39.8941 13.0165C45.7245 13.7841 51.0111 16.8364 54.5911 21.5018V21.5018C58.171 26.1673 59.7509 32.0637 58.9834 37.8941V37.8941C58.2158 43.7245 55.1635 49.0111 50.4981 52.5911V52.5911C45.8326 56.171 39.9361 57.7509 34.1058 56.9834V56.9834C28.2754 56.2158 22.9888 53.1635 19.4088 48.4981V48.4981C15.8289 43.8326 14.2489 37.9361 15.0165 32.1058V32.1058C15.7841 26.2754 18.8364 20.9888 23.5018 17.4088V17.4088C28.1673 13.8289 34.0637 12.2489 39.8941 13.0165V13.0165Z" stroke="currentColor" stroke-width="5" />
    <path fill-rule="evenodd" clip-rule="evenodd" d="M27.2491 21.9434C27.6963 22.268 28.264 22.3787 28.8004 22.2459L29.5144 22.0692C30.4023 21.8494 31.3412 21.9906 32.1253 22.4619L32.1509 22.4772L32.6501 25.0249L33.8428 25.5768L34.4707 25.8673C34.8357 26.0362 35.2483 26.0724 35.6372 25.9697C36.044 25.8623 36.476 25.907 36.8522 26.0955L37.822 26.5814L38.171 28.2573C38.3761 29.2426 37.7705 30.215 36.7958 30.4655C36.2973 30.5937 35.768 30.5122 35.3311 30.24L33.9462 29.3774C33.7638 29.2638 33.5332 29.2618 33.3489 29.3722C33.1095 29.5157 32.8016 29.4657 32.6199 29.2539L30.792 27.1238C30.6131 26.9152 30.5679 26.6232 30.6753 26.3703C30.8218 26.0256 30.6807 25.6261 30.3503 25.4498L28.1049 24.2518C27.9664 24.1778 27.8705 24.0432 27.846 23.8881C27.7958 23.5709 27.4642 23.3822 27.1658 23.501L25.0209 24.3557C24.6107 24.5191 24.255 24.7949 23.9946 25.1514L22.827 26.7502C21.795 28.1633 21.4614 29.969 21.9204 31.6576L22.2059 32.7079C22.4152 33.4778 22.9159 34.136 23.6019 34.5433C25.0293 35.3907 25.5251 37.219 24.7214 38.6715L24.1253 39.7487C23.7747 40.3822 23.7287 41.1401 24 41.8114C24.267 42.4719 24.2268 43.2169 23.8905 43.845L22.562 46.3256C22.3199 46.7777 22.2204 47.2925 22.2766 47.8023C22.3632 48.5863 22.8155 49.2894 23.49 49.6983C24.1024 50.0697 24.8479 50.1718 25.5362 49.9738L26.7795 49.6163C28.1478 49.2229 29.3113 48.3162 30.0272 47.0855L31.919 43.8332C32.4816 42.8661 33.4012 42.1584 34.4801 41.8621L35.5368 41.572C36.3399 41.3515 36.9666 40.7229 37.1846 39.9191C37.2911 39.5262 37.2939 39.1124 37.1927 38.7181L35.9164 33.7476C35.8242 33.3885 36.0817 33.0342 36.4517 33.0111C36.7364 32.9933 36.9931 33.1816 37.0618 33.4585L37.7084 36.0649C37.8948 36.8163 38.3639 37.4669 39.018 37.881L39.5114 38.1934C39.9024 38.4409 40.3788 38.5147 40.8264 38.3969C41.7218 38.1613 42.2532 37.2406 42.0094 36.3473L41.2975 33.7396C41.242 33.5365 41.3308 33.3217 41.5134 33.217C41.7745 33.0674 42.1067 33.2032 42.188 33.4929L42.5192 34.6715C42.6184 35.0246 42.8507 35.3255 43.1673 35.5107L43.8276 35.8972C44.809 36.4716 45.4271 37.5095 45.4646 38.646L45.5796 42.1268C45.5843 42.269 45.6505 42.4022 45.7611 42.4917C45.9528 42.647 46.2299 42.6358 46.4084 42.4656L47.5566 41.371C47.7532 41.1836 47.9814 41.0326 48.2306 40.925L48.8106 40.6746C50.3348 40.0166 52.0462 41.0875 52.1208 42.746L52.1495 43.383C52.179 44.039 52.6308 44.5999 53.2654 44.7685C53.9684 44.9552 54.7042 44.612 55.0129 43.9534L55.1385 43.6852C55.4266 43.0704 56.0271 42.6618 56.7047 42.6193L57.3172 42.5809C57.5114 42.5688 57.7013 42.5315 57.8826 42.4713C58.4098 40.9991 58.7837 39.4643 58.991 37.8899C59.7585 32.0596 58.1786 26.1631 54.5986 21.4976C54.4583 21.3147 54.3154 21.1343 54.1699 20.9564C53.61 20.844 53.0223 20.894 52.4793 21.1118L52.0824 21.271C50.9932 21.7079 49.7641 21.6229 48.7455 21.0401L46.0892 19.5204C45.2014 19.0125 44.5421 18.1836 44.2469 17.2043L44.2085 17.0769C43.9641 16.2663 43.4441 15.5667 42.7383 15.0991C41.8829 14.5324 40.8276 14.3543 39.8336 14.6089L38.1492 15.0404C37.8066 15.1281 37.5414 15.3994 37.4614 15.744C37.306 16.4136 37.8931 17.0207 38.5676 16.8877L40.1321 16.5794C40.4787 16.511 40.813 16.7435 40.8696 17.0922C40.9197 17.4012 40.7335 17.6995 40.434 17.7902L38.9702 18.2336C38.7303 18.3063 38.5216 18.457 38.3772 18.6619C38.0474 19.1297 37.4188 19.2752 36.9171 18.9997L35.5887 18.2706C34.9949 17.9446 34.3036 17.8433 33.6413 17.9851L31.3769 18.4701L32.025 16.0684C32.2859 15.1014 31.9315 14.1615 31.2551 13.5818C29.9496 13.9325 28.6761 14.4026 27.4514 14.9875C27.4592 15.6248 27.7818 16.2462 28.3667 16.608L31.3769 18.4701L29.5382 19.7494C29.1274 20.0351 28.6163 20.137 28.1274 20.0307L27.3897 19.8702C26.9469 19.7739 26.5 20.0146 26.3369 20.4374C26.1869 20.8262 26.3173 21.2671 26.6545 21.5119L27.2491 21.9434ZM53.9777 49.2668C53.2162 50.1724 52.3796 51.02 51.4737 51.7999C51.1931 51.3692 51.0288 50.8686 51.0034 50.3474L50.8859 47.9388C50.8417 47.0313 51.7272 46.3654 52.5868 46.6599C52.9684 46.7907 53.2665 47.093 53.392 47.4764L53.9777 49.2668ZM37.822 26.5814L38.6379 26.0123C39.4506 25.4454 40.5058 25.3609 41.3983 25.7912L41.9146 26.0401C42.4618 26.304 42.8305 26.8356 42.886 27.4406L42.9357 27.9831C42.9867 28.5392 42.6168 29.0466 42.0718 29.1683C41.6032 29.2729 41.1205 29.0645 40.8752 28.6518L40.6047 28.1966C40.4109 27.8706 40.1212 27.6123 39.7752 27.4572L37.822 26.5814ZM32.3855 48.8154C31.9252 48.5497 31.7829 47.9517 32.0741 47.5071L32.4862 46.8779C32.6667 46.6022 32.9263 46.3875 33.2309 46.2618L33.6762 46.078C33.8946 45.9879 34.1417 45.9991 34.3511 46.1086C34.7626 46.3239 34.9044 46.8434 34.6594 47.2379L34.0735 48.1809C33.9465 48.3854 33.7702 48.5548 33.5608 48.6736L33.3046 48.8189C33.0193 48.9808 32.6696 48.9794 32.3855 48.8154Z" fill="currentColor" />
    <path d="M28.8004 22.2459L28.9206 22.7313L28.8004 22.2459ZM27.2491 21.9434L26.9554 22.3481L26.9554 22.3481L27.2491 21.9434ZM29.5144 22.0692L29.3942 21.5839L29.3942 21.5839L29.5144 22.0692ZM32.1253 22.4619L31.8677 22.8904L31.8677 22.8904L32.1253 22.4619ZM32.1509 22.4772L32.6415 22.3811C32.6143 22.2423 32.5296 22.1215 32.4084 22.0487L32.1509 22.4772ZM32.6501 25.0249L32.1594 25.121C32.1903 25.2784 32.2946 25.4114 32.4401 25.4787L32.6501 25.0249ZM33.8428 25.5768L34.0528 25.123L34.0528 25.123L33.8428 25.5768ZM34.4707 25.8673L34.2607 26.3211L34.2607 26.3211L34.4707 25.8673ZM35.6372 25.9697L35.7649 26.4532L35.7649 26.4532L35.6372 25.9697ZM36.8522 26.0955L36.6282 26.5425L36.8522 26.0955ZM38.171 28.2573L38.6605 28.1554L38.171 28.2573ZM36.7958 30.4655L36.6713 29.9813L36.7958 30.4655ZM35.3311 30.24L35.5955 29.8156L35.5955 29.8156L35.3311 30.24ZM33.9462 29.3774L33.6818 29.8018L33.6818 29.8018L33.9462 29.3774ZM33.3489 29.3722L33.0919 28.9434L33.0919 28.9434L33.3489 29.3722ZM32.6199 29.2539L32.2404 29.5795L32.6199 29.2539ZM30.792 27.1238L30.4126 27.4494L30.4126 27.4494L30.792 27.1238ZM30.6753 26.3703L31.1355 26.5659L31.1355 26.5659L30.6753 26.3703ZM30.3503 25.4498L30.1149 25.891L30.3503 25.4498ZM28.1049 24.2518L27.8695 24.6929L27.8695 24.6929L28.1049 24.2518ZM27.846 23.8881L28.3398 23.81L27.846 23.8881ZM27.1658 23.501L26.9808 23.0366L27.1658 23.501ZM25.0209 24.3557L25.206 24.8202L25.0209 24.3557ZM23.9946 25.1514L24.3984 25.4463L23.9946 25.1514ZM22.827 26.7502L22.4232 26.4553L22.827 26.7502ZM21.9204 31.6576L22.4029 31.5264L22.4029 31.5264L21.9204 31.6576ZM22.2059 32.7079L21.7234 32.8391L21.7234 32.8391L22.2059 32.7079ZM23.6019 34.5433L23.8571 34.1133L23.8571 34.1133L23.6019 34.5433ZM24.7214 38.6715L25.1588 38.9136L24.7214 38.6715ZM24.1253 39.7487L23.6878 39.5067L24.1253 39.7487ZM24 41.8114L23.5364 41.9987L23.5364 41.9987L24 41.8114ZM23.8905 43.845L23.4497 43.6089L23.8905 43.845ZM22.562 46.3256L22.1213 46.0895L22.562 46.3256ZM22.2766 47.8023L21.7797 47.8572L22.2766 47.8023ZM23.49 49.6983L23.2307 50.1258L23.2307 50.1258L23.49 49.6983ZM25.5362 49.9738L25.398 49.4933L25.5362 49.9738ZM26.7795 49.6163L26.9176 50.0969L26.9176 50.0969L26.7795 49.6163ZM30.0272 47.0855L29.595 46.8341L30.0272 47.0855ZM31.919 43.8332L31.4868 43.5818L31.919 43.8332ZM34.4801 41.8621L34.6125 42.3443L34.4801 41.8621ZM35.5368 41.572L35.4045 41.0898L35.4045 41.0898L35.5368 41.572ZM37.1846 39.9191L36.702 39.7882L36.702 39.7882L37.1846 39.9191ZM37.1927 38.7181L37.677 38.5938L37.1927 38.7181ZM35.9164 33.7476L36.4007 33.6232L36.4007 33.6232L35.9164 33.7476ZM36.4517 33.0111L36.4828 33.5102L36.4828 33.5102L36.4517 33.0111ZM37.0618 33.4585L37.5471 33.3381L37.0618 33.4585ZM37.7084 36.0649L38.1937 35.9445L37.7084 36.0649ZM39.018 37.881L39.2855 37.4586L39.018 37.881ZM39.5114 38.1934L39.2439 38.6158L39.2439 38.6158L39.5114 38.1934ZM40.8264 38.3969L40.9536 38.8804L40.8264 38.3969ZM42.0094 36.3473L42.4917 36.2157L42.0094 36.3473ZM41.2975 33.7396L41.7798 33.6079L41.7798 33.6079L41.2975 33.7396ZM41.5134 33.217L41.2647 32.7832L41.2647 32.7832L41.5134 33.217ZM42.188 33.4929L41.7067 33.6281L42.188 33.4929ZM42.5192 34.6715L42.0378 34.8067L42.0378 34.8067L42.5192 34.6715ZM43.1673 35.5107L43.4198 35.0792L43.4198 35.0792L43.1673 35.5107ZM43.8276 35.8972L43.575 36.3287L43.8276 35.8972ZM45.4646 38.646L44.9649 38.6625L45.4646 38.646ZM45.5796 42.1268L46.0793 42.1103L46.0793 42.1103L45.5796 42.1268ZM45.7611 42.4917L45.4463 42.8802L45.7611 42.4917ZM46.4084 42.4656L46.7535 42.8275L46.4084 42.4656ZM47.5566 41.371L47.9017 41.7329L47.9017 41.7329L47.5566 41.371ZM48.2306 40.925L48.0324 40.466L48.0324 40.466L48.2306 40.925ZM48.8106 40.6746L48.6124 40.2156L48.8106 40.6746ZM52.1208 42.746L52.6203 42.7236L52.6203 42.7236L52.1208 42.746ZM52.1495 43.383L51.65 43.4055L51.65 43.4055L52.1495 43.383ZM53.2654 44.7685L53.3938 44.2853L53.3938 44.2853L53.2654 44.7685ZM55.0129 43.9534L54.5601 43.7412L55.0129 43.9534ZM55.1385 43.6852L54.6858 43.473L55.1385 43.6852ZM56.7047 42.6193L56.7359 43.1183L56.7047 42.6193ZM57.3172 42.5809L57.3484 43.0799L57.3484 43.0799L57.3172 42.5809ZM57.8826 42.4713L58.0401 42.9458C58.186 42.8974 58.3015 42.7846 58.3533 42.6399L57.8826 42.4713ZM58.991 37.8899L59.4867 37.9552L58.991 37.8899ZM54.5986 21.4976L54.202 21.802L54.202 21.802L54.5986 21.4976ZM54.1699 20.9564L54.5569 20.6399C54.4837 20.5504 54.3817 20.489 54.2683 20.4662L54.1699 20.9564ZM52.4793 21.1118L52.6654 21.5759L52.6654 21.5759L52.4793 21.1118ZM52.0824 21.271L51.8963 20.807L51.8963 20.807L52.0824 21.271ZM48.7455 21.0401L48.4972 21.4741L48.7455 21.0401ZM46.0892 19.5204L46.3375 19.0864L46.0892 19.5204ZM44.2469 17.2043L43.7682 17.3486L43.7682 17.3486L44.2469 17.2043ZM44.2085 17.0769L44.6872 16.9326L44.6872 16.9326L44.2085 17.0769ZM42.7383 15.0991L42.4622 15.5159L42.7383 15.0991ZM39.8336 14.6089L39.9577 15.0932L39.8336 14.6089ZM38.1492 15.0404L38.0252 14.556L38.1492 15.0404ZM37.4614 15.744L36.9744 15.6309L36.9744 15.6309L37.4614 15.744ZM38.5676 16.8877L38.6643 17.3783L38.5676 16.8877ZM40.1321 16.5794L40.2288 17.0699L40.2288 17.0699L40.1321 16.5794ZM40.8696 17.0922L40.376 17.1723L40.376 17.1723L40.8696 17.0922ZM40.434 17.7902L40.579 18.2688L40.579 18.2688L40.434 17.7902ZM38.9702 18.2336L38.8253 17.7551L38.8253 17.7551L38.9702 18.2336ZM38.3772 18.6619L37.9685 18.3738L37.9685 18.3738L38.3772 18.6619ZM36.9171 18.9997L36.6765 19.4381L36.9171 18.9997ZM35.5887 18.2706L35.3481 18.7089L35.5887 18.2706ZM33.6413 17.9851L33.746 18.4741L33.6413 17.9851ZM32.025 16.0684L32.5077 16.1987L32.025 16.0684ZM31.2551 13.5818L31.5804 13.2022C31.4551 13.0947 31.2848 13.0561 31.1253 13.0989L31.2551 13.5818ZM27.4514 14.9875L27.2359 14.5363C27.0601 14.6203 26.9491 14.7987 26.9515 14.9936L27.4514 14.9875ZM28.3667 16.608L28.6297 16.1827L28.3667 16.608ZM29.5382 19.7494L29.8237 20.1598L29.5382 19.7494ZM28.1274 20.0307L28.2337 19.5421L28.2337 19.5421L28.1274 20.0307ZM27.3897 19.8702L27.2834 20.3588L27.3897 19.8702ZM26.3369 20.4374L25.8704 20.2574L26.3369 20.4374ZM26.6545 21.5119L26.9482 21.1072L26.9482 21.1072L26.6545 21.5119ZM53.9777 49.2668L54.3604 49.5886C54.4717 49.4562 54.5067 49.2757 54.4529 49.1113L53.9777 49.2668ZM51.4737 51.7999L51.0548 52.0728C51.1335 52.1936 51.2605 52.2746 51.4033 52.2949C51.546 52.3152 51.6906 52.2729 51.7999 52.1788L51.4737 51.7999ZM51.0034 50.3474L50.504 50.3718L50.504 50.3718L51.0034 50.3474ZM50.8859 47.9388L51.3853 47.9144L50.8859 47.9388ZM52.5868 46.6599L52.7488 46.1869L52.5868 46.6599ZM53.392 47.4764L53.8672 47.3209L53.8672 47.3209L53.392 47.4764ZM38.6379 26.0123L38.924 26.4223L38.6379 26.0123ZM41.3983 25.7912L41.6154 25.3408L41.3983 25.7912ZM41.9146 26.0401L42.1317 25.5898L41.9146 26.0401ZM42.886 27.4406L42.3881 27.4862L42.886 27.4406ZM42.9357 27.9831L43.4336 27.9374L43.4336 27.9374L42.9357 27.9831ZM42.0718 29.1683L42.1807 29.6562L42.0718 29.1683ZM40.8752 28.6518L41.305 28.3963L40.8752 28.6518ZM40.6047 28.1966L40.1748 28.452L40.1748 28.452L40.6047 28.1966ZM39.7752 27.4572L39.9797 27.0009L39.9797 27.0009L39.7752 27.4572ZM32.0741 47.5071L32.4923 47.7811L32.0741 47.5071ZM32.4862 46.8779L32.9044 47.1518L32.4862 46.8779ZM33.2309 46.2618L33.0401 45.7996L33.0401 45.7996L33.2309 46.2618ZM33.6762 46.078L33.4855 45.6158L33.4855 45.6158L33.6762 46.078ZM34.3511 46.1086L34.5829 45.6656L34.3511 46.1086ZM34.6594 47.2379L35.0841 47.5017L34.6594 47.2379ZM34.0735 48.1809L33.6488 47.9171L34.0735 48.1809ZM33.5608 48.6736L33.3141 48.2387L33.3141 48.2387L33.5608 48.6736ZM33.3046 48.8189L33.5513 49.2538L33.5513 49.2538L33.3046 48.8189ZM32.1678 25.1567C32.2406 25.4231 32.5155 25.58 32.7819 25.5072C33.0483 25.4344 33.2052 25.1595 33.1324 24.8931L32.1678 25.1567ZM32.6443 22.3965C32.5997 22.1239 32.3426 21.9392 32.0701 21.9838C31.7976 22.0284 31.6128 22.2855 31.6574 22.558L32.6443 22.3965ZM28.6803 21.7606C28.287 21.8579 27.8707 21.7768 27.5428 21.5388L26.9554 22.3481C27.522 22.7593 28.2411 22.8995 28.9206 22.7313L28.6803 21.7606ZM29.3942 21.5839L28.6803 21.7606L28.9206 22.7313L29.6345 22.5546L29.3942 21.5839ZM32.3829 22.0333C31.4854 21.4939 30.4107 21.3322 29.3942 21.5839L29.6345 22.5546C30.394 22.3665 31.1971 22.4873 31.8677 22.8904L32.3829 22.0333ZM32.4084 22.0487L32.3829 22.0333L31.8677 22.8904L31.8933 22.9058L32.4084 22.0487ZM33.1408 24.9287L32.6415 22.3811L31.6602 22.5734L32.1594 25.121L33.1408 24.9287ZM34.0528 25.123L32.8601 24.5711L32.4401 25.4787L33.6328 26.0305L34.0528 25.123ZM34.6806 25.4135L34.0528 25.123L33.6328 26.0305L34.2607 26.3211L34.6806 25.4135ZM35.5096 25.4863C35.2332 25.5593 34.9401 25.5335 34.6806 25.4135L34.2607 26.3211C34.7314 26.5389 35.2634 26.5856 35.7649 26.4532L35.5096 25.4863ZM37.0762 25.6485C36.5911 25.4055 36.0341 25.3478 35.5096 25.4863L35.7649 26.4532C36.0539 26.3768 36.3609 26.4086 36.6282 26.5425L37.0762 25.6485ZM38.046 26.1344L37.0762 25.6485L36.6282 26.5425L37.598 27.0284L38.046 26.1344ZM38.6605 28.1554L38.3115 26.4795L37.3325 26.6833L37.6815 28.3593L38.6605 28.1554ZM36.9203 30.9498C38.1537 30.6328 38.9201 29.4022 38.6605 28.1554L37.6815 28.3593C37.8321 29.083 37.3873 29.7973 36.6713 29.9813L36.9203 30.9498ZM35.0667 30.6644C35.6196 31.0088 36.2894 31.1119 36.9203 30.9498L36.6713 29.9813C36.3051 30.0754 35.9164 30.0155 35.5955 29.8156L35.0667 30.6644ZM33.6818 29.8018L35.0667 30.6644L35.5955 29.8156L34.2105 28.953L33.6818 29.8018ZM33.606 29.8011C33.6294 29.7871 33.6586 29.7873 33.6818 29.8018L34.2105 28.953C33.869 28.7402 33.4371 28.7365 33.0919 28.9434L33.606 29.8011ZM32.2404 29.5795C32.5808 29.9762 33.1576 30.0698 33.606 29.8011L33.0919 28.9434C33.0615 28.9616 33.0224 28.9552 32.9993 28.9283L32.2404 29.5795ZM30.4126 27.4494L32.2404 29.5795L32.9993 28.9283L31.1715 26.7982L30.4126 27.4494ZM30.2151 26.1748C30.0334 26.6026 30.1099 27.0966 30.4126 27.4494L31.1715 26.7982C31.1163 26.7339 31.1024 26.6438 31.1355 26.5659L30.2151 26.1748ZM30.1149 25.891C30.2168 25.9453 30.2603 26.0685 30.2151 26.1748L31.1355 26.5659C31.3833 25.9827 31.1447 25.3069 30.5857 25.0087L30.1149 25.891ZM27.8695 24.6929L30.1149 25.891L30.5857 25.0087L28.3403 23.8106L27.8695 24.6929ZM27.3521 23.9662C27.4011 24.2762 27.5927 24.5452 27.8695 24.6929L28.3403 23.8106L28.3398 23.81L27.3521 23.9662ZM27.3509 23.9655C27.3521 23.965 27.3525 23.965 27.3521 23.9651C27.3517 23.9652 27.3513 23.9652 27.3509 23.9651C27.3503 23.9651 27.3507 23.965 27.3517 23.9656C27.3527 23.9661 27.3528 23.9665 27.3524 23.966C27.3522 23.9657 27.352 23.9653 27.3519 23.965C27.3517 23.9646 27.3519 23.9649 27.3521 23.9662L28.3398 23.81C28.2396 23.1761 27.577 22.799 26.9808 23.0366L27.3509 23.9655ZM25.206 24.8202L27.3509 23.9655L26.9808 23.0366L24.8358 23.8912L25.206 24.8202ZM24.3984 25.4463C24.6033 25.1658 24.8832 24.9487 25.206 24.8202L24.8358 23.8912C24.3383 24.0894 23.9067 24.424 23.5909 24.8565L24.3984 25.4463ZM23.2308 27.0451L24.3984 25.4463L23.5909 24.8565L22.4232 26.4553L23.2308 27.0451ZM22.4029 31.5264C21.9837 29.9844 22.2883 28.3355 23.2308 27.0451L22.4232 26.4553C21.3016 27.9911 20.939 29.9535 21.4379 31.7887L22.4029 31.5264ZM22.6884 32.5767L22.4029 31.5264L21.4379 31.7887L21.7234 32.8391L22.6884 32.5767ZM23.8571 34.1133C23.2828 33.7724 22.8636 33.2213 22.6884 32.5767L21.7234 32.8391C21.9668 33.7343 22.5489 34.4996 23.3466 34.9732L23.8571 34.1133ZM25.1588 38.9136C26.0935 37.2247 25.517 35.0987 23.8571 34.1133L23.3466 34.9732C24.5417 35.6827 24.9568 37.2134 24.2839 38.4294L25.1588 38.9136ZM24.5627 39.9908L25.1588 38.9136L24.2839 38.4294L23.6878 39.5067L24.5627 39.9908ZM24.4635 41.624C24.2487 41.0925 24.2852 40.4924 24.5627 39.9908L23.6878 39.5067C23.2642 40.2721 23.2086 41.1877 23.5364 41.9987L24.4635 41.624ZM24.3313 44.081C24.7376 43.3222 24.7861 42.4221 24.4635 41.624L23.5364 41.9987C23.7478 42.5217 23.716 43.1116 23.4497 43.6089L24.3313 44.081ZM23.0028 46.5616L24.3313 44.081L23.4497 43.6089L22.1213 46.0895L23.0028 46.5616ZM22.7736 47.7475C22.7285 47.3381 22.8084 46.9247 23.0028 46.5616L22.1213 46.0895C21.8314 46.6307 21.7123 47.247 21.7797 47.8572L22.7736 47.7475ZM23.7492 49.2708C23.2063 48.9415 22.8429 48.3754 22.7736 47.7475L21.7797 47.8572C21.8834 48.7971 22.4248 49.6372 23.2307 50.1258L23.7492 49.2708ZM25.398 49.4933C24.8451 49.6523 24.2435 49.5705 23.7492 49.2708L23.2307 50.1258C23.9612 50.5688 24.8506 50.6912 25.6744 50.4544L25.398 49.4933ZM26.6413 49.1358L25.398 49.4933L25.6744 50.4544L26.9176 50.0969L26.6413 49.1358ZM29.595 46.8341C28.9439 47.9534 27.8857 48.778 26.6413 49.1358L26.9176 50.0969C28.4098 49.6678 29.6787 48.679 30.4594 47.3369L29.595 46.8341ZM31.4868 43.5818L29.595 46.8341L30.4594 47.3369L32.3512 44.0847L31.4868 43.5818ZM34.3477 41.38C33.1425 41.7109 32.1152 42.5015 31.4868 43.5818L32.3512 44.0847C32.8479 43.2307 33.6599 42.6058 34.6125 42.3443L34.3477 41.38ZM35.4045 41.0898L34.3477 41.38L34.6125 42.3443L35.6692 42.0541L35.4045 41.0898ZM36.702 39.7882C36.5303 40.4212 36.0369 40.9162 35.4045 41.0898L35.6692 42.0541C36.643 41.7868 37.4028 41.0246 37.6671 40.05L36.702 39.7882ZM36.7084 38.8425C36.7881 39.153 36.7859 39.4788 36.702 39.7882L37.6671 40.05C37.7963 39.5736 37.7997 39.0719 37.677 38.5938L36.7084 38.8425ZM35.4321 33.8719L36.7084 38.8425L37.677 38.5938L36.4007 33.6232L35.4321 33.8719ZM36.4205 32.5121C35.7373 32.5548 35.2618 33.2089 35.4321 33.8719L36.4007 33.6232C36.3865 33.5681 36.426 33.5137 36.4828 33.5102L36.4205 32.5121ZM37.5471 33.3381C37.4203 32.8268 36.9462 32.4793 36.4205 32.5121L36.4828 33.5102C36.5266 33.5074 36.566 33.5363 36.5765 33.5788L37.5471 33.3381ZM38.1937 35.9445L37.5471 33.3381L36.5765 33.5788L37.2231 36.1853L38.1937 35.9445ZM39.2855 37.4586C38.7402 37.1133 38.3491 36.571 38.1937 35.9445L37.2231 36.1853C37.4405 37.0617 37.9876 37.8204 38.7505 38.3035L39.2855 37.4586ZM39.7789 37.7709L39.2855 37.4586L38.7505 38.3035L39.2439 38.6158L39.7789 37.7709ZM40.6991 37.9134C40.3859 37.9958 40.0525 37.9442 39.7789 37.7709L39.2439 38.6158C39.7523 38.9377 40.3717 39.0336 40.9536 38.8804L40.6991 37.9134ZM41.527 36.479C41.6977 37.1041 41.3258 37.7484 40.6991 37.9134L40.9536 38.8804C42.1178 38.5741 42.8088 37.377 42.4917 36.2157L41.527 36.479ZM40.8151 33.8712L41.527 36.479L42.4917 36.2157L41.7798 33.6079L40.8151 33.8712ZM41.2647 32.7832C40.8846 33.0012 40.6997 33.4485 40.8151 33.8712L41.7798 33.6079C41.7844 33.6246 41.7771 33.6422 41.7621 33.6508L41.2647 32.7832ZM42.6694 33.3576C42.4999 32.7545 41.8083 32.4716 41.2647 32.7832L41.7621 33.6508C41.7406 33.6631 41.7134 33.6519 41.7067 33.6281L42.6694 33.3576ZM43.0006 34.5362L42.6694 33.3576L41.7067 33.6281L42.0378 34.8067L43.0006 34.5362ZM43.4198 35.0792C43.215 34.9593 43.0647 34.7647 43.0006 34.5362L42.0378 34.8067C42.1721 35.2845 42.4864 35.6916 42.9147 35.9422L43.4198 35.0792ZM44.0802 35.4657L43.4198 35.0792L42.9147 35.9422L43.575 36.3287L44.0802 35.4657ZM45.9644 38.6295C45.9212 37.3214 45.2098 36.1269 44.0802 35.4657L43.575 36.3287C44.4083 36.8164 44.933 37.6976 44.9649 38.6625L45.9644 38.6295ZM46.0793 42.1103L45.9644 38.6295L44.9649 38.6625L45.0799 42.1433L46.0793 42.1103ZM46.0759 42.1032C46.078 42.105 46.0792 42.1075 46.0793 42.1103L45.0799 42.1433C45.0894 42.4305 45.2231 42.6994 45.4463 42.8802L46.0759 42.1032ZM46.0634 42.1037C46.0669 42.1005 46.0722 42.1003 46.0759 42.1032L45.4463 42.8802C45.8333 43.1938 46.393 43.1712 46.7535 42.8275L46.0634 42.1037ZM47.2116 41.0091L46.0634 42.1037L46.7535 42.8275L47.9017 41.7329L47.2116 41.0091ZM48.0324 40.466C47.7289 40.597 47.451 40.7809 47.2116 41.0091L47.9017 41.7329C48.0554 41.5863 48.2338 41.4682 48.4288 41.3841L48.0324 40.466ZM48.6124 40.2156L48.0324 40.466L48.4288 41.3841L49.0088 41.1337L48.6124 40.2156ZM52.6203 42.7236C52.5299 40.7155 50.4579 39.4189 48.6124 40.2156L49.0088 41.1337C50.2118 40.6144 51.5624 41.4596 51.6213 42.7685L52.6203 42.7236ZM52.649 43.3605L52.6203 42.7236L51.6213 42.7685L51.65 43.4055L52.649 43.3605ZM53.3938 44.2853C52.9702 44.1727 52.6687 43.7983 52.649 43.3605L51.65 43.4055C51.6893 44.2796 52.2914 45.0271 53.1371 45.2517L53.3938 44.2853ZM54.5601 43.7412C54.3541 44.1808 53.863 44.4099 53.3938 44.2853L53.1371 45.2517C54.0738 45.5006 55.0543 45.0432 55.4656 44.1655L54.5601 43.7412ZM54.6858 43.473L54.5601 43.7412L55.4656 44.1655L55.5913 43.8974L54.6858 43.473ZM56.6734 42.1203C55.8135 42.1742 55.0514 42.6928 54.6858 43.473L55.5913 43.8974C55.8018 43.448 56.2407 43.1493 56.7359 43.1183L56.6734 42.1203ZM57.2859 42.0819L56.6734 42.1203L56.7359 43.1183L57.3484 43.0799L57.2859 42.0819ZM57.725 41.9968C57.5842 42.0435 57.4368 42.0724 57.2859 42.0819L57.3484 43.0799C57.586 43.0651 57.8183 43.0195 58.0401 42.9458L57.725 41.9968ZM58.4952 37.8246C58.2926 39.3636 57.9272 40.8637 57.4118 42.3027L58.3533 42.6399C58.8924 41.1344 59.2747 39.5651 59.4867 37.9552L58.4952 37.8246ZM54.202 21.802C57.7012 26.3622 59.2455 32.1258 58.4952 37.8246L59.4867 37.9552C60.2716 31.9933 58.656 25.9639 54.9953 21.1932L54.202 21.802ZM53.7828 21.273C53.9251 21.4469 54.0648 21.6232 54.202 21.802L54.9953 21.1932C54.8518 21.0062 54.7057 20.8218 54.5569 20.6399L53.7828 21.273ZM52.6654 21.5759C53.117 21.3948 53.6057 21.3532 54.0714 21.4467L54.2683 20.4662C53.6142 20.3349 52.9276 20.3933 52.2931 20.6478L52.6654 21.5759ZM52.2685 21.7351L52.6654 21.5759L52.2931 20.6478L51.8963 20.807L52.2685 21.7351ZM48.4972 21.4741C49.6484 22.1327 51.0376 22.2289 52.2686 21.7351L51.8963 20.807C50.9489 21.187 49.8798 21.113 48.9938 20.6061L48.4972 21.4741ZM45.8409 19.9544L48.4972 21.4741L48.9938 20.6061L46.3375 19.0864L45.8409 19.9544ZM43.7682 17.3486C44.1003 18.4504 44.8421 19.383 45.8409 19.9544L46.3375 19.0864C45.5607 18.6421 44.9839 17.9168 44.7256 17.06L43.7682 17.3486ZM43.7297 17.2212L43.7682 17.3486L44.7256 17.06L44.6872 16.9326L43.7297 17.2212ZM42.4622 15.5159C43.0707 15.9191 43.5191 16.5223 43.7297 17.2212L44.6872 16.9326C44.4092 16.0103 43.8175 15.2143 43.0145 14.6823L42.4622 15.5159ZM39.9577 15.0932C40.8147 14.8737 41.7246 15.0273 42.4622 15.5159L43.0145 14.6823C42.0412 14.0375 40.8405 13.8348 39.7095 14.1245L39.9577 15.0932ZM38.2733 15.5247L39.9577 15.0932L39.7095 14.1245L38.0252 14.556L38.2733 15.5247ZM37.9485 15.857C37.9862 15.6943 38.1115 15.5662 38.2733 15.5247L38.0252 14.556C37.5017 14.6901 37.0965 15.1046 36.9744 15.6309L37.9485 15.857ZM38.4709 16.3972C38.1523 16.46 37.8751 16.1733 37.9485 15.857L36.9744 15.6309C36.7369 16.654 37.6339 17.5814 38.6643 17.3783L38.4709 16.3972ZM40.0354 16.0888L38.4709 16.3972L38.6643 17.3783L40.2288 17.0699L40.0354 16.0888ZM41.3631 17.0121C41.2612 16.3843 40.6594 15.9658 40.0354 16.0888L40.2288 17.0699C40.298 17.0563 40.3647 17.1027 40.376 17.1723L41.3631 17.0121ZM40.579 18.2688C41.1182 18.1054 41.4534 17.5683 41.3631 17.0121L40.376 17.1723C40.3861 17.234 40.3489 17.2936 40.2891 17.3117L40.579 18.2688ZM39.1152 18.7122L40.579 18.2688L40.2891 17.3117L38.8253 17.7551L39.1152 18.7122ZM38.7858 18.95C38.866 18.8362 38.982 18.7525 39.1152 18.7122L38.8253 17.7551C38.4787 17.8601 38.1772 18.0779 37.9685 18.3738L38.7858 18.95ZM36.6765 19.4381C37.4013 19.836 38.3094 19.6259 38.7858 18.95L37.9685 18.3738C37.7854 18.6336 37.4363 18.7144 37.1577 18.5614L36.6765 19.4381ZM35.3481 18.7089L36.6765 19.4381L37.1577 18.5614L35.8293 17.8322L35.3481 18.7089ZM33.746 18.4741C34.2909 18.3574 34.8596 18.4407 35.3481 18.7089L35.8293 17.8322C35.1302 17.4485 34.3164 17.3292 33.5366 17.4962L33.746 18.4741ZM31.4816 18.959L33.746 18.4741L33.5366 17.4962L31.2722 17.9812L31.4816 18.959ZM31.5423 15.9382L30.8942 18.3398L31.8597 18.6004L32.5077 16.1987L31.5423 15.9382ZM30.9297 13.9615C31.4705 14.4249 31.7494 15.1706 31.5423 15.9382L32.5077 16.1987C32.8225 15.0323 32.3925 13.898 31.5804 13.2022L30.9297 13.9615ZM27.6669 15.4387C28.864 14.8669 30.1087 14.4075 31.3848 14.0647L31.1253 13.0989C29.7904 13.4575 28.4883 13.9382 27.2359 14.5363L27.6669 15.4387ZM28.6297 16.1827C28.1967 15.9149 27.9572 15.4553 27.9514 14.9813L26.9515 14.9936C26.9613 15.7942 27.3669 16.5774 28.1036 17.0332L28.6297 16.1827ZM31.64 18.0449L28.6297 16.1827L28.1036 17.0332L31.1139 18.8953L31.64 18.0449ZM29.8237 20.1598L31.6625 18.8805L31.0914 18.0596L29.2526 19.3389L29.8237 20.1598ZM28.0211 20.5192C28.6458 20.6551 29.2989 20.5249 29.8237 20.1598L29.2526 19.3389C28.956 19.5453 28.5868 19.6189 28.2337 19.5421L28.0211 20.5192ZM27.2834 20.3588L28.0211 20.5192L28.2337 19.5421L27.4959 19.3816L27.2834 20.3588ZM26.8034 20.6174C26.8778 20.4246 27.0815 20.3148 27.2834 20.3588L27.4959 19.3816C26.8123 19.2329 26.1222 19.6047 25.8704 20.2574L26.8034 20.6174ZM26.9482 21.1072C26.7945 20.9957 26.735 20.7946 26.8034 20.6174L25.8704 20.2574C25.6389 20.8577 25.8401 21.5386 26.3608 21.9165L26.9482 21.1072ZM27.5428 21.5388L26.9482 21.1072L26.3608 21.9165L26.9554 22.3481L27.5428 21.5388ZM53.595 48.945C52.8507 49.8301 52.033 50.6587 51.1475 51.4209L51.7999 52.1788C52.7263 51.3814 53.5817 50.5146 54.3604 49.5886L53.595 48.945ZM51.8926 51.5269C51.66 51.1699 51.5239 50.755 51.5028 50.323L50.504 50.3718C50.5338 50.9822 50.7261 51.5685 51.0548 52.0728L51.8926 51.5269ZM51.5028 50.323L51.3853 47.9144L50.3865 47.9632L50.504 50.3718L51.5028 50.323ZM51.3853 47.9144C51.3583 47.3598 51.8994 46.953 52.4247 47.1329L52.7488 46.1869C51.5549 45.7779 50.325 46.7027 50.3865 47.9632L51.3853 47.9144ZM52.4247 47.1329C52.6579 47.2128 52.8401 47.3976 52.9167 47.6319L53.8672 47.3209C53.6929 46.7884 53.2789 46.3685 52.7488 46.1869L52.4247 47.1329ZM52.9167 47.6319L53.5025 49.4223L54.4529 49.1113L53.8672 47.3209L52.9167 47.6319ZM38.3518 25.6022L37.5359 26.1713L38.1081 26.9915L38.924 26.4223L38.3518 25.6022ZM41.6154 25.3408C40.5602 24.832 39.3126 24.9319 38.3518 25.6022L38.924 26.4223C39.5885 25.9588 40.4513 25.8897 41.1811 26.2416L41.6154 25.3408ZM42.1317 25.5898L41.6154 25.3408L41.1811 26.2416L41.6974 26.4905L42.1317 25.5898ZM43.3839 27.3949C43.3124 26.6151 42.8371 25.9299 42.1317 25.5898L41.6974 26.4905C42.0865 26.6781 42.3487 27.0561 42.3881 27.4862L43.3839 27.3949ZM43.4336 27.9374L43.3839 27.3949L42.3881 27.4862L42.4378 28.0287L43.4336 27.9374ZM42.1807 29.6562C42.9711 29.4798 43.5076 28.7439 43.4336 27.9374L42.4378 28.0287C42.4658 28.3344 42.2625 28.6134 41.9629 28.6803L42.1807 29.6562ZM40.4454 28.9072C40.8011 29.5058 41.5012 29.8079 42.1807 29.6562L41.9629 28.6803C41.7053 28.7378 41.4399 28.6232 41.305 28.3963L40.4454 28.9072ZM40.1748 28.452L40.4454 28.9072L41.305 28.3963L41.0345 27.9411L40.1748 28.452ZM39.5706 27.9134C39.8227 28.0264 40.0337 28.2145 40.1748 28.452L41.0345 27.9411C40.7881 27.5266 40.4197 27.1982 39.9797 27.0009L39.5706 27.9134ZM37.6174 27.0377L39.5706 27.9134L39.9797 27.0009L38.0266 26.1252L37.6174 27.0377ZM31.6558 47.2332C31.2073 47.9181 31.4265 48.8391 32.1355 49.2484L32.6355 48.3824C32.4239 48.2603 32.3585 47.9854 32.4923 47.7811L31.6558 47.2332ZM32.0679 46.604L31.6558 47.2332L32.4923 47.7811L32.9044 47.1518L32.0679 46.604ZM33.0401 45.7996C32.6425 45.9637 32.3036 46.2441 32.0679 46.604L32.9044 47.1518C33.0298 46.9604 33.2101 46.8113 33.4216 46.724L33.0401 45.7996ZM33.4855 45.6158L33.0401 45.7996L33.4216 46.724L33.8669 46.5402L33.4855 45.6158ZM34.5829 45.6656C34.2424 45.4875 33.8406 45.4693 33.4855 45.6158L33.8669 46.5402C33.9486 46.5065 34.041 46.5107 34.1193 46.5517L34.5829 45.6656ZM35.0841 47.5017C35.4825 46.8603 35.2519 46.0156 34.5829 45.6656L34.1193 46.5517C34.2733 46.6322 34.3263 46.8265 34.2346 46.9741L35.0841 47.5017ZM34.4983 48.4448L35.0841 47.5017L34.2346 46.9741L33.6488 47.9171L34.4983 48.4448ZM33.8075 49.1085C34.0896 48.9485 34.3271 48.7203 34.4983 48.4448L33.6488 47.9171C33.5659 48.0506 33.4508 48.1612 33.3141 48.2387L33.8075 49.1085ZM33.5513 49.2538L33.8075 49.1085L33.3141 48.2387L33.0579 48.384L33.5513 49.2538ZM32.1355 49.2484C32.5731 49.5011 33.1118 49.5031 33.5513 49.2538L33.0579 48.384C32.9268 48.4584 32.766 48.4578 32.6355 48.3824L32.1355 49.2484ZM33.1324 24.8931C33.0364 24.5417 32.9151 23.9254 32.8154 23.3797C32.7663 23.1105 32.7234 22.8644 32.6929 22.6855C32.6776 22.5961 32.6654 22.5237 32.6571 22.4736C32.6529 22.4486 32.6497 22.4292 32.6475 22.4161C32.6464 22.4096 32.6456 22.4046 32.6451 22.4013C32.6448 22.3996 32.6446 22.3984 32.6445 22.3976C32.6444 22.3972 32.6444 22.3969 32.6443 22.3967C32.6443 22.3966 32.6443 22.3965 32.6443 22.3965C32.6443 22.3965 32.6443 22.3965 32.6443 22.3965C32.6443 22.3965 32.6443 22.3965 32.1509 22.4772C31.6574 22.558 31.6574 22.558 31.6574 22.558C31.6574 22.558 31.6574 22.5581 31.6574 22.5581C31.6575 22.5582 31.6575 22.5583 31.6575 22.5584C31.6575 22.5586 31.6576 22.559 31.6577 22.5595C31.6578 22.5604 31.658 22.5617 31.6583 22.5635C31.6589 22.5671 31.6598 22.5723 31.6609 22.5791C31.6631 22.5927 31.6664 22.6126 31.6707 22.6382C31.6792 22.6893 31.6916 22.7631 31.7071 22.8539C31.7382 23.0354 31.7817 23.2854 31.8317 23.5593C31.9304 24.0997 32.0587 24.7573 32.1678 25.1567L33.1324 24.8931Z" fill="currentColor" />
  </g>
  <defs>
    <clipPath id="clip0">
      <rect width="80" height="80" fill="currentColor" />
    </clipPath>
  </defs>
</svg>