<svg viewBox="0 0 80 80" fill="none">
  <path d="M29.3929 14.3929C36.1842 11.5799 43.8148 11.5799 50.6061 14.3929V14.3929C57.3974 17.206 62.7931 22.6016 65.6061 29.3929V29.3929C68.4192 36.1842 68.4192 43.8148 65.6061 50.6061V50.6061C62.7931 57.3974 57.3974 62.7931 50.6061 65.6061V65.6061C43.8148 68.4192 36.1842 68.4192 29.3929 65.6061V65.6061C22.6016 62.7931 17.206 57.3974 14.3929 50.6061V50.6061C11.5799 43.8148 11.5799 36.1842 14.3929 29.3929V29.3929C17.206 22.6016 22.6016 17.206 29.3929 14.3929V14.3929Z" stroke="currentColor" stroke-width="5" stroke-linecap="round" stroke-linejoin="round" />
  <path fill-rule="evenodd" clip-rule="evenodd" d="M35.3893 12.6606C33.393 12.9977 31.4248 13.5551 29.5216 14.3328C29.6659 14.4756 29.8513 14.5788 30.0615 14.6228L33.8249 15.4101C34.6608 15.585 35.4932 15.0976 35.7498 14.283C35.94 13.679 35.7694 13.0757 35.3893 12.6606ZM18.561 22.4298C20.6901 19.83 23.2829 17.6285 26.2196 15.945L34.6396 17.4407C35.3023 17.5584 35.8855 17.948 36.2481 18.5151L36.5156 18.9335C36.9356 19.5904 36.8702 20.4459 36.3553 21.0313C35.7567 21.7119 35.7769 22.7369 36.402 23.3933L37.2868 24.3225C37.857 24.9213 38.6723 25.2222 39.4947 25.1374L40.3744 25.0467C41.0753 24.9745 41.6372 24.4349 41.7378 23.7376L41.8478 22.9751C41.9832 22.0369 43.1312 21.6553 43.8013 22.3258C43.9839 22.5086 44.2227 22.6246 44.4792 22.6551L45.723 22.8034C46.4885 22.8946 47.1291 23.4268 47.359 24.1626C47.5726 24.8463 47.3955 25.5922 46.8973 26.1069L39.6283 33.6167C39.4206 33.8312 39.3149 34.1246 39.338 34.4223L39.3422 34.4762C39.4196 35.4724 38.1714 35.9794 37.5322 35.2114C37.3375 34.9774 37.0488 34.8421 36.7443 34.8421H35.055C34.0127 34.8421 33.1678 35.687 33.1678 36.7293C33.1678 37.5693 33.7229 38.3082 34.5296 38.542L35.7497 38.8956C36.3979 39.0835 36.9797 39.4509 37.4281 39.9554L37.8976 40.4837C38.9804 41.7021 40.5105 42.4299 42.139 42.501L42.7154 42.5262C44.3296 42.5967 45.848 43.3117 46.9305 44.5111L47.4548 45.0918C47.8402 45.5188 48.3338 45.8337 48.8835 46.0033C50.2218 46.4159 51.1348 47.6528 51.1348 49.0533V49.4897C51.1348 50.4729 50.752 51.4174 50.0676 52.1232L42.0368 60.4054C41.4907 60.9686 41.1853 61.7223 41.1853 62.5067V65.9818C41.1853 66.9872 40.0478 67.5712 39.2308 66.985C39.0327 66.8429 38.8811 66.6454 38.7952 66.4173L38.1358 64.6681C37.8209 63.8328 37.6595 62.9474 37.6595 62.0547V57.7122C37.6595 55.9993 37.083 54.3362 36.0228 52.9908C35.0153 51.7123 34.4432 50.1451 34.3901 48.5182L34.3132 46.1634C34.291 45.483 34.5331 44.8204 34.9888 44.3146L35.0828 44.2101C35.8985 43.3046 35.9318 41.9396 35.1614 40.9953C34.7794 40.5271 34.239 40.2151 33.6425 40.1185L32.3065 39.902C30.9541 39.6829 29.7165 39.01 28.7972 37.9942L24.9371 33.7282C23.8492 32.526 23.1523 31.0215 22.9387 29.4143L22.627 27.0681C22.4486 25.7255 21.758 24.5039 20.6996 23.6589L20.0749 23.16C19.6245 22.8004 19.1059 22.5545 18.561 22.4298ZM50.2066 14.2195C50.3418 14.2731 50.4768 14.3277 50.6115 14.3835C54.3008 15.9117 57.5783 18.202 60.2536 21.0643L58.1883 23.0914C56.8096 24.4446 54.5504 24.3123 53.3092 22.832C52.7993 22.2239 52.5263 21.4401 52.5554 20.647C52.5868 19.7927 52.2755 18.9613 51.6908 18.3376L50.7669 17.3519C50.1432 16.6865 49.8661 15.768 50.0179 14.8687C50.0562 14.6418 50.1202 14.4244 50.2066 14.2195ZM40.1681 13.7328C39.3295 14.4277 39.3407 15.7174 40.1911 16.3977L44.1338 19.5515C44.3292 19.7077 44.5735 19.7898 44.8236 19.7832C45.6798 19.7605 46.1564 18.7836 45.6473 18.0948L42.6463 14.0345C42.06 13.2412 40.9276 13.1033 40.1681 13.7328Z" fill="currentColor" />
  <path d="M29.5216 14.3328L29.3324 13.8699C29.177 13.9334 29.0639 14.0707 29.0311 14.2354C28.9984 14.4001 29.0506 14.5702 29.1699 14.6882L29.5216 14.3328ZM35.3893 12.6606L35.758 12.323C35.6435 12.1979 35.4733 12.1394 35.306 12.1676L35.3893 12.6606ZM30.0615 14.6228L30.1639 14.1334L30.0615 14.6228ZM33.8249 15.4101L33.9273 14.9207V14.9207L33.8249 15.4101ZM35.7498 14.283L36.2267 14.4333V14.4333L35.7498 14.283ZM18.561 22.4298L18.1742 22.113C18.0645 22.2469 18.0319 22.428 18.088 22.5918C18.144 22.7555 18.2808 22.8786 18.4495 22.9172L18.561 22.4298ZM26.2196 15.945L26.307 15.4527C26.1916 15.4322 26.0726 15.4529 25.9709 15.5112L26.2196 15.945ZM34.6396 17.4407L34.5521 17.933L34.6396 17.4407ZM36.2481 18.5151L35.8269 18.7844L36.2481 18.5151ZM36.5156 18.9335L36.9369 18.6641V18.6641L36.5156 18.9335ZM36.3553 21.0313L36.7307 21.3616L36.3553 21.0313ZM36.402 23.3933L36.0399 23.7381V23.7381L36.402 23.3933ZM37.2868 24.3225L36.9248 24.6674L37.2868 24.3225ZM39.4947 25.1374L39.4435 24.6401L39.4947 25.1374ZM40.3744 25.0467L40.4257 25.5441L40.3744 25.0467ZM41.7378 23.7376L41.243 23.6662V23.6662L41.7378 23.7376ZM41.8478 22.9751L42.3427 23.0465L41.8478 22.9751ZM43.8013 22.3258L43.4476 22.6793L43.4476 22.6793L43.8013 22.3258ZM44.4792 22.6551L44.5384 22.1587H44.5384L44.4792 22.6551ZM45.723 22.8034L45.7822 22.3069L45.723 22.8034ZM47.359 24.1626L46.8817 24.3117L47.359 24.1626ZM46.8973 26.1069L46.5381 25.7591V25.7591L46.8973 26.1069ZM39.6283 33.6167L39.269 33.2689L39.6283 33.6167ZM39.338 34.4223L39.8365 34.3836V34.3836L39.338 34.4223ZM39.3422 34.4762L38.8437 34.5149V34.5149L39.3422 34.4762ZM37.5322 35.2114L37.9165 34.8915L37.5322 35.2114ZM34.5296 38.542L34.3904 39.0222H34.3904L34.5296 38.542ZM35.7497 38.8956L35.8889 38.4154L35.7497 38.8956ZM37.4281 39.9554L37.0543 40.2875L37.4281 39.9554ZM37.8976 40.4837L38.2713 40.1516V40.1516L37.8976 40.4837ZM42.139 42.501L42.1608 42.0015H42.1608L42.139 42.501ZM42.7154 42.5262L42.6936 43.0257H42.6936L42.7154 42.5262ZM46.9305 44.5111L47.3017 44.176V44.176L46.9305 44.5111ZM47.4548 45.0918L47.0836 45.4268L47.4548 45.0918ZM48.8835 46.0033L48.7362 46.481H48.7362L48.8835 46.0033ZM50.0676 52.1232L50.4266 52.4713L50.0676 52.1232ZM42.0368 60.4054L41.6778 60.0574L42.0368 60.4054ZM39.2308 66.985L38.9393 67.3913L39.2308 66.985ZM38.7952 66.4173L39.263 66.2409L39.263 66.2409L38.7952 66.4173ZM38.1358 64.6681L37.6679 64.8445L38.1358 64.6681ZM36.0228 52.9908L36.4155 52.6813L36.0228 52.9908ZM34.3901 48.5182L34.8898 48.5019L34.3901 48.5182ZM34.3132 46.1634L33.8135 46.1797L34.3132 46.1634ZM34.9888 44.3146L34.6173 43.9799L34.6173 43.9799L34.9888 44.3146ZM35.0828 44.2101L35.4543 44.5448L35.0828 44.2101ZM35.1614 40.9953L35.5488 40.6792L35.5488 40.6792L35.1614 40.9953ZM33.6425 40.1185L33.5625 40.612H33.5625L33.6425 40.1185ZM32.3065 39.902L32.2265 40.3956L32.3065 39.902ZM28.7972 37.9942L29.168 37.6587L28.7972 37.9942ZM24.9371 33.7282L24.5663 34.0637H24.5663L24.9371 33.7282ZM22.9387 29.4143L22.443 29.4801L22.9387 29.4143ZM22.627 27.0681L23.1226 27.0022L22.627 27.0681ZM20.6996 23.6589L20.3876 24.0496H20.3876L20.6996 23.6589ZM20.0749 23.16L19.7629 23.5508L20.0749 23.16ZM50.2066 14.2195L50.3906 13.7546C50.1378 13.6546 49.8514 13.7748 49.7458 14.0253L50.2066 14.2195ZM50.6115 14.3835L50.4201 14.8455L50.6115 14.3835ZM60.2536 21.0643L60.6038 21.4211C60.7975 21.231 60.8042 20.9211 60.6189 20.7229L60.2536 21.0643ZM58.1883 23.0914L58.5385 23.4483L58.1883 23.0914ZM53.3092 22.832L52.926 23.1533L53.3092 22.832ZM52.5554 20.647L52.0557 20.6287V20.6287L52.5554 20.647ZM51.6908 18.3376L51.3261 18.6795V18.6795L51.6908 18.3376ZM50.7669 17.3519L51.1317 17.0099L50.7669 17.3519ZM50.0179 14.8687L50.5109 14.9519L50.0179 14.8687ZM40.1911 16.3977L39.8788 16.7882V16.7882L40.1911 16.3977ZM40.1681 13.7328L40.4871 14.1178V14.1178L40.1681 13.7328ZM44.1338 19.5515L43.8215 19.9419L43.8215 19.9419L44.1338 19.5515ZM44.8236 19.7832L44.8368 20.283L44.8236 19.7832ZM45.6473 18.0948L46.0494 17.7976L45.6473 18.0948ZM42.6463 14.0345L42.2442 14.3317V14.3317L42.6463 14.0345ZM29.7107 14.7956C31.5796 14.032 33.5123 13.4847 35.4725 13.1537L35.306 12.1676C33.2737 12.5108 31.27 13.0783 29.3324 13.8699L29.7107 14.7956ZM29.1699 14.6882C29.3809 14.8969 29.6521 15.048 29.9592 15.1122L30.1639 14.1334C30.0504 14.1097 29.951 14.0543 29.8732 13.9773L29.1699 14.6882ZM29.9592 15.1122L33.7225 15.8995L33.9273 14.9207L30.1639 14.1334L29.9592 15.1122ZM33.7225 15.8995C34.81 16.1271 35.8929 15.493 36.2267 14.4333L35.2729 14.1328C35.0935 14.7023 34.5117 15.043 33.9273 14.9207L33.7225 15.8995ZM36.2267 14.4333C36.4742 13.6473 36.2502 12.8604 35.758 12.323L35.0206 12.9983C35.2885 13.2909 35.4058 13.7108 35.2729 14.1328L36.2267 14.4333ZM18.9479 22.7466C21.0386 20.1937 23.5846 18.0319 26.4682 16.3787L25.9709 15.5112C22.9812 17.2251 20.3417 19.4664 18.1742 22.113L18.9479 22.7466ZM26.1321 16.4372L34.5521 17.933L34.727 16.9484L26.307 15.4527L26.1321 16.4372ZM34.5521 17.933C35.0773 18.0263 35.5395 18.335 35.8269 18.7844L36.6694 18.2457C36.2316 17.561 35.5273 17.0905 34.727 16.9484L34.5521 17.933ZM35.8269 18.7844L36.0944 19.2028L36.9369 18.6641L36.6694 18.2457L35.8269 18.7844ZM36.0944 19.2028C36.3943 19.672 36.3476 20.283 35.9798 20.7011L36.7307 21.3616C37.3928 20.6088 37.4769 19.5088 36.9369 18.6641L36.0944 19.2028ZM35.9798 20.7011C35.2102 21.5762 35.2362 22.8942 36.0399 23.7381L36.7641 23.0485C36.3177 22.5797 36.3032 21.8476 36.7307 21.3616L35.9798 20.7011ZM36.0399 23.7381L36.9248 24.6674L37.6489 23.9777L36.7641 23.0485L36.0399 23.7381ZM36.9248 24.6674C37.6016 25.3782 38.5696 25.7354 39.546 25.6348L39.4435 24.6401C38.775 24.709 38.1123 24.4644 37.6489 23.9777L36.9248 24.6674ZM39.546 25.6348L40.4257 25.5441L40.3232 24.5494L39.4435 24.6401L39.546 25.6348ZM40.4257 25.5441C41.3546 25.4484 42.0994 24.7332 42.2327 23.809L41.243 23.6662C41.1751 24.1366 40.796 24.5006 40.3232 24.5494L40.4257 25.5441ZM42.2327 23.809L42.3427 23.0465L41.353 22.9037L41.243 23.6662L42.2327 23.809ZM42.3427 23.0465C42.4193 22.5158 43.0686 22.3 43.4476 22.6793L44.1549 21.9724C43.1938 21.0106 41.5471 21.5579 41.353 22.9037L42.3427 23.0465ZM43.4476 22.6793C43.7096 22.9414 44.0521 23.1078 44.4201 23.1516L44.5384 22.1587C44.3933 22.1414 44.2582 22.0758 44.1549 21.9724L43.4476 22.6793ZM44.4201 23.1516L45.6638 23.2998L45.7822 22.3069L44.5384 22.1587L44.4201 23.1516ZM45.6638 23.2998C46.2337 23.3677 46.7106 23.7639 46.8817 24.3117L47.8362 24.0135C47.5475 23.0896 46.7433 22.4214 45.7822 22.3069L45.6638 23.2998ZM46.8817 24.3117C47.0408 24.8207 46.9089 25.3759 46.5381 25.7591L47.2566 26.4546C47.8821 25.8084 48.1045 24.8719 47.8362 24.0135L46.8817 24.3117ZM46.5381 25.7591L39.269 33.2689L39.9875 33.9644L47.2566 26.4546L46.5381 25.7591ZM39.269 33.2689C38.9617 33.5864 38.8053 34.0205 38.8395 34.461L39.8365 34.3836C39.8245 34.2287 39.8795 34.0761 39.9875 33.9644L39.269 33.2689ZM38.8395 34.461L38.8437 34.5149L39.8407 34.4375L39.8365 34.3836L38.8395 34.461ZM38.8437 34.5149C38.8833 35.0252 38.244 35.2849 37.9165 34.8915L37.1479 35.5313C38.0989 36.6738 39.9558 35.9195 39.8407 34.4375L38.8437 34.5149ZM37.9165 34.8915C37.6268 34.5434 37.1973 34.3421 36.7443 34.3421V35.3421C36.9003 35.3421 37.0482 35.4114 37.1479 35.5313L37.9165 34.8915ZM36.7443 34.3421H35.055V35.3421H36.7443V34.3421ZM35.055 34.3421C33.7366 34.3421 32.6678 35.4109 32.6678 36.7293H33.6678C33.6678 35.9632 34.2889 35.3421 35.055 35.3421V34.3421ZM32.6678 36.7293C32.6678 37.7918 33.37 38.7264 34.3904 39.0222L34.6688 38.0618C34.0758 37.8899 33.6678 37.3468 33.6678 36.7293H32.6678ZM34.3904 39.0222L35.6105 39.3759L35.8889 38.4154L34.6688 38.0618L34.3904 39.0222ZM35.6105 39.3759C36.1681 39.5375 36.6687 39.8535 37.0543 40.2875L37.8018 39.6232C37.2908 39.0483 36.6277 38.6295 35.8889 38.4154L35.6105 39.3759ZM37.0543 40.2875L37.5238 40.8158L38.2713 40.1516L37.8018 39.6232L37.0543 40.2875ZM37.5238 40.8158C38.6965 42.1353 40.3536 42.9235 42.1172 43.0005L42.1608 42.0015C40.6675 41.9363 39.2642 41.2689 38.2713 40.1516L37.5238 40.8158ZM42.1172 43.0005L42.6936 43.0257L42.7372 42.0267L42.1608 42.0015L42.1172 43.0005ZM42.6936 43.0257C44.174 43.0904 45.5665 43.7461 46.5594 44.8461L47.3017 44.176C46.1294 42.8773 44.4851 42.103 42.7372 42.0267L42.6936 43.0257ZM46.5594 44.8461L47.0836 45.4268L47.8259 44.7568L47.3017 44.176L46.5594 44.8461ZM47.0836 45.4268C47.5294 45.9207 48.1004 46.285 48.7362 46.481L49.0309 45.5255C48.5673 45.3825 48.151 45.1169 47.8259 44.7568L47.0836 45.4268ZM48.7362 46.481C49.8648 46.8291 50.6348 47.8722 50.6348 49.0533H51.6348C51.6348 47.4334 50.5788 46.0028 49.0309 45.5255L48.7362 46.481ZM50.6348 49.0533V49.4897H51.6348V49.0533H50.6348ZM50.6348 49.4897C50.6348 50.3429 50.3026 51.1626 49.7087 51.7752L50.4266 52.4713C51.2014 51.6722 51.6348 50.6028 51.6348 49.4897H50.6348ZM49.7087 51.7752L41.6778 60.0574L42.3957 60.7535L50.4266 52.4713L49.7087 51.7752ZM41.6778 60.0574C41.0413 60.7138 40.6853 61.5923 40.6853 62.5067H41.6853C41.6853 61.8522 41.9401 61.2234 42.3957 60.7535L41.6778 60.0574ZM40.6853 62.5067V65.9818H41.6853V62.5067H40.6853ZM40.6853 65.9818C40.6853 66.5801 40.0084 66.9275 39.5222 66.5788L38.9393 67.3913C40.0871 68.2148 41.6853 67.3944 41.6853 65.9818H40.6853ZM39.5222 66.5788C39.4044 66.4942 39.3142 66.3767 39.263 66.2409L38.3273 66.5937C38.4481 66.9141 38.661 67.1917 38.9393 67.3913L39.5222 66.5788ZM39.263 66.2409L38.6036 64.4918L37.6679 64.8445L38.3273 66.5937L39.263 66.2409ZM38.6036 64.4918C38.31 63.7128 38.1595 62.8872 38.1595 62.0547H37.1595C37.1595 63.0076 37.3317 63.9528 37.6679 64.8445L38.6036 64.4918ZM38.1595 62.0547V57.7122H37.1595V62.0547H38.1595ZM38.1595 57.7122C38.1595 55.887 37.5452 54.1149 36.4155 52.6813L35.6301 53.3003C36.6208 54.5575 37.1595 56.1116 37.1595 57.7122H38.1595ZM36.4155 52.6813C35.474 51.4867 34.9394 50.0221 34.8898 48.5019L33.8904 48.5345C33.9469 50.268 34.5565 51.938 35.6301 53.3003L36.4155 52.6813ZM34.8898 48.5019L34.813 46.1471L33.8135 46.1797L33.8904 48.5345L34.8898 48.5019ZM34.813 46.1471C34.795 45.5959 34.9911 45.059 35.3603 44.6492L34.6173 43.9799C34.0751 44.5818 33.7871 45.3702 33.8135 46.1797L34.813 46.1471ZM35.3603 44.6492L35.4543 44.5448L34.7113 43.8755L34.6173 43.9799L35.3603 44.6492ZM35.4543 44.5448C36.4351 43.456 36.4752 41.8146 35.5488 40.6792L34.774 41.3114C35.3885 42.0645 35.3619 43.1533 34.7113 43.8755L35.4543 44.5448ZM35.5488 40.6792C35.0895 40.1162 34.4397 39.7411 33.7225 39.6249L33.5625 40.612C34.0383 40.6891 34.4693 40.9379 34.774 41.3114L35.5488 40.6792ZM33.7225 39.6249L32.3865 39.4084L32.2265 40.3956L33.5625 40.612L33.7225 39.6249ZM32.3865 39.4084C31.1461 39.2075 30.0111 38.5904 29.168 37.6587L28.4265 38.3296C29.4219 39.4297 30.7621 40.1583 32.2265 40.3956L32.3865 39.4084ZM29.168 37.6587L25.3078 33.3928L24.5663 34.0637L28.4265 38.3296L29.168 37.6587ZM25.3078 33.3928C24.2879 32.2656 23.6346 30.8552 23.4343 29.3484L22.443 29.4801C22.67 31.1879 23.4104 32.7863 24.5663 34.0637L25.3078 33.3928ZM23.4343 29.3484L23.1226 27.0022L22.1313 27.134L22.443 29.4801L23.4343 29.3484ZM23.1226 27.0022C22.9272 25.5317 22.1708 24.1938 21.0116 23.2681L20.3876 24.0496C21.3451 24.8141 21.9699 25.9193 22.1313 27.134L23.1226 27.0022ZM21.0116 23.2681L20.3869 22.7693L19.7629 23.5508L20.3876 24.0496L21.0116 23.2681ZM20.3869 22.7693C19.8769 22.3621 19.2896 22.0836 18.6726 21.9424L18.4495 22.9172C18.9223 23.0254 19.3721 23.2387 19.7629 23.5508L20.3869 22.7693ZM50.0225 14.6844C50.1554 14.737 50.2879 14.7907 50.4201 14.8455L50.8028 13.9216C50.6657 13.8648 50.5283 13.8092 50.3906 13.7546L50.0225 14.6844ZM50.4201 14.8455C54.0429 16.3461 57.2612 18.5951 59.8883 21.4057L60.6189 20.7229C57.8953 17.809 54.5587 15.4773 50.8028 13.9216L50.4201 14.8455ZM58.5385 23.4483L60.6038 21.4211L59.9033 20.7074L57.838 22.7346L58.5385 23.4483ZM52.926 23.1533C54.3506 24.8522 56.9473 25.01 58.5385 23.4483L57.838 22.7346C56.6719 23.8792 54.7502 23.7724 53.6923 22.5108L52.926 23.1533ZM52.0557 20.6287C52.022 21.5472 52.3377 22.4516 52.926 23.1533L53.6923 22.5108C53.2608 21.9962 53.0305 21.333 53.0551 20.6654L52.0557 20.6287ZM51.3261 18.6795C51.8195 19.2059 52.0822 19.9077 52.0557 20.6287L53.0551 20.6654C53.0913 19.6778 52.7315 18.7166 52.0556 17.9956L51.3261 18.6795ZM50.4021 17.6939L51.3261 18.6795L52.0556 17.9956L51.1317 17.0099L50.4021 17.6939ZM49.5249 14.7855C49.3471 15.8387 49.6716 16.9146 50.4021 17.6939L51.1317 17.0099C50.6147 16.4585 50.3851 15.6972 50.5109 14.9519L49.5249 14.7855ZM49.7458 14.0253C49.6446 14.2655 49.5697 14.5201 49.5249 14.7855L50.5109 14.9519C50.5428 14.7635 50.5958 14.5834 50.6673 14.4138L49.7458 14.0253ZM40.5034 16.0073C39.9004 15.5249 39.8925 14.6105 40.4871 14.1178L39.849 13.3478C38.7665 14.2449 38.7809 15.9099 39.8788 16.7882L40.5034 16.0073ZM44.4462 19.161L40.5034 16.0073L39.8788 16.7882L43.8215 19.9419L44.4462 19.161ZM44.8103 19.2833C44.6783 19.2868 44.5493 19.2435 44.4462 19.161L43.8215 19.9419C44.1091 20.1719 44.4687 20.2928 44.8368 20.283L44.8103 19.2833ZM45.2452 18.392C45.514 18.7556 45.2624 19.2714 44.8103 19.2833L44.8368 20.283C46.0973 20.2496 46.7988 18.8116 46.0494 17.7976L45.2452 18.392ZM42.2442 14.3317L45.2452 18.392L46.0494 17.7976L43.0484 13.7373L42.2442 14.3317ZM40.4871 14.1178C41.0256 13.6715 41.8285 13.7692 42.2442 14.3317L43.0484 13.7373C42.2915 12.7132 40.8296 12.5352 39.849 13.3478L40.4871 14.1178Z" fill="currentColor" />
</svg>