<svg viewBox="0 0 80 80" fill="none">
  <path d="M39.5 65C39.5 63.6193 38.3807 62.5 37 62.5C35.6193 62.5 34.5 63.6193 34.5 65H39.5ZM53 73.9373C54.3807 73.9373 55.5 72.8181 55.5 71.4373C55.5 70.0566 54.3807 68.9373 53 68.9373V73.9373ZM21 68.9374C19.6193 68.9374 18.5 70.0566 18.5 71.4374C18.5 72.8181 19.6193 73.9374 21 73.9374L21 68.9374ZM39.5 71.4373V65H34.5V71.4373H39.5ZM37 73.9373L53 73.9373V68.9373L37 68.9373V73.9373ZM37 68.9373L21 68.9374L21 73.9374L37 73.9373L37 68.9373Z" fill="currentColor" />
  <path d="M20.2611 58.1217L18.2311 56.6624L20.2611 58.1217ZM20.4991 59.5035L21.8888 57.4253L21.8888 57.4253L20.4991 59.5035ZM23.9905 52.9336L25.4497 50.9037L23.4198 49.4445L21.9606 51.4744L23.9905 52.9336ZM34.0389 56.9132L33.7126 59.3918L33.7126 59.3918L34.0389 56.9132ZM58.9165 37.824L61.3951 38.1503L58.9165 37.824ZM54.5242 21.4317L52.5408 22.9536L52.5408 22.9536L54.5242 21.4317ZM46.0536 14.7193L43.7749 13.6909L42.7466 15.9696L45.0252 16.998L46.0536 14.7193ZM48.6833 8.8924L50.962 9.92076L48.6833 8.8924ZM49.999 8.40762L51.1039 6.16504L49.999 8.40762ZM60.388 16.9304L62.3714 15.4085L62.3714 15.4085L60.388 16.9304ZM66.2444 38.7868L63.7658 38.4605L63.7658 38.4605L66.2444 38.7868ZM54.9307 58.3827L53.4088 56.3993L53.4088 56.3993L54.9307 58.3827ZM33.0743 64.2391L33.4006 61.7605L33.4006 61.7605L33.0743 64.2391ZM18.2311 56.6624C17.1163 58.2133 17.4288 60.4579 19.1095 61.5817L21.8888 57.4253C22.6512 57.9352 22.7611 58.927 22.291 59.5809L18.2311 56.6624ZM21.9606 51.4744L18.2311 56.6624L22.291 59.5809L26.0204 54.3929L21.9606 51.4744ZM34.3652 54.4346C31.1184 54.0071 28.0615 52.7812 25.4497 50.9037L22.5313 54.9636C25.8065 57.3179 29.6404 58.8557 33.7126 59.3918L34.3652 54.4346ZM48.9093 50.5375C44.7699 53.7138 39.5382 55.1156 34.3652 54.4346L33.7126 59.3918C40.2003 60.246 46.7616 58.4879 51.9531 54.5043L48.9093 50.5375ZM56.4379 37.4977C55.7569 42.6706 53.0487 47.3612 48.9093 50.5375L51.9531 54.5043C57.1446 50.5207 60.541 44.638 61.3951 38.1503L56.4379 37.4977ZM52.5408 22.9536C55.7171 27.093 57.1189 32.3247 56.4379 37.4977L61.3951 38.1503C62.2492 31.6626 60.4911 25.1012 56.5076 19.9098L52.5408 22.9536ZM45.0252 16.998C47.9571 18.3212 50.5472 20.3554 52.5408 22.9536L56.5076 19.9098C54.0072 16.6512 50.7585 14.0999 47.082 12.4406L45.0252 16.998ZM46.4046 7.86403L43.7749 13.6909L48.3323 15.7477L50.962 9.92076L46.4046 7.86403ZM51.1039 6.16504C49.2903 5.27147 47.1902 6.12316 46.4046 7.86403L50.962 9.92076C50.6307 10.6548 49.7168 11.0556 48.8941 10.6502L51.1039 6.16504ZM62.3714 15.4085C59.3464 11.4662 55.4786 8.32044 51.1039 6.16504L48.8941 10.6502C52.5869 12.4696 55.8514 15.1248 58.4046 18.4523L62.3714 15.4085ZM68.723 39.1131C69.833 30.6819 67.5483 22.1551 62.3714 15.4085L58.4046 18.4523C62.7742 24.1469 64.7027 31.344 63.7658 38.4605L68.723 39.1131ZM56.4526 60.3661C63.1992 55.1892 67.613 47.5443 68.723 39.1131L63.7658 38.4605C62.8289 45.5769 59.1034 52.0297 53.4088 56.3993L56.4526 60.3661ZM32.748 66.7177C41.1792 67.8277 49.706 65.543 56.4526 60.3661L53.4088 56.3993C47.7142 60.7689 40.5171 62.6974 33.4006 61.7605L32.748 66.7177ZM19.1095 61.5817C23.1634 64.2925 27.8215 66.0691 32.748 66.7177L33.4006 61.7605C29.2424 61.213 25.3108 59.7136 21.8888 57.4253L19.1095 61.5817Z" fill="currentColor" />
  <path d="M39.8941 13.0165C45.7245 13.7841 51.0111 16.8364 54.5911 21.5018V21.5018C58.171 26.1673 59.7509 32.0637 58.9834 37.8941V37.8941C58.2158 43.7245 55.1635 49.0111 50.4981 52.5911V52.5911C45.8326 56.171 39.9361 57.7509 34.1058 56.9834V56.9834C28.2754 56.2158 22.9888 53.1635 19.4088 48.4981V48.4981C15.8289 43.8326 14.2489 37.9361 15.0165 32.1058V32.1058C15.7841 26.2754 18.8364 20.9888 23.5018 17.4088V17.4088C28.1673 13.8289 34.0637 12.2489 39.8941 13.0165V13.0165Z" stroke="currentColor" stroke-width="5" />
  <path d="M37.3969 49.6021L38.9188 51.5855L37.3969 49.6021ZM49.842 28.0466L52.3206 28.3729L52.3206 28.3729L49.842 28.0466ZM27.1753 54.8807L26.0677 57.1219C26.6407 57.4051 27.3005 57.4581 27.9114 57.2699L27.1753 54.8807ZM24.6965 53.4497L22.2594 54.007C22.4019 54.6302 22.7777 55.175 23.3095 55.5297L24.6965 53.4497ZM24.1563 41.9552L21.6777 41.6289L21.6777 41.6289L24.1563 41.9552ZM36.6014 20.3997L38.1233 22.3831L36.6014 20.3997ZM46.8189 15.1224L47.9262 12.881C47.3531 12.5979 46.6933 12.5451 46.0825 12.7334L46.8189 15.1224ZM49.3028 16.5564L51.74 15.9994C51.5976 15.3762 51.2219 14.8313 50.6901 14.4766L49.3028 16.5564ZM38.9188 51.5855C46.2875 45.9313 51.1083 37.5815 52.3206 28.3729L47.3634 27.7203C46.3242 35.6141 42.1917 42.7718 35.875 47.6187L38.9188 51.5855ZM27.9114 57.2699C31.852 56.0558 35.5846 54.144 38.9188 51.5855L35.875 47.6187C33.0167 49.812 29.8173 51.4507 26.4392 52.4915L27.9114 57.2699ZM23.3095 55.5297C24.1936 56.1192 25.115 56.6511 26.0677 57.1219L28.2829 52.6394C27.5232 52.264 26.7885 51.8399 26.0835 51.3697L23.3095 55.5297ZM21.6777 41.6289C21.129 45.7968 21.3399 49.9863 22.2594 54.007L27.1336 52.8923C26.3453 49.4456 26.1646 45.8545 26.6349 42.2815L21.6777 41.6289ZM35.0795 18.4163C27.7108 24.0705 22.89 32.4203 21.6777 41.6289L26.6349 42.2815C27.6742 34.3877 31.8067 27.23 38.1233 22.3831L35.0795 18.4163ZM46.0825 12.7334C42.1435 13.9475 38.4125 15.8588 35.0795 18.4163L38.1233 22.3831C40.9805 20.1907 44.1786 18.5523 47.5553 17.5115L46.0825 12.7334ZM50.6901 14.4766C49.8042 13.8857 48.8809 13.3527 47.9262 12.881L45.7116 17.3638C46.4729 17.7399 47.2092 18.165 47.9156 18.6362L50.6901 14.4766ZM52.3206 28.3729C52.8691 24.2066 52.6586 20.0187 51.74 15.9994L46.8657 17.1134C47.6532 20.559 47.8336 24.1487 47.3634 27.7203L52.3206 28.3729Z" fill="currentColor" />
  <path d="M13.9874 32.9141L50.3113 53.8857L52.8113 49.5556L16.4874 28.584L13.9874 32.9141ZM21.8403 19.8965L57.6585 40.5762L60.1585 36.246L24.3403 15.5664L21.8403 19.8965Z" fill="currentColor" />
</svg>