<svg viewBox="0 0 80 80" fill="none">
  <path d="M29.3929 14.3929C36.1842 11.5799 43.8148 11.5799 50.6061 14.3929V14.3929C57.3974 17.206 62.7931 22.6016 65.6061 29.3929V29.3929C68.4192 36.1842 68.4192 43.8148 65.6061 50.6061V50.6061C62.7931 57.3974 57.3974 62.7931 50.6061 65.6061V65.6061C43.8148 68.4192 36.1842 68.4192 29.3929 65.6061V65.6061C22.6016 62.7931 17.206 57.3974 14.3929 50.6061V50.6061C11.5799 43.8148 11.5799 36.1842 14.3929 29.3929V29.3929C17.206 22.6016 22.6016 17.206 29.3929 14.3929V14.3929Z" stroke="currentColor" stroke-width="5" />
  <path fill-rule="evenodd" clip-rule="evenodd" d="M35.3895 12.6606C33.3932 12.9977 31.4251 13.5551 29.5218 14.3328C29.6662 14.4756 29.8515 14.5788 30.0618 14.6228L33.8251 15.4101C34.6611 15.585 35.4934 15.0976 35.75 14.283C35.9403 13.679 35.7696 13.0757 35.3895 12.6606ZM18.5613 22.4298C20.6904 19.83 23.2831 17.6285 26.2198 15.945L34.6398 17.4407C35.3025 17.5584 35.8858 17.948 36.2484 18.5151L36.5159 18.9335C36.9359 19.5904 36.8705 20.4459 36.3555 21.0313C35.7569 21.7119 35.7772 22.7369 36.4022 23.3933L37.2871 24.3225C37.8572 24.9213 38.6725 25.2222 39.495 25.1374L40.3747 25.0467C41.0755 24.9745 41.6375 24.4349 41.7381 23.7376L41.8481 22.9751C41.9835 22.0369 43.1314 21.6553 43.8015 22.3258C43.9841 22.5086 44.2229 22.6246 44.4795 22.6551L45.7233 22.8034C46.4887 22.8946 47.1293 23.4268 47.3592 24.1626C47.5729 24.8463 47.3958 25.5922 46.8976 26.1069L39.6285 33.6167C39.4208 33.8312 39.3151 34.1246 39.3383 34.4223L39.3425 34.4762C39.4198 35.4724 38.1717 35.9794 37.5325 35.2114C37.3377 34.9774 37.049 34.8421 36.7446 34.8421H35.0553C34.013 34.8421 33.168 35.687 33.168 36.7293C33.168 37.5693 33.7231 38.3082 34.5299 38.542L35.7499 38.8956C36.3981 39.0835 36.98 39.4509 37.4283 39.9554L37.8978 40.4837C38.9806 41.7021 40.5108 42.4299 42.1392 42.501L42.7157 42.5262C44.3298 42.5967 45.8482 43.3117 46.9308 44.5111L47.455 45.0918C47.8404 45.5188 48.3341 45.8337 48.8838 46.0033C50.2221 46.4159 51.135 47.6528 51.135 49.0533V49.4897C51.135 50.4729 50.7523 51.4174 50.0679 52.1232L42.037 60.4054C41.4909 60.9686 41.1855 61.7223 41.1855 62.5067V65.9818C41.1855 66.9872 40.048 67.5712 39.231 66.985C39.033 66.8429 38.8814 66.6454 38.7954 66.4173L38.136 64.6681C37.8211 63.8328 37.6598 62.9474 37.6598 62.0547V57.7122C37.6598 55.9993 37.0832 54.3362 36.023 52.9908C35.0155 51.7123 34.4434 50.1451 34.3903 48.5182L34.3135 46.1634C34.2913 45.483 34.5334 44.8204 34.989 44.3146L35.0831 44.2101C35.8987 43.3046 35.9321 41.9396 35.1616 40.9953C34.7796 40.5271 34.2392 40.2151 33.6427 40.1185L32.3068 39.902C30.9543 39.6829 29.7167 39.01 28.7975 37.9942L24.9373 33.7282C23.8494 32.526 23.1525 31.0215 22.9389 29.4143L22.6272 27.0681C22.4488 25.7255 21.7582 24.5039 20.6998 23.6589L20.0751 23.16C19.6248 22.8004 19.1062 22.5545 18.5613 22.4298ZM50.2068 14.2195C50.3421 14.2731 50.4771 14.3277 50.6117 14.3835C54.301 15.9117 57.5785 18.202 60.2538 21.0643L58.1885 23.0914C56.8098 24.4446 54.5506 24.3123 53.3094 22.832C52.7995 22.2239 52.5265 21.4401 52.5556 20.647C52.587 19.7927 52.2758 18.9613 51.6911 18.3376L50.7671 17.3519C50.1434 16.6865 49.8664 15.768 50.0182 14.8687C50.0565 14.6418 50.1204 14.4244 50.2068 14.2195ZM40.1683 13.7328C39.3297 14.4277 39.3409 15.7174 40.1914 16.3977L44.1341 19.5515C44.3294 19.7077 44.5738 19.7898 44.8238 19.7832C45.6801 19.7605 46.1566 18.7836 45.6475 18.0948L42.6466 14.0345C42.0602 13.2412 40.9279 13.1033 40.1683 13.7328Z" fill="currentColor" />
  <path d="M29.5218 14.3328L29.3327 13.8699C29.1773 13.9334 29.0641 14.0707 29.0314 14.2354C28.9987 14.4001 29.0508 14.5702 29.1702 14.6882L29.5218 14.3328ZM35.3895 12.6606L35.7583 12.323C35.6437 12.1979 35.4735 12.1394 35.3063 12.1676L35.3895 12.6606ZM30.0618 14.6228L30.1642 14.1334L30.0618 14.6228ZM33.8251 15.4101L33.9275 14.9207V14.9207L33.8251 15.4101ZM35.75 14.283L36.2269 14.4333V14.4333L35.75 14.283ZM18.5613 22.4298L18.1744 22.113C18.0648 22.2469 18.0322 22.428 18.0882 22.5918C18.1443 22.7555 18.281 22.8786 18.4497 22.9172L18.5613 22.4298ZM26.2198 15.945L26.3073 15.4527C26.1918 15.4322 26.0729 15.4529 25.9711 15.5112L26.2198 15.945ZM34.6398 17.4407L34.5524 17.933L34.6398 17.4407ZM36.2484 18.5151L35.8271 18.7844L36.2484 18.5151ZM36.5159 18.9335L36.9371 18.6641V18.6641L36.5159 18.9335ZM36.3555 21.0313L36.731 21.3616L36.3555 21.0313ZM36.4022 23.3933L36.0401 23.7381V23.7381L36.4022 23.3933ZM37.2871 24.3225L36.925 24.6674L37.2871 24.3225ZM39.495 25.1374L39.4437 24.6401L39.495 25.1374ZM40.3747 25.0467L40.4259 25.5441L40.3747 25.0467ZM41.7381 23.7376L41.2432 23.6662V23.6662L41.7381 23.7376ZM41.8481 22.9751L42.343 23.0465L41.8481 22.9751ZM43.8015 22.3258L43.4478 22.6793L43.4478 22.6793L43.8015 22.3258ZM44.4795 22.6551L44.5387 22.1587H44.5387L44.4795 22.6551ZM45.7233 22.8034L45.7824 22.3069L45.7233 22.8034ZM47.3592 24.1626L46.882 24.3117L47.3592 24.1626ZM46.8976 26.1069L46.5383 25.7591V25.7591L46.8976 26.1069ZM39.6285 33.6167L39.2693 33.2689L39.6285 33.6167ZM39.3383 34.4223L39.8368 34.3836V34.3836L39.3383 34.4223ZM39.3425 34.4762L38.844 34.5149V34.5149L39.3425 34.4762ZM37.5325 35.2114L37.9168 34.8915L37.5325 35.2114ZM34.5299 38.542L34.3907 39.0222H34.3907L34.5299 38.542ZM35.7499 38.8956L35.8891 38.4154L35.7499 38.8956ZM37.4283 39.9554L37.0546 40.2875L37.4283 39.9554ZM37.8978 40.4837L38.2716 40.1516V40.1516L37.8978 40.4837ZM42.1392 42.501L42.161 42.0015H42.161L42.1392 42.501ZM42.7157 42.5262L42.6938 43.0257H42.6938L42.7157 42.5262ZM46.9308 44.5111L47.302 44.176V44.176L46.9308 44.5111ZM47.455 45.0918L47.0838 45.4268L47.455 45.0918ZM48.8838 46.0033L48.7364 46.481H48.7364L48.8838 46.0033ZM50.0679 52.1232L50.4268 52.4713L50.0679 52.1232ZM42.037 60.4054L41.6781 60.0574L42.037 60.4054ZM39.231 66.985L38.9396 67.3913L39.231 66.985ZM38.7954 66.4173L39.2633 66.2409L39.2633 66.2409L38.7954 66.4173ZM38.136 64.6681L37.6681 64.8445L38.136 64.6681ZM36.023 52.9908L36.4157 52.6813L36.023 52.9908ZM34.3903 48.5182L34.8901 48.5019L34.3903 48.5182ZM34.3135 46.1634L33.8138 46.1797L34.3135 46.1634ZM34.989 44.3146L34.6175 43.9799L34.6175 43.9799L34.989 44.3146ZM35.0831 44.2101L35.4546 44.5448L35.0831 44.2101ZM35.1616 40.9953L35.5491 40.6792L35.5491 40.6792L35.1616 40.9953ZM33.6427 40.1185L33.5628 40.612H33.5628L33.6427 40.1185ZM32.3068 39.902L32.2268 40.3956L32.3068 39.902ZM28.7975 37.9942L29.1682 37.6587L28.7975 37.9942ZM24.9373 33.7282L24.5666 34.0637H24.5666L24.9373 33.7282ZM22.9389 29.4143L22.4433 29.4801L22.9389 29.4143ZM22.6272 27.0681L23.1228 27.0022L22.6272 27.0681ZM20.6998 23.6589L20.3879 24.0496H20.3879L20.6998 23.6589ZM20.0751 23.16L19.7632 23.5508L20.0751 23.16ZM50.2068 14.2195L50.3909 13.7546C50.1381 13.6546 49.8517 13.7748 49.7461 14.0253L50.2068 14.2195ZM50.6117 14.3835L50.4204 14.8455L50.6117 14.3835ZM60.2538 21.0643L60.6041 21.4211C60.7977 21.231 60.8044 20.9211 60.6191 20.7229L60.2538 21.0643ZM58.1885 23.0914L58.5388 23.4483L58.1885 23.0914ZM53.3094 22.832L52.9263 23.1533L53.3094 22.832ZM52.5556 20.647L52.056 20.6287V20.6287L52.5556 20.647ZM51.6911 18.3376L51.3263 18.6795V18.6795L51.6911 18.3376ZM50.7671 17.3519L51.1319 17.0099L50.7671 17.3519ZM50.0182 14.8687L50.5112 14.9519L50.0182 14.8687ZM40.1914 16.3977L39.879 16.7882V16.7882L40.1914 16.3977ZM40.1683 13.7328L40.4873 14.1178V14.1178L40.1683 13.7328ZM44.1341 19.5515L43.8218 19.9419L43.8218 19.9419L44.1341 19.5515ZM44.8238 19.7832L44.8371 20.283L44.8238 19.7832ZM45.6475 18.0948L46.0496 17.7976L45.6475 18.0948ZM42.6466 14.0345L42.2445 14.3317V14.3317L42.6466 14.0345ZM29.7109 14.7956C31.5799 14.032 33.5125 13.4847 35.4728 13.1537L35.3063 12.1676C33.2739 12.5108 31.2702 13.0783 29.3327 13.8699L29.7109 14.7956ZM29.1702 14.6882C29.3811 14.8969 29.6523 15.048 29.9594 15.1122L30.1642 14.1334C30.0507 14.1097 29.9512 14.0543 29.8734 13.9773L29.1702 14.6882ZM29.9594 15.1122L33.7228 15.8995L33.9275 14.9207L30.1642 14.1334L29.9594 15.1122ZM33.7228 15.8995C34.8103 16.1271 35.8931 15.493 36.2269 14.4333L35.2731 14.1328C35.0938 14.7023 34.5119 15.043 33.9275 14.9207L33.7228 15.8995ZM36.2269 14.4333C36.4744 13.6473 36.2504 12.8604 35.7583 12.323L35.0208 12.9983C35.2888 13.2909 35.4061 13.7108 35.2731 14.1328L36.2269 14.4333ZM18.9481 22.7466C21.0388 20.1937 23.5848 18.0319 26.4685 16.3787L25.9711 15.5112C22.9814 17.2251 20.3419 19.4664 18.1744 22.113L18.9481 22.7466ZM26.1324 16.4372L34.5524 17.933L34.7273 16.9484L26.3073 15.4527L26.1324 16.4372ZM34.5524 17.933C35.0776 18.0263 35.5398 18.335 35.8271 18.7844L36.6696 18.2457C36.2318 17.561 35.5275 17.0905 34.7273 16.9484L34.5524 17.933ZM35.8271 18.7844L36.0946 19.2028L36.9371 18.6641L36.6696 18.2457L35.8271 18.7844ZM36.0946 19.2028C36.3946 19.672 36.3479 20.283 35.9801 20.7011L36.731 21.3616C37.3931 20.6088 37.4771 19.5088 36.9371 18.6641L36.0946 19.2028ZM35.9801 20.7011C35.2104 21.5762 35.2365 22.8942 36.0401 23.7381L36.7643 23.0485C36.3179 22.5797 36.3034 21.8476 36.731 21.3616L35.9801 20.7011ZM36.0401 23.7381L36.925 24.6674L37.6492 23.9777L36.7643 23.0485L36.0401 23.7381ZM36.925 24.6674C37.6019 25.3782 38.5698 25.7354 39.5462 25.6348L39.4437 24.6401C38.7753 24.709 38.1126 24.4644 37.6492 23.9777L36.925 24.6674ZM39.5462 25.6348L40.4259 25.5441L40.3234 24.5494L39.4437 24.6401L39.5462 25.6348ZM40.4259 25.5441C41.3548 25.4484 42.0996 24.7332 42.233 23.809L41.2432 23.6662C41.1753 24.1366 40.7962 24.5006 40.3234 24.5494L40.4259 25.5441ZM42.233 23.809L42.343 23.0465L41.3532 22.9037L41.2432 23.6662L42.233 23.809ZM42.343 23.0465C42.4195 22.5158 43.0688 22.3 43.4478 22.6793L44.1552 21.9724C43.194 21.0106 41.5474 21.5579 41.3532 22.9037L42.343 23.0465ZM43.4478 22.6793C43.7098 22.9414 44.0523 23.1078 44.4203 23.1516L44.5387 22.1587C44.3935 22.1414 44.2585 22.0758 44.1552 21.9724L43.4478 22.6793ZM44.4203 23.1516L45.6641 23.2998L45.7824 22.3069L44.5387 22.1587L44.4203 23.1516ZM45.6641 23.2998C46.2339 23.3677 46.7108 23.7639 46.882 24.3117L47.8365 24.0135C47.5478 23.0896 46.7435 22.4214 45.7824 22.3069L45.6641 23.2998ZM46.882 24.3117C47.041 24.8207 46.9092 25.3759 46.5383 25.7591L47.2568 26.4546C47.8824 25.8084 48.1047 24.8719 47.8365 24.0135L46.882 24.3117ZM46.5383 25.7591L39.2693 33.2689L39.9878 33.9644L47.2568 26.4546L46.5383 25.7591ZM39.2693 33.2689C38.9619 33.5864 38.8056 34.0205 38.8398 34.461L39.8368 34.3836C39.8247 34.2287 39.8797 34.0761 39.9878 33.9644L39.2693 33.2689ZM38.8398 34.461L38.844 34.5149L39.841 34.4375L39.8368 34.3836L38.8398 34.461ZM38.844 34.5149C38.8836 35.0252 38.2442 35.2849 37.9168 34.8915L37.1482 35.5313C38.0992 36.6738 39.9561 35.9195 39.841 34.4375L38.844 34.5149ZM37.9168 34.8915C37.627 34.5434 37.1975 34.3421 36.7446 34.3421V35.3421C36.9005 35.3421 37.0484 35.4114 37.1482 35.5313L37.9168 34.8915ZM36.7446 34.3421H35.0553V35.3421H36.7446V34.3421ZM35.0553 34.3421C33.7368 34.3421 32.668 35.4109 32.668 36.7293H33.668C33.668 35.9632 34.2891 35.3421 35.0553 35.3421V34.3421ZM32.668 36.7293C32.668 37.7918 33.3702 38.7264 34.3907 39.0222L34.6691 38.0618C34.0761 37.8899 33.668 37.3468 33.668 36.7293H32.668ZM34.3907 39.0222L35.6107 39.3759L35.8891 38.4154L34.6691 38.0618L34.3907 39.0222ZM35.6107 39.3759C36.1683 39.5375 36.6689 39.8535 37.0546 40.2875L37.802 39.6232C37.2911 39.0483 36.6279 38.6295 35.8891 38.4154L35.6107 39.3759ZM37.0546 40.2875L37.5241 40.8158L38.2716 40.1516L37.802 39.6232L37.0546 40.2875ZM37.5241 40.8158C38.6967 42.1353 40.3538 42.9235 42.1174 43.0005L42.161 42.0015C40.6677 41.9363 39.2645 41.2689 38.2716 40.1516L37.5241 40.8158ZM42.1174 43.0005L42.6938 43.0257L42.7375 42.0267L42.161 42.0015L42.1174 43.0005ZM42.6938 43.0257C44.1742 43.0904 45.5668 43.7461 46.5596 44.8461L47.302 44.176C46.1297 42.8773 44.4854 42.103 42.7375 42.0267L42.6938 43.0257ZM46.5596 44.8461L47.0838 45.4268L47.8262 44.7568L47.302 44.176L46.5596 44.8461ZM47.0838 45.4268C47.5296 45.9207 48.1006 46.285 48.7364 46.481L49.0311 45.5255C48.5675 45.3825 48.1512 45.1169 47.8262 44.7568L47.0838 45.4268ZM48.7364 46.481C49.8651 46.8291 50.635 47.8722 50.635 49.0533H51.635C51.635 47.4334 50.579 46.0028 49.0311 45.5255L48.7364 46.481ZM50.635 49.0533V49.4897H51.635V49.0533H50.635ZM50.635 49.4897C50.635 50.3429 50.3028 51.1626 49.7089 51.7752L50.4268 52.4713C51.2017 51.6722 51.635 50.6028 51.635 49.4897H50.635ZM49.7089 51.7752L41.6781 60.0574L42.396 60.7535L50.4268 52.4713L49.7089 51.7752ZM41.6781 60.0574C41.0415 60.7138 40.6855 61.5923 40.6855 62.5067H41.6855C41.6855 61.8522 41.9403 61.2234 42.396 60.7535L41.6781 60.0574ZM40.6855 62.5067V65.9818H41.6855V62.5067H40.6855ZM40.6855 65.9818C40.6855 66.5801 40.0086 66.9275 39.5225 66.5788L38.9396 67.3913C40.0874 68.2148 41.6855 67.3944 41.6855 65.9818H40.6855ZM39.5225 66.5788C39.4046 66.4942 39.3144 66.3767 39.2633 66.2409L38.3275 66.5937C38.4483 66.9141 38.6613 67.1917 38.9396 67.3913L39.5225 66.5788ZM39.2633 66.2409L38.6039 64.4918L37.6681 64.8445L38.3275 66.5937L39.2633 66.2409ZM38.6039 64.4918C38.3102 63.7128 38.1598 62.8872 38.1598 62.0547H37.1598C37.1598 63.0076 37.332 63.9528 37.6681 64.8445L38.6039 64.4918ZM38.1598 62.0547V57.7122H37.1598V62.0547H38.1598ZM38.1598 57.7122C38.1598 55.887 37.5454 54.1149 36.4157 52.6813L35.6303 53.3003C36.621 54.5575 37.1598 56.1116 37.1598 57.7122H38.1598ZM36.4157 52.6813C35.4743 51.4867 34.9397 50.0221 34.8901 48.5019L33.8906 48.5345C33.9472 50.268 34.5568 51.938 35.6303 53.3003L36.4157 52.6813ZM34.8901 48.5019L34.8132 46.1471L33.8138 46.1797L33.8906 48.5345L34.8901 48.5019ZM34.8132 46.1471C34.7952 45.5959 34.9914 45.059 35.3605 44.6492L34.6175 43.9799C34.0754 44.5818 33.7873 45.3702 33.8138 46.1797L34.8132 46.1471ZM35.3605 44.6492L35.4546 44.5448L34.7116 43.8755L34.6175 43.9799L35.3605 44.6492ZM35.4546 44.5448C36.4353 43.456 36.4754 41.8146 35.5491 40.6792L34.7742 41.3114C35.3887 42.0645 35.3621 43.1533 34.7116 43.8755L35.4546 44.5448ZM35.5491 40.6792C35.0897 40.1162 34.44 39.7411 33.7227 39.6249L33.5628 40.612C34.0385 40.6891 34.4695 40.9379 34.7742 41.3114L35.5491 40.6792ZM33.7227 39.6249L32.3867 39.4084L32.2268 40.3956L33.5628 40.612L33.7227 39.6249ZM32.3867 39.4084C31.1464 39.2075 30.0113 38.5904 29.1682 37.6587L28.4267 38.3296C29.4222 39.4297 30.7623 40.1583 32.2268 40.3956L32.3867 39.4084ZM29.1682 37.6587L25.3081 33.3928L24.5666 34.0637L28.4267 38.3296L29.1682 37.6587ZM25.3081 33.3928C24.2881 32.2656 23.6348 30.8552 23.4346 29.3484L22.4433 29.4801C22.6702 31.1879 23.4107 32.7863 24.5666 34.0637L25.3081 33.3928ZM23.4346 29.3484L23.1228 27.0022L22.1316 27.134L22.4433 29.4801L23.4346 29.3484ZM23.1228 27.0022C22.9274 25.5317 22.171 24.1938 21.0118 23.2681L20.3879 24.0496C21.3454 24.8141 21.9702 25.9193 22.1316 27.134L23.1228 27.0022ZM21.0118 23.2681L20.3871 22.7693L19.7632 23.5508L20.3879 24.0496L21.0118 23.2681ZM20.3871 22.7693C19.8772 22.3621 19.2898 22.0836 18.6728 21.9424L18.4497 22.9172C18.9225 23.0254 19.3724 23.2387 19.7632 23.5508L20.3871 22.7693ZM50.0228 14.6844C50.1556 14.737 50.2881 14.7907 50.4204 14.8455L50.803 13.9216C50.666 13.8648 50.5286 13.8092 50.3909 13.7546L50.0228 14.6844ZM50.4204 14.8455C54.0431 16.3461 57.2615 18.5951 59.8885 21.4057L60.6191 20.7229C57.8956 17.809 54.5589 15.4773 50.803 13.9216L50.4204 14.8455ZM58.5388 23.4483L60.6041 21.4211L59.9036 20.7074L57.8383 22.7346L58.5388 23.4483ZM52.9263 23.1533C54.3508 24.8522 56.9476 25.01 58.5388 23.4483L57.8383 22.7346C56.6721 23.8792 54.7505 23.7724 53.6925 22.5108L52.9263 23.1533ZM52.056 20.6287C52.0223 21.5472 52.3379 22.4516 52.9263 23.1533L53.6925 22.5108C53.2611 21.9962 53.0308 21.333 53.0553 20.6654L52.056 20.6287ZM51.3263 18.6795C51.8198 19.2059 52.0825 19.9077 52.056 20.6287L53.0553 20.6654C53.0916 19.6778 52.7318 18.7166 52.0559 17.9956L51.3263 18.6795ZM50.4023 17.6939L51.3263 18.6795L52.0559 17.9956L51.1319 17.0099L50.4023 17.6939ZM49.5251 14.7855C49.3473 15.8387 49.6718 16.9146 50.4023 17.6939L51.1319 17.0099C50.615 16.4585 50.3854 15.6972 50.5112 14.9519L49.5251 14.7855ZM49.7461 14.0253C49.6448 14.2655 49.5699 14.5201 49.5251 14.7855L50.5112 14.9519C50.543 14.7635 50.596 14.5834 50.6675 14.4138L49.7461 14.0253ZM40.5037 16.0073C39.9007 15.5249 39.8928 14.6105 40.4873 14.1178L39.8493 13.3478C38.7667 14.2449 38.7811 15.9099 39.879 16.7882L40.5037 16.0073ZM44.4464 19.161L40.5037 16.0073L39.879 16.7882L43.8218 19.9419L44.4464 19.161ZM44.8106 19.2833C44.6785 19.2868 44.5495 19.2435 44.4464 19.161L43.8218 19.9419C44.1093 20.1719 44.469 20.2928 44.8371 20.283L44.8106 19.2833ZM45.2454 18.392C45.5142 18.7556 45.2626 19.2714 44.8106 19.2833L44.8371 20.283C46.0975 20.2496 46.7991 18.8116 46.0496 17.7976L45.2454 18.392ZM42.2445 14.3317L45.2454 18.392L46.0496 17.7976L43.0487 13.7373L42.2445 14.3317ZM40.4873 14.1178C41.0259 13.6715 41.8288 13.7692 42.2445 14.3317L43.0487 13.7373C42.2917 12.7132 40.8298 12.5352 39.8493 13.3478L40.4873 14.1178Z" fill="currentColor" />
</svg>