<svg viewBox="0 0 80 80" fill="none">
  <path d="M14 10H33C35.2091 10 37 11.7909 37 14V33C37 35.2091 35.2091 37 33 37H14C11.7909 37 10 35.2091 10 33V14C10 11.7909 11.7909 10 14 10Z" fill="currentColor" />
  <path d="M14 43C11.7909 43 10 44.7909 10 47V66C10 68.2091 11.7909 70 14 70H33C35.2091 70 37 68.2091 37 66V47C37 44.7909 35.2091 43 33 43H14Z" fill="currentColor" />
  <path d="M47 43C44.7909 43 43 44.7909 43 47V66C43 68.2091 44.7909 70 47 70H66C68.2091 70 70 68.2091 70 66V47C70 44.7909 68.2091 43 66 43H47Z" fill="currentColor" />
  <path d="M66 37C68.2091 37 70 35.2091 70 33V14C70 11.7909 68.2091 10 66 10H47C44.7909 10 43 11.7909 43 14V33C43 35.2091 44.7909 37 47 37H66Z" fill="currentColor" />
</svg>