<svg viewBox="0 0 80 80" fill="none">
  <path d="M35 60.1083C35 61.7651 36.3431 63.1083 38 63.1083C39.6569 63.1083 41 61.7651 41 60.1083H35ZM41 20.1083C41 18.4514 39.6569 17.1083 38 17.1083C36.3431 17.1083 35 18.4514 35 20.1083H41ZM7 60.1083C7 61.7651 8.34315 63.1083 10 63.1083C11.6569 63.1083 13 61.7651 13 60.1083H7ZM13 20.1083C13 18.4514 11.6569 17.1083 10 17.1083C8.34315 17.1083 7 18.4514 7 20.1083H13ZM10 37.1083C8.34315 37.1083 7 38.4514 7 40.1083C7 41.7651 8.34315 43.1083 10 43.1083V37.1083ZM38 43.1083C39.6569 43.1083 41 41.7651 41 40.1083C41 38.4514 39.6569 37.1083 38 37.1083V43.1083ZM41 60.1083V20.1083H35V60.1083H41ZM13 60.1083V20.1083H7V60.1083H13ZM10 43.1083H38V37.1083H10V43.1083Z" fill="currentColor" />
  <path d="M50 57C48.3431 57 47 58.3431 47 60C47 61.6569 48.3431 63 50 63V57ZM69.5071 20.6629L67.0996 18.873L67.0996 18.873L69.5071 20.6629ZM57.8551 36.3352L55.4476 34.5452L55.4476 34.5452L57.8551 36.3352ZM50 17C48.3431 17 47 18.3431 47 20C47 21.6569 48.3431 23 50 23V17ZM58.441 36.6741L58.4678 33.6742H58.4678L58.441 36.6741ZM58.0217 36.6704L58.0485 33.6705L58.0217 36.6704ZM58.3368 57H50V63H58.3368V57ZM67.0996 18.873L55.4476 34.5452L60.2627 38.1251L71.9146 22.4529L67.0996 18.873ZM50 23H69.1739V17H50V23ZM58.4678 33.6742L58.0485 33.6705L57.9949 39.6702L58.4142 39.674L58.4678 33.6742ZM55.4476 34.5452C53.881 36.6525 55.3693 39.6468 57.9949 39.6702L58.0485 33.6705C60.3307 33.6909 61.6244 36.2935 60.2627 38.1251L55.4476 34.5452ZM73 48.3368C73 40.2897 66.5146 33.7461 58.4678 33.6742L58.4142 39.674C63.1684 39.7164 67 43.5825 67 48.3368H73ZM67 48.3368C67 53.1214 63.1214 57 58.3368 57V63C66.4351 63 73 56.4351 73 48.3368H67ZM71.9146 22.4529C73.5898 20.1997 71.9816 17 69.1739 17V23C67.0489 23 65.8317 20.5783 67.0996 18.873L71.9146 22.4529Z" fill="currentColor" />
</svg>