<svg viewBox="0 0 80 80" fill="none">
  <path fill-rule="evenodd" clip-rule="evenodd" d="M45.75 15.5C45.75 13.1528 43.8473 11.25 41.5001 11.25C39.1528 11.25 37.2501 13.1528 37.2501 15.5V39.125C37.2501 39.3321 37.0822 39.5 36.8751 39.5H36.5599C36.2226 39.5 35.9347 39.2561 35.8792 38.9233L32.6922 19.8013C32.3063 17.486 30.1166 15.9219 27.8014 16.3078C25.4861 16.6937 23.922 18.8834 24.3079 21.1987L28.2051 44.5822C28.235 44.7616 28.2501 44.9431 28.2501 45.125C28.2501 47.1277 25.8023 48.1009 24.4271 46.6449L20.5898 42.5819C18.9782 40.8754 16.2883 40.7985 14.5819 42.4102C12.8754 44.0218 12.7986 46.7117 14.4102 48.4182L31.4102 66.4182C32.2131 67.2682 33.3307 67.75 34.5 67.75H56.5C58.4396 67.75 60.1331 66.4369 60.6161 64.5584L69.6161 29.5584C70.2007 27.2852 68.8317 24.9685 66.5585 24.3839C64.2852 23.7994 61.9685 25.1683 61.384 27.4416L58.4293 38.9318C58.3433 39.2662 58.0418 39.5 57.6966 39.5C57.2504 39.5 56.9011 39.1159 56.9434 38.6717L58.7309 19.9029C58.9534 17.5663 57.2396 15.4917 54.903 15.2691C52.5663 15.0466 50.4917 16.7604 50.2692 19.0971L48.4424 38.2787C48.3765 38.9712 47.7949 39.5 47.0993 39.5H46.125C45.9179 39.5 45.75 39.3321 45.75 39.125V15.5Z" fill="currentColor" />
</svg>