<svg viewBox="0 0 80 80" fill="none">
  <path fill-rule="evenodd" clip-rule="evenodd" d="M8.8125 66.375C8.8125 66.6511 9.03636 66.875 9.3125 66.875H46.3938C52.695 66.875 58.8086 64.7305 63.729 60.7941L69.6551 56.0533C71.2723 54.7595 71.5345 52.3996 70.2408 50.7824C68.947 49.1652 66.5871 48.903 64.9699 50.1967L59.0438 54.9376C58.2404 55.5804 57.2235 55.875 56.1945 55.875H55.3125L34.8124 55.875C34.6744 55.875 34.5625 55.7631 34.5625 55.6251C34.5625 55.4896 34.6705 55.3787 34.806 55.3768C34.897 55.3756 34.988 55.375 35.0791 55.375H44.8125C46.8836 55.375 48.5625 53.6961 48.5625 51.625C48.5625 49.5539 46.8836 47.875 44.8125 47.875H35.0791C30.4929 47.875 25.9925 49.0114 21.974 51.1644C20.6071 51.8968 19.1042 52.375 17.5535 52.375H9.3125C9.03636 52.375 8.8125 52.5989 8.8125 52.875L8.8125 66.375Z" fill="currentColor" />
  <g opacity="0.9">
    <path d="M38.0625 28.4238V38.9999" stroke="currentColor" stroke-width="4" stroke-linecap="round" stroke-linejoin="round" />
    <path fill-rule="evenodd" clip-rule="evenodd" d="M34.9999 32.3899C29.9259 32.3899 25.8127 28.2469 25.8127 23.1361C25.8127 22.055 25.9967 21.0172 26.335 20.0527C28.0655 20.1397 29.7683 20.5929 31.329 21.3938C33.654 22.5871 35.5444 24.4912 36.7291 26.8331C37.5244 28.4053 37.9743 30.1208 38.0605 31.864C37.1032 32.2046 36.073 32.3899 34.9999 32.3899Z" fill="currentColor" />
    <path fill-rule="evenodd" clip-rule="evenodd" d="M42.0002 28.864C48.5241 28.864 53.8127 23.537 53.8127 16.9659C53.8127 15.576 53.5761 14.2418 53.1413 13.002C50.9161 13.1137 48.7265 13.6963 46.7196 14.7263C43.7301 16.2606 41.2996 18.7087 39.7764 21.7199C38.7539 23.7411 38.1755 25.9465 38.0645 28.1876C39.2955 28.6256 40.6202 28.864 42.0002 28.864Z" fill="currentColor" />
  </g>
</svg>