<svg viewBox="0 0 80 80" fill="none">
  <path fill-rule="evenodd" clip-rule="evenodd" d="M13.0029 30.1086C13.0029 26.3955 14.4779 22.8346 17.1034 20.2091C19.729 17.5836 23.2899 16.1086 27.0029 16.1086C30.4694 16.1086 33.8033 17.3942 36.3672 19.7013L32.3487 29.5951C32.1225 30.1522 32.4356 30.7816 33.0164 30.9373L37.727 32.1995L39.0803 32.5621L39.691 32.7257C40.2946 32.8875 40.6037 33.5571 40.3351 34.1214L34.2875 46.8271C34.1212 47.1765 34.5933 47.4737 34.8365 47.1727L48.9525 29.6971C49.4071 29.1343 49.1322 28.29 48.4334 28.1028L45.2362 27.2461L43.7918 26.8591L42.6145 26.5436C42.4448 26.4981 42.361 26.307 42.4426 26.1514L46.9444 17.5682C47.008 17.447 47.044 17.3199 47.0554 17.1933C48.7507 16.4841 50.5854 16.1086 52.4588 16.1086C56.1718 16.1086 59.7328 17.5836 62.3583 20.2091C64.9838 22.8346 66.4588 26.3955 66.4588 30.1086C66.4588 33.8216 64.9838 37.3826 62.3583 40.0081L48.2161 54.1502L41.1451 61.2213C40.364 62.0023 39.0977 62.0023 38.3166 61.2213L31.2456 54.1502L17.1034 40.0081C14.4779 37.3826 13.0029 33.8216 13.0029 30.1086Z" fill="currentColor" />
</svg>