<svg viewBox="0 0 80 80" fill="none">
  <path fill-rule="evenodd" clip-rule="evenodd" d="M17.373 20.8056C14.7475 23.4311 13.2725 26.992 13.2725 30.7051C13.2725 34.4181 14.7475 37.9791 17.373 40.6046L31.5151 54.7467L38.5862 61.8178C39.3672 62.5988 40.6335 62.5988 41.4146 61.8178L48.4857 54.7467L62.6278 40.6046C65.2533 37.9791 66.7283 34.4181 66.7283 30.7051C66.7283 26.992 65.2533 23.4311 62.6278 20.8056C60.0023 18.1801 56.4413 16.7051 52.7283 16.7051C49.0153 16.7051 45.4543 18.1801 42.8288 20.8056L40.6914 22.943C40.3098 23.3246 39.691 23.3246 39.3094 22.943L37.172 20.8056C34.5464 18.1801 30.9855 16.7051 27.2725 16.7051C23.5594 16.7051 19.9985 18.1801 17.373 20.8056Z" fill="currentColor" />
  <path d="M13.2725 30.7051H11.2725H13.2725ZM17.373 40.6046L18.7872 39.1904L17.373 40.6046ZM31.5151 54.7467L30.1009 56.1609L31.5151 54.7467ZM48.4857 54.7467L47.0714 53.3325L48.4857 54.7467ZM27.2725 16.7051L27.2725 14.7051H27.2725V16.7051ZM38.5862 61.8178L40.0004 60.4036L38.5862 61.8178ZM41.4146 61.8178L40.0004 60.4036L41.4146 61.8178ZM15.9588 19.3914C12.9582 22.392 11.2725 26.4616 11.2725 30.7051H15.2725C15.2725 27.5225 16.5367 24.4702 18.7872 22.2198L15.9588 19.3914ZM11.2725 30.7051C11.2725 34.9485 12.9582 39.0182 15.9588 42.0188L18.7872 39.1904C16.5367 36.9399 15.2725 33.8877 15.2725 30.7051H11.2725ZM15.9588 42.0188L30.1009 56.1609L32.9293 53.3325L18.7872 39.1904L15.9588 42.0188ZM30.1009 56.1609L37.172 63.232L40.0004 60.4036L32.9293 53.3325L30.1009 56.1609ZM42.8288 63.232L49.8999 56.1609L47.0714 53.3325L40.0004 60.4036L42.8288 63.232ZM49.8999 56.1609L64.042 42.0188L61.2136 39.1904L47.0714 53.3325L49.8999 56.1609ZM64.042 42.0188C67.0426 39.0182 68.7283 34.9485 68.7283 30.7051H64.7283C64.7283 33.8877 63.464 36.9399 61.2136 39.1904L64.042 42.0188ZM68.7283 30.7051C68.7283 26.4616 67.0426 22.392 64.042 19.3914L61.2136 22.2198C63.464 24.4702 64.7283 27.5225 64.7283 30.7051H68.7283ZM64.042 19.3914C61.0414 16.3908 56.9718 14.7051 52.7283 14.7051V18.7051C55.9109 18.7051 58.9631 19.9694 61.2136 22.2198L64.042 19.3914ZM52.7283 14.7051C48.4848 14.7051 44.4152 16.3908 41.4146 19.3914L44.243 22.2198C46.4935 19.9694 49.5457 18.7051 52.7283 18.7051V14.7051ZM41.4146 19.3914L39.2772 21.5288L42.1056 24.3572L44.243 22.2198L41.4146 19.3914ZM40.7236 21.5288L38.5862 19.3914L35.7577 22.2198L37.8951 24.3572L40.7236 21.5288ZM38.5862 19.3914C35.5856 16.3908 31.5159 14.7051 27.2725 14.7051L27.2725 18.7051C30.4551 18.7051 33.5073 19.9694 35.7577 22.2198L38.5862 19.3914ZM27.2725 14.7051C23.029 14.7051 18.9593 16.3908 15.9588 19.3914L18.7872 22.2198C21.0376 19.9694 24.0899 18.7051 27.2725 18.7051V14.7051ZM39.2772 21.5288C39.6766 21.1294 40.3242 21.1294 40.7236 21.5288L37.8951 24.3572C39.0578 25.5199 40.9429 25.5199 42.1056 24.3572L39.2772 21.5288ZM37.172 63.232C38.7341 64.7941 41.2667 64.7941 42.8288 63.232L40.0004 60.4036L37.172 63.232Z" fill="currentColor" />
</svg>