<svg viewBox="0 0 80 80" fill="none">
  <path fill-rule="evenodd" clip-rule="evenodd" d="M40.0002 23.2295C39.7502 23.2294 39.5001 23.134 39.3094 22.9432L37.172 20.8058C34.5464 18.1803 30.9855 16.7053 27.2725 16.7053C23.5594 16.7053 19.9985 18.1803 17.373 20.8058C14.7475 23.4313 13.2725 26.9923 13.2725 30.7053C13.2725 34.4184 14.7475 37.9793 17.373 40.6048L31.5151 54.747L38.5862 61.818C38.9766 62.2085 39.4884 62.4038 40.0002 62.4038V23.2295Z" fill="currentColor" />
  <path d="M40.0002 23.2295H42.0002C42.0002 22.125 41.105 21.2297 40.0006 21.2295L40.0002 23.2295ZM39.3094 22.9432L37.8951 24.3574L37.8951 24.3574L39.3094 22.9432ZM37.172 20.8058L38.5862 19.3916V19.3916L37.172 20.8058ZM27.2725 16.7053L27.2725 14.7053H27.2725V16.7053ZM17.373 20.8058L15.9588 19.3916L15.9588 19.3916L17.373 20.8058ZM13.2725 30.7053H11.2725H13.2725ZM17.373 40.6048L18.7872 39.1906V39.1906L17.373 40.6048ZM31.5151 54.747L30.1009 56.1612V56.1612L31.5151 54.747ZM38.5862 61.818L40.0004 60.4038L38.5862 61.818ZM40.0002 62.4038L40 64.4038C40.5305 64.4039 41.0392 64.1932 41.4143 63.8181C41.7894 63.443 42.0002 62.9343 42.0002 62.4038H40.0002ZM40.0006 21.2295C40.2592 21.2295 40.5243 21.3298 40.7236 21.529L37.8951 24.3574C38.476 24.9383 39.2411 25.2293 39.9998 25.2295L40.0006 21.2295ZM40.7236 21.529L38.5862 19.3916L35.7577 22.22L37.8951 24.3574L40.7236 21.529ZM38.5862 19.3916C35.5856 16.391 31.5159 14.7053 27.2725 14.7053L27.2725 18.7053C30.4551 18.7053 33.5073 19.9696 35.7577 22.22L38.5862 19.3916ZM27.2725 14.7053C23.029 14.7053 18.9593 16.391 15.9588 19.3916L18.7872 22.22C21.0376 19.9696 24.0899 18.7053 27.2725 18.7053V14.7053ZM15.9588 19.3916C12.9582 22.3922 11.2725 26.4619 11.2725 30.7053L15.2725 30.7053C15.2725 27.5227 16.5367 24.4705 18.7872 22.22L15.9588 19.3916ZM11.2725 30.7053C11.2725 34.9488 12.9582 39.0185 15.9588 42.019L18.7872 39.1906C16.5367 36.9402 15.2725 33.8879 15.2725 30.7053L11.2725 30.7053ZM15.9588 42.019L30.1009 56.1612L32.9293 53.3327L18.7872 39.1906L15.9588 42.019ZM30.1009 56.1612L37.172 63.2322L40.0004 60.4038L32.9293 53.3327L30.1009 56.1612ZM37.172 63.2322C37.9525 64.0128 38.9795 64.4037 40 64.4038L40.0004 60.4038V60.4038L37.172 63.2322ZM42.0002 62.4038V23.2295H38.0002V62.4038H42.0002Z" fill="currentColor" />
</svg>