<svg viewBox="0 0 80 80" fill="none">
  <path fill-rule="evenodd" clip-rule="evenodd" d="M12.7305 30.403C12.7305 26.69 14.2055 23.129 16.831 20.5035C19.4565 17.878 23.0174 16.403 26.7305 16.403C30.1969 16.403 33.5308 17.6886 36.0947 19.9957L32.0763 29.8895C31.85 30.4466 32.1631 31.0761 32.744 31.2317L37.4545 32.4939L38.8078 32.8565L39.4185 33.0202C40.0222 33.1819 40.3312 33.8516 40.0626 34.4159L34.0151 47.1215C33.8487 47.471 34.3208 47.7682 34.564 47.4671L48.6801 29.9915C49.1346 29.4288 48.8597 28.5845 48.161 28.3972L44.9638 27.5405L43.5193 27.1535L42.342 26.838C42.1723 26.7926 42.0885 26.6014 42.1702 26.4458L46.672 17.8627C46.7355 17.7415 46.7716 17.6143 46.7829 17.4878C48.4783 16.7785 50.3129 16.403 52.1863 16.403C55.8993 16.403 59.4603 17.878 62.0858 20.5035C64.7113 23.129 66.1863 26.69 66.1863 30.403C66.1863 34.116 64.7113 37.677 62.0858 40.3025L47.9437 54.4446L40.8726 61.5157C40.0916 62.2968 38.8252 62.2968 38.0442 61.5157L30.9731 54.4446L16.831 40.3025C14.2055 37.677 12.7305 34.116 12.7305 30.403Z" fill="currentColor" />
</svg>