<svg viewBox="0 0 81 80" fill="none">
  <path d="M29.7673 15.7567L30.9153 18.5283L29.7673 15.7567ZM25.4398 21.7517C24.1426 22.7825 22.2555 22.5666 21.2247 21.2695C20.1939 19.9723 20.4098 18.0851 21.7069 17.0543L25.4398 21.7517ZM21.6918 17.0664C22.9883 16.0347 24.8756 16.2494 25.9073 17.5458C26.9389 18.8423 26.7243 20.7296 25.4278 21.7613L21.6918 17.0664ZM25.3651 21.8114C24.0723 22.8476 22.1842 22.6395 21.148 21.3467C20.1118 20.0539 20.3198 18.1658 21.6127 17.1296L25.3651 21.8114ZM49.5663 15.7567L50.7143 12.9851L50.7143 12.9851L49.5663 15.7567ZM63.5663 29.7567L66.3379 28.6086L66.3379 28.6087L63.5663 29.7567ZM63.5663 49.5557L66.3379 50.7037L66.3379 50.7037L63.5663 49.5557ZM29.7673 63.5557L28.6192 66.3273L29.7673 63.5557ZM26.3735 65.2821C24.9027 64.5193 24.3289 62.7085 25.0918 61.2378C25.8546 59.767 27.6654 59.1931 29.1362 59.956L26.3735 65.2821ZM30.9153 18.5283C28.9311 19.3502 27.0916 20.4391 25.4398 21.7517L21.7069 17.0543C23.7923 15.3972 26.1148 14.0225 28.6192 12.9851L30.9153 18.5283ZM25.4278 21.7613C25.4069 21.7779 25.386 21.7946 25.3651 21.8114L21.6127 17.1296C21.639 17.1085 21.6654 17.0874 21.6918 17.0664L25.4278 21.7613ZM48.4182 18.5283C42.8148 16.2073 36.5188 16.2073 30.9153 18.5283L28.6192 12.9851C35.6929 10.0551 43.6407 10.0551 50.7143 12.9851L48.4182 18.5283ZM60.7947 30.9048C58.4736 25.3013 54.0217 20.8494 48.4182 18.5283L50.7143 12.9851C57.788 15.9151 63.4079 21.535 66.3379 28.6086L60.7947 30.9048ZM60.7947 48.4076C63.1157 42.8042 63.1157 36.5082 60.7946 30.9047L66.3379 28.6087C69.2679 35.6823 69.2679 43.6301 66.3379 50.7037L60.7947 48.4076ZM48.4182 60.784C54.0217 58.463 58.4736 54.0111 60.7947 48.4076L66.3379 50.7037C63.4079 57.7774 57.788 63.3973 50.7143 66.3273L48.4182 60.784ZM30.9153 60.784C36.5188 63.1051 42.8148 63.1051 48.4182 60.784L50.7143 66.3273C43.6407 69.2573 35.6929 69.2573 28.6192 66.3273L30.9153 60.784ZM28.6192 66.3273C27.8532 66.01 27.104 65.6611 26.3735 65.2821L29.1362 59.956C29.7148 60.2562 30.3083 60.5326 30.9153 60.784L28.6192 66.3273Z" fill="currentColor" />
  <path d="M29.9346 25.9161L18.0498 14.0314C16.8505 12.832 14.7998 13.6815 14.7998 15.3776L14.7998 26.1661C14.7998 27.823 16.143 29.1661 17.7998 29.1661L28.5884 29.1661C30.2845 29.1661 31.1339 27.1155 29.9346 25.9161Z" fill="currentColor" stroke="currentColor" stroke-width="6" stroke-linecap="round" stroke-linejoin="round" />
  <path d="M47.6663 32.213C48.6731 30.8971 48.4225 29.0142 47.1066 28.0074C45.7907 27.0006 43.9079 27.2512 42.9011 28.5671L47.6663 32.213ZM38.0402 34.9203C37.0334 36.2362 37.284 38.1191 38.5999 39.1259C39.9158 40.1327 41.7987 39.8821 42.8054 38.5662L38.0402 34.9203ZM51.0227 49.6421C52.4628 50.4614 54.2944 49.9581 55.1136 48.518C55.9329 47.0778 55.4296 45.2462 53.9895 44.427L51.0227 49.6421ZM42.6916 37.9998C41.2515 37.1805 39.4199 37.6838 38.6006 39.124C37.7813 40.5641 38.2847 42.3957 39.7248 43.215L42.6916 37.9998ZM38.5991 39.1255V33.1255C35.2854 33.1255 32.5991 35.8118 32.5991 39.1255H38.5991ZM38.5991 39.1255H32.5991C32.5991 42.4392 35.2854 45.1255 38.5991 45.1255V39.1255ZM38.5991 39.1255V45.1255C41.9128 45.1255 44.5991 42.4392 44.5991 39.1255H38.5991ZM38.5991 39.1255H44.5991C44.5991 35.8118 41.9128 33.1255 38.5991 33.1255V39.1255ZM42.9011 28.5671L38.0402 34.9203L42.8054 38.5662L47.6663 32.213L42.9011 28.5671ZM53.9895 44.427L42.6916 37.9998L39.7248 43.215L51.0227 49.6421L53.9895 44.427Z" fill="currentColor" />
</svg>