<svg viewBox="0 0 80 80" fill="none">
  <path d="M29.1692 15.7566L30.3172 18.5282L30.3172 18.5282L29.1692 15.7566ZM24.8417 21.7516C23.5445 22.7824 21.6573 22.5665 20.6265 21.2693C19.5957 19.9722 19.8116 18.085 21.1088 17.0542L24.8417 21.7516ZM21.0937 17.0662C22.3901 16.0346 24.2774 16.2492 25.3091 17.5457C26.3408 18.8422 26.1261 20.7295 24.8297 21.7612L21.0937 17.0662ZM24.767 21.8112C23.4741 22.8474 21.5861 22.6394 20.5499 21.3466C19.5136 20.0537 19.7217 18.1657 21.0145 17.1295L24.767 21.8112ZM48.9681 15.7566L47.8201 18.5282L48.9681 15.7566ZM62.9681 29.7566L65.7398 28.6085L65.7398 28.6085L62.9681 29.7566ZM62.9681 49.5556L65.7398 50.7036L65.7398 50.7036L62.9681 49.5556ZM48.9681 63.5556L50.1162 66.3272L48.9681 63.5556ZM29.1692 63.5556L28.0211 66.3272L29.1692 63.5556ZM25.7753 65.282C24.3046 64.5191 23.7307 62.7084 24.4936 61.2376C25.2565 59.7669 27.0672 59.193 28.538 59.9559L25.7753 65.282ZM30.3172 18.5282C28.333 19.3501 26.4934 20.439 24.8417 21.7516L21.1088 17.0542C23.1941 15.3971 25.5166 14.0223 28.0211 12.9849L30.3172 18.5282ZM24.8297 21.7612C24.8087 21.7778 24.7878 21.7945 24.767 21.8112L21.0145 17.1295C21.0409 17.1083 21.0672 17.0873 21.0937 17.0662L24.8297 21.7612ZM47.8201 18.5282C42.2166 16.2072 35.9207 16.2072 30.3172 18.5282L28.0211 12.9849C35.0947 10.0549 43.0426 10.0549 50.1162 12.9849L47.8201 18.5282ZM60.1965 30.9046C57.8755 25.3012 53.4236 20.8492 47.8201 18.5282L50.1162 12.9849C57.1898 15.9149 62.8098 21.5349 65.7398 28.6085L60.1965 30.9046ZM60.1965 48.4075C62.5175 42.8041 62.5175 36.5081 60.1965 30.9046L65.7398 28.6085C68.6698 35.6822 68.6698 43.63 65.7398 50.7036L60.1965 48.4075ZM47.8201 60.7839C53.4236 58.4629 57.8755 54.011 60.1965 48.4075L65.7398 50.7036C62.8098 57.7772 57.1898 63.3972 50.1162 66.3272L47.8201 60.7839ZM30.3172 60.7839C35.9207 63.105 42.2166 63.105 47.8201 60.7839L50.1162 66.3272C43.0426 69.2572 35.0947 69.2572 28.0211 66.3272L30.3172 60.7839ZM28.0211 66.3272C27.255 66.0099 26.5059 65.661 25.7753 65.282L28.538 59.9559C29.1167 60.256 29.7101 60.5325 30.3172 60.7839L28.0211 66.3272Z" fill="currentColor" />
  <path d="M29.3364 25.916L17.4517 14.0312C16.2523 12.8319 14.2017 13.6813 14.2017 15.3774L14.2017 27.166C14.2017 28.2706 15.0971 29.166 16.2017 29.166L27.9903 29.166C29.6864 29.166 30.5358 27.1154 29.3364 25.916Z" fill="currentColor" stroke="currentColor" stroke-width="6" stroke-linecap="round" stroke-linejoin="round" />
  <path d="M47.0682 32.2131C48.075 30.8972 47.8244 29.0143 46.5085 28.0075C45.1926 27.0007 43.3097 27.2513 42.3029 28.5672L47.0682 32.2131ZM37.442 34.9205C36.4353 36.2364 36.6858 38.1192 38.0017 39.126C39.3176 40.1328 41.2005 39.8822 42.2073 38.5663L37.442 34.9205ZM50.4245 49.6423C51.8646 50.4615 53.6962 49.9582 54.5155 48.5181C55.3348 47.078 54.8315 45.2464 53.3913 44.4271L50.4245 49.6423ZM42.0935 37.9999C40.6533 37.1806 38.8217 37.684 38.0025 39.1241C37.1832 40.5642 37.6865 42.3958 39.1266 43.2151L42.0935 37.9999ZM38.001 39.1256V33.1256C34.6873 33.1256 32.001 35.8119 32.001 39.1256H38.001ZM38.001 39.1256H32.001C32.001 42.4394 34.6873 45.1256 38.001 45.1256V39.1256ZM38.001 39.1256V45.1256C41.3147 45.1256 44.001 42.4394 44.001 39.1256H38.001ZM38.001 39.1256H44.001C44.001 35.8119 41.3147 33.1256 38.001 33.1256V39.1256ZM42.3029 28.5672L37.442 34.9205L42.2073 38.5663L47.0682 32.2131L42.3029 28.5672ZM53.3913 44.4271L42.0935 37.9999L39.1266 43.2151L50.4245 49.6423L53.3913 44.4271Z" fill="currentColor" />
</svg>