<svg viewBox="0 0 80 80" fill="none">
  <path d="M29.1692 15.7567L30.3172 18.5283L30.3172 18.5283L29.1692 15.7567ZM24.8417 21.7517C23.5445 22.7825 21.6573 22.5666 20.6265 21.2695C19.5957 19.9723 19.8116 18.0851 21.1088 17.0543L24.8417 21.7517ZM21.0937 17.0664C22.3901 16.0347 24.2774 16.2494 25.3091 17.5458C26.3408 18.8423 26.1261 20.7296 24.8297 21.7613L21.0937 17.0664ZM24.767 21.8114C23.4741 22.8476 21.5861 22.6395 20.5499 21.3467C19.5136 20.0539 19.7217 18.1658 21.0145 17.1296L24.767 21.8114ZM48.9681 15.7567L47.8201 18.5283L48.9681 15.7567ZM62.9681 29.7567L65.7398 28.6086L65.7398 28.6087L62.9681 29.7567ZM62.9681 49.5557L65.7398 50.7037L65.7398 50.7037L62.9681 49.5557ZM48.9681 63.5557L50.1162 66.3273L48.9681 63.5557ZM29.1692 63.5557L28.0211 66.3273L29.1692 63.5557ZM25.7753 65.2821C24.3046 64.5193 23.7307 62.7085 24.4936 61.2378C25.2565 59.767 27.0672 59.1931 28.538 59.956L25.7753 65.2821ZM30.3172 18.5283C28.333 19.3502 26.4934 20.4391 24.8417 21.7517L21.1088 17.0543C23.1941 15.3972 25.5166 14.0225 28.0211 12.9851L30.3172 18.5283ZM24.8297 21.7613C24.8087 21.7779 24.7878 21.7946 24.767 21.8114L21.0145 17.1296C21.0409 17.1085 21.0672 17.0874 21.0937 17.0664L24.8297 21.7613ZM47.8201 18.5283C42.2166 16.2073 35.9207 16.2073 30.3172 18.5283L28.0211 12.9851C35.0947 10.0551 43.0426 10.0551 50.1162 12.9851L47.8201 18.5283ZM60.1965 30.9048C57.8755 25.3013 53.4236 20.8494 47.8201 18.5283L50.1162 12.9851C57.1898 15.9151 62.8098 21.535 65.7398 28.6086L60.1965 30.9048ZM60.1965 48.4076C62.5175 42.8042 62.5175 36.5082 60.1965 30.9047L65.7398 28.6087C68.6698 35.6823 68.6698 43.6301 65.7398 50.7037L60.1965 48.4076ZM47.8201 60.784C53.4236 58.463 57.8755 54.0111 60.1965 48.4076L65.7398 50.7037C62.8098 57.7774 57.1898 63.3973 50.1162 66.3273L47.8201 60.784ZM30.3172 60.784C35.9207 63.1051 42.2166 63.1051 47.8201 60.784L50.1162 66.3273C43.0426 69.2573 35.0947 69.2573 28.0211 66.3273L30.3172 60.784ZM28.0211 66.3273C27.255 66.01 26.5059 65.6611 25.7753 65.2821L28.538 59.956C29.1167 60.2562 29.7101 60.5326 30.3172 60.784L28.0211 66.3273Z" fill="currentColor" />
  <path d="M29.3364 25.9161L17.4517 14.0314C16.2523 12.832 14.2017 13.6815 14.2017 15.3776L14.2017 26.1661C14.2017 27.823 15.5448 29.1661 17.2017 29.1661L27.9903 29.1661C29.6864 29.1661 30.5358 27.1155 29.3364 25.9161Z" fill="currentColor" stroke="currentColor" stroke-width="6" stroke-linecap="round" stroke-linejoin="round" />
  <path d="M47.0682 32.213C48.075 30.8971 47.8244 29.0142 46.5085 28.0074C45.1926 27.0006 43.3097 27.2512 42.3029 28.5671L47.0682 32.213ZM37.442 34.9203C36.4353 36.2362 36.6858 38.1191 38.0017 39.1259C39.3176 40.1327 41.2005 39.8821 42.2073 38.5662L37.442 34.9203ZM50.4245 49.6421C51.8646 50.4614 53.6962 49.9581 54.5155 48.518C55.3348 47.0778 54.8315 45.2462 53.3913 44.427L50.4245 49.6421ZM42.0935 37.9998C40.6533 37.1805 38.8217 37.6838 38.0025 39.124C37.1832 40.5641 37.6865 42.3957 39.1266 43.215L42.0935 37.9998ZM38.001 39.1255V33.1255C34.6873 33.1255 32.001 35.8118 32.001 39.1255H38.001ZM38.001 39.1255H32.001C32.001 42.4392 34.6873 45.1255 38.001 45.1255V39.1255ZM38.001 39.1255V45.1255C41.3147 45.1255 44.001 42.4392 44.001 39.1255H38.001ZM38.001 39.1255H44.001C44.001 35.8118 41.3147 33.1255 38.001 33.1255V39.1255ZM42.3029 28.5671L37.442 34.9203L42.2073 38.5662L47.0682 32.213L42.3029 28.5671ZM53.3913 44.427L42.0935 37.9998L39.1266 43.215L50.4245 49.6421L53.3913 44.427Z" fill="currentColor" />
</svg>