<svg viewBox="0 0 80 80" fill="none">
  <path fill-rule="evenodd" clip-rule="evenodd" d="M34.8038 40.0002C33.5289 39.4906 32.3125 38.7861 31.1995 37.8865L27.879 35.2026C24.5906 32.5446 22.6797 28.5428 22.6797 24.3146V17L57.3207 17V24.3146C57.3207 28.5428 55.4097 32.5446 52.1214 35.2026L48.8009 37.8865C47.6881 38.7859 46.472 39.4903 45.1973 39.9998C46.4723 40.5094 47.6887 41.2139 48.8016 42.1135L52.1221 44.7974C55.4105 47.4554 57.3215 51.4572 57.3215 55.6854V63L22.6805 63V55.6854C22.6805 51.4572 24.5914 47.4554 27.8798 44.7974L31.2003 42.1135C32.313 41.2141 33.5291 40.5097 34.8038 40.0002Z" fill="currentColor" />
  <path d="M31.1995 37.8865L29.3137 40.2197H29.3137L31.1995 37.8865ZM34.8038 40.0002L35.9173 42.7859C37.0567 42.3305 37.8039 41.2271 37.8038 40.0001C37.8038 38.773 37.0565 37.6697 35.9171 37.2144L34.8038 40.0002ZM27.879 35.2026L29.7649 32.8694L27.879 35.2026ZM22.6797 17V14C21.0228 14 19.6797 15.3431 19.6797 17H22.6797ZM57.3207 17H60.3207C60.3207 15.3431 58.9776 14 57.3207 14V17ZM52.1214 35.2026L54.0072 37.5357L54.0072 37.5357L52.1214 35.2026ZM48.8009 37.8865L46.915 35.5534V35.5534L48.8009 37.8865ZM45.1973 39.9998L44.0839 37.2141C42.9445 37.6695 42.1973 38.7729 42.1973 39.9999C42.1974 41.227 42.9446 42.3303 44.0841 42.7856L45.1973 39.9998ZM48.8016 42.1135L50.6875 39.7803L48.8016 42.1135ZM52.1221 44.7974L54.008 42.4643L54.008 42.4643L52.1221 44.7974ZM57.3215 63V66C58.9783 66 60.3215 64.6569 60.3215 63H57.3215ZM22.6805 63H19.6805C19.6805 64.6569 21.0236 66 22.6805 66V63ZM27.8798 44.7974L29.7657 47.1306L27.8798 44.7974ZM31.2003 42.1135L29.3145 39.7803H29.3145L31.2003 42.1135ZM61 20C62.6569 20 64 18.6569 64 17C64 15.3431 62.6569 14 61 14V20ZM19 14C17.3431 14 16 15.3431 16 17C16 18.6569 17.3431 20 19 20V14ZM61 66C62.6569 66 64 64.6569 64 63C64 61.3431 62.6569 60 61 60V66ZM57.3215 60C55.6646 60 54.3215 61.3431 54.3215 63C54.3215 64.6569 55.6646 66 57.3215 66V60ZM22.6805 66C24.3373 66 25.6805 64.6569 25.6805 63C25.6805 61.3431 24.3373 60 22.6805 60V66ZM19 60C17.3431 60 16 61.3431 16 63C16 64.6569 17.3431 66 19 66V60ZM29.3137 40.2197C30.6631 41.3103 32.1405 42.1665 33.6905 42.7859L35.9171 37.2144C34.9172 36.8148 33.9619 36.2618 33.0854 35.5534L29.3137 40.2197ZM25.9932 37.5357L29.3137 40.2197L33.0854 35.5534L29.7649 32.8694L25.9932 37.5357ZM19.6797 24.3146C19.6797 29.4489 22.0001 34.3082 25.9932 37.5357L29.7649 32.8694C27.1812 30.781 25.6797 27.6368 25.6797 24.3146H19.6797ZM19.6797 17V24.3146H25.6797V17H19.6797ZM57.3207 14L22.6797 14V20L57.3207 20V14ZM60.3207 24.3146V17H54.3207V24.3146H60.3207ZM54.0072 37.5357C58.0003 34.3082 60.3207 29.4489 60.3207 24.3146H54.3207C54.3207 27.6368 52.8192 30.781 50.2355 32.8694L54.0072 37.5357ZM50.6867 40.2197L54.0072 37.5357L50.2355 32.8694L46.915 35.5534L50.6867 40.2197ZM46.3108 42.7856C47.8605 42.1661 49.3376 41.3101 50.6867 40.2197L46.915 35.5534C46.0387 36.2617 45.0835 36.8146 44.0839 37.2141L46.3108 42.7856ZM50.6875 39.7803C49.3381 38.6897 47.8607 37.8335 46.3106 37.2141L44.0841 42.7856C45.0839 43.1852 46.0393 43.7382 46.9158 44.4466L50.6875 39.7803ZM54.008 42.4643L50.6875 39.7803L46.9158 44.4466L50.2363 47.1306L54.008 42.4643ZM60.3215 55.6854C60.3215 50.5511 58.001 45.6918 54.008 42.4643L50.2363 47.1306C52.82 49.219 54.3215 52.3632 54.3215 55.6854H60.3215ZM60.3215 63V55.6854H54.3215V63H60.3215ZM22.6805 66H57.3215V60L22.6805 60V66ZM19.6805 55.6854V63H25.6805V55.6854H19.6805ZM25.994 42.4643C22.0009 45.6918 19.6805 50.5511 19.6805 55.6854H25.6805C25.6805 52.3632 27.1819 49.219 29.7657 47.1306L25.994 42.4643ZM29.3145 39.7803L25.994 42.4643L29.7657 47.1306L33.0862 44.4466L29.3145 39.7803ZM33.6904 37.2144C32.1406 37.8339 30.6636 38.6899 29.3145 39.7803L33.0862 44.4466C33.9625 43.7383 34.9176 43.1854 35.9173 42.7859L33.6904 37.2144ZM61 14L19 14V20L61 20V14ZM61 60H57.3215V66H61V60ZM22.6805 60H19V66H22.6805V60Z" fill="currentColor" />
</svg>