<svg viewBox="0 0 80 80" fill="none">
  <path fill-rule="evenodd" clip-rule="evenodd" d="M55.2926 34.568C57.524 32.7644 58.8207 30.0489 58.8207 27.1798V20H61C62.6569 20 64 18.6569 64 17C64 15.3431 62.6569 14 61 14H19C17.3431 14 16 15.3431 16 17C16 18.6569 17.3431 20 19 20H21.1797V27.1798C21.1797 30.0489 22.4764 32.7644 24.7078 34.568L31.4285 40.0003L24.7086 45.432C22.4772 47.2356 21.1805 49.9511 21.1805 52.8202V60H19C17.3431 60 16 61.3431 16 63C16 64.6569 17.3431 66 19 66H61C62.6569 66 64 64.6569 64 63C64 61.3431 62.6569 60 61 60H58.8215V52.8202C58.8215 49.9511 57.5248 47.2356 55.2934 45.432L48.5727 39.9997L55.2926 34.568ZM29.1147 29.0196C29.3882 29.3501 29.6961 29.6554 30.0357 29.9298L37.9425 36.3209C38.2949 36.6057 38.4996 37.0344 38.4996 37.4874L38.4996 51C38.4996 51.3978 38.3416 51.7794 38.0603 52.0607C37.779 52.342 37.3974 52.5 36.9996 52.5H28.1754C27.8146 53.3172 27.6217 54.2098 27.6217 55.1253V58.1289H52.3783V55.1253C52.3783 54.2098 52.1854 53.3172 51.8246 52.5H42.9996C42.1712 52.5 41.4996 51.8284 41.4996 51V37.4881C41.4996 37.0351 41.7044 36.6063 42.0567 36.3215L49.9644 29.9298C50.3039 29.6554 50.6118 29.3501 50.8854 29.0196H29.1147Z" fill="currentColor" />
</svg>