<svg viewBox="0 0 80 80" fill="none">
  <path fill-rule="evenodd" clip-rule="evenodd" d="M60 63.5C60.8285 63.5 61.5 62.8284 61.5 62V39.0419L65.626 42.3426C66.9198 43.3776 68.8076 43.1679 69.8427 41.8741C70.8777 40.5803 70.6679 38.6924 69.3741 37.6574L56.5 27.3581V20C56.5 18.6193 55.3808 17.5 54 17.5H50C48.6193 17.5 47.5 18.6193 47.5 20V20.1581L41.8741 15.6574C40.7785 14.7809 39.2216 14.7809 38.126 15.6574L10.626 37.6574C9.33218 38.6924 9.12241 40.5803 10.1574 41.8741C11.1925 43.1679 13.0803 43.3776 14.3741 42.3426L18.5 39.0419V62C18.5 62.8284 19.1716 63.5 20 63.5H60ZM40 33.1227L39.1512 34.9107C38.4681 36.3496 37.6787 37.7357 36.7896 39.0573L34.3584 42.6715C33.3257 44.2065 33.1442 46.1612 33.8765 47.8602C34.4472 49.1842 35.5202 50.2274 36.8597 50.7606L37.4353 50.9896C39.0823 51.6452 40.9178 51.6452 42.5648 50.9896L43.1404 50.7606C44.4799 50.2274 45.5529 49.1842 46.1236 47.8602C46.8559 46.1612 46.6744 44.2065 45.6417 42.6715L43.2105 39.0573C42.3214 37.7357 41.532 36.3496 40.8489 34.9107L40 33.1227Z" fill="currentColor" />
</svg>