<svg viewBox="0 0 80 80" fill="none">
  <path fill-rule="evenodd" clip-rule="evenodd" d="M60 30L40 14L20 30L20 48.3589C20.9238 48.6854 21.8167 49.1287 22.6566 49.6886L23.1096 49.9906L23.5626 50.2926C26.2498 52.0841 29.7506 52.0841 32.4378 50.2926L33.3438 49.6886C37.3745 47.0014 42.6258 47.0014 46.6566 49.6886L47.1096 49.9906L47.5626 50.2926C50.2498 52.0841 53.7506 52.0841 56.4378 50.2926L57.3438 49.6886C58.1836 49.1288 59.0763 48.6855 60 48.359L60 30ZM48 44V28L32 28L32 44H48Z" fill="currentColor" />
  <path d="M40 14L41.8741 11.6574C40.7784 10.7809 39.2216 10.7809 38.1259 11.6574L40 14ZM60 30H63C63 29.0886 62.5857 28.2267 61.8741 27.6574L60 30ZM20 30L18.1259 27.6574C17.4143 28.2267 17 29.0886 17 30H20ZM20 48.3589H17C17 49.6302 17.8014 50.7635 19.0001 51.1873L20 48.3589ZM23.1096 49.9906L24.7737 47.4945L24.7737 47.4945L23.1096 49.9906ZM23.5626 50.2926L21.8985 52.7888L21.8985 52.7888L23.5626 50.2926ZM32.4378 50.2926L34.1019 52.7888H34.1019L32.4378 50.2926ZM33.3438 49.6886L31.6797 47.1925H31.6797L33.3438 49.6886ZM46.6566 49.6886L48.3207 47.1925L48.3207 47.1925L46.6566 49.6886ZM47.1096 49.9906L45.4455 52.4868L45.4455 52.4868L47.1096 49.9906ZM47.5626 50.2926L49.2267 47.7965L49.2267 47.7965L47.5626 50.2926ZM56.4378 50.2926L58.1019 52.7888L58.1019 52.7888L56.4378 50.2926ZM57.3438 49.6886L55.6797 47.1925L55.6796 47.1925L57.3438 49.6886ZM60 48.359L61 51.1874C62.1986 50.7636 63 49.6303 63 48.359H60ZM48 28H51C51 26.3431 49.6569 25 48 25V28ZM48 44V47C49.6569 47 51 45.6569 51 44H48ZM32 28V25C30.3431 25 29 26.3431 29 28H32ZM32 44H29C29 45.6569 30.3431 47 32 47V44ZM38.1259 16.3426L58.1259 32.3426L61.8741 27.6574L41.8741 11.6574L38.1259 16.3426ZM21.8741 32.3426L41.8741 16.3426L38.1259 11.6574L18.1259 27.6574L21.8741 32.3426ZM23 48.3589L23 30H17L17 48.3589H23ZM24.3207 47.1925C23.2718 46.4933 22.1556 45.939 20.9999 45.5304L19.0001 51.1873C19.692 51.4319 20.3615 51.7641 20.9925 52.1848L24.3207 47.1925ZM24.7737 47.4945L24.3207 47.1925L20.9925 52.1848L21.4455 52.4868L24.7737 47.4945ZM25.2267 47.7965L24.7737 47.4945L21.4455 52.4868L21.8985 52.7888L25.2267 47.7965ZM30.7737 47.7965C29.0942 48.9161 26.9062 48.9161 25.2267 47.7965L21.8985 52.7888C25.5934 55.252 30.407 55.252 34.1019 52.7888L30.7737 47.7965ZM31.6797 47.1925L30.7737 47.7965L34.1019 52.7888L35.0079 52.1848L31.6797 47.1925ZM48.3207 47.1925C43.2822 43.8335 36.7181 43.8335 31.6797 47.1925L35.0079 52.1848C38.031 50.1694 41.9694 50.1694 44.9925 52.1848L48.3207 47.1925ZM48.7737 47.4945L48.3207 47.1925L44.9925 52.1848L45.4455 52.4868L48.7737 47.4945ZM49.2267 47.7965L48.7737 47.4945L45.4455 52.4868L45.8985 52.7888L49.2267 47.7965ZM54.7737 47.7965C53.0942 48.9161 50.9062 48.9161 49.2267 47.7965L45.8985 52.7888C49.5934 55.252 54.407 55.252 58.1019 52.7888L54.7737 47.7965ZM55.6796 47.1925L54.7737 47.7965L58.1019 52.7888L59.0079 52.1848L55.6796 47.1925ZM59 45.5305C57.8445 45.9391 56.7283 46.4934 55.6797 47.1925L59.0079 52.1848C59.6388 51.7642 60.3082 51.432 61 51.1874L59 45.5305ZM57 30L57 48.359H63L63 30H57ZM45 28V44H51V28L45 28ZM32 31H48V25L32 25L32 31ZM35 44L35 28H29L29 44H35ZM48 41H32L32 47L48 47V41Z" fill="currentColor" />
  <path d="M67.5 36L64.5 33.6L40 14L15.5 33.6L12.5 36" stroke="currentColor" stroke-width="6" stroke-linecap="round" stroke-linejoin="round" />
  <path fill-rule="evenodd" clip-rule="evenodd" d="M55 26V15L49 15V21.2L55 26Z" fill="currentColor" />
  <path d="M55 15H57C57 13.8954 56.1046 13 55 13V15ZM55 26L53.7506 27.5617C54.3509 28.042 55.1734 28.1356 55.8664 27.8026C56.5593 27.4696 57 26.7688 57 26H55ZM49 15V13C47.8954 13 47 13.8954 47 15H49ZM49 21.2H47C47 21.8076 47.2762 22.3822 47.7506 22.7617L49 21.2ZM53 15V26H57V15L53 15ZM49 17H55V13H49V17ZM51 21.2V15H47V21.2H51ZM47.7506 22.7617L53.7506 27.5617L56.2494 24.4383L50.2494 19.6383L47.7506 22.7617Z" fill="currentColor" />
  <path d="M10.4532 57.6985L11.8399 59.7787L11.8399 59.7787L10.4532 57.6985ZM9.54716 58.3025L8.16041 56.2224L8.16041 56.2224L9.54716 58.3025ZM22.0002 58.0005L23.3869 55.9204L23.3869 55.9204L22.0002 58.0005ZM21.5472 57.6985L20.1604 59.7787L20.1604 59.7787L21.5472 57.6985ZM6.62495 57.0082C5.33158 57.4915 4.67487 58.9318 5.15814 60.2251C5.64142 61.5185 7.08167 62.1752 8.37505 61.692L6.62495 57.0082ZM34.4532 57.6985L33.0664 55.6184V55.6184L34.4532 57.6985ZM33.5472 58.3025L32.1604 56.2224V56.2224L33.5472 58.3025ZM22.4532 58.3025L21.0664 60.3827L21.0664 60.3827L22.4532 58.3025ZM45.5472 57.6985L44.1604 59.7787V59.7787L45.5472 57.6985ZM58.4532 57.6985L57.0664 55.6184L57.0664 55.6184L58.4532 57.6985ZM57.5472 58.3025L58.9339 60.3827L58.9339 60.3827L57.5472 58.3025ZM46.4532 58.3025L47.8399 56.2224V56.2224L46.4532 58.3025ZM69.5472 57.6985L68.1604 59.7787V59.7787L69.5472 57.6985ZM70.4532 58.3025L71.8399 56.2224V56.2224L70.4532 58.3025ZM71.6249 61.6918C72.9182 62.1751 74.3585 61.5185 74.8418 60.2251C75.3251 58.9317 74.6685 57.4915 73.3751 57.0082L71.6249 61.6918ZM9.06641 55.6184L8.16041 56.2224L10.9339 60.3827L11.8399 59.7787L9.06641 55.6184ZM23.3869 55.9204L22.9339 55.6184L20.1604 59.7787L20.6134 60.0807L23.3869 55.9204ZM11.8399 59.7787C14.3592 58.0992 17.6412 58.0992 20.1604 59.7787L22.9339 55.6184C18.7352 52.8193 13.2651 52.8193 9.06641 55.6184L11.8399 59.7787ZM8.16041 56.2224C7.67259 56.5476 7.15721 56.8094 6.62495 57.0082L8.37505 61.692C9.26397 61.3598 10.1232 60.9232 10.9339 60.3827L8.16041 56.2224ZM33.0664 55.6184L32.1604 56.2224L34.9339 60.3827L35.8399 59.7787L33.0664 55.6184ZM23.8399 56.2224L23.3869 55.9204L20.6134 60.0807L21.0664 60.3827L23.8399 56.2224ZM47.3869 55.9204L46.9339 55.6184L44.1604 59.7787L44.6134 60.0807L47.3869 55.9204ZM35.8399 59.7787C38.3592 58.0992 41.6412 58.0992 44.1604 59.7787L46.9339 55.6184C42.7352 52.8193 37.2652 52.8193 33.0664 55.6184L35.8399 59.7787ZM32.1604 56.2224C29.6412 57.9019 26.3592 57.9019 23.8399 56.2224L21.0664 60.3827C25.2652 63.1818 30.7352 63.1818 34.9339 60.3827L32.1604 56.2224ZM57.0664 55.6184L56.1604 56.2224L58.9339 60.3827L59.8399 59.7787L57.0664 55.6184ZM47.8399 56.2224L47.3869 55.9204L44.6134 60.0807L45.0664 60.3827L47.8399 56.2224ZM71.3869 55.9204L70.9339 55.6184L68.1604 59.7787L68.6134 60.0807L71.3869 55.9204ZM59.8399 59.7787C62.3592 58.0992 65.6412 58.0992 68.1604 59.7787L70.9339 55.6184C66.7352 52.8193 61.2652 52.8193 57.0664 55.6184L59.8399 59.7787ZM56.1604 56.2224C53.6412 57.9019 50.3592 57.9019 47.8399 56.2224L45.0664 60.3827C49.2652 63.1818 54.7352 63.1818 58.9339 60.3827L56.1604 56.2224ZM71.8399 56.2224L71.3869 55.9204L68.6134 60.0807L69.0664 60.3827L71.8399 56.2224ZM73.3751 57.0082C72.8429 56.8093 72.3277 56.5476 71.8399 56.2224L69.0664 60.3827C69.877 60.9231 70.7361 61.3597 71.6249 61.6918L73.3751 57.0082Z" fill="currentColor" />
  <path d="M22.0002 65.7701L23.3869 63.6899L23.3869 63.6899L22.0002 65.7701ZM21.5472 65.4681L20.1604 67.5482L20.1604 67.5482L21.5472 65.4681ZM20.375 62.0787C19.0817 61.5954 17.6414 62.2521 17.1581 63.5455C16.6749 64.8388 17.3316 66.2791 18.625 66.7624L20.375 62.0787ZM34.4532 65.4681L35.8399 67.5482V67.5482L34.4532 65.4681ZM33.5472 66.0721L32.1604 63.9919L32.1604 63.9919L33.5472 66.0721ZM22.4532 66.0721L21.0664 68.1522L21.0664 68.1522L22.4532 66.0721ZM45.5472 65.4681L44.1604 67.5482L44.1604 67.5482L45.5472 65.4681ZM58.4532 65.4681L59.8399 67.5482L59.8399 67.5482L58.4532 65.4681ZM57.5472 66.0721L56.1604 63.9919V63.9919L57.5472 66.0721ZM46.4532 66.0721L47.8399 63.9919L47.8399 63.9919L46.4532 66.0721ZM61.3751 66.7625C62.6685 66.2791 63.3251 64.8389 62.8418 63.5455C62.3585 62.2522 60.9182 61.5955 59.6249 62.0788L61.3751 66.7625ZM23.3869 63.6899L22.9339 63.3879L20.1604 67.5482L20.6134 67.8502L23.3869 63.6899ZM18.625 66.7624C19.1572 66.9613 19.6726 67.223 20.1604 67.5482L22.9339 63.3879C22.1232 62.8474 21.264 62.4108 20.375 62.0787L18.625 66.7624ZM33.0664 63.3879L32.1604 63.9919L34.9339 68.1522L35.8399 67.5482L33.0664 63.3879ZM23.8399 63.9919L23.3869 63.6899L20.6134 67.8502L21.0664 68.1522L23.8399 63.9919ZM47.3869 63.6899L46.9339 63.3879L44.1604 67.5482L44.6134 67.8502L47.3869 63.6899ZM35.8399 67.5482C38.3592 65.8687 41.6412 65.8687 44.1604 67.5482L46.9339 63.3879C42.7352 60.5888 37.2652 60.5888 33.0664 63.3879L35.8399 67.5482ZM32.1604 63.9919C29.6412 65.6714 26.3592 65.6714 23.8399 63.9919L21.0664 68.1522C25.2652 70.9514 30.7352 70.9514 34.9339 68.1522L32.1604 63.9919ZM57.0664 63.3879L56.1604 63.9919L58.9339 68.1522L59.8399 67.5482L57.0664 63.3879ZM47.8399 63.9919L47.3869 63.6899L44.6134 67.8502L45.0664 68.1522L47.8399 63.9919ZM59.8399 67.5482C60.3277 67.223 60.8429 66.9613 61.3751 66.7625L59.6249 62.0788C58.7361 62.4109 57.877 62.8475 57.0664 63.3879L59.8399 67.5482ZM56.1604 63.9919C53.6412 65.6714 50.3592 65.6714 47.8399 63.9919L45.0664 68.1522C49.2652 70.9514 54.7352 70.9514 58.9339 68.1522L56.1604 63.9919Z" fill="currentColor" />
</svg>