<svg viewBox="0 0 80 80" fill="none">
  <path d="M58 61.6248H42.996C42.8555 61.6248 42.7443 61.5092 42.709 61.3732L40.7041 53.661C40.6616 53.4974 40.7851 53.3376 40.9542 53.3376H46.6897C47.4376 53.3376 47.9208 52.5467 47.5795 51.8813L38.8119 34.7858C38.6461 34.4625 38.1551 34.6373 38.2309 34.9927L40.6746 46.4536C40.8073 47.0759 40.3328 47.6622 39.6966 47.6622H33.075C32.4659 47.6622 31.9983 48.2019 32.0852 48.8047L33.6027 59.3396C33.7764 60.5452 32.8412 61.6248 31.6232 61.6248H22C20.8955 61.6248 20 60.7294 20 59.6248V37.475L16.3141 40.3618C15.0097 41.3834 13.1241 41.1542 12.1025 39.8498C11.0809 38.5454 11.3101 36.6598 12.6145 35.6382L38.1502 15.6382C39.2366 14.7873 40.7634 14.7873 41.8498 15.6382L46.879 19.5771C47.0414 18.3533 48.089 17.4091 49.3572 17.4091H52.9286C54.3093 17.4091 55.4286 18.5284 55.4286 19.9091V26.2733L67.3855 35.6382C68.6899 36.6598 68.9192 38.5454 67.8975 39.8498C66.8759 41.1542 64.9903 41.3834 63.6859 40.3618L60 37.475V59.6248C60 60.7294 59.1046 61.6248 58 61.6248Z" fill="currentColor" />
</svg>