<svg viewBox="0 0 80 80" fill="none">
  <path fill-rule="evenodd" clip-rule="evenodd" d="M58.2028 10.0085C59.014 9.89912 59.8346 10.1259 60.4744 10.6364L70.9617 19.0023C71.6259 19.5321 72.0342 20.3186 72.0855 21.1666L74.9945 69.3192C75.0444 70.1447 74.7513 70.9542 74.1844 71.5564C73.6174 72.1586 72.8271 72.5001 72 72.5001H8.00001C7.17294 72.5001 6.38257 72.1586 5.81566 71.5564C5.24875 70.9542 4.95559 70.1447 5.00547 69.3192L7.91456 21.1666C7.96579 20.3186 8.37415 19.5321 9.03827 19.0023L19.5255 10.6364C20.1654 10.126 20.986 9.89915 21.7972 10.0085C33.8679 11.6358 46.1321 11.6358 58.2028 10.0085ZM22.2718 16.1209L13.8232 22.8605L11.1867 66.5001H68.8133L66.1769 22.8605L57.7282 16.1208C45.9636 17.5983 34.0364 17.5983 22.2718 16.1209Z" fill="currentColor" />
  <path d="M67.146 66.5001H12.8541L21.3932 49.4218C33.6086 52.4676 46.3914 52.4677 58.6068 49.4218L67.146 66.5001Z" fill="currentColor" />
  <path d="M11.8795 55.0328L17.2822 44.2275L18.4201 19.1935L13.8232 22.8605L11.8795 55.0328Z" fill="currentColor" />
  <path d="M68.1205 55.0328L62.7182 44.228L61.5802 19.1937L66.1769 22.8605L68.1205 55.0328Z" fill="currentColor" />
  <path d="M24.5538 16.3887C34.8155 17.5091 45.1848 17.5091 55.4465 16.3887L56.6886 43.7147C45.7234 46.37 34.2768 46.37 23.3117 43.7148L24.5538 16.3887Z" fill="currentColor" />
</svg>