<svg viewBox="0 0 80 80" fill="none">
  <path fill-rule="evenodd" clip-rule="evenodd" d="M49.4614 22.2559C49.4614 20.599 50.8046 19.2559 52.4614 19.2559H68.4614C70.1183 19.2559 71.4614 20.599 71.4614 22.2559C71.4614 23.9127 70.1183 25.2559 68.4614 25.2559H52.4614C50.8046 25.2559 49.4614 23.9127 49.4614 22.2559Z" fill="currentColor" />
  <path d="M39.6736 29.5935C40.1766 29.3779 40.7461 29.3779 41.2492 29.5935L64.172 39.4175C65.7883 40.1102 65.7883 42.4015 64.172 43.0941L41.2492 52.9182C40.7461 53.1338 40.1767 53.1338 39.6736 52.9182L16.7507 43.0941C15.1345 42.4015 15.1345 40.1102 16.7507 39.4175L39.6736 29.5935Z" fill="currentColor" />
  <path d="M20.8522 48.6598L16.7507 50.4175C15.1345 51.1102 15.1345 53.4015 16.7507 54.0941L39.6736 63.9182C40.1767 64.1338 40.7461 64.1338 41.2492 63.9182L64.172 54.0941C65.7883 53.4015 65.7883 51.1102 64.172 50.4175L60.0706 48.6598L42.628 56.1352C41.2445 56.7281 39.6784 56.7281 38.2949 56.1352L20.8522 48.6598Z" fill="currentColor" />
</svg>