<svg viewBox="0 0 80 80" fill="none">
  <path fill-rule="evenodd" clip-rule="evenodd" d="M23 20C14.7157 20 8 26.7157 8 35V59.9425C8 59.9742 8.02576 60 8.05754 60H37.9504C37.9778 60 38 59.9778 38 59.9504V35C38 26.7157 31.2843 20 23 20ZM18 32C16.8954 32 16 32.8954 16 34C16 35.1046 16.8954 36 18 36H26C27.1046 36 28 35.1046 28 34C28 32.8954 27.1046 32 26 32H18Z" fill="currentColor" />
  <path d="M59 36V42C59 43.1046 59.8954 44 61 44C62.1046 44 63 43.1046 63 42V36H59Z" fill="currentColor" />
  <path fill-rule="evenodd" clip-rule="evenodd" d="M71.9505 60H40.9996C40.9999 59.9835 41 59.967 41 59.9504V35C41 28.7391 37.8035 23.2248 32.9534 20H56C64.8366 20 72 27.1634 72 36V59.9504C72 59.9778 71.9778 60 71.9505 60ZM44 34C44 32.8954 44.8954 32 46 32H64C65.6569 32 67 33.3431 67 35V42C67 45.3137 64.3137 48 61 48C57.6863 48 55 45.3137 55 42V36H46C44.8954 36 44 35.1046 44 34Z" fill="currentColor" />
</svg>