<svg viewBox="0 0 80 80" fill="none">
  <path fill-rule="evenodd" clip-rule="evenodd" d="M49.5704 16.5675C43.5172 13.6787 36.483 13.6787 30.4298 16.5675C24.3162 19.4852 19.8652 25.0426 18.3449 31.6439C16.8607 38.088 18.3158 44.8684 22.32 50.131L24.3074 52.743C25.2695 54.0075 26.3376 55.1879 27.4999 56.2712L39.5064 67.4617C39.7718 67.7512 40.2283 67.7512 40.4938 67.4617L52.5003 56.2712C53.6626 55.1879 54.7306 54.0075 55.6928 52.743L57.6801 50.131C61.6843 44.8684 63.1395 38.088 61.6553 31.6439C60.1349 25.0426 55.6839 19.4852 49.5704 16.5675ZM44.2311 25.7389C41.554 24.4662 38.4462 24.4662 35.7691 25.7389L35.6752 25.7835C33.0192 27.0462 31.0849 29.4523 30.4224 32.3176C29.7547 35.2056 30.4675 38.2584 32.3302 40.5643C34.1783 42.8519 36.976 44.1994 39.9169 44.1994H40.0833C43.0242 44.1994 45.8219 42.8519 47.67 40.5643C49.5327 38.2584 50.2455 35.2056 49.5778 32.3176C48.9153 29.4523 46.981 27.0462 44.325 25.7835L44.2311 25.7389Z" fill="currentColor" />
</svg>