<svg viewBox="0 0 80 80" fill="none">
  <path fill-rule="evenodd" clip-rule="evenodd" d="M82.97 7.05025C85.7037 9.78392 85.7037 14.2161 82.97 16.9497L26.97 72.9497C24.2363 75.6834 19.8042 75.6834 17.0705 72.9497C14.3368 70.2161 14.3368 65.7839 17.0705 63.0503L73.0705 7.05025C75.8042 4.31658 80.2363 4.31658 82.97 7.05025Z" fill="currentColor" />
  <path d="M82.97 16.9497L83.3236 17.3033L83.3236 17.3033L82.97 16.9497ZM82.97 7.05025L83.3236 6.6967L83.3236 6.6967L82.97 7.05025ZM26.97 72.9497L27.3236 73.3033L27.3236 73.3033L26.97 72.9497ZM17.0705 72.9497L16.717 73.3033L16.717 73.3033L17.0705 72.9497ZM17.0705 63.0503L16.717 62.6967L16.717 62.6967L17.0705 63.0503ZM73.0705 7.05025L72.717 6.6967L72.717 6.6967L73.0705 7.05025ZM83.3236 17.3033C86.2525 14.3744 86.2525 9.62563 83.3236 6.6967L82.6165 7.40381C85.1549 9.94221 85.1549 14.0578 82.6165 16.5962L83.3236 17.3033ZM27.3236 73.3033L83.3236 17.3033L82.6165 16.5962L26.6165 72.5962L27.3236 73.3033ZM16.717 73.3033C19.6459 76.2322 24.3946 76.2322 27.3236 73.3033L26.6165 72.5962C24.078 75.1346 19.9625 75.1346 17.4241 72.5962L16.717 73.3033ZM16.717 62.6967C13.788 65.6256 13.788 70.3744 16.717 73.3033L17.4241 72.5962C14.8857 70.0578 14.8857 65.9422 17.4241 63.4038L16.717 62.6967ZM72.717 6.6967L16.717 62.6967L17.4241 63.4038L73.4241 7.40381L72.717 6.6967ZM83.3236 6.6967C80.3946 3.76777 75.6459 3.76777 72.717 6.6967L73.4241 7.40381C75.9625 4.8654 80.078 4.8654 82.6165 7.40381L83.3236 6.6967Z" fill="currentColor" />
  <path d="M68 12L12 68" stroke="currentColor" stroke-width="5" stroke-linecap="round" stroke-linejoin="round" />
</svg>