<svg viewBox="0 0 80 80" fill="none">
  <path fill-rule="evenodd" clip-rule="evenodd" d="M28.5 21C28.5 16.0294 32.5294 12 37.5 12C42.3028 12 46.2269 15.762 46.4863 20.5L37.5 20.5C36.1193 20.5 35 21.6193 35 23C35 24.3807 36.1193 25.5 37.5 25.5L46.5 25.5V27.5L37.5 27.5C36.1193 27.5 35 28.6193 35 30C35 31.3807 36.1193 32.5 37.5 32.5H46.5V34.5H37.5C36.1193 34.5 35 35.6193 35 37C35 38.3807 36.1193 39.5 37.5 39.5H46.4863C46.2269 44.238 42.3028 48 37.5 48C32.5294 48 28.5 43.9706 28.5 39L28.5 21ZM21.5 29C22.6046 29 23.5 29.8954 23.5 31V39C23.5 46.732 29.768 53 37.5 53C45.232 53 51.5 46.732 51.5 39V31C51.5 29.8954 52.3954 29 53.5 29C54.6046 29 55.5 29.8954 55.5 31L55.5 39C55.5 48.2651 48.4999 55.8953 39.5 56.8901V66H47.5C48.6046 66 49.5 66.8954 49.5 68C49.5 69.1046 48.6046 70 47.5 70H37.5H27.5C26.3954 70 25.5 69.1046 25.5 68C25.5 66.8954 26.3954 66 27.5 66H35.5V56.8901C26.5001 55.8953 19.5 48.2651 19.5 39V31C19.5 29.8954 20.3954 29 21.5 29Z" fill="currentColor" />
  <path d="M46.4863 20.5V21C46.6237 21 46.755 20.9435 46.8494 20.8438C46.9439 20.744 46.9931 20.6098 46.9856 20.4727L46.4863 20.5ZM46.5 25.5H47C47 25.2239 46.7761 25 46.5 25V25.5ZM46.5 27.5V28C46.7761 28 47 27.7761 47 27.5H46.5ZM46.5 32.5H47C47 32.2239 46.7761 32 46.5 32V32.5ZM46.5 34.5V35C46.7761 35 47 34.7761 47 34.5H46.5ZM46.4863 39.5L46.9856 39.5273C46.9931 39.3902 46.9439 39.256 46.8494 39.1562C46.755 39.0565 46.6237 39 46.4863 39V39.5ZM39.5 56.8901L39.4451 56.3932C39.1917 56.4212 39 56.6353 39 56.8901H39.5ZM39.5 66H39C39 66.2761 39.2239 66.5 39.5 66.5V66ZM35.5 66V66.5C35.7761 66.5 36 66.2761 36 66H35.5ZM35.5 56.8901H36C36 56.6353 35.8083 56.4212 35.5549 56.3932L35.5 56.8901ZM37.5 11.5C32.2533 11.5 28 15.7533 28 21H29C29 16.3056 32.8056 12.5 37.5 12.5V11.5ZM46.9856 20.4727C46.7117 15.471 42.5698 11.5 37.5 11.5V12.5C42.0358 12.5 45.7421 16.053 45.9871 20.5273L46.9856 20.4727ZM37.5 21L46.4863 21V20L37.5 20V21ZM35.5 23C35.5 21.8954 36.3954 21 37.5 21V20C35.8431 20 34.5 21.3431 34.5 23H35.5ZM37.5 25C36.3954 25 35.5 24.1046 35.5 23H34.5C34.5 24.6569 35.8431 26 37.5 26V25ZM46.5 25L37.5 25V26L46.5 26V25ZM47 27.5V25.5H46V27.5H47ZM37.5 28H46.5V27L37.5 27V28ZM35.5 30C35.5 28.8954 36.3954 28 37.5 28V27C35.8431 27 34.5 28.3431 34.5 30H35.5ZM37.5 32C36.3954 32 35.5 31.1046 35.5 30H34.5C34.5 31.6569 35.8431 33 37.5 33V32ZM46.5 32H37.5V33H46.5V32ZM47 34.5V32.5H46V34.5H47ZM37.5 35H46.5V34H37.5V35ZM35.5 37C35.5 35.8954 36.3954 35 37.5 35V34C35.8431 34 34.5 35.3431 34.5 37H35.5ZM37.5 39C36.3954 39 35.5 38.1046 35.5 37H34.5C34.5 38.6569 35.8431 40 37.5 40L37.5 39ZM46.4863 39H37.5L37.5 40H46.4863V39ZM37.5 48.5C42.5698 48.5 46.7117 44.529 46.9856 39.5273L45.9871 39.4727C45.7421 43.947 42.0358 47.5 37.5 47.5V48.5ZM28 39C28 44.2467 32.2533 48.5 37.5 48.5V47.5C32.8056 47.5 29 43.6944 29 39H28ZM28 21L28 39H29L29 21H28ZM24 31C24 29.6193 22.8807 28.5 21.5 28.5V29.5C22.3284 29.5 23 30.1716 23 31H24ZM24 39V31H23V39H24ZM37.5 52.5C30.0442 52.5 24 46.4558 24 39H23C23 47.0081 29.4919 53.5 37.5 53.5V52.5ZM51 39C51 46.4558 44.9558 52.5 37.5 52.5V53.5C45.5081 53.5 52 47.0081 52 39H51ZM51 31V39H52V31H51ZM53.5 28.5C52.1193 28.5 51 29.6193 51 31H52C52 30.1716 52.6716 29.5 53.5 29.5V28.5ZM56 31C56 29.6193 54.8807 28.5 53.5 28.5V29.5C54.3284 29.5 55 30.1716 55 31H56ZM56 39L56 31H55L55 39H56ZM39.5549 57.3871C48.8054 56.3645 56 48.5228 56 39H55C55 48.0074 48.1944 55.426 39.4451 56.3932L39.5549 57.3871ZM40 66V56.8901H39V66H40ZM47.5 65.5H39.5V66.5H47.5V65.5ZM50 68C50 66.6193 48.8807 65.5 47.5 65.5V66.5C48.3284 66.5 49 67.1716 49 68H50ZM47.5 70.5C48.8807 70.5 50 69.3807 50 68H49C49 68.8284 48.3284 69.5 47.5 69.5V70.5ZM37.5 70.5H47.5V69.5H37.5V70.5ZM27.5 70.5H37.5V69.5H27.5L27.5 70.5ZM25 68C25 69.3807 26.1193 70.5 27.5 70.5L27.5 69.5C26.6716 69.5 26 68.8284 26 68H25ZM27.5 65.5C26.1193 65.5 25 66.6193 25 68H26C26 67.1716 26.6716 66.5 27.5 66.5V65.5ZM35.5 65.5H27.5V66.5H35.5V65.5ZM35 56.8901V66H36V56.8901H35ZM19 39C19 48.5228 26.1946 56.3645 35.4451 57.3871L35.5549 56.3932C26.8056 55.426 20 48.0074 20 39H19ZM19 31V39H20V31H19ZM21.5 28.5C20.1193 28.5 19 29.6193 19 31H20C20 30.1716 20.6716 29.5 21.5 29.5V28.5Z" fill="currentColor" />
</svg>