<svg viewBox="0 0 80 80" fill="none">
  <path fill-rule="evenodd" clip-rule="evenodd" d="M52.9737 62.9794C52.2422 63.6338 51.293 63.9982 50.3064 63.9981L45.7143 63.9975L20.0003 63.9996C17.7911 63.9998 16 62.2089 16 59.9996L16 20C16 17.7908 17.7909 16 20 16L60 16C62.2091 16 64 17.7908 64 20V50.2832V50.3068C64 51.2736 63.65 52.2043 63.0202 52.9295C63.2849 52.5341 63.0095 51.9669 62.5 51.9669H56C53.7908 51.9669 52 53.7578 52 55.9669V62.4669C52 62.9813 52.5779 63.257 52.9737 62.9794Z" fill="currentColor" />
</svg>