<svg viewBox="0 0 80 80" fill="none">
  <path d="M27 16C27 14.3431 25.6569 13 24 13C22.3431 13 21 14.3431 21 16H27ZM21 64C21 65.6569 22.3431 67 24 67C25.6569 67 27 65.6569 27 64H21ZM27 39.5L27 16.5H21L21 39.5H27ZM24.5 37C25.8807 37 27 38.1193 27 39.5H21C21 41.433 22.567 43 24.5 43V37ZM44 37H24.5V43H44V37ZM53 28C53 32.9706 48.9706 37 44 37V43C52.2843 43 59 36.2843 59 28H53ZM44 19C48.9706 19 53 23.0294 53 28H59C59 19.7157 52.2843 13 44 13V19ZM24.5 19L44 19V13L24.5 13V19ZM27 16.5C27 17.8807 25.8807 19 24.5 19V13C22.567 13 21 14.567 21 16.5H27ZM21 16L21 64H27L27 16H21Z" fill="currentColor" />
</svg>