<svg viewBox="0 0 80 80" fill="none">
  <path fill-rule="evenodd" clip-rule="evenodd" d="M32.2872 32.9434C30.2948 34.6671 29.1744 37.3473 29.6046 40.1951L33.8899 68.5613C34.3623 71.6882 37.0497 74 40.2121 74C43.3741 74 46.0612 71.6888 46.5341 68.5624L50.8245 40.1964C51.2524 37.3673 50.1498 34.7033 48.182 32.9781C45.1044 35.4271 41.0367 36.3329 37.1686 35.3659C35.3532 34.912 33.6962 34.0746 32.2872 32.9434Z" fill="currentColor" />
  <path fill-rule="evenodd" clip-rule="evenodd" d="M47.2727 29.0525C47.2919 29.0335 47.3111 29.0145 47.3301 28.9954C50.5591 25.7664 51.7952 20.9994 50.5937 16.5938C49.3897 12.1792 45.8704 8.65984 41.4557 7.45584C39.4565 6.9106 37.3828 6.86734 35.4122 7.2845C35.6803 7.7731 35.895 8.29585 36.0488 8.84515L36.0933 9.00407C36.7851 11.475 36.0904 14.1269 34.2761 15.9413C34.2157 16.0017 34.1543 16.0608 34.0921 16.1188L34.0952 16.1218L33.7291 16.4879C31.4364 18.7806 30.5147 22.1082 31.3011 25.2538C32.1279 28.561 34.7102 31.1434 38.0175 31.9702C41.1631 32.7566 44.4906 31.8349 46.7834 29.5422L47.2247 29.1008C47.2408 29.0847 47.2568 29.0686 47.2727 29.0525Z" fill="currentColor" />
</svg>