<svg viewBox="0 0 80 80" fill="none">
  <path d="M27.7273 14.1348C27.7273 14.0896 27.7283 14.0447 27.7304 14H21C18.2386 14 16 16.2386 16 19V57C16 59.7614 18.2386 62 21 62H26V40.5718C26 38.1995 26.9366 35.9231 28.6062 34.2378L39.0755 23.6696C40.7655 21.9637 43.0671 21.0039 45.4683 21.0036L54 21.0027V19C54 16.2386 51.7614 14 49 14H42.2696C42.2717 14.0447 42.2727 14.0896 42.2727 14.1348C42.2727 15.7074 40.9979 16.9822 39.4253 16.9822H30.5747C29.0021 16.9822 27.7273 15.7074 27.7273 14.1348Z" fill="currentColor" />
  <path fill-rule="evenodd" clip-rule="evenodd" d="M21 15.5C19.067 15.5 17.5 17.067 17.5 19V57C17.5 58.933 19.067 60.5 21 60.5H24.5V40.5718C24.5 37.8041 25.5928 35.1483 27.5406 33.1821L38.0099 22.614C39.9815 20.6238 42.6667 19.504 45.4681 19.5036L52.5 19.5029V19C52.5 17.067 50.933 15.5 49 15.5H43.554C42.9816 17.2322 41.3494 18.4822 39.4253 18.4822H30.5747C28.6506 18.4822 27.0184 17.2322 26.446 15.5H21ZM14.5 19C14.5 15.4102 17.4101 12.5 21 12.5H27.7304C28.1403 12.5 28.5324 12.6678 28.8155 12.9643C29.0985 13.2609 29.2479 13.6603 29.2288 14.0698C29.2278 14.0912 29.2273 14.1129 29.2273 14.1348C29.2273 14.8789 29.8306 15.4822 30.5747 15.4822H39.4253C40.1695 15.4822 40.7727 14.8789 40.7727 14.1348C40.7727 14.1129 40.7722 14.0912 40.7712 14.0698C40.7521 13.6603 40.9015 13.2609 41.1845 12.9643C41.4676 12.6678 41.8597 12.5 42.2696 12.5H49C52.5899 12.5 55.5 15.4101 55.5 19V21.0027C55.5 21.8311 54.8285 22.5026 54.0002 22.5027L45.4685 22.5036C43.4674 22.5039 41.5494 23.3037 40.1412 24.7253L29.6718 35.2934C28.2805 36.6979 27.5 38.5949 27.5 40.5718V62C27.5 62.8284 26.8284 63.5 26 63.5H21C17.4101 63.5 14.5 60.5899 14.5 57V19Z" fill="currentColor" />
  <path d="M42.73 27.0888C43.4703 26.3931 44.4494 26.0038 45.4689 26.0036L58.9995 26.0021C61.2089 26.0019 63 27.7928 63 30.0021L63 64.0021C63 66.2112 61.2091 68.0021 59 68.0021H35C32.7909 68.0021 31 66.2112 31 64.0021V40.5718C31 39.5551 31.3871 38.578 32.0801 37.8379C31.7326 38.2633 32.0304 38.9238 32.6 38.9238H39.8C42.0091 38.9238 43.8 37.1329 43.8 34.9238V27.616C43.8 27.0529 43.1531 26.7578 42.73 27.0888Z" fill="currentColor" />
  <path fill-rule="evenodd" clip-rule="evenodd" d="M26.2275 14.1355C26.2275 11.7345 28.174 9.78809 30.575 9.78809H39.4255C41.8266 9.78809 43.773 11.7345 43.773 14.1355C43.773 16.5366 41.8263 18.4822 39.4253 18.4822H30.5747C28.1737 18.4822 26.2275 16.5366 26.2275 14.1355ZM30.575 12.7881C29.8308 12.7881 29.2273 13.3906 29.2273 14.1348C29.2273 14.8789 29.8306 15.4822 30.5747 15.4822H39.4253C40.1695 15.4822 40.7727 14.8789 40.7727 14.1348C40.7727 13.3906 40.1697 12.7881 39.4255 12.7881H30.575Z" fill="currentColor" />
</svg>