<svg viewBox="0 0 80 80" fill="none">
  <path d="M40.0802 40.0503L37.0802 40.0529C37.0812 41.1229 37.6518 42.1113 38.578 42.6471L40.0802 40.0503ZM40.0574 13.6895L43.0574 13.6869C43.056 12.0315 41.714 10.6902 40.0587 10.6895L40.0574 13.6895ZM62.8078 53.1983L65.4034 54.7026C65.8025 54.0138 65.9116 53.1947 65.7065 52.4255C65.5014 51.6563 64.9991 51.0002 64.31 50.6016L62.8078 53.1983ZM62.7958 53.2189L61.2981 55.8183C62.7301 56.6434 64.5596 56.1549 65.3898 54.7259L62.7958 53.2189ZM40.0456 40.1103L41.5433 37.5109C40.6163 36.9768 39.4749 36.9768 38.5478 37.5109L40.0456 40.1103ZM17.2954 53.2189L14.7014 54.7259C15.5316 56.1549 17.3612 56.6433 18.7931 55.8183L17.2954 53.2189ZM17.2834 53.1983L15.7812 50.6015C15.0921 51.0002 14.5897 51.6564 14.3846 52.4257C14.1796 53.195 14.2888 54.0142 14.688 54.7029L17.2834 53.1983ZM40.0109 40.0503L41.5132 42.6471C42.4393 42.1113 43.01 41.1229 43.0109 40.0529L40.0109 40.0503ZM40.0338 13.6895L40.0324 10.6895C38.3771 10.6902 37.0352 12.0315 37.0338 13.6869L40.0338 13.6895ZM43.0457 40.1104C43.0457 38.4535 41.7025 37.1104 40.0457 37.1104C38.3888 37.1104 37.0457 38.4535 37.0457 40.1104H43.0457ZM37.0457 66.3122C37.0457 67.9691 38.3888 69.3122 40.0457 69.3122C41.7025 69.3122 43.0457 67.9691 43.0457 66.3122H37.0457ZM43.0802 40.0477L43.0574 13.6869L37.0574 13.6921L37.0802 40.0529L43.0802 40.0477ZM64.31 50.6016L41.5825 37.4535L38.578 42.6471L61.3055 55.7951L64.31 50.6016ZM60.2122 51.6941C60.2088 51.6998 60.2054 51.7057 60.2018 51.7119L65.3898 54.7259C65.3942 54.7184 65.3988 54.7106 65.4034 54.7026L60.2122 51.6941ZM38.5478 42.7097L61.2981 55.8183L64.2936 50.6195L41.5433 37.5109L38.5478 42.7097ZM18.7931 55.8183L41.5433 42.7097L38.5478 37.5109L15.7976 50.6195L18.7931 55.8183ZM19.8894 51.7119C19.8858 51.7056 19.8822 51.6995 19.8788 51.6937L14.688 54.7029C14.6926 54.7108 14.6971 54.7185 14.7014 54.7259L19.8894 51.7119ZM38.5087 37.4535L15.7812 50.6015L18.7857 55.7951L41.5132 42.6471L38.5087 37.4535ZM37.0338 13.6869L37.0109 40.0477L43.0109 40.0529L43.0338 13.6921L37.0338 13.6869ZM40.0351 16.6895C40.0421 16.6895 40.0491 16.6895 40.056 16.6895L40.0587 10.6895C40.05 10.6895 40.0412 10.6895 40.0324 10.6895L40.0351 16.6895ZM37.0457 40.1104V66.3122H43.0457V40.1104H37.0457Z" fill="currentColor" />
  <path d="M31.001 15.2754C36.8138 13.1597 43.1862 13.1597 48.999 15.2754V15.2754C54.8119 17.3911 59.6934 21.4872 62.7863 26.8443V26.8443C65.8793 32.2014 66.9858 38.477 65.9117 44.5689V44.5689C64.8375 50.6608 61.6513 56.1795 56.9126 60.1557V60.1557C52.174 64.1319 46.1859 66.3114 40 66.3114V66.3114C33.8141 66.3114 27.826 64.1319 23.0874 60.1557V60.1557C18.3487 56.1795 15.1625 50.6608 14.0883 44.5689V44.5689C13.0142 38.477 14.1207 32.2014 17.2137 26.8443V26.8443C20.3066 21.4872 25.1881 17.3911 31.001 15.2754V15.2754Z" stroke="currentColor" stroke-width="6" stroke-linecap="round" stroke-linejoin="round" />
</svg>