<svg viewBox="0 0 80 80" fill="none">
  <g opacity="0.9">
    <path fill-rule="evenodd" clip-rule="evenodd" d="M59.0272 55.6465C60.055 53.6294 59.2054 51.162 57.1536 50.2053L49.4597 46.6175C47.7137 45.8034 45.6389 46.57 44.8417 48.3238C43.686 50.8663 40.3466 51.4718 38.3718 49.497L38.2106 49.3358L29.7253 40.8505L29.5641 40.6893C27.5893 38.7144 28.1948 35.3751 30.7373 34.2194C32.3483 33.4871 33.0525 31.5812 32.3046 29.9774L28.6024 22.0379C27.6456 19.9861 25.1783 19.1366 23.1612 20.1643L15.6555 23.9887C14.5146 24.57 13.721 25.6623 13.5207 26.927L13.3404 28.0652C13.2083 28.8995 13.3436 29.7542 13.7271 30.5069L24.8926 52.4204C25.2761 53.173 25.888 53.785 26.6407 54.1685L48.5542 65.334C49.3069 65.7175 50.1616 65.8528 50.9959 65.7207L52.1356 65.5402C53.4002 65.3399 54.4925 64.5463 55.0738 63.4054L59.0272 55.6465Z" fill="currentColor" />
    <path d="M52.1356 65.5402L52.4484 67.5156L52.1356 65.5402ZM55.0738 63.4054L56.8559 64.3134L55.0738 63.4054ZM48.5542 65.334L47.6462 67.116L48.5542 65.334ZM50.9959 65.7207L51.3088 67.6961L50.9959 65.7207ZM57.1536 50.2053L56.3084 52.0179L57.1536 50.2053ZM13.7271 30.5069L11.9451 31.4148L13.7271 30.5069ZM48.6144 48.4302L56.3084 52.0179L57.9989 48.3927L50.3049 44.8049L48.6144 48.4302ZM36.9576 50.9112C39.9198 53.8734 44.9289 52.9651 46.6624 49.1514L43.021 47.4962C42.4431 48.7674 40.7734 49.0702 39.786 48.0828L36.9576 50.9112ZM36.7964 50.75L36.9576 50.9112L39.786 48.0828L39.6248 47.9216L36.7964 50.75ZM28.3111 42.2647L36.7964 50.75L39.6248 47.9216L31.1395 39.4363L28.3111 42.2647ZM28.1499 42.1035L28.3111 42.2647L31.1395 39.4363L30.9783 39.2751L28.1499 42.1035ZM29.9097 32.3986C26.096 34.1322 25.1876 39.1412 28.1499 42.1035L30.9783 39.2751C29.9909 38.2876 30.2937 36.6179 31.5649 36.0401L29.9097 32.3986ZM26.7898 22.8831L30.492 30.8226L34.1172 29.1321L30.415 21.1927L26.7898 22.8831ZM22.2532 18.3823L14.7475 22.2067L16.5634 25.7707L24.0692 21.9463L22.2532 18.3823ZM15.3158 28.378L15.496 27.2399L11.5453 26.6141L11.365 27.7523L15.3158 28.378ZM26.6746 51.5124L15.5091 29.5989L11.9451 31.4148L23.1106 53.3284L26.6746 51.5124ZM49.4622 63.5519L27.5487 52.3864L25.7327 55.9505L47.6462 67.116L49.4622 63.5519ZM51.8227 63.5648L50.6831 63.7453L51.3088 67.6961L52.4484 67.5156L51.8227 63.5648ZM56.8559 64.3134L60.8092 56.5545L57.2452 54.7385L53.2918 62.4974L56.8559 64.3134ZM52.4484 67.5156C54.3454 67.2151 55.9839 66.0247 56.8559 64.3134L53.2918 62.4974C53.0012 63.0678 52.455 63.4647 51.8227 63.5648L52.4484 67.5156ZM47.6462 67.116C48.7752 67.6912 50.0573 67.8943 51.3088 67.6961L50.6831 63.7453C50.2659 63.8114 49.8385 63.7437 49.4622 63.5519L47.6462 67.116ZM30.415 21.1927C28.9799 18.115 25.2789 16.8407 22.2532 18.3823L24.0692 21.9463C25.0777 21.4325 26.3114 21.8572 26.7898 22.8831L30.415 21.1927ZM31.5649 36.0401C34.1884 34.8476 35.3351 31.7439 34.1172 29.1321L30.492 30.8226C30.7699 31.4185 30.5082 32.1266 29.9097 32.3986L31.5649 36.0401ZM23.1106 53.3284C23.6859 54.4573 24.6037 55.3752 25.7327 55.9505L27.5487 52.3864C27.1724 52.1947 26.8664 51.8887 26.6746 51.5124L23.1106 53.3284ZM56.3084 52.0179C57.3343 52.4963 57.7591 53.73 57.2452 54.7385L60.8092 56.5545C62.3509 53.5288 61.0765 49.8278 57.9989 48.3927L56.3084 52.0179ZM14.7475 22.2067C13.0362 23.0786 11.8457 24.7171 11.5453 26.6141L15.496 27.2399C15.5962 26.6075 15.993 26.0614 16.5634 25.7707L14.7475 22.2067ZM11.365 27.7523C11.1668 29.0038 11.3699 30.2859 11.9451 31.4148L15.5091 29.5989C15.3174 29.2225 15.2497 28.7952 15.3158 28.378L11.365 27.7523ZM50.3049 44.8049C47.551 43.5207 44.2784 44.7299 43.021 47.4962L46.6624 49.1514C46.9994 48.4101 47.8764 48.086 48.6144 48.4302L50.3049 44.8049Z" fill="currentColor" />
  </g>
  <path d="M44.7583 23.3467L53.8492 23.3467L55.6674 23.3467L64.7583 23.3467" stroke="currentColor" stroke-width="6" stroke-linecap="round" stroke-linejoin="round" />
</svg>