<svg viewBox="0 0 80 80" fill="none">
  <g opacity="0.9">
    <path fill-rule="evenodd" clip-rule="evenodd" d="M55.8074 61.9659C55.0938 63.3664 53.6239 64.2364 52.0613 64.0661C51.3897 63.9928 50.7188 63.9033 50.0491 63.7972C41.3208 62.4148 33.2542 58.3046 27.0054 52.0558C20.7566 45.8071 16.6465 37.7404 15.2641 29.0121C15.1581 28.3429 15.0685 27.6725 14.9954 27.0013C14.825 25.4387 15.6949 23.9688 17.0955 23.2551L23.2248 20.1321C25.597 18.9234 28.4673 20.3333 29.3016 22.8616C29.8075 24.395 30.4051 25.904 31.0934 27.3802C31.4384 28.1199 31.8043 28.8474 32.1904 29.5621C33.1045 31.2539 32.4879 33.4238 30.7373 34.2196C28.1948 35.3752 27.5892 38.7146 29.5641 40.6895L29.7253 40.8507L38.2106 49.336L38.3718 49.4972C40.3466 51.472 43.686 50.8665 44.8417 48.324C45.6813 46.4768 47.9571 45.808 49.7642 46.7306C50.2024 46.9543 50.6451 47.1705 51.0923 47.379C52.7867 48.1691 54.5242 48.8396 56.2924 49.3892C58.8666 50.1895 60.3278 53.094 59.104 55.496L55.8074 61.9659Z" fill="currentColor" />
    <path d="M50.0491 63.7972L50.362 61.8218L50.362 61.8218L50.0491 63.7972ZM15.2641 29.0121L13.2887 29.325L13.2887 29.325L15.2641 29.0121ZM31.0934 27.3802L32.9061 26.535L31.0934 27.3802ZM51.0923 47.379L51.9375 45.5664L51.0923 47.379ZM32.1904 29.5621L33.95 28.6113L32.1904 29.5621ZM17.0955 23.2551L18.0035 25.0372L17.0955 23.2551ZM56.2924 49.3892L55.6987 51.2991L56.2924 49.3892ZM59.104 55.496L60.886 56.404L59.104 55.496ZM29.3016 22.8616L27.4023 23.4883L29.3016 22.8616ZM52.0613 64.0661L51.8446 66.0543L52.0613 64.0661ZM52.2781 62.0778C51.6386 62.0081 50.9997 61.9228 50.362 61.8218L49.7362 65.7726C50.4379 65.8837 51.1409 65.9776 51.8446 66.0543L52.2781 62.0778ZM50.362 61.8218C42.0508 60.5055 34.3698 56.5917 28.4196 50.6416L25.5912 53.47C32.1386 60.0175 40.5908 64.3241 49.7362 65.7726L50.362 61.8218ZM28.4196 50.6416C22.4695 44.6915 18.5558 37.0104 17.2394 28.6993L13.2887 29.325C14.7372 38.4705 19.0438 46.9226 25.5912 53.47L28.4196 50.6416ZM17.2394 28.6993C17.1385 28.062 17.0533 27.4236 16.9836 26.7845L13.0071 27.2181C13.0838 27.9213 13.1776 28.6238 13.2887 29.325L17.2394 28.6993ZM22.3169 18.3501L16.1875 21.4731L18.0035 25.0372L24.1328 21.9141L22.3169 18.3501ZM27.4023 23.4883C27.9327 25.0959 28.5592 26.6778 29.2808 28.2254L32.9061 26.535C32.251 25.1301 31.6823 23.6941 31.2008 22.2349L27.4023 23.4883ZM29.2808 28.2254C29.6424 29.0009 30.026 29.7636 30.4308 30.5128L33.95 28.6113C33.5825 27.9313 33.2343 27.2389 32.9061 26.535L29.2808 28.2254ZM29.9097 32.3988C26.0959 34.1323 25.1876 39.1414 28.1499 42.1037L30.9783 39.2752C29.9909 38.2878 30.2936 36.6181 31.5649 36.0403L29.9097 32.3988ZM28.1499 42.1037L28.3111 42.2649L31.1395 39.4365L30.9783 39.2752L28.1499 42.1037ZM28.3111 42.2649L36.7964 50.7502L39.6248 47.9217L31.1395 39.4365L28.3111 42.2649ZM36.7964 50.7502L36.9576 50.9114L39.786 48.083L39.6248 47.9217L36.7964 50.7502ZM36.9576 50.9114C39.9198 53.8736 44.9289 52.9653 46.6624 49.1516L43.021 47.4964C42.4431 48.7676 40.7734 49.0704 39.786 48.083L36.9576 50.9114ZM48.8548 48.5119C49.3141 48.7464 49.7783 48.9731 50.2471 49.1917L51.9375 45.5664C51.512 45.368 51.0906 45.1622 50.6737 44.9494L48.8548 48.5119ZM50.2471 49.1917C52.0234 50.02 53.8449 50.7228 55.6987 51.2991L56.8861 47.4794C55.2035 46.9563 53.55 46.3183 51.9375 45.5664L50.2471 49.1917ZM57.5894 62.8739L60.886 56.404L57.3219 54.588L54.0254 61.0579L57.5894 62.8739ZM30.4308 30.5128C30.8508 31.29 30.5001 32.1305 29.9097 32.3988L31.5649 36.0403C34.4757 34.7172 35.3583 31.2177 33.95 28.6113L30.4308 30.5128ZM46.6624 49.1516C46.9806 48.4517 47.9531 48.0515 48.8548 48.5119L50.6737 44.9494C47.9612 43.5645 44.3821 44.5019 43.021 47.4964L46.6624 49.1516ZM16.9836 26.7845C16.9109 26.1181 17.2783 25.4067 18.0035 25.0372L16.1875 21.4731C14.1116 22.5308 12.739 24.7593 13.0071 27.2181L16.9836 26.7845ZM55.6987 51.2991C57.2648 51.786 57.9025 53.4486 57.3219 54.588L60.886 56.404C62.7531 52.7395 60.4685 48.593 56.8861 47.4794L55.6987 51.2991ZM24.1328 21.9141C25.2593 21.3401 26.8961 21.9541 27.4023 23.4883L31.2008 22.2349C30.0386 18.7125 25.9347 16.5067 22.3169 18.3501L24.1328 21.9141ZM51.8446 66.0543C54.3034 66.3223 56.5317 64.9497 57.5894 62.8739L54.0254 61.0579C53.6559 61.7831 52.9445 62.1505 52.2781 62.0778L51.8446 66.0543Z" fill="currentColor" />
  </g>
  <path d="M44.6509 23.3467L53.7418 23.3467L55.56 23.3467L64.6509 23.3467" stroke="currentColor" stroke-width="6" stroke-linecap="round" stroke-linejoin="round" />
  <path d="M54.6509 13.3467L54.6509 22.4376L54.6509 24.2558L54.6509 33.3467" stroke="currentColor" stroke-width="6" stroke-linecap="round" stroke-linejoin="round" />
</svg>