<svg viewBox="0 0 80 80" fill="none">
  <path d="M43 38.1226C43 36.4657 41.6569 35.1226 40 35.1226C38.3431 35.1226 37 36.4657 37 38.1226L43 38.1226ZM37 65.9982C37 67.6551 38.3431 68.9982 40 68.9982C41.6569 68.9982 43 67.6551 43 65.9982H37ZM37 38.1226L37 65.9982H43L43 38.1226L37 38.1226Z" fill="currentColor" />
  <path d="M33.9378 15.5C37.6891 13.3342 42.3109 13.3342 46.0622 15.5C49.8135 17.6658 52.1244 21.6684 52.1244 26C52.1244 30.3316 49.8135 34.3342 46.0622 36.5C42.3109 38.6658 37.6891 38.6658 33.9378 36.5C30.1865 34.3342 27.8756 30.3316 27.8756 26C27.8756 21.6684 30.1865 17.6658 33.9378 15.5Z" fill="currentColor" stroke="currentColor" stroke-width="4" stroke-linecap="round" stroke-linejoin="round" />
</svg>