<svg viewBox="0 0 80 80" fill="none">
  <path d="M42.0322 36.3164C42.0322 34.6596 40.6891 33.3164 39.0322 33.3164C37.3754 33.3164 36.0322 34.6596 36.0322 36.3164L42.0322 36.3164ZM36.0322 62.2649C36.0322 63.9217 37.3754 65.2649 39.0322 65.2649C40.6891 65.2649 42.0322 63.9217 42.0322 62.2649H36.0322ZM36.0322 36.3164L36.0322 62.2649H42.0322L42.0322 36.3164L36.0322 36.3164Z" fill="currentColor" />
  <path d="M33.389 15.258C36.881 13.242 41.1832 13.242 44.6752 15.258C48.1671 17.2741 50.3183 21 50.3183 25.0321C50.3183 29.0643 48.1671 32.7901 44.6752 34.8062C41.1832 36.8223 36.881 36.8223 33.389 34.8062C29.8971 32.7901 27.746 29.0643 27.746 25.0321C27.746 21 29.8971 17.2741 33.389 15.258Z" fill="currentColor" stroke="currentColor" stroke-width="4" stroke-linecap="round" stroke-linejoin="round" />
</svg>