<svg viewBox="0 0 80 80" fill="none">
  <path d="M39.6482 11.6244L39.6482 4.23309" stroke="currentColor" stroke-width="5" stroke-linecap="round" stroke-linejoin="round" />
  <path fill-rule="evenodd" clip-rule="evenodd" d="M27.1663 24.9286C27.1563 24.9286 27.1482 24.9367 27.1482 24.9468L27.1482 29.2809C27.1482 30.1429 27.847 30.8417 28.709 30.8417L50.5874 30.8417C51.4494 30.8417 52.1482 30.1429 52.1482 29.2809L52.1482 24.9467C52.1482 24.9367 52.1401 24.9286 52.1301 24.9286C52.1201 24.9286 52.112 24.9205 52.1119 24.9105C52.1096 23.305 51.7911 21.6999 51.1567 20.1903C49.9001 17.2006 47.5074 14.8325 44.5048 13.6068L44.3865 13.5585C41.3493 12.3187 37.9471 12.3187 34.9099 13.5585L34.7916 13.6068C31.789 14.8325 29.3963 17.2006 28.1397 20.1903C27.5053 21.6999 27.1868 23.305 27.1845 24.9105C27.1844 24.9205 27.1763 24.9286 27.1663 24.9286Z" fill="currentColor" />
  <path d="M51.1567 20.1903L53.0004 19.4154L53.0004 19.4154L51.1567 20.1903ZM44.5048 13.6068L45.2607 11.7552L45.2607 11.7551L44.5048 13.6068ZM44.3865 13.5585L43.6306 15.4102L43.6306 15.4102L44.3865 13.5585ZM34.9099 13.5585L35.6658 15.4102L35.6658 15.4102L34.9099 13.5585ZM34.7916 13.6068L34.0357 11.7551L34.0357 11.7552L34.7916 13.6068ZM28.1397 20.1903L29.9835 20.9653L28.1397 20.1903ZM27.1845 24.9105L29.1845 24.9135L27.1845 24.9105ZM52.1119 24.9105L54.1119 24.9076L52.1119 24.9105ZM27.1482 24.9468L25.1482 24.9468L27.1482 24.9468ZM29.1482 29.2809L29.1482 24.9468L25.1482 24.9468L25.1482 29.2809L29.1482 29.2809ZM50.5874 28.8417L28.709 28.8417L28.709 32.8417L50.5874 32.8417L50.5874 28.8417ZM50.1482 24.9467L50.1482 29.2809L54.1482 29.2809L54.1482 24.9467L50.1482 24.9467ZM49.3129 20.9653C49.8436 22.228 50.11 23.5705 50.1119 24.9135L54.1119 24.9076C54.1092 23.0396 53.7387 21.1718 53.0004 19.4154L49.3129 20.9653ZM43.749 15.4585C46.2604 16.4837 48.2618 18.4645 49.3129 20.9653L53.0004 19.4154C51.5383 15.9367 48.7543 13.1813 45.2607 11.7552L43.749 15.4585ZM43.6306 15.4102L43.749 15.4585L45.2607 11.7551L45.1424 11.7068L43.6306 15.4102ZM35.6658 15.4102C38.2185 14.3681 41.0779 14.3681 43.6306 15.4102L45.1424 11.7068C41.6207 10.2692 37.6757 10.2692 34.154 11.7068L35.6658 15.4102ZM35.5474 15.4585L35.6658 15.4102L34.154 11.7068L34.0357 11.7551L35.5474 15.4585ZM29.9835 20.9653C31.0346 18.4645 33.036 16.4837 35.5474 15.4585L34.0357 11.7552C30.5421 13.1813 27.7581 15.9367 26.296 19.4154L29.9835 20.9653ZM29.1845 24.9135C29.1864 23.5705 29.4528 22.228 29.9835 20.9653L26.296 19.4154C25.5577 21.1718 25.1872 23.0396 25.1845 24.9075L29.1845 24.9135ZM25.1845 24.9075C25.1861 23.8161 26.071 22.9286 27.1663 22.9286L27.1663 26.9286C28.2817 26.9286 29.1828 26.025 29.1845 24.9135L25.1845 24.9075ZM50.5874 32.8417C52.554 32.8417 54.1482 31.2474 54.1482 29.2809L50.1482 29.2809C50.1482 29.0383 50.3448 28.8417 50.5874 28.8417L50.5874 32.8417ZM52.1301 22.9286C53.2254 22.9286 54.1103 23.816 54.1119 24.9076L50.1119 24.9135C50.1136 26.025 51.0148 26.9286 52.1301 26.9286L52.1301 22.9286ZM29.1482 24.9468C29.1482 26.0413 28.2609 26.9286 27.1663 26.9286L27.1663 22.9286C26.0517 22.9286 25.1482 23.8322 25.1482 24.9468L29.1482 24.9468ZM54.1482 24.9467C54.1482 23.8322 53.2447 22.9286 52.1301 22.9286L52.1301 26.9286C51.0355 26.9286 50.1482 26.0413 50.1482 24.9467L54.1482 24.9467ZM25.1482 29.2809C25.1482 31.2474 26.7424 32.8417 28.709 32.8417L28.709 28.8417C28.9516 28.8417 29.1482 29.0383 29.1482 29.2809L25.1482 29.2809Z" fill="currentColor" />
  <path fill-rule="evenodd" clip-rule="evenodd" d="M47.1482 38.0614C45.4913 38.0614 44.1482 39.4045 44.1482 41.0614L44.1482 46.4527C44.1482 47.5573 45.0436 48.4527 46.1482 48.4527L48.1482 48.4527C49.2528 48.4527 50.1482 47.5573 50.1482 46.4527L50.1482 41.0614C50.1482 39.4045 48.805 38.0614 47.1482 38.0614ZM31.1482 48.4527C30.0436 48.4527 29.1482 47.5573 29.1482 46.4527L29.1482 41.0614C29.1482 39.4045 30.4913 38.0614 32.1482 38.0614C33.805 38.0614 35.1482 39.4045 35.1482 41.0614L35.1482 46.4527C35.1482 47.5573 34.2528 48.4527 33.1482 48.4527L31.1482 48.4527Z" fill="currentColor" />
  <path d="M43.6482 41.0614C43.6482 39.1284 45.2152 37.5614 47.1482 37.5614L47.1482 38.5614C45.7675 38.5614 44.6482 39.6807 44.6482 41.0614L43.6482 41.0614ZM43.6482 46.4527L43.6482 41.0614L44.6482 41.0614L44.6482 46.4527L43.6482 46.4527ZM46.1482 47.9527L48.1482 47.9527L48.1482 48.9527L46.1482 48.9527L46.1482 47.9527ZM50.6482 41.0614L50.6482 46.4527L49.6482 46.4527L49.6482 41.0614L50.6482 41.0614ZM47.1482 37.5614C49.0812 37.5614 50.6482 39.1284 50.6482 41.0614L49.6482 41.0614C49.6482 39.6807 48.5289 38.5614 47.1482 38.5614L47.1482 37.5614ZM28.6482 46.4527L28.6482 41.0614L29.6482 41.0614L29.6482 46.4527L28.6482 46.4527ZM28.6482 41.0614C28.6482 39.1284 30.2152 37.5614 32.1482 37.5614L32.1482 38.5614C30.7675 38.5614 29.6482 39.6807 29.6482 41.0614L28.6482 41.0614ZM32.1482 37.5614C34.0812 37.5614 35.6482 39.1284 35.6482 41.0614L34.6482 41.0614C34.6482 39.6807 33.5289 38.5614 32.1482 38.5614L32.1482 37.5614ZM35.6482 41.0614L35.6482 46.4527L34.6482 46.4527L34.6482 41.0614L35.6482 41.0614ZM31.1482 47.9527L33.1482 47.9527L33.1482 48.9527L31.1482 48.9527L31.1482 47.9527ZM35.6482 46.4527C35.6482 47.8334 34.5289 48.9527 33.1482 48.9527L33.1482 47.9527C33.9766 47.9527 34.6482 47.2811 34.6482 46.4527L35.6482 46.4527ZM29.6482 46.4527C29.6482 47.2811 30.3198 47.9527 31.1482 47.9527L31.1482 48.9527C29.7675 48.9527 28.6482 47.8334 28.6482 46.4527L29.6482 46.4527ZM48.1482 47.9527C48.9766 47.9527 49.6482 47.2811 49.6482 46.4527L50.6482 46.4527C50.6482 47.8334 49.5289 48.9527 48.1482 48.9527L48.1482 47.9527ZM44.6482 46.4527C44.6482 47.2811 45.3198 47.9527 46.1482 47.9527L46.1482 48.9527C44.7675 48.9527 43.6482 47.8334 43.6482 46.4527L44.6482 46.4527Z" fill="currentColor" />
  <path d="M39.6482 67.67L39.6482 75.0613" stroke="currentColor" stroke-width="5" stroke-linecap="round" stroke-linejoin="round" />
  <path fill-rule="evenodd" clip-rule="evenodd" d="M27.1663 54.3658C27.1563 54.3658 27.1482 54.3577 27.1482 54.3477L27.1482 50.0136C27.1482 49.1516 27.847 48.4528 28.709 48.4528L50.5874 48.4528C51.4494 48.4528 52.1482 49.1516 52.1482 50.0136L52.1482 54.3477C52.1482 54.3577 52.1401 54.3658 52.1301 54.3658C52.1201 54.3658 52.112 54.3739 52.1119 54.3839C52.1096 55.9894 51.7911 57.5946 51.1567 59.1041C49.9001 62.0938 47.5074 64.462 44.5048 65.6876L44.3865 65.7359C41.3493 66.9757 37.9471 66.9757 34.9099 65.7359L34.7916 65.6876C31.789 64.462 29.3963 62.0938 28.1397 59.1041C27.5053 57.5946 27.1868 55.9894 27.1845 54.3839C27.1844 54.3739 27.1763 54.3658 27.1663 54.3658Z" fill="currentColor" />
  <path d="M50.5874 46.4528C51.692 46.4528 52.5874 47.3482 52.5874 48.4528C52.5874 49.5573 51.692 50.4528 50.5874 50.4528L50.5874 46.4528ZM51.1567 59.1041L53.0004 59.8791L53.0004 59.8791L51.1567 59.1041ZM44.5048 65.6876L45.2607 67.5393L45.2607 67.5393L44.5048 65.6876ZM44.3865 65.7359L43.6306 63.8843L43.6306 63.8843L44.3865 65.7359ZM34.9099 65.7359L35.6658 63.8843L35.6658 63.8843L34.9099 65.7359ZM34.7916 65.6876L34.0357 67.5393L34.0357 67.5393L34.7916 65.6876ZM28.1397 59.1041L29.9835 58.3292L28.1397 59.1041ZM27.1845 54.3839L29.1845 54.381L27.1845 54.3839ZM52.1119 54.3839L54.1119 54.3869L52.1119 54.3839ZM29.1482 50.0136L29.1482 54.3477L25.1482 54.3477L25.1482 50.0136L29.1482 50.0136ZM50.5874 50.4528L28.709 50.4528L28.709 46.4528L50.5874 46.4528L50.5874 50.4528ZM50.1482 54.3477L50.1482 50.0136L54.1482 50.0136L54.1482 54.3477L50.1482 54.3477ZM49.3129 58.3292C49.8436 57.0665 50.11 55.724 50.1119 54.381L54.1119 54.3869C54.1092 56.2549 53.7387 58.1226 53.0004 59.8791L49.3129 58.3292ZM43.749 63.836C46.2604 62.8107 48.2618 60.8299 49.3129 58.3292L53.0004 59.8791C51.5383 63.3577 48.7543 66.1132 45.2607 67.5393L43.749 63.836ZM43.6306 63.8843L43.749 63.836L45.2607 67.5393L45.1424 67.5876L43.6306 63.8843ZM35.6658 63.8843C38.2185 64.9263 41.0779 64.9263 43.6306 63.8843L45.1424 67.5876C41.6207 69.0252 37.6757 69.0252 34.154 67.5876L35.6658 63.8843ZM35.5474 63.836L35.6658 63.8843L34.154 67.5876L34.0357 67.5393L35.5474 63.836ZM29.9835 58.3292C31.0346 60.8299 33.036 62.8107 35.5474 63.836L34.0357 67.5393C30.5421 66.1132 27.7581 63.3577 26.296 59.8791L29.9835 58.3292ZM29.1845 54.381C29.1864 55.724 29.4528 57.0665 29.9835 58.3292L26.296 59.8791C25.5577 58.1226 25.1872 56.2549 25.1845 54.3869L29.1845 54.381ZM25.1845 54.3869C25.1861 55.4784 26.071 56.3658 27.1663 56.3658L27.1663 52.3658C28.2817 52.3658 29.1828 53.2695 29.1845 54.381L25.1845 54.3869ZM50.5874 46.4528C52.554 46.4528 54.1482 48.047 54.1482 50.0136L50.1482 50.0136C50.1482 50.2561 50.3448 50.4528 50.5874 50.4528L50.5874 46.4528ZM52.1301 56.3658C53.2254 56.3658 54.1103 55.4784 54.1119 54.3869L50.1119 54.381C50.1136 53.2694 51.0148 52.3658 52.1301 52.3658L52.1301 56.3658ZM29.1482 54.3477C29.1482 53.2531 28.2609 52.3658 27.1663 52.3658L27.1663 56.3658C26.0517 56.3658 25.1482 55.4623 25.1482 54.3477L29.1482 54.3477ZM54.1482 54.3477C54.1482 55.4623 53.2447 56.3658 52.1301 56.3658L52.1301 52.3658C51.0355 52.3658 50.1482 53.2531 50.1482 54.3477L54.1482 54.3477ZM25.1482 50.0136C25.1482 48.047 26.7424 46.4528 28.709 46.4528L28.709 50.4528C28.9516 50.4528 29.1482 50.2561 29.1482 50.0136L25.1482 50.0136Z" fill="currentColor" />
</svg>