<svg viewBox="0 0 80 80" fill="none">
  <path d="M12 48H28.5543C29.4984 50.7007 31.3845 53.0258 33.9378 54.5C37.6891 56.6658 42.3109 56.6658 46.0622 54.5C48.6155 53.0258 50.5016 50.7007 51.4457 48H68V61C68 62.6569 66.6569 64 65 64H15C13.3431 64 12 62.6569 12 61V48Z" fill="currentColor" />
  <path d="M41.9885 17.285L39.4182 23.9999L22.9151 24L22.3842 21.5726C22.1833 20.6545 21.3703 20 20.4304 20H17.6042C16.6643 20 15.8513 20.6545 15.6504 21.5726L15.1195 24L15 24C13.3431 24 12 25.3432 12 27V40H28.5543C29.4984 37.2993 31.3845 34.9742 33.9378 33.5C37.6891 31.3342 42.3109 31.3342 46.0622 33.5C48.6155 34.9742 50.5016 37.2993 51.4457 40H68V27C68 26.4584 67.8565 25.9502 67.6053 25.5116L66.7029 23.9999L64.1326 17.285C63.8363 16.511 63.0934 15.9999 62.2647 15.9999H43.8564C43.0277 15.9999 42.2848 16.511 41.9885 17.285Z" fill="currentColor" />
  <path fill-rule="evenodd" clip-rule="evenodd" d="M35.2861 35.8352C36.7442 34.9933 38.3721 34.5722 39.999 34.572C41.3797 34.5719 42.4992 35.691 42.4993 37.0717C42.4995 38.4524 41.3804 39.5719 39.9997 39.572C39.2348 39.5721 38.4711 39.7698 37.7861 40.1653C36.416 40.9563 35.572 42.4182 35.572 44.0002C35.572 44.4724 35.647 44.9329 35.7884 45.368C36.2151 46.6812 35.4965 48.0916 34.1834 48.5182C32.8703 48.9449 31.4599 48.2263 31.0332 46.9132C30.7317 45.9853 30.572 45.0036 30.572 44.0002C30.572 40.6319 32.369 37.5194 35.2861 35.8352Z" fill="currentColor" />
</svg>