<svg viewBox="0 0 80 80" fill="none">
  <path fill-rule="evenodd" clip-rule="evenodd" d="M43.4995 16.501C43.4995 14.2918 41.7087 12.501 39.4995 12.501C37.2904 12.501 35.4995 14.2918 35.4995 16.501L35.4995 42.501C35.4995 44.7101 37.2904 46.501 39.4995 46.501C41.7087 46.501 43.4995 44.7101 43.4995 42.501L43.4995 16.501ZM15.3195 30.4439C16.585 27.3886 18.4041 24.6324 20.6555 22.2966C22.144 20.7523 24.6023 21.0472 25.965 22.7036C27.4038 24.4526 27.049 27.0303 25.5914 28.7636C24.4047 30.1746 23.4291 31.7705 22.7105 33.5054C20.866 37.9583 20.866 42.9616 22.7105 47.4145C24.555 51.8674 28.0928 55.4053 32.5457 57.2497C36.9986 59.0942 42.0019 59.0942 46.4548 57.2497C50.9077 55.4053 54.4456 51.8674 56.29 47.4145C58.1345 42.9616 58.1345 37.9583 56.29 33.5054C55.4477 31.472 54.2523 29.6294 52.7779 28.0517C51.2726 26.4409 50.7598 23.9834 51.9978 22.159C53.2411 20.3268 55.762 19.8325 57.3791 21.3451C60.0788 23.8702 62.2392 26.9629 63.6811 30.4439C66.3375 36.8571 66.3375 44.0628 63.6811 50.476C61.0246 56.8891 55.9294 61.9843 49.5163 64.6408C43.1031 67.2972 35.8974 67.2972 29.4842 64.6408C23.0711 61.9843 17.9759 56.8891 15.3195 50.476C12.663 44.0628 12.663 36.8571 15.3195 30.4439Z" fill="currentColor" />
  <path d="M43.4995 16.501H42.9995H43.4995ZM35.4995 16.501H34.9995H35.4995ZM35.4995 42.501H35.9995H35.4995ZM43.4995 42.501H43.9995H43.4995ZM15.3195 30.4439L14.8575 30.2526L15.3195 30.4439ZM22.7105 33.5054L22.2486 33.3141L22.7105 33.5054ZM22.7105 47.4145L23.1724 47.2232L22.7105 47.4145ZM32.5457 57.2497L32.3544 57.7117L32.5457 57.2497ZM46.4548 57.2497L46.2635 56.7878L46.4548 57.2497ZM56.29 47.4145L55.8281 47.2232L56.29 47.4145ZM56.29 33.5054L56.752 33.3141L56.29 33.5054ZM63.6811 30.4439L63.2191 30.6353L63.6811 30.4439ZM63.6811 50.476L63.2191 50.2846L63.6811 50.476ZM49.5163 64.6408L49.3249 64.1788L49.5163 64.6408ZM29.4842 64.6408L29.6756 64.1788L29.4842 64.6408ZM15.3195 50.476L15.7814 50.2846L15.3195 50.476ZM20.6555 22.2966L20.2955 21.9496L20.6555 22.2966ZM39.4995 13.001C41.4325 13.001 42.9995 14.568 42.9995 16.501H43.9995C43.9995 14.0157 41.9848 12.001 39.4995 12.001V13.001ZM35.9995 16.501C35.9995 14.568 37.5665 13.001 39.4995 13.001V12.001C37.0143 12.001 34.9995 14.0157 34.9995 16.501H35.9995ZM35.9995 42.501L35.9995 16.501H34.9995L34.9995 42.501H35.9995ZM39.4995 46.001C37.5666 46.001 35.9995 44.434 35.9995 42.501H34.9995C34.9995 44.9863 37.0143 47.001 39.4995 47.001V46.001ZM42.9995 42.501C42.9995 44.434 41.4325 46.001 39.4995 46.001V47.001C41.9848 47.001 43.9995 44.9863 43.9995 42.501H42.9995ZM42.9995 16.501L42.9995 42.501H43.9995L43.9995 16.501H42.9995ZM20.2955 21.9496C18.0011 24.3301 16.1472 27.1389 14.8575 30.2526L15.7814 30.6353C17.0228 27.6383 18.8071 24.9348 21.0155 22.6436L20.2955 21.9496ZM23.1724 33.6967C23.8713 32.0096 24.82 30.4576 25.974 29.0854L25.2087 28.4417C23.9894 29.8916 22.9869 31.5315 22.2486 33.3141L23.1724 33.6967ZM23.1724 47.2232C21.3787 42.8927 21.3787 38.0272 23.1724 33.6967L22.2486 33.3141C20.3533 37.8895 20.3533 43.0304 22.2486 47.6058L23.1724 47.2232ZM32.737 56.7878C28.4066 54.9941 24.9661 51.5536 23.1724 47.2232L22.2486 47.6058C24.1438 52.1813 27.7789 55.8164 32.3544 57.7117L32.737 56.7878ZM46.2635 56.7878C41.9331 58.5815 37.0675 58.5815 32.737 56.7878L32.3544 57.7117C36.9298 59.6069 42.0707 59.6069 46.6461 57.7117L46.2635 56.7878ZM55.8281 47.2232C54.0344 51.5536 50.5939 54.9941 46.2635 56.7878L46.6461 57.7117C51.2216 55.8164 54.8568 52.1813 56.752 47.6058L55.8281 47.2232ZM55.8281 33.6967C57.6218 38.0272 57.6218 42.8928 55.8281 47.2232L56.752 47.6058C58.6472 43.0304 58.6472 37.8895 56.752 33.3141L55.8281 33.6967ZM52.4126 28.3931C53.8465 29.9274 55.009 31.7192 55.8281 33.6967L56.752 33.3141C55.8865 31.2247 54.6582 29.3314 53.1432 27.7103L52.4126 28.3931ZM64.143 30.2526C62.6736 26.7051 60.4719 23.5533 57.7206 20.9799L57.0375 21.7102C59.6857 24.1872 61.8048 27.2208 63.2191 30.6353L64.143 30.2526ZM64.143 50.6673C66.8502 44.1317 66.8502 36.7883 64.143 30.2526L63.2191 30.6353C65.8248 36.9259 65.8248 43.994 63.2191 50.2846L64.143 50.6673ZM49.7076 65.1027C56.2433 62.3955 61.4358 57.203 64.143 50.6673L63.2191 50.2846C60.6134 56.5753 55.6156 61.5731 49.3249 64.1788L49.7076 65.1027ZM29.2929 65.1027C35.8286 67.8098 43.172 67.8098 49.7076 65.1027L49.3249 64.1788C43.0343 66.7845 35.9662 66.7845 29.6756 64.1788L29.2929 65.1027ZM14.8575 50.6673C17.5647 57.203 22.7572 62.3955 29.2929 65.1027L29.6756 64.1788C23.3849 61.5731 18.3871 56.5753 15.7814 50.2846L14.8575 50.6673ZM14.8575 30.2526C12.1504 36.7883 12.1504 44.1316 14.8575 50.6673L15.7814 50.2846C13.1757 43.994 13.1757 36.9259 15.7814 30.6353L14.8575 30.2526ZM53.1432 27.7103C51.751 26.2205 51.3392 24.0199 52.4115 22.4398L51.584 21.8783C50.1803 23.9469 50.7941 26.6612 52.4126 28.3931L53.1432 27.7103ZM25.5788 23.0213C26.8232 24.5339 26.5572 26.8383 25.2087 28.4417L25.974 29.0854C27.5408 27.2223 27.9843 24.3712 26.3511 22.386L25.5788 23.0213ZM52.4115 22.4398C53.5135 20.8159 55.6833 20.4436 57.0375 21.7102L57.7206 20.9799C55.8406 19.2214 52.9687 19.8378 51.584 21.8783L52.4115 22.4398ZM21.0155 22.6436C22.262 21.3504 24.373 21.5555 25.5788 23.0213L26.3511 22.386C24.8316 20.5389 22.026 20.1542 20.2955 21.9496L21.0155 22.6436Z" fill="currentColor" />
</svg>