<svg viewBox="0 0 80 80" fill="none">
  <path fill-rule="evenodd" clip-rule="evenodd" d="M56.8638 25.6073C57.5923 26.3543 58 27.3565 58 28.3999L58 36.9516C58 36.9785 57.9782 37.0004 57.9512 37.0004L22.0536 37.0004C22.024 37.0004 22 36.9764 22 36.9468L22 16.0024C22 13.7931 23.7911 12.0022 26.0005 12.0024L41.9125 12.0042C42.9907 12.0044 44.0231 12.4397 44.7758 13.2116L44.8342 13.2714C44.3579 12.8657 43.6 13.1985 43.6 13.8468V22.77C43.6 24.9791 45.3909 26.77 47.6 26.77L56.2 26.77C56.8527 26.77 57.1928 26.0067 56.781 25.5224L56.8638 25.6073Z" fill="currentColor" />
  <path d="M56.8638 25.6073L58.2956 24.211L58.2956 24.211L56.8638 25.6073ZM22 36.9468H20H22ZM22 16.0024L24 16.0024L22 16.0024ZM26.0005 12.0024L26.0002 14.0024L26.0005 12.0024ZM41.9125 12.0042L41.9123 14.0042L41.9125 12.0042ZM44.7758 13.2116L46.2077 11.8153L46.2077 11.8153L44.7758 13.2116ZM44.8342 13.2714L43.5372 14.7939C44.3507 15.4869 45.5653 15.4179 46.2951 14.6373C47.025 13.8567 47.0122 12.6402 46.2661 11.8751L44.8342 13.2714ZM56.781 25.5224L58.2129 24.1261C57.4602 23.3543 56.2312 23.3179 55.4342 24.0438C54.6372 24.7698 54.559 25.9968 55.2574 26.818L56.781 25.5224ZM60 28.3999C60 26.8348 59.3884 25.3315 58.2956 24.211L55.4319 27.0036C55.7961 27.3771 56 27.8782 56 28.3999H60ZM60 36.9516L60 28.3999H56L56 36.9516H60ZM57.9512 39.0004C59.0827 39.0004 60 38.0831 60 36.9516H56C56 35.874 56.8736 35.0004 57.9512 35.0004V39.0004ZM22.0536 39.0004L57.9512 39.0004V35.0004L22.0536 35.0004V39.0004ZM20 36.9468C20 38.081 20.9195 39.0004 22.0536 39.0004V35.0004C23.1285 35.0004 24 35.8718 24 36.9468H20ZM20 16.0024L20 36.9468H24L24 16.0024L20 16.0024ZM26.0007 10.0024C22.6867 10.0021 20 12.6885 20 16.0024L24 16.0024C24 14.8978 24.8956 14.0023 26.0002 14.0024L26.0007 10.0024ZM41.9128 10.0042L26.0007 10.0024L26.0002 14.0024L41.9123 14.0042L41.9128 10.0042ZM46.2077 11.8153C45.0786 10.6574 43.53 10.0044 41.9128 10.0042L41.9123 14.0042C42.4514 14.0043 42.9676 14.222 43.344 14.6079L46.2077 11.8153ZM46.2661 11.8751L46.2077 11.8153L43.344 14.6079L43.4023 14.6677L46.2661 11.8751ZM46.1311 11.7489C44.38 10.2572 41.6 11.4617 41.6 13.8468H45.6C45.6 14.9353 44.3359 15.4742 43.5372 14.7939L46.1311 11.7489ZM41.6 13.8468V22.77H45.6V13.8468H41.6ZM41.6 22.77C41.6 26.0837 44.2863 28.77 47.6 28.77V24.77C46.4954 24.77 45.6 23.8746 45.6 22.77H41.6ZM47.6 28.77L56.2 28.77V24.77L47.6 24.77V28.77ZM56.2 28.77C58.5798 28.77 59.8066 25.9931 58.3046 24.2268L55.2574 26.818C54.579 26.0203 55.1256 24.77 56.2 24.77V28.77ZM58.2956 24.211L58.2129 24.1261L55.3491 26.9188L55.4319 27.0036L58.2956 24.211Z" fill="currentColor" />
  <path d="M56.7434 25.4806L55.3114 26.8767L56.7434 25.4806ZM44.8887 13.3219L43.4567 14.7181L44.8887 13.3219ZM43.4567 14.7181L55.3114 26.8767L58.1754 24.0844L46.3207 11.9257L43.4567 14.7181ZM41.6 13.8462V22.7694H45.6V13.8462H41.6ZM47.6 28.7694L56.2 28.7694V24.7694H47.6V28.7694ZM41.6 22.7694C41.6 26.0831 44.2863 28.7694 47.6 28.7694V24.7694C46.4954 24.7694 45.6 23.8739 45.6 22.7694H41.6ZM55.3114 26.8767C54.5448 26.0905 55.1019 24.7694 56.2 24.7694V28.7694C58.6412 28.7694 59.8796 25.8322 58.1754 24.0844L55.3114 26.8767ZM46.3207 11.9257C44.598 10.1588 41.6 11.3784 41.6 13.8462H45.6C45.6 14.9665 44.2389 15.5202 43.4567 14.7181L46.3207 11.9257Z" fill="currentColor" />
  <rect x="22" y="47" width="36" height="21" rx="2" fill="currentColor" stroke="currentColor" stroke-width="4" stroke-linecap="round" stroke-linejoin="round" />
  <path d="M22 57V59.5H24.5V57H22ZM58 57H55.5L55.5 59.5H58L58 57ZM12.625 59.5H22V54.5H12.625V59.5ZM9.5 56.375C9.5 58.1009 10.8991 59.5 12.625 59.5V54.5C13.6605 54.5 14.5 55.3395 14.5 56.375H9.5ZM9.5 44L9.5 56.375H14.5L14.5 44H9.5ZM19 34.5C13.7533 34.5 9.5 38.7533 9.5 44H14.5C14.5 41.5147 16.5147 39.5 19 39.5V34.5ZM61 34.5L19 34.5V39.5L61 39.5V34.5ZM70.5 44C70.5 38.7533 66.2467 34.5 61 34.5V39.5C63.4853 39.5 65.5 41.5147 65.5 44H70.5ZM70.5 56.375V44H65.5V56.375L70.5 56.375ZM67.375 59.5C69.1009 59.5 70.5 58.1009 70.5 56.375L65.5 56.375C65.5 55.3395 66.3395 54.5 67.375 54.5V59.5ZM58 59.5L67.375 59.5V54.5L58 54.5L58 59.5ZM55.5 49V57H60.5V49H55.5ZM56 49.5C55.7239 49.5 55.5 49.2761 55.5 49H60.5C60.5 46.5147 58.4853 44.5 56 44.5V49.5ZM24 49.5L56 49.5V44.5L24 44.5V49.5ZM24.5 49C24.5 49.2761 24.2761 49.5 24 49.5V44.5C21.5147 44.5 19.5 46.5147 19.5 49H24.5ZM24.5 57L24.5 49H19.5L19.5 57H24.5Z" fill="currentColor" />
</svg>