<svg viewBox="0 0 83 82" fill="none">
  <path fill-rule="evenodd" clip-rule="evenodd" d="M41.1078 21.2355C40.5843 22.7028 40.0615 24.1679 40.0615 25.6928V26.0618H56.0615V42.0617H56.4314C57.9562 42.0617 59.4211 41.5391 60.8883 41.0157L60.8883 41.0156C61.9131 40.65 62.939 40.284 63.9872 40.0955C64.3381 40.0324 64.6973 39.9998 65.061 39.9998C67.2268 39.9998 69.2281 41.1552 70.311 43.0308C71.3939 44.9065 71.3939 47.2174 70.311 49.093C69.2281 50.9687 67.2268 52.1241 65.061 52.1241C64.6972 52.1241 64.3381 52.0915 63.9872 52.0284C62.9388 51.8398 61.9127 51.4737 60.8878 51.108L60.8877 51.108C59.4204 50.5844 57.9553 50.0617 56.4304 50.0617H56.0615V66.0618H40.0615V65.693C40.0615 64.1681 40.5843 62.703 41.1078 61.2356C41.4735 60.2106 41.8396 59.1846 42.0282 58.1362C42.0914 57.7853 42.124 57.4261 42.124 57.0623C42.124 54.8965 40.9685 52.8952 39.0929 51.8123C37.2172 50.7294 34.9063 50.7294 33.0307 51.8123C31.155 52.8952 29.9996 54.8965 29.9996 57.0623C29.9996 57.4261 30.0322 57.7852 30.0953 58.1361C30.2839 59.1843 30.6499 60.2103 31.0155 61.2351C31.5389 62.7023 32.0615 64.1672 32.0615 65.6919V66.0618H16.0615V46.0618V26.0618H32.0615V25.6918C32.0615 24.167 31.5389 22.7021 31.0155 21.2349C30.6499 20.2101 30.2839 19.1842 30.0953 18.136C30.0322 17.7851 29.9996 17.4259 29.9996 17.0622C29.9996 14.8964 31.155 12.8951 33.0307 11.8122C34.9063 10.7293 37.2172 10.7293 39.0929 11.8122C40.9685 12.8951 42.124 14.8964 42.124 17.0622C42.124 17.426 42.0914 17.7851 42.0282 18.136C41.8396 19.1844 41.4735 20.2105 41.1078 21.2355Z" fill="currentColor" />
</svg>