<svg viewBox="0 0 99 99" fill="none">
  <path d="M71.7269 45.7253C70.893 44.281 69.0462 43.7862 67.602 44.62C66.1577 45.4539 65.6628 47.3007 66.4967 48.7449L71.7269 45.7253ZM57.5522 64.5985C55.8845 64.5985 54.5326 65.9504 54.5326 67.6181C54.5326 69.2858 55.8845 70.6378 57.5522 70.6378L57.5522 64.5985ZM75.6492 58.5582L78.2642 57.0483L75.6492 58.5582ZM70.4184 67.6181L70.4184 64.5985L70.4184 67.6181ZM66.4967 48.7449L73.0341 60.068L78.2642 57.0483L71.7269 45.7253L66.4967 48.7449ZM70.4184 64.5985L57.5522 64.5985L57.5522 70.6378L70.4184 70.6378L70.4184 64.5985ZM78.2642 66.108C79.8826 63.3049 79.8826 59.8514 78.2642 57.0483L73.0341 60.068C73.5736 61.0025 73.5736 62.1538 73.0341 63.0883L78.2642 66.108ZM73.0341 63.0883C72.4945 64.0228 71.4974 64.5985 70.4184 64.5985L70.4184 70.6378C73.6551 70.6378 76.6459 68.911 78.2642 66.108L73.0341 63.0883Z" fill="currentColor" />
  <path d="M57.5581 62.4143L57.5581 72.8251C57.5581 73.8757 56.2879 74.4019 55.545 73.659L51.641 69.7549C50.4617 68.5757 50.4617 66.6637 51.641 65.4845L55.545 61.5804C56.2879 60.8375 57.5581 61.3637 57.5581 62.4143Z" fill="currentColor" stroke="currentColor" stroke-width="6" stroke-linecap="round" stroke-linejoin="round" />
  <path d="M35.1168 32.1384C34.2829 33.5827 34.7778 35.4295 36.2221 36.2633C37.6663 37.0972 39.5131 36.6023 40.347 35.1581L35.1168 32.1384ZM58.5488 34.9774C59.3826 36.4217 61.2294 36.9165 62.6737 36.0827C64.118 35.2488 64.6128 33.402 63.779 31.9578L58.5488 34.9774ZM44.2692 22.3252L41.6542 20.8154L44.2692 22.3252ZM54.7308 22.3252L52.1157 23.835L54.7308 22.3252ZM40.347 35.1581L46.8843 23.835L41.6542 20.8154L35.1168 32.1384L40.347 35.1581ZM52.1157 23.835L58.5488 34.9774L63.779 31.9578L57.3459 20.8154L52.1157 23.835ZM49.5 16.2855C46.2633 16.2855 43.2725 18.0123 41.6542 20.8154L46.8843 23.835C47.4239 22.9005 48.421 22.3248 49.5 22.3248L49.5 16.2855ZM49.5 22.3248C50.5791 22.3248 51.5762 22.9005 52.1157 23.835L57.3459 20.8154C55.7275 18.0123 52.7367 16.2855 49.5 16.2855L49.5 22.3248Z" fill="currentColor" />
  <path d="M56.6541 36.0651L65.6702 30.8597C66.5801 30.3344 67.6708 31.1713 67.3989 32.1861L65.9699 37.5192C65.5383 39.1301 63.8825 40.0861 62.2716 39.6544L56.9385 38.2254C55.9237 37.9535 55.7443 36.5904 56.6541 36.0651Z" fill="currentColor" stroke="currentColor" stroke-width="6" stroke-linecap="round" stroke-linejoin="round" />
  <path d="M41.6554 70.6358C43.3231 70.6358 44.675 69.2839 44.675 67.6162C44.675 65.9485 43.3231 64.5965 41.6554 64.5965L41.6554 70.6358ZM32.398 48.9236C33.2319 47.4793 32.737 45.6326 31.2927 44.7987C29.8485 43.9649 28.0017 44.4597 27.1678 45.904L32.398 48.9236ZM41.6554 64.5965L28.5806 64.5965L28.5806 70.6358L41.6554 70.6358L41.6554 64.5965ZM25.9649 60.066L32.398 48.9236L27.1678 45.904L20.7348 57.0464L25.9649 60.066ZM20.7348 66.106C22.3531 68.9091 25.3439 70.6358 28.5806 70.6358L28.5806 64.5965C27.5016 64.5965 26.5045 64.0209 25.9649 63.0864L20.7348 66.106ZM25.9649 63.0864C25.4254 62.1519 25.4254 61.0005 25.9649 60.066L20.7348 57.0464C19.1164 59.8494 19.1164 63.303 20.7348 66.106L25.9649 63.0864Z" fill="currentColor" />
  <path d="M34.2873 50.0201L25.2712 44.8147C24.3613 44.2894 24.5408 42.9263 25.5556 42.6544L30.8886 41.2254C32.4995 40.7937 34.1553 41.7497 34.587 43.3606L36.0159 48.6937C36.2879 49.7085 35.1971 50.5454 34.2873 50.0201Z" fill="currentColor" stroke="currentColor" stroke-width="6" stroke-linecap="round" stroke-linejoin="round" />
</svg>