<svg viewBox="0 0 80 80" fill="none">
  <path d="M39.0317 68.2701L39.0317 13.1377" stroke="currentColor" stroke-width="5" stroke-linecap="round" stroke-linejoin="round" />
  <path fill-rule="evenodd" clip-rule="evenodd" d="M12.793 32.0483C9.10227 32.0483 6.11032 35.0403 6.11032 38.7311L6.11032 48.7551C6.11032 50.6005 7.60629 52.0965 9.45167 52.0965L11.92 52.0965L11.92 66.135C11.92 67.2395 12.8154 68.135 13.92 68.135H19.6028C20.7073 68.135 21.6028 67.2395 21.6028 66.135L21.6028 52.0965L24.0711 52.0965C25.9164 52.0965 27.4124 50.6005 27.4124 48.7551L27.4124 38.7311C27.4124 35.0403 24.4205 32.0483 20.7297 32.0483H12.793Z" fill="currentColor" />
  <path d="M9.45167 52.0965V54.0965H9.45167L9.45167 52.0965ZM11.92 52.0965H13.92C13.92 51.566 13.7093 51.0573 13.3342 50.6823C12.9591 50.3072 12.4504 50.0965 11.92 50.0965L11.92 52.0965ZM21.6028 52.0965L21.6028 50.0965C21.0723 50.0965 20.5636 50.3072 20.1885 50.6823C19.8135 51.0573 19.6028 51.566 19.6028 52.0965H21.6028ZM24.0711 52.0965L24.0711 54.0965H24.0711V52.0965ZM8.11032 38.7311C8.11032 36.1449 10.2068 34.0483 12.793 34.0483V30.0483C7.9977 30.0483 4.11032 33.9357 4.11032 38.7311H8.11032ZM8.11032 48.7551L8.11032 38.7311H4.11032L4.11032 48.7551H8.11032ZM9.45167 50.0965C8.71087 50.0965 8.11032 49.4959 8.11032 48.7551H4.11032C4.11032 51.7051 6.50172 54.0965 9.45167 54.0965V50.0965ZM11.92 50.0965L9.45167 50.0965L9.45167 54.0965L11.92 54.0965L11.92 50.0965ZM13.92 66.135L13.92 52.0965H9.91999L9.91999 66.135H13.92ZM13.92 66.135H13.92H9.91999C9.91999 68.3441 11.7108 70.135 13.92 70.135L13.92 66.135ZM19.6028 66.135H13.92L13.92 70.135H19.6028V66.135ZM19.6028 66.135V70.135C21.8119 70.135 23.6028 68.3441 23.6028 66.135H19.6028ZM19.6028 52.0965L19.6028 66.135H23.6028L23.6028 52.0965H19.6028ZM24.0711 50.0965L21.6028 50.0965L21.6028 54.0965L24.0711 54.0965L24.0711 50.0965ZM25.4124 48.7551C25.4124 49.4959 24.8119 50.0965 24.0711 50.0965V54.0965C27.021 54.0965 29.4124 51.7051 29.4124 48.7551H25.4124ZM25.4124 38.7311L25.4124 48.7551H29.4124L29.4124 38.7311H25.4124ZM20.7297 34.0483C23.3159 34.0483 25.4124 36.1449 25.4124 38.7311H29.4124C29.4124 33.9357 25.525 30.0483 20.7297 30.0483V34.0483ZM12.793 34.0483H20.7297V30.0483L12.793 30.0483V34.0483Z" fill="currentColor" />
  <path d="M13.6686 26.4967C15.6162 27.4676 17.9066 27.4676 19.8542 26.4967C21.7284 25.5623 23.0797 23.8307 23.5306 21.7856L23.5935 21.4999C24.0498 19.4304 23.5663 17.265 22.273 15.5861L22.1734 15.4568C20.88 13.7778 18.8807 12.7942 16.7614 12.7942C14.642 12.7942 12.6427 13.7778 11.3494 15.4568L11.2498 15.5861C9.95647 17.265 9.47296 19.4304 9.92924 21.4999L9.99221 21.7856C10.4431 23.8307 11.7944 25.5623 13.6686 26.4967Z" fill="currentColor" stroke="currentColor" stroke-width="4" stroke-linecap="round" stroke-linejoin="round" />
  <path fill-rule="evenodd" clip-rule="evenodd" d="M66.8986 34.2789C65.7194 32.8654 63.9736 32.0483 62.1329 32.0483C60.2922 32.0483 58.5464 32.8654 57.3673 34.2789L57.1886 34.4931C56.6173 35.1779 56.1862 35.9684 55.9199 36.8196L50.6644 53.6191C50.5896 53.8582 50.7682 54.1013 51.0188 54.1013H57.429L57.429 66.135C57.429 67.2395 58.3245 68.135 59.429 68.135H65.1118C66.2164 68.135 67.1118 67.2395 67.1118 66.135V54.1013H73.247C73.4976 54.1013 73.6762 53.8582 73.6014 53.6191L68.3459 36.8196C68.0796 35.9684 67.6486 35.1779 67.0772 34.4931L66.8986 34.2789Z" fill="currentColor" />
  <path d="M66.8986 34.2789L65.3628 35.5601L65.3628 35.5601L66.8986 34.2789ZM57.3673 34.2789L58.903 35.5601L58.903 35.5601L57.3673 34.2789ZM57.1886 34.4931L55.6528 33.2119L55.6528 33.2119L57.1886 34.4931ZM55.9199 36.8196L57.8287 37.4167L55.9199 36.8196ZM50.6644 53.6191L48.7556 53.022L48.7556 53.022L50.6644 53.6191ZM57.429 54.1013H59.429C59.429 52.9967 58.5336 52.1013 57.429 52.1013V54.1013ZM67.1118 54.1013V52.1013C66.0072 52.1013 65.1118 52.9967 65.1118 54.1013H67.1118ZM73.6014 53.6191L75.5102 53.022L75.5102 53.022L73.6014 53.6191ZM68.3459 36.8196L66.4371 37.4167V37.4167L68.3459 36.8196ZM67.0772 34.4931L68.613 33.2119L68.613 33.2119L67.0772 34.4931ZM62.1329 34.0483C63.3804 34.0483 64.5636 34.6021 65.3628 35.5601L68.4343 32.9977C66.8752 31.1288 64.5668 30.0483 62.1329 30.0483V34.0483ZM58.903 35.5601C59.7022 34.6021 60.8854 34.0483 62.1329 34.0483V30.0483C59.699 30.0483 57.3906 31.1288 55.8315 32.9977L58.903 35.5601ZM58.7243 35.7743L58.903 35.5601L55.8315 32.9977L55.6528 33.2119L58.7243 35.7743ZM57.8287 37.4167C58.0167 36.8158 58.321 36.2578 58.7243 35.7743L55.6528 33.2119C54.9135 34.0981 54.3557 35.121 54.0112 36.2225L57.8287 37.4167ZM52.5732 54.2163L57.8287 37.4167L54.0112 36.2225L48.7556 53.022L52.5732 54.2163ZM51.0188 52.1013C52.1178 52.1013 52.9013 53.1674 52.5732 54.2163L48.7556 53.022C48.2779 54.5491 49.4187 56.1013 51.0188 56.1013L51.0188 52.1013ZM57.429 52.1013H51.0188L51.0188 56.1013H57.429V52.1013ZM59.429 66.135L59.429 54.1013H55.429L55.429 66.135H59.429ZM59.429 66.135H59.429H55.429C55.429 68.3441 57.2199 70.135 59.429 70.135V66.135ZM65.1118 66.135H59.429V70.135H65.1118V66.135ZM65.1118 66.135V66.135V70.135C67.3209 70.135 69.1118 68.3441 69.1118 66.135H65.1118ZM65.1118 54.1013V66.135H69.1118V54.1013H65.1118ZM73.247 52.1013H67.1118V56.1013H73.247V52.1013ZM71.6926 54.2163C71.3645 53.1674 72.148 52.1013 73.247 52.1013V56.1013C74.8471 56.1013 75.9879 54.5491 75.5102 53.022L71.6926 54.2163ZM66.4371 37.4167L71.6926 54.2163L75.5102 53.022L70.2547 36.2225L66.4371 37.4167ZM65.5415 35.7743C65.9448 36.2578 66.2491 36.8158 66.4371 37.4167L70.2547 36.2225C69.9101 35.121 69.3523 34.0981 68.613 33.2119L65.5415 35.7743ZM65.3628 35.5601L65.5415 35.7743L68.613 33.2119L68.4343 32.9977L65.3628 35.5601Z" fill="currentColor" />
  <path d="M59.1776 26.4967C61.1252 27.4676 63.4156 27.4676 65.3632 26.4967C67.2374 25.5623 68.5887 23.8307 69.0396 21.7856L69.1025 21.4999C69.5588 19.4304 69.0753 17.265 67.782 15.5861L67.6824 15.4568C66.389 13.7778 64.3897 12.7942 62.2704 12.7942C60.151 12.7942 58.1517 13.7778 56.8584 15.4568L56.7588 15.5861C55.4655 17.265 54.982 19.4304 55.4382 21.4999L55.5012 21.7856C55.9521 23.8307 57.3034 25.5623 59.1776 26.4967Z" fill="currentColor" stroke="currentColor" stroke-width="4" stroke-linecap="round" stroke-linejoin="round" />
</svg>