<svg viewBox="0 0 80 80" fill="none">
  <path fill-rule="evenodd" clip-rule="evenodd" d="M24.9996 39.9999H20.0002C17.6929 39.9999 15.864 41.9466 16.0079 44.2494L17.5079 68.2494C17.6397 70.3575 19.3879 71.9999 21.5002 71.9999H57.9846C60.0968 71.9999 61.845 70.3575 61.9768 68.2494L63.4768 44.2494C63.6207 41.9466 61.7918 39.9999 59.4845 39.9999H54.9996V46C54.9996 53.1797 49.1793 59 41.9996 59H37.9996C30.8199 59 24.9996 53.1797 24.9996 46V39.9999ZM38.9996 39.9999H40.9996V45H38.9996V39.9999Z" fill="currentColor" />
  <path fill-rule="evenodd" clip-rule="evenodd" d="M23.9999 44H19.5001C19.5002 44.0103 19.5005 44.0207 19.5011 44.0311L21.0011 68.0311C21.0176 68.2947 21.2361 68.4999 21.5002 68.4999H57.9846C58.2486 68.4999 58.4671 68.2947 58.4836 68.0311L59.9836 44.0311C59.9842 44.0207 59.9846 44.0103 59.9846 44H55.9999V46C55.9999 53.732 49.7319 60 41.9999 60H37.9999C30.2679 60 23.9999 53.732 23.9999 46V44ZM8.94851 52.8523C8.61302 49.721 10.1247 46.8548 12.5653 45.2759L14.0148 68.4678C14.0759 69.4466 14.323 70.372 14.7202 71.2102C12.2972 70.0428 10.5379 67.6863 10.2342 64.8523L8.94851 52.8523ZM69.7659 64.8523C69.4355 67.9361 67.3815 70.4545 64.6243 71.4907C65.1036 70.5802 65.4019 69.5571 65.4699 68.4678L66.938 44.9794C69.6671 46.4764 71.4093 49.5136 71.0516 52.8523L69.7659 64.8523Z" fill="currentColor" />
  <rect x="15.9995" y="12" width="48" height="20" rx="4" stroke="currentColor" stroke-width="6" stroke-linecap="round" stroke-linejoin="round" />
  <path fill-rule="evenodd" clip-rule="evenodd" d="M31.9995 42V46C31.9995 49.3137 34.6858 52 37.9995 52H41.9995C45.3132 52 47.9995 49.3137 47.9995 46V42H31.9995Z" fill="currentColor" />
  <path d="M31.9995 42V39C30.3427 39 28.9995 40.3431 28.9995 42H31.9995ZM47.9995 42H50.9995C50.9995 40.3431 49.6564 39 47.9995 39V42ZM34.9995 46V42H28.9995V46H34.9995ZM37.9995 49C36.3427 49 34.9995 47.6569 34.9995 46H28.9995C28.9995 50.9706 33.0289 55 37.9995 55V49ZM41.9995 49H37.9995V55H41.9995V49ZM44.9995 46C44.9995 47.6569 43.6564 49 41.9995 49V55C46.9701 55 50.9995 50.9706 50.9995 46H44.9995ZM44.9995 42V46H50.9995V42H44.9995ZM47.9995 39H31.9995V45H47.9995V39Z" fill="currentColor" />
  <rect x="31.9995" y="14" width="16" height="16" rx="8" stroke="currentColor" stroke-width="6" stroke-linecap="round" stroke-linejoin="round" />
</svg>