<svg viewBox="0 0 80 80" fill="none">
  <path d="M30 12C28.8954 12 28 12.8954 28 14V66C28 67.1046 28.8954 68 30 68H50C51.1046 68 52 67.1046 52 66V60.5H40C38.6193 60.5 37.5 59.3807 37.5 58C37.5 56.6193 38.6193 55.5 40 55.5H52V51.5H44C42.6193 51.5 41.5 50.3807 41.5 49C41.5 47.6193 42.6193 46.5 44 46.5H52V42.5H40C38.6193 42.5 37.5 41.3807 37.5 40C37.5 38.6193 38.6193 37.5 40 37.5H52V33.5H44C42.6193 33.5 41.5 32.3807 41.5 31C41.5 29.6193 42.6193 28.5 44 28.5H52V24.5L40 24.5C38.6193 24.5 37.5 23.3807 37.5 22C37.5 20.6193 38.6193 19.5 40 19.5L52 19.5V14C52 12.8954 51.1046 12 50 12H30Z" fill="currentColor" />
</svg>