<svg viewBox="0 0 80 80" fill="none">
  <path fill-rule="evenodd" clip-rule="evenodd" d="M38.6542 54.8721C38.9278 54.631 39.152 54.3268 39.3024 53.9713L44.8024 40.9713C44.9549 40.6109 45.0206 40.2196 44.9943 39.8291L42.8381 7.82914C42.7488 6.50446 41.6397 5.48061 40.3121 5.49741C38.9845 5.51422 37.9016 6.56582 37.8459 7.89233L36.508 39.754L34.5959 52.1822C36.2518 52.5684 37.6819 53.5423 38.6542 54.8721ZM40 38.9972C40.5523 38.9972 41 39.4449 41 39.9972C41 40.5495 40.5523 40.9972 40 40.9972C39.4477 40.9972 39 40.5495 39 39.9972C39 39.4449 39.4477 38.9972 40 38.9972Z" fill="currentColor" />
  <path d="M40 60.999C40 64.865 36.866 67.999 33 67.999V67.999C29.134 67.999 26 64.865 26 60.999L26 58.999C26 55.133 29.134 51.999 33 51.999V51.999C36.866 51.999 40 55.133 40 58.999L40 60.999Z" stroke="currentColor" stroke-width="5" stroke-linecap="round" stroke-linejoin="round" />
  <path fill-rule="evenodd" clip-rule="evenodd" d="M41.3458 54.8728C41.0722 54.6317 40.848 54.3275 40.6976 53.972L35.1976 40.972C35.0451 40.6116 34.9794 40.2204 35.0057 39.8299L37.1619 7.82987C37.2512 6.50519 38.3603 5.48135 39.6879 5.49815C41.0155 5.51495 42.0984 6.56655 42.1541 7.89306L43.492 39.7547L45.4041 52.1829C43.7482 52.5691 42.3181 53.543 41.3458 54.8728ZM40 38.998C39.4477 38.998 39 39.4457 39 39.998C39 40.5502 39.4477 40.998 40 40.998C40.5523 40.998 41 40.5502 41 39.998C41 39.4457 40.5523 38.998 40 38.998Z" fill="currentColor" />
  <path d="M40 60.9998C40 64.8657 43.134 67.9998 47 67.9998V67.9998C50.866 67.9998 54 64.8657 54 60.9998L54 58.9998C54 55.1338 50.866 51.9998 47 51.9998V51.9998C43.134 51.9998 40 55.1338 40 58.9998L40 60.9998Z" stroke="currentColor" stroke-width="5" stroke-linecap="round" stroke-linejoin="round" />
</svg>