<svg viewBox="0 0 80 80" fill="none">
  <path d="M35.9995 45.001V69.001" stroke="currentColor" stroke-width="6" stroke-linecap="round" stroke-linejoin="round" />
  <path fill-rule="evenodd" clip-rule="evenodd" d="M27.9998 54.0006C16.9541 54.0006 7.99987 45.0462 7.99987 34.0005V32.0019C7.99987 29.9112 8.32068 27.8953 8.91576 26.001C12.9713 26.1704 16.9935 27.2058 20.6091 29.048C25.8776 31.7325 30.2676 36.1225 32.952 41.3911C34.7943 45.0068 35.8297 49.0291 35.999 53.0847C34.1047 53.6798 32.089 54.0006 29.9983 54.0006H27.9998Z" fill="currentColor" />
  <path d="M8.91576 26.001L7.00768 25.4016L7.46722 23.9387L8.99922 24.0027L8.91576 26.001ZM20.6091 29.048L19.7011 30.83L20.6091 29.048ZM32.952 41.3911L31.17 42.2991L32.952 41.3911ZM35.999 53.0847L37.9973 53.0013L38.0613 54.5333L36.5984 54.9928L35.999 53.0847ZM9.99987 34.0005C9.99987 43.9417 18.0587 52.0006 27.9998 52.0006V56.0006C15.8495 56.0006 5.99987 46.1508 5.99987 34.0005H9.99987ZM9.99987 32.0019V34.0005H5.99987V32.0019H9.99987ZM10.8238 26.6004C10.289 28.303 9.99987 30.1168 9.99987 32.0019H5.99987C5.99987 29.7055 6.35238 27.4877 7.00768 25.4016L10.8238 26.6004ZM19.7011 30.83C16.3473 29.1211 12.607 28.1569 8.83229 27.9992L8.99922 24.0027C13.3355 24.1838 17.6397 25.2904 21.517 27.266L19.7011 30.83ZM31.17 42.2991C28.6773 37.4068 24.5932 33.3227 19.7011 30.83L21.517 27.266C27.1619 30.1422 31.8579 34.8383 34.734 40.4831L31.17 42.2991ZM34.0008 53.1682C33.8431 49.3933 32.8789 45.653 31.17 42.2991L34.734 40.4831C36.7097 44.3606 37.8162 48.6649 37.9973 53.0013L34.0008 53.1682ZM29.9983 52.0006C31.8833 52.0006 33.697 51.7115 35.3996 51.1766L36.5984 54.9928C34.5124 55.6481 32.2946 56.0006 29.9983 56.0006V52.0006ZM27.9998 52.0006H29.9983V56.0006H27.9998V52.0006Z" fill="currentColor" />
  <path fill-rule="evenodd" clip-rule="evenodd" d="M46.2846 46.0006C60.4865 46.0006 71.9995 34.4876 71.9995 20.2855V17.7158C71.9995 15.0276 71.587 12.4357 70.8219 10C65.6075 10.2178 60.4359 11.549 55.7872 13.9177C49.0132 17.3693 43.3687 23.0138 39.9172 29.7879C37.5485 34.4368 36.2173 39.6085 35.9995 44.8231C38.4351 45.5882 41.0269 46.0006 43.715 46.0006H46.2846Z" fill="currentColor" />
  <path d="M70.8219 10L72.7299 9.40061L72.2704 7.93775L70.7384 8.00174L70.8219 10ZM55.7872 13.9177L54.8792 12.1357L55.7872 13.9177ZM39.9172 29.7879L41.6992 30.6959L39.9172 29.7879ZM35.9995 44.8231L34.0013 44.7396L33.9373 46.2716L35.4001 46.7311L35.9995 44.8231ZM69.9995 20.2855C69.9995 33.383 59.382 44.0006 46.2846 44.0006V48.0006C61.5911 48.0006 73.9995 35.5921 73.9995 20.2855H69.9995ZM69.9995 17.7158V20.2855H73.9995V17.7158H69.9995ZM68.9138 10.5994C69.6187 12.8434 69.9995 15.2333 69.9995 17.7158H73.9995C73.9995 14.8219 73.5553 12.028 72.7299 9.40061L68.9138 10.5994ZM56.6952 15.6997C61.0821 13.4644 65.9717 12.2043 70.9053 11.9983L70.7384 8.00174C65.2433 8.23127 59.7897 9.63366 54.8792 12.1357L56.6952 15.6997ZM41.6992 30.6959C44.959 24.2981 50.2975 18.9595 56.6952 15.6997L54.8792 12.1357C47.7289 15.779 41.7784 21.7295 38.1352 28.8799L41.6992 30.6959ZM37.9978 44.9065C38.2038 39.9728 39.4639 35.083 41.6992 30.6959L38.1352 28.8799C35.6331 33.7906 34.2307 39.2443 34.0013 44.7396L37.9978 44.9065ZM43.715 44.0006C41.2325 44.0006 38.8428 43.6199 36.5989 42.915L35.4001 46.7311C38.0274 47.5565 40.8212 48.0006 43.715 48.0006V44.0006ZM46.2846 44.0006H43.715V48.0006H46.2846V44.0006Z" fill="currentColor" />
</svg>