<svg viewBox="0 0 80 80" fill="none">
  <path fill-rule="evenodd" clip-rule="evenodd" d="M41.789 14.3419C41.052 12.8678 38.9483 12.8678 38.2113 14.3419L13.4474 63.8697C12.7825 65.1995 13.7495 66.7642 15.2362 66.7642L33.9993 66.7642L39.9993 42.7642L45.9993 66.7642L64.7641 66.7642C66.2508 66.7642 67.2178 65.1995 66.5529 63.8697L41.789 14.3419Z" fill="currentColor" />
  <path d="M38.2113 14.3419L40.0002 15.2363L38.2113 14.3419ZM41.789 14.3419L43.5779 13.4474L41.789 14.3419ZM13.4474 63.8697L11.6585 62.9753L13.4474 63.8697ZM15.2362 66.7642V64.7642V66.7642ZM33.9993 66.7642V68.7642C34.917 68.7642 35.717 68.1396 35.9396 67.2492L33.9993 66.7642ZM39.9993 42.7642L41.9396 42.2791C41.717 41.3888 40.917 40.7642 39.9993 40.7642C39.0815 40.7642 38.2816 41.3888 38.059 42.2791L39.9993 42.7642ZM45.9993 66.7642L44.059 67.2492C44.2816 68.1396 45.0815 68.7642 45.9993 68.7642V66.7642ZM64.7641 66.7642V68.7642V66.7642ZM66.5529 63.8697L68.3418 62.9753L68.3418 62.9753L66.5529 63.8697ZM40.0002 15.2363L40.0002 15.2363L43.5779 13.4474C42.1038 10.4992 37.8965 10.4993 36.4224 13.4474L40.0002 15.2363ZM15.2362 64.7642L40.0002 15.2363L36.4224 13.4474L11.6585 62.9753L15.2362 64.7642ZM15.2362 64.7642H15.2362L11.6585 62.9753C10.3287 65.6349 12.2627 68.7642 15.2362 68.7642V64.7642ZM33.9993 64.7642L15.2362 64.7642V68.7642L33.9993 68.7642V64.7642ZM35.9396 67.2492L41.9396 43.2492L38.059 42.2791L32.059 66.2791L35.9396 67.2492ZM38.059 43.2492L44.059 67.2492L47.9396 66.2791L41.9396 42.2791L38.059 43.2492ZM64.7641 64.7642L45.9993 64.7642V68.7642L64.7641 68.7642V64.7642ZM64.7641 64.7642V64.7642V68.7642C67.7376 68.7642 69.6716 65.6349 68.3418 62.9753L64.7641 64.7642ZM40.0002 15.2363L64.7641 64.7642L68.3418 62.9753L43.5779 13.4474L40.0002 15.2363Z" fill="currentColor" />
</svg>