<svg viewBox="0 0 80 80" fill="none">
  <path d="M31.9999 19.5C31.9999 18.6716 32.6715 18 33.4999 18H46.4999C47.3283 18 47.9999 18.6716 47.9999 19.5V24H51.4999C52.8806 24 53.9999 25.1193 53.9999 26.5V32.9078L42.7853 28.422C40.9973 27.7067 39.0026 27.7067 37.2145 28.422L25.9999 32.9078V26.5C25.9999 25.1193 27.1192 24 28.4999 24H31.9999V19.5Z" fill="currentColor" />
  <path d="M58.8203 42.3056C59.4923 39.8529 58.2162 37.2865 55.855 36.342L41.8569 30.7428C41.7391 30.6957 41.62 30.6532 41.4999 30.6154V62H49.6102C51.8628 62 53.8372 60.4937 54.4325 58.3212L58.8203 42.3056Z" fill="currentColor" />
  <path d="M38.4999 62V30.6155C38.3797 30.6533 38.2607 30.6957 38.143 30.7428L24.1449 36.342C21.7837 37.2865 20.5075 39.8529 21.1795 42.3056L25.5674 58.3212C26.1626 60.4937 28.137 62 30.3897 62H38.4999Z" fill="currentColor" />
</svg>