<svg viewBox="0 0 80 80" fill="none">
  <path d="M46 19C47.6569 19 49 17.6569 49 16C49 14.3431 47.6569 13 46 13V19ZM28.0138 47.9521L31.0138 47.9624L28.0138 47.9521ZM31 52L31 33H25L25 52H31ZM55 52L55 47.9931H49L49 52L55 52ZM45 19H46V13H45V19ZM25.0139 47.9419L25 51.9897L31 52.0103L31.0138 47.9624L25.0139 47.9419ZM55 47.9931C55 39.7126 48.2874 33 40.0069 33V39C44.9736 39 49 43.0264 49 47.9931H55ZM40.0069 33C31.7464 33 25.0421 39.6815 25.0139 47.9419L31.0138 47.9624C31.0308 43.0076 35.0521 39 40.0069 39V33ZM31 33C31 25.268 37.268 19 45 19V13C33.9543 13 25 21.9543 25 33H31ZM40 61C35.0294 61 31 56.9706 31 52H25C25 60.2843 31.7157 67 40 67V61ZM49 52C49 56.9706 44.9706 61 40 61V67C48.2843 67 55 60.2843 55 52L49 52Z" fill="currentColor" />
</svg>