<svg viewBox="0 0 80 80" fill="none">
  <path d="M34.2903 14.2847C33.0783 13.155 31.1799 13.2218 30.0503 14.4338C28.9206 15.6458 28.9874 17.5441 30.1994 18.6738L34.2903 14.2847ZM40.0035 23.7107L37.958 25.9053C39.1102 26.9792 40.8967 26.9792 42.0489 25.9053L40.0035 23.7107ZM26.0413 31.7718L26.9191 34.6405C28.4252 34.1796 29.3185 32.6324 28.9646 31.0977L26.0413 31.7718ZM26.5813 20.7627C26.209 19.1483 24.5983 18.1413 22.9839 18.5136C21.3694 18.8859 20.3624 20.4965 20.7347 22.111L26.5813 20.7627ZM49.8054 18.6758C51.0175 17.5462 51.0842 15.6478 49.9545 14.4358C48.8249 13.2238 46.9266 13.157 45.7145 14.2867L49.8054 18.6758ZM59.2716 22.1139C59.6439 20.4994 58.6369 18.8888 57.0224 18.5165C55.408 18.1442 53.7973 19.1511 53.425 20.7656L59.2716 22.1139ZM53.9657 31.7718L51.0424 31.0977C50.6885 32.6324 51.5817 34.1796 53.0878 34.6405L53.9657 31.7718ZM63.3715 37.7873C64.9559 38.2721 66.6333 37.3808 67.1181 35.7964C67.6029 34.2121 66.7115 32.5347 65.1272 32.0499L63.3715 37.7873ZM65.1272 47.6158C66.7115 47.131 67.6029 45.4536 67.1181 43.8693C66.6333 42.2849 64.9559 41.3936 63.3715 41.8784L65.1272 47.6158ZM53.9657 47.8939L53.0878 45.0252C51.5817 45.4861 50.6885 47.0333 51.0424 48.5681L53.9657 47.8939ZM53.4936 59.1976C53.866 60.8121 55.4766 61.8191 57.091 61.4468C58.7055 61.0745 59.7125 59.4638 59.3402 57.8494L53.4936 59.1976ZM45.9379 65.5872C47.1499 66.7169 49.0482 66.6501 50.1779 65.4381C51.3076 64.226 51.2408 62.3277 50.0288 61.1981L45.9379 65.5872ZM40.0035 55.955L42.0489 53.7604C40.8967 52.6865 39.1102 52.6865 37.958 53.7604L40.0035 55.955ZM29.976 61.2001C28.764 62.3297 28.6972 64.2281 29.8269 65.4401C30.9566 66.6521 32.8549 66.7189 34.0669 65.5892L29.976 61.2001ZM20.6661 57.8522C20.2938 59.4667 21.3008 61.0773 22.9153 61.4496C24.5297 61.8219 26.1404 60.815 26.5127 59.2005L20.6661 57.8522ZM26.0413 47.8939L28.9646 48.5681C29.3185 47.0333 28.4252 45.4861 26.9191 45.0252L26.0413 47.8939ZM16.6298 41.8767C15.0454 41.3919 13.3681 42.2832 12.8833 43.8675C12.3984 45.4519 13.2898 47.1293 14.8741 47.6141L16.6298 41.8767ZM14.8741 32.0516C13.2898 32.5365 12.3984 34.2138 12.8833 35.7982C13.3681 37.3825 15.0454 38.2738 16.6298 37.789L14.8741 32.0516ZM30.1994 18.6738L37.958 25.9053L42.0489 21.5161L34.2903 14.2847L30.1994 18.6738ZM28.9646 31.0977L26.5813 20.7627L20.7347 22.111L23.118 32.4459L28.9646 31.0977ZM42.0489 25.9053L49.8054 18.6758L45.7145 14.2867L37.958 21.5161L42.0489 25.9053ZM53.425 20.7656L51.0424 31.0977L56.889 32.4459L59.2716 22.1139L53.425 20.7656ZM53.0878 34.6405L63.3715 37.7873L65.1272 32.0499L54.8435 28.9031L53.0878 34.6405ZM63.3715 41.8784L53.0878 45.0252L54.8435 50.7626L65.1272 47.6158L63.3715 41.8784ZM51.0424 48.5681L53.4936 59.1976L59.3402 57.8494L56.889 47.2198L51.0424 48.5681ZM50.0288 61.1981L42.0489 53.7604L37.958 58.1496L45.9379 65.5872L50.0288 61.1981ZM37.958 53.7604L29.976 61.2001L34.0669 65.5892L42.0489 58.1496L37.958 53.7604ZM26.5127 59.2005L28.9646 48.5681L23.118 47.2198L20.6661 57.8522L26.5127 59.2005ZM26.9191 45.0252L16.6298 41.8767L14.8741 47.6141L25.1635 50.7626L26.9191 45.0252ZM16.6298 37.789L26.9191 34.6405L25.1635 28.9031L14.8741 32.0516L16.6298 37.789Z" fill="currentColor" />
  <path d="M39.9999 12L42.9999 11.997C42.9983 10.3413 41.6556 9 39.9999 9C38.3442 9 37.0016 10.3413 36.9999 11.997L39.9999 12ZM64.2486 26L65.7512 28.5966C67.1843 27.7673 67.6746 25.9339 66.8467 24.5C66.0189 23.0661 64.1859 22.574 62.7512 23.4004L64.2486 26ZM64.2486 54L62.7512 56.5996C64.1859 57.426 66.0189 56.9339 66.8467 55.5C67.6746 54.0661 67.1843 52.2327 65.7512 51.4034L64.2486 54ZM39.9999 68L36.9999 68.003C37.0016 69.6587 38.3442 71 39.9999 71C41.6556 71 42.9983 69.6587 42.9999 68.003L39.9999 68ZM15.7512 54L14.2486 51.4034C12.8156 52.2327 12.3253 54.0661 13.1531 55.5C13.981 56.9339 15.8139 57.426 17.2486 56.5996L15.7512 54ZM15.7512 26L17.2486 23.4004C15.8139 22.574 13.981 23.0661 13.1531 24.5C12.3253 25.9339 12.8156 27.7673 14.2486 28.5966L15.7512 26ZM33.9823 36.5014L35.4797 33.9018L33.9823 36.5014ZM33.9823 43.4986L35.4797 46.0982L33.9823 43.4986ZM46.0175 43.4986L44.5201 46.0982L46.0175 43.4986ZM40.021 46.9607L37.021 46.9577L40.021 46.9607ZM46.0386 36.5379L44.536 33.9413L46.0386 36.5379ZM46.0386 43.4621L44.536 46.0587L46.0386 43.4621ZM40.021 33.0393L37.021 33.0423L40.021 33.0393ZM46.0175 36.5014L44.5201 33.9018L46.0175 36.5014ZM36.9999 12.003L37.021 33.0423L43.021 33.0363L42.9999 11.997L36.9999 12.003ZM47.5149 39.101L65.746 28.5996L62.7512 23.4004L44.5201 33.9018L47.5149 39.101ZM62.746 23.4034L44.536 33.9413L47.5412 39.1345L65.7512 28.5966L62.746 23.4034ZM44.536 46.0587L62.746 56.5966L65.7512 51.4034L47.5412 40.8655L44.536 46.0587ZM65.746 51.4004L47.5149 40.899L44.5201 46.0982L62.7512 56.5996L65.746 51.4004ZM37.021 46.9577L36.9999 67.997L42.9999 68.003L43.021 46.9637L37.021 46.9577ZM42.9999 67.997L42.9789 46.9577L36.9789 46.9637L36.9999 68.003L42.9999 67.997ZM32.4849 40.899L14.2538 51.4004L17.2486 56.5996L35.4797 46.0982L32.4849 40.899ZM17.2538 56.5966L35.4639 46.0587L32.4587 40.8655L14.2486 51.4034L17.2538 56.5966ZM35.4639 33.9413L17.2538 23.4034L14.2486 28.5966L32.4587 39.1345L35.4639 33.9413ZM14.2538 28.5996L32.4849 39.101L35.4797 33.9018L17.2486 23.4004L14.2538 28.5996ZM42.9789 33.0423L42.9999 12.003L36.9999 11.997L36.9789 33.0363L42.9789 33.0423ZM32.4849 39.101C37.1489 41.7875 42.9735 38.4247 42.9789 33.0423L36.9789 33.0363C36.9781 33.8052 36.146 34.2856 35.4797 33.9018L32.4849 39.101ZM35.4639 46.0587C40.1224 43.3628 40.1224 36.6372 35.4639 33.9413L32.4587 39.1345C33.1242 39.5196 33.1242 40.4804 32.4587 40.8655L35.4639 46.0587ZM42.9789 46.9577C42.9735 41.5753 37.1489 38.2125 32.4849 40.899L35.4797 46.0982C36.146 45.7144 36.9781 46.1948 36.9789 46.9637L42.9789 46.9577ZM47.5149 40.899C42.851 38.2125 37.0264 41.5753 37.021 46.9577L43.021 46.9637C43.0218 46.1948 43.8539 45.7144 44.5201 46.0982L47.5149 40.899ZM44.536 33.9413C39.8774 36.6372 39.8774 43.3628 44.536 46.0587L47.5412 40.8655C46.8757 40.4804 46.8757 39.5196 47.5412 39.1345L44.536 33.9413ZM37.021 33.0423C37.0264 38.4247 42.851 41.7875 47.5149 39.101L44.5201 33.9018C43.8539 34.2856 43.0218 33.8052 43.021 33.0363L37.021 33.0423Z" fill="currentColor" />
</svg>