<svg viewBox="0 0 80 80" fill="none">
  <path fill-rule="evenodd" clip-rule="evenodd" d="M11.1925 33.1699C15.4065 33.1981 19.6158 34.1496 23.5089 36.0244C31.414 39.8313 37.1554 47.0308 39.1078 55.5848C39.5045 57.3229 39.736 59.0786 39.8071 60.8304C31.1045 60.7723 22.8893 56.7853 17.4589 49.9758C13.5958 45.1316 11.4389 39.2314 11.1925 33.1699Z" fill="currentColor" />
  <path fill-rule="evenodd" clip-rule="evenodd" d="M68.8075 33.1699C64.5935 33.1981 60.3842 34.1496 56.4911 36.0244C48.586 39.8313 42.8446 47.0308 40.8922 55.5848C40.4955 57.3229 40.264 59.0786 40.1929 60.8304C48.8955 60.7723 57.1107 56.7853 62.5411 49.9758C66.4042 45.1316 68.5611 39.2314 68.8075 33.1699Z" fill="currentColor" />
  <path fill-rule="evenodd" clip-rule="evenodd" d="M30.2296 55.9121C32.2142 56.7231 34.3031 57.2885 36.4505 57.5863C36.3732 57.1407 36.284 56.6959 36.1827 56.2524C34.8764 50.5288 31.6767 45.4822 27.1901 41.8729C27.0025 46.7361 28.0504 51.5679 30.2296 55.9121ZM28.2296 35.2357C33.3978 38.5624 37.4797 43.3084 39.9998 48.8775C42.5199 43.3083 46.6019 38.5622 51.7702 35.2355C49.9091 28.5635 45.7148 22.812 40 19C34.2851 22.8121 30.0908 28.5636 28.2296 35.2357ZM52.8098 41.8726C48.3231 45.4819 45.1232 50.5287 43.8168 56.2524C43.7156 56.6959 43.6263 57.1407 43.549 57.5863C45.6966 57.2885 47.7857 56.723 49.7704 55.9119C51.9496 51.5677 52.9975 46.7358 52.8098 41.8726Z" fill="currentColor" />
</svg>