<svg viewBox="0 0 80 80" fill="none">
  <path d="M40.483 49.165C40.1847 48.9928 39.8172 48.9928 39.5189 49.165C39.2206 49.3372 39.0368 49.6555 39.0368 50C39.0368 50.3444 39.2206 50.6627 39.5189 50.8349C39.8172 51.0071 40.1847 51.0071 40.483 50.8349C40.7813 50.6627 40.965 50.3444 40.965 50C40.965 49.6555 40.7813 49.3372 40.483 49.165Z" fill="currentColor" />
  <path fill-rule="evenodd" clip-rule="evenodd" d="M45.6791 40.165C42.1655 38.1364 37.8364 38.1364 34.3227 40.165C30.809 42.1936 28.6445 45.9427 28.6445 50C28.6445 54.0572 30.809 57.8063 34.3227 59.8349C37.8364 61.8635 42.1655 61.8635 45.6791 59.8349C49.1928 57.8063 51.3573 54.0572 51.3573 50C51.3573 45.9427 49.1928 42.1936 45.6791 40.165ZM37.0189 44.8349C38.8642 43.7695 41.1377 43.7695 42.983 44.8349C44.8283 45.9003 45.965 47.8692 45.965 50C45.965 52.1307 44.8283 54.0996 42.983 55.165C41.1377 56.2304 38.8642 56.2304 37.0189 55.165C35.1736 54.0996 34.0368 52.1307 34.0368 50C34.0368 47.8692 35.1736 45.9003 37.0189 44.8349Z" fill="currentColor" />
  <path d="M37.7859 19.1651C39.156 18.374 40.844 18.374 42.2141 19.1651C43.5842 19.9561 44.4282 21.418 44.4282 23C44.4282 24.582 43.5842 26.0439 42.2141 26.8349C40.844 27.626 39.156 27.626 37.7859 26.8349C36.4158 26.0439 35.5718 24.582 35.5718 23C35.5718 21.418 36.4158 19.9561 37.7859 19.1651Z" fill="currentColor" />
  <path fill-rule="evenodd" clip-rule="evenodd" d="M19 14C19 11.7909 20.7909 10 23 10H57C59.2091 10 61 11.7909 61 14V66C61 68.2091 59.2091 70 57 70H23C20.7909 70 19 68.2091 19 66V14ZM31.8227 35.8349C36.8834 32.9131 43.1185 32.9131 48.1791 35.8349C53.2398 38.7567 56.3573 44.1564 56.3573 50C56.3573 55.8435 53.2398 61.2432 48.1791 64.165C43.1185 67.0868 36.8834 67.0868 31.8227 64.165C26.762 61.2432 23.6445 55.8435 23.6445 50C23.6445 44.1564 26.762 38.7567 31.8227 35.8349ZM44.7141 14.8349C41.797 13.1508 38.203 13.1508 35.2859 14.8349C32.3688 16.5191 30.5718 19.6316 30.5718 23C30.5718 26.3684 32.3688 29.4809 35.2859 31.1651C38.203 32.8493 41.797 32.8492 44.7141 31.1651C47.6312 29.4809 49.4282 26.3684 49.4282 23C49.4282 19.6316 47.6312 16.5191 44.7141 14.8349Z" fill="currentColor" />
</svg>