<svg viewBox="0 0 80 80" fill="none">
  <path fill-rule="evenodd" clip-rule="evenodd" d="M14.5858 28.645C14.2107 29.02 14 29.5287 14 30.0592V49.9414C14 50.4719 14.2107 50.9806 14.5858 51.3556L28.6444 65.4142C29.0194 65.7893 29.5281 66 30.0586 66H49.9414C50.4719 66 50.9806 65.7893 51.3556 65.4142L65.4142 51.3556C65.7893 50.9806 66 50.4719 66 49.9414V30.0592C66 29.5287 65.7893 29.02 65.4142 28.645L51.355 14.5858C50.98 14.2107 50.4713 14 49.9408 14H30.0592C29.5287 14 29.02 14.2107 28.645 14.5858L14.5858 28.645ZM40.7872 26.5572C40.7872 25.4526 39.8918 24.5572 38.7872 24.5572C37.6826 24.5572 36.7872 25.4526 36.7872 26.5572V39.4373C36.7872 39.8137 36.4821 40.1188 36.1057 40.1188C35.756 40.1188 35.4726 39.8354 35.4726 39.4857V28.8951C35.4726 27.7905 34.5772 26.8951 33.4726 26.8951C32.368 26.8951 31.4726 27.7905 31.4726 28.8951V43.2878C31.4726 43.9149 30.664 44.1675 30.307 43.6519L28.228 40.6492C27.5992 39.7411 26.3533 39.5147 25.4452 40.1434C24.537 40.7722 24.3106 42.0181 24.9393 42.9263L33.0093 54.5815C33.3829 55.1211 33.9974 55.443 34.6536 55.443H47.9402C48.9279 55.443 49.7677 54.722 49.9171 53.7456L51.3934 44.1018C51.4087 44.0017 51.4164 43.9005 51.4164 43.7992V33.5709C51.4164 32.4663 50.521 31.5709 49.4164 31.5709C48.3119 31.5709 47.4164 32.4663 47.4164 33.5709V39.4373C47.4164 39.8137 47.1113 40.1188 46.7349 40.1188C46.3853 40.1188 46.1018 39.8354 46.1018 39.4857V28.8951C46.1018 27.7905 45.2064 26.8951 44.1018 26.8951C42.9973 26.8951 42.1018 27.7905 42.1018 28.8951V39.4373C42.1018 39.8137 41.7967 40.1188 41.4203 40.1188C41.0707 40.1188 40.7872 39.8354 40.7872 39.4857V26.5572Z" fill="currentColor" />
</svg>