<svg viewBox="0 0 80 80" fill="none">
  <path fill-rule="evenodd" clip-rule="evenodd" d="M40.3914 65.9999L43.2558 59.2632C43.4937 58.7038 43.1816 58.0633 42.5944 57.906L38.4054 56.7836L37.1695 56.4524L36.7406 56.3375C36.1277 56.1732 35.8207 55.487 36.1069 54.9206L41.1309 44.976C41.2852 44.6704 40.8791 44.394 40.6514 44.6496L28.5359 58.2553C28.0409 58.8112 28.3049 59.6936 29.0239 59.8863L31.7337 60.6124L33.0529 60.9659L34.1281 61.254C34.2814 61.295 34.3549 61.4695 34.2773 61.6079L31.8133 65.9999H12.0007L14.0221 42.8954C14.9475 43.2533 15.9375 43.4882 16.9738 43.5788C20.1297 43.8549 23.0956 42.7392 25.2534 40.7318C27.0299 43.0834 29.7569 44.6972 32.9128 44.9733C36.0688 45.2494 39.0347 44.1337 41.1925 42.1262C42.969 44.4779 45.696 46.0917 48.852 46.3678C52.0079 46.6439 54.9738 45.5282 57.1316 43.5207C58.9081 45.8724 61.6352 47.4862 64.7911 47.7623C65.8274 47.853 66.8432 47.7935 67.8166 47.6018L66.207 65.9999H40.3914ZM14.6006 36.2836L15.6412 24.3896L69.4357 29.0961L68.3951 40.99C67.5195 41.5799 66.4443 41.884 65.314 41.7851C62.7542 41.5612 60.8312 39.3508 60.9637 36.7846L60.9897 36.2802C61.073 34.6672 59.8642 33.2778 58.2552 33.137L57.8282 33.0996C56.2192 32.9589 54.7875 34.1173 54.5894 35.7202L54.5275 36.2215C54.2123 38.7717 51.9347 40.6146 49.3749 40.3906C46.8151 40.1667 44.8921 37.9563 45.0246 35.3901L45.0506 34.8857C45.1339 33.2727 43.9251 31.8833 42.3161 31.7425L41.8891 31.7051C40.2801 31.5644 38.8484 32.7228 38.6503 34.3258L38.5883 34.827C38.2732 37.3772 35.9956 39.2201 33.4358 38.9961C30.876 38.7722 28.953 36.5618 29.0855 33.9957L29.1115 33.4912C29.1947 31.8782 27.986 30.4888 26.3769 30.348L25.9501 30.3107C24.341 30.1699 22.9094 31.3283 22.7112 32.9313L22.6493 33.4326C22.3341 35.9827 20.0565 37.8256 17.4967 37.6016C16.3665 37.5028 15.3604 37.0166 14.6006 36.2836Z" fill="currentColor" />
  <path fill-rule="evenodd" clip-rule="evenodd" d="M30.4985 69C30.4162 68.7467 30.4336 68.4595 30.5777 68.2025L33.4963 63H7C5.34315 63 4 64.3431 4 66C4 67.6569 5.34315 69 7 69H30.4985ZM39.1157 69H71C72.6569 69 74 67.6569 74 66C74 64.3431 72.6569 63 71 63H41.667L39.1157 69Z" fill="currentColor" />
  <path fill-rule="evenodd" clip-rule="evenodd" d="M21.4939 14.864L19.5015 14.6897L10.4861 25.9468L10.1506 32.447C9.93492 36.6262 13.0667 40.226 17.2355 40.5907C21.4043 40.9555 25.1136 37.9542 25.6269 33.801L25.6888 33.2998L26.1157 33.3371L26.0897 33.8415C25.874 38.0207 29.0057 41.6205 33.1746 41.9852C37.3434 42.35 41.0526 39.3487 41.5659 35.1955L41.6279 34.6942L42.0548 34.7316L42.0288 35.236C41.8131 39.4152 44.9448 43.015 49.1137 43.3797C53.2825 43.7444 56.9918 40.7432 57.505 36.59L57.567 36.0887L57.9939 36.1261L57.9679 36.6305C57.7522 40.8097 60.884 44.4095 65.0528 44.7742C69.2216 45.1389 72.9309 42.1377 73.4442 37.9845L74.2426 31.5247L67.3189 18.8732L65.3265 18.6988L21.4939 14.864Z" fill="currentColor" />
</svg>