<svg viewBox="0 0 80 80" fill="none">
  <path fill-rule="evenodd" clip-rule="evenodd" d="M33 49.2441C27.8242 49.6123 23.1423 50.3827 19.3768 51.4585C16.6955 52.2246 14.3076 53.1932 12.5211 54.4C10.8393 55.5361 9 57.3729 9 59.9999C9 62.627 10.8393 64.4638 12.5211 65.5999C14.3076 66.8067 16.6955 67.7753 19.3768 68.5414C24.7803 70.0852 32.0707 70.9999 40 70.9999C47.9293 70.9999 55.2197 70.0852 60.6232 68.5414C63.3045 67.7753 65.6924 66.8067 67.4789 65.5999C69.1607 64.4638 71 62.627 71 59.9999C71 57.3729 69.1607 55.5361 67.4789 54.4C65.6924 53.1932 63.3045 52.2246 60.6232 51.4585C56.8577 50.3827 52.1758 49.6123 47 49.2441V55.2603C51.6603 55.6151 55.7713 56.3124 58.9748 57.2277C61.3605 57.9093 63.0731 58.6645 64.1203 59.3719C64.5294 59.6482 64.7588 59.8602 64.8847 59.9999C64.7588 60.1397 64.5294 60.3516 64.1203 60.6279C63.0731 61.3354 61.3605 62.0906 58.9748 62.7722C54.2442 64.1238 47.5347 64.9999 40 64.9999C32.4653 64.9999 25.7558 64.1238 21.0252 62.7722C18.6395 62.0906 16.9269 61.3354 15.8797 60.6279C15.4706 60.3516 15.2412 60.1397 15.1153 59.9999C15.2412 59.8602 15.4706 59.6482 15.8797 59.3719C16.9269 58.6645 18.6395 57.9093 21.0252 57.2277C24.2287 56.3124 28.3397 55.6151 33 55.2603V49.2441ZM14.972 60.1963C14.9719 60.1962 14.9726 60.1943 14.9744 60.1905C14.973 60.1943 14.972 60.1963 14.972 60.1963ZM65.028 60.1963C65.028 60.1963 65.027 60.1943 65.0256 60.1905C65.0274 60.1943 65.0281 60.1962 65.028 60.1963ZM65.0275 59.8047C65.0271 59.8056 65.0264 59.8072 65.0256 59.8094C65.0274 59.8056 65.0281 59.8036 65.028 59.8036C65.028 59.8036 65.0278 59.804 65.0275 59.8047ZM14.9744 59.8094C14.9726 59.8056 14.9719 59.8036 14.972 59.8036C14.972 59.8036 14.973 59.8055 14.9744 59.8094Z" fill="currentColor" />
  <path fill-rule="evenodd" clip-rule="evenodd" d="M33 48H29.1667C27.97 48 27 47.0299 27 45.8333V37.5403C27 35.5897 27.7559 33.7151 29.1089 32.31C30.5302 30.834 32.4911 30 34.5403 30H35.6667H44.3333H45.4597C47.5089 30 49.4698 30.834 50.8911 32.31C52.2441 33.7151 53 35.5897 53 37.5403V45.8333C53 47.0299 52.03 48 50.8333 48H47V60C47 61.1046 46.1046 62 45 62H44.4545H35.5455H35C33.8954 62 33 61.1046 33 60V48Z" fill="currentColor" />
  <path d="M35 17C37.7614 14.2386 42.2386 14.2386 45 17C47.7614 19.7614 47.7614 24.2386 45 27C42.2386 29.7614 37.7614 29.7614 35 27C32.2386 24.2386 32.2386 19.7614 35 17Z" fill="currentColor" stroke="currentColor" stroke-width="2" stroke-linecap="round" stroke-linejoin="round" />
</svg>