<svg viewBox="0 0 80 80" fill="none">
  <path fill-rule="evenodd" clip-rule="evenodd" d="M44.2426 14.2426C41.8995 11.8994 38.1005 11.8994 35.7574 14.2426L19.7574 30.2426C18.6321 31.3678 18 32.8939 18 34.4852V63.9999C18 67.3137 20.6863 69.9999 24 69.9999H56C59.3137 69.9999 62 67.3137 62 63.9999L62 34.4852C62 32.8939 61.3679 31.3678 60.2426 30.2426L44.2426 14.2426ZM43.5 28.4999C41.567 26.5669 38.433 26.5669 36.5 28.4999C34.567 30.4329 34.567 33.5669 36.5 35.4999C38.433 37.4329 41.567 37.4329 43.5 35.4999C45.433 33.5669 45.433 30.4329 43.5 28.4999Z" fill="currentColor" />
</svg>