<svg viewBox="0 0 80 80" fill="none">
  <path d="M27 74C24.027 74 21.559 71.8377 21.0829 69H51C55.9706 69 60 64.9705 60 60V31L63.2426 34.2427C64.3679 35.3679 65 36.894 65 38.4853V68C65 71.3137 62.3137 74 59 74H27Z" fill="currentColor" />
  <path fill-rule="evenodd" clip-rule="evenodd" d="M30.7574 10.2427C33.1005 7.89956 36.8995 7.89957 39.2426 10.2427L55.2426 26.2427C56.0866 27.0866 56.6531 28.156 56.8837 29.3093C56.9605 29.6937 57 30.0874 57 30.4852L57 59.9999C57 60.4592 56.9484 60.9066 56.8507 61.3363C56.2432 64.0068 53.8544 65.9999 51 65.9999L19 66.0001C15.6863 66.0001 13 63.3138 13 60.0001V30.4854C13 28.8941 13.6321 27.3679 14.7574 26.2427L30.7574 10.2427ZM31.5 24.5001C33.433 22.5671 36.567 22.5671 38.5 24.5001C40.433 26.4331 40.433 29.5671 38.5 31.5001C36.567 33.4331 33.433 33.4331 31.5 31.5001C29.567 29.5671 29.567 26.4331 31.5 24.5001Z" fill="currentColor" />
</svg>