<svg viewBox="0 0 80 80" fill="none">
  <path fill-rule="evenodd" clip-rule="evenodd" d="M17.8564 19C17.8564 15.9698 19.5684 13.1997 22.2787 11.8446C24.5309 10.7185 27.1819 10.7185 29.4341 11.8446C32.1444 13.1997 33.8564 15.9698 33.8564 19V42.7063C33.8564 43.3557 34.1782 43.9573 34.679 44.3707C37.8363 46.9771 39.7128 50.8828 39.7128 55.0557C39.7128 60.0061 37.0718 64.5805 32.7846 67.0557C28.4974 69.5309 23.2154 69.5309 18.9282 67.0557C14.641 64.5805 12 60.0061 12 55.0557C12 50.8828 13.8766 46.9771 17.0338 44.3707C17.5346 43.9573 17.8564 43.3557 17.8564 42.7063L17.8564 19ZM22.5329 49H29.2668C29.2979 49.0194 29.3294 49.0383 29.3611 49.0566C31.5047 50.2942 32.8252 52.5814 32.8252 55.0566C32.8252 57.5318 31.5047 59.819 29.3611 61.0566C27.2175 62.2942 24.5765 62.2942 22.4329 61.0566C20.2893 59.819 18.9688 57.5318 18.9688 55.0566C18.9688 52.5814 20.2893 50.2942 22.4329 49.0566C22.4661 49.0375 22.4995 49.0186 22.5329 49Z" fill="currentColor" />
  <path d="M53.0407 11.4577C52.2327 10.7046 50.9672 10.7491 50.214 11.5571C49.4609 12.3651 49.5054 13.6307 50.3135 14.3838L53.0407 11.4577ZM55.0022 16.02L53.6386 17.483C54.4067 18.1989 55.5977 18.1989 56.3659 17.483L55.0022 16.02ZM49.0185 19.4747L49.6037 21.3872C50.6078 21.0799 51.2033 20.0485 50.9673 19.0253L49.0185 19.4747ZM49.9459 14.596C49.6977 13.5197 48.6239 12.8484 47.5476 13.0966C46.4713 13.3448 45.8 14.4185 46.0482 15.4948L49.9459 14.596ZM59.6901 14.3847C60.4981 13.6316 60.5426 12.366 59.7895 11.558C59.0364 10.75 57.7708 10.7055 56.9628 11.4586L59.6901 14.3847ZM63.956 15.4962C64.2042 14.4198 63.5329 13.3461 62.4566 13.0979C61.3803 12.8497 60.3065 13.521 60.0583 14.5973L63.956 15.4962ZM60.9861 19.4747L59.0372 19.0253C58.8012 20.0485 59.3967 21.0799 60.4008 21.3872L60.9861 19.4747ZM64.8081 22.7358C65.8643 23.059 66.9825 22.4648 67.3057 21.4086C67.629 20.3523 67.0347 19.2341 65.9785 18.9109L64.8081 22.7358ZM65.9785 26.9481C67.0347 26.6248 67.629 25.5066 67.3057 24.4504C66.9825 23.3941 65.8643 22.7999 64.8081 23.1231L65.9785 26.9481ZM60.9861 26.3842L60.4008 24.4717C59.3967 24.779 58.8012 25.8104 59.0372 26.8336L60.9861 26.3842ZM60.0877 31.3891C60.3359 32.4654 61.4097 33.1367 62.486 32.8885C63.5623 32.6403 64.2336 31.5666 63.9854 30.4903L60.0877 31.3891ZM57.0585 34.4895C57.8665 35.2426 59.1321 35.1981 59.8852 34.3901C60.6383 33.5821 60.5938 32.3165 59.7858 31.5634L57.0585 34.4895ZM55.0022 29.8389L56.3659 28.3759C55.5977 27.66 54.4067 27.66 53.6386 28.3759L55.0022 29.8389ZM50.2177 31.5643C49.4097 32.3174 49.3652 33.583 50.1183 34.391C50.8714 35.199 52.137 35.2435 52.945 34.4904L50.2177 31.5643ZM46.0188 30.4916C45.7706 31.5679 46.4419 32.6416 47.5182 32.8898C48.5945 33.138 49.6683 32.4667 49.9165 31.3904L46.0188 30.4916ZM49.0185 26.3842L50.9673 26.8336C51.2033 25.8104 50.6078 24.779 49.6037 24.4717L49.0185 26.3842ZM45.1939 23.1223C44.1377 22.7991 43.0194 23.3934 42.6962 24.4496C42.373 25.5058 42.9672 26.6241 44.0234 26.9473L45.1939 23.1223ZM44.0234 18.9116C42.9672 19.2349 42.373 20.3531 42.6962 21.4093C43.0194 22.4656 44.1377 23.0598 45.1939 22.7366L44.0234 18.9116ZM50.3135 14.3838L53.6386 17.483L56.3659 14.5569L53.0407 11.4577L50.3135 14.3838ZM50.9673 19.0253L49.9459 14.596L46.0482 15.4948L47.0696 19.9241L50.9673 19.0253ZM56.3659 17.483L59.6901 14.3847L56.9628 11.4586L53.6386 14.5569L56.3659 17.483ZM60.0583 14.5973L59.0372 19.0253L62.9349 19.9241L63.956 15.4962L60.0583 14.5973ZM60.4008 21.3872L64.8081 22.7358L65.9785 18.9109L61.5713 17.5622L60.4008 21.3872ZM64.8081 23.1231L60.4008 24.4717L61.5713 28.2967L65.9785 26.9481L64.8081 23.1231ZM59.0372 26.8336L60.0877 31.3891L63.9854 30.4903L62.9349 25.9348L59.0372 26.8336ZM59.7858 31.5634L56.3659 28.3759L53.6386 31.302L57.0585 34.4895L59.7858 31.5634ZM53.6386 28.3759L50.2177 31.5643L52.945 34.4904L56.3659 31.302L53.6386 28.3759ZM49.9165 31.3904L50.9673 26.8336L47.0696 25.9348L46.0188 30.4916L49.9165 31.3904ZM49.6037 24.4717L45.1939 23.1223L44.0234 26.9473L48.4332 28.2967L49.6037 24.4717ZM45.1939 22.7366L49.6037 21.3872L48.4332 17.5622L44.0234 18.9116L45.1939 22.7366Z" fill="currentColor" />
  <path d="M55.0002 11L57.0002 10.998C56.9991 9.89421 56.104 9 55.0002 9C53.8964 9 53.0013 9.89421 53.0002 10.998L55.0002 11ZM65.3925 17L66.3943 18.731C67.3496 18.1782 67.6765 16.9559 67.1246 16C66.5727 15.0441 65.3507 14.716 64.3943 15.2669L65.3925 17ZM65.3925 29L64.3943 30.7331C65.3507 31.284 66.5727 30.9559 67.1246 30C67.6765 29.0441 67.3496 27.8218 66.3943 27.269L65.3925 29ZM55.0002 35L53.0002 35.002C53.0013 36.1058 53.8964 37 55.0002 37C56.104 37 56.9991 36.1058 57.0002 35.002L55.0002 35ZM44.6079 29L43.6062 27.269C42.6508 27.8218 42.324 29.0441 42.8759 30C43.4278 30.9559 44.6497 31.284 45.6062 30.7331L44.6079 29ZM44.6079 17L45.6062 15.2669C44.6497 14.716 43.4278 15.0441 42.8759 16C42.324 16.9559 42.6508 18.1782 43.6062 18.731L44.6079 17ZM50.496 20.3916L51.4943 18.6586L50.496 20.3916ZM54.9934 17.7951L56.9934 17.7971L54.9934 17.7951ZM50.4892 20.4034L49.4875 22.1345L50.4892 20.4034ZM54.9934 28.2049L56.9934 28.2029L54.9934 28.2049ZM50.496 25.6084L51.4943 27.3414L50.496 25.6084ZM55.007 28.2049L53.007 28.2029L55.007 28.2049ZM59.5112 20.4034L60.513 22.1345L59.5112 20.4034ZM59.5112 25.5966L60.513 23.8655L59.5112 25.5966ZM55.007 17.7951L53.007 17.7971L55.007 17.7951ZM59.5044 20.3916L60.5027 22.1247L59.5044 20.3916ZM53.0002 11.002L53.007 17.7971L57.007 17.7931L57.0002 10.998L53.0002 11.002ZM60.5027 22.1247L66.3908 18.7331L64.3943 15.2669L58.5062 18.6586L60.5027 22.1247ZM64.3908 15.269L58.5095 18.6724L60.513 22.1345L66.3943 18.731L64.3908 15.269ZM58.5095 27.3276L64.3908 30.731L66.3943 27.269L60.513 23.8655L58.5095 27.3276ZM66.3908 27.2669L60.5027 23.8753L58.5062 27.3414L64.3943 30.7331L66.3908 27.2669ZM53.007 28.2029L53.0002 34.998L57.0002 35.002L57.007 28.2069L53.007 28.2029ZM57.0002 34.998L56.9934 28.2029L52.9934 28.2069L53.0002 35.002L57.0002 34.998ZM49.4977 23.8753L43.6096 27.2669L45.6062 30.7331L51.4943 27.3414L49.4977 23.8753ZM45.6096 30.731L51.4909 27.3276L49.4875 23.8655L43.6062 27.269L45.6096 30.731ZM51.4909 18.6724L45.6096 15.269L43.6062 18.731L49.4875 22.1345L51.4909 18.6724ZM43.6096 18.7331L49.4977 22.1247L51.4943 18.6586L45.6062 15.2669L43.6096 18.7331ZM56.9934 17.7971L57.0002 11.002L53.0002 10.998L52.9934 17.7931L56.9934 17.7971ZM49.4977 22.1247C52.8291 24.0436 56.9896 21.6416 56.9934 17.7971L52.9934 17.7931C52.9926 18.562 52.1606 19.0424 51.4943 18.6586L49.4977 22.1247ZM51.4909 27.3276C54.8185 25.402 54.8185 20.598 51.4909 18.6724L49.4875 22.1345C50.153 22.5196 50.153 23.4804 49.4875 23.8655L51.4909 27.3276ZM56.9934 28.2029C56.9896 24.3584 52.8292 21.9564 49.4977 23.8753L51.4943 27.3414C52.1606 26.9576 52.9926 27.438 52.9934 28.2069L56.9934 28.2029ZM60.5027 23.8753C57.1713 21.9564 53.0109 24.3584 53.007 28.2029L57.007 28.2069C57.0078 27.438 57.8399 26.9576 58.5062 27.3414L60.5027 23.8753ZM58.5095 18.6724C55.1819 20.598 55.1819 25.402 58.5095 27.3276L60.513 23.8655C59.8474 23.4804 59.8474 22.5196 60.513 22.1345L58.5095 18.6724ZM53.007 17.7971C53.0109 21.6416 57.1713 24.0436 60.5027 22.1247L58.5062 18.6586C57.8399 19.0424 57.0078 18.562 57.007 17.7931L53.007 17.7971Z" fill="currentColor" />
</svg>