<svg viewBox="0 0 80 80" fill="none">
  <path fill-rule="evenodd" clip-rule="evenodd" d="M17.8564 19C17.8564 15.9698 19.5684 13.1997 22.2787 11.8446C24.5309 10.7185 27.1819 10.7185 29.4341 11.8446C32.1444 13.1997 33.8564 15.9698 33.8564 19V42.7063C33.8564 43.3557 34.1782 43.9573 34.679 44.3707C37.8363 46.9771 39.7128 50.8828 39.7128 55.0557C39.7128 60.0061 37.0718 64.5805 32.7846 67.0557C28.4974 69.5309 23.2154 69.5309 18.9282 67.0557C14.641 64.5805 12 60.0061 12 55.0557C12 50.8828 13.8766 46.9771 17.0338 44.3707C17.5346 43.9573 17.8564 43.3557 17.8564 42.7063L17.8564 19ZM22.5329 49H29.2668C29.2979 49.0194 29.3294 49.0383 29.3611 49.0566C31.5047 50.2942 32.8252 52.5814 32.8252 55.0566C32.8252 57.5318 31.5047 59.819 29.3611 61.0566C27.2175 62.2942 24.5765 62.2942 22.4329 61.0566C20.2893 59.819 18.9688 57.5318 18.9688 55.0566C18.9688 52.5814 20.2893 50.2942 22.4329 49.0566C22.4661 49.0375 22.4995 49.0186 22.5329 49Z" fill="currentColor" />
  <path d="M53.0406 11.4575C52.2326 10.7044 50.967 10.7489 50.2139 11.5569C49.4608 12.365 49.5053 13.6305 50.3133 14.3836L53.0406 11.4575ZM55.0021 16.0198L53.6385 17.4828C54.4066 18.1988 55.5976 18.1988 56.3658 17.4828L55.0021 16.0198ZM49.0183 19.4745L49.6036 21.387C50.6076 21.0798 51.2031 20.0483 50.9672 19.0251L49.0183 19.4745ZM49.9458 14.5958C49.6976 13.5195 48.6238 12.8482 47.5475 13.0964C46.4712 13.3446 45.7999 14.4184 46.0481 15.4947L49.9458 14.5958ZM59.6899 14.3845C60.498 13.6314 60.5425 12.3659 59.7894 11.5579C59.0362 10.7498 57.7707 10.7053 56.9627 11.4584L59.6899 14.3845ZM63.9559 15.496C64.2041 14.4197 63.5328 13.3459 62.4565 13.0977C61.3802 12.8495 60.3064 13.5208 60.0582 14.5971L63.9559 15.496ZM60.9859 19.4745L59.0371 19.0251C58.8011 20.0483 59.3966 21.0798 60.4007 21.387L60.9859 19.4745ZM64.8079 22.7356C65.8642 23.0588 66.9824 22.4646 67.3056 21.4084C67.6288 20.3522 67.0346 19.2339 65.9784 18.9107L64.8079 22.7356ZM65.9784 26.9479C67.0346 26.6247 67.6288 25.5064 67.3056 24.4502C66.9824 23.394 65.8642 22.7997 64.8079 23.123L65.9784 26.9479ZM60.9859 26.384L60.4007 24.4716C59.3966 24.7788 58.8011 25.8103 59.0371 26.8335L60.9859 26.384ZM60.0876 31.3889C60.3358 32.4653 61.4096 33.1366 62.4859 32.8884C63.5622 32.6402 64.2335 31.5664 63.9853 30.4901L60.0876 31.3889ZM57.0584 34.4893C57.8664 35.2425 59.132 35.1979 59.8851 34.3899C60.6382 33.5819 60.5937 32.3164 59.7857 31.5633L57.0584 34.4893ZM55.0021 29.8388L56.3658 28.3757C55.5976 27.6598 54.4066 27.6598 53.6385 28.3757L55.0021 29.8388ZM50.2176 31.5642C49.4096 32.3173 49.3651 33.5828 50.1182 34.3908C50.8713 35.1989 52.1369 35.2434 52.9449 34.4903L50.2176 31.5642ZM46.0187 30.4914C45.7704 31.5677 46.4418 32.6415 47.5181 32.8897C48.5944 33.1379 49.6682 32.4666 49.9164 31.3902L46.0187 30.4914ZM49.0183 26.384L50.9672 26.8335C51.2031 25.8103 50.6076 24.7788 49.6036 24.4716L49.0183 26.384ZM45.1938 23.1222C44.1375 22.799 43.0193 23.3932 42.6961 24.4494C42.3729 25.5056 42.9671 26.6239 44.0233 26.9471L45.1938 23.1222ZM44.0233 18.9115C42.9671 19.2347 42.3729 20.3529 42.6961 21.4092C43.0193 22.4654 44.1375 23.0596 45.1938 22.7364L44.0233 18.9115ZM50.3133 14.3836L53.6385 17.4828L56.3658 14.5567L53.0406 11.4575L50.3133 14.3836ZM50.9672 19.0251L49.9458 14.5958L46.0481 15.4947L47.0695 19.924L50.9672 19.0251ZM56.3658 17.4828L59.6899 14.3845L56.9627 11.4584L53.6385 14.5567L56.3658 17.4828ZM60.0582 14.5971L59.0371 19.0251L62.9348 19.924L63.9559 15.496L60.0582 14.5971ZM60.4007 21.387L64.8079 22.7356L65.9784 18.9107L61.5712 17.5621L60.4007 21.387ZM64.8079 23.123L60.4007 24.4716L61.5712 28.2965L65.9784 26.9479L64.8079 23.123ZM59.0371 26.8335L60.0876 31.3889L63.9853 30.4901L62.9348 25.9346L59.0371 26.8335ZM59.7857 31.5633L56.3658 28.3757L53.6385 31.3018L57.0584 34.4893L59.7857 31.5633ZM53.6385 28.3757L50.2176 31.5642L52.9449 34.4903L56.3658 31.3018L53.6385 28.3757ZM49.9164 31.3902L50.9672 26.8335L47.0695 25.9346L46.0187 30.4914L49.9164 31.3902ZM49.6036 24.4716L45.1938 23.1222L44.0233 26.9471L48.4331 28.2965L49.6036 24.4716ZM45.1938 22.7364L49.6036 21.387L48.4331 17.5621L44.0233 18.9115L45.1938 22.7364Z" fill="currentColor" />
  <path d="M55 11L57 10.998C56.9989 9.89421 56.1038 9 55 9C53.8962 9 53.0011 9.89421 53 10.998L55 11ZM65.3923 17L66.394 18.731C67.3494 18.1782 67.6762 16.9559 67.1243 16C66.5724 15.0441 65.3505 14.716 64.394 15.2669L65.3923 17ZM65.3923 29L64.394 30.7331C65.3505 31.284 66.5724 30.9559 67.1243 30C67.6762 29.0441 67.3494 27.8218 66.394 27.269L65.3923 29ZM55 35L53 35.002C53.0011 36.1058 53.8962 37 55 37C56.1038 37 56.9989 36.1058 57 35.002L55 35ZM44.6077 29L43.6059 27.269C42.6506 27.8218 42.3237 29.0441 42.8756 30C43.4275 30.9559 44.6495 31.284 45.6059 30.7331L44.6077 29ZM44.6077 17L45.6059 15.2669C44.6495 14.716 43.4275 15.0441 42.8756 16C42.3237 16.9559 42.6506 18.1782 43.6059 18.731L44.6077 17ZM50.4958 20.3916L51.494 18.6586L50.4958 20.3916ZM54.9932 17.7951L56.9932 17.7971L54.9932 17.7951ZM50.489 20.4034L49.4872 22.1345L50.489 20.4034ZM54.9932 28.2049L56.9932 28.2029L54.9932 28.2049ZM50.4958 25.6084L51.494 27.3414L50.4958 25.6084ZM55.0068 28.2049L53.0068 28.2029L55.0068 28.2049ZM59.511 20.4034L60.5127 22.1345L59.511 20.4034ZM59.511 25.5966L60.5127 23.8655L59.511 25.5966ZM55.0068 17.7951L53.0068 17.7971L55.0068 17.7951ZM59.5042 20.3916L60.5024 22.1247L59.5042 20.3916ZM53 11.002L53.0068 17.7971L57.0068 17.7931L57 10.998L53 11.002ZM60.5024 22.1247L66.3905 18.7331L64.394 15.2669L58.5059 18.6586L60.5024 22.1247ZM64.3905 15.269L58.5092 18.6724L60.5127 22.1345L66.394 18.731L64.3905 15.269ZM58.5092 27.3276L64.3905 30.731L66.394 27.269L60.5127 23.8655L58.5092 27.3276ZM66.3905 27.2669L60.5024 23.8753L58.5059 27.3414L64.394 30.7331L66.3905 27.2669ZM53.0068 28.2029L53 34.998L57 35.002L57.0068 28.2069L53.0068 28.2029ZM57 34.998L56.9932 28.2029L52.9932 28.2069L53 35.002L57 34.998ZM49.4975 23.8753L43.6094 27.2669L45.6059 30.7331L51.494 27.3414L49.4975 23.8753ZM45.6094 30.731L51.4907 27.3276L49.4872 23.8655L43.6059 27.269L45.6094 30.731ZM51.4907 18.6724L45.6094 15.269L43.6059 18.731L49.4872 22.1345L51.4907 18.6724ZM43.6094 18.7331L49.4975 22.1247L51.494 18.6586L45.6059 15.2669L43.6094 18.7331ZM56.9932 17.7971L57 11.002L53 10.998L52.9932 17.7931L56.9932 17.7971ZM49.4975 22.1247C52.8289 24.0436 56.9893 21.6416 56.9932 17.7971L52.9932 17.7931C52.9924 18.562 52.1603 19.0424 51.494 18.6586L49.4975 22.1247ZM51.4907 27.3276C54.8182 25.402 54.8182 20.598 51.4907 18.6724L49.4872 22.1345C50.1527 22.5196 50.1527 23.4804 49.4872 23.8655L51.4907 27.3276ZM56.9932 28.2029C56.9893 24.3584 52.8289 21.9564 49.4975 23.8753L51.494 27.3414C52.1603 26.9576 52.9924 27.438 52.9932 28.2069L56.9932 28.2029ZM60.5024 23.8753C57.171 21.9564 53.0106 24.3584 53.0068 28.2029L57.0068 28.2069C57.0075 27.438 57.8396 26.9576 58.5059 27.3414L60.5024 23.8753ZM58.5092 18.6724C55.1817 20.598 55.1817 25.402 58.5092 27.3276L60.5127 23.8655C59.8472 23.4804 59.8472 22.5196 60.5127 22.1345L58.5092 18.6724ZM53.0068 17.7971C53.0106 21.6416 57.171 24.0436 60.5024 22.1247L58.5059 18.6586C57.8396 19.0424 57.0075 18.562 57.0068 17.7931L53.0068 17.7971Z" fill="currentColor" />
</svg>