<svg viewBox="0 0 80 80" fill="none">
  <path fill-rule="evenodd" clip-rule="evenodd" d="M44.7275 54H56.789C60.6026 54 64.2562 52.4673 66.9284 49.7465L67.0769 49.5953C69.5918 47.0347 71.0009 43.5891 71.0009 40C71.0009 36.4109 69.5918 32.9653 67.0769 30.4047L66.9284 30.2535C64.2562 27.5327 60.6026 26 56.789 26L44.7275 26C47.8269 29.9255 49.5889 34.8373 49.5889 40C49.5889 45.1627 47.8269 50.0745 44.7275 54Z" fill="currentColor" />
  <path d="M44.7275 54L43.1578 52.7606C42.6829 53.3622 42.5935 54.1824 42.9277 54.8721C43.262 55.5619 43.961 56 44.7275 56V54ZM66.9284 49.7465L65.5016 48.3451L65.5015 48.3451L66.9284 49.7465ZM67.0769 49.5953L68.5038 50.9967L68.5038 50.9967L67.0769 49.5953ZM67.0769 30.4047L68.5038 29.0033L68.5038 29.0033L67.0769 30.4047ZM66.9284 30.2535L65.5015 31.6549L65.5016 31.6549L66.9284 30.2535ZM44.7275 26V24C43.961 24 43.262 24.4381 42.9277 25.1279C42.5935 25.8176 42.6828 26.6378 43.1578 27.2394L44.7275 26ZM44.7275 56H56.789L56.789 52H44.7275V56ZM56.789 56C61.1393 56 65.3071 54.2516 68.3553 51.1479L65.5015 48.3451C63.2054 50.683 60.0659 52 56.789 52L56.789 56ZM68.3553 51.1479L68.5038 50.9967L65.65 48.1939L65.5016 48.3451L68.3553 51.1479ZM68.5038 50.9967C71.386 48.0621 73.0009 44.1133 73.0009 40L69.0009 40C69.0009 43.0649 67.7976 46.0073 65.65 48.1939L68.5038 50.9967ZM73.0009 40C73.0009 35.8867 71.386 31.9379 68.5038 29.0033L65.65 31.8061C67.7976 33.9927 69.0009 36.9351 69.0009 40L73.0009 40ZM68.5038 29.0033L68.3553 28.8521L65.5016 31.6549L65.65 31.8061L68.5038 29.0033ZM68.3553 28.8521C65.3071 25.7484 61.1393 24 56.789 24V28C60.0659 28 63.2054 29.317 65.5015 31.6549L68.3553 28.8521ZM56.789 24L44.7275 24V28H56.789V24ZM43.1578 27.2394C45.9833 30.8179 47.5889 35.2947 47.5889 40H51.5889C51.5889 34.3799 49.6706 29.0331 46.2972 24.7606L43.1578 27.2394ZM47.5889 40C47.5889 44.7053 45.9833 49.1821 43.1578 52.7606L46.2972 55.2394C49.6706 50.9669 51.5889 45.6201 51.5889 40H47.5889Z" fill="currentColor" />
  <path d="M19.2058 26.5C24.0289 23.7154 29.9711 23.7154 34.7942 26.5C39.6173 29.2846 42.5885 34.4308 42.5885 40C42.5885 45.5692 39.6173 50.7154 34.7942 53.5C29.9711 56.2846 24.0289 56.2846 19.2058 53.5C14.3827 50.7154 11.4115 45.5692 11.4115 40C11.4115 34.4308 14.3827 29.2846 19.2058 26.5Z" fill="currentColor" stroke="currentColor" stroke-width="4" stroke-linecap="round" stroke-linejoin="round" />
</svg>