<svg viewBox="0 0 80 80" fill="none">
  <path fill-rule="evenodd" clip-rule="evenodd" d="M11.6258 20.1104L13.6679 22.1525L14.0215 22.5061L18.9705 27.4551L18.9735 27.4521L22.1293 30.6079L28.8166 28.816L30.6084 22.1287L27.4527 18.973L27.4558 18.9698L22.5067 14.0208L22.1532 13.6672L20.1114 11.6254C20.7243 11.3734 21.3572 11.1588 22.0073 10.9846C27.3868 9.54322 33.1266 11.0812 37.0646 15.0192C41.0027 18.9573 42.5406 24.6971 41.0992 30.0765C40.9042 30.8043 40.6587 31.5106 40.3665 32.1914L40.4056 32.2305L34.9571 37.679C31.7179 36.7083 28.0628 37.5023 25.5041 40.061L24.0609 41.5041C20.6925 41.0722 17.4987 39.5441 15.0192 37.0646C11.0812 33.1266 9.54322 27.3868 10.9846 22.0073C11.1589 21.3569 11.3736 20.7236 11.6258 20.1104ZM41.1725 49.968L55.585 64.3804C57.9281 66.7236 61.7271 66.7236 64.0703 64.3804C66.4134 62.0373 66.4134 58.2383 64.0703 55.8952L46.7696 38.5945L41.3211 44.0429C41.9007 45.977 41.8512 48.0593 41.1725 49.968Z" fill="currentColor" />
  <path d="M37.1714 41.8284L48.4851 30.5146" stroke="currentColor" stroke-width="5" stroke-linecap="square" stroke-linejoin="round" />
  <path d="M62.6271 10.716L68.284 16.3728L57.1547 30.3305L48.485 30.515L48.6694 21.8452L62.6271 10.716Z" fill="currentColor" />
  <path d="M27.2719 41.8287C30.0056 39.095 34.4378 39.095 37.1714 41.8287C39.9051 44.5623 39.9051 48.9945 37.1714 51.7282L20.908 67.9916C20.1269 68.7727 18.8606 68.7727 18.0795 67.9916L11.0085 60.9205C10.2274 60.1395 10.2274 58.8732 11.0085 58.0921L27.2719 41.8287Z" fill="currentColor" />
</svg>