<svg viewBox="0 0 80 80" fill="none">
  <path d="M50 25C50 23.8954 50.8954 23 52 23H60.385C61.6685 23 62.874 23.6159 63.6262 24.6559L74 39H50V25Z" stroke="currentColor" stroke-width="4" stroke-linecap="round" stroke-linejoin="round" />
  <path fill-rule="evenodd" clip-rule="evenodd" d="M74 39H50V55H50.7859C50.929 54.1972 51.1591 53.406 51.4761 52.6408C52.6322 49.8497 54.8497 47.6322 57.6408 46.4761C60.432 45.3199 63.568 45.3199 66.3592 46.4761C69.1503 47.6322 71.3678 49.8497 72.5239 52.6408C72.8409 53.406 73.071 54.1972 73.2141 55H74V39ZM64.7385 55C64.3743 54.5014 63.8776 54.1073 63.2977 53.8671C62.4668 53.5229 61.5332 53.5229 60.7023 53.8671C60.1224 54.1073 59.6257 54.5014 59.2615 55H64.7385Z" fill="currentColor" />
  <path d="M50 39V37C48.8954 37 48 37.8954 48 39H50ZM74 39H76C76 37.8954 75.1046 37 74 37V39ZM50 55H48C48 56.1046 48.8954 57 50 57V55ZM50.7859 55V57C51.755 57 52.5847 56.3052 52.7548 55.3511L50.7859 55ZM51.4761 52.6408L53.3238 53.4062V53.4062L51.4761 52.6408ZM57.6408 46.4761L58.4062 48.3238L57.6408 46.4761ZM66.3592 46.4761L67.1245 44.6283V44.6283L66.3592 46.4761ZM72.5239 52.6408L70.6762 53.4062L72.5239 52.6408ZM73.2141 55L71.2452 55.3511C71.4153 56.3052 72.245 57 73.2141 57V55ZM74 55V57C75.1046 57 76 56.1046 76 55H74ZM64.7385 55V57C65.4914 57 66.1806 56.5771 66.5216 55.9057C66.8626 55.2344 66.7977 54.4284 66.3536 53.8204L64.7385 55ZM63.2977 53.8671L62.5323 55.7148H62.5323L63.2977 53.8671ZM60.7023 53.8671L61.4677 55.7149L61.4677 55.7148L60.7023 53.8671ZM59.2615 55L57.6464 53.8204C57.2023 54.4284 57.1374 55.2344 57.4784 55.9057C57.8194 56.5771 58.5086 57 59.2615 57V55ZM50 41H74V37H50V41ZM52 55V39H48V55H52ZM50.7859 53H50V57H50.7859V53ZM52.7548 55.3511C52.8728 54.6893 53.0625 54.0372 53.3238 53.4062L49.6283 51.8755C49.2557 52.7749 48.9853 53.705 48.8169 54.6489L52.7548 55.3511ZM53.3238 53.4062C54.2769 51.1051 56.1051 49.2769 58.4062 48.3238L56.8755 44.6283C53.5943 45.9874 50.9874 48.5943 49.6283 51.8755L53.3238 53.4062ZM58.4062 48.3238C60.7073 47.3707 63.2927 47.3707 65.5938 48.3238L67.1245 44.6283C63.8433 43.2692 60.1567 43.2692 56.8755 44.6283L58.4062 48.3238ZM65.5938 48.3238C67.8949 49.2769 69.7231 51.1051 70.6762 53.4062L74.3717 51.8755C73.0126 48.5943 70.4057 45.9874 67.1245 44.6283L65.5938 48.3238ZM70.6762 53.4062C70.9375 54.0372 71.1272 54.6893 71.2452 55.3511L75.1831 54.6489C75.0147 53.705 74.7443 52.7749 74.3717 51.8755L70.6762 53.4062ZM74 53H73.2141V57H74V53ZM72 39V55H76V39H72ZM66.3536 53.8204C65.7747 53.0278 64.985 52.4012 64.0631 52.0193L62.5323 55.7148C62.7701 55.8134 62.9739 55.975 63.1234 56.1796L66.3536 53.8204ZM64.0631 52.0193C62.7421 51.4722 61.2579 51.4722 59.9369 52.0193L61.4677 55.7148C61.8085 55.5737 62.1915 55.5737 62.5323 55.7148L64.0631 52.0193ZM59.9369 52.0193C59.015 52.4012 58.2253 53.0278 57.6464 53.8204L60.8766 56.1796C61.0261 55.975 61.2299 55.8134 61.4677 55.7149L59.9369 52.0193ZM64.7385 53H59.2615V57H64.7385V53Z" fill="currentColor" />
  <path d="M59.1716 50.1716C60.9826 49.4214 63.0174 49.4214 64.8284 50.1716C66.6394 50.9217 68.0783 52.3606 68.8284 54.1716C69.5786 55.9826 69.5786 58.0174 68.8284 59.8284C68.0783 61.6394 66.6394 63.0783 64.8284 63.8284C63.0174 64.5786 60.9826 64.5786 59.1716 63.8284C57.3606 63.0783 55.9217 61.6394 55.1716 59.8284C54.4214 58.0174 54.4214 55.9826 55.1716 54.1716C55.9217 52.3606 57.3606 50.9217 59.1716 50.1716Z" fill="currentColor" />
  <path fill-rule="evenodd" clip-rule="evenodd" d="M10 15C7.79086 15 6 16.7909 6 19V55H7.78587C7.92904 54.1972 8.1591 53.406 8.47605 52.6408C9.63218 49.8497 11.8497 47.6322 14.6408 46.4761C17.432 45.3199 20.568 45.3199 23.3592 46.4761C26.1503 47.6322 28.3678 49.8497 29.5239 52.6408C29.8409 53.406 30.071 54.1972 30.2141 55H50V19C50 16.7909 48.2091 15 46 15H10ZM21.7385 55C21.3743 54.5014 20.8776 54.1073 20.2977 53.8671C19.4668 53.5229 18.5332 53.5229 17.7023 53.8671C17.1224 54.1073 16.6257 54.5014 16.2615 55H21.7385Z" fill="currentColor" />
  <path d="M6 55H4C4 56.1046 4.89543 57 6 57V55ZM7.78587 55V57C8.755 57 9.58468 56.3052 9.75481 55.3511L7.78587 55ZM8.47605 52.6408L10.3238 53.4062L8.47605 52.6408ZM14.6408 46.4761L15.4062 48.3238H15.4062L14.6408 46.4761ZM23.3592 46.4761L22.5938 48.3238L23.3592 46.4761ZM29.5239 52.6408L27.6762 53.4062L29.5239 52.6408ZM30.2141 55L28.2452 55.3511C28.4153 56.3052 29.245 57 30.2141 57V55ZM50 55V57C51.1046 57 52 56.1046 52 55H50ZM21.7385 55V57C22.4914 57 23.1806 56.5771 23.5216 55.9058C23.8626 55.2344 23.7977 54.4284 23.3536 53.8204L21.7385 55ZM20.2977 53.8671L19.5323 55.7149H19.5323L20.2977 53.8671ZM17.7023 53.8671L18.4677 55.7149H18.4677L17.7023 53.8671ZM16.2615 55L14.6464 53.8204C14.2023 54.4284 14.1374 55.2344 14.4784 55.9058C14.8194 56.5771 15.5086 57 16.2615 57V55ZM8 19C8 17.8954 8.89543 17 10 17V13C6.68629 13 4 15.6863 4 19H8ZM8 55V19H4V55H8ZM7.78587 53H6V57H7.78587V53ZM9.75481 55.3511C9.87282 54.6893 10.0625 54.0372 10.3238 53.4062L6.6283 51.8755C6.25573 52.7749 5.98525 53.705 5.81693 54.6489L9.75481 55.3511ZM10.3238 53.4062C11.2769 51.1051 13.1051 49.2769 15.4062 48.3238L13.8755 44.6283C10.5943 45.9874 7.98741 48.5943 6.6283 51.8755L10.3238 53.4062ZM15.4062 48.3238C17.7073 47.3707 20.2927 47.3707 22.5938 48.3238L24.1245 44.6283C20.8433 43.2692 17.1567 43.2692 13.8755 44.6283L15.4062 48.3238ZM22.5938 48.3238C24.8949 49.2769 26.7231 51.1051 27.6762 53.4062L31.3717 51.8755C30.0126 48.5943 27.4057 45.9874 24.1245 44.6283L22.5938 48.3238ZM27.6762 53.4062C27.9375 54.0372 28.1272 54.6893 28.2452 55.3511L32.1831 54.6489C32.0147 53.705 31.7443 52.7749 31.3717 51.8755L27.6762 53.4062ZM50 53H30.2141V57H50V53ZM48 19V55H52V19H48ZM46 17C47.1046 17 48 17.8954 48 19H52C52 15.6863 49.3137 13 46 13V17ZM10 17H46V13H10V17ZM23.3536 53.8204C22.7747 53.0278 21.985 52.4012 21.0631 52.0193L19.5323 55.7149C19.7701 55.8134 19.9739 55.9749 20.1234 56.1796L23.3536 53.8204ZM21.0631 52.0193C19.7421 51.4722 18.2579 51.4722 16.9369 52.0193L18.4677 55.7149C18.8085 55.5737 19.1915 55.5737 19.5323 55.7149L21.0631 52.0193ZM16.9369 52.0193C16.015 52.4012 15.2253 53.0278 14.6464 53.8204L17.8766 56.1796C18.0261 55.9749 18.2299 55.8134 18.4677 55.7149L16.9369 52.0193ZM21.7385 53H16.2615V57H21.7385V53Z" fill="currentColor" />
  <path d="M16.1716 50.1716C17.9826 49.4214 20.0174 49.4214 21.8284 50.1716C23.6394 50.9217 25.0783 52.3606 25.8284 54.1716C26.5786 55.9826 26.5786 58.0174 25.8284 59.8284C25.0783 61.6394 23.6394 63.0783 21.8284 63.8284C20.0174 64.5786 17.9826 64.5786 16.1716 63.8284C14.3606 63.0783 12.9217 61.6394 12.1716 59.8284C11.4214 58.0174 11.4214 55.9826 12.1716 54.1716C12.9217 52.3606 14.3606 50.9217 16.1716 50.1716Z" fill="currentColor" />
</svg>