<svg viewBox="0 0 80 80" fill="none">
  <path fill-rule="evenodd" clip-rule="evenodd" d="M38.5858 7.4144C39.3669 6.63335 40.6332 6.63335 41.4142 7.4144L72.5269 38.5271C73.308 39.3081 73.308 40.5745 72.5269 41.3555L41.4142 72.4682C40.6332 73.2493 39.3669 73.2493 38.5858 72.4682L7.47312 41.3555C6.69207 40.5745 6.69207 39.3081 7.47312 38.5271L38.5858 7.4144ZM41.1429 24.0001C35.6989 24.0001 31.2857 28.4133 31.2857 33.8573L31.2857 43.7143C31.2857 43.7144 31.2857 43.7143 31.2857 43.7143L26.6366 43.7145C25.2946 43.7145 24.6225 45.337 25.5715 46.2859L31.922 52.6365C32.6752 53.3896 33.8963 53.3896 34.6494 52.6365L41 46.2859C41.949 45.337 41.2769 43.7145 39.9349 43.7145H35.2857C35.2857 43.7144 35.2857 43.7145 35.2857 43.7145L35.2857 33.8573C35.2857 30.6224 37.908 28.0001 41.1429 28.0001C44.3777 28.0001 47 30.6224 47 33.8573L47 50.0001C47 51.1047 47.8954 52.0001 49 52.0001C50.1046 52.0001 51 51.1047 51 50.0001L51 33.8573C51 28.4133 46.5868 24.0001 41.1429 24.0001Z" fill="currentColor" />
</svg>