<svg viewBox="0 0 80 80" fill="none">
  <circle cx="40" cy="41" r="28" stroke="currentColor" stroke-width="5" stroke-linecap="round" stroke-linejoin="round" />
  <path fill-rule="evenodd" clip-rule="evenodd" d="M64.3211 54.7791C69.226 46.1561 69.226 35.5871 64.3211 26.9641L64.1428 26.6506C59.2524 18.0532 50.1229 12.7431 40.2319 12.7431C30.341 12.7431 21.2115 18.0532 16.3211 26.6506L16.1428 26.9641C11.2379 35.5871 11.2379 46.1561 16.1428 54.7791L16.3211 55.0926C17.4224 57.0286 18.7386 58.798 20.2301 60.3775C21.9756 57.7429 24.5495 55.6613 27.6661 54.5399L29.2687 53.9633C36.3553 51.4135 44.109 51.4135 51.1956 53.9633L52.7982 54.5399C55.9147 55.6612 58.4885 57.7428 60.234 60.3773C61.7254 58.7978 63.0416 57.0285 64.1428 55.0926L64.3211 54.7791ZM33.4486 30.9543C35.0777 28.8624 37.5808 27.6392 40.2321 27.6392C42.8835 27.6392 45.3866 28.8624 47.0157 30.9543L47.1258 31.0956C48.77 33.2069 49.3851 35.9423 48.8029 38.5542L48.7329 38.8681C48.1591 41.4424 46.4496 43.6181 44.0841 44.7846C41.6557 45.9821 38.8085 45.9821 36.3801 44.7846C34.0146 43.6181 32.3051 41.4424 31.7313 38.8681L31.6614 38.5542C31.0792 35.9423 31.6943 33.2069 33.3385 31.0956L33.4486 30.9543L31.4762 29.4182L33.4486 30.9543ZM40.2321 22.6392C36.0389 22.6392 32.0802 24.5738 29.5038 27.8821L29.3937 28.0235C26.8324 31.3123 25.8743 35.5733 26.7811 39.6419L26.8511 39.9559C27.7543 44.0081 30.4452 47.4328 34.1688 49.269C37.9913 51.154 42.473 51.154 46.2955 49.269C50.0191 47.4328 52.71 44.0081 53.6132 39.9559L53.6831 39.642C54.59 35.5733 53.6319 31.3123 51.0706 28.0235L50.9605 27.8821C48.3841 24.5738 44.4254 22.6392 40.2321 22.6392ZM30.9615 58.668C36.9539 56.5119 43.5104 56.5119 49.5028 58.668L51.1054 59.2446C52.5881 59.7781 53.8863 60.6367 54.9319 61.7236C50.7277 64.7776 45.603 66.5001 40.2315 66.5001C34.8603 66.5001 29.7359 64.7778 25.5319 61.7241C26.5775 60.637 27.8759 59.7782 29.3589 59.2446L30.9615 58.668Z" fill="currentColor" />
</svg>