<svg viewBox="0 0 80 80" fill="none">
  <circle cx="40" cy="41" r="28" stroke="currentColor" stroke-width="5" stroke-linecap="round" stroke-linejoin="round" />
  <path fill-rule="evenodd" clip-rule="evenodd" d="M64.0892 54.9075C68.9941 46.2845 68.9941 35.7155 64.0892 27.0925L63.9108 26.779C59.0205 18.1816 49.891 12.8715 40 12.8715C30.109 12.8715 20.9795 18.1816 16.0892 26.779L15.9108 27.0925C11.0059 35.7155 11.0059 46.2845 15.9108 54.9075L16.0892 55.221C17.1904 57.1571 18.5066 58.9264 19.9981 60.5059C21.7436 57.8713 24.3175 55.7897 27.4341 54.6683L29.0367 54.0917C36.1233 51.5419 43.8771 51.5419 50.9637 54.0917L52.5663 54.6683C55.6828 55.7896 58.2566 57.8712 60.0021 60.5057C61.4935 58.9262 62.8096 57.1569 63.9108 55.221L64.0892 54.9075ZM33.2167 31.0827C34.8458 28.9908 37.3488 27.7676 40.0002 27.7676C42.6516 27.7676 45.1547 28.9908 46.7837 31.0827L46.8939 31.2241C48.5381 33.3353 49.1531 36.0707 48.571 38.6826L48.501 38.9965C47.9272 41.5708 46.2177 43.7465 43.8522 44.913C41.4238 46.1105 38.5766 46.1105 36.1482 44.913C33.7827 43.7465 32.0732 41.5708 31.4994 38.9965L31.4294 38.6826C30.8473 36.0707 31.4623 33.3353 33.1065 31.2241L33.2167 31.0827L31.2742 29.5699L33.2167 31.0827ZM40.0002 22.7676C35.807 22.7676 31.8483 24.7022 29.2718 28.0105L29.1617 28.1519C26.6005 31.4407 25.6423 35.7017 26.5492 39.7704L26.6192 40.0843C27.5224 44.1365 30.2133 47.5612 33.9368 49.3974C37.7593 51.2824 42.2411 51.2824 46.0636 49.3974C49.7871 47.5612 52.478 44.1365 53.3812 40.0843L53.4512 39.7704C54.3581 35.7017 53.4 31.4407 50.8387 28.1519L50.7286 28.0105C48.1521 24.7022 44.1934 22.7676 40.0002 22.7676ZM29.1269 59.373L30.7295 58.7964C36.7219 56.6403 43.2785 56.6403 49.2709 58.7964L50.8735 59.373C52.3562 59.9065 53.6544 60.7651 54.6999 61.852C50.4958 64.906 45.3711 66.6285 39.9996 66.6285C34.6284 66.6285 29.5039 64.9062 25.3 61.8525C26.3456 60.7654 27.644 59.9066 29.1269 59.373Z" fill="currentColor" />
</svg>