<svg viewBox="0 0 80 80" fill="none">
  <circle cx="40" cy="41" r="28" stroke="currentColor" stroke-width="5" stroke-linecap="round" stroke-linejoin="round" />
  <path fill-rule="evenodd" clip-rule="evenodd" d="M64.3216 54.7791C69.2265 46.1561 69.2265 35.5871 64.3216 26.9641L64.1433 26.6506C59.2529 18.0532 50.1234 12.7431 40.2324 12.7431C30.3415 12.7431 21.2119 18.0532 16.3216 26.6506L16.1433 26.9641C11.2384 35.5871 11.2384 46.1561 16.1433 54.7791L16.3216 55.0926C17.4228 57.0286 18.7391 58.798 20.2305 60.3775C21.9761 57.7429 24.5499 55.6613 27.6666 54.5399L29.2692 53.9633C36.3558 51.4135 44.1095 51.4135 51.1961 53.9633L52.7987 54.5399C55.9152 55.6612 58.489 57.7428 60.2345 60.3773C61.7259 58.7978 63.0421 57.0285 64.1433 55.0926L64.3216 54.7791ZM33.4491 30.9543C35.0782 28.8624 37.5813 27.6392 40.2326 27.6392C42.884 27.6392 45.3871 28.8624 47.0162 30.9543L47.1263 31.0956C48.7705 33.2069 49.3856 35.9423 48.8034 38.5542L48.7334 38.8681C48.1596 41.4424 46.4501 43.6181 44.0846 44.7846C41.6562 45.9821 38.809 45.9821 36.3806 44.7846C34.0151 43.6181 32.3056 41.4424 31.7318 38.8681L31.6619 38.5542C31.0797 35.9423 31.6948 33.2069 33.339 31.0956L33.4491 30.9543L31.4767 29.4182L33.4491 30.9543ZM40.2326 22.6392C36.0394 22.6392 32.0807 24.5738 29.5042 27.8821L29.3941 28.0235C26.8329 31.3123 25.8747 35.5733 26.7816 39.6419L26.8516 39.9559C27.7548 44.0081 30.4457 47.4328 34.1692 49.269C37.9917 51.154 42.4735 51.154 46.296 49.269C50.0196 47.4328 52.7104 44.0081 53.6137 39.9559L53.6836 39.642C54.5905 35.5733 53.6324 31.3123 51.0711 28.0235L50.961 27.8821C48.3845 24.5738 44.4258 22.6392 40.2326 22.6392ZM30.9619 58.668C36.9544 56.5119 43.5109 56.5119 49.5033 58.668L51.1059 59.2446C52.5886 59.7781 53.8868 60.6367 54.9324 61.7236C50.7282 64.7776 45.6035 66.5001 40.232 66.5001C34.8608 66.5001 29.7364 64.7778 25.5324 61.7241C26.578 60.637 27.8764 59.7782 29.3593 59.2446L30.9619 58.668Z" fill="currentColor" />
</svg>