<svg viewBox="0 0 80 80" fill="none">
  <path d="M26.4962 14.3359C25.5771 12.9573 23.7145 12.5848 22.3359 13.5038C20.9573 14.4229 20.5848 16.2855 21.5038 17.6641L26.4962 14.3359ZM37 64C37 65.6569 38.3431 67 40 67C41.6569 67 43 65.6569 43 64H37ZM58.4962 17.6641C59.4152 16.2855 59.0427 14.4229 57.6641 13.5038C56.2855 12.5848 54.4229 12.9573 53.5038 14.3359L58.4962 17.6641ZM42.4962 38.3359L26.4962 14.3359L21.5038 17.6641L37.5038 41.6641L42.4962 38.3359ZM37 40V64H43V40H37ZM42.4962 41.6641L58.4962 17.6641L53.5038 14.3359L37.5038 38.3359L42.4962 41.6641Z" fill="currentColor" />
</svg>