<svg viewBox="0 0 80 80" fill="none">
  <g clip-path="url(#clip0a-nB)">
    <path d="M80 0H0V40H80V0Z" fill="#EB5757" />
    <path d="M80 40H0V80H80V40Z" fill="#333333" />
    <path fill-rule="evenodd" clip-rule="evenodd" d="M16.5718 56.6483C17.6274 57.0574 18.6966 57.3709 19.7697 57.593L19.5173 59.6383L22.493 60.0193L22.7637 57.9786C24.7704 58.083 26.7599 57.8808 28.6694 57.3998L29.3299 59.3536L32.1762 58.4058L31.5329 56.4445C33.3593 55.6785 35.0716 54.6433 36.6057 53.3673L38.0471 54.8396L40.2003 52.7507L38.7735 51.2666C40.0648 49.8094 41.1603 48.1415 42.0021 46.2882L43.9426 46.9904L44.9762 44.1741L43.0429 43.4546C43.5992 41.5007 43.843 39.5194 43.8003 37.5693L45.8486 37.3605L45.5579 34.3747L43.5055 34.5651C43.1614 32.6019 42.5262 30.7043 41.6285 28.9368L43.3875 27.8573L41.8301 25.2933L40.0631 26.3556C38.9198 24.7556 37.534 23.3145 35.9332 22.0945L37.047 20.3631L34.5313 18.7287L33.4003 20.4524C32.6442 20.04 31.8528 19.6716 31.0282 19.352L30.3054 21.2168C39.5745 24.8097 44.176 35.2364 40.5832 44.5055C36.9904 53.7747 26.5637 58.3762 17.2946 54.7835L16.5718 56.6483Z" fill="#F2C94C" />
    <path d="M29.7993 26.0054L31.1395 30.1608L35.5057 30.1513L31.9677 32.7099L33.326 36.8595L29.7993 34.2854L26.2726 36.8595L27.6309 32.7099L24.093 30.1513L28.4592 30.1608L29.7993 26.0054Z" fill="#F2C94C" />
    <path opacity="0.9" d="M22.7993 46.0054L51.7993 64.0054" stroke="#F2C94C" stroke-width="2.5" stroke-linecap="round" stroke-linejoin="round" />
  </g>
  <defs>
    <clipPath id="clip0a-nB">
      <rect width="80" height="80" fill="white" />
    </clipPath>
  </defs>
</svg>