<svg viewBox="0 0 80 80" fill="none">
  <path d="M80 39.922H0V79.844H80V39.922Z" fill="#EB5757" />
  <path d="M80 0V39.922H0V0H80Z" fill="#2F80ED" />
  <rect x="27" y="29" width="26" height="22" fill="#F2F2F2" />
  <path d="M40 42L53 51H27L40 42Z" fill="#219653" />
  <rect x="39" y="35" width="2" height="9" fill="#F2C94C" />
  <path d="M45.6569 37.0503C46.7757 38.0292 47.5376 39.2765 47.8463 40.6344C48.155 41.9922 47.9965 43.3997 47.391 44.6788C46.7855 45.9579 45.7602 47.0511 44.4446 47.8203C43.129 48.5895 41.5822 49 40 49C38.4177 49 36.871 48.5895 35.5554 47.8203C34.2398 47.0511 33.2145 45.9579 32.609 44.6788C32.0035 43.3997 31.845 41.9922 32.1537 40.6344C32.4624 39.2765 33.2243 38.0292 34.3431 37.0503L40 42L45.6569 37.0503Z" fill="#EB5757" />
  <path d="M45.6569 37.0503C46.7757 38.0292 47.5376 39.2765 47.8463 40.6344C48.155 41.9922 47.9965 43.3997 47.391 44.6788C46.7855 45.9579 45.7602 47.0511 44.4446 47.8203C43.129 48.5895 41.5822 49 40 49C38.4177 49 36.871 48.5895 35.5554 47.8203C34.2398 47.0511 33.2145 45.9579 32.609 44.6788C32.0035 43.3997 31.845 41.9922 32.1537 40.6344C32.4624 39.2765 33.2243 38.0292 34.3431 37.0503L37.7373 40.0201C37.2897 40.4117 36.985 40.9106 36.8615 41.4537C36.738 41.9969 36.8014 42.5599 37.0436 43.0715C37.2858 43.5831 37.6959 44.0204 38.2222 44.3281C38.7484 44.6358 39.3671 44.8 40 44.8C40.6329 44.8 41.2516 44.6358 41.7778 44.3281C42.3041 44.0204 42.7142 43.5831 42.9564 43.0715C43.1986 42.5599 43.262 41.9969 43.1385 41.4537C43.015 40.9106 42.7103 40.4117 42.2627 40.0201L45.6569 37.0503Z" fill="#2F80ED" />
  <ellipse cx="40" cy="33" rx="4" ry="3" fill="#219653" />
  <circle cx="34" cy="45" r="2" fill="#F2C94C" />
  <circle cx="46" cy="45" r="2" fill="#F2C94C" />
</svg>