<svg viewBox="0 0 80 80" fill="none">
  <g clip-path="url(#clip0vEKb)">
    <path d="M80 0H0V80H80V0Z" fill="#F2F2F2" />
    <path d="M80 0H0V26.6667H80V0Z" fill="#F2994A" />
    <path d="M80 53.34H0V80.01H80V53.34Z" fill="#6FCF97" />
    <path d="M40 30L40.5579 36.1199L42.8173 30.4051L41.6284 36.4342L45.4064 31.5875L42.5671 37.0375L47.5575 33.4514L43.2977 37.8807L49.0963 35.8458L43.7612 38.8956L49.8982 38.5769L43.92 40L49.8982 41.4231L43.7612 41.1044L49.0963 44.1542L43.2977 42.1193L47.5575 46.5486L42.5671 42.9625L45.4064 48.4125L41.6284 43.5658L42.8173 49.5949L40.5579 43.8801L40 50L39.4421 43.8801L37.1827 49.5949L38.3716 43.5658L34.5936 48.4125L37.4329 42.9625L32.4425 46.5486L36.7023 42.1193L30.9037 44.1542L36.2388 41.1044L30.1018 41.4231L36.08 40L30.1018 38.5769L36.2388 38.8956L30.9037 35.8458L36.7023 37.8807L32.4425 33.4514L37.4329 37.0375L34.5936 31.5875L38.3716 36.4342L37.1827 30.4051L39.4421 36.1199L40 30Z" fill="#2F80ED" />
    <circle cx="40" cy="40" r="10" stroke="#2F80ED" stroke-width="2" />
  </g>
  <defs>
    <clipPath id="clip0vEKb">
      <rect width="80" height="80" fill="white" />
    </clipPath>
  </defs>
</svg>