<svg viewBox="0 0 80 80" fill="none">
  <g clip-path="url(#clip0wOpW)">
    <path d="M120 -0.0202637H0V26.6464H120V-0.0202637Z" fill="#333333" />
    <path d="M120 26.6465H0V53.3132H120V26.6465Z" fill="#EB5757" />
    <path d="M120 53.313H0V79.9797H120V53.313Z" fill="#219653" />
    <path fill-rule="evenodd" clip-rule="evenodd" d="M41 2.98963C40.9999 2.43739 40.5522 1.98975 40 1.98975C39.4478 1.98975 39.0001 2.43739 39 2.98963V2.98986L38.9994 8.01922C38.9994 8.56194 39.4573 8.98975 40 8.98975C40.5427 8.98975 41.0006 8.56194 41.0006 8.01922L41 2.98986V2.98963ZM42.8014 8.21939C42.6806 8.74858 43.0369 9.26816 43.5662 9.38864C44.0949 9.50899 44.6318 9.19319 44.7524 8.66458L45.8701 3.76511L45.8704 3.76396L45.8704 3.76374C45.9932 3.22534 45.6564 2.68929 45.118 2.5664C44.5796 2.44352 44.0435 2.78032 43.9206 3.3187L43.9205 3.31892L42.8014 8.21939ZM46.4631 9.26293C46.2277 9.75149 46.4568 10.3359 46.9452 10.5716C47.434 10.8075 48.0306 10.6203 48.266 10.1313L50.4464 5.60242L50.4465 5.60221C50.686 5.10463 50.4769 4.50707 49.9793 4.26746C49.4818 4.02785 48.8842 4.23692 48.6445 4.73445L48.6444 4.73465L46.4631 9.26293ZM49.7988 11.0976C49.4606 11.5216 49.5524 12.1416 49.9763 12.48C50.4005 12.8187 51.0249 12.7698 51.3633 12.3453L54.4985 8.41303L54.4987 8.41286C54.8429 7.98106 54.772 7.35194 54.3403 7.00762C53.9085 6.66331 53.2794 6.73416 52.935 7.16588L52.9349 7.16605L52.9315 7.17029L49.7988 11.0976ZM52.6444 13.6264C52.22 13.9648 52.171 14.5893 52.5097 15.0135C52.8482 15.4373 53.4681 15.5291 53.8921 15.1909L57.8237 12.0549L57.8239 12.0547C58.2556 11.7104 58.3264 11.0812 57.9821 10.6495C57.6378 10.2177 57.0087 10.1468 56.5769 10.4911L56.5767 10.4912L52.6444 13.6264ZM54.8585 16.7237C54.3694 16.9592 54.1822 17.5557 54.4181 18.0446C54.6538 18.5329 55.2383 18.762 55.7268 18.5267L60.2489 16.3483L60.2551 16.3453L60.2553 16.3452C60.7528 16.1056 60.9619 15.508 60.7223 15.0104C60.4827 14.5129 59.8851 14.3037 59.3875 14.5433L59.3873 14.5434L54.8585 16.7237ZM56.3252 20.2373C55.7966 20.3579 55.4808 20.8948 55.6011 21.4235C55.7216 21.9528 56.2412 22.3092 56.7704 22.1883L61.6708 21.0692L61.671 21.0692C62.2094 20.9462 62.5462 20.4102 62.4233 19.8718C62.3005 19.3334 61.7644 18.9965 61.226 19.1193L61.2258 19.1194L56.3252 20.2373ZM56.9705 23.9892C56.4278 23.9891 56 24.447 56 24.9897H63C63 24.4375 62.5524 23.9898 62.0001 23.9897H61.9999L56.9705 23.9892ZM24 24.9897C24 24.447 23.5722 23.9891 23.0295 23.9892L18.0001 23.9897H17.9999C17.4476 23.9898 17 24.4375 17 24.9897H24ZM28 24.9897C28 18.3623 33.3726 12.9897 40 12.9897C46.6274 12.9897 52 18.3623 52 24.9897H28ZM23.2296 22.1883C23.7588 22.3092 24.2784 21.9528 24.3989 21.4235C24.5192 20.8948 24.2034 20.3579 23.6748 20.2373L18.7754 19.1196L18.7742 19.1194L18.774 19.1193C18.2356 18.9965 17.6995 19.3334 17.5767 19.8718C17.4538 20.4102 17.7906 20.9462 18.329 21.0692L18.3292 21.0692L23.2296 22.1883ZM24.2732 18.5267C24.7617 18.762 25.3462 18.5329 25.5819 18.0446C25.8178 17.5557 25.6306 16.9592 25.1415 16.7237L20.6127 14.5434L20.6125 14.5433C20.1149 14.3037 19.5173 14.5129 19.2777 15.0104C19.0381 15.508 19.2472 16.1056 19.7447 16.3452L19.7449 16.3453L24.2732 18.5267ZM26.1079 15.1909C26.5319 15.5291 27.1518 15.4373 27.4903 15.0135C27.829 14.5893 27.78 13.9648 27.3556 13.6264L23.4233 10.4912L23.4231 10.4911C22.9913 10.1468 22.3622 10.2177 22.0179 10.6495C21.6736 11.0812 21.7444 11.7104 22.1761 12.0547L22.1763 12.0549L22.1769 12.0554L26.1079 15.1909ZM28.6367 12.3453C28.9751 12.7698 29.5995 12.8188 30.0237 12.48C30.4476 12.1416 30.5394 11.5216 30.2012 11.0976L27.0656 7.16665L27.0651 7.16605L27.065 7.16588C26.7206 6.73416 26.0915 6.66331 25.6597 7.00762C25.228 7.35194 25.1571 7.98106 25.5013 8.41286L25.5015 8.41303L28.6367 12.3453ZM31.734 10.1313C31.9694 10.6203 32.566 10.8075 33.0548 10.5716C33.5432 10.3359 33.7722 9.75149 33.5369 9.26293L31.3556 4.73465L31.3555 4.73445C31.1158 4.23692 30.5182 4.02785 30.0207 4.26746C29.5231 4.50707 29.314 5.10463 29.5535 5.60221L29.5536 5.60242L31.734 10.1313ZM35.2476 8.66458C35.3682 9.19319 35.9051 9.50899 36.4338 9.38864C36.9631 9.26816 37.3194 8.74858 37.1986 8.21938L36.0795 3.31892L36.0794 3.3187C35.9565 2.78032 35.4204 2.44352 34.882 2.5664C34.3436 2.68929 34.0068 3.22534 34.1296 3.76374L34.1296 3.76396L34.1299 3.76511L35.2476 8.66458Z" fill="#EB5757" />
  </g>
  <defs>
    <clipPath id="clip0wOpW">
      <rect width="80" height="80" fill="white" />
    </clipPath>
  </defs>
</svg>