<svg viewBox="0 0 80 80" fill="none">
  <g clip-path="url(#clip0rVB2)">
    <path d="M80 0H0V80H80V0Z" fill="#EB5757" />
    <path d="M80 40H0" stroke="#219653" stroke-width="40" />
    <path fill-rule="evenodd" clip-rule="evenodd" d="M12.1802 26.0276C13.7657 39.9873 25.6162 50.8331 40 50.8331C54.3838 50.8331 66.2343 39.9873 67.8198 26.0276C67.9388 27.076 68 28.1419 68 29.2222C68 44.6861 55.464 57.2222 40 57.2222C24.536 57.2222 12 44.6861 12 29.2222C12 28.1419 12.0612 27.076 12.1802 26.0276Z" fill="#F2C94C" />
    <path d="M40.8032 22.7776L42.5901 28.3182L48.4117 28.3055L43.6944 31.717L45.5055 37.2497L40.8032 33.8176L36.1009 37.2497L37.912 31.717L33.1948 28.3055L39.0164 28.3182L40.8032 22.7776Z" fill="#F2C94C" />
  </g>
  <defs>
    <clipPath id="clip0rVB2">
      <rect width="80" height="80" fill="white" />
    </clipPath>
  </defs>
</svg>