<svg viewBox="0 0 80 80" fill="none">
  <path d="M80 0H0V80H80V0Z" fill="#EB5757" />
  <path d="M32 0V41.3043V80H0V0H32Z" fill="#219653" />
  <path d="M28 58C37.9411 58 46 49.9411 46 40C46 30.0589 37.9411 22 28 22C18.0589 22 10 30.0589 10 40C10 49.9411 18.0589 58 28 58Z" fill="#F2C94C" />
  <path d="M18 30H38V42C38 47.5228 33.5228 52 28 52C22.4772 52 18 47.5228 18 42V30Z" fill="#F2F2F2" />
  <path d="M20.5 32.5H35.5V42C35.5 46.1421 32.1421 49.5 28 49.5C23.8579 49.5 20.5 46.1421 20.5 42V32.5Z" stroke="#EB5757" stroke-width="5" />
</svg>