<svg viewBox="0 0 80 80" fill="none">
  <g clip-path="url(#clip0)">
    <path d="M80 0H0V80H80V0Z" fill="#56CCF2" />
    <path d="M80 0V39.0281L0 40V0H80Z" fill="#F2F2F2" />
    <path d="M40 16V25.6" stroke="#F2994A" stroke-width="3" />
    <path d="M43.3335 19.2L36.6668 19.2" stroke="#F2994A" stroke-width="3" />
    <mask id="path-5-inside-1" fill="white">
      <path fill-rule="evenodd" clip-rule="evenodd" d="M30 26.4C30 27.2488 30.2295 28.0461 30.6322 28.7379C31.1502 29.6279 31.6667 30.5702 31.6667 31.6C31.6667 31.8209 31.8458 32 32.0667 32H47.9333C48.1542 32 48.3333 31.8209 48.3333 31.6C48.3333 30.5702 48.8498 29.6279 49.3679 28.7379C49.7705 28.0461 50 27.2488 50 26.4C50 23.749 47.7614 21.6 45 21.6C43.3957 21.6 41.9679 22.3253 41.053 23.453C40.7915 23.7754 40.4151 24 40 24C39.5849 24 39.2085 23.7754 38.947 23.453C38.0321 22.3253 36.6043 21.6 35 21.6C32.2386 21.6 30 23.749 30 26.4Z" />
    </mask>
    <path fill-rule="evenodd" clip-rule="evenodd" d="M30 26.4C30 27.2488 30.2295 28.0461 30.6322 28.7379C31.1502 29.6279 31.6667 30.5702 31.6667 31.6C31.6667 31.8209 31.8458 32 32.0667 32H47.9333C48.1542 32 48.3333 31.8209 48.3333 31.6C48.3333 30.5702 48.8498 29.6279 49.3679 28.7379C49.7705 28.0461 50 27.2488 50 26.4C50 23.749 47.7614 21.6 45 21.6C43.3957 21.6 41.9679 22.3253 41.053 23.453C40.7915 23.7754 40.4151 24 40 24C39.5849 24 39.2085 23.7754 38.947 23.453C38.0321 22.3253 36.6043 21.6 35 21.6C32.2386 21.6 30 23.749 30 26.4Z" fill="#F2994A" />
    <path d="M38.947 23.453L41.2767 21.5629L38.947 23.453ZM49.3679 28.7379L46.7751 27.2288L49.3679 28.7379ZM41.053 23.453L43.3827 25.3431L41.053 23.453ZM33.2249 27.2288C33.0792 26.9784 33 26.6995 33 26.4H27C27 27.7981 27.3798 29.1138 28.0394 30.247L33.2249 27.2288ZM47.9333 29H32.0667V35H47.9333V29ZM47 26.4C47 26.6995 46.9208 26.9784 46.7751 27.2288L51.9606 30.247C52.6202 29.1138 53 27.7981 53 26.4H47ZM45 24.6C46.2212 24.6 47 25.5201 47 26.4H53C53 21.9779 49.3017 18.6 45 18.6V24.6ZM43.3827 25.3431C43.7355 24.9083 44.3117 24.6 45 24.6V18.6C42.4797 18.6 40.2004 19.7424 38.7233 21.5629L43.3827 25.3431ZM35 24.6C35.6883 24.6 36.2645 24.9083 36.6173 25.3431L41.2767 21.5629C39.7996 19.7424 37.5203 18.6 35 18.6V24.6ZM33 26.4C33 25.5201 33.7788 24.6 35 24.6V18.6C30.6983 18.6 27 21.9779 27 26.4H33ZM40 21C40.7005 21 41.1167 21.3657 41.2767 21.5629L36.6173 25.3431C37.3004 26.185 38.4693 27 40 27V21ZM51.3333 31.6C51.3333 31.5909 51.335 31.4927 51.4343 31.2491C51.5407 30.9883 51.702 30.6915 51.9606 30.247L46.7751 27.2288C46.3061 28.0345 45.3333 29.6464 45.3333 31.6H51.3333ZM38.7233 21.5629C38.8833 21.3657 39.2995 21 40 21V27C41.5307 27 42.6996 26.185 43.3827 25.3431L38.7233 21.5629ZM47.9333 35C49.8111 35 51.3333 33.4778 51.3333 31.6H45.3333C45.3333 30.1641 46.4974 29 47.9333 29V35ZM28.6667 31.6C28.6667 33.4778 30.1889 35 32.0667 35V29C33.5026 29 34.6667 30.1641 34.6667 31.6H28.6667ZM28.0394 30.247C28.298 30.6915 28.4593 30.9883 28.5657 31.2491C28.665 31.4927 28.6667 31.5909 28.6667 31.6H34.6667C34.6667 29.6464 33.6939 28.0345 33.2249 27.2288L28.0394 30.247Z" fill="#F2994A" mask="url(#path-5-inside-1)" />
    <mask id="path-7-outside-2" maskUnits="userSpaceOnUse" x="20" y="28" width="40" height="36" fill="black">
      <rect fill="white" x="20" y="28" width="40" height="36" />
      <path d="M51.5911 38.3765C52.0675 40.4508 52.1285 42.6251 51.7694 44.7313C51.4103 46.8374 50.6408 48.819 49.5202 50.5227C48.3997 52.2263 46.9583 53.6064 45.3075 54.5562C43.6566 55.506 41.8406 56 40 56C38.1593 56 36.3434 55.506 34.6925 54.5562C33.0417 53.6064 31.6003 52.2263 30.4798 50.5227C29.3592 48.819 28.5897 46.8374 28.2306 44.7313C27.8715 42.6251 27.9325 40.4508 28.4089 38.3765L40 42L51.5911 38.3765Z" />
    </mask>
    <path d="M51.5911 38.3765C52.0675 40.4508 52.1285 42.6251 51.7694 44.7313C51.4103 46.8374 50.6408 48.819 49.5202 50.5227C48.3997 52.2263 46.9583 53.6064 45.3075 54.5562C43.6566 55.506 41.8406 56 40 56C38.1593 56 36.3434 55.506 34.6925 54.5562C33.0417 53.6064 31.6003 52.2263 30.4798 50.5227C29.3592 48.819 28.5897 46.8374 28.2306 44.7313C27.8715 42.6251 27.9325 40.4508 28.4089 38.3765L40 42L51.5911 38.3765Z" stroke="#219653" stroke-width="16" mask="url(#path-7-outside-2)" />
    <ellipse cx="40" cy="42" rx="12" ry="14" fill="#56CCF2" />
    <ellipse cx="40" cy="42" rx="12" ry="14" stroke="#F2994A" stroke-width="5" />
    <rect x="31" y="55" width="18" height="6" fill="#F2F2F2" />
    <rect x="24" y="59" width="10" height="4" fill="#F2F2F2" />
    <rect x="46" y="59" width="10" height="4" fill="#F2F2F2" />
  </g>
  <defs>
    <clipPath id="clip0">
      <rect width="80" height="80" fill="white" />
    </clipPath>
  </defs>
</svg>