<svg viewBox="0 0 80 80" fill="none">
  <g clip-path="url(#clip0)">
    <path d="M40.0781 0.000152588H0V79.9976H40.0781V0.000152588Z" fill="#FFDA44" />
    <path d="M80.1562 0H40.0781V80H80.1562V0Z" fill="#F0F0F0" />
    <path d="M55.4643 34.8053L62.9961 44.7497C61.8095 46.5429 61.8159 48.9593 63.188 50.7712C64.929 53.0697 68.2073 53.5247 70.5105 51.7873C72.8135 50.0496 73.2694 46.7778 71.5283 44.479C70.1562 42.6671 67.8283 42.0022 65.7761 42.6521L54.0373 27.1533L51.2573 29.2507L47.0869 32.3969L51.2902 37.9461L55.4643 34.8053ZM66.3077 46.238C67.0756 45.6586 68.1683 45.8105 68.7488 46.5767C69.3291 47.3428 69.1772 48.4336 68.4095 49.013C67.6418 49.5919 66.5489 49.4405 65.9686 48.6741C65.3884 47.9081 65.5401 46.8171 66.3077 46.238Z" fill="#ACABB1" />
    <path d="M68.3837 37.9466L72.587 32.3974L68.4166 29.2512L65.6367 27.1538L53.8978 42.6526C51.8454 42.0022 49.518 42.6674 48.1456 44.4795C46.4046 46.7783 46.8604 50.0501 49.1634 51.7877C51.4666 53.5254 54.7449 53.0705 56.4859 50.7717C57.8585 48.9598 57.8646 46.5434 56.6778 44.7502L64.2096 34.8058L68.3837 37.9466ZM53.7057 48.6741C53.1255 49.4405 52.0326 49.5919 51.2649 49.013C50.497 48.4336 50.3453 47.3429 50.9256 46.5767C51.5058 45.8108 52.5987 45.6589 53.3666 46.238C54.1341 46.8172 54.286 47.9082 53.7057 48.6741Z" fill="#FFDA44" />
  </g>
  <defs>
    <clipPath id="clip0">
      <rect width="80" height="80" fill="white" />
    </clipPath>
  </defs>
</svg>