<svg viewBox="0 0 80 80" fill="none">
  <path d="M12.6402 30.084H7.03984C6.6566 30.084 6.33069 30.3692 6.27091 30.7568L4.00588 45.4692C3.96085 45.7593 4.18029 46.0211 4.46773 46.0211H7.14138C7.52461 46.0211 7.85054 45.7359 7.91032 45.3475L8.5212 41.3793C8.58016 40.9909 8.9069 40.7057 9.28932 40.7057H11.0622C14.7512 40.7057 16.8803 38.8769 17.4364 35.2526C17.6869 33.6671 17.4469 32.4213 16.7223 31.5488C15.9264 30.5907 14.5146 30.084 12.6402 30.084ZM13.2863 35.4573C12.98 37.5161 11.4446 37.5161 9.95998 37.5161H9.11489L9.70776 33.6712C9.74298 33.4389 9.93951 33.2677 10.1688 33.2677H10.5561C11.5675 33.2677 12.5215 33.2677 13.0144 33.8583C13.3084 34.2107 13.3985 34.7342 13.2863 35.4573Z" fill="currentColor" />
  <path d="M29.3807 35.3912H26.6988C26.4703 35.3912 26.273 35.5623 26.2378 35.7947L26.1191 36.5632L25.9315 36.2847C25.351 35.4214 24.0564 35.1328 22.7641 35.1328C19.8006 35.1328 17.2695 37.4324 16.7764 40.658C16.5201 42.267 16.8846 43.8057 17.7754 44.8787C18.5927 45.8653 19.7621 46.2763 21.1534 46.2763C23.5413 46.2763 24.8653 44.7034 24.8653 44.7034L24.7458 45.4666C24.7009 45.7587 24.9202 46.0204 25.2061 46.0204H27.6218C28.0059 46.0204 28.3301 45.7351 28.3906 45.3467L29.8402 35.9432C29.8859 35.6538 29.6674 35.3912 29.3807 35.3912ZM25.6425 40.7386C25.3837 42.3081 24.1677 43.3619 22.6168 43.3619C21.838 43.3619 21.2157 43.1059 20.816 42.621C20.4196 42.1396 20.269 41.4542 20.3951 40.6908C20.6368 39.1344 21.8732 38.0465 23.4004 38.0465C24.1621 38.0465 24.7811 38.3057 25.1889 38.7948C25.5974 39.2889 25.7597 39.9785 25.6425 40.7386Z" fill="currentColor" />
  <path d="M43.6625 35.3926H40.9675C40.7103 35.3926 40.4688 35.5234 40.323 35.7424L36.6061 41.3514L35.0306 35.9614C34.9316 35.6241 34.6276 35.3926 34.2838 35.3926H31.6355C31.3137 35.3926 31.0901 35.7147 31.1924 36.025L34.161 44.9497L31.3701 48.9857C31.1508 49.3037 31.3718 49.7407 31.7509 49.7407H34.4426C34.6981 49.7407 34.9372 49.6133 35.0822 49.3985L44.0457 36.1434C44.2603 35.8263 44.04 35.3926 43.6625 35.3926Z" fill="currentColor" />
  <path d="M52.5854 30.084H46.9844C46.6018 30.084 46.2761 30.3692 46.2161 30.7568L43.9512 45.469C43.9061 45.7594 44.1256 46.0212 44.4114 46.0212H47.2856C47.5526 46.0212 47.7811 45.8215 47.8229 45.5496L48.4656 41.3794C48.5246 40.991 48.8513 40.7056 49.2337 40.7056H51.0059C54.6958 40.7056 56.8239 38.8768 57.3809 35.2526C57.6323 33.667 57.3908 32.4212 56.6659 31.5488C55.8708 30.5907 54.46 30.084 52.5854 30.084ZM53.2315 35.4573C52.9262 37.516 51.3908 37.516 49.9053 37.516H49.0609L49.6546 33.6712C49.6898 33.4389 49.8848 33.2677 50.1148 33.2677H50.5023C51.5128 33.2677 52.4675 33.2677 52.9606 33.8583C53.2544 34.2107 53.3438 34.7342 53.2315 35.4573Z" fill="currentColor" />
  <path d="M69.3263 35.3912H66.6462C66.4159 35.3912 66.2202 35.5623 66.1859 35.7947L66.0672 36.5632L65.8789 36.2847C65.2982 35.4214 64.0043 35.1328 62.7122 35.1328C59.7487 35.1328 57.2182 37.4324 56.7253 40.658C56.4698 42.267 56.8325 43.8057 57.7235 44.8787C58.5424 45.8653 59.7102 46.2763 61.1013 46.2763C63.4892 46.2763 64.8135 44.7034 64.8135 44.7034L64.694 45.4666C64.6488 45.7587 64.8683 46.0204 65.1557 46.0204H67.5707C67.9531 46.0204 68.279 45.7351 68.3387 45.3467L69.7891 35.9432C69.8332 35.6538 69.6137 35.3912 69.3263 35.3912ZM65.5881 40.7386C65.3309 42.3081 64.1133 43.3619 62.5624 43.3619C61.7851 43.3619 61.1613 43.1059 60.7616 42.621C60.3652 42.1396 60.2161 41.4542 60.3407 40.6908C60.5839 39.1344 61.8188 38.0465 63.346 38.0465C64.1077 38.0465 64.7267 38.3057 65.1345 38.7948C65.5447 39.2889 65.7068 39.9785 65.5881 40.7386Z" fill="currentColor" />
  <path d="M72.486 30.4884L70.1874 45.47C70.1423 45.7601 70.3618 46.022 70.6476 46.022H72.9585C73.3426 46.022 73.6685 45.7367 73.7275 45.3483L75.9942 30.6368C76.0391 30.3466 75.8196 30.084 75.5339 30.084H72.9462C72.7178 30.0848 72.5212 30.256 72.486 30.4884Z" fill="currentColor" />
</svg>