<svg width="80" height="80" viewBox="0 0 80 80" fill="none" xmlns="http://www.w3.org/2000/svg">
  <path d="M62.7598 13.2126C59.5905 11.8998 56.0295 11.8998 52.8603 13.2126C51.5909 13.7384 50.4261 14.4575 49.4013 15.3343C48.3389 16.2434 48.8686 17.8605 50.1656 18.3829C50.2497 18.4167 50.3337 18.451 50.4175 18.4858C57.2088 21.2988 62.6044 26.6945 65.4175 33.4858C65.7445 34.2752 66.7451 34.5533 67.324 33.9248C68.344 32.8173 69.1725 31.5299 69.7598 30.1121C71.0725 26.9428 71.0725 23.3819 69.7598 20.2126C68.447 17.0433 65.929 14.5253 62.7598 13.2126Z" fill="currentColor" />
  <path d="M30.463 15.2247C31.5503 16.1305 31.0128 17.7713 29.6953 18.2878C29.5312 18.3522 29.3675 18.4182 29.2043 18.4858C22.413 21.2988 17.0173 26.6945 14.2043 33.4858C13.9277 34.1534 13.0748 34.3731 12.5901 33.8371C11.6068 32.7495 10.8064 31.4927 10.2346 30.1123C8.92181 26.943 8.92181 23.382 10.2346 20.2128C11.5473 17.0435 14.0653 14.5255 17.2346 13.2128C20.4038 11.9 23.9648 11.9 27.1341 13.2128C28.35 13.7164 29.4701 14.3975 30.463 15.2247Z" fill="currentColor" />
  <path d="M40.6667 53.1667C40.6667 53.5349 40.3682 53.8333 40 53.8333C39.6319 53.8333 39.3334 53.5349 39.3334 53.1667C39.3334 52.7985 39.6319 52.5 40 52.5C40.3682 52.5 40.6667 52.7985 40.6667 53.1667Z" fill="currentColor" />
  <path fill-rule="evenodd" clip-rule="evenodd" d="M22.0798 57.4055L13.6911 65.7945C12.5196 66.9661 12.5196 68.8656 13.6912 70.0371C14.8628 71.2087 16.7623 71.2086 17.9339 70.037L26.2981 61.6725C27.8267 62.8479 29.5149 63.8285 31.3274 64.5793C36.7604 66.8297 42.8649 66.8297 48.2979 64.5793C50.1104 63.8285 51.7987 62.8478 53.3274 61.6724L61.6912 70.0362C62.8628 71.2078 64.7623 71.2078 65.9338 70.0362C67.1054 68.8646 67.1054 66.9651 65.9338 65.7935L57.5456 57.4053C58.6526 55.9307 59.5803 54.3117 60.2979 52.5793C62.5484 47.1462 62.5484 41.0417 60.2979 35.6087C58.0475 30.1757 53.731 25.8591 48.2979 23.6087C42.8649 21.3583 36.7604 21.3583 31.3274 23.6087C25.8943 25.8591 21.5778 30.1757 19.3274 35.6087C17.0769 41.0417 17.0769 47.1462 19.3274 52.5793C20.045 54.3118 20.9728 55.9308 22.0798 57.4055ZM40 32.5C38.4574 32.5 37.2347 33.8015 37.3309 35.3411L38.0603 47.011C38.1243 48.0353 38.9737 48.8333 40 48.8333C41.0264 48.8333 41.8758 48.0353 41.9398 47.011L42.6692 35.3411C42.7654 33.8015 41.5426 32.5 40 32.5ZM40 50.8333C38.7114 50.8333 37.6667 51.878 37.6667 53.1667C37.6667 54.4553 38.7114 55.5 40 55.5C41.2887 55.5 42.3334 54.4553 42.3334 53.1667C42.3334 51.878 41.2887 50.8333 40 50.8333Z" fill="currentColor" />
</svg>