<svg width="80" height="80" viewBox="0 0 80 80" fill="none" xmlns="http://www.w3.org/2000/svg">
  <path fill-rule="evenodd" clip-rule="evenodd" d="M40 29L42.6871 29.1069L45.3405 29.4262L47.9267 29.954L50.4132 30.6835L52.7687 31.6057L54.9637 32.7089L56.9705 33.9792L58.7639 35.4007L60.3214 36.9555L61.6232 38.624L62.1677 39.555C62.4909 40.1078 62.7743 40.683 63.0155 41.2761L63.0406 41.3379C63.2787 41.9232 63.4723 42.5257 63.6197 43.1402L63.6278 43.174C63.7751 43.7881 63.8741 44.4128 63.9241 45.0424C63.9746 45.6798 63.9746 46.3202 63.9241 46.9576C63.8741 47.5872 63.7751 48.2119 63.6278 48.826L63.6197 48.8598C63.4723 49.4743 63.2787 50.0768 63.0406 50.6621L63.0155 50.7239C62.7743 51.317 62.4909 51.8922 62.1677 52.445L61.6232 53.376L60.3214 55.0445L58.7639 56.5993L56.9705 58.0208L54.9637 59.2911L52.7687 60.3943L50.4132 61.3165L47.9267 62.046L45.3405 62.5738L42.6871 62.8931L40 63L37.3128 62.8931L34.6595 62.5738L32.0733 62.046L29.5868 61.3165L27.2312 60.3943L25.0362 59.2911L23.0294 58.0208L21.236 56.5993L19.6786 55.0445L18.3767 53.376L17.8323 52.445C17.509 51.8922 17.2257 51.317 16.9844 50.7239L16.9593 50.6621C16.7213 50.0768 16.5277 49.4743 16.3803 48.8598L16.3722 48.826C16.2249 48.2119 16.1258 47.5872 16.0759 46.9576C16.0254 46.3202 16.0254 45.6798 16.0759 45.0424C16.1258 44.4128 16.2249 43.7881 16.3722 43.174L16.3803 43.1402C16.5277 42.5257 16.7213 41.9232 16.9593 41.3379L16.9844 41.2761C17.2257 40.683 17.509 40.1078 17.8323 39.555L18.3767 38.624L19.6786 36.9555L21.236 35.4007L23.0294 33.9792L25.0362 32.7089L27.2312 31.6057L29.5868 30.6835L32.0733 29.954L34.6595 29.4262L37.3128 29.1069L40 29ZM40 42.9643L40.4798 42.9834L40.9536 43.0404L41.4155 43.1346L41.8595 43.2649L42.2801 43.4296L42.6721 43.6266L43.0304 43.8534L43.3507 44.1073L43.6288 44.3849L43.8613 44.6829L43.9585 44.8491C44.0162 44.9478 44.0668 45.0505 44.1099 45.1565L44.1144 45.1675C44.1569 45.272 44.1915 45.3796 44.2178 45.4893L44.2192 45.4953C44.2455 45.605 44.2632 45.7166 44.2721 45.829C44.2812 45.9428 44.2812 46.0572 44.2721 46.171C44.2632 46.2834 44.2455 46.395 44.2192 46.5047L44.2178 46.5107C44.1915 46.6204 44.1569 46.728 44.1144 46.8325L44.1099 46.8435C44.0668 46.9495 44.0162 47.0522 43.9585 47.1509L43.8613 47.3171L43.6288 47.6151L43.3507 47.8927L43.0304 48.1466L42.6721 48.3734L42.2801 48.5704L41.8595 48.7351L41.4155 48.8654L40.9536 48.9596L40.4798 49.0166L40 49.0357L39.5201 49.0166L39.0463 48.9596L38.5845 48.8654L38.1405 48.7351L37.7198 48.5704L37.3279 48.3734L36.9695 48.1466L36.6493 47.8927L36.3712 47.6151L36.1387 47.3171L36.0415 47.1509C35.9837 47.0522 35.9331 46.9495 35.8901 46.8435L35.8856 46.8325C35.8431 46.728 35.8085 46.6204 35.7822 46.5107L35.7807 46.5047C35.7544 46.395 35.7367 46.2834 35.7278 46.171C35.7188 46.0572 35.7188 45.9428 35.7278 45.829C35.7367 45.7166 35.7544 45.605 35.7807 45.4954L35.7822 45.4893C35.8085 45.3796 35.8431 45.272 35.8856 45.1675L35.8901 45.1565C35.9331 45.0505 35.9837 44.9478 36.0415 44.8491L36.1387 44.6829L36.3712 44.3849L36.6493 44.1073L36.9695 43.8534L37.3279 43.6266L37.7198 43.4296L38.1405 43.2649L38.5845 43.1346L39.0463 43.0404L39.5201 42.9834L40 42.9643Z" fill="currentColor" />
  <path fill-rule="evenodd" clip-rule="evenodd" d="M14.9999 12C14.9999 10.3431 16.3431 9 17.9999 9H61.9999C63.6568 9 64.9999 10.3431 64.9999 12C64.9999 13.6569 63.6568 15 61.9999 15H65.9999C67.6568 15 68.9999 16.3431 68.9999 18C68.9999 19.6569 67.6568 21 65.9999 21H67.9069C70.7575 21 73.0312 23.3794 72.9018 26.227L71.0836 66.227C70.9622 68.8974 68.7619 71 66.0888 71H13.9111C11.2379 71 9.0376 68.8974 8.91622 66.227L7.09804 26.227C6.9686 23.3794 9.24233 21 12.0929 21H13.9999C12.3431 21 10.9999 19.6569 10.9999 18C10.9999 16.3431 12.3431 15 13.9999 15H17.9999C16.3431 15 14.9999 13.6569 14.9999 12ZM14.8666 65L13.1394 27H66.8604L65.1332 65H14.8666Z" fill="currentColor" />
</svg>