<svg width="80" height="80" viewBox="0 0 80 80" fill="none" xmlns="http://www.w3.org/2000/svg">
  <path d="M52.8633 42.5771C51.2064 42.5771 49.8633 41.234 49.8633 39.5771C49.8633 37.9203 51.2064 36.5771 52.8633 36.5771L52.8633 42.5771ZM69.8633 36.5771C71.5201 36.5771 72.8633 37.9203 72.8633 39.5771C72.8633 41.234 71.5201 42.5771 69.8633 42.5771L69.8633 36.5771ZM52.8633 36.5771L69.8633 36.5771L69.8633 42.5771L52.8633 42.5771L52.8633 36.5771Z" fill="currentColor" />
  <path d="M52.8633 45.3952L52.8633 33.7591C52.8633 32.5849 51.4436 31.9968 50.6133 32.8271L45.9846 37.4558C44.813 38.6274 44.813 40.5269 45.9846 41.6985L50.6133 46.3272C51.4436 47.1575 52.8633 46.5694 52.8633 45.3952Z" fill="currentColor" stroke="currentColor" stroke-width="3" stroke-linecap="round" stroke-linejoin="round" />
  <path d="M26.292 42.5771C27.9488 42.5771 29.292 41.234 29.292 39.5771C29.292 37.9203 27.9488 36.5771 26.292 36.5771L26.292 42.5771ZM9.29199 36.5771C7.63514 36.5771 6.29199 37.9203 6.29199 39.5771C6.29199 41.234 7.63514 42.5771 9.29199 42.5771L9.29199 36.5771ZM26.292 36.5771L9.29199 36.5771L9.29199 42.5771L26.292 42.5771L26.292 36.5771Z" fill="currentColor" />
  <path d="M26.292 45.3952L26.292 33.7591C26.292 32.5849 27.7117 31.9968 28.542 32.8271L33.1707 37.4558C34.3422 38.6274 34.3422 40.5269 33.1707 41.6985L28.542 46.3272C27.7117 47.1575 26.292 46.5694 26.292 45.3952Z" fill="currentColor" stroke="currentColor" stroke-width="3" stroke-linecap="round" stroke-linejoin="round" />
  <path d="M36.5767 52.8643C36.5767 51.2074 37.9198 49.8643 39.5767 49.8643C41.2335 49.8643 42.5767 51.2074 42.5767 52.8643L36.5767 52.8643ZM42.5767 69.8643C42.5767 71.5211 41.2335 72.8643 39.5767 72.8643C37.9198 72.8643 36.5767 71.5211 36.5767 69.8643L42.5767 69.8643ZM42.5767 52.8643L42.5767 69.8643L36.5767 69.8643L36.5767 52.8643L42.5767 52.8643Z" fill="currentColor" />
  <path d="M33.7586 52.8643L45.3947 52.8643C46.5689 52.8643 47.157 51.4446 46.3267 50.6143L41.698 45.9856C40.5264 44.814 38.6269 44.814 37.4553 45.9856L32.8267 50.6143C31.9964 51.4446 32.5844 52.8643 33.7586 52.8643Z" fill="currentColor" stroke="currentColor" stroke-width="3" stroke-linecap="round" stroke-linejoin="round" />
  <path d="M36.5767 26.292C36.5767 27.9488 37.9198 29.292 39.5767 29.292C41.2335 29.292 42.5767 27.9488 42.5767 26.292L36.5767 26.292ZM42.5767 9.29199C42.5767 7.63514 41.2335 6.29199 39.5767 6.29199C37.9198 6.29199 36.5767 7.63514 36.5767 9.29199L42.5767 9.29199ZM42.5767 26.292L42.5767 9.29199L36.5767 9.29199L36.5767 26.292L42.5767 26.292Z" fill="currentColor" />
  <path d="M33.7586 26.292L45.3947 26.292C46.5689 26.292 47.157 27.7117 46.3267 28.542L41.698 33.1707C40.5264 34.3422 38.6269 34.3422 37.4553 33.1707L32.8267 28.542C31.9964 27.7117 32.5844 26.292 33.7586 26.292Z" fill="currentColor" stroke="currentColor" stroke-width="3" stroke-linecap="round" stroke-linejoin="round" />
</svg>