<svg width="80" height="80" viewBox="0 0 80 80" fill="none" xmlns="http://www.w3.org/2000/svg">
  <path d="M36.9644 17.7002C36.9654 16.0433 38.3095 14.7011 39.9663 14.7021C41.6232 14.7032 42.9654 16.0472 42.9644 17.7041L36.9644 17.7002ZM39.9643 17.7776L42.9643 17.7795V17.7795L39.9643 17.7776ZM39.9637 18.6665L36.9637 18.6645V18.6645L39.9637 18.6665ZM39.9631 19.5554L42.9631 19.5573L39.9631 19.5554ZM39.9626 20.4443L42.9626 20.4462V20.4462L39.9626 20.4443ZM39.962 21.3331L36.962 21.3312V21.3312L39.962 21.3331ZM39.9614 22.222L36.9614 22.222L36.9614 22.2201L39.9614 22.222ZM42.9614 42.296C42.9614 43.9529 41.6182 45.296 39.9614 45.296C38.3045 45.296 36.9614 43.9529 36.9614 42.296L42.9614 42.296ZM36.9614 42.3331C36.9614 40.6763 38.3045 39.3331 39.9614 39.3331C41.6183 39.3331 42.9614 40.6763 42.9614 42.3331L36.9614 42.3331ZM42.9614 63.9998C42.9614 65.6567 41.6182 66.9998 39.9614 66.9998C38.3045 66.9998 36.9614 65.6567 36.9614 63.9998L42.9614 63.9998ZM42.9644 17.7041L42.9643 17.7795L36.9643 17.7756L36.9644 17.7002L42.9644 17.7041ZM42.9643 17.7795L42.9637 18.6684L36.9637 18.6645L36.9643 17.7756L42.9643 17.7795ZM42.9637 18.6684L42.9631 19.5573L36.9631 19.5534L36.9637 18.6645L42.9637 18.6684ZM42.9631 19.5573L42.9626 20.4462L36.9626 20.4423L36.9631 19.5534L42.9631 19.5573ZM42.9626 20.4462L42.962 21.3351L36.962 21.3312L36.9626 20.4423L42.9626 20.4462ZM42.962 21.3351L42.9614 22.224L36.9614 22.2201L36.962 21.3312L42.962 21.3351ZM42.9614 22.222L42.9614 42.296L36.9614 42.296L36.9614 22.222L42.9614 22.222ZM42.9614 42.3331L42.9614 63.9998L36.9614 63.9998L36.9614 42.3331L42.9614 42.3331Z" fill="currentColor" />
  <path d="M15.1104 39.1106L36.287 17.934C38.3372 15.8837 41.6614 15.8837 43.7116 17.934L64.8882 39.1106" stroke="currentColor" stroke-width="6" stroke-linecap="round" stroke-linejoin="round" />
</svg>