<svg width="80" height="80" viewBox="0 0 80 80" fill="none" xmlns="http://www.w3.org/2000/svg">
  <path d="M48.9423 48.1997C47.7707 47.0282 45.8712 47.0282 44.6996 48.1997C43.528 49.3713 43.528 51.2708 44.6996 52.4424L48.9423 48.1997ZM48.0323 51.5325L50.1537 49.4112L48.0323 51.5325ZM54.7499 67.75L51.7499 67.75L54.7499 67.75ZM51.7499 68.25C51.7499 69.9069 53.093 71.25 54.7499 71.25C56.4067 71.25 57.7499 69.9069 57.7499 68.25L51.7499 68.25ZM28.9081 21.8824C28.7051 20.2381 27.2075 19.0696 25.5631 19.2726C23.9187 19.4756 22.7503 20.9732 22.9533 22.6176L28.9081 21.8824ZM22.9566 22.6445C23.1613 24.2887 24.6601 25.4556 26.3043 25.2509C27.9484 25.0462 29.1153 23.5474 28.9106 21.9032L22.9566 22.6445ZM28.9121 21.9149C28.7065 20.2708 27.2071 19.1047 25.5631 19.3103C23.919 19.5159 22.7529 21.0153 22.9585 22.6593L28.9121 21.9149ZM30.5453 38.2874C31.7099 39.4659 33.6093 39.4771 34.7878 38.3125C35.9663 37.1478 35.9775 35.2484 34.8129 34.0699L30.5453 38.2874ZM44.6996 52.4424L45.911 53.6538L50.1537 49.4112L48.9423 48.1997L44.6996 52.4424ZM51.7499 67.75L51.7499 68.25L57.7499 68.25L57.7499 67.75L51.7499 67.75ZM45.911 53.6538C49.6496 57.3923 51.7499 62.4629 51.7499 67.75L57.7499 67.75C57.7499 60.8716 55.0174 54.2749 50.1537 49.4112L45.911 53.6538ZM22.9533 22.6176C22.9544 22.6265 22.9555 22.6355 22.9566 22.6445L28.9106 21.9032C28.9098 21.8964 28.9089 21.8894 28.9081 21.8824L22.9533 22.6176ZM22.9585 22.6593C23.6928 28.5326 26.3432 34.0354 30.5453 38.2874L34.8129 34.0699C31.5449 30.763 29.4833 26.4829 28.9121 21.9149L22.9585 22.6593Z" fill="currentColor" />
  <path d="M32.2145 22.25L19.2855 22.25C17.9808 22.25 17.3274 20.6726 18.25 19.75L23.6287 14.3713C24.8003 13.1997 26.6997 13.1997 27.8713 14.3713L33.25 19.75C34.1726 20.6726 33.5192 22.25 32.2145 22.25Z" fill="currentColor" stroke="currentColor" stroke-width="6" stroke-linecap="round" stroke-linejoin="round" />
  <path d="M47.2207 36.2794L45.0994 34.1581L47.2207 36.2794ZM31.9677 51.5325L29.8463 49.4112L31.9677 51.5325ZM25.2501 67.75L22.2501 67.75L25.2501 67.75ZM28.2501 68.25C28.2501 69.9069 26.907 71.25 25.2501 71.25C23.5933 71.25 22.2501 69.9069 22.2501 68.25L28.2501 68.25ZM51.0919 21.8825C51.2949 20.2381 52.7925 19.0696 54.4369 19.2726C56.0813 19.4756 57.2497 20.9732 57.0467 22.6175L51.0919 21.8825ZM57.0434 22.6445C56.8387 24.2887 55.3399 25.4556 53.6957 25.2509C52.0516 25.0462 50.8847 23.5474 51.0894 21.9032L57.0434 22.6445ZM51.0879 21.9149C51.2935 20.2708 52.7929 19.1047 54.4369 19.3103C56.081 19.5159 57.2471 21.0153 57.0415 22.6593L51.0879 21.9149ZM49.342 38.4008L34.089 53.6538L29.8463 49.4112L45.0994 34.1581L49.342 38.4008ZM28.2501 67.75L28.2501 68.25L22.2501 68.25L22.2501 67.75L28.2501 67.75ZM34.089 53.6538C30.3504 57.3924 28.2501 62.4629 28.2501 67.75L22.2501 67.75C22.2501 60.8716 24.9826 54.2749 29.8463 49.4112L34.089 53.6538ZM57.0467 22.6175C57.0456 22.6265 57.0445 22.6355 57.0434 22.6445L51.0894 21.9032C51.0902 21.8964 51.0911 21.8894 51.0919 21.8825L57.0467 22.6175ZM57.0415 22.6593C56.3006 28.5849 53.6093 34.1334 49.342 38.4008L45.0994 34.1581C48.4183 30.8392 50.5116 26.5237 51.0879 21.9149L57.0415 22.6593Z" fill="currentColor" />
  <path d="M47.7855 22.25L60.7145 22.25C62.0192 22.25 62.6726 20.6726 61.75 19.75L56.3713 14.3713C55.1997 13.1997 53.3003 13.1997 52.1287 14.3713L46.75 19.75C45.8274 20.6726 46.4808 22.25 47.7855 22.25Z" fill="currentColor" stroke="currentColor" stroke-width="6" stroke-linecap="round" stroke-linejoin="round" />
</svg>