<svg viewBox="0 0 80 80" fill="none">
  <path d="M42.9989 28C42.9989 26.3431 41.6558 25 39.9989 25C38.3421 25 36.9989 26.3431 36.9989 28H42.9989ZM36.9989 64.0003C36.9989 65.6571 38.3421 67.0003 39.9989 67.0003C41.6558 67.0003 42.9989 65.6571 42.9989 64.0003H36.9989ZM36.9989 28V64.0003H42.9989V28H36.9989Z" fill="currentColor" />
  <path d="M47.7579 28L32.2431 28C30.6775 28 29.8934 26.1071 31.0005 25L37.8792 18.1213C39.0507 16.9497 40.9502 16.9497 42.1218 18.1213L49.0005 25C50.1076 26.1071 49.3235 28 47.7579 28Z" fill="currentColor" stroke="currentColor" stroke-width="4" stroke-linecap="round" stroke-linejoin="round" />
</svg>