<svg width="80" height="80" viewBox="0 0 80 80" fill="none" xmlns="http://www.w3.org/2000/svg">
  <path d="M36.9642 17.8945C36.9653 16.2377 38.3093 14.8954 39.9662 14.8965C41.623 14.8976 42.9653 16.2416 42.9642 17.8984L36.9642 17.8945ZM39.9637 18.6663L36.9637 18.6643V18.6643L39.9637 18.6663ZM39.9632 19.5552L42.9632 19.5571L39.9632 19.5552ZM39.9626 20.4441L42.9626 20.446V20.446L39.9626 20.4441ZM39.962 21.3329L36.962 21.331V21.331L39.962 21.3329ZM39.9614 22.2218L36.9614 22.2218L36.9614 22.2199L39.9614 22.2218ZM42.9614 42.2958C42.9614 43.9527 41.6183 45.2958 39.9614 45.2958C38.3045 45.2958 36.9614 43.9527 36.9614 42.2958L42.9614 42.2958ZM36.9614 42.3329C36.9614 40.6761 38.3045 39.3329 39.9614 39.3329C41.6183 39.3329 42.9614 40.6761 42.9614 42.3329L36.9614 42.3329ZM42.9614 63.9996C42.9614 65.6565 41.6182 66.9996 39.9614 66.9996C38.3045 66.9996 36.9614 65.6565 36.9614 63.9996L42.9614 63.9996ZM42.9642 17.8984L42.9637 18.6682L36.9637 18.6643L36.9642 17.8945L42.9642 17.8984ZM42.9637 18.6682L42.9632 19.5571L36.9632 19.5532L36.9637 18.6643L42.9637 18.6682ZM42.9632 19.5571L42.9626 20.446L36.9626 20.4421L36.9632 19.5532L42.9632 19.5571ZM42.9626 20.446L42.962 21.3349L36.962 21.331L36.9626 20.4421L42.9626 20.446ZM42.962 21.3349L42.9614 22.2238L36.9614 22.2199L36.962 21.331L42.962 21.3349ZM42.9614 22.2218L42.9614 42.2958L36.9614 42.2958L36.9614 22.2218L42.9614 22.2218ZM42.9614 42.3329L42.9614 63.9996L36.9614 63.9996L36.9614 42.3329L42.9614 42.3329Z" fill="currentColor" />
  <path d="M15.1104 39.1106L36.287 17.934C38.3372 15.8837 41.6614 15.8837 43.7116 17.934L64.8882 39.1106" stroke="currentColor" stroke-width="6" stroke-linecap="round" stroke-linejoin="round" />
</svg>