<svg width="80" height="80" viewBox="0 0 80 80" fill="none" xmlns="http://www.w3.org/2000/svg">
  <path fill-rule="evenodd" clip-rule="evenodd" d="M34.5 9.98705V6C34.5 4.89543 33.6046 4 32.5 4H28.5C27.3954 4 26.5 4.89543 26.5 6V9.98705H34.5ZM26.5 26.0148V15.9871H34.5V26.0148H26.5ZM26.5 32.0148V74C26.5 75.1046 27.3954 76 28.5 76H32.5C33.6046 76 34.5 75.1046 34.5 74V32.0148H26.5Z" fill="currentColor" />
  <path fill-rule="evenodd" clip-rule="evenodd" d="M59.6731 11.7996C58.7228 9.5013 57.4237 7.36849 55.8253 5.47517C55.1119 4.63013 53.8364 4.63513 53.0551 5.41781L46.0847 12.4003C45.7095 12.7762 45.2003 12.9873 44.6693 12.9873H20.5C19.3954 12.9873 18.5 13.8828 18.5 14.9873V27.0151C18.5 28.1197 19.3954 29.0151 20.5 29.0151H44.6719C45.2029 29.0151 45.7121 29.2263 46.0873 29.6021L53.0551 36.582C53.8365 37.3647 55.1119 37.3697 55.8253 36.5247C57.4237 34.6314 58.7228 32.4985 59.6731 30.2003C60.8792 27.2834 61.5 24.1571 61.5 20.9999C61.5 17.8427 60.8792 14.7164 59.6731 11.7996Z" fill="currentColor" />
</svg>