<svg width="80" height="80" viewBox="0 0 80 80" fill="none" xmlns="http://www.w3.org/2000/svg">
  <path d="M12.4552 51.3136C11.2151 48.3197 10.4875 45.173 10.2725 41.9997H27.3313C27.2996 45.502 26.6006 48.9998 25.2343 52.2984C23.8306 55.6871 21.7804 58.7264 19.2327 61.2673C16.342 58.476 14.0227 55.0979 12.4552 51.3136Z" fill="currentColor" />
  <path d="M22.3021 63.8526C24.1922 65.2368 26.255 66.4022 28.4552 67.3136C31.4489 68.5536 34.5954 69.2812 37.7685 69.4963V41.9997H31.3315C31.2997 46.0224 30.4991 50.0404 28.9298 53.8291C27.3676 57.6005 25.1062 60.9939 22.3021 63.8526Z" fill="currentColor" />
  <path d="M31.1089 37.9997H37.7685V10.5035C34.5954 10.7186 31.4489 11.4461 28.4552 12.6862C21.2112 15.6868 15.4558 21.4421 12.4552 28.6862C11.2152 31.6799 10.4876 34.8265 10.2725 37.9997L27.0762 37.9997C26.7582 35.6837 26.1442 33.3985 25.2343 31.2017C23.5172 27.0565 20.8327 23.4341 17.4537 20.6074C18.3322 19.5965 19.2784 18.6465 20.2856 17.7639C24.0303 20.9671 27.0088 25.0333 28.9298 29.671C30.043 32.3585 30.7694 35.1615 31.1089 37.9997Z" fill="currentColor" />
  <path d="M51.0826 67.3136C48.0887 68.5537 44.9419 69.2813 41.7685 69.4963V41.9997H48.2054C48.2372 46.0224 49.0377 50.0405 50.607 53.8291C52.1693 57.6007 54.4309 60.9942 57.2352 63.8531C55.3453 65.237 53.2826 66.4023 51.0826 67.3136Z" fill="currentColor" />
  <path d="M60.3047 61.2677C63.1955 58.4764 65.515 55.0981 67.0826 51.3136C70.0832 44.0695 70.0832 35.9302 67.0826 28.6862C64.082 21.4421 58.3267 15.6868 51.0826 12.6862C48.0887 11.4461 44.9419 10.7185 41.7685 10.5034V37.9997H48.4279C48.7674 35.1615 49.4938 32.3585 50.607 29.671C52.5281 25.0332 55.5068 20.9669 59.2516 17.7636C60.2588 18.6461 61.205 19.5962 62.0836 20.607C58.7043 23.4338 56.0197 27.0563 54.3026 31.2017C53.3926 33.3986 52.7786 35.6837 52.4606 37.9997L69.2652 37.9997C69.3555 39.3315 69.3555 40.6679 69.2653 41.9997H52.2055C52.2372 45.502 52.9362 48.9998 54.3026 52.2984C55.7063 55.6873 57.7567 58.7268 60.3047 61.2677Z" fill="currentColor" />
</svg>