<svg width="80" height="80" viewBox="0 0 80 80" fill="none" xmlns="http://www.w3.org/2000/svg">
  <path fill-rule="evenodd" clip-rule="evenodd" d="M32.6211 14C32.3454 13.9995 32.1221 13.7758 32.1221 13.5C32.1221 11.567 33.6891 10 35.6221 10H44.6221C46.5551 10 48.1221 11.567 48.1221 13.5C48.1221 13.7758 47.8987 13.9995 47.623 14L54.1221 14C56.3312 14 58.1221 15.7909 58.1221 18L58.1221 66C58.1221 68.2091 56.3312 70 54.1221 70H26.1221C23.9129 70 22.1221 68.2091 22.1221 66L22.1221 18C22.1221 15.7909 23.9129 14 26.1221 14L32.6211 14ZM30.2441 21C29.1396 21 28.2441 21.8954 28.2441 23V25C28.2441 26.1046 29.1396 27 30.2441 27H50.2441C51.3487 27 52.2441 26.1046 52.2441 25V23C52.2441 21.8954 51.3487 21 50.2441 21H30.2441ZM30.2441 33H50.2441C51.3487 33 52.2441 33.8954 52.2441 35L52.2441 37C52.2441 38.1046 51.3487 39 50.2441 39H30.2441C29.1396 39 28.2441 38.1046 28.2441 37V35C28.2441 33.8954 29.1396 33 30.2441 33ZM30.2441 45C29.1396 45 28.2441 45.8954 28.2441 47V49C28.2441 50.1046 29.1396 51 30.2441 51H50.2441C51.3487 51 52.2441 50.1046 52.2441 49L52.2441 47C52.2441 45.8954 51.3487 45 50.2441 45H30.2441ZM30.2441 57C29.1396 57 28.2441 57.8954 28.2441 59V61C28.2441 62.1046 29.1396 63 30.2441 63H50.2441C51.3487 63 52.2441 62.1046 52.2441 61L52.2441 59C52.2441 57.8954 51.3487 57 50.2441 57H30.2441Z" fill="currentColor" />
</svg>