<svg viewBox="0 0 80 80" fill="none">
  <path fill-rule="evenodd" clip-rule="evenodd" d="M32.6211 14C32.3454 13.9995 32.1221 13.7758 32.1221 13.5C32.1221 11.567 33.6891 10 35.6221 10H44.6221C46.5551 10 48.1221 11.567 48.1221 13.5C48.1221 13.7758 47.8987 13.9995 47.623 14L54.1221 14C56.3312 14 58.1221 15.7909 58.1221 18L58.1221 66C58.1221 68.2091 56.3312 70 54.1221 70H26.1221C23.9129 70 22.1221 68.2091 22.1221 66L22.1221 18C22.1221 15.7909 23.9129 14 26.1221 14L32.6211 14ZM30.2441 57H50.2441C51.3487 57 52.2441 57.8954 52.2441 59V61C52.2441 62.1046 51.3487 63 50.2441 63H30.2441C29.1396 63 28.2441 62.1046 28.2441 61V59C28.2441 57.8954 29.1396 57 30.2441 57Z" fill="currentColor" />
</svg>