<svg width="80" height="80" viewBox="0 0 80 80" fill="none" xmlns="http://www.w3.org/2000/svg">
  <path fill-rule="evenodd" clip-rule="evenodd" d="M21.9999 67.9999C21.9999 70.2091 23.7908 71.9999 25.9999 71.9999H53.9999C56.2091 71.9999 57.9999 70.2091 57.9999 67.9999L57.9999 19.9999C57.9999 17.7908 56.2091 15.9999 53.9999 15.9999L47.5 16C47.7761 16 48 15.7761 48 15.5C48 13.567 46.433 12 44.5 12L35.5 12C33.567 12 32 13.567 32 15.5C32 15.7761 32.2238 16 32.5 16L25.9999 15.9999C23.7908 15.9999 21.9999 17.7908 21.9999 19.9999L21.9999 67.9999ZM36.5377 61.9191V47.7698L29.2951 47.7698C28.5068 47.7698 28.0284 46.9 28.4506 46.2342L41.5705 25.5448C42.1067 24.6992 43.415 25.0791 43.415 26.0804V40.2297L50.6575 40.2297C51.4459 40.2297 51.9242 41.0994 51.502 41.7652L38.3822 62.4546C37.846 63.3002 36.5377 62.9204 36.5377 61.9191Z" fill="currentColor" />
</svg>