<svg width="80" height="80" viewBox="0 0 80 80" fill="none" xmlns="http://www.w3.org/2000/svg">
  <path d="M26 72C23.7909 72 22 70.2091 22 68L22 20C22 17.7909 23.7909 16 26 16L54 16C56.2091 16 58 17.7909 58 20L58 68C58 70.2091 56.2091 72 54 72H26Z" stroke="currentColor" stroke-width="6" stroke-linecap="round" stroke-linejoin="round" />
  <path fill-rule="evenodd" clip-rule="evenodd" d="M22 44L58 44L58 68C58 70.2091 56.2091 72 54 72L26 72C23.7909 72 22 70.2091 22 68L22 44Z" fill="currentColor" />
  <path d="M32 8L48 8" stroke="currentColor" stroke-width="6" stroke-linecap="round" stroke-linejoin="round" />
</svg>