<svg width="80" height="80" viewBox="0 0 80 80" fill="none" xmlns="http://www.w3.org/2000/svg">
  <path d="M58 16H61V13H58V16ZM22 16V13H19V16H22ZM58 22H55V25H58V22ZM64 22H67V19H64V22ZM64 58V61H67V58H64ZM58 58V55H55V58H58ZM58 64V67H61V64H58ZM22 64H19V67H22V64ZM22 58H25V55H22V58ZM16 58H13V61H16V58ZM16 22L16 19H13V22H16ZM22 22V25H25V22H22ZM58 13L22 13V19L58 19V13ZM61 22V16H55V22H61ZM64 19H58V25H64V19ZM67 58V22H61L61 58H67ZM58 61H64V55H58V61ZM61 64V58H55V64H61ZM22 67H58V61L22 61V67ZM19 58V64H25V58H19ZM16 61H22V55H16V61ZM13 22L13 58H19L19 22H13ZM22 19H16L16 25H22V19ZM19 16V22H25V16H19Z" fill="currentColor" />
  <rect x="10" y="10" width="12" height="12" fill="currentColor" stroke="currentColor" stroke-width="8" stroke-linecap="square" stroke-linejoin="round" />
  <rect x="10" y="58" width="12" height="12" fill="currentColor" stroke="currentColor" stroke-width="8" stroke-linecap="square" stroke-linejoin="round" />
  <rect x="58" y="10" width="12" height="12" fill="currentColor" stroke="currentColor" stroke-width="8" stroke-linecap="square" stroke-linejoin="round" />
  <rect x="58" y="58" width="12" height="12" fill="currentColor" stroke="currentColor" stroke-width="8" stroke-linecap="square" stroke-linejoin="round" />
</svg>