<svg width="80" height="80" viewBox="0 0 80 80" fill="none" xmlns="http://www.w3.org/2000/svg">
  <path d="M24 41H41V35H24V41ZM41 41H43V35H41V41ZM41 13H24.5V19H41V13ZM43 61H24.5V67H43V61ZM21 16.5V38H27V16.5H21ZM21 38V63.5H27V38H21ZM41 41C48.732 41 55 34.732 55 27H49C49 31.4183 45.4183 35 41 35V41ZM41 19C45.4183 19 49 22.5817 49 27H55C55 19.268 48.732 13 41 13V19ZM43 41C48.5228 41 53 45.4772 53 51H59C59 42.1634 51.8366 35 43 35V41ZM24.5 61C25.8807 61 27 62.1193 27 63.5H21C21 65.433 22.567 67 24.5 67V61ZM53 51C53 56.5229 48.5228 61 43 61V67C51.8366 67 59 59.8366 59 51H53ZM24.5 13C22.567 13 21 14.567 21 16.5H27C27 17.8807 25.8807 19 24.5 19V13Z" fill="currentColor" />
</svg>