<svg viewBox="0 0 80 80" fill="none">
  <path fill-rule="evenodd" clip-rule="evenodd" d="M8 59.2121L8 15.9281C9.41773 15.6365 10.8507 15.4136 12.2934 15.2609C18.5544 14.5985 24.9012 15.2679 30.8945 17.2281C34.0819 18.2706 37.1351 19.6653 40 21.3809L40 64.6649C37.1351 62.9493 34.0819 61.5546 30.8945 60.5121C24.9012 58.5519 18.5544 57.8825 12.2934 58.5449C10.8507 58.6976 9.41773 58.9206 8 59.2121Z" fill="currentColor" />
  <path d="M8 59.2121H6.5C6.5 59.6629 6.70275 60.0898 7.05215 60.3747C7.40155 60.6595 7.86054 60.7721 8.30211 60.6813L8 59.2121ZM8 15.9281L7.69789 14.4588C7.0005 14.6022 6.5 15.2161 6.5 15.9281H8ZM12.2934 15.2609L12.4512 16.7526L12.2934 15.2609ZM30.8945 17.2281L30.4282 18.6538V18.6538L30.8945 17.2281ZM40 21.3809H41.5C41.5 20.8536 41.2231 20.365 40.7706 20.094L40 21.3809ZM40 64.6649L39.2294 65.9518C39.6928 66.2294 40.2697 66.2363 40.7396 65.9699C41.2096 65.7036 41.5 65.2051 41.5 64.6649H40ZM30.8945 60.5121L30.4282 61.9378H30.4282L30.8945 60.5121ZM12.2934 58.5449L12.1355 57.0533H12.1355L12.2934 58.5449ZM9.5 59.2121L9.5 15.9281H6.5L6.5 59.2121H9.5ZM8.30211 17.3973C9.67235 17.1156 11.0571 16.9001 12.4512 16.7526L12.1355 13.7693C10.6442 13.927 9.16311 14.1575 7.69789 14.4588L8.30211 17.3973ZM12.4512 16.7526C18.5019 16.1124 24.636 16.7593 30.4282 18.6538L31.3608 15.8024C25.1663 13.7764 18.6068 13.0846 12.1355 13.7693L12.4512 16.7526ZM30.4282 18.6538C33.5089 19.6613 36.46 21.0094 39.2294 22.6678L40.7706 20.094C37.8102 18.3212 34.6549 16.8798 31.3608 15.8024L30.4282 18.6538ZM38.5 21.3809L38.5 64.6649H41.5L41.5 21.3809H38.5ZM40.7706 63.378C37.8102 61.6052 34.6549 60.1638 31.3608 59.0864L30.4282 61.9378C33.5089 62.9454 36.46 64.2935 39.2294 65.9518L40.7706 63.378ZM31.3608 59.0864C25.1663 57.0604 18.6068 56.3686 12.1355 57.0533L12.4512 60.0366C18.5019 59.3965 24.636 60.0433 30.4282 61.9378L31.3608 59.0864ZM12.1355 57.0533C10.6442 57.2111 9.16311 57.4415 7.69789 57.7428L8.30211 60.6813C9.67235 60.3996 11.0571 60.1841 12.4512 60.0366L12.1355 57.0533Z" fill="currentColor" />
  <path fill-rule="evenodd" clip-rule="evenodd" d="M72 59.2121L72 15.9281C70.5823 15.6365 69.1493 15.4136 67.7066 15.2609C61.4456 14.5985 55.0988 15.2679 49.1055 17.2281C45.9181 18.2706 42.8649 19.6653 40 21.3809L40 64.6649C42.8649 62.9493 45.9181 61.5546 49.1055 60.5121C55.0988 58.5519 61.4456 57.8825 67.7066 58.5449C69.1493 58.6976 70.5823 58.9206 72 59.2121Z" fill="currentColor" />
  <path d="M72 59.2121H73.5C73.5 59.6629 73.2972 60.0898 72.9478 60.3747C72.5984 60.6595 72.1395 60.7721 71.6979 60.6813L72 59.2121ZM72 15.9281L72.3021 14.4588C72.9995 14.6022 73.5 15.2161 73.5 15.9281H72ZM67.7066 15.2609L67.5488 16.7526L67.7066 15.2609ZM49.1055 17.2281L49.5718 18.6538V18.6538L49.1055 17.2281ZM40 21.3809H38.5C38.5 20.8536 38.7769 20.365 39.2294 20.094L40 21.3809ZM40 64.6649L40.7706 65.9518C40.3072 66.2294 39.7303 66.2363 39.2604 65.9699C38.7904 65.7036 38.5 65.2051 38.5 64.6649H40ZM49.1055 60.5121L49.5718 61.9378H49.5718L49.1055 60.5121ZM67.7066 58.5449L67.8645 57.0533H67.8645L67.7066 58.5449ZM70.5 59.2121V15.9281H73.5V59.2121H70.5ZM71.6979 17.3973C70.3276 17.1156 68.9429 16.9001 67.5488 16.7526L67.8645 13.7693C69.3558 13.927 70.8369 14.1575 72.3021 14.4588L71.6979 17.3973ZM67.5488 16.7526C61.4981 16.1124 55.364 16.7593 49.5718 18.6538L48.6392 15.8024C54.8337 13.7764 61.3932 13.0846 67.8645 13.7693L67.5488 16.7526ZM49.5718 18.6538C46.4911 19.6613 43.54 21.0094 40.7706 22.6678L39.2294 20.094C42.1898 18.3212 45.3451 16.8798 48.6392 15.8024L49.5718 18.6538ZM41.5 21.3809L41.5 64.6649H38.5L38.5 21.3809H41.5ZM39.2294 63.378C42.1898 61.6052 45.3451 60.1638 48.6392 59.0864L49.5718 61.9378C46.4911 62.9454 43.54 64.2935 40.7706 65.9518L39.2294 63.378ZM48.6392 59.0864C54.8337 57.0604 61.3932 56.3686 67.8645 57.0533L67.5488 60.0366C61.4981 59.3965 55.364 60.0433 49.5718 61.9378L48.6392 59.0864ZM67.8645 57.0533C69.3558 57.2111 70.8369 57.4415 72.3021 57.7428L71.6979 60.6813C70.3277 60.3996 68.9429 60.1841 67.5488 60.0366L67.8645 57.0533Z" fill="currentColor" />
</svg>