<svg width="80" height="80" viewBox="0 0 80 80" fill="none" xmlns="http://www.w3.org/2000/svg">
  <path d="M33 13.6013L34.2139 11.4158C33.4396 10.9857 32.4955 10.9975 31.7321 11.4467C30.9687 11.8959 30.5 12.7156 30.5 13.6013L33 13.6013ZM47 13.6013H49.5C49.5 12.7156 49.0313 11.8959 48.2679 11.4467C47.5045 10.9975 46.5604 10.9857 45.7861 11.4158L47 13.6013ZM47 66.3976L45.7861 68.5831C46.5604 69.0132 47.5045 69.0014 48.2679 68.5522C49.0313 68.103 49.5 67.2833 49.5 66.3976H47ZM33 66.3976H30.5C30.5 67.2833 30.9687 68.103 31.7321 68.5522C32.4955 69.0014 33.4396 69.0132 34.2139 68.5831L33 66.3976ZM31.7861 15.7868C34.2682 17.1654 37.0894 17.9149 40 17.9149V12.9149C37.9498 12.9149 35.9629 12.3872 34.2139 11.4158L31.7861 15.7868ZM40 17.9149C42.9106 17.9149 45.7318 17.1654 48.2139 15.7868L45.7861 11.4158C44.0371 12.3872 42.0502 12.9149 40 12.9149V17.9149ZM49.5 66.3976L49.5 13.6013H44.5L44.5 66.3976H49.5ZM40 67.084C42.0502 67.084 44.0372 67.6117 45.7861 68.5831L48.2139 64.2121C45.7318 62.8334 42.9106 62.084 40 62.084V67.084ZM34.2139 68.5831C35.9628 67.6117 37.9498 67.084 40 67.084V62.084C37.0894 62.084 34.2682 62.8334 31.7861 64.2121L34.2139 68.5831ZM30.5 13.6013L30.5 66.3976H35.5L35.5 13.6013H30.5Z" fill="currentColor" />
  <path d="M33 12L33 68M47 12L47 68" stroke="currentColor" stroke-width="5" stroke-linecap="round" stroke-linejoin="round" />
</svg>