<svg width="80" height="80" viewBox="0 0 80 80" fill="none" xmlns="http://www.w3.org/2000/svg">
  <path d="M16 61C14.3431 61 13 62.3431 13 64C13 65.6569 14.3431 67 16 67V61ZM64 67C65.6569 67 67 65.6569 67 64C67 62.3431 65.6569 61 64 61V67ZM67 16C67 14.3431 65.6569 13 64 13C62.3432 13 61 14.3431 61 16L67 16ZM61 64C61 65.6569 62.3431 67 64 67C65.6569 67 67 65.6569 67 64H61ZM16 13C14.3431 13 13 14.3431 13 16C13 17.6569 14.3431 19 16 19V13ZM64 19C65.6569 19 67 17.6569 67 16C67 14.3431 65.6569 13 64 13V19ZM19 16C19 14.3431 17.6569 13 16 13C14.3431 13 13 14.3431 13 16L19 16ZM13 64C13 65.6569 14.3431 67 16 67C17.6569 67 19 65.6569 19 64H13ZM16.005 67C17.6619 67 19.005 65.6569 19.005 64C19.005 62.3431 17.6619 61 16.005 61V67ZM23.995 61C22.3382 61 20.995 62.3431 20.995 64C20.995 65.6569 22.3382 67 23.995 67V61ZM24.005 67C25.6618 67 27.005 65.6569 27.005 64C27.005 62.3431 25.6618 61 24.005 61V67ZM31.995 61C30.3382 61 28.995 62.3431 28.995 64C28.995 65.6569 30.3382 67 31.995 67V61ZM32.005 67C33.6618 67 35.005 65.6569 35.005 64C35.005 62.3431 33.6618 61 32.005 61V67ZM39.995 61C38.3382 61 36.995 62.3431 36.995 64C36.995 65.6569 38.3382 67 39.995 67V61ZM40.005 67C41.6618 67 43.005 65.6569 43.005 64C43.005 62.3431 41.6618 61 40.005 61V67ZM47.995 61C46.3382 61 44.995 62.3431 44.995 64C44.995 65.6569 46.3382 67 47.995 67V61ZM48.005 67C49.6618 67 51.005 65.6569 51.005 64C51.005 62.3431 49.6618 61 48.005 61V67ZM55.995 61C54.3382 61 52.995 62.3431 52.995 64C52.995 65.6569 54.3382 67 55.995 67V61ZM56.005 67C57.6618 67 59.005 65.6569 59.005 64C59.005 62.3431 57.6618 61 56.005 61V67ZM63.995 61C62.3382 61 60.995 62.3431 60.995 64C60.995 65.6569 62.3382 67 63.995 67V61ZM67 63.995C67 62.3382 65.6569 60.995 64 60.995C62.3431 60.995 61 62.3382 61 63.995H67ZM61 56.005C61 57.6618 62.3431 59.005 64 59.005C65.6569 59.005 67 57.6618 67 56.005H61ZM67 55.995C67 54.3382 65.6569 52.995 64 52.995C62.3431 52.995 61 54.3382 61 55.995H67ZM61 48.005C61 49.6618 62.3431 51.005 64 51.005C65.6569 51.005 67 49.6618 67 48.005H61ZM67 47.995C67 46.3382 65.6569 44.995 64 44.995C62.3431 44.995 61 46.3382 61 47.995H67ZM61 40.005C61 41.6618 62.3431 43.005 64 43.005C65.6569 43.005 67 41.6618 67 40.005H61ZM67 39.995C67 38.3382 65.6569 36.995 64 36.995C62.3431 36.995 61 38.3382 61 39.995L67 39.995ZM61 32.005C61 33.6618 62.3431 35.005 64 35.005C65.6569 35.005 67 33.6618 67 32.005L61 32.005ZM67 31.995C67 30.3382 65.6569 28.995 64 28.995C62.3431 28.995 61 30.3382 61 31.995H67ZM61 24.005C61 25.6618 62.3431 27.005 64 27.005C65.6569 27.005 67 25.6618 67 24.005H61ZM67 23.995C67 22.3382 65.6569 20.995 64 20.995C62.3432 20.995 61 22.3382 61 23.995H67ZM61 16.005C61 17.6618 62.3432 19.005 64 19.005C65.6569 19.005 67 17.6618 67 16.005L61 16.005ZM16.005 19C17.6619 19 19.005 17.6569 19.005 16C19.005 14.3431 17.6619 13 16.005 13V19ZM23.995 13C22.3382 13 20.995 14.3431 20.995 16C20.995 17.6569 22.3382 19 23.995 19V13ZM24.005 19C25.6618 19 27.005 17.6569 27.005 16C27.005 14.3431 25.6618 13 24.005 13V19ZM31.995 13C30.3382 13 28.995 14.3431 28.995 16C28.995 17.6569 30.3382 19 31.995 19V13ZM32.005 19C33.6618 19 35.005 17.6569 35.005 16C35.005 14.3431 33.6618 13 32.005 13V19ZM39.995 13C38.3382 13 36.995 14.3431 36.995 16C36.995 17.6569 38.3382 19 39.995 19V13ZM40.005 19C41.6618 19 43.005 17.6569 43.005 16C43.005 14.3431 41.6618 13 40.005 13V19ZM47.995 13C46.3382 13 44.995 14.3431 44.995 16C44.995 17.6569 46.3382 19 47.995 19V13ZM48.005 19C49.6618 19 51.005 17.6569 51.005 16C51.005 14.3431 49.6618 13 48.005 13V19ZM55.995 13C54.3382 13 52.995 14.3431 52.995 16C52.995 17.6569 54.3382 19 55.995 19V13ZM56.005 19C57.6618 19 59.005 17.6569 59.005 16C59.005 14.3431 57.6618 13 56.005 13V19ZM63.995 13C62.3382 13 60.995 14.3431 60.995 16C60.995 17.6569 62.3382 19 63.995 19V13ZM19 63.995C19 62.3382 17.6569 60.995 16 60.995C14.3431 60.995 13 62.3382 13 63.995H19ZM13 56.005C13 57.6618 14.3431 59.005 16 59.005C17.6569 59.005 19 57.6618 19 56.005H13ZM19 55.995C19 54.3382 17.6569 52.995 16 52.995C14.3431 52.995 13 54.3382 13 55.995H19ZM13 48.005C13 49.6618 14.3431 51.005 16 51.005C17.6569 51.005 19 49.6618 19 48.005H13ZM19 47.995C19 46.3382 17.6569 44.995 16 44.995C14.3431 44.995 13 46.3382 13 47.995H19ZM13 40.005C13 41.6618 14.3431 43.005 16 43.005C17.6569 43.005 19 41.6618 19 40.005H13ZM19 39.995C19 38.3382 17.6569 36.995 16 36.995C14.3431 36.995 13 38.3382 13 39.995L19 39.995ZM13 32.005C13 33.6618 14.3431 35.005 16 35.005C17.6569 35.005 19 33.6618 19 32.005L13 32.005ZM19 31.995C19 30.3382 17.6569 28.995 16 28.995C14.3431 28.995 13 30.3382 13 31.995H19ZM13 24.005C13 25.6618 14.3431 27.005 16 27.005C17.6569 27.005 19 25.6618 19 24.005H13ZM19 23.995C19 22.3382 17.6569 20.995 16 20.995C14.3431 20.995 13 22.3382 13 23.995H19ZM13 16.005C13 17.6618 14.3431 19.005 16 19.005C17.6569 19.005 19 17.6618 19 16.005L13 16.005ZM16 67H16.005V61H16V67ZM23.995 67H24.005V61H23.995V67ZM31.995 67H32.005V61H31.995V67ZM39.995 67H40.005V61H39.995V67ZM47.995 67H48.005V61H47.995V67ZM55.995 67H56.005V61H55.995V67ZM63.995 67H64V61H63.995V67ZM67 64V63.995H61V64H67ZM67 56.005V55.995H61V56.005H67ZM67 48.005V47.995H61V48.005H67ZM67 40.005V39.995L61 39.995V40.005H67ZM67 32.005V31.995H61V32.005L67 32.005ZM67 24.005V23.995H61V24.005H67ZM67 16.005V16L61 16V16.005L67 16.005ZM16 19H16.005V13H16V19ZM23.995 19H24.005V13H23.995V19ZM31.995 19H32.005V13H31.995V19ZM39.995 19H40.005V13H39.995V19ZM47.995 19H48.005V13H47.995V19ZM55.995 19H56.005V13H55.995V19ZM63.995 19H64V13H63.995V19ZM19 64V63.995H13V64H19ZM19 56.005V55.995H13V56.005H19ZM19 48.005V47.995H13V48.005H19ZM19 40.005V39.995L13 39.995V40.005H19ZM19 32.005V31.995H13V32.005L19 32.005ZM19 24.005V23.995H13V24.005H19ZM19 16.005V16L13 16V16.005L19 16.005Z" fill="currentColor" />
  <path d="M43 16C43 14.3431 41.6569 13 40 13C38.3431 13 37 14.3431 37 16L43 16ZM37 64C37 65.6569 38.3431 67 40 67C41.6569 67 43 65.6569 43 64H37ZM16 37C14.3431 37 13 38.3431 13 40C13 41.6569 14.3431 43 16 43V37ZM64 43C65.6569 43 67 41.6569 67 40C67 38.3431 65.6569 37 64 37L64 43ZM37 16L37 64H43L43 16L37 16ZM16 43L64 43L64 37L16 37V43Z" fill="currentColor" />
</svg>