<svg viewBox="0 0 80 80" fill="none">
  <path d="M24 38.6464H21H24ZM28.5366 54.705L30.9156 52.8773L30.9156 52.8773L28.5366 54.705ZM28.7126 54.9341L26.3335 56.7617L26.3336 56.7617L28.7126 54.9341ZM57.2922 63.2072C58.7875 62.4935 59.4211 60.7028 58.7074 59.2075C57.9938 57.7122 56.2031 57.0786 54.7078 57.7923L57.2922 63.2072ZM54.6417 61.148L55.9339 63.8554H55.9339L54.6417 61.148ZM28.5366 25.2945L26.1576 23.4668L26.1576 23.4668L28.5366 25.2945ZM28.7126 25.0654L31.0916 26.893L31.0916 26.893L28.7126 25.0654ZM54.7078 22.2072C56.2031 22.9208 57.9938 22.2872 58.7074 20.7919C59.4211 19.2966 58.7875 17.5059 57.2922 16.7923L54.7078 22.2072ZM54.6417 18.8515L55.9339 16.144V16.144L54.6417 18.8515ZM42.131 17.0572L42.6101 20.0187L42.131 17.0572ZM42.131 62.9422L42.6101 59.9808H42.6101L42.131 62.9422ZM21 38.6464V41.3531H27V38.6464H21ZM26.1575 56.5326L26.3335 56.7617L31.0916 53.1064L30.9156 52.8773L26.1575 56.5326ZM54.7078 57.7923L53.3495 58.4405L55.9339 63.8554L57.2922 63.2072L54.7078 57.7923ZM30.9156 27.1221L31.0916 26.893L26.3336 23.2377L26.1576 23.4668L30.9156 27.1221ZM57.2922 16.7923L55.9339 16.144L53.3495 21.5589L54.7078 22.2072L57.2922 16.7923ZM42.6101 20.0187C46.2633 19.4276 50.0098 19.9649 53.3495 21.5589L55.9339 16.144C51.4924 14.0242 46.51 13.3096 41.6518 14.0957L42.6101 20.0187ZM41.6518 65.9037C46.51 66.6898 51.4924 65.9752 55.9339 63.8554L53.3495 58.4405C50.0098 60.0345 46.2633 60.5718 42.6101 59.9808L41.6518 65.9037ZM26.3336 56.7617C30.0884 61.6494 35.5675 64.9193 41.6518 65.9037L42.6101 59.9808C38.035 59.2405 33.9151 56.7817 31.0916 53.1064L26.3336 56.7617ZM21 41.3531C21 46.8429 22.8131 52.1791 26.1576 56.5326L30.9156 52.8773C28.3765 49.5722 27 45.521 27 41.3531H21ZM31.0916 26.893C33.9151 23.2177 38.035 20.7589 42.6101 20.0187L41.6518 14.0957C35.5675 15.0801 30.0884 18.3501 26.3336 23.2377L31.0916 26.893ZM27 38.6464C27 34.4785 28.3765 30.4273 30.9156 27.1221L26.1576 23.4668C22.8131 27.8203 21 33.1565 21 38.6464H27Z" fill="currentColor" />
</svg>