<svg viewBox="0 0 80 80" fill="none">
  <path d="M38.4681 15.0643C38.5117 13.9429 37.5803 13.021 36.4677 13.1675C29.3513 14.1044 22.8985 17.8299 18.5289 23.5245C14.1593 29.219 12.2308 36.4162 13.1677 43.5326C13.428 45.5102 13.9037 47.4364 14.5771 49.281C14.9809 50.3871 16.2926 50.801 17.3123 50.2122L36.6002 39.0763C37.195 38.7329 37.572 38.1083 37.5987 37.422L38.4681 15.0643Z" fill="currentColor" />
  <path d="M19.8123 54.5423C18.7926 55.1311 18.4952 56.474 19.2512 57.3767C20.5119 58.8822 21.9423 60.2573 23.5247 61.4715C29.2193 65.8411 36.4164 67.7696 43.5329 66.8327C50.6493 65.8958 57.1021 62.1702 61.4717 56.4757C65.8413 50.7811 67.7698 43.5839 66.8329 36.4675C66.5725 34.4899 66.0969 32.5637 65.4235 30.7191C65.0197 29.613 63.708 29.1992 62.6882 29.7879L19.8123 54.5423Z" fill="currentColor" />
  <path d="M45.7184 13.5469C44.5674 13.298 43.5173 14.1865 43.4711 15.3631L42.8195 31.9334C42.7576 33.5079 44.4561 34.5323 45.8198 33.743L60.1722 25.4355C61.1913 24.8456 61.4872 23.5024 60.7302 22.6005C59.4741 21.104 58.0503 19.7367 56.4759 18.5286C53.2718 16.07 49.5919 14.3842 45.7184 13.5469Z" fill="currentColor" />
</svg>