<svg width="80" height="81" viewBox="0 0 80 81" fill="none" xmlns="http://www.w3.org/2000/svg">
  <path d="M5.87851 24.7486C4.70694 23.577 4.70694 21.6775 5.87851 20.5059C7.05008 19.3344 8.94958 19.3344 10.1211 20.5059L5.87851 24.7486ZM62.447 44.5476C63.6186 45.7192 63.6186 47.6186 62.447 48.7902C61.2755 49.9618 59.376 49.9618 58.2044 48.7902L62.447 44.5476ZM10.1211 20.5059L26.7382 37.123L22.4955 41.3656L5.87851 24.7486L10.1211 20.5059ZM28.1524 37.123L36.6377 28.6377L40.8803 32.8803L32.395 41.3656L28.1524 37.123ZM46.5371 28.6377L62.447 44.5476L58.2044 48.7902L42.2945 32.8803L46.5371 28.6377ZM36.6377 28.6377C39.3713 25.904 43.8035 25.904 46.5371 28.6377L42.2945 32.8803C41.904 32.4898 41.2708 32.4898 40.8803 32.8803L36.6377 28.6377ZM26.7382 37.123C27.1287 37.5135 27.7618 37.5135 28.1524 37.123L32.395 41.3656C29.6613 44.0993 25.2292 44.0993 22.4955 41.3656L26.7382 37.123Z" fill="currentColor" />
  <path d="M65.811 41.1838L54.8404 52.1544C53.7333 53.2614 54.5174 55.1544 56.083 55.1544L65.811 55.1544C67.4678 55.1544 68.811 53.8112 68.811 52.1544L68.811 42.4264C68.811 40.8608 66.918 40.0767 65.811 41.1838Z" fill="currentColor" stroke="currentColor" stroke-width="6" stroke-linecap="round" stroke-linejoin="round" />
  <path d="M8 13V67C8 68.1046 8.89543 69 10 69H72" stroke="currentColor" stroke-width="6" stroke-linecap="round" stroke-linejoin="round" />
</svg>