<svg width="80" height="80" viewBox="0 0 80 80" fill="none" xmlns="http://www.w3.org/2000/svg">
  <path fill-rule="evenodd" clip-rule="evenodd" d="M40 68C55.464 68 68 55.464 68 40C68 24.536 55.464 12 40 12C24.536 12 12 24.536 12 40C12 55.464 24.536 68 40 68ZM43.6938 31.5615C41.6435 29.5112 38.3194 29.5112 36.2691 31.5615L25.8601 41.9705C24.6886 43.142 24.6886 45.0415 25.8601 46.2131C27.0317 47.3847 28.9312 47.3847 30.1028 46.2131L39.9814 36.3344L49.8601 46.2131C51.0317 47.3847 52.9312 47.3847 54.1028 46.2131C55.2743 45.0415 55.2743 43.142 54.1028 41.9705L43.6938 31.5615Z" fill="currentColor" />
</svg>