<svg viewBox="0 0 80 80" fill="none">
  <path fill-rule="evenodd" clip-rule="evenodd" d="M30 13L23 13C20.2386 13 18 15.2386 18 18L18 64C18 66.7614 20.2386 69 23 69H57C59.7614 69 62 66.7614 62 64L62 18C62 15.2386 59.7614 13 57 13L50 13C50 15.2091 48.2091 17 46 17H34C31.7909 17 30 15.2091 30 13Z" fill="currentColor" />
  <path d="M30 13H31.5V11.5H30V13ZM23 69V70.5V69ZM57 69V67.5V69ZM50 13V11.5H48.5V13H50ZM23 14.5L30 14.5V11.5L23 11.5V14.5ZM19.5 18C19.5 16.067 21.067 14.5 23 14.5V11.5C19.4101 11.5 16.5 14.4102 16.5 18H19.5ZM19.5 64L19.5 18H16.5L16.5 64H19.5ZM23 67.5C21.067 67.5 19.5 65.933 19.5 64H16.5C16.5 67.5899 19.4102 70.5 23 70.5V67.5ZM57 67.5H23V70.5H57V67.5ZM60.5 64C60.5 65.933 58.933 67.5 57 67.5V70.5C60.5899 70.5 63.5 67.5898 63.5 64H60.5ZM60.5 18L60.5 64H63.5L63.5 18H60.5ZM57 14.5C58.933 14.5 60.5 16.067 60.5 18H63.5C63.5 14.4101 60.5899 11.5 57 11.5V14.5ZM50 14.5L57 14.5V11.5L50 11.5V14.5ZM48.5 13C48.5 14.3807 47.3807 15.5 46 15.5V18.5C49.0376 18.5 51.5 16.0376 51.5 13H48.5ZM46 15.5H34V18.5H46V15.5ZM34 15.5C32.6193 15.5 31.5 14.3807 31.5 13H28.5C28.5 16.0376 30.9624 18.5 34 18.5V15.5Z" fill="currentColor" />
  <rect x="30" y="9" width="20" height="8" rx="4" stroke="currentColor" stroke-width="5" />
</svg>