<svg width="80" height="80" viewBox="0 0 80 80" fill="none" xmlns="http://www.w3.org/2000/svg">
  <path fill-rule="evenodd" clip-rule="evenodd" d="M40 66C54.3594 66 66 54.3594 66 40C66 25.6406 54.3594 14 40 14C25.6406 14 14 25.6406 14 40C14 46.5596 16.4291 52.5518 20.4369 57.1261L16 66L40 66ZM40 26.5C36.4101 26.5 33.5 29.4101 33.5 33V33.5082C33.5 34.8889 32.3807 36.0082 31 36.0082C29.6193 36.0082 28.5 34.8889 28.5 33.5082V33C28.5 26.6487 33.6487 21.5 40 21.5H40.7729C46.6973 21.5 51.5 26.3027 51.5 32.2271C51.5 36.0117 49.5057 39.5163 46.252 41.4493L45.2006 42.0739C43.5263 43.0687 42.5 44.8721 42.5 46.8197V47.2C42.5 48.5807 41.3807 49.7 40 49.7C38.6193 49.7 37.5 48.5807 37.5 47.2V46.8197C37.5 43.1081 39.4558 39.6711 42.6468 37.7753L43.6981 37.1507C45.4353 36.1187 46.5 34.2476 46.5 32.2271C46.5 29.0641 43.9359 26.5 40.7729 26.5H40ZM42.5 53.5999C42.5 52.2192 41.3807 51.0999 40 51.0999C38.6193 51.0999 37.5 52.2192 37.5 53.5999V55.1999C37.5 56.5806 38.6193 57.6999 40 57.6999C41.3807 57.6999 42.5 56.5806 42.5 55.1999V53.5999Z" fill="currentColor" />
</svg>