<svg width="80" height="80" viewBox="0 0 80 80" fill="none" xmlns="http://www.w3.org/2000/svg">
  <path fill-rule="evenodd" clip-rule="evenodd" d="M24 12C19.5817 12 16 15.5817 16 20V52C16 56.4183 19.5817 60 24 60H34L40 68L46 60H56C60.4183 60 64 56.4183 64 52V20C64 15.5817 60.4183 12 56 12H24ZM40 21.5C41.379 21.5 42.4976 22.6166 42.5 23.9957L42.5133 31.6469L49.1385 27.8371L49.1461 27.8328C50.3415 27.1453 51.8679 27.5557 52.5574 28.75C53.2469 29.9443 52.8391 31.4713 51.6461 32.1629L51.6385 32.1672L45.0265 36L51.6385 39.8328L51.6461 39.8371C52.8391 40.5287 53.2469 42.0557 52.5574 43.25C51.8679 44.4443 50.3415 44.8547 49.1461 44.1672L49.1385 44.1629L42.5133 40.3531L42.5 48.0043C42.4976 49.3834 41.379 50.5 40 50.5C38.621 50.5 37.5024 49.3834 37.5 48.0043L37.4867 40.3531L30.8614 44.1629L30.8539 44.1672C29.6585 44.8547 28.1321 44.4443 27.4426 43.25C26.7531 42.0557 27.1609 40.5287 28.3539 39.8371L34.9735 36L28.3539 32.1629C27.1609 31.4713 26.7531 29.9443 27.4426 28.75C28.1321 27.5557 29.6585 27.1453 30.8539 27.8328L30.8614 27.8371L37.4867 31.6469L37.5 23.9957C37.5024 22.6166 38.621 21.5 40 21.5Z" fill="currentColor" />
</svg>