<svg width="80" height="80" viewBox="0 0 80 80" fill="none" xmlns="http://www.w3.org/2000/svg">
  <path d="M50 50.9999C50 53.2091 48.2091 54.9999 46 54.9999H33V29.0003C33 28.4479 33.4478 28.0002 34.0002 28.0003L50 28.0009V50.9999Z" fill="currentColor" />
  <path d="M50 22.0009L34.0013 22.0003C30.1348 21.9996 27 25.1338 27 29.0003V54.9999H22C19.7909 54.9999 18 53.2091 18 50.9999L18 17C18 14.7907 19.7911 12.9998 22.0004 13L45.9993 13.0003C48.2087 12.9999 50 14.7909 50 17.0003V22.0009Z" fill="currentColor" />
  <path d="M34 66.9999C31.7909 66.9999 30 65.209 30 62.9999V29.0002C30 26.7908 31.7913 24.9998 34.0007 25.0002L57.9996 24.9999C60.2089 24.9997 62 26.7906 62 28.9999L62 62.9999C62 65.209 60.2091 66.9999 58 66.9999H34Z" fill="currentColor" />
</svg>