<svg width="80" height="80" viewBox="0 0 80 80" fill="none" xmlns="http://www.w3.org/2000/svg">
  <path fill-rule="evenodd" clip-rule="evenodd" d="M32.2482 58.1641V63.1641C32.2482 64.8209 33.5913 66.1641 35.2482 66.1641H45.2482C46.905 66.1641 48.2481 64.8209 48.2481 63.1641L48.2482 58.1641V53.1641V52.6641V52.1641V51.6641V51.1641V50.6641V50.1641V49.6641V49.1641V48.9141V48.6641V48.4141C48.2482 48.276 48.3601 48.1641 48.4982 48.1641H48.748H49.248H49.748H50.248H50.748H51.248H58.248H63.248C64.9049 48.1641 66.248 46.8209 66.248 45.1641V35.1641C66.248 33.5072 64.9049 32.1641 63.248 32.1641H58.248H51.248H50.748H50.248H49.748H49.248H48.748H48.4982C48.3601 32.1641 48.2482 32.0521 48.2482 31.9141V31.6641V31.4141V31.1641V30.9141V30.6641V30.4141V30.1641V29.9141V29.6641V29.4141V29.1641V28.6641V28.1641V27.6641V27.1641V26.6641V26.1641L48.2481 25.664L48.2482 25.1641V22.1641L48.2482 17.1641C48.2482 15.5072 46.905 14.1641 45.2482 14.1641L35.2482 14.1641C33.5913 14.1641 32.2482 15.5072 32.2482 17.1641L32.2482 22.1641L32.2482 25.1641V25.6641L32.2482 26.1641V26.6641V27.1641V27.6641V28.1641V28.6641V29.1641V29.4141V29.6641V29.9141V30.1641V30.4141V30.6641V30.9141V31.1641V31.4141V31.6641V31.9141V32.164C32.2482 32.164 32.2481 32.1641 32.248 32.1641H31.748H31.248H22.248H17.248C15.5912 32.1641 14.248 33.5072 14.248 35.1641L14.248 45.1641C14.248 46.8209 15.5912 48.1641 17.248 48.1641H22.248H31.248H31.748H32.248C32.2481 48.1641 32.2482 48.1641 32.2482 48.1642V48.4141V48.6641V48.9141V49.1641V49.6641V50.1641V50.6641V51.1641V51.6641V52.1641V52.6641V53.1641V58.1641Z" fill="currentColor" />
  <path d="M48.2482 58.1641L49.7482 58.1641V58.1641H48.2482ZM58.248 48.1641V49.6641V48.1641ZM48.748 32.1641V30.6641H48.748L48.748 32.1641ZM48.2482 26.1641H49.7482V26.1641L48.2482 26.1641ZM48.2481 25.664L46.7481 25.664V25.664L48.2481 25.664ZM48.2482 25.1641L49.7482 25.1641V25.1641H48.2482ZM48.2482 22.1641L46.7482 22.1641V22.1641H48.2482ZM32.2482 22.1641L33.7482 22.1641V22.1641L32.2482 22.1641ZM32.2482 25.1641L30.7482 25.1641V25.1641L32.2482 25.1641ZM32.2482 25.6641L30.7482 25.6641V25.6641L32.2482 25.6641ZM32.2482 26.1641H33.7482V26.1641L32.2482 26.1641ZM48.4982 32.1641L48.4981 30.6641L48.4982 32.1641ZM48.2481 63.1641H49.7481H48.2481ZM63.248 48.1641L63.2481 49.6641L63.248 48.1641ZM33.7482 63.1641V58.1641H30.7482V63.1641H33.7482ZM45.2482 64.6641H35.2482V67.6641H45.2482V64.6641ZM46.7482 58.1641L46.7481 63.1641H49.7481L49.7482 58.1641L46.7482 58.1641ZM46.7482 53.1641V58.1641H49.7482V53.1641H46.7482ZM46.7482 52.6641V53.1641H49.7482V52.6641H46.7482ZM46.7482 52.1641V52.6641H49.7482V52.1641H46.7482ZM46.7482 51.6641V52.1641H49.7482V51.6641H46.7482ZM46.7482 51.1641V51.6641H49.7482V51.1641H46.7482ZM46.7482 50.6641V51.1641H49.7482V50.6641H46.7482ZM46.7482 50.1641V50.6641H49.7482V50.1641H46.7482ZM46.7482 49.6641V50.1641H49.7482V49.6641H46.7482ZM46.7482 49.1641V49.6641H49.7482V49.1641H46.7482ZM46.7482 48.9141V49.1641H49.7482V48.9141H46.7482ZM46.7482 48.6641V48.9141H49.7482V48.6641H46.7482ZM46.7482 48.4141V48.6641H49.7482V48.4141H46.7482ZM48.748 46.6641H48.4982V49.6641H48.748V46.6641ZM49.248 46.6641H48.748V49.6641H49.248V46.6641ZM49.748 46.6641H49.248V49.6641H49.748V46.6641ZM50.248 46.6641H49.748V49.6641H50.248V46.6641ZM50.748 46.6641H50.248V49.6641H50.748V46.6641ZM51.248 46.6641H50.748V49.6641H51.248V46.6641ZM58.248 46.6641H51.248V49.6641H58.248V46.6641ZM63.248 46.6641H58.248V49.6641H63.2481L63.248 46.6641ZM64.748 35.1641V45.1641H67.748V35.1641H64.748ZM58.248 33.6641H63.248V30.6641H58.248V33.6641ZM51.248 33.6641H58.248V30.6641H51.248V33.6641ZM50.748 33.6641H51.248V30.6641H50.748V33.6641ZM50.248 33.6641H50.748V30.6641H50.248V33.6641ZM49.748 33.6641H50.248V30.6641H49.748V33.6641ZM49.248 33.6641H49.748V30.6641H49.248V33.6641ZM48.748 33.6641H49.248V30.6641H48.748V33.6641ZM48.4982 33.6641H48.7481L48.748 30.6641H48.4981L48.4982 33.6641ZM46.7482 31.6641V31.9141L49.7482 31.9141V31.6641L46.7482 31.6641ZM46.7482 31.4141V31.6641L49.7482 31.6641V31.4141L46.7482 31.4141ZM46.7482 31.1641V31.4141L49.7482 31.4141V31.1641L46.7482 31.1641ZM46.7482 30.9141V31.1641L49.7482 31.1641V30.9141L46.7482 30.9141ZM46.7482 30.6641V30.9141L49.7482 30.9141V30.6641L46.7482 30.6641ZM46.7482 30.4141V30.6641L49.7482 30.6641V30.4141L46.7482 30.4141ZM46.7482 30.1641V30.4141L49.7482 30.4141V30.1641L46.7482 30.1641ZM46.7482 29.9141V30.1641L49.7482 30.1641V29.9141H46.7482ZM46.7482 29.6641V29.9141H49.7482V29.6641H46.7482ZM46.7482 29.4141V29.6641H49.7482V29.4141H46.7482ZM46.7482 29.1641V29.4141H49.7482V29.1641H46.7482ZM46.7482 28.6641V29.1641H49.7482V28.6641H46.7482ZM46.7482 28.1641V28.6641H49.7482V28.1641H46.7482ZM46.7482 27.6641V28.1641H49.7482V27.6641H46.7482ZM46.7482 27.1641V27.6641H49.7482V27.1641H46.7482ZM46.7482 26.6641V27.1641H49.7482V26.6641H46.7482ZM46.7482 26.1641V26.6641H49.7482V26.1641H46.7482ZM46.7481 25.664L46.7482 26.1641L49.7482 26.1641L49.7481 25.664L46.7481 25.664ZM46.7482 25.1641L46.7481 25.664L49.7481 25.664L49.7482 25.1641L46.7482 25.1641ZM46.7482 22.1641V25.1641H49.7482V22.1641H46.7482ZM46.7482 17.1641L46.7482 22.1641L49.7482 22.1641L49.7482 17.1641L46.7482 17.1641ZM35.2482 15.6641L45.2482 15.6641L45.2482 12.6641L35.2482 12.6641L35.2482 15.6641ZM33.7482 22.1641L33.7482 17.1641L30.7482 17.1641L30.7482 22.1641L33.7482 22.1641ZM33.7482 25.1641L33.7482 22.1641L30.7482 22.1641L30.7482 25.1641L33.7482 25.1641ZM33.7482 25.6641V25.1641L30.7482 25.1641L30.7482 25.6641L33.7482 25.6641ZM33.7482 26.1641L33.7482 25.6641L30.7482 25.6641L30.7482 26.1641L33.7482 26.1641ZM33.7482 26.6641V26.1641L30.7482 26.1641V26.6641L33.7482 26.6641ZM33.7482 27.1641V26.6641L30.7482 26.6641V27.1641L33.7482 27.1641ZM33.7482 27.6641V27.1641L30.7482 27.1641V27.6641L33.7482 27.6641ZM33.7482 28.1641V27.6641L30.7482 27.6641V28.1641L33.7482 28.1641ZM33.7482 28.6641V28.1641L30.7482 28.1641V28.6641L33.7482 28.6641ZM33.7482 29.1641V28.6641L30.7482 28.6641V29.1641L33.7482 29.1641ZM33.7482 29.4141V29.1641L30.7482 29.1641V29.4141L33.7482 29.4141ZM33.7482 29.6641V29.4141L30.7482 29.4141V29.6641L33.7482 29.6641ZM33.7482 29.9141V29.6641L30.7482 29.6641V29.9141L33.7482 29.9141ZM33.7482 30.1641V29.9141L30.7482 29.9141V30.1641H33.7482ZM33.7482 30.4141V30.1641H30.7482V30.4141H33.7482ZM33.7482 30.6641V30.4141H30.7482V30.6641H33.7482ZM33.7482 30.9141V30.6641H30.7482V30.9141H33.7482ZM33.7482 31.1641V30.9141H30.7482V31.1641H33.7482ZM33.7482 31.4141V31.1641H30.7482V31.4141H33.7482ZM33.7482 31.6641V31.4141H30.7482V31.6641H33.7482ZM33.7482 31.9141V31.6641H30.7482V31.9141H33.7482ZM33.7482 32.164V31.9141H30.7482V32.164H33.7482ZM31.748 33.6641H32.248V30.6641H31.748V33.6641ZM31.248 33.6641H31.748V30.6641H31.248V33.6641ZM22.248 33.6641H31.248V30.6641L22.248 30.6641V33.6641ZM17.248 33.6641H22.248V30.6641H17.248V33.6641ZM15.748 45.1641L15.748 35.1641H12.748L12.748 45.1641H15.748ZM22.248 46.6641H17.248V49.6641H22.248V46.6641ZM31.248 46.6641H22.248V49.6641H31.248L31.248 46.6641ZM31.748 46.6641H31.248L31.248 49.6641H31.748L31.748 46.6641ZM32.248 46.6641H31.748L31.748 49.6641H32.248L32.248 46.6641ZM33.7482 48.4141V48.1642H30.7482V48.4141H33.7482ZM33.7482 48.6641V48.4141H30.7482V48.6641H33.7482ZM33.7482 48.9141V48.6641H30.7482V48.9141H33.7482ZM33.7482 49.1641V48.9141H30.7482V49.1641H33.7482ZM33.7482 49.6641V49.1641H30.7482V49.6641H33.7482ZM33.7482 50.1641V49.6641H30.7482V50.1641H33.7482ZM33.7482 50.6641V50.1641H30.7482V50.6641H33.7482ZM33.7482 51.1641V50.6641H30.7482V51.1641H33.7482ZM33.7482 51.6641V51.1641H30.7482V51.6641H33.7482ZM33.7482 52.1641V51.6641H30.7482V52.1641H33.7482ZM33.7482 52.6641V52.1641H30.7482V52.6641H33.7482ZM33.7482 53.1641V52.6641H30.7482V53.1641H33.7482ZM33.7482 58.1641V53.1641H30.7482V58.1641H33.7482ZM32.248 49.6641C31.4197 49.6641 30.7482 48.9925 30.7482 48.1642H33.7482C33.7482 47.3357 33.0765 46.6641 32.248 46.6641L32.248 49.6641ZM12.748 45.1641C12.748 47.6493 14.7628 49.6641 17.248 49.6641V46.6641C16.4196 46.6641 15.748 45.9925 15.748 45.1641H12.748ZM17.248 30.6641C14.7628 30.6641 12.748 32.6788 12.748 35.1641H15.748C15.748 34.3356 16.4196 33.6641 17.248 33.6641V30.6641ZM49.7482 17.1641C49.7482 14.6788 47.7334 12.6641 45.2482 12.6641L45.2482 15.6641C46.0766 15.6641 46.7482 16.3356 46.7482 17.1641L49.7482 17.1641ZM30.7482 32.164C30.7482 31.3356 31.4197 30.6641 32.248 30.6641V33.6641C33.0765 33.6641 33.7482 32.9924 33.7482 32.164H30.7482ZM48.4981 30.6641C49.1885 30.6641 49.7482 31.2237 49.7482 31.9141L46.7482 31.9141C46.7482 32.8806 47.5317 33.6641 48.4982 33.6641L48.4981 30.6641ZM35.2482 12.6641C32.7629 12.6641 30.7482 14.6788 30.7482 17.1641L33.7482 17.1641C33.7482 16.3356 34.4197 15.6641 35.2482 15.6641L35.2482 12.6641ZM67.748 35.1641C67.748 32.6788 65.7333 30.6641 63.248 30.6641V33.6641C64.0765 33.6641 64.748 34.3356 64.748 35.1641H67.748ZM45.2482 67.6641C47.7334 67.6641 49.7481 65.6493 49.7481 63.1641H46.7481C46.7481 63.9925 46.0766 64.6641 45.2482 64.6641V67.6641ZM63.2481 49.6641C65.7333 49.6641 67.748 47.6493 67.748 45.1641H64.748C64.748 45.9925 64.0765 46.6641 63.248 46.6641L63.2481 49.6641ZM49.7482 48.4141C49.7482 49.1044 49.1885 49.6641 48.4982 49.6641V46.6641C47.5317 46.6641 46.7482 47.4476 46.7482 48.4141H49.7482ZM30.7482 63.1641C30.7482 65.6493 32.7629 67.6641 35.2482 67.6641V64.6641C34.4197 64.6641 33.7482 63.9925 33.7482 63.1641H30.7482Z" fill="currentColor" />
</svg>