<svg width="80" height="80" viewBox="0 0 80 80" fill="none" xmlns="http://www.w3.org/2000/svg">
  <path fill-rule="evenodd" clip-rule="evenodd" d="M16 24C16 19.5817 19.5817 16 24 16H56C60.4183 16 64 19.5817 64 24V56C64 60.4183 60.4183 64 56 64H24C19.5817 64 16 60.4183 16 56V24ZM25 27C25 24.7909 26.7909 23 29 23C31.2091 23 33 24.7909 33 27C33 29.2091 31.2091 31 29 31C26.7909 31 25 29.2091 25 27ZM51 23C48.7909 23 47 24.7909 47 27C47 29.2091 48.7909 31 51 31C53.2091 31 55 29.2091 55 27C55 24.7909 53.2091 23 51 23ZM25 53C25 50.7909 26.7909 49 29 49C31.2091 49 33 50.7909 33 53C33 55.2091 31.2091 57 29 57C26.7909 57 25 55.2091 25 53ZM51 49C48.7909 49 47 50.7909 47 53C47 55.2091 48.7909 57 51 57C53.2091 57 55 55.2091 55 53C55 50.7909 53.2091 49 51 49Z" fill="currentColor" />
</svg>