<svg width="80" height="80" viewBox="0 0 80 80" fill="none" xmlns="http://www.w3.org/2000/svg">
  <path fill-rule="evenodd" clip-rule="evenodd" d="M8 52.1287V36.0188C8.32833 36.0551 8.66199 36.0737 9 36.0737C13.9706 36.0737 18 32.0443 18 27.0737C18 26.7106 17.9785 26.3525 17.9367 26.0006C23.7427 25.7521 29.5078 24.8716 35.1295 23.3725L44.8705 20.7749C50.4869 19.2772 56.2465 18.397 62.0471 18.1476C62.0159 18.4521 62 18.761 62 19.0737C62 24.0443 66.0294 28.0737 71 28.0737C71.338 28.0737 71.6717 28.0551 72 28.0188V44.1287C71.6717 44.0924 71.338 44.0737 71 44.0737C66.0294 44.0737 62 48.1032 62 53.0737C62 53.4369 62.0215 53.795 62.0633 54.1469C56.2573 54.3953 50.4922 55.2758 44.8705 56.7749L35.1295 59.3725C29.5131 60.8702 23.7535 61.7505 17.9529 61.9999C17.9841 61.6954 18 61.3864 18 61.0737C18 56.1032 13.9706 52.0737 9 52.0737C8.66199 52.0737 8.32833 52.0924 8 52.1287ZM44.9839 31.7337C42.1814 29.5763 38.2776 29.5763 35.4751 31.7337C33.5583 33.2092 32.4353 35.491 32.4353 37.9099V42.2376C32.4353 44.6565 33.5583 46.9383 35.4751 48.4138C38.2776 50.5711 42.1814 50.5711 44.9839 48.4138C46.9007 46.9383 48.0237 44.6565 48.0237 42.2376V37.9099C48.0237 35.491 46.9007 33.2092 44.9839 31.7337ZM19.4152 41.2937C20.3494 40.5746 21.6506 40.5746 22.5848 41.2937C23.2237 41.7856 23.5981 42.5462 23.5981 43.3524V44.795C23.5981 45.6013 23.2237 46.3619 22.5848 46.8537C21.6506 47.5729 20.3494 47.5729 19.4152 46.8537C18.7763 46.3619 18.4019 45.6013 18.4019 44.795V43.3524C18.4019 42.5462 18.7763 41.7856 19.4152 41.2937ZM60.5848 33.2937C59.6506 32.5746 58.3494 32.5746 57.4152 33.2937C56.7763 33.7856 56.4019 34.5462 56.4019 35.3524V36.795C56.4019 37.6013 56.7763 38.3619 57.4152 38.8537C58.3494 39.5729 59.6506 39.5729 60.5848 38.8537C61.2237 38.3619 61.5981 37.6013 61.5981 36.795V35.3524C61.5981 34.5462 61.2237 33.7856 60.5848 33.2937Z" fill="currentColor" />
  <path d="M8 28C8 26.8954 8.89543 26 10 26H14.5165C21.4758 26 28.4053 25.0919 35.1295 23.2988L44.8705 20.7012C51.5947 18.9081 58.5242 18 65.4835 18H70C71.1046 18 72 18.8954 72 20V52C72 53.1046 71.1046 54 70 54H65.4835C58.5242 54 51.5947 54.9081 44.8705 56.7012L35.1295 59.2988C28.4053 61.0919 21.4758 62 14.5165 62H10C8.89543 62 8 61.1046 8 60V28Z" stroke="currentColor" stroke-width="5" stroke-linecap="round" stroke-linejoin="round" />
</svg>