<svg viewBox="0 0 80 80" fill="none">
  <path d="M35.6482 38.3606L36.4511 35.47L35.6482 38.3606ZM40.8 39.7917L41.6558 36.9163C41.6382 36.9111 41.6206 36.906 41.6029 36.9011L40.8 39.7917ZM45.0909 41.0687L45.9467 38.1934L45.0909 41.0687ZM31 49.5833C31 47.9265 29.6569 46.5833 28 46.5833C26.3431 46.5833 25 47.9265 25 49.5833H31ZM48.2 30.4167C48.2 32.0735 49.5431 33.4167 51.2 33.4167C52.8569 33.4167 54.2 32.0735 54.2 30.4167H48.2ZM37 20C37 21.6569 38.3431 23 40 23C41.6569 23 43 21.6569 43 20H37ZM43 16C43 14.3431 41.6569 13 40 13C38.3431 13 37 14.3431 37 16H43ZM37 64C37 65.6569 38.3431 67 40 67C41.6569 67 43 65.6569 43 64H37ZM43 60C43 58.3431 41.6569 57 40 57C38.3431 57 37 58.3431 37 60H43ZM41.2 17H38.1509V23H41.2V17ZM38 63H42.3336V57H38V63ZM34.8452 41.2512L39.9971 42.6822L41.6029 36.9011L36.4511 35.47L34.8452 41.2512ZM39.9442 42.667L44.2352 43.9441L45.9467 38.1934L41.6558 36.9163L39.9442 42.667ZM31 50V49.5833H25V50H31ZM48.2 30V30.4167H54.2V30H48.2ZM55 50.3336C55 44.7297 51.3177 39.7919 45.9467 38.1934L44.2352 43.9441C47.062 44.7854 49 47.3842 49 50.3336H55ZM25.8 29.3509C25.8 34.899 29.4995 39.7662 34.8452 41.2512L36.4511 35.47C33.7023 34.7065 31.8 32.2037 31.8 29.3509H25.8ZM42.3336 63C49.329 63 55 57.329 55 50.3336H49C49 54.0153 46.0153 57 42.3336 57V63ZM38 57C34.134 57 31 53.866 31 50H25C25 57.1797 30.8203 63 38 63V57ZM41.2 23C45.066 23 48.2 26.134 48.2 30H54.2C54.2 22.8203 48.3797 17 41.2 17V23ZM38.1509 17C31.3297 17 25.8 22.5297 25.8 29.3509H31.8C31.8 25.8434 34.6434 23 38.1509 23V17ZM43 20V16H37V20H43ZM43 64V60H37V64H43Z" fill="currentColor" />
</svg>