<svg width="80" height="80" viewBox="0 0 80 80" fill="none" xmlns="http://www.w3.org/2000/svg">
  <path d="M38.1776 16.0307C38.8866 14.4627 41.1134 14.4627 41.8224 16.0307L44.8729 22.7778C46.3364 26.0148 48.0331 29.1412 49.9494 32.1323L55.3675 40.5891C58.2711 45.1213 58.7829 50.7845 56.7389 55.7639C55.0762 59.814 51.8728 63.0378 47.8332 64.7261L47.1029 65.0314C42.5581 66.9309 37.4419 66.9309 32.8971 65.0314L32.1668 64.7261C28.1272 63.0378 24.9238 59.814 23.2611 55.7639C21.2171 50.7845 21.7289 45.1213 24.6325 40.5891L30.0506 32.1323C31.9669 29.1412 33.6636 26.0148 35.1271 22.7778L38.1776 16.0307Z" fill="currentColor" stroke="currentColor" stroke-width="4" stroke-linecap="square" stroke-linejoin="round" />
</svg>