<svg width="80" height="80" viewBox="0 0 80 80" fill="none" xmlns="http://www.w3.org/2000/svg">
  <path d="M49.1016 23.8275C46.1859 22.9564 43.1293 22.5 40.0178 22.5C36.3414 22.5 32.7415 23.1372 29.3601 24.3429C29.3319 24.3775 29.3039 24.4123 29.2761 24.4472C26.6733 27.711 25.6984 31.9824 26.6273 36.0523C27.2049 38.5831 28.4796 40.8646 30.2654 42.6638L31.4617 41.4675C29.257 39.2448 27.9737 36.213 27.9737 32.9985C27.9737 30.8507 28.5469 28.7838 29.5846 26.9864C30.275 25.7907 31.8039 25.381 32.9997 26.0713C34.1954 26.7616 34.6051 28.2906 33.9148 29.4863C33.3082 30.5371 32.9737 31.7436 32.9737 32.9985C32.9737 34.8696 33.718 36.6347 34.9974 37.9318L49.1016 23.8275Z" fill="currentColor" />
  <path d="M26.7298 46.1994C24.2863 43.7423 22.5422 40.6242 21.7526 37.1649C20.7495 32.7701 21.3734 28.203 23.4377 24.2814C19.5566 26.4291 16.0828 29.336 13.248 32.8907C11.5505 35.0194 10.1304 37.3197 9 39.7379C10.1302 42.1555 11.5501 44.4552 13.2472 46.5834C15.2028 49.0356 17.4626 51.1797 19.9504 52.9788L26.7298 46.1994Z" fill="currentColor" />
  <path d="M29.3128 57.7585L35.8254 51.2459C39.9229 52.1834 44.2618 51.7227 48.122 49.8637C53.2541 47.3923 56.9814 42.7183 58.249 37.1649C58.8835 34.3848 58.867 31.5357 58.2466 28.8247L60.3664 26.7049C62.7412 28.4602 64.9026 30.533 66.7828 32.8907C68.4799 35.0188 69.8997 37.3186 71.03 39.7361C69.8996 42.1544 68.4795 44.4547 66.782 46.5834C60.2858 54.7293 50.4337 59.4739 40.0146 59.4739C36.3357 59.4739 32.7275 58.8824 29.3128 57.7585Z" fill="currentColor" />
  <path d="M53.7137 33.3576C53.6903 34.257 53.5781 35.1595 53.3743 36.0523C52.4454 40.1222 49.7137 43.5476 45.9526 45.3589C44.1822 46.2115 42.2744 46.6627 40.3586 46.7127L53.7137 33.3576Z" fill="currentColor" />
  <path fill-rule="evenodd" clip-rule="evenodd" d="M69.7678 14.2322C70.7441 15.2085 70.7441 16.7915 69.7678 17.7678L21.7678 65.7678C20.7915 66.7441 19.2085 66.7441 18.2322 65.7678C17.2559 64.7915 17.2559 63.2085 18.2322 62.2322L66.2322 14.2322C67.2085 13.2559 68.7915 13.2559 69.7678 14.2322Z" fill="currentColor" />
</svg>