<svg width="80" height="80" viewBox="0 0 80 80" fill="none" xmlns="http://www.w3.org/2000/svg">
  <path d="M36.4087 47.2253C38.6877 48.3228 41.3423 48.3228 43.6213 47.2253C45.9002 46.1279 47.5554 44.0523 48.1182 41.5863C48.6811 39.1203 48.0904 36.5322 46.5133 34.5546C44.9362 32.577 42.5444 31.4252 40.015 31.4252C37.4856 31.4252 35.0938 32.577 33.5167 34.5546C31.9396 36.5322 31.3489 39.1203 31.9118 41.5863C32.4746 44.0523 34.1298 46.1279 36.4087 47.2253Z" fill="currentColor" />
  <path fill-rule="evenodd" clip-rule="evenodd" d="M66.782 46.5831C68.4795 44.4545 69.8996 42.1541 71.03 39.7359C69.8997 37.3183 68.4799 35.0186 66.7828 32.8905C60.2866 24.7445 50.4345 20 40.0154 20C29.5963 20 19.7442 24.7445 13.248 32.8905C11.5505 35.0191 10.1304 37.3195 9 39.7377C10.1302 42.1553 11.5501 44.455 13.2472 46.5831C19.7434 54.7291 29.5955 59.4736 40.0146 59.4736C50.4337 59.4736 60.2858 54.7291 66.782 46.5831ZM45.7907 51.7302C42.1408 53.4879 37.8892 53.4879 34.2393 51.7302C30.5894 49.9725 27.9386 46.6484 27.0371 42.6989C26.1357 38.7494 27.0818 34.6044 29.6075 31.4372C32.1333 28.2699 35.9639 26.4252 40.015 26.4252C44.066 26.4252 47.8967 28.2699 50.4224 31.4372C52.9482 34.6044 53.8943 38.7494 52.9929 42.6989C52.0914 46.6484 49.4406 49.9725 45.7907 51.7302Z" fill="currentColor" />
</svg>