<svg width="80" height="80" viewBox="0 0 80 80" fill="none" xmlns="http://www.w3.org/2000/svg">
  <path fill-rule="evenodd" clip-rule="evenodd" d="M58 16L22 16L22 35L58 35V16ZM58 45L22 45L22 64H58V45Z" fill="currentColor" />
  <path d="M22 16L22 14C20.8954 14 20 14.8954 20 16H22ZM58 16H60C60 15.4696 59.7893 14.9609 59.4142 14.5858C59.0391 14.2107 58.5304 14 58 14V16ZM22 35H20C20 35.5304 20.2107 36.0391 20.5858 36.4142C20.9609 36.7893 21.4696 37 22 37L22 35ZM58 35V37C59.1046 37 60 36.1046 60 35H58ZM58 45H60C60 44.4696 59.7893 43.9609 59.4142 43.5858C59.0391 43.2107 58.5304 43 58 43V45ZM22 45L22 43C20.8954 43 20 43.8954 20 45H22ZM22 64H20C20 64.5304 20.2107 65.0391 20.5858 65.4142C20.9609 65.7893 21.4696 66 22 66L22 64ZM58 64V66C59.1046 66 60 65.1046 60 64H58ZM22 18L58 18V14L22 14L22 18ZM24 35L24 16H20L20 35H24ZM22 37L58 37V33L22 33L22 37ZM56 16V35H60V16H56ZM58 43L22 43L22 47L58 47V43ZM24 64L24 45H20L20 64H24ZM58 62L22 62L22 66H58V62ZM56 45V64H60V45H56Z" fill="currentColor" />
  <path d="M12 16L12 64M22 16L22 64" stroke="currentColor" stroke-width="4" stroke-linecap="round" stroke-linejoin="round" />
  <path d="M12 16L22 16" stroke="currentColor" stroke-width="4" stroke-linecap="round" stroke-linejoin="round" />
  <path d="M22 28L12 28" stroke="currentColor" stroke-width="4" stroke-linecap="round" stroke-linejoin="round" />
  <path d="M22 40H12" stroke="currentColor" stroke-width="4" stroke-linecap="round" stroke-linejoin="round" />
  <path d="M22 52H12" stroke="currentColor" stroke-width="4" stroke-linecap="round" stroke-linejoin="round" />
  <path d="M22 64H12" stroke="currentColor" stroke-width="4" stroke-linecap="round" stroke-linejoin="round" />
  <path d="M58 16L58 64M68 16V64" stroke="currentColor" stroke-width="4" stroke-linecap="round" stroke-linejoin="round" />
  <path d="M58 16L68 16" stroke="currentColor" stroke-width="4" stroke-linecap="round" stroke-linejoin="round" />
  <path d="M68 28L58 28" stroke="currentColor" stroke-width="4" stroke-linecap="round" stroke-linejoin="round" />
  <path d="M68 40H58" stroke="currentColor" stroke-width="4" stroke-linecap="round" stroke-linejoin="round" />
  <path d="M68 52H58" stroke="currentColor" stroke-width="4" stroke-linecap="round" stroke-linejoin="round" />
  <path d="M68 64H58" stroke="currentColor" stroke-width="4" stroke-linecap="round" stroke-linejoin="round" />
</svg>