<svg width="80" height="80" viewBox="0 0 80 80" fill="none" xmlns="http://www.w3.org/2000/svg">
  <path fill-rule="evenodd" clip-rule="evenodd" d="M29.1526 38.05L21.2993 27.0826L20.7429 27.8595C17.6585 32.167 16 37.332 16 42.6298V44C16 57.2548 26.7452 68 40 68C53.2548 68 64 57.2548 64 44V42.6298C64 37.332 62.3415 32.167 59.2571 27.8595L47.9007 12L29.2474 38.05C29.2242 38.0824 29.1759 38.0824 29.1526 38.05ZM29.1526 48.8232L23.6285 41.1086C23.3455 42.308 23.1999 43.5433 23.1999 44.791C23.1999 53.6465 30.3787 60.8253 39.2342 60.8253H40.7657C49.6211 60.8253 56.7999 53.6465 56.7999 44.791C56.7999 41.2188 55.607 37.7489 53.4105 34.9318L46.0001 25.4276L29.2474 48.8232C29.2242 48.8557 29.1759 48.8557 29.1526 48.8232Z" fill="currentColor" stroke="currentColor" stroke-width="3" stroke-linecap="round" stroke-linejoin="round" />
</svg>