<svg width="80" height="80" viewBox="0 0 80 80" fill="none" xmlns="http://www.w3.org/2000/svg">
  <path d="M28 61C26.3431 61 25 62.3431 25 64C25 65.6569 26.3431 67 28 67V61ZM48 19C49.6569 19 51 17.6569 51 16C51 14.3431 49.6569 13 48 13V19ZM28 67H38V61H28V67ZM31 35L31 17H25L25 35H31ZM29 19L48 19V13L29 13V19ZM38 33H29V39H38V33ZM31 17C31 18.1046 30.1046 19 29 19V13C26.7909 13 25 14.7909 25 17H31ZM25 35C25 37.2091 26.7909 39 29 39V33C30.1046 33 31 33.8954 31 35H25ZM55 50C55 40.6112 47.3888 33 38 33V39C44.0751 39 49 43.9249 49 50L55 50ZM38 67C47.3888 67 55 59.3888 55 50L49 50C49 56.0751 44.0751 61 38 61V67Z" fill="currentColor" />
</svg>