<svg width="80" height="80" viewBox="0 0 80 80" fill="none" xmlns="http://www.w3.org/2000/svg">
  <path d="M15.5002 39.6557L13.8361 42.1519H13.8361L15.5002 39.6557ZM13.9378 38.6141L15.6019 36.118L15.6019 36.118L13.9378 38.6141ZM12.9373 34.8209C11.3634 34.3032 9.66781 35.1595 9.15017 36.7334C8.63253 38.3074 9.48882 40.0029 11.0627 40.5205L12.9373 34.8209ZM29.0626 38.6141L30.7267 41.1103V41.1103L29.0626 38.6141ZM25.9378 40.6973L24.2737 38.2012V38.2012L25.9378 40.6973ZM17.0626 40.6973L15.3985 43.1935H15.3985L17.0626 40.6973ZM39.5002 39.6557L37.8361 42.1519L39.5002 39.6557ZM37.9378 38.6141L39.6019 36.118L37.9378 38.6141ZM53.0626 38.6141L51.3985 36.118V36.118L53.0626 38.6141ZM49.9378 40.6973L51.6019 43.1935L49.9378 40.6973ZM41.0626 40.6973L42.7267 38.2012V38.2012L41.0626 40.6973ZM55.9374 40.5206C57.5113 40.0029 58.3675 38.3073 57.8498 36.7334C57.3321 35.1595 55.6365 34.3033 54.0626 34.821L55.9374 40.5206ZM17.1643 37.1596L15.6019 36.118L12.2737 41.1103L13.8361 42.1519L17.1643 37.1596ZM11.0627 40.5205C11.4837 40.659 11.8911 40.8552 12.2737 41.1103L15.6019 36.118C14.7638 35.5592 13.8666 35.1265 12.9373 34.8209L11.0627 40.5205ZM27.3985 36.118L24.2737 38.2012L27.6019 43.1935L30.7267 41.1103L27.3985 36.118ZM18.7267 38.2012L17.1643 37.1596L13.8361 42.1519L15.3985 43.1935L18.7267 38.2012ZM41.1643 37.1596L39.6019 36.118L36.2737 41.1103L37.8361 42.1519L41.1643 37.1596ZM30.7267 41.1103C32.4062 39.9906 34.5942 39.9906 36.2737 41.1103L39.6019 36.118C35.907 33.6547 31.0934 33.6547 27.3985 36.118L30.7267 41.1103ZM24.2737 38.2012C22.5942 39.3208 20.4062 39.3208 18.7267 38.2012L15.3985 43.1935C19.0934 45.6567 23.907 45.6567 27.6019 43.1935L24.2737 38.2012ZM51.3985 36.118L48.2737 38.2012L51.6019 43.1935L54.7267 41.1103L51.3985 36.118ZM42.7267 38.2012L41.1643 37.1596L37.8361 42.1519L39.3985 43.1935L42.7267 38.2012ZM54.7267 41.1103C55.1091 40.8553 55.5164 40.6591 55.9374 40.5206L54.0626 34.821C53.1334 35.1267 52.2364 35.5593 51.3985 36.118L54.7267 41.1103ZM48.2737 38.2012C46.5942 39.3208 44.4062 39.3208 42.7267 38.2012L39.3985 43.1935C43.0934 45.6567 47.907 45.6567 51.6019 43.1935L48.2737 38.2012Z" fill="currentColor" />
  <path d="M27.5002 25.8853L25.8361 23.3892H25.8361L27.5002 25.8853ZM25.9378 26.9269L27.6019 29.4231L27.6019 29.4231L25.9378 26.9269ZM24.9373 30.7201C23.3634 31.2378 21.6678 30.3815 21.1502 28.8076C20.6325 27.2337 21.4888 25.5381 23.0627 25.0205L24.9373 30.7201ZM41.0626 26.9269L42.7267 24.4308V24.4308L41.0626 26.9269ZM37.9378 24.8437L36.2737 27.3399V27.3399L37.9378 24.8437ZM29.0626 24.8437L27.3985 22.3476H27.3985L29.0626 24.8437ZM51.5002 25.8853L49.8361 23.3892L51.5002 25.8853ZM49.9378 26.9269L51.6019 29.4231L49.9378 26.9269ZM65.0626 26.9269L63.3985 29.4231V29.4231L65.0626 26.9269ZM61.9378 24.8437L63.6019 22.3476L61.9378 24.8437ZM53.0626 24.8437L54.7267 27.3399V27.3399L53.0626 24.8437ZM67.9374 25.0204C69.5113 25.5381 70.3675 27.2337 69.8498 28.8076C69.3321 30.3815 67.6365 31.2377 66.0626 30.72L67.9374 25.0204ZM29.1643 28.3815L27.6019 29.4231L24.2737 24.4308L25.8361 23.3892L29.1643 28.3815ZM23.0627 25.0205C23.4837 24.882 23.8911 24.6858 24.2737 24.4308L27.6019 29.4231C26.7638 29.9818 25.8666 30.4145 24.9373 30.7201L23.0627 25.0205ZM39.3985 29.4231L36.2737 27.3399L39.6019 22.3476L42.7267 24.4308L39.3985 29.4231ZM30.7267 27.3399L29.1643 28.3815L25.8361 23.3892L27.3985 22.3476L30.7267 27.3399ZM53.1643 28.3815L51.6019 29.4231L48.2737 24.4308L49.8361 23.3892L53.1643 28.3815ZM42.7267 24.4308C44.4062 25.5504 46.5942 25.5504 48.2737 24.4308L51.6019 29.4231C47.907 31.8863 43.0934 31.8863 39.3985 29.4231L42.7267 24.4308ZM36.2737 27.3399C34.5942 26.2202 32.4062 26.2202 30.7267 27.3399L27.3985 22.3476C31.0934 19.8843 35.907 19.8843 39.6019 22.3476L36.2737 27.3399ZM63.3985 29.4231L60.2737 27.3399L63.6019 22.3476L66.7267 24.4308L63.3985 29.4231ZM54.7267 27.3399L53.1643 28.3815L49.8361 23.3892L51.3985 22.3476L54.7267 27.3399ZM66.7267 24.4308C67.1091 24.6857 67.5164 24.8819 67.9374 25.0204L66.0626 30.72C65.1334 30.4143 64.2364 29.9817 63.3985 29.4231L66.7267 24.4308ZM60.2737 27.3399C58.5942 26.2202 56.4062 26.2202 54.7267 27.3399L51.3985 22.3476C55.0934 19.8843 59.907 19.8843 63.6019 22.3476L60.2737 27.3399Z" fill="currentColor" />
  <path d="M27.5002 53.4244L25.8361 50.9282H25.8361L27.5002 53.4244ZM25.9378 54.466L27.6019 56.9621L27.6019 56.9621L25.9378 54.466ZM24.9373 58.2592C23.3634 58.7768 21.6678 57.9205 21.1502 56.3466C20.6325 54.7727 21.4888 53.0772 23.0627 52.5595L24.9373 58.2592ZM41.0626 54.466L42.7267 51.9698V51.9698L41.0626 54.466ZM37.9378 52.3828L36.2737 54.8789V54.8789L37.9378 52.3828ZM29.0626 52.3828L27.3985 49.8866H27.3985L29.0626 52.3828ZM51.5002 53.4244L49.8361 50.9282L51.5002 53.4244ZM49.9378 54.466L51.6019 56.9621L49.9378 54.466ZM65.0626 54.466L63.3985 56.9621V56.9621L65.0626 54.466ZM61.9378 52.3828L63.6019 49.8866L61.9378 52.3828ZM53.0626 52.3828L54.7267 54.8789V54.8789L53.0626 52.3828ZM67.9374 52.5595C69.5113 53.0772 70.3675 54.7727 69.8498 56.3466C69.3321 57.9205 67.6365 58.7768 66.0626 58.259L67.9374 52.5595ZM29.1643 55.9205L27.6019 56.9621L24.2737 51.9698L25.8361 50.9282L29.1643 55.9205ZM23.0627 52.5595C23.4837 52.4211 23.8911 52.2248 24.2737 51.9698L27.6019 56.9621C26.7638 57.5209 25.8666 57.9535 24.9373 58.2592L23.0627 52.5595ZM39.3985 56.9621L36.2737 54.8789L39.6019 49.8866L42.7267 51.9698L39.3985 56.9621ZM30.7267 54.8789L29.1643 55.9205L25.8361 50.9282L27.3985 49.8866L30.7267 54.8789ZM53.1643 55.9205L51.6019 56.9621L48.2737 51.9698L49.8361 50.9282L53.1643 55.9205ZM42.7267 51.9698C44.4062 53.0895 46.5942 53.0895 48.2737 51.9698L51.6019 56.9621C47.907 59.4254 43.0934 59.4254 39.3985 56.9621L42.7267 51.9698ZM36.2737 54.8789C34.5942 53.7593 32.4062 53.7593 30.7267 54.8789L27.3985 49.8866C31.0934 47.4234 35.907 47.4234 39.6019 49.8866L36.2737 54.8789ZM63.3985 56.9621L60.2737 54.8789L63.6019 49.8866L66.7267 51.9698L63.3985 56.9621ZM54.7267 54.8789L53.1643 55.9205L49.8361 50.9282L51.3985 49.8866L54.7267 54.8789ZM66.7267 51.9698C67.1091 52.2248 67.5164 52.421 67.9374 52.5595L66.0626 58.259C65.1334 57.9534 64.2364 57.5208 63.3985 56.9621L66.7267 51.9698ZM60.2737 54.8789C58.5942 53.7593 56.4062 53.7593 54.7267 54.8789L51.3985 49.8866C55.0934 47.4234 59.907 47.4234 63.6019 49.8866L60.2737 54.8789Z" fill="currentColor" />
</svg>