<svg width="80" height="80" viewBox="0 0 80 80" fill="none" xmlns="http://www.w3.org/2000/svg">
  <path d="M38 35H18V47H38V35Z" fill="currentColor" />
  <path d="M38 51H18V63H38V51Z" fill="currentColor" />
  <path d="M42 63V51H62V63H42Z" fill="currentColor" />
  <path d="M42 47V35H62V47H42Z" fill="currentColor" />
  <path fill-rule="evenodd" clip-rule="evenodd" d="M23.1081 25.2871C26.112 19.8802 33.888 19.8802 36.8919 25.2871L40 30.8818L43.1081 25.2871C46.112 19.8802 53.888 19.8802 56.8919 25.2871C58.3273 27.8708 58.1384 30.7453 56.8609 33H62C63.1046 33 64 33.8954 64 35V63C64 64.1046 63.1046 65 62 65H18C16.8954 65 16 64.1046 16 63V35C16 33.8954 16.8954 33 18 33H23.1391C21.8616 30.7453 21.6727 27.8708 23.1081 25.2871ZM30 33H36.601L33.3953 27.2297C31.9154 24.566 28.0846 24.566 26.6047 27.2297C25.1665 29.8185 27.0385 33 30 33ZM43.399 33H50C52.9615 33 54.8335 29.8185 53.3953 27.2297C51.9154 24.566 48.0846 24.566 46.6047 27.2297L43.399 33ZM20 37V61H60V37H20Z" fill="currentColor" />
</svg>