<svg width="80" height="80" viewBox="0 0 80 80" fill="none" xmlns="http://www.w3.org/2000/svg">
  <path fill-rule="evenodd" clip-rule="evenodd" d="M22.234 14.8015C25.6188 8.70875 34.3812 8.70874 37.766 14.8015L40 18.8226L36.5681 25H23.3399C21.001 22.3353 20.2748 18.328 22.234 14.8015ZM34.9015 28L36.5681 25H43.4319L45.0985 28H41.7652L40 31.1774L38.2348 28H34.9015ZM40 31.1774L32.6225 44.4569C31.8178 45.9053 29.9914 46.4271 28.5431 45.6225C27.0947 44.8178 26.5729 42.9914 27.3775 41.5431L34.9015 28H30C27.2603 28 24.9282 26.8096 23.3399 25H12C9.79086 25 8 26.7909 8 29V69C8 71.2091 9.79086 73 12 73H68C70.2091 73 72 71.2091 72 69V29C72 26.7909 70.2091 25 68 25H56.6601C58.999 22.3353 59.7252 18.328 57.766 14.8015C54.3812 8.70875 45.6188 8.70874 42.234 14.8015L40 18.8226L43.4319 25H56.6601C55.0718 26.8096 52.7397 28 50 28H45.0985L52.6225 41.5431C53.4271 42.9914 52.9053 44.8178 51.4569 45.6225C50.0086 46.4271 48.1822 45.9053 47.3775 44.4569L40 31.1774ZM34.9015 22L32.5211 17.7154C31.4223 15.7375 28.5777 15.7375 27.4789 17.7154C26.411 19.6377 27.801 22 30 22H34.9015ZM16 54C14.3431 54 13 55.3431 13 57C13 58.6569 14.3431 60 16 60H23C24.6569 60 26 58.6569 26 57C26 55.3431 24.6569 54 23 54H16ZM27 57C27 55.3431 28.3431 54 30 54H37C38.6569 54 40 55.3431 40 57C40 58.6569 38.6569 60 37 60H30C28.3431 60 27 58.6569 27 57ZM44 54C42.3431 54 41 55.3431 41 57C41 58.6569 42.3431 60 44 60H51C52.6569 60 54 58.6569 54 57C54 55.3431 52.6569 54 51 54H44ZM55 57C55 55.3431 56.3431 54 58 54H65C66.6569 54 68 55.3431 68 57C68 58.6569 66.6569 60 65 60H58C56.3431 60 55 58.6569 55 57ZM16 62C14.3431 62 13 63.3431 13 65C13 66.6569 14.3431 68 16 68H32C33.6569 68 35 66.6569 35 65C35 63.3431 33.6569 62 32 62H16ZM47.4789 17.7154L45.0985 22H50C52.199 22 53.589 19.6377 52.5211 17.7154C51.4223 15.7375 48.5777 15.7375 47.4789 17.7154Z" fill="currentColor" />
</svg>