<svg width="80" height="80" viewBox="0 0 80 80" fill="none" xmlns="http://www.w3.org/2000/svg">
  <rect x="24" y="24" width="32" height="44" stroke="currentColor" stroke-width="4" stroke-linecap="round" stroke-linejoin="round" />
  <path fill-rule="evenodd" clip-rule="evenodd" d="M40 9.5C41.3805 9.5 42.4997 10.6189 42.5 11.9994V12.0006L42.5007 14.6673L43.8346 12.3583L43.8353 12.3571C44.5258 11.1618 46.0545 10.7524 47.25 11.4426C48.4455 12.1329 48.8553 13.6614 48.1654 14.8571L48.1648 14.8583L46.832 17.168L49.1418 15.8353L49.1429 15.8346C50.3386 15.1447 51.8672 15.5545 52.5574 16.75C53.1971 17.858 52.8923 19.2521 51.8927 20H28.1073C27.1078 19.2521 26.803 17.858 27.4427 16.75C28.1329 15.5545 29.6615 15.1447 30.8572 15.8346L30.8583 15.8353L33.168 17.168L31.8353 14.8583L31.8346 14.8571C31.1447 13.6614 31.5545 12.1329 32.75 11.4426C33.9455 10.7524 35.4742 11.1618 36.1648 12.3571L36.1654 12.3583L37.4993 14.6673L37.5 12.0006V11.9994C37.5004 10.6189 38.6196 9.5 40 9.5Z" fill="currentColor" />
</svg>