<svg width="80" height="80" viewBox="0 0 80 80" fill="none" xmlns="http://www.w3.org/2000/svg">
  <path d="M29.3929 14.3929C36.1842 11.5799 43.8148 11.5799 50.6061 14.3929V14.3929C57.3974 17.206 62.7931 22.6016 65.6061 29.3929V29.3929C68.4192 36.1842 68.4192 43.8148 65.6061 50.6061V50.6061C62.7931 57.3974 57.3974 62.7931 50.6061 65.6061V65.6061C43.8148 68.4192 36.1842 68.4192 29.3929 65.6061V65.6061C22.6016 62.7931 17.206 57.3974 14.3929 50.6061V50.6061C11.5799 43.8148 11.5799 36.1842 14.3929 29.3929V29.3929C17.206 22.6016 22.6016 17.206 29.3929 14.3929V14.3929Z" stroke="currentColor" stroke-width="5" stroke-linecap="round" stroke-linejoin="round" />
  <path fill-rule="evenodd" clip-rule="evenodd" d="M24.4116 45.6106C25.6331 45.7393 26.8488 45.3196 27.7307 44.4648L28.9059 43.3257C30.3658 41.9106 32.3293 41.1354 34.3623 41.1714L34.4182 41.1724L38.1999 45.5401L41.1008 45.2758L42.6233 45.1371C43.514 45.0559 44.3481 44.6652 44.9806 44.0328C45.6422 43.3713 46.5234 42.9753 47.4573 42.9196L49.8522 42.7768L52.3906 45.6399C53.8728 47.3116 53.788 49.8507 52.1977 51.4198C51.3762 52.2304 50.2575 52.6675 49.1041 52.6286L45.5145 52.5075C45.0368 52.4914 44.5904 52.7448 44.3594 53.1633C44.059 53.7076 43.409 53.9545 42.8231 53.7471L36.9637 51.6727C36.3863 51.4683 35.9744 50.9545 35.9005 50.3465C35.7996 49.5161 35.0807 48.9005 34.2446 48.9287L28.6201 49.1183C28.2715 49.1301 27.9377 48.977 27.7192 48.7051C27.2722 48.149 26.4237 48.1542 25.9836 48.7159L22.805 52.7728C22.2047 53.539 21.8315 54.4584 21.7281 55.4263L21.2017 60.3527C23.5809 62.5499 26.349 64.3338 29.3986 65.5969C36.1899 68.41 43.8205 68.41 50.6118 65.5969C52.9578 64.6252 55.1373 63.3452 57.1013 61.806L54.1281 58.7484C53.5558 58.1599 53.6574 57.1966 54.3399 56.7404C54.8702 56.386 55.5784 56.4636 56.0193 56.9245L59.0673 60.1108C61.2751 58.0191 63.1365 55.5662 64.5623 52.8414L64.4522 52.7315C64.1226 52.4027 64.0552 51.8933 64.288 51.49C64.5297 51.0714 65.0089 50.8979 65.4373 51.0087C65.4965 50.872 65.5547 50.7348 65.6118 50.5969C68.4248 43.8056 68.4248 36.175 65.6118 29.3837C64.1128 25.7649 61.8806 22.5424 59.0946 19.8957L57.5696 19.9018C55.5129 19.91 53.532 19.1257 52.0383 17.7118L51.5697 17.2682C50.2081 15.9794 48.4362 15.2096 46.5649 15.0935C44.2961 14.9527 42.0736 15.7837 40.4542 17.379L37.6851 20.1068C37.1274 20.6562 36.9201 21.4694 37.1466 22.2187C37.5907 23.6877 39.4054 24.2051 40.5574 23.1912L43.1937 20.8709C43.7866 20.3491 44.6945 20.4256 45.1917 21.0392C45.6277 21.5772 45.6011 22.3542 45.1293 22.8611L42.8048 25.3586C42.4249 25.7667 42.1916 26.2896 42.1416 26.8449C42.0269 28.1189 40.9731 29.1034 39.6942 29.1311L36.3628 29.2035C34.8574 29.2362 33.4146 29.8123 32.3007 30.8255L28.4919 34.29L27.0707 28.9102C26.0817 25.1665 21.5863 23.6546 18.536 26.0398L18.1586 26.3349C17.1937 27.0894 16.5947 28.2183 16.5108 29.4402C16.3431 31.8831 18.2384 33.9762 20.6859 34.0511L28.4919 34.29L26.3784 38.819C25.9078 39.8273 25.0386 40.594 23.9795 40.9349L22.3976 41.4442C21.4359 41.7538 20.8421 42.7168 20.9975 43.7152C21.1407 44.6357 21.8854 45.3445 22.8119 45.4421L24.4116 45.6106ZM49.8522 42.7768L50.7977 40.7442C51.7227 38.7555 53.6504 37.4221 55.8376 37.2581L57.0827 37.1648C58.4404 37.063 59.7514 37.6836 60.5332 38.7982L61.2308 39.7927C61.9406 40.8047 61.7934 42.1855 60.8862 43.0252C60.0979 43.7548 58.9284 43.8916 57.993 43.3634L56.983 42.7932C56.2503 42.3795 55.4071 42.2037 54.57 42.29L49.8522 42.7768Z" fill="currentColor" />
  <path d="M27.7307 44.4648L28.0787 44.8238L27.7307 44.4648ZM24.4116 45.6106L24.3593 46.1079L24.4116 45.6106ZM28.9059 43.3257L29.2538 43.6848L28.9059 43.3257ZM34.3623 41.1714L34.3534 41.6714H34.3534L34.3623 41.1714ZM34.4182 41.1724L34.7962 40.8452C34.7033 40.7378 34.569 40.675 34.4271 40.6725L34.4182 41.1724ZM38.1999 45.5401L37.8218 45.8674C37.9273 45.9892 38.0849 46.0527 38.2452 46.0381L38.1999 45.5401ZM41.1008 45.2758L41.0554 44.7779L41.1008 45.2758ZM42.6233 45.1371L42.6687 45.635L42.6233 45.1371ZM44.9806 44.0328L44.6271 43.6792L44.9806 44.0328ZM47.4573 42.9196L47.4871 43.4187L47.4573 42.9196ZM52.3906 45.6399L52.0165 45.9716L52.3906 45.6399ZM52.1977 51.4198L51.8465 51.0639L52.1977 51.4198ZM49.1041 52.6286L49.1209 52.1289L49.1041 52.6286ZM45.5145 52.5075L45.5314 52.0078L45.5145 52.5075ZM44.3594 53.1633L44.7971 53.4049H44.7971L44.3594 53.1633ZM42.8231 53.7471L42.99 53.2758H42.99L42.8231 53.7471ZM36.9637 51.6727L36.7968 52.144H36.7968L36.9637 51.6727ZM35.9005 50.3465L35.4042 50.4068L35.9005 50.3465ZM34.2446 48.9287L34.2614 49.4284L34.2446 48.9287ZM28.6201 49.1183L28.6369 49.618H28.6369L28.6201 49.1183ZM27.7192 48.7051L28.1089 48.3919H28.1089L27.7192 48.7051ZM25.9836 48.7159L26.3772 49.0243L25.9836 48.7159ZM22.805 52.7728L23.1986 53.0812L22.805 52.7728ZM21.7281 55.4263L21.2309 55.3731L21.7281 55.4263ZM21.2017 60.3527L20.7045 60.2996C20.6877 60.4568 20.7463 60.6128 20.8625 60.7201L21.2017 60.3527ZM29.3986 65.5969L29.2072 66.0589L29.3986 65.5969ZM50.6118 65.5969L50.4204 65.135L50.6118 65.5969ZM57.1013 61.806L57.4097 62.1995C57.5214 62.112 57.5906 61.9812 57.6002 61.8396C57.6097 61.6981 57.5587 61.5591 57.4598 61.4574L57.1013 61.806ZM54.1281 58.7484L53.7697 59.097L54.1281 58.7484ZM54.3399 56.7404L54.6178 57.1561H54.6178L54.3399 56.7404ZM56.0193 56.9245L56.3806 56.5788L56.0193 56.9245ZM59.0673 60.1108L58.706 60.4564C58.8962 60.6553 59.2114 60.663 59.4112 60.4738L59.0673 60.1108ZM64.5623 52.8414L65.0053 53.0732C65.1068 52.8793 65.0704 52.642 64.9154 52.4874L64.5623 52.8414ZM64.4522 52.7315L64.0991 53.0855V53.0855L64.4522 52.7315ZM64.288 51.49L63.855 51.24L63.855 51.24L64.288 51.49ZM65.4373 51.0087L65.312 51.4928C65.5504 51.5545 65.7982 51.4334 65.8961 51.2075L65.4373 51.0087ZM65.6118 50.5969L65.1498 50.4056V50.4056L65.6118 50.5969ZM65.6118 29.3837L66.0737 29.1924L65.6118 29.3837ZM59.0946 19.8957L59.439 19.5332C59.3455 19.4445 59.2215 19.3952 59.0926 19.3957L59.0946 19.8957ZM57.5696 19.9018L57.5676 19.4018L57.5696 19.9018ZM52.0383 17.7118L52.382 17.3487V17.3487L52.0383 17.7118ZM51.5697 17.2682L51.226 17.6314V17.6314L51.5697 17.2682ZM46.5649 15.0935L46.534 15.5925L46.5649 15.0935ZM40.4542 17.379L40.1033 17.0228V17.0228L40.4542 17.379ZM37.6851 20.1068L37.3342 19.7506V19.7506L37.6851 20.1068ZM37.1466 22.2187L36.668 22.3634V22.3634L37.1466 22.2187ZM40.5574 23.1912L40.8878 23.5665L40.5574 23.1912ZM43.1937 20.8709L42.8634 20.4956V20.4956L43.1937 20.8709ZM45.1917 21.0392L44.8033 21.354V21.354L45.1917 21.0392ZM45.1293 22.8611L44.7633 22.5205V22.5205L45.1293 22.8611ZM42.8048 25.3586L43.1708 25.6992V25.6992L42.8048 25.3586ZM42.1416 26.8449L41.6437 26.8V26.8L42.1416 26.8449ZM39.6942 29.1311L39.6833 28.6313L39.6942 29.1311ZM36.3628 29.2035L36.352 28.7036L36.3628 29.2035ZM32.3007 30.8255L32.6372 31.1954L32.3007 30.8255ZM27.0707 28.9102L26.5873 29.0379L27.0707 28.9102ZM18.536 26.0398L18.844 26.4337L18.536 26.0398ZM18.1586 26.3349L17.8506 25.941L18.1586 26.3349ZM16.5108 29.4402L17.0096 29.4745L16.5108 29.4402ZM20.6859 34.0511L20.7012 33.5514H20.7012L20.6859 34.0511ZM26.3784 38.819L25.9253 38.6076L26.3784 38.819ZM23.9795 40.9349L24.1327 41.4109L23.9795 40.9349ZM22.3976 41.4442L22.2444 40.9682L22.3976 41.4442ZM20.9975 43.7152L21.4915 43.6383L20.9975 43.7152ZM22.8119 45.4421L22.8643 44.9448H22.8643L22.8119 45.4421ZM50.7977 40.7442L50.3443 40.5333L50.7977 40.7442ZM55.8376 37.2581L55.875 37.7567L55.8376 37.2581ZM57.0827 37.1648L57.1201 37.6634L57.0827 37.1648ZM60.5332 38.7982L60.9426 38.5111V38.5111L60.5332 38.7982ZM61.2308 39.7927L60.8214 40.0799V40.0799L61.2308 39.7927ZM60.8862 43.0252L60.5466 42.6582L60.8862 43.0252ZM57.993 43.3634L58.2388 42.928L57.993 43.3634ZM56.983 42.7932L56.7372 43.2286L56.983 42.7932ZM54.57 42.29L54.5187 41.7927L54.57 42.29ZM37.8468 45.8942C38.0423 46.0892 38.3589 46.0887 38.5539 45.8932C38.7489 45.6977 38.7484 45.3811 38.5529 45.1861L37.8468 45.8942ZM34.8062 40.8571C34.6321 40.6428 34.3172 40.6102 34.1029 40.7844C33.8886 40.9585 33.856 41.2734 34.0302 41.4877L34.8062 40.8571ZM27.3827 44.1057C26.6072 44.8575 25.5382 45.2265 24.464 45.1134L24.3593 46.1079C25.7281 46.2521 27.0904 45.7818 28.0787 44.8238L27.3827 44.1057ZM28.5579 42.9667L27.3827 44.1057L28.0787 44.8238L29.2538 43.6848L28.5579 42.9667ZM34.3711 40.6715C32.2053 40.6331 30.1133 41.4591 28.5579 42.9667L29.2538 43.6848C30.6183 42.3622 32.4534 41.6377 34.3534 41.6714L34.3711 40.6715ZM34.4271 40.6725L34.3711 40.6715L34.3534 41.6714L34.4093 41.6724L34.4271 40.6725ZM38.5779 45.2129L34.7962 40.8452L34.0402 41.4997L37.8218 45.8674L38.5779 45.2129ZM41.0554 44.7779L38.1545 45.0422L38.2452 46.0381L41.1462 45.7737L41.0554 44.7779ZM42.578 44.6391L41.0554 44.7779L41.1462 45.7737L42.6687 45.635L42.578 44.6391ZM44.6271 43.6792C44.0773 44.2289 43.3522 44.5686 42.578 44.6391L42.6687 45.635C43.6758 45.5432 44.6189 45.1014 45.3341 44.3864L44.6271 43.6792ZM47.4276 42.4205C46.3715 42.4834 45.3752 42.9313 44.6271 43.6792L45.3341 44.3864C45.9093 43.8114 46.6752 43.4671 47.4871 43.4187L47.4276 42.4205ZM49.8224 42.2777L47.4276 42.4205L47.4871 43.4187L49.8819 43.2759L49.8224 42.2777ZM52.7647 45.3081L50.2263 42.4451L49.4781 43.1085L52.0165 45.9716L52.7647 45.3081ZM52.5488 51.7758C54.3284 50.0199 54.4232 47.1787 52.7647 45.3081L52.0165 45.9716C53.3223 47.4444 53.2476 49.6814 51.8465 51.0639L52.5488 51.7758ZM49.0872 53.1283C50.3779 53.1718 51.6296 52.6827 52.5488 51.7758L51.8465 51.0639C51.1227 51.7781 50.1371 52.1631 49.1209 52.1289L49.0872 53.1283ZM45.4977 53.0072L49.0872 53.1283L49.1209 52.1289L45.5314 52.0078L45.4977 53.0072ZM44.7971 53.4049C44.9372 53.1511 45.2079 52.9974 45.4977 53.0072L45.5314 52.0078C44.8656 51.9853 44.2435 52.3385 43.9216 52.9217L44.7971 53.4049ZM42.6562 54.2184C43.4728 54.5075 44.3786 54.1633 44.7971 53.4049L43.9216 52.9217C43.7395 53.2518 43.3453 53.4016 42.99 53.2758L42.6562 54.2184ZM36.7968 52.144L42.6562 54.2184L42.99 53.2758L37.1306 51.2014L36.7968 52.144ZM35.4042 50.4068C35.501 51.2033 36.0405 51.8763 36.7968 52.144L37.1306 51.2014C36.7321 51.0603 36.4479 50.7058 36.3969 50.2862L35.4042 50.4068ZM34.2614 49.4284C34.8384 49.409 35.3345 49.8337 35.4042 50.4068L36.3969 50.2862C36.2647 49.1984 35.3229 48.3921 34.2277 48.429L34.2614 49.4284ZM28.6369 49.618L34.2614 49.4284L34.2277 48.429L28.6032 48.6186L28.6369 49.618ZM27.3295 49.0184C27.6466 49.4129 28.131 49.6351 28.6369 49.618L28.6032 48.6186C28.412 48.6251 28.2288 48.5411 28.1089 48.3919L27.3295 49.0184ZM26.3772 49.0243C26.6187 48.7161 27.0842 48.7132 27.3295 49.0184L28.1089 48.3919C27.4602 47.5847 26.2288 47.5924 25.5901 48.4075L26.3772 49.0243ZM23.1986 53.0812L26.3772 49.0243L25.5901 48.4075L22.4114 52.4644L23.1986 53.0812ZM22.2253 55.4794C22.3188 54.6046 22.656 53.7737 23.1986 53.0812L22.4114 52.4644C21.7533 53.3043 21.3443 54.3122 21.2309 55.3731L22.2253 55.4794ZM21.6989 60.4058L22.2253 55.4794L21.2309 55.3731L20.7045 60.2996L21.6989 60.4058ZM29.5899 65.135C26.5954 63.8946 23.8772 62.1429 21.5409 59.9854L20.8625 60.7201C23.2846 62.9568 26.1027 64.7729 29.2072 66.0589L29.5899 65.135ZM50.4204 65.135C43.7517 67.8973 36.2587 67.8973 29.5899 65.135L29.2072 66.0589C36.121 68.9227 43.8893 68.9227 50.8031 66.0589L50.4204 65.135ZM56.7929 61.4124C54.8643 62.9239 52.7242 64.1807 50.4204 65.135L50.8031 66.0589C53.1915 65.0696 55.4103 63.7665 57.4097 62.1995L56.7929 61.4124ZM53.7697 59.097L56.7429 62.1546L57.4598 61.4574L54.4866 58.3999L53.7697 59.097ZM54.062 56.3247C53.1198 56.9545 52.9796 58.2845 53.7697 59.097L54.4866 58.3999C54.1321 58.0353 54.195 57.4386 54.6178 57.1561L54.062 56.3247ZM56.3806 56.5788C55.7719 55.9425 54.7941 55.8354 54.062 56.3247L54.6178 57.1561C54.9462 56.9365 55.3849 56.9846 55.658 57.2701L56.3806 56.5788ZM59.4286 59.7652L56.3806 56.5788L55.658 57.2701L58.706 60.4564L59.4286 59.7652ZM64.1193 52.6096C62.7192 55.2852 60.8914 57.6938 58.7234 59.7478L59.4112 60.4738C61.6588 58.3443 63.5537 55.8472 65.0053 53.0732L64.1193 52.6096ZM64.0991 53.0855L64.2092 53.1953L64.9154 52.4874L64.8053 52.3776L64.0991 53.0855ZM63.855 51.24C63.5089 51.8394 63.6091 52.5966 64.0991 53.0855L64.8053 52.3776C64.6361 52.2087 64.6015 51.9471 64.721 51.74L63.855 51.24ZM65.5626 50.5247C64.9287 50.3606 64.2152 50.6162 63.855 51.24L64.721 51.74C64.8443 51.5265 65.0892 51.4351 65.312 51.4928L65.5626 50.5247ZM65.1498 50.4056C65.0938 50.5409 65.0366 50.6757 64.9785 50.81L65.8961 51.2075C65.9564 51.0683 66.0156 50.9286 66.0737 50.7883L65.1498 50.4056ZM65.1498 29.5751C67.9121 36.2438 67.9121 43.7368 65.1498 50.4056L66.0737 50.7883C68.9375 43.8745 68.9375 36.1062 66.0737 29.1924L65.1498 29.5751ZM58.7502 20.2582C61.486 22.8572 63.6779 26.0215 65.1498 29.5751L66.0737 29.1924C64.5477 25.5083 62.2752 22.2276 59.439 19.5332L58.7502 20.2582ZM57.5716 20.4018L59.0966 20.3957L59.0926 19.3957L57.5676 19.4018L57.5716 20.4018ZM51.6946 18.0749C53.2816 19.5772 55.3863 20.4105 57.5716 20.4018L57.5676 19.4018C55.6394 19.4095 53.7824 18.6742 52.382 17.3487L51.6946 18.0749ZM51.226 17.6314L51.6946 18.0749L52.382 17.3487L51.9134 16.9051L51.226 17.6314ZM46.534 15.5925C48.2884 15.7014 49.9495 16.4231 51.226 17.6314L51.9134 16.9051C50.4667 15.5357 48.5841 14.7178 46.5959 14.5945L46.534 15.5925ZM40.8051 17.7352C42.3232 16.2396 44.4069 15.4605 46.534 15.5925L46.5959 14.5945C44.1854 14.4449 41.8239 15.3277 40.1033 17.0228L40.8051 17.7352ZM38.036 20.463L40.8051 17.7352L40.1033 17.0228L37.3342 19.7506L38.036 20.463ZM37.6252 22.074C37.4524 21.5024 37.6106 20.8821 38.036 20.463L37.3342 19.7506C36.6443 20.4303 36.3877 21.4363 36.668 22.3634L37.6252 22.074ZM40.2271 22.8159C39.3483 23.5893 37.964 23.1946 37.6252 22.074L36.668 22.3634C37.2174 24.1808 39.4625 24.8209 40.8878 23.5665L40.2271 22.8159ZM42.8634 20.4956L40.2271 22.8159L40.8878 23.5665L43.524 21.2463L42.8634 20.4956ZM45.5802 20.7244C44.9041 19.8901 43.6695 19.7861 42.8634 20.4956L43.524 21.2463C43.9036 20.9122 44.4849 20.9611 44.8033 21.354L45.5802 20.7244ZM45.4953 23.2018C46.1368 22.5125 46.1731 21.456 45.5802 20.7244L44.8033 21.354C45.0824 21.6985 45.0654 22.1959 44.7633 22.5205L45.4953 23.2018ZM43.1708 25.6992L45.4953 23.2018L44.7633 22.5205L42.4388 25.0179L43.1708 25.6992ZM42.6396 26.8897C42.6797 26.4449 42.8665 26.0261 43.1708 25.6992L42.4388 25.0179C41.9833 25.5073 41.7036 26.1342 41.6437 26.8L42.6396 26.8897ZM39.705 29.631C41.2385 29.5977 42.5021 28.4174 42.6396 26.8897L41.6437 26.8C41.5518 27.8205 40.7077 28.609 39.6833 28.6313L39.705 29.631ZM36.3737 29.7034L39.705 29.631L39.6833 28.6313L36.352 28.7036L36.3737 29.7034ZM32.6372 31.1954C33.6618 30.2634 34.9889 29.7335 36.3737 29.7034L36.352 28.7036C34.7259 28.739 33.1675 29.3613 31.9643 30.4557L32.6372 31.1954ZM28.8284 34.6599L32.6372 31.1954L31.9643 30.4557L28.1555 33.9202L28.8284 34.6599ZM26.5873 29.0379L28.0085 34.4177L28.9753 34.1623L27.5541 28.7825L26.5873 29.0379ZM18.844 26.4337C21.6115 24.2697 25.69 25.6414 26.5873 29.0379L27.5541 28.7825C26.4734 24.6917 21.5612 23.0396 18.228 25.6459L18.844 26.4337ZM18.4666 26.7288L18.844 26.4337L18.228 25.6459L17.8506 25.941L18.4666 26.7288ZM17.0096 29.4745C17.0838 28.394 17.6134 27.3959 18.4666 26.7288L17.8506 25.941C16.7739 26.7829 16.1056 28.0425 16.012 29.406L17.0096 29.4745ZM20.7012 33.5514C18.5372 33.4851 16.8614 31.6344 17.0096 29.4745L16.012 29.406C15.8249 32.1317 17.9397 34.4673 20.6706 34.5509L20.7012 33.5514ZM28.5072 33.7903L20.7012 33.5514L20.6706 34.5509L28.4766 34.7898L28.5072 33.7903ZM26.8315 39.0305L28.945 34.5015L28.0388 34.0786L25.9253 38.6076L26.8315 39.0305ZM24.1327 41.4109C25.3242 41.0273 26.3021 40.1648 26.8315 39.0305L25.9253 38.6076C25.5136 39.4898 24.753 40.1607 23.8263 40.459L24.1327 41.4109ZM22.5509 41.9201L24.1327 41.4109L23.8263 40.459L22.2444 40.9682L22.5509 41.9201ZM21.4915 43.6383C21.374 42.883 21.8232 42.1544 22.5509 41.9201L22.2444 40.9682C21.0486 41.3532 20.3103 42.5507 20.5034 43.792L21.4915 43.6383ZM22.8643 44.9448C22.1633 44.871 21.5999 44.3347 21.4915 43.6383L20.5034 43.792C20.6815 44.9366 21.6075 45.818 22.7595 45.9393L22.8643 44.9448ZM24.464 45.1134L22.8643 44.9448L22.7595 45.9393L24.3593 46.1079L24.464 45.1134ZM50.3443 40.5333L49.3988 42.5659L50.3055 42.9877L51.251 40.9551L50.3443 40.5333ZM55.8002 36.7595C53.4325 36.9371 51.3457 38.3805 50.3443 40.5333L51.251 40.9551C52.0997 39.1305 53.8683 37.9072 55.875 37.7567L55.8002 36.7595ZM57.0453 36.6662L55.8002 36.7595L55.875 37.7567L57.1201 37.6634L57.0453 36.6662ZM60.9426 38.5111C60.0595 37.2521 58.5788 36.5512 57.0453 36.6662L57.1201 37.6634C58.302 37.5747 59.4433 38.115 60.1239 39.0854L60.9426 38.5111ZM61.6401 39.5056L60.9426 38.5111L60.1239 39.0854L60.8214 40.0799L61.6401 39.5056ZM61.2259 43.3921C62.3166 42.3826 62.4936 40.7224 61.6401 39.5056L60.8214 40.0799C61.3876 40.8871 61.2702 41.9885 60.5466 42.6582L61.2259 43.3921ZM57.7471 43.7988C58.8719 44.4338 60.278 44.2694 61.2259 43.3921L60.5466 42.6582C59.9178 43.2402 58.9849 43.3493 58.2388 42.928L57.7471 43.7988ZM56.7372 43.2286L57.7471 43.7988L58.2388 42.928L57.2289 42.3578L56.7372 43.2286ZM54.6213 42.7874C55.3553 42.7117 56.0947 42.8658 56.7372 43.2286L57.2289 42.3578C56.4059 41.8932 55.4588 41.6957 54.5187 41.7927L54.6213 42.7874ZM49.9035 43.2742L54.6213 42.7874L54.5187 41.7927L49.8009 42.2794L49.9035 43.2742ZM38.5529 45.1861C37.9576 44.5924 37.0255 43.5167 36.2315 42.5755C35.837 42.1078 35.4805 41.6779 35.2226 41.365C35.0936 41.2086 34.9894 41.0814 34.9175 40.9935C34.8815 40.9495 34.8536 40.9153 34.8348 40.8922C34.8254 40.8806 34.8182 40.8718 34.8134 40.8659C34.811 40.863 34.8092 40.8607 34.808 40.8593C34.8074 40.8585 34.807 40.858 34.8067 40.8576C34.8065 40.8574 34.8064 40.8573 34.8063 40.8572C34.8063 40.8572 34.8063 40.8572 34.8063 40.8571C34.8063 40.8571 34.8062 40.8571 34.4182 41.1724C34.0302 41.4877 34.0302 41.4878 34.0302 41.4878C34.0302 41.4878 34.0303 41.4879 34.0303 41.4879C34.0304 41.488 34.0305 41.4882 34.0307 41.4884C34.031 41.4888 34.0315 41.4894 34.0321 41.4902C34.0334 41.4917 34.0353 41.494 34.0378 41.4971C34.0427 41.5032 34.05 41.5122 34.0596 41.5239C34.0788 41.5475 34.107 41.5821 34.1434 41.6265C34.216 41.7153 34.321 41.8435 34.4509 42.001C34.7105 42.316 35.0695 42.7489 35.4672 43.2203C36.2576 44.1573 37.2163 45.2655 37.8468 45.8942L38.5529 45.1861Z" fill="currentColor" />
</svg>