<svg width="80" height="80" viewBox="0 0 80 80" fill="none" xmlns="http://www.w3.org/2000/svg">
  <path d="M29.3935 14.3934C31.2873 13.609 33.2464 13.0433 35.2343 12.6963C32.5048 15.9717 30.2575 19.6669 28.5958 23.6785C28.0081 25.0973 27.5002 26.54 27.0721 28H15.0161C17.9622 21.8656 23.0735 17.0112 29.3935 14.3934Z" fill="currentColor" />
  <path d="M14.1495 30.0026C11.79 36.1032 11.6684 42.8317 13.7846 48.997V47H25.9274C25.101 42.0318 25.1605 36.9521 26.1061 32H14.1495V30.0026Z" fill="currentColor" />
  <path d="M30.1861 32C29.1407 36.9415 29.0747 42.0388 29.9882 47H50.0121C50.9253 42.0388 50.859 36.9414 49.8132 32H30.1861Z" fill="currentColor" />
  <path d="M53.8933 32C54.8392 36.952 54.899 42.0318 54.0729 47H66.2136V49.0029C68.3325 42.8342 68.2108 36.1013 65.8486 29.9974V32H53.8933Z" fill="currentColor" />
  <path d="M64.9841 28H52.927C52.499 26.5409 51.9914 25.0991 51.404 23.6811C49.7419 19.6683 47.4936 15.972 44.7629 12.6958C46.7519 13.0427 48.7119 13.6086 50.6067 14.3934C56.9266 17.0112 62.038 21.8656 64.9841 28Z" fill="currentColor" />
  <path d="M65.4402 51H53.2087C52.7275 52.8028 52.126 54.5816 51.404 56.3246C49.743 60.3347 47.4967 64.0287 44.7685 67.3032C46.7555 66.9562 48.7137 66.3907 50.6067 65.6066C57.2663 62.8481 62.5839 57.6061 65.4402 51Z" fill="currentColor" />
  <path d="M49.0533 51H30.9474C31.3276 52.2804 31.7755 53.5459 32.2913 54.7912C33.9622 58.825 36.2863 62.5056 39.136 65.7053C39.7126 65.7247 40.2897 65.7246 40.8663 65.7052C43.7149 62.5061 46.0381 58.8265 47.7085 54.7938C48.2247 53.5477 48.6729 52.2813 49.0533 51Z" fill="currentColor" />
  <path d="M26.7919 51H14.56C17.4163 57.6061 22.7338 62.8481 29.3935 65.6066C31.2872 66.391 33.2461 66.9567 35.234 67.3036C32.5046 64.0283 30.2574 60.3333 28.5958 56.3219C27.8742 54.5798 27.2729 52.8019 26.7919 51Z" fill="currentColor" />
  <path d="M48.7398 28H31.2592C31.5663 27.0601 31.9103 26.1291 32.2913 25.2092C33.961 21.1782 36.2831 17.4999 39.1301 14.3017C39.709 14.2822 40.2884 14.2821 40.8673 14.3017C43.7154 17.5005 46.0383 21.1797 47.7085 25.2119C48.0892 26.1309 48.433 27.061 48.7398 28Z" fill="currentColor" />
</svg>