<svg width="80" height="80" viewBox="0 0 80 80" fill="none" xmlns="http://www.w3.org/2000/svg">
  <path fill-rule="evenodd" clip-rule="evenodd" d="M20.2917 43.2281V49.4416C20.2917 53.255 22.9834 56.5383 26.7228 57.2862L38.7228 59.6862C39.7585 59.8934 40.825 59.8934 41.8607 59.6862L53.8607 57.2862C57.6001 56.5383 60.2917 53.255 60.2917 49.4416V43.0336L42.0555 49.1124C40.7212 49.5571 39.2787 49.5571 37.9445 49.1124L20.2917 43.2281ZM24.407 33.0048C25.5573 32.3647 26.8819 32 28.2917 32H52.2917C53.611 32 54.8557 32.3193 55.9527 32.8849L40 38.2025L24.407 33.0048Z" fill="currentColor" />
  <path d="M20.2917 43.2281L20.7661 41.8051C20.3087 41.6526 19.8058 41.7293 19.4147 42.0112C19.0235 42.2932 18.7917 42.7459 18.7917 43.2281H20.2917ZM26.7228 57.2862L26.4286 58.7571L26.7228 57.2862ZM38.7228 59.6862L39.017 58.2153V58.2153L38.7228 59.6862ZM41.8607 59.6862L41.5665 58.2153V58.2153L41.8607 59.6862ZM53.8607 57.2862L53.5665 55.8153L53.8607 57.2862ZM60.2917 43.0336H61.7917C61.7917 42.5514 61.56 42.0987 61.1688 41.8167C60.7777 41.5348 60.2748 41.4581 59.8174 41.6106L60.2917 43.0336ZM42.0555 49.1124L41.5811 47.6893L41.5811 47.6893L42.0555 49.1124ZM37.9445 49.1124L38.4189 47.6893L37.9445 49.1124ZM24.407 33.0048L23.6776 31.6941C23.158 31.9833 22.8583 32.5521 22.9135 33.1442C22.9688 33.7363 23.3686 34.2398 23.9327 34.4279L24.407 33.0048ZM55.9527 32.8849L56.427 34.308C56.9994 34.1172 57.4017 33.602 57.4482 33.0005C57.4947 32.399 57.1763 31.8282 56.6401 31.5517L55.9527 32.8849ZM40 38.2025L39.5257 39.6255C39.8336 39.7282 40.1664 39.7282 40.4743 39.6255L40 38.2025ZM21.7917 49.4416V43.2281H18.7917V49.4416H21.7917ZM27.017 55.8153C23.9787 55.2077 21.7917 52.54 21.7917 49.4416H18.7917C18.7917 53.97 21.9881 57.869 26.4286 58.7571L27.017 55.8153ZM39.017 58.2153L27.017 55.8153L26.4286 58.7571L38.4286 61.1571L39.017 58.2153ZM41.5665 58.2153C40.725 58.3836 39.8585 58.3836 39.017 58.2153L38.4286 61.1571C39.6585 61.4031 40.925 61.4031 42.1549 61.1571L41.5665 58.2153ZM53.5665 55.8153L41.5665 58.2153L42.1549 61.1571L54.1549 58.7571L53.5665 55.8153ZM58.7917 49.4416C58.7917 52.54 56.6048 55.2077 53.5665 55.8153L54.1549 58.7571C58.5954 57.869 61.7917 53.97 61.7917 49.4416H58.7917ZM58.7917 43.0336V49.4416H61.7917V43.0336H58.7917ZM59.8174 41.6106L41.5811 47.6893L42.5298 50.5354L60.7661 44.4566L59.8174 41.6106ZM41.5811 47.6893C40.5548 48.0314 39.4452 48.0314 38.4189 47.6893L37.4702 50.5354C39.1123 51.0828 40.8877 51.0828 42.5298 50.5354L41.5811 47.6893ZM38.4189 47.6893L20.7661 41.8051L19.8174 44.6511L37.4702 50.5354L38.4189 47.6893ZM25.1365 34.3155C26.0694 33.7963 27.1437 33.5 28.2917 33.5V30.5C26.6202 30.5 25.0452 30.933 23.6776 31.6941L25.1365 34.3155ZM28.2917 33.5H52.2917V30.5H28.2917V33.5ZM52.2917 33.5C53.3663 33.5 54.3759 33.7596 55.2653 34.2182L56.6401 31.5517C55.3355 30.8791 53.8557 30.5 52.2917 30.5V33.5ZM40.4743 39.6255L56.427 34.308L55.4784 31.4619L39.5257 36.7795L40.4743 39.6255ZM23.9327 34.4279L39.5257 39.6255L40.4743 36.7795L24.8814 31.5818L23.9327 34.4279Z" fill="currentColor" />
  <path d="M39.6838 20.1054C39.889 20.037 40.111 20.037 40.3162 20.1054L73.154 31.0513C74.0657 31.3552 74.0656 32.6448 73.154 32.9487L40.3162 43.8946C40.111 43.963 39.889 43.963 39.6838 43.8946L6.84604 32.9487C5.93435 32.6448 5.93435 31.3552 6.84605 31.0513L39.6838 20.1054Z" fill="currentColor" stroke="currentColor" stroke-width="3" stroke-linecap="round" stroke-linejoin="round" />
  <path d="M39 31L16.077 37.5494C13.0718 38.408 11 41.1547 11 44.2801V50.5M10 62L11 50.5M11 50.5L12 62" stroke="currentColor" stroke-width="5" stroke-linecap="round" stroke-linejoin="round" />
</svg>