<svg width="80" height="80" viewBox="0 0 80 80" fill="none" xmlns="http://www.w3.org/2000/svg">
  <path d="M27.0469 14C27.0469 11.7909 25.256 10 23.0469 10H14C11.7909 10 10 11.7909 10 14V22C10 24.2091 11.7909 26 14 26H23.0469C25.256 26 27.0469 24.2091 27.0469 22V14Z" fill="currentColor" />
  <path d="M14 48C11.7909 48 10 46.2091 10 44V36C10 33.7909 11.7909 32 14 32H23.0469C25.256 32 27.0469 33.7909 27.0469 36V44C27.0469 46.2091 25.256 48 23.0469 48H14Z" fill="currentColor" />
  <path d="M14 54C11.7909 54 10 55.7909 10 58V66C10 68.2091 11.7909 70 14 70H23.0469C25.256 70 27.0469 68.2091 27.0469 66V58C27.0469 55.7909 25.256 54 23.0469 54H14Z" fill="currentColor" />
  <path d="M37.0469 54C34.8377 54 33.0469 55.7909 33.0469 58V66C33.0469 68.2091 34.8377 70 37.0469 70H66C68.2091 70 70 68.2091 70 66V58C70 55.7909 68.2091 54 66 54L37.0469 54Z" fill="currentColor" />
  <path d="M66 48C68.2091 48 70 46.2091 70 44V36C70 33.7909 68.2091 32 66 32L37.0469 32C34.8377 32 33.0469 33.7909 33.0469 36V44C33.0469 46.2091 34.8377 48 37.0469 48L66 48Z" fill="currentColor" />
  <path d="M70 14V22C70 24.2091 68.2091 26 66 26L37.0469 26C34.8377 26 33.0469 24.2091 33.0469 22V14C33.0469 11.7909 34.8377 10 37.0469 10H66C68.2091 10 70 11.7909 70 14Z" fill="currentColor" />
</svg>