<svg width="80" height="80" viewBox="0 0 80 80" fill="none" xmlns="http://www.w3.org/2000/svg">
  <path fill-rule="evenodd" clip-rule="evenodd" d="M37.5146 10.127C31.2688 10.127 25.2648 12.5413 20.7577 16.8653L20.3942 17.2141C15.8686 21.5559 13.3101 27.5561 13.3101 33.8277C13.3101 40.0993 15.8686 46.0995 20.3942 50.4414L20.7577 50.7901C20.9086 50.9349 21.0612 51.0775 21.2153 51.2179V67.6258C21.2153 68.7304 22.1108 69.6258 23.2153 69.6258H44.9075C46.0121 69.6258 46.9075 68.7304 46.9075 67.6258V58.5161L51.7375 58.9549C55.0626 59.257 57.9948 56.7864 58.2612 53.4582L58.9433 44.9375H59.8603L61.4268 44.9375C64.0664 44.9375 65.9823 42.4258 65.2845 39.8801L61.8653 27.4059C61.846 27.3356 61.8062 27.2789 61.7551 27.2386C60.6262 23.4594 58.5339 19.9963 55.6339 17.2141L55.2704 16.8653C50.7634 12.5413 44.7593 10.127 38.5135 10.127H37.5146ZM56.7532 29.6397C56.9087 30.2624 56.7539 30.8898 56.3866 31.3587C56.8022 31.8895 56.9395 32.6177 56.6856 33.2952C56.298 34.3295 55.1453 34.8537 54.1109 34.4661L52.0658 33.6997C49.6451 32.7925 49.8437 29.3045 52.3517 28.6779L54.328 28.1841C55.3996 27.9164 56.4854 28.5681 56.7532 29.6397Z" fill="currentColor" />
</svg>