<svg viewBox="0 0 80 80" fill="none">
  <path fill-rule="evenodd" clip-rule="evenodd" d="M41.5617 12.0478C40.6487 11.3174 39.3513 11.3174 38.4383 12.0478L10.9383 34.0478C9.86011 34.9104 9.68531 36.4836 10.5478 37.5617C11.4104 38.6399 12.9836 38.8147 14.0617 37.9522L17.5 35.2016V48.3589C17.5 49.4183 18.1678 50.3628 19.1667 50.7159C19.8973 50.9742 20.604 51.3249 21.2698 51.7688L22.1758 52.3728C25.7028 54.724 30.2976 54.724 33.8245 52.3728L34.7305 51.7688C37.9216 49.6414 42.0788 49.6414 45.2698 51.7688L46.1758 52.3728C49.7028 54.724 54.2976 54.724 57.8245 52.3727L58.7305 51.7688C59.3962 51.3249 60.1029 50.9743 60.8334 50.716C61.8322 50.3628 62.5 49.4184 62.5 48.359V35.2016L65.9383 37.9522C67.0164 38.8147 68.5897 38.6399 69.4522 37.5617C70.3147 36.4836 70.1399 34.9104 69.0617 34.0478L57.5 24.7984V15C57.5 13.6193 56.3807 12.5 55 12.5H49C47.6193 12.5 46.5 13.6193 46.5 15V15.9984L41.5617 12.0478ZM34.5 41.5V30.5H45.5V41.5H34.5Z" fill="currentColor" />
  <path d="M11.8399 59.7786C14.3592 58.0991 17.6412 58.0991 20.1604 59.7786L21.0664 60.3826C25.2652 63.1817 30.7352 63.1817 34.9339 60.3826L35.8399 59.7786C38.3592 58.0991 41.6412 58.0991 44.1604 59.7786L45.0664 60.3826C49.2652 63.1817 54.7352 63.1817 58.9339 60.3826L59.8399 59.7786C62.3592 58.0991 65.6412 58.0991 68.1604 59.7786L69.0664 60.3826C69.877 60.923 70.7361 61.3596 71.6249 61.6917C72.9182 62.175 74.3585 61.5184 74.8418 60.225C75.3252 58.9316 74.6685 57.4914 73.3751 57.008C72.843 56.8092 72.3277 56.5475 71.8399 56.2223L70.9339 55.6183C66.7352 52.8191 61.2652 52.8192 57.0664 55.6183L56.1604 56.2223C53.6412 57.9018 50.3592 57.9018 47.8399 56.2223L46.9339 55.6183C42.7352 52.8191 37.2652 52.8191 33.0664 55.6183L32.1604 56.2223C29.6412 57.9018 26.3592 57.9018 23.8399 56.2223L22.9339 55.6183C18.7352 52.8191 13.2652 52.8191 9.06641 55.6183L8.16041 56.2223C7.6726 56.5475 7.15722 56.8093 6.62496 57.0081C5.33159 57.4914 4.67488 58.9317 5.15815 60.225C5.64142 61.5184 7.08168 62.1751 8.37505 61.6918C9.26398 61.3597 10.1232 60.9231 10.9339 60.3826L11.8399 59.7786Z" fill="currentColor" />
  <path d="M35.8399 67.5481C38.3592 65.8686 41.6412 65.8686 44.1604 67.5481L45.0664 68.1521C49.2652 70.9513 54.7352 70.9513 58.9339 68.1521L59.8399 67.5481C60.3277 67.2229 60.843 66.9612 61.3751 66.7624C62.6685 66.279 63.3252 64.8388 62.8418 63.5454C62.3585 62.252 60.9182 61.5954 59.6249 62.0787C58.7361 62.4108 57.877 62.8474 57.0664 63.3878L56.1604 63.9918C53.6412 65.6713 50.3592 65.6713 47.8399 63.9918L46.9339 63.3878C42.7352 60.5887 37.2652 60.5887 33.0664 63.3878L32.1604 63.9918C29.6412 65.6713 26.3592 65.6713 23.8399 63.9918L22.9339 63.3878C22.1232 62.8473 21.264 62.4107 20.3751 62.0785C19.0817 61.5953 17.6414 62.252 17.1581 63.5454C16.6749 64.8387 17.3316 66.279 18.625 66.7623C19.1572 66.9611 19.6726 67.2229 20.1604 67.5481L21.0664 68.1521C25.2652 70.9513 30.7352 70.9513 34.9339 68.1521L35.8399 67.5481Z" fill="currentColor" />
</svg>