<svg width="80" height="80" viewBox="0 0 80 80" fill="none" xmlns="http://www.w3.org/2000/svg">
  <path d="M37 64C37 65.6569 38.3431 67 40 67C41.6569 67 43 65.6569 43 64H37ZM43 16C43 14.3431 41.6569 13 40 13C38.3431 13 37 14.3431 37 16H43ZM24 13C22.3431 13 21 14.3431 21 16C21 17.6569 22.3431 19 24 19L24 13ZM56 19C57.6569 19 59 17.6569 59 16C59 14.3431 57.6569 13 56 13V19ZM24 61C22.3431 61 21 62.3431 21 64C21 65.6569 22.3431 67 24 67L24 61ZM56 67C57.6569 67 59 65.6569 59 64C59 62.3431 57.6569 61 56 61V67ZM43 64L43 16H37L37 64H43ZM24 19L56 19V13L24 13L24 19ZM24 67H56V61L24 61L24 67Z" fill="currentColor" />
</svg>