<svg viewBox="0 0 80 80" fill="none">
  <path d="M12.4634 23.544C10.3978 24.492 8.96338 26.5785 8.96338 29V57C8.96338 60.3137 11.6497 63 14.9634 63H58.9634C61.3849 63 63.4713 61.5655 64.4193 59.5H20.9634C16.269 59.5 12.4634 55.6944 12.4634 51V23.544Z" fill="currentColor" />
  <path d="M35.9634 30.6997L23.4634 44.3361V48.5H62.4634V48.0355L56.9634 42.5355L53.5138 45.9852C53.0316 46.4673 52.3734 46.7316 51.6917 46.7168C51.01 46.702 50.3639 46.4094 49.9031 45.9067L35.9634 30.6997Z" fill="currentColor" />
  <path d="M58.0483 26.4151C58.6146 26.0881 59.3122 26.0881 59.8784 26.4151C60.4447 26.742 60.7935 27.3462 60.7935 28C60.7935 28.6538 60.4447 29.258 59.8784 29.5849C59.3122 29.9119 58.6146 29.9119 58.0483 29.5849C57.4821 29.258 57.1333 28.6538 57.1333 28C57.1333 27.3462 57.4821 26.742 58.0483 26.4151Z" fill="currentColor" />
  <path fill-rule="evenodd" clip-rule="evenodd" d="M14.9634 23C14.9634 19.6863 17.6497 17 20.9634 17H64.9634C68.2771 17 70.9634 19.6863 70.9634 23V51C70.9634 54.3137 68.2771 57 64.9634 57H20.9634C17.6497 57 14.9634 54.3137 14.9634 51V23ZM35.9634 24.5C36.6641 24.5 37.3327 24.7941 37.8063 25.3107L51.8245 40.6033L55.1956 37.2322C56.1719 36.2559 57.7548 36.2559 58.7311 37.2322L66.7311 45.2322C67.2 45.7011 67.4634 46.337 67.4634 47V49C67.4634 51.4853 65.4487 53.5 62.9634 53.5H22.9634C20.4781 53.5 18.4634 51.4853 18.4634 49V43.3636C18.4634 42.7382 18.6978 42.1354 19.1205 41.6743L34.1205 25.3107C34.594 24.7941 35.2626 24.5 35.9634 24.5ZM62.3784 22.0849C60.2652 20.8649 57.6616 20.8649 55.5483 22.0849C53.4351 23.305 52.1333 25.5598 52.1333 28C52.1333 30.4402 53.4351 32.695 55.5483 33.9151C57.6616 35.1351 60.2652 35.1351 62.3784 33.9151C64.4917 32.695 65.7935 30.4402 65.7935 28C65.7935 25.5598 64.4917 23.305 62.3784 22.0849Z" fill="currentColor" />
</svg>