<svg width="80" height="80" viewBox="0 0 80 80" fill="none" xmlns="http://www.w3.org/2000/svg">
  <path d="M33 33.6997L20.5 47.3361V51.5H59.5V51.0355L54 45.5355L50.5504 48.9852C50.0682 49.4673 49.41 49.7316 48.7283 49.7168C48.0466 49.702 47.4005 49.4094 46.9397 48.9067L33 33.6997Z" fill="currentColor" />
  <path d="M55.0849 29.4151C55.6512 29.0881 56.3488 29.0881 56.9151 29.4151C57.4813 29.742 57.8301 30.3462 57.8301 31C57.8301 31.6538 57.4813 32.258 56.9151 32.5849C56.3488 32.9119 55.6512 32.9119 55.0849 32.5849C54.5187 32.258 54.1699 31.6538 54.1699 31C54.1699 30.3462 54.5187 29.742 55.0849 29.4151Z" fill="currentColor" />
  <path fill-rule="evenodd" clip-rule="evenodd" d="M12 26C12 22.6863 14.6863 20 18 20H62C65.3137 20 68 22.6863 68 26V54C68 57.3137 65.3137 60 62 60H18C14.6863 60 12 57.3137 12 54V26ZM33 27.5C33.7008 27.5 34.3694 27.7941 34.8429 28.3107L48.8611 43.6033L52.2322 40.2322C53.2085 39.2559 54.7915 39.2559 55.7678 40.2322L63.7678 48.2322C64.2366 48.7011 64.5 49.337 64.5 50V52C64.5 54.4853 62.4853 56.5 60 56.5H20C17.5147 56.5 15.5 54.4853 15.5 52V46.3636C15.5 45.7382 15.7345 45.1354 16.1571 44.6743L31.1571 28.3107C31.6306 27.7941 32.2992 27.5 33 27.5ZM59.4151 25.0849C57.3018 23.8649 54.6982 23.8649 52.5849 25.0849C50.4717 26.305 49.1699 28.5598 49.1699 31C49.1699 33.4402 50.4717 35.695 52.5849 36.9151C54.6982 38.1351 57.3018 38.1351 59.4151 36.9151C61.5283 35.695 62.8301 33.4402 62.8301 31C62.8301 28.5598 61.5283 26.305 59.4151 25.0849Z" fill="currentColor" />
</svg>