<svg viewBox="0 0 80 80" fill="none">
  <path fill-rule="evenodd" clip-rule="evenodd" d="M60.3805 19C61.9217 19 63.3257 19.8854 63.9899 21.2761L69.7414 33.3183C69.0302 33.1111 68.278 33 67.4999 33H55.0417C51.5759 33 48.5042 35.2317 47.4332 38.5279L45.9983 42.9443L33.0015 42.9443L31.5665 38.5279C30.4955 35.2317 27.4239 33 23.958 33H11.4999C10.7217 33 9.96955 33.1111 9.2583 33.3183L15.0098 21.2761C15.674 19.8854 17.0781 19 18.6193 19L60.3805 19ZM11.4999 41H23.958L25.393 45.4164C26.464 48.7126 29.5357 50.9443 33.0015 50.9443L45.9983 50.9443C49.4641 50.9443 52.5357 48.7126 53.6067 45.4164L55.0417 41L67.4999 41L67.4999 59L11.4999 59L11.4999 41Z" fill="currentColor" />
  <path fill-rule="evenodd" clip-rule="evenodd" d="M27.7624 39.7639C27.2269 38.1158 25.6911 37 23.9582 37H11.5C9.29086 37 7.5 38.7909 7.5 41L7.5 59C7.5 61.2091 9.29086 63 11.5 63L67.5 63C69.7091 63 71.5 61.2091 71.5 59V41C71.5 38.7909 69.7091 37 67.5 37H55.0418C53.3089 37 51.7731 38.1158 51.2376 39.7639L49.8026 44.1803C49.2671 45.8284 47.7313 46.9443 45.9984 46.9443L33.0016 46.9443C31.2687 46.9443 29.7329 45.8284 29.1974 44.1803L27.7624 39.7639Z" fill="currentColor" />
</svg>