<svg width="80" height="80" viewBox="0 0 80 80" fill="none" xmlns="http://www.w3.org/2000/svg">
  <path fill-rule="evenodd" clip-rule="evenodd" d="M68 12C70.2091 12 72 13.7909 72 16V31.9793C70.8233 31.2987 69.4571 30.9091 68 30.9091L55.7428 30.9091C52.0867 30.9091 48.8958 33.3877 47.9914 36.9302L46.2974 43.5654L33.7026 43.5654L32.0086 36.9302C31.1042 33.3877 27.9133 30.9091 24.2572 30.9091L12 30.9091C10.5429 30.9091 9.17669 31.2987 8 31.9793L8 16C8 13.7909 9.79086 12 12 12L68 12ZM12 38.9091L24.2572 38.9091L25.9512 45.5443C26.8555 49.0868 30.0464 51.5654 33.7026 51.5654H46.2974C49.9535 51.5654 53.1445 49.0868 54.0488 45.5443L55.7428 38.9091L68 38.9091L68 64L12 64L12 38.9091Z" fill="currentColor" />
  <path fill-rule="evenodd" clip-rule="evenodd" d="M28.1329 37.9196C27.6807 36.1484 26.0853 34.9091 24.2572 34.9091L12 34.9091C9.79086 34.9091 8 36.6999 8 38.9091L8 64C8 66.2091 9.79086 68 12 68H68C70.2091 68 72 66.2091 72 64V38.9091C72 36.6999 70.2091 34.9091 68 34.9091H55.7428C53.9147 34.9091 52.3193 36.1484 51.8671 37.9196L50.1731 44.5549C49.721 46.3261 48.1255 47.5654 46.2974 47.5654L33.7026 47.5654C31.8745 47.5654 30.279 46.3261 29.8269 44.5549L28.1329 37.9196Z" fill="currentColor" />
</svg>