<svg width="80" height="80" viewBox="0 0 80 80" fill="none" xmlns="http://www.w3.org/2000/svg">
  <path fill-rule="evenodd" clip-rule="evenodd" d="M60.4744 10.6364C59.8346 10.1259 59.014 9.89912 58.2028 10.0085C46.1321 11.6358 33.8679 11.6358 21.7972 10.0085C20.986 9.89915 20.1654 10.126 19.5255 10.6364L9.03827 19.0023C8.37415 19.5321 7.96579 20.3186 7.91456 21.1666L5.00547 69.3192C4.95559 70.1447 5.24875 70.9542 5.81566 71.5564C6.38257 72.1586 7.17294 72.5001 8.00001 72.5001H72C72.8271 72.5001 73.6174 72.1586 74.1844 71.5564C74.7513 70.9542 75.0444 70.1447 74.9945 69.3192L72.0855 21.1666C72.0342 20.3186 71.6259 19.5321 70.9617 19.0023L60.4744 10.6364ZM12.8541 66.5001L21.3932 49.4218C33.6086 52.4676 46.3914 52.4677 58.6068 49.4218L67.146 66.5001L68.8133 66.5001L68.1205 55.0328L62.7182 44.228L61.5802 19.1937L57.7282 16.1208L55.4465 16.3887L56.6886 43.7147C45.7234 46.37 34.2768 46.37 23.3117 43.7148L24.5538 16.3887L22.2718 16.1209L18.4201 19.1935L17.2822 44.2275L11.8795 55.0328L11.1867 66.5001L12.8541 66.5001Z" fill="currentColor" />
</svg>