<svg width="80" height="80" viewBox="0 0 80 80" fill="none" xmlns="http://www.w3.org/2000/svg">
  <path d="M12 20.7305C12 18.5213 13.7909 16.7305 16 16.7305H64C66.2091 16.7305 68 18.5213 68 20.7305V52.7305H47.874C46.0504 52.7305 44.4579 53.9638 44.0014 55.7289L44 55.7305H36L35.9986 55.729C35.5421 53.9638 33.9496 52.7305 32.126 52.7305H12V20.7305Z" fill="currentColor" />
  <path d="M32.126 56.7305H4.15215C4.06812 56.7305 4 56.7986 4 56.8826C4 61.2169 7.51361 64.7305 11.8479 64.7305H68.1521C72.4864 64.7305 76 61.2169 76 56.8826C76 56.7986 75.9319 56.7305 75.8479 56.7305H47.874C47.4299 58.4557 45.8638 59.7305 44 59.7305H36C34.1362 59.7305 32.5701 58.4557 32.126 56.7305Z" fill="currentColor" />
</svg>