<svg width="80" height="80" viewBox="0 0 80 80" fill="none" xmlns="http://www.w3.org/2000/svg">
  <path fill-rule="evenodd" clip-rule="evenodd" d="M52.079 10.8385C44.3449 7.6349 35.655 7.6349 27.9209 10.8385C20.1868 14.042 14.042 20.1868 10.8385 27.9209C7.6349 35.655 7.6349 44.3449 10.8385 52.079C14.042 59.8131 20.1868 65.9578 27.9209 69.1614C35.655 72.365 44.3449 72.365 52.079 69.1614C59.8131 65.9578 65.9578 59.8131 69.1614 52.079C72.365 44.3449 72.365 35.655 69.1614 27.9209C65.9578 20.1868 59.8131 14.042 52.079 10.8385ZM66.9004 33.987L57.6283 33.9739C58.9636 37.8797 58.9636 42.1202 57.6283 46.0259L66.9004 46.0128C67.7853 42.0537 67.7853 37.9461 66.9004 33.987ZM34.4013 26.4836C37.986 24.9988 42.0138 24.9988 45.5985 26.4836C49.1832 27.9685 52.0313 30.8165 53.5161 34.4013C55.001 37.986 55.001 42.0137 53.5161 45.5984C52.0313 49.1832 49.1832 52.0312 45.5985 53.5161C42.0138 55.0009 37.986 55.0009 34.4013 53.5161C30.8166 52.0312 27.9686 49.1832 26.4837 45.5984C24.9989 42.0137 24.9989 37.986 26.4837 34.4013C27.9686 30.8165 30.8166 27.9685 34.4013 26.4836ZM22.3716 46.0259C21.0363 42.1202 21.0363 37.8797 22.3715 33.9739L13.0995 33.9871C12.2146 37.9461 12.2146 42.0537 13.0995 46.0128L22.3716 46.0259ZM33.9881 66.9006L33.975 57.6286C37.8808 58.9636 42.1214 58.9634 46.027 57.6278L46.0139 66.9001C42.0548 67.7852 37.9473 67.7854 33.9881 66.9006ZM46.0139 13.0997C42.0548 12.2146 37.9473 12.2145 33.9881 13.0992L33.975 22.3711C37.8808 21.0361 42.1214 21.0363 46.027 22.3719L46.0139 13.0997Z" fill="currentColor" />
</svg>