<svg viewBox="0 0 80 80" fill="none">
  <path fill-rule="evenodd" clip-rule="evenodd" d="M32.9289 16.9289C37.4565 15.0536 42.5435 15.0536 47.0711 16.9289C51.5986 18.8043 55.1957 22.4014 57.0711 26.9289C58.9464 31.4565 58.9464 36.5435 57.0711 41.0711C55.8133 44.1076 53.7811 46.7256 51.2132 48.6863C49.3796 50.0863 48.0009 52.1229 48.0009 54.4298V54.5L32.001 54.5C32.001 54.5 32.0009 54.5 32.0009 54.5V54.4312C32.0009 52.124 30.622 50.0873 28.7881 48.6873C26.2196 46.7264 24.1869 44.1081 22.9289 41.0711C21.0536 36.5435 21.0536 31.4565 22.9289 26.9289C24.8043 22.4014 28.4014 18.8043 32.9289 16.9289ZM32.0009 58.5V59.5088C32.0631 59.503 32.1261 59.5 32.1898 59.5L47.8122 59.5C47.8758 59.5 47.9388 59.503 48.0009 59.5088V58.5L32.001 58.5C32.001 58.5 32.0009 58.5 32.0009 58.5ZM46.8755 63.5L33.1263 63.5C34.2154 65.0146 35.993 66.0009 38.0009 66.0009H42.0009C44.0089 66.0009 45.7864 65.0146 46.8755 63.5Z" fill="currentColor" />
</svg>