<svg width="80" height="80" viewBox="0 0 80 80" fill="none" xmlns="http://www.w3.org/2000/svg">
  <path d="M33.55 29C33.55 27.8954 34.4454 27 35.55 27H44.45C45.5546 27 46.45 27.8954 46.45 29V38H33.55V29Z" fill="currentColor" />
  <path d="M33.55 42H46.45V51C46.45 52.1046 45.5546 53 44.45 53H35.55C34.4454 53 33.55 52.1046 33.55 51V42Z" fill="currentColor" />
  <path fill-rule="evenodd" clip-rule="evenodd" d="M24 12C21.7909 12 20 13.7909 20 16V64C20 66.2091 21.7909 68 24 68H56C58.2091 68 60 66.2091 60 64V16C60 13.7909 58.2091 12 56 12H24ZM39.75 15.5C38.9216 15.5 38.25 16.1716 38.25 17C38.25 17.8284 38.9216 18.5 39.75 18.5H40.25C41.0784 18.5 41.75 17.8284 41.75 17C41.75 16.1716 41.0784 15.5 40.25 15.5L39.75 15.5ZM38.25 63C38.25 62.1716 38.9216 61.5 39.75 61.5H40.25C41.0784 61.5 41.75 62.1716 41.75 63C41.75 63.8284 41.0784 64.5 40.25 64.5H39.75C38.9216 64.5 38.25 63.8284 38.25 63ZM35.55 23C32.2363 23 29.55 25.6863 29.55 29V51C29.55 54.3137 32.2363 57 35.55 57H44.45C47.7637 57 50.45 54.3137 50.45 51V29C50.45 25.6863 47.7637 23 44.45 23H35.55Z" fill="currentColor" />
</svg>