<svg width="80" height="80" viewBox="0 0 80 80" fill="none" xmlns="http://www.w3.org/2000/svg">
  <path d="M24 16V13C22.3431 13 21 14.3431 21 16H24ZM21 64C21 65.6569 22.3431 67 24 67C25.6569 67 27 65.6569 27 64H21ZM56 16H59C59 14.3431 57.6569 13 56 13V16ZM53 64C53 65.6569 54.3431 67 56 67C57.6569 67 59 65.6569 59 64H53ZM24.8889 16L27.6016 14.719C27.106 13.6695 26.0495 13 24.8889 13V16ZM40 48L37.2873 49.281C37.7829 50.3305 38.8394 51 40 51C41.1606 51 42.2171 50.3305 42.7127 49.281L40 48ZM55.1111 16V13C53.9505 13 52.894 13.6695 52.3984 14.719L55.1111 16ZM21 16L21 64H27L27 16H21ZM53 16L53 64H59L59 16H53ZM24 19H24.8889V13H24V19ZM22.1761 17.281L37.2873 49.281L42.7127 46.719L27.6016 14.719L22.1761 17.281ZM42.7127 49.281L57.8239 17.281L52.3984 14.719L37.2873 46.719L42.7127 49.281ZM55.1111 19L56 19V13H55.1111V19Z" fill="currentColor" />
</svg>