<svg width="80" height="80" viewBox="0 0 80 80" fill="none" xmlns="http://www.w3.org/2000/svg">
  <path fill-rule="evenodd" clip-rule="evenodd" d="M61.4483 33.1532C61.4483 21.4803 51.9856 12.0176 40.3127 12.0176H39.6871C28.0143 12.0176 18.5515 21.4803 18.5515 33.1532C18.5515 37.7689 20.0625 42.2577 22.8536 45.9339L39.9576 68.4618C39.9788 68.4898 40.021 68.4898 40.0423 68.4618L57.1463 45.9339C59.9374 42.2577 61.4483 37.7689 61.4483 33.1532Z" fill="currentColor" />
  <path d="M39.6871 14.0176H40.3127V10.0176H39.6871V14.0176ZM41.5505 67.2524L24.4465 44.7245L21.2607 47.1433L38.3646 69.6712L41.5505 67.2524ZM55.5534 44.7245L38.4494 67.2524L41.6352 69.6712L58.7392 47.1433L55.5534 44.7245ZM38.3646 69.6711C39.1862 70.7534 40.8136 70.7534 41.6352 69.6711L38.4494 67.2524C39.2284 66.2263 40.7714 66.2263 41.5505 67.2524L38.3646 69.6711ZM16.5515 33.1532C16.5515 38.2057 18.2054 43.1192 21.2607 47.1433L24.4465 44.7245C21.9195 41.3962 20.5515 37.3321 20.5515 33.1532H16.5515ZM58.7392 47.1433C61.7944 43.1192 63.4483 38.2057 63.4483 33.1532H59.4483C59.4483 37.3321 58.0804 41.3961 55.5534 44.7245L58.7392 47.1433ZM40.3127 14.0176C50.881 14.0176 59.4483 22.5849 59.4483 33.1532H63.4483C63.4483 20.3757 53.0902 10.0176 40.3127 10.0176V14.0176ZM39.6871 10.0176C26.9097 10.0176 16.5515 20.3757 16.5515 33.1532H20.5515C20.5515 22.5849 29.1188 14.0176 39.6871 14.0176V10.0176Z" fill="currentColor" />
</svg>