<svg width="80" height="80" viewBox="0 0 80 80" fill="none" xmlns="http://www.w3.org/2000/svg">
  <path d="M43 8C43 6.34315 41.6569 5 40 5C38.3431 5 37 6.34315 37 8H43ZM37 12C37 13.6569 38.3431 15 40 15C41.6569 15 43 13.6569 43 12H37ZM43 28C43 26.3431 41.6569 25 40 25C38.3431 25 37 26.3431 37 28H43ZM37 34.0615C37 35.7184 38.3431 37.0615 40 37.0615C41.6569 37.0615 43 35.7184 43 34.0615H37ZM43 50.0615C43 48.4047 41.6569 47.0615 40 47.0615C38.3431 47.0615 37 48.4047 37 50.0615H43ZM37 72C37 73.6569 38.3431 75 40 75C41.6569 75 43 73.6569 43 72H37ZM37 8V12H43V8H37ZM37 28V34.0615H43V28H37ZM37 50.0615V72H43V50.0615H37Z" fill="currentColor" />
  <path d="M16 13.5C16 12.6716 16.6716 12 17.5 12H63.1716C63.702 12 64.2107 12.2107 64.5858 12.5858L70.5858 18.5858C71.3668 19.3668 71.3668 20.6332 70.5858 21.4142L64.5858 27.4142C64.2107 27.7893 63.702 28 63.1716 28H17.5C16.6716 28 16 27.3284 16 26.5V13.5Z" fill="currentColor" />
  <path d="M64 35.5615C64 34.7331 63.3284 34.0615 62.5 34.0615H16.8284C16.298 34.0615 15.7893 34.2722 15.4142 34.6473L9.41421 40.6473C8.63316 41.4284 8.63316 42.6947 9.41422 43.4757L15.4142 49.4757C15.7893 49.8508 16.298 50.0615 16.8284 50.0615H62.5C63.3284 50.0615 64 49.39 64 48.5615V35.5615Z" fill="currentColor" />
</svg>