<svg width="80" height="80" viewBox="0 0 80 80" fill="none" xmlns="http://www.w3.org/2000/svg">
  <path fill-rule="evenodd" clip-rule="evenodd" d="M40 11.5351C51.0457 11.5351 60 20.4894 60 31.5351V32.7397C60 37.1593 58.6191 41.4683 56.0503 45.0647L40.0395 67.4798C40.0201 67.5069 39.9799 67.5069 39.9605 67.4798L23.9497 45.0647C21.3809 41.4683 20 37.1593 20 32.7397V31.5351C20 20.4894 28.9543 11.5351 40 11.5351ZM48.7838 29.6495C48.1737 26.9763 46.3795 24.7265 43.9092 23.5368C41.4388 22.3472 38.5612 22.3472 36.0908 23.5368C33.6205 24.7265 31.8263 26.9763 31.2162 29.6495C30.6061 32.3226 31.2464 35.1281 32.9559 37.2717C34.6655 39.4154 37.2581 40.664 40 40.664C42.7419 40.664 45.3345 39.4154 47.0441 37.2717C48.7536 35.1281 49.3939 32.3226 48.7838 29.6495Z" fill="currentColor" />
  <path d="M56.0503 45.0647L57.2709 45.9365L57.2709 45.9365L56.0503 45.0647ZM40.0395 67.4798L38.8189 66.6079L38.8189 66.6079L40.0395 67.4798ZM39.9605 67.4798L41.1811 66.6079L41.1811 66.6079L39.9605 67.4798ZM23.9497 45.0647L22.7291 45.9365L22.7291 45.9365L23.9497 45.0647ZM43.9092 23.5368L43.2583 24.8883L43.2583 24.8883L43.9092 23.5368ZM48.7838 29.6495L50.2462 29.3157L50.2462 29.3157L48.7838 29.6495ZM36.0908 23.5368L36.7417 24.8883L36.7417 24.8883L36.0908 23.5368ZM31.2162 29.6495L29.7538 29.3157L29.7538 29.3157L31.2162 29.6495ZM32.9559 37.2717L34.1287 36.3365L34.1287 36.3365L32.9559 37.2717ZM47.0441 37.2717L45.8713 36.3365L45.8713 36.3365L47.0441 37.2717ZM61.5 31.5351C61.5 19.6609 51.8741 10.0351 40 10.0351V13.0351C50.2173 13.0351 58.5 21.3178 58.5 31.5351H61.5ZM61.5 32.7397V31.5351H58.5V32.7397H61.5ZM57.2709 45.9365C60.0214 42.0858 61.5 37.4719 61.5 32.7397H58.5C58.5 36.8466 57.2168 40.8509 54.8297 44.1928L57.2709 45.9365ZM41.2601 68.3516L57.2709 45.9365L54.8297 44.1928L38.8189 66.6079L41.2601 68.3516ZM38.7399 68.3516C39.3574 69.2163 40.6426 69.2163 41.2601 68.3516L38.8189 66.6079C39.3977 65.7975 40.6023 65.7975 41.1811 66.6079L38.7399 68.3516ZM22.7291 45.9365L38.7399 68.3516L41.1811 66.6079L25.1703 44.1928L22.7291 45.9365ZM18.5 32.7397C18.5 37.4719 19.9786 42.0858 22.7291 45.9365L25.1703 44.1928C22.7832 40.8509 21.5 36.8466 21.5 32.7397H18.5ZM18.5 31.5351V32.7397H21.5V31.5351H18.5ZM40 10.0351C28.1259 10.0351 18.5 19.6609 18.5 31.5351H21.5C21.5 21.3178 29.7827 13.0351 40 13.0351V10.0351ZM43.2583 24.8883C45.3174 25.8799 46.8129 27.7552 47.3214 29.9832L50.2462 29.3157C49.5345 26.1975 47.4416 23.5731 44.56 22.1854L43.2583 24.8883ZM36.7417 24.8883C38.8007 23.8967 41.1993 23.8967 43.2583 24.8883L44.56 22.1854C41.6784 20.7977 38.3216 20.7977 35.44 22.1854L36.7417 24.8883ZM32.6786 29.9832C33.1871 27.7552 34.6826 25.8799 36.7417 24.8883L35.44 22.1854C32.5584 23.5731 30.4655 26.1975 29.7538 29.3157L32.6786 29.9832ZM34.1287 36.3365C32.7038 34.5497 32.17 32.2113 32.6786 29.9832L29.7538 29.3157C29.0421 32.4338 29.7891 35.7064 31.7832 38.207L34.1287 36.3365ZM40 39.164C37.7146 39.164 35.5536 38.1233 34.1287 36.3365L31.7832 38.207C33.7773 40.7076 36.8016 42.164 40 42.164V39.164ZM45.8713 36.3365C44.4464 38.1233 42.2854 39.164 40 39.164V42.164C43.1984 42.164 46.2227 40.7076 48.2168 38.207L45.8713 36.3365ZM47.3214 29.9832C47.83 32.2113 47.2962 34.5497 45.8713 36.3365L48.2168 38.207C50.2109 35.7064 50.9579 32.4338 50.2462 29.3157L47.3214 29.9832Z" fill="currentColor" />
</svg>