<svg width="80" height="80" viewBox="0 0 80 80" fill="none" xmlns="http://www.w3.org/2000/svg">
  <path fill-rule="evenodd" clip-rule="evenodd" d="M21.7836 22.686C25.3148 19.9765 29.7776 18.7807 34.1904 19.3617C34.9975 19.4679 35.7097 19.861 36.2043 20.4865C36.6759 21.0828 36.8629 21.7768 36.8824 22.3947C36.9201 23.5891 36.3438 24.898 35.1563 25.6459C34.9064 25.8032 34.6629 25.9727 34.4266 26.154C32.4037 27.7063 31.0802 29.9986 30.7473 32.5267C30.4145 35.0548 31.0996 37.6116 32.6519 39.6346C32.6686 39.6563 32.6853 39.6779 32.702 39.6994C33.3447 40.5222 33.2462 41.701 32.476 42.4058C31.3224 43.4615 30.4007 44.7502 29.7734 46.1839C29.5646 46.661 29.1779 47.0379 28.6956 47.2344C27.3226 47.7936 26.0508 48.5991 24.9483 49.6218C24.2605 50.2599 23.2216 50.334 22.4501 49.8002C21.0298 48.8173 19.7568 47.6122 18.6858 46.2164C15.9763 42.6853 14.7805 38.2225 15.3614 33.8097C15.9424 29.3969 18.2525 25.3956 21.7836 22.686Z" fill="currentColor" />
  <path d="M60.751 37.9343C63.499 39.5164 65.5123 42.1301 66.3342 45.1886C66.7765 46.8348 66.8564 48.5404 66.5883 50.1925C67.5708 50.649 68.4758 51.2765 69.2566 52.0551C71.0103 53.8038 72.0006 56.1832 72.0006 58.6598C72.0006 61.1364 71.0103 63.5158 69.2566 65.2645C67.5034 67.0127 65.1239 67.9992 62.648 67.9992H60.6095C60.602 67.9997 60.5943 68 60.5866 68H35.4159C35.4131 68 35.4103 68 35.4075 67.9999H33.3532C30.8774 67.9999 28.4978 67.0135 26.7446 65.2653C24.9909 63.5166 24.0006 61.1371 24.0006 58.6606C24.0006 56.184 24.9909 53.8046 26.7446 52.0559C28.1581 50.6463 29.9788 49.732 31.9289 49.4307C31.9727 49.1455 32.0317 48.8618 32.1057 48.5808C32.6613 46.4736 34.0416 44.66 35.9325 43.5713C37.8234 42.4827 40.0886 42.1975 42.1965 42.7714C42.741 42.9196 43.2658 43.1221 43.7636 43.3735L44.376 42.3157C45.9678 39.5664 48.589 37.5602 51.662 36.7392C54.7292 35.9196 58.0029 36.3522 60.751 37.9343Z" fill="currentColor" />
</svg>