<svg width="80" height="80" viewBox="0 0 80 80" fill="none" xmlns="http://www.w3.org/2000/svg">
  <path fill-rule="evenodd" clip-rule="evenodd" d="M29.5 11.5C29.5 10.6716 28.8284 10 28 10C27.1716 10 26.5 10.6716 26.5 11.5V13.5H22C19.7909 13.5 18 15.2909 18 17.5V65.5C18 67.7091 19.7909 69.5 22 69.5H58C60.2091 69.5 62 67.7091 62 65.5V17.5C62 15.2909 60.2091 13.5 58 13.5H53.5V11.5C53.5 10.6716 52.8284 10 52 10C51.1716 10 50.5 10.6716 50.5 11.5V13.5H45.5V11.5C45.5 10.6716 44.8284 10 44 10C43.1716 10 42.5 10.6716 42.5 11.5V13.5H37.5V11.5C37.5 10.6716 36.8284 10 36 10C35.1716 10 34.5 10.6716 34.5 11.5V13.5H29.5V11.5ZM28 23C26.6193 23 25.5 24.1193 25.5 25.5C25.5 26.8807 26.6193 28 28 28H52C53.3807 28 54.5 26.8807 54.5 25.5C54.5 24.1193 53.3807 23 52 23H28ZM25.5 41.5C25.5 40.1193 26.6193 39 28 39H52C53.3807 39 54.5 40.1193 54.5 41.5C54.5 42.8807 53.3807 44 52 44H28C26.6193 44 25.5 42.8807 25.5 41.5ZM28 55C26.6193 55 25.5 56.1193 25.5 57.5C25.5 58.8807 26.6193 60 28 60H52C53.3807 60 54.5 58.8807 54.5 57.5C54.5 56.1193 53.3807 55 52 55H28ZM25.5 33.5C25.5 32.1193 26.6193 31 28 31H44C45.3807 31 46.5 32.1193 46.5 33.5C46.5 34.8807 45.3807 36 44 36H28C26.6193 36 25.5 34.8807 25.5 33.5ZM28 47C26.6193 47 25.5 48.1193 25.5 49.5C25.5 50.8807 26.6193 52 28 52H44C45.3807 52 46.5 50.8807 46.5 49.5C46.5 48.1193 45.3807 47 44 47H28Z" fill="currentColor" />
</svg>