<svg width="80" height="80" viewBox="0 0 80 80" fill="none" xmlns="http://www.w3.org/2000/svg">
  <path d="M33.0781 23.4793C31.9068 24.6511 31.9073 26.5506 33.0791 27.7219C34.251 28.8932 36.1505 28.8928 37.3218 27.7209L33.0781 23.4793ZM44.5348 16.2609L42.413 14.14L42.413 14.14L44.5348 16.2609ZM41.7954 64.0001C41.7954 65.657 43.1386 67.0001 44.7954 67.0001C46.4523 67.0001 47.7954 65.657 47.7954 64.0001H41.7954ZM37.3218 27.7209L46.6566 18.3817L42.413 14.14L33.0781 23.4793L37.3218 27.7209ZM41.7954 16.3688L41.7954 64.0001H47.7954L47.7954 16.3688L41.7954 16.3688ZM46.6566 18.3817C44.8631 20.176 41.7954 18.9058 41.7954 16.3688L47.7954 16.3688C47.7954 13.5597 44.3988 12.1533 42.413 14.14L46.6566 18.3817Z" fill="currentColor" />
</svg>