<svg width="80" height="80" viewBox="0 0 80 80" fill="none" xmlns="http://www.w3.org/2000/svg">
  <path d="M34.5712 32.4959C34.3086 32.4271 34.0763 32.2644 33.9221 32.0331L31.3971 28.2455C29.4577 25.3365 29.248 21.6048 30.849 18.4967L37.6306 5.3325C37.9665 4.68045 38.755 5.06773 38.755 5.80122V18.958C38.755 19.5247 38.4598 20.0416 38.1765 20.5323C37.2527 22.1323 38.4074 24.1323 40.2549 24.1323C42.1024 24.1323 43.2571 22.1323 42.3334 20.5323C42.0501 20.0416 41.755 19.5248 41.755 18.9581V5.8012C41.755 5.06774 42.5434 4.68046 42.8793 5.3325L49.6609 18.4967C51.262 21.6048 51.0522 25.3365 49.1129 28.2455L46.5878 32.0331C46.4427 32.2507 46.2285 32.4077 45.9849 32.4827C46.4792 32.5577 46.8754 32.9523 46.9406 33.4617L47.3896 36.9698L33.2385 36.9698L33.6868 33.4618C33.7488 32.977 34.1104 32.5962 34.5712 32.4959Z" fill="currentColor" />
  <path d="M40.3165 75.4698C46.6825 75.4698 51.6021 69.8804 50.7939 63.5659L47.7736 39.9698L32.855 39.9698L29.8388 63.5677C29.0318 69.8817 33.9512 75.4698 40.3165 75.4698Z" fill="currentColor" />
</svg>