<svg width="80" height="80" viewBox="0 0 80 80" fill="none" xmlns="http://www.w3.org/2000/svg">
  <path d="M51.4212 66.2659C51.6687 67.5035 50.7221 68.6581 49.46 68.6581H30.3394C29.0773 68.6581 28.1308 67.5034 28.3783 66.2659L29.5783 60.2659C29.591 60.202 29.6484 60.1581 29.7135 60.1581H50.1012C50.1574 60.1581 50.2069 60.196 50.2183 60.2511C50.2193 60.256 50.2204 60.261 50.2213 60.2659L51.4212 66.2659Z" fill="currentColor" />
  <path d="M50.1012 57.1581C50.6001 57.1581 51.0659 56.9088 51.3426 56.4937L55.983 49.5331C58.4004 45.907 58.6619 41.2553 56.6661 37.3812L44.2735 13.325C44.2354 13.2509 44.1955 13.1781 44.1539 13.1065C43.4268 11.8545 41.8997 12.7144 41.8997 14.1622L41.8997 36.0292C41.8997 36.7455 42.3142 37.3808 42.8045 37.9029C43.013 38.1249 43.2012 38.3767 43.3637 38.6581C44.9033 41.3248 42.9788 44.6581 39.8996 44.6581C36.8204 44.6581 34.8959 41.3248 36.4355 38.6581C36.598 38.3766 36.7862 38.1249 36.9948 37.9028C37.4851 37.3807 37.8997 36.7454 37.8997 36.0291V14.1622C37.8997 12.7144 36.3725 11.8545 35.6454 13.1065C35.6039 13.1781 35.564 13.2509 35.5258 13.325L23.1332 37.3812C21.1375 41.2553 21.3989 45.907 23.8163 49.5331L28.3059 56.2675C28.6769 56.8239 29.3013 57.1581 29.97 57.1581H50.1012Z" fill="currentColor" />
</svg>