<svg width="80" height="80" viewBox="0 0 80 80" fill="none" xmlns="http://www.w3.org/2000/svg">
  <path fill-rule="evenodd" clip-rule="evenodd" d="M54.1097 44.0862L42.4594 55.7365C43.0732 59.5096 45.3841 62.8709 48.758 64.7988C52.731 67.0691 57.7081 67.0691 61.6811 64.7988C63.4803 63.7707 64.9772 62.335 66.0756 60.6466C65.5406 60.4907 65.0192 60.2729 64.5221 59.9932L64.3782 59.9123C62.1419 58.6544 60.7579 56.2879 60.7579 53.722C60.7579 53.6366 60.7594 53.5513 60.7624 53.4663H60.7582V52.9487C60.7582 49.7063 59.0569 46.7016 56.2766 45.0334C55.5883 44.6205 54.8597 44.3047 54.1097 44.0862ZM14.8815 25.181L25.1481 39.1067L37.7457 26.5092L23.8231 16.2411C21.278 14.364 17.743 14.6296 15.5068 16.8657C13.271 19.1016 13.0052 22.6359 14.8815 25.181ZM31.9055 48.2726C32.9227 49.6523 34.2864 50.6018 35.7779 51.1044L49.7418 37.1404C49.2394 35.6494 48.2903 34.286 46.9112 33.2688L44.2571 31.3114L29.9493 45.6192L31.9055 48.2726Z" fill="currentColor" />
  <path fill-rule="evenodd" clip-rule="evenodd" d="M63.7369 11.8253C62.1765 10.2649 59.6466 10.2649 58.0863 11.8253L19.0553 50.8563C17.7708 52.1408 16.9617 53.8242 16.7611 55.6297L15.9396 63.023L15.7982 64.2957C15.7257 64.9483 16.277 65.4996 16.9295 65.4271L18.2023 65.2857L25.5956 64.4642C27.401 64.2636 29.0845 63.4545 30.369 62.17L69.3938 23.1452C70.9576 21.5814 70.9576 19.046 69.3938 17.4822L63.7369 11.8253ZM58.7847 33.7432L47.4772 22.4357L51.7199 18.1931L63.0274 29.5006L58.7847 33.7432Z" fill="currentColor" />
</svg>