<svg width="80" height="80" viewBox="0 0 80 80" fill="none" xmlns="http://www.w3.org/2000/svg">
  <path fill-rule="evenodd" clip-rule="evenodd" d="M40.1132 76.1127C35.6949 76.1127 32.1132 72.5309 32.1132 68.1127L32.1132 20.2346L34.3427 22.4654C35.3191 23.4423 36.9028 23.4423 37.8792 22.4654L40.1088 20.2346L42.3383 22.4654C43.3147 23.4423 44.8984 23.4423 45.8748 22.4654L48.1132 20.2258L48.1132 68.1127C48.1132 72.5309 44.5314 76.1127 40.1132 76.1127ZM32.1141 58.6127L48.1053 58.6127L48.1053 61.6127L32.1141 61.6127L32.1141 58.6127Z" fill="currentColor" />
  <path d="M47.8235 16.6942C47.3648 14.3167 46.37 12.0627 44.9016 10.1097H35.3247C33.8547 12.0649 32.8593 14.3217 32.4013 16.7021C32.7112 16.7465 33.0099 16.888 33.2482 17.1265L36.111 19.9908L38.3405 17.76C39.3169 16.783 40.9006 16.783 41.877 17.76L44.1066 19.9908L46.9773 17.1184C47.2155 16.8802 47.5138 16.7387 47.8235 16.6942Z" fill="currentColor" />
  <path d="M37.3155 7.60976L40.1131 4.11269L42.9108 7.60976H37.3155Z" fill="currentColor" />
</svg>