<svg width="80" height="80" viewBox="0 0 80 80" fill="none" xmlns="http://www.w3.org/2000/svg">
  <path fill-rule="evenodd" clip-rule="evenodd" d="M27.6488 48.6343C27.6093 48.6489 27.5698 48.6636 27.5304 48.6784L26.3003 49.1394C20.1048 51.4615 16 57.3836 16 64C16 66.2091 17.7909 68 20 68H60C62.2091 68 64 66.2091 64 64C64 57.3836 59.8952 51.4615 53.6997 49.1395L52.4696 48.6784C52.4302 48.6636 52.3907 48.6489 52.3512 48.6343L45.908 54.0897C42.4983 56.9767 37.5017 56.9767 34.092 54.0897L27.6488 48.6343Z" fill="currentColor" />
  <path d="M27.5304 48.6784L28.2323 50.5512L28.2323 50.5512L27.5304 48.6784ZM27.6488 48.6343L28.9412 47.1079C28.3902 46.6414 27.6305 46.508 26.9535 46.759L27.6488 48.6343ZM26.3003 49.1394L27.0022 51.0122V51.0122L26.3003 49.1394ZM53.6997 49.1395L52.9978 51.0122V51.0122L53.6997 49.1395ZM52.4696 48.6784L51.7677 50.5512L51.7677 50.5512L52.4696 48.6784ZM52.3512 48.6343L53.0464 46.759C52.3695 46.508 51.6098 46.6414 51.0588 47.1079L52.3512 48.6343ZM45.908 54.0897L44.6156 52.5634L45.908 54.0897ZM34.092 54.0897L35.3844 52.5634L35.3844 52.5634L34.092 54.0897ZM28.2323 50.5512C28.2695 50.5372 28.3068 50.5234 28.3441 50.5095L26.9535 46.759C26.9118 46.7745 26.8701 46.79 26.8285 46.8056L28.2323 50.5512ZM27.0022 51.0122L28.2323 50.5512L26.8285 46.8056L25.5984 47.2667L27.0022 51.0122ZM18 64C18 58.2174 21.5875 53.0416 27.0022 51.0122L25.5984 47.2667C18.6221 49.8814 14 56.5498 14 64H18ZM20 66C18.8954 66 18 65.1045 18 64H14C14 67.3137 16.6863 70 20 70V66ZM60 66H20V70H60V66ZM62 64C62 65.1045 61.1046 66 60 66V70C63.3137 70 66 67.3137 66 64H62ZM52.9978 51.0122C58.4125 53.0417 62 58.2174 62 64H66C66 56.5498 61.3779 49.8814 54.4016 47.2667L52.9978 51.0122ZM51.7677 50.5512L52.9978 51.0122L54.4016 47.2667L53.1715 46.8056L51.7677 50.5512ZM51.656 50.5095C51.6932 50.5234 51.7305 50.5373 51.7677 50.5512L53.1716 46.8056C53.1299 46.79 53.0881 46.7745 53.0464 46.759L51.656 50.5095ZM51.0588 47.1079L44.6156 52.5634L47.2003 55.6161L53.6436 50.1606L51.0588 47.1079ZM44.6156 52.5634C41.9518 54.8188 38.0482 54.8188 35.3844 52.5634L32.7997 55.6161C36.9552 59.1346 43.0449 59.1346 47.2003 55.6161L44.6156 52.5634ZM35.3844 52.5634L28.9412 47.1079L26.3564 50.1606L32.7997 55.6161L35.3844 52.5634Z" fill="currentColor" />
  <path d="M42 56.2549C42 55.1504 41.1046 54.2549 40 54.2549C38.8954 54.2549 38 55.1504 38 56.2549H42ZM38 68.0002C38 69.1048 38.8954 70.0002 40 70.0002C41.1046 70.0002 42 69.1048 42 68.0002H38ZM38 56.2549V68.0002H42V56.2549H38Z" fill="currentColor" />
  <path d="M27.0335 18.8432C33.4205 10.0084 46.5795 10.0084 52.9665 18.8432L59.581 27.9927C63.2551 33.0749 62.3964 40.129 57.6104 44.1813L45.908 54.0897C42.4983 56.9767 37.5017 56.9767 34.092 54.0897L22.3896 44.1813C17.6036 40.129 16.7449 33.0749 20.419 27.9927L27.0335 18.8432Z" stroke="currentColor" stroke-width="6" stroke-linecap="round" stroke-linejoin="round" />
  <path fill-rule="evenodd" clip-rule="evenodd" d="M52.9666 18.8434C46.5797 10.0086 33.4206 10.0086 27.0336 18.8434L20.4191 27.9929C18.6408 30.4528 17.9244 33.3747 18.2012 36.1945C24.0233 31.0925 31.6506 28 40.0001 28C48.3497 28 55.9769 31.0925 61.799 36.1945C62.0759 33.3747 61.3595 30.4528 59.5812 27.993L52.9666 18.8434Z" fill="currentColor" />
  <path d="M27.0336 18.8434L28.6545 20.0151L27.0336 18.8434ZM52.9666 18.8434L51.3458 20.0151V20.0151L52.9666 18.8434ZM20.4191 27.9929L18.7983 26.8212L18.7983 26.8212L20.4191 27.9929ZM18.2012 36.1945L16.2108 36.3899C16.2841 37.136 16.7684 37.7785 17.4656 38.0543C18.1627 38.3301 18.9555 38.1928 19.5194 37.6987L18.2012 36.1945ZM61.799 36.1945L60.4809 37.6987C61.0447 38.1928 61.8375 38.33 62.5347 38.0543C63.2318 37.7785 63.7162 37.136 63.7894 36.3899L61.799 36.1945ZM59.5812 27.993L57.9603 29.1647L59.5812 27.993ZM28.6545 20.0151C34.243 12.2847 45.7572 12.2847 51.3458 20.0151L54.5874 17.6716C47.4021 7.73251 32.5982 7.73249 25.4128 17.6716L28.6545 20.0151ZM22.0399 29.1647L28.6545 20.0151L25.4128 17.6716L18.7983 26.8212L22.0399 29.1647ZM20.1917 35.9991C19.9608 33.6473 20.5576 31.2151 22.0399 29.1647L18.7983 26.8212C16.724 29.6905 15.888 33.1021 16.2108 36.3899L20.1917 35.9991ZM19.5194 37.6987C24.9907 32.904 32.1538 30 40.0001 30V26C31.1474 26 23.0559 29.2809 16.8831 34.6903L19.5194 37.6987ZM40.0001 30C47.8464 30 55.0095 32.904 60.4809 37.6987L63.1172 34.6903C56.9443 29.2809 48.8529 26 40.0001 26V30ZM57.9603 29.1647C59.4427 31.2151 60.0395 33.6473 59.8086 35.9991L63.7894 36.3899C64.1123 33.1021 63.2763 29.6905 61.202 26.8212L57.9603 29.1647ZM51.3458 20.0151L57.9603 29.1647L61.202 26.8212L54.5874 17.6716L51.3458 20.0151Z" fill="currentColor" />
  <path fill-rule="evenodd" clip-rule="evenodd" d="M31.8962 22.3571C35.888 16.8354 44.1124 16.8354 48.1043 22.3571L48.5188 22.9305C45.7759 22.3204 42.925 21.9985 40.0002 21.9985C37.0755 21.9985 34.2246 22.3204 31.4816 22.9305L31.8962 22.3571ZM27.9824 36.8018C29.2319 39.3874 31.2967 41.529 33.9015 42.867C37.7295 44.8333 42.2707 44.8333 46.0986 42.867C48.7035 41.5289 50.7683 39.3873 52.0178 36.8017C48.3976 35.0063 44.3195 33.9985 40.0002 33.9985C35.6808 33.9985 31.6027 35.0063 27.9824 36.8018Z" fill="currentColor" />
</svg>