<svg width="80" height="80" viewBox="0 0 80 80" fill="none" xmlns="http://www.w3.org/2000/svg">
  <g opacity="0.9">
    <path fill-rule="evenodd" clip-rule="evenodd" d="M51.0923 47.379C50.6451 47.1705 50.2023 46.9543 49.7642 46.7306C47.9571 45.8079 45.6813 46.4767 44.8417 48.3239C43.686 50.8664 40.3466 51.4719 38.3718 49.4971L38.2105 49.3359L29.7253 40.8506L29.564 40.6894C27.5892 38.7146 28.1948 35.3752 30.7373 34.2195C32.4879 33.4238 33.1045 31.2538 32.1904 29.562C31.8042 28.8474 31.4384 28.1199 31.0934 27.3801C30.405 25.9039 29.8075 24.395 29.3015 22.8615C28.4673 20.3333 25.597 18.9234 23.2248 20.132L16.9733 23.3174C15.9441 23.8417 15.3055 24.9188 15.4062 26.0694C16.2534 35.7531 20.4854 44.8287 27.359 51.7022C34.2325 58.5758 43.3081 62.8078 52.9917 63.655C54.1432 63.7557 55.221 63.1167 55.7457 62.0868L59.1039 55.4959C60.3278 53.094 58.8666 50.1894 56.2924 49.3892C54.5242 48.8395 52.7867 48.1691 51.0923 47.379Z" fill="currentColor" />
    <path d="M51.0923 47.379L51.9375 45.5664L51.0923 47.379ZM38.3718 49.4971L39.786 48.0829L38.3718 49.4971ZM38.2105 49.3359L36.7963 50.7501L38.2105 49.3359ZM31.0934 27.3801L29.2808 28.2254L31.0934 27.3801ZM59.1039 55.4959L57.3219 54.588L59.1039 55.4959ZM32.1904 29.562L33.9499 28.6113L32.1904 29.562ZM55.7457 62.0868L57.5277 62.9948L55.7457 62.0868ZM29.3015 22.8615L27.4023 23.4882L29.3015 22.8615ZM48.8548 48.5118C49.3141 48.7464 49.7782 48.973 50.247 49.1916L51.9375 45.5664C51.5119 45.3679 51.0906 45.1622 50.6737 44.9493L48.8548 48.5118ZM36.9576 50.9113C39.9198 53.8736 44.9289 52.9653 46.6624 49.1515L43.0209 47.4963C42.4431 48.7675 40.7734 49.0703 39.786 48.0829L36.9576 50.9113ZM36.7963 50.7501L36.9576 50.9113L39.786 48.0829L39.6248 47.9217L36.7963 50.7501ZM28.3111 42.2648L36.7963 50.7501L39.6248 47.9217L31.1395 39.4364L28.3111 42.2648ZM28.1498 42.1036L28.3111 42.2648L31.1395 39.4364L30.9783 39.2752L28.1498 42.1036ZM29.9097 32.3988C26.0959 34.1323 25.1876 39.1414 28.1498 42.1036L30.9783 39.2752C29.9908 38.2878 30.2936 36.6181 31.5649 36.0402L29.9097 32.3988ZM29.2808 28.2254C29.6424 29.0008 30.026 29.7636 30.4308 30.5127L33.9499 28.6113C33.5825 27.9312 33.2343 27.2389 32.906 26.5349L29.2808 28.2254ZM27.4023 23.4882C27.9327 25.0959 28.5591 26.6778 29.2808 28.2254L32.906 26.5349C32.2509 25.13 31.6823 23.6941 31.2008 22.2348L27.4023 23.4882ZM22.3168 18.35L16.0653 21.5353L17.8813 25.0994L24.1328 21.914L22.3168 18.35ZM28.7732 50.288C22.2321 43.7469 18.2048 35.1104 17.3986 25.8951L13.4138 26.2437C14.302 36.3958 18.7387 45.9104 25.9447 53.1164L28.7732 50.288ZM53.1661 61.6626C43.9508 60.8564 35.3142 56.8291 28.7732 50.288L25.9447 53.1164C33.1508 60.3225 42.6653 64.7592 52.8174 65.6474L53.1661 61.6626ZM57.5277 62.9948L60.8859 56.4039L57.3219 54.588L53.9637 61.1788L57.5277 62.9948ZM50.247 49.1916C52.0233 50.0199 53.8449 50.7228 55.6986 51.299L56.8861 47.4793C55.2035 46.9563 53.55 46.3183 51.9375 45.5664L50.247 49.1916ZM60.8859 56.4039C62.7531 52.7394 60.4684 48.593 56.8861 47.4793L55.6986 51.299C57.2648 51.7859 57.9025 53.4486 57.3219 54.588L60.8859 56.4039ZM50.6737 44.9493C47.9612 43.5644 44.382 44.5019 43.0209 47.4963L46.6624 49.1515C46.9805 48.4516 47.953 48.0515 48.8548 48.5118L50.6737 44.9493ZM16.0653 21.5353C14.3575 22.4055 13.2375 24.2288 13.4138 26.2437L17.3986 25.8951C17.3735 25.6087 17.5308 25.2779 17.8813 25.0994L16.0653 21.5353ZM31.5649 36.0402C34.4757 34.7171 35.3583 31.2177 33.9499 28.6113L30.4308 30.5127C30.8507 31.2899 30.5001 32.1304 29.9097 32.3988L31.5649 36.0402ZM52.8174 65.6474C54.8332 65.8237 56.6572 64.7033 57.5277 62.9948L53.9637 61.1788C53.7848 61.53 53.4532 61.6877 53.1661 61.6626L52.8174 65.6474ZM31.2008 22.2348C30.0386 18.7125 25.9347 16.5066 22.3168 18.35L24.1328 21.914C25.2593 21.3401 26.896 21.954 27.4023 23.4882L31.2008 22.2348Z" fill="currentColor" />
  </g>
  <path d="M44.7583 23.3467L53.8492 23.3467L55.6674 23.3467L64.7583 23.3467" stroke="currentColor" stroke-width="6" stroke-linecap="round" stroke-linejoin="round" />
</svg>