<svg viewBox="0 0 80 80" fill="none">
  <path fill-rule="evenodd" clip-rule="evenodd" d="M52.8048 42.9997L37.7906 26.3172C36.4631 24.8423 34.5719 24 32.5875 24H26.7051C26.2456 24 25.9468 24.4835 26.1523 24.8944L35.2049 42.9997H18.4193L14.9064 38.5287C14.1481 37.5636 12.9886 37 11.7612 37L6.70532 37C6.21798 37 5.87774 37.4828 6.04165 37.9417L10.6718 50.906C10.6846 50.9421 10.7111 50.9704 10.7441 50.9862C10.7645 51.0129 10.792 51.0343 10.8246 51.0474L19.0311 54.33C23.4401 56.0936 28.1451 56.9997 32.8937 56.9997H61.5198C64.602 56.9997 67.6462 56.3195 70.4354 55.0078L71.9906 54.2764C73.6476 53.4971 74.7053 51.8308 74.7053 49.9997C74.7053 48.1685 73.6476 46.5022 71.9906 45.7229L70.4354 44.9915C67.6462 43.6798 64.602 42.9997 61.5198 42.9997H52.8048Z" fill="currentColor" />
</svg>