<svg width="80" height="80" viewBox="0 0 80 80" fill="none" xmlns="http://www.w3.org/2000/svg">
  <path fill-rule="evenodd" clip-rule="evenodd" d="M40 15C39.8181 15 39.6363 15.002 39.4546 15.0059C37.7982 15.0421 36.426 13.7286 36.3899 12.0721C36.3537 10.4156 37.6673 9.04352 39.3237 9.00738C39.549 9.00246 39.7744 9 40 9C41.6569 9 43 10.3431 43 12C43 13.6569 41.6569 15 40 15ZM32.6478 12.8165C33.2483 14.3607 32.4833 16.0993 30.9391 16.6998C30.7697 16.7657 30.601 16.8334 30.4329 16.903C30.2649 16.9726 30.0976 17.044 29.9313 17.1172C28.4148 17.7845 26.6444 17.0961 25.9771 15.5795C25.3099 14.063 25.9983 12.2926 27.5148 11.6253C27.7211 11.5346 27.9284 11.4461 28.1368 11.3597C28.3452 11.2734 28.5544 11.1894 28.7644 11.1077C30.3086 10.5072 32.0473 11.2723 32.6478 12.8165ZM22.8047 17.6993C23.9505 18.8961 23.909 20.7951 22.7122 21.9409C22.5809 22.0665 22.451 22.1937 22.3223 22.3223C22.1937 22.451 22.0666 22.5809 21.9409 22.7122C20.7952 23.909 18.8961 23.9505 17.6993 22.8047C16.5024 21.659 16.461 19.76 17.6067 18.5631C17.7625 18.4003 17.9202 18.2392 18.0797 18.0797C18.2392 17.9202 18.4003 17.7625 18.5631 17.6067C19.76 16.461 21.659 16.5024 22.8047 17.6993ZM15.5795 25.9771C17.0961 26.6444 17.7845 28.4148 17.1172 29.9313C17.044 30.0976 16.9726 30.2649 16.903 30.4329C16.8334 30.601 16.7657 30.7697 16.6998 30.9391C16.0993 32.4833 14.3607 33.2483 12.8165 32.6478C11.2723 32.0473 10.5072 30.3086 11.1078 28.7644C11.1894 28.5544 11.2734 28.3452 11.3597 28.1368C11.4461 27.9284 11.5346 27.7211 11.6254 27.5148C12.2926 25.9983 14.063 25.3098 15.5795 25.9771ZM12.0721 36.3899C13.7286 36.426 15.0421 37.7981 15.0059 39.4546C15.002 39.6363 15 39.8181 15 40C15 40.1819 15.002 40.3637 15.0059 40.5454C15.0421 42.2018 13.7286 43.574 12.0721 43.6101C10.4156 43.6463 9.04352 42.3327 9.00738 40.6763C9.00246 40.451 9 40.2256 9 40C9 39.7744 9.00246 39.549 9.00738 39.3237C9.04352 37.6673 10.4156 36.3537 12.0721 36.3899ZM12.8165 47.3522C14.3607 46.7517 16.0993 47.5167 16.6998 49.0609C16.7657 49.2303 16.8334 49.399 16.903 49.5671C16.9726 49.7351 17.044 49.9024 17.1172 50.0687C17.7845 51.5852 17.0961 53.3556 15.5795 54.0229C14.063 54.6901 12.2926 54.0017 11.6253 52.4852C11.5346 52.2789 11.4461 52.0716 11.3597 51.8632C11.2734 51.6548 11.1894 51.4456 11.1077 51.2356C10.5072 49.6914 11.2723 47.9527 12.8165 47.3522ZM17.6993 57.1953C18.8961 56.0495 20.7951 56.091 21.9409 57.2878C22.0665 57.4191 22.1937 57.549 22.3223 57.6777C22.451 57.8063 22.5809 57.9334 22.7122 58.0591C23.909 59.2048 23.9505 61.1039 22.8047 62.3007C21.659 63.4976 19.76 63.539 18.5631 62.3933C18.4003 62.2375 18.2392 62.0798 18.0797 61.9203C17.9202 61.7608 17.7625 61.5997 17.6067 61.4369C16.461 60.24 16.5024 58.341 17.6993 57.1953ZM25.9771 64.4205C26.6444 62.9039 28.4148 62.2155 29.9313 62.8828C30.0976 62.956 30.2649 63.0274 30.4329 63.097C30.601 63.1666 30.7697 63.2343 30.9391 63.3002C32.4833 63.9007 33.2483 65.6393 32.6478 67.1835C32.0473 68.7277 30.3086 69.4928 28.7644 68.8922C28.5544 68.8106 28.3452 68.7266 28.1368 68.6403C27.9284 68.5539 27.7211 68.4654 27.5148 68.3746C25.9983 67.7074 25.3098 65.937 25.9771 64.4205ZM36.3899 67.9279C36.426 66.2714 37.7981 64.9579 39.4546 64.994C39.6363 64.998 39.8181 65 40 65C41.6569 65 43 66.3431 43 68C43 69.6569 41.6569 71 40 71C39.7744 71 39.549 70.9975 39.3237 70.9926C37.6673 70.9565 36.3537 69.5844 36.3899 67.9279Z" fill="currentColor" />
  <path fill-rule="evenodd" clip-rule="evenodd" d="M37 12C37 10.3431 38.3431 9 40 9C48.2217 9 56.1067 12.2661 61.9203 18.0797C67.7339 23.8933 71 31.7783 71 40C71 48.2217 67.7339 56.1067 61.9203 61.9203C56.1067 67.7339 48.2217 71 40 71C38.3431 71 37 69.6569 37 68C37 66.3431 38.3431 65 40 65C46.6304 65 52.9893 62.3661 57.6777 57.6777C62.3661 52.9893 65 46.6304 65 40C65 33.3696 62.3661 27.0107 57.6777 22.3223C52.9893 17.6339 46.6304 15 40 15C38.3431 15 37 13.6569 37 12Z" fill="currentColor" />
  <path d="M49.9969 38.2442C51.3866 39.0022 51.3866 40.9978 49.9969 41.7558L34.1735 50.3867C32.8408 51.1137 31.2158 50.149 31.2158 48.6309V31.3691C31.2158 29.851 32.8408 28.8863 34.1735 29.6133L49.9969 38.2442Z" fill="currentColor" />
</svg>