<svg width="80" height="80" viewBox="0 0 80 80" fill="none" xmlns="http://www.w3.org/2000/svg">
  <path fill-rule="evenodd" clip-rule="evenodd" d="M29.6558 36.2246C29.6745 36.2433 29.6931 36.2621 29.7116 36.281L29.9092 37.0411C30.0411 37.0096 30.1731 36.9788 30.3052 36.9486C30.3052 36.9486 30.3052 36.9486 30.3052 36.9487C30.0179 37.0144 29.731 37.083 29.4447 37.1546C28.6327 37.3576 28.063 38.0872 28.063 38.9243V41.3241C28.063 42.2845 28.8473 43.0228 29.7565 43.0238L29.5394 43.3349C27.3625 46.4546 26.553 50.3275 27.298 54.0579L27.7145 56.1435C28.27 58.9249 29.763 61.4038 31.9068 63.1891C31.8404 63.1828 31.7741 63.1563 31.7163 63.1057L17.3542 50.5389C15.4011 48.8299 14.2808 46.361 14.2808 43.7657V42.5619C14.2808 40.185 15.225 37.9054 16.9058 36.2246C18.5865 34.5439 20.8661 33.5996 23.2431 33.5996H23.3185C25.6954 33.5996 27.975 34.5439 29.6558 36.2246ZM49.731 42.9176L50.0221 43.3349C52.199 46.4546 53.0085 50.3275 52.2635 54.0579L51.847 56.1435C51.2915 58.9249 49.7985 61.4038 47.6547 63.1891C47.7211 63.1828 47.7874 63.1563 47.8452 63.1057L62.2073 50.5389C64.1604 48.8299 65.2808 46.361 65.2808 43.7657V42.5619C65.2808 40.185 64.3365 37.9054 62.6558 36.2246C60.975 34.5439 58.6954 33.5996 56.3185 33.5996H56.2431C54.1041 33.5996 52.0439 34.3643 50.4281 35.7422L50.0977 37.0129C50.2925 37.0588 50.487 37.106 50.6812 37.1546C51.4933 37.3576 52.063 38.0872 52.063 38.9243V41.3241C52.063 42.4293 51.0243 43.2403 49.952 42.9723C49.8784 42.9538 49.8047 42.9356 49.731 42.9176Z" fill="currentColor" />
  <path d="M29.7116 36.281L32.6152 35.5263C32.483 35.0179 32.2197 34.5532 31.8516 34.1785L29.7116 36.281ZM29.6558 36.2246L27.5344 38.3459L27.5345 38.346L29.6558 36.2246ZM29.9092 37.0411L27.0057 37.7958C27.4166 39.3765 29.0163 40.3381 30.605 39.9593L29.9092 37.0411ZM30.3052 36.9486L32.6657 35.0972C31.9489 34.1832 30.7689 33.7652 29.6365 34.0241L30.3052 36.9486ZM30.3052 36.9487L30.9739 39.8732C31.9753 39.6442 32.79 38.9188 33.133 37.9504C33.4761 36.9821 33.2998 35.9056 32.6658 35.0972L30.3052 36.9487ZM29.7565 43.0238L32.2167 44.7406C32.856 43.8244 32.9333 42.6288 32.4172 41.638C31.9011 40.6471 30.8771 40.0251 29.7599 40.0238L29.7565 43.0238ZM29.5394 43.3349L31.9996 45.0517L31.9996 45.0516L29.5394 43.3349ZM27.298 54.0579L24.3561 54.6454V54.6454L27.298 54.0579ZM27.7145 56.1435L30.6564 55.556V55.556L27.7145 56.1435ZM31.9068 63.1891L31.6222 66.1756C32.9319 66.3004 34.1702 65.5572 34.6761 64.3427C35.1821 63.1282 34.8376 61.7257 33.8266 60.8838L31.9068 63.1891ZM31.7163 63.1057L29.7408 65.3635L29.7408 65.3635L31.7163 63.1057ZM17.3542 50.5389L19.3297 48.2812H19.3297L17.3542 50.5389ZM16.9058 36.2246L14.7844 34.1033L14.7844 34.1033L16.9058 36.2246ZM49.731 42.9176L50.4423 40.0032C49.2299 39.7073 47.9609 40.1929 47.2558 41.2225C46.5506 42.2522 46.5565 43.6109 47.2707 44.6344L49.731 42.9176ZM50.0221 43.3349L47.5619 45.0516L47.5619 45.0517L50.0221 43.3349ZM52.2635 54.0579L55.2054 54.6454H55.2054L52.2635 54.0579ZM51.847 56.1435L54.7889 56.731L51.847 56.1435ZM47.6547 63.1891L45.735 60.8838C44.7239 61.7257 44.3795 63.1282 44.8854 64.3427C45.3913 65.5572 46.6295 66.3004 47.9393 66.1756L47.6547 63.1891ZM47.8452 63.1057L49.8207 65.3635L49.8207 65.3635L47.8452 63.1057ZM62.2073 50.5389L64.1828 52.7966L62.2073 50.5389ZM62.6558 36.2246L64.7771 34.1033V34.1033L62.6558 36.2246ZM50.4281 35.7422L48.4815 33.4594C48.0134 33.8586 47.6793 34.392 47.5245 34.9874L50.4281 35.7422ZM50.0977 37.0129L47.1942 36.2582C46.991 37.0399 47.1116 37.8704 47.5287 38.5621C47.9457 39.2537 48.624 39.7479 49.4101 39.9331L50.0977 37.0129ZM50.6812 37.1546L51.4088 34.2441V34.2441L50.6812 37.1546ZM31.8516 34.1785C31.8269 34.1534 31.8021 34.1283 31.7771 34.1033L27.5345 38.346C27.5469 38.3584 27.5593 38.3709 27.5717 38.3835L31.8516 34.1785ZM32.8127 36.2864L32.6152 35.5263L26.8081 37.0357L27.0057 37.7958L32.8127 36.2864ZM29.6365 34.0241C29.4954 34.0564 29.3544 34.0893 29.2134 34.1229L30.605 39.9593C30.7278 39.93 30.8508 39.9013 30.9738 39.8732L29.6365 34.0241ZM32.6658 35.0972C32.6658 35.0972 32.6658 35.0972 32.6658 35.0972V35.0972C32.6658 35.0972 32.6658 35.0972 32.6658 35.0972C32.6658 35.0972 32.6658 35.0972 32.6658 35.0972V35.0972C32.6658 35.0972 32.6658 35.0972 32.6658 35.0972C32.6658 35.0972 32.6658 35.0972 32.6658 35.0972V35.0972C32.6658 35.0972 32.6658 35.0972 32.6658 35.0972C32.6658 35.0972 32.6658 35.0972 32.6658 35.0972V35.0972C32.6658 35.0972 32.6658 35.0972 32.6658 35.0972C32.6658 35.0972 32.6658 35.0972 32.6658 35.0972V35.0972C32.6658 35.0972 32.6658 35.0972 32.6658 35.0972C32.6658 35.0972 32.6658 35.0972 32.6658 35.0972V35.0972C32.6658 35.0972 32.6658 35.0972 32.6658 35.0972C32.6658 35.0972 32.6658 35.0972 32.6658 35.0972C32.6658 35.0972 32.6658 35.0972 32.6658 35.0972V35.0972C32.6658 35.0972 32.6658 35.0972 32.6658 35.0972C32.6658 35.0972 32.6658 35.0972 32.6658 35.0972V35.0972V35.0972C32.6658 35.0972 32.6658 35.0972 32.6658 35.0972C32.6658 35.0972 32.6658 35.0972 32.6658 35.0972V35.0972C32.6658 35.0972 32.6658 35.0972 32.6658 35.0972C32.6658 35.0972 32.6658 35.0972 32.6658 35.0972V35.0972C32.6658 35.0972 32.6658 35.0972 32.6658 35.0972C32.6658 35.0972 32.6658 35.0972 32.6658 35.0972V35.0972C32.6658 35.0972 32.6658 35.0972 32.6658 35.0972C32.6658 35.0972 32.6658 35.0972 32.6658 35.0972V35.0972C32.6658 35.0972 32.6658 35.0972 32.6658 35.0972C32.6658 35.0972 32.6658 35.0972 32.6658 35.0972V35.0972C32.6658 35.0972 32.6658 35.0972 32.6658 35.0972C32.6658 35.0972 32.6658 35.0972 32.6658 35.0972C32.6658 35.0972 32.6658 35.0972 32.6658 35.0972V35.0972C32.6658 35.0972 32.6658 35.0972 32.6658 35.0972C32.6658 35.0972 32.6658 35.0972 32.6658 35.0972V35.0972C32.6658 35.0972 32.6658 35.0972 32.6658 35.0972C32.6658 35.0972 32.6658 35.0972 32.6658 35.0972V35.0972C32.6658 35.0972 32.6658 35.0972 32.6658 35.0972C32.6658 35.0972 32.6658 35.0972 32.6658 35.0972V35.0972C32.6658 35.0972 32.6658 35.0972 32.6658 35.0972C32.6658 35.0972 32.6658 35.0972 32.6658 35.0972V35.0972C32.6658 35.0972 32.6658 35.0972 32.6658 35.0972C32.6658 35.0972 32.6658 35.0972 32.6658 35.0972V35.0972C32.6658 35.0972 32.6658 35.0972 32.6658 35.0972C32.6658 35.0972 32.6658 35.0972 32.6658 35.0972L32.6658 35.0972C32.6658 35.0972 32.6658 35.0972 32.6658 35.0972C32.6658 35.0972 32.6658 35.0972 32.6658 35.0972V35.0972C32.6658 35.0972 32.6658 35.0972 32.6658 35.0972C32.6658 35.0972 32.6658 35.0972 32.6658 35.0972V35.0972C32.6658 35.0972 32.6658 35.0972 32.6658 35.0972C32.6658 35.0972 32.6658 35.0972 32.6658 35.0972V35.0972C32.6658 35.0972 32.6658 35.0972 32.6658 35.0972C32.6658 35.0972 32.6658 35.0972 32.6658 35.0972V35.0972C32.6658 35.0972 32.6658 35.0972 32.6658 35.0972C32.6658 35.0972 32.6658 35.0972 32.6658 35.0972C32.6658 35.0972 32.6658 35.0972 32.6658 35.0972V35.0972C32.6658 35.0972 32.6658 35.0972 32.6658 35.0972C32.6658 35.0972 32.6658 35.0972 32.6658 35.0972V35.0972C32.6658 35.0972 32.6658 35.0972 32.6658 35.0972C32.6658 35.0972 32.6658 35.0972 32.6658 35.0972V35.0972C32.6658 35.0972 32.6658 35.0972 32.6658 35.0972C32.6658 35.0972 32.6658 35.0972 32.6658 35.0972V35.0972C32.6658 35.0972 32.6658 35.0972 32.6658 35.0972C32.6658 35.0972 32.6658 35.0972 32.6658 35.0972V35.0972C32.6658 35.0972 32.6658 35.0972 32.6658 35.0972C32.6658 35.0972 32.6658 35.0972 32.6658 35.0972V35.0972C32.6658 35.0972 32.6658 35.0972 32.6658 35.0972C32.6658 35.0972 32.6658 35.0972 32.6658 35.0972V35.0972C32.6658 35.0972 32.6658 35.0972 32.6658 35.0972C32.6658 35.0972 32.6658 35.0972 32.6658 35.0972V35.0972C32.6658 35.0972 32.6658 35.0972 32.6658 35.0972C32.6658 35.0972 32.6658 35.0972 32.6658 35.0972V35.0972C32.6658 35.0972 32.6658 35.0972 32.6658 35.0972C32.6658 35.0972 32.6658 35.0972 32.6658 35.0972C32.6658 35.0972 32.6658 35.0972 32.6658 35.0972V35.0972C32.6658 35.0972 32.6658 35.0972 32.6658 35.0972C32.6658 35.0972 32.6658 35.0972 32.6658 35.0972V35.0972C32.6658 35.0972 32.6658 35.0972 32.6658 35.0972C32.6658 35.0972 32.6658 35.0972 32.6658 35.0972V35.0972C32.6658 35.0972 32.6658 35.0972 32.6658 35.0972C32.6658 35.0972 32.6658 35.0972 32.6658 35.0972V35.0972C32.6658 35.0972 32.6658 35.0972 32.6658 35.0972C32.6658 35.0972 32.6658 35.0972 32.6658 35.0972V35.0972C32.6658 35.0972 32.6658 35.0972 32.6658 35.0972C32.6658 35.0972 32.6658 35.0972 32.6658 35.0972V35.0972C32.6658 35.0972 32.6658 35.0972 32.6658 35.0972C32.6658 35.0972 32.6658 35.0972 32.6658 35.0972C32.6658 35.0972 32.6658 35.0972 32.6658 35.0972C32.6658 35.0972 32.6658 35.0972 32.6658 35.0972C32.6658 35.0972 32.6658 35.0972 32.6658 35.0972V35.0972C32.6658 35.0972 32.6658 35.0972 32.6658 35.0972C32.6658 35.0972 32.6658 35.0972 32.6658 35.0972C32.6658 35.0972 32.6658 35.0972 32.6658 35.0972V35.0972C32.6658 35.0972 32.6658 35.0972 32.6658 35.0972C32.6658 35.0972 32.6658 35.0972 32.6658 35.0972V35.0972C32.6658 35.0972 32.6658 35.0972 32.6658 35.0972C32.6658 35.0972 32.6658 35.0972 32.6658 35.0972V35.0972C32.6658 35.0972 32.6658 35.0972 32.6658 35.0972C32.6658 35.0972 32.6658 35.0972 32.6658 35.0972V35.0972C32.6658 35.0972 32.6658 35.0972 32.6658 35.0972C32.6658 35.0972 32.6658 35.0972 32.6658 35.0972V35.0972C32.6658 35.0972 32.6658 35.0972 32.6658 35.0972C32.6658 35.0972 32.6658 35.0972 32.6658 35.0972V35.0972C32.6658 35.0972 32.6658 35.0972 32.6658 35.0972C32.6658 35.0972 32.6658 35.0972 32.6658 35.0972V35.0972C32.6658 35.0972 32.6658 35.0972 32.6658 35.0972C32.6658 35.0972 32.6658 35.0972 32.6658 35.0972V35.0972C32.6658 35.0972 32.6658 35.0972 32.6658 35.0972C32.6658 35.0972 32.6658 35.0972 32.6658 35.0972V35.0972C32.6658 35.0972 32.6658 35.0972 32.6658 35.0972C32.6658 35.0972 32.6658 35.0972 32.6658 35.0972V35.0972C32.6658 35.0972 32.6658 35.0972 32.6658 35.0972C32.6658 35.0972 32.6658 35.0972 32.6658 35.0972V35.0972C32.6658 35.0972 32.6658 35.0972 32.6658 35.0972C32.6658 35.0972 32.6658 35.0972 32.6658 35.0972V35.0972C32.6658 35.0972 32.6658 35.0972 32.6658 35.0972C32.6658 35.0972 32.6658 35.0972 32.6658 35.0972V35.0972C32.6658 35.0972 32.6658 35.0972 32.6658 35.0972C32.6658 35.0972 32.6658 35.0972 32.6658 35.0972V35.0972C32.6658 35.0972 32.6658 35.0972 32.6658 35.0972C32.6658 35.0972 32.6658 35.0972 32.6658 35.0972V35.0972C32.6658 35.0972 32.6658 35.0972 32.6658 35.0972C32.6658 35.0972 32.6658 35.0972 32.6658 35.0972V35.0972C32.6658 35.0972 32.6658 35.0972 32.6658 35.0972C32.6658 35.0972 32.6658 35.0972 32.6658 35.0972V35.0972V35.0972C32.6658 35.0972 32.6658 35.0972 32.6658 35.0972C32.6658 35.0972 32.6658 35.0972 32.6658 35.0972V35.0972C32.6658 35.0972 32.6658 35.0972 32.6658 35.0972C32.6658 35.0972 32.6658 35.0972 32.6658 35.0972C32.6658 35.0972 32.6658 35.0972 32.6658 35.0972V35.0972C32.6658 35.0972 32.6658 35.0972 32.6658 35.0972C32.6658 35.0972 32.6658 35.0972 32.6658 35.0972V35.0972C32.6658 35.0972 32.6658 35.0972 32.6658 35.0972C32.6658 35.0972 32.6658 35.0972 32.6658 35.0972V35.0972C32.6658 35.0972 32.6658 35.0972 32.6658 35.0972C32.6658 35.0972 32.6658 35.0972 32.6658 35.0972V35.0972C32.6658 35.0972 32.6658 35.0972 32.6658 35.0972C32.6658 35.0972 32.6658 35.0972 32.6658 35.0972V35.0972C32.6658 35.0972 32.6658 35.0972 32.6658 35.0972C32.6658 35.0972 32.6658 35.0972 32.6658 35.0972V35.0972C32.6658 35.0972 32.6658 35.0972 32.6658 35.0972C32.6658 35.0972 32.6658 35.0972 32.6658 35.0972V35.0972C32.6658 35.0972 32.6658 35.0972 32.6658 35.0972C32.6658 35.0972 32.6658 35.0972 32.6658 35.0972V35.0972C32.6658 35.0972 32.6658 35.0972 32.6658 35.0972C32.6658 35.0972 32.6658 35.0972 32.6658 35.0972V35.0972C32.6658 35.0972 32.6658 35.0972 32.6658 35.0972C32.6658 35.0972 32.6658 35.0972 32.6658 35.0972V35.0972C32.6658 35.0972 32.6658 35.0972 32.6658 35.0972C32.6658 35.0972 32.6658 35.0972 32.6658 35.0972V35.0972C32.6658 35.0972 32.6658 35.0972 32.6658 35.0972C32.6658 35.0972 32.6658 35.0972 32.6658 35.0972V35.0972C32.6658 35.0972 32.6658 35.0972 32.6658 35.0972C32.6658 35.0972 32.6658 35.0972 32.6658 35.0972V35.0972C32.6658 35.0972 32.6658 35.0972 32.6658 35.0972C32.6658 35.0972 32.6658 35.0972 32.6658 35.0972V35.0972C32.6658 35.0972 32.6658 35.0972 32.6658 35.0972C32.6658 35.0972 32.6658 35.0972 32.6658 35.0972V35.0972C32.6658 35.0972 32.6658 35.0972 32.6658 35.0972C32.6658 35.0972 32.6658 35.0972 32.6658 35.0972C32.6658 35.0972 32.6658 35.0972 32.6658 35.0972V35.0972C32.6658 35.0972 32.6658 35.0972 32.6658 35.0972C32.6658 35.0972 32.6658 35.0972 32.6658 35.0972V35.0972C32.6658 35.0972 32.6658 35.0972 32.6658 35.0972C32.6658 35.0972 32.6658 35.0972 32.6658 35.0972V35.0972C32.6658 35.0972 32.6658 35.0972 32.6658 35.0972C32.6658 35.0972 32.6658 35.0972 32.6658 35.0972V35.0972C32.6658 35.0972 32.6658 35.0972 32.6658 35.0972C32.6658 35.0972 32.6658 35.0972 32.6658 35.0972V35.0972C32.6658 35.0972 32.6658 35.0972 32.6658 35.0972C32.6658 35.0972 32.6658 35.0972 32.6658 35.0972H32.6657V35.0972C32.6657 35.0972 32.6657 35.0972 32.6657 35.0972C32.6657 35.0972 32.6657 35.0972 32.6657 35.0972V35.0972C32.6657 35.0972 32.6657 35.0972 32.6657 35.0972C32.6657 35.0972 32.6657 35.0972 32.6657 35.0972V35.0972C32.6657 35.0972 32.6657 35.0972 32.6657 35.0972C32.6657 35.0972 32.6657 35.0972 32.6657 35.0972V35.0972C32.6657 35.0972 32.6657 35.0972 32.6657 35.0972C32.6657 35.0972 32.6657 35.0972 32.6657 35.0972V35.0972C32.6657 35.0972 32.6657 35.0972 32.6657 35.0972C32.6657 35.0972 32.6657 35.0972 32.6657 35.0972V35.0972C32.6657 35.0972 32.6657 35.0972 32.6657 35.0972C32.6657 35.0972 32.6657 35.0972 32.6657 35.0972V35.0972C32.6657 35.0972 32.6657 35.0972 32.6657 35.0972C32.6657 35.0972 32.6657 35.0972 32.6657 35.0972V35.0972C32.6657 35.0972 32.6657 35.0972 32.6657 35.0972C32.6657 35.0972 32.6657 35.0972 32.6657 35.0972V35.0972C32.6657 35.0972 32.6657 35.0972 32.6657 35.0972C32.6657 35.0972 32.6657 35.0972 32.6657 35.0972V35.0972C32.6657 35.0972 32.6657 35.0972 32.6657 35.0972C32.6657 35.0972 32.6657 35.0972 32.6657 35.0972V35.0972C32.6657 35.0972 32.6657 35.0972 32.6657 35.0972C32.6657 35.0972 32.6657 35.0972 32.6657 35.0972V35.0972C32.6657 35.0972 32.6657 35.0972 32.6657 35.0972C32.6657 35.0972 32.6657 35.0972 32.6657 35.0972C32.6657 35.0972 32.6657 35.0972 32.6657 35.0972V35.0972C32.6657 35.0972 32.6657 35.0972 32.6657 35.0972C32.6657 35.0972 32.6657 35.0972 32.6657 35.0972C32.6657 35.0972 32.6657 35.0972 32.6657 35.0972C32.6657 35.0972 32.6657 35.0972 32.6657 35.0972C32.6657 35.0972 32.6657 35.0972 32.6657 35.0972V35.0972C32.6657 35.0972 32.6657 35.0972 32.6657 35.0972C32.6657 35.0972 32.6657 35.0972 32.6657 35.0972V35.0972C32.6657 35.0972 32.6657 35.0972 32.6657 35.0972C32.6657 35.0972 32.6657 35.0972 32.6657 35.0972V35.0972C32.6657 35.0972 32.6657 35.0972 32.6657 35.0972C32.6657 35.0972 32.6657 35.0972 32.6657 35.0972V35.0972C32.6657 35.0972 32.6657 35.0972 32.6657 35.0972C32.6657 35.0972 32.6657 35.0972 32.6657 35.0972V35.0972C32.6657 35.0972 32.6657 35.0972 32.6657 35.0972C32.6657 35.0972 32.6657 35.0972 32.6657 35.0972V35.0972C32.6657 35.0972 32.6657 35.0972 32.6657 35.0972C32.6657 35.0972 32.6657 35.0972 32.6657 35.0972C32.6657 35.0972 32.6657 35.0972 32.6657 35.0972C32.6657 35.0972 32.6657 35.0972 32.6657 35.0972L27.9446 38.8C27.9446 38.8 27.9446 38.8 27.9446 38.8H27.9446V38.8C27.9446 38.8 27.9446 38.8 27.9446 38.8C27.9446 38.8 27.9446 38.8 27.9446 38.8H27.9446V38.8C27.9446 38.8 27.9446 38.8 27.9446 38.8C27.9446 38.8 27.9446 38.8 27.9446 38.8C27.9446 38.8 27.9446 38.8 27.9446 38.8V38.8C27.9446 38.8 27.9446 38.8 27.9446 38.8C27.9446 38.8 27.9446 38.8 27.9446 38.8C27.9446 38.8 27.9446 38.8 27.9446 38.8V38.8C27.9446 38.8 27.9446 38.8 27.9446 38.8C27.9446 38.8 27.9446 38.8 27.9446 38.8C27.9446 38.8 27.9446 38.8 27.9446 38.8C27.9446 38.8 27.9446 38.8 27.9446 38.8C27.9446 38.8 27.9446 38.8 27.9446 38.8V38.8C27.9446 38.8 27.9446 38.8 27.9446 38.8C27.9446 38.8 27.9446 38.8 27.9446 38.8C27.9446 38.8 27.9446 38.8 27.9446 38.8V38.8C27.9446 38.8001 27.9446 38.8001 27.9446 38.8001C27.9446 38.8001 27.9446 38.8001 27.9446 38.8001C27.9446 38.8001 27.9446 38.8001 27.9446 38.8001V38.8001C27.9446 38.8001 27.9446 38.8001 27.9446 38.8001C27.9446 38.8001 27.9446 38.8001 27.9446 38.8001V38.8001C27.9446 38.8001 27.9446 38.8001 27.9446 38.8001C27.9446 38.8001 27.9446 38.8001 27.9446 38.8001C27.9446 38.8001 27.9446 38.8001 27.9446 38.8001C27.9446 38.8001 27.9446 38.8001 27.9446 38.8001C27.9446 38.8001 27.9446 38.8001 27.9446 38.8001V38.8001C27.9446 38.8001 27.9446 38.8001 27.9446 38.8001C27.9446 38.8001 27.9446 38.8001 27.9446 38.8001C27.9446 38.8001 27.9446 38.8001 27.9446 38.8001V38.8001C27.9446 38.8001 27.9446 38.8001 27.9446 38.8001H27.9446C27.9446 38.8001 27.9446 38.8001 27.9446 38.8001V38.8001H27.9446C27.9446 38.8001 27.9446 38.8001 27.9446 38.8001C27.9446 38.8001 27.9446 38.8001 27.9446 38.8001V38.8001H27.9446C27.9446 38.8001 27.9446 38.8001 27.9446 38.8001C27.9446 38.8001 27.9446 38.8001 27.9446 38.8001H27.9446C27.9446 38.8001 27.9446 38.8001 27.9446 38.8001V38.8001C27.9446 38.8001 27.9446 38.8001 27.9446 38.8001H27.9446C27.9446 38.8001 27.9446 38.8001 27.9446 38.8001V38.8001C27.9446 38.8001 27.9446 38.8001 27.9446 38.8001C27.9446 38.8001 27.9446 38.8001 27.9446 38.8001C27.9446 38.8001 27.9446 38.8001 27.9446 38.8001V38.8001C27.9446 38.8001 27.9446 38.8001 27.9446 38.8001C27.9446 38.8001 27.9446 38.8001 27.9446 38.8001C27.9446 38.8001 27.9446 38.8001 27.9446 38.8001C27.9446 38.8001 27.9446 38.8001 27.9446 38.8001C27.9446 38.8001 27.9446 38.8001 27.9446 38.8001C27.9446 38.8001 27.9446 38.8001 27.9446 38.8001C27.9446 38.8001 27.9446 38.8001 27.9446 38.8001C27.9446 38.8001 27.9446 38.8001 27.9446 38.8001V38.8001C27.9446 38.8001 27.9446 38.8001 27.9446 38.8001C27.9446 38.8001 27.9446 38.8001 27.9446 38.8001V38.8001C27.9446 38.8001 27.9446 38.8001 27.9446 38.8001C27.9446 38.8001 27.9446 38.8001 27.9446 38.8001C27.9446 38.8001 27.9446 38.8001 27.9446 38.8001V38.8001C27.9446 38.8001 27.9446 38.8001 27.9446 38.8001C27.9446 38.8001 27.9446 38.8001 27.9446 38.8001C27.9446 38.8001 27.9446 38.8001 27.9446 38.8001C27.9446 38.8001 27.9446 38.8001 27.9446 38.8001V38.8001V38.8001C27.9446 38.8001 27.9446 38.8001 27.9446 38.8001C27.9446 38.8001 27.9446 38.8001 27.9446 38.8001C27.9446 38.8001 27.9446 38.8001 27.9446 38.8001V38.8001C27.9446 38.8001 27.9446 38.8001 27.9446 38.8001C27.9446 38.8001 27.9446 38.8001 27.9446 38.8001C27.9446 38.8001 27.9446 38.8001 27.9446 38.8001V38.8001H27.9446C27.9446 38.8001 27.9446 38.8001 27.9446 38.8001C27.9446 38.8001 27.9446 38.8001 27.9446 38.8001L27.9447 38.8001C27.9447 38.8001 27.9447 38.8001 27.9447 38.8001C27.9447 38.8001 27.9447 38.8001 27.9447 38.8001H27.9447V38.8001V38.8001L32.6658 35.0972ZM30.1723 40.065C30.439 39.9983 30.7062 39.9344 30.9739 39.8732L29.6366 34.0241C29.3295 34.0943 29.023 34.1677 28.7171 34.2441L30.1723 40.065ZM31.063 38.9243C31.063 39.4638 30.6958 39.9341 30.1723 40.065L28.7171 34.2441C26.5696 34.781 25.063 36.7106 25.063 38.9243H31.063ZM31.063 41.3241V38.9243H25.063V41.3241H31.063ZM29.7599 40.0238C30.457 40.0246 31.063 40.5801 31.063 41.3241H25.063C25.063 43.9889 27.2377 46.0209 29.753 46.0238L29.7599 40.0238ZM31.9996 45.0516L32.2167 44.7406L27.2962 41.3071L27.0791 41.6182L31.9996 45.0516ZM30.2399 53.4704C29.655 50.5416 30.2906 47.5009 31.9996 45.0517L27.0792 41.6182C24.4345 45.4082 23.451 50.1134 24.3561 54.6454L30.2399 53.4704ZM30.6564 55.556L30.2399 53.4704L24.3561 54.6454L24.7726 56.731L30.6564 55.556ZM33.8266 60.8838C32.2053 59.5336 31.0764 57.659 30.6564 55.556L24.7726 56.731C25.4636 60.1908 27.3207 63.274 29.987 65.4944L33.8266 60.8838ZM29.7408 65.3635C30.2801 65.8353 30.9406 66.1106 31.6222 66.1756L32.1914 60.2026C32.7402 60.2549 33.2681 60.4772 33.6918 60.848L29.7408 65.3635ZM15.3787 52.7966L29.7408 65.3635L33.6918 60.848L19.3297 48.2812L15.3787 52.7966ZM11.2808 43.7657C11.2808 47.226 12.7745 50.518 15.3787 52.7966L19.3297 48.2812C18.0276 47.1418 17.2808 45.4959 17.2808 43.7657H11.2808ZM11.2808 42.5619V43.7657H17.2808V42.5619H11.2808ZM14.7844 34.1033C12.5411 36.3467 11.2808 39.3893 11.2808 42.5619H17.2808C17.2808 40.9806 17.9089 39.4641 19.0271 38.3459L14.7844 34.1033ZM23.2431 30.5996C20.0705 30.5996 17.0278 31.8599 14.7844 34.1033L19.0271 38.3459C20.1452 37.2278 21.6618 36.5996 23.2431 36.5996V30.5996ZM23.3185 30.5996H23.2431V36.5996H23.3185V30.5996ZM31.7771 34.1033C29.5337 31.8599 26.4911 30.5996 23.3185 30.5996V36.5996C24.8998 36.5996 26.4163 37.2278 27.5344 38.3459L31.7771 34.1033ZM47.2707 44.6344L47.5619 45.0516L52.4824 41.6182L52.1912 41.2009L47.2707 44.6344ZM47.5619 45.0517C49.271 47.5009 49.9065 50.5416 49.3216 53.4704L55.2054 54.6454C56.1105 50.1134 55.127 45.4082 52.4824 41.6182L47.5619 45.0517ZM49.3216 53.4704L48.9051 55.556L54.7889 56.731L55.2054 54.6454L49.3216 53.4704ZM48.9051 55.556C48.4851 57.659 47.3562 59.5336 45.735 60.8838L49.5745 65.4944C52.2409 63.274 54.0979 60.1908 54.7889 56.731L48.9051 55.556ZM47.9393 66.1756C48.6209 66.1106 49.2815 65.8353 49.8207 65.3635L45.8697 60.848C46.2934 60.4772 46.8213 60.2549 47.3702 60.2026L47.9393 66.1756ZM49.8207 65.3635L64.1828 52.7966L60.2318 48.2812L45.8697 60.848L49.8207 65.3635ZM64.1828 52.7966C66.787 50.518 68.2808 47.226 68.2808 43.7657H62.2808C62.2808 45.4959 61.5339 47.1418 60.2318 48.2812L64.1828 52.7966ZM68.2808 43.7657V42.5619H62.2808V43.7657H68.2808ZM68.2808 42.5619C68.2808 39.3893 67.0205 36.3467 64.7771 34.1033L60.5344 38.3459C61.6526 39.4641 62.2808 40.9806 62.2808 42.5619H68.2808ZM64.7771 34.1033C62.5337 31.8599 59.4911 30.5996 56.3185 30.5996V36.5996C57.8998 36.5996 59.4163 37.2278 60.5344 38.3459L64.7771 34.1033ZM56.3185 30.5996H56.2431V36.5996H56.3185V30.5996ZM56.2431 30.5996C53.388 30.5996 50.6383 31.6202 48.4815 33.4594L52.3746 38.0249C53.4495 37.1083 54.8201 36.5996 56.2431 36.5996V30.5996ZM47.5245 34.9874L47.1942 36.2582L53.0013 37.7677L53.3316 36.4969L47.5245 34.9874ZM49.4101 39.9331C49.5915 39.9758 49.7727 40.0198 49.9536 40.065L51.4088 34.2441C51.2013 34.1922 50.9935 34.1418 50.7854 34.0928L49.4101 39.9331ZM49.9536 40.065C49.4302 39.9341 49.063 39.4638 49.063 38.9243H55.063C55.063 36.7106 53.5564 34.781 51.4088 34.2441L49.9536 40.065ZM49.063 38.9243V41.3241H55.063V38.9243H49.063ZM49.063 41.3241C49.063 40.4776 49.8585 39.8565 50.6796 40.0618L49.2244 45.8827C52.1901 46.6241 55.063 44.3811 55.063 41.3241H49.063ZM50.6796 40.0618C50.6006 40.0421 50.5215 40.0225 50.4423 40.0032L49.0196 45.8321C49.0879 45.8488 49.1562 45.8656 49.2244 45.8827L50.6796 40.0618Z" fill="currentColor" />
  <path d="M29.5572 43.335L32.0175 45.0517L32.0175 45.0517L29.5572 43.335ZM29.7747 43.0233L29.7456 40.0234C28.7754 40.0328 27.8697 40.5109 27.3145 41.3065L29.7747 43.0233ZM27.3158 54.058L30.2577 53.4704L27.3158 54.058ZM27.7323 56.1436L24.7904 56.7311L27.7323 56.1436ZM33.8657 64.5135L35.3122 61.8853L33.8657 64.5135ZM45.7314 64.5135L47.1779 67.1418H47.1779L45.7314 64.5135ZM51.8648 56.1436L48.9229 55.556V55.556L51.8648 56.1436ZM52.2814 54.058L55.2233 54.6455V54.6455L52.2814 54.058ZM50.04 43.335L47.5797 45.0517V45.0517L50.04 43.335ZM49.752 42.9223L52.2122 41.2056C51.7948 40.6073 51.1735 40.1816 50.4649 40.0083L49.752 42.9223ZM30.1739 42.9718L29.4463 40.0614L29.4463 40.0614L30.1739 42.9718ZM32.0175 45.0517L32.235 44.74L27.3145 41.3065L27.097 41.6183L32.0175 45.0517ZM30.2577 53.4704C29.6728 50.5416 30.3084 47.501 32.0175 45.0517L27.097 41.6183C24.4523 45.4083 23.4688 50.1135 24.3739 54.6455L30.2577 53.4704ZM30.6743 55.556L30.2577 53.4704L24.3739 54.6455L24.7904 56.7311L30.6743 55.556ZM35.3122 61.8853C32.9088 60.5625 31.2115 58.2464 30.6743 55.556L24.7904 56.7311C25.6742 61.1563 28.4659 64.9659 32.4192 67.1418L35.3122 61.8853ZM44.2849 61.8853C41.4916 63.4227 38.1056 63.4227 35.3122 61.8853L32.4192 67.1418C37.0138 69.6705 42.5833 69.6705 47.1779 67.1418L44.2849 61.8853ZM48.9229 55.556C48.3856 58.2464 46.6884 60.5625 44.2849 61.8853L47.1779 67.1418C51.1313 64.9659 53.923 61.1563 54.8067 56.7311L48.9229 55.556ZM49.3394 53.4704L48.9229 55.556L54.8067 56.7311L55.2233 54.6455L49.3394 53.4704ZM47.5797 45.0517C49.2888 47.501 49.9244 50.5417 49.3394 53.4704L55.2233 54.6455C56.1284 50.1135 55.1449 45.4083 52.5002 41.6183L47.5797 45.0517ZM47.2917 44.6391L47.5797 45.0517L52.5002 41.6183L52.2122 41.2056L47.2917 44.6391ZM50.4649 40.0083C43.5595 38.3189 36.3453 38.3366 29.4463 40.0614L30.9015 45.8822C36.8549 44.3939 43.0802 44.3786 49.0391 45.8364L50.4649 40.0083ZM29.4463 40.0614C29.5413 40.0376 29.6421 40.0244 29.7456 40.0234L29.8038 46.0231C30.1698 46.0196 30.538 45.9731 30.9015 45.8822L29.4463 40.0614Z" fill="currentColor" />
  <path d="M52.6737 27.1025L49.7702 26.3477L49.7702 26.3477L52.6737 27.1025ZM54.6892 19.3486L57.5927 20.1034C57.93 18.8058 57.3654 17.442 56.2097 16.7625C55.054 16.083 53.5877 16.2528 52.6179 17.1784L54.6892 19.3486ZM52.3104 28.5L55.2139 29.2547L55.2139 29.2547L52.3104 28.5ZM50.0976 37.013L49.41 39.9331C50.9965 40.3067 52.5911 39.3452 53.0011 37.7677L50.0976 37.013ZM29.9091 37.0411L27.0056 37.7958C27.4164 39.3765 29.0162 40.3381 30.6049 39.9593L29.9091 37.0411ZM27.689 28.5L30.5925 27.7453L30.5925 27.7453L27.689 28.5ZM27.3257 27.1025L24.4222 27.8572L24.4222 27.8572L27.3257 27.1025ZM25.3105 19.35L27.3818 17.1798C26.412 16.2542 24.9457 16.0844 23.79 16.7639C22.6343 17.4434 22.0698 18.8072 22.407 20.1047L25.3105 19.35ZM31.4999 25.2572L29.4286 27.4274C30.3065 28.2653 31.6028 28.4918 32.7128 28.0011L31.4999 25.2572ZM36.663 22.9748L37.876 25.7187C38.5981 25.3995 39.1653 24.8084 39.4545 24.0737L36.663 22.9748ZM39.9991 14.5L42.7906 13.4011C42.3391 12.2541 41.2319 11.5 39.9991 11.5C38.7664 11.5 37.6592 12.2541 37.2076 13.4011L39.9991 14.5ZM43.335 22.9742L40.5435 24.0731C40.8327 24.8078 41.3999 25.3989 42.1221 25.7181L43.335 22.9742ZM48.4988 25.2569L47.2858 28.0008C48.3958 28.4914 49.6921 28.265 50.57 27.4271L48.4988 25.2569ZM55.5772 27.8572L57.5927 20.1034L51.7857 18.5939L49.7702 26.3477L55.5772 27.8572ZM55.2139 29.2547L55.5772 27.8572L49.7702 26.3477L49.4069 27.7453L55.2139 29.2547ZM53.0011 37.7677L55.2139 29.2547L49.4069 27.7453L47.1941 36.2582L53.0011 37.7677ZM30.6049 39.9593C36.786 38.4855 43.2257 38.4768 49.41 39.9331L50.7852 34.0928C43.6911 32.4223 36.3039 32.4323 29.2133 34.1229L30.6049 39.9593ZM24.7854 29.2547L27.0056 37.7958L32.8126 36.2864L30.5925 27.7453L24.7854 29.2547ZM24.4222 27.8572L24.7854 29.2547L30.5925 27.7453L30.2292 26.3477L24.4222 27.8572ZM22.407 20.1047L24.4222 27.8572L30.2292 26.3477L28.2141 18.5953L22.407 20.1047ZM33.5712 23.087L27.3818 17.1798L23.2393 21.5202L29.4286 27.4274L33.5712 23.087ZM35.4501 20.231L30.2869 22.5134L32.7128 28.0011L37.876 25.7187L35.4501 20.231ZM37.2076 13.4011L33.8715 21.876L39.4545 24.0737L42.7906 15.5989L37.2076 13.4011ZM46.1265 21.8754L42.7906 13.4011L37.2076 15.5989L40.5435 24.0731L46.1265 21.8754ZM49.7117 22.513L44.5479 20.2304L42.1221 25.7181L47.2858 28.0008L49.7117 22.513ZM52.6179 17.1784L46.4275 23.0867L50.57 27.4271L56.7605 21.5188L52.6179 17.1784Z" fill="currentColor" />
  <path d="M28.063 38.9243C28.063 38.0872 28.6327 37.3576 29.4447 37.1546V37.1546C36.4163 35.4117 43.7097 35.4117 50.6812 37.1546V37.1546C51.4933 37.3576 52.063 38.0872 52.063 38.9243V41.3241C52.063 42.4293 51.0243 43.2403 49.952 42.9723V42.9723C43.4592 41.3491 36.6667 41.3491 30.1739 42.9723V42.9723C29.1017 43.2403 28.063 42.4293 28.063 41.3241V38.9243Z" stroke="currentColor" stroke-width="6" stroke-linecap="round" stroke-linejoin="round" />
</svg>