<svg viewBox="0 0 80 80" fill="none">
  <path d="M12 14C12 12.8954 12.8954 12 14 12H34C35.1046 12 36 12.8954 36 14V17.5L28 17.5C26.6193 17.5 25.5 18.6193 25.5 20C25.5 21.3807 26.6193 22.5 28 22.5L36 22.5V26.5L28 26.5C26.6193 26.5 25.5 27.6193 25.5 29C25.5 30.3807 26.6193 31.5 28 31.5H36V35.5H28C26.6193 35.5 25.5 36.6193 25.5 38C25.5 39.3807 26.6193 40.5 28 40.5H35.9645L12 64.4645V14Z" fill="currentColor" />
  <path d="M15.5355 68L66 68C67.1046 68 68 67.1046 68 66L68 46C68 44.8954 67.1046 44 66 44H62.5L62.5 52C62.5 53.3807 61.3807 54.5 60 54.5C58.6193 54.5 57.5 53.3807 57.5 52L57.5 44H53.5L53.5 52C53.5 53.3807 52.3807 54.5 51 54.5C49.6193 54.5 48.5 53.3807 48.5 52L48.5 44H44.5L44.5 52C44.5 53.3807 43.3807 54.5 42 54.5C40.6193 54.5 39.5 53.3807 39.5 52L39.5 44.0355L15.5355 68Z" fill="currentColor" />
</svg>