<svg width="80" height="80" viewBox="0 0 80 80" fill="none" xmlns="http://www.w3.org/2000/svg">
  <path fill-rule="evenodd" clip-rule="evenodd" d="M8 13.004C8 11.2222 10.1543 10.3299 11.4142 11.5898L20.3245 20.5001C20.2665 20.5485 20.2102 20.5999 20.1557 20.6544L16.6505 24.1596C15.6742 25.1359 15.6742 26.7188 16.6505 27.6951C17.6268 28.6714 19.2098 28.6714 20.1861 27.6951L23.6912 24.1899C23.7457 24.1355 23.7971 24.0791 23.8455 24.0211L29.0936 29.2692C29.0356 29.3176 28.9793 29.369 28.9248 29.4235L24.7737 33.5746C23.7974 34.5509 23.7974 36.1338 24.7737 37.1101C25.75 38.0864 27.3329 38.0864 28.3092 37.1101L32.4603 32.959C32.5148 32.9046 32.5662 32.8482 32.6146 32.7902L37.8628 38.0383C37.8047 38.0867 37.7484 38.1381 37.6939 38.1926L34.1888 41.6978C33.2124 42.6741 33.2124 44.257 34.1888 45.2333C35.1651 46.2096 36.748 46.2096 37.7243 45.2333L41.2295 41.7281C41.2839 41.6737 41.3353 41.6173 41.3837 41.5593L46.6319 46.8074C46.5738 46.8558 46.5175 46.9073 46.463 46.9617L42.3119 51.1128C41.3356 52.0891 41.3356 53.672 42.3119 54.6484C43.2882 55.6247 44.8712 55.6247 45.8475 54.6484L49.9986 50.4973C50.053 50.4428 50.1045 50.3864 50.1528 50.3284L55.401 55.5766C55.343 55.6249 55.2866 55.6764 55.2321 55.7308L51.727 59.236C50.7507 60.2123 50.7507 61.7952 51.727 62.7715C52.7033 63.7478 54.2862 63.7478 55.2625 62.7715L58.7677 59.2664C58.8221 59.2119 58.8736 59.1556 58.9219 59.0975L68.5858 68.7614C69.8457 70.0213 68.9534 72.1756 67.1716 72.1756H10C8.89543 72.1756 8 71.2802 8 70.1756V13.004ZM21 46.004C21 44.2222 23.1543 43.3299 24.4142 44.5898L35.5858 55.7614C36.8457 57.0213 35.9534 59.1756 34.1716 59.1756H23C21.8954 59.1756 21 58.2802 21 57.1756V46.004Z" fill="currentColor" />
</svg>