<svg viewBox="0 0 80 80" fill="none">
  <path fill-rule="evenodd" clip-rule="evenodd" d="M32.4804 41.0078L29.0732 48.6289C28.9723 48.8548 28.7479 49.0002 28.5005 49.0002H22.5005C20.2913 49.0002 18.5005 50.7911 18.5005 53.0002C18.5005 55.2094 20.2913 57.0002 22.5005 57.0002H28.5005C31.9031 57.0002 34.9878 55.0003 36.3766 51.894L37.7453 48.8324L36.536 48.3963C33.456 47.2856 31.788 44.0703 32.4804 41.0078Z" fill="currentColor" />
  <path fill-rule="evenodd" clip-rule="evenodd" d="M38.3383 24.8379C40.391 24.1537 42.6102 24.1537 44.6629 24.8379L45.641 25.1639C48.8844 26.2451 51.3507 28.9083 52.18 32.2251L53.0325 35.6347C53.0862 35.8495 53.2792 36.0002 53.5006 36.0002H56.5006C58.7097 36.0002 60.5006 37.791 60.5006 40.0002C60.5006 42.2093 58.7097 44.0002 56.5006 44.0002H53.5006C50.3191 44.0002 47.4714 42.2304 46.0218 39.5219L44.6542 42.8198L46.1643 43.3644C51.0569 45.1288 53.7801 50.3491 52.4279 55.3713L50.363 63.0401C49.7887 65.1733 47.5938 66.437 45.4606 65.8626C43.3275 65.2882 42.0638 63.0933 42.6382 60.9602L44.703 53.2913C44.9735 52.2869 44.4288 51.2428 43.4503 50.89L37.9964 48.9231L36.535 48.3961C33.0294 47.1318 31.3531 43.1414 32.9042 39.7528L35.4272 34.241L30.7655 35.7949C28.6697 36.4935 26.4045 35.3608 25.7059 33.2651C25.0073 31.1693 26.1399 28.904 28.2357 28.2054L38.3383 24.8379Z" fill="currentColor" />
  <path d="M46.155 24.8705C47.6372 25.5843 49.3638 25.5843 50.846 24.8705C52.3282 24.1567 53.4047 22.8068 53.7708 21.2029C54.1368 19.599 53.7526 17.9157 52.7269 16.6295C51.7012 15.3433 50.1456 14.5942 48.5005 14.5942C46.8554 14.5942 45.2998 15.3433 44.2741 16.6295C43.2483 17.9157 42.8641 19.599 43.2302 21.2029C43.5963 22.8068 44.6728 24.1567 46.155 24.8705Z" fill="currentColor" stroke="currentColor" stroke-width="2" stroke-linecap="round" stroke-linejoin="round" />
</svg>