<svg width="80" height="80" viewBox="0 0 80 80" fill="none" xmlns="http://www.w3.org/2000/svg">
  <path d="M30.3652 60.5588L56.3652 15.5255" stroke="currentColor" stroke-width="5" stroke-linecap="round" stroke-linejoin="round" />
  <path d="M29.8643 61.4265C27.9313 64.7746 23.6502 65.9217 20.3022 63.9887V63.9887C16.9541 62.0557 15.807 57.7746 17.74 54.4265L18.74 52.6945C20.673 49.3464 24.9541 48.1993 28.3022 50.1323V50.1323C31.6502 52.0653 32.7973 56.3464 30.8643 59.6945L29.8643 61.4265Z" stroke="currentColor" stroke-width="5" stroke-linecap="round" stroke-linejoin="round" />
  <path d="M50.3638 60.5588L24.3638 15.5255" stroke="currentColor" stroke-width="5" stroke-linecap="round" stroke-linejoin="round" />
  <path d="M50.8647 61.4265C52.7977 64.7746 57.0788 65.9217 60.4268 63.9887V63.9887C63.7749 62.0557 64.922 57.7746 62.989 54.4265L61.989 52.6945C60.056 49.3464 55.7749 48.1993 52.4268 50.1323V50.1323C49.0788 52.0653 47.9317 56.3464 49.8647 59.6945L50.8647 61.4265Z" stroke="currentColor" stroke-width="5" stroke-linecap="round" stroke-linejoin="round" />
</svg>