<svg width="80" height="80" viewBox="0 0 80 80" fill="none" xmlns="http://www.w3.org/2000/svg">
  <path fill-rule="evenodd" clip-rule="evenodd" d="M29.0688 15.5967C22.494 17.3584 17.3584 22.494 15.5967 29.0688C13.8349 35.6437 15.7147 42.6591 20.5278 47.4722C25.341 52.2854 32.3563 54.1651 38.9312 52.4034C41.5388 51.7047 43.9195 50.4748 45.9537 48.8354L48.1906 51.0723C47.4887 52.8654 47.862 54.9821 49.3105 56.4309L62.039 69.1628C63.9909 71.1152 67.1561 71.1155 69.1082 69.1633C71.0601 67.2115 71.0603 64.047 69.1087 62.0949L56.3802 49.3631C54.9309 47.9133 52.8126 47.5399 51.0186 48.243L48.7884 46.0128C50.4516 43.9658 51.6979 41.5639 52.4034 38.9312C54.1651 32.3563 52.2854 25.341 47.4722 20.5278C42.6591 15.7147 35.6437 13.8349 29.0688 15.5967ZM33.9963 20.7417C31.7086 20.742 29.4201 21.334 27.3699 22.5177C23.2686 24.8856 20.742 29.2615 20.7417 33.9973C20.7417 35.1018 21.637 35.9973 22.7416 35.9974C23.8462 35.9974 24.7417 35.1021 24.7417 33.9975C24.7419 30.6907 26.5061 27.6352 29.3699 25.9818C30.8015 25.1552 32.3987 24.7419 33.9968 24.7417C35.1014 24.7416 35.9967 23.846 35.9966 22.7414C35.9964 21.6369 35.1009 20.7416 33.9963 20.7417Z" fill="currentColor" />
</svg>