<svg viewBox="0 0 80 80" fill="none">
  <path d="M40.6667 53.6667C40.6667 54.0349 40.3682 54.3334 40 54.3334C39.6318 54.3334 39.3333 54.0349 39.3333 53.6667C39.3333 53.2985 39.6318 53 40 53C40.3682 53 40.6667 53.2985 40.6667 53.6667Z" fill="currentColor" />
  <path fill-rule="evenodd" clip-rule="evenodd" d="M63.3291 36.1028C64.3862 30.1076 64.1843 24.0064 62.7891 18.1725C60.3637 16.7101 57.7887 15.4758 55.0945 14.4952C45.3439 10.9463 34.6547 10.9463 24.9041 14.4952C22.2103 15.4756 19.6358 16.7096 17.2109 18.1717C15.8155 24.0059 15.6134 30.1074 16.6706 36.1028C18.4724 46.3215 23.8171 55.5787 31.7658 62.2485C34.3144 64.387 37.0785 66.2157 39.9999 67.7134C42.9212 66.2157 45.6853 64.387 48.2339 62.2485C56.1827 55.5787 61.5273 46.3215 63.3291 36.1028ZM40 21C37.7626 21 35.9891 22.8878 36.1287 25.1209L37.2956 43.7927C37.3849 45.2208 38.5691 46.3333 40 46.3333C41.4309 46.3333 42.6151 45.2208 42.7044 43.7927L43.8713 25.1209C44.0109 22.8878 42.2374 21 40 21ZM40 50.3334C38.159 50.3334 36.6667 51.8258 36.6667 53.6667C36.6667 55.5077 38.159 57 40 57C41.8409 57 43.3333 55.5077 43.3333 53.6667C43.3333 51.8258 41.8409 50.3334 40 50.3334Z" fill="currentColor" />
</svg>