<svg width="80" height="80" viewBox="0 0 80 80" fill="none" xmlns="http://www.w3.org/2000/svg">
  <path d="M12 20C10.3431 20 9 21.3431 9 23C9 24.6569 10.3431 26 12 26V20ZM12.5 26C14.1569 26 15.5 24.6569 15.5 23C15.5 21.3431 14.1569 20 12.5 20V26ZM24.4956 20C22.8387 20 21.4956 21.3431 21.4956 23C21.4956 24.6569 22.8387 26 24.4956 26V20ZM25.5044 26C27.1613 26 28.5044 24.6569 28.5044 23C28.5044 21.3431 27.1613 20 25.5044 20V26ZM37.5 20C35.8431 20 34.5 21.3431 34.5 23C34.5 24.6569 35.8431 26 37.5 26V20ZM68 26C69.6569 26 71 24.6569 71 23C71 21.3431 69.6569 20 68 20V26ZM12 37C10.3431 37 9 38.3431 9 40C9 41.6569 10.3431 43 12 43L12 37ZM42.5 43C44.1569 43 45.5 41.6569 45.5 40C45.5 38.3431 44.1569 37 42.5 37V43ZM54.4956 37C52.8387 37 51.4956 38.3431 51.4956 40C51.4956 41.6569 52.8387 43 54.4956 43V37ZM55.5044 43C57.1613 43 58.5044 41.6569 58.5044 40C58.5044 38.3431 57.1613 37 55.5044 37V43ZM67.5 37C65.8431 37 64.5 38.3431 64.5 40C64.5 41.6569 65.8431 43 67.5 43V37ZM68 43C69.6569 43 71 41.6569 71 40C71 38.3431 69.6569 37 68 37V43ZM12 54C10.3431 54 9 55.3431 9 57C9 58.6569 10.3431 60 12 60V54ZM24.5 60C26.1569 60 27.5 58.6569 27.5 57C27.5 55.3431 26.1569 54 24.5 54V60ZM36.4956 54C34.8387 54 33.4956 55.3431 33.4956 57C33.4956 58.6569 34.8387 60 36.4956 60L36.4956 54ZM37.5044 60C39.1613 60 40.5044 58.6569 40.5044 57C40.5044 55.3431 39.1613 54 37.5044 54L37.5044 60ZM49.5 54C47.8431 54 46.5 55.3431 46.5 57C46.5 58.6569 47.8431 60 49.5 60V54ZM68 60C69.6569 60 71 58.6569 71 57C71 55.3431 69.6569 54 68 54V60ZM12 26H12.5V20H12V26ZM24.4956 26H25.5044V20H24.4956V26ZM37.5 26L68 26V20L37.5 20V26ZM12 43H42.5V37L12 37L12 43ZM54.4956 43H55.5044V37H54.4956V43ZM67.5 43H68V37H67.5V43ZM12 60H24.5V54H12V60ZM36.4956 60H37.5044L37.5044 54H36.4956L36.4956 60ZM49.5 60H68V54L49.5 54V60Z" fill="currentColor" />
  <rect x="21" y="15" width="8" height="16" rx="2" fill="currentColor" stroke="currentColor" stroke-width="4" stroke-linecap="square" stroke-linejoin="round" />
  <rect x="51" y="32" width="8" height="16" rx="2" fill="currentColor" stroke="currentColor" stroke-width="4" stroke-linecap="square" stroke-linejoin="round" />
  <rect x="33" y="49" width="8" height="16" rx="2" fill="currentColor" stroke="currentColor" stroke-width="4" stroke-linecap="square" stroke-linejoin="round" />
</svg>