<svg viewBox="0 0 80 80" fill="none">
  <path fill-rule="evenodd" clip-rule="evenodd" d="M10.6862 40.6862C7.68568 43.6868 6 47.7564 6 51.9998C6 56.2433 7.68582 60.3131 10.6864 63.3137C13.6869 66.3142 17.7566 68 22 68H42H58C61.1825 68 64.2348 66.7357 66.4852 64.4853C68.7356 62.2348 70 59.1825 70 55.9999C70 52.8173 68.7357 49.7651 66.4853 47.5147C64.2349 45.2643 61.1826 44 58 44C56.2033 44 54.4481 44.4029 52.8552 45.1588C52.5562 44.7916 52.2374 44.4383 51.8996 44.1004C49.2741 41.475 45.713 40 42 40C39.3583 40 36.7934 40.7466 34.5877 42.1231C34.1942 41.6216 33.7691 41.1416 33.3138 40.6862C30.3132 37.6857 26.2434 36 22 36C17.7566 36 13.6868 37.6857 10.6862 40.6862Z" fill="currentColor" />
  <path fill-rule="evenodd" clip-rule="evenodd" d="M69.3138 22.6862C72.3144 25.6868 74 29.7564 74 33.9998C74 38.0971 72.4283 42.0326 69.619 44.9999C69.5188 44.8941 69.4171 44.7895 69.3138 44.6862C66.3132 41.6857 62.2434 40 58 40C56.616 40 55.2505 40.1793 53.9345 40.5251C50.6523 37.6179 46.4095 36 42 36C39.7471 36 37.5377 36.4224 35.4778 37.2232C31.8019 33.8702 26.9973 32 22 32C17.7288 32 13.5982 33.3663 10.1929 35.857C10.626 33.4707 11.776 31.2534 13.5147 29.5147C15.7651 27.2643 18.8175 26 22 26C23.7967 26 25.552 26.4029 27.1448 27.1588C27.4438 26.7916 27.7626 26.4383 28.1005 26.1004C30.726 23.475 34.2871 22 38 22C40.6418 22 43.2066 22.7466 45.4123 24.1231C45.8058 23.6216 46.2309 23.1416 46.6863 22.6862C49.6868 19.6857 53.7566 18 58 18C62.2434 18 66.3133 19.6857 69.3138 22.6862Z" fill="currentColor" />
  <path fill-rule="evenodd" clip-rule="evenodd" d="M10.6862 16.6862C7.68568 19.6868 6 23.7564 6 27.9998C6 29.7145 6.27527 31.4009 6.80132 32.9998C7.57707 30.642 8.8982 28.4743 10.6862 26.6862C13.6868 23.6857 17.7566 22 22 22C23.384 22 24.7496 22.1793 26.0656 22.5251C29.3477 19.6179 33.5906 18 38 18C40.2529 18 42.4623 18.4224 44.5222 19.2232C45.4066 18.4165 46.3563 17.6956 47.3584 17.066C45.6756 16.3689 43.8568 16 42 16C39.3583 16 36.7934 16.7466 34.5877 18.1231C34.1942 17.6216 33.7691 17.1416 33.3138 16.6862C30.3132 13.6857 26.2434 12 22 12C17.7566 12 13.6868 13.6857 10.6862 16.6862Z" fill="currentColor" />
</svg>