<svg width="80" height="80" viewBox="0 0 80 80" fill="none" xmlns="http://www.w3.org/2000/svg">
  <path d="M22 44H58V57.2174V60H22V57.2174V44Z" fill="currentColor" />
  <path fill-rule="evenodd" clip-rule="evenodd" d="M30.2858 16C21.4492 16 14.2858 23.1634 14.2858 32V33.0681C18.9446 33.5643 22.8068 36.7267 24.3172 41H55.6829C57.1933 36.7267 61.0555 33.5643 65.7143 33.0681V32C65.7143 23.1634 58.5509 16 49.7143 16H30.2858ZM61.084 43.9942C63.6597 43.8696 65.7103 41.7438 65.7143 39.1381C63.3401 39.6564 61.4914 41.5805 61.084 43.9942ZM18.9161 43.9942C18.5087 41.5805 16.66 39.6564 14.2858 39.1381C14.2898 41.7438 16.3404 43.8696 18.9161 43.9942Z" fill="currentColor" />
  <path d="M4 40.8228C4 38.1592 6.15925 36 8.82281 36H13C17.9706 36 22 40.0294 22 45V57.5714C22 61.1218 19.1218 64 15.5714 64C12.021 64 9.14286 61.1218 9.14286 57.5714V52.8704C9.14286 50.3638 8.29666 47.9305 6.74132 45.9647L5.04066 43.8153C4.36668 42.9634 4 41.909 4 40.8228Z" fill="currentColor" />
  <path d="M76 40.8228C76 38.1592 73.8408 36 71.1772 36H67C62.0294 36 58 40.0294 58 45V57.5714C58 61.1218 60.8782 64 64.4286 64C67.979 64 70.8571 61.1218 70.8571 57.5714V52.8704C70.8571 50.3638 71.7033 47.9305 73.2587 45.9647L74.9593 43.8153C75.6333 42.9634 76 41.909 76 40.8228Z" fill="currentColor" />
</svg>