<svg width="80" height="80" viewBox="0 0 80 80" fill="none" xmlns="http://www.w3.org/2000/svg">
  <path d="M40.233 49.598C40.0894 49.5151 39.9125 49.5151 39.7689 49.598C39.6253 49.6809 39.5368 49.8342 39.5368 50C39.5368 50.1658 39.6253 50.319 39.7689 50.4019C39.9125 50.4848 40.0894 50.4848 40.233 50.4019C40.3766 50.319 40.465 50.1658 40.465 50C40.465 49.8342 40.3766 49.6809 40.233 49.598Z" fill="currentColor" />
  <path fill-rule="evenodd" clip-rule="evenodd" d="M45.4291 40.598C42.0702 38.6587 37.9317 38.6587 34.5727 40.598C31.2138 42.5373 29.1445 46.1213 29.1445 50C29.1445 53.8786 31.2138 57.4626 34.5727 59.4019C37.9317 61.3412 42.0702 61.3412 45.4291 59.4019C48.7881 57.4626 50.8573 53.8786 50.8573 50C50.8573 46.1213 48.7881 42.5373 45.4291 40.598ZM36.7689 44.4019C38.7689 43.2472 41.233 43.2472 43.233 44.4019C45.233 45.5566 46.465 47.6906 46.465 50C46.465 52.3094 45.233 54.4433 43.233 55.598C41.233 56.7527 38.7689 56.7527 36.7689 55.598C34.7689 54.4433 33.5368 52.3094 33.5368 50C33.5368 47.6906 34.7689 45.5566 36.7689 44.4019Z" fill="currentColor" />
  <path d="M38.0359 19.5981C39.2513 18.8964 40.7487 18.8964 41.9641 19.5981C43.1795 20.2998 43.9282 21.5966 43.9282 23C43.9282 24.4034 43.1795 25.7002 41.9641 26.4019C40.7487 27.1036 39.2513 27.1036 38.0359 26.4019C36.8205 25.7002 36.0718 24.4034 36.0718 23C36.0718 21.5966 36.8205 20.2998 38.0359 19.5981Z" fill="currentColor" />
  <path fill-rule="evenodd" clip-rule="evenodd" d="M19 14C19 11.7909 20.7909 10 23 10H57C59.2091 10 61 11.7909 61 14V66C61 68.2091 59.2091 70 57 70H23C20.7909 70 19 68.2091 19 66V14ZM31.5727 35.4019C36.7881 32.3908 43.2138 32.3908 48.4291 35.4019C53.6445 38.413 56.8573 43.9777 56.8573 50C56.8573 56.0222 53.6445 61.5869 48.4291 64.598C43.2138 67.6091 36.7881 67.6091 31.5727 64.598C26.3573 61.5869 23.1445 56.0222 23.1445 50C23.1445 43.9777 26.3573 38.413 31.5727 35.4019ZM44.9641 14.4019C41.8923 12.6284 38.1077 12.6284 35.0359 14.4019C31.9641 16.1754 30.0718 19.453 30.0718 23C30.0718 26.547 31.9641 29.8246 35.0359 31.5981C38.1077 33.3716 41.8923 33.3716 44.9641 31.5981C48.0359 29.8246 49.9282 26.547 49.9282 23C49.9282 19.453 48.0359 16.1754 44.9641 14.4019Z" fill="currentColor" />
</svg>