<svg width="80" height="80" viewBox="0 0 80 80" fill="none" xmlns="http://www.w3.org/2000/svg">
  <path fill-rule="evenodd" clip-rule="evenodd" d="M16 61.9983V63.9999C16 65.6568 17.3431 66.9999 19 66.9999H61C62.6569 66.9999 64 65.6568 64 63.9999V61.9983H16ZM16 55.9983V54.9999C16 52.7908 17.7909 50.9999 20 50.9999H60C62.2091 50.9999 64 52.7908 64 54.9999V55.9983H16Z" fill="currentColor" />
  <path fill-rule="evenodd" clip-rule="evenodd" d="M45 32.557C47.3548 31.1813 49.0501 28.8869 49.6622 26.2053C50.3333 23.2649 49.6289 20.1789 47.7485 17.8208C45.868 15.4628 43.0161 14.0894 40 14.0894C36.9839 14.0894 34.132 15.4628 32.2515 17.8208C30.3711 20.1789 29.6667 23.2649 30.3378 26.2053C30.9499 28.8869 32.6452 31.1813 35 32.557V42.9984H20C15.5817 42.9984 12 46.5801 12 50.9984V56.9984C12 58.1029 12.8954 58.9984 14 58.9984H66C67.1046 58.9984 68 58.1029 68 56.9984V50.9984C68 46.5801 64.4183 42.9984 60 42.9984H45V32.557Z" fill="currentColor" />
</svg>