<svg width="80" height="80" viewBox="0 0 80 80" fill="none" xmlns="http://www.w3.org/2000/svg">
  <path fill-rule="evenodd" clip-rule="evenodd" d="M40.3914 65.9999L43.2558 59.2632C43.4937 58.7038 43.1816 58.0633 42.5944 57.906L38.4054 56.7836L37.1695 56.4524L36.7406 56.3375C36.1277 56.1732 35.8207 55.487 36.1069 54.9206L41.1309 44.976C41.2852 44.6704 40.8791 44.394 40.6514 44.6496L28.5359 58.2553C28.0409 58.8112 28.3049 59.6936 29.0239 59.8863L31.7337 60.6124L33.0529 60.9659L34.1281 61.254C34.2814 61.295 34.3549 61.4695 34.2773 61.6079L31.8133 65.9999H12.0007L13.9317 43.929C14.8645 44.2635 15.8546 44.4847 16.8866 44.575C19.9579 44.8437 22.8645 43.9062 25.1295 42.1484C27.0548 44.2728 29.7544 45.7008 32.8257 45.9695C35.897 46.2382 38.8036 45.3007 41.0686 43.5429C42.9939 45.6673 45.6935 47.0953 48.7648 47.364C51.8361 47.6327 54.7427 46.6952 57.0077 44.9374C58.933 47.0618 61.6326 48.4898 64.7039 48.7585C65.736 48.8488 66.7494 48.8029 67.7262 48.6354L66.207 65.9999H40.3914ZM69.2865 30.8007L68.5192 39.5712C67.7526 40.4117 66.6172 40.8953 65.4012 40.7889C63.3777 40.6119 61.8577 38.8646 61.9624 36.8362L61.9884 36.3317C62.0994 34.181 60.4877 32.3285 58.3423 32.1408L57.9154 32.1034C55.77 31.9157 53.8611 33.4603 53.597 35.5976L53.535 36.0989C53.2859 38.1147 51.4855 39.5715 49.4621 39.3944C47.4386 39.2174 45.9185 37.4702 46.0232 35.4417L46.0493 34.9373C46.1603 32.7865 44.5486 30.934 42.4032 30.7463L41.9763 30.709C39.8309 30.5213 37.922 32.0658 37.6579 34.2031L37.5959 34.7044C37.3468 36.7202 35.5464 38.177 33.5229 37.9999C31.4995 37.8229 29.9794 36.0757 30.0841 34.0472L30.1102 33.5428C30.2212 31.3921 28.6095 29.5395 26.4641 29.3518L26.0372 29.3145C23.8918 29.1268 21.9829 30.6713 21.7188 32.8086L21.6568 33.3099C21.4077 35.3257 19.6073 36.7825 17.5839 36.6055C16.3679 36.4991 15.3337 35.8256 14.7247 34.8649L15.492 26.0942L16.7776 24.4891L68.2993 28.9966L69.2865 30.8007Z" fill="currentColor" />
  <path fill-rule="evenodd" clip-rule="evenodd" d="M30.4985 69C30.4162 68.7467 30.4336 68.4595 30.5777 68.2025L33.4963 63H7C5.34315 63 4 64.3431 4 66C4 67.6569 5.34315 69 7 69H30.4985ZM39.1157 69H71C72.6569 69 74 67.6569 74 66C74 64.3431 72.6569 63 71 63H41.667L39.1157 69Z" fill="currentColor" />
  <path fill-rule="evenodd" clip-rule="evenodd" d="M21.4939 14.864L19.5015 14.6897L10.4861 25.9468L10.1506 32.447C9.93492 36.6262 13.0667 40.226 17.2355 40.5907C21.4043 40.9555 25.1136 37.9542 25.6269 33.801L25.6888 33.2998L26.1157 33.3371L26.0897 33.8415C25.874 38.0207 29.0057 41.6205 33.1746 41.9852C37.3434 42.35 41.0526 39.3487 41.5659 35.1955L41.6279 34.6942L42.0548 34.7316L42.0288 35.236C41.8131 39.4152 44.9448 43.015 49.1137 43.3797C53.2825 43.7444 56.9918 40.7432 57.505 36.59L57.567 36.0887L57.9939 36.1261L57.9679 36.6305C57.7522 40.8097 60.884 44.4095 65.0528 44.7742C69.2216 45.1389 72.9309 42.1377 73.4442 37.9845L74.2426 31.5247L67.3189 18.8732L65.3265 18.6988L21.4939 14.864Z" fill="currentColor" />
</svg>