<svg width="80" height="80" viewBox="0 0 80 80" fill="none" xmlns="http://www.w3.org/2000/svg">
  <path fill-rule="evenodd" clip-rule="evenodd" d="M16 48.0728C16 51.597 17.5592 54.9406 20.2588 57.2059C22.4061 59.0077 25.1195 59.9952 27.9225 59.9952H52.0775C54.8806 59.9952 57.5939 59.0077 59.7412 57.2059C62.4408 54.9406 64 51.597 64 48.0728V40H16V48.0728ZM24 50C24 48.3431 25.3431 47 27 47C28.6569 47 30 48.3431 30 50C30 51.6569 28.6569 53 27 53C25.3431 53 24 51.6569 24 50ZM53 47C51.3431 47 50 48.3431 50 50C50 51.6569 51.3431 53 53 53C54.6569 53 56 51.6569 56 50C56 48.3431 54.6569 47 53 47Z" fill="currentColor" />
  <path d="M16 24H64V23.9224C64 20.3983 62.4408 17.0546 59.7412 14.7893C57.5939 12.9876 54.8806 12 52.0775 12H27.9225C25.1194 12 22.4061 12.9876 20.2588 14.7893C17.5592 17.0546 16 20.3983 16 23.9225V24Z" fill="currentColor" />
  <path fill-rule="evenodd" clip-rule="evenodd" d="M31.1213 57.8787C32.2929 59.0503 32.2929 60.9497 31.1213 62.1213L23.1213 70.1213C21.9497 71.2929 20.0503 71.2929 18.8787 70.1213C17.7071 68.9497 17.7071 67.0503 18.8787 65.8787L26.8787 57.8787C28.0503 56.7071 29.9497 56.7071 31.1213 57.8787ZM48.8787 57.8787C50.0503 56.7071 51.9497 56.7071 53.1213 57.8787L61.1213 65.8787C62.2929 67.0503 62.2929 68.9497 61.1213 70.1213C59.9497 71.2929 58.0503 71.2929 56.8787 70.1213L48.8787 62.1213C47.7071 60.9497 47.7071 59.0503 48.8787 57.8787Z" fill="currentColor" />
</svg>