<svg width="80" height="80" viewBox="0 0 80 80" fill="none" xmlns="http://www.w3.org/2000/svg">
  <path fill-rule="evenodd" clip-rule="evenodd" d="M30.2787 11.9325C27.5684 13.2876 25.8564 16.0577 25.8564 19.0879L25.8564 42.7942C25.8564 43.4436 25.5346 44.0452 25.0338 44.4586C21.8766 47.065 20 50.9707 20 55.1436C20 60.094 22.641 64.6684 26.9282 67.1436C31.2154 69.6188 36.4974 69.6188 40.7846 67.1436C45.0718 64.6684 47.7128 60.094 47.7128 55.1436C47.7128 50.9707 45.8363 47.065 42.679 44.4586C42.1782 44.0452 41.8564 43.4436 41.8564 42.7942V19.0879C41.8564 16.0577 40.1444 13.2876 37.4341 11.9325C35.1819 10.8064 32.5309 10.8064 30.2787 11.9325ZM37.2668 49.0879H30.5329C30.4995 49.1065 30.4661 49.1254 30.4329 49.1445C28.2893 50.3821 26.9688 52.6693 26.9688 55.1445C26.9688 57.6197 28.2893 59.9069 30.4329 61.1445C32.5765 62.3821 35.2175 62.3821 37.3611 61.1445C39.5047 59.9069 40.8252 57.6197 40.8252 55.1445C40.8252 52.6693 39.5047 50.3821 37.3611 49.1445C37.3294 49.1262 37.2979 49.1073 37.2668 49.0879Z" fill="currentColor" />
  <rect x="51" y="11" width="8" height="8" rx="4" fill="currentColor" />
</svg>