<svg width="80" height="80" viewBox="0 0 80 80" fill="none" xmlns="http://www.w3.org/2000/svg">
  <path fill-rule="evenodd" clip-rule="evenodd" d="M27.7295 10.3768C35.5861 7.12246 44.4137 7.12246 52.2704 10.3768C60.127 13.6311 66.369 19.8731 69.6233 27.7298C72.8777 35.5864 72.8777 44.414 69.6233 52.2706C66.369 60.1272 60.127 66.3693 52.2704 69.6236C44.4137 72.8779 35.5861 72.8779 27.7295 69.6236C19.8729 66.3693 13.6308 60.1272 10.3765 52.2706C7.12221 44.414 7.12221 35.5864 10.3765 27.7298C13.6308 19.8731 19.8729 13.6311 27.7295 10.3768ZM50.3569 14.9962C43.7255 12.2493 36.2744 12.2493 29.6429 14.9962C23.0115 17.743 17.7428 23.0117 14.9959 29.6432C12.2491 36.2747 12.2491 43.7257 14.9959 50.3572C17.7428 56.9887 23.0115 62.2573 29.6429 65.0042C36.2744 67.751 43.7255 67.751 50.3569 65.0042C56.9884 62.2573 62.2571 56.9887 65.0039 50.3572C67.7508 43.7257 67.7508 36.2747 65.0039 29.6432C62.2571 23.0117 56.9884 17.743 50.3569 14.9962Z" fill="currentColor" />
  <path d="M29.4516 14.5344C36.2056 11.7368 43.7943 11.7368 50.5483 14.5344C53.284 15.6676 55.792 17.2222 57.9939 19.1197C57.2449 20.5977 56.3212 21.9688 55.249 23.2068C51.4144 27.6342 46.9999 33.2461 46.9999 40.0001C46.9999 46.7542 51.4144 52.3661 55.249 56.7935C56.3213 58.0316 57.245 59.4028 57.994 60.8809C55.7921 62.7785 53.2841 64.3331 50.5483 65.4663C43.7943 68.2639 36.2056 68.2639 29.4516 65.4663C26.7156 64.333 24.2075 62.7784 22.0055 60.8806C22.7546 59.4024 23.6784 58.0312 24.7509 56.793C28.5855 52.3658 32.9999 46.754 32.9999 40.0001C32.9999 33.2462 28.5855 27.6345 24.7509 23.2073C23.6785 21.9692 22.7547 20.5981 22.0057 19.12C24.2076 17.2223 26.7157 15.6677 29.4516 14.5344Z" fill="currentColor" />
  <path d="M61.9287 20.1717C60.9727 22.2328 59.7385 24.133 58.2726 25.8255C54.3557 30.3479 50.9999 34.9142 50.9999 40.0001C50.9999 45.0861 54.3557 49.6524 58.2726 54.1748C59.7385 55.8673 60.9728 57.7676 61.9287 59.8287C64.1767 57.3427 66.0065 54.4695 67.3136 51.3139C70.3142 44.0698 70.3142 35.9305 67.3136 28.6865C66.0065 25.5308 64.1767 22.6577 61.9287 20.1717Z" fill="currentColor" />
  <path d="M18.0709 59.8283C19.0269 57.7671 20.2613 55.8668 21.7273 54.1742C25.6442 49.6521 28.9999 45.0859 28.9999 40.0001C28.9999 34.9144 25.6442 30.3482 21.7273 25.8261C20.2613 24.1335 19.0269 22.2332 18.0709 20.172C15.8231 22.6579 13.9933 25.531 12.6862 28.6865C9.68565 35.9305 9.68565 44.0698 12.6862 51.3139C13.9933 54.4694 15.823 57.3424 18.0709 59.8283Z" fill="currentColor" />
</svg>