<svg width="80" height="80" viewBox="0 0 80 80" fill="none" xmlns="http://www.w3.org/2000/svg">
  <path fill-rule="evenodd" clip-rule="evenodd" d="M12 20C9.79086 20 8 21.7909 8 24V33.5274C8.66685 33.5273 9.3412 33.6306 10 33.8446C12.6667 34.7111 14.4721 37.1961 14.4721 40C14.4721 42.8039 12.6667 45.2889 10 46.1554C9.3412 46.3694 8.66685 46.4727 8 46.4726V56C8 58.2091 9.79086 60 12 60H68C70.2091 60 72 58.2091 72 56V46.3948C71.6647 46.3422 71.3304 46.2627 71 46.1554C68.3333 45.2889 66.5279 42.8039 66.5279 40C66.5279 37.1961 68.3333 34.7111 71 33.8446C71.3304 33.7373 71.6647 33.6578 72 33.6052V24C72 21.7909 70.2091 20 68 20H12ZM58 32H22V48H58V32Z" fill="currentColor" stroke="currentColor" stroke-width="4" stroke-linecap="round" stroke-linejoin="round" />
</svg>