<svg width="80" height="80" viewBox="0 0 80 80" fill="none" xmlns="http://www.w3.org/2000/svg">
  <path d="M19.5155 48.179L16.7438 49.3271H16.7438L19.5155 48.179ZM21.998 33.0974C22.5681 31.5418 21.7691 29.8185 20.2134 29.2484C18.6577 28.6783 16.9345 29.4773 16.3644 31.033L21.998 33.0974ZM31.5155 60.179L32.6635 57.4074H32.6635L31.5155 60.179ZM48.486 60.179L47.338 57.4074H47.338L48.486 60.179ZM60.486 48.179L57.7144 47.031L60.486 48.179ZM60.486 31.2084L57.7144 32.3565V32.3565L60.486 31.2084ZM48.486 19.2084L47.338 21.9801L47.338 21.9801L48.486 19.2084ZM48.7213 16.0794C47.167 15.5053 45.4417 16.3 44.8677 17.8542C44.2937 19.4084 45.0883 21.1337 46.6426 21.7078L48.7213 16.0794ZM22.2871 47.031C20.4428 42.5785 20.3465 37.6044 21.998 33.0974L16.3644 31.033C14.1959 36.9505 14.3224 43.4811 16.7438 49.3271L22.2871 47.031ZM32.6635 57.4074C27.9656 55.4614 24.2331 51.7289 22.2871 47.031L16.7438 49.3271C19.2987 55.4952 24.1993 60.3957 30.3674 62.9506L32.6635 57.4074ZM47.338 57.4074C42.64 59.3533 37.3615 59.3533 32.6635 57.4074L30.3674 62.9506C36.5355 65.5056 43.466 65.5056 49.6341 62.9506L47.338 57.4074ZM57.7144 47.031C55.7684 51.7289 52.0359 55.4614 47.338 57.4074L49.6341 62.9506C55.8022 60.3957 60.7027 55.4952 63.2577 49.3271L57.7144 47.031ZM57.7144 32.3565C59.6603 37.0544 59.6603 42.333 57.7144 47.031L63.2577 49.3271C65.8126 43.1589 65.8126 36.2285 63.2577 30.0604L57.7144 32.3565ZM47.338 21.9801C52.0359 23.926 55.7684 27.6585 57.7144 32.3565L63.2577 30.0604C60.7027 23.8923 55.8022 18.9917 49.6341 16.4368L47.338 21.9801ZM49.6341 16.4368C49.3316 16.3115 49.0273 16.1924 48.7213 16.0794L46.6426 21.7078C46.8757 21.7938 47.1075 21.8846 47.338 21.9801L49.6341 16.4368Z" fill="currentColor" />
  <path d="M39.1667 15.9257C39.6194 15.7382 40.1281 15.7382 40.5809 15.9257V15.9257C41.0336 16.1132 41.3933 16.473 41.5809 16.9257V16.9257C41.7684 17.3785 41.7684 17.8872 41.5809 18.3399V18.3399C41.3933 18.7927 41.0336 19.1524 40.5809 19.3399V19.3399C40.1281 19.5275 39.6194 19.5275 39.1667 19.3399V19.3399C38.7139 19.1524 38.3542 18.7927 38.1667 18.3399V18.3399C37.9791 17.8872 37.9791 17.3785 38.1667 16.9257V16.9257C38.3542 16.473 38.7139 16.1132 39.1667 15.9257V15.9257Z" stroke="currentColor" stroke-width="3" stroke-linecap="square" />
  <path d="M23.0297 22.7684L40.7303 37.7459C41.1642 38.113 41.4145 38.6526 41.4145 39.2209V39.2209C41.4145 40.2881 40.5494 41.1532 39.4822 41.1532V41.1532C38.9138 41.1532 38.3743 40.9029 38.0072 40.4691L23.0297 22.7684Z" stroke="currentColor" stroke-width="5" stroke-linecap="round" stroke-linejoin="round" />
</svg>