<svg width="80" height="80" viewBox="0 0 80 80" fill="none" xmlns="http://www.w3.org/2000/svg">
  <path fill-rule="evenodd" clip-rule="evenodd" d="M44.7273 54H56.7887C60.6024 54 64.256 52.4673 66.9282 49.7465L67.0767 49.5953C69.5916 47.0347 71.0006 43.5891 71.0006 40C71.0006 36.4109 69.5916 32.9653 67.0767 30.4047L66.9282 30.2535C64.256 27.5327 60.6024 26 56.7887 26L44.7273 26C47.8267 29.9255 49.5887 34.8373 49.5887 40C49.5887 45.1627 47.8267 50.0745 44.7273 54Z" fill="currentColor" />
  <path d="M44.7273 54L43.1576 52.7606C42.6826 53.3622 42.5932 54.1824 42.9275 54.8721C43.2617 55.5619 43.9608 56 44.7273 56V54ZM66.9282 49.7465L65.5013 48.3451L65.5013 48.3451L66.9282 49.7465ZM67.0767 49.5953L68.5036 50.9967L68.5036 50.9967L67.0767 49.5953ZM67.0767 30.4047L68.5036 29.0033L68.5036 29.0033L67.0767 30.4047ZM66.9282 30.2535L65.5013 31.6549L65.5013 31.6549L66.9282 30.2535ZM44.7273 26V24C43.9608 24 43.2617 24.4381 42.9275 25.1279C42.5932 25.8176 42.6826 26.6378 43.1576 27.2394L44.7273 26ZM44.7273 56H56.7887L56.7887 52H44.7273V56ZM56.7887 56C61.139 56 65.3068 54.2516 68.3551 51.1479L65.5013 48.3451C63.2051 50.683 60.0657 52 56.7887 52L56.7887 56ZM68.3551 51.1479L68.5036 50.9967L65.6498 48.1939L65.5013 48.3451L68.3551 51.1479ZM68.5036 50.9967C71.3858 48.0621 73.0006 44.1133 73.0006 40L69.0006 40C69.0006 43.0649 67.7974 46.0073 65.6498 48.1939L68.5036 50.9967ZM73.0006 40C73.0006 35.8867 71.3858 31.9379 68.5036 29.0033L65.6498 31.8061C67.7974 33.9927 69.0006 36.9351 69.0006 40L73.0006 40ZM68.5036 29.0033L68.3551 28.8521L65.5013 31.6549L65.6498 31.8061L68.5036 29.0033ZM68.3551 28.8521C65.3068 25.7484 61.139 24 56.7887 24V28C60.0657 28 63.2051 29.317 65.5013 31.6549L68.3551 28.8521ZM56.7887 24L44.7273 24V28H56.7887V24ZM43.1576 27.2394C45.983 30.8179 47.5887 35.2947 47.5887 40H51.5887C51.5887 34.3799 49.6703 29.0331 46.297 24.7606L43.1576 27.2394ZM47.5887 40C47.5887 44.7053 45.983 49.1821 43.1576 52.7606L46.297 55.2394C49.6703 50.9669 51.5887 45.6201 51.5887 40H47.5887Z" fill="currentColor" />
  <path d="M19.2058 26.5C24.0289 23.7154 29.9711 23.7154 34.7942 26.5C39.6173 29.2846 42.5885 34.4308 42.5885 40C42.5885 45.5692 39.6173 50.7154 34.7942 53.5C29.9711 56.2846 24.0289 56.2846 19.2058 53.5C14.3827 50.7154 11.4115 45.5692 11.4115 40C11.4115 34.4308 14.3827 29.2846 19.2058 26.5Z" fill="currentColor" stroke="currentColor" stroke-width="4" stroke-linecap="round" stroke-linejoin="round" />
</svg>