<svg width="80" height="80" viewBox="0 0 80 80" fill="none" xmlns="http://www.w3.org/2000/svg">
  <path fill-rule="evenodd" clip-rule="evenodd" d="M20.2588 57.2059C17.5592 54.9406 16 51.597 16 48.0728V40H64V48.0728C64 51.597 62.4408 54.9406 59.7412 57.2059C57.5939 59.0077 54.8806 59.9952 52.0775 59.9952H27.9225C25.1195 59.9952 22.4061 59.0077 20.2588 57.2059ZM40 47C38.3431 47 37 48.3431 37 50C37 51.6569 38.3431 53 40 53C41.6569 53 43 51.6569 43 50C43 48.3431 41.6569 47 40 47Z" fill="currentColor" />
  <path d="M64 24H16V23.9225C16 20.3983 17.5592 17.0546 20.2588 14.7893C22.4061 12.9876 25.1194 12 27.9225 12H52.0775C54.8806 12 57.5939 12.9876 59.7412 14.7893C62.4408 17.0546 64 20.3983 64 23.9224V24Z" fill="currentColor" />
  <path fill-rule="evenodd" clip-rule="evenodd" d="M31.1213 57.8787C32.2929 59.0503 32.2929 60.9497 31.1213 62.1213L23.1213 70.1213C21.9497 71.2929 20.0503 71.2929 18.8787 70.1213C17.7071 68.9497 17.7071 67.0503 18.8787 65.8787L26.8787 57.8787C28.0503 56.7071 29.9497 56.7071 31.1213 57.8787ZM48.8787 57.8787C50.0503 56.7071 51.9497 56.7071 53.1213 57.8787L61.1213 65.8787C62.2929 67.0503 62.2929 68.9497 61.1213 70.1213C59.9497 71.2929 58.0503 71.2929 56.8787 70.1213L48.8787 62.1213C47.7071 60.9497 47.7071 59.0503 48.8787 57.8787Z" fill="currentColor" />
</svg>