<svg width="80" height="80" viewBox="0 0 80 80" fill="none" xmlns="http://www.w3.org/2000/svg">
  <path fill-rule="evenodd" clip-rule="evenodd" d="M33.9256 9.88647C33.1648 9.88647 32.4454 10.2329 31.9711 10.8277L26.6501 17.5H15C13.6193 17.5 12.5 18.6193 12.5 20C12.5 21.3807 13.6193 22.5 15 22.5H16.5V64C16.5 67.5899 19.4101 70.5 23 70.5H57C60.5898 70.5 63.5 67.5899 63.5 64V22.5H65C66.3807 22.5 67.5 21.3807 67.5 20C67.5 18.6193 66.3807 17.5 65 17.5H53.3499L48.029 10.8278C47.5546 10.2329 46.8352 9.88647 46.0744 9.88647H33.9256ZM33 27.5C34.3807 27.5 35.5 28.6193 35.5 30V58C35.5 59.3807 34.3807 60.5 33 60.5C31.6193 60.5 30.5 59.3807 30.5 58V30C30.5 28.6193 31.6193 27.5 33 27.5ZM49.5 30C49.5 28.6193 48.3807 27.5 47 27.5C45.6193 27.5 44.5 28.6193 44.5 30V58C44.5 59.3807 45.6193 60.5 47 60.5C48.3807 60.5 49.5 59.3807 49.5 58V30ZM46.9536 17.4986L44.8704 14.8865H35.1296L33.0464 17.4986H46.9536Z" fill="currentColor" />
</svg>