<svg width="80" height="80" viewBox="0 0 80 80" fill="none" xmlns="http://www.w3.org/2000/svg">
  <path fill-rule="evenodd" clip-rule="evenodd" d="M37.1127 8.82831C38.6748 7.26621 41.2075 7.26621 42.7696 8.82831L71.0538 37.1126C72.6159 38.6747 72.6159 41.2073 71.0538 42.7694L42.7696 71.0537C41.2075 72.6158 38.6748 72.6158 37.1127 71.0537L8.82843 42.7694C7.26634 41.2073 7.26634 38.6747 8.82843 37.1126L37.1127 8.82831ZM24.9412 44.4805C24.9412 37.8531 30.3137 32.4805 36.9412 32.4805H48.0523L48.0522 28.4536C48.0522 27.291 49.468 26.7201 50.2745 27.5576L55.7851 33.2801C56.4305 33.9504 56.4305 35.0109 55.7851 35.6812L50.2745 41.4037C49.468 42.2412 48.0522 41.6703 48.0522 40.5077L48.0523 36.4805H36.9412C32.5229 36.4805 28.9412 40.0622 28.9412 44.4805V51.2497C28.9412 52.3543 28.0457 53.2497 26.9412 53.2497C25.8366 53.2497 24.9412 52.3543 24.9412 51.2497V44.4805Z" fill="currentColor" />
</svg>