<svg width="80" height="80" viewBox="0 0 80 80" fill="none" xmlns="http://www.w3.org/2000/svg">
  <path d="M30 13C28.3431 13 27 14.3431 27 16C27 17.6569 28.3431 19 30 19V13ZM52 67C53.6569 67 55 65.6569 55 64C55 62.3431 53.6569 61 52 61V67ZM45.8505 37.0748L47.1921 39.758L45.8505 37.0748ZM40 40L38.6584 37.3167H38.6584L40 40ZM30 19L40.8754 19V13L30 13V19ZM29 67H52V61L29 61V67ZM44.5088 34.3915L38.6584 37.3167L41.3416 42.6833L47.1921 39.758L44.5088 34.3915ZM25 59.4164V63H31V59.4164H25ZM29 61C30.1046 61 31 61.8954 31 63H25C25 65.2091 26.7909 67 29 67V61ZM38.6584 37.3167C30.2876 41.5021 25 50.0576 25 59.4164H31C31 52.3303 35.0036 45.8523 41.3416 42.6833L38.6584 37.3167ZM49 27.1246C49 30.202 47.2613 33.0152 44.5088 34.3915L47.1921 39.758C51.9773 37.3655 55 32.4746 55 27.1246H49ZM40.8754 19C45.3625 19 49 22.6375 49 27.1246H55C55 19.3238 48.6762 13 40.8754 13V19Z" fill="currentColor" />
</svg>