<svg width="80" height="80" viewBox="0 0 80 80" fill="none" xmlns="http://www.w3.org/2000/svg">
  <path d="M26.846 15.0513C26.3221 13.4795 24.6231 12.63 23.0513 13.154C21.4795 13.6779 20.63 15.3769 21.154 16.9487L26.846 15.0513ZM40 64L37.1539 64.9487C37.5623 66.1737 38.7087 67 40 67C41.2913 67 42.4377 66.1737 42.8461 64.9487L40 64ZM58.8461 16.9487C59.37 15.3769 58.5205 13.6779 56.9487 13.154C55.3769 12.63 53.6779 13.4795 53.1539 15.0513L58.8461 16.9487ZM21.154 16.9487L37.1539 64.9487L42.8461 63.0513L26.846 15.0513L21.154 16.9487ZM42.8461 64.9487L58.8461 16.9487L53.1539 15.0513L37.1539 63.0513L42.8461 64.9487Z" fill="currentColor" />
</svg>