<svg width="80" height="80" viewBox="0 0 80 80" fill="none" xmlns="http://www.w3.org/2000/svg">
  <path d="M45.3049 14.9167C45.866 17.376 46.1652 19.8847 46.1995 22.4011C46.2178 23.4934 46.1861 24.5874 46.1043 25.6795C45.8367 29.2506 45.0353 32.7614 43.727 36.095C43.3066 37.1662 42.8353 38.2152 42.3152 39.2386C43.0445 40.4574 43.8556 41.6277 44.7436 42.7412C46.4951 44.9375 48.5285 46.8911 50.7901 48.552C51.9936 46.718 53.0058 44.7623 53.8092 42.7155C54.9715 39.7539 55.6834 36.6349 55.9211 33.4624C56.1589 30.2899 55.9198 27.0996 55.2119 23.9979C54.7409 21.9344 54.0659 19.9255 53.1983 18.0006C52.542 17.6088 51.8678 17.246 51.1775 16.9136C49.3062 16.0124 47.3341 15.3423 45.3049 14.9167Z" fill="currentColor" />
  <path d="M40.9849 14.274C41.1397 14.8171 41.2801 15.3647 41.406 15.9162C41.8912 18.0419 42.1561 20.2092 42.1983 22.3838C39.7467 22.2464 37.2844 22.3611 34.8506 22.728C31.3094 23.2617 27.8683 24.3231 24.6418 25.8769C21.4154 27.4307 18.44 29.4593 15.8148 31.8951C15.7302 31.9736 15.646 32.0525 15.5621 32.1319C16.1208 30.3817 16.8663 28.6946 17.7869 27.1C19.0703 24.8772 20.6795 22.8593 22.561 21.1135C24.4425 19.3677 26.575 17.9138 28.8875 16.8002C31.1999 15.6866 33.6663 14.9258 36.2043 14.5432C37.788 14.3045 39.3885 14.2148 40.9849 14.274Z" fill="currentColor" />
  <path d="M59.0329 22.7706C59.0597 22.8829 59.0859 22.9953 59.1116 23.1078C59.9084 26.5992 60.1776 30.1902 59.9099 33.7613C59.6423 37.3324 58.841 40.8433 57.5327 44.1768C56.6334 46.468 55.5017 48.6577 54.1569 50.7121C56.0613 51.7629 58.0707 52.6171 60.1542 53.2598C60.6948 53.4265 61.2392 53.5787 61.7869 53.7162C62.6363 52.3633 63.3589 50.9324 63.944 49.4415C64.8817 47.0523 65.456 44.536 65.6478 41.9765C65.8396 39.417 65.6468 36.8433 65.0756 34.3409C64.5045 31.8386 63.5615 29.4361 62.2782 27.2133C61.3576 25.6186 60.2692 24.1295 59.0329 22.7706Z" fill="currentColor" />
  <path d="M49.3498 52.447C50.245 53.0573 51.1664 53.626 52.1108 54.1517C54.3162 55.388 56.6488 56.389 59.0703 57.1361C57.6871 58.6807 56.1208 60.0535 54.4047 61.2234C53.7717 61.655 53.1204 62.0576 52.4529 62.4301C50.3521 62.2189 48.2749 61.7991 46.2523 61.1752C43.2122 60.2374 40.3298 58.8493 37.7012 57.0572C35.0726 55.265 32.7274 53.089 30.7438 50.6017C29.3728 48.8825 28.1853 47.028 27.1988 45.0688C29.7679 43.9406 32.4765 43.1564 35.2543 42.7377C36.6627 42.5255 38.0817 42.4082 39.5018 42.386C40.128 43.3481 40.8009 44.2808 41.5184 45.1805C43.7512 47.9803 46.391 50.4297 49.3498 52.447Z" fill="currentColor" />
  <path d="M38.1827 38.3757C38.8735 37.1348 39.4815 35.8472 40.0018 34.5215C41.0281 31.9065 41.7033 29.1687 42.0109 26.3796C39.8208 26.2543 37.621 26.3556 35.4467 26.6833C32.3008 27.1574 29.2437 28.1004 26.3774 29.4808C23.511 30.8612 20.8677 32.6634 18.5355 34.8273C16.9839 36.267 15.5817 37.856 14.3484 39.5697C14.3373 40.334 14.3603 41.0993 14.4175 41.8633C14.5727 43.9345 14.9784 45.9774 15.6245 47.9476C17.4729 46.2328 19.4949 44.7199 21.6559 43.4324C22.5937 42.8697 23.5579 42.3496 24.5456 41.8739C27.772 40.3201 31.2132 39.2587 34.7543 38.7249C35.8922 38.5534 37.0364 38.437 38.1827 38.3757Z" fill="currentColor" />
  <path d="M17.228 52.0101C17.6209 51.6045 18.0249 51.2091 18.4395 50.8244C20.0378 49.3413 21.7823 48.0282 23.6446 46.9043C24.7514 49.0962 26.0818 51.1712 27.6165 53.0956C29.8493 55.8954 32.4891 58.3448 35.4479 60.3621C38.4068 62.3794 41.6513 63.9419 45.0733 64.9975C45.1836 65.0315 45.2941 65.065 45.4047 65.0979C43.6097 65.4892 41.7759 65.6872 39.9346 65.6872C37.3679 65.6872 34.8157 65.3025 32.3631 64.5459C29.9105 63.7894 27.5851 62.6696 25.4644 61.2237C23.3438 59.7779 21.4517 58.0223 19.8515 56.0156C18.8528 54.7634 17.9749 53.4222 17.228 52.0101Z" fill="currentColor" />
</svg>