<svg width="80" height="80" viewBox="0 0 80 80" fill="none" xmlns="http://www.w3.org/2000/svg">
  <path fill-rule="evenodd" clip-rule="evenodd" d="M17.732 49.7466C17.357 49.3716 16.8484 49.161 16.3181 49.161H6.14648C5.04191 49.161 4.14648 48.2656 4.14648 47.161V33.1678C4.14648 32.0632 5.04191 31.1678 6.14648 31.1678H16.3185C16.8488 31.1678 17.3574 30.9572 17.7324 30.5823L28.7325 19.5863C29.9926 18.3267 32.1465 19.2191 32.1465 21.0008V21.1698V58.1559V59.3284C32.1465 61.1101 29.9926 62.0025 28.7325 60.7429L17.732 49.7466Z" fill="currentColor" />
  <path d="M32.1465 21.1698H34.1465V21.1698L32.1465 21.1698ZM28.7325 60.7429L27.3186 62.1574L28.7325 60.7429ZM17.7324 30.5823L19.1464 31.9968L17.7324 30.5823ZM17.732 49.7466L16.3181 51.161L17.732 49.7466ZM16.3181 47.161H6.14648V51.161H16.3181V47.161ZM6.14648 47.161V33.1678H2.14648V47.161H6.14648ZM6.14648 33.1678H16.3185V29.1678H6.14648V33.1678ZM19.1464 31.9968L30.1465 21.0008L27.3186 18.1718L16.3185 29.1678L19.1464 31.9968ZM30.1465 21.0008V21.1698L34.1465 21.1698V21.0008L30.1465 21.0008ZM30.1465 21.1698V58.1559H34.1465V21.1698H30.1465ZM30.1465 58.1559V59.3284H34.1465V58.1559H30.1465ZM30.1465 59.3284L19.146 48.3321L16.3181 51.161L27.3186 62.1574L30.1465 59.3284ZM30.1465 59.3284L27.3186 62.1574C29.8387 64.6765 34.1465 62.8917 34.1465 59.3284H30.1465ZM30.1465 21.0008L30.1465 21.0008L34.1465 21.0008C34.1465 17.4375 29.8387 15.6527 27.3186 18.1718L30.1465 21.0008ZM16.3185 33.1678C17.3791 33.1678 18.3963 32.7466 19.1464 31.9968L16.3185 29.1678H16.3185V33.1678ZM6.14648 33.1678V33.1678V29.1678C3.93734 29.1678 2.14648 30.9587 2.14648 33.1678H6.14648ZM6.14648 47.161H6.14648H2.14648C2.14648 49.3702 3.93734 51.161 6.14648 51.161V47.161ZM16.3181 51.161L19.146 48.3321C18.3959 47.5823 17.3787 47.161 16.3181 47.161V51.161Z" fill="currentColor" />
  <path d="M41.3947 30.9091L39.5441 32.59L41.3947 30.9091ZM44.6041 36.7602L42.1846 37.3892L42.1846 37.3892L44.6041 36.7602ZM38.5865 25.5383C37.3829 24.8618 35.8587 25.2891 35.1822 26.4927C34.5057 27.6963 34.933 29.2205 36.1366 29.897L38.5865 25.5383ZM41.3947 49.1056L43.2452 50.7865L43.2452 50.7865L41.3947 49.1056ZM36.1389 50.1164C34.9354 50.7931 34.5084 52.3173 35.1851 53.5208C35.8619 54.7243 37.3861 55.1513 38.5896 54.4746L36.1389 50.1164ZM44.6041 43.2544L47.0237 43.8835L44.6041 43.2544ZM53.2719 24.0853L51.4213 25.7662L53.2719 24.0853ZM58.8884 34.3248L56.4688 34.9538L58.8884 34.3248ZM49.5058 17.5878C48.357 16.822 46.8048 17.1326 46.039 18.2814C45.2732 19.4303 45.5838 20.9825 46.7327 21.7483L49.5058 17.5878ZM53.2719 55.9292L51.4213 54.2483L51.4213 54.2483L53.2719 55.9292ZM46.7349 58.2647C45.586 59.0307 45.2756 60.5828 46.0416 61.7316C46.8075 62.8804 48.3596 63.1908 49.5084 62.4249L46.7349 58.2647ZM58.8884 45.6897L56.4688 45.0607L58.8884 45.6897ZM39.5441 32.59C40.8426 34.0195 41.7357 35.6626 42.1846 37.3892L47.0237 36.1312C46.3613 33.5832 45.0604 31.2265 43.2452 29.2282L39.5441 32.59ZM36.1366 29.897C37.4439 30.6318 38.5936 31.5435 39.5441 32.59L43.2452 29.2282C41.918 27.767 40.3407 26.5243 38.5865 25.5383L36.1366 29.897ZM39.5441 47.4247C38.5942 48.4705 37.4452 49.3818 36.1389 50.1164L38.5896 54.4746C40.3425 53.4889 41.9188 52.2468 43.2452 50.7865L39.5441 47.4247ZM42.1846 42.6254C41.7357 44.352 40.8426 45.9951 39.5441 47.4247L43.2452 50.7865C45.0604 48.7881 46.3613 46.4314 47.0237 43.8835L42.1846 42.6254ZM47.0237 43.8835C47.6866 41.3337 47.6866 38.6809 47.0237 36.1312L42.1846 37.3892C42.6329 39.114 42.6329 40.9006 42.1846 42.6254L47.0237 43.8835ZM51.4213 25.7662C53.8874 28.4812 55.6032 31.6242 56.4688 34.9538L61.308 33.6957C60.2289 29.5449 58.1053 25.6882 55.1224 22.4044L51.4213 25.7662ZM46.7327 21.7483C48.4817 22.9141 50.0567 24.2638 51.4213 25.7662L55.1224 22.4044C53.4727 20.5882 51.5836 18.9727 49.5058 17.5878L46.7327 21.7483ZM51.4213 54.2483C50.0572 55.75 48.483 57.0993 46.7349 58.2647L49.5084 62.4249C51.5852 61.0404 53.4734 59.4255 55.1224 57.6101L51.4213 54.2483ZM56.4688 45.0607C55.6032 48.3903 53.8874 51.5333 51.4213 54.2483L55.1224 57.6101C58.1053 54.3262 60.2289 50.4696 61.308 46.3187L56.4688 45.0607ZM61.308 46.3187C62.3876 42.166 62.3876 37.8485 61.308 33.6957L56.4688 34.9538C57.334 38.2815 57.334 41.733 56.4688 45.0607L61.308 46.3187Z" fill="currentColor" />
</svg>