<svg width="80" height="80" viewBox="0 0 80 80" fill="none" xmlns="http://www.w3.org/2000/svg">
  <path fill-rule="evenodd" clip-rule="evenodd" d="M28 16C28 13.7909 29.7908 12 32 12H48C50.2091 12 52 13.7909 52 16V19.9981C51.0207 19.4106 49.994 18.8925 48.9262 18.4502C43.2108 16.0828 36.7891 16.0828 31.0737 18.4502C30.006 18.8925 28.9792 19.4106 28 19.9981V16ZM31.0737 61.5498C30.006 61.1075 28.9792 60.5894 28 60.0019V64C28 66.2091 29.7908 68 32 68H48C50.2091 68 52 66.2091 52 64V60.0019C51.0207 60.5894 49.994 61.1075 48.9262 61.5498C43.2108 63.9172 36.7891 63.9172 31.0737 61.5498ZM32.2218 21.2218C37.2021 19.1589 42.7979 19.1589 47.7781 21.2218C52.7584 23.2847 56.7152 27.2415 58.7781 32.2218C60.841 37.2021 60.841 42.7979 58.7781 47.7782C56.7152 52.7585 52.7584 56.7153 47.7781 58.7782C42.7979 60.8411 37.2021 60.8411 32.2218 58.7782C27.2415 56.7153 23.2847 52.7585 21.2218 47.7782C19.1589 42.7979 19.1589 37.2021 21.2218 32.2218C23.2847 27.2415 27.2415 23.2847 32.2218 21.2218ZM47.1596 33.9361C47.8308 33.0589 47.6637 31.8036 46.7865 31.1324C45.9092 30.4613 44.6539 30.6283 43.9828 31.5056L40.8631 35.583C40.584 35.5289 40.2956 35.5005 40.0007 35.5005C37.5154 35.5005 35.5007 37.5152 35.5007 40.0005C35.5007 42.4858 37.5154 44.5005 40.0007 44.5005C40.9331 44.5005 41.7992 44.2169 42.5176 43.7313L50.6008 48.3297C51.5609 48.8759 52.782 48.5404 53.3281 47.5803C53.8743 46.6202 53.5388 45.3991 52.5787 44.8529L44.4937 40.2535C44.4983 40.1697 44.5007 40.0854 44.5007 40.0005C44.5007 39.2874 44.3348 38.6131 44.0396 38.014L47.1596 33.9361ZM39.5007 40.0005C39.5007 39.7243 39.7245 39.5005 40.0007 39.5005C40.2768 39.5005 40.5007 39.7243 40.5007 40.0005C40.5007 40.2766 40.2768 40.5005 40.0007 40.5005C39.7245 40.5005 39.5007 40.2766 39.5007 40.0005Z" fill="currentColor" />
</svg>