<svg width="80" height="80" viewBox="0 0 80 80" fill="none" xmlns="http://www.w3.org/2000/svg">
  <path d="M13 19.5002L15.1213 21.6215L15.1213 21.6215L13 19.5002ZM12.4853 20.0149L10.364 17.8936L10.364 17.8936L12.4853 20.0149ZM14.5 18.0002L16.6213 20.1215V20.1215L14.5 18.0002ZM13.5 19.0002L11.3787 16.8788L11.3787 16.8788L13.5 19.0002ZM4 20.5296C2.34315 20.5296 1 21.8727 1 23.5296C1 25.1864 2.34315 26.5296 4 26.5296L4 20.5296ZM19.5147 20.0149L21.636 17.8935V17.8935L19.5147 20.0149ZM37 19.5002L39.1213 21.6215L39.1213 21.6215L37 19.5002ZM36.4853 20.0149L34.364 17.8935L34.364 17.8936L36.4853 20.0149ZM38.5 18.0002L40.6213 20.1215V20.1215L38.5 18.0002ZM37.5 19.0002L35.3787 16.8788V16.8788L37.5 19.0002ZM43.5147 20.0149L41.3934 22.1362V22.1362L43.5147 20.0149ZM61 19.5002L63.1213 21.6215L63.1213 21.6215L61 19.5002ZM60.4853 20.0149L58.364 17.8935L58.364 17.8936L60.4853 20.0149ZM62.5 18.0002L64.6213 20.1215V20.1215L62.5 18.0002ZM61.5 19.0002L59.3787 16.8788L59.3787 16.8788L61.5 19.0002ZM67.5147 20.0149L69.636 17.8935V17.8935L67.5147 20.0149ZM76 26.5296C77.6569 26.5296 79 25.1864 79 23.5296C79 21.8727 77.6569 20.5296 76 20.5296V26.5296ZM65 17.5002L67.1213 15.3788L65 17.5002ZM41 17.5002L43.1213 15.3788L41 17.5002ZM10.8787 17.3788L10.364 17.8936L14.6066 22.1362L15.1213 21.6215L10.8787 17.3788ZM12.8787 15.3788L12.3787 15.8788L16.6213 20.1215L17.1213 19.6215L12.8787 15.3788ZM12.3787 15.8788L11.8787 16.3788L16.1213 20.6215L16.6213 20.1215L12.3787 15.8788ZM11.8787 16.3788L11.3787 16.8788L15.6213 21.1215L16.1213 20.6215L11.8787 16.3788ZM11.3787 16.8788L10.8787 17.3788L15.1213 21.6215L15.6213 21.1215L11.3787 16.8788ZM4 26.5296C7.83419 26.5296 11.6783 25.0645 14.6066 22.1362L10.364 17.8936C8.60601 19.6515 6.30795 20.5296 4 20.5296L4 26.5296ZM21.636 17.8935L19.1213 15.3788L14.8787 19.6215L17.3934 22.1362L21.636 17.8935ZM34.8787 17.3788L34.364 17.8935L38.6066 22.1362L39.1213 21.6215L34.8787 17.3788ZM36.8787 15.3788L36.3787 15.8788L40.6213 20.1215L41.1213 19.6215L36.8787 15.3788ZM36.3787 15.8788L35.8787 16.3788L40.1213 20.6215L40.6213 20.1215L36.3787 15.8788ZM35.8787 16.3788L35.3787 16.8788L39.6213 21.1215L40.1213 20.6215L35.8787 16.3788ZM35.3787 16.8788L34.8787 17.3788L39.1213 21.6215L39.6213 21.1215L35.3787 16.8788ZM17.3934 22.1362C23.2513 27.9941 32.7487 27.9941 38.6066 22.1362L34.364 17.8936C30.8492 21.4083 25.1508 21.4083 21.636 17.8935L17.3934 22.1362ZM45.636 17.8935L43.1213 15.3788L38.8787 19.6215L41.3934 22.1362L45.636 17.8935ZM58.8787 17.3788L58.364 17.8935L62.6066 22.1362L63.1213 21.6215L58.8787 17.3788ZM60.8787 15.3788L60.3787 15.8788L64.6213 20.1215L65.1213 19.6215L60.8787 15.3788ZM60.3787 15.8788L59.8787 16.3788L64.1213 20.6215L64.6213 20.1215L60.3787 15.8788ZM59.8787 16.3788L59.3787 16.8788L63.6213 21.1215L64.1213 20.6215L59.8787 16.3788ZM59.3787 16.8788L58.8787 17.3788L63.1213 21.6215L63.6213 21.1215L59.3787 16.8788ZM41.3934 22.1362C47.2513 27.9941 56.7487 27.9941 62.6066 22.1362L58.364 17.8936C54.8492 21.4083 49.1508 21.4083 45.636 17.8935L41.3934 22.1362ZM69.636 17.8935L67.1213 15.3788L62.8787 19.6215L65.3934 22.1362L69.636 17.8935ZM65.3934 22.1362C68.3217 25.0645 72.1658 26.5296 76 26.5296V20.5296C73.6921 20.5296 71.394 19.6515 69.636 17.8935L65.3934 22.1362ZM65.1213 19.6215C64.502 20.2408 63.498 20.2408 62.8787 19.6215L67.1213 15.3788C65.3975 13.655 62.6025 13.655 60.8787 15.3788L65.1213 19.6215ZM41.1213 19.6215C40.502 20.2408 39.498 20.2408 38.8787 19.6215L43.1213 15.3788C41.3975 13.655 38.6025 13.655 36.8787 15.3788L41.1213 19.6215ZM17.1213 19.6215C16.502 20.2408 15.498 20.2408 14.8787 19.6215L19.1213 15.3788C17.3975 13.655 14.6025 13.655 12.8787 15.3788L17.1213 19.6215Z" fill="currentColor" />
  <path d="M13 33.2287L15.1213 35.35L15.1213 35.35L13 33.2287ZM12.4853 33.7434L10.364 31.6221L10.364 31.6221L12.4853 33.7434ZM14.5 31.7287L16.6213 33.85V33.85L14.5 31.7287ZM13.5 32.7287L11.3787 30.6073L11.3787 30.6073L13.5 32.7287ZM4 34.2581C2.34315 34.2581 1 35.6013 1 37.2581C1 38.915 2.34315 40.2581 4 40.2581L4 34.2581ZM19.5147 33.7434L21.636 31.6221V31.6221L19.5147 33.7434ZM37 33.2287L39.1213 35.35L39.1213 35.35L37 33.2287ZM36.4853 33.7434L34.364 31.6221L34.364 31.6221L36.4853 33.7434ZM38.5 31.7287L40.6213 33.85V33.85L38.5 31.7287ZM37.5 32.7287L35.3787 30.6073V30.6073L37.5 32.7287ZM43.5147 33.7434L41.3934 35.8647V35.8647L43.5147 33.7434ZM61 33.2287L63.1213 35.35L63.1213 35.35L61 33.2287ZM60.4853 33.7434L58.364 31.6221L58.364 31.6221L60.4853 33.7434ZM62.5 31.7287L64.6213 33.85V33.85L62.5 31.7287ZM61.5 32.7287L59.3787 30.6073L59.3787 30.6073L61.5 32.7287ZM67.5147 33.7434L69.636 31.6221V31.6221L67.5147 33.7434ZM76 40.2581C77.6569 40.2581 79 38.915 79 37.2581C79 35.6013 77.6569 34.2581 76 34.2581V40.2581ZM65 31.2287L67.1213 29.1073L65 31.2287ZM41 31.2287L43.1213 29.1073L41 31.2287ZM10.8787 31.1073L10.364 31.6221L14.6066 35.8647L15.1213 35.35L10.8787 31.1073ZM12.8787 29.1073L12.3787 29.6073L16.6213 33.85L17.1213 33.35L12.8787 29.1073ZM12.3787 29.6073L11.8787 30.1073L16.1213 34.35L16.6213 33.85L12.3787 29.6073ZM11.8787 30.1073L11.3787 30.6073L15.6213 34.85L16.1213 34.35L11.8787 30.1073ZM11.3787 30.6073L10.8787 31.1073L15.1213 35.35L15.6213 34.85L11.3787 30.6073ZM4 40.2581C7.83419 40.2581 11.6783 38.7931 14.6066 35.8647L10.364 31.6221C8.60601 33.38 6.30795 34.2581 4 34.2581L4 40.2581ZM21.636 31.6221L19.1213 29.1073L14.8787 33.35L17.3934 35.8647L21.636 31.6221ZM34.8787 31.1073L34.364 31.6221L38.6066 35.8647L39.1213 35.35L34.8787 31.1073ZM36.8787 29.1073L36.3787 29.6073L40.6213 33.85L41.1213 33.35L36.8787 29.1073ZM36.3787 29.6073L35.8787 30.1073L40.1213 34.35L40.6213 33.85L36.3787 29.6073ZM35.8787 30.1073L35.3787 30.6073L39.6213 34.85L40.1213 34.35L35.8787 30.1073ZM35.3787 30.6073L34.8787 31.1073L39.1213 35.35L39.6213 34.85L35.3787 30.6073ZM17.3934 35.8647C23.2513 41.7226 32.7487 41.7226 38.6066 35.8647L34.364 31.6221C30.8492 35.1368 25.1508 35.1368 21.636 31.6221L17.3934 35.8647ZM45.636 31.6221L43.1213 29.1073L38.8787 33.35L41.3934 35.8647L45.636 31.6221ZM58.8787 31.1073L58.364 31.6221L62.6066 35.8647L63.1213 35.35L58.8787 31.1073ZM60.8787 29.1073L60.3787 29.6073L64.6213 33.85L65.1213 33.35L60.8787 29.1073ZM60.3787 29.6073L59.8787 30.1073L64.1213 34.35L64.6213 33.85L60.3787 29.6073ZM59.8787 30.1073L59.3787 30.6073L63.6213 34.85L64.1213 34.35L59.8787 30.1073ZM59.3787 30.6073L58.8787 31.1073L63.1213 35.35L63.6213 34.85L59.3787 30.6073ZM41.3934 35.8647C47.2513 41.7226 56.7487 41.7226 62.6066 35.8647L58.364 31.6221C54.8492 35.1368 49.1508 35.1368 45.636 31.6221L41.3934 35.8647ZM69.636 31.6221L67.1213 29.1073L62.8787 33.35L65.3934 35.8647L69.636 31.6221ZM65.3934 35.8647C68.3217 38.7931 72.1658 40.2581 76 40.2581V34.2581C73.6921 34.2581 71.394 33.38 69.636 31.6221L65.3934 35.8647ZM65.1213 33.35C64.502 33.9693 63.498 33.9693 62.8787 33.35L67.1213 29.1073C65.3975 27.3835 62.6025 27.3835 60.8787 29.1073L65.1213 33.35ZM41.1213 33.35C40.502 33.9693 39.498 33.9693 38.8787 33.35L43.1213 29.1073C41.3975 27.3835 38.6025 27.3835 36.8787 29.1073L41.1213 33.35ZM17.1213 33.35C16.502 33.9693 15.498 33.9693 14.8787 33.35L19.1213 29.1073C17.3975 27.3835 14.6025 27.3835 12.8787 29.1073L17.1213 33.35Z" fill="currentColor" />
  <path d="M13 46.9572L15.1213 49.0785L15.1213 49.0785L13 46.9572ZM12.4853 47.4719L10.364 45.3506L10.364 45.3506L12.4853 47.4719ZM14.5 45.4572L16.6213 47.5785V47.5785L14.5 45.4572ZM13.5 46.4572L11.3787 44.3359L11.3787 44.3359L13.5 46.4572ZM4 47.9866C2.34315 47.9866 1 49.3298 1 50.9866C1 52.6435 2.34315 53.9866 4 53.9866L4 47.9866ZM19.5147 47.4719L21.636 45.3506V45.3506L19.5147 47.4719ZM37 46.9572L39.1213 49.0785L39.1213 49.0785L37 46.9572ZM36.4853 47.4719L34.364 45.3506L34.364 45.3506L36.4853 47.4719ZM38.5 45.4572L40.6213 47.5785V47.5785L38.5 45.4572ZM37.5 46.4572L35.3787 44.3359V44.3359L37.5 46.4572ZM43.5147 47.4719L41.3934 49.5932V49.5932L43.5147 47.4719ZM61 46.9572L63.1213 49.0785L63.1213 49.0785L61 46.9572ZM60.4853 47.4719L58.364 45.3506L58.364 45.3506L60.4853 47.4719ZM62.5 45.4572L64.6213 47.5785V47.5785L62.5 45.4572ZM61.5 46.4572L59.3787 44.3359L59.3787 44.3359L61.5 46.4572ZM67.5147 47.4719L69.636 45.3506V45.3506L67.5147 47.4719ZM76 53.9866C77.6569 53.9866 79 52.6435 79 50.9866C79 49.3298 77.6569 47.9866 76 47.9866V53.9866ZM65 44.9572L67.1213 42.8359L65 44.9572ZM41 44.9572L43.1213 42.8359L41 44.9572ZM10.8787 44.8359L10.364 45.3506L14.6066 49.5932L15.1213 49.0785L10.8787 44.8359ZM12.8787 42.8359L12.3787 43.3359L16.6213 47.5785L17.1213 47.0785L12.8787 42.8359ZM12.3787 43.3359L11.8787 43.8359L16.1213 48.0785L16.6213 47.5785L12.3787 43.3359ZM11.8787 43.8359L11.3787 44.3359L15.6213 48.5785L16.1213 48.0785L11.8787 43.8359ZM11.3787 44.3359L10.8787 44.8359L15.1213 49.0785L15.6213 48.5785L11.3787 44.3359ZM4 53.9866C7.83419 53.9866 11.6783 52.5216 14.6066 49.5932L10.364 45.3506C8.60601 47.1085 6.30795 47.9866 4 47.9866L4 53.9866ZM21.636 45.3506L19.1213 42.8359L14.8787 47.0785L17.3934 49.5932L21.636 45.3506ZM34.8787 44.8359L34.364 45.3506L38.6066 49.5932L39.1213 49.0785L34.8787 44.8359ZM36.8787 42.8359L36.3787 43.3359L40.6213 47.5785L41.1213 47.0785L36.8787 42.8359ZM36.3787 43.3359L35.8787 43.8359L40.1213 48.0785L40.6213 47.5785L36.3787 43.3359ZM35.8787 43.8359L35.3787 44.3359L39.6213 48.5785L40.1213 48.0785L35.8787 43.8359ZM35.3787 44.3359L34.8787 44.8359L39.1213 49.0785L39.6213 48.5785L35.3787 44.3359ZM17.3934 49.5932C23.2513 55.4511 32.7487 55.4511 38.6066 49.5932L34.364 45.3506C30.8492 48.8653 25.1508 48.8653 21.636 45.3506L17.3934 49.5932ZM45.636 45.3506L43.1213 42.8359L38.8787 47.0785L41.3934 49.5932L45.636 45.3506ZM58.8787 44.8359L58.364 45.3506L62.6066 49.5932L63.1213 49.0785L58.8787 44.8359ZM60.8787 42.8359L60.3787 43.3359L64.6213 47.5785L65.1213 47.0785L60.8787 42.8359ZM60.3787 43.3359L59.8787 43.8359L64.1213 48.0785L64.6213 47.5785L60.3787 43.3359ZM59.8787 43.8359L59.3787 44.3359L63.6213 48.5785L64.1213 48.0785L59.8787 43.8359ZM59.3787 44.3359L58.8787 44.8359L63.1213 49.0785L63.6213 48.5785L59.3787 44.3359ZM41.3934 49.5932C47.2513 55.4511 56.7487 55.4511 62.6066 49.5932L58.364 45.3506C54.8492 48.8653 49.1508 48.8653 45.636 45.3506L41.3934 49.5932ZM69.636 45.3506L67.1213 42.8359L62.8787 47.0785L65.3934 49.5932L69.636 45.3506ZM65.3934 49.5932C68.3217 52.5216 72.1658 53.9866 76 53.9866V47.9866C73.6921 47.9866 71.394 47.1085 69.636 45.3506L65.3934 49.5932ZM65.1213 47.0785C64.502 47.6978 63.498 47.6978 62.8787 47.0785L67.1213 42.8359C65.3975 41.112 62.6025 41.112 60.8787 42.8359L65.1213 47.0785ZM41.1213 47.0785C40.502 47.6978 39.498 47.6978 38.8787 47.0785L43.1213 42.8359C41.3975 41.112 38.6025 41.112 36.8787 42.8359L41.1213 47.0785ZM17.1213 47.0785C16.502 47.6978 15.498 47.6978 14.8787 47.0785L19.1213 42.8359C17.3975 41.112 14.6025 41.112 12.8787 42.8359L17.1213 47.0785Z" fill="currentColor" />
  <path d="M13 60.6857L15.1213 62.807L15.1213 62.807L13 60.6857ZM12.4853 61.2004L10.364 59.0791L10.364 59.0791L12.4853 61.2004ZM14.5 59.1857L16.6213 61.307V61.307L14.5 59.1857ZM13.5 60.1857L11.3787 58.0644L11.3787 58.0644L13.5 60.1857ZM4 61.7151C2.34315 61.7151 1 63.0583 1 64.7151C1 66.372 2.34315 67.7151 4 67.7151L4 61.7151ZM19.5147 61.2004L21.636 59.0791V59.0791L19.5147 61.2004ZM37 60.6857L39.1213 62.807L39.1213 62.807L37 60.6857ZM36.4853 61.2004L34.364 59.0791L34.364 59.0791L36.4853 61.2004ZM38.5 59.1857L40.6213 61.307V61.307L38.5 59.1857ZM37.5 60.1857L35.3787 58.0644V58.0644L37.5 60.1857ZM43.5147 61.2004L41.3934 63.3217V63.3217L43.5147 61.2004ZM61 60.6857L63.1213 62.807L63.1213 62.807L61 60.6857ZM60.4853 61.2004L58.364 59.0791L58.364 59.0791L60.4853 61.2004ZM62.5 59.1857L64.6213 61.307V61.307L62.5 59.1857ZM61.5 60.1857L59.3787 58.0644L59.3787 58.0644L61.5 60.1857ZM67.5147 61.2004L69.636 59.0791V59.0791L67.5147 61.2004ZM76 67.7151C77.6569 67.7151 79 66.372 79 64.7151C79 63.0583 77.6569 61.7151 76 61.7151V67.7151ZM65 58.6857L67.1213 56.5644L65 58.6857ZM41 58.6857L43.1213 56.5644L41 58.6857ZM10.8787 58.5644L10.364 59.0791L14.6066 63.3217L15.1213 62.807L10.8787 58.5644ZM12.8787 56.5644L12.3787 57.0644L16.6213 61.307L17.1213 60.807L12.8787 56.5644ZM12.3787 57.0644L11.8787 57.5644L16.1213 61.807L16.6213 61.307L12.3787 57.0644ZM11.8787 57.5644L11.3787 58.0644L15.6213 62.307L16.1213 61.807L11.8787 57.5644ZM11.3787 58.0644L10.8787 58.5644L15.1213 62.807L15.6213 62.307L11.3787 58.0644ZM4 67.7151C7.83419 67.7151 11.6783 66.2501 14.6066 63.3217L10.364 59.0791C8.60601 60.837 6.30795 61.7151 4 61.7151L4 67.7151ZM21.636 59.0791L19.1213 56.5644L14.8787 60.807L17.3934 63.3217L21.636 59.0791ZM34.8787 58.5644L34.364 59.0791L38.6066 63.3217L39.1213 62.807L34.8787 58.5644ZM36.8787 56.5644L36.3787 57.0644L40.6213 61.307L41.1213 60.807L36.8787 56.5644ZM36.3787 57.0644L35.8787 57.5644L40.1213 61.807L40.6213 61.307L36.3787 57.0644ZM35.8787 57.5644L35.3787 58.0644L39.6213 62.307L40.1213 61.807L35.8787 57.5644ZM35.3787 58.0644L34.8787 58.5644L39.1213 62.807L39.6213 62.307L35.3787 58.0644ZM17.3934 63.3217C23.2513 69.1796 32.7487 69.1796 38.6066 63.3217L34.364 59.0791C30.8492 62.5938 25.1508 62.5938 21.636 59.0791L17.3934 63.3217ZM45.636 59.0791L43.1213 56.5644L38.8787 60.807L41.3934 63.3217L45.636 59.0791ZM58.8787 58.5644L58.364 59.0791L62.6066 63.3217L63.1213 62.807L58.8787 58.5644ZM60.8787 56.5644L60.3787 57.0644L64.6213 61.307L65.1213 60.807L60.8787 56.5644ZM60.3787 57.0644L59.8787 57.5644L64.1213 61.807L64.6213 61.307L60.3787 57.0644ZM59.8787 57.5644L59.3787 58.0644L63.6213 62.307L64.1213 61.807L59.8787 57.5644ZM59.3787 58.0644L58.8787 58.5644L63.1213 62.807L63.6213 62.307L59.3787 58.0644ZM41.3934 63.3217C47.2513 69.1796 56.7487 69.1796 62.6066 63.3217L58.364 59.0791C54.8492 62.5938 49.1508 62.5938 45.636 59.0791L41.3934 63.3217ZM69.636 59.0791L67.1213 56.5644L62.8787 60.807L65.3934 63.3217L69.636 59.0791ZM65.3934 63.3217C68.3217 66.2501 72.1658 67.7151 76 67.7151V61.7151C73.6921 61.7151 71.394 60.837 69.636 59.0791L65.3934 63.3217ZM65.1213 60.807C64.502 61.4263 63.498 61.4263 62.8787 60.807L67.1213 56.5644C65.3975 54.8405 62.6025 54.8405 60.8787 56.5644L65.1213 60.807ZM41.1213 60.807C40.502 61.4263 39.498 61.4263 38.8787 60.807L43.1213 56.5644C41.3975 54.8405 38.6025 54.8405 36.8787 56.5644L41.1213 60.807ZM17.1213 60.807C16.502 61.4263 15.498 61.4263 14.8787 60.807L19.1213 56.5644C17.3975 54.8405 14.6025 54.8405 12.8787 56.5644L17.1213 60.807Z" fill="currentColor" />
</svg>