<svg width="80" height="80" viewBox="0 0 80 80" fill="none" xmlns="http://www.w3.org/2000/svg">
  <path d="M31 23.5002L33.1213 25.6215L33.1213 25.6215L31 23.5002ZM30.4853 24.0149L28.364 21.8936L28.364 21.8936L30.4853 24.0149ZM32.5 22.0002L34.6213 24.1215V24.1215L32.5 22.0002ZM31.5 23.0002L29.3787 20.8788L29.3787 20.8788L31.5 23.0002ZM22 24.5296C20.3431 24.5296 19 25.8727 19 27.5296C19 29.1864 20.3431 30.5296 22 30.5296V24.5296ZM37.5147 24.0149L39.636 21.8935V21.8935L37.5147 24.0149ZM55 23.5002L57.1213 25.6215L57.1213 25.6215L55 23.5002ZM54.4853 24.0149L52.364 21.8935L52.364 21.8936L54.4853 24.0149ZM56.5 22.0002L58.6213 24.1215V24.1215L56.5 22.0002ZM55.5 23.0002L53.3787 20.8788V20.8788L55.5 23.0002ZM61.5147 24.0149L59.3934 26.1362L59.3934 26.1362L61.5147 24.0149ZM70 30.5296C71.6569 30.5296 73 29.1864 73 27.5296C73 25.8727 71.6569 24.5296 70 24.5296V30.5296ZM59 21.5002L61.1213 19.3788L59 21.5002ZM35 21.5002L37.1213 19.3788L35 21.5002ZM28.8787 21.3788L28.364 21.8936L32.6066 26.1362L33.1213 25.6215L28.8787 21.3788ZM30.8787 19.3788L30.3787 19.8788L34.6213 24.1215L35.1213 23.6215L30.8787 19.3788ZM30.3787 19.8788L29.8787 20.3788L34.1213 24.6215L34.6213 24.1215L30.3787 19.8788ZM29.8787 20.3788L29.3787 20.8788L33.6213 25.1215L34.1213 24.6215L29.8787 20.3788ZM29.3787 20.8788L28.8787 21.3788L33.1213 25.6215L33.6213 25.1215L29.3787 20.8788ZM22 30.5296C25.8342 30.5296 29.6783 29.0645 32.6066 26.1362L28.364 21.8936C26.606 23.6515 24.3079 24.5296 22 24.5296V30.5296ZM39.636 21.8935L37.1213 19.3788L32.8787 23.6215L35.3934 26.1362L39.636 21.8935ZM52.8787 21.3788L52.364 21.8935L56.6066 26.1362L57.1213 25.6215L52.8787 21.3788ZM54.8787 19.3788L54.3787 19.8788L58.6213 24.1215L59.1213 23.6215L54.8787 19.3788ZM54.3787 19.8788L53.8787 20.3788L58.1213 24.6215L58.6213 24.1215L54.3787 19.8788ZM53.8787 20.3788L53.3787 20.8788L57.6213 25.1215L58.1213 24.6215L53.8787 20.3788ZM53.3787 20.8788L52.8787 21.3788L57.1213 25.6215L57.6213 25.1215L53.3787 20.8788ZM35.3934 26.1362C41.2513 31.9941 50.7487 31.9941 56.6066 26.1362L52.364 21.8936C48.8492 25.4083 43.1508 25.4083 39.636 21.8935L35.3934 26.1362ZM63.636 21.8935L61.1213 19.3788L56.8787 23.6215L59.3934 26.1362L63.636 21.8935ZM59.3934 26.1362C62.3217 29.0645 66.1658 30.5296 70 30.5296V24.5296C67.6921 24.5296 65.394 23.6515 63.636 21.8935L59.3934 26.1362ZM59.1213 23.6215C58.502 24.2408 57.498 24.2408 56.8787 23.6215L61.1213 19.3788C59.3975 17.655 56.6025 17.655 54.8787 19.3788L59.1213 23.6215ZM35.1213 23.6215C34.502 24.2408 33.498 24.2408 32.8787 23.6215L37.1213 19.3788C35.3975 17.655 32.6025 17.655 30.8787 19.3788L35.1213 23.6215Z" fill="currentColor" />
  <path d="M31 54.9572L33.1213 57.0785L33.1213 57.0785L31 54.9572ZM30.4853 55.4719L28.364 53.3506L28.364 53.3506L30.4853 55.4719ZM32.5 53.4572L34.6213 55.5785V55.5785L32.5 53.4572ZM31.5 54.4572L29.3787 52.3359L29.3787 52.3359L31.5 54.4572ZM22 55.9866C20.3431 55.9866 19 57.3298 19 58.9866C19 60.6435 20.3431 61.9866 22 61.9866V55.9866ZM37.5147 55.4719L39.636 53.3506V53.3506L37.5147 55.4719ZM55 54.9572L57.1213 57.0785L57.1213 57.0785L55 54.9572ZM54.4853 55.4719L52.364 53.3506L52.364 53.3506L54.4853 55.4719ZM56.5 53.4572L58.6213 55.5785V55.5785L56.5 53.4572ZM55.5 54.4572L53.3787 52.3359V52.3359L55.5 54.4572ZM61.5147 55.4719L59.3934 57.5932L59.3934 57.5932L61.5147 55.4719ZM70 61.9866C71.6569 61.9866 73 60.6435 73 58.9866C73 57.3298 71.6569 55.9866 70 55.9866V61.9866ZM59 52.9572L61.1213 50.8359L59 52.9572ZM35 52.9572L37.1213 50.8359L35 52.9572ZM28.8787 52.8359L28.364 53.3506L32.6066 57.5932L33.1213 57.0785L28.8787 52.8359ZM30.8787 50.8359L30.3787 51.3359L34.6213 55.5785L35.1213 55.0785L30.8787 50.8359ZM30.3787 51.3359L29.8787 51.8359L34.1213 56.0785L34.6213 55.5785L30.3787 51.3359ZM29.8787 51.8359L29.3787 52.3359L33.6213 56.5785L34.1213 56.0785L29.8787 51.8359ZM29.3787 52.3359L28.8787 52.8359L33.1213 57.0785L33.6213 56.5785L29.3787 52.3359ZM22 61.9866C25.8342 61.9866 29.6783 60.5216 32.6066 57.5932L28.364 53.3506C26.606 55.1085 24.3079 55.9866 22 55.9866V61.9866ZM39.636 53.3506L37.1213 50.8359L32.8787 55.0785L35.3934 57.5932L39.636 53.3506ZM52.8787 52.8359L52.364 53.3506L56.6066 57.5932L57.1213 57.0785L52.8787 52.8359ZM54.8787 50.8359L54.3787 51.3359L58.6213 55.5785L59.1213 55.0785L54.8787 50.8359ZM54.3787 51.3359L53.8787 51.8359L58.1213 56.0785L58.6213 55.5785L54.3787 51.3359ZM53.8787 51.8359L53.3787 52.3359L57.6213 56.5785L58.1213 56.0785L53.8787 51.8359ZM53.3787 52.3359L52.8787 52.8359L57.1213 57.0785L57.6213 56.5785L53.3787 52.3359ZM35.3934 57.5932C41.2513 63.4511 50.7487 63.4511 56.6066 57.5932L52.364 53.3506C48.8492 56.8653 43.1508 56.8653 39.636 53.3506L35.3934 57.5932ZM63.636 53.3506L61.1213 50.8359L56.8787 55.0785L59.3934 57.5932L63.636 53.3506ZM59.3934 57.5932C62.3217 60.5216 66.1658 61.9866 70 61.9866V55.9866C67.6921 55.9866 65.394 55.1085 63.636 53.3506L59.3934 57.5932ZM59.1213 55.0785C58.502 55.6978 57.498 55.6978 56.8787 55.0785L61.1213 50.8359C59.3975 49.112 56.6025 49.112 54.8787 50.8359L59.1213 55.0785ZM35.1213 55.0785C34.502 55.6978 33.498 55.6978 32.8787 55.0785L37.1213 50.8359C35.3975 49.112 32.6025 49.112 30.8787 50.8359L35.1213 55.0785Z" fill="currentColor" />
  <path d="M19 39.2287L21.1213 41.35L21.1213 41.35L19 39.2287ZM18.4853 39.7434L16.364 37.6221L16.364 37.6221L18.4853 39.7434ZM20.5 37.7287L22.6213 39.85V39.85L20.5 37.7287ZM19.5 38.7287L17.3787 36.6073L17.3787 36.6073L19.5 38.7287ZM10 40.2581C8.34315 40.2581 7 41.6013 7 43.2581C7 44.915 8.34315 46.2581 10 46.2581L10 40.2581ZM25.5147 39.7434L27.636 37.6221V37.6221L25.5147 39.7434ZM43 39.2287L45.1213 41.35L45.1213 41.35L43 39.2287ZM42.4853 39.7434L40.364 37.6221L40.364 37.6221L42.4853 39.7434ZM44.5 37.7287L46.6213 39.85V39.85L44.5 37.7287ZM43.5 38.7287L41.3787 36.6073V36.6073L43.5 38.7287ZM49.5147 39.7434L47.3934 41.8647L47.3934 41.8647L49.5147 39.7434ZM58 46.2581C59.6569 46.2581 61 44.915 61 43.2581C61 41.6013 59.6569 40.2581 58 40.2581V46.2581ZM47 37.2287L49.1213 35.1073L47 37.2287ZM23 37.2287L25.1213 35.1073L23 37.2287ZM16.8787 37.1073L16.364 37.6221L20.6066 41.8647L21.1213 41.35L16.8787 37.1073ZM18.8787 35.1073L18.3787 35.6073L22.6213 39.85L23.1213 39.35L18.8787 35.1073ZM18.3787 35.6073L17.8787 36.1073L22.1213 40.35L22.6213 39.85L18.3787 35.6073ZM17.8787 36.1073L17.3787 36.6073L21.6213 40.85L22.1213 40.35L17.8787 36.1073ZM17.3787 36.6073L16.8787 37.1073L21.1213 41.35L21.6213 40.85L17.3787 36.6073ZM10 46.2581C13.8342 46.2581 17.6783 44.7931 20.6066 41.8647L16.364 37.6221C14.606 39.38 12.3079 40.2581 10 40.2581L10 46.2581ZM27.636 37.6221L25.1213 35.1073L20.8787 39.35L23.3934 41.8647L27.636 37.6221ZM40.8787 37.1073L40.364 37.6221L44.6066 41.8647L45.1213 41.35L40.8787 37.1073ZM42.8787 35.1073L42.3787 35.6073L46.6213 39.85L47.1213 39.35L42.8787 35.1073ZM42.3787 35.6073L41.8787 36.1073L46.1213 40.35L46.6213 39.85L42.3787 35.6073ZM41.8787 36.1073L41.3787 36.6073L45.6213 40.85L46.1213 40.35L41.8787 36.1073ZM41.3787 36.6073L40.8787 37.1073L45.1213 41.35L45.6213 40.85L41.3787 36.6073ZM23.3934 41.8647C29.2513 47.7226 38.7487 47.7226 44.6066 41.8647L40.364 37.6221C36.8492 41.1368 31.1508 41.1368 27.636 37.6221L23.3934 41.8647ZM51.636 37.6221L49.1213 35.1073L44.8787 39.35L47.3934 41.8647L51.636 37.6221ZM47.3934 41.8647C50.3217 44.7931 54.1658 46.2581 58 46.2581V40.2581C55.6921 40.2581 53.394 39.38 51.636 37.6221L47.3934 41.8647ZM47.1213 39.35C46.502 39.9693 45.498 39.9693 44.8787 39.35L49.1213 35.1073C47.3975 33.3835 44.6025 33.3835 42.8787 35.1073L47.1213 39.35ZM23.1213 39.35C22.502 39.9693 21.498 39.9693 20.8787 39.35L25.1213 35.1073C23.3975 33.3835 20.6025 33.3835 18.8787 35.1073L23.1213 39.35Z" fill="currentColor" />
</svg>