<svg width="80" height="80" viewBox="0 0 80 80" fill="none" xmlns="http://www.w3.org/2000/svg">
  <circle cx="40" cy="60" r="4" fill="currentColor" stroke="currentColor" stroke-width="4" stroke-linecap="round" stroke-linejoin="round" />
  <path d="M30.2821 47.9364L28.4117 45.5909L30.2821 47.9364ZM36.5368 44.9243L37.2044 47.8491H37.2044L36.5368 44.9243ZM24.344 50.104C23.4507 51.4994 23.8577 53.3548 25.2531 54.2481C26.6485 55.1414 28.5039 54.7344 29.3972 53.3391L24.344 50.104ZM49.7336 47.9364L47.8631 50.2819L49.7336 47.9364ZM50.6172 53.337C51.5108 54.7322 53.3663 55.1388 54.7615 54.2452C56.1567 53.3516 56.5633 51.4961 55.6697 50.1009L50.6172 53.337ZM43.4789 44.9243L42.8114 47.8491H42.8114L43.4789 44.9243ZM22.9878 36.7895L24.8582 39.135L24.8582 39.135L22.9878 36.7895ZM33.9334 31.5184L33.2658 28.5936L33.9334 31.5184ZM15.8765 39.8113C14.8746 41.1309 15.1322 43.0129 16.4518 44.0147C17.7714 45.0166 19.6534 44.759 20.6553 43.4394L15.8765 39.8113ZM57.0278 36.7895L55.1573 39.135H55.1573L57.0278 36.7895ZM59.3588 43.4374C60.3608 44.7569 62.2427 45.0143 63.5623 44.0123C64.8818 43.0103 65.1392 41.1283 64.1372 39.8088L59.3588 43.4374ZM46.0821 31.5184L46.7497 28.5936H46.7497L46.0821 31.5184ZM15.6875 25.6476L13.8171 23.3021L13.8171 23.3021L15.6875 25.6476ZM31.3242 18.1174L31.9917 21.0422L31.3242 18.1174ZM7.37544 29.6929C6.33219 30.9801 6.52992 32.8693 7.81708 33.9125C9.10425 34.9558 10.9934 34.7581 12.0367 33.4709L7.37544 29.6929ZM64.3161 25.6476L66.1866 23.3021V23.3021L64.3161 25.6476ZM67.9707 33.4754C69.0137 34.7628 70.9029 34.9608 72.1902 33.9178C73.4776 32.8747 73.6756 30.9856 72.6325 29.6983L67.9707 33.4754ZM48.6795 18.1174L48.012 21.0422L48.6795 18.1174ZM32.1526 50.2819C33.6324 49.1018 35.3591 48.2703 37.2044 47.8491L35.8692 41.9995C33.1452 42.6213 30.5962 43.8488 28.4117 45.5909L32.1526 50.2819ZM29.3972 53.3391C30.14 52.1787 31.0701 51.1451 32.1526 50.2819L28.4117 45.5909C26.8136 46.8653 25.4406 48.3911 24.344 50.104L29.3972 53.3391ZM47.8631 50.2819C48.945 51.1446 49.8746 52.1775 50.6172 53.337L55.6697 50.1009C54.5734 48.3893 53.2011 46.8645 51.6041 45.5909L47.8631 50.2819ZM42.8114 47.8491C44.6567 48.2703 46.3833 49.1018 47.8631 50.2819L51.6041 45.5909C49.4195 43.8488 46.8706 42.6213 44.1465 41.9995L42.8114 47.8491ZM44.1465 41.9995C41.4224 41.3778 38.5933 41.3778 35.8692 41.9995L37.2044 47.8491C39.0496 47.4279 40.9661 47.4279 42.8114 47.8491L44.1465 41.9995ZM24.8582 39.135C27.7122 36.8591 31.0422 35.2555 34.601 34.4432L33.2658 28.5936C28.8283 29.6065 24.6759 31.6061 21.1173 34.4441L24.8582 39.135ZM20.6553 43.4394C21.8688 41.841 23.2794 40.3941 24.8582 39.135L21.1173 34.4441C19.1486 36.014 17.3896 37.8182 15.8765 39.8113L20.6553 43.4394ZM55.1573 39.135C56.7355 40.3936 58.1456 41.8398 59.3588 43.4374L64.1372 39.8088C62.6244 37.8167 60.8661 36.0134 58.8983 34.4441L55.1573 39.135ZM45.4146 34.4432C48.9734 35.2555 52.3034 36.8591 55.1573 39.135L58.8983 34.4441C55.3396 31.6061 51.1873 29.6065 46.7497 28.5936L45.4146 34.4432ZM46.7497 28.5936C42.3122 27.5808 37.7034 27.5808 33.2658 28.5936L34.601 34.4432C38.1597 33.6309 41.8558 33.6309 45.4146 34.4432L46.7497 28.5936ZM17.558 27.9931C21.786 24.6213 26.7194 22.2455 31.9917 21.0422L30.6566 15.1926C24.5055 16.5965 18.7498 19.3683 13.8171 23.3021L17.558 27.9931ZM12.0367 33.4709C13.6688 31.4572 15.5187 29.6194 17.558 27.9931L13.8171 23.3021C11.4379 25.1995 9.27957 27.3436 7.37544 29.6929L12.0367 33.4709ZM62.4457 27.9931C64.4865 29.6206 66.3377 31.46 67.9707 33.4754L72.6325 29.6983C70.7274 27.3469 68.5676 25.2009 66.1866 23.3021L62.4457 27.9931ZM48.012 21.0422C53.2842 22.2455 58.2176 24.6213 62.4457 27.9931L66.1866 23.3021C61.2538 19.3683 55.4981 16.5965 49.3471 15.1926L48.012 21.0422ZM49.3471 15.1926C43.196 13.7887 36.8077 13.7887 30.6566 15.1926L31.9917 21.0422C37.264 19.8388 42.7397 19.8388 48.012 21.0422L49.3471 15.1926Z" fill="currentColor" />
</svg>