<svg width="80" height="80" viewBox="0 0 80 80" fill="none" xmlns="http://www.w3.org/2000/svg">
  <path d="M70.2136 34.0872L72.335 36.2085C73.2906 35.2529 73.4893 33.7763 72.8203 32.6021L70.2136 34.0872ZM41.4141 62.8867L43.5354 65.008H43.5354L41.4141 62.8867ZM38.5857 62.8867L40.707 60.7654L38.5857 62.8867ZM9.78613 34.0872L7.1795 32.6021C6.51051 33.7763 6.70921 35.2529 7.66481 36.2085L9.78613 34.0872ZM15.4114 26.7125L17.5328 28.8338L15.4114 26.7125ZM30.9999 17.7125L30.2234 14.8147V14.8147L30.9999 17.7125ZM48.9999 17.7125L48.2234 20.6102L48.9999 17.7125ZM64.5883 26.7125L66.7097 24.5911L64.5883 26.7125ZM68.0923 31.9659L39.2928 60.7654L43.5354 65.008L72.335 36.2085L68.0923 31.9659ZM39.2928 60.7654C39.6833 60.3749 40.3165 60.3749 40.707 60.7654L36.4644 65.008C38.417 66.9606 41.5828 66.9606 43.5354 65.008L39.2928 60.7654ZM40.707 60.7654L11.9075 31.9658L7.66481 36.2085L36.4644 65.008L40.707 60.7654ZM12.3928 35.5722C13.7916 33.1171 15.5176 30.849 17.5328 28.8338L13.2901 24.5911C10.8944 26.9869 8.84241 29.6833 7.1795 32.6021L12.3928 35.5722ZM17.5328 28.8338C21.4766 24.89 26.389 22.0538 31.7763 20.6102L30.2234 14.8147C23.8188 16.5308 17.9787 19.9026 13.2901 24.5911L17.5328 28.8338ZM31.7763 20.6102C37.1637 19.1667 42.8361 19.1667 48.2234 20.6102L49.7763 14.8147C43.3717 13.0986 36.6281 13.0986 30.2234 14.8147L31.7763 20.6102ZM48.2234 20.6102C53.6108 22.0538 58.5232 24.89 62.467 28.8338L66.7097 24.5911C62.0211 19.9026 56.181 16.5308 49.7763 14.8147L48.2234 20.6102ZM62.467 28.8338C64.4822 30.849 66.2082 33.1171 67.607 35.5723L72.8203 32.6021C71.1574 29.6833 69.1054 26.9869 66.7097 24.5911L62.467 28.8338Z" fill="currentColor" />
  <path fill-rule="evenodd" clip-rule="evenodd" d="M61.4604 42.8405L41.4141 62.8867C40.6331 63.6678 39.3667 63.6678 38.5857 62.8867L18.5396 42.8406C19.2569 41.9053 20.0368 41.015 20.8757 40.1762C24.2327 36.8192 28.4142 34.405 33 33.1762C37.5858 31.9474 42.4142 31.9474 47 33.1762C51.5858 34.405 55.7673 36.8192 59.1244 40.1762C59.9632 41.015 60.7431 41.9053 61.4604 42.8405Z" fill="currentColor" />
</svg>