<svg width="80" height="80" viewBox="0 0 80 80" fill="none" xmlns="http://www.w3.org/2000/svg">
  <path d="M53.5038 65.6641C54.4229 67.0427 56.2855 67.4152 57.6641 66.4962C59.0427 65.5771 59.4152 63.7145 58.4962 62.3359L53.5038 65.6641ZM26.4962 14.3359C25.5771 12.9573 23.7145 12.5848 22.3359 13.5038C20.9573 14.4229 20.5848 16.2855 21.5038 17.6641L26.4962 14.3359ZM21.5038 62.3359C20.5848 63.7145 20.9573 65.5771 22.3359 66.4962C23.7145 67.4152 25.5771 67.0427 26.4962 65.6641L21.5038 62.3359ZM58.4962 17.6641C59.4152 16.2855 59.0427 14.4229 57.6641 13.5038C56.2855 12.5848 54.4229 12.9573 53.5038 14.3359L58.4962 17.6641ZM58.4962 62.3359L26.4962 14.3359L21.5038 17.6641L53.5038 65.6641L58.4962 62.3359ZM26.4962 65.6641L58.4962 17.6641L53.5038 14.3359L21.5038 62.3359L26.4962 65.6641Z" fill="currentColor" />
</svg>