<svg viewBox="0 0 80 80" fill="none">
  <path fill-rule="evenodd" clip-rule="evenodd" d="M39.9998 27.4894C33.0903 27.4894 27.4891 33.0906 27.4891 40C27.4891 42.1926 28.0532 44.2535 29.044 46.0455L16.6387 24.5588L16.6387 24.5588C18.9414 21.0819 21.9996 18.149 25.5792 15.9941L26.4655 15.4824C30.4748 13.2645 35.0858 12.0014 39.9917 12H39.9998H40.0077C50.9718 12.0031 60.463 18.3079 65.0562 27.4894H39.9998Z" fill="#DE5347" />
  <path fill-rule="evenodd" clip-rule="evenodd" d="M50.7263 46.4429L38.3093 67.9497L38.2803 67.9999H40.0001C55.464 67.9999 68.0001 55.4639 68.0001 39.9999C68.0001 35.5033 66.9402 31.2545 65.0566 27.4893H40.0001C46.9095 27.4893 52.5107 33.0904 52.5107 39.9999C52.5107 42.1933 51.9462 44.2549 50.9546 46.0474L50.7263 46.4429Z" fill="#FFCD42" />
  <path fill-rule="evenodd" clip-rule="evenodd" d="M40 52.5107C44.5527 52.5107 48.5374 50.0789 50.726 46.4434L38.3093 67.9499C34.0319 67.695 30.0132 66.4801 26.4655 64.5176C26.1668 64.3523 25.8716 64.1818 25.5796 64.0061C17.4428 59.1077 12 50.1896 12 40.0001C12 34.2933 13.7073 28.9852 16.6389 24.5588L29.0453 46.0473L29.274 46.4433C31.4626 50.0789 35.4473 52.5107 40 52.5107Z" fill="#1CA261" />
  <path fill-rule="evenodd" clip-rule="evenodd" d="M40.0002 50.1276C45.5936 50.1276 50.1279 45.5933 50.1279 40C50.1279 34.4066 45.5936 29.8723 40.0002 29.8723C34.4069 29.8723 29.8726 34.4066 29.8726 40C29.8726 45.5933 34.4069 50.1276 40.0002 50.1276Z" fill="#4B8BF5" />
</svg>