<svg viewBox="0 0 80 80" fill="none">
  <path d="M5 29.8889C5 21.177 5 16.821 6.69545 13.4935C8.18682 10.5665 10.5665 8.18682 13.4935 6.69545C16.821 5 21.177 5 29.8889 5H50.1111C58.823 5 63.179 5 66.5065 6.69545C69.4335 8.18682 71.8132 10.5665 73.3045 13.4935C75 16.821 75 21.177 75 29.8889V50.1111C75 58.823 75 63.179 73.3045 66.5065C71.8132 69.4335 69.4335 71.8132 66.5065 73.3045C63.179 75 58.823 75 50.1111 75H29.8889C21.177 75 16.821 75 13.4935 73.3045C10.5665 71.8132 8.18682 69.4335 6.69545 66.5065C5 63.179 5 58.823 5 50.1111V29.8889Z" fill="url(#paint0_linear)" />
  <path d="M15.7785 28.7801C15 30.261 15 32.1996 15 36.0769V43.9231C15 47.8004 15 49.739 15.7785 51.2199C16.4633 52.5226 17.5561 53.5817 18.9001 54.2454C20.428 55 22.4282 55 26.4286 55H38.4921C42.4924 55 44.4926 55 46.0206 54.2454C47.3646 53.5817 48.4573 52.5226 49.1421 51.2199C49.9206 49.739 49.9206 47.8004 49.9206 43.9231V36.0769C49.9206 32.1996 49.9206 30.261 49.1421 28.7801C48.4573 27.4774 47.3646 26.4183 46.0206 25.7546C44.4926 25 42.4924 25 38.4921 25H26.4286C22.4282 25 20.428 25 18.9001 25.7546C17.5561 26.4183 16.4633 27.4774 15.7785 28.7801Z" fill="white" />
  <path d="M52.6432 33.5007L60.4378 27.1681C62.2455 25.6994 65 26.9451 65 29.2314V50.8335C65 53.1088 62.2685 54.3582 60.4564 52.9118L52.6644 46.6923C51.9322 46.1078 51.5079 45.2366 51.5079 44.3171V35.8588C51.5079 34.9487 51.9236 34.0854 52.6432 33.5007Z" fill="white" />
  <defs>
    <linearGradient id="paint0_linear" x1="40" y1="5" x2="40" y2="75" gradientUnits="userSpaceOnUse">
      <stop stop-color="#61F677" />
      <stop offset="1" stop-color="#10BC2B" />
    </linearGradient>
  </defs>
</svg>