<svg viewBox="0 0 80 80" fill="none">
  <path d="M29.5 71.4995C35.296 71.4995 40 66.7955 40 60.9995V50.4995H29.5C23.704 50.4995 19 55.2035 19 60.9995C19 66.7955 23.704 71.4995 29.5 71.4995Z" fill="#0ACF83" class="fill-green" />
  <path d="M19 40.0005C19 34.2045 23.704 29.5005 29.5 29.5005H40V50.5005H29.5C23.704 50.5005 19 45.7965 19 40.0005Z" fill="#A259FF" class="fill-purple" />
  <path d="M19.0005 19.0005C19.0005 13.2045 23.7045 8.50049 29.5005 8.50049H40.0005V29.5005H29.5005C23.7045 29.5005 19.0005 24.7965 19.0005 19.0005Z" fill="#F24E1E" class="fill-orange" />
  <path d="M40.0005 8.50049H50.5005C56.2965 8.50049 61.0005 13.2045 61.0005 19.0005C61.0005 24.7965 56.2965 29.5005 50.5005 29.5005H40.0005V8.50049Z" fill="#FF7262" class="fill-red" />
  <path d="M61.0005 40.0005C61.0005 45.7965 56.2965 50.5005 50.5005 50.5005C44.7045 50.5005 40.0005 45.7965 40.0005 40.0005C40.0005 34.2045 44.7045 29.5005 50.5005 29.5005C56.2965 29.5005 61.0005 34.2045 61.0005 40.0005Z" fill="#1ABCFE" class="fill-blue" />
</svg>