<svg viewBox="0 0 80 80" fill="none">
  <path d="M62.3625 22.8811C59.8703 19.6081 56.6671 16.9316 52.9899 15.0495C49.3126 13.1673 45.2549 12.1275 41.1173 12.0071C34.6169 11.8782 30.1265 13.8124 27.586 15.3675C30.9852 13.4153 35.9046 12.3079 40.2116 12.3626C51.2906 12.5012 63.1896 19.9725 64.9568 33.4389C66.9864 48.8972 56.1126 61.7989 40.8163 61.8383C23.9879 61.8806 13.7524 47.1265 16.428 33.8742C16.4777 33.2244 16.5743 32.5789 16.717 31.9428C17.0472 28.5463 18.044 25.2464 19.6516 22.2282C17.7136 23.2213 15.2459 26.362 14.0281 29.2712C12.2554 33.71 11.6304 38.5168 12.2099 43.2554C12.2519 43.6144 12.2896 43.9727 12.3372 44.3289C13.0629 48.4666 14.7272 52.3873 17.2046 55.7959C19.682 59.2047 22.9082 62.0123 26.6401 64.0077C30.3719 66.0031 34.5124 67.1341 38.7497 67.3157C42.9868 67.4973 47.2105 66.7246 51.1025 65.056C54.9945 63.3873 58.4535 60.8661 61.2191 57.6821C63.9847 54.4982 65.9848 50.7344 67.0687 46.6743C68.1527 42.6141 68.2924 38.3634 67.4772 34.242C66.662 30.1208 64.9132 26.2363 62.3625 22.8811Z" fill="url(#paint0_radial)" />
  <path opacity="0.67" d="M62.3625 22.8811C59.8703 19.6081 56.6671 16.9316 52.9899 15.0495C49.3126 13.1673 45.2549 12.1275 41.1173 12.0071C34.6169 11.8782 30.1265 13.8124 27.586 15.3675C30.9852 13.4153 35.9046 12.3079 40.2116 12.3626C51.2906 12.5012 63.1896 19.9725 64.9568 33.4389C66.9864 48.8972 56.1126 61.7989 40.8163 61.8383C23.9879 61.8806 13.7524 47.1265 16.428 33.8742C16.4777 33.2244 16.5743 32.5789 16.717 31.9428C17.0472 28.5463 18.044 25.2464 19.6516 22.2282C17.7136 23.2213 15.2459 26.362 14.0281 29.2712C12.2554 33.71 11.6304 38.5168 12.2099 43.2554C12.2519 43.6144 12.2896 43.9727 12.3372 44.3289C13.0629 48.4666 14.7272 52.3873 17.2046 55.7959C19.682 59.2047 22.9082 62.0123 26.6401 64.0077C30.3719 66.0031 34.5124 67.1341 38.7497 67.3157C42.9868 67.4973 47.2105 66.7246 51.1025 65.056C54.9945 63.3873 58.4535 60.8661 61.2191 57.6821C63.9847 54.4982 65.9848 50.7344 67.0687 46.6743C68.1527 42.6141 68.2924 38.3634 67.4772 34.242C66.662 30.1208 64.9132 26.2363 62.3625 22.8811Z" fill="url(#paint1_radial)" />
  <path d="M62.3625 22.8811C59.8703 19.6081 56.6671 16.9316 52.9899 15.0495C49.3126 13.1673 45.2549 12.1275 41.1173 12.0071C34.6169 11.8782 30.1265 13.8124 27.586 15.3675C30.9852 13.4153 35.9046 12.3079 40.2116 12.3626C51.2906 12.5012 63.1896 19.9725 64.9568 33.4389C66.9864 48.8972 56.1126 61.7989 40.8163 61.8383C23.9879 61.8806 13.7524 47.1265 16.428 33.8742C16.4777 33.2244 16.5743 32.5789 16.717 31.9428C17.0472 28.5463 18.044 25.2464 19.6516 22.2282C17.7136 23.2213 15.2459 26.362 14.0281 29.2712C12.2554 33.71 11.6304 38.5168 12.2099 43.2554C12.2519 43.6144 12.2896 43.9727 12.3372 44.3289C13.0629 48.4666 14.7272 52.3873 17.2046 55.7959C19.682 59.2047 22.9082 62.0123 26.6401 64.0077C30.3719 66.0031 34.5124 67.1341 38.7497 67.3157C42.9868 67.4973 47.2105 66.7246 51.1025 65.056C54.9945 63.3873 58.4535 60.8661 61.2191 57.6821C63.9847 54.4982 65.9848 50.7344 67.0687 46.6743C68.1527 42.6141 68.2924 38.3634 67.4772 34.242C66.662 30.1208 64.9132 26.2363 62.3625 22.8811Z" fill="url(#paint2_radial)" />
  <path d="M62.3625 22.8811C59.8703 19.6081 56.6671 16.9316 52.9899 15.0495C49.3126 13.1673 45.2549 12.1275 41.1173 12.0071C34.6169 11.8782 30.1265 13.8124 27.586 15.3675C30.9852 13.4153 35.9046 12.3079 40.2116 12.3626C51.2906 12.5012 63.1896 19.9725 64.9568 33.4389C66.9864 48.8972 56.1126 61.7989 40.8163 61.8383C23.9879 61.8806 13.7524 47.1265 16.428 33.8742C16.4777 33.2244 16.5743 32.5789 16.717 31.9428C17.0472 28.5463 18.044 25.2464 19.6516 22.2282C17.7136 23.2213 15.2459 26.362 14.0281 29.2712C12.2554 33.71 11.6304 38.5168 12.2099 43.2554C12.2519 43.6144 12.2896 43.9727 12.3372 44.3289C13.0629 48.4666 14.7272 52.3873 17.2046 55.7959C19.682 59.2047 22.9082 62.0123 26.6401 64.0077C30.3719 66.0031 34.5124 67.1341 38.7497 67.3157C42.9868 67.4973 47.2105 66.7246 51.1025 65.056C54.9945 63.3873 58.4535 60.8661 61.2191 57.6821C63.9847 54.4982 65.9848 50.7344 67.0687 46.6743C68.1527 42.6141 68.2924 38.3634 67.4772 34.242C66.662 30.1208 64.9132 26.2363 62.3625 22.8811Z" fill="url(#paint3_radial)" />
  <path d="M62.3625 22.8811C59.8703 19.6081 56.6671 16.9316 52.9899 15.0495C49.3126 13.1673 45.2549 12.1275 41.1173 12.0071C34.6169 11.8782 30.1265 13.8124 27.586 15.3675C30.9852 13.4153 35.9046 12.3079 40.2116 12.3626C51.2906 12.5012 63.1896 19.9725 64.9568 33.4389C66.9864 48.8972 56.1126 61.7989 40.8163 61.8383C23.9879 61.8806 13.7524 47.1265 16.428 33.8742C16.4777 33.2244 16.5743 32.5789 16.717 31.9428C17.0472 28.5463 18.044 25.2464 19.6516 22.2282C17.7136 23.2213 15.2459 26.362 14.0281 29.2712C12.2554 33.71 11.6304 38.5168 12.2099 43.2554C12.2519 43.6144 12.2896 43.9727 12.3372 44.3289C13.0629 48.4666 14.7272 52.3873 17.2046 55.7959C19.682 59.2047 22.9082 62.0123 26.6401 64.0077C30.3719 66.0031 34.5124 67.1341 38.7497 67.3157C42.9868 67.4973 47.2105 66.7246 51.1025 65.056C54.9945 63.3873 58.4535 60.8661 61.2191 57.6821C63.9847 54.4982 65.9848 50.7344 67.0687 46.6743C68.1527 42.6141 68.2924 38.3634 67.4772 34.242C66.662 30.1208 64.9132 26.2363 62.3625 22.8811Z" fill="url(#paint4_radial)" />
  <path d="M64.9568 33.439C65.1764 35.1036 65.2467 36.7843 65.1667 38.4612C66.0952 38.3227 67.0253 38.2002 67.9571 38.0939C67.6622 32.5848 65.7142 27.2879 62.3623 22.8811C59.8702 19.6081 56.6671 16.9316 52.9898 15.0495C49.3124 13.1673 45.2549 12.1275 41.1172 12.0071C34.6168 11.8782 30.1264 13.8124 27.5859 15.3675C30.9851 13.4153 35.9046 12.3079 40.2116 12.3626C51.2904 12.5026 63.1895 19.9704 64.9568 33.439Z" fill="url(#paint5_linear)" />
  <path d="M65.6384 32.6707C64.063 18.5971 51.3876 12.2713 40.2115 12.3628C35.9037 12.3974 30.9852 13.4155 27.5858 15.3677C26.6864 15.8958 25.8504 16.5235 25.0943 17.2388C25.1846 17.1646 25.454 16.945 25.9006 16.6414L25.9447 16.6116L25.9839 16.5853C27.6334 15.4809 29.4509 14.6452 31.3673 14.1099C34.3693 13.2882 37.481 12.9276 40.5936 13.0406C46.3704 13.3821 51.8116 15.8426 55.8552 19.9419C59.899 24.0412 62.2553 29.4853 62.4646 35.2119C62.7213 44.3644 55.1564 51.6618 46.4362 52.0845C40.0939 52.3922 34.1184 49.3534 31.2 43.2743C30.5173 41.8898 30.0537 40.4096 29.8254 38.8855C28.4425 29.6339 34.7168 21.744 40.4704 19.7904C37.3665 17.1057 29.5889 17.288 23.8003 21.5049C19.6318 24.5417 16.9276 29.162 16.0317 34.672C15.3872 38.8999 15.9547 43.222 17.6694 47.1462C19.4505 51.3076 22.3611 54.8991 26.0784 57.5222C29.7955 60.1453 34.1739 61.6974 38.7277 62.0063C39.4225 62.059 40.1186 62.0851 40.8161 62.0846C59.3361 62.0846 67.3706 48.1642 65.6384 32.6707Z" fill="url(#paint6_radial)" />
  <path d="M65.6384 32.6707C64.063 18.5971 51.3876 12.2713 40.2115 12.3628C35.9037 12.3974 30.9852 13.4155 27.5858 15.3677C26.6864 15.8958 25.8504 16.5235 25.0943 17.2388C25.1846 17.1646 25.454 16.945 25.9006 16.6414L25.9447 16.6116L25.9839 16.5853C27.6334 15.4809 29.4509 14.6452 31.3673 14.1099C34.3693 13.2882 37.481 12.9276 40.5936 13.0406C46.3704 13.3821 51.8116 15.8426 55.8552 19.9419C59.899 24.0412 62.2553 29.4853 62.4646 35.2119C62.7213 44.3644 55.1564 51.6618 46.4362 52.0845C40.0939 52.3922 34.1184 49.3534 31.2 43.2743C30.5173 41.8898 30.0537 40.4096 29.8254 38.8855C28.4425 29.6339 34.7168 21.744 40.4704 19.7904C37.3665 17.1057 29.5889 17.288 23.8003 21.5049C19.6318 24.5417 16.9276 29.162 16.0317 34.672C15.3872 38.8999 15.9547 43.222 17.6694 47.1462C19.4505 51.3076 22.3611 54.8991 26.0784 57.5222C29.7955 60.1453 34.1739 61.6974 38.7277 62.0063C39.4225 62.059 40.1186 62.0851 40.8161 62.0846C59.3361 62.0846 67.3706 48.1642 65.6384 32.6707Z" fill="url(#paint7_radial)" />
  <path opacity="0.53" d="M65.6384 32.6707C64.063 18.5971 51.3876 12.2713 40.2115 12.3628C35.9037 12.3974 30.9852 13.4155 27.5858 15.3677C26.6864 15.8958 25.8504 16.5235 25.0943 17.2388C25.1846 17.1646 25.454 16.945 25.9006 16.6414L25.9447 16.6116L25.9839 16.5853C27.6334 15.4809 29.4509 14.6452 31.3673 14.1099C34.3693 13.2882 37.481 12.9276 40.5936 13.0406C46.3704 13.3821 51.8116 15.8426 55.8552 19.9419C59.899 24.0412 62.2553 29.4853 62.4646 35.2119C62.7213 44.3644 55.1564 51.6618 46.4362 52.0845C40.0939 52.3922 34.1184 49.3534 31.2 43.2743C30.5173 41.8898 30.0537 40.4096 29.8254 38.8855C28.4425 29.6339 34.7168 21.744 40.4704 19.7904C37.3665 17.1057 29.5889 17.288 23.8003 21.5049C19.6318 24.5417 16.9276 29.162 16.0317 34.672C15.3872 38.8999 15.9547 43.222 17.6694 47.1462C19.4505 51.3076 22.3611 54.8991 26.0784 57.5222C29.7955 60.1453 34.1739 61.6974 38.7277 62.0063C39.4225 62.059 40.1186 62.0851 40.8161 62.0846C59.3361 62.0846 67.3706 48.1642 65.6384 32.6707Z" fill="url(#paint8_radial)" />
  <path opacity="0.53" d="M65.6384 32.6707C64.063 18.5971 51.3876 12.2713 40.2115 12.3628C35.9037 12.3974 30.9852 13.4155 27.5858 15.3677C26.6864 15.8958 25.8504 16.5235 25.0943 17.2388C25.1846 17.1646 25.454 16.945 25.9006 16.6414L25.9447 16.6116L25.9839 16.5853C27.6334 15.4809 29.4509 14.6452 31.3673 14.1099C34.3693 13.2882 37.481 12.9276 40.5936 13.0406C46.3704 13.3821 51.8116 15.8426 55.8552 19.9419C59.899 24.0412 62.2553 29.4853 62.4646 35.2119C62.7213 44.3644 55.1564 51.6618 46.4362 52.0845C40.0939 52.3922 34.1184 49.3534 31.2 43.2743C30.5173 41.8898 30.0537 40.4096 29.8254 38.8855C28.4425 29.6339 34.7168 21.744 40.4704 19.7904C37.3665 17.1057 29.5889 17.288 23.8003 21.5049C19.6318 24.5417 16.9276 29.162 16.0317 34.672C15.3872 38.8999 15.9547 43.222 17.6694 47.1462C19.4505 51.3076 22.3611 54.8991 26.0784 57.5222C29.7955 60.1453 34.1739 61.6974 38.7277 62.0063C39.4225 62.059 40.1186 62.0851 40.8161 62.0846C59.3361 62.0846 67.3706 48.1642 65.6384 32.6707Z" fill="url(#paint9_radial)" />
  <path d="M46.4362 52.0845C58.404 51.3638 63.5271 41.5508 63.8483 34.5895C64.3494 23.7128 57.8329 11.9871 40.5937 13.0405C37.4811 12.9282 34.3694 13.2895 31.3674 14.1119C29.4596 14.6699 27.6456 15.5041 25.9841 16.5873L25.9449 16.6136L25.9008 16.6434C25.6329 16.8282 25.3709 17.0227 25.1147 17.2269C29.577 14.7562 34.7327 13.7983 39.7959 14.4993C49.6934 15.7855 58.7427 23.4092 58.7427 33.4689C58.7427 41.2091 52.7021 47.1211 45.6286 46.6964C35.12 46.0726 32.4711 35.4003 37.9378 30.789C36.4638 30.4751 33.6937 31.0905 31.7649 33.9458C30.0342 36.5099 30.1321 40.4669 31.2002 43.2743C32.5313 46.1046 34.7036 48.4648 37.4264 50.0392C40.1493 51.6137 43.2927 52.3272 46.4362 52.0845Z" fill="url(#paint10_radial)" />
  <path d="M62.3623 22.8812C61.6123 21.9091 60.7983 20.9872 59.9253 20.1216C59.2321 19.3959 58.4892 18.7184 57.7019 18.0939C58.1549 18.4846 58.5869 18.8986 58.9958 19.3344C60.5278 20.9531 61.6927 22.8774 62.4126 24.9782C63.8746 29.3642 63.7794 34.8535 60.9876 39.1648C59.4376 41.5806 57.2728 43.55 54.7109 44.8753C52.1489 46.2006 49.2799 46.8352 46.3919 46.715C46.1393 46.715 45.8845 46.7151 45.6284 46.6963C35.1198 46.0727 32.4709 35.4003 37.9383 30.7891C36.4636 30.4752 33.6935 31.0906 31.7647 33.9457C30.0339 36.5098 30.1319 40.4669 31.1999 43.2743C30.5174 41.8898 30.0541 40.4096 29.826 38.8855C28.4425 29.6339 34.7167 21.744 40.4703 19.7904C37.3665 17.1057 29.5888 17.2879 23.8002 21.5049C20.3956 24.0249 17.9165 27.5781 16.7406 31.6228C17.1154 28.3406 18.1023 25.1559 19.6514 22.2305C17.7134 23.2235 15.2457 26.3643 14.0279 29.2734C12.2556 33.7116 11.6306 38.5177 12.2097 43.2556C12.2517 43.6146 12.2895 43.9728 12.337 44.3291C13.0627 48.4668 14.727 52.3875 17.2044 55.7961C19.6818 59.2048 22.908 62.0125 26.6398 64.0079C30.3717 66.0032 34.5121 67.1343 38.7494 67.3159C42.9866 67.4975 47.2103 66.7248 51.1023 65.0561C54.9943 63.3874 58.4533 60.8663 61.2189 57.6822C63.9845 54.4983 65.9846 50.7345 67.0685 46.6744C68.1525 42.6143 68.2922 38.3635 67.477 34.2422C66.6617 30.1209 64.913 26.2364 62.3623 22.8812Z" fill="url(#paint11_linear)" />
  <path d="M62.4126 24.9782C61.6929 22.8772 60.5279 20.953 58.9958 19.3343C57.1752 17.4557 55.0167 15.9298 52.6312 14.8346C50.6396 13.8625 48.5396 13.1255 46.3744 12.6385C42.5575 11.8112 38.6078 11.7876 34.781 12.5692C30.8037 13.4008 27.3065 15.1049 25.0942 17.2352C26.8582 16.2484 28.7489 15.5024 30.7149 15.0176C34.535 14.067 38.5353 14.0829 42.3477 15.0638C46.1601 16.0447 49.6622 17.9591 52.5319 20.6309C53.695 21.7231 54.713 22.9573 55.5616 24.3038C58.9875 29.8194 58.6634 36.7537 55.9919 40.8431C54.0079 43.8813 49.7583 46.7337 45.7935 46.7005C48.7775 46.9234 51.7667 46.3405 54.4425 45.0138C57.1184 43.6871 59.3804 41.6663 60.9876 39.1668C63.7794 34.8535 63.8746 29.3642 62.4126 24.9782Z" fill="url(#paint12_linear)" />
  <path d="M62.4126 24.9782C61.6929 22.8772 60.5279 20.953 58.9958 19.3343C57.1752 17.4557 55.0167 15.9298 52.6312 14.8346C50.6396 13.8625 48.5396 13.1255 46.3744 12.6385C42.5575 11.8112 38.6078 11.7876 34.781 12.5692C30.8037 13.4008 27.3065 15.1049 25.0942 17.2352C26.8582 16.2484 28.7489 15.5024 30.7149 15.0176C34.535 14.067 38.5353 14.0829 42.3477 15.0638C46.1601 16.0447 49.6622 17.9591 52.5319 20.6309C53.695 21.7231 54.713 22.9573 55.5616 24.3038C58.9875 29.8194 58.6634 36.7537 55.9919 40.8431C54.0079 43.8813 49.7583 46.7337 45.7935 46.7005C48.7775 46.9234 51.7667 46.3405 54.4425 45.0138C57.1184 43.6871 59.3804 41.6663 60.9876 39.1668C63.7794 34.8535 63.8746 29.3642 62.4126 24.9782Z" fill="url(#paint13_linear)" />
  <defs>
    <radialGradient id="paint0_radial" cx="0" cy="0" r="1" gradientUnits="userSpaceOnUse" gradientTransform="translate(62.0734 23.3558) scale(63.534 62.9111)">
      <stop stop-color="#FFF36E" />
      <stop offset="0.5" stop-color="#FC4055" />
      <stop offset="1" stop-color="#E31587" />
    </radialGradient>
    <radialGradient id="paint1_radial" cx="0" cy="0" r="1" gradientUnits="userSpaceOnUse" gradientTransform="translate(16.6505 25.9579) scale(37.6011 37.2325)">
      <stop offset="0.001" stop-color="#C60084" />
      <stop offset="1" stop-color="#FC4055" stop-opacity="0" />
    </radialGradient>
    <radialGradient id="paint2_radial" cx="0" cy="0" r="1" gradientUnits="userSpaceOnUse" gradientTransform="translate(67.5043 19.7757) scale(74.6052 73.8738)">
      <stop stop-color="#FFDE67" stop-opacity="0.6" />
      <stop offset="0.093" stop-color="#FFD966" stop-opacity="0.581" />
      <stop offset="0.203" stop-color="#FFCA65" stop-opacity="0.525" />
      <stop offset="0.321" stop-color="#FEB262" stop-opacity="0.432" />
      <stop offset="0.446" stop-color="#FE8F5E" stop-opacity="0.302" />
      <stop offset="0.573" stop-color="#FD6459" stop-opacity="0.137" />
      <stop offset="0.664" stop-color="#FC4055" stop-opacity="0" />
    </radialGradient>
    <radialGradient id="paint3_radial" cx="0" cy="0" r="1" gradientUnits="userSpaceOnUse" gradientTransform="translate(41.6051 42.7731) scale(96.2466 95.3029)">
      <stop offset="0.153" stop-color="#810220" />
      <stop offset="0.167" stop-color="#920B27" stop-opacity="0.861" />
      <stop offset="0.216" stop-color="#CB2740" stop-opacity="0.398" />
      <stop offset="0.253" stop-color="#EF394F" stop-opacity="0.11" />
      <stop offset="0.272" stop-color="#FC4055" stop-opacity="0" />
    </radialGradient>
    <radialGradient id="paint4_radial" cx="0" cy="0" r="1" gradientUnits="userSpaceOnUse" gradientTransform="translate(34.3215 41.5749) scale(96.2466 95.3029)">
      <stop offset="0.113" stop-color="#810220" />
      <stop offset="0.133" stop-color="#920B27" stop-opacity="0.861" />
      <stop offset="0.204" stop-color="#CB2740" stop-opacity="0.398" />
      <stop offset="0.257" stop-color="#EF394F" stop-opacity="0.11" />
      <stop offset="0.284" stop-color="#FC4055" stop-opacity="0" />
    </radialGradient>
    <linearGradient id="paint5_linear" x1="44.0866" y1="17.3973" x2="60.3318" y2="45.8133" gradientUnits="userSpaceOnUse">
      <stop stop-color="#FFBD4F" />
      <stop offset="0.508" stop-color="#FF9640" stop-opacity="0" />
    </linearGradient>
    <radialGradient id="paint6_radial" cx="0" cy="0" r="1" gradientUnits="userSpaceOnUse" gradientTransform="translate(60.6212 20.3805) scale(59.6425 59.1809)">
      <stop stop-color="#FF9640" />
      <stop offset="0.8" stop-color="#FC4055" />
    </radialGradient>
    <radialGradient id="paint7_radial" cx="0" cy="0" r="1" gradientUnits="userSpaceOnUse" gradientTransform="translate(60.6212 20.3805) scale(59.6425 59.1809)">
      <stop offset="0.084" stop-color="#FFDE67" />
      <stop offset="0.147" stop-color="#FFDC66" stop-opacity="0.968" />
      <stop offset="0.246" stop-color="#FFD562" stop-opacity="0.879" />
      <stop offset="0.369" stop-color="#FFCB5D" stop-opacity="0.734" />
      <stop offset="0.511" stop-color="#FFBC55" stop-opacity="0.533" />
      <stop offset="0.667" stop-color="#FFAA4B" stop-opacity="0.28" />
      <stop offset="0.822" stop-color="#FF9640" stop-opacity="0" />
    </radialGradient>
    <radialGradient id="paint8_radial" cx="0" cy="0" r="1" gradientUnits="userSpaceOnUse" gradientTransform="translate(46.9604 38.7879) rotate(75.5925) scale(29.034 30.5056)">
      <stop offset="0.363" stop-color="#FC4055" />
      <stop offset="0.443" stop-color="#FD604D" stop-opacity="0.633" />
      <stop offset="0.545" stop-color="#FE8644" stop-opacity="0.181" />
      <stop offset="0.59" stop-color="#FF9640" stop-opacity="0" />
    </radialGradient>
    <radialGradient id="paint9_radial" cx="0" cy="0" r="1" gradientUnits="userSpaceOnUse" gradientTransform="translate(41.9212 41.1752) scale(29.2475 28.9607)">
      <stop offset="0.216" stop-color="#FC4055" stop-opacity="0.8" />
      <stop offset="0.267" stop-color="#FD5251" stop-opacity="0.633" />
      <stop offset="0.41" stop-color="#FE8345" stop-opacity="0.181" />
      <stop offset="0.474" stop-color="#FF9640" stop-opacity="0" />
    </radialGradient>
    <radialGradient id="paint10_radial" cx="0" cy="0" r="1" gradientUnits="userSpaceOnUse" gradientTransform="translate(72.5246 13.6953) scale(100.807 100.027)">
      <stop offset="0.054" stop-color="#FFF36E" />
      <stop offset="0.457" stop-color="#FF9640" />
      <stop offset="0.639" stop-color="#FF9640" />
    </radialGradient>
    <linearGradient id="paint11_linear" x1="53.3396" y1="16.9096" x2="25.1379" y2="66.2407" gradientUnits="userSpaceOnUse">
      <stop stop-color="#FFF36E" stop-opacity="0.8" />
      <stop offset="0.094" stop-color="#FFF36E" stop-opacity="0.699" />
      <stop offset="0.752" stop-color="#FFF36E" stop-opacity="0" />
    </linearGradient>
    <linearGradient id="paint12_linear" x1="40.415" y1="11.5366" x2="55.3471" y2="55.1988" gradientUnits="userSpaceOnUse">
      <stop stop-color="#B833E1" />
      <stop offset="0.371" stop-color="#9059FF" />
      <stop offset="0.614" stop-color="#5B6DF8" />
      <stop offset="1" stop-color="#0090ED" />
    </linearGradient>
    <linearGradient id="paint13_linear" x1="31.4042" y1="12.2255" x2="59.3733" y2="40.4715" gradientUnits="userSpaceOnUse">
      <stop offset="0.805" stop-color="#722291" stop-opacity="0" />
      <stop offset="1" stop-color="#592ACB" stop-opacity="0.5" />
    </linearGradient>
  </defs>
</svg>