<svg viewBox="0 0 80 80" fill="none">
  <path d="M6.4634 43.533C4.5122 41.5818 4.5122 38.4182 6.4634 36.467L36.467 6.4634C38.4182 4.5122 41.5818 4.5122 43.533 6.4634L73.5366 36.467C75.4878 38.4182 75.4878 41.5818 73.5366 43.533L43.533 73.5366C41.5818 75.4878 38.4182 75.4878 36.467 73.5366L6.4634 43.533Z" fill="#EE513B" />
  <path d="M30.3201 12.6011L27.2817 15.6394L35.1815 23.5394C34.8641 24.2205 34.6869 24.98 34.6869 25.781C34.6869 28.0549 36.1156 29.9952 38.1244 30.7531V49.9494C36.1156 50.7073 34.6869 52.6476 34.6869 54.9216C34.6869 57.8556 37.0654 60.2341 39.9994 60.2341C42.9334 60.2341 45.3119 57.8556 45.3119 54.9216C45.3119 52.8599 44.1375 51.0726 42.4213 50.192V30.7791L49.9226 38.2805C49.6206 38.9477 49.4525 39.6884 49.4525 40.4685C49.4525 43.4025 51.831 45.781 54.765 45.781C57.699 45.781 60.0775 43.4025 60.0775 40.4685C60.0775 37.5344 57.699 35.156 54.765 35.156C54.1949 35.156 53.6457 35.2458 53.1309 35.412L45.0746 27.3558C45.2288 26.8582 45.3119 26.3293 45.3119 25.781C45.3119 22.8469 42.9334 20.4685 39.9994 20.4685C39.4511 20.4685 38.9222 20.5515 38.4246 20.7058L30.3201 12.6011Z" fill="white" />
</svg>