<svg viewBox="0 0 80 80" fill="none">
  <path d="M64.9106 69.5076L29.0659 9.1317C29.9475 8.72189 30.918 8.5 31.9193 8.5H48.0798C50.5244 8.5 52.785 9.82238 54.0167 11.9729L74.0633 46.9729C75.3117 49.1524 75.3117 51.8476 74.0633 54.0271L66.0447 68.0271C65.7293 68.5776 65.3466 69.0739 64.9106 69.5076Z" fill="#FCB900" />
  <path d="M15.0997 69.5076L50.9443 9.1317C50.0628 8.72189 49.0923 8.5 48.0909 8.5H31.9304C29.4859 8.5 27.2253 9.82238 25.9936 11.9729L5.94695 46.9729C4.69859 49.1524 4.6986 51.8476 5.94695 54.0271L13.9656 68.0271C14.2809 68.5776 14.6637 69.0739 15.0997 69.5076Z" fill="#02AA49" />
  <path d="M29.0688 9.13549L40.0054 27.5568L50.942 9.13549C50.0583 8.72326 49.0849 8.5 48.0805 8.5H31.9304C30.9259 8.5 29.9526 8.72326 29.0688 9.13549Z" fill="#01832C" />
  <path d="M75 50.5H5C5 51.7187 5.31209 52.9373 5.93626 54.0271L13.9549 68.0271C15.1866 70.1776 17.4472 71.5 19.8918 71.5H60.1082C62.5528 71.5 64.8134 70.1776 66.0451 68.0271L74.0637 54.0271C74.6879 52.9373 75 51.7187 75 50.5Z" fill="#2785FC" />
  <path d="M26.3839 50.5L15.0992 69.5076C14.6632 69.0739 14.2805 68.5776 13.9652 68.0271L5.94652 54.0271C5.32234 52.9373 5.01025 51.7187 5.01025 50.5H26.3839Z" fill="#0364D7" />
  <path d="M53.626 50.5L64.9106 69.5076C65.3466 69.0739 65.7294 68.5776 66.0447 68.0271L74.0633 54.0271C74.6875 52.9373 74.9996 51.7187 74.9996 50.5H53.626Z" fill="#E54635" />
</svg>