<svg viewBox="0 0 80 80" fill="none">
  <path fill-rule="evenodd" clip-rule="evenodd" d="M71.0004 40.7273C71.0004 38.4739 70.8115 36.3006 70.4556 34.2207H40.6279V46.5449H57.712C56.9783 50.5623 54.76 53.9804 51.3948 56.2694L61.5909 64.2737C67.5606 58.7005 71.0004 50.4649 71.0004 40.7273Z" fill="#4285F4" />
  <path fill-rule="evenodd" clip-rule="evenodd" d="M40.6295 72.0002C49.165 72.0002 56.3516 69.1647 61.5924 64.2758L51.3966 56.2715C48.5586 58.2047 44.9038 59.3337 40.6295 59.3337C32.3798 59.3337 25.3775 53.7071 22.8736 46.125L12.3701 54.3693C17.5757 64.8225 28.2723 72.0002 40.6295 72.0002Z" fill="#34A853" />
  <path fill-rule="evenodd" clip-rule="evenodd" d="M22.8727 46.1242C22.2314 44.1909 21.8798 42.1286 21.8798 39.9998C21.8798 37.871 22.2314 35.8087 22.8727 33.8754L12.3693 25.6311C10.2168 29.951 9 34.8311 9 39.9998C9 45.1686 10.2168 50.0491 12.3693 54.3685L22.8727 46.1242Z" fill="#FABB05" />
  <path fill-rule="evenodd" clip-rule="evenodd" d="M40.6295 20.6666C45.2904 20.6666 49.468 22.2886 52.7626 25.4665V25.471L61.79 16.3377C56.3078 11.1733 49.1605 8 40.6295 8C28.2723 8 17.5757 15.1777 12.3701 25.6309L22.8736 33.8752C25.3775 26.2931 32.3798 20.6666 40.6295 20.6666Z" fill="#E94235" />
</svg>