<svg viewBox="0 0 80 80" fill="none">
  <path d="M39.9999 71.5001C39.1624 71.5001 38.3124 71.2751 37.5749 70.8501L29.8624 66.2876C28.7124 65.6376 29.2749 65.4126 29.6499 65.2876C31.1874 64.7501 31.4999 64.6376 33.1374 63.7001C33.3124 63.6001 33.5374 63.6376 33.7124 63.7501L39.6374 67.2626C39.8499 67.3876 40.1499 67.3876 40.3499 67.2626L63.4374 53.9376C63.6499 53.8126 63.7874 53.5626 63.7874 53.3126V26.6626C63.7874 26.4001 63.6499 26.1626 63.4249 26.0251L40.3499 12.7126C40.1374 12.5876 39.8499 12.5876 39.6374 12.7126L16.5749 26.0376C16.3499 26.1626 16.2124 26.4126 16.2124 26.6751V53.3126C16.2124 53.5626 16.3499 53.8126 16.5749 53.9251L22.8999 57.5751C26.3374 59.2876 28.4374 57.2751 28.4374 55.2376V28.9376C28.4374 28.5626 28.7374 28.2751 29.1124 28.2751H32.0374C32.3999 28.2751 32.7124 28.5626 32.7124 28.9376V55.2501C32.7124 59.8251 30.2124 62.4501 25.8749 62.4501C24.5374 62.4501 23.4874 62.4501 20.5624 61.0001L14.5124 57.5126C13.0124 56.6501 12.0874 55.0376 12.0874 53.3001V26.6626C12.0874 24.9376 13.0124 23.3126 14.5124 22.4501L37.5749 9.1251C39.0374 8.3001 40.9749 8.3001 42.4249 9.1251L65.5124 22.4626C67.0124 23.3251 67.9374 24.9376 67.9374 26.6751V53.3126C67.9374 55.0376 67.0124 56.6501 65.5124 57.5251L42.4249 70.8501C41.6874 71.2751 40.8499 71.5001 39.9999 71.5001ZM58.6374 45.2376C58.6374 40.2501 55.2624 38.9251 48.1749 37.9876C40.9999 37.0376 40.2749 36.5501 40.2749 34.8751C40.2749 33.4876 40.8874 31.6376 46.1999 31.6376C50.9374 31.6376 52.6874 32.6626 53.4124 35.8626C53.4749 36.1626 53.7499 36.3876 54.0624 36.3876H57.0624C57.2499 36.3876 57.4249 36.3126 57.5499 36.1751C57.6749 36.0376 57.7374 35.8501 57.7249 35.6626C57.2624 30.1501 53.5999 27.5876 46.1999 27.5876C39.6124 27.5876 35.6874 30.3626 35.6874 35.0251C35.6874 40.0751 39.5999 41.4751 45.9124 42.1001C53.4749 42.8376 54.0624 43.9501 54.0624 45.4376C54.0624 48.0126 51.9874 49.1126 47.1249 49.1126C41.0124 49.1126 39.6749 47.5751 39.2249 44.5376C39.1749 44.2126 38.8999 43.9751 38.5624 43.9751H35.5749C35.1999 43.9751 34.9124 44.2751 34.9124 44.6376C34.9124 48.5251 37.0249 53.1626 47.1374 53.1626C54.4374 53.1501 58.6374 50.2626 58.6374 45.2376Z" fill="#539E43" />
</svg>