<svg viewBox="0 0 80 80" fill="none">
  <path d="M62.1212 24.0431C62.9004 18.9629 62.1212 15.5762 59.3941 12.4499C56.4073 8.93287 50.9531 7.5 43.9406 7.5H23.8121C22.3836 7.5 21.2149 8.54208 20.9552 9.97495L12.5142 63.3818C12.3843 64.4238 13.1635 65.3357 14.2024 65.3357H26.6691L25.76 70.8066C25.6302 71.7184 26.2795 72.5 27.3184 72.5H37.8371C39.1357 72.5 40.1746 71.5882 40.3045 70.4158L42.5121 56.6082C42.642 55.4359 43.8108 54.524 44.9795 54.524H46.5378C56.667 54.524 64.7184 50.3557 67.0559 38.3717C67.965 33.4218 67.5754 29.1232 64.9782 26.2575C64.199 25.3457 63.29 24.6944 62.1212 24.0431Z" fill="#009CDE" />
  <path d="M62.1212 24.0431C62.9004 18.9629 62.1212 15.5762 59.3941 12.4499C56.4073 8.93287 50.9531 7.5 43.9406 7.5H23.8121C22.3836 7.5 21.2149 8.54208 20.9551 9.97495L12.5142 63.3818C12.3843 64.4238 13.1635 65.3357 14.2024 65.3357H26.669L29.6559 46.0571C29.9156 44.6242 31.0843 43.5822 32.5128 43.5822H38.4864C50.174 43.5822 59.2642 38.8928 61.8615 25.0852C61.9913 24.8246 61.9913 24.4339 62.1212 24.0431Z" fill="#012169" />
  <path d="M33.1621 24.1733C33.292 23.2615 34.4607 22.0892 35.6295 22.0892H51.4726C53.2906 22.0892 55.1087 22.2194 56.667 22.48C58.0955 22.7405 60.6927 23.3918 61.9913 24.1733C62.7705 19.0932 61.9913 15.7064 59.2643 12.5802C56.4073 8.93287 50.9531 7.5 43.9406 7.5H23.8121C22.3836 7.5 21.2149 8.54208 20.9551 9.97495L12.5142 63.3818C12.3843 64.4238 13.1635 65.3357 14.2024 65.3357H26.6691L33.1621 24.1733Z" fill="#003087" />
</svg>