<svg viewBox="0 0 80 80" fill="none">
  <path d="M5 30.3333C5 21.4658 5 17.0321 6.72573 13.6452C8.24373 10.6659 10.6659 8.24373 13.6452 6.72573C17.0321 5 21.4658 5 30.3333 5H49.6667C58.5342 5 62.9679 5 66.3549 6.72573C69.3341 8.24373 71.7563 10.6659 73.2743 13.6452C75 17.0321 75 21.4658 75 30.3333V49.6667C75 58.5342 75 62.9679 73.2743 66.3549C71.7563 69.3341 69.3341 71.7563 66.3549 73.2743C62.9679 75 58.5342 75 49.6667 75H30.3333C21.4658 75 17.0321 75 13.6452 73.2743C10.6659 71.7563 8.24373 69.3341 6.72573 66.3549C5 62.9679 5 58.5342 5 49.6667V30.3333Z" fill="#242424" />
  <path d="M24.6667 41.0003C14.9167 48.1763 13 58.667 13 67.417C13.4444 64.8059 15.4833 58.6837 20.0833 55.0837C26.9167 49.7358 39.4166 51.4976 53.0833 42.417C66.7501 33.3364 68.0834 21.5003 66.3334 12.417C65.1174 21.1817 60.968 25.0015 55.25 28.417C42.8334 35.8337 35.0834 33.3337 24.6667 41.0003Z" fill="url(#dceCt0_linear)" />
  <path d="M24.6667 41.0003C14.9167 48.1763 13 58.667 13 67.417C13.4444 64.8059 15.4833 58.6837 20.0833 55.0837C26.9167 49.7358 39.4166 51.4976 53.0833 42.417C66.7501 33.3364 68.0834 21.5003 66.3334 12.417C65.1174 21.1817 60.968 25.0015 55.25 28.417C42.8334 35.8337 35.0834 33.3337 24.6667 41.0003Z" fill="url(#dceCt1_linear)" />
  <path d="M13.1165 63.8296C13.6515 55.9234 16.2186 47.2173 24.6665 40.9996C30.0969 37.0029 34.8026 35.7691 39.8226 34.453C42.7521 33.6849 45.7887 32.8888 49.1388 31.499C47.9166 32.6664 42.1088 35.3913 37.728 37.2121C33.3587 39.028 28.7521 40.9426 24.9166 43.4996C17.2211 48.63 14.092 57.556 13.1165 63.8296Z" fill="url(#dceCt2_linear)" />
  <path d="M13.1165 63.8296C13.6515 55.9234 16.2186 47.2173 24.6665 40.9996C30.0969 37.0029 34.8026 35.7691 39.8226 34.453C42.7521 33.6849 45.7887 32.8888 49.1388 31.499C47.9166 32.6664 42.1088 35.3913 37.728 37.2121C33.3587 39.028 28.7521 40.9426 24.9166 43.4996C17.2211 48.63 14.092 57.556 13.1165 63.8296Z" fill="url(#dceCt3_linear)" />
  <path d="M60.5443 35.9268C59.586 36.8655 58.5176 37.7058 57.3334 38.4163C52.0001 41.6163 46.3312 42.6483 40.8152 43.6525C36.4196 44.4526 32.1211 45.2352 28.1668 47.083C19.2507 51.2494 13.7508 59.9152 13.0003 67.4148C13.0002 67.4151 13.0001 67.4155 13.0001 67.4158C13.0001 67.4144 13 67.4131 13 67.4117C13 66.8393 13.0083 66.2593 13.0264 65.6734C13.0718 64.7438 13.168 63.7138 13.327 62.6154C14.5041 56.4476 17.7055 48.3071 24.9167 43.4996C27.9694 41.4645 31.5105 39.8363 35.0317 38.3409C38.1283 37.3242 40.9192 36.6915 43.5782 36.0887C47.7639 35.1397 51.6228 34.2648 55.8334 32.083C64.6686 27.5047 66.9834 18.0966 66.3612 12.5625C67.6822 19.5747 67.1482 28.1994 60.5443 35.9268Z" fill="url(#dceCt4_linear)" />
  <path d="M60.5441 35.9277C59.5859 36.8663 58.5175 37.7065 57.3334 38.417C52.0001 41.617 46.3312 42.649 40.8151 43.6532C36.4196 44.4533 32.1211 45.2359 28.1667 47.0837C23.0391 49.4798 19.0413 53.364 16.427 57.6588C18.7337 54.4175 22.2478 50.7965 26.5834 49.417C30.814 48.0709 34.8493 47.9318 39.0417 47.7873C40.2432 47.7459 41.4577 47.704 42.6934 47.6332C46.0236 46.4209 49.5136 44.7888 53.0833 42.417C56.1602 40.3726 58.6119 38.1886 60.5441 35.9277Z" fill="url(#dceCt5_linear)" />
  <path d="M60.5441 35.9277C59.5859 36.8663 58.5175 37.7065 57.3334 38.417C52.0001 41.617 46.3312 42.649 40.8151 43.6532C36.4196 44.4533 32.1211 45.2359 28.1667 47.0837C23.0391 49.4798 19.0413 53.364 16.427 57.6588C18.7337 54.4175 22.2478 50.7965 26.5834 49.417C30.814 48.0709 34.8493 47.9318 39.0417 47.7873C40.2432 47.7459 41.4577 47.704 42.6934 47.6332C46.0236 46.4209 49.5136 44.7888 53.0833 42.417C56.1602 40.3726 58.6119 38.1886 60.5441 35.9277Z" fill="url(#dceCt6_linear)" />
  <path d="M66.3611 12.5632C66.352 12.5144 66.3427 12.4656 66.3333 12.417C65.1174 21.1817 60.968 25.0015 55.25 28.417C53.0839 29.7108 51.0598 30.7029 49.1388 31.4998C47.9163 32.6672 42.1088 35.392 37.7281 37.2127L37.7274 37.213C36.8359 37.5835 35.9345 37.9582 35.0317 38.3415C38.1283 37.3249 40.9192 36.6922 43.5781 36.0893C47.7638 35.1404 51.6228 34.2655 55.8334 32.0836C64.6686 27.5054 66.9834 18.0973 66.3611 12.5632Z" fill="url(#dceCt7_linear)" />
  <path d="M66.3611 12.5632C66.352 12.5144 66.3427 12.4656 66.3333 12.417C65.1174 21.1817 60.968 25.0015 55.25 28.417C53.0839 29.7108 51.0598 30.7029 49.1388 31.4998C47.9163 32.6672 42.1088 35.392 37.7281 37.2127L37.7274 37.213C36.8359 37.5835 35.9345 37.9582 35.0317 38.3415C38.1283 37.3249 40.9192 36.6922 43.5781 36.0893C47.7638 35.1404 51.6228 34.2655 55.8334 32.0836C64.6686 27.5054 66.9834 18.0973 66.3611 12.5632Z" fill="url(#dceCt8_linear)" />
  <defs>
    <linearGradient id="dceCt0_linear" x1="43.5" y1="45.5003" x2="14.6667" y2="66.167" gradientUnits="userSpaceOnUse">
      <stop stop-color="#FE5004" />
      <stop offset="0.602538" stop-color="#FFB915" />
      <stop offset="1" stop-color="#FFFC41" />
    </linearGradient>
    <linearGradient id="dceCt1_linear" x1="32.0833" y1="47.2503" x2="32.25" y2="50.2503" gradientUnits="userSpaceOnUse">
      <stop stop-color="#FD3E00" />
      <stop offset="1" stop-color="#FD4400" stop-opacity="0" />
    </linearGradient>
    <linearGradient id="dceCt2_linear" x1="49.1665" y1="29.9997" x2="8.49984" y2="66.1664" gradientUnits="userSpaceOnUse">
      <stop stop-color="#005FC6" />
      <stop offset="0.279756" stop-color="#23A4DF" />
      <stop offset="0.465158" stop-color="#3AC2B7" />
      <stop offset="0.640642" stop-color="#60EC7A" />
      <stop offset="0.818668" stop-color="#CFFDBD" />
      <stop offset="1" stop-color="#D0FCB6" />
    </linearGradient>
    <linearGradient id="dceCt3_linear" x1="40.9165" y1="36.9164" x2="37.4165" y2="33.7497" gradientUnits="userSpaceOnUse">
      <stop stop-color="#0061CB" />
      <stop offset="1" stop-color="#067EEA" stop-opacity="0" />
    </linearGradient>
    <linearGradient id="dceCt4_linear" x1="66.5" y1="12.4997" x2="13" y2="67.333" gradientUnits="userSpaceOnUse">
      <stop stop-color="#8E55F1" />
      <stop offset="0.140795" stop-color="#8B48DF" />
      <stop offset="0.274905" stop-color="#E04DD9" />
      <stop offset="0.492309" stop-color="#F496C8" />
      <stop offset="0.633104" stop-color="#FAD2BA" />
      <stop offset="0.856964" stop-color="#FEF7E5" />
      <stop offset="1" stop-color="#FFF5BF" />
    </linearGradient>
    <linearGradient id="dceCt5_linear" x1="61.2499" y1="35.417" x2="17.5833" y2="55.167" gradientUnits="userSpaceOnUse">
      <stop stop-color="#F41A73" />
      <stop offset="0.399909" stop-color="#FC50A3" />
      <stop offset="0.584511" stop-color="#FE9485" />
      <stop offset="0.703104" stop-color="#FFAF88" />
      <stop offset="1" stop-color="#FFC385" />
    </linearGradient>
    <linearGradient id="dceCt6_linear" x1="45.4999" y1="41.5004" x2="45.5833" y2="45.5004" gradientUnits="userSpaceOnUse">
      <stop stop-color="#9B0008" />
      <stop offset="1" stop-color="#EA115A" stop-opacity="0" />
    </linearGradient>
    <linearGradient id="dceCt7_linear" x1="66.5" y1="17.0003" x2="27.0833" y2="42.7503" gradientUnits="userSpaceOnUse">
      <stop stop-color="#231283" />
      <stop offset="0.362865" stop-color="#7053C6" />
      <stop offset="0.466353" stop-color="#7272DB" />
      <stop offset="0.634311" stop-color="#399EE9" />
      <stop offset="1" stop-color="#00CFFF" />
    </linearGradient>
    <linearGradient id="dceCt8_linear" x1="56.6666" y1="30.0003" x2="58.4166" y2="32.2503" gradientUnits="userSpaceOnUse">
      <stop stop-color="#3F259D" stop-opacity="0" />
      <stop offset="1" stop-color="#412DAA" />
    </linearGradient>
  </defs>
</svg>