<svg viewBox="0 0 80 80" fill="none">
  <path d="M73.75 40C73.75 58.6396 58.6396 73.75 40 73.75C21.3604 73.75 6.25 58.6396 6.25 40C6.25 21.3604 21.3604 6.25 40 6.25C58.6396 6.25 73.75 21.3604 73.75 40Z" fill="url(#hZo6t0_radial)" stroke="url(#hZo6t1_linear)" stroke-width="2.5" />
  <path d="M40.1919 72.3476C58.0721 72.3476 72.5669 57.8529 72.5669 39.9727C72.5669 22.0924 58.0721 7.59766 40.1919 7.59766C22.3117 7.59766 7.81689 22.0924 7.81689 39.9727C7.81689 57.8529 22.3117 72.3476 40.1919 72.3476Z" fill="url(#hZo6t2_linear)" fill-opacity="0.2" />
  <path d="M40.0549 15.5002C39.8361 15.5002 39.6448 15.3362 39.6448 15.1174V9.40252C39.6448 9.18377 39.8361 9.01978 40.0549 9.01978C40.2736 9.01978 40.465 9.18377 40.465 9.40252V15.1174C40.4376 15.3362 40.2736 15.5002 40.0549 15.5002Z" fill="#F3F3F3" />
  <path d="M40.0547 15.5273C39.8085 15.5273 39.6172 15.3359 39.6172 15.1172V9.40231C39.6172 9.18356 39.8085 8.99219 40.0547 8.99219C40.3008 8.99219 40.4921 9.18356 40.4921 9.40231V15.1172C40.4921 15.3359 40.2734 15.5273 40.0547 15.5273ZM40.0547 9.04666C39.8633 9.04666 39.6719 9.21094 39.6719 9.40231V15.1172C39.6719 15.3085 39.8359 15.4728 40.0547 15.4728C40.246 15.4728 40.4374 15.3085 40.4374 15.1172V9.40231C40.4103 9.21094 40.246 9.04666 40.0547 9.04666Z" fill="white" />
  <path d="M42.7895 12.4377C42.5707 12.4103 42.4067 12.2463 42.4067 12.0275L42.5981 9.48433C42.6252 9.26586 42.8169 9.10158 43.0356 9.12896C43.2544 9.15634 43.4183 9.32062 43.4183 9.53937L43.227 12.0823C43.1996 12.301 43.0082 12.465 42.7895 12.4379V12.4377Z" fill="#F3F3F3" />
  <path d="M42.7893 12.4651C42.5431 12.4377 42.3792 12.2463 42.3792 12.0276L42.5705 9.48443C42.5979 9.26596 42.7893 9.07459 43.0354 9.10169C43.2812 9.12907 43.4455 9.32072 43.4455 9.53919L43.2542 12.0824C43.2268 12.3285 43.0354 12.4925 42.7893 12.4651ZM43.0354 9.15645C42.844 9.15645 42.6524 9.29334 42.6524 9.48472L42.461 12.0279C42.461 12.219 42.5979 12.3832 42.8167 12.4103C43.008 12.4103 43.1994 12.2737 43.1994 12.0824L43.3908 9.53919C43.3908 9.34782 43.2268 9.18383 43.0351 9.15645H43.0354Z" fill="white" />
  <path d="M44.8398 15.9926C44.6208 15.9379 44.4842 15.7465 44.5115 15.5277L45.6326 9.92206C45.6874 9.70359 45.8787 9.56669 46.0974 9.62145C46.3162 9.67621 46.4528 9.86758 46.4254 10.0863L45.3044 15.692C45.277 15.8831 45.0582 16.02 44.8395 15.9926H44.8398Z" fill="#F3F3F3" />
  <path d="M44.8403 16.0195C44.5939 15.9647 44.4573 15.746 44.4847 15.5272L45.6057 9.9216C45.6605 9.70314 45.8792 9.53886 46.125 9.59362C46.3711 9.64838 46.508 9.86713 46.4806 10.0859L45.3596 15.6915C45.3048 15.91 45.0861 16.0468 44.8403 16.0195ZM46.125 9.64838C45.9337 9.621 45.7423 9.73023 45.6876 9.92189L44.5668 15.5275C44.5394 15.7186 44.6486 15.91 44.8674 15.965C45.0587 15.9921 45.2501 15.8826 45.3048 15.6912L46.4259 10.0859C46.4533 9.86713 46.3167 9.70314 46.125 9.64838Z" fill="white" />
  <path d="M48.1209 13.5315C48.0688 13.5189 48.0198 13.4962 47.9764 13.4647C47.9331 13.4331 47.8965 13.3934 47.8686 13.3476C47.8407 13.3019 47.822 13.2512 47.8137 13.1982C47.8055 13.1453 47.8077 13.0913 47.8203 13.0392L48.504 10.5785C48.5584 10.3597 48.7772 10.2502 48.996 10.305C49.2147 10.3597 49.3516 10.5785 49.2969 10.7972L48.6132 13.2582C48.5584 13.4767 48.3397 13.5862 48.1209 13.5315Z" fill="#F3F3F3" />
  <path d="M48.1212 13.5589C47.9025 13.5042 47.7385 13.258 47.8206 13.0396L48.5042 10.5783C48.5586 10.3598 48.8047 10.2229 49.0234 10.2777C49.2422 10.3325 49.4061 10.5786 49.3243 10.797L48.6408 13.2583C48.586 13.4768 48.3673 13.6137 48.1215 13.5589H48.1212ZM49.0234 10.3598C48.8321 10.3051 48.6134 10.4146 48.5586 10.606L47.8754 13.0667C47.8206 13.258 47.9298 13.4497 48.1486 13.5042C48.3399 13.5589 48.5586 13.4497 48.6134 13.2583L49.2969 10.797C49.3243 10.606 49.2151 10.4146 49.0234 10.3596V10.3598Z" fill="white" />
  <path d="M49.4613 17.3868C49.2426 17.3047 49.1607 17.0586 49.2426 16.8672L51.43 11.5899C51.5118 11.3985 51.7582 11.289 51.9493 11.3985C52.1683 11.4803 52.2505 11.7268 52.1683 11.9178L49.9809 17.1952C49.8991 17.3868 49.6527 17.4961 49.4616 17.3868H49.4613Z" fill="#F3F3F3" />
  <path d="M49.461 17.4143C49.356 17.3742 49.271 17.2942 49.2249 17.1916C49.1788 17.0891 49.1752 16.9724 49.2149 16.8673L51.4024 11.5898C51.4846 11.3711 51.7307 11.289 51.9768 11.3711C52.0819 11.4111 52.1668 11.4912 52.213 11.5937C52.2591 11.6963 52.2627 11.8129 52.223 11.9181L50.0354 17.1955C49.9259 17.4143 49.6798 17.5235 49.461 17.4143ZM51.9495 11.4259C51.7581 11.344 51.5393 11.4259 51.4572 11.6172L49.2696 16.8946C49.1878 17.086 49.297 17.2774 49.4884 17.3595C49.6798 17.4414 49.8985 17.3595 49.9807 17.1681L52.1682 11.8907C52.223 11.7265 52.1408 11.5077 51.9495 11.4259Z" fill="white" />
  <path d="M53.1525 15.637C52.9609 15.5275 52.8788 15.3088 52.9609 15.1174L54.1093 12.8481C54.2185 12.6564 54.4372 12.5743 54.6562 12.6838C54.8476 12.7933 54.9294 13.0121 54.8476 13.2032L53.6989 15.4728C53.5897 15.6641 53.371 15.7465 53.1523 15.637H53.1525Z" fill="#F3F3F3" />
  <path d="M53.1524 15.6641C52.9334 15.5546 52.8515 15.3085 52.9608 15.0897L54.1093 12.8204C54.2186 12.6014 54.465 12.5195 54.6835 12.6287C54.9022 12.7383 54.9844 12.9844 54.8748 13.2031L53.7266 15.4725C53.617 15.6912 53.3709 15.7734 53.1521 15.6638L53.1524 15.6641ZM54.6564 12.6835C54.4647 12.6016 54.2459 12.6561 54.1641 12.8475L53.0155 15.1171C52.9337 15.2811 53.0155 15.4999 53.1795 15.6094C53.3709 15.6912 53.5897 15.6367 53.6718 15.4454L54.8204 13.1758C54.9022 13.0118 54.8204 12.793 54.6564 12.6835Z" fill="white" />
  <path d="M53.6998 19.6836C53.5084 19.547 53.4536 19.3009 53.5902 19.1369L56.7623 14.4062C56.8715 14.2148 57.1179 14.1875 57.309 14.297C57.5007 14.4336 57.5551 14.6797 57.4185 14.8437L54.2465 19.5744C54.1373 19.7658 53.8911 19.8205 53.6998 19.6836Z" fill="#F3F3F3" />
  <path d="M53.6995 19.7112C53.5081 19.5746 53.4534 19.3011 53.5629 19.1097L56.7347 14.3791C56.8713 14.1878 57.1174 14.133 57.3362 14.2699C57.5275 14.4065 57.5823 14.68 57.4731 14.8714L54.301 19.6019C54.1644 19.7933 53.8909 19.8478 53.6995 19.7112ZM57.3088 14.3247C57.1451 14.2151 56.8987 14.2425 56.7894 14.4065L53.6174 19.1371C53.5081 19.3008 53.5626 19.5198 53.7269 19.629C53.8909 19.7385 54.137 19.7112 54.2463 19.5472L57.4183 14.844C57.5275 14.68 57.4731 14.4339 57.3088 14.3247Z" fill="white" />
  <path d="M57.6915 18.672C57.5278 18.5351 57.473 18.289 57.6096 18.125L59.1955 16.1289C59.3321 15.9652 59.5782 15.9375 59.7422 16.0744C59.9064 16.211 59.9609 16.4571 59.824 16.6211L58.2384 18.6173C58.1018 18.7813 57.8557 18.8086 57.6918 18.672H57.6915Z" fill="#F3F3F3" />
  <path d="M57.6645 18.699C57.4731 18.5621 57.4458 18.2886 57.5826 18.0972L59.1683 16.1013C59.3049 15.9097 59.5784 15.8823 59.7698 16.0466C59.9611 16.1832 59.9885 16.4567 59.8516 16.6481L58.266 18.6443C58.1294 18.8357 57.8559 18.863 57.6645 18.699ZM59.715 16.1011C59.5513 15.9644 59.3323 15.9918 59.1957 16.1558L57.6097 18.152C57.5005 18.316 57.5279 18.5348 57.6916 18.6714C57.8559 18.8083 58.0746 18.7809 58.2112 18.6169L59.7971 16.6207C59.9066 16.4567 59.879 16.2106 59.7153 16.1013L59.715 16.1011Z" fill="white" />
  <path d="M57.4179 22.7738C57.2539 22.6098 57.2539 22.3637 57.4179 22.2268L61.4645 18.2075C61.6287 18.0436 61.8746 18.0706 62.0115 18.2075C62.1481 18.3442 62.1755 18.6177 62.0115 18.7543L57.9923 22.7738C57.828 22.9378 57.5819 22.9378 57.4179 22.7738Z" fill="#F3F3F3" />
  <path d="M57.3906 22.8009C57.3118 22.7207 57.2676 22.6127 57.2676 22.5002C57.2676 22.3877 57.3118 22.2797 57.3906 22.1994L61.4375 18.1798C61.5177 18.1009 61.6258 18.0566 61.7384 18.0566C61.8509 18.0566 61.959 18.1009 62.0393 18.1798C62.1181 18.2601 62.1623 18.3681 62.1623 18.4806C62.1623 18.5931 62.1181 18.7011 62.0393 18.7813L57.9921 22.8006C57.9119 22.8795 57.8039 22.9237 57.6914 22.9237C57.5789 22.9237 57.4709 22.8795 57.3906 22.8006V22.8009ZM62.0119 18.2072C61.8753 18.0703 61.6291 18.0703 61.4925 18.2072L57.4454 22.2265C57.3085 22.3634 57.3085 22.6096 57.4454 22.7462C57.582 22.8831 57.8281 22.8831 57.9648 22.7462L62.0119 18.7268C62.1485 18.59 62.1485 18.3712 62.0119 18.2072Z" fill="white" />
  <path d="M61.5197 22.5545C61.3831 22.3905 61.3831 22.1444 61.5471 22.0075L63.4883 20.3671C63.6523 20.2305 63.8984 20.2576 64.0353 20.4218C64.1719 20.5858 64.1719 20.8319 64.0079 20.9685L62.0667 22.6093C61.9024 22.7459 61.6563 22.7185 61.5197 22.5545Z" fill="#F3F3F3" />
  <path d="M61.492 22.5818C61.328 22.3905 61.3554 22.117 61.5194 21.9803L63.4606 20.3396C63.6246 20.1756 63.8981 20.203 64.062 20.3943C64.2263 20.5857 64.1989 20.8592 64.035 20.9958L62.0934 22.6366C61.9297 22.8003 61.656 22.7732 61.4923 22.5818H61.492ZM64.0076 20.4217C63.8707 20.2577 63.652 20.2577 63.4883 20.367L61.5467 22.0077C61.4101 22.1443 61.3828 22.3631 61.5194 22.5271C61.656 22.6911 61.875 22.6911 62.0387 22.5818L63.9802 20.9411C64.1442 20.8045 64.1442 20.5857 64.0076 20.4217Z" fill="white" />
  <path d="M60.4262 26.4926C60.2896 26.3012 60.3443 26.0551 60.5357 25.9455L65.2932 22.7738C65.4846 22.6643 65.7307 22.719 65.8399 22.8833C65.9768 23.0747 65.922 23.3208 65.7307 23.43L60.9732 26.6018C60.8089 26.7113 60.5628 26.6566 60.4262 26.4926Z" fill="#F3F3F3" />
  <path d="M60.3981 26.4924C60.2615 26.3011 60.3163 26.0276 60.5076 25.891L65.2654 22.719C65.4567 22.5824 65.7302 22.6371 65.8669 22.8559C66.0038 23.0472 65.9487 23.3207 65.7576 23.4571L60.9999 26.6293C60.8082 26.7662 60.535 26.7115 60.3981 26.4927V26.4924ZM65.8121 22.9106C65.7029 22.7463 65.4841 22.6916 65.3201 22.8011L60.5621 25.9728C60.3984 26.0823 60.3434 26.3011 60.4802 26.4924C60.5895 26.6564 60.8082 26.7112 60.9725 26.602L65.7302 23.43C65.8942 23.2934 65.9216 23.0743 65.8121 22.9106Z" fill="white" />
  <path d="M64.5004 27.0667C64.3909 26.875 64.4456 26.6292 64.637 26.5197L66.8519 25.262C67.0433 25.1524 67.2895 25.2346 67.3987 25.4257C67.5082 25.6173 67.4535 25.8631 67.2621 25.9727L65.0472 27.2307C64.8558 27.3399 64.6096 27.258 64.5001 27.0664L64.5004 27.0667Z" fill="#F3F3F3" />
  <path d="M64.4736 27.0939C64.364 26.8751 64.4188 26.629 64.6102 26.5198L66.8251 25.262C67.0165 25.1524 67.29 25.2346 67.3992 25.4257C67.5087 25.6447 67.454 25.8909 67.2626 26.0001L65.0477 27.2582C64.8563 27.3674 64.5828 27.2853 64.4736 27.0939ZM67.3718 25.4533C67.2626 25.262 67.0438 25.2072 66.8798 25.3164L64.6649 26.5745C64.5009 26.6837 64.4462 26.9025 64.528 27.0665C64.6375 27.2579 64.8563 27.3126 65.0203 27.2034L67.2352 25.9453C67.3992 25.8635 67.454 25.6447 67.3718 25.4533Z" fill="white" />
  <path d="M62.6678 30.7032C62.586 30.4844 62.6678 30.2657 62.8866 30.1838L68.1639 27.9964C68.3553 27.9142 68.6014 28.0235 68.6833 28.2148C68.7654 28.4336 68.6833 28.6523 68.4645 28.7342L63.1875 30.9216C62.9958 31.0038 62.75 30.9216 62.6678 30.7032Z" fill="#F3F3F3" />
  <path d="M62.641 30.7302C62.5591 30.5117 62.641 30.2656 62.8597 30.1561L68.1371 27.9687C68.2422 27.9291 68.3588 27.9327 68.4613 27.9788C68.5637 28.025 68.6437 28.1098 68.6838 28.2148C68.7659 28.4336 68.6838 28.6797 68.465 28.7889L63.188 30.9763C63.0828 31.016 62.9662 31.0125 62.8637 30.9664C62.7612 30.9203 62.6811 30.8355 62.641 30.7305V30.7302ZM68.6293 28.2422C68.5472 28.0508 68.3284 27.9687 68.1644 28.0235L62.8871 30.2109C62.6958 30.2927 62.6136 30.5117 62.6957 30.7031C62.7776 30.8945 62.9964 30.9766 63.1606 30.9218L68.4377 28.7344C68.6293 28.6526 68.7114 28.4336 68.6293 28.2422Z" fill="white" />
  <path d="M66.5237 32.0706C66.4419 31.8516 66.5511 31.6331 66.7698 31.551L69.1759 30.7579C69.3672 30.676 69.6133 30.8126 69.6681 31.004C69.7499 31.2227 69.6407 31.4415 69.422 31.5236L67.0159 32.3168C66.8246 32.3986 66.6059 32.2894 66.5237 32.0704V32.0706Z" fill="#F3F3F3" />
  <path d="M66.4961 32.0975C66.4142 31.8788 66.5235 31.6327 66.7699 31.5508L69.1756 30.7576C69.3943 30.6758 69.6404 30.8124 69.7225 31.0314C69.8044 31.2499 69.6952 31.496 69.4488 31.5782L67.043 32.3713C66.8243 32.4258 66.5782 32.3163 66.4961 32.0975ZM69.6678 31.0588C69.613 30.8671 69.3943 30.7576 69.2029 30.8124L66.7969 31.6056C66.6056 31.66 66.5235 31.8788 66.5782 32.0704C66.633 32.2618 66.8517 32.3711 67.043 32.3163L69.4491 31.5234C69.6404 31.4416 69.7225 31.2499 69.6678 31.0585V31.0588Z" fill="white" />
  <path d="M64.0629 35.324C64.0081 35.1053 64.1447 34.8865 64.3635 34.8592L69.9687 33.7655C70.1872 33.7108 70.3788 33.8747 70.4333 34.0935C70.488 34.3122 70.3514 34.5309 70.1327 34.5583L64.5274 35.6519C64.3087 35.6793 64.09 35.5427 64.0626 35.324H64.0629Z" fill="#F3F3F3" />
  <path d="M64.0077 35.3248C63.9529 35.0786 64.1169 34.8598 64.3357 34.8051L69.9413 33.7112C70.16 33.6565 70.3788 33.8208 70.4333 34.0669C70.488 34.3128 70.324 34.5315 70.1053 34.5863L64.4997 35.6801C64.2812 35.7349 64.0622 35.5709 64.0077 35.3245V35.3248ZM70.3788 34.094C70.3514 33.9026 70.16 33.766 69.9687 33.7934L64.3631 34.8872C64.1717 34.9146 64.0351 35.1331 64.0895 35.3248C64.1169 35.5161 64.3083 35.6528 64.5 35.6254L70.1053 34.5315C70.2967 34.4768 70.4333 34.2854 70.3788 34.094Z" fill="white" />
  <path d="M67.5626 37.4297C67.5352 37.2109 67.6718 37.0195 67.8905 36.9921L70.406 36.6912C70.6247 36.6641 70.8164 36.8281 70.8435 37.0469C70.8709 37.2656 70.7343 37.457 70.5155 37.4844L67.9998 37.7851C67.8084 37.8125 67.5897 37.6484 67.5623 37.4297H67.5626Z" fill="#F3F3F3" />
  <path d="M67.5352 37.4296C67.5078 37.1835 67.6718 36.9647 67.8906 36.9374L70.4059 36.6368C70.6247 36.6094 70.8434 36.7734 70.8708 37.0195C70.8982 37.2656 70.7342 37.4843 70.5154 37.5117L67.9998 37.8123C67.7813 37.8397 67.5623 37.6757 67.5352 37.4296ZM70.8434 37.0469C70.8163 36.8555 70.6249 36.6912 70.4333 36.7186L67.9179 37.0195C67.7266 37.0469 67.5897 37.2382 67.6171 37.4296C67.6444 37.6209 67.8358 37.7852 68.0272 37.7578L70.5428 37.457C70.7342 37.4296 70.8708 37.2382 70.8437 37.0469H70.8434Z" fill="white" />
  <path d="M64.5007 40.0825C64.5007 39.8637 64.6644 39.6724 64.8835 39.6724H70.5984C70.8171 39.6724 70.9811 39.8637 70.9811 40.0825C70.9811 40.3012 70.8171 40.4926 70.5984 40.4926H64.8835C64.6647 40.4926 64.5007 40.3012 64.5007 40.0825Z" fill="#F3F3F3" />
  <path d="M64.4731 40.0823C64.4731 39.8361 64.6645 39.6448 64.8833 39.6448H70.5981C70.8169 39.6448 71.0083 39.8361 71.0083 40.0823C71.0083 40.3284 70.8169 40.5197 70.5981 40.5197H64.8833C64.6645 40.5197 64.4731 40.3284 64.4731 40.0823ZM70.9535 40.1096C70.9535 39.9183 70.7895 39.7269 70.5979 39.7269H64.8835C64.6922 39.7269 64.5279 39.8906 64.5279 40.1096C64.5279 40.301 64.6922 40.4924 64.8835 40.4924H70.5984C70.7898 40.465 70.9538 40.301 70.9538 40.1096H70.9535Z" fill="white" />
  <path d="M67.5357 42.8437C67.5628 42.6249 67.727 42.4609 67.9458 42.4609L70.4888 42.6523C70.7072 42.6797 70.8712 42.8711 70.8439 43.0898C70.8168 43.3085 70.6525 43.4725 70.4338 43.4725L67.891 43.2812C67.6997 43.2538 67.5354 43.0624 67.5354 42.8437H67.5357Z" fill="#F3F3F3" />
  <path d="M67.5078 42.8437C67.5352 42.5976 67.7266 42.4336 67.9454 42.4336L70.4887 42.625C70.7072 42.6523 70.8986 42.8437 70.8712 43.0898C70.8441 43.336 70.6525 43.5 70.4337 43.5L67.8906 43.3086C67.6718 43.2812 67.5078 43.0625 67.5078 42.8437ZM70.8441 43.0898C70.8712 42.8985 70.7072 42.7071 70.5158 42.7071L67.9725 42.5157C67.7813 42.5157 67.6171 42.6523 67.5897 42.8714C67.5626 43.0625 67.7266 43.2538 67.918 43.2538L70.4614 43.4452C70.6525 43.4452 70.8167 43.2815 70.8441 43.0898Z" fill="white" />
  <path d="M64.0086 44.8403C64.0634 44.6216 64.2548 44.4847 64.4735 44.5123L70.0789 45.6335C70.2977 45.6879 70.4346 45.8793 70.3798 46.0981C70.3251 46.3168 70.1337 46.4537 69.9149 46.4263L64.3092 45.3052C64.1179 45.2778 63.9812 45.0591 64.0086 44.8403Z" fill="#F3F3F3" />
  <path d="M63.9805 44.8395C64.0353 44.5934 64.2541 44.4568 64.4728 44.4839L70.0786 45.6052C70.2974 45.6596 70.4614 45.8784 70.4066 46.1245C70.3521 46.3706 70.1334 46.5075 69.9146 46.4801L64.3085 45.3591C64.0898 45.3043 63.9531 45.0856 63.9805 44.8398V44.8395ZM70.3521 46.1245C70.3795 45.9331 70.2703 45.7418 70.0786 45.687L64.4725 44.566C64.2814 44.5389 64.0898 44.6481 64.035 44.8668C64.0079 45.0582 64.1171 45.2496 64.3088 45.3043L69.9146 46.4253C70.1334 46.4527 70.2974 46.3158 70.3521 46.1245Z" fill="white" />
  <path d="M66.4692 48.1209C66.4818 48.0688 66.5045 48.0198 66.536 47.9765C66.5675 47.9332 66.6072 47.8965 66.6529 47.8686C66.6986 47.8407 66.7493 47.8221 66.8022 47.8138C66.8551 47.8055 66.9091 47.8077 66.9612 47.8202L69.4221 48.5037C69.6409 48.5584 69.7501 48.7775 69.6957 48.996C69.6831 49.0481 69.6605 49.0972 69.6289 49.1405C69.5974 49.1839 69.5576 49.2206 69.5119 49.2485C69.4662 49.2765 69.4154 49.2951 69.3625 49.3034C69.3095 49.3117 69.2555 49.3095 69.2034 49.2969L66.7424 48.6132C66.5237 48.5584 66.4145 48.3396 66.4689 48.1209H66.4692Z" fill="#F3F3F3" />
  <path d="M66.4413 48.1212C66.4961 47.9025 66.7422 47.7385 66.961 47.8206L69.4219 48.5039C69.6407 48.5586 69.7776 48.8047 69.7228 49.0234C69.6681 49.2421 69.4219 49.4061 69.2032 49.3243L66.7422 48.6407C66.5235 48.586 66.3866 48.3673 66.4416 48.1215L66.4413 48.1212ZM69.6407 49.0234C69.6954 48.8321 69.5859 48.6134 69.3946 48.5586L66.9336 47.8751C66.7422 47.8203 66.5509 47.9298 66.4961 48.1485C66.4416 48.3399 66.5509 48.5586 66.7422 48.6134L69.2032 49.2969C69.3946 49.3243 69.5859 49.215 69.6407 49.0234Z" fill="white" />
  <path d="M62.613 49.4333C62.6949 49.2146 62.9413 49.1325 63.1324 49.2146L68.4099 51.402C68.6012 51.4839 68.7105 51.7303 68.6286 51.9213C68.5465 52.1404 68.3003 52.2222 68.109 52.1404L62.8318 49.953C62.613 49.8711 62.5309 49.6247 62.613 49.4336V49.4333Z" fill="#F3F3F3" />
  <path d="M62.5861 49.4063C62.6261 49.3013 62.7062 49.2164 62.8087 49.1702C62.9112 49.1241 63.0279 49.1205 63.1331 49.1602L68.4103 51.3478C68.629 51.4299 68.7109 51.6761 68.629 51.9222C68.589 52.0273 68.5089 52.1122 68.4064 52.1583C68.3038 52.2045 68.1872 52.2081 68.082 52.1683L62.8048 49.9808C62.5861 49.8712 62.5042 49.6251 62.5861 49.4063ZM68.5743 51.8948C68.6561 51.7034 68.5743 51.4847 68.3829 51.4025L63.1057 49.215C62.9143 49.1331 62.7229 49.2423 62.6408 49.4337C62.559 49.6251 62.6408 49.8439 62.8322 49.926L68.1094 52.1136C68.3008 52.1683 68.5195 52.0862 68.5743 51.8948Z" fill="white" />
  <path d="M64.3904 53.1255C64.4999 52.9341 64.7183 52.8519 64.9096 52.9341L67.1789 54.0826C67.3703 54.1645 67.4524 54.4106 67.3432 54.6294C67.2337 54.8208 67.015 54.9032 66.8236 54.8208L64.5546 53.6725C64.363 53.563 64.2809 53.3168 64.3904 53.1255Z" fill="#F3F3F3" />
  <path d="M64.3634 53.098C64.4729 52.8792 64.719 52.7973 64.9378 52.9066L67.2072 54.0551C67.4259 54.1646 67.5081 54.4108 67.3986 54.6292C67.2893 54.848 67.0429 54.9301 66.8244 54.8206L64.555 53.6724C64.336 53.5905 64.2541 53.3167 64.3634 53.098ZM67.3167 54.6019C67.3986 54.4105 67.3438 54.1917 67.1524 54.1099L64.883 52.9613C64.7187 52.8795 64.5003 52.9613 64.3907 53.1253C64.3089 53.3167 64.3634 53.5355 64.5547 53.6176L66.8241 54.7661C67.0158 54.848 67.2346 54.7935 67.3167 54.6019Z" fill="white" />
  <path d="M60.3713 53.6448C60.5082 53.4535 60.7269 53.3987 60.9183 53.5353L65.6761 56.7073C65.8675 56.8166 65.8949 57.063 65.7857 57.2541C65.6488 57.4457 65.43 57.5002 65.2386 57.3636L60.4808 54.1916C60.2894 54.055 60.2346 53.8088 60.3713 53.6448Z" fill="#F3F3F3" />
  <path d="M60.3435 53.6172C60.4804 53.4259 60.7539 53.3711 60.9453 53.4806L65.7032 56.6523C65.8946 56.7889 65.9494 57.035 65.8125 57.2538C65.6758 57.4454 65.4023 57.4999 65.2112 57.3907L60.453 54.2187C60.2342 54.0821 60.2069 53.8086 60.3435 53.6172ZM65.7306 57.2264C65.8398 57.0627 65.8125 56.8163 65.6487 56.7071L60.8905 53.5351C60.7265 53.4259 60.5078 53.4806 60.3982 53.6446C60.289 53.8086 60.3164 54.0547 60.4801 54.164L65.2383 57.3359C65.4023 57.4454 65.6211 57.3907 65.7306 57.2267V57.2264Z" fill="white" />
  <path d="M61.3828 57.6095C61.5194 57.4452 61.7655 57.3907 61.9295 57.5276L63.9257 59.086C64.0897 59.2226 64.117 59.4688 63.9804 59.633C63.8438 59.7968 63.5977 59.8518 63.4334 59.7149L61.4372 58.1562C61.2735 58.0196 61.2459 57.7735 61.3828 57.6095Z" fill="#F3F3F3" />
  <path d="M61.3555 57.582C61.4921 57.3906 61.7656 57.3632 61.9569 57.5001L63.953 59.0585C64.1444 59.1951 64.1717 59.4686 64.0348 59.66C63.8982 59.8517 63.6247 59.8788 63.4337 59.7422L61.4373 58.1835C61.246 58.0469 61.2189 57.7734 61.3555 57.582ZM63.9804 59.6329C64.117 59.4686 64.0896 59.2499 63.9256 59.1133L61.9296 57.5546C61.7656 57.4454 61.5468 57.4728 61.4102 57.6365C61.2733 57.8007 61.3007 58.0195 61.4647 58.1561L63.4608 59.7148C63.6247 59.8243 63.8435 59.7966 63.9801 59.6329H63.9804Z" fill="white" />
  <path d="M57.3083 57.3361C57.4726 57.1721 57.7187 57.1721 57.8553 57.3361L61.9021 61.3554C62.0664 61.5197 62.039 61.7658 61.9021 61.9024C61.7384 62.0664 61.492 62.0664 61.3554 61.9024L57.3083 57.8831C57.1717 57.7462 57.1717 57.4727 57.3083 57.3361Z" fill="#F3F3F3" />
  <path d="M57.3086 57.3087C57.3888 57.2298 57.4969 57.1855 57.6095 57.1855C57.722 57.1855 57.8301 57.2298 57.9104 57.3087L61.9573 61.328C62.0362 61.4082 62.0805 61.5163 62.0805 61.6289C62.0805 61.7414 62.0362 61.8495 61.9573 61.9298C61.877 62.0086 61.769 62.0528 61.6565 62.0528C61.544 62.0528 61.436 62.0086 61.3557 61.9298L57.3086 57.9105C57.1172 57.7462 57.1172 57.473 57.3086 57.3087ZM61.9025 61.875C62.0394 61.7384 62.0394 61.4923 61.9025 61.3557L57.8556 57.3361C57.719 57.1995 57.4729 57.1995 57.3362 57.3361C57.1993 57.4727 57.1993 57.7188 57.3362 57.8555L61.3831 61.875C61.5197 62.0393 61.7388 62.0393 61.9025 61.875Z" fill="white" />
  <path d="M57.5543 61.4103C57.7186 61.2737 57.9645 61.2737 58.1013 61.4377L59.7695 63.3517C59.9059 63.516 59.8788 63.7621 59.7145 63.8988C59.5508 64.0354 59.3044 64.0354 59.1678 63.8714L57.4996 61.9573C57.3629 61.8207 57.3903 61.5746 57.5543 61.4103Z" fill="#F3F3F3" />
  <path d="M57.5275 61.4101C57.7189 61.2464 57.965 61.2735 58.1287 61.4375L59.7968 63.3514C59.9608 63.5157 59.9335 63.7889 59.7421 63.9532C59.5507 64.1172 59.3046 64.0898 59.1406 63.9258L57.4725 62.0119C57.3358 61.8205 57.3358 61.547 57.5272 61.4101H57.5275ZM59.715 63.8985C59.8787 63.7618 59.8787 63.5428 59.7695 63.3791L58.1013 61.4648C57.9647 61.3282 57.746 61.3009 57.582 61.4375C57.418 61.5744 57.418 61.7931 57.5272 61.9568L59.1954 63.8711C59.332 64.0351 59.551 64.0351 59.7147 63.8985H59.715Z" fill="white" />
  <path d="M53.6174 60.3713C53.8088 60.2346 54.055 60.2894 54.1645 60.4808L57.3362 65.211C57.4457 65.4024 57.3909 65.6485 57.2269 65.758C57.0355 65.8946 56.7894 65.8399 56.6799 65.6485L53.5079 60.918C53.3984 60.7269 53.4532 60.4805 53.6172 60.3713H53.6174Z" fill="#F3F3F3" />
  <path d="M53.6173 60.3439C53.8087 60.2073 54.0821 60.2621 54.2187 60.4534L57.3905 65.1838C57.5271 65.3748 57.4724 65.6483 57.2539 65.7849C57.0623 65.9218 56.7891 65.8671 56.6522 65.6757L53.4807 60.9454C53.3441 60.7269 53.3988 60.4808 53.6173 60.3442V60.3439ZM57.2265 65.7305C57.3905 65.621 57.4453 65.4022 57.3358 65.2382L54.1643 60.5079C54.0548 60.3442 53.836 60.3165 53.645 60.426C53.4807 60.5353 53.4259 60.754 53.5355 60.9183L56.7069 65.6483C56.8164 65.7849 57.0626 65.8397 57.2263 65.7302L57.2265 65.7305Z" fill="white" />
  <path d="M53.0428 64.4179C53.2341 64.3087 53.4802 64.3635 53.5895 64.5548L54.8474 66.7697C54.9567 66.9611 54.8745 67.2072 54.6832 67.3165C54.4918 67.426 54.2457 67.3712 54.1365 67.1799L52.8788 64.965C52.7966 64.7736 52.8514 64.5275 53.0425 64.4182L53.0428 64.4179Z" fill="#F3F3F3" />
  <path d="M53.043 64.3906C53.2617 64.281 53.5079 64.3358 53.6171 64.5272L54.8748 66.7423C54.9844 66.9337 54.9296 67.2072 54.7111 67.3165C54.4921 67.426 54.246 67.3712 54.1367 67.1798L52.879 64.9647C52.7695 64.7733 52.8242 64.5272 53.0427 64.3906H53.043ZM54.6835 67.2894C54.8478 67.1798 54.9296 66.9611 54.8204 66.797L53.5626 64.5819C53.4531 64.4179 53.2344 64.3632 53.0704 64.445C52.9061 64.5546 52.8242 64.7733 52.9335 64.9373L54.1915 67.1524C54.2734 67.3165 54.5195 67.3986 54.6835 67.2891V67.2894Z" fill="white" />
  <path d="M49.4063 62.6134C49.625 62.5315 49.8438 62.6134 49.9259 62.8048L52.1408 68.082C52.2227 68.2734 52.1134 68.5195 51.9221 68.6014C51.7307 68.6835 51.4846 68.6014 51.4027 68.41L49.1878 63.133C49.1057 62.9414 49.2149 62.6955 49.4063 62.6134Z" fill="#F3F3F3" />
  <path d="M49.4064 62.5861C49.6252 62.5042 49.8713 62.5861 49.9808 62.8048L52.1956 68.0822C52.2352 68.1873 52.2316 68.3039 52.1854 68.4064C52.1393 68.5089 52.0544 68.5889 51.9494 68.6289C51.7307 68.7111 51.4846 68.6289 51.3754 68.4102L49.1606 63.1331C49.0784 62.9414 49.188 62.6956 49.4064 62.5861ZM51.8947 68.5744C52.0861 68.4923 52.1682 68.2736 52.0861 68.1096L49.8713 62.8322C49.7894 62.6408 49.5707 62.5587 49.3793 62.6408C49.188 62.7227 49.1055 62.9414 49.188 63.1057L51.4025 68.3831C51.512 68.5744 51.7033 68.6563 51.8947 68.5744Z" fill="white" />
  <path d="M48.066 66.4964C48.285 66.4145 48.5035 66.5238 48.5856 66.7425L49.3788 69.1488C49.4606 69.3402 49.324 69.5863 49.1326 69.6411C48.9139 69.7229 48.6951 69.6137 48.6133 69.3949L47.8201 66.9887C47.7383 66.7973 47.8475 66.5785 48.0663 66.4964H48.066Z" fill="#F3F3F3" />
  <path d="M48.0395 66.4689C48.1446 66.4293 48.2612 66.433 48.3637 66.4791C48.4662 66.5252 48.5462 66.6101 48.5863 66.7151L49.3795 69.1212C49.4614 69.3399 49.3248 69.5861 49.1057 69.6682C49.0005 69.7078 48.8839 69.7042 48.7814 69.658C48.679 69.6119 48.5989 69.5271 48.5589 69.4221L47.7659 67.0159C47.7111 66.7972 47.8207 66.5511 48.0395 66.4689ZM49.106 69.6131C49.2974 69.5587 49.4066 69.3399 49.3521 69.1486L48.5589 66.7424C48.5044 66.5511 48.2856 66.4689 48.0942 66.5237C47.9025 66.5785 47.7933 66.7972 47.8481 66.9886L48.641 69.3947C48.655 69.4411 48.6785 69.4841 48.7102 69.5208C48.7418 69.5575 48.7808 69.5871 48.8247 69.6078C48.8686 69.6284 48.9163 69.6396 48.9647 69.6405C49.0132 69.6415 49.0613 69.6323 49.106 69.6134V69.6131Z" fill="white" />
  <path d="M44.8401 64.0082C45.0586 63.9534 45.2776 64.09 45.3047 64.3088L46.4534 69.9146C46.5082 70.1331 46.3439 70.3248 46.1251 70.3792C45.9066 70.434 45.6875 70.2974 45.6604 70.0786L44.5115 64.4728C44.4844 64.2814 44.621 64.0627 44.8398 64.0079L44.8401 64.0082Z" fill="#F3F3F3" />
  <path d="M44.8399 63.9803C45.0857 63.9258 45.3044 64.0898 45.3592 64.3085L46.5075 69.9147C46.5623 70.1332 46.398 70.3793 46.1793 70.4067C45.9332 70.4614 45.7145 70.2974 45.66 70.0787L44.5114 64.4726C44.4569 64.2538 44.5938 64.035 44.8396 63.9805L44.8399 63.9803ZM46.1245 70.3519C46.3162 70.3248 46.4528 70.1332 46.4254 69.9144L45.277 64.3085C45.25 64.1172 45.0312 63.9805 44.8396 64.035C44.6483 64.0624 44.5117 64.2538 44.539 64.4726L45.6874 70.0787C45.7419 70.2701 45.9332 70.3793 46.1248 70.3522L46.1245 70.3519Z" fill="white" />
  <path d="M42.7619 67.5626C42.9806 67.5352 43.172 67.6721 43.2268 67.8908L43.5547 70.4062C43.5821 70.6249 43.4181 70.8163 43.1991 70.8437C42.9806 70.8711 42.7893 70.7345 42.7345 70.5157L42.4066 68C42.3792 67.7813 42.5432 67.5899 42.7619 67.5626Z" fill="#F3F3F3" />
  <path d="M42.7614 67.5352C43.0076 67.5081 43.2265 67.6721 43.2539 67.8908L43.582 70.4064C43.6094 70.6252 43.4453 70.8439 43.1991 70.8713C42.9528 70.8987 42.734 70.7347 42.7066 70.5157L42.3785 68.0001C42.3511 67.7813 42.5151 67.5625 42.7614 67.5352ZM43.1717 70.8166C43.3632 70.7895 43.5275 70.5978 43.5001 70.4064L43.1717 67.8908C43.1443 67.6994 42.9528 67.5625 42.7614 67.5899C42.5699 67.6173 42.4056 67.8087 42.433 68.0001L42.7614 70.5159C42.7888 70.7073 42.9802 70.8439 43.1717 70.8166Z" fill="white" />
  <path d="M39.9457 64.4995C40.1645 64.4995 40.3558 64.6638 40.3558 64.8825V70.5973C40.3558 70.816 40.1645 70.9803 39.9457 70.9803C39.727 70.9803 39.5356 70.816 39.5356 70.5973V64.8825C39.563 64.6638 39.727 64.4995 39.9457 64.4995Z" fill="#F3F3F3" />
  <path d="M39.9455 64.4722C40.1917 64.4722 40.383 64.6635 40.383 64.8823V70.5972C40.383 70.8159 40.1917 71.0073 39.9455 71.0073C39.6994 71.0073 39.5081 70.8159 39.5081 70.5972V64.8826C39.5081 64.6638 39.7268 64.4722 39.9455 64.4722ZM39.9455 70.9528C40.1369 70.9528 40.3283 70.7888 40.3283 70.5972V64.8826C40.3283 64.6909 40.1643 64.5269 39.9455 64.5269C39.7542 64.5269 39.5628 64.6909 39.5628 64.8826V70.5972C39.5899 70.7888 39.7542 70.9528 39.9455 70.9528Z" fill="white" />
  <path d="M37.2109 67.5628C37.4296 67.5902 37.5936 67.7542 37.5936 67.9729L37.4023 70.516C37.3752 70.7348 37.1835 70.8988 36.9648 70.8717C36.746 70.844 36.582 70.68 36.582 70.4613L36.7734 67.9182C36.8008 67.6997 36.9921 67.5354 37.2109 67.5628Z" fill="#F3F3F3" />
  <path d="M37.2109 67.5351C37.4571 67.5625 37.6211 67.7539 37.6211 67.9727L37.4297 70.5159C37.4023 70.7347 37.2109 70.9261 36.9648 70.8987C36.719 70.8713 36.5547 70.6799 36.5547 70.4612L36.7461 67.9179C36.7734 67.6721 36.9648 67.5081 37.2109 67.5351ZM36.9648 70.8439C37.1562 70.8439 37.3478 70.7073 37.3478 70.5159L37.5392 67.9727C37.5392 67.7813 37.4023 67.6173 37.1836 67.5899C36.9922 67.5899 36.8008 67.7265 36.8008 67.9182L36.6094 70.4612C36.6094 70.6525 36.7734 70.8168 36.9651 70.8439H36.9648Z" fill="white" />
  <path d="M35.16 64.0074C35.3787 64.0619 35.5153 64.2533 35.4879 64.472L34.3669 70.0782C34.3121 70.2969 34.1207 70.4338 33.902 70.3788C33.6833 70.3243 33.5467 70.1329 33.574 69.9139L34.6951 64.308C34.7225 64.1166 34.9412 63.98 35.16 64.0074Z" fill="#F3F3F3" />
  <path d="M35.1603 63.9803C35.4062 64.0351 35.5431 64.2541 35.5157 64.4726L34.3946 70.0784C34.3398 70.2972 34.1211 70.4612 33.8752 70.4064C33.6291 70.3517 33.4922 70.1329 33.5196 69.9142L34.6407 64.3086C34.6955 64.0898 34.9142 63.9529 35.1601 63.9806L35.1603 63.9803ZM33.8752 70.3517C34.0666 70.379 34.258 70.2698 34.3127 70.0784L35.4336 64.4726C35.4609 64.2812 35.3517 64.0898 35.133 64.0351C34.9416 64.008 34.7502 64.1172 34.6955 64.3089L33.5743 69.9142C33.5469 70.1329 33.6836 70.2972 33.8752 70.3517Z" fill="white" />
  <path d="M31.8792 66.4689C32.0983 66.5237 32.2349 66.7424 32.1801 66.9611L31.4965 69.4219C31.442 69.6406 31.2232 69.7498 31.0045 69.6954C30.9524 69.6828 30.9033 69.6602 30.8599 69.6286C30.8166 69.5971 30.7799 69.5574 30.752 69.5116C30.724 69.4659 30.7054 69.4151 30.6971 69.3622C30.6888 69.3093 30.691 69.2552 30.7036 69.2032L31.3872 66.7424C31.442 66.5237 31.6607 66.4145 31.8795 66.4689H31.8792Z" fill="#F3F3F3" />
  <path d="M31.8787 66.4418C32.0977 66.4963 32.2617 66.7424 32.1795 66.9611L31.4959 69.4221C31.4415 69.6409 31.1953 69.7778 30.9766 69.7227C30.7579 69.6682 30.5939 69.4221 30.6757 69.2034L31.3593 66.7424C31.4141 66.5237 31.6328 66.3868 31.8787 66.4415V66.4418ZM30.9766 69.6409C31.168 69.6956 31.3867 69.5861 31.4415 69.3947L32.1248 66.9338C32.1795 66.7424 32.0703 66.551 31.8516 66.4963C31.6602 66.4415 31.4415 66.551 31.3867 66.7424L30.7031 69.2034C30.6757 69.3947 30.7849 69.5861 30.9766 69.6409Z" fill="white" />
  <path d="M30.5386 62.6138C30.7574 62.6957 30.8392 62.9418 30.7574 63.1332L28.5699 68.4106C28.4881 68.6022 28.2417 68.7115 28.0506 68.6022C27.8589 68.4927 27.7494 68.274 27.8315 68.0826L30.019 62.8052C30.1008 62.6138 30.3472 62.5043 30.5383 62.6138H30.5386Z" fill="#F3F3F3" />
  <path d="M30.5388 62.5863C30.6438 62.6263 30.7287 62.7064 30.7749 62.8089C30.821 62.9115 30.8246 63.0281 30.7849 63.1333L28.5973 68.4103C28.5152 68.6291 28.2691 68.7112 28.0229 68.6291C27.9179 68.589 27.8331 68.509 27.787 68.4066C27.7408 68.3041 27.7372 68.1875 27.7768 68.0824L29.9644 62.805C30.0739 62.5863 30.32 62.4771 30.5388 62.5863ZM28.0503 68.5746C28.2417 68.6565 28.4605 68.5746 28.5426 68.3832L30.7301 63.1059C30.812 62.9146 30.7028 62.7229 30.5114 62.6411C30.32 62.5592 30.1012 62.6411 30.0191 62.8324L27.8316 68.1097C27.7768 68.2737 27.8589 68.4925 28.0503 68.5746Z" fill="white" />
  <path d="M26.8479 64.3635C27.0393 64.4727 27.1212 64.6914 27.0393 64.8828L25.8908 67.152C25.7813 67.3433 25.5626 67.4254 25.3438 67.3159C25.1524 67.2067 25.0706 66.988 25.1524 66.7967L26.3012 64.5277C26.4104 64.3361 26.6292 64.254 26.8479 64.3635Z" fill="#F3F3F3" />
  <path d="M26.8478 64.3358C27.0666 64.445 27.1484 64.6914 27.0392 64.9098L25.8907 67.1793C25.7812 67.398 25.535 67.4802 25.3166 67.3707C25.0978 67.2614 25.0157 67.015 25.1252 66.7966L26.2734 64.5274C26.3829 64.3084 26.6291 64.2265 26.8478 64.3358ZM25.344 67.3162C25.5353 67.398 25.7541 67.3433 25.8359 67.1519L26.9844 64.8827C27.0663 64.7185 26.9844 64.4997 26.8204 64.3905C26.6291 64.3087 26.4103 64.3631 26.3282 64.5545L25.1797 66.8237C25.0978 66.9879 25.1797 67.2067 25.344 67.3159V67.3162Z" fill="white" />
  <path d="M26.3007 60.3166C26.492 60.4532 26.5468 60.6994 26.4102 60.8634L23.2382 65.5944C23.129 65.7855 22.8825 65.8129 22.6915 65.7037C22.5001 65.5667 22.4453 65.3209 22.5819 65.1566L25.7539 60.4256C25.8632 60.2345 26.1093 60.1797 26.3007 60.3163V60.3166Z" fill="#F3F3F3" />
  <path d="M26.3012 60.2887C26.4925 60.4256 26.5473 60.6991 26.4378 60.8905L23.266 65.6212C23.1293 65.8123 22.8832 65.8671 22.6645 65.7305C22.4731 65.5936 22.4183 65.3203 22.5276 65.1287L25.6997 60.3983C25.8363 60.2069 26.1098 60.1521 26.3012 60.2887ZM22.6918 65.6757C22.8555 65.7849 23.102 65.7576 23.2112 65.5939L26.3833 60.8631C26.4925 60.6991 26.4381 60.4804 26.2738 60.3709C26.1098 60.2616 25.8637 60.289 25.7544 60.4527L22.5823 65.1561C22.4731 65.3203 22.5276 65.5662 22.6918 65.6754V65.6757Z" fill="white" />
  <path d="M22.3089 61.3283C22.4732 61.4649 22.5277 61.711 22.391 61.875L20.8051 63.8711C20.6684 64.035 20.4223 64.0624 20.2583 63.9258C20.0943 63.7892 20.0396 63.5431 20.1765 63.3788L21.7622 61.3828C21.8988 61.2191 22.1449 61.1914 22.3089 61.3283Z" fill="#F3F3F3" />
  <path d="M22.3363 61.3011C22.5277 61.4377 22.5551 61.7113 22.4182 61.9026L20.8324 63.8988C20.6958 64.0902 20.4223 64.1176 20.2309 63.9536C20.0395 63.8167 20.0122 63.5435 20.1491 63.3518L21.7348 61.3559C21.8714 61.1642 22.1449 61.1371 22.3363 61.3011ZM20.2857 63.8988C20.4494 64.0355 20.6684 64.0084 20.805 63.8441L22.3911 61.8479C22.5006 61.6842 22.4729 61.4651 22.3092 61.3285C22.1449 61.1916 21.9262 61.219 21.7896 61.3833L20.2035 63.3792C20.0943 63.5435 20.1217 63.7893 20.2854 63.8988H20.2857Z" fill="white" />
  <path d="M22.582 57.2272C22.746 57.3909 22.746 57.6373 22.582 57.7739L18.5354 61.7933C18.3712 61.9576 18.1253 61.9302 17.9884 61.7933C17.8518 61.6567 17.8245 61.3832 17.9884 61.2466L22.0077 57.2272C22.1719 57.0629 22.4181 57.0629 22.582 57.2272Z" fill="#F3F3F3" />
  <path d="M22.6094 57.1995C22.6882 57.2797 22.7323 57.3876 22.7323 57.5001C22.7323 57.6125 22.6882 57.7205 22.6094 57.8007L18.5625 61.8207C18.4823 61.8995 18.3744 61.9436 18.2619 61.9436C18.1495 61.9436 18.0415 61.8995 17.9613 61.8207C17.8824 61.7405 17.8381 61.6324 17.8381 61.5198C17.8381 61.4072 17.8824 61.2992 17.9613 61.2189L22.0079 57.1995C22.0882 57.1206 22.1962 57.0764 22.3087 57.0764C22.4212 57.0764 22.5292 57.1206 22.6094 57.1995ZM17.9884 61.7931C18.125 61.9297 18.3712 61.9297 18.5078 61.7931L22.5546 57.7733C22.6915 57.6367 22.6915 57.3906 22.5546 57.254C22.418 57.1171 22.1719 57.1171 22.0353 57.254L17.9884 61.2734C17.8518 61.41 17.8518 61.6291 17.9884 61.7928V61.7931Z" fill="white" />
  <path d="M18.4805 57.4452C18.6171 57.6089 18.6171 57.8553 18.4531 57.9919L16.5118 59.6329C16.3478 59.7695 16.1016 59.7421 15.9647 59.5781C15.8281 59.4138 15.8281 59.1679 15.9921 59.031L17.9335 57.3904C18.0978 57.2535 18.3436 57.2809 18.4805 57.4452Z" fill="#F3F3F3" />
  <path d="M18.5078 57.418C18.6718 57.6096 18.6444 57.8828 18.4804 58.0197L16.539 59.6601C16.375 59.8243 16.1015 59.797 15.9375 59.6056C15.7733 59.414 15.8006 59.1408 15.9646 59.0039L17.9063 57.3635C18.07 57.1995 18.3438 57.2269 18.5075 57.4183L18.5078 57.418ZM15.992 59.5782C16.1289 59.7422 16.3477 59.7422 16.5114 59.633L18.453 57.9923C18.5897 57.8557 18.617 57.6367 18.4804 57.473C18.3435 57.3088 18.1248 57.3088 17.9611 57.4183L16.0194 59.0586C15.8554 59.1952 15.8554 59.4143 15.992 59.578V59.5782Z" fill="white" />
  <path d="M19.5745 53.5079C19.7111 53.6995 19.6563 53.9454 19.465 54.0549L14.7073 57.2267C14.5159 57.336 14.2698 57.2812 14.1605 57.1172C14.0236 56.9259 14.0784 56.6797 14.2698 56.5702L19.0278 53.3987C19.192 53.2894 19.4379 53.3439 19.5748 53.5079H19.5745Z" fill="#F3F3F3" />
  <path d="M19.6017 53.5074C19.7384 53.6991 19.6836 53.9723 19.4922 54.1092L14.7346 57.2809C14.5432 57.4178 14.2697 57.3627 14.1331 57.1443C13.9962 56.9529 14.0513 56.6794 14.2423 56.5428L19.0003 53.3708C19.1916 53.2342 19.4649 53.289 19.6015 53.5074H19.6017ZM14.1879 57.0895C14.2971 57.2535 14.5158 57.3083 14.6798 57.199L19.4375 54.0271C19.6017 53.9178 19.6562 53.6991 19.5196 53.5077C19.4104 53.3435 19.1916 53.289 19.0274 53.3982L14.2697 56.5702C14.1057 56.7068 14.0784 56.9255 14.1879 57.0895Z" fill="white" />
  <path d="M15.5005 52.9332C15.61 53.1246 15.5552 53.3707 15.3639 53.4802L13.149 54.7378C12.9576 54.8471 12.7115 54.7652 12.6022 54.5739C12.4927 54.3825 12.5475 54.1364 12.7388 54.0269L14.9537 52.7693C15.1451 52.6598 15.3912 52.7419 15.5008 52.9332H15.5005Z" fill="#F3F3F3" />
  <path d="M15.5281 52.9064C15.6373 53.1251 15.5825 53.3712 15.3912 53.4807L13.1763 54.7384C12.985 54.8476 12.7114 54.7657 12.6022 54.5744C12.4927 54.3557 12.5475 54.1095 12.7388 54L14.9537 52.7424C15.145 52.6329 15.4185 52.715 15.5278 52.9064H15.5281ZM12.6293 54.547C12.7388 54.7384 12.9576 54.7931 13.1216 54.6836L15.3364 53.426C15.5004 53.3165 15.5552 53.0977 15.4733 52.9338C15.3638 52.7424 15.145 52.6877 14.9811 52.7972L12.7662 54.0548C12.6022 54.1366 12.5475 54.3557 12.6296 54.547H12.6293Z" fill="white" />
  <path d="M17.3321 49.2972C17.414 49.516 17.3321 49.7347 17.1134 49.8166L11.836 52.0041C11.6446 52.0863 11.3985 51.977 11.3166 51.7854C11.2345 51.5666 11.3166 51.3479 11.5354 51.266L16.8128 49.0785C17.0041 48.9966 17.2503 49.0785 17.3321 49.2972Z" fill="#F3F3F3" />
  <path d="M17.3595 49.27C17.4414 49.4888 17.3595 49.7349 17.1408 49.8441L11.8634 52.0316C11.7582 52.0712 11.6417 52.0676 11.5392 52.0215C11.4367 51.9753 11.3567 51.8905 11.3166 51.7855C11.2345 51.5667 11.3166 51.3206 11.5354 51.2114L16.8128 49.0239C16.9179 48.9842 17.0345 48.9879 17.137 49.034C17.2395 49.0802 17.3195 49.165 17.3595 49.27ZM11.3711 51.7581C11.4533 51.9497 11.672 52.0319 11.836 51.9768L17.1134 49.7894C17.3048 49.7075 17.3869 49.4888 17.3048 49.2974C17.2229 49.106 17.0041 49.0239 16.8399 49.0786L11.5625 51.2661C11.3711 51.348 11.2893 51.5667 11.3711 51.7584V51.7581Z" fill="white" />
  <path d="M13.477 47.9295C13.5588 48.1483 13.4496 48.367 13.2309 48.4489L10.8246 49.242C10.6332 49.3239 10.3871 49.1873 10.3323 48.9959C10.2505 48.7771 10.3597 48.5584 10.5785 48.4765L12.9847 47.6834C13.1761 47.6016 13.3949 47.7108 13.477 47.9295Z" fill="#F3F3F3" />
  <path d="M13.5035 47.9021C13.5857 48.1209 13.4765 48.3671 13.2303 48.4492L10.8241 49.2422C10.6054 49.324 10.3592 49.1874 10.2771 48.9686C10.1952 48.7499 10.3045 48.5037 10.5509 48.4218L12.9568 47.6286C13.1756 47.5741 13.4217 47.6834 13.5038 47.9024L13.5035 47.9021ZM10.3321 48.9415C10.3869 49.1329 10.6056 49.2424 10.797 49.1877L13.2032 48.3945C13.3946 48.34 13.4767 48.1212 13.422 47.9298C13.3672 47.7384 13.1485 47.6289 12.9571 47.6836L10.5509 48.4769C10.3595 48.5587 10.2774 48.7501 10.3321 48.9415Z" fill="white" />
  <path d="M15.9376 44.6762C15.9921 44.8949 15.8555 45.1136 15.6367 45.141L10.0311 46.2347C9.81238 46.2895 9.62101 46.1252 9.56654 45.9065C9.51178 45.6877 9.64839 45.469 9.86714 45.4416L15.4727 44.3479C15.6915 44.3208 15.9102 44.4574 15.9373 44.6762H15.9376Z" fill="#F3F3F3" />
  <path d="M15.9919 44.6762C16.0467 44.9224 15.8827 45.1411 15.6639 45.1956L10.0583 46.2893C9.83952 46.3441 9.62077 46.1801 9.56629 45.934C9.51153 45.6878 9.67552 45.4691 9.89427 45.4146L15.4999 44.3209C15.7184 44.2661 15.9374 44.4301 15.9919 44.6762ZM9.62077 45.9069C9.64815 46.0979 9.83952 46.2348 10.0309 46.2075L15.6365 45.1137C15.8279 45.0863 15.9645 44.8676 15.91 44.6762C15.8827 44.4849 15.6913 44.348 15.4996 44.3753L9.89427 45.4691C9.7029 45.5238 9.56629 45.7152 9.62077 45.9066V45.9069Z" fill="white" />
  <path d="M12.4376 42.5706C12.4647 42.7891 12.328 42.9808 12.1093 43.0082L9.59381 43.3089C9.37478 43.3363 9.18341 43.1722 9.15631 42.9532C9.12893 42.7347 9.26554 42.5432 9.48429 42.5156L12.0001 42.2149C12.1914 42.1875 12.4102 42.3515 12.4376 42.5706Z" fill="#F3F3F3" />
  <path d="M12.465 42.5705C12.4921 42.8163 12.3281 43.0351 12.1093 43.0624L9.59385 43.3633C9.37481 43.3907 9.15635 43.2267 9.12897 42.9806C9.10159 42.7345 9.26558 42.5158 9.48433 42.4884L12.0001 42.1875C12.2186 42.1602 12.4376 42.3244 12.4647 42.5702L12.465 42.5705ZM9.15606 42.9532C9.18344 43.1446 9.3751 43.3088 9.56647 43.2812L12.082 42.9806C12.2733 42.9532 12.4102 42.7619 12.3828 42.5705C12.3555 42.3789 12.1641 42.2149 11.9727 42.2423L9.45695 42.5431C9.26558 42.5705 9.12897 42.7619 9.15606 42.9532Z" fill="white" />
  <path d="M15.4998 39.9181C15.4998 40.1372 15.3361 40.3285 15.1171 40.3285H9.40251C9.18377 40.3285 9.01978 40.1372 9.01978 39.9184C9.01978 39.6997 9.18377 39.5081 9.40251 39.5081H15.1174C15.3361 39.5081 15.5004 39.6997 15.5004 39.9184L15.4998 39.9181Z" fill="#F3F3F3" />
  <path d="M15.528 39.9179C15.528 40.1643 15.3364 40.3554 15.1176 40.3554H9.40304C9.18429 40.3554 8.99292 40.1641 8.99292 39.9179C8.99292 39.6721 9.18429 39.4805 9.40304 39.4805H15.1179C15.3367 39.4805 15.528 39.6721 15.528 39.9179ZM9.0474 39.8909C9.0474 40.0822 9.21139 40.2736 9.40304 40.2736H15.1176C15.309 40.2736 15.4733 40.1096 15.4733 39.8909C15.4733 39.6995 15.309 39.5078 15.1176 39.5078H9.40304C9.21167 39.5352 9.04768 39.6995 9.04768 39.8909H9.0474Z" fill="white" />
  <path d="M12.4652 37.156C12.4375 37.3747 12.2735 37.5387 12.0548 37.5387L9.51162 37.3473C9.29315 37.32 9.12916 37.1286 9.15625 36.9098C9.18363 36.6911 9.34791 36.5271 9.56666 36.5271L12.1096 36.7185C12.3009 36.7458 12.4652 36.9372 12.4652 37.156Z" fill="#E2E2E2" />
  <path d="M12.4917 37.1565C12.4643 37.4026 12.2729 37.5666 12.0542 37.5666L9.51105 37.3752C9.29259 37.3479 9.10122 37.1565 9.1286 36.9104C9.15569 36.6645 9.34734 36.5002 9.56609 36.5002L12.1089 36.6916C12.3277 36.719 12.4917 36.9377 12.4917 37.1565ZM9.15569 36.9104C9.1286 37.1017 9.29259 37.2934 9.48396 37.2934L12.0271 37.4848C12.2182 37.4848 12.3824 37.3479 12.4098 37.1291C12.4372 36.9377 12.2729 36.7464 12.0816 36.7464L9.53843 36.555C9.34734 36.555 9.18307 36.719 9.15569 36.9106V36.9104Z" fill="white" />
  <path d="M15.9921 35.1602C15.9373 35.379 15.746 35.5159 15.5272 35.4885L9.92185 34.3401C9.7031 34.2853 9.5662 34.0939 9.62096 33.8752C9.67572 33.6565 9.86709 33.5196 10.0858 33.5472L15.6915 34.6683C15.8829 34.7228 16.0195 34.9415 15.9921 35.1602Z" fill="#F3F3F3" />
  <path d="M16.0199 35.16C15.9652 35.4062 15.7464 35.5431 15.5277 35.5157L9.92235 34.3946C9.7036 34.3398 9.53961 34.1211 9.59437 33.8752C9.64884 33.6288 9.86759 33.4922 10.0863 33.5196L15.692 34.6407C15.9107 34.6954 16.0473 34.9142 16.0199 35.16ZM9.64884 33.8749C9.62146 34.0663 9.7307 34.2577 9.92235 34.3124L15.528 35.4335C15.7193 35.4609 15.9107 35.3517 15.9655 35.1327C15.9926 34.9413 15.8833 34.7499 15.6917 34.6952L10.0866 33.5743C9.86787 33.547 9.70388 33.6836 9.64912 33.8749H9.64884Z" fill="white" />
  <path d="M13.5317 31.8794C13.5191 31.9315 13.4964 31.9806 13.4649 32.0239C13.4334 32.0672 13.3936 32.1038 13.3479 32.1318C13.3021 32.1597 13.2514 32.1783 13.1984 32.1866C13.1455 32.1949 13.0915 32.1926 13.0394 32.18L10.5784 31.4964C10.3596 31.4417 10.2504 31.2229 10.3049 31.0042C10.3174 30.9521 10.3401 30.903 10.3717 30.8597C10.4032 30.8164 10.443 30.7798 10.4887 30.7519C10.5344 30.7239 10.5852 30.7053 10.6381 30.697C10.691 30.6888 10.7451 30.691 10.7971 30.7036L13.2582 31.3872C13.4769 31.4417 13.5862 31.6604 13.5317 31.8791V31.8794Z" fill="#F3F3F3" />
  <path d="M13.5583 31.879C13.5038 32.0975 13.2577 32.2617 13.0389 32.1796L10.5779 31.496C10.3591 31.4413 10.2222 31.1952 10.277 30.9767C10.3317 30.7577 10.5779 30.5937 10.7966 30.6758L13.2577 31.3594C13.4764 31.4142 13.6133 31.6329 13.5583 31.8787V31.879ZM10.3591 30.9761C10.3043 31.1678 10.4139 31.3865 10.6052 31.441L13.0663 32.1246C13.2577 32.1793 13.449 32.0698 13.5038 31.8511C13.5583 31.6597 13.449 31.441 13.2577 31.3865L10.7966 30.7029C10.6052 30.6756 10.4139 30.7848 10.3591 30.9764V30.9761Z" fill="white" />
  <path d="M17.3865 30.5667C17.3047 30.7852 17.0582 30.8673 16.8672 30.7852L11.5895 28.5977C11.3981 28.5159 11.2889 28.2697 11.3707 28.0784C11.4529 27.8596 11.699 27.7775 11.8904 27.8596L17.1678 30.0471C17.3865 30.1289 17.4686 30.3751 17.3865 30.5664V30.5667Z" fill="#F3F3F3" />
  <path d="M17.4142 30.5936C17.3741 30.6987 17.2941 30.7836 17.1915 30.8297C17.089 30.8759 16.9723 30.8795 16.8671 30.8398L11.5897 28.6523C11.371 28.5705 11.2891 28.3243 11.371 28.0782C11.411 27.9731 11.4911 27.8882 11.5936 27.8421C11.6962 27.796 11.8128 27.7924 11.918 27.8321L17.1954 30.0195C17.4142 30.1288 17.496 30.3752 17.4142 30.5936ZM11.4257 28.1056C11.3439 28.2969 11.4257 28.5157 11.6171 28.5975L16.8945 30.785C17.0859 30.8671 17.2773 30.7576 17.3594 30.5663C17.4413 30.3749 17.3594 30.1561 17.168 30.0743L11.8906 27.8868C11.6992 27.8321 11.4805 27.9142 11.4257 28.1056Z" fill="white" />
  <path d="M15.6095 26.8755C15.5002 27.0669 15.2815 27.149 15.0901 27.0669L12.8205 25.9186C12.6291 25.8364 12.547 25.5903 12.6565 25.3715C12.7657 25.1802 12.9845 25.098 13.1758 25.1802L15.4452 26.3287C15.6368 26.438 15.719 26.6844 15.6095 26.8755Z" fill="#F3F3F3" />
  <path d="M15.6371 26.9023C15.5276 27.1211 15.2815 27.2032 15.0627 27.0937L12.7934 25.9452C12.5746 25.8359 12.4925 25.5898 12.602 25.371C12.7112 25.1523 12.9577 25.0701 13.1761 25.1797L15.4455 26.3282C15.6645 26.41 15.7464 26.6838 15.6371 26.9023ZM12.6839 25.3984C12.602 25.5898 12.6568 25.8085 12.8481 25.8907L15.1175 27.0392C15.2818 27.1211 15.5005 27.0392 15.6097 26.8749C15.6916 26.6836 15.6371 26.4648 15.4457 26.3827L13.1485 25.2347C12.9845 25.1528 12.7657 25.2073 12.6836 25.3987L12.6839 25.3984Z" fill="white" />
  <path d="M19.6283 26.3556C19.4917 26.5472 19.273 26.602 19.0816 26.4651L14.3508 23.3208C14.1597 23.2112 14.1324 22.9651 14.2416 22.7737C14.3511 22.5824 14.5973 22.5276 14.7886 22.6642L19.5465 25.8362C19.7105 25.9458 19.7652 26.1919 19.6283 26.3556Z" fill="#F3F3F3" />
  <path d="M19.6558 26.3828C19.5192 26.5744 19.2457 26.6289 19.0546 26.5197L14.324 23.3476C14.1327 23.211 14.0779 22.9649 14.2145 22.7464C14.3514 22.5548 14.6249 22.5 14.8163 22.6095L19.5466 25.7813C19.7654 25.9182 19.7927 26.1914 19.6558 26.3828ZM14.2693 22.7735C14.16 22.9375 14.1874 23.1836 14.3511 23.2929L19.1091 26.4652C19.2731 26.5747 19.4919 26.5199 19.6014 26.3559C19.7106 26.1917 19.6832 25.9455 19.5195 25.8363L14.7612 22.6643C14.5973 22.5548 14.3785 22.6095 14.269 22.7735H14.2693Z" fill="white" />
  <path d="M18.6172 22.3904C18.4806 22.5544 18.2345 22.6092 18.0705 22.4723L16.0743 20.914C15.9103 20.7771 15.883 20.531 16.0196 20.367C16.1562 20.203 16.4023 20.1482 16.5666 20.2851L18.5625 21.8434C18.7267 21.9803 18.7541 22.2262 18.6172 22.3904Z" fill="#F3F3F3" />
  <path d="M18.6444 22.4179C18.5078 22.6096 18.2343 22.637 18.0429 22.5001L16.0468 20.9417C15.8555 20.8051 15.8281 20.5316 15.965 20.3405C16.1016 20.1489 16.3751 20.1215 16.5662 20.2584L18.5623 21.8167C18.7539 21.9536 18.7813 22.2268 18.6444 22.4185V22.4179ZM16.0194 20.3674C15.8828 20.5313 15.9102 20.7501 16.0742 20.8867L18.0703 22.4456C18.2343 22.5548 18.453 22.5274 18.5896 22.3635C18.7265 22.1995 18.6991 21.9807 18.5352 21.8441L16.5391 20.2852C16.3751 20.176 16.1561 20.2034 16.0197 20.3674H16.0194Z" fill="white" />
  <path d="M22.6915 22.664C22.5278 22.8283 22.2814 22.8283 22.1448 22.664L18.0708 18.6447C17.9068 18.4807 17.9339 18.2345 18.0708 18.0976C18.2348 17.9339 18.481 17.9339 18.6176 18.0976L22.6647 22.1173C22.8287 22.2539 22.8287 22.5274 22.6921 22.6643L22.6915 22.664Z" fill="#F3F3F3" />
  <path d="M22.6916 22.6915C22.6114 22.7703 22.5034 22.8144 22.391 22.8144C22.2785 22.8144 22.1706 22.7703 22.0904 22.6915L18.0431 18.6716C17.9642 18.5914 17.9199 18.4833 17.9199 18.3707C17.9199 18.2581 17.9642 18.1501 18.0431 18.0698C18.1234 17.991 18.2314 17.9468 18.3439 17.9468C18.4564 17.9468 18.5644 17.991 18.6446 18.0698L22.6916 22.0894C22.883 22.2534 22.883 22.5269 22.6916 22.6909V22.6915ZM18.0984 18.1246C17.9615 18.2615 17.9615 18.5076 18.0984 18.6439L22.1451 22.6635C22.282 22.8004 22.5279 22.8004 22.6645 22.6635C22.8014 22.5269 22.8014 22.2808 22.6645 22.1442L18.6178 18.0975C18.4812 17.9609 18.2621 17.9609 18.0984 18.1249V18.1246Z" fill="white" />
  <path d="M22.4452 18.5898C22.2813 18.7267 22.0351 18.7267 21.8982 18.5624L20.2301 16.6484C20.0938 16.4845 20.1209 16.2383 20.2852 16.1017C20.4489 15.9648 20.6953 15.9648 20.8319 16.1288L22.5 18.0431C22.6366 18.1797 22.6092 18.4258 22.4452 18.5898Z" fill="#F3F3F3" />
  <path d="M22.4725 18.5903C22.2811 18.7543 22.035 18.7272 21.8707 18.5629L20.2029 16.6489C20.0389 16.4849 20.0663 16.2114 20.2576 16.0474C20.449 15.8831 20.6951 15.9105 20.8591 16.0748L22.5273 17.9885C22.6639 18.1801 22.6639 18.4536 22.4725 18.5903ZM20.285 16.1021C20.1207 16.2388 20.1207 16.4575 20.2303 16.6215L21.8984 18.5355C22.035 18.6724 22.2538 18.6998 22.4177 18.5629C22.5817 18.4263 22.5817 18.2072 22.4725 18.0435L20.8044 16.1292C20.6678 15.9655 20.4487 15.9655 20.285 16.1021Z" fill="white" />
  <path d="M26.3832 19.629C26.1918 19.7656 25.9457 19.7108 25.8361 19.5194L22.6371 14.7888C22.5276 14.5975 22.5823 14.3513 22.7463 14.2421C22.9377 14.1055 23.1838 14.1603 23.2933 14.3516L26.465 19.0819C26.6019 19.2733 26.5471 19.5194 26.3832 19.6287V19.629Z" fill="#F3F3F3" />
  <path d="M26.3832 19.6566C26.1918 19.7935 25.9183 19.7384 25.7814 19.5474L22.6098 14.8167C22.4732 14.6253 22.528 14.3521 22.7465 14.2155C22.9378 14.0786 23.2113 14.1333 23.3482 14.3247L26.5198 19.0551C26.6564 19.2738 26.6016 19.52 26.3832 19.6566ZM22.7735 14.2699C22.6096 14.3792 22.5548 14.5979 22.6643 14.7622L25.8359 19.4926C25.9454 19.6566 26.1642 19.684 26.3552 19.5745C26.5195 19.4652 26.5743 19.2465 26.4647 19.0825L23.2934 14.3792C23.1839 14.2155 22.9378 14.1604 22.7741 14.2699H22.7735Z" fill="white" />
  <path d="M26.9573 15.5824C26.766 15.6916 26.5199 15.6371 26.4106 15.4458L25.1527 13.2309C25.0435 13.0395 25.1253 12.7934 25.3169 12.6839C25.5083 12.5746 25.7544 12.6291 25.8637 12.8208L27.1213 15.0354C27.2035 15.2267 27.1487 15.4729 26.9576 15.5824H26.9573Z" fill="#F3F3F3" />
  <path d="M26.957 15.6098C26.7383 15.719 26.4921 15.6645 26.3829 15.4729L25.1249 13.2583C25.0156 13.0666 25.0704 12.7934 25.2892 12.6839C25.5079 12.5746 25.754 12.6291 25.8633 12.8208L27.121 15.0354C27.2305 15.2267 27.1757 15.4729 26.9573 15.6098H26.957ZM25.3165 12.7112C25.1523 12.8205 25.0704 13.0392 25.1796 13.2035L26.4377 15.4184C26.5469 15.5821 26.7656 15.6372 26.9296 15.555C27.0939 15.4458 27.1757 15.2267 27.0665 15.0628L25.8085 12.8479C25.7266 12.6841 25.4805 12.6017 25.3165 12.7112Z" fill="white" />
  <path d="M30.5936 17.387C30.3752 17.4688 30.1561 17.387 30.0743 17.1956L27.8595 11.9179C27.7777 11.7266 27.8869 11.4804 28.0782 11.3983C28.297 11.3164 28.5157 11.3983 28.5976 11.5897L30.8124 16.867C30.8945 17.0584 30.7853 17.3045 30.5936 17.3864V17.387Z" fill="#F3F3F3" />
  <path d="M30.5942 17.4146C30.3758 17.4964 30.1296 17.4146 30.0201 17.1955L27.8052 11.9185C27.7655 11.8133 27.7691 11.6966 27.8152 11.5941C27.8614 11.4916 27.9463 11.4115 28.0514 11.3715C28.2701 11.2896 28.5162 11.3715 28.6258 11.5902L30.8404 16.8676C30.9225 17.0589 30.8133 17.3051 30.5945 17.4146H30.5942ZM28.1061 11.4262C27.9147 11.5081 27.8326 11.7271 27.9147 11.8911L30.1294 17.1682C30.2112 17.3595 30.43 17.4414 30.6213 17.3595C30.8127 17.2777 30.8951 17.0586 30.8127 16.8947L28.5981 11.6173C28.4886 11.4259 28.2972 11.3438 28.1058 11.4259L28.1061 11.4262Z" fill="white" />
  <path d="M31.9335 13.504C31.7148 13.5859 31.496 13.4764 31.4142 13.2579L30.6211 10.8514C30.5393 10.66 30.6759 10.4139 30.8672 10.3594C31.0586 10.3047 31.3047 10.3868 31.3865 10.6056L32.1796 13.0118C32.2615 13.2032 32.1522 13.4219 31.9335 13.5038V13.504Z" fill="#F3F3F3" />
  <path d="M31.9609 13.5316C31.8557 13.5712 31.7391 13.5676 31.6366 13.5214C31.5342 13.4753 31.4541 13.3905 31.4141 13.2855L30.6209 10.8792C30.5391 10.6605 30.6757 10.4146 30.8947 10.3325C30.9999 10.2928 31.1165 10.2965 31.2189 10.3426C31.3214 10.3887 31.4014 10.4736 31.4415 10.5786L32.2344 12.9849C32.2891 13.2036 32.1796 13.4497 31.9609 13.5316ZM30.8944 10.3872C30.7031 10.4417 30.5935 10.6605 30.6483 10.8518L31.4415 13.2584C31.4959 13.4497 31.7147 13.5316 31.9064 13.4768C32.0978 13.4224 32.207 13.2036 32.1522 13.0122L31.3593 10.6057C31.3454 10.5593 31.3218 10.5163 31.2902 10.4796C31.2586 10.4429 31.2195 10.4133 31.1757 10.3926C31.1318 10.372 31.0841 10.3608 31.0357 10.3598C30.9872 10.3589 30.9391 10.3681 30.8944 10.3869V10.3872Z" fill="white" />
  <path d="M35.1603 15.9921C34.9416 16.0468 34.7228 15.9102 34.6954 15.6912L33.547 10.0859C33.4922 9.86711 33.6565 9.67574 33.875 9.62098C34.094 9.56622 34.3124 9.70283 34.3398 9.92186L35.4885 15.5275C35.5156 15.7186 35.379 15.9373 35.1603 15.9921Z" fill="#F3F3F3" />
  <path d="M35.1602 16.0195C34.9141 16.0743 34.6953 15.91 34.6406 15.6912L33.4921 10.0859C33.4373 9.86713 33.6016 9.621 33.8203 9.59362C34.0665 9.53886 34.2852 9.70314 34.3397 9.92189L35.4885 15.5275C35.543 15.746 35.4064 15.965 35.1602 16.0195ZM33.8751 9.64838C33.6834 9.67576 33.5468 9.86713 33.5742 10.0859L34.7227 15.6915C34.7501 15.8826 34.9686 16.0195 35.1602 15.9647C35.3516 15.9374 35.4882 15.746 35.4608 15.5272L34.3123 9.92161C34.2578 9.73052 34.0665 9.621 33.8748 9.64838H33.8751Z" fill="white" />
  <path d="M37.2387 12.4376C37.0199 12.465 36.8286 12.3284 36.7738 12.1096L36.4459 9.59381C36.4185 9.37506 36.5825 9.18368 36.8015 9.1563C37.0199 9.12892 37.2113 9.26582 37.2661 9.48457L37.594 12.0001C37.6214 12.2188 37.4574 12.4102 37.2387 12.4376Z" fill="#F3F3F3" />
  <path d="M37.2387 12.4649C36.9926 12.4923 36.7738 12.3283 36.7465 12.1093L36.4185 9.59379C36.3911 9.37504 36.5551 9.15629 36.8012 9.12891C37.0473 9.10181 37.2661 9.2658 37.2935 9.48456L37.6214 12.0001C37.6488 12.2188 37.4848 12.4376 37.2387 12.4649ZM36.8286 9.18367C36.6372 9.21105 36.473 9.40242 36.5004 9.59379L36.8286 12.1096C36.856 12.3009 37.0473 12.4376 37.2387 12.4102C37.4301 12.3831 37.5943 12.1914 37.5669 12.0001L37.2387 9.48456C37.2113 9.29318 37.02 9.15629 36.8286 9.18367Z" fill="white" />
  <path d="M62.6135 19.4373L36.5001 36.1718H36.4728V36.1989L36.4454 36.2262L20.1489 63.1054L44.1019 43.828L44.1293 43.8009V43.7735L62.6138 19.4375L62.6135 19.4373Z" fill="black" fill-opacity="0.05" />
  <path d="M62.1211 17.8789L36.3086 36.2265L43.9648 43.8279L62.1211 17.8789Z" fill="#CD151E" />
  <path d="M36.3359 36.172L40.1916 39.9726L62.1209 17.8789L36.3359 36.172Z" fill="#FA5153" />
  <path d="M36.3362 36.1722L43.9924 43.7734L18.1799 62.1213L36.3362 36.1719V36.1722Z" fill="#ACACAC" />
  <path d="M18.1799 62.1213L40.1915 39.9728L36.3359 36.1719L18.1799 62.1213Z" fill="#EEEEEE" />
  <defs>
    <radialGradient id="hZo6t0_radial" cx="0" cy="0" r="1" gradientUnits="userSpaceOnUse" gradientTransform="translate(44.9175 32.3119) scale(42.7224)">
      <stop stop-color="#2ABCE1" />
      <stop offset="0.11363" stop-color="#2ABBE1" />
      <stop offset="1" stop-color="#3375F8" />
    </radialGradient>
    <linearGradient id="hZo6t1_linear" x1="40" y1="75" x2="40" y2="5" gradientUnits="userSpaceOnUse">
      <stop offset="0.25" stop-color="#DBDBDA" />
      <stop offset="1" stop-color="white" />
    </linearGradient>
    <linearGradient id="hZo6t2_linear" x1="39.5768" y1="30.7153" x2="24.4661" y2="57.8255" gradientUnits="userSpaceOnUse">
      <stop stop-opacity="0" />
      <stop offset="1" />
    </linearGradient>
  </defs>
</svg>