<svg viewBox="0 0 80 80" fill="none">
  <path d="M35.1999 50.9271H29.3674L33.0156 29.1465H38.8478L35.1999 50.9271Z" fill="#00579F" />
  <path d="M56.3444 29.6773C55.194 29.2366 53.3695 28.75 51.1132 28.75C45.3534 28.75 41.2975 31.7157 41.2726 35.9558C41.2246 39.084 44.1766 40.8217 46.3843 41.8648C48.6409 42.9306 49.4079 43.6263 49.4079 44.5763C49.3849 46.0356 47.5845 46.7081 45.9051 46.7081C43.5766 46.7081 42.3289 46.3614 40.4329 45.5496L39.6647 45.2015L38.8486 50.0908C40.2166 50.6927 42.7369 51.2266 45.3534 51.25C51.4734 51.25 55.4575 48.3302 55.5047 43.8117C55.5281 41.3322 53.9693 39.4323 50.6089 37.88C48.5691 36.8833 47.3197 36.2115 47.3197 35.1917C47.3437 34.2648 48.3763 33.3153 50.6791 33.3153C52.5752 33.2688 53.9684 33.7089 55.0237 34.1493L55.5513 34.3805L56.3444 29.6773Z" fill="#00579F" />
  <path d="M64.0949 43.2109C64.5753 41.9597 66.4237 37.117 66.4237 37.117C66.3994 37.1634 66.9029 35.8426 67.1909 35.0317L67.5986 36.9084C67.5986 36.9084 68.7031 42.1219 68.943 43.2109C68.0313 43.2109 65.2469 43.2109 64.0949 43.2109ZM71.2944 29.1465H66.783C65.3918 29.1465 64.3347 29.5401 63.7347 30.9536L55.071 50.9268H61.191C61.191 50.9268 62.1986 48.2385 62.415 47.6596C63.0864 47.6596 69.04 47.6596 69.9035 47.6596C70.0709 48.4242 70.5994 50.9268 70.5994 50.9268H75.9999L71.2944 29.1465Z" fill="#00579F" />
  <path d="M24.4952 29.1465L18.7831 43.9986L18.159 40.9866C17.1031 37.5108 13.7911 33.7345 10.0952 31.8569L15.3271 50.9039H21.4948L30.6625 29.1465H24.4952Z" fill="#00579F" />
  <path d="M13.4799 29.1465H4.09601L4 29.5866C11.3202 31.394 16.168 35.7508 18.1597 40.9875L16.1199 30.9773C15.7839 29.5862 14.7519 29.1924 13.4799 29.1465Z" fill="#FAA61A" />
</svg>