<svg viewBox="0 0 80 80" fill="none">
  <circle cx="40" cy="40" r="35" fill="#0B0006" />
  <path d="M10 30H11.5884L17.7832 51.875H16.1948L10 30Z" fill="#FFFDFE" />
  <path d="M14.2886 30H15.877L22.0718 51.875H20.4834L14.2886 30Z" fill="#FFFDFE" />
  <path d="M23.3423 30H18.5771L24.7719 51.875H29.5371L33.7702 37.6562L38.2733 51.875H42.8002L48.7567 30H44.071L40.3652 43.9844L36.0495 30H31.5226L27.2339 43.742L23.3423 30Z" fill="#FEDB32" />
  <path d="M48.7567 40.1562L51.457 30H53.5219V43.9062C53.5219 45.9773 55.2287 47.6562 57.3341 47.6562H58.9225C61.0279 47.6562 62.7347 45.9773 62.7347 43.9062V30H67.4999V43.9062C67.4999 48.6524 63.5885 52.5 58.7637 52.5H57.493C52.6681 52.5 48.7567 48.6524 48.7567 43.9062V40.1562Z" fill="#FEDB32" />
</svg>