<svg viewBox="0 0 80 80" fill="none">
  <path d="M12 40C12 24.536 24.536 12 40 12C55.464 12 68 24.536 68 40C68 55.464 55.464 68 40 68C24.536 68 12 55.464 12 40Z" stroke="currentColor" stroke-linejoin="round" />
  <path d="M22.2571 42.1922H25.0471C25.8922 42.1922 26.6448 42.098 27.3048 41.9093L28.0262 39.6865L30.0428 33.4736C29.8895 33.2303 29.7141 32.9998 29.5166 32.7828C28.4812 31.6367 26.9663 31.064 24.9721 31.064H17.9575V48.0097H22.2571V42.1922Z" stroke="currentColor" stroke-linejoin="round" />
  <path d="M53.899 31.064L47.0668 48.0097H42.5973L39.5229 38.1893L36.298 48.0097H31.8404L29.5278 44.0414L31.8054 37.0247L34.3221 42.0151L37.8905 31.0643H41.3721L44.6958 42.0151L49.3696 31.0643L53.899 31.064Z" stroke="currentColor" stroke-linejoin="round" />
  <path d="M51.0845 45.9009L52.3847 42.6128H56.139L54.3569 37.625L56.5855 31.9902L62.9677 48.936H58.2611L57.1704 45.9009H51.0845Z" stroke="currentColor" stroke-linejoin="round" />
</svg>