<svg viewBox="0 0 80 80" fill="none">
  <path fill-rule="evenodd" clip-rule="evenodd" d="M39.2409 65.9258L24.2197 39.9827L39.4407 14.0396H22.9813L8 39.9827L22.9813 65.9258H39.2409Z" stroke="currentColor" stroke-linejoin="round" />
  <path fill-rule="evenodd" clip-rule="evenodd" d="M32.2498 26.2531H64.1699L57.1386 14H39.281L32.2498 26.2531Z" stroke="currentColor" stroke-linejoin="round" />
  <path d="M71.361 38.9851H53.703L47.311 28.2886H65.0089L71.361 38.9851Z" stroke="currentColor" stroke-linejoin="round" />
  <path d="M64.1699 26.2529L48.7882 26.2529L47.311 28.2884H62.4912L64.1699 26.2529Z" stroke="currentColor" stroke-linejoin="round" />
  <path fill-rule="evenodd" clip-rule="evenodd" d="M64.2896 53.7529H32.2097L39.2409 65.9263H57.2185L64.2896 53.7529Z" stroke="currentColor" stroke-linejoin="round" />
  <path d="M71.3607 41.021H53.7028L47.3108 51.7176H65.0087L71.3607 41.021Z" stroke="currentColor" stroke-linejoin="round" />
  <path d="M48.7722 53.7528L47.3108 51.7173H62.6198L64.2896 53.7128L48.7722 53.7528Z" stroke="currentColor" stroke-linejoin="round" />
  <path d="M71.3608 38.9854H56.0429L55.3008 39.8636L56.2525 41.0209H71.3608L71.9999 40.0232L71.3608 38.9854Z" stroke="currentColor" stroke-linejoin="round" />
</svg>