<svg viewBox="0 0 80 80" fill="none">
  <path d="M69 39.9814C69 40.8126 68.965 41.6356 68.8965 42.4491C68.0411 52.5999 61.9574 61.2623 53.3477 65.7339C49.3524 67.8089 44.8131 68.9814 40 68.9814C32.4986 68.9814 25.6624 66.1333 20.5138 61.4593C14.6697 56.154 11 48.4963 11 39.9814C11 27.5402 18.8344 16.9288 29.8389 12.8114C33.0011 11.6283 36.425 10.9814 40 10.9814C48.1253 10.9814 55.4701 14.323 60.7351 19.7069C65.8483 24.9356 69 32.0905 69 39.9814Z" stroke="#C2CCDE" />
  <path d="M11 36.9815C34.7098 37.7441 52.6627 31.4348 60.7351 19.707" stroke="#C2CCDE" />
  <path d="M20.5139 61.4597C33.984 40.0264 51.2288 37.687 68.8966 42.4494" stroke="#C2CCDE" />
  <path d="M29.8389 12.8115C41.7319 27.9027 50.0047 45.9801 53.3477 65.7339" stroke="#C2CCDE" />
</svg>