<svg viewBox="0 0 80 80" fill="none">
  <path d="M50 25C50 23.8954 50.8954 23 52 23H60.385C61.6685 23 62.874 23.6159 63.6262 24.6559L74 39H50V25Z" stroke="currentColor" stroke-width="3" stroke-linecap="round" stroke-linejoin="round" />
  <path fill-rule="evenodd" clip-rule="evenodd" d="M74 39H50V55H50.7859C50.929 54.1972 51.1591 53.406 51.4761 52.6408C52.6322 49.8497 54.8497 47.6322 57.6408 46.4761C60.432 45.3199 63.568 45.3199 66.3592 46.4761C69.1503 47.6322 71.3678 49.8497 72.5239 52.6408C72.8409 53.406 73.071 54.1972 73.2141 55H74V39ZM64.7385 55C64.3743 54.5014 63.8776 54.1073 63.2977 53.8671C62.4668 53.5229 61.5332 53.5229 60.7023 53.8671C60.1224 54.1073 59.6257 54.5014 59.2615 55H64.7385Z" fill="currentColor" />
  <path d="M50 39V37.5C49.1716 37.5 48.5 38.1716 48.5 39H50ZM74 39H75.5C75.5 38.1716 74.8284 37.5 74 37.5V39ZM50 55H48.5C48.5 55.8284 49.1716 56.5 50 56.5V55ZM50.7859 55V56.5C51.5127 56.5 52.135 55.9789 52.2626 55.2633L50.7859 55ZM51.4761 52.6408L52.8619 53.2149L51.4761 52.6408ZM57.6408 46.4761L58.2149 47.8619H58.2149L57.6408 46.4761ZM66.3592 46.4761L66.9332 45.0902V45.0902L66.3592 46.4761ZM72.5239 52.6408L71.1381 53.2149L71.1381 53.2149L72.5239 52.6408ZM73.2141 55L71.7374 55.2633C71.865 55.9789 72.4873 56.5 73.2141 56.5V55ZM74 55V56.5C74.8284 56.5 75.5 55.8284 75.5 55H74ZM64.7385 55V56.5C65.3032 56.5 65.8201 56.1828 66.0758 55.6793C66.3316 55.1758 66.2829 54.5713 65.9498 54.1153L64.7385 55ZM63.2977 53.8671L62.7237 55.2529H62.7237L63.2977 53.8671ZM60.7023 53.8671L61.2763 55.2529H61.2763L60.7023 53.8671ZM59.2615 55L58.0502 54.1153C57.7171 54.5713 57.6684 55.1758 57.9242 55.6793C58.1799 56.1828 58.6968 56.5 59.2615 56.5V55ZM50 40.5H74V37.5H50V40.5ZM51.5 55V39H48.5V55H51.5ZM50.7859 53.5H50V56.5H50.7859V53.5ZM52.2626 55.2633C52.3869 54.5663 52.5866 53.8794 52.8619 53.2149L50.0902 52.0668C49.7316 52.9327 49.4712 53.828 49.3092 54.7367L52.2626 55.2633ZM52.8619 53.2149C53.8658 50.7913 55.7913 48.8658 58.2149 47.8619L57.0668 45.0902C53.9081 46.3986 51.3986 48.9081 50.0902 52.0668L52.8619 53.2149ZM58.2149 47.8619C60.6384 46.858 63.3616 46.858 65.7851 47.8619L66.9332 45.0902C63.7745 43.7819 60.2255 43.7819 57.0668 45.0902L58.2149 47.8619ZM65.7851 47.8619C68.2087 48.8658 70.1342 50.7913 71.1381 53.2149L73.9098 52.0668C72.6014 48.9081 70.0919 46.3986 66.9332 45.0902L65.7851 47.8619ZM71.1381 53.2149C71.4134 53.8794 71.6131 54.5663 71.7374 55.2633L74.6908 54.7367C74.5288 53.828 74.2684 52.9327 73.9098 52.0668L71.1381 53.2149ZM74 53.5H73.2141V56.5H74V53.5ZM72.5 39V55H75.5V39H72.5ZM65.9498 54.1153C65.4246 53.3962 64.7082 52.8277 63.8717 52.4813L62.7237 55.2529C63.047 55.3868 63.324 55.6066 63.5272 55.8847L65.9498 54.1153ZM63.8717 52.4813C62.6733 51.9849 61.3267 51.9849 60.1283 52.4813L61.2763 55.2529C61.7397 55.061 62.2603 55.061 62.7237 55.2529L63.8717 52.4813ZM60.1283 52.4813C59.2918 52.8277 58.5754 53.3962 58.0502 54.1153L60.4728 55.8847C60.676 55.6066 60.953 55.3868 61.2763 55.2529L60.1283 52.4813ZM64.7385 53.5H59.2615V56.5H64.7385V53.5Z" fill="currentColor" />
  <path d="M59.1716 50.1716C60.9826 49.4214 63.0174 49.4214 64.8284 50.1716C66.6394 50.9217 68.0783 52.3606 68.8284 54.1716C69.5786 55.9826 69.5786 58.0174 68.8284 59.8284C68.0783 61.6394 66.6394 63.0783 64.8284 63.8284C63.0174 64.5786 60.9826 64.5786 59.1716 63.8284C57.3606 63.0783 55.9217 61.6394 55.1716 59.8284C54.4214 58.0174 54.4214 55.9826 55.1716 54.1716C55.9217 52.3606 57.3606 50.9217 59.1716 50.1716Z" fill="currentColor" />
  <path fill-rule="evenodd" clip-rule="evenodd" d="M6 19C6 16.7909 7.79086 15 10 15H46C48.2091 15 50 16.7909 50 19V55H30.2141C30.071 54.1972 29.8409 53.406 29.5239 52.6408C28.3678 49.8497 26.1503 47.6322 23.3592 46.4761C20.568 45.3199 17.432 45.3199 14.6408 46.4761C11.8497 47.6322 9.63218 49.8497 8.47605 52.6408C8.1591 53.406 7.92904 54.1972 7.78587 55H6V19ZM20.2977 53.8671C20.8776 54.1073 21.3743 54.5014 21.7385 55H16.2615C16.6257 54.5014 17.1224 54.1073 17.7023 53.8671C18.5332 53.5229 19.4668 53.5229 20.2977 53.8671ZM23.9999 43.4411V40.595V38.6719V38.4796V38.2873V38.095V37.9026V37.7103C23.9999 37.6891 23.9827 37.6719 23.9614 37.6719H21.0768H18.2307C17.5934 37.6719 17.0768 37.1553 17.0768 36.518V30.8257C17.0768 30.1885 17.5934 29.6719 18.2307 29.6719H21.0768H23.9614C23.9827 29.6719 23.9999 29.6547 23.9999 29.6334V29.5373V29.4411V29.2488V29.0565V28.8642V28.6719V28.4796V28.2873V28.2873V28.095V28.0949V27.9026L23.9999 26.7488L23.9999 23.9026C23.9999 23.2654 24.5165 22.7488 25.1537 22.7488L30.8461 22.7488C31.4833 22.7488 31.9999 23.2654 31.9999 23.9026L31.9999 26.7488V27.9026V28.0949V28.095V28.2872V28.2873V28.4796V28.6719V28.8642V29.0565V29.2488V29.4411V29.5373V29.6334C31.9999 29.6547 32.0171 29.6719 32.0384 29.6719H32.2307H34.923H37.7691C38.4064 29.6719 38.923 30.1885 38.923 30.8257V36.518C38.923 37.1553 38.4064 37.6719 37.7691 37.6719H34.923H32.2307H32.0384C32.0171 37.6719 31.9999 37.6891 31.9999 37.7103V37.9026V38.095V38.2873V38.4796V38.6719V40.595V43.4411C31.9999 44.0784 31.4833 44.595 30.846 44.595H25.1537C24.5165 44.595 23.9999 44.0784 23.9999 43.4411Z" fill="currentColor" />
  <path d="M50 55V56.5C50.8284 56.5 51.5 55.8284 51.5 55H50ZM30.2141 55L28.7374 55.2633C28.865 55.9789 29.4873 56.5 30.2141 56.5V55ZM29.5239 52.6408L28.1381 53.2149L29.5239 52.6408ZM23.3592 46.4761L22.7851 47.8619H22.7851L23.3592 46.4761ZM14.6408 46.4761L15.2149 47.8619L14.6408 46.4761ZM8.47605 52.6408L9.86187 53.2149L8.47605 52.6408ZM7.78587 55V56.5C8.51272 56.5 9.13497 55.9789 9.26258 55.2633L7.78587 55ZM6 55H4.5C4.5 55.8284 5.17157 56.5 6 56.5V55ZM21.7385 55V56.5C22.3032 56.5 22.8201 56.1828 23.0758 55.6793C23.3316 55.1758 23.2829 54.5713 22.9498 54.1153L21.7385 55ZM20.2977 53.8671L19.7237 55.2529H19.7237L20.2977 53.8671ZM16.2615 55L15.0502 54.1153C14.7171 54.5713 14.6684 55.1758 14.9242 55.6793C15.1799 56.1828 15.6968 56.5 16.2615 56.5V55ZM17.7023 53.8671L18.2763 55.2529H18.2763L17.7023 53.8671ZM23.9999 27.9026L22.4999 27.9026V27.9026H23.9999ZM23.9999 26.7488L25.4999 26.7488V26.7488L23.9999 26.7488ZM23.9999 23.9026L25.4999 23.9026V23.9026H23.9999ZM25.1537 22.7488L25.1537 24.2488L25.1537 22.7488ZM30.8461 22.7488L30.8461 21.2488L30.8461 22.7488ZM31.9999 23.9026L33.4999 23.9026V23.9026H31.9999ZM31.9999 26.7488L30.4999 26.7488V26.7488H31.9999ZM10 13.5C6.96243 13.5 4.5 15.9624 4.5 19H7.5C7.5 17.6193 8.61929 16.5 10 16.5V13.5ZM46 13.5H10V16.5H46V13.5ZM51.5 19C51.5 15.9624 49.0376 13.5 46 13.5V16.5C47.3807 16.5 48.5 17.6193 48.5 19H51.5ZM51.5 55V19H48.5V55H51.5ZM30.2141 56.5H50V53.5H30.2141V56.5ZM28.1381 53.2149C28.4134 53.8794 28.6131 54.5663 28.7374 55.2633L31.6908 54.7367C31.5288 53.828 31.2684 52.9327 30.9098 52.0668L28.1381 53.2149ZM22.7851 47.8619C25.2087 48.8658 27.1342 50.7913 28.1381 53.2149L30.9098 52.0668C29.6014 48.9081 27.0919 46.3986 23.9332 45.0902L22.7851 47.8619ZM15.2149 47.8619C17.6384 46.858 20.3616 46.858 22.7851 47.8619L23.9332 45.0902C20.7745 43.7819 17.2255 43.7819 14.0668 45.0902L15.2149 47.8619ZM9.86187 53.2149C10.8658 50.7913 12.7913 48.8658 15.2149 47.8619L14.0668 45.0902C10.9081 46.3986 8.3986 48.9081 7.09024 52.0668L9.86187 53.2149ZM9.26258 55.2633C9.38688 54.5663 9.58662 53.8794 9.86187 53.2149L7.09024 52.0668C6.73158 52.9327 6.4712 53.828 6.30917 54.7367L9.26258 55.2633ZM6 56.5H7.78587V53.5H6V56.5ZM4.5 19V55H7.5V19H4.5ZM22.9498 54.1153C22.4246 53.3962 21.7082 52.8277 20.8717 52.4813L19.7237 55.2529C20.047 55.3868 20.324 55.6066 20.5272 55.8847L22.9498 54.1153ZM16.2615 56.5H21.7385V53.5H16.2615V56.5ZM17.1283 52.4813C16.2918 52.8277 15.5754 53.3962 15.0502 54.1153L17.4728 55.8847C17.676 55.6066 17.953 55.3868 18.2763 55.2529L17.1283 52.4813ZM20.8717 52.4813C19.6733 51.9849 18.3267 51.9849 17.1283 52.4813L18.2763 55.2529C18.7397 55.061 19.2603 55.061 19.7237 55.2529L20.8717 52.4813ZM22.4999 40.595V43.4411H25.4999V40.595H22.4999ZM22.4999 38.6719V40.595H25.4999V38.6719H22.4999ZM22.4999 38.4796V38.6719H25.4999V38.4796H22.4999ZM22.4999 38.2873V38.4796H25.4999V38.2873H22.4999ZM22.4999 38.095V38.2873H25.4999V38.095H22.4999ZM22.4999 37.9026V38.095H25.4999V37.9026H22.4999ZM22.4999 37.7103V37.9026H25.4999V37.7103H22.4999ZM23.9614 39.1719C23.1542 39.1719 22.4999 38.5175 22.4999 37.7103H25.4999C25.4999 36.8607 24.8111 36.1719 23.9614 36.1719V39.1719ZM21.0768 39.1719H23.9614V36.1719H21.0768V39.1719ZM18.2307 39.1719H21.0768V36.1719H18.2307V39.1719ZM15.5768 36.518C15.5768 37.9837 16.765 39.1719 18.2307 39.1719V36.1719C18.4218 36.1719 18.5768 36.3269 18.5768 36.518H15.5768ZM15.5768 30.8257V36.518H18.5768V30.8257H15.5768ZM18.2307 28.1719C16.765 28.1719 15.5768 29.36 15.5768 30.8257H18.5768C18.5768 31.0169 18.4218 31.1719 18.2307 31.1719V28.1719ZM21.0768 28.1719H18.2307V31.1719H21.0768V28.1719ZM23.9614 28.1719H21.0768V31.1719H23.9614V28.1719ZM22.4999 29.6334C22.4999 28.8263 23.1542 28.1719 23.9614 28.1719V31.1719C24.8112 31.1719 25.4999 30.483 25.4999 29.6334H22.4999ZM22.4999 29.5373V29.6334H25.4999V29.5373H22.4999ZM22.4999 29.4411V29.5373H25.4999V29.4411H22.4999ZM22.4999 29.2488V29.4411H25.4999V29.2488H22.4999ZM22.4999 29.0565V29.2488H25.4999V29.0565H22.4999ZM22.4999 28.8642V29.0565H25.4999V28.8642H22.4999ZM22.4999 28.6719V28.8642H25.4999V28.6719H22.4999ZM22.4999 28.4796V28.6719H25.4999V28.4796H22.4999ZM22.4999 28.2873V28.4796H25.4999V28.2873H22.4999ZM22.4999 28.2873V28.2873H25.4999V28.2873H22.4999ZM22.4999 28.095V28.2873H25.4999V28.095H22.4999ZM22.4999 28.0949V28.095H25.4999V28.0949H22.4999ZM22.4999 27.9026V28.0949H25.4999V27.9026H22.4999ZM22.4999 26.7488L22.4999 27.9026L25.4999 27.9026L25.4999 26.7488L22.4999 26.7488ZM22.4999 23.9026L22.4999 26.7488L25.4999 26.7488L25.4999 23.9026L22.4999 23.9026ZM25.1537 21.2488C23.6881 21.2488 22.4999 22.437 22.4999 23.9026H25.4999C25.4999 24.0938 25.3449 24.2488 25.1537 24.2488L25.1537 21.2488ZM30.8461 21.2488L25.1537 21.2488L25.1537 24.2488L30.846 24.2488L30.8461 21.2488ZM33.4999 23.9026C33.4999 22.437 32.3117 21.2488 30.8461 21.2488L30.846 24.2488C30.6549 24.2488 30.4999 24.0938 30.4999 23.9026H33.4999ZM33.4999 26.7488L33.4999 23.9026L30.4999 23.9026L30.4999 26.7488L33.4999 26.7488ZM33.4999 27.9026V26.7488H30.4999V27.9026H33.4999ZM33.4999 28.0949V27.9026H30.4999V28.0949H33.4999ZM33.4999 28.095V28.0949H30.4999V28.095H33.4999ZM33.4999 28.2872V28.095H30.4999V28.2872H33.4999ZM33.4999 28.2873V28.2872H30.4999V28.2873H33.4999ZM33.4999 28.4796V28.2873H30.4999V28.4796H33.4999ZM33.4999 28.6719V28.4796H30.4999V28.6719H33.4999ZM33.4999 28.8642V28.6719H30.4999V28.8642H33.4999ZM33.4999 29.0565V28.8642H30.4999V29.0565H33.4999ZM33.4999 29.2488V29.0565H30.4999V29.2488H33.4999ZM33.4999 29.4411V29.2488H30.4999V29.4411H33.4999ZM33.4999 29.5373V29.4411H30.4999V29.5373H33.4999ZM33.4999 29.6334V29.5373H30.4999V29.6334H33.4999ZM32.0384 28.1719C32.8455 28.1719 33.4999 28.8262 33.4999 29.6334H30.4999C30.4999 30.4831 31.1887 31.1719 32.0384 31.1719V28.1719ZM32.2307 28.1719H32.0384V31.1719H32.2307V28.1719ZM34.923 28.1719H32.2307V31.1719H34.923V28.1719ZM37.7691 28.1719H34.923V31.1719H37.7691V28.1719ZM40.423 30.8257C40.423 29.36 39.2348 28.1719 37.7691 28.1719V31.1719C37.5779 31.1719 37.423 31.0169 37.423 30.8257H40.423ZM40.423 36.518V30.8257H37.423V36.518H40.423ZM37.7691 39.1719C39.2348 39.1719 40.423 37.9837 40.423 36.518H37.423C37.423 36.3269 37.5779 36.1719 37.7691 36.1719V39.1719ZM34.923 39.1719H37.7691V36.1719H34.923V39.1719ZM32.2307 39.1719H34.923V36.1719H32.2307V39.1719ZM32.0384 39.1719H32.2307V36.1719H32.0384V39.1719ZM33.4999 37.7103C33.4999 38.5174 32.8456 39.1719 32.0384 39.1719V36.1719C31.1886 36.1719 30.4999 36.8608 30.4999 37.7103H33.4999ZM33.4999 37.9026V37.7103H30.4999V37.9026H33.4999ZM33.4999 38.095V37.9026H30.4999V38.095H33.4999ZM33.4999 38.2873V38.095H30.4999V38.2873H33.4999ZM33.4999 38.4796V38.2873H30.4999V38.4796H33.4999ZM33.4999 38.6719V38.4796H30.4999V38.6719H33.4999ZM33.4999 40.595V38.6719H30.4999V40.595H33.4999ZM33.4999 43.4411V40.595H30.4999V43.4411H33.4999ZM30.846 46.095C32.3117 46.095 33.4999 44.9068 33.4999 43.4411H30.4999C30.4999 43.2499 30.6549 43.095 30.846 43.095V46.095ZM25.1537 46.095H30.846V43.095H25.1537V46.095ZM22.4999 43.4411C22.4999 44.9068 23.6881 46.095 25.1537 46.095V43.095C25.3449 43.095 25.4999 43.2499 25.4999 43.4411H22.4999Z" fill="currentColor" />
  <path d="M16.1716 50.1716C17.9826 49.4214 20.0174 49.4214 21.8284 50.1716C23.6394 50.9217 25.0783 52.3606 25.8284 54.1716C26.5786 55.9826 26.5786 58.0174 25.8284 59.8284C25.0783 61.6394 23.6394 63.0783 21.8284 63.8284C20.0174 64.5786 17.9826 64.5786 16.1716 63.8284C14.3606 63.0783 12.9217 61.6394 12.1716 59.8284C11.4214 58.0174 11.4214 55.9826 12.1716 54.1716C12.9217 52.3606 14.3606 50.9217 16.1716 50.1716Z" fill="currentColor" />
</svg>