<svg viewBox="0 0 80 80" fill="none">
  <path d="M52 25C52 23.3431 50.6569 22 49 22C47.3431 22 46 23.3431 46 25L52 25ZM46 64C46 65.6569 47.3431 67 49 67C50.6569 67 52 65.6569 52 64L46 64ZM46 25L46 64L52 64L52 25L46 25Z" fill="currentColor" />
  <path d="M54.818 25H43.182C42.0078 25 41.4197 23.5803 42.25 22.75L47.5858 17.4142C48.3668 16.6332 49.6332 16.6332 50.4142 17.4142L55.75 22.75C56.5803 23.5803 55.9923 25 54.818 25Z" fill="currentColor" stroke="currentColor" stroke-width="3" stroke-linecap="round" stroke-linejoin="round" />
  <path d="M34 55C34 56.6569 32.6569 58 31 58C29.3431 58 28 56.6569 28 55L34 55ZM28 16C28 14.3431 29.3432 13 31 13C32.6569 13 34 14.3431 34 16L28 16ZM28 55L28 16L34 16L34 55L28 55Z" fill="currentColor" />
  <path d="M36.818 55L25.182 55C24.0078 55 23.4197 56.4197 24.25 57.25L29.5858 62.5858C30.3668 63.3668 31.6332 63.3668 32.4142 62.5858L37.75 57.25C38.5803 56.4197 37.9923 55 36.818 55Z" fill="currentColor" stroke="currentColor" stroke-width="3" stroke-linecap="round" stroke-linejoin="round" />
</svg>