<svg viewBox="0 0 80 80" fill="none">
  <path fill-rule="evenodd" clip-rule="evenodd" d="M31.9999 36.9997H26.3322C23.7165 36.9997 22.4313 33.8153 24.3141 31.9997L36.2255 20.5138C38.2592 18.5527 41.4802 18.5527 43.5139 20.5138L55.4252 31.9997C57.3081 33.8153 56.0229 36.9997 53.4072 36.9997H47.9999L47.9999 46.9997V52.9997C47.9999 54.1043 47.1045 54.9997 45.9999 54.9997L33.9999 54.9997C32.8953 54.9997 31.9999 54.1043 31.9999 52.9997L31.9999 46.9997V36.9997Z" fill="currentColor" />
  <path d="M31.9999 36.9997V35.4997C32.8283 35.4997 33.4999 36.1713 33.4999 36.9997H31.9999ZM24.3141 31.9997L25.3553 33.0795L24.3141 31.9997ZM36.2255 20.5138L37.2667 21.5936L37.2667 21.5936L36.2255 20.5138ZM43.5139 20.5138L44.5551 19.434V19.434L43.5139 20.5138ZM55.4252 31.9997L56.4664 30.92L55.4252 31.9997ZM47.9999 36.9997H46.4999C46.4999 36.1713 47.1715 35.4997 47.9999 35.4997V36.9997ZM47.9999 46.9997H46.4999H47.9999ZM31.9999 52.9997H30.4999H31.9999ZM31.9999 46.9997H33.4999H31.9999ZM26.3322 35.4997H31.9999V38.4997H26.3322V35.4997ZM25.3553 33.0795C24.444 33.9583 25.0661 35.4997 26.3322 35.4997V38.4997C22.367 38.4997 20.4186 33.6723 23.2729 30.92L25.3553 33.0795ZM37.2667 21.5936L25.3553 33.0795L23.2729 30.92L35.1843 19.434L37.2667 21.5936ZM42.4727 21.5936C41.02 20.1928 38.7193 20.1928 37.2667 21.5936L35.1843 19.434C37.7991 16.9126 41.9403 16.9126 44.5551 19.434L42.4727 21.5936ZM54.384 33.0795L42.4727 21.5936L44.5551 19.434L56.4664 30.92L54.384 33.0795ZM53.4072 35.4997C54.6733 35.4997 55.2954 33.9583 54.384 33.0795L56.4664 30.92C59.3208 33.6723 57.3724 38.4997 53.4072 38.4997V35.4997ZM47.9999 35.4997H53.4072V38.4997H47.9999V35.4997ZM46.4999 46.9997L46.4999 36.9997H49.4999L49.4999 46.9997H46.4999ZM46.4999 52.9997V46.9997H49.4999V52.9997H46.4999ZM45.9999 53.4997C46.276 53.4997 46.4999 53.2759 46.4999 52.9997H49.4999C49.4999 54.9327 47.9329 56.4997 45.9999 56.4997V53.4997ZM33.9999 53.4997L45.9999 53.4997V56.4997L33.9999 56.4997V53.4997ZM33.4999 52.9997C33.4999 53.2759 33.7237 53.4997 33.9999 53.4997V56.4997C32.0669 56.4997 30.4999 54.9327 30.4999 52.9997H33.4999ZM33.4999 46.9997L33.4999 52.9997L30.4999 52.9997L30.4999 46.9997H33.4999ZM33.4999 36.9997V46.9997H30.4999V36.9997H33.4999Z" fill="currentColor" />
  <path d="M56 63L24 63" stroke="currentColor" stroke-width="6" stroke-linecap="round" />
</svg>