<svg viewBox="0 0 80 80" fill="none">
  <path d="M43 23.241C43 21.5841 41.6569 20.241 40 20.241C38.3431 20.241 37 21.5841 37 23.241H43ZM37 37.9787C37 39.6356 38.3431 40.9787 40 40.9787C41.6569 40.9787 43 39.6356 43 37.9787H37ZM43 38.0001C43 36.3432 41.6569 35.0001 40 35.0001C38.3431 35.0001 37 36.3432 37 38.0001H43ZM37 61.0001C37 62.6569 38.3431 64.0001 40 64.0001C41.6569 64.0001 43 62.6569 43 61.0001H37ZM37 23.241V37.9787H43V23.241H37ZM37 38.0001L37 61.0001H43L43 38.0001H37Z" fill="currentColor" />
  <path d="M56 38L42.1213 24.1213C40.9497 22.9497 39.0503 22.9497 37.8787 24.1213L24 38" stroke="currentColor" stroke-width="6" stroke-linecap="round" stroke-linejoin="round" />
  <path d="M24 15L56 15" stroke="currentColor" stroke-width="6" stroke-linecap="round" />
</svg>