<svg viewBox="0 0 80 80" fill="none">
  <path d="M49.4835 63.8984L48.3355 61.1268L48.3355 61.1268L49.4835 63.8984ZM42.1844 62.7193C40.5382 62.9076 39.3565 64.3948 39.5448 66.0409C39.7332 67.687 41.2203 68.8687 42.8664 68.6804L42.1844 62.7193ZM42.8472 68.6826C44.4934 68.4954 45.6762 67.009 45.4889 65.3628C45.3017 63.7165 43.8154 62.5338 42.1691 62.721L42.8472 68.6826ZM42.0894 62.73C40.4425 62.9114 39.2546 64.3936 39.436 66.0405C39.6175 67.6874 41.0996 68.8753 42.7465 68.6939L42.0894 62.73ZM32.8629 68.0744C34.4742 68.4601 36.0931 67.4666 36.4789 65.8553C36.8646 64.244 35.8711 62.625 34.2598 62.2393L32.8629 68.0744ZM32.6218 61.7821C31.0436 61.2776 29.3553 62.148 28.8508 63.7262C28.3463 65.3043 29.2167 66.9927 30.7949 67.4972L32.6218 61.7821ZM63.4835 49.8984L60.7119 48.7504L63.4835 49.8984ZM63.4835 30.0994L66.2551 28.9514L66.2551 28.9514L63.4835 30.0994ZM59.1619 18.7833C57.9443 17.6596 56.0463 17.7358 54.9227 18.9534C53.799 20.171 53.8752 22.069 55.0928 23.1926L59.1619 18.7833ZM48.3355 61.1268C46.3513 61.9487 44.2805 62.4795 42.1844 62.7193L42.8664 68.6804C45.5127 68.3776 48.1271 67.7075 50.6316 66.6701L48.3355 61.1268ZM42.1691 62.721C42.1426 62.7241 42.116 62.727 42.0894 62.73L42.7465 68.6939C42.7801 68.6902 42.8136 68.6864 42.8472 68.6826L42.1691 62.721ZM34.2598 62.2393C33.7097 62.1076 33.1633 61.9552 32.6218 61.7821L30.7949 67.4972C31.4785 67.7157 32.1683 67.9081 32.8629 68.0744L34.2598 62.2393ZM60.7119 48.7504C58.3908 54.3538 53.9389 58.8058 48.3355 61.1268L50.6316 66.6701C57.7052 63.7401 63.3251 58.1201 66.2551 51.0465L60.7119 48.7504ZM60.7119 31.2475C63.0329 36.851 63.0329 43.1469 60.7119 48.7504L66.2551 51.0465C69.1851 43.9729 69.1851 36.025 66.2551 28.9514L60.7119 31.2475ZM55.0928 23.1926C57.5044 25.4181 59.432 28.1577 60.7119 31.2475L66.2551 28.9514C64.6395 25.0509 62.2059 21.5923 59.1619 18.7833L55.0928 23.1926Z" fill="currentColor" />
  <path d="M42.418 56.5962L42.418 73.4038C42.418 75.0999 40.3673 75.9493 39.168 74.75L30.8322 66.4142C30.0511 65.6332 30.0511 64.3668 30.8322 63.5858L39.168 55.25C40.3673 54.0507 42.418 54.9001 42.418 56.5962Z" fill="currentColor" stroke="currentColor" stroke-width="3" stroke-linecap="round" stroke-linejoin="round" />
  <path d="M29.4931 16.1016L30.6411 18.8732L30.6411 18.8732L29.4931 16.1016ZM36.7922 17.2807C38.4383 17.0924 39.6201 15.6052 39.4317 13.9591C39.2434 12.313 37.7563 11.1313 36.1101 11.3196L36.7922 17.2807ZM36.1294 11.3174C34.4831 11.5046 33.3004 12.991 33.4876 14.6372C33.6749 16.2835 35.1612 17.4662 36.8074 17.279L36.1294 11.3174ZM36.8872 17.27C38.534 17.0886 39.722 15.6064 39.5405 13.9595C39.3591 12.3126 37.8769 11.1247 36.23 11.3061L36.8872 17.27ZM46.1137 11.9256C44.5024 11.5399 42.8834 12.5334 42.4977 14.1447C42.1119 15.756 43.1055 17.375 44.7168 17.7607L46.1137 11.9256ZM46.3548 18.2179C47.933 18.7224 49.6213 17.852 50.1258 16.2738C50.6303 14.6957 49.7599 13.0073 48.1817 12.5028L46.3548 18.2179ZM15.4931 30.1016L18.2647 31.2496L15.4931 30.1016ZM15.4931 49.9006L12.7214 51.0486L12.7214 51.0486L15.4931 49.9006ZM19.8147 61.2167C21.0323 62.3404 22.9303 62.2642 24.0539 61.0466C25.1776 59.829 25.1014 57.931 23.8838 56.8074L19.8147 61.2167ZM30.6411 18.8732C32.6253 18.0513 34.6961 17.5205 36.7922 17.2807L36.1101 11.3196C33.4639 11.6224 30.8495 12.2925 28.345 13.3299L30.6411 18.8732ZM36.8074 17.279C36.834 17.2759 36.8606 17.273 36.8872 17.27L36.23 11.3061C36.1965 11.3098 36.1629 11.3136 36.1294 11.3174L36.8074 17.279ZM44.7168 17.7607C45.2669 17.8924 45.8133 18.0448 46.3548 18.2179L48.1817 12.5028C47.498 12.2843 46.8082 12.0919 46.1137 11.9256L44.7168 17.7607ZM18.2647 31.2496C20.5857 25.6462 25.0377 21.1942 30.6411 18.8732L28.345 13.3299C21.2714 16.2599 15.6514 21.8799 12.7214 28.9535L18.2647 31.2496ZM18.2647 48.7525C15.9437 43.149 15.9437 36.8531 18.2647 31.2496L12.7214 28.9535C9.79143 36.0271 9.79143 43.975 12.7214 51.0486L18.2647 48.7525ZM23.8838 56.8074C21.4722 54.5819 19.5445 51.8423 18.2647 48.7525L12.7214 51.0486C14.3371 54.9491 16.7707 58.4077 19.8147 61.2167L23.8838 56.8074Z" fill="currentColor" />
  <path d="M36.5586 23.4038L36.5586 6.59619C36.5586 4.90008 38.6093 4.05067 39.8086 5.25L48.1444 13.5858C48.9254 14.3668 48.9254 15.6332 48.1444 16.4142L39.8086 24.75C38.6093 25.9493 36.5586 25.0999 36.5586 23.4038Z" fill="currentColor" stroke="currentColor" stroke-width="3" stroke-linecap="round" stroke-linejoin="round" />
</svg>