<svg viewBox="0 0 80 80" fill="none">
  <path d="M50.0001 13.9995C50.0001 12.8949 49.1047 11.9995 48.0001 11.9995L32.0001 11.9995C30.8956 11.9995 30.0001 12.8949 30.0001 13.9995L30.0001 28.4995L50.0001 28.4995V13.9995Z" fill="currentColor" />
  <path d="M14.0001 29.9995H28.5001V49.9995H14.0001C12.8956 49.9995 12.0001 49.1041 12.0001 47.9995L12.0001 31.9995C12.0001 30.8949 12.8956 29.9995 14.0001 29.9995Z" fill="currentColor" />
  <path d="M30.0001 65.9995L30.0001 51.4995H50.0001L50.0001 65.9995C50.0001 67.1041 49.1047 67.9995 48.0001 67.9995H32.0001C30.8956 67.9995 30.0001 67.1041 30.0001 65.9995Z" fill="currentColor" />
  <path d="M66.0001 49.9995H51.5001V29.9995H66.0001C67.1047 29.9995 68.0001 30.8949 68.0001 31.9995V47.9995C68.0001 49.1041 67.1047 49.9995 66.0001 49.9995Z" fill="currentColor" />
  <path fill-rule="evenodd" clip-rule="evenodd" d="M31.5001 31.4995V48.4995H48.5001V31.4995H31.5001ZM36.5001 34.9995C37.0524 34.9995 37.5001 35.4472 37.5001 35.9995L37.5001 36.4995C37.5001 37.0518 37.0524 37.4995 36.5001 37.4995L36.0001 37.4995C35.4478 37.4995 35.0001 37.0518 35.0001 36.4995L35.0001 35.9995C35.0001 35.4472 35.4478 34.9995 36.0001 34.9995L36.5001 34.9995ZM44.0001 34.9995C44.5524 34.9995 45.0001 35.4472 45.0001 35.9995V36.4995C45.0001 37.0518 44.5524 37.4995 44.0001 37.4995H43.5001C42.9478 37.4995 42.5001 37.0518 42.5001 36.4995L42.5001 35.9995C42.5001 35.4472 42.9478 34.9995 43.5001 34.9995H44.0001ZM43.5001 42.4995C42.9478 42.4995 42.5001 42.9472 42.5001 43.4995L42.5001 43.9995C42.5001 44.5518 42.9478 44.9995 43.5001 44.9995H44.0001C44.5524 44.9995 45.0001 44.5518 45.0001 43.9995V43.4995C45.0001 42.9472 44.5524 42.4995 44.0001 42.4995H43.5001ZM36.5001 42.4995C37.0524 42.4995 37.5001 42.9472 37.5001 43.4995L37.5001 43.9995C37.5001 44.5518 37.0524 44.9995 36.5001 44.9995H36.0001C35.4478 44.9995 35.0001 44.5518 35.0001 43.9995V43.4995C35.0001 42.9472 35.4478 42.4995 36.0001 42.4995L36.5001 42.4995Z" fill="currentColor" />
</svg>