<svg viewBox="0 0 80 80" fill="none">
  <path fill-rule="evenodd" clip-rule="evenodd" d="M20 13C20 12.4477 20.4477 12 21 12L59 12C59.5523 12 60 12.4477 60 13L60 66.0893C60 66.9278 59.0301 67.394 58.3753 66.8702L40.6247 52.6697C40.2595 52.3775 39.7405 52.3775 39.3753 52.6697L21.6247 66.8702C20.9699 67.394 20 66.9278 20 66.0893L20 13Z" fill="currentColor" />
  <path d="M21.6247 66.8702L20.6877 65.6989L21.6247 66.8702ZM40.6247 52.6697L41.5617 51.4984L40.6247 52.6697ZM39.3753 52.6697L38.4383 51.4984L39.3753 52.6697ZM58.3753 66.8702L59.3123 65.6989L58.3753 66.8702ZM59 10.5L21 10.5V13.5L59 13.5V10.5ZM61.5 66.0893L61.5 13H58.5L58.5 66.0893H61.5ZM39.6877 53.841L57.4383 68.0415L59.3123 65.6989L41.5617 51.4984L39.6877 53.841ZM22.5617 68.0415L40.3123 53.841L38.4383 51.4984L20.6877 65.6989L22.5617 68.0415ZM18.5 13L18.5 66.0893H21.5L21.5 13H18.5ZM20.6877 65.6989C21.015 65.437 21.5 65.67 21.5 66.0893H18.5C18.5 68.1856 20.9248 69.351 22.5617 68.0415L20.6877 65.6989ZM41.5617 51.4984C40.6487 50.7679 39.3513 50.7679 38.4383 51.4984L40.3123 53.841C40.1297 53.9871 39.8703 53.9871 39.6877 53.841L41.5617 51.4984ZM58.5 66.0893C58.5 65.67 58.985 65.437 59.3123 65.6989L57.4383 68.0415C59.0752 69.351 61.5 68.1856 61.5 66.0893H58.5ZM21 10.5C19.6193 10.5 18.5 11.6193 18.5 13H21.5C21.5 13.2761 21.2761 13.5 21 13.5V10.5ZM59 13.5C58.7239 13.5 58.5 13.2761 58.5 13H61.5C61.5 11.6193 60.3807 10.5 59 10.5V13.5Z" fill="currentColor" />
</svg>