<svg viewBox="0 0 80 80" fill="none">
  <path d="M33 13C33 12.4477 33.4477 12 34 12H46C46.5523 12 47 12.4477 47 13V16.998H33V13Z" fill="currentColor" />
  <path d="M33 22.998H47V56.998H33V22.998Z" fill="currentColor" />
  <path d="M33 62.998V67C33 67.5523 33.4477 68 34 68H46C46.5523 68 47 67.5523 47 67V62.998H33Z" fill="currentColor" />
  <path d="M33 13C33 12.4477 33.4477 12 34 12H46C46.5523 12 47 12.4477 47 13V16.998H33V13Z" stroke="currentColor" stroke-width="3" stroke-linejoin="round" />
  <path d="M33 22.998H47V56.998H33V22.998Z" stroke="currentColor" stroke-width="3" stroke-linejoin="round" />
  <path d="M33 62.998V67C33 67.5523 33.4477 68 34 68H46C46.5523 68 47 67.5523 47 67V62.998H33Z" stroke="currentColor" stroke-width="3" stroke-linejoin="round" />
</svg>