<svg viewBox="0 0 80 80" fill="none">
  <path d="M18 25C18 24.4477 18.4477 24 19 24H31C31.5523 24 32 24.4477 32 25V27.998H18V25Z" fill="currentColor" />
  <path d="M18 35.998H32V55.998H18V35.998Z" fill="currentColor" />
  <path d="M18 63.998V67C18 67.5523 18.4477 68 19 68H31C31.5523 68 32 67.5523 32 67V63.998H18Z" fill="currentColor" />
  <path d="M39 13C39 12.4477 39.4477 12 40 12H52C52.5523 12 53 12.4477 53 13V15.998H39V13Z" fill="currentColor" />
  <path d="M39 23.998H53V55.998H39V23.998Z" fill="currentColor" />
  <path d="M39 63.998V67C39 67.5523 39.4477 68 40 68H52C52.5523 68 53 67.5523 53 67V63.998H39Z" fill="currentColor" />
  <path d="M59.0001 33.0009L69.2486 31.3604M59.0001 33.0009L64.2915 66.058C65.7609 65.2303 67.3813 64.6572 69.0872 64.3841C70.93 64.0891 72.7873 64.158 74.563 64.562L69.2486 31.3604M59.0001 33.0009L64.6603 68.3624M69.2486 31.3604L74.9088 66.722M19 24C18.4477 24 18 24.4477 18 25V27.998H32V25C32 24.4477 31.5523 24 31 24H19ZM32 35.998H18V55.998H32V35.998ZM18 63.998V67C18 67.5523 18.4477 68 19 68H31C31.5523 68 32 67.5523 32 67V63.998H18ZM40 12C39.4477 12 39 12.4477 39 13V15.998H53V13C53 12.4477 52.5523 12 52 12H40ZM53 23.998H39V55.998H53V23.998ZM39 63.998V67C39 67.5523 39.4477 68 40 68H52C52.5523 68 53 67.5523 53 67V63.998H39Z" stroke="currentColor" stroke-width="5" stroke-linecap="round" stroke-linejoin="round" />
</svg>