<svg viewBox="0 0 80 80" fill="none">
  <path d="M58.7304 33.5787L60.8368 32.2321L60.8368 32.2321L58.7304 33.5787ZM51.1299 21.6907L49.0236 23.0374L49.0236 23.0374L51.1299 21.6907ZM21.272 23.0843L18.944 22.1731V22.1731L21.272 23.0843ZM17.182 33.5344L14.854 32.6232L14.854 32.6232L17.182 33.5344ZM35.4998 18C35.4998 16.6193 34.3805 15.5 32.9998 15.5C31.6191 15.5 30.4998 16.6193 30.4998 18H35.4998ZM30.4998 34C30.4998 35.3807 31.6191 36.5 32.9998 36.5C34.3805 36.5 35.4998 35.3807 35.4998 34H30.4998ZM58.4998 36.5C59.8805 36.5 60.9998 35.3807 60.9998 34C60.9998 32.6193 59.8805 31.5 58.4998 31.5V36.5ZM17.4998 31.5C16.1191 31.5 14.9998 32.6193 14.9998 34C14.9998 35.3807 16.1191 36.5 17.4998 36.5V31.5ZM56.6241 34.9254C55.6767 33.4435 56.741 31.5 58.4998 31.5V36.5C60.6912 36.5 62.0172 34.0784 60.8368 32.2321L56.6241 34.9254ZM49.0236 23.0374L56.6241 34.9254L60.8368 32.2321L53.2363 20.3441L49.0236 23.0374ZM44.3898 20.5C46.2661 20.5 48.0129 21.4565 49.0236 23.0374L53.2363 20.3441C51.3067 17.3261 47.9718 15.5 44.3898 15.5V20.5ZM28.7218 20.5H44.3898V15.5H28.7218V20.5ZM23.6001 23.9954C24.4252 21.8872 26.4578 20.5 28.7218 20.5V15.5C24.3997 15.5 20.5192 18.1484 18.944 22.1731L23.6001 23.9954ZM19.51 34.4456L23.6001 23.9954L18.944 22.1731L14.854 32.6232L19.51 34.4456ZM17.4998 31.5C19.0202 31.5 20.0642 33.0297 19.51 34.4456L14.854 32.6232C14.1246 34.4866 15.4987 36.5 17.4998 36.5V31.5ZM58.4998 31.5H17.4998V36.5H58.4998V31.5ZM30.4998 18V34H35.4998V18H30.4998ZM58.4998 31.5H17.4998V36.5H58.4998V31.5Z" fill="currentColor" />
  <path fill-rule="evenodd" clip-rule="evenodd" d="M10 41C10 37.134 13.134 34 17 34H58C64.6274 34 70 39.3726 70 46V48C70 49.0682 69.5813 50.0386 68.899 50.7561C68.8706 50.6056 68.8393 50.4554 68.8051 50.3056C67.9851 46.713 65.5738 43.6893 62.2538 42.0904C58.9337 40.4916 55.0663 40.4916 51.7462 42.0904C48.4262 43.6893 46.0149 46.713 45.1949 50.3056C45.0666 50.8674 44.9795 51.4336 44.9325 52H35.0675C35.0205 51.4336 34.9334 50.8674 34.8051 50.3056C33.9851 46.713 31.5738 43.6893 28.2538 42.0904C24.9337 40.4916 21.0663 40.4916 17.7462 42.0904C14.4262 43.6893 12.0149 46.713 11.1949 50.3056C11.1607 50.4554 11.1294 50.6056 11.101 50.7561C10.4187 50.0386 10 49.0682 10 48V41ZM60.9852 52H53.0148C53.3112 50.8187 54.1172 49.8279 55.2173 49.2982C56.3438 48.7556 57.6562 48.7556 58.7827 49.2982C59.8828 49.8279 60.6888 50.8187 60.9852 52ZM24.7827 49.2982C25.8828 49.8279 26.6888 50.8187 26.9852 52H19.0148C19.3112 50.8187 20.1172 49.8279 21.2173 49.2982C22.3439 48.7556 23.6561 48.7556 24.7827 49.2982Z" fill="currentColor" />
  <path d="M68.899 50.7561L67.425 51.0341C67.5294 51.5873 67.9346 52.0354 68.4745 52.1947C69.0144 52.354 69.598 52.1977 69.986 51.7897L68.899 50.7561ZM68.8051 50.3056L67.3427 50.6393V50.6393L68.8051 50.3056ZM62.2538 42.0904L62.9046 40.739L62.2538 42.0904ZM51.7462 42.0904L51.0954 40.739L51.7462 42.0904ZM45.1949 50.3056L43.7325 49.9718L43.7325 49.9718L45.1949 50.3056ZM44.9325 52V53.5C45.7129 53.5 46.3629 52.9016 46.4274 52.1239L44.9325 52ZM35.0675 52L33.5726 52.1239C33.6371 52.9016 34.2871 53.5 35.0675 53.5V52ZM34.8051 50.3056L33.3427 50.6393L34.8051 50.3056ZM28.2538 42.0904L28.9046 40.739L28.2538 42.0904ZM17.7462 42.0904L17.0954 40.739H17.0954L17.7462 42.0904ZM11.1949 50.3056L12.6573 50.6393L11.1949 50.3056ZM11.101 50.7561L10.014 51.7898C10.402 52.1977 10.9856 52.354 11.5255 52.1947C12.0654 52.0354 12.4706 51.5873 12.575 51.0341L11.101 50.7561ZM53.0148 52L51.5599 51.635C51.4475 52.0832 51.5479 52.5583 51.8321 52.9226C52.1164 53.287 52.5527 53.5 53.0148 53.5V52ZM60.9852 52V53.5C61.4473 53.5 61.8836 53.287 62.1679 52.9226C62.4521 52.5583 62.5525 52.0832 62.4401 51.635L60.9852 52ZM55.2173 49.2982L54.5665 47.9467L55.2173 49.2982ZM58.7827 49.2982L59.4335 47.9467L58.7827 49.2982ZM26.9852 52V53.5C27.4473 53.5 27.8836 53.287 28.1679 52.9226C28.4521 52.5583 28.5525 52.0832 28.4401 51.635L26.9852 52ZM24.7827 49.2982L24.1319 50.6496L24.7827 49.2982ZM19.0148 52L17.5599 51.635C17.4475 52.0832 17.5479 52.5583 17.8321 52.9226C18.1164 53.287 18.5527 53.5 19.0148 53.5V52ZM21.2173 49.2982L21.8681 50.6496L21.2173 49.2982ZM17 32.5C12.3056 32.5 8.5 36.3056 8.5 41H11.5C11.5 37.9624 13.9624 35.5 17 35.5V32.5ZM58 32.5H17V35.5H58V32.5ZM71.5 46C71.5 38.5442 65.4558 32.5 58 32.5V35.5C63.799 35.5 68.5 40.201 68.5 46H71.5ZM71.5 48V46H68.5V48H71.5ZM69.986 51.7897C70.9228 50.8046 71.5 49.4681 71.5 48H68.5C68.5 48.6683 68.2398 49.2726 67.812 49.7224L69.986 51.7897ZM67.3427 50.6393C67.3727 50.7707 67.4001 50.9023 67.425 51.0341L70.373 50.478C70.3411 50.309 70.306 50.1402 70.2675 49.9718L67.3427 50.6393ZM61.603 43.4419C64.5117 44.8427 66.6243 47.4918 67.3427 50.6393L70.2675 49.9718C69.346 45.9341 66.6359 42.5359 62.9046 40.739L61.603 43.4419ZM52.397 43.4419C55.3058 42.0411 58.6942 42.0411 61.603 43.4419L62.9046 40.739C59.1733 38.9421 54.8267 38.9421 51.0954 40.739L52.397 43.4419ZM46.6573 50.6393C47.3757 47.4918 49.4883 44.8427 52.397 43.4419L51.0954 40.739C47.3641 42.5359 44.654 45.9341 43.7325 49.9718L46.6573 50.6393ZM46.4274 52.1239C46.4686 51.6278 46.5449 51.1317 46.6573 50.6393L43.7325 49.9718C43.5884 50.6031 43.4905 51.2394 43.4377 51.8761L46.4274 52.1239ZM35.0675 53.5H44.9325V50.5H35.0675V53.5ZM33.3427 50.6393C33.4551 51.1317 33.5314 51.6277 33.5726 52.1239L36.5623 51.8761C36.5095 51.2394 36.4116 50.6031 36.2675 49.9718L33.3427 50.6393ZM27.603 43.4419C30.5117 44.8427 32.6243 47.4918 33.3427 50.6393L36.2675 49.9718C35.346 45.9341 32.6359 42.5359 28.9046 40.739L27.603 43.4419ZM18.397 43.4419C21.3058 42.0411 24.6942 42.0411 27.603 43.4419L28.9046 40.739C25.1733 38.9421 20.8267 38.9421 17.0954 40.739L18.397 43.4419ZM12.6573 50.6393C13.3757 47.4918 15.4883 44.8427 18.397 43.4419L17.0954 40.739C13.3641 42.5359 10.654 45.9341 9.73248 49.9718L12.6573 50.6393ZM12.575 51.0341C12.5999 50.9023 12.6273 50.7707 12.6573 50.6393L9.73248 49.9718C9.69404 50.1402 9.65889 50.309 9.627 50.478L12.575 51.0341ZM8.5 48C8.5 49.4681 9.07721 50.8046 10.014 51.7898L12.188 49.7224C11.7602 49.2726 11.5 48.6683 11.5 48H8.5ZM8.5 41V48H11.5V41H8.5ZM53.0148 53.5H60.9852V50.5H53.0148V53.5ZM54.5665 47.9467C53.0648 48.6699 51.9645 50.0223 51.5599 51.635L54.4697 52.365C54.6579 51.615 55.1697 50.986 55.8681 50.6496L54.5665 47.9467ZM59.4335 47.9467C57.8957 47.2061 56.1043 47.2061 54.5665 47.9467L55.8681 50.6496C56.5834 50.3052 57.4166 50.3052 58.1319 50.6496L59.4335 47.9467ZM62.4401 51.635C62.0355 50.0223 60.9352 48.6699 59.4335 47.9467L58.1319 50.6496C58.8303 50.986 59.3421 51.615 59.5303 52.365L62.4401 51.635ZM28.4401 51.635C28.0355 50.0223 26.9352 48.6699 25.4335 47.9467L24.1319 50.6496C24.8303 50.986 25.3421 51.615 25.5303 52.365L28.4401 51.635ZM19.0148 53.5H26.9852V50.5H19.0148V53.5ZM20.5665 47.9467C19.0648 48.6699 17.9645 50.0223 17.5599 51.635L20.4697 52.365C20.6579 51.615 21.1697 50.986 21.8681 50.6496L20.5665 47.9467ZM25.4335 47.9467C23.8957 47.2061 22.1043 47.2061 20.5665 47.9467L21.8681 50.6496C22.5834 50.3052 23.4166 50.3052 24.1319 50.6496L25.4335 47.9467Z" fill="currentColor" />
  <path d="M19.4818 45.6943C21.7051 44.6236 24.2949 44.6236 26.5182 45.6943C28.7415 46.765 30.3563 48.7898 30.9054 51.1956C31.4545 53.6015 30.8782 56.1264 29.3397 58.0557C27.8011 59.985 25.4677 61.1087 23 61.1087C20.5323 61.1087 18.1989 59.985 16.6603 58.0557C15.1218 56.1264 14.5455 53.6015 15.0946 51.1956C15.6437 48.7898 17.2585 46.765 19.4818 45.6943Z" fill="currentColor" />
  <path d="M53.4818 45.6943C55.7051 44.6236 58.2949 44.6236 60.5182 45.6943C62.7415 46.765 64.3563 48.7898 64.9054 51.1956C65.4545 53.6015 64.8782 56.1264 63.3397 58.0557C61.8011 59.985 59.4677 61.1087 57 61.1087C54.5323 61.1087 52.1989 59.985 50.6603 58.0557C49.1218 56.1264 48.5455 53.6015 49.0946 51.1956C49.6437 48.7898 51.2585 46.765 53.4818 45.6943Z" fill="currentColor" />
</svg>