<svg viewBox="0 0 80 80" fill="none">
  <path d="M59.8807 35V37.5C60.7064 37.5 61.4788 37.0923 61.9447 36.4106C62.4106 35.7289 62.5098 34.8611 62.2099 34.0918L59.8807 35ZM20.1191 35L17.7899 34.0918C17.49 34.8611 17.5892 35.7289 18.0551 36.4106C18.521 37.0923 19.2934 37.5 20.1191 37.5V35ZM23.9069 25.2853L26.2362 26.1934L23.9069 25.2853ZM56.0929 25.2853L58.4221 24.3771V24.3771L56.0929 25.2853ZM59.8807 32.5H20.1191V37.5H59.8807V32.5ZM21.5777 24.3771L17.7899 34.0918L22.4484 35.9082L26.2362 26.1934L21.5777 24.3771ZM31.3604 17.6914C27.0335 17.6914 23.1496 20.3457 21.5777 24.3771L26.2362 26.1934C27.0595 24.0818 29.0939 22.6914 31.3604 22.6914V17.6914ZM48.6394 17.6914H31.3604V22.6914H48.6394V17.6914ZM58.4221 24.3771C56.8502 20.3457 52.9664 17.6914 48.6394 17.6914V22.6914C50.9059 22.6914 52.9403 24.0818 53.7637 26.1934L58.4221 24.3771ZM62.2099 34.0918L58.4221 24.3771L53.7637 26.1934L57.5515 35.9082L62.2099 34.0918Z" fill="currentColor" />
  <path fill-rule="evenodd" clip-rule="evenodd" d="M62.8905 50.7913C62.747 50.5403 62.4766 50.3711 62.1667 50.3711H53.8333C53.4436 50.3711 53.1164 50.6386 53.0253 51H62C62.32 51 62.6224 50.9249 62.8905 50.7913ZM26.9747 51C26.8836 50.6386 26.5564 50.3711 26.1667 50.3711H17.8333C17.5234 50.3711 17.253 50.5403 17.1095 50.7913C17.3776 50.9249 17.68 51 18 51H26.9747ZM63 54.917V58.3711C63 59.4757 62.1046 60.3711 61 60.3711H55C53.8954 60.3711 53 59.4757 53 58.3711V55H62C62.3407 55 62.6748 54.9716 63 54.917ZM17 54.917C17.3252 54.9716 17.6593 55 18 55H27V58.3711C27 59.4757 26.1046 60.3711 25 60.3711H19C17.8954 60.3711 17 59.4757 17 58.3711V54.917Z" fill="currentColor" />
  <path fill-rule="evenodd" clip-rule="evenodd" d="M14 43C14 38.5817 17.5817 35 22 35H58C62.4183 35 66 38.5817 66 43V49C66 51.2091 64.2091 53 62 53H18C15.7909 53 14 51.2091 14 49V43ZM21 44C21 42.3431 22.3431 41 24 41C25.6569 41 27 42.3431 27 44C27 45.6569 25.6569 47 24 47C22.3431 47 21 45.6569 21 44ZM56 41C57.6569 41 59 42.3431 59 44C59 45.6569 57.6569 47 56 47C54.3431 47 53 45.6569 53 44C53 42.3431 54.3431 41 56 41Z" fill="currentColor" />
</svg>