<svg viewBox="0 0 80 80" fill="none">
  <path d="M36 38.954H33H36ZM36 41.0458H39H36ZM64.2792 59.7969C65.7778 59.0904 66.4201 57.3028 65.7136 55.8041C65.0072 54.3054 63.2195 53.6632 61.7208 54.3696L64.2792 59.7969ZM61.847 57.6268L60.5678 54.9131H60.5678L61.847 57.6268ZM61.7208 25.6302C63.2195 26.3367 65.0072 25.6944 65.7136 24.1958C66.4201 22.6971 65.7778 20.9094 64.2792 20.203L61.7208 25.6302ZM61.847 22.3731L63.1261 19.6595L61.847 22.3731ZM51.3165 20.8782L51.7899 23.8406L51.3165 20.8782ZM51.3165 59.1217L50.8431 62.0841H50.8431L51.3165 59.1217ZM39.8941 52.3396L37.5261 54.1815L37.5261 54.1815L39.8941 52.3396ZM39.8941 27.6602L42.2621 29.5021L39.8941 27.6602ZM33 38.954V41.0458H39V38.954H33ZM61.7208 54.3696L60.5678 54.9131L63.1261 60.3404L64.2792 59.7969L61.7208 54.3696ZM64.2792 20.203L63.1261 19.6595L60.5678 25.0867L61.7208 25.6302L64.2792 20.203ZM51.7899 23.8406C54.7746 23.3637 57.8338 23.7979 60.5678 25.0867L63.1261 19.6595C59.3003 17.8561 55.0196 17.2484 50.8431 17.9158L51.7899 23.8406ZM50.8431 62.0841C55.0196 62.7515 59.3003 62.1438 63.1261 60.3404L60.5678 54.9131C57.8338 56.2019 54.7746 56.6362 51.7899 56.1592L50.8431 62.0841ZM37.5261 54.1815C40.7907 58.3786 45.571 61.2416 50.8431 62.0841L51.7899 56.1592C48.0406 55.5601 44.6066 53.5119 42.2621 50.4977L37.5261 54.1815ZM33 41.0458C33 45.7973 34.6204 50.4458 37.5261 54.1815L42.2621 50.4977C40.1641 47.8004 39 44.4443 39 41.0458H33ZM42.2621 29.5021C44.6066 26.488 48.0406 24.4397 51.7899 23.8406L50.8431 17.9158C45.571 18.7583 40.7907 21.6213 37.5261 25.8183L42.2621 29.5021ZM39 38.954C39 35.5555 40.1641 32.1994 42.2621 29.5021L37.5261 25.8183C34.6204 29.554 33 34.2025 33 38.954H39Z" fill="currentColor" />
  <rect x="16" y="20" width="14" height="14" rx="7" stroke="currentColor" stroke-width="6" stroke-linecap="round" stroke-linejoin="round" />
</svg>