<svg viewBox="0 0 80 80" fill="none">
  <path fill-rule="evenodd" clip-rule="evenodd" d="M43.6703 17.408C43.036 15.946 41.5944 15 40.0007 15C38.4071 15 36.9655 15.946 36.3312 17.408L34.8574 20.805L31.8826 18.6C30.6024 17.651 28.8809 17.5525 27.5007 18.3494C26.1206 19.1462 25.3451 20.6863 25.5268 22.2695L25.949 25.9483L22.2703 25.5261C20.687 25.3444 19.1469 26.1199 18.3501 27.5C17.5533 28.8801 17.6517 30.6016 18.6007 31.8819L20.8057 34.8567L17.4087 36.3305C15.9467 36.9647 15.0007 38.4063 15.0007 40C15.0007 41.5937 15.9467 43.0353 17.4087 43.6695L20.8057 45.1433L18.6007 48.1181C17.6517 49.3984 17.5533 51.1199 18.3501 52.5C19.1469 53.8801 20.687 54.6556 22.2703 54.4739L25.949 54.0517L25.5268 57.7305C25.3451 59.3137 26.1206 60.8538 27.5007 61.6506C28.8809 62.4475 30.6023 62.349 31.8826 61.4L34.8574 59.195L36.3312 62.592C36.9655 64.054 38.4071 65 40.0007 65C41.5944 65 43.036 64.054 43.6703 62.592L45.144 59.195L48.1188 61.4C49.3991 62.349 51.1206 62.4475 52.5007 61.6506C53.8809 60.8538 54.6563 59.3137 54.4746 57.7305L54.0525 54.0517L57.7312 54.4739C59.3145 54.6556 60.8545 53.8801 61.6514 52.5C62.4482 51.1199 62.3497 49.3984 61.4007 48.1181L59.1958 45.1433L62.5927 43.6695C64.0547 43.0353 65.0007 41.5937 65.0007 40C65.0007 38.4063 64.0547 36.9647 62.5927 36.3305L59.1958 34.8567L61.4007 31.8819C62.3497 30.6016 62.4482 28.8801 61.6514 27.5C60.8545 26.1199 59.3145 25.3444 57.7312 25.5261L54.0525 25.9483L54.4746 22.2695C54.6563 20.6863 53.8809 19.1462 52.5007 18.3494C51.1206 17.5525 49.3991 17.651 48.1188 18.6L45.144 20.805L43.6703 17.408Z" fill="currentColor" />
</svg>