<svg viewBox="0 0 80 80" fill="none">
  <path d="M11.6213 37.9703C10.4497 36.7988 8.55025 36.7988 7.37868 37.9703C6.20711 39.1419 6.20711 41.0414 7.37868 42.213L11.6213 37.9703ZM25.0563 55.648L27.1777 53.5267L27.1777 53.5267L25.0563 55.648ZM34.0265 45.2636C32.8549 46.4352 32.8549 48.3347 34.0265 49.5063C35.1981 50.6779 37.0976 50.6779 38.2691 49.5063L34.0265 45.2636ZM62.533 25.2424C63.7046 24.0708 63.7046 22.1713 62.533 20.9998C61.3614 19.8282 59.4619 19.8282 58.2904 20.9998L62.533 25.2424ZM24.7552 58.9309C26.3117 59.4988 28.0339 58.6975 28.6018 57.141C29.1698 55.5845 28.3684 53.8623 26.812 53.2944L24.7552 58.9309ZM7.37868 42.213L22.935 57.7693L27.1777 53.5267L11.6213 37.9703L7.37868 42.213ZM38.2691 49.5063L62.533 25.2424L58.2904 20.9998L34.0265 45.2636L38.2691 49.5063ZM22.935 57.7693C23.4634 58.2977 24.0876 58.6872 24.7552 58.9309L26.812 53.2944C26.9489 53.3443 27.0751 53.4241 27.1777 53.5267L22.935 57.7693Z" fill="currentColor" />
  <path d="M19.3089 40.092L34.8652 55.6484C35.6463 56.4294 36.9126 56.4294 37.6937 55.6484L70.2206 23.1214" stroke="currentColor" stroke-width="6" stroke-linecap="round" stroke-linejoin="round" />
</svg>