<svg viewBox="0 0 80 80" fill="none">
  <path d="M40.0007 38.4999C39.1723 38.4999 38.5007 39.1715 38.5007 39.9999C38.5007 40.8283 39.1723 41.4999 40.0007 41.4999C40.8292 41.4999 41.5007 40.8283 41.5007 39.9999C41.5007 39.1715 40.8292 38.4999 40.0007 38.4999Z" fill="currentColor" />
  <path fill-rule="evenodd" clip-rule="evenodd" d="M48.4853 19.5145C43.0523 17.2641 36.9478 17.2641 31.5147 19.5145C26.0817 21.7649 21.7652 26.0815 19.5147 31.5145C17.2643 36.9475 17.2643 43.052 19.5147 48.4851C21.7652 53.9181 26.0817 58.2346 31.5147 60.485C36.9478 62.7355 43.0523 62.7355 48.4853 60.485C53.9183 58.2346 58.2349 53.9181 60.4853 48.4851C62.7357 43.052 62.7357 36.9475 60.4853 31.5145C58.2349 26.0815 53.9183 21.7649 48.4853 19.5145ZM47.7971 29.8334C48.4545 30.3375 48.5789 31.279 48.0749 31.9365L43.7738 37.5467C44.2336 38.2523 44.5007 39.0949 44.5007 39.9999C44.5007 40.2761 44.4758 40.5465 44.4282 40.809L54.0113 46.288C54.1251 46.3217 54.2354 46.3689 54.3398 46.4295L56.0693 47.4341C56.7816 47.8478 57.027 48.7585 56.619 49.4741L56.5934 49.5189C56.3954 49.864 56.0684 50.1163 55.6844 50.2203C55.3004 50.3243 54.8907 50.2715 54.5457 50.0735L52.811 49.078C52.7434 49.0392 52.68 48.9959 52.6208 48.9488L42.9355 43.4113C42.1476 44.0898 41.1221 44.4999 40.0007 44.4999C37.5154 44.4999 35.5007 42.4852 35.5007 39.9999C35.5007 37.5146 37.5154 35.4999 40.0007 35.4999C40.4871 35.4999 40.9555 35.5771 41.3942 35.7198L45.694 30.1112C46.198 29.4538 47.1396 29.3294 47.7971 29.8334ZM41.3277 22.3669C41.3266 21.9672 41.1661 21.5844 40.8817 21.3036C40.5974 21.0227 40.2127 20.8669 39.813 20.8708L39.7587 20.8715C38.9393 20.8818 38.2798 21.5479 38.2777 22.3674L38.2724 24.3677C38.2714 24.77 38.432 25.1558 38.7181 25.4386C39.0043 25.7213 39.392 25.8773 39.7943 25.8714L39.8489 25.8707C40.6726 25.8619 41.335 25.1906 41.3329 24.3669L41.3277 22.3669ZM49.2869 23.2753C48.5725 22.8787 47.6721 23.1268 47.2617 23.8333L46.2569 25.5631C46.0543 25.9121 46.0007 26.3279 46.1084 26.7168C46.216 27.1056 46.4758 27.4347 46.8291 27.6297L46.8764 27.656C47.5936 28.0555 48.4987 27.8042 48.9073 27.0922L49.9029 25.3574C50.1023 25.0098 50.1544 24.5968 50.0475 24.2106C49.9406 23.8243 49.6835 23.4969 49.3337 23.3014L49.2869 23.2753ZM32.4416 24.0019C32.2418 23.6579 31.9135 23.4074 31.5289 23.3054C31.1444 23.2035 30.7351 23.2584 30.3911 23.4583L30.3438 23.4858C29.6328 23.9016 29.39 24.8129 29.8 25.5273L30.7955 27.262C30.9947 27.6091 31.3243 27.8622 31.7111 27.9651C32.0979 28.0679 32.5097 28.0119 32.855 27.8095L32.9025 27.7818C33.6188 27.3657 33.8622 26.4477 33.4461 25.7314L32.4416 24.0019ZM56.4051 30.1597C55.9848 29.4589 55.0809 29.2236 54.3721 29.6303L52.6371 30.626C52.2871 30.8268 52.0329 31.1601 51.9317 31.5507C51.8305 31.9413 51.8909 32.3562 52.0993 32.7017L52.1267 32.7474C52.5481 33.452 53.4576 33.687 54.1675 33.2747L55.8971 32.2701C56.2436 32.0688 56.4952 31.7372 56.5957 31.3493C56.6963 30.9613 56.6374 30.5493 56.4322 30.205L56.4051 30.1597ZM25.5278 29.7993C24.8134 29.3894 23.9021 29.6321 23.4863 30.3432L23.4588 30.3904C23.2589 30.7344 23.2039 31.1437 23.3059 31.5283C23.4078 31.9128 23.6584 32.2411 24.0024 32.4409L25.7318 33.4455C26.4482 33.8615 27.3661 33.6182 27.7822 32.9019L27.81 32.8544C28.0124 32.5091 28.0684 32.0973 27.9656 31.7105C27.8627 31.3237 27.6096 30.994 27.2625 30.7948L25.5278 29.7993ZM25.8717 39.7937C25.8775 39.3915 25.7216 39.0037 25.4388 38.7175C25.1561 38.4314 24.7702 38.2708 24.3679 38.2718L22.3677 38.2771C21.5482 38.2792 20.8821 38.9387 20.8717 39.7581L20.8711 39.8124C20.8672 40.2121 21.0229 40.5968 21.3038 40.8811C21.5847 41.1655 21.9674 41.326 22.3671 41.3271L24.3672 41.3323C25.1908 41.3345 25.8622 40.672 25.871 39.8484L25.8717 39.7937ZM55.6321 38.2729C55.2298 38.2718 54.844 38.4324 54.5613 38.7185C54.2785 39.0047 54.1225 39.3924 54.1284 39.7946L54.129 39.8474C54.1379 40.671 54.8092 41.3334 55.6329 41.3313L57.6329 41.326C58.0326 41.325 58.4153 41.1645 58.6962 40.8801C58.9771 40.5957 59.1328 40.211 59.1289 39.8114L59.1283 39.7591C59.118 38.9397 58.4519 38.2802 57.6324 38.2781L55.6321 38.2729ZM27.6299 46.8287C27.4349 46.4755 27.1058 46.2157 26.717 46.108C26.3281 46.0004 25.9122 46.0539 25.5633 46.2566L23.8335 47.2613C23.127 47.6717 22.8789 48.5722 23.2755 49.2865L23.3016 49.3333C23.4971 49.6831 23.8245 49.9402 24.2107 50.0471C24.597 50.1541 25.0099 50.102 25.3576 49.9025L27.0923 48.907C27.8044 48.4983 28.0557 47.5932 27.6562 46.876L27.6299 46.8287ZM32.702 52.0991C32.3565 51.8907 31.9416 51.8303 31.551 51.9315C31.1605 52.0327 30.8271 52.287 30.6263 52.6369L29.6306 54.372C29.2239 55.0807 29.4593 55.9845 30.16 56.4049L30.2054 56.432C30.5496 56.6372 30.9617 56.6961 31.3496 56.5955C31.7375 56.495 32.0691 56.2434 32.2704 55.8969L33.275 54.1673C33.6874 53.4574 33.4524 52.5479 32.7478 52.1266L32.702 52.0991ZM49.0786 52.8105C48.6663 52.0921 47.7497 51.8438 47.0312 52.256L46.9857 52.282C46.6379 52.4798 46.3835 52.8085 46.2791 53.1948C46.1748 53.5812 46.2292 53.9932 46.4302 54.3393L47.4347 56.0688C47.8485 56.7811 48.7592 57.0265 49.4748 56.6185L49.5195 56.5929C49.8646 56.3949 50.1169 56.068 50.2209 55.6839C50.325 55.2999 50.2721 54.8903 50.0741 54.5452L49.0786 52.8105ZM39.7952 54.1281C39.393 54.1223 39.0053 54.2783 38.7191 54.561C38.433 54.8438 38.2724 55.2296 38.2735 55.6319L38.2787 57.6321C38.2808 58.4516 38.9403 59.1177 39.7597 59.1281L39.812 59.1287C40.2116 59.1326 40.5963 58.9768 40.8807 58.696C41.1651 58.4151 41.3256 58.0324 41.3266 57.6327L41.3319 55.6326C41.334 54.809 40.6716 54.1377 39.848 54.1288L39.7952 54.1281Z" fill="currentColor" />
</svg>