<svg viewBox="0 0 80 80" fill="none">
  <path fill-rule="evenodd" clip-rule="evenodd" d="M56.0502 21.567C58.8879 23.1752 60.9654 25.856 61.8174 28.9771C62.5067 31.5022 62.3488 34.1869 61.389 36.6094C63.9806 36.9823 66.4041 38.171 68.2944 40.0265L68.3765 40.1071C70.6943 42.3822 72 45.4936 72 48.7413C72 51.9891 70.6943 55.1004 68.3765 57.3755L68.2944 57.4562C65.9809 59.727 62.8686 60.9993 59.6269 60.9993H59.5122H56.8094C56.8001 60.9999 56.7907 61.0003 56.7813 61.0003L23.2203 61.0003C23.218 61.0003 23.2157 61.0003 23.2133 61.0002H20.4878H20.3731C17.1314 61.0002 14.0191 59.728 11.7056 57.4571L11.6235 57.3764C9.30573 55.1014 8 51.99 8 48.7423C8 45.4945 9.30573 42.3831 11.6235 40.1081L11.7056 40.0274C13.596 38.1718 16.0198 36.983 18.6118 36.6103C17.6518 34.1876 17.4939 31.5028 18.1832 28.9776C19.0352 25.8564 21.1127 23.1757 23.9504 21.5675L24.0502 21.5109C26.8879 19.9027 30.2918 19.477 33.4715 20.3134C36.0487 20.9912 38.342 22.4719 40.0001 24.5049C41.6583 22.4717 43.9517 20.9908 46.5291 20.3129C49.7088 19.4766 53.1127 19.9022 55.9504 21.5104L56.0502 21.567Z" fill="currentColor" />
  <path d="M61.8174 28.9771L63.2645 28.5821V28.5821L61.8174 28.9771ZM56.0502 21.567L55.3106 22.872L55.3107 22.872L56.0502 21.567ZM61.389 36.6094L59.9944 36.0569L59.2944 37.8235L61.1754 38.0941L61.389 36.6094ZM68.2944 40.0265L69.3451 38.956L69.3451 38.956L68.2944 40.0265ZM68.3765 40.1071L67.3258 41.1776L67.3258 41.1776L68.3765 40.1071ZM68.3765 57.3755L69.4273 58.446L69.4273 58.446L68.3765 57.3755ZM68.2944 57.4562L67.2436 56.3857L67.2436 56.3857L68.2944 57.4562ZM56.8094 60.9993V59.4993H56.7561L56.703 59.5031L56.8094 60.9993ZM23.2133 61.0002L23.2405 59.5005L23.2269 59.5002H23.2133V61.0002ZM11.7056 57.4571L10.6549 58.5276L10.6549 58.5276L11.7056 57.4571ZM11.6235 57.3764L12.6742 56.306L12.6742 56.306L11.6235 57.3764ZM11.6235 40.1081L12.6742 41.1785L12.6742 41.1785L11.6235 40.1081ZM11.7056 40.0274L10.6549 38.9569L10.6549 38.9569L11.7056 40.0274ZM18.6118 36.6103L18.8253 38.095L20.7064 37.8245L20.0063 36.0577L18.6118 36.6103ZM18.1832 28.9776L19.6303 29.3726V29.3726L18.1832 28.9776ZM23.9504 21.5675L24.6899 22.8725L24.6899 22.8725L23.9504 21.5675ZM24.0502 21.5109L23.3107 20.2059L23.3107 20.2059L24.0502 21.5109ZM33.4715 20.3134L33.0899 21.764V21.764L33.4715 20.3134ZM40.0001 24.5049L38.8377 25.453L40.0002 26.8783L41.1626 25.4529L40.0001 24.5049ZM46.5291 20.3129L46.1476 18.8622V18.8622L46.5291 20.3129ZM55.9504 21.5104L56.69 20.2054L56.6899 20.2054L55.9504 21.5104ZM63.2645 28.5821C62.3073 25.0756 59.9752 22.0673 56.7898 20.262L55.3107 22.872C57.8007 24.2832 59.6236 26.6363 60.3703 29.3721L63.2645 28.5821ZM62.7835 37.162C63.8619 34.4403 64.04 31.4233 63.2645 28.5821L60.3703 29.3721C60.9734 31.5812 60.8358 33.9334 59.9944 36.0569L62.7835 37.162ZM69.3451 38.956C67.2257 36.8756 64.5084 35.5428 61.6026 35.1247L61.1754 38.0941C63.4529 38.4218 65.5826 39.4665 67.2436 41.0969L69.3451 38.956ZM69.4273 39.0367L69.3451 38.956L67.2436 41.0969L67.3258 41.1776L69.4273 39.0367ZM73.5 48.7413C73.5 45.0909 72.0324 41.5938 69.4273 39.0367L67.3258 41.1776C69.3562 43.1706 70.5 45.8962 70.5 48.7413H73.5ZM69.4273 58.446C72.0324 55.8888 73.5 52.3917 73.5 48.7413H70.5C70.5 51.5864 69.3561 54.312 67.3258 56.305L69.4273 58.446ZM69.3451 58.5266L69.4273 58.446L67.3258 56.305L67.2436 56.3857L69.3451 58.5266ZM59.6269 62.4993C63.2616 62.4993 66.7512 61.0728 69.3451 58.5266L67.2436 56.3857C65.2106 58.3813 62.4756 59.4993 59.6269 59.4993V62.4993ZM59.5122 62.4993H59.6269V59.4993H59.5122V62.4993ZM56.8094 62.4993H59.5122V59.4993H56.8094V62.4993ZM56.703 59.5031C56.7291 59.5012 56.7552 59.5003 56.7813 59.5003V62.5003C56.8263 62.5003 56.8712 62.4987 56.9158 62.4955L56.703 59.5031ZM56.7813 59.5003L23.2203 59.5003V62.5003L56.7813 62.5003V59.5003ZM23.2203 59.5003C23.2262 59.5003 23.2329 59.5003 23.2405 59.5005L23.1862 62.5C23.1984 62.5002 23.2098 62.5003 23.2203 62.5003V59.5003ZM20.4878 62.5002H23.2133V59.5002H20.4878V62.5002ZM20.3731 62.5002H20.4878V59.5002H20.3731V62.5002ZM10.6549 58.5276C13.2488 61.0737 16.7384 62.5002 20.3731 62.5002V59.5002C17.5244 59.5002 14.7894 58.3822 12.7564 56.3866L10.6549 58.5276ZM10.5727 58.4469L10.6549 58.5276L12.7564 56.3866L12.6742 56.306L10.5727 58.4469ZM6.5 48.7423C6.5 52.3926 7.96762 55.8898 10.5727 58.4469L12.6742 56.306C10.6438 54.313 9.5 51.5873 9.5 48.7423H6.5ZM10.5727 39.0376C7.96762 41.5947 6.5 45.0919 6.5 48.7423H9.5C9.5 45.8972 10.6438 43.1715 12.6742 41.1785L10.5727 39.0376ZM10.6549 38.9569L10.5727 39.0376L12.6742 41.1785L12.7564 41.0979L10.6549 38.9569ZM18.3983 35.1255C15.4921 35.5434 12.7745 36.8763 10.6549 38.9569L12.7564 41.0979C14.4176 39.4673 16.5475 38.4225 18.8253 38.095L18.3983 35.1255ZM16.7361 28.5826C15.9606 31.4239 16.1387 34.441 17.2173 37.1628L20.0063 36.0577C19.1648 33.9341 19.0272 31.5818 19.6303 29.3726L16.7361 28.5826ZM23.2108 20.2625C20.0254 22.0677 17.6933 25.076 16.7361 28.5826L19.6303 29.3726C20.3771 26.6368 22.1999 24.2837 24.6899 22.8725L23.2108 20.2625ZM23.3107 20.2059L23.2108 20.2625L24.6899 22.8725L24.7898 22.8159L23.3107 20.2059ZM33.853 18.8627C30.3019 17.9287 26.4949 18.4013 23.3107 20.2059L24.7898 22.8159C27.2809 21.4041 30.2817 21.0254 33.0899 21.764L33.853 18.8627ZM41.1625 23.5569C39.3032 21.2771 36.7361 19.621 33.853 18.8627L33.0899 21.764C35.3612 22.3614 37.3808 23.6667 38.8377 25.453L41.1625 23.5569ZM46.1476 18.8622C43.2642 19.6206 40.697 21.2769 38.8376 23.5569L41.1626 25.4529C42.6195 23.6664 44.6392 22.361 46.9107 21.7636L46.1476 18.8622ZM56.6899 20.2054C53.5057 18.4008 49.6987 17.9282 46.1476 18.8622L46.9107 21.7636C49.7189 21.0249 52.7197 21.4037 55.2108 22.8154L56.6899 20.2054ZM56.7898 20.262L56.69 20.2054L55.2108 22.8154L55.3106 22.872L56.7898 20.262Z" fill="currentColor" />
</svg>