<svg viewBox="0 0 80 80" fill="none">
  <path fill-rule="evenodd" clip-rule="evenodd" d="M39.6527 20C43.7409 20 47.7158 21.6394 50.6663 24.5164C53.6195 27.396 55.344 31.3432 55.4098 35.4347L55.4127 35.6119C57.9954 35.9886 60.4099 37.1758 62.2944 39.0255L62.3765 39.1062C64.6943 41.3813 66 44.4926 66 47.7404C66 50.9881 64.6943 54.0995 62.3765 56.3746L62.2944 56.4552C59.9809 58.7261 56.8686 59.9983 53.6269 59.9983H53.5122H49.7896C49.7804 59.9994 49.7709 60 49.7614 60L31.8603 60C31.8386 60.0002 31.8168 60.0003 31.7951 60.0003H31.6604H26.4878H26.3731C23.1314 60.0003 20.0191 58.728 17.7056 56.4572L17.6235 56.3765C15.3057 54.1014 14 50.9901 14 47.7423C14 44.4946 15.3057 41.3832 17.6235 39.1081L17.7056 39.0275C19.5083 37.258 21.796 36.0948 24.2521 35.6675L24.2483 35.4347C24.1825 31.3432 25.78 27.396 28.6405 24.5164C31.4985 21.6394 35.4206 20 39.5088 20H39.6527Z" fill="currentColor" />
  <path d="M50.6663 24.5164L49.27 25.9483V25.9483L50.6663 24.5164ZM55.4098 35.4347L57.4096 35.4026V35.4025L55.4098 35.4347ZM55.4127 35.6119L53.4129 35.6441L53.4403 37.3454L55.124 37.591L55.4127 35.6119ZM62.2944 39.0255L63.6954 37.5983L63.6954 37.5982L62.2944 39.0255ZM62.3765 39.1062L60.9755 40.5335L60.9755 40.5335L62.3765 39.1062ZM62.3765 56.3746L60.9755 54.9473L60.9755 54.9473L62.3765 56.3746ZM62.2944 56.4552L63.6954 57.8825L63.6954 57.8825L62.2944 56.4552ZM49.7896 59.9983V57.9983H49.672L49.5553 58.0121L49.7896 59.9983ZM31.8603 60V58H31.8513L31.8424 58.0001L31.8603 60ZM17.7056 56.4572L19.1067 55.0299L19.1066 55.0299L17.7056 56.4572ZM17.6235 56.3765L16.2224 57.8038L16.2225 57.8038L17.6235 56.3765ZM17.6235 39.1081L16.2225 37.6809L16.2224 37.6809L17.6235 39.1081ZM17.7056 39.0275L19.1066 40.4548L19.1067 40.4548L17.7056 39.0275ZM24.2521 35.6675L24.5949 37.6379L26.2793 37.3448L26.2518 35.6353L24.2521 35.6675ZM24.2483 35.4347L22.2486 35.4669V35.4669L24.2483 35.4347ZM28.6405 24.5164L27.2216 23.1069L27.2216 23.1069L28.6405 24.5164ZM52.0625 23.0844C48.7454 19.8499 44.2721 18 39.6527 18V22C43.2098 22 46.6862 23.4289 49.27 25.9483L52.0625 23.0844ZM57.4096 35.4025C57.3351 30.7735 55.3869 26.326 52.0625 23.0844L49.27 25.9483C51.8521 28.4661 53.3529 31.913 53.4101 35.4669L57.4096 35.4025ZM57.4124 35.5798L57.4096 35.4026L53.4101 35.4669L53.4129 35.6441L57.4124 35.5798ZM63.6954 37.5982C61.5063 35.4494 58.7015 34.0704 55.7013 33.6329L55.124 37.591C57.2893 37.9068 59.3135 38.9021 60.8933 40.4528L63.6954 37.5982ZM63.7776 37.6789L63.6954 37.5983L60.8933 40.4528L60.9755 40.5335L63.7776 37.6789ZM68 47.7404C68 43.9558 66.4784 40.3301 63.7776 37.6789L60.9755 40.5335C62.9101 42.4325 64 45.0295 64 47.7404H68ZM63.7775 57.8019C66.4784 55.1507 68 51.525 68 47.7404H64C64 50.4512 62.9101 53.0483 60.9755 54.9473L63.7775 57.8019ZM63.6954 57.8825L63.7776 57.8018L60.9755 54.9473L60.8933 55.028L63.6954 57.8825ZM53.6269 61.9983C57.3926 61.9983 61.008 60.5205 63.6954 57.8825L60.8933 55.0279C58.9538 56.9317 56.3446 57.9983 53.6269 57.9983V61.9983ZM53.5122 61.9983H53.6269V57.9983H53.5122V61.9983ZM49.7896 61.9983H53.5122V57.9983H49.7896V61.9983ZM49.5553 58.0121C49.6234 58.0041 49.6922 58 49.7614 58V62C49.8496 62 49.9373 61.9948 50.024 61.9846L49.5553 58.0121ZM49.7614 58L31.8603 58V62L49.7614 62V58ZM31.7951 62.0003C31.8227 62.0003 31.8504 62.0002 31.8782 61.9999L31.8424 58.0001C31.8267 58.0002 31.811 58.0003 31.7951 58.0003V62.0003ZM31.6604 62.0003H31.7951V58.0003H31.6604V62.0003ZM26.4878 62.0003H31.6604V58.0003H26.4878V62.0003ZM26.3731 62.0003H26.4878V58.0003H26.3731V62.0003ZM16.3046 57.8845C18.992 60.5224 22.6074 62.0003 26.3731 62.0003V58.0003C23.6554 58.0003 21.0462 56.9337 19.1067 55.0299L16.3046 57.8845ZM16.2225 57.8038L16.3046 57.8845L19.1066 55.0299L19.0245 54.9492L16.2225 57.8038ZM12 47.7423C12 51.5269 13.5216 55.1526 16.2224 57.8038L19.0245 54.9492C17.0899 53.0502 16 50.4532 16 47.7423H12ZM16.2224 37.6809C13.5216 40.332 12 43.9577 12 47.7423H16C16 45.0315 17.0899 42.4344 19.0245 40.5354L16.2224 37.6809ZM16.3046 37.6002L16.2225 37.6809L19.0245 40.5354L19.1066 40.4548L16.3046 37.6002ZM23.9092 33.6971C21.0562 34.1935 18.3987 35.5446 16.3046 37.6002L19.1067 40.4548C20.6179 38.9713 22.5358 37.9962 24.5949 37.6379L23.9092 33.6971ZM22.2486 35.4669L22.2523 35.6996L26.2518 35.6353L26.2481 35.4025L22.2486 35.4669ZM27.2216 23.1069C23.9811 26.3691 22.1741 30.8361 22.2486 35.4669L26.2481 35.4025C26.1909 31.8504 27.5789 28.423 30.0595 25.9259L27.2216 23.1069ZM39.5088 18C34.8877 18 30.4549 19.852 27.2216 23.1069L30.0595 25.9259C32.542 23.4268 35.9534 22 39.5088 22V18ZM39.6527 18H39.5088V22H39.6527V18Z" fill="currentColor" />
</svg>