<svg viewBox="0 0 80 80" fill="none">
  <path fill-rule="evenodd" clip-rule="evenodd" d="M39.6527 20C43.7409 20 47.7158 21.6394 50.6663 24.5164C53.6195 27.396 55.344 31.3432 55.4098 35.4347L55.4127 35.6119C57.9954 35.9886 60.4099 37.1758 62.2944 39.0255L62.3765 39.1062C64.6943 41.3813 66 44.4926 66 47.7404C66 50.9881 64.6943 54.0995 62.3765 56.3746L62.2944 56.4552C59.9809 58.7261 56.8686 59.9983 53.6269 59.9983H53.5122H49.7896C49.7804 59.9994 49.7709 60 49.7614 60L31.8603 60C31.8386 60.0002 31.8168 60.0003 31.7951 60.0003H31.6604H26.4878H26.3731C23.1314 60.0003 20.0191 58.728 17.7056 56.4572L17.6235 56.3765C15.3057 54.1014 14 50.9901 14 47.7423C14 44.4946 15.3057 41.3832 17.6235 39.1081L17.7056 39.0275C19.5083 37.258 21.796 36.0948 24.2521 35.6675L24.2483 35.4347C24.1825 31.3432 25.78 27.396 28.6405 24.5164C31.4985 21.6394 35.4206 20 39.5088 20H39.6527Z" fill="currentColor" />
  <path d="M50.6663 24.5164L49.6191 25.5903L49.6191 25.5903L50.6663 24.5164ZM55.4098 35.4347L56.9096 35.4106V35.4106L55.4098 35.4347ZM55.4127 35.6119L53.9129 35.636L53.9334 36.912L55.1962 37.0962L55.4127 35.6119ZM62.2944 39.0255L63.3451 37.9551L63.3451 37.9551L62.2944 39.0255ZM62.3765 39.1062L61.3258 40.1767L61.3258 40.1767L62.3765 39.1062ZM62.3765 56.3746L61.3258 55.3041L61.3258 55.3041L62.3765 56.3746ZM62.2944 56.4552L63.3451 57.5257L63.3451 57.5257L62.2944 56.4552ZM49.7896 59.9983V58.4983H49.7015L49.6139 58.5087L49.7896 59.9983ZM31.8603 60V58.4999L31.8468 58.5001L31.8603 60ZM17.7056 56.4572L18.7564 55.3867L18.7564 55.3867L17.7056 56.4572ZM17.6235 56.3765L16.5727 57.447L16.5727 57.447L17.6235 56.3765ZM17.6235 39.1081L16.5727 38.0377L16.5727 38.0377L17.6235 39.1081ZM17.7056 39.0275L18.7564 40.098L18.7564 40.0979L17.7056 39.0275ZM24.2521 35.6675L24.5092 37.1453L25.7725 36.9255L25.7519 35.6433L24.2521 35.6675ZM24.2483 35.4347L22.7485 35.4588V35.4588L24.2483 35.4347ZM28.6405 24.5164L29.7047 25.5735L28.6405 24.5164ZM51.7135 23.4424C48.488 20.2973 44.1393 18.5 39.6527 18.5V21.5C43.3426 21.5 46.9436 22.9815 49.6191 25.5903L51.7135 23.4424ZM56.9096 35.4106C56.8373 30.9159 54.945 26.5935 51.7135 23.4424L49.6191 25.5903C52.294 28.1986 53.8507 31.7705 53.91 35.4588L56.9096 35.4106ZM56.9125 35.5878L56.9096 35.4106L53.91 35.4588L53.9129 35.636L56.9125 35.5878ZM63.3451 37.9551C61.2322 35.881 58.525 34.55 55.6292 34.1276L55.1962 37.0962C57.4659 37.4272 59.5876 38.4705 61.2436 40.096L63.3451 37.9551ZM63.4273 38.0357L63.3451 37.9551L61.2436 40.096L61.3258 40.1767L63.4273 38.0357ZM67.5 47.7404C67.5 44.09 66.0324 40.5929 63.4273 38.0357L61.3258 40.1767C63.3562 42.1697 64.5 44.8953 64.5 47.7404H67.5ZM63.4273 57.445C66.0324 54.8879 67.5 51.3908 67.5 47.7404H64.5C64.5 50.5855 63.3561 53.3111 61.3258 55.3041L63.4273 57.445ZM63.3451 57.5257L63.4273 57.445L61.3258 55.3041L61.2436 55.3848L63.3451 57.5257ZM53.6269 61.4983C57.2616 61.4983 60.7512 60.0719 63.3451 57.5257L61.2436 55.3848C59.2106 57.3803 56.4756 58.4983 53.6269 58.4983V61.4983ZM53.5122 61.4983H53.6269V58.4983H53.5122V61.4983ZM49.7896 61.4983H53.5122V58.4983H49.7896V61.4983ZM49.6139 58.5087C49.6626 58.5029 49.7119 58.5 49.7614 58.5V61.5C49.83 61.5 49.8981 61.4959 49.9654 61.488L49.6139 58.5087ZM49.7614 58.5L31.8603 58.5V61.5L49.7614 61.5V58.5ZM31.7951 61.5003C31.8212 61.5003 31.8474 61.5002 31.8737 61.4999L31.8468 58.5001C31.8297 58.5002 31.8124 58.5003 31.7951 58.5003V61.5003ZM31.6604 61.5003H31.7951V58.5003H31.6604V61.5003ZM26.4878 61.5003H31.6604V58.5003H26.4878V61.5003ZM26.3731 61.5003H26.4878V58.5003H26.3731V61.5003ZM16.6549 57.5276C19.2488 60.0738 22.7384 61.5003 26.3731 61.5003V58.5003C23.5244 58.5003 20.7894 57.3823 18.7564 55.3867L16.6549 57.5276ZM16.5727 57.447L16.6549 57.5277L18.7564 55.3867L18.6742 55.306L16.5727 57.447ZM12.5 47.7423C12.5 51.3927 13.9676 54.8898 16.5727 57.447L18.6742 55.306C16.6438 53.313 15.5 50.5874 15.5 47.7423H12.5ZM16.5727 38.0377C13.9676 40.5948 12.5 44.0919 12.5 47.7423H15.5C15.5 44.8972 16.6438 42.1716 18.6742 40.1786L16.5727 38.0377ZM16.6549 37.957L16.5727 38.0377L18.6742 40.1786L18.7564 40.098L16.6549 37.957ZM23.9949 34.1897C21.2412 34.6688 18.6761 35.973 16.6549 37.957L18.7564 40.0979C20.3405 38.543 22.3509 37.5208 24.5092 37.1453L23.9949 34.1897ZM22.7485 35.4588L22.7523 35.6916L25.7519 35.6433L25.7481 35.4106L22.7485 35.4588ZM27.5764 23.4592C24.4308 26.6258 22.6762 30.9629 22.7485 35.4588L25.7481 35.4106C25.6888 31.7236 27.1292 28.1663 29.7047 25.5735L27.5764 23.4592ZM39.5088 18.5C35.0209 18.5 30.7158 20.2988 27.5764 23.4592L29.7047 25.5735C32.2811 22.9799 35.8202 21.5 39.5088 21.5V18.5ZM39.6527 18.5H39.5088V21.5H39.6527V18.5Z" fill="currentColor" />
</svg>