<svg viewBox="0 0 80 80" fill="none">
  <path fill-rule="evenodd" clip-rule="evenodd" d="M45.7103 15.7249C42.2404 13.7571 37.9918 13.7571 34.5219 15.7249L34.3701 15.811C30.9126 17.7718 28.7759 21.4398 28.7759 25.4147C28.7759 28.5357 30.0932 31.4675 32.3329 33.5323C30.5546 32.376 28.4528 31.7313 26.26 31.7313H25.9126C21.9639 31.7313 18.3103 33.8218 16.3094 37.226C14.2614 40.7103 14.2614 45.0306 16.3094 48.5149C18.3103 51.9191 21.9639 54.0096 25.9126 54.0096H26.26C30.2087 54.0096 33.8623 51.9191 35.8632 48.5149C36.051 48.1953 36.2216 47.8687 36.375 47.5364V53.6157L35.0125 56.525C34.8302 56.9143 34.604 57.2815 34.3382 57.6194L31.2013 61.6069C30.9174 61.9678 30.763 62.4136 30.763 62.8728C30.763 64.0035 31.6797 64.9202 32.8105 64.9202H47.4221C48.5528 64.9202 49.4695 64.0035 49.4695 62.8728C49.4695 62.4136 49.3152 61.9678 49.0313 61.6069L46.4843 58.3692C45.8265 57.5331 45.2666 56.6244 44.8154 55.661L43.8576 53.6157V47.537C44.0109 47.8691 44.1814 48.1955 44.3691 48.5149C46.37 51.9191 50.0236 54.0096 53.9722 54.0096H54.3197C58.2684 54.0096 61.922 51.9191 63.9228 48.5149C65.9708 45.0306 65.9708 40.7103 63.9228 37.226C61.922 33.8218 58.2684 31.7313 54.3197 31.7313H53.9722C51.7795 31.7313 49.6777 32.376 47.8994 33.5323C50.1391 31.4675 51.4563 28.5357 51.4563 25.4147C51.4563 21.4398 49.3197 17.7718 45.8621 15.811L45.7103 15.7249Z" fill="currentColor" />
  <path d="M34.5219 15.7249L35.0152 16.5947V16.5947L34.5219 15.7249ZM45.7103 15.7249L45.217 16.5947L45.7103 15.7249ZM34.3701 15.811L33.8768 14.9411V14.9411L34.3701 15.811ZM32.3329 33.5323L31.7877 34.3706C32.2234 34.654 32.8035 34.5563 33.1225 34.1459C33.4414 33.7356 33.3928 33.1493 33.0107 32.7971L32.3329 33.5323ZM16.3094 37.226L15.4473 36.7193L16.3094 37.226ZM16.3094 48.5149L17.1715 48.0082H17.1715L16.3094 48.5149ZM35.8632 48.5149L35.0011 48.0082V48.0082L35.8632 48.5149ZM36.375 47.5364L37.375 47.5364C37.375 47.0668 37.0482 46.6604 36.5895 46.5597C36.1308 46.4589 35.6638 46.6909 35.467 47.1173L36.375 47.5364ZM36.375 53.6157L37.2806 54.0398C37.3428 53.9071 37.375 53.7623 37.375 53.6157L36.375 53.6157ZM35.0125 56.525L34.1069 56.1009L35.0125 56.525ZM34.3382 57.6194L33.5522 57.0011L34.3382 57.6194ZM31.2013 61.6069L31.9872 62.2252H31.9872L31.2013 61.6069ZM49.0313 61.6069L48.2453 62.2252L49.0313 61.6069ZM46.4843 58.3692L45.6983 58.9875V58.9875L46.4843 58.3692ZM44.8154 55.661L43.9098 56.0851L44.8154 55.661ZM43.8576 53.6157H42.8576C42.8576 53.7623 42.8898 53.9071 42.9519 54.0398L43.8576 53.6157ZM43.8576 47.537L44.7655 47.1179C44.5687 46.6915 44.1017 46.4595 43.643 46.5603C43.1843 46.661 42.8576 47.0674 42.8576 47.537H43.8576ZM44.3691 48.5149L43.507 49.0216H43.507L44.3691 48.5149ZM63.9228 48.5149L64.785 49.0216L63.9228 48.5149ZM63.9228 37.226L64.785 36.7193L63.9228 37.226ZM47.8994 33.5323L47.2216 32.7971C46.8395 33.1493 46.7909 33.7356 47.1098 34.1459C47.4287 34.5563 48.0088 34.6539 48.4445 34.3706L47.8994 33.5323ZM45.8621 15.811L46.3554 14.9411V14.9411L45.8621 15.811ZM35.0152 16.5947C38.1792 14.8005 42.0531 14.8004 45.217 16.5947L46.2036 14.855C42.4278 12.7137 37.8045 12.7137 34.0286 14.855L35.0152 16.5947ZM34.8634 16.6808L35.0152 16.5947L34.0286 14.855L33.8768 14.9411L34.8634 16.6808ZM29.7759 25.4147C29.7759 21.7999 31.7191 18.4641 34.8634 16.6808L33.8768 14.9411C30.1061 17.0795 27.7759 21.0798 27.7759 25.4147H29.7759ZM33.0107 32.7971C30.9738 30.9192 29.7759 28.2528 29.7759 25.4147H27.7759C27.7759 28.8186 29.2127 32.0158 31.6551 34.2675L33.0107 32.7971ZM32.878 32.6939C30.9403 31.434 28.6497 30.7313 26.26 30.7313L26.26 32.7313C28.2559 32.7313 30.1689 33.318 31.7877 34.3706L32.878 32.6939ZM26.26 30.7313H25.9126L25.9126 32.7313H26.26L26.26 30.7313ZM25.9126 30.7313C21.6094 30.7313 17.6278 33.0095 15.4473 36.7193L17.1715 37.7327C18.9928 34.6341 22.3184 32.7313 25.9126 32.7313L25.9126 30.7313ZM15.4473 36.7193C13.2155 40.5164 13.2155 45.2245 15.4473 49.0216L17.1715 48.0082C15.3074 44.8367 15.3074 40.9042 17.1715 37.7327L15.4473 36.7193ZM15.4473 49.0216C17.6278 52.7314 21.6094 55.0096 25.9126 55.0096V53.0096C22.3184 53.0096 18.9928 51.1068 17.1715 48.0082L15.4473 49.0216ZM25.9126 55.0096H26.26V53.0096H25.9126V55.0096ZM26.26 55.0096C30.5632 55.0096 34.5448 52.7314 36.7253 49.0216L35.0011 48.0082C33.1798 51.1068 29.8542 53.0096 26.26 53.0096V55.0096ZM36.7253 49.0216C36.9299 48.6735 37.1158 48.3176 37.283 47.9554L35.467 47.1173C35.3274 47.4198 35.1721 47.7172 35.0011 48.0082L36.7253 49.0216ZM37.375 53.6157V47.5364L35.375 47.5364V53.6157L37.375 53.6157ZM35.9182 56.9491L37.2806 54.0398L35.4694 53.1916L34.1069 56.1009L35.9182 56.9491ZM35.1241 58.2377C35.4371 57.8398 35.7035 57.4075 35.9182 56.9491L34.1069 56.1009C33.957 56.4211 33.7708 56.7232 33.5522 57.0011L35.1241 58.2377ZM31.9872 62.2252L35.1241 58.2377L33.5522 57.0011L30.4153 60.9886L31.9872 62.2252ZM31.763 62.8728C31.763 62.6379 31.842 62.4098 31.9872 62.2252L30.4153 60.9886C29.9928 61.5257 29.763 62.1893 29.763 62.8728H31.763ZM32.8105 63.9202C32.232 63.9202 31.763 63.4512 31.763 62.8728H29.763C29.763 64.5558 31.1274 65.9202 32.8105 65.9202V63.9202ZM47.4221 63.9202L32.8105 63.9202V65.9202H47.4221V63.9202ZM48.4695 62.8728C48.4695 63.4512 48.0006 63.9202 47.4221 63.9202V65.9202C49.1051 65.9202 50.4695 64.5558 50.4695 62.8728H48.4695ZM48.2453 62.2252C48.3905 62.4098 48.4695 62.6379 48.4695 62.8728H50.4695C50.4695 62.1893 50.2398 61.5257 49.8172 60.9886L48.2453 62.2252ZM45.6983 58.9875L48.2453 62.2252L49.8172 60.9886L47.2702 57.7509L45.6983 58.9875ZM43.9098 56.0851C44.3933 57.1176 44.9934 58.0914 45.6983 58.9875L47.2702 57.7509C46.6596 56.9748 46.1398 56.1313 45.721 55.2369L43.9098 56.0851ZM42.9519 54.0398L43.9098 56.0851L45.721 55.2369L44.7632 53.1916L42.9519 54.0398ZM42.8576 47.537V53.6157H44.8576V47.537H42.8576ZM45.2312 48.0082C45.0603 47.7173 44.905 47.4202 44.7655 47.1179L42.9496 47.9561C43.1167 48.3181 43.3025 48.6737 43.507 49.0216L45.2312 48.0082ZM53.9722 53.0096C50.378 53.0096 47.0525 51.1068 45.2312 48.0082L43.507 49.0216C45.6875 52.7314 49.6691 55.0096 53.9722 55.0096V53.0096ZM54.3197 53.0096H53.9722V55.0096H54.3197V53.0096ZM63.0607 48.0082C61.2395 51.1068 57.9139 53.0096 54.3197 53.0096V55.0096C58.6229 55.0096 62.6044 52.7314 64.785 49.0216L63.0607 48.0082ZM63.0607 37.7327C64.9249 40.9042 64.9249 44.8367 63.0607 48.0082L64.785 49.0216C67.0168 45.2245 67.0168 40.5164 64.785 36.7193L63.0607 37.7327ZM54.3197 32.7313C57.9139 32.7313 61.2395 34.6341 63.0607 37.7327L64.785 36.7193C62.6044 33.0095 58.6229 30.7313 54.3197 30.7313V32.7313ZM53.9722 32.7313H54.3197V30.7313H53.9722V32.7313ZM48.4445 34.3706C50.0634 33.318 51.9763 32.7313 53.9722 32.7313V30.7313C51.5826 30.7313 49.292 31.434 47.3543 32.6939L48.4445 34.3706ZM50.4563 25.4147C50.4563 28.2528 49.2585 30.9192 47.2216 32.7971L48.5772 34.2675C51.0196 32.0158 52.4563 28.8185 52.4563 25.4147H50.4563ZM45.3688 16.6808C48.5132 18.4641 50.4563 21.7999 50.4563 25.4147H52.4563C52.4563 21.0798 50.1261 17.0795 46.3554 14.9411L45.3688 16.6808ZM45.217 16.5947L45.3688 16.6808L46.3554 14.9411L46.2036 14.855L45.217 16.5947Z" fill="currentColor" />
</svg>