<svg viewBox="0 0 80 80" fill="none">
  <path fill-rule="evenodd" clip-rule="evenodd" d="M46.0191 18.8301C46.0809 19.6107 46.5962 20.2754 47.3136 20.5892C48.0214 20.8988 48.7158 21.2504 49.3933 21.6439C50.0481 22.0243 50.6767 22.4392 51.2775 22.8853C51.9102 23.3552 52.7495 23.4715 53.4603 23.1311L57.5672 21.1649C58.3522 20.7891 59.2959 20.9593 59.8578 21.6239C62.0233 24.1851 63.7057 27.1308 64.8191 30.2987C65.1049 31.112 64.7839 32.0043 64.0753 32.4953L60.3052 35.1078C59.6629 35.5529 59.3474 36.3305 59.4357 37.107C59.5231 37.8745 59.5676 38.6506 59.5676 39.4316C59.5676 40.2131 59.523 40.9895 59.4356 41.7575C59.3472 42.534 59.6628 43.3116 60.3051 43.7567L64.0732 46.368C64.7819 46.859 65.1029 47.7516 64.8169 48.5649C63.7026 51.7327 62.0194 54.6782 59.8531 57.239C59.2911 57.9033 58.3476 58.0734 57.5628 57.6977L53.4592 55.733C52.7484 55.3926 51.9092 55.5089 51.2764 55.9787C50.676 56.4246 50.0477 56.8391 49.3933 57.2193C48.7158 57.6129 48.0214 57.9644 47.3137 58.274C46.5963 58.5878 46.081 59.2525 46.0192 60.0331L45.6558 64.6234C45.5876 65.4853 44.9744 66.2132 44.1245 66.3718C40.8204 66.9882 37.4282 66.9886 34.124 66.3728C33.2739 66.2144 32.6605 65.4864 32.5923 64.6244L32.2288 60.0335C32.167 59.2528 31.6517 58.5882 30.9343 58.2744C30.2263 57.9647 29.5316 57.613 28.8539 57.2193C28.1996 56.8392 27.5714 56.4247 26.971 55.9789C26.3383 55.5091 25.4991 55.3929 24.7883 55.7332L20.6816 57.6994C19.8969 58.0751 18.9534 57.9051 18.3914 57.2409C16.225 54.6805 14.5416 51.7354 13.4271 48.568C13.1409 47.7546 13.4619 46.8619 14.1707 46.3708L17.9421 43.7573C18.5845 43.3122 18.9 42.5345 18.8116 41.758C18.7241 40.9899 18.6795 40.2133 18.6795 39.4316C18.6795 38.6504 18.7241 37.8742 18.8115 37.1064C18.8998 36.33 18.5843 35.5524 17.942 35.1073L14.1686 32.4924C13.46 32.0014 13.139 31.109 13.4249 30.2957C14.5386 27.1282 16.2211 24.1829 18.3867 21.6221C18.9486 20.9576 19.8923 20.7873 20.6772 21.1631L24.7872 23.1309C25.498 23.4712 26.3372 23.355 26.97 22.8851C27.5707 22.439 28.1992 22.0243 28.8539 21.6439C29.5316 21.2502 30.2263 20.8985 30.9344 20.5888C31.6518 20.2751 32.1672 19.6104 32.229 18.8298L32.5929 14.2328C32.6611 13.3707 33.2745 12.6428 34.1246 12.4844C37.4284 11.8688 40.8202 11.8691 44.1238 12.4854C44.9738 12.644 45.587 13.3719 45.6552 14.2338L46.0191 18.8301ZM44.2581 30.5381C41.0833 28.6937 37.1632 28.6937 33.9884 30.5381C30.8391 32.3677 28.9012 35.7898 28.9012 39.432C28.9012 43.0741 30.8391 46.4963 33.9884 48.3258C37.1632 50.1702 41.0833 50.1702 44.2581 48.3258C47.4073 46.4963 49.3453 43.0741 49.3453 39.432C49.3453 35.7898 47.4073 32.3677 44.2581 30.5381Z" fill="currentColor" />
  <path d="M49.3933 21.6439L48.6398 22.9409V22.9409L49.3933 21.6439ZM49.3933 57.2193L48.6398 55.9223L49.3933 57.2193ZM28.8539 57.2193L28.1004 58.5163H28.1004L28.8539 57.2193ZM28.8539 21.6439L28.1004 20.3469L28.1004 20.3469L28.8539 21.6439ZM33.9884 30.5381L33.2349 29.2411V29.2411L33.9884 30.5381ZM44.2581 30.5381L43.5046 31.8351L44.2581 30.5381ZM33.9884 48.3258L33.2349 49.6228L33.9884 48.3258ZM44.2581 48.3258L43.5046 47.0288L44.2581 48.3258ZM44.1238 12.4854L44.3989 11.0109L44.1238 12.4854ZM45.6552 14.2338L44.1599 14.3522L45.6552 14.2338ZM14.1686 32.4924L13.3142 33.7253L14.1686 32.4924ZM17.942 35.1073L17.0876 36.3402L17.942 35.1073ZM17.9421 43.7573L17.0878 42.5244L17.9421 43.7573ZM13.4271 48.568L12.0122 49.0659L13.4271 48.568ZM14.1707 46.3708L13.3163 45.1379L14.1707 46.3708ZM20.6816 57.6994L20.0339 56.3465L20.6816 57.6994ZM18.3914 57.2409L19.5365 56.272L18.3914 57.2409ZM26.971 55.9789L26.0768 57.1833L26.971 55.9789ZM24.7883 55.7332L24.1406 54.3803L24.7883 55.7332ZM32.2288 60.0335L30.7335 60.1518L32.2288 60.0335ZM30.9343 58.2744L30.3332 59.6487L30.9343 58.2744ZM32.5923 64.6244L31.097 64.7428L32.5923 64.6244ZM53.4592 55.733L52.8115 57.0859L53.4592 55.733ZM51.2764 55.9787L52.1707 57.183L51.2764 55.9787ZM59.8531 57.239L58.7079 56.2702L59.8531 57.239ZM57.5628 57.6977L58.2105 56.3447L57.5628 57.6977ZM64.8169 48.5649L63.4018 48.0672L64.8169 48.5649ZM60.3051 43.7567L61.1595 42.5238L60.3051 43.7567ZM32.5929 14.2328L31.0975 14.1144L32.5929 14.2328ZM60.3052 35.1078L61.1596 36.3407L60.3052 35.1078ZM59.4357 37.107L60.9261 36.9374L59.4357 37.107ZM30.9344 20.5888L30.3333 19.2145L30.9344 20.5888ZM32.229 18.8298L30.7336 18.7114L32.229 18.8298ZM57.5672 21.1649L56.9194 19.812L57.5672 21.1649ZM59.8578 21.6239L61.0033 20.6555L59.8578 21.6239ZM45.6558 64.6234L47.1512 64.7418L45.6558 64.6234ZM44.1245 66.3718L43.8494 64.8972L44.1245 66.3718ZM24.7872 23.1309L25.4349 21.778L24.7872 23.1309ZM26.97 22.8851L26.0757 21.6808L26.97 22.8851ZM51.2775 22.8853L50.3832 24.0896L51.2775 22.8853ZM53.4603 23.1311L54.1081 24.4841L53.4603 23.1311ZM47.3137 58.274L46.7126 56.8997L47.3137 58.274ZM46.0192 60.0331L47.5146 60.1514L46.0192 60.0331ZM20.6772 21.1631L21.3249 19.8102L20.6772 21.1631ZM47.3136 20.5892L46.7125 21.9635L47.3136 20.5892ZM46.0191 18.8301L47.5144 18.7118L46.0191 18.8301ZM50.1468 20.3469C49.4198 19.9246 48.6745 19.5472 47.9147 19.2149L46.7125 21.9635C47.3683 22.2503 48.0118 22.5761 48.6398 22.9409L50.1468 20.3469ZM52.1718 21.6811C51.5262 21.2016 50.8506 20.7558 50.1468 20.3469L48.6398 22.9409C49.2455 23.2929 49.8272 23.6767 50.3832 24.0896L52.1718 21.6811ZM56.9194 19.812L52.8126 21.7782L54.1081 24.4841L58.2149 22.5178L56.9194 19.812ZM66.2342 29.8014C65.0607 26.4624 63.2873 23.3568 61.0033 20.6555L58.7124 22.5924C60.7593 25.0134 62.3507 27.7993 63.4039 30.7961L66.2342 29.8014ZM61.1596 36.3407L64.9297 33.7282L63.221 31.2624L59.4509 33.8749L61.1596 36.3407ZM61.0676 39.4316C61.0676 38.5935 61.0198 37.7608 60.9261 36.9374L57.9454 37.2765C58.0263 37.9882 58.0676 38.7076 58.0676 39.4316H61.0676ZM60.926 41.9271C61.0198 41.1033 61.0676 40.2702 61.0676 39.4316H58.0676C58.0676 40.156 58.0263 40.8758 57.9452 41.5878L60.926 41.9271ZM64.9276 45.135L61.1595 42.5238L59.4507 44.9896L63.2189 47.6009L64.9276 45.135ZM60.9983 58.2078C63.2832 55.5068 65.0575 52.4015 66.2319 49.0626L63.4018 48.0672C62.3478 51.0639 60.7556 53.8496 58.7079 56.2702L60.9983 58.2078ZM52.8115 57.0859L56.915 59.0506L58.2105 56.3447L54.1069 54.38L52.8115 57.0859ZM50.1468 58.5163C50.8502 58.1077 51.5254 57.6621 52.1707 57.183L50.3822 54.7744C49.8265 55.187 49.2452 55.5706 48.6398 55.9223L50.1468 58.5163ZM47.9148 59.6483C48.6746 59.316 49.4198 58.9386 50.1468 58.5163L48.6398 55.9223C48.0118 56.2871 47.3683 56.6129 46.7126 56.8997L47.9148 59.6483ZM47.1512 64.7418L47.5146 60.1514L44.5239 59.9147L44.1605 64.505L47.1512 64.7418ZM33.8492 67.8474C37.3351 68.4971 40.9138 68.4967 44.3996 67.8463L43.8494 64.8972C40.727 65.4798 37.5212 65.4801 34.3988 64.8982L33.8492 67.8474ZM30.7335 60.1518L31.097 64.7428L34.0876 64.506L33.7242 59.9151L30.7335 60.1518ZM28.1004 58.5163C28.8276 58.9388 29.5732 59.3163 30.3332 59.6487L31.5353 56.9001C30.8793 56.6132 30.2356 56.2873 29.6074 55.9223L28.1004 58.5163ZM26.0768 57.1833C26.722 57.6623 27.3971 58.1078 28.1004 58.5163L29.6074 55.9223C29.0021 55.5707 28.4209 55.1872 27.8652 54.7746L26.0768 57.1833ZM21.3294 59.0523L25.4361 57.0862L24.1406 54.3803L20.0339 56.3465L21.3294 59.0523ZM12.0122 49.0659C13.1868 52.4043 14.9613 55.5092 17.2463 58.2097L19.5365 56.272C17.4887 53.8517 15.8964 51.0665 14.8421 48.0701L12.0122 49.0659ZM17.0878 42.5244L13.3163 45.1379L15.025 47.6037L18.7965 44.9902L17.0878 42.5244ZM17.1795 39.4316C17.1795 40.2704 17.2274 41.1036 17.3212 41.9277L20.302 41.5883C20.2209 40.8761 20.1795 40.1562 20.1795 39.4316H17.1795ZM17.3211 36.9368C17.2273 37.7605 17.1795 38.5933 17.1795 39.4316H20.1795C20.1795 38.7075 20.2208 37.9879 20.3018 37.2761L17.3211 36.9368ZM13.3142 33.7253L17.0876 36.3402L18.7963 33.8744L15.023 31.2595L13.3142 33.7253ZM17.2413 20.6535C14.9572 23.3545 13.1836 26.4596 12.0098 29.7981L14.84 30.7932C15.8935 27.7967 17.485 25.0113 19.532 22.5906L17.2413 20.6535ZM25.4349 21.778L21.3249 19.8102L20.0294 22.5161L24.1394 24.4838L25.4349 21.778ZM28.1004 20.3469C27.3967 20.7557 26.7212 21.2015 26.0757 21.6808L27.8643 24.0894C28.4202 23.6765 29.0017 23.2928 29.6074 22.9409L28.1004 20.3469ZM30.3333 19.2145C29.5733 19.5469 28.8276 19.9244 28.1004 20.3469L29.6074 22.9409C30.2356 22.576 30.8794 22.2501 31.5354 21.9631L30.3333 19.2145ZM31.0975 14.1144L30.7336 18.7114L33.7243 18.9481L34.0882 14.3512L31.0975 14.1144ZM44.3989 11.0109C40.9136 10.3607 37.3353 10.3603 33.8499 11.0098L34.3994 13.959C37.5215 13.3773 40.7268 13.3776 43.8488 13.96L44.3989 11.0109ZM47.5144 18.7118L47.1506 14.1154L44.1599 14.3522L44.5238 18.9485L47.5144 18.7118ZM34.7419 31.8351C37.4508 30.2614 40.7956 30.2614 43.5046 31.8351L45.0116 29.2411C41.3709 27.1261 36.8756 27.1261 33.2349 29.2411L34.7419 31.8351ZM30.4012 39.432C30.4012 36.3153 32.0624 33.3917 34.7419 31.8351L33.2349 29.2411C29.6158 31.3436 27.4012 35.2643 27.4012 39.432H30.4012ZM34.7419 47.0288C32.0624 45.4722 30.4012 42.5486 30.4012 39.432H27.4012C27.4012 43.5996 29.6158 47.5203 33.2349 49.6228L34.7419 47.0288ZM43.5046 47.0288C40.7956 48.6025 37.4508 48.6025 34.7419 47.0288L33.2349 49.6228C36.8756 51.7379 41.3709 51.7379 45.0116 49.6228L43.5046 47.0288ZM47.8453 39.432C47.8453 42.5486 46.184 45.4722 43.5046 47.0288L45.0116 49.6228C48.6307 47.5203 50.8453 43.5996 50.8453 39.432H47.8453ZM43.5046 31.8351C46.184 33.3917 47.8453 36.3153 47.8453 39.432H50.8453C50.8453 35.2643 48.6307 31.3436 45.0116 29.2411L43.5046 31.8351ZM43.8488 13.96C43.9859 13.9856 44.1414 14.118 44.1599 14.3522L47.1506 14.1154C47.0326 12.6257 45.9617 11.3024 44.3989 11.0109L43.8488 13.96ZM15.023 31.2595C14.8308 31.1263 14.7934 30.9257 14.84 30.7932L12.0098 29.7981C11.4845 31.2922 12.0892 32.8764 13.3142 33.7253L15.023 31.2595ZM20.3018 37.2761C20.4467 36.0034 19.9349 34.6633 18.7963 33.8744L17.0876 36.3402C17.2337 36.4414 17.353 36.6565 17.3211 36.9368L20.3018 37.2761ZM18.7965 44.9902C19.9351 44.2012 20.4469 42.861 20.302 41.5883L17.3212 41.9277C17.3531 42.208 17.2339 42.4231 17.0878 42.5244L18.7965 44.9902ZM14.8421 48.0701C14.7955 47.9376 14.8328 47.7369 15.025 47.6037L13.3163 45.1379C12.0911 45.987 11.4864 47.5716 12.0122 49.0659L14.8421 48.0701ZM20.0339 56.3465C19.8206 56.4486 19.6271 56.3791 19.5365 56.272L17.2463 58.2097C18.2797 59.4311 19.9731 59.7017 21.3294 59.0523L20.0339 56.3465ZM27.8652 54.7746C26.83 54.006 25.4009 53.7769 24.1406 54.3803L25.4361 57.0862C25.5974 57.0089 25.8466 57.0123 26.0768 57.1833L27.8652 54.7746ZM33.7242 59.9151C33.6146 58.5313 32.7104 57.414 31.5353 56.9001L30.3332 59.6487C30.593 59.7623 30.7195 59.9744 30.7335 60.1518L33.7242 59.9151ZM34.3988 64.8982C34.2616 64.8726 34.1061 64.7402 34.0876 64.506L31.097 64.7428C31.2149 66.2327 32.2862 67.5561 33.8492 67.8474L34.3988 64.8982ZM54.1069 54.38C52.8466 53.7766 51.4175 54.0057 50.3822 54.7744L52.1707 57.183C52.4009 57.012 52.6501 57.0087 52.8115 57.0859L54.1069 54.38ZM58.7079 56.2702C58.6173 56.3773 58.4238 56.4468 58.2105 56.3447L56.915 59.0506C58.2714 59.7 59.9649 59.4293 60.9983 58.2078L58.7079 56.2702ZM63.2189 47.6009C63.4111 47.7341 63.4485 47.9347 63.4018 48.0672L66.2319 49.0626C66.7574 47.5685 66.1527 45.984 64.9276 45.135L63.2189 47.6009ZM57.9452 41.5878C57.8004 42.8605 58.3122 44.2006 59.4507 44.9896L61.1595 42.5238C61.0133 42.4226 60.8941 42.2074 60.926 41.9271L57.9452 41.5878ZM34.0882 14.3512C34.1067 14.117 34.2622 13.9846 34.3994 13.959L33.8499 11.0098C32.2868 11.301 31.2155 12.6245 31.0975 14.1144L34.0882 14.3512ZM59.4509 33.8749C58.3124 34.6639 57.8006 36.0039 57.9454 37.2765L60.9261 36.9374C60.8942 36.6571 61.0135 36.442 61.1596 36.3407L59.4509 33.8749ZM31.5354 21.9631C32.7105 21.4492 33.6147 20.3319 33.7243 18.9481L30.7336 18.7114C30.7196 18.8888 30.5932 19.1009 30.3333 19.2145L31.5354 21.9631ZM63.4039 30.7961C63.4505 30.9286 63.4131 31.1292 63.221 31.2624L64.9297 33.7282C66.1546 32.8794 66.7593 31.2953 66.2342 29.8014L63.4039 30.7961ZM58.2149 22.5178C58.4282 22.4157 58.6218 22.4853 58.7124 22.5924L61.0033 20.6555C59.97 19.4334 58.2761 19.1624 56.9194 19.812L58.2149 22.5178ZM44.1605 64.505C44.142 64.7392 43.9865 64.8716 43.8494 64.8972L44.3996 67.8463C45.9623 67.5547 47.0332 66.2315 47.1512 64.7418L44.1605 64.505ZM24.1394 24.4838C25.3998 25.0873 26.829 24.8581 27.8643 24.0894L26.0757 21.6808C25.8454 21.8518 25.5962 21.8552 25.4349 21.778L24.1394 24.4838ZM50.3832 24.0896C51.4184 24.8584 52.8476 25.0876 54.1081 24.4841L52.8126 21.7782C52.6513 21.8554 52.4021 21.8521 52.1718 21.6811L50.3832 24.0896ZM46.7126 56.8997C45.5376 57.4137 44.6335 58.531 44.5239 59.9147L47.5146 60.1514C47.5286 59.974 47.655 59.7619 47.9148 59.6483L46.7126 56.8997ZM19.532 22.5906C19.6226 22.4835 19.8162 22.414 20.0294 22.5161L21.3249 19.8102C19.9684 19.1607 18.2746 19.4316 17.2413 20.6535L19.532 22.5906ZM47.9147 19.2149C47.6549 19.1013 47.5285 18.8892 47.5144 18.7118L44.5238 18.9485C44.6333 20.3322 45.5375 21.4495 46.7125 21.9635L47.9147 19.2149Z" fill="currentColor" />
</svg>