<svg viewBox="0 0 80 80" fill="none">
  <path fill-rule="evenodd" clip-rule="evenodd" d="M44.3278 21.3331C44.3717 21.5977 44.4288 21.8581 44.4986 22.1136L42.2384 24.9432L45.3445 28.7219L48.5571 27.0525C48.7949 27.1708 49.0401 27.2776 49.2919 27.3721C49.5434 27.4666 49.7979 27.5474 50.0545 27.6148L51.3745 30.9859L56.2 30.1853L56.3606 26.5685C56.5816 26.4219 56.7964 26.2632 57.0039 26.0926C57.2117 25.9218 57.4092 25.7415 57.5961 25.5528L61.1757 26.0952L62.8951 21.5159L59.8422 19.5678C59.8257 19.3035 59.7957 19.0386 59.7518 18.774C59.7077 18.5088 59.6504 18.2477 59.5804 17.9916L61.8408 15.1617L58.7348 11.3831L55.52 13.0535C55.283 12.9357 55.0386 12.8293 54.7876 12.735C54.5363 12.6407 54.282 12.5599 54.0257 12.4925L52.7047 9.11896L47.8793 9.91958L47.7185 13.5389C47.4977 13.6855 47.2831 13.8441 47.0757 14.0146C46.8686 14.1848 46.6717 14.3644 46.4854 14.5525L42.9035 14.0097L41.1841 18.589L44.2372 20.5372C44.2537 20.8022 44.2838 21.0678 44.3278 21.3331ZM53.0997 16.871C51.9682 16.4461 50.696 16.6572 49.7624 17.4247C48.8287 18.1922 48.3754 19.3995 48.5732 20.5918C48.771 21.7841 49.5899 22.7804 50.7214 23.2052C51.8529 23.63 53.1251 23.419 54.0588 22.6515C54.9925 21.884 55.4458 20.6767 55.2479 19.4844C55.0501 18.292 54.2312 17.2958 53.0997 16.871Z" fill="currentColor" />
  <path d="M44.4986 22.1136L45.6706 23.0497C45.9696 22.6754 46.0718 22.1807 45.9456 21.7186L44.4986 22.1136ZM42.2384 24.9432L41.0664 24.0071C40.6241 24.5607 40.6297 25.3483 41.0796 25.8957L42.2384 24.9432ZM45.3445 28.7219L44.1857 29.6744C44.6357 30.2218 45.4073 30.3796 46.0361 30.0529L45.3445 28.7219ZM48.5571 27.0525L49.2251 25.7094C48.796 25.496 48.2908 25.5005 47.8655 25.7214L48.5571 27.0525ZM49.2919 27.3721L48.7646 28.7764L48.7646 28.7764L49.2919 27.3721ZM50.0545 27.6148L51.4512 27.0679C51.2765 26.6217 50.8991 26.2858 50.4357 26.164L50.0545 27.6148ZM51.3745 30.9859L49.9778 31.5329C50.2361 32.1927 50.921 32.5817 51.62 32.4657L51.3745 30.9859ZM56.2 30.1853L56.4455 31.6651C57.1445 31.5491 57.667 30.9598 57.6985 30.2519L56.2 30.1853ZM56.3606 26.5685L55.5313 25.3186C55.132 25.5835 54.8833 26.0232 54.862 26.502L56.3606 26.5685ZM57.0039 26.0926L56.0514 24.9338L56.0514 24.9338L57.0039 26.0926ZM57.5961 25.5528L57.8208 24.0697C57.3469 23.9979 56.8673 24.1568 56.5301 24.4974L57.5961 25.5528ZM61.1757 26.0952L60.951 27.5783C61.6516 27.6844 62.3309 27.2858 62.58 26.6224L61.1757 26.0952ZM62.8951 21.5159L64.2994 22.0432C64.5485 21.3798 64.2993 20.6326 63.702 20.2514L62.8951 21.5159ZM59.8422 19.5678L58.3451 19.6613C58.3749 20.1394 58.6314 20.5746 59.0353 20.8323L59.8422 19.5678ZM59.5804 17.9916L58.4084 17.0554C58.1093 17.4299 58.0072 17.9247 58.1335 18.387L59.5804 17.9916ZM61.8408 15.1617L63.0129 16.0979C63.4551 15.5442 63.4496 14.7566 62.9996 14.2092L61.8408 15.1617ZM58.7348 11.3831L59.8935 10.4305C59.4436 9.88314 58.6719 9.72529 58.0431 10.052L58.7348 11.3831ZM55.52 13.0535L54.8525 14.3968C55.2815 14.61 55.7866 14.6054 56.2117 14.3845L55.52 13.0535ZM54.7876 12.735L55.3149 11.3308L55.3149 11.3308L54.7876 12.735ZM54.0257 12.4925L52.6289 13.0394C52.8036 13.4856 53.181 13.8215 53.6444 13.9432L54.0257 12.4925ZM52.7047 9.11896L54.1014 8.57205C53.8431 7.91223 53.1582 7.52321 52.4592 7.63919L52.7047 9.11896ZM47.8793 9.91958L47.6337 8.43981C46.9347 8.55579 46.4122 9.14513 46.3807 9.85303L47.8793 9.91958ZM47.7185 13.5389L48.5479 14.7888C48.9471 14.5239 49.1958 14.0842 49.2171 13.6055L47.7185 13.5389ZM47.0757 14.0146L46.1232 12.8558L46.1232 12.8558L47.0757 14.0146ZM46.4854 14.5525L46.2606 16.0355C46.7343 16.1073 47.2138 15.9485 47.551 15.6082L46.4854 14.5525ZM42.9035 14.0097L43.1282 12.5266C42.4276 12.4205 41.7483 12.8191 41.4992 13.4825L42.9035 14.0097ZM41.1841 18.589L39.7798 18.0617C39.5308 18.7251 39.7799 19.4723 40.3772 19.8535L41.1841 18.589ZM44.2372 20.5372L45.7343 20.4442C45.7046 19.9659 45.4481 19.5305 45.0441 19.2727L44.2372 20.5372ZM53.0997 16.871L53.627 15.4667L53.627 15.4667L53.0997 16.871ZM50.7214 23.2052L51.2487 21.8009L50.7214 23.2052ZM54.0588 22.6515L55.0113 23.8102L54.0588 22.6515ZM45.9456 21.7186C45.8893 21.5121 45.8431 21.3016 45.8076 21.0876L42.848 21.5786C42.9003 21.8938 42.9684 22.2041 43.0515 22.5086L45.9456 21.7186ZM43.4104 25.8794L45.6706 23.0497L43.3266 21.1774L41.0664 24.0071L43.4104 25.8794ZM46.5032 27.7693L43.3971 23.9907L41.0796 25.8957L44.1857 29.6744L46.5032 27.7693ZM47.8655 25.7214L44.6528 27.3908L46.0361 30.0529L49.2488 28.3835L47.8655 25.7214ZM49.8192 25.9678C49.6154 25.8914 49.4173 25.805 49.2251 25.7094L47.8891 28.3955C48.1726 28.5365 48.4647 28.6638 48.7646 28.7764L49.8192 25.9678ZM50.4357 26.164C50.2284 26.1096 50.0226 26.0442 49.8192 25.9678L48.7646 28.7764C49.0642 28.8889 49.3675 28.9852 49.6733 29.0656L50.4357 26.164ZM52.7713 30.439L51.4512 27.0679L48.6578 28.1617L49.9778 31.5329L52.7713 30.439ZM55.9544 28.7056L51.129 29.5062L51.62 32.4657L56.4455 31.6651L55.9544 28.7056ZM54.862 26.502L54.7014 30.1188L57.6985 30.2519L57.8591 26.635L54.862 26.502ZM56.0514 24.9338C55.8835 25.0718 55.7099 25.2001 55.5313 25.3186L57.1898 27.8184C57.4533 27.6436 57.7092 27.4545 57.9564 27.2513L56.0514 24.9338ZM56.5301 24.4974C56.3791 24.6499 56.2195 24.7956 56.0514 24.9338L57.9564 27.2513C58.2039 27.0479 58.4393 26.8331 58.662 26.6081L56.5301 24.4974ZM61.4005 24.6121L57.8208 24.0697L57.3713 27.0358L60.951 27.5783L61.4005 24.6121ZM61.4908 20.9887L59.7715 25.5679L62.58 26.6224L64.2994 22.0432L61.4908 20.9887ZM59.0353 20.8323L62.0882 22.7804L63.702 20.2514L60.6491 18.3033L59.0353 20.8323ZM58.272 19.0196C58.3075 19.2336 58.3318 19.4477 58.3451 19.6613L61.3393 19.4743C61.3196 19.1593 61.2838 18.8437 61.2315 18.5285L58.272 19.0196ZM58.1335 18.387C58.19 18.5939 58.2364 18.805 58.272 19.0196L61.2315 18.5285C61.1791 18.2126 61.1108 17.9015 61.0274 17.5962L58.1335 18.387ZM60.6688 14.2255L58.4084 17.0554L60.7525 18.9277L63.0129 16.0979L60.6688 14.2255ZM57.576 12.3356L60.6821 16.1142L62.9996 14.2092L59.8935 10.4305L57.576 12.3356ZM56.2117 14.3845L59.4264 12.7141L58.0431 10.052L54.8284 11.7225L56.2117 14.3845ZM54.2604 14.1393C54.4634 14.2155 54.6609 14.3016 54.8525 14.3968L56.1876 11.7102C55.905 11.5698 55.6139 11.443 55.3149 11.3308L54.2604 14.1393ZM53.6444 13.9432C53.8515 13.9977 54.0571 14.063 54.2604 14.1393L55.3149 11.3308C55.0156 11.2184 54.7125 11.1221 54.407 11.0418L53.6444 13.9432ZM51.308 9.66588L52.6289 13.0394L55.4224 11.9456L54.1014 8.57205L51.308 9.66588ZM48.1248 11.3993L52.9502 10.5987L52.4592 7.63919L47.6337 8.43981L48.1248 11.3993ZM49.2171 13.6055L49.3778 9.98612L46.3807 9.85303L46.22 13.4724L49.2171 13.6055ZM48.0282 15.1733C48.1959 15.0354 48.3694 14.9072 48.5479 14.7888L46.8892 12.2891C46.6259 12.4638 46.3702 12.6528 46.1232 12.8558L48.0282 15.1733ZM47.551 15.6082C47.7015 15.4563 47.8606 15.311 48.0282 15.1733L46.1232 12.8558C45.8765 13.0586 45.6419 13.2726 45.4198 13.4968L47.551 15.6082ZM42.6787 15.4928L46.2606 16.0355L46.7101 13.0694L43.1282 12.5266L42.6787 15.4928ZM42.5884 19.1162L44.3078 14.537L41.4992 13.4825L39.7798 18.0617L42.5884 19.1162ZM45.0441 19.2727L41.991 17.3245L40.3772 19.8535L43.4303 21.8017L45.0441 19.2727ZM45.8076 21.0876C45.772 20.873 45.7477 20.6583 45.7343 20.4442L42.7401 20.6303C42.7598 20.9462 42.7956 21.2627 42.848 21.5786L45.8076 21.0876ZM50.7149 18.5835C51.2345 18.1563 51.9427 18.0388 52.5725 18.2753L53.627 15.4667C51.9938 14.8535 50.1575 15.1582 48.8098 16.2659L50.7149 18.5835ZM50.053 20.3463C49.9429 19.6826 50.1952 19.0107 50.7149 18.5835L48.8098 16.2659C47.4622 17.3737 46.8079 19.1163 47.0934 20.8373L50.053 20.3463ZM51.2487 21.8009C50.6189 21.5644 50.1631 21.0099 50.053 20.3463L47.0934 20.8373C47.379 22.5583 48.561 23.9963 50.1942 24.6095L51.2487 21.8009ZM53.1063 21.4927C52.5866 21.9199 51.8785 22.0374 51.2487 21.8009L50.1942 24.6095C51.8274 25.2227 53.6636 24.918 55.0113 23.8102L53.1063 21.4927ZM53.7682 19.7299C53.8783 20.3935 53.626 21.0655 53.1063 21.4927L55.0113 23.8102C56.359 22.7024 57.0133 20.9598 56.7277 19.2388L53.7682 19.7299ZM52.5725 18.2753C53.2023 18.5117 53.6581 19.0662 53.7682 19.7299L56.7277 19.2388C56.4422 17.5179 55.2602 16.0799 53.627 15.4667L52.5725 18.2753Z" fill="currentColor" />
  <path fill-rule="evenodd" clip-rule="evenodd" d="M49.6418 53.5424C49.6508 53.9994 49.6875 54.4525 49.7507 54.8997L46.8108 57.1484L49.4739 62.4111L53.0249 61.3748C53.3491 61.6923 53.6942 61.9919 54.0589 62.2712C54.4224 62.5495 54.8002 62.8038 55.1899 63.0334L55.1151 66.731L60.8901 67.9301L62.2931 64.5094C62.7431 64.4539 63.192 64.3709 63.6374 64.26C64.0826 64.1491 64.5179 64.0119 64.9413 63.85L67.7847 66.2131L72.3229 62.4457L70.5228 59.2152C70.7594 58.8296 70.9738 58.4277 71.1644 58.0113C71.3555 57.5936 71.5198 57.1672 71.6573 56.7347L75.2792 55.9847L75.1632 50.0877L71.5124 49.4804C71.3585 49.0558 71.1783 48.6383 70.9719 48.2305C70.7647 47.8209 70.534 47.4269 70.2817 47.05L71.955 43.7479L67.2722 40.1619L64.5191 42.6394C64.0912 42.495 63.6526 42.3756 63.205 42.2827C62.7565 42.1895 62.3056 42.1244 61.8547 42.0865L60.3154 38.7174L54.592 40.1427L54.8125 43.8404C54.4321 44.0853 54.0645 44.3542 53.7122 44.6467C53.3605 44.9387 53.029 45.25 52.7188 45.5782L49.1251 44.6812L46.671 50.0446L49.6978 52.1764C49.6518 52.6275 49.6328 53.0836 49.6418 53.5424ZM61.914 47.6421C60.1881 47.2837 58.3929 47.7308 57.0366 48.8567C55.6803 49.9827 54.9105 51.665 54.9452 53.4274C54.9799 55.1898 55.8152 56.8405 57.2147 57.9123C58.6143 58.984 60.4257 59.3601 62.1362 58.9341C63.8467 58.5082 65.2701 57.3264 66.0036 55.7235C66.737 54.1206 66.7006 52.2709 65.9047 50.6981C65.1088 49.1253 63.64 48.0004 61.914 47.6421Z" fill="currentColor" />
  <path d="M49.7507 54.8997L50.662 56.0911C51.0924 55.7619 51.3118 55.2262 51.2359 54.6897L49.7507 54.8997ZM49.6418 53.5424L51.1415 53.5129L51.1415 53.5129L49.6418 53.5424ZM46.8108 57.1484L45.8994 55.957C45.3257 56.3958 45.1462 57.1812 45.4724 57.8257L46.8108 57.1484ZM49.4739 62.4111L48.1355 63.0884C48.4617 63.7329 49.2008 64.0534 49.8942 63.851L49.4739 62.4111ZM53.0249 61.3748L54.0744 60.3031C53.687 59.9237 53.1251 59.783 52.6046 59.9349L53.0249 61.3748ZM54.0589 62.2712L54.9709 61.0803L54.9709 61.0803L54.0589 62.2712ZM55.1899 63.0334L56.6896 63.0638C56.7005 62.5219 56.4183 62.0163 55.9514 61.7411L55.1899 63.0334ZM55.1151 66.731L53.6154 66.7007C53.6008 67.4229 54.1029 68.0529 54.8101 68.1997L55.1151 66.731ZM60.8901 67.9301L60.5851 69.3988C61.2923 69.5457 62.0038 69.1676 62.2779 68.4994L60.8901 67.9301ZM62.2931 64.5094L62.1094 63.0207C61.5714 63.0871 61.111 63.4387 60.9053 63.9402L62.2931 64.5094ZM64.9413 63.85L65.9001 62.6964C65.4832 62.3499 64.9118 62.2553 64.4054 62.449L64.9413 63.85ZM67.7847 66.2131L66.826 67.3667C67.3815 67.8284 68.1871 67.8286 68.7429 67.3673L67.7847 66.2131ZM72.3229 62.4457L73.281 63.5998C73.8367 63.1385 73.9848 62.3465 73.6332 61.7156L72.3229 62.4457ZM70.5228 59.2152L69.2442 58.431C68.9608 58.893 68.9487 59.4719 69.2125 59.9454L70.5228 59.2152ZM71.1644 58.0113L72.5284 58.6354L72.5284 58.6354L71.1644 58.0113ZM71.6573 56.7347L71.3531 55.2658C70.8222 55.3758 70.392 55.7636 70.2277 56.2803L71.6573 56.7347ZM75.2792 55.9847L75.5833 57.4535C76.2906 57.3071 76.7931 56.6773 76.7789 55.9552L75.2792 55.9847ZM75.1632 50.0877L76.6629 50.0582C76.6487 49.336 76.1218 48.7265 75.4093 48.608L75.1632 50.0877ZM71.5124 49.4804L70.1021 49.9914C70.2867 50.5009 70.7317 50.8711 71.2662 50.96L71.5124 49.4804ZM70.9719 48.2305L69.6336 48.9078L69.6336 48.9078L70.9719 48.2305ZM70.2817 47.05L68.9437 46.372C68.6987 46.8556 68.7336 47.4338 69.0351 47.8843L70.2817 47.05ZM71.955 43.7479L73.293 44.426C73.6195 43.7817 73.4405 42.9962 72.867 42.557L71.955 43.7479ZM67.2722 40.1619L68.1842 38.971C67.6107 38.5319 66.8057 38.5638 66.2688 39.0469L67.2722 40.1619ZM64.5191 42.6394L64.0394 44.0607C64.5528 44.2339 65.1197 44.1169 65.5225 43.7544L64.5191 42.6394ZM63.205 42.2827L63.51 40.814L63.51 40.814L63.205 42.2827ZM61.8547 42.0865L60.4904 42.7099C60.7156 43.2029 61.1892 43.536 61.7293 43.5813L61.8547 42.0865ZM60.3154 38.7174L61.6797 38.094C61.3795 37.4371 60.6538 37.0873 59.9529 37.2619L60.3154 38.7174ZM54.592 40.1427L54.2295 38.6872C53.5286 38.8617 53.0517 39.511 53.0947 40.232L54.592 40.1427ZM54.8125 43.8404L55.6243 45.1018C56.08 44.8085 56.3421 44.2921 56.3098 43.7511L54.8125 43.8404ZM53.7122 44.6467L54.6703 45.8008L53.7122 44.6467ZM52.7188 45.5782L52.3555 47.0336C52.8812 47.1648 53.4368 47.0023 53.809 46.6085L52.7188 45.5782ZM49.1251 44.6812L49.4884 43.2258C48.7876 43.0509 48.0616 43.4003 47.7611 44.0571L49.1251 44.6812ZM46.671 50.0446L45.307 49.4204C45.0065 50.0772 45.2167 50.855 45.8072 51.2709L46.671 50.0446ZM49.6978 52.1764L51.19 52.3286C51.245 51.7893 51.0047 51.2623 50.5615 50.9501L49.6978 52.1764ZM57.0366 48.8567L57.9947 50.0109L57.9947 50.0109L57.0366 48.8567ZM61.914 47.6421L61.6091 49.1108L61.6091 49.1108L61.914 47.6421ZM54.9452 53.4274L56.4449 53.3979L56.4449 53.3979L54.9452 53.4274ZM57.2147 57.9123L56.3028 59.1032L56.3028 59.1032L57.2147 57.9123ZM66.0036 55.7235L67.3676 56.3476L67.3676 56.3476L66.0036 55.7235ZM65.9047 50.6981L64.5663 51.3754L64.5663 51.3754L65.9047 50.6981ZM51.2359 54.6897C51.1811 54.3021 51.1493 53.9092 51.1415 53.5129L48.1421 53.5719C48.1523 54.0896 48.1938 54.603 48.2655 55.1097L51.2359 54.6897ZM47.7221 58.3398L50.662 56.0911L48.8394 53.7082L45.8994 55.957L47.7221 58.3398ZM50.8123 61.7338L48.1492 56.4711L45.4724 57.8257L48.1355 63.0884L50.8123 61.7338ZM52.6046 59.9349L49.0537 60.9712L49.8942 63.851L53.4451 62.8147L52.6046 59.9349ZM54.9709 61.0803C54.6546 60.838 54.3554 60.5783 54.0744 60.3031L51.9754 62.4465C52.3428 62.8063 52.7338 63.1457 53.147 63.4621L54.9709 61.0803ZM55.9514 61.7411C55.6137 61.5421 55.2862 61.3217 54.9709 61.0803L53.147 63.4621C53.5587 63.7774 53.9867 64.0655 54.4283 64.3257L55.9514 61.7411ZM56.6148 66.7614L56.6896 63.0638L53.6902 63.0031L53.6154 66.7007L56.6148 66.7614ZM61.195 66.4615L55.42 65.2624L54.8101 68.1997L60.5851 69.3988L61.195 66.4615ZM60.9053 63.9402L59.5023 67.3609L62.2779 68.4994L63.6809 65.0787L60.9053 63.9402ZM63.2749 62.8045C62.8887 62.9007 62.4995 62.9726 62.1094 63.0207L62.4768 65.9981C62.9868 65.9352 63.4954 65.8412 63.9999 65.7156L63.2749 62.8045ZM64.4054 62.449C64.0384 62.5894 63.661 62.7083 63.2749 62.8045L63.9999 65.7156C64.5042 65.59 64.9974 65.4345 65.4772 65.251L64.4054 62.449ZM68.7435 65.0595L65.9001 62.6964L63.9826 65.0036L66.826 67.3667L68.7435 65.0595ZM71.3648 61.2916L66.8266 65.059L68.7429 67.3673L73.281 63.5998L71.3648 61.2916ZM69.2125 59.9454L71.0126 63.1758L73.6332 61.7156L71.8331 58.4851L69.2125 59.9454ZM69.8004 57.3872C69.6351 57.7483 69.4492 58.0967 69.2442 58.431L71.8015 59.9995C72.0695 59.5624 72.3125 59.1072 72.5284 58.6354L69.8004 57.3872ZM70.2277 56.2803C70.1086 56.6553 69.9661 57.0249 69.8004 57.3872L72.5284 58.6354C72.7449 58.1622 72.931 57.6791 73.0868 57.189L70.2277 56.2803ZM74.9751 54.5159L71.3531 55.2658L71.9614 58.2035L75.5833 57.4535L74.9751 54.5159ZM73.6635 50.1172L73.7795 56.0142L76.7789 55.9552L76.6629 50.0582L73.6635 50.1172ZM71.2662 50.96L74.9171 51.5673L75.4093 48.608L71.7585 48.0007L71.2662 50.96ZM69.6336 48.9078C69.8126 49.2615 69.9687 49.6234 70.1021 49.9914L72.9226 48.9693C72.7483 48.4882 72.5441 48.0152 72.3103 47.5532L69.6336 48.9078ZM69.0351 47.8843C69.2538 48.211 69.4538 48.5526 69.6336 48.9078L72.3103 47.5532C72.0756 47.0892 71.8141 46.6428 71.5283 46.2158L69.0351 47.8843ZM70.617 43.0699L68.9437 46.372L71.6198 47.7281L73.293 44.426L70.617 43.0699ZM66.3602 41.3528L71.043 44.9389L72.867 42.557L68.1842 38.971L66.3602 41.3528ZM65.5225 43.7544L68.2756 41.2769L66.2688 39.0469L63.5157 41.5244L65.5225 43.7544ZM62.9001 43.7513C63.2882 43.8319 63.6685 43.9355 64.0394 44.0607L64.9988 41.2182C64.514 41.0545 64.0169 40.9193 63.51 40.814L62.9001 43.7513ZM61.7293 43.5813C62.1202 43.6141 62.5111 43.6706 62.9001 43.7513L63.51 40.814C63.0019 40.7085 62.4911 40.6347 61.9801 40.5918L61.7293 43.5813ZM58.951 39.3408L60.4904 42.7099L63.219 41.4632L61.6797 38.094L58.951 39.3408ZM54.9545 41.5983L60.6778 40.173L59.9529 37.2619L54.2295 38.6872L54.9545 41.5983ZM56.3098 43.7511L56.0893 40.0534L53.0947 40.232L53.3152 43.9297L56.3098 43.7511ZM54.6703 45.8008C54.9759 45.5472 55.2945 45.314 55.6243 45.1018L54.0007 42.5791C53.5696 42.8565 53.1532 43.1612 52.7541 43.4926L54.6703 45.8008ZM53.809 46.6085C54.0779 46.3239 54.3653 46.0541 54.6703 45.8008L52.7541 43.4926C52.3556 43.8234 51.98 44.176 51.6285 44.548L53.809 46.6085ZM48.7618 46.1365L52.3555 47.0336L53.082 44.1229L49.4884 43.2258L48.7618 46.1365ZM48.035 50.6687L50.4891 45.3053L47.7611 44.0571L45.307 49.4204L48.035 50.6687ZM50.5615 50.9501L47.5348 48.8182L45.8072 51.2709L48.834 53.4028L50.5615 50.9501ZM51.1415 53.5129C51.1337 53.115 51.1502 52.7196 51.19 52.3286L48.2055 52.0243C48.1534 52.5354 48.1319 53.0521 48.1421 53.5719L51.1415 53.5129ZM57.9947 50.0109C58.9998 49.1765 60.3301 48.8452 61.6091 49.1108L62.219 46.1734C60.0461 45.7222 57.786 46.2851 56.0785 47.7026L57.9947 50.0109ZM56.4449 53.3979C56.4192 52.0919 56.9897 50.8452 57.9947 50.0109L56.0785 47.7026C54.371 49.1201 53.4019 51.2381 53.4455 53.4569L56.4449 53.3979ZM58.1267 56.7213C57.0896 55.9271 56.4706 54.7039 56.4449 53.3979L53.4455 53.4569C53.4892 55.6757 54.5408 57.7539 56.3028 59.1032L58.1267 56.7213ZM61.7737 57.4786C60.5062 57.7943 59.1638 57.5155 58.1267 56.7213L56.3028 59.1032C58.0647 60.4524 60.3452 60.926 62.4987 60.3897L61.7737 57.4786ZM64.6396 55.0994C64.0961 56.2872 63.0413 57.1629 61.7737 57.4786L62.4987 60.3897C64.6521 59.8534 66.4442 58.3657 67.3676 56.3476L64.6396 55.0994ZM64.5663 51.3754C65.1561 52.5409 65.1831 53.9116 64.6396 55.0994L67.3676 56.3476C68.291 54.3296 68.2451 52.0009 67.2431 50.0208L64.5663 51.3754ZM61.6091 49.1108C62.8881 49.3763 63.9765 50.2098 64.5663 51.3754L67.2431 50.0208C66.2411 48.0407 64.3919 46.6246 62.219 46.1734L61.6091 49.1108Z" fill="currentColor" />
  <path fill-rule="evenodd" clip-rule="evenodd" d="M41.0701 31.2548C40.3073 30.1075 39.4141 29.0847 38.4199 28.1972L39.5687 22.6837L30.3006 19.24L27.5712 24.1646C26.2374 24.1872 24.8915 24.3786 23.5633 24.7499C23.3214 24.8175 23.0822 24.8905 22.8456 24.9687L18.6431 21.2152L11.0267 27.5197L13.9366 32.3623C13.1712 33.7455 12.6081 35.2502 12.2813 36.8334L6.90844 38.6031L8.56013 48.3513L14.2337 48.2521C15.051 49.6075 16.0692 50.8392 17.2576 51.901L16.0995 57.4595L25.3676 60.9032L28.1208 55.9358C29.7133 55.9072 31.2878 55.6391 32.7909 55.1463L37.0251 58.928L44.6415 52.6235L41.7257 47.7712C42.5109 46.3602 43.0663 44.8545 43.3897 43.3089L48.7598 41.5401L47.1081 31.7919L41.4715 31.8905C41.3432 31.6763 41.2094 31.4644 41.0701 31.2548ZM31.5741 37.2461C30.4332 35.53 28.317 34.7437 26.3324 35.2984C24.3477 35.8532 22.946 37.6228 22.8603 39.6817C22.7746 41.7407 24.0244 43.6207 25.9561 44.3384C27.8878 45.0562 30.062 44.4484 31.3415 42.8331C32.6211 41.2177 32.715 38.9622 31.5741 37.2461Z" fill="currentColor" />
  <path d="M38.4199 28.1972L36.9515 27.8913C36.8421 28.416 37.0211 28.9593 37.421 29.3163L38.4199 28.1972ZM41.0701 31.2548L42.3192 30.4244L42.3192 30.4244L41.0701 31.2548ZM39.5687 22.6837L41.0372 22.9897C41.1885 22.2636 40.7864 21.536 40.0912 21.2777L39.5687 22.6837ZM30.3006 19.24L30.8231 17.8339C30.1278 17.5756 29.3482 17.8642 28.9887 18.5128L30.3006 19.24ZM27.5712 24.1646L27.5966 25.6643C28.1327 25.6552 28.6232 25.3607 28.8831 24.8917L27.5712 24.1646ZM23.5633 24.7499L23.1595 23.3052L23.1595 23.3052L23.5633 24.7499ZM22.8456 24.9687L21.8464 26.0875C22.2467 26.4449 22.8073 26.5613 23.3168 26.3928L22.8456 24.9687ZM18.6431 21.2152L19.6423 20.0964C19.0891 19.6024 18.2579 19.5868 17.6866 20.0597L18.6431 21.2152ZM11.0267 27.5197L10.0702 26.3642C9.49886 26.8372 9.35892 27.6566 9.74094 28.2923L11.0267 27.5197ZM13.9366 32.3623L15.2491 33.0885C15.5084 32.62 15.4982 32.0487 15.2224 31.5896L13.9366 32.3623ZM12.2813 36.8334L12.7505 38.2581C13.2605 38.0901 13.6418 37.6624 13.7503 37.1366L12.2813 36.8334ZM6.90844 38.6031L6.43918 37.1784C5.73473 37.4104 5.30562 38.1224 5.42952 38.8537L6.90844 38.6031ZM8.56013 48.3513L7.08121 48.6019C7.20511 49.3332 7.84482 49.8641 8.58637 49.8511L8.56013 48.3513ZM14.2337 48.2521L15.5183 47.4775C15.242 47.0193 14.7425 46.7429 14.2075 46.7523L14.2337 48.2521ZM17.2576 51.901L18.7261 52.207C18.8354 51.6825 18.6566 51.1394 18.257 50.7825L17.2576 51.901ZM16.0995 57.4595L14.631 57.1535C14.4797 57.8796 14.8818 58.6072 15.577 58.8656L16.0995 57.4595ZM25.3676 60.9032L24.8451 62.3093C25.5403 62.5676 26.32 62.2791 26.6795 61.6304L25.3676 60.9032ZM28.1208 55.9358L28.0939 54.436C27.5583 54.4456 27.0685 54.7401 26.8088 55.2086L28.1208 55.9358ZM32.7909 55.1463L33.7902 54.0275C33.391 53.671 32.8322 53.5542 32.3237 53.7209L32.7909 55.1463ZM37.0251 58.928L36.0259 60.0468C36.5791 60.5408 37.4103 60.5564 37.9816 60.0835L37.0251 58.928ZM44.6415 52.6235L45.598 53.779C46.1693 53.3061 46.3093 52.4866 45.9273 51.8509L44.6415 52.6235ZM41.7257 47.7712L40.415 47.0418C40.1539 47.5109 40.1635 48.0837 40.44 48.5438L41.7257 47.7712ZM43.3897 43.3089L42.9205 41.8842C42.4119 42.0517 42.0312 42.4776 41.9215 43.0017L43.3897 43.3089ZM48.7598 41.5401L49.229 42.9649C49.9335 42.7328 50.3626 42.0208 50.2387 41.2896L48.7598 41.5401ZM47.1081 31.7919L48.587 31.5413C48.4631 30.8101 47.8234 30.2791 47.0818 30.2921L47.1081 31.7919ZM41.4715 31.8905L40.1847 32.6613C40.4605 33.1217 40.9612 33.3997 41.4977 33.3903L41.4715 31.8905ZM26.3324 35.2984L25.9286 33.8538L26.3324 35.2984ZM31.5741 37.2461L32.8232 36.4156L32.8232 36.4156L31.5741 37.2461ZM22.8603 39.6817L24.359 39.7441L22.8603 39.6817ZM31.3415 42.8331L30.1657 41.9017L30.1657 41.9017L31.3415 42.8331ZM37.421 29.3163C38.3208 30.1195 39.1297 31.0456 39.8209 32.0853L42.3192 30.4244C41.4849 29.1695 40.5073 28.0499 39.4188 27.0782L37.421 29.3163ZM38.1002 22.3778L36.9515 27.8913L39.8884 28.5032L41.0372 22.9897L38.1002 22.3778ZM29.7782 20.6461L39.0463 24.0898L40.0912 21.2777L30.8231 17.8339L29.7782 20.6461ZM28.8831 24.8917L31.6126 19.9672L28.9887 18.5128L26.2592 23.4374L28.8831 24.8917ZM23.9671 26.1945C25.1707 25.8581 26.3894 25.6848 27.5966 25.6643L27.5457 22.6648C26.0854 22.6895 24.6123 22.8992 23.1595 23.3052L23.9671 26.1945ZM23.3168 26.3928C23.5311 26.3219 23.7479 26.2558 23.9671 26.1945L23.1595 23.3052C22.895 23.3792 22.6333 23.459 22.3745 23.5446L23.3168 26.3928ZM17.6438 22.3339L21.8464 26.0875L23.8448 23.85L19.6423 20.0964L17.6438 22.3339ZM11.9831 28.6752L19.5995 22.3707L17.6866 20.0597L10.0702 26.3642L11.9831 28.6752ZM15.2224 31.5896L12.3124 26.7471L9.74094 28.2923L12.6509 33.1349L15.2224 31.5896ZM13.7503 37.1366C14.0461 35.7034 14.5559 34.3412 15.2491 33.0885L12.6242 31.636C11.7865 33.1498 11.17 34.7969 10.8123 36.5302L13.7503 37.1366ZM7.3777 40.0278L12.7505 38.2581L11.812 35.4087L6.43918 37.1784L7.3777 40.0278ZM10.0391 48.1008L8.38736 38.3525L5.42952 38.8537L7.08121 48.6019L10.0391 48.1008ZM14.2075 46.7523L8.53388 46.8516L8.58637 49.8511L14.26 49.7518L14.2075 46.7523ZM18.257 50.7825C17.1809 49.821 16.2587 48.7054 15.5183 47.4775L12.9492 49.0266C13.8433 50.5096 14.9575 51.8575 16.2582 53.0196L18.257 50.7825ZM17.5679 57.7655L18.7261 52.207L15.7891 51.5951L14.631 57.1535L17.5679 57.7655ZM25.89 59.4971L16.6219 56.0534L15.577 58.8656L24.8451 62.3093L25.89 59.4971ZM26.8088 55.2086L24.0556 60.1761L26.6795 61.6304L29.4327 56.663L26.8088 55.2086ZM32.3237 53.7209C30.962 54.1674 29.5358 54.4102 28.0939 54.436L28.1477 57.4356C29.8907 57.4043 31.6136 57.1108 33.2582 56.5716L32.3237 53.7209ZM38.0243 57.8093L33.7902 54.0275L31.7917 56.265L36.0259 60.0468L38.0243 57.8093ZM43.6851 51.468L36.0687 57.7725L37.9816 60.0835L45.598 53.779L43.6851 51.468ZM40.44 48.5438L43.3558 53.3961L45.9273 51.8509L43.0114 46.9986L40.44 48.5438ZM41.9215 43.0017C41.6286 44.4014 41.1257 45.7645 40.415 47.0418L43.0364 48.5006C43.896 46.9558 44.504 45.3076 44.8579 43.6161L41.9215 43.0017ZM48.2905 40.1154L42.9205 41.8842L43.859 44.7336L49.229 42.9649L48.2905 40.1154ZM45.6291 32.0425L47.2808 41.7907L50.2387 41.2896L48.587 31.5413L45.6291 32.0425ZM41.4977 33.3903L47.1343 33.2917L47.0818 30.2921L41.4452 30.3907L41.4977 33.3903ZM39.8209 32.0853C39.9472 32.2752 40.0685 32.4673 40.1847 32.6613L42.7583 31.1197C42.6179 30.8854 42.4716 30.6535 42.3192 30.4244L39.8209 32.0853ZM26.7362 36.7431C28.095 36.3632 29.5438 36.9016 30.325 38.0765L32.8232 36.4156C31.3226 34.1584 28.5391 33.1241 25.9286 33.8538L26.7362 36.7431ZM24.359 39.7441C24.4177 38.3344 25.3774 37.1229 26.7362 36.7431L25.9286 33.8538C23.3181 34.5835 21.4743 36.9111 21.3616 39.6194L24.359 39.7441ZM26.4786 42.9323C25.156 42.4409 24.3003 41.1538 24.359 39.7441L21.3616 39.6194C21.2489 42.3276 22.8928 44.8004 25.4337 45.7445L26.4786 42.9323ZM30.1657 41.9017C29.2897 43.0077 27.8011 43.4238 26.4786 42.9323L25.4337 45.7445C27.9745 46.6886 30.8343 45.8892 32.5174 43.7645L30.1657 41.9017ZM30.325 38.0765C31.1061 39.2515 31.0418 40.7958 30.1657 41.9017L32.5174 43.7645C34.2004 41.6397 34.3239 38.6729 32.8232 36.4156L30.325 38.0765Z" fill="currentColor" />
</svg>