<svg viewBox="0 0 80 80" fill="none">
  <path fill-rule="evenodd" clip-rule="evenodd" d="M18.1894 52.3071C17.7399 51.4874 17.3331 50.6401 16.9719 49.7681C14.3464 43.4296 14.3464 36.3077 16.9719 29.9691C19.5975 23.6306 24.6334 18.5946 30.9719 15.9691C37.3105 13.3436 44.4324 13.3436 50.7709 15.9691C57.1095 18.5946 62.1454 23.6306 64.7709 29.9691C67.3964 36.3077 67.3965 43.4296 64.7709 49.7681C62.1454 56.1067 57.1095 61.1426 50.7709 63.7681C44.4324 66.3936 37.3105 66.3936 30.9719 63.7681C30.0985 63.4063 29.2498 62.9988 28.4287 62.5483L14 66.7373L18.1894 52.3071Z" fill="currentColor" />
  <path d="M16.9719 49.7681L18.3578 49.1941L16.9719 49.7681ZM18.1894 52.3071L19.6299 52.7253C19.7407 52.3439 19.6956 51.9341 19.5047 51.5859L18.1894 52.3071ZM16.9719 29.9691L18.3578 30.5432H18.3578L16.9719 29.9691ZM30.9719 15.9691L31.546 17.355L30.9719 15.9691ZM50.7709 15.9691L51.345 14.5833L51.345 14.5833L50.7709 15.9691ZM64.7709 29.9691L66.1568 29.3951L64.7709 29.9691ZM50.7709 63.7681L51.345 65.1539H51.345L50.7709 63.7681ZM30.9719 63.7681L31.546 62.3823L30.9719 63.7681ZM28.4287 62.5483L29.1502 61.2332C28.8019 61.0421 28.392 60.997 28.0105 61.1078L28.4287 62.5483ZM14 66.7373L12.5595 66.3191C12.407 66.8444 12.5525 67.4111 12.9393 67.798C13.3262 68.1848 13.8929 68.3303 14.4182 68.1778L14 66.7373ZM15.5861 50.3421C15.9682 51.2646 16.3986 52.161 16.8742 53.0283L19.5047 51.5859C19.0812 50.8137 18.698 50.0155 18.3578 49.1941L15.5861 50.3421ZM15.5861 29.3951C12.8084 36.1012 12.8084 43.6361 15.5861 50.3421L18.3578 49.1941C15.8845 43.2231 15.8845 36.5142 18.3578 30.5432L15.5861 29.3951ZM30.3979 14.5833C23.6918 17.3611 18.3639 22.689 15.5861 29.3951L18.3578 30.5432C20.831 24.5722 25.575 19.8282 31.546 17.355L30.3979 14.5833ZM51.345 14.5833C44.6389 11.8056 37.104 11.8056 30.3979 14.5833L31.546 17.355C37.517 14.8817 44.2259 14.8817 50.1969 17.355L51.345 14.5833ZM66.1568 29.3951C63.379 22.689 58.0511 17.3611 51.345 14.5833L50.1969 17.355C56.1679 19.8282 60.9118 24.5722 63.3851 30.5432L66.1568 29.3951ZM66.1568 50.3421C68.9345 43.6361 68.9345 36.1012 66.1568 29.3951L63.3851 30.5432C65.8584 36.5142 65.8584 43.2231 63.3851 49.1941L66.1568 50.3421ZM51.345 65.1539C58.051 62.3762 63.379 57.0482 66.1568 50.3421L63.3851 49.1941C60.9118 55.1651 56.1679 59.909 50.1969 62.3823L51.345 65.1539ZM30.3979 65.1539C37.104 67.9317 44.6389 67.9317 51.345 65.1539L50.1969 62.3823C44.2259 64.8556 37.517 64.8556 31.546 62.3823L30.3979 65.1539ZM27.7072 63.8634C28.576 64.34 29.4739 64.7712 30.3979 65.1539L31.546 62.3823C30.7231 62.0415 29.9236 61.6575 29.1502 61.2332L27.7072 63.8634ZM28.0105 61.1078L13.5818 65.2968L14.4182 68.1778L28.8469 63.9888L28.0105 61.1078ZM15.4405 67.1555L19.6299 52.7253L16.7489 51.8889L12.5595 66.3191L15.4405 67.1555Z" fill="currentColor" />
</svg>