<svg viewBox="0 0 80 80" fill="none">
  <path d="M42.8 33.923C42.8 33.9442 42.7998 33.9655 42.7995 33.9867C42.7655 36.1664 40.9879 37.923 38.8 37.923H31.6C31.1982 37.923 30.9316 37.5943 30.9314 37.2514C30.9312 37.1096 30.9765 36.9653 31.0766 36.8408C30.3858 37.5805 30 38.556 30 39.571V63.0013C30 65.2104 31.7909 67.0013 34 67.0013H58C60.2091 67.0013 62 65.2104 62 63.0013L62 29.0013C62 26.792 60.2089 25.0011 57.9995 25.0013L44.4689 25.0028C43.451 25.003 42.4734 25.391 41.7335 26.0847C42.1566 25.758 42.8 26.0531 42.8 26.6146L42.8 33.923C42.8 33.9231 42.8 33.9228 42.8 33.923Z" fill="currentColor" />
  <path d="M27 39.5709V55.0009H22C19.7909 55.0009 18 53.21 18 51.0009L18 17.001C18 14.7917 19.7911 13.0007 22.0004 13.001L45.9993 13.0013C48.2087 13.0009 50 14.7918 50 17.0013V22.0022L44.4685 22.0028C42.6009 22.003 40.8108 22.7495 39.4964 24.0764L29.0271 34.6445C27.7285 35.9553 27 37.7258 27 39.5709Z" fill="currentColor" />
</svg>