<svg viewBox="0 0 80 80" fill="none">
  <path fill-rule="evenodd" clip-rule="evenodd" d="M29 18C29 16.3431 27.6569 15 26 15C24.3431 15 23 16.3431 23 18V23H29V18ZM29 29L29 51L51 51V57L26 57C24.3431 57 23 55.6569 23 54L23 29H29ZM57 57V51H62C63.6569 51 65 52.3431 65 54C65 55.6569 63.6569 57 62 57H57Z" fill="currentColor" />
  <path d="M23 23H21.5C21.5 23.8284 22.1716 24.5 23 24.5V23ZM29 23V24.5C29.8284 24.5 30.5 23.8284 30.5 23H29ZM29 29H30.5C30.5 28.1716 29.8284 27.5 29 27.5L29 29ZM29 51H27.5C27.5 51.8284 28.1716 52.5 29 52.5V51ZM51 51H52.5C52.5 50.1716 51.8284 49.5 51 49.5V51ZM51 57V58.5C51.8284 58.5 52.5 57.8284 52.5 57H51ZM23 29V27.5C22.1716 27.5 21.5 28.1716 21.5 29H23ZM57 51V49.5C56.1716 49.5 55.5 50.1716 55.5 51H57ZM57 57H55.5C55.5 57.8284 56.1716 58.5 57 58.5V57ZM26 16.5C26.8284 16.5 27.5 17.1716 27.5 18H30.5C30.5 15.5147 28.4853 13.5 26 13.5V16.5ZM24.5 18C24.5 17.1716 25.1716 16.5 26 16.5V13.5C23.5147 13.5 21.5 15.5147 21.5 18H24.5ZM24.5 23V18H21.5V23H24.5ZM23 24.5H29V21.5H23V24.5ZM27.5 18V23H30.5V18H27.5ZM27.5 29L27.5 51H30.5L30.5 29H27.5ZM29 52.5L51 52.5V49.5L29 49.5V52.5ZM52.5 57V51H49.5V57H52.5ZM51 55.5L26 55.5V58.5L51 58.5V55.5ZM26 55.5C25.1716 55.5 24.5 54.8284 24.5 54H21.5C21.5 56.4853 23.5147 58.5 26 58.5V55.5ZM24.5 54L24.5 29H21.5L21.5 54H24.5ZM29 27.5H23V30.5H29L29 27.5ZM55.5 51V57H58.5V51H55.5ZM57 52.5H62V49.5H57V52.5ZM62 52.5C62.8284 52.5 63.5 53.1716 63.5 54H66.5C66.5 51.5147 64.4853 49.5 62 49.5V52.5ZM63.5 54C63.5 54.8284 62.8284 55.5 62 55.5V58.5C64.4853 58.5 66.5 56.4853 66.5 54H63.5ZM62 55.5H57V58.5H62V55.5Z" fill="currentColor" />
  <path fill-rule="evenodd" clip-rule="evenodd" d="M54 65C52.3431 65 51 63.6569 51 62L51 29L18 29C16.3431 29 15 27.6569 15 26C15 24.3431 16.3431 23 18 23L54 23C55.6569 23 57 24.3431 57 26L57 62C57 63.6569 55.6569 65 54 65Z" fill="currentColor" />
  <path d="M51 29H52.5C52.5 28.1716 51.8284 27.5 51 27.5V29ZM49.5 62C49.5 64.4853 51.5147 66.5 54 66.5V63.5C53.1716 63.5 52.5 62.8284 52.5 62H49.5ZM49.5 29L49.5 62H52.5L52.5 29H49.5ZM18 30.5L51 30.5V27.5L18 27.5V30.5ZM13.5 26C13.5 28.4853 15.5147 30.5 18 30.5V27.5C17.1716 27.5 16.5 26.8284 16.5 26H13.5ZM18 21.5C15.5147 21.5 13.5 23.5147 13.5 26H16.5C16.5 25.1716 17.1716 24.5 18 24.5V21.5ZM54 21.5L18 21.5V24.5L54 24.5V21.5ZM58.5 26C58.5 23.5147 56.4853 21.5 54 21.5V24.5C54.8284 24.5 55.5 25.1716 55.5 26H58.5ZM58.5 62L58.5 26H55.5L55.5 62H58.5ZM54 66.5C56.4853 66.5 58.5 64.4853 58.5 62H55.5C55.5 62.8284 54.8284 63.5 54 63.5V66.5Z" fill="currentColor" />
  <path d="M26 54L62 18" stroke="currentColor" stroke-width="6" stroke-linecap="round" stroke-linejoin="round" />
</svg>