<svg viewBox="0 0 80 80" fill="none">
  <path d="M27 16C27 14.3431 25.6569 13 24 13C22.3431 13 21 14.3431 21 16H27ZM21 64C21 65.6569 22.3431 67 24 67C25.6569 67 27 65.6569 27 64H21ZM24.4469 13C22.7901 13 21.4469 14.3431 21.4469 16C21.4469 17.6569 22.7901 19 24.4469 19V13ZM24.4469 61C22.7901 61 21.4469 62.3431 21.4469 64C21.4469 65.6569 22.7901 67 24.4469 67V61ZM49.0653 56.9616L51.1996 59.0699H51.1996L49.0653 56.9616ZM49.0653 23.0384L51.1996 20.9301L49.0653 23.0384ZM21 16V16.5H27V16H21ZM21 16.5V38H27V16.5H21ZM21 38V63.5H27V38H21ZM21 63.5V64H27V63.5H21ZM53.0001 39.8538V40.1462H59.0001V39.8538H53.0001ZM24.4469 19H32.2929V13H24.4469V19ZM32.2929 61H24.4469V67H32.2929V61ZM46.931 54.8534C43.0719 58.76 37.7644 61 32.2929 61V67C39.3881 67 46.2272 64.1036 51.1996 59.0699L46.931 54.8534ZM53.0001 40.1462C53.0001 45.6229 50.7934 50.9432 46.931 54.8534L51.1996 59.0699C56.1577 54.0506 59.0001 47.2209 59.0001 40.1462H53.0001ZM46.931 25.1466C50.7934 29.0568 53.0001 34.377 53.0001 39.8538H59.0001C59.0001 32.7791 56.1577 25.9494 51.1996 20.9301L46.931 25.1466ZM51.1996 20.9301C46.2272 15.8964 39.3881 13 32.2929 13V19C37.7644 19 43.0719 21.24 46.931 25.1466L51.1996 20.9301Z" fill="currentColor" />
</svg>