<svg viewBox="0 0 80 80" fill="none">
  <path fill-rule="evenodd" clip-rule="evenodd" d="M8 40.0549V23.9451C8.32833 23.9814 8.66199 24 9 24C13.9706 24 18 19.9706 18 15C18 14.662 17.9814 14.3283 17.9451 14H62.0549C62.0186 14.3283 62 14.662 62 15C62 19.9706 66.0294 24 71 24C71.338 24 71.6717 23.9814 72 23.9451V40.0549C71.6717 40.0186 71.338 40 71 40C66.0294 40 62 44.0294 62 49C62 49.338 62.0186 49.6717 62.0549 50H17.9451C17.9814 49.6717 18 49.338 18 49C18 44.0294 13.9706 40 9 40C8.66199 40 8.32833 40.0186 8 40.0549ZM44.9839 23.66C42.1814 21.5026 38.2776 21.5026 35.4751 23.66C33.5583 25.1355 32.4353 27.4173 32.4353 29.8362V34.1638C32.4353 36.5827 33.5583 38.8645 35.4751 40.34C38.2776 42.4974 42.1814 42.4974 44.9839 40.34C46.9007 38.8645 48.0237 36.5827 48.0237 34.1638V29.8362C48.0237 27.4173 46.9007 25.1355 44.9839 23.66ZM19.4152 29.22C20.3494 28.5009 21.6506 28.5009 22.5848 29.22C23.2237 29.7118 23.5981 30.4724 23.5981 31.2787V32.7213C23.5981 33.5276 23.2237 34.2882 22.5848 34.78C21.6506 35.4991 20.3494 35.4991 19.4152 34.78C18.7763 34.2882 18.4019 33.5276 18.4019 32.7213V31.2787C18.4019 30.4724 18.7763 29.7118 19.4152 29.22ZM60.5848 29.22C59.6506 28.5009 58.3494 28.5009 57.4152 29.22C56.7763 29.7118 56.4019 30.4724 56.4019 31.2787V32.7213C56.4019 33.5276 56.7763 34.2882 57.4152 34.78C58.3494 35.4991 59.6506 35.4991 60.5848 34.78C61.2237 34.2882 61.5981 33.5276 61.5981 32.7213V31.2787C61.5981 30.4724 61.2237 29.7118 60.5848 29.22Z" fill="currentColor" />
  <path d="M8 58H72" stroke="currentColor" stroke-width="5" stroke-linecap="round" stroke-linejoin="round" />
  <path d="M8 66H72" stroke="currentColor" stroke-width="5" stroke-linecap="round" stroke-linejoin="round" />
  <path d="M8 16C8 14.8954 8.89543 14 10 14H70C71.1046 14 72 14.8954 72 16V48C72 49.1046 71.1046 50 70 50H10C8.89543 50 8 49.1046 8 48V16Z" stroke="currentColor" stroke-width="5" stroke-linecap="round" stroke-linejoin="round" />
</svg>