<svg viewBox="0 0 80 80" fill="none">
  <path fill-rule="evenodd" clip-rule="evenodd" d="M8 48.0549V31.9451C8.32833 31.9814 8.66199 32 9 32C13.9706 32 18 27.9706 18 23C18 22.662 17.9814 22.3283 17.9451 22H62.0549C62.0186 22.3283 62 22.662 62 23C62 27.9706 66.0294 32 71 32C71.338 32 71.6717 31.9814 72 31.9451V48.0549C71.6717 48.0186 71.338 48 71 48C66.0294 48 62 52.0294 62 57C62 57.338 62.0186 57.6717 62.0549 58H17.9451C17.9814 57.6717 18 57.338 18 57C18 52.0294 13.9706 48 9 48C8.66199 48 8.32833 48.0186 8 48.0549ZM44.9839 31.66C42.1814 29.5026 38.2776 29.5026 35.4751 31.66C33.5583 33.1355 32.4353 35.4173 32.4353 37.8362V42.1638C32.4353 44.5827 33.5583 46.8645 35.4751 48.34C38.2776 50.4974 42.1814 50.4974 44.9839 48.34C46.9007 46.8645 48.0237 44.5827 48.0237 42.1638V37.8362C48.0237 35.4173 46.9007 33.1355 44.9839 31.66ZM19.4152 37.22C20.3494 36.5009 21.6506 36.5009 22.5848 37.22C23.2237 37.7118 23.5981 38.4724 23.5981 39.2787V40.7213C23.5981 41.5276 23.2237 42.2882 22.5848 42.78C21.6506 43.4991 20.3494 43.4991 19.4152 42.78C18.7763 42.2882 18.4019 41.5276 18.4019 40.7213V39.2787C18.4019 38.4724 18.7763 37.7118 19.4152 37.22ZM60.5848 37.22C59.6506 36.5009 58.3494 36.5009 57.4152 37.22C56.7763 37.7118 56.4019 38.4724 56.4019 39.2787V40.7213C56.4019 41.5276 56.7763 42.2882 57.4152 42.78C58.3494 43.4991 59.6506 43.4991 60.5848 42.78C61.2237 42.2882 61.5981 41.5276 61.5981 40.7213V39.2787C61.5981 38.4724 61.2237 37.7118 60.5848 37.22Z" fill="currentColor" />
  <path fill-rule="evenodd" clip-rule="evenodd" d="M5.5 24C5.5 21.5147 7.51472 19.5 10 19.5H70C72.4853 19.5 74.5 21.5147 74.5 24V56C74.5 58.4853 72.4853 60.5 70 60.5H10C7.51472 60.5 5.5 58.4853 5.5 56V24ZM10.5 24.5V55.5H69.5V24.5H10.5Z" fill="currentColor" />
</svg>