<svg viewBox="0 0 80 80" fill="none">
  <path fill-rule="evenodd" clip-rule="evenodd" d="M18 58C18 55.7909 19.7909 54 22 54L24 54L56 54L58 54C60.2091 54 62 55.7909 62 58L62 62C62 64.2091 60.2091 66 58 66L56 66L24 66L22 66C19.7909 66 18 64.2091 18 62L18 58Z" fill="currentColor" />
  <path d="M24 54L24 52.5L24 54ZM56 54L56 52.5L56 54ZM56 66L56 64.5L56 66ZM24 66L24 64.5L24 66ZM62 58L63.5 58L62 58ZM22 54L22 55.5L22 54ZM24 52.5L22 52.5L22 55.5L24 55.5L24 52.5ZM56 52.5L24 52.5L24 55.5L56 55.5L56 52.5ZM58 52.5L56 52.5L56 55.5L58 55.5L58 52.5ZM63.5 62L63.5 58L60.5 58L60.5 62L63.5 62ZM56 67.5L58 67.5L58 64.5L56 64.5L56 67.5ZM24 67.5L56 67.5L56 64.5L24 64.5L24 67.5ZM22 67.5L24 67.5L24 64.5L22 64.5L22 67.5ZM16.5 58L16.5 62L19.5 62L19.5 58L16.5 58ZM22 64.5C20.6193 64.5 19.5 63.3807 19.5 62L16.5 62C16.5 65.0376 18.9624 67.5 22 67.5L22 64.5ZM60.5 62C60.5 63.3807 59.3807 64.5 58 64.5L58 67.5C61.0376 67.5 63.5 65.0376 63.5 62L60.5 62ZM58 55.5C59.3807 55.5 60.5 56.6193 60.5 58L63.5 58C63.5 54.9624 61.0376 52.5 58 52.5L58 55.5ZM22 52.5C18.9624 52.5 16.5 54.9624 16.5 58L19.5 58C19.5 56.6193 20.6193 55.5 22 55.5L22 52.5Z" fill="currentColor" />
  <path d="M38.4 16.1333C39.2 15.0667 40.8 15.0667 41.6 16.1333L61.6 42.8C62.5889 44.1185 61.6481 46 60 46L20 46C18.3519 46 17.4111 44.1185 18.4 42.8L38.4 16.1333Z" fill="currentColor" stroke="currentColor" stroke-width="3" stroke-linecap="square" stroke-linejoin="round" />
</svg>