<svg viewBox="0 0 80 80" fill="none">
  <path fill-rule="evenodd" clip-rule="evenodd" d="M12.0155 36.1406C12.0069 36.1406 12 36.1337 12 36.1252V33.9804C12 32.8127 12.5103 31.7033 13.3968 30.9433L34.7937 12.6032C37.7896 10.0353 42.2104 10.0353 45.2063 12.6032L66.6032 30.9433C67.4897 31.7033 68 32.8127 68 33.9804V36.1252C68 36.1337 67.9931 36.1406 67.9845 36.1406C67.9931 36.1406 68 36.1476 68 36.1561V37.8203C67.4238 37.82 66.8448 38.0178 66.373 38.4222L43.5794 57.9596C41.5197 59.7251 38.4803 59.7251 36.4206 57.9596L13.627 38.4222C13.1552 38.0178 12.5762 37.82 12 37.8203V36.1561C12 36.1476 12.0069 36.1406 12.0155 36.1406ZM12 43.613L12 56.3203L12 70.3203C12 72.5294 13.7909 74.3203 16 74.3203L64 74.3203C66.2091 74.3203 68 72.5294 68 70.3203V56.3203V43.613L46.8333 61.7559C42.9012 65.1263 37.0988 65.1263 33.1667 61.7559L12 43.613Z" fill="currentColor" />
</svg>