<svg viewBox="0 0 80 80" fill="none">
  <path fill-rule="evenodd" clip-rule="evenodd" d="M13.1716 66.8285L66.8285 13.1716C66.1046 12.4477 65.1046 12 64 12H16C13.7909 12 12 13.7909 12 16V64C12 65.1046 12.4477 66.1046 13.1716 66.8285ZM19.9999 25C18.3431 25 16.9999 26.3431 16.9999 28C16.9999 29.6569 18.3431 31 19.9999 31H27.2726H28.7272H35.9999C37.6568 31 38.9999 29.6569 38.9999 28C38.9999 26.3431 37.6568 25 35.9999 25L28.7272 25L27.2726 25H19.9999Z" fill="currentColor" />
  <path d="M66.8285 13.1716L68.9498 15.293C70.1214 14.1214 70.1214 12.2219 68.9498 11.0504L66.8285 13.1716ZM13.1716 66.8285L11.0504 68.9498C12.2219 70.1214 14.1214 70.1214 15.293 68.9498L13.1716 66.8285ZM64.7072 11.0503L11.0503 64.7072L15.293 68.9498L68.9498 15.293L64.7072 11.0503ZM15.2929 64.7071C15.1086 64.5229 15 64.277 15 64H9C9 65.9322 9.78683 67.6864 11.0504 68.9498L15.2929 64.7071ZM15 64V16H9V64H15ZM15 16C15 15.4477 15.4477 15 16 15V9C12.134 9 9 12.134 9 16H15ZM16 15H64V9H16V15ZM64 15C64.277 15 64.5229 15.1086 64.7071 15.2929L68.9498 11.0504C67.6864 9.78683 65.9322 9 64 9V15Z" fill="currentColor" />
  <path d="M66.8282 13.1716L68.9496 11.0503C68.387 10.4877 67.6239 10.1716 66.8283 10.1716C66.0326 10.1716 65.2695 10.4877 64.7069 11.0503L66.8282 13.1716ZM13.1714 66.8285L11.0501 64.7072C10.4875 65.2698 10.1714 66.0329 10.1714 66.8285C10.1714 67.6242 10.4875 68.3872 11.0501 68.9498L13.1714 66.8285ZM64.7069 15.2929C64.8911 15.4772 64.9998 15.723 64.9998 16H70.9998C70.9998 14.0679 70.213 12.3138 68.9496 11.0503L64.7069 15.2929ZM64.9998 16V64H70.9998V16H64.9998ZM64.9998 64C64.9998 64.5523 64.552 65 63.9998 65V71C67.8658 71 70.9998 67.866 70.9998 64H64.9998ZM63.9998 65H15.9998V71H63.9998V65ZM15.9998 65C15.7228 65 15.4769 64.8914 15.2927 64.7071L11.0501 68.9498C12.3136 70.2133 14.0676 71 15.9998 71V65ZM15.2927 68.9498L68.9496 15.293L64.7069 11.0503L11.0501 64.7072L15.2927 68.9498Z" fill="currentColor" />
  <path d="M43.9141 52L51.1868 52L52.6413 52L59.9141 52" stroke="currentColor" stroke-width="6" stroke-linecap="round" stroke-linejoin="round" />
  <path d="M51.9141 44L51.9141 51.2727L51.9141 52.7273L51.9141 60" stroke="currentColor" stroke-width="6" stroke-linecap="round" stroke-linejoin="round" />
</svg>