<svg viewBox="0 0 80 80" fill="none">
  <path d="M56 19C57.6569 19 59 17.6569 59 16C59 14.3431 57.6569 13 56 13V19ZM24 16V13C22.3431 13 21 14.3431 21 16H24ZM21 64C21 65.6569 22.3431 67 24 67C25.6569 67 27 65.6569 27 64H21ZM24 37C22.3431 37 21 38.3431 21 40C21 41.6569 22.3431 43 24 43V37ZM49 43C50.6569 43 52 41.6569 52 40C52 38.3431 50.6569 37 49 37V43ZM56 13H24V19H56V13ZM21 16V16.5H27V16H21ZM21 63.5V64H27V63.5H21ZM21 16.5V40H27V16.5H21ZM21 40V63.5H27V40H21ZM24 43H49V37H24V43Z" fill="currentColor" />
</svg>