<svg viewBox="0 0 80 80" fill="none">
  <path fill-rule="evenodd" clip-rule="evenodd" d="M68 34L40 16L12 34L12 64H22L22 40L58 40V64H68V34ZM43.8471 30.25C44.3886 28.5833 43.7954 26.7575 42.3776 25.7275C40.9599 24.6974 39.0401 24.6974 37.6224 25.7275C36.2046 26.7575 35.6114 28.5833 36.1529 30.25C36.6944 31.9167 38.2476 33.0451 40 33.0451C41.7524 33.0451 43.3056 31.9167 43.8471 30.25Z" fill="currentColor" />
  <path d="M40 16L40.8111 14.7382C40.317 14.4206 39.683 14.4206 39.1889 14.7382L40 16ZM68 34H69.5C69.5 33.4896 69.2405 33.0142 68.8111 32.7382L68 34ZM12 34L11.1889 32.7382C10.7595 33.0142 10.5 33.4896 10.5 34H12ZM12 64H10.5C10.5 64.8284 11.1716 65.5 12 65.5V64ZM22 64V65.5C22.8284 65.5 23.5 64.8284 23.5 64H22ZM22 40V38.5C21.1716 38.5 20.5 39.1716 20.5 40H22ZM58 40H59.5C59.5 39.1716 58.8284 38.5 58 38.5V40ZM58 64H56.5C56.5 64.8284 57.1716 65.5 58 65.5V64ZM68 64V65.5C68.8284 65.5 69.5 64.8284 69.5 64H68ZM42.3776 25.7275L43.2593 24.5139L42.3776 25.7275ZM43.8471 30.25L45.2737 30.7135V30.7135L43.8471 30.25ZM37.6224 25.7275L38.504 26.941L37.6224 25.7275ZM36.1529 30.25L34.7263 30.7135V30.7135L36.1529 30.25ZM39.1889 17.2618L67.1889 35.2618L68.8111 32.7382L40.8111 14.7382L39.1889 17.2618ZM12.8111 35.2618L40.8111 17.2618L39.1889 14.7382L11.1889 32.7382L12.8111 35.2618ZM13.5 64L13.5 34H10.5L10.5 64H13.5ZM22 62.5H12V65.5H22V62.5ZM20.5 40L20.5 64H23.5L23.5 40H20.5ZM58 38.5L22 38.5V41.5L58 41.5V38.5ZM59.5 64V40H56.5V64H59.5ZM68 62.5H58V65.5H68V62.5ZM66.5 34V64H69.5V34L66.5 34ZM41.496 26.941C42.388 27.5891 42.7612 28.7378 42.4205 29.7865L45.2737 30.7135C46.016 28.4288 45.2028 25.926 43.2593 24.5139L41.496 26.941ZM38.504 26.941C39.3961 26.2929 40.6039 26.2929 41.496 26.941L43.2593 24.5139C41.3158 23.1019 38.6842 23.1019 36.7407 24.5139L38.504 26.941ZM37.5795 29.7865C37.2388 28.7378 37.612 27.5891 38.504 26.941L36.7407 24.5139C34.7972 25.926 33.984 28.4288 34.7263 30.7135L37.5795 29.7865ZM40 31.5451C38.8974 31.5451 37.9202 30.8351 37.5795 29.7865L34.7263 30.7135C35.4687 32.9982 37.5977 34.5451 40 34.5451V31.5451ZM42.4205 29.7865C42.0798 30.8351 41.1026 31.5451 40 31.5451V34.5451C42.4023 34.5451 44.5313 32.9982 45.2737 30.7135L42.4205 29.7865Z" fill="currentColor" />
  <path d="M71 64L9 64" stroke="currentColor" stroke-width="4" stroke-linecap="round" stroke-linejoin="round" />
  <rect x="22" y="40" width="36" height="6" stroke="currentColor" stroke-width="3" stroke-linecap="round" stroke-linejoin="round" />
  <rect x="22" y="46" width="36" height="6" stroke="currentColor" stroke-width="3" stroke-linecap="round" stroke-linejoin="round" />
  <rect x="22" y="52" width="36" height="6" stroke="currentColor" stroke-width="3" stroke-linecap="round" stroke-linejoin="round" />
  <rect x="22" y="58" width="36" height="6" stroke="currentColor" stroke-width="3" stroke-linecap="round" stroke-linejoin="round" />
  <path d="M72.1787 36.6863L40 16L7.82123 36.6863" stroke="currentColor" stroke-width="4" stroke-linecap="round" stroke-linejoin="round" />
</svg>