<svg viewBox="0 0 80 80" fill="none">
  <path d="M29.3934 14.3934C36.1847 11.5804 43.8153 11.5804 50.6066 14.3934V14.3934C57.3979 17.2064 62.7936 22.6021 65.6066 29.3934V29.3934C68.4196 36.1847 68.4196 43.8153 65.6066 50.6066V50.6066C62.7936 57.3979 57.3979 62.7936 50.6066 65.6066V65.6066C43.8153 68.4196 36.1847 68.4196 29.3934 65.6066V65.6066C22.6021 62.7936 17.2064 57.3979 14.3934 50.6066V50.6066C11.5804 43.8153 11.5804 36.1847 14.3934 29.3934V29.3934C17.2064 22.6021 22.6021 17.2064 29.3934 14.3934V14.3934Z" stroke="currentColor" stroke-width="5" />
  <path fill-rule="evenodd" clip-rule="evenodd" d="M20.5749 22.7448C20.0047 23.3002 19.2169 23.573 18.4254 23.4892L17.787 23.4217C20.748 19.4513 24.7459 16.3116 29.399 14.3842C36.1903 11.5712 43.8209 11.5712 50.6122 14.3842C57.4035 17.1972 62.7992 22.5929 65.6122 29.3842C66.147 30.6753 66.5801 31.9967 66.9116 33.3369C66.0571 33.4886 65.1857 33.111 64.7155 32.3662L64.2254 31.5899C62.9492 29.5685 60.0387 29.4655 58.6227 31.3915L58.0851 32.1229C57.8543 32.4368 57.6807 32.7888 57.5721 33.163L56.9277 35.3836C56.8292 35.7229 56.4933 35.9357 56.1444 35.8796C55.9431 35.8473 55.7659 35.7288 55.6591 35.5551L53.0066 31.241C52.1542 29.8546 50.647 29.006 49.0196 28.9962L47.9231 28.9896C47.3958 28.9865 46.8906 28.7772 46.5154 28.4066L45.2653 27.1717C44.9543 26.8645 44.4368 26.9348 44.2191 27.3138C44.0692 27.5746 44.1126 27.9035 44.3251 28.1164L47.0931 30.8917C48.0335 31.8345 48.0337 33.3605 47.0935 34.3035C46.6157 34.7827 45.9589 35.0396 45.2828 35.0117L44.467 34.9779C43.3592 34.9321 42.3125 34.4576 41.548 33.6545L38.8745 30.8459C38.5884 30.5453 38.1272 30.4947 37.7827 30.7261C37.3423 31.022 37.2766 31.6442 37.6455 32.0255L42.7966 37.3489C43.2083 37.7743 43.5033 38.2987 43.6531 38.8715C43.9586 40.0396 43.6297 41.2823 42.7864 42.1464L41.6894 43.2703C40.5603 44.4272 39.9259 45.9783 39.9207 47.5949L39.903 53.1129C39.8964 55.1497 39.1098 57.1066 37.7048 58.5813L36.3918 59.9594C35.6834 60.7029 34.6947 61.1138 33.668 61.0915C32.5265 61.0666 31.4599 60.5061 30.7892 59.582C30.3581 58.988 30.1138 58.2762 30.0907 57.5427L29.961 53.434C29.9286 52.4077 29.4451 51.448 28.6396 50.8112C27.821 50.1642 27.3357 49.1843 27.3169 48.1411L27.2835 46.2808C27.2409 43.9072 25.3199 41.997 22.9461 41.9678C21.7964 41.9536 20.6981 41.4893 19.8871 40.6743L18.6506 39.4321C16.9503 37.7236 16.1108 35.3396 16.3657 32.9427L16.6933 29.8614C16.7597 29.2376 16.9992 28.6449 17.3849 28.1502L19.4447 25.5083C19.729 25.1437 20.2791 25.1403 20.5678 25.5013C20.7089 25.6777 20.9251 25.7772 21.1509 25.7695L24.7829 25.6465C25.3266 25.628 25.7941 26.0285 25.8594 26.5686C25.9071 26.9634 26.1742 27.2973 26.5489 27.4306L30.3344 28.7774C30.7145 28.9126 31.1365 28.7521 31.3307 28.3985C31.48 28.1267 31.7694 27.962 32.0793 27.9726L34.3897 28.0509C35.1418 28.0764 35.871 27.7905 36.4053 27.2607C37.4326 26.2421 37.4874 24.5991 36.5303 23.5143L34.8833 21.6476L37.9341 21.3312C38.4759 21.2751 39.0217 21.3893 39.4955 21.6581L40.1425 22.0252C40.7508 22.3703 41.5126 22.2811 42.0248 21.8048C42.6097 21.2608 42.7046 20.3691 42.2474 19.7141L41.7959 19.0671C41.2879 18.3394 40.4335 17.9339 39.5486 18.0006L38.7532 18.0605C37.3398 18.167 36.0948 19.0303 35.4994 20.3165L34.8833 21.6476L33.3367 21.7402C32.7312 21.7765 32.1602 22.0341 31.7323 22.464C31.3233 22.8749 30.7829 23.129 30.2055 23.1819L29.2229 23.2719L27.3465 23.4437L24.9005 20.6047L24.8689 20.6041C23.5514 20.5807 22.2792 21.0847 21.3353 22.0041L20.5749 22.7448ZM67.4615 36.1991C66.2749 36.5234 65.7185 37.9174 66.393 38.9768L67.7024 41.0337C67.7631 39.4199 67.6828 37.8021 67.4615 36.1991ZM42.7455 52.1309C42.7033 52.89 43.3075 53.5287 44.0677 53.5287C44.5397 53.5287 44.976 53.2775 45.2129 52.8694L45.4316 52.4928C45.6045 52.1949 45.7008 51.8587 45.7118 51.5144L45.764 49.8796C45.7851 49.2156 45.2375 48.6736 44.5737 48.7016C44.2339 48.7159 43.9181 48.8809 43.7123 49.1516L43.2892 49.708C43.0017 50.0863 42.8339 50.542 42.8075 51.0164L42.7455 52.1309Z" fill="currentColor" />
  <path d="M18.4254 23.4892L18.478 22.992H18.478L18.4254 23.4892ZM20.5749 22.7448L20.226 22.3866L20.5749 22.7448ZM17.787 23.4217L17.3862 23.1227C17.2788 23.2668 17.2569 23.4574 17.3289 23.622C17.4009 23.7866 17.5557 23.9 17.7344 23.9189L17.787 23.4217ZM29.399 14.3842L29.2077 13.9223L29.399 14.3842ZM50.6122 14.3842L50.8036 13.9223L50.6122 14.3842ZM65.6122 29.3842L66.0742 29.1929L65.6122 29.3842ZM66.9116 33.3369L66.999 33.8292C67.1353 33.805 67.2554 33.7254 67.3308 33.6093C67.4062 33.4933 67.4302 33.3512 67.3969 33.2168L66.9116 33.3369ZM64.7155 32.3662L64.2927 32.6332V32.6332L64.7155 32.3662ZM64.2254 31.5899L63.8026 31.8569L63.8026 31.8569L64.2254 31.5899ZM58.6227 31.3915L58.2199 31.0954L58.2199 31.0954L58.6227 31.3915ZM58.0851 32.1229L58.4879 32.4191L58.4879 32.4191L58.0851 32.1229ZM57.5721 33.163L57.0919 33.0236V33.0236L57.5721 33.163ZM56.9277 35.3836L56.4475 35.2442V35.2442L56.9277 35.3836ZM56.1444 35.8796L56.2237 35.386H56.2237L56.1444 35.8796ZM55.6591 35.5551L55.2331 35.817L55.2331 35.817L55.6591 35.5551ZM53.0066 31.241L52.5807 31.5028L53.0066 31.241ZM49.0196 28.9962L49.0226 28.4962L49.0196 28.9962ZM47.9231 28.9896L47.9201 29.4896L47.9231 28.9896ZM46.5154 28.4066L46.164 28.7623H46.164L46.5154 28.4066ZM45.2653 27.1717L45.6167 26.816L45.2653 27.1717ZM44.2191 27.3138L44.6526 27.5629L44.6526 27.5629L44.2191 27.3138ZM44.3251 28.1164L43.971 28.4695H43.971L44.3251 28.1164ZM47.0931 30.8917L47.4471 30.5386V30.5386L47.0931 30.8917ZM47.0935 34.3035L47.4476 34.6565L47.0935 34.3035ZM45.2828 35.0117L45.2621 35.5112H45.2621L45.2828 35.0117ZM44.467 34.9779L44.4876 34.4784L44.467 34.9779ZM41.548 33.6545L41.1859 33.9992L41.1859 33.9992L41.548 33.6545ZM38.8745 30.8459L38.5124 31.1907L38.5124 31.1907L38.8745 30.8459ZM37.7827 30.7261L38.0615 31.1412L38.0615 31.1412L37.7827 30.7261ZM37.6455 32.0255L38.0048 31.6778L38.0048 31.6778L37.6455 32.0255ZM42.7966 37.3489L42.4373 37.6966L42.4373 37.6966L42.7966 37.3489ZM43.6531 38.8715L44.1368 38.745V38.745L43.6531 38.8715ZM42.7864 42.1464L43.1442 42.4956H43.1442L42.7864 42.1464ZM41.6894 43.2703L41.3316 42.9211L41.6894 43.2703ZM39.9207 47.5949L40.4207 47.5965L39.9207 47.5949ZM39.903 53.1129L40.403 53.1145V53.1145L39.903 53.1129ZM37.7048 58.5813L38.0668 58.9262H38.0668L37.7048 58.5813ZM36.3918 59.9594L36.7538 60.3043L36.3918 59.9594ZM33.668 61.0915L33.6572 61.5914H33.6572L33.668 61.0915ZM30.7892 59.582L30.3845 59.8757L30.3845 59.8757L30.7892 59.582ZM30.0907 57.5427L30.5904 57.5269V57.5269L30.0907 57.5427ZM29.961 53.434L29.4613 53.4498V53.4498L29.961 53.434ZM28.6396 50.8112L28.9496 50.419L28.9496 50.419L28.6396 50.8112ZM27.3169 48.1411L27.8168 48.1321V48.1321L27.3169 48.1411ZM27.2835 46.2808L26.7836 46.2897V46.2897L27.2835 46.2808ZM22.9461 41.9678L22.9399 42.4677H22.9399L22.9461 41.9678ZM19.8871 40.6743L19.5327 41.0271L19.5327 41.0271L19.8871 40.6743ZM18.6506 39.4321L19.005 39.0793H19.005L18.6506 39.4321ZM16.3657 32.9427L15.8685 32.8898L15.8685 32.8898L16.3657 32.9427ZM16.6933 29.8614L17.1905 29.9142L17.1905 29.9142L16.6933 29.8614ZM17.3849 28.1502L16.9906 27.8428L16.9906 27.8428L17.3849 28.1502ZM19.4447 25.5083L19.8391 25.8157L19.8391 25.8157L19.4447 25.5083ZM20.5678 25.5013L20.1773 25.8136L20.1774 25.8136L20.5678 25.5013ZM21.1509 25.7695L21.1678 26.2692L21.1678 26.2692L21.1509 25.7695ZM24.7829 25.6465L24.7998 26.1462H24.7998L24.7829 25.6465ZM25.8594 26.5686L25.363 26.6286V26.6286L25.8594 26.5686ZM26.5489 27.4306L26.3813 27.9017L26.5489 27.4306ZM30.3344 28.7774L30.502 28.3063H30.502L30.3344 28.7774ZM31.3307 28.3985L31.769 28.6392L31.769 28.6392L31.3307 28.3985ZM32.0793 27.9726L32.0962 27.4728H32.0962L32.0793 27.9726ZM34.3897 28.0509L34.3728 28.5506L34.3897 28.0509ZM36.4053 27.2607L36.0533 26.9056V26.9056L36.4053 27.2607ZM36.5303 23.5143L36.9053 23.1835V23.1835L36.5303 23.5143ZM37.9341 21.3312L37.8825 20.8339H37.8825L37.9341 21.3312ZM39.4955 21.6581L39.7422 21.2233L39.4955 21.6581ZM40.1425 22.0252L39.8957 22.4601L39.8957 22.4601L40.1425 22.0252ZM42.0248 21.8048L41.6842 21.4387L42.0248 21.8048ZM42.2474 19.7141L41.8374 20.0003L41.8374 20.0003L42.2474 19.7141ZM41.7959 19.0671L42.2059 18.7809L42.2059 18.7809L41.7959 19.0671ZM39.5486 18.0006L39.511 17.502L39.5486 18.0006ZM38.7532 18.0605L38.7908 18.5591H38.7908L38.7532 18.0605ZM35.4994 20.3165L35.9532 20.5266L35.9532 20.5265L35.4994 20.3165ZM33.3367 21.7402L33.3666 22.2393L33.3367 21.7402ZM31.7323 22.464L31.3779 22.1113L31.3779 22.1113L31.7323 22.464ZM30.2055 23.1819L30.2511 23.6798L30.2055 23.1819ZM29.2229 23.2719L29.1773 22.774L29.2229 23.2719ZM27.3465 23.4437L26.9677 23.7701C27.0732 23.8925 27.2312 23.9564 27.3921 23.9416L27.3465 23.4437ZM24.9005 20.6047L25.2793 20.2784C25.1864 20.1705 25.0518 20.1073 24.9095 20.1048L24.9005 20.6047ZM24.8689 20.6041L24.8779 20.1042L24.8778 20.1042L24.8689 20.6041ZM21.3353 22.0041L21.6842 22.3623L21.6842 22.3623L21.3353 22.0041ZM67.4615 36.1991L67.9568 36.1307C67.9371 35.9881 67.857 35.861 67.7369 35.7818C67.6168 35.7025 67.4684 35.6788 67.3296 35.7167L67.4615 36.1991ZM66.393 38.9768L66.8148 38.7083H66.8148L66.393 38.9768ZM67.7024 41.0337L67.2806 41.3022C67.3981 41.4868 67.622 41.5735 67.8331 41.5163C68.0443 41.459 68.1938 41.2711 68.202 41.0525L67.7024 41.0337ZM42.7455 52.1309L42.2463 52.1032L42.7455 52.1309ZM45.2129 52.8694L44.7805 52.6183L45.2129 52.8694ZM45.4316 52.4928L45.864 52.7438L45.864 52.7438L45.4316 52.4928ZM45.7118 51.5144L46.2115 51.5304V51.5304L45.7118 51.5144ZM45.764 49.8796L46.2637 49.8955V49.8955L45.764 49.8796ZM44.5737 48.7016L44.5527 48.202L44.5527 48.202L44.5737 48.7016ZM43.7123 49.1516L44.1103 49.4542L44.1103 49.4542L43.7123 49.1516ZM43.2892 49.708L42.8912 49.4054L42.8912 49.4054L43.2892 49.708ZM42.8075 51.0164L43.3067 51.0442V51.0442L42.8075 51.0164ZM18.3727 23.9865C19.3121 24.0859 20.2471 23.7621 20.9238 23.103L20.226 22.3866C19.7623 22.8383 19.1217 23.0602 18.478 22.992L18.3727 23.9865ZM17.7344 23.9189L18.3727 23.9865L18.478 22.992L17.8396 22.9244L17.7344 23.9189ZM18.1878 23.7206C21.0954 19.8218 25.0212 16.7387 29.5903 14.8461L29.2077 13.9223C24.4706 15.8844 20.4006 19.0808 17.3862 23.1227L18.1878 23.7206ZM29.5903 14.8461C36.2591 12.0838 43.7521 12.0838 50.4209 14.8461L50.8036 13.9223C43.8897 11.0585 36.1215 11.0585 29.2077 13.9223L29.5903 14.8461ZM50.4209 14.8461C57.0896 17.6084 62.388 22.9068 65.1503 29.5755L66.0742 29.1929C63.2104 22.2791 57.7174 16.7861 50.8036 13.9223L50.4209 14.8461ZM65.1503 29.5755C65.6754 30.8433 66.1007 32.1409 66.4262 33.4569L67.3969 33.2168C67.0595 31.8524 66.6186 30.5072 66.0742 29.1929L65.1503 29.5755ZM64.2927 32.6332C64.8721 33.5509 65.9459 34.0162 66.999 33.8292L66.8241 32.8446C66.1683 32.9611 65.4992 32.671 65.1383 32.0993L64.2927 32.6332ZM63.8026 31.8569L64.2927 32.6332L65.1383 32.0993L64.6482 31.323L63.8026 31.8569ZM59.0256 31.6877C60.2329 30.0455 62.7145 30.1334 63.8026 31.8569L64.6482 31.323C63.1839 29.0037 59.8445 28.8855 58.2199 31.0954L59.0256 31.6877ZM58.4879 32.4191L59.0256 31.6877L58.2199 31.0954L57.6822 31.8267L58.4879 32.4191ZM58.0523 33.3023C58.1445 32.9846 58.292 32.6856 58.4879 32.4191L57.6822 31.8267C57.4167 32.1879 57.2169 32.5931 57.0919 33.0236L58.0523 33.3023ZM57.4079 35.5229L58.0523 33.3023L57.0919 33.0236L56.4475 35.2442L57.4079 35.5229ZM56.0652 36.3733C56.6632 36.4693 57.2391 36.1046 57.4079 35.5229L56.4475 35.2442C56.4194 35.3412 56.3234 35.402 56.2237 35.386L56.0652 36.3733ZM55.2331 35.817C55.4162 36.1148 55.72 36.3179 56.0652 36.3733L56.2237 35.386C56.1662 35.3767 56.1155 35.3429 56.085 35.2932L55.2331 35.817ZM52.5807 31.5028L55.2331 35.817L56.085 35.2932L53.4325 30.9791L52.5807 31.5028ZM49.0166 29.4962C50.4714 29.505 51.8187 30.2635 52.5807 31.5028L53.4325 30.9791C52.4897 29.4457 50.8226 28.5071 49.0226 28.4962L49.0166 29.4962ZM47.9201 29.4896L49.0166 29.4962L49.0226 28.4962L47.9262 28.4896L47.9201 29.4896ZM46.164 28.7623C46.632 29.2247 47.2623 29.4857 47.9201 29.4896L47.9262 28.4896C47.5293 28.4873 47.1491 28.3298 46.8668 28.0509L46.164 28.7623ZM44.9139 27.5274L46.164 28.7623L46.8668 28.0509L45.6167 26.816L44.9139 27.5274ZM44.6526 27.5629C44.707 27.4682 44.8362 27.4507 44.9139 27.5274L45.6167 26.816C45.0724 26.2783 44.1666 26.4013 43.7855 27.0647L44.6526 27.5629ZM44.6791 27.7633C44.626 27.7101 44.6152 27.628 44.6526 27.5629L43.7855 27.0647C43.5232 27.5212 43.5993 28.0968 43.971 28.4695L44.6791 27.7633ZM47.4471 30.5386L44.6791 27.7633L43.971 28.4695L46.7391 31.2448L47.4471 30.5386ZM47.4476 34.6565C48.5823 33.5183 48.5821 31.6765 47.4471 30.5386L46.7391 31.2448C47.4849 31.9925 47.485 33.2026 46.7394 33.9505L47.4476 34.6565ZM45.2621 35.5112C46.0782 35.545 46.8709 35.2349 47.4476 34.6565L46.7394 33.9505C46.3605 34.3305 45.8396 34.5342 45.3034 34.5121L45.2621 35.5112ZM44.4463 35.4775L45.2621 35.5112L45.3034 34.5121L44.4876 34.4784L44.4463 35.4775ZM41.1859 33.9992C42.0398 34.8963 43.2089 35.4263 44.4463 35.4775L44.4876 34.4784C43.5094 34.4379 42.5852 34.0189 41.9102 33.3098L41.1859 33.9992ZM38.5124 31.1907L41.1859 33.9992L41.9102 33.3098L39.2367 30.5012L38.5124 31.1907ZM38.0615 31.1412C38.2038 31.0456 38.3942 31.0665 38.5124 31.1907L39.2367 30.5012C38.7826 30.0241 38.0506 29.9438 37.5039 30.3111L38.0615 31.1412ZM38.0048 31.6778C37.8525 31.5203 37.8796 31.2634 38.0615 31.1412L37.5039 30.3111C36.8049 30.7806 36.7007 31.768 37.2862 32.3732L38.0048 31.6778ZM43.156 37.0012L38.0048 31.6778L37.2862 32.3732L42.4373 37.6966L43.156 37.0012ZM44.1368 38.745C43.9653 38.089 43.6274 37.4884 43.156 37.0012L42.4373 37.6966C42.7892 38.0602 43.0413 38.5084 43.1694 38.998L44.1368 38.745ZM43.1442 42.4956C44.11 41.506 44.4867 40.0827 44.1368 38.745L43.1694 38.998C43.4305 39.9964 43.1493 41.0586 42.4285 41.7971L43.1442 42.4956ZM42.0472 43.6196L43.1442 42.4956L42.4285 41.7971L41.3316 42.9211L42.0472 43.6196ZM40.4207 47.5965C40.4255 46.1099 41.0089 44.6835 42.0472 43.6196L41.3316 42.9211C40.1117 44.171 39.4263 45.8467 39.4207 47.5933L40.4207 47.5965ZM40.403 53.1145L40.4207 47.5965L39.4207 47.5933L39.403 53.1113L40.403 53.1145ZM38.0668 58.9262C39.56 57.3589 40.396 55.2792 40.403 53.1145L39.403 53.1113C39.3968 55.0202 38.6596 56.8543 37.3428 58.2364L38.0668 58.9262ZM36.7538 60.3043L38.0668 58.9262L37.3428 58.2364L36.0298 59.6145L36.7538 60.3043ZM33.6572 61.5914C34.8244 61.6168 35.9484 61.1496 36.7538 60.3043L36.0298 59.6145C35.4184 60.2562 34.5651 60.6109 33.6789 60.5916L33.6572 61.5914ZM30.3845 59.8757C31.1467 60.9258 32.3587 61.5631 33.6572 61.5914L33.6789 60.5916C32.6942 60.5702 31.773 60.0864 31.1938 59.2883L30.3845 59.8757ZM29.5909 57.5584C29.6172 58.3924 29.8948 59.2009 30.3845 59.8757L31.1938 59.2883C30.8214 58.7751 30.6104 58.1601 30.5904 57.5269L29.5909 57.5584ZM29.4613 53.4498L29.5909 57.5584L30.5904 57.5269L30.4608 53.4183L29.4613 53.4498ZM28.3295 51.2035C29.0194 51.7488 29.4335 52.5708 29.4613 53.4498L30.4608 53.4183C30.4237 52.2446 29.8708 51.1471 28.9496 50.419L28.3295 51.2035ZM26.817 48.15C26.8384 49.343 27.3935 50.4635 28.3295 51.2035L28.9496 50.419C28.2486 49.8648 27.8329 49.0256 27.8168 48.1321L26.817 48.15ZM26.7836 46.2897L26.817 48.15L27.8168 48.1321L27.7834 46.2718L26.7836 46.2897ZM22.9399 42.4677C25.0435 42.4936 26.7458 44.1863 26.7836 46.2897L27.7834 46.2718C27.736 43.628 25.5963 41.5003 22.9522 41.4678L22.9399 42.4677ZM19.5327 41.0271C20.4361 41.9347 21.6594 42.452 22.9399 42.4677L22.9522 41.4678C21.9334 41.4553 20.9602 41.0438 20.2414 40.3216L19.5327 41.0271ZM18.2963 39.7848L19.5327 41.0271L20.2414 40.3216L19.005 39.0793L18.2963 39.7848ZM15.8685 32.8898C15.5977 35.4365 16.4896 37.9696 18.2963 39.7848L19.005 39.0793C17.4109 37.4777 16.624 35.2426 16.8629 32.9956L15.8685 32.8898ZM16.1962 29.8085L15.8685 32.8898L16.8629 32.9956L17.1905 29.9142L16.1962 29.8085ZM16.9906 27.8428C16.5475 28.411 16.2723 29.0919 16.1962 29.8085L17.1905 29.9142C17.247 29.3833 17.4509 28.8787 17.7792 28.4576L16.9906 27.8428ZM19.0504 25.2008L16.9906 27.8428L17.7792 28.4576L19.8391 25.8157L19.0504 25.2008ZM20.9583 25.189C20.4678 24.5757 19.5333 24.5815 19.0504 25.2008L19.8391 25.8157C19.9247 25.7059 20.0904 25.7049 20.1773 25.8136L20.9583 25.189ZM21.1339 25.2698C21.0659 25.2721 21.0008 25.2422 20.9583 25.189L20.1774 25.8136C20.4171 26.1133 20.7842 26.2822 21.1678 26.2692L21.1339 25.2698ZM24.7659 25.1468L21.1339 25.2698L21.1678 26.2692L24.7998 26.1462L24.7659 25.1468ZM26.3558 26.5085C26.2593 25.7109 25.5689 25.1196 24.7659 25.1468L24.7998 26.1462C25.0842 26.1365 25.3288 26.346 25.363 26.6286L26.3558 26.5085ZM26.7165 26.9595C26.5205 26.8898 26.3808 26.7151 26.3558 26.5085L25.363 26.6286C25.4335 27.2117 25.8279 27.7048 26.3813 27.9017L26.7165 26.9595ZM30.502 28.3063L26.7165 26.9595L26.3813 27.9017L30.1668 29.2484L30.502 28.3063ZM30.8925 28.1578C30.8164 28.2964 30.651 28.3593 30.502 28.3063L30.1668 29.2484C30.778 29.4659 31.4567 29.2078 31.769 28.6392L30.8925 28.1578ZM32.0962 27.4728C31.5979 27.4559 31.1325 27.7208 30.8925 28.1578L31.769 28.6392C31.8275 28.5327 31.9409 28.4681 32.0623 28.4723L32.0962 27.4728ZM34.4067 27.5512L32.0962 27.4728L32.0623 28.4723L34.3728 28.5506L34.4067 27.5512ZM36.0533 26.9056C35.6168 27.3384 35.021 27.572 34.4067 27.5512L34.3728 28.5506C35.2625 28.5807 36.1252 28.2425 36.7574 27.6157L36.0533 26.9056ZM36.1554 23.8451C36.9373 24.7313 36.8925 26.0735 36.0533 26.9056L36.7574 27.6157C37.9727 26.4107 38.0376 24.467 36.9053 23.1835L36.1554 23.8451ZM34.5084 21.9783L36.1554 23.8451L36.9053 23.1835L35.2583 21.3168L34.5084 21.9783ZM37.8825 20.8339L34.8318 21.1502L34.9349 22.1449L37.9857 21.8286L37.8825 20.8339ZM39.7422 21.2233C39.178 20.9031 38.5278 20.767 37.8825 20.8339L37.9857 21.8286C38.424 21.7831 38.8655 21.8756 39.2488 22.093L39.7422 21.2233ZM40.3892 21.5903L39.7422 21.2233L39.2488 22.093L39.8957 22.4601L40.3892 21.5903ZM41.6842 21.4387C41.3319 21.7664 40.8077 21.8278 40.3892 21.5903L39.8957 22.4601C40.6938 22.9129 41.6934 22.7959 42.3653 22.1709L41.6842 21.4387ZM41.8374 20.0003C42.152 20.4509 42.0866 21.0644 41.6842 21.4387L42.3653 22.1709C43.1327 21.4572 43.2573 20.2873 42.6575 19.4279L41.8374 20.0003ZM41.3858 19.3533L41.8374 20.0003L42.6575 19.4279L42.2059 18.7809L41.3858 19.3533ZM39.5862 18.4992C40.2949 18.4458 40.9791 18.7705 41.3859 19.3533L42.2059 18.7809C41.5968 17.9083 40.5722 17.422 39.511 17.502L39.5862 18.4992ZM38.7908 18.5591L39.5862 18.4992L39.511 17.502L38.7156 17.5619L38.7908 18.5591ZM35.9532 20.5265C36.4724 19.4048 37.5582 18.652 38.7908 18.5591L38.7156 17.5619C37.1215 17.6821 35.7172 18.6557 35.0457 20.1065L35.9532 20.5265ZM35.3371 21.8576L35.9532 20.5266L35.0457 20.1065L34.4296 21.4375L35.3371 21.8576ZM33.3666 22.2393L34.9132 22.1467L34.8534 21.1484L33.3068 21.2411L33.3666 22.2393ZM32.0867 22.8167C32.4281 22.4738 32.8836 22.2683 33.3666 22.2393L33.3068 21.2411C32.5789 21.2847 31.8924 21.5944 31.3779 22.1113L32.0867 22.8167ZM30.2511 23.6798C30.9453 23.6163 31.595 23.3108 32.0867 22.8167L31.3779 22.1113C31.0517 22.4391 30.6205 22.6418 30.16 22.684L30.2511 23.6798ZM29.2685 23.7698L30.2511 23.6798L30.16 22.684L29.1773 22.774L29.2685 23.7698ZM27.3921 23.9416L29.2685 23.7698L29.1773 22.774L27.3009 22.9458L27.3921 23.9416ZM24.5217 20.9311L26.9677 23.7701L27.7253 23.1174L25.2793 20.2784L24.5217 20.9311ZM24.86 21.1041L24.8916 21.1046L24.9095 20.1048L24.8779 20.1042L24.86 21.1041ZM21.6842 22.3623C22.5325 21.536 23.6759 21.083 24.86 21.1041L24.8778 20.1042C23.427 20.0784 22.0259 20.6335 20.9864 21.646L21.6842 22.3623ZM20.9238 23.103L21.6842 22.3623L20.9864 21.646L20.226 22.3866L20.9238 23.103ZM67.3296 35.7167C65.8213 36.129 65.1142 37.8991 65.9712 39.2453L66.8148 38.7083C66.3229 37.9356 66.7284 36.9178 67.5933 36.6814L67.3296 35.7167ZM65.9712 39.2453L67.2806 41.3022L68.1242 40.7652L66.8148 38.7083L65.9712 39.2453ZM66.9662 36.2674C67.1835 37.8416 67.2624 39.4302 67.2027 41.0149L68.202 41.0525C68.2639 39.4096 68.1821 37.7626 67.9568 36.1307L66.9662 36.2674ZM44.0677 53.0287C43.5945 53.0287 43.2185 52.6312 43.2447 52.1587L42.2463 52.1032C42.1881 53.1489 43.0204 54.0287 44.0677 54.0287V53.0287ZM44.7805 52.6183C44.633 52.8724 44.3615 53.0287 44.0677 53.0287V54.0287C44.7179 54.0287 45.3189 53.6827 45.6453 53.1204L44.7805 52.6183ZM44.9992 52.2417L44.7805 52.6183L45.6453 53.1204L45.864 52.7438L44.9992 52.2417ZM45.2121 51.4985C45.2037 51.76 45.1306 52.0154 44.9992 52.2417L45.864 52.7438C46.0785 52.3743 46.1979 51.9574 46.2115 51.5304L45.2121 51.4985ZM45.2642 49.8637L45.2121 51.4985L46.2115 51.5304L46.2637 49.8955L45.2642 49.8637ZM44.5948 49.2011C44.9681 49.1854 45.2761 49.4902 45.2642 49.8637L46.2637 49.8955C46.2941 48.941 45.5069 48.1617 44.5527 48.202L44.5948 49.2011ZM44.1103 49.4542C44.2261 49.302 44.4037 49.2092 44.5948 49.2011L44.5527 48.202C44.0642 48.2226 43.6102 48.4598 43.3143 48.849L44.1103 49.4542ZM43.6873 50.0107L44.1103 49.4542L43.3143 48.849L42.8912 49.4054L43.6873 50.0107ZM43.3067 51.0442C43.3276 50.6694 43.4601 50.3095 43.6873 50.0107L42.8912 49.4054C42.5432 49.8632 42.3402 50.4146 42.3083 50.9887L43.3067 51.0442ZM43.2447 52.1587L43.3067 51.0442L42.3083 50.9887L42.2463 52.1032L43.2447 52.1587Z" fill="currentColor" />
</svg>