<svg viewBox="0 0 80 80" fill="none">
  <g clip-path="url(#clip0)">
    <path d="M39.5 65C39.5 63.6193 38.3807 62.5 37 62.5C35.6193 62.5 34.5 63.6193 34.5 65H39.5ZM53 73.9373C54.3807 73.9373 55.5 72.8181 55.5 71.4373C55.5 70.0566 54.3807 68.9373 53 68.9373V73.9373ZM21 68.9373C19.6193 68.9373 18.5 70.0566 18.5 71.4373C18.5 72.8181 19.6193 73.9373 21 73.9373L21 68.9373ZM39.5 71.4373V65H34.5V71.4373H39.5ZM37 73.9373L53 73.9373V68.9373L37 68.9373V73.9373ZM37 68.9373L21 68.9373L21 73.9373L37 73.9373L37 68.9373Z" fill="currentColor" />
    <path d="M20.2611 58.1217L18.2311 56.6625L20.2611 58.1217ZM20.4991 59.5036L21.8888 57.4254L21.8888 57.4254L20.4991 59.5036ZM23.9905 52.9337L25.4497 50.9037L23.4198 49.4445L21.9606 51.4745L23.9905 52.9337ZM34.0389 56.9133L34.3652 54.4347L34.3652 54.4347L34.0389 56.9133ZM50.4312 52.521L48.9093 50.5376L48.9093 50.5376L50.4312 52.521ZM58.9165 37.824L56.4379 37.4977L58.9165 37.824ZM54.5242 21.4317L52.5408 22.9536L54.5242 21.4317ZM46.0536 14.7194L43.7749 13.691L42.7466 15.9697L45.0252 16.998L46.0536 14.7194ZM48.6833 8.89246L50.962 9.92082L48.6833 8.89246ZM49.999 8.40768L51.1039 6.1651L49.999 8.40768ZM60.388 16.9304L62.3714 15.4085L62.3714 15.4085L60.388 16.9304ZM66.2444 38.7868L63.7658 38.4605L63.7658 38.4605L66.2444 38.7868ZM54.9307 58.3828L53.4088 56.3994L53.4088 56.3994L54.9307 58.3828ZM33.0743 64.2392L33.4006 61.7605L33.4006 61.7605L33.0743 64.2392ZM18.2311 56.6625C17.1163 58.2133 17.4288 60.4579 19.1095 61.5818L21.8888 57.4254C22.6512 57.9352 22.7611 58.927 22.291 59.5809L18.2311 56.6625ZM21.9606 51.4745L18.2311 56.6625L22.291 59.5809L26.0204 54.3929L21.9606 51.4745ZM34.3652 54.4347C31.1184 54.0072 28.0615 52.7812 25.4497 50.9037L22.5313 54.9636C25.8065 57.318 29.6404 58.8558 33.7126 59.3919L34.3652 54.4347ZM48.9093 50.5376C44.7699 53.7139 39.5382 55.1157 34.3652 54.4347L33.7126 59.3919C40.2003 60.246 46.7616 58.4879 51.9531 54.5044L48.9093 50.5376ZM56.4379 37.4977C55.7569 42.6707 53.0487 47.3613 48.9093 50.5376L51.9531 54.5044C57.1446 50.5208 60.541 44.6381 61.3951 38.1503L56.4379 37.4977ZM52.5408 22.9536C55.7171 27.0931 57.1189 32.3247 56.4379 37.4977L61.3951 38.1503C62.2492 31.6626 60.4911 25.1013 56.5076 19.9098L52.5408 22.9536ZM45.0252 16.998C47.9571 18.3212 50.5472 20.3555 52.5408 22.9536L56.5076 19.9098C54.0072 16.6513 50.7585 14.0999 47.082 12.4407L45.0252 16.998ZM46.4046 7.86409L43.7749 13.691L48.3323 15.7477L50.962 9.92082L46.4046 7.86409ZM51.1039 6.1651C49.2903 5.27153 47.1902 6.12322 46.4046 7.86409L50.962 9.92082C50.6307 10.6549 49.7168 11.0556 48.8941 10.6503L51.1039 6.1651ZM62.3714 15.4085C59.3464 11.4663 55.4786 8.3205 51.1039 6.1651L48.8941 10.6503C52.5869 12.4697 55.8514 15.1249 58.4046 18.4523L62.3714 15.4085ZM68.723 39.1132C69.833 30.682 67.5483 22.1552 62.3714 15.4085L58.4046 18.4523C62.7742 24.1469 64.7027 31.3441 63.7658 38.4605L68.723 39.1132ZM56.4526 60.3661C63.1992 55.1893 67.613 47.5443 68.723 39.1132L63.7658 38.4605C62.8289 45.577 59.1034 52.0298 53.4088 56.3994L56.4526 60.3661ZM32.748 66.7178C41.1792 67.8278 49.706 65.543 56.4526 60.3661L53.4088 56.3994C47.7142 60.769 40.5171 62.6974 33.4006 61.7605L32.748 66.7178ZM19.1095 61.5818C23.1634 64.2925 27.8215 66.0692 32.748 66.7178L33.4006 61.7605C29.2424 61.2131 25.3108 59.7136 21.8888 57.4254L19.1095 61.5818Z" fill="currentColor" />
    <path d="M39.8941 13.0166C45.7245 13.7842 51.0111 16.8364 54.5911 21.5019V21.5019C58.171 26.1673 59.7509 32.0638 58.9834 37.8942V37.8942C58.2158 43.7245 55.1635 49.0112 50.4981 52.5911V52.5911C45.8326 56.171 39.9361 57.751 34.1058 56.9834V56.9834C28.2754 56.2158 22.9888 53.1636 19.4088 48.4981V48.4981C15.8289 43.8327 14.2489 37.9362 15.0165 32.1058V32.1058C15.7841 26.2755 18.8364 20.9888 23.5018 17.4089V17.4089C28.1673 13.829 34.0637 12.249 39.8941 13.0166V13.0166Z" stroke="currentColor" stroke-width="5" />
    <path fill-rule="evenodd" clip-rule="evenodd" d="M42.9621 13.6371C41.9637 13.3588 40.9414 13.1492 39.9018 13.0124C34.0714 12.2448 28.1749 13.8248 23.5095 17.4047C21.5716 18.8917 19.912 20.6732 18.5789 22.6658C18.899 23.162 19.0858 23.7427 19.1059 24.3518L19.2209 27.8325C19.2256 27.9748 19.2918 28.1079 19.4024 28.1975C19.594 28.3528 19.8712 28.3416 20.0497 28.1714L21.3193 26.961C21.4362 26.8496 21.5636 26.7499 21.6998 26.6632L24.245 25.0431C24.4342 24.9227 24.6606 24.8748 24.8824 24.9084C25.3075 24.9727 25.6328 25.3205 25.6686 25.749L25.9414 29.0139C25.9709 29.3675 26.1363 29.6959 26.4027 29.9302C26.7556 30.2404 27.2426 30.3485 27.6936 30.2168L27.7767 30.1925C28.1756 30.0759 28.51 29.802 28.7027 29.4337L28.7949 29.2577C29.0802 28.7126 29.6009 28.3295 30.2061 28.2193L31.0498 28.0656C31.5084 27.9821 31.9454 27.8066 32.3344 27.5498L32.6492 27.342C32.7955 27.2454 32.9228 27.1226 33.0246 26.9798C33.4544 26.3774 34.2733 26.2035 34.9108 26.5793L35.4553 26.9002C35.9512 27.1926 36.5447 27.2703 37.0991 27.1155L39.7192 26.384C40.0235 26.2991 40.3199 26.1881 40.6051 26.0523L41.4037 25.6723C41.7793 25.4936 42.0994 25.2165 42.3302 24.8705C42.9883 23.8836 44.2883 23.558 45.3339 24.118L45.4805 24.1965C46.0261 24.4887 46.6611 24.5669 47.2614 24.4158L47.8778 24.2607C48.6225 24.0732 49.4116 24.2042 50.0558 24.6223L50.7183 25.0522C51.2267 25.3822 51.8814 25.3833 52.391 25.0552L52.4925 24.9898C52.9154 24.7175 53.4551 24.7044 53.8908 24.9559L54.7862 25.4729C54.9339 25.5582 55.1227 25.5076 55.2079 25.3599C55.2562 25.2763 55.2626 25.1748 55.2251 25.0858L54.6649 23.7556C54.3929 23.1095 53.917 22.5701 53.3099 22.2196L47.0424 18.6011C46.5755 18.3316 46.2227 17.9013 46.0498 17.3907C45.8768 16.8801 45.524 16.4499 45.0571 16.1803L44.7015 15.975C44.095 15.6248 43.6151 15.0912 43.3311 14.451L43.0765 13.8771C43.0404 13.7959 43.0023 13.7159 42.9621 13.6371ZM24.2086 32.0785C24.129 32.1937 24.1029 32.3376 24.1371 32.4735L24.9322 35.6308C24.9944 35.8779 25.1081 36.1091 25.2657 36.3092L25.5813 36.7101C25.7178 36.8834 25.925 36.9863 26.1456 36.9904C26.6503 36.9996 27.0141 36.5092 26.8588 36.0289L25.7883 32.7181C25.6966 32.4343 25.4868 32.204 25.2129 32.0861L24.8002 31.9085C24.5877 31.8171 24.3402 31.8882 24.2086 32.0785ZM43.83 28.5058C44.0559 28.3173 44.0794 27.9787 43.8816 27.7609L43.664 27.5212C43.4633 27.3002 43.1592 27.2043 42.8681 27.2703L38.5336 28.2531C38.427 28.2772 38.3399 28.3537 38.3022 28.4563C38.2486 28.6019 38.3063 28.7651 38.4396 28.8446L39.2161 29.3082C39.5392 29.5011 39.9259 29.5571 40.2905 29.4637L43.6269 28.6096C43.7015 28.5906 43.7709 28.5551 43.83 28.5058ZM33.2012 40.6389C32.7835 41.0562 32.8513 41.7512 33.3418 42.0799L34.1796 42.6412C34.4733 42.8379 34.8262 42.9268 35.1781 42.8926L35.4406 42.867C35.7099 42.8408 35.9549 42.7003 36.1135 42.4811C36.4413 42.0281 36.3052 41.3909 35.8209 41.1113L35.0892 40.6889C34.9334 40.5989 34.7643 40.5342 34.5883 40.4971L34.0565 40.385C33.7468 40.3197 33.4251 40.4152 33.2012 40.6389ZM31.879 43.3869C30.8307 42.8474 29.6172 42.7237 28.4817 43.0408L27.7391 43.2481C27.0191 43.4491 26.4086 43.9281 26.042 44.5795L25.9953 44.6624C25.6733 45.2346 25.5819 45.908 25.7396 46.5453C25.9006 47.1954 26.3083 47.7573 26.8764 48.112L28.2735 48.9842C28.8319 49.3328 29.2218 49.8963 29.3511 50.5418C29.4339 50.9551 29.6245 51.3391 29.9037 51.655L30.3936 52.2091C30.5311 52.3647 30.693 52.497 30.8728 52.6009C31.7843 53.1271 32.9495 52.8228 33.4873 51.9181L34.2163 50.6917C34.4284 50.3348 34.5728 49.9418 34.642 49.5325L34.7085 49.139C34.8336 48.3998 34.8056 47.6429 34.6263 46.915L34.5764 46.7121C34.2293 45.3029 33.2894 44.1128 31.999 43.4486L31.879 43.3869ZM28.0882 38.3684C27.7922 38.4402 27.6916 38.8101 27.9105 39.0218L28.5732 39.6629C28.7472 39.8312 28.9973 39.8946 29.2304 39.8295L29.3618 39.7928C29.7744 39.6776 29.9323 39.1762 29.6602 38.8453C29.5805 38.7485 29.4723 38.6795 29.3509 38.6481L28.276 38.3699C28.2145 38.354 28.1499 38.3535 28.0882 38.3684ZM29.1678 35.2561C29.1581 35.3478 29.1606 35.4405 29.1754 35.5315C29.2221 35.8191 29.3877 36.0738 29.6316 36.2332L29.9242 36.4245C30.4437 36.764 31.1 36.8168 31.6672 36.5648L31.9443 36.4417C32.5198 36.186 32.9709 35.7131 33.1992 35.1262L33.2965 34.8762C33.3508 34.7365 33.4324 34.6089 33.5363 34.5009L34.0585 33.9585C34.3285 33.6779 34.2498 33.2161 33.9021 33.0408C33.7552 32.9667 33.5838 32.9587 33.4306 33.0187L31.7607 33.6731C31.5967 33.7374 31.4267 33.7852 31.2533 33.8158L30.3181 33.981C29.7055 34.0892 29.2385 34.5897 29.1729 35.2082L29.1678 35.2561Z" fill="currentColor" />
    <path d="M39.9018 13.0124L39.967 12.5167L39.967 12.5167L39.9018 13.0124ZM42.9621 13.6371L43.4076 13.41C43.3441 13.2854 43.2312 13.193 43.0964 13.1555L42.9621 13.6371ZM23.5095 17.4047L23.2051 17.008L23.5095 17.4047ZM18.5789 22.6658L18.1633 22.3878C18.0524 22.5535 18.0506 22.7693 18.1587 22.9368L18.5789 22.6658ZM19.1059 24.3518L19.6056 24.3353L19.6056 24.3353L19.1059 24.3518ZM19.2209 27.8325L19.7206 27.816L19.7206 27.816L19.2209 27.8325ZM19.4024 28.1975L19.7171 27.809L19.7171 27.809L19.4024 28.1975ZM20.0497 28.1714L20.3947 28.5333L20.3947 28.5333L20.0497 28.1714ZM21.3193 26.961L20.9743 26.5991L20.9743 26.5991L21.3193 26.961ZM21.6998 26.6632L21.9683 27.085L21.9683 27.085L21.6998 26.6632ZM24.245 25.0431L23.9765 24.6213L23.9765 24.6213L24.245 25.0431ZM24.8824 24.9084L24.9573 24.414L24.9572 24.414L24.8824 24.9084ZM25.6686 25.749L26.1669 25.7074L25.6686 25.749ZM25.9414 29.0139L26.4396 28.9723L26.4396 28.9723L25.9414 29.0139ZM26.4027 29.9302L26.7329 29.5547L26.7329 29.5547L26.4027 29.9302ZM27.6936 30.2168L27.5534 29.7368L27.5534 29.7368L27.6936 30.2168ZM27.7767 30.1925L27.9169 30.6724L27.9169 30.6724L27.7767 30.1925ZM28.7027 29.4337L28.2598 29.2018L28.2598 29.2018L28.7027 29.4337ZM28.7949 29.2577L28.3519 29.0258L28.3519 29.0258L28.7949 29.2577ZM30.2061 28.2193L30.2957 28.7112L30.2957 28.7112L30.2061 28.2193ZM31.0498 28.0656L30.9602 27.5737L30.9602 27.5737L31.0498 28.0656ZM32.3344 27.5498L32.6098 27.9671L32.6098 27.9671L32.3344 27.5498ZM32.6492 27.342L32.3737 26.9247L32.3737 26.9247L32.6492 27.342ZM33.0246 26.9798L32.6176 26.6895L32.6176 26.6895L33.0246 26.9798ZM34.9108 26.5793L34.6569 27.01L34.6569 27.01L34.9108 26.5793ZM35.4553 26.9002L35.7092 26.4695L35.4553 26.9002ZM37.0991 27.1155L37.2336 27.5971L37.0991 27.1155ZM39.7192 26.384L39.8537 26.8656L39.8537 26.8656L39.7192 26.384ZM40.6051 26.0523L40.3903 25.6009L40.3903 25.6009L40.6051 26.0523ZM41.4037 25.6723L41.6186 26.1238L41.6186 26.1238L41.4037 25.6723ZM42.3302 24.8705L42.7462 25.1479L42.3302 24.8705ZM45.3339 24.118L45.0979 24.5588L45.3339 24.118ZM45.4805 24.1965L45.2444 24.6373L45.4805 24.1965ZM47.2614 24.4158L47.3834 24.9007L47.3834 24.9007L47.2614 24.4158ZM47.8778 24.2607L47.7557 23.7758L47.8778 24.2607ZM50.0558 24.6223L50.328 24.2029L50.328 24.2029L50.0558 24.6223ZM50.7183 25.0522L50.4461 25.4716L50.7183 25.0522ZM52.391 25.0552L52.6617 25.4756L52.6617 25.4756L52.391 25.0552ZM52.4925 24.9898L52.2218 24.5695L52.2218 24.5695L52.4925 24.9898ZM55.2251 25.0858L55.6859 24.8917L55.6859 24.8917L55.2251 25.0858ZM54.6649 23.7556L54.2041 23.9497L54.2041 23.9497L54.6649 23.7556ZM53.3099 22.2196L53.5599 21.7866L53.3099 22.2196ZM47.0424 18.6011L46.7924 19.0341L47.0424 18.6011ZM46.0498 17.3907L45.5762 17.5511L46.0498 17.3907ZM45.0571 16.1803L45.3071 15.7473L45.0571 16.1803ZM44.7015 15.975L44.4515 16.408L44.7015 15.975ZM43.3311 14.451L42.874 14.6538L42.874 14.6538L43.3311 14.451ZM43.0765 13.8771L43.5335 13.6743L43.5335 13.6743L43.0765 13.8771ZM24.1371 32.4735L24.622 32.3514L24.1371 32.4735ZM24.2086 32.0785L23.7974 31.7941L23.7974 31.7941L24.2086 32.0785ZM24.9322 35.6308L25.4171 35.5087L25.4171 35.5087L24.9322 35.6308ZM25.2657 36.3092L25.6585 35.9999L25.6585 35.9999L25.2657 36.3092ZM25.5813 36.7101L25.9742 36.4007L25.9742 36.4007L25.5813 36.7101ZM26.1456 36.9904L26.1547 36.4904L26.1547 36.4904L26.1456 36.9904ZM26.8588 36.0289L26.383 36.1827L26.383 36.1827L26.8588 36.0289ZM25.7883 32.7181L26.2641 32.5643L26.2641 32.5643L25.7883 32.7181ZM25.2129 32.0861L25.0152 32.5454L25.0153 32.5454L25.2129 32.0861ZM24.8002 31.9085L24.6026 32.3678L24.6026 32.3678L24.8002 31.9085ZM43.8816 27.7609L43.5114 28.097L43.5114 28.097L43.8816 27.7609ZM43.83 28.5058L43.5097 28.1218L43.5097 28.1218L43.83 28.5058ZM43.664 27.5212L44.0342 27.1851L44.0342 27.1851L43.664 27.5212ZM42.8681 27.2703L42.9787 27.7579L42.9787 27.7579L42.8681 27.2703ZM38.5336 28.2531L38.6441 28.7407L38.5336 28.2531ZM38.3022 28.4563L38.7714 28.6289L38.7714 28.6289L38.3022 28.4563ZM38.4396 28.8446L38.1833 29.2739L38.1833 29.2739L38.4396 28.8446ZM39.2161 29.3082L39.4724 28.8789L39.2161 29.3082ZM40.2905 29.4637L40.1665 28.9794L40.1665 28.9794L40.2905 29.4637ZM43.6269 28.6096L43.503 28.1253L43.6269 28.6096ZM33.3418 42.0799L33.6202 41.6645L33.3418 42.0799ZM33.2012 40.6389L32.8479 40.2851L32.8479 40.2851L33.2012 40.6389ZM34.1796 42.6412L33.9013 43.0565L34.1796 42.6412ZM35.1781 42.8926L35.2265 43.3902L35.2265 43.3902L35.1781 42.8926ZM35.4406 42.867L35.3922 42.3694L35.3922 42.3694L35.4406 42.867ZM36.1135 42.4811L35.7084 42.188L36.1135 42.4811ZM35.8209 41.1113L35.5709 41.5444L35.8209 41.1113ZM35.0892 40.6889L35.3392 40.2559L35.0892 40.6889ZM34.5883 40.4971L34.4851 40.9863L34.4851 40.9863L34.5883 40.4971ZM34.0565 40.385L34.1596 39.8957L34.1596 39.8957L34.0565 40.385ZM28.4817 43.0408L28.6161 43.5224L28.6161 43.5224L28.4817 43.0408ZM31.879 43.3869L32.1078 42.9423L32.1078 42.9423L31.879 43.3869ZM27.7391 43.2481L27.8736 43.7297L27.7391 43.2481ZM26.042 44.5795L25.6062 44.3343L25.6062 44.3343L26.042 44.5795ZM25.9953 44.6624L26.4311 44.9076L26.4311 44.9076L25.9953 44.6624ZM25.7396 46.5453L26.225 46.4252L26.225 46.4252L25.7396 46.5453ZM26.8764 48.112L26.6116 48.5361L26.8764 48.112ZM28.2735 48.9842L28.0087 49.4084L28.0087 49.4084L28.2735 48.9842ZM29.3511 50.5418L29.8413 50.4435L29.8413 50.4435L29.3511 50.5418ZM29.9037 51.655L30.2783 51.3238L30.2783 51.3238L29.9037 51.655ZM30.3936 52.2091L30.019 52.5403L30.019 52.5403L30.3936 52.2091ZM33.4873 51.9181L33.0575 51.6626L33.4873 51.9181ZM34.2163 50.6917L33.7865 50.4362L34.2163 50.6917ZM34.642 49.5325L34.149 49.4491L34.642 49.5325ZM34.7085 49.139L34.2155 49.0556L34.2155 49.0556L34.7085 49.139ZM34.6263 46.915L35.1118 46.7954L34.6263 46.915ZM34.5764 46.7121L35.0619 46.5925L35.0619 46.5925L34.5764 46.7121ZM31.999 43.4486L31.7702 43.8932L31.7702 43.8932L31.999 43.4486ZM27.9105 39.0218L27.5628 39.3812L27.5628 39.3812L27.9105 39.0218ZM28.0882 38.3684L28.2059 38.8544L28.2059 38.8544L28.0882 38.3684ZM28.5732 39.6629L28.9208 39.3035L28.5732 39.6629ZM29.2304 39.8295L29.096 39.3479L29.0959 39.3479L29.2304 39.8295ZM29.3618 39.7928L29.4962 40.2744L29.4963 40.2744L29.3618 39.7928ZM29.6602 38.8453L29.274 39.163L29.274 39.163L29.6602 38.8453ZM29.3509 38.6481L29.2256 39.1321L29.2257 39.1321L29.3509 38.6481ZM28.276 38.3699L28.4013 37.8858L28.4013 37.8858L28.276 38.3699ZM29.1754 35.5315L28.6819 35.6116L28.6819 35.6116L29.1754 35.5315ZM29.1678 35.2561L29.665 35.3088L29.665 35.3088L29.1678 35.2561ZM29.6316 36.2332L29.3581 36.6518L29.3581 36.6518L29.6316 36.2332ZM29.9242 36.4245L30.1977 36.0059L30.1977 36.0059L29.9242 36.4245ZM31.6672 36.5648L31.4642 36.1079L31.4642 36.1079L31.6672 36.5648ZM31.9443 36.4417L32.1474 36.8986L32.1474 36.8986L31.9443 36.4417ZM33.1992 35.1262L32.7332 34.9449L32.7332 34.945L33.1992 35.1262ZM33.2965 34.8762L33.7625 35.0575L33.7625 35.0575L33.2965 34.8762ZM33.5363 34.5009L33.1761 34.1541L33.1761 34.1541L33.5363 34.5009ZM34.0585 33.9585L34.4187 34.3053L34.4187 34.3052L34.0585 33.9585ZM33.9021 33.0408L33.677 33.4872L33.677 33.4872L33.9021 33.0408ZM33.4306 33.0187L33.6131 33.4843L33.6131 33.4842L33.4306 33.0187ZM31.7607 33.6731L31.5783 33.2076L31.5782 33.2076L31.7607 33.6731ZM31.2533 33.8158L31.1663 33.3234L31.1663 33.3234L31.2533 33.8158ZM30.3181 33.981L30.2311 33.4886L30.2311 33.4886L30.3181 33.981ZM29.1729 35.2082L29.6701 35.261L29.6701 35.261L29.1729 35.2082ZM39.8365 13.5081C40.8527 13.6419 41.852 13.8467 42.8279 14.1187L43.0964 13.1555C42.0754 12.8708 41.0301 12.6566 39.967 12.5167L39.8365 13.5081ZM23.8139 17.8014C28.3741 14.3022 34.1376 12.7578 39.8365 13.5081L39.967 12.5167C34.0052 11.7318 27.9758 13.3474 23.2051 17.008L23.8139 17.8014ZM18.9944 22.9438C20.2975 20.9962 21.9196 19.2549 23.8139 17.8014L23.2051 17.008C21.2235 18.5285 19.5265 20.3502 18.1633 22.3878L18.9944 22.9438ZM18.1587 22.9368C18.4305 23.3583 18.5891 23.8512 18.6062 24.3683L19.6056 24.3353C19.5825 23.6343 19.3674 22.9658 18.999 22.3948L18.1587 22.9368ZM18.6062 24.3683L18.7212 27.849L19.7206 27.816L19.6056 24.3353L18.6062 24.3683ZM18.7212 27.849C18.7306 28.1362 18.8644 28.4051 19.0876 28.586L19.7171 27.809C19.7192 27.8107 19.7205 27.8133 19.7206 27.816L18.7212 27.849ZM19.0876 28.586C19.4746 28.8996 20.0343 28.877 20.3947 28.5333L19.7047 27.8095C19.7081 27.8063 19.7134 27.8061 19.7171 27.809L19.0876 28.586ZM20.3947 28.5333L21.6643 27.3229L20.9743 26.5991L19.7047 27.8095L20.3947 28.5333ZM21.6643 27.3229C21.7577 27.2339 21.8595 27.1542 21.9683 27.085L21.4313 26.2414C21.2677 26.3455 21.1147 26.4653 20.9743 26.5991L21.6643 27.3229ZM21.9683 27.085L24.5135 25.4649L23.9765 24.6213L21.4313 26.2414L21.9683 27.085ZM24.5135 25.4649C24.6008 25.4093 24.7053 25.3873 24.8076 25.4027L24.9572 24.414C24.616 24.3624 24.2676 24.436 23.9765 24.6213L24.5135 25.4649ZM24.8076 25.4027C25.0037 25.4324 25.1538 25.5929 25.1704 25.7906L26.1669 25.7074C26.1118 25.0481 25.6113 24.513 24.9573 24.414L24.8076 25.4027ZM25.1704 25.7906L25.4431 29.0556L26.4396 28.9723L26.1669 25.7074L25.1704 25.7906ZM25.4431 29.0556C25.4834 29.538 25.709 29.986 26.0726 30.3057L26.7329 29.5547C26.5635 29.4058 26.4584 29.197 26.4396 28.9723L25.4431 29.0556ZM26.0726 30.3057C26.554 30.729 27.2185 30.8765 27.8338 30.6967L27.5534 29.7368C27.2667 29.8206 26.9572 29.7519 26.7329 29.5547L26.0726 30.3057ZM27.8338 30.6967L27.9169 30.6724L27.6364 29.7126L27.5534 29.7368L27.8338 30.6967ZM27.9169 30.6724C28.4463 30.5177 28.8899 30.1542 29.1457 29.6656L28.2598 29.2018C28.13 29.4497 27.905 29.6341 27.6364 29.7126L27.9169 30.6724ZM29.1457 29.6656L29.2379 29.4895L28.3519 29.0258L28.2598 29.2018L29.1457 29.6656ZM29.2379 29.4895C29.4517 29.081 29.842 28.7938 30.2957 28.7112L30.1165 27.7273C29.3597 27.8652 28.7087 28.3442 28.3519 29.0258L29.2379 29.4895ZM30.2957 28.7112L31.1394 28.5575L30.9602 27.5737L30.1165 27.7273L30.2957 28.7112ZM31.1394 28.5575C31.6644 28.4619 32.1645 28.2611 32.6098 27.9671L32.0589 27.1325C31.7262 27.3522 31.3525 27.5023 30.9602 27.5737L31.1394 28.5575ZM32.6098 27.9671L32.9246 27.7593L32.3737 26.9247L32.0589 27.1325L32.6098 27.9671ZM32.9246 27.7593C33.1223 27.6288 33.2942 27.463 33.4317 27.2702L32.6176 26.6895C32.5514 26.7822 32.4688 26.862 32.3737 26.9247L32.9246 27.7593ZM33.4317 27.2702C33.7108 26.8789 34.2428 26.7659 34.6569 27.01L35.1647 26.1485C34.3038 25.6411 33.1979 25.876 32.6176 26.6895L33.4317 27.2702ZM34.6569 27.01L35.2014 27.331L35.7092 26.4695L35.1647 26.1485L34.6569 27.01ZM35.2014 27.331C35.8144 27.6923 36.5482 27.7884 37.2336 27.5971L36.9647 26.6339C36.5412 26.7521 36.0879 26.6928 35.7092 26.4695L35.2014 27.331ZM37.2336 27.5971L39.8537 26.8656L39.5848 25.9024L36.9647 26.6339L37.2336 27.5971ZM39.8537 26.8656C40.1855 26.7729 40.5088 26.6519 40.82 26.5038L40.3903 25.6009C40.1309 25.7243 39.8614 25.8252 39.5848 25.9024L39.8537 26.8656ZM40.82 26.5038L41.6186 26.1238L41.1889 25.2208L40.3903 25.6009L40.82 26.5038ZM41.6186 26.1238C42.0757 25.9063 42.4653 25.569 42.7462 25.1479L41.9142 24.593C41.7336 24.864 41.4829 25.0809 41.1889 25.2208L41.6186 26.1238ZM42.7462 25.1479C43.2615 24.3753 44.2792 24.1203 45.0979 24.5588L45.57 23.6772C44.2974 22.9957 42.7152 23.392 41.9142 24.593L42.7462 25.1479ZM45.0979 24.5588L45.2444 24.6373L45.7165 23.7557L45.57 23.6772L45.0979 24.5588ZM45.2444 24.6373C45.8998 24.9883 46.6625 25.0822 47.3834 24.9007L47.1393 23.931C46.6598 24.0517 46.1525 23.9892 45.7165 23.7557L45.2444 24.6373ZM47.3834 24.9007L47.9998 24.7455L47.7557 23.7758L47.1393 23.931L47.3834 24.9007ZM47.9998 24.7455C48.6097 24.592 49.256 24.6993 49.7836 25.0417L50.328 24.2029C49.5672 23.7091 48.6352 23.5544 47.7557 23.7758L47.9998 24.7455ZM49.7836 25.0417L50.4461 25.4716L50.9905 24.6328L50.328 24.2029L49.7836 25.0417ZM50.4461 25.4716C51.1195 25.9087 51.9867 25.9102 52.6617 25.4756L52.1203 24.6348C51.7761 24.8565 51.3339 24.8557 50.9905 24.6328L50.4461 25.4716ZM52.6617 25.4756L52.7632 25.4102L52.2218 24.5695L52.1203 24.6348L52.6617 25.4756ZM52.7632 25.4102C53.0286 25.2393 53.3673 25.2311 53.6408 25.3889L54.1408 24.5229C53.5429 24.1777 52.8022 24.1957 52.2218 24.5695L52.7632 25.4102ZM53.6408 25.3889L54.5362 25.9059L55.0362 25.0399L54.1408 24.5229L53.6408 25.3889ZM54.5362 25.9059C54.923 26.1292 55.4176 25.9967 55.6409 25.6099L54.7749 25.1099C54.8277 25.0184 54.9447 24.9871 55.0362 25.0399L54.5362 25.9059ZM55.6409 25.6099C55.7675 25.3907 55.7841 25.125 55.6859 24.8917L54.7643 25.2798C54.741 25.2246 54.745 25.1618 54.7749 25.1099L55.6409 25.6099ZM55.6859 24.8917L55.1257 23.5616L54.2041 23.9497L54.7643 25.2798L55.6859 24.8917ZM55.1257 23.5616C54.8113 22.815 54.2615 22.1917 53.5599 21.7866L53.0599 22.6526C53.5726 22.9486 53.9744 23.4041 54.2041 23.9497L55.1257 23.5616ZM53.5599 21.7866L47.2924 18.1681L46.7924 19.0341L53.0599 22.6526L53.5599 21.7866ZM47.2924 18.1681C46.9307 17.9592 46.6573 17.6259 46.5233 17.2303L45.5762 17.5511C45.7881 18.1767 46.2204 18.7039 46.7924 19.0341L47.2924 18.1681ZM46.5233 17.2303C46.3114 16.6047 45.8791 16.0776 45.3071 15.7473L44.8071 16.6133C45.1688 16.8222 45.4422 17.1555 45.5762 17.5511L46.5233 17.2303ZM45.3071 15.7473L44.9515 15.542L44.4515 16.408L44.8071 16.6133L45.3071 15.7473ZM44.9515 15.542C44.4366 15.2447 44.0292 14.7917 43.7881 14.2482L42.874 14.6538C43.201 15.3907 43.7533 16.0049 44.4515 16.408L44.9515 15.542ZM43.7881 14.2482L43.5335 13.6743L42.6194 14.0799L42.874 14.6538L43.7881 14.2482ZM43.5335 13.6743C43.4938 13.5849 43.4518 13.4968 43.4076 13.41L42.5167 13.8642C42.5528 13.935 42.587 14.0069 42.6194 14.0799L43.5335 13.6743ZM24.622 32.3514C24.623 32.3553 24.6222 32.3595 24.6199 32.3629L23.7974 31.7941C23.6358 32.0278 23.5828 32.32 23.6522 32.5956L24.622 32.3514ZM25.4171 35.5087L24.622 32.3514L23.6522 32.5956L24.4474 35.7529L25.4171 35.5087ZM25.6585 35.9999C25.5444 35.855 25.4621 35.6876 25.4171 35.5087L24.4474 35.7529C24.5267 36.0682 24.6717 36.3632 24.8729 36.6186L25.6585 35.9999ZM25.9742 36.4007L25.6585 35.9999L24.8729 36.6186L25.1885 37.0194L25.9742 36.4007ZM26.1547 36.4904C26.0841 36.4891 26.0179 36.4562 25.9742 36.4007L25.1885 37.0194C25.4178 37.3106 25.7658 37.4835 26.1364 37.4903L26.1547 36.4904ZM26.383 36.1827C26.4327 36.3365 26.3163 36.4934 26.1547 36.4904L26.1364 37.4903C26.9843 37.5059 27.5954 36.682 27.3345 35.8751L26.383 36.1827ZM25.3126 32.8719L26.383 36.1827L27.3345 35.8751L26.2641 32.5643L25.3126 32.8719ZM25.0153 32.5454C25.1568 32.6063 25.2652 32.7253 25.3126 32.8719L26.2641 32.5643C26.128 32.1434 25.8168 31.8016 25.4105 31.6268L25.0153 32.5454ZM24.6026 32.3678L25.0152 32.5454L25.4105 31.6268L24.9978 31.4493L24.6026 32.3678ZM24.6199 32.3629C24.616 32.3684 24.6088 32.3705 24.6026 32.3678L24.9978 31.4493C24.5666 31.2637 24.0644 31.408 23.7974 31.7941L24.6199 32.3629ZM43.5114 28.097C43.5138 28.0996 43.5146 28.1014 43.5151 28.1028C43.5157 28.1045 43.5161 28.1069 43.5159 28.1098C43.5157 28.1126 43.5149 28.1149 43.5141 28.1166C43.5135 28.1179 43.5124 28.1196 43.5097 28.1218L44.1503 28.8897C44.5945 28.5191 44.6407 27.8531 44.2518 27.4248L43.5114 28.097ZM43.2938 27.8573L43.5114 28.097L44.2518 27.4248L44.0342 27.1851L43.2938 27.8573ZM42.9787 27.7579C43.0939 27.7318 43.2143 27.7698 43.2938 27.8573L44.0342 27.1851C43.7123 26.8306 43.2245 26.6768 42.7576 26.7827L42.9787 27.7579ZM38.6441 28.7407L42.9787 27.7579L42.7576 26.7827L38.423 27.7654L38.6441 28.7407ZM38.7714 28.6289C38.7507 28.6853 38.7027 28.7274 38.6441 28.7407L38.423 27.7654C38.1512 27.8271 37.9291 28.0221 37.8329 28.2837L38.7714 28.6289ZM38.6958 28.4153C38.7691 28.459 38.8009 28.5488 38.7714 28.6289L37.8329 28.2837C37.6963 28.6551 37.8435 29.0711 38.1833 29.2739L38.6958 28.4153ZM39.4724 28.8789L38.6958 28.4153L38.1833 29.2739L38.9598 29.7375L39.4724 28.8789ZM40.1665 28.9794C39.931 29.0396 39.6811 29.0035 39.4724 28.8789L38.9598 29.7375C39.3973 29.9987 39.9209 30.0745 40.4145 29.9481L40.1665 28.9794ZM43.503 28.1253L40.1665 28.9794L40.4145 29.9481L43.7509 29.094L43.503 28.1253ZM43.5097 28.1218C43.5077 28.1235 43.5054 28.1246 43.503 28.1253L43.7509 29.094C43.8976 29.0565 44.0341 28.9867 44.1503 28.8897L43.5097 28.1218ZM33.6202 41.6645C33.3914 41.5112 33.3598 41.1872 33.5546 40.9926L32.8479 40.2851C32.2071 40.9252 32.3112 41.9911 33.0635 42.4952L33.6202 41.6645ZM34.4579 42.2258L33.6202 41.6645L33.0635 42.4952L33.9013 43.0565L34.4579 42.2258ZM35.1297 42.3949C34.8929 42.4179 34.6555 42.3582 34.4579 42.2258L33.9013 43.0565C34.2912 43.3177 34.7595 43.4356 35.2265 43.3902L35.1297 42.3949ZM35.3922 42.3694L35.1297 42.3949L35.2265 43.3902L35.489 43.3647L35.3922 42.3694ZM35.7084 42.188C35.6339 42.291 35.5187 42.3571 35.3922 42.3694L35.489 43.3647C35.901 43.3246 36.276 43.1096 36.5186 42.7742L35.7084 42.188ZM35.5709 41.5444C35.7985 41.6757 35.8624 41.9751 35.7084 42.188L36.5186 42.7742C37.0201 42.081 36.8119 41.1061 36.0709 40.6783L35.5709 41.5444ZM34.8392 41.1219L35.5709 41.5444L36.0709 40.6783L35.3392 40.2559L34.8392 41.1219ZM34.4851 40.9863C34.6096 41.0126 34.7291 41.0583 34.8392 41.1219L35.3392 40.2559C35.1377 40.1396 34.9191 40.0558 34.6914 40.0078L34.4851 40.9863ZM33.9534 40.8742L34.4851 40.9863L34.6914 40.0078L34.1596 39.8957L33.9534 40.8742ZM33.5546 40.9926C33.659 40.8883 33.809 40.8438 33.9534 40.8742L34.1596 39.8957C33.6847 39.7956 33.1913 39.9421 32.8479 40.2851L33.5546 40.9926ZM28.6161 43.5224C29.6303 43.2392 30.714 43.3496 31.6502 43.8315L32.1078 42.9423C30.9474 42.3451 29.6042 42.2083 28.3472 42.5592L28.6161 43.5224ZM27.8736 43.7297L28.6161 43.5224L28.3472 42.5592L27.6047 42.7665L27.8736 43.7297ZM26.4777 44.8248C26.7792 44.2889 27.2814 43.895 27.8736 43.7297L27.6047 42.7665C26.7569 43.0032 26.0379 43.5672 25.6062 44.3343L26.4777 44.8248ZM26.4311 44.9076L26.4777 44.8247L25.6062 44.3343L25.5596 44.4172L26.4311 44.9076ZM26.225 46.4252C26.0978 45.9115 26.1716 45.3688 26.4311 44.9076L25.5596 44.4172C25.1751 45.1003 25.0659 45.9045 25.2543 46.6655L26.225 46.4252ZM27.1412 47.6879C26.6833 47.402 26.3547 46.9491 26.225 46.4252L25.2543 46.6655C25.4464 47.4417 25.9333 48.1127 26.6116 48.5361L27.1412 47.6879ZM28.5383 48.5601L27.1412 47.6879L26.6116 48.5361L28.0087 49.4084L28.5383 48.5601ZM29.8413 50.4435C29.685 49.663 29.2135 48.9816 28.5383 48.5601L28.0087 49.4084C28.4503 49.684 28.7586 50.1296 28.8608 50.64L29.8413 50.4435ZM30.2783 51.3238C30.0576 51.0741 29.9068 50.7704 29.8413 50.4435L28.8608 50.64C28.9609 51.1398 29.1915 51.6042 29.5291 51.9861L30.2783 51.3238ZM30.7682 51.878L30.2783 51.3238L29.5291 51.9861L30.019 52.5403L30.7682 51.878ZM31.1228 52.1679C30.9898 52.091 30.87 51.9931 30.7682 51.878L30.019 52.5403C30.1923 52.7363 30.3962 52.903 30.6228 53.0339L31.1228 52.1679ZM33.0575 51.6626C32.6595 52.3321 31.7973 52.5573 31.1228 52.1679L30.6228 53.0339C31.7713 53.6969 33.2395 53.3136 33.9171 52.1736L33.0575 51.6626ZM33.7865 50.4362L33.0575 51.6626L33.9171 52.1736L34.6461 50.9472L33.7865 50.4362ZM34.149 49.4491C34.09 49.7977 33.9671 50.1323 33.7865 50.4362L34.6461 50.9472C34.8897 50.5373 35.0555 50.086 35.135 49.6159L34.149 49.4491ZM34.2155 49.0556L34.149 49.4491L35.135 49.6159L35.2015 49.2224L34.2155 49.0556ZM34.1408 47.0345C34.3037 47.696 34.3292 48.3839 34.2155 49.0556L35.2015 49.2224C35.338 48.4158 35.3074 47.5897 35.1118 46.7954L34.1408 47.0345ZM34.0909 46.8316L34.1408 47.0345L35.1118 46.7954L35.0619 46.5925L34.0909 46.8316ZM31.7702 43.8932C32.9321 44.4912 33.7784 45.5628 34.0909 46.8316L35.0619 46.5925C34.6803 45.043 33.6468 43.7343 32.2278 43.0041L31.7702 43.8932ZM31.6502 43.8315L31.7702 43.8932L32.2278 43.0041L32.1078 42.9423L31.6502 43.8315ZM28.2581 38.6624C28.3224 38.7246 28.2929 38.8333 28.2059 38.8544L27.9704 37.8825C27.2915 38.047 27.0608 38.8955 27.5628 39.3812L28.2581 38.6624ZM28.9208 39.3035L28.2581 38.6624L27.5628 39.3812L28.2256 40.0223L28.9208 39.3035ZM29.0959 39.3479C29.0338 39.3653 28.9672 39.3484 28.9208 39.3035L28.2256 40.0223C28.5271 40.314 28.9607 40.4239 29.3649 40.3111L29.0959 39.3479ZM29.2274 39.3112L29.096 39.3479L29.3648 40.3111L29.4962 40.2744L29.2274 39.3112ZM29.274 39.163C29.3166 39.2147 29.2919 39.2932 29.2273 39.3112L29.4963 40.2744C30.2569 40.062 30.548 39.1376 30.0463 38.5277L29.274 39.163ZM29.2257 39.1321C29.2446 39.137 29.2616 39.1478 29.274 39.163L30.0463 38.5277C29.8995 38.3492 29.6999 38.2219 29.4762 38.164L29.2257 39.1321ZM28.1507 38.8539L29.2256 39.1321L29.4762 38.164L28.4013 37.8858L28.1507 38.8539ZM28.2059 38.8544C28.1878 38.8588 28.1688 38.8586 28.1507 38.854L28.4013 37.8858C28.2601 37.8493 28.1121 37.8482 27.9704 37.8825L28.2059 38.8544ZM29.6689 35.4514C29.6613 35.4043 29.66 35.3563 29.665 35.3088L28.6706 35.2034C28.6562 35.3393 28.6599 35.4766 28.6819 35.6116L29.6689 35.4514ZM29.9051 35.8147C29.7788 35.7322 29.6931 35.6003 29.6689 35.4514L28.6819 35.6116C28.751 36.038 28.9965 36.4155 29.3581 36.6518L29.9051 35.8147ZM30.1977 36.0059L29.9051 35.8147L29.3581 36.6518L29.6507 36.843L30.1977 36.0059ZM31.4642 36.1079C31.0521 36.291 30.5752 36.2526 30.1977 36.0059L29.6507 36.843C30.3123 37.2753 31.148 37.3427 31.8702 37.0217L31.4642 36.1079ZM31.7413 35.9848L31.4642 36.1079L31.8702 37.0217L32.1474 36.8986L31.7413 35.9848ZM32.7332 34.945C32.5528 35.4089 32.1962 35.7826 31.7413 35.9848L32.1474 36.8986C32.8435 36.5893 33.3891 36.0174 33.6652 35.3075L32.7332 34.945ZM32.8305 34.6949L32.7332 34.9449L33.6652 35.3075L33.7625 35.0575L32.8305 34.6949ZM33.1761 34.1541C33.0263 34.3098 32.9088 34.4936 32.8305 34.6949L33.7625 35.0575C33.7929 34.9793 33.8384 34.908 33.8966 34.8476L33.1761 34.1541ZM33.6982 33.6117L33.1761 34.1541L33.8966 34.8476L34.4187 34.3053L33.6982 33.6117ZM33.677 33.4872C33.7242 33.511 33.7349 33.5737 33.6982 33.6117L34.4187 34.3052C34.9222 33.7822 34.7755 32.9211 34.1272 32.5943L33.677 33.4872ZM33.6131 33.4842C33.6338 33.4761 33.6571 33.4772 33.677 33.4872L34.1272 32.5943C33.8534 32.4563 33.5337 32.4413 33.2482 32.5532L33.6131 33.4842ZM31.9431 34.1386L33.6131 33.4843L33.2482 32.5532L31.5783 33.2076L31.9431 34.1386ZM31.3403 34.3082C31.5463 34.2718 31.7483 34.215 31.9431 34.1386L31.5782 33.2076C31.4451 33.2597 31.3071 33.2985 31.1663 33.3234L31.3403 34.3082ZM30.405 34.4733L31.3403 34.3082L31.1663 33.3234L30.2311 33.4886L30.405 34.4733ZM29.6701 35.261C29.7122 34.864 30.0119 34.5428 30.405 34.4734L30.2311 33.4886C29.3991 33.6355 28.7648 34.3153 28.6757 35.1555L29.6701 35.261ZM29.665 35.3088L29.6701 35.261L28.6757 35.1555L28.6706 35.2034L29.665 35.3088Z" fill="currentColor" />
  </g>
  <defs>
    <clipPath id="clip0">
      <rect width="80" height="80" fill="currentColor" />
    </clipPath>
  </defs>
</svg>