<svg viewBox="0 0 80 80" fill="none">
  <path d="M29.3929 14.3939C36.1842 11.5808 43.8148 11.5808 50.6061 14.3939V14.3939C57.3974 17.2069 62.7931 22.6026 65.6061 29.3939V29.3939C68.4192 36.1852 68.4192 43.8158 65.6061 50.6071V50.6071C62.7931 57.3984 57.3974 62.794 50.6061 65.6071V65.6071C43.8148 68.4201 36.1842 68.4201 29.3929 65.6071V65.6071C22.6016 62.794 17.206 57.3984 14.3929 50.6071V50.6071C11.5799 43.8158 11.5799 36.1852 14.3929 29.3939V29.3939C17.206 22.6026 22.6016 17.2069 29.3929 14.3939V14.3939Z" stroke="currentColor" stroke-width="5" />
  <path fill-rule="evenodd" clip-rule="evenodd" d="M35.1923 12.6959C33.2205 13.0435 31.2774 13.6064 29.3985 14.3847C24.6079 16.369 20.5117 19.6385 17.5266 23.7765C18.1755 24.064 18.7557 24.5417 19.1769 25.2063L19.7225 26.0673C20.2851 26.955 21.3607 27.3722 22.3747 27.0959C23.49 26.792 24.2289 25.7348 24.1311 24.583L24.0887 24.0828C23.9964 22.9963 24.5015 21.9455 25.4076 21.3389L26.213 20.7996C27.0579 20.2339 27.6241 19.3372 27.7715 18.3312L27.7887 18.2145C28.0396 16.5021 29.5162 15.2378 31.2469 15.2536C32.2084 15.2624 33.1303 14.871 33.7918 14.1731L35.1923 12.6959ZM37.4637 12.3916C39.0634 12.2444 40.673 12.2364 42.2738 12.3679L40.1072 14.7742C39.6539 15.2777 38.9528 15.4782 38.3017 15.2906C37.1514 14.959 36.6553 13.6048 37.3191 12.6086L37.4637 12.3916ZM21.5943 33.4003C20.8148 32.1804 21.5074 30.5585 22.9276 30.2779C23.5642 30.1521 24.2228 30.3344 24.7041 30.7696L30.1209 35.6672C30.979 36.443 31.0158 37.7782 30.2017 38.6001C29.6977 39.109 28.9627 39.3144 28.2679 39.1407L26.5056 38.7002C25.3403 38.4088 24.3306 37.6825 23.6838 36.6703L21.5943 33.4003ZM37.8551 38.0382C36.8267 37.9963 36.0872 37.0332 36.3123 36.0288C36.4812 35.2754 37.1501 34.7398 37.9222 34.7398H43.1339C44.0336 34.7398 44.736 35.5177 44.6445 36.4128C44.6004 36.8444 44.3737 37.2365 44.0217 37.4902L43.6691 37.7444C43.2177 38.0697 42.6702 38.2342 42.1142 38.2116L37.8551 38.0382ZM34.6349 43.2415C35.8984 41.9405 37.6088 41.1678 39.4202 41.0795L39.6607 41.0678C42.0081 40.9534 44.2811 41.908 45.8429 43.6642L47.0275 44.9962C47.9773 46.0643 48.502 47.4439 48.502 48.8732V51.2922C48.502 53.1783 46.9729 54.7074 45.0868 54.7074C44.2213 54.7074 43.388 54.3787 42.7555 53.7879L42.1941 53.2634C41.2008 52.3356 39.8923 51.8195 38.533 51.8195H37.0957C34.7065 51.8195 32.7218 49.9764 32.5454 47.5937C32.449 46.293 32.9139 45.0133 33.8226 44.0777L34.6349 43.2415ZM30.5736 28.2663C29.5477 29.329 29.7533 31.0653 30.9992 31.8589C32.043 32.5238 33.4241 32.2593 34.1484 31.2558L34.3776 30.9382C34.7772 30.3846 34.9566 29.7022 34.881 29.0236L34.7683 28.0123C34.7357 27.7199 34.8032 27.4251 34.9598 27.176L35.0325 27.0602C35.4568 26.3853 35.1157 25.4921 34.3496 25.2716C33.9235 25.1491 33.4645 25.2718 33.1566 25.5908L30.5736 28.2663Z" fill="currentColor" />
  <path d="M29.3985 14.3847L29.2072 13.9227L29.3985 14.3847ZM35.1923 12.6959L35.5552 13.0399C35.7036 12.8833 35.7349 12.6491 35.6327 12.4591C35.5305 12.2691 35.318 12.166 35.1055 12.2035L35.1923 12.6959ZM17.5266 23.7765L17.1211 23.484C17.0329 23.6062 17.0046 23.7617 17.044 23.9071C17.0834 24.0526 17.1863 24.1726 17.3241 24.2336L17.5266 23.7765ZM19.1769 25.2063L18.7545 25.4739L18.7545 25.4739L19.1769 25.2063ZM19.7225 26.0673L20.1448 25.7997L19.7225 26.0673ZM22.3747 27.0959L22.2432 26.6135H22.2432L22.3747 27.0959ZM24.1311 24.583L24.6293 24.5407L24.1311 24.583ZM24.0887 24.0828L23.5905 24.1251L24.0887 24.0828ZM25.4076 21.3389L25.6858 21.7543V21.7543L25.4076 21.3389ZM26.213 20.7996L25.9349 20.3841L26.213 20.7996ZM27.7715 18.3312L28.2663 18.4037V18.4037L27.7715 18.3312ZM27.7887 18.2145L27.2939 18.142V18.142L27.7887 18.2145ZM31.2469 15.2536L31.2423 15.7536L31.2469 15.2536ZM33.7918 14.1731L33.429 13.8292L33.7918 14.1731ZM37.4637 12.3916L37.4178 11.8937C37.2674 11.9076 37.1313 11.9887 37.0476 12.1144L37.4637 12.3916ZM42.2738 12.3679L42.6454 12.7024C42.7726 12.5612 42.8087 12.36 42.7385 12.1834C42.6684 12.0067 42.5042 11.8851 42.3147 11.8696L42.2738 12.3679ZM40.1072 14.7742L39.7357 14.4396V14.4396L40.1072 14.7742ZM38.3017 15.2906L38.1632 15.771L38.3017 15.2906ZM37.3191 12.6086L37.7352 12.8858V12.8858L37.3191 12.6086ZM22.9276 30.2779L23.0245 30.7684L22.9276 30.2779ZM21.5943 33.4003L22.0157 33.1311L21.5943 33.4003ZM24.7041 30.7696L25.0394 30.3987L24.7041 30.7696ZM30.1209 35.6672L30.4562 35.2963L30.1209 35.6672ZM30.2017 38.6001L29.8464 38.2483L30.2017 38.6001ZM28.2679 39.1407L28.1467 39.6258L28.2679 39.1407ZM26.5056 38.7002L26.6269 38.2151L26.5056 38.7002ZM23.6838 36.6703L23.2625 36.9395L23.2625 36.9395L23.6838 36.6703ZM36.3123 36.0288L36.8002 36.1382L36.3123 36.0288ZM37.8551 38.0382L37.8348 38.5377H37.8348L37.8551 38.0382ZM44.6445 36.4128L44.1471 36.3619V36.3619L44.6445 36.4128ZM44.0217 37.4902L43.7294 37.0846L44.0217 37.4902ZM43.6691 37.7444L43.3767 37.3388L43.6691 37.7444ZM42.1142 38.2116L42.1346 37.712L42.1142 38.2116ZM39.4202 41.0795L39.4446 41.5789H39.4446L39.4202 41.0795ZM34.6349 43.2415L34.2762 42.8931V42.8931L34.6349 43.2415ZM39.6607 41.0678L39.6364 40.5684H39.6364L39.6607 41.0678ZM45.8429 43.6642L45.4693 43.9965L45.8429 43.6642ZM47.0275 44.9962L47.4011 44.664L47.4011 44.664L47.0275 44.9962ZM42.7555 53.7879L43.0968 53.4225L42.7555 53.7879ZM42.1941 53.2634L41.8527 53.6288L42.1941 53.2634ZM32.5454 47.5937L33.044 47.5568L32.5454 47.5937ZM33.8226 44.0777L34.1813 44.4261L33.8226 44.0777ZM30.9992 31.8589L31.2678 31.4372L30.9992 31.8589ZM30.5736 28.2663L30.9334 28.6136L30.5736 28.2663ZM34.1484 31.2558L34.5538 31.5485L34.5538 31.5485L34.1484 31.2558ZM34.3776 30.9382L33.9722 30.6456V30.6456L34.3776 30.9382ZM34.881 29.0236L35.3779 28.9682L34.881 29.0236ZM34.7683 28.0123L35.2652 27.9569V27.9569L34.7683 28.0123ZM34.9598 27.176L34.5364 26.91L34.9598 27.176ZM35.0325 27.0602L35.4559 27.3263L35.4559 27.3263L35.0325 27.0602ZM34.3496 25.2716L34.4878 24.7911H34.4878L34.3496 25.2716ZM33.1566 25.5908L32.7969 25.2435L33.1566 25.5908ZM55.3632 54.8713L55.7746 55.1554L55.3632 54.8713ZM56.5233 53.1919L56.1119 52.9077H56.1119L56.5233 53.1919ZM53.7504 51.2819L54.1626 51.565L53.7504 51.2819ZM52.5949 52.9645L53.0071 53.2475L52.5949 52.9645ZM56.2752 50.9935L55.9375 51.3622L55.9375 51.3622L56.2752 50.9935ZM52.6412 54.9316L52.2429 55.2338L52.6412 54.9316ZM29.5899 14.8466C31.4349 14.0824 33.3429 13.5296 35.2791 13.1883L35.1055 12.2035C33.0981 12.5574 31.1199 13.1305 29.2072 13.9227L29.5899 14.8466ZM17.9321 24.069C20.8633 20.0057 24.8856 16.7952 29.5899 14.8466L29.2072 13.9227C24.3301 15.9429 20.16 19.2714 17.1211 23.484L17.9321 24.069ZM17.3241 24.2336C17.8852 24.4822 18.3878 24.8951 18.7545 25.4739L19.5992 24.9387C19.1236 24.1882 18.4659 23.6458 17.7291 23.3193L17.3241 24.2336ZM18.7545 25.4739L19.3002 26.3349L20.1448 25.7997L19.5992 24.9387L18.7545 25.4739ZM19.3002 26.3349C19.9802 27.408 21.2804 27.9123 22.5062 27.5783L22.2432 26.6135C21.441 26.8321 20.5899 26.502 20.1448 25.7997L19.3002 26.3349ZM22.5062 27.5783C23.8543 27.2109 24.7475 25.933 24.6293 24.5407L23.6329 24.6253C23.7103 25.5366 23.1256 26.373 22.2432 26.6135L22.5062 27.5783ZM24.6293 24.5407L24.5869 24.0405L23.5905 24.1251L23.6329 24.6253L24.6293 24.5407ZM24.5869 24.0405C24.51 23.1353 24.9309 22.2598 25.6858 21.7543L25.1294 20.9234C24.0722 21.6312 23.4829 22.8574 23.5905 24.1251L24.5869 24.0405ZM25.6858 21.7543L26.4912 21.2151L25.9349 20.3841L25.1294 20.9234L25.6858 21.7543ZM26.4912 21.2151C27.4535 20.5708 28.0983 19.5495 28.2663 18.4037L27.2768 18.2587C27.1499 19.1249 26.6624 19.897 25.9349 20.3841L26.4912 21.2151ZM28.2663 18.4037L28.2834 18.287L27.2939 18.142L27.2768 18.2587L28.2663 18.4037ZM28.2834 18.287C28.4981 16.8218 29.7615 15.7401 31.2423 15.7536L31.2514 14.7536C29.271 14.7356 27.5812 16.1823 27.2939 18.142L28.2834 18.287ZM31.2423 15.7536C32.3427 15.7636 33.3977 15.3157 34.1547 14.5171L33.429 13.8292C32.8629 14.4262 32.0741 14.7611 31.2514 14.7536L31.2423 15.7536ZM34.1547 14.5171L35.5552 13.0399L34.8294 12.3519L33.429 13.8292L34.1547 14.5171ZM37.5095 12.8895C39.0804 12.7449 40.6609 12.7371 42.2329 12.8662L42.3147 11.8696C40.685 11.7358 39.0465 11.7438 37.4178 11.8937L37.5095 12.8895ZM40.4788 15.1088L42.6454 12.7024L41.9022 12.0333L39.7357 14.4396L40.4788 15.1088ZM38.1632 15.771C38.9982 16.0117 39.8974 15.7546 40.4788 15.1088L39.7357 14.4396C39.4104 14.8009 38.9074 14.9448 38.4402 14.8101L38.1632 15.771ZM36.903 12.3313C36.0517 13.609 36.6879 15.3457 38.1632 15.771L38.4402 14.8101C37.6149 14.5722 37.2589 13.6006 37.7352 12.8858L36.903 12.3313ZM37.0476 12.1144L36.903 12.3313L37.7352 12.8858L37.8798 12.6689L37.0476 12.1144ZM22.8307 29.7874C21.0649 30.1363 20.2039 32.1528 21.173 33.6695L22.0157 33.1311C21.4258 32.208 21.9499 30.9807 23.0245 30.7684L22.8307 29.7874ZM25.0394 30.3987C24.441 29.8576 23.6221 29.631 22.8307 29.7874L23.0245 30.7684C23.5062 30.6732 24.0045 30.8111 24.3688 31.1404L25.0394 30.3987ZM30.4562 35.2963L25.0394 30.3987L24.3688 31.1404L29.7855 36.038L30.4562 35.2963ZM30.5569 38.952C31.5716 37.9275 31.5258 36.2633 30.4562 35.2963L29.7855 36.038C30.4322 36.6227 30.4599 37.6289 29.8464 38.2483L30.5569 38.952ZM28.1467 39.6258C29.0127 39.8423 29.9287 39.5862 30.5569 38.952L29.8464 38.2483C29.4666 38.6317 28.9128 38.7866 28.3892 38.6557L28.1467 39.6258ZM26.3844 39.1853L28.1467 39.6258L28.3892 38.6557L26.6269 38.2151L26.3844 39.1853ZM23.2625 36.9395C23.978 38.0594 25.0951 38.8629 26.3844 39.1853L26.6269 38.2151C25.5855 37.9548 24.6831 37.3057 24.1051 36.4011L23.2625 36.9395ZM21.173 33.6695L23.2625 36.9395L24.1051 36.4011L22.0157 33.1311L21.173 33.6695ZM35.8244 35.9195C35.5311 37.2283 36.4946 38.4832 37.8348 38.5377L37.8755 37.5386C37.1587 37.5094 36.6433 36.8382 36.8002 36.1382L35.8244 35.9195ZM37.9222 34.2398C36.9161 34.2398 36.0445 34.9377 35.8244 35.9195L36.8002 36.1382C36.9179 35.6131 37.3841 35.2398 37.9222 35.2398V34.2398ZM43.1339 34.2398H37.9222V35.2398H43.1339V34.2398ZM45.1419 36.4636C45.2636 35.2739 44.3299 34.2398 43.1339 34.2398V35.2398C43.7374 35.2398 44.2085 35.7616 44.1471 36.3619L45.1419 36.4636ZM44.3141 37.8958C44.782 37.5586 45.0833 37.0374 45.1419 36.4636L44.1471 36.3619C44.1175 36.6514 43.9655 36.9144 43.7294 37.0846L44.3141 37.8958ZM43.9614 38.15L44.3141 37.8958L43.7294 37.0846L43.3767 37.3388L43.9614 38.15ZM42.0939 38.7112C42.7617 38.7384 43.4192 38.5408 43.9614 38.15L43.3767 37.3388C43.0161 37.5987 42.5787 37.7301 42.1346 37.712L42.0939 38.7112ZM37.8348 38.5377L42.0939 38.7112L42.1346 37.712L37.8755 37.5386L37.8348 38.5377ZM39.3959 40.5801C37.4579 40.6746 35.628 41.5013 34.2762 42.8931L34.9935 43.5898C36.1688 42.3798 37.7597 41.661 39.4446 41.5789L39.3959 40.5801ZM39.6364 40.5684L39.3959 40.5801L39.4446 41.5789L39.685 41.5672L39.6364 40.5684ZM46.2166 43.332C44.5542 41.4627 42.1349 40.4466 39.6364 40.5684L39.685 41.5672C41.8814 41.4601 44.008 42.3533 45.4693 43.9965L46.2166 43.332ZM47.4011 44.664L46.2166 43.332L45.4693 43.9965L46.6538 45.3285L47.4011 44.664ZM49.002 48.8732C49.002 47.3214 48.4323 45.8236 47.4011 44.664L46.6538 45.3285C47.5223 46.305 48.002 47.5664 48.002 48.8732H49.002ZM49.002 51.2922V48.8732H48.002V51.2922H49.002ZM45.0868 55.2074C47.2491 55.2074 49.002 53.4545 49.002 51.2922H48.002C48.002 52.9022 46.6968 54.2074 45.0868 54.2074V55.2074ZM42.4142 54.1533C43.1393 54.8306 44.0945 55.2074 45.0868 55.2074V54.2074C44.348 54.2074 43.6367 53.9268 43.0968 53.4225L42.4142 54.1533ZM41.8527 53.6288L42.4142 54.1533L43.0968 53.4225L42.5354 52.8981L41.8527 53.6288ZM38.533 52.3195C39.7655 52.3195 40.9521 52.7875 41.8527 53.6288L42.5354 52.8981C41.4495 51.8837 40.019 51.3195 38.533 51.3195V52.3195ZM37.0957 52.3195H38.533V51.3195H37.0957V52.3195ZM32.0467 47.6306C32.2425 50.2744 34.4447 52.3195 37.0957 52.3195V51.3195C34.9683 51.3195 33.2011 49.6784 33.044 47.5568L32.0467 47.6306ZM33.464 43.7294C32.4557 44.7675 31.9399 46.1874 32.0467 47.6306L33.044 47.5568C32.9582 46.3986 33.3722 45.2591 34.1813 44.4261L33.464 43.7294ZM34.2762 42.8931L33.464 43.7294L34.1813 44.4261L34.9935 43.5898L34.2762 42.8931ZM31.2678 31.4372C30.2886 30.8135 30.127 29.4489 30.9334 28.6136L30.2139 27.919C28.9683 29.2092 29.218 31.3172 30.7306 32.2806L31.2678 31.4372ZM33.7429 30.9632C33.1737 31.7519 32.0882 31.9598 31.2678 31.4372L30.7306 32.2806C31.9977 33.0878 33.6745 32.7667 34.5538 31.5485L33.7429 30.9632ZM33.9722 30.6456L33.7429 30.9632L34.5538 31.5485L34.783 31.2308L33.9722 30.6456ZM34.3841 29.079C34.4459 29.6342 34.2991 30.1926 33.9722 30.6456L34.783 31.2309C35.2552 30.5766 35.4673 29.7701 35.3779 28.9682L34.3841 29.079ZM34.2714 28.0676L34.3841 29.079L35.3779 28.9682L35.2652 27.9569L34.2714 28.0676ZM34.5364 26.91C34.3197 27.2548 34.2263 27.6629 34.2714 28.0676L35.2652 27.9569C35.2452 27.7769 35.2867 27.5954 35.3831 27.4421L34.5364 26.91ZM34.6092 26.7942L34.5364 26.91L35.3831 27.4421L35.4559 27.3263L34.6092 26.7942ZM34.2113 25.7522C34.6577 25.8806 34.8564 26.401 34.6092 26.7942L35.4559 27.3263C36.0572 26.3697 35.5737 25.1036 34.4878 24.7911L34.2113 25.7522ZM33.5163 25.9381C33.6957 25.7523 33.9631 25.6807 34.2113 25.7522L34.4878 24.7911C33.8839 24.6174 33.2334 24.7914 32.7969 25.2435L33.5163 25.9381ZM30.9334 28.6136L33.5163 25.9381L32.7969 25.2435L30.2139 27.919L30.9334 28.6136ZM55.7746 55.1554L56.9347 53.4761L56.1119 52.9077L54.9518 54.5871L55.7746 55.1554ZM53.3382 50.9989L52.1827 52.6814L53.0071 53.2475L54.1626 51.565L53.3382 50.9989ZM56.6128 50.6247C55.6343 49.7286 54.0894 49.9052 53.3382 50.9989L54.1626 51.565C54.5697 50.9722 55.4071 50.8765 55.9375 51.3622L56.6128 50.6247ZM56.9347 53.4761C57.5547 52.5787 57.4173 51.3614 56.6128 50.6247L55.9375 51.3622C56.3735 51.7615 56.448 52.4213 56.1119 52.9077L56.9347 53.4761ZM52.2429 55.2338C53.1399 56.4165 54.9309 56.3768 55.7746 55.1554L54.9518 54.5871C54.495 55.2484 53.5253 55.2699 53.0396 54.6295L52.2429 55.2338ZM53.0396 54.6295C52.732 54.224 52.7189 53.667 53.0071 53.2475L52.1827 52.6814C51.6506 53.4562 51.6748 54.4849 52.2429 55.2338L53.0396 54.6295Z" fill="currentColor" />
</svg>