<svg viewBox="0 0 80 80" fill="none">
  <path d="M36.5 60.1082C36.5 60.9366 37.1716 61.6082 38 61.6082C38.8284 61.6082 39.5 60.9366 39.5 60.1082H36.5ZM39.5 20.1082C39.5 19.2797 38.8284 18.6082 38 18.6082C37.1716 18.6082 36.5 19.2797 36.5 20.1082H39.5ZM8.5 60.1082C8.5 60.9366 9.17157 61.6082 10 61.6082C10.8284 61.6082 11.5 60.9366 11.5 60.1082H8.5ZM11.5 20.1082C11.5 19.2797 10.8284 18.6082 10 18.6082C9.17157 18.6082 8.5 19.2797 8.5 20.1082H11.5ZM10 38.6082C9.17157 38.6082 8.5 39.2797 8.5 40.1082C8.5 40.9366 9.17157 41.6082 10 41.6082V38.6082ZM38 41.6082C38.8284 41.6082 39.5 40.9366 39.5 40.1082C39.5 39.2797 38.8284 38.6082 38 38.6082V41.6082ZM39.5 60.1082V20.1082H36.5V60.1082H39.5ZM11.5 60.1082V20.1082H8.5V60.1082H11.5ZM10 41.6082H38V38.6082H10V41.6082Z" fill="currentColor" />
  <path d="M54.9391 26.9395C54.3534 27.5254 54.3537 28.4752 54.9396 29.0608C55.5255 29.6465 56.4753 29.6463 57.0609 29.0603L54.9391 26.9395ZM63.7791 20.2172L64.84 21.2776L64.84 21.2776L63.7791 20.2172ZM62.4962 59.9999C62.4962 60.8284 63.1678 61.4999 63.9962 61.4999C64.8247 61.4999 65.4962 60.8284 65.4962 59.9999H62.4962ZM57.0609 29.0603L64.84 21.2776L62.7182 19.1568L54.9391 26.9395L57.0609 29.0603ZM62.4962 20.3072V59.9999H65.4962V20.3072H62.4962ZM64.84 21.2776C63.9753 22.1428 62.4962 21.5303 62.4962 20.3072H65.4962C65.4962 18.8573 63.7431 18.1314 62.7182 19.1568L64.84 21.2776Z" fill="currentColor" />
</svg>