<svg viewBox="0 0 80 80" fill="none">
  <path d="M35 60.1082C35 61.765 36.3431 63.1082 38 63.1082C39.6569 63.1082 41 61.765 41 60.1082H35ZM41 20.1082C41 18.4513 39.6569 17.1082 38 17.1082C36.3431 17.1082 35 18.4513 35 20.1082H41ZM7 60.1082C7 61.765 8.34315 63.1082 10 63.1082C11.6569 63.1082 13 61.765 13 60.1082H7ZM13 20.1082C13 18.4513 11.6569 17.1082 10 17.1082C8.34315 17.1082 7 18.4513 7 20.1082H13ZM10 37.1082C8.34315 37.1082 7 38.4513 7 40.1082C7 41.765 8.34315 43.1082 10 43.1082V37.1082ZM38 43.1082C39.6569 43.1082 41 41.765 41 40.1082C41 38.4513 39.6569 37.1082 38 37.1082V43.1082ZM41 60.1082V20.1082H35V60.1082H41ZM13 60.1082V20.1082H7V60.1082H13ZM10 43.1082H38V37.1082H10V43.1082Z" fill="currentColor" />
  <path d="M51.6667 17C50.0098 17 48.6667 18.3431 48.6667 20C48.6667 21.6569 50.0098 23 51.6667 23V17ZM70 63C71.6569 63 73 61.6569 73 60C73 58.3431 71.6569 57 70 57V63ZM64.8754 37.5623L63.5337 34.879L64.8754 37.5623ZM60 40L61.3416 42.6833L60 40ZM51.6667 23H60.7295V17H51.6667V23ZM50.8333 63H70V57H50.8333V63ZM63.5337 34.879L58.6584 37.3167L61.3416 42.6833L66.217 40.2456L63.5337 34.879ZM47 56.1803V59.1667H53V56.1803H47ZM50.8333 57C52.03 57 53 57.9701 53 59.1667H47C47 61.2838 48.7162 63 50.8333 63V57ZM58.6584 37.3167C51.5134 40.8892 47 48.192 47 56.1803H53C53 50.4646 56.2293 45.2394 61.3416 42.6833L58.6584 37.3167ZM67 29.2705C67 31.6456 65.6581 33.8168 63.5337 34.879L66.217 40.2456C70.3741 38.1671 73 33.9182 73 29.2705H67ZM60.7295 23C64.1926 23 67 25.8074 67 29.2705H73C73 22.4937 67.5063 17 60.7295 17V23Z" fill="currentColor" />
</svg>