<svg viewBox="0 0 80 80" fill="none">
  <path d="M36.5 60.1082C36.5 60.9366 37.1716 61.6082 38 61.6082C38.8284 61.6082 39.5 60.9366 39.5 60.1082H36.5ZM39.5 20.1082C39.5 19.2797 38.8284 18.6082 38 18.6082C37.1716 18.6082 36.5 19.2797 36.5 20.1082H39.5ZM8.5 60.1082C8.5 60.9366 9.17157 61.6082 10 61.6082C10.8284 61.6082 11.5 60.9366 11.5 60.1082H8.5ZM11.5 20.1082C11.5 19.2797 10.8284 18.6082 10 18.6082C9.17157 18.6082 8.5 19.2797 8.5 20.1082H11.5ZM10 38.6082C9.17157 38.6082 8.5 39.2797 8.5 40.1082C8.5 40.9366 9.17157 41.6082 10 41.6082V38.6082ZM38 41.6082C38.8284 41.6082 39.5 40.9366 39.5 40.1082C39.5 39.2797 38.8284 38.6082 38 38.6082V41.6082ZM39.5 60.1082V20.1082H36.5V60.1082H39.5ZM11.5 60.1082V20.1082H8.5V60.1082H11.5ZM10 41.6082H38V38.6082H10V41.6082Z" fill="currentColor" />
  <path d="M50.4958 46.3305L51.7012 47.2233H51.7012L50.4958 46.3305ZM69.5038 20.6697L70.7091 21.5626L69.5038 20.6697ZM69.9998 47.0001V48.5001C70.8282 48.5001 71.4998 47.8285 71.4998 47.0001H69.9998ZM71.4998 47.0001C71.4998 46.1717 70.8282 45.5001 69.9998 45.5001C69.1714 45.5001 68.4998 46.1717 68.4998 47.0001H71.4998ZM68.4998 60.0001C68.4998 60.8285 69.1714 61.5001 69.9998 61.5001C70.8282 61.5001 71.4998 60.8285 71.4998 60.0001H68.4998ZM72.9998 48.5002C73.8282 48.5002 74.4998 47.8286 74.4998 47.0002C74.4998 46.1718 73.8282 45.5002 72.9998 45.5002V48.5002ZM69.9998 45.5002C69.1714 45.5002 68.4998 46.1718 68.4998 47.0002C68.4998 47.8286 69.1714 48.5002 69.9998 48.5002V45.5002ZM51.7012 47.2233L70.7091 21.5626L68.2984 19.7769L49.2905 45.4376L51.7012 47.2233ZM50.8331 45.5001C51.7203 45.5001 52.2292 46.5104 51.7012 47.2233L49.2905 45.4376C48.352 46.7046 49.2564 48.5001 50.8331 48.5001V45.5001ZM69.9998 45.5001H50.8331V48.5001H69.9998V45.5001ZM68.4998 20.8334V47.0001H71.4998V20.8334H68.4998ZM70.7091 21.5626C70.0062 22.5115 68.4998 22.0143 68.4998 20.8334H71.4998C71.4998 19.1222 69.317 18.4018 68.2984 19.7769L70.7091 21.5626ZM68.4998 47.0001V60.0001H71.4998V47.0001H68.4998ZM72.9998 45.5002H69.9998V48.5002H72.9998V45.5002Z" fill="currentColor" />
</svg>