<svg viewBox="0 0 80 80" fill="none">
  <path fill-rule="evenodd" clip-rule="evenodd" d="M37.0086 10.5C30.9869 10.5 25.185 12.7629 20.7534 16.8399L20.0112 17.5228C15.5427 21.6338 13 27.4282 13 33.5C13 39.5718 15.5427 45.3662 20.0112 49.4772L20.7534 50.1601C21.5101 50.8562 22.3068 51.4995 23.1377 52.0877V69.752H47.1377V58.752H52.6169C55.7374 58.752 58.337 56.36 58.5962 53.2502L59.242 45.5H59.3823H64.3785C65.6981 45.5 66.6561 44.2444 66.3074 42.9716L62.6518 29.6265C61.8144 25.0085 59.4941 20.7477 55.9888 17.5228L55.2466 16.8399C50.815 12.7629 45.0131 10.5 38.9914 10.5H37.0086ZM56.4552 30.1362C56.6134 30.7691 56.344 31.4087 55.8298 31.75C56.3992 32.1273 56.6545 32.8599 56.4045 33.5267C56.1136 34.3024 55.249 34.6954 54.4733 34.4045L52.4036 33.6284C50.4356 32.8903 50.5971 30.0546 52.6362 29.5448L54.6362 29.0448C55.4399 28.8439 56.2543 29.3325 56.4552 30.1362Z" fill="currentColor" />
</svg>