<svg viewBox="0 0 80 80" fill="none">
  <path fill-rule="evenodd" clip-rule="evenodd" d="M12.4582 30.6973C12.4582 26.9843 13.9332 23.4233 16.5587 20.7978C19.1842 18.1723 22.7452 16.6973 26.4582 16.6973C29.9751 16.6973 33.3556 18.0206 35.934 20.3915L32.0763 29.8895C31.85 30.4466 32.1631 31.0761 32.7439 31.2317L37.4545 32.4939L38.8078 32.8565L39.4185 33.0202C40.0222 33.1819 40.3312 33.8516 40.0626 34.4159L34.0151 47.1215C33.8487 47.471 34.3208 47.7682 34.564 47.4671L48.6801 29.9915C49.1346 29.4288 48.8597 28.5845 48.161 28.3972L44.9638 27.5405L43.5193 27.1535L42.342 26.838C42.1723 26.7926 42.0885 26.6014 42.1701 26.4458L46.6719 17.8627C46.7021 17.8052 46.726 17.7464 46.7441 17.687C48.3738 17.0394 50.1262 16.6975 51.9139 16.6975C55.6269 16.6975 59.1879 18.1725 61.8134 20.798C64.4389 23.4235 65.9139 26.9844 65.9139 30.6975C65.9139 34.4105 64.4389 37.9715 61.8134 40.597L47.6714 54.7389L40.6003 61.81L40.6002 61.8102C39.8191 62.5912 38.5528 62.5912 37.7718 61.8102L30.7007 54.7391L30.6395 54.6776L16.5587 40.5968C13.9332 37.9713 12.4582 34.4103 12.4582 30.6973Z" fill="currentColor" />
</svg>