<svg viewBox="0 0 80 80" fill="none">
  <path fill-rule="evenodd" clip-rule="evenodd" d="M14.9092 32.232C14.9092 28.697 16.3172 25.3068 18.8235 22.8072C21.3297 20.3076 24.729 18.9033 28.2734 18.9033C31.8178 18.9033 35.217 20.3076 37.7233 22.8072L40.4232 25.5L43.1231 22.8074C45.6293 20.3077 49.0286 18.9035 52.573 18.9035C56.1174 18.9035 59.5166 20.3077 62.0229 22.8074C64.5291 25.307 65.9371 28.6972 65.9371 32.2322C65.9371 35.7672 64.5291 39.1574 62.0229 41.657L61.779 41.9002C61.3264 41.4462 60.7003 41.1652 60.0085 41.1652H57.4811L50.9356 26.915C49.6476 24.1109 45.6247 24.2246 44.4971 27.0969L43.6878 29.1585L36.576 47.2745L33.0758 37.4177C32.0394 34.499 28.0018 34.2658 26.6362 37.0457L25.8041 38.7397L24.6126 41.1652H20.8377C20.146 41.1652 19.5199 41.4461 19.0673 41.9001L18.8235 41.6569C16.3172 39.1572 14.9092 35.767 14.9092 32.232ZM23.3439 46.1652L32.7911 55.5875L32.852 55.6485L39.007 61.7872C39.7891 62.5672 41.0571 62.5672 41.8392 61.7872L41.8393 61.787L47.9943 55.6483L57.5026 46.1652H56.5195C55.152 46.1652 53.9097 45.3688 53.3389 44.1262L47.8632 32.2051L39.7636 52.8377C38.5804 55.8516 34.2909 55.7811 33.2074 52.7299L32.6642 51.2003L29.5549 42.4443L28.6884 44.2084L26.6013 43.1832L28.6884 44.2084C28.0999 45.4063 26.8815 46.1652 25.5469 46.1652H23.3439Z" fill="currentColor" />
</svg>