<svg viewBox="0 0 80 80" fill="none">
  <path d="M28.2716 64.1838L29.4197 61.4121L29.4197 61.4122L28.2716 64.1838ZM29.1692 64.5556L30.3172 61.7839L30.3172 61.7839L29.1692 64.5556ZM29.1691 16.7566L30.3172 19.5282L30.3172 19.5282L29.1691 16.7566ZM24.767 22.8112C23.4741 23.8474 21.5861 23.6394 20.5498 22.3466C19.5136 21.0537 19.7217 19.1657 21.0145 18.1295L24.767 22.8112ZM48.9681 16.7566L50.1162 13.9849L48.9681 16.7566ZM62.9681 30.7566L65.7398 29.6085L65.7398 29.6085L62.9681 30.7566ZM62.9681 50.5556L65.7398 51.7036L65.7398 51.7036L62.9681 50.5556ZM48.9681 64.5556L50.1162 67.3272L48.9681 64.5556ZM25.8344 66.3808C24.3395 65.6663 23.7069 63.8752 24.4215 62.3803C25.136 60.8855 26.9271 60.2529 28.4219 60.9674L25.8344 66.3808ZM29.4197 61.4122L30.3172 61.7839L28.0211 67.3272L27.1236 66.9554L29.4197 61.4122ZM30.3172 19.5282C28.3031 20.3625 26.4379 21.472 24.767 22.8112L21.0145 18.1295C23.124 16.4387 25.4788 15.038 28.0211 13.9849L30.3172 19.5282ZM47.8201 19.5282C42.2166 17.2072 35.9207 17.2072 30.3172 19.5282L28.0211 13.9849C35.0947 11.055 43.0426 11.055 50.1162 13.9849L47.8201 19.5282ZM60.1965 31.9046C57.8755 26.3012 53.4235 21.8492 47.8201 19.5282L50.1162 13.9849C57.1898 16.9149 62.8098 22.5349 65.7398 29.6085L60.1965 31.9046ZM60.1965 49.4075C62.5175 43.8041 62.5175 37.5081 60.1965 31.9046L65.7398 29.6085C68.6698 36.6822 68.6698 44.63 65.7398 51.7036L60.1965 49.4075ZM47.8201 61.7839C53.4236 59.4629 57.8755 55.011 60.1965 49.4075L65.7398 51.7036C62.8098 58.7772 57.1898 64.3972 50.1162 67.3272L47.8201 61.7839ZM30.3172 61.7839C35.9207 64.105 42.2166 64.105 47.8201 61.7839L50.1162 67.3272C43.0426 70.2572 35.0947 70.2572 28.0211 67.3272L30.3172 61.7839ZM27.1236 66.9554C26.6877 66.7749 26.2579 66.5833 25.8344 66.3808L28.4219 60.9674C28.7497 61.1241 29.0823 61.2724 29.4197 61.4121L27.1236 66.9554Z" fill="currentColor" />
  <path d="M29.3364 26.916L17.4517 15.0312C16.2523 13.8319 14.2017 14.6813 14.2017 16.3774L14.2017 28.166C14.2017 29.2706 15.0971 30.166 16.2017 30.166L27.9903 30.166C29.6864 30.166 30.5358 28.1154 29.3364 26.916Z" fill="currentColor" stroke="currentColor" stroke-width="6" stroke-linecap="round" stroke-linejoin="round" />
  <path d="M37.4469 35.9203C36.4388 37.2352 36.6876 39.1184 38.0025 40.1264C39.3174 41.1345 41.2005 40.8857 42.2086 39.5708L37.4469 35.9203ZM47.2655 32.9747C48.2736 31.6598 48.0248 29.7766 46.7099 28.7686C45.395 27.7605 43.5119 28.0092 42.5038 29.3241L47.2655 32.9747ZM42.0924 39.0146C40.6541 38.1922 38.8214 38.6916 37.999 40.1299C37.1766 41.5683 37.676 43.401 39.1144 44.2233L42.0924 39.0146ZM50.3998 50.6757C51.8382 51.4981 53.6708 50.9987 54.4932 49.5603C55.3156 48.122 54.8162 46.2893 53.3779 45.4669L50.3998 50.6757ZM38.001 40.1255V34.1255C34.6873 34.1255 32.001 36.8117 32.001 40.1255H38.001ZM38.001 40.1255H32.001C32.001 43.4392 34.6873 46.1255 38.001 46.1255V40.1255ZM38.001 40.1255V46.1255C41.3147 46.1255 44.001 43.4392 44.001 40.1255H38.001ZM38.001 40.1255H44.001C44.001 36.8117 41.3147 34.1255 38.001 34.1255V40.1255ZM42.2086 39.5708L47.2655 32.9747L42.5038 29.3241L37.4469 35.9203L42.2086 39.5708ZM39.1144 44.2233L50.3998 50.6757L53.3779 45.4669L42.0924 39.0146L39.1144 44.2233Z" fill="currentColor" />
</svg>