<svg viewBox="0 0 80 80" fill="none">
  <path d="M29.1692 16.7566L30.3172 19.5282L30.3172 19.5282L29.1692 16.7566ZM24.8417 22.7516C23.5445 23.7824 21.6573 23.5665 20.6265 22.2693C19.5957 20.9722 19.8116 19.085 21.1088 18.0542L24.8417 22.7516ZM21.0937 18.0662C22.3901 17.0346 24.2774 17.2492 25.3091 18.5457C26.3408 19.8422 26.1261 21.7295 24.8297 22.7612L21.0937 18.0662ZM24.767 22.8112C23.4741 23.8474 21.5861 23.6394 20.5499 22.3466C19.5136 21.0537 19.7217 19.1657 21.0145 18.1295L24.767 22.8112ZM14.4637 25.5563C15.3304 24.1442 17.1776 23.7019 18.5898 24.5685C20.0019 25.4351 20.4442 27.2824 19.5776 28.6946L14.4637 25.5563ZM18.7426 30.1761C17.9834 31.6488 16.1741 32.2272 14.7014 31.4679C13.2288 30.7087 12.6504 28.8994 13.4096 27.4267L18.7426 30.1761ZM48.9681 16.7566L47.8201 19.5282L48.9681 16.7566ZM62.9681 30.7566L65.7398 29.6085L65.7398 29.6085L62.9681 30.7566ZM62.9681 50.5556L65.7398 51.7036L65.7398 51.7036L62.9681 50.5556ZM48.9681 64.5556L50.1162 67.3272L48.9681 64.5556ZM29.1692 64.5556L28.0211 67.3272L29.1692 64.5556ZM25.7753 66.282C24.3046 65.5191 23.7307 63.7084 24.4936 62.2376C25.2565 60.7669 27.0672 60.193 28.538 60.9559L25.7753 66.282ZM30.3172 19.5282C28.333 20.3501 26.4934 21.439 24.8417 22.7516L21.1088 18.0542C23.1941 16.3971 25.5166 15.0223 28.0211 13.9849L30.3172 19.5282ZM24.8297 22.7612C24.8087 22.7778 24.7878 22.7945 24.767 22.8112L21.0145 18.1295C21.0409 18.1083 21.0672 18.0873 21.0937 18.0662L24.8297 22.7612ZM19.5776 28.6946C19.2817 29.1767 19.0031 29.6708 18.7426 30.1761L13.4096 27.4267C13.7385 26.7888 14.0902 26.165 14.4637 25.5563L19.5776 28.6946ZM47.8201 19.5282C42.2166 17.2072 35.9207 17.2072 30.3172 19.5282L28.0211 13.9849C35.0947 11.0549 43.0426 11.0549 50.1162 13.9849L47.8201 19.5282ZM60.1965 31.9046C57.8755 26.3012 53.4236 21.8492 47.8201 19.5282L50.1162 13.9849C57.1898 16.9149 62.8098 22.5349 65.7398 29.6085L60.1965 31.9046ZM60.1965 49.4075C62.5175 43.8041 62.5175 37.5081 60.1965 31.9046L65.7398 29.6085C68.6698 36.6822 68.6698 44.63 65.7398 51.7036L60.1965 49.4075ZM47.8201 61.7839C53.4236 59.4629 57.8755 55.011 60.1965 49.4075L65.7398 51.7036C62.8098 58.7772 57.1898 64.3972 50.1162 67.3272L47.8201 61.7839ZM30.3172 61.7839C35.9207 64.105 42.2166 64.105 47.8201 61.7839L50.1162 67.3272C43.0426 70.2572 35.0947 70.2572 28.0211 67.3272L30.3172 61.7839ZM28.0211 67.3272C27.255 67.0099 26.5059 66.661 25.7753 66.282L28.538 60.9559C29.1167 61.256 29.7101 61.5325 30.3172 61.7839L28.0211 67.3272Z" fill="currentColor" />
  <path d="M29.3364 26.916L17.4517 15.0312C16.2523 13.8319 14.2017 14.6813 14.2017 16.3774L14.2017 28.166C14.2017 29.2706 15.0971 30.166 16.2017 30.166L27.9903 30.166C29.6864 30.166 30.5358 28.1154 29.3364 26.916Z" fill="currentColor" stroke="currentColor" stroke-width="6" stroke-linecap="round" stroke-linejoin="round" />
  <path d="M37.4469 35.9203C36.4388 37.2352 36.6876 39.1184 38.0025 40.1264C39.3174 41.1345 41.2005 40.8857 42.2086 39.5708L37.4469 35.9203ZM47.2655 32.9747C48.2736 31.6598 48.0248 29.7766 46.7099 28.7686C45.395 27.7605 43.5119 28.0092 42.5038 29.3241L47.2655 32.9747ZM42.0924 39.0146C40.6541 38.1922 38.8214 38.6916 37.999 40.1299C37.1766 41.5683 37.676 43.401 39.1144 44.2233L42.0924 39.0146ZM50.3998 50.6757C51.8382 51.4981 53.6708 50.9987 54.4932 49.5603C55.3156 48.122 54.8162 46.2893 53.3779 45.4669L50.3998 50.6757ZM38.001 40.1255V34.1255C34.6873 34.1255 32.001 36.8117 32.001 40.1255H38.001ZM38.001 40.1255H32.001C32.001 43.4392 34.6873 46.1255 38.001 46.1255V40.1255ZM38.001 40.1255V46.1255C41.3147 46.1255 44.001 43.4392 44.001 40.1255H38.001ZM38.001 40.1255H44.001C44.001 36.8117 41.3147 34.1255 38.001 34.1255V40.1255ZM42.2086 39.5708L47.2655 32.9747L42.5038 29.3241L37.4469 35.9203L42.2086 39.5708ZM39.1144 44.2233L50.3998 50.6757L53.3779 45.4669L42.0924 39.0146L39.1144 44.2233Z" fill="currentColor" />
</svg>