<svg viewBox="0 0 80 80" fill="none">
  <path fill-rule="evenodd" clip-rule="evenodd" d="M40 18L60 34L60 62L20 62L20 34L40 18ZM46 50V38H34L34 50L46 50Z" fill="currentColor" />
  <path d="M60 34H62C62 33.3924 61.7238 32.8178 61.2494 32.4383L60 34ZM40 18L41.2494 16.4383C40.519 15.8539 39.481 15.8539 38.7506 16.4383L40 18ZM60 62V64C61.1046 64 62 63.1046 62 62H60ZM20 62H18C18 63.1046 18.8954 64 20 64V62ZM20 34L18.7506 32.4383C18.2762 32.8178 18 33.3924 18 34H20ZM46 38H48C48 36.8954 47.1046 36 46 36V38ZM46 50L46 52C47.1046 52 48 51.1046 48 50H46ZM34 38V36C32.8954 36 32 36.8954 32 38H34ZM34 50H32C32 51.1046 32.8954 52 34 52V50ZM61.2494 32.4383L41.2494 16.4383L38.7506 19.5617L58.7506 35.5617L61.2494 32.4383ZM62 62L62 34H58L58 62H62ZM20 64H60V60L20 60V64ZM18 34L18 62H22L22 34H18ZM38.7506 16.4383L18.7506 32.4383L21.2494 35.5617L41.2494 19.5617L38.7506 16.4383ZM44 38V50H48V38H44ZM34 40H46V36H34V40ZM36 50L36 38H32L32 50H36ZM46 48H34V52L46 52L46 48Z" fill="currentColor" />
  <path d="M67.5 40L64.5 37.6L40 18L15.5 37.6L12.5 40" stroke="currentColor" stroke-width="6" stroke-linecap="round" stroke-linejoin="round" />
  <path fill-rule="evenodd" clip-rule="evenodd" d="M55 30V20C55 19.4477 54.5523 19 54 19H50C49.4477 19 49 19.4477 49 20V25.2L55 30Z" fill="currentColor" />
  <path d="M55 30L53.7506 31.5617C54.3509 32.042 55.1734 32.1356 55.8664 31.8026C56.5593 31.4696 57 30.7688 57 30H55ZM49 25.2H47C47 25.8076 47.2762 26.3822 47.7506 26.7617L49 25.2ZM53 20V30H57V20H53ZM54 21C53.4477 21 53 20.5523 53 20H57C57 18.3431 55.6569 17 54 17V21ZM50 21H54V17H50V21ZM51 20C51 20.5523 50.5523 21 50 21V17C48.3431 17 47 18.3431 47 20H51ZM51 25.2V20H47V25.2H51ZM47.7506 26.7617L53.7506 31.5617L56.2494 28.4383L50.2494 23.6383L47.7506 26.7617Z" fill="currentColor" />
</svg>