<svg viewBox="0 0 80 80" fill="none">
  <path fill-rule="evenodd" clip-rule="evenodd" d="M60 30L40 14L20 30L20 48.8907C20.8261 49.1971 21.6249 49.6018 22.3792 50.1047L22.8322 50.4067L23.2852 50.7087C24.5397 51.545 25.961 52.0138 27.4026 52.1152H28.5977C30.0393 52.0138 31.4606 51.545 32.7151 50.7087L33.6211 50.1047C37.484 47.5294 42.5164 47.5294 46.3792 50.1047L46.8322 50.4067L47.2852 50.7087C48.5397 51.545 49.961 52.0138 51.4026 52.1152H52.5977C54.0393 52.0138 55.4606 51.545 56.7151 50.7087L57.6211 50.1047C58.3753 49.6019 59.1741 49.1972 60 48.8908L60 30ZM46 42V30H34L34 42H46Z" fill="currentColor" />
  <path d="M40 14L40.937 12.8287C40.3892 12.3904 39.6108 12.3904 39.063 12.8287L40 14ZM60 30H61.5C61.5 29.5443 61.2929 29.1134 60.937 28.8287L60 30ZM20 30L19.063 28.8287C18.7071 29.1134 18.5 29.5443 18.5 30H20ZM20 48.8907H18.5C18.5 49.5179 18.8902 50.0788 19.4782 50.297L20 48.8907ZM22.3792 50.1047L21.5472 51.3527H21.5472L22.3792 50.1047ZM22.8322 50.4067L22.0002 51.6547H22.0002L22.8322 50.4067ZM23.2852 50.7087L24.1173 49.4606L24.1173 49.4606L23.2852 50.7087ZM27.4026 52.1152L27.2973 53.6115C27.3324 53.614 27.3675 53.6152 27.4026 53.6152V52.1152ZM28.5977 52.1152V53.6152C28.6328 53.6152 28.6679 53.614 28.703 53.6115L28.5977 52.1152ZM32.7151 50.7087L31.8831 49.4606L31.8831 49.4606L32.7151 50.7087ZM33.6211 50.1047L34.4532 51.3527L34.4532 51.3527L33.6211 50.1047ZM46.3792 50.1047L45.5472 51.3527L45.5472 51.3527L46.3792 50.1047ZM47.2852 50.7087L48.1173 49.4606L48.1173 49.4606L47.2852 50.7087ZM51.4026 52.1152L51.2973 53.6115C51.3324 53.614 51.3675 53.6152 51.4026 53.6152V52.1152ZM52.5977 52.1152V53.6152C52.6328 53.6152 52.6679 53.614 52.703 53.6115L52.5977 52.1152ZM56.7151 50.7087L55.8831 49.4606L56.7151 50.7087ZM57.6211 50.1047L56.7891 48.8566V48.8566L57.6211 50.1047ZM60 48.8908L60.5218 50.2971C61.1098 50.0789 61.5 49.518 61.5 48.8908H60ZM46 30H47.5C47.5 29.1716 46.8284 28.5 46 28.5V30ZM46 42V43.5C46.8284 43.5 47.5 42.8284 47.5 42H46ZM34 30V28.5C33.1716 28.5 32.5 29.1716 32.5 30H34ZM34 42H32.5C32.5 42.8284 33.1716 43.5 34 43.5V42ZM39.063 15.1713L59.063 31.1713L60.937 28.8287L40.937 12.8287L39.063 15.1713ZM20.937 31.1713L40.937 15.1713L39.063 12.8287L19.063 28.8287L20.937 31.1713ZM21.5 48.8907L21.5 30H18.5L18.5 48.8907H21.5ZM23.2113 48.8566C22.3591 48.2885 21.456 47.8309 20.5218 47.4843L19.4782 50.297C20.1961 50.5633 20.8907 50.9151 21.5472 51.3527L23.2113 48.8566ZM23.6643 49.1586L23.2113 48.8566L21.5472 51.3527L22.0002 51.6547L23.6643 49.1586ZM24.1173 49.4606L23.6643 49.1586L22.0002 51.6547L22.4532 51.9567L24.1173 49.4606ZM27.5079 50.6189C26.3205 50.5354 25.1506 50.1495 24.1173 49.4606L22.4532 51.9567C23.9287 52.9405 25.6015 53.4922 27.2973 53.6115L27.5079 50.6189ZM28.5977 50.6152H27.4026V53.6152H28.5977V50.6152ZM31.8831 49.4606C30.8497 50.1495 29.6798 50.5354 28.4925 50.6189L28.703 53.6115C30.3988 53.4922 32.0716 52.9405 33.5472 51.9567L31.8831 49.4606ZM32.7891 48.8566L31.8831 49.4606L33.5472 51.9567L34.4532 51.3527L32.7891 48.8566ZM47.2113 48.8566C42.8446 45.9455 37.1558 45.9455 32.7891 48.8566L34.4532 51.3527C37.8122 49.1134 42.1882 49.1134 45.5472 51.3527L47.2113 48.8566ZM47.6643 49.1586L47.2113 48.8566L45.5472 51.3527L46.0002 51.6547L47.6643 49.1586ZM48.1173 49.4606L47.6643 49.1586L46.0002 51.6547L46.4532 51.9567L48.1173 49.4606ZM51.5079 50.6189C50.3205 50.5354 49.1506 50.1495 48.1173 49.4606L46.4532 51.9567C47.9287 52.9405 49.6015 53.4922 51.2973 53.6115L51.5079 50.6189ZM52.5977 50.6152H51.4026V53.6152H52.5977V50.6152ZM55.8831 49.4606C54.8497 50.1495 53.6798 50.5354 52.4925 50.6189L52.703 53.6115C54.3988 53.4922 56.0716 52.9405 57.5472 51.9567L55.8831 49.4606ZM56.7891 48.8566L55.8831 49.4606L57.5472 51.9567L58.4532 51.3527L56.7891 48.8566ZM59.4782 47.4845C58.5441 47.8311 57.6411 48.2886 56.7891 48.8566L58.4532 51.3527C59.1095 50.9152 59.804 50.5634 60.5218 50.2971L59.4782 47.4845ZM58.5 30L58.5 48.8908H61.5L61.5 30H58.5ZM44.5 30V42H47.5V30H44.5ZM34 31.5H46V28.5L34 28.5V31.5ZM35.5 42L35.5 30H32.5L32.5 42H35.5ZM46 40.5H34L34 43.5H46V40.5Z" fill="currentColor" />
  <path d="M67.5 36L64.5 33.6L40 14L15.5 33.6L12.5 36" stroke="currentColor" stroke-width="6" stroke-linecap="round" stroke-linejoin="round" />
  <path fill-rule="evenodd" clip-rule="evenodd" d="M55 26V16C55 15.4477 54.5523 15 54 15H50C49.4477 15 49 15.4477 49 16V21.2L55 26Z" fill="currentColor" />
  <path d="M55 26L54.063 27.1713C54.5132 27.5315 55.1301 27.6017 55.6498 27.352C56.1695 27.1022 56.5 26.5766 56.5 26H55ZM49 21.2H47.5C47.5 21.6557 47.7071 22.0866 48.063 22.3713L49 21.2ZM53.5 16V26H56.5V16H53.5ZM54 16.5C53.7239 16.5 53.5 16.2761 53.5 16H56.5C56.5 14.6193 55.3807 13.5 54 13.5V16.5ZM50 16.5H54V13.5H50V16.5ZM50.5 16C50.5 16.2761 50.2761 16.5 50 16.5V13.5C48.6193 13.5 47.5 14.6193 47.5 16H50.5ZM50.5 21.2V16H47.5V21.2H50.5ZM48.063 22.3713L54.063 27.1713L55.937 24.8287L49.937 20.0287L48.063 22.3713Z" fill="currentColor" />
  <path d="M10.4532 57.6985L11.8399 59.7787L11.8399 59.7787L10.4532 57.6985ZM9.54716 58.3025L8.16041 56.2224L8.16041 56.2224L9.54716 58.3025ZM22.0002 58.0005L23.3869 55.9204L23.3869 55.9204L22.0002 58.0005ZM21.5472 57.6985L20.1604 59.7787L20.1604 59.7787L21.5472 57.6985ZM6.62495 57.0082C5.33158 57.4915 4.67487 58.9318 5.15814 60.2251C5.64142 61.5185 7.08167 62.1752 8.37505 61.692L6.62495 57.0082ZM34.4532 57.6985L33.0664 55.6184V55.6184L34.4532 57.6985ZM33.5472 58.3025L32.1604 56.2224L33.5472 58.3025ZM22.4532 58.3025L21.0664 60.3827L21.0664 60.3827L22.4532 58.3025ZM46.0002 58.0005L47.3869 55.9204V55.9204L46.0002 58.0005ZM45.5472 57.6985L44.1604 59.7787V59.7787L45.5472 57.6985ZM58.4532 57.6985L57.0664 55.6184L57.0664 55.6184L58.4532 57.6985ZM57.5472 58.3025L58.9339 60.3827L58.9339 60.3827L57.5472 58.3025ZM46.4532 58.3025L47.8399 56.2224V56.2224L46.4532 58.3025ZM70.0002 58.0005L71.3869 55.9204V55.9204L70.0002 58.0005ZM69.5472 57.6985L68.1604 59.7787V59.7787L69.5472 57.6985ZM70.4532 58.3025L71.8399 56.2224V56.2224L70.4532 58.3025ZM71.6249 61.6918C72.9182 62.1751 74.3585 61.5185 74.8418 60.2251C75.3251 58.9317 74.6685 57.4915 73.3751 57.0082L71.6249 61.6918ZM9.06641 55.6184L8.16041 56.2224L10.9339 60.3827L11.8399 59.7787L9.06641 55.6184ZM23.3869 55.9204L22.9339 55.6184L20.1604 59.7787L20.6134 60.0807L23.3869 55.9204ZM11.8399 59.7787C14.3592 58.0992 17.6412 58.0992 20.1604 59.7787L22.9339 55.6184C18.7352 52.8193 13.2651 52.8193 9.06641 55.6184L11.8399 59.7787ZM8.16041 56.2224C7.67259 56.5476 7.15721 56.8094 6.62495 57.0082L8.37505 61.692C9.26397 61.3598 10.1232 60.9232 10.9339 60.3827L8.16041 56.2224ZM33.0664 55.6184L32.1604 56.2224L34.9339 60.3827L35.8399 59.7787L33.0664 55.6184ZM23.8399 56.2224L23.3869 55.9204L20.6134 60.0807L21.0664 60.3827L23.8399 56.2224ZM47.3869 55.9204L46.9339 55.6184L44.1604 59.7787L44.6134 60.0807L47.3869 55.9204ZM35.8399 59.7787C38.3592 58.0992 41.6412 58.0992 44.1604 59.7787L46.9339 55.6184C42.7352 52.8193 37.2652 52.8193 33.0664 55.6184L35.8399 59.7787ZM32.1604 56.2224C29.6412 57.9019 26.3592 57.9019 23.8399 56.2224L21.0664 60.3827C25.2652 63.1818 30.7352 63.1818 34.9339 60.3827L32.1604 56.2224ZM57.0664 55.6184L56.1604 56.2224L58.9339 60.3827L59.8399 59.7787L57.0664 55.6184ZM47.8399 56.2224L47.3869 55.9204L44.6134 60.0807L45.0664 60.3827L47.8399 56.2224ZM71.3869 55.9204L70.9339 55.6184L68.1604 59.7787L68.6134 60.0807L71.3869 55.9204ZM59.8399 59.7787C62.3592 58.0992 65.6412 58.0992 68.1604 59.7787L70.9339 55.6184C66.7352 52.8193 61.2652 52.8193 57.0664 55.6184L59.8399 59.7787ZM56.1604 56.2224C53.6412 57.9019 50.3592 57.9019 47.8399 56.2224L45.0664 60.3827C49.2652 63.1818 54.7352 63.1818 58.9339 60.3827L56.1604 56.2224ZM71.8399 56.2224L71.3869 55.9204L68.6134 60.0807L69.0664 60.3827L71.8399 56.2224ZM73.3751 57.0082C72.8429 56.8093 72.3277 56.5476 71.8399 56.2224L69.0664 60.3827C69.877 60.9231 70.7361 61.3597 71.6249 61.6918L73.3751 57.0082Z" fill="currentColor" />
  <path d="M22.0002 65.7701L23.3869 63.6899L23.3869 63.6899L22.0002 65.7701ZM21.5472 65.4681L20.1604 67.5482L20.1604 67.5482L21.5472 65.4681ZM20.375 62.0787C19.0817 61.5954 17.6414 62.2521 17.1581 63.5455C16.6749 64.8388 17.3316 66.2791 18.625 66.7624L20.375 62.0787ZM34.4532 65.4681L35.8399 67.5482V67.5482L34.4532 65.4681ZM33.5472 66.0721L32.1604 63.9919L32.1604 63.9919L33.5472 66.0721ZM22.4532 66.0721L21.0664 68.1522L21.0664 68.1522L22.4532 66.0721ZM46.0002 65.7701L47.3869 63.6899V63.6899L46.0002 65.7701ZM45.5472 65.4681L44.1604 67.5482L44.1604 67.5482L45.5472 65.4681ZM58.4532 65.4681L59.8399 67.5482L59.8399 67.5482L58.4532 65.4681ZM57.5472 66.0721L56.1604 63.9919V63.9919L57.5472 66.0721ZM46.4532 66.0721L47.8399 63.9919L47.8399 63.9919L46.4532 66.0721ZM61.3751 66.7625C62.6685 66.2791 63.3251 64.8389 62.8418 63.5455C62.3585 62.2522 60.9182 61.5955 59.6249 62.0788L61.3751 66.7625ZM23.3869 63.6899L22.9339 63.3879L20.1604 67.5482L20.6134 67.8502L23.3869 63.6899ZM18.625 66.7624C19.1572 66.9613 19.6726 67.223 20.1604 67.5482L22.9339 63.3879C22.1232 62.8474 21.264 62.4108 20.375 62.0787L18.625 66.7624ZM33.0664 63.3879L32.1604 63.9919L34.9339 68.1522L35.8399 67.5482L33.0664 63.3879ZM23.8399 63.9919L23.3869 63.6899L20.6134 67.8502L21.0664 68.1522L23.8399 63.9919ZM47.3869 63.6899L46.9339 63.3879L44.1604 67.5482L44.6134 67.8502L47.3869 63.6899ZM35.8399 67.5482C38.3592 65.8687 41.6412 65.8687 44.1604 67.5482L46.9339 63.3879C42.7352 60.5888 37.2652 60.5888 33.0664 63.3879L35.8399 67.5482ZM32.1604 63.9919C29.6412 65.6714 26.3592 65.6714 23.8399 63.9919L21.0664 68.1522C25.2652 70.9514 30.7352 70.9514 34.9339 68.1522L32.1604 63.9919ZM57.0664 63.3879L56.1604 63.9919L58.9339 68.1522L59.8399 67.5482L57.0664 63.3879ZM47.8399 63.9919L47.3869 63.6899L44.6134 67.8502L45.0664 68.1522L47.8399 63.9919ZM59.8399 67.5482C60.3277 67.223 60.8429 66.9613 61.3751 66.7625L59.6249 62.0788C58.7361 62.4109 57.877 62.8475 57.0664 63.3879L59.8399 67.5482ZM56.1604 63.9919C53.6412 65.6714 50.3592 65.6714 47.8399 63.9919L45.0664 68.1522C49.2652 70.9514 54.7352 70.9514 58.9339 68.1522L56.1604 63.9919Z" fill="currentColor" />
</svg>