<svg viewBox="0 0 80 80" fill="none">
  <path fill-rule="evenodd" clip-rule="evenodd" d="M18 25C18 21.6863 20.6863 19 24 19L56 19C59.3137 19 62 21.6863 62 25L62 55.8786L56.7678 50.6464C55.7915 49.6701 54.2086 49.6701 53.2323 50.6464L49.8298 54.049L35.8429 38.7906C34.8521 37.7097 33.148 37.7097 32.1571 38.7906L18 54.2347L18 25ZM34 41.2198L19.5002 57.0379C19.5205 59.5057 21.5274 61.5 24 61.5L43 61.5H56C57.9952 61.5 59.6901 60.2003 60.2785 58.3998L55 53.1213L51.5818 56.5395C50.5754 57.546 48.9329 57.5103 47.9712 56.4611L34 41.2198ZM51.3481 25.201C49.2763 24.0048 46.7237 24.0048 44.6519 25.201C42.5801 26.3971 41.3038 28.6077 41.3038 31C41.3038 33.3923 42.5801 35.6029 44.6519 36.799C46.7237 37.9952 49.2763 37.9952 51.3481 36.799C53.4199 35.6029 54.6962 33.3923 54.6962 31C54.6962 28.6077 53.4199 26.3971 51.3481 25.201ZM46.1519 27.799C47.2955 27.1388 48.7045 27.1388 49.8481 27.799C50.9917 28.4593 51.6962 29.6795 51.6962 31C51.6962 32.3205 50.9917 33.5407 49.8481 34.201C48.7045 34.8612 47.2955 34.8612 46.1519 34.201C45.0083 33.5407 44.3038 32.3205 44.3038 31C44.3038 29.6795 45.0083 28.4593 46.1519 27.799Z" fill="currentColor" />
</svg>