<svg viewBox="0 0 80 80" fill="none">
  <path fill-rule="evenodd" clip-rule="evenodd" d="M60.3807 19C61.9219 19 63.326 19.8854 63.9902 21.2761L69.7417 33.3183C69.0304 33.1111 68.2783 33 67.5001 33H55.0419C51.5761 33 48.5045 35.2317 47.4335 38.5279L45.9985 42.9443L33.0017 42.9443L31.5667 38.5279C30.4958 35.2317 27.4241 33 23.9583 33H11.5001C10.722 33 9.96979 33.1111 9.25854 33.3183L15.01 21.2761C15.6743 19.8854 17.0783 19 18.6195 19L60.3807 19ZM11.5001 41H23.9583L25.3933 45.4164C26.4643 48.7126 29.5359 50.9443 33.0017 50.9443L45.9985 50.9443C49.4643 50.9443 52.536 48.7126 53.607 45.4164L55.0419 41L67.5001 41L67.5001 59L11.5001 59L11.5001 41Z" fill="currentColor" />
  <path fill-rule="evenodd" clip-rule="evenodd" d="M27.7624 39.7639C27.2269 38.1158 25.6911 37 23.9582 37H11.5C9.29086 37 7.5 38.7909 7.5 41L7.5 59C7.5 61.2091 9.29086 63 11.5 63L67.5 63C69.7091 63 71.5 61.2091 71.5 59V41C71.5 38.7909 69.7091 37 67.5 37H55.0418C53.3089 37 51.7731 38.1158 51.2376 39.7639L49.8026 44.1803C49.2671 45.8284 47.7313 46.9443 45.9984 46.9443L33.0016 46.9443C31.2687 46.9443 29.7329 45.8284 29.1974 44.1803L27.7624 39.7639Z" fill="currentColor" />
</svg>