<svg viewBox="0 0 80 80" fill="none">
  <path fill-rule="evenodd" clip-rule="evenodd" d="M33.842 61.5798C33.9052 61.5802 33.9684 61.5804 34.0316 61.5804C43.9256 61.5804 53.1228 56.1708 58.0316 47.5804C62.9506 38.9723 62.9506 28.1886 58.0316 19.5804C55.8041 15.6822 52.6934 12.4389 49.0352 10.059C48.6973 11.2181 48.2254 12.3478 47.6195 13.4249L47.4442 13.7366C44.7186 18.5821 39.5914 21.5807 34.0319 21.5807C33.8467 21.5807 33.662 21.5774 33.4779 21.5708V21.5802H32.3564C25.3312 21.5802 18.8211 25.2662 15.2066 31.2903C11.4064 37.6239 11.4064 45.5365 15.2066 51.8701C18.8211 57.8942 25.3312 61.5802 32.3565 61.5802H33.7088C33.7532 61.5802 33.7976 61.5801 33.842 61.5798ZM49.1583 28.7384C49.648 30.1398 48.645 31.7236 46.9183 32.276L45.5844 32.7027C38.115 35.0921 31.31 39.2714 25.8015 44.909L24.6827 46.054C18.7169 52.1596 14.2707 59.5953 11.762 67.7647L11.4569 68.7582C11.0001 70.2457 9.22272 71.2592 7.48697 71.022C5.75122 70.7848 4.71441 69.3867 5.17119 67.8992L5.47627 66.9057C8.22275 57.962 13.1244 49.709 19.8229 42.8536L20.9416 41.7086C27.226 35.277 35.0826 30.4203 43.8113 27.628L45.1452 27.2013C46.872 26.6489 48.6687 27.3371 49.1583 28.7384Z" fill="currentColor" />
</svg>