<svg viewBox="0 0 80 80" fill="none">
  <path fill-rule="evenodd" clip-rule="evenodd" d="M61.4483 33.1532C61.4483 21.4803 51.9856 12.0176 40.3127 12.0176H39.6871C28.0143 12.0176 18.5515 21.4803 18.5515 33.1532C18.5515 37.7689 20.0625 42.2577 22.8536 45.9339L39.9576 68.4618C39.9788 68.4898 40.021 68.4898 40.0423 68.4618L57.1463 45.9339C59.9374 42.2577 61.4483 37.7689 61.4483 33.1532Z" fill="currentColor" />
  <path d="M39.6871 13.5176H40.3127V10.5176H39.6871V13.5176ZM41.1522 67.5547L24.0482 45.0268L21.6589 46.8409L38.7629 69.3688L41.1522 67.5547ZM55.9516 45.0268L38.8476 67.5547L41.237 69.3688L58.341 46.8409L55.9516 45.0268ZM38.7628 69.3688C39.3844 70.1875 40.6155 70.1875 41.237 69.3688L38.8476 67.5548C39.4266 66.7921 40.5733 66.7921 41.1523 67.5548L38.7628 69.3688ZM17.0515 33.1532C17.0515 38.0965 18.6697 42.9038 21.6589 46.8409L24.0482 45.0268C21.4552 41.6115 20.0515 37.4413 20.0515 33.1532H17.0515ZM58.341 46.8409C61.3302 42.9038 62.9483 38.0965 62.9483 33.1532H59.9483C59.9483 37.4413 58.5446 41.6115 55.9516 45.0268L58.341 46.8409ZM40.3127 13.5176C51.1572 13.5176 59.9483 22.3087 59.9483 33.1532H62.9483C62.9483 20.6519 52.814 10.5176 40.3127 10.5176V13.5176ZM39.6871 10.5176C27.1858 10.5176 17.0515 20.6519 17.0515 33.1532H20.0515C20.0515 22.3087 28.8427 13.5176 39.6871 13.5176V10.5176Z" fill="currentColor" />
</svg>