<svg viewBox="0 0 80 80" fill="none">
  <path d="M23.5 21C23.5 20.1716 24.1716 19.5 25 19.5H55C55.8284 19.5 56.5 20.1716 56.5 21V53C56.5 53.8284 55.8284 54.5 55 54.5H25C24.1716 54.5 23.5 53.8284 23.5 53V21Z" fill="currentColor" />
  <path fill-rule="evenodd" clip-rule="evenodd" d="M16 14C16 12.8954 16.8954 12 18 12H62C63.1046 12 64 12.8954 64 14V66C64 67.1046 63.1046 68 62 68H18C16.8954 68 16 67.1046 16 66V14ZM34.5 62C34.5 61.1716 35.1716 60.5 36 60.5H44C44.8284 60.5 45.5 61.1716 45.5 62C45.5 62.8284 44.8284 63.5 44 63.5H36C35.1716 63.5 34.5 62.8284 34.5 62ZM25 16.5C22.5147 16.5 20.5 18.5147 20.5 21V53C20.5 55.4853 22.5147 57.5 25 57.5H55C57.4853 57.5 59.5 55.4853 59.5 53V21C59.5 18.5147 57.4853 16.5 55 16.5H25Z" fill="currentColor" />
</svg>