<svg viewBox="0 0 80 80" fill="none">
  <path fill-rule="evenodd" clip-rule="evenodd" d="M57.7027 53.0272C58.3779 54.7826 56.4768 56.4148 54.8438 55.4816L45 49.8566L45 67.1723C45 68.2769 44.1046 69.1723 43 69.1723H37C35.8954 69.1723 35 68.2769 35 67.1723L35 49.8576L25.1556 55.4829C23.5226 56.4161 21.6215 54.7839 22.2967 53.0285L38.1333 11.8533C38.7907 10.1439 41.2092 10.1439 41.8666 11.8533L57.7027 53.0272Z" fill="currentColor" />
  <path d="M54.8438 55.4816L54.0996 56.784H54.0996L54.8438 55.4816ZM57.7027 53.0272L59.1028 52.4887L57.7027 53.0272ZM45 49.8566L45.7442 48.5542C45.28 48.289 44.7096 48.2909 44.2471 48.5592C43.7846 48.8276 43.5 49.3219 43.5 49.8566H45ZM45 67.1723H43.5H45ZM43 69.1723V67.6723V69.1723ZM37 69.1723V70.6723V69.1723ZM35 49.8576H36.5C36.5 49.3229 36.2154 48.8286 35.7529 48.5602C35.2904 48.2918 34.72 48.2899 34.2558 48.5552L35 49.8576ZM25.1556 55.4829L25.8998 56.7853H25.8998L25.1556 55.4829ZM22.2967 53.0285L20.8966 52.49L22.2967 53.0285ZM38.1333 11.8533L36.7332 11.3149L36.7332 11.3149L38.1333 11.8533ZM41.8666 11.8533L43.2667 11.3149L41.8666 11.8533ZM54.0996 56.784C56.9573 58.417 60.2843 55.5608 59.1028 52.4887L56.3027 53.5657C56.4715 54.0045 55.9962 54.4125 55.588 54.1793L54.0996 56.784ZM44.2558 51.159L54.0996 56.784L55.588 54.1793L45.7442 48.5542L44.2558 51.159ZM43.5 49.8566L43.5 67.1723H46.5L46.5 49.8566H43.5ZM43.5 67.1723C43.5 67.4485 43.2761 67.6723 43 67.6723V70.6723C44.933 70.6723 46.5 69.1053 46.5 67.1723H43.5ZM43 67.6723H37V70.6723H43V67.6723ZM37 67.6723C36.7239 67.6723 36.5 67.4485 36.5 67.1723H33.5C33.5 69.1053 35.067 70.6723 37 70.6723V67.6723ZM36.5 67.1723L36.5 49.8576H33.5L33.5 67.1723H36.5ZM25.8998 56.7853L35.7442 51.1599L34.2558 48.5552L24.4114 54.1806L25.8998 56.7853ZM20.8966 52.49C19.7151 55.5621 23.0421 58.4183 25.8998 56.7853L24.4114 54.1806C24.0032 54.4138 23.5279 54.0058 23.6967 53.5669L20.8966 52.49ZM36.7332 11.3149L20.8966 52.49L23.6967 53.5669L39.5333 12.3918L36.7332 11.3149ZM43.2667 11.3149C42.1161 8.32343 37.8838 8.32344 36.7332 11.3149L39.5333 12.3918C39.6976 11.9644 40.3023 11.9645 40.4666 12.3918L43.2667 11.3149ZM59.1028 52.4887L43.2667 11.3149L40.4666 12.3918L56.3027 53.5657L59.1028 52.4887Z" fill="currentColor" />
</svg>