<svg viewBox="0 0 80 80" fill="none">
  <path fill-rule="evenodd" clip-rule="evenodd" d="M12 29.2308C12 28.7003 12.2107 28.1916 12.5858 27.8166L27.8166 12.5858C28.1916 12.2107 28.7003 12 29.2308 12L50.7692 12C51.2997 12 51.8084 12.2107 52.1834 12.5858L67.4142 27.8166C67.7893 28.1916 68 28.7003 68 29.2308V50.7699C68 51.3003 67.7893 51.809 67.4142 52.1841L52.1841 67.4142C51.809 67.7893 51.3003 68 50.7699 68H29.2301C28.6997 68 28.191 67.7893 27.8159 67.4142L12.5858 52.1841C12.2107 51.809 12 51.3003 12 50.7699L12 29.2308Z" fill="currentColor" />
  <path d="M12.5858 52.1841L11.5251 53.2447L12.5858 52.1841ZM27.8159 67.4142L28.8766 66.3536L27.8159 67.4142ZM52.1841 67.4142L51.1234 66.3536L52.1841 67.4142ZM67.4142 27.8166L68.4749 26.7559L67.4142 27.8166ZM52.1834 12.5858L51.1228 13.6464V13.6464L52.1834 12.5858ZM27.8166 12.5858L26.7559 11.5251L27.8166 12.5858ZM12.5858 27.8166L13.6464 28.8772L12.5858 27.8166ZM13.6464 28.8772L28.8772 13.6464L26.7559 11.5251L11.5251 26.7559L13.6464 28.8772ZM29.2308 13.5L50.7692 13.5V10.5L29.2308 10.5V13.5ZM51.1228 13.6464L66.3536 28.8772L68.4749 26.7559L53.2441 11.5251L51.1228 13.6464ZM66.5 29.2308V50.7699H69.5V29.2308L66.5 29.2308ZM66.3536 51.1234L51.1234 66.3536L53.2448 68.4749L68.4749 53.2447L66.3536 51.1234ZM50.7699 66.5H29.2301L29.2301 69.5H50.7699V66.5ZM28.8766 66.3536L13.6464 51.1234L11.5251 53.2447L26.7552 68.4749L28.8766 66.3536ZM13.5 50.7699L13.5 29.2308H10.5L10.5 50.7699H13.5ZM13.6464 51.1234C13.5527 51.0297 13.5 50.9025 13.5 50.7699H10.5C10.5 51.6981 10.8687 52.5884 11.5251 53.2447L13.6464 51.1234ZM29.2301 66.5C29.0975 66.5 28.9703 66.4473 28.8766 66.3536L26.7552 68.4749C27.4116 69.1313 28.3019 69.5 29.2301 69.5L29.2301 66.5ZM51.1234 66.3536C51.0297 66.4473 50.9025 66.5 50.7699 66.5V69.5C51.6981 69.5 52.5884 69.1313 53.2448 68.4749L51.1234 66.3536ZM66.5 50.7699C66.5 50.9025 66.4473 51.0297 66.3536 51.1234L68.4749 53.2447C69.1312 52.5884 69.5 51.6981 69.5 50.7699H66.5ZM66.3536 28.8772C66.4473 28.971 66.5 29.0982 66.5 29.2308L69.5 29.2308C69.5 28.3025 69.1313 27.4123 68.4749 26.7559L66.3536 28.8772ZM50.7692 13.5C50.9018 13.5 51.029 13.5527 51.1228 13.6464L53.2441 11.5251C52.5877 10.8687 51.6975 10.5 50.7692 10.5V13.5ZM28.8772 13.6464C28.971 13.5527 29.0982 13.5 29.2308 13.5V10.5C28.3025 10.5 27.4123 10.8687 26.7559 11.5251L28.8772 13.6464ZM11.5251 26.7559C10.8688 27.4123 10.5 28.3025 10.5 29.2308H13.5C13.5 29.0982 13.5527 28.971 13.6464 28.8772L11.5251 26.7559Z" fill="currentColor" />
</svg>