<svg viewBox="0 0 80 80" fill="none">
  <path fill-rule="evenodd" clip-rule="evenodd" d="M47.7236 72.1169C47.7236 74.3236 45.9347 76.1125 43.728 76.1125H35.728C33.5165 76.1125 31.7236 74.3197 31.7236 72.1081V24.3575C31.7236 17.7256 33.9807 11.2912 38.1236 6.11253L38.9236 5.11253C39.3338 4.59986 40.1135 4.59986 40.5236 5.11253L41.3236 6.11253C45.4666 11.2912 47.7236 17.7256 47.7236 24.3575V72.1169ZM50.7314 57.1125H47.7314V63.1125H51.7314C54.4929 63.1125 56.7314 60.874 56.7314 58.1125V36.1125C56.7314 34.4557 55.3883 33.1125 53.7314 33.1125C52.0746 33.1125 50.7314 34.4557 50.7314 36.1125V57.1125ZM47.7227 57.1125H31.7314V63.1125H47.7227V57.1125Z" fill="currentColor" />
</svg>