<svg viewBox="0 0 80 80" fill="none">
  <path d="M37.4974 7.68555L40.295 4.18848L43.0927 7.68555H37.4974Z" fill="currentColor" />
  <path d="M32.4355 69.6884C33.1376 73.3897 36.3895 76.1885 40.2951 76.1885C44.2007 76.1885 47.4526 73.3897 48.1547 69.6884L32.4355 69.6884Z" fill="currentColor" />
  <path d="M45.092 10.1856C46.6072 12.1149 47.6179 14.3755 48.0526 16.764C47.7262 16.8004 47.4095 16.9439 47.1593 17.1942L44.2885 20.0666L42.059 17.8358C41.0825 16.8588 39.4989 16.8588 38.5225 17.8358L36.2929 20.0666L33.4302 17.2023C33.1798 16.9517 32.8628 16.8083 32.5361 16.7719C32.9701 14.3805 33.9814 12.117 35.4982 10.1856H45.092Z" fill="currentColor" />
  <path fill-rule="evenodd" clip-rule="evenodd" d="M32.2952 66.6884L48.2864 66.6884L48.2951 20.3016L46.0568 22.5412C45.0803 23.5181 43.4967 23.5181 42.5203 22.5412L40.2907 20.3104L38.0612 22.5412C37.0847 23.5181 35.5011 23.5181 34.5247 22.5412L32.2951 20.3104L32.2952 66.6884ZM40.2907 63.6885C39.4623 63.6885 38.7907 63.0169 38.7907 62.1885L38.7907 29.1885C38.7907 28.3601 39.4623 27.6885 40.2907 27.6885C41.1191 27.6885 41.7907 28.3601 41.7907 29.1885L41.7907 62.1885C41.7907 63.0169 41.1191 63.6885 40.2907 63.6885Z" fill="currentColor" />
</svg>