<svg viewBox="0 0 80 80" fill="none">
  <path fill-rule="evenodd" clip-rule="evenodd" d="M35.306 24.6825C35.7196 24.8154 36 25.2001 36 25.6345V27.1773C36 27.6117 36.2804 27.9964 36.694 28.1293L66.0381 37.5614C66.9635 37.8588 66.9635 39.168 66.0381 39.4654L37.306 48.7008C36.6605 48.9082 36 48.4268 36 47.7487V47.4917C36 46.8136 35.3395 46.3321 34.694 46.5396L14.306 53.0929C13.6605 53.3004 13 52.8189 13 52.1409V18.8845C13 18.2065 13.6605 17.725 14.306 17.9325L35.306 24.6825Z" fill="currentColor" />
  <path d="M14.306 53.0929L13.847 51.6649L14.306 53.0929ZM34.694 46.5396L35.153 47.9677L34.694 46.5396ZM37.306 48.7008L36.847 47.2727L37.306 48.7008ZM66.0381 37.5614L65.5791 38.9894L66.0381 37.5614ZM66.0381 39.4654L66.4971 40.8935L66.0381 39.4654ZM35.306 24.6825L34.847 26.1105L35.306 24.6825ZM36.694 28.1293L36.235 29.5574L36.694 28.1293ZM37.5 27.1773V25.6345H34.5V27.1773H37.5ZM66.4971 36.1333L37.153 26.7013L36.235 29.5574L65.5791 38.9894L66.4971 36.1333ZM37.765 50.1288L66.4971 40.8935L65.5791 38.0374L36.847 47.2727L37.765 50.1288ZM34.5 47.4917V47.7487H37.5V47.4917H34.5ZM14.765 54.521L35.153 47.9677L34.235 45.1116L13.847 51.6649L14.765 54.521ZM11.5 18.8845V52.1409H14.5V18.8845H11.5ZM35.765 23.2544L14.765 16.5044L13.847 19.3605L34.847 26.1105L35.765 23.2544ZM14.5 18.8845C14.5 19.2235 14.1698 19.4643 13.847 19.3605L14.765 16.5044C13.1512 15.9857 11.5 17.1894 11.5 18.8845H14.5ZM13.847 51.6649C14.1698 51.5611 14.5 51.8019 14.5 52.1409H11.5C11.5 53.836 13.1512 55.0397 14.765 54.521L13.847 51.6649ZM37.5 47.4917C37.5 45.7966 35.8488 44.5929 34.235 45.1116L35.153 47.9677C34.8302 48.0714 34.5 47.8307 34.5 47.4917H37.5ZM36.847 47.2727C37.1698 47.169 37.5 47.4097 37.5 47.7487H34.5C34.5 49.4438 36.1512 50.6475 37.765 50.1288L36.847 47.2727ZM65.5791 38.9894C65.1165 38.8407 65.1165 38.1861 65.5791 38.0374L66.4971 40.8935C68.8105 40.1499 68.8104 36.8769 66.4971 36.1333L65.5791 38.9894ZM37.5 25.6345C37.5 24.5485 36.7989 23.5868 35.765 23.2544L34.847 26.1105C34.6402 26.0441 34.5 25.8517 34.5 25.6345H37.5ZM34.5 27.1773C34.5 28.2633 35.2011 29.225 36.235 29.5574L37.153 26.7013C37.3598 26.7677 37.5 26.9601 37.5 27.1773H34.5Z" fill="currentColor" />
  <path d="M13 16V64" stroke="currentColor" stroke-width="6" stroke-linecap="round" stroke-linejoin="round" />
</svg>