<svg viewBox="0 0 80 80" fill="none">
  <path fill-rule="evenodd" clip-rule="evenodd" d="M55.8074 61.9659C55.0938 63.3664 53.6239 64.2364 52.0613 64.0661C51.3897 63.9928 50.7188 63.9033 50.0491 63.7972C41.3208 62.4148 33.2542 58.3046 27.0054 52.0558C20.7566 45.8071 16.6465 37.7404 15.2641 29.0121C15.1581 28.3429 15.0685 27.6725 14.9954 27.0013C14.825 25.4387 15.6949 23.9688 17.0955 23.2551L23.2248 20.1321C25.597 18.9234 28.4673 20.3333 29.3016 22.8616C29.8075 24.395 30.4051 25.904 31.0934 27.3802C31.4384 28.1199 31.8043 28.8474 32.1904 29.5621C33.1045 31.2539 32.4879 33.4238 30.7373 34.2196C28.1948 35.3752 27.5892 38.7146 29.5641 40.6895L29.7253 40.8507L38.2106 49.336L38.3718 49.4972C40.3466 51.472 43.686 50.8665 44.8417 48.324C45.6813 46.4768 47.9571 45.808 49.7642 46.7306C50.2024 46.9543 50.6451 47.1705 51.0923 47.379C52.7867 48.1692 54.5242 48.8396 56.2924 49.3893C58.8666 50.1895 60.3278 53.0941 59.104 55.496L55.8074 61.9659Z" fill="currentColor" />
  <path d="M50.0491 63.7972L50.2838 62.3157L50.2838 62.3157L50.0491 63.7972ZM15.2641 29.0121L13.7825 29.2468L13.7825 29.2468L15.2641 29.0121ZM31.0934 27.3802L32.4529 26.7463L31.0934 27.3802ZM29.5641 40.6895L28.5034 41.7501L29.5641 40.6895ZM29.7253 40.8507L30.786 39.79L29.7253 40.8507ZM51.0923 47.379L51.7262 46.0196L51.0923 47.379ZM32.1904 29.5621L33.5101 28.849L32.1904 29.5621ZM56.2924 49.3893L55.8471 50.8216L56.2924 49.3893ZM59.104 55.496L57.7674 54.815L59.104 55.496ZM52.0613 64.0661L51.8988 65.5572L52.0613 64.0661ZM55.8074 61.9659L57.1439 62.6469L55.8074 61.9659ZM52.2239 62.5749C51.5763 62.5043 50.9295 62.4179 50.2838 62.3157L49.8145 65.2787C50.5081 65.3886 51.2031 65.4814 51.8988 65.5572L52.2239 62.5749ZM50.2838 62.3157C41.8683 60.9828 34.0909 57.02 28.0661 50.9952L25.9448 53.1165C32.4175 59.5893 40.7733 63.8467 49.8145 65.2787L50.2838 62.3157ZM28.0661 50.9952C22.0413 44.9704 18.0785 37.1929 16.7456 28.7775L13.7825 29.2468C15.2145 38.288 19.472 46.6437 25.9448 53.1165L28.0661 50.9952ZM16.7456 28.7775C16.6434 28.1322 16.5571 27.4858 16.4865 26.8387L13.5042 27.1639C13.58 27.8591 13.6727 28.5536 13.7825 29.2468L16.7456 28.7775ZM22.5439 18.7956L16.4145 21.9186L17.7765 24.5916L23.9058 21.4686L22.5439 18.7956ZM27.8771 23.3316C28.4014 24.9207 29.0206 26.4844 29.734 28.0141L32.4529 26.7463C31.7895 25.3236 31.2136 23.8693 30.726 22.3916L27.8771 23.3316ZM29.734 28.0141C30.0914 28.7807 30.4706 29.5346 30.8707 30.2751L33.5101 28.849C33.138 28.1603 32.7853 27.4592 32.4529 26.7463L29.734 28.0141ZM30.1166 32.854C26.6207 34.4431 25.788 39.0347 28.5034 41.7501L30.6247 39.6288C29.3905 38.3945 29.7689 36.3074 31.358 35.5851L30.1166 32.854ZM28.5034 41.7501L28.6646 41.9113L30.786 39.79L30.6247 39.6288L28.5034 41.7501ZM28.6646 41.9113L37.1499 50.3966L39.2712 48.2753L30.786 39.79L28.6646 41.9113ZM37.1499 50.3966L37.3111 50.5578L39.4325 48.4365L39.2712 48.2753L37.1499 50.3966ZM37.3111 50.5578C40.0265 53.2732 44.6182 52.4406 46.2072 48.9447L43.4761 47.7033C42.7538 49.2923 40.6667 49.6708 39.4325 48.4365L37.3111 50.5578ZM49.0822 48.0666C49.5362 48.2984 49.995 48.5224 50.4584 48.7385L51.7262 46.0196C51.2952 45.8186 50.8686 45.6103 50.4463 45.3947L49.0822 48.0666ZM50.4584 48.7385C52.2142 49.5573 54.0147 50.252 55.8471 50.8216L56.7377 47.9569C55.0337 47.4272 53.3592 46.781 51.7262 46.0196L50.4584 48.7385ZM57.1439 62.6469L60.4405 56.177L57.7674 54.815L54.4709 61.2849L57.1439 62.6469ZM30.8707 30.2751C31.4142 31.281 30.997 32.4538 30.1166 32.854L31.358 35.5851C33.9788 34.3939 34.7948 31.2268 33.5101 28.849L30.8707 30.2751ZM46.2072 48.9447C46.6557 47.958 47.9541 47.4906 49.0822 48.0666L50.4463 45.3947C47.9602 44.1254 44.7069 44.9956 43.4761 47.7033L46.2072 48.9447ZM16.4865 26.8387C16.3894 25.9482 16.8824 25.0472 17.7765 24.5916L16.4145 21.9186C14.5075 22.8903 13.2605 24.9291 13.5042 27.1639L16.4865 26.8387ZM55.8471 50.8216C57.6653 51.3868 58.5088 53.36 57.7674 54.815L60.4405 56.177C62.1468 52.8281 60.068 48.9922 56.7377 47.9569L55.8471 50.8216ZM23.9058 21.4686C25.3437 20.736 27.2889 21.5489 27.8771 23.3316L30.726 22.3916C29.6458 19.1177 25.8503 17.1109 22.5439 18.7956L23.9058 21.4686ZM51.8988 65.5572C54.1335 65.8008 56.1722 64.5539 57.1439 62.6469L54.4709 61.2849C54.0153 62.1789 53.1144 62.672 52.2239 62.5749L51.8988 65.5572Z" fill="currentColor" />
  <path d="M44.6509 23.3467L53.7418 23.3467L55.56 23.3467L64.6509 23.3467" stroke="currentColor" stroke-width="6" stroke-linecap="round" stroke-linejoin="round" />
  <path d="M54.6509 13.3467L54.6509 22.4376L54.6509 24.2558L54.6509 33.3467" stroke="currentColor" stroke-width="6" stroke-linecap="round" stroke-linejoin="round" />
</svg>