<svg viewBox="0 0 80 80" fill="none">
  <path d="M32 18C32 16.8954 32.8954 16 34 16H46.7317C47.8994 16 49.0088 16.5103 49.7687 17.3968L64 34H32V18Z" stroke="currentColor" stroke-width="5" stroke-linecap="round" stroke-linejoin="round" />
  <path fill-rule="evenodd" clip-rule="evenodd" d="M68 34H64V45.3344C64.1203 45.3795 64.2401 45.4267 64.3592 45.4761C67.1503 46.6322 69.3678 48.8497 70.5239 51.6408C70.7935 52.2916 71.0002 52.9611 71.1441 53.6407C71.6615 53.2792 72 52.6791 72 52V38C72 35.7909 70.2091 34 68 34Z" fill="currentColor" />
  <path d="M64 34V32.5C63.1716 32.5 62.5 33.1716 62.5 34H64ZM64 45.3344H62.5C62.5 45.9596 62.8878 46.5192 63.4732 46.7388L64 45.3344ZM64.3592 45.4761L63.7851 46.8619L63.7851 46.8619L64.3592 45.4761ZM70.5239 51.6408L69.1381 52.2149L70.5239 51.6408ZM71.1441 53.6407L69.6766 53.9513C69.7808 54.4437 70.125 54.8509 70.593 55.0358C71.061 55.2207 71.5906 55.1585 72.0031 54.8703L71.1441 53.6407ZM64 35.5H68V32.5H64V35.5ZM65.5 45.3344V34H62.5V45.3344H65.5ZM63.4732 46.7388C63.5777 46.778 63.6817 46.819 63.7851 46.8619L64.9332 44.0902C64.7984 44.0344 64.6629 43.981 64.5268 43.9299L63.4732 46.7388ZM63.7851 46.8619C66.2087 47.8658 68.1342 49.7913 69.1381 52.2149L71.9098 51.0668C70.6014 47.9081 68.0919 45.3986 64.9332 44.0902L63.7851 46.8619ZM69.1381 52.2149C69.3722 52.78 69.5517 53.3614 69.6766 53.9513L72.6115 53.33C72.4487 52.5609 72.2148 51.8032 71.9098 51.0668L69.1381 52.2149ZM70.5 52C70.5 52.1685 70.418 52.3181 70.285 52.411L72.0031 54.8703C72.905 54.2402 73.5 53.1897 73.5 52H70.5ZM70.5 38V52H73.5V38H70.5ZM68 35.5C69.3807 35.5 70.5 36.6193 70.5 38H73.5C73.5 34.9624 71.0376 32.5 68 32.5V35.5Z" fill="currentColor" />
  <path fill-rule="evenodd" clip-rule="evenodd" d="M32 34H8V54H9.78587C9.92904 53.1972 10.1591 52.406 10.4761 51.6408C11.6322 48.8497 13.8497 46.6322 16.6408 45.4761C19.432 44.3199 22.568 44.3199 25.3592 45.4761C28.1503 46.6322 30.3678 48.8497 31.5239 51.6408C31.7138 52.0992 31.8725 52.5669 32 53.0408V34ZM23.7385 54C23.3743 53.5014 22.8776 53.1073 22.2977 52.8671C21.4668 52.5229 20.5332 52.5229 19.7023 52.8671C19.1224 53.1073 18.6257 53.5014 18.2615 54H23.7385Z" fill="currentColor" />
  <path d="M8 34V32.5C7.17157 32.5 6.5 33.1716 6.5 34H8ZM32 34H33.5C33.5 33.1716 32.8284 32.5 32 32.5V34ZM8 54H6.5C6.5 54.8284 7.17157 55.5 8 55.5V54ZM9.78587 54V55.5C10.5127 55.5 11.135 54.9789 11.2626 54.2633L9.78587 54ZM10.4761 51.6408L9.09024 51.0668L9.09024 51.0668L10.4761 51.6408ZM16.6408 45.4761L17.2149 46.8619L16.6408 45.4761ZM25.3592 45.4761L24.7851 46.8619L25.3592 45.4761ZM31.5239 51.6408L30.1381 52.2149L30.1381 52.2149L31.5239 51.6408ZM32 53.0408L30.5515 53.4305C30.747 54.1571 31.4506 54.6265 32.1965 54.5279C32.9425 54.4293 33.5 53.7933 33.5 53.0408H32ZM23.7385 54V55.5C24.3032 55.5 24.8201 55.1828 25.0758 54.6793C25.3316 54.1758 25.2829 53.5713 24.9498 53.1153L23.7385 54ZM22.2977 52.8671L21.7237 54.2529L21.7237 54.2529L22.2977 52.8671ZM19.7023 52.8671L20.2763 54.2529L20.2763 54.2529L19.7023 52.8671ZM18.2615 54L17.0502 53.1153C16.7171 53.5713 16.6684 54.1758 16.9242 54.6793C17.1799 55.1828 17.6968 55.5 18.2615 55.5V54ZM8 35.5H32V32.5H8V35.5ZM9.5 54V34H6.5V54H9.5ZM9.78587 52.5H8V55.5H9.78587V52.5ZM11.2626 54.2633C11.3869 53.5663 11.5866 52.8794 11.8619 52.2149L9.09024 51.0668C8.73158 51.9327 8.4712 52.828 8.30917 53.7367L11.2626 54.2633ZM11.8619 52.2149C12.8658 49.7913 14.7913 47.8658 17.2149 46.8619L16.0668 44.0902C12.9081 45.3986 10.3986 47.9081 9.09024 51.0668L11.8619 52.2149ZM17.2149 46.8619C19.6384 45.858 22.3616 45.858 24.7851 46.8619L25.9332 44.0902C22.7745 42.7819 19.2255 42.7819 16.0668 44.0902L17.2149 46.8619ZM24.7851 46.8619C27.2087 47.8658 29.1342 49.7913 30.1381 52.2149L32.9098 51.0668C31.6014 47.9081 29.0919 45.3986 25.9332 44.0902L24.7851 46.8619ZM30.1381 52.2149C30.303 52.613 30.4408 53.019 30.5515 53.4305L33.4485 52.6511C33.3042 52.1147 33.1246 51.5855 32.9098 51.0668L30.1381 52.2149ZM30.5 34V53.0408H33.5V34H30.5ZM24.9498 53.1153C24.4246 52.3962 23.7082 51.8277 22.8717 51.4813L21.7237 54.2529C22.047 54.3868 22.324 54.6066 22.5272 54.8847L24.9498 53.1153ZM22.8717 51.4813C21.6733 50.9849 20.3267 50.9849 19.1283 51.4813L20.2763 54.2529C20.7397 54.061 21.2603 54.061 21.7237 54.2529L22.8717 51.4813ZM19.1283 51.4813C18.2918 51.8277 17.5754 52.3962 17.0502 53.1153L19.4728 54.8847C19.676 54.6066 19.953 54.3868 20.2763 54.2529L19.1283 51.4813ZM23.7385 52.5H18.2615V55.5H23.7385V52.5Z" fill="currentColor" />
  <path fill-rule="evenodd" clip-rule="evenodd" d="M32 34H64V45.3344C61.301 44.322 58.3129 44.3693 55.6408 45.4761C52.8497 46.6322 50.6322 48.8497 49.4761 51.6408C49.1591 52.406 48.929 53.1972 48.7859 54H32V34ZM62.7385 54H57.2615C57.6257 53.5014 58.1224 53.1073 58.7023 52.8671C59.5332 52.5229 60.4668 52.5229 61.2977 52.8671C61.8776 53.1073 62.3743 53.5014 62.7385 54ZM33 38.5C33 36.8431 34.3431 35.5 36 35.5H40C41.6569 35.5 43 36.8431 43 38.5C43 40.1569 41.6569 41.5 40 41.5H36C34.3431 41.5 33 40.1569 33 38.5Z" fill="currentColor" />
  <path d="M64 34H65.5C65.5 33.1716 64.8284 32.5 64 32.5V34ZM32 34V32.5C31.1716 32.5 30.5 33.1716 30.5 34H32ZM64 45.3344L63.4732 46.7388C63.9339 46.9116 64.45 46.8475 64.8544 46.5673C65.2587 46.2871 65.5 45.8263 65.5 45.3344H64ZM55.6408 45.4761L56.2149 46.8619H56.2149L55.6408 45.4761ZM49.4761 51.6408L48.0902 51.0668L49.4761 51.6408ZM48.7859 54V55.5C49.5127 55.5 50.135 54.9789 50.2626 54.2633L48.7859 54ZM32 54H30.5C30.5 54.8284 31.1716 55.5 32 55.5V54ZM57.2615 54L56.0502 53.1153C55.7171 53.5713 55.6684 54.1758 55.9242 54.6793C56.1799 55.1828 56.6968 55.5 57.2615 55.5V54ZM62.7385 54V55.5C63.3032 55.5 63.8201 55.1828 64.0758 54.6793C64.3316 54.1758 64.2829 53.5713 63.9498 53.1153L62.7385 54ZM58.7023 52.8671L59.2763 54.2529L59.2763 54.2529L58.7023 52.8671ZM61.2977 52.8671L60.7237 54.2529L60.7237 54.2529L61.2977 52.8671ZM64 32.5H32V35.5H64V32.5ZM65.5 45.3344V34H62.5V45.3344H65.5ZM56.2149 46.8619C58.535 45.9008 61.1297 45.8598 63.4732 46.7388L64.5268 43.9299C61.4723 42.7843 58.0907 42.8377 55.0668 44.0902L56.2149 46.8619ZM50.8619 52.2149C51.8658 49.7913 53.7913 47.8658 56.2149 46.8619L55.0668 44.0902C51.9081 45.3986 49.3986 47.9081 48.0902 51.0668L50.8619 52.2149ZM50.2626 54.2633C50.3869 53.5663 50.5866 52.8794 50.8619 52.2149L48.0902 51.0668C47.7316 51.9327 47.4712 52.828 47.3092 53.7367L50.2626 54.2633ZM32 55.5H48.7859V52.5H32V55.5ZM30.5 34V54H33.5V34H30.5ZM57.2615 55.5H62.7385V52.5H57.2615V55.5ZM58.1283 51.4813C57.2918 51.8277 56.5754 52.3962 56.0502 53.1153L58.4728 54.8847C58.676 54.6066 58.953 54.3868 59.2763 54.2529L58.1283 51.4813ZM61.8717 51.4813C60.6733 50.9849 59.3267 50.9849 58.1283 51.4813L59.2763 54.2529C59.7397 54.061 60.2603 54.061 60.7237 54.2529L61.8717 51.4813ZM63.9498 53.1153C63.4246 52.3962 62.7082 51.8277 61.8717 51.4813L60.7237 54.2529C61.047 54.3868 61.324 54.6066 61.5272 54.8847L63.9498 53.1153ZM36 34C33.5147 34 31.5 36.0147 31.5 38.5H34.5C34.5 37.6716 35.1716 37 36 37V34ZM40 34H36V37H40V34ZM44.5 38.5C44.5 36.0147 42.4853 34 40 34V37C40.8284 37 41.5 37.6716 41.5 38.5H44.5ZM40 43C42.4853 43 44.5 40.9853 44.5 38.5H41.5C41.5 39.3284 40.8284 40 40 40V43ZM36 43H40V40H36V43ZM31.5 38.5C31.5 40.9853 33.5147 43 36 43V40C35.1716 40 34.5 39.3284 34.5 38.5H31.5Z" fill="currentColor" />
  <path d="M18.1716 49.1716C19.9826 48.4214 22.0174 48.4214 23.8284 49.1716C25.6394 49.9217 27.0783 51.3606 27.8284 53.1716C28.5786 54.9826 28.5786 57.0174 27.8284 58.8284C27.0783 60.6394 25.6394 62.0783 23.8284 62.8284C22.0174 63.5786 19.9826 63.5786 18.1716 62.8284C16.3606 62.0783 14.9217 60.6394 14.1716 58.8284C13.4214 57.0174 13.4214 54.9826 14.1716 53.1716C14.9217 51.3606 16.3606 49.9217 18.1716 49.1716Z" fill="currentColor" />
  <path d="M57.1716 49.1716C58.9826 48.4214 61.0174 48.4214 62.8284 49.1716C64.6394 49.9217 66.0783 51.3606 66.8284 53.1716C67.5786 54.9826 67.5786 57.0174 66.8284 58.8284C66.0783 60.6394 64.6394 62.0783 62.8284 62.8284C61.0174 63.5786 58.9826 63.5786 57.1716 62.8284C55.3606 62.0783 53.9217 60.6394 53.1716 58.8284C52.4214 57.0174 52.4214 54.9826 53.1716 53.1716C53.9217 51.3606 55.3606 49.9217 57.1716 49.1716Z" fill="currentColor" />
</svg>