<svg viewBox="0 0 80 80" fill="none">
  <path d="M43 38.1224C43 36.4655 41.6569 35.1224 40 35.1224C38.3431 35.1224 37 36.4655 37 38.1224H43ZM37 65.998C37 67.6549 38.3431 68.998 40 68.998C41.6569 68.998 43 67.6549 43 65.998H37ZM37 38.1224L37 65.998H43L43 38.1224H37Z" fill="currentColor" />
  <path d="M33.9378 15.5C37.6891 13.3342 42.3109 13.3342 46.0622 15.5C49.8135 17.6658 52.1244 21.6684 52.1244 26C52.1244 30.3316 49.8135 34.3342 46.0622 36.5C42.3109 38.6658 37.6891 38.6658 33.9378 36.5C30.1865 34.3342 27.8756 30.3316 27.8756 26C27.8756 21.6684 30.1865 17.6658 33.9378 15.5Z" fill="currentColor" stroke="currentColor" stroke-width="4" stroke-linecap="round" stroke-linejoin="round" />
</svg>