<svg viewBox="0 0 80 80" fill="none">
  <path fill-rule="evenodd" clip-rule="evenodd" d="M50.8224 33.2841L31.008 22.743C29.2561 21.8109 27.1909 21.6663 25.3262 22.345L19.7985 24.3569C19.3667 24.5141 19.2513 25.0706 19.5849 25.3865L34.2839 39.3037L18.5107 45.0447L13.6805 42.0448C12.6378 41.3972 11.3555 41.2642 10.202 41.684L5.45108 43.4133C4.99314 43.5799 4.83855 44.15 5.14954 44.5252L13.9345 55.124C13.9589 55.1535 13.9934 55.1711 14.0299 55.1746C14.0582 55.1928 14.0913 55.2035 14.1264 55.2046L22.9607 55.4824C27.707 55.6317 32.4381 54.874 36.9004 53.2498L63.8001 43.4591C66.6965 42.405 69.3245 40.7247 71.4968 38.5381L72.708 37.3189C73.9986 36.0199 74.4226 34.0923 73.7963 32.3716C73.1701 30.6509 71.6062 29.4468 69.7826 29.2812L68.071 29.1258C65.0014 28.8472 61.9082 29.2493 59.0119 30.3034L50.8224 33.2841Z" fill="currentColor" />
  <path d="M7 64H75" stroke="currentColor" stroke-width="6" stroke-linecap="round" stroke-linejoin="round" />
</svg>