<svg viewBox="0 0 80 80" fill="none">
  <path d="M28.9323 63.3193L27.7842 66.0909L27.7842 66.0909L28.9323 63.3193ZM30.1018 63.8037L31.2499 61.0321L31.2499 61.0321L30.1018 63.8037ZM19.2771 60.3616C18.1142 59.1815 18.128 57.282 19.3081 56.1191C20.4882 54.9561 22.3877 54.97 23.5507 56.1501L19.2771 60.3616ZM16.1018 30.0047L18.8734 31.1528L18.8734 31.1528L16.1018 30.0047ZM17.2809 37.3039C17.0926 38.95 15.6055 40.1317 13.9594 39.9434C12.3133 39.755 11.1315 38.2679 11.3198 36.6218L17.2809 37.3039ZM11.3176 36.641C11.5049 34.9948 12.9912 33.812 14.6375 33.9993C16.2837 34.1865 17.4664 35.6728 17.2792 37.3191L11.3176 36.641ZM17.2703 37.3988C17.0888 39.0457 15.6067 40.2337 13.9598 40.0522C12.3129 39.8707 11.1249 38.3886 11.3064 36.7417L17.2703 37.3988ZM30.1018 16.0047L31.2499 18.7764L30.1018 16.0047ZM49.9008 16.0047L51.0489 13.2331L51.0489 13.2331L49.9008 16.0047ZM63.9008 30.0047L66.6724 28.8567L66.6724 28.8567L63.9008 30.0047ZM63.9008 49.8037L66.6724 50.9518L63.9008 49.8037ZM49.9008 63.8037L51.0489 66.5753L51.0488 66.5753L49.9008 63.8037ZM30.0803 60.5476L31.2499 61.0321L28.9538 66.5753L27.7842 66.0909L30.0803 60.5476ZM27.7842 66.0909C24.5626 64.7565 21.6781 62.7979 19.2771 60.3616L23.5507 56.1501C25.3937 58.0202 27.6075 59.5234 30.0803 60.5476L27.7842 66.0909ZM18.8734 31.1528C18.0516 33.137 17.5208 35.2077 17.2809 37.3039L11.3198 36.6218C11.6226 33.9755 12.2928 31.3612 13.3302 28.8567L18.8734 31.1528ZM17.2792 37.3191C17.2762 37.3457 17.2732 37.3722 17.2703 37.3988L11.3064 36.7417C11.3101 36.7081 11.3138 36.6746 11.3176 36.641L17.2792 37.3191ZM31.2499 18.7764C25.6464 21.0974 21.1945 25.5493 18.8734 31.1528L13.3302 28.8567C16.2602 21.783 21.8801 16.1631 28.9538 13.2331L31.2499 18.7764ZM48.7528 18.7764C43.1493 16.4553 36.8533 16.4553 31.2499 18.7764L28.9538 13.2331C36.0274 10.3031 43.9752 10.3031 51.0489 13.2331L48.7528 18.7764ZM61.1292 31.1528C58.8081 25.5493 54.3562 21.0974 48.7528 18.7764L51.0489 13.2331C58.1225 16.1631 63.7424 21.783 66.6724 28.8567L61.1292 31.1528ZM61.1292 48.6557C63.4502 43.0522 63.4502 36.7562 61.1292 31.1528L66.6724 28.8567C69.6024 35.9303 69.6024 43.8781 66.6724 50.9518L61.1292 48.6557ZM48.7527 61.0321C54.3562 58.711 58.8081 54.2591 61.1292 48.6557L66.6724 50.9518C63.7424 58.0254 58.1225 63.6454 51.0489 66.5753L48.7527 61.0321ZM51.0488 66.5753C43.9752 69.5053 36.0274 69.5053 28.9538 66.5753L31.2499 61.0321C36.8533 63.3531 43.1493 63.3531 48.7528 61.0321L51.0488 66.5753Z" fill="currentColor" />
  <path d="M23.4038 37.0703L6.59619 37.0703C4.90008 37.0703 4.05067 39.121 5.25 40.3203L12.8787 47.949C14.0503 49.1206 15.9497 49.1206 17.1213 47.949L24.75 40.3203C25.9493 39.121 25.0999 37.0703 23.4038 37.0703Z" fill="currentColor" />
  <path d="M49.9969 38.2442C51.3866 39.0022 51.3866 40.9978 49.9969 41.7558L34.1735 50.3867C32.8408 51.1137 31.2158 50.149 31.2158 48.6309L31.2158 31.3691C31.2158 29.851 32.8408 28.8863 34.1735 29.6133L49.9969 38.2442Z" fill="currentColor" />
</svg>