<svg viewBox="0 0 80 80" fill="none">
  <path fill-rule="evenodd" clip-rule="evenodd" d="M41.789 14.3419C41.052 12.8678 38.9483 12.8678 38.2113 14.3419L13.4474 63.8697C12.7825 65.1995 13.7495 66.7642 15.2362 66.7642L33.9993 66.7642L39.9993 42.7642L45.9993 66.7642L64.7641 66.7642C66.2508 66.7642 67.2178 65.1995 66.5529 63.8697L41.789 14.3419Z" fill="currentColor" />
  <path d="M38.2113 14.3419L39.5529 15.0127L38.2113 14.3419ZM41.789 14.3419L43.1307 13.671L41.789 14.3419ZM13.4474 63.8697L12.1057 63.1989L13.4474 63.8697ZM15.2362 66.7642V65.2642V66.7642ZM33.9993 66.7642V68.2642C34.6876 68.2642 35.2875 67.7957 35.4545 67.128L33.9993 66.7642ZM39.9993 42.7642L41.4545 42.4004C41.2875 41.7326 40.6876 41.2642 39.9993 41.2642C39.311 41.2642 38.711 41.7326 38.5441 42.4004L39.9993 42.7642ZM45.9993 66.7642L44.5441 67.128C44.711 67.7957 45.311 68.2642 45.9993 68.2642V66.7642ZM64.7641 66.7642V68.2642V66.7642ZM66.5529 63.8697L67.8946 63.1989V63.1989L66.5529 63.8697ZM39.5529 15.0127C39.7372 14.6442 40.2631 14.6442 40.4474 15.0127L43.1307 13.671C41.8408 11.0914 38.1595 11.0914 36.8697 13.6711L39.5529 15.0127ZM14.789 64.5406L39.5529 15.0127L36.8697 13.6711L12.1057 63.1989L14.789 64.5406ZM15.2362 65.2642C14.8645 65.2642 14.6228 64.873 14.789 64.5406L12.1057 63.1989C10.9422 65.5261 12.6344 68.2642 15.2362 68.2642V65.2642ZM33.9993 65.2642L15.2362 65.2642V68.2642L33.9993 68.2642V65.2642ZM35.4545 67.128L41.4545 43.128L38.5441 42.4004L32.5441 66.4004L35.4545 67.128ZM38.5441 43.128L44.5441 67.128L47.4545 66.4004L41.4545 42.4004L38.5441 43.128ZM64.7641 65.2642L45.9993 65.2642V68.2642L64.7641 68.2642V65.2642ZM65.2113 64.5405C65.3775 64.873 65.1358 65.2642 64.7641 65.2642V68.2642C67.3659 68.2642 69.0582 65.5261 67.8946 63.1989L65.2113 64.5405ZM40.4474 15.0127L65.2113 64.5406L67.8946 63.1989L43.1307 13.671L40.4474 15.0127Z" fill="currentColor" />
</svg>