<svg viewBox="0 0 80 80" fill="none">
  <path fill-rule="evenodd" clip-rule="evenodd" d="M39.9998 13C33.8097 16.1734 26.9135 17.8608 19.864 17.8608C18.9123 17.8608 17.9634 17.8301 17.0186 17.7691C15.799 23.3474 15.6641 29.1518 16.6706 34.8601C18.4724 45.0788 23.8171 54.336 31.7658 61.0058C34.3144 63.1443 37.0785 64.973 39.9999 66.4707C42.9212 64.973 45.6853 63.1443 48.2339 61.0058C56.1827 54.336 61.5273 45.0788 63.3291 34.8601C64.3356 29.1518 64.2007 23.3474 62.9811 17.769C62.0363 17.8301 61.0873 17.8608 60.1355 17.8608C53.0861 17.8608 46.1898 16.1734 39.9998 13Z" fill="currentColor" />
  <path d="M39.9998 13L40.6841 11.6652C40.2545 11.4449 39.7451 11.4449 39.3155 11.6652L39.9998 13ZM17.0186 17.7691L17.1153 16.2722C16.3754 16.2244 15.7116 16.7244 15.5532 17.4487L17.0186 17.7691ZM16.6706 34.8601L15.1934 35.1205L16.6706 34.8601ZM31.7658 61.0058L32.73 59.8567L31.7658 61.0058ZM39.9999 66.4707L39.3156 67.8055C39.7452 68.0258 40.2546 68.0258 40.6842 67.8055L39.9999 66.4707ZM48.2339 61.0058L49.1981 62.1548L48.2339 61.0058ZM63.3291 34.8601L64.8063 35.1205L63.3291 34.8601ZM62.9811 17.769L64.4465 17.4487C64.2882 16.7243 63.6244 16.2244 62.8845 16.2722L62.9811 17.769ZM39.3155 11.6652C33.3357 14.7308 26.6738 16.3608 19.864 16.3608V19.3608C27.1531 19.3608 34.2838 17.6161 40.6841 14.3348L39.3155 11.6652ZM19.864 16.3608C18.9446 16.3608 18.0279 16.3311 17.1153 16.2722L16.9219 19.2659C17.8988 19.329 18.88 19.3608 19.864 19.3608V16.3608ZM15.5532 17.4487C14.2922 23.2165 14.1527 29.2183 15.1934 35.1205L18.1478 34.5996C17.1755 29.0853 17.3058 23.4782 18.484 18.0894L15.5532 17.4487ZM15.1934 35.1205C17.0565 45.6866 22.5827 55.2584 30.8017 62.1548L32.73 59.8567C25.0514 53.4136 19.8884 44.471 18.1478 34.5996L15.1934 35.1205ZM30.8017 62.1548C33.4368 64.366 36.2949 66.2569 39.3156 67.8055L40.6842 65.1359C37.8621 63.6891 35.192 61.9226 32.73 59.8567L30.8017 62.1548ZM40.6842 67.8055C43.7049 66.2569 46.5629 64.366 49.1981 62.1548L47.2697 59.8567C44.8077 61.9226 42.1376 63.6891 39.3156 65.1359L40.6842 67.8055ZM49.1981 62.1548C57.417 55.2584 62.9433 45.6866 64.8063 35.1205L61.8519 34.5996C60.1113 44.471 54.9483 53.4136 47.2697 59.8567L49.1981 62.1548ZM64.8063 35.1205C65.8471 29.2183 65.7075 23.2165 64.4465 17.4487L61.5158 18.0894C62.6939 23.4782 62.8242 29.0853 61.8519 34.5996L64.8063 35.1205ZM62.8845 16.2722C61.9717 16.3311 61.055 16.3608 60.1355 16.3608V19.3608C61.1196 19.3608 62.1009 19.329 63.0778 19.2659L62.8845 16.2722ZM60.1355 16.3608C53.3257 16.3608 46.6638 14.7308 40.6841 11.6652L39.3155 14.3348C45.7158 17.6161 52.8465 19.3608 60.1355 19.3608V16.3608Z" fill="currentColor" />
</svg>