<svg viewBox="0 0 80 80" fill="none">
  <path d="M23 24C23 22.3431 21.6569 21 20 21C18.3431 21 17 22.3431 17 24L23 24ZM17 65C17 66.6569 18.3431 68 20 68C21.6569 68 23 66.6569 23 65H17ZM17 24L17 65H23L23 24L17 24Z" fill="currentColor" />
  <path d="M25.818 24L14.182 24C13.0078 24 12.4197 22.5803 13.25 21.75L18.5858 16.4142C19.3668 15.6332 20.6332 15.6332 21.4142 16.4142L26.75 21.75C27.5803 22.5803 26.9923 24 25.818 24Z" fill="currentColor" stroke="currentColor" stroke-width="5" stroke-linecap="round" stroke-linejoin="round" />
  <rect width="20" height="16" rx="2" transform="matrix(1 0 0 -1 37 64)" fill="currentColor" stroke="currentColor" stroke-width="3" stroke-linecap="round" />
  <rect width="32" height="24" rx="2" transform="matrix(1 0 0 -1 37 40)" fill="currentColor" stroke="currentColor" stroke-width="3" stroke-linecap="round" />
</svg>