<svg viewBox="0 0 80 80" fill="none">
  <path fill-rule="evenodd" clip-rule="evenodd" d="M17.8564 19C17.8564 15.9698 19.5684 13.1997 22.2787 11.8446C24.5309 10.7185 27.1819 10.7185 29.4341 11.8446C32.1444 13.1997 33.8564 15.9698 33.8564 19V42.7063C33.8564 43.3557 34.1782 43.9573 34.679 44.3707C37.8363 46.9771 39.7128 50.8828 39.7128 55.0557C39.7128 60.0061 37.0718 64.5805 32.7846 67.0557C28.4974 69.5309 23.2154 69.5309 18.9282 67.0557C14.641 64.5805 12 60.0061 12 55.0557C12 50.8828 13.8766 46.9771 17.0338 44.3707C17.5346 43.9573 17.8564 43.3557 17.8564 42.7063L17.8564 19ZM28.0396 18.8184C28.0396 17.7138 27.1442 16.8184 26.0396 16.8184C24.935 16.8184 24.0396 17.7138 24.0396 18.8184L24.0396 46.8624C24.0396 47.7605 23.424 48.5227 22.632 48.946C22.5652 48.9817 22.4988 49.0186 22.4329 49.0566C20.2893 50.2942 18.9688 52.5814 18.9688 55.0566C18.9688 57.5318 20.2893 59.819 22.4329 61.0566C24.5765 62.2942 27.2175 62.2942 29.3611 61.0566C31.5047 59.819 32.8252 57.5318 32.8252 55.0566C32.8252 52.5814 31.5047 50.2942 29.3611 49.0566C28.6126 48.6245 28.0396 47.8828 28.0396 47.0185L28.0396 18.8184Z" fill="currentColor" />
  <path d="M55 11L57.9849 15.7937L63.4853 14.5147L62.2063 20.0151L67 23L62.2063 25.9849L63.4853 31.4853L57.9849 30.2063L55 35L52.0151 30.2063L46.5147 31.4853L47.7937 25.9849L43 23L47.7937 20.0151L46.5147 14.5147L52.0151 15.7937L55 11Z" fill="currentColor" />
</svg>