<svg viewBox="0 0 80 80" fill="none">
  <path d="M56.3735 64.4144L60.9482 20.4973C60.9759 20.2314 60.7673 20 60.5 20L19.5 20C19.2327 20 19.0241 20.2314 19.0518 20.4973L23.6265 64.4144C23.8388 66.4521 25.5563 68 27.605 68H52.395C54.4437 68 56.1612 66.4521 56.3735 64.4144Z" fill="currentColor" />
  <path d="M19 20L23.6265 64.4144C23.8388 66.4521 25.5563 68 27.605 68H52.395C54.4437 68 56.1612 66.4521 56.3735 64.4144L61 20" stroke="currentColor" stroke-width="3" stroke-linecap="round" stroke-linejoin="round" />
  <path d="M65 19.6152H61L19 19.6152H15" stroke="currentColor" stroke-width="5" stroke-linecap="round" stroke-linejoin="round" />
  <path d="M27.8545 19.6139L25.8999 18.0552C25.3012 18.806 25.1854 19.8334 25.6021 20.6986C26.0187 21.5638 26.8942 22.1139 27.8545 22.1139V19.6139ZM52.147 19.6139V22.1139C53.1073 22.1139 53.9828 21.5638 54.3994 20.6986C54.8161 19.8334 54.7003 18.806 54.1016 18.0552L52.147 19.6139ZM33.9264 12V9.5C33.1656 9.5 32.4462 9.84645 31.9718 10.4413L33.9264 12ZM46.0751 12L48.0297 10.4413C47.5553 9.84645 46.8359 9.5 46.0751 9.5V12ZM27.8545 22.1139L52.147 22.1139V17.1139L27.8545 17.1139V22.1139ZM29.8091 21.1726L35.881 13.5587L31.9718 10.4413L25.8999 18.0552L29.8091 21.1726ZM33.9264 14.5L46.0751 14.5V9.5L33.9264 9.5V14.5ZM44.1205 13.5587L50.1924 21.1726L54.1016 18.0552L48.0297 10.4413L44.1205 13.5587Z" fill="currentColor" />
</svg>