<svg viewBox="0 0 80 80" fill="none">
  <path d="M60 70L20 70C17.7909 70 16 68.2091 16 66L16 64.6637C16 58.8511 19.6061 53.6484 25.049 51.6085C34.6889 47.9955 45.3111 47.9955 54.951 51.6085C60.3939 53.6484 64 58.8511 64 64.6637V66C64 68.2091 62.2091 70 60 70Z" fill="currentColor" stroke="currentColor" stroke-width="3" stroke-linecap="square" stroke-linejoin="round" />
  <path d="M33.9015 38.8673C37.7294 40.8336 42.2706 40.8336 46.0985 38.8673C49.6611 37.0373 52.2136 33.7042 53.0516 29.7878L53.2752 28.7425C54.1322 24.7375 53.2168 20.5576 50.7644 17.2774L50.4053 16.797C47.9525 13.5163 44.0962 11.5845 40 11.5845C35.9038 11.5845 32.0475 13.5163 29.5947 16.797L29.2356 17.2774C26.7832 20.5576 25.8678 24.7375 26.7248 28.7425L26.9484 29.7878C27.7864 33.7042 30.3389 37.0373 33.9015 38.8673Z" fill="currentColor" stroke="currentColor" stroke-width="3" stroke-linecap="square" stroke-linejoin="round" />
</svg>