<svg viewBox="0 0 80 80" fill="none">
  <circle cx="40" cy="41" r="28" stroke="currentColor" stroke-width="5" />
  <path fill-rule="evenodd" clip-rule="evenodd" d="M60.1516 60.44C65.011 55.4039 68 48.551 68 41C68 25.536 55.464 13 40 13C24.536 13 12 25.536 12 41C12 48.5511 14.9891 55.4041 19.8486 60.4403C21.5102 57.9123 23.9709 55.9144 26.9542 54.841C35.3869 51.8069 44.6135 51.8069 53.0462 54.841C56.0294 55.9143 58.49 57.9122 60.1516 60.44ZM33.2167 31.0827C34.8458 28.9908 37.3488 27.7676 40.0002 27.7676C42.6516 27.7676 45.1546 28.9908 46.7837 31.0827L46.8939 31.2241C48.5381 33.3353 49.1531 36.0707 48.571 38.6826L48.501 38.9965C47.9272 41.5708 46.2177 43.7465 43.8522 44.913C41.4238 46.1105 38.5766 46.1105 36.1482 44.913C33.7827 43.7465 32.0732 41.5708 31.4994 38.9965L31.4294 38.6826C30.8473 36.0707 31.4623 33.3353 33.1066 31.2241L33.2167 31.0827ZM40.0002 22.7676C35.807 22.7676 31.8483 24.7022 29.2718 28.0105L29.1617 28.1519C26.6005 31.4407 25.6423 35.7017 26.5492 39.7704L26.6192 40.0843C27.5224 44.1365 30.2133 47.5612 33.9368 49.3974C37.7593 51.2824 42.2411 51.2824 46.0636 49.3974C49.7871 47.5612 52.478 44.1365 53.3812 40.0843L53.4512 39.7704C54.3581 35.7017 53.3999 31.4407 50.8387 28.1519L50.7286 28.0105C48.1521 24.7022 44.1934 22.7676 40.0002 22.7676ZM25.184 61.7566C26.1386 60.7903 27.3122 60.026 28.647 59.5457C35.9855 56.9053 44.0149 56.9053 51.3534 59.5457C52.6882 60.026 53.8619 60.7903 54.8166 61.7567C50.6403 64.7437 45.5278 66.4999 40.0004 66.4999C34.4729 66.4999 29.3603 64.7437 25.184 61.7566Z" fill="currentColor" />
</svg>