<svg viewBox="0 0 80 80" fill="none">
  <path fill-rule="evenodd" clip-rule="evenodd" d="M8 36.1C8 36.0448 8.04477 36 8.1 36H71.9C71.9552 36 72 36.0448 72 36.1V50C72 50.2713 71.973 50.5362 71.9215 50.7924C71.881 50.5554 71.8339 50.3189 71.7801 50.083C70.8924 46.1938 68.2819 42.9203 64.6877 41.1895C61.0934 39.4586 56.9066 39.4586 53.3123 41.1895C49.7181 42.9203 47.1076 46.1937 46.2199 50.083C45.9236 51.3816 45.83 52.7015 45.9294 54H34.0706C34.17 52.7015 34.0764 51.3816 33.7801 50.083C32.8924 46.1938 30.2819 42.9203 26.6877 41.1895C23.0934 39.4586 18.9066 39.4586 15.3123 41.1895C11.7181 42.9203 9.10765 46.1937 8.21994 50.083C8.16612 50.3189 8.11898 50.5554 8.07848 50.7924C8.02701 50.5363 8 50.2713 8 50V36.1ZM61.9435 54H56.0565C55.8736 53.4614 55.8396 52.8762 55.9692 52.3082C56.1797 51.3859 56.7988 50.6096 57.6512 50.1991C58.5035 49.7887 59.4965 49.7887 60.3488 50.1991C61.2012 50.6096 61.8203 51.3859 62.0308 52.3082C62.1604 52.8762 62.1264 53.4614 61.9435 54ZM24.0308 52.3082C24.1604 52.8762 24.1264 53.4614 23.9435 54H18.0565C17.8736 53.4614 17.8396 52.8762 17.9692 52.3082C18.1797 51.3859 18.7988 50.6096 19.6512 50.1991C20.5035 49.7887 21.4965 49.7887 22.3488 50.1991C23.2012 50.6096 23.8203 51.3859 24.0308 52.3082Z" fill="currentColor" />
  <path d="M71.9215 50.7924L69.4573 51.2136C69.6602 52.4008 70.6809 53.2746 71.8852 53.2921C73.0896 53.3096 74.1352 52.4658 74.3725 51.2849L71.9215 50.7924ZM71.7801 50.083L69.3427 50.6393L69.3427 50.6393L71.7801 50.083ZM64.6877 41.1895L65.7724 38.937V38.937L64.6877 41.1895ZM53.3123 41.1895L52.2276 38.937V38.937L53.3123 41.1895ZM46.2199 50.083L48.6573 50.6393L46.2199 50.083ZM45.9294 54V56.5C46.6256 56.5 47.2903 56.2097 47.7634 55.699C48.2365 55.1882 48.4753 54.5033 48.4221 53.8091L45.9294 54ZM34.0706 54L31.5779 53.8091C31.5247 54.5033 31.7635 55.1882 32.2366 55.699C32.7097 56.2097 33.3744 56.5 34.0706 56.5V54ZM33.7801 50.083L36.2174 49.5267L36.2174 49.5267L33.7801 50.083ZM26.6877 41.1895L27.7724 38.937V38.937L26.6877 41.1895ZM15.3123 41.1895L14.2276 38.937L14.2276 38.937L15.3123 41.1895ZM8.21994 50.083L10.6573 50.6393L10.6573 50.6393L8.21994 50.083ZM8.07848 50.7924L5.62747 51.2849C5.86478 52.4658 6.91039 53.3096 8.11475 53.2921C9.31912 53.2746 10.3398 52.4009 10.5427 51.2136L8.07848 50.7924ZM56.0565 54L53.6893 54.8041C54.0337 55.818 54.9857 56.5 56.0565 56.5V54ZM61.9435 54V56.5C63.0143 56.5 63.9663 55.818 64.3107 54.8041L61.9435 54ZM55.9692 52.3082L58.4065 52.8646L58.4065 52.8645L55.9692 52.3082ZM57.6512 50.1991L58.7359 52.4516L57.6512 50.1991ZM60.3488 50.1991L59.2641 52.4516L60.3488 50.1991ZM62.0308 52.3082L59.5935 52.8645L59.5935 52.8646L62.0308 52.3082ZM23.9435 54V56.5C25.0143 56.5 25.9663 55.818 26.3107 54.8041L23.9435 54ZM24.0308 52.3082L21.5935 52.8645L21.5935 52.8645L24.0308 52.3082ZM18.0565 54L15.6893 54.8041C16.0337 55.818 16.9857 56.5 18.0565 56.5V54ZM17.9692 52.3082L20.4065 52.8645L20.4065 52.8645L17.9692 52.3082ZM19.6512 50.1991L20.7359 52.4516H20.7359L19.6512 50.1991ZM22.3488 50.1991L21.2641 52.4516H21.2641L22.3488 50.1991ZM8.1 33.5C6.66405 33.5 5.5 34.6641 5.5 36.1H10.5C10.5 37.4255 9.42549 38.5 8.1 38.5V33.5ZM71.9 33.5H8.1V38.5H71.9V33.5ZM74.5 36.1C74.5 34.6641 73.336 33.5 71.9 33.5V38.5C70.5745 38.5 69.5 37.4254 69.5 36.1H74.5ZM74.5 50V36.1H69.5V50H74.5ZM74.3725 51.2849C74.4564 50.8675 74.5 50.4376 74.5 50H69.5C69.5 50.105 69.4896 50.205 69.4705 50.2998L74.3725 51.2849ZM69.3427 50.6393C69.3863 50.8303 69.4245 51.0218 69.4573 51.2136L74.3858 50.3712C74.3376 50.089 74.2814 49.8074 74.2174 49.5267L69.3427 50.6393ZM63.603 43.4419C66.5117 44.8427 68.6243 47.4918 69.3427 50.6393L74.2174 49.5267C73.1604 44.8957 70.0521 40.998 65.7724 38.937L63.603 43.4419ZM54.397 43.4419C57.3058 42.0411 60.6942 42.0411 63.603 43.4419L65.7724 38.937C61.4927 36.876 56.5073 36.876 52.2276 38.937L54.397 43.4419ZM48.6573 50.6393C49.3757 47.4918 51.4883 44.8427 54.397 43.4419L52.2276 38.937C47.9479 40.998 44.8396 44.8957 43.7826 49.5267L48.6573 50.6393ZM48.4221 53.8091C48.3417 52.7585 48.4174 51.6905 48.6573 50.6393L43.7826 49.5267C43.4298 51.0727 43.3183 52.6446 43.4367 54.1909L48.4221 53.8091ZM34.0706 56.5H45.9294V51.5H34.0706V56.5ZM31.3427 50.6393C31.5826 51.6905 31.6583 52.7585 31.5779 53.8091L36.5633 54.1909C36.6817 52.6446 36.5702 51.0727 36.2174 49.5267L31.3427 50.6393ZM25.603 43.4419C28.5117 44.8427 30.6243 47.4918 31.3427 50.6393L36.2174 49.5267C35.1604 44.8957 32.0521 40.998 27.7724 38.937L25.603 43.4419ZM16.397 43.4419C19.3058 42.0411 22.6942 42.0411 25.603 43.4419L27.7724 38.937C23.4927 36.876 18.5073 36.876 14.2276 38.937L16.397 43.4419ZM10.6573 50.6393C11.3757 47.4918 13.4883 44.8427 16.397 43.4419L14.2276 38.937C9.94792 40.998 6.83962 44.8957 5.78262 49.5267L10.6573 50.6393ZM10.5427 51.2136C10.5755 51.0218 10.6137 50.8303 10.6573 50.6393L5.78262 49.5267C5.71856 49.8074 5.66244 50.089 5.61421 50.3712L10.5427 51.2136ZM5.5 50C5.5 50.4376 5.5436 50.8675 5.62747 51.2849L10.5295 50.2998C10.5104 50.205 10.5 50.105 10.5 50H5.5ZM5.5 36.1V50H10.5V36.1H5.5ZM56.0565 56.5H61.9435V51.5H56.0565V56.5ZM53.5319 51.7519C53.298 52.7767 53.3594 53.8328 53.6893 54.8041L58.4237 53.1959C58.3877 53.0901 58.3812 52.9756 58.4065 52.8646L53.5319 51.7519ZM56.5665 47.9467C55.0286 48.6873 53.9117 50.0879 53.5319 51.7519L58.4065 52.8645C58.4478 52.6839 58.569 52.5319 58.7359 52.4516L56.5665 47.9467ZM61.4335 47.9467C59.8957 47.2061 58.1043 47.2061 56.5665 47.9467L58.7359 52.4516C58.9028 52.3712 59.0972 52.3712 59.2641 52.4516L61.4335 47.9467ZM64.4681 51.7519C64.0883 50.0879 62.9714 48.6873 61.4335 47.9467L59.2641 52.4516C59.431 52.5319 59.5522 52.6839 59.5935 52.8645L64.4681 51.7519ZM64.3107 54.8041C64.6406 53.8328 64.702 52.7767 64.4681 51.7519L59.5935 52.8646C59.6188 52.9756 59.6123 53.0901 59.5763 53.1959L64.3107 54.8041ZM26.3107 54.8041C26.6406 53.8328 26.702 52.7767 26.4681 51.7519L21.5935 52.8645C21.6188 52.9756 21.6123 53.0901 21.5763 53.1959L26.3107 54.8041ZM18.0565 56.5H23.9435V51.5H18.0565V56.5ZM15.5319 51.7519C15.298 52.7767 15.3594 53.8328 15.6893 54.8041L20.4237 53.1959C20.3877 53.0901 20.3812 52.9756 20.4065 52.8645L15.5319 51.7519ZM18.5665 47.9467C17.0286 48.6873 15.9117 50.0879 15.5319 51.7519L20.4065 52.8645C20.4478 52.6839 20.569 52.5319 20.7359 52.4516L18.5665 47.9467ZM23.4335 47.9467C21.8957 47.2061 20.1043 47.2061 18.5665 47.9467L20.7359 52.4516C20.9028 52.3712 21.0972 52.3712 21.2641 52.4516L23.4335 47.9467ZM26.4681 51.7519C26.0883 50.0879 24.9714 48.6873 23.4335 47.9467L21.2641 52.4516C21.431 52.5319 21.5522 52.6839 21.5935 52.8645L26.4681 51.7519Z" fill="currentColor" />
  <path d="M71.9124 35.9212L73.5848 34.0629L71.9124 35.9212ZM12 20.5H50.4651V15.5H12V20.5ZM10.5 35.9V22H5.5V35.9H10.5ZM8.1 33.5C9.42553 33.5 10.5 34.5746 10.5 35.9H5.5C5.5 37.3359 6.66401 38.5 8.1 38.5V33.5ZM71.9 33.5H8.1V38.5H71.9V33.5ZM73.5848 34.0629L54.8133 17.1686L51.4685 20.8851L70.24 37.7794L73.5848 34.0629ZM50.4651 20.5C50.8356 20.5 51.1931 20.6372 51.4685 20.8851L54.8133 17.1686C53.6198 16.0944 52.0708 15.5 50.4651 15.5V20.5ZM71.9 38.5C72.4541 38.5 73.1121 38.3131 73.6497 37.8001C74.1635 37.3098 74.3671 36.7128 74.4184 36.242C74.5145 35.3606 74.1466 34.5686 73.5848 34.0629L70.24 37.7794C69.7088 37.3013 69.3553 36.5487 69.4479 35.6999C69.4975 35.2453 69.6948 34.6629 70.1976 34.183C70.7242 33.6805 71.3665 33.5 71.9 33.5V38.5ZM12 15.5C8.41015 15.5 5.5 18.4101 5.5 22H10.5C10.5 21.1716 11.1716 20.5 12 20.5V15.5Z" fill="currentColor" />
  <path d="M8.1001 33.5C6.71939 33.5 5.6001 34.6193 5.6001 36C5.6001 37.3807 6.71939 38.5 8.1001 38.5V33.5ZM71.8321 38.5C73.2128 38.5 74.3321 37.3807 74.3321 36C74.3321 34.6193 73.2128 33.5 71.8321 33.5V38.5ZM37.3321 36C37.3321 37.3807 38.4514 38.5 39.8321 38.5C41.2128 38.5 42.3321 37.3807 42.3321 36H37.3321ZM42.3321 18C42.3321 16.6193 41.2128 15.5 39.8321 15.5C38.4514 15.5 37.3321 16.6193 37.3321 18H42.3321ZM21.3321 36C21.3321 37.3807 22.4514 38.5 23.8321 38.5C25.2128 38.5 26.3321 37.3807 26.3321 36H21.3321ZM26.3321 18C26.3321 16.6193 25.2128 15.5 23.8321 15.5C22.4514 15.5 21.3321 16.6193 21.3321 18L26.3321 18ZM8.1001 38.5H71.8321V33.5H8.1001V38.5ZM42.3321 36V18H37.3321V36H42.3321ZM26.3321 36V18L21.3321 18L21.3321 36H26.3321Z" fill="currentColor" />
  <path d="M17.4818 45.6943C19.7051 44.6236 22.2949 44.6236 24.5182 45.6943C26.7415 46.765 28.3563 48.7898 28.9054 51.1956C29.4545 53.6015 28.8782 56.1264 27.3397 58.0557C25.8011 59.985 23.4677 61.1087 21 61.1087C18.5323 61.1087 16.1989 59.985 14.6603 58.0557C13.1218 56.1264 12.5455 53.6015 13.0946 51.1956C13.6437 48.7898 15.2585 46.765 17.4818 45.6943Z" fill="currentColor" />
  <path d="M55.4818 45.6943C57.7051 44.6236 60.2949 44.6236 62.5182 45.6943C64.7415 46.765 66.3563 48.7898 66.9054 51.1956C67.4545 53.6015 66.8782 56.1264 65.3397 58.0557C63.8011 59.985 61.4677 61.1087 59 61.1087C56.5323 61.1087 54.1989 59.985 52.6603 58.0557C51.1218 56.1264 50.5455 53.6015 51.0946 51.1956C51.6437 48.7898 53.2585 46.765 55.4818 45.6943Z" fill="currentColor" />
</svg>