<svg viewBox="0 0 80 80" fill="none">
  <path fill-rule="evenodd" clip-rule="evenodd" d="M17.7321 49.7612C17.357 49.3861 16.8483 49.1754 16.3179 49.1754H6.14648C5.04191 49.1754 4.14648 48.28 4.14648 47.1754V33.1754C4.14648 32.0708 5.04191 31.1754 6.14648 31.1754H16.3183C16.8487 31.1754 17.3574 30.9647 17.7325 30.5896L28.7323 19.5898C29.9922 18.3299 32.1465 19.2222 32.1465 21.004V21.1736V58.1736V59.3472C32.1465 61.129 29.9922 62.0213 28.7323 60.7614L17.7321 49.7612Z" fill="currentColor" />
  <path d="M32.1465 21.1736H33.6465V21.1736L32.1465 21.1736ZM28.7323 60.7614L29.7929 59.7007L28.7323 60.7614ZM17.7325 30.5896L18.7931 31.6503L17.7325 30.5896ZM17.7321 49.7612L18.7927 48.7005L17.7321 49.7612ZM16.3179 47.6754H6.14648V50.6754H16.3179V47.6754ZM5.64648 47.1754V33.1754H2.64648V47.1754H5.64648ZM6.14648 32.6754H16.3183V29.6754H6.14648V32.6754ZM18.7931 31.6503L29.7929 20.6505L27.6716 18.5291L16.6718 29.5289L18.7931 31.6503ZM30.6465 21.004V21.1736L33.6465 21.1736V21.004L30.6465 21.004ZM30.6465 21.1736V58.1736H33.6465V21.1736H30.6465ZM30.6465 58.1736V59.3472H33.6465V58.1736H30.6465ZM29.7929 59.7007L18.7927 48.7005L16.6714 50.8218L27.6716 61.822L29.7929 59.7007ZM30.6465 59.3472C30.6465 59.7926 30.1079 60.0157 29.7929 59.7007L27.6716 61.822C29.8765 64.0269 33.6465 62.4653 33.6465 59.3472H30.6465ZM29.7929 20.6505C30.1079 20.3355 30.6465 20.5586 30.6465 21.004L33.6465 21.004C33.6465 17.8859 29.8765 16.3243 27.6716 18.5291L29.7929 20.6505ZM16.3183 32.6754C17.2465 32.6754 18.1367 32.3066 18.7931 31.6503L16.6718 29.5289C16.578 29.6227 16.4509 29.6754 16.3183 29.6754V32.6754ZM5.64648 33.1754C5.64648 32.8993 5.87034 32.6754 6.14648 32.6754V29.6754C4.21349 29.6754 2.64648 31.2424 2.64648 33.1754H5.64648ZM6.14648 47.6754C5.87034 47.6754 5.64648 47.4515 5.64648 47.1754H2.64648C2.64648 49.1084 4.21348 50.6754 6.14648 50.6754V47.6754ZM16.3179 50.6754C16.4505 50.6754 16.5776 50.7281 16.6714 50.8218L18.7927 48.7005C18.1364 48.0441 17.2461 47.6754 16.3179 47.6754V50.6754Z" fill="currentColor" />
  <path d="M42.6357 46.3181L48.4212 40.5326L49.5782 39.3756L55.3637 33.5901" stroke="currentColor" stroke-width="6" stroke-linecap="round" stroke-linejoin="round" />
  <path d="M55.3643 46.3181L49.5788 40.5326L48.4218 39.3756L42.6363 33.5901" stroke="currentColor" stroke-width="6" stroke-linecap="round" stroke-linejoin="round" />
</svg>