<svg viewBox="0 0 80 80" fill="none">
  <path d="M39.0006 40.0006C39.0006 39.4483 39.4483 39.0006 40.0006 39.0006C40.5528 39.0006 41.0006 39.4483 41.0006 40.0006C41.0006 40.5529 40.5528 41.0006 40.0006 41.0006C39.4483 41.0006 39.0006 40.5529 39.0006 40.0006Z" fill="currentColor" />
  <path fill-rule="evenodd" clip-rule="evenodd" d="M47.7781 21.222C42.7978 19.1591 37.202 19.1591 32.2217 21.222C27.2415 23.2849 23.2846 27.2417 21.2217 32.222C19.1588 37.2023 19.1588 42.798 21.2217 47.7783C23.2846 52.7586 27.2415 56.7154 32.2217 58.7783C37.202 60.8412 42.7978 60.8412 47.7781 58.7783C52.7584 56.7154 56.7152 52.7586 58.7781 47.7783C60.841 42.798 60.841 37.2023 58.7781 32.222C56.7152 27.2417 52.7584 23.2849 47.7781 21.222ZM46.9274 33.4333C47.4315 32.7758 47.3071 31.8342 46.6496 31.3302C45.9922 30.8262 45.0506 30.9506 44.5466 31.608L41.0685 36.1448C40.7285 36.0508 40.3704 36.0006 40.0006 36.0006C37.7914 36.0006 36.0006 37.7915 36.0006 40.0006C36.0006 42.2098 37.7914 44.0006 40.0006 44.0006C40.9333 44.0006 41.7916 43.6813 42.4719 43.1461L50.8293 47.9244C51.5485 48.3356 52.4648 48.0859 52.876 47.3667C53.2872 46.6475 53.0375 45.7312 52.3183 45.32L43.964 40.5435C43.9881 40.366 44.0006 40.1848 44.0006 40.0006C44.0006 39.2599 43.7992 38.5663 43.4483 37.9713L46.9274 33.4333Z" fill="currentColor" />
  <path d="M28 16C28 13.7909 29.7909 12 32 12H48C50.2091 12 52 13.7909 52 16V19.9981C51.0207 19.4106 49.994 18.8925 48.9262 18.4502C43.2109 16.0828 36.7891 16.0828 31.0738 18.4502C30.006 18.8925 28.9793 19.4106 28 19.9981V16Z" fill="currentColor" />
  <path d="M28 60.0019V64C28 66.2091 29.7909 68 32 68H48C50.2091 68 52 66.2091 52 64V60.0019C51.0207 60.5894 49.994 61.1075 48.9262 61.5498C43.2109 63.9172 36.7891 63.9172 31.0738 61.5498C30.006 61.1075 28.9793 60.5894 28 60.0019Z" fill="currentColor" />
</svg>