<svg viewBox="0 0 80 80" fill="none">
  <path d="M32.0001 16C32.0001 13.7909 33.7909 12 36.0001 12H44.0001C46.2092 12 48.0001 13.7909 48.0001 16V24.1191C47.6099 23.9226 47.2114 23.7398 46.805 23.5715C42.4479 21.7667 37.5523 21.7667 33.1952 23.5715C32.7888 23.7398 32.3903 23.9226 32.0001 24.1191V16Z" fill="currentColor" />
  <path d="M32.0001 55.8809V64C32.0001 66.2091 33.7909 68 36.0001 68H44.0001C46.2092 68 48.0001 66.2091 48.0001 64V55.8809C47.6099 56.0774 47.2114 56.2602 46.805 56.4285C42.4479 58.2333 37.5523 58.2333 33.1952 56.4285C32.7888 56.2602 32.3903 56.0774 32.0001 55.8809Z" fill="currentColor" />
  <path d="M34.3432 26.3431C37.9653 24.8429 42.0349 24.8429 45.6569 26.3431C49.279 27.8434 52.1567 30.7211 53.6569 34.3431C55.1572 37.9652 55.1572 42.0348 53.6569 45.6569C52.1567 49.2789 49.279 52.1566 45.6569 53.6569C42.0349 55.1571 37.9653 55.1571 34.3432 53.6569C30.7212 52.1566 27.8435 49.2789 26.3432 45.6569C24.8429 42.0348 24.8429 37.9652 26.3432 34.3431C27.8435 30.7211 30.7212 27.8434 34.3432 26.3431Z" fill="currentColor" />
</svg>