<svg viewBox="0 0 80 80" fill="none">
  <circle cx="40" cy="60" r="4" fill="currentColor" stroke="currentColor" stroke-width="4" stroke-linecap="round" />
  <path d="M30.2821 47.9364L28.4116 45.5909L30.2821 47.9364ZM36.5367 44.9243L37.2043 47.8491H37.2043L36.5367 44.9243ZM24.344 50.104C23.4506 51.4994 23.8576 53.3548 25.253 54.2481C26.6484 55.1414 28.5038 54.7344 29.3971 53.339L24.344 50.104ZM49.7335 47.9364L47.8631 50.2819L49.7335 47.9364ZM50.6171 53.337C51.5107 54.7322 53.3662 55.1388 54.7614 54.2452C56.1566 53.3516 56.5633 51.4961 55.6697 50.1009L50.6171 53.337ZM43.4789 44.9243L42.8113 47.8491H42.8113L43.4789 44.9243ZM22.9877 36.7895L24.8582 39.135L24.8582 39.135L22.9877 36.7895ZM33.9333 31.5184L33.2658 28.5936L33.9333 31.5184ZM15.8764 39.8113C14.8745 41.1309 15.1321 43.0129 16.4517 44.0147C17.7714 45.0166 19.6533 44.759 20.6552 43.4394L15.8764 39.8113ZM57.0277 36.7895L55.1573 39.135H55.1573L57.0277 36.7895ZM59.3587 43.4374C60.3607 44.7569 62.2427 45.0143 63.5622 44.0123C64.8817 43.0103 65.1391 41.1283 64.1371 39.8088L59.3587 43.4374ZM46.0821 31.5184L46.7497 28.5936H46.7496L46.0821 31.5184ZM15.6875 25.6476L13.817 23.3021L13.817 23.3021L15.6875 25.6476ZM31.3241 18.1174L31.9917 21.0422L31.3241 18.1174ZM7.37538 29.6929C6.33212 30.9801 6.52986 32.8693 7.81702 33.9125C9.10418 34.9558 10.9934 34.758 12.0366 33.4709L7.37538 29.6929ZM64.3161 25.6476L66.1865 23.3021V23.3021L64.3161 25.6476ZM67.9706 33.4754C69.0137 34.7628 70.9028 34.9608 72.1902 33.9178C73.4775 32.8747 73.6755 30.9856 72.6325 29.6982L67.9706 33.4754ZM48.6795 18.1174L48.0119 21.0422L48.6795 18.1174ZM32.1526 50.2819C33.6323 49.1018 35.359 48.2702 37.2043 47.8491L35.8692 41.9995C33.1451 42.6213 30.5961 43.8488 28.4116 45.5909L32.1526 50.2819ZM29.3971 53.339C30.14 52.1787 31.07 51.1451 32.1526 50.2819L28.4116 45.5909C26.8136 46.8653 25.4406 48.3911 24.344 50.104L29.3971 53.339ZM47.8631 50.2819C48.9449 51.1446 49.8745 52.1775 50.6171 53.337L55.6697 50.1009C54.5734 48.3893 53.2011 46.8645 51.604 45.5909L47.8631 50.2819ZM42.8113 47.8491C44.6566 48.2702 46.3833 49.1018 47.8631 50.2819L51.604 45.5909C49.4195 43.8488 46.8705 42.6213 44.1464 41.9995L42.8113 47.8491ZM44.1464 41.9995C41.4224 41.3778 38.5932 41.3778 35.8692 41.9995L37.2043 47.8491C39.0496 47.4279 40.966 47.4279 42.8113 47.8491L44.1464 41.9995ZM24.8582 39.135C27.7121 36.8591 31.0421 35.2554 34.6009 34.4432L33.2658 28.5936C28.8282 29.6065 24.6759 31.6061 21.1172 34.444L24.8582 39.135ZM20.6552 43.4394C21.8687 41.841 23.2794 40.3941 24.8582 39.135L21.1172 34.444C19.1486 36.014 17.3896 37.8182 15.8764 39.8113L20.6552 43.4394ZM55.1573 39.135C56.7354 40.3936 58.1455 41.8398 59.3587 43.4374L64.1371 39.8088C62.6244 37.8167 60.866 36.0133 58.8982 34.444L55.1573 39.135ZM45.4145 34.4432C48.9733 35.2554 52.3033 36.8591 55.1573 39.135L58.8982 34.444C55.3396 31.6061 51.1872 29.6065 46.7497 28.5936L45.4145 34.4432ZM46.7496 28.5936C42.3121 27.5808 37.7033 27.5808 33.2658 28.5936L34.6009 34.4432C38.1597 33.6309 41.8557 33.6309 45.4145 34.4432L46.7496 28.5936ZM17.5579 27.9931C21.786 24.6213 26.7194 22.2455 31.9917 21.0422L30.6565 15.1926C24.5055 16.5965 18.7498 19.3683 13.817 23.3021L17.5579 27.9931ZM12.0366 33.4709C13.6687 31.4572 15.5186 29.6194 17.5579 27.9931L13.817 23.3021C11.4378 25.1994 9.27951 27.3436 7.37538 29.6929L12.0366 33.4709ZM62.4456 27.9931C64.4865 29.6206 66.3376 31.46 67.9706 33.4754L72.6325 29.6982C70.7273 27.3468 68.5676 25.2009 66.1865 23.3021L62.4456 27.9931ZM48.0119 21.0422C53.2842 22.2455 58.2176 24.6213 62.4456 27.9931L66.1865 23.3021C61.2538 19.3683 55.4981 16.5965 49.347 15.1926L48.0119 21.0422ZM49.347 15.1926C43.196 13.7887 36.8076 13.7887 30.6565 15.1926L31.9917 21.0422C37.2639 19.8388 42.7396 19.8388 48.0119 21.0422L49.347 15.1926Z" fill="currentColor" />
</svg>