<svg viewBox="0 0 80 80" fill="none">
  <circle cx="40" cy="40" r="30" stroke="currentColor" stroke-width="4" />
  <path d="M20.2016 20.2011L20.9087 20.9082L20.2016 20.2011ZM49.8991 16.1006L50.6062 15.3935L49.8991 16.1006ZM49.8997 35.8997L49.1926 35.1926V35.1926L49.8997 35.8997ZM40 40V39V40ZM39.9948 40V39H39.9945L39.9948 40ZM30.1009 44.1006L30.808 44.8077H30.808L30.1009 44.1006ZM30.1003 63.8997L30.8074 63.1926H30.8074L30.1003 63.8997ZM39.9946 68L39.9944 69C40.5466 69.0001 40.9944 68.5525 40.9946 68.0003C40.9947 67.448 40.5472 67.0002 39.9949 67L39.9946 68ZM20.2007 59.7993L20.9078 59.0922L20.2007 59.7993ZM40 11C32.3091 11 24.9327 14.0558 19.4945 19.494L20.9087 20.9082C25.9719 15.845 32.8396 13 40 13V11ZM40 13C43.4475 13 46.7542 14.3699 49.192 16.8077L50.6062 15.3935C47.7934 12.5807 43.978 11 40 11V13ZM49.192 16.8077C51.63 19.2457 53 22.5529 53 26.0007H55C55 22.0224 53.4192 18.2065 50.6062 15.3935L49.192 16.8077ZM53 26.0007C53 29.4483 51.6304 32.7548 49.1926 35.1926L50.6068 36.6068C53.4197 33.7939 55 29.9787 55 26.0007H53ZM49.1926 35.1926C46.7549 37.6304 43.4477 39 40 39V41C43.978 41 47.7939 39.4198 50.6068 36.6068L49.1926 35.1926ZM39.9948 41C39.996 41 39.9971 41 39.998 41C39.9989 41 39.9995 41 40 41V39C39.9988 39 39.9977 39 39.9969 39C39.9959 39 39.9954 39 39.9948 39V41ZM30.808 44.8077C33.2447 42.371 36.5495 41.0013 39.9952 41L39.9945 39C36.0185 39.0015 32.2053 40.582 29.3938 43.3935L30.808 44.8077ZM27 54.0007C27 50.5529 28.37 47.2457 30.808 44.8077L29.3938 43.3935C26.5808 46.2065 25 50.0224 25 54.0007H27ZM30.8074 63.1926C28.3696 60.7548 27 57.4483 27 54.0007H25C25 57.9787 26.5803 61.7939 29.3932 64.6068L30.8074 63.1926ZM39.9949 67C36.5491 66.9987 33.244 65.6292 30.8074 63.1926L29.3932 64.6068C32.2047 67.4184 36.0183 68.9985 39.9942 69L39.9949 67ZM19.4936 60.5064C24.9306 65.9435 32.3055 68.9985 39.9944 69L39.9948 67C32.8361 66.9986 25.9698 64.1542 20.9078 59.0922L19.4936 60.5064ZM11 40.0009C11 47.6919 14.0552 55.0681 19.4936 60.5064L20.9078 59.0922C15.8445 54.0289 13 47.1614 13 40.0009H11ZM19.4945 19.494C14.0559 24.9325 11 32.3096 11 40.0009H13C13 32.84 15.8452 25.9717 20.9087 20.9082L19.4945 19.494Z" fill="currentColor" />
  <path fill-rule="evenodd" clip-rule="evenodd" d="M40 68C47.4256 68 54.5477 65.0496 59.7984 59.7989C65.0495 54.5479 68 47.4252 68 39.9991C68 32.5734 65.0501 25.4515 59.7993 20.2007C54.5498 14.9512 47.4292 12.0014 40.0054 12C43.7163 12.0014 47.2757 13.4762 49.8997 16.1003C52.5251 18.7256 54 22.2865 54 25.9993C54 29.7124 52.5246 33.2739 49.8991 35.8994C47.275 38.5235 43.716 39.9986 40.0052 40L40 40C36.2872 40 32.7256 41.4749 30.1003 44.1003C27.4749 46.7256 26 50.2865 26 53.9993C26 57.7124 27.4754 61.2739 30.1009 63.8994C32.7262 66.5247 36.2873 68 40 68ZM40.1304 58C42.3395 58 44.1304 56.2091 44.1304 54C44.1304 51.7909 42.3395 50 40.1304 50C37.9212 50 36.1304 51.7909 36.1304 54C36.1304 56.2091 37.9212 58 40.1304 58Z" fill="currentColor" />
  <rect x="36" y="22" width="8" height="8" rx="4" fill="currentColor" />
</svg>