<svg viewBox="0 0 80 80" fill="none">
  <path d="M49.0021 43.1721H55.1005C58.7537 43.1721 60.5832 38.7552 58 36.1721L40.7123 18.8844C38.6621 16.8341 35.3379 16.8341 33.2877 18.8844L16 36.1721C13.4168 38.7552 15.2463 43.1721 18.8995 43.1721L24.9999 43.1721C25.0311 46.6401 25.5892 50.1046 26.6742 53.4439C28.9085 60.3204 33.2624 66.313 39.1119 70.5629C44.9614 74.8128 52.0061 77.1018 59.2365 77.1018C61.5571 77.1018 63.8586 76.866 66.1076 76.4053C67.9193 76.0341 68.0095 73.5837 66.3994 72.6742C65.2692 72.0358 64.1721 71.3313 63.1142 70.5626C57.2647 66.3127 52.9108 60.3201 50.6765 53.4436C49.5915 50.1044 49.0334 46.64 49.0021 43.1721Z" stroke="currentColor" stroke-linecap="round" stroke-linejoin="round" />
  <path d="M53.0001 31.0002H55.1005C58.7537 31.0002 60.5832 26.5834 58 24.0002L40.7123 6.71249C38.6621 4.66224 35.3379 4.66224 33.2877 6.71249L16 24.0002C13.4168 26.5834 15.2463 31.0002 18.8995 31.0002H21.0001" stroke="currentColor" stroke-linecap="round" stroke-linejoin="round" />
</svg>