<svg viewBox="0 0 80 80" fill="none">
  <path d="M13 17C14.2806 17 15.5087 17.5087 16.4142 18.4142L17 19C18.2806 20.2806 19 22.0174 19 23.8284V62.7574C19 65.4739 20.0791 68.0791 22 70C23.8918 71.8918 26.4475 72.9672 29.1195 72.9993" stroke="currentColor" stroke-linecap="round" stroke-linejoin="round" />
  <path d="M12.1716 17H11.8284C10.0174 17 8.28058 17.7194 7 19C5.71942 20.2806 5 22.0174 5 23.8284V34C5 34.5523 5.44772 35 6 35H18C18.5523 35 19 34.5523 19 34V23.8284C19 22.0174 18.2806 20.2806 17 19L16.9989 18.9989C16.2855 18.2858 15.4305 17.7468 14.5 17.4092C13.7605 17.141 12.9733 17 12.1716 17Z" stroke="currentColor" stroke-linecap="round" stroke-linejoin="round" />
  <path d="M35.8284 70.1716L36 70C37.9209 68.0791 39 65.4739 39 62.7574V59C39 58.4477 39.4477 58 40 58H74C74.5523 58 75 58.4477 75 59V62.7574C75 65.4739 73.9209 68.0791 72 70C70.0791 71.9209 67.4739 73 64.7574 73H29C31.5612 73 34.0174 71.9826 35.8284 70.1716Z" stroke="currentColor" stroke-linecap="round" stroke-linejoin="round" />
  <path d="M46.9526 17H13" stroke="currentColor" stroke-linecap="round" stroke-linejoin="round" />
  <path d="M63.5467 10.0234C65.3377 9.18345 67.5378 9.50334 69.0173 10.9828C70.4967 12.4623 70.8166 14.6624 69.9767 16.4534C71.8371 17.126 73.1666 18.9079 73.1666 21.0002C73.1666 23.0925 71.8371 24.8743 69.9767 25.5469C70.8166 27.338 70.4967 29.538 69.0173 31.0175C67.5378 32.497 65.3377 32.8169 63.5467 31.977C62.8741 33.8373 61.0922 35.1668 58.9999 35.1668C56.9076 35.1668 55.1258 33.8373 54.4532 31.977C52.6621 32.8169 50.462 32.497 48.9826 31.0175C47.5031 29.538 47.1832 27.338 48.0231 25.5469C46.1627 24.8743 44.8333 23.0925 44.8333 21.0002C44.8333 18.9079 46.1627 17.126 48.0231 16.4534C47.1832 14.6623 47.5031 12.4623 48.9826 10.9828C50.462 9.50334 52.6621 9.18345 54.4532 10.0234C55.1258 8.16297 56.9076 6.8335 58.9999 6.8335C61.0922 6.8335 62.8741 8.16298 63.5467 10.0234Z" stroke="currentColor" stroke-linecap="round" stroke-linejoin="round" />
  <path d="M63 58.0001V33.0474" stroke="currentColor" stroke-linecap="round" stroke-linejoin="round" />
</svg>