<svg viewBox="0 0 80 80" fill="none">
  <path d="M57.0721 21.5793C61.1503 23.8905 64.1252 27.7036 65.3496 32.1892C65.8878 34.1608 66.0686 36.1918 65.9039 38.1936C66.7655 38.7008 67.5692 39.3145 68.2944 40.0264L68.3765 40.107C70.6943 42.3821 72 45.4935 72 48.7412C72 51.9889 70.6943 55.1003 68.3765 57.3754L68.2944 57.456C65.9809 59.7269 62.8686 60.9992 59.6269 60.9992H56.811C56.8012 60.9999 56.7913 61.0003 56.7813 61.0003H23.2203C23.2179 61.0003 23.2154 61.0002 23.2129 61.0002H20.3731C17.1314 61.0002 14.0191 59.728 11.7056 57.4571L11.6235 57.3764C9.30573 55.1013 8 51.99 8 48.7422C8 45.4945 9.30573 42.3831 11.6235 40.1081L11.7056 40.0274C13.5867 38.1809 15.9959 36.9947 18.5734 36.6158C18.6316 36.2446 18.7097 35.8751 18.8078 35.5089C19.5518 32.731 21.3869 30.3669 23.9092 28.9375C26.4315 27.508 29.4348 27.1301 32.2576 27.8866C32.3398 27.9086 32.4218 27.9316 32.5033 27.9554C34.9144 23.9183 38.8423 20.9727 43.4291 19.7663C47.9988 18.5644 52.8504 19.1867 56.9286 21.498L57.0721 21.5793Z" stroke="currentColor" stroke-linecap="round" stroke-linejoin="round" />
</svg>