<svg viewBox="0 0 80 80" fill="none">
  <path d="M29.3935 14.3935C36.1848 11.5804 43.8154 11.5804 50.6067 14.3935C57.398 17.2065 62.7936 22.6022 65.6067 29.3935C68.4197 36.1848 68.4197 43.8154 65.6067 50.6067C62.7936 57.398 57.398 62.7936 50.6067 65.6067C43.8154 68.4197 36.1848 68.4197 29.3935 65.6067C22.6022 62.7936 17.2065 57.398 14.3935 50.6067C11.5804 43.8154 11.5804 36.1848 14.3935 29.3935C17.2065 22.6022 22.6022 17.2065 29.3935 14.3935Z" stroke="currentColor" stroke-linecap="round" stroke-linejoin="round" />
  <path d="M50.6121 14.3843C50.3459 14.274 50.0783 14.168 49.8096 14.0664C49.1333 14.2947 48.5284 14.7161 48.0767 15.2912L47.7466 15.7116C46.8406 16.8653 45.4568 17.5414 43.9899 17.5472L40.1646 17.5623C38.8861 17.5673 37.6543 17.0821 36.7227 16.2065L36.6015 16.0925C35.8304 15.3678 34.8301 14.9354 33.7739 14.8703C32.4937 14.7914 31.2399 15.2582 30.323 16.1551L28.7693 17.6749C28.4533 17.9841 28.3357 18.4435 28.4645 18.8665C28.7148 19.6886 29.7298 19.9788 30.3768 19.4133L31.8777 18.1017C32.2102 17.811 32.7174 17.8538 32.9966 18.1959C33.244 18.499 33.2289 18.9383 32.9613 19.2238L31.6539 20.6186C31.4396 20.8472 31.3078 21.1409 31.2796 21.4529C31.2149 22.1655 30.6254 22.7158 29.9101 22.7312L28.0163 22.7721C27.1698 22.7903 26.3582 23.1127 25.7298 23.6802L23.5817 25.6204L22.3907 28.1545C22.1247 28.7205 21.6351 29.1503 21.0393 29.3407L20.1404 29.6281C19.6009 29.8006 19.2676 30.3405 19.3553 30.9001C19.4359 31.4147 19.8526 31.8106 20.3706 31.8648L21.284 31.9603C21.971 32.0322 22.6547 31.7972 23.1524 31.3182L23.8148 30.6807C24.6387 29.8877 25.7434 29.4538 26.8867 29.4739L26.9239 29.4746M67.2756 35.0365C67.117 35.2149 66.9347 35.3739 66.7321 35.5085L66.093 35.9329C65.386 36.4023 64.9914 37.22 65.0638 38.0656L65.0954 38.4344C65.1729 39.3403 64.5909 40.1718 63.7132 40.409C62.9208 40.6231 62.0811 40.2983 61.6392 39.6066L61.21 38.935C60.0927 37.1862 57.5708 37.0965 56.332 38.7615L55.8607 39.395C55.6581 39.6673 55.5054 39.9734 55.4098 40.299L54.851 42.2017C54.7641 42.4975 54.4711 42.6828 54.1665 42.6345C53.9908 42.6066 53.8359 42.5039 53.7419 42.3528L51.442 38.6567C50.691 37.4498 49.3733 36.7126 47.9519 36.7042L46.9955 36.6985C46.537 36.6957 46.0975 36.5153 45.7694 36.195L44.6743 35.1261C44.4051 34.8634 43.9606 34.9239 43.7716 35.2491C43.6393 35.4765 43.6775 35.7646 43.8644 35.9498L46.2649 38.3278C47.0872 39.1424 47.0873 40.4712 46.2652 41.2859C45.8544 41.6931 45.2926 41.9111 44.7146 41.8875L43.9852 41.8577C43.0183 41.8182 42.1038 41.4071 41.4324 40.7102L39.1035 38.2927C38.8561 38.0359 38.4605 37.9926 38.1634 38.1898C37.7773 38.4461 37.7199 38.9905 38.0442 39.3216L42.5324 43.9047C42.8885 44.2683 43.1441 44.718 43.2743 45.2099C43.5406 46.2162 43.2551 47.2884 42.5236 48.029L41.561 49.0036C40.5781 49.9986 40.025 51.3395 40.0204 52.738L40.0051 57.4411C39.9993 59.2208 39.3065 60.9295 38.0712 62.2106L36.9487 63.3747C36.3273 64.0192 35.4565 64.3745 34.5614 64.3553C33.5757 64.3341 32.6466 63.8558 32.063 63.0612C31.6835 62.5445 31.4694 61.9249 31.4489 61.2842L31.3367 57.7686C31.3082 56.8784 30.886 56.0469 30.1842 55.4987C29.4709 54.9416 29.0471 54.0924 29.0307 53.1875L29.0027 51.6488C28.965 49.5741 27.2856 47.9048 25.2107 47.8796C24.2135 47.8674 23.2601 47.4678 22.5524 46.7652L21.5868 45.8066C20.0346 44.2655 19.2671 42.1023 19.5012 39.9276L19.7659 37.4671C19.825 36.9184 20.0377 36.3975 20.3795 35.9643L22.1674 33.6985C22.4161 33.3833 22.893 33.3804 23.1455 33.6924C23.269 33.845 23.457 33.9308 23.6531 33.9243L26.8327 33.8178C27.3005 33.8022 27.7029 34.1465 27.7598 34.6112C27.8015 34.9521 28.033 35.2399 28.3571 35.3538L31.6671 36.5174C31.9962 36.6331 32.3608 36.4948 32.5303 36.1898C32.6607 35.9551 32.9116 35.8131 33.18 35.8221L35.2184 35.8904C35.8615 35.9119 36.4853 35.6694 36.9449 35.2191C37.8435 34.3387 37.8913 32.9075 37.0534 31.9691L35.6283 30.373M35.6283 30.373L38.2899 30.1003C38.7615 30.052 39.2365 30.1505 39.65 30.3823L40.2274 30.706C40.7509 30.9995 41.4037 30.9233 41.8455 30.5172C42.3595 30.0449 42.4428 29.2644 42.04 28.6943L41.6472 28.1381C41.209 27.5178 40.4776 27.1728 39.7203 27.2292L39.0058 27.2824C37.7707 27.3744 36.6812 28.1254 36.1558 29.2469L35.6283 30.373ZM35.6283 30.373L34.2747 30.4531C33.7497 30.4842 33.2541 30.7058 32.8809 31.0763C32.524 31.4306 32.0548 31.6492 31.554 31.6945L29.0567 31.9205M29.0567 31.9205L26.9239 29.4746M29.0567 31.9205C28.3653 31.2359 26.9239 29.4746 26.9239 29.4746" stroke="currentColor" stroke-linecap="round" stroke-linejoin="round" />
  <path d="M17.1553 24.3037C17.562 24.9887 18.2996 25.4598 19.1589 25.4859L23.5814 25.6203L22.7819 22.6154C22.46 21.4055 21.4888 20.6095 20.3943 20.4048" stroke="currentColor" stroke-linecap="round" stroke-linejoin="round" />
  <path d="M67.2957 44.8332L65.5426 43.2612C65.1672 42.9245 64.6555 42.7836 64.1606 42.8806C63.0461 43.099 62.5036 44.3733 63.1188 45.328L64.7513 47.862C65.1046 48.4103 65.5952 48.8496 66.1682 49.1404" stroke="currentColor" stroke-linecap="round" stroke-linejoin="round" />
  <path d="M42.4843 56.6181C42.447 57.2814 42.9747 57.8397 43.6391 57.8397C44.0491 57.8397 44.4285 57.6226 44.6363 57.2691L44.8228 56.9517C44.9752 56.6922 45.0602 56.3987 45.0699 56.0979L45.1147 54.7109C45.1334 54.1307 44.6552 53.6569 44.0752 53.6811C43.7801 53.6934 43.5056 53.8357 43.3255 54.0698L42.9582 54.547C42.707 54.8735 42.5603 55.2682 42.5371 55.6794L42.4843 56.6181Z" stroke="currentColor" stroke-linecap="round" stroke-linejoin="round" />
</svg>