<svg viewBox="0 0 80 80" fill="none">
  <path d="M23.8906 19.3455C25.7809 17.8305 27.8908 16.5754 30.169 15.6317C36.5076 13.0062 43.6295 13.0062 49.968 15.6317C56.3066 18.2572 61.3425 23.2932 63.968 29.6317C66.5935 35.9703 66.5935 43.0922 63.968 49.4307C61.3425 55.7693 56.3066 60.8052 49.968 63.4307C43.6295 66.0562 36.5076 66.0562 30.169 63.4307L29.2715 63.0589C28.8849 62.8988 28.5037 62.7288 28.128 62.5493" stroke="currentColor" stroke-linecap="round" stroke-linejoin="round" />
  <path d="M30.3364 25.7911L18.4517 13.9063C17.2523 12.7069 15.2017 13.5564 15.2017 15.2525L15.2017 27.0411C15.2017 28.1456 16.0971 29.0411 17.2017 29.0411L28.9902 29.0411C30.6864 29.0411 31.5358 26.9904 30.3364 25.7911Z" stroke="currentColor" stroke-linecap="round" stroke-linejoin="round" />
  <path d="M36 39C36 37.3431 37.3431 36 39 36C40.6569 36 42 37.3431 42 39C42 40.6569 40.6569 42 39 42C37.3431 42 36 40.6569 36 39Z" stroke="currentColor" stroke-linecap="round" stroke-linejoin="round" />
  <path d="M41.5967 40.5064L52.8496 47.0161" stroke="currentColor" stroke-linecap="round" stroke-linejoin="round" />
  <path d="M40.7306 36.5531L45.5317 29.7695" stroke="currentColor" stroke-linecap="round" stroke-linejoin="round" />
</svg>