<svg viewBox="0 0 80 80" fill="none">
  <path d="M67.5 35L40 13L12.5 35" stroke="currentColor" stroke-linecap="round" stroke-linejoin="round" />
  <path d="M60 29V47.8908C59.1741 48.1972 58.3753 48.6019 57.6211 49.1047L56.7151 49.7087C55.4606 50.545 54.0393 51.0138 52.5977 51.1152H51.4026C49.961 51.0138 48.5397 50.545 47.2852 49.7087L46.3792 49.1047C42.5164 46.5294 37.484 46.5294 33.6211 49.1047L32.7151 49.7087C31.4606 50.545 30.0393 51.0138 28.5977 51.1152H27.4026C25.961 51.0138 24.5397 50.545 23.2852 49.7087L22.3792 49.1047C21.6249 48.6018 20.8261 48.1971 20 47.8907V29" stroke="currentColor" stroke-linecap="round" stroke-linejoin="round" />
  <path d="M46 41V29H34V41H46Z" stroke="currentColor" stroke-linecap="round" stroke-linejoin="round" />
  <path d="M55 25V15C55 14.4477 54.5523 14 54 14H50C49.4477 14 49 14.4477 49 15V20.2" stroke="currentColor" stroke-linecap="round" stroke-linejoin="round" />
  <path d="M7.5 58.3501C8.21059 58.0846 8.89788 57.7354 9.54716 57.3025L10.4532 56.6985C13.8122 54.4592 18.1882 54.4592 21.5472 56.6985L22.4532 57.3025C25.8122 59.5419 30.1882 59.5419 33.5472 57.3025L34.4532 56.6985C37.8122 54.4592 42.1882 54.4592 45.5472 56.6985L46.4532 57.3025C49.8122 59.5419 54.1882 59.5419 57.5472 57.3025L58.4532 56.6985C61.8122 54.4592 66.1882 54.4592 69.5472 56.6985L70.4532 57.3025C71.1023 57.7353 71.7895 58.0845 72.5 58.35" stroke="currentColor" stroke-linecap="round" stroke-linejoin="round" />
  <path d="M19.5 63.4205C20.2106 63.686 20.8979 64.0352 21.5472 64.4681L22.4532 65.0721C25.8122 67.3114 30.1882 67.3114 33.5472 65.0721L34.4532 64.4681C37.8122 62.2287 42.1882 62.2287 45.5472 64.4681L46.4532 65.0721C49.8122 67.3114 54.1882 67.3114 57.5472 65.0721L58.4532 64.4681C59.1023 64.0353 59.7895 63.6861 60.5 63.4206" stroke="currentColor" stroke-linecap="round" stroke-linejoin="round" />
</svg>