<svg viewBox="0 0 80 80" fill="none">
  <path d="M11.1924 33.1699C15.4064 33.1981 19.6157 34.1496 23.5088 36.0244C31.4139 39.8313 37.1553 47.0308 39.1077 55.5848C39.5044 57.3229 39.7359 59.0786 39.8071 60.8304C31.1044 60.7723 22.8893 56.7853 17.4589 49.9758C13.5958 45.1316 11.4388 39.2314 11.1924 33.1699Z" stroke="currentColor" stroke-linecap="round" stroke-linejoin="round" />
  <path d="M68.8075 33.1699C64.5935 33.1981 60.3842 34.1496 56.4911 36.0244C48.586 39.8313 42.8446 47.0308 40.8922 55.5848C40.4955 57.3229 40.264 59.0786 40.1929 60.8304C48.8955 60.7723 57.1107 56.7853 62.5411 49.9758C66.4042 45.1316 68.5611 39.2314 68.8075 33.1699Z" stroke="currentColor" stroke-linecap="round" stroke-linejoin="round" />
  <path d="M52.4617 38.3843C52.3636 37.7776 52.2457 37.1721 52.108 36.5687C50.4562 29.3314 46.092 23.0637 39.9999 19C33.9078 23.0637 29.5436 29.3314 27.8917 36.5687C27.754 37.1721 27.6362 37.7776 27.5381 38.3843" stroke="currentColor" stroke-linecap="round" stroke-linejoin="round" />
</svg>