<svg viewBox="0 0 80 80" fill="none">
  <path d="M10 43.6656C13.0711 43.6656 16.1421 42.494 18.4853 40.1509L21 37.6361C21.5523 37.0839 22.4477 37.0839 23 37.6361L25.5147 40.1509C30.201 44.8371 37.799 44.8372 42.4853 40.1509L45 37.6361C45.5523 37.0839 46.4477 37.0839 47 37.6361L49.5147 40.1509C51.8579 42.494 54.9289 43.6656 58 43.6656" stroke="currentColor" stroke-linecap="round" stroke-linejoin="round" />
  <path d="M22 27.9371C25.0711 27.9371 28.1421 26.7655 30.4853 24.4223L33 21.9076C33.5523 21.3553 34.4477 21.3553 35 21.9076L37.5147 24.4223C42.201 29.1086 49.799 29.1086 54.4853 24.4223L57 21.9076C57.5523 21.3553 58.4477 21.3553 59 21.9076L61.5147 24.4223C63.8579 26.7655 66.9289 27.9371 70 27.9371" stroke="currentColor" stroke-linecap="round" stroke-linejoin="round" />
  <path d="M22 59.3941C25.0711 59.3941 28.1421 58.2225 30.4853 55.8794L33 53.3647C33.5523 52.8124 34.4477 52.8124 35 53.3647L37.5147 55.8794C42.201 60.5657 49.799 60.5657 54.4853 55.8794L57 53.3647C57.5523 52.8124 58.4477 52.8124 59 53.3647L61.5147 55.8794C63.8579 58.2225 66.9289 59.3941 70 59.3941" stroke="currentColor" stroke-linecap="round" stroke-linejoin="round" />
</svg>