<svg viewBox="0 0 80 80" fill="none">
  <path d="M14.5 39H54.3159C60.391 39 65.3158 43.9249 65.3158 50C65.3158 56.0751 60.391 61 54.3158 61H53.9583C48.0806 61 43.3158 56.2352 43.3158 50.3576V49.9843" stroke="currentColor" stroke-linecap="round" stroke-linejoin="round" />
  <path d="M23.5 33H44.9103C48.7763 33 51.9103 29.866 51.9103 26C51.9103 22.134 48.7763 19 44.9103 19H44.6827C40.9424 19 37.9103 22.0321 37.9103 25.7725V26.01" stroke="currentColor" stroke-linecap="round" stroke-linejoin="round" />
  <path d="M18.5 45H30.9121C34.7781 45 37.9121 48.134 37.9121 52C37.9121 55.866 34.7781 59 30.9121 59H30.6846C26.9442 59 23.9121 55.9679 23.9121 52.2275V51.99" stroke="currentColor" stroke-linecap="round" stroke-linejoin="round" />
</svg>