<svg viewBox="0 0 80 80" fill="none">
  <path fill-rule="evenodd" clip-rule="evenodd" d="M63.6411 29.4996H33.937L42.7269 14.2751C45.171 14.5342 47.587 15.1426 49.8987 16.1001C56.0358 18.6422 60.9517 23.4438 63.6411 29.4996Z" fill="#FFC200" class="fill-yellow" />
  <path fill-rule="evenodd" clip-rule="evenodd" d="M60.9134 55.2239L46.0613 29.4994L63.641 29.4994C64.6387 31.7457 65.3199 34.1421 65.6465 36.623C66.5135 43.2088 64.8131 49.867 60.9134 55.2239Z" fill="#FF9100" class="fill-orange" />
  <path fill-rule="evenodd" clip-rule="evenodd" d="M37.2722 65.7236L52.1243 39.9991L60.9141 55.2236C59.4677 57.2107 57.7329 58.9988 55.7477 60.5221C50.4777 64.5659 43.8614 66.4224 37.2722 65.7236Z" fill="#D33131" class="fill-red" />
  <path fill-rule="evenodd" clip-rule="evenodd" d="M16.3579 50.4997L46.062 50.4997L37.2722 65.7241C34.828 65.465 32.412 64.8567 30.1003 63.8991C23.9632 61.3571 19.0473 56.5554 16.3579 50.4997Z" fill="#7AC70C" class="fill-green" />
  <path fill-rule="evenodd" clip-rule="evenodd" d="M19.0857 24.7751L33.9377 50.4996L16.358 50.4996C15.3603 48.2533 14.6792 45.8569 14.3525 43.3761C13.4855 36.7902 15.1859 30.1321 19.0857 24.7751Z" fill="#1CB0F6" class="fill-blue" />
  <path fill-rule="evenodd" clip-rule="evenodd" d="M42.7268 14.2752L27.8747 39.9997L19.0849 24.7752C20.5313 22.7881 22.2661 20.9999 24.2513 19.4767C29.5213 15.4329 36.1376 13.5764 42.7268 14.2752Z" fill="#7B61FF" class="fill-purple" />
</svg>