<svg viewBox="0 0 80 80" fill="none">
  <path fill-rule="evenodd" clip-rule="evenodd" d="M31.9999 43.9997H26.3322C23.7165 43.9997 22.4313 40.8153 24.3141 38.9997L36.2255 27.5138C38.2592 25.5527 41.4802 25.5527 43.5139 27.5138L55.4252 38.9997C57.3081 40.8153 56.0229 43.9997 53.4072 43.9997H47.9999L47.9999 53.9997V59.9997C47.9999 61.1043 47.1045 61.9997 45.9999 61.9997L33.9999 61.9997C32.8953 61.9997 31.9999 61.1043 31.9999 59.9997L31.9999 53.9997V43.9997Z" fill="#84D3FF" class="fill-blue" />
  <path d="M31.9999 43.9997V42.4997C32.8283 42.4997 33.4999 43.1713 33.4999 43.9997H31.9999ZM24.3141 38.9997L25.3553 40.0795V40.0795L24.3141 38.9997ZM36.2255 27.5138L37.2667 28.5936L37.2667 28.5936L36.2255 27.5138ZM43.5139 27.5138L44.5551 26.434V26.434L43.5139 27.5138ZM55.4252 38.9997L56.4664 37.92L55.4252 38.9997ZM47.9999 43.9997H46.4999C46.4999 43.1713 47.1715 42.4997 47.9999 42.4997V43.9997ZM47.9999 53.9997H46.4999H47.9999ZM45.9999 61.9997V63.4997H45.9999L45.9999 61.9997ZM33.9999 61.9997V60.4997V61.9997ZM31.9999 59.9997H30.4999H31.9999ZM31.9999 53.9997H33.4999H31.9999ZM26.3322 42.4997H31.9999V45.4997H26.3322V42.4997ZM25.3553 40.0795C24.444 40.9583 25.0661 42.4997 26.3322 42.4997V45.4997C22.367 45.4997 20.4186 40.6723 23.2729 37.92L25.3553 40.0795ZM37.2667 28.5936L25.3553 40.0795L23.2729 37.92L35.1843 26.434L37.2667 28.5936ZM42.4727 28.5936C41.02 27.1928 38.7193 27.1928 37.2667 28.5936L35.1843 26.434C37.7991 23.9126 41.9403 23.9126 44.5551 26.434L42.4727 28.5936ZM54.384 40.0795L42.4727 28.5936L44.5551 26.434L56.4664 37.92L54.384 40.0795ZM53.4072 42.4997C54.6733 42.4997 55.2954 40.9583 54.384 40.0795L56.4664 37.92C59.3208 40.6723 57.3724 45.4997 53.4072 45.4997V42.4997ZM47.9999 42.4997H53.4072V45.4997H47.9999V42.4997ZM46.4999 53.9997L46.4999 43.9997H49.4999L49.4999 53.9997H46.4999ZM46.4999 59.9997V53.9997H49.4999V59.9997H46.4999ZM45.9999 60.4997C46.276 60.4997 46.4999 60.2759 46.4999 59.9997H49.4999C49.4999 61.9327 47.9329 63.4997 45.9999 63.4997V60.4997ZM33.9999 60.4997L45.9999 60.4997L45.9999 63.4997L33.9999 63.4997V60.4997ZM33.4999 59.9997C33.4999 60.2759 33.7237 60.4997 33.9999 60.4997V63.4997C32.0669 63.4997 30.4999 61.9327 30.4999 59.9997H33.4999ZM33.4999 53.9997L33.4999 59.9997H30.4999L30.4999 53.9997H33.4999ZM33.4999 43.9997V53.9997H30.4999V43.9997H33.4999Z" fill="#84D3FF" class="fill-blue" />
  <path d="M56 16L24 16" stroke="#84D3FF" stroke-width="4" stroke-linecap="round" class="stroke-blue" />
  <path d="M26.3323 44L53.4074 44C56.023 44 57.3083 40.8156 55.4254 39L43.5141 27.5141C41.4803 25.553 38.2594 25.553 36.2256 27.5141L24.3143 39C22.4314 40.8156 23.7167 44 26.3323 44Z" fill="#1CB0F6" stroke="#1CB0F6" stroke-width="4" stroke-linecap="round" stroke-linejoin="round" class="fill-blue stroke-blue" />
</svg>