<svg viewBox="0 0 80 80" fill="none">
  <path d="M32 29C32 27.8954 31.1046 27 30 27C28.8954 27 28 27.8954 28 29L32 29ZM30 39L32 39L30 39ZM58 67L58 65L58 67ZM66 69C67.1046 69 68 68.1046 68 67C68 65.8954 67.1046 65 66 65L66 69ZM28 29L28 39L32 39L32 29L28 29ZM58 69L66 69L66 65L58 65L58 69ZM28 39C28 55.5685 41.4315 69 58 69L58 65C43.6406 65 32 53.3594 32 39L28 39Z" fill="#84D3FF" class="fill-blue" />
  <path d="M41.1716 29L18.8284 29C17.0466 29 16.1543 26.8457 17.4142 25.5858L18 25L28.5858 14.4142C29.3668 13.6332 30.6332 13.6332 31.4142 14.4142L42 25L42.5858 25.5858C43.8457 26.8457 42.9534 29 41.1716 29Z" fill="#1CB0F6" stroke="#1CB0F6" stroke-width="3" stroke-linecap="round" stroke-linejoin="round" class="fill-blue stroke-blue" />
</svg>