<svg viewBox="0 0 80 80" fill="none">
  <path d="M42 21C42 19.8954 41.1046 19 40 19C38.8954 19 38 19.8954 38 21L42 21ZM38 34C38 35.1046 38.8954 36 40 36C41.1046 36 42 35.1046 42 34H38ZM38 21L38 34H42L42 21L38 21Z" fill="#84D3FF" class="fill-blue" />
  <path d="M45.818 21L34.182 21C33.0078 21 32.4197 19.5803 33.25 18.75L37.8787 14.1213C39.0503 12.9497 40.9497 12.9497 42.1213 14.1213L46.75 18.75C47.5803 19.5803 46.9923 21 45.818 21Z" fill="#1CB0F6" stroke="#1CB0F6" stroke-width="3" stroke-linecap="round" stroke-linejoin="round" class="fill-blue stroke-blue" />
  <path d="M42 65.8281C42 66.9327 41.1046 67.8281 40 67.8281C38.8954 67.8281 38 66.9327 38 65.8281H42ZM38 64.0459C38 62.9413 38.8954 62.0459 40 62.0459C41.1046 62.0459 42 62.9413 42 64.0459H38ZM42 58.9999C42 60.1045 41.1046 60.9999 40 60.9999C38.8954 60.9999 38 60.1045 38 58.9999H42ZM38 45.9999C38 44.8954 38.8954 43.9999 40 43.9999C41.1046 43.9999 42 44.8954 42 45.9999L38 45.9999ZM38 65.8281V64.0459H42V65.8281H38ZM38 58.9999L38 45.9999L42 45.9999L42 58.9999H38Z" fill="#84D3FF" class="fill-blue" />
  <path d="M45.818 59L34.182 59C33.0078 59 32.4197 60.4197 33.25 61.25L37.8787 65.8787C39.0503 67.0503 40.9497 67.0503 42.1213 65.8787L46.75 61.25C47.5803 60.4197 46.9923 59 45.818 59Z" fill="#1CB0F6" stroke="#1CB0F6" stroke-width="3" stroke-linecap="round" stroke-linejoin="round" class="fill-blue stroke-blue" />
  <path d="M59 42C60.1046 42 61 41.1046 61 40C61 38.8954 60.1046 38 59 38L59 42ZM46 38C44.8954 38 44 38.8954 44 40C44 41.1046 44.8954 42 46 42L46 38ZM59 38L46 38L46 42L59 42L59 38Z" fill="#84D3FF" class="fill-blue" />
  <path d="M59 45.818L59 34.182C59 33.0078 60.4197 32.4197 61.25 33.25L65.8787 37.8787C67.0503 39.0503 67.0503 40.9497 65.8787 42.1213L61.25 46.75C60.4197 47.5803 59 46.9923 59 45.818Z" fill="#1CB0F6" stroke="#1CB0F6" stroke-width="3" stroke-linecap="round" stroke-linejoin="round" class="fill-blue stroke-blue" />
  <path d="M14.1704 42C13.0658 42 12.1704 41.1046 12.1704 40C12.1704 38.8954 13.0658 38 14.1704 38L14.1704 42ZM15.9539 38C17.0585 38 17.9539 38.8954 17.9539 40C17.9539 41.1046 17.0585 42 15.9539 42L15.9539 38ZM20.9999 42C19.8953 42 18.9999 41.1046 18.9999 40C18.9999 38.8954 19.8953 38 20.9999 38L20.9999 42ZM33.9999 38C35.1044 38 35.9999 38.8954 35.9999 40C35.9999 41.1046 35.1044 42 33.9999 42L33.9999 38ZM14.1704 38L15.9539 38L15.9539 42L14.1704 42L14.1704 38ZM20.9999 38L33.9999 38L33.9999 42L20.9999 42L20.9999 38Z" fill="#84D3FF" class="fill-blue" />
  <path d="M21 45.818L21 34.182C21 33.0078 19.5803 32.4197 18.75 33.25L14.1213 37.8787C12.9497 39.0503 12.9497 40.9497 14.1213 42.1213L18.75 46.75C19.5803 47.5803 21 46.9923 21 45.818Z" fill="#1CB0F6" stroke="#1CB0F6" stroke-width="3" stroke-linecap="round" stroke-linejoin="round" class="fill-blue stroke-blue" />
</svg>