<svg viewBox="0 0 80 80" fill="none">
  <rect x="10" y="22" width="56" height="36" rx="4" fill="#1CB0F6" class="fill-blue" />
  <path d="M66 32.5C66 32.2239 66.2239 32 66.5 32C68.433 32 70 33.567 70 35.5V44.5C70 46.433 68.433 48 66.5 48C66.2239 48 66 47.7761 66 47.5V32.5Z" fill="#FFC200" class="fill-yellow" />
  <path fill-rule="evenodd" clip-rule="evenodd" d="M36 28.3379C37.1046 28.3379 38 29.2333 38 30.3379V31V49V50.3379C38 51.4425 37.1046 52.3379 36 52.3379H18C16.8954 52.3379 16 51.4425 16 50.3379L16 30.3379C16 29.2333 16.8954 28.3379 18 28.3379L36 28.3379Z" fill="#FFC200" class="fill-yellow" />
  <path d="M38 49L40 49V49H38ZM38 50.3379L40 50.3379L38 50.3379ZM36 30.3379V31H40V30.3379H36ZM36 31V49H40V31H36ZM36 49V50.3379L40 50.3379V49L36 49ZM36 50.3379H18V54.3379H36V50.3379ZM18 50.3379L18 30.3379H14L14 50.3379H18ZM18 30.3379L36 30.3379V26.3379L18 26.3379V30.3379ZM18 50.3379H18H14C14 52.547 15.7909 54.3379 18 54.3379V50.3379ZM36 50.3379V50.3379V54.3379C38.2091 54.3379 40 52.547 40 50.3379L36 50.3379ZM18 30.3379V30.3379V26.3379C15.7909 26.3379 14 28.1288 14 30.3379H18ZM40 30.3379C40 28.1288 38.2091 26.3379 36 26.3379V30.3379V30.3379H40Z" fill="#FFC200" class="fill-yellow" />
</svg>