<svg viewBox="0 0 80 80" fill="none">
  <path d="M17.7574 36.7574C20.4739 35.6321 23.5261 35.6321 26.2426 36.7574C28.9592 37.8826 31.1174 40.0408 32.2426 42.7574C33.3679 45.4739 33.3679 48.5261 32.2426 51.2426C31.1174 53.9592 28.9592 56.1174 26.2426 57.2426C23.5261 58.3679 20.4739 58.3679 17.7574 57.2426C15.0408 56.1174 12.8826 53.9592 11.7574 51.2426C10.6321 48.5261 10.6321 45.4739 11.7574 42.7574C12.8826 40.0408 15.0408 37.8826 17.7574 36.7574Z" fill="#606060" stroke="#606060" stroke-width="3" stroke-linecap="round" stroke-linejoin="round" class="fill-grey stroke-grey" />
  <path d="M53.7574 36.7574C56.4739 35.6321 59.5261 35.6321 62.2426 36.7574C64.9592 37.8826 67.1174 40.0408 68.2426 42.7574C69.3679 45.4739 69.3679 48.5261 68.2426 51.2426C67.1174 53.9592 64.9592 56.1174 62.2426 57.2426C59.5261 58.3679 56.4739 58.3679 53.7574 57.2426C51.0408 56.1174 48.8826 53.9592 47.7574 51.2426C46.6321 48.5261 46.6321 45.4739 47.7574 42.7574C48.8826 40.0408 51.0408 37.8826 53.7574 36.7574Z" fill="#606060" stroke="#606060" stroke-width="3" stroke-linecap="round" stroke-linejoin="round" class="fill-grey stroke-grey" />
  <path d="M24 20H27.5M34 20H27.5M27.5 20L32 30M39.5455 47L50 30M39.5455 47L32 30M39.5455 47L22.5 47L22 47L32 30M50 30H32M50 30L58 47" stroke="#7AC70C" stroke-width="3" stroke-linecap="round" stroke-linejoin="round" class="stroke-green" />
  <path d="M50 30V21C50 20.4477 50.4477 20 51 20V20H56.3333C58.3584 20 60 21.6416 60 23.6667V23.6667C60 25.6917 58.3584 27.3333 56.3333 27.3333H56.1111" stroke="#7AC70C" stroke-width="3" stroke-linecap="round" stroke-linejoin="round" class="stroke-green" />
</svg>