<svg viewBox="0 0 80 80" fill="none">
  <path fill-rule="evenodd" clip-rule="evenodd" d="M20 27.0001C20 25.1436 20.7376 23.363 22.0504 22.0503C23.3631 20.7376 25.1436 20 27 20C28.8565 20 30.637 20.7376 31.9497 22.0503C33.2624 23.363 34 25.1435 34 27V27.0001V49.0003C34 45.2872 32.5249 41.726 29.8993 39.1005C27.2739 36.4751 23.7129 35 20 35C16.2871 35 12.7261 36.4751 10.1007 39.1005C9.24583 39.9554 8.51293 40.9094 7.9132 41.9356L7.90698 41.9339L14.6723 30.8359C15.8595 28.8884 17.8061 27.5615 20.0015 27.142C20.0005 27.0948 20 27.0475 20 27.0001ZM33.9991 49.1622L34 49.1625V49.0003C34 49.0543 33.9997 49.1083 33.9991 49.1622Z" fill="#7B61FF" class="fill-purple" />
  <path fill-rule="evenodd" clip-rule="evenodd" d="M60.0002 27.0001C60.0002 25.1436 59.2626 23.363 57.9499 22.0503C56.6372 20.7376 54.8567 20 53.0002 20C51.1438 20 49.3633 20.7376 48.0506 22.0503C46.7379 23.363 46.0003 25.1435 46.0002 27V27.0001V49.0003C46.0002 45.2872 47.4754 41.726 50.1009 39.1005C52.7263 36.4751 56.2873 35 60.0002 35C63.7131 35 67.2741 36.4751 69.8996 39.1005C70.7544 39.9554 71.4873 40.9094 72.087 41.9356L72.0933 41.9339L65.328 30.8359C64.1407 28.8884 62.1941 27.5615 59.9988 27.142C59.9998 27.0948 60.0002 27.0475 60.0002 27.0001ZM46.0012 49.1622L46.0002 49.1625V49.0003C46.0002 49.0543 46.0005 49.1083 46.0012 49.1622Z" fill="#7B61FF" class="fill-purple" />
  <path fill-rule="evenodd" clip-rule="evenodd" d="M44.2426 24.7574C45.3677 25.8826 46 27.4087 46 29H46V43H46C46 41.4087 45.3677 39.8826 44.2426 38.7574C43.1174 37.6322 41.5912 37 40 37C38.4088 37 36.8826 37.6322 35.7574 38.7574C34.6369 39.8779 34.0052 41.3962 34 42.9804V29.0199L34 29.0001C34 27.4088 34.6322 25.8826 35.7574 24.7574C36.8826 23.6322 38.4088 23 40 23C41.5912 23 43.1174 23.6322 44.2426 24.7574Z" fill="#FF00FF" class="fill-purple" />
  <path fill-rule="evenodd" clip-rule="evenodd" d="M46 43.0001C46 41.4088 45.3678 39.8826 44.2426 38.7574C43.1174 37.6322 41.5912 37 40 37C38.4088 37 36.8826 37.6322 35.7574 38.7574C34.6322 39.8826 34 41.4088 34 43.0001C34 44.5914 34.6321 46.1175 35.7573 47.2427C36.8825 48.3679 38.4087 49 40 49C41.5913 49 43.1175 48.3679 44.2427 47.2427C45.3679 46.1175 46 44.5914 46 43.0001Z" fill="#D33131" class="fill-red" />
  <path fill-rule="evenodd" clip-rule="evenodd" d="M6 49.0003C6 45.2872 7.47516 41.726 10.1007 39.1005C12.7261 36.4751 16.2871 35 20 35C23.7129 35 27.2739 36.4751 29.8993 39.1005C32.5248 41.726 34 45.2872 34 49.0003C34 52.7132 32.525 56.2741 29.8996 58.8996C27.2741 61.525 23.7129 63 20 63C16.2871 63 12.7259 61.525 10.1004 58.8996C7.47496 56.2741 6 52.7132 6 49.0003Z" fill="#84D3FF" class="fill-blue" />
  <path d="M11.1611 57.8389C8.81693 55.4948 7.5 52.3154 7.5 49.0003H4.5C4.5 53.111 6.13299 57.0535 9.03975 59.9602L11.1611 57.8389ZM20 61.5C16.6848 61.5 13.5052 60.183 11.1611 57.8389L9.03975 59.9602C11.9465 62.867 15.8893 64.5 20 64.5V61.5ZM28.8389 57.8389C26.4948 60.183 23.3152 61.5 20 61.5V64.5C24.1107 64.5 28.0535 62.867 30.9602 59.9602L28.8389 57.8389ZM32.5 49.0003C32.5 52.3154 31.1831 55.4948 28.8389 57.8389L30.9602 59.9602C33.867 57.0535 35.5 53.111 35.5 49.0003H32.5ZM28.8387 40.1612C31.1829 42.5054 32.5 45.6851 32.5 49.0003H35.5C35.5 44.8894 33.8668 40.9467 30.96 38.0399L28.8387 40.1612ZM20 36.5C23.3151 36.5 26.4945 37.8171 28.8387 40.1612L30.96 38.0399C28.0533 35.1332 24.1108 33.5 20 33.5V36.5ZM11.1613 40.1612C13.5055 37.8171 16.6849 36.5 20 36.5V33.5C15.8892 33.5 11.9467 35.1332 9.04001 38.0399L11.1613 40.1612ZM9.04001 38.0399C6.1332 40.9467 4.5 44.8894 4.5 49.0003H7.5C7.5 45.6851 8.81711 42.5054 11.1613 40.1612L9.04001 38.0399Z" fill="#1CB0F6" class="fill-blue" />
  <path fill-rule="evenodd" clip-rule="evenodd" d="M74 49.0003C74 45.2872 72.5248 41.726 69.8993 39.1005C67.2739 36.4751 63.7129 35 60 35C56.2871 35 52.7261 36.4751 50.1007 39.1005C47.4752 41.726 46 45.2872 46 49.0003C46 52.7132 47.475 56.2741 50.1004 58.8996C52.7259 61.525 56.2871 63 60 63C63.7129 63 67.2741 61.525 69.8996 58.8996C72.525 56.2741 74 52.7132 74 49.0003Z" fill="#84D3FF" class="fill-blue" />
  <path d="M68.8389 57.8389C71.1831 55.4948 72.5 52.3154 72.5 49.0003H75.5C75.5 53.111 73.867 57.0535 70.9602 59.9602L68.8389 57.8389ZM60 61.5C63.3152 61.5 66.4948 60.183 68.8389 57.8389L70.9602 59.9602C68.0535 62.867 64.1107 64.5 60 64.5V61.5ZM51.1611 57.8389C53.5052 60.183 56.6848 61.5 60 61.5V64.5C55.8893 64.5 51.9465 62.867 49.0398 59.9602L51.1611 57.8389ZM47.5 49.0003C47.5 52.3154 48.8169 55.4948 51.1611 57.8389L49.0398 59.9602C46.133 57.0535 44.5 53.111 44.5 49.0003H47.5ZM51.1613 40.1612C48.8171 42.5054 47.5 45.6851 47.5 49.0003H44.5C44.5 44.8894 46.1332 40.9467 49.04 38.0399L51.1613 40.1612ZM60 36.5C56.6849 36.5 53.5055 37.8171 51.1613 40.1612L49.04 38.0399C51.9467 35.1332 55.8892 33.5 60 33.5V36.5ZM68.8387 40.1612C66.4945 37.8171 63.3151 36.5 60 36.5V33.5C64.1108 33.5 68.0533 35.1332 70.96 38.0399L68.8387 40.1612ZM70.96 38.0399C73.8668 40.9467 75.5 44.8894 75.5 49.0003H72.5C72.5 45.6851 71.1829 42.5054 68.8387 40.1612L70.96 38.0399Z" fill="#1CB0F6" class="fill-blue" />
</svg>