<svg viewBox="0 0 80 80" fill="none">
  <path fill-rule="evenodd" clip-rule="evenodd" d="M19 40.4212L33 40.4212C35.2091 40.4212 37 42.2121 37 44.4212L37 53.2633L37 64.0703C37 66.2795 35.2091 68.0703 33 68.0703C30.7909 68.0703 29 66.2795 29 64.0703L29 57.2633L27.8951 57.2633C28.1959 58.553 27.8502 59.9642 26.8533 60.9789C25.3051 62.5547 22.7726 62.5771 21.1967 61.0289L21.025 60.8602C19.7297 59.5876 19 57.8479 19 56.0319C19 52.2937 22.0304 49.2633 25.7686 49.2633L29 49.2633L29 48.4212L18 48.4212C14.134 48.4212 11 45.2872 11 41.4212L11 40.0001L11 38.5791C11 34.7131 14.134 31.5791 18 31.5791L29 31.5791L29 30.737L25.7686 30.737C22.0304 30.737 19 27.7066 19 23.9683C19 22.1524 19.7297 20.4127 21.025 19.14L21.1967 18.9714C22.7726 17.4231 25.3051 17.4456 26.8533 19.0214C27.8502 20.036 28.1959 21.4472 27.8951 22.737L29 22.737L29 15.93C29 13.7208 30.7909 11.93 33 11.93C35.2091 11.93 37 13.7208 37 15.93L37 26.737L37 35.5791C37 37.7882 35.2091 39.5791 33 39.5791L19 39.5791L19 40.0001L19 40.4212Z" fill="#FFC200" class="fill-yellow" />
  <path d="M19 40.4212L17.5 40.4212C17.5 41.2496 18.1716 41.9212 19 41.9212L19 40.4212ZM29 64.0703L27.5 64.0703L29 64.0703ZM29 57.2633L30.5 57.2633C30.5 56.4349 29.8284 55.7633 29 55.7633L29 57.2633ZM27.8951 57.2633L27.8951 55.7633C27.4374 55.7633 27.0047 55.9723 26.7202 56.3308C26.4356 56.6894 26.3303 57.1582 26.4343 57.604L27.8951 57.2633ZM26.8533 60.9789L27.9234 62.0301L27.9234 62.0301L26.8533 60.9789ZM21.1967 61.0289L22.2479 59.9589L22.2479 59.9589L21.1967 61.0289ZM21.025 60.8602L19.9738 61.9303L19.9738 61.9303L21.025 60.8602ZM29 49.2633L29 50.7633C29.8284 50.7633 30.5 50.0917 30.5 49.2633L29 49.2633ZM29 48.4212L30.5 48.4212C30.5 47.5928 29.8284 46.9212 29 46.9212L29 48.4212ZM11 41.4212L12.5 41.4212L11 41.4212ZM11 40.0001L9.5 40.0001L11 40.0001ZM11 38.5791L12.5 38.5791L11 38.5791ZM29 31.5791L29 33.0791C29.8284 33.0791 30.5 32.4075 30.5 31.5791L29 31.5791ZM29 30.737L30.5 30.737C30.5 30.3392 30.342 29.9576 30.0607 29.6763C29.7794 29.395 29.3978 29.237 29 29.237L29 30.737ZM21.025 19.14L19.9738 18.07L19.9738 18.07L21.025 19.14ZM21.1967 18.9714L22.2479 20.0414L22.2479 20.0414L21.1967 18.9714ZM26.8533 19.0214L25.7833 20.0726L25.7833 20.0726L26.8533 19.0214ZM27.8951 22.737L26.4343 22.3963C26.3303 22.8421 26.4356 23.3109 26.7202 23.6694C27.0047 24.028 27.4374 24.237 27.8951 24.237L27.8951 22.737ZM29 22.737L29 24.237C29.3978 24.237 29.7794 24.0789 30.0607 23.7976C30.342 23.5163 30.5 23.1348 30.5 22.737L29 22.737ZM29 15.93L27.5 15.93L29 15.93ZM19 39.5791L19 38.0791C18.1716 38.0791 17.5 38.7507 17.5 39.5791L19 39.5791ZM19 40.0001L17.5 40.0001L19 40.0001ZM33 38.9212L19 38.9212L19 41.9212L33 41.9212L33 38.9212ZM38.5 44.4212C38.5 41.3836 36.0376 38.9212 33 38.9212L33 41.9212C34.3807 41.9212 35.5 43.0405 35.5 44.4212L38.5 44.4212ZM38.5 53.2633L38.5 44.4212L35.5 44.4212L35.5 53.2633L38.5 53.2633ZM38.5 64.0703L38.5 53.2633L35.5 53.2633L35.5 64.0703L38.5 64.0703ZM33 69.5703C36.0376 69.5703 38.5 67.1079 38.5 64.0703L35.5 64.0703C35.5 65.451 34.3807 66.5703 33 66.5703L33 69.5703ZM27.5 64.0703C27.5 67.1079 29.9624 69.5703 33 69.5703L33 66.5703C31.6193 66.5703 30.5 65.451 30.5 64.0703L27.5 64.0703ZM27.5 57.2633L27.5 64.0703L30.5 64.0703L30.5 57.2633L27.5 57.2633ZM27.8951 58.7633L29 58.7633L29 55.7633L27.8951 55.7633L27.8951 58.7633ZM27.9234 62.0301C29.2951 60.6338 29.7684 58.6915 29.3559 56.9226L26.4343 57.604C26.6233 58.4145 26.4052 59.2946 25.7833 59.9276L27.9234 62.0301ZM20.1455 62.0989C22.3123 64.2277 25.7946 64.1969 27.9234 62.0301L25.7833 59.9276C24.8157 60.9125 23.2329 60.9265 22.2479 59.9589L20.1455 62.0989ZM19.9738 61.9303L20.1455 62.0989L22.2479 59.9589L22.0763 59.7902L19.9738 61.9303ZM17.5 56.0319C17.5 58.2503 18.3914 60.3756 19.9738 61.9303L22.0763 59.7902C21.068 58.7996 20.5 57.4454 20.5 56.0319L17.5 56.0319ZM25.7686 47.7633C21.202 47.7633 17.5 51.4653 17.5 56.0319L20.5 56.0319C20.5 53.1221 22.8588 50.7633 25.7686 50.7633L25.7686 47.7633ZM29 47.7633L25.7686 47.7633L25.7686 50.7633L29 50.7633L29 47.7633ZM27.5 48.4212L27.5 49.2633L30.5 49.2633L30.5 48.4212L27.5 48.4212ZM18 49.9212L29 49.9212L29 46.9212L18 46.9212L18 49.9212ZM9.5 41.4212C9.5 46.1156 13.3056 49.9212 18 49.9212L18 46.9212C14.9624 46.9212 12.5 44.4588 12.5 41.4212L9.5 41.4212ZM9.5 40.0001L9.5 41.4212L12.5 41.4212L12.5 40.0001L9.5 40.0001ZM9.5 38.5791L9.5 40.0001L12.5 40.0001L12.5 38.5791L9.5 38.5791ZM18 30.0791C13.3056 30.0791 9.5 33.8847 9.5 38.5791L12.5 38.5791C12.5 35.5415 14.9624 33.0791 18 33.0791L18 30.0791ZM29 30.0791L18 30.0791L18 33.0791L29 33.0791L29 30.0791ZM27.5 30.737L27.5 31.5791L30.5 31.5791L30.5 30.737L27.5 30.737ZM25.7686 32.237L29 32.237L29 29.237L25.7686 29.237L25.7686 32.237ZM17.5 23.9683C17.5 28.535 21.202 32.237 25.7686 32.237L25.7686 29.237C22.8588 29.237 20.5 26.8781 20.5 23.9683L17.5 23.9683ZM19.9738 18.07C18.3914 19.6247 17.5 21.75 17.5 23.9683L20.5 23.9683C20.5 22.5548 21.068 21.2006 22.0763 20.21L19.9738 18.07ZM20.1455 17.9013L19.9738 18.07L22.0763 20.21L22.2479 20.0414L20.1455 17.9013ZM27.9233 17.9702C25.7946 15.8034 22.3123 15.7726 20.1455 17.9013L22.2479 20.0414C23.2329 19.0737 24.8157 19.0877 25.7833 20.0726L27.9233 17.9702ZM29.3559 23.0777C29.7684 21.3087 29.2951 19.3664 27.9233 17.9702L25.7833 20.0726C26.4052 20.7056 26.6233 21.5857 26.4343 22.3963L29.3559 23.0777ZM29 21.237L27.8951 21.237L27.8951 24.237L29 24.237L29 21.237ZM27.5 15.93L27.5 22.737L30.5 22.737L30.5 15.93L27.5 15.93ZM33 10.43C29.9624 10.43 27.5 12.8924 27.5 15.93L30.5 15.93C30.5 14.5492 31.6193 13.43 33 13.43L33 10.43ZM38.5 15.93C38.5 12.8924 36.0376 10.43 33 10.43L33 13.43C34.3807 13.43 35.5 14.5492 35.5 15.93L38.5 15.93ZM38.5 26.737L38.5 15.93L35.5 15.93L35.5 26.737L38.5 26.737ZM38.5 35.5791L38.5 26.737L35.5 26.737L35.5 35.5791L38.5 35.5791ZM33 41.0791C36.0376 41.0791 38.5 38.6166 38.5 35.5791L35.5 35.5791C35.5 36.9598 34.3807 38.0791 33 38.0791L33 41.0791ZM19 41.0791L33 41.0791L33 38.0791L19 38.0791L19 41.0791ZM20.5 40.0001L20.5 39.5791L17.5 39.5791L17.5 40.0001L20.5 40.0001ZM20.5 40.4212L20.5 40.0001L17.5 40.0001L17.5 40.4212L20.5 40.4212Z" fill="#D33131" class="fill-red" />
  <path fill-rule="evenodd" clip-rule="evenodd" d="M61 40.4212L47 40.4212C44.7909 40.4212 43 42.2121 43 44.4212L43 53.2633L43 64.0703C43 66.2795 44.7909 68.0703 47 68.0703C49.2091 68.0703 51 66.2795 51 64.0703L51 57.2633L52.1049 57.2633C51.8041 58.553 52.1498 59.9642 53.1467 60.9789C54.6949 62.5547 57.2274 62.5771 58.8033 61.0289L58.975 60.8602C60.2703 59.5876 61 57.8479 61 56.0319C61 52.2937 57.9696 49.2633 54.2314 49.2633L51 49.2633L51 48.4212L62 48.4212C65.866 48.4212 69 45.2872 69 41.4212L69 40.0001L69 38.5791C69 34.7131 65.866 31.5791 62 31.5791L51 31.5791L51 30.737L54.2314 30.737C57.9696 30.737 61 27.7066 61 23.9683C61 22.1524 60.2703 20.4127 58.975 19.14L58.8033 18.9714C57.2274 17.4231 54.6949 17.4456 53.1467 19.0214C52.1498 20.036 51.8041 21.4472 52.1049 22.737L51 22.737L51 15.93C51 13.7208 49.2091 11.93 47 11.93C44.7909 11.93 43 13.7208 43 15.93L43 26.737L43 35.5791C43 37.7882 44.7909 39.5791 47 39.5791L61 39.5791L61 40.0001L61 40.4212Z" fill="#FFC200" class="fill-yellow" />
  <path d="M61 40.4212L62.5 40.4212C62.5 41.2496 61.8284 41.9212 61 41.9212L61 40.4212ZM51 64.0703L52.5 64.0703L51 64.0703ZM51 57.2633L49.5 57.2633C49.5 56.8655 49.658 56.4839 49.9393 56.2026C50.2206 55.9213 50.6022 55.7633 51 55.7633L51 57.2633ZM52.1049 57.2633L52.1049 55.7633C52.5626 55.7633 52.9953 55.9723 53.2798 56.3308C53.5644 56.6894 53.6697 57.1582 53.5657 57.604L52.1049 57.2633ZM53.1467 60.9789L52.0766 62.0301L52.0766 62.0301L53.1467 60.9789ZM58.8033 61.0289L57.7521 59.9589L57.7521 59.9589L58.8033 61.0289ZM58.975 60.8602L60.0262 61.9303L60.0262 61.9303L58.975 60.8602ZM51 49.2633L51 50.7633C50.1716 50.7633 49.5 50.0917 49.5 49.2633L51 49.2633ZM51 48.4212L49.5 48.4212C49.5 47.5928 50.1716 46.9212 51 46.9212L51 48.4212ZM69 41.4212L67.5 41.4212L69 41.4212ZM69 40.0001L70.5 40.0001L69 40.0001ZM69 38.5791L67.5 38.5791L69 38.5791ZM51 31.5791L51 33.0791C50.1716 33.0791 49.5 32.4075 49.5 31.5791L51 31.5791ZM51 30.737L49.5 30.737C49.5 30.3392 49.658 29.9576 49.9393 29.6763C50.2206 29.395 50.6022 29.237 51 29.237L51 30.737ZM58.975 19.14L60.0262 18.07L60.0262 18.07L58.975 19.14ZM58.8033 18.9714L57.7521 20.0414L57.7521 20.0414L58.8033 18.9714ZM53.1467 19.0214L54.2167 20.0726L54.2167 20.0726L53.1467 19.0214ZM52.1049 22.737L53.5657 22.3963C53.6697 22.8421 53.5644 23.3109 53.2798 23.6694C52.9953 24.028 52.5626 24.237 52.1049 24.237L52.1049 22.737ZM51 22.737L51 24.237C50.6022 24.237 50.2206 24.0789 49.9393 23.7976C49.658 23.5163 49.5 23.1348 49.5 22.737L51 22.737ZM51 15.93L52.5 15.93L51 15.93ZM61 39.5791L61 38.0791C61.8284 38.0791 62.5 38.7507 62.5 39.5791L61 39.5791ZM61 40.0001L62.5 40.0001L61 40.0001ZM47 38.9212L61 38.9212L61 41.9212L47 41.9212L47 38.9212ZM41.5 44.4212C41.5 41.3836 43.9624 38.9212 47 38.9212L47 41.9212C45.6193 41.9212 44.5 43.0405 44.5 44.4212L41.5 44.4212ZM41.5 53.2633L41.5 44.4212L44.5 44.4212L44.5 53.2633L41.5 53.2633ZM41.5 64.0703L41.5 53.2633L44.5 53.2633L44.5 64.0703L41.5 64.0703ZM47 69.5703C43.9624 69.5703 41.5 67.1079 41.5 64.0703L44.5 64.0703C44.5 65.451 45.6193 66.5703 47 66.5703L47 69.5703ZM52.5 64.0703C52.5 67.1079 50.0376 69.5703 47 69.5703L47 66.5703C48.3807 66.5703 49.5 65.451 49.5 64.0703L52.5 64.0703ZM52.5 57.2633L52.5 64.0703L49.5 64.0703L49.5 57.2633L52.5 57.2633ZM52.1049 58.7633L51 58.7633L51 55.7633L52.1049 55.7633L52.1049 58.7633ZM52.0766 62.0301C50.7049 60.6338 50.2316 58.6915 50.6441 56.9226L53.5657 57.604C53.3767 58.4145 53.5948 59.2946 54.2167 59.9276L52.0766 62.0301ZM59.8545 62.0989C57.6877 64.2277 54.2054 64.1969 52.0766 62.0301L54.2167 59.9276C55.1843 60.9125 56.7671 60.9265 57.7521 59.9589L59.8545 62.0989ZM60.0262 61.9303L59.8545 62.0989L57.7521 59.9589L57.9237 59.7902L60.0262 61.9303ZM62.5 56.0319C62.5 58.2503 61.6086 60.3756 60.0262 61.9303L57.9237 59.7902C58.932 58.7996 59.5 57.4454 59.5 56.0319L62.5 56.0319ZM54.2314 47.7633C58.798 47.7633 62.5 51.4653 62.5 56.0319L59.5 56.0319C59.5 53.1221 57.1412 50.7633 54.2314 50.7633L54.2314 47.7633ZM51 47.7633L54.2314 47.7633L54.2314 50.7633L51 50.7633L51 47.7633ZM52.5 48.4212L52.5 49.2633L49.5 49.2633L49.5 48.4212L52.5 48.4212ZM62 49.9212L51 49.9212L51 46.9212L62 46.9212L62 49.9212ZM70.5 41.4212C70.5 46.1156 66.6944 49.9212 62 49.9212L62 46.9212C65.0376 46.9212 67.5 44.4588 67.5 41.4212L70.5 41.4212ZM70.5 40.0001L70.5 41.4212L67.5 41.4212L67.5 40.0001L70.5 40.0001ZM70.5 38.5791L70.5 40.0001L67.5 40.0001L67.5 38.5791L70.5 38.5791ZM62 30.0791C66.6944 30.0791 70.5 33.8847 70.5 38.5791L67.5 38.5791C67.5 35.5415 65.0376 33.0791 62 33.0791L62 30.0791ZM51 30.0791L62 30.0791L62 33.0791L51 33.0791L51 30.0791ZM52.5 30.737L52.5 31.5791L49.5 31.5791L49.5 30.737L52.5 30.737ZM54.2314 32.237L51 32.237L51 29.237L54.2314 29.237L54.2314 32.237ZM62.5 23.9683C62.5 28.535 58.798 32.237 54.2314 32.237L54.2314 29.237C57.1412 29.237 59.5 26.8781 59.5 23.9683L62.5 23.9683ZM60.0262 18.07C61.6086 19.6247 62.5 21.75 62.5 23.9683L59.5 23.9683C59.5 22.5548 58.932 21.2006 57.9237 20.21L60.0262 18.07ZM59.8545 17.9013L60.0262 18.07L57.9237 20.21L57.7521 20.0414L59.8545 17.9013ZM52.0767 17.9702C54.2054 15.8034 57.6877 15.7726 59.8545 17.9013L57.7521 20.0414C56.7671 19.0737 55.1843 19.0877 54.2167 20.0726L52.0767 17.9702ZM50.6441 23.0777C50.2316 21.3087 50.7049 19.3664 52.0767 17.9702L54.2167 20.0726C53.5948 20.7056 53.3767 21.5857 53.5657 22.3963L50.6441 23.0777ZM51 21.237L52.1049 21.237L52.1049 24.237L51 24.237L51 21.237ZM52.5 15.93L52.5 22.737L49.5 22.737L49.5 15.93L52.5 15.93ZM47 10.43C50.0376 10.43 52.5 12.8924 52.5 15.93L49.5 15.93C49.5 14.5492 48.3807 13.43 47 13.43L47 10.43ZM41.5 15.93C41.5 12.8924 43.9624 10.43 47 10.43L47 13.43C45.6193 13.43 44.5 14.5492 44.5 15.93L41.5 15.93ZM41.5 26.737L41.5 15.93L44.5 15.93L44.5 26.737L41.5 26.737ZM41.5 35.5791L41.5 26.737L44.5 26.737L44.5 35.5791L41.5 35.5791ZM47 41.0791C43.9624 41.0791 41.5 38.6166 41.5 35.5791L44.5 35.5791C44.5 36.9598 45.6193 38.0791 47 38.0791L47 41.0791ZM61 41.0791L47 41.0791L47 38.0791L61 38.0791L61 41.0791ZM59.5 40.0001L59.5 39.5791L62.5 39.5791L62.5 40.0001L59.5 40.0001ZM59.5 40.4212L59.5 40.0001L62.5 40.0001L62.5 40.4212L59.5 40.4212Z" fill="#D33131" class="fill-red" />
</svg>