<svg viewBox="0 0 80 80" fill="none">
  <path d="M31.5147 19.5152C36.9478 17.2648 43.0522 17.2648 48.4853 19.5152C53.9183 21.7656 58.2348 26.0822 60.4853 31.5152C62.7357 36.9482 62.7357 43.0527 60.4853 48.4858C58.2348 53.9188 53.9183 58.2353 48.4853 60.4858C43.0522 62.7362 36.9478 62.7362 31.5147 60.4858C26.0817 58.2353 21.7652 53.9188 19.5147 48.4858C17.2643 43.0527 17.2643 36.9482 19.5147 31.5152C21.7652 26.0822 26.0817 21.7656 31.5147 19.5152Z" fill="#F4F4F4" stroke="#D2D2D2" stroke-width="3" stroke-linecap="round" stroke-linejoin="round" class="fill-white stroke-undefined" />
  <path d="M24.7672 31.1249L23.4711 30.3699C23.2704 30.7145 23.2151 31.1248 23.3175 31.5101C23.42 31.8955 23.6716 32.2243 24.0169 32.4237L24.7672 31.1249ZM24.7697 31.1206L25.5194 29.8214C24.8042 29.4086 23.8899 29.6517 23.4739 30.365L24.7697 31.1206ZM26.5021 32.1201L27.7975 32.8764C27.9987 32.5317 28.0543 32.121 27.9518 31.7352C27.8494 31.3494 27.5975 31.0204 27.2517 30.8209L26.5021 32.1201ZM26.499 32.1254L25.7487 33.4242C26.464 33.8374 27.3787 33.5946 27.7948 32.881L26.499 32.1254ZM22.3713 39.8052L20.8714 39.7887C20.867 40.1893 21.023 40.575 21.3047 40.8599C21.5864 41.1448 21.9703 41.3051 22.371 41.3052L22.3713 39.8052ZM22.3714 39.8003L22.371 38.3003C21.5494 38.3005 20.8808 38.9617 20.8715 39.7833L22.3714 39.8003ZM24.3715 39.7998L25.8714 39.8191C25.8766 39.4179 25.7208 39.0313 25.4389 38.7458C25.157 38.4603 24.7724 38.2997 24.3712 38.2998L24.3715 39.7998ZM24.3715 39.8058L24.3711 41.3058C25.1924 41.306 25.8612 40.6456 25.8714 39.8244L24.3715 39.8058ZM24.6002 48.5828L23.29 49.3131C23.4856 49.6639 23.8137 49.9217 24.2009 50.0286C24.5881 50.1356 25.002 50.0827 25.3499 49.882L24.6002 48.5828ZM24.5979 48.5785L23.8475 47.2796C23.1381 47.6895 22.8888 48.5927 23.2875 49.3085L24.5979 48.5785ZM26.3299 47.5779L27.642 46.851C27.4469 46.4989 27.1186 46.24 26.7307 46.1324C26.3429 46.0249 25.9281 46.0777 25.5796 46.279L26.3299 47.5779ZM26.3328 47.5831L27.0824 48.8823C27.7916 48.4731 28.0416 47.5709 27.6443 46.8551L26.3328 47.5831ZM30.9547 55.1329L30.1853 56.4205C30.5301 56.6266 30.9431 56.6857 31.3318 56.5847C31.7206 56.4837 32.0526 56.231 32.2535 55.8832L30.9547 55.1329ZM30.9505 55.1304L29.6513 54.3807C29.2418 55.0904 29.4775 55.9974 30.1808 56.4178L30.9505 55.1304ZM31.9502 53.3979L32.7228 52.1121C32.3779 51.9048 31.9641 51.8449 31.5745 51.9457C31.1849 52.0465 30.8521 52.2996 30.651 52.6482L31.9502 53.3979ZM31.9553 53.4009L33.2541 54.1512C33.6635 53.4425 33.4292 52.5364 32.7275 52.115L31.9553 53.4009ZM39.8051 57.6291L39.7871 59.129C40.1879 59.1338 40.574 58.978 40.8592 58.6963C41.1444 58.4145 41.305 58.0304 41.3051 57.6295L39.8051 57.6291ZM39.8004 57.629L38.3004 57.6294C38.3006 58.4507 38.9611 59.1191 39.7823 59.1289L39.8004 57.629ZM39.7998 55.6289L39.8176 54.129C39.4167 54.1242 39.0305 54.2802 38.7454 54.5621C38.4602 54.844 38.2997 55.2283 38.2998 55.6293L39.7998 55.6289ZM39.8056 55.629L41.3056 55.6294C41.3058 54.8077 40.645 54.1388 39.8234 54.1291L39.8056 55.629ZM48.7545 55.303L49.5007 56.6043C49.8464 56.406 50.0991 56.0784 50.2028 55.6936C50.3066 55.3088 50.253 54.8986 50.0538 54.5534L48.7545 55.303ZM48.7505 55.3054L47.4516 56.0557C47.8645 56.7704 48.7771 57.0172 49.4939 56.6082L48.7505 55.3054ZM47.75 53.5736L47.0067 52.2707C46.66 52.4685 46.4063 52.7964 46.3021 53.1818C46.1978 53.5672 46.2514 53.9782 46.4511 54.3239L47.75 53.5736ZM47.755 53.5707L49.0542 52.8211C48.6414 52.1056 47.7278 51.8585 47.0106 52.2684L47.755 53.5707ZM55.3053 48.7504L56.6081 49.4939C57.0171 48.777 56.7703 47.8644 56.0556 47.4516L55.3053 48.7504ZM55.3029 48.7545L54.5533 50.0538C54.8985 50.2529 55.3087 50.3066 55.6935 50.2028C56.0783 50.099 56.4059 49.8464 56.6042 49.5007L55.3029 48.7545ZM53.5706 47.755L52.2683 47.0106C51.8584 47.7278 52.1055 48.6414 52.821 49.0542L53.5706 47.755ZM53.5735 47.75L54.3238 46.4511C53.9781 46.2514 53.567 46.1978 53.1817 46.3021C52.7963 46.4063 52.4684 46.66 52.2706 47.0067L53.5735 47.75ZM57.6288 39.8004L59.1287 39.7823C59.1188 38.9612 58.4504 38.3006 57.6292 38.3004L57.6288 39.8004ZM57.6288 39.8051L57.6292 41.3051C58.0301 41.305 58.4143 41.1445 58.696 40.8593C58.9777 40.5741 59.1336 40.188 59.1287 39.7871L57.6288 39.8051ZM55.6287 39.8057L54.1288 39.8235C54.1386 40.645 54.8075 41.3059 55.6291 41.3057L55.6287 39.8057ZM55.6286 39.7999L55.629 38.2999C55.2281 38.2998 54.8437 38.4602 54.5618 38.7454C54.28 39.0306 54.124 39.4167 54.1287 39.8177L55.6286 39.7999ZM55.1301 30.9507L56.4175 30.1809C55.9971 29.4777 55.0901 29.242 54.3805 29.6515L55.1301 30.9507ZM55.1326 30.9549L55.8829 32.2537C56.2307 32.0528 56.4834 31.7208 56.5844 31.332C56.6854 30.9433 56.6263 30.5303 56.4202 30.1855L55.1326 30.9549ZM53.4006 31.9554L52.1147 32.7277C52.5361 33.4294 53.4422 33.6637 54.1509 33.2543L53.4006 31.9554ZM53.3976 31.9504L52.6479 30.6512C52.2993 30.8523 52.0462 31.1851 51.9454 31.5747C51.8446 31.9643 51.9046 32.3781 52.1118 32.723L53.3976 31.9504ZM48.5783 24.5981L49.3083 23.2878C48.5925 22.889 47.6893 23.1384 47.2795 23.8478L48.5783 24.5981ZM48.5826 24.6005L49.8818 25.3502C50.0826 25.0023 50.1354 24.5884 50.0284 24.2012C49.9215 23.814 49.6637 23.4859 49.3129 23.2903L48.5826 24.6005ZM47.5829 26.3331L46.8549 27.6446C47.5708 28.0419 48.473 27.7919 48.8821 27.0827L47.5829 26.3331ZM47.5777 26.3302L46.2789 25.5799C46.0775 25.9284 46.0247 26.3432 46.1323 26.731C46.2398 27.1189 46.4987 27.4472 46.8508 27.6423L47.5777 26.3302ZM39.8003 22.3716L39.7833 20.8717C38.9617 20.881 38.3005 21.5496 38.3003 22.3712L39.8003 22.3716ZM39.8052 22.3716L41.3052 22.3712C41.3051 21.9706 41.1448 21.5866 40.8599 21.3049C40.575 21.0233 40.1893 20.8672 39.7887 20.8717L39.8052 22.3716ZM39.7997 24.3718L38.2997 24.3714C38.2996 24.7726 38.4603 25.1571 38.7457 25.4391C39.0312 25.721 39.4177 25.8768 39.8189 25.8717L39.7997 24.3718ZM39.8057 24.3717L39.8243 25.8716C40.6456 25.8614 41.3059 25.1926 41.3057 24.3713L39.8057 24.3717ZM31.1249 24.7673L32.4237 24.017C32.2243 23.6717 31.8955 23.4201 31.5102 23.3176C31.1248 23.2152 30.7145 23.2705 30.3699 23.4712L31.1249 24.7673ZM32.1254 26.4991L32.881 27.7949C33.5946 27.3788 33.8374 26.4641 33.4242 25.7488L32.1254 26.4991ZM31.1206 24.7698L30.3651 23.474C29.6517 23.89 29.4087 24.8043 29.8214 25.5195L31.1206 24.7698ZM32.1202 26.5022L30.8209 27.2518C31.0204 27.5976 31.3494 27.8495 31.7352 27.9519C32.121 28.0544 32.5317 27.9988 32.8764 27.7976L32.1202 26.5022ZM26.0634 31.8799C26.0642 31.8784 26.0649 31.8772 26.0656 31.8761L23.4739 30.365C23.4729 30.3668 23.4719 30.3685 23.4711 30.3699L26.0634 31.8799ZM24.0201 32.4198L25.7524 33.4194L27.2517 30.8209L25.5194 29.8214L24.0201 32.4198ZM25.2066 31.3639C25.2057 31.3656 25.2045 31.3676 25.2033 31.3697L27.7948 32.881C27.7956 32.8796 27.7965 32.8782 27.7975 32.8764L25.2066 31.3639ZM27.2494 30.8265L25.5176 29.8261L24.0169 32.4237L25.7487 33.4242L27.2494 30.8265ZM23.8712 39.8218C23.8713 39.8203 23.8713 39.8188 23.8713 39.8173L20.8715 39.7833C20.8715 39.7851 20.8714 39.7869 20.8714 39.7887L23.8712 39.8218ZM22.3718 41.3003L24.3719 41.2998L24.3712 38.2998L22.371 38.3003L22.3718 41.3003ZM22.8717 39.7805C22.8716 39.7828 22.8716 39.785 22.8716 39.7872L25.8714 39.8244C25.8714 39.8225 25.8714 39.8208 25.8714 39.8191L22.8717 39.7805ZM24.3719 38.3058L22.3717 38.3052L22.371 41.3052L24.3711 41.3058L24.3719 38.3058ZM25.9105 47.8525C25.9097 47.8511 25.9096 47.8509 25.9083 47.8485L23.2875 49.3085C23.2877 49.3089 23.2892 49.3116 23.29 49.3131L25.9105 47.8525ZM25.3482 49.8773L27.0802 48.8767L25.5796 46.279L23.8475 47.2796L25.3482 49.8773ZM25.0178 48.3048C25.019 48.307 25.0202 48.3091 25.0213 48.311L27.6443 46.8551C27.6434 46.8536 27.6427 46.8522 27.642 46.851L25.0178 48.3048ZM25.5831 46.2838L23.8506 47.2835L25.3499 49.882L27.0824 48.8823L25.5831 46.2838ZM31.7241 53.8452C31.7229 53.8445 31.7217 53.8438 31.7203 53.843L30.1808 56.4178C30.1821 56.4186 30.1837 56.4196 30.1853 56.4205L31.7241 53.8452ZM32.2498 55.8801L33.2495 54.1475L30.651 52.6482L29.6513 54.3807L32.2498 55.8801ZM31.1776 54.6836C31.1795 54.6847 31.1813 54.6858 31.183 54.6868L32.7275 52.115C32.7258 52.1139 32.7243 52.113 32.7228 52.1121L31.1776 54.6836ZM30.6564 52.6505L29.6558 54.3825L32.2535 55.8832L33.2541 54.1512L30.6564 52.6505ZM39.8232 56.1292C39.8203 56.1292 39.8177 56.1291 39.8172 56.1291C39.8161 56.1291 39.8171 56.1291 39.8184 56.1292L39.7823 59.1289C39.7852 59.129 39.7878 59.129 39.7883 59.129C39.7894 59.129 39.7884 59.129 39.7871 59.129L39.8232 56.1292ZM41.3004 57.6287L41.2998 55.6285L38.2998 55.6293L38.3004 57.6294L41.3004 57.6287ZM39.7821 57.1288C39.7821 57.1288 39.7821 57.1288 39.7824 57.1288C39.7827 57.1288 39.783 57.1288 39.7835 57.1288C39.7843 57.1288 39.786 57.1288 39.7878 57.1289L39.8234 54.1291C39.8234 54.1291 39.8233 54.1291 39.8231 54.1291C39.8228 54.1291 39.8225 54.1291 39.822 54.1291C39.8212 54.129 39.8195 54.129 39.8176 54.129L39.7821 57.1288ZM38.3056 55.6286L38.3051 57.6287L41.3051 57.6295L41.3056 55.6294L38.3056 55.6286ZM48.0084 54.0018C48.0086 54.0017 48.0086 54.0017 48.007 54.0026L49.4939 56.6082C49.495 56.6076 49.4978 56.606 49.5007 56.6043L48.0084 54.0018ZM50.0493 54.555L49.0488 52.8232L46.4511 54.3239L47.4516 56.0557L50.0493 54.555ZM48.4932 54.8765C48.4948 54.8756 48.497 54.8743 48.4994 54.873L47.0106 52.2684C47.0096 52.269 47.0085 52.2696 47.0067 52.2707L48.4932 54.8765ZM46.4558 54.3204L47.4553 56.0527L50.0538 54.5534L49.0542 52.8211L46.4558 54.3204ZM54.0025 48.007C54.0024 48.0071 54.0022 48.0075 54.0017 48.0084L56.6042 49.5007C56.6052 49.4989 56.6066 49.4965 56.6081 49.4939L54.0025 48.007ZM56.0526 47.4553L54.3203 46.4557L52.821 49.0542L54.5533 50.0538L56.0526 47.4553ZM54.8729 48.4993C54.874 48.4974 54.8752 48.4953 54.8764 48.4932L52.2706 47.0067C52.2698 47.008 52.2691 47.0093 52.2683 47.0106L54.8729 48.4993ZM52.8231 49.0488L54.555 50.0493L56.0556 47.4516L54.3238 46.4511L52.8231 49.0488ZM56.1289 39.8184C56.1289 39.8182 56.1289 39.8181 56.1289 39.819C56.1289 39.8197 56.1289 39.8214 56.129 39.8232L59.1287 39.7871C59.1287 39.7873 59.1287 39.7875 59.1287 39.7865C59.1287 39.7859 59.1287 39.7842 59.1287 39.7823L56.1289 39.8184ZM57.6285 38.3051L55.6283 38.3057L55.6291 41.3057L57.6292 41.3051L57.6285 38.3051ZM57.1286 39.7879C57.1286 39.786 57.1286 39.7843 57.1286 39.7835C57.1285 39.783 57.1285 39.7827 57.1285 39.7824C57.1285 39.7822 57.1285 39.7821 57.1285 39.7821L54.1287 39.8177C54.1288 39.8195 54.1288 39.8212 54.1288 39.822C54.1288 39.8225 54.1288 39.8228 54.1288 39.8231C54.1288 39.8234 54.1288 39.8235 54.1288 39.8235L57.1286 39.7879ZM55.6283 41.2999L57.6284 41.3004L57.6292 38.3004L55.629 38.2999L55.6283 41.2999ZM53.8427 31.7205C53.8435 31.7218 53.8443 31.7231 53.8446 31.7236C53.845 31.7243 53.845 31.7243 53.8449 31.7242L56.4202 30.1855C56.4194 30.184 56.4186 30.1827 56.4182 30.182C56.4179 30.1816 56.4178 30.1814 56.4177 30.1812C56.4176 30.181 56.4175 30.1809 56.4175 30.1809L53.8427 31.7205ZM54.3823 29.656L52.6502 30.6566L54.1509 33.2543L55.8829 32.2537L54.3823 29.656ZM54.6865 31.1831C54.6863 31.1828 54.6842 31.1793 54.6833 31.1778L52.1118 32.723C52.1129 32.7248 52.1128 32.7247 52.1147 32.7277L54.6865 31.1831ZM54.1472 33.2496L55.8798 32.2499L54.3805 29.6515L52.6479 30.6512L54.1472 33.2496ZM47.8483 25.9085C47.8507 25.9099 47.8509 25.91 47.8523 25.9107L49.3129 23.2903C49.3114 23.2895 49.3088 23.288 49.3083 23.2878L47.8483 25.9085ZM47.2833 23.8509L46.2837 25.5834L48.8821 27.0827L49.8818 25.3502L47.2833 23.8509ZM48.3109 25.0215C48.309 25.0205 48.3069 25.0193 48.3046 25.0181L46.8508 27.6423C46.852 27.643 46.8534 27.6437 46.8549 27.6446L48.3109 25.0215ZM48.8766 27.0805L49.8771 25.3485L47.2795 23.8478L46.2789 25.5799L48.8766 27.0805ZM39.8172 23.8715C39.8188 23.8715 39.8203 23.8715 39.8218 23.8715L39.7887 20.8717C39.7868 20.8717 39.7851 20.8717 39.7833 20.8717L39.8172 23.8715ZM41.2997 24.3722L41.3003 22.372L38.3003 22.3712L38.2997 24.3714L41.2997 24.3722ZM39.7871 22.8718C39.7848 22.8719 39.7825 22.8719 39.7806 22.8719L39.8189 25.8717C39.821 25.8716 39.8227 25.8716 39.8243 25.8716L39.7871 22.8718ZM38.3052 22.372L38.3057 24.3721L41.3057 24.3713L41.3052 22.3712L38.3052 22.372ZM29.8261 25.5177L30.8265 27.2495L33.4242 25.7488L32.4237 24.017L29.8261 25.5177ZM31.8761 26.0657C31.8775 26.0649 31.8787 26.0642 31.8799 26.0635L30.3699 23.4712C30.3682 23.4722 30.3666 23.4731 30.3651 23.474L31.8761 26.0657ZM33.4194 25.7525L32.4198 24.0202L29.8214 25.5195L30.8209 27.2518L33.4194 25.7525ZM31.3697 25.2034C31.3678 25.2045 31.3658 25.2056 31.364 25.2067L32.8764 27.7976C32.878 27.7967 32.8795 27.7958 32.881 27.7949L31.3697 25.2034Z" fill="#D2D2D2" class="fill-undefined" />
  <path d="M40.6371 36.7079C40.133 37.3654 40.2574 38.307 40.9149 38.811C41.5723 39.315 42.5139 39.1907 43.0179 38.5332L40.6371 36.7079ZM48.0749 31.937C48.5789 31.2796 48.4545 30.338 47.7971 29.834C47.1396 29.33 46.198 29.4543 45.694 30.1118L48.0749 31.937ZM43.3477 40.1918C42.6285 39.7806 41.7121 40.0302 41.301 40.7494C40.8898 41.4686 41.1394 42.3849 41.8586 42.7961L43.3477 40.1918ZM53.1441 49.2485C53.8633 49.6597 54.7796 49.41 55.1908 48.6908C55.602 47.9716 55.3523 47.0553 54.6331 46.6441L53.1441 49.2485ZM38.5007 40.0005C38.5007 39.172 39.1723 38.5005 40.0007 38.5005V35.5005C37.5155 35.5005 35.5007 37.5152 35.5007 40.0005H38.5007ZM40.0007 41.5005C39.1723 41.5005 38.5007 40.8289 38.5007 40.0005H35.5007C35.5007 42.4857 37.5155 44.5005 40.0007 44.5005V41.5005ZM41.5007 40.0005C41.5007 40.8289 40.8292 41.5005 40.0007 41.5005V44.5005C42.486 44.5005 44.5007 42.4857 44.5007 40.0005H41.5007ZM40.0007 38.5005C40.8292 38.5005 41.5007 39.172 41.5007 40.0005H44.5007C44.5007 37.5152 42.486 35.5005 40.0007 35.5005V38.5005ZM43.0179 38.5332L48.0749 31.937L45.694 30.1118L40.6371 36.7079L43.0179 38.5332ZM41.8586 42.7961L53.1441 49.2485L54.6331 46.6441L43.3477 40.1918L41.8586 42.7961Z" fill="#D33131" class="fill-red" />
</svg>