<svg viewBox="0 0 80 80" fill="none">
  <path fill-rule="evenodd" clip-rule="evenodd" d="M33.0235 14.2028C33.0924 13.3383 33.7094 12.6095 34.5625 12.4533C37.8655 11.8486 41.2535 11.8489 44.5564 12.4543C45.4093 12.6107 46.0261 13.3394 46.095 14.2038L46.4659 18.8603C46.5284 19.6444 47.0482 20.311 47.7706 20.6219C48.513 20.9413 49.2411 21.3059 49.9511 21.7158C50.6614 22.1259 51.3416 22.5745 51.9897 23.0579C52.6202 23.5282 53.4574 23.6451 54.1677 23.3071L58.3834 21.3013C59.1666 20.9286 60.1064 21.0986 60.6681 21.7593C62.8434 24.3178 64.537 27.2524 65.6639 30.4159C65.9549 31.2326 65.6321 32.1311 64.9181 32.6229L61.0738 35.2703C60.4261 35.7164 60.1086 36.4999 60.2006 37.281C60.2951 38.0834 60.3434 38.8962 60.3434 39.7158C60.3434 40.5359 60.2951 41.349 60.2005 42.1519C60.1084 42.933 60.4259 43.7165 61.0736 44.1626L64.9159 46.8087C65.6301 47.3006 65.9529 48.1993 65.6616 49.0162C64.5338 52.1795 62.8394 55.1139 60.6633 57.672C60.1015 58.3324 59.1619 58.5022 58.3789 58.1297L54.1665 56.1254C53.4563 55.7874 52.6191 55.9042 51.9887 56.3745C51.3409 56.8577 50.661 57.3059 49.9511 57.7158C49.2412 58.1257 48.513 58.4903 47.7707 58.8097C47.0483 59.1206 46.5285 59.7872 46.466 60.5713L46.0956 65.2217C46.0268 66.0861 45.4099 66.8148 44.5571 66.9712C41.2537 67.5768 37.8653 67.5771 34.5618 66.9722C33.7088 66.816 33.0918 66.0872 33.0229 65.2227L32.6525 60.5716C32.59 59.7876 32.0702 59.1209 31.3477 58.8101C30.6051 58.4906 29.8767 58.1259 29.1665 57.7158C28.4566 57.306 27.7769 56.8578 27.1292 56.3747C26.4988 55.9045 25.6616 55.7877 24.9514 56.1256L20.7358 58.1314C19.9529 58.504 19.0134 58.3342 18.4516 57.6739C16.2754 55.1162 14.5808 52.1822 13.4527 49.0192C13.1614 48.2024 13.4841 47.3035 14.1984 46.8116L18.044 44.1632C18.6918 43.717 19.0093 42.9335 18.9172 42.1524C18.8225 41.3494 18.7742 40.536 18.7742 39.7158C18.7742 38.896 18.8225 38.083 18.917 37.2805C19.0091 36.4993 18.6916 35.7159 18.0438 35.2698L14.1962 32.62C13.4821 32.1282 13.1594 31.2296 13.4505 30.4128C14.5777 27.2497 16.2715 24.3155 18.4467 21.7574C19.0085 21.0968 19.9482 20.9269 20.7313 21.2995L24.9502 23.3069C25.6605 23.6448 26.4977 23.528 27.1282 23.0577C27.7762 22.5743 28.4563 22.1259 29.1665 21.7158C29.8767 21.3058 30.6052 20.941 31.3478 20.6215C32.0703 20.3107 32.5901 19.644 32.6526 18.8599L33.0235 14.2028ZM44.7546 30.7162C41.5392 28.8598 37.5777 28.8598 34.3623 30.7162C31.1469 32.5726 29.1661 36.0034 29.1661 39.7162C29.1661 43.429 31.1469 46.8598 34.3623 48.7162C37.5777 50.5726 41.5392 50.5726 44.7546 48.7162C47.97 46.8598 49.9507 43.429 49.9507 39.7162C49.9507 36.0034 47.97 32.5726 44.7546 30.7162Z" fill="#1CB0F6" class="fill-blue" />
</svg>