<svg viewBox="0 0 80 80" fill="none">
  <path fill-rule="evenodd" clip-rule="evenodd" d="M24.0745 29.4969C24.3761 29.932 24.8748 30.1882 25.4042 30.18L30.2499 30.1042C30.7556 30.0963 31.2273 29.848 31.5199 29.4355L33.728 26.3232C34.1151 25.7776 34.8044 25.5277 35.4388 25.7398C37.9727 26.5868 40.3267 27.9018 42.3758 29.6139C42.9144 30.0639 43.048 30.8276 42.7359 31.4561L41.1226 34.7039C40.886 35.1803 40.9037 35.7434 41.1696 36.204L43.4225 40.1062C43.6884 40.5668 44.1673 40.8636 44.6981 40.8969L48.3152 41.1236C49.0158 41.1675 49.6104 41.6653 49.7306 42.3568C50.1881 44.9878 50.1492 47.6841 49.6149 50.3022C49.4812 50.9573 48.9202 51.4292 48.2544 51.4916L44.4582 51.8474C43.9547 51.8946 43.5037 52.1789 43.244 52.6129L40.7563 56.7704C40.4844 57.2248 40.4569 57.7848 40.683 58.2635L42.1954 61.4663C42.4901 62.0903 42.3514 62.8378 41.8236 63.2824C39.7879 64.9969 37.4637 66.3391 34.9612 67.2453C34.3122 67.4803 33.5954 67.2267 33.2022 66.6594L31.1845 63.748C30.883 63.3128 30.3843 63.0566 29.8548 63.0649L25.0099 63.1406C24.5042 63.1485 24.0326 63.3969 23.7399 63.8094L21.532 66.9214C21.1451 67.4668 20.456 67.7167 19.8218 67.505C17.2875 66.6589 14.9329 65.3448 12.8832 63.6335C12.3443 63.1837 12.2104 62.4197 12.5227 61.791L14.1364 58.5423C14.373 58.066 14.3553 57.5028 14.0894 57.0422L11.836 53.1392C11.5701 52.6786 11.0912 52.3818 10.5604 52.3485L6.9378 52.1215C6.23736 52.0776 5.64279 51.5799 5.52245 50.8884C5.06463 48.2579 5.10308 45.562 5.6367 42.9443C5.77029 42.289 6.33139 41.817 6.99728 41.7546L10.7995 41.3982C11.3031 41.351 11.7541 41.0667 12.0137 40.6327L14.5024 36.4736C14.7743 36.0192 14.8018 35.4592 14.5757 34.9805L13.0609 31.7726C12.7662 31.1484 12.9049 30.4008 13.433 29.9563C15.4688 28.2425 17.7929 26.9009 20.2952 25.9953C20.9442 25.7605 21.6609 26.0141 22.054 26.5814L24.0745 29.4969ZM27.6282 38.3843C24.6977 38.4301 21.9992 39.988 20.4943 42.5031L20.359 42.7291C18.8648 45.2262 18.8405 48.3367 20.2955 50.8568C21.7505 53.3769 24.4564 54.9111 27.366 54.8656L27.6294 54.8615C30.56 54.8157 33.2584 53.2577 34.7634 50.7427L34.8987 50.5166C36.3928 48.0196 36.4171 44.9091 34.9622 42.389C33.5072 39.8689 30.8013 38.3347 27.8917 38.3801L27.6282 38.3843Z" fill="#FFC200" class="fill-yellow" />
  <path fill-rule="evenodd" clip-rule="evenodd" d="M72.739 23.8753C72.4434 24.079 72.2671 24.4152 72.2677 24.7742L72.2729 28.1527C72.2734 28.5101 72.4492 28.8445 72.7432 29.0476L74.8048 30.4715C75.1939 30.7403 75.3689 31.2309 75.2093 31.6761C74.5925 33.3972 73.673 34.9965 72.4957 36.3944C72.1895 36.7579 71.6743 36.8521 71.2455 36.6472L68.9945 35.5715C68.6704 35.4166 68.2909 35.4314 67.9798 35.611L65.0747 37.2882C64.7637 37.4678 64.5611 37.7891 64.5332 38.1472L64.3394 40.6332C64.3024 41.1071 63.9632 41.5062 63.4952 41.5895C61.6957 41.9098 59.8508 41.9059 58.0518 41.5791C57.5866 41.4946 57.2494 41.0978 57.2112 40.6265L57.0089 38.1308C56.98 37.7746 56.7783 37.4552 56.4691 37.276L53.5468 35.5828C53.2362 35.4028 52.8569 35.3874 52.5326 35.5415L50.2913 36.6072C49.8626 36.811 49.3482 36.7163 49.0425 36.3532C47.8656 34.9559 46.9434 33.3588 46.3214 31.6411C46.1597 31.1947 46.3349 30.7018 46.7258 30.4324L48.7694 29.0242C49.065 28.8205 49.2413 28.4842 49.2407 28.1253L49.2355 24.7474C49.235 24.39 49.0592 24.0557 48.7651 23.8525L46.7038 22.4287C46.3147 22.16 46.1397 21.6696 46.2991 21.2244C46.9154 19.5031 47.8344 17.9036 49.0113 16.5052C49.3174 16.1416 49.8327 16.0473 50.2616 16.2523L52.5127 17.328C52.8368 17.4828 53.2163 17.468 53.5273 17.2885L56.4332 15.6108C56.7443 15.4312 56.9468 15.1099 56.9748 14.7518L57.1688 12.2631C57.2058 11.7893 57.5449 11.3901 58.0128 11.3068C59.8121 10.9863 61.6567 10.9899 63.4555 11.3163C63.9209 11.4008 64.2582 11.7976 64.2964 12.269L64.4989 14.7676C64.5278 15.1238 64.7295 15.4432 65.0387 15.6224L67.9624 17.3164C68.273 17.4964 68.6523 17.5118 68.9765 17.3577L71.2205 16.2908C71.6492 16.0869 72.1637 16.1817 72.4694 16.5449C73.6459 17.9423 74.5677 19.5393 75.1894 21.2569C75.351 21.7033 75.1758 22.1961 74.7849 22.4654L72.739 23.8753ZM66.5121 26.4586C66.5089 24.4023 65.4045 22.4895 63.6253 21.4586C61.8474 20.4284 59.6468 20.4223 57.8673 21.4497C56.0878 22.4771 54.9928 24.3859 54.996 26.4407C54.9992 28.497 56.1035 30.4098 57.8827 31.4407C59.6607 32.4709 61.8613 32.4771 63.6408 31.4497C65.4203 30.4223 66.5152 28.5134 66.5121 26.4586Z" fill="#1CB0F6" class="fill-blue" />
</svg>