<svg viewBox="0 0 80 80" fill="none">
  <path fill-rule="evenodd" clip-rule="evenodd" d="M31.0001 58V64C31.0001 65.6569 32.3433 67 34.0001 67H46.0001C47.657 67 49.0001 65.6569 49.0001 64L49.0001 58V49.4999C49.0001 49.2238 49.2239 49 49.5 49H50H50.5H51H58H64C65.6569 49 67 47.6569 67 46V34C67 32.3431 65.6569 31 64 31H58H51H50.5H50H49.5C49.2239 31 49.0001 30.7761 49.0001 30.5V30V29.5V29V22L49.0001 16C49.0001 14.3432 47.657 13 46.0001 13L34.0001 13C32.3433 13 31.0001 14.3431 31.0001 16V22L31.0001 29V29.5V30V30.5V30.9999C31.0001 31 31.0001 31 31 31L22 31H16C14.3431 31 13 32.3432 13 34L13 46C13 47.6569 14.3431 49 16 49H22L31 49C31.0001 49 31.0001 49 31.0001 49.0001V58Z" fill="#84D3FF" class="fill-blue" />
  <path d="M49.0001 58H51.0001H49.0001ZM49.5 29C48.3954 29 47.5 29.8954 47.5 31C47.5 32.1046 48.3954 33 49.5 33V29ZM49.0001 22L47.0001 22V22H49.0001ZM31.0001 22L33.0001 22V22H31.0001ZM31.0001 29H29.0001H31.0001ZM22 49V51H22L22 49ZM33.0001 64V58H29.0001V64H33.0001ZM46.0001 65H34.0001L34.0001 69H46.0001V65ZM47.0001 58L47.0001 64H51.0001L51.0001 58H47.0001ZM47.0001 49.4999V58H51.0001V49.4999H47.0001ZM50 47H49.5V51H50V47ZM50.5 47H50V51H50.5V47ZM51 47H50.5V51H51V47ZM58 47H51V51H58V47ZM64 47H58V51H64V47ZM65 34V46H69V34L65 34ZM58 33H64V29H58V33ZM51 33H58V29H51V33ZM50.5 33H51V29H50.5V33ZM50 33H50.5V29H50V33ZM49.5 33H50V29H49.5V33ZM47.0001 30V30.5H51.0001V30H47.0001ZM47.0001 29.5V30H51.0001V29.5H47.0001ZM47.0001 29V29.5H51.0001V29H47.0001ZM47.0001 22V29H51.0001V22H47.0001ZM47.0001 16L47.0001 22L51.0001 22L51.0001 16L47.0001 16ZM34.0001 15L46.0001 15V11L34.0001 11V15ZM33.0001 22V16H29.0001V22L33.0001 22ZM33.0001 29L33.0001 22L29.0001 22L29.0001 29H33.0001ZM33.0001 29.5V29H29.0001V29.5H33.0001ZM33.0001 30V29.5H29.0001V30H33.0001ZM33.0001 30.5V30H29.0001V30.5H33.0001ZM33.0001 30.9999V30.5H29.0001V30.9999H33.0001ZM22 33H31V29L22 29L22 33ZM16 33H22L22 29H16V33ZM15 46L15 34H11L11 46H15ZM22 47H16L16 51H22V47ZM31 47L22 47L22 51L31 51V47ZM33.0001 58V49.0001H29.0001V58H33.0001ZM31 51C29.8896 51 29.0001 50.0987 29.0001 49.0001H33.0001C33.0001 47.9014 32.1105 47 31 47V51ZM29.0001 30.9999C29.0001 29.937 29.8316 29.0597 30.893 29.0029L31.107 32.9971C32.1685 32.9403 33.0001 32.0629 33.0001 30.9999H29.0001ZM69 34C69 31.2386 66.7614 29 64 29V33C64.5523 33 65 33.4477 65 34L69 34ZM11 46C11 48.7614 13.2386 51 16 51L16 47C15.4477 47 15 46.5523 15 46H11ZM29.0001 64C29.0001 66.7614 31.2387 69 34.0001 69L34.0001 65C33.4478 65 33.0001 64.5523 33.0001 64H29.0001ZM51.0001 16C51.0001 13.2386 48.7615 11 46.0001 11V15C46.5524 15 47.0001 15.4477 47.0001 16L51.0001 16ZM49.5 29C50.3291 29 51.0001 29.6721 51.0001 30.5H47.0001C47.0001 31.8801 48.1188 33 49.5 33L49.5 29ZM64 51C66.7614 51 69 48.7614 69 46H65C65 46.5523 64.5523 47 64 47V51ZM16 29C13.2386 29 11 31.2386 11 34H15C15 33.4477 15.4477 33 16 33V29ZM51.0001 49.4999C51.0001 50.3284 50.3285 51 49.5 51V47C48.1193 47 47.0001 48.1192 47.0001 49.4999H51.0001ZM34.0001 11C31.2387 11 29.0001 13.2386 29.0001 16H33.0001C33.0001 15.4477 33.4478 15 34.0001 15V11ZM46.0001 69C48.7615 69 51.0001 66.7614 51.0001 64H47.0001C47.0001 64.5523 46.5524 65 46.0001 65V69Z" fill="#1CB0F6" class="fill-blue" />
  <circle cx="40" cy="40" r="4" fill="#7B61FF" class="fill-purple" />
  <path d="M43.9893 22L35.9893 22L36.9893 21L39.9893 18L42.9893 21L43.9893 22Z" fill="#F4F4F4" class="fill-white" />
  <path d="M58 43.9893L58 35.9893L59 36.9893L62 39.9893L59 42.9893L58 43.9893Z" fill="#F4F4F4" class="fill-white" />
  <path d="M43.9893 58L35.9893 58L36.9893 59L39.9893 62L42.9893 59L43.9893 58Z" fill="#F4F4F4" class="fill-white" />
  <path d="M22 43.9893L22 35.9893L21 36.9893L18 39.9893L21 42.9893L22 43.9893Z" fill="#F4F4F4" class="fill-white" />
</svg>