<svg viewBox="0 0 80 80" fill="none">
  <path d="M8 58H72" stroke="#7AC70C" stroke-width="3" stroke-linecap="round" stroke-linejoin="round" class="stroke-green" />
  <path d="M8 66H72" stroke="#7AC70C" stroke-width="3" stroke-linecap="round" stroke-linejoin="round" class="stroke-green" />
  <path opacity="0.5" d="M8 16C8 14.8954 8.89543 14 10 14H70C71.1046 14 72 14.8954 72 16V48C72 49.1046 71.1046 50 70 50H10C8.89543 50 8 49.1046 8 48V16Z" fill="#AEEE52" stroke="#AEEE52" stroke-width="3" stroke-linecap="round" stroke-linejoin="round" class="fill-green stroke-green" />
  <path fill-rule="evenodd" clip-rule="evenodd" d="M17.9451 14H10C8.89543 14 8 14.8954 8 16V23.9451C8.32833 23.9814 8.66199 24 9 24C13.9706 24 18 19.9706 18 15C18 14.662 17.9814 14.3283 17.9451 14ZM17.9451 50H10C8.89543 50 8 49.1046 8 48V40.0549C8.32833 40.0186 8.66199 40 9 40C13.9706 40 18 44.0294 18 49C18 49.338 17.9814 49.6717 17.9451 50ZM72 40.0549V48C72 49.1046 71.1046 50 70 50H62.0549C62.0186 49.6717 62 49.338 62 49C62 44.0294 66.0294 40 71 40C71.338 40 71.6717 40.0186 72 40.0549ZM62.0549 14H70C71.1046 14 72 14.8954 72 16V23.9451C71.6717 23.9814 71.338 24 71 24C66.0294 24 62 19.9706 62 15C62 14.662 62.0186 14.3283 62.0549 14Z" fill="#7AC70C" class="fill-green" />
  <path d="M17.9451 14L19.436 13.8352C19.352 13.0752 18.7097 12.5 17.9451 12.5V14ZM8 23.9451H6.5C6.5 24.7097 7.07517 25.352 7.83519 25.436L8 23.9451ZM17.9451 50V51.5C18.7097 51.5 19.352 50.9248 19.436 50.1648L17.9451 50ZM8 40.0549L7.83519 38.564C7.07517 38.648 6.5 39.2903 6.5 40.0549H8ZM72 40.0549H73.5C73.5 39.2903 72.9248 38.648 72.1648 38.564L72 40.0549ZM62.0549 50L60.564 50.1648C60.648 50.9248 61.2903 51.5 62.0549 51.5V50ZM62.0549 14V12.5C61.2903 12.5 60.648 13.0752 60.564 13.8352L62.0549 14ZM72 23.9451L72.1648 25.436C72.9248 25.352 73.5 24.7097 73.5 23.9451H72ZM10 15.5H17.9451V12.5H10V15.5ZM9.5 16C9.5 15.7239 9.72386 15.5 10 15.5V12.5C8.067 12.5 6.5 14.067 6.5 16H9.5ZM9.5 23.9451V16H6.5V23.9451H9.5ZM7.83519 25.436C8.21814 25.4783 8.60682 25.5 9 25.5V22.5C8.71716 22.5 8.43852 22.4844 8.16481 22.4542L7.83519 25.436ZM9 25.5C14.799 25.5 19.5 20.799 19.5 15H16.5C16.5 19.1421 13.1421 22.5 9 22.5V25.5ZM19.5 15C19.5 14.6068 19.4783 14.2181 19.436 13.8352L16.4542 14.1648C16.4844 14.4385 16.5 14.7172 16.5 15H19.5ZM17.9451 48.5H10V51.5H17.9451V48.5ZM10 48.5C9.72386 48.5 9.5 48.2761 9.5 48H6.5C6.5 49.933 8.067 51.5 10 51.5V48.5ZM9.5 48V40.0549H6.5V48H9.5ZM8.16481 41.5458C8.43853 41.5156 8.71717 41.5 9 41.5V38.5C8.60682 38.5 8.21814 38.5217 7.83519 38.564L8.16481 41.5458ZM9 41.5C13.1421 41.5 16.5 44.8579 16.5 49H19.5C19.5 43.201 14.799 38.5 9 38.5V41.5ZM16.5 49C16.5 49.2828 16.4844 49.5615 16.4542 49.8352L19.436 50.1648C19.4783 49.7819 19.5 49.3932 19.5 49H16.5ZM70.5 40.0549V48H73.5V40.0549H70.5ZM70.5 48C70.5 48.2761 70.2761 48.5 70 48.5V51.5C71.933 51.5 73.5 49.933 73.5 48H70.5ZM70 48.5H62.0549V51.5H70V48.5ZM63.5458 49.8352C63.5156 49.5615 63.5 49.2828 63.5 49H60.5C60.5 49.3932 60.5217 49.7818 60.564 50.1648L63.5458 49.8352ZM63.5 49C63.5 44.8579 66.8579 41.5 71 41.5V38.5C65.201 38.5 60.5 43.201 60.5 49H63.5ZM71 41.5C71.2828 41.5 71.5615 41.5156 71.8352 41.5458L72.1648 38.564C71.7819 38.5217 71.3932 38.5 71 38.5V41.5ZM62.0549 15.5H70V12.5H62.0549V15.5ZM70 15.5C70.2761 15.5 70.5 15.7239 70.5 16H73.5C73.5 14.067 71.933 12.5 70 12.5V15.5ZM70.5 16V23.9451H73.5V16H70.5ZM71.8352 22.4542C71.5615 22.4844 71.2828 22.5 71 22.5V25.5C71.3932 25.5 71.7819 25.4783 72.1648 25.436L71.8352 22.4542ZM71 22.5C66.8579 22.5 63.5 19.1421 63.5 15H60.5C60.5 20.799 65.201 25.5 71 25.5V22.5ZM63.5 15C63.5 14.7172 63.5156 14.4385 63.5458 14.1648L60.564 13.8352C60.5217 14.2181 60.5 14.6068 60.5 15H63.5Z" fill="#7AC70C" class="fill-green" />
  <path d="M35.4751 23.66C38.2776 21.5026 42.1814 21.5026 44.9839 23.66C46.9007 25.1355 48.0237 27.4173 48.0237 29.8362V34.1638C48.0237 36.5827 46.9007 38.8645 44.9839 40.34C42.1814 42.4974 38.2776 42.4974 35.4751 40.34C33.5583 38.8645 32.4353 36.5827 32.4353 34.1638V29.8362C32.4353 27.4173 33.5583 25.1355 35.4751 23.66Z" fill="#7AC70C" class="fill-green" />
  <path d="M19.4152 29.22C20.3494 28.5009 21.6506 28.5009 22.5848 29.22C23.2237 29.7118 23.5981 30.4724 23.5981 31.2787V32.7213C23.5981 33.5276 23.2237 34.2882 22.5848 34.78C21.6506 35.4991 20.3494 35.4991 19.4152 34.78C18.7763 34.2882 18.4019 33.5276 18.4019 32.7213V31.2787C18.4019 30.4724 18.7763 29.7118 19.4152 29.22Z" fill="#7AC70C" class="fill-green" />
  <path d="M57.4152 29.22C58.3494 28.5009 59.6506 28.5009 60.5848 29.22C61.2237 29.7118 61.5981 30.4724 61.5981 31.2787V32.7213C61.5981 33.5276 61.2237 34.2882 60.5848 34.78C59.6506 35.4991 58.3494 35.4991 57.4152 34.78C56.7763 34.2882 56.4019 33.5276 56.4019 32.7213V31.2787C56.4019 30.4724 56.7763 29.7118 57.4152 29.22Z" fill="#7AC70C" class="fill-green" />
</svg>