<svg viewBox="0 0 80 80" fill="none">
  <rect x="13.7812" y="27" width="52" height="48" rx="4" fill="#FFC200" stroke="#FFC200" stroke-width="3" stroke-linecap="round" class="fill-yellow stroke-yellow" />
  <path fill-rule="evenodd" clip-rule="evenodd" d="M27.067 45.8569C24.7 45.8569 22.7812 47.7757 22.7812 50.1426V56.5712C22.7812 57.7547 23.7406 58.7141 24.9241 58.7141H26.5994V66.9998C26.5994 68.1044 27.4949 68.9998 28.5994 68.9998H30.9631C32.0676 68.9998 32.9631 68.1044 32.9631 66.9998V58.7141H34.6384C35.8219 58.7141 36.7812 57.7547 36.7812 56.5712V50.1426C36.7812 47.7757 34.8625 45.8569 32.4955 45.8569H27.067Z" fill="#D33131" class="fill-red" />
  <path d="M27.7788 42.3115C29.0429 42.9265 30.5196 42.9265 31.7838 42.3115C33.0339 41.7033 33.9398 40.56 34.2462 39.204L34.2585 39.1496C34.5659 37.789 34.2328 36.3501 33.3684 35.2551C32.504 34.1602 31.1763 33.5092 29.7813 33.5092C28.3863 33.5092 27.0585 34.1602 26.1942 35.2551C25.3298 36.3501 24.9966 37.789 25.3041 39.1497L25.3163 39.204C25.6227 40.56 26.5287 41.7033 27.7788 42.3115Z" fill="#D33131" class="fill-red" />
  <path fill-rule="evenodd" clip-rule="evenodd" d="M53.4074 47.3029C52.628 46.3856 51.485 45.8569 50.2813 45.8569C49.0776 45.8569 47.9346 46.3856 47.1552 47.3029L47.0603 47.4146C46.6814 47.8604 46.3949 48.377 46.2173 48.9345L42.7916 59.6854C42.7421 59.8409 42.8582 59.9998 43.0215 59.9998H47.2087V66.9998C47.2087 68.1044 48.1041 68.9998 49.2087 68.9998H51.5335C52.6381 68.9998 53.5335 68.1044 53.5335 66.9998V59.9998H57.5411C57.7044 59.9998 57.8205 59.8409 57.7709 59.6854L54.3453 48.9345C54.1677 48.377 53.8811 47.8604 53.5023 47.4146L53.4074 47.3029Z" fill="#D33131" class="fill-red" />
  <path d="M48.3734 42.3078C49.6337 42.9247 51.1085 42.9247 52.3688 42.3078C53.6068 41.7019 54.5028 40.5668 54.8048 39.222L54.8243 39.1352C55.1279 37.7829 54.8078 36.3658 53.9523 35.2754L53.9217 35.2364C53.0662 34.1461 51.7571 33.5092 50.3711 33.5092C48.9851 33.5092 47.676 34.1461 46.8205 35.2364L46.7899 35.2754C45.9344 36.3658 45.6143 37.7829 45.9179 39.1352L45.9374 39.222C46.2394 40.5668 47.1354 41.7019 48.3734 42.3078Z" fill="#D33131" class="fill-red" />
  <path d="M32.7812 8.99997C32.7812 7.8954 31.8858 6.99997 30.7812 6.99997C29.6767 6.99997 28.7812 7.8954 28.7812 8.99997L32.7812 8.99997ZM28.7812 12.4442C28.7812 13.5488 29.6767 14.4442 30.7812 14.4442C31.8858 14.4442 32.7812 13.5488 32.7812 12.4442H28.7812ZM32.7812 12.4443C32.7812 11.3397 31.8858 10.4443 30.7812 10.4443C29.6767 10.4443 28.7812 11.3397 28.7812 12.4443H32.7812ZM28.7812 21.4165C28.7812 22.521 29.6767 23.4165 30.7812 23.4165C31.8858 23.4165 32.7812 22.521 32.7812 21.4165H28.7812ZM28.7812 8.99997V12.4442H32.7812V8.99997L28.7812 8.99997ZM28.7812 12.4443L28.7812 21.4165H32.7812V12.4443H28.7812Z" fill="#FFC200" class="fill-yellow" />
  <path d="M36.1146 12.4447L33.076 8.83632C31.8773 7.41287 29.6852 7.41287 28.4865 8.83632L25.4479 12.4447" stroke="#FF9100" stroke-width="4" stroke-linecap="round" stroke-linejoin="round" class="stroke-orange" />
  <path d="M52.7812 18C52.7812 19.1046 51.8858 20 50.7812 20C49.6767 20 48.7812 19.1046 48.7812 18H52.7812ZM48.7812 14.5558C48.7812 13.4512 49.6767 12.5558 50.7812 12.5558C51.8858 12.5558 52.7812 13.4512 52.7812 14.5558H48.7812ZM52.7812 14.5557C52.7812 15.6603 51.8858 16.5557 50.7812 16.5557C49.6767 16.5557 48.7812 15.6603 48.7812 14.5557H52.7812ZM48.7812 5.58353C48.7812 4.47896 49.6767 3.58353 50.7812 3.58353C51.8858 3.58353 52.7812 4.47896 52.7812 5.58353L48.7812 5.58353ZM48.7812 18V14.5558H52.7812V18H48.7812ZM48.7812 14.5557V5.58353L52.7812 5.58353V14.5557H48.7812Z" fill="#FFC200" class="fill-yellow" />
  <path d="M56.1146 14.5553L53.076 18.1637C51.8773 19.5871 49.6852 19.5871 48.4865 18.1637L45.4479 14.5553" stroke="#FF9100" stroke-width="4" stroke-linecap="round" stroke-linejoin="round" class="stroke-orange" />
</svg>