<svg viewBox="0 0 80 80" fill="none">
  <path fill-rule="evenodd" clip-rule="evenodd" d="M12 36.3418V40.1796L12 54.1796L12 68.1796C12 70.3887 13.7909 72.1796 16 72.1796H64C66.2091 72.1796 68 70.3887 68 68.1796V54.1796V40.1796V36.3418C68 37.5095 67.4897 38.6189 66.6032 39.3788L45.2063 57.719C42.2104 60.2869 37.7896 60.2869 34.7937 57.719L13.3968 39.3788C12.5103 38.6189 12 37.5095 12 36.3418Z" fill="#84D3FF" class="fill-blue" />
  <path fill-rule="evenodd" clip-rule="evenodd" d="M12 33.985C12 33.9936 12.0069 34.0005 12.0155 34.0005C12.0069 34.0005 12 34.0074 12 34.016L12 36.1607C12 37.3284 12.5103 38.4378 13.3968 39.1978L19 44.0005L19 24.0005L13.3968 28.8032C12.5103 29.5631 12 30.6725 12 31.8402V33.985ZM28.3333 16.0005L51.6666 16.0005L45.2063 10.4631C42.2104 7.89513 37.7896 7.89513 34.7937 10.4631L28.3333 16.0005ZM61 24.0005L61 44.0005L66.6032 39.1978C67.4897 38.4378 68 37.3284 68 36.1607V34.016C68 34.0074 67.9931 34.0005 67.9845 34.0005C67.9931 34.0005 68 33.9936 68 33.985V31.8402C68 30.6725 67.4897 29.5631 66.6032 28.8032L61 24.0005Z" fill="#1CB0F6" class="fill-blue" />
  <path fill-rule="evenodd" clip-rule="evenodd" d="M61.002 44.1816L61.002 21C61.002 18.2386 58.7634 16 56.002 16L24.002 16C21.2405 16 19.002 18.2386 19.002 21L19.002 44.1816L34.7956 57.7191C37.7915 60.287 42.2124 60.287 45.2083 57.7191L61.002 44.1816Z" fill="#F4F4F4" class="fill-white" />
  <path d="M28.002 26.5005C27.1735 26.5005 26.502 27.1721 26.502 28.0005C26.502 28.8289 27.1735 29.5005 28.002 29.5005V26.5005ZM44.002 29.5005C44.8304 29.5005 45.502 28.8289 45.502 28.0005C45.502 27.1721 44.8304 26.5005 44.002 26.5005V29.5005ZM28.002 34.5005C27.1735 34.5005 26.502 35.1721 26.502 36.0005C26.502 36.8289 27.1735 37.5005 28.002 37.5005V34.5005ZM52.002 37.5005C52.8304 37.5005 53.502 36.8289 53.502 36.0005C53.502 35.1721 52.8304 34.5005 52.002 34.5005V37.5005ZM28.002 42.5005C27.1735 42.5005 26.502 43.1721 26.502 44.0005C26.502 44.8289 27.1735 45.5005 28.002 45.5005V42.5005ZM44.002 45.5005C44.8304 45.5005 45.502 44.8289 45.502 44.0005C45.502 43.1721 44.8304 42.5005 44.002 42.5005V45.5005ZM28.002 29.5005L44.002 29.5005V26.5005L28.002 26.5005V29.5005ZM28.002 37.5005H52.002V34.5005H28.002V37.5005ZM28.002 45.5005H44.002V42.5005H28.002V45.5005Z" fill="#606060" class="fill-grey" />
</svg>