<svg viewBox="0 0 80 80" fill="none">
  <path fill-rule="evenodd" clip-rule="evenodd" d="M71.03 39.7359C69.8996 42.1541 68.4795 44.4545 66.782 46.5831C60.2858 54.7291 50.4337 59.4736 40.0146 59.4736C29.5955 59.4736 19.7434 54.7291 13.2472 46.5831C11.5501 44.455 10.1302 42.1553 9 39.7377C10.1304 37.3195 11.5505 35.0191 13.248 32.8905C19.7442 24.7445 29.5963 20 40.0154 20C50.4345 20 60.2866 24.7445 66.7828 32.8905C68.4799 35.0186 69.8997 37.3183 71.03 39.7359Z" fill="#F4F4F4" class="fill-white" />
  <path d="M71.03 39.7359L72.8418 40.5828L73.2377 39.7358L72.8418 38.8889L71.03 39.7359ZM66.782 46.5831L65.2183 45.3361L66.782 46.5831ZM13.2472 46.5831L14.8108 45.3361L14.8108 45.3361L13.2472 46.5831ZM9 39.7377L7.18817 38.8908L6.79226 39.7378L7.18822 40.5847L9 39.7377ZM13.248 32.8905L14.8117 34.1375L13.248 32.8905ZM66.7828 32.8905L65.2192 34.1375V34.1375L66.7828 32.8905ZM69.2182 38.889C68.1539 41.1658 66.8168 43.3317 65.2183 45.3361L68.3457 47.8301C70.1422 45.5773 71.6453 43.1425 72.8418 40.5828L69.2182 38.889ZM65.2183 45.3361C59.1016 53.0063 49.825 57.4736 40.0146 57.4736V61.4736C51.0423 61.4736 61.47 56.4519 68.3457 47.8301L65.2183 45.3361ZM40.0146 57.4736C30.2041 57.4736 20.9275 53.0063 14.8108 45.3361L11.6835 47.8301C18.5592 56.452 28.9868 61.4736 40.0146 61.4736V57.4736ZM14.8108 45.3361C13.2127 43.3322 11.8759 41.1669 10.8118 38.8907L7.18822 40.5847C8.38456 43.1437 9.88739 45.5779 11.6835 47.8301L14.8108 45.3361ZM11.6843 31.6435C9.88778 33.8963 8.38466 36.3311 7.18817 38.8908L10.8118 40.5846C11.8761 38.3078 13.2132 36.1419 14.8117 34.1375L11.6843 31.6435ZM40.0154 18C28.9877 18 18.56 23.0217 11.6843 31.6435L14.8117 34.1375C20.9284 26.4674 30.205 22 40.0154 22V18ZM68.3465 31.6435C61.4708 23.0217 51.0432 18 40.0154 18V22C49.8259 22 59.1025 26.4674 65.2192 34.1375L68.3465 31.6435ZM72.8418 38.8889C71.6454 36.3299 70.1426 33.8958 68.3465 31.6435L65.2192 34.1375C66.8173 36.1415 68.1541 38.3068 69.2182 40.5829L72.8418 38.8889Z" fill="#D2D2D2" class="fill-undefined" />
  <path fill-rule="evenodd" clip-rule="evenodd" d="M55.8116 36.6086C54.7134 41.4203 51.4839 45.4699 47.0373 47.6113C42.5907 49.7527 37.4109 49.7527 32.9643 47.6113C28.5177 45.4699 25.2882 41.4203 24.19 36.6086C23.0917 31.797 24.2443 26.7471 27.3215 22.8885C27.5029 22.661 27.6899 22.4391 27.8821 22.2229C31.7136 20.7703 35.8197 20 40.0178 20C44.1972 20 48.2853 20.7634 52.1022 22.2035C52.3005 22.4258 52.4932 22.6542 52.6801 22.8885C55.7572 26.7471 56.9098 31.797 55.8116 36.6086Z" fill="#7AC70C" class="fill-green" />
  <path d="M55.8116 36.6086L54.3492 36.2748L54.3492 36.2749L55.8116 36.6086ZM32.9643 47.6113L33.6151 46.2599L32.9643 47.6113ZM24.19 36.6086L25.6523 36.2748H25.6523L24.19 36.6086ZM27.3215 22.8885L28.4942 23.8237V23.8237L27.3215 22.8885ZM27.8821 22.2229L27.3503 20.8204L27.0059 20.9509L26.7611 21.2262L27.8821 22.2229ZM52.1022 22.2035L53.2216 21.205L52.9764 20.9301L52.6317 20.8001L52.1022 22.2035ZM52.6801 22.8885L53.8528 21.9533V21.9533L52.6801 22.8885ZM47.6881 48.9628C52.546 46.6233 56.0742 42.1991 57.274 36.9424L54.3492 36.2749C53.3526 40.6414 50.4218 44.3166 46.3864 46.2599L47.6881 48.9628ZM32.3135 48.9628C37.1714 51.3022 42.8302 51.3022 47.6881 48.9628L46.3864 46.2599C42.3511 48.2032 37.6505 48.2032 33.6151 46.2599L32.3135 48.9628ZM22.7276 36.9424C23.9274 42.1991 27.4556 46.6233 32.3135 48.9628L33.6151 46.2599C29.5798 44.3166 26.649 40.6414 25.6523 36.2748L22.7276 36.9424ZM26.1487 21.9533C22.787 26.1688 21.5278 31.6857 22.7276 36.9424L25.6523 36.2748C24.6557 31.9083 25.7017 27.3255 28.4942 23.8237L26.1487 21.9533ZM26.7611 21.2262C26.5511 21.4624 26.3469 21.7048 26.1487 21.9533L28.4942 23.8237C28.6589 23.6172 28.8286 23.4158 29.003 23.2196L26.7611 21.2262ZM28.4138 23.6255C32.0775 22.2365 36.0035 21.5 40.0178 21.5V18.5C35.6359 18.5 31.3498 19.304 27.3503 20.8204L28.4138 23.6255ZM40.0178 21.5C44.0142 21.5 47.923 22.2299 51.5727 23.607L52.6317 20.8001C48.6476 19.2969 44.3802 18.5 40.0178 18.5V21.5ZM53.8528 21.9533C53.6487 21.6973 53.4382 21.4479 53.2216 21.205L50.9828 23.202C51.1628 23.4038 51.3377 23.611 51.5073 23.8237L53.8528 21.9533ZM57.274 36.9424C58.4738 31.6857 57.2146 26.1688 53.8528 21.9533L51.5073 23.8237C54.2999 27.3255 55.3459 31.9083 54.3492 36.2748L57.274 36.9424Z" fill="#7AC70C" class="fill-green" />
  <path d="M33.4817 29.2363C34.0339 28.2797 33.7062 27.0565 32.7496 26.5043C31.793 25.952 30.5698 26.2798 30.0175 27.2364L33.4817 29.2363ZM34.2345 42.9782C35.191 43.5307 36.4143 43.2031 36.9667 42.2466C37.5191 41.29 37.1915 40.0668 36.235 39.5144L34.2345 42.9782ZM32.4736 32.9985C32.4736 31.6543 32.832 30.3617 33.4817 29.2363L30.0175 27.2364C29.0229 28.9591 28.4736 30.9399 28.4736 32.9985H32.4736ZM36.235 39.5144C33.9074 38.1702 32.4736 35.6864 32.4736 32.9985H28.4736C28.4736 37.1153 30.6696 40.9194 34.2345 42.9782L36.235 39.5144Z" fill="#F4F4F4" class="fill-white" />
</svg>