<svg viewBox="0 0 80 80" fill="none">
  <path fill-rule="evenodd" clip-rule="evenodd" d="M14.4771 14C14.4771 12.8954 15.3725 12 16.4771 12H38.4771C39.5816 12 40.4771 12.8954 40.4771 14C40.4771 15.1046 41.3725 16 42.4771 16H63.523C64.9379 16 65.9054 17.4291 65.3799 18.7428L58.7742 35.2572C58.5834 35.734 58.5834 36.266 58.7742 36.7428L65.3799 53.2572C65.9054 54.5709 64.9379 56 63.523 56H42.4771C41.3725 56 40.4771 55.1046 40.4771 54C40.4771 52.8954 39.5816 52 38.4771 52H16.4771C15.3725 52 14.4771 51.1046 14.4771 50V14Z" fill="#84D3FF" class="fill-blue" />
  <path d="M14.4771 11L14.4771 67" stroke="#7B61FF" stroke-width="4" stroke-linecap="round" stroke-linejoin="round" class="stroke-purple" />
</svg>