<svg viewBox="0 0 80 80" fill="none">
  <path fill-rule="evenodd" clip-rule="evenodd" d="M68 34L40 16L12 34L12 64H22L22 40L58 40V64H68V34ZM43.8471 30.25C44.3886 28.5833 43.7954 26.7575 42.3776 25.7275C40.9599 24.6974 39.0401 24.6974 37.6224 25.7275C36.2046 26.7575 35.6114 28.5833 36.1529 30.25C36.6944 31.9167 38.2476 33.0451 40 33.0451C41.7524 33.0451 43.3056 31.9167 43.8471 30.25Z" fill="#FF9100" class="fill-orange" />
  <path d="M71 64L9 64" stroke="#FF9100" stroke-width="3" stroke-linecap="round" stroke-linejoin="round" class="stroke-orange" />
  <rect x="22" y="40" width="36" height="6" fill="#FFC200" stroke="#D33131" stroke-width="3" stroke-linecap="round" stroke-linejoin="round" class="fill-yellow stroke-red" />
  <rect x="22" y="46" width="36" height="6" fill="#FFC200" stroke="#D33131" stroke-width="3" stroke-linecap="round" stroke-linejoin="round" class="fill-yellow stroke-red" />
  <rect x="22" y="52" width="36" height="6" fill="#FFC200" stroke="#D33131" stroke-width="3" stroke-linecap="round" stroke-linejoin="round" class="fill-yellow stroke-red" />
  <rect x="22" y="58" width="36" height="6" fill="#FFC200" stroke="#D33131" stroke-width="3" stroke-linecap="round" stroke-linejoin="round" class="fill-yellow stroke-red" />
  <path d="M72.1787 36.6863L40 16L7.82123 36.6863" stroke="#D33131" stroke-width="3" stroke-linecap="round" stroke-linejoin="round" class="stroke-red" />
</svg>