<svg viewBox="0 0 80 80" fill="none">
  <path d="M29.3934 14.3934C36.1847 11.5804 43.8153 11.5804 50.6066 14.3934C57.3979 17.2064 62.7936 22.6021 65.6066 29.3934C68.4196 36.1847 68.4196 43.8153 65.6066 50.6066C62.7936 57.3979 57.3979 62.7936 50.6066 65.6066C43.8153 68.4196 36.1847 68.4196 29.3934 65.6066C22.6021 62.7936 17.2064 57.3979 14.3934 50.6066C11.5804 43.8153 11.5804 36.1847 14.3934 29.3934C17.2064 22.6021 22.6021 17.2064 29.3934 14.3934Z" fill="#1CB0F6" class="fill-blue" />
  <path fill-rule="evenodd" clip-rule="evenodd" d="M27.7312 44.4653C26.8493 45.3201 25.6336 45.7398 24.4121 45.6111L22.8124 45.4426C21.8859 45.345 21.1412 44.6361 20.998 43.7156C20.8426 42.7173 21.4364 41.7543 22.3981 41.4447L23.98 40.9354C25.0391 40.5945 25.9083 39.8278 26.3788 38.8195L28.4924 34.2905L32.3012 30.826C33.4151 29.8128 34.8579 29.2367 36.3633 29.204L39.6947 29.1316C40.9736 29.1039 42.0274 28.1194 42.1421 26.8453C42.1921 26.2901 42.4254 25.7672 42.8053 25.3591L45.1298 22.8616C45.6016 22.3547 45.6282 21.5777 45.1922 21.0397C44.695 20.4261 43.787 20.3496 43.1942 20.8714L40.5579 23.1917C39.4059 24.2056 37.5912 23.6882 37.1471 22.2192C36.9206 21.4699 37.1279 20.6567 37.6856 20.1073L40.4547 17.3795C42.0741 15.7842 44.2966 14.9532 46.5654 15.094C48.4367 15.2101 50.2086 15.9799 51.5702 17.2687L52.0388 17.7123C53.5325 19.1262 55.5133 19.9104 57.5701 19.9023L59.0951 19.8962C61.881 22.5429 64.1133 25.7654 65.6123 29.3842C68.4253 36.1755 68.4253 43.8061 65.6123 50.5974C65.5552 50.7353 65.497 50.8725 65.4378 51.0092C65.0094 50.8984 64.5302 51.0718 64.2885 51.4905C64.0557 51.8938 64.123 52.4032 64.4527 52.732L64.5628 52.8419C63.137 55.5667 61.2756 58.0195 59.0678 60.1113L56.0198 56.925C55.5789 56.4641 54.8706 56.3864 54.3404 56.7409C53.6579 57.1971 53.5563 58.1604 54.1286 58.7489L57.1018 61.8065C55.1378 63.3457 52.9583 64.6256 50.6123 65.5974C43.821 68.4105 36.1903 68.4105 29.3991 65.5974C26.3495 64.3343 23.5814 62.5504 21.2022 60.3532L21.7286 55.4268C21.832 54.4589 22.2051 53.5395 22.8055 52.7733L25.9841 48.7164C26.4242 48.1547 27.2727 48.1494 27.7197 48.7056C27.9382 48.9775 28.272 49.1306 28.6206 49.1188L34.2451 48.9292C35.0811 48.901 35.8001 49.5165 35.901 50.347C35.9749 50.955 36.3868 51.4688 36.9642 51.6732L42.8236 53.7476C43.4095 53.955 44.0595 53.708 44.3599 53.1638C44.5909 52.7453 45.0372 52.4919 45.515 52.508L49.1046 52.6291C50.258 52.668 51.3766 52.2309 52.1982 51.4203C53.7885 49.8512 53.8732 47.312 52.3911 45.6403L49.8527 42.7773L54.5705 42.2905C55.4076 42.2042 56.2508 42.38 56.9835 42.7937L57.9935 43.3639C58.9289 43.892 60.0984 43.7553 60.8867 43.0257C61.7939 42.186 61.9411 40.8052 61.2313 39.7932L60.5337 38.7987C59.7519 37.6841 58.4409 37.0634 57.0832 37.1653L55.8381 37.2586C53.6509 37.4226 51.7232 38.756 50.7982 40.7447L49.8527 42.7773L47.4578 42.9201C46.5239 42.9757 45.6427 43.3718 44.9811 44.0333C44.3486 44.6657 43.5145 45.0564 42.6238 45.1376L41.1013 45.2763L38.2003 45.5406L34.4187 41.1729L34.3627 41.1719C32.3298 41.1359 30.3663 41.9111 28.9063 43.3262L27.7312 44.4653ZM27.0712 28.9107L28.4924 34.2905L20.6863 34.0516C18.2389 33.9767 16.3436 31.8835 16.5113 29.4407C16.5952 28.2187 17.1942 27.0899 18.1591 26.3354L18.5365 26.0403C21.5868 23.6551 26.0822 25.167 27.0712 28.9107Z" fill="#AEEE52" class="fill-green" />
</svg>