<svg viewBox="0 0 80 80" fill="none">
  <path fill-rule="evenodd" clip-rule="evenodd" d="M20.6716 37.5573C20.4249 38.3274 20.2917 39.1482 20.2917 40.0001V49.4417C20.2917 53.2551 22.9834 56.5385 26.7228 57.2863L38.7228 59.6863C39.7585 59.8935 40.825 59.8935 41.8607 59.6863L53.8607 57.2863C57.6001 56.5385 60.2917 53.2551 60.2917 49.4417V40.0001C60.2917 39.0833 60.1375 38.2025 59.8536 37.3823L40.3162 43.8947C40.111 43.9631 39.889 43.9631 39.6838 43.8947L20.6716 37.5573Z" fill="black" class="fill-grey" />
  <path d="M20.6716 37.5573L21.1459 36.1343C20.7656 36.0075 20.3504 36.0383 19.9929 36.2196C19.6354 36.401 19.3653 36.718 19.2431 37.0998L20.6716 37.5573ZM26.7228 57.2863L26.4286 58.7572L26.7228 57.2863ZM38.7228 59.6863L39.017 58.2155L38.7228 59.6863ZM41.8607 59.6863L41.5665 58.2155L41.8607 59.6863ZM53.8607 57.2863L53.5665 55.8155L53.8607 57.2863ZM59.8536 37.3823L61.2711 36.8916C61.0023 36.1151 60.1588 35.6994 59.3793 35.9592L59.8536 37.3823ZM40.3162 43.8947L40.7906 45.3177L40.3162 43.8947ZM39.6838 43.8947L40.1581 42.4717L39.6838 43.8947ZM21.7917 40.0001C21.7917 39.3053 21.9002 38.6388 22.1001 38.0149L19.2431 37.0998C18.9496 38.0159 18.7917 38.991 18.7917 40.0001H21.7917ZM21.7917 49.4417V40.0001H18.7917V49.4417H21.7917ZM27.017 55.8155C23.9787 55.2078 21.7917 52.5401 21.7917 49.4417H18.7917C18.7917 53.9702 21.9881 57.8691 26.4286 58.7572L27.017 55.8155ZM39.017 58.2155L27.017 55.8155L26.4286 58.7572L38.4286 61.1572L39.017 58.2155ZM41.5665 58.2155C40.725 58.3838 39.8585 58.3838 39.017 58.2155L38.4286 61.1572C39.6585 61.4032 40.925 61.4032 42.1549 61.1572L41.5665 58.2155ZM53.5665 55.8155L41.5665 58.2155L42.1549 61.1572L54.1549 58.7572L53.5665 55.8155ZM58.7917 49.4417C58.7917 52.5401 56.6048 55.2078 53.5665 55.8155L54.1549 58.7572C58.5954 57.8691 61.7917 53.9702 61.7917 49.4417H58.7917ZM58.7917 40.0001V49.4417H61.7917V40.0001H58.7917ZM58.4361 37.8729C58.6661 38.5375 58.7917 39.2525 58.7917 40.0001H61.7917C61.7917 38.9141 61.6089 37.8676 61.2711 36.8916L58.4361 37.8729ZM59.3793 35.9592L39.8419 42.4717L40.7906 45.3177L60.3279 38.8053L59.3793 35.9592ZM39.8419 42.4717C39.9445 42.4375 40.0555 42.4375 40.1581 42.4717L39.2094 45.3177C39.7226 45.4888 40.2774 45.4888 40.7906 45.3177L39.8419 42.4717ZM40.1581 42.4717L21.1459 36.1343L20.1972 38.9803L39.2094 45.3177L40.1581 42.4717Z" fill="black" class="fill-grey" />
  <path d="M39.6838 20.1054C39.889 20.037 40.111 20.037 40.3162 20.1054L73.154 31.0513C74.0657 31.3552 74.0656 32.6448 73.154 32.9487L40.3162 43.8946C40.111 43.963 39.889 43.963 39.6838 43.8946L6.84604 32.9487C5.93435 32.6448 5.93435 31.3552 6.84605 31.0513L39.6838 20.1054Z" fill="black" stroke="#FFC200" stroke-width="3" stroke-linecap="round" stroke-linejoin="round" class="fill-grey stroke-yellow" />
  <path d="M39 31L16.077 37.5494C13.0718 38.408 11 41.1547 11 44.2801V50.5M10 62L11 50.5M11 50.5L12 62" stroke="#FFC200" stroke-width="3" stroke-linecap="round" class="stroke-yellow" />
</svg>