<svg viewBox="0 0 80 80" fill="none">
  <path d="M48 14C48 11.7909 46.2091 10 44 10H36C33.7909 10 32 11.7909 32 14V24C32 26.2091 33.7909 28 36 28L44 28C46.2091 28 48 26.2091 48 24V14Z" fill="#1CB0F6" class="fill-blue" />
  <path d="M24 10C26.2091 10 28 11.7909 28 14V24C28 26.2091 26.2091 28 24 28H14C11.7909 28 10 26.2091 10 24V14C10 11.7909 11.7909 10 14 10H24Z" fill="#1CB0F6" class="fill-blue" />
  <path d="M28 36C28 33.7909 26.2091 32 24 32H14C11.7909 32 10 33.7909 10 36V44C10 46.2091 11.7909 48 14 48H24C26.2091 48 28 46.2091 28 44V36Z" fill="#1CB0F6" class="fill-blue" />
  <path d="M28 56C28 53.7909 26.2091 52 24 52H14C11.7909 52 10 53.7909 10 56V66C10 68.2091 11.7909 70 14 70H24C26.2091 70 28 68.2091 28 66V56Z" fill="#1CB0F6" class="fill-blue" />
  <path d="M32 56C32 53.7909 33.7909 52 36 52L44 52C46.2091 52 48 53.7909 48 56V66C48 68.2091 46.2091 70 44 70H36C33.7909 70 32 68.2091 32 66V56Z" fill="#1CB0F6" class="fill-blue" />
  <path d="M48 44C48 46.2091 46.2091 48 44 48L36 48C33.7909 48 32 46.2091 32 44V36C32 33.7909 33.7909 32 36 32L44 32C46.2091 32 48 33.7909 48 36V44Z" fill="#1CB0F6" class="fill-blue" />
  <path d="M56 52C53.7909 52 52 53.7909 52 56V66C52 68.2091 53.7909 70 56 70H66C68.2091 70 70 68.2091 70 66V56C70 53.7909 68.2091 52 66 52H56Z" fill="#1CB0F6" class="fill-blue" />
  <path d="M70 44C70 46.2091 68.2091 48 66 48H56C53.7909 48 52 46.2091 52 44V36C52 33.7909 53.7909 32 56 32H66C68.2091 32 70 33.7909 70 36V44Z" fill="#1CB0F6" class="fill-blue" />
  <path d="M70 14V24C70 26.2091 68.2091 28 66 28H56C53.7909 28 52 26.2091 52 24V14C52 11.7909 53.7909 10 56 10H66C68.2091 10 70 11.7909 70 14Z" fill="#1CB0F6" class="fill-blue" />
  <path d="M48 14C48 11.7909 46.2091 10 44 10H36C33.7909 10 32 11.7909 32 14V24C32 26.2091 33.7909 28 36 28L44 28C46.2091 28 48 26.2091 48 24V14Z" fill="#84D3FF" class="fill-blue" />
  <path d="M28 36C28 33.7909 26.2091 32 24 32H14C11.7909 32 10 33.7909 10 36V44C10 46.2091 11.7909 48 14 48H24C26.2091 48 28 46.2091 28 44V36Z" fill="#84D3FF" class="fill-blue" />
  <path d="M32 56C32 53.7909 33.7909 52 36 52L44 52C46.2091 52 48 53.7909 48 56V66C48 68.2091 46.2091 70 44 70H36C33.7909 70 32 68.2091 32 66V56Z" fill="#84D3FF" class="fill-blue" />
  <path d="M70 44C70 46.2091 68.2091 48 66 48H56C53.7909 48 52 46.2091 52 44V36C52 33.7909 53.7909 32 56 32H66C68.2091 32 70 33.7909 70 36V44Z" fill="#84D3FF" class="fill-blue" />
</svg>