<svg viewBox="0 0 80 80" fill="none">
  <path fill-rule="evenodd" clip-rule="evenodd" d="M41.0414 13.125C43.3886 13.125 45.2914 15.0278 45.2914 17.375V39.541C45.2914 39.6564 45.385 39.75 45.5004 39.75C45.6611 39.75 45.7914 39.6197 45.7914 39.459V21.375C45.7914 19.0278 47.6942 17.125 50.0414 17.125C52.3886 17.125 54.2914 19.0278 54.2914 21.375L54.2914 39.541C54.2914 39.6564 54.385 39.75 54.5004 39.75C54.6611 39.75 54.7914 39.6197 54.7914 39.459L54.7914 29.375C54.7914 27.0278 56.6942 25.125 59.0414 25.125C61.3886 25.125 63.2914 27.0278 63.2914 29.375L63.2914 46.875C63.2914 47.0881 63.2754 47.301 63.2435 47.5117L60.7435 64.0117C60.4287 66.0893 58.6428 67.625 56.5414 67.625H34.0414C32.6397 67.625 31.3281 66.9338 30.5357 65.7775L16.8696 45.8361C15.5428 43.8999 16.0367 41.2547 17.9729 39.9278C19.9091 38.601 22.5543 39.0949 23.8812 41.0311L27.3748 46.129C27.5017 46.3141 27.7914 46.2243 27.7914 46L27.7914 21.375C27.7914 19.0278 29.6942 17.125 32.0414 17.125C34.3886 17.125 36.2914 19.0278 36.2914 21.375V39.541C36.2914 39.6564 36.385 39.75 36.5004 39.75C36.6611 39.75 36.7914 39.6197 36.7914 39.459V17.375C36.7914 15.0278 38.6942 13.125 41.0414 13.125Z" fill="#FFC200" class="fill-yellow" />
</svg>