<svg viewBox="0 0 80 80" fill="none">
  <path fill-rule="evenodd" clip-rule="evenodd" d="M16.8295 20.9491C14.204 23.5746 12.729 27.1356 12.729 30.8486C12.729 34.5617 14.204 38.1226 16.8295 40.7481L30.9103 54.8289C30.9306 54.8494 30.951 54.87 30.9715 54.8904L38.0426 61.9615C38.8236 62.7425 40.0899 62.7426 40.871 61.9615L40.8711 61.9613L47.9422 54.8903L62.0842 40.7483C64.7097 38.1228 66.1847 34.5618 66.1847 30.8488C66.1847 27.1358 64.7097 23.5748 62.0842 20.9493C59.4587 18.3238 55.8977 16.8488 52.1847 16.8488C48.4717 16.8488 44.9107 18.3238 42.2852 20.9493L39.4569 23.7776L36.6285 20.9491C34.003 18.3236 30.442 16.8486 26.729 16.8486C23.016 16.8486 19.455 18.3236 16.8295 20.9491Z" fill="#D33131" class="fill-red" />
  <path fill-rule="evenodd" clip-rule="evenodd" d="M47.0154 17.8379C46.9973 17.8975 46.9733 17.9565 46.943 18.0141L42.4412 26.5972C42.3596 26.7528 42.4434 26.944 42.6131 26.9895L43.7904 27.3049L45.2349 27.692L48.4321 28.5486C49.1308 28.7359 49.4058 29.5802 48.9512 30.1429L34.8351 47.6185C34.5919 47.9196 34.1198 47.6224 34.2862 47.2729L40.3337 34.5673C40.6023 34.003 40.2933 33.3333 39.6896 33.1716L39.0789 33.0079L37.7256 32.6453L33.015 31.3831C32.4342 31.2275 32.1211 30.5981 32.3474 30.0409L36.2052 20.5425C36.349 20.6747 36.4902 20.8101 36.6289 20.9488L39.4573 23.7772L42.2856 20.9489C43.647 19.5875 45.26 18.5354 47.0154 17.8379Z" fill="#FFC200" class="fill-yellow" />
</svg>