<svg viewBox="0 0 80 80" fill="none">
  <path fill-rule="evenodd" clip-rule="evenodd" d="M46.1865 39.9997L54.3497 33.4015C56.2287 31.8826 57.3207 29.5959 57.3207 27.1798V17L22.6797 17V27.1798C22.6797 29.5959 23.7717 31.8826 25.6507 33.4015L33.8147 40.0003L25.6515 46.5985C23.7724 48.1174 22.6805 50.4041 22.6805 52.8202V63L57.3215 63V52.8202C57.3215 50.4041 56.2295 48.1174 54.3504 46.5985L46.1865 39.9997Z" fill="#F4F4F4" class="fill-white" />
  <path fill-rule="evenodd" clip-rule="evenodd" d="M41.4996 39.6555C41.4996 39.0514 41.7726 38.4798 42.2424 38.1001L50.9073 31.0963C50.9263 31.0809 50.9453 31.0655 50.9641 31.05C52.1181 30.0996 51.2244 28.5195 49.7294 28.5195L30.2706 28.5195C28.7757 28.5195 27.8819 30.0996 29.036 31.05C29.0548 31.0655 29.0737 31.0809 29.0928 31.0963L37.7569 38.0994C38.2266 38.4791 38.4996 39.0508 38.4996 39.6548L38.4996 48.9999C38.4996 50.1045 37.6042 50.9999 36.4996 50.9999H28.398C27.6964 50.9999 27.0281 51.3605 26.7546 52.0066C26.3419 52.9815 26.1217 54.0403 26.1217 55.1252V57.6288C26.1217 58.7334 27.0171 59.6288 28.1217 59.6288H51.8784C52.9829 59.6288 53.8784 58.7334 53.8784 57.6288V55.1252C53.8784 54.0403 53.6582 52.9815 53.2455 52.0066C52.9719 51.3605 52.3037 50.9999 51.6021 50.9999H43.4996C42.3951 50.9999 41.4996 50.1045 41.4996 48.9999L41.4996 39.6555Z" fill="#FFC200" class="fill-yellow" />
  <path d="M61 19C62.1046 19 63 18.1046 63 17C63 15.8954 62.1046 15 61 15V19ZM19 15C17.8954 15 17 15.8954 17 17C17 18.1046 17.8954 19 19 19V15ZM61 65C62.1046 65 63 64.1046 63 63C63 61.8954 62.1046 61 61 61V65ZM19 61C17.8954 61 17 61.8954 17 63C17 64.1046 17.8954 65 19 65V61ZM61 15L19 15V19L61 19V15ZM61 61L19 61V65H61V61Z" fill="#1CB0F6" class="fill-blue" />
</svg>