<svg viewBox="0 0 80 80" fill="none">
  <path fill-rule="evenodd" clip-rule="evenodd" d="M60 33.625L40 17.625L20 33.625L20 61.625L60 61.625L60 33.625Z" fill="#FFC200" class="fill-yellow" />
  <path d="M40 17.625L40.937 16.4537C40.3892 16.0154 39.6108 16.0154 39.063 16.4537L40 17.625ZM60 33.625H61.5C61.5 33.1693 61.2929 32.7384 60.937 32.4537L60 33.625ZM20 33.625L19.063 32.4537C18.7071 32.7384 18.5 33.1693 18.5 33.625H20ZM20 61.625H18.5C18.5 62.4534 19.1716 63.125 20 63.125V61.625ZM60 61.625V63.125C60.3978 63.125 60.7794 62.967 61.0607 62.6857C61.342 62.4044 61.5 62.0228 61.5 61.625H60ZM39.063 18.7963L59.063 34.7963L60.937 32.4537L40.937 16.4537L39.063 18.7963ZM20.937 34.7963L40.937 18.7963L39.063 16.4537L19.063 32.4537L20.937 34.7963ZM21.5 61.625L21.5 33.625H18.5L18.5 61.625H21.5ZM60 60.125L20 60.125V63.125L60 63.125V60.125ZM58.5 33.625L58.5 61.625H61.5L61.5 33.625H58.5Z" fill="#FFC200" class="fill-yellow" />
  <path d="M67.5 39.625L64.5 37.225L40 17.625L15.5 37.225L12.5 39.625" stroke="#D33131" stroke-width="4" stroke-linecap="round" stroke-linejoin="round" class="stroke-red" />
  <path fill-rule="evenodd" clip-rule="evenodd" d="M55 29.625V19.625C55 19.0727 54.5523 18.625 54 18.625H50C49.4477 18.625 49 19.0727 49 19.625V24.825L55 29.625Z" fill="#D33131" class="fill-red" />
  <path d="M55 29.625L54.063 30.7963C54.5132 31.1565 55.1301 31.2267 55.6498 30.977C56.1695 30.7272 56.5 30.2016 56.5 29.625H55ZM49 24.825H47.5C47.5 25.2807 47.7071 25.7116 48.063 25.9963L49 24.825ZM53.5 19.625V29.625H56.5V19.625H53.5ZM54 20.125C53.7239 20.125 53.5 19.9011 53.5 19.625H56.5C56.5 18.2443 55.3807 17.125 54 17.125V20.125ZM50 20.125H54V17.125H50V20.125ZM50.5 19.625C50.5 19.9011 50.2761 20.125 50 20.125V17.125C48.6193 17.125 47.5 18.2443 47.5 19.625H50.5ZM50.5 24.825V19.625H47.5V24.825H50.5ZM48.063 25.9963L54.063 30.7963L55.937 28.4537L49.937 23.6537L48.063 25.9963Z" fill="#D33131" class="fill-red" />
  <path fill-rule="evenodd" clip-rule="evenodd" d="M34.0759 61.625H43.0343L40.62 52.3379H40.9542H42.1424H43.6003H48.3264L37.7419 31.6998L38.2308 33.9929L40.9323 46.6624L39.1447 46.6624L37.7788 46.6624L31.9205 46.6624L34.0759 61.625Z" fill="#F4F4F4" class="fill-white" />
  <path d="M43.0343 61.625L44.486 61.2476C44.6028 61.697 44.5049 62.1752 44.2209 62.5426C43.9368 62.9099 43.4986 63.125 43.0343 63.125V61.625ZM34.0759 61.625V63.125C33.3301 63.125 32.6976 62.5771 32.5912 61.8389L34.0759 61.625ZM40.62 52.3379L39.1683 52.7152C39.0514 52.2658 39.1494 51.7876 39.4334 51.4203C39.7175 51.0529 40.1557 50.8379 40.62 50.8379V52.3379ZM48.3264 52.3379L49.6611 51.6533C49.8996 52.1183 49.8788 52.674 49.6064 53.1199C49.3339 53.5659 48.849 53.8379 48.3264 53.8379V52.3379ZM37.7419 31.6998L36.2748 32.0126C36.118 31.2769 36.5302 30.5389 37.2388 30.2866C37.9474 30.0344 38.7333 30.346 39.0766 31.0152L37.7419 31.6998ZM38.2308 33.9929L39.6978 33.6801L38.2308 33.9929ZM40.9323 46.6624L42.3993 46.3496C42.4937 46.7923 42.3831 47.2541 42.0983 47.606C41.8135 47.9579 41.385 48.1624 40.9323 48.1624L40.9323 46.6624ZM39.1447 46.6624L39.1447 45.1624H39.1447L39.1447 46.6624ZM37.7788 46.6624L37.7788 48.1624H37.7788L37.7788 46.6624ZM31.9205 46.6624L30.4359 46.8762C30.3738 46.4455 30.5019 46.0091 30.7868 45.6802C31.0717 45.3513 31.4854 45.1624 31.9205 45.1624L31.9205 46.6624ZM43.0343 63.125H34.0759V60.125H43.0343V63.125ZM42.0718 51.9605L44.486 61.2476L41.5825 62.0024L39.1683 52.7152L42.0718 51.9605ZM40.62 50.8379H40.9542V53.8379H40.62V50.8379ZM40.9542 50.8379H42.1424V53.8379H40.9542V50.8379ZM42.1424 50.8379H43.6003V53.8379H42.1424V50.8379ZM48.3264 53.8379H43.6003V50.8379H48.3264V53.8379ZM39.0766 31.0152L49.6611 51.6533L46.9917 53.0224L36.4072 32.3843L39.0766 31.0152ZM36.7638 34.3057L36.2748 32.0126L39.2089 31.387L39.6978 33.6801L36.7638 34.3057ZM39.4652 46.9752L36.7638 34.3057L39.6978 33.6801L42.3993 46.3496L39.4652 46.9752ZM40.9323 48.1624L39.1447 48.1624L39.1447 45.1624L40.9323 45.1624L40.9323 48.1624ZM39.1447 48.1624L37.7788 48.1624L37.7788 45.1624L39.1447 45.1624L39.1447 48.1624ZM31.9205 45.1624L37.7788 45.1624L37.7788 48.1624L31.9205 48.1624L31.9205 45.1624ZM32.5912 61.8389L30.4359 46.8762L33.4052 46.4485L35.5606 61.4111L32.5912 61.8389Z" fill="#F4F4F4" class="fill-white" />
</svg>