<svg viewBox="0 0 80 80" fill="none">
  <path fill-rule="evenodd" clip-rule="evenodd" d="M59.7248 35.6184C67.0753 35.6184 73.034 29.6597 73.034 22.3092C73.034 14.9587 67.0753 9 59.7248 9C52.3744 9 46.4156 14.9587 46.4156 22.3092C46.4156 25.667 47.6591 28.7343 49.7107 31.0759L47.4394 35.6184L59.7248 35.6184Z" fill="#84D3FF" class="fill-blue" />
  <path fill-rule="evenodd" clip-rule="evenodd" d="M63.1 44.7959C60.7824 43.8359 58.1784 43.8359 55.8608 44.7959C53.5432 45.7559 51.7018 47.5972 50.7418 49.9148C49.7819 52.2324 49.7819 54.8365 50.7418 57.1541C51.3858 58.7087 52.4263 60.049 53.7411 61.0528C54.6799 61.7694 55.3857 62.812 55.3857 63.993V66.8442C55.3857 68.5404 56.7608 69.9155 58.4571 69.9155H60.5047C62.2009 69.9155 63.576 68.5404 63.576 66.8442V63.9923C63.576 62.8114 64.2818 61.7689 65.2203 61.0523C66.5348 60.0486 67.5751 58.7084 68.2189 57.1541C69.1789 54.8365 69.1789 52.2324 68.2189 49.9148C67.2589 47.5972 65.4176 45.7559 63.1 44.7959Z" fill="#FFC200" class="fill-yellow" />
  <path fill-rule="evenodd" clip-rule="evenodd" d="M63.6089 63.5522H55.3529C55.3745 63.6968 55.3858 63.8439 55.3858 63.9933V66.8444C55.3858 68.5407 56.7609 69.9157 58.4572 69.9157H60.5047C62.201 69.9157 63.5761 68.5407 63.5761 66.8444V63.9926C63.5761 63.8435 63.5873 63.6966 63.6089 63.5522Z" fill="#606060" class="fill-grey" />
  <path fill-rule="evenodd" clip-rule="evenodd" d="M20.642 31.0115C20.3593 31.0115 20.1301 31.2407 20.1301 31.5234V34.5099C20.1301 35.0537 19.9858 35.5878 19.7117 36.0575L19.2225 36.8963C19.0234 37.2375 19.2696 37.6661 19.6646 37.6661H20.6413C20.6416 37.6661 20.6418 37.6661 20.642 37.6661H23.7134C23.7136 37.6661 23.7138 37.6661 23.7141 37.6661H25.0487C25.4438 37.6661 25.6899 37.2375 25.4908 36.8963L24.6437 35.4439C24.3696 34.9742 24.2253 34.4402 24.2253 33.8964V31.5234C24.2253 31.2407 23.9961 31.0115 23.7134 31.0115H20.642Z" fill="#FF9100" class="fill-orange" />
  <path fill-rule="evenodd" clip-rule="evenodd" d="M34.5807 31.0114L34.5806 31.0114L34.762 30.9143C37.4809 29.4596 38.5239 26.0885 37.1017 23.3524C36.3071 21.8239 34.9084 20.8113 33.3485 20.4574L33.529 20.0527C34.7896 17.2261 33.5326 13.912 30.7147 12.6323C29.6537 12.1505 28.5212 12.0251 27.4521 12.2059C26.5458 10.3092 24.6095 9 22.3688 9C20.1281 9 18.1918 10.3092 17.2854 12.2059C16.2164 12.0251 15.0839 12.1505 14.0229 12.6323C11.2049 13.912 9.94798 17.2261 11.2086 20.0527L11.3891 20.4574C9.82921 20.8113 8.43044 21.8239 7.63591 23.3524C6.21364 26.0885 7.25669 29.4596 9.97563 30.9143L10.157 31.0114L10.1569 31.0114H34.5807Z" fill="#7AC70C" class="fill-green" />
  <path fill-rule="evenodd" clip-rule="evenodd" d="M10.6347 48.4669C9.29068 49.8109 8.53564 51.6337 8.53564 53.5344C8.53564 55.4351 9.29068 57.2579 10.6347 58.6019L17.8359 65.8031C17.8484 65.8158 17.8611 65.8286 17.8738 65.8413L21.4934 69.4609C21.8932 69.8607 22.5414 69.8607 22.9413 69.4609L22.9414 69.4608L26.561 65.8411L33.8001 58.602C35.1441 57.258 35.8991 55.4352 35.8991 53.5345C35.8991 51.6339 35.1441 49.811 33.8001 48.4671C32.4561 47.1231 30.6333 46.368 28.7327 46.368C26.832 46.368 25.0092 47.1231 23.6652 48.4671L22.2175 49.9148L20.7696 48.4669C19.4256 47.123 17.6028 46.3679 15.7021 46.3679C13.8015 46.3679 11.9786 47.123 10.6347 48.4669Z" fill="#D33131" class="fill-red" />
</svg>