<svg viewBox="0 0 80 80" fill="none">
  <circle cx="40" cy="40" r="28" fill="#84D3FF" class="fill-blue" />
  <path d="M38.1494 55.5253C38.1494 56.6299 39.0448 57.5253 40.1494 57.5253C41.254 57.5253 42.1494 56.6299 42.1494 55.5253H38.1494ZM42.1494 33.1253C42.1494 32.0207 41.254 31.1253 40.1494 31.1253C39.0448 31.1253 38.1494 32.0207 38.1494 33.1253H42.1494ZM42 25.9253C42 24.8207 41.1046 23.9253 40 23.9253C38.8954 23.9253 38 24.8207 38 25.9253H42ZM38 27.5253C38 28.6299 38.8954 29.5253 40 29.5253C41.1046 29.5253 42 28.6299 42 27.5253H38ZM31.1494 31.1253C30.0448 31.1253 29.1494 32.0207 29.1494 33.1253C29.1494 34.2299 30.0448 35.1253 31.1494 35.1253V31.1253ZM40.1494 35.1253C41.254 35.1253 42.1494 34.2299 42.1494 33.1253C42.1494 32.0207 41.254 31.1253 40.1494 31.1253V35.1253ZM31 53.5253C29.8954 53.5253 29 54.4207 29 55.5253C29 56.6299 29.8954 57.5253 31 57.5253V53.5253ZM49 57.5253C50.1046 57.5253 51 56.6299 51 55.5253C51 54.4207 50.1046 53.5253 49 53.5253V57.5253ZM42.1494 55.5253V33.1253H38.1494V55.5253H42.1494ZM38 25.9253V27.5253H42V25.9253H38ZM31.1494 35.1253H40.1494V31.1253H31.1494V35.1253ZM31 57.5253H49V53.5253H31V57.5253Z" fill="#FFC200" class="fill-yellow" />
</svg>