<svg viewBox="0 0 80 80" fill="none">
  <path fill-rule="evenodd" clip-rule="evenodd" d="M29.7831 44.5255L29.7589 44.5602C27.582 47.6799 26.7725 51.5527 27.5175 55.2832L27.934 57.3688C28.6445 60.9265 30.889 63.9894 34.0674 65.7387C37.7614 67.7718 42.2391 67.7718 45.9331 65.7387C49.1115 63.9894 51.356 60.9265 52.0665 57.3688L52.483 55.2832C53.228 51.5528 52.4185 47.6799 50.2416 44.5602L50.2174 44.5255C50.1091 44.5199 49.9994 44.5037 49.8893 44.4762C43.3966 42.853 36.604 42.853 30.1112 44.4762C30.0011 44.5037 29.8914 44.5199 29.7831 44.5255Z" fill="#FFC200" class="fill-yellow" />
  <path fill-rule="evenodd" clip-rule="evenodd" d="M44.5002 14.5041C42.0149 12.0188 37.9855 12.0188 35.5002 14.5041C34.412 15.5923 33.8002 16.9767 33.665 18.3978C35.053 18.8234 36.3299 19.5838 37.3752 20.6291C38.6739 21.9278 39.5329 23.584 39.8563 25.3664C39.9556 25.3687 40.0549 25.3686 40.1542 25.3662C40.4776 23.5839 41.3366 21.9277 42.6352 20.6291C43.6781 19.5862 44.9515 18.8269 46.3357 18.4008C46.2011 16.9786 45.5892 15.5931 44.5002 14.5041Z" fill="#FFC200" class="fill-yellow" />
  <path d="M35.5002 14.5041L36.9144 15.9183L35.5002 14.5041ZM44.5002 14.5041L43.086 15.9183V15.9183L44.5002 14.5041ZM33.665 18.3978L31.674 18.2083C31.5841 19.1535 32.171 20.0316 33.0787 20.3099L33.665 18.3978ZM37.3752 20.6291L38.7894 19.2149L38.7894 19.2149L37.3752 20.6291ZM39.8563 25.3664L37.8884 25.7235C38.058 26.6582 38.8617 27.3446 39.8113 27.3659L39.8563 25.3664ZM40.1542 25.3662L40.2023 27.3656C41.1507 27.3428 41.9527 26.6568 42.1221 25.7233L40.1542 25.3662ZM46.3357 18.4008L46.9242 20.3122C47.8304 20.0332 48.4162 19.1562 48.3268 18.2123L46.3357 18.4008ZM36.9144 15.9183C38.6187 14.2141 41.3818 14.2141 43.086 15.9183L45.9144 13.0899C42.6481 9.82355 37.3523 9.82355 34.086 13.0899L36.9144 15.9183ZM35.656 18.5872C35.7488 17.6119 36.1669 16.6658 36.9144 15.9183L34.086 13.0899C32.657 14.5189 31.8517 16.3415 31.674 18.2083L35.656 18.5872ZM38.7894 19.2149C37.5108 17.9363 35.9488 17.0061 34.2514 16.4857L33.0787 20.3099C34.1571 20.6406 35.149 21.2313 35.961 22.0433L38.7894 19.2149ZM41.8242 25.0094C41.4286 22.8293 40.378 20.8035 38.7894 19.2149L35.961 22.0433C36.9698 23.0521 37.6372 24.3388 37.8884 25.7235L41.8242 25.0094ZM40.1061 23.3668C40.0378 23.3684 39.9695 23.3685 39.9013 23.3669L39.8113 27.3659C39.9416 27.3689 40.072 27.3688 40.2023 27.3656L40.1061 23.3668ZM42.1221 25.7233C42.3733 24.3386 43.0407 23.0521 44.0494 22.0433L41.221 19.2149C39.6325 20.8034 38.5819 22.8291 38.1863 25.0091L42.1221 25.7233ZM44.0494 22.0433C44.8596 21.2332 45.8487 20.6433 46.9242 20.3122L45.7472 16.4893C44.0543 17.0105 42.4966 17.9393 41.221 19.2149L44.0494 22.0433ZM43.086 15.9183C43.834 16.6663 44.2522 17.6132 44.3446 18.5893L48.3268 18.2123C48.1499 16.344 47.3444 14.5199 45.9144 13.0899L43.086 15.9183Z" fill="#FFC200" class="fill-yellow" />
  <path fill-rule="evenodd" clip-rule="evenodd" d="M29.3339 38.6711C29.3498 38.6667 29.3657 38.6625 29.3817 38.6585C32.8675 37.787 36.4338 37.3513 40 37.3513V26.9662C40 24.5893 39.0558 22.3097 37.375 20.6289C35.6942 18.9481 33.4146 18.0039 31.0377 18.0039H30.9623C28.5854 18.0039 26.3058 18.9481 24.625 20.6289C22.9442 22.3097 22 24.5893 22 26.9662V28.17C22 30.7653 23.1203 33.2342 25.0735 34.9432L29.3339 38.6711ZM50.6736 38.6732L54.9365 34.9432C56.8897 33.2342 58.01 30.7653 58.01 28.17V26.9662C58.01 24.5893 57.0658 22.3097 55.385 20.6289C53.7042 18.9481 51.4246 18.0039 49.0477 18.0039H48.9723C46.5954 18.0039 44.3158 18.9481 42.635 20.6289C40.9542 22.3097 40.01 24.5893 40.01 26.9662V37.3513C43.5729 37.3521 47.1357 37.7878 50.6183 38.6585C50.6368 38.6631 50.6553 38.668 50.6736 38.6732Z" fill="#F4F4F4" class="fill-white" />
  <path d="M29.3339 38.6711L28.0169 40.1763C28.5244 40.6203 29.2215 40.7787 29.871 40.5976L29.3339 38.6711ZM29.3817 38.6585L29.8668 40.5988L29.8668 40.5988L29.3817 38.6585ZM40 37.3513V39.3513C41.1046 39.3513 42 38.4559 42 37.3513H40ZM37.375 20.6289L38.7892 19.2147V19.2147L37.375 20.6289ZM24.625 20.6289L23.2108 19.2147L23.2108 19.2147L24.625 20.6289ZM25.0735 34.9432L26.3905 33.438L25.0735 34.9432ZM50.6736 38.6732L50.1283 40.5975C50.78 40.7821 51.4809 40.6244 51.9906 40.1784L50.6736 38.6732ZM54.9365 34.9432L56.2536 36.4483L54.9365 34.9432ZM55.385 20.6289L56.7992 19.2147V19.2147L55.385 20.6289ZM42.635 20.6289L41.2208 19.2147V19.2147L42.635 20.6289ZM40.01 37.3513H38.01C38.01 38.4557 38.9051 39.3511 40.0095 39.3513L40.01 37.3513ZM29.871 40.5976C29.8695 40.5981 29.8681 40.5984 29.8668 40.5988L28.8967 36.7182C28.8634 36.7265 28.8301 36.7353 28.7969 36.7446L29.871 40.5976ZM29.8668 40.5988C33.1934 39.7671 36.5967 39.3513 40 39.3513V35.3513C36.2709 35.3513 32.5417 35.8069 28.8967 36.7182L29.8668 40.5988ZM42 37.3513V26.9662H38V37.3513H42ZM42 26.9662C42 24.0588 40.845 21.2705 38.7892 19.2147L35.9608 22.0431C37.2665 23.3488 38 25.1197 38 26.9662H42ZM38.7892 19.2147C36.7334 17.1589 33.9451 16.0039 31.0377 16.0039V20.0039C32.8842 20.0039 34.6551 20.7374 35.9608 22.0431L38.7892 19.2147ZM31.0377 16.0039H30.9623V20.0039H31.0377V16.0039ZM30.9623 16.0039C28.0549 16.0039 25.2666 17.1589 23.2108 19.2147L26.0392 22.0431C27.3449 20.7374 29.1158 20.0039 30.9623 20.0039V16.0039ZM23.2108 19.2147C21.155 21.2705 20 24.0588 20 26.9662H24C24 25.1197 24.7335 23.3488 26.0392 22.0431L23.2108 19.2147ZM20 26.9662V28.17H24V26.9662H20ZM20 28.17C20 31.342 21.3693 34.3596 23.7564 36.4483L26.3905 33.438C24.8714 32.1088 24 30.1885 24 28.17H20ZM23.7564 36.4483L28.0169 40.1763L30.651 37.166L26.3905 33.438L23.7564 36.4483ZM51.9906 40.1784L56.2536 36.4483L53.6195 33.438L49.3566 37.1681L51.9906 40.1784ZM56.2536 36.4483C58.6407 34.3596 60.01 31.342 60.01 28.17H56.01C56.01 30.1885 55.1386 32.1088 53.6195 33.438L56.2536 36.4483ZM60.01 28.17V26.9662H56.01V28.17H60.01ZM60.01 26.9662C60.01 24.0588 58.855 21.2705 56.7992 19.2147L53.9708 22.0431C55.2765 23.3488 56.01 25.1197 56.01 26.9662H60.01ZM56.7992 19.2147C54.7434 17.1589 51.9551 16.0039 49.0477 16.0039V20.0039C50.8942 20.0039 52.6651 20.7374 53.9708 22.0431L56.7992 19.2147ZM49.0477 16.0039H48.9723V20.0039H49.0477V16.0039ZM48.9723 16.0039C46.0649 16.0039 43.2766 17.1589 41.2208 19.2147L44.0492 22.0431C45.3549 20.7374 47.1258 20.0039 48.9723 20.0039V16.0039ZM41.2208 19.2147C39.165 21.2705 38.01 24.0588 38.01 26.9662H42.01C42.01 25.1197 42.7435 23.3488 44.0492 22.0431L41.2208 19.2147ZM38.01 26.9662V37.3513H42.01V26.9662H38.01ZM40.0095 39.3513C43.4097 39.3521 46.8098 39.7679 50.1332 40.5988L51.1033 36.7182C47.4617 35.8078 43.7361 35.3522 40.0105 35.3513L40.0095 39.3513ZM50.1332 40.5988C50.1317 40.5984 50.1301 40.598 50.1283 40.5975L51.2189 36.749C51.1805 36.7381 51.142 36.7278 51.1033 36.7182L50.1332 40.5988Z" fill="#D33131" class="fill-red" />
  <path d="M28 40.4282C28 39.5911 28.5697 38.8615 29.3817 38.6585C36.3533 36.9156 43.6467 36.9156 50.6183 38.6585C51.4303 38.8615 52 39.5911 52 40.4282V42.828C52 43.9332 50.9613 44.7442 49.8891 44.4762C43.3963 42.853 36.6037 42.853 30.1109 44.4762C29.0387 44.7442 28 43.9332 28 42.828V40.4282Z" fill="#7B61FF" stroke="#7B61FF" stroke-width="4" stroke-linecap="round" stroke-linejoin="round" class="fill-purple stroke-purple" />
</svg>