<svg viewBox="0 0 80 80" fill="none">
  <path fill-rule="evenodd" clip-rule="evenodd" d="M33.2273 32.428L34.8948 35.5683C35.0391 35.8401 35.1188 36.1415 35.1275 36.4491L35.9449 65.058C35.9759 66.1399 36.8618 67.0008 37.9441 67.0008H42.0568C43.1391 67.0008 44.0251 66.1399 44.056 65.058L44.8737 36.4389C44.8825 36.1305 44.9625 35.8283 45.1075 35.556L46.7725 32.4289C44.8707 33.9569 42.4867 34.8125 40.0005 34.8125C37.5137 34.8125 35.1293 33.9566 33.2273 32.428Z" fill="#D33131" class="fill-red" />
  <path d="M33.2273 32.428L34.167 31.2588C33.612 30.8128 32.82 30.8184 32.2714 31.2721C31.7227 31.7258 31.5686 32.5027 31.9025 33.1315L33.2273 32.428ZM34.8948 35.5683L36.2196 34.8648L36.2196 34.8648L34.8948 35.5683ZM35.1275 36.4491L36.6269 36.4063V36.4063L35.1275 36.4491ZM35.9449 65.058L34.4456 65.1008L35.9449 65.058ZM44.056 65.058L42.5566 65.0151L44.056 65.058ZM44.8737 36.4389L43.3743 36.396V36.396L44.8737 36.4389ZM45.1075 35.556L46.4315 36.261L46.4315 36.261L45.1075 35.556ZM46.7725 32.4289L48.0965 33.1339C48.4313 32.5052 48.2778 31.7278 47.7292 31.2736C47.1806 30.8193 46.3882 30.8135 45.833 31.2596L46.7725 32.4289ZM31.9025 33.1315L33.57 36.2717L36.2196 34.8648L34.5521 31.7246L31.9025 33.1315ZM33.57 36.2717C33.606 36.3397 33.626 36.4151 33.6282 36.492L36.6269 36.4063C36.6116 35.868 36.4722 35.3404 36.2196 34.8648L33.57 36.2717ZM33.6282 36.492L34.4456 65.1008L37.4443 65.0151L36.6269 36.4063L33.6282 36.492ZM34.4456 65.1008C34.4996 66.9941 36.0501 68.5008 37.9441 68.5008V65.5008C37.6735 65.5008 37.4521 65.2856 37.4443 65.0151L34.4456 65.1008ZM37.9441 68.5008H42.0568V65.5008H37.9441V68.5008ZM42.0568 68.5008C43.9508 68.5008 45.5013 66.9941 45.5554 65.1008L42.5566 65.0151C42.5488 65.2856 42.3274 65.5008 42.0568 65.5008V68.5008ZM45.5554 65.1008L46.373 36.4817L43.3743 36.396L42.5566 65.0151L45.5554 65.1008ZM46.373 36.4817C46.3752 36.4046 46.3953 36.3291 46.4315 36.261L43.7835 34.851C43.5297 35.3276 43.3897 35.8564 43.3743 36.396L46.373 36.4817ZM46.4315 36.261L48.0965 33.1339L45.4485 31.7239L43.7835 34.851L46.4315 36.261ZM45.833 31.2596C44.195 32.5757 42.1417 33.3125 40.0005 33.3125V36.3125C42.8318 36.3125 45.5465 35.3382 47.712 33.5982L45.833 31.2596ZM40.0005 33.3125C37.8588 33.3125 35.8052 32.5754 34.167 31.2588L32.2876 33.5972C34.4533 35.3378 37.1686 36.3125 40.0005 36.3125V33.3125Z" fill="#D33131" class="fill-red" />
  <path d="M35.309 14.2591C38.2734 12.8315 41.7266 12.8315 44.691 14.2591C47.6554 15.6866 49.8084 18.3864 50.5406 21.5942C51.2727 24.8019 50.5043 28.1685 48.4529 30.7409C46.4014 33.3134 43.2902 34.8116 40 34.8116C36.7098 34.8116 33.5986 33.3134 31.5471 30.7409C29.4957 28.1685 28.7273 24.8019 29.4594 21.5942C30.1916 18.3864 32.3446 15.6866 35.309 14.2591Z" fill="#252525" stroke="#252525" stroke-width="3" stroke-linecap="square" stroke-linejoin="round" class="fill-grey stroke-grey" />
  <path d="M27.546 24C26.4414 24 25.546 24.8954 25.546 26C25.546 27.1046 26.4414 28 27.546 28V24ZM52.454 28C53.5586 28 54.454 27.1046 54.454 26C54.454 24.8954 53.5586 24 52.454 24V28ZM27.546 28L52.454 28V24L27.546 24V28Z" fill="#D33131" class="fill-red" />
</svg>