<svg viewBox="0 0 80 80" fill="none">
  <rect x="12" y="24" width="56" height="40" rx="3" fill="#F4F4F4" class="fill-white" />
  <path fill-rule="evenodd" clip-rule="evenodd" d="M66.7029 23.9999L39.4182 23.9999L41.9885 17.285C42.2848 16.511 43.0277 15.9999 43.8564 15.9999L62.2647 15.9999C63.0934 15.9999 63.8363 16.511 64.1326 17.285L66.7029 23.9999Z" fill="#FFC200" class="fill-yellow" />
  <path fill-rule="evenodd" clip-rule="evenodd" d="M22.9151 24H15.1195L15.6504 21.5727C15.8513 20.6545 16.6643 20 17.6042 20H20.4304C21.3703 20 22.1834 20.6545 22.3842 21.5727L22.9151 24Z" fill="#606060" class="fill-grey" />
  <path fill-rule="evenodd" clip-rule="evenodd" d="M28.5543 40H12L12 48H28.5543C28.1113 46.733 27.8756 45.3833 27.8756 44C27.8756 42.6167 28.1113 41.267 28.5543 40ZM51.4457 48H68V40H51.4457C51.8887 41.267 52.1244 42.6167 52.1244 44C52.1244 45.3833 51.8887 46.733 51.4457 48Z" fill="#FF9100" class="fill-orange" />
  <path d="M33.9378 33.5C37.6891 31.3342 42.3109 31.3342 46.0622 33.5C49.8135 35.6658 52.1244 39.6684 52.1244 44C52.1244 48.3316 49.8135 52.3342 46.0622 54.5C42.3109 56.6658 37.6891 56.6658 33.9378 54.5C30.1865 52.3342 27.8756 48.3316 27.8756 44C27.8756 39.6684 30.1865 35.6658 33.9378 33.5Z" fill="#84D3FF" class="fill-blue" />
  <path d="M36.5361 38.0002L35.7861 36.7011V36.7011L36.5361 38.0002ZM31.9842 46.6041C32.2402 47.392 33.0865 47.8231 33.8743 47.5671C34.6622 47.3111 35.0934 46.4649 34.8374 45.677L31.9842 46.6041ZM39.9995 38.572C40.828 38.5719 41.4994 37.9002 41.4993 37.0718C41.4992 36.2433 40.8276 35.5719 39.9992 35.572L39.9995 38.572ZM34.572 44.0002C34.572 42.0609 35.6066 40.2689 37.2861 39.2992L35.7861 36.7011C33.1784 38.2067 31.572 40.9891 31.572 44.0002H34.572ZM34.8374 45.677C34.6639 45.1433 34.572 44.5786 34.572 44.0002H31.572C31.572 44.8973 31.7147 45.7747 31.9842 46.6041L34.8374 45.677ZM39.9992 35.572C38.5447 35.5721 37.0896 35.9486 35.7861 36.7011L37.2861 39.2992C38.1257 38.8145 39.0623 38.5721 39.9995 38.572L39.9992 35.572Z" fill="#F4F4F4" class="fill-white" />
</svg>