<svg viewBox="0 0 80 80" fill="none">
  <path fill-rule="evenodd" clip-rule="evenodd" d="M38.9213 21.2355C38.3977 22.7028 37.875 24.1679 37.875 25.6928V26.0618H53.875V42.0617H54.2449C55.7696 42.0617 57.2346 41.5391 58.7017 41.0157L58.7018 41.0156C59.7266 40.65 60.7525 40.284 61.8007 40.0955C62.1516 40.0324 62.5107 39.9998 62.8745 39.9998C65.0403 39.9998 67.0416 41.1552 68.1245 43.0308C69.2074 44.9065 69.2074 47.2174 68.1245 49.093C67.0416 50.9687 65.0403 52.1241 62.8745 52.1241C62.5107 52.1241 62.1516 52.0915 61.8006 52.0284C60.7523 51.8398 59.7262 51.4737 58.7012 51.108L58.7012 51.108C57.2339 50.5844 55.7688 50.0617 54.2439 50.0617H53.875V66.0618H37.875V65.693C37.875 64.1681 38.3977 62.703 38.9213 61.2356C39.287 60.2106 39.6531 59.1846 39.8417 58.1362C39.9048 57.7853 39.9374 57.4261 39.9374 57.0623C39.9374 54.8965 38.782 52.8952 36.9063 51.8123C35.0307 50.7294 32.7198 50.7294 30.8442 51.8123C28.9685 52.8952 27.8131 54.8965 27.8131 57.0623C27.8131 57.4261 27.8457 57.7852 27.9088 58.1361C28.0974 59.1843 28.4634 60.2103 28.829 61.2351C29.3524 62.7023 29.875 64.1672 29.875 65.6919V66.0618H13.875V46.0618V26.0618H29.875V25.6918C29.875 24.167 29.3524 22.7021 28.829 21.2349C28.4634 20.2101 28.0974 19.1842 27.9088 18.136C27.8457 17.7851 27.8131 17.4259 27.8131 17.0622C27.8131 14.8964 28.9685 12.8951 30.8442 11.8122C32.7198 10.7293 35.0307 10.7293 36.9063 11.8122C38.782 12.8951 39.9374 14.8964 39.9374 17.0622C39.9374 17.426 39.9048 17.7851 39.8417 18.136C39.6531 19.1844 39.287 20.2105 38.9213 21.2355Z" fill="#7B61FF" class="fill-purple" />
  <path d="M38.9213 21.2355L40.805 21.9076V21.9076L38.9213 21.2355ZM37.875 26.0618H35.875C35.875 27.1664 36.7704 28.0618 37.875 28.0618V26.0618ZM53.875 26.0618H55.875C55.875 24.9573 54.9796 24.0618 53.875 24.0618V26.0618ZM53.875 42.0617H51.875C51.875 43.1662 52.7704 44.0617 53.875 44.0617V42.0617ZM58.7017 41.0157L58.0693 39.1183C58.056 39.1227 58.0429 39.1273 58.0297 39.1319L58.7017 41.0157ZM58.7018 41.0156L59.3342 42.913C59.3475 42.9086 59.3606 42.904 59.3738 42.8994L58.7018 41.0156ZM61.8007 40.0955L61.4466 38.1271H61.4466L61.8007 40.0955ZM68.1245 43.0308L69.8566 42.0308V42.0308L68.1245 43.0308ZM68.1245 49.093L69.8566 50.093V50.093L68.1245 49.093ZM61.8006 52.0284L62.1548 50.06L62.1548 50.06L61.8006 52.0284ZM58.7012 51.108L59.3733 49.2243C59.3602 49.2196 59.347 49.215 59.3337 49.2106L58.7012 51.108ZM58.7012 51.108L58.0291 52.9916C58.0423 52.9963 58.0555 53.0009 58.0688 53.0053L58.7012 51.108ZM53.875 50.0617V48.0617C52.7704 48.0617 51.875 48.9571 51.875 50.0617H53.875ZM53.875 66.0618V68.0618C54.9796 68.0618 55.875 67.1664 55.875 66.0618H53.875ZM37.875 66.0618H35.875C35.875 67.1664 36.7704 68.0618 37.875 68.0618V66.0618ZM38.9213 61.2356L37.0376 60.5635L38.9213 61.2356ZM39.8417 58.1362L41.8101 58.4903L39.8417 58.1362ZM36.9063 51.8123L37.9063 50.0803H37.9063L36.9063 51.8123ZM30.8442 51.8123L29.8442 50.0803H29.8442L30.8442 51.8123ZM27.9088 58.1361L29.8772 57.782L29.8772 57.782L27.9088 58.1361ZM28.829 61.2351L30.7127 60.5631V60.5631L28.829 61.2351ZM29.875 66.0618V68.0618C30.9796 68.0618 31.875 67.1664 31.875 66.0618H29.875ZM13.875 66.0618H11.875C11.875 67.1664 12.7704 68.0618 13.875 68.0618V66.0618ZM13.875 26.0618V24.0618C12.7704 24.0618 11.875 24.9573 11.875 26.0618H13.875ZM29.875 26.0618V28.0618C30.9796 28.0618 31.875 27.1664 31.875 26.0618H29.875ZM28.829 21.2349L30.7127 20.5629V20.5629L28.829 21.2349ZM27.9088 18.136L29.8772 17.7819V17.7819L27.9088 18.136ZM30.8442 11.8122L29.8442 10.0801V10.0801L30.8442 11.8122ZM36.9063 11.8122L35.9063 13.5442V13.5442L36.9063 11.8122ZM39.8417 18.136L37.8733 17.7819L37.8733 17.7819L39.8417 18.136ZM39.875 25.6928C39.875 24.5738 40.2587 23.4387 40.805 21.9076L37.0376 20.5634C36.5368 21.9669 35.875 23.762 35.875 25.6928H39.875ZM39.875 26.0618V25.6928H35.875V26.0618H39.875ZM37.875 28.0618H53.875V24.0618H37.875V28.0618ZM51.875 26.0618V42.0617H55.875V26.0618H51.875ZM53.875 44.0617H54.2449V40.0617H53.875V44.0617ZM54.2449 44.0617C56.1755 44.0617 57.9704 43.4 59.3738 42.8994L58.0297 39.1319C56.4987 39.6781 55.3638 40.0617 54.2449 40.0617V44.0617ZM59.3342 42.913L59.3342 42.913L58.0693 39.1183L58.0693 39.1183L59.3342 42.913ZM59.3738 42.8994C60.4276 42.5234 61.2971 42.2182 62.1548 42.0639L61.4466 38.1271C60.208 38.3499 59.0256 38.7767 58.0298 39.1319L59.3738 42.8994ZM62.1548 42.0639C62.3897 42.0216 62.6303 41.9998 62.8745 41.9998V37.9998C62.3912 37.9998 61.9135 38.0431 61.4466 38.1271L62.1548 42.0639ZM62.8745 41.9998C64.3258 41.9998 65.6668 42.774 66.3925 44.0308L69.8566 42.0308C68.4164 39.5364 65.7548 37.9998 62.8745 37.9998V41.9998ZM66.3925 44.0308C67.1181 45.2877 67.1181 46.8362 66.3925 48.093L69.8566 50.093C71.2967 47.5986 71.2967 44.5253 69.8566 42.0308L66.3925 44.0308ZM66.3925 48.093C65.6668 49.3499 64.3258 50.1241 62.8745 50.1241V54.1241C65.7548 54.1241 68.4164 52.5875 69.8566 50.093L66.3925 48.093ZM62.8745 50.1241C62.6303 50.1241 62.3897 50.1022 62.1548 50.06L61.4465 53.9968C61.9135 54.0808 62.3911 54.1241 62.8745 54.1241V50.1241ZM62.1548 50.06C61.2969 49.9056 60.4273 49.6003 59.3733 49.2243L58.0292 52.9917C59.0251 53.347 60.2077 53.7739 61.4465 53.9968L62.1548 50.06ZM59.3337 49.2106L59.3337 49.2106L58.0688 53.0053L58.0688 53.0053L59.3337 49.2106ZM59.3733 49.2243C57.9698 48.7235 56.1746 48.0617 54.2439 48.0617V52.0617C55.3629 52.0617 56.4979 52.4453 58.0291 52.9916L59.3733 49.2243ZM54.2439 48.0617H53.875V52.0617H54.2439V48.0617ZM51.875 50.0617V66.0618H55.875V50.0617H51.875ZM53.875 64.0618H37.875V68.0618H53.875V64.0618ZM39.875 66.0618V65.693H35.875V66.0618H39.875ZM39.875 65.693C39.875 64.5739 40.2586 63.4389 40.805 61.9077L37.0376 60.5635C36.5368 61.967 35.875 63.7622 35.875 65.693H39.875ZM40.805 61.9077C41.1603 60.9117 41.5872 59.7292 41.8101 58.4903L37.8733 57.7821C37.719 58.6399 37.4136 59.5096 37.0376 60.5635L40.805 61.9077ZM41.8101 58.4903C41.8941 58.0233 41.9374 57.5457 41.9374 57.0623H37.9374C37.9374 57.3065 37.9156 57.5472 37.8733 57.7821L41.8101 58.4903ZM41.9374 57.0623C41.9374 54.182 40.4008 51.5205 37.9063 50.0803L35.9063 53.5444C37.1632 54.27 37.9374 55.6111 37.9374 57.0623H41.9374ZM37.9063 50.0803C35.4119 48.6401 32.3386 48.6401 29.8442 50.0803L31.8442 53.5444C33.101 52.8187 34.6495 52.8187 35.9063 53.5444L37.9063 50.0803ZM29.8442 50.0803C27.3497 51.5205 25.8131 54.182 25.8131 57.0623H29.8131C29.8131 55.6111 30.5873 54.27 31.8442 53.5444L29.8442 50.0803ZM25.8131 57.0623C25.8131 57.5457 25.8564 58.0233 25.9404 58.4902L29.8772 57.782C29.8349 57.5471 29.8131 57.3065 29.8131 57.0623H25.8131ZM25.9404 58.4902C26.1632 59.7289 26.59 60.9113 26.9453 61.9071L30.7127 60.5631C30.3367 59.5093 30.0315 58.6398 29.8772 57.782L25.9404 58.4902ZM26.9453 61.9071C27.4914 63.4381 27.875 64.573 27.875 65.6919H31.875C31.875 63.7614 31.2133 61.9664 30.7127 60.5631L26.9453 61.9071ZM27.875 65.6919V66.0618H31.875V65.6919H27.875ZM29.875 64.0618H13.875V68.0618H29.875V64.0618ZM15.875 66.0618V46.0618H11.875V66.0618H15.875ZM15.875 46.0618V26.0618H11.875V46.0618H15.875ZM13.875 28.0618H29.875V24.0618H13.875V28.0618ZM27.875 25.6918V26.0618H31.875V25.6918H27.875ZM26.9453 21.907C27.4914 23.438 27.875 24.5728 27.875 25.6918H31.875C31.875 23.7612 31.2133 21.9663 30.7127 20.5629L26.9453 21.907ZM25.9404 18.4901C26.1632 19.7287 26.59 20.9111 26.9453 21.907L30.7127 20.5629C30.3367 19.5091 30.0315 18.6396 29.8772 17.7819L25.9404 18.4901ZM25.8131 17.0622C25.8131 17.5455 25.8564 18.0231 25.9404 18.4901L29.8772 17.7819C29.8349 17.547 29.8131 17.3064 29.8131 17.0622H25.8131ZM29.8442 10.0801C27.3497 11.5203 25.8131 14.1818 25.8131 17.0622H29.8131C29.8131 15.6109 30.5873 14.2699 31.8442 13.5442L29.8442 10.0801ZM37.9063 10.0801C35.4119 8.63996 32.3386 8.63996 29.8442 10.0801L31.8442 13.5442C33.101 12.8186 34.6495 12.8186 35.9063 13.5442L37.9063 10.0801ZM41.9374 17.0622C41.9374 14.1818 40.4008 11.5203 37.9063 10.0801L35.9063 13.5442C37.1632 14.2699 37.9374 15.6109 37.9374 17.0622H41.9374ZM41.8101 18.4902C41.8941 18.0232 41.9374 17.5456 41.9374 17.0622H37.9374C37.9374 17.3064 37.9156 17.547 37.8733 17.7819L41.8101 18.4902ZM40.805 21.9076C41.1603 20.9116 41.5872 19.729 41.8101 18.4902L37.8733 17.7819C37.719 18.6398 37.4136 19.5094 37.0376 20.5634L40.805 21.9076Z" fill="#84D3FF" class="fill-blue" />
</svg>