<svg viewBox="0 0 80 80" fill="none">
  <path d="M18.6999 41.0708C21.4173 39.7622 24.5827 39.7622 27.3001 41.0708C30.0174 42.3794 31.991 44.8542 32.6622 47.7947C33.3333 50.7351 32.6289 53.8211 30.7485 56.1792C28.868 58.5372 26.0161 59.9107 23 59.9107C19.9839 59.9107 17.132 58.5372 15.2515 56.1792C13.3711 53.8211 12.6667 50.7351 13.3378 47.7947C14.009 44.8542 15.9826 42.3794 18.6999 41.0708Z" fill="#252525" class="fill-grey" />
  <path d="M52.6999 41.0708C55.4173 39.7622 58.5827 39.7622 61.3001 41.0708C64.0174 42.3794 65.991 44.8542 66.6622 47.7947C67.3333 50.7351 66.6289 53.8211 64.7485 56.1792C62.868 58.5372 60.0161 59.9107 57 59.9107C53.9839 59.9107 51.132 58.5372 49.2515 56.1792C47.3711 53.8211 46.6667 50.7351 47.3378 47.7947C48.009 44.8542 49.9826 42.3794 52.6999 41.0708Z" fill="#252525" class="fill-grey" />
  <path fill-rule="evenodd" clip-rule="evenodd" d="M8 31H60C66.6274 31 72 36.3726 72 43V45C72 48.5195 69.7273 51.5082 66.5694 52.5785C66.9854 51.0344 67.027 49.393 66.6622 47.7947C65.991 44.8542 64.0174 42.3794 61.3001 41.0708C58.5827 39.7622 55.4173 39.7622 52.6999 41.0708C49.9826 42.3794 48.009 44.8542 47.3378 47.7947C46.9396 49.5393 47.0257 51.3353 47.5543 53H32.4457C32.9743 51.3353 33.0604 49.5394 32.6622 47.7947C31.991 44.8542 30.0174 42.3794 27.3001 41.0708C24.5827 39.7622 21.4173 39.7622 18.6999 41.0708C15.9826 42.3794 14.009 44.8542 13.3378 47.7947C13.1076 48.8032 13.0393 49.8288 13.1247 50.8364C10.0261 48.6665 8 45.0699 8 41V31Z" fill="#D33131" class="fill-red" />
  <path d="M48.4237 19H34.167V31H58.0003L51.8368 20.9142C51.1102 19.7252 49.8171 19 48.4237 19Z" fill="#84D3FF" class="fill-blue" />
  <path d="M34.1667 19L14 31H34.1667V19Z" fill="#84D3FF" class="fill-blue" />
  <path d="M36 36H42" stroke="#252525" stroke-width="4" stroke-linecap="round" stroke-linejoin="round" class="stroke-grey" />
</svg>