<svg viewBox="0 0 80 80" fill="none">
  <path d="M60.4438 37.4004C59.8915 36.4438 58.6683 36.1161 57.7117 36.6683C56.7551 37.2206 56.4274 38.4438 56.9797 39.4004L60.4438 37.4004ZM48.2946 58.4992C47.1901 58.4992 46.2946 59.3946 46.2946 60.4992C46.2946 61.6038 47.1901 62.4992 48.2946 62.4992V58.4992ZM43.8094 62.4992C44.9139 62.4992 45.8094 61.6038 45.8094 60.4992C45.8094 59.3946 44.9139 58.4992 43.8094 58.4992L43.8094 62.4992ZM42.4302 58.4992C41.3256 58.4992 40.4302 59.3946 40.4302 60.4992C40.4302 61.6038 41.3256 62.4992 42.4302 62.4992L42.4302 58.4992ZM66.2737 51.4982L64.5417 52.4982L66.2737 51.4982ZM61.077 60.4992V58.4992V60.4992ZM56.9797 39.4004L64.5417 52.4982L68.0058 50.4982L60.4438 37.4004L56.9797 39.4004ZM61.077 58.4992L48.2946 58.4992V62.4992L61.077 62.4992V58.4992ZM43.8094 58.4992H42.4302L42.4302 62.4992H43.8094L43.8094 58.4992ZM68.0058 58.4989C69.435 56.0235 69.435 52.9736 68.0058 50.4982L64.5417 52.4982C65.2563 53.736 65.2563 55.2611 64.5417 56.4989L68.0058 58.4989ZM64.5417 56.4989C63.827 57.7367 62.5063 58.4992 61.077 58.4992V62.4992C63.9354 62.4992 66.5766 60.9743 68.0058 58.4989L64.5417 56.4989Z" fill="#AEEE52" class="fill-green" />
  <path d="M48.3003 55.3284L48.3003 65.6716C48.3003 66.7153 47.0383 67.238 46.3003 66.5L41.7145 61.9142C40.9335 61.1332 40.9335 59.8668 41.7145 59.0858L46.3003 54.5C47.0383 53.7619 48.3003 54.2847 48.3003 55.3284Z" fill="#7AC70C" stroke="#7AC70C" stroke-width="3" stroke-linecap="round" stroke-linejoin="round" class="fill-green stroke-green" />
  <path d="M25.8039 27.598C25.2516 28.5546 25.5794 29.7778 26.536 30.3301C27.4926 30.8823 28.7157 30.5546 29.268 29.598L25.8039 27.598ZM50.1506 27.5701C50.7029 28.5266 51.9261 28.8544 52.8827 28.3021C53.8393 27.7498 54.167 26.5266 53.6147 25.5701L50.1506 27.5701ZM55.8574 29.4544C55.3051 28.4978 54.0819 28.1701 53.1253 28.7224C52.1687 29.2747 51.841 30.4978 52.3933 31.4544L55.8574 29.4544ZM53.0829 32.6488C53.6351 33.6054 54.8583 33.9332 55.8149 33.3809C56.7715 32.8286 57.0992 31.6054 56.547 30.6488L53.0829 32.6488ZM35.098 15.5002L36.8301 16.5002L35.098 15.5002ZM45.4915 15.5002L43.7594 16.5002L45.4915 15.5002ZM29.268 29.598L36.8301 16.5002L33.366 14.5002L25.8039 27.598L29.268 29.598ZM43.7594 16.5002L50.1506 27.5701L53.6147 25.5701L47.2235 14.5002L43.7594 16.5002ZM52.3933 31.4544L53.0829 32.6488L56.547 30.6488L55.8574 29.4544L52.3933 31.4544ZM40.2947 10.4999C37.4364 10.4999 34.7951 12.0248 33.366 14.5002L36.8301 16.5002C37.5447 15.2624 38.8654 14.4999 40.2947 14.4999L40.2947 10.4999ZM40.2947 14.4999C41.724 14.4999 43.0448 15.2624 43.7594 16.5002L47.2235 14.5002C45.7944 12.0248 43.1531 10.4999 40.2947 10.4999L40.2947 14.4999Z" fill="#AEEE52" class="fill-green" />
  <path d="M47.4022 29.1507L56.3596 23.9792C57.2635 23.4573 58.3472 24.2888 58.077 25.297L56.3985 31.5613C56.1126 32.6282 55.016 33.2614 53.949 32.9755L47.6847 31.297C46.6765 31.0269 46.4982 29.6726 47.4022 29.1507Z" fill="#7AC70C" stroke="#7AC70C" stroke-width="3" stroke-linecap="round" stroke-linejoin="round" class="fill-green stroke-green" />
  <path d="M34.6356 62.4957C35.7402 62.4957 36.6356 61.6003 36.6356 60.4957C36.6356 59.3912 35.7402 58.4957 34.6356 58.4957L34.6356 62.4957ZM22.438 41.4249C22.9903 40.4683 22.6626 39.2451 21.706 38.6928C20.7494 38.1405 19.5262 38.4683 18.9739 39.4249L22.438 41.4249ZM21.2166 35.5405C20.6643 36.4971 20.992 37.7203 21.9486 38.2726C22.9052 38.8248 24.1284 38.4971 24.6807 37.5405L21.2166 35.5405ZM25.3703 36.3461C25.9226 35.3895 25.5948 34.1663 24.6382 33.614C23.6816 33.0618 22.4585 33.3895 21.9062 34.3461L25.3703 36.3461ZM34.6356 58.4957L19.5115 58.4957L19.5115 62.4957L34.6356 62.4957L34.6356 58.4957ZM16.0469 52.4947L22.438 41.4249L18.9739 39.4249L12.5828 50.4947L16.0469 52.4947ZM24.6807 37.5405L25.3703 36.3461L21.9062 34.3461L21.2166 35.5405L24.6807 37.5405ZM12.5828 58.4954C14.0119 60.9708 16.6532 62.4957 19.5115 62.4957L19.5115 58.4957C18.0822 58.4957 16.7615 57.7332 16.0469 56.4954L12.5828 58.4954ZM16.0469 56.4954C15.3322 55.2576 15.3322 53.7325 16.0469 52.4947L12.5828 50.4947C11.1536 52.9701 11.1536 56.02 12.5828 58.4954L16.0469 56.4954Z" fill="#AEEE52" class="fill-green" />
  <path d="M25.1808 43.015L16.2234 37.8434C15.3195 37.3215 15.4978 35.9673 16.506 35.6971L22.7703 34.0186C23.8372 33.7327 24.9339 34.3659 25.2198 35.4328L26.8983 41.6971C27.1684 42.7053 26.0848 43.5368 25.1808 43.015Z" fill="#7AC70C" stroke="#7AC70C" stroke-width="3" stroke-linecap="round" stroke-linejoin="round" class="fill-green stroke-green" />
</svg>