<svg viewBox="0 0 80 80" fill="none">
  <path fill-rule="evenodd" clip-rule="evenodd" d="M52.8618 55.3415L65.3679 67.8477C66.149 68.6287 67.4153 68.6287 68.1964 67.8477C68.9774 67.0666 68.9774 65.8003 68.1964 65.0192L55.6614 52.4843C54.8083 53.5123 53.8718 54.468 52.8618 55.3415Z" fill="#FF9100" class="fill-orange" />
  <path d="M13.5776 30.724C15.8198 22.3559 22.356 15.8197 30.7241 13.5775C39.0921 11.3353 48.0207 13.7277 54.1465 19.8536C60.2723 25.9794 62.6647 34.908 60.4225 43.276C58.1803 51.6441 51.6441 58.1802 43.2761 60.4225C34.9081 62.6647 25.9795 60.2723 19.8537 54.1464C13.7278 48.0206 11.3354 39.092 13.5776 30.724Z" fill="#84D3FF" stroke="#1CB0F6" stroke-width="4" stroke-linecap="round" stroke-linejoin="round" class="fill-blue stroke-blue" />
  <path d="M18.5457 36.9963C18.5457 38.1008 19.4411 38.9963 20.5457 38.9963C21.6502 38.9963 22.5457 38.1008 22.5457 36.9963H18.5457ZM28.5457 22.8801L27.5457 21.1481L27.5457 21.1481L28.5457 22.8801ZM28.9972 22.6194L29.9972 24.3515V24.3515L28.9972 22.6194ZM36.9953 22.4758C38.0999 22.4757 38.9952 21.5801 38.9951 20.4756C38.9949 19.371 38.0994 18.4757 36.9948 18.4758L36.9953 22.4758ZM22.5457 36.9963V36.7365H18.5457V36.9963H22.5457ZM29.5457 24.6122L29.9972 24.3515L27.9972 20.8874L27.5457 21.1481L29.5457 24.6122ZM22.5457 36.7365C22.5457 31.7348 25.214 27.113 29.5457 24.6122L27.5457 21.1481C21.9764 24.3634 18.5457 30.3057 18.5457 36.7365H22.5457ZM36.9948 18.4758C33.8883 18.4762 30.781 19.2801 27.9972 20.8874L29.9972 24.3515C32.1625 23.1013 34.5784 22.4761 36.9953 22.4758L36.9948 18.4758Z" fill="#F4F4F4" class="fill-white" />
</svg>