<svg viewBox="0 0 80 80" fill="none">
  <path fill-rule="evenodd" clip-rule="evenodd" d="M40.0004 70.2389C38.2028 69.3957 36.4564 68.4316 34.7738 67.3503C27.506 62.6795 21.7339 56.0182 18.145 48.1596C14.5561 40.3011 13.3017 31.5766 14.5312 23.0253C14.7807 21.2904 15.1302 19.5775 15.5762 17.8946L40 10L64.4247 17.8949C64.8707 19.5777 65.2202 21.2905 65.4696 23.0253C66.6991 31.5766 65.4447 40.3011 61.8558 48.1596C58.267 56.0182 52.4949 62.6795 45.2271 67.3503C43.5444 68.4316 41.7981 69.3957 40.0004 70.2389Z" fill="#1CB0F6" class="fill-blue" />
  <path d="M40.0004 70.2389L39.3634 71.597C39.767 71.7862 40.2339 71.7862 40.6374 71.597L40.0004 70.2389ZM34.7738 67.3503L35.5848 66.0884L34.7738 67.3503ZM18.145 48.1596L19.5095 47.5365L18.145 48.1596ZM14.5312 23.0253L13.0465 22.8118L14.5312 23.0253ZM15.5762 17.8946L15.1149 16.4673C14.6294 16.6242 14.2569 17.0171 14.1262 17.5103L15.5762 17.8946ZM40 10L40.4613 8.57271C40.1614 8.47576 39.8386 8.47576 39.5386 8.57271L40 10ZM64.4247 17.8949L65.8747 17.5106C65.744 17.0174 65.3716 16.6245 64.8861 16.4676L64.4247 17.8949ZM65.4696 23.0253L66.9544 22.8118V22.8118L65.4696 23.0253ZM61.8558 48.1596L60.4914 47.5365L61.8558 48.1596ZM45.2271 67.3503L44.4161 66.0884H44.4161L45.2271 67.3503ZM40.6374 68.8809C38.8996 68.0658 37.2114 67.1338 35.5848 66.0884L33.9628 68.6121C35.7015 69.7295 37.506 70.7257 39.3634 71.597L40.6374 68.8809ZM35.5848 66.0884C28.5589 61.5731 22.9789 55.1335 19.5095 47.5365L16.7806 48.7828C20.4889 56.9029 26.4531 63.7859 33.9628 68.6121L35.5848 66.0884ZM19.5095 47.5365C16.04 39.9395 14.8274 31.5054 16.016 23.2387L13.0465 22.8118C11.7761 31.6477 13.0722 40.6626 16.7806 48.7828L19.5095 47.5365ZM16.016 23.2387C16.2571 21.5616 16.595 19.9057 17.0261 18.2788L14.1262 17.5103C13.6654 19.2493 13.3042 21.0192 13.0465 22.8118L16.016 23.2387ZM16.0375 19.3218L40.4613 11.4273L39.5386 8.57271L15.1149 16.4673L16.0375 19.3218ZM39.5386 11.4273L63.9634 19.3222L64.8861 16.4676L40.4613 8.57271L39.5386 11.4273ZM62.9748 18.2791C63.4059 19.9059 63.7438 21.5617 63.9849 23.2387L66.9544 22.8118C66.6966 21.0193 66.3355 19.2495 65.8747 17.5106L62.9748 18.2791ZM63.9849 23.2387C65.1735 31.5054 63.9608 39.9395 60.4914 47.5365L63.2203 48.7828C66.9286 40.6626 68.2248 31.6477 66.9544 22.8118L63.9849 23.2387ZM60.4914 47.5365C57.022 55.1335 51.442 61.5731 44.4161 66.0884L46.038 68.6121C53.5477 63.7859 59.512 56.9029 63.2203 48.7828L60.4914 47.5365ZM44.4161 66.0884C42.7895 67.1338 41.1012 68.0658 39.3634 68.8809L40.6374 71.597C42.4949 70.7257 44.2994 69.7295 46.038 68.6121L44.4161 66.0884Z" fill="#1CB0F6" class="fill-blue" />
  <path fill-rule="evenodd" clip-rule="evenodd" d="M40.0001 58.8696C38.8412 58.3287 37.7164 57.7105 36.6345 57.0177C31.9778 54.0353 28.2565 49.7599 25.9527 44.7328C23.6459 39.6991 22.837 34.1015 23.6277 28.6211C23.7878 27.5116 24.0124 26.4156 24.299 25.3386L39.9998 20.2813L55.7012 25.3388C55.9878 26.4158 56.2124 27.5116 56.3725 28.6211C57.1632 34.1015 56.3543 39.6991 54.0475 44.7328C51.7437 49.7599 48.0224 54.0353 43.3657 57.0177C42.2838 57.7105 41.159 58.3287 40.0001 58.8696Z" fill="#84D3FF" class="fill-blue" />
  <path d="M40.0001 58.8696L39.3657 60.2288C39.7678 60.4165 40.2324 60.4165 40.6345 60.2288L40.0001 58.8696ZM36.6345 57.0177L35.8255 58.2808L36.6345 57.0177ZM25.9527 44.7328L27.3163 44.1078L25.9527 44.7328ZM23.6277 28.6211L22.1431 28.4069L23.6277 28.6211ZM24.299 25.3386L23.8391 23.9109C23.3535 24.0673 22.9807 24.4598 22.8495 24.9529L24.299 25.3386ZM39.9998 20.2813L40.4597 18.8535C40.1607 18.7572 39.8389 18.7572 39.5399 18.8535L39.9998 20.2813ZM55.7012 25.3388L57.1508 24.9531C57.0196 24.4601 56.6468 24.0675 56.1611 23.9111L55.7012 25.3388ZM56.3725 28.6211L57.8571 28.4069L57.8571 28.4069L56.3725 28.6211ZM54.0475 44.7328L52.6839 44.1078L54.0475 44.7328ZM43.3657 57.0177L44.1747 58.2808L43.3657 57.0177ZM40.6345 57.5104C39.5355 56.9974 38.4689 56.4112 37.4435 55.7545L35.8255 58.2808C36.9638 59.0098 38.147 59.66 39.3657 60.2288L40.6345 57.5104ZM37.4435 55.7545C33.0283 52.9269 29.5 48.8727 27.3163 44.1078L24.5891 45.3577C27.0131 50.6471 30.9272 55.1438 35.8255 58.2808L37.4435 55.7545ZM27.3163 44.1078C25.1296 39.3361 24.3629 34.0298 25.1123 28.8353L22.1431 28.4069C21.3111 34.1731 22.1622 40.062 24.5891 45.3577L27.3163 44.1078ZM25.1123 28.8353C25.264 27.7839 25.4769 26.7452 25.7486 25.7244L22.8495 24.9529C22.5479 26.0861 22.3115 27.2393 22.1431 28.4069L25.1123 28.8353ZM24.7589 26.7664L40.4597 21.709L39.5399 18.8535L23.8391 23.9109L24.7589 26.7664ZM39.5399 21.709L55.2414 26.7666L56.1611 23.9111L40.4597 18.8535L39.5399 21.709ZM54.2517 25.7246C54.5233 26.7454 54.7362 27.7839 54.8879 28.8353L57.8571 28.4069C57.6887 27.2393 57.4523 26.0862 57.1508 24.9531L54.2517 25.7246ZM54.8879 28.8353C55.6373 34.0298 54.8706 39.3361 52.6839 44.1078L55.4111 45.3577C57.838 40.062 58.6891 34.1731 57.8571 28.4069L54.8879 28.8353ZM52.6839 44.1078C50.5002 48.8727 46.9719 52.9269 42.5567 55.7545L44.1747 58.2808C49.073 55.1438 52.9871 50.6471 55.4111 45.3577L52.6839 44.1078ZM42.5567 55.7545C41.5313 56.4112 40.4647 56.9974 39.3657 57.5104L40.6345 60.2288C41.8532 59.66 43.0364 59.0098 44.1747 58.2808L42.5567 55.7545Z" fill="#84D3FF" class="fill-blue" />
</svg>