<svg viewBox="0 0 80 80" fill="none">
  <path d="M18 44H62V57.2174V60H18V57.2174V44Z" fill="black" class="fill-grey" />
  <path opacity="0.25" fill-rule="evenodd" clip-rule="evenodd" d="M28 16C19.1634 16 12 23.1634 12 32V34.0549C16.1716 34.5161 19.4839 37.8284 19.9451 42H60.0549C60.5161 37.8284 63.8284 34.5161 68 34.0549V32C68 23.1634 60.8366 16 52 16H28ZM68 39.1304V38.1C65.7178 38.5633 64 40.581 64 43V43.9226C66.2745 43.5126 68 41.523 68 39.1304ZM16 43.9226V43C16 40.581 14.2822 38.5633 12 38.1V39.1304C12 41.523 13.7255 43.5126 16 43.9226Z" fill="black" class="fill-grey" />
  <path d="M4 41.0661C4 38.2682 6.26816 36 9.06608 36H11C14.866 36 18 39.134 18 43V59C18 61.7614 15.7614 64 13 64C10.2386 64 8 61.7614 8 59V52.309C8 50.1455 7.39964 48.0244 6.26574 46.1818L4.75151 43.7212C4.26015 42.9228 4 42.0036 4 41.0661Z" fill="black" class="fill-grey" />
  <path d="M76 41.0661C76 38.2682 73.7318 36 70.9339 36H69C65.134 36 62 39.134 62 43V59C62 61.7614 64.2386 64 67 64C69.7614 64 72 61.7614 72 59V52.309C72 50.1455 72.6004 48.0244 73.7343 46.1818L75.2485 43.7212C75.7398 42.9228 76 42.0036 76 41.0661Z" fill="black" class="fill-grey" />
</svg>