<svg viewBox="0 0 80 80" fill="none">
  <path d="M31 25C31 23.8954 30.1046 23 29 23C27.8954 23 27 23.8954 27 25L31 25ZM27 64C27 65.1046 27.8954 66 29 66C30.1046 66 31 65.1046 31 64H27ZM27 25L27 64H31L31 25L27 25Z" fill="#84D3FF" class="fill-blue" />
  <path d="M34.818 25L23.182 25C22.0078 25 21.4197 23.5803 22.25 22.75L27.5858 17.4142C28.3668 16.6332 29.6332 16.6332 30.4142 17.4142L35.75 22.75C36.5803 23.5803 35.9923 25 34.818 25Z" fill="#1CB0F6" stroke="#1CB0F6" stroke-width="3" stroke-linecap="round" stroke-linejoin="round" class="fill-blue stroke-blue" />
  <path d="M50.3193 18.4638C49.4709 19.1712 49.3565 20.4323 50.0638 21.2807C50.7712 22.1291 52.0323 22.2435 52.8807 21.5361L50.3193 18.4638ZM56.2797 16.0984L54.999 14.5622L54.999 14.5622L56.2797 16.0984ZM54.3977 36C54.3977 37.1046 55.2932 38 56.3977 38C57.5023 38 58.3977 37.1046 58.3977 36H54.3977ZM52.8807 21.5361L57.5605 17.6345L54.999 14.5622L50.3193 18.4638L52.8807 21.5361ZM54.3977 16.1536V36H58.3977V16.1536H54.3977ZM57.5605 17.6345C56.3047 18.6814 54.3977 17.7885 54.3977 16.1536H58.3977C58.3977 14.3967 56.3484 13.4372 54.999 14.5622L57.5605 17.6345Z" fill="#1CB0F6" class="fill-blue" />
  <path d="M51 62C49.8954 62 49 62.8954 49 64C49 65.1046 49.8954 66 51 66V62ZM59.9972 49.6927L61.9971 49.7009L59.9972 49.6927ZM58 54V55.5H62V54H58ZM53.8333 46H55V42H53.8333V46ZM51.5 62H51V66H51.5V62ZM53.8333 57.6667H53.9986V53.6667H53.8333V57.6667ZM58 49V54H62V49H58ZM61.9971 49.7009L62 49.0082L58 48.9918L57.9972 49.6845L61.9971 49.7009ZM46 49.8333C46 54.1596 49.5071 57.6667 53.8333 57.6667V53.6667C51.7162 53.6667 50 51.9504 50 49.8333H46ZM53.9986 57.6667C58.4033 57.6667 61.9791 54.1055 61.9971 49.7009L57.9972 49.6845C57.9881 51.8864 56.2006 53.6667 53.9986 53.6667V57.6667ZM58 55.5C58 59.0899 55.0899 62 51.5 62V66C57.299 66 62 61.299 62 55.5H58ZM55 46C56.6569 46 58 47.3431 58 49H62C62 45.134 58.866 42 55 42V46ZM50 49.8333C50 47.7162 51.7162 46 53.8333 46V42C49.5071 42 46 45.5071 46 49.8333H50Z" fill="#84D3FF" class="fill-blue" />
</svg>