<svg viewBox="0 0 80 80" fill="none">
  <path fill-rule="evenodd" clip-rule="evenodd" d="M16 58.9983H64V59.9999V63.9999C64 65.6568 62.6569 66.9999 61 66.9999H19C17.3431 66.9999 16 65.6568 16 63.9999V59.9999V58.9983Z" fill="#84D3FF" class="fill-blue" />
  <path fill-rule="evenodd" clip-rule="evenodd" d="M45 32.557C47.3548 31.1813 49.0501 28.8869 49.6622 26.2053C50.3333 23.2649 49.6289 20.1789 47.7485 17.8208C45.868 15.4628 43.0161 14.0894 40 14.0894C36.9839 14.0894 34.132 15.4628 32.2515 17.8208C30.3711 20.1789 29.6667 23.2649 30.3378 26.2053C30.9499 28.8869 32.6452 31.1813 35 32.557V42.9984H20C15.5817 42.9984 12 46.5801 12 50.9984V56.9984C12 58.1029 12.8954 58.9984 14 58.9984H66C67.1046 58.9984 68 58.1029 68 56.9984V50.9984C68 46.5801 64.4183 42.9984 60 42.9984H45V32.557Z" fill="#7B61FF" class="fill-purple" />
</svg>