<svg viewBox="0 0 80 80" fill="none">
  <path d="M40 14L42 13.9923C41.9957 12.8907 41.1016 12 40 12C38.8984 12 38.0043 12.8907 38 13.9923L40 14ZM40.0309 22.0126L39.2656 23.8604C39.884 24.1165 40.5895 24.0463 41.1453 23.6734C41.7011 23.3004 42.0335 22.6742 42.0309 22.0049L40.0309 22.0126ZM39.969 22.013L37.9691 22.0053C37.9665 22.6747 38.2989 23.3009 38.8547 23.6738C39.4105 24.0468 40.116 24.1169 40.7344 23.8608L39.969 22.013ZM40.0005 22L40.7659 20.1522C40.2758 19.9493 39.7252 19.9493 39.2352 20.1522L40.0005 22ZM52.6971 27.2591L51.2884 25.8394C50.8133 26.3109 50.6055 26.9888 50.7348 27.6455C50.8641 28.3022 51.3134 28.8507 51.9318 29.1069L52.6971 27.2591ZM52.7285 27.2721L54.5763 26.5068C54.3733 26.0167 53.9839 25.6273 53.4938 25.4243L52.7285 27.2721ZM52.7411 27.3026L50.8933 28.0679C51.1495 28.6863 51.698 29.1356 52.3547 29.265C53.0114 29.3943 53.6893 29.1865 54.1608 28.7114L52.7411 27.3026ZM58.3848 21.6152L59.8044 23.024C60.5803 22.242 60.5779 20.9799 59.799 20.201C59.0201 19.4221 57.758 19.4197 56.976 20.1956L58.3848 21.6152ZM57.9877 39.9691L57.9955 37.9691C57.3261 37.9665 56.6999 38.2989 56.327 38.8547C55.954 39.4105 55.8838 40.116 56.1399 40.7344L57.9877 39.9691ZM58.0005 40L59.8483 40.7653C60.0513 40.2753 60.0513 39.7247 59.8483 39.2347L58.0005 40ZM57.9877 40.0309L56.1399 39.2656C55.8838 39.884 55.954 40.5895 56.327 41.1453C56.6999 41.7011 57.3261 42.0335 57.9955 42.0309L57.9877 40.0309ZM66 40L66.0077 42C67.1093 41.9957 68 41.1016 68 40C68 38.8984 67.1093 38.0043 66.0077 38L66 40ZM52.7411 52.6974L54.1608 51.2886C53.6893 50.8135 53.0114 50.6057 52.3547 50.735C51.698 50.8644 51.1495 51.3136 50.8933 51.932L52.7411 52.6974ZM52.7285 52.7279L53.4939 54.5757C53.9839 54.3727 54.3733 53.9833 54.5763 53.4932L52.7285 52.7279ZM52.6971 52.7409L51.9317 50.8932C51.3134 51.1493 50.8641 51.6978 50.7348 52.3545C50.6055 53.0112 50.8133 53.6891 51.2884 54.1606L52.6971 52.7409ZM58.3848 58.3848L56.976 59.8044C57.758 60.5803 59.0201 60.5779 59.799 59.799C60.5779 59.0201 60.5803 57.758 59.8044 56.976L58.3848 58.3848ZM40.0309 57.9874L42.0309 57.9951C42.0335 57.3258 41.7011 56.6996 41.1453 56.3266C40.5895 55.9537 39.884 55.8835 39.2656 56.1396L40.0309 57.9874ZM40.0005 58L39.2352 59.8478C39.7253 60.0507 40.2759 60.0507 40.7659 59.8478L40.0005 58ZM39.969 57.987L40.7344 56.1392C40.116 55.8831 39.4105 55.9532 38.8547 56.3262C38.2989 56.6991 37.9665 57.3254 37.9691 57.9947L39.969 57.987ZM40 66L38 66.0077C38.0043 67.1093 38.8984 68 40 68C41.1016 68 41.9957 67.1093 42 66.0077L40 66ZM27.3032 52.7406L28.7119 54.1602C29.187 53.6888 29.3948 53.0109 29.2655 52.3542C29.1362 51.6975 28.687 51.149 28.0686 50.8928L27.3032 52.7406ZM27.2726 52.7279L25.4249 53.4933C25.6278 53.9833 26.0172 54.3727 26.5072 54.5757L27.2726 52.7279ZM27.2596 52.6966L29.1074 51.9312C28.8513 51.3128 28.3028 50.8636 27.646 50.7343C26.9893 50.6049 26.3114 50.8127 25.84 51.2878L27.2596 52.6966ZM21.6152 58.3848L20.1956 56.976C19.4197 57.758 19.4221 59.0201 20.201 59.799C20.9799 60.5779 22.242 60.5803 23.024 59.8044L21.6152 58.3848ZM22.0134 40.031L22.0056 42.0309C22.675 42.0335 23.3012 41.7011 23.6741 41.1453C24.0471 40.5895 24.1173 39.884 23.8611 39.2656L22.0134 40.031ZM22.0005 40L20.1528 39.2347C19.9498 39.7247 19.9498 40.2753 20.1528 40.7653L22.0005 40ZM22.0134 39.969L23.8611 40.7344C24.1173 40.116 24.0471 39.4105 23.6741 38.8547C23.3012 38.2989 22.675 37.9665 22.0056 37.9691L22.0134 39.969ZM14 40L13.9923 38C12.8907 38.0043 12 38.8984 12 40C12 41.1016 12.8907 41.9957 13.9923 42L14 40ZM27.2596 27.3034L25.84 28.7122C26.3114 29.1873 26.9893 29.395 27.646 29.2657C28.3028 29.1364 28.8513 28.6872 29.1074 28.0688L27.2596 27.3034ZM27.2726 27.2721L26.5073 25.4243C26.0172 25.6273 25.6279 26.0166 25.4249 26.5067L27.2726 27.2721ZM27.3032 27.2594L28.0686 29.1072C28.6869 28.851 29.1362 28.3025 29.2655 27.6458C29.3948 26.9891 29.187 26.3112 28.7119 25.8398L27.3032 27.2594ZM21.6152 21.6152L23.024 20.1956C22.242 19.4197 20.9799 19.4221 20.201 20.201C19.4221 20.9799 19.4197 22.242 20.1956 23.024L21.6152 21.6152ZM38 14.0077L38.031 22.0203L42.0309 22.0049L42 13.9923L38 14.0077ZM41.969 22.0208L42 14.0077L38 13.9923L37.9691 22.0053L41.969 22.0208ZM40.7344 23.8608L40.7659 23.8478L39.2352 20.1522L39.2037 20.1653L40.7344 23.8608ZM39.2352 23.8478L39.2656 23.8604L40.7963 20.1648L40.7659 20.1522L39.2352 23.8478ZM51.9318 29.1069L51.9632 29.1199L53.4938 25.4243L53.4624 25.4113L51.9318 29.1069ZM50.8807 28.0374L50.8933 28.0679L54.5889 26.5373L54.5763 26.5068L50.8807 28.0374ZM56.9651 20.2065L51.3215 25.8939L54.1608 28.7114L59.8044 23.024L56.9651 20.2065ZM54.1059 28.6788L59.7935 23.0349L56.976 20.1956L51.2884 25.8394L54.1059 28.6788ZM56.1399 40.7344L56.1528 40.7653L59.8483 39.2347L59.8355 39.2037L56.1399 40.7344ZM56.1528 39.2347L56.1399 39.2656L59.8355 40.7963L59.8483 40.7653L56.1528 39.2347ZM65.9923 38L57.98 38.031L57.9955 42.0309L66.0077 42L65.9923 38ZM57.98 41.969L65.9923 42L66.0077 38L57.9955 37.9691L57.98 41.969ZM50.8933 51.932L50.8807 51.9626L54.5763 53.4932L54.5889 53.4627L50.8933 51.932ZM51.9631 50.8802L51.9317 50.8932L53.4625 54.5886L53.4939 54.5757L51.9631 50.8802ZM59.7935 56.9651L54.1059 51.3212L51.2884 54.1606L56.976 59.8044L59.7935 56.9651ZM51.3215 54.1061L56.9651 59.7935L59.8044 56.976L54.1608 51.2886L51.3215 54.1061ZM39.2656 56.1396L39.2352 56.1522L40.7659 59.8478L40.7963 59.8352L39.2656 56.1396ZM40.7659 56.1522L40.7344 56.1392L39.2037 59.8347L39.2352 59.8478L40.7659 56.1522ZM42 65.9923L41.969 57.9792L37.9691 57.9947L38 66.0077L42 65.9923ZM38.031 57.9797L38 65.9923L42 66.0077L42.0309 57.9951L38.031 57.9797ZM28.0686 50.8928L28.038 50.8802L26.5072 54.5757L26.5378 54.5883L28.0686 50.8928ZM29.1204 51.9626L29.1074 51.9312L25.4119 53.4619L25.4249 53.4933L29.1204 51.9626ZM23.0349 59.7935L28.6793 54.1053L25.84 51.2878L20.1956 56.976L23.0349 59.7935ZM25.8945 51.3209L20.2065 56.9651L23.024 59.8044L28.7119 54.1602L25.8945 51.3209ZM23.8611 39.2656L23.8483 39.2347L20.1528 40.7653L20.1656 40.7963L23.8611 39.2656ZM23.8483 40.7653L23.8611 40.7344L20.1656 39.2037L20.1528 39.2347L23.8483 40.7653ZM14.0077 42L22.0211 41.969L22.0056 37.9691L13.9923 38L14.0077 42ZM22.0211 38.031L14.0077 38L13.9923 42L22.0056 42.0309L22.0211 38.031ZM29.1074 28.0688L29.1204 28.0374L25.4249 26.5067L25.4119 26.538L29.1074 28.0688ZM28.038 29.1198L28.0686 29.1072L26.5378 25.4117L26.5073 25.4243L28.038 29.1198ZM20.2065 23.0349L25.8944 28.6791L28.7119 25.8398L23.024 20.1956L20.2065 23.0349ZM28.6793 25.8947L23.0349 20.2065L20.1956 23.024L25.84 28.7122L28.6793 25.8947Z" fill="#D33131" class="fill-red" />
  <path d="M35.7574 29.7574C38.4739 28.6321 41.5261 28.6321 44.2426 29.7574C46.9592 30.8826 49.1174 33.0408 50.2426 35.7574C51.3679 38.4739 51.3679 41.5261 50.2426 44.2426C49.1174 46.9592 46.9592 49.1174 44.2426 50.2426C41.5261 51.3679 38.4739 51.3679 35.7574 50.2426C33.0408 49.1174 30.8826 46.9592 29.7574 44.2426C28.6321 41.5261 28.6321 38.4739 29.7574 35.7574C30.8826 33.0408 33.0408 30.8826 35.7574 29.7574Z" fill="#FFC200" stroke="#FFC200" stroke-width="4" stroke-linecap="square" stroke-linejoin="round" class="fill-yellow stroke-yellow" />
</svg>