<svg viewBox="0 0 80 80" fill="none">
  <path fill-rule="evenodd" clip-rule="evenodd" d="M73.7877 39.3327C74.6204 38.6064 74.7094 37.3392 73.9477 36.5387C72.4775 34.9935 70.8994 33.5465 69.2229 32.2095C63.7264 27.8262 57.313 24.7377 50.459 23.1733C43.6049 21.6089 36.4865 21.6089 29.6325 23.1733C22.7785 24.7377 16.3651 27.8262 10.8686 32.2095C9.15566 33.5755 7.54552 35.0563 6.04813 36.6394C5.28739 37.4437 5.3822 38.7134 6.22067 39.4363L27.0388 57.3848C27.8754 58.1061 29.1305 58.001 29.9547 57.2655C31.086 56.256 32.3639 55.4177 33.7482 54.7811C35.7399 53.865 37.9051 53.3877 40.0973 53.3814C42.2895 53.375 44.4574 53.8399 46.4543 54.7444C47.8423 55.3731 49.125 56.2039 50.2621 57.2069C51.0905 57.9376 52.3463 58.0354 53.1786 57.3094L73.7877 39.3327Z" fill="#F4F4F4" class="fill-white" />
  <path d="M69.2229 32.2095L70.4699 30.6459L69.2229 32.2095ZM50.459 23.1733L50.904 21.2234L50.459 23.1733ZM29.6325 23.1733L30.0776 25.1231V25.1231L29.6325 23.1733ZM10.8686 32.2095L9.6216 30.6459V30.6459L10.8686 32.2095ZM33.7482 54.7811L34.5839 56.5981H34.5839L33.7482 54.7811ZM40.0973 53.3814L40.1031 55.3814L40.0973 53.3814ZM46.4543 54.7444L47.2795 52.9226L46.4543 54.7444ZM50.2621 57.2069L48.9392 58.7068L50.2621 57.2069ZM53.1786 57.3094L51.864 55.8022L53.1786 57.3094ZM6.04813 36.6394L4.59514 35.2651L6.04813 36.6394ZM6.22067 39.4363L7.52663 37.9216L6.22067 39.4363ZM27.0388 57.3848L25.7329 58.8996L27.0388 57.3848ZM29.9547 57.2655L31.2863 58.7578L29.9547 57.2655ZM73.7877 39.3327L75.1024 40.8399L73.7877 39.3327ZM67.9759 33.7732C69.5808 35.053 71.0914 36.4381 72.4988 37.9173L75.3967 35.16C73.8636 33.5488 72.218 32.04 70.4699 30.6459L67.9759 33.7732ZM50.0139 25.1231C56.575 26.6207 62.7144 29.5772 67.9759 33.7732L70.4699 30.6459C64.7385 26.0752 58.0509 22.8547 50.904 21.2234L50.0139 25.1231ZM30.0776 25.1231C36.6387 23.6256 43.4528 23.6256 50.0139 25.1231L50.904 21.2234C43.7571 19.5922 36.3344 19.5922 29.1875 21.2234L30.0776 25.1231ZM12.1156 33.7732C17.3771 29.5772 23.5165 26.6207 30.0776 25.1231L29.1875 21.2234C22.0406 22.8547 15.353 26.0752 9.6216 30.6459L12.1156 33.7732ZM7.50113 38.0138C8.93452 36.4983 10.4758 35.0808 12.1156 33.7732L9.6216 30.6459C7.83548 32.0702 6.15652 33.6143 4.59514 35.2651L7.50113 38.0138ZM4.91472 40.9511L25.7329 58.8996L28.3448 55.87L7.52663 37.9216L4.91472 40.9511ZM31.2863 58.7578C32.2697 57.8802 33.3806 57.1515 34.5839 56.5981L32.9125 52.964C31.3473 53.6839 29.9023 54.6318 28.6231 55.7733L31.2863 58.7578ZM34.5839 56.5981C36.3152 55.8018 38.1974 55.3869 40.1031 55.3814L40.0915 51.3814C37.6128 51.3885 35.1645 51.9283 32.9125 52.964L34.5839 56.5981ZM40.1031 55.3814C42.0087 55.3759 43.8933 55.7799 45.6291 56.5662L47.2795 52.9226C45.0216 51.8998 42.5703 51.3742 40.0915 51.3814L40.1031 55.3814ZM45.6291 56.5662C46.8356 57.1127 47.9507 57.835 48.9392 58.7068L51.5851 55.707C50.2993 54.5729 48.8489 53.6334 47.2795 52.9226L45.6291 56.5662ZM54.4933 58.8165L75.1024 40.8399L72.473 37.8255L51.864 55.8022L54.4933 58.8165ZM48.9392 58.7068C50.397 59.9927 52.7868 60.3051 54.4933 58.8165L51.864 55.8022C51.8631 55.8029 51.8646 55.8021 51.8631 55.8026C51.8596 55.8038 51.844 55.8081 51.8148 55.8067C51.7498 55.8036 51.6608 55.7738 51.5851 55.707L48.9392 58.7068ZM4.59514 35.2651C3.01155 36.9393 3.25586 39.5209 4.91472 40.9511L7.52663 37.9216C7.52376 37.9191 7.52954 37.9243 7.53039 37.9372C7.53084 37.9441 7.53031 37.9566 7.52448 37.9733C7.51799 37.9919 7.50801 38.0065 7.50113 38.0138L4.59514 35.2651ZM25.7329 58.8996C27.448 60.3783 29.8359 60.052 31.2863 58.7578L28.6231 55.7733C28.5478 55.8405 28.459 55.8708 28.394 55.8743C28.3647 55.8759 28.3491 55.8716 28.3456 55.8705C28.3441 55.87 28.3456 55.8708 28.3448 55.87L25.7329 58.8996ZM72.4988 37.9173C72.4919 37.91 72.4819 37.8955 72.4754 37.8771C72.4695 37.8605 72.469 37.8479 72.4694 37.8411C72.4702 37.8282 72.4759 37.823 72.473 37.8255L75.1024 40.8399C76.7499 39.4028 76.9821 36.8263 75.3967 35.16L72.4988 37.9173Z" fill="#D2D2D2" class="fill-undefined" />
  <path d="M17.7108 37.33L16.0926 38.5053C16.735 39.3897 17.9683 39.5946 18.8621 38.9654L17.7108 37.33ZM16.5354 35.7116L15.3831 34.0769C14.9455 34.3854 14.6499 34.8563 14.5623 35.3845C14.4748 35.9126 14.6026 36.4538 14.9172 36.8869L16.5354 35.7116ZM16.5428 35.7063L18.1607 34.5305C17.518 33.6462 16.2844 33.4418 15.3908 34.0714L16.5428 35.7063ZM17.7188 37.3244L18.8696 38.9602C19.3078 38.6519 19.604 38.1807 19.6918 37.6521C19.7796 37.1236 19.6516 36.582 19.3367 36.1486L17.7188 37.3244ZM63.4643 35.7115L65.0825 36.8869C65.3972 36.4536 65.525 35.9123 65.4373 35.3841C65.3497 34.8559 65.0539 34.3849 64.6162 34.0765L63.4643 35.7115ZM62.2889 37.3299L61.1379 38.9656C62.0317 39.5945 63.2649 39.3895 63.9071 38.5053L62.2889 37.3299ZM62.2809 37.3243L60.6631 36.1485C60.3481 36.5819 60.2201 37.1237 60.308 37.6522C60.3958 38.1808 60.6921 38.652 61.1304 38.9603L62.2809 37.3243ZM63.4569 35.7063L64.6085 34.0711C63.7149 33.4418 62.4816 33.6463 61.839 34.5305L63.4569 35.7063ZM52.2953 30.1732L54.1975 30.7909C54.3621 30.2839 54.3176 29.7322 54.0738 29.2583C53.8299 28.7843 53.407 28.4272 52.8988 28.2664L52.2953 30.1732ZM52.2866 30.1704L52.8897 28.2635C51.8425 27.9323 50.7241 28.5075 50.3846 29.5521L52.2866 30.1704ZM51.6776 32.0754L51.0746 33.9824C52.122 34.3135 53.2405 33.738 53.5798 32.6932L51.6776 32.0754ZM51.6682 32.0725L49.7662 31.4541C49.6013 31.9613 49.6458 32.5134 49.8898 32.9876C50.1339 33.4618 50.5572 33.8189 51.0657 33.9796L51.6682 32.0725ZM40.0044 28.2729L42.0044 28.2726C42.0043 27.1683 41.109 26.2731 40.0047 26.2729L40.0044 28.2729ZM39.9953 28.2729L39.995 26.2729C38.8907 26.2731 37.9954 27.1683 37.9953 28.2726L39.9953 28.2729ZM39.9949 30.2729L37.9949 30.2726C37.9949 30.8032 38.2056 31.312 38.5807 31.6871C38.9558 32.0623 39.4646 32.273 39.9952 32.2729L39.9949 30.2729ZM40.0047 30.2729L40.0045 32.2729C40.5351 32.273 41.0439 32.0623 41.419 31.6871C41.7941 31.312 42.0048 30.8032 42.0047 30.2726L40.0047 30.2729ZM27.7131 30.1704L29.6151 29.5521C29.2755 28.5074 28.1569 27.9322 27.1097 28.2636L27.7131 30.1704ZM28.3315 32.0725L28.9342 33.9795C29.4427 33.8188 29.8659 33.4617 30.1099 32.9875C30.3539 32.5133 30.3984 31.9613 30.2335 31.4542L28.3315 32.0725ZM27.7044 30.1732L27.1005 28.2665C26.5924 28.4275 26.1696 28.7845 25.9258 29.2585C25.6821 29.7324 25.6376 30.284 25.8022 30.7909L27.7044 30.1732ZM28.3222 32.0755L26.4199 32.6932C26.7593 33.7381 27.8779 34.3137 28.9254 33.9823L28.3222 32.0755ZM19.3291 36.1547L18.1536 34.5363L14.9172 36.8869L16.0926 38.5053L19.3291 36.1547ZM15.3908 34.0714C15.3883 34.0732 15.3857 34.0751 15.3831 34.0769L17.6877 37.3462C17.6901 37.3446 17.6924 37.343 17.6948 37.3412L15.3908 34.0714ZM14.925 36.8822L16.101 38.5002L19.3367 36.1486L18.1607 34.5305L14.925 36.8822ZM18.8621 38.9654C18.8644 38.9638 18.8665 38.9623 18.8696 38.9602L16.5681 35.6886C16.5658 35.6902 16.5626 35.6925 16.5596 35.6946L18.8621 38.9654ZM61.8461 34.5362L60.6707 36.1546L63.9071 38.5053L65.0825 36.8869L61.8461 34.5362ZM61.1304 38.9603C61.133 38.9621 61.1341 38.9629 61.1379 38.9656L63.4398 35.6943C63.4384 35.6933 63.4342 35.6903 63.4315 35.6884L61.1304 38.9603ZM63.8988 38.5002L65.0747 36.8821L61.839 34.5305L60.6631 36.1485L63.8988 38.5002ZM64.6162 34.0765C64.6152 34.0758 64.6142 34.0752 64.6129 34.0742C64.6117 34.0733 64.6101 34.0723 64.6085 34.0711L62.3052 37.3414C62.3088 37.3439 62.3075 37.343 62.3125 37.3465L64.6162 34.0765ZM52.8988 28.2664C52.8967 28.2657 52.8928 28.2645 52.8897 28.2635L51.6835 32.0773C51.6862 32.0782 51.6881 32.0788 51.6918 32.0799L52.8988 28.2664ZM50.3931 29.5554L49.7753 31.4577L53.5798 32.6932L54.1975 30.7909L50.3931 29.5554ZM51.0657 33.9796C51.0686 33.9805 51.0716 33.9814 51.0746 33.9824L52.2805 30.1685C52.2773 30.1675 52.274 30.1664 52.2708 30.1654L51.0657 33.9796ZM53.5702 32.6908L54.1886 30.7887L50.3846 29.5521L49.7662 31.4541L53.5702 32.6908ZM40.0047 26.2729C40.0014 26.2729 39.9982 26.2729 39.995 26.2729L39.9955 30.2729C39.9984 30.2729 40.0013 30.2729 40.0042 30.2729L40.0047 26.2729ZM41.9949 30.2733L41.9953 28.2733L37.9953 28.2726L37.9949 30.2726L41.9949 30.2733ZM39.9952 32.2729C39.9983 32.2729 40.0014 32.2729 40.0045 32.2729L40.005 28.2729C40.0016 28.2729 39.9981 28.2729 39.9947 28.2729L39.9952 32.2729ZM38.0044 28.2733L38.0047 30.2733L42.0047 30.2726L42.0044 28.2726L38.0044 28.2733ZM25.8111 30.7888L26.4295 32.6908L30.2335 31.4542L29.6151 29.5521L25.8111 30.7888ZM27.1097 28.2636C27.1066 28.2646 27.1036 28.2656 27.1005 28.2665L28.3083 32.0798C28.311 32.079 28.3138 32.0781 28.3166 32.0772L27.1097 28.2636ZM30.2244 31.4577L29.6066 29.5555L25.8022 30.7909L26.4199 32.6932L30.2244 31.4577ZM28.9254 33.9823C28.9282 33.9814 28.9311 33.9805 28.9342 33.9795L27.7288 30.1655C27.7256 30.1665 27.7223 30.1675 27.7189 30.1686L28.9254 33.9823Z" fill="#606060" class="fill-grey" />
  <g clip-path="url(#clip0)">
    <path d="M40 36V48" stroke="#D33131" stroke-width="4" stroke-linecap="round" stroke-linejoin="round" class="stroke-red" />
  </g>
  <defs>
    <clipPath id="clip0">
      <rect width="4.00098" height="82" fill="white" transform="translate(37.9976 28)" class="fill-white" />
    </clipPath>
  </defs>
</svg>