<svg viewBox="0 0 80 80" fill="none">
  <path fill-rule="evenodd" clip-rule="evenodd" d="M22.2787 11.8446C19.5684 13.1997 17.8564 15.9698 17.8564 19L17.8564 42.7063C17.8564 43.3557 17.5346 43.9573 17.0338 44.3707C13.8766 46.9771 12 50.8828 12 55.0557C12 60.0061 14.641 64.5805 18.9282 67.0557C23.2154 69.5309 28.4974 69.5309 32.7846 67.0557C37.0718 64.5805 39.7128 60.0061 39.7128 55.0557C39.7128 50.8828 37.8363 46.9771 34.679 44.3707C34.1782 43.9573 33.8564 43.3557 33.8564 42.7063V19C33.8564 15.9698 32.1444 13.1997 29.4341 11.8446C27.1819 10.7185 24.5309 10.7185 22.2787 11.8446Z" fill="#F4F4F4" class="fill-white" />
  <path d="M22.2787 11.8446L22.9495 13.1862L22.2787 11.8446ZM18.9282 67.0557L18.1782 68.3548L18.9282 67.0557ZM32.7846 67.0557L33.5346 68.3548L32.7846 67.0557ZM29.4341 11.8446L30.1049 10.5029V10.5029L29.4341 11.8446ZM34.679 44.3707L33.7241 45.5274L34.679 44.3707ZM17.0338 44.3707L16.0789 43.2139L17.0338 44.3707ZM19.3564 19C19.3564 16.538 20.7474 14.2873 22.9495 13.1862L21.6079 10.5029C18.3894 12.1122 16.3564 15.4017 16.3564 19H19.3564ZM19.3564 42.7063L19.3564 19H16.3564L16.3564 42.7063H19.3564ZM13.5 55.0557C13.5 51.3348 15.1733 47.8517 17.9888 45.5274L16.0789 43.2139C12.5798 46.1025 10.5 50.4309 10.5 55.0557H13.5ZM19.6782 65.7567C15.8551 63.5494 13.5 59.4702 13.5 55.0557H10.5C10.5 60.542 13.4269 65.6116 18.1782 68.3548L19.6782 65.7567ZM32.0346 65.7567C28.2115 67.964 23.5013 67.964 19.6782 65.7567L18.1782 68.3548C22.9295 71.0979 28.7833 71.0979 33.5346 68.3548L32.0346 65.7567ZM38.2128 55.0557C38.2128 59.4702 35.8577 63.5494 32.0346 65.7567L33.5346 68.3548C38.2859 65.6116 41.2128 60.542 41.2128 55.0557H38.2128ZM33.7241 45.5274C36.5395 47.8517 38.2128 51.3348 38.2128 55.0557H41.2128C41.2128 50.4309 39.133 46.1025 35.6339 43.2139L33.7241 45.5274ZM32.3564 19V42.7063H35.3564V19H32.3564ZM28.7633 13.1862C30.9654 14.2873 32.3564 16.538 32.3564 19H35.3564C35.3564 15.4017 33.3234 12.1122 30.1049 10.5029L28.7633 13.1862ZM22.9495 13.1862C24.7794 12.2713 26.9334 12.2713 28.7633 13.1862L30.1049 10.5029C27.4304 9.16569 24.2824 9.16569 21.6079 10.5029L22.9495 13.1862ZM35.6339 43.2139C35.4304 43.0459 35.3564 42.8494 35.3564 42.7063H32.3564C32.3564 43.862 32.9261 44.8687 33.7241 45.5274L35.6339 43.2139ZM16.3564 42.7063C16.3564 42.8494 16.2825 43.0459 16.0789 43.2139L17.9888 45.5274C18.7868 44.8687 19.3564 43.862 19.3564 42.7063H16.3564Z" fill="#F4F4F4" class="fill-white" />
  <path fill-rule="evenodd" clip-rule="evenodd" d="M26.0396 16.8184C27.1442 16.8184 28.0396 17.7138 28.0396 18.8184L28.0396 47.0185C28.0396 47.8828 28.6126 48.6245 29.3611 49.0566C31.5047 50.2942 32.8252 52.5814 32.8252 55.0566C32.8252 57.5318 31.5047 59.819 29.3611 61.0566C27.2175 62.2942 24.5765 62.2942 22.4329 61.0566C20.2893 59.819 18.9688 57.5318 18.9688 55.0566C18.9688 52.5814 20.2893 50.2942 22.4329 49.0566C22.4988 49.0186 22.5652 48.9817 22.632 48.946C23.424 48.5227 24.0396 47.7605 24.0396 46.8624L24.0396 18.8184C24.0396 17.7138 24.935 16.8184 26.0396 16.8184Z" fill="#D33131" class="fill-red" />
  <path d="M55 11L57.9849 15.7937L63.4853 14.5147L62.2063 20.0151L67 23L62.2063 25.9849L63.4853 31.4853L57.9849 30.2063L55 35L52.0151 30.2063L46.5147 31.4853L47.7937 25.9849L43 23L47.7937 20.0151L46.5147 14.5147L52.0151 15.7937L55 11Z" fill="#FFC200" stroke="#FFC200" stroke-width="3" stroke-linecap="square" stroke-linejoin="round" class="fill-yellow stroke-yellow" />
</svg>