<svg viewBox="0 0 80 80" fill="none">
  <path d="M56.3735 64.4144L60.9482 20.4973C60.9759 20.2314 60.7673 20 60.5 20L19.5 20C19.2327 20 19.0241 20.2314 19.0518 20.4973L23.6265 64.4144C23.8388 66.4521 25.5563 68 27.605 68H52.395C54.4437 68 56.1612 66.4521 56.3735 64.4144Z" fill="#AEEE52" class="fill-green" />
  <path d="M19 20L23.6265 64.4144C23.8388 66.4521 25.5563 68 27.605 68H52.395C54.4437 68 56.1612 66.4521 56.3735 64.4144L61 20" stroke="#AEEE52" stroke-width="4" stroke-linecap="round" stroke-linejoin="round" class="stroke-green" />
  <path d="M65 19.6152H61L19 19.6152H15" stroke="#7AC70C" stroke-width="4" stroke-linecap="round" stroke-linejoin="round" class="stroke-green" />
  <path d="M27.8545 19.6139L26.2908 18.3669C25.8118 18.9676 25.7192 19.7895 26.0526 20.4817C26.3859 21.1738 27.0862 21.6139 27.8545 21.6139L27.8545 19.6139ZM52.147 19.6139V21.6139C52.9153 21.6139 53.6156 21.1738 53.9489 20.4817C54.2823 19.7895 54.1897 18.9676 53.7107 18.3669L52.147 19.6139ZM33.9264 12V10C33.3177 10 32.7422 10.2772 32.3627 10.753L33.9264 12ZM46.0751 12L47.6388 10.753C47.2593 10.2772 46.6838 10 46.0751 10V12ZM27.8545 21.6139L52.147 21.6139V17.6139L27.8545 17.6139V21.6139ZM29.4182 20.8609L35.49 13.247L32.3627 10.753L26.2908 18.3669L29.4182 20.8609ZM33.9264 14L46.0751 14V10L33.9264 10V14ZM44.5115 13.247L50.5833 20.8609L53.7107 18.3669L47.6388 10.753L44.5115 13.247Z" fill="#7AC70C" class="fill-green" />
</svg>