<svg viewBox="0 0 80 80" fill="none">
  <path fill-rule="evenodd" clip-rule="evenodd" d="M17.732 49.7466C17.357 49.3716 16.8484 49.161 16.3181 49.161H6.14648C5.04191 49.161 4.14648 48.2656 4.14648 47.161V33.1678C4.14648 32.0632 5.04191 31.1678 6.14648 31.1678H16.3185C16.8488 31.1678 17.3574 30.9572 17.7324 30.5823L28.7325 19.5863C29.9926 18.3267 32.1465 19.2191 32.1465 21.0008V21.1698V58.1559V59.3284C32.1465 61.1101 29.9926 62.0025 28.7325 60.7429L17.732 49.7466Z" fill="#D33131" class="fill-red" />
  <path d="M32.1465 21.1698H34.1465V21.1698L32.1465 21.1698ZM28.7325 60.7429L30.1465 59.3284L28.7325 60.7429ZM17.7324 30.5823L16.3185 29.1678L17.7324 30.5823ZM17.732 49.7466L16.3181 51.161L17.732 49.7466ZM16.3181 47.161H6.14648V51.161H16.3181V47.161ZM6.14648 47.161V33.1678H2.14648V47.161H6.14648ZM6.14648 33.1678H16.3185V29.1678H6.14648V33.1678ZM19.1464 31.9968L30.1465 21.0008L27.3186 18.1718L16.3185 29.1678L19.1464 31.9968ZM30.1465 21.0008V21.1698L34.1465 21.1698V21.0008L30.1465 21.0008ZM30.1465 21.1698V58.1559H34.1465V21.1698H30.1465ZM30.1465 58.1559V59.3284H34.1465V58.1559H30.1465ZM30.1465 59.3284L19.146 48.3321L16.3181 51.161L27.3186 62.1574L30.1465 59.3284ZM30.1465 59.3284L27.3186 62.1574C29.8387 64.6765 34.1465 62.8917 34.1465 59.3284H30.1465ZM30.1465 21.0008L30.1465 21.0008L34.1465 21.0008C34.1465 17.4375 29.8387 15.6527 27.3186 18.1718L30.1465 21.0008ZM16.3185 33.1678C17.3791 33.1678 18.3963 32.7466 19.1464 31.9968L16.3185 29.1678H16.3185V33.1678ZM6.14648 33.1678V33.1678V29.1678C3.93734 29.1678 2.14648 30.9587 2.14648 33.1678H6.14648ZM6.14648 47.161H6.14648H2.14648C2.14648 49.3702 3.93734 51.161 6.14648 51.161V47.161ZM16.3181 51.161H16.3181L19.146 48.3321C18.3959 47.5823 17.3787 47.161 16.3181 47.161V51.161Z" fill="#D33131" class="fill-red" />
  <path d="M41.3948 30.9091L42.8753 29.5643L42.8753 29.5643L41.3948 30.9091ZM44.6043 36.7602L42.6686 37.2634L44.6043 36.7602ZM38.3417 25.9742C37.3788 25.433 36.1594 25.7748 35.6182 26.7377C35.077 27.7006 35.4188 28.9199 36.3817 29.4611L38.3417 25.9742ZM41.3948 49.1056L42.8753 50.4503L42.8753 50.4503L41.3948 49.1056ZM36.3841 50.5522C35.4213 51.0936 35.0797 52.313 35.6211 53.2757C36.1625 54.2385 37.3819 54.5801 38.3447 54.0388L36.3841 50.5522ZM44.6043 43.2545L42.6686 42.7512L42.6686 42.7512L44.6043 43.2545ZM39.9144 32.2538C41.2645 33.7402 42.1984 35.4547 42.6686 37.2634L46.5399 36.257C45.8989 33.7912 44.6388 31.5058 42.8753 29.5643L39.9144 32.2538ZM36.3817 29.4611C37.7337 30.221 38.9262 31.1659 39.9144 32.2538L42.8753 29.5643C41.5857 28.1447 40.0512 26.9351 38.3417 25.9742L36.3817 29.4611ZM39.9144 47.7608C38.9268 48.8481 37.7351 49.7925 36.3841 50.5522L38.3447 54.0388C40.053 53.0782 41.5865 51.8691 42.8753 50.4503L39.9144 47.7608ZM42.6686 42.7512C42.1984 44.56 41.2645 46.2744 39.9144 47.7609L42.8753 50.4503C44.6388 48.5088 45.8989 46.2235 46.5399 43.7577L42.6686 42.7512ZM46.5399 43.7577C47.1813 41.2904 47.1813 38.7242 46.5399 36.257L42.6686 37.2634C43.1385 39.0707 43.1385 40.944 42.6686 42.7512L46.5399 43.7577Z" fill="#FF9100" class="fill-orange" />
</svg>