<svg viewBox="0 0 80 80" fill="none">
  <path fill-rule="evenodd" clip-rule="evenodd" d="M32 12C29.7909 12 28 13.7909 28 16V22H52V16C52 13.7909 50.2091 12 48 12H44.6154H35.3846H32ZM52 58H28V64C28 66.2091 29.7909 68 32 68H35.3846H44.6154H48C50.2091 68 52 66.2091 52 64V58Z" fill="#7B61FF" class="fill-purple" />
  <rect x="20" y="22" width="40" height="36" rx="7" fill="black" stroke="#606060" stroke-width="3" stroke-linecap="round" stroke-linejoin="round" class="fill-grey stroke-grey" />
  <path fill-rule="evenodd" clip-rule="evenodd" d="M30.1858 32.2315C29.0606 33.3801 28.4285 34.938 28.4285 36.5625C28.4285 38.187 29.0606 39.7449 30.1858 40.8935L38.896 49.7852C38.9108 49.8004 38.9256 49.8156 38.9404 49.8307C39.4611 50.3623 40.3053 50.3623 40.826 49.8307L49.5807 40.8937C50.7059 39.745 51.338 38.1871 51.338 36.5627C51.338 34.9382 50.7059 33.3803 49.5807 32.2316C48.4554 31.083 46.9293 30.4377 45.338 30.4377C43.7467 30.4377 42.2206 31.083 41.0954 32.2316L39.8833 33.4689L38.6711 32.2315C37.5459 31.0828 36.0198 30.4375 34.4285 30.4375C32.8372 30.4375 31.311 31.0828 30.1858 32.2315Z" fill="#D33131" class="fill-red" />
</svg>