<svg viewBox="0 0 80 80" fill="none">
  <path d="M17.1557 29.1878C16.312 30.1758 14.9618 30.9551 13.6115 30.8437C13.4428 29.5079 14.1038 28.0885 14.8774 27.2118C15.7211 26.196 17.198 25.4724 18.3935 25.4167C18.5341 26.8083 17.9855 28.172 17.1557 29.1878ZM18.3793 31.1081C16.4245 30.9968 14.7507 32.2074 13.8226 32.2074C12.8803 32.2074 11.4599 31.1638 9.91277 31.1916C7.90156 31.2194 6.03105 32.3466 5.00437 34.1417C2.89475 37.7319 4.45587 43.0475 6.49515 45.9696C7.4937 47.4168 8.68922 49.0033 10.2644 48.9475C11.7551 48.8919 12.3459 47.9874 14.1461 47.9874C15.9603 47.9874 16.4807 48.9475 18.0557 48.9198C19.6872 48.8919 20.7139 47.4726 21.7124 46.0254C22.8516 44.3834 23.3158 42.7832 23.3439 42.6997C23.3158 42.6718 20.1937 41.489 20.1656 37.9265C20.1374 34.9487 22.6266 33.5294 22.7391 33.4459C21.3329 31.3864 19.1389 31.1638 18.3793 31.1081ZM29.6727 27.0727V48.7666H33.0763V41.3499H37.7878C42.0914 41.3499 45.1151 38.4276 45.1151 34.1973C45.1151 29.9671 42.1476 27.0727 37.9003 27.0727H29.6727ZM33.0763 29.9114H37.0003C39.9536 29.9114 41.6414 31.4699 41.6414 34.2112C41.6414 36.9525 39.9536 38.525 36.9861 38.525H33.0763V29.9114ZM51.3314 48.9338C53.4694 48.9338 55.4523 47.8621 56.3523 46.1645H56.4227V48.7666H59.5732V37.9684C59.5732 34.8374 57.0415 32.8197 53.1458 32.8197C49.5314 32.8197 46.8591 34.8652 46.7608 37.6761H49.8266C50.0798 36.3403 51.3314 35.4636 53.0473 35.4636C55.1288 35.4636 56.2961 36.4238 56.2961 38.1911V39.3877L52.0487 39.6381C48.0968 39.8748 45.9591 41.475 45.9591 44.258C45.9591 47.069 48.167 48.9338 51.3314 48.9338ZM52.2456 46.3593C50.4314 46.3593 49.2781 45.4967 49.2781 44.1746C49.2781 42.8108 50.3891 42.0177 52.5129 41.8926L56.2961 41.6559V42.8806C56.2961 44.9121 54.5523 46.3593 52.2456 46.3593ZM63.7782 54.6668C67.0974 54.6668 68.6585 53.4144 70.0226 49.6155L76 33.0284H72.5402L68.532 45.8445H68.4616L64.4534 33.0284H60.8951L66.6614 48.8224L66.352 49.7825C65.8316 51.4106 64.9878 52.0367 63.483 52.0367C63.2157 52.0367 62.6953 52.0088 62.4845 51.9812V54.5833C62.6813 54.6389 63.5251 54.6668 63.7782 54.6668Z" fill="currentColor" />
</svg>