<svg viewBox="0 0 80 80" fill="none">
  <path fill-rule="evenodd" clip-rule="evenodd" d="M27.5777 38.5053C28.3164 32.3005 33.5964 27.4894 40 27.4894H65.0564C60.4632 18.3079 50.9721 12.0031 40.008 12H40H39.9919C35.0861 12.0014 30.475 13.2645 26.4658 15.4824L25.5794 15.9941C22.7825 17.6778 20.304 19.8365 18.2554 22.3585L18.804 23.3088L27.5777 38.5053Z" fill="currentColor" />
  <path fill-rule="evenodd" clip-rule="evenodd" d="M47.5048 29.9893C50.5445 32.2716 52.5107 35.9061 52.5107 39.9999C52.5107 42.1933 51.9462 44.255 50.9546 46.0474L50.7263 46.4429L38.3093 67.9498L38.2803 67.9999H40.0001C55.464 67.9999 68.0001 55.4639 68.0001 39.9999C68.0001 36.4726 67.3479 33.0978 66.1575 29.9893H65.0565H47.5048Z" fill="currentColor" />
  <path fill-rule="evenodd" clip-rule="evenodd" d="M44.9151 51.5083C43.4062 52.1535 41.7448 52.5107 40 52.5107C35.4473 52.5107 31.4626 50.0789 29.274 46.4433L29.0453 46.0473L16.6389 24.5588C13.7073 28.9852 12 34.2933 12 40.0001C12 50.1896 17.4428 59.1077 25.5796 64.0061C25.8716 64.1818 26.1668 64.3523 26.4655 64.5176C29.2511 66.0585 32.3271 67.1386 35.5907 67.6549L36.1172 66.7465L36.1442 66.6999L36.1462 66.6963L44.9151 51.5083Z" fill="currentColor" />
  <path fill-rule="evenodd" clip-rule="evenodd" d="M40.0002 50.1276C45.5936 50.1276 50.1279 45.5933 50.1279 40C50.1279 34.4066 45.5936 29.8723 40.0002 29.8723C34.4069 29.8723 29.8726 34.4066 29.8726 40C29.8726 45.5933 34.4069 50.1276 40.0002 50.1276Z" fill="currentColor" />
</svg>