<svg viewBox="0 0 80 80" fill="none">
  <path fill-rule="evenodd" clip-rule="evenodd" d="M18.5563 8H61.4118C65.0257 8 67.968 10.9692 68 14.6162V72L61.0919 65.9647L57.2222 62.3823L53.1285 58.5739L54.8235 64.4801H18.5563C14.9423 64.4801 12 61.5108 12 57.8638V14.6162C12 10.9692 14.9423 8 18.5563 8ZM46.9195 48.3746C47.8963 49.5738 49.0686 50.9676 49.0686 50.9676C55.8863 50.7526 58.7 46.5519 58.9771 46.1382C58.9924 46.1153 59 46.104 59 46.1057C59 35.7661 54.3111 27.3712 54.3111 27.3712C49.6547 23.903 45.1937 24.0003 45.1937 24.0003L44.7378 24.5189C50.2734 26.1719 52.8458 28.6029 52.8458 28.6029C49.4593 26.7878 46.138 25.8802 43.0446 25.5237C40.7001 25.2644 38.4533 25.3292 36.467 25.5885C36.2965 25.5885 36.1507 25.6132 35.9865 25.641C35.9626 25.6451 35.9383 25.6492 35.9135 25.6533C34.7738 25.783 32.006 26.1719 28.5219 27.6953C27.3171 28.2139 26.6007 28.6029 26.6007 28.6029C26.6007 28.6029 29.2708 26.0423 35.132 24.3892L34.8063 24.0003C34.8063 24.0003 30.3779 23.903 25.6889 27.3712C25.6889 27.3712 21 35.7661 21 46.1057C21 46.1057 23.7352 50.7731 30.9314 51C30.9314 51 32.1362 49.5738 33.1131 48.3422C28.9777 47.1105 27.4147 44.5499 27.4147 44.5499C27.4147 44.5499 27.7404 44.7768 28.3265 45.1009C28.3466 45.1009 28.3667 45.1133 28.3945 45.1304C28.4117 45.141 28.4319 45.1533 28.4567 45.1657C28.5056 45.1981 28.5544 45.2224 28.6033 45.2468C28.6521 45.2711 28.7009 45.2954 28.7498 45.3278C29.5638 45.7816 30.3779 46.1381 31.1268 46.4298C32.4619 46.9808 34.0574 47.467 35.9135 47.8236C38.3556 48.2773 41.2211 48.4394 44.347 47.856C45.8775 47.5643 47.4404 47.1429 49.0686 46.4622C50.2082 46.0409 51.4782 45.425 52.8132 44.5499C52.8132 44.5499 51.1851 47.1753 46.9195 48.3746ZM45.8123 35.9604C43.9563 35.9604 42.491 37.5486 42.491 39.5258C42.491 41.5029 43.9889 43.0911 45.8123 43.0911C47.6684 43.0911 49.1337 41.5029 49.1337 39.5258C49.1337 37.5486 47.6358 35.9604 45.8123 35.9604ZM33.9272 35.9604C32.0711 35.9604 30.6058 37.5486 30.6058 39.5258C30.6058 41.5029 32.1037 43.0911 33.9272 43.0911C35.7832 43.0911 37.2485 41.5029 37.2485 39.5258C37.2811 37.5486 35.7832 35.9604 33.9272 35.9604Z" fill="currentColor" />
</svg>