<svg viewBox="0 0 80 80" fill="none">
  <path d="M62.3623 22.8812C61.6123 21.9091 60.7983 20.9872 59.9253 20.1216C59.2321 19.3959 58.4892 18.7184 57.7019 18.0939C58.1549 18.4846 58.5869 18.8986 58.9958 19.3344C60.5278 20.9531 61.6927 22.8774 62.4126 24.9782C63.8746 29.3642 63.7794 34.8535 60.9876 39.1648C59.4376 41.5806 57.2728 43.55 54.7109 44.8753C52.1489 46.2006 49.2799 46.8352 46.3919 46.715C46.1393 46.715 45.8845 46.7151 45.6284 46.6963C35.1198 46.0727 32.4709 35.4003 37.9383 30.7891C36.4636 30.4752 33.6935 31.0906 31.7647 33.9457C30.0339 36.5098 30.1319 40.4669 31.1999 43.2743C30.5174 41.8898 30.0541 40.4096 29.826 38.8855C28.4425 29.6339 34.7167 21.744 40.4703 19.7904C37.3665 17.1057 29.5888 17.2879 23.8002 21.5049C20.3956 24.0249 17.9165 27.5781 16.7406 31.6228C17.1154 28.3406 18.1023 25.1559 19.6514 22.2305C17.7134 23.2235 15.2457 26.3643 14.0279 29.2734C12.2556 33.7116 11.6306 38.5177 12.2097 43.2556C12.2517 43.6146 12.2895 43.9728 12.337 44.3291C13.0627 48.4668 14.727 52.3875 17.2044 55.7961C19.6818 59.2048 22.908 62.0125 26.6398 64.0079C30.3717 66.0032 34.5121 67.1343 38.7494 67.3159C42.9866 67.4975 47.2103 66.7248 51.1023 65.0561C54.9943 63.3874 58.4533 60.8663 61.2189 57.6822C63.9845 54.4983 65.9846 50.7345 67.0685 46.6744C68.1525 42.6143 68.2922 38.3635 67.477 34.2422C66.6617 30.1209 64.913 26.2364 62.3623 22.8812Z" fill="currentColor" />
  <path d="M62.4126 24.9782C61.6929 22.8772 60.5279 20.953 58.9958 19.3343C57.1752 17.4557 55.0167 15.9298 52.6312 14.8346C50.6396 13.8625 48.5396 13.1255 46.3744 12.6385C42.5575 11.8112 38.6078 11.7876 34.781 12.5692C30.8037 13.4008 27.3065 15.1049 25.0942 17.2352C26.8582 16.2484 28.7489 15.5024 30.7149 15.0176C34.535 14.067 38.5353 14.0829 42.3477 15.0638C46.1601 16.0447 49.6622 17.9591 52.5319 20.6309C53.695 21.7231 54.713 22.9573 55.5616 24.3038C58.9875 29.8194 58.6634 36.7537 55.9919 40.8431C54.0079 43.8813 49.7583 46.7337 45.7935 46.7005C48.7775 46.9234 51.7667 46.3405 54.4425 45.0138C57.1184 43.6871 59.3804 41.6663 60.9876 39.1668C63.7794 34.8535 63.8746 29.3642 62.4126 24.9782Z" fill="currentColor" />
</svg>