<svg viewBox="0 0 80 80" fill="none">
  <path fill-rule="evenodd" clip-rule="evenodd" d="M13.8018 7.87305H66.1982C69.4025 7.87305 72 10.4705 72 13.6748V66.0713C72 69.2755 69.4025 71.873 66.1982 71.873H13.8018C10.5975 71.873 8 69.2755 8 66.0713V13.6748C8 10.4705 10.5975 7.87305 13.8018 7.87305ZM33.2985 24.1563C33.2985 26.3418 31.5163 28.0093 29.3888 28.0093C27.2612 28.0093 25.4795 26.3416 25.4795 24.1563C25.4795 21.9723 27.2612 20.305 29.3888 20.305C31.5163 20.305 33.2985 21.9723 33.2985 24.1563ZM20.9373 51.5334C20.9373 50.6724 21.0525 49.6169 21.2823 48.6394L24.2143 36.6609H19.6725L21.0525 31.5698H31.9765L27.664 48.6759C27.3765 49.7691 27.2615 50.6759 27.2615 51.3071C27.2615 52.4012 27.8 52.7209 28.642 52.9109C29.1548 53.0257 33.2405 52.9454 35.4648 48.0009L38.2973 36.6609H33.6975L35.0775 31.5698H44.9085L43.644 37.3499C45.3685 34.1296 48.8185 31.0698 52.2105 31.0698C55.8325 31.0698 58.8225 33.6503 58.8225 38.5949C58.8225 39.8594 58.6497 41.2356 58.19 42.7876L56.3498 49.3971C56.1777 50.0886 56.0622 50.6629 56.0622 51.1804C56.0622 52.3297 56.5223 52.9042 57.3848 52.9042C58.2472 52.9042 59.3398 52.2704 60.6048 48.7651L63.1343 49.7416C61.6392 54.9739 58.9372 57.1577 55.545 57.1577C51.5777 57.1577 49.681 54.8019 49.681 51.5812C49.681 50.6619 49.7955 49.6839 50.083 48.7064L51.9805 41.9221C52.2105 41.1744 52.268 40.4851 52.268 39.8524C52.268 37.6684 50.9458 36.3454 48.8185 36.3454C46.116 36.3454 44.3337 38.2851 43.4137 42.0221L39.7337 56.7819H33.295L34.4508 52.1437C32.558 55.2529 29.9293 57.1784 26.6868 57.1784C22.777 57.1784 20.9373 54.9262 20.9373 51.5334Z" fill="currentColor" />
</svg>