<svg width="80" height="80" viewBox="0 0 80 80" fill="none" xmlns="http://www.w3.org/2000/svg">
  <path d="M26 23.6667C26 21.4575 27.7909 19.6667 30 19.6667H59.3333C61.5425 19.6667 63.3333 21.4575 63.3333 23.6667V29.6667C63.3333 31.8758 61.5425 33.6667 59.3333 33.6667H30C27.7909 33.6667 26 31.8758 26 29.6667V23.6667Z" stroke="currentColor" stroke-linecap="round" stroke-linejoin="round" />
  <path d="M26 50.3327C26 48.1236 27.7909 46.3327 30 46.3327H50C52.2091 46.3327 54 48.1236 54 50.3327V56.3327C54 58.5418 52.2091 60.3327 50 60.3327H30C27.7909 60.3327 26 58.5418 26 56.3327V50.3327Z" stroke="currentColor" stroke-linecap="round" stroke-linejoin="round" />
  <path d="M16.6665 68L16.6665 12" stroke="currentColor" stroke-linecap="round" stroke-linejoin="round" />
</svg>