<svg viewBox="0 0 80 80" fill="none">
  <path d="M16.1715 50.172C17.9825 49.4218 20.0173 49.4218 21.8284 50.172C23.6394 50.9221 25.0782 52.361 25.8284 54.172C26.5785 55.983 26.5785 58.0178 25.8284 59.8288C25.0782 61.6399 23.6394 63.0787 21.8284 63.8288C20.0173 64.579 17.9825 64.579 16.1715 63.8288C14.3605 63.0787 12.9216 61.6399 12.1715 59.8288C11.4214 58.0178 11.4214 55.983 12.1715 54.172C12.9216 52.361 14.3605 50.9221 16.1715 50.172Z" stroke="currentColor" stroke-linecap="round" stroke-linejoin="round" />
  <path d="M59.1715 50.172C60.9825 49.4218 63.0173 49.4218 64.8284 50.172C66.6394 50.9221 68.0782 52.361 68.8284 54.172C69.5785 55.983 69.5785 58.0178 68.8284 59.8288C68.0782 61.6399 66.6394 63.0787 64.8284 63.8288C63.0173 64.579 60.9825 64.579 59.1715 63.8288C57.3605 63.0787 55.9216 61.6399 55.1715 59.8288C54.4214 58.0178 54.4214 55.983 55.1715 54.172C55.9216 52.361 57.3605 50.9221 59.1715 50.172Z" stroke="currentColor" stroke-linecap="round" stroke-linejoin="round" />
  <path d="M10 15C7.79086 15 6 16.7909 6 19V55H11.8847C11.9634 54.7198 12.0591 54.4432 12.1716 54.1716C12.9217 52.3606 14.3606 50.9217 16.1716 50.1716C17.9826 49.4214 20.0174 49.4214 21.8284 50.1716C23.6394 50.9217 25.0783 52.3606 25.8284 54.1716C25.9409 54.4432 26.0366 54.7198 26.1153 55H50V19C50 16.7909 48.2091 15 46 15H10Z" stroke="currentColor" stroke-linecap="round" stroke-linejoin="round" />
  <path d="M50 55H54.8847" stroke="currentColor" stroke-linecap="round" stroke-linejoin="round" />
  <path d="M50 39H74V55H69.1153" stroke="currentColor" stroke-linecap="round" stroke-linejoin="round" />
  <path d="M74 39L63.6262 24.6559C62.874 23.6159 61.6685 23 60.385 23H52C50.8954 23 50 23.8954 50 25" stroke="currentColor" stroke-linecap="round" stroke-linejoin="round" />
  <path d="M24.9231 42.518C24.9231 43.1553 25.4397 43.6719 26.0769 43.6719H29.9231C30.5603 43.6719 31.0769 43.1553 31.0769 42.518L31.0769 36.845C31.0769 36.7918 31.12 36.7488 31.1731 36.7488L36.8462 36.7488C37.4834 36.7488 38 36.2322 38 35.5949V31.7488C38 31.1115 37.4834 30.595 36.8462 30.595L31.1731 30.595C31.12 30.595 31.0769 30.5519 31.0769 30.4988L31.0769 24.8257C31.0769 24.1885 30.5603 23.6719 29.9231 23.6719L26.0769 23.6719C25.4397 23.6719 24.9231 24.1885 24.9231 24.8257L24.9231 30.4988C24.9231 30.5519 24.88 30.595 24.8269 30.595L19.1538 30.595C18.5166 30.595 18 31.1115 18 31.7488V35.595C18 36.2322 18.5166 36.7488 19.1538 36.7488H24.8269C24.88 36.7488 24.9231 36.7918 24.9231 36.845L24.9231 42.518Z" stroke="currentColor" stroke-linecap="round" stroke-linejoin="round" />
</svg>