<svg width="80" height="80" viewBox="0 0 80 80" fill="none" xmlns="http://www.w3.org/2000/svg">
  <path d="M60 44L52 52L60 60" stroke="currentColor" stroke-linecap="round" stroke-linejoin="round" />
  <path d="M29.9999 17.9999C33.3136 14.6862 38.6862 14.6862 41.9999 17.9999C45.3136 21.3136 45.3136 26.6862 41.9999 29.9999L36.0136 35.9863C36.0061 35.9938 35.9938 35.9938 35.9863 35.9863L29.9999 29.9999C26.6862 26.6862 26.6862 21.3136 29.9999 17.9999Z" stroke="currentColor" stroke-linecap="round" stroke-linejoin="round" />
  <path d="M35.9805 36.0198C35.9912 36.009 36.0087 36.009 36.0195 36.0198L51.9785 51.9788C51.9904 51.9907 51.9904 52.0099 51.9785 52.0218L44 60.0003C39.5817 64.4186 32.4183 64.4186 28 60.0003C23.5817 55.582 23.5817 48.4186 28 44.0003L35.9805 36.0198Z" stroke="currentColor" stroke-linecap="round" stroke-linejoin="round" />
</svg>