<svg width="80" height="80" viewBox="0 0 80 80" fill="none" xmlns="http://www.w3.org/2000/svg">
  <path d="M20 64H60C62.2091 64 64 62.2091 64 60V28.3195C64 28.1431 63.8569 28 63.6805 28H16.3195C16.1431 28 16 28.1431 16 28.3195V60C16 62.2091 17.7909 64 20 64Z" stroke="currentColor" stroke-linecap="round" stroke-linejoin="round" />
  <path d="M12 20C12 17.7909 13.7909 16 16 16H64C66.2091 16 68 17.7909 68 20V27C68 27.5523 67.5523 28 67 28H13C12.4477 28 12 27.5523 12 27V20Z" stroke="currentColor" stroke-linecap="round" stroke-linejoin="round" />
  <path d="M34.7588 38.221H45.8303" stroke="currentColor" stroke-linecap="round" stroke-linejoin="round" />
</svg>