<svg width="80" height="80" viewBox="0 0 80 80" fill="none" xmlns="http://www.w3.org/2000/svg">
  <path d="M36.584 14.2891C34.1761 14.5544 31.7967 15.1589 29.5185 16.1025C23.1799 18.7281 18.144 23.764 15.5184 30.1025C12.8929 36.4411 12.8929 43.563 15.5184 49.9015C16.9662 53.3967 19.1468 56.4958 21.8746 59.013" stroke="currentColor" stroke-linecap="round" stroke-linejoin="round" />
  <path d="M42.418 65.7113C44.8258 65.446 47.2053 64.8415 49.4835 63.8978C55.822 61.2723 60.858 56.2363 63.4835 49.8978C66.109 43.5593 66.109 36.4373 63.4835 30.0988C62.0358 26.6037 59.8551 23.5046 57.1273 20.9873" stroke="currentColor" stroke-linecap="round" stroke-linejoin="round" />
  <path d="M36.584 23.4037V6.5961C36.584 4.89999 38.6347 4.05057 39.834 5.24991L47.4627 12.8786C48.6342 14.0502 48.6342 15.9497 47.4627 17.1212L39.834 24.7499C38.6347 25.9492 36.584 25.0998 36.584 23.4037Z" stroke="currentColor" stroke-linecap="round" stroke-linejoin="round" />
  <path d="M42.418 56.5961V73.4037C42.418 75.0998 40.3673 75.9492 39.168 74.7499L31.5393 67.1212C30.3678 65.9497 30.3678 64.0502 31.5393 62.8786L39.168 55.2499C40.3673 54.0506 42.418 54.9 42.418 56.5961Z" stroke="currentColor" stroke-linecap="round" stroke-linejoin="round" />
</svg>