<svg width="80" height="80" viewBox="0 0 80 80" fill="none" xmlns="http://www.w3.org/2000/svg">
  <path d="M20 24L20 54C20 59.5228 24.4772 64 30 64C35.5228 64 40 59.5228 40 54L40 26C40 20.4771 44.4772 16 50 16C55.5228 16 60 20.4772 60 26L60 56" stroke="currentColor" stroke-linecap="round" stroke-linejoin="round" />
  <path d="M27.7575 23.9995L12.2428 23.9995C10.6772 23.9995 9.8931 22.1066 11.0002 20.9995L17.8789 14.1209C19.0504 12.9493 20.9499 12.9493 22.1215 14.1209L29.0002 20.9995C30.1073 22.1066 29.3232 23.9995 27.7575 23.9995Z" stroke="currentColor" stroke-linecap="round" stroke-linejoin="round" />
  <path d="M52.2428 56H67.7575C69.3232 56 70.1073 57.8929 69.0002 59L62.1215 65.8787C60.9499 67.0503 59.0504 67.0503 57.8789 65.8787L51.0002 59C49.8931 57.8929 50.6772 56 52.2428 56Z" stroke="currentColor" stroke-linecap="round" stroke-linejoin="round" />
</svg>