<svg width="80" height="80" viewBox="0 0 80 80" fill="none" xmlns="http://www.w3.org/2000/svg">
  <path d="M26 70C23.7909 70 22 68.2091 22 66L22 18C22 15.7909 23.7909 14 26 14L54 14C56.2091 14 58 15.7909 58 18L58 66C58 68.2091 56.2091 70 54 70H26Z" stroke="currentColor" stroke-linecap="round" stroke-linejoin="round" />
  <path d="M47.5 14C47.7761 14 48 13.7761 48 13.5C48 11.567 46.433 10 44.5 10L35.5 10C33.567 10 32 11.567 32 13.5C32 13.7761 32.2239 14 32.5 14" stroke="currentColor" stroke-linecap="round" stroke-linejoin="round" />
  <path d="M28.1221 59C28.1221 57.8954 29.0175 57 30.1221 57H50.1221C51.2266 57 52.1221 57.8954 52.1221 59L52.1221 61C52.1221 62.1046 51.2266 63 50.1221 63H30.1221C29.0175 63 28.1221 62.1046 28.1221 61V59Z" stroke="currentColor" stroke-linecap="round" stroke-linejoin="round" />
  <path d="M28.1221 47C28.1221 45.8954 29.0175 45 30.1221 45H50.1221C51.2266 45 52.1221 45.8954 52.1221 47L52.1221 49C52.1221 50.1046 51.2266 51 50.1221 51H30.1221C29.0175 51 28.1221 50.1046 28.1221 49V47Z" stroke="currentColor" stroke-linecap="round" stroke-linejoin="round" />
  <path d="M30.1221 33C29.0175 33 28.1221 33.8954 28.1221 35V37C28.1221 38.1046 29.0175 39 30.1221 39H50.1221C51.2266 39 52.1221 38.1046 52.1221 37L52.1221 35C52.1221 33.8954 51.2266 33 50.1221 33H30.1221Z" stroke="currentColor" stroke-linecap="round" stroke-linejoin="round" />
  <path d="M28.1221 23C28.1221 21.8954 29.0175 21 30.1221 21H50.1221C51.2266 21 52.1221 21.8954 52.1221 23V25C52.1221 26.1046 51.2266 27 50.1221 27H30.1221C29.0175 27 28.1221 26.1046 28.1221 25V23Z" stroke="currentColor" stroke-linecap="round" stroke-linejoin="round" />
</svg>