<svg width="80" height="80" viewBox="0 0 80 80" fill="none" xmlns="http://www.w3.org/2000/svg">
  <path d="M12 72V8" stroke="currentColor" stroke-linecap="round" stroke-linejoin="round" />
  <path d="M12 65.9048H68" stroke="currentColor" stroke-linecap="round" stroke-linejoin="round" />
  <path d="M12 33.9048H68" stroke="currentColor" stroke-linecap="round" stroke-linejoin="round" />
  <path d="M68 72V33.9048" stroke="currentColor" stroke-linecap="round" stroke-linejoin="round" />
  <path d="M67.6191 65.9049C67.8295 65.9049 68 65.7343 68 65.5239V60.2858C68 53.2902 62.329 47.6191 55.3334 47.6191H35.3016C34.4601 47.6191 33.7778 48.3014 33.7778 49.143V65.5239C33.7778 65.7343 33.9484 65.9049 34.1588 65.9049" stroke="currentColor" stroke-linecap="round" stroke-linejoin="round" />
  <path d="M20.4306 52.1669C22.0765 51.236 24.0901 51.236 25.7361 52.1669L25.8192 52.2139C27.4584 53.1411 28.4719 54.8786 28.4719 56.7619C28.4719 58.6451 27.4584 60.3827 25.8192 61.3098L25.7361 61.3568C24.0901 62.2877 22.0765 62.2877 20.4306 61.3568L20.3474 61.3098C18.7082 60.3827 17.6947 58.6451 17.6947 56.7619C17.6947 54.8786 18.7082 53.1411 20.3474 52.2139L20.4306 52.1669Z" stroke="currentColor" stroke-linecap="round" stroke-linejoin="round" />
  <path d="M67.6191 33.9049C67.8295 33.9049 68 33.7343 68 33.5239V28.2858C68 21.2902 62.329 15.6191 55.3334 15.6191H35.3016C34.4601 15.6191 33.7778 16.3014 33.7778 17.143V33.5239C33.7778 33.7343 33.9484 33.9049 34.1588 33.9049" stroke="currentColor" stroke-linecap="round" stroke-linejoin="round" />
  <path d="M20.4306 20.1669C22.0765 19.236 24.0901 19.236 25.7361 20.1669L25.8192 20.2139C27.4584 21.1411 28.4719 22.8786 28.4719 24.7619C28.4719 26.6451 27.4584 28.3827 25.8192 29.3098L25.7361 29.3568C24.0901 30.2877 22.0765 30.2877 20.4306 29.3568L20.3474 29.3098C18.7082 28.3827 17.6947 26.6451 17.6947 24.7619C17.6947 22.8786 18.7082 21.1411 20.3474 20.2139L20.4306 20.1669Z" stroke="currentColor" stroke-linecap="round" stroke-linejoin="round" />
</svg>