<svg width="80" height="80" viewBox="0 0 80 80" fill="none" xmlns="http://www.w3.org/2000/svg">
  <path d="M39.6274 17C35.384 17 31.3143 18.6857 28.3137 21.6863L27.6863 22.3137C24.6857 25.3143 23 29.384 23 33.6274V36.5655C23 41.9664 20.8545 47.1461 17.0355 50.965C16.3725 51.628 16 52.5272 16 53.4648C16 55.4172 17.5828 57 19.5352 57H60.4648C62.4172 57 64 55.4172 64 53.4648C64 52.5272 63.6275 51.628 62.9645 50.965C59.1455 47.1461 57 41.9664 57 36.5655V33.6274C57 29.384 55.3143 25.3143 52.3137 22.3137L51.6863 21.6863C48.6857 18.6857 44.616 17 40.3726 17H39.6274Z" stroke="currentColor" stroke-linecap="round" stroke-linejoin="round" />
  <path d="M46.245 57C46.6876 57.9211 46.9282 58.9434 46.9282 60C46.9282 62.4752 45.6077 64.7624 43.4641 66C41.3205 67.2376 38.6795 67.2376 36.5359 66C34.3923 64.7624 33.0718 62.4752 33.0718 60C33.0718 58.9434 33.3124 57.9211 33.755 57" stroke="currentColor" stroke-linecap="round" stroke-linejoin="round" />
  <path d="M41.5 17C41.7761 17 42 16.7761 42 16.5V14C42 12.8954 41.1046 12 40 12C38.8954 12 38 12.8954 38 14V16.5C38 16.7761 38.2239 17 38.5 17" stroke="currentColor" stroke-linecap="round" stroke-linejoin="round" />
</svg>