<svg width="80" height="80" viewBox="0 0 80 80" fill="none" xmlns="http://www.w3.org/2000/svg">
  <path d="M6 49.0003C6 45.2872 7.47516 41.726 10.1007 39.1005C12.7261 36.4751 16.2871 35 20 35C23.7129 35 27.2739 36.4751 29.8993 39.1005C32.5248 41.726 34 45.2872 34 49.0003C34 52.7132 32.525 56.2741 29.8996 58.8996C27.2741 61.525 23.7129 63 20 63C16.2871 63 12.7259 61.525 10.1004 58.8996C7.47496 56.2741 6 52.7132 6 49.0003Z" stroke="currentColor" stroke-linecap="round" stroke-linejoin="round" />
  <path d="M34 49.0003V27C34 25.1435 33.2624 23.363 31.9497 22.0503C30.637 20.7376 28.8565 20 27 20C25.1436 20 23.3631 20.7376 22.0504 22.0503C20.7376 23.363 20 25.1436 20 27.0001C20 27.0475 20.0005 27.0948 20.0015 27.142C17.8061 27.5615 15.8595 28.8884 14.6723 30.8359L7.90698 41.9339L7.9132 41.9356C7.9059 41.9481 7.89862 41.9606 7.89136 41.9731M34 49.0003L33.9991 49.1622C33.9997 49.1083 34 49.0543 34 49.0003Z" stroke="currentColor" stroke-linecap="round" stroke-linejoin="round" />
  <path d="M74 49.0003C74 45.2872 72.5248 41.726 69.8993 39.1005C67.2739 36.4751 63.7129 35 60 35C56.2871 35 52.7261 36.4751 50.1007 39.1005C47.4752 41.726 46 45.2872 46 49.0003C46 52.7132 47.475 56.2741 50.1004 58.8996C52.7259 61.525 56.2871 63 60 63C63.7129 63 67.2741 61.525 69.8996 58.8996C72.525 56.2741 74 52.7132 74 49.0003Z" stroke="currentColor" stroke-linecap="round" stroke-linejoin="round" />
  <path d="M46.0002 49.0003V27C46.0003 25.1435 46.7379 23.363 48.0506 22.0503C49.3633 20.7376 51.1438 20 53.0002 20C54.8567 20 56.6372 20.7376 57.9499 22.0503C59.2627 23.363 60.0002 25.1436 60.0002 27.0001C60.0002 27.0475 59.9998 27.0948 59.9988 27.142C62.1941 27.5615 64.1407 28.8884 65.328 30.8359L72.0933 41.9339L72.0871 41.9356C72.0944 41.9481 72.1016 41.9606 72.1089 41.9731M46.0002 49.0003L46.0012 49.1622C46.0006 49.1083 46.0002 49.0543 46.0002 49.0003Z" stroke="currentColor" stroke-linecap="round" stroke-linejoin="round" />
  <path d="M46 29C46 27.4087 45.3677 25.8826 44.2426 24.7574C43.1174 23.6322 41.5912 23 40 23C38.4088 23 36.8826 23.6322 35.7574 24.7574C34.6322 25.8826 34 27.4088 34 29.0001L34 29.0199" stroke="currentColor" stroke-linecap="round" stroke-linejoin="round" />
  <path d="M46 43.0001C46 41.4088 45.3678 39.8826 44.2426 38.7574C43.1174 37.6322 41.5912 37 40 37C38.4088 37 36.8826 37.6322 35.7574 38.7574C34.6322 39.8826 34 41.4088 34 43.0001C34 44.5914 34.6321 46.1175 35.7573 47.2427C36.8825 48.3679 38.4087 49 40 49C41.5913 49 43.1175 48.3679 44.2427 47.2427C45.3679 46.1175 46 44.5914 46 43.0001Z" stroke="currentColor" stroke-linecap="round" stroke-linejoin="round" />
</svg>