<svg width="80" height="80" viewBox="0 0 80 80" fill="none" xmlns="http://www.w3.org/2000/svg">
  <path d="M16.1853 24.9633C16.9891 21.1818 22.02 19.0471 27.4221 20.1954C32.8243 21.3436 36.552 25.34 35.7482 29.1215L35.7956 57.7571C34.4177 64.2397 26.2938 68.0055 17.6503 66.1683C9.00684 64.3311 3.11696 57.5865 4.49488 51.1039L16.1853 24.9633Z" stroke="currentColor" stroke-linecap="round" stroke-linejoin="round" />
  <path d="M28.6697 14.3265C32.4512 15.1303 35.1444 17.5336 34.6851 19.6945L33.8532 23.6081C32.3463 22.0223 30.0881 20.7621 27.4222 20.1954C24.7563 19.6288 22.1809 19.8616 20.1592 20.6973L20.991 16.7837C21.4503 14.6229 24.8882 13.5227 28.6697 14.3265Z" stroke="currentColor" stroke-linecap="round" stroke-linejoin="round" />
  <path d="M30.9049 56.7178C30.1011 60.4993 24.6323 62.5409 18.6899 61.2778C12.7475 60.0148 8.58186 55.9253 9.38564 52.1438C10.1894 48.3623 15.6583 46.3207 21.6006 47.5838C27.543 48.8469 31.7087 52.9363 30.9049 56.7178Z" stroke="currentColor" stroke-linecap="round" stroke-linejoin="round" />
  <path d="M63.6102 24.9633C62.8064 21.1818 57.7755 19.0471 52.3733 20.1954C46.9712 21.3436 43.2435 25.34 44.0472 29.1215L43.9999 57.7571C45.3778 64.2397 53.5017 68.0055 62.1452 66.1683C70.7886 64.3311 76.6785 57.5865 75.3006 51.1039L63.6102 24.9633Z" stroke="currentColor" stroke-linecap="round" stroke-linejoin="round" />
  <path d="M51.1257 14.3265C47.3442 15.1303 44.651 17.5336 45.1103 19.6945L45.9422 23.6081C47.4492 22.0223 49.7073 20.7621 52.3732 20.1954C55.0391 19.6288 57.6146 19.8616 59.6363 20.6973L58.8044 16.7837C58.3451 14.6229 54.9072 13.5227 51.1257 14.3265Z" stroke="currentColor" stroke-linecap="round" stroke-linejoin="round" />
  <path d="M48.8905 56.7178C49.6943 60.4994 55.1632 62.5409 61.1055 61.2778C67.0479 60.0148 71.2136 55.9253 70.4098 52.1438C69.606 48.3623 64.1371 46.3207 58.1948 47.5838C52.2524 48.8469 48.0867 52.9363 48.8905 56.7178Z" stroke="currentColor" stroke-linecap="round" stroke-linejoin="round" />
  <path d="M35.751 30.7476H44.0446" stroke="currentColor" stroke-linecap="round" stroke-linejoin="round" />
  <path d="M35.7773 46.7476H44.0181" stroke="currentColor" stroke-linecap="round" stroke-linejoin="round" />
</svg>