<svg width="80" height="80" viewBox="0 0 80 80" fill="none" xmlns="http://www.w3.org/2000/svg">
  <path d="M19 40H33L33.2235 39.9924C35.3287 39.8498 37 37.713 37 35.5788L37 15.9297C37 13.7205 35.2091 11.9297 33 11.9297C30.7909 11.9297 29 13.7205 29 15.9297L29 22.7367H27.8951C28.1959 21.447 27.8502 20.0358 26.8533 19.0211C25.3051 17.4453 22.7726 17.4229 21.1967 18.9711L21.025 19.1397C19.7297 20.4124 19 22.1521 19 23.9681C19 27.7063 22.0304 30.7367 25.7686 30.7367H29V31.5788H18C14.134 31.5788 11 34.7128 11 38.5788L11 39.9999" stroke="currentColor" stroke-linecap="round" stroke-linejoin="round" />
  <path d="M33 40.0001C33.075 40.0001 33.1495 40.0027 33.2235 40.0077C35.3287 40.1503 37 42.2869 37 44.4211L37 64.0702C37 66.2793 35.2091 68.0702 33 68.0702C30.7909 68.0702 29 66.2793 29 64.0702L29 57.2632H27.8951C28.1959 58.5529 27.8502 59.9641 26.8533 60.9787C25.3051 62.5546 22.7726 62.577 21.1967 61.0288L21.025 60.8601C19.7297 59.5875 19 57.8477 19 56.0318C19 52.2936 22.0304 49.2632 25.7686 49.2632H29V48.4211H18C14.134 48.4211 11 45.287 11 41.4211L11 40" stroke="currentColor" stroke-linecap="round" stroke-linejoin="round" />
  <path d="M61 40H47L46.7765 40.0076C44.6713 40.1502 43 42.287 43 44.4212L43 64.0703C43 66.2795 44.7909 68.0703 47 68.0703C49.2091 68.0703 51 66.2795 51 64.0703L51 57.2633H52.1049C51.8041 58.553 52.1498 59.9642 53.1467 60.9789C54.6949 62.5547 57.2274 62.5771 58.8033 61.0289L58.975 60.8603C60.2703 59.5876 61 57.8479 61 56.0319C61 52.2937 57.9696 49.2633 54.2314 49.2633H51V48.4212H62C65.866 48.4212 69 45.2872 69 41.4212L69 40.0001" stroke="currentColor" stroke-linecap="round" stroke-linejoin="round" />
  <path d="M47 39.9999C46.925 39.9999 46.8505 39.9973 46.7765 39.9923C44.6713 39.8497 43 37.7131 43 35.5789L43 15.9298C43 13.7207 44.7909 11.9298 47 11.9298C49.2091 11.9298 51 13.7207 51 15.9298L51 22.7368H52.1049C51.8041 21.4471 52.1498 20.0359 53.1467 19.0213C54.6949 17.4454 57.2274 17.423 58.8033 18.9712L58.975 19.1399C60.2703 20.4125 61 22.1523 61 23.9682C61 27.7064 57.9696 30.7368 54.2314 30.7368H51V31.5789H62C65.866 31.5789 69 34.713 69 38.5789L69 40" stroke="currentColor" stroke-linecap="round" stroke-linejoin="round" />
</svg>