<svg width="80" height="80" viewBox="0 0 80 80" fill="none" xmlns="http://www.w3.org/2000/svg">
  <path d="M66 44.2871L54.7078 45.9003C44.9521 47.2939 35.0479 47.2939 25.2922 45.9003L14 44.2871V60C14 61.1046 14.8954 62 16 62H64C65.1046 62 66 61.1046 66 60V44.2871Z" stroke="currentColor" stroke-linecap="round" stroke-linejoin="round" />
  <path d="M12 28C12 26.8954 12.8954 26 14 26H66C67.1046 26 68 26.8954 68 28V42.2654C68 43.2607 67.2681 44.1046 66.2828 44.2453L54.7078 45.8989C44.9521 47.2926 35.0479 47.2926 25.2922 45.8989L13.7172 44.2453C12.7319 44.1046 12 43.2607 12 42.2654V28Z" stroke="currentColor" stroke-linecap="round" stroke-linejoin="round" />
  <path d="M35 46.8237V49.9995C35 51.104 35.8954 51.9995 37 51.9995H43C44.1046 51.9995 45 51.104 45 49.9995V46.8237C41.6686 46.9841 38.3314 46.9841 35 46.8237Z" stroke="currentColor" stroke-linecap="round" stroke-linejoin="round" />
  <path d="M48 26V24C48 20.6863 45.3137 18 42 18H38C34.6863 18 32 20.6863 32 24V26" stroke="currentColor" stroke-linecap="round" stroke-linejoin="round" />
</svg>