<svg width="80" height="80" viewBox="0 0 80 80" fill="none" xmlns="http://www.w3.org/2000/svg">
  <path d="M20 64H60" stroke="currentColor" stroke-linecap="round" stroke-linejoin="round" />
  <path d="M23 16L57 16L57 64H23L23 16Z" stroke="currentColor" stroke-linecap="round" stroke-linejoin="round" />
  <path d="M23 16H20" stroke="currentColor" stroke-linecap="round" stroke-linejoin="round" />
  <path d="M57 16L60 16" stroke="currentColor" stroke-linecap="round" stroke-linejoin="round" />
  <path d="M34 58C34 56.8954 34.8954 56 36 56H44C45.1046 56 46 56.8954 46 58V64H34V58Z" stroke="currentColor" stroke-linecap="round" stroke-linejoin="round" />
  <path d="M31 23H33" stroke="currentColor" stroke-linecap="round" stroke-linejoin="round" />
  <path d="M39 23H41" stroke="currentColor" stroke-linecap="round" stroke-linejoin="round" />
  <path d="M47 23H49" stroke="currentColor" stroke-linecap="round" stroke-linejoin="round" />
  <path d="M31 31H33" stroke="currentColor" stroke-linecap="round" stroke-linejoin="round" />
  <path d="M39 31H41" stroke="currentColor" stroke-linecap="round" stroke-linejoin="round" />
  <path d="M47 31H49" stroke="currentColor" stroke-linecap="round" stroke-linejoin="round" />
  <path d="M31 39H33" stroke="currentColor" stroke-linecap="round" stroke-linejoin="round" />
  <path d="M39 39H41" stroke="currentColor" stroke-linecap="round" stroke-linejoin="round" />
  <path d="M47 39H49" stroke="currentColor" stroke-linecap="round" stroke-linejoin="round" />
  <path d="M31 47H33" stroke="currentColor" stroke-linecap="round" stroke-linejoin="round" />
  <path d="M39 47H41" stroke="currentColor" stroke-linecap="round" stroke-linejoin="round" />
  <path d="M47 47H49" stroke="currentColor" stroke-linecap="round" stroke-linejoin="round" />
</svg>