<svg width="80" height="80" viewBox="0 0 80 80" fill="none" xmlns="http://www.w3.org/2000/svg">
  <path d="M39.9999 49.189C47.1796 49.189 52.9999 43.3687 52.9999 36.189V35.5872C52.9999 32.7279 52.0988 29.9414 50.4248 27.6235L40.0256 13.2246C40.0129 13.207 39.9868 13.207 39.9742 13.2246C38.5074 15.2555 38.4632 17.9859 39.8635 20.0633L42.6384 24.1799C43.4606 25.3997 43.8999 26.8372 43.8999 28.3082V29.1942C43.8999 32.784 40.9897 35.6942 37.3999 35.6942C33.81 35.6942 30.8999 32.784 30.8999 29.1942V28.3082C30.8999 26.8372 31.3391 25.3997 32.1614 24.1799L33.5523 22.1164L29.575 27.6235C27.9009 29.9414 26.9999 32.7279 26.9999 35.5872V36.189C26.9999 43.3687 32.8202 49.189 39.9999 49.189Z" stroke="currentColor" stroke-linecap="round" stroke-linejoin="round" />
  <path d="M13.6886 66.7879L66.3114 47.6348" stroke="currentColor" stroke-linecap="round" stroke-linejoin="round" />
  <path d="M13.6886 47.6353L66.3114 66.7884" stroke="currentColor" stroke-linecap="round" stroke-linejoin="round" />
</svg>