<svg width="80" height="80" viewBox="0 0 80 80" fill="none" xmlns="http://www.w3.org/2000/svg">
  <path d="M7.21159 48.641C6.06806 44.3733 8.60072 39.9866 12.8684 38.843L47.6418 29.5256C51.9095 28.382 56.2962 30.9147 57.4397 35.1824L58.9926 40.978C59.5644 43.1118 58.2981 45.3052 56.1642 45.8769L13.6635 57.265C11.5296 57.8367 9.33627 56.5704 8.76451 54.4366L7.21159 48.641Z" stroke="currentColor" stroke-linecap="round" stroke-linejoin="round" />
  <path d="M12.665 57.4025L14.0878 62.7123C14.3737 63.7792 15.4704 64.4124 16.5373 64.1265L22.3328 62.5736C23.3998 62.2877 24.0329 61.191 23.7471 60.1241L22.3569 54.936L13.6636 57.2654C13.33 57.3548 12.9951 57.3992 12.665 57.4025Z" stroke="currentColor" stroke-linecap="round" stroke-linejoin="round" />
  <path d="M47.4712 48.2065L48.8613 53.3946C49.1472 54.4615 50.2439 55.0947 51.3108 54.8088L57.1064 53.2559C58.1733 52.97 58.8065 51.8733 58.5206 50.8064L57.0978 45.4966C56.8104 45.6588 56.4981 45.7878 56.1645 45.8771L47.4712 48.2065Z" stroke="currentColor" stroke-linecap="round" stroke-linejoin="round" />
  <path d="M49.4585 29.0391L11.0518 39.3302L12.1961 28.9661C12.558 25.6893 14.8929 22.97 18.0773 22.1167L34.7675 17.6446C37.9519 16.7913 41.3336 17.9789 43.2854 20.6358L49.4585 29.0391Z" stroke="currentColor" stroke-linecap="round" stroke-linejoin="round" />
  <path d="M14.3281 48.1537C13.8992 46.5533 14.849 44.9083 16.4494 44.4794C18.0498 44.0506 19.6948 45.0004 20.1236 46.6008C20.5524 48.2011 19.6027 49.8462 18.0023 50.275C16.4019 50.7038 14.7569 49.7541 14.3281 48.1537Z" stroke="currentColor" stroke-linecap="round" stroke-linejoin="round" />
  <path d="M51.0333 38.3185C50.6045 36.7181 48.9595 35.7684 47.3591 36.1972C45.7587 36.626 44.8089 38.271 45.2377 39.8714C45.6666 41.4718 47.3116 42.4216 48.912 41.9928C50.5124 41.5639 51.4621 39.9189 51.0333 38.3185Z" stroke="currentColor" stroke-linecap="round" stroke-linejoin="round" />
  <path d="M52.5928 16.7061L58.6487 20.0724L63.6269 15.2534L65.5288 21.9159L72.4565 22.0286L69.0902 28.0845L73.9092 33.0627L67.2467 34.9646L67.134 41.8923" stroke="currentColor" stroke-linecap="round" stroke-linejoin="round" />
</svg>