<svg width="80" height="80" viewBox="0 0 80 80" fill="none" xmlns="http://www.w3.org/2000/svg">
  <path d="M16 18C16 16.8954 16.8954 16 18 16L62 16C63.1046 16 64 16.8954 64 18V62C64 63.1046 63.1046 64 62 64L18 64C16.8954 64 16 63.1046 16 62L16 18Z" stroke="currentColor" stroke-linecap="round" stroke-linejoin="round" />
  <path d="M49.0131 44.9996H30.9126C29.0861 44.9996 28.1713 42.7912 29.4629 41.4996L38.1067 32.8558C39.1319 31.8306 40.7939 31.8306 41.819 32.8558L50.4629 41.4996C51.7545 42.7912 50.8397 44.9996 49.0131 44.9996Z" stroke="currentColor" stroke-linecap="round" stroke-linejoin="round" />
</svg>