<svg width="80" height="80" viewBox="0 0 80 80" fill="none" xmlns="http://www.w3.org/2000/svg">
  <path d="M43.9038 16.5125C43.2422 14.9877 41.7386 14.001 40.0765 14.001C38.4143 14.001 36.9107 14.9877 36.2491 16.5125L34.712 20.0556L31.6093 17.7558C30.274 16.766 28.4785 16.6633 27.039 17.4944C25.5995 18.3255 24.7907 19.9317 24.9802 21.5831L25.4205 25.42L21.5836 24.9797C19.9322 24.7902 18.3259 25.599 17.4949 27.0385C16.6638 28.478 16.7665 30.2735 17.7562 31.6088L20.0561 34.7115L16.513 36.2486C14.9881 36.9102 14.0015 38.4138 14.0015 40.076C14.0015 41.7382 14.9881 43.2418 16.513 43.9033L20.0561 45.4404L17.7562 48.5431C16.7665 49.8785 16.6638 51.674 17.4949 53.1135C18.3259 54.553 19.9322 55.3618 21.5836 55.1723L25.4205 54.7319L24.9802 58.5689C24.7907 60.2202 25.5995 61.8265 27.039 62.6576C28.4785 63.4887 30.274 63.386 31.6093 62.3962L34.712 60.0964L36.2491 63.6394C36.9107 65.1643 38.4143 66.151 40.0765 66.151C41.7386 66.151 43.2422 65.1643 43.9038 63.6394L45.4409 60.0964L48.5436 62.3962C49.879 63.386 51.6745 63.4887 53.114 62.6576C54.5535 61.8265 55.3623 60.2202 55.1728 58.5689L54.7324 54.7319L58.5693 55.1723C60.2207 55.3618 61.827 54.553 62.6581 53.1135C63.4892 51.674 63.3865 49.8785 62.3967 48.5431L60.0969 45.4404L63.6399 43.9033C65.1648 43.2418 66.1515 41.7382 66.1515 40.076C66.1515 38.4138 65.1648 36.9102 63.6399 36.2486L60.0969 34.7115L62.3967 31.6088C63.3865 30.2735 63.4892 28.478 62.6581 27.0385C61.827 25.599 60.2207 24.7902 58.5693 24.9797L54.7324 25.42L55.1728 21.5831C55.3623 19.9317 54.5535 18.3255 53.114 17.4944C51.6745 16.6633 49.879 16.766 48.5436 17.7558L45.4409 20.0556L43.9038 16.5125Z" stroke="currentColor" stroke-linecap="round" stroke-linejoin="round" />
</svg>