<svg viewBox="0 0 80 80" fill="none">
  <path d="M68 40C68 55.464 55.464 68 40 68C24.536 68 12 55.464 12 40C12 24.536 24.536 12 40 12C55.464 12 68 24.536 68 40Z" stroke="currentColor" stroke-linecap="round" stroke-linejoin="round" />
  <path d="M39.0715 22.321C39.4068 21.4828 40.5932 21.4828 40.9285 22.321L47.8514 39.6284C47.9468 39.8668 47.9468 40.1328 47.8514 40.3712L40.9285 57.6786C40.5932 58.5168 39.4068 58.5168 39.0715 57.6786L32.1485 40.3712C32.0532 40.1328 32.0532 39.8668 32.1485 39.6284L39.0715 22.321Z" stroke="currentColor" stroke-linecap="round" stroke-linejoin="round" />
</svg>