<svg width="80" height="80" viewBox="0 0 80 80" fill="none" xmlns="http://www.w3.org/2000/svg">
  <path d="M16 61C16 59.8954 16.8954 59 18 59H62C63.1046 59 64 59.8954 64 61V65C64 66.1046 63.1046 67 62 67H18C16.8954 67 16 66.1046 16 65V61Z" stroke="currentColor" stroke-linecap="round" stroke-linejoin="round" />
  <path d="M12.0615 39.9512L18.2508 58.9998" stroke="currentColor" stroke-linecap="round" stroke-linejoin="round" />
  <path d="M61.7494 59.0001L67.9383 39.9526" stroke="currentColor" stroke-linecap="round" stroke-linejoin="round" />
  <path d="M21.1741 25.937L21.3521 44.2368L14.443 38.1313" stroke="currentColor" stroke-linecap="round" stroke-linejoin="round" />
  <path d="M38.9243 21.8701L33.6115 40.6369L23.9967 25.3511" stroke="currentColor" stroke-linecap="round" stroke-linejoin="round" />
  <path d="M65.5542 38.1337L58.6481 44.2365L58.8261 25.936" stroke="currentColor" stroke-linecap="round" stroke-linejoin="round" />
  <path d="M56.0022 25.3532L46.3886 40.637L41.0756 21.8691" stroke="currentColor" stroke-linecap="round" stroke-linejoin="round" />
  <path d="M15.0001 35.9971C15.0114 33.788 13.2297 31.9881 11.0205 31.9768C8.81144 31.9655 7.01147 33.7472 7.0002 35.9564L7 36.0352L7.0002 36.114C7.01147 38.3231 8.81144 40.1048 11.0205 40.0936C13.2297 40.0823 15.0114 38.2823 15.0001 36.0732L15 36.0352L15.0001 35.9971Z" stroke="currentColor" stroke-linecap="round" stroke-linejoin="round" />
  <path d="M72.9953 35.9567C72.984 33.7475 71.1841 31.9658 68.975 31.9771C66.7659 31.9884 64.9841 33.7883 64.9954 35.9974L64.9955 36.0355L64.9954 36.0735C64.9841 38.2826 66.7659 40.0826 68.975 40.0939C71.1841 40.1051 72.984 38.3234 72.9953 36.1143L72.9955 36.0355L72.9953 35.9567Z" stroke="currentColor" stroke-linecap="round" stroke-linejoin="round" />
  <path d="M23.6937 25.5182C25.6722 24.5354 26.4792 22.1348 25.4964 20.1563C24.5135 18.1779 22.1129 17.3708 20.1344 18.3536L20.0174 18.412C18.0427 19.4023 17.2446 21.8059 18.2348 23.7807C19.2251 25.7554 21.6287 26.5535 23.6034 25.5633L23.6937 25.5182Z" stroke="currentColor" stroke-linecap="round" stroke-linejoin="round" />
  <path d="M59.8612 18.3536C57.8827 17.3708 55.4821 18.1779 54.4992 20.1563C53.5163 22.1348 54.3234 24.5354 56.3019 25.5182L56.3921 25.5633C58.3669 26.5535 60.7705 25.7554 61.7608 23.7807C62.751 21.8059 61.9529 19.4023 59.9781 18.412L59.8612 18.3536Z" stroke="currentColor" stroke-linecap="round" stroke-linejoin="round" />
  <path d="M39.9977 14L39.9343 14C37.7252 14.0028 35.9365 15.7958 35.9392 18.0049C35.9419 20.2141 37.735 22.0027 39.9441 22L39.9977 22L40.0513 22C42.2604 22.0027 44.0535 20.2141 44.0562 18.0049C44.0589 15.7958 42.2702 14.0028 40.0611 14L39.9977 14Z" stroke="currentColor" stroke-linecap="round" stroke-linejoin="round" />
</svg>