<svg width="80" height="80" viewBox="0 0 80 80" fill="none" xmlns="http://www.w3.org/2000/svg">
  <path d="M8 24C8 22.8954 8.89543 22 10 22H70C71.1046 22 72 22.8954 72 24V56C72 57.1046 71.1046 58 70 58H10C8.89543 58 8 57.1046 8 56V24Z" stroke="currentColor" stroke-linecap="round" stroke-linejoin="round" />
  <path d="M17.9451 58H10C8.89543 58 8 57.1046 8 56V48.0549C8.32833 48.0186 8.66199 48 9 48C13.9706 48 18 52.0294 18 57C18 57.338 17.9814 57.6717 17.9451 58Z" stroke="currentColor" stroke-linecap="round" stroke-linejoin="round" />
  <path d="M17.9451 22H10C8.89543 22 8 22.8954 8 24V31.9451C8.32833 31.9814 8.66199 32 9 32C13.9706 32 18 27.9706 18 23C18 22.662 17.9814 22.3283 17.9451 22Z" stroke="currentColor" stroke-linecap="round" stroke-linejoin="round" />
  <path d="M62.0549 22H70C71.1046 22 72 22.8954 72 24V31.9451C71.6717 31.9814 71.338 32 71 32C66.0294 32 62 27.9706 62 23C62 22.662 62.0186 22.3283 62.0549 22Z" stroke="currentColor" stroke-linecap="round" stroke-linejoin="round" />
  <path d="M72 48.0549V56C72 57.1046 71.1046 58 70 58H62.0549C62.0186 57.6717 62 57.338 62 57C62 52.0294 66.0294 48 71 48C71.338 48 71.6717 48.0186 72 48.0549Z" stroke="currentColor" stroke-linecap="round" stroke-linejoin="round" />
  <path d="M19.4151 37.22C20.3493 36.5009 21.6506 36.5009 22.5847 37.22C23.2237 37.7118 23.598 38.4724 23.598 39.2787V40.7213C23.598 41.5276 23.2237 42.2882 22.5847 42.78C21.6506 43.4992 20.3493 43.4992 19.4151 42.78C18.7762 42.2882 18.4019 41.5276 18.4019 40.7213V39.2787C18.4019 38.4724 18.7762 37.7118 19.4151 37.22Z" stroke="currentColor" stroke-linecap="round" stroke-linejoin="round" />
  <path d="M35.4749 31.66C38.2774 29.5026 42.1812 29.5026 44.9837 31.66C46.9005 33.1355 48.0235 35.4173 48.0235 37.8362V42.1639C48.0235 44.5828 46.9005 46.8646 44.9837 48.3401C42.1812 50.4975 38.2774 50.4975 35.4749 48.3401C33.5581 46.8646 32.4351 44.5828 32.4351 42.1639V37.8362C32.4351 35.4173 33.5581 33.1355 35.4749 31.66Z" stroke="currentColor" stroke-linecap="round" stroke-linejoin="round" />
  <path d="M57.4151 37.22C58.3493 36.5009 59.6506 36.5009 60.5847 37.22C61.2237 37.7118 61.598 38.4724 61.598 39.2787V40.7213C61.598 41.5276 61.2237 42.2882 60.5847 42.78C59.6506 43.4992 58.3493 43.4992 57.4151 42.78C56.7762 42.2882 56.4019 41.5276 56.4019 40.7213V39.2787C56.4019 38.4724 56.7762 37.7118 57.4151 37.22Z" stroke="currentColor" stroke-linecap="round" stroke-linejoin="round" />
</svg>