<svg width="80" height="80" viewBox="0 0 80 80" fill="none" xmlns="http://www.w3.org/2000/svg">
  <path d="M38.1777 16.0308C38.8866 14.4627 41.1135 14.4627 41.8224 16.0308L44.873 22.7779C46.3365 26.0148 48.0331 29.1412 49.9495 32.1324L55.3675 40.5892C58.2712 45.1214 58.783 50.7846 56.7389 55.7639C55.0762 59.8141 51.8728 63.0379 47.8333 64.7262L47.1029 65.0314C42.5582 66.9309 37.4419 66.9309 32.8972 65.0314L32.1668 64.7262C28.1273 63.0379 24.9238 59.8141 23.2612 55.7639C21.2171 50.7846 21.7289 45.1214 24.6326 40.5892L30.0506 32.1324C31.967 29.1412 33.6636 26.0148 35.1271 22.7779L38.1777 16.0308Z" stroke="currentColor" stroke-linecap="round" stroke-linejoin="round" />
</svg>