<svg width="80" height="80" viewBox="0 0 80 80" fill="none" xmlns="http://www.w3.org/2000/svg">
  <path d="M16.8785 50.3785C18.2368 49.8159 19.7629 49.8159 21.1211 50.3785C22.4794 50.9411 23.5585 52.0202 24.1211 53.3785C24.6837 54.7368 24.6837 56.2629 24.1211 57.6211C23.5585 58.9794 22.4794 60.0585 21.1211 60.6211C19.7629 61.1837 18.2368 61.1837 16.8785 60.6211C15.5202 60.0585 14.4411 58.9794 13.8785 57.6211C13.3159 56.2629 13.3159 54.7368 13.8785 53.3785C14.4411 52.0202 15.5202 50.9411 16.8785 50.3785Z" stroke="currentColor" stroke-linecap="round" stroke-linejoin="round" />
  <path d="M56.8785 50.3785C58.2368 49.8159 59.7629 49.8159 61.1211 50.3785C62.4794 50.9411 63.5585 52.0202 64.1211 53.3785C64.6837 54.7368 64.6837 56.2629 64.1211 57.6211C63.5585 58.9794 62.4794 60.0585 61.1211 60.6211C59.7629 61.1837 58.2368 61.1837 56.8785 60.6211C55.5202 60.0585 54.4411 58.9794 53.8785 57.6211C53.3159 56.2629 53.3159 54.7368 53.8785 53.3785C54.4411 52.0202 55.5202 50.9411 56.8785 50.3785Z" stroke="currentColor" stroke-linecap="round" stroke-linejoin="round" />
  <path d="M53.4565 55.5H24.543" stroke="currentColor" stroke-linecap="round" stroke-linejoin="round" />
  <path d="M30.0868 55.4993C30.0867 54.0572 29.8054 52.6151 29.2429 51.257C28.1177 48.5405 25.9594 46.3822 23.2429 45.257C20.5884 44.1575 17.6134 44.1324 14.9443 45.1816" stroke="currentColor" stroke-linecap="round" stroke-linejoin="round" />
  <path d="M59 19.5V49.9567" stroke="currentColor" stroke-linecap="round" stroke-linejoin="round" />
  <path d="M67 19.5H51" stroke="currentColor" stroke-linecap="round" stroke-linejoin="round" />
  <path d="M36.4035 37.6391L31.4963 37.6391C30.6937 37.6391 30.2181 36.7411 30.6692 36.0771L39.7344 22.7348C40.2878 21.9202 41.5615 22.3119 41.5615 23.2968V32.3611L46.4687 32.3611C47.2714 32.3611 47.7469 33.2591 47.2958 33.923L38.2307 47.2654C37.6772 48.08 36.4035 47.6883 36.4035 46.7034V37.6391Z" stroke="currentColor" stroke-linecap="round" stroke-linejoin="round" />
</svg>