<svg width="80" height="80" viewBox="0 0 80 80" fill="none" xmlns="http://www.w3.org/2000/svg">
  <path d="M14 31C14 28.7909 15.7909 27 18 27H62C64.2091 27 66 28.7909 66 31V71C66 73.2091 64.2091 75 62 75H18C15.7909 75 14 73.2091 14 71V31Z" stroke="currentColor" stroke-linecap="round" stroke-linejoin="round" />
  <path d="M27.2857 45.8569C24.9188 45.8569 23 47.7757 23 50.1426V56.5712C23 57.7547 23.9594 58.7141 25.1429 58.7141H26.8182V66.9998C26.8182 68.1044 27.7136 68.9998 28.8182 68.9998H31.1818C32.2864 68.9998 33.1818 68.1044 33.1818 66.9998V58.7141H34.8571C36.0406 58.7141 37 57.7547 37 56.5712V50.1426C37 47.7757 35.0812 45.8569 32.7143 45.8569H27.2857Z" stroke="currentColor" stroke-linecap="round" stroke-linejoin="round" />
  <path d="M27.9975 42.3115C29.2617 42.9265 30.7383 42.9265 32.0025 42.3115C33.2526 41.7033 34.1586 40.5601 34.4649 39.2041L34.4772 39.1497C34.7847 37.789 34.4515 36.3501 33.5871 35.2552C32.7228 34.1603 31.395 33.5093 30 33.5093C28.605 33.5093 27.2773 34.1603 26.4129 35.2552C25.5485 36.3501 25.2154 37.789 25.5228 39.1497L25.5351 39.2041C25.8415 40.5601 26.7474 41.7033 27.9975 42.3115Z" stroke="currentColor" stroke-linecap="round" stroke-linejoin="round" />
  <path d="M53.6261 47.3029C52.8467 46.3856 51.7037 45.8569 50.5 45.8569C49.2963 45.8569 48.1534 46.3856 47.3739 47.3029L47.279 47.4146C46.9002 47.8604 46.6137 48.377 46.436 48.9345L43.0104 59.6854C42.9608 59.8409 43.0769 59.9998 43.2402 59.9998H47.4274V66.9998C47.4274 68.1044 48.3228 68.9998 49.4274 68.9998H51.7523C52.8568 68.9998 53.7523 68.1044 53.7523 66.9998V59.9998H57.7599C57.9231 59.9998 58.0392 59.8409 57.9897 59.6854L54.564 48.9345C54.3864 48.377 54.0999 47.8604 53.7211 47.4146L53.6261 47.3029Z" stroke="currentColor" stroke-linecap="round" stroke-linejoin="round" />
  <path d="M48.5921 42.3079C49.8525 42.9248 51.3272 42.9248 52.5876 42.3079C53.8255 41.7019 54.7215 40.5669 55.0235 39.2221L55.043 39.1352C55.3467 37.783 55.0265 36.3658 54.171 35.2755L54.1404 35.2365C53.2849 34.1461 51.9758 33.5093 50.5898 33.5093C49.2039 33.5093 47.8948 34.1461 47.0392 35.2365L47.0087 35.2755C46.1531 36.3658 45.833 37.783 46.1366 39.1352L46.1561 39.2221C46.4581 40.5669 47.3542 41.7019 48.5921 42.3079Z" stroke="currentColor" stroke-linecap="round" stroke-linejoin="round" />
  <path d="M31 7.21582L31 21.4165" stroke="currentColor" stroke-linecap="round" stroke-linejoin="round" />
  <path d="M25.6667 12.4442L29.4702 7.92755C30.2693 6.97858 31.7307 6.97858 32.5298 7.92755L36.3334 12.4442" stroke="currentColor" stroke-linecap="round" stroke-linejoin="round" />
  <path d="M51 19.7845V5.5835" stroke="currentColor" stroke-linecap="round" stroke-linejoin="round" />
  <path d="M45.6667 14.5557L49.4702 19.0723C50.2693 20.0213 51.7307 20.0213 52.5298 19.0723L56.3334 14.5557" stroke="currentColor" stroke-linecap="round" stroke-linejoin="round" />
</svg>