<svg width="80" height="80" viewBox="0 0 80 80" fill="none" xmlns="http://www.w3.org/2000/svg">
  <path d="M71.03 39.7359C69.8997 37.3183 68.4799 35.0186 66.7828 32.8905C60.2866 24.7445 50.4345 20 40.0154 20C29.5963 20 19.7442 24.7445 13.248 32.8905C11.5505 35.0191 10.1304 37.3195 9 39.7377" stroke="currentColor" stroke-linecap="round" stroke-linejoin="round" />
  <path d="M71.03 39.7358C69.8996 42.1541 68.4795 44.4544 66.782 46.583C60.2858 54.729 50.4337 59.4736 40.0146 59.4736C29.5955 59.4736 19.7434 54.729 13.2472 46.583C11.5501 44.4549 10.1302 42.1552 9 39.7376" stroke="currentColor" stroke-linecap="round" stroke-linejoin="round" />
  <path d="M35.3239 49.4779C38.2883 50.9054 41.7414 50.9054 44.7058 49.4779C47.6702 48.0503 49.8233 45.3505 50.5554 42.1427C51.2876 38.935 50.5192 35.5684 48.4677 32.996C46.4163 30.4236 43.3051 28.9253 40.0148 28.9253C36.7246 28.9253 33.6134 30.4236 31.562 32.996C29.5105 35.5684 28.7421 38.935 29.4743 42.1427C30.2064 45.3505 32.3595 48.0503 35.3239 49.4779Z" stroke="currentColor" stroke-linecap="round" stroke-linejoin="round" />
  <path d="M16.0151 64L64.0151 16" stroke="currentColor" stroke-linecap="round" stroke-linejoin="round" />
</svg>