<svg width="80" height="80" viewBox="0 0 80 80" fill="none" xmlns="http://www.w3.org/2000/svg">
  <path d="M8.98486 40.0014C10.1152 37.5832 11.5353 35.2828 13.2329 33.1542C19.7291 25.0082 29.5812 20.2637 40.0003 20.2637C50.4194 20.2637 60.2715 25.0082 66.7677 33.1542C68.4648 35.2823 69.8846 37.582 71.0149 39.9996" stroke="currentColor" stroke-linecap="round" stroke-linejoin="round" />
  <path d="M71.0149 39.9995C69.8845 42.4177 68.4644 44.7181 66.7669 46.8467C60.2706 54.9927 50.4185 59.7372 39.9994 59.7372C29.5803 59.7372 19.7282 54.9927 13.232 46.8467C11.5349 44.7186 10.1151 42.4189 8.98486 40.0013" stroke="currentColor" stroke-linecap="round" stroke-linejoin="round" />
  <path d="M27.8669 22.4862C27.6747 22.7024 27.4878 22.9243 27.3063 23.1518C24.2292 27.0104 23.0766 32.0603 24.1748 36.8719C25.273 41.6835 28.5026 45.7332 32.9492 47.8746C37.3958 50.016 42.5755 50.016 47.0221 47.8746C51.4687 45.7332 54.6983 41.6835 55.7965 36.8719C56.8947 32.0603 55.7421 27.0104 52.665 23.1518C52.4781 22.9175 52.2854 22.6891 52.0871 22.4668" stroke="currentColor" stroke-linecap="round" stroke-linejoin="round" />
  <path d="M31.7345 28.5C30.9123 29.9241 30.4585 31.5608 30.4585 33.2621C30.4585 36.6645 32.2734 39.8084 35.2196 41.51" stroke="currentColor" stroke-linecap="round" stroke-linejoin="round" />
</svg>