<svg width="80" height="80" viewBox="0 0 80 80" fill="none" xmlns="http://www.w3.org/2000/svg">
  <path d="M58.6276 28.6314L58.8282 28.832C59.5785 29.5822 60 30.5997 60 31.6607V62.0024C60 64.2116 58.2091 66.0024 56 66.0024H24C21.7909 66.0024 20 64.2116 20 62.0024L20 18.0029C20 15.7936 21.7911 14.0026 24.0004 14.0029L42.3422 14.0049C43.4027 14.005 44.4199 14.4263 45.1699 15.1762L45.3534 15.3597" stroke="currentColor" stroke-linecap="round" stroke-linejoin="round" />
  <path d="M58.5858 28.586L45.4142 15.4145C44.8923 14.8926 44 15.2622 44 16.0002V26.0002C44 28.2094 45.7909 30.0002 48 30.0002H58C58.738 30.0002 59.1077 29.1079 58.5858 28.586Z" stroke="currentColor" stroke-linecap="round" stroke-linejoin="round" />
</svg>