<svg width="80" height="80" viewBox="0 0 80 80" fill="none" xmlns="http://www.w3.org/2000/svg">
  <path d="M14 50C14 51.1046 14.8954 52 16 52H38C39.1046 52 40 52.8954 40 54C40 55.1046 40.8954 56 42 56H63.0459C64.4609 56 65.4284 54.5709 64.9029 53.2572L58.2971 36.7428C58.1064 36.266 58.1064 35.734 58.2971 35.2572L64.9029 18.7428C65.4284 17.4291 64.4609 16 63.0459 16H42C40.8954 16 40 15.1046 40 14C40 12.8954 39.1046 12 38 12H16C14.8954 12 14 12.8954 14 14" stroke="currentColor" stroke-linecap="round" stroke-linejoin="round" />
  <path d="M40 14V34" stroke="currentColor" stroke-linecap="round" stroke-linejoin="round" />
  <path d="M14 11L14 67" stroke="currentColor" stroke-linecap="round" stroke-linejoin="round" />
</svg>