<svg viewBox="0 0 80 80" fill="none">
  <path d="M12.5 38.0159C13.1752 38.238 13.8275 38.5524 14.4378 38.9593L17.5626 41.0425C20.2498 42.834 23.7506 42.834 26.4378 41.0425L29.5626 38.9593C32.2498 37.1679 35.7506 37.1679 38.4378 38.9593L41.5626 41.0425C44.2498 42.834 47.7506 42.834 50.4378 41.0425L53.5626 38.9593C54.1728 38.5525 54.8249 38.2381 55.5 38.016" stroke="currentColor" stroke-linecap="round" stroke-linejoin="round" />
  <path d="M24.5 28.2154C25.1752 27.9933 25.8275 27.6789 26.4378 27.272L29.5626 25.1888C32.2498 23.3973 35.7506 23.3973 38.4378 25.1888L41.5626 27.272C44.2498 29.0635 47.7506 29.0635 50.4378 27.272L53.5626 25.1888C56.2498 23.3973 59.7506 23.3973 62.4378 25.1888L65.5626 27.272C66.1728 27.6788 66.8249 27.9932 67.5 28.2153" stroke="currentColor" stroke-linecap="round" stroke-linejoin="round" />
  <path d="M24.5 55.7545C25.1752 55.5324 25.8275 55.2179 26.4378 54.8111L29.5626 52.7279C32.2498 50.9364 35.7506 50.9364 38.4378 52.7279L41.5626 54.8111C44.2498 56.6025 47.7506 56.6025 50.4378 54.8111L53.5626 52.7279C56.2498 50.9364 59.7506 50.9364 62.4378 52.7279L65.5626 54.8111C66.1728 55.2179 66.8249 55.5323 67.5 55.7544" stroke="currentColor" stroke-linecap="round" stroke-linejoin="round" />
</svg>