<svg width="80" height="80" viewBox="0 0 80 80" fill="none" xmlns="http://www.w3.org/2000/svg">
  <path d="M29.3935 14.3935C36.1848 11.5804 43.8154 11.5804 50.6067 14.3935C57.398 17.2065 62.7936 22.6022 65.6067 29.3935C68.4197 36.1848 68.4197 43.8154 65.6067 50.6067C62.7936 57.398 57.398 62.7936 50.6067 65.6067C43.8154 68.4197 36.1848 68.4197 29.3935 65.6067C22.6022 62.7936 17.2065 57.398 14.3935 50.6067C11.5804 43.8154 11.5804 36.1848 14.3935 29.3935C17.2065 22.6022 22.6022 17.2065 29.3935 14.3935Z" stroke="currentColor" stroke-linecap="round" stroke-linejoin="round" />
  <path d="M57.7561 18.7041C56.979 18.8404 56.2536 19.2088 55.6809 19.7711L54.9836 20.4557C54.3717 21.0565 53.5563 21.4053 52.6992 21.433L52.4559 21.4408C50.7591 21.4956 49.4077 22.8796 49.3934 24.5773C49.3867 25.3762 49.0781 26.1429 48.5296 26.7237L44.3689 31.1291C43.7744 31.7586 42.9445 32.1118 42.0787 32.1039C40.5234 32.0897 39.1966 33.2262 38.9718 34.7653L38.9545 34.8844C38.822 35.7914 38.3126 36.6003 37.5518 37.1116L36.8312 37.5958C36.0144 38.1447 35.5593 39.0932 35.6423 40.0737L35.6814 40.5359C35.7689 41.5704 35.1055 42.5201 34.1041 42.794C33.1906 43.0438 32.2212 42.6674 31.7156 41.8666L31.2255 41.0903C29.9493 39.069 27.0388 38.9659 25.6228 40.892L25.0852 41.6233C24.8544 41.9372 24.6808 42.2892 24.5722 42.6634L23.9278 44.884C23.8293 45.2233 23.4934 45.4361 23.1446 45.38C22.9432 45.3477 22.766 45.2292 22.6592 45.0555L20.0067 40.7414C19.1543 39.355 17.6471 38.5064 16.0197 38.4966L14.9233 38.49C14.3959 38.4869 13.8907 38.2776 13.5155 37.907L12.4656 36.8698" stroke="currentColor" stroke-linecap="round" stroke-linejoin="round" />
  <path d="M12.6581 44.4984C13.1977 44.4365 13.7048 44.1938 14.0935 43.804C15.0336 42.8609 15.0335 41.3349 14.0931 40.3921L12.3232 38.6177" stroke="currentColor" stroke-linecap="round" stroke-linejoin="round" />
  <path d="M51.1497 26.5339C52.4426 26.8918 52.9086 28.4839 52.0129 29.4825L50.0512 31.6695C49.6426 32.1249 49.0095 32.3063 48.4217 32.1362C47.3879 31.8371 46.9416 30.6204 47.5369 29.7237L49.1617 27.2761C49.5941 26.6248 50.3962 26.3253 51.1497 26.5339Z" stroke="currentColor" stroke-linecap="round" stroke-linejoin="round" />
  <path d="M41.468 43.8589C40.5476 44.8158 40.7325 46.3754 41.851 47.0906C42.7927 47.6927 44.0407 47.4537 44.6932 46.5462L44.899 46.26C45.2567 45.7625 45.4173 45.15 45.3497 44.541L45.2476 43.6217C45.2184 43.358 45.279 43.0923 45.4198 42.8675L45.4886 42.7576C45.869 42.1502 45.5622 41.3477 44.8737 41.1488C44.4891 41.0377 44.0745 41.1488 43.797 41.4374L41.468 43.8589Z" stroke="currentColor" stroke-linecap="round" stroke-linejoin="round" />
  <path d="M33.393 48.4771C32.694 47.379 33.3172 45.9214 34.5941 45.6682C35.1689 45.5542 35.7637 45.7192 36.1977 46.113L41.0709 50.5356C41.8418 51.2353 41.8749 52.4362 41.1436 53.1772C40.6885 53.6385 40.0234 53.8248 39.3949 53.6671L37.825 53.2731C36.7712 53.0087 35.8588 52.3506 35.2754 51.4341L33.393 48.4771Z" stroke="currentColor" stroke-linecap="round" stroke-linejoin="round" />
  <path d="M48.0291 52.6737C47.1012 52.6357 46.4338 51.7671 46.6362 50.8607C46.7882 50.1799 47.3924 49.6958 48.09 49.6958H52.7656C53.5783 49.6958 54.2128 50.3983 54.1305 51.2067C54.0908 51.5961 53.8868 51.9499 53.5697 52.1793L53.2549 52.407C52.8479 52.7015 52.3536 52.8504 51.8516 52.8299L48.0291 52.6737Z" stroke="currentColor" stroke-linecap="round" stroke-linejoin="round" />
  <path d="M57.5097 61.4804C57.3352 60.5483 56.911 59.6741 56.2741 58.9553L55.2038 57.7472C53.8022 56.1653 51.7586 55.305 49.6477 55.4082L49.4437 55.4182C47.807 55.4983 46.2621 56.1982 45.1226 57.3758L44.3967 58.126C43.5794 58.9705 43.1615 60.1237 43.248 61.2958C43.4069 63.4489 45.2001 65.1146 47.359 65.1146H48.6303C49.3437 65.1146 50.0416 65.2729 50.6765 65.5706" stroke="currentColor" stroke-linecap="round" stroke-linejoin="round" />
</svg>