<svg width="80" height="80" viewBox="0 0 80 80" fill="none" xmlns="http://www.w3.org/2000/svg">
  <path d="M53 71.4373L37 71.4373L21 71.4373" stroke="currentColor" stroke-linecap="round" stroke-linejoin="round" />
  <path d="M37 71.4373V65" stroke="currentColor" stroke-linecap="round" stroke-linejoin="round" />
  <path d="M23.9904 52.9337L20.261 58.1217C19.9386 58.5702 20.0399 59.1966 20.4991 59.5036C24.237 62.0031 28.5319 63.6411 33.0742 64.2392C40.848 65.2626 48.71 63.156 54.9306 58.3827C61.1512 53.6095 65.2209 46.5606 66.2443 38.7868C67.2678 31.013 65.1612 23.151 60.3879 16.9304C57.5988 13.2956 54.0327 10.3951 49.9989 8.40767C49.5035 8.16357 48.9104 8.38904 48.6832 8.89245L46.0535 14.7194" stroke="currentColor" stroke-linecap="round" stroke-linejoin="round" />
  <path d="M39.894 13.1463C45.7244 13.9139 51.011 16.9662 54.591 21.6316C58.1709 26.2971 59.7509 32.1935 58.9833 38.0239C58.2157 43.8543 55.1634 49.1409 50.498 52.7208C45.8325 56.3008 39.936 57.8807 34.1057 57.1132C28.2753 56.3456 22.9887 53.2933 19.4087 48.6279C15.8288 43.9624 14.2489 38.0659 15.0164 32.2356C15.784 26.4052 18.8363 21.1186 23.5017 17.5386C28.1672 13.9587 34.0637 12.3787 39.894 13.1463Z" stroke="currentColor" stroke-linecap="round" stroke-linejoin="round" />
  <path d="M29.1749 14.3819C29.5026 14.6862 29.7635 15.064 29.9317 15.4933L30.165 16.0888C30.5602 17.0976 30.55 18.2202 30.1366 19.2217L29.5818 20.5656C28.9776 22.0292 28.8324 23.6418 29.1655 25.1897L30.041 29.2596C30.2716 30.3311 30.8599 31.2923 31.7092 31.9851L32.5482 32.6695C32.9228 32.975 33.1725 33.4073 33.2498 33.8845C33.4059 34.8469 32.8368 35.7793 31.9095 36.0804L31.8025 36.1151C31.2845 36.2833 30.8517 36.6456 30.595 37.1259L29.7063 38.788C29.0923 39.9364 28.8618 41.2511 29.0484 42.5398C29.2448 43.896 28.979 45.2789 28.2938 46.4656L26.5568 49.4741C26.1997 50.0926 25.9574 50.7706 25.8414 51.4753L25.5986 52.9509C25.5669 53.1433 25.5929 53.3408 25.6733 53.5185C26.0049 54.2514 27.0265 54.3018 27.4287 53.6052L28.8187 51.1976C29.1325 50.6541 29.6456 50.2542 30.2492 50.0824L39.126 47.5567C39.8825 47.3414 40.5255 46.8401 40.9187 46.159L41.0933 45.8566C41.6535 44.8863 41.5157 43.6642 40.7536 42.843C40.4406 42.5057 40.2245 42.09 40.1283 41.64L39.9974 41.028C39.7271 39.764 38.9611 38.6613 37.871 37.9668L37.4817 37.7187C36.382 37.0181 35.613 35.9018 35.3501 34.6245L35.2362 34.0707C35.1274 33.5419 34.8712 33.0546 34.4973 32.6651L33.7934 31.9321C33.328 31.4474 33.239 30.7135 33.575 30.1315C33.9919 29.4094 34.9153 29.162 35.6374 29.5789L36.8078 30.2546C37.0187 30.3764 37.1646 30.5856 37.2059 30.8257C37.3416 31.6134 38.4091 31.7614 38.754 31.0403L38.7727 31.0013C38.8757 30.7858 39.0663 30.6248 39.296 30.5592L47.3361 28.2639C47.8871 28.1066 48.3082 27.6607 48.4336 27.1015C48.5687 26.4998 48.3378 25.8748 47.8439 25.5054L47.0415 24.9052C46.876 24.7814 46.7569 24.6056 46.7035 24.4059C46.5075 23.6733 45.5595 23.4785 45.0904 24.0743L44.7092 24.5586C44.3606 25.0015 43.7554 25.1505 43.2409 24.9203L42.5952 24.6312C41.9915 24.361 41.547 23.8264 41.3915 23.1835L41.1501 22.1857C40.9796 21.481 41.3756 20.7627 42.0625 20.5306C42.6535 20.331 43.041 19.7644 43.0128 19.1413L42.9948 18.7445C42.9704 18.2065 42.7222 17.7033 42.3101 17.3567L37.2116 13.0674C37.1654 13.0285 37.1187 12.9902 37.0717 12.9524" stroke="currentColor" stroke-linecap="round" stroke-linejoin="round" />
  <path d="M47.6236 16.9992C46.7646 17.1452 46.2565 18.0432 46.5736 18.8547L48.0437 22.6168C48.1165 22.8032 48.253 22.9578 48.4289 23.0532C49.0312 23.38 49.7521 22.8938 49.6749 22.213L49.2199 18.1996C49.131 17.4154 48.4016 16.8669 47.6236 16.9992Z" stroke="currentColor" stroke-linecap="round" stroke-linejoin="round" />
  <path d="M44.7415 14.3449C43.2235 13.7799 41.637 13.3788 40.0073 13.1562C40.0502 13.3129 40.1373 13.4586 40.2654 13.5732L42.5578 15.624C43.067 16.0795 43.8387 16.0748 44.3422 15.6131C44.7156 15.2707 44.8388 14.7844 44.7415 14.3449Z" stroke="currentColor" stroke-linecap="round" stroke-linejoin="round" />
  <path d="M54.5987 21.6274C54.5277 21.5349 54.4561 21.443 54.3838 21.3518C54.242 21.4592 54.1107 21.5842 53.9934 21.7261C53.5285 22.2884 53.3531 23.0356 53.519 23.7461L53.7649 24.7986C53.9205 25.4646 53.8036 26.1651 53.4401 26.7445C53.1027 27.2823 52.9783 27.9345 53.0883 28.5598C53.3562 30.0818 54.8685 31.0772 56.3649 30.6911L58.6067 30.1128" stroke="currentColor" stroke-linecap="round" stroke-linejoin="round" />
</svg>