<svg width="80" height="80" viewBox="0 0 80 80" fill="none" xmlns="http://www.w3.org/2000/svg">
  <path d="M29.3935 14.3935C36.1848 11.5804 43.8154 11.5804 50.6067 14.3935C57.398 17.2065 62.7936 22.6022 65.6067 29.3935C68.4197 36.1848 68.4197 43.8154 65.6067 50.6067C62.7936 57.398 57.398 62.7936 50.6067 65.6067C43.8154 68.4197 36.1848 68.4197 29.3935 65.6067C22.6022 62.7936 17.2065 57.398 14.3935 50.6067C11.5804 43.8154 11.5804 36.1848 14.3935 29.3935C17.2065 22.6022 22.6022 17.2065 29.3935 14.3935Z" stroke="currentColor" stroke-linecap="round" stroke-linejoin="round" />
  <path d="M35.1926 12.6953L33.7921 14.1726C33.1305 14.8704 32.2086 15.2618 31.2471 15.2531C29.5165 15.2373 28.0399 16.5015 27.7889 18.2139L27.7718 18.3307C27.6243 19.3367 27.0582 20.2334 26.2133 20.799L25.4078 21.3383C24.5018 21.9449 23.9967 22.9958 24.0889 24.0822L24.1314 24.5825C24.2292 25.7342 23.4902 26.7915 22.3749 27.0953C21.3609 27.3717 20.2853 26.9545 19.7227 26.0668L19.1771 25.2057C18.7559 24.5411 18.1758 24.0634 17.5269 23.7759" stroke="currentColor" stroke-linecap="round" stroke-linejoin="round" />
  <path d="M37.4641 12.3909L37.3195 12.6079C36.6557 13.6041 37.1518 14.9583 38.3021 15.2899C38.9532 15.4776 39.6543 15.2771 40.1077 14.7735L42.2742 12.3672" stroke="currentColor" stroke-linecap="round" stroke-linejoin="round" />
  <path d="M30.574 28.2655C29.548 29.3282 29.7537 31.0645 30.9995 31.8581C32.0433 32.523 33.4245 32.2585 34.1487 31.255L34.3779 30.9374C34.7775 30.3838 34.9569 29.7014 34.8813 29.0228L34.7686 28.0115C34.7361 27.7191 34.8036 27.4243 34.9601 27.1752L35.0329 27.0594C35.4571 26.3845 35.116 25.4913 34.3499 25.2709C33.9239 25.1483 33.4649 25.2711 33.157 25.59L30.574 28.2655Z" stroke="currentColor" stroke-linecap="round" stroke-linejoin="round" />
  <path d="M21.595 33.3997C20.8155 32.1798 21.5081 30.5579 22.9283 30.2773C23.5648 30.1515 24.2234 30.3338 24.7048 30.769L30.1216 35.6666C30.9797 36.4424 31.0165 37.7776 30.2023 38.5996C29.6983 39.1084 28.9634 39.3139 28.2686 39.1402L26.5063 38.6996C25.341 38.4083 24.3313 37.6819 23.6845 36.6697L21.595 33.3997Z" stroke="currentColor" stroke-linecap="round" stroke-linejoin="round" />
  <path d="M37.8553 38.0376C36.8269 37.9957 36.0874 37.0327 36.3125 36.0283C36.4814 35.2748 37.1503 34.7393 37.9224 34.7393H43.1341C44.0338 34.7393 44.7362 35.5171 44.6447 36.4122C44.6006 36.8438 44.3739 37.236 44.0219 37.4896L43.6692 37.7438C43.2179 38.0691 42.6704 38.2337 42.1144 38.211L37.8553 38.0376Z" stroke="currentColor" stroke-linecap="round" stroke-linejoin="round" />
  <path d="M34.6356 43.241C35.8992 41.9401 37.6096 41.1673 39.421 41.079L39.6615 41.0673C42.0089 40.9529 44.2819 41.9075 45.8437 43.6638L47.0282 44.9958C47.9781 46.0638 48.5028 47.4434 48.5028 48.8727V51.2917C48.5028 53.1779 46.9737 54.7069 45.0876 54.7069C44.2221 54.7069 43.3888 54.3783 42.7563 53.7874L42.1948 53.263C41.2016 52.3351 39.893 51.819 38.5338 51.819H37.0965C34.7073 51.819 32.7226 49.9759 32.5462 47.5933C32.4498 46.2926 32.9147 45.0128 33.8234 44.0773L34.6356 43.241Z" stroke="currentColor" stroke-linecap="round" stroke-linejoin="round" />
  <path d="M56.524 53.1913L55.3639 54.8706C54.7136 55.812 53.3333 55.8426 52.6419 54.931C52.2041 54.3538 52.1854 53.561 52.5956 52.9638L53.7511 51.2813C54.3302 50.438 55.5214 50.3019 56.2758 50.9928C56.896 51.5608 57.002 52.4993 56.524 53.1913Z" stroke="currentColor" stroke-linecap="round" stroke-linejoin="round" />
</svg>