<svg width="80" height="80" viewBox="0 0 80 80" fill="none" xmlns="http://www.w3.org/2000/svg">
  <path d="M8.8125 66.375C8.8125 66.6511 9.03636 66.875 9.3125 66.875H46.3938C52.695 66.875 58.8086 64.7305 63.729 60.7941L69.6551 56.0533C71.2723 54.7595 71.5345 52.3996 70.2408 50.7824C68.947 49.1652 66.5871 48.903 64.9699 50.1967L59.0438 54.9376C58.2404 55.5804 57.2235 55.875 56.1945 55.875H34.8124C34.6744 55.875 34.5625 55.7631 34.5625 55.6251C34.5625 55.4896 34.6705 55.3787 34.806 55.3768C34.897 55.3756 34.988 55.375 35.0791 55.375H44.8125C46.8836 55.375 48.5625 53.6961 48.5625 51.625C48.5625 49.5539 46.8836 47.875 44.8125 47.875H35.0791C30.4929 47.875 25.9925 49.0114 21.974 51.1644C20.6071 51.8968 19.1042 52.375 17.5535 52.375H9.3125C9.03636 52.375 8.8125 52.5989 8.8125 52.875V66.375Z" stroke="currentColor" stroke-linecap="round" stroke-linejoin="round" />
  <path d="M38.0625 28.4238V38.9999" stroke="currentColor" stroke-linecap="round" stroke-linejoin="round" />
  <path d="M34.9997 32.39C29.9257 32.39 25.8125 28.2469 25.8125 23.1361C25.8125 22.055 25.9966 21.0172 26.3348 20.0527C28.0653 20.1397 29.7681 20.5929 31.3288 21.3938C33.6539 22.5871 35.5442 24.4912 36.7289 26.8331C37.5242 28.4053 37.9741 30.1208 38.0604 31.864C37.103 32.2046 36.0728 32.39 34.9997 32.39Z" stroke="currentColor" stroke-linecap="round" stroke-linejoin="round" />
  <path d="M42 28.8648C48.5239 28.8648 53.8125 23.5379 53.8125 16.9667C53.8125 15.5767 53.5759 14.2424 53.141 13.0024C50.9159 13.1143 48.7264 13.6969 46.7196 14.7268C43.7301 16.261 41.2996 18.7092 39.7764 21.7203C38.7539 23.7417 38.1754 25.9472 38.0645 28.1885C39.2955 28.6265 40.6201 28.8648 42 28.8648Z" stroke="currentColor" stroke-linecap="round" stroke-linejoin="round" />
</svg>