<svg width="80" height="80" viewBox="0 0 80 80" fill="none" xmlns="http://www.w3.org/2000/svg">
  <path d="M21.5201 21C20.3101 21 19.2186 21.7268 18.7521 22.8432L12.0782 38.8128C12.041 38.9018 12.1064 39 12.2029 39H12V59H68V39H67.81C67.9003 39 67.9616 38.908 67.9267 38.8247L61.2479 22.8432C60.7814 21.7268 59.6898 21 58.4799 21H21.5201Z" stroke="currentColor" stroke-linecap="round" stroke-linejoin="round" />
  <path d="M13 39H67" stroke="currentColor" stroke-linecap="round" stroke-linejoin="round" />
  <path d="M60 45V53" stroke="currentColor" stroke-linecap="round" stroke-linejoin="round" />
  <path d="M52 45V53" stroke="currentColor" stroke-linecap="round" stroke-linejoin="round" />
  <path d="M20 49C20 47.8954 20.8954 47 22 47C23.1046 47 24 47.8954 24 49C24 50.1046 23.1046 51 22 51C20.8954 51 20 50.1046 20 49Z" stroke="currentColor" stroke-linecap="round" stroke-linejoin="round" />
</svg>