<svg width="80" height="80" viewBox="0 0 80 80" fill="none" xmlns="http://www.w3.org/2000/svg">
  <path d="M47 60V68.25C47 69.3546 46.1046 70.25 45 70.25H23C21.8954 70.25 21 69.3546 21 68.25V51.6096C20.8428 51.4664 20.6874 51.321 20.5336 51.1734L20.1714 50.8257C15.5899 46.4274 13 40.351 13 34C13 27.649 15.5899 21.5726 20.1714 17.1743L20.5336 16.8266C25.0966 12.4461 31.1768 10 37.5021 10H38.4979C44.8232 10 50.9034 12.4461 55.4664 16.8266L55.8286 17.1743C58.7645 19.9928 60.8825 23.5003 62.0253 27.3276C62.0771 27.3684 62.1174 27.4259 62.137 27.4971L65.6148 40.1932C65.6359 40.2703 65.6546 40.3473 65.671 40.4242" stroke="currentColor" stroke-linecap="round" stroke-linejoin="round" />
  <path d="M55 32.75L52.9303 31.9739C52.3404 31.7527 52.3888 30.9028 53 30.75L55 30.25" stroke="currentColor" stroke-linecap="round" stroke-linejoin="round" />
  <path d="M43.6212 41.5149C43.8438 40.6246 44.6438 40 45.5615 40H64.4384C65.7396 40 66.6943 41.2228 66.3787 42.4851L63.5149 53.9403C62.6246 57.5016 59.4247 60 55.7538 60H41.5615C40.2604 60 39.3057 58.7772 39.6212 57.5149L43.6212 41.5149Z" stroke="currentColor" stroke-linecap="round" stroke-linejoin="round" />
  <path d="M65.375 46.5H52M63.625 53.5H52" stroke="currentColor" stroke-linecap="round" stroke-linejoin="round" />
  <path d="M39.895 56.4206C39.5099 57.961 37.5696 58.46 36.4892 57.2964L22.2926 42.0078C19.574 39.0801 22.3548 34.4146 26.2233 35.4129L42.0781 39.5045C43.1419 39.779 43.7851 40.8603 43.5187 41.9261" stroke="currentColor" stroke-linecap="round" stroke-linejoin="round" />
</svg>