<svg width="80" height="80" viewBox="0 0 80 80" fill="none" xmlns="http://www.w3.org/2000/svg">
  <path d="M36.6372 20.2978C34.0733 17.9907 30.7394 16.7051 27.273 16.7051C23.5599 16.7051 19.999 18.1801 17.3735 20.8056C14.7479 23.4311 13.2729 26.992 13.2729 30.7051C13.2729 34.4181 14.7479 37.9791 17.3735 40.6046L38.5867 61.8178C39.3677 62.5988 40.634 62.5988 41.4151 61.8178L62.6283 40.6046C65.2538 37.9791 66.7288 34.4181 66.7288 30.7051C66.7288 26.992 65.2538 23.4311 62.6283 20.8056C60.0028 18.1801 56.4418 16.7051 52.7288 16.7051C50.9002 16.7051 49.1085 17.0628 47.4473 17.7395" stroke="currentColor" stroke-linecap="round" stroke-linejoin="round" />
  <path d="M36.6373 20.298L32.6189 30.1918C32.3926 30.7489 32.7057 31.3784 33.2865 31.534L39.9611 33.3224C40.5647 33.4842 40.8738 34.1538 40.6052 34.7181L34.5576 47.4238C34.3913 47.7733 34.8634 48.0705 35.1066 47.7694L49.2226 30.2938C49.6772 29.731 49.4023 28.8867 48.7035 28.6995L42.8846 27.1403C42.7149 27.0948 42.6311 26.9037 42.7127 26.7481L47.4474 17.7397" stroke="currentColor" stroke-linecap="round" stroke-linejoin="round" />
</svg>