<svg width="80" height="80" viewBox="0 0 80 80" fill="none" xmlns="http://www.w3.org/2000/svg">
  <path d="M39.7279 23.9285L36.8995 21.1C34.274 18.4745 30.713 16.9995 27 16.9995C23.287 16.9995 19.726 18.4745 17.1005 21.1C14.475 23.7255 13 27.2865 13 30.9995C13 34.7125 14.475 38.2735 17.1005 40.899L31.1813 54.9798C31.2016 55.0003 31.222 55.0208 31.2425 55.0413L38.3136 62.1124C38.7041 62.5029 39.216 62.6982 39.7279 62.6982" stroke="currentColor" stroke-linecap="round" stroke-linejoin="round" />
  <path d="M39.728 23.9283L42.5563 21.1C45.1818 18.4745 48.7428 16.9995 52.4558 16.9995C56.1688 16.9995 59.7298 18.4745 62.3553 21.1C64.9808 23.7255 66.4558 27.2865 66.4558 30.9995C66.4558 34.7125 64.9808 38.2735 62.3553 40.899L41.1421 62.1122C40.7516 62.5027 40.2398 62.698 39.728 62.698" stroke="currentColor" stroke-linecap="round" stroke-linejoin="round" />
</svg>