<svg width="80" height="80" viewBox="0 0 80 80" fill="none" xmlns="http://www.w3.org/2000/svg">
  <path d="M21.5627 43.5348C20.7816 44.3158 19.5153 44.3158 18.7343 43.5348L15.8999 40.7004C10.4324 35.233 10.4324 26.3684 15.8999 20.9009C21.3674 15.4334 30.232 15.4334 35.6995 20.9009L37.7224 22.9239C37.7479 22.9479 37.7731 22.9723 37.798 22.9973L45.9859 31.1851C47.3357 32.5349 47.3357 34.7232 45.9859 36.073C44.6362 37.4227 42.4478 37.4227 41.098 36.073L36.4755 31.4504C35.6944 30.6694 34.4281 30.6694 33.647 31.4504" stroke="currentColor" stroke-linecap="round" stroke-linejoin="round" />
  <path d="M33.6473 31.4502L22.4134 42.6842C21.239 44.042 21.2965 46.0969 22.586 47.3864C23.9358 48.7362 26.1242 48.7362 27.4739 47.3864L36.6537 38.2067" stroke="currentColor" stroke-linecap="round" stroke-linejoin="round" />
  <path d="M36.6943 38.2476L36.7351 38.2883L27.5553 47.4681C26.2055 48.8179 26.2055 51.0062 27.5553 52.356C28.905 53.7057 31.0934 53.7057 32.4432 52.356L41.6229 43.1762L41.6635 43.2168" stroke="currentColor" stroke-linecap="round" stroke-linejoin="round" />
  <path d="M41.7043 43.2573L32.5245 52.4371C31.1748 53.7868 31.1748 55.9752 32.5245 57.325C33.8743 58.6747 36.0626 58.6747 37.4124 57.325L46.5922 48.1452L46.6328 48.1858" stroke="currentColor" stroke-linecap="round" stroke-linejoin="round" />
  <path d="M39.9426 25.1418L44.1873 20.8971C49.6536 15.4308 58.5162 15.4308 63.9825 20.8971C69.4488 26.3634 69.4488 35.226 63.9825 40.6923L61.787 42.8878C61.7751 42.9 61.7632 42.9122 61.7511 42.9243L42.3811 62.2942C41.0314 63.644 38.843 63.644 37.4933 62.2942C36.1435 60.9445 36.1435 58.7561 37.4933 57.4063L46.673 48.2266" stroke="currentColor" stroke-linecap="round" stroke-linejoin="round" />
</svg>