<svg width="80" height="80" viewBox="0 0 80 80" fill="none" xmlns="http://www.w3.org/2000/svg">
  <path d="M37.9524 11.5396C34.7585 11.8309 31.6128 12.8054 28.7417 14.463C21.775 18.4852 17.4834 25.9186 17.4834 33.963C17.4834 42.0074 21.775 49.4408 28.7417 53.463C29.2051 53.7306 29.6757 53.9803 30.1524 54.2122C30.5357 54.477 30.9315 54.7276 31.3391 54.963C34.7153 56.9122 38.5849 57.6334 42.3263 57.1266L40.927 68.4606C44.5031 68.3134 48.052 67.3142 51.2584 65.463C58.2251 61.4408 62.5167 54.0074 62.5167 45.963C62.5167 37.9185 58.2251 30.4852 51.2584 26.463C50.7937 26.1946 50.3218 25.9442 49.8436 25.7117C49.4612 25.4476 49.0663 25.1977 48.6597 24.963C44.9411 22.816 40.6237 22.1588 36.5386 22.9914L37.9524 11.5396Z" stroke="currentColor" stroke-linecap="round" stroke-linejoin="round" />
  <path d="M36.5354 33.9629C38.679 32.7253 41.32 32.7253 43.4636 33.9629C45.6072 35.2005 46.9277 37.4877 46.9277 39.9629C46.9277 42.4381 45.6072 44.7253 43.4636 45.9629C41.32 47.2005 38.679 47.2005 36.5354 45.9629C34.3918 44.7253 33.0713 42.4381 33.0713 39.9629C33.0713 37.4877 34.3918 35.2005 36.5354 33.9629Z" stroke="currentColor" stroke-linecap="round" stroke-linejoin="round" />
</svg>