<svg viewBox="0 0 80 80" fill="none">
  <path d="M28.2624 44.7639C27.7269 43.1158 26.1911 42 24.4582 42H12C9.79086 42 8 43.7909 8 46V64C8 66.2091 9.79086 68 12 68H68C70.2091 68 72 66.2091 72 64V46C72 43.7909 70.2091 42 68 42H55.5418C53.8089 42 52.2731 43.1158 51.7376 44.7639L50.3026 49.1803C49.7671 50.8284 48.2313 51.9443 46.4984 51.9443H33.5016C31.7687 51.9443 30.2329 50.8284 29.6974 49.1803L28.2624 44.7639Z" stroke="currentColor" stroke-linecap="round" stroke-linejoin="round" />
  <path d="M72 46V16C72 13.7909 70.2091 12 68 12H12C9.79086 12 8 13.7909 8 16V46" stroke="currentColor" stroke-linecap="round" stroke-linejoin="round" />
</svg>