<svg width="80" height="80" viewBox="0 0 80 80" fill="none" xmlns="http://www.w3.org/2000/svg">
  <path d="M21.3964 12.9816L10.9091 21.3475L8 69.5001H72L69.0909 21.3475L58.6036 12.9816C46.2669 14.6447 33.7331 14.6447 21.3964 12.9816Z" stroke="currentColor" stroke-linecap="round" stroke-linejoin="round" />
  <path d="M56.1328 13.2921C57.2975 13.1563 58.3424 14.0295 58.3957 15.201L59.7236 44.415C59.7659 45.3462 59.1599 46.186 58.2567 46.4162C46.2794 49.4695 33.7209 49.4695 21.7436 46.4162C20.8404 46.186 20.2344 45.3462 20.2767 44.415L21.6047 15.201C21.6579 14.0296 22.7028 13.1564 23.8675 13.2922" stroke="currentColor" stroke-linecap="round" stroke-linejoin="round" />
  <path d="M8 69.5L20.3098 44.8804" stroke="currentColor" stroke-linecap="round" stroke-linejoin="round" />
  <path d="M72 69.5L59.6904 44.8807" stroke="currentColor" stroke-linecap="round" stroke-linejoin="round" />
</svg>