<svg width="80" height="80" viewBox="0 0 80 80" fill="none" xmlns="http://www.w3.org/2000/svg">
  <path d="M39.6736 29.5935C40.1766 29.3779 40.7461 29.3779 41.2492 29.5935L64.172 39.4175C65.7883 40.1102 65.7883 42.4015 64.172 43.0941L41.2492 52.9182C40.7461 53.1338 40.1767 53.1338 39.6736 52.9182L16.7507 43.0941C15.1345 42.4015 15.1345 40.1102 16.7507 39.4175L39.6736 29.5935Z" stroke="currentColor" stroke-linecap="round" stroke-linejoin="round" />
  <path d="M24.6601 47.0278L16.7507 50.4176C15.1345 51.1102 15.1345 53.4015 16.7507 54.0941L39.6736 63.9182C40.1767 64.1338 40.7461 64.1338 41.2492 63.9182L64.172 54.0941C65.7883 53.4015 65.7883 51.1102 64.172 50.4176L56.2627 47.0278" stroke="currentColor" stroke-linecap="round" stroke-linejoin="round" />
  <path d="M68.4614 22.2559H52.4614" stroke="currentColor" stroke-linecap="round" stroke-linejoin="round" />
</svg>