<svg width="80" height="80" viewBox="0 0 80 80" fill="none" xmlns="http://www.w3.org/2000/svg">
  <path d="M11.7822 68.7986L12.0873 67.8051C14.7149 59.2485 19.3889 51.4041 25.721 44.9237L26.8397 43.7787C32.7362 37.744 40.067 33.2261 48.166 30.6352L49.4999 30.2085" stroke="currentColor" stroke-linecap="round" stroke-linejoin="round" />
  <path d="M37.3102 62.0496C37.3734 62.0501 37.4366 62.0503 37.4999 62.0503C47.3939 62.0503 56.5911 56.6407 61.4999 48.0503C66.4188 39.4422 66.4188 28.6584 61.4999 20.0503C59.2723 16.152 56.1616 12.9088 52.5035 10.5288C52.1656 11.6879 51.6937 12.8177 51.0878 13.8948L50.9125 14.2064C48.1869 19.0519 43.0597 22.0506 37.5002 22.0506C37.315 22.0506 37.1303 22.0473 36.9461 22.0406V22.0501H35.8247C28.7994 22.0501 22.2893 25.736 18.6748 31.7601C14.8747 38.0938 14.8747 46.0063 18.6748 52.34C22.2893 58.3641 28.7994 62.0501 35.8247 62.0501H37.1771C37.2215 62.0501 37.2659 62.0499 37.3102 62.0496Z" stroke="currentColor" stroke-linecap="round" stroke-linejoin="round" />
</svg>