<svg width="80" height="80" viewBox="0 0 80 80" fill="none" xmlns="http://www.w3.org/2000/svg">
  <path d="M29.8675 51.0002H28C24.287 51.0002 20.726 49.5252 18.1005 46.8997C15.475 44.2742 14 40.7132 14 37.0002C14 33.2872 15.475 29.7262 18.1005 27.1007C19.9441 25.2571 22.2489 23.9808 24.7436 23.3841C25.456 20.5805 26.895 17.9961 28.9507 15.9068C32.0419 12.7652 36.275 11 40.7183 11C45.1616 11 49.4515 12.7652 52.6438 15.9068C55.836 19.0484 57.6698 23.3094 57.7413 27.7521L57.7671 29.3537C59.6471 29.8424 61.3812 30.8248 62.7782 32.2218C64.8411 34.2847 66 37.0826 66 40C66 42.9174 64.8411 45.7153 62.7782 47.7782C60.7153 49.8411 57.9174 51 55 51H50.0851" stroke="currentColor" stroke-linecap="round" stroke-linejoin="round" />
  <path d="M36.5376 54.5814L28.59 54.5814C28.1143 54.5814 27.8307 54.0511 28.0948 53.6555L42.3243 32.3382C42.6513 31.8484 43.4149 32.0798 43.4149 32.6687V47.4182L51.3624 47.4182C51.8381 47.4182 52.1217 47.9485 51.8576 48.3442L37.6282 69.6614C37.3012 70.1512 36.5376 69.9198 36.5376 69.3309V54.5814Z" stroke="currentColor" stroke-linecap="round" stroke-linejoin="round" />
</svg>