<svg width="80" height="80" viewBox="0 0 80 80" fill="none" xmlns="http://www.w3.org/2000/svg">
  <path d="M46.5936 16.6897C42.0661 14.8144 36.979 14.8144 32.4514 16.6897C27.9239 18.5651 24.3268 22.1622 22.4514 26.6897C20.5761 31.2173 20.5761 36.3043 22.4514 40.8319C23.7094 43.8689 25.7421 46.4872 28.3106 48.4481C30.1445 49.8481 31.5234 51.8848 31.5234 54.192V59.7617C31.5234 63.0754 34.2097 65.7617 37.5234 65.7617H41.5234C44.8371 65.7617 47.5234 63.0754 47.5234 59.7617V54.1906C47.5234 51.8837 48.9021 49.8471 50.7357 48.4471C53.3036 46.4863 55.3358 43.8684 56.5936 40.8319C58.4689 36.3043 58.4689 31.2173 56.5936 26.6897C54.7182 22.1622 51.1211 18.5651 46.5936 16.6897Z" stroke="currentColor" stroke-linecap="round" stroke-linejoin="round" />
  <path d="M47.3348 61.2607H31.7124" stroke="currentColor" stroke-linecap="round" stroke-linejoin="round" />
  <path d="M47.5234 56.2607H31.5234" stroke="currentColor" stroke-linecap="round" stroke-linejoin="round" />
</svg>