<svg width="80" height="80" viewBox="0 0 80 80" fill="none" xmlns="http://www.w3.org/2000/svg">
  <path d="M8 40.0833C8 39.0708 8.82081 38.25 9.83333 38.25H50.1667C51.1792 38.25 52 39.0708 52 40.0833V66.4167C52 67.4292 51.1792 68.25 50.1667 68.25H9.83333C8.82081 68.25 8 67.4292 8 66.4167V40.0833Z" stroke="currentColor" stroke-linecap="round" stroke-linejoin="round" />
  <path d="M27 56.25C28.6568 57.9068 31.3431 57.9068 33 56.25C34.6568 54.5931 34.6568 51.9068 33 50.25C31.3431 48.5931 28.6568 48.5931 27 50.25C25.3431 51.9068 25.3431 54.5931 27 56.25Z" stroke="currentColor" stroke-linecap="round" stroke-linejoin="round" />
  <path d="M43.5 38.25V26.75C43.5 19.2942 49.5442 13.25 57 13.25C64.4558 13.25 70.5 19.2942 70.5 26.75V35.25" stroke="currentColor" stroke-linecap="round" stroke-linejoin="round" />
</svg>