<svg width="80" height="80" viewBox="0 0 80 80" fill="none" xmlns="http://www.w3.org/2000/svg">
  <path d="M22 13H30C30 15.2091 31.7909 17 34 17H46C48.2091 17 50 15.2091 50 13H58C60.2091 13 62 14.7909 62 17V65C62 67.2091 60.2091 69 58 69H22C19.7909 69 18 67.2091 18 65V17C18 14.7909 19.7909 13 22 13Z" stroke="currentColor" stroke-linecap="round" stroke-linejoin="round" />
  <path d="M30 13C30 10.7909 31.7909 9 34 9H46C48.2091 9 50 10.7909 50 13C50 15.2091 48.2091 17 46 17H34C31.7909 17 30 15.2091 30 13Z" stroke="currentColor" stroke-linecap="round" stroke-linejoin="round" />
  <path d="M37 8C37 7.44772 37.4477 7 38 7H42C42.5523 7 43 7.44772 43 8C43 8.55228 42.5523 9 42 9H38C37.4477 9 37 8.55228 37 8Z" stroke="currentColor" stroke-linecap="round" stroke-linejoin="round" />
  <path d="M35.9999 52.3078C35.9999 53.4123 36.8954 54.3078 37.9999 54.3078H41.9999C43.1045 54.3078 43.9999 53.4123 43.9999 52.3078L43.9999 46.0385C43.9999 46.0174 44.0171 46.0002 44.0383 46.0002H50.3075C51.4121 46.0002 52.3075 45.1048 52.3075 44.0002V40.0002C52.3075 38.8956 51.4121 38.0002 50.3075 38.0002H44.0385C44.0172 38.0002 43.9999 37.9829 43.9999 37.9616L44 31.6924C44 30.5878 43.1045 29.6924 42 29.6924L38 29.6924C36.8954 29.6924 36 30.5878 36 31.6924L35.9999 37.9616C35.9999 37.9829 35.9827 38.0002 35.9614 38.0002H29.6921C28.5876 38.0002 27.6921 38.8956 27.6921 40.0002L27.6921 44.0002C27.6921 45.1048 28.5876 46.0002 29.6921 46.0002L35.9616 46.0002C35.9828 46.0002 35.9999 46.0174 35.9999 46.0385V52.3078Z" stroke="currentColor" stroke-linecap="round" stroke-linejoin="round" />
</svg>