<svg width="80" height="80" viewBox="0 0 80 80" fill="none" xmlns="http://www.w3.org/2000/svg">
  <path d="M12 29.2308C12 28.7003 12.2107 28.1916 12.5858 27.8166L27.8166 12.5858C28.1916 12.2107 28.7003 12 29.2308 12H50.7692C51.2997 12 51.8084 12.2107 52.1834 12.5858L67.4142 27.8166C67.7893 28.1916 68 28.7003 68 29.2308V50.7699C68 51.3003 67.7893 51.809 67.4142 52.1841L52.1841 67.4142C51.809 67.7893 51.3003 68 50.7699 68H29.2301C28.6997 68 28.191 67.7893 27.8159 67.4142L12.5858 52.1841C12.2107 51.809 12 51.3003 12 50.7699V29.2308Z" stroke="currentColor" stroke-linecap="round" stroke-linejoin="round" />
</svg>