<svg width="80" height="80" viewBox="0 0 80 80" fill="none" xmlns="http://www.w3.org/2000/svg">
  <path d="M55.8074 62.4657C55.0938 63.8662 53.6239 64.7361 52.0613 64.5658C51.3897 64.4926 50.7188 64.403 50.0491 64.297C41.3208 62.9145 33.2542 58.8044 27.0054 52.5556C20.7566 46.3068 16.6465 38.2402 15.2641 29.5119C15.1581 28.8427 15.0685 28.1722 14.9953 27.5011C14.825 25.9384 15.6949 24.4685 17.0955 23.7549L23.2248 20.6319C25.597 19.4232 28.4673 20.8331 29.3015 23.3613C29.8075 24.8948 30.405 26.4037 31.0934 27.88C31.4384 28.6197 31.8043 29.3472 32.1904 30.0618C33.1045 31.7536 32.4879 33.9236 30.7373 34.7193C28.1948 35.875 27.5892 39.2144 29.5641 41.1892L38.3718 49.9969C40.3466 51.9718 43.686 51.3662 44.8417 48.8237C45.6813 46.9766 47.9571 46.3078 49.7642 47.2304C50.2024 47.4541 50.6451 47.6703 51.0923 47.8788C52.7867 48.6689 54.5242 49.3394 56.2924 49.889C58.8666 50.6893 60.3278 53.5938 59.1039 55.9958L55.8074 62.4657Z" stroke="currentColor" stroke-linecap="round" stroke-linejoin="round" />
  <path d="M44.6509 23.8467L53.7418 23.8467L55.56 23.8467L64.6509 23.8467" stroke="currentColor" stroke-linecap="round" stroke-linejoin="round" />
  <path d="M54.6509 13.8467L54.6509 22.9376L54.6509 24.7558L54.6509 33.8467" stroke="currentColor" stroke-linecap="round" stroke-linejoin="round" />
</svg>