<svg width="80" height="80" viewBox="0 0 80 80" fill="none" xmlns="http://www.w3.org/2000/svg">
  <path d="M39.648 66.8404L39.648 75.0615" stroke="currentColor" stroke-linecap="round" stroke-linejoin="round" />
  <path d="M27.1664 54.3658C27.1564 54.3658 27.1483 54.3577 27.1483 54.3477L27.1483 50.0136C27.1483 49.1516 27.8471 48.4528 28.7091 48.4528L50.5875 48.4528C51.4495 48.4528 52.1483 49.1516 52.1483 50.0136V54.3477C52.1483 54.3577 52.1402 54.3658 52.1302 54.3658C52.1202 54.3658 52.1121 54.3739 52.1121 54.3839C52.1097 55.9894 51.7913 57.5946 51.1568 59.1041C49.9002 62.0938 47.5075 64.462 44.505 65.6876L44.3866 65.7359C41.3494 66.9758 37.9472 66.9758 34.91 65.7359L34.7917 65.6876C31.7891 64.462 29.3964 62.0938 28.1398 59.1041C27.5054 57.5946 27.1869 55.9894 27.1846 54.3839C27.1846 54.3739 27.1764 54.3658 27.1664 54.3658Z" stroke="currentColor" stroke-linecap="round" stroke-linejoin="round" />
  <path d="M29.1481 48.4527L29.1481 41.0614C29.1481 39.4046 30.4913 38.0614 32.1481 38.0614C33.805 38.0614 35.1481 39.4046 35.1481 41.0614L35.1481 48.4527" stroke="currentColor" stroke-linecap="round" stroke-linejoin="round" />
  <path d="M44.148 48.453L44.148 41.0617C44.148 39.4048 45.4912 38.0617 47.148 38.0617C48.8049 38.0617 50.148 39.4048 50.148 41.0617L50.148 48.453" stroke="currentColor" stroke-linecap="round" stroke-linejoin="round" />
  <path d="M27.1662 24.9287C27.1562 24.9287 27.1481 24.9369 27.1481 24.9469L27.1481 29.281C27.1481 30.143 27.8469 30.8418 28.7089 30.8418L50.5873 30.8418C51.4493 30.8418 52.1481 30.143 52.1481 29.281V24.9469C52.1481 24.9369 52.14 24.9288 52.1299 24.9288C52.1199 24.9288 52.1118 24.9206 52.1118 24.9106C52.1094 23.3051 51.791 21.7 51.1565 20.1904C49.8999 17.2007 47.5072 14.8326 44.5047 13.6069L44.3864 13.5586C41.3492 12.3188 37.947 12.3188 34.9098 13.5586L34.7914 13.6069C31.7889 14.8326 29.3962 17.2007 28.1396 20.1904C27.5051 21.7 27.1867 23.3051 27.1843 24.9106C27.1843 24.9206 27.1762 24.9287 27.1662 24.9287Z" stroke="currentColor" stroke-linecap="round" stroke-linejoin="round" />
  <path d="M39.6481 12.5364L39.6481 4.23314" stroke="currentColor" stroke-linecap="round" stroke-linejoin="round" />
</svg>