<svg width="80" height="80" viewBox="0 0 80 80" fill="none" xmlns="http://www.w3.org/2000/svg">
  <path d="M22 57H12.625C12.2798 57 12 56.7202 12 56.375V44C12 40.134 15.134 37 19 37H61C64.866 37 68 40.134 68 44V56.375C68 56.7202 67.7202 57 67.375 57H58" stroke="currentColor" stroke-linecap="round" stroke-linejoin="round" />
  <path d="M57.9512 37.0004C57.9781 37.0004 58 36.9785 58 36.9516V28.3999C58 27.3565 57.5923 26.3543 56.8638 25.6073L56.781 25.5224L44.8342 13.2715L44.7758 13.2116C44.0231 12.4397 42.9907 12.0044 41.9125 12.0042L26.0005 12.0024C23.7911 12.0022 22 13.7931 22 16.0024L22 36.9468C22 36.9764 22.024 37.0004 22.0536 37.0004" stroke="currentColor" stroke-linecap="round" stroke-linejoin="round" />
  <path d="M44.8887 13.3219C44.4184 12.8395 43.6 13.1725 43.6 13.8462V22.7694C43.6 24.9785 45.3908 26.7694 47.6 26.7694H56.2C56.8715 26.7694 57.2122 25.9614 56.7434 25.4806" stroke="currentColor" stroke-linecap="round" stroke-linejoin="round" />
  <path d="M22 49C22 47.8954 22.8954 47 24 47H56C57.1046 47 58 47.8954 58 49V66C58 67.1046 57.1046 68 56 68H24C22.8954 68 22 67.1046 22 66V49Z" stroke="currentColor" stroke-linecap="round" stroke-linejoin="round" />
</svg>