<svg width="80" height="80" viewBox="0 0 80 80" fill="none" xmlns="http://www.w3.org/2000/svg">
  <path d="M34 36.4141V34C34 28.4772 38.4772 24 44 24C46.2091 24 48 22.2091 48 20C48 17.7909 46.2091 16 44 16C34.0589 16 26 24.0589 26 34V53C26 58.0351 29.383 62.2801 34 63.5859" stroke="currentColor" stroke-linecap="round" stroke-linejoin="round" />
  <path d="M34 36.4141C34.9537 36.1443 35.96 36 37 36H43C49.0751 36 54 40.9249 54 47V53C54 59.0751 49.0751 64 43 64H37C35.96 64 34.9537 63.8557 34 63.5859" stroke="currentColor" stroke-linecap="round" stroke-linejoin="round" />
</svg>