<svg width="80" height="80" viewBox="0 0 80 80" fill="none" xmlns="http://www.w3.org/2000/svg">
  <path d="M16 36.4141V34C16 28.4772 20.4772 24 26 24C28.2091 24 30 22.2091 30 20C30 17.7909 28.2091 16 26 16C16.0589 16 8 24.0589 8 34V53C8 58.0351 11.383 62.2801 16 63.5859" stroke="currentColor" stroke-linecap="round" stroke-linejoin="round" />
  <path d="M16 36.4141C16.9537 36.1443 17.96 36 19 36H25C31.0751 36 36 40.9249 36 47V53C36 59.0751 31.0751 64 25 64H19C17.96 64 16.9537 63.8557 16 63.5859" stroke="currentColor" stroke-linecap="round" stroke-linejoin="round" />
  <path d="M52 36.4141V34C52 28.4772 56.4772 24 62 24C64.2091 24 66 22.2091 66 20C66 17.7909 64.2091 16 62 16C52.0589 16 44 24.0589 44 34V53C44 58.0351 47.383 62.2801 52 63.5859" stroke="currentColor" stroke-linecap="round" stroke-linejoin="round" />
  <path d="M52 36.4141C52.9537 36.1443 53.96 36 55 36H61C67.0751 36 72 40.9249 72 47V53C72 59.0751 67.0751 64 61 64H55C53.96 64 52.9537 63.8557 52 63.5859" stroke="currentColor" stroke-linecap="round" stroke-linejoin="round" />
</svg>