<svg width="80" height="80" viewBox="0 0 80 80" fill="none" xmlns="http://www.w3.org/2000/svg">
  <path d="M18.7 41.0708C21.4174 39.7622 24.5828 39.7622 27.3002 41.0708C30.0175 42.3794 31.9911 44.8542 32.6623 47.7947C33.3334 50.7351 32.629 53.8212 30.7486 56.1792C28.8681 58.5373 26.0162 59.9107 23.0001 59.9107C19.984 59.9107 17.1321 58.5373 15.2516 56.1792C13.3712 53.8212 12.6668 50.7351 13.3379 47.7947C14.0091 44.8542 15.9827 42.3794 18.7 41.0708Z" stroke="currentColor" stroke-linecap="round" stroke-linejoin="round" />
  <path d="M52.7 41.0708C55.4174 39.7622 58.5828 39.7622 61.3002 41.0708C64.0175 42.3794 65.9911 44.8542 66.6623 47.7947C67.3334 50.7351 66.629 53.8212 64.7486 56.1792C62.8681 58.5373 60.0162 59.9107 57.0001 59.9107C53.984 59.9107 51.1321 58.5373 49.2516 56.1792C47.3712 53.8212 46.6668 50.7351 47.3379 47.7947C48.0091 44.8542 49.9827 42.3794 52.7 41.0708Z" stroke="currentColor" stroke-linecap="round" stroke-linejoin="round" />
  <path d="M66.5694 52.5785C69.7273 51.5082 72 48.5195 72 45V43C72 36.3726 66.6274 31 60 31H8V41C8 45.0699 10.0261 48.6665 13.1247 50.8364" stroke="currentColor" stroke-linecap="round" stroke-linejoin="round" />
  <path d="M47.5544 53H32.4458" stroke="currentColor" stroke-linecap="round" stroke-linejoin="round" />
  <path d="M58.0003 31L51.8368 20.9142C51.1102 19.7252 49.8171 19 48.4237 19H34.167V31" stroke="currentColor" stroke-linecap="round" stroke-linejoin="round" />
  <path d="M14 31L34.1667 19" stroke="currentColor" stroke-linecap="round" stroke-linejoin="round" />
  <path d="M36 36H42" stroke="currentColor" stroke-linecap="round" stroke-linejoin="round" />
</svg>