<svg width="80" height="80" viewBox="0 0 80 80" fill="none" xmlns="http://www.w3.org/2000/svg">
  <path d="M40.5785 10.6969C40.4333 10.5724 40.219 10.5724 40.0738 10.6969L36.5061 13.7549C30.0448 19.2932 26.3262 27.3783 26.3262 35.8883C26.3262 38.9311 26.8025 41.955 27.738 44.8504L34.5417 65.9096C34.6517 66.25 34.9685 66.4806 35.3262 66.4806H45.3262C45.6838 66.4806 46.0007 66.25 46.1106 65.9096L52.9144 44.8504C53.8498 41.955 54.3262 38.9311 54.3262 35.8883C54.3262 27.3783 50.6075 19.2932 44.1462 13.7549L40.5785 10.6969Z" stroke="currentColor" stroke-linecap="round" stroke-linejoin="round" />
  <path d="M37.7282 25.9803C39.3359 25.0521 41.3167 25.0521 42.9244 25.9803C44.5321 26.9085 45.5224 28.6239 45.5224 30.4803C45.5224 32.3367 44.532 34.0521 42.9244 34.9803C41.3167 35.9085 39.3359 35.9085 37.7282 34.9803C36.1205 34.0521 35.1301 32.3367 35.1301 30.4803C35.1301 28.6239 36.1205 26.9085 37.7282 25.9803Z" stroke="currentColor" stroke-linecap="round" stroke-linejoin="round" />
  <path d="M27.2529 43.1797C26.7195 43.5379 26.2182 43.9491 25.7573 44.41L19.88 50.2869C17.7074 52.4593 16.9714 55.6843 17.9863 58.5842L21.5086 68.6478C21.8253 69.5526 22.9787 69.8156 23.6562 69.1375L32.6721 60.1223" stroke="currentColor" stroke-linecap="round" stroke-linejoin="round" />
  <path d="M47.8213 60.6162L56.3424 69.1373C57.0209 69.8158 58.1754 69.5524 58.4924 68.6466L62.0134 58.5865C63.0286 55.6858 62.2925 52.46 60.1194 50.2869L54.2428 44.4103C53.9432 44.1107 53.6264 43.832 53.2949 43.5752" stroke="currentColor" stroke-linecap="round" stroke-linejoin="round" />
</svg>