<svg viewBox="0 0 80 80" fill="none">
  <path d="M11.4142 11.5898C10.1543 10.3299 8 11.2222 8 13.004V70.1756C8 71.2802 8.89543 72.1756 10 72.1756H67.1716C68.9534 72.1756 69.8457 70.0213 68.5858 68.7614L11.4142 11.5898Z" stroke="currentColor" stroke-linecap="round" stroke-linejoin="round" />
  <path d="M24.4142 44.5898C23.1543 43.3299 21 44.2222 21 46.004V57.1756C21 58.2802 21.8954 59.1756 23 59.1756H34.1716C35.9534 59.1756 36.8457 57.0213 35.5858 55.7614L24.4142 44.5898Z" stroke="currentColor" stroke-linecap="round" stroke-linejoin="round" />
  <path d="M18.4182 25.9273L21.9234 22.4221" stroke="currentColor" stroke-linecap="round" stroke-linejoin="round" />
  <path d="M26.5415 35.3423L30.6926 31.1912" stroke="currentColor" stroke-linecap="round" stroke-linejoin="round" />
  <path d="M35.9565 43.4654L39.4617 39.9602" stroke="currentColor" stroke-linecap="round" stroke-linejoin="round" />
  <path d="M44.0798 52.8803L48.2309 48.7292" stroke="currentColor" stroke-linecap="round" stroke-linejoin="round" />
  <path d="M53.4949 61.0035L57 57.4983" stroke="currentColor" stroke-linecap="round" stroke-linejoin="round" />
</svg>