<svg width="80" height="80" viewBox="0 0 80 80" fill="none" xmlns="http://www.w3.org/2000/svg">
  <path d="M36 45.5005V69.5005" stroke="currentColor" stroke-linecap="round" stroke-linejoin="round" />
  <path d="M27.9999 54.5001C16.9542 54.5001 8 45.5457 8 34.5V32.5014C8 30.4107 8.32081 28.3949 8.91589 26.5005C12.9714 26.6699 16.9936 27.7053 20.6092 29.5475C25.8777 32.232 30.2677 36.6221 32.9522 41.8906C34.7944 45.5063 35.8298 49.5286 35.9992 53.5842C34.1049 54.1793 32.0891 54.5001 29.9984 54.5001H27.9999Z" stroke="currentColor" stroke-linecap="round" stroke-linejoin="round" />
  <path d="M46.2851 46.5C60.487 46.5 72 34.987 72 20.7848V18.2152C72 15.5272 71.5875 12.9355 70.8225 10.5C65.6081 10.7178 60.4364 12.049 55.7877 14.4177C49.0137 17.8693 43.3692 23.5138 39.9177 30.2879C37.5491 34.9366 36.2178 40.1081 36 45.3225C38.4356 46.0876 41.0274 46.5 43.7155 46.5H46.2851Z" stroke="currentColor" stroke-linecap="round" stroke-linejoin="round" />
</svg>