<svg width="80" height="80" viewBox="0 0 80 80" fill="none" xmlns="http://www.w3.org/2000/svg">
  <path d="M39.9999 67.7134C37.0785 66.2157 34.3144 64.387 31.7658 62.2485C23.8171 55.5787 18.4724 46.3215 16.6706 36.1028C15.6134 30.1074 15.8155 24.0059 17.2109 18.1717C19.6358 16.7096 22.2103 15.4756 24.9041 14.4952C29.7796 12.7206 34.8898 11.8334 40 11.8335" stroke="currentColor" stroke-linecap="round" stroke-linejoin="round" />
  <path d="M39.9999 67.7134C42.9212 66.2157 45.6853 64.387 48.2339 62.2485C56.1827 55.5787 61.5273 46.3215 63.3291 36.1028C64.3862 30.1076 64.1843 24.0064 62.7891 18.1725C60.3637 16.7101 57.7888 15.4758 55.0945 14.4952C50.2195 12.7208 45.1097 11.8336 40 11.8335" stroke="currentColor" stroke-linecap="round" stroke-linejoin="round" />
  <path d="M38.1247 24.9961L39.2917 43.668C39.3151 44.042 39.6252 44.3333 39.9999 44.3333C40.3747 44.3333 40.6848 44.042 40.7082 43.668L41.8752 24.9961C41.9428 23.9144 41.0837 23 39.9999 23C38.9162 23 38.0571 23.9144 38.1247 24.9961Z" stroke="currentColor" stroke-linecap="round" stroke-linejoin="round" />
  <path d="M40.0001 52.3335C39.2637 52.3335 38.6667 52.9305 38.6667 53.6668C38.6667 54.4032 39.2637 55.0002 40.0001 55.0002C40.7365 55.0002 41.3334 54.4032 41.3334 53.6668C41.3334 52.9305 40.7365 52.3335 40.0001 52.3335Z" stroke="currentColor" stroke-linecap="round" stroke-linejoin="round" />
</svg>