<svg width="80" height="80" viewBox="0 0 80 80" fill="none" xmlns="http://www.w3.org/2000/svg">
  <path d="M33.3886 49.5727H23.2203L23.2129 49.5726H20.3731C17.1314 49.5726 14.0191 48.3004 11.7056 46.0295L11.6235 45.9488C9.30573 43.6737 8 40.5624 8 37.3146C8 34.0669 9.30573 30.9555 11.6235 28.6804L11.7056 28.5998C13.5867 26.7533 15.9959 25.5671 18.5734 25.1882C18.6316 24.817 18.7097 24.4475 18.8078 24.0813C19.5518 21.3034 21.3869 18.9393 23.9092 17.5099C26.4315 16.0804 29.4348 15.7025 32.2576 16.459C32.9854 16.654 33.686 16.9204 34.3501 17.2511L35.1356 15.9156C37.2774 12.2743 40.7991 9.61635 44.9174 8.53318C48.986 7.46306 53.3056 8.01715 56.9366 10.0749L57.0644 10.1474C60.6954 12.2051 63.344 15.6001 64.4342 19.5938C65.0248 21.7573 65.132 24.0011 64.7757 26.1778C66.0682 26.7693 67.261 27.5844 68.2944 28.5987L68.3765 28.6794C70.6943 30.9545 72 34.0658 72 37.3136C72 40.5613 70.6943 43.6727 68.3765 45.9478L68.2944 46.0284C65.9809 48.2993 62.8686 49.5715 59.6269 49.5715H56.8111C56.8067 49.5719 56.8024 49.5721 56.798 49.5723C56.7925 49.5725 56.7869 49.5727 56.7813 49.5727H46.6117" stroke="currentColor" stroke-linecap="round" stroke-linejoin="round" />
  <path d="M40.0003 36L52 60.6345L40.0003 72L28 60.6345L40.0003 36Z" stroke="currentColor" stroke-linecap="round" stroke-linejoin="round" />
</svg>