<svg width="80" height="80" viewBox="0 0 80 80" fill="none" xmlns="http://www.w3.org/2000/svg">
  <path d="M15.7512 53.9999L33.9613 43.462C36.6233 41.9215 36.6233 38.0783 33.9613 36.5378" stroke="currentColor" stroke-linecap="round" stroke-linejoin="round" />
  <path d="M15.7512 26L33.9823 36.5014C36.6475 38.0366 39.9758 36.1149 39.9789 33.0393" stroke="currentColor" stroke-linecap="round" stroke-linejoin="round" />
  <path d="M40 12L40.0211 33.0393C40.0242 36.1149 43.3525 38.0365 46.0176 36.5014" stroke="currentColor" stroke-linecap="round" stroke-linejoin="round" />
  <path d="M64.2486 26L46.0385 36.5379C43.3765 38.0784 43.3765 41.9216 46.0385 43.4621" stroke="currentColor" stroke-linecap="round" stroke-linejoin="round" />
  <path d="M64.2486 54.0002L46.0175 43.4988C43.3524 41.9637 40.0241 43.8853 40.021 46.9609" stroke="currentColor" stroke-linecap="round" stroke-linejoin="round" />
  <path d="M40 68.0002L39.9789 46.9609C39.9759 43.8853 36.6475 41.9637 33.9824 43.4988" stroke="currentColor" stroke-linecap="round" stroke-linejoin="round" />
  <path d="M32.2449 16.479L40.0035 23.7105L47.76 16.481" stroke="currentColor" stroke-linecap="round" stroke-linejoin="round" />
  <path d="M56.3482 21.4395L53.9656 31.7715L64.2493 34.9183" stroke="currentColor" stroke-linecap="round" stroke-linejoin="round" />
  <path d="M64.2493 44.7466L53.9656 47.8934L56.4168 58.523" stroke="currentColor" stroke-linecap="round" stroke-linejoin="round" />
  <path d="M47.9833 63.3922L40.0035 55.9546L32.0215 63.3942" stroke="currentColor" stroke-linecap="round" stroke-linejoin="round" />
  <path d="M23.5894 58.5261L26.0413 47.8937L15.752 44.7451" stroke="currentColor" stroke-linecap="round" stroke-linejoin="round" />
  <path d="M23.658 21.4365L26.0413 31.7714L15.752 34.92" stroke="currentColor" stroke-linecap="round" stroke-linejoin="round" />
</svg>