<svg width="80" height="80" viewBox="0 0 80 80" fill="none" xmlns="http://www.w3.org/2000/svg">
  <path d="M12 29.2308C12 28.7003 12.2107 28.1916 12.5858 27.8166L27.8166 12.5858C28.1916 12.2107 28.7003 12 29.2308 12H50.7692C51.2997 12 51.8084 12.2107 52.1834 12.5858L67.4142 27.8166C67.7893 28.1916 68 28.7003 68 29.2308V50.7699C68 51.3003 67.7893 51.809 67.4142 52.1841L52.1841 67.4142C51.809 67.7893 51.3003 68 50.7699 68H29.2301C28.6997 68 28.191 67.7893 27.8159 67.4142L12.5858 52.1841C12.2107 51.809 12 51.3003 12 50.7699V29.2308Z" stroke="currentColor" stroke-linecap="round" stroke-linejoin="round" />
  <path d="M17.5 43.8333V44C17.5 46.2091 19.3112 48 21.5203 48C23.7071 48 25.5 46.2272 25.5 44.0404C25.5 42.367 24.4481 40.8743 22.8722 40.3115L21.7667 39.9167L20.3827 39.4553C18.8204 38.9346 17.7667 37.4726 17.7667 35.8258V35.7333C17.7667 33.6715 19.4381 32 21.5 32C23.5619 32 25.2333 33.6715 25.2333 35.7333V36.1667" stroke="currentColor" stroke-linecap="round" stroke-linejoin="round" />
  <path d="M29 32H33M33 32H37M33 32V48" stroke="currentColor" stroke-linecap="round" stroke-linejoin="round" />
  <path d="M40.5 44V36C40.5 33.7909 42.2909 32 44.5 32C46.7091 32 48.5 33.7909 48.5 36V44C48.5 46.2091 46.7091 48 44.5 48C42.2909 48 40.5 46.2091 40.5 44Z" stroke="currentColor" stroke-linecap="round" stroke-linejoin="round" />
  <path d="M54 32V48M54 32.125V39.875C54 39.944 54.056 40 54.125 40H58C60.2091 40 62 38.2091 62 36C62 33.7909 60.2091 32 58 32H54.125C54.056 32 54 32.056 54 32.125Z" stroke="currentColor" stroke-linecap="round" stroke-linejoin="round" />
</svg>