<svg width="80" height="80" viewBox="0 0 80 80" fill="none" xmlns="http://www.w3.org/2000/svg">
  <path d="M8 66.1313H72" stroke="currentColor" stroke-linecap="round" stroke-linejoin="round" />
  <path d="M58.3967 66L66.0654 55.2848L53.0661 53.1306L50.9119 40.1313L40.1967 47.8L29.4816 40.1313L27.3274 53.1306L14.3281 55.2848L21.9967 66" stroke="currentColor" stroke-linecap="round" stroke-linejoin="round" />
  <path d="M29.1102 66.0001C29.1102 63.0598 30.2783 60.2399 32.3574 58.1608C34.4365 56.0816 37.2564 54.9136 40.1968 54.9136C43.1371 54.9136 45.957 56.0816 48.0362 58.1607C50.1153 60.2399 51.2833 63.0599 51.2833 66.0002" stroke="currentColor" stroke-linecap="round" stroke-linejoin="round" />
  <path d="M39.9987 27.9999V13.9998" stroke="currentColor" stroke-linecap="round" stroke-linejoin="round" />
  <path d="M46.4645 28H33.5355C32.2308 28 31.5774 29.5774 32.5 30.5L38.2322 36.2322C39.2085 37.2085 40.7914 37.2085 41.7678 36.2322L47.5 30.5C48.4225 29.5774 47.7692 28 46.4645 28Z" stroke="currentColor" stroke-linecap="round" stroke-linejoin="round" />
</svg>