<svg width="80" height="80" viewBox="0 0 80 80" fill="none" xmlns="http://www.w3.org/2000/svg">
  <path d="M51.3136 16.6865C44.0696 13.6859 35.9303 13.6859 28.6862 16.6865C21.4422 19.6871 15.6868 25.4424 12.6862 32.6865C9.68565 39.9305 9.68565 48.0698 12.6862 55.3139C14.3935 59.4357 16.9927 63.0755 20.2505 66.0002H59.7494C63.0072 63.0755 65.6063 59.4357 67.3136 55.3139C70.3142 48.0698 70.3142 39.9305 67.3136 32.6865C64.3131 25.4424 58.5577 19.6871 51.3136 16.6865Z" stroke="currentColor" stroke-linecap="round" stroke-linejoin="round" />
  <path d="M42.5982 45.4999C40.9905 44.5717 39.0097 44.5717 37.402 45.4999C35.7943 46.4281 34.804 48.1435 34.804 49.9999C34.804 51.8563 35.7943 53.5717 37.402 54.4999C39.0097 55.4281 40.9905 55.4281 42.5982 54.4999C44.2059 53.5717 45.1963 51.8563 45.1963 49.9999C45.1963 48.1435 44.2059 46.4281 42.5982 45.4999Z" stroke="currentColor" stroke-linecap="round" stroke-linejoin="round" />
  <path d="M40 44.8037L40 31.9999" stroke="currentColor" stroke-linecap="round" stroke-linejoin="round" />
  <path d="M19.9425 55.5834L19.9397 55.5786L21.6715 54.5781C21.6726 54.58 21.6737 54.582 21.6748 54.5839L19.9425 55.5834Z" stroke="currentColor" stroke-linecap="round" stroke-linejoin="round" />
  <path d="M16.8269 44.0027L16.8269 43.9971L18.8269 43.9966C18.8269 43.9988 18.8269 44.001 18.8269 44.0032L16.8269 44.0027Z" stroke="currentColor" stroke-linecap="round" stroke-linejoin="round" />
  <path d="M19.9204 32.4101L19.9232 32.4053L21.6555 33.4048C21.6544 33.4067 21.6533 33.4087 21.6522 33.4106L19.9204 32.4101Z" stroke="currentColor" stroke-linecap="round" stroke-linejoin="round" />
  <path d="M29.4067 25.6454L28.4062 23.9136L28.4014 23.9164L29.4009 25.6487C29.4028 25.6476 29.4048 25.6465 29.4067 25.6454Z" stroke="currentColor" stroke-linecap="round" stroke-linejoin="round" />
  <path d="M40.0027 20.8047L39.9971 20.8047L39.9966 22.8047C39.9988 22.8047 40.001 22.8047 40.0032 22.8047L40.0027 20.8047Z" stroke="currentColor" stroke-linecap="round" stroke-linejoin="round" />
  <path d="M51.5937 23.9136L51.5986 23.9164L50.599 25.6487C50.5971 25.6476 50.5952 25.6465 50.5933 25.6454L51.5937 23.9136Z" stroke="currentColor" stroke-linecap="round" stroke-linejoin="round" />
  <path d="M60.0768 32.4058L60.0796 32.4106L58.3478 33.4111C58.3467 33.4092 58.3456 33.4072 58.3445 33.4053L60.0768 32.4058Z" stroke="currentColor" stroke-linecap="round" stroke-linejoin="round" />
  <path d="M63.1731 43.9976L63.1731 44.0032L61.1731 44.0037C61.1731 44.0015 61.1731 43.9993 61.1731 43.9971L63.1731 43.9976Z" stroke="currentColor" stroke-linecap="round" stroke-linejoin="round" />
  <path d="M60.0575 55.5839L58.3252 54.5844C58.3263 54.5825 58.3274 54.5805 58.3285 54.5786L60.0603 55.5791L60.0575 55.5839Z" stroke="currentColor" stroke-linecap="round" stroke-linejoin="round" />
</svg>