<svg width="80" height="80" viewBox="0 0 80 80" fill="none" xmlns="http://www.w3.org/2000/svg">
  <path d="M39.2426 10.2427L55.2426 26.2427C56.3679 27.3679 57 28.8941 57 30.4853L57 60.0001C57 63.3138 54.3137 66.0001 51 66.0001H19C15.6863 66.0001 13 63.3138 13 60.0001V30.4854C13 28.8941 13.6321 27.3679 14.7574 26.2427L30.7574 10.2427C33.1005 7.89956 36.8995 7.89957 39.2426 10.2427Z" stroke="currentColor" stroke-linecap="round" stroke-linejoin="round" />
  <path d="M31.5 24.5C33.433 22.567 36.567 22.567 38.5 24.5C40.433 26.433 40.433 29.567 38.5 31.5C36.567 33.433 33.433 33.433 31.5 31.5C29.567 29.567 29.567 26.433 31.5 24.5Z" stroke="currentColor" stroke-linecap="round" stroke-linejoin="round" />
  <path d="M21.7307 70.8721C22.7487 72.7359 24.7267 74.0001 27 74.0001H59C62.3137 74.0001 65 71.3138 65 68.0001L65 38.4854C65 36.8941 64.3678 35.368 63.2426 34.2427L61.4381 32.4382" stroke="currentColor" stroke-linecap="round" stroke-linejoin="round" />
</svg>