<svg width="80" height="80" viewBox="0 0 80 80" fill="none" xmlns="http://www.w3.org/2000/svg">
  <path d="M31.5147 22.243C36.9478 19.9926 43.0523 19.9926 48.4853 22.243C53.9183 24.4934 58.2349 28.81 60.4853 34.243C62.7357 39.676 62.7357 45.7805 60.4853 51.2136C58.2349 56.6466 53.9183 60.9631 48.4853 63.2136C43.0523 65.464 36.9478 65.464 31.5147 63.2136C26.0817 60.9631 21.7652 56.6466 19.5147 51.2136C17.2643 45.7805 17.2643 39.676 19.5147 34.243C21.7652 28.81 26.0817 24.4934 31.5147 22.243Z" stroke="currentColor" stroke-linecap="round" stroke-linejoin="round" />
  <path d="M55.7006 27.0715L59.7989 22.9731M56.9705 20.1454L62.6274 25.8022M39.9999 20.5553V14.772M35 14.772H44.9999M24.2995 27.0715L20.2012 22.9731M17.3728 25.8016L23.0297 20.1448" stroke="currentColor" stroke-linecap="round" stroke-linejoin="round" />
  <path d="M40.0007 39.7285C38.3439 39.7285 37.0007 41.0717 37.0007 42.7285C37.0007 44.3854 38.3439 45.7285 40.0007 45.7285C41.6576 45.7285 43.0007 44.3854 43.0007 42.7285C43.0007 41.0717 41.6576 39.7285 40.0007 39.7285Z" stroke="currentColor" stroke-linecap="round" stroke-linejoin="round" />
  <path d="M46.6853 33.9932L41.8245 40.3464" stroke="currentColor" stroke-linecap="round" stroke-linejoin="round" />
  <path d="M53.9077 50.6376L42.6099 44.2104" stroke="currentColor" stroke-linecap="round" stroke-linejoin="round" />
  <path d="M48.0665 28.6286L48.0625 28.6263L47.0621 30.3581L47.0669 30.3609L48.0665 28.6286Z" stroke="currentColor" stroke-linecap="round" stroke-linejoin="round" />
  <path d="M53.9775 34.4519L53.9752 34.448L52.2427 35.4476L52.2456 35.4524L53.9775 34.4519Z" stroke="currentColor" stroke-linecap="round" stroke-linejoin="round" />
  <path d="M56.2423 42.4832L56.2422 42.4788L54.2419 42.4783L54.242 42.4837L56.2423 42.4832Z" stroke="currentColor" stroke-linecap="round" stroke-linejoin="round" />
  <path d="M54.1888 50.6372L54.1909 50.6334L52.4588 49.6328L52.4562 49.6375L54.1888 50.6372Z" stroke="currentColor" stroke-linecap="round" stroke-linejoin="round" />
  <path d="M48.2764 56.7058L48.2801 56.7036L47.2805 54.9712L47.2759 54.9739L48.2764 56.7058Z" stroke="currentColor" stroke-linecap="round" stroke-linejoin="round" />
  <path d="M40.064 58.9723L40.0683 58.9723L40.0688 56.9722L40.0635 56.9723L40.064 58.9723Z" stroke="currentColor" stroke-linecap="round" stroke-linejoin="round" />
  <path d="M31.8187 56.7617L31.8224 56.7639L32.8229 55.0321L32.8183 55.0294L31.8187 56.7617Z" stroke="currentColor" stroke-linecap="round" stroke-linejoin="round" />
  <path d="M25.8416 50.6911L25.8437 50.6948L27.5761 49.6952L27.5735 49.6906L25.8416 50.6911Z" stroke="currentColor" stroke-linecap="round" stroke-linejoin="round" />
  <path d="M23.7579 42.4788L23.7578 42.4832L25.7581 42.4837L25.7582 42.4783L23.7579 42.4788Z" stroke="currentColor" stroke-linecap="round" stroke-linejoin="round" />
  <path d="M26.0587 34.3912L26.0564 34.395L27.7884 35.3956L27.7912 35.3909L26.0587 34.3912Z" stroke="currentColor" stroke-linecap="round" stroke-linejoin="round" />
  <path d="M32.0333 28.5721L32.0372 28.5699L33.0377 30.3018L33.0329 30.3045L32.0333 28.5721Z" stroke="currentColor" stroke-linecap="round" stroke-linejoin="round" />
  <path d="M40.0634 28.4844L40.0639 26.4844L40.0684 26.4844L40.0689 28.4844L40.0634 28.4844Z" stroke="currentColor" stroke-linecap="round" stroke-linejoin="round" />
</svg>