<svg width="80" height="80" viewBox="0 0 80 80" fill="none" xmlns="http://www.w3.org/2000/svg">
  <path d="M14 26L13.6569 26.3431C10.0348 29.9652 8 34.8777 8 40C8 45.1223 10.0348 50.0348 13.6569 53.6569L14 54C17.8417 57.8417 23.0522 60 28.4853 60H51.5147C56.9478 60 62.1583 57.8417 66 54L66.3431 53.6569C69.9652 50.0348 72 45.1223 72 40C72 34.8777 69.9652 29.9652 66.3431 26.3431L66 26C62.1583 22.1583 56.9478 20 51.5147 20H28.4853C23.0522 20 17.8417 22.1583 14 26Z" stroke="currentColor" stroke-linecap="round" stroke-linejoin="round" />
  <path d="M21.0718 28C25.3589 25.5248 30.641 25.5248 34.9282 28C39.2154 30.4752 41.8564 35.0495 41.8564 40C41.8564 44.9504 39.2154 49.5248 34.9282 52C30.641 54.4752 25.3589 54.4752 21.0718 52C16.7846 49.5248 14.1436 44.9504 14.1436 40C14.1436 35.0495 16.7846 30.4752 21.0718 28Z" stroke="currentColor" stroke-linecap="round" stroke-linejoin="round" />
</svg>