<svg width="80" height="80" viewBox="0 0 80 80" fill="none" xmlns="http://www.w3.org/2000/svg">
  <path d="M63.8795 55L64.2338 54.8104C69.5453 51.9685 71.5829 45.383 68.8045 40.038C67.2523 37.052 64.5198 35.0738 61.4725 34.3825L61.8252 33.5918C64.2878 28.07 61.8323 21.5957 56.3272 19.0958C54.2546 18.1546 52.0423 17.9096 49.9538 18.2629C48.1832 14.5575 44.4006 12 40.0233 12C35.6459 12 31.8633 14.5575 30.0927 18.2629C28.0043 17.9096 25.7919 18.1546 23.7193 19.0958C18.2143 21.5957 15.7588 28.07 18.2213 33.5918L18.574 34.3825C15.5267 35.0738 12.7942 37.052 11.242 40.038C8.46358 45.383 10.5012 51.9685 15.8128 54.8104L16.167 55H63.8795Z" stroke="currentColor" stroke-linecap="round" stroke-linejoin="round" />
  <path d="M36.6502 55C36.0979 55 35.6502 55.4477 35.6502 56V61.8342C35.6502 62.8966 35.3681 63.9399 34.8329 64.8575L33.877 66.4961C33.4881 67.1628 33.969 68 34.7408 68H45.2587C46.0305 68 46.5114 67.1628 46.1225 66.4961L44.4675 63.6591C43.9322 62.7415 43.6502 61.6982 43.6502 60.6359V56C43.6502 55.4477 43.2025 55 42.6502 55" stroke="currentColor" stroke-linecap="round" stroke-linejoin="round" />
</svg>