<svg width="80" height="80" viewBox="0 0 80 80" fill="none" xmlns="http://www.w3.org/2000/svg">
  <path d="M48.4 71.9998H11.6C9.61178 71.9998 8 70.388 8 68.3997V67.4751C8 62.0827 11.3625 57.2624 16.4231 55.4002C25.1871 52.1752 34.8129 52.1752 43.5769 55.4002C48.6375 57.2624 52 62.0827 52 67.4751V68.3997C52 70.388 50.3882 71.9998 48.4 71.9998Z" stroke="currentColor" stroke-linecap="round" stroke-linejoin="round" />
  <path d="M24.4719 44.012C27.949 45.7656 32.0519 45.7656 35.5289 44.012C38.8322 42.346 41.2081 39.2792 41.9959 35.6644L42.1441 34.9847C42.9445 31.3119 42.0937 27.4729 39.8164 24.4823L39.5806 24.1727C37.3032 21.1819 33.7597 19.4263 30.0004 19.4263C26.2412 19.4263 22.6977 21.1819 20.4202 24.1727L20.1845 24.4823C17.9072 27.4729 17.0563 31.3119 17.8568 34.9847L18.0049 35.6644C18.7927 39.2792 21.1686 42.346 24.4719 44.012Z" stroke="currentColor" stroke-linecap="round" stroke-linejoin="round" />
  <path d="M52 8C49.7909 8 48 9.79087 48 12V22.8571C48 25.0663 49.7909 26.8571 52 26.8571H53.1429V32L60 26.8571H68C70.2091 26.8571 72 25.0663 72 22.8571V12C72 9.79086 70.2091 8 68 8H52Z" stroke="currentColor" stroke-linecap="round" stroke-linejoin="round" />
</svg>