<svg width="80" height="80" viewBox="0 0 80 80" fill="none" xmlns="http://www.w3.org/2000/svg">
  <path d="M68 40C68 55.464 55.464 68 40 68C24.536 68 12 55.464 12 40C12 24.536 24.536 12 40 12C55.464 12 68 24.536 68 40Z" stroke="currentColor" stroke-linecap="round" stroke-linejoin="round" />
  <path d="M58.3013 61.192C53.3935 65.4341 46.9966 68 40.0004 68C33.0041 68 26.6071 65.434 21.6992 61.1918C23.0685 58.9261 25.1923 57.1319 27.8006 56.1934C35.6862 53.3561 44.3142 53.3561 52.1998 56.1934C54.8082 57.1319 56.9321 58.9262 58.3013 61.192Z" stroke="currentColor" stroke-linecap="round" stroke-linejoin="round" />
  <path d="M44.9581 46.1552C48.0026 44.6538 50.2028 41.8537 50.9413 38.5404L51.0113 38.2265C51.7558 34.8862 50.9692 31.388 48.8665 28.688L48.7564 28.5466C46.6536 25.8465 43.4227 24.2676 40.0004 24.2676C36.5781 24.2676 33.3472 25.8465 31.2445 28.5466L31.1344 28.688C29.0316 31.388 28.245 34.8862 28.9895 38.2265L29.0595 38.5404C29.798 41.8537 31.9982 44.6538 35.0427 46.1552C38.1682 47.6964 41.8327 47.6964 44.9581 46.1552Z" stroke="currentColor" stroke-linecap="round" stroke-linejoin="round" />
</svg>