<svg width="80" height="80" viewBox="0 0 80 80" fill="none" xmlns="http://www.w3.org/2000/svg">
  <path d="M67.0468 54H68C70.2091 54 72 52.2091 72 50V36.1C72 36.0448 71.9552 36 71.9 36H8.1C8.04477 36 8 36.0448 8 36.1V50C8 52.2091 9.79086 54 12 54H12.9532M50.9532 54H29.0468" stroke="currentColor" stroke-linecap="round" stroke-linejoin="round" />
  <path d="M17.4817 45.6941C19.705 44.6234 22.2948 44.6234 24.5181 45.6941C26.7415 46.7648 28.3562 48.7897 28.9053 51.1955C29.4544 53.6013 28.8781 56.1262 27.3396 58.0555C25.801 59.9848 23.4676 61.1086 20.9999 61.1086C18.5322 61.1086 16.1988 59.9848 14.6603 58.0555C13.1217 56.1262 12.5454 53.6013 13.0945 51.1955C13.6436 48.7897 15.2584 46.7648 17.4817 45.6941Z" stroke="currentColor" stroke-linecap="round" stroke-linejoin="round" />
  <path d="M55.4817 45.6946C57.705 44.6239 60.2948 44.6239 62.5181 45.6946C64.7415 46.7653 66.3562 48.7901 66.9053 51.196C67.4544 53.6018 66.8781 56.1267 65.3396 58.056C63.801 59.9853 61.4676 61.109 58.9999 61.109C56.5322 61.109 54.1988 59.9853 52.6603 58.056C51.1217 56.1267 50.5454 53.6018 51.0945 51.196C51.6436 48.7901 53.2584 46.7653 55.4817 45.6946Z" stroke="currentColor" stroke-linecap="round" stroke-linejoin="round" />
  <path d="M8.1 36C8.04477 36 8 35.9552 8 35.9V22C8 19.7909 9.79086 18 12 18H50.4651C51.4532 18 52.4064 18.3658 53.1409 19.0268L71.9124 35.9212C71.943 35.9487 71.9412 36 71.9 36" stroke="currentColor" stroke-linecap="round" stroke-linejoin="round" />
  <path d="M23.832 36L23.832 18" stroke="currentColor" stroke-linecap="round" stroke-linejoin="round" />
  <path d="M39.832 36V18" stroke="currentColor" stroke-linecap="round" stroke-linejoin="round" />
</svg>