<svg width="80" height="80" viewBox="0 0 80 80" fill="none" xmlns="http://www.w3.org/2000/svg">
  <path d="M40.6076 40.3878C41.355 41.6196 42.1813 42.8042 43.0821 43.9337C45.1903 46.5773 47.6828 48.89 50.4765 50.7947C53.2702 52.6995 56.3337 54.1748 59.5647 55.1714C60.5543 55.4766 61.5561 55.7359 62.5671 55.9488C62.2519 56.396 61.9232 56.8343 61.5815 57.2628C59.8566 59.4258 57.8173 61.318 55.5315 62.8764C53.2457 64.4348 50.7393 65.6419 48.0957 66.4573C45.4521 67.2727 42.7012 67.6874 39.9347 67.6874C37.1682 67.6874 34.4173 67.2727 31.7737 66.4573C29.1301 65.6419 26.6237 64.4348 24.3379 62.8764C22.0521 61.318 20.0128 59.4258 18.2879 57.2628C16.9053 55.5291 15.7373 53.6371 14.8076 51.6283C15.4977 50.8588 16.2235 50.1205 16.9829 49.4158C19.4616 47.116 22.2709 45.2006 25.3173 43.7335C28.3638 42.2665 31.6129 41.2642 34.9564 40.7603C36.829 40.478 38.7194 40.3539 40.6076 40.3878Z" stroke="currentColor" stroke-linecap="round" stroke-linejoin="round" />
  <path d="M39.3605 40.3325C37.92 40.3639 36.481 40.4872 35.0524 40.7025C31.7089 41.2065 28.4598 42.2087 25.4134 43.6758C22.367 45.1428 19.5576 47.0582 17.079 49.3581C16.3198 50.0624 15.5944 50.8004 14.9046 51.5695C14.6748 51.0729 14.4596 50.5692 14.2594 50.0589C13.2487 47.4836 12.6296 44.7714 12.4229 42.0127C12.2161 39.2539 12.424 36.4797 13.0396 33.7826C13.6552 31.0855 14.6716 28.4958 16.0548 26.1C17.4381 23.7041 19.1726 21.5291 21.2006 19.6474C23.2286 17.7657 25.5271 16.1986 28.0197 14.9982C30.5122 13.7979 33.1706 12.9779 35.9062 12.5656C38.0989 12.2351 40.3214 12.1695 42.526 12.3688C42.8473 13.3512 43.1238 14.3489 43.3543 15.3589C44.1067 18.6554 44.3608 22.0461 44.1082 25.4179C43.8555 28.7897 43.0989 32.1046 41.8635 35.2522C41.1717 37.015 40.334 38.7142 39.3605 40.3325Z" stroke="currentColor" stroke-linecap="round" stroke-linejoin="round" />
  <path d="M40.0317 39.2804C40.7249 38.0172 41.3376 36.7093 41.8654 35.3644C43.1007 32.2169 43.8573 28.902 44.11 25.5302C44.3627 22.1583 44.1086 18.7677 43.3562 15.4712C43.1258 14.4616 42.8494 13.4643 42.5282 12.4824C43.0732 12.5317 43.617 12.5973 44.159 12.6789C46.8946 13.0913 49.553 13.9113 52.0455 15.1116C54.538 16.3119 56.8366 17.8791 58.8646 19.7608C60.8926 21.6425 62.6271 23.8175 64.0103 26.2133C65.3936 28.6092 66.4099 31.1988 67.0255 33.896C67.6411 36.5931 67.849 39.3673 67.6423 42.126C67.4356 44.8848 66.8165 47.597 65.8058 50.1723C64.9957 52.2365 63.9412 54.194 62.6663 56.0036C61.6549 55.7907 60.6526 55.5313 59.6626 55.2259C56.4316 54.2293 53.3681 52.754 50.5744 50.8493C47.7807 48.9445 45.2882 46.6318 43.18 43.9882C41.9992 42.5076 40.9465 40.9326 40.0317 39.2804Z" stroke="currentColor" stroke-linecap="round" stroke-linejoin="round" />
  <path d="M24.5488 44.1153C24.8033 43.9847 25.0595 43.8573 25.3174 43.733C28.3638 42.266 31.6129 41.2638 34.9565 40.7598C36.8291 40.4775 38.7195 40.3534 40.6077 40.3873C41.3551 41.6191 42.1814 42.8037 43.0822 43.9332C45.1904 46.5768 47.6829 48.8895 50.4766 50.7943C53.2703 52.699 56.3338 54.1743 59.5648 55.1709C60.5544 55.4762 61.5562 55.7354 62.5672 55.9483C62.252 56.3956 61.9233 56.8338 61.5816 57.2623C59.8567 59.4253 57.8174 61.3175 55.5316 62.8759C54.6756 63.4595 53.7886 63.9938 52.8752 64.4768C50.4305 64.2765 48.0121 63.8109 45.663 63.0863C42.432 62.0896 39.3685 60.6144 36.5748 58.7096C33.781 56.8049 31.2885 54.4922 29.1804 51.8486C27.2975 49.4876 25.7403 46.8866 24.5488 44.1153Z" stroke="currentColor" stroke-linecap="round" stroke-linejoin="round" />
  <path d="M44.1617 24.5617C44.1475 24.8474 44.1298 25.133 44.1084 25.4185C43.8557 28.7903 43.0991 32.1052 41.8638 35.2527C41.1719 37.0156 40.3343 38.7148 39.3608 40.3331C37.9203 40.3644 36.4813 40.4878 35.0527 40.7031C31.7091 41.2071 28.46 42.2093 25.4136 43.6764C22.3672 45.1434 19.5579 47.0588 17.0792 49.3587C16.3201 50.063 15.5946 50.801 14.9048 51.5701C14.6751 51.0735 14.4599 50.5697 14.2596 50.0595C13.2489 47.4842 12.6299 44.772 12.4231 42.0133C12.3457 40.9802 12.3264 39.9449 12.3649 38.9123C13.7607 36.8953 15.3731 35.0337 17.1752 33.3616C19.6538 31.0618 22.4632 29.1464 25.5096 27.6793C28.556 26.2123 31.8051 25.21 35.1486 24.7061C38.1347 24.256 41.166 24.2079 44.1617 24.5617Z" stroke="currentColor" stroke-linecap="round" stroke-linejoin="round" />
  <path d="M51.2895 51.3238C51.0491 51.1687 50.8107 51.0105 50.5741 50.8493C47.7804 48.9445 45.2879 46.6318 43.1797 43.9882C41.999 42.5076 40.9463 40.9326 40.0315 39.2804C40.7246 38.0172 41.3373 36.7093 41.8651 35.3644C43.1005 32.2169 43.8571 28.902 44.1098 25.5302C44.3624 22.1584 44.1083 18.7677 43.3559 15.4712C43.1255 14.4616 42.8491 13.4643 42.528 12.4824C43.0729 12.5317 43.6168 12.5973 44.1588 12.6789C46.8944 13.0913 49.5527 13.9113 52.0453 15.1116C52.9787 15.5611 53.8849 16.0621 54.7599 16.6117C55.8088 18.829 56.6147 21.1562 57.1618 23.5528C57.9142 26.8493 58.1683 30.24 57.9156 33.6118C57.6629 36.9836 56.9063 40.2985 55.671 43.4461C54.5677 46.2571 53.0938 48.9063 51.2895 51.3238Z" stroke="currentColor" stroke-linecap="round" stroke-linejoin="round" />
</svg>