<svg width="80" height="80" viewBox="0 0 80 80" fill="none" xmlns="http://www.w3.org/2000/svg">
  <path d="M17.7321 49.7612C17.357 49.3861 16.8483 49.1754 16.3179 49.1754H6.14648C5.04191 49.1754 4.14648 48.28 4.14648 47.1754V33.1754C4.14648 32.0708 5.04191 31.1754 6.14648 31.1754H16.3183C16.8487 31.1754 17.3574 30.9647 17.7325 30.5896L28.7323 19.5898C29.9922 18.3299 32.1465 19.2222 32.1465 21.004V59.3472C32.1465 61.129 29.9922 62.0213 28.7323 60.7614L17.7321 49.7612Z" stroke="currentColor" stroke-linecap="round" stroke-linejoin="round" />
  <path d="M42.6362 46.3179L48.4216 40.5325L49.5787 39.3754L55.3642 33.59" stroke="currentColor" stroke-linecap="round" stroke-linejoin="round" />
  <path d="M55.3638 46.3179L49.5783 40.5325L48.4213 39.3754L42.6358 33.59" stroke="currentColor" stroke-linecap="round" stroke-linejoin="round" />
</svg>