<svg viewBox="0 0 80 80" fill="none">
  <path d="M34.3432 26.343C37.9652 24.8427 42.0349 24.8427 45.6569 26.343C49.2789 27.8433 52.1566 30.721 53.6569 34.343C55.1572 37.965 55.1572 42.0347 53.6569 45.6567C52.1566 49.2787 49.2789 52.1564 45.6569 53.6567C42.0349 55.157 37.9652 55.157 34.3432 53.6567C30.7212 52.1564 27.8435 49.2787 26.3432 45.6567C24.8429 42.0347 24.8429 37.965 26.3432 34.343C27.8435 30.721 30.7212 27.8433 34.3432 26.343Z" stroke="currentColor" stroke-linecap="round" stroke-linejoin="round" />
  <path d="M32 27.5697V16C32 13.7909 33.7909 12 36 12H44C46.2091 12 48 13.7909 48 16V27.5697" stroke="currentColor" stroke-linecap="round" stroke-linejoin="round" />
  <path d="M48 52.4302V63.9999C48 66.209 46.2091 67.9999 44 67.9999H36C33.7909 67.9999 32 66.209 32 63.9999V52.4302" stroke="currentColor" stroke-linecap="round" stroke-linejoin="round" />
</svg>