<svg width="80" height="80" viewBox="0 0 80 80" fill="none" xmlns="http://www.w3.org/2000/svg">
  <path d="M44.0039 60C44.0039 62.2091 42.213 64 40.0039 64C37.7948 64 36.0039 62.2091 36.0039 60C36.0039 57.7909 37.7948 56 40.0039 56C42.213 56 44.0039 57.7909 44.0039 60Z" stroke="currentColor" stroke-linecap="round" stroke-linejoin="round" />
  <path d="M26.8745 51.7215C27.7942 50.2849 28.9458 49.0052 30.286 47.9364C32.1182 46.4753 34.256 45.4458 36.5407 44.9243C38.8254 44.4028 41.1982 44.4028 43.4828 44.9243C45.7675 45.4458 47.9053 46.4753 49.7375 47.9364C51.077 49.0046 52.2279 50.2834 53.1474 51.719" stroke="currentColor" stroke-linecap="round" stroke-linejoin="round" />
  <path d="M18.2698 41.6253C19.6331 39.8296 21.2179 38.2041 22.9917 36.7895C26.198 34.2326 29.9392 32.431 33.9373 31.5184C37.9355 30.6058 42.0879 30.6058 46.0861 31.5184C50.0842 32.431 53.8254 34.2326 57.0317 36.7895C58.8047 38.2035 60.3889 39.8282 61.7519 41.6231" stroke="currentColor" stroke-linecap="round" stroke-linejoin="round" />
</svg>