<svg width="80" height="80" viewBox="0 0 80 80" fill="none" xmlns="http://www.w3.org/2000/svg">
  <path d="M41.4141 62.8867L70.2136 34.0872C68.6828 31.4002 66.7938 28.9179 64.5883 26.7125C60.2722 22.3963 54.8959 19.2923 48.9999 17.7125C43.1039 16.1326 36.8959 16.1326 30.9999 17.7125C25.1039 19.2923 19.7276 22.3963 15.4114 26.7125C13.206 28.9179 11.317 31.4002 9.78613 34.0872L38.5857 62.8867C39.3667 63.6678 40.6331 63.6678 41.4141 62.8867Z" stroke="currentColor" stroke-linecap="round" stroke-linejoin="round" />
  <path d="M50.0872 54.2135C49.5408 53.1543 48.832 52.1813 47.9822 51.3315C46.5435 49.8928 44.7514 48.8581 42.786 48.3315C40.8207 47.8049 38.7514 47.8049 36.786 48.3315C34.8207 48.8581 33.0286 49.8928 31.5899 51.3315C30.8152 52.1061 30.1577 52.9833 29.6335 53.9347" stroke="currentColor" stroke-linecap="round" stroke-linejoin="round" />
</svg>