<svg width="80" height="80" viewBox="0 0 80 80" fill="none" xmlns="http://www.w3.org/2000/svg">
  <path d="M41.4141 62.8867L70.2136 34.0872C68.6828 31.4002 66.7938 28.9179 64.5883 26.7125C60.2722 22.3963 54.8959 19.2923 48.9999 17.7125C43.1039 16.1326 36.8959 16.1326 30.9999 17.7125C25.1039 19.2923 19.7276 22.3963 15.4114 26.7125C13.206 28.9179 11.317 31.4002 9.78613 34.0872L38.5857 62.8867C39.3667 63.6678 40.6331 63.6678 41.4141 62.8867Z" stroke="currentColor" stroke-linecap="round" stroke-linejoin="round" />
  <path d="M55.7103 48.5903C55.0432 47.619 54.2861 46.707 53.4463 45.8672C51.0484 43.4694 48.0616 41.7449 44.7861 40.8672C41.5105 39.9896 38.0616 39.9896 34.7861 40.8672C31.5105 41.7449 28.5237 43.4694 26.1258 45.8672C25.359 46.6341 24.661 47.4611 24.0376 48.3386" stroke="currentColor" stroke-linecap="round" stroke-linejoin="round" />
</svg>