<svg viewBox="0 0 80 80" fill="none">
  <path d="M58.1877 29.5962C56.0647 28.4068 53.6779 27.7672 51.2447 27.7358C49.0088 27.707 46.7961 28.1925 44.7776 29.1548L44.0596 29.4971C42.5897 30.1979 41.2244 31.0936 39.9998 32.1576C38.7751 31.0936 37.4099 30.198 35.94 29.4972L35.222 29.1549C33.2035 28.1925 30.9909 27.707 28.7549 27.7359C26.3217 27.7673 23.9349 28.4068 21.812 29.5963C19.8612 30.6892 18.1877 32.216 16.9208 34.0586L16.4702 34.7141C15.1664 36.6104 14.2382 38.7391 13.736 40.9849L13.5049 42.0183C12.9445 44.524 12.799 47.1047 13.0742 49.6576L13.2128 50.9442C13.4781 53.4058 14.1227 55.8115 15.1238 58.0759L15.647 59.2595C16.6851 61.6079 18.1015 63.7701 19.8396 65.6599L20.5565 66.4393C22.1143 68.1331 23.9825 69.5125 26.0597 70.5029L26.7777 70.8452C28.7962 71.8076 31.0089 72.293 33.2448 72.2642C35.6065 72.2337 37.9244 71.6303 39.9999 70.5073C42.0753 71.6303 44.3931 72.2336 46.7548 72.2641C48.9908 72.293 51.2034 71.8075 53.2219 70.8452L53.9399 70.5028C56.0172 69.5125 57.8853 68.133 59.4432 66.4392L60.16 65.6599C61.8981 63.77 63.3145 61.6078 64.3526 59.2594L64.8759 58.0758C65.8769 55.8114 66.5215 53.4057 66.7868 50.9441L66.9255 49.6575C67.2006 47.1047 67.0551 44.524 66.4947 42.0182L66.2636 40.9849C65.7614 38.7391 64.8333 36.6104 63.5295 34.714L63.0788 34.0586C61.8119 32.2159 60.1385 30.6892 58.1877 29.5962Z" stroke="currentColor" stroke-linecap="round" stroke-linejoin="round" />
  <path d="M52.102 9.36996C52.3192 10.1529 52.4559 10.9579 52.5094 11.7745L52.5196 11.93C52.6178 13.4292 52.4148 14.9448 51.9206 16.4004L51.8466 16.6185C51.3705 18.0208 50.6055 19.3354 49.5949 20.4877L49.4814 20.6171C48.479 21.7601 47.2384 22.707 45.8393 23.3969C44.4011 24.1061 42.8287 24.5274 41.2286 24.6323C39.9597 24.7155 38.6967 24.5982 37.4933 24.2873C37.1305 23.0101 36.9885 21.6952 37.0739 20.3927L37.0841 20.237C37.1866 18.6731 37.5943 17.1518 38.2874 15.7461L38.3564 15.6062C39.0209 14.2587 39.9545 13.0477 41.1102 12.0341L41.2836 11.8821C42.3969 10.9057 43.7166 10.1497 45.1678 9.65704L45.3311 9.60161C46.7705 9.11293 48.3182 8.91318 49.8747 9.01518C50.6269 9.06448 51.3731 9.18373 52.102 9.36996Z" stroke="currentColor" stroke-linecap="round" stroke-linejoin="round" />
</svg>