<svg viewBox="0 0 80 80" fill="none">
  <path d="M17.7575 37.2575C20.474 36.1323 23.5263 36.1323 26.2428 37.2575C28.9593 38.3827 31.1175 40.541 32.2428 43.2575C33.368 45.974 33.368 49.0263 32.2428 51.7428C31.1176 54.4593 28.9593 56.6175 26.2428 57.7428C23.5263 58.868 20.474 58.868 17.7575 57.7428C15.041 56.6176 12.8827 54.4593 11.7575 51.7428C10.6323 49.0263 10.6323 45.974 11.7575 43.2575C12.8827 40.541 15.041 38.3827 17.7575 37.2575Z" stroke="currentColor" stroke-linecap="round" stroke-linejoin="round" />
  <path d="M53.7575 37.2575C56.474 36.1323 59.5263 36.1323 62.2428 37.2575C64.9593 38.3827 67.1175 40.541 68.2428 43.2575C69.368 45.974 69.368 49.0263 68.2428 51.7428C67.1176 54.4593 64.9593 56.6175 62.2428 57.7428C59.5263 58.868 56.474 58.868 53.7575 57.7428C51.041 56.6176 48.8827 54.4593 47.7575 51.7428C46.6323 49.0263 46.6323 45.974 47.7575 43.2575C48.8827 40.541 51.041 38.3827 53.7575 37.2575Z" stroke="currentColor" stroke-linecap="round" stroke-linejoin="round" />
  <path d="M39.5455 47.5H22L32 30.5" stroke="currentColor" stroke-linecap="round" stroke-linejoin="round" />
  <path d="M58 47.5L50 30.5V21.5C50 20.9477 50.4477 20.5 51 20.5H56.3333C58.3584 20.5 60 22.1416 60 24.1667C60 26.1917 58.3584 27.8333 56.3333 27.8333H56.1111" stroke="currentColor" stroke-linecap="round" stroke-linejoin="round" />
  <path d="M50 30.5L39.5455 47.5L32 30.5H50Z" stroke="currentColor" stroke-linecap="round" stroke-linejoin="round" />
  <path d="M24 20.5H27.5M27.5 20.5H34M27.5 20.5L32 30.5" stroke="currentColor" stroke-linecap="round" stroke-linejoin="round" />
</svg>