<svg viewBox="0 0 80 80" fill="none">
  <path d="M22 11H63.0204C63.5614 11 64 11.4386 64 11.9796V56.75C64 56.8881 63.8881 57 63.75 57H22C18.7702 57 16.1364 59.552 16.0051 62.7496C16.0049 62.7548 16 62.7552 16 62.75V17C16 13.6863 18.6863 11 22 11Z" stroke="currentColor" stroke-linejoin="round" />
  <path d="M63.75 69H22C18.6863 69 16 66.3137 16 63C16 59.6863 18.6863 57 22 57" stroke="currentColor" stroke-linecap="round" stroke-linejoin="round" />
  <path d="M63.75 69C63.8881 69 64 68.8881 64 68.75V68.2983C64 67.7268 63.7412 67.1942 63.3755 66.755C62.5166 65.7236 62 64.3971 62 62.95C62 61.5029 62.5166 60.1764 63.3755 59.145C63.7412 58.7058 64 58.1732 64 57.6017V57.0625C64 57.028 63.972 57 63.9375 57" stroke="currentColor" stroke-linecap="round" stroke-linejoin="round" />
  <path d="M34.5939 21.7202C37.7632 20.4074 41.3242 20.4074 44.4934 21.7202C47.6627 23.0329 50.1807 25.5509 51.4934 28.7202C52.8062 31.8894 52.8062 35.4504 51.4934 38.6197C50.1807 41.7889 47.6627 44.3069 44.4934 45.6197C41.3242 46.9324 37.7632 46.9324 34.5939 45.6197C31.4247 44.3069 28.9067 41.7889 27.5939 38.6197C26.2812 35.4504 26.2812 31.8894 27.5939 28.7202C28.9067 25.5509 31.4247 23.0329 34.5939 21.7202Z" stroke="currentColor" />
  <path d="M44.0033 26.4116C45.9287 31.0598 45.9287 36.2826 44.0033 40.9308C43.1321 43.0342 41.8989 44.9419 40.3791 46.5788C39.8231 46.6148 39.2654 46.6148 38.7094 46.5789C37.1891 44.9417 35.9555 43.0336 35.084 40.9297C33.1587 36.2814 33.1587 31.0587 35.084 26.4104C35.955 24.3079 37.1875 22.4008 38.7066 20.7643C39.2637 20.7282 39.8226 20.7281 40.3796 20.7642C41.8992 22.401 43.1322 24.3085 44.0033 26.4116Z" stroke="currentColor" stroke-linejoin="round" />
  <path d="M27.3098 37.8699H51.7767M27.4801 29.0032H51.6064" stroke="currentColor" stroke-linejoin="round" />
</svg>