<svg viewBox="0 0 80 80" fill="none">
  <path d="M29.3286 54C29.3286 52.8954 30.224 52 31.3286 52H55.3286C56.4332 52 57.3286 52.8954 57.3286 54V66C57.3286 67.1046 56.4332 68 55.3286 68H31.3286C30.224 68 29.3286 67.1046 29.3286 66V54Z" stroke="currentColor" stroke-linecap="round" stroke-linejoin="round" />
  <path d="M55.7165 52.0378C56.6575 52.0378 57.4712 51.3819 57.671 50.4623L63.243 24.81C63.9437 21.584 62.6226 18.183 59.6344 16.7801C58.0971 16.0582 56.5065 15.4382 54.8721 14.9266L54.2262 14.7244C46.4799 12.2995 38.1776 12.2995 30.4312 14.7244L29.7853 14.9266C28.9212 15.1971 28.0693 15.4979 27.231 15.828C24.0093 17.0969 22.5113 20.6518 23.2463 24.0356L28.9865 50.4623C29.1863 51.3819 30 52.0378 30.9409 52.0378" stroke="currentColor" stroke-linecap="round" stroke-linejoin="round" />
  <path d="M24.0102 27.5737C22.1663 27.4855 20.2719 28.0585 18.7115 29.3788C15.7117 31.9172 15.1201 36.3142 17.3425 39.5551L23.426 48.427C24.6799 50.2555 26.7545 51.3484 28.9716 51.3484C29.1163 51.3484 29.2595 51.344 29.4012 51.3353" stroke="currentColor" stroke-linecap="round" stroke-linejoin="round" />
</svg>