<svg viewBox="0 0 80 80" fill="none">
  <path d="M14 28C14 26.8954 14.8954 26 16 26H64C65.1046 26 66 26.8954 66 28V60C66 61.1046 65.1046 62 64 62H16C14.8954 62 14 61.1046 14 60V28Z" stroke="currentColor" stroke-linecap="round" stroke-linejoin="round" />
  <path d="M48 26V20C48 18.8954 47.1046 18 46 18H34C32.8954 18 32 18.8954 32 20V26" stroke="currentColor" stroke-linecap="round" stroke-linejoin="round" />
  <path d="M36.3076 54.6154C36.3076 55.3801 36.9275 56 37.6922 56H42.3076C43.0723 56 43.6922 55.3801 43.6922 54.6154L43.6922 47.8077C43.6922 47.744 43.7438 47.6923 43.8076 47.6923L50.6153 47.6923C51.38 47.6923 51.9999 47.0724 51.9999 46.3077V41.6923C51.9999 40.9276 51.38 40.3077 50.6153 40.3077L43.8076 40.3077C43.7438 40.3077 43.6922 40.256 43.6922 40.1923L43.6922 33.3846C43.6922 32.6199 43.0723 32 42.3076 32L37.6922 32C36.9275 32 36.3076 32.6199 36.3076 33.3846L36.3076 40.1923C36.3076 40.256 36.2559 40.3077 36.1922 40.3077H29.3845C28.6198 40.3077 27.9999 40.9276 27.9999 41.6923V46.3077C27.9999 47.0724 28.6198 47.6923 29.3845 47.6923H36.1922C36.2559 47.6923 36.3076 47.744 36.3076 47.8077L36.3076 54.6154Z" stroke="currentColor" stroke-linecap="round" stroke-linejoin="round" />
</svg>