<svg viewBox="0 0 80 80" fill="none">
  <path d="M20 64H60" stroke="currentColor" stroke-linecap="round" stroke-linejoin="round" />
  <path d="M23 16L57 16L57 64H23L23 16Z" stroke="currentColor" stroke-linecap="round" stroke-linejoin="round" />
  <path d="M20 16L60 16" stroke="currentColor" stroke-linecap="round" stroke-linejoin="round" />
  <path d="M34 58C34 56.8954 34.8954 56 36 56H44C45.1046 56 46 56.8954 46 58V64H34V58Z" stroke="currentColor" stroke-linecap="round" stroke-linejoin="round" />
  <path d="M33 23H31" stroke="currentColor" stroke-linecap="round" stroke-linejoin="round" />
  <path d="M41 23H39" stroke="currentColor" stroke-linecap="round" stroke-linejoin="round" />
  <path d="M49 23H47" stroke="currentColor" stroke-linecap="round" stroke-linejoin="round" />
  <path d="M33 31H31" stroke="currentColor" stroke-linecap="round" stroke-linejoin="round" />
  <path d="M41 31H39" stroke="currentColor" stroke-linecap="round" stroke-linejoin="round" />
  <path d="M49 31H47" stroke="currentColor" stroke-linecap="round" stroke-linejoin="round" />
  <path d="M33 39H31" stroke="currentColor" stroke-linecap="round" stroke-linejoin="round" />
  <path d="M41 39H39" stroke="currentColor" stroke-linecap="round" stroke-linejoin="round" />
  <path d="M49 39H47" stroke="currentColor" stroke-linecap="round" stroke-linejoin="round" />
  <path d="M33 47H31" stroke="currentColor" stroke-linecap="round" stroke-linejoin="round" />
  <path d="M41 47H39" stroke="currentColor" stroke-linecap="round" stroke-linejoin="round" />
  <path d="M49 47H47" stroke="currentColor" stroke-linecap="round" stroke-linejoin="round" />
</svg>