<svg viewBox="0 0 80 80" fill="none">
  <path d="M63.5 22.9167L62.7449 22.3573C60.6781 20.8264 58.1742 20 55.6021 20H53.378C48.2611 20 43.4528 22.4473 40.4417 26.5844L40.3297 26.7383C37.8408 30.1579 36.5 34.2784 36.5 38.5078V41.4922C36.5 45.7216 37.8408 49.8421 40.3297 53.2617L40.4417 53.4156C43.4529 57.5527 48.2611 60 53.378 60H55.6021C58.1742 60 60.6781 59.1736 62.7449 57.6427L63.5 57.0833" stroke="currentColor" stroke-linecap="round" stroke-linejoin="round" />
  <path d="M16.5 27C16.5 23.134 19.634 20 23.5 20C27.366 20 30.5 23.134 30.5 27C30.5 30.866 27.366 34 23.5 34C19.634 34 16.5 30.866 16.5 27Z" stroke="currentColor" stroke-linecap="round" stroke-linejoin="round" />
</svg>