<svg viewBox="0 0 80 80" fill="none">
  <path d="M41.73 25.9629C42.4703 25.2671 43.4494 24.8778 44.4689 24.8777L57.9995 24.8762C60.2089 24.876 62 26.6669 62 28.8762L62 62.8761C62 65.0853 60.2091 66.8761 58 66.8761H34C31.7909 66.8761 30 65.0853 30 62.8761V39.4459C30 38.4291 30.3871 37.4521 31.0801 36.712" stroke="currentColor" stroke-linecap="round" stroke-linejoin="round" />
  <path d="M30 54.8759H22C19.7909 54.8759 18 53.085 18 50.8759L18 16.876C18 14.6667 19.7911 12.8757 22.0004 12.876L45.9993 12.8763C48.2087 12.8759 50 14.6668 50 16.8763V24.8769" stroke="currentColor" stroke-linecap="round" stroke-linejoin="round" />
  <path d="M31.1262 36.6605L41.6635 26.0218C42.0812 25.6001 42.8002 25.8965 42.8002 26.4901V33.7979C42.8002 36.007 41.0093 37.7979 38.8002 37.7979H31.6002C31.0073 37.7979 30.7089 37.0818 31.1262 36.6605Z" stroke="currentColor" stroke-linecap="round" stroke-linejoin="round" />
</svg>