<svg viewBox="0 0 80 80" fill="none">
  <path d="M54 65C52.3431 65 51 63.6569 51 62V29H18C16.3431 29 15 27.6569 15 26C15 24.3431 16.3431 23 18 23H54C55.6569 23 57 24.3431 57 26V62C57 63.6569 55.6569 65 54 65Z" stroke="currentColor" stroke-linecap="round" stroke-linejoin="round" />
  <path d="M29 18C29 16.3431 27.6569 15 26 15C24.3431 15 23 16.3431 23 18V23H29V18Z" stroke="currentColor" stroke-linecap="round" stroke-linejoin="round" />
  <path d="M29 29V51H51V57H26C24.3431 57 23 55.6569 23 54V29H29Z" stroke="currentColor" stroke-linecap="round" stroke-linejoin="round" />
  <path d="M57 57V51H62C63.6569 51 65 52.3431 65 54C65 55.6569 63.6569 57 62 57H57Z" stroke="currentColor" stroke-linecap="round" stroke-linejoin="round" />
  <path d="M26 54L62 18" stroke="currentColor" stroke-linecap="round" stroke-linejoin="round" />
</svg>