<svg viewBox="0 0 80 80" fill="none">
  <path d="M15 31C13.3431 31 12 32.3431 12 34L12 46C12 47.6569 13.3431 49 15 49H25.8488C26.5899 49 27.3048 48.7257 27.8557 48.2299L34.5224 42.2299C35.8465 41.0382 35.8465 38.9618 34.5224 37.7701L27.8557 31.7701C27.3048 31.2743 26.5899 31 25.8488 31L15 31Z" stroke="currentColor" stroke-linecap="round" stroke-linejoin="round" />
  <path d="M31 15C31 13.3431 32.3431 12 34 12H46C47.6569 12 49 13.3431 49 15V25.8488C49 26.5899 48.7257 27.3048 48.2299 27.8557L42.2299 34.5224C41.0382 35.8465 38.9618 35.8465 37.7701 34.5224L31.7701 27.8557C31.2743 27.3048 31 26.5899 31 25.8488V15Z" stroke="currentColor" stroke-linecap="round" stroke-linejoin="round" />
  <path d="M65.0001 31C66.6569 31 68.0001 32.3431 68.0001 34V46C68.0001 47.6569 66.6569 49 65.0001 49H54.1513C53.4102 49 52.6953 48.7257 52.1444 48.2299L45.4777 42.2299C44.1536 41.0382 44.1536 38.9618 45.4777 37.7701L52.1444 31.7701C52.6953 31.2743 53.4102 31 54.1513 31L65.0001 31Z" stroke="currentColor" stroke-linecap="round" stroke-linejoin="round" />
  <path d="M31 64.9998C31 66.6567 32.3431 67.9998 34 67.9998H46C47.6569 67.9998 49 66.6567 49 64.9998V54.151C49 53.4099 48.7257 52.695 48.2299 52.1441L42.2299 45.4775C41.0382 44.1533 38.9618 44.1533 37.7701 45.4775L31.7701 52.1441C31.2743 52.695 31 53.4099 31 54.151V64.9998Z" stroke="currentColor" stroke-linecap="round" stroke-linejoin="round" />
</svg>