<svg viewBox="0 0 80 80" fill="none">
  <path d="M12.6566 39.284C9.53243 36.1598 9.53243 31.0945 12.6566 27.9703L23.9703 16.6566C27.0945 13.5324 32.1598 13.5324 35.284 16.6566L46.5977 27.9703C49.7219 31.0945 49.7219 36.1598 46.5977 39.284L35.284 50.5977C32.1598 53.7219 27.0945 53.7219 23.9703 50.5977L12.6566 39.284Z" stroke="currentColor" stroke-linecap="round" stroke-linejoin="round" />
  <path d="M16.428 34.5704C15.3866 33.529 15.3866 31.8405 16.428 30.7991C17.4694 29.7577 19.1579 29.7577 20.1993 30.7991C21.2407 31.8405 21.2407 33.529 20.1993 34.5704C19.1579 35.6117 17.4694 35.6117 16.428 34.5704Z" stroke="currentColor" stroke-linecap="round" stroke-linejoin="round" />
  <path d="M26.7991 24.1993C25.7577 23.1579 25.7577 21.4694 26.7991 20.428C27.8405 19.3866 29.529 19.3866 30.5704 20.428C31.6117 21.4694 31.6117 23.1579 30.5704 24.1993C29.529 25.2407 27.8405 25.2407 26.7991 24.1993Z" stroke="currentColor" stroke-linecap="round" stroke-linejoin="round" />
  <path d="M28.6844 46.8267C27.643 45.7853 27.643 44.0969 28.6844 43.0555C29.7258 42.0141 31.4142 42.0141 32.4556 43.0555C33.497 44.0969 33.497 45.7853 32.4556 46.8267C31.4142 47.8681 29.7258 47.8681 28.6844 46.8267Z" stroke="currentColor" stroke-linecap="round" stroke-linejoin="round" />
  <path d="M39.0555 36.4556C38.0141 35.4142 38.0141 33.7258 39.0555 32.6844C40.0969 31.643 41.7853 31.643 42.8267 32.6844C43.8681 33.7258 43.8681 35.4142 42.8267 36.4556C41.7853 37.497 40.0969 37.497 39.0555 36.4556Z" stroke="currentColor" stroke-linecap="round" stroke-linejoin="round" />
  <path d="M37.4955 48.3869L36.1022 53.5866C34.9587 57.8543 37.4913 62.241 41.7591 63.3845L57.2139 67.5257C61.4816 68.6692 65.8683 66.1365 67.0118 61.8688L71.1529 46.414C72.2965 42.1463 69.7638 37.7596 65.4961 36.616L50.0413 32.4749C49.6349 32.366 49.2275 32.2905 48.8219 32.2466" stroke="currentColor" stroke-linecap="round" stroke-linejoin="round" />
  <path d="M60.3781 42.836C60.7593 41.4135 62.2216 40.5692 63.6441 40.9504C65.0667 41.3316 65.9109 42.7938 65.5298 44.2164C65.1486 45.639 63.6863 46.4832 62.2638 46.102C60.8412 45.7208 59.997 44.2586 60.3781 42.836Z" stroke="currentColor" stroke-linecap="round" stroke-linejoin="round" />
  <path d="M41.7253 55.7828C42.1065 54.3602 43.5687 53.516 44.9913 53.8972C46.4139 54.2784 47.2581 55.7406 46.8769 57.1632C46.4957 58.5858 45.0335 59.43 43.6109 59.0488C42.1884 58.6676 41.3441 57.2054 41.7253 55.7828Z" stroke="currentColor" stroke-linecap="round" stroke-linejoin="round" />
</svg>