<svg viewBox="0 0 80 80" fill="none">
  <path d="M38 24.7417H18C16.8954 24.7417 16 25.6371 16 26.7417V62.7417C16 63.8463 16.8954 64.7417 18 64.7417H54C55.1046 64.7417 56 63.8463 56 62.7417V42.7417" stroke="currentColor" stroke-linecap="round" stroke-linejoin="round" />
  <path d="M63.543 24.4832C64.0625 23.9636 64.0625 23.1213 63.543 22.6017L57.8861 16.9449C57.3643 16.423 56.5182 16.423 55.9963 16.9449L31.6828 41.2584C29.1138 43.8274 27.4956 47.1943 27.0943 50.8052L26.8656 52.8638C26.8173 53.2988 27.1848 53.6664 27.6199 53.618L29.6784 53.3893C33.2894 52.9881 36.6562 51.3699 39.2252 48.8009L63.543 24.4832Z" stroke="currentColor" stroke-linecap="round" stroke-linejoin="round" />
  <path d="M49.4023 23.5461L56.9407 31.0845" stroke="currentColor" stroke-linecap="round" stroke-linejoin="round" />
</svg>