<svg viewBox="0 0 80 80" fill="none">
  <path d="M4 37.1041L3.6742 36.7249C3.48719 36.8855 3.44518 37.1585 3.57523 37.3679L4 37.1041ZM10.1948 31.7827L10.647 31.5695C10.5805 31.4283 10.4518 31.3263 10.2991 31.2937C10.1465 31.2611 9.98738 31.3017 9.86898 31.4034L10.1948 31.7827ZM4.0012 37.1061L3.57644 37.3698C3.65344 37.4938 3.7808 37.578 3.92508 37.6002C4.06936 37.6225 4.21614 37.5805 4.3269 37.4854L4.0012 37.1061ZM10.1968 31.787L10.5225 32.1664C10.6932 32.0198 10.745 31.7773 10.6491 31.5738L10.1968 31.787ZM14.2236 46.1585L13.9877 46.5994C14.2168 46.722 14.5017 46.6487 14.6431 46.4306L14.2236 46.1585ZM14.2217 46.1575L13.8021 45.8855C13.726 46.0029 13.7026 46.1468 13.7375 46.2822C13.7724 46.4177 13.8624 46.5323 13.9857 46.5983L14.2217 46.1575ZM18.5967 39.4168L19.0162 39.6889C19.0934 39.5698 19.1164 39.4237 19.0795 39.2867C19.0426 39.1497 18.9493 39.0349 18.8228 38.9708L18.5967 39.4168ZM18.5927 39.4147L18.8187 38.9687C18.5907 38.8531 18.3122 38.9282 18.1731 39.1427L18.5927 39.4147ZM27.0602 50.6647L26.9583 51.1542C27.2129 51.2072 27.4657 51.0562 27.5396 50.8068L27.0602 50.6647ZM27.0577 50.6642L26.5783 50.5222C26.5386 50.6562 26.5568 50.8007 26.6285 50.9207C26.7003 51.0407 26.8189 51.1252 26.9558 51.1537L27.0577 50.6642ZM29.3428 42.9644L29.8222 43.1065C29.8622 42.9714 29.8434 42.8257 29.7704 42.7052C29.6974 42.5848 29.577 42.5007 29.4387 42.4736L29.3428 42.9644ZM29.338 42.9634L29.4339 42.4727C29.1809 42.4233 28.9318 42.5743 28.8586 42.8215L29.338 42.9634ZM40.3172 52.0003V52.5003C40.5933 52.5003 40.8172 52.2765 40.8172 52.0004L40.3172 52.0003ZM40.3184 44.0003L40.8184 44.0004C40.8184 43.8677 40.7657 43.7405 40.6719 43.6468C40.5782 43.553 40.451 43.5003 40.3184 43.5003V44.0003ZM40.3134 44.0003V43.5003C40.1807 43.5003 40.0535 43.553 39.9598 43.6468C39.866 43.7405 39.8133 43.8677 39.8134 44.0004L40.3134 44.0003ZM40.3145 52.0003L39.8145 52.0004C39.8145 52.2765 40.0384 52.5003 40.3145 52.5003V52.0003ZM53.574 50.6643L53.6759 51.1538C53.8127 51.1253 53.9314 51.0408 54.0032 50.9208C54.0749 50.8009 54.0931 50.6563 54.0535 50.5223L53.574 50.6643ZM53.5715 50.6648L53.0921 50.8069C53.1661 51.0562 53.4188 51.2073 53.6734 51.1543L53.5715 50.6648ZM51.2937 42.9635L51.7731 42.8215C51.6999 42.5743 51.4508 42.4233 51.1977 42.4728L51.2937 42.9635ZM51.2889 42.9644L51.193 42.4737C51.0547 42.5008 50.9343 42.5849 50.8613 42.7053C50.7883 42.8258 50.7695 42.9715 50.8096 43.1065L51.2889 42.9644ZM66.4102 46.1577L66.6461 46.5985C66.7694 46.5325 66.8595 46.4179 66.8944 46.2824C66.9292 46.147 66.9058 46.0031 66.8297 45.8857L66.4102 46.1577ZM66.4082 46.1587L65.9887 46.4308C66.1302 46.6489 66.4151 46.7222 66.6442 46.5996L66.4082 46.1587ZM62.0392 39.4149L62.4587 39.1429C62.3197 38.9284 62.0412 38.8533 61.8131 38.9689L62.0392 39.4149ZM62.0351 39.4169L61.8091 38.971C61.6826 39.0351 61.5892 39.1499 61.5523 39.2869C61.5154 39.4239 61.5385 39.57 61.6157 39.689L62.0351 39.4169ZM76.632 37.1044L77.0566 37.3685C77.1869 37.1591 77.145 36.8859 76.9578 36.7251L76.632 37.1044ZM76.6308 37.1063L76.3051 37.4857C76.4158 37.5808 76.5625 37.6227 76.7067 37.6005C76.8509 37.5784 76.9783 37.4944 77.0554 37.3705L76.6308 37.1063ZM70.4373 31.783L70.7631 31.4037C70.6446 31.302 70.4855 31.2614 70.3328 31.2941C70.1801 31.3267 70.0514 31.4288 69.9849 31.57L70.4373 31.783ZM70.4353 31.7873L69.9829 31.5743C69.8871 31.7778 69.9389 32.0202 70.1096 32.1667L70.4353 31.7873ZM4.3258 37.4834L10.5206 32.162L9.86898 31.4034L3.6742 36.7249L4.3258 37.4834ZM4.42597 36.8423L4.42477 36.8404L3.57523 37.3679L3.57644 37.3698L4.42597 36.8423ZM9.87111 31.4076L3.67551 36.7267L4.3269 37.4854L10.5225 32.1664L9.87111 31.4076ZM9.74253 31.996L9.74456 32.0002L10.6491 31.5738L10.647 31.5695L9.74253 31.996ZM14.4596 45.7177L14.4576 45.7167L13.9857 46.5983L13.9877 46.5994L14.4596 45.7177ZM18.1772 39.1447L13.8041 45.8864L14.6431 46.4306L19.0162 39.6889L18.1772 39.1447ZM18.3666 39.8607L18.3707 39.8627L18.8228 38.9708L18.8187 38.9687L18.3666 39.8607ZM14.6412 46.4295L19.0122 39.6867L18.1731 39.1427L13.8021 45.8855L14.6412 46.4295ZM27.1621 50.1752L27.1596 50.1747L26.9558 51.1537L26.9583 51.1542L27.1621 50.1752ZM28.8634 42.8223L26.5808 50.5226L27.5396 50.8068L29.8222 43.1065L28.8634 42.8223ZM29.2421 43.4541L29.2469 43.4551L29.4387 42.4736L29.4339 42.4727L29.2421 43.4541ZM27.5371 50.8061L29.8174 43.1054L28.8586 42.8215L26.5783 50.5222L27.5371 50.8061ZM40.3172 51.5003H40.3161V52.5003H40.3172V51.5003ZM39.8184 44.0002L39.8172 52.0002L40.8172 52.0004L40.8184 44.0004L39.8184 44.0002ZM40.3161 44.5003H40.3184V43.5003H40.3161V44.5003ZM40.3134 44.5003H40.3161V43.5003H40.3134V44.5003ZM40.8145 52.0002L40.8134 44.0002L39.8134 44.0004L39.8145 52.0004L40.8145 52.0002ZM40.3161 51.5003H40.3145V52.5003H40.3161V51.5003ZM53.4722 50.1747L53.4697 50.1753L53.6734 51.1543L53.6759 51.1538L53.4722 50.1747ZM50.8143 43.1055L53.0946 50.8062L54.0535 50.5223L51.7731 42.8215L50.8143 43.1055ZM51.3849 43.4551L51.3897 43.4542L51.1977 42.4728L51.193 42.4737L51.3849 43.4551ZM54.0509 50.5227L51.7683 42.8223L50.8096 43.1065L53.0921 50.8069L54.0509 50.5227ZM66.1742 45.7169L66.1723 45.7179L66.6442 46.5996L66.6461 46.5985L66.1742 45.7169ZM61.6196 39.6869L65.9906 46.4297L66.8297 45.8857L62.4587 39.1429L61.6196 39.6869ZM62.2612 39.8629L62.2652 39.8609L61.8131 38.9689L61.8091 38.971L62.2612 39.8629ZM66.8277 45.8866L62.4546 39.1448L61.6157 39.689L65.9887 46.4308L66.8277 45.8866ZM76.2075 36.8403L76.2063 36.8422L77.0554 37.3705L77.0566 37.3685L76.2075 36.8403ZM70.1115 32.1623L76.3062 37.4837L76.9578 36.7251L70.7631 31.4037L70.1115 32.1623ZM70.8876 32.0003L70.8896 31.996L69.9849 31.57L69.9829 31.5743L70.8876 32.0003ZM76.9565 36.727L70.761 31.4079L70.1096 32.1667L76.3051 37.4857L76.9565 36.727Z" fill="currentColor" />
  <path d="M9.31592 28C9.31592 30.1011 10.1178 32.1817 11.6757 34.1229C13.2335 36.0641 15.517 37.828 18.3956 39.3137C21.2742 40.7994 24.6916 41.978 28.4527 42.7821C32.2138 43.5861 36.2449 44 40.3159 44C44.3869 44 48.418 43.5861 52.1791 42.7821C55.9402 41.978 59.3576 40.7994 62.2362 39.3137C65.1148 37.828 67.3983 36.0641 68.9562 34.1229C70.5141 32.1817 71.3159 30.1011 71.3159 28" stroke="currentColor" stroke-linecap="round" stroke-linejoin="round" />
</svg>