<svg viewBox="0 0 80 80" fill="none">
  <path d="M71.03 39.7359L71.4829 39.9476L71.5819 39.7359L71.4829 39.5242L71.03 39.7359ZM66.782 46.5831L66.3911 46.2714L66.782 46.5831ZM13.2472 46.5831L12.8562 46.8949L13.2472 46.5831ZM9 39.7377L8.54704 39.526L8.44806 39.7377L8.54706 39.9495L9 39.7377ZM13.248 32.8905L12.8571 32.5788L13.248 32.8905ZM66.7828 32.8905L67.1737 32.5788L66.7828 32.8905ZM70.577 39.5242C69.4632 41.9071 68.0638 44.1738 66.3911 46.2714L67.1729 46.8949C68.8952 44.7352 70.336 42.4012 71.4829 39.9476L70.577 39.5242ZM66.3911 46.2714C59.9897 54.2984 50.2815 58.9736 40.0146 58.9736V59.9736C50.5858 59.9736 60.5818 55.1598 67.1729 46.8949L66.3911 46.2714ZM40.0146 58.9736C29.7476 58.9736 20.0394 54.2984 13.6381 46.2714L12.8562 46.8949C19.4473 55.1598 29.4433 59.9736 40.0146 59.9736V58.9736ZM13.6381 46.2714C11.9657 44.1743 10.5667 41.9082 9.45294 39.526L8.54706 39.9495C9.69382 42.4024 11.1344 44.7357 12.8562 46.8949L13.6381 46.2714ZM12.8571 32.5788C11.1348 34.7384 9.69395 37.0724 8.54704 39.526L9.45296 39.9494C10.5668 37.5666 11.9661 35.2998 13.6389 33.2023L12.8571 32.5788ZM40.0154 19.5C29.4441 19.5 19.4482 24.3138 12.8571 32.5788L13.6389 33.2023C20.0402 25.1752 29.7485 20.5 40.0154 20.5V19.5ZM67.1737 32.5788C60.5827 24.3138 50.5867 19.5 40.0154 19.5V20.5C50.2824 20.5 59.9906 25.1752 66.3919 33.2023L67.1737 32.5788ZM71.4829 39.5242C70.3362 37.0712 68.8956 34.7379 67.1737 32.5788L66.3919 33.2023C68.0643 35.2993 69.4633 37.5655 70.577 39.9477L71.4829 39.5242Z" fill="currentColor" />
  <path d="M55.8116 36.6086L55.3242 36.4974V36.4974L55.8116 36.6086ZM32.9643 47.6113L33.1812 47.1608L32.9643 47.6113ZM24.19 36.6086L24.6774 36.4974L24.19 36.6086ZM27.3215 22.8885L26.9306 22.5768L26.9306 22.5768L27.3215 22.8885ZM27.8821 22.2229L27.7048 21.7554L27.59 21.7989L27.5084 21.8907L27.8821 22.2229ZM52.1022 22.2035L52.4753 21.8707L52.3936 21.7791L52.2787 21.7357L52.1022 22.2035ZM52.6801 22.8885L53.071 22.5768V22.5768L52.6801 22.8885ZM47.2542 48.0618C51.8379 45.8544 55.167 41.6799 56.2991 36.7199L55.3242 36.4974C54.2598 41.1607 51.1298 45.0855 46.8203 47.1608L47.2542 48.0618ZM32.7474 48.0618C37.3311 50.2692 42.6705 50.2692 47.2542 48.0618L46.8203 47.1608C42.5108 49.2362 37.4908 49.2362 33.1812 47.1608L32.7474 48.0618ZM23.7025 36.7199C24.8346 41.6799 28.1637 45.8544 32.7474 48.0618L33.1812 47.1608C28.8717 45.0855 25.7418 41.1607 24.6774 36.4974L23.7025 36.7199ZM26.9306 22.5768C23.7585 26.5543 22.5704 31.7599 23.7025 36.7199L24.6774 36.4974C23.6131 31.8341 24.7301 26.9399 27.7124 23.2002L26.9306 22.5768ZM27.5084 21.8907C27.3103 22.1135 27.1176 22.3423 26.9306 22.5768L27.7124 23.2003C27.8882 22.9797 28.0694 22.7647 28.2557 22.5552L27.5084 21.8907ZM28.0593 22.6905C31.8349 21.259 35.881 20.5 40.0178 20.5V19.5C35.7584 19.5 31.5924 20.2815 27.7048 21.7554L28.0593 22.6905ZM40.0178 20.5C44.1362 20.5 48.1646 21.2522 51.9257 22.6713L52.2787 21.7357C48.4061 20.2746 44.2582 19.5 40.0178 19.5V20.5ZM53.071 22.5768C52.8784 22.3352 52.6797 22.0998 52.4753 21.8707L51.7291 22.5364C51.9213 22.7518 52.1081 22.9731 52.2892 23.2003L53.071 22.5768ZM56.2991 36.7199C57.4312 31.7599 56.243 26.5544 53.071 22.5768L52.2892 23.2003C55.2715 26.9399 56.3885 31.8341 55.3242 36.4974L56.2991 36.7199Z" fill="currentColor" />
  <path d="M32.1826 28.4863C32.3207 28.2472 32.2387 27.9414 31.9996 27.8033C31.7604 27.6652 31.4547 27.7472 31.3166 27.9863L32.1826 28.4863ZM34.9847 41.6793C35.2238 41.8174 35.5296 41.7355 35.6678 41.4964C35.8059 41.2573 35.724 40.9514 35.4848 40.8133L34.9847 41.6793ZM30.9736 32.9985C30.9736 31.3864 31.4036 29.8357 32.1826 28.4863L31.3166 27.9863C30.4513 29.4851 29.9736 31.2078 29.9736 32.9985H30.9736ZM35.4848 40.8133C32.6933 39.2011 30.9736 36.2222 30.9736 32.9985H29.9736C29.9736 36.5794 31.8838 39.8884 34.9847 41.6793L35.4848 40.8133Z" fill="currentColor" />
  <path d="M16 64L64 16" stroke="currentColor" stroke-linecap="round" stroke-linejoin="round" />
</svg>