<svg viewBox="0 0 80 80" fill="none">
  <path d="M71.0149 39.9991L71.4678 40.2108L71.5668 39.9991L71.4678 39.7873L71.0149 39.9991ZM66.7669 46.8463L66.3759 46.5346L66.7669 46.8463ZM13.232 46.8463L12.8411 47.1581L13.232 46.8463ZM8.98486 40.0009L8.53191 39.7892L8.43293 40.0009L8.53192 40.2127L8.98486 40.0009ZM13.2329 33.1537L12.8419 32.8419L13.2329 33.1537ZM66.7677 33.1537L67.1586 32.8419L66.7677 33.1537ZM70.5619 39.7874C69.448 42.1702 68.0487 44.437 66.3759 46.5346L67.1578 47.1581C68.8801 44.9984 70.3209 42.6644 71.4678 40.2108L70.5619 39.7874ZM66.3759 46.5346C59.9746 54.5616 50.2664 59.2368 39.9994 59.2368V60.2368C50.5707 60.2368 60.5667 55.423 67.1578 47.1581L66.3759 46.5346ZM39.9994 59.2368C29.7325 59.2368 20.0243 54.5616 13.6229 46.5346L12.8411 47.1581C19.4322 55.423 29.4282 60.2368 39.9994 60.2368V59.2368ZM13.6229 46.5346C11.9506 44.4375 10.5515 42.1714 9.43781 39.7891L8.53192 40.2127C9.67868 42.6656 11.1192 44.9989 12.8411 47.1581L13.6229 46.5346ZM12.8419 32.8419C11.1197 35.0016 9.67881 37.3356 8.53191 39.7892L9.43782 40.2126C10.5517 37.8298 11.951 35.563 13.6238 33.4654L12.8419 32.8419ZM40.0003 19.7632C29.429 19.7632 19.433 24.577 12.8419 32.8419L13.6238 33.4654C20.0251 25.4384 29.7333 20.7632 40.0003 20.7632V19.7632ZM67.1586 32.8419C60.5675 24.577 50.5715 19.7632 40.0003 19.7632V20.7632C50.2672 20.7632 59.9754 25.4384 66.3768 33.4654L67.1586 32.8419ZM71.4678 39.7873C70.321 37.3344 68.8805 35.0011 67.1586 32.8419L66.3768 33.4654C68.0491 35.5625 69.4482 37.8286 70.5619 40.2109L71.4678 39.7873Z" fill="currentColor" />
  <path d="M55.7965 36.8718L55.309 36.7606V36.7606L55.7965 36.8718ZM32.9492 47.8745L33.1661 47.424L32.9492 47.8745ZM24.1748 36.8718L24.6623 36.7606L24.1748 36.8718ZM27.3063 23.1517L26.9154 22.8399L26.9154 22.8399L27.3063 23.1517ZM27.8669 22.4861L27.6897 22.0186L27.5749 22.0621L27.4933 22.1539L27.8669 22.4861ZM52.0871 22.4667L52.4602 22.1339L52.3785 22.0422L52.2636 21.9989L52.0871 22.4667ZM52.665 23.1517L53.0559 22.8399V22.8399L52.665 23.1517ZM47.2391 48.325C51.8228 46.1176 55.1519 41.943 56.284 36.9831L55.309 36.7606C54.2447 41.4238 51.1147 45.3487 46.8052 47.424L47.2391 48.325ZM32.7322 48.325C37.3159 50.5324 42.6554 50.5324 47.2391 48.325L46.8052 47.424C42.4957 49.4994 37.4756 49.4994 33.1661 47.424L32.7322 48.325ZM23.6874 36.9831C24.8194 41.943 28.1485 46.1176 32.7322 48.325L33.1661 47.424C28.8566 45.3487 25.7266 41.4238 24.6623 36.7606L23.6874 36.9831ZM26.9154 22.8399C23.7434 26.8175 22.5553 32.0231 23.6874 36.9831L24.6623 36.7606C23.5979 32.0973 24.715 27.2031 27.6973 23.4634L26.9154 22.8399ZM27.4933 22.1539C27.2951 22.3767 27.1024 22.6054 26.9154 22.8399L27.6973 23.4634C27.8731 23.2429 28.0543 23.0279 28.2406 22.8184L27.4933 22.1539ZM28.0442 22.9536C31.8198 21.5222 35.8658 20.7632 40.0027 20.7632V19.7632C35.7433 19.7632 31.5772 20.5447 27.6897 22.0186L28.0442 22.9536ZM40.0027 20.7632C44.121 20.7632 48.1494 21.5154 51.9106 22.9345L52.2636 21.9989C48.3909 20.5377 44.243 19.7632 40.0027 19.7632V20.7632ZM53.0559 22.8399C52.8633 22.5984 52.6646 22.363 52.4602 22.1339L51.714 22.7995C51.9061 23.015 52.0929 23.2363 52.274 23.4634L53.0559 22.8399ZM56.284 36.9831C57.416 32.0231 56.2279 26.8175 53.0559 22.8399L52.274 23.4634C55.2563 27.2031 56.3734 32.0973 55.309 36.7606L56.284 36.9831Z" fill="currentColor" />
  <path d="M32.1675 28.7495C32.3055 28.5104 32.2236 28.2046 31.9845 28.0665C31.7453 27.9284 31.4395 28.0104 31.3014 28.2495L32.1675 28.7495ZM34.9696 41.9425C35.2087 42.0806 35.5145 41.9987 35.6526 41.7596C35.7907 41.5204 35.7088 41.2146 35.4697 41.0765L34.9696 41.9425ZM30.9585 33.2617C30.9585 31.6496 31.3884 30.0989 32.1675 28.7495L31.3014 28.2495C30.4362 29.7483 29.9585 31.471 29.9585 33.2617H30.9585ZM35.4697 41.0765C32.6781 39.4643 30.9585 36.4854 30.9585 33.2617H29.9585C29.9585 36.8426 31.8687 40.1516 34.9696 41.9425L35.4697 41.0765Z" fill="currentColor" />
</svg>