<svg viewBox="0 0 80 80" fill="none">
  <path d="M17 46.5C16.7239 46.5 16.5 46.7239 16.5 47C16.5 47.2761 16.7239 47.5 17 47.5V46.5ZM33 47.5C33.2761 47.5 33.5 47.2761 33.5 47C33.5 46.7239 33.2761 46.5 33 46.5V47.5ZM24.5848 20.3113L25.0648 20.4514V20.4514L24.5848 20.3113ZM12.52 59.8599C12.4427 60.125 12.5948 60.4026 12.8599 60.48C13.125 60.5573 13.4026 60.4052 13.48 60.1401L12.52 59.8599ZM25.4152 20.3113L24.9352 20.4514V20.4514L25.4152 20.3113ZM36.52 60.1401C36.5974 60.4052 36.875 60.5573 37.1401 60.48C37.4052 60.4026 37.5573 60.125 37.48 59.8599L36.52 60.1401ZM17 47.5H33V46.5H17V47.5ZM24.1048 20.1712L12.52 59.8599L13.48 60.1401L25.0648 20.4514L24.1048 20.1712ZM24.9352 20.4514L36.52 60.1401L37.48 59.8599L25.8952 20.1712L24.9352 20.4514ZM25 20.5C24.97 20.5 24.9436 20.4802 24.9352 20.4514L25.8952 20.1712C25.7791 19.7734 25.4144 19.5 25 19.5V20.5ZM25.0648 20.4514C25.0564 20.4802 25.03 20.5 25 20.5V19.5C24.5856 19.5 24.2209 19.7734 24.1048 20.1712L25.0648 20.4514Z" fill="currentColor" />
  <path d="M67 44H67.5C67.5 43.7239 67.2761 43.5 67 43.5V44ZM66.5 60C66.5 60.2761 66.7239 60.5 67 60.5C67.2761 60.5 67.5 60.2761 67.5 60H66.5ZM67.5 49C67.5 48.7239 67.2761 48.5 67 48.5C66.7239 48.5 66.5 48.7239 66.5 49H67.5ZM66.5 44C66.5 44.2761 66.7239 44.5 67 44.5C67.2761 44.5 67.5 44.2761 67.5 44H66.5ZM51 31.5C50.7239 31.5 50.5 31.7239 50.5 32C50.5 32.2761 50.7239 32.5 51 32.5V31.5ZM43.5 52C43.5 47.8579 46.8579 44.5 51 44.5V43.5C46.3056 43.5 42.5 47.3056 42.5 52H43.5ZM51 59.5C46.8579 59.5 43.5 56.1421 43.5 52H42.5C42.5 56.6944 46.3056 60.5 51 60.5V59.5ZM56 59.5H51V60.5H56L56 59.5ZM66.5 49C66.5 54.799 61.799 59.5 56 59.5L56 60.5C62.3513 60.5 67.5 55.3513 67.5 49H66.5ZM66.5 44V49H67.5V44H66.5ZM51 44.5H67V43.5H51V44.5ZM67.5 60V49H66.5V60H67.5ZM67.5 44V43H66.5V44H67.5ZM56 31.5L51.1336 31.5V32.5H56V31.5ZM51.1336 31.5H51V32.5H51.1336V31.5ZM67.5 43C67.5 36.6487 62.3513 31.5 56 31.5V32.5C61.799 32.5 66.5 37.201 66.5 43H67.5Z" fill="currentColor" />
</svg>