<svg viewBox="0 0 80 80" fill="none">
  <path d="M56.4153 22.0252C59.5334 21.7474 62.7086 22.3043 65.598 23.6957C70.4151 26.0156 73.9138 30.4027 75.1035 35.6153C76.2933 40.8279 75.0446 46.2986 71.711 50.4788C68.3774 54.659 63.3218 57.0937 57.9751 57.0937C52.8658 57.0937 48.0223 54.8704 44.6933 51.0252H36.7471C36.6865 51.1038 36.6252 51.1819 36.5632 51.2597C33.1442 55.547 27.9588 58.0441 22.4751 58.0441C16.9914 58.0441 11.806 55.547 8.38699 51.2597C4.96793 46.9723 3.68727 41.3613 4.90751 36.0151C6.12776 30.6688 9.71611 26.1692 14.6568 23.7899C17.3875 22.4748 20.367 21.8866 23.3203 22.0252L56.4153 22.0252Z" stroke="currentColor" stroke-linecap="round" stroke-linejoin="round" />
  <path d="M22.4751 29.5223C23.8558 29.5223 24.9751 30.6416 24.9751 32.0223V36.5223H29.4751C30.8558 36.5223 31.9751 37.6416 31.9751 39.0223C31.9751 40.403 30.8558 41.5223 29.4751 41.5223H24.9751V46.0223C24.9751 47.403 23.8558 48.5223 22.4751 48.5223C21.0944 48.5223 19.9751 47.403 19.9751 46.0223V41.5223H15.4751C14.0944 41.5223 12.9751 40.403 12.9751 39.0223C12.9751 37.6416 14.0944 36.5223 15.4751 36.5223H19.9751V32.0223C19.9751 30.6416 21.0944 29.5223 22.4751 29.5223Z" stroke="currentColor" stroke-linecap="round" stroke-linejoin="round" />
  <path d="M48.9754 37.0223C50.08 35.9177 51.8708 35.9177 52.9754 37.0223C54.08 38.1268 54.08 39.9177 52.9754 41.0223C51.8708 42.1268 50.08 42.1268 48.9754 41.0223C47.8708 39.9177 47.8708 38.1268 48.9754 37.0223Z" stroke="currentColor" stroke-linecap="round" stroke-linejoin="round" />
  <path d="M55.9754 44.0223C57.08 42.9177 58.8708 42.9177 59.9754 44.0223C61.08 45.1268 61.08 46.9177 59.9754 48.0223C58.8708 49.1268 57.08 49.1268 55.9754 48.0223C54.8708 46.9177 54.8708 45.1268 55.9754 44.0223Z" stroke="currentColor" stroke-linecap="round" stroke-linejoin="round" />
  <path d="M55.9754 30.0223C57.08 28.9177 58.8708 28.9177 59.9754 30.0223C61.08 31.1268 61.08 32.9177 59.9754 34.0223C58.8708 35.1268 57.08 35.1268 55.9754 34.0223C54.8708 32.9177 54.8708 31.1268 55.9754 30.0223Z" stroke="currentColor" stroke-linecap="round" stroke-linejoin="round" />
  <path d="M62.9754 37.0223C64.08 35.9177 65.8708 35.9177 66.9754 37.0223C68.08 38.1268 68.08 39.9177 66.9754 41.0223C65.8708 42.1268 64.08 42.1268 62.9754 41.0223C61.8708 39.9177 61.8708 38.1268 62.9754 37.0223Z" stroke="currentColor" stroke-linecap="round" stroke-linejoin="round" />
</svg>