<svg viewBox="0 0 80 80" fill="none">
  <path d="M29.3935 14.3935C36.1848 11.5804 43.8154 11.5804 50.6067 14.3935C57.398 17.2065 62.7936 22.6022 65.6067 29.3935C68.4197 36.1848 68.4197 43.8154 65.6067 50.6067C62.7936 57.398 57.398 62.7936 50.6067 65.6067C43.8154 68.4197 36.1848 68.4197 29.3935 65.6067C22.6022 62.7936 17.2065 57.398 14.3935 50.6067C11.5804 43.8154 11.5804 36.1848 14.3935 29.3935C17.2065 22.6022 22.6022 17.2065 29.3935 14.3935Z" stroke="currentColor" stroke-linecap="round" stroke-linejoin="round" />
  <path d="M14.3989 29.3842C13.8355 30.7445 13.3849 32.1385 13.0471 33.5527L13.3205 33.8591C14.0436 34.6694 15.0225 35.2074 16.0941 35.3834L17.1356 35.5546C17.6188 35.634 18.0558 35.8888 18.3628 36.2704C18.9714 37.0268 18.9449 38.1121 18.3001 38.838L18.2204 38.9278C17.8582 39.3355 17.6662 39.8665 17.6837 40.4115L17.745 42.3174C17.7869 43.6187 18.2398 44.8733 19.0387 45.9014C19.8793 46.983 20.3356 48.3138 20.3356 49.6836V53.1928C20.3356 53.9049 20.4626 54.6113 20.7108 55.2788L21.2374 56.6952C21.3043 56.8753 21.4229 57.0317 21.5783 57.1447C22.2238 57.6144 23.1296 57.1532 23.1296 56.3549V53.5331C23.1296 52.9118 23.3693 52.3143 23.7987 51.8652L30.166 45.2065C30.7103 44.6373 31.0141 43.8801 31.0141 43.0925V42.7081C31.0141 41.5991 30.2934 40.6186 29.2349 40.2877C28.7962 40.1505 28.4031 39.8967 28.0975 39.5534L27.684 39.0889C26.8257 38.1246 25.6139 37.5484 24.3243 37.4913L23.9035 37.4726C22.6023 37.415 21.3811 36.8285 20.5227 35.849L20.1524 35.4265C19.797 35.021 19.3337 34.725 18.8165 34.573L17.8668 34.2939C17.2202 34.1038 16.7761 33.5104 16.7761 32.8364C16.7761 31.9975 17.4562 31.3173 18.2952 31.3173H19.6075C19.8504 31.3173 20.0804 31.4261 20.2345 31.6138C20.7376 32.2267 21.7307 31.8279 21.6701 31.0373L21.6652 30.9733C21.6472 30.7381 21.7299 30.5064 21.8928 30.3358L27.6576 24.2964C28.0522 23.883 28.1924 23.2887 28.0241 22.7426C27.8407 22.1473 27.3241 21.7157 26.7057 21.641L25.7413 21.5245C25.5372 21.4998 25.3475 21.4066 25.2031 21.2602C24.6752 20.7245 23.7622 21.0254 23.6563 21.77L23.5664 22.4013C23.4873 22.9574 23.0401 23.3883 22.4815 23.4467L21.7963 23.5183C21.1412 23.5868 20.4919 23.3451 20.041 22.865L19.3395 22.1179C19.2442 22.0164 19.1665 21.9043 19.1066 21.7854" stroke="currentColor" stroke-linecap="round" stroke-linejoin="round" />
  <path d="M23.6873 17.5873C24.2921 17.1467 24.9157 16.73 25.5567 16.3384L26.6772 17.8756C27.0776 18.4249 26.6974 19.198 26.0179 19.2163C25.8166 19.2217 25.62 19.1549 25.4636 19.0281L23.6873 17.5873Z" stroke="currentColor" stroke-linecap="round" stroke-linejoin="round" />
  <path d="M31.0738 13.7528C31.5575 13.5881 32.0446 13.4372 32.5346 13.3L35.7875 13.1093C37.9314 12.9836 39.7699 14.6226 39.8902 16.7668C39.9523 17.8734 39.5384 18.9537 38.7529 19.7355L36.6195 21.8589C35.5233 22.9499 33.7222 22.8576 32.7366 21.6657C32.3301 21.174 32.1167 20.5483 32.1398 19.9107C32.1647 19.2235 31.9166 18.5544 31.4498 18.0494L30.7209 17.2609C30.2271 16.7267 30.008 15.9941 30.1274 15.2765C30.2324 14.6459 30.583 14.1065 31.0738 13.7528Z" stroke="currentColor" stroke-linecap="round" stroke-linejoin="round" />
  <path d="M56.6152 17.8022C56.5806 17.834 56.5466 17.8664 56.5131 17.8996L55.2701 19.1329C55.0222 19.3789 54.93 19.7415 55.0304 20.076C55.229 20.7375 56.0466 20.9699 56.5634 20.5118L57.7301 19.4776C57.9964 19.2415 58.406 19.276 58.6291 19.5533C58.8228 19.794 58.8109 20.1402 58.6013 20.3671L57.5598 21.494C57.3902 21.6776 57.2861 21.9122 57.2638 22.1612C57.2125 22.7353 56.7378 23.179 56.1616 23.1916L54.6851 23.2239C54.0105 23.2387 53.3642 23.4982 52.8666 23.954L51.1649 25.5129L50.2197 27.5528C50.01 28.0053 49.6212 28.35 49.1467 28.5038L48.4454 28.7312C48.0133 28.8713 47.7468 29.3041 47.8161 29.7529C47.8802 30.1679 48.2156 30.4877 48.6332 30.532L49.339 30.6069C49.8862 30.665 50.4309 30.4761 50.8247 30.0917L51.3501 29.5788C52.002 28.9424 52.8815 28.5934 53.7924 28.6097L53.8128 28.61M64.4018 26.8366C64.248 26.8057 64.0887 26.7953 63.928 26.8074L63.3816 26.8487C62.4057 26.9224 61.5462 27.519 61.1358 28.4075L60.7088 29.332L59.6412 29.3961C59.2225 29.4212 58.8277 29.5996 58.5321 29.8972C58.2496 30.1817 57.876 30.3577 57.4768 30.3943L55.5025 30.5755M55.5025 30.5755L53.8128 28.61M55.5025 30.5755C54.9548 30.0254 53.8128 28.61 53.8128 28.61" stroke="currentColor" stroke-linecap="round" stroke-linejoin="round" />
  <path d="M65.6375 29.4453C65.2831 29.7708 64.7587 29.8306 64.3399 29.5925L63.8949 29.3395C63.5677 29.1534 63.1905 29.0743 62.8161 29.1132L60.709 29.3322L61.8482 30.6263C62.5089 31.3768 62.471 32.5119 61.7618 33.2167C61.3918 33.5844 60.8863 33.7828 60.365 33.7651L58.7724 33.711C58.5581 33.7037 58.3579 33.8177 58.2549 34.0058C58.1208 34.2505 57.8287 34.3616 57.5658 34.2679L54.9522 33.336C54.693 33.2436 54.5083 33.0125 54.4753 32.7392C54.4302 32.3652 54.1065 32.0879 53.73 32.1007L51.2229 32.1858C51.0668 32.1911 50.9174 32.1223 50.82 32.0002C50.6207 31.7505 50.2403 31.7528 50.044 32.005L48.62 33.8356C48.3543 34.177 48.1894 34.5859 48.1438 35.0161L47.9274 37.0554C47.7448 38.7761 48.3466 40.4876 49.566 41.7154L50.3497 42.5046C50.9099 43.0687 51.6692 43.3902 52.4641 43.4C54.1032 43.4202 55.4296 44.7392 55.4589 46.3781L55.4822 47.6754C55.4951 48.3967 55.8303 49.0744 56.3958 49.5224C56.9523 49.9633 57.2863 50.627 57.3086 51.3367L57.3983 54.1846C57.4142 54.6912 57.5834 55.1838 57.8807 55.5944C58.3432 56.233 59.0809 56.6223 59.8693 56.6395C60.5785 56.655 61.2614 56.3707 61.7502 55.8565L62.6605 54.899C63.6295 53.8797 64.1719 52.5282 64.1764 51.1217L64.1887 47.2942C64.1923 46.1758 64.6305 45.1027 65.4107 44.3015L66.1676 43.5243C66.7507 42.9255 66.9781 42.0654 66.7671 41.2567C66.6636 40.86 66.4596 40.4966 66.1748 40.2016L62.6159 36.5157C62.3615 36.2521 62.4068 35.8226 62.7107 35.618C62.9492 35.4575 63.2688 35.4925 63.4667 35.701L65.3139 37.6457C65.8413 38.201 66.564 38.5292 67.3291 38.5609L67.6859 38.5757" stroke="currentColor" stroke-linecap="round" stroke-linejoin="round" />
  <path d="M51.1648 25.5129L47.6932 25.4059C46.5906 25.3719 45.7367 24.4291 45.8117 23.3285C45.8491 22.7797 46.117 22.2724 46.5492 21.932L46.7101 21.8053C48.0725 20.7324 50.0882 21.4084 50.5282 23.0858L51.1648 25.5129Z" stroke="currentColor" stroke-linecap="round" stroke-linejoin="round" />
</svg>