<svg viewBox="0 0 80 80" fill="none">
  <path d="M21.0733 16.964C25.5048 12.8869 31.3067 10.624 37.3284 10.624H39.3112C45.3329 10.624 51.1348 12.8869 55.5664 16.964L56.3087 17.6468C59.814 20.8717 62.1342 25.1325 62.9716 29.7505L66.6272 43.0956C66.9759 44.3684 66.018 45.624 64.6983 45.624H59.5618L58.916 53.3742C58.6568 56.484 56.0573 58.876 52.9367 58.876H47.4575V69.876H23.4575V52.2117C22.6266 51.6235 21.83 50.9803 21.0733 50.2841L20.331 49.6012C15.8625 45.4902 13.3198 39.6959 13.3198 33.624C13.3198 27.5522 15.8625 21.7578 20.331 17.6469L21.0733 16.964Z" stroke="currentColor" stroke-linecap="round" stroke-linejoin="round" />
  <path d="M55.3198 33.124L53.2501 32.3479C52.6603 32.1267 52.7087 31.2768 53.3198 31.124L55.3198 30.624" stroke="currentColor" stroke-linecap="round" stroke-linejoin="round" />
</svg>