<svg viewBox="0 0 80 80" fill="none">
  <path d="M39.943 25.1418L44.1877 20.8971C49.654 15.4308 58.5166 15.4308 63.9829 20.8971C69.4492 26.3634 69.4492 35.226 63.9829 40.6923L61.7874 42.8878C61.7755 42.9 61.7635 42.9122 61.7514 42.9243L42.3815 62.2942C41.0318 63.644 38.8434 63.644 37.4936 62.2942C36.1439 60.9445 36.1439 58.7561 37.4936 57.4063L46.6734 48.2266L46.5922 48.1454L37.4124 57.3251C36.0627 58.6749 33.8743 58.6749 32.5246 57.3251C31.1748 55.9754 31.1748 53.787 32.5246 52.4372L41.7043 43.2575L41.6231 43.1763L32.4433 52.356C31.0936 53.7058 28.9052 53.7058 27.5555 52.356C26.2057 51.0063 26.2057 48.8179 27.5555 47.4682L36.7352 38.2884L36.6537 38.2068L27.4739 47.3866C26.1242 48.7364 23.9358 48.7364 22.586 47.3866C21.2965 46.0971 21.239 44.0422 22.4134 42.6843L33.6473 31.4504" stroke="currentColor" stroke-linecap="round" stroke-linejoin="round" />
  <path d="M15.8999 40.7004C10.4324 35.233 10.4324 26.3684 15.8999 20.9009C21.3674 15.4334 30.232 15.4334 35.6995 20.9009L37.7224 22.9239C37.7479 22.9479 37.7731 22.9723 37.798 22.9973L45.9859 31.1851C47.3357 32.5349 47.3357 34.7232 45.9859 36.073C44.6362 37.4227 42.4478 37.4227 41.098 36.073L36.4755 31.4504C35.6944 30.6694 34.4281 30.6694 33.647 31.4504L21.5627 43.5348C20.7816 44.3158 19.5153 44.3158 18.7343 43.5348L15.8999 40.7004Z" stroke="currentColor" stroke-linecap="round" stroke-linejoin="round" />
</svg>