<svg viewBox="0 0 80 80" fill="none">
  <path d="M17.2261 16.6827C18.6366 16.0985 20.2214 16.0985 21.6319 16.6827C23.0424 17.267 24.1631 18.3876 24.7473 19.7981C25.3316 21.2086 25.3316 22.7934 24.7473 24.2039C24.1631 25.6144 23.0424 26.7351 21.6319 27.3193C20.2214 27.9036 18.6366 27.9036 17.2261 27.3193C15.8156 26.7351 14.695 25.6144 14.1107 24.2039C13.5265 22.7934 13.5265 21.2086 14.1107 19.7981C14.695 18.3876 15.8156 17.267 17.2261 16.6827Z" stroke="currentColor" stroke-linecap="round" stroke-linejoin="round" />
  <path d="M19.445 12.6613L19.429 8.50098L19.4129 12.6616L19.4293 12.6548L19.445 12.6613Z" stroke="currentColor" stroke-linecap="round" stroke-linejoin="round" />
  <path d="M26.0217 15.3855L26.038 15.3922L26.0446 15.4081L28.9749 12.455L26.0217 15.3855Z" stroke="currentColor" stroke-linecap="round" stroke-linejoin="round" />
  <path d="M28.7688 21.9849L28.7754 22.001L28.7688 22.017L32.929 22.001L28.7688 21.9849Z" stroke="currentColor" stroke-linecap="round" stroke-linejoin="round" />
  <path d="M26.0446 28.5939L26.038 28.6097L26.0217 28.6165L28.9749 31.5469L26.0446 28.5939Z" stroke="currentColor" stroke-linecap="round" stroke-linejoin="round" />
  <path d="M19.445 31.3406L19.4293 31.3471L19.4129 31.3403L19.429 35.501L19.445 31.3406Z" stroke="currentColor" stroke-linecap="round" stroke-linejoin="round" />
  <path d="M12.8364 28.6163L12.8205 28.6097L12.8138 28.5934L9.88301 31.5469L12.8364 28.6163Z" stroke="currentColor" stroke-linecap="round" stroke-linejoin="round" />
  <path d="M10.0898 22.017L10.0831 22.001L10.0898 21.9849L5.92896 22.001L10.0898 22.017Z" stroke="currentColor" stroke-linecap="round" stroke-linejoin="round" />
  <path d="M12.8138 15.4085L12.8205 15.3922L12.8364 15.3857L9.88301 12.455L12.8138 15.4085Z" stroke="currentColor" stroke-linecap="round" stroke-linejoin="round" />
  <path d="M51.0491 27.2793C51.536 26.5097 52.1456 25.8242 52.8551 25.2516C53.8251 24.4689 54.9569 23.9174 56.1664 23.638C57.376 23.3587 58.6322 23.3587 59.8417 23.638C61.0512 23.9174 62.183 24.4689 63.153 25.2516C63.8621 25.8239 64.4715 26.509 64.9582 27.2781M46.4937 21.8707C47.2155 20.9087 48.0545 20.0379 48.9935 19.2801C50.6909 17.9104 52.6715 16.9452 54.7882 16.4563C56.9049 15.9675 59.1032 15.9675 61.2199 16.4563C63.3366 16.9452 65.3172 17.9104 67.0147 19.2801C67.9533 20.0376 68.7921 20.9081 69.5136 21.8696M41.962 16.4903C42.8981 15.3216 43.9591 14.2551 45.1286 13.3112C47.5536 11.3544 50.383 9.97559 53.4069 9.27721C56.4307 8.57882 59.5712 8.57882 62.595 9.27721C65.6188 9.97559 68.4483 11.3544 70.8732 13.3112C72.0437 14.2558 73.1054 15.3233 74.042 16.4931M60.1176 31.7143C60.1176 32.8978 59.1695 33.8571 58 33.8571C56.8305 33.8571 55.8824 32.8978 55.8824 31.7143C55.8824 30.5308 56.8305 29.5714 58 29.5714C59.1695 29.5714 60.1176 30.5308 60.1176 31.7143Z" stroke="currentColor" stroke-linecap="round" stroke-linejoin="round" />
  <path d="M12.6538 63.6471C12.6538 65.5422 10.7166 67.0784 8.32692 67.0784C5.93723 67.0784 4 65.5422 4 63.6471C4 61.752 5.93723 60.2157 8.32692 60.2157C10.7166 60.2157 12.6538 61.752 12.6538 63.6471ZM12.6538 63.6471L12.6538 46" stroke="currentColor" stroke-linecap="round" stroke-linejoin="round" />
  <path d="M29 67.5687C29 69.4638 27.0628 71.0001 24.6731 71.0001C22.2834 71.0001 20.3462 69.4638 20.3462 67.5687C20.3462 65.6736 22.2834 64.1373 24.6731 64.1373C27.0628 64.1373 29 65.6736 29 67.5687ZM29 67.5687L29 49.9216" stroke="currentColor" stroke-linecap="round" stroke-linejoin="round" />
  <path d="M12.6538 46L29 49.9216M12.6538 50.902L29 54.8235" stroke="currentColor" stroke-linecap="round" stroke-linejoin="round" />
  <path d="M52.584 68.9396L64.5007 48.2993M51.6384 64.1608C53.173 65.0468 53.6987 67.009 52.8128 68.5435L52.3544 69.3373C51.4685 70.8719 49.5063 71.3976 47.9718 70.5117C46.4372 69.6257 45.9115 67.6635 46.7974 66.129L47.2558 65.3352C48.1417 63.8006 50.1039 63.2749 51.6384 64.1608Z" stroke="currentColor" stroke-linecap="round" stroke-linejoin="round" />
  <path d="M61.75 68.9396L49.8334 48.2993M62.6956 64.1608C61.1611 65.0468 60.6353 67.009 61.5213 68.5435L61.9796 69.3373C62.8656 70.8719 64.8278 71.3976 66.3623 70.5117C67.8968 69.6257 68.4226 67.6635 67.5366 66.129L67.0783 65.3352C66.1923 63.8006 64.2302 63.2749 62.6956 64.1608Z" stroke="currentColor" stroke-linecap="round" stroke-linejoin="round" />
</svg>