<svg viewBox="0 0 80 80" fill="none">
  <path d="M50.5387 44.0005H29.4609C27.5089 47.0392 26.807 50.7239 27.517 54.2792L27.9335 56.3648C28.6441 59.9226 30.8885 62.9854 34.0669 64.7347C37.7609 66.7678 42.2386 66.7678 45.9326 64.7347C49.111 62.9854 51.3555 59.9226 52.066 56.3648L52.4825 54.2792C53.1926 50.7239 52.4906 47.0392 50.5387 44.0005Z" stroke="currentColor" stroke-linecap="round" stroke-linejoin="round" />
  <path d="M37.9993 50.9998C39.1039 49.8952 40.8948 49.8952 41.9993 50.9998C43.1039 52.1044 43.1039 53.8952 41.9993 54.9998C40.8948 56.1044 39.1039 56.1044 37.9993 54.9998C36.8948 53.8952 36.8948 52.1044 37.9993 50.9998Z" stroke="currentColor" stroke-linecap="round" stroke-linejoin="round" />
  <path d="M38.1475 22.0117L35.0528 28.717C34.4 30.1312 32.7736 30.8107 31.3088 30.2811L29.5672 29.6514C27.2006 28.7957 24.5951 29.1674 22.5796 30.5818C23.2273 31.272 23.5458 32.1587 23.5353 33.0421C24.6511 33.1864 25.6952 33.6955 26.4995 34.4996C27.4602 35.4602 27.9999 36.763 27.9999 38.1216V38.3432C27.9999 38.5585 28.012 38.771 28.0354 38.9801C28.0366 38.9906 28.0283 38.9998 28.0177 38.9998C28.008 38.9998 28 39.0078 28 39.0175V43.9977L28.001 43.9999H51.9991L52 43.9995V39.0176C52 39.0078 51.9921 38.9998 51.9823 38.9998C51.9716 38.9998 51.9634 38.9906 51.9646 38.98C51.988 38.771 52 38.5585 52 38.3432V38.1216C52 36.763 52.5397 35.4602 53.5004 34.4996C54.3047 33.6955 55.3489 33.1864 56.4647 33.0421C56.4542 32.1587 56.7727 31.272 57.4204 30.5818C55.4049 29.1674 52.7994 28.7957 50.4328 29.6514L48.6897 30.2816C47.2249 30.8112 45.5985 30.1318 44.9458 28.7175L41.8511 22.0126C40.7191 22.7094 39.2793 22.7091 38.1475 22.0117Z" stroke="currentColor" stroke-linecap="round" stroke-linejoin="round" />
  <path d="M17.4999 30.4999C18.8806 29.1192 21.1192 29.1192 22.4999 30.4999C23.8806 31.8806 23.8806 34.1192 22.4999 35.4999C21.1192 36.8806 18.8806 36.8806 17.4999 35.4999C16.1192 34.1192 16.1192 31.8806 17.4999 30.4999Z" stroke="currentColor" stroke-linecap="round" stroke-linejoin="round" />
  <path d="M37.4999 16.4999C38.8806 15.1192 41.1192 15.1192 42.4999 16.4999C43.8806 17.8806 43.8806 20.1192 42.4999 21.4999C41.1192 22.8806 38.8806 22.8806 37.4999 21.4999C36.1192 20.1192 36.1192 17.8806 37.4999 16.4999Z" stroke="currentColor" stroke-linecap="round" stroke-linejoin="round" />
  <path d="M57.4999 30.4999C58.8806 29.1192 61.1192 29.1192 62.4999 30.4999C63.8806 31.8806 63.8806 34.1192 62.4999 35.4999C61.1192 36.8806 58.8806 36.8806 57.4999 35.4999C56.1192 34.1192 56.1192 31.8806 57.4999 30.4999Z" stroke="currentColor" stroke-linecap="round" stroke-linejoin="round" />
</svg>