<svg viewBox="0 0 80 80" fill="none">
  <path d="M29.7831 44.5255L29.7589 44.5602C27.582 47.6798 26.7725 51.5527 27.5175 55.2832L27.934 57.3688C28.6445 60.9265 30.889 63.9894 34.0674 65.7387C37.7614 67.7718 42.2391 67.7718 45.9331 65.7387C49.1115 63.9894 51.356 60.9265 52.0665 57.3688L52.483 55.2832C53.228 51.5528 52.4185 47.6799 50.2416 44.5602L50.2174 44.5255C50.1091 44.5199 49.9994 44.5037 49.8893 44.4762C43.3966 42.853 36.604 42.853 30.1112 44.4762C30.0011 44.5037 29.8914 44.5199 29.7831 44.5255Z" stroke="currentColor" stroke-linecap="round" stroke-linejoin="round" />
  <path d="M28 40.428C28 39.5909 28.5697 38.8613 29.3817 38.6582C36.3533 36.9154 43.6467 36.9154 50.6183 38.6582C51.4303 38.8613 52 39.5909 52 40.428V42.8278C52 43.933 50.9613 44.744 49.8891 44.4759C43.3963 42.8527 36.6037 42.8527 30.1109 44.4759C29.0387 44.744 28 43.933 28 42.8278V40.428Z" stroke="currentColor" stroke-linecap="round" stroke-linejoin="round" />
  <path d="M29.3817 38.6585C29.3657 38.6625 29.3498 38.6667 29.3339 38.6711L25.0735 34.9432C23.1203 33.2342 22 30.7653 22 28.17V26.9662C22 24.5893 22.9442 22.3097 24.625 20.6289C26.3058 18.9481 28.5854 18.0039 30.9623 18.0039H31.0377C33.4146 18.0039 35.6942 18.9481 37.375 20.6289C39.0558 22.3097 40 24.5893 40 26.9662M40 37.3513V26.9662M40 26.9662C40 24.5893 40.9542 22.3097 42.635 20.6289C44.3158 18.9481 46.5954 18.0039 48.9723 18.0039H49.0477C51.4246 18.0039 53.7042 18.9481 55.385 20.6289C57.0658 22.3097 58.01 24.5893 58.01 26.9662V28.17C58.01 30.7653 56.8897 33.2342 54.9365 34.9432L50.6736 38.6732C50.6553 38.668 50.6368 38.6631 50.6183 38.6585" stroke="currentColor" stroke-linecap="round" stroke-linejoin="round" />
  <path d="M44.5002 14.5041C42.0149 12.0188 37.9855 12.0188 35.5002 14.5041C34.412 15.5923 33.8002 16.9767 33.665 18.3978C35.053 18.8234 36.3299 19.5838 37.3752 20.6291C38.6739 21.9278 39.5329 23.584 39.8563 25.3664C39.9556 25.3687 40.0549 25.3686 40.1542 25.3662C40.4776 23.5839 41.3366 21.9277 42.6352 20.6291C43.6781 19.5862 44.9515 18.8269 46.3357 18.4008C46.2011 16.9786 45.5892 15.5931 44.5002 14.5041Z" stroke="currentColor" stroke-linecap="round" stroke-linejoin="round" />
  <path d="M28.979 65.241L30.6304 63.5434C32.3661 61.759 34.5763 60.5087 36.9998 59.94C38.9593 59.4803 40.9987 59.4803 42.9582 59.94C45.3817 60.5087 47.5919 61.759 49.3276 63.5434L50.979 65.241" stroke="currentColor" stroke-linecap="round" stroke-linejoin="round" />
</svg>