<svg viewBox="0 0 80 80" fill="none">
  <path d="M20 16C20 13.7909 21.7909 12 24 12H56C58.2091 12 60 13.7909 60 16V64C60 66.2091 58.2091 68 56 68H24C21.7909 68 20 66.2091 20 64V16Z" stroke="currentColor" stroke-linecap="round" stroke-linejoin="round" />
  <path d="M39.75 17L40.25 17" stroke="currentColor" stroke-linecap="round" stroke-linejoin="round" />
  <path d="M39.75 63L40.25 63" stroke="currentColor" stroke-linecap="round" stroke-linejoin="round" />
  <path d="M31.5498 29C31.5498 26.7909 33.3407 25 35.5498 25H44.4498C46.6589 25 48.4498 26.7909 48.4498 29V51C48.4498 53.2091 46.6589 55 44.4498 55H35.5498C33.3407 55 31.5498 53.2091 31.5498 51V29Z" stroke="currentColor" stroke-linecap="round" stroke-linejoin="round" />
  <path d="M48.4498 40H31.5498" stroke="currentColor" stroke-linecap="round" stroke-linejoin="round" />
</svg>