<svg viewBox="0 0 80 80" fill="none">
  <path d="M47.5225 68.5H31.5225" stroke="currentColor" stroke-linecap="round" stroke-linejoin="round" />
  <path d="M46.5936 13.4289C42.0661 11.5536 36.979 11.5536 32.4514 13.4289C27.9239 15.3043 24.3268 18.9014 22.4514 23.4289C20.5761 27.9565 20.5761 33.0435 22.4514 37.5711C23.4766 40.0461 25.0163 42.243 26.9412 44.0327C28.4357 45.4221 29.5234 47.2717 29.5234 49.3123V56.5009C29.5234 59.8146 32.2097 62.5009 35.5234 62.5009H43.5234C46.8371 62.5009 49.5234 59.8146 49.5234 56.5009V49.3107C49.5234 47.2703 50.6109 45.4209 52.105 44.0315C54.0294 42.2421 55.5686 40.0455 56.5936 37.5711C58.4689 33.0435 58.4689 27.9565 56.5936 23.4289C54.7182 18.9014 51.1211 15.3043 46.5936 13.4289Z" stroke="currentColor" stroke-linecap="round" stroke-linejoin="round" />
</svg>