<svg viewBox="0 0 80 80" fill="none">
  <path d="M16 13.5C16 12.6716 16.6716 12 17.5 12H63.1716C63.702 12 64.2107 12.2107 64.5858 12.5858L70.5858 18.5858C71.3668 19.3668 71.3668 20.6332 70.5858 21.4142L64.5858 27.4142C64.2107 27.7893 63.702 28 63.1716 28H17.5C16.6716 28 16 27.3284 16 26.5V13.5Z" stroke="currentColor" stroke-linecap="round" stroke-linejoin="round" />
  <path d="M63.9999 35.5615C63.9999 34.7331 63.3284 34.0615 62.4999 34.0615H16.8284C16.2979 34.0615 15.7892 34.2722 15.4142 34.6473L9.41415 40.6473C8.63311 41.4284 8.63311 42.6947 9.41416 43.4757L15.4142 49.4757C15.7892 49.8508 16.2979 50.0615 16.8284 50.0615H62.4999C63.3284 50.0615 63.9999 49.39 63.9999 48.5615V35.5615Z" stroke="currentColor" stroke-linecap="round" stroke-linejoin="round" />
  <path d="M40 8V12M40 28V34.0615M40 50.0615V72" stroke="currentColor" stroke-linecap="round" stroke-linejoin="round" />
</svg>