<svg viewBox="0 0 80 80" fill="none">
  <path fill-rule="evenodd" clip-rule="evenodd" d="M69.5127 45.3679C68.6951 48.5935 65.2204 50 61.8927 50H18.9846C15.6569 50 12.1822 48.5935 11.3646 45.3679C10.1707 40.6573 11.9088 35.3197 16.579 32.4349L20.3788 30.0878C21.5986 29.3344 22.6389 28.333 23.5986 27.2678C24.1256 26.6827 24.6828 26.1255 25.2679 25.5985C26.3331 24.6388 27.3344 23.5985 28.0879 22.3787L30.4349 18.579C35.0298 11.1403 45.8475 11.1403 50.4424 18.579L52.7894 22.3786C53.5429 23.5984 54.5442 24.6387 55.6094 25.5984C56.1945 26.1255 56.7518 26.6828 57.2789 27.2678C58.2385 28.3331 59.2788 29.3344 60.4987 30.0879L64.2983 32.4349C68.9685 35.3197 70.7066 40.6573 69.5127 45.3679ZM45.799 42.9452C47.4892 43.6454 49.3884 43.6454 51.0787 42.9452C52.769 42.2451 54.1119 40.9022 54.812 39.2119C55.5122 37.5216 55.5122 35.6224 54.812 33.9322C54.1119 32.2419 52.769 30.899 51.0787 30.1988C49.3884 29.4987 47.4892 29.4987 45.799 30.1988C44.1087 30.899 42.7658 32.2419 42.0656 33.9322C41.3655 35.6224 41.3655 37.5216 42.0656 39.2119C42.7658 40.9022 44.1087 42.2451 45.799 42.9452ZM31.2806 37.0138C30.3148 37.4139 29.2295 37.4139 28.2636 37.0138C27.2978 36.6138 26.5304 35.8464 26.1303 34.8805C25.7302 33.9146 25.7302 32.8294 26.1303 31.8635C26.5304 30.8977 27.2978 30.1303 28.2636 29.7302C29.2295 29.3301 30.3148 29.3301 31.2806 29.7302C32.2465 30.1303 33.0139 30.8977 33.414 31.8635C33.814 32.8294 33.814 33.9146 33.414 34.8805C33.0139 35.8464 32.2465 36.6138 31.2806 37.0138ZM40.2179 22.9265C40.7009 23.1265 41.2435 23.1265 41.7264 22.9265C42.2094 22.7265 42.593 22.3428 42.7931 21.8598C42.9931 21.3769 42.9931 20.8343 42.7931 20.3513C42.593 19.8684 42.2094 19.4847 41.7264 19.2847C41.2435 19.0846 40.7009 19.0846 40.2179 19.2847C39.735 19.4847 39.3513 19.8684 39.1513 20.3513C38.9512 20.8343 38.9512 21.3769 39.1513 21.8598C39.3513 22.3428 39.735 22.7265 40.2179 22.9265Z" stroke="currentColor" stroke-linecap="round" stroke-linejoin="round" />
  <path d="M45.799 42.9451C47.4892 43.6452 49.3884 43.6452 51.0787 42.9451C52.769 42.2449 54.1119 40.902 54.812 39.2118C55.5122 37.5215 55.5122 35.6223 54.812 33.932C54.1119 32.2417 52.769 30.8988 51.0787 30.1987C49.3884 29.4986 47.4892 29.4985 45.799 30.1987C44.1087 30.8988 42.7658 32.2417 42.0656 33.932C41.3655 35.6223 41.3655 37.5215 42.0656 39.2118C42.7658 40.902 44.1087 42.2449 45.799 42.9451Z" stroke="currentColor" stroke-linecap="round" stroke-linejoin="round" />
  <path d="M28.264 37.0136C29.2298 37.4137 30.3151 37.4137 31.2809 37.0136C32.2468 36.6136 33.0142 35.8462 33.4143 34.8803C33.8144 33.9144 33.8144 32.8292 33.4143 31.8633C33.0142 30.8974 32.2468 30.1301 31.2809 29.73C30.3151 29.3299 29.2298 29.3299 28.264 29.73C27.2981 30.1301 26.5307 30.8975 26.1306 31.8633C25.7305 32.8292 25.7305 33.9144 26.1306 34.8803C26.5307 35.8462 27.2981 36.6136 28.264 37.0136Z" stroke="currentColor" stroke-linecap="round" stroke-linejoin="round" />
  <path d="M40.2179 22.9261C40.7009 23.1262 41.2435 23.1262 41.7264 22.9261C42.2093 22.7261 42.593 22.3424 42.7931 21.8595C42.9931 21.3765 42.9931 20.8339 42.7931 20.351C42.593 19.868 42.2093 19.4843 41.7264 19.2843C41.2435 19.0843 40.7009 19.0843 40.2179 19.2843C39.735 19.4843 39.3513 19.868 39.1512 20.351C38.9512 20.8339 38.9512 21.3765 39.1512 21.8595C39.3513 22.3424 39.735 22.7261 40.2179 22.9261Z" stroke="currentColor" stroke-linecap="round" stroke-linejoin="round" />
  <path d="M36.9109 50C36.3587 50 35.9109 50.4477 35.9109 51V60.8342C35.9109 61.8966 35.6289 62.9399 35.0936 63.8575L34.1377 65.4961C33.7488 66.1628 34.2297 67 35.0015 67H45.5194C46.2912 67 46.7721 66.1628 46.3832 65.4961L44.7283 62.6591C44.193 61.7415 43.9109 60.6982 43.9109 59.6358V51C43.9109 50.4477 43.4632 50 42.9109 50" stroke="currentColor" stroke-linecap="round" stroke-linejoin="round" />
</svg>