<svg viewBox="0 0 80 80" fill="none">
  <path d="M53.5692 15.7128C44.9948 10.7624 34.4308 10.7624 25.8564 15.7128C17.282 20.6632 12 29.812 12 39.7128C12 49.6136 17.282 58.7624 25.8564 63.7128C32.7649 67.7014 40.965 68.4764 48.3753 66.0377L43.6524 56.5918C43.0346 55.3561 42.7129 53.9935 42.7129 52.612C42.7129 47.6971 46.6972 43.7128 51.6121 43.7128H67.136C67.3274 42.3993 67.4256 41.063 67.4256 39.7128C67.4256 29.812 62.1436 20.6632 53.5692 15.7128Z" stroke="currentColor" stroke-linecap="round" stroke-linejoin="round" />
  <path d="M23.4138 45.4628C24.2176 44.9987 25.208 44.9987 26.0119 45.4628C26.8157 45.9269 27.3109 46.7846 27.3109 47.7128C27.3109 48.641 26.8157 49.4987 26.0119 49.9628C25.208 50.4269 24.2176 50.4269 23.4138 49.9628C22.6099 49.4987 22.1147 48.641 22.1147 47.7128C22.1147 46.7846 22.6099 45.9269 23.4138 45.4628Z" stroke="currentColor" stroke-linecap="round" stroke-linejoin="round" />
  <path d="M24.4138 28.4628C25.2176 27.9987 26.208 27.9987 27.0119 28.4628C27.8157 28.9269 28.3109 29.7846 28.3109 30.7128C28.3109 31.641 27.8157 32.4987 27.0119 32.9628C26.208 33.4269 25.2176 33.4269 24.4138 32.9628C23.6099 32.4987 23.1147 31.641 23.1147 30.7128C23.1147 29.7846 23.6099 28.9269 24.4138 28.4628Z" stroke="currentColor" stroke-linecap="round" stroke-linejoin="round" />
  <path d="M38.7009 20.7499C39.5047 20.2858 40.4951 20.2858 41.299 20.7499C42.1028 21.214 42.598 22.0717 42.598 22.9999C42.598 23.9281 42.1028 24.7858 41.299 25.2499C40.4951 25.714 39.5047 25.714 38.7009 25.2499C37.897 24.7858 37.4019 23.9281 37.4019 22.9999C37.4019 22.0717 37.897 21.214 38.7009 20.7499Z" stroke="currentColor" stroke-linecap="round" stroke-linejoin="round" />
  <path d="M52.7009 28.7499C53.5047 28.2858 54.4951 28.2858 55.299 28.7499C56.1028 29.214 56.598 30.0717 56.598 30.9999C56.598 31.9281 56.1028 32.7858 55.299 33.2499C54.4951 33.714 53.5047 33.714 52.7009 33.2499C51.897 32.7858 51.4019 31.9281 51.4019 30.9999C51.4019 30.0717 51.897 29.214 52.7009 28.7499Z" stroke="currentColor" stroke-linecap="round" stroke-linejoin="round" />
</svg>