<svg viewBox="0 0 80 80" fill="none">
  <path d="M31.0009 15.2752C36.8137 13.1596 43.1861 13.1596 48.999 15.2752C54.8118 17.3909 59.6933 21.487 62.7863 26.8442C65.8792 32.2013 66.9858 38.4769 65.9116 44.5688C64.8374 50.6607 61.6512 56.1794 56.9126 60.1556C52.1739 64.1318 46.1858 66.3113 39.9999 66.3113C33.814 66.3113 27.8259 64.1318 23.0873 60.1556C18.3486 56.1794 15.1624 50.6607 14.0883 44.5688C13.0141 38.4769 14.1206 32.2013 17.2136 26.8442C20.3065 21.487 25.1881 17.3909 31.0009 15.2752Z" stroke="currentColor" stroke-linecap="round" stroke-linejoin="round" />
  <path d="M40.0459 13.6895V40.1102V66.3122" stroke="currentColor" stroke-linecap="round" stroke-linejoin="round" />
  <path d="M17.2954 53.2181L40.0459 40.1094L62.796 53.2179" stroke="currentColor" stroke-linecap="round" stroke-linejoin="round" />
</svg>