<svg viewBox="0 0 80 80" fill="none">
  <path d="M31.001 15.2752C36.8138 13.1596 43.1862 13.1596 48.9991 15.2752C54.8119 17.3909 59.6934 21.487 62.7864 26.8442C65.8793 32.2013 66.9859 38.4769 65.9117 44.5688C64.8375 50.6607 61.6513 56.1794 56.9127 60.1556C52.174 64.1318 46.1859 66.3113 40 66.3113C33.8142 66.3113 27.8261 64.1318 23.0874 60.1556C18.3487 56.1794 15.1625 50.6607 14.0884 44.5688C13.0142 38.4769 14.1208 32.2013 17.2137 26.8442C20.3066 21.487 25.1882 17.3909 31.001 15.2752Z" stroke="currentColor" stroke-linecap="round" stroke-linejoin="round" />
  <path d="M40.0459 13.6895V40.1102V66.3122" stroke="currentColor" stroke-linecap="round" stroke-linejoin="round" />
  <path d="M17.2954 53.2181L40.0459 40.1094L62.796 53.2179" stroke="currentColor" stroke-linecap="round" stroke-linejoin="round" />
</svg>