<svg viewBox="0 0 80 80" fill="none">
  <path d="M58.7115 38.4004L66.2735 51.4982C67.3455 53.3548 67.3455 55.6423 66.2735 57.4989C65.2016 59.3555 63.2206 60.4992 61.0768 60.4992L48.2944 60.4992" stroke="currentColor" stroke-linecap="round" stroke-linejoin="round" />
  <path d="M34.6355 60.4967L19.5114 60.4967C17.3676 60.4967 15.3866 59.3529 14.3147 57.4963C13.2428 55.6397 13.2428 53.3522 14.3147 51.4956L20.7059 40.4258" stroke="currentColor" stroke-linecap="round" stroke-linejoin="round" />
  <path d="M27.5356 28.5981L35.0977 15.5003C36.1696 13.6437 38.1506 12.5 40.2944 12.5C42.4382 12.5 44.4192 13.6437 45.4911 15.5003L51.8823 26.5702" stroke="currentColor" stroke-linecap="round" stroke-linejoin="round" />
  <path d="M48.3003 55.3292V65.6723C48.3003 66.7161 47.0384 67.2388 46.3003 66.5008L42.4216 62.6221C41.2501 61.4505 41.2501 59.551 42.4216 58.3794L46.3003 54.5008C47.0384 53.7627 48.3003 54.2854 48.3003 55.3292Z" stroke="currentColor" stroke-linecap="round" stroke-linejoin="round" />
  <path d="M25.1808 43.0153L16.2233 37.8437C15.3194 37.3219 15.4977 35.9676 16.5059 35.6975L21.8043 34.2778C23.4047 33.8489 25.0497 34.7987 25.4785 36.3991L26.8982 41.6975C27.1683 42.7057 26.0847 43.5372 25.1808 43.0153Z" stroke="currentColor" stroke-linecap="round" stroke-linejoin="round" />
  <path d="M47.4016 29.1506L56.359 23.979C57.2629 23.4571 58.3466 24.2886 58.0764 25.2968L56.6567 30.5952C56.2279 32.1956 54.5829 33.1454 52.9825 32.7165L47.6841 31.2968C46.6759 31.0267 46.4976 29.6725 47.4016 29.1506Z" stroke="currentColor" stroke-linecap="round" stroke-linejoin="round" />
</svg>