<svg viewBox="0 0 80 80" fill="none">
  <path d="M29.8624 61.4268C27.9294 64.7749 23.6483 65.922 20.3002 63.989C16.9522 62.056 15.8051 57.7749 17.7381 54.4268L18.7381 52.6948C20.6711 49.3467 24.9522 48.1996 28.3002 50.1326C31.6483 52.0656 32.7954 56.3467 30.8624 59.6948L29.8624 61.4268Z" stroke="currentColor" stroke-linecap="round" stroke-linejoin="round" />
  <path d="M30.3633 60.5592L56.3633 15.5259" stroke="currentColor" stroke-linecap="round" stroke-linejoin="round" />
  <path d="M50.8648 61.4268C52.7978 64.7749 57.0789 65.922 60.4269 63.989C63.775 62.056 64.9221 57.7749 62.9891 54.4268L61.9891 52.6948C60.0561 49.3467 55.775 48.1996 52.4269 50.1326C49.0789 52.0656 47.9318 56.3467 49.8648 59.6948L50.8648 61.4268Z" stroke="currentColor" stroke-linecap="round" stroke-linejoin="round" />
  <path d="M50.3638 60.5592L24.3638 15.5259" stroke="currentColor" stroke-linecap="round" stroke-linejoin="round" />
</svg>