<svg viewBox="0 0 80 80" fill="none">
  <path d="M50.7249 55.0169L51.0785 54.6634L50.7249 55.0169ZM63.4534 67.7487L63.807 67.3952L63.4534 67.7487ZM50.7252 50.7768L50.3717 50.4232L50.7252 50.7768ZM54.9659 50.7771L54.6123 51.1306L54.9659 50.7771ZM67.6944 63.5089L68.048 63.1554L67.6944 63.5089ZM67.6941 67.749L67.3405 67.3955L67.6941 67.749ZM47.7986 47.1448C47.6034 46.9495 47.2868 46.9495 47.0915 47.1448C46.8963 47.34 46.8963 47.6566 47.0915 47.8519L47.7986 47.1448ZM50.3708 51.1312C50.5661 51.3264 50.8826 51.3264 51.0779 51.1312C51.2732 50.9359 51.2732 50.6193 51.0779 50.4241L50.3708 51.1312ZM50.3711 51.1309C50.5663 51.3262 50.8829 51.3262 51.0782 51.1309C51.2735 50.9356 51.2735 50.619 51.0782 50.4238L50.3711 51.1309ZM47.7989 47.1445C47.6036 46.9492 47.2871 46.9492 47.0918 47.1445C46.8965 47.3398 46.8965 47.6563 47.0918 47.8516L47.7989 47.1445ZM50.3713 55.3704L63.0998 68.1023L63.807 67.3952L51.0785 54.6634L50.3713 55.3704ZM50.3717 50.4232C49.0056 51.7893 49.0054 54.0041 50.3713 55.3704L51.0785 54.6634C50.1031 53.6876 50.1032 52.1059 51.0788 51.1303L50.3717 50.4232ZM55.3195 50.4235C53.9533 49.057 51.738 49.0569 50.3717 50.4232L51.0788 51.1303C52.0545 50.1545 53.6366 50.1546 54.6123 51.1306L55.3195 50.4235ZM68.048 63.1554L55.3195 50.4235L54.6123 51.1306L67.3408 63.8624L68.048 63.1554ZM68.0476 68.1026C69.4137 66.7365 69.4139 64.5217 68.048 63.1554L67.3408 63.8624C68.3162 64.8382 68.3161 66.4199 67.3405 67.3955L68.0476 68.1026ZM63.0998 68.1023C64.466 69.4688 66.6813 69.4689 68.0476 68.1026L67.3405 67.3955C66.3647 68.3713 64.7827 68.3711 63.807 67.3952L63.0998 68.1023ZM47.0915 47.8519L50.3708 51.1312L51.0779 50.4241L47.7986 47.1448L47.0915 47.8519ZM51.0782 50.4238L47.7989 47.1445L47.0918 47.8516L50.3711 51.1309L51.0782 50.4238Z" fill="currentColor" />
  <path d="M15.5965 29.0688C17.3583 22.4939 22.4939 17.3584 29.0687 15.5966V15.5966C35.6436 13.8349 42.6589 15.7147 47.4721 20.5278V20.5278C52.2852 25.341 54.165 32.3563 52.4033 38.9312V38.9312C50.6415 45.5061 45.506 50.6416 38.9311 52.4034V52.4034C32.3562 54.1651 25.3409 52.2853 20.5277 47.4722V47.4722C15.7146 42.659 13.8348 35.6437 15.5965 29.0688V29.0688Z" stroke="currentColor" stroke-linecap="round" stroke-linejoin="round" />
  <path d="M22.2417 33.9974C22.2417 34.2735 22.4655 34.4974 22.7417 34.4974C23.0178 34.4974 23.2417 34.2736 23.2417 33.9974L22.2417 33.9974ZM28.3698 24.2498L28.6198 24.6828L28.3698 24.2498ZM33.9966 23.2417C34.2728 23.2417 34.4966 23.0178 34.4966 22.7416C34.4965 22.4655 34.2726 22.2417 33.9965 22.2417L33.9966 23.2417ZM23.2417 33.9974C23.2419 30.1548 25.292 26.6041 28.6198 24.6828L28.1198 23.8168C24.4826 25.9167 22.2419 29.7975 22.2417 33.9974L23.2417 33.9974ZM33.9965 22.2417C31.9674 22.242 29.9381 22.767 28.1198 23.8168L28.6198 24.6828C30.2835 23.7223 32.1399 23.2419 33.9966 23.2417L33.9965 22.2417Z" fill="currentColor" />
</svg>