<svg viewBox="0 0 80 80" fill="none">
  <path d="M39.9998 13C33.8097 16.1734 26.9135 17.8608 19.864 17.8608C18.9123 17.8608 17.9634 17.8301 17.0186 17.7691C15.799 23.3474 15.6641 29.1518 16.6706 34.8601C18.4724 45.0788 23.8171 54.336 31.7658 61.0058C34.3144 63.1443 37.0785 64.973 39.9999 66.4707C42.9212 64.973 45.6853 63.1443 48.2339 61.0058C56.1827 54.336 61.5273 45.0788 63.3291 34.8601C64.3356 29.1518 64.2007 23.3474 62.9811 17.769C62.0363 17.8301 61.0873 17.8608 60.1355 17.8608C53.0861 17.8608 46.1898 16.1734 39.9998 13Z" stroke="currentColor" stroke-linecap="round" stroke-linejoin="round" />
</svg>