<svg viewBox="0 0 80 80" fill="none">
  <path d="M71 20.9998L64 48.9998H26L19 20.9998H71Z" stroke="currentColor" stroke-linecap="round" stroke-linejoin="round" />
  <path d="M28.9507 60.8029L17 13H9" stroke="currentColor" stroke-linecap="round" stroke-linejoin="round" />
  <path d="M26.402 61.4988C28.0097 60.5706 29.9905 60.5706 31.5982 61.4988C33.2059 62.427 34.1963 64.1424 34.1963 65.9988C34.1963 67.8552 33.2059 69.5706 31.5982 70.4988C29.9905 71.427 28.0097 71.427 26.402 70.4988C24.7943 69.5706 23.804 67.8552 23.804 65.9988C23.804 64.1424 24.7943 62.427 26.402 61.4988Z" stroke="currentColor" stroke-linecap="round" stroke-linejoin="round" />
  <path d="M30.4189 61H60.581" stroke="currentColor" stroke-linecap="round" stroke-linejoin="round" />
  <path d="M59.402 61.4988C61.0097 60.5706 62.9905 60.5706 64.5982 61.4988C66.2059 62.427 67.1963 64.1424 67.1963 65.9988C67.1963 67.8552 66.2059 69.5706 64.5982 70.4988C62.9905 71.427 61.0097 71.427 59.402 70.4988C57.7943 69.5706 56.804 67.8552 56.804 65.9988C56.804 64.1424 57.7943 62.427 59.402 61.4988Z" stroke="currentColor" stroke-linecap="round" stroke-linejoin="round" />
</svg>