<svg viewBox="0 0 80 80" fill="none">
  <path d="M19 14C19 11.7909 20.7909 10 23 10H57C59.2091 10 61 11.7909 61 14V66C61 68.2091 59.2091 70 57 70H23C20.7909 70 19 68.2091 19 66V14Z" stroke="currentColor" stroke-linecap="round" stroke-linejoin="round" />
  <path d="M33.0727 38C37.3599 35.5248 42.642 35.5248 46.9291 38C51.2163 40.4752 53.8573 45.0495 53.8573 50C53.8573 54.9504 51.2163 59.5248 46.9291 62C42.642 64.4752 37.3599 64.4752 33.0727 62C28.7855 59.5248 26.1445 54.9504 26.1445 50C26.1445 45.0495 28.7855 40.4752 33.0727 38Z" stroke="currentColor" stroke-linecap="round" stroke-linejoin="round" />
  <path d="M38.2689 47C39.3407 46.3812 40.6612 46.3812 41.733 47C42.8048 47.6188 43.4651 48.7624 43.4651 50C43.4651 51.2376 42.8048 52.3812 41.733 53C40.6612 53.6188 39.3407 53.6188 38.2689 53C37.1971 52.3812 36.5369 51.2376 36.5369 50C36.5369 48.7624 37.1971 47.6188 38.2689 47Z" stroke="currentColor" stroke-linecap="round" stroke-linejoin="round" />
  <path d="M36.5359 17C38.6795 15.7624 41.3205 15.7624 43.4641 17C45.6077 18.2376 46.9282 20.5248 46.9282 23C46.9282 25.4752 45.6077 27.7624 43.4641 29C41.3205 30.2376 38.6795 30.2376 36.5359 29C34.3923 27.7624 33.0718 25.4752 33.0718 23C33.0718 20.5248 34.3923 18.2376 36.5359 17Z" stroke="currentColor" stroke-linecap="round" stroke-linejoin="round" />
</svg>