<svg viewBox="0 0 80 80" fill="none">
  <path d="M49.7681 15.9691C43.4296 13.3436 36.3077 13.3436 29.9691 15.9691C23.6306 18.5946 18.5946 23.6306 15.9691 29.9691C13.3436 36.3077 13.3436 43.4296 15.9691 49.7681C18.5946 56.1067 23.6306 61.1426 29.9691 63.7681C36.3077 66.3936 43.4296 66.3936 49.7681 63.7681C50.2532 63.5672 50.0167 62.8448 49.4938 62.8918C45.7641 63.227 41.9738 62.6776 38.4427 61.2436L38.14 61.1207C32.5044 58.8321 28.0085 54.3988 25.6412 48.7958C23.23 43.0887 23.23 36.6489 25.6412 30.9418C28.0085 25.3388 32.5044 20.9055 38.14 18.6169L38.4427 18.494C41.9737 17.06 45.764 16.5106 49.4936 16.8458C50.0168 16.8928 50.2534 16.1701 49.7681 15.9691Z" stroke="currentColor" stroke-linecap="round" stroke-linejoin="round" />
  <path d="M51.9418 31.3109C52.2777 30.4745 53.4619 30.4745 53.7978 31.3109L55.7394 36.1459C55.8824 36.5021 56.2167 36.745 56.5997 36.771L61.798 37.1234C62.6973 37.1844 63.0632 38.3106 62.3715 38.8885L58.3732 42.2292C58.0786 42.4753 57.9509 42.8683 58.0446 43.2405L59.3157 48.2933C59.5356 49.1675 58.5776 49.8635 57.8142 49.3842L53.4015 46.6139C53.0764 46.4098 52.6632 46.4098 52.3381 46.6139L47.9254 49.3842C47.162 49.8635 46.204 49.1675 46.4239 48.2933L47.6951 43.2405C47.7887 42.8683 47.661 42.4753 47.3665 42.2292L43.3681 38.8885C42.6764 38.3106 43.0423 37.1844 43.9416 37.1234L49.1399 36.771C49.5229 36.745 49.8572 36.5021 50.0003 36.1459L51.9418 31.3109Z" stroke="currentColor" stroke-linecap="round" stroke-linejoin="round" />
</svg>