<svg viewBox="0 0 80 80" fill="none">
  <path d="M35.7575 29.7575C38.474 28.6323 41.5263 28.6323 44.2428 29.7575C46.9593 30.8827 49.1175 33.041 50.2428 35.7575C51.368 38.474 51.368 41.5263 50.2428 44.2428C49.1176 46.9593 46.9593 49.1175 44.2428 50.2428C41.5263 51.368 38.474 51.368 35.7575 50.2428C33.041 49.1176 30.8827 46.9593 29.7575 44.2428C28.6323 41.5263 28.6323 38.474 29.7575 35.7575C30.8827 33.041 33.041 30.8827 35.7575 29.7575Z" stroke="currentColor" stroke-linecap="round" stroke-linejoin="round" />
  <path d="M40 14L40.0005 22" stroke="currentColor" stroke-linecap="round" stroke-linejoin="round" />
  <path d="M52.7285 27.2721L58.3848 21.6152" stroke="currentColor" stroke-linecap="round" stroke-linejoin="round" />
  <path d="M58.0005 40H65.9999" stroke="currentColor" stroke-linecap="round" stroke-linejoin="round" />
  <path d="M52.7285 52.728L58.3848 58.3849" stroke="currentColor" stroke-linecap="round" stroke-linejoin="round" />
  <path d="M40 66L40.0005 58" stroke="currentColor" stroke-linecap="round" stroke-linejoin="round" />
  <path d="M21.6152 58.3849L27.2726 52.728" stroke="currentColor" stroke-linecap="round" stroke-linejoin="round" />
  <path d="M14 40H22.0005" stroke="currentColor" stroke-linecap="round" stroke-linejoin="round" />
  <path d="M21.6152 21.6152L27.2726 27.2721" stroke="currentColor" stroke-linecap="round" stroke-linejoin="round" />
</svg>