<svg viewBox="0 0 80 80" fill="none">
  <path d="M40 12L46.9648 23.1854L59.799 20.201L56.8146 33.0352L68 40L56.8146 46.9648L59.799 59.799L46.9648 56.8146L40 68L33.0352 56.8146L20.201 59.799L23.1854 46.9648L12 40L23.1854 33.0352L20.201 20.201L33.0352 23.1854L40 12Z" stroke="currentColor" stroke-linecap="round" stroke-linejoin="round" />
  <path d="M35.7572 29.7572C38.4738 28.632 41.526 28.632 44.2425 29.7572C46.959 30.8825 49.1173 33.0407 50.2425 35.7572C51.3677 38.4738 51.3677 41.526 50.2425 44.2425C49.1173 46.959 46.959 49.1173 44.2425 50.2425C41.526 51.3677 38.4738 51.3677 35.7572 50.2425C33.0407 49.1173 30.8825 46.959 29.7572 44.2425C28.632 41.526 28.632 38.4738 29.7572 35.7572C30.8825 33.0407 33.0407 30.8825 35.7572 29.7572Z" stroke="currentColor" stroke-linecap="round" stroke-linejoin="round" />
</svg>