<svg viewBox="0 0 80 80" fill="none">
  <path d="M31.5145 22.243C36.9475 19.9926 43.052 19.9926 48.4851 22.243C53.9181 24.4934 58.2346 28.81 60.485 34.243C62.7355 39.676 62.7355 45.7805 60.4851 51.2136C58.2346 56.6466 53.9181 60.9631 48.4851 63.2136C43.052 65.464 36.9475 65.464 31.5145 63.2136C26.0815 60.9631 21.7649 56.6466 19.5145 51.2136C17.2641 45.7805 17.2641 39.676 19.5145 34.243C21.7649 28.81 26.0815 24.4934 31.5145 22.243Z" stroke="currentColor" stroke-linecap="round" stroke-linejoin="round" />
  <path d="M31.5145 22.243C36.9475 19.9926 43.052 19.9926 48.4851 22.243C53.9181 24.4934 58.2346 28.81 60.485 34.243C62.7355 39.676 62.7355 45.7805 60.4851 51.2136C58.2346 56.6466 53.9181 60.9631 48.4851 63.2136C43.052 65.464 36.9475 65.464 31.5145 63.2136C26.0815 60.9631 21.7649 56.6466 19.5145 51.2136C17.2641 45.7805 17.2641 39.676 19.5145 34.243C21.7649 28.81 26.0815 24.4934 31.5145 22.243Z" stroke="currentColor" stroke-linecap="round" stroke-linejoin="round" />
  <path d="M39.9301 25.0986L39.9251 25.0987L39.9246 27.0987L39.9301 25.0986Z" stroke="currentColor" stroke-linecap="round" stroke-linejoin="round" />
  <path d="M48.6455 27.3639L48.6412 27.3615L47.6406 29.0934L48.6455 27.3639Z" stroke="currentColor" stroke-linecap="round" stroke-linejoin="round" />
  <path d="M55.1326 33.6829L55.1301 33.6787L53.3975 34.6784L55.1326 33.6829Z" stroke="currentColor" stroke-linecap="round" stroke-linejoin="round" />
  <path d="M57.6279 42.4611L57.6279 42.4563L55.6276 42.4558L57.6279 42.4611Z" stroke="currentColor" stroke-linecap="round" stroke-linejoin="round" />
  <path d="M55.3645 51.3739L55.3668 51.3698L53.6349 50.3693L55.3645 51.3739Z" stroke="currentColor" stroke-linecap="round" stroke-linejoin="round" />
  <path d="M48.8754 57.9613L48.8794 57.959L47.8799 56.2266L48.8754 57.9613Z" stroke="currentColor" stroke-linecap="round" stroke-linejoin="round" />
  <path d="M39.9253 60.3581L39.93 60.3582L39.9305 58.3581L39.9253 60.3581Z" stroke="currentColor" stroke-linecap="round" stroke-linejoin="round" />
  <path d="M31.0125 57.8953L31.0166 57.8978L32.0122 56.1629L31.0125 57.8953Z" stroke="currentColor" stroke-linecap="round" stroke-linejoin="round" />
  <path d="M24.5978 51.3066L24.6002 51.3108L26.3327 50.3111L24.5978 51.3066Z" stroke="currentColor" stroke-linecap="round" stroke-linejoin="round" />
  <path d="M22.3723 42.4563L22.3722 42.4611L24.3724 42.4617L22.3723 42.4563Z" stroke="currentColor" stroke-linecap="round" stroke-linejoin="round" />
  <path d="M24.8305 33.7453L24.8331 33.741L26.5655 34.7406L24.8305 33.7453Z" stroke="currentColor" stroke-linecap="round" stroke-linejoin="round" />
  <path d="M32.245 29.1581L31.2455 27.4258L31.2498 27.4233L32.245 29.1581Z" stroke="currentColor" stroke-linecap="round" stroke-linejoin="round" />
  <path d="M37 42.7285C37 41.0717 38.3431 39.7285 40 39.7285C41.6569 39.7285 43 41.0717 43 42.7285C43 44.3854 41.6569 45.7285 40 45.7285C38.3431 45.7285 37 44.3854 37 42.7285Z" stroke="currentColor" stroke-linecap="round" stroke-linejoin="round" />
  <path d="M42.6031 44.2236L53.8833 50.686" stroke="currentColor" stroke-linecap="round" stroke-linejoin="round" />
  <path d="M41.7301 40.2811L46.5312 33.4976" stroke="currentColor" stroke-linecap="round" stroke-linejoin="round" />
  <path d="M24.2993 27.0717L20.201 22.9734M17.3726 25.8019L23.0294 20.145" stroke="currentColor" stroke-linecap="round" stroke-linejoin="round" />
  <path d="M39.9995 20.5553V14.772M34.9995 14.772H44.9995" stroke="currentColor" stroke-linecap="round" stroke-linejoin="round" />
  <path d="M55.7002 27.0716L59.7986 22.9733M56.9701 20.1455L62.627 25.8024" stroke="currentColor" stroke-linecap="round" stroke-linejoin="round" />
</svg>