<svg viewBox="0 0 80 80" fill="none">
  <path d="M37.6713 42.3288C39.3304 43.9878 39.9825 46.2724 39.6279 48.4233L56.085 64.8804C58.4281 67.2236 62.2271 67.2236 64.5703 64.8804C66.9134 62.5373 66.9134 58.7383 64.5703 56.3952L40.8665 32.6914C41.1587 32.0106 41.4042 31.3043 41.5992 30.5765C43.0406 25.1971 41.5027 19.4573 37.5646 15.5192C33.6266 11.5812 27.8868 10.0432 22.5073 11.4846C21.8572 11.6588 21.2243 11.8734 20.6114 12.1254L27.9558 19.4698L27.9527 19.473L31.1084 22.6287L29.3166 29.316L22.6293 31.1079L19.4735 27.9521L19.4705 27.9551L12.1258 20.6104C11.8736 21.2236 11.6589 21.8569 11.4846 22.5073C10.0432 27.8868 11.5812 33.6266 15.5192 37.5646C18.8474 40.8928 23.4625 42.5067 28.0594 42.0567C30.808 39.5983 35.0316 39.689 37.6713 42.3288ZM37.6713 42.3288L44.0876 35.9125" stroke="currentColor" stroke-linecap="round" stroke-linejoin="round" />
  <path d="M27.7721 42.3286C30.5058 39.5949 34.9379 39.5949 37.6716 42.3286C40.4053 45.0622 40.4053 49.4944 37.6716 52.2281L21.4081 68.4915C20.6271 69.2726 19.3608 69.2726 18.5797 68.4915L11.5086 61.4205C10.7276 60.6394 10.7276 59.3731 11.5086 58.592L27.7721 42.3286Z" stroke="currentColor" stroke-linecap="round" stroke-linejoin="round" />
  <path d="M37.6714 42.3284L48.9851 31.0146" stroke="currentColor" stroke-linecap="round" stroke-linejoin="round" />
  <path d="M63.127 11.2158L68.7839 16.8727L57.6546 30.8303L48.9849 31.0148L49.1693 22.3451L63.127 11.2158Z" stroke="currentColor" stroke-linecap="round" stroke-linejoin="round" />
</svg>