<svg viewBox="0 0 80 80" fill="none">
  <path d="M20 29C20 25.134 23.134 22 27 22H53C56.866 22 60 25.134 60 29V51C60 54.866 56.866 58 53 58H27C23.134 58 20 54.866 20 51V29Z" stroke="currentColor" stroke-linecap="round" stroke-linejoin="round" />
  <path d="M28 22V16C28 13.7909 29.7909 12 32 12H48C50.2091 12 52 13.7909 52 16V22" stroke="currentColor" stroke-linecap="round" stroke-linejoin="round" />
  <path d="M52 58V64C52 66.2091 50.2091 68 48 68H32C29.7909 68 28 66.2091 28 64V58" stroke="currentColor" stroke-linecap="round" stroke-linejoin="round" />
  <path d="M30.1859 32.231C29.0607 33.3796 28.4286 34.9376 28.4286 36.562C28.4286 38.1865 29.0607 39.7444 30.1859 40.893L38.8959 49.7845C38.9107 49.7998 38.9256 49.815 38.9405 49.8303C39.4612 50.3618 40.3054 50.3618 40.8261 49.8303L49.5808 40.8932C50.706 39.7446 51.3381 38.1866 51.3381 36.5622C51.3381 34.9377 50.706 33.3798 49.5808 32.2312C48.4556 31.0825 46.9294 30.4372 45.3381 30.4372C43.7468 30.4372 42.2207 31.0825 41.0955 32.2312L39.8834 33.4685L38.6712 32.231C37.546 31.0823 36.0199 30.437 34.4286 30.437C32.8373 30.437 31.3112 31.0823 30.1859 32.231Z" stroke="currentColor" stroke-linecap="round" stroke-linejoin="round" />
</svg>