<svg viewBox="0 0 80 80" fill="none">
  <path d="M18.1551 52.4024C18.0806 52.3978 18.0054 52.3932 17.9295 52.3885V27.6078C18.7767 27.556 19.624 27.5042 20.6689 27.5042C25.996 27.5042 30.2746 30.8441 30.2252 39.5025C30.1758 48.3718 26.0419 52.4921 20.4677 52.4921C19.6064 52.4921 18.9119 52.4492 18.1551 52.4024Z" fill="currentColor" />
  <path fill-rule="evenodd" clip-rule="evenodd" d="M75 5H5V75H75V5ZM12.8495 22.6553C12.5494 22.7071 12.5 22.8107 12.5 23.0733V56.9785C12.5 57.2411 12.6024 57.3964 12.8001 57.3964C14.1416 57.4482 17.8306 57.5 20.3688 57.5C27.0904 57.5 35.8029 53.2725 35.8029 39.3472C35.8029 29.3313 30.7759 22.5 20.6689 22.5C17.2834 22.5 13.9933 22.6036 12.8495 22.6553ZM55.6632 57.0414C55.7126 57.3558 55.8115 57.4963 56.1609 57.4963L61.0432 57.5C61.3927 57.5 61.4421 57.3964 61.4916 57.1338L67.469 32.0276C67.5678 31.765 67.416 31.6615 67.2183 31.6615H62.6396C62.389 31.6615 62.3396 31.7909 62.2901 31.998C60.2607 42.9618 59.5739 47.5828 59.084 50.8783C59.0566 51.0625 59.0299 51.2426 59.0035 51.4195H58.8552C58.6159 49.34 57.8401 44.7931 56.6511 37.8256C56.3492 36.0562 56.0206 34.1307 55.6675 32.0498C55.618 31.7872 55.5686 31.6615 55.318 31.6615H50.1886C49.9088 31.6615 49.8899 31.7226 49.8085 31.9857C49.8026 32.0048 49.7963 32.0249 49.7897 32.0461C47.5515 42.8942 46.5066 48.5494 46.1571 51.2604H45.9594C45.6628 48.9673 44.865 43.1568 42.9728 31.9426C42.9234 31.7354 42.7716 31.6615 42.5739 31.6615H37.6951C37.3951 31.6615 37.2962 31.8723 37.3456 32.0794L42.619 57.1338C42.7179 57.4482 42.8167 57.5 43.1662 57.5H48.045C48.2956 57.5 48.3945 57.4112 48.4933 57.0968C50.4844 48.1758 51.7842 41.6034 52.4303 37.7457C52.8161 40.7608 53.5229 44.7876 54.4298 49.9544C54.8089 52.1143 55.223 54.4735 55.6632 57.0414Z" fill="currentColor" />
</svg>