<svg viewBox="0 0 80 80" fill="none">
  <path d="M34.6547 28.3207L38.1637 42.8705H31.194L34.6547 28.3207Z" fill="currentColor" />
  <path fill-rule="evenodd" clip-rule="evenodd" d="M75 5H5V75H75V5ZM27.5846 57.1849L29.9252 47.9015H39.3911L41.8284 57.2356C41.8768 57.4384 42.0255 57.5 42.2675 57.5H47.1422C47.3876 57.5 47.436 57.3442 47.3876 57.0907L37.9771 23.6736C37.9287 23.4164 37.8284 23.3657 37.6348 23.3657H31.4429C31.2942 23.3657 31.1974 23.4707 31.1974 23.6736C31.149 25.2057 31.0488 25.691 30.9036 26.2525L22.5164 57.04C22.468 57.3986 22.5164 57.5 22.8068 57.5H27.1456C27.4394 57.5 27.5362 57.4384 27.5846 57.1849ZM54.4784 22.5C52.774 22.5 51.4568 23.6735 51.4568 25.6657C51.4568 27.7085 52.6737 28.8314 54.43 28.8314C56.2312 28.8314 57.5 27.7085 57.5 25.6657C57.5 23.7786 56.2831 22.5 54.4784 22.5ZM52.1309 32.3448C51.8855 32.3448 51.7887 32.4462 51.7887 32.7034V57.0907C51.7887 57.3479 51.8855 57.5 52.1793 57.5H56.7671C57.0609 57.5 57.1093 57.3986 57.1093 57.1414V32.7034C57.1093 32.4462 57.0125 32.3448 56.7671 32.3448H52.1309Z" fill="currentColor" />
</svg>