<svg width="80" height="80" viewBox="0 0 80 80" fill="none" xmlns="http://www.w3.org/2000/svg">
  <path fill-rule="evenodd" clip-rule="evenodd" d="M27.7964 35.2094C27.4338 34.7347 26.8497 34.4841 26.2562 34.5486C25.6626 34.6131 25.1459 34.9834 24.8937 35.525L10.1856 64.9529C9.91313 65.4982 9.94225 66.1458 10.2625 66.6644C10.5828 67.183 11.1486 67.4987 11.7578 67.4987H32.2382C32.9083 67.5143 33.5247 67.1331 33.8104 66.5262C38.2283 57.3907 35.5509 43.5002 27.7964 35.2094Z" fill="currentColor" />
  <path fill-rule="evenodd" clip-rule="evenodd" d="M38.584 8.44405C31.1283 19.9242 30.2678 34.486 36.3195 46.7655L46.1933 66.527C46.491 67.123 47.0997 67.4995 47.7655 67.4995H68.2422C68.8514 67.4995 69.4172 67.1838 69.7374 66.6652C70.0577 66.1465 70.0868 65.499 69.8144 64.9537C69.8144 64.9537 42.2664 9.81221 41.574 8.43301C41.2947 7.86014 40.7125 7.49766 40.0756 7.50001C39.4386 7.50236 38.8591 7.86914 38.584 8.44405Z" fill="currentColor" />
</svg>