<svg viewBox="0 0 80 80" fill="none">
  <path d="M56.2065 72.4977L29.1786 10.1012C28.713 9.03891 27.9666 7.6682 26.0347 7.6682C24.3084 7.6682 23.486 8.48304 23.0218 9.35921C23.2618 8.72738 23.9884 7.5 26.0946 7.5H44.7485C46.4676 7.5 47.2923 8.48722 47.668 9.39106L75.0001 72.4977H56.2065Z" fill="currentColor" />
  <path d="M23.0218 9.35921L5.89862 49.2225C5.37717 50.4922 5.00024 51.2501 5.00024 52.2578C5.00024 54.0633 6.40689 55.8733 9.95576 55.8733H21.7055L35.3597 24.3709L29.1786 10.1012C28.713 9.03891 27.9666 7.6682 26.0347 7.6682C24.3084 7.6682 23.486 8.48304 23.0218 9.35921Z" fill="currentColor" />
  <path d="M9.95576 55.8733L48.9403 55.8734L26.3166 69.5404C25.2139 70.1765 21.0198 72.5002 18.0771 72.5002C16.1802 72.5002 15.1947 71.8024 14.2484 70.1818L5.60512 54.5571C5.0097 53.4374 5.00024 53.0643 5.00024 52.2578C5.00024 54.0633 6.40689 55.8733 9.95576 55.8733Z" fill="currentColor" />
</svg>