<svg viewBox="0 0 80 80" fill="none">
  <path fill-rule="evenodd" clip-rule="evenodd" d="M68.1078 44.7877H53.6753C52.7339 44.777 51.9286 45.4673 51.7875 46.4059C50.9677 52.3203 45.9485 56.7195 40.0262 56.7143L43.9341 74.7136C58.0921 72.8484 68.9893 61.1871 69.9956 46.8247C70.0323 46.2971 69.8498 45.7779 69.4917 45.3916C69.1336 45.0052 68.6322 44.7864 68.1078 44.7877Z" fill="currentColor" />
  <path fill-rule="evenodd" clip-rule="evenodd" d="M43.1317 44.3317L63.8979 26.3324C64.3043 25.971 64.5371 25.451 64.5371 24.9046C64.5371 24.3582 64.3043 23.8382 63.8979 23.4768L43.1317 5.44896C42.5714 4.97205 41.7879 4.86544 41.1223 5.17555C40.4567 5.48566 40.0293 6.15637 40.0262 6.89576V42.8849C40.0293 43.6243 40.4567 44.295 41.1223 44.6051C41.7879 44.9152 42.5714 44.8086 43.1317 44.3317Z" fill="currentColor" />
  <path fill-rule="evenodd" clip-rule="evenodd" d="M10.2844 48.7187C12.2706 63.7551 24.9844 74.9888 40.0273 74.999V56.7142C33.4906 56.7142 28.1873 51.3791 28.1717 44.7876L10.2844 48.7187Z" fill="currentColor" />
  <path fill-rule="evenodd" clip-rule="evenodd" d="M10 44.5036V44.7892H28.1704C28.186 38.1977 33.4894 32.8626 40.026 32.8626L36.1276 14.8633C21.3168 16.8094 10.1802 29.4433 10 44.5036Z" fill="currentColor" />
</svg>