<svg width="80" height="80" viewBox="0 0 80 80" fill="none" xmlns="http://www.w3.org/2000/svg">
  <path d="M23.1641 29.4139V36.7577H30.1563C30.1563 36.7577 33.5548 36.7577 33.5548 33.0858C33.5548 29.4139 30.1563 29.4139 30.1563 29.4139H23.1641Z" fill="currentColor" />
  <path d="M23.1641 49.7264V41.7967H30.6641C31.8751 41.7967 34.4141 42.4217 34.4141 46.1717C34.4141 48.953 31.9141 49.7004 30.6641 49.7264H23.1641Z" fill="currentColor" />
  <path d="M53.1251 37.4608C49.6251 37.4608 48.3334 40.3514 48.1251 41.7967H57.5001C57.5001 40.3514 56.6251 37.4608 53.1251 37.4608Z" fill="currentColor" />
  <path fill-rule="evenodd" clip-rule="evenodd" d="M40 75C59.33 75 75 59.33 75 40C75 20.67 59.33 5 40 5C20.67 5 5 20.67 5 40C5 59.33 20.67 75 40 75ZM17.1899 54.8986V24.3585H31.3081C35.8429 24.3585 39.5191 28.0347 39.5191 32.5695C39.5191 35.4511 38.633 37.2361 35.384 39.0674C39.2719 40.8388 40.3516 43.294 40.3516 46.7186C40.3516 51.3513 36.2361 54.8986 31.6034 54.8986H17.1899ZM53.1251 32.7733C48.8282 32.7733 42.461 35.8592 42.461 44.0623C42.461 49.0573 45.1954 55.4686 53.3985 55.4686C59.961 55.4686 62.9818 50.6509 63.672 48.242H57.5001C57.1876 49.3358 55.9766 50.5467 53.3985 50.5467C49.6485 50.5467 48.3204 47.3436 48.1251 45.742H63.672V44.0623C63.672 35.8592 57.422 32.7733 53.1251 32.7733ZM45.6641 29.8827V26.0936H60.3907V29.8827H45.6641Z" fill="currentColor" />
</svg>