<svg viewBox="0 0 80 80" fill="none">
  <path d="M62.5002 37.5V42.4999L57.4998 42.4869V37.5H62.5002Z" fill="currentColor" />
  <path fill-rule="evenodd" clip-rule="evenodd" d="M69.2367 57.4998C69.7075 56.6543 70 55.7018 70 54.8464V25.1532C70 24.2978 69.7078 23.3454 69.2369 22.5C68.7659 21.6543 68.1163 20.9157 67.402 20.488L42.598 5.64156C41.1692 4.78615 38.8308 4.78615 37.402 5.64156L12.598 20.488C11.169 21.3432 10 23.4427 10 25.1533V54.8465C10 55.7019 10.2924 56.6547 10.7634 57.5001C11.2342 58.3456 11.8838 59.0843 12.5981 59.5118L37.402 74.3583C38.8308 75.2137 41.1693 75.2137 42.5981 74.3583L67.402 59.5118C68.1165 59.0841 68.7659 58.3454 69.2367 57.4998ZM40.0963 60C29.0151 60 20 51.028 20 40C20 28.972 29.0151 20 40.0963 20C47.1145 20 53.6686 23.6892 57.2976 29.6545L48.6913 34.8162C46.873 31.8399 43.5997 30 40.0963 30C34.5556 30 30.0481 34.4859 30.0481 40C30.0481 45.5139 34.5556 50 40.0963 50C43.5904 50 46.8553 48.1703 48.6767 45.208L57.3013 50.3397C53.6729 56.3085 47.1168 60 40.0963 60ZM62.5002 34.9934V32.5H64.9998V34.9934H67.5V37.5H64.9998V42.4999H67.5V45H64.9998V47.5H62.5002V45H57.5L57.4998 47.5H55.0001V45H52.5V42.4869H55.0001V37.5H52.5V34.9934H55.0001V32.5H57.4998V34.9934H62.5002Z" fill="currentColor" />
</svg>