<svg width="80" height="80" viewBox="0 0 80 80" fill="none" xmlns="http://www.w3.org/2000/svg">
  <path d="M24.2431 40L20 37.1713V42.8287L24.2431 40Z" fill="currentColor" />
  <path d="M37.5 57.8287L22.0069 47.5L28.75 43.0046L37.5 48.838V57.8287Z" fill="currentColor" />
  <path d="M40 44.4954L33.2569 40L40 35.5046L46.7431 40L40 44.4954Z" fill="currentColor" />
  <path d="M51.25 36.9954L42.5 31.162V22.1713L57.9931 32.5L51.25 36.9954Z" fill="currentColor" />
  <path d="M37.5 31.162V22.1713L22.0069 32.5L28.75 36.9954L37.5 31.162Z" fill="currentColor" />
  <path d="M55.7569 40L60 37.1713V42.8287L55.7569 40Z" fill="currentColor" />
  <path d="M51.25 43.0046L57.9931 47.5L42.5 57.8287V48.838L51.25 43.0046Z" fill="currentColor" />
  <path fill-rule="evenodd" clip-rule="evenodd" d="M40 75C59.33 75 75 59.33 75 40C75 20.67 59.33 5 40 5C20.67 5 5 20.67 5 40C5 59.33 20.67 75 40 75ZM41.3867 15.4199C40.547 14.86 39.453 14.86 38.6133 15.4199L16.1132 30.4199C15.4178 30.8835 15 31.6641 15 32.5V47.5C15 48.3359 15.4178 49.1165 16.1132 49.5801L38.6133 64.5801C39.453 65.14 40.547 65.14 41.3867 64.5801L63.8868 49.5801C64.5822 49.1165 65 48.3359 65 47.5V32.5C65 31.6641 64.5822 30.8835 63.8868 30.4199L41.3867 15.4199Z" fill="currentColor" />
</svg>