<svg viewBox="0 0 80 80" fill="none">
  <path d="M68.1795 57.0949C67.2462 57.583 66.2838 58.013 65.2976 58.3827C62.1586 59.5571 58.8334 60.1555 55.4818 60.1489C42.5436 60.1489 31.2732 51.2495 31.2732 39.8293C31.2898 38.2976 31.7148 36.798 32.5045 35.4854C33.2942 34.1728 34.42 33.0948 35.7655 32.3625C24.0631 32.8547 21.0555 45.0486 21.0555 52.1927C21.0555 72.392 39.6727 74.4398 43.6838 74.4398C45.8465 74.4398 49.1084 73.811 51.0661 73.1931L51.4243 73.0728C58.9577 70.4686 65.38 65.3773 69.6341 58.6369C69.7644 58.4316 69.8226 58.1888 69.7994 57.9468C69.7763 57.7047 69.6731 57.4773 69.5063 57.3005C69.3394 57.1236 69.1184 57.0074 68.8781 56.9701C68.6379 56.9329 68.392 56.9768 68.1795 57.0949Z" fill="currentColor" />
  <path d="M68.1795 57.0949C67.2462 57.583 66.2838 58.013 65.2976 58.3827C62.1586 59.5571 58.8334 60.1555 55.4818 60.1489C42.5436 60.1489 31.2732 51.2495 31.2732 39.8293C31.2898 38.2976 31.7148 36.798 32.5045 35.4854C33.2942 34.1728 34.42 33.0948 35.7655 32.3625C24.0631 32.8547 21.0555 45.0486 21.0555 52.1927C21.0555 72.392 39.6727 74.4398 43.6838 74.4398C45.8465 74.4398 49.1084 73.811 51.0661 73.1931L51.4243 73.0728C58.9577 70.4686 65.38 65.3773 69.6341 58.6369C69.7644 58.4316 69.8226 58.1888 69.7994 57.9468C69.7763 57.7047 69.6731 57.4773 69.5063 57.3005C69.3394 57.1236 69.1184 57.0074 68.8781 56.9701C68.6379 56.9329 68.392 56.9768 68.1795 57.0949Z" fill="currentColor" />
  <path d="M33.9087 71.0058C31.47 69.4922 29.3565 67.5089 27.6911 65.1713C25.793 62.5709 24.4868 59.5867 23.8642 56.428C23.2416 53.2694 23.3176 50.0128 24.087 46.8866C24.8563 43.7604 26.3003 40.8405 28.3177 38.3314C30.3351 35.8224 32.8773 33.7852 35.7655 32.3625C36.6186 31.9606 38.0756 31.2333 40.0142 31.2689C41.38 31.2788 42.7249 31.6049 43.9435 32.2215C45.1622 32.8382 46.2215 33.7286 47.0384 34.8231C48.1425 36.2973 48.7513 38.0833 48.7773 39.9249C48.7773 39.8675 55.4652 18.1617 26.9037 18.1617C14.9005 18.1617 5.03005 29.5519 5.03005 39.5449C4.98271 44.831 6.11382 50.0614 8.34117 54.8556C11.9813 62.622 18.3469 68.7812 26.2291 72.1636C34.1114 75.5461 42.9614 75.9163 51.0987 73.204C48.2495 74.1022 45.2394 74.3719 42.2759 73.9943C39.3124 73.6167 36.4662 72.6008 33.9333 71.0167L33.9087 71.0058Z" fill="currentColor" />
  <path d="M33.9087 71.0058C31.47 69.4922 29.3565 67.5089 27.6911 65.1713C25.793 62.5709 24.4868 59.5867 23.8642 56.428C23.2416 53.2694 23.3176 50.0128 24.087 46.8866C24.8563 43.7604 26.3003 40.8405 28.3177 38.3314C30.3351 35.8224 32.8773 33.7852 35.7655 32.3625C36.6186 31.9606 38.0756 31.2333 40.0142 31.2689C41.38 31.2788 42.7249 31.6049 43.9435 32.2215C45.1622 32.8382 46.2215 33.7286 47.0384 34.8231C48.1425 36.2973 48.7513 38.0833 48.7773 39.9249C48.7773 39.8675 55.4652 18.1617 26.9037 18.1617C14.9005 18.1617 5.03005 29.5519 5.03005 39.5449C4.98271 44.831 6.11382 50.0614 8.34117 54.8556C11.9813 62.622 18.3469 68.7812 26.2291 72.1636C34.1114 75.5461 42.9614 75.9163 51.0987 73.204C48.2495 74.1022 45.2394 74.3719 42.2759 73.9943C39.3124 73.6167 36.4662 72.6008 33.9333 71.0167L33.9087 71.0058Z" fill="currentColor" />
  <path d="M46.6501 45.6993C46.4287 45.9864 45.7478 46.3828 45.7478 47.2468C45.7478 47.9604 46.2127 48.6466 47.0384 49.2235C50.9702 51.9576 58.3826 51.5967 58.4017 51.5967C61.3151 51.5897 64.1733 50.8013 66.6782 49.3137C69.2051 47.8383 71.3024 45.7279 72.7619 43.1918C74.2214 40.6557 74.9924 37.782 74.9984 34.856C75.0695 28.729 72.811 24.6552 71.8978 22.8507C66.104 11.518 53.5977 5 39.9978 5C30.8005 4.99909 21.9724 8.61853 15.423 15.0755C8.87362 21.5325 5.12934 30.3079 5 39.5039C5.13124 29.5136 15.0619 21.4454 26.8736 21.4454C27.8306 21.4454 33.2881 21.5384 38.3573 24.1986C42.825 26.5444 45.1655 29.3769 46.7923 32.1848C48.4821 35.1021 48.7828 38.7876 48.7828 40.2558C48.7828 41.724 48.0336 43.9003 46.6501 45.6993Z" fill="currentColor" />
  <path d="M46.6501 45.6993C46.4287 45.9864 45.7478 46.3828 45.7478 47.2468C45.7478 47.9604 46.2127 48.6466 47.0384 49.2235C50.9702 51.9576 58.3826 51.5967 58.4017 51.5967C61.3151 51.5897 64.1733 50.8013 66.6782 49.3137C69.2051 47.8383 71.3024 45.7279 72.7619 43.1918C74.2214 40.6557 74.9924 37.782 74.9984 34.856C75.0695 28.729 72.811 24.6552 71.8978 22.8507C66.104 11.518 53.5977 5 39.9978 5C30.8005 4.99909 21.9724 8.61853 15.423 15.0755C8.87362 21.5325 5.12934 30.3079 5 39.5039C5.13124 29.5136 15.0619 21.4454 26.8736 21.4454C27.8306 21.4454 33.2881 21.5384 38.3573 24.1986C42.825 26.5444 45.1655 29.3769 46.7923 32.1848C48.4821 35.1021 48.7828 38.7876 48.7828 40.2558C48.7828 41.724 48.0336 43.9003 46.6501 45.6993Z" fill="currentColor" />
</svg>