<svg width="80" height="80" viewBox="0 0 80 80" fill="none" xmlns="http://www.w3.org/2000/svg">
  <path d="M6.4634 36.467C4.5122 38.4182 4.5122 41.5818 6.4634 43.533L36.467 73.5366C38.4182 75.4878 41.5818 75.4878 43.533 73.5366L73.5366 43.533C75.4878 41.5818 75.4878 38.4182 73.5366 36.467L43.533 6.4634C41.5818 4.5122 38.4182 4.5122 36.467 6.4634L30.3248 12.6056L38.4248 20.7058C38.9224 20.5515 39.4513 20.4685 39.9996 20.4685C42.9336 20.4685 45.3121 22.8469 45.3121 25.781C45.3121 26.3293 45.229 26.8582 45.0748 27.3558L53.131 35.412C53.6459 35.2458 54.195 35.156 54.7652 35.156C57.6992 35.156 60.0777 37.5344 60.0777 40.4685C60.0777 43.4025 57.6992 45.781 54.7652 45.781C51.8312 45.781 49.4527 43.4025 49.4527 40.4685C49.4527 39.6884 49.6208 38.9477 49.9228 38.2805L42.4215 30.7791V50.192C44.1377 51.0726 45.3121 52.8599 45.3121 54.9216C45.3121 57.8556 42.9336 60.2341 39.9996 60.2341C37.0656 60.2341 34.6871 57.8556 34.6871 54.9216C34.6871 52.6476 36.1158 50.7073 38.1246 49.9494V30.7531C36.1158 29.9952 34.6871 28.0549 34.6871 25.781C34.6871 24.98 34.8643 24.2205 35.1817 23.5394L27.2865 15.644L6.4634 36.467Z" fill="currentColor" />
</svg>