<svg width="80" height="80" viewBox="0 0 80 80" fill="none" xmlns="http://www.w3.org/2000/svg">
  <path d="M10.8333 13.5C6.79892 13.5 3.5 16.739 3.5 20.7692V59.2307C3.5 63.261 6.79891 66.5 10.8333 66.5H69.1667C73.2011 66.5 76.5 63.261 76.5 59.2307V20.7692C76.5 16.739 73.2011 13.5 69.1667 13.5H10.8333Z" stroke="currentColor" stroke-width="3" />
  <path d="M10.8333 15C7.61167 15 5 17.583 5 20.7692C5 17.6805 7.45457 15.1587 10.5396 15.0073L40 35.1915L70.2968 15.1082C69.9312 15.0372 69.5533 15 69.1667 15H10.8333Z" fill="currentColor" />
  <path d="M75 22.9529L40 45.7684L12.7778 27.4165V64.9994H10.7526C10.7525 64.9994 10.7526 64.9994 10.7526 64.9994C10.7795 64.9998 10.8063 65 10.8333 65H69.1667L69.1962 64.9999H67.2227V28.024L75 22.9544V22.9529Z" fill="currentColor" />
</svg>