<svg viewBox="0 0 80 80" fill="none">
  <path d="M45 30H25V50H45V30Z" fill="currentColor" />
  <path fill-rule="evenodd" clip-rule="evenodd" d="M6.69545 13.4935C5 16.821 5 21.177 5 29.8889V50.1111C5 58.823 5 63.179 6.69545 66.5065C8.18682 69.4335 10.5665 71.8132 13.4935 73.3045C16.821 75 21.177 75 29.8889 75H50.1111C58.823 75 63.179 75 66.5065 73.3045C69.4335 71.8132 71.8132 69.4335 73.3045 66.5065C75 63.179 75 58.823 75 50.1111V29.8889C75 21.177 75 16.821 73.3045 13.4935C71.8132 10.5665 69.4335 8.18682 66.5065 6.69545C63.179 5 58.823 5 50.1111 5H29.8889C21.177 5 16.821 5 13.4935 6.69545C10.5665 8.18682 8.18682 10.5665 6.69545 13.4935ZM15 30L25 20H50C52.7614 20 55 22.2386 55 25V31.5552L62.2334 25.4481C63.3427 24.3936 65 25.3184 65 26.9918V53.0082C65 54.6816 63.3427 55.6064 62.2334 54.5519L55 48.444V55C55 57.7614 52.7614 60 50 60H20C17.2386 60 15 57.7614 15 55V30Z" fill="currentColor" />
</svg>