<svg width="80" height="80" viewBox="0 0 80 80" fill="none" xmlns="http://www.w3.org/2000/svg">
  <path d="M50 18C50 23.5228 45.5228 28 40 28C34.4772 28 30 23.5228 30 18C30 12.4772 34.4772 8 40 8C45.5228 8 50 12.4772 50 18Z" fill="currentColor" />
  <path d="M30 33H50V53H30V33Z" fill="currentColor" />
  <path d="M40 72.01L50 53.01H30L40 72.01Z" fill="currentColor" />
  <path d="M50 18C50 23.5228 45.5228 28 40 28C34.4772 28 30 23.5228 30 18C30 12.4772 34.4772 8 40 8C45.5228 8 50 12.4772 50 18Z" stroke="currentColor" stroke-width="3" stroke-linecap="round" stroke-linejoin="round" />
  <path d="M30 33H50V53H30V33Z" stroke="currentColor" stroke-width="3" stroke-linecap="round" stroke-linejoin="round" />
  <path d="M40 72.01L50 53.01H30L40 72.01Z" stroke="currentColor" stroke-width="3" stroke-linecap="round" stroke-linejoin="round" />
</svg>