<svg viewBox="0 0 80 80" fill="none">
  <path d="M46.6667 26C45.9302 26 45.3322 26.5978 45.3322 27.3333L45.3333 45.1478C45.3351 45.856 45.9608 46.4817 46.6667 46.4811C47.402 46.4811 48 45.8833 48 45.1478V27.3333C48 26.5978 47.4031 26 46.6667 26Z" fill="currentColor" />
  <path d="M40 25.3256C39.2636 25.3256 38.6656 25.9222 38.6656 26.6589L38.6667 45.9922C38.6684 46.7005 39.2941 47.3261 40 47.3256C40.7364 47.3256 41.3344 46.7289 41.3344 45.9922V26.6589C41.3344 25.9222 40.7364 25.3256 40 25.3256Z" fill="currentColor" />
  <path d="M33.3333 26C32.598 26 32 26.5978 32 27.3333V45.1478C32.0018 45.856 32.6274 46.4817 33.3333 46.4811C34.0698 46.4811 34.6667 45.8833 34.6667 45.1478V27.3333C34.6667 26.5978 34.0698 26 33.3333 26Z" fill="currentColor" />
  <path d="M26.6667 28.6667C25.9302 28.6667 25.3333 29.2633 25.3333 30V41.9922C25.3345 42.7178 25.9398 43.3268 26.6667 43.3256C27.402 43.3256 28 42.7289 28 41.9922V30C28 29.2633 27.4031 28.6667 26.6667 28.6667Z" fill="currentColor" />
  <path d="M40 54.6589C49.0565 54.6589 53.9967 50.5156 54.2016 50.3378C54.7542 49.866 54.8186 49.0072 54.3433 48.4578C53.8823 47.9205 53.0007 47.8533 52.464 48.3144C52.4219 48.35 48.0786 51.9922 39.9989 51.9922C32.0188 51.9922 27.608 48.3767 27.5305 48.3111C26.993 47.8534 26.1147 47.922 25.6545 48.4578C25.1824 49.0083 25.2476 49.8647 25.7985 50.3367C26.0066 50.5144 30.9435 54.6589 40 54.6589Z" fill="currentColor" />
  <path d="M53.3333 43.3267C54.0687 43.3267 54.6667 42.7289 54.6667 41.9933V30C54.6667 29.2633 54.0687 28.6667 53.3322 28.6667C52.5969 28.6667 52 29.2633 52 30V41.9933C52.0012 42.7189 52.6064 43.3279 53.3333 43.3267Z" fill="currentColor" />
  <path fill-rule="evenodd" clip-rule="evenodd" d="M40 75C59.33 75 75 59.33 75 40C75 20.67 59.33 5 40 5C20.67 5 5 20.67 5 40C5 59.33 20.67 75 40 75ZM20 25C20.0048 22.2793 22.2743 19.9958 25 20H55C57.7619 20 60 22.2389 60 25V55C59.9952 57.7207 57.7257 60.0042 55 60H25C22.2392 60 20 57.7611 20 55V25Z" fill="currentColor" />
</svg>