<svg width="80" height="80" viewBox="0 0 80 80" fill="none" xmlns="http://www.w3.org/2000/svg">
  <path fill-rule="evenodd" clip-rule="evenodd" d="M13.8018 8H66.1982C69.4025 8 72 10.5975 72 13.8018V66.1982C72 69.4025 69.4025 72 66.1982 72H13.8018C10.5975 72 8 69.4025 8 66.1982V13.8018C8 10.5975 10.5975 8 13.8018 8ZM33.2985 24.2833C33.2985 26.4688 31.5163 28.1363 29.3888 28.1363C27.2612 28.1363 25.4795 26.4685 25.4795 24.2833C25.4795 22.0993 27.2612 20.432 29.3888 20.432C31.5163 20.432 33.2985 22.0993 33.2985 24.2833ZM20.9373 51.6604C20.9373 50.7994 21.0525 49.7439 21.2823 48.7663L24.2143 36.7878H19.6725L21.0525 31.6968H31.9765L27.664 48.8028C27.3765 49.8961 27.2615 50.8028 27.2615 51.4341C27.2615 52.5281 27.8 52.8479 28.642 53.0379C29.1548 53.1526 33.2405 53.0724 35.4648 48.1278L38.2973 36.7878H33.6975L35.0775 31.6968H44.9085L43.644 37.4768C45.3685 34.2565 48.8185 31.1968 52.2105 31.1968C55.8325 31.1968 58.8225 33.7773 58.8225 38.7218C58.8225 39.9863 58.6497 41.3626 58.19 42.9146L56.3498 49.5241C56.1777 50.2156 56.0622 50.7899 56.0622 51.3074C56.0622 52.4566 56.5223 53.0311 57.3848 53.0311C58.2472 53.0311 59.3398 52.3974 60.6048 48.8921L63.1343 49.8686C61.6392 55.1009 58.9372 57.2846 55.545 57.2846C51.5777 57.2846 49.681 54.9289 49.681 51.7081C49.681 50.7889 49.7955 49.8108 50.083 48.8333L51.9805 42.0491C52.2105 41.3013 52.268 40.6121 52.268 39.9793C52.268 37.7953 50.9458 36.4723 48.8185 36.4723C46.116 36.4723 44.3337 38.4121 43.4137 42.1491L39.7337 56.9089H33.295L34.4508 52.2706C32.558 55.3799 29.9293 57.3054 26.6868 57.3054C22.777 57.3054 20.9373 55.0531 20.9373 51.6604Z" fill="currentColor" />
</svg>