<svg width="80" height="80" viewBox="0 0 80 80" fill="none" xmlns="http://www.w3.org/2000/svg">
  <path d="M12.5 69.7992C12.5 71.3957 13.4309 72.499 15.0124 72.499H44.9347C40.9189 64.5672 36.423 57.332 30.8267 50.5493C25.0366 54.1796 18.9165 57.3188 12.5 59.8773V69.7992Z" fill="currentColor" />
  <path d="M12.5 20.3932C18.9002 22.9436 25.0061 26.0736 30.7821 29.6907C36.3976 22.8958 41.26 15.4521 45.2859 7.5H15.6184C13.8958 7.5 12.5 8.90942 12.5 10.6483" fill="currentColor" />
  <path d="M30.8268 50.551C35.7988 47.4342 40.5272 43.9615 44.9551 40.1359C40.514 36.2992 35.7684 32.8163 30.7842 29.6924C27.7551 33.3583 24.5007 36.8229 21.0666 40.0952C24.5179 43.3859 27.7866 46.8678 30.8268 50.551Z" fill="currentColor" />
  <path d="M44.9538 40.1367C40.5262 43.9619 35.7984 47.4344 30.8268 50.551C36.4231 57.3336 40.9188 64.5685 44.9346 72.5003L67.405 72.5005C69.4788 72.5005 70.2452 71.029 69.4788 69.7081C62.9781 58.51 54.6612 48.5261 44.9538 40.1367Z" fill="currentColor" />
  <path d="M45.2841 7.50336C41.2603 15.4507 36.3936 22.9002 30.782 29.6917C35.7662 32.8156 40.514 36.2992 44.9551 40.1359C54.8086 31.6173 63.2319 21.4599 69.7742 10.0565C70.4239 8.92365 69.5915 7.5 68.2922 7.5L45.2841 7.50336Z" fill="currentColor" />
  <path d="M12.5 47.5174C15.4722 45.1785 18.3298 42.7044 21.0675 40.0961C18.3298 37.4887 15.4722 35.0116 12.5 32.6758V47.5174Z" fill="currentColor" />
  <path d="M12.5 20.3932C18.9002 22.9436 25.0061 26.0736 30.7821 29.6907C27.753 33.3565 24.5006 36.8229 21.0666 40.0952C18.329 37.4881 15.472 35.0114 12.5 32.6758V20.3932Z" fill="currentColor" />
  <path d="M30.8268 50.551C27.7866 46.8678 24.5179 43.3859 21.0666 40.0952C18.3288 42.7036 15.4722 45.1785 12.5 47.5174V59.8787C18.9165 57.3202 25.0367 54.1813 30.8268 50.551Z" fill="currentColor" />
</svg>