<svg viewBox="0 0 80 80" fill="none">
  <path fill-rule="evenodd" clip-rule="evenodd" d="M40 75C59.3375 75 75 59.32 75 40C75 20.6625 59.3375 5 40 5C20.6625 5 5 20.6625 5 40C5 59.32 20.6625 75 40 75ZM25.6011 48.726C25.2348 49.0554 24.9217 49.4749 24.6051 49.8992C24.3754 50.207 24.1438 50.5173 23.8887 50.7976C23.4492 51.2503 22.9223 51.4436 22.4004 51.635C21.6848 51.8975 20.9785 52.1566 20.5193 53.0763C20.0942 53.9053 20.2338 54.814 20.3713 55.7093C20.4215 56.0361 20.4714 56.3611 20.4935 56.6798C20.5322 57.2374 20.3894 57.7747 20.2476 58.3083C20.0337 59.1132 19.8221 59.9094 20.2394 60.7536C20.8902 62.07 22.5979 62.2197 24.0435 62.3464C24.3908 62.3769 24.7229 62.406 25.0216 62.4496C25.9267 62.5819 26.9379 62.964 27.9843 63.3594C30.5078 64.3129 33.2356 65.3437 35.1715 63.1326C35.487 62.7722 35.7185 62.4152 35.8787 62.0616C36.3234 62.0242 36.7928 61.9295 37.3204 61.823C38.0753 61.6706 38.9493 61.4942 40.0398 61.4277C40.6962 61.3726 41.4291 61.4827 42.2298 61.6031C43.0714 61.7295 43.9879 61.8673 44.9689 61.8361C45.4168 63.7616 47.163 65.1605 49.2046 64.9913C50.8236 64.8571 52.5297 63.8615 53.8793 62.1895C54.4302 61.4949 55.4671 60.9751 56.5329 60.4408C58.1842 59.613 59.9049 58.7504 59.9944 57.1489C60.0479 56.1925 59.539 55.5272 59.0264 54.857C58.6752 54.3977 58.3222 53.9363 58.1473 53.3773C58.048 53.06 57.9751 52.7257 57.902 52.3902C57.7076 51.4986 57.5113 50.598 56.8114 49.981C56.5188 49.7144 56.219 49.5417 55.9222 49.4309C57.291 44.8186 55.0702 40.2707 52.8258 37.0338C52.8106 37.0094 52.7953 36.985 52.7799 36.9608C52.2631 36.1416 51.6841 35.382 51.1138 34.6339C49.5522 32.5852 48.0562 30.6225 48.0802 27.7559C48.0821 27.5713 48.0847 27.3797 48.0874 27.183C48.0913 26.9039 48.0974 26.6134 48.1036 26.3137C48.2043 21.5063 48.3539 14.3595 40.0398 15.046C32.9738 15.6294 33.3854 22.2093 33.6331 26.1695L33.6332 26.1709C33.6817 26.9458 33.7239 27.6207 33.7024 28.1302C33.5223 30.8696 32.9164 32.8943 30.5747 35.8038C30.2263 36.2509 29.9058 36.7186 29.6116 37.2026C27.3989 40.4658 25.1687 44.8409 25.6011 48.726Z" fill="currentColor" />
</svg>