<svg width="80" height="80" viewBox="0 0 80 80" fill="none" xmlns="http://www.w3.org/2000/svg">
  <path fill-rule="evenodd" clip-rule="evenodd" d="M75 40C75 59.33 59.33 75 40 75C20.67 75 5 59.33 5 40C5 20.67 20.67 5 40 5C59.33 5 75 20.67 75 40ZM36.2763 41.2133C37.1606 36.5128 37.9495 32.3186 36.5117 32.3029C32.8587 32.2638 28.3457 50.8091 29.0101 58.9036C29.3674 63.2562 22.5729 64.186 22.5045 58.7268C22.2897 41.6145 29.8705 22.4497 37.5282 22.8717C42.5297 23.147 42.0121 30.6479 42.0121 30.6479C42.0121 30.6479 46.9831 17.4506 53.4185 17.5001C55.2565 17.5148 57.094 19.009 57.4381 22.0644C57.7717 25.0246 56.7022 28.501 55.5319 32.3053C53.9413 37.4754 52.1646 43.251 53.47 49.1592C54.1551 52.258 47.414 54.071 46.6713 48.8447C46.0974 44.806 47.3082 39.6076 48.267 35.491C49.1835 31.556 49.8697 28.6096 48.5468 28.6096C44.6889 28.6096 40.8849 46.5036 41.5821 52.2142C41.9919 55.5733 35.5355 57.2533 35.0469 51.4183C34.8343 48.8794 35.5845 44.8913 36.2763 41.2133Z" fill="currentColor" />
</svg>