<svg width="80" height="80" viewBox="0 0 80 80" fill="none" xmlns="http://www.w3.org/2000/svg">
  <path fill-rule="evenodd" clip-rule="evenodd" d="M6.6349 13.1901C5 16.3988 5 20.5992 5 29V51C5 59.4008 5 63.6012 6.6349 66.8099C8.073 69.6323 10.3677 71.927 13.1901 73.3651C16.3988 75 20.5992 75 29 75H51C59.4008 75 63.6012 75 66.8099 73.3651C69.6323 71.927 71.927 69.6323 73.3651 66.8099C75 63.6012 75 59.4008 75 51V29C75 20.5992 75 16.3988 73.3651 13.1901C71.927 10.3677 69.6323 8.073 66.8099 6.6349C63.6012 5 59.4008 5 51 5H29C20.5992 5 16.3988 5 13.1901 6.6349C10.3677 8.073 8.073 10.3677 6.6349 13.1901ZM62.5 38.75C62.5 49.1053 52.4264 57.5 40 57.5C37.7007 57.5 35.4819 57.2126 33.3927 56.6785C31.3028 58.1011 28.5053 59.369 25 60C26.8537 58.3317 27.4703 56.1067 27.6755 54.4395C21.5472 51.0897 17.5 45.3137 17.5 38.75C17.5 28.3947 27.5736 20 40 20C52.4264 20 62.5 28.3947 62.5 38.75Z" fill="currentColor" />
</svg>