<svg width="80" height="80" viewBox="0 0 80 80" fill="none" xmlns="http://www.w3.org/2000/svg">
  <path d="M14.1924 13.8252C13.4956 13.8751 13.2317 14.7306 13.7863 15.1413L19.3427 19.255C20.305 19.9675 21.4996 20.323 22.7098 20.2572L62.701 18.0822C63.0571 18.0629 63.192 17.6229 62.9044 17.4191L55.3275 12.051C54.3544 11.3616 53.1588 11.0303 51.9556 11.1166L14.1924 13.8252Z" fill="currentColor" />
  <path fill-rule="evenodd" clip-rule="evenodd" d="M23.2258 24.6301C21.8837 24.7032 20.8341 25.7764 20.8341 27.0756V65.1025C20.8341 66.5118 22.0616 67.6304 23.5174 67.5476L65.5316 65.157C66.8711 65.0808 67.917 64.0088 67.917 62.7119V24.5283C67.917 23.2621 66.8158 22.2562 65.5078 22.3274L23.2258 24.6301ZM28.1204 33.4377V33.9455L31.5259 34.1369V59.0895L30.2174 59.227C28.9254 59.3627 27.9889 60.4806 28.1204 61.7302L38.0676 61.2875C39.2813 61.2334 40.2845 60.3546 40.4591 59.1926L40.5148 58.8216L36.5153 58.0562V39.3417L49.5091 58.9495C50.7811 60.8688 53.2547 61.6867 55.4766 60.9226L58.1362 60.008V31.9937L60.2554 31.6353C60.8617 31.5328 61.3041 31.0239 61.3041 30.429V29.1617L52.4978 29.6128C51.1522 29.6817 50.0977 30.7563 50.0977 32.0587V32.2999L53.5428 32.7591V50.0576L40.1584 30.3481L30.48 30.9942C29.1513 31.0829 28.1204 32.1505 28.1204 33.4377Z" fill="currentColor" />
  <path fill-rule="evenodd" clip-rule="evenodd" d="M5.69159 62.3329L14.29 73.0445C16.71 76.0592 20.5183 77.7192 24.4583 77.4767L68.7191 74.7522C73.6564 74.4482 77.5 70.4894 77.5 65.7079V21.6106C77.5 18.6525 76.0061 15.8805 73.4981 14.1848L59.4869 4.71176C57.107 3.10273 54.2275 2.33266 51.3303 2.53046L11.4518 5.25313C6.40896 5.59742 2.5 9.65161 2.5 14.5375V53.3247C2.5 56.5865 3.62282 59.7557 5.69159 62.3329ZM11.8088 10.1384L51.6874 7.41574C53.4257 7.29705 55.1534 7.7591 56.5813 8.72451L70.5925 18.1975C71.7449 18.9766 72.4312 20.2503 72.4312 21.6094V65.7067C72.4312 67.9036 70.6653 69.7225 68.3968 69.8622L24.136 72.5867C21.8726 72.726 19.6848 71.7724 18.2946 70.0405L9.69624 59.3289C8.31706 57.6108 7.56851 55.498 7.56851 53.3235V14.5363C7.56851 12.2219 9.42013 10.3015 11.8088 10.1384Z" fill="currentColor" />
</svg>