<svg width="80" height="80" viewBox="0 0 80 80" fill="none" xmlns="http://www.w3.org/2000/svg">
  <path d="M40 40C49.665 40 57.5 32.165 57.5 22.5C57.5 12.835 49.665 5 40 5C30.335 5 22.5 12.835 22.5 22.5C22.5 32.165 30.335 40 40 40Z" fill="currentColor" />
  <path fill-rule="evenodd" clip-rule="evenodd" d="M38.6068 74.5739C27.935 67.297 19.0596 57.38 12.7313 45.6616C12.4867 45.1918 12.4335 44.6353 12.5842 44.1224C12.7349 43.6095 13.0762 43.1854 13.5282 42.9495L25.9026 36.4582C26.7682 36.007 27.8128 36.3493 28.2932 37.2415C34.5495 48.45 43.8004 57.4009 54.8557 62.9424C50.7785 67.3336 46.2634 71.234 41.3912 74.5739C40.5393 75.1424 39.4587 75.1424 38.6068 74.5739Z" fill="currentColor" />
  <path fill-rule="evenodd" clip-rule="evenodd" d="M41.3912 74.5739C52.0644 67.2988 60.94 57.3814 67.2666 45.6616C67.5118 45.1931 67.5664 44.6375 67.4175 44.1248C67.2685 43.612 66.9292 43.1872 66.4789 42.9495L54.0953 36.4582C53.2297 36.007 52.185 36.3493 51.7047 37.2415C45.4497 48.4512 36.1984 57.4025 25.1422 62.9424C29.2169 67.3365 33.7325 71.2372 38.6068 74.5739C39.4587 75.1424 40.5393 75.1424 41.3912 74.5739Z" fill="currentColor" />
</svg>