<svg width="80" height="80" viewBox="0 0 80 80" fill="none" xmlns="http://www.w3.org/2000/svg">
  <path d="M18.5871 44.989L20.4072 35.1102H21.022C21.2454 35.1102 21.4785 35.099 21.722 35.0772C23.3454 35.0554 24.6944 35.2205 25.7699 35.5728C26.8656 35.925 27.2308 37.2578 26.8656 39.5705C26.4194 42.324 25.5465 43.9318 24.2482 44.3943C22.9498 44.835 21.3263 45.0439 19.3785 45.0221H18.9524C18.8306 45.0221 18.7089 45.0108 18.5871 44.989Z" fill="currentColor" />
  <path d="M54.6694 44.989L56.4895 35.1102H57.1043C57.3277 35.1102 57.5608 35.099 57.8043 35.0772C59.4277 35.0554 60.7767 35.2205 61.8522 35.5728C62.9479 35.925 63.3131 37.2578 62.9479 39.5705C62.5017 42.324 61.6289 43.9318 60.3305 44.3943C59.0321 44.835 57.4086 45.0439 55.4608 45.0221H55.0347C54.9129 45.0221 54.7912 45.0108 54.6694 44.989Z" fill="currentColor" />
  <path fill-rule="evenodd" clip-rule="evenodd" d="M40 75C59.33 75 75 59.33 75 40C75 20.67 59.33 5 40 5C20.67 5 5 20.67 5 40C5 59.33 20.67 75 40 75ZM36.0979 25H40.2981L39.1111 31.3105H42.8851C44.9547 31.3548 46.4966 31.8174 47.5113 32.6982C48.5461 33.5791 48.8505 35.2535 48.4244 37.7202L46.3852 48.7224H42.1242L44.0721 38.2158C44.2748 37.1143 44.2139 36.3326 43.8895 35.87C43.565 35.4074 42.865 35.1762 41.7894 35.1762L38.4111 35.1431L35.9153 48.7224H31.7152L36.0979 25ZM16.8523 31.3107H25.009C27.4031 31.3325 29.138 32.0818 30.2135 33.5574C31.2891 35.0329 31.644 37.0483 31.2788 39.6036C31.1369 40.7712 30.8223 41.9164 30.3353 43.0397C29.8684 44.163 29.2195 45.176 28.3874 46.0793C27.3727 47.2245 26.2873 47.9514 25.1308 48.2599C23.9742 48.5685 22.7769 48.7225 21.5394 48.7225H17.8871L16.7306 55H12.5L16.8523 31.3107ZM52.9346 31.3107H61.0913C63.4854 31.3325 65.2203 32.0818 66.2958 33.5574C67.3714 35.0329 67.7263 37.0483 67.3611 39.6036C67.2192 40.7712 66.9045 41.9164 66.4176 43.0397C65.9507 44.163 65.3018 45.176 64.4697 46.0793C63.455 47.2245 62.3696 47.9514 61.2131 48.2599C60.0565 48.5685 58.8592 48.7225 57.6217 48.7225H53.9694L52.8129 55H48.5823L52.9346 31.3107Z" fill="currentColor" />
</svg>