<svg width="80" height="80" viewBox="0 0 80 80" fill="none" xmlns="http://www.w3.org/2000/svg">
  <path d="M35 43.3648C35 45.4849 33.3211 47.2037 31.25 47.2037C29.1789 47.2037 27.5 45.4849 27.5 43.3648C27.5 41.2446 29.1789 39.5259 31.25 39.5259C33.3211 39.5259 35 41.2446 35 43.3648Z" fill="currentColor" />
  <path d="M52.5 43.3648C52.5 45.4849 50.8211 47.2037 48.75 47.2037C46.6789 47.2037 45 45.4849 45 43.3648C45 41.2446 46.6789 39.5259 48.75 39.5259C50.8211 39.5259 52.5 41.2446 52.5 43.3648Z" fill="currentColor" />
  <path d="M30.2099 51.6124C30.5929 51.0243 31.369 50.8654 31.9434 51.2575C32.8795 51.8964 33.9114 52.4053 35 52.7841C36.5863 53.3363 38.2932 53.6123 40 53.6123C42.8781 53.6123 45.7563 52.8274 48.0566 51.2575C48.631 50.8654 49.4071 51.0243 49.7901 51.6124C50.173 52.2004 50.0178 52.9949 49.4434 53.3869C46.7232 55.2434 43.3616 56.1716 40 56.1716C36.6384 56.1716 33.2768 55.2434 30.5566 53.3869C29.9822 52.9949 29.827 52.2004 30.2099 51.6124Z" fill="currentColor" />
  <path fill-rule="evenodd" clip-rule="evenodd" d="M5 40C5 20.6953 20.6953 5 40 5C59.3047 5 75 20.6953 75 40C75 59.3047 59.3047 75 40 75C20.6953 75 5 59.3047 5 40ZM50 22.8906C50 22.6807 50.0165 22.4746 50.0482 22.2738L43.4095 20.6036L40.6616 31.8556C45.8498 31.9743 50.5383 33.4837 53.9992 35.8713C54.9012 34.9657 56.1369 34.4073 57.5 34.4073C60.2614 34.4073 62.5 36.699 62.5 39.5259C62.5 41.4932 61.4159 43.2012 59.8258 44.0581C59.9407 44.6686 60 45.2914 60 45.924C60 53.698 51.0457 60 40 60C28.9543 60 20 53.698 20 45.924C20 45.2914 20.0593 44.6686 20.1742 44.0581C18.5841 43.2012 17.5 41.4932 17.5 39.5259C17.5 36.699 19.7386 34.4073 22.5 34.4073C23.8631 34.4073 25.0988 34.9657 26.0007 35.8713C29.1774 33.6797 33.3885 32.2281 38.0708 31.9127L41.5905 17.5L51.3289 19.959C51.9822 19.393 52.8271 19.0517 53.75 19.0517C55.8211 19.0517 57.5 20.7705 57.5 22.8906C57.5 25.0108 55.8211 26.7295 53.75 26.7295C51.6789 26.7295 50 25.0108 50 22.8906Z" fill="currentColor" />
</svg>