<svg width="80" height="80" viewBox="0 0 80 80" fill="none" xmlns="http://www.w3.org/2000/svg">
  <path fill-rule="evenodd" clip-rule="evenodd" d="M5 40C5 20.6953 20.6953 5 40 5C59.3047 5 75 20.6953 75 40C75 59.3047 59.3047 75 40 75C20.6953 75 5 59.3047 5 40ZM46.3031 17.323L43.4256 19.5154L54.2506 34.0401L57.1282 31.8477L46.3031 17.323ZM51.3731 37.4658L37.3965 25.8186L39.7259 23.078L53.7025 34.7253L51.3731 37.4658ZM32.7376 33.9031L49.1807 41.5765L50.688 38.2879L34.2449 30.6144L32.7376 33.9031ZM30.2712 43.2208L48.8518 45.9065L49.0848 42.6453L30.9152 39.1512L30.2712 43.2208ZM48.9066 51.3053H29.7231V47.1945H48.9066V51.3053ZM51.6471 54.0455V43.0835H55.7578V58.1563H22.8717V43.0835H26.9825V54.0455H51.6471Z" fill="currentColor" />
</svg>