<svg width="80" height="80" viewBox="0 0 80 80" fill="none" xmlns="http://www.w3.org/2000/svg">
  <path d="M21.1274 49.4816C21.5181 46.2469 22.8447 44.4358 25.3448 42.5792C28.922 40.0647 33.3903 41.487 33.3903 41.487V33.0491C34.4766 33.0214 35.5634 33.0858 36.6378 33.2416V44.1003C36.6378 44.1003 32.1708 42.678 28.5937 45.1937C26.095 47.049 24.7656 48.8614 24.3763 52.0962C24.364 53.8527 24.6937 56.1487 26.2116 58.134C25.8363 57.9416 25.4538 57.7223 25.064 57.4762C21.7202 55.2308 21.1111 51.8622 21.1274 49.4816ZM55.0879 17.4475C52.6272 14.751 51.6966 12.0285 51.3602 10.116H54.4557C54.4557 10.116 53.8385 15.1306 58.3368 20.062L58.3992 20.1283C57.1868 19.3657 56.075 18.4656 55.0879 17.4475ZM70.0001 25.0923V35.7326C70.0001 35.7326 66.0499 35.5779 63.1266 34.8342C59.0449 33.7941 56.4213 32.1988 56.4213 32.1988C56.4213 32.1988 54.609 31.0612 54.4625 30.9819V52.9543C54.4625 54.1777 54.1275 57.233 53.106 59.7813C51.7725 63.1149 49.7147 65.303 49.3362 65.7503C49.3362 65.7503 46.8335 68.7081 42.418 70.6999C38.438 72.4967 34.9436 72.4512 33.899 72.4967C33.899 72.4967 27.8584 72.7359 22.4229 69.2034C21.2475 68.4248 20.1503 67.543 19.1455 66.5693L19.1726 66.5888C24.6096 70.1213 30.6488 69.8821 30.6488 69.8821C31.6947 69.8366 35.1891 69.8821 39.1678 68.0853C43.5792 66.0935 46.086 63.1357 46.086 63.1357C46.4604 62.6884 48.5278 60.5003 49.8558 57.1654C50.8745 54.6185 51.2123 51.5618 51.2123 50.3384V28.3686C51.3588 28.4492 53.1698 29.5869 53.1698 29.5869C53.1698 29.5869 55.7946 31.1834 59.8764 32.2222C62.8011 32.9659 66.7499 33.1206 66.7499 33.1206V24.7828C68.101 25.0858 69.2527 25.1677 70.0001 25.0923Z" fill="currentColor" />
  <path d="M66.7509 24.7828V33.118C66.7509 33.118 62.8021 32.9633 59.8774 32.2196C55.7957 31.1795 53.1708 29.5843 53.1708 29.5843C53.1708 29.5843 51.3598 28.4466 51.2133 28.366V50.341C51.2133 51.5644 50.8783 54.6211 49.8568 57.168C48.5234 60.5029 46.4655 62.691 46.087 63.1383C46.087 63.1383 43.5829 66.0961 39.1688 68.0879C35.1901 69.8847 31.6957 69.8392 30.6498 69.8847C30.6498 69.8847 24.6106 70.1239 19.1737 66.5914L19.1465 66.5719C18.5725 66.0161 18.0322 65.4292 17.5282 64.8142C15.7932 62.6988 14.7297 60.1974 14.4625 59.4836C14.462 59.4806 14.462 59.4775 14.4625 59.4745C14.0324 58.2341 13.129 55.2555 13.2524 52.3705C13.4708 47.2805 15.2615 44.1562 15.7349 43.3735C16.9887 41.2392 18.6195 39.3296 20.5546 37.7296C22.2622 36.349 24.1978 35.2506 26.2818 34.4793C28.5348 33.5737 30.9476 33.0883 33.3903 33.0491V41.487C33.3903 41.487 28.9216 40.0699 25.3458 42.5792C22.8458 44.4358 21.5191 46.2469 21.1284 49.4816C21.1121 51.8622 21.7212 55.2308 25.0623 57.4775C25.4521 57.7245 25.8346 57.9438 26.2099 58.1353C26.7936 58.8941 27.5041 59.5552 28.3125 60.092C31.5763 62.158 34.3111 62.3023 37.8082 60.9605C40.1401 60.0634 41.8954 58.0417 42.7093 55.8016C43.2207 54.4026 43.2139 52.9946 43.2139 51.5384V10.116H51.3531C51.6895 12.0285 52.6201 14.751 55.0808 17.4475C56.0679 18.4656 57.1797 19.3657 58.392 20.1283C58.7502 20.4989 60.5815 22.3308 62.9323 23.4554C64.1479 24.0367 65.4292 24.4821 66.7509 24.7828Z" fill="currentColor" />
  <path d="M11.2231 56.8924V56.8989L11.4251 57.4463C11.4019 57.3825 11.3269 57.1888 11.2231 56.8924Z" fill="currentColor" />
</svg>