<svg width="80" height="80" viewBox="0 0 80 80" fill="none" xmlns="http://www.w3.org/2000/svg">
  <path fill-rule="evenodd" clip-rule="evenodd" d="M5 40C5 20.6953 20.6953 5 40 5C59.3047 5 75 20.6953 75 40C75 59.3047 59.3047 75 40 75C20.6953 75 5 59.3047 5 40ZM32.8644 36.1159C32.8933 36.1512 32.9444 36.1653 32.9875 36.1499C40.8032 33.5029 42.1396 26.6267 41.1724 20.3043C41.1464 20.1129 41.3795 19.9432 41.5552 20.0256C49.0667 23.5493 57.5 31.3441 57.5 43.076C57.5 52.042 50.3713 60 40 60C28.9303 60 22.5 52.2788 22.5 43.0749C22.5 37.7175 26.3976 32.1687 30.5983 29.823C30.8045 29.7086 31.062 29.8366 31.0791 30.0643C31.1623 31.2467 31.5041 34.3252 32.8644 36.1159Z" fill="currentColor" />
</svg>