<svg viewBox="0 0 80 80" fill="none">
  <path d="M40.6984 27.2243L40.7043 27.227C40.718 27.7354 40.7146 28.2326 40.7103 28.7168C40.707 28.5501 40.7072 28.38 40.7113 28.2068L40.6952 28.5059C40.6932 28.1446 40.6952 27.8162 40.6968 27.5445C40.6975 27.4267 40.6982 27.3189 40.6984 27.2243Z" fill="currentColor" />
  <path fill-rule="evenodd" clip-rule="evenodd" d="M5 40C5 20.67 20.67 5 40 5C59.33 5 75 20.67 75 40C75 59.33 59.33 75 40 75C20.67 75 5 59.33 5 40ZM42.5853 14.1057L41.1572 19.9185C43.1801 15.813 46.393 12.7238 50.0821 10C47.3848 13.2113 44.9257 16.4229 43.4183 19.6342C45.957 15.9755 49.3682 13.9432 53.2157 12.6017C48.2225 17.1634 44.2343 22.0503 41.1693 26.9677L43.3785 27.2764C42.3471 30.7723 45.4017 33.2112 46.3933 33.7806C48.6145 35.0408 50.7565 36.3415 52.4623 37.9268C55.6754 40.9348 57.5 45.1626 57.5 49.6341C57.5 54.0649 55.5166 58.3331 52.1846 61.1786C49.0511 63.8616 44.7276 64.9998 40.5229 64.9998C37.9048 64.9998 35.5645 64.8781 33.026 64.0241C27.2349 62.0323 22.9111 56.9512 22.5542 50.8533C22.2367 46.0972 23.2681 42.4793 26.878 38.6989C28.2536 37.2289 30.6665 35.604 32.8729 34.1181C33.6562 33.5906 34.4134 33.0806 35.089 32.6013C36.3585 31.7069 37.707 29.1864 35.1285 24.4306L35.6443 24.024L38.5116 25.9921C38.9801 22.0452 40.4476 18.0093 42.5853 14.1057Z" fill="currentColor" />
</svg>