<svg width="80" height="80" viewBox="0 0 80 80" fill="none" xmlns="http://www.w3.org/2000/svg">
  <path d="M29.4719 70C21.3844 70 13.8454 67.6477 7.5 63.589C12.8875 63.9377 22.3952 63.1028 28.3089 57.462C19.4127 57.0538 15.4007 50.2307 14.8773 47.3149C15.6332 47.6065 19.2383 47.9564 21.2733 47.14C11.0397 44.574 9.46982 35.5933 9.81869 32.8524C11.7375 34.1937 14.9936 34.6602 16.2728 34.5436C6.73698 27.7206 10.1676 17.4569 11.8538 15.2409C18.6971 24.7217 28.953 30.0464 41.6409 30.3426C41.4017 29.2934 41.2754 28.2011 41.2754 27.0791C41.2754 19.0273 47.7835 12.5 55.8117 12.5C60.0064 12.5 63.786 14.2819 66.4392 17.1321C69.2423 16.4753 73.4608 14.9377 75.5231 13.608C74.4836 17.3403 71.2473 20.4537 69.2897 21.6077C69.306 21.6469 69.2738 21.5683 69.2897 21.6077C71.0093 21.3476 75.662 20.4534 77.5 19.2064C76.591 21.3031 73.16 24.7893 70.3443 26.7411C70.8682 49.8451 53.1912 70 29.4719 70Z" fill="currentColor" />
</svg>