<svg width="80" height="80" viewBox="0 0 80 80" fill="none" xmlns="http://www.w3.org/2000/svg">
  <path fill-rule="evenodd" clip-rule="evenodd" d="M0 49.3921C0 31.8293 26.4584 11.0011 36.7205 15.2815C40.687 16.936 39.8953 21.6765 39.4167 24.5423C39.2277 25.6737 39.0875 26.513 39.3083 26.7547C39.7169 27.2021 41.182 26.6813 43.1977 25.9648C47.3447 24.4907 53.8224 22.1881 58.2262 25.7839C61.0655 28.1022 59.8625 31.8943 59.1617 34.1032C58.9154 34.8794 58.7312 35.4601 58.8063 35.7126C58.9634 36.2411 59.9429 36.6443 61.2677 37.1896C63.7037 38.1924 67.3071 39.6757 69.113 43.3025C73.4855 52.0839 60.8141 69.9996 34.4896 69.9996C13.0016 69.9996 0 59.6738 0 49.3921ZM33.8138 65.2264C47.0943 63.9555 57.1787 55.9573 56.3378 47.3617C55.4969 38.7662 44.0492 32.8283 30.7687 34.0991C17.4882 35.37 7.40388 43.3682 8.24476 51.9638C9.08565 60.5593 20.5333 66.4972 33.8138 65.2264Z" fill="currentColor" />
  <path fill-rule="evenodd" clip-rule="evenodd" d="M42.8383 47.8039C44.4639 53.5488 40.2408 59.7397 33.4056 61.6315C26.5705 63.5233 19.7117 60.3998 18.0861 54.6549C16.4605 48.9099 20.6836 42.7191 27.5188 40.8273C34.3539 38.9355 41.2127 42.059 42.8383 47.8039ZM30.6804 51.5053C31.5842 53.4278 30.4694 55.8357 28.1906 56.8835C25.9118 57.9313 23.3319 57.2221 22.4282 55.2996C21.5245 53.3771 22.6392 50.9692 24.918 49.9214C27.1968 48.8737 29.7767 49.5828 30.6804 51.5053ZM33.6692 50.5054C34.5571 50.0972 34.9915 49.1589 34.6393 48.4098C34.2872 47.6607 33.2819 47.3844 32.394 47.7927C31.5061 48.2009 31.0717 49.1392 31.4238 49.8883C31.776 50.6374 32.7812 50.9137 33.6692 50.5054Z" fill="currentColor" />
  <path d="M54.5953 11.1933C55.8125 10.8954 57.088 10.7366 58.405 10.7366C67.1282 10.7366 74.1997 17.7304 74.1997 26.3577C74.1997 28.2632 73.856 30.0828 73.2292 31.7635C72.6749 33.2498 73.4437 34.899 74.9465 35.4472C76.4492 35.9954 78.1168 35.235 78.6711 33.7488C79.5315 31.4419 80 28.9507 80 26.3577C80 14.5622 70.3316 4.99998 58.405 4.99998C56.6146 4.99998 54.8713 5.21608 53.2018 5.62471C51.647 6.00529 50.6986 7.56037 51.0834 9.09808C51.4682 10.6358 53.0405 11.5739 54.5953 11.1933Z" fill="currentColor" />
  <path d="M57.158 21.2061C57.5553 21.1126 57.9723 21.0624 58.405 21.0624C61.362 21.0624 63.7591 23.4332 63.7591 26.3577C63.7591 26.996 63.6462 27.602 63.4415 28.161C62.8961 29.6505 63.6748 31.2952 65.1808 31.8346C66.6868 32.374 68.3498 31.6038 68.8952 30.1144C69.3259 28.9381 69.5594 27.6717 69.5594 26.3577C69.5594 20.265 64.5654 15.3258 58.405 15.3258C57.5166 15.3258 56.6489 15.4291 55.8148 15.6254C54.2567 15.9923 53.2942 17.5389 53.6651 19.08C54.036 20.621 55.5998 21.5729 57.158 21.2061Z" fill="currentColor" />
</svg>