<svg viewBox="0 0 80 80" fill="none">
  <path fill-rule="evenodd" clip-rule="evenodd" d="M75 40C75 59.33 59.33 75 40 75C20.67 75 5 59.33 5 40C5 20.67 20.67 5 40 5C59.33 5 75 20.67 75 40ZM10 30H11.5884L17.7832 51.875H16.1948L10 30ZM14.2886 30H15.877L22.0718 51.875H20.4834L14.2886 30ZM18.5773 30H23.3425L27.2341 43.742L31.5227 30H36.0497L40.3653 43.9844L44.0711 30H48.7569L42.8004 51.875H38.2734L33.7703 37.6562L29.5372 51.875H24.772L18.5773 30ZM51.4571 30L48.7569 40.1562V43.9062C48.7569 48.6524 52.6682 52.5 57.4931 52.5H58.7638C63.5887 52.5 67.5 48.6524 67.5 43.9062V30H62.7348V43.9062C62.7348 45.9773 61.028 47.6562 58.9226 47.6562H57.3342C55.2288 47.6562 53.5221 45.9773 53.5221 43.9062V30H51.4571Z" fill="currentColor" />
</svg>