<svg width="80" height="80" viewBox="0 0 80 80" fill="none" xmlns="http://www.w3.org/2000/svg">
  <path fill-rule="evenodd" clip-rule="evenodd" d="M40.0002 69.6155C56.3563 69.6155 69.6155 56.3563 69.6155 40.0002C69.6155 23.644 56.3563 10.3848 40.0002 10.3848C23.644 10.3848 10.3848 23.644 10.3848 40.0002C10.3848 46.3153 12.3614 52.1688 15.7297 56.9757L13.0771 66.9232L23.2 64.3925C27.9736 67.6866 33.7616 69.6155 40.0002 69.6155ZM28.1432 22.2247C29.3315 22.2144 30.4808 22.2045 31.2502 23.7499C31.9159 25.087 32.7346 27.3827 33.7009 30.125L33.7134 30.1606C33.9391 30.8003 34.2913 31.7989 33.8283 32.4608C33.3567 33.1351 32.3049 34.4921 31.5432 35.371C31.3481 35.5961 30.957 36.1113 31.4899 36.9509C31.6224 37.1597 31.7367 37.3735 31.8627 37.6092C32.3701 38.5584 33.0666 39.8612 35.8988 42.6067C38.7575 45.3778 42.3437 46.973 43.6664 47.5038C44.0259 47.7076 44.8896 47.9805 45.4689 47.4413C45.7354 47.1933 46.2372 46.5523 46.7846 45.853C47.4274 45.0319 48.1329 44.1306 48.5939 43.6913C48.6078 43.6787 48.6221 43.6656 48.6368 43.6521C48.9451 43.3695 49.4338 42.9215 50.3322 43.2812C51.1188 43.5961 54.137 45.0485 56.4167 46.1456C56.865 46.3613 57.2847 46.5633 57.6533 46.7402C58.0158 46.8551 58.5419 47.2781 58.5419 48.126C58.5419 50.0388 57.1877 55.7028 50.6057 55.82C44.0236 55.9372 36.0953 52.4949 30.0612 45.8404C23.8088 38.9452 21.9533 34.3358 21.9533 30.125C21.9533 24.9871 25.5471 22.2264 27.8518 22.2264C27.9491 22.2264 28.0463 22.2256 28.1432 22.2247Z" fill="currentColor" />
</svg>