<svg viewBox="0 0 80 80" fill="none">
  <path fill-rule="evenodd" clip-rule="evenodd" d="M62.7598 13.2126C59.5905 11.8998 56.0295 11.8998 52.8603 13.2126C51.5909 13.7384 50.4261 14.4575 49.4013 15.3343C48.3389 16.2434 48.8686 17.8605 50.1656 18.3829C50.2497 18.4167 50.3337 18.451 50.4175 18.4858C57.2088 21.2988 62.6044 26.6945 65.4175 33.4858C65.7445 34.2752 66.7451 34.5533 67.324 33.9248C68.344 32.8173 69.1725 31.5299 69.7598 30.1121C71.0725 26.9428 71.0725 23.3819 69.7598 20.2126C68.447 17.0433 65.929 14.5253 62.7598 13.2126ZM30.463 15.2247C31.5503 16.1305 31.0128 17.7713 29.6953 18.2878C29.5312 18.3522 29.3675 18.4182 29.2043 18.4858C22.413 21.2988 17.0173 26.6945 14.2043 33.4858C13.9277 34.1534 13.0748 34.3731 12.5901 33.8371C11.6068 32.7495 10.8064 31.4927 10.2346 30.1122C8.92181 26.943 8.92181 23.382 10.2346 20.2128C11.5473 17.0435 14.0653 14.5255 17.2346 13.2128C20.4038 11.9 23.9648 11.9 27.1341 13.2128C28.35 13.7164 29.4701 14.3975 30.463 15.2247Z" fill="#4F4F4F" />
  <path d="M62.3983 69.3295C63.1793 70.1105 64.4457 70.1105 65.2267 69.3295C66.0078 68.5484 66.0078 67.2821 65.2267 66.501L62.3983 69.3295ZM56.9946 58.2689C56.2135 57.4878 54.9472 57.4878 54.1661 58.2689C53.3851 59.0499 53.3851 60.3163 54.1661 61.0973L56.9946 58.2689ZM14.3983 66.502C13.6172 67.283 13.6172 68.5494 14.3983 69.3304C15.1794 70.1114 16.4457 70.1114 17.2267 69.3303L14.3983 66.502ZM25.4594 61.0974C26.2404 60.3163 26.2404 59.05 25.4593 58.269C24.6782 57.4879 23.4119 57.488 22.6309 58.269L25.4594 61.0974ZM65.2267 66.501L56.9946 58.2689L54.1661 61.0973L62.3983 69.3295L65.2267 66.501ZM17.2267 69.3303L25.4594 61.0974L22.6309 58.269L14.3983 66.502L17.2267 69.3303Z" fill="#4F4F4F" />
  <path d="M31.3272 23.609C36.7603 21.3585 42.8647 21.3585 48.2978 23.609C53.7308 25.8594 58.0473 30.1759 60.2978 35.609C62.5482 41.042 62.5482 47.1465 60.2978 52.5795C58.0473 58.0126 53.7308 62.3291 48.2978 64.5795C42.8647 66.83 36.7603 66.83 31.3272 64.5795C25.8942 62.3291 21.5777 58.0126 19.3272 52.5795C17.0768 47.1465 17.0768 41.042 19.3272 35.609C21.5777 30.1759 25.8942 25.8594 31.3272 23.609Z" fill="#F2F2F2" stroke="#BDBDBD" stroke-width="4" stroke-linecap="round" stroke-linejoin="round" />
  <path d="M29.8926 44.5L38.9835 44.5L40.8017 44.5L49.8926 44.5" stroke="#2F80ED" stroke-width="4" stroke-linecap="round" stroke-linejoin="round" />
  <path d="M39.8926 34.5L39.8926 43.5909L39.8926 45.4091L39.8926 54.5" stroke="#2F80ED" stroke-width="4" stroke-linecap="round" stroke-linejoin="round" />
</svg>