<svg viewBox="0 0 80 80" fill="none">
  <path fill-rule="evenodd" clip-rule="evenodd" d="M17.373 20.8056C14.7475 23.4311 13.2725 26.992 13.2725 30.7051C13.2725 34.4181 14.7475 37.9791 17.373 40.6046L31.5151 54.7467L38.5862 61.8178C39.3672 62.5988 40.6335 62.5988 41.4146 61.8178L48.4857 54.7467L62.6278 40.6046C65.2533 37.9791 66.7283 34.4181 66.7283 30.7051C66.7283 26.992 65.2533 23.4311 62.6278 20.8056C60.0023 18.1801 56.4413 16.7051 52.7283 16.7051C49.0153 16.7051 45.4543 18.1801 42.8288 20.8056L40.6914 22.943C40.3098 23.3246 39.691 23.3246 39.3094 22.943L37.172 20.8056C34.5464 18.1801 30.9855 16.7051 27.2725 16.7051C23.5594 16.7051 19.9985 18.1801 17.373 20.8056Z" fill="#EB5757" />
  <path fill-rule="evenodd" clip-rule="evenodd" d="M28.6865 30.4028C27.3737 31.7155 26.6362 33.496 26.6362 35.3525C26.6362 37.2091 27.3737 38.9895 28.6865 40.3023L40.0002 51.616C40.0002 51.616 40.0002 51.616 40.0002 51.616C40.0002 51.616 40.0002 51.616 40.0002 51.616C40.0002 51.616 40.0002 51.616 40.0003 51.616L51.3139 40.3023C52.6267 38.9895 53.3642 37.2091 53.3642 35.3525C53.3642 33.496 52.6267 31.7155 51.314 30.4028C50.0012 29.09 48.2207 28.3525 46.3642 28.3525C44.5077 28.3525 42.7272 29.09 41.4145 30.4028L40.3458 31.4715L40.0002 31.817C40.0002 31.817 40.0002 31.817 40.0002 31.817C40.0002 31.817 40.0002 31.817 40.0002 31.817L39.6547 31.4715L38.586 30.4028C37.2732 29.09 35.4927 28.3525 33.6362 28.3525C31.7797 28.3525 29.9992 29.09 28.6865 30.4028Z" fill="#F2F2F2" />
</svg>