<svg viewBox="0 0 80 80" fill="none">
  <path fill-rule="evenodd" clip-rule="evenodd" d="M40.0002 8C45.565 10.6738 50.3083 14.9857 53.5002 20.5141C59.0694 30.1603 59.0694 42.0449 53.5002 51.6911C50.3083 57.2195 45.565 61.5314 40.0002 64.2052C34.4353 61.5314 29.692 57.2195 26.5002 51.6911C20.9309 42.0449 20.9309 30.1603 26.5002 20.5142C29.692 14.9857 34.4353 10.6738 40.0002 8Z" fill="#219653" />
  <path d="M40.0002 8L40.8663 6.1973C40.3189 5.93424 39.6815 5.93424 39.134 6.19729L40.0002 8ZM53.5002 20.5141L51.7681 21.5141L53.5002 20.5141ZM53.5002 51.6911L55.2322 52.6911L53.5002 51.6911ZM40.0002 64.2052L39.134 66.0079C39.6815 66.271 40.3188 66.271 40.8663 66.0079L40.0002 64.2052ZM26.5002 51.6911L28.2322 50.6911L26.5002 51.6911ZM26.5002 20.5142L28.2322 21.5142L26.5002 20.5142ZM39.134 9.8027C44.3424 12.3053 48.7811 16.3404 51.7681 21.5141L55.2322 19.5141C51.8355 13.6309 46.7876 9.04235 40.8663 6.1973L39.134 9.8027ZM51.7681 21.5141C56.9801 30.5415 56.9801 41.6637 51.7681 50.6911L55.2322 52.6911C61.1587 42.4261 61.1587 29.7791 55.2322 19.5141L51.7681 21.5141ZM51.7681 50.6911C48.7811 55.8648 44.3424 59.8999 39.134 62.4025L40.8663 66.0079C46.7876 63.1629 51.8355 58.5743 55.2322 52.6911L51.7681 50.6911ZM40.8663 62.4025C35.6579 59.8999 31.2193 55.8648 28.2322 50.6911L24.7681 52.6911C28.1648 58.5743 33.2128 63.1629 39.134 66.0079L40.8663 62.4025ZM28.2322 50.6911C23.0203 41.6637 23.0203 30.5415 28.2322 21.5142L24.7681 19.5142C18.8416 29.7791 18.8416 42.4261 24.7681 52.6911L28.2322 50.6911ZM28.2322 21.5142C31.2193 16.3404 35.6579 12.3053 40.8663 9.80271L39.134 6.19729C33.2128 9.04235 28.1648 13.6309 24.7681 19.5142L28.2322 21.5142Z" fill="#219653" />
  <path d="M40 72V26" stroke="#F2994A" stroke-width="4" stroke-linecap="round" stroke-linejoin="round" />
</svg>