<svg viewBox="0 0 80 80" fill="none">
  <path fill-rule="evenodd" clip-rule="evenodd" d="M35.6667 32C31.9848 32 29 34.9848 29 38.6667L29 48.6667C29 50.5076 30.4924 52 32.3333 52H35L35 66C35 67.1046 35.8954 68 37 68H43C44.1046 68 45 67.1046 45 66L45 52H47.6667C49.5076 52 51 50.5076 51 48.6667V38.6667C51 34.9848 48.0152 32 44.3333 32H35.6667Z" fill="#F2C94C" />
  <path d="M35 52H37C37 50.8954 36.1046 50 35 50V52ZM45 52V50C43.8954 50 43 50.8954 43 52H45ZM31 38.6667C31 36.0893 33.0893 34 35.6667 34V30C30.8802 30 27 33.8802 27 38.6667H31ZM31 48.6667L31 38.6667H27L27 48.6667H31ZM32.3333 50C31.597 50 31 49.403 31 48.6667H27C27 51.6122 29.3878 54 32.3333 54V50ZM35 50H32.3333V54H35V50ZM37 66L37 52H33L33 66H37ZM37 66H33C33 68.2091 34.7909 70 37 70V66ZM43 66H37V70H43V66ZM43 66V70C45.2091 70 47 68.2091 47 66H43ZM43 52L43 66H47L47 52H43ZM47.6667 50H45V54H47.6667V50ZM49 48.6667C49 49.403 48.403 50 47.6667 50V54C50.6122 54 53 51.6122 53 48.6667H49ZM49 38.6667V48.6667H53V38.6667H49ZM44.3333 34C46.9107 34 49 36.0893 49 38.6667H53C53 33.8802 49.1198 30 44.3333 30V34ZM35.6667 34H44.3333V30L35.6667 30V34Z" fill="#F2C94C" />
  <path d="M36.8727 26.494C38.8489 27.4457 41.1511 27.4457 43.1273 26.494C45.1036 25.5422 46.5389 23.7424 47.027 21.6039C47.5151 19.4654 47.0029 17.221 45.6352 15.506C44.2676 13.7911 42.1935 12.7922 40 12.7922C37.8065 12.7922 35.7324 13.7911 34.3648 15.506C32.9971 17.221 32.4849 19.4654 32.973 21.6039C33.4611 23.7424 34.8964 25.5422 36.8727 26.494Z" fill="#F2994A" stroke="#F2994A" stroke-width="4" stroke-linecap="round" stroke-linejoin="round" />
</svg>