<svg viewBox="0 0 80 80" fill="none">
  <path d="M48.5 24.1855C49.6046 24.1855 50.5 23.2901 50.5 22.1855C50.5 21.081 49.6046 20.1855 48.5 20.1855V24.1855ZM13.8358 51.8899C14.4599 52.8013 15.7047 53.0342 16.616 52.4101C17.5274 51.786 17.7603 50.5413 17.1362 49.6299L13.8358 51.8899ZM17.5 27.1855L18.9142 28.5998L17.5 27.1855ZM29.5711 24.1855H48.5V20.1855H29.5711V24.1855ZM14.5 41.1145V39.2566H10.5V41.1145H14.5ZM10.5 41.1145C10.5 44.9876 11.6781 48.7391 13.8358 51.8899L17.1362 49.6299C15.4309 47.1398 14.5 44.1751 14.5 41.1145H10.5ZM29.5711 20.1855C24.5131 20.1855 19.6623 22.1948 16.0858 25.7713L18.9142 28.5998C21.7406 25.7734 25.574 24.1855 29.5711 24.1855V20.1855ZM16.0858 25.7713C12.5093 29.3479 10.5 34.1987 10.5 39.2566H14.5C14.5 35.2595 16.0878 31.4261 18.9142 28.5998L16.0858 25.7713Z" fill="#56CCF2" />
  <path d="M48.5 29.9429L48.5 14.4282C48.5 12.8625 50.3929 12.0785 51.5 13.1855L58.909 20.5946C59.7877 21.4732 59.7877 22.8979 58.909 23.7765L51.5 31.1855C50.3929 32.2926 48.5 31.5085 48.5 29.9429Z" fill="#2F80ED" stroke="#2F80ED" stroke-width="4" stroke-linecap="round" stroke-linejoin="round" />
  <path d="M31.5 56.1855C30.3954 56.1855 29.5 57.081 29.5 58.1855C29.5 59.2901 30.3954 60.1855 31.5 60.1855V56.1855ZM66.1642 28.4811C65.5401 27.5698 64.2953 27.3369 63.384 27.961C62.4726 28.5851 62.2397 29.8298 62.8638 30.7412L66.1642 28.4811ZM62.5 53.1855L61.0858 51.7713L62.5 53.1855ZM50.4289 56.1855H31.5V60.1855H50.4289V56.1855ZM65.5 39.2566V41.1145H69.5V39.2566H65.5ZM69.5 39.2566C69.5 35.3835 68.3219 31.632 66.1642 28.4811L62.8638 30.7412C64.5691 33.2313 65.5 36.196 65.5 39.2566H69.5ZM50.4289 60.1855C55.4869 60.1855 60.3377 58.1763 63.9142 54.5998L61.0858 51.7713C58.2594 54.5977 54.426 56.1855 50.4289 56.1855V60.1855ZM63.9142 54.5998C67.4907 51.0232 69.5 46.1724 69.5 41.1145H65.5C65.5 45.1116 63.9122 48.945 61.0858 51.7713L63.9142 54.5998Z" fill="#56CCF2" />
  <path d="M31.5 50.4282L31.5 65.9429C31.5 67.5085 29.6071 68.2926 28.5 67.1855L21.091 59.7765C20.2123 58.8979 20.2123 57.4732 21.091 56.5946L28.5 49.1855C29.6071 48.0785 31.5 48.8625 31.5 50.4282Z" fill="#2F80ED" stroke="#2F80ED" stroke-width="4" stroke-linecap="round" stroke-linejoin="round" />
  <path d="M34.9854 33.9701C34.2045 34.7513 34.2048 36.0176 34.986 36.7985C35.7673 37.5794 37.0336 37.5791 37.8144 36.7978L34.9854 33.9701ZM39.5115 32.2709L38.097 30.857L38.097 30.857L39.5115 32.2709ZM37.5984 48.184C37.5984 49.2885 38.4938 50.184 39.5984 50.184C40.703 50.184 41.5984 49.2885 41.5984 48.184H37.5984ZM37.8144 36.7978L40.9261 33.6848L38.097 30.857L34.9854 33.9701L37.8144 36.7978ZM37.5984 32.3068V48.184H41.5984V32.3068H37.5984ZM40.9261 33.6848C39.6983 34.9131 37.5984 34.0435 37.5984 32.3068H41.5984C41.5984 30.4795 39.3888 29.5645 38.097 30.857L40.9261 33.6848Z" fill="#2F80ED" />
</svg>