<svg viewBox="0 0 80 80" fill="none">
  <path fill-rule="evenodd" clip-rule="evenodd" d="M12 40.0004C12 32.5744 14.9503 25.4521 20.2013 20.2011C25.4522 14.9502 32.5741 12 40 12C47.4259 12 54.5478 14.9502 59.7987 20.2011C65.0497 25.4521 68 32.5744 68 40.0004C68 47.4264 65.0501 54.5482 59.7992 59.7991C54.5482 65.0501 47.4259 68 40 68C32.5741 68 25.4518 65.0501 20.2008 59.7991C14.9499 54.5482 12 47.4264 12 40.0004Z" fill="#F2F2F2" />
  <path d="M21.6151 58.3849C16.7392 53.5091 14 46.8959 14 40.0004H10C10 47.9568 13.1606 55.5874 18.7866 61.2134L21.6151 58.3849ZM40 66C33.1045 66 26.4909 63.2607 21.6151 58.3849L18.7866 61.2134C24.4127 66.8394 32.0437 70 40 70V66ZM58.3849 58.3849C53.5091 63.2607 46.8955 66 40 66V70C47.9563 70 55.5873 66.8394 61.2134 61.2134L58.3849 58.3849ZM66 40.0004C66 46.8959 63.2608 53.5091 58.3849 58.3849L61.2134 61.2134C66.8394 55.5874 70 47.9568 70 40.0004H66ZM58.3845 21.6153C63.2605 26.4912 66 33.1048 66 40.0004H70C70 32.0439 66.839 24.4129 61.2129 18.7868L58.3845 21.6153ZM40 14C46.8954 14 53.5087 16.7395 58.3845 21.6153L61.2129 18.7868C55.587 13.1609 47.9563 10 40 10V14ZM21.6155 21.6153C26.4913 16.7395 33.1046 14 40 14V10C32.0437 10 24.413 13.1609 18.7871 18.7868L21.6155 21.6153ZM18.7871 18.7868C13.161 24.4129 10 32.0439 10 40.0004H14C14 33.1048 16.7395 26.4912 21.6155 21.6153L18.7871 18.7868Z" fill="#828282" />
  <path fill-rule="evenodd" clip-rule="evenodd" d="M38 67.9285V12.0715C38.6634 12.024 39.3305 12 40 12C40.6695 12 41.3366 12.024 42 12.0715V67.9285C41.3366 67.976 40.6695 68 40 68C39.3305 68 38.6634 67.976 38 67.9285Z" fill="#828282" />
</svg>