<svg viewBox="0 0 1024 768" fill="none" xmlns="http://www.w3.org/2000/svg">
<path d="M424 36L435.455 72.2144L470.91 58.5906L449.738 90.1254L482.496 109.351L444.64 112.46L450.033 150.058L424 122.4L397.967 150.058L403.36 112.46L365.504 109.351L398.262 90.1254L377.09 58.5906L412.545 72.2144L424 36Z" stroke="#7B61FF" stroke-width="2" stroke-linecap="round" stroke-linejoin="round"/>
<path d="M578.787 147.213C592.37 152.839 607.631 152.839 621.213 147.213V147.213C634.796 141.587 645.587 130.796 651.213 117.213V117.213C656.839 103.631 656.839 88.3694 651.213 74.7868V74.7868C645.587 61.2042 634.796 50.4129 621.213 44.7868V44.7868C607.631 39.1607 592.37 39.1607 578.787 44.7868V44.7868C565.204 50.4129 554.413 61.2042 548.787 74.7868V74.7868C543.161 88.3694 543.161 103.631 548.787 117.213V117.213C554.413 130.796 565.204 141.587 578.787 147.213V147.213Z" stroke="#7B61FF" stroke-width="2" stroke-linecap="round" stroke-linejoin="round"/>
<path fill-rule="evenodd" clip-rule="evenodd" d="M415.364 278.321L450.436 291.798C456.422 287.801 462.825 284.369 469.573 281.574C472.445 280.384 475.356 279.32 478.296 278.381L489.627 242.557C504.448 240.213 519.55 240.213 534.371 242.557L545.702 278.381C548.642 279.32 551.553 280.384 554.425 281.574C561.173 284.369 567.576 287.801 573.562 291.798L608.635 278.32C619.662 288.404 629.093 300.196 636.533 313.302L615.589 344.498C619.309 354.253 621.602 364.402 622.469 374.644L654.875 393.664C653.871 408.507 650.553 423.232 644.918 437.285L607.47 440.361C602.185 449.314 595.686 457.445 588.191 464.536L593.526 501.73C585.223 507.479 576.275 512.377 566.801 516.301C562.336 518.15 557.8 519.765 553.213 521.143L527.46 493.783C517.204 495.227 506.794 495.227 496.538 493.783L470.786 521.143C466.199 519.764 461.664 518.15 457.199 516.301C447.724 512.376 438.775 507.479 430.473 501.729L435.807 464.536C428.312 457.445 421.813 449.314 416.528 440.361L379.082 437.285C373.447 423.232 370.128 408.507 369.125 393.662L401.529 374.644C402.396 364.402 404.689 354.253 408.409 344.498L387.466 313.303C394.906 300.197 404.337 288.405 415.364 278.321ZM534.98 439.481C549.694 433.386 561.385 421.696 567.48 406.981C573.575 392.267 573.575 375.734 567.48 361.019C561.385 346.305 549.694 334.614 534.98 328.519C520.266 322.424 503.733 322.424 489.018 328.519C474.304 334.614 462.613 346.305 456.518 361.019C450.423 375.734 450.423 392.267 456.518 406.981C462.613 421.696 474.304 433.386 489.018 439.481C503.733 445.576 520.266 445.576 534.98 439.481Z" fill="#888888" fill-opacity="0.5"/>
<path d="M415.364 278.321L417.157 273.654C415.389 272.974 413.388 273.352 411.99 274.631L415.364 278.321ZM450.436 291.798L448.643 296.465C450.159 297.047 451.863 296.857 453.213 295.956L450.436 291.798ZM469.573 281.574L467.659 276.954L469.573 281.574ZM478.296 278.381L479.816 283.145C481.363 282.651 482.573 281.437 483.063 279.889L478.296 278.381ZM489.627 242.557L488.846 237.618C486.975 237.914 485.431 239.243 484.86 241.049L489.627 242.557ZM534.371 242.557L539.138 241.049C538.567 239.242 537.023 237.914 535.152 237.618L534.371 242.557ZM545.702 278.381L540.935 279.889C541.425 281.437 542.635 282.651 544.182 283.145L545.702 278.381ZM554.425 281.574L556.339 276.954L554.425 281.574ZM573.562 291.798L570.785 295.956C572.135 296.857 573.839 297.047 575.355 296.465L573.562 291.798ZM608.635 278.32L612.01 274.631C610.611 273.352 608.611 272.974 606.842 273.653L608.635 278.32ZM636.533 313.302L640.684 316.089C641.741 314.516 641.817 312.481 640.881 310.833L636.533 313.302ZM615.589 344.498L611.437 341.711C610.532 343.059 610.338 344.763 610.917 346.28L615.589 344.498ZM622.469 374.644L617.487 375.066C617.624 376.684 618.538 378.135 619.938 378.956L622.469 374.644ZM654.875 393.664L659.864 394.001C659.991 392.111 659.04 390.31 657.406 389.351L654.875 393.664ZM644.918 437.285L645.328 442.269C647.216 442.113 648.854 440.904 649.559 439.146L644.918 437.285ZM607.47 440.361L607.061 435.378C605.443 435.51 603.99 436.421 603.165 437.819L607.47 440.361ZM588.191 464.536L584.755 460.904C583.575 462.02 583.011 463.639 583.241 465.246L588.191 464.536ZM593.526 501.73L596.372 505.841C597.93 504.762 598.744 502.896 598.475 501.02L593.526 501.73ZM566.801 516.301L564.887 511.682L566.801 516.301ZM553.213 521.143L549.572 524.57C550.87 525.95 552.837 526.477 554.652 525.932L553.213 521.143ZM527.46 493.783L531.101 490.356C529.988 489.174 528.37 488.605 526.763 488.832L527.46 493.783ZM496.538 493.783L497.235 488.832C495.628 488.605 494.01 489.174 492.897 490.356L496.538 493.783ZM470.786 521.143L469.346 525.931C471.161 526.477 473.128 525.95 474.427 524.57L470.786 521.143ZM457.199 516.301L459.113 511.682H459.113L457.199 516.301ZM430.473 501.729L425.523 501.019C425.254 502.894 426.068 504.761 427.626 505.839L430.473 501.729ZM435.807 464.536L440.757 465.246C440.987 463.639 440.423 462.02 439.243 460.904L435.807 464.536ZM416.528 440.361L420.834 437.819C420.008 436.421 418.555 435.51 416.937 435.378L416.528 440.361ZM379.082 437.285L374.441 439.146C375.146 440.905 376.784 442.114 378.672 442.269L379.082 437.285ZM369.125 393.662L366.594 389.35C364.96 390.309 364.008 392.109 364.136 394L369.125 393.662ZM401.529 374.644L404.06 378.956C405.46 378.135 406.374 376.684 406.511 375.066L401.529 374.644ZM408.409 344.498L413.081 346.28C413.66 344.763 413.466 343.059 412.561 341.711L408.409 344.498ZM387.466 313.303L383.118 310.835C382.182 312.483 382.259 314.518 383.315 316.09L387.466 313.303ZM567.48 406.981L562.861 405.068L567.48 406.981ZM534.98 439.481L533.067 434.862L534.98 439.481ZM567.48 361.019L562.861 362.933V362.933L567.48 361.019ZM534.98 328.519L533.067 333.139L534.98 328.519ZM489.018 328.519L490.931 333.139L489.018 328.519ZM456.518 361.019L461.137 362.933V362.933L456.518 361.019ZM456.518 406.981L461.137 405.068L456.518 406.981ZM489.018 439.481L490.931 434.862L489.018 439.481ZM413.57 282.988L448.643 296.465L452.23 287.13L417.157 273.654L413.57 282.988ZM453.213 295.956C458.929 292.139 465.043 288.862 471.486 286.193L467.659 276.954C460.608 279.875 453.916 283.462 447.66 287.639L453.213 295.956ZM471.486 286.193C474.229 285.057 477.009 284.041 479.816 283.145L476.776 273.618C473.703 274.599 470.661 275.711 467.659 276.954L471.486 286.193ZM483.063 279.889L494.394 244.065L484.86 241.049L473.529 276.874L483.063 279.889ZM490.408 247.495C504.712 245.233 519.286 245.233 533.59 247.495L535.152 237.618C519.813 235.192 504.184 235.192 488.846 237.618L490.408 247.495ZM529.604 244.064L540.935 279.889L550.469 276.874L539.138 241.049L529.604 244.064ZM544.182 283.145C546.989 284.041 549.769 285.057 552.512 286.193L556.339 276.954C553.337 275.711 550.295 274.599 547.222 273.618L544.182 283.145ZM552.512 286.193C558.955 288.862 565.069 292.139 570.785 295.956L576.338 287.639C570.082 283.462 563.39 279.875 556.339 276.954L552.512 286.193ZM575.355 296.465L610.429 282.988L606.842 273.653L571.768 287.13L575.355 296.465ZM605.261 282.01C615.903 291.742 625.005 303.122 632.185 315.77L640.881 310.833C633.182 297.27 623.421 285.066 612.01 274.631L605.261 282.01ZM632.382 310.515L611.437 341.711L619.74 347.285L640.684 316.089L632.382 310.515ZM610.917 346.28C614.469 355.595 616.659 365.286 617.487 375.066L627.451 374.222C626.545 363.519 624.148 352.911 620.26 342.717L610.917 346.28ZM619.938 378.956L652.344 397.976L657.406 389.351L625 370.332L619.938 378.956ZM649.886 393.326C648.918 407.652 645.715 421.862 640.278 435.425L649.559 439.146C655.39 424.602 658.825 409.363 659.864 394.001L649.886 393.326ZM644.509 432.302L607.061 435.378L607.879 445.344L645.328 442.269L644.509 432.302ZM603.165 437.819C598.118 446.368 591.912 454.132 584.755 460.904L591.627 468.168C599.46 460.757 606.252 452.26 611.776 442.903L603.165 437.819ZM583.241 465.246L588.576 502.44L598.475 501.02L593.14 463.826L583.241 465.246ZM590.679 497.62C582.667 503.168 574.031 507.894 564.887 511.682L568.714 520.92C578.519 516.859 587.78 511.791 596.372 505.841L590.679 497.62ZM564.887 511.682C560.578 513.467 556.201 515.024 551.774 516.355L554.652 525.932C559.4 524.505 564.093 522.834 568.714 520.92L564.887 511.682ZM556.854 517.716L531.101 490.356L523.819 497.21L549.572 524.57L556.854 517.716ZM526.763 488.832C516.969 490.21 507.029 490.21 497.235 488.832L495.841 498.734C506.559 500.243 517.439 500.243 528.157 498.734L526.763 488.832ZM492.897 490.356L467.145 517.716L474.427 524.57L500.179 497.21L492.897 490.356ZM472.225 516.355C467.798 515.024 463.422 513.466 459.113 511.682L455.286 520.92C459.906 522.834 464.599 524.504 469.346 525.931L472.225 516.355ZM459.113 511.682C449.968 507.894 441.332 503.167 433.319 497.618L427.626 505.839C436.219 511.79 445.48 516.859 455.286 520.92L459.113 511.682ZM435.422 502.439L440.757 465.246L430.858 463.826L425.523 501.019L435.422 502.439ZM439.243 460.904C432.086 454.132 425.88 446.368 420.834 437.819L412.222 442.903C417.746 452.26 424.538 460.757 432.371 468.168L439.243 460.904ZM416.937 435.378L379.491 432.302L378.672 442.269L416.119 445.344L416.937 435.378ZM383.723 435.425C378.285 421.862 375.082 407.651 374.113 393.325L364.136 394C365.175 409.362 368.61 424.602 374.441 439.146L383.723 435.425ZM371.656 397.975L404.06 378.956L398.998 370.332L366.594 389.35L371.656 397.975ZM406.511 375.066C407.339 365.286 409.529 355.595 413.081 346.28L403.738 342.717C399.85 352.911 397.453 363.519 396.547 374.222L406.511 375.066ZM412.561 341.711L391.617 310.516L383.315 316.09L404.258 347.285L412.561 341.711ZM391.814 315.772C398.994 303.124 408.096 291.743 418.738 282.011L411.99 274.631C400.578 285.067 390.817 297.271 383.118 310.835L391.814 315.772ZM562.861 405.068C557.273 418.557 546.556 429.274 533.067 434.862L536.893 444.101C552.833 437.498 565.497 424.834 572.099 408.895L562.861 405.068ZM562.861 362.933C568.448 376.422 568.448 391.578 562.861 405.068L572.099 408.895C578.702 392.955 578.702 375.045 572.099 359.106L562.861 362.933ZM533.067 333.139C546.556 338.726 557.273 349.443 562.861 362.933L572.099 359.106C565.497 343.166 552.833 330.502 536.893 323.9L533.067 333.139ZM490.931 333.139C504.421 327.551 519.577 327.551 533.067 333.139L536.893 323.9C520.954 317.297 503.044 317.297 487.105 323.9L490.931 333.139ZM461.137 362.933C466.725 349.443 477.442 338.726 490.931 333.139L487.105 323.9C471.165 330.502 458.501 343.166 451.899 359.106L461.137 362.933ZM461.137 405.068C455.55 391.578 455.55 376.422 461.137 362.933L451.899 359.106C445.296 375.045 445.296 392.955 451.899 408.895L461.137 405.068ZM490.931 434.862C477.442 429.274 466.725 418.557 461.137 405.068L451.899 408.895C458.501 424.834 471.165 437.498 487.105 444.101L490.931 434.862ZM533.067 434.862C519.577 440.449 504.421 440.449 490.931 434.862L487.105 444.101C503.044 450.703 520.954 450.703 536.893 444.101L533.067 434.862Z" fill="currentColor"/>
<path d="M501.393 409.607C508.185 412.42 515.815 412.42 522.607 409.607C529.398 406.794 534.794 401.398 537.607 394.607C540.42 387.815 540.42 380.185 537.607 373.393C534.794 366.602 529.398 361.206 522.607 358.393C515.815 355.58 508.185 355.58 501.393 358.393C494.602 361.206 489.206 366.602 486.393 373.393C483.58 380.185 483.58 387.815 486.393 394.607C489.206 401.398 494.602 406.794 501.393 409.607Z" fill="#888888" fill-opacity="0.5" stroke="currentColor" stroke-width="10" stroke-linecap="round" stroke-linejoin="round"/>
<path d="M121.346 629.728L121.704 628.795C121.351 628.659 120.95 628.735 120.671 628.99L121.346 629.728ZM135.375 635.119L135.016 636.053C135.319 636.169 135.66 636.131 135.93 635.951L135.375 635.119ZM143.029 631.03L142.647 630.106L143.029 631.03ZM146.519 629.753L146.823 630.705C147.132 630.607 147.374 630.364 147.472 630.054L146.519 629.753ZM151.051 615.423L150.895 614.435C150.521 614.494 150.212 614.76 150.098 615.121L151.051 615.423ZM168.949 615.423L169.902 615.121C169.788 614.76 169.479 614.494 169.105 614.435L168.949 615.423ZM173.481 629.753L172.528 630.054C172.626 630.364 172.868 630.607 173.177 630.705L173.481 629.753ZM176.97 631.03L176.588 631.954L176.97 631.03ZM184.625 635.119L184.07 635.951C184.34 636.131 184.68 636.169 184.984 636.053L184.625 635.119ZM198.654 629.728L199.329 628.991C199.049 628.735 198.649 628.659 198.296 628.795L198.654 629.728ZM209.813 643.721L210.644 644.279C210.855 643.964 210.87 643.557 210.683 643.228L209.813 643.721ZM201.436 656.2L200.605 655.642C200.424 655.912 200.386 656.253 200.501 656.556L201.436 656.2ZM204.188 668.258L203.191 668.342C203.219 668.666 203.402 668.956 203.682 669.12L204.188 668.258ZM217.15 675.865L218.148 675.933C218.173 675.555 217.983 675.195 217.656 675.003L217.15 675.865ZM213.167 693.314L213.249 694.311C213.627 694.28 213.954 694.038 214.095 693.686L213.167 693.314ZM198.188 694.544L198.106 693.548C197.783 693.574 197.492 693.757 197.327 694.036L198.188 694.544ZM190.477 704.214L189.789 703.488C189.554 703.711 189.441 704.035 189.487 704.356L190.477 704.214ZM192.611 719.092L193.18 719.914C193.491 719.698 193.654 719.325 193.6 718.95L192.611 719.092ZM181.92 724.921L181.537 723.997L181.92 724.921ZM176.485 726.857L175.757 727.543C176.017 727.819 176.41 727.924 176.773 727.815L176.485 726.857ZM166.184 715.913L166.912 715.228C166.69 714.991 166.366 714.878 166.045 714.923L166.184 715.913ZM153.816 715.913L153.955 714.923C153.634 714.878 153.31 714.991 153.087 715.228L153.816 715.913ZM143.515 726.857L143.227 727.815C143.59 727.924 143.983 727.819 144.243 727.543L143.515 726.857ZM138.08 724.921L137.697 725.844L138.08 724.921ZM127.389 719.092L126.399 718.95C126.346 719.325 126.509 719.698 126.82 719.914L127.389 719.092ZM129.523 704.215L130.513 704.357C130.559 704.035 130.446 703.711 130.21 703.488L129.523 704.215ZM121.811 694.544L122.672 694.036C122.507 693.756 122.217 693.574 121.893 693.548L121.811 694.544ZM106.832 693.314L105.904 693.686C106.045 694.038 106.373 694.28 106.751 694.311L106.832 693.314ZM102.85 675.865L102.344 675.003C102.017 675.195 101.827 675.555 101.852 675.933L102.85 675.865ZM115.812 668.258L116.318 669.12C116.598 668.956 116.781 668.666 116.808 668.342L115.812 668.258ZM118.564 656.199L119.498 656.556C119.614 656.252 119.575 655.912 119.394 655.642L118.564 656.199ZM110.186 643.721L109.317 643.228C109.13 643.557 109.145 643.964 109.356 644.279L110.186 643.721ZM150.808 694.193L151.19 693.269L150.808 694.193ZM182.192 681.193L183.116 681.575L182.192 681.193ZM182.192 662.808L181.269 663.191L182.192 662.808ZM137.808 662.808L138.732 663.191L137.808 662.808ZM137.808 681.193L136.884 681.575L137.808 681.193ZM120.987 630.662L135.016 636.053L135.734 634.186L121.704 628.795L120.987 630.662ZM135.93 635.951C138.27 634.388 140.774 633.046 143.412 631.954L142.647 630.106C139.887 631.249 137.268 632.653 134.82 634.288L135.93 635.951ZM143.412 631.954C144.535 631.488 145.673 631.072 146.823 630.705L146.215 628.8C145.012 629.184 143.822 629.619 142.647 630.106L143.412 631.954ZM147.472 630.054L152.005 615.724L150.098 615.121L145.565 629.451L147.472 630.054ZM151.207 616.411C157.032 615.489 162.968 615.489 168.793 616.411L169.105 614.435C163.073 613.481 156.927 613.481 150.895 614.435L151.207 616.411ZM167.995 615.724L172.528 630.054L174.435 629.451L169.902 615.121L167.995 615.724ZM173.177 630.705C174.327 631.072 175.465 631.488 176.588 631.954L177.353 630.106C176.178 629.619 174.988 629.184 173.785 628.8L173.177 630.705ZM176.588 631.954C179.226 633.046 181.729 634.388 184.07 635.951L185.18 634.288C182.732 632.653 180.113 631.249 177.353 630.106L176.588 631.954ZM184.984 636.053L199.013 630.662L198.296 628.795L184.266 634.186L184.984 636.053ZM197.979 630.466C202.313 634.43 206.02 639.064 208.944 644.215L210.683 643.228C207.655 637.894 203.817 633.094 199.329 628.991L197.979 630.466ZM208.983 643.164L200.605 655.642L202.266 656.757L210.644 644.279L208.983 643.164ZM200.501 656.556C201.956 660.37 202.852 664.338 203.191 668.342L205.184 668.173C204.83 663.984 203.892 659.833 202.37 655.843L200.501 656.556ZM203.682 669.12L216.644 676.728L217.656 675.003L204.694 667.395L203.682 669.12ZM216.152 675.798C215.758 681.632 214.453 687.419 212.239 692.942L214.095 693.686C216.388 687.967 217.739 681.974 218.148 675.933L216.152 675.798ZM213.085 692.318L198.106 693.548L198.27 695.541L213.249 694.311L213.085 692.318ZM197.327 694.036C195.261 697.537 192.72 700.715 189.789 703.488L191.164 704.941C194.23 702.04 196.888 698.715 199.049 695.053L197.327 694.036ZM189.487 704.356L191.621 719.234L193.6 718.95L191.467 704.072L189.487 704.356ZM192.041 718.27C188.778 720.53 185.261 722.454 181.537 723.997L182.303 725.844C186.159 724.247 189.801 722.254 193.18 719.914L192.041 718.27ZM181.537 723.997C179.783 724.724 178 725.358 176.198 725.9L176.773 727.815C178.64 727.254 180.486 726.597 182.303 725.844L181.537 723.997ZM177.214 726.172L166.912 715.228L165.456 716.599L175.757 727.543L177.214 726.172ZM166.045 714.923C162.035 715.488 157.965 715.488 153.955 714.923L153.676 716.904C157.871 717.494 162.129 717.494 166.324 716.904L166.045 714.923ZM153.087 715.228L142.786 726.172L144.243 727.543L154.544 716.599L153.087 715.228ZM143.802 725.9C141.999 725.358 140.217 724.724 138.462 723.997L137.697 725.844C139.514 726.597 141.36 727.254 143.227 727.815L143.802 725.9ZM138.462 723.997C134.739 722.454 131.222 720.53 127.959 718.27L126.82 719.914C130.199 722.254 133.841 724.247 137.697 725.844L138.462 723.997ZM128.379 719.234L130.513 704.357L128.533 704.073L126.399 718.95L128.379 719.234ZM130.21 703.488C127.28 700.716 124.739 697.537 122.672 694.036L120.95 695.053C123.112 698.715 125.77 702.041 128.836 704.941L130.21 703.488ZM121.893 693.548L106.914 692.318L106.751 694.311L121.729 695.541L121.893 693.548ZM107.761 692.942C105.546 687.419 104.242 681.632 103.848 675.798L101.852 675.933C102.261 681.974 103.611 687.967 105.904 693.686L107.761 692.942ZM103.356 676.728L116.318 669.12L115.306 667.395L102.344 675.003L103.356 676.728ZM116.808 668.342C117.147 664.338 118.044 660.37 119.498 656.556L117.63 655.843C116.108 659.833 115.17 663.984 114.815 668.174L116.808 668.342ZM119.394 655.642L111.017 643.164L109.356 644.279L117.734 656.757L119.394 655.642ZM111.056 644.215C113.98 639.064 117.687 634.429 122.02 630.466L120.671 628.99C116.183 633.094 112.345 637.894 109.317 643.228L111.056 644.215ZM168.81 693.269C163.169 695.605 156.831 695.605 151.19 693.269L150.425 695.117C156.556 697.656 163.444 697.656 169.575 695.117L168.81 693.269ZM181.269 680.81C178.932 686.451 174.451 690.932 168.81 693.269L169.575 695.117C175.706 692.577 180.577 687.706 183.116 681.575L181.269 680.81ZM181.269 663.191C183.605 668.831 183.605 675.169 181.269 680.81L183.116 681.575C185.656 675.445 185.656 668.556 183.116 662.425L181.269 663.191ZM168.81 650.732C174.451 653.068 178.932 657.55 181.269 663.191L183.116 662.425C180.577 656.294 175.706 651.423 169.575 648.884L168.81 650.732ZM151.19 650.732C156.831 648.395 163.169 648.395 168.81 650.732L169.575 648.884C163.444 646.345 156.556 646.345 150.425 648.884L151.19 650.732ZM138.732 663.191C141.068 657.55 145.55 653.068 151.19 650.732L150.425 648.884C144.294 651.423 139.423 656.294 136.884 662.425L138.732 663.191ZM138.732 680.81C136.395 675.169 136.395 668.831 138.732 663.191L136.884 662.425C134.344 668.556 134.344 675.445 136.884 681.575L138.732 680.81ZM151.19 693.269C145.55 690.932 141.068 686.451 138.732 680.81L136.884 681.575C139.423 687.706 144.294 692.577 150.425 695.117L151.19 693.269Z" fill="currentColor"/>
<path d="M155.757 682.243C158.474 683.368 161.526 683.368 164.243 682.243V682.243C166.959 681.117 169.118 678.959 170.243 676.243V676.243C171.368 673.526 171.368 670.474 170.243 667.757V667.757C169.118 665.041 166.959 662.883 164.243 661.757V661.757C161.526 660.632 158.474 660.632 155.757 661.757V661.757C153.041 662.883 150.883 665.041 149.757 667.757V667.757C148.632 670.474 148.632 673.526 149.757 676.243V676.243C150.883 678.959 153.041 681.117 155.757 682.243V682.243Z" stroke="currentColor" stroke-width="2" stroke-linecap="round" stroke-linejoin="round"/>
<path d="M330.1 619.047L330.045 618.55C329.848 618.572 329.683 618.708 329.623 618.896L330.1 619.047ZM326.332 630.959L325.856 630.808L326.332 630.959ZM341.9 619.047L342.377 618.896C342.317 618.708 342.152 618.572 341.955 618.55L341.9 619.047ZM345.668 630.959L345.191 631.11L345.668 630.959ZM348.265 633.563L348.113 634.04L348.265 633.563ZM351.44 634.725L351.631 634.263L351.44 634.725ZM358.404 638.446L358.681 638.03L358.404 638.446ZM362.06 638.853L362.239 639.32V639.32L362.06 638.853ZM373.722 634.372L374.076 634.019C373.936 633.879 373.727 633.834 373.542 633.905L373.722 634.372ZM381.079 643.597L381.494 643.876C381.604 643.712 381.607 643.498 381.502 643.331L381.079 643.597ZM374.115 653.97L374.53 654.249L374.115 653.97ZM373.698 657.625L373.231 657.803L373.698 657.625ZM376.202 668.595L375.704 668.637L376.202 668.595ZM378.163 671.708L377.91 672.139L378.163 671.708ZM388.938 678.031L389.435 678.088C389.457 677.892 389.362 677.7 389.191 677.6L388.938 678.031ZM386.312 689.535L386.353 690.034C386.55 690.017 386.719 689.887 386.785 689.7L386.312 689.535ZM373.861 690.558L373.82 690.06L373.861 690.558ZM370.744 692.511L370.313 692.257L370.744 692.511ZM363.728 701.309L364.071 701.672V701.672L363.728 701.309ZM362.517 704.782L362.022 704.853L362.517 704.782ZM364.291 717.149L364.557 717.573C364.724 717.468 364.814 717.274 364.786 717.078L364.291 717.149ZM356.389 721.225L356.198 720.763L356.389 721.225ZM353.66 722.269L353.296 722.612C353.431 722.756 353.639 722.806 353.826 722.741L353.66 722.269ZM345.097 713.172L345.461 712.829L345.097 713.172ZM341.627 711.952L341.557 711.457L341.627 711.952ZM330.373 711.952L330.443 711.457H330.443L330.373 711.952ZM326.903 713.172L327.267 713.514L326.903 713.172ZM318.34 722.269L318.174 722.741C318.361 722.806 318.569 722.756 318.704 722.612L318.34 722.269ZM315.61 721.225L315.419 721.687L315.61 721.225ZM307.709 717.15L307.214 717.079C307.186 717.274 307.276 717.468 307.443 717.573L307.709 717.15ZM309.483 704.783L309.978 704.854L309.483 704.783ZM308.272 701.309L308.616 700.946H308.616L308.272 701.309ZM301.256 692.511L300.825 692.765L301.256 692.511ZM298.139 690.558L298.18 690.06L298.139 690.558ZM285.687 689.535L285.215 689.7C285.28 689.887 285.449 690.017 285.647 690.034L285.687 689.535ZM283.062 678.032L282.809 677.6C282.638 677.7 282.543 677.892 282.565 678.088L283.062 678.032ZM293.836 671.708L294.09 672.139L293.836 671.708ZM295.798 668.595L295.299 668.553L295.798 668.595ZM298.302 657.625L297.834 657.447L298.302 657.625ZM297.885 653.97L298.3 653.691L297.885 653.97ZM290.921 643.597L290.498 643.331C290.393 643.498 290.396 643.712 290.506 643.876L290.921 643.597ZM298.278 634.372L298.458 633.905C298.273 633.834 298.064 633.879 297.924 634.019L298.278 634.372ZM309.94 638.853L310.12 638.386L309.94 638.853ZM313.596 638.446L313.874 638.862L313.596 638.446ZM320.56 634.725L320.751 635.187L320.56 634.725ZM323.735 633.563L323.583 633.087H323.583L323.735 633.563ZM326.426 611.472L326.348 610.978L326.426 611.472ZM345.574 611.472L345.652 610.978L345.574 611.472ZM323.237 614.217L322.761 614.066V614.066L323.237 614.217ZM319.313 626.625L319.485 627.094C319.63 627.041 319.743 626.923 319.789 626.776L319.313 626.625ZM317.499 627.334L317.307 626.872L317.499 627.334ZM310.929 630.663L310.749 631.129C310.894 631.185 311.056 631.17 311.188 631.09L310.929 630.663ZM298.78 625.995L298.96 625.528L298.78 625.995ZM294.646 626.777L294.309 626.408L294.646 626.777ZM282.708 641.746L282.273 641.5L282.708 641.746ZM282.866 645.951L283.281 645.672H283.281L282.866 645.951ZM290.12 656.756L290.594 656.914C290.643 656.767 290.621 656.606 290.535 656.477L290.12 656.756ZM288.049 665.828L288.302 666.259C288.436 666.181 288.525 666.045 288.545 665.892L288.049 665.828ZM276.825 672.416L277.078 672.847L276.825 672.416ZM274.859 676.135L274.36 676.169L274.859 676.135ZM279.12 694.803L279.584 694.617H279.584L279.12 694.803ZM282.505 697.301L282.464 697.799H282.464L282.505 697.301ZM295.476 698.366L295.895 698.093C295.81 697.964 295.671 697.88 295.517 697.868L295.476 698.366ZM301.278 705.641L301.773 705.712C301.795 705.559 301.744 705.405 301.637 705.293L301.278 705.641ZM299.43 718.524L298.935 718.453L299.43 718.524ZM301.112 722.381L300.827 722.792L301.112 722.381ZM312.549 728.616L312.358 729.078L312.549 728.616ZM318.363 730.688L318.219 731.167H318.219L318.363 730.688ZM322.427 729.599L322.063 729.256L322.427 729.599ZM331.347 720.122L331.395 719.624C331.241 719.61 331.089 719.667 330.983 719.779L331.347 720.122ZM340.653 720.122L341.017 719.779C340.911 719.667 340.759 719.61 340.605 719.624L340.653 720.122ZM349.573 729.599L349.209 729.942L349.573 729.599ZM353.637 730.688L353.493 730.209L353.637 730.688ZM359.451 728.616L359.642 729.078L359.451 728.616ZM370.888 722.38L370.603 721.969L370.888 722.38ZM372.57 718.524L372.075 718.595L372.57 718.524ZM370.722 705.641L370.363 705.293C370.256 705.404 370.205 705.559 370.227 705.712L370.722 705.641ZM376.524 698.366L376.483 697.868C376.329 697.88 376.189 697.964 376.105 698.093L376.524 698.366ZM389.495 697.301L389.536 697.799L389.495 697.301ZM392.88 694.803L393.344 694.989L392.88 694.803ZM397.141 676.135L396.642 676.101L397.141 676.135ZM395.175 672.416L395.428 671.984L395.175 672.416ZM383.951 665.828L383.455 665.892C383.474 666.045 383.564 666.181 383.698 666.259L383.951 665.828ZM381.88 656.756L381.465 656.477C381.379 656.606 381.357 656.767 381.405 656.914L381.88 656.756ZM389.134 645.951L388.719 645.672V645.672L389.134 645.951ZM389.292 641.747L389.727 641.5V641.5L389.292 641.747ZM377.354 626.777L377.691 626.408L377.354 626.777ZM373.22 625.995L373.04 625.528L373.22 625.995ZM361.071 630.663L360.812 631.09C360.944 631.17 361.106 631.185 361.251 631.129L361.071 630.663ZM354.501 627.334L354.31 627.796L354.501 627.334ZM352.687 626.625L352.211 626.776C352.257 626.924 352.37 627.041 352.515 627.095L352.687 626.625ZM348.763 614.217L348.286 614.367V614.367L348.763 614.217ZM343.662 653.503L343.853 653.041L343.662 653.503ZM328.338 653.503L328.147 653.041L328.338 653.503ZM354.497 664.339L354.035 664.53L354.497 664.339ZM354.497 679.662L354.959 679.853V679.853L354.497 679.662ZM317.503 679.662L317.041 679.853V679.853L317.503 679.662ZM317.503 664.339L317.041 664.147L317.503 664.339ZM325.277 646.112L325.468 646.574L325.277 646.112ZM310.112 682.723L309.65 682.915V682.915L310.112 682.723ZM325.277 697.888L325.468 697.426L325.277 697.888ZM361.888 682.723L361.426 682.532L361.888 682.723ZM330.227 685.938L330.418 685.476L330.227 685.938ZM341.773 685.938L341.582 685.476L341.773 685.938ZM322.062 677.774L322.524 677.582L322.062 677.774ZM322.062 666.227L322.524 666.418L322.062 666.227ZM330.227 658.062L330.418 658.524L330.227 658.062ZM341.773 658.062L341.582 658.524L341.773 658.062ZM349.938 666.227L349.476 666.418L349.938 666.227ZM349.938 677.774L350.4 677.965L349.938 677.774ZM338.712 678.547L338.521 678.085L338.712 678.547ZM333.288 678.547L333.48 678.085L333.288 678.547ZM338.712 665.453L338.903 664.991H338.903L338.712 665.453ZM333.288 665.453L333.097 664.991L333.288 665.453ZM329.623 618.896L325.856 630.808L326.809 631.11L330.577 619.198L329.623 618.896ZM341.955 618.55C337.998 618.11 334.002 618.11 330.045 618.55L330.155 619.544C334.04 619.112 337.96 619.112 341.845 619.544L341.955 618.55ZM346.144 630.808L342.377 618.896L341.423 619.198L345.191 631.11L346.144 630.808ZM348.417 633.087C347.335 632.742 346.487 631.892 346.144 630.808L345.191 631.11C345.631 632.503 346.721 633.596 348.113 634.04L348.417 633.087ZM351.631 634.263C350.573 633.825 349.5 633.433 348.417 633.087L348.113 634.04C349.17 634.377 350.216 634.759 351.248 635.187L351.631 634.263ZM358.681 638.03C356.476 636.558 354.117 635.293 351.631 634.263L351.248 635.187C353.674 636.192 355.975 637.425 358.126 638.862L358.681 638.03ZM361.88 638.386C360.819 638.794 359.627 638.661 358.681 638.03L358.126 638.862C359.341 639.673 360.875 639.844 362.239 639.32L361.88 638.386ZM373.542 633.905L361.88 638.386L362.239 639.32L373.901 634.839L373.542 633.905ZM381.502 643.331C379.373 639.951 376.88 636.83 374.076 634.019L373.368 634.725C376.12 637.484 378.566 640.547 380.656 643.864L381.502 643.331ZM374.53 654.249L381.494 643.876L380.664 643.319L373.7 653.691L374.53 654.249ZM374.165 657.447C373.76 656.385 373.896 655.192 374.53 654.249L373.7 653.691C372.885 654.905 372.71 656.438 373.231 657.803L374.165 657.447ZM376.7 668.553C376.381 664.78 375.536 661.041 374.165 657.447L373.231 657.803C374.568 661.309 375.392 664.957 375.704 668.637L376.7 668.553ZM378.416 671.276C377.436 670.701 376.796 669.686 376.7 668.553L375.704 668.637C375.827 670.094 376.65 671.399 377.91 672.139L378.416 671.276ZM389.191 677.6L378.416 671.276L377.91 672.139L388.685 678.463L389.191 677.6ZM386.785 689.7C388.104 685.916 388.987 682.021 389.435 678.088L388.441 677.975C388.002 681.835 387.135 685.657 385.84 689.371L386.785 689.7ZM373.902 691.056L386.353 690.034L386.271 689.037L373.82 690.06L373.902 691.056ZM371.174 692.765C371.752 691.787 372.769 691.149 373.902 691.056L373.82 690.06C372.364 690.179 371.056 690.999 370.313 692.257L371.174 692.765ZM364.071 701.672C366.833 699.059 369.227 696.064 371.174 692.765L370.313 692.257C368.414 695.474 366.078 698.397 363.384 700.946L364.071 701.672ZM363.012 704.711C362.851 703.586 363.246 702.453 364.071 701.672L363.384 700.946C362.323 701.95 361.815 703.407 362.022 704.853L363.012 704.711ZM364.786 717.078L363.012 704.711L362.022 704.853L363.796 717.22L364.786 717.078ZM356.581 721.687C359.368 720.533 362.034 719.154 364.557 717.573L364.026 716.726C361.55 718.277 358.933 719.63 356.198 720.763L356.581 721.687ZM353.826 722.741C354.751 722.416 355.67 722.064 356.581 721.687L356.198 720.763C355.304 721.133 354.402 721.478 353.494 721.797L353.826 722.741ZM344.733 713.514L353.296 722.612L354.024 721.926L345.461 712.829L344.733 713.514ZM341.696 712.447C342.822 712.289 343.954 712.687 344.733 713.514L345.461 712.829C344.46 711.765 343.004 711.253 341.557 711.457L341.696 712.447ZM330.304 712.447C334.082 712.979 337.918 712.979 341.696 712.447L341.557 711.457C337.871 711.976 334.129 711.976 330.443 711.457L330.304 712.447ZM327.267 713.514C328.046 712.687 329.178 712.289 330.304 712.447L330.443 711.457C328.996 711.254 327.54 711.765 326.539 712.829L327.267 713.514ZM318.704 722.612L327.267 713.514L326.539 712.829L317.976 721.926L318.704 722.612ZM315.419 721.687C316.33 722.064 317.249 722.416 318.174 722.741L318.506 721.797C317.598 721.478 316.696 721.133 315.802 720.763L315.419 721.687ZM307.443 717.573C309.966 719.154 312.632 720.533 315.419 721.687L315.802 720.763C313.066 719.63 310.45 718.277 307.974 716.726L307.443 717.573ZM308.988 704.712L307.214 717.079L308.204 717.221L309.978 704.854L308.988 704.712ZM307.929 701.672C308.754 702.453 309.149 703.587 308.988 704.712L309.978 704.854C310.185 703.407 309.677 701.95 308.616 700.946L307.929 701.672ZM300.825 692.765C302.773 696.064 305.167 699.059 307.929 701.672L308.616 700.946C305.922 698.397 303.586 695.475 301.687 692.257L300.825 692.765ZM298.098 691.056C299.231 691.149 300.248 691.786 300.825 692.765L301.687 692.257C300.944 690.998 299.636 690.179 298.18 690.06L298.098 691.056ZM285.647 690.034L298.098 691.056L298.18 690.06L285.728 689.037L285.647 690.034ZM282.565 678.088C283.013 682.021 283.896 685.916 285.215 689.7L286.16 689.371C284.865 685.657 283.998 681.835 283.559 677.975L282.565 678.088ZM293.583 671.276L282.809 677.6L283.315 678.463L294.09 672.139L293.583 671.276ZM295.299 668.553C295.203 669.686 294.564 670.701 293.583 671.276L294.09 672.139C295.35 671.399 296.172 670.094 296.296 668.638L295.299 668.553ZM297.834 657.447C296.464 661.04 295.619 664.78 295.299 668.553L296.296 668.638C296.607 664.957 297.432 661.309 298.769 657.803L297.834 657.447ZM297.47 654.249C298.103 655.192 298.239 656.385 297.834 657.447L298.769 657.803C299.289 656.438 299.115 654.904 298.3 653.691L297.47 654.249ZM290.506 643.876L297.47 654.249L298.3 653.691L291.336 643.318L290.506 643.876ZM297.924 634.019C295.12 636.83 292.627 639.951 290.498 643.331L291.344 643.864C293.434 640.547 295.88 637.484 298.632 634.725L297.924 634.019ZM310.12 638.386L298.458 633.905L298.099 634.839L309.761 639.32L310.12 638.386ZM313.318 638.03C312.373 638.661 311.18 638.794 310.12 638.386L309.761 639.32C311.125 639.844 312.658 639.673 313.874 638.862L313.318 638.03ZM320.369 634.263C317.883 635.293 315.524 636.558 313.318 638.03L313.874 638.862C316.025 637.425 318.326 636.192 320.751 635.187L320.369 634.263ZM323.583 633.087C322.5 633.433 321.427 633.825 320.369 634.263L320.751 635.187C321.784 634.759 322.83 634.377 323.887 634.04L323.583 633.087ZM325.856 630.808C325.513 631.892 324.666 632.742 323.583 633.087L323.887 634.04C325.279 633.595 326.369 632.503 326.809 631.11L325.856 630.808ZM326.504 611.966C332.795 610.971 339.205 610.971 345.496 611.966L345.652 610.978C339.258 609.967 332.742 609.967 326.348 610.978L326.504 611.966ZM323.714 614.367C324.114 613.103 325.194 612.173 326.504 611.966L326.348 610.978C324.664 611.244 323.275 612.44 322.761 614.066L323.714 614.367ZM319.789 626.776L323.714 614.367L322.761 614.066L318.836 626.474L319.789 626.776ZM317.69 627.796C318.285 627.55 318.883 627.316 319.485 627.094L319.14 626.156C318.526 626.382 317.914 626.621 317.307 626.872L317.69 627.796ZM311.188 631.09C313.256 629.836 315.428 628.733 317.69 627.796L317.307 626.872C314.998 627.829 312.781 628.955 310.669 630.235L311.188 631.09ZM298.601 626.461L310.749 631.129L311.108 630.196L298.96 625.528L298.601 626.461ZM294.984 627.146C295.962 626.251 297.363 625.986 298.601 626.461L298.96 625.528C297.368 624.916 295.567 625.257 294.309 626.408L294.984 627.146ZM283.143 641.993C286.301 636.43 290.304 631.425 294.984 627.146L294.309 626.408C289.552 630.758 285.483 635.845 282.273 641.5L283.143 641.993ZM283.281 645.672C282.541 644.571 282.488 643.147 283.143 641.993L282.273 641.5C281.431 642.983 281.5 644.814 282.45 646.229L283.281 645.672ZM290.535 656.477L283.281 645.672L282.45 646.229L289.705 657.035L290.535 656.477ZM288.545 665.892C288.936 662.856 289.619 659.849 290.594 656.914L289.645 656.598C288.649 659.595 287.952 662.665 287.553 665.764L288.545 665.892ZM277.078 672.847L288.302 666.259L287.796 665.397L276.572 671.984L277.078 672.847ZM275.358 676.102C275.268 674.778 275.935 673.518 277.078 672.847L276.572 671.984C275.102 672.848 274.245 674.468 274.36 676.169L275.358 676.102ZM279.584 694.617C277.193 688.652 275.784 682.402 275.358 676.102L274.36 676.169C274.793 682.573 276.225 688.926 278.656 694.989L279.584 694.617ZM282.546 696.803C281.224 696.694 280.077 695.848 279.584 694.617L278.656 694.989C279.29 696.572 280.765 697.66 282.464 697.799L282.546 696.803ZM295.517 697.868L282.546 696.803L282.464 697.799L295.435 698.864L295.517 697.868ZM301.637 705.293C299.501 703.089 297.577 700.679 295.895 698.093L295.057 698.639C296.774 701.279 298.739 703.739 300.919 705.989L301.637 705.293ZM299.925 718.595L301.773 705.712L300.783 705.57L298.935 718.453L299.925 718.595ZM301.397 721.969C300.306 721.214 299.737 719.908 299.925 718.595L298.935 718.453C298.693 720.141 299.426 721.821 300.827 722.792L301.397 721.969ZM312.74 728.154C308.719 726.489 304.921 724.41 301.397 721.969L300.827 722.792C304.409 725.272 308.27 727.385 312.358 729.078L312.74 728.154ZM318.507 730.209C316.56 729.624 314.635 728.939 312.74 728.154L312.358 729.078C314.284 729.876 316.24 730.572 318.219 731.167L318.507 730.209ZM322.063 729.256C321.154 730.222 319.777 730.591 318.507 730.209L318.219 731.167C319.852 731.658 321.623 731.183 322.791 729.942L322.063 729.256ZM330.983 719.779L322.063 729.256L322.791 729.942L331.711 720.465L330.983 719.779ZM340.605 719.624C337.542 719.92 334.458 719.92 331.395 719.624L331.299 720.62C334.426 720.922 337.574 720.922 340.701 720.62L340.605 719.624ZM349.937 729.256L341.017 719.779L340.289 720.465L349.209 729.942L349.937 729.256ZM353.493 730.209C352.223 730.591 350.846 730.222 349.937 729.256L349.209 729.942C350.377 731.183 352.148 731.658 353.781 731.167L353.493 730.209ZM359.26 728.154C357.365 728.939 355.44 729.624 353.493 730.209L353.781 731.167C355.76 730.572 357.716 729.876 359.642 729.078L359.26 728.154ZM370.603 721.969C367.079 724.41 363.281 726.488 359.26 728.154L359.642 729.078C363.73 727.385 367.591 725.272 371.173 722.791L370.603 721.969ZM372.075 718.595C372.263 719.908 371.694 721.214 370.603 721.969L371.173 722.791C372.574 721.821 373.307 720.141 373.065 718.453L372.075 718.595ZM370.227 705.712L372.075 718.595L373.065 718.453L371.217 705.57L370.227 705.712ZM376.105 698.093C374.423 700.679 372.499 703.089 370.363 705.293L371.081 705.989C373.261 703.739 375.226 701.279 376.943 698.639L376.105 698.093ZM389.454 696.803L376.483 697.868L376.565 698.864L389.536 697.799L389.454 696.803ZM392.416 694.617C391.922 695.848 390.776 696.694 389.454 696.803L389.536 697.799C391.235 697.66 392.71 696.572 393.344 694.989L392.416 694.617ZM396.642 676.101C396.216 682.402 394.807 688.652 392.416 694.617L393.344 694.989C395.775 688.926 397.207 682.573 397.64 676.169L396.642 676.101ZM394.922 672.847C396.065 673.518 396.731 674.778 396.642 676.101L397.64 676.169C397.755 674.468 396.898 672.847 395.428 671.984L394.922 672.847ZM383.698 666.259L394.922 672.847L395.428 671.984L384.204 665.397L383.698 666.259ZM381.405 656.914C382.381 659.849 383.064 662.856 383.455 665.892L384.447 665.764C384.048 662.665 383.35 659.595 382.354 656.599L381.405 656.914ZM388.719 645.672L381.465 656.477L382.295 657.035L389.549 646.23L388.719 645.672ZM388.857 641.993C389.512 643.147 389.459 644.571 388.719 645.672L389.549 646.23C390.5 644.814 390.569 642.983 389.727 641.5L388.857 641.993ZM377.016 627.146C381.696 631.425 385.699 636.431 388.857 641.993L389.727 641.5C386.517 635.845 382.448 630.758 377.691 626.408L377.016 627.146ZM373.399 626.461C374.637 625.986 376.037 626.251 377.016 627.146L377.691 626.408C376.433 625.257 374.632 624.916 373.04 625.528L373.399 626.461ZM361.251 631.129L373.399 626.461L373.04 625.528L360.892 630.196L361.251 631.129ZM354.31 627.796C356.572 628.733 358.744 629.836 360.812 631.09L361.331 630.235C359.219 628.955 357.002 627.829 354.693 626.872L354.31 627.796ZM352.515 627.095C353.117 627.316 353.715 627.55 354.31 627.796L354.693 626.872C354.085 626.621 353.474 626.382 352.86 626.156L352.515 627.095ZM348.286 614.367L352.211 626.776L353.164 626.475L349.239 614.066L348.286 614.367ZM345.496 611.966C346.806 612.173 347.886 613.103 348.286 614.367L349.239 614.066C348.725 612.44 347.336 611.244 345.652 610.978L345.496 611.966ZM343.853 653.041C338.825 650.959 333.175 650.959 328.147 653.041L328.53 653.965C333.313 651.984 338.687 651.984 343.47 653.965L343.853 653.041ZM354.959 664.147C352.876 659.119 348.881 655.124 343.853 653.041L343.47 653.965C348.254 655.947 352.054 659.747 354.035 664.53L354.959 664.147ZM354.959 679.853C357.042 674.825 357.042 669.175 354.959 664.147L354.035 664.53C356.016 669.313 356.016 674.687 354.035 679.471L354.959 679.853ZM343.853 690.959C348.881 688.876 352.876 684.881 354.959 679.853L354.035 679.471C352.054 684.254 348.254 688.054 343.47 690.035L343.853 690.959ZM328.147 690.959C333.175 693.042 338.825 693.042 343.853 690.959L343.47 690.035C338.687 692.016 333.313 692.016 328.53 690.035L328.147 690.959ZM317.041 679.853C319.124 684.881 323.119 688.876 328.147 690.959L328.53 690.035C323.747 688.054 319.946 684.254 317.965 679.471L317.041 679.853ZM317.041 664.147C314.959 669.175 314.959 674.825 317.041 679.853L317.965 679.471C315.984 674.687 315.984 669.313 317.965 664.53L317.041 664.147ZM328.147 653.041C323.119 655.124 319.124 659.119 317.041 664.147L317.965 664.53C319.946 659.747 323.747 655.947 328.53 653.965L328.147 653.041ZM325.468 646.574C332.212 643.781 339.788 643.781 346.532 646.574L346.915 645.65C339.926 642.756 332.074 642.756 325.086 645.65L325.468 646.574ZM310.574 661.468C313.367 654.725 318.725 649.367 325.468 646.574L325.086 645.65C318.097 648.545 312.545 654.097 309.65 661.086L310.574 661.468ZM310.574 682.532C307.781 675.789 307.781 668.212 310.574 661.468L309.65 661.086C306.756 668.074 306.756 675.926 309.65 682.915L310.574 682.532ZM325.468 697.426C318.725 694.633 313.367 689.275 310.574 682.532L309.65 682.915C312.545 689.903 318.097 695.455 325.086 698.35L325.468 697.426ZM346.532 697.426C339.788 700.219 332.212 700.219 325.468 697.426L325.086 698.35C332.074 701.245 339.926 701.245 346.915 698.35L346.532 697.426ZM361.426 682.532C358.633 689.275 353.275 694.633 346.532 697.426L346.915 698.35C353.903 695.455 359.455 689.903 362.35 682.915L361.426 682.532ZM361.426 661.468C364.219 668.212 364.219 675.789 361.426 682.532L362.35 682.915C365.245 675.926 365.245 668.074 362.35 661.086L361.426 661.468ZM346.532 646.574C353.275 649.367 358.633 654.725 361.426 661.468L362.35 661.086C359.455 654.097 353.903 648.545 346.915 645.65L346.532 646.574ZM330.035 686.4C333.855 687.982 338.146 687.982 341.965 686.4L341.582 685.476C338.008 686.957 333.992 686.957 330.418 685.476L330.035 686.4ZM321.6 677.965C323.182 681.784 326.216 684.818 330.035 686.4L330.418 685.476C326.844 683.996 324.004 681.156 322.524 677.582L321.6 677.965ZM321.6 666.036C320.018 669.855 320.018 674.146 321.6 677.965L322.524 677.582C321.043 674.008 321.043 669.992 322.524 666.418L321.6 666.036ZM330.035 657.6C326.216 659.182 323.182 662.216 321.6 666.036L322.524 666.418C324.004 662.844 326.844 660.004 330.418 658.524L330.035 657.6ZM341.965 657.6C338.146 656.018 333.855 656.018 330.035 657.6L330.418 658.524C333.992 657.044 338.008 657.044 341.582 658.524L341.965 657.6ZM350.4 666.036C348.818 662.216 345.784 659.182 341.965 657.6L341.582 658.524C345.156 660.004 347.996 662.844 349.476 666.418L350.4 666.036ZM350.4 677.965C351.982 674.146 351.982 669.855 350.4 666.036L349.476 666.418C350.957 669.992 350.957 674.008 349.476 677.582L350.4 677.965ZM341.965 686.4C345.784 684.818 348.818 681.784 350.4 677.965L349.476 677.582C347.996 681.156 345.156 683.996 341.582 685.476L341.965 686.4ZM338.521 678.085C336.907 678.754 335.093 678.754 333.48 678.085L333.097 679.009C334.956 679.779 337.044 679.779 338.903 679.009L338.521 678.085ZM342.085 674.521C341.417 676.135 340.135 677.417 338.521 678.085L338.903 679.009C340.762 678.239 342.239 676.762 343.009 674.904L342.085 674.521ZM342.085 669.48C342.754 671.094 342.754 672.907 342.085 674.521L343.009 674.904C343.779 673.045 343.779 670.956 343.009 669.097L342.085 669.48ZM338.521 665.915C340.135 666.584 341.417 667.866 342.085 669.48L343.009 669.097C342.239 667.238 340.762 665.761 338.903 664.991L338.521 665.915ZM333.48 665.915C335.093 665.247 336.907 665.247 338.521 665.915L338.903 664.991C337.044 664.221 334.956 664.221 333.097 664.991L333.48 665.915ZM329.915 669.48C330.583 667.866 331.866 666.584 333.48 665.915L333.097 664.991C331.238 665.761 329.761 667.238 328.991 669.097L329.915 669.48ZM329.915 674.521C329.246 672.907 329.246 671.094 329.915 669.48L328.991 669.097C328.221 670.956 328.221 673.045 328.991 674.903L329.915 674.521ZM333.48 678.085C331.866 677.417 330.583 676.135 329.915 674.521L328.991 674.903C329.761 676.762 331.238 678.239 333.097 679.009L333.48 678.085Z" fill="currentColor"/>
<path fill-rule="evenodd" clip-rule="evenodd" d="M473.346 629.728L487.375 635.119C489.769 633.521 492.33 632.148 495.029 631.03C496.178 630.554 497.343 630.128 498.519 629.753L503.051 615.423C508.98 614.485 515.02 614.485 520.949 615.423L525.481 629.753C526.657 630.128 527.821 630.554 528.97 631.03C531.669 632.148 534.231 633.521 536.625 635.119L550.654 629.728C555.065 633.762 558.837 638.479 561.813 643.721L553.436 656.2C554.924 660.101 555.841 664.161 556.188 668.258L569.15 675.865C568.748 681.803 567.421 687.693 565.167 693.314L550.188 694.544C548.074 698.126 545.475 701.378 542.477 704.214L544.611 719.092C541.29 721.392 537.71 723.351 533.92 724.921C532.134 725.66 530.32 726.306 528.485 726.857L518.184 715.913C514.082 716.491 509.918 716.491 505.816 715.913L495.515 726.857C493.68 726.306 491.866 725.66 490.08 724.921C486.29 723.351 482.71 721.392 479.389 719.092L481.523 704.215C478.525 701.378 475.925 698.126 473.811 694.544L458.832 693.314C456.579 687.693 455.251 681.803 454.85 675.865L467.812 668.258C468.159 664.161 469.076 660.101 470.564 656.199L462.186 643.721C465.162 638.479 468.935 633.762 473.346 629.728ZM502.808 694.193C508.693 696.631 515.307 696.631 521.192 694.193C527.078 691.755 531.754 687.078 534.192 681.193C536.63 675.307 536.63 668.694 534.192 662.808C531.754 656.922 527.078 652.246 521.192 649.808C515.307 647.37 508.693 647.37 502.808 649.808C496.922 652.246 492.246 656.922 489.808 662.808C487.37 668.694 487.37 675.307 489.808 681.193C492.246 687.078 496.922 691.755 502.808 694.193Z" fill="currentColor"/>
<path d="M473.346 629.728L474.063 627.862C473.356 627.59 472.555 627.741 471.996 628.252L473.346 629.728ZM487.375 635.119L486.657 636.986C487.264 637.219 487.945 637.143 488.485 636.783L487.375 635.119ZM495.029 631.03L494.264 629.182L495.029 631.03ZM498.519 629.753L499.127 631.658C499.745 631.461 500.23 630.975 500.426 630.356L498.519 629.753ZM503.051 615.423L502.739 613.447C501.99 613.566 501.373 614.097 501.144 614.82L503.051 615.423ZM520.949 615.423L522.856 614.82C522.627 614.097 522.01 613.566 521.261 613.447L520.949 615.423ZM525.481 629.753L523.574 630.356C523.77 630.975 524.255 631.461 524.873 631.658L525.481 629.753ZM528.97 631.03L528.205 632.877L528.97 631.03ZM536.625 635.119L535.514 636.783C536.054 637.143 536.736 637.219 537.342 636.986L536.625 635.119ZM550.654 629.728L552.004 628.253C551.445 627.741 550.644 627.59 549.937 627.862L550.654 629.728ZM561.813 643.721L563.474 644.836C563.896 644.207 563.927 643.393 563.553 642.734L561.813 643.721ZM553.436 656.2L551.775 655.085C551.413 655.624 551.336 656.305 551.567 656.912L553.436 656.2ZM556.188 668.258L554.195 668.427C554.25 669.074 554.615 669.654 555.176 669.983L556.188 668.258ZM569.15 675.865L571.145 676C571.196 675.244 570.816 674.524 570.162 674.14L569.15 675.865ZM565.167 693.314L565.331 695.308C566.086 695.246 566.742 694.762 567.024 694.059L565.167 693.314ZM550.188 694.544L550.025 692.551C549.377 692.604 548.796 692.969 548.466 693.528L550.188 694.544ZM542.477 704.214L541.102 702.762C540.63 703.208 540.405 703.856 540.497 704.498L542.477 704.214ZM544.611 719.092L545.749 720.736C546.372 720.305 546.698 719.558 546.59 718.808L544.611 719.092ZM533.92 724.921L533.155 723.073V723.073L533.92 724.921ZM528.485 726.857L527.029 728.228C527.548 728.78 528.335 728.991 529.061 728.773L528.485 726.857ZM518.184 715.913L519.641 714.542C519.196 714.07 518.548 713.842 517.905 713.933L518.184 715.913ZM505.816 715.913L506.094 713.933C505.451 713.842 504.804 714.07 504.359 714.543L505.816 715.913ZM495.515 726.857L494.939 728.773C495.665 728.991 496.451 728.78 496.971 728.228L495.515 726.857ZM490.08 724.921L489.314 726.768V726.768L490.08 724.921ZM479.389 719.092L477.41 718.808C477.302 719.558 477.628 720.305 478.251 720.736L479.389 719.092ZM481.523 704.215L483.503 704.499C483.595 703.856 483.37 703.208 482.898 702.762L481.523 704.215ZM473.811 694.544L475.534 693.528C475.203 692.968 474.622 692.604 473.975 692.551L473.811 694.544ZM458.832 693.314L456.976 694.059C457.258 694.762 457.913 695.246 458.669 695.308L458.832 693.314ZM454.85 675.865L453.838 674.141C453.184 674.524 452.803 675.244 452.854 676L454.85 675.865ZM467.812 668.258L468.824 669.983C469.384 669.654 469.75 669.074 469.805 668.427L467.812 668.258ZM470.564 656.199L472.433 656.912C472.664 656.305 472.587 655.624 472.225 655.085L470.564 656.199ZM462.186 643.721L460.447 642.734C460.073 643.393 460.104 644.207 460.526 644.836L462.186 643.721ZM502.808 694.193L503.573 692.345V692.345L502.808 694.193ZM534.192 681.193L536.04 681.958L534.192 681.193ZM534.192 662.808L532.345 663.573L534.192 662.808ZM489.808 662.808L491.655 663.573L489.808 662.808ZM489.808 681.193L487.96 681.958H487.96L489.808 681.193ZM472.628 631.595L486.657 636.986L488.092 633.252L474.063 627.862L472.628 631.595ZM488.485 636.783C490.772 635.256 493.217 633.945 495.795 632.877L494.264 629.182C491.443 630.35 488.767 631.785 486.264 633.456L488.485 636.783ZM495.795 632.877C496.892 632.423 498.004 632.016 499.127 631.658L497.911 627.847C496.682 628.24 495.465 628.685 494.264 629.182L495.795 632.877ZM500.426 630.356L504.958 616.026L501.144 614.82L496.612 629.15L500.426 630.356ZM503.364 617.398C509.085 616.494 514.915 616.494 520.636 617.398L521.261 613.447C515.126 612.477 508.874 612.477 502.739 613.447L503.364 617.398ZM519.042 616.026L523.574 630.356L527.388 629.15L522.856 614.82L519.042 616.026ZM524.873 631.658C525.996 632.016 527.108 632.423 528.205 632.877L529.736 629.182C528.535 628.685 527.318 628.24 526.089 627.847L524.873 631.658ZM528.205 632.877C530.782 633.945 533.228 635.256 535.514 636.783L537.736 633.456C535.233 631.785 532.556 630.35 529.736 629.182L528.205 632.877ZM537.342 636.986L551.372 631.595L549.937 627.862L535.908 633.252L537.342 636.986ZM549.305 631.204C553.561 635.097 557.202 639.649 560.074 644.709L563.553 642.734C560.473 637.308 556.569 632.427 552.004 628.253L549.305 631.204ZM560.153 642.607L551.775 655.085L555.096 657.314L563.474 644.836L560.153 642.607ZM551.567 656.912C552.988 660.638 553.864 664.515 554.195 668.427L558.181 668.089C557.818 663.808 556.859 659.565 555.304 655.487L551.567 656.912ZM555.176 669.983L568.138 677.59L570.162 674.14L557.2 666.533L555.176 669.983ZM567.154 675.73C566.767 681.461 565.486 687.145 563.311 692.57L567.024 694.059C569.356 688.241 570.73 682.145 571.145 676L567.154 675.73ZM565.004 691.321L550.025 692.551L550.352 696.538L565.331 695.308L565.004 691.321ZM548.466 693.528C546.447 696.947 543.965 700.053 541.102 702.762L543.851 705.667C546.984 702.703 549.701 699.304 551.911 695.561L548.466 693.528ZM540.497 704.498L542.631 719.376L546.59 718.808L544.456 703.93L540.497 704.498ZM543.472 717.448C540.267 719.667 536.812 721.558 533.155 723.073L534.686 726.768C538.608 725.144 542.312 723.116 545.749 720.736L543.472 717.448ZM533.155 723.073C531.431 723.787 529.681 724.41 527.91 724.942L529.061 728.773C530.96 728.202 532.837 727.534 534.686 726.768L533.155 723.073ZM529.942 725.487L519.641 714.542L516.728 717.284L527.029 728.228L529.942 725.487ZM517.905 713.933C513.988 714.484 510.012 714.484 506.094 713.933L505.537 717.894C509.824 718.497 514.176 718.497 518.463 717.894L517.905 713.933ZM504.359 714.543L494.058 725.487L496.971 728.228L507.272 717.284L504.359 714.543ZM496.09 724.942C494.319 724.41 492.569 723.787 490.845 723.073L489.314 726.768C491.162 727.534 493.04 728.202 494.939 728.773L496.09 724.942ZM490.845 723.073C487.187 721.558 483.733 719.667 480.528 717.448L478.251 720.736C481.688 723.116 485.392 725.144 489.314 726.768L490.845 723.073ZM481.369 719.376L483.503 704.499L479.543 703.931L477.41 718.808L481.369 719.376ZM482.898 702.762C480.035 700.053 477.552 696.947 475.534 693.528L472.089 695.561C474.299 699.304 477.015 702.703 480.149 705.667L482.898 702.762ZM473.975 692.551L458.996 691.321L458.669 695.308L473.648 696.538L473.975 692.551ZM460.689 692.57C458.514 687.145 457.233 681.461 456.845 675.731L452.854 676C453.27 682.145 454.644 688.241 456.976 694.059L460.689 692.57ZM455.862 677.59L468.824 669.983L466.799 666.533L453.838 674.141L455.862 677.59ZM469.805 668.427C470.136 664.515 471.012 660.638 472.433 656.912L468.695 655.487C467.14 659.565 466.181 663.808 465.819 668.089L469.805 668.427ZM472.225 655.085L463.847 642.606L460.526 644.836L468.904 657.314L472.225 655.085ZM463.926 644.709C466.798 639.649 470.438 635.097 474.695 631.204L471.996 628.252C467.431 632.427 463.527 637.308 460.447 642.734L463.926 644.709ZM520.427 692.345C515.031 694.58 508.969 694.58 503.573 692.345L502.042 696.04C508.418 698.681 515.582 698.681 521.958 696.04L520.427 692.345ZM532.345 680.427C530.11 685.823 525.823 690.11 520.427 692.345L521.958 696.04C528.334 693.399 533.399 688.334 536.04 681.958L532.345 680.427ZM532.345 663.573C534.58 668.969 534.58 675.032 532.345 680.427L536.04 681.958C538.681 675.582 538.681 668.418 536.04 662.043L532.345 663.573ZM520.427 651.656C525.823 653.891 530.11 658.178 532.345 663.573L536.04 662.043C533.399 655.667 528.334 650.601 521.958 647.96L520.427 651.656ZM503.573 651.656C508.969 649.421 515.031 649.421 520.427 651.656L521.958 647.96C515.582 645.319 508.418 645.319 502.042 647.96L503.573 651.656ZM491.655 663.573C493.89 658.178 498.177 653.891 503.573 651.656L502.042 647.96C495.666 650.601 490.601 655.667 487.96 662.043L491.655 663.573ZM491.655 680.427C489.42 675.032 489.42 668.969 491.655 663.573L487.96 662.043C485.319 668.418 485.319 675.582 487.96 681.958L491.655 680.427ZM503.573 692.345C498.177 690.11 493.89 685.823 491.655 680.427L487.96 681.958C490.601 688.334 495.666 693.399 502.042 696.04L503.573 692.345Z" fill="currentColor"/>
<path d="M507.757 682.243C510.474 683.368 513.526 683.368 516.243 682.243C518.959 681.117 521.118 678.959 522.243 676.243C523.368 673.526 523.368 670.474 522.243 667.757C521.118 665.041 518.959 662.883 516.243 661.757C513.526 660.632 510.474 660.632 507.757 661.757C505.041 662.883 502.883 665.041 501.757 667.757C500.632 670.474 500.632 673.526 501.757 676.243C502.883 678.959 505.041 681.117 507.757 682.243Z" fill="currentColor" stroke="currentColor" stroke-width="4" stroke-linecap="round" stroke-linejoin="round"/>
<g opacity="0.25">
<path fill-rule="evenodd" clip-rule="evenodd" d="M649.346 629.728L663.375 635.119C665.769 633.521 668.33 632.148 671.029 631.03C672.178 630.554 673.343 630.128 674.519 629.753L679.051 615.423C684.98 614.485 691.02 614.485 696.949 615.423L701.481 629.753C702.657 630.128 703.821 630.554 704.97 631.03C707.669 632.148 710.231 633.521 712.625 635.119L726.654 629.728C731.065 633.762 734.837 638.479 737.813 643.721L729.436 656.2C730.924 660.101 731.841 664.161 732.188 668.258L745.15 675.865C744.748 681.803 743.421 687.693 741.167 693.314L726.188 694.544C724.074 698.126 721.475 701.378 718.477 704.214L720.611 719.092C717.29 721.392 713.71 723.351 709.92 724.921C708.134 725.66 706.32 726.306 704.485 726.857L694.184 715.913C690.082 716.491 685.918 716.491 681.816 715.913L671.515 726.857C669.68 726.306 667.866 725.66 666.08 724.921C662.29 723.351 658.71 721.392 655.389 719.092L657.523 704.215C654.525 701.378 651.925 698.126 649.811 694.544L634.832 693.314C632.579 687.693 631.251 681.803 630.85 675.865L643.812 668.258C644.159 664.161 645.076 660.101 646.564 656.199L638.186 643.721C641.162 638.479 644.935 633.762 649.346 629.728ZM678.808 694.193C684.693 696.631 691.307 696.631 697.192 694.193C703.078 691.755 707.754 687.078 710.192 681.193C712.63 675.307 712.63 668.694 710.192 662.808C707.754 656.922 703.078 652.246 697.192 649.808C691.307 647.37 684.693 647.37 678.808 649.808C672.922 652.246 668.246 656.922 665.808 662.808C663.37 668.694 663.37 675.307 665.808 681.193C668.246 687.078 672.922 691.755 678.808 694.193Z" fill="currentColor"/>
<path d="M649.346 629.728L650.063 627.862C649.356 627.59 648.555 627.741 647.996 628.252L649.346 629.728ZM663.375 635.119L662.657 636.986C663.264 637.219 663.945 637.143 664.485 636.783L663.375 635.119ZM671.029 631.03L670.264 629.182L671.029 631.03ZM674.519 629.753L675.127 631.658C675.745 631.461 676.23 630.975 676.426 630.356L674.519 629.753ZM679.051 615.423L678.739 613.447C677.99 613.566 677.373 614.097 677.144 614.82L679.051 615.423ZM696.949 615.423L698.856 614.82C698.627 614.097 698.01 613.566 697.261 613.447L696.949 615.423ZM701.481 629.753L699.574 630.356C699.77 630.975 700.255 631.461 700.873 631.658L701.481 629.753ZM704.97 631.03L704.205 632.877L704.97 631.03ZM712.625 635.119L711.514 636.783C712.054 637.143 712.736 637.219 713.342 636.986L712.625 635.119ZM726.654 629.728L728.004 628.253C727.445 627.741 726.644 627.59 725.937 627.862L726.654 629.728ZM737.813 643.721L739.474 644.836C739.896 644.207 739.927 643.393 739.553 642.734L737.813 643.721ZM729.436 656.2L727.775 655.085C727.413 655.624 727.336 656.305 727.567 656.912L729.436 656.2ZM732.188 668.258L730.195 668.427C730.25 669.074 730.615 669.654 731.176 669.983L732.188 668.258ZM745.15 675.865L747.145 676C747.196 675.244 746.816 674.524 746.162 674.14L745.15 675.865ZM741.167 693.314L741.331 695.308C742.086 695.246 742.742 694.762 743.024 694.059L741.167 693.314ZM726.188 694.544L726.025 692.551C725.377 692.604 724.796 692.969 724.466 693.528L726.188 694.544ZM718.477 704.214L717.102 702.762C716.63 703.208 716.405 703.856 716.497 704.498L718.477 704.214ZM720.611 719.092L721.749 720.736C722.372 720.305 722.698 719.558 722.59 718.808L720.611 719.092ZM709.92 724.921L709.155 723.073V723.073L709.92 724.921ZM704.485 726.857L703.029 728.228C703.548 728.78 704.335 728.991 705.061 728.773L704.485 726.857ZM694.184 715.913L695.641 714.542C695.196 714.07 694.548 713.842 693.905 713.933L694.184 715.913ZM681.816 715.913L682.094 713.933C681.451 713.842 680.804 714.07 680.359 714.543L681.816 715.913ZM671.515 726.857L670.939 728.773C671.665 728.991 672.451 728.78 672.971 728.228L671.515 726.857ZM666.08 724.921L665.314 726.768V726.768L666.08 724.921ZM655.389 719.092L653.41 718.808C653.302 719.558 653.628 720.305 654.251 720.736L655.389 719.092ZM657.523 704.215L659.503 704.499C659.595 703.856 659.37 703.208 658.898 702.762L657.523 704.215ZM649.811 694.544L651.534 693.528C651.203 692.968 650.622 692.604 649.975 692.551L649.811 694.544ZM634.832 693.314L632.976 694.059C633.258 694.762 633.913 695.246 634.669 695.308L634.832 693.314ZM630.85 675.865L629.838 674.141C629.184 674.524 628.803 675.244 628.854 676L630.85 675.865ZM643.812 668.258L644.824 669.983C645.384 669.654 645.75 669.074 645.805 668.427L643.812 668.258ZM646.564 656.199L648.433 656.912C648.664 656.305 648.587 655.624 648.225 655.085L646.564 656.199ZM638.186 643.721L636.447 642.734C636.073 643.393 636.104 644.207 636.526 644.836L638.186 643.721ZM678.808 694.193L679.573 692.345V692.345L678.808 694.193ZM710.192 681.193L712.04 681.958L710.192 681.193ZM710.192 662.808L708.345 663.573L710.192 662.808ZM665.808 662.808L667.655 663.573L665.808 662.808ZM665.808 681.193L663.96 681.958H663.96L665.808 681.193ZM648.628 631.595L662.657 636.986L664.092 633.252L650.063 627.862L648.628 631.595ZM664.485 636.783C666.772 635.256 669.217 633.945 671.795 632.877L670.264 629.182C667.443 630.35 664.767 631.785 662.264 633.456L664.485 636.783ZM671.795 632.877C672.892 632.423 674.004 632.016 675.127 631.658L673.911 627.847C672.682 628.24 671.465 628.685 670.264 629.182L671.795 632.877ZM676.426 630.356L680.958 616.026L677.144 614.82L672.612 629.15L676.426 630.356ZM679.364 617.398C685.085 616.494 690.915 616.494 696.636 617.398L697.261 613.447C691.126 612.477 684.874 612.477 678.739 613.447L679.364 617.398ZM695.042 616.026L699.574 630.356L703.388 629.15L698.856 614.82L695.042 616.026ZM700.873 631.658C701.996 632.016 703.108 632.423 704.205 632.877L705.736 629.182C704.535 628.685 703.318 628.24 702.089 627.847L700.873 631.658ZM704.205 632.877C706.782 633.945 709.228 635.256 711.514 636.783L713.736 633.456C711.233 631.785 708.556 630.35 705.736 629.182L704.205 632.877ZM713.342 636.986L727.372 631.595L725.937 627.862L711.908 633.252L713.342 636.986ZM725.305 631.204C729.561 635.097 733.202 639.649 736.074 644.709L739.553 642.734C736.473 637.308 732.569 632.427 728.004 628.253L725.305 631.204ZM736.153 642.607L727.775 655.085L731.096 657.314L739.474 644.836L736.153 642.607ZM727.567 656.912C728.988 660.638 729.864 664.515 730.195 668.427L734.181 668.089C733.818 663.808 732.859 659.565 731.304 655.487L727.567 656.912ZM731.176 669.983L744.138 677.59L746.162 674.14L733.2 666.533L731.176 669.983ZM743.154 675.73C742.767 681.461 741.486 687.145 739.311 692.57L743.024 694.059C745.356 688.241 746.73 682.145 747.145 676L743.154 675.73ZM741.004 691.321L726.025 692.551L726.352 696.538L741.331 695.308L741.004 691.321ZM724.466 693.528C722.447 696.947 719.965 700.053 717.102 702.762L719.851 705.667C722.984 702.703 725.701 699.304 727.911 695.561L724.466 693.528ZM716.497 704.498L718.631 719.376L722.59 718.808L720.456 703.93L716.497 704.498ZM719.472 717.448C716.267 719.667 712.812 721.558 709.155 723.073L710.686 726.768C714.608 725.144 718.312 723.116 721.749 720.736L719.472 717.448ZM709.155 723.073C707.431 723.787 705.681 724.41 703.91 724.942L705.061 728.773C706.96 728.202 708.837 727.534 710.686 726.768L709.155 723.073ZM705.942 725.487L695.641 714.542L692.728 717.284L703.029 728.228L705.942 725.487ZM693.905 713.933C689.988 714.484 686.012 714.484 682.094 713.933L681.537 717.894C685.824 718.497 690.176 718.497 694.463 717.894L693.905 713.933ZM680.359 714.543L670.058 725.487L672.971 728.228L683.272 717.284L680.359 714.543ZM672.09 724.942C670.319 724.41 668.569 723.787 666.845 723.073L665.314 726.768C667.162 727.534 669.04 728.202 670.939 728.773L672.09 724.942ZM666.845 723.073C663.187 721.558 659.733 719.667 656.528 717.448L654.251 720.736C657.688 723.116 661.392 725.144 665.314 726.768L666.845 723.073ZM657.369 719.376L659.503 704.499L655.543 703.931L653.41 718.808L657.369 719.376ZM658.898 702.762C656.035 700.053 653.552 696.947 651.534 693.528L648.089 695.561C650.299 699.304 653.015 702.703 656.149 705.667L658.898 702.762ZM649.975 692.551L634.996 691.321L634.669 695.308L649.648 696.538L649.975 692.551ZM636.689 692.57C634.514 687.145 633.233 681.461 632.845 675.731L628.854 676C629.27 682.145 630.644 688.241 632.976 694.059L636.689 692.57ZM631.862 677.59L644.824 669.983L642.799 666.533L629.838 674.141L631.862 677.59ZM645.805 668.427C646.136 664.515 647.012 660.638 648.433 656.912L644.695 655.487C643.14 659.565 642.181 663.808 641.819 668.089L645.805 668.427ZM648.225 655.085L639.847 642.606L636.526 644.836L644.904 657.314L648.225 655.085ZM639.926 644.709C642.798 639.649 646.438 635.097 650.695 631.204L647.996 628.252C643.431 632.427 639.527 637.308 636.447 642.734L639.926 644.709ZM696.427 692.345C691.031 694.58 684.969 694.58 679.573 692.345L678.042 696.04C684.418 698.681 691.582 698.681 697.958 696.04L696.427 692.345ZM708.345 680.427C706.11 685.823 701.823 690.11 696.427 692.345L697.958 696.04C704.334 693.399 709.399 688.334 712.04 681.958L708.345 680.427ZM708.345 663.573C710.58 668.969 710.58 675.032 708.345 680.427L712.04 681.958C714.681 675.582 714.681 668.418 712.04 662.043L708.345 663.573ZM696.427 651.656C701.823 653.891 706.11 658.178 708.345 663.573L712.04 662.043C709.399 655.667 704.334 650.601 697.958 647.96L696.427 651.656ZM679.573 651.656C684.969 649.421 691.031 649.421 696.427 651.656L697.958 647.96C691.582 645.319 684.418 645.319 678.042 647.96L679.573 651.656ZM667.655 663.573C669.89 658.178 674.177 653.891 679.573 651.656L678.042 647.96C671.666 650.601 666.601 655.667 663.96 662.043L667.655 663.573ZM667.655 680.427C665.42 675.032 665.42 668.969 667.655 663.573L663.96 662.043C661.319 668.418 661.319 675.582 663.96 681.958L667.655 680.427ZM679.573 692.345C674.177 690.11 669.89 685.823 667.655 680.427L663.96 681.958C666.601 688.334 671.666 693.399 678.042 696.04L679.573 692.345Z" fill="currentColor"/>
</g>
<path d="M683.757 682.243C686.474 683.368 689.526 683.368 692.243 682.243C694.959 681.117 697.118 678.959 698.243 676.243C699.368 673.526 699.368 670.474 698.243 667.757C697.118 665.041 694.959 662.883 692.243 661.757C689.526 660.632 686.474 660.632 683.757 661.757C681.041 662.883 678.883 665.041 677.757 667.757C676.632 670.474 676.632 673.526 677.757 676.243C678.883 678.959 681.041 681.117 683.757 682.243Z" fill="currentColor" stroke="currentColor" stroke-width="4" stroke-linecap="round" stroke-linejoin="round"/>
<path fill-rule="evenodd" clip-rule="evenodd" d="M825.346 629.728L839.375 635.119C841.769 633.521 844.33 632.148 847.029 631.03C848.178 630.554 849.343 630.128 850.519 629.753L855.051 615.423C860.98 614.485 867.02 614.485 872.949 615.423L877.481 629.753C878.657 630.128 879.821 630.554 880.97 631.03C883.669 632.148 886.231 633.521 888.625 635.119L902.654 629.728C907.065 633.762 910.837 638.479 913.813 643.721L905.436 656.2C906.924 660.101 907.841 664.161 908.188 668.258L921.15 675.865C920.748 681.803 919.421 687.693 917.167 693.314L902.188 694.544C900.074 698.126 897.475 701.378 894.477 704.214L896.611 719.092C893.29 721.392 889.71 723.351 885.92 724.921C884.134 725.66 882.32 726.306 880.485 726.857L870.184 715.913C866.082 716.491 861.918 716.491 857.816 715.913L847.515 726.857C845.68 726.306 843.866 725.66 842.08 724.921C838.29 723.351 834.71 721.392 831.389 719.092L833.523 704.215C830.525 701.378 827.925 698.126 825.811 694.544L810.832 693.314C808.579 687.693 807.251 681.803 806.85 675.865L819.812 668.258C820.159 664.161 821.076 660.101 822.564 656.199L814.186 643.721C817.162 638.479 820.935 633.762 825.346 629.728ZM854.808 694.193C860.693 696.631 867.307 696.631 873.192 694.193C879.078 691.755 883.754 687.078 886.192 681.193C888.63 675.307 888.63 668.694 886.192 662.808C883.754 656.922 879.078 652.246 873.192 649.808C867.307 647.37 860.693 647.37 854.808 649.808C848.922 652.246 844.246 656.922 841.808 662.808C839.37 668.694 839.37 675.307 841.808 681.193C844.246 687.078 848.922 691.755 854.808 694.193Z" fill="#FFA500"/>
<path d="M825.346 629.728L826.063 627.862C825.356 627.59 824.555 627.741 823.996 628.252L825.346 629.728ZM839.375 635.119L838.657 636.986C839.264 637.219 839.945 637.143 840.485 636.783L839.375 635.119ZM847.029 631.03L846.264 629.182L847.029 631.03ZM850.519 629.753L851.127 631.658C851.745 631.461 852.23 630.975 852.426 630.356L850.519 629.753ZM855.051 615.423L854.739 613.447C853.99 613.566 853.373 614.097 853.144 614.82L855.051 615.423ZM872.949 615.423L874.856 614.82C874.627 614.097 874.01 613.566 873.261 613.447L872.949 615.423ZM877.481 629.753L875.574 630.356C875.77 630.975 876.255 631.461 876.873 631.658L877.481 629.753ZM880.97 631.03L880.205 632.877L880.97 631.03ZM888.625 635.119L887.514 636.783C888.054 637.143 888.736 637.219 889.342 636.986L888.625 635.119ZM902.654 629.728L904.004 628.253C903.445 627.741 902.644 627.59 901.937 627.862L902.654 629.728ZM913.813 643.721L915.474 644.836C915.896 644.207 915.927 643.393 915.553 642.734L913.813 643.721ZM905.436 656.2L903.775 655.085C903.413 655.624 903.336 656.305 903.567 656.912L905.436 656.2ZM908.188 668.258L906.195 668.427C906.25 669.074 906.615 669.654 907.176 669.983L908.188 668.258ZM921.15 675.865L923.145 676C923.196 675.244 922.816 674.524 922.162 674.14L921.15 675.865ZM917.167 693.314L917.331 695.308C918.086 695.246 918.742 694.762 919.024 694.059L917.167 693.314ZM902.188 694.544L902.025 692.551C901.377 692.604 900.796 692.969 900.466 693.528L902.188 694.544ZM894.477 704.214L893.102 702.762C892.63 703.208 892.405 703.856 892.497 704.498L894.477 704.214ZM896.611 719.092L897.749 720.736C898.372 720.305 898.698 719.558 898.59 718.808L896.611 719.092ZM885.92 724.921L885.155 723.073V723.073L885.92 724.921ZM880.485 726.857L879.029 728.228C879.548 728.78 880.335 728.991 881.061 728.773L880.485 726.857ZM870.184 715.913L871.641 714.542C871.196 714.07 870.548 713.842 869.905 713.933L870.184 715.913ZM857.816 715.913L858.094 713.933C857.451 713.842 856.804 714.07 856.359 714.543L857.816 715.913ZM847.515 726.857L846.939 728.773C847.665 728.991 848.451 728.78 848.971 728.228L847.515 726.857ZM842.08 724.921L841.314 726.768V726.768L842.08 724.921ZM831.389 719.092L829.41 718.808C829.302 719.558 829.628 720.305 830.251 720.736L831.389 719.092ZM833.523 704.215L835.503 704.499C835.595 703.856 835.37 703.208 834.898 702.762L833.523 704.215ZM825.811 694.544L827.534 693.528C827.203 692.968 826.622 692.604 825.975 692.551L825.811 694.544ZM810.832 693.314L808.976 694.059C809.258 694.762 809.913 695.246 810.669 695.308L810.832 693.314ZM806.85 675.865L805.838 674.141C805.184 674.524 804.803 675.244 804.854 676L806.85 675.865ZM819.812 668.258L820.824 669.983C821.384 669.654 821.75 669.074 821.805 668.427L819.812 668.258ZM822.564 656.199L824.433 656.912C824.664 656.305 824.587 655.624 824.225 655.085L822.564 656.199ZM814.186 643.721L812.447 642.734C812.073 643.393 812.104 644.207 812.526 644.836L814.186 643.721ZM854.808 694.193L855.573 692.345V692.345L854.808 694.193ZM886.192 681.193L888.04 681.958L886.192 681.193ZM886.192 662.808L884.345 663.573L886.192 662.808ZM841.808 662.808L843.655 663.573L841.808 662.808ZM841.808 681.193L839.96 681.958H839.96L841.808 681.193ZM824.628 631.595L838.657 636.986L840.092 633.252L826.063 627.862L824.628 631.595ZM840.485 636.783C842.772 635.256 845.217 633.945 847.795 632.877L846.264 629.182C843.443 630.35 840.767 631.785 838.264 633.456L840.485 636.783ZM847.795 632.877C848.892 632.423 850.004 632.016 851.127 631.658L849.911 627.847C848.682 628.24 847.465 628.685 846.264 629.182L847.795 632.877ZM852.426 630.356L856.958 616.026L853.144 614.82L848.612 629.15L852.426 630.356ZM855.364 617.398C861.085 616.494 866.915 616.494 872.636 617.398L873.261 613.447C867.126 612.477 860.874 612.477 854.739 613.447L855.364 617.398ZM871.042 616.026L875.574 630.356L879.388 629.15L874.856 614.82L871.042 616.026ZM876.873 631.658C877.996 632.016 879.108 632.423 880.205 632.877L881.736 629.182C880.535 628.685 879.318 628.24 878.089 627.847L876.873 631.658ZM880.205 632.877C882.782 633.945 885.228 635.256 887.514 636.783L889.736 633.456C887.233 631.785 884.556 630.35 881.736 629.182L880.205 632.877ZM889.342 636.986L903.372 631.595L901.937 627.862L887.908 633.252L889.342 636.986ZM901.305 631.204C905.561 635.097 909.202 639.649 912.074 644.709L915.553 642.734C912.473 637.308 908.569 632.427 904.004 628.253L901.305 631.204ZM912.153 642.607L903.775 655.085L907.096 657.314L915.474 644.836L912.153 642.607ZM903.567 656.912C904.988 660.638 905.864 664.515 906.195 668.427L910.181 668.089C909.818 663.808 908.859 659.565 907.304 655.487L903.567 656.912ZM907.176 669.983L920.138 677.59L922.162 674.14L909.2 666.533L907.176 669.983ZM919.154 675.73C918.767 681.461 917.486 687.145 915.311 692.57L919.024 694.059C921.356 688.241 922.73 682.145 923.145 676L919.154 675.73ZM917.004 691.321L902.025 692.551L902.352 696.538L917.331 695.308L917.004 691.321ZM900.466 693.528C898.447 696.947 895.965 700.053 893.102 702.762L895.851 705.667C898.984 702.703 901.701 699.304 903.911 695.561L900.466 693.528ZM892.497 704.498L894.631 719.376L898.59 718.808L896.456 703.93L892.497 704.498ZM895.472 717.448C892.267 719.667 888.812 721.558 885.155 723.073L886.686 726.768C890.608 725.144 894.312 723.116 897.749 720.736L895.472 717.448ZM885.155 723.073C883.431 723.787 881.681 724.41 879.91 724.942L881.061 728.773C882.96 728.202 884.837 727.534 886.686 726.768L885.155 723.073ZM881.942 725.487L871.641 714.542L868.728 717.284L879.029 728.228L881.942 725.487ZM869.905 713.933C865.988 714.484 862.012 714.484 858.094 713.933L857.537 717.894C861.824 718.497 866.176 718.497 870.463 717.894L869.905 713.933ZM856.359 714.543L846.058 725.487L848.971 728.228L859.272 717.284L856.359 714.543ZM848.09 724.942C846.319 724.41 844.569 723.787 842.845 723.073L841.314 726.768C843.162 727.534 845.04 728.202 846.939 728.773L848.09 724.942ZM842.845 723.073C839.187 721.558 835.733 719.667 832.528 717.448L830.251 720.736C833.688 723.116 837.392 725.144 841.314 726.768L842.845 723.073ZM833.369 719.376L835.503 704.499L831.543 703.931L829.41 718.808L833.369 719.376ZM834.898 702.762C832.035 700.053 829.552 696.947 827.534 693.528L824.089 695.561C826.299 699.304 829.015 702.703 832.149 705.667L834.898 702.762ZM825.975 692.551L810.996 691.321L810.669 695.308L825.648 696.538L825.975 692.551ZM812.689 692.57C810.514 687.145 809.233 681.461 808.845 675.731L804.854 676C805.27 682.145 806.644 688.241 808.976 694.059L812.689 692.57ZM807.862 677.59L820.824 669.983L818.799 666.533L805.838 674.141L807.862 677.59ZM821.805 668.427C822.136 664.515 823.012 660.638 824.433 656.912L820.695 655.487C819.14 659.565 818.181 663.808 817.819 668.089L821.805 668.427ZM824.225 655.085L815.847 642.606L812.526 644.836L820.904 657.314L824.225 655.085ZM815.926 644.709C818.798 639.649 822.438 635.097 826.695 631.204L823.996 628.252C819.431 632.427 815.527 637.308 812.447 642.734L815.926 644.709ZM872.427 692.345C867.031 694.58 860.969 694.58 855.573 692.345L854.042 696.04C860.418 698.681 867.582 698.681 873.958 696.04L872.427 692.345ZM884.345 680.427C882.11 685.823 877.823 690.11 872.427 692.345L873.958 696.04C880.334 693.399 885.399 688.334 888.04 681.958L884.345 680.427ZM884.345 663.573C886.58 668.969 886.58 675.032 884.345 680.427L888.04 681.958C890.681 675.582 890.681 668.418 888.04 662.043L884.345 663.573ZM872.427 651.656C877.823 653.891 882.11 658.178 884.345 663.573L888.04 662.043C885.399 655.667 880.334 650.601 873.958 647.96L872.427 651.656ZM855.573 651.656C860.969 649.421 867.031 649.421 872.427 651.656L873.958 647.96C867.582 645.319 860.418 645.319 854.042 647.96L855.573 651.656ZM843.655 663.573C845.89 658.178 850.177 653.891 855.573 651.656L854.042 647.96C847.666 650.601 842.601 655.667 839.96 662.043L843.655 663.573ZM843.655 680.427C841.42 675.032 841.42 668.969 843.655 663.573L839.96 662.043C837.319 668.418 837.319 675.582 839.96 681.958L843.655 680.427ZM855.573 692.345C850.177 690.11 845.89 685.823 843.655 680.427L839.96 681.958C842.601 688.334 847.666 693.399 854.042 696.04L855.573 692.345Z" fill="#FFA500"/>
<path d="M859.757 682.243C862.474 683.368 865.526 683.368 868.243 682.243C870.959 681.117 873.118 678.959 874.243 676.243C875.368 673.526 875.368 670.474 874.243 667.757C873.118 665.041 870.959 662.883 868.243 661.757C865.526 660.632 862.474 660.632 859.757 661.757C857.041 662.883 854.883 665.041 853.757 667.757C852.632 670.474 852.632 673.526 853.757 676.243C854.883 678.959 857.041 681.117 859.757 682.243Z" fill="#FFD700" stroke="#FFD700" stroke-width="4" stroke-linecap="round" stroke-linejoin="round"/>
<g opacity="0.25">
<path d="M512 238.839L539.713 326.454L625.492 293.494L574.27 369.788L653.522 416.302L561.936 423.823L574.983 514.786L512 447.871L449.017 514.786L462.064 423.823L370.478 416.302L449.73 369.788L398.508 293.494L484.287 326.454L512 238.839Z" stroke="currentColor" stroke-width="2.41935" stroke-linecap="round" stroke-linejoin="round"/>
<path d="M553.058 483.122C526.769 494.011 497.231 494.011 470.942 483.122V483.122C444.653 472.233 423.767 451.347 412.878 425.058V425.058C401.988 398.769 401.988 369.231 412.878 342.942V342.942C423.767 316.653 444.653 295.767 470.942 284.878V284.878C497.231 273.988 526.769 273.988 553.058 284.878V284.878C579.347 295.767 600.233 316.653 611.122 342.942V342.942C622.012 369.231 622.012 398.769 611.122 425.058V425.058C600.233 451.347 579.347 472.233 553.058 483.122V483.122Z" stroke="currentColor" stroke-width="2.41935" stroke-linecap="round" stroke-linejoin="round"/>
<path d="M489.76 437.691C504 443.59 520 443.59 534.24 437.691V437.691C548.479 431.793 559.793 420.48 565.691 406.24V406.24C571.59 392 571.59 376 565.691 361.76V361.76C559.793 347.521 548.479 336.207 534.24 330.309V330.309C520 324.411 504 324.411 489.76 330.309V330.309C475.521 336.207 464.207 347.521 458.309 361.76V361.76C452.41 376 452.41 392 458.309 406.24V406.24C464.207 420.48 475.521 431.793 489.76 437.691V437.691Z" stroke="currentColor" stroke-width="2.41935" stroke-linecap="round" stroke-linejoin="round"/>
<path d="M565.033 512.033C531.077 526.098 492.923 526.098 458.967 512.033V512.033C425.011 497.968 398.032 470.989 383.967 437.033V437.033C369.902 403.077 369.902 364.923 383.967 330.967V330.967C398.032 297.011 425.011 270.032 458.967 255.967V255.967C492.923 241.902 531.077 241.902 565.033 255.967V255.967C598.989 270.032 625.968 297.011 640.033 330.967V330.967C654.098 364.923 654.098 403.077 640.033 437.033V437.033C625.968 470.989 598.989 497.968 565.033 512.033V512.033Z" stroke="currentColor" stroke-width="2.41935" stroke-linecap="round" stroke-linejoin="round"/>
</g>
</svg>
