<svg viewBox="0 0 1024 768" fill="none" xmlns="http://www.w3.org/2000/svg">
<path d="M424 36L435.021 69.3923L466.426 53.5736L450.608 84.9787L484 96L450.608 107.021L466.426 138.426L435.021 122.608L424 156L412.979 122.608L381.574 138.426L397.392 107.021L364 96L397.392 84.9787L381.574 53.5736L412.979 69.3923L424 36Z" stroke="#7B61FF" stroke-width="2" stroke-linecap="round" stroke-linejoin="round"/>
<path d="M578.787 147.213C592.369 152.839 607.631 152.839 621.213 147.213V147.213C634.796 141.587 645.587 130.796 651.213 117.213V117.213C656.839 103.631 656.839 88.3694 651.213 74.7868V74.7868C645.587 61.2042 634.796 50.4129 621.213 44.7868V44.7868C607.631 39.1607 592.369 39.1607 578.787 44.7868V44.7868C565.204 50.4129 554.413 61.2042 548.787 74.7868V74.7868C543.161 88.3694 543.161 103.631 548.787 117.213V117.213C554.413 130.796 565.204 141.587 578.787 147.213V147.213Z" stroke="#7B61FF" stroke-width="2" stroke-linecap="round" stroke-linejoin="round"/>
<path fill-rule="evenodd" clip-rule="evenodd" d="M426.841 268.871L460.497 285.823C463.445 284.277 466.473 282.858 469.573 281.574C472.674 280.29 475.818 279.152 478.996 278.161L490.807 242.375C504.856 240.273 519.143 240.273 533.192 242.375L545.004 278.161C548.182 279.152 551.326 280.29 554.426 281.574C557.526 282.858 560.554 284.277 563.502 285.823L597.158 268.871C608.578 277.319 618.681 287.421 627.129 298.842L610.177 332.498C611.723 335.446 613.142 338.473 614.426 341.574C615.71 344.674 616.848 347.818 617.839 350.996L653.625 362.807C655.726 376.856 655.726 391.144 653.625 405.193L617.839 417.004C616.848 420.182 615.71 423.326 614.426 426.427C613.142 429.527 611.723 432.555 610.177 435.503L627.129 469.159C618.681 480.579 608.578 490.682 597.158 499.13L563.502 482.177C560.554 483.724 557.526 485.142 554.426 486.427C551.326 487.711 548.182 488.848 545.004 489.84L533.192 525.625C519.143 527.727 504.856 527.727 490.807 525.625L478.996 489.84C475.818 488.848 472.674 487.711 469.573 486.427C466.473 485.142 463.445 483.724 460.497 482.177L426.841 499.13C415.421 490.682 405.318 480.579 396.87 469.158L413.823 435.503C412.276 432.555 410.857 429.527 409.573 426.427C408.289 423.326 407.151 420.182 406.16 417.004L370.375 405.193C368.273 391.144 368.273 376.856 370.375 362.807L406.16 350.996C407.151 347.818 408.289 344.674 409.573 341.574C410.857 338.473 412.276 335.446 413.823 332.498L396.87 298.842C405.318 287.421 415.421 277.319 426.841 268.871ZM534.981 439.481C549.695 433.386 561.386 421.696 567.481 406.981C573.576 392.267 573.576 375.734 567.481 361.019C561.386 346.305 549.695 334.614 534.981 328.519C520.266 322.424 503.733 322.424 489.019 328.519C474.304 334.614 462.614 346.305 456.519 361.019C450.424 375.734 450.424 392.267 456.519 406.981C462.614 421.696 474.304 433.386 489.019 439.481C503.733 445.576 520.266 445.576 534.981 439.481Z" fill="#888888" fill-opacity="0.5"/>
<path d="M426.841 268.871L429.091 264.405C427.405 263.556 425.385 263.729 423.868 264.851L426.841 268.871ZM460.497 285.823L458.248 290.289C459.689 291.014 461.391 291 462.82 290.251L460.497 285.823ZM478.996 278.161L480.484 282.934C482.024 282.454 483.238 281.26 483.744 279.728L478.996 278.161ZM490.807 242.375L490.067 237.43C488.201 237.71 486.65 239.016 486.059 240.808L490.807 242.375ZM533.192 242.375L537.941 240.808C537.349 239.016 535.799 237.71 533.932 237.43L533.192 242.375ZM545.004 278.161L540.256 279.728C540.761 281.26 541.975 282.454 543.515 282.934L545.004 278.161ZM563.502 285.823L561.179 290.251C562.608 291 564.311 291.014 565.751 290.289L563.502 285.823ZM597.158 268.871L600.131 264.851C598.614 263.729 596.594 263.556 594.909 264.405L597.158 268.871ZM627.129 298.842L631.595 301.091C632.444 299.406 632.271 297.386 631.149 295.868L627.129 298.842ZM610.177 332.498L605.711 330.248C604.986 331.689 605 333.392 605.749 334.82L610.177 332.498ZM614.426 341.574L619.045 339.66L614.426 341.574ZM617.839 350.996L613.066 352.485C613.546 354.025 614.74 355.239 616.272 355.744L617.839 350.996ZM653.625 362.807L658.57 362.068C658.29 360.201 656.984 358.651 655.192 358.059L653.625 362.807ZM653.625 405.193L655.192 409.941C656.984 409.35 658.29 407.799 658.57 405.933L653.625 405.193ZM617.839 417.004L616.272 412.256C614.74 412.762 613.546 413.975 613.066 415.516L617.839 417.004ZM614.426 426.427L619.045 428.34V428.34L614.426 426.427ZM610.177 435.503L605.749 433.18C605 434.609 604.986 436.311 605.711 437.752L610.177 435.503ZM627.129 469.159L631.149 472.132C632.271 470.615 632.444 468.595 631.595 466.909L627.129 469.159ZM597.158 499.13L594.909 503.595C596.594 504.444 598.614 504.272 600.132 503.149L597.158 499.13ZM563.502 482.177L565.751 477.712C564.311 476.986 562.608 477 561.179 477.749L563.502 482.177ZM545.004 489.84L543.515 485.066C541.975 485.547 540.761 486.74 540.256 488.272L545.004 489.84ZM533.192 525.625L533.932 530.57C535.799 530.291 537.349 528.984 537.941 527.192L533.192 525.625ZM490.807 525.625L486.059 527.192C486.65 528.984 488.201 530.291 490.067 530.57L490.807 525.625ZM478.996 489.84L483.744 488.272C483.238 486.74 482.024 485.547 480.484 485.066L478.996 489.84ZM460.497 482.177L462.82 477.749C461.391 477 459.689 476.986 458.248 477.712L460.497 482.177ZM426.841 499.13L423.868 503.149C425.385 504.272 427.405 504.444 429.091 503.595L426.841 499.13ZM396.87 469.158L392.405 466.909C391.556 468.595 391.728 470.615 392.85 472.132L396.87 469.158ZM413.823 435.503L418.288 437.752C419.014 436.311 419 434.609 418.25 433.18L413.823 435.503ZM406.16 417.004L410.934 415.516C410.453 413.975 409.259 412.762 407.727 412.256L406.16 417.004ZM370.375 405.193L365.43 405.933C365.709 407.799 367.015 409.35 368.808 409.941L370.375 405.193ZM370.375 362.807L368.808 358.059C367.015 358.651 365.709 360.201 365.43 362.068L370.375 362.807ZM406.16 350.996L407.727 355.744C409.259 355.239 410.453 354.025 410.934 352.485L406.16 350.996ZM409.573 341.574L404.954 339.66L404.954 339.66L409.573 341.574ZM413.823 332.498L418.25 334.82C419 333.392 419.014 331.689 418.288 330.248L413.823 332.498ZM396.87 298.842L392.85 295.868C391.728 297.386 391.556 299.406 392.405 301.091L396.87 298.842ZM567.481 406.981L562.861 405.068L567.481 406.981ZM534.981 439.481L533.067 434.862L534.981 439.481ZM567.481 361.019L562.861 362.933L567.481 361.019ZM534.981 328.519L533.067 333.139L534.981 328.519ZM489.019 328.519L490.932 333.139H490.932L489.019 328.519ZM456.519 361.019L461.138 362.933V362.933L456.519 361.019ZM456.519 406.981L461.138 405.068L456.519 406.981ZM489.019 439.481L490.932 434.862L489.019 439.481ZM424.592 273.336L458.248 290.289L462.747 281.358L429.091 264.405L424.592 273.336ZM462.82 290.251C465.635 288.774 468.526 287.42 471.487 286.193L467.66 276.954C464.42 278.296 461.256 279.779 458.175 281.395L462.82 290.251ZM471.487 286.193C474.447 284.967 477.45 283.88 480.484 282.934L477.507 273.388C474.186 274.423 470.9 275.612 467.66 276.954L471.487 286.193ZM483.744 279.728L495.555 243.942L486.059 240.808L474.248 276.594L483.744 279.728ZM491.547 247.32C505.105 245.292 518.894 245.292 532.453 247.32L533.932 237.43C519.393 235.255 504.607 235.255 490.067 237.43L491.547 247.32ZM528.444 243.942L540.256 279.728L549.752 276.594L537.941 240.808L528.444 243.942ZM543.515 282.934C546.55 283.88 549.552 284.967 552.513 286.193L556.339 276.954C553.099 275.612 549.814 274.423 546.492 273.388L543.515 282.934ZM552.513 286.193C555.473 287.42 558.365 288.774 561.179 290.251L565.825 281.395C562.744 279.779 559.58 278.296 556.339 276.954L552.513 286.193ZM565.751 290.289L599.407 273.336L594.909 264.405L561.253 281.358L565.751 290.289ZM594.185 272.89C605.206 281.043 614.956 290.794 623.109 301.815L631.149 295.868C622.406 284.049 611.951 273.594 600.131 264.851L594.185 272.89ZM622.664 296.593L605.711 330.248L614.642 334.747L631.595 301.091L622.664 296.593ZM605.749 334.82C607.225 337.635 608.58 340.526 609.807 343.487L619.045 339.66C617.703 336.42 616.221 333.256 614.605 330.175L605.749 334.82ZM609.807 343.487C611.033 346.448 612.119 349.45 613.066 352.485L622.612 349.508C621.577 346.186 620.388 342.9 619.045 339.66L609.807 343.487ZM616.272 355.744L652.057 367.555L655.192 358.059L619.406 346.248L616.272 355.744ZM648.68 363.547C650.708 377.106 650.708 390.895 648.68 404.453L658.57 405.933C660.745 391.393 660.745 376.607 658.57 362.068L648.68 363.547ZM652.057 400.445L616.272 412.256L619.406 421.752L655.192 409.941L652.057 400.445ZM613.066 415.516C612.119 418.55 611.033 421.552 609.807 424.513L619.045 428.34C620.388 425.1 621.577 421.814 622.612 418.493L613.066 415.516ZM609.807 424.513C608.58 427.474 607.225 430.365 605.749 433.18L614.605 437.825C616.221 434.744 617.703 431.58 619.045 428.34L609.807 424.513ZM605.711 437.752L622.664 471.408L631.595 466.909L614.642 433.253L605.711 437.752ZM623.109 466.185C614.956 477.207 605.206 486.957 594.185 495.11L600.132 503.149C611.951 494.407 622.406 483.951 631.149 472.132L623.109 466.185ZM599.407 494.664L565.751 477.712L561.253 486.643L594.909 503.595L599.407 494.664ZM561.179 477.749C558.365 479.226 555.473 480.581 552.513 481.807L556.34 491.046C559.58 489.704 562.744 488.221 565.825 486.605L561.179 477.749ZM552.513 481.807C549.552 483.034 546.55 484.12 543.515 485.066L546.492 494.613C549.814 493.577 553.099 492.388 556.34 491.046L552.513 481.807ZM540.256 488.272L528.444 524.058L537.941 527.192L549.752 491.407L540.256 488.272ZM532.453 520.68C518.894 522.709 505.105 522.709 491.547 520.68L490.067 530.57C504.607 532.745 519.393 532.745 533.932 530.57L532.453 520.68ZM495.555 524.058L483.744 488.272L474.248 491.407L486.059 527.192L495.555 524.058ZM480.484 485.066C477.45 484.12 474.447 483.034 471.487 481.807L467.66 491.046C470.9 492.388 474.186 493.577 477.507 494.613L480.484 485.066ZM471.487 481.807C468.526 480.581 465.635 479.226 462.82 477.749L458.175 486.605C461.256 488.221 464.42 489.704 467.66 491.046L471.487 481.807ZM458.248 477.712L424.592 494.664L429.091 503.595L462.746 486.643L458.248 477.712ZM429.815 495.11C418.793 486.957 409.043 477.207 400.89 466.185L392.85 472.132C401.593 483.951 412.049 494.407 423.868 503.149L429.815 495.11ZM401.336 471.408L418.288 437.752L409.357 433.253L392.405 466.909L401.336 471.408ZM418.25 433.18C416.774 430.365 415.419 427.474 414.193 424.513L404.954 428.34C406.296 431.58 407.779 434.744 409.395 437.825L418.25 433.18ZM414.193 424.513C412.966 421.552 411.88 418.55 410.934 415.516L401.387 418.493C402.423 421.814 403.612 425.1 404.954 428.34L414.193 424.513ZM407.727 412.256L371.942 400.445L368.808 409.941L404.593 421.752L407.727 412.256ZM375.32 404.453C373.291 390.895 373.291 377.106 375.32 363.547L365.43 362.068C363.255 376.607 363.255 391.393 365.43 405.933L375.32 404.453ZM371.942 367.555L407.727 355.744L404.593 346.248L368.808 358.059L371.942 367.555ZM410.934 352.485C411.88 349.45 412.966 346.448 414.193 343.487L404.954 339.66C403.612 342.9 402.423 346.186 401.387 349.508L410.934 352.485ZM414.193 343.487C415.419 340.526 416.774 337.635 418.25 334.82L409.395 330.175C407.779 333.256 406.296 336.42 404.954 339.66L414.193 343.487ZM418.288 330.248L401.336 296.593L392.405 301.091L409.357 334.747L418.288 330.248ZM400.89 301.815C409.043 290.794 418.793 281.043 429.815 272.89L423.868 264.851C412.049 273.594 401.593 284.049 392.85 295.868L400.89 301.815ZM562.861 405.068C557.274 418.557 546.557 429.274 533.067 434.862L536.894 444.101C552.834 437.498 565.498 424.834 572.1 408.895L562.861 405.068ZM562.861 362.933C568.449 376.422 568.449 391.578 562.861 405.068L572.1 408.895C578.702 392.955 578.702 375.045 572.1 359.106L562.861 362.933ZM533.067 333.139C546.557 338.726 557.274 349.443 562.861 362.933L572.1 359.106C565.498 343.166 552.834 330.502 536.894 323.9L533.067 333.139ZM490.932 333.139C504.421 327.551 519.578 327.551 533.067 333.139L536.894 323.9C520.954 317.297 503.045 317.297 487.105 323.9L490.932 333.139ZM461.138 362.933C466.726 349.443 477.443 338.726 490.932 333.139L487.105 323.9C471.166 330.502 458.502 343.166 451.899 359.106L461.138 362.933ZM461.138 405.068C455.551 391.578 455.551 376.422 461.138 362.933L451.899 359.106C445.297 375.045 445.297 392.955 451.899 408.895L461.138 405.068ZM490.932 434.862C477.443 429.274 466.726 418.557 461.138 405.068L451.899 408.895C458.502 424.834 471.166 437.498 487.105 444.101L490.932 434.862ZM533.067 434.862C519.578 440.449 504.421 440.449 490.932 434.862L487.105 444.101C503.045 450.703 520.954 450.703 536.894 444.101L533.067 434.862Z" fill="currentColor"/>
<path d="M501.393 409.607C508.185 412.42 515.815 412.42 522.607 409.607C529.398 406.794 534.794 401.398 537.607 394.607C540.42 387.815 540.42 380.185 537.607 373.393C534.794 366.602 529.398 361.206 522.607 358.393C515.815 355.58 508.185 355.58 501.393 358.393C494.602 361.206 489.206 366.602 486.393 373.393C483.58 380.185 483.58 387.815 486.393 394.607C489.206 401.398 494.602 406.794 501.393 409.607Z" fill="#888888" fill-opacity="0.5" stroke="currentColor" stroke-width="10" stroke-linecap="round" stroke-linejoin="round"/>
<path d="M125.937 625.948L126.387 625.055C126.049 624.886 125.645 624.92 125.342 625.144L125.937 625.948ZM139.399 632.729L138.949 633.622C139.237 633.768 139.578 633.765 139.864 633.615L139.399 632.729ZM143.029 631.03L142.647 630.106L143.029 631.03ZM146.799 629.664L147.096 630.619C147.404 630.523 147.647 630.284 147.748 629.978L146.799 629.664ZM151.523 615.35L151.375 614.361C151.002 614.417 150.692 614.678 150.573 615.037L151.523 615.35ZM168.477 615.35L169.427 615.037C169.309 614.678 168.999 614.417 168.625 614.361L168.477 615.35ZM173.202 629.665L172.252 629.978C172.353 630.284 172.596 630.523 172.904 630.619L173.202 629.665ZM176.971 631.03L177.353 630.106L176.971 631.03ZM180.601 632.729L180.136 633.615C180.422 633.765 180.763 633.768 181.051 633.623L180.601 632.729ZM194.063 625.948L194.658 625.145C194.355 624.92 193.951 624.886 193.614 625.055L194.063 625.948ZM206.052 637.937L206.945 638.387C207.115 638.05 207.08 637.646 206.856 637.342L206.052 637.937ZM199.271 651.399L198.378 650.95C198.233 651.238 198.235 651.578 198.385 651.864L199.271 651.399ZM200.971 655.03L201.894 654.647L200.971 655.03ZM202.336 658.799L201.381 659.096C201.477 659.404 201.716 659.647 202.022 659.748L202.336 658.799ZM216.65 663.523L217.639 663.375C217.583 663.002 217.322 662.692 216.963 662.573L216.65 663.523ZM216.65 680.477L216.963 681.427C217.322 681.309 217.583 680.999 217.639 680.625L216.65 680.477ZM202.336 685.202L202.022 684.252C201.716 684.353 201.477 684.596 201.381 684.904L202.336 685.202ZM200.971 688.971L201.894 689.354L200.971 688.971ZM199.271 692.601L198.385 692.137C198.235 692.422 198.233 692.763 198.378 693.051L199.271 692.601ZM206.052 706.064L206.856 706.658C207.08 706.355 207.115 705.951 206.945 705.614L206.052 706.064ZM194.063 718.052L193.614 718.945C193.951 719.115 194.355 719.08 194.658 718.856L194.063 718.052ZM180.601 711.271L181.051 710.378C180.763 710.233 180.422 710.236 180.137 710.385L180.601 711.271ZM176.971 712.971L176.588 712.047V712.047L176.971 712.971ZM173.202 714.336L172.904 713.381C172.596 713.477 172.353 713.716 172.252 714.023L173.202 714.336ZM168.477 728.65L168.625 729.639C168.998 729.583 169.309 729.322 169.427 728.964L168.477 728.65ZM151.523 728.65L150.573 728.964C150.692 729.322 151.002 729.583 151.375 729.639L151.523 728.65ZM146.799 714.336L147.748 714.023C147.647 713.716 147.404 713.477 147.096 713.381L146.799 714.336ZM143.029 712.971L143.412 712.047L143.412 712.047L143.029 712.971ZM139.399 711.271L139.864 710.386C139.578 710.236 139.237 710.233 138.949 710.378L139.399 711.271ZM125.937 718.052L125.342 718.856C125.645 719.08 126.049 719.115 126.387 718.945L125.937 718.052ZM113.948 706.064L113.055 705.614C112.885 705.951 112.92 706.355 113.144 706.658L113.948 706.064ZM120.729 692.601L121.622 693.051C121.767 692.763 121.765 692.423 121.615 692.137L120.729 692.601ZM119.029 688.971L118.106 689.354H118.106L119.029 688.971ZM117.664 685.202L118.619 684.904C118.523 684.596 118.284 684.353 117.978 684.252L117.664 685.202ZM103.35 680.477L102.361 680.625C102.417 680.999 102.678 681.309 103.037 681.427L103.35 680.477ZM103.35 663.523L103.037 662.574C102.678 662.692 102.417 663.002 102.361 663.375L103.35 663.523ZM117.664 658.799L117.978 659.748C118.284 659.647 118.523 659.404 118.619 659.096L117.664 658.799ZM119.029 655.03L118.106 654.647L118.106 654.647L119.029 655.03ZM120.729 651.399L121.615 651.864C121.765 651.578 121.767 651.238 121.622 650.949L120.729 651.399ZM113.948 637.937L113.144 637.342C112.92 637.646 112.885 638.05 113.055 638.387L113.948 637.937ZM150.808 694.193L151.19 693.269L150.808 694.193ZM182.193 681.193L183.116 681.575L182.193 681.193ZM137.808 681.193L136.884 681.575L137.808 681.193ZM125.487 626.842L138.949 633.622L139.849 631.836L126.387 625.055L125.487 626.842ZM139.864 633.615C141.016 633.01 142.2 632.456 143.412 631.954L142.647 630.106C141.379 630.631 140.14 631.211 138.935 631.844L139.864 633.615ZM143.412 631.954C144.624 631.451 145.854 631.007 147.096 630.619L146.501 628.71C145.201 629.115 143.915 629.581 142.647 630.106L143.412 631.954ZM147.748 629.978L152.473 615.664L150.573 615.037L145.849 629.351L147.748 629.978ZM151.671 616.339C157.192 615.513 162.808 615.513 168.329 616.339L168.625 614.361C162.907 613.506 157.093 613.506 151.375 614.361L151.671 616.339ZM167.528 615.664L172.252 629.978L174.151 629.351L169.427 615.037L167.528 615.664ZM172.904 630.619C174.146 631.007 175.376 631.451 176.588 631.954L177.353 630.106C176.085 629.581 174.799 629.115 173.499 628.71L172.904 630.619ZM176.588 631.954C177.8 632.456 178.984 633.01 180.136 633.615L181.066 631.844C179.86 631.211 178.621 630.631 177.353 630.106L176.588 631.954ZM181.051 633.623L194.513 626.842L193.614 625.055L180.151 631.836L181.051 633.623ZM193.469 626.752C197.957 630.073 201.928 634.043 205.248 638.532L206.856 637.342C203.418 632.694 199.306 628.583 194.658 625.145L193.469 626.752ZM205.159 637.487L198.378 650.95L200.164 651.849L206.945 638.387L205.159 637.487ZM198.385 651.864C198.99 653.016 199.545 654.2 200.047 655.412L201.894 654.647C201.369 653.379 200.789 652.141 200.156 650.935L198.385 651.864ZM200.047 655.412C200.549 656.625 200.994 657.854 201.381 659.096L203.29 658.501C202.885 657.201 202.42 655.915 201.894 654.647L200.047 655.412ZM202.022 659.748L216.337 664.473L216.963 662.573L202.649 657.849L202.022 659.748ZM215.661 663.671C216.487 669.193 216.487 674.808 215.661 680.329L217.639 680.625C218.494 674.908 218.494 669.093 217.639 663.375L215.661 663.671ZM216.337 679.528L202.022 684.252L202.649 686.151L216.963 681.427L216.337 679.528ZM201.381 684.904C200.994 686.147 200.549 687.376 200.047 688.588L201.894 689.354C202.42 688.085 202.885 686.799 203.29 685.5L201.381 684.904ZM200.047 688.588C199.545 689.8 198.99 690.984 198.385 692.137L200.156 693.066C200.789 691.86 201.369 690.622 201.894 689.354L200.047 688.588ZM198.378 693.051L205.159 706.513L206.945 705.614L200.164 692.151L198.378 693.051ZM205.248 705.469C201.928 709.957 197.957 713.928 193.469 717.248L194.658 718.856C199.306 715.418 203.418 711.306 206.856 706.658L205.248 705.469ZM194.513 717.159L181.051 710.378L180.151 712.164L193.614 718.945L194.513 717.159ZM180.137 710.385C178.984 710.99 177.8 711.545 176.588 712.047L177.353 713.895C178.621 713.369 179.86 712.789 181.066 712.157L180.137 710.385ZM176.588 712.047C175.376 712.549 174.146 712.994 172.904 713.381L173.499 715.291C174.799 714.885 176.085 714.42 177.353 713.895L176.588 712.047ZM172.252 714.023L167.528 728.337L169.427 728.964L174.151 714.649L172.252 714.023ZM168.329 727.661C162.808 728.487 157.192 728.487 151.671 727.661L151.375 729.639C157.093 730.495 162.907 730.495 168.625 729.639L168.329 727.661ZM152.473 728.337L147.748 714.023L145.849 714.649L150.573 728.964L152.473 728.337ZM147.096 713.381C145.854 712.994 144.624 712.549 143.412 712.047L142.647 713.895C143.915 714.42 145.201 714.885 146.501 715.291L147.096 713.381ZM143.412 712.047C142.2 711.545 141.016 710.99 139.864 710.386L138.935 712.157C140.14 712.789 141.379 713.369 142.647 713.895L143.412 712.047ZM138.949 710.378L125.487 717.159L126.387 718.945L139.849 712.164L138.949 710.378ZM126.531 717.248C122.043 713.928 118.072 709.957 114.752 705.469L113.144 706.658C116.582 711.306 120.694 715.418 125.342 718.856L126.531 717.248ZM114.841 706.514L121.622 693.051L119.836 692.151L113.055 705.614L114.841 706.514ZM121.615 692.137C121.01 690.984 120.455 689.8 119.953 688.588L118.106 689.354C118.631 690.622 119.211 691.86 119.844 693.066L121.615 692.137ZM119.953 688.588C119.451 687.376 119.006 686.147 118.619 684.904L116.71 685.5C117.115 686.799 117.58 688.085 118.106 689.354L119.953 688.588ZM117.978 684.252L103.663 679.528L103.037 681.427L117.351 686.151L117.978 684.252ZM104.339 680.329C103.513 674.808 103.513 669.193 104.339 663.671L102.361 663.375C101.506 669.093 101.506 674.908 102.361 680.625L104.339 680.329ZM103.663 664.473L117.978 659.748L117.351 657.849L103.037 662.574L103.663 664.473ZM118.619 659.096C119.006 657.854 119.451 656.625 119.953 655.412L118.106 654.647C117.58 655.915 117.115 657.201 116.71 658.501L118.619 659.096ZM119.953 655.412C120.455 654.2 121.01 653.016 121.615 651.864L119.844 650.935C119.211 652.14 118.631 653.379 118.106 654.647L119.953 655.412ZM121.622 650.949L114.841 637.487L113.055 638.387L119.836 651.849L121.622 650.949ZM114.752 638.532C118.072 634.043 122.043 630.073 126.531 626.752L125.342 625.144C120.694 628.583 116.582 632.694 113.144 637.342L114.752 638.532ZM168.81 693.269C163.169 695.605 156.831 695.605 151.19 693.269L150.425 695.117C156.556 697.656 163.444 697.656 169.575 695.117L168.81 693.269ZM181.269 680.81C178.932 686.451 174.451 690.932 168.81 693.269L169.575 695.117C175.706 692.577 180.577 687.706 183.116 681.575L181.269 680.81ZM181.269 663.191C183.605 668.831 183.605 675.169 181.269 680.81L183.116 681.575C185.656 675.445 185.656 668.556 183.116 662.425L181.269 663.191ZM168.81 650.732C174.451 653.068 178.932 657.55 181.269 663.191L183.116 662.425C180.577 656.294 175.706 651.423 169.575 648.884L168.81 650.732ZM151.19 650.732C156.831 648.395 163.169 648.395 168.81 650.732L169.575 648.884C163.444 646.345 156.556 646.345 150.425 648.884L151.19 650.732ZM138.732 663.191C141.068 657.55 145.55 653.068 151.19 650.732L150.425 648.884C144.294 651.423 139.423 656.294 136.884 662.425L138.732 663.191ZM138.732 680.81C136.395 675.169 136.395 668.831 138.732 663.191L136.884 662.425C134.344 668.556 134.344 675.445 136.884 681.575L138.732 680.81ZM151.19 693.269C145.55 690.932 141.068 686.451 138.732 680.81L136.884 681.575C139.423 687.706 144.294 692.577 150.425 695.117L151.19 693.269Z" fill="currentColor"/>
<path d="M155.757 682.243C158.474 683.368 161.526 683.368 164.243 682.243V682.243C166.959 681.117 169.117 678.959 170.243 676.243V676.243C171.368 673.526 171.368 670.474 170.243 667.757V667.757C169.117 665.041 166.959 662.883 164.243 661.757V661.757C161.526 660.632 158.474 660.632 155.757 661.757V661.757C153.041 662.883 150.883 665.041 149.757 667.757V667.757C148.632 670.474 148.632 673.526 149.757 676.243V676.243C150.883 678.959 153.041 681.117 155.757 682.243V682.243Z" stroke="currentColor" stroke-width="2" stroke-linecap="round" stroke-linejoin="round"/>
<path fill-rule="evenodd" clip-rule="evenodd" d="M341.774 685.938C338.077 687.47 333.923 687.47 330.227 685.938C326.53 684.407 323.593 681.47 322.062 677.774C320.531 674.077 320.531 669.924 322.062 666.227C323.593 662.53 326.53 659.593 330.227 658.062C333.923 656.531 338.077 656.531 341.774 658.062C345.47 659.593 348.407 662.53 349.938 666.227C351.47 669.924 351.47 674.077 349.938 677.774C348.407 681.47 345.47 684.407 341.774 685.938ZM333.288 678.547C335.025 679.267 336.976 679.267 338.712 678.547C340.449 677.828 341.828 676.449 342.547 674.712C343.267 672.976 343.267 671.025 342.547 669.288C341.828 667.552 340.449 666.172 338.712 665.453C336.976 664.734 335.025 664.734 333.288 665.453C331.552 666.172 330.172 667.552 329.453 669.288C328.734 671.025 328.734 672.976 329.453 674.712C330.172 676.449 331.552 677.828 333.288 678.547Z" stroke="currentColor" stroke-linecap="round" stroke-linejoin="round"/>
<path fill-rule="evenodd" clip-rule="evenodd" d="M346.723 646.112C339.857 643.268 332.143 643.268 325.277 646.112C318.411 648.956 312.956 654.411 310.112 661.277C307.268 668.143 307.268 675.857 310.112 682.723C312.956 689.589 318.411 695.044 325.277 697.888C332.143 700.732 339.857 700.732 346.723 697.888C353.589 695.044 359.044 689.589 361.888 682.723C364.732 675.857 364.732 668.143 361.888 661.277C359.044 654.411 353.589 648.956 346.723 646.112ZM328.339 653.503C333.244 651.471 338.756 651.471 343.662 653.503C348.568 655.535 352.465 659.433 354.497 664.339C356.529 669.244 356.529 674.756 354.497 679.662C352.465 684.568 348.568 688.465 343.662 690.497C338.756 692.529 333.244 692.529 328.339 690.497C323.433 688.465 319.535 684.568 317.503 679.662C315.471 674.756 315.471 669.244 317.503 664.339C319.535 659.433 323.433 655.535 328.339 653.503Z" stroke="currentColor" stroke-linecap="round" stroke-linejoin="round"/>
<path fill-rule="evenodd" clip-rule="evenodd" d="M345.069 611.394C339.057 610.495 332.943 610.495 326.931 611.394C325.438 611.618 324.198 612.663 323.725 614.097L319.627 626.511C318.913 626.768 318.203 627.042 317.499 627.334C316.794 627.626 316.098 627.934 315.412 628.257L303.736 622.376C302.388 621.697 300.772 621.835 299.558 622.733C294.671 626.348 290.348 630.671 286.732 635.558C285.835 636.772 285.697 638.388 286.376 639.736L292.257 651.412C291.933 652.099 291.626 652.794 291.334 653.499C291.042 654.203 290.768 654.913 290.511 655.627L278.096 659.725C276.663 660.198 275.617 661.438 275.394 662.931C274.495 668.943 274.495 675.057 275.394 681.069C275.617 682.562 276.663 683.803 278.096 684.276L290.511 688.373C290.768 689.087 291.042 689.797 291.334 690.502C291.626 691.206 291.933 691.902 292.257 692.589L286.376 704.264C285.697 705.613 285.835 707.229 286.732 708.442C290.348 713.33 294.671 717.653 299.558 721.268C300.772 722.166 302.388 722.304 303.736 721.624L315.412 715.744C316.098 716.067 316.794 716.375 317.499 716.666C318.203 716.958 318.913 717.233 319.627 717.49L323.725 729.904C324.198 731.338 325.438 732.383 326.931 732.606C332.943 733.506 339.057 733.506 345.069 732.606C346.562 732.383 347.802 731.338 348.276 729.904L352.373 717.49C353.087 717.233 353.797 716.958 354.501 716.666C355.206 716.375 355.902 716.067 356.589 715.744L368.264 721.624C369.612 722.304 371.228 722.166 372.442 721.268C377.329 717.653 381.653 713.329 385.268 708.442C386.166 707.228 386.303 705.613 385.624 704.264L379.743 692.589C380.067 691.902 380.374 691.206 380.666 690.502C380.958 689.797 381.232 689.087 381.489 688.373L393.904 684.276C395.337 683.803 396.383 682.562 396.606 681.069C397.505 675.057 397.505 668.943 396.606 662.931C396.383 661.438 395.337 660.198 393.904 659.725L381.489 655.627C381.232 654.913 380.958 654.203 380.666 653.499C380.374 652.795 380.067 652.099 379.743 651.412L385.624 639.736C386.303 638.388 386.166 636.772 385.268 635.558C381.653 630.671 377.329 626.348 372.442 622.733C371.228 621.835 369.612 621.697 368.264 622.376L356.588 628.257C355.902 627.934 355.206 627.626 354.501 627.334C353.797 627.042 353.087 626.768 352.373 626.511L348.276 614.097C347.802 612.663 346.562 611.618 345.069 611.394ZM326.597 630.918L330.53 619.001C334.167 618.626 337.833 618.626 341.47 619.001L345.403 630.918C345.808 632.144 346.779 633.099 348.011 633.483C349.167 633.844 350.311 634.258 351.44 634.725C352.568 635.193 353.67 635.709 354.743 636.272C355.886 636.871 357.248 636.882 358.4 636.302L369.608 630.656C372.445 632.963 375.038 635.555 377.344 638.392L371.698 649.6C371.118 650.753 371.129 652.115 371.729 653.257C372.291 654.33 372.808 655.432 373.275 656.56C373.742 657.689 374.156 658.833 374.517 659.99C374.901 661.222 375.856 662.193 377.082 662.597L388.999 666.53C389.374 670.167 389.374 673.833 388.999 677.47L377.082 681.403C375.856 681.808 374.901 682.779 374.517 684.011C374.156 685.167 373.742 686.312 373.275 687.44C372.808 688.569 372.291 689.67 371.729 690.743C371.129 691.886 371.118 693.248 371.698 694.401L377.344 705.608C375.038 708.445 372.445 711.038 369.608 713.344L358.4 707.699C357.248 707.118 355.886 707.129 354.743 707.729C353.67 708.292 352.568 708.808 351.44 709.275C350.311 709.743 349.167 710.157 348.011 710.517C346.779 710.902 345.808 711.857 345.403 713.082L341.47 724.999C337.833 725.375 334.167 725.375 330.53 724.999L326.597 713.082C326.192 711.857 325.222 710.902 323.989 710.517C322.833 710.157 321.689 709.743 320.56 709.275C319.432 708.808 318.33 708.292 317.257 707.729C316.114 707.129 314.752 707.118 313.6 707.699L302.392 713.344C299.555 711.038 296.962 708.445 294.656 705.609L300.302 694.401C300.882 693.248 300.871 691.886 300.271 690.743C299.709 689.67 299.192 688.569 298.725 687.44C298.258 686.312 297.844 685.167 297.483 684.011C297.099 682.779 296.143 681.808 294.918 681.403L283.001 677.47C282.626 673.833 282.626 670.167 283.001 666.53L294.918 662.597C296.144 662.193 297.099 661.222 297.483 659.99C297.844 658.833 298.258 657.689 298.725 656.56C299.192 655.432 299.709 654.33 300.271 653.257C300.871 652.114 300.882 650.752 300.302 649.6L294.656 638.392C296.963 635.555 299.555 632.963 302.392 630.656L313.6 636.302C314.752 636.882 316.114 636.871 317.257 636.272C318.33 635.709 319.432 635.193 320.56 634.725C321.689 634.258 322.833 633.844 323.989 633.483C325.221 633.099 326.192 632.144 326.597 630.918Z" stroke="currentColor" stroke-linecap="round" stroke-linejoin="round"/>
<path fill-rule="evenodd" clip-rule="evenodd" d="M477.937 625.948L491.399 632.729C492.578 632.111 493.789 631.543 495.029 631.03C496.27 630.516 497.527 630.061 498.799 629.664L503.523 615.35C509.143 614.51 514.858 614.51 520.477 615.35L525.202 629.665C526.473 630.061 527.73 630.516 528.971 631.03C530.211 631.543 531.422 632.111 532.601 632.729L546.063 625.948C550.632 629.328 554.673 633.369 558.052 637.937L551.271 651.399C551.889 652.579 552.457 653.79 552.971 655.03C553.484 656.27 553.939 657.527 554.336 658.799L568.65 663.523C569.491 669.143 569.491 674.858 568.65 680.477L554.336 685.202C553.939 686.473 553.484 687.731 552.971 688.971C552.457 690.211 551.889 691.422 551.271 692.601L558.052 706.064C554.673 710.632 550.632 714.673 546.063 718.052L532.601 711.271C531.422 711.89 530.211 712.457 528.971 712.971C527.73 713.485 526.473 713.94 525.202 714.336L520.477 728.65C514.858 729.491 509.143 729.491 503.523 728.65L498.799 714.336C497.527 713.94 496.27 713.485 495.029 712.971C493.789 712.457 492.578 711.89 491.399 711.271L477.937 718.052C473.369 714.673 469.327 710.632 465.948 706.064L472.729 692.601C472.111 691.422 471.543 690.211 471.029 688.971C470.516 687.731 470.061 686.473 469.664 685.202L455.35 680.477C454.509 674.858 454.509 669.143 455.35 663.523L469.664 658.799C470.061 657.528 470.516 656.27 471.029 655.03C471.543 653.79 472.111 652.578 472.729 651.399L465.948 637.937C469.327 633.369 473.369 629.328 477.937 625.948ZM502.808 694.193C508.694 696.631 515.307 696.631 521.193 694.193C527.078 691.755 531.755 687.078 534.193 681.193C536.631 675.307 536.631 668.694 534.193 662.808C531.755 656.922 527.078 652.246 521.193 649.808C515.307 647.37 508.694 647.37 502.808 649.808C496.922 652.246 492.246 656.922 489.808 662.808C487.37 668.694 487.37 675.307 489.808 681.193C492.246 687.078 496.922 691.755 502.808 694.193Z" fill="currentColor"/>
<path d="M477.937 625.948L478.836 624.162C478.162 623.823 477.354 623.892 476.747 624.341L477.937 625.948ZM491.399 632.729L490.499 634.516C491.076 634.806 491.757 634.8 492.328 634.501L491.399 632.729ZM495.029 631.03L494.264 629.182H494.264L495.029 631.03ZM498.799 629.664L499.394 631.574C500.01 631.382 500.495 630.904 500.698 630.291L498.799 629.664ZM503.523 615.35L503.227 613.372C502.48 613.484 501.86 614.007 501.624 614.723L503.523 615.35ZM520.477 615.35L522.376 614.723C522.14 614.007 521.52 613.484 520.773 613.372L520.477 615.35ZM525.202 629.665L523.303 630.291C523.505 630.904 523.99 631.382 524.606 631.574L525.202 629.665ZM528.971 631.03L529.736 629.182L528.971 631.03ZM532.601 632.729L531.672 634.501C532.243 634.8 532.924 634.806 533.501 634.516L532.601 632.729ZM546.063 625.948L547.253 624.341C546.646 623.892 545.838 623.823 545.164 624.162L546.063 625.948ZM558.052 637.937L559.838 638.837C560.178 638.162 560.109 637.355 559.66 636.748L558.052 637.937ZM551.271 651.399L549.485 650.5C549.194 651.076 549.2 651.757 549.5 652.328L551.271 651.399ZM552.971 655.03L554.818 654.264V654.264L552.971 655.03ZM554.336 658.799L552.426 659.394C552.619 660.01 553.096 660.496 553.709 660.698L554.336 658.799ZM568.65 663.523L570.628 663.227C570.516 662.481 569.994 661.86 569.277 661.624L568.65 663.523ZM568.65 680.477L569.277 682.377C569.994 682.14 570.516 681.52 570.628 680.773L568.65 680.477ZM554.336 685.202L553.709 683.303C553.096 683.505 552.619 683.99 552.426 684.606L554.336 685.202ZM552.971 688.971L554.818 689.736L552.971 688.971ZM551.271 692.601L549.5 691.672C549.2 692.244 549.194 692.925 549.485 693.501L551.271 692.601ZM558.052 706.064L559.66 707.253C560.109 706.646 560.178 705.838 559.838 705.164L558.052 706.064ZM546.063 718.052L545.164 719.838C545.838 720.178 546.646 720.109 547.253 719.66L546.063 718.052ZM532.601 711.271L533.501 709.485C532.924 709.195 532.243 709.2 531.672 709.5L532.601 711.271ZM528.971 712.971L528.205 711.123L528.205 711.123L528.971 712.971ZM525.202 714.336L524.606 712.427C523.99 712.619 523.505 713.096 523.302 713.709L525.202 714.336ZM520.477 728.65L520.773 730.628C521.52 730.516 522.14 729.994 522.376 729.277L520.477 728.65ZM503.523 728.65L501.624 729.277C501.86 729.994 502.48 730.517 503.227 730.628L503.523 728.65ZM498.799 714.336L500.698 713.709C500.496 713.096 500.01 712.619 499.394 712.427L498.799 714.336ZM495.029 712.971L495.795 711.123L495.795 711.123L495.029 712.971ZM491.399 711.271L492.328 709.5C491.757 709.2 491.076 709.195 490.499 709.485L491.399 711.271ZM477.937 718.052L476.747 719.66C477.354 720.109 478.162 720.178 478.836 719.838L477.937 718.052ZM465.948 706.064L464.162 705.164C463.822 705.838 463.891 706.646 464.34 707.253L465.948 706.064ZM472.729 692.601L474.515 693.501C474.806 692.925 474.8 692.244 474.5 691.672L472.729 692.601ZM471.029 688.971L469.182 689.736L469.182 689.736L471.029 688.971ZM469.664 685.202L471.574 684.606C471.381 683.99 470.904 683.505 470.291 683.303L469.664 685.202ZM455.35 680.477L453.372 680.773C453.484 681.52 454.006 682.14 454.723 682.377L455.35 680.477ZM455.35 663.523L454.723 661.624C454.006 661.861 453.484 662.481 453.372 663.227L455.35 663.523ZM469.664 658.799L470.291 660.698C470.904 660.496 471.381 660.01 471.574 659.394L469.664 658.799ZM471.029 655.03L469.182 654.264L469.182 654.264L471.029 655.03ZM472.729 651.399L474.5 652.328C474.8 651.757 474.806 651.076 474.515 650.499L472.729 651.399ZM465.948 637.937L464.34 636.747C463.891 637.354 463.822 638.162 464.162 638.837L465.948 637.937ZM502.808 694.193L503.573 692.345V692.345L502.808 694.193ZM534.193 681.193L536.04 681.958L534.193 681.193ZM489.808 681.193L487.96 681.958L489.808 681.193ZM477.037 627.735L490.499 634.516L492.299 630.943L478.836 624.162L477.037 627.735ZM492.328 634.501C493.454 633.91 494.611 633.368 495.795 632.877L494.264 629.182C492.968 629.719 491.702 630.312 490.47 630.958L492.328 634.501ZM495.795 632.877C496.979 632.387 498.18 631.952 499.394 631.574L498.203 627.755C496.875 628.17 495.56 628.645 494.264 629.182L495.795 632.877ZM500.698 630.291L505.422 615.977L501.624 614.723L496.899 629.038L500.698 630.291ZM503.819 617.328C509.242 616.517 514.758 616.517 520.181 617.328L520.773 613.372C514.957 612.502 509.043 612.502 503.227 613.372L503.819 617.328ZM518.578 615.977L523.303 630.291L527.101 629.038L522.376 614.723L518.578 615.977ZM524.606 631.574C525.82 631.952 527.021 632.387 528.205 632.877L529.736 629.182C528.44 628.645 527.126 628.17 525.797 627.755L524.606 631.574ZM528.205 632.877C529.39 633.368 530.546 633.91 531.672 634.501L533.53 630.958C532.298 630.312 531.032 629.719 529.736 629.182L528.205 632.877ZM533.501 634.516L546.963 627.735L545.164 624.162L531.701 630.943L533.501 634.516ZM544.874 627.556C549.283 630.818 553.183 634.718 556.444 639.126L559.66 636.748C556.163 632.02 551.98 627.838 547.253 624.341L544.874 627.556ZM556.266 637.037L549.485 650.5L553.057 652.299L559.838 638.837L556.266 637.037ZM549.5 652.328C550.09 653.454 550.632 654.611 551.123 655.795L554.818 654.264C554.282 652.968 553.688 651.703 553.042 650.47L549.5 652.328ZM551.123 655.795C551.613 656.979 552.048 658.18 552.426 659.394L556.245 658.203C555.831 656.875 555.355 655.56 554.818 654.264L551.123 655.795ZM553.709 660.698L568.023 665.422L569.277 661.624L554.963 656.899L553.709 660.698ZM566.672 663.819C567.483 669.242 567.483 674.758 566.672 680.181L570.628 680.773C571.498 674.957 571.498 669.043 570.628 663.227L566.672 663.819ZM568.023 678.578L553.709 683.303L554.963 687.101L569.277 682.377L568.023 678.578ZM552.426 684.606C552.048 685.82 551.613 687.021 551.123 688.205L554.818 689.736C555.355 688.44 555.831 687.126 556.245 685.797L552.426 684.606ZM551.123 688.205C550.632 689.39 550.09 690.546 549.5 691.672L553.042 693.53C553.688 692.298 554.282 691.032 554.818 689.736L551.123 688.205ZM549.485 693.501L556.266 706.963L559.838 705.164L553.057 691.701L549.485 693.501ZM556.444 704.874C553.183 709.283 549.283 713.183 544.874 716.444L547.253 719.66C551.98 716.163 556.163 711.981 559.66 707.253L556.444 704.874ZM546.963 716.266L533.501 709.485L531.701 713.057L545.164 719.838L546.963 716.266ZM531.672 709.5C530.546 710.091 529.39 710.632 528.205 711.123L529.736 714.819C531.032 714.282 532.298 713.689 533.53 713.042L531.672 709.5ZM528.205 711.123C527.021 711.614 525.82 712.048 524.606 712.427L525.797 716.245C527.126 715.831 528.44 715.355 529.736 714.819L528.205 711.123ZM523.302 713.709L518.578 728.023L522.376 729.277L527.101 714.963L523.302 713.709ZM520.181 726.672C514.758 727.484 509.242 727.484 503.819 726.672L503.227 730.628C509.043 731.498 514.957 731.498 520.773 730.628L520.181 726.672ZM505.422 728.023L500.698 713.709L496.899 714.963L501.624 729.277L505.422 728.023ZM499.394 712.427C498.18 712.048 496.979 711.614 495.795 711.123L494.264 714.819C495.56 715.355 496.875 715.831 498.203 716.245L499.394 712.427ZM495.795 711.123C494.611 710.633 493.454 710.091 492.328 709.5L490.47 713.042C491.702 713.689 492.968 714.282 494.264 714.819L495.795 711.123ZM490.499 709.485L477.037 716.266L478.836 719.838L492.299 713.057L490.499 709.485ZM479.126 716.444C474.717 713.183 470.817 709.283 467.556 704.874L464.34 707.253C467.837 711.981 472.02 716.163 476.747 719.66L479.126 716.444ZM467.734 706.963L474.515 693.501L470.943 691.702L464.162 705.164L467.734 706.963ZM474.5 691.672C473.91 690.546 473.368 689.39 472.877 688.205L469.182 689.736C469.719 691.032 470.312 692.298 470.958 693.53L474.5 691.672ZM472.877 688.205C472.387 687.021 471.952 685.82 471.574 684.606L467.755 685.797C468.169 687.126 468.645 688.44 469.182 689.736L472.877 688.205ZM470.291 683.303L455.977 678.578L454.723 682.377L469.037 687.101L470.291 683.303ZM457.328 680.181C456.517 674.758 456.517 669.242 457.328 663.819L453.372 663.227C452.502 669.043 452.502 674.957 453.372 680.773L457.328 680.181ZM455.977 665.422L470.291 660.698L469.037 656.899L454.723 661.624L455.977 665.422ZM471.574 659.394C471.952 658.18 472.387 656.979 472.877 655.795L469.182 654.264C468.645 655.56 468.169 656.875 467.755 658.203L471.574 659.394ZM472.877 655.795C473.368 654.611 473.91 653.454 474.5 652.328L470.958 650.47C470.312 651.703 469.719 652.968 469.182 654.264L472.877 655.795ZM474.515 650.499L467.734 637.037L464.162 638.837L470.943 652.299L474.515 650.499ZM467.556 639.126C470.817 634.718 474.717 630.817 479.126 627.556L476.747 624.341C472.02 627.838 467.838 632.02 464.34 636.747L467.556 639.126ZM520.427 692.345C515.031 694.58 508.969 694.58 503.573 692.345L502.042 696.04C508.418 698.681 515.582 698.681 521.958 696.04L520.427 692.345ZM532.345 680.427C530.11 685.823 525.823 690.11 520.427 692.345L521.958 696.04C528.334 693.399 533.399 688.334 536.04 681.958L532.345 680.427ZM532.345 663.573C534.58 668.969 534.58 675.032 532.345 680.427L536.04 681.958C538.681 675.582 538.681 668.418 536.04 662.043L532.345 663.573ZM520.427 651.656C525.823 653.891 530.11 658.178 532.345 663.573L536.04 662.043C533.399 655.667 528.334 650.601 521.958 647.96L520.427 651.656ZM503.573 651.656C508.969 649.421 515.031 649.421 520.427 651.656L521.958 647.96C515.582 645.319 508.418 645.319 502.042 647.96L503.573 651.656ZM491.656 663.573C493.891 658.178 498.177 653.891 503.573 651.656L502.042 647.96C495.667 650.601 490.601 655.667 487.96 662.043L491.656 663.573ZM491.656 680.427C489.421 675.032 489.421 668.969 491.656 663.573L487.96 662.043C485.319 668.418 485.319 675.582 487.96 681.958L491.656 680.427ZM503.573 692.345C498.177 690.11 493.891 685.823 491.656 680.427L487.96 681.958C490.601 688.334 495.667 693.399 502.042 696.04L503.573 692.345Z" fill="currentColor"/>
<path d="M507.757 682.243C510.474 683.368 513.526 683.368 516.243 682.243C518.959 681.117 521.117 678.959 522.243 676.243C523.368 673.526 523.368 670.474 522.243 667.757C521.117 665.041 518.959 662.883 516.243 661.757C513.526 660.632 510.474 660.632 507.757 661.757C505.041 662.883 502.883 665.041 501.757 667.757C500.632 670.474 500.632 673.526 501.757 676.243C502.883 678.959 505.041 681.117 507.757 682.243Z" fill="currentColor" stroke="currentColor" stroke-width="4" stroke-linecap="round" stroke-linejoin="round"/>
<g opacity="0.25">
<path fill-rule="evenodd" clip-rule="evenodd" d="M653.937 625.948L667.399 632.729C668.578 632.111 669.789 631.543 671.029 631.03C672.27 630.516 673.527 630.061 674.799 629.664L679.523 615.35C685.143 614.51 690.858 614.51 696.477 615.35L701.202 629.665C702.473 630.061 703.73 630.516 704.971 631.03C706.211 631.543 707.422 632.111 708.601 632.729L722.063 625.948C726.632 629.328 730.673 633.369 734.052 637.937L727.271 651.399C727.889 652.579 728.457 653.79 728.971 655.03C729.484 656.27 729.939 657.527 730.336 658.799L744.65 663.523C745.491 669.143 745.491 674.858 744.65 680.477L730.336 685.202C729.939 686.473 729.484 687.731 728.971 688.971C728.457 690.211 727.889 691.422 727.271 692.601L734.052 706.064C730.673 710.632 726.632 714.673 722.063 718.052L708.601 711.271C707.422 711.89 706.211 712.457 704.971 712.971C703.73 713.485 702.473 713.94 701.202 714.336L696.477 728.65C690.858 729.491 685.143 729.491 679.523 728.65L674.799 714.336C673.527 713.94 672.27 713.485 671.029 712.971C669.789 712.457 668.578 711.89 667.399 711.271L653.937 718.052C649.369 714.673 645.327 710.632 641.948 706.064L648.729 692.601C648.111 691.422 647.543 690.211 647.029 688.971C646.516 687.731 646.061 686.473 645.664 685.202L631.35 680.477C630.509 674.858 630.509 669.143 631.35 663.523L645.664 658.799C646.061 657.528 646.516 656.27 647.029 655.03C647.543 653.79 648.111 652.578 648.729 651.399L641.948 637.937C645.327 633.369 649.369 629.328 653.937 625.948ZM678.808 694.193C684.694 696.631 691.307 696.631 697.193 694.193C703.078 691.755 707.755 687.078 710.193 681.193C712.631 675.307 712.631 668.694 710.193 662.808C707.755 656.922 703.078 652.246 697.193 649.808C691.307 647.37 684.694 647.37 678.808 649.808C672.922 652.246 668.246 656.922 665.808 662.808C663.37 668.694 663.37 675.307 665.808 681.193C668.246 687.078 672.922 691.755 678.808 694.193Z" fill="currentColor"/>
<path d="M653.937 625.948L654.836 624.162C654.162 623.823 653.354 623.892 652.747 624.341L653.937 625.948ZM667.399 632.729L666.499 634.516C667.076 634.806 667.757 634.8 668.328 634.501L667.399 632.729ZM671.029 631.03L670.264 629.182H670.264L671.029 631.03ZM674.799 629.664L675.394 631.574C676.01 631.382 676.495 630.904 676.698 630.291L674.799 629.664ZM679.523 615.35L679.227 613.372C678.48 613.484 677.86 614.007 677.624 614.723L679.523 615.35ZM696.477 615.35L698.376 614.723C698.14 614.007 697.52 613.484 696.773 613.372L696.477 615.35ZM701.202 629.665L699.303 630.291C699.505 630.904 699.99 631.382 700.606 631.574L701.202 629.665ZM704.971 631.03L705.736 629.182L704.971 631.03ZM708.601 632.729L707.672 634.501C708.243 634.8 708.924 634.806 709.501 634.516L708.601 632.729ZM722.063 625.948L723.253 624.341C722.646 623.892 721.838 623.823 721.164 624.162L722.063 625.948ZM734.052 637.937L735.838 638.837C736.178 638.162 736.109 637.355 735.66 636.748L734.052 637.937ZM727.271 651.399L725.485 650.5C725.194 651.076 725.2 651.757 725.5 652.328L727.271 651.399ZM728.971 655.03L730.818 654.264V654.264L728.971 655.03ZM730.336 658.799L728.426 659.394C728.619 660.01 729.096 660.496 729.709 660.698L730.336 658.799ZM744.65 663.523L746.628 663.227C746.516 662.481 745.994 661.86 745.277 661.624L744.65 663.523ZM744.65 680.477L745.277 682.377C745.994 682.14 746.516 681.52 746.628 680.773L744.65 680.477ZM730.336 685.202L729.709 683.303C729.096 683.505 728.619 683.99 728.426 684.606L730.336 685.202ZM728.971 688.971L730.818 689.736L728.971 688.971ZM727.271 692.601L725.5 691.672C725.2 692.244 725.194 692.925 725.485 693.501L727.271 692.601ZM734.052 706.064L735.66 707.253C736.109 706.646 736.178 705.838 735.838 705.164L734.052 706.064ZM722.063 718.052L721.164 719.838C721.838 720.178 722.646 720.109 723.253 719.66L722.063 718.052ZM708.601 711.271L709.501 709.485C708.924 709.195 708.243 709.2 707.672 709.5L708.601 711.271ZM704.971 712.971L704.205 711.123L704.205 711.123L704.971 712.971ZM701.202 714.336L700.606 712.427C699.99 712.619 699.505 713.096 699.302 713.709L701.202 714.336ZM696.477 728.65L696.773 730.628C697.52 730.516 698.14 729.994 698.376 729.277L696.477 728.65ZM679.523 728.65L677.624 729.277C677.86 729.994 678.48 730.517 679.227 730.628L679.523 728.65ZM674.799 714.336L676.698 713.709C676.496 713.096 676.01 712.619 675.394 712.427L674.799 714.336ZM671.029 712.971L671.795 711.123L671.795 711.123L671.029 712.971ZM667.399 711.271L668.328 709.5C667.757 709.2 667.076 709.195 666.499 709.485L667.399 711.271ZM653.937 718.052L652.747 719.66C653.354 720.109 654.162 720.178 654.836 719.838L653.937 718.052ZM641.948 706.064L640.162 705.164C639.822 705.838 639.891 706.646 640.34 707.253L641.948 706.064ZM648.729 692.601L650.515 693.501C650.806 692.925 650.8 692.244 650.5 691.672L648.729 692.601ZM647.029 688.971L645.182 689.736L645.182 689.736L647.029 688.971ZM645.664 685.202L647.574 684.606C647.381 683.99 646.904 683.505 646.291 683.303L645.664 685.202ZM631.35 680.477L629.372 680.773C629.484 681.52 630.006 682.14 630.723 682.377L631.35 680.477ZM631.35 663.523L630.723 661.624C630.006 661.861 629.484 662.481 629.372 663.227L631.35 663.523ZM645.664 658.799L646.291 660.698C646.904 660.496 647.381 660.01 647.574 659.394L645.664 658.799ZM647.029 655.03L645.182 654.264L645.182 654.264L647.029 655.03ZM648.729 651.399L650.5 652.328C650.8 651.757 650.806 651.076 650.515 650.499L648.729 651.399ZM641.948 637.937L640.34 636.747C639.891 637.354 639.822 638.162 640.162 638.837L641.948 637.937ZM678.808 694.193L679.573 692.345V692.345L678.808 694.193ZM710.193 681.193L712.04 681.958L710.193 681.193ZM665.808 681.193L663.96 681.958L665.808 681.193ZM653.037 627.735L666.499 634.516L668.299 630.943L654.836 624.162L653.037 627.735ZM668.328 634.501C669.454 633.91 670.611 633.368 671.795 632.877L670.264 629.182C668.968 629.719 667.702 630.312 666.47 630.958L668.328 634.501ZM671.795 632.877C672.979 632.387 674.18 631.952 675.394 631.574L674.203 627.755C672.875 628.17 671.56 628.645 670.264 629.182L671.795 632.877ZM676.698 630.291L681.422 615.977L677.624 614.723L672.899 629.038L676.698 630.291ZM679.819 617.328C685.242 616.517 690.758 616.517 696.181 617.328L696.773 613.372C690.957 612.502 685.043 612.502 679.227 613.372L679.819 617.328ZM694.578 615.977L699.303 630.291L703.101 629.038L698.376 614.723L694.578 615.977ZM700.606 631.574C701.82 631.952 703.021 632.387 704.205 632.877L705.736 629.182C704.44 628.645 703.126 628.17 701.797 627.755L700.606 631.574ZM704.205 632.877C705.39 633.368 706.546 633.91 707.672 634.501L709.53 630.958C708.298 630.312 707.032 629.719 705.736 629.182L704.205 632.877ZM709.501 634.516L722.963 627.735L721.164 624.162L707.701 630.943L709.501 634.516ZM720.874 627.556C725.283 630.818 729.183 634.718 732.444 639.126L735.66 636.748C732.163 632.02 727.98 627.838 723.253 624.341L720.874 627.556ZM732.266 637.037L725.485 650.5L729.057 652.299L735.838 638.837L732.266 637.037ZM725.5 652.328C726.09 653.454 726.632 654.611 727.123 655.795L730.818 654.264C730.282 652.968 729.688 651.703 729.042 650.47L725.5 652.328ZM727.123 655.795C727.613 656.979 728.048 658.18 728.426 659.394L732.245 658.203C731.831 656.875 731.355 655.56 730.818 654.264L727.123 655.795ZM729.709 660.698L744.023 665.422L745.277 661.624L730.963 656.899L729.709 660.698ZM742.672 663.819C743.483 669.242 743.483 674.758 742.672 680.181L746.628 680.773C747.498 674.957 747.498 669.043 746.628 663.227L742.672 663.819ZM744.023 678.578L729.709 683.303L730.963 687.101L745.277 682.377L744.023 678.578ZM728.426 684.606C728.048 685.82 727.613 687.021 727.123 688.205L730.818 689.736C731.355 688.44 731.831 687.126 732.245 685.797L728.426 684.606ZM727.123 688.205C726.632 689.39 726.09 690.546 725.5 691.672L729.042 693.53C729.688 692.298 730.282 691.032 730.818 689.736L727.123 688.205ZM725.485 693.501L732.266 706.963L735.838 705.164L729.057 691.701L725.485 693.501ZM732.444 704.874C729.183 709.283 725.283 713.183 720.874 716.444L723.253 719.66C727.98 716.163 732.163 711.981 735.66 707.253L732.444 704.874ZM722.963 716.266L709.501 709.485L707.701 713.057L721.164 719.838L722.963 716.266ZM707.672 709.5C706.546 710.091 705.39 710.632 704.205 711.123L705.736 714.819C707.032 714.282 708.298 713.689 709.53 713.042L707.672 709.5ZM704.205 711.123C703.021 711.614 701.82 712.048 700.606 712.427L701.797 716.245C703.126 715.831 704.44 715.355 705.736 714.819L704.205 711.123ZM699.302 713.709L694.578 728.023L698.376 729.277L703.101 714.963L699.302 713.709ZM696.181 726.672C690.758 727.484 685.242 727.484 679.819 726.672L679.227 730.628C685.043 731.498 690.957 731.498 696.773 730.628L696.181 726.672ZM681.422 728.023L676.698 713.709L672.899 714.963L677.624 729.277L681.422 728.023ZM675.394 712.427C674.18 712.048 672.979 711.614 671.795 711.123L670.264 714.819C671.56 715.355 672.875 715.831 674.203 716.245L675.394 712.427ZM671.795 711.123C670.611 710.633 669.454 710.091 668.328 709.5L666.47 713.042C667.702 713.689 668.968 714.282 670.264 714.819L671.795 711.123ZM666.499 709.485L653.037 716.266L654.836 719.838L668.299 713.057L666.499 709.485ZM655.126 716.444C650.717 713.183 646.817 709.283 643.556 704.874L640.34 707.253C643.837 711.981 648.02 716.163 652.747 719.66L655.126 716.444ZM643.734 706.963L650.515 693.501L646.943 691.702L640.162 705.164L643.734 706.963ZM650.5 691.672C649.91 690.546 649.368 689.39 648.877 688.205L645.182 689.736C645.719 691.032 646.312 692.298 646.958 693.53L650.5 691.672ZM648.877 688.205C648.387 687.021 647.952 685.82 647.574 684.606L643.755 685.797C644.169 687.126 644.645 688.44 645.182 689.736L648.877 688.205ZM646.291 683.303L631.977 678.578L630.723 682.377L645.037 687.101L646.291 683.303ZM633.328 680.181C632.517 674.758 632.517 669.242 633.328 663.819L629.372 663.227C628.502 669.043 628.502 674.957 629.372 680.773L633.328 680.181ZM631.977 665.422L646.291 660.698L645.037 656.899L630.723 661.624L631.977 665.422ZM647.574 659.394C647.952 658.18 648.387 656.979 648.877 655.795L645.182 654.264C644.645 655.56 644.169 656.875 643.755 658.203L647.574 659.394ZM648.877 655.795C649.368 654.611 649.91 653.454 650.5 652.328L646.958 650.47C646.312 651.703 645.719 652.968 645.182 654.264L648.877 655.795ZM650.515 650.499L643.734 637.037L640.162 638.837L646.943 652.299L650.515 650.499ZM643.556 639.126C646.817 634.718 650.717 630.817 655.126 627.556L652.747 624.341C648.02 627.838 643.838 632.02 640.34 636.747L643.556 639.126ZM696.427 692.345C691.031 694.58 684.969 694.58 679.573 692.345L678.042 696.04C684.418 698.681 691.582 698.681 697.958 696.04L696.427 692.345ZM708.345 680.427C706.11 685.823 701.823 690.11 696.427 692.345L697.958 696.04C704.334 693.399 709.399 688.334 712.04 681.958L708.345 680.427ZM708.345 663.573C710.58 668.969 710.58 675.032 708.345 680.427L712.04 681.958C714.681 675.582 714.681 668.418 712.04 662.043L708.345 663.573ZM696.427 651.656C701.823 653.891 706.11 658.178 708.345 663.573L712.04 662.043C709.399 655.667 704.334 650.601 697.958 647.96L696.427 651.656ZM679.573 651.656C684.969 649.421 691.031 649.421 696.427 651.656L697.958 647.96C691.582 645.319 684.418 645.319 678.042 647.96L679.573 651.656ZM667.656 663.573C669.891 658.178 674.177 653.891 679.573 651.656L678.042 647.96C671.667 650.601 666.601 655.667 663.96 662.043L667.656 663.573ZM667.656 680.427C665.421 675.032 665.421 668.969 667.656 663.573L663.96 662.043C661.319 668.418 661.319 675.582 663.96 681.958L667.656 680.427ZM679.573 692.345C674.177 690.11 669.891 685.823 667.656 680.427L663.96 681.958C666.601 688.334 671.667 693.399 678.042 696.04L679.573 692.345Z" fill="currentColor"/>
</g>
<path d="M683.757 682.243C686.474 683.368 689.526 683.368 692.243 682.243C694.959 681.117 697.117 678.959 698.243 676.243C699.368 673.526 699.368 670.474 698.243 667.757C697.117 665.041 694.959 662.883 692.243 661.757C689.526 660.632 686.474 660.632 683.757 661.757C681.041 662.883 678.883 665.041 677.757 667.757C676.632 670.474 676.632 673.526 677.757 676.243C678.883 678.959 681.041 681.117 683.757 682.243Z" fill="currentColor" stroke="currentColor" stroke-width="4" stroke-linecap="round" stroke-linejoin="round"/>
<path fill-rule="evenodd" clip-rule="evenodd" d="M829.937 625.948L843.399 632.729C844.578 632.111 845.789 631.543 847.029 631.03C848.27 630.516 849.527 630.061 850.799 629.664L855.523 615.35C861.143 614.51 866.858 614.51 872.477 615.35L877.202 629.665C878.473 630.061 879.73 630.516 880.971 631.03C882.211 631.543 883.422 632.111 884.601 632.729L898.063 625.948C902.632 629.328 906.673 633.369 910.052 637.937L903.271 651.399C903.889 652.579 904.457 653.79 904.971 655.03C905.484 656.27 905.939 657.527 906.336 658.799L920.65 663.523C921.491 669.143 921.491 674.858 920.65 680.477L906.336 685.202C905.939 686.473 905.484 687.731 904.971 688.971C904.457 690.211 903.889 691.422 903.271 692.601L910.052 706.064C906.673 710.632 902.632 714.673 898.063 718.052L884.601 711.271C883.422 711.89 882.211 712.457 880.971 712.971C879.73 713.485 878.473 713.94 877.202 714.336L872.477 728.65C866.858 729.491 861.143 729.491 855.523 728.65L850.799 714.336C849.527 713.94 848.27 713.485 847.029 712.971C845.789 712.457 844.578 711.89 843.399 711.271L829.937 718.052C825.369 714.673 821.327 710.632 817.948 706.064L824.729 692.601C824.111 691.422 823.543 690.211 823.029 688.971C822.516 687.731 822.061 686.473 821.664 685.202L807.35 680.477C806.509 674.858 806.509 669.143 807.35 663.523L821.664 658.799C822.061 657.528 822.516 656.27 823.029 655.03C823.543 653.79 824.111 652.578 824.729 651.399L817.948 637.937C821.327 633.369 825.369 629.328 829.937 625.948ZM854.808 694.193C860.694 696.631 867.307 696.631 873.193 694.193C879.078 691.755 883.755 687.078 886.193 681.193C888.631 675.307 888.631 668.694 886.193 662.808C883.755 656.922 879.078 652.246 873.193 649.808C867.307 647.37 860.694 647.37 854.808 649.808C848.922 652.246 844.246 656.922 841.808 662.808C839.37 668.694 839.37 675.307 841.808 681.193C844.246 687.078 848.922 691.755 854.808 694.193Z" fill="#FFA500"/>
<path d="M829.937 625.948L830.836 624.162C830.162 623.823 829.354 623.892 828.747 624.341L829.937 625.948ZM843.399 632.729L842.499 634.516C843.076 634.806 843.757 634.8 844.328 634.501L843.399 632.729ZM847.029 631.03L846.264 629.182H846.264L847.029 631.03ZM850.799 629.664L851.394 631.574C852.01 631.382 852.495 630.904 852.698 630.291L850.799 629.664ZM855.523 615.35L855.227 613.372C854.48 613.484 853.86 614.007 853.624 614.723L855.523 615.35ZM872.477 615.35L874.376 614.723C874.14 614.007 873.52 613.484 872.773 613.372L872.477 615.35ZM877.202 629.665L875.303 630.291C875.505 630.904 875.99 631.382 876.606 631.574L877.202 629.665ZM880.971 631.03L881.736 629.182L880.971 631.03ZM884.601 632.729L883.672 634.501C884.243 634.8 884.924 634.806 885.501 634.516L884.601 632.729ZM898.063 625.948L899.253 624.341C898.646 623.892 897.838 623.823 897.164 624.162L898.063 625.948ZM910.052 637.937L911.838 638.837C912.178 638.162 912.109 637.355 911.66 636.748L910.052 637.937ZM903.271 651.399L901.485 650.5C901.194 651.076 901.2 651.757 901.5 652.328L903.271 651.399ZM904.971 655.03L906.818 654.264V654.264L904.971 655.03ZM906.336 658.799L904.426 659.394C904.619 660.01 905.096 660.496 905.709 660.698L906.336 658.799ZM920.65 663.523L922.628 663.227C922.516 662.481 921.994 661.86 921.277 661.624L920.65 663.523ZM920.65 680.477L921.277 682.377C921.994 682.14 922.516 681.52 922.628 680.773L920.65 680.477ZM906.336 685.202L905.709 683.303C905.096 683.505 904.619 683.99 904.426 684.606L906.336 685.202ZM904.971 688.971L906.818 689.736L904.971 688.971ZM903.271 692.601L901.5 691.672C901.2 692.244 901.194 692.925 901.485 693.501L903.271 692.601ZM910.052 706.064L911.66 707.253C912.109 706.646 912.178 705.838 911.838 705.164L910.052 706.064ZM898.063 718.052L897.164 719.838C897.838 720.178 898.646 720.109 899.253 719.66L898.063 718.052ZM884.601 711.271L885.501 709.485C884.924 709.195 884.243 709.2 883.672 709.5L884.601 711.271ZM880.971 712.971L880.205 711.123L880.205 711.123L880.971 712.971ZM877.202 714.336L876.606 712.427C875.99 712.619 875.505 713.096 875.302 713.709L877.202 714.336ZM872.477 728.65L872.773 730.628C873.52 730.516 874.14 729.994 874.376 729.277L872.477 728.65ZM855.523 728.65L853.624 729.277C853.86 729.994 854.48 730.517 855.227 730.628L855.523 728.65ZM850.799 714.336L852.698 713.709C852.496 713.096 852.01 712.619 851.394 712.427L850.799 714.336ZM847.029 712.971L847.795 711.123L847.795 711.123L847.029 712.971ZM843.399 711.271L844.328 709.5C843.757 709.2 843.076 709.195 842.499 709.485L843.399 711.271ZM829.937 718.052L828.747 719.66C829.354 720.109 830.162 720.178 830.836 719.838L829.937 718.052ZM817.948 706.064L816.162 705.164C815.822 705.838 815.891 706.646 816.34 707.253L817.948 706.064ZM824.729 692.601L826.515 693.501C826.806 692.925 826.8 692.244 826.5 691.672L824.729 692.601ZM823.029 688.971L821.182 689.736L821.182 689.736L823.029 688.971ZM821.664 685.202L823.574 684.606C823.381 683.99 822.904 683.505 822.291 683.303L821.664 685.202ZM807.35 680.477L805.372 680.773C805.484 681.52 806.006 682.14 806.723 682.377L807.35 680.477ZM807.35 663.523L806.723 661.624C806.006 661.861 805.484 662.481 805.372 663.227L807.35 663.523ZM821.664 658.799L822.291 660.698C822.904 660.496 823.381 660.01 823.574 659.394L821.664 658.799ZM823.029 655.03L821.182 654.264L821.182 654.264L823.029 655.03ZM824.729 651.399L826.5 652.328C826.8 651.757 826.806 651.076 826.515 650.499L824.729 651.399ZM817.948 637.937L816.34 636.747C815.891 637.354 815.822 638.162 816.162 638.837L817.948 637.937ZM854.808 694.193L855.573 692.345V692.345L854.808 694.193ZM886.193 681.193L888.04 681.958L886.193 681.193ZM841.808 681.193L839.96 681.958L841.808 681.193ZM829.037 627.735L842.499 634.516L844.299 630.943L830.836 624.162L829.037 627.735ZM844.328 634.501C845.454 633.91 846.611 633.368 847.795 632.877L846.264 629.182C844.968 629.719 843.702 630.312 842.47 630.958L844.328 634.501ZM847.795 632.877C848.979 632.387 850.18 631.952 851.394 631.574L850.203 627.755C848.875 628.17 847.56 628.645 846.264 629.182L847.795 632.877ZM852.698 630.291L857.422 615.977L853.624 614.723L848.899 629.038L852.698 630.291ZM855.819 617.328C861.242 616.517 866.758 616.517 872.181 617.328L872.773 613.372C866.957 612.502 861.043 612.502 855.227 613.372L855.819 617.328ZM870.578 615.977L875.303 630.291L879.101 629.038L874.376 614.723L870.578 615.977ZM876.606 631.574C877.82 631.952 879.021 632.387 880.205 632.877L881.736 629.182C880.44 628.645 879.126 628.17 877.797 627.755L876.606 631.574ZM880.205 632.877C881.39 633.368 882.546 633.91 883.672 634.501L885.53 630.958C884.298 630.312 883.032 629.719 881.736 629.182L880.205 632.877ZM885.501 634.516L898.963 627.735L897.164 624.162L883.701 630.943L885.501 634.516ZM896.874 627.556C901.283 630.818 905.183 634.718 908.444 639.126L911.66 636.748C908.163 632.02 903.98 627.838 899.253 624.341L896.874 627.556ZM908.266 637.037L901.485 650.5L905.057 652.299L911.838 638.837L908.266 637.037ZM901.5 652.328C902.09 653.454 902.632 654.611 903.123 655.795L906.818 654.264C906.282 652.968 905.688 651.703 905.042 650.47L901.5 652.328ZM903.123 655.795C903.613 656.979 904.048 658.18 904.426 659.394L908.245 658.203C907.831 656.875 907.355 655.56 906.818 654.264L903.123 655.795ZM905.709 660.698L920.023 665.422L921.277 661.624L906.963 656.899L905.709 660.698ZM918.672 663.819C919.483 669.242 919.483 674.758 918.672 680.181L922.628 680.773C923.498 674.957 923.498 669.043 922.628 663.227L918.672 663.819ZM920.023 678.578L905.709 683.303L906.963 687.101L921.277 682.377L920.023 678.578ZM904.426 684.606C904.048 685.82 903.613 687.021 903.123 688.205L906.818 689.736C907.355 688.44 907.831 687.126 908.245 685.797L904.426 684.606ZM903.123 688.205C902.632 689.39 902.09 690.546 901.5 691.672L905.042 693.53C905.688 692.298 906.282 691.032 906.818 689.736L903.123 688.205ZM901.485 693.501L908.266 706.963L911.838 705.164L905.057 691.701L901.485 693.501ZM908.444 704.874C905.183 709.283 901.283 713.183 896.874 716.444L899.253 719.66C903.98 716.163 908.163 711.981 911.66 707.253L908.444 704.874ZM898.963 716.266L885.501 709.485L883.701 713.057L897.164 719.838L898.963 716.266ZM883.672 709.5C882.546 710.091 881.39 710.632 880.205 711.123L881.736 714.819C883.032 714.282 884.298 713.689 885.53 713.042L883.672 709.5ZM880.205 711.123C879.021 711.614 877.82 712.048 876.606 712.427L877.797 716.245C879.126 715.831 880.44 715.355 881.736 714.819L880.205 711.123ZM875.302 713.709L870.578 728.023L874.376 729.277L879.101 714.963L875.302 713.709ZM872.181 726.672C866.758 727.484 861.242 727.484 855.819 726.672L855.227 730.628C861.043 731.498 866.957 731.498 872.773 730.628L872.181 726.672ZM857.422 728.023L852.698 713.709L848.899 714.963L853.624 729.277L857.422 728.023ZM851.394 712.427C850.18 712.048 848.979 711.614 847.795 711.123L846.264 714.819C847.56 715.355 848.875 715.831 850.203 716.245L851.394 712.427ZM847.795 711.123C846.611 710.633 845.454 710.091 844.328 709.5L842.47 713.042C843.702 713.689 844.968 714.282 846.264 714.819L847.795 711.123ZM842.499 709.485L829.037 716.266L830.836 719.838L844.299 713.057L842.499 709.485ZM831.126 716.444C826.717 713.183 822.817 709.283 819.556 704.874L816.34 707.253C819.837 711.981 824.02 716.163 828.747 719.66L831.126 716.444ZM819.734 706.963L826.515 693.501L822.943 691.702L816.162 705.164L819.734 706.963ZM826.5 691.672C825.91 690.546 825.368 689.39 824.877 688.205L821.182 689.736C821.719 691.032 822.312 692.298 822.958 693.53L826.5 691.672ZM824.877 688.205C824.387 687.021 823.952 685.82 823.574 684.606L819.755 685.797C820.169 687.126 820.645 688.44 821.182 689.736L824.877 688.205ZM822.291 683.303L807.977 678.578L806.723 682.377L821.037 687.101L822.291 683.303ZM809.328 680.181C808.517 674.758 808.517 669.242 809.328 663.819L805.372 663.227C804.502 669.043 804.502 674.957 805.372 680.773L809.328 680.181ZM807.977 665.422L822.291 660.698L821.037 656.899L806.723 661.624L807.977 665.422ZM823.574 659.394C823.952 658.18 824.387 656.979 824.877 655.795L821.182 654.264C820.645 655.56 820.169 656.875 819.755 658.203L823.574 659.394ZM824.877 655.795C825.368 654.611 825.91 653.454 826.5 652.328L822.958 650.47C822.312 651.703 821.719 652.968 821.182 654.264L824.877 655.795ZM826.515 650.499L819.734 637.037L816.162 638.837L822.943 652.299L826.515 650.499ZM819.556 639.126C822.817 634.718 826.717 630.817 831.126 627.556L828.747 624.341C824.02 627.838 819.838 632.02 816.34 636.747L819.556 639.126ZM872.427 692.345C867.031 694.58 860.969 694.58 855.573 692.345L854.042 696.04C860.418 698.681 867.582 698.681 873.958 696.04L872.427 692.345ZM884.345 680.427C882.11 685.823 877.823 690.11 872.427 692.345L873.958 696.04C880.334 693.399 885.399 688.334 888.04 681.958L884.345 680.427ZM884.345 663.573C886.58 668.969 886.58 675.032 884.345 680.427L888.04 681.958C890.681 675.582 890.681 668.418 888.04 662.043L884.345 663.573ZM872.427 651.656C877.823 653.891 882.11 658.178 884.345 663.573L888.04 662.043C885.399 655.667 880.334 650.601 873.958 647.96L872.427 651.656ZM855.573 651.656C860.969 649.421 867.031 649.421 872.427 651.656L873.958 647.96C867.582 645.319 860.418 645.319 854.042 647.96L855.573 651.656ZM843.656 663.573C845.891 658.178 850.177 653.891 855.573 651.656L854.042 647.96C847.667 650.601 842.601 655.667 839.96 662.043L843.656 663.573ZM843.656 680.427C841.421 675.032 841.421 668.969 843.656 663.573L839.96 662.043C837.319 668.418 837.319 675.582 839.96 681.958L843.656 680.427ZM855.573 692.345C850.177 690.11 845.891 685.823 843.656 680.427L839.96 681.958C842.601 688.334 847.667 693.399 854.042 696.04L855.573 692.345Z" fill="#FFA500"/>
<path d="M859.757 682.243C862.474 683.368 865.526 683.368 868.243 682.243C870.959 681.117 873.117 678.959 874.243 676.243C875.368 673.526 875.368 670.474 874.243 667.757C873.117 665.041 870.959 662.883 868.243 661.757C865.526 660.632 862.474 660.632 859.757 661.757C857.041 662.883 854.883 665.041 853.757 667.757C852.632 670.474 852.632 673.526 853.757 676.243C854.883 678.959 857.041 681.117 859.757 682.243Z" fill="#FFD700" stroke="#FFD700" stroke-width="4" stroke-linecap="round" stroke-linejoin="round"/>
<g opacity="0.25">
<path d="M512 238.839L538.664 319.627L614.644 281.356L576.373 357.336L657.161 384L576.373 410.665L614.644 486.645L538.664 448.374L512 529.161L485.336 448.374L409.355 486.645L447.626 410.665L366.839 384L447.626 357.336L409.355 281.356L485.336 319.627L512 238.839Z" stroke="currentColor" stroke-width="2.41935" stroke-linecap="round" stroke-linejoin="round"/>
<path d="M553.058 483.122C526.769 494.011 497.231 494.011 470.942 483.122V483.122C444.653 472.233 423.767 451.347 412.878 425.058V425.058C401.988 398.769 401.988 369.231 412.878 342.942V342.942C423.767 316.653 444.653 295.767 470.942 284.878V284.878C497.231 273.988 526.769 273.988 553.058 284.878V284.878C579.347 295.767 600.233 316.653 611.122 342.942V342.942C622.011 369.231 622.011 398.769 611.122 425.058V425.058C600.233 451.347 579.347 472.233 553.058 483.122V483.122Z" stroke="currentColor" stroke-width="2.41935" stroke-linecap="round" stroke-linejoin="round"/>
<path d="M489.76 437.691C504 443.59 520 443.59 534.24 437.691V437.691C548.479 431.793 559.793 420.48 565.691 406.24V406.24C571.589 392 571.589 376 565.691 361.76V361.76C559.793 347.521 548.479 336.207 534.24 330.309V330.309C520 324.411 504 324.411 489.76 330.309V330.309C475.52 336.207 464.207 347.521 458.309 361.76V361.76C452.41 376 452.41 392 458.309 406.24V406.24C464.207 420.48 475.52 431.793 489.76 437.691V437.691Z" stroke="currentColor" stroke-width="2.41935" stroke-linecap="round" stroke-linejoin="round"/>
<path d="M565.033 512.033C531.077 526.098 492.923 526.098 458.967 512.033V512.033C425.011 497.968 398.032 470.989 383.967 437.033V437.033C369.902 403.077 369.902 364.923 383.967 330.967V330.967C398.032 297.011 425.011 270.032 458.967 255.967V255.967C492.923 241.902 531.077 241.902 565.033 255.967V255.967C598.989 270.032 625.968 297.011 640.033 330.967V330.967C654.098 364.923 654.098 403.077 640.033 437.033V437.033C625.968 470.989 598.989 497.968 565.033 512.033V512.033Z" stroke="currentColor" stroke-width="2.41935" stroke-linecap="round" stroke-linejoin="round"/>
</g>
</svg>
