<svg viewBox="0 0 1024 768" fill="none" xmlns="http://www.w3.org/2000/svg">
<path d="M413.81 58.3313C417.796 49.5969 430.204 49.5969 434.19 58.3313V58.3313C436.431 63.2439 441.859 65.8578 447.097 64.5473V64.5473C456.411 62.2175 464.148 71.9188 459.804 80.4806V80.4806C457.361 85.2961 458.701 91.1693 462.992 94.4479V94.4479C470.62 100.277 467.859 112.374 458.457 114.316V114.316C453.169 115.409 449.413 120.118 449.524 125.517V125.517C449.723 135.116 438.544 140.5 431.163 134.359V134.359C427.012 130.906 420.988 130.906 416.837 134.359V134.359C409.456 140.5 398.277 135.116 398.476 125.517V125.517C398.587 120.118 394.831 115.409 389.543 114.316V114.316C380.141 112.374 377.38 100.277 385.008 94.4479V94.4479C389.299 91.1693 390.639 85.2961 388.196 80.4806V80.4806C383.852 71.9188 391.589 62.2175 400.903 64.5473V64.5473C406.141 65.8578 411.569 63.2439 413.81 58.3313V58.3313Z" stroke="#7B61FF" stroke-width="2" stroke-linecap="round" stroke-linejoin="round"/>
<path d="M578.787 147.213C592.369 152.839 607.631 152.839 621.213 147.213V147.213C634.796 141.587 645.587 130.796 651.213 117.213V117.213C656.839 103.631 656.839 88.3694 651.213 74.7868V74.7868C645.587 61.2042 634.796 50.4129 621.213 44.7868V44.7868C607.631 39.1607 592.369 39.1607 578.787 44.7868V44.7868C565.204 50.4129 554.413 61.2042 548.787 74.7868V74.7868C543.161 88.3694 543.161 103.631 548.787 117.213V117.213C554.413 130.796 565.204 141.587 578.787 147.213V147.213Z" stroke="#7B61FF" stroke-width="2" stroke-linecap="round" stroke-linejoin="round"/>
<path fill-rule="evenodd" clip-rule="evenodd" d="M640.172 418.999H383.828C377.184 399.752 381.921 376.713 400.86 362.242C402.967 360.631 403.625 357.747 402.425 355.382C382.839 316.778 417.722 273.036 459.717 283.541C462.289 284.184 464.955 282.901 466.056 280.488C484.026 241.106 539.974 241.106 557.944 280.488C559.045 282.901 561.711 284.184 564.283 283.541C606.278 273.036 641.161 316.778 621.574 355.382C620.374 357.747 621.033 360.631 623.14 362.242C642.079 376.713 646.816 399.752 640.172 418.999Z" fill="#888888" fill-opacity="0.5"/>
<path d="M640.172 418.999V423.999C642.304 423.999 644.202 422.646 644.898 420.63L640.172 418.999ZM383.828 418.999L379.102 420.63C379.798 422.646 381.695 423.999 383.828 423.999V418.999ZM400.86 362.242L403.896 366.214L403.896 366.214L400.86 362.242ZM402.425 355.382L406.884 353.119L406.884 353.119L402.425 355.382ZM459.717 283.541L458.503 288.391H458.503L459.717 283.541ZM466.056 280.488L461.507 278.412L466.056 280.488ZM557.944 280.488L553.395 282.564L553.395 282.564L557.944 280.488ZM564.283 283.541L565.497 288.391L564.283 283.541ZM621.574 355.382L626.033 357.644V357.644L621.574 355.382ZM623.14 362.242L620.104 366.214L620.104 366.214L623.14 362.242ZM640.172 413.999H383.828V423.999H640.172V413.999ZM388.554 417.367C382.541 399.947 386.84 379.247 403.896 366.214L397.824 358.269C377.002 374.179 371.828 399.557 379.102 420.63L388.554 417.367ZM403.896 366.214C407.918 363.141 409.175 357.634 406.884 353.119L397.967 357.644C398.076 357.859 398.016 358.122 397.824 358.269L403.896 366.214ZM406.884 353.119C389.237 318.337 420.666 278.927 458.503 288.391L460.93 278.69C414.778 267.145 376.441 315.218 397.967 357.644L406.884 353.119ZM458.503 288.391C463.415 289.62 468.503 287.169 470.605 282.564L461.507 278.412C461.407 278.632 461.164 278.749 460.93 278.69L458.503 288.391ZM470.605 282.564C486.796 247.08 537.204 247.08 553.395 282.564L562.493 278.412C542.744 235.131 481.256 235.131 461.507 278.412L470.605 282.564ZM553.395 282.564C555.497 287.169 560.585 289.62 565.497 288.391L563.07 278.69C562.836 278.749 562.593 278.632 562.493 278.412L553.395 282.564ZM565.497 288.391C603.333 278.927 634.763 318.337 617.116 353.119L626.033 357.644C647.559 315.218 609.222 267.145 563.07 278.69L565.497 288.391ZM617.116 353.119C614.825 357.634 616.082 363.141 620.104 366.214L626.176 358.269C625.984 358.122 625.924 357.859 626.033 357.644L617.116 353.119ZM620.104 366.214C637.16 379.247 641.459 399.947 635.446 417.367L644.898 420.63C652.172 399.557 646.998 374.179 626.176 358.269L620.104 366.214Z" fill="currentColor"/>
<path fill-rule="evenodd" clip-rule="evenodd" d="M542 499L532 472.333V419L512 419L492 419V472.333L482 499L492 499H532L542 499Z" fill="#888888" fill-opacity="0.5"/>
<path d="M532 472.333H527C527 472.933 527.108 473.528 527.318 474.089L532 472.333ZM542 499L542 504C543.64 504 545.176 503.196 546.11 501.848C547.044 500.5 547.257 498.78 546.682 497.244L542 499ZM532 419H537C537 416.239 534.761 414 532 414L532 419ZM512 419L512 414H512L512 419ZM492 419L492 414C489.239 414 487 416.239 487 419H492ZM492 472.333L496.682 474.089C496.892 473.528 497 472.933 497 472.333H492ZM482 499L477.318 497.244C476.743 498.78 476.956 500.5 477.89 501.848C478.824 503.196 480.36 504 482 504L482 499ZM492 499L492 504H492V499ZM532 499V504H532L532 499ZM527.318 474.089L537.318 500.756L546.682 497.244L536.682 470.578L527.318 474.089ZM527 419V472.333H537V419H527ZM512 424L532 424L532 414L512 414L512 424ZM492 424L512 424L512 414L492 414L492 424ZM497 472.333V419H487V472.333H497ZM486.682 500.756L496.682 474.089L487.318 470.578L477.318 497.244L486.682 500.756ZM492 494L482 494L482 504L492 504L492 494ZM532 494H492V504H532V494ZM542 494L532 494L532 504L542 504L542 494Z" fill="currentColor"/>
<g opacity="0.25">
<path d="M487.348 292.866C496.99 271.735 527.01 271.735 536.653 292.866V292.866C542.076 304.752 555.207 311.075 567.881 307.905V307.905C590.414 302.268 609.132 325.739 598.622 346.453V346.453C592.711 358.104 595.954 372.313 606.335 380.245V380.245C624.791 394.348 618.111 423.615 595.363 428.314V428.314C582.569 430.956 573.482 442.351 573.753 455.413V455.413C574.234 478.635 547.187 491.661 529.331 476.805V476.805C519.288 468.45 504.713 468.45 494.67 476.805V476.805C476.814 491.661 449.766 478.635 450.248 455.413V455.413C450.518 442.351 441.431 430.956 428.637 428.314V428.314C405.889 423.615 399.209 394.348 417.665 380.245V380.245C428.046 372.313 431.289 358.104 425.378 346.453V346.453C414.869 325.739 433.586 302.268 456.119 307.905V307.905C468.793 311.075 481.924 304.752 487.348 292.866V292.866Z" stroke="currentColor" stroke-width="2.41935" stroke-linecap="round" stroke-linejoin="round"/>
<rect x="362" y="234" width="300" height="183.871" stroke="currentColor" stroke-width="2.41935" stroke-linecap="round" stroke-linejoin="round"/>
<path d="M512 417.871L541.032 495.29H482.968L512 417.871Z" stroke="currentColor" stroke-width="2.41935" stroke-linecap="round" stroke-linejoin="round"/>
</g>
<path d="M211.268 686V687C211.695 687 212.075 686.729 212.214 686.326L211.268 686ZM108.731 686L107.786 686.326C107.925 686.729 108.305 687 108.731 687V686ZM115.544 663.296L116.151 664.091H116.151L115.544 663.296ZM116.17 660.552L117.062 660.1L116.17 660.552ZM139.087 631.816L139.329 630.846L139.087 631.816ZM141.622 630.595L140.713 630.18L141.622 630.595ZM178.377 630.595L179.287 630.18V630.18L178.377 630.595ZM180.913 631.816L181.156 632.786L180.913 631.816ZM203.83 660.552L202.938 660.1L203.83 660.552ZM204.456 663.296L205.063 662.502L204.456 663.296ZM211.268 685H108.731V687H211.268V685ZM109.677 685.673C107.145 678.34 108.952 669.592 116.151 664.091L114.937 662.502C106.984 668.578 105.002 678.262 107.786 686.326L109.677 685.673ZM116.151 664.091C117.377 663.154 117.76 661.476 117.062 660.1L115.278 661.005C115.54 661.521 115.396 662.15 114.937 662.502L116.151 664.091ZM117.062 660.1C109.615 645.423 122.878 628.792 138.844 632.786L139.329 630.846C121.7 626.436 107.056 644.799 115.278 661.005L117.062 660.1ZM138.844 632.786C140.341 633.161 141.892 632.414 142.532 631.01L140.713 630.18C140.472 630.706 139.891 630.986 139.329 630.846L138.844 632.786ZM142.532 631.01C149.364 616.037 170.636 616.037 177.468 631.01L179.287 630.18C171.743 613.647 148.256 613.647 140.713 630.18L142.532 631.01ZM177.468 631.01C178.108 632.414 179.659 633.161 181.156 632.786L180.671 630.846C180.109 630.986 179.527 630.706 179.287 630.18L177.468 631.01ZM181.156 632.786C197.122 628.792 210.385 645.423 202.938 660.1L204.721 661.005C212.944 644.799 198.3 626.436 180.671 630.846L181.156 632.786ZM202.938 660.1C202.24 661.476 202.623 663.154 203.849 664.091L205.063 662.502C204.603 662.15 204.46 661.521 204.721 661.005L202.938 660.1ZM203.849 664.091C211.048 669.592 212.855 678.34 210.323 685.673L212.214 686.326C214.998 678.262 213.015 668.578 205.063 662.502L203.849 664.091Z" fill="currentColor"/>
<path d="M152 707.333L152.936 707.684C152.978 707.572 153 707.453 153 707.333H152ZM152 686V685C151.448 685 151 685.448 151 686H152ZM168 686H169C169 685.448 168.552 685 168 685V686ZM168 707.333H167C167 707.453 167.022 707.572 167.064 707.684L168 707.333ZM172 718V719C172.328 719 172.635 718.839 172.822 718.57C173.009 718.3 173.051 717.956 172.936 717.649L172 718ZM148 718L147.064 717.649C146.949 717.956 146.991 718.3 147.178 718.57C147.365 718.839 147.672 719 148 719V718ZM153 707.333V686H151V707.333H153ZM152 687H160V685H152V687ZM160 687H168V685H160V687ZM167 686V707.333H169V686H167ZM167.064 707.684L171.064 718.351L172.936 717.649L168.936 706.982L167.064 707.684ZM172 717H168V719H172V717ZM168 717H152V719H168V717ZM152 717H148V719H152V717ZM148.936 718.351L152.936 707.684L151.064 706.982L147.064 717.649L148.936 718.351Z" fill="currentColor"/>
<path fill-rule="evenodd" clip-rule="evenodd" d="M314.628 627.62C323.634 610.5 348.365 610.5 357.372 627.62C376.373 623.988 391.792 643.323 384.022 661.039C392.151 668.011 394.075 678.54 391.05 687.305C390.493 688.918 388.975 690 387.269 690H348V706.608L351.745 716.595C352.206 717.824 352.035 719.2 351.288 720.278C350.54 721.356 349.312 722 348 722H324C322.688 722 321.459 721.356 320.712 720.278C319.965 719.2 319.794 717.824 320.255 716.595L324 706.608V690H284.731C283.025 690 281.507 688.918 280.95 687.305C277.925 678.54 279.849 668.011 287.978 661.039C280.208 643.323 295.627 623.988 314.628 627.62ZM321.261 632.255C327.026 619.622 344.974 619.622 350.738 632.255C351.979 634.975 354.984 636.422 357.884 635.697C371.356 632.327 382.546 646.359 376.263 658.743C374.91 661.408 375.652 664.66 378.027 666.475C383.24 670.458 385.115 676.439 384.176 682H287.824C286.885 676.439 288.76 670.458 293.972 666.475C296.348 664.66 297.09 661.408 295.737 658.743C289.454 646.359 300.644 632.327 314.116 635.697C317.016 636.422 320.02 634.975 321.261 632.255ZM332 707.333V690H340V707.333C340 707.813 340.086 708.288 340.255 708.738L342.228 714H329.772L331.745 708.738C331.914 708.288 332 707.813 332 707.333Z" stroke="currentColor" stroke-linecap="round" stroke-linejoin="round"/>
<path fill-rule="evenodd" clip-rule="evenodd" d="M563.268 686H460.731C458.074 678.301 459.968 669.085 467.544 663.296C468.387 662.652 468.65 661.499 468.17 660.552C460.336 645.111 474.289 627.614 491.087 631.816C492.116 632.074 493.182 631.56 493.622 630.595C500.81 614.842 523.189 614.842 530.377 630.595C530.818 631.56 531.884 632.074 532.913 631.816C549.711 627.614 563.664 645.111 555.83 660.552C555.35 661.499 555.613 662.652 556.456 663.296C564.032 669.085 565.926 678.301 563.268 686Z" fill="currentColor"/>
<path d="M563.268 686V688C564.122 688 564.881 687.459 565.159 686.652L563.268 686ZM460.731 686L458.841 686.652C459.119 687.459 459.878 688 460.731 688V686ZM467.544 663.296L468.758 664.886L468.758 664.886L467.544 663.296ZM468.17 660.552L469.954 659.648L468.17 660.552ZM491.087 631.816L491.572 629.876L491.087 631.816ZM493.622 630.595L491.803 629.765L493.622 630.595ZM530.377 630.595L532.197 629.765V629.765L530.377 630.595ZM532.913 631.816L533.399 633.756H533.399L532.913 631.816ZM555.83 660.552L554.046 659.648L554.046 659.648L555.83 660.552ZM556.456 663.296L557.67 661.707V661.707L556.456 663.296ZM563.268 684H460.731V688H563.268V684ZM462.622 685.347C460.216 678.379 461.936 670.099 468.758 664.886L466.329 661.707C458.001 668.072 455.931 678.223 458.841 686.652L462.622 685.347ZM468.758 664.886C470.367 663.656 470.87 661.453 469.954 659.648L466.387 661.457C466.43 661.544 466.406 661.649 466.329 661.707L468.758 664.886ZM469.954 659.648C462.895 645.735 475.466 629.97 490.601 633.756L491.572 629.876C473.111 625.258 457.776 644.487 466.387 661.457L469.954 659.648ZM490.601 633.756C492.566 634.248 494.601 633.268 495.442 631.425L491.803 629.765C491.763 629.853 491.666 629.899 491.572 629.876L490.601 633.756ZM495.442 631.425C501.918 617.232 522.082 617.232 528.558 631.425L532.197 629.765C524.297 612.452 499.702 612.452 491.803 629.765L495.442 631.425ZM528.558 631.425C529.399 633.268 531.434 634.248 533.399 633.756L532.428 629.876C532.334 629.899 532.237 629.853 532.197 629.765L528.558 631.425ZM533.399 633.756C548.533 629.97 561.105 645.735 554.046 659.648L557.613 661.457C566.223 644.487 550.889 625.258 532.428 629.876L533.399 633.756ZM554.046 659.648C553.13 661.453 553.633 663.656 555.242 664.886L557.67 661.707C557.594 661.649 557.57 661.544 557.613 661.457L554.046 659.648ZM555.242 664.886C562.064 670.099 563.783 678.379 561.378 685.347L565.159 686.652C568.069 678.223 565.999 668.072 557.67 661.707L555.242 664.886Z" fill="currentColor"/>
<path fill-rule="evenodd" clip-rule="evenodd" d="M504 707.333V686H512H520V707.333L524 718H520H504H500L504 707.333Z" fill="currentColor"/>
<path d="M504 707.333L505.873 708.036C505.957 707.811 506 707.573 506 707.333H504ZM504 686V684C502.895 684 502 684.895 502 686H504ZM520 686H522C522 684.895 521.105 684 520 684V686ZM520 707.333H518C518 707.573 518.043 707.811 518.127 708.036L520 707.333ZM524 718V720C524.656 720 525.27 719.678 525.644 719.139C526.017 718.6 526.103 717.912 525.873 717.298L524 718ZM500 718L498.127 717.298C497.897 717.912 497.983 718.6 498.356 719.139C498.73 719.678 499.344 720 500 720V718ZM506 707.333V686H502V707.333H506ZM504 688H512V684H504V688ZM512 688H520V684H512V688ZM518 686V707.333H522V686H518ZM518.127 708.036L522.127 718.702L525.873 717.298L521.873 706.631L518.127 708.036ZM524 716H520V720H524V716ZM520 716H504V720H520V716ZM504 716H500V720H504V716ZM501.873 718.702L505.873 708.036L502.127 706.631L498.127 717.298L501.873 718.702Z" fill="currentColor"/>
<g opacity="0.25">
<path fill-rule="evenodd" clip-rule="evenodd" d="M739.268 686H636.731C634.074 678.301 635.968 669.085 643.544 663.296C644.387 662.652 644.65 661.499 644.17 660.552C636.336 645.111 650.289 627.614 667.087 631.816C668.116 632.074 669.182 631.56 669.622 630.595C676.81 614.842 699.189 614.842 706.377 630.595C706.818 631.56 707.884 632.074 708.913 631.816C725.711 627.614 739.664 645.111 731.83 660.552C731.35 661.499 731.613 662.652 732.456 663.296C740.032 669.085 741.926 678.301 739.268 686Z" fill="currentColor"/>
<path d="M739.268 686V688C740.122 688 740.881 687.459 741.159 686.652L739.268 686ZM636.731 686L634.841 686.652C635.119 687.459 635.878 688 636.731 688V686ZM643.544 663.296L644.758 664.886L644.758 664.886L643.544 663.296ZM644.17 660.552L645.954 659.648L644.17 660.552ZM667.087 631.816L667.572 629.876L667.087 631.816ZM669.622 630.595L667.803 629.765L669.622 630.595ZM706.377 630.595L708.197 629.765V629.765L706.377 630.595ZM708.913 631.816L709.399 633.756H709.399L708.913 631.816ZM731.83 660.552L730.046 659.648L730.046 659.648L731.83 660.552ZM732.456 663.296L733.67 661.707V661.707L732.456 663.296ZM739.268 684H636.731V688H739.268V684ZM638.622 685.347C636.216 678.379 637.936 670.099 644.758 664.886L642.329 661.707C634.001 668.072 631.931 678.223 634.841 686.652L638.622 685.347ZM644.758 664.886C646.367 663.656 646.87 661.453 645.954 659.648L642.387 661.457C642.43 661.544 642.406 661.649 642.329 661.707L644.758 664.886ZM645.954 659.648C638.895 645.735 651.466 629.97 666.601 633.756L667.572 629.876C649.111 625.258 633.776 644.487 642.387 661.457L645.954 659.648ZM666.601 633.756C668.566 634.248 670.601 633.268 671.442 631.425L667.803 629.765C667.763 629.853 667.666 629.899 667.572 629.876L666.601 633.756ZM671.442 631.425C677.918 617.232 698.082 617.232 704.558 631.425L708.197 629.765C700.297 612.452 675.702 612.452 667.803 629.765L671.442 631.425ZM704.558 631.425C705.399 633.268 707.434 634.248 709.399 633.756L708.428 629.876C708.334 629.899 708.237 629.853 708.197 629.765L704.558 631.425ZM709.399 633.756C724.533 629.97 737.105 645.735 730.046 659.648L733.613 661.457C742.223 644.487 726.889 625.258 708.428 629.876L709.399 633.756ZM730.046 659.648C729.13 661.453 729.633 663.656 731.242 664.886L733.67 661.707C733.594 661.649 733.57 661.544 733.613 661.457L730.046 659.648ZM731.242 664.886C738.064 670.099 739.783 678.379 737.378 685.347L741.159 686.652C744.069 678.223 741.999 668.072 733.67 661.707L731.242 664.886Z" fill="currentColor"/>
</g>
<path fill-rule="evenodd" clip-rule="evenodd" d="M680 707.333V686H688H696V707.333L700 718H696H680H676L680 707.333Z" fill="currentColor"/>
<path fill-rule="evenodd" clip-rule="evenodd" d="M915.268 686H812.731C810.074 678.301 811.968 669.085 819.544 663.296C820.387 662.652 820.65 661.499 820.17 660.552C812.336 645.111 826.289 627.614 843.087 631.816C844.116 632.074 845.182 631.56 845.622 630.595C852.81 614.842 875.189 614.842 882.377 630.595C882.818 631.56 883.884 632.074 884.913 631.816C901.711 627.614 915.664 645.111 907.83 660.552C907.35 661.499 907.613 662.652 908.456 663.296C916.032 669.085 917.926 678.301 915.268 686Z" fill="#FFA500"/>
<path d="M915.268 686V688C916.122 688 916.881 687.459 917.159 686.652L915.268 686ZM812.731 686L810.841 686.652C811.119 687.459 811.878 688 812.731 688V686ZM819.544 663.296L820.758 664.886L820.758 664.886L819.544 663.296ZM820.17 660.552L821.954 659.648L820.17 660.552ZM843.087 631.816L843.572 629.876L843.087 631.816ZM845.622 630.595L843.803 629.765L845.622 630.595ZM882.377 630.595L884.197 629.765V629.765L882.377 630.595ZM884.913 631.816L885.399 633.756H885.399L884.913 631.816ZM907.83 660.552L906.046 659.648L906.046 659.648L907.83 660.552ZM908.456 663.296L909.67 661.707V661.707L908.456 663.296ZM915.268 684H812.731V688H915.268V684ZM814.622 685.347C812.216 678.379 813.936 670.099 820.758 664.886L818.329 661.707C810.001 668.072 807.931 678.223 810.841 686.652L814.622 685.347ZM820.758 664.886C822.367 663.656 822.87 661.453 821.954 659.648L818.387 661.457C818.43 661.544 818.406 661.649 818.329 661.707L820.758 664.886ZM821.954 659.648C814.895 645.735 827.466 629.97 842.601 633.756L843.572 629.876C825.111 625.258 809.776 644.487 818.387 661.457L821.954 659.648ZM842.601 633.756C844.566 634.248 846.601 633.268 847.442 631.425L843.803 629.765C843.763 629.853 843.666 629.899 843.572 629.876L842.601 633.756ZM847.442 631.425C853.918 617.232 874.082 617.232 880.558 631.425L884.197 629.765C876.297 612.452 851.702 612.452 843.803 629.765L847.442 631.425ZM880.558 631.425C881.399 633.268 883.434 634.248 885.399 633.756L884.428 629.876C884.334 629.899 884.237 629.853 884.197 629.765L880.558 631.425ZM885.399 633.756C900.533 629.97 913.105 645.735 906.046 659.648L909.613 661.457C918.223 644.487 902.889 625.258 884.428 629.876L885.399 633.756ZM906.046 659.648C905.13 661.453 905.633 663.656 907.242 664.886L909.67 661.707C909.594 661.649 909.57 661.544 909.613 661.457L906.046 659.648ZM907.242 664.886C914.064 670.099 915.783 678.379 913.378 685.347L917.159 686.652C920.069 678.223 917.999 668.072 909.67 661.707L907.242 664.886Z" fill="#FFA500"/>
<path fill-rule="evenodd" clip-rule="evenodd" d="M856 707.333V686H864H872V707.333L876 718H872H856H852L856 707.333Z" fill="#8B4513"/>
</svg>
