<svg viewBox="0 0 1024 768" fill="none" xmlns="http://www.w3.org/2000/svg">
<path d="M410.388 58.0374C416.64 47.9152 431.36 47.9152 437.612 58.0374L444.923 69.8728C446.23 71.9883 448.012 73.7701 450.127 75.0768L461.963 82.3875C472.085 88.64 472.085 103.36 461.963 109.612L450.127 116.923C448.012 118.23 446.23 120.012 444.923 122.127L437.612 133.963C431.36 144.085 416.64 144.085 410.388 133.963L403.077 122.127C401.77 120.012 399.988 118.23 397.873 116.923L386.037 109.612C375.915 103.36 375.915 88.64 386.037 82.3875L397.873 75.0768C399.988 73.7701 401.77 71.9883 403.077 69.8728L410.388 58.0374Z" stroke="#7B61FF" stroke-width="2" stroke-linecap="round" stroke-linejoin="round"/>
<path d="M578.787 147.213C592.369 152.839 607.631 152.839 621.213 147.213V147.213C634.796 141.587 645.587 130.796 651.213 117.213V117.213C656.839 103.631 656.839 88.3694 651.213 74.7868V74.7868C645.587 61.2042 634.796 50.4129 621.213 44.7868V44.7868C607.631 39.1607 592.369 39.1607 578.787 44.7868V44.7868C565.204 50.4129 554.413 61.2042 548.787 74.7868V74.7868C543.161 88.3694 543.161 103.631 548.787 117.213V117.213C554.413 130.796 565.204 141.587 578.787 147.213V147.213Z" stroke="#7B61FF" stroke-width="2" stroke-linecap="round" stroke-linejoin="round"/>
<path fill-rule="evenodd" clip-rule="evenodd" d="M648.17 389.23C646.531 409.096 625.817 419 605.884 419H418.116C398.182 419 377.468 409.096 375.83 389.23C374.002 367.069 383.815 344.078 405.269 330.826L424.935 318.678C429.331 315.963 433.219 312.526 436.872 308.872C440.526 305.219 443.963 301.331 446.678 296.935L458.826 277.269C483.25 237.729 540.75 237.729 565.173 277.269L577.321 296.935C580.036 301.331 583.474 305.219 587.127 308.872C590.78 312.526 594.669 315.963 599.065 318.679L618.731 330.826C640.185 344.078 649.998 367.069 648.17 389.23ZM561.874 386.374C553.951 389.656 545.049 389.656 537.125 386.374C529.202 383.092 522.907 376.797 519.625 368.874C516.344 360.951 516.344 352.049 519.625 344.125C522.907 336.202 529.202 329.907 537.125 326.625C545.049 323.344 553.951 323.344 561.874 326.625C569.797 329.907 576.092 336.202 579.374 344.125C582.656 352.049 582.656 360.951 579.374 368.874C576.092 376.797 569.797 383.092 561.874 386.374ZM454.929 358.571C459.456 360.446 464.543 360.446 469.071 358.571C473.598 356.695 477.195 353.098 479.071 348.571C480.946 344.043 480.946 338.956 479.071 334.429C477.195 329.901 473.598 326.304 469.071 324.429C464.543 322.553 459.456 322.553 454.929 324.429C450.401 326.304 446.804 329.901 444.929 334.429C443.053 338.956 443.053 344.043 444.929 348.571C446.804 353.098 450.401 356.695 454.929 358.571ZM518.035 292.535C515.772 293.473 513.228 293.473 510.964 292.535C508.701 291.598 506.902 289.799 505.964 287.535C505.027 285.272 505.027 282.728 505.964 280.464C506.902 278.2 508.701 276.402 510.964 275.464C513.228 274.527 515.772 274.527 518.035 275.464C520.299 276.402 522.098 278.2 523.035 280.464C523.973 282.728 523.973 285.272 523.035 287.535C522.098 289.799 520.299 291.598 518.035 292.535Z" fill="#888888" fill-opacity="0.5"/>
<path d="M405.269 330.826L402.641 326.572H402.641L405.269 330.826ZM458.826 277.269L454.572 274.641V274.641L458.826 277.269ZM565.173 277.269L560.92 279.897L565.173 277.269ZM618.731 330.826L621.358 326.572L618.731 330.826ZM537.125 386.374L535.212 390.994L537.125 386.374ZM561.874 386.374L559.961 381.755H559.961L561.874 386.374ZM519.625 368.874L515.006 370.788V370.788L519.625 368.874ZM519.625 344.125L524.245 346.039V346.039L519.625 344.125ZM537.125 326.625L539.039 331.245L537.125 326.625ZM561.874 326.625L559.961 331.245L561.874 326.625ZM579.374 344.125L583.994 342.212L579.374 344.125ZM579.374 368.874L583.994 370.788L579.374 368.874ZM479.071 348.571L483.69 350.484V350.484L479.071 348.571ZM479.071 334.429L474.451 336.342V336.342L479.071 334.429ZM469.071 324.429L470.984 319.809H470.984L469.071 324.429ZM454.929 324.429L456.842 329.048H456.842L454.929 324.429ZM444.929 334.429L449.548 336.342V336.342L444.929 334.429ZM444.929 348.571L440.309 350.484V350.484L444.929 348.571ZM510.964 292.535L512.878 287.916L512.878 287.916L510.964 292.535ZM518.035 292.535L516.122 287.916L516.122 287.916L518.035 292.535ZM505.964 287.535L510.584 285.622V285.622L505.964 287.535ZM505.964 280.464L510.584 282.378V282.378L505.964 280.464ZM510.964 275.464L512.878 280.084L510.964 275.464ZM518.035 275.464L516.122 280.084L518.035 275.464ZM523.035 280.464L527.655 278.551V278.551L523.035 280.464ZM523.035 287.535L518.416 285.622V285.622L523.035 287.535ZM599.065 318.679L601.692 314.425L599.065 318.679ZM577.321 296.935L573.067 299.563L577.321 296.935ZM424.935 318.678L422.307 314.425L424.935 318.678ZM648.17 389.23L643.187 388.819L648.17 389.23ZM605.884 414H418.116V424H605.884V414ZM402.641 326.572C379.468 340.887 368.876 365.75 370.846 389.641L380.813 388.819C379.127 368.388 388.162 347.27 407.897 335.08L402.641 326.572ZM422.307 314.425L402.641 326.572L407.897 335.08L427.563 322.932L422.307 314.425ZM454.572 274.641L442.425 294.307L450.932 299.563L463.08 279.897L454.572 274.641ZM569.427 274.641C543.05 231.938 480.95 231.939 454.572 274.641L463.08 279.897C485.55 243.52 538.45 243.52 560.92 279.897L569.427 274.641ZM581.575 294.307L569.427 274.641L560.92 279.897L573.067 299.563L581.575 294.307ZM621.358 326.572L601.692 314.425L596.437 322.932L616.103 335.08L621.358 326.572ZM653.153 389.641C655.124 365.75 644.532 340.887 621.358 326.572L616.103 335.08C635.838 347.27 644.872 368.388 643.187 388.819L653.153 389.641ZM535.212 390.994C544.36 394.783 554.639 394.783 563.788 390.994L559.961 381.755C553.263 384.529 545.737 384.529 539.039 381.755L535.212 390.994ZM515.006 370.788C518.795 379.936 526.064 387.204 535.212 390.994L539.039 381.755C532.341 378.98 527.019 373.659 524.245 366.961L515.006 370.788ZM515.006 342.212C511.217 351.36 511.217 361.639 515.006 370.788L524.245 366.961C521.47 360.263 521.47 352.737 524.245 346.039L515.006 342.212ZM535.212 322.006C526.064 325.795 518.795 333.064 515.006 342.212L524.245 346.039C527.019 339.341 532.341 334.019 539.039 331.245L535.212 322.006ZM563.788 322.006C554.639 318.217 544.36 318.217 535.212 322.006L539.039 331.245C545.737 328.47 553.263 328.47 559.961 331.245L563.788 322.006ZM583.994 342.212C580.204 333.064 572.936 325.795 563.788 322.006L559.961 331.245C566.659 334.019 571.98 339.341 574.755 346.039L583.994 342.212ZM583.994 370.788C587.783 361.639 587.783 351.36 583.994 342.212L574.755 346.039C577.529 352.737 577.529 360.263 574.755 366.961L583.994 370.788ZM563.788 390.994C572.936 387.204 580.204 379.936 583.994 370.788L574.755 366.961C571.98 373.659 566.659 378.98 559.961 381.755L563.788 390.994ZM467.157 353.951C463.855 355.319 460.145 355.319 456.842 353.951L453.015 363.19C458.768 365.573 465.232 365.573 470.984 363.19L467.157 353.951ZM474.451 346.657C473.084 349.96 470.46 352.584 467.157 353.951L470.984 363.19C476.737 360.807 481.307 356.237 483.69 350.484L474.451 346.657ZM474.451 336.342C475.819 339.645 475.819 343.355 474.451 346.657L483.69 350.484C486.073 344.732 486.073 338.268 483.69 332.515L474.451 336.342ZM467.157 329.048C470.46 330.416 473.084 333.04 474.451 336.342L483.69 332.515C481.307 326.763 476.737 322.192 470.984 319.809L467.157 329.048ZM456.842 329.048C460.145 327.68 463.855 327.68 467.157 329.048L470.984 319.809C465.232 317.426 458.768 317.426 453.015 319.809L456.842 329.048ZM449.548 336.342C450.916 333.04 453.54 330.416 456.842 329.048L453.015 319.809C447.263 322.192 442.692 326.763 440.309 332.515L449.548 336.342ZM449.548 346.657C448.18 343.355 448.18 339.645 449.548 336.342L440.309 332.515C437.926 338.268 437.926 344.732 440.309 350.484L449.548 346.657ZM456.842 353.951C453.54 352.584 450.916 349.96 449.548 346.657L440.309 350.484C442.692 356.237 447.263 360.807 453.015 363.19L456.842 353.951ZM509.051 297.155C512.54 298.6 516.46 298.6 519.949 297.155L516.122 287.916C515.083 288.346 513.916 288.346 512.878 287.916L509.051 297.155ZM501.345 289.449C502.79 292.938 505.562 295.71 509.051 297.155L512.878 287.916C511.839 287.486 511.014 286.661 510.584 285.622L501.345 289.449ZM501.345 278.551C499.9 282.04 499.9 285.96 501.345 289.449L510.584 285.622C510.153 284.583 510.153 283.416 510.584 282.378L501.345 278.551ZM509.051 270.845C505.562 272.29 502.79 275.062 501.345 278.551L510.584 282.378C511.014 281.339 511.839 280.514 512.878 280.084L509.051 270.845ZM519.949 270.845C516.46 269.4 512.54 269.4 509.051 270.845L512.878 280.084C513.916 279.653 515.083 279.653 516.122 280.084L519.949 270.845ZM527.655 278.551C526.21 275.062 523.438 272.29 519.949 270.845L516.122 280.084C517.161 280.514 517.986 281.339 518.416 282.378L527.655 278.551ZM527.655 289.449C529.1 285.96 529.1 282.04 527.655 278.551L518.416 282.378C518.846 283.416 518.846 284.583 518.416 285.622L527.655 289.449ZM519.949 297.155C523.438 295.71 526.21 292.938 527.655 289.449L518.416 285.622C517.986 286.661 517.161 287.486 516.122 287.916L519.949 297.155ZM583.592 312.408C587.373 316.19 591.574 319.928 596.437 322.932L601.692 314.425C597.764 311.998 594.188 308.862 590.663 305.337L583.592 312.408ZM573.067 299.563C576.071 304.426 579.81 308.626 583.592 312.408L590.663 305.337C587.138 301.812 584.001 298.235 581.575 294.307L573.067 299.563ZM440.408 312.408C444.19 308.626 447.928 304.426 450.932 299.563L442.425 294.307C439.998 298.235 436.862 301.812 433.337 305.337L440.408 312.408ZM427.563 322.932C432.426 319.928 436.626 316.19 440.408 312.408L433.337 305.337C429.812 308.862 426.235 311.998 422.307 314.425L427.563 322.932ZM418.116 414C408.896 414 399.703 411.696 392.776 407.334C385.95 403.035 381.478 396.88 380.813 388.819L370.846 389.641C371.82 401.446 378.524 410.176 387.448 415.796C396.271 421.352 407.402 424 418.116 424V414ZM605.884 424C616.598 424 627.728 421.352 636.552 415.796C645.475 410.176 652.179 401.446 653.153 389.641L643.187 388.819C642.522 396.88 638.05 403.035 631.223 407.334C624.297 411.696 615.103 414 605.884 414V424Z" fill="currentColor"/>
<path d="M537.126 386.374C545.049 389.656 553.951 389.656 561.874 386.374C569.798 383.092 576.092 376.798 579.374 368.874C582.656 360.951 582.656 352.049 579.374 344.126C576.092 336.202 569.798 329.908 561.874 326.626C553.951 323.344 545.049 323.344 537.126 326.626C529.202 329.908 522.908 336.202 519.626 344.126C516.344 352.049 516.344 360.951 519.626 368.874C522.908 376.798 529.202 383.092 537.126 386.374Z" fill="#888888" fill-opacity="0.5" stroke="currentColor" stroke-width="10" stroke-linecap="round" stroke-linejoin="round"/>
<path d="M454.929 358.571C459.456 360.446 464.544 360.446 469.071 358.571C473.599 356.696 477.196 353.099 479.071 348.571C480.946 344.044 480.946 338.956 479.071 334.429C477.196 329.901 473.599 326.304 469.071 324.429C464.544 322.554 459.456 322.554 454.929 324.429C450.401 326.304 446.804 329.901 444.929 334.429C443.054 338.956 443.054 344.044 444.929 348.571C446.804 353.099 450.401 356.696 454.929 358.571Z" fill="#888888" fill-opacity="0.5" stroke="currentColor" stroke-width="10" stroke-linecap="round" stroke-linejoin="round"/>
<path d="M510.964 292.536C513.228 293.473 515.772 293.473 518.036 292.536C520.299 291.598 522.098 289.799 523.036 287.536C523.973 285.272 523.973 282.728 523.036 280.464C522.098 278.201 520.299 276.402 518.036 275.464C515.772 274.527 513.228 274.527 510.964 275.464C508.701 276.402 506.902 278.201 505.964 280.464C505.027 282.728 505.027 285.272 505.964 287.536C506.902 289.799 508.701 291.598 510.964 292.536Z" fill="#888888" fill-opacity="0.5" stroke="currentColor" stroke-width="10" stroke-linecap="round" stroke-linejoin="round"/>
<g opacity="0.25">
<path d="M479.067 292.155C494.194 267.666 529.807 267.666 544.934 292.155L562.621 320.789C565.782 325.907 570.093 330.218 575.211 333.38L603.845 351.067C628.334 366.194 628.334 401.807 603.845 416.934L575.211 434.621C570.093 437.782 565.782 442.093 562.621 447.211L544.934 475.845C529.807 500.334 494.194 500.334 479.067 475.845L461.38 447.211C458.218 442.093 453.907 437.782 448.789 434.621L420.155 416.934C395.666 401.807 395.666 366.194 420.155 351.067L448.789 333.38C453.907 330.218 458.218 325.907 461.38 320.789L479.067 292.155Z" stroke="currentColor" stroke-width="2.41935" stroke-linecap="round" stroke-linejoin="round"/>
<rect x="362" y="234" width="300" height="183.871" stroke="currentColor" stroke-width="2.41935" stroke-linecap="round" stroke-linejoin="round"/>
</g>
<path d="M117.308 650.73L116.782 649.879L117.308 650.73ZM138.731 629.307L139.581 629.833L138.731 629.307ZM181.269 629.307L180.419 629.833L181.269 629.307ZM202.692 650.73L202.167 651.581L202.692 650.73ZM170.05 672.949L169.668 673.873V673.873L170.05 672.949ZM179.95 672.949L180.333 673.873V673.873L179.95 672.949ZM163.05 665.949L162.126 666.332L163.05 665.949ZM163.05 656.05L163.974 656.432L163.05 656.05ZM170.05 649.05L170.433 649.974L170.05 649.05ZM179.95 649.05L180.333 648.126L179.95 649.05ZM186.95 656.05L187.874 655.667V655.667L186.95 656.05ZM186.95 665.949L187.874 666.332L186.95 665.949ZM137.172 661.828L137.554 660.904H137.554L137.172 661.828ZM146.829 657.828L147.752 658.211L146.829 657.828ZM146.829 652.171L147.752 651.788V651.788L146.829 652.171ZM142.829 648.171L142.446 649.095L142.829 648.171ZM137.172 648.171L137.554 649.095H137.554L137.172 648.171ZM133.172 657.828L132.248 658.211L133.172 657.828ZM157.586 633.414L158.51 633.031L157.586 633.414ZM157.586 630.585L158.51 630.968L157.586 630.585ZM159.586 628.585L159.203 627.661L159.586 628.585ZM162.414 628.585L162.797 627.661L162.414 628.585ZM164.414 630.585L163.49 630.968L164.414 630.585ZM164.414 633.414L163.49 633.031L164.414 633.414ZM186.129 637.174L185.278 637.7L186.129 637.174ZM105.532 674.091L104.535 674.174L105.532 674.091ZM197.554 684.999H122.446V686.999H197.554V684.999ZM116.782 649.879C107.857 655.393 103.776 664.963 104.535 674.174L106.529 674.009C105.826 665.491 109.595 656.669 117.833 651.581L116.782 649.879ZM124.648 645.02L116.782 649.879L117.833 651.581L125.699 646.722L124.648 645.02ZM137.88 628.782L133.021 636.648L134.723 637.699L139.581 629.833L137.88 628.782ZM182.12 628.782C171.96 612.333 148.04 612.333 137.88 628.782L139.581 629.833C148.96 614.649 171.04 614.65 180.419 629.833L182.12 628.782ZM186.98 636.648L182.12 628.782L180.419 629.833L185.278 637.7L186.98 636.648ZM203.218 649.879L195.351 645.02L194.3 646.722L202.167 651.581L203.218 649.879ZM215.465 674.174C216.224 664.963 212.143 655.393 203.218 649.879L202.167 651.581C210.405 656.669 214.174 665.491 213.472 674.009L215.465 674.174ZM169.668 673.873C173.082 675.287 176.918 675.287 180.333 673.873L179.567 672.025C176.643 673.237 173.357 673.237 170.433 672.025L169.668 673.873ZM162.126 666.332C163.541 669.746 166.253 672.459 169.668 673.873L170.433 672.025C167.509 670.814 165.185 668.491 163.974 665.567L162.126 666.332ZM162.126 655.667C160.712 659.081 160.712 662.918 162.126 666.332L163.974 665.567C162.763 662.642 162.763 659.357 163.974 656.432L162.126 655.667ZM169.668 648.126C166.253 649.54 163.541 652.253 162.126 655.667L163.974 656.432C165.185 653.508 167.509 651.185 170.433 649.974L169.668 648.126ZM180.333 648.126C176.918 646.712 173.082 646.712 169.668 648.126L170.433 649.974C173.357 648.762 176.643 648.762 179.567 649.974L180.333 648.126ZM187.874 655.667C186.459 652.253 183.747 649.54 180.333 648.126L179.567 649.974C182.491 651.185 184.815 653.508 186.026 656.432L187.874 655.667ZM187.874 666.332C189.288 662.918 189.288 659.081 187.874 655.667L186.026 656.432C187.237 659.357 187.237 662.642 186.026 665.567L187.874 666.332ZM180.333 673.873C183.747 672.459 186.459 669.746 187.874 666.332L186.026 665.567C184.815 668.491 182.491 670.814 179.567 672.025L180.333 673.873ZM142.446 660.904C140.88 661.553 139.12 661.553 137.554 660.904L136.789 662.752C138.845 663.603 141.155 663.603 143.211 662.752L142.446 660.904ZM145.905 657.445C145.256 659.011 144.012 660.255 142.446 660.904L143.211 662.752C145.267 661.9 146.901 660.267 147.752 658.211L145.905 657.445ZM145.905 652.554C146.553 654.12 146.553 655.879 145.905 657.445L147.752 658.211C148.604 656.155 148.604 653.844 147.752 651.788L145.905 652.554ZM142.446 649.095C144.012 649.744 145.256 650.988 145.905 652.554L147.752 651.788C146.901 649.732 145.267 648.099 143.211 647.247L142.446 649.095ZM137.554 649.095C139.12 648.446 140.88 648.446 142.446 649.095L143.211 647.247C141.155 646.396 138.845 646.396 136.789 647.247L137.554 649.095ZM134.096 652.554C134.744 650.988 135.988 649.744 137.554 649.095L136.789 647.247C134.733 648.099 133.099 649.732 132.248 651.788L134.096 652.554ZM134.096 657.445C133.447 655.879 133.447 654.12 134.096 652.554L132.248 651.788C131.396 653.844 131.396 656.155 132.248 658.211L134.096 657.445ZM137.554 660.904C135.988 660.255 134.744 659.011 134.096 657.445L132.248 658.211C133.099 660.267 134.733 661.9 136.789 662.752L137.554 660.904ZM159.203 636.338C160.354 636.814 161.646 636.814 162.797 636.338L162.032 634.49C161.371 634.763 160.629 634.763 159.969 634.49L159.203 636.338ZM156.662 633.796C157.139 634.947 158.053 635.861 159.203 636.338L159.969 634.49C159.308 634.216 158.783 633.692 158.51 633.031L156.662 633.796ZM156.662 630.203C156.185 631.353 156.185 632.646 156.662 633.796L158.51 633.031C158.236 632.371 158.236 631.628 158.51 630.968L156.662 630.203ZM159.203 627.661C158.053 628.138 157.139 629.052 156.662 630.203L158.51 630.968C158.783 630.308 159.308 629.783 159.969 629.509L159.203 627.661ZM162.797 627.661C161.646 627.185 160.354 627.185 159.203 627.661L159.969 629.509C160.629 629.236 161.371 629.236 162.032 629.509L162.797 627.661ZM165.338 630.203C164.862 629.052 163.948 628.138 162.797 627.661L162.032 629.509C162.692 629.783 163.217 630.308 163.49 630.968L165.338 630.203ZM165.338 633.796C165.815 632.646 165.815 631.353 165.338 630.203L163.49 630.968C163.764 631.628 163.764 632.371 163.49 633.031L165.338 633.796ZM162.797 636.338C163.948 635.861 164.862 634.947 165.338 633.796L163.49 633.031C163.217 633.692 162.692 634.216 162.032 634.49L162.797 636.338ZM189.344 642.656C190.831 644.143 192.448 645.578 194.3 646.722L195.351 645.02C193.686 643.992 192.194 642.677 190.758 641.242L189.344 642.656ZM185.278 637.7C186.422 639.551 187.857 641.169 189.344 642.656L190.758 641.242C189.322 639.806 188.008 638.313 186.98 636.648L185.278 637.7ZM130.656 642.656C132.143 641.169 133.579 639.551 134.723 637.699L133.021 636.648C131.993 638.313 130.678 639.806 129.242 641.241L130.656 642.656ZM125.699 646.722C127.551 645.578 129.169 644.143 130.656 642.656L129.242 641.241C127.806 642.677 126.313 643.992 124.648 645.02L125.699 646.722ZM122.446 684.999C118.609 684.999 114.738 684.043 111.778 682.179C108.837 680.328 106.825 677.608 106.529 674.009L104.535 674.174C104.894 678.521 107.352 681.756 110.712 683.872C114.052 685.975 118.31 686.999 122.446 686.999V684.999ZM197.554 686.999C201.69 686.999 205.948 685.975 209.288 683.872C212.648 681.756 215.106 678.521 215.465 674.174L213.472 674.009C213.175 677.608 211.163 680.328 208.222 682.179C205.262 684.043 201.391 684.999 197.554 684.999V686.999Z" fill="currentColor"/>
<path d="M170.05 672.95C173.22 674.263 176.78 674.263 179.95 672.95V672.95C183.119 671.637 185.637 669.119 186.95 665.95V665.95C188.263 662.78 188.263 659.22 186.95 656.05V656.05C185.637 652.881 183.119 650.363 179.95 649.05V649.05C176.78 647.737 173.22 647.737 170.05 649.05V649.05C166.881 650.363 164.363 652.881 163.05 656.05V656.05C161.737 659.22 161.737 662.78 163.05 665.95V665.95C164.363 669.119 166.881 671.637 170.05 672.95V672.95Z" stroke="currentColor" stroke-width="2" stroke-linecap="round" stroke-linejoin="round"/>
<path d="M137.172 661.828C138.983 662.579 141.017 662.579 142.828 661.828V661.828C144.639 661.078 146.078 659.639 146.828 657.828V657.828C147.579 656.017 147.579 653.983 146.828 652.172V652.172C146.078 650.361 144.639 648.922 142.828 648.172V648.172C141.017 647.421 138.983 647.421 137.172 648.172V648.172C135.361 648.922 133.922 650.361 133.172 652.172V652.172C132.421 653.983 132.421 656.017 133.172 657.828V657.828C133.922 659.639 135.361 661.078 137.172 661.828V661.828Z" stroke="currentColor" stroke-width="2" stroke-linecap="round" stroke-linejoin="round"/>
<path d="M159.586 635.414C160.491 635.789 161.509 635.789 162.414 635.414V635.414C163.32 635.039 164.039 634.32 164.414 633.414V633.414C164.789 632.509 164.789 631.491 164.414 630.586V630.586C164.039 629.68 163.32 628.961 162.414 628.586V628.586C161.509 628.211 160.491 628.211 159.586 628.586V628.586C158.68 628.961 157.961 629.68 157.586 630.586V630.586C157.211 631.491 157.211 632.509 157.586 633.414V633.414C157.961 634.32 158.68 635.039 159.586 635.414V635.414Z" stroke="currentColor" stroke-width="2" stroke-linecap="round" stroke-linejoin="round"/>
<path d="M318.134 631.409L318.559 631.672L318.134 631.409ZM353.867 631.409L353.441 631.672L353.867 631.409ZM313.275 639.275L312.85 639.013L313.275 639.275ZM308.778 644.777L309.131 645.131H309.131L308.778 644.777ZM303.276 649.274L303.013 648.849L303.276 649.274ZM295.41 654.133L295.673 654.559L295.41 654.133ZM285.519 673.763L286.017 673.722L285.519 673.763ZM289.377 679.641L289.11 680.064L289.377 679.641ZM382.624 679.641L382.89 680.064L382.624 679.641ZM386.482 673.763L385.984 673.722V673.722L386.482 673.763ZM376.59 654.133L376.853 653.708L376.59 654.133ZM368.724 649.274L368.986 648.848L368.724 649.274ZM363.223 644.777L363.576 644.423L363.223 644.777ZM358.726 639.276L359.151 639.013L358.726 639.276ZM360.673 627.205L360.247 627.468L360.673 627.205ZM311.328 627.205L311.753 627.468L311.328 627.205ZM365.532 635.072L365.107 635.335V635.335L365.532 635.072ZM368.88 639.12L369.233 638.767V638.767L368.88 639.12ZM372.928 642.468L372.665 642.893V642.893L372.928 642.468ZM380.795 647.327L380.532 647.752L380.795 647.327ZM394.455 674.42L394.953 674.461L394.455 674.42ZM386.887 686.41L386.62 685.987L386.887 686.41ZM285.114 686.41L285.38 685.987L285.114 686.41ZM277.546 674.42L277.047 674.461L277.546 674.42ZM291.206 647.327L290.943 646.902L291.206 647.327ZM299.072 642.468L299.335 642.894V642.894L299.072 642.468ZM303.121 639.12L302.767 638.767L303.121 639.12ZM306.469 635.071L306.043 634.808L306.469 635.071ZM318.559 631.672C326.57 618.703 345.43 618.703 353.441 631.672L354.292 631.147C345.89 617.545 326.11 617.545 317.708 631.147L318.559 631.672ZM313.7 639.538L318.559 631.672L317.708 631.147L312.85 639.013L313.7 639.538ZM309.131 645.131C310.708 643.554 312.354 641.717 313.7 639.538L312.85 639.013C311.561 641.098 309.975 642.872 308.424 644.423L309.131 645.131ZM303.539 649.7C305.718 648.354 307.554 646.707 309.131 645.131L308.424 644.423C306.873 645.975 305.099 647.561 303.013 648.849L303.539 649.7ZM295.673 654.559L303.539 649.7L303.013 648.849L295.147 653.708L295.673 654.559ZM286.017 673.722C285.414 666.415 288.638 658.904 295.673 654.559L295.147 653.708C287.769 658.265 284.389 666.15 285.02 673.804L286.017 673.722ZM289.643 679.218C287.438 677.829 286.206 676.011 286.017 673.722L285.02 673.804C285.24 676.465 286.693 678.541 289.11 680.064L289.643 679.218ZM298.447 681.499C295.133 681.499 291.939 680.664 289.643 679.218L289.11 680.064C291.596 681.629 294.983 682.499 298.447 682.499V681.499ZM373.554 681.499H298.447V682.499H373.554V681.499ZM382.357 679.218C380.061 680.664 376.868 681.499 373.554 681.499V682.499C377.018 682.499 380.404 681.629 382.89 680.064L382.357 679.218ZM385.984 673.722C385.795 676.011 384.562 677.829 382.357 679.218L382.89 680.064C385.308 678.541 386.761 676.465 386.98 673.804L385.984 673.722ZM376.328 654.559C383.362 658.904 386.586 666.415 385.984 673.722L386.98 673.804C387.611 666.15 384.231 658.265 376.853 653.708L376.328 654.559ZM368.461 649.699L376.328 654.559L376.853 653.708L368.986 648.848L368.461 649.699ZM362.869 645.131C364.446 646.707 366.282 648.353 368.461 649.699L368.986 648.848C366.901 647.56 365.127 645.974 363.576 644.423L362.869 645.131ZM358.3 639.539C359.646 641.718 361.292 643.554 362.869 645.131L363.576 644.423C362.025 642.873 360.439 641.099 359.151 639.013L358.3 639.539ZM353.441 631.672L358.3 639.539L359.151 639.013L354.292 631.147L353.441 631.672ZM361.098 626.942C349.57 608.28 322.43 608.28 310.902 626.942L311.753 627.468C322.89 609.438 349.11 609.438 360.247 627.468L361.098 626.942ZM365.957 634.809L361.098 626.942L360.247 627.468L365.107 635.335L365.957 634.809ZM369.233 638.767C367.887 637.421 366.783 636.146 365.957 634.809L365.107 635.335C365.991 636.765 367.155 638.102 368.526 639.474L369.233 638.767ZM373.191 642.042C371.853 641.216 370.579 640.112 369.233 638.767L368.526 639.474C369.897 640.845 371.234 642.009 372.665 642.893L373.191 642.042ZM381.057 646.902L373.191 642.042L372.665 642.893L380.532 647.752L381.057 646.902ZM394.953 674.461C395.813 664.04 391.187 653.158 381.057 646.902L380.532 647.752C390.317 653.797 394.788 664.304 393.956 674.379L394.953 674.461ZM387.153 686.833C391.246 684.256 394.486 680.12 394.953 674.461L393.956 674.379C393.521 679.662 390.505 683.541 386.62 685.987L387.153 686.833ZM373.554 690.499C378.213 690.499 383.15 689.355 387.153 686.833L386.62 685.987C382.806 688.389 378.064 689.499 373.554 689.499V690.499ZM298.447 690.499H373.554V689.499H298.447V690.499ZM284.847 686.833C288.851 689.355 293.787 690.499 298.447 690.499V689.499C293.937 689.499 289.194 688.389 285.38 685.987L284.847 686.833ZM277.047 674.461C277.514 680.12 280.754 684.256 284.847 686.833L285.38 685.987C281.495 683.541 278.48 679.662 278.044 674.379L277.047 674.461ZM290.943 646.902C280.814 653.158 276.188 664.04 277.047 674.461L278.044 674.379C277.213 664.304 281.684 653.797 291.469 647.752L290.943 646.902ZM298.809 642.043L290.943 646.902L291.469 647.752L299.335 642.894L298.809 642.043ZM302.767 638.767C301.421 640.113 300.146 641.217 298.809 642.043L299.335 642.894C300.766 642.01 302.103 640.845 303.474 639.474L302.767 638.767ZM306.043 634.808C305.217 636.146 304.113 637.421 302.767 638.767L303.474 639.474C304.846 638.102 306.01 636.765 306.894 635.334L306.043 634.808ZM310.902 626.942L306.043 634.808L306.894 635.334L311.753 627.468L310.902 626.942Z" fill="currentColor"/>
<path fill-rule="evenodd" clip-rule="evenodd" d="M334.055 624.89C335.941 624.109 338.059 624.109 339.945 624.89C341.83 625.672 343.329 627.17 344.11 629.055C344.891 630.941 344.891 633.06 344.11 634.945C343.329 636.831 341.83 638.329 339.945 639.11C338.059 639.891 335.941 639.891 334.055 639.11C332.169 638.329 330.671 636.831 329.89 634.945C329.109 633.06 329.109 630.941 329.89 629.055C330.671 627.17 332.169 625.672 334.055 624.89ZM337.116 632.282C337.191 632.251 337.25 632.191 337.281 632.117C337.312 632.042 337.312 631.958 337.281 631.884C337.25 631.809 337.191 631.75 337.116 631.719C337.042 631.688 336.958 631.688 336.883 631.719C336.809 631.75 336.75 631.809 336.719 631.884C336.688 631.958 336.688 632.042 336.719 632.117C336.75 632.191 336.809 632.251 336.883 632.282C336.958 632.312 337.042 632.312 337.116 632.282Z" stroke="currentColor" stroke-linecap="round" stroke-linejoin="round"/>
<path fill-rule="evenodd" clip-rule="evenodd" d="M311.641 644.476C314.432 643.32 317.568 643.32 320.359 644.476C323.15 645.632 325.368 647.85 326.524 650.641C327.68 653.432 327.68 656.568 326.524 659.359C325.368 662.15 323.15 664.368 320.359 665.524C317.568 666.68 314.432 666.68 311.641 665.524C308.85 664.368 306.632 662.15 305.476 659.359C304.32 656.568 304.32 653.432 305.476 650.641C306.632 647.85 308.85 645.632 311.641 644.476ZM317.298 651.867C316.467 651.523 315.533 651.523 314.702 651.867C313.871 652.211 313.211 652.872 312.867 653.703C312.523 654.533 312.523 655.467 312.867 656.298C313.211 657.129 313.871 657.789 314.702 658.133C315.533 658.477 316.467 658.477 317.298 658.133C318.129 657.789 318.789 657.129 319.133 656.298C319.477 655.467 319.477 654.533 319.133 653.703C318.789 652.872 318.129 652.211 317.298 651.867Z" stroke="currentColor" stroke-linecap="round" stroke-linejoin="round"/>
<path fill-rule="evenodd" clip-rule="evenodd" d="M346.097 644.791C349.826 643.663 353.85 643.851 357.48 645.355C357.74 645.462 357.996 645.576 358.248 645.696C362.036 647.489 365.034 650.63 366.645 654.52C366.86 655.038 367.048 655.565 367.209 656.098C368.337 659.827 368.149 663.85 366.645 667.481C366.538 667.74 366.424 667.996 366.305 668.249C364.511 672.036 361.37 675.034 357.48 676.645C353.331 678.364 348.669 678.364 344.519 676.645C340.37 674.927 337.073 671.63 335.355 667.481C333.636 663.331 333.636 658.669 335.355 654.52C335.462 654.26 335.576 654.004 335.695 653.752C337.489 649.964 340.629 646.966 344.519 645.355C345.038 645.14 345.565 644.952 346.097 644.791ZM354.419 652.746C352.23 651.839 349.77 651.839 347.581 652.746C345.529 653.596 343.872 655.178 342.925 657.176C342.862 657.309 342.802 657.444 342.746 657.581C341.839 659.77 341.839 662.23 342.746 664.419C342.802 664.556 342.862 664.691 342.925 664.824C343.872 666.823 345.529 668.404 347.581 669.254C347.855 669.368 348.132 669.467 348.413 669.552C350.381 670.147 352.503 670.048 354.419 669.254C354.556 669.198 354.691 669.138 354.824 669.075C356.822 668.128 358.404 666.472 359.254 664.419C359.368 664.146 359.467 663.868 359.552 663.587C360.062 661.9 360.062 660.1 359.552 658.414C359.467 658.133 359.368 657.855 359.254 657.581C358.347 655.392 356.608 653.653 354.419 652.746Z" stroke="currentColor" stroke-linecap="round" stroke-linejoin="round"/>
<path fill-rule="evenodd" clip-rule="evenodd" d="M566.468 674.091C565.813 682.038 557.527 685.999 549.554 685.999H474.446C466.473 685.999 458.187 682.038 457.532 674.091C456.801 665.227 460.726 656.031 469.308 650.73L477.174 645.871C478.932 644.785 480.488 643.41 481.949 641.949C483.41 640.487 484.786 638.932 485.872 637.173L490.731 629.307C500.5 613.491 523.5 613.491 533.269 629.307L538.129 637.174C539.215 638.932 540.59 640.487 542.051 641.949C543.512 643.41 545.067 644.785 546.826 645.871L554.692 650.73C563.274 656.031 567.199 665.227 566.468 674.091ZM531.95 672.949C528.781 674.262 525.22 674.262 522.05 672.949C518.881 671.637 516.363 669.119 515.05 665.949C513.738 662.78 513.738 659.219 515.05 656.05C516.363 652.881 518.881 650.363 522.05 649.05C525.22 647.737 528.781 647.737 531.95 649.05C535.119 650.363 537.637 652.881 538.95 656.05C540.263 659.219 540.263 662.78 538.95 665.949C537.637 669.119 535.119 671.637 531.95 672.949ZM489.172 661.828C490.983 662.578 493.018 662.578 494.829 661.828C496.64 661.078 498.078 659.639 498.829 657.828C499.579 656.017 499.579 653.982 498.829 652.171C498.078 650.36 496.64 648.921 494.829 648.171C493.018 647.421 490.983 647.421 489.172 648.171C487.361 648.921 485.922 650.36 485.172 652.171C484.422 653.982 484.422 656.017 485.172 657.828C485.922 659.639 487.361 661.078 489.172 661.828ZM514.414 635.414C513.509 635.789 512.491 635.789 511.586 635.414C510.68 635.039 509.961 634.319 509.586 633.414C509.211 632.508 509.211 631.491 509.586 630.585C509.961 629.68 510.68 628.96 511.586 628.585C512.491 628.21 513.509 628.21 514.414 628.585C515.32 628.96 516.039 629.68 516.414 630.585C516.789 631.491 516.789 632.508 516.414 633.414C516.039 634.319 515.32 635.039 514.414 635.414Z" fill="currentColor"/>
<path d="M469.308 650.73L468.257 649.029L469.308 650.73ZM490.731 629.307L492.432 630.358L490.731 629.307ZM533.269 629.307L531.568 630.358V630.358L533.269 629.307ZM554.692 650.73L553.641 652.432L554.692 650.73ZM522.05 672.949L521.285 674.797H521.285L522.05 672.949ZM531.95 672.949L532.715 674.797L531.95 672.949ZM515.05 665.949L513.203 666.715L515.05 665.949ZM515.05 656.05L516.898 656.815L515.05 656.05ZM522.05 649.05L522.816 650.898L522.05 649.05ZM531.95 649.05L532.715 647.202L531.95 649.05ZM538.95 656.05L540.798 655.284L540.798 655.284L538.95 656.05ZM538.95 665.949L540.798 666.715L540.798 666.715L538.95 665.949ZM489.172 661.828L489.937 659.98H489.937L489.172 661.828ZM498.829 657.828L500.676 658.593V658.593L498.829 657.828ZM498.829 652.171L500.676 651.406V651.406L498.829 652.171ZM494.829 648.171L494.063 650.019H494.063L494.829 648.171ZM489.172 648.171L489.937 650.019H489.937L489.172 648.171ZM485.172 657.828L483.324 658.593L485.172 657.828ZM509.586 633.414L511.434 632.648V632.648L509.586 633.414ZM509.586 630.585L511.434 631.351V631.351L509.586 630.585ZM511.586 628.585L510.821 626.738H510.821L511.586 628.585ZM514.414 628.585L515.18 626.738L514.414 628.585ZM516.414 630.585L514.567 631.351V631.351L516.414 630.585ZM516.414 633.414L514.567 632.648V632.648L516.414 633.414ZM538.129 637.174L536.427 638.225L538.129 637.174ZM457.532 674.091L455.539 674.256L457.532 674.091ZM549.554 683.999H474.446V687.999H549.554V683.999ZM468.257 649.029C458.987 654.754 454.75 664.7 455.539 674.256L459.525 673.927C458.851 665.755 462.465 657.308 470.359 652.432L468.257 649.029ZM476.123 644.17L468.257 649.029L470.359 652.432L478.225 647.573L476.123 644.17ZM489.029 628.256L484.17 636.122L487.573 638.224L492.432 630.358L489.029 628.256ZM534.971 628.256C524.42 611.175 499.58 611.175 489.029 628.256L492.432 630.358C501.42 615.808 522.58 615.808 531.568 630.358L534.971 628.256ZM539.83 636.123L534.971 628.256L531.568 630.358L536.427 638.225L539.83 636.123ZM555.743 649.029L547.877 644.169L545.774 647.572L553.641 652.432L555.743 649.029ZM568.461 674.256C569.25 664.7 565.013 654.754 555.743 649.029L553.641 652.432C561.535 657.308 565.149 665.755 564.475 673.927L568.461 674.256ZM521.285 674.797C524.944 676.313 529.056 676.313 532.715 674.797L531.184 671.102C528.505 672.211 525.495 672.211 522.816 671.102L521.285 674.797ZM513.203 666.715C514.718 670.374 517.626 673.281 521.285 674.797L522.816 671.102C520.136 669.992 518.008 667.863 516.898 665.184L513.203 666.715ZM513.203 655.284C511.687 658.944 511.687 663.055 513.203 666.715L516.898 665.184C515.788 662.505 515.788 659.494 516.898 656.815L513.203 655.284ZM521.285 647.202C517.626 648.718 514.718 651.625 513.203 655.284L516.898 656.815C518.008 654.136 520.136 652.007 522.816 650.898L521.285 647.202ZM532.715 647.202C529.056 645.686 524.944 645.686 521.285 647.202L522.816 650.898C525.495 649.788 528.505 649.788 531.184 650.898L532.715 647.202ZM540.798 655.284C539.282 651.625 536.375 648.718 532.715 647.202L531.184 650.898C533.864 652.007 535.992 654.136 537.102 656.815L540.798 655.284ZM540.798 666.715C542.313 663.055 542.313 658.944 540.798 655.284L537.102 656.815C538.212 659.494 538.212 662.505 537.102 665.184L540.798 666.715ZM532.715 674.797C536.375 673.281 539.282 670.374 540.798 666.715L537.102 665.184C535.992 667.863 533.864 669.992 531.184 671.102L532.715 674.797ZM494.063 659.98C492.742 660.527 491.258 660.527 489.937 659.98L488.406 663.676C490.707 664.629 493.293 664.629 495.594 663.676L494.063 659.98ZM496.981 657.063C496.434 658.384 495.384 659.433 494.063 659.98L495.594 663.676C497.895 662.723 499.723 660.894 500.676 658.593L496.981 657.063ZM496.981 652.936C497.528 654.257 497.528 655.742 496.981 657.063L500.676 658.593C501.629 656.292 501.629 653.707 500.676 651.406L496.981 652.936ZM494.063 650.019C495.384 650.566 496.434 651.616 496.981 652.936L500.676 651.406C499.723 649.105 497.895 647.276 495.594 646.323L494.063 650.019ZM489.937 650.019C491.258 649.472 492.742 649.472 494.063 650.019L495.594 646.323C493.293 645.37 490.707 645.37 488.406 646.323L489.937 650.019ZM487.019 652.936C487.567 651.616 488.616 650.566 489.937 650.019L488.406 646.323C486.105 647.276 484.277 649.105 483.324 651.406L487.019 652.936ZM487.019 657.063C486.472 655.742 486.472 654.257 487.019 652.936L483.324 651.406C482.371 653.707 482.371 656.292 483.324 658.593L487.019 657.063ZM489.937 659.98C488.616 659.433 487.567 658.384 487.019 657.063L483.324 658.593C484.277 660.894 486.105 662.723 488.406 663.676L489.937 659.98ZM510.821 637.262C512.216 637.84 513.784 637.84 515.18 637.262L513.649 633.566C513.233 633.738 512.767 633.738 512.351 633.566L510.821 637.262ZM507.738 634.179C508.316 635.575 509.425 636.683 510.821 637.262L512.351 633.566C511.936 633.394 511.606 633.064 511.434 632.648L507.738 634.179ZM507.738 629.82C507.16 631.216 507.16 632.784 507.738 634.179L511.434 632.648C511.262 632.233 511.262 631.766 511.434 631.351L507.738 629.82ZM510.821 626.738C509.425 627.316 508.316 628.424 507.738 629.82L511.434 631.351C511.606 630.935 511.936 630.605 512.351 630.433L510.821 626.738ZM515.18 626.738C513.784 626.16 512.216 626.16 510.821 626.738L512.351 630.433C512.767 630.261 513.233 630.261 513.649 630.433L515.18 626.738ZM518.262 629.82C517.684 628.424 516.575 627.316 515.18 626.738L513.649 630.433C514.064 630.605 514.394 630.935 514.567 631.351L518.262 629.82ZM518.262 634.179C518.84 632.784 518.84 631.216 518.262 629.82L514.567 631.351C514.739 631.766 514.739 632.233 514.567 632.648L518.262 634.179ZM515.18 637.262C516.575 636.683 517.684 635.575 518.262 634.179L514.567 632.648C514.394 633.064 514.064 633.394 513.649 633.566L515.18 637.262ZM540.637 643.363C542.149 644.875 543.829 646.371 545.774 647.572L547.877 644.169C546.306 643.199 544.875 641.944 543.465 640.534L540.637 643.363ZM536.427 638.225C537.629 640.17 539.124 641.85 540.637 643.363L543.465 640.534C542.055 639.125 540.801 637.694 539.83 636.123L536.427 638.225ZM483.363 643.363C484.876 641.85 486.372 640.17 487.573 638.224L484.17 636.122C483.2 637.693 481.945 639.124 480.535 640.534L483.363 643.363ZM478.225 647.573C480.17 646.371 481.85 644.876 483.363 643.363L480.535 640.534C479.125 641.944 477.694 643.199 476.123 644.17L478.225 647.573ZM474.446 683.999C470.759 683.999 467.081 683.078 464.311 681.333C461.58 679.613 459.791 677.151 459.525 673.927L455.539 674.256C455.928 678.978 458.61 682.47 462.179 684.718C465.709 686.94 470.161 687.999 474.446 687.999V683.999ZM549.554 687.999C553.839 687.999 558.291 686.94 561.821 684.718C565.39 682.47 568.072 678.978 568.461 674.256L564.475 673.927C564.209 677.151 562.42 679.613 559.689 681.333C556.919 683.078 553.241 683.999 549.554 683.999V687.999Z" fill="currentColor"/>
<path d="M489.172 661.828C490.983 662.579 493.017 662.579 494.828 661.828C496.639 661.078 498.078 659.639 498.828 657.828C499.579 656.017 499.579 653.983 498.828 652.172C498.078 650.361 496.639 648.922 494.828 648.172C493.017 647.421 490.983 647.421 489.172 648.172C487.361 648.922 485.922 650.361 485.172 652.172C484.421 653.983 484.421 656.017 485.172 657.828C485.922 659.639 487.361 661.078 489.172 661.828Z" fill="#888888" fill-opacity="0.5" stroke="currentColor" stroke-width="4" stroke-linecap="round" stroke-linejoin="round"/>
<path d="M511.586 635.414C512.491 635.789 513.509 635.789 514.414 635.414C515.32 635.039 516.039 634.32 516.414 633.414C516.789 632.509 516.789 631.491 516.414 630.586C516.039 629.68 515.32 628.961 514.414 628.586C513.509 628.211 512.491 628.211 511.586 628.586C510.68 628.961 509.961 629.68 509.586 630.586C509.211 631.491 509.211 632.509 509.586 633.414C509.961 634.32 510.68 635.039 511.586 635.414Z" fill="#888888" fill-opacity="0.5" stroke="currentColor" stroke-width="4" stroke-linecap="round" stroke-linejoin="round"/>
<g opacity="0.25">
<path fill-rule="evenodd" clip-rule="evenodd" d="M742.468 674.091C741.813 682.038 733.527 685.999 725.554 685.999H650.446C642.473 685.999 634.187 682.038 633.532 674.091C632.801 665.227 636.726 656.031 645.308 650.73L653.174 645.871C654.932 644.785 656.488 643.41 657.949 641.949C659.41 640.487 660.786 638.932 661.872 637.173L666.731 629.307C676.5 613.491 699.5 613.491 709.269 629.307L714.129 637.174C715.215 638.932 716.59 640.487 718.051 641.949C719.512 643.41 721.067 644.785 722.826 645.871L730.692 650.73C739.274 656.031 743.199 665.227 742.468 674.091ZM707.95 672.949C704.781 674.262 701.22 674.262 698.05 672.949C694.881 671.637 692.363 669.119 691.05 665.949C689.738 662.78 689.738 659.219 691.05 656.05C692.363 652.881 694.881 650.363 698.05 649.05C701.22 647.737 704.781 647.737 707.95 649.05C711.119 650.363 713.637 652.881 714.95 656.05C716.263 659.219 716.263 662.78 714.95 665.949C713.637 669.119 711.119 671.637 707.95 672.949ZM665.172 661.828C666.983 662.578 669.018 662.578 670.829 661.828C672.64 661.078 674.078 659.639 674.829 657.828C675.579 656.017 675.579 653.982 674.829 652.171C674.078 650.36 672.64 648.921 670.829 648.171C669.018 647.421 666.983 647.421 665.172 648.171C663.361 648.921 661.922 650.36 661.172 652.171C660.422 653.982 660.422 656.017 661.172 657.828C661.922 659.639 663.361 661.078 665.172 661.828ZM690.414 635.414C689.509 635.789 688.491 635.789 687.586 635.414C686.68 635.039 685.961 634.319 685.586 633.414C685.211 632.508 685.211 631.491 685.586 630.585C685.961 629.68 686.68 628.96 687.586 628.585C688.491 628.21 689.509 628.21 690.414 628.585C691.32 628.96 692.039 629.68 692.414 630.585C692.789 631.491 692.789 632.508 692.414 633.414C692.039 634.319 691.32 635.039 690.414 635.414Z" fill="currentColor"/>
<path d="M645.308 650.73L644.257 649.029L645.308 650.73ZM666.731 629.307L668.432 630.358L666.731 629.307ZM709.269 629.307L707.568 630.358V630.358L709.269 629.307ZM730.692 650.73L729.641 652.432L730.692 650.73ZM698.05 672.949L697.285 674.797H697.285L698.05 672.949ZM707.95 672.949L708.715 674.797L707.95 672.949ZM691.05 665.949L689.203 666.715L691.05 665.949ZM691.05 656.05L692.898 656.815L691.05 656.05ZM698.05 649.05L698.816 650.898L698.05 649.05ZM707.95 649.05L708.715 647.202L707.95 649.05ZM714.95 656.05L716.798 655.284L716.798 655.284L714.95 656.05ZM714.95 665.949L716.798 666.715L716.798 666.715L714.95 665.949ZM665.172 661.828L665.937 659.98H665.937L665.172 661.828ZM674.829 657.828L676.676 658.593V658.593L674.829 657.828ZM674.829 652.171L676.676 651.406V651.406L674.829 652.171ZM670.829 648.171L670.063 650.019H670.063L670.829 648.171ZM665.172 648.171L665.937 650.019H665.937L665.172 648.171ZM661.172 657.828L659.324 658.593L661.172 657.828ZM685.586 633.414L687.434 632.648V632.648L685.586 633.414ZM685.586 630.585L687.434 631.351V631.351L685.586 630.585ZM687.586 628.585L686.821 626.738H686.821L687.586 628.585ZM690.414 628.585L691.18 626.738L690.414 628.585ZM692.414 630.585L690.567 631.351V631.351L692.414 630.585ZM692.414 633.414L690.567 632.648V632.648L692.414 633.414ZM714.129 637.174L712.427 638.225L714.129 637.174ZM633.532 674.091L631.539 674.256L633.532 674.091ZM725.554 683.999H650.446V687.999H725.554V683.999ZM644.257 649.029C634.987 654.754 630.75 664.7 631.539 674.256L635.525 673.927C634.851 665.755 638.465 657.308 646.359 652.432L644.257 649.029ZM652.123 644.17L644.257 649.029L646.359 652.432L654.225 647.573L652.123 644.17ZM665.029 628.256L660.17 636.122L663.573 638.224L668.432 630.358L665.029 628.256ZM710.971 628.256C700.42 611.175 675.58 611.175 665.029 628.256L668.432 630.358C677.42 615.808 698.58 615.808 707.568 630.358L710.971 628.256ZM715.83 636.123L710.971 628.256L707.568 630.358L712.427 638.225L715.83 636.123ZM731.743 649.029L723.877 644.169L721.774 647.572L729.641 652.432L731.743 649.029ZM744.461 674.256C745.25 664.7 741.013 654.754 731.743 649.029L729.641 652.432C737.535 657.308 741.149 665.755 740.475 673.927L744.461 674.256ZM697.285 674.797C700.944 676.313 705.056 676.313 708.715 674.797L707.184 671.102C704.505 672.211 701.495 672.211 698.816 671.102L697.285 674.797ZM689.203 666.715C690.718 670.374 693.626 673.281 697.285 674.797L698.816 671.102C696.136 669.992 694.008 667.863 692.898 665.184L689.203 666.715ZM689.203 655.284C687.687 658.944 687.687 663.055 689.203 666.715L692.898 665.184C691.788 662.505 691.788 659.494 692.898 656.815L689.203 655.284ZM697.285 647.202C693.626 648.718 690.718 651.625 689.203 655.284L692.898 656.815C694.008 654.136 696.136 652.007 698.816 650.898L697.285 647.202ZM708.715 647.202C705.056 645.686 700.944 645.686 697.285 647.202L698.816 650.898C701.495 649.788 704.505 649.788 707.184 650.898L708.715 647.202ZM716.798 655.284C715.282 651.625 712.375 648.718 708.715 647.202L707.184 650.898C709.864 652.007 711.992 654.136 713.102 656.815L716.798 655.284ZM716.798 666.715C718.313 663.055 718.313 658.944 716.798 655.284L713.102 656.815C714.212 659.494 714.212 662.505 713.102 665.184L716.798 666.715ZM708.715 674.797C712.375 673.281 715.282 670.374 716.798 666.715L713.102 665.184C711.992 667.863 709.864 669.992 707.184 671.102L708.715 674.797ZM670.063 659.98C668.742 660.527 667.258 660.527 665.937 659.98L664.406 663.676C666.707 664.629 669.293 664.629 671.594 663.676L670.063 659.98ZM672.981 657.063C672.434 658.384 671.384 659.433 670.063 659.98L671.594 663.676C673.895 662.723 675.723 660.894 676.676 658.593L672.981 657.063ZM672.981 652.936C673.528 654.257 673.528 655.742 672.981 657.063L676.676 658.593C677.629 656.292 677.629 653.707 676.676 651.406L672.981 652.936ZM670.063 650.019C671.384 650.566 672.434 651.616 672.981 652.936L676.676 651.406C675.723 649.105 673.895 647.276 671.594 646.323L670.063 650.019ZM665.937 650.019C667.258 649.472 668.742 649.472 670.063 650.019L671.594 646.323C669.293 645.37 666.707 645.37 664.406 646.323L665.937 650.019ZM663.019 652.936C663.567 651.616 664.616 650.566 665.937 650.019L664.406 646.323C662.105 647.276 660.277 649.105 659.324 651.406L663.019 652.936ZM663.019 657.063C662.472 655.742 662.472 654.257 663.019 652.936L659.324 651.406C658.371 653.707 658.371 656.292 659.324 658.593L663.019 657.063ZM665.937 659.98C664.616 659.433 663.567 658.384 663.019 657.063L659.324 658.593C660.277 660.894 662.105 662.723 664.406 663.676L665.937 659.98ZM686.821 637.262C688.216 637.84 689.784 637.84 691.18 637.262L689.649 633.566C689.233 633.738 688.767 633.738 688.351 633.566L686.821 637.262ZM683.738 634.179C684.316 635.575 685.425 636.683 686.821 637.262L688.351 633.566C687.936 633.394 687.606 633.064 687.434 632.648L683.738 634.179ZM683.738 629.82C683.16 631.216 683.16 632.784 683.738 634.179L687.434 632.648C687.262 632.233 687.262 631.766 687.434 631.351L683.738 629.82ZM686.821 626.738C685.425 627.316 684.316 628.424 683.738 629.82L687.434 631.351C687.606 630.935 687.936 630.605 688.351 630.433L686.821 626.738ZM691.18 626.738C689.784 626.16 688.216 626.16 686.821 626.738L688.351 630.433C688.767 630.261 689.233 630.261 689.649 630.433L691.18 626.738ZM694.262 629.82C693.684 628.424 692.575 627.316 691.18 626.738L689.649 630.433C690.064 630.605 690.394 630.935 690.567 631.351L694.262 629.82ZM694.262 634.179C694.84 632.784 694.84 631.216 694.262 629.82L690.567 631.351C690.739 631.766 690.739 632.233 690.567 632.648L694.262 634.179ZM691.18 637.262C692.575 636.683 693.684 635.575 694.262 634.179L690.567 632.648C690.394 633.064 690.064 633.394 689.649 633.566L691.18 637.262ZM716.637 643.363C718.149 644.875 719.829 646.371 721.774 647.572L723.877 644.169C722.306 643.199 720.875 641.944 719.465 640.534L716.637 643.363ZM712.427 638.225C713.629 640.17 715.124 641.85 716.637 643.363L719.465 640.534C718.055 639.125 716.801 637.694 715.83 636.123L712.427 638.225ZM659.363 643.363C660.876 641.85 662.372 640.17 663.573 638.224L660.17 636.122C659.2 637.693 657.945 639.124 656.535 640.534L659.363 643.363ZM654.225 647.573C656.17 646.371 657.85 644.876 659.363 643.363L656.535 640.534C655.125 641.944 653.694 643.199 652.123 644.17L654.225 647.573ZM650.446 683.999C646.759 683.999 643.081 683.078 640.311 681.333C637.58 679.613 635.791 677.151 635.525 673.927L631.539 674.256C631.928 678.978 634.61 682.47 638.179 684.718C641.709 686.94 646.161 687.999 650.446 687.999V683.999ZM725.554 687.999C729.839 687.999 734.291 686.94 737.821 684.718C741.39 682.47 744.072 678.978 744.461 674.256L740.475 673.927C740.209 677.151 738.42 679.613 735.689 681.333C732.919 683.078 729.241 683.999 725.554 683.999V687.999Z" fill="currentColor"/>
</g>
<g opacity="0.5">
<path d="M698.05 672.95C701.22 674.263 704.78 674.263 707.95 672.95C711.119 671.637 713.637 669.119 714.95 665.95C716.263 662.78 716.263 659.22 714.95 656.05C713.637 652.881 711.119 650.363 707.95 649.05C704.78 647.737 701.22 647.737 698.05 649.05C694.881 650.363 692.363 652.881 691.05 656.05C689.737 659.22 689.737 662.78 691.05 665.95C692.363 669.119 694.881 671.637 698.05 672.95Z" fill="currentColor"/>
</g>
<g opacity="0.5">
<path d="M665.172 661.828C666.983 662.579 669.017 662.579 670.828 661.828C672.639 661.078 674.078 659.639 674.828 657.828C675.579 656.017 675.579 653.983 674.828 652.172C674.078 650.361 672.639 648.922 670.828 648.172C669.017 647.421 666.983 647.421 665.172 648.172C663.361 648.922 661.922 650.361 661.172 652.172C660.421 653.983 660.421 656.017 661.172 657.828C661.922 659.639 663.361 661.078 665.172 661.828Z" fill="currentColor"/>
</g>
<g opacity="0.5">
<path d="M687.586 635.414C688.491 635.789 689.509 635.789 690.414 635.414C691.32 635.039 692.039 634.32 692.414 633.414C692.789 632.509 692.789 631.491 692.414 630.586C692.039 629.68 691.32 628.961 690.414 628.586C689.509 628.211 688.491 628.211 687.586 628.586C686.68 628.961 685.961 629.68 685.586 630.586C685.211 631.491 685.211 632.509 685.586 633.414C685.961 634.32 686.68 635.039 687.586 635.414Z" fill="currentColor"/>
</g>
<path fill-rule="evenodd" clip-rule="evenodd" d="M918.468 674.092C917.813 682.039 909.527 686 901.554 686H826.446C818.473 686 810.187 682.039 809.532 674.092C808.801 665.228 812.726 656.032 821.308 650.731L829.174 645.872C830.932 644.786 832.488 643.411 833.949 641.95C835.41 640.488 836.786 638.933 837.872 637.174L842.731 629.308C852.5 613.492 875.5 613.492 885.269 629.308L890.129 637.175C891.215 638.933 892.59 640.488 894.051 641.95C895.512 643.411 897.067 644.786 898.826 645.872L906.692 650.731C915.274 656.032 919.199 665.228 918.468 674.092ZM883.95 672.95C880.781 674.263 877.22 674.263 874.05 672.95C870.881 671.638 868.363 669.12 867.05 665.95C865.738 662.781 865.738 659.22 867.05 656.051C868.363 652.881 870.881 650.364 874.05 649.051C877.22 647.738 880.781 647.738 883.95 649.051C887.119 650.364 889.637 652.881 890.95 656.051C892.263 659.22 892.263 662.781 890.95 665.95C889.637 669.12 887.119 671.638 883.95 672.95ZM841.172 661.829C842.983 662.579 845.018 662.579 846.829 661.829C848.64 661.079 850.078 659.64 850.829 657.829C851.579 656.018 851.579 653.983 850.829 652.172C850.078 650.361 848.64 648.922 846.829 648.172C845.018 647.422 842.983 647.422 841.172 648.172C839.361 648.922 837.922 650.361 837.172 652.172C836.422 653.983 836.422 656.018 837.172 657.829C837.922 659.64 839.361 661.079 841.172 661.829ZM866.414 635.415C865.509 635.79 864.491 635.79 863.586 635.415C862.68 635.04 861.961 634.32 861.586 633.415C861.211 632.509 861.211 631.492 861.586 630.586C861.961 629.681 862.68 628.961 863.586 628.586C864.491 628.211 865.509 628.211 866.414 628.586C867.32 628.961 868.039 629.681 868.414 630.586C868.789 631.492 868.789 632.509 868.414 633.415C868.039 634.32 867.32 635.04 866.414 635.415Z" fill="#FFA500"/>
<path d="M821.308 650.731L822.359 652.433L821.308 650.731ZM842.731 629.308L844.432 630.359L842.731 629.308ZM885.269 629.308L883.568 630.359V630.359L885.269 629.308ZM906.692 650.731L905.641 652.433L906.692 650.731ZM874.05 672.95L874.816 671.102L874.05 672.95ZM883.95 672.95L884.715 674.798L883.95 672.95ZM867.05 665.95L868.898 665.185V665.185L867.05 665.95ZM867.05 656.051L865.203 655.285V655.285L867.05 656.051ZM874.05 649.051L874.816 650.899L874.05 649.051ZM883.95 649.051L884.715 647.203L883.95 649.051ZM890.95 656.051L892.798 655.285L892.798 655.285L890.95 656.051ZM890.95 665.95L892.798 666.716L892.798 666.716L890.95 665.95ZM841.172 661.829L841.937 659.981L841.172 661.829ZM850.829 657.829L852.676 658.594V658.594L850.829 657.829ZM850.829 652.172L852.676 651.407V651.407L850.829 652.172ZM841.172 648.172L841.937 650.02V650.02L841.172 648.172ZM837.172 652.172L835.324 651.407L835.324 651.407L837.172 652.172ZM837.172 657.829L835.324 658.594L835.324 658.594L837.172 657.829ZM863.586 635.415L862.821 637.262L862.821 637.262L863.586 635.415ZM861.586 633.415L863.434 632.649V632.649L861.586 633.415ZM861.586 630.586L863.434 631.352V631.352L861.586 630.586ZM863.586 628.586L862.821 626.739L863.586 628.586ZM866.414 628.586L867.18 626.739H867.18L866.414 628.586ZM868.414 630.586L866.567 631.352V631.352L868.414 630.586ZM868.414 633.415L866.567 632.649V632.649L868.414 633.415ZM890.129 637.175L888.427 638.226L890.129 637.175ZM837.872 637.174L839.573 638.225L837.872 637.174ZM829.174 645.872L828.123 644.171L829.174 645.872ZM918.468 674.092L916.475 673.928L918.468 674.092ZM901.554 684H826.446V688H901.554V684ZM820.257 649.029C810.987 654.755 806.75 664.7 807.539 674.257L811.525 673.928C810.851 665.756 814.465 657.309 822.359 652.433L820.257 649.029ZM828.123 644.171L820.257 649.029L822.359 652.433L830.225 647.574L828.123 644.171ZM841.029 628.257L836.17 636.123L839.573 638.225L844.432 630.359L841.029 628.257ZM886.971 628.257C876.42 611.176 851.58 611.176 841.029 628.257L844.432 630.359C853.42 615.809 874.58 615.809 883.568 630.359L886.971 628.257ZM891.83 636.124L886.971 628.257L883.568 630.359L888.427 638.226L891.83 636.124ZM907.743 649.029L899.877 644.17L897.774 647.573L905.641 652.433L907.743 649.029ZM920.461 674.257C921.25 664.7 917.013 654.755 907.743 649.029L905.641 652.433C913.535 657.309 917.149 665.756 916.475 673.928L920.461 674.257ZM873.285 674.798C876.944 676.314 881.056 676.314 884.715 674.798L883.184 671.102C880.505 672.212 877.495 672.212 874.816 671.102L873.285 674.798ZM865.203 666.716C866.718 670.375 869.626 673.282 873.285 674.798L874.816 671.102C872.136 669.993 870.008 667.864 868.898 665.185L865.203 666.716ZM865.203 655.285C863.687 658.945 863.687 663.056 865.203 666.716L868.898 665.185C867.788 662.506 867.788 659.495 868.898 656.816L865.203 655.285ZM873.285 647.203C869.626 648.719 866.718 651.626 865.203 655.285L868.898 656.816C870.008 654.137 872.136 652.008 874.816 650.899L873.285 647.203ZM884.715 647.203C881.056 645.687 876.944 645.687 873.285 647.203L874.816 650.899C877.495 649.789 880.505 649.789 883.184 650.899L884.715 647.203ZM892.798 655.285C891.282 651.626 888.375 648.719 884.715 647.203L883.184 650.899C885.864 652.008 887.992 654.137 889.102 656.816L892.798 655.285ZM892.798 666.716C894.313 663.056 894.313 658.945 892.798 655.285L889.102 656.816C890.212 659.495 890.212 662.506 889.102 665.185L892.798 666.716ZM884.715 674.798C888.375 673.282 891.282 670.375 892.798 666.716L889.102 665.185C887.992 667.864 885.864 669.993 883.184 671.102L884.715 674.798ZM846.063 659.981C844.742 660.528 843.258 660.528 841.937 659.981L840.406 663.677C842.707 664.63 845.293 664.63 847.594 663.677L846.063 659.981ZM848.981 657.064C848.434 658.385 847.384 659.434 846.063 659.981L847.594 663.677C849.895 662.724 851.723 660.895 852.676 658.594L848.981 657.064ZM848.981 652.937C849.528 654.258 849.528 655.743 848.981 657.064L852.676 658.594C853.629 656.293 853.629 653.708 852.676 651.407L848.981 652.937ZM846.063 650.02C847.384 650.567 848.434 651.616 848.981 652.937L852.676 651.407C851.723 649.106 849.895 647.277 847.594 646.324L846.063 650.02ZM841.937 650.02C843.258 649.473 844.742 649.473 846.063 650.02L847.594 646.324C845.293 645.371 842.707 645.371 840.406 646.324L841.937 650.02ZM839.019 652.937C839.567 651.616 840.616 650.567 841.937 650.02L840.406 646.324C838.105 647.277 836.277 649.106 835.324 651.407L839.019 652.937ZM839.019 657.064C838.472 655.743 838.472 654.258 839.019 652.937L835.324 651.407C834.371 653.708 834.371 656.293 835.324 658.594L839.019 657.064ZM841.937 659.981C840.616 659.434 839.567 658.385 839.019 657.064L835.324 658.594C836.277 660.895 838.105 662.724 840.406 663.677L841.937 659.981ZM862.821 637.262C864.216 637.841 865.784 637.841 867.18 637.262L865.649 633.567C865.233 633.739 864.767 633.739 864.351 633.567L862.821 637.262ZM859.738 634.18C860.316 635.576 861.425 636.684 862.821 637.262L864.351 633.567C863.936 633.395 863.606 633.065 863.434 632.649L859.738 634.18ZM859.738 629.821C859.16 631.216 859.16 632.785 859.738 634.18L863.434 632.649C863.262 632.234 863.262 631.767 863.434 631.352L859.738 629.821ZM862.821 626.739C861.425 627.317 860.316 628.425 859.738 629.821L863.434 631.352C863.606 630.936 863.936 630.606 864.351 630.434L862.821 626.739ZM867.18 626.739C865.784 626.16 864.216 626.16 862.821 626.739L864.351 630.434C864.767 630.262 865.233 630.262 865.649 630.434L867.18 626.739ZM870.262 629.821C869.684 628.425 868.575 627.317 867.18 626.739L865.649 630.434C866.064 630.606 866.394 630.936 866.567 631.352L870.262 629.821ZM870.262 634.18C870.84 632.785 870.84 631.216 870.262 629.821L866.567 631.352C866.739 631.767 866.739 632.234 866.567 632.649L870.262 634.18ZM867.18 637.262C868.575 636.684 869.684 635.576 870.262 634.18L866.567 632.649C866.394 633.065 866.064 633.395 865.649 633.567L867.18 637.262ZM892.637 643.364C894.149 644.876 895.829 646.372 897.774 647.573L899.877 644.17C898.306 643.2 896.875 641.945 895.465 640.535L892.637 643.364ZM888.427 638.226C889.629 640.171 891.124 641.851 892.637 643.364L895.465 640.535C894.055 639.125 892.801 637.695 891.83 636.124L888.427 638.226ZM835.363 643.364C836.876 641.851 838.372 640.171 839.573 638.225L836.17 636.123C835.2 637.694 833.945 639.125 832.535 640.535L835.363 643.364ZM830.225 647.574C832.17 646.372 833.85 644.876 835.363 643.364L832.535 640.535C831.125 641.945 829.694 643.2 828.123 644.171L830.225 647.574ZM826.446 684C822.759 684 819.081 683.079 816.311 681.334C813.58 679.614 811.791 677.152 811.525 673.928L807.539 674.257C807.928 678.979 810.61 682.471 814.179 684.719C817.709 686.941 822.161 688 826.446 688V684ZM901.554 688C905.839 688 910.291 686.941 913.821 684.719C917.39 682.471 920.072 678.979 920.461 674.257L916.475 673.928C916.209 677.152 914.42 679.614 911.689 681.334C908.919 683.079 905.241 684 901.554 684V688Z" fill="#FFA500"/>
<path d="M874.05 672.95C877.22 674.263 880.78 674.263 883.95 672.95C887.119 671.637 889.637 669.119 890.95 665.95C892.263 662.78 892.263 659.22 890.95 656.05C889.637 652.881 887.119 650.363 883.95 649.05C880.78 647.737 877.22 647.737 874.05 649.05C870.881 650.363 868.363 652.881 867.05 656.05C865.737 659.22 865.737 662.78 867.05 665.95C868.363 669.119 870.881 671.637 874.05 672.95Z" fill="#DC143C"/>
<path d="M841.172 661.828C842.983 662.579 845.017 662.579 846.828 661.828C848.639 661.078 850.078 659.639 850.828 657.828C851.579 656.017 851.579 653.983 850.828 652.172C850.078 650.361 848.639 648.922 846.828 648.172C845.017 647.421 842.983 647.421 841.172 648.172C839.361 648.922 837.922 650.361 837.172 652.172C836.421 653.983 836.421 656.017 837.172 657.828C837.922 659.639 839.361 661.078 841.172 661.828Z" fill="#DC143C"/>
<path d="M863.586 635.414C864.491 635.789 865.509 635.789 866.414 635.414C867.32 635.039 868.039 634.32 868.414 633.414C868.789 632.509 868.789 631.491 868.414 630.586C868.039 629.68 867.32 628.961 866.414 628.586C865.509 628.211 864.491 628.211 863.586 628.586C862.68 628.961 861.961 629.68 861.586 630.586C861.211 631.491 861.211 632.509 861.586 633.414C861.961 634.32 862.68 635.039 863.586 635.414Z" fill="#DC143C"/>
</svg>
