<svg viewBox="0 0 1024 768" fill="none" xmlns="http://www.w3.org/2000/svg">
<path d="M410.388 58.0374C416.64 47.9152 431.36 47.9152 437.612 58.0374L444.923 69.8728C446.23 71.9883 448.012 73.7701 450.127 75.0768L461.963 82.3875C472.085 88.64 472.085 103.36 461.963 109.612L450.127 116.923C448.012 118.23 446.23 120.012 444.923 122.127L437.612 133.963C431.36 144.085 416.64 144.085 410.388 133.963L403.077 122.127C401.77 120.012 399.988 118.23 397.873 116.923L386.037 109.612C375.915 103.36 375.915 88.64 386.037 82.3875L397.873 75.0768C399.988 73.7701 401.77 71.9883 403.077 69.8728L410.388 58.0374Z" stroke="#7B61FF" stroke-width="2" stroke-linecap="round" stroke-linejoin="round"/>
<path d="M578.787 147.213C592.369 152.839 607.631 152.839 621.213 147.213V147.213C634.796 141.587 645.587 130.796 651.213 117.213V117.213C656.839 103.631 656.839 88.3694 651.213 74.7868V74.7868C645.587 61.2042 634.796 50.4129 621.213 44.7868V44.7868C607.631 39.1607 592.369 39.1607 578.787 44.7868V44.7868C565.204 50.4129 554.413 61.2042 548.787 74.7868V74.7868C543.161 88.3694 543.161 103.631 548.787 117.213V117.213C554.413 130.796 565.204 141.587 578.787 147.213V147.213Z" stroke="#7B61FF" stroke-width="2" stroke-linecap="round" stroke-linejoin="round"/>
<path fill-rule="evenodd" clip-rule="evenodd" d="M648.17 389.23C646.532 409.096 625.818 419 605.884 419H418.116C398.182 419 377.469 409.096 375.83 389.23C374.002 367.069 383.815 344.078 405.269 330.826L424.935 318.678C429.331 315.963 433.219 312.526 436.873 308.872C440.526 305.219 443.964 301.331 446.679 296.935L458.826 277.269C483.25 237.729 540.75 237.729 565.174 277.269L577.321 296.935C580.036 301.331 583.474 305.219 587.127 308.872C590.781 312.526 594.669 315.963 599.065 318.679L618.731 330.826C640.185 344.078 649.998 367.069 648.17 389.23Z" fill="#888888" fill-opacity="0.5"/>
<path d="M405.269 330.826L402.642 326.572H402.642L405.269 330.826ZM458.826 277.269L454.572 274.641V274.641L458.826 277.269ZM565.174 277.269L560.92 279.897L565.174 277.269ZM618.731 330.826L621.358 326.572L618.731 330.826ZM577.321 296.935L573.067 299.563L577.321 296.935ZM424.935 318.678L422.308 314.425L424.935 318.678ZM648.17 389.23L643.187 388.819L648.17 389.23ZM605.884 414H418.116V424H605.884V414ZM380.813 388.819C379.128 368.388 388.162 347.27 407.897 335.08L402.642 326.572C379.468 340.887 368.876 365.75 370.847 389.641L380.813 388.819ZM407.897 335.08L427.563 322.932L422.308 314.425L402.642 326.572L407.897 335.08ZM450.933 299.563L463.08 279.897L454.572 274.641L442.425 294.307L450.933 299.563ZM463.08 279.897C485.55 243.52 538.45 243.52 560.92 279.897L569.428 274.641C543.05 231.938 480.95 231.939 454.572 274.641L463.08 279.897ZM560.92 279.897L573.067 299.563L581.575 294.307L569.428 274.641L560.92 279.897ZM596.437 322.932L616.103 335.08L621.358 326.572L601.693 314.425L596.437 322.932ZM616.103 335.08C635.838 347.27 644.873 368.388 643.187 388.819L653.153 389.641C655.124 365.75 644.532 340.887 621.358 326.572L616.103 335.08ZM583.592 312.408C587.374 316.19 591.574 319.928 596.437 322.932L601.693 314.425C597.765 311.998 594.188 308.862 590.663 305.337L583.592 312.408ZM573.067 299.563C576.071 304.426 579.81 308.626 583.592 312.408L590.663 305.337C587.138 301.812 584.002 298.235 581.575 294.307L573.067 299.563ZM440.408 312.408C444.19 308.626 447.929 304.426 450.933 299.563L442.425 294.307C439.999 298.235 436.862 301.812 433.337 305.337L440.408 312.408ZM427.563 322.932C432.426 319.928 436.627 316.19 440.408 312.408L433.337 305.337C429.812 308.862 426.236 311.998 422.308 314.425L427.563 322.932ZM418.116 414C408.897 414 399.703 411.696 392.777 407.334C385.95 403.035 381.478 396.88 380.813 388.819L370.847 389.641C371.821 401.446 378.524 410.176 387.448 415.796C396.272 421.352 407.402 424 418.116 424V414ZM605.884 424C616.598 424 627.729 421.352 636.552 415.796C645.476 410.176 652.18 401.446 653.153 389.641L643.187 388.819C642.522 396.88 638.05 403.035 631.223 407.334C624.297 411.696 615.104 414 605.884 414V424Z" fill="currentColor"/>
<path fill-rule="evenodd" clip-rule="evenodd" d="M490.884 475.31C491.622 473.342 492 471.256 492 469.154V419.714C492 419.32 492.32 419 492.714 419H512H531.286C531.68 419 532 419.32 532 419.714V469.154C532 471.256 532.378 473.342 533.116 475.31L541.561 497.83C541.773 498.396 541.355 499 540.75 499H532H492H484.5C483.29 499 482.453 497.792 482.878 496.659L490.884 475.31Z" fill="#888888" fill-opacity="0.5"/>
<path d="M484.5 494C481.739 494 479.5 496.239 479.5 499C479.5 501.761 481.739 504 484.5 504V494ZM482.878 496.659L478.196 494.904L482.878 496.659ZM533.116 475.31L537.798 473.555L533.116 475.31ZM541.561 497.83L546.243 496.074L541.561 497.83ZM497 469.154V419.714H487V469.154H497ZM492.714 424H512V414H492.714V424ZM512 424H531.286V414H512V424ZM527 419.714V469.154H537V419.714H527ZM528.435 477.066L536.879 499.585L546.243 496.074L537.798 473.555L528.435 477.066ZM540.75 494H532V504H540.75V494ZM532 494H492V504H532V494ZM492 494H484.5V504H492V494ZM487.559 498.415L495.565 477.066L486.202 473.555L478.196 494.904L487.559 498.415ZM484.5 494C486.781 494 488.36 496.279 487.559 498.415L478.196 494.904C476.546 499.305 479.799 504 484.5 504V494ZM527 469.154C527 471.856 527.486 474.536 528.435 477.066L537.798 473.555C537.27 472.147 537 470.657 537 469.154H527ZM531.286 424C528.919 424 527 422.081 527 419.714H537C537 416.558 534.442 414 531.286 414V424ZM536.879 499.585C535.866 496.883 537.864 494 540.75 494V504C544.846 504 547.681 499.909 546.243 496.074L536.879 499.585ZM497 419.714C497 422.081 495.081 424 492.714 424V414C489.558 414 487 416.558 487 419.714H497ZM487 469.154C487 470.657 486.73 472.147 486.202 473.555L495.565 477.066C496.514 474.536 497 471.856 497 469.154H487Z" fill="currentColor"/>
<g opacity="0.25">
<path d="M479.067 292.155C494.193 267.666 529.806 267.666 544.933 292.155L562.621 320.789C565.782 325.907 570.093 330.218 575.211 333.38L603.845 351.067C628.334 366.194 628.334 401.807 603.845 416.934L575.211 434.621C570.093 437.782 565.782 442.093 562.621 447.211L544.933 475.845C529.806 500.334 494.193 500.334 479.067 475.845L461.379 447.211C458.218 442.093 453.907 437.782 448.789 434.621L420.155 416.934C395.666 401.807 395.666 366.194 420.155 351.067L448.789 333.38C453.907 330.218 458.218 325.907 461.379 320.789L479.067 292.155Z" stroke="currentColor" stroke-width="2.41935" stroke-linecap="round" stroke-linejoin="round"/>
<rect x="362" y="234" width="300" height="183.871" stroke="currentColor" stroke-width="2.41935" stroke-linecap="round" stroke-linejoin="round"/>
<path d="M512 417.871L541.032 495.29H482.968L512 417.871Z" stroke="currentColor" stroke-width="2.41935" stroke-linecap="round" stroke-linejoin="round"/>
</g>
<path d="M117.308 650.73L116.782 649.879L117.308 650.73ZM138.731 629.307L139.581 629.833L138.731 629.307ZM181.269 629.307L180.419 629.833L181.269 629.307ZM202.692 650.73L202.167 651.581L202.692 650.73ZM194.826 645.871L194.3 646.722L194.826 645.871ZM186.129 637.174L186.98 636.648L186.129 637.174ZM214.468 674.091L213.472 674.009L214.468 674.091ZM197.554 684.999H122.446V686.999H197.554V684.999ZM106.529 674.009C105.826 665.491 109.595 656.669 117.833 651.581L116.782 649.879C107.857 655.393 103.776 664.963 104.535 674.174L106.529 674.009ZM117.833 651.581L125.699 646.722L124.648 645.02L116.782 649.879L117.833 651.581ZM134.723 637.699L139.581 629.833L137.88 628.782L133.021 636.648L134.723 637.699ZM139.581 629.833C148.96 614.649 171.04 614.65 180.419 629.833L182.12 628.782C171.96 612.333 148.04 612.333 137.88 628.782L139.581 629.833ZM180.419 629.833L185.278 637.7L186.98 636.648L182.12 628.782L180.419 629.833ZM194.3 646.722L202.167 651.581L203.218 649.879L195.351 645.02L194.3 646.722ZM202.167 651.581C210.405 656.669 214.174 665.491 213.472 674.009L215.465 674.174C216.224 664.963 212.143 655.393 203.218 649.879L202.167 651.581ZM189.344 642.656C190.831 644.143 192.448 645.578 194.3 646.722L195.351 645.02C193.686 643.992 192.194 642.677 190.758 641.242L189.344 642.656ZM185.278 637.7C186.422 639.551 187.857 641.169 189.344 642.656L190.758 641.242C189.322 639.806 188.008 638.313 186.98 636.648L185.278 637.7ZM130.656 642.656C132.143 641.169 133.579 639.551 134.723 637.699L133.021 636.648C131.993 638.313 130.678 639.806 129.242 641.241L130.656 642.656ZM125.699 646.722C127.551 645.578 129.169 644.143 130.656 642.656L129.242 641.241C127.806 642.677 126.313 643.992 124.648 645.02L125.699 646.722ZM122.446 684.999C118.609 684.999 114.738 684.043 111.778 682.179C108.837 680.328 106.825 677.608 106.529 674.009L104.535 674.174C104.894 678.521 107.352 681.756 110.712 683.872C114.052 685.975 118.31 686.999 122.446 686.999V684.999ZM197.554 686.999C201.69 686.999 205.948 685.975 209.288 683.872C212.648 681.756 215.106 678.521 215.465 674.174L213.472 674.009C213.175 677.608 211.163 680.328 208.222 682.179C205.262 684.043 201.391 684.999 197.554 684.999V686.999Z" fill="currentColor"/>
<path d="M149 717C148.448 717 148 717.448 148 718C148 718.552 148.448 719 149 719V717ZM148.351 717.064L147.415 716.713L148.351 717.064ZM171.824 717.532L172.761 717.181L171.824 717.532ZM151.553 708.524L150.617 708.173L151.553 708.524ZM153 706.062V686.286H151V706.062H153ZM152.286 687H160V685H152.286V687ZM160 687H167.714V685H160V687ZM167 686.286V706.062H169V686.286H167ZM167.51 708.875L170.888 717.883L172.761 717.181L169.383 708.173L167.51 708.875ZM171.5 717H168V719H171.5V717ZM168 717H152V719H168V717ZM152 717H149V719H152V717ZM149.287 717.415L152.49 708.875L150.617 708.173L147.415 716.713L149.287 717.415ZM149 717C149.214 717 149.363 717.214 149.287 717.415L147.415 716.713C147 717.819 147.818 719 149 719V717ZM167 706.062C167 707.022 167.173 707.976 167.51 708.875L169.383 708.173C169.13 707.498 169 706.783 169 706.062H167ZM167.714 687C167.32 687 167 686.68 167 686.286H169C169 685.576 168.424 685 167.714 685V687ZM170.888 717.883C170.728 717.456 171.044 717 171.5 717V719C172.44 719 173.091 718.061 172.761 717.181L170.888 717.883ZM153 686.286C153 686.68 152.68 687 152.286 687V685C151.576 685 151 685.576 151 686.286H153ZM151 706.062C151 706.783 150.87 707.498 150.617 708.173L152.49 708.875C152.827 707.976 153 707.022 153 706.062H151Z" fill="currentColor"/>
<path d="M353.866 631.409L353.441 631.672L353.866 631.409ZM318.134 631.409L318.559 631.672L318.134 631.409ZM358.726 639.276L359.151 639.013L358.726 639.276ZM363.222 644.777L363.576 644.423L363.222 644.777ZM368.723 649.274L368.986 648.848L368.723 649.274ZM376.59 654.133L376.853 653.708L376.59 654.133ZM386.482 673.763L385.983 673.722L386.482 673.763ZM382.624 679.641L382.89 680.064L382.624 679.641ZM289.376 679.641L289.11 680.064H289.11L289.376 679.641ZM285.518 673.763L286.017 673.722L285.518 673.763ZM295.41 654.133L295.147 653.708L295.41 654.133ZM303.276 649.274L303.013 648.849L303.276 649.274ZM308.777 644.777L309.131 645.131L308.777 644.777ZM313.275 639.275L312.849 639.013L313.275 639.275ZM311.327 627.205L311.753 627.468L311.327 627.205ZM360.673 627.205L360.247 627.468L360.673 627.205ZM306.469 635.071L306.043 634.808L306.469 635.071ZM303.121 639.12L302.767 638.767L303.121 639.12ZM299.072 642.468L299.334 642.894L299.072 642.468ZM291.206 647.327L290.943 646.902L291.206 647.327ZM277.545 674.42L277.047 674.461L277.545 674.42ZM285.113 686.41L285.38 685.987L285.113 686.41ZM324 689.999H324.5C324.5 689.723 324.276 689.499 324 689.499V689.999ZM323.808 707.119L323.34 706.944L323.34 706.944L323.808 707.119ZM320.606 715.659L320.138 715.483L320.606 715.659ZM351.57 716.127L352.038 715.951L351.57 716.127ZM348.192 707.119L347.724 707.295L347.724 707.295L348.192 707.119ZM348 689.999V689.499C347.724 689.499 347.5 689.723 347.5 689.999H348ZM386.887 686.41L386.62 685.987L386.887 686.41ZM394.455 674.42L394.953 674.461V674.461L394.455 674.42ZM380.794 647.327L380.532 647.752L380.794 647.327ZM372.928 642.468L372.665 642.893L372.928 642.468ZM368.879 639.12L369.233 638.767L368.879 639.12ZM365.532 635.072L365.106 635.335L365.106 635.335L365.532 635.072ZM332 690V689.5C331.724 689.5 331.5 689.723 331.5 690H332ZM340 690H340.5C340.5 689.723 340.276 689.5 340 689.5V690ZM340.701 709.928L340.233 710.104L340.701 709.928ZM342.228 714V714.5C342.392 714.5 342.546 714.419 342.639 714.284C342.732 714.15 342.754 713.978 342.696 713.824L342.228 714ZM329.772 714L329.304 713.824C329.246 713.978 329.268 714.15 329.361 714.284C329.454 714.419 329.608 714.5 329.772 714.5V714ZM331.299 709.928L331.767 710.104L331.299 709.928ZM354.292 631.147C345.89 617.545 326.11 617.545 317.708 631.147L318.559 631.672C326.57 618.703 345.43 618.703 353.441 631.672L354.292 631.147ZM359.151 639.013L354.292 631.147L353.441 631.672L358.3 639.539L359.151 639.013ZM363.576 644.423C362.025 642.873 360.439 641.099 359.151 639.013L358.3 639.539C359.646 641.718 361.292 643.554 362.869 645.131L363.576 644.423ZM368.986 648.848C366.901 647.56 365.127 645.974 363.576 644.423L362.869 645.131C364.446 646.707 366.282 648.353 368.461 649.699L368.986 648.848ZM376.853 653.708L368.986 648.848L368.461 649.699L376.327 654.559L376.853 653.708ZM386.98 673.804C387.611 666.15 384.231 658.265 376.853 653.708L376.327 654.559C383.362 658.904 386.586 666.415 385.983 673.722L386.98 673.804ZM382.89 680.064C385.307 678.541 386.76 676.465 386.98 673.804L385.983 673.722C385.794 676.011 384.562 677.829 382.357 679.218L382.89 680.064ZM373.554 682.499C377.017 682.499 380.404 681.629 382.89 680.064L382.357 679.218C380.061 680.664 376.868 681.499 373.554 681.499V682.499ZM298.446 682.499H373.554V681.499H298.446V682.499ZM289.11 680.064C291.596 681.629 294.983 682.499 298.446 682.499V681.499C295.132 681.499 291.939 680.664 289.643 679.218L289.11 680.064ZM285.02 673.804C285.24 676.465 286.693 678.541 289.11 680.064L289.643 679.218C287.438 677.829 286.205 676.011 286.017 673.722L285.02 673.804ZM295.147 653.708C287.769 658.265 284.389 666.15 285.02 673.804L286.017 673.722C285.414 666.415 288.638 658.904 295.673 654.559L295.147 653.708ZM303.013 648.849L295.147 653.708L295.673 654.559L303.538 649.7L303.013 648.849ZM308.424 644.423C306.873 645.975 305.099 647.561 303.013 648.849L303.538 649.7C305.718 648.354 307.554 646.707 309.131 645.131L308.424 644.423ZM312.849 639.013C311.561 641.098 309.975 642.872 308.424 644.423L309.131 645.131C310.708 643.554 312.354 641.717 313.7 639.538L312.849 639.013ZM317.708 631.147L312.849 639.013L313.7 639.538L318.559 631.672L317.708 631.147ZM311.753 627.468C322.89 609.438 349.11 609.438 360.247 627.468L361.098 626.942C349.57 608.28 322.43 608.28 310.902 626.942L311.753 627.468ZM306.894 635.334L311.753 627.468L310.902 626.942L306.043 634.808L306.894 635.334ZM303.474 639.474C304.846 638.102 306.01 636.765 306.894 635.334L306.043 634.808C305.217 636.146 304.113 637.421 302.767 638.767L303.474 639.474ZM299.334 642.894C300.765 642.01 302.103 640.845 303.474 639.474L302.767 638.767C301.421 640.113 300.146 641.217 298.809 642.043L299.334 642.894ZM291.468 647.752L299.334 642.894L298.809 642.043L290.943 646.902L291.468 647.752ZM278.044 674.379C277.213 664.304 281.683 653.797 291.468 647.752L290.943 646.902C280.813 653.158 276.188 664.04 277.047 674.461L278.044 674.379ZM285.38 685.987C281.495 683.541 278.479 679.662 278.044 674.379L277.047 674.461C277.514 680.12 280.754 684.256 284.847 686.833L285.38 685.987ZM298.446 689.499C293.936 689.499 289.194 688.389 285.38 685.987L284.847 686.833C288.851 689.355 293.787 690.499 298.446 690.499V689.499ZM324 689.499H298.446V690.499H324V689.499ZM324.5 706.061V689.999H323.5V706.061H324.5ZM324.276 707.295C324.424 706.9 324.5 706.482 324.5 706.061H323.5C323.5 706.362 323.446 706.661 323.34 706.944L324.276 707.295ZM321.074 715.834L324.276 707.295L323.34 706.944L320.138 715.483L321.074 715.834ZM325 721.5C322.072 721.5 320.046 718.575 321.074 715.834L320.138 715.483C318.865 718.878 321.374 722.5 325 722.5V721.5ZM328 721.5H325V722.5H328V721.5ZM344 721.5H328V722.5H344V721.5ZM347.5 721.5H344V722.5H347.5V721.5ZM351.102 716.302C352.045 718.817 350.186 721.5 347.5 721.5V722.5C350.884 722.5 353.226 719.12 352.038 715.951L351.102 716.302ZM347.724 707.295L351.102 716.302L352.038 715.951L348.66 706.944L347.724 707.295ZM347.5 706.061C347.5 706.482 347.576 706.9 347.724 707.295L348.66 706.944C348.554 706.661 348.5 706.362 348.5 706.061H347.5ZM347.5 689.999V706.061H348.5V689.999H347.5ZM373.554 689.499H348V690.499H373.554V689.499ZM386.62 685.987C382.806 688.389 378.064 689.499 373.554 689.499V690.499C378.213 690.499 383.149 689.355 387.153 686.833L386.62 685.987ZM393.956 674.379C393.52 679.662 390.505 683.541 386.62 685.987L387.153 686.833C391.246 684.256 394.486 680.12 394.953 674.461L393.956 674.379ZM380.532 647.752C390.317 653.797 394.787 664.304 393.956 674.379L394.953 674.461C395.812 664.04 391.187 653.158 381.057 646.902L380.532 647.752ZM372.665 642.893L380.532 647.752L381.057 646.902L373.19 642.042L372.665 642.893ZM368.526 639.474C369.897 640.845 371.234 642.009 372.665 642.893L373.19 642.042C371.853 641.216 370.579 640.112 369.233 638.767L368.526 639.474ZM365.106 635.335C365.99 636.765 367.154 638.102 368.526 639.474L369.233 638.767C367.887 637.421 366.783 636.146 365.957 634.809L365.106 635.335ZM360.247 627.468L365.106 635.335L365.957 634.809L361.098 626.942L360.247 627.468ZM331.5 690V706.061H332.5V690H331.5ZM336 689.5H332V690.5H336V689.5ZM340 689.5H336V690.5H340V689.5ZM340.5 706.061V690H339.5V706.061H340.5ZM341.169 709.753C340.727 708.572 340.5 707.322 340.5 706.061H339.5C339.5 707.442 339.748 708.811 340.233 710.104L341.169 709.753ZM342.696 713.824L341.169 709.753L340.233 710.104L341.76 714.175L342.696 713.824ZM329.772 714.5H342.228V713.5H329.772V714.5ZM330.831 709.753L329.304 713.824L330.24 714.175L331.767 710.104L330.831 709.753ZM331.5 706.061C331.5 707.322 331.273 708.572 330.831 709.753L331.767 710.104C332.252 708.811 332.5 707.442 332.5 706.061H331.5Z" fill="currentColor"/>
<path fill-rule="evenodd" clip-rule="evenodd" d="M566.468 674.091C565.813 682.038 557.527 685.999 549.554 685.999H474.446C466.473 685.999 458.187 682.038 457.532 674.091C456.801 665.227 460.726 656.031 469.308 650.73L477.174 645.871C478.932 644.785 480.488 643.41 481.949 641.949C483.41 640.487 484.786 638.932 485.872 637.173L490.731 629.307C500.5 613.491 523.5 613.491 533.269 629.307L538.129 637.174C539.215 638.932 540.59 640.487 542.051 641.949C543.512 643.41 545.067 644.785 546.826 645.871L554.692 650.73C563.274 656.031 567.199 665.227 566.468 674.091Z" fill="currentColor"/>
<path d="M469.308 650.73L468.257 649.029L469.308 650.73ZM490.731 629.307L492.432 630.358L490.731 629.307ZM533.269 629.307L531.568 630.358V630.358L533.269 629.307ZM554.692 650.73L553.641 652.432L554.692 650.73ZM546.826 645.871L545.774 647.572L546.826 645.871ZM538.129 637.174L539.83 636.123L538.129 637.174ZM566.468 674.091L564.475 673.927L566.468 674.091ZM549.554 683.999H474.446V687.999H549.554V683.999ZM459.525 673.927C458.851 665.755 462.465 657.308 470.359 652.432L468.257 649.029C458.987 654.754 454.75 664.7 455.539 674.256L459.525 673.927ZM470.359 652.432L478.225 647.573L476.123 644.17L468.257 649.029L470.359 652.432ZM487.573 638.224L492.432 630.358L489.029 628.256L484.17 636.122L487.573 638.224ZM492.432 630.358C501.42 615.808 522.58 615.808 531.568 630.358L534.971 628.256C524.42 611.175 499.58 611.175 489.029 628.256L492.432 630.358ZM531.568 630.358L536.427 638.225L539.83 636.123L534.971 628.256L531.568 630.358ZM545.774 647.572L553.641 652.432L555.743 649.029L547.877 644.169L545.774 647.572ZM553.641 652.432C561.535 657.308 565.149 665.755 564.475 673.927L568.461 674.256C569.25 664.7 565.013 654.754 555.743 649.029L553.641 652.432ZM540.637 643.363C542.149 644.875 543.829 646.371 545.774 647.572L547.877 644.169C546.306 643.199 544.875 641.944 543.465 640.534L540.637 643.363ZM536.427 638.225C537.629 640.17 539.124 641.85 540.637 643.363L543.465 640.534C542.055 639.125 540.801 637.694 539.83 636.123L536.427 638.225ZM483.363 643.363C484.876 641.85 486.372 640.17 487.573 638.224L484.17 636.122C483.2 637.693 481.945 639.124 480.535 640.534L483.363 643.363ZM478.225 647.573C480.17 646.371 481.85 644.876 483.363 643.363L480.535 640.534C479.125 641.944 477.694 643.199 476.123 644.17L478.225 647.573ZM474.446 683.999C470.759 683.999 467.081 683.078 464.311 681.333C461.58 679.613 459.791 677.151 459.525 673.927L455.539 674.256C455.928 678.978 458.61 682.47 462.179 684.718C465.709 686.94 470.161 687.999 474.446 687.999V683.999ZM549.554 687.999C553.839 687.999 558.291 686.94 561.821 684.718C565.39 682.47 568.072 678.978 568.461 674.256L564.475 673.927C564.209 677.151 562.42 679.613 559.689 681.333C556.919 683.078 553.241 683.999 549.554 683.999V687.999Z" fill="currentColor"/>
<path fill-rule="evenodd" clip-rule="evenodd" d="M503.553 708.524C503.849 707.737 504 706.903 504 706.062V686.286C504 686.128 504.128 686 504.286 686H512H519.714C519.872 686 520 686.128 520 686.286V706.062C520 706.903 520.151 707.737 520.447 708.524L523.824 717.532C523.909 717.758 523.742 718 523.5 718H520H504H501C500.516 718 500.181 717.517 500.351 717.064L503.553 708.524Z" fill="currentColor"/>
<path d="M501 716C499.895 716 499 716.895 499 718C499 719.105 499.895 720 501 720V716ZM500.351 717.064L498.478 716.361L500.351 717.064ZM523.824 717.532L525.697 716.83L523.824 717.532ZM503.553 708.524L501.681 707.822L503.553 708.524ZM506 706.062V686.286H502V706.062H506ZM504.286 688H512V684H504.286V688ZM512 688H519.714V684H512V688ZM518 686.286V706.062H522V686.286H518ZM518.574 709.226L521.952 718.234L525.697 716.83L522.319 707.822L518.574 709.226ZM523.5 716H520V720H523.5V716ZM520 716H504V720H520V716ZM504 716H501V720H504V716ZM502.224 717.766L505.426 709.226L501.681 707.822L498.478 716.361L502.224 717.766ZM501 716C501.913 716 502.544 716.911 502.224 717.766L498.478 716.361C497.818 718.122 499.12 720 501 720V716ZM518 706.062C518 707.142 518.194 708.214 518.574 709.226L522.319 707.822C522.108 707.259 522 706.663 522 706.062H518ZM519.714 688C518.768 688 518 687.232 518 686.286H522C522 685.023 520.977 684 519.714 684V688ZM521.952 718.234C521.546 717.153 522.346 716 523.5 716V720C525.138 720 526.272 718.364 525.697 716.83L521.952 718.234ZM506 686.286C506 687.232 505.232 688 504.286 688V684C503.023 684 502 685.023 502 686.286H506ZM502 706.062C502 706.663 501.892 707.259 501.681 707.822L505.426 709.226C505.806 708.214 506 707.142 506 706.062H502Z" fill="currentColor"/>
<g opacity="0.25">
<path fill-rule="evenodd" clip-rule="evenodd" d="M742.468 674.091C741.813 682.038 733.527 685.999 725.554 685.999H650.446C642.473 685.999 634.187 682.038 633.532 674.091C632.801 665.227 636.726 656.031 645.308 650.73L653.174 645.871C654.932 644.785 656.488 643.41 657.949 641.949C659.41 640.487 660.786 638.932 661.872 637.173L666.731 629.307C676.5 613.491 699.5 613.491 709.269 629.307L714.129 637.174C715.215 638.932 716.59 640.487 718.051 641.949C719.512 643.41 721.067 644.785 722.826 645.871L730.692 650.73C739.274 656.031 743.199 665.227 742.468 674.091Z" fill="currentColor"/>
<path d="M645.308 650.73L644.257 649.029L645.308 650.73ZM666.731 629.307L668.432 630.358L666.731 629.307ZM709.269 629.307L707.568 630.358V630.358L709.269 629.307ZM730.692 650.73L729.641 652.432L730.692 650.73ZM722.826 645.871L721.774 647.572L722.826 645.871ZM714.129 637.174L715.83 636.123L714.129 637.174ZM742.468 674.091L740.475 673.927L742.468 674.091ZM725.554 683.999H650.446V687.999H725.554V683.999ZM635.525 673.927C634.851 665.755 638.465 657.308 646.359 652.432L644.257 649.029C634.987 654.754 630.75 664.7 631.539 674.256L635.525 673.927ZM646.359 652.432L654.225 647.573L652.123 644.17L644.257 649.029L646.359 652.432ZM663.573 638.224L668.432 630.358L665.029 628.256L660.17 636.122L663.573 638.224ZM668.432 630.358C677.42 615.808 698.58 615.808 707.568 630.358L710.971 628.256C700.42 611.175 675.58 611.175 665.029 628.256L668.432 630.358ZM707.568 630.358L712.427 638.225L715.83 636.123L710.971 628.256L707.568 630.358ZM721.774 647.572L729.641 652.432L731.743 649.029L723.877 644.169L721.774 647.572ZM729.641 652.432C737.535 657.308 741.149 665.755 740.475 673.927L744.461 674.256C745.25 664.7 741.013 654.754 731.743 649.029L729.641 652.432ZM716.637 643.363C718.149 644.875 719.829 646.371 721.774 647.572L723.877 644.169C722.306 643.199 720.875 641.944 719.465 640.534L716.637 643.363ZM712.427 638.225C713.629 640.17 715.124 641.85 716.637 643.363L719.465 640.534C718.055 639.125 716.801 637.694 715.83 636.123L712.427 638.225ZM659.363 643.363C660.876 641.85 662.372 640.17 663.573 638.224L660.17 636.122C659.2 637.693 657.945 639.124 656.535 640.534L659.363 643.363ZM654.225 647.573C656.17 646.371 657.85 644.876 659.363 643.363L656.535 640.534C655.125 641.944 653.694 643.199 652.123 644.17L654.225 647.573ZM650.446 683.999C646.759 683.999 643.081 683.078 640.311 681.333C637.58 679.613 635.791 677.151 635.525 673.927L631.539 674.256C631.928 678.978 634.61 682.47 638.179 684.718C641.709 686.94 646.161 687.999 650.446 687.999V683.999ZM725.554 687.999C729.839 687.999 734.291 686.94 737.821 684.718C741.39 682.47 744.072 678.978 744.461 674.256L740.475 673.927C740.209 677.151 738.42 679.613 735.689 681.333C732.919 683.078 729.241 683.999 725.554 683.999V687.999Z" fill="currentColor"/>
</g>
<path fill-rule="evenodd" clip-rule="evenodd" d="M679.553 708.524C679.849 707.737 680 706.903 680 706.062V686.286C680 686.128 680.128 686 680.286 686H688H695.714C695.872 686 696 686.128 696 686.286V706.062C696 706.903 696.151 707.737 696.447 708.524L699.824 717.532C699.909 717.758 699.742 718 699.5 718H696H680H677C676.516 718 676.181 717.517 676.351 717.064L679.553 708.524Z" fill="currentColor"/>
<path fill-rule="evenodd" clip-rule="evenodd" d="M918.468 674.091C917.813 682.038 909.527 685.999 901.554 685.999H826.446C818.473 685.999 810.187 682.038 809.532 674.091C808.801 665.227 812.726 656.031 821.308 650.73L829.174 645.871C830.932 644.785 832.488 643.41 833.949 641.949C835.41 640.487 836.786 638.932 837.872 637.173L842.731 629.307C852.5 613.491 875.5 613.491 885.269 629.307L890.129 637.174C891.215 638.932 892.59 640.487 894.051 641.949C895.512 643.41 897.067 644.785 898.826 645.871L906.692 650.73C915.274 656.031 919.199 665.227 918.468 674.091Z" fill="#FFA500"/>
<path d="M821.308 650.73L820.257 649.029L821.308 650.73ZM842.731 629.307L844.432 630.358L842.731 629.307ZM885.269 629.307L883.568 630.358V630.358L885.269 629.307ZM906.692 650.73L905.641 652.432L906.692 650.73ZM898.826 645.871L897.774 647.572L898.826 645.871ZM890.129 637.174L891.83 636.123L890.129 637.174ZM918.468 674.091L916.475 673.927L918.468 674.091ZM901.554 683.999H826.446V687.999H901.554V683.999ZM811.525 673.927C810.851 665.755 814.465 657.308 822.359 652.432L820.257 649.029C810.987 654.754 806.75 664.7 807.539 674.256L811.525 673.927ZM822.359 652.432L830.225 647.573L828.123 644.17L820.257 649.029L822.359 652.432ZM839.573 638.224L844.432 630.358L841.029 628.256L836.17 636.122L839.573 638.224ZM844.432 630.358C853.42 615.808 874.58 615.808 883.568 630.358L886.971 628.256C876.42 611.175 851.58 611.175 841.029 628.256L844.432 630.358ZM883.568 630.358L888.427 638.225L891.83 636.123L886.971 628.256L883.568 630.358ZM897.774 647.572L905.641 652.432L907.743 649.029L899.877 644.169L897.774 647.572ZM905.641 652.432C913.535 657.308 917.149 665.755 916.475 673.927L920.461 674.256C921.25 664.7 917.013 654.754 907.743 649.029L905.641 652.432ZM892.637 643.363C894.149 644.875 895.829 646.371 897.774 647.572L899.877 644.169C898.305 643.199 896.875 641.944 895.465 640.534L892.637 643.363ZM888.427 638.225C889.629 640.17 891.124 641.85 892.637 643.363L895.465 640.534C894.055 639.125 892.801 637.694 891.83 636.123L888.427 638.225ZM835.363 643.363C836.876 641.85 838.372 640.17 839.573 638.224L836.17 636.122C835.2 637.693 833.945 639.124 832.535 640.534L835.363 643.363ZM830.225 647.573C832.17 646.371 833.85 644.876 835.363 643.363L832.535 640.534C831.125 641.944 829.694 643.199 828.123 644.17L830.225 647.573ZM826.446 683.999C822.759 683.999 819.081 683.078 816.311 681.333C813.58 679.613 811.791 677.151 811.525 673.927L807.539 674.256C807.928 678.978 810.61 682.47 814.179 684.718C817.709 686.94 822.161 687.999 826.446 687.999V683.999ZM901.554 687.999C905.839 687.999 910.291 686.94 913.821 684.718C917.39 682.47 920.072 678.978 920.461 674.256L916.475 673.927C916.209 677.151 914.42 679.613 911.689 681.333C908.919 683.078 905.241 683.999 901.554 683.999V687.999Z" fill="#FFA500"/>
<path fill-rule="evenodd" clip-rule="evenodd" d="M855.553 708.524C855.849 707.737 856 706.903 856 706.062V686.286C856 686.128 856.128 686 856.286 686H864H871.714C871.872 686 872 686.128 872 686.286V706.062C872 706.903 872.151 707.737 872.447 708.524L875.824 717.532C875.909 717.758 875.742 718 875.5 718H872H856H853C852.516 718 852.181 717.517 852.351 717.064L855.553 708.524Z" fill="#8B4513"/>
</svg>
