<svg viewBox="0 0 1024 768" fill="none" xmlns="http://www.w3.org/2000/svg">
<path d="M417.31 46.2055C420.468 41.3869 427.532 41.387 430.69 46.2055L446.846 70.8493C447.448 71.7674 448.233 72.5518 449.151 73.1537L473.795 89.3095C478.613 92.4685 478.613 99.5315 473.795 102.69L449.151 118.846C448.233 119.448 447.448 120.233 446.846 121.151L430.69 145.795C427.532 150.613 420.468 150.613 417.31 145.795L401.154 121.151C400.552 120.233 399.767 119.448 398.849 118.846L374.205 102.69C369.387 99.5315 369.387 92.4685 374.205 89.3095L398.849 73.1537C399.767 72.5518 400.552 71.7674 401.154 70.8493L417.31 46.2055Z" stroke="#7B61FF" stroke-width="2" stroke-linecap="round" stroke-linejoin="round"/>
<path d="M578.787 147.213C592.369 152.839 607.631 152.839 621.213 147.213V147.213C634.796 141.587 645.587 130.796 651.213 117.213V117.213C656.839 103.631 656.839 88.3694 651.213 74.7868V74.7868C645.587 61.2042 634.796 50.4129 621.213 44.7868V44.7868C607.631 39.1607 592.369 39.1607 578.787 44.7868V44.7868C565.204 50.4129 554.413 61.2042 548.787 74.7868V74.7868C543.161 88.3694 543.161 103.631 548.787 117.213V117.213C554.413 130.796 565.204 141.587 578.787 147.213V147.213Z" stroke="#7B61FF" stroke-width="2" stroke-linecap="round" stroke-linejoin="round"/>
<path fill-rule="evenodd" clip-rule="evenodd" d="M495.274 259.513C503.171 247.467 520.829 247.467 528.726 259.513L569.116 321.123C570.62 323.418 572.581 325.379 574.877 326.884L636.486 367.273C648.533 375.171 648.533 392.828 636.486 400.726L574.877 441.115C572.581 442.62 570.62 444.581 569.116 446.876L528.726 508.486C520.829 520.532 503.171 520.532 495.274 508.486L454.884 446.876C453.38 444.581 451.419 442.62 449.123 441.115L387.514 400.726C375.467 392.828 375.467 375.171 387.514 367.273L449.123 326.884C451.419 325.379 453.38 323.418 454.884 321.123L495.274 259.513ZM534.626 426.374C542.549 429.656 551.451 429.656 559.374 426.374C567.298 423.092 573.593 416.797 576.874 408.874C580.156 400.951 580.156 392.048 576.874 384.125C573.593 376.202 567.298 369.907 559.374 366.625C551.451 363.343 542.549 363.343 534.626 366.625C526.702 369.907 520.408 376.202 517.126 384.125C513.844 392.048 513.844 400.951 517.126 408.874C520.408 416.797 526.702 423.092 534.626 426.374ZM466.571 398.571C462.044 400.446 456.956 400.446 452.429 398.571C447.901 396.695 444.304 393.098 442.429 388.571C440.554 384.043 440.554 378.956 442.429 374.428C444.304 369.901 447.901 366.304 452.429 364.428C456.956 362.553 462.044 362.553 466.571 364.428C471.099 366.304 474.696 369.901 476.571 374.428C478.446 378.956 478.446 384.043 476.571 388.571C474.696 393.098 471.099 396.695 466.571 398.571ZM508.464 332.535C510.728 333.473 513.272 333.473 515.536 332.535C517.799 331.597 519.598 329.799 520.536 327.535C521.473 325.271 521.473 322.728 520.536 320.464C519.598 318.2 517.799 316.402 515.536 315.464C513.272 314.526 510.728 314.526 508.464 315.464C506.201 316.402 504.402 318.2 503.464 320.464C502.527 322.728 502.527 325.271 503.464 327.535C504.402 329.799 506.201 331.597 508.464 332.535Z" fill="#888888" fill-opacity="0.5"/>
<path d="M528.726 259.513L532.908 256.772V256.772L528.726 259.513ZM495.274 259.513L499.455 262.255L495.274 259.513ZM569.116 321.123L573.297 318.382L569.116 321.123ZM574.877 326.884L577.618 322.702L574.877 326.884ZM636.486 367.273L633.745 371.455V371.455L636.486 367.273ZM636.486 400.726L639.228 404.907L636.486 400.726ZM574.877 441.115L572.135 436.934H572.135L574.877 441.115ZM569.116 446.876L573.297 449.618L569.116 446.876ZM528.726 508.486L524.545 505.744L528.726 508.486ZM495.274 508.486L499.455 505.745H499.455L495.274 508.486ZM454.884 446.876L459.066 444.135L459.066 444.135L454.884 446.876ZM449.123 441.115L446.382 445.297L449.123 441.115ZM387.514 400.726L384.772 404.907H384.772L387.514 400.726ZM387.514 367.273L384.772 363.092L387.514 367.273ZM449.123 326.884L446.382 322.702L449.123 326.884ZM454.884 321.123L450.703 318.382L454.884 321.123ZM559.374 426.374L557.461 421.755H557.461L559.374 426.374ZM576.874 408.874L572.255 406.96V406.96L576.874 408.874ZM576.874 384.125L572.255 386.039V386.039L576.874 384.125ZM559.374 366.625L557.461 371.245L559.374 366.625ZM534.626 366.625L536.539 371.245L534.626 366.625ZM517.126 384.125L521.745 386.039L517.126 384.125ZM517.126 408.874L521.745 406.96L517.126 408.874ZM442.429 374.428L447.048 376.342V376.342L442.429 374.428ZM452.429 364.428L454.342 369.048H454.342L452.429 364.428ZM466.571 364.428L468.485 359.809H468.484L466.571 364.428ZM476.571 374.428L471.952 376.342V376.342L476.571 374.428ZM508.464 332.535L510.378 327.916L508.464 332.535ZM520.536 327.535L525.155 329.448V329.448L520.536 327.535ZM520.536 320.464L515.916 322.377V322.377L520.536 320.464ZM515.536 315.464L517.449 310.845L517.449 310.845L515.536 315.464ZM508.464 315.464L506.551 310.845L506.551 310.845L508.464 315.464ZM503.464 320.464L508.084 322.377V322.377L503.464 320.464ZM503.464 327.535L508.084 325.622V325.622L503.464 327.535ZM532.908 256.772C523.036 241.714 500.964 241.714 491.092 256.772L499.455 262.255C505.378 253.22 518.622 253.22 524.545 262.255L532.908 256.772ZM573.297 318.382L532.908 256.772L524.545 262.255L564.934 323.864L573.297 318.382ZM577.618 322.702C575.897 321.574 574.426 320.103 573.297 318.382L564.934 323.864C566.815 326.733 569.266 329.184 572.135 331.065L577.618 322.702ZM639.228 363.092L577.618 322.702L572.135 331.065L633.745 371.455L639.228 363.092ZM639.228 404.907C654.286 395.036 654.286 372.963 639.228 363.092L633.745 371.455C642.78 377.378 642.78 390.621 633.745 396.544L639.228 404.907ZM577.618 445.297L639.228 404.907L633.745 396.544L572.135 436.934L577.618 445.297ZM573.297 449.618C574.426 447.896 575.897 446.425 577.618 445.297L572.135 436.934C569.266 438.815 566.815 441.266 564.934 444.135L573.297 449.618ZM532.908 511.227L573.297 449.618L564.934 444.135L524.545 505.744L532.908 511.227ZM491.092 511.227C500.964 526.285 523.036 526.285 532.908 511.227L524.545 505.744C518.622 514.779 505.378 514.779 499.455 505.745L491.092 511.227ZM450.703 449.618L491.092 511.227L499.455 505.745L459.066 444.135L450.703 449.618ZM446.382 445.297C448.103 446.425 449.574 447.896 450.703 449.618L459.066 444.135C457.185 441.266 454.734 438.815 451.865 436.934L446.382 445.297ZM384.772 404.907L446.382 445.297L451.865 436.934L390.255 396.544L384.772 404.907ZM384.772 363.092C369.714 372.963 369.715 395.036 384.772 404.907L390.255 396.544C381.22 390.621 381.22 377.378 390.255 371.455L384.772 363.092ZM446.382 322.702L384.772 363.092L390.255 371.455L451.865 331.065L446.382 322.702ZM450.703 318.382C449.574 320.103 448.103 321.574 446.382 322.702L451.865 331.065C454.734 329.184 457.185 326.733 459.066 323.864L450.703 318.382ZM491.092 256.772L450.703 318.382L459.066 323.864L499.455 262.255L491.092 256.772ZM557.461 421.755C550.763 424.529 543.237 424.529 536.539 421.755L532.712 430.993C541.861 434.783 552.139 434.783 561.288 430.993L557.461 421.755ZM572.255 406.96C569.481 413.659 564.159 418.98 557.461 421.755L561.288 430.993C570.436 427.204 577.704 419.936 581.494 410.787L572.255 406.96ZM572.255 386.039C575.029 392.737 575.029 400.262 572.255 406.96L581.494 410.787C585.283 401.639 585.283 391.36 581.494 382.212L572.255 386.039ZM557.461 371.245C564.159 374.019 569.481 379.341 572.255 386.039L581.494 382.212C577.704 373.063 570.436 365.795 561.288 362.006L557.461 371.245ZM536.539 371.245C543.237 368.47 550.763 368.47 557.461 371.245L561.288 362.006C552.139 358.216 541.861 358.216 532.712 362.006L536.539 371.245ZM521.745 386.039C524.519 379.341 529.841 374.019 536.539 371.245L532.712 362.006C523.564 365.795 516.296 373.063 512.506 382.212L521.745 386.039ZM521.745 406.96C518.971 400.262 518.971 392.737 521.745 386.039L512.506 382.212C508.717 391.36 508.717 401.639 512.506 410.787L521.745 406.96ZM536.539 421.755C529.841 418.98 524.519 413.659 521.745 406.96L512.506 410.787C516.296 419.936 523.564 427.204 532.712 430.993L536.539 421.755ZM450.516 403.19C456.268 405.573 462.732 405.573 468.485 403.19L464.658 393.951C461.355 395.319 457.645 395.319 454.342 393.951L450.516 403.19ZM437.81 390.484C440.192 396.237 444.763 400.807 450.516 403.19L454.342 393.951C451.04 392.583 448.416 389.96 447.048 386.657L437.81 390.484ZM437.81 372.515C435.427 378.268 435.427 384.731 437.81 390.484L447.048 386.657C445.68 383.355 445.68 379.644 447.048 376.342L437.81 372.515ZM450.516 359.809C444.763 362.192 440.192 366.762 437.81 372.515L447.048 376.342C448.416 373.039 451.04 370.416 454.342 369.048L450.516 359.809ZM468.484 359.809C462.732 357.426 456.268 357.426 450.516 359.809L454.342 369.048C457.645 367.68 461.355 367.68 464.658 369.048L468.484 359.809ZM481.19 372.515C478.808 366.762 474.237 362.192 468.485 359.809L464.658 369.048C467.96 370.416 470.584 373.039 471.952 376.342L481.19 372.515ZM481.19 390.484C483.573 384.731 483.573 378.268 481.19 372.515L471.952 376.342C473.32 379.644 473.32 383.355 471.952 386.657L481.19 390.484ZM468.485 403.19C474.237 400.807 478.808 396.237 481.19 390.484L471.952 386.657C470.584 389.96 467.96 392.583 464.658 393.951L468.485 403.19ZM513.622 327.916C512.584 328.346 511.417 328.346 510.378 327.916L506.551 337.154C510.04 338.6 513.96 338.6 517.449 337.154L513.622 327.916ZM515.916 325.622C515.486 326.66 514.661 327.485 513.622 327.916L517.449 337.154C520.938 335.709 523.71 332.937 525.155 329.448L515.916 325.622ZM515.916 322.377C516.346 323.416 516.346 324.583 515.916 325.622L525.155 329.448C526.6 325.96 526.6 322.039 525.155 318.551L515.916 322.377ZM513.622 320.083C514.661 320.514 515.486 321.339 515.916 322.377L525.155 318.551C523.71 315.062 520.938 312.29 517.449 310.845L513.622 320.083ZM510.378 320.083C511.417 319.653 512.584 319.653 513.622 320.083L517.449 310.845C513.96 309.399 510.04 309.399 506.551 310.845L510.378 320.083ZM508.084 322.377C508.514 321.339 509.339 320.514 510.378 320.083L506.551 310.845C503.062 312.29 500.29 315.062 498.845 318.551L508.084 322.377ZM508.084 325.622C507.654 324.583 507.654 323.416 508.084 322.377L498.845 318.551C497.4 322.039 497.4 325.96 498.845 329.448L508.084 325.622ZM510.378 327.916C509.339 327.485 508.514 326.66 508.084 325.622L498.845 329.448C500.29 332.937 503.062 335.709 506.551 337.154L510.378 327.916Z" fill="currentColor"/>
<path d="M534.626 426.374C542.549 429.656 551.451 429.656 559.374 426.374C567.298 423.092 573.592 416.798 576.874 408.874C580.156 400.951 580.156 392.049 576.874 384.126C573.592 376.202 567.298 369.908 559.374 366.626C551.451 363.344 542.549 363.344 534.626 366.626C526.702 369.908 520.408 376.202 517.126 384.126C513.844 392.049 513.844 400.951 517.126 408.874C520.408 416.798 526.702 423.092 534.626 426.374Z" fill="#888888" fill-opacity="0.5" stroke="currentColor" stroke-width="10" stroke-linecap="round" stroke-linejoin="round"/>
<path d="M452.429 398.571C456.956 400.446 462.044 400.446 466.571 398.571C471.099 396.696 474.696 393.099 476.571 388.571C478.446 384.044 478.446 378.956 476.571 374.429C474.696 369.901 471.099 366.304 466.571 364.429C462.044 362.554 456.956 362.554 452.429 364.429C447.901 366.304 444.304 369.901 442.429 374.429C440.554 378.956 440.554 384.044 442.429 388.571C444.304 393.099 447.901 396.696 452.429 398.571Z" fill="#888888" fill-opacity="0.5" stroke="currentColor" stroke-width="10" stroke-linecap="round" stroke-linejoin="round"/>
<path d="M508.464 332.536C510.728 333.473 513.272 333.473 515.536 332.536C517.799 331.598 519.598 329.799 520.536 327.536C521.473 325.272 521.473 322.728 520.536 320.464C519.598 318.201 517.799 316.402 515.536 315.464C513.272 314.527 510.728 314.527 508.464 315.464C506.201 316.402 504.402 318.201 503.464 320.464C502.527 322.728 502.527 325.272 503.464 327.536C504.402 329.799 506.201 331.598 508.464 332.536Z" fill="#888888" fill-opacity="0.5" stroke="currentColor" stroke-width="10" stroke-linecap="round" stroke-linejoin="round"/>
<g opacity="0.25">
<path d="M495.813 263.53C503.456 251.872 520.544 251.872 528.187 263.53L567.273 323.152C568.729 325.373 570.627 327.271 572.848 328.727L632.47 367.814C644.128 375.456 644.128 392.544 632.47 400.187L572.848 439.273C570.627 440.73 568.729 442.627 567.273 444.849L528.187 504.471C520.544 516.129 503.456 516.129 495.813 504.471L456.727 444.849C455.27 442.627 453.373 440.73 451.152 439.273L391.529 400.187C379.872 392.544 379.872 375.456 391.529 367.814L451.152 328.727C453.373 327.271 455.27 325.373 456.727 323.152L495.813 263.53Z" stroke="currentColor" stroke-width="2.41935" stroke-linecap="round" stroke-linejoin="round"/>
<path d="M565.033 512.033C531.077 526.098 492.923 526.098 458.967 512.033V512.033C425.011 497.968 398.032 470.989 383.967 437.033V437.033C369.902 403.077 369.902 364.923 383.967 330.967V330.967C398.032 297.011 425.011 270.032 458.967 255.967V255.967C492.923 241.902 531.077 241.902 565.033 255.967V255.967C598.989 270.032 625.968 297.011 640.033 330.967V330.967C654.098 364.923 654.098 403.077 640.033 437.033V437.033C625.968 470.989 598.989 497.968 565.033 512.033V512.033Z" stroke="currentColor" stroke-width="2.41935" stroke-linecap="round" stroke-linejoin="round"/>
</g>
<path d="M166.69 622.206L165.854 622.754V622.754L166.69 622.206ZM153.31 622.206L154.146 622.754V622.754L153.31 622.206ZM182.846 646.85L182.01 647.398V647.398L182.846 646.85ZM185.151 649.154L184.602 649.99V649.99L185.151 649.154ZM209.794 665.31L209.246 666.146L209.794 665.31ZM209.794 678.691L209.246 677.854L209.794 678.691ZM185.151 694.847L184.602 694.01L185.151 694.847ZM182.846 697.151L183.683 697.699H183.683L182.846 697.151ZM166.69 721.795L167.527 722.343L166.69 721.795ZM153.31 721.795L152.473 722.343L153.31 721.795ZM137.154 697.151L136.317 697.699V697.699L137.154 697.151ZM134.849 694.847L134.301 695.683L134.301 695.683L134.849 694.847ZM110.205 678.691L109.657 679.527H109.657L110.205 678.691ZM110.205 665.31L109.657 664.473H109.657L110.205 665.31ZM134.849 649.154L135.398 649.99L134.849 649.154ZM137.154 646.85L137.99 647.398L137.154 646.85ZM178.95 688.95L179.332 689.874L178.95 688.95ZM169.05 688.95L168.668 689.874L169.05 688.95ZM185.95 681.95L186.874 682.333L185.95 681.95ZM185.95 672.05L186.874 671.668V671.668L185.95 672.05ZM169.05 665.05L168.668 664.127L169.05 665.05ZM162.05 672.05L162.974 672.433H162.974L162.05 672.05ZM162.05 681.95L162.974 681.567H162.974L162.05 681.95ZM136.172 677.829L135.789 678.752L135.789 678.752L136.172 677.829ZM141.828 677.829L142.211 678.752V678.752L141.828 677.829ZM132.172 673.829L131.248 674.211L132.172 673.829ZM167.527 621.657C163.973 616.237 156.027 616.237 152.473 621.657L154.146 622.754C156.91 618.538 163.09 618.538 165.854 622.754L167.527 621.657ZM183.683 646.301L167.527 621.657L165.854 622.754L182.01 647.398L183.683 646.301ZM185.699 648.318C184.896 647.791 184.209 647.105 183.683 646.301L182.01 647.398C182.687 648.431 183.57 649.313 184.602 649.99L185.699 648.318ZM210.343 664.473L185.699 648.318L184.602 649.99L209.246 666.146L210.343 664.473ZM210.343 679.527C215.764 675.973 215.764 668.027 210.343 664.473L209.246 666.146C213.462 668.91 213.462 675.09 209.246 677.854L210.343 679.527ZM185.699 695.683L210.343 679.527L209.246 677.854L184.602 694.01L185.699 695.683ZM183.683 697.699C184.209 696.896 184.896 696.209 185.699 695.683L184.602 694.01C183.57 694.687 182.687 695.57 182.01 696.603L183.683 697.699ZM167.527 722.343L183.683 697.699L182.01 696.603L165.854 721.246L167.527 722.343ZM152.473 722.343C156.027 727.764 163.973 727.764 167.527 722.343L165.854 721.246C163.09 725.463 156.91 725.463 154.146 721.246L152.473 722.343ZM136.317 697.699L152.473 722.343L154.146 721.246L137.99 696.603L136.317 697.699ZM134.301 695.683C135.104 696.209 135.791 696.896 136.317 697.699L137.99 696.603C137.313 695.57 136.43 694.687 135.398 694.01L134.301 695.683ZM109.657 679.527L134.301 695.683L135.398 694.01L110.754 677.854L109.657 679.527ZM109.657 664.473C104.236 668.027 104.236 675.973 109.657 679.527L110.754 677.854C106.537 675.09 106.537 668.91 110.754 666.146L109.657 664.473ZM134.301 648.318L109.657 664.473L110.754 666.146L135.398 649.99L134.301 648.318ZM136.317 646.301C135.791 647.105 135.104 647.791 134.301 648.318L135.398 649.99C136.43 649.313 137.313 648.431 137.99 647.398L136.317 646.301ZM152.473 621.657L136.317 646.301L137.99 647.398L154.146 622.754L152.473 621.657ZM178.567 688.026C175.643 689.237 172.357 689.237 169.433 688.026L168.668 689.874C172.082 691.288 175.918 691.288 179.332 689.874L178.567 688.026ZM185.026 681.567C183.815 684.491 181.491 686.815 178.567 688.026L179.332 689.874C182.747 688.46 185.459 685.747 186.874 682.333L185.026 681.567ZM185.026 672.433C186.237 675.357 186.237 678.643 185.026 681.567L186.874 682.333C188.288 678.918 188.288 675.082 186.874 671.668L185.026 672.433ZM178.567 665.974C181.491 667.186 183.815 669.509 185.026 672.433L186.874 671.668C185.459 668.253 182.747 665.541 179.332 664.127L178.567 665.974ZM169.433 665.974C172.357 664.763 175.643 664.763 178.567 665.974L179.332 664.127C175.918 662.712 172.082 662.712 168.668 664.127L169.433 665.974ZM162.974 672.433C164.185 669.509 166.509 667.186 169.433 665.974L168.668 664.127C165.253 665.541 162.541 668.253 161.126 671.668L162.974 672.433ZM162.974 681.567C161.763 678.643 161.763 675.357 162.974 672.433L161.126 671.668C159.712 675.082 159.712 678.918 161.126 682.333L162.974 681.567ZM169.433 688.026C166.509 686.815 164.185 684.491 162.974 681.567L161.126 682.333C162.541 685.747 165.253 688.46 168.668 689.874L169.433 688.026ZM135.789 678.752C137.845 679.604 140.155 679.604 142.211 678.752L141.446 676.905C139.88 677.553 138.12 677.553 136.554 676.905L135.789 678.752ZM131.248 674.211C132.099 676.267 133.733 677.901 135.789 678.752L136.554 676.905C134.988 676.256 133.744 675.012 133.095 673.446L131.248 674.211ZM131.248 667.789C130.396 669.845 130.396 672.155 131.248 674.211L133.095 673.446C132.447 671.88 132.447 670.12 133.095 668.554L131.248 667.789ZM135.789 663.248C133.733 664.1 132.099 665.733 131.248 667.789L133.095 668.554C133.744 666.988 134.988 665.744 136.554 665.096L135.789 663.248ZM142.211 663.248C140.155 662.396 137.845 662.396 135.789 663.248L136.554 665.096C138.12 664.447 139.88 664.447 141.446 665.096L142.211 663.248ZM146.752 667.789C145.901 665.733 144.267 664.1 142.211 663.248L141.446 665.096C143.012 665.744 144.256 666.988 144.905 668.554L146.752 667.789ZM146.752 674.211C147.604 672.155 147.604 669.845 146.752 667.789L144.905 668.554C145.553 670.12 145.553 671.88 144.905 673.446L146.752 674.211ZM142.211 678.752C144.267 677.901 145.901 676.267 146.752 674.211L144.905 673.446C144.256 675.012 143.012 676.256 141.446 676.905L142.211 678.752ZM161.032 650.491C160.371 650.764 159.629 650.764 158.968 650.491L158.203 652.338C159.354 652.815 160.646 652.815 161.797 652.338L161.032 650.491ZM162.49 649.032C162.217 649.692 161.692 650.217 161.032 650.491L161.797 652.338C162.947 651.862 163.862 650.948 164.338 649.797L162.49 649.032ZM162.49 646.969C162.764 647.629 162.764 648.371 162.49 649.032L164.338 649.797C164.815 648.647 164.815 647.354 164.338 646.203L162.49 646.969ZM161.032 645.51C161.692 645.783 162.217 646.308 162.49 646.969L164.338 646.203C163.862 645.053 162.947 644.139 161.797 643.662L161.032 645.51ZM158.968 645.51C159.629 645.236 160.371 645.236 161.032 645.51L161.797 643.662C160.646 643.186 159.354 643.186 158.203 643.662L158.968 645.51ZM157.51 646.969C157.783 646.308 158.308 645.783 158.968 645.51L158.203 643.662C157.053 644.139 156.138 645.053 155.662 646.203L157.51 646.969ZM157.51 649.032C157.236 648.371 157.236 647.629 157.51 646.969L155.662 646.203C155.185 647.354 155.185 648.647 155.662 649.797L157.51 649.032ZM158.968 650.491C158.308 650.217 157.783 649.692 157.51 649.032L155.662 649.797C156.138 650.948 157.053 651.862 158.203 652.338L158.968 650.491Z" fill="currentColor"/>
<path d="M169.05 688.95C172.22 690.263 175.78 690.263 178.95 688.95V688.95C182.119 687.637 184.637 685.119 185.95 681.95V681.95C187.263 678.78 187.263 675.22 185.95 672.05V672.05C184.637 668.881 182.119 666.363 178.95 665.05V665.05C175.78 663.737 172.22 663.737 169.05 665.05V665.05C165.881 666.363 163.363 668.881 162.05 672.05V672.05C160.737 675.22 160.737 678.78 162.05 681.95V681.95C163.363 685.119 165.881 687.637 169.05 688.95V688.95Z" stroke="currentColor" stroke-width="2" stroke-linecap="round" stroke-linejoin="round"/>
<path d="M136.172 677.828C137.983 678.579 140.017 678.579 141.828 677.828V677.828C143.639 677.078 145.078 675.639 145.828 673.828V673.828C146.579 672.017 146.579 669.983 145.828 668.172V668.172C145.078 666.361 143.639 664.922 141.828 664.172V664.172C140.017 663.421 137.983 663.421 136.172 664.172V664.172C134.361 664.922 132.922 666.361 132.172 668.172V668.172C131.421 669.983 131.421 672.017 132.172 673.828V673.828C132.922 675.639 134.361 677.078 136.172 677.828V677.828Z" stroke="currentColor" stroke-width="2" stroke-linecap="round" stroke-linejoin="round"/>
<path d="M158.586 651.414C159.491 651.789 160.509 651.789 161.414 651.414V651.414C162.32 651.039 163.039 650.32 163.414 649.414V649.414C163.789 648.509 163.789 647.491 163.414 646.586V646.586C163.039 645.68 162.32 644.961 161.414 644.586V644.586C160.509 644.211 159.491 644.211 158.586 644.586V644.586C157.68 644.961 156.961 645.68 156.586 646.586V646.586C156.211 647.491 156.211 648.509 156.586 649.414V649.414C156.961 650.32 157.68 651.039 158.586 651.414V651.414Z" stroke="currentColor" stroke-width="2" stroke-linecap="round" stroke-linejoin="round"/>
<path fill-rule="evenodd" clip-rule="evenodd" d="M346.036 620.013C341.297 612.785 330.703 612.785 325.964 620.013L309.808 644.656C309.507 645.116 309.115 645.508 308.656 645.809L284.012 661.965C276.785 666.703 276.785 677.298 284.012 682.036L308.656 698.192C309.115 698.493 309.507 698.885 309.808 699.344L325.964 723.988C330.703 731.216 341.297 731.216 346.036 723.988L362.192 699.344C362.492 698.885 362.885 698.493 363.344 698.192L387.988 682.036C395.215 677.298 395.215 666.703 387.988 661.965L363.344 645.809C362.885 645.508 362.492 645.116 362.192 644.656L346.036 620.013ZM339.345 624.399C337.766 621.989 334.234 621.989 332.655 624.399L316.499 649.043C315.596 650.42 314.419 651.596 313.042 652.499L288.399 668.655C285.989 670.234 285.989 673.766 288.399 675.345L313.042 691.501C314.419 692.404 315.596 693.581 316.499 694.958L332.655 719.602C334.234 722.011 337.766 722.011 339.345 719.602L355.501 694.958C356.404 693.581 357.58 692.404 358.958 691.501L383.601 675.345C386.011 673.766 386.011 670.234 383.601 668.655L358.958 652.499C357.58 651.596 356.404 650.42 355.501 649.043L339.345 624.399Z" stroke="currentColor" stroke-linecap="round" stroke-linejoin="round"/>
<path d="M333.055 655.11L332.864 655.572L333.055 655.11ZM338.945 655.11L339.136 655.572L338.945 655.11ZM328.89 650.945L328.428 651.136L328.428 651.136L328.89 650.945ZM328.89 645.055L328.428 644.864L328.428 644.864L328.89 645.055ZM338.945 640.89L339.136 640.429V640.429L338.945 640.89ZM343.11 645.055L342.648 645.247L343.11 645.055ZM343.11 650.945L342.648 650.754L343.11 650.945ZM336.116 647.719L336.308 647.257L336.308 647.257L336.116 647.719ZM336.281 647.884L336.743 647.692V647.692L336.281 647.884ZM335.883 647.719L336.075 648.181L336.075 648.181L335.883 647.719ZM335.719 647.884L335.257 647.692L335.257 647.692L335.719 647.884ZM335.719 648.117L335.257 648.308L335.257 648.308L335.719 648.117ZM335.883 648.282L336.075 647.82L336.075 647.82L335.883 648.282ZM336.116 648.282L336.308 648.743L336.308 648.743L336.116 648.282ZM310.641 681.524L310.449 681.986L310.641 681.524ZM325.524 675.359L325.062 675.168L325.524 675.359ZM325.524 666.641L325.062 666.832H325.062L325.524 666.641ZM319.359 660.476L319.168 660.938V660.938L319.359 660.476ZM310.641 660.476L310.832 660.938L310.832 660.938L310.641 660.476ZM304.476 666.641L304.014 666.45H304.014L304.476 666.641ZM304.476 675.359L304.014 675.551L304.476 675.359ZM313.702 674.133L313.894 673.671L313.702 674.133ZM311.867 672.298L311.405 672.489L311.867 672.298ZM311.867 669.703L311.405 669.511L311.867 669.703ZM313.702 667.867L313.894 668.329H313.894L313.702 667.867ZM316.298 667.867L316.106 668.329H316.106L316.298 667.867ZM318.133 669.703L318.595 669.511L318.133 669.703ZM318.133 672.298L318.595 672.489L318.133 672.298ZM365.645 683.481L366.107 683.672L365.645 683.481ZM356.48 661.355L356.289 661.817V661.817L356.48 661.355ZM334.355 670.52L334.817 670.711L334.355 670.52ZM346.581 685.254L346.39 685.716L346.581 685.254ZM353.419 685.254L353.61 685.716L353.419 685.254ZM341.746 673.581L341.284 673.39L341.746 673.581ZM346.581 668.746L346.772 669.208V669.208L346.581 668.746ZM353.419 668.746L353.228 669.208L353.419 668.746ZM358.254 673.581L357.792 673.773L358.254 673.581ZM358.254 680.419L357.792 680.228L358.254 680.419ZM332.864 655.572C334.872 656.404 337.128 656.404 339.136 655.572L338.754 654.648C336.99 655.378 335.009 655.378 333.246 654.648L332.864 655.572ZM328.428 651.136C329.26 653.145 330.856 654.74 332.864 655.572L333.246 654.648C331.483 653.918 330.082 652.517 329.352 650.754L328.428 651.136ZM328.428 644.864C327.596 646.872 327.596 649.128 328.428 651.136L329.352 650.754C328.622 648.991 328.622 647.01 329.352 645.247L328.428 644.864ZM332.864 640.429C330.856 641.26 329.26 642.856 328.428 644.864L329.352 645.247C330.082 643.483 331.483 642.083 333.246 641.352L332.864 640.429ZM339.136 640.429C337.128 639.597 334.872 639.597 332.864 640.429L333.246 641.352C335.009 640.622 336.99 640.622 338.754 641.352L339.136 640.429ZM343.572 644.864C342.74 642.856 341.144 641.26 339.136 640.429L338.754 641.352C340.517 642.083 341.917 643.483 342.648 645.247L343.572 644.864ZM343.572 651.136C344.403 649.128 344.403 646.872 343.572 644.864L342.648 645.247C343.378 647.01 343.378 648.991 342.648 650.754L343.572 651.136ZM339.136 655.572C341.144 654.74 342.74 653.145 343.572 651.136L342.648 650.754C341.917 652.517 340.517 653.918 338.754 654.648L339.136 655.572ZM335.925 648.181C335.877 648.161 335.839 648.123 335.819 648.075L336.743 647.692C336.662 647.495 336.505 647.339 336.308 647.257L335.925 648.181ZM336.075 648.181C336.027 648.201 335.973 648.201 335.925 648.181L336.308 647.257C336.111 647.175 335.889 647.175 335.692 647.257L336.075 648.181ZM336.181 648.075C336.161 648.123 336.123 648.161 336.075 648.181L335.692 647.257C335.495 647.339 335.338 647.495 335.257 647.692L336.181 648.075ZM336.181 647.925C336.2 647.973 336.2 648.027 336.181 648.075L335.257 647.692C335.175 647.889 335.175 648.111 335.257 648.308L336.181 647.925ZM336.075 647.82C336.123 647.839 336.161 647.877 336.181 647.925L335.257 648.308C335.338 648.505 335.495 648.662 335.692 648.743L336.075 647.82ZM335.925 647.82C335.973 647.8 336.027 647.8 336.075 647.82L335.692 648.743C335.889 648.825 336.111 648.825 336.308 648.743L335.925 647.82ZM335.819 647.925C335.839 647.877 335.877 647.839 335.925 647.82L336.308 648.743C336.505 648.662 336.662 648.505 336.743 648.308L335.819 647.925ZM335.819 648.075C335.799 648.027 335.799 647.973 335.819 647.925L336.743 648.308C336.825 648.111 336.825 647.889 336.743 647.692L335.819 648.075ZM319.168 681.062C316.499 682.168 313.501 682.168 310.832 681.062L310.449 681.986C313.363 683.193 316.637 683.193 319.55 681.986L319.168 681.062ZM325.062 675.168C323.957 677.837 321.836 679.957 319.168 681.062L319.55 681.986C322.464 680.779 324.779 678.464 325.986 675.551L325.062 675.168ZM325.062 666.832C326.167 669.501 326.167 672.499 325.062 675.168L325.986 675.551C327.193 672.637 327.193 669.363 325.986 666.45L325.062 666.832ZM319.168 660.938C321.836 662.044 323.957 664.164 325.062 666.832L325.986 666.45C324.779 663.536 322.464 661.221 319.55 660.014L319.168 660.938ZM310.832 660.938C313.501 659.833 316.499 659.833 319.168 660.938L319.55 660.014C316.637 658.807 313.363 658.807 310.449 660.014L310.832 660.938ZM304.938 666.832C306.043 664.164 308.163 662.044 310.832 660.938L310.449 660.014C307.536 661.221 305.221 663.536 304.014 666.45L304.938 666.832ZM304.938 675.168C303.833 672.499 303.833 669.501 304.938 666.832L304.014 666.45C302.807 669.363 302.807 672.637 304.014 675.551L304.938 675.168ZM310.832 681.062C308.163 679.957 306.043 677.837 304.938 675.168L304.014 675.551C305.221 678.464 307.536 680.779 310.449 681.986L310.832 681.062ZM313.511 674.595C314.464 674.99 315.536 674.99 316.489 674.595L316.106 673.671C315.398 673.965 314.602 673.965 313.894 673.671L313.511 674.595ZM311.405 672.489C311.8 673.443 312.557 674.2 313.511 674.595L313.894 673.671C313.185 673.378 312.622 672.815 312.329 672.107L311.405 672.489ZM311.405 669.511C311.01 670.465 311.01 671.536 311.405 672.489L312.329 672.107C312.036 671.398 312.036 670.602 312.329 669.894L311.405 669.511ZM313.511 667.405C312.557 667.8 311.8 668.558 311.405 669.511L312.329 669.894C312.622 669.185 313.185 668.623 313.894 668.329L313.511 667.405ZM316.489 667.405C315.536 667.01 314.464 667.01 313.511 667.405L313.894 668.329C314.602 668.036 315.398 668.036 316.106 668.329L316.489 667.405ZM318.595 669.511C318.2 668.558 317.442 667.8 316.489 667.405L316.106 668.329C316.815 668.623 317.377 669.185 317.671 669.894L318.595 669.511ZM318.595 672.489C318.99 671.536 318.99 670.465 318.595 669.511L317.671 669.894C317.964 670.602 317.964 671.398 317.671 672.107L318.595 672.489ZM316.489 674.595C317.442 674.2 318.2 673.443 318.595 672.489L317.671 672.107C317.377 672.815 316.815 673.378 316.106 673.671L316.489 674.595ZM356.289 692.184C352.262 693.852 347.738 693.852 343.711 692.184L343.328 693.107C347.6 694.877 352.4 694.877 356.672 693.107L356.289 692.184ZM365.183 683.289C363.515 687.316 360.316 690.516 356.289 692.184L356.672 693.107C360.944 691.338 364.338 687.944 366.107 683.672L365.183 683.289ZM365.183 670.711C366.851 674.738 366.851 679.262 365.183 683.289L366.107 683.672C367.877 679.4 367.877 674.6 366.107 670.328L365.183 670.711ZM356.289 661.817C360.316 663.485 363.515 666.684 365.183 670.711L366.107 670.328C364.338 666.056 360.944 662.662 356.672 660.893L356.289 661.817ZM343.711 661.817C347.738 660.149 352.262 660.149 356.289 661.817L356.672 660.893C352.4 659.124 347.6 659.124 343.328 660.893L343.711 661.817ZM334.817 670.711C336.485 666.684 339.684 663.485 343.711 661.817L343.328 660.893C339.056 662.662 335.662 666.056 333.893 670.328L334.817 670.711ZM334.817 683.289C333.149 679.262 333.149 674.738 334.817 670.711L333.893 670.328C332.123 674.6 332.123 679.4 333.893 683.672L334.817 683.289ZM343.711 692.184C339.684 690.516 336.485 687.316 334.817 683.289L333.893 683.672C335.662 687.944 339.056 691.338 343.328 693.107L343.711 692.184ZM346.39 685.716C348.701 686.674 351.299 686.674 353.61 685.716L353.228 684.792C351.161 685.649 348.839 685.649 346.772 684.792L346.39 685.716ZM341.284 680.611C342.241 682.922 344.078 684.759 346.39 685.716L346.772 684.792C344.706 683.936 343.064 682.295 342.208 680.228L341.284 680.611ZM341.284 673.39C340.326 675.702 340.326 678.299 341.284 680.611L342.208 680.228C341.352 678.161 341.352 675.839 342.208 673.773L341.284 673.39ZM346.39 668.284C344.078 669.242 342.241 671.078 341.284 673.39L342.208 673.773C343.064 671.706 344.706 670.064 346.772 669.208L346.39 668.284ZM353.61 668.284C351.299 667.327 348.701 667.327 346.39 668.284L346.772 669.208C348.839 668.352 351.161 668.352 353.228 669.208L353.61 668.284ZM358.716 673.39C357.759 671.078 355.922 669.242 353.61 668.284L353.228 669.208C355.294 670.064 356.936 671.706 357.792 673.773L358.716 673.39ZM358.716 680.611C359.674 678.299 359.674 675.702 358.716 673.39L357.792 673.773C358.648 675.839 358.648 678.161 357.792 680.228L358.716 680.611ZM353.61 685.716C355.922 684.759 357.759 682.922 358.716 680.611L357.792 680.228C356.936 682.295 355.294 683.936 353.228 684.792L353.61 685.716Z" fill="currentColor"/>
<path fill-rule="evenodd" clip-rule="evenodd" d="M505.31 622.206C508.468 617.387 515.532 617.387 518.69 622.206L534.846 646.85C535.448 647.768 536.233 648.552 537.151 649.154L561.794 665.31C566.613 668.469 566.613 675.532 561.794 678.691L537.151 694.847C536.233 695.448 535.448 696.233 534.846 697.151L518.69 721.795C515.532 726.613 508.468 726.613 505.31 721.795L489.154 697.151C488.552 696.233 487.767 695.448 486.849 694.847L462.205 678.691C457.387 675.532 457.387 668.469 462.205 665.31L486.849 649.154C487.767 648.552 488.552 647.768 489.154 646.85L505.31 622.206ZM521.05 688.95C524.22 690.263 527.78 690.263 530.95 688.95C534.119 687.637 536.637 685.119 537.95 681.95C539.262 678.781 539.262 675.22 537.95 672.05C536.637 668.881 534.119 666.363 530.95 665.05C527.78 663.738 524.22 663.738 521.05 665.05C517.881 666.363 515.363 668.881 514.05 672.05C512.737 675.22 512.737 678.781 514.05 681.95C515.363 685.119 517.881 687.637 521.05 688.95ZM493.828 677.829C492.017 678.579 489.983 678.579 488.172 677.829C486.361 677.078 484.922 675.64 484.172 673.829C483.421 672.018 483.421 669.983 484.172 668.172C484.922 666.361 486.361 664.922 488.172 664.172C489.983 663.422 492.017 663.422 493.828 664.172C495.639 664.922 497.078 666.361 497.828 668.172C498.579 669.983 498.579 672.018 497.828 673.829C497.078 675.64 495.639 677.078 493.828 677.829ZM510.586 651.414C511.491 651.789 512.509 651.789 513.414 651.414C514.32 651.039 515.039 650.32 515.414 649.414C515.789 648.509 515.789 647.491 515.414 646.586C515.039 645.68 514.32 644.961 513.414 644.586C512.509 644.211 511.491 644.211 510.586 644.586C509.68 644.961 508.961 645.68 508.586 646.586C508.211 647.491 508.211 648.509 508.586 649.414C508.961 650.32 509.68 651.039 510.586 651.414Z" fill="currentColor"/>
<path d="M518.69 622.206L517.018 623.302V623.302L518.69 622.206ZM505.31 622.206L506.982 623.302V623.302L505.31 622.206ZM534.846 646.85L533.174 647.946L533.174 647.946L534.846 646.85ZM537.151 649.154L536.054 650.827L536.054 650.827L537.151 649.154ZM561.794 665.31L560.698 666.982L561.794 665.31ZM561.794 678.691L560.698 677.018L561.794 678.691ZM537.151 694.847L536.054 693.174H536.054L537.151 694.847ZM534.846 697.151L536.519 698.247L534.846 697.151ZM518.69 721.795L520.363 722.891L518.69 721.795ZM505.31 721.795L503.637 722.891L505.31 721.795ZM489.154 697.151L487.481 698.247H487.481L489.154 697.151ZM486.849 694.847L485.753 696.519H485.753L486.849 694.847ZM462.205 678.691L461.109 680.363H461.109L462.205 678.691ZM462.205 665.31L461.109 663.637H461.109L462.205 665.31ZM486.849 649.154L487.946 650.827H487.946L486.849 649.154ZM489.154 646.85L490.826 647.946V647.946L489.154 646.85ZM530.95 688.95L531.715 690.798V690.798L530.95 688.95ZM521.05 688.95L520.285 690.798L520.285 690.798L521.05 688.95ZM537.95 681.95L539.797 682.715L539.798 682.715L537.95 681.95ZM537.95 672.05L539.798 671.285L539.797 671.285L537.95 672.05ZM521.05 665.05L520.285 663.203L521.05 665.05ZM514.05 672.05L515.898 672.816L514.05 672.05ZM514.05 681.95L515.898 681.185L514.05 681.95ZM488.172 677.829L487.406 679.676H487.406L488.172 677.829ZM493.828 677.829L494.594 679.676H494.594L493.828 677.829ZM484.172 673.829L482.324 674.594V674.594L484.172 673.829ZM520.363 621.109C516.414 615.086 507.586 615.086 503.637 621.109L506.982 623.302C509.351 619.688 514.649 619.688 517.018 623.302L520.363 621.109ZM536.519 645.753L520.363 621.109L517.018 623.302L533.174 647.946L536.519 645.753ZM538.247 647.481C537.559 647.03 536.97 646.442 536.519 645.753L533.174 647.946C533.926 649.094 534.907 650.074 536.054 650.827L538.247 647.481ZM562.891 663.637L538.247 647.481L536.054 650.827L560.698 666.982L562.891 663.637ZM562.891 680.363C568.914 676.415 568.914 667.586 562.891 663.637L560.698 666.982C564.312 669.352 564.312 674.649 560.698 677.018L562.891 680.363ZM538.247 696.519L562.891 680.363L560.698 677.018L536.054 693.174L538.247 696.519ZM536.519 698.247C536.97 697.559 537.559 696.971 538.247 696.519L536.054 693.174C534.907 693.926 533.926 694.907 533.174 696.054L536.519 698.247ZM520.363 722.891L536.519 698.247L533.174 696.054L517.018 720.698L520.363 722.891ZM503.637 722.891C507.586 728.914 516.414 728.914 520.363 722.891L517.018 720.698C514.649 724.312 509.351 724.312 506.982 720.698L503.637 722.891ZM487.481 698.247L503.637 722.891L506.982 720.698L490.826 696.054L487.481 698.247ZM485.753 696.519C486.441 696.971 487.03 697.559 487.481 698.247L490.826 696.054C490.074 694.907 489.093 693.926 487.946 693.174L485.753 696.519ZM461.109 680.363L485.753 696.519L487.946 693.174L463.302 677.018L461.109 680.363ZM461.109 663.637C455.086 667.586 455.086 676.415 461.109 680.363L463.302 677.018C459.688 674.649 459.688 669.352 463.302 666.982L461.109 663.637ZM485.753 647.481L461.109 663.637L463.302 666.982L487.946 650.827L485.753 647.481ZM487.481 645.753C487.03 646.442 486.441 647.03 485.753 647.481L487.946 650.827C489.093 650.074 490.074 649.094 490.826 647.946L487.481 645.753ZM503.637 621.109L487.481 645.753L490.826 647.946L506.982 623.302L503.637 621.109ZM530.184 687.102C527.505 688.212 524.495 688.212 521.816 687.102L520.285 690.798C523.944 692.313 528.056 692.313 531.715 690.798L530.184 687.102ZM536.102 681.185C534.992 683.864 532.864 685.992 530.184 687.102L531.715 690.798C535.374 689.282 538.282 686.375 539.797 682.715L536.102 681.185ZM536.102 672.816C537.212 675.495 537.212 678.505 536.102 681.185L539.798 682.715C541.313 679.056 541.313 674.944 539.798 671.285L536.102 672.816ZM530.184 666.898C532.864 668.008 534.992 670.137 536.102 672.816L539.797 671.285C538.282 667.626 535.374 664.718 531.715 663.203L530.184 666.898ZM521.816 666.898C524.495 665.788 527.505 665.788 530.184 666.898L531.715 663.203C528.056 661.687 523.944 661.687 520.285 663.203L521.816 666.898ZM515.898 672.816C517.008 670.137 519.136 668.008 521.816 666.898L520.285 663.203C516.626 664.718 513.718 667.626 512.202 671.285L515.898 672.816ZM515.898 681.185C514.788 678.505 514.788 675.495 515.898 672.816L512.202 671.285C510.687 674.944 510.687 679.056 512.202 682.715L515.898 681.185ZM521.816 687.102C519.136 685.992 517.008 683.864 515.898 681.185L512.202 682.715C513.718 686.375 516.626 689.282 520.285 690.798L521.816 687.102ZM487.406 679.676C489.707 680.629 492.293 680.629 494.594 679.676L493.063 675.981C491.742 676.528 490.258 676.528 488.937 675.981L487.406 679.676ZM482.324 674.594C483.277 676.895 485.105 678.723 487.406 679.676L488.937 675.981C487.616 675.434 486.566 674.384 486.019 673.063L482.324 674.594ZM482.324 667.406C481.371 669.707 481.371 672.293 482.324 674.594L486.019 673.063C485.472 671.742 485.472 670.258 486.019 668.937L482.324 667.406ZM487.406 662.324C485.105 663.277 483.277 665.105 482.324 667.406L486.019 668.937C486.566 667.616 487.616 666.567 488.937 666.02L487.406 662.324ZM494.594 662.324C492.293 661.371 489.707 661.371 487.406 662.324L488.937 666.02C490.258 665.472 491.742 665.472 493.063 666.02L494.594 662.324ZM499.676 667.406C498.723 665.105 496.895 663.277 494.594 662.324L493.063 666.02C494.384 666.567 495.433 667.616 495.981 668.937L499.676 667.406ZM499.676 674.594C500.629 672.293 500.629 669.707 499.676 667.406L495.981 668.937C496.528 670.258 496.528 671.742 495.981 673.063L499.676 674.594ZM494.594 679.676C496.895 678.723 498.723 676.895 499.676 674.594L495.981 673.063C495.433 674.384 494.384 675.434 493.063 675.981L494.594 679.676ZM512.649 649.567C512.233 649.739 511.767 649.739 511.351 649.567L509.82 653.262C511.216 653.84 512.784 653.84 514.18 653.262L512.649 649.567ZM513.566 648.649C513.394 649.064 513.064 649.395 512.649 649.567L514.18 653.262C515.575 652.684 516.684 651.575 517.262 650.18L513.566 648.649ZM513.566 647.351C513.739 647.767 513.739 648.234 513.566 648.649L517.262 650.18C517.84 648.784 517.84 647.216 517.262 645.821L513.566 647.351ZM512.649 646.434C513.064 646.606 513.394 646.936 513.566 647.351L517.262 645.821C516.684 644.425 515.575 643.316 514.18 642.738L512.649 646.434ZM511.351 646.434C511.767 646.262 512.233 646.262 512.649 646.434L514.18 642.738C512.784 642.16 511.216 642.16 509.82 642.738L511.351 646.434ZM510.434 647.351C510.606 646.936 510.936 646.606 511.351 646.434L509.82 642.738C508.425 643.316 507.316 644.425 506.738 645.821L510.434 647.351ZM510.434 648.649C510.261 648.234 510.261 647.767 510.434 647.351L506.738 645.821C506.16 647.216 506.16 648.784 506.738 650.18L510.434 648.649ZM511.351 649.567C510.936 649.395 510.606 649.064 510.434 648.649L506.738 650.18C507.316 651.575 508.425 652.684 509.82 653.262L511.351 649.567Z" fill="currentColor"/>
<path d="M488.172 677.828C489.983 678.579 492.017 678.579 493.828 677.828C495.639 677.078 497.078 675.639 497.828 673.828C498.579 672.017 498.579 669.983 497.828 668.172C497.078 666.361 495.639 664.922 493.828 664.172C492.017 663.421 489.983 663.421 488.172 664.172C486.361 664.922 484.922 666.361 484.172 668.172C483.421 669.983 483.421 672.017 484.172 673.828C484.922 675.639 486.361 677.078 488.172 677.828Z" fill="#888888" fill-opacity="0.5" stroke="currentColor" stroke-width="4" stroke-linecap="round" stroke-linejoin="round"/>
<path d="M510.586 651.414C511.491 651.789 512.509 651.789 513.414 651.414C514.32 651.039 515.039 650.32 515.414 649.414C515.789 648.509 515.789 647.491 515.414 646.586C515.039 645.68 514.32 644.961 513.414 644.586C512.509 644.211 511.491 644.211 510.586 644.586C509.68 644.961 508.961 645.68 508.586 646.586C508.211 647.491 508.211 648.509 508.586 649.414C508.961 650.32 509.68 651.039 510.586 651.414Z" fill="#888888" fill-opacity="0.5" stroke="currentColor" stroke-width="4" stroke-linecap="round" stroke-linejoin="round"/>
<g opacity="0.25">
<path fill-rule="evenodd" clip-rule="evenodd" d="M681.31 622.206C684.468 617.387 691.532 617.387 694.69 622.206L710.846 646.85C711.448 647.768 712.233 648.552 713.151 649.154L737.794 665.31C742.613 668.469 742.613 675.532 737.794 678.691L713.151 694.847C712.233 695.448 711.448 696.233 710.846 697.151L694.69 721.795C691.532 726.613 684.468 726.613 681.31 721.795L665.154 697.151C664.552 696.233 663.767 695.448 662.849 694.847L638.205 678.691C633.387 675.532 633.387 668.469 638.205 665.31L662.849 649.154C663.767 648.552 664.552 647.768 665.154 646.85L681.31 622.206ZM697.05 688.95C700.22 690.263 703.78 690.263 706.95 688.95C710.119 687.637 712.637 685.119 713.95 681.95C715.262 678.781 715.262 675.22 713.95 672.05C712.637 668.881 710.119 666.363 706.95 665.05C703.78 663.738 700.22 663.738 697.05 665.05C693.881 666.363 691.363 668.881 690.05 672.05C688.737 675.22 688.737 678.781 690.05 681.95C691.363 685.119 693.881 687.637 697.05 688.95ZM669.828 677.829C668.017 678.579 665.983 678.579 664.172 677.829C662.361 677.078 660.922 675.64 660.172 673.829C659.421 672.018 659.421 669.983 660.172 668.172C660.922 666.361 662.361 664.922 664.172 664.172C665.983 663.422 668.017 663.422 669.828 664.172C671.639 664.922 673.078 666.361 673.828 668.172C674.579 669.983 674.579 672.018 673.828 673.829C673.078 675.64 671.639 677.078 669.828 677.829ZM686.586 651.414C687.491 651.789 688.509 651.789 689.414 651.414C690.32 651.039 691.039 650.32 691.414 649.414C691.789 648.509 691.789 647.491 691.414 646.586C691.039 645.68 690.32 644.961 689.414 644.586C688.509 644.211 687.491 644.211 686.586 644.586C685.68 644.961 684.961 645.68 684.586 646.586C684.211 647.491 684.211 648.509 684.586 649.414C684.961 650.32 685.68 651.039 686.586 651.414Z" fill="currentColor"/>
<path d="M694.69 622.206L693.018 623.302V623.302L694.69 622.206ZM681.31 622.206L682.982 623.302V623.302L681.31 622.206ZM710.846 646.85L709.174 647.946L709.174 647.946L710.846 646.85ZM713.151 649.154L712.054 650.827L712.054 650.827L713.151 649.154ZM737.794 665.31L736.698 666.982L737.794 665.31ZM737.794 678.691L736.698 677.018L737.794 678.691ZM713.151 694.847L712.054 693.174H712.054L713.151 694.847ZM710.846 697.151L712.519 698.247L710.846 697.151ZM694.69 721.795L696.363 722.891L694.69 721.795ZM681.31 721.795L679.637 722.891L681.31 721.795ZM665.154 697.151L663.481 698.247H663.481L665.154 697.151ZM662.849 694.847L661.753 696.519H661.753L662.849 694.847ZM638.205 678.691L637.109 680.363H637.109L638.205 678.691ZM638.205 665.31L637.109 663.637H637.109L638.205 665.31ZM662.849 649.154L663.946 650.827H663.946L662.849 649.154ZM665.154 646.85L666.826 647.946V647.946L665.154 646.85ZM706.95 688.95L707.715 690.798V690.798L706.95 688.95ZM697.05 688.95L696.285 690.798L696.285 690.798L697.05 688.95ZM713.95 681.95L715.797 682.715L715.798 682.715L713.95 681.95ZM713.95 672.05L715.798 671.285L715.797 671.285L713.95 672.05ZM697.05 665.05L696.285 663.203L697.05 665.05ZM690.05 672.05L691.898 672.816L690.05 672.05ZM690.05 681.95L691.898 681.185L690.05 681.95ZM664.172 677.829L663.406 679.676H663.406L664.172 677.829ZM669.828 677.829L670.594 679.676H670.594L669.828 677.829ZM660.172 673.829L658.324 674.594V674.594L660.172 673.829ZM696.363 621.109C692.414 615.086 683.586 615.086 679.637 621.109L682.982 623.302C685.351 619.688 690.649 619.688 693.018 623.302L696.363 621.109ZM712.519 645.753L696.363 621.109L693.018 623.302L709.174 647.946L712.519 645.753ZM714.247 647.481C713.559 647.03 712.97 646.442 712.519 645.753L709.174 647.946C709.926 649.094 710.907 650.074 712.054 650.827L714.247 647.481ZM738.891 663.637L714.247 647.481L712.054 650.827L736.698 666.982L738.891 663.637ZM738.891 680.363C744.914 676.415 744.914 667.586 738.891 663.637L736.698 666.982C740.312 669.352 740.312 674.649 736.698 677.018L738.891 680.363ZM714.247 696.519L738.891 680.363L736.698 677.018L712.054 693.174L714.247 696.519ZM712.519 698.247C712.97 697.559 713.559 696.971 714.247 696.519L712.054 693.174C710.907 693.926 709.926 694.907 709.174 696.054L712.519 698.247ZM696.363 722.891L712.519 698.247L709.174 696.054L693.018 720.698L696.363 722.891ZM679.637 722.891C683.586 728.914 692.414 728.914 696.363 722.891L693.018 720.698C690.649 724.312 685.351 724.312 682.982 720.698L679.637 722.891ZM663.481 698.247L679.637 722.891L682.982 720.698L666.826 696.054L663.481 698.247ZM661.753 696.519C662.441 696.971 663.03 697.559 663.481 698.247L666.826 696.054C666.074 694.907 665.093 693.926 663.946 693.174L661.753 696.519ZM637.109 680.363L661.753 696.519L663.946 693.174L639.302 677.018L637.109 680.363ZM637.109 663.637C631.086 667.586 631.086 676.415 637.109 680.363L639.302 677.018C635.688 674.649 635.688 669.352 639.302 666.982L637.109 663.637ZM661.753 647.481L637.109 663.637L639.302 666.982L663.946 650.827L661.753 647.481ZM663.481 645.753C663.03 646.442 662.441 647.03 661.753 647.481L663.946 650.827C665.093 650.074 666.074 649.094 666.826 647.946L663.481 645.753ZM679.637 621.109L663.481 645.753L666.826 647.946L682.982 623.302L679.637 621.109ZM706.184 687.102C703.505 688.212 700.495 688.212 697.816 687.102L696.285 690.798C699.944 692.313 704.056 692.313 707.715 690.798L706.184 687.102ZM712.102 681.185C710.992 683.864 708.864 685.992 706.184 687.102L707.715 690.798C711.374 689.282 714.282 686.375 715.797 682.715L712.102 681.185ZM712.102 672.816C713.212 675.495 713.212 678.505 712.102 681.185L715.798 682.715C717.313 679.056 717.313 674.944 715.798 671.285L712.102 672.816ZM706.184 666.898C708.864 668.008 710.992 670.137 712.102 672.816L715.797 671.285C714.282 667.626 711.374 664.718 707.715 663.203L706.184 666.898ZM697.816 666.898C700.495 665.788 703.505 665.788 706.184 666.898L707.715 663.203C704.056 661.687 699.944 661.687 696.285 663.203L697.816 666.898ZM691.898 672.816C693.008 670.137 695.136 668.008 697.816 666.898L696.285 663.203C692.626 664.718 689.718 667.626 688.202 671.285L691.898 672.816ZM691.898 681.185C690.788 678.505 690.788 675.495 691.898 672.816L688.202 671.285C686.687 674.944 686.687 679.056 688.202 682.715L691.898 681.185ZM697.816 687.102C695.136 685.992 693.008 683.864 691.898 681.185L688.202 682.715C689.718 686.375 692.626 689.282 696.285 690.798L697.816 687.102ZM663.406 679.676C665.707 680.629 668.293 680.629 670.594 679.676L669.063 675.981C667.742 676.528 666.258 676.528 664.937 675.981L663.406 679.676ZM658.324 674.594C659.277 676.895 661.105 678.723 663.406 679.676L664.937 675.981C663.616 675.434 662.566 674.384 662.019 673.063L658.324 674.594ZM658.324 667.406C657.371 669.707 657.371 672.293 658.324 674.594L662.019 673.063C661.472 671.742 661.472 670.258 662.019 668.937L658.324 667.406ZM663.406 662.324C661.105 663.277 659.277 665.105 658.324 667.406L662.019 668.937C662.566 667.616 663.616 666.567 664.937 666.02L663.406 662.324ZM670.594 662.324C668.293 661.371 665.707 661.371 663.406 662.324L664.937 666.02C666.258 665.472 667.742 665.472 669.063 666.02L670.594 662.324ZM675.676 667.406C674.723 665.105 672.895 663.277 670.594 662.324L669.063 666.02C670.384 666.567 671.433 667.616 671.981 668.937L675.676 667.406ZM675.676 674.594C676.629 672.293 676.629 669.707 675.676 667.406L671.981 668.937C672.528 670.258 672.528 671.742 671.981 673.063L675.676 674.594ZM670.594 679.676C672.895 678.723 674.723 676.895 675.676 674.594L671.981 673.063C671.433 674.384 670.384 675.434 669.063 675.981L670.594 679.676ZM688.649 649.567C688.233 649.739 687.767 649.739 687.351 649.567L685.82 653.262C687.216 653.84 688.784 653.84 690.18 653.262L688.649 649.567ZM689.566 648.649C689.394 649.064 689.064 649.395 688.649 649.567L690.18 653.262C691.575 652.684 692.684 651.575 693.262 650.18L689.566 648.649ZM689.566 647.351C689.739 647.767 689.739 648.234 689.566 648.649L693.262 650.18C693.84 648.784 693.84 647.216 693.262 645.821L689.566 647.351ZM688.649 646.434C689.064 646.606 689.394 646.936 689.566 647.351L693.262 645.821C692.684 644.425 691.575 643.316 690.18 642.738L688.649 646.434ZM687.351 646.434C687.767 646.262 688.233 646.262 688.649 646.434L690.18 642.738C688.784 642.16 687.216 642.16 685.82 642.738L687.351 646.434ZM686.434 647.351C686.606 646.936 686.936 646.606 687.351 646.434L685.82 642.738C684.425 643.316 683.316 644.425 682.738 645.821L686.434 647.351ZM686.434 648.649C686.261 648.234 686.261 647.767 686.434 647.351L682.738 645.821C682.16 647.216 682.16 648.784 682.738 650.18L686.434 648.649ZM687.351 649.567C686.936 649.395 686.606 649.064 686.434 648.649L682.738 650.18C683.316 651.575 684.425 652.684 685.82 653.262L687.351 649.567Z" fill="currentColor"/>
</g>
<g opacity="0.5">
<path d="M697.05 688.95C700.22 690.263 703.78 690.263 706.95 688.95C710.119 687.637 712.637 685.119 713.95 681.95C715.263 678.78 715.263 675.22 713.95 672.05C712.637 668.881 710.119 666.363 706.95 665.05C703.78 663.737 700.22 663.737 697.05 665.05C693.881 666.363 691.363 668.881 690.05 672.05C688.737 675.22 688.737 678.78 690.05 681.95C691.363 685.119 693.881 687.637 697.05 688.95Z" fill="currentColor"/>
</g>
<g opacity="0.5">
<path d="M664.172 677.828C665.983 678.579 668.017 678.579 669.828 677.828C671.639 677.078 673.078 675.639 673.828 673.828C674.579 672.017 674.579 669.983 673.828 668.172C673.078 666.361 671.639 664.922 669.828 664.172C668.017 663.421 665.983 663.421 664.172 664.172C662.361 664.922 660.922 666.361 660.172 668.172C659.421 669.983 659.421 672.017 660.172 673.828C660.922 675.639 662.361 677.078 664.172 677.828Z" fill="currentColor"/>
</g>
<g opacity="0.5">
<path d="M686.586 651.414C687.491 651.789 688.509 651.789 689.414 651.414C690.32 651.039 691.039 650.32 691.414 649.414C691.789 648.509 691.789 647.491 691.414 646.586C691.039 645.68 690.32 644.961 689.414 644.586C688.509 644.211 687.491 644.211 686.586 644.586C685.68 644.961 684.961 645.68 684.586 646.586C684.211 647.491 684.211 648.509 684.586 649.414C684.961 650.32 685.68 651.039 686.586 651.414Z" fill="currentColor"/>
</g>
<path fill-rule="evenodd" clip-rule="evenodd" d="M857.31 622.206C860.468 617.387 867.532 617.387 870.69 622.206L886.846 646.85C887.448 647.768 888.233 648.552 889.151 649.154L913.794 665.31C918.613 668.469 918.613 675.532 913.794 678.691L889.151 694.847C888.233 695.448 887.448 696.233 886.846 697.151L870.69 721.795C867.532 726.613 860.468 726.613 857.31 721.795L841.154 697.151C840.552 696.233 839.767 695.448 838.849 694.847L814.205 678.691C809.387 675.532 809.387 668.469 814.205 665.31L838.849 649.154C839.767 648.552 840.552 647.768 841.154 646.85L857.31 622.206ZM873.05 688.95C876.22 690.263 879.78 690.263 882.95 688.95C886.119 687.637 888.637 685.119 889.95 681.95C891.262 678.781 891.262 675.22 889.95 672.05C888.637 668.881 886.119 666.363 882.95 665.05C879.78 663.738 876.22 663.738 873.05 665.05C869.881 666.363 867.363 668.881 866.05 672.05C864.737 675.22 864.737 678.781 866.05 681.95C867.363 685.119 869.881 687.637 873.05 688.95ZM845.828 677.829C844.017 678.579 841.983 678.579 840.172 677.829C838.361 677.078 836.922 675.64 836.172 673.829C835.421 672.018 835.421 669.983 836.172 668.172C836.922 666.361 838.361 664.922 840.172 664.172C841.983 663.422 844.017 663.422 845.828 664.172C847.639 664.922 849.078 666.361 849.828 668.172C850.579 669.983 850.579 672.018 849.828 673.829C849.078 675.64 847.639 677.078 845.828 677.829ZM862.586 651.414C863.491 651.789 864.509 651.789 865.414 651.414C866.32 651.039 867.039 650.32 867.414 649.414C867.789 648.509 867.789 647.491 867.414 646.586C867.039 645.68 866.32 644.961 865.414 644.586C864.509 644.211 863.491 644.211 862.586 644.586C861.68 644.961 860.961 645.68 860.586 646.586C860.211 647.491 860.211 648.509 860.586 649.414C860.961 650.32 861.68 651.039 862.586 651.414Z" fill="#FFA500"/>
<path d="M870.69 622.206L869.018 623.302V623.302L870.69 622.206ZM857.31 622.206L858.982 623.302V623.302L857.31 622.206ZM886.846 646.85L885.174 647.946L885.174 647.946L886.846 646.85ZM889.151 649.154L888.054 650.827L888.054 650.827L889.151 649.154ZM913.794 665.31L912.698 666.982L913.794 665.31ZM913.794 678.691L912.698 677.018L913.794 678.691ZM889.151 694.847L888.054 693.174H888.054L889.151 694.847ZM886.846 697.151L888.519 698.247L886.846 697.151ZM870.69 721.795L872.363 722.891L870.69 721.795ZM857.31 721.795L855.637 722.891L857.31 721.795ZM841.154 697.151L839.481 698.247H839.481L841.154 697.151ZM838.849 694.847L837.753 696.519H837.753L838.849 694.847ZM814.205 678.691L813.109 680.363H813.109L814.205 678.691ZM814.205 665.31L813.109 663.637H813.109L814.205 665.31ZM838.849 649.154L839.946 650.827H839.946L838.849 649.154ZM841.154 646.85L842.826 647.946V647.946L841.154 646.85ZM882.95 688.95L883.715 690.798V690.798L882.95 688.95ZM873.05 688.95L872.285 690.798L872.285 690.798L873.05 688.95ZM889.95 681.95L891.797 682.715L891.798 682.715L889.95 681.95ZM889.95 672.05L891.798 671.285L891.797 671.285L889.95 672.05ZM873.05 665.05L872.285 663.203L873.05 665.05ZM866.05 672.05L867.898 672.816L866.05 672.05ZM866.05 681.95L867.898 681.185L866.05 681.95ZM840.172 677.829L839.406 679.676H839.406L840.172 677.829ZM845.828 677.829L846.594 679.676H846.594L845.828 677.829ZM836.172 673.829L834.324 674.594V674.594L836.172 673.829ZM872.363 621.109C868.414 615.086 859.586 615.086 855.637 621.109L858.982 623.302C861.351 619.688 866.649 619.688 869.018 623.302L872.363 621.109ZM888.519 645.753L872.363 621.109L869.018 623.302L885.174 647.946L888.519 645.753ZM890.247 647.481C889.559 647.03 888.97 646.442 888.519 645.753L885.174 647.946C885.926 649.094 886.907 650.074 888.054 650.827L890.247 647.481ZM914.891 663.637L890.247 647.481L888.054 650.827L912.698 666.982L914.891 663.637ZM914.891 680.363C920.914 676.415 920.914 667.586 914.891 663.637L912.698 666.982C916.312 669.352 916.312 674.649 912.698 677.018L914.891 680.363ZM890.247 696.519L914.891 680.363L912.698 677.018L888.054 693.174L890.247 696.519ZM888.519 698.247C888.97 697.559 889.559 696.971 890.247 696.519L888.054 693.174C886.907 693.926 885.926 694.907 885.174 696.054L888.519 698.247ZM872.363 722.891L888.519 698.247L885.174 696.054L869.018 720.698L872.363 722.891ZM855.637 722.891C859.586 728.914 868.414 728.914 872.363 722.891L869.018 720.698C866.649 724.312 861.351 724.312 858.982 720.698L855.637 722.891ZM839.481 698.247L855.637 722.891L858.982 720.698L842.826 696.054L839.481 698.247ZM837.753 696.519C838.441 696.971 839.03 697.559 839.481 698.247L842.826 696.054C842.074 694.907 841.093 693.926 839.946 693.174L837.753 696.519ZM813.109 680.363L837.753 696.519L839.946 693.174L815.302 677.018L813.109 680.363ZM813.109 663.637C807.086 667.586 807.086 676.415 813.109 680.363L815.302 677.018C811.688 674.649 811.688 669.352 815.302 666.982L813.109 663.637ZM837.753 647.481L813.109 663.637L815.302 666.982L839.946 650.827L837.753 647.481ZM839.481 645.753C839.03 646.442 838.441 647.03 837.753 647.481L839.946 650.827C841.093 650.074 842.074 649.094 842.826 647.946L839.481 645.753ZM855.637 621.109L839.481 645.753L842.826 647.946L858.982 623.302L855.637 621.109ZM882.184 687.102C879.505 688.212 876.495 688.212 873.816 687.102L872.285 690.798C875.944 692.313 880.056 692.313 883.715 690.798L882.184 687.102ZM888.102 681.185C886.992 683.864 884.864 685.992 882.184 687.102L883.715 690.798C887.374 689.282 890.282 686.375 891.797 682.715L888.102 681.185ZM888.102 672.816C889.212 675.495 889.212 678.505 888.102 681.185L891.798 682.715C893.313 679.056 893.313 674.944 891.798 671.285L888.102 672.816ZM882.184 666.898C884.864 668.008 886.992 670.137 888.102 672.816L891.797 671.285C890.282 667.626 887.374 664.718 883.715 663.203L882.184 666.898ZM873.816 666.898C876.495 665.788 879.505 665.788 882.184 666.898L883.715 663.203C880.056 661.687 875.944 661.687 872.285 663.203L873.816 666.898ZM867.898 672.816C869.008 670.137 871.136 668.008 873.816 666.898L872.285 663.203C868.626 664.718 865.718 667.626 864.202 671.285L867.898 672.816ZM867.898 681.185C866.788 678.505 866.788 675.495 867.898 672.816L864.202 671.285C862.687 674.944 862.687 679.056 864.202 682.715L867.898 681.185ZM873.816 687.102C871.136 685.992 869.008 683.864 867.898 681.185L864.202 682.715C865.718 686.375 868.626 689.282 872.285 690.798L873.816 687.102ZM839.406 679.676C841.707 680.629 844.293 680.629 846.594 679.676L845.063 675.981C843.742 676.528 842.258 676.528 840.937 675.981L839.406 679.676ZM834.324 674.594C835.277 676.895 837.105 678.723 839.406 679.676L840.937 675.981C839.616 675.434 838.566 674.384 838.019 673.063L834.324 674.594ZM834.324 667.406C833.371 669.707 833.371 672.293 834.324 674.594L838.019 673.063C837.472 671.742 837.472 670.258 838.019 668.937L834.324 667.406ZM839.406 662.324C837.105 663.277 835.277 665.105 834.324 667.406L838.019 668.937C838.566 667.616 839.616 666.567 840.937 666.02L839.406 662.324ZM846.594 662.324C844.293 661.371 841.707 661.371 839.406 662.324L840.937 666.02C842.258 665.472 843.742 665.472 845.063 666.02L846.594 662.324ZM851.676 667.406C850.723 665.105 848.895 663.277 846.594 662.324L845.063 666.02C846.384 666.567 847.433 667.616 847.981 668.937L851.676 667.406ZM851.676 674.594C852.629 672.293 852.629 669.707 851.676 667.406L847.981 668.937C848.528 670.258 848.528 671.742 847.981 673.063L851.676 674.594ZM846.594 679.676C848.895 678.723 850.723 676.895 851.676 674.594L847.981 673.063C847.433 674.384 846.384 675.434 845.063 675.981L846.594 679.676ZM864.649 649.567C864.233 649.739 863.767 649.739 863.351 649.567L861.82 653.262C863.216 653.84 864.784 653.84 866.18 653.262L864.649 649.567ZM865.566 648.649C865.394 649.064 865.064 649.395 864.649 649.567L866.18 653.262C867.575 652.684 868.684 651.575 869.262 650.18L865.566 648.649ZM865.566 647.351C865.739 647.767 865.739 648.234 865.566 648.649L869.262 650.18C869.84 648.784 869.84 647.216 869.262 645.821L865.566 647.351ZM864.649 646.434C865.064 646.606 865.394 646.936 865.566 647.351L869.262 645.821C868.684 644.425 867.575 643.316 866.18 642.738L864.649 646.434ZM863.351 646.434C863.767 646.262 864.233 646.262 864.649 646.434L866.18 642.738C864.784 642.16 863.216 642.16 861.82 642.738L863.351 646.434ZM862.434 647.351C862.606 646.936 862.936 646.606 863.351 646.434L861.82 642.738C860.425 643.316 859.316 644.425 858.738 645.821L862.434 647.351ZM862.434 648.649C862.261 648.234 862.261 647.767 862.434 647.351L858.738 645.821C858.16 647.216 858.16 648.784 858.738 650.18L862.434 648.649ZM863.351 649.567C862.936 649.395 862.606 649.064 862.434 648.649L858.738 650.18C859.316 651.575 860.425 652.684 861.82 653.262L863.351 649.567Z" fill="#FFA500"/>
<path d="M873.05 688.95C876.22 690.263 879.78 690.263 882.95 688.95C886.119 687.637 888.637 685.119 889.95 681.95C891.263 678.78 891.263 675.22 889.95 672.05C888.637 668.881 886.119 666.363 882.95 665.05C879.78 663.737 876.22 663.737 873.05 665.05C869.881 666.363 867.363 668.881 866.05 672.05C864.737 675.22 864.737 678.78 866.05 681.95C867.363 685.119 869.881 687.637 873.05 688.95Z" fill="#DC143C"/>
<path d="M840.172 677.828C841.983 678.579 844.017 678.579 845.828 677.828C847.639 677.078 849.078 675.639 849.828 673.828C850.579 672.017 850.579 669.983 849.828 668.172C849.078 666.361 847.639 664.922 845.828 664.172C844.017 663.421 841.983 663.421 840.172 664.172C838.361 664.922 836.922 666.361 836.172 668.172C835.421 669.983 835.421 672.017 836.172 673.828C836.922 675.639 838.361 677.078 840.172 677.828Z" fill="#DC143C"/>
<path d="M862.586 651.414C863.491 651.789 864.509 651.789 865.414 651.414C866.32 651.039 867.039 650.32 867.414 649.414C867.789 648.509 867.789 647.491 867.414 646.586C867.039 645.68 866.32 644.961 865.414 644.586C864.509 644.211 863.491 644.211 862.586 644.586C861.68 644.961 860.961 645.68 860.586 646.586C860.211 647.491 860.211 648.509 860.586 649.414C860.961 650.32 861.68 651.039 862.586 651.414Z" fill="#DC143C"/>
</svg>
