<svg viewBox="0 0 1024 768" fill="none" xmlns="http://www.w3.org/2000/svg">
<path d="M424 36L439.274 80.7265L484 96L439.274 111.274L424 156L408.726 111.274L364 96L408.726 80.7265L424 36Z" stroke="#7B61FF" stroke-width="2" stroke-linecap="round" stroke-linejoin="round"/>
<path d="M642.426 138.425V53.5723H557.573V138.425H642.426Z" stroke="#7B61FF" stroke-width="2" stroke-linecap="round" stroke-linejoin="round"/>
<path d="M512 234L550.184 345.816L662 384L550.184 422.184L512 534L473.816 422.184L362 384L473.816 345.816L512 234Z" fill="#888888" fill-opacity="0.5" stroke="currentColor" stroke-width="10" stroke-linecap="round" stroke-linejoin="round"/>
<path d="M550.891 422.89V345.109H473.109V422.89H550.891Z" fill="#888888" fill-opacity="0.5" stroke="currentColor" stroke-width="10" stroke-linecap="round" stroke-linejoin="round"/>
<path d="M160 612L175.274 656.726L220 672L175.274 687.274L160 732L144.726 687.274L100 672L144.726 656.726L160 612Z" stroke="currentColor" stroke-width="2" stroke-linecap="round" stroke-linejoin="round"/>
<path d="M175.556 687.557V656.444H144.444V687.557H175.556Z" stroke="currentColor" stroke-width="2" stroke-linecap="round" stroke-linejoin="round"/>
<path d="M339.785 610.707L340.259 610.546V610.546L339.785 610.707ZM332.215 610.707L331.741 610.546V610.546L332.215 610.707ZM317.576 653.576L317.737 654.049C317.884 653.999 317.999 653.884 318.049 653.737L317.576 653.576ZM274.707 668.215L274.546 667.741H274.546L274.707 668.215ZM274.707 675.785L274.546 676.259H274.546L274.707 675.785ZM317.576 690.424L318.049 690.263C317.999 690.116 317.884 690.001 317.737 689.951L317.576 690.424ZM332.215 733.293L332.688 733.131L332.215 733.293ZM339.785 733.293L339.312 733.131L339.785 733.293ZM354.424 690.424L354.263 689.951C354.116 690.001 354.001 690.116 353.951 690.263L354.424 690.424ZM397.293 675.785L397.131 675.312L397.293 675.785ZM397.293 668.215L397.131 668.688L397.293 668.215ZM354.424 653.576L353.951 653.737C354.001 653.884 354.116 653.999 354.263 654.049L354.424 653.576ZM336 624.378L336.473 624.216C336.404 624.014 336.214 623.878 336 623.878C335.786 623.878 335.596 624.014 335.527 624.216L336 624.378ZM326.416 652.444L325.943 652.282C325.89 652.435 325.915 652.603 326.009 652.735C326.103 652.866 326.254 652.944 326.416 652.944V652.444ZM345.584 652.444V652.944C345.746 652.944 345.897 652.866 345.991 652.735C346.085 652.603 346.11 652.435 346.057 652.282L345.584 652.444ZM316.444 662.416H316.944C316.944 662.254 316.866 662.103 316.735 662.009C316.603 661.915 316.435 661.89 316.282 661.943L316.444 662.416ZM288.378 672L288.216 671.527C288.014 671.596 287.878 671.786 287.878 672C287.878 672.214 288.014 672.404 288.216 672.473L288.378 672ZM316.444 681.584L316.282 682.057C316.435 682.11 316.603 682.085 316.735 681.991C316.866 681.897 316.944 681.746 316.944 681.584H316.444ZM326.416 691.557V691.057C326.255 691.057 326.103 691.134 326.009 691.266C325.915 691.397 325.891 691.565 325.943 691.718L326.416 691.557ZM336 719.622L335.527 719.784C335.596 719.986 335.786 720.122 336 720.122C336.214 720.122 336.404 719.986 336.473 719.784L336 719.622ZM345.584 691.557L346.057 691.718C346.109 691.565 346.085 691.397 345.991 691.266C345.897 691.134 345.745 691.057 345.584 691.057V691.557ZM355.556 681.584H355.056C355.056 681.746 355.134 681.897 355.266 681.991C355.397 682.085 355.565 682.109 355.718 682.057L355.556 681.584ZM383.622 672L383.784 672.473C383.986 672.404 384.122 672.214 384.122 672C384.122 671.786 383.986 671.596 383.784 671.527L383.622 672ZM355.556 662.416L355.718 661.943C355.565 661.891 355.397 661.915 355.266 662.009C355.134 662.103 355.056 662.254 355.056 662.416H355.556ZM324.444 683.557H323.944C323.944 683.833 324.168 684.057 324.444 684.057V683.557ZM324.444 660.444V659.944C324.168 659.944 323.944 660.168 323.944 660.444H324.444ZM347.556 683.557V684.057C347.833 684.057 348.056 683.833 348.056 683.557H347.556ZM347.556 660.444H348.056C348.056 660.168 347.833 659.944 347.556 659.944V660.444ZM336 608.5C337.497 608.5 338.828 609.452 339.312 610.869L340.259 610.546C339.637 608.724 337.925 607.5 336 607.5V608.5ZM332.688 610.869C333.172 609.452 334.503 608.5 336 608.5V607.5C334.075 607.5 332.363 608.724 331.741 610.546L332.688 610.869ZM318.049 653.737L332.688 610.869L331.741 610.546L317.102 653.414L318.049 653.737ZM274.869 668.688L317.737 654.049L317.414 653.102L274.546 667.741L274.869 668.688ZM272.5 672C272.5 670.503 273.452 669.172 274.869 668.688L274.546 667.741C272.724 668.363 271.5 670.075 271.5 672H272.5ZM274.869 675.312C273.452 674.828 272.5 673.497 272.5 672H271.5C271.5 673.925 272.724 675.637 274.546 676.259L274.869 675.312ZM317.737 689.951L274.869 675.312L274.546 676.259L317.414 690.898L317.737 689.951ZM332.688 733.131L318.049 690.263L317.102 690.586L331.741 733.454L332.688 733.131ZM336 735.5C334.503 735.5 333.172 734.548 332.688 733.131L331.741 733.454C332.363 735.276 334.075 736.5 336 736.5V735.5ZM339.312 733.131C338.828 734.548 337.497 735.5 336 735.5V736.5C337.925 736.5 339.637 735.276 340.259 733.454L339.312 733.131ZM353.951 690.263L339.312 733.131L340.259 733.454L354.898 690.586L353.951 690.263ZM397.131 675.312L354.263 689.951L354.586 690.898L397.454 676.259L397.131 675.312ZM399.5 672C399.5 673.497 398.548 674.828 397.131 675.312L397.454 676.259C399.276 675.637 400.5 673.925 400.5 672H399.5ZM397.131 668.688C398.548 669.172 399.5 670.503 399.5 672H400.5C400.5 670.075 399.276 668.363 397.454 667.741L397.131 668.688ZM354.263 654.049L397.131 668.688L397.454 667.741L354.586 653.102L354.263 654.049ZM339.312 610.869L353.951 653.737L354.898 653.414L340.259 610.546L339.312 610.869ZM335.527 624.216L325.943 652.282L326.889 652.605L336.473 624.539L335.527 624.216ZM346.057 652.282L336.473 624.216L335.527 624.539L345.111 652.605L346.057 652.282ZM345.584 651.944H326.416V652.944H345.584V651.944ZM316.282 661.943L288.216 671.527L288.539 672.473L316.605 662.889L316.282 661.943ZM288.216 672.473L316.282 682.057L316.605 681.111L288.539 671.527L288.216 672.473ZM315.944 662.416V681.584H316.944V662.416H315.944ZM325.943 691.718L335.527 719.784L336.473 719.461L326.889 691.395L325.943 691.718ZM336.473 719.784L346.057 691.718L345.111 691.395L335.527 719.461L336.473 719.784ZM326.416 692.057H345.584V691.057H326.416V692.057ZM355.718 682.057L383.784 672.473L383.461 671.527L355.395 681.111L355.718 682.057ZM383.784 671.527L355.718 661.943L355.395 662.889L383.461 672.473L383.784 671.527ZM356.056 681.584V662.416H355.056V681.584H356.056ZM324.944 683.557V660.444H323.944V683.557H324.944ZM347.556 683.057H324.444V684.057H347.556V683.057ZM347.056 660.444V683.557H348.056V660.444H347.056ZM324.444 660.944H347.556V659.944H324.444V660.944Z" fill="currentColor"/>
<path fill-rule="evenodd" clip-rule="evenodd" d="M527.177 656.444L512 612L496.823 656.444H527.177ZM527.556 656.823V687.177L572 672L527.556 656.823ZM527.177 687.557H496.823L512 732L527.177 687.557ZM496.444 687.177V656.823L452 672L496.444 687.177Z" fill="currentColor"/>
<path d="M512 612L513.893 611.354C513.616 610.544 512.855 610 512 610C511.145 610 510.384 610.544 510.107 611.354L512 612ZM527.177 656.444V658.444C527.822 658.444 528.428 658.132 528.804 657.607C529.179 657.082 529.278 656.408 529.07 655.797L527.177 656.444ZM496.823 656.444L494.93 655.797C494.722 656.408 494.821 657.082 495.196 657.607C495.572 658.132 496.178 658.444 496.823 658.444V656.444ZM527.556 687.177H525.556C525.556 687.822 525.868 688.428 526.393 688.804C526.918 689.179 527.592 689.278 528.203 689.07L527.556 687.177ZM527.556 656.823L528.203 654.93C527.592 654.722 526.918 654.821 526.393 655.196C525.868 655.572 525.556 656.178 525.556 656.823H527.556ZM572 672L572.646 673.893C573.456 673.616 574 672.855 574 672C574 671.145 573.456 670.384 572.646 670.107L572 672ZM496.823 687.557V685.557C496.178 685.557 495.572 685.868 495.196 686.393C494.821 686.918 494.722 687.592 494.93 688.203L496.823 687.557ZM527.177 687.557L529.07 688.203C529.278 687.592 529.179 686.918 528.804 686.393C528.428 685.868 527.822 685.557 527.177 685.557V687.557ZM512 732L510.107 732.646C510.384 733.456 511.145 734 512 734C512.855 734 513.616 733.456 513.893 732.646L512 732ZM496.444 656.823H498.444C498.444 656.178 498.132 655.572 497.607 655.196C497.082 654.821 496.408 654.722 495.797 654.93L496.444 656.823ZM496.444 687.177L495.797 689.07C496.408 689.278 497.082 689.179 497.607 688.804C498.132 688.428 498.444 687.822 498.444 687.177H496.444ZM452 672L451.354 670.107C450.544 670.384 450 671.145 450 672C450 672.855 450.544 673.616 451.354 673.893L452 672ZM510.107 612.646L525.284 657.09L529.07 655.797L513.893 611.354L510.107 612.646ZM498.716 657.09L513.893 612.646L510.107 611.354L494.93 655.797L498.716 657.09ZM527.177 654.444H496.823V658.444H527.177V654.444ZM529.556 687.177V656.823H525.556V687.177H529.556ZM571.354 670.107L526.91 685.284L528.203 689.07L572.646 673.893L571.354 670.107ZM526.91 658.716L571.354 673.893L572.646 670.107L528.203 654.93L526.91 658.716ZM496.823 689.557H527.177V685.557H496.823V689.557ZM513.893 731.354L498.716 686.91L494.93 688.203L510.107 732.646L513.893 731.354ZM525.284 686.91L510.107 731.354L513.893 732.646L529.07 688.203L525.284 686.91ZM494.444 656.823V687.177H498.444V656.823H494.444ZM452.646 673.893L497.09 658.716L495.797 654.93L451.354 670.107L452.646 673.893ZM497.09 685.284L452.646 670.107L451.354 673.893L495.797 689.07L497.09 685.284Z" fill="currentColor"/>
<path opacity="0.25" d="M688 612L703.274 656.726L748 672L703.274 687.274L688 732L672.726 687.274L628 672L672.726 656.726L688 612Z" fill="currentColor" stroke="currentColor" stroke-width="4" stroke-linecap="round" stroke-linejoin="round"/>
<path d="M703.556 687.557V656.444H672.444V687.557H703.556Z" fill="currentColor" stroke="currentColor" stroke-width="4" stroke-linecap="round" stroke-linejoin="round"/>
<path d="M864 612L879.274 656.726L924 672L879.274 687.274L864 732L848.726 687.274L804 672L848.726 656.726L864 612Z" fill="#FFA500" stroke="#FFA500" stroke-width="4" stroke-linecap="round" stroke-linejoin="round"/>
<path d="M879.556 687.557V656.444H848.444V687.557H879.556Z" fill="#FFD700" stroke="#FFD700" stroke-width="4" stroke-linecap="round" stroke-linejoin="round"/>
</svg>
