<svg viewBox="0 0 1024 768" fill="none" xmlns="http://www.w3.org/2000/svg">
<path d="M424 36L424.26 95.4594L470.91 58.5906L424.585 95.8665L482.496 109.351L424.469 96.3741L450.033 150.058L424 96.6L397.967 150.058L423.531 96.3741L365.504 109.351L423.415 95.8665L377.09 58.5906L423.74 95.4594L424 36Z" stroke="#7B61FF" stroke-width="2" stroke-linecap="round" stroke-linejoin="round"/>
<path d="M578.787 147.213C592.369 152.839 607.631 152.839 621.213 147.213V147.213C634.796 141.587 645.587 130.796 651.213 117.213V117.213C656.839 103.631 656.839 88.3694 651.213 74.7868V74.7868C645.587 61.2042 634.796 50.4129 621.213 44.7868V44.7868C607.631 39.1607 592.369 39.1607 578.787 44.7868V44.7868C565.204 50.4129 554.413 61.2042 548.787 74.7868V74.7868C543.161 88.3694 543.161 103.631 548.787 117.213V117.213C554.413 130.796 565.204 141.587 578.787 147.213V147.213Z" stroke="#7B61FF" stroke-width="2" stroke-linecap="round" stroke-linejoin="round"/>
<path fill-rule="evenodd" clip-rule="evenodd" d="M534.5 233.901C534.446 221.514 524.388 211.5 512 211.5C499.612 211.5 489.555 221.514 489.5 233.901L489.318 275.479C482.608 276.881 475.997 278.913 469.574 281.574C459.256 285.847 449.744 291.611 441.297 298.605L408.677 272.824C398.958 265.143 384.858 266.763 377.134 276.448C369.41 286.133 370.969 300.24 380.62 308.006L413.013 334.072C411.778 336.521 410.63 339.022 409.574 341.574C403.683 355.795 400.876 370.937 401.153 386.035L360.658 395.464C348.593 398.274 341.069 410.308 343.825 422.385C346.582 434.462 358.582 442.039 370.672 439.336L411.248 430.261C418.822 446.758 430.275 461.025 444.479 471.933L426.603 509.472C421.277 520.656 425.994 534.042 437.155 539.417C448.316 544.792 461.723 540.134 467.146 528.996L485.35 491.615C502.849 495.949 521.151 495.949 538.65 491.615L556.854 528.996C562.278 540.134 575.684 544.792 586.845 539.417C598.006 534.042 602.723 520.656 597.397 509.472L579.521 471.933C593.725 461.025 605.179 446.758 612.753 430.261L653.329 439.336C665.418 442.039 677.419 434.462 680.175 422.385C682.932 410.308 675.407 398.274 663.342 395.464L622.847 386.035C623.124 370.937 620.317 355.795 614.427 341.574C613.37 339.022 612.222 336.521 610.987 334.072L643.38 308.006C653.032 300.24 654.59 286.133 646.866 276.448C639.142 266.763 625.043 265.143 615.324 272.824L582.703 298.605C574.256 291.611 564.744 285.847 554.427 281.574C548.003 278.913 541.392 276.881 534.682 275.479L534.5 233.901Z" fill="#888888" fill-opacity="0.5"/>
<path d="M534.5 233.901L539.5 233.88V233.88L534.5 233.901ZM489.5 233.901L484.5 233.88V233.88L489.5 233.901ZM489.318 275.479L490.341 280.373C492.65 279.891 494.308 277.86 494.318 275.501L489.318 275.479ZM469.574 281.574L471.487 286.193L469.574 281.574ZM441.297 298.605L438.197 302.528C440.048 303.991 442.669 303.961 444.486 302.456L441.297 298.605ZM408.677 272.824L405.577 276.747L408.677 272.824ZM377.134 276.448L381.043 279.565V279.565L377.134 276.448ZM380.62 308.006L377.485 311.902H377.485L380.62 308.006ZM413.013 334.072L417.478 336.323C418.54 334.217 417.986 331.655 416.148 330.176L413.013 334.072ZM409.574 341.574L404.954 339.66L409.574 341.574ZM401.153 386.035L402.287 390.905C404.585 390.37 406.196 388.302 406.152 385.943L401.153 386.035ZM360.658 395.464L361.792 400.334H361.792L360.658 395.464ZM343.825 422.385L348.7 421.272V421.272L343.825 422.385ZM370.672 439.336L371.763 444.215L370.672 439.336ZM411.248 430.261L415.792 428.175C414.807 426.031 412.458 424.867 410.156 425.382L411.248 430.261ZM444.479 471.933L448.993 474.082C450.008 471.953 449.395 469.404 447.524 467.967L444.479 471.933ZM426.603 509.472L431.118 511.622L426.603 509.472ZM437.155 539.417L439.325 534.912H439.325L437.155 539.417ZM467.146 528.996L471.642 531.186L467.146 528.996ZM485.35 491.615L486.552 486.762C484.262 486.195 481.888 487.305 480.855 489.426L485.35 491.615ZM538.65 491.615L543.145 489.426C542.113 487.305 539.738 486.195 537.448 486.762L538.65 491.615ZM556.854 528.996L552.359 531.186L556.854 528.996ZM586.845 539.417L584.676 534.912H584.676L586.845 539.417ZM597.397 509.472L592.883 511.622L597.397 509.472ZM579.521 471.933L576.476 467.967C574.605 469.404 573.993 471.953 575.007 474.082L579.521 471.933ZM612.753 430.261L613.844 425.382C611.542 424.867 609.193 426.031 608.209 428.175L612.753 430.261ZM653.329 439.336L654.42 434.456L653.329 439.336ZM663.342 395.464L662.208 400.334L663.342 395.464ZM622.847 386.035L617.848 385.943C617.805 388.302 619.416 390.37 621.713 390.905L622.847 386.035ZM614.427 341.574L619.046 339.66L619.046 339.66L614.427 341.574ZM610.987 334.072L607.852 330.176C606.015 331.655 605.46 334.217 606.523 336.323L610.987 334.072ZM643.38 308.006L646.515 311.902V311.902L643.38 308.006ZM646.866 276.448L650.775 273.331V273.331L646.866 276.448ZM615.324 272.824L612.223 268.901L615.324 272.824ZM582.703 298.605L579.514 302.456C581.331 303.961 583.953 303.991 585.803 302.528L582.703 298.605ZM554.427 281.574L552.513 286.193L554.427 281.574ZM534.682 275.479L529.682 275.501C529.692 277.86 531.35 279.891 533.659 280.373L534.682 275.479ZM512 216.5C521.635 216.5 529.458 224.288 529.5 233.923L539.5 233.88C539.434 218.739 527.141 206.5 512 206.5V216.5ZM494.5 233.923C494.543 224.288 502.365 216.5 512 216.5V206.5C496.859 206.5 484.567 218.739 484.5 233.88L494.5 233.923ZM494.318 275.501L494.5 233.923L484.5 233.88L484.318 275.457L494.318 275.501ZM471.487 286.193C477.621 283.652 483.934 281.712 490.341 280.373L488.295 270.585C481.283 272.05 474.373 274.174 467.66 276.954L471.487 286.193ZM444.486 302.456C452.552 295.778 461.635 290.274 471.487 286.193L467.66 276.954C456.878 281.421 446.936 287.444 438.108 294.754L444.486 302.456ZM405.577 276.747L438.197 302.528L444.397 294.682L411.777 268.901L405.577 276.747ZM381.043 279.565C387.051 272.032 398.017 270.773 405.577 276.747L411.777 268.901C399.898 259.513 382.665 261.493 373.225 273.331L381.043 279.565ZM383.755 304.111C376.248 298.07 375.036 287.098 381.043 279.565L373.225 273.331C363.785 285.168 365.689 302.41 377.485 311.902L383.755 304.111ZM416.148 330.176L383.755 304.111L377.485 311.902L409.879 337.967L416.148 330.176ZM414.193 343.487C415.202 341.051 416.298 338.662 417.478 336.323L408.549 331.82C407.258 334.379 406.059 336.994 404.954 339.66L414.193 343.487ZM406.152 385.943C405.888 371.526 408.568 357.067 414.193 343.487L404.954 339.66C398.798 354.523 395.865 370.348 396.154 386.127L406.152 385.943ZM361.792 400.334L402.287 390.905L400.019 381.165L359.524 390.595L361.792 400.334ZM348.7 421.272C346.556 411.879 352.408 402.519 361.792 400.334L359.524 390.595C344.778 394.028 335.581 408.736 338.95 423.497L348.7 421.272ZM369.58 434.456C360.178 436.559 350.844 430.666 348.7 421.272L338.95 423.497C342.32 438.259 356.987 447.52 371.763 444.215L369.58 434.456ZM410.156 425.382L369.58 434.456L371.763 444.215L412.339 435.141L410.156 425.382ZM447.524 467.967C433.961 457.551 423.024 443.928 415.792 428.175L406.704 432.347C414.619 449.589 426.59 464.499 441.434 475.898L447.524 467.967ZM431.118 511.622L448.993 474.082L439.965 469.783L422.089 507.322L431.118 511.622ZM439.325 534.912C430.644 530.732 426.975 520.321 431.118 511.622L422.089 507.322C415.579 520.992 421.344 537.353 434.986 543.922L439.325 534.912ZM462.651 526.807C458.433 535.47 448.006 539.093 439.325 534.912L434.986 543.922C448.627 550.491 465.013 544.798 471.642 531.186L462.651 526.807ZM480.855 489.426L462.651 526.807L471.642 531.186L489.846 493.804L480.855 489.426ZM537.448 486.762C520.738 490.9 503.262 490.9 486.552 486.762L484.148 496.469C502.437 500.998 521.564 500.998 539.852 496.469L537.448 486.762ZM561.349 526.807L543.145 489.426L534.155 493.804L552.359 531.186L561.349 526.807ZM584.676 534.912C575.995 539.093 565.568 535.47 561.349 526.807L552.359 531.186C558.988 544.798 575.373 550.491 589.015 543.922L584.676 534.912ZM592.883 511.622C597.025 520.321 593.357 530.732 584.676 534.912L589.015 543.922C602.656 537.353 608.421 520.992 601.911 507.322L592.883 511.622ZM575.007 474.082L592.883 511.622L601.911 507.322L584.035 469.783L575.007 474.082ZM608.209 428.175C600.977 443.928 590.039 457.551 576.476 467.967L582.566 475.898C597.411 464.499 609.381 449.589 617.297 432.348L608.209 428.175ZM654.42 434.456L613.844 425.382L611.661 435.141L652.237 444.215L654.42 434.456ZM675.301 421.272C673.157 430.666 663.823 436.559 654.42 434.456L652.237 444.215C667.013 447.52 681.681 438.259 685.05 423.497L675.301 421.272ZM662.208 400.334C671.592 402.519 677.445 411.879 675.301 421.272L685.05 423.497C688.419 408.736 679.222 394.028 664.476 390.595L662.208 400.334ZM621.713 390.905L662.208 400.334L664.476 390.595L623.981 381.165L621.713 390.905ZM609.807 343.487C615.432 357.067 618.112 371.526 617.848 385.943L627.846 386.127C628.136 370.348 625.202 354.523 619.046 339.66L609.807 343.487ZM606.523 336.323C607.702 338.662 608.798 341.051 609.807 343.487L619.046 339.66C617.942 336.994 616.742 334.379 615.451 331.82L606.523 336.323ZM640.246 304.111L607.852 330.176L614.122 337.967L646.515 311.902L640.246 304.111ZM642.957 279.565C648.964 287.098 647.752 298.07 640.246 304.111L646.515 311.902C658.311 302.41 660.215 285.168 650.775 273.331L642.957 279.565ZM618.424 276.747C625.983 270.773 636.95 272.032 642.957 279.565L650.775 273.331C641.335 261.493 624.102 259.513 612.223 268.901L618.424 276.747ZM585.803 302.528L618.424 276.747L612.223 268.901L579.603 294.682L585.803 302.528ZM552.513 286.193C562.366 290.274 571.449 295.778 579.514 302.456L585.892 294.754C577.064 287.444 567.123 281.421 556.34 276.954L552.513 286.193ZM533.659 280.373C540.066 281.712 546.379 283.652 552.513 286.193L556.34 276.954C549.627 274.174 542.718 272.05 535.705 270.585L533.659 280.373ZM529.5 233.923L529.682 275.501L539.682 275.457L539.5 233.88L529.5 233.923Z" fill="currentColor"/>
<path d="M489.019 439.481C503.734 445.576 520.267 445.576 534.981 439.481C549.695 433.386 561.386 421.695 567.481 406.981C573.576 392.266 573.576 375.733 567.481 361.019C561.386 346.305 549.695 334.614 534.981 328.519C520.267 322.424 503.734 322.424 489.019 328.519C474.305 334.614 462.614 346.305 456.519 361.019C450.424 375.733 450.424 392.266 456.519 406.981C462.614 421.695 474.305 433.386 489.019 439.481Z" fill="#888888" fill-opacity="0.5" stroke="currentColor" stroke-width="10" stroke-linecap="round" stroke-linejoin="round"/>
<path d="M169 611.961L170 611.956V611.956L169 611.961ZM151 611.961L152 611.965V611.965L151 611.961ZM150.927 628.592L151.132 629.57C151.594 629.474 151.925 629.068 151.927 628.596L150.927 628.592ZM143.029 631.029L142.647 630.106L143.029 631.029ZM131.719 637.842L131.099 638.627C131.469 638.919 131.993 638.913 132.357 638.612L131.719 637.842ZM118.671 627.53L119.291 626.745L118.671 627.53ZM106.054 628.979L105.272 628.356H105.272L106.054 628.979ZM107.448 641.602L106.821 642.382L107.448 641.602ZM120.405 652.029L121.298 652.479C121.511 652.058 121.4 651.545 121.032 651.25L120.405 652.029ZM119.029 655.029L118.106 654.647L119.029 655.029ZM115.661 672.814L115.888 673.788C116.348 673.681 116.67 673.267 116.661 672.796L115.661 672.814ZM99.4633 676.586L99.6901 677.56L99.4633 676.586ZM92.73 687.354L93.705 687.131H93.705L92.73 687.354ZM103.469 694.134L103.687 695.11L103.469 694.134ZM119.699 690.505L120.608 690.087C120.411 689.658 119.941 689.426 119.481 689.529L119.699 690.505ZM132.992 707.173L133.895 707.603C134.097 707.177 133.975 706.667 133.601 706.38L132.992 707.173ZM125.841 722.189L124.938 721.759L125.841 722.189ZM130.062 734.167L130.496 733.266L130.062 734.167ZM142.059 729.999L141.16 729.561L142.059 729.999ZM149.34 715.046L149.58 714.075C149.123 713.962 148.648 714.184 148.441 714.608L149.34 715.046ZM170.66 715.046L171.559 714.608C171.353 714.184 170.878 713.962 170.42 714.075L170.66 715.046ZM177.942 729.999L178.841 729.561V729.561L177.942 729.999ZM189.938 734.167L189.504 733.266L189.938 734.167ZM194.159 722.189L195.062 721.759L194.159 722.189ZM187.008 707.173L186.399 706.38C186.025 706.667 185.903 707.177 186.106 707.603L187.008 707.173ZM200.301 690.505L200.519 689.529C200.059 689.426 199.589 689.658 199.392 690.087L200.301 690.505ZM216.531 694.134L216.313 695.11L216.531 694.134ZM227.27 687.354L228.245 687.576L227.27 687.354ZM220.537 676.586L220.31 677.56L220.537 676.586ZM204.339 672.814L203.339 672.796C203.33 673.267 203.653 673.681 204.112 673.788L204.339 672.814ZM200.971 655.029L201.894 654.647V654.647L200.971 655.029ZM199.595 652.029L198.968 651.25C198.6 651.545 198.489 652.058 198.702 652.479L199.595 652.029ZM212.552 641.602L211.925 640.823L212.552 641.602ZM213.946 628.979L214.728 628.356V628.356L213.946 628.979ZM201.329 627.53L201.949 628.314L201.329 627.53ZM188.281 637.842L187.643 638.612C188.007 638.913 188.531 638.919 188.901 638.627L188.281 637.842ZM176.971 631.029L177.353 630.106L176.971 631.029ZM169.073 628.592L168.073 628.596C168.075 629.068 168.406 629.474 168.868 629.57L169.073 628.592ZM160 604C164.405 604 167.981 607.56 168 611.965L170 611.956C169.976 606.451 165.506 602 160 602V604ZM152 611.965C152.019 607.56 155.595 604 160 604V602C154.494 602 150.024 606.451 150 611.956L152 611.965ZM151.927 628.596L152 611.965L150 611.956L149.927 628.587L151.927 628.596ZM143.412 631.953C145.924 630.913 148.508 630.119 151.132 629.57L150.723 627.613C147.978 628.186 145.274 629.017 142.647 630.106L143.412 631.953ZM132.357 638.612C135.659 635.878 139.378 633.624 143.412 631.953L142.647 630.106C138.427 631.854 134.536 634.211 131.081 637.072L132.357 638.612ZM118.051 628.314L131.099 638.627L132.339 637.057L119.291 626.745L118.051 628.314ZM106.836 629.603C109.582 626.159 114.595 625.583 118.051 628.314L119.291 626.745C114.971 623.331 108.705 624.051 105.272 628.356L106.836 629.603ZM108.075 640.823C104.643 638.062 104.089 633.046 106.836 629.603L105.272 628.356C101.839 632.66 102.532 638.93 106.821 642.382L108.075 640.823ZM121.032 651.25L108.075 640.823L106.821 642.382L119.778 652.808L121.032 651.25ZM119.953 655.412C120.367 654.415 120.815 653.436 121.298 652.479L119.512 651.578C119.007 652.58 118.538 653.603 118.106 654.647L119.953 655.412ZM116.661 672.796C116.553 666.892 117.65 660.972 119.953 655.412L118.106 654.647C115.696 660.464 114.548 666.657 114.661 672.832L116.661 672.796ZM99.6901 677.56L115.888 673.788L115.435 671.84L99.2365 675.612L99.6901 677.56ZM93.705 687.131C92.7248 682.837 95.4002 678.559 99.6901 677.56L99.2365 675.612C93.8742 676.86 90.53 682.209 91.7551 687.576L93.705 687.131ZM103.25 693.158C98.952 694.12 94.6851 691.426 93.705 687.131L91.7551 687.576C92.9803 692.944 98.3139 696.312 103.687 695.11L103.25 693.158ZM119.481 689.529L103.25 693.158L103.687 695.11L119.917 691.48L119.481 689.529ZM133.601 706.38C128.047 702.115 123.569 696.537 120.608 690.087L118.79 690.922C121.888 697.669 126.573 703.505 132.383 707.966L133.601 706.38ZM126.744 722.619L133.895 707.603L132.089 706.743L124.938 721.759L126.744 722.619ZM130.496 733.266C126.528 731.355 124.85 726.595 126.744 722.619L124.938 721.759C122.571 726.73 124.668 732.679 129.628 735.068L130.496 733.266ZM141.16 729.561C139.231 733.521 134.464 735.177 130.496 733.266L129.628 735.068C134.589 737.457 140.547 735.386 142.958 730.436L141.16 729.561ZM148.441 714.608L141.16 729.561L142.958 730.436L150.239 715.484L148.441 714.608ZM170.42 714.075C163.578 715.77 156.422 715.77 149.58 714.075L149.1 716.017C156.257 717.789 163.743 717.789 170.9 716.017L170.42 714.075ZM178.841 729.561L171.559 714.608L169.761 715.484L177.042 730.436L178.841 729.561ZM189.504 733.266C185.536 735.177 180.769 733.521 178.841 729.561L177.042 730.436C179.453 735.386 185.411 737.457 190.372 735.068L189.504 733.266ZM193.256 722.619C195.15 726.595 193.473 731.355 189.504 733.266L190.372 735.068C195.332 732.679 197.429 726.73 195.062 721.759L193.256 722.619ZM186.106 707.603L193.256 722.619L195.062 721.759L187.911 706.743L186.106 707.603ZM199.392 690.087C196.431 696.537 191.953 702.115 186.399 706.38L187.618 707.966C193.427 703.505 198.112 697.669 201.21 690.922L199.392 690.087ZM216.75 693.158L200.519 689.529L200.083 691.48L216.313 695.11L216.75 693.158ZM226.295 687.131C225.315 691.426 221.048 694.12 216.75 693.158L216.313 695.11C221.686 696.312 227.02 692.944 228.245 687.576L226.295 687.131ZM220.31 677.56C224.6 678.559 227.275 682.837 226.295 687.131L228.245 687.576C229.47 682.209 226.126 676.86 220.764 675.612L220.31 677.56ZM204.112 673.788L220.31 677.56L220.764 675.612L204.566 671.84L204.112 673.788ZM200.047 655.412C202.35 660.972 203.447 666.892 203.339 672.796L205.339 672.832C205.452 666.657 204.304 660.464 201.894 654.647L200.047 655.412ZM198.702 652.479C199.185 653.436 199.634 654.415 200.047 655.412L201.894 654.647C201.462 653.603 200.993 652.58 200.488 651.578L198.702 652.479ZM211.925 640.823L198.968 651.25L200.222 652.808L213.179 642.382L211.925 640.823ZM213.165 629.603C215.911 633.046 215.357 638.062 211.925 640.823L213.179 642.382C217.469 638.93 218.161 632.66 214.728 628.356L213.165 629.603ZM201.949 628.314C205.405 625.583 210.418 626.159 213.165 629.603L214.728 628.356C211.295 624.051 205.029 623.331 200.709 626.745L201.949 628.314ZM188.901 638.627L201.949 628.314L200.709 626.745L187.661 637.057L188.901 638.627ZM176.588 631.953C180.622 633.624 184.341 635.878 187.643 638.612L188.919 637.072C185.464 634.211 181.573 631.854 177.353 630.106L176.588 631.953ZM168.868 629.57C171.492 630.119 174.076 630.913 176.588 631.953L177.353 630.106C174.726 629.017 172.022 628.186 169.277 627.613L168.868 629.57ZM168 611.965L168.073 628.596L170.073 628.587L170 611.956L168 611.965Z" fill="currentColor"/>
<path d="M150.808 694.192C156.693 696.63 163.307 696.63 169.192 694.192V694.192C175.078 691.754 179.754 687.078 182.192 681.192V681.192C184.63 675.307 184.63 668.693 182.192 662.808V662.808C179.754 656.922 175.078 652.246 169.192 649.808V649.808C163.307 647.37 156.693 647.37 150.808 649.808V649.808C144.922 652.246 140.246 656.922 137.808 662.808V662.808C135.37 668.693 135.37 675.307 137.808 681.192V681.192C140.246 687.078 144.922 691.754 150.808 694.192V694.192Z" stroke="currentColor" stroke-width="2" stroke-linecap="round" stroke-linejoin="round"/>
<path fill-rule="evenodd" clip-rule="evenodd" d="M346.723 697.888C339.857 700.732 332.143 700.732 325.277 697.888C318.411 695.044 312.956 689.589 310.112 682.723C307.268 675.857 307.268 668.143 310.112 661.277C312.956 654.411 318.411 648.956 325.277 646.112C332.143 643.268 339.857 643.268 346.723 646.112C353.589 648.956 359.044 654.411 361.888 661.277C364.732 668.143 364.732 675.857 361.888 682.723C359.044 689.589 353.589 695.044 346.723 697.888ZM328.338 690.497C333.244 692.529 338.756 692.529 343.662 690.497C348.567 688.465 352.465 684.567 354.497 679.662C356.529 674.756 356.529 669.244 354.497 664.338C352.465 659.433 348.567 655.535 343.662 653.503C338.756 651.471 333.244 651.471 328.338 653.503C323.433 655.535 319.535 659.433 317.503 664.338C315.471 669.244 315.471 674.756 317.503 679.662C319.535 684.567 323.433 688.465 328.338 690.497Z" stroke="currentColor" stroke-linecap="round" stroke-linejoin="round"/>
<path fill-rule="evenodd" clip-rule="evenodd" d="M336 599C328.842 599 323.031 604.786 323 611.943L322.941 625.451C321.1 625.967 319.283 626.595 317.499 627.334C314.021 628.774 310.754 630.603 307.748 632.767L297.151 624.391C291.535 619.953 283.389 620.889 278.926 626.485C274.464 632.081 275.364 640.232 280.94 644.719L291.464 653.187C291.42 653.291 291.377 653.395 291.334 653.499C289.189 658.676 287.982 664.134 287.712 669.627L274.556 672.69C267.585 674.313 263.238 681.266 264.83 688.244C266.423 695.222 273.357 699.6 280.342 698.038L293.524 695.09C296.242 700.09 299.808 704.547 304.037 708.273L298.23 720.469C295.153 726.931 297.878 734.665 304.326 737.771C310.775 740.876 318.521 738.185 321.655 731.75L327.569 719.606C333.146 720.593 338.854 720.593 344.431 719.606L350.345 731.75C353.479 738.185 361.225 740.876 367.673 737.771C374.122 734.665 376.847 726.931 373.77 720.469L367.963 708.273C372.192 704.547 375.758 700.09 378.476 695.09L391.658 698.038C398.643 699.6 405.577 695.222 407.17 688.244C408.762 681.266 404.415 674.313 397.444 672.69L384.288 669.627C384.018 664.134 382.811 658.676 380.666 653.499C380.623 653.395 380.579 653.291 380.536 653.187L391.06 644.719C396.636 640.232 397.536 632.081 393.074 626.485C388.611 620.889 380.464 619.953 374.849 624.391L364.251 632.767C361.246 630.603 357.978 628.774 354.501 627.334C352.717 626.595 350.9 625.967 349.059 625.451L349 611.943C348.968 604.786 343.157 599 336 599ZM331 611.978C331.012 609.225 333.247 607 336 607C338.753 607 340.988 609.225 341 611.978L341.073 628.609C341.081 630.496 342.407 632.121 344.254 632.507C346.696 633.017 349.102 633.757 351.44 634.725C355.195 636.28 358.656 638.378 361.73 640.923C363.184 642.127 365.281 642.15 366.761 640.98L379.81 630.668C381.969 628.961 385.103 629.321 386.819 631.473C388.535 633.625 388.189 636.76 386.044 638.486L373.087 648.912C371.617 650.095 371.173 652.145 372.023 653.83C372.473 654.721 372.89 655.632 373.275 656.56C375.419 661.736 376.44 667.246 376.339 672.741C376.305 674.627 377.594 676.282 379.432 676.71L395.63 680.482C398.311 681.106 399.983 683.78 399.37 686.464C398.758 689.148 396.091 690.832 393.404 690.231L377.174 686.601C375.332 686.189 373.453 687.12 372.666 688.836C369.91 694.839 365.741 700.031 360.572 704.001C359.075 705.15 358.586 707.189 359.397 708.893L366.547 723.908C367.731 726.394 366.683 729.369 364.202 730.563C361.722 731.757 358.743 730.722 357.538 728.247L350.256 713.295C349.43 711.598 347.53 710.71 345.698 711.163C339.33 712.74 332.67 712.74 326.302 711.163C324.47 710.71 322.57 711.598 321.744 713.295L314.462 728.247C313.257 730.722 310.278 731.757 307.798 730.563C305.317 729.369 304.269 726.394 305.453 723.908L312.603 708.893C313.414 707.189 312.924 705.15 311.428 704.001C306.258 700.031 302.09 694.839 299.334 688.836C298.547 687.12 296.668 686.189 294.826 686.601L278.596 690.231C275.909 690.832 273.242 689.148 272.63 686.464C272.017 683.78 273.689 681.106 276.37 680.482L292.568 676.71C294.406 676.282 295.695 674.627 295.661 672.741C295.56 667.246 296.581 661.736 298.725 656.56C299.11 655.632 299.527 654.721 299.977 653.83C300.826 652.145 300.383 650.095 298.913 648.912L285.956 638.486C283.811 636.76 283.465 633.625 285.181 631.473C286.897 629.321 290.031 628.961 292.19 630.668L305.239 640.98C306.719 642.15 308.816 642.127 310.27 640.923C313.344 638.378 316.805 636.28 320.56 634.725C322.898 633.757 325.304 633.017 327.746 632.507C329.593 632.121 330.919 630.496 330.927 628.609L331 611.978Z" stroke="currentColor" stroke-linecap="round" stroke-linejoin="round"/>
<path fill-rule="evenodd" clip-rule="evenodd" d="M512 603C516.955 603 520.978 607.005 521 611.961L521.073 628.592C523.757 629.153 526.401 629.965 528.971 631.029C533.098 632.739 536.903 635.044 540.281 637.842L553.329 627.53C557.217 624.457 562.857 625.105 565.946 628.979C569.036 632.853 568.413 638.496 564.552 641.602L551.595 652.029C552.089 653.008 552.548 654.009 552.971 655.029C555.327 660.718 556.45 666.775 556.339 672.814L572.537 676.586C577.363 677.71 580.373 682.523 579.27 687.354C578.167 692.185 573.367 695.216 568.531 694.134L552.301 690.505C549.271 697.103 544.69 702.81 539.008 707.173L546.159 722.189C548.289 726.663 546.402 732.017 541.938 734.167C537.474 736.317 532.111 734.454 529.942 729.999L522.66 715.046C515.66 716.78 508.34 716.78 501.34 715.046L494.059 729.999C491.889 734.454 486.527 736.317 482.062 734.167C477.598 732.017 475.711 726.663 477.841 722.189L484.992 707.173C479.31 702.81 474.729 697.103 471.699 690.505L455.469 694.134C450.633 695.216 445.833 692.185 444.73 687.354C443.627 682.523 446.637 677.71 451.463 676.586L467.661 672.814C467.55 666.775 468.673 660.718 471.029 655.029C471.452 654.009 471.911 653.008 472.405 652.029L459.448 641.602C455.587 638.496 454.964 632.853 458.054 628.979C461.143 625.105 466.783 624.457 470.671 627.53L483.719 637.842C487.098 635.044 490.902 632.739 495.029 631.029C497.599 629.965 500.243 629.153 502.927 628.592L503 611.961C503.022 607.005 507.045 603 512 603ZM534.192 681.192C531.754 687.078 527.078 691.754 521.192 694.192C515.307 696.63 508.693 696.63 502.808 694.192C496.922 691.754 492.246 687.078 489.808 681.192C487.37 675.307 487.37 668.693 489.808 662.808C492.246 656.922 496.922 652.246 502.808 649.808C508.693 647.37 515.307 647.37 521.192 649.808C527.078 652.246 531.754 656.922 534.192 662.808C536.63 668.693 536.63 675.307 534.192 681.192Z" fill="currentColor"/>
<path d="M521 611.961L523 611.952V611.952L521 611.961ZM521.073 628.592L519.073 628.6C519.077 629.544 519.74 630.356 520.664 630.549L521.073 628.592ZM528.971 631.029L529.736 629.182L528.971 631.029ZM540.281 637.842L539.006 639.383C539.733 639.984 540.781 639.996 541.521 639.411L540.281 637.842ZM553.329 627.53L554.57 629.099L553.329 627.53ZM565.946 628.979L567.51 627.732L565.946 628.979ZM564.552 641.602L563.298 640.044L564.552 641.602ZM551.595 652.029L550.341 650.471C549.606 651.062 549.384 652.087 549.809 652.929L551.595 652.029ZM552.971 655.029L554.818 654.264V654.264L552.971 655.029ZM556.339 672.814L554.339 672.777C554.322 673.721 554.966 674.548 555.885 674.762L556.339 672.814ZM572.537 676.586L572.083 678.534L572.537 676.586ZM579.27 687.354L581.22 687.799L579.27 687.354ZM568.531 694.134L568.095 696.086V696.086L568.531 694.134ZM552.301 690.505L552.738 688.553C551.817 688.347 550.877 688.812 550.484 689.67L552.301 690.505ZM539.008 707.173L537.79 705.587C537.042 706.161 536.797 707.181 537.203 708.033L539.008 707.173ZM546.159 722.189L547.965 721.329L546.159 722.189ZM541.938 734.167L541.07 732.365L541.938 734.167ZM529.942 729.999L531.74 729.123H531.74L529.942 729.999ZM522.66 715.046L524.458 714.17C524.045 713.322 523.095 712.878 522.179 713.105L522.66 715.046ZM501.34 715.046L501.821 713.105C500.905 712.878 499.955 713.322 499.542 714.17L501.34 715.046ZM494.059 729.999L492.26 729.123L494.059 729.999ZM482.062 734.167L482.93 732.365H482.93L482.062 734.167ZM477.841 722.189L476.036 721.329L477.841 722.189ZM484.992 707.173L486.797 708.033C487.203 707.181 486.958 706.161 486.21 705.587L484.992 707.173ZM471.699 690.505L473.517 689.67C473.123 688.812 472.183 688.347 471.263 688.553L471.699 690.505ZM455.469 694.134L455.905 696.086H455.905L455.469 694.134ZM444.73 687.354L446.68 686.909L444.73 687.354ZM451.463 676.586L451.917 678.534H451.917L451.463 676.586ZM467.661 672.814L468.115 674.762C469.034 674.548 469.678 673.721 469.661 672.777L467.661 672.814ZM471.029 655.029L469.182 654.264L471.029 655.029ZM472.405 652.029L474.191 652.929C474.616 652.087 474.394 651.062 473.659 650.471L472.405 652.029ZM459.448 641.602L458.194 643.161L459.448 641.602ZM458.054 628.979L456.49 627.732L456.49 627.732L458.054 628.979ZM470.671 627.53L471.911 625.961L470.671 627.53ZM483.719 637.842L482.479 639.411C483.219 639.996 484.268 639.984 484.994 639.383L483.719 637.842ZM495.029 631.029L494.264 629.182H494.264L495.029 631.029ZM502.927 628.592L503.336 630.549C504.26 630.356 504.923 629.544 504.927 628.6L502.927 628.592ZM503 611.961L505 611.969V611.969L503 611.961ZM521.192 694.192L521.958 696.04L521.192 694.192ZM502.808 694.192L503.573 692.345L502.808 694.192ZM489.808 662.808L487.96 662.042L489.808 662.808ZM502.808 649.808L503.573 651.655L502.808 649.808ZM534.192 662.808L536.04 662.042H536.04L534.192 662.808ZM523 611.952C522.973 605.896 518.056 601 512 601V605C515.854 605 518.983 608.115 519 611.969L523 611.952ZM523.073 628.583L523 611.952L519 611.969L519.073 628.6L523.073 628.583ZM529.736 629.182C527.051 628.069 524.287 627.22 521.482 626.634L520.664 630.549C523.227 631.085 525.752 631.861 528.205 632.877L529.736 629.182ZM541.557 636.302C538.026 633.378 534.049 630.968 529.736 629.182L528.205 632.877C532.146 634.51 535.779 636.711 539.006 639.383L541.557 636.302ZM552.089 625.961L539.041 636.273L541.521 639.411L554.57 629.099L552.089 625.961ZM567.51 627.732C563.734 622.997 556.841 622.205 552.089 625.961L554.57 629.099C557.593 626.709 561.98 627.213 564.383 630.226L567.51 627.732ZM565.806 643.161C570.524 639.364 571.286 632.467 567.51 627.732L564.383 630.226C566.786 633.239 566.301 637.628 563.298 640.044L565.806 643.161ZM552.849 653.587L565.806 643.161L563.298 640.044L550.341 650.471L552.849 653.587ZM554.818 654.264C554.377 653.198 553.897 652.152 553.381 651.128L549.809 652.929C550.281 653.865 550.719 654.82 551.123 655.795L554.818 654.264ZM558.338 672.851C558.454 666.539 557.281 660.209 554.818 654.264L551.123 655.795C553.373 661.227 554.445 667.01 554.339 672.777L558.338 672.851ZM572.99 674.638L556.792 670.866L555.885 674.762L572.083 678.534L572.99 674.638ZM581.22 687.799C582.568 681.895 578.889 676.011 572.99 674.638L572.083 678.534C575.837 679.408 578.178 683.152 577.32 686.909L581.22 687.799ZM568.095 696.086C574.005 697.408 579.872 693.703 581.22 687.799L577.32 686.909C576.463 690.666 572.729 693.024 568.968 692.183L568.095 696.086ZM551.865 692.456L568.095 696.086L568.968 692.183L552.738 688.553L551.865 692.456ZM540.227 708.759C546.164 704.2 550.952 698.236 554.119 691.339L550.484 689.67C547.591 695.971 543.216 701.42 537.79 705.587L540.227 708.759ZM547.965 721.329L540.814 706.313L537.203 708.033L544.353 723.049L547.965 721.329ZM542.806 735.969C548.262 733.341 550.568 726.797 547.965 721.329L544.353 723.049C546.01 726.528 544.543 730.693 541.07 732.365L542.806 735.969ZM528.143 730.874C530.795 736.319 537.349 738.597 542.806 735.969L541.07 732.365C537.598 734.037 533.427 732.588 531.74 729.123L528.143 730.874ZM520.862 715.922L528.143 730.874L531.74 729.123L524.458 714.17L520.862 715.922ZM500.859 716.987C508.175 718.799 515.825 718.799 523.141 716.987L522.179 713.105C515.495 714.76 508.505 714.76 501.821 713.105L500.859 716.987ZM495.857 730.874L503.138 715.922L499.542 714.17L492.26 729.123L495.857 730.874ZM481.194 735.969C486.651 738.597 493.205 736.319 495.857 730.874L492.26 729.123C490.573 732.588 486.402 734.037 482.93 732.365L481.194 735.969ZM476.036 721.329C473.432 726.797 475.738 733.341 481.194 735.969L482.93 732.365C479.457 730.693 477.99 726.528 479.647 723.049L476.036 721.329ZM483.186 706.313L476.036 721.329L479.647 723.049L486.797 708.033L483.186 706.313ZM469.881 691.339C473.048 698.236 477.836 704.2 483.774 708.759L486.21 705.587C480.784 701.421 476.41 695.971 473.517 689.67L469.881 691.339ZM455.905 696.086L472.136 692.456L471.263 688.553L455.032 692.183L455.905 696.086ZM442.78 687.799C444.128 693.703 449.995 697.408 455.905 696.086L455.032 692.183C451.271 693.024 447.537 690.666 446.68 686.909L442.78 687.799ZM451.01 674.638C445.111 676.011 441.433 681.895 442.78 687.799L446.68 686.909C445.822 683.152 448.163 679.408 451.917 678.534L451.01 674.638ZM467.208 670.866L451.01 674.638L451.917 678.534L468.115 674.762L467.208 670.866ZM469.182 654.264C466.719 660.209 465.546 666.539 465.662 672.851L469.661 672.777C469.555 667.01 470.627 661.227 472.877 655.795L469.182 654.264ZM470.62 651.128C470.103 652.152 469.623 653.198 469.182 654.264L472.877 655.795C473.281 654.82 473.719 653.865 474.191 652.929L470.62 651.128ZM458.194 643.161L471.152 653.587L473.659 650.471L460.702 640.044L458.194 643.161ZM456.49 627.732C452.714 632.467 453.476 639.364 458.194 643.161L460.702 640.044C457.699 637.628 457.214 633.239 459.617 630.226L456.49 627.732ZM471.911 625.961C467.159 622.205 460.266 622.997 456.49 627.732L459.617 630.226C462.02 627.213 466.407 626.709 469.431 629.099L471.911 625.961ZM484.959 636.273L471.911 625.961L469.431 629.099L482.479 639.411L484.959 636.273ZM494.264 629.182C489.951 630.968 485.974 633.378 482.443 636.302L484.994 639.383C488.221 636.711 491.854 634.51 495.795 632.877L494.264 629.182ZM502.518 626.634C499.713 627.22 496.949 628.069 494.264 629.182L495.795 632.877C498.248 631.861 500.774 631.085 503.336 630.549L502.518 626.634ZM501 611.952L500.927 628.583L504.927 628.6L505 611.969L501 611.952ZM512 601C505.944 601 501.027 605.896 501 611.952L505 611.969C505.017 608.115 508.146 605 512 605V601ZM521.958 696.04C528.334 693.399 533.399 688.334 536.04 681.958L532.345 680.427C530.11 685.823 525.823 690.11 520.427 692.345L521.958 696.04ZM502.042 696.04C508.418 698.681 515.582 698.681 521.958 696.04L520.427 692.345C515.031 694.58 508.969 694.58 503.573 692.345L502.042 696.04ZM487.96 681.958C490.601 688.334 495.666 693.399 502.042 696.04L503.573 692.345C498.177 690.11 493.89 685.823 491.655 680.427L487.96 681.958ZM487.96 662.042C485.319 668.418 485.319 675.582 487.96 681.958L491.655 680.427C489.42 675.031 489.42 668.969 491.655 663.573L487.96 662.042ZM502.042 647.96C495.666 650.601 490.601 655.666 487.96 662.042L491.655 663.573C493.89 658.177 498.177 653.89 503.573 651.655L502.042 647.96ZM521.958 647.96C515.582 645.319 508.418 645.319 502.042 647.96L503.573 651.655C508.969 649.42 515.031 649.42 520.427 651.655L521.958 647.96ZM536.04 662.042C533.399 655.666 528.334 650.601 521.958 647.96L520.427 651.655C525.823 653.89 530.11 658.177 532.345 663.573L536.04 662.042ZM536.04 681.958C538.681 675.582 538.681 668.418 536.04 662.042L532.345 663.573C534.58 668.969 534.58 675.031 532.345 680.427L536.04 681.958Z" fill="currentColor"/>
<g opacity="0.25">
<path fill-rule="evenodd" clip-rule="evenodd" d="M697 611.961C696.978 607.005 692.955 603 688 603C683.045 603 679.022 607.005 679 611.961L678.927 628.592C676.243 629.153 673.599 629.965 671.029 631.029C666.902 632.739 663.098 635.044 659.719 637.842L646.671 627.53C642.783 624.457 637.143 625.105 634.054 628.979C630.964 632.853 631.587 638.496 635.448 641.602L648.405 652.029C647.911 653.008 647.452 654.009 647.029 655.029C644.673 660.718 643.55 666.775 643.661 672.814L627.463 676.586C622.637 677.71 619.627 682.523 620.73 687.354C621.833 692.185 626.633 695.216 631.469 694.134L647.699 690.505C650.729 697.103 655.31 702.81 660.992 707.173L653.841 722.189C651.711 726.663 653.598 732.017 658.062 734.167C662.527 736.317 667.889 734.454 670.059 729.999L677.34 715.046C684.34 716.78 691.66 716.78 698.66 715.046L705.942 729.999C708.111 734.454 713.474 736.317 717.938 734.167C722.402 732.017 724.289 726.663 722.159 722.189L715.008 707.173C720.69 702.81 725.271 697.103 728.301 690.505L744.531 694.134C749.367 695.216 754.167 692.185 755.27 687.354C756.373 682.523 753.363 677.71 748.537 676.586L732.339 672.814C732.45 666.775 731.327 660.718 728.971 655.029C728.548 654.009 728.089 653.008 727.595 652.029L740.552 641.602C744.413 638.496 745.036 632.853 741.946 628.979C738.857 625.105 733.217 624.457 729.329 627.53L716.281 637.842C712.903 635.044 709.098 632.739 704.971 631.029C702.401 629.965 699.757 629.153 697.073 628.592L697 611.961Z" fill="currentColor"/>
<path d="M697 611.961L699 611.952V611.952L697 611.961ZM679 611.961L681 611.969V611.969L679 611.961ZM678.927 628.592L679.336 630.549C680.26 630.356 680.923 629.544 680.927 628.6L678.927 628.592ZM671.029 631.029L670.264 629.182L671.029 631.029ZM659.719 637.842L658.479 639.411C659.219 639.996 660.268 639.984 660.994 639.383L659.719 637.842ZM646.671 627.53L647.911 625.961L646.671 627.53ZM634.054 628.979L632.49 627.732L632.49 627.732L634.054 628.979ZM635.448 641.602L634.194 643.161L635.448 641.602ZM648.405 652.029L650.191 652.929C650.616 652.087 650.394 651.062 649.659 650.471L648.405 652.029ZM647.029 655.029L645.182 654.264L647.029 655.029ZM643.661 672.814L644.115 674.762C645.034 674.548 645.678 673.721 645.661 672.777L643.661 672.814ZM627.463 676.586L627.917 678.534H627.917L627.463 676.586ZM620.73 687.354L622.68 686.909L620.73 687.354ZM631.469 694.134L631.905 696.086H631.905L631.469 694.134ZM647.699 690.505L649.517 689.67C649.123 688.812 648.183 688.347 647.263 688.553L647.699 690.505ZM660.992 707.173L662.797 708.033C663.203 707.181 662.958 706.161 662.21 705.587L660.992 707.173ZM653.841 722.189L652.036 721.329L653.841 722.189ZM658.062 734.167L658.93 732.365H658.93L658.062 734.167ZM670.059 729.999L668.26 729.123L670.059 729.999ZM677.34 715.046L677.821 713.105C676.905 712.878 675.955 713.322 675.542 714.17L677.34 715.046ZM698.66 715.046L700.458 714.17C700.045 713.322 699.095 712.878 698.179 713.105L698.66 715.046ZM705.942 729.999L707.74 729.123H707.74L705.942 729.999ZM717.938 734.167L717.07 732.365L717.938 734.167ZM722.159 722.189L723.965 721.329L722.159 722.189ZM715.008 707.173L713.79 705.587C713.042 706.161 712.797 707.181 713.203 708.033L715.008 707.173ZM728.301 690.505L728.738 688.553C727.817 688.347 726.877 688.812 726.484 689.67L728.301 690.505ZM744.531 694.134L744.095 696.086V696.086L744.531 694.134ZM755.27 687.354L757.22 687.799L755.27 687.354ZM748.537 676.586L748.083 678.534L748.537 676.586ZM732.339 672.814L730.339 672.777C730.322 673.721 730.966 674.548 731.885 674.762L732.339 672.814ZM728.971 655.029L730.818 654.264L730.818 654.264L728.971 655.029ZM727.595 652.029L726.341 650.471C725.606 651.062 725.384 652.087 725.809 652.929L727.595 652.029ZM740.552 641.602L739.298 640.044L740.552 641.602ZM741.946 628.979L743.51 627.732L741.946 628.979ZM729.329 627.53L730.57 629.099L729.329 627.53ZM716.281 637.842L715.006 639.383C715.733 639.984 716.781 639.996 717.521 639.411L716.281 637.842ZM704.971 631.029L705.736 629.182L704.971 631.029ZM697.073 628.592L695.073 628.6C695.077 629.544 695.74 630.356 696.664 630.549L697.073 628.592ZM688 605C691.854 605 694.983 608.115 695 611.969L699 611.952C698.973 605.896 694.056 601 688 601V605ZM681 611.969C681.017 608.115 684.146 605 688 605V601C681.944 601 677.027 605.896 677 611.952L681 611.969ZM680.927 628.6L681 611.969L677 611.952L676.927 628.583L680.927 628.6ZM671.795 632.877C674.248 631.861 676.774 631.085 679.336 630.549L678.518 626.634C675.713 627.22 672.949 628.069 670.264 629.182L671.795 632.877ZM660.994 639.383C664.221 636.711 667.854 634.51 671.795 632.877L670.264 629.182C665.951 630.968 661.974 633.378 658.443 636.302L660.994 639.383ZM645.431 629.099L658.479 639.411L660.959 636.273L647.911 625.961L645.431 629.099ZM635.617 630.226C638.02 627.213 642.407 626.709 645.431 629.099L647.911 625.961C643.159 622.205 636.266 622.997 632.49 627.732L635.617 630.226ZM636.702 640.044C633.699 637.628 633.214 633.239 635.617 630.226L632.49 627.732C628.714 632.467 629.476 639.364 634.194 643.161L636.702 640.044ZM649.659 650.471L636.702 640.044L634.194 643.161L647.152 653.587L649.659 650.471ZM648.877 655.795C649.281 654.82 649.719 653.865 650.191 652.929L646.62 651.128C646.103 652.152 645.623 653.198 645.182 654.264L648.877 655.795ZM645.661 672.777C645.555 667.01 646.627 661.227 648.877 655.795L645.182 654.264C642.719 660.209 641.546 666.539 641.662 672.851L645.661 672.777ZM627.917 678.534L644.115 674.762L643.208 670.866L627.01 674.638L627.917 678.534ZM622.68 686.909C621.822 683.152 624.163 679.408 627.917 678.534L627.01 674.638C621.111 676.011 617.433 681.895 618.78 687.799L622.68 686.909ZM631.032 692.183C627.271 693.024 623.537 690.666 622.68 686.909L618.78 687.799C620.128 693.703 625.995 697.408 631.905 696.086L631.032 692.183ZM647.263 688.553L631.032 692.183L631.905 696.086L648.136 692.456L647.263 688.553ZM662.21 705.587C656.784 701.421 652.41 695.971 649.517 689.67L645.881 691.339C649.048 698.236 653.836 704.2 659.774 708.759L662.21 705.587ZM655.647 723.049L662.797 708.033L659.186 706.313L652.036 721.329L655.647 723.049ZM658.93 732.365C655.457 730.693 653.99 726.528 655.647 723.049L652.036 721.329C649.432 726.797 651.738 733.341 657.194 735.969L658.93 732.365ZM668.26 729.123C666.573 732.588 662.402 734.037 658.93 732.365L657.194 735.969C662.651 738.597 669.205 736.319 671.857 730.874L668.26 729.123ZM675.542 714.17L668.26 729.123L671.857 730.874L679.138 715.922L675.542 714.17ZM698.179 713.105C691.495 714.76 684.505 714.76 677.821 713.105L676.859 716.987C684.175 718.799 691.825 718.799 699.141 716.987L698.179 713.105ZM707.74 729.123L700.458 714.17L696.862 715.922L704.143 730.874L707.74 729.123ZM717.07 732.365C713.598 734.037 709.427 732.588 707.74 729.123L704.143 730.874C706.795 736.319 713.349 738.597 718.806 735.969L717.07 732.365ZM720.353 723.049C722.01 726.528 720.543 730.693 717.07 732.365L718.806 735.969C724.262 733.341 726.568 726.797 723.965 721.329L720.353 723.049ZM713.203 708.033L720.353 723.049L723.965 721.329L716.814 706.313L713.203 708.033ZM726.484 689.67C723.591 695.971 719.216 701.42 713.79 705.587L716.227 708.759C722.164 704.2 726.952 698.236 730.119 691.339L726.484 689.67ZM744.968 692.183L728.738 688.553L727.865 692.456L744.095 696.086L744.968 692.183ZM753.32 686.909C752.463 690.666 748.729 693.024 744.968 692.183L744.095 696.086C750.005 697.408 755.872 693.703 757.22 687.799L753.32 686.909ZM748.083 678.534C751.837 679.408 754.178 683.152 753.32 686.909L757.22 687.799C758.568 681.895 754.889 676.011 748.99 674.638L748.083 678.534ZM731.885 674.762L748.083 678.534L748.99 674.638L732.792 670.866L731.885 674.762ZM727.123 655.795C729.373 661.227 730.445 667.01 730.339 672.777L734.338 672.851C734.454 666.539 733.281 660.209 730.818 654.264L727.123 655.795ZM725.809 652.929C726.281 653.865 726.719 654.82 727.123 655.795L730.818 654.264C730.377 653.198 729.897 652.152 729.381 651.128L725.809 652.929ZM739.298 640.044L726.341 650.471L728.849 653.587L741.806 643.161L739.298 640.044ZM740.383 630.226C742.786 633.239 742.301 637.628 739.298 640.044L741.806 643.161C746.524 639.364 747.286 632.467 743.51 627.732L740.383 630.226ZM730.57 629.099C733.593 626.709 737.98 627.213 740.383 630.226L743.51 627.732C739.734 622.997 732.841 622.205 728.089 625.961L730.57 629.099ZM717.521 639.411L730.57 629.099L728.089 625.961L715.041 636.273L717.521 639.411ZM704.205 632.877C708.146 634.51 711.779 636.711 715.006 639.383L717.557 636.302C714.026 633.378 710.049 630.968 705.736 629.182L704.205 632.877ZM696.664 630.549C699.227 631.085 701.752 631.861 704.205 632.877L705.736 629.182C703.051 628.069 700.287 627.22 697.482 626.634L696.664 630.549ZM695 611.969L695.073 628.6L699.073 628.583L699 611.952L695 611.969Z" fill="currentColor"/>
</g>
<path d="M678.808 694.192C684.693 696.63 691.307 696.63 697.192 694.192C703.078 691.754 707.754 687.078 710.192 681.192C712.63 675.307 712.63 668.693 710.192 662.808C707.754 656.922 703.078 652.246 697.192 649.808C691.307 647.37 684.693 647.37 678.808 649.808C672.922 652.246 668.246 656.922 665.808 662.808C663.37 668.693 663.37 675.307 665.808 681.192C668.246 687.078 672.922 691.754 678.808 694.192Z" fill="currentColor" stroke="currentColor" stroke-width="4" stroke-linecap="round" stroke-linejoin="round"/>
<path fill-rule="evenodd" clip-rule="evenodd" d="M873.498 614.961C873.476 610.005 869.453 606 864.498 606C859.542 606 855.519 610.005 855.498 614.961L855.425 631.592C852.741 632.153 850.096 632.965 847.527 634.029C843.4 635.739 839.595 638.044 836.216 640.842L823.168 630.53C819.281 627.457 813.641 628.105 810.551 631.979C807.462 635.853 808.085 641.496 811.946 644.602L824.903 655.029C824.409 656.008 823.95 657.009 823.527 658.029C821.171 663.718 820.048 669.775 820.159 675.814L803.961 679.586C799.135 680.71 796.125 685.523 797.228 690.354C798.33 695.185 803.13 698.216 807.966 697.134L824.197 693.505C827.226 700.103 831.808 705.81 837.489 710.173L830.339 725.189C828.208 729.663 830.095 735.017 834.56 737.167C839.024 739.317 844.387 737.454 846.556 732.999L853.838 718.046C860.837 719.78 868.158 719.78 875.158 718.046L882.439 732.999C884.609 737.454 889.971 739.317 894.436 737.167C898.9 735.017 900.787 729.663 898.656 725.189L891.506 710.173C897.188 705.81 901.769 700.103 904.799 693.505L921.029 697.134C925.865 698.216 930.665 695.185 931.768 690.354C932.87 685.523 929.86 680.71 925.034 679.586L908.836 675.814C908.947 669.775 907.824 663.718 905.468 658.029C905.045 657.009 904.586 656.008 904.092 655.029L917.05 644.602C920.91 641.496 921.534 635.853 918.444 631.979C915.354 628.105 909.715 627.457 905.827 630.53L892.779 640.842C889.4 638.044 885.595 635.739 881.468 634.029C878.899 632.965 876.254 632.153 873.57 631.592L873.498 614.961Z" fill="#FFA500"/>
<path d="M873.498 614.961L875.498 614.952V614.952L873.498 614.961ZM855.498 614.961L857.498 614.969V614.969L855.498 614.961ZM855.425 631.592L855.834 633.549C856.758 633.356 857.421 632.544 857.425 631.6L855.425 631.592ZM847.527 634.029L846.762 632.182L847.527 634.029ZM836.216 640.842L834.976 642.411C835.717 642.996 836.765 642.984 837.492 642.383L836.216 640.842ZM823.168 630.53L821.928 632.099L823.168 630.53ZM810.551 631.979L808.988 630.732V630.732L810.551 631.979ZM811.946 644.602L810.692 646.161L811.946 644.602ZM824.903 655.029L826.689 655.929C827.114 655.087 826.892 654.062 826.157 653.471L824.903 655.029ZM823.527 658.029L821.679 657.264L823.527 658.029ZM820.159 675.814L820.612 677.762C821.531 677.548 822.176 676.721 822.159 675.777L820.159 675.814ZM803.961 679.586L804.414 681.534H804.414L803.961 679.586ZM797.228 690.354L799.177 689.909L797.228 690.354ZM807.966 697.134L808.403 699.086H808.403L807.966 697.134ZM824.197 693.505L826.014 692.67C825.62 691.812 824.681 691.347 823.76 691.553L824.197 693.505ZM837.489 710.173L839.295 711.033C839.701 710.181 839.456 709.161 838.707 708.587L837.489 710.173ZM830.339 725.189L828.533 724.329L830.339 725.189ZM834.56 737.167L835.427 735.365L834.56 737.167ZM846.556 732.999L848.354 733.874H848.354L846.556 732.999ZM853.838 718.046L854.318 716.105C853.403 715.878 852.453 716.322 852.04 717.17L853.838 718.046ZM875.158 718.046L876.956 717.17C876.543 716.322 875.593 715.878 874.677 716.105L875.158 718.046ZM882.439 732.999L884.237 732.123L882.439 732.999ZM898.656 725.189L900.462 724.329L898.656 725.189ZM891.506 710.173L890.288 708.587C889.54 709.161 889.295 710.181 889.7 711.033L891.506 710.173ZM904.799 693.505L905.235 691.553C904.314 691.347 903.375 691.812 902.981 692.67L904.799 693.505ZM921.029 697.134L920.593 699.086V699.086L921.029 697.134ZM931.768 690.354L933.718 690.799L931.768 690.354ZM925.034 679.586L924.581 681.534L925.034 679.586ZM908.836 675.814L906.837 675.777C906.819 676.721 907.464 677.548 908.383 677.762L908.836 675.814ZM905.468 658.029L907.316 657.264L907.316 657.264L905.468 658.029ZM904.092 655.029L902.839 653.471C902.103 654.062 901.882 655.087 902.307 655.929L904.092 655.029ZM917.05 644.602L915.796 643.044L917.05 644.602ZM905.827 630.53L907.067 632.099L905.827 630.53ZM892.779 640.842L891.503 642.383C892.23 642.984 893.279 642.996 894.019 642.411L892.779 640.842ZM881.468 634.029L882.234 632.182L881.468 634.029ZM873.57 631.592L871.57 631.6C871.575 632.544 872.238 633.356 873.161 633.549L873.57 631.592ZM864.498 608C868.352 608 871.481 611.115 871.498 614.969L875.498 614.952C875.471 608.896 870.554 604 864.498 604V608ZM857.498 614.969C857.515 611.115 860.644 608 864.498 608V604C858.441 604 853.524 608.896 853.498 614.952L857.498 614.969ZM857.425 631.6L857.498 614.969L853.498 614.952L853.425 631.583L857.425 631.6ZM848.292 635.877C850.746 634.861 853.271 634.085 855.834 633.549L855.016 629.634C852.211 630.22 849.447 631.069 846.762 632.182L848.292 635.877ZM837.492 642.383C840.718 639.711 844.351 637.51 848.292 635.877L846.762 632.182C842.449 633.968 838.472 636.378 834.941 639.302L837.492 642.383ZM821.928 632.099L834.976 642.411L837.457 639.273L824.408 628.961L821.928 632.099ZM812.115 633.226C814.518 630.213 818.904 629.709 821.928 632.099L824.408 628.961C819.657 625.205 812.764 625.997 808.988 630.732L812.115 633.226ZM813.199 643.044C810.197 640.628 809.712 636.239 812.115 633.226L808.988 630.732C805.212 635.467 805.973 642.364 810.692 646.161L813.199 643.044ZM826.157 653.471L813.199 643.044L810.692 646.161L823.649 656.587L826.157 653.471ZM825.375 658.795C825.778 657.82 826.217 656.865 826.689 655.929L823.117 654.128C822.601 655.152 822.121 656.198 821.679 657.264L825.375 658.795ZM822.159 675.777C822.053 670.01 823.125 664.227 825.375 658.795L821.679 657.264C819.217 663.209 818.043 669.539 818.159 675.851L822.159 675.777ZM804.414 681.534L820.612 677.762L819.705 673.866L803.507 677.638L804.414 681.534ZM799.177 689.909C798.32 686.152 800.661 682.408 804.414 681.534L803.507 677.638C797.609 679.011 793.93 684.895 795.278 690.799L799.177 689.909ZM807.53 695.183C803.769 696.024 800.035 693.666 799.177 689.909L795.278 690.799C796.625 696.703 802.492 700.408 808.403 699.086L807.53 695.183ZM823.76 691.553L807.53 695.183L808.403 699.086L824.633 695.456L823.76 691.553ZM838.707 708.587C833.282 704.421 828.907 698.971 826.014 692.67L822.379 694.339C825.545 701.236 830.333 707.2 836.271 711.759L838.707 708.587ZM832.145 726.049L839.295 711.033L835.683 709.313L828.533 724.329L832.145 726.049ZM835.427 735.365C831.955 733.693 830.488 729.528 832.145 726.049L828.533 724.329C825.929 729.797 828.235 736.341 833.692 738.969L835.427 735.365ZM844.758 732.123C843.071 735.588 838.9 737.037 835.427 735.365L833.692 738.969C839.148 741.597 845.703 739.319 848.354 733.874L844.758 732.123ZM852.04 717.17L844.758 732.123L848.354 733.874L855.636 718.922L852.04 717.17ZM874.677 716.105C867.993 717.76 861.002 717.76 854.318 716.105L853.357 719.987C860.672 721.799 868.323 721.799 875.638 719.987L874.677 716.105ZM884.237 732.123L876.956 717.17L873.359 718.922L880.641 733.874L884.237 732.123ZM893.568 735.365C890.095 737.037 885.925 735.588 884.237 732.123L880.641 733.874C883.293 739.319 889.847 741.597 895.303 738.969L893.568 735.365ZM896.851 726.049C898.508 729.528 897.04 733.693 893.568 735.365L895.303 738.969C900.76 736.341 903.066 729.797 900.462 724.329L896.851 726.049ZM889.7 711.033L896.851 726.049L900.462 724.329L893.312 709.313L889.7 711.033ZM902.981 692.67C900.088 698.971 895.713 704.42 890.288 708.587L892.724 711.759C898.662 707.2 903.45 701.236 906.616 694.339L902.981 692.67ZM921.466 695.183L905.235 691.553L904.362 695.456L920.593 699.086L921.466 695.183ZM929.818 689.909C928.96 693.666 925.227 696.024 921.466 695.183L920.593 699.086C926.503 700.408 932.37 696.703 933.718 690.799L929.818 689.909ZM924.581 681.534C928.334 682.408 930.675 686.152 929.818 689.909L933.718 690.799C935.065 684.895 931.386 679.011 925.488 677.638L924.581 681.534ZM908.383 677.762L924.581 681.534L925.488 677.638L909.29 673.866L908.383 677.762ZM903.62 658.795C905.87 664.227 906.943 670.01 906.837 675.777L910.836 675.851C910.952 669.539 909.778 663.209 907.316 657.264L903.62 658.795ZM902.307 655.929C902.778 656.865 903.217 657.82 903.62 658.795L907.316 657.264C906.874 656.198 906.394 655.152 905.878 654.128L902.307 655.929ZM915.796 643.044L902.839 653.471L905.346 656.587L918.303 646.161L915.796 643.044ZM916.88 633.226C919.283 636.239 918.799 640.628 915.796 643.044L918.303 646.161C923.022 642.364 923.784 635.467 920.008 630.732L916.88 633.226ZM907.067 632.099C910.091 629.709 914.477 630.213 916.88 633.226L920.008 630.732C916.232 625.997 909.338 625.205 904.587 628.961L907.067 632.099ZM894.019 642.411L907.067 632.099L904.587 628.961L891.539 639.273L894.019 642.411ZM880.703 635.877C884.644 637.51 888.277 639.711 891.503 642.383L894.054 639.302C890.523 636.378 886.547 633.968 882.234 632.182L880.703 635.877ZM873.161 633.549C875.724 634.085 878.249 634.861 880.703 635.877L882.234 632.182C879.548 631.069 876.785 630.22 873.98 629.634L873.161 633.549ZM871.498 614.969L871.57 631.6L875.57 631.583L875.498 614.952L871.498 614.969Z" fill="#FFA500"/>
<path d="M854.808 694.192C860.693 696.63 867.307 696.63 873.192 694.192C879.078 691.754 883.754 687.078 886.192 681.192C888.63 675.307 888.63 668.693 886.192 662.808C883.754 656.922 879.078 652.246 873.192 649.808C867.307 647.37 860.693 647.37 854.808 649.808C848.922 652.246 844.246 656.922 841.808 662.808C839.37 668.693 839.37 675.307 841.808 681.192C844.246 687.078 848.922 691.754 854.808 694.192Z" fill="#FFD700" stroke="#FFD700" stroke-width="4" stroke-linecap="round" stroke-linejoin="round"/>
<g opacity="0.25">
<path d="M512 238.839L512.63 382.692L625.492 293.494L513.415 383.677L653.522 416.302L513.135 384.905L574.983 514.786L512 385.452L449.017 514.786L510.865 384.905L370.478 416.302L510.585 383.677L398.508 293.494L511.37 382.692L512 238.839Z" stroke="currentColor" stroke-width="2.41935" stroke-linecap="round" stroke-linejoin="round"/>
<path d="M553.058 483.122C526.769 494.011 497.231 494.011 470.942 483.122V483.122C444.653 472.233 423.767 451.347 412.878 425.058V425.058C401.988 398.769 401.988 369.231 412.878 342.942V342.942C423.767 316.653 444.653 295.767 470.942 284.878V284.878C497.231 273.988 526.769 273.988 553.058 284.878V284.878C579.347 295.767 600.233 316.653 611.122 342.942V342.942C622.012 369.231 622.012 398.769 611.122 425.058V425.058C600.233 451.347 579.347 472.233 553.058 483.122V483.122Z" stroke="currentColor" stroke-width="2.41935" stroke-linecap="round" stroke-linejoin="round"/>
<path d="M489.76 437.691C504 443.59 520 443.59 534.24 437.691V437.691C548.479 431.793 559.793 420.48 565.691 406.24V406.24C571.59 392 571.59 376 565.691 361.76V361.76C559.793 347.521 548.479 336.207 534.24 330.309V330.309C520 324.411 504 324.411 489.76 330.309V330.309C475.521 336.207 464.207 347.521 458.309 361.76V361.76C452.41 376 452.41 392 458.309 406.24V406.24C464.207 420.48 475.521 431.793 489.76 437.691V437.691Z" stroke="currentColor" stroke-width="2.41935" stroke-linecap="round" stroke-linejoin="round"/>
</g>
</svg>
