<svg viewBox="0 0 1024 768" fill="none" xmlns="http://www.w3.org/2000/svg">
<path d="M424 36L435.94 67.175L466.426 53.5736L452.825 84.0603L484 96L452.825 107.94L466.426 138.426L435.94 124.825L424 156L412.06 124.825L381.574 138.426L395.175 107.94L364 96L395.175 84.0603L381.574 53.5736L412.06 67.175L424 36Z" stroke="#7B61FF" stroke-width="2" stroke-linecap="round" stroke-linejoin="round"/>
<path d="M578.787 147.213C592.369 152.839 607.631 152.839 621.213 147.213V147.213C634.796 141.587 645.587 130.796 651.213 117.213V117.213C656.839 103.631 656.839 88.3694 651.213 74.7868V74.7868C645.587 61.2042 634.796 50.4129 621.213 44.7868V44.7868C607.631 39.1607 592.369 39.1607 578.787 44.7868V44.7868C565.204 50.4129 554.413 61.2042 548.787 74.7868V74.7868C543.161 88.3694 543.161 103.631 548.787 117.213V117.213C554.413 130.796 565.204 141.587 578.787 147.213V147.213Z" stroke="#7B61FF" stroke-width="2" stroke-linecap="round" stroke-linejoin="round"/>
<path fill-rule="evenodd" clip-rule="evenodd" d="M531.229 284.209L512 234L492.771 284.209C505.472 281.761 518.528 281.761 531.229 284.209ZM568.966 299.84C579.677 307.09 588.91 316.323 596.16 327.034L618.066 277.934L568.966 299.84ZM611.791 364.771C614.239 377.472 614.239 390.528 611.791 403.229L662 384L611.791 364.771ZM596.16 440.966C588.91 451.677 579.677 460.91 568.966 468.16L618.066 490.066L596.16 440.966ZM531.229 483.791C518.528 486.239 505.472 486.239 492.771 483.791L512 534L531.229 483.791ZM455.034 468.16C444.323 460.91 435.09 451.677 427.84 440.966L405.934 490.066L455.034 468.16ZM412.209 403.229C409.761 390.528 409.761 377.472 412.209 364.771L362 384L412.209 403.229ZM427.84 327.034C435.09 316.323 444.323 307.09 455.034 299.84L405.934 277.934L427.84 327.034Z" fill="#888888" fill-opacity="0.5"/>
<path d="M512 234L516.669 232.212C515.928 230.277 514.071 229 512 229C509.929 229 508.072 230.277 507.331 232.212L512 234ZM531.229 284.209L530.283 289.118C532.066 289.462 533.895 288.812 535.061 287.421C536.227 286.03 536.548 284.116 535.899 282.42L531.229 284.209ZM492.771 284.209L488.101 282.42C487.452 284.116 487.773 286.03 488.939 287.421C490.105 288.812 491.934 289.462 493.717 289.118L492.771 284.209ZM568.966 299.84L566.929 295.273C565.271 296.013 564.144 297.593 563.985 299.402C563.826 301.21 564.66 302.963 566.163 303.98L568.966 299.84ZM596.16 327.034L592.02 329.837C593.037 331.34 594.79 332.174 596.598 332.015C598.407 331.856 599.987 330.729 600.727 329.071L596.16 327.034ZM618.066 277.934L622.632 279.971C623.476 278.079 623.066 275.863 621.602 274.398C620.137 272.934 617.921 272.524 616.029 273.368L618.066 277.934ZM611.791 364.771L613.58 360.101C611.884 359.452 609.97 359.773 608.579 360.939C607.188 362.105 606.538 363.934 606.882 365.717L611.791 364.771ZM611.791 403.229L606.882 402.283C606.538 404.066 607.188 405.895 608.579 407.061C609.97 408.227 611.884 408.548 613.58 407.899L611.791 403.229ZM662 384L663.788 388.669C665.723 387.928 667 386.071 667 384C667 381.929 665.723 380.072 663.788 379.331L662 384ZM596.16 440.966L600.727 438.929C599.987 437.271 598.407 436.144 596.598 435.985C594.79 435.826 593.037 436.66 592.02 438.163L596.16 440.966ZM568.966 468.16L566.163 464.02C564.66 465.037 563.826 466.79 563.985 468.598C564.144 470.407 565.271 471.987 566.929 472.727L568.966 468.16ZM618.066 490.066L616.029 494.632C617.921 495.476 620.137 495.066 621.602 493.602C623.066 492.137 623.476 489.921 622.632 488.029L618.066 490.066ZM531.229 483.791L535.899 485.58C536.548 483.884 536.227 481.97 535.061 480.579C533.895 479.188 532.066 478.538 530.283 478.882L531.229 483.791ZM492.771 483.791L493.717 478.882C491.934 478.538 490.105 479.188 488.939 480.579C487.773 481.97 487.452 483.884 488.101 485.58L492.771 483.791ZM512 534L507.331 535.788C508.072 537.723 509.929 539 512 539C514.071 539 515.928 537.723 516.669 535.788L512 534ZM455.034 468.16L457.071 472.727C458.729 471.987 459.856 470.407 460.015 468.598C460.174 466.79 459.34 465.037 457.837 464.02L455.034 468.16ZM427.84 440.966L431.98 438.163C430.963 436.66 429.21 435.826 427.402 435.985C425.593 436.144 424.013 437.271 423.273 438.929L427.84 440.966ZM405.934 490.066L401.368 488.029C400.524 489.921 400.934 492.137 402.398 493.602C403.863 495.066 406.079 495.476 407.971 494.632L405.934 490.066ZM412.209 403.229L410.42 407.899C412.116 408.548 414.03 408.227 415.421 407.061C416.812 405.895 417.462 404.066 417.118 402.283L412.209 403.229ZM412.209 364.771L417.118 365.717C417.462 363.934 416.812 362.105 415.421 360.939C414.03 359.773 412.116 359.452 410.42 360.101L412.209 364.771ZM362 384L360.212 379.331C358.277 380.072 357 381.929 357 384C357 386.071 358.277 387.928 360.212 388.669L362 384ZM427.84 327.034L423.273 329.071C424.013 330.729 425.593 331.856 427.402 332.015C429.21 332.174 430.963 331.34 431.98 329.837L427.84 327.034ZM455.034 299.84L457.837 303.98C459.34 302.963 460.174 301.21 460.015 299.402C459.856 297.593 458.729 296.013 457.071 295.273L455.034 299.84ZM405.934 277.934L407.971 273.368C406.079 272.524 403.863 272.934 402.398 274.398C400.934 275.863 400.524 278.079 401.368 279.971L405.934 277.934ZM507.331 235.788L526.56 285.997L535.899 282.42L516.669 232.212L507.331 235.788ZM497.44 285.997L516.669 235.788L507.331 232.212L488.101 282.42L497.44 285.997ZM493.717 289.118C505.793 286.792 518.207 286.792 530.283 289.118L532.175 279.299C518.849 276.731 505.151 276.731 491.825 279.299L493.717 289.118ZM566.163 303.98C576.348 310.874 585.126 319.652 592.02 329.837L600.301 324.231C592.694 312.993 583.007 303.306 571.769 295.699L566.163 303.98ZM613.5 275.897L591.594 324.997L600.727 329.071L622.632 279.971L613.5 275.897ZM571.003 304.406L620.103 282.5L616.029 273.368L566.929 295.273L571.003 304.406ZM606.882 365.717C609.208 377.793 609.208 390.207 606.882 402.283L616.701 404.175C619.269 390.849 619.269 377.151 616.701 363.825L606.882 365.717ZM660.212 379.331L610.003 398.56L613.58 407.899L663.788 388.669L660.212 379.331ZM610.003 369.44L660.212 388.669L663.788 379.331L613.58 360.101L610.003 369.44ZM592.02 438.163C585.126 448.348 576.348 457.126 566.163 464.02L571.769 472.301C583.007 464.694 592.694 455.007 600.301 443.769L592.02 438.163ZM620.103 485.5L571.003 463.594L566.929 472.727L616.029 494.632L620.103 485.5ZM591.594 443.003L613.5 492.103L622.632 488.029L600.727 438.929L591.594 443.003ZM530.283 478.882C518.207 481.208 505.793 481.208 493.717 478.882L491.825 488.701C505.151 491.269 518.849 491.269 532.175 488.701L530.283 478.882ZM516.669 532.212L497.44 482.003L488.101 485.58L507.331 535.788L516.669 532.212ZM526.56 482.003L507.331 532.212L516.669 535.788L535.899 485.58L526.56 482.003ZM457.837 464.02C447.652 457.126 438.874 448.348 431.98 438.163L423.699 443.769C431.306 455.007 440.993 464.694 452.231 472.301L457.837 464.02ZM410.5 492.103L432.406 443.003L423.273 438.929L401.368 488.029L410.5 492.103ZM452.997 463.594L403.897 485.5L407.971 494.632L457.071 472.727L452.997 463.594ZM417.118 402.283C414.792 390.207 414.792 377.793 417.118 365.717L407.299 363.825C404.731 377.151 404.731 390.849 407.299 404.175L417.118 402.283ZM363.788 388.669L413.997 369.44L410.42 360.101L360.212 379.331L363.788 388.669ZM413.997 398.56L363.788 379.331L360.212 388.669L410.42 407.899L413.997 398.56ZM431.98 329.837C438.874 319.652 447.652 310.874 457.837 303.98L452.231 295.699C440.993 303.306 431.306 312.993 423.699 324.231L431.98 329.837ZM403.897 282.5L452.997 304.406L457.071 295.273L407.971 273.368L403.897 282.5ZM432.406 324.997L410.5 275.897L401.368 279.971L423.273 329.071L432.406 324.997Z" fill="currentColor"/>
<path d="M489.019 439.481C503.734 445.576 520.267 445.576 534.981 439.481C549.695 433.386 561.386 421.695 567.481 406.981C573.576 392.266 573.576 375.733 567.481 361.019C561.386 346.305 549.695 334.614 534.981 328.519C520.267 322.424 503.734 322.424 489.019 328.519C474.305 334.614 462.614 346.305 456.519 361.019C450.424 375.733 450.424 392.266 456.519 406.981C462.614 421.695 474.305 433.386 489.019 439.481Z" fill="#888888" fill-opacity="0.5" stroke="currentColor" stroke-width="10" stroke-linecap="round" stroke-linejoin="round"/>
<g opacity="0.25">
<path d="M512 234L541.849 311.937L618.066 277.934L584.063 354.151L662 384L584.063 413.849L618.066 490.066L541.849 456.063L512 534L482.151 456.063L405.934 490.066L439.937 413.849L362 384L439.937 354.151L405.934 277.934L482.151 311.937L512 234Z" stroke="currentColor" stroke-width="2.5" stroke-linecap="round" stroke-linejoin="round"/>
<path d="M550.891 477.891C525.989 488.205 498.011 488.205 473.109 477.891V477.891C448.208 467.576 428.424 447.792 418.109 422.891V422.891C407.795 397.989 407.795 370.011 418.109 345.109V345.109C428.424 320.208 448.208 300.424 473.109 290.109V290.109C498.011 279.795 525.989 279.795 550.891 290.109V290.109C575.792 300.424 595.576 320.208 605.891 345.109V345.109C616.205 370.011 616.205 397.989 605.891 422.891V422.891C595.576 447.792 575.792 467.576 550.891 477.891V477.891Z" stroke="currentColor" stroke-width="2.5" stroke-linecap="round" stroke-linejoin="round"/>
<path d="M489.019 439.481C503.734 445.576 520.267 445.576 534.981 439.481V439.481C549.695 433.386 561.386 421.695 567.481 406.981V406.981C573.576 392.266 573.576 375.733 567.481 361.019V361.019C561.386 346.305 549.695 334.614 534.981 328.519V328.519C520.267 322.424 503.734 322.424 489.019 328.519V328.519C474.305 334.614 462.614 346.305 456.519 361.019V361.019C450.424 375.733 450.424 392.266 456.519 406.981V406.981C462.614 421.695 474.305 433.386 489.019 439.481V439.481Z" stroke="currentColor" stroke-width="2.5" stroke-linecap="round" stroke-linejoin="round"/>
</g>
<path d="M160 612L160.934 611.642C160.786 611.255 160.414 611 160 611C159.586 611 159.214 611.255 159.066 611.642L160 612ZM167.692 632.083L167.503 633.065C167.859 633.134 168.225 633.004 168.458 632.726C168.691 632.448 168.756 632.065 168.626 631.726L167.692 632.083ZM152.308 632.083L151.374 631.726C151.245 632.065 151.309 632.448 151.542 632.726C151.775 633.004 152.141 633.134 152.497 633.065L152.308 632.083ZM182.786 638.336L182.379 637.423C182.047 637.571 181.822 637.887 181.79 638.248C181.758 638.61 181.925 638.96 182.226 639.164L182.786 638.336ZM193.664 649.214L192.836 649.774C193.04 650.075 193.39 650.242 193.752 650.21C194.113 650.178 194.429 649.953 194.577 649.621L193.664 649.214ZM202.426 629.574L203.34 629.981C203.508 629.603 203.426 629.159 203.134 628.866C202.841 628.574 202.397 628.492 202.019 628.66L202.426 629.574ZM199.917 664.308L200.274 663.374C199.935 663.245 199.552 663.309 199.274 663.542C198.996 663.775 198.866 664.141 198.935 664.497L199.917 664.308ZM199.917 679.692L198.935 679.503C198.866 679.859 198.996 680.225 199.274 680.458C199.552 680.691 199.935 680.756 200.274 680.626L199.917 679.692ZM220 672L220.358 672.934C220.745 672.786 221 672.414 221 672C221 671.586 220.745 671.214 220.358 671.066L220 672ZM193.664 694.786L194.577 694.379C194.429 694.047 194.113 693.822 193.752 693.79C193.39 693.758 193.04 693.925 192.836 694.226L193.664 694.786ZM182.786 705.664L182.226 704.836C181.925 705.04 181.758 705.39 181.79 705.752C181.822 706.113 182.047 706.429 182.379 706.577L182.786 705.664ZM202.426 714.426L202.019 715.34C202.397 715.508 202.841 715.426 203.134 715.134C203.426 714.841 203.508 714.397 203.34 714.019L202.426 714.426ZM167.692 711.917L168.626 712.274C168.756 711.935 168.691 711.552 168.458 711.274C168.225 710.996 167.859 710.866 167.503 710.935L167.692 711.917ZM152.308 711.917L152.497 710.935C152.141 710.866 151.775 710.996 151.542 711.274C151.309 711.552 151.245 711.935 151.374 712.274L152.308 711.917ZM160 732L159.066 732.358C159.214 732.745 159.586 733 160 733C160.414 733 160.786 732.745 160.934 732.358L160 732ZM137.214 705.664L137.621 706.577C137.953 706.429 138.178 706.113 138.21 705.752C138.242 705.39 138.075 705.04 137.774 704.836L137.214 705.664ZM126.336 694.786L127.164 694.226C126.96 693.925 126.61 693.758 126.248 693.79C125.887 693.822 125.571 694.047 125.423 694.379L126.336 694.786ZM117.574 714.426L116.66 714.019C116.492 714.397 116.574 714.841 116.866 715.134C117.159 715.426 117.603 715.508 117.981 715.34L117.574 714.426ZM120.083 679.692L119.726 680.626C120.065 680.756 120.448 680.691 120.726 680.458C121.004 680.225 121.134 679.859 121.065 679.503L120.083 679.692ZM120.083 664.308L121.065 664.497C121.134 664.141 121.004 663.775 120.726 663.542C120.448 663.309 120.065 663.245 119.726 663.374L120.083 664.308ZM100 672L99.6423 671.066C99.2555 671.214 99 671.586 99 672C99 672.414 99.2555 672.786 99.6423 672.934L100 672ZM126.336 649.214L125.423 649.621C125.571 649.953 125.887 650.178 126.248 650.21C126.61 650.242 126.96 650.075 127.164 649.774L126.336 649.214ZM137.214 638.336L137.774 639.164C138.075 638.96 138.242 638.61 138.21 638.248C138.178 637.887 137.953 637.571 137.621 637.423L137.214 638.336ZM117.574 629.574L117.981 628.66C117.603 628.492 117.159 628.574 116.866 628.866C116.574 629.159 116.492 629.603 116.66 629.981L117.574 629.574ZM159.066 612.358L166.758 632.441L168.626 631.726L160.934 611.642L159.066 612.358ZM153.242 632.441L160.934 612.358L159.066 611.642L151.374 631.726L153.242 632.441ZM152.497 633.065C157.453 632.111 162.547 632.111 167.503 633.065L167.881 631.102C162.676 630.099 157.324 630.099 152.119 631.102L152.497 633.065ZM182.226 639.164C186.405 641.993 190.007 645.595 192.836 649.774L194.492 648.653C191.521 644.263 187.737 640.479 183.347 637.508L182.226 639.164ZM201.513 629.166L192.751 648.806L194.577 649.621L203.34 629.981L201.513 629.166ZM183.194 639.249L202.834 630.487L202.019 628.66L182.379 637.423L183.194 639.249ZM198.935 664.497C199.889 669.453 199.889 674.547 198.935 679.503L200.898 679.881C201.901 674.676 201.901 669.324 200.898 664.119L198.935 664.497ZM219.642 671.066L199.559 678.758L200.274 680.626L220.358 672.934L219.642 671.066ZM199.559 665.242L219.642 672.934L220.358 671.066L200.274 663.374L199.559 665.242ZM192.836 694.226C190.007 698.405 186.405 702.007 182.226 704.836L183.347 706.492C187.737 703.521 191.521 699.737 194.492 695.347L192.836 694.226ZM202.834 713.513L183.194 704.751L182.379 706.577L202.019 715.34L202.834 713.513ZM192.751 695.194L201.513 714.834L203.34 714.019L194.577 694.379L192.751 695.194ZM167.503 710.935C162.547 711.889 157.453 711.889 152.497 710.935L152.119 712.898C157.324 713.901 162.676 713.901 167.881 712.898L167.503 710.935ZM160.934 731.642L153.242 711.559L151.374 712.274L159.066 732.358L160.934 731.642ZM166.758 711.559L159.066 731.642L160.934 732.358L168.626 712.274L166.758 711.559ZM137.774 704.836C133.595 702.007 129.993 698.405 127.164 694.226L125.508 695.347C128.479 699.737 132.263 703.521 136.653 706.492L137.774 704.836ZM118.487 714.834L127.249 695.194L125.423 694.379L116.66 714.019L118.487 714.834ZM136.806 704.751L117.166 713.513L117.981 715.34L137.621 706.577L136.806 704.751ZM121.065 679.503C120.111 674.547 120.111 669.453 121.065 664.497L119.102 664.119C118.099 669.324 118.099 674.676 119.102 679.881L121.065 679.503ZM100.358 672.934L120.441 665.242L119.726 663.374L99.6423 671.066L100.358 672.934ZM120.441 678.758L100.358 671.066L99.6423 672.934L119.726 680.626L120.441 678.758ZM127.164 649.774C129.993 645.595 133.595 641.993 137.774 639.164L136.653 637.508C132.263 640.479 128.479 644.263 125.508 648.653L127.164 649.774ZM117.166 630.487L136.806 639.249L137.621 637.423L117.981 628.66L117.166 630.487ZM127.249 648.806L118.487 629.166L116.66 629.981L125.423 649.621L127.249 648.806Z" fill="currentColor"/>
<path d="M150.808 694.192C156.693 696.63 163.307 696.63 169.192 694.192V694.192C175.078 691.754 179.754 687.078 182.192 681.192V681.192C184.63 675.307 184.63 668.693 182.192 662.808V662.808C179.754 656.922 175.078 652.246 169.192 649.808V649.808C163.307 647.37 156.693 647.37 150.808 649.808V649.808C144.922 652.246 140.246 656.922 137.808 662.808V662.808C135.37 668.693 135.37 675.307 137.808 681.192V681.192C140.246 687.078 144.922 691.754 150.808 694.192V694.192Z" stroke="currentColor" stroke-width="2" stroke-linecap="round" stroke-linejoin="round"/>
<path d="M339.735 610.569L340.202 610.391V610.391L339.735 610.569ZM332.265 610.569L332.732 610.748L332.265 610.569ZM324.573 630.653L324.106 630.474V630.474L324.573 630.653ZM325.243 634.653L325.626 634.332L325.243 634.653ZM329.065 636.011L328.97 635.52L329.065 636.011ZM342.935 636.011L343.03 635.52L342.935 636.011ZM346.757 634.653L347.14 634.975V634.975L346.757 634.653ZM347.427 630.653L346.96 630.832L347.427 630.653ZM337.606 627.378L337.588 627.878C337.756 627.884 337.916 627.805 338.013 627.669C338.111 627.532 338.133 627.356 338.073 627.199L337.606 627.378ZM336 623.184L336.467 623.005C336.393 622.812 336.207 622.684 336 622.684C335.793 622.684 335.607 622.812 335.533 623.005L336 623.184ZM334.394 627.378L333.927 627.199C333.867 627.356 333.889 627.532 333.987 627.669C334.084 627.805 334.244 627.884 334.412 627.878L334.394 627.378ZM295.203 625.921L295.407 625.464L295.203 625.921ZM289.921 631.203L289.464 631.407L289.921 631.203ZM298.683 650.843L298.226 651.047L298.683 650.843ZM301.985 653.198L302.029 652.7L301.985 653.198ZM305.648 651.456L306.062 651.736V651.736L305.648 651.456ZM315.456 641.648L315.736 642.062H315.736L315.456 641.648ZM317.198 637.985L316.7 638.029L317.198 637.985ZM314.843 634.683L315.047 634.226L314.843 634.683ZM381.255 626.745L381.608 626.392V626.392L381.255 626.745ZM382.079 631.203L382.536 631.407L382.079 631.203ZM376.797 625.921L376.593 625.464L376.797 625.921ZM357.157 634.683L356.953 634.226H356.953L357.157 634.683ZM356.544 641.648L356.264 642.062L356.544 641.648ZM366.352 651.456L365.938 651.736V651.736L366.352 651.456ZM373.317 650.843L372.86 650.64V650.64L373.317 650.843ZM301.482 637.482L301.686 637.025C301.496 636.941 301.275 636.982 301.128 637.128C300.982 637.275 300.941 637.496 301.025 637.686L301.482 637.482ZM303.312 641.584L302.855 641.787C302.923 641.94 303.064 642.049 303.23 642.077C303.395 642.104 303.563 642.047 303.678 641.924L303.312 641.584ZM305.584 639.312L305.924 639.678C306.047 639.563 306.104 639.395 306.077 639.23C306.049 639.064 305.94 638.923 305.787 638.855L305.584 639.312ZM366.417 639.312L366.213 638.855C366.06 638.923 365.951 639.064 365.923 639.23C365.896 639.395 365.953 639.563 366.076 639.678L366.417 639.312ZM368.688 641.583L368.322 641.924C368.437 642.047 368.605 642.104 368.77 642.077C368.936 642.049 369.077 641.94 369.145 641.787L368.688 641.583ZM370.518 637.482L370.975 637.686C371.059 637.496 371.018 637.275 370.872 637.128C370.725 636.982 370.504 636.941 370.314 637.025L370.518 637.482ZM298.653 661.243L298.332 661.626L298.653 661.243ZM300.011 665.065L299.52 664.97L300.011 665.065ZM294.653 660.573L294.474 660.106H294.474L294.653 660.573ZM274.569 668.265L274.748 668.732L274.569 668.265ZM274.569 675.735L274.391 676.202H274.391L274.569 675.735ZM294.653 683.427L294.832 682.96L294.653 683.427ZM298.653 682.757L298.975 683.14H298.975L298.653 682.757ZM300.011 678.935L300.502 678.84L300.011 678.935ZM373.347 661.243L373.668 661.626L373.347 661.243ZM377.347 660.573L377.168 661.04L377.347 660.573ZM371.989 665.065L372.48 664.97L371.989 665.065ZM371.989 678.935L371.498 678.84L371.989 678.935ZM373.347 682.757L373.025 683.14H373.025L373.347 682.757ZM377.347 683.427L377.168 682.96L377.347 683.427ZM397.431 675.735L397.609 676.202L397.431 675.735ZM397.431 668.265L397.252 668.732L397.431 668.265ZM287.184 672L287.005 671.533C286.812 671.607 286.684 671.793 286.684 672C286.684 672.207 286.812 672.393 287.005 672.467L287.184 672ZM291.378 673.606L291.199 674.073C291.356 674.133 291.532 674.111 291.669 674.013C291.805 673.916 291.884 673.756 291.878 673.588L291.378 673.606ZM291.378 670.394L291.878 670.412C291.884 670.244 291.805 670.084 291.669 669.987C291.532 669.889 291.356 669.867 291.199 669.927L291.378 670.394ZM380.622 673.606L380.122 673.588C380.116 673.756 380.195 673.916 380.331 674.013C380.468 674.111 380.644 674.133 380.801 674.073L380.622 673.606ZM384.816 672L384.995 672.467C385.188 672.393 385.316 672.207 385.316 672C385.316 671.793 385.188 671.607 384.995 671.533L384.816 672ZM380.622 670.394L380.801 669.927C380.644 669.867 380.468 669.889 380.331 669.987C380.195 670.084 380.116 670.244 380.122 670.412L380.622 670.394ZM305.648 692.544L306.062 692.264L305.648 692.544ZM298.683 693.157L298.226 692.953V692.953L298.683 693.157ZM289.921 712.797L289.464 712.593L289.921 712.797ZM290.745 717.255L290.392 717.608H290.392L290.745 717.255ZM295.203 718.079L295.407 718.536L295.203 718.079ZM314.843 709.317L314.64 708.86H314.64L314.843 709.317ZM315.456 702.352L315.176 702.766H315.176L315.456 702.352ZM373.317 693.157L372.86 693.36L373.317 693.157ZM366.352 692.544L365.938 692.264L366.352 692.544ZM356.544 702.352L356.264 701.938L356.544 702.352ZM357.157 709.317L357.36 708.86L357.157 709.317ZM376.797 718.079L377 717.623L376.797 718.079ZM381.255 717.255L381.608 717.608L381.255 717.255ZM382.079 712.797L381.623 713L382.079 712.797ZM303.312 702.417L303.678 702.076C303.563 701.953 303.395 701.896 303.23 701.923C303.064 701.951 302.923 702.06 302.855 702.213L303.312 702.417ZM301.482 706.518L301.025 706.314C300.941 706.504 300.982 706.725 301.128 706.872C301.275 707.018 301.496 707.059 301.686 706.975L301.482 706.518ZM305.584 704.688L305.787 705.145C305.94 705.077 306.049 704.936 306.077 704.77C306.104 704.605 306.047 704.437 305.924 704.322L305.584 704.688ZM366.417 704.688L366.076 704.322C365.953 704.437 365.896 704.605 365.923 704.77C365.951 704.936 366.06 705.077 366.213 705.145L366.417 704.688ZM370.518 706.518L370.314 706.975C370.504 707.059 370.725 707.018 370.872 706.872C371.018 706.725 371.059 706.504 370.975 706.314L370.518 706.518ZM368.688 702.417L369.145 702.213C369.077 702.06 368.936 701.951 368.77 701.923C368.605 701.896 368.437 701.953 368.322 702.076L368.688 702.417ZM325.243 709.347L325.626 709.668L325.243 709.347ZM329.065 707.989L328.97 708.48L329.065 707.989ZM324.573 713.347L325.04 713.168L324.573 713.347ZM332.265 733.431L332.732 733.252L332.265 733.431ZM339.735 733.431L340.202 733.609L339.735 733.431ZM347.427 713.347L346.96 713.168L347.427 713.347ZM346.757 709.347L347.14 709.025V709.025L346.757 709.347ZM342.935 707.989L342.84 707.498L342.935 707.989ZM334.394 716.622L334.412 716.122C334.244 716.116 334.084 716.195 333.987 716.331C333.889 716.468 333.867 716.644 333.927 716.801L334.394 716.622ZM336 720.816L335.533 720.995C335.607 721.188 335.793 721.316 336 721.316C336.207 721.316 336.393 721.188 336.467 720.995L336 720.816ZM337.606 716.622L338.073 716.801C338.133 716.644 338.111 716.468 338.013 716.331C337.916 716.195 337.756 716.116 337.588 716.122L337.606 716.622ZM325.277 646.112L325.086 645.65L325.277 646.112ZM361.888 661.277L362.35 661.086L361.888 661.277ZM343.662 690.497L343.47 690.035L343.662 690.497ZM328.338 690.497L328.53 690.035L328.338 690.497ZM354.497 679.662L354.035 679.47L354.497 679.662ZM354.497 664.338L354.035 664.53L354.497 664.338ZM343.662 653.503L343.47 653.965L343.662 653.503ZM328.338 653.503L328.53 653.965L328.338 653.503ZM317.503 664.338L317.041 664.147L317.503 664.338ZM317.503 679.662L317.965 679.47L317.503 679.662ZM336 608.5C337.45 608.5 338.75 609.394 339.268 610.748L340.202 610.391C339.536 608.65 337.864 607.5 336 607.5V608.5ZM332.732 610.748C333.25 609.394 334.55 608.5 336 608.5V607.5C334.136 607.5 332.464 608.65 331.798 610.391L332.732 610.748ZM325.04 630.832L332.732 610.748L331.798 610.391L324.106 630.474L325.04 630.832ZM325.626 634.332C324.81 633.358 324.585 632.018 325.04 630.832L324.106 630.474C323.522 632 323.81 633.722 324.86 634.975L325.626 634.332ZM328.97 635.52C327.723 635.761 326.442 635.306 325.626 634.332L324.86 634.975C325.909 636.227 327.555 636.811 329.16 636.502L328.97 635.52ZM343.03 635.52C338.387 634.626 333.613 634.626 328.97 635.52L329.16 636.502C333.678 635.632 338.322 635.632 342.84 636.502L343.03 635.52ZM346.374 634.332C345.558 635.306 344.277 635.761 343.03 635.52L342.84 636.502C344.445 636.811 346.091 636.227 347.14 634.975L346.374 634.332ZM346.96 630.832C347.415 632.018 347.19 633.358 346.374 634.332L347.14 634.975C348.19 633.722 348.478 632 347.894 630.474L346.96 630.832ZM339.268 610.748L346.96 630.832L347.894 630.474L340.202 610.391L339.268 610.748ZM338.073 627.199L336.467 623.005L335.533 623.363L337.139 627.557L338.073 627.199ZM334.412 627.878C335.47 627.84 336.53 627.84 337.588 627.878L337.624 626.879C336.542 626.84 335.458 626.84 334.376 626.879L334.412 627.878ZM335.533 623.005L333.927 627.199L334.861 627.557L336.467 623.363L335.533 623.005ZM291.099 627.099C292.124 626.073 293.675 625.786 295 626.377L295.407 625.464C293.704 624.704 291.71 625.073 290.392 626.392L291.099 627.099ZM290.377 631C289.786 629.675 290.073 628.124 291.099 627.099L290.392 626.392C289.073 627.71 288.704 629.704 289.464 631.407L290.377 631ZM299.14 650.64L290.377 631L289.464 631.407L298.226 651.047L299.14 650.64ZM302.029 652.7C300.763 652.589 299.657 651.8 299.14 650.64L298.226 651.047C298.892 652.539 300.314 653.553 301.942 653.696L302.029 652.7ZM305.234 651.176C304.522 652.228 303.295 652.812 302.029 652.7L301.942 653.696C303.569 653.839 305.147 653.089 306.062 651.736L305.234 651.176ZM315.176 641.234C311.26 643.885 307.885 647.26 305.234 651.176L306.062 651.736C308.642 647.926 311.926 644.642 315.736 642.062L315.176 641.234ZM316.7 638.029C316.812 639.295 316.228 640.522 315.176 641.234L315.736 642.062C317.089 641.147 317.839 639.569 317.696 637.942L316.7 638.029ZM314.64 635.14C315.8 635.657 316.589 636.763 316.7 638.029L317.696 637.942C317.553 636.314 316.539 634.892 315.047 634.226L314.64 635.14ZM295 626.377L314.64 635.14L315.047 634.226L295.407 625.464L295 626.377ZM380.901 627.099C381.927 628.124 382.214 629.675 381.623 631L382.536 631.407C383.296 629.704 382.927 627.71 381.608 626.392L380.901 627.099ZM377 626.377C378.325 625.786 379.876 626.073 380.901 627.099L381.608 626.392C380.29 625.073 378.296 624.704 376.593 625.464L377 626.377ZM357.36 635.14L377 626.377L376.593 625.464L356.953 634.226L357.36 635.14ZM355.3 638.029C355.411 636.763 356.2 635.657 357.36 635.14L356.953 634.226C355.461 634.892 354.447 636.314 354.304 637.942L355.3 638.029ZM356.824 641.234C355.772 640.522 355.188 639.295 355.3 638.029L354.304 637.942C354.161 639.569 354.911 641.147 356.264 642.062L356.824 641.234ZM366.766 651.176C364.115 647.26 360.74 643.885 356.824 641.234L356.264 642.062C360.074 644.642 363.358 647.926 365.938 651.736L366.766 651.176ZM369.971 652.7C368.705 652.812 367.478 652.228 366.766 651.176L365.938 651.736C366.853 653.089 368.431 653.839 370.058 653.696L369.971 652.7ZM372.86 650.64C372.343 651.8 371.237 652.589 369.971 652.7L370.058 653.696C371.686 653.553 373.108 652.539 373.774 651.047L372.86 650.64ZM381.623 631L372.86 650.64L373.774 651.047L382.536 631.407L381.623 631ZM301.025 637.686L302.855 641.787L303.768 641.38L301.938 637.278L301.025 637.686ZM305.787 638.855L301.686 637.025L301.278 637.938L305.38 639.768L305.787 638.855ZM303.678 641.924C304.399 641.149 305.149 640.399 305.924 639.678L305.243 638.946C304.45 639.684 303.684 640.45 302.946 641.243L303.678 641.924ZM366.076 639.678C366.851 640.399 367.601 641.149 368.322 641.924L369.054 641.243C368.316 640.45 367.55 639.684 366.757 638.946L366.076 639.678ZM370.314 637.025L366.213 638.855L366.62 639.768L370.722 637.938L370.314 637.025ZM369.145 641.787L370.975 637.686L370.062 637.278L368.232 641.38L369.145 641.787ZM298.332 661.626C299.306 662.442 299.761 663.723 299.52 664.97L300.502 665.16C300.811 663.555 300.227 661.909 298.975 660.86L298.332 661.626ZM294.832 661.04C296.018 660.585 297.358 660.81 298.332 661.626L298.975 660.86C297.722 659.81 296 659.522 294.474 660.106L294.832 661.04ZM274.748 668.732L294.832 661.04L294.474 660.106L274.391 667.798L274.748 668.732ZM272.5 672C272.5 670.55 273.394 669.25 274.748 668.732L274.391 667.798C272.65 668.464 271.5 670.136 271.5 672H272.5ZM274.748 675.268C273.394 674.75 272.5 673.45 272.5 672H271.5C271.5 673.864 272.65 675.536 274.391 676.202L274.748 675.268ZM294.832 682.96L274.748 675.268L274.391 676.202L294.474 683.894L294.832 682.96ZM298.332 682.374C297.358 683.19 296.018 683.415 294.832 682.96L294.474 683.894C296 684.478 297.722 684.19 298.975 683.14L298.332 682.374ZM299.52 679.03C299.761 680.277 299.306 681.558 298.332 682.374L298.975 683.14C300.227 682.091 300.811 680.445 300.502 678.84L299.52 679.03ZM299.52 664.97C298.626 669.613 298.626 674.387 299.52 679.03L300.502 678.84C299.632 674.322 299.632 669.678 300.502 665.16L299.52 664.97ZM373.668 661.626C374.642 660.81 375.982 660.585 377.168 661.04L377.526 660.106C376 659.522 374.278 659.81 373.025 660.86L373.668 661.626ZM372.48 664.97C372.239 663.723 372.694 662.442 373.668 661.626L373.025 660.86C371.773 661.909 371.189 663.555 371.498 665.16L372.48 664.97ZM372.48 679.03C373.374 674.387 373.374 669.613 372.48 664.97L371.498 665.16C372.368 669.678 372.368 674.322 371.498 678.84L372.48 679.03ZM373.668 682.374C372.694 681.558 372.239 680.277 372.48 679.03L371.498 678.84C371.189 680.445 371.773 682.091 373.025 683.14L373.668 682.374ZM377.168 682.96C375.982 683.415 374.642 683.19 373.668 682.374L373.025 683.14C374.278 684.19 376 684.478 377.526 683.894L377.168 682.96ZM397.252 675.268L377.168 682.96L377.526 683.894L397.609 676.202L397.252 675.268ZM399.5 672C399.5 673.45 398.606 674.75 397.252 675.268L397.609 676.202C399.35 675.536 400.5 673.864 400.5 672H399.5ZM397.252 668.732C398.606 669.25 399.5 670.55 399.5 672H400.5C400.5 670.136 399.35 668.464 397.609 667.798L397.252 668.732ZM377.168 661.04L397.252 668.732L397.609 667.798L377.526 660.106L377.168 661.04ZM287.005 672.467L291.199 674.073L291.557 673.139L287.363 671.533L287.005 672.467ZM291.199 669.927L287.005 671.533L287.363 672.467L291.557 670.861L291.199 669.927ZM291.878 673.588C291.84 672.53 291.84 671.47 291.878 670.412L290.879 670.376C290.84 671.458 290.84 672.542 290.879 673.624L291.878 673.588ZM380.801 674.073L384.995 672.467L384.637 671.533L380.443 673.139L380.801 674.073ZM380.122 670.412C380.16 671.47 380.16 672.53 380.122 673.588L381.121 673.624C381.16 672.542 381.16 671.458 381.121 670.376L380.122 670.412ZM384.995 671.533L380.801 669.927L380.443 670.861L384.637 672.467L384.995 671.533ZM302.029 691.3C303.295 691.188 304.522 691.772 305.234 692.824L306.062 692.264C305.147 690.911 303.569 690.161 301.942 690.304L302.029 691.3ZM299.14 693.36C299.657 692.2 300.763 691.411 302.029 691.3L301.942 690.304C300.314 690.447 298.892 691.461 298.226 692.953L299.14 693.36ZM290.377 713L299.14 693.36L298.226 692.953L289.464 712.593L290.377 713ZM291.099 716.901C290.073 715.876 289.786 714.325 290.377 713L289.464 712.593C288.704 714.296 289.073 716.29 290.392 717.608L291.099 716.901ZM295 717.623C293.675 718.214 292.124 717.927 291.099 716.901L290.392 717.608C291.71 718.927 293.704 719.296 295.407 718.536L295 717.623ZM314.64 708.86L295 717.623L295.407 718.536L315.047 709.774L314.64 708.86ZM316.7 705.971C316.589 707.237 315.8 708.343 314.64 708.86L315.047 709.774C316.539 709.108 317.553 707.686 317.696 706.058L316.7 705.971ZM315.176 702.766C316.228 703.478 316.812 704.705 316.7 705.971L317.696 706.058C317.839 704.431 317.089 702.853 315.736 701.938L315.176 702.766ZM305.234 692.824C307.885 696.74 311.26 700.115 315.176 702.766L315.736 701.938C311.926 699.358 308.642 696.074 306.062 692.264L305.234 692.824ZM369.971 691.3C371.237 691.411 372.343 692.2 372.86 693.36L373.774 692.953C373.108 691.461 371.686 690.447 370.058 690.304L369.971 691.3ZM366.766 692.824C367.478 691.772 368.705 691.188 369.971 691.3L370.058 690.304C368.431 690.161 366.853 690.911 365.938 692.264L366.766 692.824ZM356.824 702.766C360.74 700.115 364.115 696.74 366.766 692.824L365.938 692.264C363.358 696.074 360.074 699.358 356.264 701.938L356.824 702.766ZM355.3 705.971C355.188 704.705 355.772 703.478 356.824 702.766L356.264 701.938C354.911 702.853 354.161 704.431 354.304 706.058L355.3 705.971ZM357.36 708.86C356.2 708.343 355.411 707.237 355.3 705.971L354.304 706.058C354.447 707.686 355.461 709.108 356.953 709.774L357.36 708.86ZM377 717.623L357.36 708.86L356.953 709.774L376.593 718.536L377 717.623ZM380.901 716.901C379.876 717.927 378.325 718.214 377 717.623L376.593 718.536C378.296 719.296 380.29 718.927 381.608 717.608L380.901 716.901ZM381.623 713C382.214 714.325 381.927 715.876 380.901 716.901L381.608 717.608C382.927 716.29 383.296 714.296 382.536 712.593L381.623 713ZM372.86 693.36L381.623 713L382.536 712.593L373.774 692.953L372.86 693.36ZM302.855 702.213L301.025 706.314L301.938 706.722L303.768 702.62L302.855 702.213ZM305.924 704.322C305.149 703.601 304.399 702.851 303.678 702.076L302.946 702.757C303.684 703.55 304.45 704.316 305.243 705.054L305.924 704.322ZM301.686 706.975L305.787 705.145L305.38 704.232L301.278 706.062L301.686 706.975ZM366.213 705.145L370.314 706.975L370.722 706.062L366.62 704.232L366.213 705.145ZM368.322 702.076C367.601 702.851 366.851 703.601 366.076 704.322L366.757 705.054C367.55 704.316 368.316 703.55 369.054 702.757L368.322 702.076ZM370.975 706.314L369.145 702.213L368.232 702.62L370.062 706.722L370.975 706.314ZM325.626 709.668C326.442 708.694 327.723 708.239 328.97 708.48L329.16 707.498C327.555 707.189 325.909 707.773 324.86 709.025L325.626 709.668ZM325.04 713.168C324.585 711.982 324.81 710.642 325.626 709.668L324.86 709.025C323.81 710.278 323.522 712 324.106 713.526L325.04 713.168ZM332.732 733.252L325.04 713.168L324.106 713.526L331.798 733.609L332.732 733.252ZM336 735.5C334.55 735.5 333.25 734.606 332.732 733.252L331.798 733.609C332.464 735.35 334.136 736.5 336 736.5V735.5ZM339.268 733.252C338.75 734.606 337.45 735.5 336 735.5V736.5C337.864 736.5 339.536 735.35 340.202 733.609L339.268 733.252ZM346.96 713.168L339.268 733.252L340.202 733.609L347.894 713.526L346.96 713.168ZM346.374 709.668C347.19 710.642 347.415 711.982 346.96 713.168L347.894 713.526C348.478 712 348.19 710.278 347.14 709.025L346.374 709.668ZM343.03 708.48C344.277 708.239 345.558 708.694 346.374 709.668L347.14 709.025C346.091 707.773 344.445 707.189 342.84 707.498L343.03 708.48ZM328.97 708.48C333.613 709.374 338.387 709.374 343.03 708.48L342.84 707.498C338.322 708.368 333.678 708.368 329.16 707.498L328.97 708.48ZM333.927 716.801L335.533 720.995L336.467 720.637L334.861 716.443L333.927 716.801ZM337.588 716.122C336.53 716.16 335.47 716.16 334.412 716.122L334.376 717.121C335.458 717.16 336.542 717.16 337.624 717.121L337.588 716.122ZM336.467 720.995L338.073 716.801L337.139 716.443L335.533 720.637L336.467 720.995ZM325.086 698.35C332.074 701.245 339.926 701.245 346.914 698.35L346.532 697.426C339.788 700.219 332.212 700.219 325.468 697.426L325.086 698.35ZM309.65 682.914C312.545 689.903 318.097 695.455 325.086 698.35L325.468 697.426C318.725 694.633 313.367 689.275 310.574 682.532L309.65 682.914ZM309.65 661.086C306.755 668.074 306.755 675.926 309.65 682.914L310.574 682.532C307.781 675.788 307.781 668.212 310.574 661.468L309.65 661.086ZM325.086 645.65C318.097 648.545 312.545 654.097 309.65 661.086L310.574 661.468C313.367 654.725 318.725 649.367 325.468 646.574L325.086 645.65ZM346.914 645.65C339.926 642.755 332.074 642.755 325.086 645.65L325.468 646.574C332.212 643.781 339.788 643.781 346.532 646.574L346.914 645.65ZM362.35 661.086C359.455 654.097 353.903 648.545 346.914 645.65L346.532 646.574C353.275 649.367 358.633 654.725 361.426 661.468L362.35 661.086ZM362.35 682.914C365.245 675.926 365.245 668.074 362.35 661.086L361.426 661.468C364.219 668.212 364.219 675.788 361.426 682.532L362.35 682.914ZM346.914 698.35C353.903 695.455 359.455 689.903 362.35 682.914L361.426 682.532C358.633 689.275 353.275 694.633 346.532 697.426L346.914 698.35ZM343.47 690.035C338.687 692.016 333.313 692.016 328.53 690.035L328.147 690.959C333.175 693.042 338.825 693.042 343.853 690.959L343.47 690.035ZM354.035 679.47C352.054 684.253 348.253 688.054 343.47 690.035L343.853 690.959C348.881 688.876 352.876 684.881 354.959 679.853L354.035 679.47ZM354.035 664.53C356.016 669.313 356.016 674.687 354.035 679.47L354.959 679.853C357.042 674.825 357.042 669.175 354.959 664.147L354.035 664.53ZM343.47 653.965C348.253 655.946 352.054 659.747 354.035 664.53L354.959 664.147C352.876 659.119 348.881 655.124 343.853 653.041L343.47 653.965ZM328.53 653.965C333.313 651.984 338.687 651.984 343.47 653.965L343.853 653.041C338.825 650.958 333.175 650.958 328.147 653.041L328.53 653.965ZM317.965 664.53C319.946 659.747 323.747 655.946 328.53 653.965L328.147 653.041C323.119 655.124 319.124 659.119 317.041 664.147L317.965 664.53ZM317.965 679.47C315.984 674.687 315.984 669.313 317.965 664.53L317.041 664.147C314.958 669.175 314.958 674.825 317.041 679.853L317.965 679.47ZM328.53 690.035C323.747 688.054 319.946 684.253 317.965 679.47L317.041 679.853C319.124 684.881 323.119 688.876 328.147 690.959L328.53 690.035Z" fill="currentColor"/>
<path fill-rule="evenodd" clip-rule="evenodd" d="M519.692 632.083L512 612L504.308 632.083C509.389 631.105 514.611 631.105 519.692 632.083ZM534.786 638.336C539.071 641.236 542.764 644.929 545.664 649.214L554.426 629.574L534.786 638.336ZM551.917 664.308C552.895 669.389 552.895 674.611 551.917 679.692L572 672L551.917 664.308ZM545.664 694.786C542.764 699.071 539.071 702.764 534.786 705.664L554.426 714.426L545.664 694.786ZM519.692 711.917C514.611 712.895 509.389 712.895 504.308 711.917L512 732L519.692 711.917ZM489.214 705.664C484.929 702.764 481.236 699.071 478.336 694.786L469.574 714.426L489.214 705.664ZM472.083 679.692C471.105 674.611 471.105 669.389 472.083 664.308L452 672L472.083 679.692ZM478.336 649.214C481.236 644.929 484.929 641.236 489.214 638.336L469.574 629.574L478.336 649.214Z" fill="currentColor"/>
<path d="M512 612L513.868 611.285C513.571 610.511 512.829 610 512 610C511.171 610 510.429 610.511 510.132 611.285L512 612ZM519.692 632.083L519.313 634.047C520.026 634.185 520.758 633.925 521.224 633.368C521.691 632.812 521.819 632.046 521.559 631.368L519.692 632.083ZM504.308 632.083L502.441 631.368C502.181 632.046 502.309 632.812 502.776 633.368C503.242 633.925 503.974 634.185 504.687 634.047L504.308 632.083ZM534.786 638.336L533.971 636.509C533.308 636.805 532.858 637.437 532.794 638.161C532.73 638.884 533.064 639.585 533.665 639.992L534.786 638.336ZM545.664 649.214L544.008 650.335C544.415 650.936 545.116 651.27 545.839 651.206C546.563 651.142 547.195 650.692 547.491 650.029L545.664 649.214ZM554.426 629.574L556.253 630.388C556.59 629.632 556.427 628.745 555.841 628.159C555.255 627.573 554.368 627.41 553.612 627.747L554.426 629.574ZM551.917 664.308L552.632 662.441C551.954 662.181 551.188 662.309 550.632 662.776C550.075 663.242 549.815 663.974 549.953 664.687L551.917 664.308ZM551.917 679.692L549.953 679.313C549.815 680.026 550.075 680.758 550.632 681.224C551.188 681.691 551.954 681.819 552.632 681.559L551.917 679.692ZM572 672L572.715 673.868C573.489 673.571 574 672.829 574 672C574 671.171 573.489 670.429 572.715 670.132L572 672ZM545.664 694.786L547.491 693.971C547.195 693.308 546.563 692.858 545.839 692.794C545.116 692.73 544.415 693.064 544.008 693.665L545.664 694.786ZM534.786 705.664L533.665 704.008C533.064 704.415 532.73 705.116 532.794 705.839C532.858 706.563 533.308 707.195 533.971 707.491L534.786 705.664ZM554.426 714.426L553.612 716.253C554.368 716.59 555.255 716.427 555.841 715.841C556.427 715.255 556.59 714.368 556.253 713.612L554.426 714.426ZM519.692 711.917L521.559 712.632C521.819 711.954 521.691 711.188 521.224 710.632C520.758 710.075 520.026 709.815 519.313 709.953L519.692 711.917ZM504.308 711.917L504.687 709.953C503.974 709.815 503.242 710.075 502.776 710.632C502.309 711.188 502.181 711.954 502.441 712.632L504.308 711.917ZM512 732L510.132 732.715C510.429 733.489 511.171 734 512 734C512.829 734 513.571 733.489 513.868 732.715L512 732ZM489.214 705.664L490.029 707.491C490.692 707.195 491.142 706.563 491.206 705.839C491.27 705.116 490.936 704.415 490.335 704.008L489.214 705.664ZM478.336 694.786L479.992 693.665C479.585 693.064 478.884 692.73 478.161 692.794C477.437 692.858 476.805 693.308 476.509 693.971L478.336 694.786ZM469.574 714.426L467.747 713.612C467.41 714.368 467.573 715.255 468.159 715.841C468.745 716.427 469.632 716.59 470.388 716.253L469.574 714.426ZM472.083 679.692L471.368 681.559C472.046 681.819 472.812 681.691 473.368 681.224C473.925 680.758 474.185 680.026 474.047 679.313L472.083 679.692ZM472.083 664.308L474.047 664.687C474.185 663.974 473.925 663.242 473.368 662.776C472.812 662.309 472.046 662.181 471.368 662.441L472.083 664.308ZM452 672L451.285 670.132C450.511 670.429 450 671.171 450 672C450 672.829 450.511 673.571 451.285 673.868L452 672ZM478.336 649.214L476.509 650.029C476.805 650.692 477.437 651.142 478.161 651.206C478.884 651.27 479.585 650.936 479.992 650.335L478.336 649.214ZM489.214 638.336L490.335 639.992C490.936 639.585 491.27 638.884 491.206 638.161C491.142 637.437 490.692 636.805 490.029 636.509L489.214 638.336ZM469.574 629.574L470.388 627.747C469.632 627.41 468.745 627.573 468.159 628.159C467.573 628.745 467.41 629.632 467.747 630.388L469.574 629.574ZM510.132 612.715L517.824 632.799L521.559 631.368L513.868 611.285L510.132 612.715ZM506.176 632.799L513.868 612.715L510.132 611.285L502.441 631.368L506.176 632.799ZM504.687 634.047C509.517 633.117 514.483 633.117 519.313 634.047L520.07 630.12C514.74 629.093 509.26 629.093 503.93 630.12L504.687 634.047ZM533.665 639.992C537.739 642.75 541.25 646.261 544.008 650.335L547.32 648.093C544.277 643.597 540.403 639.723 535.907 636.68L533.665 639.992ZM552.6 628.759L543.838 648.399L547.491 650.029L556.253 630.388L552.6 628.759ZM535.601 640.162L555.241 631.4L553.612 627.747L533.971 636.509L535.601 640.162ZM549.953 664.687C550.883 669.517 550.883 674.483 549.953 679.313L553.88 680.07C554.907 674.74 554.907 669.26 553.88 663.93L549.953 664.687ZM571.285 670.132L551.201 677.824L552.632 681.559L572.715 673.868L571.285 670.132ZM551.201 666.176L571.285 673.868L572.715 670.132L552.632 662.441L551.201 666.176ZM544.008 693.665C541.25 697.739 537.739 701.25 533.665 704.008L535.907 707.32C540.403 704.277 544.277 700.403 547.32 695.907L544.008 693.665ZM555.241 712.6L535.601 703.838L533.971 707.491L553.612 716.253L555.241 712.6ZM543.838 695.601L552.6 715.241L556.253 713.612L547.491 693.971L543.838 695.601ZM519.313 709.953C514.483 710.883 509.517 710.883 504.687 709.953L503.93 713.88C509.26 714.907 514.74 714.907 520.07 713.88L519.313 709.953ZM513.868 731.285L506.176 711.201L502.441 712.632L510.132 732.715L513.868 731.285ZM517.824 711.201L510.132 731.285L513.868 732.715L521.559 712.632L517.824 711.201ZM490.335 704.008C486.261 701.25 482.75 697.739 479.992 693.665L476.68 695.907C479.723 700.403 483.597 704.277 488.093 707.32L490.335 704.008ZM471.4 715.241L480.162 695.601L476.509 693.971L467.747 713.612L471.4 715.241ZM488.399 703.838L468.759 712.6L470.388 716.253L490.029 707.491L488.399 703.838ZM474.047 679.313C473.117 674.483 473.117 669.517 474.047 664.687L470.12 663.93C469.093 669.26 469.093 674.74 470.12 680.07L474.047 679.313ZM452.715 673.868L472.799 666.176L471.368 662.441L451.285 670.132L452.715 673.868ZM472.799 677.824L452.715 670.132L451.285 673.868L471.368 681.559L472.799 677.824ZM479.992 650.335C482.75 646.261 486.261 642.75 490.335 639.992L488.093 636.68C483.597 639.723 479.723 643.597 476.68 648.093L479.992 650.335ZM468.759 631.4L488.399 640.162L490.029 636.509L470.388 627.747L468.759 631.4ZM480.162 648.399L471.4 628.759L467.747 630.388L476.509 650.029L480.162 648.399Z" fill="currentColor"/>
<path d="M502.808 694.192C508.693 696.63 515.307 696.63 521.192 694.192C527.078 691.754 531.754 687.078 534.192 681.192C536.63 675.307 536.63 668.693 534.192 662.808C531.754 656.922 527.078 652.246 521.192 649.808C515.307 647.37 508.693 647.37 502.808 649.808C496.922 652.246 492.246 656.922 489.808 662.808C487.37 668.693 487.37 675.307 489.808 681.192C492.246 687.078 496.922 691.754 502.808 694.192Z" fill="currentColor" stroke="currentColor" stroke-width="4" stroke-linecap="round" stroke-linejoin="round"/>
<g opacity="0.25">
<path fill-rule="evenodd" clip-rule="evenodd" d="M695.692 632.083L688 612L680.308 632.083C685.389 631.105 690.611 631.105 695.692 632.083ZM710.786 638.336C715.071 641.236 718.764 644.929 721.664 649.214L730.426 629.574L710.786 638.336ZM727.917 664.308C728.895 669.389 728.895 674.611 727.917 679.692L748 672L727.917 664.308ZM721.664 694.786C718.764 699.071 715.071 702.764 710.786 705.664L730.426 714.426L721.664 694.786ZM695.692 711.917C690.611 712.895 685.389 712.895 680.308 711.917L688 732L695.692 711.917ZM665.214 705.664C660.929 702.764 657.236 699.071 654.336 694.786L645.574 714.426L665.214 705.664ZM648.083 679.692C647.105 674.611 647.105 669.389 648.083 664.308L628 672L648.083 679.692ZM654.336 649.214C657.236 644.929 660.929 641.236 665.214 638.336L645.574 629.574L654.336 649.214Z" fill="currentColor"/>
<path d="M688 612L689.868 611.285C689.571 610.511 688.829 610 688 610C687.171 610 686.429 610.511 686.132 611.285L688 612ZM695.692 632.083L695.313 634.047C696.026 634.185 696.758 633.925 697.224 633.368C697.691 632.812 697.819 632.046 697.559 631.368L695.692 632.083ZM680.308 632.083L678.441 631.368C678.181 632.046 678.309 632.812 678.776 633.368C679.242 633.925 679.974 634.185 680.687 634.047L680.308 632.083ZM710.786 638.336L709.971 636.509C709.308 636.805 708.858 637.437 708.794 638.161C708.73 638.884 709.064 639.585 709.665 639.992L710.786 638.336ZM721.664 649.214L720.008 650.335C720.415 650.936 721.116 651.27 721.839 651.206C722.563 651.142 723.195 650.692 723.491 650.029L721.664 649.214ZM730.426 629.574L732.253 630.388C732.59 629.632 732.427 628.745 731.841 628.159C731.255 627.573 730.368 627.41 729.612 627.747L730.426 629.574ZM727.917 664.308L728.632 662.441C727.954 662.181 727.188 662.309 726.632 662.776C726.075 663.242 725.815 663.974 725.953 664.687L727.917 664.308ZM727.917 679.692L725.953 679.313C725.815 680.026 726.075 680.758 726.632 681.224C727.188 681.691 727.954 681.819 728.632 681.559L727.917 679.692ZM748 672L748.715 673.868C749.489 673.571 750 672.829 750 672C750 671.171 749.489 670.429 748.715 670.132L748 672ZM721.664 694.786L723.491 693.971C723.195 693.308 722.563 692.858 721.839 692.794C721.116 692.73 720.415 693.064 720.008 693.665L721.664 694.786ZM710.786 705.664L709.665 704.008C709.064 704.415 708.73 705.116 708.794 705.839C708.858 706.563 709.308 707.195 709.971 707.491L710.786 705.664ZM730.426 714.426L729.612 716.253C730.368 716.59 731.255 716.427 731.841 715.841C732.427 715.255 732.59 714.368 732.253 713.612L730.426 714.426ZM695.692 711.917L697.559 712.632C697.819 711.954 697.691 711.188 697.224 710.632C696.758 710.075 696.026 709.815 695.313 709.953L695.692 711.917ZM680.308 711.917L680.687 709.953C679.974 709.815 679.242 710.075 678.776 710.632C678.309 711.188 678.181 711.954 678.441 712.632L680.308 711.917ZM688 732L686.132 732.715C686.429 733.489 687.171 734 688 734C688.829 734 689.571 733.489 689.868 732.715L688 732ZM665.214 705.664L666.029 707.491C666.692 707.195 667.142 706.563 667.206 705.839C667.27 705.116 666.936 704.415 666.335 704.008L665.214 705.664ZM654.336 694.786L655.992 693.665C655.585 693.064 654.884 692.73 654.161 692.794C653.437 692.858 652.805 693.308 652.509 693.971L654.336 694.786ZM645.574 714.426L643.747 713.612C643.41 714.368 643.573 715.255 644.159 715.841C644.745 716.427 645.632 716.59 646.388 716.253L645.574 714.426ZM648.083 679.692L647.368 681.559C648.046 681.819 648.812 681.691 649.368 681.224C649.925 680.758 650.185 680.026 650.047 679.313L648.083 679.692ZM648.083 664.308L650.047 664.687C650.185 663.974 649.925 663.242 649.368 662.776C648.812 662.309 648.046 662.181 647.368 662.441L648.083 664.308ZM628 672L627.285 670.132C626.511 670.429 626 671.171 626 672C626 672.829 626.511 673.571 627.285 673.868L628 672ZM654.336 649.214L652.509 650.029C652.805 650.692 653.437 651.142 654.161 651.206C654.884 651.27 655.585 650.936 655.992 650.335L654.336 649.214ZM665.214 638.336L666.335 639.992C666.936 639.585 667.27 638.884 667.206 638.161C667.142 637.437 666.692 636.805 666.029 636.509L665.214 638.336ZM645.574 629.574L646.388 627.747C645.632 627.41 644.745 627.573 644.159 628.159C643.573 628.745 643.41 629.632 643.747 630.388L645.574 629.574ZM686.132 612.715L693.824 632.799L697.559 631.368L689.868 611.285L686.132 612.715ZM682.176 632.799L689.868 612.715L686.132 611.285L678.441 631.368L682.176 632.799ZM680.687 634.047C685.517 633.117 690.483 633.117 695.313 634.047L696.07 630.12C690.74 629.093 685.26 629.093 679.93 630.12L680.687 634.047ZM709.665 639.992C713.739 642.75 717.25 646.261 720.008 650.335L723.32 648.093C720.277 643.597 716.403 639.723 711.907 636.68L709.665 639.992ZM728.6 628.759L719.838 648.399L723.491 650.029L732.253 630.388L728.6 628.759ZM711.601 640.162L731.241 631.4L729.612 627.747L709.971 636.509L711.601 640.162ZM725.953 664.687C726.883 669.517 726.883 674.483 725.953 679.313L729.88 680.07C730.907 674.74 730.907 669.26 729.88 663.93L725.953 664.687ZM747.285 670.132L727.201 677.824L728.632 681.559L748.715 673.868L747.285 670.132ZM727.201 666.176L747.285 673.868L748.715 670.132L728.632 662.441L727.201 666.176ZM720.008 693.665C717.25 697.739 713.739 701.25 709.665 704.008L711.907 707.32C716.403 704.277 720.277 700.403 723.32 695.907L720.008 693.665ZM731.241 712.6L711.601 703.838L709.971 707.491L729.612 716.253L731.241 712.6ZM719.838 695.601L728.6 715.241L732.253 713.612L723.491 693.971L719.838 695.601ZM695.313 709.953C690.483 710.883 685.517 710.883 680.687 709.953L679.93 713.88C685.26 714.907 690.74 714.907 696.07 713.88L695.313 709.953ZM689.868 731.285L682.176 711.201L678.441 712.632L686.132 732.715L689.868 731.285ZM693.824 711.201L686.132 731.285L689.868 732.715L697.559 712.632L693.824 711.201ZM666.335 704.008C662.261 701.25 658.75 697.739 655.992 693.665L652.68 695.907C655.723 700.403 659.597 704.277 664.093 707.32L666.335 704.008ZM647.4 715.241L656.162 695.601L652.509 693.971L643.747 713.612L647.4 715.241ZM664.399 703.838L644.759 712.6L646.388 716.253L666.029 707.491L664.399 703.838ZM650.047 679.313C649.117 674.483 649.117 669.517 650.047 664.687L646.12 663.93C645.093 669.26 645.093 674.74 646.12 680.07L650.047 679.313ZM628.715 673.868L648.799 666.176L647.368 662.441L627.285 670.132L628.715 673.868ZM648.799 677.824L628.715 670.132L627.285 673.868L647.368 681.559L648.799 677.824ZM655.992 650.335C658.75 646.261 662.261 642.75 666.335 639.992L664.093 636.68C659.597 639.723 655.723 643.597 652.68 648.093L655.992 650.335ZM644.759 631.4L664.399 640.162L666.029 636.509L646.388 627.747L644.759 631.4ZM656.162 648.399L647.4 628.759L643.747 630.388L652.509 650.029L656.162 648.399Z" fill="currentColor"/>
</g>
<path d="M678.808 694.192C684.693 696.63 691.307 696.63 697.192 694.192C703.078 691.754 707.754 687.078 710.192 681.192C712.63 675.307 712.63 668.693 710.192 662.808C707.754 656.922 703.078 652.246 697.192 649.808C691.307 647.37 684.693 647.37 678.808 649.808C672.922 652.246 668.246 656.922 665.808 662.808C663.37 668.693 663.37 675.307 665.808 681.192C668.246 687.078 672.922 691.754 678.808 694.192Z" fill="currentColor" stroke="currentColor" stroke-width="4" stroke-linecap="round" stroke-linejoin="round"/>
<path fill-rule="evenodd" clip-rule="evenodd" d="M871.692 632.083L864 612L856.308 632.083C861.389 631.105 866.611 631.105 871.692 632.083ZM886.786 638.336C891.071 641.236 894.764 644.929 897.664 649.214L906.426 629.574L886.786 638.336ZM903.917 664.308C904.895 669.389 904.895 674.611 903.917 679.692L924 672L903.917 664.308ZM897.664 694.786C894.764 699.071 891.071 702.764 886.786 705.664L906.426 714.426L897.664 694.786ZM871.692 711.917C866.611 712.895 861.389 712.895 856.308 711.917L864 732L871.692 711.917ZM841.214 705.664C836.929 702.764 833.236 699.071 830.336 694.786L821.574 714.426L841.214 705.664ZM824.083 679.692C823.105 674.611 823.105 669.389 824.083 664.308L804 672L824.083 679.692ZM830.336 649.214C833.236 644.929 836.929 641.236 841.214 638.336L821.574 629.574L830.336 649.214Z" fill="#FFA500"/>
<path d="M864 612L865.868 611.285C865.571 610.511 864.829 610 864 610C863.171 610 862.429 610.511 862.132 611.285L864 612ZM871.692 632.083L871.313 634.047C872.026 634.185 872.758 633.925 873.224 633.368C873.691 632.812 873.819 632.046 873.559 631.368L871.692 632.083ZM856.308 632.083L854.441 631.368C854.181 632.046 854.309 632.812 854.776 633.368C855.242 633.925 855.974 634.185 856.687 634.047L856.308 632.083ZM886.786 638.336L885.971 636.509C885.308 636.805 884.858 637.437 884.794 638.161C884.73 638.884 885.064 639.585 885.665 639.992L886.786 638.336ZM897.664 649.214L896.008 650.335C896.415 650.936 897.116 651.27 897.839 651.206C898.563 651.142 899.195 650.692 899.491 650.029L897.664 649.214ZM906.426 629.574L908.253 630.388C908.59 629.632 908.427 628.745 907.841 628.159C907.255 627.573 906.368 627.41 905.612 627.747L906.426 629.574ZM903.917 664.308L904.632 662.441C903.954 662.181 903.188 662.309 902.632 662.776C902.075 663.242 901.815 663.974 901.953 664.687L903.917 664.308ZM903.917 679.692L901.953 679.313C901.815 680.026 902.075 680.758 902.632 681.224C903.188 681.691 903.954 681.819 904.632 681.559L903.917 679.692ZM924 672L924.715 673.868C925.489 673.571 926 672.829 926 672C926 671.171 925.489 670.429 924.715 670.132L924 672ZM897.664 694.786L899.491 693.971C899.195 693.308 898.563 692.858 897.839 692.794C897.116 692.73 896.415 693.064 896.008 693.665L897.664 694.786ZM886.786 705.664L885.665 704.008C885.064 704.415 884.73 705.116 884.794 705.839C884.858 706.563 885.308 707.195 885.971 707.491L886.786 705.664ZM906.426 714.426L905.612 716.253C906.368 716.59 907.255 716.427 907.841 715.841C908.427 715.255 908.59 714.368 908.253 713.612L906.426 714.426ZM871.692 711.917L873.559 712.632C873.819 711.954 873.691 711.188 873.224 710.632C872.758 710.075 872.026 709.815 871.313 709.953L871.692 711.917ZM856.308 711.917L856.687 709.953C855.974 709.815 855.242 710.075 854.776 710.632C854.309 711.188 854.181 711.954 854.441 712.632L856.308 711.917ZM864 732L862.132 732.715C862.429 733.489 863.171 734 864 734C864.829 734 865.571 733.489 865.868 732.715L864 732ZM841.214 705.664L842.029 707.491C842.692 707.195 843.142 706.563 843.206 705.839C843.27 705.116 842.936 704.415 842.335 704.008L841.214 705.664ZM830.336 694.786L831.992 693.665C831.585 693.064 830.884 692.73 830.161 692.794C829.437 692.858 828.805 693.308 828.509 693.971L830.336 694.786ZM821.574 714.426L819.747 713.612C819.41 714.368 819.573 715.255 820.159 715.841C820.745 716.427 821.632 716.59 822.388 716.253L821.574 714.426ZM824.083 679.692L823.368 681.559C824.046 681.819 824.812 681.691 825.368 681.224C825.925 680.758 826.185 680.026 826.047 679.313L824.083 679.692ZM824.083 664.308L826.047 664.687C826.185 663.974 825.925 663.242 825.368 662.776C824.812 662.309 824.046 662.181 823.368 662.441L824.083 664.308ZM804 672L803.285 670.132C802.511 670.429 802 671.171 802 672C802 672.829 802.511 673.571 803.285 673.868L804 672ZM830.336 649.214L828.509 650.029C828.805 650.692 829.437 651.142 830.161 651.206C830.884 651.27 831.585 650.936 831.992 650.335L830.336 649.214ZM841.214 638.336L842.335 639.992C842.936 639.585 843.27 638.884 843.206 638.161C843.142 637.437 842.692 636.805 842.029 636.509L841.214 638.336ZM821.574 629.574L822.388 627.747C821.632 627.41 820.745 627.573 820.159 628.159C819.573 628.745 819.41 629.632 819.747 630.388L821.574 629.574ZM862.132 612.715L869.824 632.799L873.559 631.368L865.868 611.285L862.132 612.715ZM858.176 632.799L865.868 612.715L862.132 611.285L854.441 631.368L858.176 632.799ZM856.687 634.047C861.517 633.117 866.483 633.117 871.313 634.047L872.07 630.12C866.74 629.093 861.26 629.093 855.93 630.12L856.687 634.047ZM885.665 639.992C889.739 642.75 893.25 646.261 896.008 650.335L899.32 648.093C896.277 643.597 892.403 639.723 887.907 636.68L885.665 639.992ZM904.6 628.759L895.838 648.399L899.491 650.029L908.253 630.388L904.6 628.759ZM887.601 640.162L907.241 631.4L905.612 627.747L885.971 636.509L887.601 640.162ZM901.953 664.687C902.883 669.517 902.883 674.483 901.953 679.313L905.88 680.07C906.907 674.74 906.907 669.26 905.88 663.93L901.953 664.687ZM923.285 670.132L903.201 677.824L904.632 681.559L924.715 673.868L923.285 670.132ZM903.201 666.176L923.285 673.868L924.715 670.132L904.632 662.441L903.201 666.176ZM896.008 693.665C893.25 697.739 889.739 701.25 885.665 704.008L887.907 707.32C892.403 704.277 896.277 700.403 899.32 695.907L896.008 693.665ZM907.241 712.6L887.601 703.838L885.971 707.491L905.612 716.253L907.241 712.6ZM895.838 695.601L904.6 715.241L908.253 713.612L899.491 693.971L895.838 695.601ZM871.313 709.953C866.483 710.883 861.517 710.883 856.687 709.953L855.93 713.88C861.26 714.907 866.74 714.907 872.07 713.88L871.313 709.953ZM865.868 731.285L858.176 711.201L854.441 712.632L862.132 732.715L865.868 731.285ZM869.824 711.201L862.132 731.285L865.868 732.715L873.559 712.632L869.824 711.201ZM842.335 704.008C838.261 701.25 834.75 697.739 831.992 693.665L828.68 695.907C831.723 700.403 835.597 704.277 840.093 707.32L842.335 704.008ZM823.4 715.241L832.162 695.601L828.509 693.971L819.747 713.612L823.4 715.241ZM840.399 703.838L820.759 712.6L822.388 716.253L842.029 707.491L840.399 703.838ZM826.047 679.313C825.117 674.483 825.117 669.517 826.047 664.687L822.12 663.93C821.093 669.26 821.093 674.74 822.12 680.07L826.047 679.313ZM804.715 673.868L824.799 666.176L823.368 662.441L803.285 670.132L804.715 673.868ZM824.799 677.824L804.715 670.132L803.285 673.868L823.368 681.559L824.799 677.824ZM831.992 650.335C834.75 646.261 838.261 642.75 842.335 639.992L840.093 636.68C835.597 639.723 831.723 643.597 828.68 648.093L831.992 650.335ZM820.759 631.4L840.399 640.162L842.029 636.509L822.388 627.747L820.759 631.4ZM832.162 648.399L823.4 628.759L819.747 630.388L828.509 650.029L832.162 648.399Z" fill="#FFA500"/>
<path d="M854.808 694.192C860.693 696.63 867.307 696.63 873.192 694.192C879.078 691.754 883.754 687.078 886.192 681.192C888.63 675.307 888.63 668.693 886.192 662.808C883.754 656.922 879.078 652.246 873.192 649.808C867.307 647.37 860.693 647.37 854.808 649.808C848.922 652.246 844.246 656.922 841.808 662.808C839.37 668.693 839.37 675.307 841.808 681.192C844.246 687.078 848.922 691.754 854.808 694.192Z" fill="#FFD700" stroke="#FFD700" stroke-width="4" stroke-linecap="round" stroke-linejoin="round"/>
</svg>
