<svg viewBox="0 0 1024 768" fill="none" xmlns="http://www.w3.org/2000/svg">
<path d="M424 36L443.75 68.817L481.063 77.459L455.955 106.383L459.267 144.541L424 129.6L388.733 144.541L392.045 106.383L366.937 77.459L404.25 68.817L424 36Z" stroke="#7B61FF" stroke-width="2" stroke-linecap="round" stroke-linejoin="round"/>
<path d="M600 156L660 96L600 36L540 96L600 156Z" stroke="#7B61FF" stroke-width="2" stroke-linecap="round" stroke-linejoin="round"/>
<path fill-rule="evenodd" clip-rule="evenodd" d="M581.941 469.059C569.81 481.19 551.533 484.749 535.737 478.057L531.248 476.155C518.945 470.943 505.054 470.943 492.751 476.155L488.262 478.057C472.466 484.749 454.189 481.19 442.058 469.059C433.264 460.264 428.807 448.032 429.882 435.641L430.242 431.498C431.436 417.73 426.997 404.066 417.937 393.63L405.326 379.102C393.958 366.006 394.651 346.349 406.914 334.086C411.286 329.714 416.797 326.657 422.82 325.262L443.674 320.432C455.787 317.627 466.245 310.029 472.657 299.375C490.503 269.72 533.496 269.72 551.343 299.375C557.754 310.029 568.212 317.627 580.325 320.432L601.179 325.262C607.203 326.657 612.714 329.714 617.085 334.086C629.348 346.349 630.041 366.006 618.673 379.102L606.062 393.63C597.003 404.066 592.563 417.73 593.758 431.498L594.117 435.641C595.193 448.032 590.736 460.264 581.941 469.059ZM524.5 414C534.165 423.665 549.835 423.665 559.5 414C569.165 404.335 569.165 388.665 559.5 379C549.835 369.335 534.165 369.335 524.5 379C514.835 388.665 514.835 404.335 524.5 414ZM464.5 391.5C458.977 397.023 450.023 397.023 444.5 391.5C438.977 385.977 438.977 377.023 444.5 371.5C450.023 365.977 458.977 365.977 464.5 371.5C470.023 377.023 470.023 385.977 464.5 391.5ZM502 329C504.761 331.762 509.238 331.762 512 329C514.761 326.239 514.761 321.762 512 319C509.238 316.239 504.761 316.239 502 319C499.238 321.762 499.238 326.239 502 329Z" fill="#888888" fill-opacity="0.5"/>
<path d="M559.5 414L563.035 417.536L559.5 414ZM559.5 379L563.035 375.465L559.5 379ZM444.5 391.5L448.035 387.965L448.035 387.965L444.5 391.5ZM464.5 391.5L460.964 387.965H460.964L464.5 391.5ZM444.5 371.5L440.964 367.965L440.964 367.965L444.5 371.5ZM464.5 371.5L468.035 367.965L468.035 367.965L464.5 371.5ZM512 329L508.464 325.465L508.464 325.465L512 329ZM502 329L498.464 332.536V332.536L502 329ZM512 319L508.464 322.536V322.536L512 319ZM502 319L498.464 315.465L498.464 315.465L502 319ZM594.117 435.641L589.136 436.073L594.117 435.641ZM443.674 320.432L442.546 315.561L443.674 320.432ZM405.326 379.102L401.55 382.38L405.326 379.102ZM535.737 478.057L533.787 482.661L535.737 478.057ZM529.298 480.759L533.787 482.661L537.688 473.453L533.199 471.551L529.298 480.759ZM490.213 482.661L494.702 480.759L490.801 471.551L486.312 473.453L490.213 482.661ZM425.26 431.066L424.901 435.209L434.863 436.073L435.223 431.931L425.26 431.066ZM401.55 382.38L414.161 396.907L421.713 390.352L409.102 375.824L401.55 382.38ZM442.546 315.561L421.692 320.391L423.948 330.133L444.802 325.303L442.546 315.561ZM602.307 320.391L581.454 315.561L579.197 325.303L600.051 330.133L602.307 320.391ZM609.838 396.907L622.449 382.38L614.897 375.824L602.286 390.352L609.838 396.907ZM599.099 435.208L598.739 431.066L588.777 431.931L589.136 436.073L599.099 435.208ZM555.964 410.465C548.252 418.177 535.748 418.177 528.035 410.465L520.964 417.536C532.582 429.153 551.418 429.153 563.035 417.536L555.964 410.465ZM555.964 382.536C563.677 390.248 563.677 402.752 555.964 410.465L563.035 417.536C574.653 405.918 574.653 387.082 563.035 375.465L555.964 382.536ZM528.035 382.536C535.748 374.823 548.252 374.823 555.964 382.536L563.035 375.465C551.418 363.847 532.582 363.847 520.964 375.465L528.035 382.536ZM528.035 410.465C520.323 402.752 520.323 390.248 528.035 382.536L520.964 375.465C509.347 387.082 509.347 405.918 520.964 417.536L528.035 410.465ZM440.964 395.036C448.44 402.511 460.56 402.511 468.035 395.036L460.964 387.965C457.394 391.535 451.605 391.535 448.035 387.965L440.964 395.036ZM440.964 367.965C433.489 375.44 433.489 387.56 440.964 395.036L448.035 387.965C444.465 384.394 444.465 378.606 448.035 375.036L440.964 367.965ZM468.035 367.965C460.56 360.489 448.44 360.489 440.964 367.965L448.035 375.036C451.605 371.466 457.394 371.466 460.964 375.036L468.035 367.965ZM468.035 395.036C475.511 387.56 475.511 375.44 468.035 367.965L460.964 375.036C464.534 378.606 464.534 384.394 460.964 387.965L468.035 395.036ZM508.464 325.465C507.655 326.273 506.344 326.274 505.535 325.465L498.464 332.536C503.178 337.25 510.821 337.25 515.535 332.536L508.464 325.465ZM508.464 322.536C509.273 323.345 509.273 324.656 508.464 325.465L515.535 332.536C520.249 327.822 520.249 320.179 515.535 315.465L508.464 322.536ZM505.535 322.536C506.344 321.727 507.655 321.727 508.464 322.536L515.535 315.465C510.821 310.751 503.178 310.751 498.464 315.465L505.535 322.536ZM505.535 325.465C504.726 324.656 504.726 323.345 505.535 322.536L498.464 315.465C493.75 320.179 493.75 327.822 498.464 332.536L505.535 325.465ZM589.136 436.073C590.084 446.993 586.156 457.773 578.406 465.523L585.477 472.594C595.315 462.755 600.302 449.071 599.099 435.208L589.136 436.073ZM602.286 390.352C592.339 401.811 587.465 416.814 588.777 431.931L598.739 431.066C597.661 418.647 601.666 406.321 609.838 396.907L602.286 390.352ZM613.55 337.622C623.957 348.028 624.545 364.71 614.897 375.824L622.449 382.38C635.538 367.302 634.74 344.669 620.621 330.55L613.55 337.622ZM600.051 330.133C605.163 331.317 609.84 333.911 613.55 337.622L620.621 330.55C615.587 325.517 609.242 321.997 602.307 320.391L600.051 330.133ZM547.059 301.953C554.168 313.767 565.765 322.192 579.197 325.303L581.454 315.561C570.659 313.061 561.34 306.29 555.627 296.797L547.059 301.953ZM476.941 301.953C492.844 275.527 531.156 275.527 547.059 301.953L555.627 296.797C535.837 263.913 488.162 263.913 468.373 296.797L476.941 301.953ZM444.802 325.303C458.235 322.192 469.831 313.767 476.941 301.953L468.373 296.797C462.659 306.29 453.34 313.061 442.546 315.561L444.802 325.303ZM410.449 337.622C414.16 333.911 418.836 331.317 423.948 330.133L421.692 320.391C414.757 321.997 408.412 325.517 403.378 330.55L410.449 337.622ZM409.102 375.824C399.454 364.71 400.043 348.028 410.449 337.622L403.378 330.55C389.26 344.669 388.461 367.301 401.55 382.38L409.102 375.824ZM435.223 431.931C436.535 416.814 431.66 401.811 421.713 390.352L414.161 396.907C422.333 406.321 426.338 418.647 425.26 431.066L435.223 431.931ZM445.594 465.523C437.843 457.773 433.916 446.993 434.863 436.073L424.901 435.209C423.698 449.071 428.684 462.756 438.523 472.594L445.594 465.523ZM486.312 473.453C472.391 479.35 456.284 476.214 445.594 465.523L438.523 472.594C452.094 486.165 472.541 490.147 490.213 482.661L486.312 473.453ZM533.787 482.661C551.459 490.147 571.906 486.165 585.477 472.594L578.406 465.523C567.715 476.214 551.608 479.35 537.688 473.453L533.787 482.661ZM533.199 471.551C519.649 465.811 504.35 465.811 490.801 471.551L494.702 480.759C505.758 476.075 518.241 476.075 529.298 480.759L533.199 471.551Z" fill="currentColor"/>
<path d="M524.5 414C534.165 423.665 549.835 423.665 559.5 414C569.165 404.335 569.165 388.665 559.5 379C549.835 369.335 534.165 369.335 524.5 379C514.835 388.665 514.835 404.335 524.5 414Z" fill="#888888" fill-opacity="0.5" stroke="currentColor" stroke-width="10" stroke-linecap="round" stroke-linejoin="round"/>
<path d="M444.5 391.5C450.023 397.023 458.977 397.023 464.5 391.5C470.023 385.977 470.023 377.023 464.5 371.5C458.977 365.977 450.023 365.977 444.5 371.5C438.977 377.023 438.977 385.977 444.5 391.5Z" fill="#888888" fill-opacity="0.5" stroke="currentColor" stroke-width="10" stroke-linecap="round" stroke-linejoin="round"/>
<path d="M502 329C504.761 331.761 509.239 331.761 512 329C514.761 326.239 514.761 321.761 512 319C509.239 316.239 504.761 316.239 502 319C499.239 321.761 499.239 326.239 502 329Z" fill="#888888" fill-opacity="0.5" stroke="currentColor" stroke-width="10" stroke-linecap="round" stroke-linejoin="round"/>
<g opacity="0.25">
<path d="M512 238.839L559.781 318.235L650.057 339.143L589.312 409.12L597.324 501.438L512 465.29L426.676 501.438L434.688 409.12L373.943 339.143L464.219 318.235L512 238.839Z" stroke="currentColor" stroke-width="2.41935" stroke-linecap="round" stroke-linejoin="round"/>
<path d="M512 534L362 384L512 234L662 384L512 534Z" stroke="currentColor" stroke-width="2.41935" stroke-linecap="round" stroke-linejoin="round"/>
</g>
<path d="M179 684.001L178.293 683.293L179 684.001ZM179 670.001L178.293 670.708L179 670.001ZM165 670.001L165.707 670.708L165 670.001ZM133 675.001L132.293 675.708H132.293L133 675.001ZM141 675.001L141.707 675.708H141.707L141 675.001ZM133 667.001L133.707 667.708L133 667.001ZM141 667.001L140.293 667.708H140.293L141 667.001ZM160 650.001L160.707 650.708L160 650.001ZM156 650.001L156.707 649.293V649.293L156 650.001ZM160 646.001L160.707 645.293V645.293L160 646.001ZM156 646.001L156.707 646.708L156 646.001ZM124.328 648.505L124.102 647.531L124.328 648.505ZM127.153 692.657L126.157 692.571L127.153 692.657ZM169.495 709.623L169.885 708.702L169.495 709.623ZM192.847 692.657L191.851 692.743L192.847 692.657ZM167.309 709.783L169.105 710.544L169.885 708.702L168.09 707.942L167.309 709.783ZM150.895 710.544L152.691 709.783L151.911 707.942L150.115 708.702L150.895 710.544ZM126.301 690.913L126.157 692.571L128.149 692.743L128.293 691.086L126.301 690.913ZM116.575 670.697L121.62 676.508L123.13 675.197L118.086 669.385L116.575 670.697ZM132.444 645.599L124.102 647.531L124.554 649.479L132.895 647.547L132.444 645.599ZM195.897 647.531L187.556 645.599L187.105 647.547L195.446 649.479L195.897 647.531ZM198.38 676.508L203.424 670.697L201.914 669.386L196.87 675.197L198.38 676.508ZM193.843 692.57L193.7 690.913L191.707 691.086L191.851 692.743L193.843 692.57ZM178.293 683.293C174.818 686.769 169.183 686.769 165.707 683.293L164.293 684.708C168.55 688.964 175.451 688.964 179.707 684.708L178.293 683.293ZM178.293 670.708C181.769 674.183 181.769 679.818 178.293 683.293L179.707 684.708C183.964 680.451 183.964 673.55 179.707 669.293L178.293 670.708ZM165.707 670.708C169.183 667.232 174.818 667.232 178.293 670.708L179.707 669.293C175.451 665.037 168.55 665.037 164.293 669.293L165.707 670.708ZM165.707 683.293C162.232 679.818 162.232 674.183 165.707 670.708L164.293 669.293C160.037 673.55 160.037 680.451 164.293 684.708L165.707 683.293ZM132.293 675.708C134.893 678.307 139.108 678.307 141.707 675.708L140.293 674.293C138.474 676.112 135.526 676.112 133.707 674.293L132.293 675.708ZM132.293 666.293C129.693 668.893 129.693 673.108 132.293 675.708L133.707 674.293C131.889 672.475 131.889 669.526 133.707 667.708L132.293 666.293ZM141.707 666.293C139.108 663.694 134.893 663.694 132.293 666.293L133.707 667.708C135.526 665.889 138.474 665.889 140.293 667.708L141.707 666.293ZM141.707 675.708C144.307 673.108 144.307 668.893 141.707 666.293L140.293 667.708C142.112 669.526 142.112 672.475 140.293 674.293L141.707 675.708ZM159.293 649.293C158.579 650.007 157.421 650.007 156.707 649.293L155.293 650.708C156.788 652.203 159.212 652.203 160.707 650.708L159.293 649.293ZM159.293 646.708C160.007 647.422 160.007 648.579 159.293 649.293L160.707 650.708C162.202 649.213 162.202 646.789 160.707 645.293L159.293 646.708ZM156.707 646.708C157.421 645.994 158.579 645.994 159.293 646.708L160.707 645.293C159.212 643.798 156.788 643.798 155.293 645.293L156.707 646.708ZM156.707 649.293C155.993 648.579 155.993 647.422 156.707 646.708L155.293 645.293C153.798 646.789 153.798 649.213 155.293 650.708L156.707 649.293ZM196.87 675.197C193.069 679.576 191.206 685.309 191.707 691.086L193.7 690.913C193.245 685.676 194.934 680.478 198.38 676.508L196.87 675.197ZM201.327 652.742C205.861 657.276 206.117 664.544 201.914 669.386L203.424 670.697C208.316 665.062 208.018 656.604 202.741 651.328L201.327 652.742ZM195.446 649.479C197.673 649.995 199.711 651.125 201.327 652.742L202.741 651.328C200.86 649.447 198.489 648.131 195.897 647.531L195.446 649.479ZM174.881 638.666C177.585 643.159 181.996 646.364 187.105 647.547L187.556 645.599C182.974 644.538 179.019 641.664 176.594 637.635L174.881 638.666ZM145.12 638.666C151.87 627.45 168.131 627.45 174.881 638.666L176.594 637.635C169.067 625.127 150.933 625.127 143.406 637.635L145.12 638.666ZM132.895 647.547C138.005 646.364 142.415 643.159 145.12 638.666L143.406 637.635C140.981 641.664 137.026 644.538 132.444 645.599L132.895 647.547ZM118.673 652.742C120.289 651.126 122.327 649.995 124.554 649.479L124.102 647.531C121.511 648.131 119.14 649.447 117.259 651.328L118.673 652.742ZM118.086 669.385C113.883 664.544 114.139 657.276 118.673 652.742L117.259 651.328C111.982 656.604 111.684 665.062 116.575 670.697L118.086 669.385ZM128.293 691.086C128.794 685.309 126.932 679.576 123.13 675.197L121.62 676.508C125.066 680.478 126.755 685.676 126.301 690.913L128.293 691.086ZM132.731 705.317C129.422 702.008 127.745 697.406 128.149 692.743L126.157 692.571C125.701 697.821 127.59 703.004 131.316 706.731L132.731 705.317ZM150.115 708.702C144.171 711.22 137.295 709.881 132.731 705.317L131.316 706.731C136.457 711.871 144.201 713.38 150.895 710.544L150.115 708.702ZM168.09 707.942C162.919 705.751 157.081 705.751 151.911 707.942L152.691 709.783C157.363 707.804 162.637 707.804 167.309 709.783L168.09 707.942ZM187.269 705.317C182.705 709.881 175.828 711.22 169.885 708.702L169.105 710.544C175.798 713.38 183.543 711.871 188.684 706.731L187.269 705.317ZM188.684 706.731C192.41 703.004 194.299 697.821 193.843 692.57L191.851 692.743C192.256 697.405 190.578 702.008 187.269 705.317L188.684 706.731Z" fill="currentColor"/>
<path d="M323.69 640.213L323.262 639.955L323.69 640.213ZM348.31 640.213L347.882 640.471L348.31 640.213ZM309.572 650.47L309.459 649.983L309.572 650.47ZM301.23 652.402L301.118 651.915L301.23 652.402ZM296.794 654.863L297.147 655.217H297.147L296.794 654.863ZM296.351 667.419L295.974 667.747L296.351 667.419ZM301.396 673.23L301.773 672.902L301.396 673.23ZM307.282 691.346L306.784 691.302L307.282 691.346ZM307.138 693.003L307.636 693.046L307.138 693.003ZM310.852 703.196L311.205 702.842L310.852 703.196ZM324.944 705.94L324.749 705.48L324.944 705.94ZM326.74 705.179L326.935 705.64L326.74 705.179ZM345.26 705.179L345.455 704.719L345.26 705.179ZM347.055 705.94L347.25 705.479L347.055 705.94ZM361.148 703.195L361.502 703.549L361.148 703.195ZM364.862 693.002L365.36 692.959L364.862 693.002ZM364.718 691.346L365.216 691.302L364.718 691.346ZM370.604 673.23L370.982 673.558L370.604 673.23ZM375.648 667.419L375.271 667.092L375.648 667.419ZM375.206 654.863L375.559 654.51L375.206 654.863ZM370.769 652.402L370.656 652.889L370.769 652.402ZM362.428 650.47L362.541 649.983L362.428 650.47ZM355.164 636.088L355.593 635.83L355.164 636.088ZM316.835 636.088L316.407 635.83L316.835 636.088ZM364.233 642.676L364.12 643.163L364.233 642.676ZM372.574 644.608L372.461 645.095L372.574 644.608ZM380.862 649.206L381.216 648.853L380.862 649.206ZM381.69 672.664L382.067 672.991L381.69 672.664ZM376.646 678.474L376.268 678.147L376.646 678.474ZM372.688 690.654L373.186 690.611L372.688 690.654ZM372.832 692.311L373.33 692.267L372.832 692.311ZM343.934 713.306L344.129 712.846L343.934 713.306ZM342.139 712.545L341.944 713.006H341.944L342.139 712.545ZM329.861 712.545L330.056 713.006L329.861 712.545ZM328.065 713.306L327.87 712.846H327.87L328.065 713.306ZM305.195 708.852L305.548 708.499H305.548L305.195 708.852ZM299.168 692.311L299.666 692.354L299.168 692.311ZM299.312 690.654L298.814 690.611L299.312 690.654ZM295.354 678.474L294.977 678.802L295.354 678.474ZM290.31 672.663L290.687 672.335H290.687L290.31 672.663ZM291.137 649.206L291.491 649.56L291.137 649.206ZM299.425 644.608L299.538 645.095L299.425 644.608ZM307.767 642.676L307.88 643.163L307.767 642.676ZM324.118 640.471C329.508 631.515 342.492 631.515 347.882 640.471L348.738 639.955C342.96 630.354 329.04 630.354 323.262 639.955L324.118 640.471ZM309.685 650.957C315.717 649.56 320.925 645.776 324.118 640.471L323.262 639.955C320.208 645.029 315.228 648.647 309.459 649.983L309.685 650.957ZM301.343 652.889L309.685 650.957L309.459 649.983L301.118 651.915L301.343 652.889ZM297.147 655.217C298.301 654.064 299.754 653.257 301.343 652.889L301.118 651.915C299.346 652.325 297.726 653.224 296.44 654.51L297.147 655.217ZM296.729 667.091C293.73 663.637 293.913 658.451 297.147 655.217L296.44 654.51C292.835 658.116 292.631 663.896 295.974 667.747L296.729 667.091ZM301.773 672.902L296.729 667.091L295.974 667.747L301.018 673.558L301.773 672.902ZM307.78 691.389C308.363 684.668 306.196 677.997 301.773 672.902L301.018 673.558C305.263 678.448 307.343 684.851 306.784 691.302L307.78 691.389ZM307.636 693.046L307.78 691.389L306.784 691.302L306.64 692.96L307.636 693.046ZM311.205 702.842C308.627 700.264 307.321 696.678 307.636 693.046L306.64 692.96C306.299 696.886 307.711 700.762 310.498 703.549L311.205 702.842ZM324.749 705.48C320.119 707.441 314.761 706.398 311.205 702.842L310.498 703.549C314.342 707.393 320.134 708.521 325.139 706.4L324.749 705.48ZM326.545 704.719L324.749 705.48L325.139 706.4L326.935 705.64L326.545 704.719ZM345.455 704.719C339.412 702.159 332.588 702.159 326.545 704.719L326.935 705.64C332.729 703.185 339.271 703.185 345.065 705.64L345.455 704.719ZM347.25 705.479L345.455 704.719L345.065 705.64L346.86 706.4L347.25 705.479ZM360.795 702.842C357.238 706.398 351.881 707.441 347.25 705.479L346.86 706.4C351.866 708.521 357.658 707.393 361.502 703.549L360.795 702.842ZM364.364 693.046C364.679 696.678 363.373 700.264 360.795 702.842L361.502 703.549C364.289 700.762 365.701 696.886 365.36 692.959L364.364 693.046ZM364.22 691.389L364.364 693.046L365.36 692.959L365.216 691.302L364.22 691.389ZM370.227 672.902C365.804 677.997 363.637 684.668 364.22 691.389L365.216 691.302C364.656 684.851 366.737 678.448 370.982 673.558L370.227 672.902ZM375.271 667.092L370.227 672.902L370.982 673.558L376.026 667.747L375.271 667.092ZM374.852 655.217C378.087 658.452 378.27 663.637 375.271 667.092L376.026 667.747C379.369 663.896 379.165 658.116 375.559 654.51L374.852 655.217ZM370.656 652.889C372.245 653.257 373.699 654.063 374.852 655.217L375.559 654.51C374.274 653.224 372.653 652.325 370.882 651.915L370.656 652.889ZM362.315 650.957L370.656 652.889L370.882 651.915L362.541 649.983L362.315 650.957ZM347.882 640.471C351.074 645.776 356.282 649.56 362.315 650.957L362.541 649.983C356.772 648.647 351.792 645.029 348.738 639.955L347.882 640.471ZM355.593 635.83C346.705 621.062 325.295 621.062 316.407 635.83L317.264 636.346C325.763 622.223 346.237 622.223 354.736 636.346L355.593 635.83ZM364.346 642.189C360.687 641.342 357.529 639.047 355.593 635.83L354.736 636.346C356.812 639.795 360.198 642.255 364.12 643.163L364.346 642.189ZM372.687 644.121L364.346 642.189L364.12 643.163L372.461 645.095L372.687 644.121ZM381.216 648.853C378.872 646.509 375.917 644.869 372.687 644.121L372.461 645.095C375.509 645.801 378.297 647.348 380.509 649.56L381.216 648.853ZM382.067 672.991C388.163 665.969 387.792 655.428 381.216 648.853L380.509 649.56C386.713 655.764 387.064 665.71 381.312 672.336L382.067 672.991ZM377.023 678.802L382.067 672.991L381.312 672.336L376.268 678.147L377.023 678.802ZM373.186 690.611C372.814 686.317 374.198 682.057 377.023 678.802L376.268 678.147C373.266 681.605 371.794 686.134 372.19 690.697L373.186 690.611ZM373.33 692.267L373.186 690.611L372.19 690.697L372.334 692.354L373.33 692.267ZM367.158 709.206C371.616 704.748 373.875 698.548 373.33 692.267L372.334 692.354C372.853 698.34 370.7 704.25 366.451 708.499L367.158 709.206ZM343.739 713.766C351.746 717.158 361.01 715.354 367.158 709.206L366.451 708.499C360.591 714.359 351.761 716.079 344.129 712.846L343.739 713.766ZM341.944 713.006L343.739 713.766L344.129 712.846L342.334 712.085L341.944 713.006ZM330.056 713.006C333.855 711.396 338.145 711.396 341.944 713.006L342.334 712.085C338.285 710.37 333.714 710.37 329.666 712.085L330.056 713.006ZM328.26 713.767L330.056 713.006L329.666 712.085L327.87 712.846L328.26 713.767ZM304.841 709.206C310.99 715.355 320.254 717.159 328.26 713.767L327.87 712.846C320.239 716.079 311.409 714.359 305.548 708.499L304.841 709.206ZM298.67 692.268C298.125 698.548 300.384 704.748 304.841 709.206L305.548 708.499C301.3 704.25 299.146 698.341 299.666 692.354L298.67 692.268ZM298.814 690.611L298.67 692.268L299.666 692.354L299.81 690.697L298.814 690.611ZM294.977 678.802C297.802 682.056 299.186 686.317 298.814 690.611L299.81 690.697C300.206 686.134 298.734 681.605 295.732 678.147L294.977 678.802ZM289.932 672.991L294.977 678.802L295.732 678.147L290.687 672.335L289.932 672.991ZM290.784 648.853C284.208 655.428 283.836 665.969 289.932 672.991L290.687 672.335C284.936 665.71 285.286 655.764 291.491 649.56L290.784 648.853ZM299.313 644.121C296.083 644.869 293.128 646.509 290.784 648.853L291.491 649.56C293.703 647.348 296.491 645.801 299.538 645.095L299.313 644.121ZM307.654 642.189L299.313 644.121L299.538 645.095L307.88 643.163L307.654 642.189ZM316.407 635.83C314.471 639.047 311.313 641.342 307.654 642.189L307.88 643.163C311.802 642.255 315.188 639.795 317.264 636.346L316.407 635.83Z" fill="currentColor"/>
<path d="M329.172 643.172L329.525 643.525L329.172 643.172ZM338.829 643.172L338.475 643.525L338.829 643.172ZM334.829 647.172L335.182 646.818V646.818L334.829 647.172ZM333.172 647.172L332.818 646.818V646.818L333.172 647.172ZM319.829 677.829L320.182 678.182L319.829 677.829ZM306.172 677.829L305.818 678.182H305.818L306.172 677.829ZM319.829 664.172L319.475 664.525L319.829 664.172ZM306.172 664.172L305.818 663.818L306.172 664.172ZM311.829 672.172L312.182 671.818H312.182L311.829 672.172ZM314.172 672.172L313.818 671.818L314.172 672.172ZM314.172 669.829L313.818 670.182H313.818L314.172 669.829ZM357.829 686.829L358.182 687.182L357.829 686.829ZM338.172 686.829L337.818 687.182L338.172 686.829ZM357.829 667.172L357.475 667.525L357.829 667.172ZM338.172 667.172L337.818 666.818L338.172 667.172ZM343.829 681.172L344.182 680.818L343.829 681.172ZM343.829 672.829L344.182 673.182L343.829 672.829ZM352.172 672.829L352.525 672.475L352.172 672.829ZM328.818 653.182C331.68 656.044 336.32 656.044 339.182 653.182L338.475 652.475C336.004 654.947 331.997 654.947 329.525 652.475L328.818 653.182ZM328.818 642.818C325.956 645.68 325.956 650.32 328.818 653.182L329.525 652.475C327.054 650.004 327.054 645.997 329.525 643.525L328.818 642.818ZM339.182 642.818C336.32 639.956 331.68 639.956 328.818 642.818L329.525 643.525C331.997 641.054 336.004 641.054 338.475 643.525L339.182 642.818ZM339.182 653.182C342.044 650.32 342.044 645.68 339.182 642.818L338.475 643.525C340.946 645.997 340.946 650.004 338.475 652.475L339.182 653.182ZM334.475 647.525C334.737 647.788 334.737 648.213 334.475 648.475L335.182 649.182C335.835 648.529 335.835 647.471 335.182 646.818L334.475 647.525ZM333.525 647.525C333.788 647.263 334.213 647.263 334.475 647.525L335.182 646.818C334.529 646.166 333.471 646.166 332.818 646.818L333.525 647.525ZM333.525 648.475C333.263 648.213 333.263 647.788 333.525 647.525L332.818 646.818C332.165 647.471 332.165 648.529 332.818 649.182L333.525 648.475ZM334.475 648.475C334.213 648.737 333.788 648.737 333.525 648.475L332.818 649.182C333.471 649.835 334.529 649.835 335.182 649.182L334.475 648.475ZM319.475 677.475C315.899 681.051 310.101 681.051 306.525 677.475L305.818 678.182C309.785 682.149 316.216 682.149 320.182 678.182L319.475 677.475ZM319.475 664.525C323.051 668.101 323.051 673.899 319.475 677.475L320.182 678.182C324.149 674.216 324.149 667.785 320.182 663.818L319.475 664.525ZM306.525 664.525C310.101 660.949 315.899 660.949 319.475 664.525L320.182 663.818C316.216 659.852 309.785 659.852 305.818 663.818L306.525 664.525ZM306.525 677.475C302.949 673.899 302.949 668.101 306.525 664.525L305.818 663.818C301.852 667.785 301.852 674.216 305.818 678.182L306.525 677.475ZM311.475 672.525C312.317 673.368 313.683 673.368 314.525 672.525L313.818 671.818C313.366 672.27 312.634 672.27 312.182 671.818L311.475 672.525ZM311.475 669.475C310.633 670.317 310.633 671.683 311.475 672.525L312.182 671.818C311.73 671.367 311.73 670.634 312.182 670.182L311.475 669.475ZM314.525 669.475C313.683 668.633 312.317 668.633 311.475 669.475L312.182 670.182C312.634 669.731 313.366 669.731 313.818 670.182L314.525 669.475ZM314.525 672.525C315.368 671.683 315.368 670.317 314.525 669.475L313.818 670.182C314.27 670.634 314.27 671.367 313.818 671.818L314.525 672.525ZM357.475 686.475C352.242 691.708 343.758 691.708 338.525 686.475L337.818 687.182C343.441 692.806 352.559 692.806 358.182 687.182L357.475 686.475ZM357.475 667.525C362.708 672.758 362.708 681.242 357.475 686.475L358.182 687.182C363.805 681.559 363.805 672.442 358.182 666.818L357.475 667.525ZM338.525 667.525C343.758 662.293 352.242 662.293 357.475 667.525L358.182 666.818C352.559 661.195 343.441 661.195 337.818 666.818L338.525 667.525ZM338.525 686.475C333.292 681.242 333.292 672.758 338.525 667.525L337.818 666.818C332.195 672.442 332.195 681.559 337.818 687.182L338.525 686.475ZM343.475 681.525C345.974 684.025 350.026 684.025 352.525 681.525L351.818 680.818C349.71 682.927 346.291 682.927 344.182 680.818L343.475 681.525ZM343.475 672.475C340.976 674.974 340.976 679.026 343.475 681.525L344.182 680.818C342.073 678.71 342.073 675.291 344.182 673.182L343.475 672.475ZM352.525 672.475C350.026 669.976 345.974 669.976 343.475 672.475L344.182 673.182C346.291 671.074 349.71 671.074 351.818 673.182L352.525 672.475ZM352.525 681.525C355.024 679.026 355.024 674.974 352.525 672.475L351.818 673.182C353.927 675.291 353.927 678.71 351.818 680.818L352.525 681.525Z" fill="currentColor"/>
<path fill-rule="evenodd" clip-rule="evenodd" d="M544.847 692.657C545.277 697.613 543.494 702.506 539.976 706.024C535.124 710.876 527.813 712.3 521.495 709.623L519.699 708.862C514.778 706.777 509.222 706.777 504.301 708.862L502.505 709.623C496.186 712.3 488.876 710.876 484.023 706.024C480.506 702.506 478.723 697.613 479.153 692.657L479.297 691C479.775 685.492 477.999 680.027 474.375 675.852L469.33 670.041C464.783 664.803 465.06 656.94 469.965 652.035C471.714 650.286 473.919 649.063 476.328 648.505L484.67 646.573C489.515 645.451 493.698 642.412 496.263 638.15C503.401 626.288 520.599 626.288 527.737 638.15C530.302 642.412 534.485 645.451 539.33 646.573L547.672 648.505C550.081 649.063 552.285 650.286 554.034 652.035C558.939 656.94 559.216 664.803 554.669 670.041L549.625 675.852C546.001 680.027 544.225 685.492 544.703 691L544.847 692.657ZM517 684.001C520.866 687.867 527.134 687.867 531 684.001C534.866 680.135 534.866 673.867 531 670.001C527.134 666.135 520.866 666.135 517 670.001C513.134 673.867 513.134 680.135 517 684.001ZM493 675.001C490.791 677.21 487.209 677.21 485 675.001C482.791 672.791 482.791 669.21 485 667.001C487.209 664.791 490.791 664.791 493 667.001C495.209 669.21 495.209 672.791 493 675.001ZM508 650.001C509.105 651.105 510.895 651.105 512 650.001C513.105 648.896 513.105 647.105 512 646.001C510.895 644.896 509.105 644.896 508 646.001C506.895 647.105 506.895 648.896 508 650.001Z" fill="currentColor"/>
<path d="M531 684.001L529.586 682.586H529.586L531 684.001ZM531 670.001L529.586 671.415L529.586 671.415L531 670.001ZM517 670.001L518.414 671.415L517 670.001ZM485 675.001L483.586 676.415L483.586 676.415L485 675.001ZM493 675.001L494.414 676.415L494.414 676.415L493 675.001ZM485 667.001L486.414 668.415V668.415L485 667.001ZM493 667.001L491.586 668.415V668.415L493 667.001ZM512 650.001L513.414 651.415L513.414 651.415L512 650.001ZM508 650.001L509.414 648.586L509.414 648.586L508 650.001ZM512 646.001L513.414 644.586L513.414 644.586L512 646.001ZM508 646.001L509.414 647.415L509.414 647.415L508 646.001ZM476.328 648.505L475.877 646.557L476.328 648.505ZM479.153 692.657L477.16 692.484L479.153 692.657ZM521.495 709.623L522.275 707.781L521.495 709.623ZM544.847 692.657L542.855 692.829L544.847 692.657ZM518.919 710.704L520.715 711.465L522.275 707.781L520.48 707.021L518.919 710.704ZM503.285 711.465L505.081 710.704L503.52 707.021L501.725 707.782L503.285 711.465ZM477.304 690.827L477.16 692.484L481.145 692.83L481.289 691.173L477.304 690.827ZM467.82 671.352L472.865 677.163L475.885 674.541L470.841 668.73L467.82 671.352ZM484.218 644.625L475.877 646.557L476.779 650.454L485.121 648.522L484.218 644.625ZM548.123 646.557L539.781 644.625L538.879 648.522L547.22 650.454L548.123 646.557ZM551.135 677.163L556.179 671.352L553.159 668.73L548.115 674.541L551.135 677.163ZM546.84 692.484L546.696 690.827L542.711 691.173L542.855 692.829L546.84 692.484ZM529.586 682.586C526.501 685.671 521.499 685.671 518.414 682.586L515.586 685.415C520.233 690.062 527.767 690.062 532.414 685.415L529.586 682.586ZM529.586 671.415C532.671 674.5 532.671 679.501 529.586 682.586L532.414 685.415C537.061 680.768 537.061 673.233 532.414 668.586L529.586 671.415ZM518.414 671.415C521.499 668.33 526.501 668.33 529.586 671.415L532.414 668.586C527.767 663.939 520.233 663.939 515.586 668.586L518.414 671.415ZM518.414 682.586C515.329 679.501 515.329 674.5 518.414 671.415L515.586 668.586C510.939 673.233 510.939 680.768 515.586 685.415L518.414 682.586ZM483.586 676.415C486.576 679.405 491.424 679.405 494.414 676.415L491.586 673.586C490.158 675.014 487.842 675.014 486.414 673.586L483.586 676.415ZM483.586 665.586C480.596 668.577 480.596 673.425 483.586 676.415L486.414 673.586C484.986 672.158 484.986 669.843 486.414 668.415L483.586 665.586ZM494.414 665.586C491.424 662.596 486.576 662.596 483.586 665.586L486.414 668.415C487.842 666.987 490.158 666.987 491.586 668.415L494.414 665.586ZM494.414 676.415C497.404 673.425 497.404 668.577 494.414 665.586L491.586 668.415C493.014 669.843 493.014 672.158 491.586 673.586L494.414 676.415ZM510.586 648.586C510.262 648.91 509.738 648.91 509.414 648.586L506.586 651.415C508.471 653.3 511.529 653.3 513.414 651.415L510.586 648.586ZM510.586 647.415C510.909 647.738 510.909 648.263 510.586 648.586L513.414 651.415C515.3 649.529 515.3 646.472 513.414 644.586L510.586 647.415ZM509.414 647.415C509.738 647.091 510.262 647.091 510.586 647.415L513.414 644.586C511.529 642.701 508.471 642.701 506.586 644.586L509.414 647.415ZM509.414 648.586C509.091 648.263 509.091 647.738 509.414 647.415L506.586 644.586C504.7 646.472 504.7 649.529 506.586 651.415L509.414 648.586ZM548.115 674.541C544.136 679.125 542.186 685.126 542.711 691.173L546.696 690.827C546.265 685.859 547.867 680.929 551.135 677.163L548.115 674.541ZM552.62 653.449C556.783 657.612 557.018 664.285 553.159 668.73L556.179 671.352C561.415 665.321 561.096 656.268 555.448 650.621L552.62 653.449ZM547.22 650.454C549.265 650.927 551.136 651.965 552.62 653.449L555.448 650.621C553.435 648.607 550.897 647.199 548.123 646.557L547.22 650.454ZM526.024 639.182C528.867 643.907 533.506 647.277 538.879 648.522L539.781 644.625C535.464 643.625 531.736 640.917 529.451 637.119L526.024 639.182ZM497.976 639.182C504.338 628.611 519.662 628.611 526.024 639.182L529.451 637.119C521.535 623.966 502.465 623.966 494.549 637.119L497.976 639.182ZM485.121 648.522C490.494 647.277 495.133 643.907 497.976 639.182L494.549 637.119C492.264 640.917 488.536 643.625 484.218 644.625L485.121 648.522ZM471.38 653.449C472.864 651.965 474.734 650.927 476.779 650.454L475.877 646.557C473.103 647.199 470.565 648.607 468.551 650.621L471.38 653.449ZM470.841 668.73C466.982 664.284 467.217 657.612 471.38 653.449L468.551 650.621C462.904 656.268 462.585 665.321 467.82 671.352L470.841 668.73ZM481.289 691.173C481.814 685.126 479.864 679.125 475.885 674.541L472.865 677.163C476.133 680.929 477.735 685.859 477.304 690.827L481.289 691.173ZM485.438 704.61C482.337 701.51 480.766 697.198 481.145 692.83L477.16 692.484C476.679 698.029 478.674 703.503 482.609 707.438L485.438 704.61ZM501.725 707.782C496.156 710.141 489.714 708.886 485.438 704.61L482.609 707.438C488.037 712.867 496.216 714.459 503.285 711.465L501.725 707.782ZM520.48 707.021C515.06 704.725 508.94 704.725 503.52 707.021L505.081 710.704C509.503 708.83 514.497 708.83 518.919 710.704L520.48 707.021ZM538.562 704.61C534.286 708.886 527.843 710.14 522.275 707.781L520.715 711.465C527.783 714.459 535.962 712.866 541.391 707.438L538.562 704.61ZM541.391 707.438C545.326 703.502 547.321 698.029 546.84 692.484L542.855 692.829C543.234 697.197 541.662 701.509 538.562 704.61L541.391 707.438Z" fill="currentColor"/>
<g opacity="0.25">
<path fill-rule="evenodd" clip-rule="evenodd" d="M715.976 706.024C711.124 710.876 703.813 712.3 697.495 709.623L695.699 708.862C690.778 706.777 685.222 706.777 680.301 708.862L678.505 709.623C672.186 712.3 664.876 710.876 660.023 706.024C656.506 702.506 654.723 697.613 655.153 692.657L655.297 691C655.775 685.492 653.999 680.027 650.375 675.852L645.33 670.041C640.783 664.803 641.06 656.94 645.965 652.035C647.714 650.286 649.919 649.063 652.328 648.505L660.67 646.573C665.515 645.451 669.698 642.412 672.263 638.15C679.401 626.288 696.599 626.288 703.737 638.15C706.302 642.412 710.485 645.451 715.33 646.573L723.672 648.505C726.081 649.063 728.285 650.286 730.034 652.035C734.939 656.94 735.216 664.803 730.669 670.041L725.625 675.852C722.001 680.027 720.225 685.492 720.703 691L720.847 692.657C721.277 697.613 719.494 702.506 715.976 706.024ZM693 684.001C696.866 687.867 703.134 687.867 707 684.001C710.866 680.135 710.866 673.867 707 670.001C703.134 666.135 696.866 666.135 693 670.001C689.134 673.867 689.134 680.135 693 684.001ZM669 675.001C666.791 677.21 663.209 677.21 661 675.001C658.791 672.791 658.791 669.21 661 667.001C663.209 664.791 666.791 664.791 669 667.001C671.209 669.21 671.209 672.791 669 675.001ZM684 650.001C685.105 651.105 686.895 651.105 688 650.001C689.105 648.896 689.105 647.105 688 646.001C686.895 644.896 685.105 644.896 684 646.001C682.895 647.105 682.895 648.896 684 650.001Z" fill="currentColor"/>
<path d="M707 684.001L705.586 682.586V682.586L707 684.001ZM707 670.001L705.586 671.415L707 670.001ZM669 675.001L670.414 676.415L670.414 676.415L669 675.001ZM661 667.001L662.414 668.415L662.414 668.415L661 667.001ZM669 667.001L670.414 665.586L670.414 665.586L669 667.001ZM688 650.001L689.414 651.415V651.415L688 650.001ZM684 650.001L685.414 648.586V648.586L684 650.001ZM688 646.001L689.414 644.586V644.586L688 646.001ZM684 646.001L685.414 647.415V647.415L684 646.001ZM720.703 691L718.711 691.173L720.703 691ZM730.669 670.041L732.179 671.352L730.669 670.041ZM660.67 646.573L660.218 644.625L660.67 646.573ZM645.33 670.041L643.82 671.352L645.33 670.041ZM650.375 675.852L648.865 677.163L650.375 675.852ZM655.153 692.657L653.16 692.484L655.153 692.657ZM695.699 708.862L694.919 710.704L695.699 708.862ZM680.301 708.862L679.52 707.021L680.301 708.862ZM694.919 710.704L696.715 711.465L698.275 707.781L696.48 707.021L694.919 710.704ZM679.285 711.465L681.081 710.704L679.52 707.021L677.725 707.782L679.285 711.465ZM653.304 690.827L653.16 692.484L657.145 692.83L657.289 691.173L653.304 690.827ZM643.82 671.352L648.865 677.163L651.885 674.541L646.841 668.73L643.82 671.352ZM660.218 644.625L651.877 646.557L652.779 650.454L661.121 648.522L660.218 644.625ZM724.123 646.557L715.781 644.625L714.879 648.522L723.22 650.454L724.123 646.557ZM727.135 677.163L732.179 671.352L729.159 668.73L724.115 674.541L727.135 677.163ZM722.84 692.484L722.696 690.827L718.711 691.173L718.855 692.829L722.84 692.484ZM705.586 682.586C702.501 685.671 697.499 685.671 694.414 682.586L691.586 685.415C696.233 690.062 703.767 690.062 708.414 685.415L705.586 682.586ZM705.586 671.415C708.671 674.5 708.671 679.501 705.586 682.586L708.414 685.415C713.061 680.768 713.061 673.233 708.414 668.586L705.586 671.415ZM694.414 671.415C697.499 668.33 702.501 668.33 705.586 671.415L708.414 668.586C703.767 663.939 696.233 663.939 691.586 668.586L694.414 671.415ZM694.414 682.586C691.329 679.501 691.329 674.5 694.414 671.415L691.586 668.586C686.939 673.233 686.939 680.768 691.586 685.415L694.414 682.586ZM659.586 676.415C662.576 679.405 667.424 679.405 670.414 676.415L667.586 673.586C666.158 675.014 663.842 675.014 662.414 673.586L659.586 676.415ZM659.586 665.586C656.596 668.577 656.596 673.425 659.586 676.415L662.414 673.586C660.986 672.158 660.986 669.843 662.414 668.415L659.586 665.586ZM670.414 665.586C667.424 662.596 662.576 662.596 659.586 665.586L662.414 668.415C663.842 666.987 666.158 666.987 667.586 668.415L670.414 665.586ZM670.414 676.415C673.404 673.425 673.404 668.577 670.414 665.586L667.586 668.415C669.014 669.843 669.014 672.158 667.586 673.586L670.414 676.415ZM686.586 648.586C686.262 648.91 685.738 648.91 685.414 648.586L682.586 651.415C684.471 653.3 687.529 653.3 689.414 651.415L686.586 648.586ZM686.586 647.415C686.909 647.738 686.909 648.263 686.586 648.586L689.414 651.415C691.3 649.529 691.3 646.472 689.414 644.586L686.586 647.415ZM685.414 647.415C685.738 647.091 686.262 647.091 686.586 647.415L689.414 644.586C687.529 642.701 684.471 642.701 682.586 644.586L685.414 647.415ZM685.414 648.586C685.091 648.263 685.091 647.738 685.414 647.415L682.586 644.586C680.7 646.472 680.7 649.529 682.586 651.415L685.414 648.586ZM718.855 692.829C719.234 697.197 717.662 701.509 714.562 704.61L717.391 707.438C721.326 703.502 723.321 698.029 722.84 692.484L718.855 692.829ZM724.115 674.541C720.136 679.125 718.186 685.126 718.711 691.173L722.696 690.827C722.265 685.859 723.867 680.929 727.135 677.163L724.115 674.541ZM728.62 653.449C732.783 657.612 733.018 664.285 729.159 668.73L732.179 671.352C737.415 665.321 737.096 656.268 731.448 650.621L728.62 653.449ZM723.22 650.454C725.265 650.927 727.136 651.965 728.62 653.449L731.448 650.621C729.435 648.607 726.897 647.199 724.123 646.557L723.22 650.454ZM702.024 639.182C704.867 643.907 709.506 647.277 714.879 648.522L715.781 644.625C711.464 643.625 707.736 640.917 705.451 637.119L702.024 639.182ZM673.976 639.182C680.338 628.611 695.662 628.611 702.024 639.182L705.451 637.119C697.535 623.966 678.465 623.966 670.549 637.119L673.976 639.182ZM661.121 648.522C666.494 647.277 671.132 643.907 673.976 639.182L670.549 637.119C668.264 640.917 664.536 643.625 660.218 644.625L661.121 648.522ZM647.38 653.449C648.864 651.965 650.734 650.927 652.779 650.454L651.877 646.557C649.103 647.199 646.565 648.607 644.551 650.621L647.38 653.449ZM646.841 668.73C642.982 664.284 643.217 657.612 647.38 653.449L644.551 650.621C638.904 656.268 638.585 665.321 643.82 671.352L646.841 668.73ZM657.289 691.173C657.814 685.126 655.864 679.125 651.885 674.541L648.865 677.163C652.133 680.929 653.735 685.859 653.304 690.827L657.289 691.173ZM661.438 704.61C658.337 701.51 656.766 697.198 657.145 692.83L653.16 692.484C652.679 698.029 654.674 703.503 658.609 707.438L661.438 704.61ZM677.725 707.782C672.156 710.141 665.714 708.886 661.438 704.61L658.609 707.438C664.037 712.867 672.216 714.459 679.285 711.465L677.725 707.782ZM696.715 711.465C703.783 714.459 711.962 712.866 717.391 707.438L714.562 704.61C710.286 708.886 703.843 710.14 698.275 707.781L696.715 711.465ZM696.48 707.021C691.06 704.725 684.94 704.725 679.52 707.021L681.081 710.704C685.503 708.83 690.497 708.83 694.919 710.704L696.48 707.021Z" fill="currentColor"/>
</g>
<g opacity="0.5">
<path d="M693 684C696.866 687.866 703.134 687.866 707 684C710.866 680.134 710.866 673.866 707 670C703.134 666.134 696.866 666.134 693 670C689.134 673.866 689.134 680.134 693 684Z" fill="currentColor"/>
</g>
<g opacity="0.5">
<path d="M661 675C663.209 677.209 666.791 677.209 669 675C671.209 672.791 671.209 669.209 669 667C666.791 664.791 663.209 664.791 661 667C658.791 669.209 658.791 672.791 661 675Z" fill="currentColor"/>
</g>
<g opacity="0.5">
<path d="M684 650C685.105 651.105 686.896 651.105 688 650C689.105 648.895 689.105 647.105 688 646C686.896 644.895 685.105 644.895 684 646C682.896 647.105 682.896 648.895 684 650Z" fill="currentColor"/>
</g>
<path fill-rule="evenodd" clip-rule="evenodd" d="M896.847 692.657C897.277 697.613 895.494 702.506 891.976 706.024C887.124 710.876 879.813 712.3 873.495 709.623L871.699 708.862C866.778 706.777 861.222 706.777 856.301 708.862L854.505 709.623C848.186 712.3 840.876 710.876 836.023 706.024C832.506 702.506 830.723 697.613 831.153 692.657L831.297 691C831.775 685.492 829.999 680.027 826.375 675.852L821.33 670.041C816.783 664.803 817.06 656.94 821.965 652.035C823.714 650.286 825.919 649.063 828.328 648.505L836.67 646.573C841.515 645.451 845.698 642.412 848.263 638.15C855.401 626.288 872.599 626.288 879.737 638.15C882.302 642.412 886.485 645.451 891.33 646.573L899.672 648.505C902.081 649.063 904.285 650.286 906.034 652.035C910.939 656.94 911.216 664.803 906.669 670.041L901.625 675.852C898.001 680.027 896.225 685.492 896.703 691L896.847 692.657ZM869 684.001C872.866 687.867 879.134 687.867 883 684.001C886.866 680.135 886.866 673.867 883 670.001C879.134 666.135 872.866 666.135 869 670.001C865.134 673.867 865.134 680.135 869 684.001ZM845 675.001C842.791 677.21 839.209 677.21 837 675.001C834.791 672.791 834.791 669.21 837 667.001C839.209 664.791 842.791 664.791 845 667.001C847.209 669.21 847.209 672.791 845 675.001ZM860 650.001C861.105 651.105 862.895 651.105 864 650.001C865.105 648.896 865.105 647.105 864 646.001C862.895 644.896 861.105 644.896 860 646.001C858.895 647.105 858.895 648.896 860 650.001Z" fill="#FFA500"/>
<path d="M883 684.001L881.586 682.586H881.586L883 684.001ZM883 670.001L881.586 671.415L881.586 671.415L883 670.001ZM869 670.001L870.414 671.415L869 670.001ZM837 675.001L835.586 676.415L835.586 676.415L837 675.001ZM845 675.001L846.414 676.415L846.414 676.415L845 675.001ZM837 667.001L838.414 668.415V668.415L837 667.001ZM845 667.001L843.586 668.415V668.415L845 667.001ZM864 650.001L865.414 651.415L865.414 651.415L864 650.001ZM860 650.001L861.414 648.586L861.414 648.586L860 650.001ZM864 646.001L865.414 644.586L865.414 644.586L864 646.001ZM860 646.001L861.414 647.415L861.414 647.415L860 646.001ZM828.328 648.505L827.877 646.557L828.328 648.505ZM831.153 692.657L829.16 692.484L831.153 692.657ZM873.495 709.623L874.275 707.781L873.495 709.623ZM896.847 692.657L894.855 692.829L896.847 692.657ZM870.919 710.704L872.715 711.465L874.275 707.781L872.48 707.021L870.919 710.704ZM855.285 711.465L857.081 710.704L855.52 707.021L853.725 707.782L855.285 711.465ZM829.304 690.827L829.16 692.484L833.145 692.83L833.289 691.173L829.304 690.827ZM819.82 671.352L824.865 677.163L827.885 674.541L822.841 668.73L819.82 671.352ZM836.218 644.625L827.877 646.557L828.779 650.454L837.121 648.522L836.218 644.625ZM900.123 646.557L891.781 644.625L890.879 648.522L899.22 650.454L900.123 646.557ZM903.135 677.163L908.179 671.352L905.159 668.73L900.115 674.541L903.135 677.163ZM898.84 692.484L898.696 690.827L894.711 691.173L894.855 692.829L898.84 692.484ZM881.586 682.586C878.501 685.671 873.499 685.671 870.414 682.586L867.586 685.415C872.233 690.062 879.767 690.062 884.414 685.415L881.586 682.586ZM881.586 671.415C884.671 674.5 884.671 679.501 881.586 682.586L884.414 685.415C889.061 680.768 889.061 673.233 884.414 668.586L881.586 671.415ZM870.414 671.415C873.499 668.33 878.501 668.33 881.586 671.415L884.414 668.586C879.767 663.939 872.233 663.939 867.586 668.586L870.414 671.415ZM870.414 682.586C867.329 679.501 867.329 674.5 870.414 671.415L867.586 668.586C862.939 673.233 862.939 680.768 867.586 685.415L870.414 682.586ZM835.586 676.415C838.576 679.405 843.424 679.405 846.414 676.415L843.586 673.586C842.158 675.014 839.842 675.014 838.414 673.586L835.586 676.415ZM835.586 665.586C832.596 668.577 832.596 673.425 835.586 676.415L838.414 673.586C836.986 672.158 836.986 669.843 838.414 668.415L835.586 665.586ZM846.414 665.586C843.424 662.596 838.576 662.596 835.586 665.586L838.414 668.415C839.842 666.987 842.158 666.987 843.586 668.415L846.414 665.586ZM846.414 676.415C849.404 673.425 849.404 668.577 846.414 665.586L843.586 668.415C845.014 669.843 845.014 672.158 843.586 673.586L846.414 676.415ZM862.586 648.586C862.262 648.91 861.738 648.91 861.414 648.586L858.586 651.415C860.471 653.3 863.529 653.3 865.414 651.415L862.586 648.586ZM862.586 647.415C862.909 647.738 862.909 648.263 862.586 648.586L865.414 651.415C867.3 649.529 867.3 646.472 865.414 644.586L862.586 647.415ZM861.414 647.415C861.738 647.091 862.262 647.091 862.586 647.415L865.414 644.586C863.529 642.701 860.471 642.701 858.586 644.586L861.414 647.415ZM861.414 648.586C861.091 648.263 861.091 647.738 861.414 647.415L858.586 644.586C856.7 646.472 856.7 649.529 858.586 651.415L861.414 648.586ZM900.115 674.541C896.136 679.125 894.186 685.126 894.711 691.173L898.696 690.827C898.265 685.859 899.867 680.929 903.135 677.163L900.115 674.541ZM904.62 653.449C908.783 657.612 909.018 664.285 905.159 668.73L908.179 671.352C913.415 665.321 913.096 656.268 907.448 650.621L904.62 653.449ZM899.22 650.454C901.265 650.927 903.136 651.965 904.62 653.449L907.448 650.621C905.435 648.607 902.897 647.199 900.123 646.557L899.22 650.454ZM878.024 639.182C880.867 643.907 885.506 647.277 890.879 648.522L891.781 644.625C887.464 643.625 883.736 640.917 881.451 637.119L878.024 639.182ZM849.976 639.182C856.338 628.611 871.662 628.611 878.024 639.182L881.451 637.119C873.535 623.966 854.465 623.966 846.549 637.119L849.976 639.182ZM837.121 648.522C842.494 647.277 847.133 643.907 849.976 639.182L846.549 637.119C844.264 640.917 840.536 643.625 836.218 644.625L837.121 648.522ZM823.38 653.449C824.864 651.965 826.734 650.927 828.779 650.454L827.877 646.557C825.103 647.199 822.565 648.607 820.551 650.621L823.38 653.449ZM822.841 668.73C818.982 664.284 819.217 657.612 823.38 653.449L820.551 650.621C814.904 656.268 814.585 665.321 819.82 671.352L822.841 668.73ZM833.289 691.173C833.814 685.126 831.864 679.125 827.885 674.541L824.865 677.163C828.133 680.929 829.735 685.859 829.304 690.827L833.289 691.173ZM837.438 704.61C834.337 701.51 832.766 697.198 833.145 692.83L829.16 692.484C828.679 698.029 830.674 703.503 834.609 707.438L837.438 704.61ZM853.725 707.782C848.156 710.141 841.714 708.886 837.438 704.61L834.609 707.438C840.037 712.867 848.216 714.459 855.285 711.465L853.725 707.782ZM872.48 707.021C867.06 704.725 860.94 704.725 855.52 707.021L857.081 710.704C861.503 708.83 866.497 708.83 870.919 710.704L872.48 707.021ZM890.562 704.61C886.286 708.886 879.843 710.14 874.275 707.781L872.715 711.465C879.783 714.459 887.962 712.866 893.391 707.438L890.562 704.61ZM893.391 707.438C897.326 703.502 899.321 698.029 898.84 692.484L894.855 692.829C895.234 697.197 893.662 701.509 890.562 704.61L893.391 707.438Z" fill="#FFA500"/>
<path d="M869 684C872.866 687.866 879.134 687.866 883 684C886.866 680.134 886.866 673.866 883 670C879.134 666.134 872.866 666.134 869 670C865.134 673.866 865.134 680.134 869 684Z" fill="#DC143C"/>
<path d="M837 675C839.209 677.209 842.791 677.209 845 675C847.209 672.791 847.209 669.209 845 667C842.791 664.791 839.209 664.791 837 667C834.791 669.209 834.791 672.791 837 675Z" fill="#DC143C"/>
<path d="M860 650C861.105 651.105 862.896 651.105 864 650C865.105 648.895 865.105 647.105 864 646C862.896 644.895 861.105 644.895 860 646C858.896 647.105 858.896 648.895 860 650Z" fill="#DC143C"/>
</svg>
