<svg viewBox="0 0 1024 768" fill="none" xmlns="http://www.w3.org/2000/svg">
<path d="M424 36L424.023 95.9446L466.426 53.5736L424.055 95.977L484 96L424.055 96.023L466.426 138.426L424.023 96.0554L424 156L423.977 96.0554L381.574 138.426L423.945 96.023L364 96L423.945 95.977L381.574 53.5736L423.977 95.9446L424 36Z" stroke="#7B61FF" stroke-width="2" stroke-linecap="round" stroke-linejoin="round"/>
<path d="M578.787 147.213C592.369 152.839 607.631 152.839 621.213 147.213V147.213C634.796 141.587 645.587 130.796 651.213 117.213V117.213C656.839 103.631 656.839 88.3694 651.213 74.7868V74.7868C645.587 61.2042 634.796 50.4129 621.213 44.7868V44.7868C607.631 39.1607 592.369 39.1607 578.787 44.7868V44.7868C565.204 50.4129 554.413 61.2042 548.787 74.7868V74.7868C543.161 88.3694 543.161 103.631 548.787 117.213V117.213C554.413 130.796 565.204 141.587 578.787 147.213V147.213Z" stroke="#7B61FF" stroke-width="2" stroke-linecap="round" stroke-linejoin="round"/>
<path d="M534.5 233.991C534.495 221.568 524.423 211.5 512 211.5C499.577 211.5 489.505 221.568 489.5 233.991L489.481 284.899C483.922 286.162 478.445 287.899 473.109 290.109C467.773 292.319 462.672 294.964 457.849 298.002L421.838 262.018C413.05 253.237 398.809 253.24 390.024 262.024C381.24 270.809 381.237 285.05 390.018 293.838L426.002 329.849C422.964 334.672 420.319 339.773 418.109 345.109C415.899 350.445 414.162 355.922 412.899 361.481L361.991 361.5C349.568 361.505 339.5 371.577 339.5 384C339.5 396.423 349.568 406.495 361.991 406.5L412.899 406.52C414.162 412.078 415.899 417.555 418.109 422.891C420.319 428.227 422.964 433.328 426.002 438.151L390.018 474.162C381.237 482.95 381.24 497.192 390.024 505.976C398.809 514.76 413.05 514.763 421.838 505.982L457.849 469.999C462.672 473.036 467.773 475.681 473.109 477.891C478.445 480.101 483.922 481.838 489.481 483.101L489.5 534.009C489.505 546.432 499.577 556.5 512 556.5C524.423 556.5 534.495 546.432 534.5 534.009L534.52 483.101C540.078 481.838 545.555 480.101 550.891 477.891C556.227 475.681 561.328 473.036 566.151 469.999L602.146 505.966L602.15 505.97L602.162 505.982C610.95 514.763 625.192 514.76 633.976 505.976C642.76 497.192 642.763 482.95 633.982 474.162L633.97 474.15L633.966 474.146L597.999 438.151C601.036 433.328 603.681 428.227 605.891 422.891C608.101 417.555 609.838 412.078 611.101 406.52L662.009 406.5C674.432 406.495 684.5 396.423 684.5 384C684.5 371.577 674.432 361.505 662.009 361.5L611.101 361.481C609.838 355.922 608.101 350.445 605.891 345.109C603.681 339.773 601.036 334.672 597.999 329.849L633.982 293.838C642.763 285.05 642.76 270.809 633.976 262.024C625.192 253.24 610.95 253.237 602.162 262.018L566.151 298.002C561.328 294.964 556.227 292.319 550.891 290.109C545.555 287.899 540.078 286.162 534.52 284.899L534.5 233.991Z" fill="#888888" fill-opacity="0.5"/>
<path d="M489.019 439.481C503.734 445.576 520.267 445.576 534.981 439.481C549.695 433.386 561.386 421.695 567.481 406.981C573.576 392.267 573.576 375.734 567.481 361.019C561.386 346.305 549.695 334.614 534.981 328.519C520.267 322.424 503.734 322.424 489.019 328.519C474.305 334.614 462.614 346.305 456.519 361.019C450.424 375.734 450.424 392.267 456.519 406.981C462.614 421.695 474.305 433.386 489.019 439.481Z" fill="#888888" fill-opacity="0.5"/>
<path d="M534.5 233.991C534.495 221.568 524.423 211.5 512 211.5C499.577 211.5 489.505 221.568 489.5 233.991L489.481 284.899C483.922 286.162 478.445 287.899 473.109 290.109C467.773 292.319 462.672 294.964 457.849 298.002L421.838 262.018C413.05 253.237 398.809 253.24 390.024 262.024C381.24 270.809 381.237 285.05 390.018 293.838L426.002 329.849C422.964 334.672 420.319 339.773 418.109 345.109C415.899 350.445 414.162 355.922 412.899 361.481L361.991 361.5C349.568 361.505 339.5 371.577 339.5 384C339.5 396.423 349.568 406.495 361.991 406.5L412.899 406.52C414.162 412.078 415.899 417.555 418.109 422.891C420.319 428.227 422.964 433.328 426.002 438.151L390.018 474.162C381.237 482.95 381.24 497.192 390.024 505.976C398.809 514.76 413.05 514.763 421.838 505.982L457.849 469.999C462.672 473.036 467.773 475.681 473.109 477.891C478.445 480.101 483.922 481.838 489.481 483.101L489.5 534.009C489.505 546.432 499.577 556.5 512 556.5C524.423 556.5 534.495 546.432 534.5 534.009L534.52 483.101C540.078 481.838 545.555 480.101 550.891 477.891C556.227 475.681 561.328 473.036 566.151 469.999L602.146 505.966L602.15 505.97L602.162 505.982C610.95 514.763 625.192 514.76 633.976 505.976C642.76 497.192 642.763 482.95 633.982 474.162L633.97 474.15L633.966 474.146L597.999 438.151C601.036 433.328 603.681 428.227 605.891 422.891C608.101 417.555 609.838 412.078 611.101 406.52L662.009 406.5C674.432 406.495 684.5 396.423 684.5 384C684.5 371.577 674.432 361.505 662.009 361.5L611.101 361.481C609.838 355.922 608.101 350.445 605.891 345.109C603.681 339.773 601.036 334.672 597.999 329.849L633.982 293.838C642.763 285.05 642.76 270.809 633.976 262.024C625.192 253.24 610.95 253.237 602.162 262.018L566.151 298.002C561.328 294.964 556.227 292.319 550.891 290.109C545.555 287.899 540.078 286.162 534.52 284.899L534.5 233.991Z" stroke="currentColor" stroke-width="10" stroke-linecap="round" stroke-linejoin="round"/>
<path d="M489.019 439.481C503.734 445.576 520.267 445.576 534.981 439.481C549.695 433.386 561.386 421.695 567.481 406.981C573.576 392.267 573.576 375.734 567.481 361.019C561.386 346.305 549.695 334.614 534.981 328.519C520.267 322.424 503.734 322.424 489.019 328.519C474.305 334.614 462.614 346.305 456.519 361.019C450.424 375.734 450.424 392.267 456.519 406.981C462.614 421.695 474.305 433.386 489.019 439.481Z" stroke="currentColor" stroke-width="10" stroke-linecap="round" stroke-linejoin="round"/>
<g opacity="0.25">
<path d="M512 234L512.057 383.861L618.066 277.934L512.139 383.943L662 384L512.139 384.057L618.066 490.066L512.057 384.139L512 534L511.943 384.139L405.934 490.066L511.861 384.057L362 384L511.861 383.943L405.934 277.934L511.943 383.861L512 234Z" stroke="currentColor" stroke-width="2.5" stroke-linecap="round" stroke-linejoin="round"/>
<path d="M550.891 477.891C525.99 488.205 498.011 488.205 473.109 477.891C448.208 467.576 428.424 447.792 418.109 422.891C407.795 397.989 407.795 370.011 418.109 345.109C428.424 320.208 448.208 300.424 473.109 290.109C498.011 279.795 525.99 279.795 550.891 290.109C575.792 300.424 595.576 320.208 605.891 345.109C616.205 370.011 616.205 397.989 605.891 422.891C595.576 447.792 575.792 467.576 550.891 477.891Z" stroke="currentColor" stroke-width="2.5" stroke-linecap="round" stroke-linejoin="round"/>
<path d="M489.019 439.481C503.734 445.576 520.267 445.576 534.981 439.481C549.695 433.386 561.386 421.695 567.481 406.981C573.576 392.267 573.576 375.734 567.481 361.019C561.386 346.305 549.695 334.614 534.981 328.519C520.267 322.424 503.734 322.424 489.019 328.519C474.305 334.614 462.614 346.305 456.519 361.019C450.424 375.734 450.424 392.267 456.519 406.981C462.614 421.695 474.305 433.386 489.019 439.481Z" stroke="currentColor" stroke-width="2.5" stroke-linecap="round" stroke-linejoin="round"/>
</g>
<path d="M169 611.997C168.998 607.027 164.969 603 160 603C155.031 603 151.002 607.027 151 611.997L150.992 632.36C148.769 632.865 146.578 633.56 144.444 634.444C142.309 635.328 140.269 636.386 138.34 637.601L123.935 623.207C120.42 619.695 114.723 619.696 111.21 623.21C107.696 626.723 107.695 632.42 111.207 635.935L125.601 650.34C124.386 652.269 123.328 654.309 122.444 656.444C121.56 658.578 120.865 660.769 120.36 662.992L99.9966 663C95.0273 663.002 91 667.031 91 672C91 676.969 95.0273 680.998 99.9966 681L120.36 681.008C120.865 683.231 121.56 685.422 122.444 687.556C123.328 689.691 124.386 691.731 125.601 693.66L111.207 708.065C107.695 711.58 107.696 717.277 111.21 720.79C114.723 724.304 120.42 724.305 123.935 720.793L138.34 706.399C140.269 707.614 142.309 708.672 144.444 709.556C146.578 710.44 148.769 711.135 150.992 711.64L151 732.003C151.002 736.973 155.031 741 160 741C164.969 741 168.998 736.973 169 732.003L169.008 711.64C171.231 711.135 173.422 710.44 175.556 709.556C177.691 708.672 179.731 707.614 181.66 706.399L196.065 720.793C199.58 724.305 205.277 724.304 208.79 720.79C212.304 717.277 212.305 711.58 208.793 708.065L194.399 693.66C195.614 691.731 196.672 689.691 197.556 687.556C198.44 685.422 199.135 683.231 199.64 681.008L220.003 681C224.973 680.998 229 676.969 229 672C229 667.031 224.973 663.002 220.003 663L199.64 662.992C199.135 660.769 198.44 658.578 197.556 656.444C196.672 654.309 195.614 652.269 194.399 650.34L208.793 635.935C212.305 632.42 212.304 626.723 208.79 623.21C205.277 619.696 199.58 619.695 196.065 623.207L181.66 637.601C179.731 636.386 177.691 635.328 175.556 634.444C173.422 633.56 171.231 632.865 169.008 632.36L169 611.997Z" stroke="currentColor" stroke-width="2" stroke-linecap="round" stroke-linejoin="round"/>
<path d="M150.808 694.192C156.693 696.63 163.307 696.63 169.192 694.192C175.078 691.754 179.754 687.078 182.192 681.192C184.63 675.307 184.63 668.693 182.192 662.808C179.754 656.922 175.078 652.246 169.192 649.808C163.307 647.37 156.693 647.37 150.808 649.808C144.922 652.246 140.246 656.922 137.808 662.808C135.37 668.693 135.37 675.307 137.808 681.192C140.246 687.078 144.922 691.754 150.808 694.192Z" stroke="currentColor" stroke-width="2" stroke-linecap="round" stroke-linejoin="round"/>
<path fill-rule="evenodd" clip-rule="evenodd" d="M361.888 682.723C359.044 689.589 353.589 695.044 346.723 697.888C339.857 700.732 332.143 700.732 325.277 697.888C318.411 695.044 312.956 689.589 310.112 682.723C307.268 675.857 307.268 668.143 310.112 661.277C312.956 654.411 318.411 648.956 325.277 646.112C332.143 643.268 339.857 643.268 346.723 646.112C353.589 648.956 359.044 654.411 361.888 661.277C364.732 668.143 364.732 675.857 361.888 682.723ZM328.338 690.497C333.244 692.529 338.756 692.529 343.662 690.497C348.567 688.465 352.465 684.567 354.497 679.662C356.529 674.756 356.529 669.244 354.497 664.338C352.465 659.433 348.567 655.535 343.662 653.503C338.756 651.471 333.244 651.471 328.338 653.503C323.433 655.535 319.535 659.433 317.503 664.338C315.471 669.244 315.471 674.756 317.503 679.662C319.535 684.567 323.433 688.465 328.338 690.497Z" stroke="currentColor" stroke-linecap="round" stroke-linejoin="round"/>
<path fill-rule="evenodd" clip-rule="evenodd" d="M336 599C328.822 599 323.003 604.817 323 611.995L322.993 629.286C321.616 629.705 320.254 630.192 318.913 630.748C317.572 631.304 316.264 631.922 314.993 632.599L302.764 620.379L302.762 620.378C297.685 615.304 289.457 615.306 284.381 620.381C279.306 625.457 279.304 633.685 284.378 638.762L296.599 650.993C295.922 652.264 295.304 653.572 294.748 654.913C294.192 656.254 293.705 657.616 293.286 658.993L275.995 659C268.817 659.003 263 664.822 263 672C263 679.178 268.817 684.997 275.995 685L293.286 685.007C293.705 686.384 294.193 687.746 294.748 689.087C295.304 690.428 295.922 691.736 296.599 693.007L284.379 705.236L284.378 705.238C279.304 710.315 279.306 718.543 284.381 723.619C289.457 728.694 297.685 728.696 302.762 723.622L314.993 711.401C316.264 712.078 317.572 712.696 318.913 713.252C320.254 713.807 321.616 714.295 322.993 714.714L323 732.005C323.003 739.183 328.822 745 336 745C343.178 745 348.997 739.183 349 732.005L349.007 714.714C350.384 714.295 351.746 713.807 353.087 713.252C354.428 712.696 355.736 712.078 357.007 711.401L369.236 723.621L369.238 723.622C374.315 728.696 382.543 728.694 387.619 723.619C392.694 718.543 392.696 710.315 387.622 705.238L375.401 693.007C376.078 691.736 376.696 690.428 377.252 689.087C377.807 687.746 378.295 686.384 378.714 685.007L396.005 685C403.183 684.997 409 679.178 409 672C409 664.822 403.183 659.003 396.005 659L378.714 658.993C378.295 657.616 377.807 656.254 377.252 654.913C376.696 653.572 376.078 652.264 375.401 650.993L387.622 638.762C392.696 633.685 392.694 625.457 387.619 620.381C382.543 615.306 374.315 615.304 369.238 620.378L369.236 620.379L357.007 632.599C355.736 631.922 354.428 631.304 353.087 630.748C351.746 630.192 350.384 629.705 349.007 629.286L349 611.995C348.997 604.817 343.178 599 336 599ZM331 611.997C331.002 609.237 333.24 607 336 607C338.76 607 340.998 609.237 341 611.997L341.008 632.361C341.009 634.228 342.301 635.847 344.121 636.26C346.126 636.716 348.101 637.342 350.026 638.139C351.95 638.936 353.79 639.89 355.529 640.985C357.109 641.98 359.167 641.75 360.488 640.43L374.892 626.037L374.893 626.036C376.846 624.085 380.01 624.086 381.962 626.038C383.914 627.99 383.915 631.154 381.964 633.107L367.57 647.512C366.25 648.833 366.02 650.891 367.015 652.471C368.11 654.21 369.064 656.05 369.861 657.974C370.658 659.899 371.284 661.874 371.74 663.879C372.153 665.699 373.772 666.991 375.639 666.992L396.003 667C398.763 667.002 401 669.24 401 672C401 674.76 398.763 676.998 396.003 677L375.639 677.008C373.772 677.009 372.153 678.301 371.74 680.121C371.284 682.126 370.658 684.101 369.861 686.026C369.064 687.95 368.11 689.79 367.015 691.529C366.02 693.109 366.25 695.167 367.57 696.488L381.96 710.888L381.963 710.892L381.964 710.893C383.915 712.846 383.914 716.01 381.962 717.962C380.01 719.914 376.846 719.915 374.893 717.964L374.892 717.963L374.888 717.96L360.488 703.57C359.167 702.25 357.109 702.02 355.529 703.015C353.79 704.11 351.95 705.064 350.026 705.861C348.101 706.658 346.126 707.284 344.121 707.74C342.301 708.153 341.009 709.772 341.008 711.639L341 732.003C340.998 734.763 338.76 737 336 737C333.24 737 331.002 734.763 331 732.003L330.992 711.639C330.991 709.772 329.699 708.153 327.879 707.74C325.874 707.284 323.899 706.658 321.974 705.861C320.05 705.064 318.21 704.11 316.471 703.015C314.891 702.02 312.833 702.25 311.512 703.57L297.107 717.964C295.154 719.915 291.99 719.914 290.038 717.962C288.086 716.01 288.085 712.846 290.036 710.893L290.037 710.892L304.43 696.488C305.75 695.167 305.98 693.109 304.985 691.529C303.89 689.79 302.936 687.95 302.139 686.026C301.342 684.101 300.716 682.126 300.26 680.121C299.847 678.301 298.228 677.009 296.361 677.008L275.997 677C273.237 676.998 271 674.76 271 672C271 669.24 273.237 667.002 275.997 667L296.361 666.992C298.228 666.991 299.847 665.699 300.26 663.879C300.716 661.874 301.342 659.899 302.139 657.974C302.936 656.05 303.89 654.21 304.985 652.471C305.98 650.891 305.75 648.833 304.43 647.512L290.036 633.107C288.085 631.154 288.086 627.99 290.038 626.038C291.99 624.086 295.154 624.085 297.107 626.036L311.512 640.43C312.833 641.75 314.891 641.98 316.471 640.985C318.21 639.89 320.05 638.936 321.974 638.139C323.899 637.342 325.874 636.716 327.879 636.26C329.699 635.847 330.991 634.228 330.992 632.361L331 611.997Z" stroke="currentColor" stroke-linecap="round" stroke-linejoin="round"/>
<path fill-rule="evenodd" clip-rule="evenodd" d="M512 603C516.969 603 520.998 607.027 521 611.997L521.008 632.36C523.231 632.865 525.422 633.56 527.556 634.444C529.691 635.328 531.731 636.386 533.66 637.601L548.065 623.207C551.58 619.695 557.277 619.696 560.79 623.21C564.304 626.723 564.305 632.42 560.793 635.935L546.399 650.34C547.614 652.269 548.672 654.309 549.556 656.444C550.44 658.578 551.135 660.769 551.64 662.992L572.003 663C576.973 663.002 581 667.031 581 672C581 676.969 576.973 680.998 572.003 681L551.64 681.008C551.135 683.231 550.44 685.422 549.556 687.556C548.672 689.691 547.614 691.731 546.399 693.66L560.793 708.065C564.305 711.58 564.304 717.277 560.79 720.79C557.277 724.304 551.58 724.305 548.065 720.793L533.66 706.399C531.731 707.614 529.691 708.672 527.556 709.556C525.422 710.44 523.231 711.135 521.008 711.64L521 732.003C520.998 736.973 516.969 741 512 741C507.031 741 503.002 736.973 503 732.003L502.992 711.64C500.769 711.135 498.578 710.44 496.444 709.556C494.309 708.672 492.269 707.614 490.34 706.399L475.935 720.793C472.42 724.305 466.723 724.304 463.21 720.79C459.696 717.277 459.695 711.58 463.207 708.065L477.601 693.66C476.386 691.731 475.328 689.691 474.444 687.556C473.56 685.422 472.865 683.231 472.36 681.008L451.997 681C447.027 680.998 443 676.969 443 672C443 667.031 447.027 663.002 451.997 663L472.36 662.992C472.865 660.769 473.56 658.578 474.444 656.444C475.328 654.309 476.386 652.269 477.601 650.34L463.207 635.935C459.695 632.42 459.696 626.723 463.21 623.21C466.723 619.696 472.42 619.695 475.935 623.207L490.34 637.601C492.269 636.386 494.309 635.328 496.444 634.444C498.578 633.56 500.769 632.865 502.992 632.36L503 611.997C503.002 607.027 507.031 603 512 603ZM534.192 681.192C531.754 687.078 527.078 691.754 521.192 694.192C515.307 696.63 508.693 696.63 502.808 694.192C496.922 691.754 492.246 687.078 489.808 681.192C487.37 675.307 487.37 668.693 489.808 662.808C492.246 656.922 496.922 652.246 502.808 649.808C508.693 647.37 515.307 647.37 521.192 649.808C527.078 652.246 531.754 656.922 534.192 662.808C536.63 668.693 536.63 675.307 534.192 681.192Z" fill="currentColor" stroke="currentColor" stroke-width="4" stroke-linecap="round" stroke-linejoin="round"/>
<g opacity="0.25">
<path fill-rule="evenodd" clip-rule="evenodd" d="M697 611.997C696.998 607.027 692.969 603 688 603C683.031 603 679.002 607.027 679 611.997V612.003L678.992 632.36C676.769 632.865 674.578 633.56 672.444 634.444C670.309 635.328 668.269 636.386 666.34 637.601L651.94 623.212L651.935 623.207C648.42 619.695 642.723 619.696 639.21 623.21C635.696 626.723 635.695 632.42 639.207 635.935L639.212 635.94L653.601 650.34C652.386 652.269 651.328 654.309 650.444 656.444C649.56 658.578 648.865 660.769 648.36 662.992L628.003 663H627.997C623.027 663.002 619 667.031 619 672C619 676.969 623.027 680.998 627.997 681H628.003L648.36 681.008C648.865 683.231 649.56 685.422 650.444 687.556C651.328 689.691 652.386 691.731 653.601 693.66L639.212 708.06L639.207 708.065C635.695 711.58 635.696 717.277 639.21 720.79C642.723 724.304 648.42 724.305 651.935 720.793L651.94 720.788L666.34 706.399C668.269 707.614 670.309 708.672 672.444 709.556C674.578 710.44 676.769 711.135 678.992 711.64L679 731.997V732.003C679.002 736.973 683.031 741 688 741C692.969 741 696.998 736.973 697 732.003V731.997L697.008 711.64C699.231 711.135 701.422 710.44 703.556 709.556C705.691 708.672 707.731 707.614 709.66 706.399L724.06 720.788L724.065 720.793C727.58 724.305 733.277 724.304 736.79 720.79C740.304 717.277 740.305 711.58 736.793 708.065L736.788 708.06L722.399 693.66C723.614 691.731 724.672 689.691 725.556 687.556C726.44 685.422 727.135 683.231 727.64 681.008L747.997 681H748.003C752.973 680.998 757 676.969 757 672C757 667.031 752.973 663.002 748.003 663H747.997L727.64 662.992C727.135 660.769 726.44 658.578 725.556 656.444C724.672 654.309 723.614 652.269 722.399 650.34L736.788 635.94L736.793 635.935C740.305 632.42 740.304 626.723 736.79 623.21C733.277 619.696 727.58 619.695 724.065 623.207L724.06 623.212L709.66 637.601C707.731 636.386 705.691 635.328 703.556 634.444C701.422 633.56 699.231 632.865 697.008 632.36L697 612.003V611.997Z" fill="currentColor"/>
<path d="M697 611.997H699V611.996L697 611.997ZM679 611.997L677 611.996V611.997H679ZM679 612.003L681 612.004V612.003H679ZM678.992 632.36L679.435 634.31C680.346 634.103 680.992 633.294 680.992 632.36L678.992 632.36ZM672.444 634.444L671.678 632.596H671.678L672.444 634.444ZM666.34 637.601L664.926 639.015C665.586 639.675 666.615 639.79 667.405 639.293L666.34 637.601ZM651.94 623.212L650.526 624.626L650.526 624.627L651.94 623.212ZM651.935 623.207L653.349 621.793L653.349 621.792L651.935 623.207ZM639.207 635.935L637.792 637.349L637.793 637.349L639.207 635.935ZM639.212 635.94L640.627 634.526L640.626 634.526L639.212 635.94ZM653.601 650.34L655.293 651.405C655.79 650.615 655.675 649.586 655.015 648.926L653.601 650.34ZM650.444 656.444L652.291 657.209L650.444 656.444ZM648.36 662.992L648.36 664.992C649.294 664.992 650.103 664.346 650.31 663.435L648.36 662.992ZM628.003 663V665H628.004L628.003 663ZM627.997 663V661H627.996L627.997 663ZM627.997 681L627.996 683H627.997V681ZM628.003 681L628.004 679H628.003V681ZM648.36 681.008L650.31 680.565C650.103 679.654 649.294 679.008 648.36 679.008L648.36 681.008ZM653.601 693.66L655.015 695.074C655.675 694.414 655.79 693.385 655.293 692.595L653.601 693.66ZM639.212 708.06L640.626 709.474L640.627 709.474L639.212 708.06ZM639.207 708.065L637.793 706.651L637.792 706.651L639.207 708.065ZM639.21 720.79L640.624 719.376H640.624L639.21 720.79ZM651.935 720.793L653.349 722.208L653.349 722.207L651.935 720.793ZM651.94 720.788L650.526 719.373L650.526 719.374L651.94 720.788ZM666.34 706.399L667.405 704.707C666.615 704.21 665.586 704.325 664.926 704.985L666.34 706.399ZM678.992 711.64L680.992 711.64C680.992 710.706 680.346 709.897 679.435 709.69L678.992 711.64ZM679 731.997H681V731.996L679 731.997ZM679 732.003H677V732.004L679 732.003ZM697 732.003L699 732.004V732.003H697ZM697 731.997L695 731.996V731.997H697ZM697.008 711.64L696.565 709.69C695.654 709.897 695.008 710.706 695.008 711.64L697.008 711.64ZM709.66 706.399L711.074 704.985C710.414 704.325 709.385 704.21 708.595 704.707L709.66 706.399ZM724.06 720.788L725.474 719.374L725.474 719.373L724.06 720.788ZM724.065 720.793L722.651 722.207L722.651 722.208L724.065 720.793ZM736.79 720.79L735.376 719.376L736.79 720.79ZM736.793 708.065L738.208 706.651L738.207 706.651L736.793 708.065ZM736.788 708.06L735.373 709.474L735.374 709.474L736.788 708.06ZM722.399 693.66L720.707 692.595C720.21 693.385 720.325 694.414 720.985 695.074L722.399 693.66ZM727.64 681.008L727.64 679.008C726.706 679.008 725.897 679.654 725.69 680.565L727.64 681.008ZM747.997 681V679H747.996L747.997 681ZM748.003 681V683H748.004L748.003 681ZM748.003 663L748.004 661H748.003V663ZM747.997 663L747.996 665H747.997V663ZM727.64 662.992L725.69 663.435C725.897 664.346 726.706 664.992 727.64 664.992L727.64 662.992ZM722.399 650.34L720.985 648.926C720.325 649.586 720.21 650.615 720.707 651.405L722.399 650.34ZM736.788 635.94L735.374 634.526L735.373 634.526L736.788 635.94ZM736.793 635.935L738.207 637.349L738.208 637.349L736.793 635.935ZM736.79 623.21L735.376 624.624V624.624L736.79 623.21ZM724.065 623.207L722.651 621.792L722.651 621.793L724.065 623.207ZM724.06 623.212L725.474 624.627L725.474 624.626L724.06 623.212ZM709.66 637.601L708.595 639.293C709.385 639.79 710.414 639.675 711.074 639.015L709.66 637.601ZM697.008 632.36L695.008 632.36C695.008 633.294 695.654 634.103 696.565 634.31L697.008 632.36ZM697 612.003H695V612.004L697 612.003ZM688 605C691.865 605 694.999 608.132 695 611.997L699 611.996C698.998 605.922 694.073 601 688 601V605ZM681 611.997C681.001 608.132 684.135 605 688 605V601C681.927 601 677.002 605.922 677 611.996L681 611.997ZM681 612.003V611.997H677V612.003H681ZM680.992 632.36L681 612.004L677 612.003L676.992 632.359L680.992 632.36ZM673.209 636.291C675.239 635.451 677.322 634.79 679.435 634.31L678.549 630.409C676.216 630.939 673.918 631.668 671.678 632.596L673.209 636.291ZM667.405 639.293C669.24 638.138 671.18 637.132 673.209 636.291L671.678 632.596C669.439 633.523 667.298 634.634 665.274 635.908L667.405 639.293ZM650.526 624.627L664.926 639.015L667.753 636.186L653.354 621.797L650.526 624.627ZM650.521 624.621L650.526 624.626L653.354 621.798L653.349 621.793L650.521 624.621ZM640.624 624.624C643.357 621.891 647.787 621.89 650.521 624.622L653.349 621.792C649.053 617.499 642.09 617.501 637.795 621.795L640.624 624.624ZM640.622 634.521C637.89 631.787 637.891 627.357 640.624 624.624L637.795 621.795C633.501 626.09 633.499 633.053 637.792 637.349L640.622 634.521ZM640.626 634.526L640.621 634.521L637.793 637.349L637.798 637.354L640.626 634.526ZM655.015 648.926L640.627 634.526L637.797 637.354L652.186 651.753L655.015 648.926ZM652.291 657.209C653.132 655.18 654.138 653.24 655.293 651.405L651.908 649.274C650.634 651.298 649.523 653.439 648.596 655.678L652.291 657.209ZM650.31 663.435C650.79 661.322 651.451 659.239 652.291 657.209L648.596 655.678C647.668 657.918 646.939 660.216 646.409 662.549L650.31 663.435ZM628.004 665L648.36 664.992L648.359 660.992L628.003 661L628.004 665ZM627.997 665H628.003V661H627.997V665ZM621 672C621 668.135 624.132 665.001 627.997 665L627.996 661C621.922 661.002 617 665.927 617 672H621ZM627.997 679C624.132 678.999 621 675.865 621 672H617C617 678.073 621.922 682.998 627.996 683L627.997 679ZM628.003 679H627.997V683H628.003V679ZM648.36 679.008L628.004 679L628.003 683L648.359 683.008L648.36 679.008ZM652.291 686.791C651.451 684.761 650.79 682.678 650.31 680.565L646.409 681.451C646.939 683.784 647.668 686.082 648.596 688.322L652.291 686.791ZM655.293 692.595C654.138 690.76 653.132 688.82 652.291 686.791L648.596 688.322C649.523 690.561 650.634 692.702 651.908 694.726L655.293 692.595ZM640.627 709.474L655.015 695.074L652.186 692.247L637.797 706.646L640.627 709.474ZM640.621 709.479L640.626 709.474L637.798 706.646L637.793 706.651L640.621 709.479ZM640.624 719.376C637.891 716.643 637.89 712.213 640.622 709.479L637.792 706.651C633.499 710.947 633.501 717.91 637.795 722.205L640.624 719.376ZM650.521 719.378C647.787 722.11 643.357 722.109 640.624 719.376L637.795 722.205C642.09 726.499 649.053 726.501 653.349 722.208L650.521 719.378ZM650.526 719.374L650.521 719.379L653.349 722.207L653.354 722.202L650.526 719.374ZM664.926 704.985L650.526 719.373L653.354 722.203L667.753 707.814L664.926 704.985ZM673.209 707.709C671.18 706.868 669.24 705.862 667.405 704.707L665.274 708.092C667.298 709.366 669.439 710.477 671.678 711.404L673.209 707.709ZM679.435 709.69C677.322 709.21 675.239 708.549 673.209 707.709L671.678 711.404C673.918 712.332 676.216 713.061 678.549 713.591L679.435 709.69ZM681 731.996L680.992 711.64L676.992 711.641L677 731.997L681 731.996ZM681 732.003V731.997H677V732.003H681ZM688 739C684.135 739 681.001 735.868 681 732.003L677 732.004C677.002 738.078 681.927 743 688 743V739ZM695 732.003C694.999 735.868 691.865 739 688 739V743C694.073 743 698.998 738.078 699 732.004L695 732.003ZM695 731.997V732.003H699V731.997H695ZM695.008 711.64L695 731.996L699 731.997L699.008 711.641L695.008 711.64ZM702.791 707.709C700.761 708.549 698.678 709.21 696.565 709.69L697.451 713.591C699.784 713.061 702.082 712.332 704.322 711.404L702.791 707.709ZM708.595 704.707C706.76 705.862 704.82 706.868 702.791 707.709L704.322 711.404C706.561 710.477 708.702 709.366 710.726 708.092L708.595 704.707ZM725.474 719.373L711.074 704.985L708.247 707.814L722.646 722.203L725.474 719.373ZM725.479 719.379L725.474 719.374L722.646 722.202L722.651 722.207L725.479 719.379ZM735.376 719.376C732.643 722.109 728.213 722.11 725.479 719.378L722.651 722.208C726.947 726.501 733.91 726.499 738.205 722.205L735.376 719.376ZM735.378 709.479C738.11 712.213 738.109 716.643 735.376 719.376L738.205 722.205C742.499 717.91 742.501 710.947 738.208 706.651L735.378 709.479ZM735.374 709.474L735.379 709.479L738.207 706.651L738.202 706.646L735.374 709.474ZM720.985 695.074L735.373 709.474L738.203 706.646L723.814 692.247L720.985 695.074ZM723.709 686.791C722.868 688.82 721.862 690.76 720.707 692.595L724.092 694.726C725.366 692.702 726.477 690.561 727.404 688.322L723.709 686.791ZM725.69 680.565C725.21 682.678 724.549 684.761 723.709 686.791L727.404 688.322C728.332 686.082 729.061 683.784 729.591 681.451L725.69 680.565ZM747.996 679L727.64 679.008L727.641 683.008L747.997 683L747.996 679ZM748.003 679H747.997V683H748.003V679ZM755 672C755 675.865 751.868 678.999 748.003 679L748.004 683C754.078 682.998 759 678.073 759 672H755ZM748.003 665C751.868 665.001 755 668.135 755 672H759C759 665.927 754.078 661.002 748.004 661L748.003 665ZM747.997 665H748.003V661H747.997V665ZM727.64 664.992L747.996 665L747.997 661L727.641 660.992L727.64 664.992ZM723.709 657.209C724.549 659.239 725.21 661.322 725.69 663.435L729.591 662.549C729.061 660.216 728.332 657.918 727.404 655.678L723.709 657.209ZM720.707 651.405C721.862 653.24 722.868 655.18 723.709 657.209L727.404 655.678C726.477 653.439 725.366 651.298 724.092 649.274L720.707 651.405ZM735.373 634.526L720.985 648.926L723.814 651.753L738.203 637.354L735.373 634.526ZM735.379 634.521L735.374 634.526L738.202 637.354L738.207 637.349L735.379 634.521ZM735.376 624.624C738.109 627.357 738.11 631.787 735.378 634.521L738.208 637.349C742.501 633.053 742.499 626.09 738.205 621.795L735.376 624.624ZM725.479 624.622C728.213 621.89 732.643 621.891 735.376 624.624L738.205 621.795C733.91 617.501 726.947 617.499 722.651 621.792L725.479 624.622ZM725.474 624.626L725.479 624.621L722.651 621.793L722.646 621.798L725.474 624.626ZM711.074 639.015L725.474 624.627L722.646 621.797L708.247 636.186L711.074 639.015ZM702.791 636.291C704.82 637.132 706.76 638.138 708.595 639.293L710.726 635.908C708.702 634.634 706.561 633.523 704.322 632.596L702.791 636.291ZM696.565 634.31C698.678 634.79 700.761 635.451 702.791 636.291L704.322 632.596C702.082 631.668 699.784 630.939 697.451 630.409L696.565 634.31ZM695 612.004L695.008 632.36L699.008 632.359L699 612.003L695 612.004ZM695 611.997V612.003H699V611.997H695Z" fill="currentColor"/>
</g>
<path d="M678.808 694.192C684.693 696.63 691.307 696.63 697.192 694.192C703.078 691.754 707.754 687.078 710.192 681.192C712.63 675.307 712.63 668.693 710.192 662.808C707.754 656.922 703.078 652.246 697.192 649.808C691.307 647.37 684.693 647.37 678.808 649.808C672.922 652.246 668.246 656.922 665.808 662.808C663.37 668.693 663.37 675.307 665.808 681.192C668.246 687.078 672.922 691.754 678.808 694.192Z" fill="currentColor" stroke="currentColor" stroke-width="4" stroke-linecap="round" stroke-linejoin="round"/>
<path fill-rule="evenodd" clip-rule="evenodd" d="M873 611.997C872.998 607.027 868.969 603 864 603C859.031 603 855.002 607.027 855 611.997V612.003L854.992 632.36C852.769 632.865 850.578 633.56 848.444 634.444C846.309 635.328 844.269 636.386 842.34 637.601L827.94 623.212L827.935 623.207C824.42 619.695 818.723 619.696 815.21 623.21C811.696 626.723 811.695 632.42 815.207 635.935L815.212 635.94L829.601 650.34C828.386 652.269 827.328 654.309 826.444 656.444C825.56 658.578 824.865 660.769 824.36 662.992L804.003 663H803.997C799.027 663.002 795 667.031 795 672C795 676.969 799.027 680.998 803.997 681H804.003L824.36 681.008C824.865 683.231 825.56 685.422 826.444 687.556C827.328 689.691 828.386 691.731 829.601 693.66L815.212 708.06L815.207 708.065C811.695 711.58 811.696 717.277 815.21 720.79C818.723 724.304 824.42 724.305 827.935 720.793L827.94 720.788L842.34 706.399C844.269 707.614 846.309 708.672 848.444 709.556C850.578 710.44 852.769 711.135 854.992 711.64L855 731.997V732.003C855.002 736.973 859.031 741 864 741C868.969 741 872.998 736.973 873 732.003V731.997L873.008 711.64C875.231 711.135 877.422 710.44 879.556 709.556C881.691 708.672 883.731 707.614 885.66 706.399L900.06 720.788L900.065 720.793C903.58 724.305 909.277 724.304 912.79 720.79C916.304 717.277 916.305 711.58 912.793 708.065L912.788 708.06L898.399 693.66C899.614 691.731 900.672 689.691 901.556 687.556C902.44 685.422 903.135 683.231 903.64 681.008L923.997 681H924.003C928.973 680.998 933 676.969 933 672C933 667.031 928.973 663.002 924.003 663H923.997L903.64 662.992C903.135 660.769 902.44 658.578 901.556 656.444C900.672 654.309 899.614 652.269 898.399 650.34L912.788 635.94L912.793 635.935C916.305 632.42 916.304 626.723 912.79 623.21C909.277 619.696 903.58 619.695 900.065 623.207L900.06 623.212L885.66 637.601C883.731 636.386 881.691 635.328 879.556 634.444C877.422 633.56 875.231 632.865 873.008 632.36L873 612.003V611.997Z" fill="#FFA500"/>
<path d="M873 611.997H875V611.996L873 611.997ZM855 611.997L853 611.996V611.997H855ZM855 612.003L857 612.004V612.003H855ZM854.992 632.36L855.435 634.31C856.346 634.103 856.992 633.294 856.992 632.36L854.992 632.36ZM848.444 634.444L847.678 632.596H847.678L848.444 634.444ZM842.34 637.601L840.926 639.015C841.586 639.675 842.615 639.79 843.405 639.293L842.34 637.601ZM827.94 623.212L826.526 624.626L826.526 624.627L827.94 623.212ZM827.935 623.207L829.349 621.793L829.349 621.792L827.935 623.207ZM815.207 635.935L813.792 637.349L813.793 637.349L815.207 635.935ZM815.212 635.94L816.627 634.526L816.626 634.526L815.212 635.94ZM829.601 650.34L831.293 651.405C831.79 650.615 831.675 649.586 831.015 648.926L829.601 650.34ZM826.444 656.444L828.291 657.209L826.444 656.444ZM824.36 662.992L824.36 664.992C825.294 664.992 826.103 664.346 826.31 663.435L824.36 662.992ZM804.003 663V665H804.004L804.003 663ZM803.997 663V661H803.996L803.997 663ZM803.997 681L803.996 683H803.997V681ZM804.003 681L804.004 679H804.003V681ZM824.36 681.008L826.31 680.565C826.103 679.654 825.294 679.008 824.36 679.008L824.36 681.008ZM829.601 693.66L831.015 695.074C831.675 694.414 831.79 693.385 831.293 692.595L829.601 693.66ZM815.212 708.06L816.626 709.474L816.627 709.474L815.212 708.06ZM815.207 708.065L813.793 706.651L813.792 706.651L815.207 708.065ZM815.21 720.79L816.624 719.376H816.624L815.21 720.79ZM827.935 720.793L829.349 722.208L829.349 722.207L827.935 720.793ZM827.94 720.788L826.526 719.373L826.526 719.374L827.94 720.788ZM842.34 706.399L843.405 704.707C842.615 704.21 841.586 704.325 840.926 704.985L842.34 706.399ZM854.992 711.64L856.992 711.64C856.992 710.706 856.346 709.897 855.435 709.69L854.992 711.64ZM855 731.997H857V731.996L855 731.997ZM855 732.003H853V732.004L855 732.003ZM873 732.003L875 732.004V732.003H873ZM873 731.997L871 731.996V731.997H873ZM873.008 711.64L872.565 709.69C871.654 709.897 871.008 710.706 871.008 711.64L873.008 711.64ZM885.66 706.399L887.074 704.985C886.414 704.325 885.385 704.21 884.595 704.707L885.66 706.399ZM900.06 720.788L901.474 719.374L901.474 719.373L900.06 720.788ZM900.065 720.793L898.651 722.207L898.651 722.208L900.065 720.793ZM912.79 720.79L911.376 719.376L912.79 720.79ZM912.793 708.065L914.208 706.651L914.207 706.651L912.793 708.065ZM912.788 708.06L911.373 709.474L911.374 709.474L912.788 708.06ZM898.399 693.66L896.707 692.595C896.21 693.385 896.325 694.414 896.985 695.074L898.399 693.66ZM903.64 681.008L903.64 679.008C902.706 679.008 901.897 679.654 901.69 680.565L903.64 681.008ZM923.997 681V679H923.996L923.997 681ZM924.003 681V683H924.004L924.003 681ZM924.003 663L924.004 661H924.003V663ZM923.997 663L923.996 665H923.997V663ZM903.64 662.992L901.69 663.435C901.897 664.346 902.706 664.992 903.64 664.992L903.64 662.992ZM898.399 650.34L896.985 648.926C896.325 649.586 896.21 650.615 896.707 651.405L898.399 650.34ZM912.788 635.94L911.374 634.526L911.373 634.526L912.788 635.94ZM912.793 635.935L914.207 637.349L914.208 637.349L912.793 635.935ZM912.79 623.21L911.376 624.624V624.624L912.79 623.21ZM900.065 623.207L898.651 621.792L898.651 621.793L900.065 623.207ZM900.06 623.212L901.474 624.627L901.474 624.626L900.06 623.212ZM885.66 637.601L884.595 639.293C885.385 639.79 886.414 639.675 887.074 639.015L885.66 637.601ZM873.008 632.36L871.008 632.36C871.008 633.294 871.654 634.103 872.565 634.31L873.008 632.36ZM873 612.003H871V612.004L873 612.003ZM864 605C867.865 605 870.999 608.132 871 611.997L875 611.996C874.998 605.922 870.073 601 864 601V605ZM857 611.997C857.001 608.132 860.135 605 864 605V601C857.927 601 853.002 605.922 853 611.996L857 611.997ZM857 612.003V611.997H853V612.003H857ZM856.992 632.36L857 612.004L853 612.003L852.992 632.359L856.992 632.36ZM849.209 636.291C851.239 635.451 853.322 634.79 855.435 634.31L854.549 630.409C852.216 630.939 849.918 631.668 847.678 632.596L849.209 636.291ZM843.405 639.293C845.24 638.138 847.18 637.132 849.209 636.291L847.678 632.596C845.439 633.523 843.298 634.634 841.274 635.908L843.405 639.293ZM826.526 624.627L840.926 639.015L843.753 636.186L829.354 621.797L826.526 624.627ZM826.521 624.621L826.526 624.626L829.354 621.798L829.349 621.793L826.521 624.621ZM816.624 624.624C819.357 621.891 823.787 621.89 826.521 624.622L829.349 621.792C825.053 617.499 818.09 617.501 813.795 621.795L816.624 624.624ZM816.622 634.521C813.89 631.787 813.891 627.357 816.624 624.624L813.795 621.795C809.501 626.09 809.499 633.053 813.792 637.349L816.622 634.521ZM816.626 634.526L816.621 634.521L813.793 637.349L813.798 637.354L816.626 634.526ZM831.015 648.926L816.627 634.526L813.797 637.354L828.186 651.753L831.015 648.926ZM828.291 657.209C829.132 655.18 830.138 653.24 831.293 651.405L827.908 649.274C826.634 651.298 825.523 653.439 824.596 655.678L828.291 657.209ZM826.31 663.435C826.79 661.322 827.451 659.239 828.291 657.209L824.596 655.678C823.668 657.918 822.939 660.216 822.409 662.549L826.31 663.435ZM804.004 665L824.36 664.992L824.359 660.992L804.003 661L804.004 665ZM803.997 665H804.003V661H803.997V665ZM797 672C797 668.135 800.132 665.001 803.997 665L803.996 661C797.922 661.002 793 665.927 793 672H797ZM803.997 679C800.132 678.999 797 675.865 797 672H793C793 678.073 797.922 682.998 803.996 683L803.997 679ZM804.003 679H803.997V683H804.003V679ZM824.36 679.008L804.004 679L804.003 683L824.359 683.008L824.36 679.008ZM828.291 686.791C827.451 684.761 826.79 682.678 826.31 680.565L822.409 681.451C822.939 683.784 823.668 686.082 824.596 688.322L828.291 686.791ZM831.293 692.595C830.138 690.76 829.132 688.82 828.291 686.791L824.596 688.322C825.523 690.561 826.634 692.702 827.908 694.726L831.293 692.595ZM816.627 709.474L831.015 695.074L828.186 692.247L813.797 706.646L816.627 709.474ZM816.621 709.479L816.626 709.474L813.798 706.646L813.793 706.651L816.621 709.479ZM816.624 719.376C813.891 716.643 813.89 712.213 816.622 709.479L813.792 706.651C809.499 710.947 809.501 717.91 813.795 722.205L816.624 719.376ZM826.521 719.378C823.787 722.11 819.357 722.109 816.624 719.376L813.795 722.205C818.09 726.499 825.053 726.501 829.349 722.208L826.521 719.378ZM826.526 719.374L826.521 719.379L829.349 722.207L829.354 722.202L826.526 719.374ZM840.926 704.985L826.526 719.373L829.354 722.203L843.753 707.814L840.926 704.985ZM849.209 707.709C847.18 706.868 845.24 705.862 843.405 704.707L841.274 708.092C843.298 709.366 845.439 710.477 847.678 711.404L849.209 707.709ZM855.435 709.69C853.322 709.21 851.239 708.549 849.209 707.709L847.678 711.404C849.918 712.332 852.216 713.061 854.549 713.591L855.435 709.69ZM857 731.996L856.992 711.64L852.992 711.641L853 731.997L857 731.996ZM857 732.003V731.997H853V732.003H857ZM864 739C860.135 739 857.001 735.868 857 732.003L853 732.004C853.002 738.078 857.927 743 864 743V739ZM871 732.003C870.999 735.868 867.865 739 864 739V743C870.073 743 874.998 738.078 875 732.004L871 732.003ZM871 731.997V732.003H875V731.997H871ZM871.008 711.64L871 731.996L875 731.997L875.008 711.641L871.008 711.64ZM878.791 707.709C876.761 708.549 874.678 709.21 872.565 709.69L873.451 713.591C875.784 713.061 878.082 712.332 880.322 711.404L878.791 707.709ZM884.595 704.707C882.76 705.862 880.82 706.868 878.791 707.709L880.322 711.404C882.561 710.477 884.702 709.366 886.726 708.092L884.595 704.707ZM901.474 719.373L887.074 704.985L884.247 707.814L898.646 722.203L901.474 719.373ZM901.479 719.379L901.474 719.374L898.646 722.202L898.651 722.207L901.479 719.379ZM911.376 719.376C908.643 722.109 904.213 722.11 901.479 719.378L898.651 722.208C902.947 726.501 909.91 726.499 914.205 722.205L911.376 719.376ZM911.378 709.479C914.11 712.213 914.109 716.643 911.376 719.376L914.205 722.205C918.499 717.91 918.501 710.947 914.208 706.651L911.378 709.479ZM911.374 709.474L911.379 709.479L914.207 706.651L914.202 706.646L911.374 709.474ZM896.985 695.074L911.373 709.474L914.203 706.646L899.814 692.247L896.985 695.074ZM899.709 686.791C898.868 688.82 897.862 690.76 896.707 692.595L900.092 694.726C901.366 692.702 902.477 690.561 903.404 688.322L899.709 686.791ZM901.69 680.565C901.21 682.678 900.549 684.761 899.709 686.791L903.404 688.322C904.332 686.082 905.061 683.784 905.591 681.451L901.69 680.565ZM923.996 679L903.64 679.008L903.641 683.008L923.997 683L923.996 679ZM924.003 679H923.997V683H924.003V679ZM931 672C931 675.865 927.868 678.999 924.003 679L924.004 683C930.078 682.998 935 678.073 935 672H931ZM924.003 665C927.868 665.001 931 668.135 931 672H935C935 665.927 930.078 661.002 924.004 661L924.003 665ZM923.997 665H924.003V661H923.997V665ZM903.64 664.992L923.996 665L923.997 661L903.641 660.992L903.64 664.992ZM899.709 657.209C900.549 659.239 901.21 661.322 901.69 663.435L905.591 662.549C905.061 660.216 904.332 657.918 903.404 655.678L899.709 657.209ZM896.707 651.405C897.862 653.24 898.868 655.18 899.709 657.209L903.404 655.678C902.477 653.439 901.366 651.298 900.092 649.274L896.707 651.405ZM911.373 634.526L896.985 648.926L899.814 651.753L914.203 637.354L911.373 634.526ZM911.379 634.521L911.374 634.526L914.202 637.354L914.207 637.349L911.379 634.521ZM911.376 624.624C914.109 627.357 914.11 631.787 911.378 634.521L914.208 637.349C918.501 633.053 918.499 626.09 914.205 621.795L911.376 624.624ZM901.479 624.622C904.213 621.89 908.643 621.891 911.376 624.624L914.205 621.795C909.91 617.501 902.947 617.499 898.651 621.792L901.479 624.622ZM901.474 624.626L901.479 624.621L898.651 621.793L898.646 621.798L901.474 624.626ZM887.074 639.015L901.474 624.627L898.646 621.797L884.247 636.186L887.074 639.015ZM878.791 636.291C880.82 637.132 882.76 638.138 884.595 639.293L886.726 635.908C884.702 634.634 882.561 633.523 880.322 632.596L878.791 636.291ZM872.565 634.31C874.678 634.79 876.761 635.451 878.791 636.291L880.322 632.596C878.082 631.668 875.784 630.939 873.451 630.409L872.565 634.31ZM871 612.004L871.008 632.36L875.008 632.359L875 612.003L871 612.004ZM871 611.997V612.003H875V611.997H871Z" fill="#FFA500"/>
<path d="M854.808 694.192C860.693 696.63 867.307 696.63 873.192 694.192C879.078 691.754 883.754 687.078 886.192 681.192C888.63 675.307 888.63 668.693 886.192 662.808C883.754 656.922 879.078 652.246 873.192 649.808C867.307 647.37 860.693 647.37 854.808 649.808C848.922 652.246 844.246 656.922 841.808 662.808C839.37 668.693 839.37 675.307 841.808 681.192C844.246 687.078 848.922 691.754 854.808 694.192Z" fill="#FFD700" stroke="#FFD700" stroke-width="4" stroke-linecap="round" stroke-linejoin="round"/>
</svg>
