<svg viewBox="0 0 1024 768" fill="none" xmlns="http://www.w3.org/2000/svg">
<path d="M419.695 53.7609C420.79 49.2462 427.21 49.2462 428.305 53.7609V53.7609C429.193 57.4263 433.964 58.3753 436.187 55.3288V55.3288C438.926 51.5766 444.858 54.0338 444.141 58.6235V58.6235C443.559 62.3499 447.604 65.0522 450.824 63.0886V63.0886C454.79 60.6699 459.33 65.2102 456.911 69.1763V69.1763C454.948 72.3964 457.65 76.4407 461.376 75.8588V75.8588C465.966 75.142 468.423 81.0742 464.671 83.8128V83.8128C461.625 86.0363 462.574 90.8069 466.239 91.6953V91.6953C470.754 92.7895 470.754 99.2105 466.239 100.305V100.305C462.574 101.193 461.625 105.964 464.671 108.187V108.187C468.423 110.926 465.966 116.858 461.376 116.141V116.141C457.65 115.559 454.948 119.604 456.911 122.824V122.824C459.33 126.79 454.79 131.33 450.824 128.911V128.911C447.604 126.948 443.559 129.65 444.141 133.376V133.376C444.858 137.966 438.926 140.423 436.187 136.671V136.671C433.964 133.625 429.193 134.574 428.305 138.239V138.239C427.21 142.754 420.79 142.754 419.695 138.239V138.239C418.807 134.574 414.036 133.625 411.813 136.671V136.671C409.074 140.423 403.142 137.966 403.859 133.376V133.376C404.441 129.65 400.396 126.948 397.176 128.911V128.911C393.21 131.33 388.67 126.79 391.089 122.824V122.824C393.052 119.604 390.35 115.559 386.624 116.141V116.141C382.034 116.858 379.577 110.926 383.329 108.187V108.187C386.375 105.964 385.426 101.193 381.761 100.305V100.305C377.246 99.2105 377.246 92.7895 381.761 91.6953V91.6953C385.426 90.8069 386.375 86.0363 383.329 83.8128V83.8128C379.577 81.0742 382.034 75.142 386.624 75.8588V75.8588C390.35 76.4407 393.052 72.3964 391.089 69.1763V69.1763C388.67 65.2103 393.21 60.6699 397.176 63.0886V63.0886C400.396 65.0522 404.441 62.3499 403.859 58.6235V58.6235C403.142 54.0338 409.074 51.5766 411.813 55.3288V55.3288C414.036 58.3753 418.807 57.4263 419.695 53.7609V53.7609Z" stroke="#7B61FF" stroke-width="2" stroke-linecap="round" stroke-linejoin="round"/>
<path d="M578.787 147.213C592.369 152.839 607.631 152.839 621.213 147.213V147.213C634.796 141.587 645.587 130.796 651.213 117.213V117.213C656.839 103.631 656.839 88.3694 651.213 74.7868V74.7868C645.587 61.2042 634.796 50.4129 621.213 44.7868V44.7868C607.631 39.1607 592.369 39.1607 578.787 44.7868V44.7868C565.204 50.4129 554.413 61.2042 548.787 74.7868V74.7868C543.161 88.3694 543.161 103.631 548.787 117.213V117.213C554.413 130.796 565.204 141.587 578.787 147.213V147.213Z" stroke="#7B61FF" stroke-width="2" stroke-linecap="round" stroke-linejoin="round"/>
<path fill-rule="evenodd" clip-rule="evenodd" d="M583.209 277.428C576.764 259.097 554.525 249.885 537.005 258.29C524.036 243.82 499.964 243.82 486.995 258.29C469.475 249.885 447.236 259.097 440.791 277.428C421.388 276.367 404.367 293.388 405.428 312.791C387.096 319.236 377.885 341.475 386.289 358.995C371.82 371.965 371.82 396.036 386.289 409.006C377.885 426.525 387.096 448.764 405.428 455.21C404.367 474.612 421.388 491.633 440.791 490.573C447.236 508.904 469.475 518.116 486.995 509.711C499.964 524.18 524.036 524.18 537.005 509.711C554.525 518.116 576.764 508.904 583.209 490.573C602.612 491.633 619.633 474.612 618.572 455.21C636.904 448.764 646.115 426.525 637.711 409.006C652.18 396.036 652.18 371.965 637.711 358.995C646.115 341.475 636.904 319.236 618.572 312.791C619.633 293.388 602.612 276.367 583.209 277.428ZM489.019 439.481C503.734 445.576 520.267 445.576 534.981 439.481C549.695 433.386 561.386 421.696 567.481 406.981C573.576 392.267 573.576 375.734 567.481 361.019C561.386 346.305 549.695 334.614 534.981 328.519C520.267 322.424 503.734 322.424 489.019 328.519C474.305 334.614 462.614 346.305 456.519 361.019C450.424 375.734 450.424 392.267 456.519 406.981C462.614 421.696 474.305 433.386 489.019 439.481Z" fill="#888888" fill-opacity="0.5"/>
<path d="M537.005 258.29L533.282 261.627C534.766 263.282 537.164 263.759 539.168 262.798L537.005 258.29ZM583.209 277.428L578.492 279.086C579.23 281.183 581.263 282.542 583.482 282.421L583.209 277.428ZM486.995 258.29L484.832 262.798C486.836 263.759 489.234 263.282 490.718 261.627L486.995 258.29ZM440.791 277.428L440.518 282.421C442.737 282.542 444.77 281.183 445.508 279.086L440.791 277.428ZM405.428 312.791L407.086 317.508C409.183 316.771 410.542 314.738 410.42 312.518L405.428 312.791ZM386.289 358.995L389.627 362.718C391.282 361.234 391.759 358.836 390.798 356.832L386.289 358.995ZM386.289 409.006L390.798 411.168C391.759 409.164 391.282 406.766 389.627 405.282L386.289 409.006ZM405.428 455.21L410.42 455.482C410.542 453.263 409.183 451.23 407.086 450.493L405.428 455.21ZM440.791 490.573L445.508 488.914C444.77 486.817 442.737 485.459 440.518 485.58L440.791 490.573ZM486.995 509.711L490.718 506.374C489.234 504.718 486.836 504.241 484.832 505.203L486.995 509.711ZM537.005 509.711L539.168 505.203C537.164 504.241 534.766 504.718 533.282 506.374L537.005 509.711ZM583.209 490.573L583.482 485.58C581.263 485.459 579.23 486.817 578.492 488.914L583.209 490.573ZM618.572 455.21L616.914 450.493C614.817 451.23 613.458 453.263 613.58 455.482L618.572 455.21ZM637.711 409.006L634.373 405.282C632.718 406.766 632.241 409.164 633.203 411.168L637.711 409.006ZM637.711 358.995L633.202 356.832C632.241 358.836 632.718 361.234 634.373 362.718L637.711 358.995ZM618.572 312.791L613.58 312.518C613.458 314.738 614.817 316.771 616.914 317.508L618.572 312.791ZM534.981 439.481L536.894 444.101L534.981 439.481ZM489.019 439.481L487.106 444.101H487.106L489.019 439.481ZM567.481 406.981L572.1 408.895L567.481 406.981ZM567.481 361.019L572.1 359.106V359.106L567.481 361.019ZM534.981 328.519L533.068 333.139L534.981 328.519ZM489.019 328.519L490.932 333.139H490.932L489.019 328.519ZM456.519 361.019L461.138 362.933V362.933L456.519 361.019ZM456.519 406.981L461.138 405.068L456.519 406.981ZM539.168 262.798C554.004 255.681 573.035 263.564 578.492 279.086L587.926 275.77C580.494 254.629 555.047 244.089 534.843 253.782L539.168 262.798ZM490.718 261.627C501.701 249.374 522.3 249.374 533.282 261.627L540.729 254.952C525.772 238.266 498.228 238.266 483.271 254.952L490.718 261.627ZM445.508 279.086C450.965 263.564 469.996 255.681 484.832 262.798L489.157 253.782C468.953 244.089 443.507 254.629 436.074 275.77L445.508 279.086ZM410.42 312.518C409.522 296.088 424.088 281.522 440.518 282.421L441.064 272.435C418.688 271.212 399.212 290.689 400.435 313.064L410.42 312.518ZM390.798 356.832C383.68 341.997 391.563 322.966 407.086 317.508L403.769 308.074C382.629 315.507 372.089 340.953 381.781 361.158L390.798 356.832ZM389.627 405.282C377.374 394.3 377.374 373.701 389.627 362.718L382.952 355.272C366.266 370.229 366.266 397.772 382.952 412.729L389.627 405.282ZM407.086 450.493C391.563 445.035 383.68 426.004 390.798 411.168L381.781 406.843C372.089 427.047 382.629 452.494 403.769 459.927L407.086 450.493ZM440.518 485.58C424.088 486.478 409.522 471.912 410.42 455.482L400.435 454.937C399.212 477.312 418.688 496.788 441.064 495.565L440.518 485.58ZM484.832 505.203C469.996 512.32 450.965 504.437 445.508 488.914L436.074 492.231C443.506 513.371 468.953 523.911 489.157 514.219L484.832 505.203ZM533.282 506.374C522.3 518.626 501.701 518.626 490.718 506.374L483.271 513.048C498.228 529.735 525.772 529.735 540.729 513.048L533.282 506.374ZM578.492 488.914C573.035 504.437 554.004 512.32 539.168 505.203L534.843 514.219C555.047 523.911 580.494 513.371 587.926 492.231L578.492 488.914ZM613.58 455.482C614.478 471.912 599.912 486.478 583.482 485.58L582.936 495.565C605.312 496.788 624.788 477.312 623.565 454.937L613.58 455.482ZM633.203 411.168C640.32 426.004 632.437 445.035 616.914 450.493L620.231 459.927C641.371 452.494 651.911 427.047 642.219 406.843L633.203 411.168ZM634.373 362.718C646.626 373.701 646.626 394.3 634.373 405.282L641.048 412.729C657.734 397.772 657.734 370.229 641.048 355.272L634.373 362.718ZM616.914 317.508C632.437 322.966 640.32 341.997 633.202 356.832L642.219 361.158C651.911 340.954 641.371 315.507 620.231 308.074L616.914 317.508ZM583.482 282.421C599.912 281.523 614.478 296.088 613.58 312.518L623.565 313.064C624.788 290.689 605.312 271.212 582.936 272.435L583.482 282.421ZM533.068 434.862C519.578 440.449 504.422 440.449 490.932 434.862L487.106 444.101C503.045 450.703 520.955 450.703 536.894 444.101L533.068 434.862ZM562.862 405.068C557.274 418.557 546.557 429.274 533.068 434.862L536.894 444.101C552.834 437.498 565.498 424.834 572.1 408.895L562.862 405.068ZM562.862 362.933C568.449 376.422 568.449 391.578 562.862 405.068L572.1 408.895C578.703 392.955 578.703 375.045 572.1 359.106L562.862 362.933ZM533.068 333.139C546.557 338.726 557.274 349.443 562.862 362.933L572.1 359.106C565.498 343.166 552.834 330.502 536.894 323.9L533.068 333.139ZM490.932 333.139C504.422 327.551 519.578 327.551 533.068 333.139L536.894 323.9C520.955 317.297 503.045 317.297 487.106 323.9L490.932 333.139ZM461.138 362.933C466.726 349.443 477.443 338.726 490.932 333.139L487.106 323.9C471.166 330.502 458.502 343.166 451.9 359.106L461.138 362.933ZM461.138 405.068C455.551 391.578 455.551 376.422 461.138 362.933L451.9 359.106C445.297 375.045 445.297 392.955 451.9 408.895L461.138 405.068ZM490.932 434.862C477.443 429.274 466.726 418.557 461.138 405.068L451.9 408.895C458.502 424.834 471.166 437.498 487.106 444.101L490.932 434.862Z" fill="currentColor"/>
<path d="M489.019 439.481C503.734 445.576 520.267 445.576 534.981 439.481C549.695 433.386 561.386 421.695 567.481 406.981C573.576 392.266 573.576 375.733 567.481 361.019C561.386 346.305 549.695 334.614 534.981 328.519C520.267 322.424 503.734 322.424 489.019 328.519C474.305 334.614 462.614 346.305 456.519 361.019C450.424 375.733 450.424 392.266 456.519 406.981C462.614 421.695 474.305 433.386 489.019 439.481Z" fill="#888888" fill-opacity="0.5" stroke="currentColor" stroke-width="10" stroke-linecap="round" stroke-linejoin="round"/>
<g opacity="0.25">
<path d="M501.585 281.809C504.233 270.886 519.767 270.886 522.415 281.809V281.809C524.564 290.677 536.106 292.973 541.485 285.602V285.602C548.111 276.524 562.463 282.469 560.729 293.573V293.573C559.321 302.589 569.106 309.127 576.896 304.376V304.376C586.491 298.524 597.476 309.509 591.624 319.104V319.104C586.874 326.895 593.412 336.679 602.427 335.271V335.271C613.531 333.537 619.476 347.889 610.398 354.515V354.515C603.028 359.894 605.323 371.436 614.191 373.586V373.586C625.114 376.233 625.114 391.767 614.191 394.415V394.415C605.323 396.564 603.028 408.106 610.398 413.485V413.485C619.476 420.111 613.531 434.463 602.427 432.729V432.729C593.412 431.321 586.874 441.106 591.624 448.896V448.896C597.476 458.492 586.491 469.476 576.896 463.625V463.625C569.106 458.874 559.321 465.412 560.729 474.427V474.427C562.463 485.531 548.111 491.476 541.485 482.398V482.398C536.106 475.028 524.564 477.324 522.415 486.192V486.192C519.767 497.114 504.233 497.114 501.585 486.192V486.192C499.436 477.324 487.894 475.028 482.515 482.398V482.398C475.889 491.476 461.537 485.531 463.271 474.427V474.427C464.679 465.412 454.894 458.874 447.104 463.625V463.625C437.509 469.476 426.524 458.492 432.375 448.896V448.896C437.126 441.106 430.588 431.321 421.573 432.729V432.729C410.469 434.463 404.524 420.111 413.602 413.485V413.485C420.972 408.106 418.676 396.564 409.809 394.415V394.415C398.886 391.767 398.886 376.233 409.809 373.586V373.586C418.676 371.436 420.972 359.894 413.602 354.515V354.515C404.524 347.889 410.469 333.537 421.573 335.271V335.271C430.588 336.679 437.126 326.895 432.375 319.104V319.104C426.524 309.509 437.509 298.524 447.104 304.376V304.376C454.894 309.126 464.679 302.589 463.271 293.573V293.573C461.537 282.469 475.889 276.524 482.515 285.602V285.602C487.894 292.973 499.436 290.677 501.585 281.809V281.809Z" stroke="currentColor" stroke-width="2.41935" stroke-linecap="round" stroke-linejoin="round"/>
</g>
<path d="M170.002 621.716L169.258 622.383C169.554 622.714 170.034 622.81 170.435 622.617L170.002 621.716ZM188.484 629.371L187.54 629.703C187.688 630.122 188.095 630.394 188.538 630.37L188.484 629.371ZM149.998 621.716L149.565 622.617C149.966 622.81 150.446 622.714 150.743 622.383L149.998 621.716ZM131.516 629.371L131.462 630.37C131.906 630.394 132.312 630.122 132.46 629.703L131.516 629.371ZM117.371 643.516L117.703 644.46C118.122 644.312 118.394 643.906 118.37 643.462L117.371 643.516ZM109.716 661.998L110.383 662.743C110.714 662.446 110.81 661.966 110.617 661.565L109.716 661.998ZM109.716 682.002L110.617 682.435C110.81 682.034 110.714 681.554 110.383 681.258L109.716 682.002ZM117.371 700.484L118.37 700.538C118.394 700.095 118.122 699.688 117.703 699.54L117.371 700.484ZM131.516 714.629L132.46 714.297C132.312 713.878 131.906 713.606 131.462 713.63L131.516 714.629ZM149.998 722.284L150.743 721.617C150.446 721.286 149.966 721.19 149.565 721.383L149.998 722.284ZM170.002 722.284L170.435 721.383C170.034 721.19 169.554 721.286 169.258 721.617L170.002 722.284ZM188.484 714.629L188.538 713.63C188.094 713.606 187.688 713.878 187.54 714.297L188.484 714.629ZM202.629 700.484L202.297 699.54C201.878 699.688 201.606 700.095 201.63 700.538L202.629 700.484ZM210.284 682.002L209.617 681.258C209.286 681.554 209.19 682.034 209.383 682.435L210.284 682.002ZM210.284 661.998L209.383 661.565C209.19 661.966 209.286 662.446 209.617 662.743L210.284 661.998ZM202.629 643.516L201.63 643.462C201.606 643.906 201.878 644.312 202.297 644.46L202.629 643.516ZM169.193 694.193L169.575 695.116L169.193 694.193ZM150.808 694.193L151.19 693.269L150.808 694.193ZM182.193 681.193L181.269 680.81L182.193 681.193ZM169.193 649.808L169.575 648.884L169.193 649.808ZM150.808 649.808L150.425 648.884L150.808 649.808ZM137.808 681.193L136.884 681.575L137.808 681.193ZM170.435 622.617C176.906 619.513 185.16 622.932 187.54 629.703L189.427 629.04C186.652 621.145 177.114 617.195 169.57 620.814L170.435 622.617ZM150.743 622.383C155.533 617.039 164.467 617.039 169.258 622.383L170.747 621.048C165.162 614.817 154.839 614.817 149.253 621.048L150.743 622.383ZM132.46 629.703C134.84 622.932 143.094 619.513 149.565 622.617L150.43 620.814C142.886 617.195 133.349 621.145 130.573 629.04L132.46 629.703ZM118.37 643.462C117.978 636.295 124.295 629.978 131.462 630.37L131.571 628.373C123.215 627.916 115.916 635.215 116.373 643.571L118.37 643.462ZM110.617 661.565C107.513 655.094 110.932 646.84 117.703 644.46L117.04 642.573C109.145 645.349 105.195 654.886 108.814 662.43L110.617 661.565ZM110.383 681.258C105.039 676.467 105.039 667.533 110.383 662.743L109.048 661.253C102.817 666.839 102.817 677.162 109.048 682.747L110.383 681.258ZM117.703 699.54C110.932 697.16 107.513 688.906 110.617 682.435L108.814 681.57C105.195 689.114 109.145 698.652 117.04 701.427L117.703 699.54ZM131.462 713.63C124.295 714.022 117.978 707.705 118.37 700.538L116.373 700.429C115.916 708.785 123.215 716.084 131.571 715.628L131.462 713.63ZM149.565 721.383C143.094 724.487 134.84 721.068 132.46 714.297L130.573 714.961C133.349 722.855 142.886 726.805 150.43 723.186L149.565 721.383ZM169.258 721.617C164.467 726.961 155.533 726.961 150.743 721.617L149.253 722.952C154.839 729.183 165.162 729.183 170.747 722.952L169.258 721.617ZM187.54 714.297C185.16 721.068 176.906 724.487 170.435 721.383L169.57 723.186C177.114 726.805 186.652 722.855 189.427 714.961L187.54 714.297ZM201.63 700.538C202.022 707.705 195.705 714.022 188.538 713.63L188.429 715.628C196.785 716.084 204.084 708.785 203.628 700.429L201.63 700.538ZM209.383 682.435C212.487 688.906 209.068 697.16 202.297 699.54L202.961 701.427C210.855 698.652 214.805 689.114 211.186 681.57L209.383 682.435ZM209.617 662.743C214.961 667.533 214.961 676.467 209.617 681.258L210.952 682.747C217.183 677.162 217.183 666.839 210.952 661.253L209.617 662.743ZM202.297 644.46C209.068 646.84 212.487 655.094 209.383 661.565L211.186 662.43C214.805 654.886 210.855 645.349 202.961 642.573L202.297 644.46ZM188.538 630.37C195.705 629.978 202.022 636.295 201.63 643.462L203.628 643.571C204.084 635.215 196.785 627.916 188.429 628.373L188.538 630.37ZM168.81 693.269C163.169 695.605 156.831 695.605 151.19 693.269L150.425 695.116C156.556 697.656 163.444 697.656 169.575 695.116L168.81 693.269ZM181.269 680.81C178.932 686.451 174.451 690.932 168.81 693.269L169.575 695.116C175.706 692.577 180.577 687.706 183.116 681.575L181.269 680.81ZM181.269 663.19C183.605 668.831 183.605 675.169 181.269 680.81L183.116 681.575C185.656 675.444 185.656 668.556 183.116 662.425L181.269 663.19ZM168.81 650.732C174.451 653.068 178.932 657.55 181.269 663.19L183.116 662.425C180.577 656.294 175.706 651.423 169.575 648.884L168.81 650.732ZM151.19 650.732C156.831 648.395 163.169 648.395 168.81 650.732L169.575 648.884C163.444 646.344 156.556 646.344 150.425 648.884L151.19 650.732ZM138.732 663.19C141.068 657.55 145.55 653.068 151.19 650.732L150.425 648.884C144.294 651.423 139.423 656.294 136.884 662.425L138.732 663.19ZM138.732 680.81C136.395 675.169 136.395 668.831 138.732 663.19L136.884 662.425C134.344 668.556 134.344 675.444 136.884 681.575L138.732 680.81ZM151.19 693.269C145.55 690.932 141.068 686.451 138.732 680.81L136.884 681.575C139.423 687.706 144.294 692.577 150.425 695.116L151.19 693.269Z" fill="currentColor"/>
<path d="M150.808 694.192C156.693 696.63 163.307 696.63 169.192 694.192V694.192C175.078 691.754 179.754 687.078 182.192 681.192V681.192C184.63 675.307 184.63 668.693 182.192 662.808V662.808C179.754 656.922 175.078 652.246 169.192 649.808V649.808C163.307 647.37 156.693 647.37 150.808 649.808V649.808C144.922 652.246 140.246 656.922 137.808 662.808V662.808C135.37 668.693 135.37 675.307 137.808 681.192V681.192C140.246 687.078 144.922 691.754 150.808 694.192V694.192Z" stroke="currentColor" stroke-width="2" stroke-linecap="round" stroke-linejoin="round"/>
<path fill-rule="evenodd" clip-rule="evenodd" d="M325.277 646.112C332.143 643.268 339.857 643.268 346.723 646.112C353.589 648.956 359.044 654.411 361.888 661.277C364.732 668.143 364.732 675.857 361.888 682.723C359.044 689.589 353.589 695.044 346.723 697.888C339.857 700.732 332.143 700.732 325.277 697.888C318.411 695.044 312.956 689.589 310.112 682.723C307.268 675.857 307.268 668.143 310.112 661.277C312.956 654.411 318.411 648.956 325.277 646.112ZM343.662 653.503C338.756 651.471 333.244 651.471 328.338 653.503C323.433 655.535 319.535 659.433 317.503 664.338C315.471 669.244 315.471 674.756 317.503 679.662C319.535 684.567 323.433 688.465 328.338 690.497C333.244 692.529 338.756 692.529 343.662 690.497C348.567 688.465 352.465 684.567 354.497 679.662C356.529 674.756 356.529 669.244 354.497 664.338C352.465 659.433 348.567 655.535 343.662 653.503Z" stroke="currentColor" stroke-linecap="round" stroke-linejoin="round"/>
<path fill-rule="evenodd" clip-rule="evenodd" d="M346.919 617.106C340.641 612.131 331.359 612.131 325.081 617.106C317.377 614.913 308.802 618.465 304.905 625.463C296.948 626.385 290.385 632.948 289.463 640.905C282.465 644.802 278.913 653.377 281.106 661.081C276.131 667.359 276.131 676.641 281.106 682.919C278.913 690.623 282.465 699.198 289.463 703.095C290.385 711.052 296.948 717.615 304.905 718.537C308.802 725.536 317.377 729.088 325.081 726.894C331.359 731.869 340.641 731.869 346.919 726.894C354.623 729.088 363.198 725.536 367.095 718.537C375.052 717.615 381.615 711.052 382.537 703.095C389.536 699.198 393.088 690.623 390.894 682.919C395.869 676.641 395.869 667.359 390.894 661.081C393.088 653.377 389.536 644.802 382.537 640.905C381.615 632.948 375.052 626.385 367.095 625.463C363.198 618.465 354.623 614.913 346.919 617.106ZM343.024 624.386C339.425 620.371 332.575 620.371 328.977 624.386C327.79 625.71 325.871 626.091 324.268 625.322C319.407 622.991 313.078 625.612 311.29 630.698C310.7 632.376 309.074 633.462 307.298 633.365C301.915 633.071 297.071 637.915 297.365 643.298C297.462 645.074 296.376 646.7 294.698 647.29C289.612 649.078 286.991 655.407 289.322 660.268C290.091 661.871 289.71 663.79 288.386 664.977C284.371 668.575 284.371 675.425 288.386 679.024C289.71 680.211 290.091 682.129 289.322 683.732C286.991 688.593 289.612 694.922 294.698 696.71C296.376 697.3 297.462 698.927 297.365 700.702C297.071 706.085 301.915 710.929 307.298 710.635C309.074 710.538 310.7 711.625 311.29 713.302C313.078 718.388 319.407 721.01 324.268 718.678C325.871 717.909 327.79 718.29 328.977 719.614C332.575 723.629 339.425 723.629 343.024 719.614C344.211 718.29 346.129 717.909 347.732 718.678C352.593 721.01 358.922 718.388 360.71 713.302C361.3 711.625 362.927 710.538 364.702 710.635C370.085 710.929 374.929 706.085 374.635 700.702C374.538 698.927 375.625 697.3 377.302 696.71C382.388 694.922 385.01 688.593 382.678 683.732C381.909 682.129 382.29 680.211 383.614 679.024C387.629 675.425 387.629 668.575 383.614 664.977C382.29 663.79 381.909 661.871 382.678 660.268C385.01 655.407 382.388 649.078 377.302 647.29C375.625 646.7 374.538 645.074 374.635 643.298C374.929 637.915 370.085 633.071 364.702 633.365C362.927 633.462 361.3 632.376 360.71 630.698C358.922 625.612 352.593 622.991 347.732 625.322C346.129 626.091 344.211 625.71 343.024 624.386Z" stroke="currentColor" stroke-linecap="round" stroke-linejoin="round"/>
<path fill-rule="evenodd" clip-rule="evenodd" d="M540.484 629.371C537.906 622.039 529.01 618.354 522.002 621.716C516.814 615.928 507.186 615.928 501.998 621.716C494.99 618.354 486.094 622.039 483.516 629.371C475.755 628.947 468.947 635.755 469.371 643.516C462.039 646.094 458.354 654.99 461.716 661.998C455.928 667.186 455.928 676.814 461.716 682.002C458.354 689.01 462.039 697.906 469.371 700.484C468.947 708.245 475.755 715.053 483.516 714.629C486.094 721.962 494.99 725.646 501.998 722.284C507.186 728.072 516.814 728.072 522.002 722.284C529.01 725.646 537.906 721.962 540.484 714.629C548.245 715.053 555.053 708.245 554.629 700.484C561.962 697.906 565.646 689.01 562.284 682.002C568.072 676.814 568.072 667.186 562.284 661.998C565.646 654.99 561.962 646.094 554.629 643.516C555.053 635.755 548.245 628.947 540.484 629.371ZM502.808 694.193C508.694 696.63 515.307 696.63 521.193 694.193C527.078 691.755 531.755 687.078 534.193 681.193C536.631 675.307 536.631 668.694 534.193 662.808C531.755 656.922 527.078 652.246 521.193 649.808C515.307 647.37 508.694 647.37 502.808 649.808C496.922 652.246 492.246 656.922 489.808 662.808C487.37 668.694 487.37 675.307 489.808 681.193C492.246 687.078 496.922 691.755 502.808 694.193Z" fill="currentColor"/>
<path d="M522.002 621.716L520.513 623.051C521.106 623.713 522.066 623.904 522.867 623.519L522.002 621.716ZM540.484 629.371L538.597 630.035C538.892 630.873 539.705 631.417 540.593 631.368L540.484 629.371ZM501.998 621.716L501.133 623.519C501.935 623.904 502.894 623.713 503.487 623.051L501.998 621.716ZM483.516 629.371L483.407 631.368C484.295 631.417 485.108 630.873 485.403 630.035L483.516 629.371ZM469.371 643.516L470.035 645.403C470.873 645.108 471.417 644.295 471.368 643.407L469.371 643.516ZM461.716 661.998L463.051 663.487C463.713 662.894 463.904 661.935 463.519 661.133L461.716 661.998ZM461.716 682.002L463.519 682.867C463.904 682.066 463.713 681.106 463.051 680.513L461.716 682.002ZM469.371 700.484L471.368 700.593C471.417 699.705 470.873 698.892 470.035 698.597L469.371 700.484ZM483.516 714.629L485.403 713.966C485.108 713.127 484.295 712.583 483.407 712.632L483.516 714.629ZM501.998 722.284L503.487 720.949C502.894 720.287 501.935 720.097 501.133 720.481L501.998 722.284ZM522.002 722.284L522.867 720.481C522.066 720.097 521.106 720.287 520.513 720.949L522.002 722.284ZM540.484 714.629L540.593 712.632C539.705 712.583 538.892 713.127 538.597 713.966L540.484 714.629ZM554.629 700.484L553.966 698.597C553.127 698.892 552.583 699.705 552.632 700.593L554.629 700.484ZM562.284 682.002L560.949 680.513C560.287 681.106 560.097 682.066 560.481 682.867L562.284 682.002ZM562.284 661.998L560.481 661.133C560.097 661.935 560.287 662.894 560.949 663.487L562.284 661.998ZM554.629 643.516L552.632 643.407C552.583 644.295 553.127 645.108 553.966 645.403L554.629 643.516ZM521.193 694.193L521.958 696.04L521.193 694.193ZM502.808 694.193L503.573 692.345L502.808 694.193ZM534.193 681.193L532.345 680.427H532.345L534.193 681.193ZM521.193 649.808L521.958 647.96L521.193 649.808ZM502.808 649.808L502.042 647.96L502.808 649.808ZM489.808 681.193L487.96 681.958L489.808 681.193ZM522.867 623.519C528.802 620.672 536.414 623.825 538.597 630.035L542.371 628.708C539.397 620.252 529.219 616.036 521.137 619.913L522.867 623.519ZM503.487 623.051C507.88 618.15 516.12 618.15 520.513 623.051L523.492 620.381C517.509 613.706 506.491 613.706 500.509 620.381L503.487 623.051ZM485.403 630.035C487.586 623.825 495.199 620.672 501.133 623.519L502.863 619.913C494.781 616.036 484.603 620.252 481.63 628.708L485.403 630.035ZM471.368 643.407C471.009 636.835 476.835 631.009 483.407 631.368L483.626 627.374C474.675 626.885 466.885 634.675 467.374 643.626L471.368 643.407ZM463.519 661.133C460.672 655.199 463.825 647.586 470.035 645.403L468.708 641.63C460.252 644.603 456.036 654.781 459.913 662.863L463.519 661.133ZM463.051 680.513C458.15 676.12 458.15 667.88 463.051 663.487L460.381 660.509C453.706 666.491 453.706 677.509 460.381 683.492L463.051 680.513ZM470.035 698.597C463.825 696.414 460.672 688.802 463.519 682.867L459.913 681.137C456.036 689.219 460.252 699.397 468.708 702.371L470.035 698.597ZM483.407 712.632C476.835 712.991 471.009 707.165 471.368 700.593L467.374 700.375C466.885 709.325 474.675 717.115 483.626 716.626L483.407 712.632ZM501.133 720.481C495.199 723.328 487.586 720.175 485.403 713.966L481.63 715.292C484.603 723.748 494.781 727.965 502.863 724.088L501.133 720.481ZM520.513 720.949C516.12 725.85 507.88 725.85 503.487 720.949L500.509 723.619C506.491 730.294 517.509 730.294 523.492 723.619L520.513 720.949ZM538.597 713.966C536.414 720.175 528.802 723.328 522.867 720.481L521.137 724.088C529.219 727.965 539.397 723.748 542.371 715.292L538.597 713.966ZM552.632 700.593C552.991 707.165 547.165 712.991 540.593 712.632L540.375 716.626C549.325 717.115 557.115 709.325 556.626 700.375L552.632 700.593ZM560.481 682.867C563.328 688.802 560.175 696.414 553.966 698.597L555.292 702.371C563.748 699.397 567.965 689.219 564.088 681.137L560.481 682.867ZM560.949 663.487C565.85 667.88 565.85 676.12 560.949 680.513L563.619 683.492C570.294 677.509 570.294 666.491 563.619 660.509L560.949 663.487ZM553.966 645.403C560.175 647.586 563.328 655.199 560.481 661.133L564.088 662.863C567.965 654.781 563.748 644.603 555.292 641.63L553.966 645.403ZM540.593 631.368C547.165 631.009 552.991 636.835 552.632 643.407L556.626 643.626C557.115 634.675 549.325 626.885 540.375 627.374L540.593 631.368ZM520.427 692.345C515.031 694.58 508.969 694.58 503.573 692.345L502.042 696.04C508.418 698.681 515.582 698.681 521.958 696.04L520.427 692.345ZM532.345 680.427C530.11 685.823 525.823 690.11 520.427 692.345L521.958 696.04C528.334 693.399 533.399 688.334 536.04 681.958L532.345 680.427ZM532.345 663.573C534.58 668.969 534.58 675.031 532.345 680.427L536.04 681.958C538.681 675.582 538.681 668.418 536.04 662.042L532.345 663.573ZM520.427 651.655C525.823 653.89 530.11 658.177 532.345 663.573L536.04 662.042C533.399 655.667 528.334 650.601 521.958 647.96L520.427 651.655ZM503.573 651.655C508.969 649.421 515.031 649.421 520.427 651.655L521.958 647.96C515.582 645.319 508.418 645.319 502.042 647.96L503.573 651.655ZM491.656 663.573C493.891 658.177 498.177 653.89 503.573 651.655L502.042 647.96C495.667 650.601 490.601 655.667 487.96 662.042L491.656 663.573ZM491.656 680.427C489.421 675.031 489.421 668.969 491.656 663.573L487.96 662.042C485.319 668.418 485.319 675.582 487.96 681.958L491.656 680.427ZM503.573 692.345C498.177 690.11 493.891 685.823 491.656 680.427L487.96 681.958C490.601 688.334 495.667 693.399 502.042 696.04L503.573 692.345Z" fill="currentColor"/>
<g opacity="0.25">
<path fill-rule="evenodd" clip-rule="evenodd" d="M716.484 629.371C713.906 622.039 705.01 618.354 698.002 621.716C692.814 615.928 683.186 615.928 677.998 621.716C670.99 618.354 662.094 622.039 659.516 629.371C651.755 628.947 644.947 635.755 645.371 643.516C638.039 646.094 634.354 654.99 637.716 661.998C631.928 667.186 631.928 676.814 637.716 682.002C634.354 689.01 638.039 697.906 645.371 700.484C644.947 708.245 651.755 715.053 659.516 714.629C662.094 721.962 670.99 725.646 677.998 722.284C683.186 728.072 692.814 728.072 698.002 722.284C705.01 725.646 713.906 721.962 716.484 714.629C724.245 715.053 731.053 708.245 730.629 700.484C737.962 697.906 741.646 689.01 738.284 682.002C744.072 676.814 744.072 667.186 738.284 661.998C741.646 654.99 737.962 646.094 730.629 643.516C731.053 635.755 724.245 628.947 716.484 629.371ZM678.808 694.193C684.694 696.63 691.307 696.63 697.193 694.193C703.078 691.755 707.755 687.078 710.193 681.193C712.631 675.307 712.631 668.694 710.193 662.808C707.755 656.922 703.078 652.246 697.193 649.808C691.307 647.37 684.694 647.37 678.808 649.808C672.922 652.246 668.246 656.922 665.808 662.808C663.37 668.694 663.37 675.307 665.808 681.193C668.246 687.078 672.922 691.755 678.808 694.193Z" fill="currentColor"/>
<path d="M698.002 621.716L696.513 623.051C697.106 623.713 698.066 623.904 698.867 623.519L698.002 621.716ZM716.484 629.371L714.597 630.035C714.892 630.873 715.705 631.417 716.593 631.368L716.484 629.371ZM677.998 621.716L677.133 623.519C677.935 623.904 678.894 623.713 679.487 623.051L677.998 621.716ZM659.516 629.371L659.407 631.368C660.295 631.417 661.108 630.873 661.403 630.035L659.516 629.371ZM645.371 643.516L646.035 645.403C646.873 645.108 647.417 644.295 647.368 643.407L645.371 643.516ZM637.716 661.998L639.051 663.487C639.713 662.894 639.904 661.935 639.519 661.133L637.716 661.998ZM637.716 682.002L639.519 682.867C639.904 682.066 639.713 681.106 639.051 680.513L637.716 682.002ZM645.371 700.484L647.368 700.593C647.417 699.705 646.873 698.892 646.035 698.597L645.371 700.484ZM659.516 714.629L661.403 713.966C661.108 713.127 660.295 712.583 659.407 712.632L659.516 714.629ZM677.998 722.284L679.487 720.949C678.894 720.287 677.935 720.097 677.133 720.481L677.998 722.284ZM698.002 722.284L698.867 720.481C698.066 720.097 697.106 720.287 696.513 720.949L698.002 722.284ZM716.484 714.629L716.593 712.632C715.705 712.583 714.892 713.127 714.597 713.966L716.484 714.629ZM730.629 700.484L729.966 698.597C729.127 698.892 728.583 699.705 728.632 700.593L730.629 700.484ZM738.284 682.002L736.949 680.513C736.287 681.106 736.097 682.066 736.481 682.867L738.284 682.002ZM738.284 661.998L736.481 661.133C736.097 661.935 736.287 662.894 736.949 663.487L738.284 661.998ZM730.629 643.516L728.632 643.407C728.583 644.295 729.127 645.108 729.966 645.403L730.629 643.516ZM697.193 694.193L697.958 696.04L697.193 694.193ZM678.808 694.193L679.573 692.345L678.808 694.193ZM710.193 681.193L708.345 680.427H708.345L710.193 681.193ZM697.193 649.808L697.958 647.96L697.193 649.808ZM678.808 649.808L678.042 647.96L678.808 649.808ZM665.808 681.193L663.96 681.958L665.808 681.193ZM698.867 623.519C704.802 620.672 712.414 623.825 714.597 630.035L718.371 628.708C715.397 620.252 705.219 616.036 697.137 619.913L698.867 623.519ZM679.487 623.051C683.88 618.15 692.12 618.15 696.513 623.051L699.492 620.381C693.509 613.706 682.491 613.706 676.509 620.381L679.487 623.051ZM661.403 630.035C663.586 623.825 671.199 620.672 677.133 623.519L678.863 619.913C670.781 616.036 660.603 620.252 657.63 628.708L661.403 630.035ZM647.368 643.407C647.009 636.835 652.835 631.009 659.407 631.368L659.626 627.374C650.675 626.885 642.885 634.675 643.374 643.626L647.368 643.407ZM639.519 661.133C636.672 655.199 639.825 647.586 646.035 645.403L644.708 641.63C636.252 644.603 632.036 654.781 635.913 662.863L639.519 661.133ZM639.051 680.513C634.15 676.12 634.15 667.88 639.051 663.487L636.381 660.509C629.706 666.491 629.706 677.509 636.381 683.492L639.051 680.513ZM646.035 698.597C639.825 696.414 636.672 688.802 639.519 682.867L635.913 681.137C632.036 689.219 636.252 699.397 644.708 702.371L646.035 698.597ZM659.407 712.632C652.835 712.991 647.009 707.165 647.368 700.593L643.374 700.375C642.885 709.325 650.675 717.115 659.626 716.626L659.407 712.632ZM677.133 720.481C671.199 723.328 663.586 720.175 661.403 713.966L657.63 715.292C660.603 723.748 670.781 727.965 678.863 724.088L677.133 720.481ZM696.513 720.949C692.12 725.85 683.88 725.85 679.487 720.949L676.509 723.619C682.491 730.294 693.509 730.294 699.492 723.619L696.513 720.949ZM714.597 713.966C712.414 720.175 704.802 723.328 698.867 720.481L697.137 724.088C705.219 727.965 715.397 723.748 718.371 715.292L714.597 713.966ZM728.632 700.593C728.991 707.165 723.165 712.991 716.593 712.632L716.375 716.626C725.325 717.115 733.115 709.325 732.626 700.375L728.632 700.593ZM736.481 682.867C739.328 688.802 736.175 696.414 729.966 698.597L731.292 702.371C739.748 699.397 743.965 689.219 740.088 681.137L736.481 682.867ZM736.949 663.487C741.85 667.88 741.85 676.12 736.949 680.513L739.619 683.492C746.294 677.509 746.294 666.491 739.619 660.509L736.949 663.487ZM729.966 645.403C736.175 647.586 739.328 655.199 736.481 661.133L740.088 662.863C743.965 654.781 739.748 644.603 731.292 641.63L729.966 645.403ZM716.593 631.368C723.165 631.009 728.991 636.835 728.632 643.407L732.626 643.626C733.115 634.675 725.325 626.885 716.375 627.374L716.593 631.368ZM696.427 692.345C691.031 694.58 684.969 694.58 679.573 692.345L678.042 696.04C684.418 698.681 691.582 698.681 697.958 696.04L696.427 692.345ZM708.345 680.427C706.11 685.823 701.823 690.11 696.427 692.345L697.958 696.04C704.334 693.399 709.399 688.334 712.04 681.958L708.345 680.427ZM708.345 663.573C710.58 668.969 710.58 675.031 708.345 680.427L712.04 681.958C714.681 675.582 714.681 668.418 712.04 662.042L708.345 663.573ZM696.427 651.655C701.823 653.89 706.11 658.177 708.345 663.573L712.04 662.042C709.399 655.667 704.334 650.601 697.958 647.96L696.427 651.655ZM679.573 651.655C684.969 649.421 691.031 649.421 696.427 651.655L697.958 647.96C691.582 645.319 684.418 645.319 678.042 647.96L679.573 651.655ZM667.656 663.573C669.891 658.177 674.177 653.89 679.573 651.655L678.042 647.96C671.667 650.601 666.601 655.667 663.96 662.042L667.656 663.573ZM667.656 680.427C665.421 675.031 665.421 668.969 667.656 663.573L663.96 662.042C661.319 668.418 661.319 675.582 663.96 681.958L667.656 680.427ZM679.573 692.345C674.177 690.11 669.891 685.823 667.656 680.427L663.96 681.958C666.601 688.334 671.667 693.399 678.042 696.04L679.573 692.345Z" fill="currentColor"/>
</g>
<path d="M678.808 694.192C684.693 696.63 691.307 696.63 697.192 694.192C703.078 691.754 707.754 687.078 710.192 681.192C712.63 675.307 712.63 668.693 710.192 662.808C707.754 656.922 703.078 652.246 697.192 649.808C691.307 647.37 684.693 647.37 678.808 649.808C672.922 652.246 668.246 656.922 665.808 662.808C663.37 668.693 663.37 675.307 665.808 681.192C668.246 687.078 672.922 691.754 678.808 694.192Z" fill="currentColor" stroke="currentColor" stroke-width="4" stroke-linecap="round" stroke-linejoin="round"/>
<path fill-rule="evenodd" clip-rule="evenodd" d="M892.484 629.371C889.906 622.039 881.01 618.354 874.002 621.716C868.814 615.928 859.186 615.928 853.998 621.716C846.99 618.354 838.094 622.039 835.516 629.371C827.755 628.947 820.947 635.755 821.371 643.516C814.039 646.094 810.354 654.99 813.716 661.998C807.928 667.186 807.928 676.814 813.716 682.002C810.354 689.01 814.039 697.906 821.371 700.484C820.947 708.245 827.755 715.053 835.516 714.629C838.094 721.962 846.99 725.646 853.998 722.284C859.186 728.072 868.814 728.072 874.002 722.284C881.01 725.646 889.906 721.962 892.484 714.629C900.245 715.053 907.053 708.245 906.629 700.484C913.962 697.906 917.646 689.01 914.284 682.002C920.072 676.814 920.072 667.186 914.284 661.998C917.646 654.99 913.962 646.094 906.629 643.516C907.053 635.755 900.245 628.947 892.484 629.371ZM854.808 694.193C860.694 696.63 867.307 696.63 873.193 694.193C879.078 691.755 883.755 687.078 886.193 681.193C888.631 675.307 888.631 668.694 886.193 662.808C883.755 656.922 879.078 652.246 873.193 649.808C867.307 647.37 860.694 647.37 854.808 649.808C848.922 652.246 844.246 656.922 841.808 662.808C839.37 668.694 839.37 675.307 841.808 681.193C844.246 687.078 848.922 691.755 854.808 694.193Z" fill="#FFA500"/>
<path d="M874.002 621.716L872.513 623.051C873.106 623.713 874.066 623.904 874.867 623.519L874.002 621.716ZM892.484 629.371L890.597 630.035C890.892 630.873 891.705 631.417 892.593 631.368L892.484 629.371ZM853.998 621.716L853.133 623.519C853.935 623.904 854.894 623.713 855.487 623.051L853.998 621.716ZM835.516 629.371L835.407 631.368C836.295 631.417 837.108 630.873 837.403 630.035L835.516 629.371ZM821.371 643.516L822.035 645.403C822.873 645.108 823.417 644.295 823.368 643.407L821.371 643.516ZM813.716 661.998L815.051 663.487C815.713 662.894 815.904 661.935 815.519 661.133L813.716 661.998ZM813.716 682.002L815.519 682.867C815.904 682.066 815.713 681.106 815.051 680.513L813.716 682.002ZM821.371 700.484L823.368 700.593C823.417 699.705 822.873 698.892 822.035 698.597L821.371 700.484ZM835.516 714.629L837.403 713.966C837.108 713.127 836.295 712.583 835.407 712.632L835.516 714.629ZM853.998 722.284L855.487 720.949C854.894 720.287 853.935 720.097 853.133 720.481L853.998 722.284ZM874.002 722.284L874.867 720.481C874.066 720.097 873.106 720.287 872.513 720.949L874.002 722.284ZM892.484 714.629L892.593 712.632C891.705 712.583 890.892 713.127 890.597 713.966L892.484 714.629ZM906.629 700.484L905.966 698.597C905.127 698.892 904.583 699.705 904.632 700.593L906.629 700.484ZM914.284 682.002L912.949 680.513C912.287 681.106 912.097 682.066 912.481 682.867L914.284 682.002ZM914.284 661.998L912.481 661.133C912.097 661.935 912.287 662.894 912.949 663.487L914.284 661.998ZM906.629 643.516L904.632 643.407C904.583 644.295 905.127 645.108 905.966 645.403L906.629 643.516ZM873.193 694.193L873.958 696.04L873.193 694.193ZM854.808 694.193L855.573 692.345L854.808 694.193ZM886.193 681.193L884.345 680.427H884.345L886.193 681.193ZM873.193 649.808L873.958 647.96L873.193 649.808ZM854.808 649.808L854.042 647.96L854.808 649.808ZM841.808 681.193L839.96 681.958L841.808 681.193ZM874.867 623.519C880.802 620.672 888.414 623.825 890.597 630.035L894.371 628.708C891.397 620.252 881.219 616.036 873.137 619.913L874.867 623.519ZM855.487 623.051C859.88 618.15 868.12 618.15 872.513 623.051L875.492 620.381C869.509 613.706 858.491 613.706 852.509 620.381L855.487 623.051ZM837.403 630.035C839.586 623.825 847.199 620.672 853.133 623.519L854.863 619.913C846.781 616.036 836.603 620.252 833.63 628.708L837.403 630.035ZM823.368 643.407C823.009 636.835 828.835 631.009 835.407 631.368L835.626 627.374C826.675 626.885 818.885 634.675 819.374 643.626L823.368 643.407ZM815.519 661.133C812.672 655.199 815.825 647.586 822.035 645.403L820.708 641.63C812.252 644.603 808.036 654.781 811.913 662.863L815.519 661.133ZM815.051 680.513C810.15 676.12 810.15 667.88 815.051 663.487L812.381 660.509C805.706 666.491 805.706 677.509 812.381 683.492L815.051 680.513ZM822.035 698.597C815.825 696.414 812.672 688.802 815.519 682.867L811.913 681.137C808.036 689.219 812.252 699.397 820.708 702.371L822.035 698.597ZM835.407 712.632C828.835 712.991 823.009 707.165 823.368 700.593L819.374 700.375C818.885 709.325 826.675 717.115 835.626 716.626L835.407 712.632ZM853.133 720.481C847.199 723.328 839.586 720.175 837.403 713.966L833.63 715.292C836.603 723.748 846.781 727.965 854.863 724.088L853.133 720.481ZM872.513 720.949C868.12 725.85 859.88 725.85 855.487 720.949L852.509 723.619C858.491 730.294 869.509 730.294 875.492 723.619L872.513 720.949ZM890.597 713.966C888.414 720.175 880.802 723.328 874.867 720.481L873.137 724.088C881.219 727.965 891.397 723.748 894.371 715.292L890.597 713.966ZM904.632 700.593C904.991 707.165 899.165 712.991 892.593 712.632L892.375 716.626C901.325 717.115 909.115 709.325 908.626 700.375L904.632 700.593ZM912.481 682.867C915.328 688.802 912.175 696.414 905.966 698.597L907.292 702.371C915.748 699.397 919.965 689.219 916.088 681.137L912.481 682.867ZM912.949 663.487C917.85 667.88 917.85 676.12 912.949 680.513L915.619 683.492C922.294 677.509 922.294 666.491 915.619 660.509L912.949 663.487ZM905.966 645.403C912.175 647.586 915.328 655.199 912.481 661.133L916.088 662.863C919.965 654.781 915.748 644.603 907.292 641.63L905.966 645.403ZM892.593 631.368C899.165 631.009 904.991 636.835 904.632 643.407L908.626 643.626C909.115 634.675 901.325 626.885 892.375 627.374L892.593 631.368ZM872.427 692.345C867.031 694.58 860.969 694.58 855.573 692.345L854.042 696.04C860.418 698.681 867.582 698.681 873.958 696.04L872.427 692.345ZM884.345 680.427C882.11 685.823 877.823 690.11 872.427 692.345L873.958 696.04C880.334 693.399 885.399 688.334 888.04 681.958L884.345 680.427ZM884.345 663.573C886.58 668.969 886.58 675.031 884.345 680.427L888.04 681.958C890.681 675.582 890.681 668.418 888.04 662.042L884.345 663.573ZM872.427 651.655C877.823 653.89 882.11 658.177 884.345 663.573L888.04 662.042C885.399 655.667 880.334 650.601 873.958 647.96L872.427 651.655ZM855.573 651.655C860.969 649.421 867.031 649.421 872.427 651.655L873.958 647.96C867.582 645.319 860.418 645.319 854.042 647.96L855.573 651.655ZM843.656 663.573C845.891 658.177 850.177 653.89 855.573 651.655L854.042 647.96C847.667 650.601 842.601 655.667 839.96 662.042L843.656 663.573ZM843.656 680.427C841.421 675.031 841.421 668.969 843.656 663.573L839.96 662.042C837.319 668.418 837.319 675.582 839.96 681.958L843.656 680.427ZM855.573 692.345C850.177 690.11 845.891 685.823 843.656 680.427L839.96 681.958C842.601 688.334 847.667 693.399 854.042 696.04L855.573 692.345Z" fill="#FFA500"/>
<path d="M854.808 694.192C860.693 696.63 867.307 696.63 873.192 694.192C879.078 691.754 883.754 687.078 886.192 681.192C888.63 675.307 888.63 668.693 886.192 662.808C883.754 656.922 879.078 652.246 873.192 649.808C867.307 647.37 860.693 647.37 854.808 649.808C848.922 652.246 844.246 656.922 841.808 662.808C839.37 668.693 839.37 675.307 841.808 681.192C844.246 687.078 848.922 691.754 854.808 694.192Z" fill="#FFD700" stroke="#FFD700" stroke-width="4" stroke-linecap="round" stroke-linejoin="round"/>
</svg>
