<svg viewBox="0 0 1024 768" fill="none" xmlns="http://www.w3.org/2000/svg">
<path d="M418.337 55.3845C419.991 49.724 428.009 49.724 429.663 55.3845V55.3845C430.904 59.6318 436.205 61.0522 439.403 57.9944V57.9944C443.666 53.9191 450.61 57.9285 449.212 63.6575V63.6575C448.163 67.9561 452.044 71.8369 456.342 70.7879V70.7879C462.071 69.3898 466.081 76.3343 462.006 80.5966V80.5966C458.948 83.7948 460.368 89.0961 464.615 90.3369V90.3369C470.276 91.9906 470.276 100.009 464.615 101.663V101.663C460.368 102.904 458.948 108.205 462.006 111.403V111.403C466.081 115.666 462.071 122.61 456.342 121.212V121.212C452.044 120.163 448.163 124.044 449.212 128.342V128.342C450.61 134.071 443.666 138.081 439.403 134.006V134.006C436.205 130.948 430.904 132.368 429.663 136.615V136.615C428.009 142.276 419.991 142.276 418.337 136.615V136.615C417.096 132.368 411.795 130.948 408.597 134.006V134.006C404.334 138.081 397.39 134.071 398.788 128.342V128.342C399.837 124.044 395.956 120.163 391.658 121.212V121.212C385.929 122.61 381.919 115.666 385.994 111.403V111.403C389.052 108.205 387.632 102.904 383.385 101.663V101.663C377.724 100.009 377.724 91.9906 383.385 90.3369V90.3369C387.632 89.0961 389.052 83.7948 385.994 80.5966V80.5966C381.919 76.3343 385.929 69.3898 391.658 70.7879V70.7879C395.956 71.8369 399.837 67.9561 398.788 63.6575V63.6575C397.39 57.9285 404.334 53.9191 408.597 57.9944V57.9944C411.795 61.0522 417.096 59.6318 418.337 55.3845V55.3845Z" stroke="#7B61FF" stroke-width="2" stroke-linecap="round" stroke-linejoin="round"/>
<path d="M578.787 147.213C592.369 152.839 607.631 152.839 621.213 147.213V147.213C634.796 141.587 645.587 130.796 651.213 117.213V117.213C656.839 103.631 656.839 88.3694 651.213 74.7868V74.7868C645.587 61.2042 634.796 50.4129 621.213 44.7868V44.7868C607.631 39.1607 592.369 39.1607 578.787 44.7868V44.7868C565.204 50.4129 554.413 61.2042 548.787 74.7868V74.7868C543.161 88.3694 543.161 103.631 548.787 117.213V117.213C554.413 130.796 565.204 141.587 578.787 147.213V147.213Z" stroke="#7B61FF" stroke-width="2" stroke-linecap="round" stroke-linejoin="round"/>
<path fill-rule="evenodd" clip-rule="evenodd" d="M631.165 419H392.835C393.315 417.817 393.865 416.644 394.487 415.487C371.635 401.345 371.635 366.655 394.487 352.512C381.768 328.839 399.113 298.796 425.974 297.974C426.796 271.113 456.839 253.768 480.512 266.486C494.655 243.635 529.345 243.635 543.488 266.486C567.161 253.768 597.204 271.113 598.026 297.974C624.887 298.796 642.232 328.839 629.514 352.512C652.365 366.655 652.365 401.345 629.514 415.487C630.135 416.644 630.685 417.817 631.165 419Z" fill="#888888" fill-opacity="0.5"/>
<path d="M631.165 419V424C632.829 424 634.384 423.172 635.313 421.792C636.242 420.412 636.424 418.66 635.798 417.119L631.165 419ZM392.835 419L388.202 417.119C387.576 418.66 387.758 420.412 388.687 421.792C389.616 423.172 391.171 424 392.835 424V419ZM394.487 415.487L398.891 417.854C400.142 415.526 399.365 412.627 397.118 411.236L394.487 415.487ZM394.487 352.512L397.118 356.764C399.365 355.373 400.142 352.474 398.891 350.146L394.487 352.512ZM425.974 297.974L426.127 302.972C428.769 302.891 430.891 300.768 430.972 298.127L425.974 297.974ZM480.512 266.486L478.146 270.891C480.474 272.142 483.373 271.365 484.764 269.118L480.512 266.486ZM543.488 266.486L539.236 269.118C540.627 271.365 543.526 272.142 545.854 270.891L543.488 266.486ZM598.026 297.974L593.028 298.127C593.109 300.768 595.231 302.891 597.873 302.972L598.026 297.974ZM629.514 352.512L625.109 350.146C623.858 352.474 624.635 355.373 626.882 356.764L629.514 352.512ZM629.514 415.487L626.882 411.236C624.635 412.627 623.858 415.526 625.109 417.854L629.514 415.487ZM631.165 414H392.835V424H631.165V414ZM397.468 420.881C397.881 419.863 398.354 418.853 398.891 417.854L390.082 413.121C389.376 414.436 388.75 415.77 388.202 417.119L397.468 420.881ZM397.118 411.236C377.425 399.048 377.425 368.952 397.118 356.764L391.855 348.261C365.845 364.358 365.845 403.642 391.855 419.739L397.118 411.236ZM398.891 350.146C387.93 329.744 402.978 303.68 426.127 302.972L425.821 292.976C395.247 293.912 375.605 327.933 390.082 354.879L398.891 350.146ZM430.972 298.127C431.68 274.978 457.744 259.93 478.146 270.891L482.879 262.082C455.933 247.605 421.912 267.247 420.977 297.821L430.972 298.127ZM484.764 269.118C496.952 249.424 527.048 249.424 539.236 269.118L547.739 263.855C531.642 237.845 492.358 237.845 476.261 263.855L484.764 269.118ZM545.854 270.891C566.256 259.93 592.32 274.978 593.028 298.127L603.024 297.821C602.088 267.247 568.067 247.605 541.121 262.082L545.854 270.891ZM597.873 302.972C621.022 303.68 636.07 329.744 625.109 350.146L633.918 354.879C648.395 327.933 628.753 293.912 598.179 292.976L597.873 302.972ZM626.882 356.764C646.576 368.952 646.576 399.048 626.882 411.236L632.145 419.739C658.155 403.642 658.155 364.358 632.145 348.261L626.882 356.764ZM625.109 417.854C625.646 418.853 626.119 419.863 626.532 420.881L635.798 417.119C635.25 415.77 634.624 414.436 633.918 413.121L625.109 417.854Z" fill="currentColor"/>
<path fill-rule="evenodd" clip-rule="evenodd" d="M542 499L532 472.333V419L512 419L492 419V472.333L482 499L492 499H532L542 499Z" fill="#888888" fill-opacity="0.5"/>
<path d="M532 472.333H527C527 472.933 527.108 473.528 527.318 474.089L532 472.333ZM542 499L542 504C543.64 504 545.176 503.196 546.11 501.848C547.044 500.5 547.257 498.78 546.682 497.244L542 499ZM532 419H537C537 416.239 534.761 414 532 414L532 419ZM512 419L512 414H512L512 419ZM492 419L492 414C489.239 414 487 416.239 487 419H492ZM492 472.333L496.682 474.089C496.892 473.528 497 472.933 497 472.333H492ZM482 499L477.318 497.244C476.743 498.78 476.956 500.5 477.89 501.848C478.824 503.196 480.36 504 482 504L482 499ZM492 499L492 504H492V499ZM532 499V504H532L532 499ZM527.318 474.089L537.318 500.756L546.682 497.244L536.682 470.578L527.318 474.089ZM527 419V472.333H537V419H527ZM512 424L532 424L532 414L512 414L512 424ZM492 424L512 424L512 414L492 414L492 424ZM497 472.333V419H487V472.333H497ZM486.682 500.756L496.682 474.089L487.318 470.578L477.318 497.244L486.682 500.756ZM492 494L482 494L482 504L492 504L492 494ZM532 494H492V504H532V494ZM542 494L532 494L532 504L542 504L542 494Z" fill="currentColor"/>
<g opacity="0.25">
<path d="M498.299 285.737C502.3 272.042 521.7 272.042 525.701 285.737V285.737C528.703 296.012 541.529 299.449 549.266 292.051V292.051C559.578 282.192 576.38 291.892 572.997 305.752V305.752C570.459 316.152 579.848 325.541 590.248 323.003V323.003C604.108 319.621 613.809 336.422 603.949 346.734V346.734C596.551 354.472 599.988 367.297 610.263 370.299V370.299C623.958 374.3 623.958 393.7 610.263 397.701V397.701C599.988 400.703 596.551 413.529 603.949 421.266V421.266C613.809 431.579 604.108 448.38 590.248 444.997V444.997C579.848 442.459 570.459 451.848 572.997 462.248V462.248C576.38 476.109 559.578 485.809 549.266 475.949V475.949C541.529 468.551 528.703 471.988 525.701 482.263V482.263C521.7 495.958 502.3 495.958 498.299 482.263V482.263C495.297 471.988 482.471 468.551 474.734 475.949V475.949C464.422 485.809 447.62 476.109 451.003 462.248V462.248C453.541 451.848 444.152 442.459 433.752 444.997V444.997C419.892 448.38 410.191 431.579 420.051 421.266V421.266C427.449 413.529 424.012 400.703 413.737 397.701V397.701C400.042 393.7 400.042 374.3 413.737 370.299V370.299C424.012 367.297 427.449 354.472 420.051 346.734V346.734C410.191 336.422 419.892 319.621 433.752 323.003V323.003C444.152 325.541 453.541 316.152 451.003 305.752V305.752C447.62 291.892 464.422 282.192 474.734 292.051V292.051C482.471 299.449 495.297 296.012 498.299 285.737V285.737Z" stroke="currentColor" stroke-width="2.41935" stroke-linecap="round" stroke-linejoin="round"/>
<rect x="362" y="234" width="300" height="183.871" stroke="currentColor" stroke-width="2.41935" stroke-linecap="round" stroke-linejoin="round"/>
<path d="M512 417.871L541.032 495.29H482.968L512 417.871Z" stroke="currentColor" stroke-width="2.41935" stroke-linecap="round" stroke-linejoin="round"/>
</g>
<path d="M207.666 686V687C207.999 687 208.31 686.835 208.496 686.559C208.681 686.283 208.718 685.933 208.593 685.624L207.666 686ZM112.334 686L111.407 685.624C111.282 685.933 111.319 686.283 111.504 686.559C111.69 686.835 112.001 687 112.334 687V686ZM112.995 684.596L113.876 685.069C114.126 684.603 113.97 684.023 113.521 683.745L112.995 684.596ZM112.995 659.405L113.521 660.256C113.97 659.978 114.126 659.398 113.876 658.932L112.995 659.405ZM125.59 637.59L125.62 638.59C126.149 638.574 126.573 638.149 126.589 637.621L125.59 637.59ZM147.405 624.995L146.932 625.876C147.397 626.126 147.977 625.971 148.255 625.521L147.405 624.995ZM172.595 624.995L171.745 625.521C172.023 625.971 172.603 626.126 173.068 625.876L172.595 624.995ZM194.41 637.59L193.411 637.621C193.427 638.149 193.851 638.574 194.38 638.59L194.41 637.59ZM207.005 659.405L206.124 658.932C205.874 659.398 206.03 659.978 206.479 660.256L207.005 659.405ZM207.005 684.596L206.479 683.745C206.03 684.023 205.874 684.603 206.124 685.069L207.005 684.596ZM207.666 685H112.334V687H207.666V685ZM113.261 686.377C113.439 685.936 113.644 685.5 113.876 685.069L112.114 684.122C111.848 684.617 111.613 685.118 111.407 685.624L113.261 686.377ZM113.521 683.745C105.012 678.479 105.012 665.522 113.521 660.256L112.468 658.555C102.696 664.603 102.696 679.398 112.468 685.446L113.521 683.745ZM113.876 658.932C109.14 650.117 115.618 638.896 125.62 638.59L125.559 636.591C114.072 636.942 106.675 649.755 112.114 659.879L113.876 658.932ZM126.589 637.621C126.895 627.619 138.117 621.14 146.932 625.876L147.878 624.114C137.754 618.675 124.942 626.073 124.59 637.56L126.589 637.621ZM148.255 625.521C153.521 617.012 166.479 617.012 171.745 625.521L173.445 624.469C167.397 614.697 152.603 614.697 146.555 624.469L148.255 625.521ZM173.068 625.876C181.883 621.14 193.105 627.619 193.411 637.621L195.41 637.56C195.058 626.073 182.246 618.675 172.122 624.114L173.068 625.876ZM194.38 638.59C204.382 638.896 210.86 650.117 206.124 658.932L207.886 659.879C213.325 649.755 205.928 636.942 194.441 636.591L194.38 638.59ZM206.479 660.256C214.988 665.522 214.988 678.479 206.479 683.745L207.532 685.446C217.304 679.398 217.304 664.603 207.532 658.555L206.479 660.256ZM206.124 685.069C206.356 685.5 206.561 685.936 206.739 686.377L208.593 685.624C208.387 685.118 208.152 684.617 207.886 684.122L206.124 685.069Z" fill="currentColor"/>
<path d="M152 707.333L152.936 707.684C152.978 707.572 153 707.453 153 707.333H152ZM152 686V685C151.448 685 151 685.448 151 686H152ZM168 686H169C169 685.448 168.552 685 168 685V686ZM168 707.333H167C167 707.453 167.022 707.572 167.064 707.684L168 707.333ZM172 718V719C172.328 719 172.635 718.839 172.822 718.57C173.009 718.3 173.051 717.956 172.936 717.649L172 718ZM148 718L147.064 717.649C146.949 717.956 146.991 718.3 147.178 718.57C147.365 718.839 147.672 719 148 719V718ZM153 707.333V686H151V707.333H153ZM152 687H160V685H152V687ZM160 687H168V685H160V687ZM167 686V707.333H169V686H167ZM167.064 707.684L171.064 718.351L172.936 717.649L168.936 706.982L167.064 707.684ZM172 717H168V719H172V717ZM168 717H152V719H168V717ZM152 717H148V719H152V717ZM148.936 718.351L152.936 707.684L151.064 706.982L147.064 717.649L148.936 718.351Z" fill="currentColor"/>
<path d="M345.194 627.1L345.619 626.837L345.194 627.1ZM326.806 627.1L326.381 626.837V626.837L326.806 627.1ZM350.488 628.519L350.252 628.078L350.488 628.519ZM366.412 637.713L365.912 637.728V637.728L366.412 637.713ZM370.288 641.588L370.273 642.088L370.288 641.588ZM379.482 657.512L379.041 657.276L379.482 657.512ZM380.9 662.807L380.637 663.232L380.9 662.807ZM380.9 681.194L381.163 681.619L380.9 681.194ZM379.96 682V682.5C380.107 682.5 380.246 682.436 380.341 682.325L379.96 682ZM292.04 682L291.659 682.325C291.754 682.436 291.893 682.5 292.04 682.5V682ZM291.1 681.194L291.363 680.769H291.363L291.1 681.194ZM291.1 662.807L290.837 662.382H290.837L291.1 662.807ZM292.518 657.512L292.078 657.749L292.518 657.512ZM301.712 641.588L301.727 642.088H301.727L301.712 641.588ZM305.588 637.713L305.088 637.697V637.697L305.588 637.713ZM321.512 628.519L321.748 628.078L321.512 628.519ZM387.665 686.095L387.333 685.722C387.229 685.814 387.168 685.945 387.165 686.083L387.665 686.095ZM386.984 688.234L386.569 687.955V687.955L386.984 688.234ZM387.879 658.099L387.402 657.95C387.344 658.135 387.398 658.337 387.541 658.468L387.879 658.099ZM373.978 634.022L373.49 634.131C373.533 634.32 373.68 634.468 373.87 634.51L373.978 634.022ZM349.901 620.121L349.533 620.459C349.664 620.602 349.866 620.656 350.051 620.598L349.901 620.121ZM322.099 620.121L321.949 620.598C322.134 620.656 322.336 620.602 322.467 620.459L322.099 620.121ZM298.022 634.022L298.13 634.51C298.32 634.468 298.468 634.32 298.51 634.131L298.022 634.022ZM284.121 658.099L284.459 658.468C284.602 658.337 284.656 658.135 284.598 657.95L284.121 658.099ZM284.335 686.095L284.835 686.083C284.832 685.945 284.771 685.814 284.667 685.722L284.335 686.095ZM285.016 688.234L284.601 688.514H284.601L285.016 688.234ZM324 690H324.5C324.5 689.724 324.276 689.5 324 689.5V690ZM324 706.608L324.468 706.784C324.489 706.728 324.5 706.668 324.5 706.608H324ZM320.255 716.596L319.787 716.42L320.255 716.596ZM351.745 716.596L352.213 716.42L351.745 716.596ZM348 706.608H347.5C347.5 706.668 347.511 706.728 347.532 706.784L348 706.608ZM348 690V689.5C347.724 689.5 347.5 689.724 347.5 690H348ZM332 690V689.5C331.724 689.5 331.5 689.724 331.5 690H332ZM340 690H340.5C340.5 689.724 340.276 689.5 340 689.5V690ZM340.255 708.738L339.787 708.914L340.255 708.738ZM342.228 714V714.5C342.392 714.5 342.546 714.42 342.639 714.285C342.732 714.15 342.754 713.978 342.696 713.825L342.228 714ZM329.772 714L329.304 713.825C329.246 713.978 329.268 714.15 329.361 714.285C329.454 714.42 329.608 714.5 329.772 714.5V714ZM331.745 708.738L332.213 708.914H332.213L331.745 708.738ZM345.619 626.837C341.33 619.907 330.67 619.907 326.381 626.837L327.231 627.363C331.129 621.065 340.871 621.065 344.769 627.363L345.619 626.837ZM350.252 628.078C348.622 628.954 346.592 628.41 345.619 626.837L344.769 627.363C346.02 629.386 348.63 630.085 350.725 628.959L350.252 628.078ZM366.912 637.697C366.663 629.551 357.431 624.221 350.252 628.078L350.725 628.959C357.25 625.454 365.686 630.325 365.912 637.728L366.912 637.697ZM370.303 641.089C368.454 641.032 366.969 639.546 366.912 637.697L365.912 637.728C365.985 640.105 367.895 642.015 370.273 642.088L370.303 641.089ZM379.922 657.749C383.779 650.57 378.449 641.338 370.303 641.089L370.273 642.088C377.676 642.315 382.547 650.751 379.041 657.276L379.922 657.749ZM381.163 662.382C379.59 661.408 379.047 659.379 379.922 657.749L379.041 657.276C377.916 659.371 378.615 661.98 380.637 663.232L381.163 662.382ZM381.163 681.619C388.093 677.331 388.093 666.67 381.163 662.382L380.637 663.232C386.935 667.13 386.935 676.871 380.637 680.769L381.163 681.619ZM380.341 682.325C380.571 682.055 380.846 681.816 381.163 681.619L380.637 680.769C380.23 681.021 379.876 681.328 379.58 681.676L380.341 682.325ZM292.04 682.5H379.96V681.5H292.04V682.5ZM290.837 681.619C291.154 681.816 291.429 682.055 291.659 682.325L292.42 681.676C292.124 681.328 291.77 681.021 291.363 680.769L290.837 681.619ZM290.837 662.382C283.907 666.67 283.907 677.331 290.837 681.619L291.363 680.769C285.065 676.871 285.065 667.13 291.363 663.232L290.837 662.382ZM292.078 657.749C292.953 659.379 292.41 661.408 290.837 662.382L291.363 663.232C293.385 661.98 294.084 659.371 292.959 657.276L292.078 657.749ZM301.697 641.089C293.551 641.338 288.221 650.57 292.078 657.749L292.959 657.276C289.453 650.751 294.324 642.315 301.727 642.088L301.697 641.089ZM305.088 637.697C305.031 639.546 303.546 641.032 301.697 641.089L301.727 642.088C304.105 642.015 306.015 640.105 306.088 637.728L305.088 637.697ZM321.748 628.078C314.569 624.221 305.337 629.551 305.088 637.697L306.088 637.728C306.314 630.325 314.75 625.454 321.275 628.959L321.748 628.078ZM326.381 626.837C325.408 628.41 323.378 628.954 321.748 628.078L321.275 628.959C323.37 630.085 325.98 629.386 327.231 627.363L326.381 626.837ZM387.165 686.083C387.149 686.742 386.948 687.393 386.569 687.955L387.399 688.514C387.886 687.79 388.145 686.954 388.165 686.107L387.165 686.083ZM387.541 658.468C395.37 665.655 395.3 678.638 387.333 685.722L387.997 686.469C396.408 678.991 396.481 665.317 388.218 657.731L387.541 658.468ZM373.87 634.51C384.151 636.799 390.561 647.901 387.402 657.95L388.356 658.249C391.69 647.642 384.94 635.951 374.087 633.534L373.87 634.51ZM350.051 620.598C360.1 617.44 371.201 623.849 373.49 634.131L374.466 633.913C372.05 623.06 360.359 616.31 349.751 619.644L350.051 620.598ZM322.467 620.459C329.59 612.7 342.41 612.7 349.533 620.459L350.269 619.783C342.75 611.592 329.25 611.592 321.731 619.783L322.467 620.459ZM298.51 634.131C300.799 623.849 311.901 617.44 321.949 620.598L322.249 619.644C311.641 616.31 299.95 623.06 297.534 633.913L298.51 634.131ZM284.598 657.95C281.439 647.901 287.849 636.799 298.13 634.51L297.913 633.534C287.06 635.951 280.31 647.642 283.644 658.249L284.598 657.95ZM284.667 685.722C276.7 678.638 276.63 665.655 284.459 658.468L283.782 657.731C275.519 665.317 275.592 678.991 284.003 686.469L284.667 685.722ZM285.431 687.955C285.052 687.393 284.851 686.742 284.835 686.083L283.835 686.107C283.855 686.954 284.114 687.79 284.601 688.514L285.431 687.955ZM288.334 689.5C287.169 689.5 286.081 688.921 285.431 687.955L284.601 688.514C285.437 689.756 286.837 690.5 288.334 690.5V689.5ZM324 689.5H288.334V690.5H324V689.5ZM324.5 706.608V690H323.5V706.608H324.5ZM320.723 716.772L324.468 706.784L323.532 706.433L319.787 716.42L320.723 716.772ZM321.123 719.994C320.469 719.051 320.32 717.846 320.723 716.772L319.787 716.42C319.268 717.802 319.461 719.351 320.301 720.564L321.123 719.994ZM324 721.5C322.852 721.5 321.777 720.938 321.123 719.994L320.301 720.564C321.142 721.777 322.524 722.5 324 722.5V721.5ZM328 721.5H324V722.5H328V721.5ZM344 721.5H328V722.5H344V721.5ZM348 721.5H344V722.5H348V721.5ZM350.877 719.994C350.223 720.938 349.148 721.5 348 721.5V722.5C349.476 722.5 350.858 721.777 351.699 720.564L350.877 719.994ZM351.277 716.772C351.68 717.846 351.531 719.051 350.877 719.994L351.699 720.564C352.539 719.351 352.732 717.802 352.213 716.42L351.277 716.772ZM347.532 706.784L351.277 716.772L352.213 716.42L348.468 706.433L347.532 706.784ZM347.5 690V706.608H348.5V690H347.5ZM383.666 689.5H348V690.5H383.666V689.5ZM386.569 687.955C385.919 688.921 384.831 689.5 383.666 689.5V690.5C385.163 690.5 386.563 689.756 387.399 688.514L386.569 687.955ZM331.5 690V707.334H332.5V690H331.5ZM336 689.5H332V690.5H336V689.5ZM340 689.5H336V690.5H340V689.5ZM340.5 707.334V690H339.5V707.334H340.5ZM340.723 708.563C340.575 708.17 340.5 707.754 340.5 707.334H339.5C339.5 707.873 339.597 708.409 339.787 708.914L340.723 708.563ZM342.696 713.825L340.723 708.563L339.787 708.914L341.76 714.176L342.696 713.825ZM329.772 714.5H342.228V713.5H329.772V714.5ZM331.277 708.563L329.304 713.825L330.24 714.176L332.213 708.914L331.277 708.563ZM331.5 707.334C331.5 707.754 331.425 708.17 331.277 708.563L332.213 708.914C332.403 708.409 332.5 707.873 332.5 707.334H331.5Z" fill="currentColor"/>
<path fill-rule="evenodd" clip-rule="evenodd" d="M559.666 686H464.334C464.526 685.527 464.746 685.058 464.995 684.596C455.854 678.938 455.854 665.062 464.995 659.405C459.907 649.936 466.845 637.919 477.59 637.59C477.919 626.846 489.935 619.908 499.405 624.995C505.062 615.854 518.938 615.854 524.595 624.995C534.065 619.908 546.081 626.846 546.41 637.59C557.155 637.919 564.093 649.936 559.005 659.405C568.146 665.062 568.146 678.939 559.005 684.596C559.254 685.058 559.474 685.527 559.666 686Z" fill="currentColor"/>
<path d="M559.666 686V688C560.332 688 560.953 687.669 561.325 687.117C561.697 686.565 561.769 685.865 561.519 685.248L559.666 686ZM464.334 686L462.481 685.248C462.231 685.865 462.303 686.565 462.675 687.117C463.047 687.669 463.668 688 464.334 688V686ZM464.995 684.596L466.756 685.542C467.257 684.611 466.946 683.451 466.047 682.895L464.995 684.596ZM464.995 659.405L466.047 661.106C466.946 660.55 467.257 659.39 466.756 658.459L464.995 659.405ZM477.59 637.59L477.651 639.589C478.707 639.557 479.556 638.708 479.589 637.651L477.59 637.59ZM499.405 624.995L498.458 626.757C499.39 627.257 500.549 626.946 501.106 626.048L499.405 624.995ZM524.595 624.995L522.894 626.048C523.451 626.946 524.61 627.257 525.542 626.757L524.595 624.995ZM546.41 637.59L544.411 637.651C544.444 638.708 545.293 639.557 546.349 639.589L546.41 637.59ZM559.005 659.405L557.244 658.459C556.743 659.39 557.054 660.55 557.953 661.106L559.005 659.405ZM559.005 684.596L557.953 682.895C557.054 683.451 556.743 684.611 557.244 685.542L559.005 684.596ZM559.666 684H464.334V688H559.666V684ZM466.187 686.753C466.352 686.346 466.542 685.942 466.756 685.542L463.233 683.649C462.95 684.175 462.7 684.708 462.481 685.248L466.187 686.753ZM466.047 682.895C458.17 678.02 458.17 665.981 466.047 661.106L463.942 657.705C453.538 664.144 453.538 679.857 463.942 686.296L466.047 682.895ZM466.756 658.459C462.372 650.298 468.391 639.873 477.651 639.589L477.528 635.591C465.299 635.965 457.442 649.574 463.233 660.352L466.756 658.459ZM479.589 637.651C479.872 628.392 490.298 622.373 498.458 626.757L500.351 623.233C489.573 617.443 475.965 625.299 475.591 637.529L479.589 637.651ZM501.106 626.048C505.981 618.17 518.019 618.17 522.894 626.048L526.296 623.943C519.857 613.539 504.143 613.539 497.704 623.943L501.106 626.048ZM525.542 626.757C533.702 622.373 544.128 628.392 544.411 637.651L548.409 637.529C548.035 625.299 534.427 617.443 523.649 623.233L525.542 626.757ZM546.349 639.589C555.609 639.873 561.628 650.298 557.244 658.459L560.767 660.352C566.558 649.574 558.701 635.965 546.472 635.591L546.349 639.589ZM557.953 661.106C565.83 665.981 565.83 678.02 557.953 682.895L560.058 686.296C570.462 679.857 570.462 664.144 560.058 657.705L557.953 661.106ZM557.244 685.542C557.458 685.942 557.648 686.346 557.813 686.753L561.519 685.248C561.3 684.708 561.05 684.175 560.767 683.649L557.244 685.542Z" fill="currentColor"/>
<path fill-rule="evenodd" clip-rule="evenodd" d="M504 707.333V686H512H520V707.333L524 718H520H504H500L504 707.333Z" fill="currentColor"/>
<path d="M504 707.333L505.873 708.036C505.957 707.811 506 707.573 506 707.333H504ZM504 686V684C502.895 684 502 684.895 502 686H504ZM520 686H522C522 684.895 521.105 684 520 684V686ZM520 707.333H518C518 707.573 518.043 707.811 518.127 708.036L520 707.333ZM524 718V720C524.656 720 525.27 719.678 525.644 719.139C526.017 718.6 526.103 717.912 525.873 717.298L524 718ZM500 718L498.127 717.298C497.897 717.912 497.983 718.6 498.356 719.139C498.73 719.678 499.344 720 500 720V718ZM506 707.333V686H502V707.333H506ZM504 688H512V684H504V688ZM512 688H520V684H512V688ZM518 686V707.333H522V686H518ZM518.127 708.036L522.127 718.702L525.873 717.298L521.873 706.631L518.127 708.036ZM524 716H520V720H524V716ZM520 716H504V720H520V716ZM504 716H500V720H504V716ZM501.873 718.702L505.873 708.036L502.127 706.631L498.127 717.298L501.873 718.702Z" fill="currentColor"/>
<g opacity="0.25">
<path fill-rule="evenodd" clip-rule="evenodd" d="M735.666 686H640.334C640.526 685.527 640.746 685.058 640.995 684.596C631.854 678.938 631.854 665.062 640.995 659.405C635.907 649.936 642.845 637.919 653.59 637.59C653.919 626.846 665.935 619.908 675.405 624.995C681.062 615.854 694.938 615.854 700.595 624.995C710.065 619.908 722.081 626.846 722.41 637.59C733.155 637.919 740.093 649.936 735.005 659.405C744.146 665.062 744.146 678.939 735.005 684.596C735.254 685.058 735.474 685.527 735.666 686Z" fill="currentColor"/>
<path d="M735.666 686V688C736.332 688 736.953 687.669 737.325 687.117C737.697 686.565 737.769 685.865 737.519 685.248L735.666 686ZM640.334 686L638.481 685.248C638.231 685.865 638.303 686.565 638.675 687.117C639.047 687.669 639.668 688 640.334 688V686ZM640.995 684.596L642.756 685.542C643.257 684.611 642.946 683.451 642.047 682.895L640.995 684.596ZM640.995 659.405L642.047 661.106C642.946 660.55 643.257 659.39 642.756 658.459L640.995 659.405ZM653.59 637.59L653.651 639.589C654.707 639.557 655.556 638.708 655.589 637.651L653.59 637.59ZM675.405 624.995L674.458 626.757C675.39 627.257 676.549 626.946 677.106 626.048L675.405 624.995ZM700.595 624.995L698.894 626.048C699.451 626.946 700.61 627.257 701.542 626.757L700.595 624.995ZM722.41 637.59L720.411 637.651C720.444 638.708 721.293 639.557 722.349 639.589L722.41 637.59ZM735.005 659.405L733.244 658.459C732.743 659.39 733.054 660.55 733.953 661.106L735.005 659.405ZM735.005 684.596L733.953 682.895C733.054 683.451 732.743 684.611 733.244 685.542L735.005 684.596ZM735.666 684H640.334V688H735.666V684ZM642.187 686.753C642.352 686.346 642.542 685.942 642.756 685.542L639.233 683.649C638.95 684.175 638.7 684.708 638.481 685.248L642.187 686.753ZM642.047 682.895C634.17 678.02 634.17 665.981 642.047 661.106L639.942 657.705C629.538 664.144 629.538 679.857 639.942 686.296L642.047 682.895ZM642.756 658.459C638.372 650.298 644.391 639.873 653.651 639.589L653.528 635.591C641.299 635.965 633.442 649.574 639.233 660.352L642.756 658.459ZM655.589 637.651C655.872 628.392 666.298 622.373 674.458 626.757L676.351 623.233C665.573 617.443 651.965 625.299 651.591 637.529L655.589 637.651ZM677.106 626.048C681.981 618.17 694.019 618.17 698.894 626.048L702.296 623.943C695.857 613.539 680.143 613.539 673.704 623.943L677.106 626.048ZM701.542 626.757C709.702 622.373 720.128 628.392 720.411 637.651L724.409 637.529C724.035 625.299 710.427 617.443 699.649 623.233L701.542 626.757ZM722.349 639.589C731.609 639.873 737.628 650.298 733.244 658.459L736.767 660.352C742.558 649.574 734.701 635.965 722.472 635.591L722.349 639.589ZM733.953 661.106C741.83 665.981 741.83 678.02 733.953 682.895L736.058 686.296C746.462 679.857 746.462 664.144 736.058 657.705L733.953 661.106ZM733.244 685.542C733.458 685.942 733.648 686.346 733.813 686.753L737.519 685.248C737.3 684.708 737.05 684.175 736.767 683.649L733.244 685.542Z" fill="currentColor"/>
</g>
<path fill-rule="evenodd" clip-rule="evenodd" d="M680 707.333V686H688H696V707.333L700 718H696H680H676L680 707.333Z" fill="currentColor"/>
<path fill-rule="evenodd" clip-rule="evenodd" d="M911.666 686H816.334C816.526 685.527 816.746 685.058 816.995 684.596C807.854 678.938 807.854 665.062 816.995 659.405C811.907 649.936 818.845 637.919 829.59 637.59C829.919 626.846 841.935 619.908 851.405 624.995C857.062 615.854 870.938 615.854 876.595 624.995C886.065 619.908 898.081 626.846 898.41 637.59C909.155 637.919 916.093 649.936 911.005 659.405C920.146 665.062 920.146 678.939 911.005 684.596C911.254 685.058 911.474 685.527 911.666 686Z" fill="#FFA500"/>
<path d="M911.666 686V688C912.332 688 912.953 687.669 913.325 687.117C913.697 686.565 913.769 685.865 913.519 685.248L911.666 686ZM816.334 686L814.481 685.248C814.231 685.865 814.303 686.565 814.675 687.117C815.047 687.669 815.668 688 816.334 688V686ZM816.995 684.596L818.756 685.542C819.257 684.611 818.946 683.451 818.047 682.895L816.995 684.596ZM816.995 659.405L818.047 661.106C818.946 660.55 819.257 659.39 818.756 658.459L816.995 659.405ZM829.59 637.59L829.651 639.589C830.707 639.557 831.556 638.708 831.589 637.651L829.59 637.59ZM851.405 624.995L850.458 626.757C851.39 627.257 852.549 626.946 853.106 626.048L851.405 624.995ZM876.595 624.995L874.894 626.048C875.451 626.946 876.61 627.257 877.542 626.757L876.595 624.995ZM898.41 637.59L896.411 637.651C896.444 638.708 897.293 639.557 898.349 639.589L898.41 637.59ZM911.005 659.405L909.244 658.459C908.743 659.39 909.054 660.55 909.953 661.106L911.005 659.405ZM911.005 684.596L909.953 682.895C909.054 683.451 908.743 684.611 909.244 685.542L911.005 684.596ZM911.666 684H816.334V688H911.666V684ZM818.187 686.753C818.352 686.346 818.542 685.942 818.756 685.542L815.233 683.649C814.95 684.175 814.7 684.708 814.481 685.248L818.187 686.753ZM818.047 682.895C810.17 678.02 810.17 665.981 818.047 661.106L815.942 657.705C805.538 664.144 805.538 679.857 815.942 686.296L818.047 682.895ZM818.756 658.459C814.372 650.298 820.391 639.873 829.651 639.589L829.528 635.591C817.299 635.965 809.442 649.574 815.233 660.352L818.756 658.459ZM831.589 637.651C831.872 628.392 842.298 622.373 850.458 626.757L852.351 623.233C841.573 617.443 827.965 625.299 827.591 637.529L831.589 637.651ZM853.106 626.048C857.981 618.17 870.019 618.17 874.894 626.048L878.296 623.943C871.857 613.539 856.143 613.539 849.704 623.943L853.106 626.048ZM877.542 626.757C885.702 622.373 896.128 628.392 896.411 637.651L900.409 637.529C900.035 625.299 886.427 617.443 875.649 623.233L877.542 626.757ZM898.349 639.589C907.609 639.873 913.628 650.298 909.244 658.459L912.767 660.352C918.558 649.574 910.701 635.965 898.472 635.591L898.349 639.589ZM909.953 661.106C917.83 665.981 917.83 678.02 909.953 682.895L912.058 686.296C922.462 679.857 922.462 664.144 912.058 657.705L909.953 661.106ZM909.244 685.542C909.458 685.942 909.648 686.346 909.813 686.753L913.519 685.248C913.3 684.708 913.05 684.175 912.767 683.649L909.244 685.542Z" fill="#FFA500"/>
<path fill-rule="evenodd" clip-rule="evenodd" d="M856 707.333V686H864H872V707.333L876 718H872H856H852L856 707.333Z" fill="#8B4513"/>
</svg>
