<svg viewBox="0 0 1024 768" fill="none" xmlns="http://www.w3.org/2000/svg">
<path d="M410.388 58.0374C416.64 47.9152 431.36 47.9152 437.612 58.0374L444.923 69.8728C446.23 71.9883 448.012 73.7701 450.127 75.0768L461.963 82.3875C472.085 88.64 472.085 103.36 461.963 109.612L450.127 116.923C448.012 118.23 446.23 120.012 444.923 122.127L437.612 133.963C431.36 144.085 416.64 144.085 410.388 133.963L403.077 122.127C401.77 120.012 399.988 118.23 397.873 116.923L386.037 109.612C375.915 103.36 375.915 88.64 386.037 82.3875L397.873 75.0768C399.988 73.7701 401.77 71.9883 403.077 69.8728L410.388 58.0374Z" stroke="#7B61FF" stroke-width="2" stroke-linecap="round" stroke-linejoin="round"/>
<path d="M578.787 147.213C592.369 152.839 607.631 152.839 621.213 147.213V147.213C634.796 141.587 645.587 130.796 651.213 117.213V117.213C656.839 103.631 656.839 88.3694 651.213 74.7868V74.7868C645.587 61.2042 634.796 50.4129 621.213 44.7868V44.7868C607.631 39.1607 592.369 39.1607 578.787 44.7868V44.7868C565.204 50.4129 554.413 61.2042 548.787 74.7868V74.7868C543.161 88.3694 543.161 103.631 548.787 117.213V117.213C554.413 130.796 565.204 141.587 578.787 147.213V147.213Z" stroke="#7B61FF" stroke-width="2" stroke-linecap="round" stroke-linejoin="round"/>
<path fill-rule="evenodd" clip-rule="evenodd" d="M531.292 517.38C527.298 518.66 523.083 519 518.888 519H505.111C500.917 519 496.702 518.66 492.707 517.38C479.317 513.09 467.15 504.207 458.826 490.731L446.678 471.065C443.963 466.669 440.526 462.78 436.872 459.127C433.219 455.474 429.331 452.036 424.935 449.321L405.269 437.173C365.729 412.75 365.729 355.25 405.269 330.826L424.935 318.678C429.331 315.963 433.219 312.526 436.872 308.872C440.526 305.219 443.963 301.331 446.678 296.935L458.826 277.269C483.25 237.729 540.75 237.729 565.173 277.269L577.321 296.935C580.036 301.331 583.474 305.219 587.127 308.872C590.78 312.526 594.669 315.963 599.065 318.679L618.731 330.826C658.27 355.25 658.27 412.75 618.731 437.173L599.065 449.321C594.669 452.036 590.78 455.474 587.127 459.127C583.474 462.781 580.036 466.669 577.321 471.065L565.173 490.731C556.849 504.207 544.682 513.09 531.292 517.38ZM561.874 426.374C553.951 429.656 545.049 429.656 537.125 426.374C529.202 423.092 522.907 416.797 519.625 408.874C516.344 400.951 516.344 392.049 519.625 384.125C522.907 376.202 529.202 369.907 537.125 366.625C545.049 363.344 553.951 363.344 561.874 366.625C569.797 369.907 576.092 376.202 579.374 384.125C582.656 392.049 582.656 400.951 579.374 408.874C576.092 416.797 569.797 423.092 561.874 426.374ZM454.929 398.571C459.456 400.446 464.543 400.446 469.071 398.571C473.598 396.696 477.195 393.098 479.071 388.571C480.946 384.043 480.946 378.956 479.071 374.429C477.195 369.901 473.598 366.304 469.071 364.429C464.543 362.553 459.456 362.553 454.929 364.429C450.401 366.304 446.804 369.901 444.929 374.429C443.053 378.956 443.053 384.043 444.929 388.571C446.804 393.098 450.401 396.696 454.929 398.571ZM518.035 332.535C515.772 333.473 513.228 333.473 510.964 332.535C508.7 331.598 506.902 329.799 505.964 327.535C505.027 325.272 505.027 322.728 505.964 320.464C506.902 318.2 508.7 316.402 510.964 315.464C513.228 314.527 515.772 314.527 518.035 315.464C520.299 316.402 522.098 318.2 523.035 320.464C523.973 322.728 523.973 325.272 523.035 327.535C522.098 329.799 520.299 331.598 518.035 332.535Z" fill="#888888" fill-opacity="0.5"/>
<path d="M458.826 490.731L454.572 493.358L458.826 490.731ZM405.269 437.173L402.641 441.427H402.641L405.269 437.173ZM405.269 330.826L402.641 326.572L405.269 330.826ZM458.826 277.269L454.572 274.641V274.641L458.826 277.269ZM565.173 277.269L560.92 279.897L565.173 277.269ZM618.731 330.826L621.358 326.572L618.731 330.826ZM618.731 437.173L621.358 441.427L618.731 437.173ZM565.173 490.731L569.427 493.358L565.173 490.731ZM537.125 426.374L535.212 430.994L537.125 426.374ZM519.625 408.874L515.006 410.788V410.788L519.625 408.874ZM519.625 384.125L524.245 386.039V386.039L519.625 384.125ZM537.125 366.625L539.039 371.245L537.125 366.625ZM561.874 366.625L559.961 371.245L561.874 366.625ZM579.374 384.125L583.994 382.212L579.374 384.125ZM469.071 398.571L467.157 393.951H467.157L469.071 398.571ZM454.929 398.571L456.842 393.951H456.842L454.929 398.571ZM479.071 388.571L474.451 386.657L479.071 388.571ZM469.071 364.429L470.984 359.809H470.984L469.071 364.429ZM454.929 364.429L453.015 359.809H453.015L454.929 364.429ZM444.929 388.571L449.548 386.657L444.929 388.571ZM505.964 320.464L510.584 322.378V322.378L505.964 320.464ZM510.964 315.464L509.051 310.845L509.051 310.845L510.964 315.464ZM518.035 315.464L519.949 310.845L519.949 310.845L518.035 315.464ZM523.035 320.464L518.416 322.378V322.378L523.035 320.464ZM523.035 327.535L527.655 329.449V329.449L523.035 327.535ZM577.321 471.065L581.575 473.692L577.321 471.065ZM424.935 318.678L422.307 314.425L424.935 318.678ZM599.065 449.321L596.437 445.067L599.065 449.321ZM424.935 449.321L422.307 453.575L424.935 449.321ZM599.065 318.679L601.692 314.425L599.065 318.679ZM492.707 517.38L494.233 512.619L492.707 517.38ZM577.321 296.935L573.067 299.563L577.321 296.935ZM531.292 517.38L532.818 522.142L531.292 517.38ZM518.888 514H505.111V524H518.888V514ZM454.572 493.358C463.547 507.888 476.702 517.503 491.182 522.142L494.233 512.619C481.933 508.678 470.754 500.527 463.08 488.103L454.572 493.358ZM442.425 473.692L454.572 493.358L463.08 488.103L450.932 468.437L442.425 473.692ZM402.641 441.427L422.307 453.575L427.563 445.067L407.897 432.92L402.641 441.427ZM402.641 326.572C359.938 352.95 359.939 415.05 402.641 441.427L407.897 432.92C371.52 410.45 371.52 357.55 407.897 335.08L402.641 326.572ZM422.307 314.425L402.641 326.572L407.897 335.08L427.563 322.932L422.307 314.425ZM454.572 274.641L442.425 294.307L450.932 299.563L463.08 279.897L454.572 274.641ZM569.427 274.641C543.05 231.938 480.95 231.939 454.572 274.641L463.08 279.897C485.55 243.52 538.45 243.52 560.92 279.897L569.427 274.641ZM581.575 294.307L569.427 274.641L560.92 279.897L573.067 299.563L581.575 294.307ZM621.358 326.572L601.692 314.425L596.437 322.932L616.103 335.08L621.358 326.572ZM621.358 441.427C664.061 415.05 664.061 352.95 621.358 326.572L616.103 335.08C652.479 357.55 652.479 410.45 616.103 432.92L621.358 441.427ZM601.692 453.575L621.358 441.427L616.103 432.92L596.437 445.067L601.692 453.575ZM569.427 493.358L581.575 473.692L573.067 468.437L560.92 488.103L569.427 493.358ZM532.818 522.142C547.298 517.503 560.453 507.888 569.427 493.358L560.92 488.103C553.246 500.526 542.067 508.678 529.767 512.619L532.818 522.142ZM535.212 430.994C544.36 434.783 554.639 434.783 563.788 430.994L559.961 421.755C553.263 424.529 545.737 424.529 539.039 421.755L535.212 430.994ZM515.006 410.788C518.795 419.936 526.064 427.204 535.212 430.994L539.039 421.755C532.341 418.98 527.019 413.659 524.245 406.961L515.006 410.788ZM515.006 382.212C511.217 391.36 511.217 401.639 515.006 410.788L524.245 406.961C521.47 400.263 521.47 392.737 524.245 386.039L515.006 382.212ZM535.212 362.006C526.064 365.795 518.795 373.064 515.006 382.212L524.245 386.039C527.019 379.341 532.341 374.019 539.039 371.245L535.212 362.006ZM563.788 362.006C554.639 358.217 544.36 358.217 535.212 362.006L539.039 371.245C545.737 368.47 553.263 368.47 559.961 371.245L563.788 362.006ZM583.994 382.212C580.204 373.064 572.936 365.795 563.788 362.006L559.961 371.245C566.659 374.019 571.98 379.341 574.755 386.039L583.994 382.212ZM583.994 410.788C587.783 401.639 587.783 391.36 583.994 382.212L574.755 386.039C577.529 392.737 577.529 400.263 574.755 406.961L583.994 410.788ZM563.788 430.994C572.936 427.204 580.204 419.936 583.994 410.788L574.755 406.961C571.98 413.659 566.659 418.98 559.961 421.755L563.788 430.994ZM467.157 393.951C463.855 395.319 460.145 395.319 456.842 393.951L453.015 403.19C458.768 405.573 465.232 405.573 470.984 403.19L467.157 393.951ZM474.451 386.657C473.084 389.96 470.46 392.584 467.157 393.951L470.984 403.19C476.737 400.807 481.307 396.237 483.69 390.484L474.451 386.657ZM474.451 376.342C475.819 379.645 475.819 383.355 474.451 386.657L483.69 390.484C486.073 384.732 486.073 378.268 483.69 372.515L474.451 376.342ZM467.157 369.048C470.46 370.416 473.084 373.04 474.451 376.342L483.69 372.515C481.307 366.763 476.737 362.192 470.984 359.809L467.157 369.048ZM456.842 369.048C460.145 367.68 463.855 367.68 467.157 369.048L470.984 359.809C465.232 357.426 458.768 357.426 453.015 359.809L456.842 369.048ZM449.548 376.342C450.916 373.04 453.54 370.416 456.842 369.048L453.015 359.809C447.263 362.192 442.692 366.763 440.309 372.515L449.548 376.342ZM449.548 386.657C448.18 383.355 448.18 379.645 449.548 376.342L440.309 372.515C437.926 378.268 437.926 384.732 440.309 390.484L449.548 386.657ZM456.842 393.951C453.54 392.584 450.916 389.96 449.548 386.657L440.309 390.484C442.692 396.237 447.263 400.807 453.015 403.19L456.842 393.951ZM509.051 337.155C512.54 338.6 516.46 338.6 519.949 337.155L516.122 327.916C515.083 328.346 513.916 328.346 512.878 327.916L509.051 337.155ZM501.345 329.449C502.79 332.938 505.562 335.71 509.051 337.155L512.878 327.916C511.839 327.486 511.014 326.661 510.584 325.622L501.345 329.449ZM501.345 318.551C499.9 322.04 499.9 325.96 501.345 329.449L510.584 325.622C510.153 324.583 510.153 323.416 510.584 322.378L501.345 318.551ZM509.051 310.845C505.562 312.29 502.79 315.062 501.345 318.551L510.584 322.378C511.014 321.339 511.839 320.514 512.878 320.084L509.051 310.845ZM519.949 310.845C516.46 309.4 512.54 309.4 509.051 310.845L512.878 320.084C513.916 319.653 515.083 319.653 516.122 320.084L519.949 310.845ZM527.655 318.551C526.21 315.062 523.438 312.29 519.949 310.845L516.122 320.084C517.161 320.514 517.986 321.339 518.416 322.378L527.655 318.551ZM527.655 329.449C529.1 325.96 529.1 322.04 527.655 318.551L518.416 322.378C518.846 323.416 518.846 324.583 518.416 325.622L527.655 329.449ZM519.949 337.155C523.438 335.71 526.21 332.938 527.655 329.449L518.416 325.622C517.986 326.661 517.161 327.486 516.122 327.916L519.949 337.155ZM583.592 455.592C579.81 459.373 576.071 463.574 573.067 468.437L581.575 473.692C584.001 469.764 587.138 466.188 590.663 462.663L583.592 455.592ZM440.408 312.408C444.19 308.626 447.928 304.426 450.932 299.563L442.425 294.307C439.998 298.235 436.862 301.812 433.337 305.337L440.408 312.408ZM427.563 322.932C432.426 319.928 436.626 316.19 440.408 312.408L433.337 305.337C429.812 308.862 426.235 311.998 422.307 314.425L427.563 322.932ZM596.437 445.067C591.574 448.071 587.373 451.81 583.592 455.592L590.663 462.663C594.188 459.138 597.764 456.001 601.692 453.575L596.437 445.067ZM440.408 455.592C436.626 451.81 432.426 448.071 427.563 445.067L422.307 453.575C426.235 456.001 429.812 459.138 433.337 462.663L440.408 455.592ZM450.932 468.437C447.928 463.574 444.19 459.373 440.408 455.592L433.337 462.663C436.862 466.188 439.998 469.764 442.425 473.692L450.932 468.437ZM583.592 312.408C587.373 316.19 591.574 319.928 596.437 322.932L601.692 314.425C597.764 311.998 594.188 308.862 590.663 305.337L583.592 312.408ZM505.111 514C501.15 514 497.521 513.672 494.233 512.619L491.182 522.142C495.882 523.648 500.684 524 505.111 524V514ZM573.067 299.563C576.071 304.426 579.81 308.626 583.592 312.408L590.663 305.337C587.138 301.812 584.001 298.235 581.575 294.307L573.067 299.563ZM518.888 524C523.316 524 528.117 523.648 532.818 522.142L529.767 512.619C526.478 513.672 522.85 514 518.888 514V524Z" fill="currentColor"/>
<path d="M537.126 426.374C545.049 429.656 553.951 429.656 561.874 426.374C569.798 423.092 576.092 416.798 579.374 408.874C582.656 400.951 582.656 392.049 579.374 384.126C576.092 376.202 569.798 369.908 561.874 366.626C553.951 363.344 545.049 363.344 537.126 366.626C529.202 369.908 522.908 376.202 519.626 384.126C516.344 392.049 516.344 400.951 519.626 408.874C522.908 416.798 529.202 423.092 537.126 426.374Z" fill="#888888" fill-opacity="0.5" stroke="currentColor" stroke-width="10" stroke-linecap="round" stroke-linejoin="round"/>
<path d="M454.929 398.571C459.456 400.446 464.544 400.446 469.071 398.571C473.599 396.696 477.196 393.099 479.071 388.571C480.946 384.044 480.946 378.956 479.071 374.429C477.196 369.901 473.599 366.304 469.071 364.429C464.544 362.554 459.456 362.554 454.929 364.429C450.401 366.304 446.804 369.901 444.929 374.429C443.054 378.956 443.054 384.044 444.929 388.571C446.804 393.099 450.401 396.696 454.929 398.571Z" fill="#888888" fill-opacity="0.5" stroke="currentColor" stroke-width="10" stroke-linecap="round" stroke-linejoin="round"/>
<path d="M510.964 332.536C513.228 333.473 515.772 333.473 518.036 332.536C520.299 331.598 522.098 329.799 523.036 327.536C523.973 325.272 523.973 322.728 523.036 320.464C522.098 318.201 520.299 316.402 518.036 315.464C515.772 314.527 513.228 314.527 510.964 315.464C508.701 316.402 506.902 318.201 505.964 320.464C505.027 322.728 505.027 325.272 505.964 327.536C506.902 329.799 508.701 331.598 510.964 332.536Z" fill="#888888" fill-opacity="0.5" stroke="currentColor" stroke-width="10" stroke-linecap="round" stroke-linejoin="round"/>
<g opacity="0.25">
<path d="M479.067 292.155C494.194 267.666 529.807 267.666 544.933 292.155L562.621 320.789C565.782 325.907 570.093 330.218 575.211 333.38L603.845 351.067C628.334 366.194 628.334 401.807 603.845 416.934L575.211 434.621C570.093 437.782 565.782 442.093 562.621 447.211L544.933 475.845C529.807 500.334 494.194 500.334 479.067 475.845L461.379 447.211C458.218 442.093 453.907 437.782 448.789 434.621L420.155 416.934C395.666 401.807 395.666 366.194 420.155 351.067L448.789 333.38C453.907 330.218 458.218 325.907 461.379 320.789L479.067 292.155Z" stroke="currentColor" stroke-width="2.41935" stroke-linecap="round" stroke-linejoin="round"/>
<rect x="362" y="234" width="300" height="280.645" stroke="currentColor" stroke-width="2.41935" stroke-linecap="round" stroke-linejoin="round"/>
</g>
<path d="M138.731 714.692L139.581 714.166L138.731 714.692ZM117.308 693.269L116.782 694.12L117.308 693.269ZM117.308 650.73L117.833 651.581L117.308 650.73ZM138.731 629.307L139.581 629.833L138.731 629.307ZM181.269 629.307L180.419 629.833L181.269 629.307ZM202.692 650.73L202.167 651.581L202.692 650.73ZM202.692 693.269L202.167 692.418L202.692 693.269ZM181.269 714.692L180.419 714.166L181.269 714.692ZM170.05 688.949L170.433 688.025L170.05 688.949ZM179.95 688.949L179.567 688.025L179.95 688.949ZM163.05 681.949L163.974 681.567L163.05 681.949ZM163.05 672.05L163.974 672.432L163.05 672.05ZM170.05 665.05L170.433 665.974L170.05 665.05ZM179.95 665.05L179.567 665.974L179.95 665.05ZM186.95 672.05L187.874 671.667V671.667L186.95 672.05ZM186.95 681.949L187.874 682.332L186.95 681.949ZM137.172 677.828L137.554 676.904H137.554L137.172 677.828ZM146.828 673.828L147.752 674.211L146.828 673.828ZM146.828 668.171L147.752 667.788V667.788L146.828 668.171ZM137.172 664.171L137.554 665.095H137.554L137.172 664.171ZM133.172 673.828L132.248 674.211L133.172 673.828ZM159.586 651.414L159.203 652.338H159.203L159.586 651.414ZM157.586 649.414L158.51 649.031L157.586 649.414ZM164.414 649.414L163.49 649.031L164.414 649.414ZM125.174 698.128L124.648 698.979L125.174 698.128ZM133.872 706.826L133.021 707.351L133.872 706.826ZM186.129 637.174L185.278 637.7L186.129 637.174ZM167.718 725.351L168.023 726.304L167.718 725.351ZM162.756 724.999H157.244V726.999H162.756V724.999ZM137.88 715.217C141.339 720.818 146.403 724.518 151.977 726.304L152.587 724.399C147.45 722.753 142.781 719.346 139.581 714.166L137.88 715.217ZM133.021 707.351L137.88 715.217L139.581 714.166L134.723 706.3L133.021 707.351ZM116.782 694.12L124.648 698.979L125.699 697.277L117.833 692.418L116.782 694.12ZM116.782 649.879C100.334 660.039 100.334 683.96 116.782 694.12L117.833 692.418C102.65 683.04 102.65 660.959 117.833 651.581L116.782 649.879ZM124.648 645.02L116.782 649.879L117.833 651.581L125.699 646.722L124.648 645.02ZM137.88 628.782L133.021 636.648L134.723 637.699L139.581 629.833L137.88 628.782ZM182.12 628.782C171.96 612.333 148.04 612.333 137.88 628.782L139.581 629.833C148.96 614.649 171.04 614.65 180.419 629.833L182.12 628.782ZM186.98 636.648L182.12 628.782L180.419 629.833L185.278 637.7L186.98 636.648ZM203.218 649.879L195.351 645.02L194.3 646.722L202.167 651.581L203.218 649.879ZM203.218 694.12C219.666 683.96 219.666 660.039 203.218 649.879L202.167 651.581C217.35 660.959 217.35 683.04 202.167 692.418L203.218 694.12ZM195.351 698.979L203.218 694.12L202.167 692.418L194.3 697.278L195.351 698.979ZM182.12 715.217L186.98 707.351L185.278 706.3L180.419 714.166L182.12 715.217ZM168.023 726.304C173.597 724.518 178.661 720.818 182.12 715.217L180.419 714.166C177.219 719.346 172.55 722.753 167.413 724.399L168.023 726.304ZM169.668 689.873C173.082 691.287 176.918 691.287 180.333 689.873L179.567 688.025C176.643 689.237 173.357 689.237 170.433 688.025L169.668 689.873ZM162.126 682.332C163.541 685.746 166.253 688.459 169.668 689.873L170.433 688.025C167.509 686.814 165.185 684.491 163.974 681.567L162.126 682.332ZM162.126 671.667C160.712 675.081 160.712 678.918 162.126 682.332L163.974 681.567C162.763 678.642 162.763 675.357 163.974 672.432L162.126 671.667ZM169.668 664.126C166.253 665.54 163.541 668.253 162.126 671.667L163.974 672.432C165.185 669.508 167.509 667.185 170.433 665.974L169.668 664.126ZM180.333 664.126C176.918 662.712 173.082 662.712 169.668 664.126L170.433 665.974C173.357 664.762 176.643 664.762 179.567 665.974L180.333 664.126ZM187.874 671.667C186.459 668.253 183.747 665.54 180.333 664.126L179.567 665.974C182.491 667.185 184.815 669.508 186.026 672.432L187.874 671.667ZM187.874 682.332C189.288 678.918 189.288 675.081 187.874 671.667L186.026 672.432C187.237 675.357 187.237 678.642 186.026 681.567L187.874 682.332ZM180.333 689.873C183.747 688.459 186.459 685.746 187.874 682.332L186.026 681.567C184.815 684.491 182.491 686.814 179.567 688.025L180.333 689.873ZM142.446 676.904C140.88 677.553 139.12 677.553 137.554 676.904L136.789 678.752C138.845 679.603 141.155 679.603 143.211 678.752L142.446 676.904ZM145.905 673.445C145.256 675.011 144.012 676.255 142.446 676.904L143.211 678.752C145.267 677.9 146.901 676.267 147.752 674.211L145.905 673.445ZM145.905 668.554C146.553 670.12 146.553 671.879 145.905 673.445L147.752 674.211C148.604 672.155 148.604 669.844 147.752 667.788L145.905 668.554ZM142.446 665.095C144.012 665.744 145.256 666.988 145.905 668.554L147.752 667.788C146.901 665.732 145.267 664.099 143.211 663.247L142.446 665.095ZM137.554 665.095C139.12 664.446 140.88 664.446 142.446 665.095L143.211 663.247C141.155 662.396 138.845 662.396 136.789 663.247L137.554 665.095ZM134.096 668.554C134.744 666.988 135.988 665.744 137.554 665.095L136.789 663.247C134.733 664.099 133.099 665.732 132.248 667.788L134.096 668.554ZM134.096 673.445C133.447 671.879 133.447 670.12 134.096 668.554L132.248 667.788C131.396 669.844 131.396 672.155 132.248 674.211L134.096 673.445ZM137.554 676.904C135.988 676.255 134.744 675.011 134.096 673.445L132.248 674.211C133.099 676.267 134.733 677.9 136.789 678.752L137.554 676.904ZM159.203 652.338C160.354 652.814 161.646 652.814 162.797 652.338L162.032 650.49C161.371 650.763 160.629 650.763 159.969 650.49L159.203 652.338ZM156.662 649.796C157.139 650.947 158.053 651.861 159.203 652.338L159.969 650.49C159.308 650.216 158.783 649.692 158.51 649.031L156.662 649.796ZM156.662 646.203C156.185 647.353 156.185 648.646 156.662 649.796L158.51 649.031C158.236 648.371 158.236 647.628 158.51 646.968L156.662 646.203ZM159.203 643.661C158.053 644.138 157.139 645.052 156.662 646.203L158.51 646.968C158.783 646.308 159.308 645.783 159.969 645.509L159.203 643.661ZM162.797 643.661C161.646 643.185 160.354 643.185 159.203 643.661L159.969 645.509C160.629 645.236 161.371 645.236 162.032 645.509L162.797 643.661ZM165.338 646.203C164.862 645.052 163.948 644.138 162.797 643.661L162.032 645.509C162.692 645.783 163.217 646.308 163.49 646.968L165.338 646.203ZM165.338 649.796C165.815 648.646 165.815 647.353 165.338 646.203L163.49 646.968C163.764 647.628 163.764 648.371 163.49 649.031L165.338 649.796ZM162.797 652.338C163.948 651.861 164.862 650.947 165.338 649.796L163.49 649.031C163.217 649.692 162.692 650.216 162.032 650.49L162.797 652.338ZM189.344 701.343C187.857 702.83 186.422 704.448 185.278 706.3L186.98 707.351C188.008 705.686 189.322 704.193 190.758 702.758L189.344 701.343ZM130.656 642.656C132.143 641.169 133.579 639.551 134.723 637.699L133.021 636.648C131.993 638.313 130.678 639.806 129.242 641.241L130.656 642.656ZM125.699 646.722C127.551 645.578 129.169 644.143 130.656 642.656L129.242 641.241C127.806 642.677 126.313 643.992 124.648 645.02L125.699 646.722ZM194.3 697.278C192.448 698.421 190.831 699.856 189.344 701.343L190.758 702.758C192.194 701.322 193.686 700.007 195.351 698.979L194.3 697.278ZM130.656 701.343C129.169 699.856 127.551 698.421 125.699 697.277L124.648 698.979C126.313 700.007 127.806 701.322 129.242 702.758L130.656 701.343ZM134.723 706.3C133.579 704.448 132.143 702.831 130.656 701.343L129.242 702.758C130.678 704.193 131.993 705.687 133.021 707.351L134.723 706.3ZM189.344 642.656C190.831 644.143 192.448 645.578 194.3 646.722L195.351 645.02C193.686 643.992 192.194 642.677 190.758 641.242L189.344 642.656ZM157.244 724.999C155.613 724.999 154.044 724.866 152.587 724.399L151.977 726.304C153.716 726.861 155.52 726.999 157.244 726.999V724.999ZM185.278 637.7C186.422 639.551 187.857 641.169 189.344 642.656L190.758 641.242C189.322 639.806 188.008 638.313 186.98 636.648L185.278 637.7ZM162.756 726.999C164.48 726.999 166.284 726.861 168.023 726.304L167.413 724.399C165.956 724.866 164.387 724.999 162.756 724.999V726.999Z" fill="currentColor"/>
<path d="M170.05 688.95C173.22 690.263 176.781 690.263 179.95 688.95V688.95C183.119 687.637 185.637 685.119 186.95 681.95V681.95C188.263 678.78 188.263 675.22 186.95 672.05V672.05C185.637 668.881 183.119 666.363 179.95 665.05V665.05C176.781 663.737 173.22 663.737 170.05 665.05V665.05C166.881 666.363 164.363 668.881 163.05 672.05V672.05C161.738 675.22 161.738 678.78 163.05 681.95V681.95C164.363 685.119 166.881 687.637 170.05 688.95V688.95Z" stroke="currentColor" stroke-width="2" stroke-linecap="round" stroke-linejoin="round"/>
<path d="M137.172 677.828C138.983 678.579 141.017 678.579 142.829 677.828V677.828C144.64 677.078 146.078 675.639 146.829 673.828V673.828C147.579 672.017 147.579 669.983 146.829 668.172V668.172C146.078 666.361 144.64 664.922 142.829 664.172V664.172C141.017 663.421 138.983 663.421 137.172 664.172V664.172C135.361 664.922 133.922 666.361 133.172 668.172V668.172C132.422 669.983 132.422 672.017 133.172 673.828V673.828C133.922 675.639 135.361 677.078 137.172 677.828V677.828Z" stroke="currentColor" stroke-width="2" stroke-linecap="round" stroke-linejoin="round"/>
<path d="M159.586 651.414C160.491 651.789 161.509 651.789 162.414 651.414V651.414C163.32 651.039 164.039 650.32 164.414 649.414V649.414C164.789 648.509 164.789 647.491 164.414 646.586V646.586C164.039 645.68 163.32 644.961 162.414 644.586V644.586C161.509 644.211 160.491 644.211 159.586 644.586V644.586C158.68 644.961 157.961 645.68 157.586 646.586V646.586C157.211 647.491 157.211 648.509 157.586 649.414V649.414C157.961 650.32 158.68 651.039 159.586 651.414V651.414Z" stroke="currentColor" stroke-width="2" stroke-linecap="round" stroke-linejoin="round"/>
<path fill-rule="evenodd" clip-rule="evenodd" d="M339.945 640.891C338.059 640.11 335.941 640.11 334.055 640.891C332.17 641.672 330.671 643.17 329.89 645.056C329.109 646.941 329.109 649.06 329.89 650.945C330.671 652.831 332.17 654.329 334.055 655.11C335.941 655.891 338.059 655.891 339.945 655.11C341.831 654.329 343.329 652.831 344.11 650.945C344.891 649.06 344.891 646.941 344.11 645.056C343.329 643.17 341.831 641.672 339.945 640.891ZM337.281 648.117C337.25 648.192 337.191 648.251 337.117 648.282C337.042 648.313 336.958 648.313 336.884 648.282C336.809 648.251 336.75 648.192 336.719 648.117C336.688 648.042 336.688 647.959 336.719 647.884C336.75 647.809 336.809 647.75 336.884 647.719C336.958 647.688 337.042 647.688 337.117 647.719C337.191 647.75 337.25 647.809 337.281 647.884C337.312 647.959 337.312 648.042 337.281 648.117Z" stroke="currentColor" stroke-linecap="round" stroke-linejoin="round"/>
<path fill-rule="evenodd" clip-rule="evenodd" d="M320.359 660.477C317.568 659.32 314.432 659.32 311.641 660.477C308.85 661.633 306.632 663.85 305.476 666.641C304.32 669.432 304.32 672.569 305.476 675.36C306.632 678.151 308.85 680.368 311.641 681.524C314.432 682.681 317.568 682.681 320.359 681.524C323.15 680.368 325.368 678.151 326.524 675.36C327.68 672.569 327.68 669.432 326.524 666.641C325.368 663.85 323.15 661.633 320.359 660.477ZM314.702 667.868C315.533 667.523 316.467 667.523 317.298 667.868C318.129 668.212 318.789 668.872 319.133 669.703C319.477 670.534 319.477 671.467 319.133 672.298C318.789 673.129 318.129 673.789 317.298 674.133C316.467 674.478 315.533 674.478 314.702 674.133C313.871 673.789 313.211 673.129 312.867 672.298C312.523 671.467 312.523 670.534 312.867 669.703C313.211 668.872 313.871 668.212 314.702 667.868Z" stroke="currentColor" stroke-linecap="round" stroke-linejoin="round"/>
<path fill-rule="evenodd" clip-rule="evenodd" d="M357.481 661.355C353.331 659.637 348.669 659.637 344.52 661.355C340.37 663.074 337.074 666.371 335.355 670.52C333.636 674.669 333.636 679.332 335.355 683.481C335.57 684 335.809 684.505 336.072 684.996C337.911 688.43 340.889 691.142 344.52 692.646C345.038 692.861 345.565 693.049 346.098 693.21C349.827 694.338 353.85 694.15 357.481 692.646C357.999 692.431 358.505 692.191 358.995 691.929C362.429 690.09 365.141 687.112 366.645 683.481C368.364 679.332 368.364 674.669 366.645 670.52C364.927 666.371 361.63 663.074 357.481 661.355ZM348.414 668.449C350.381 667.854 352.504 667.953 354.419 668.746L354.445 668.757C356.622 669.667 358.351 671.401 359.254 673.582C359.368 673.855 359.467 674.133 359.552 674.414C360.062 676.1 360.062 677.901 359.552 679.587C359.467 679.868 359.368 680.146 359.254 680.42C358.348 682.609 356.608 684.348 354.419 685.255C352.504 686.048 350.381 686.147 348.414 685.552C348.133 685.467 347.855 685.368 347.581 685.255C345.392 684.348 343.653 682.609 342.746 680.42C341.839 678.23 341.839 675.771 342.746 673.582C342.803 673.445 342.862 673.31 342.926 673.176C343.872 671.178 345.529 669.596 347.581 668.746C347.855 668.633 348.133 668.534 348.414 668.449Z" stroke="currentColor" stroke-linecap="round" stroke-linejoin="round"/>
<path fill-rule="evenodd" clip-rule="evenodd" d="M360.673 627.206C349.34 608.86 322.66 608.86 311.327 627.206L306.469 635.072C305.614 636.456 304.479 637.762 303.121 639.121C301.762 640.48 300.456 641.614 299.072 642.469L291.206 647.328C272.859 658.66 272.859 685.341 291.206 696.673L299.072 701.532C300.456 702.387 301.762 703.521 303.121 704.88C304.479 706.239 305.614 707.545 306.469 708.929L311.327 716.795C315.177 723.028 320.834 727.166 327.062 729.162C329.225 729.855 331.38 730 333.244 730H338.756C340.62 730 342.775 729.855 344.938 729.162C351.166 727.166 356.823 723.028 360.673 716.795L365.532 708.928C366.387 707.544 367.521 706.238 368.879 704.88C370.238 703.521 371.544 702.387 372.928 701.532L380.794 696.673C399.141 685.341 399.141 658.66 380.794 647.328L372.928 642.469C371.544 641.614 370.238 640.48 368.879 639.121C367.521 637.763 366.387 636.457 365.532 635.073L360.673 627.206ZM318.134 631.41C326.34 618.125 345.66 618.125 353.866 631.41L358.726 639.277C360.043 641.409 361.659 643.214 363.222 644.778C364.786 646.342 366.591 647.958 368.723 649.275L376.59 654.134C389.876 662.34 389.876 681.661 376.59 689.867L368.723 694.726C366.591 696.043 364.786 697.659 363.222 699.223C361.659 700.787 360.043 702.592 358.726 704.724L353.866 712.591C351.057 717.139 346.981 720.107 342.497 721.543C341.464 721.874 340.247 722 338.756 722H333.244C331.753 722 330.536 721.874 329.503 721.543C325.019 720.107 320.943 717.139 318.134 712.591L313.275 704.725C311.958 702.592 310.341 700.787 308.777 699.223C307.213 697.659 305.408 696.043 303.276 694.726L295.41 689.867C282.124 681.661 282.124 662.34 295.41 654.134L303.276 649.275C305.408 647.958 307.213 646.342 308.777 644.778C310.341 643.214 311.958 641.409 313.275 639.276L318.134 631.41Z" stroke="currentColor" stroke-linecap="round" stroke-linejoin="round"/>
<path fill-rule="evenodd" clip-rule="evenodd" d="M519.718 725.351C518.12 725.864 516.434 725.999 514.756 725.999H509.244C507.566 725.999 505.88 725.864 504.282 725.351C498.927 723.635 494.06 720.082 490.731 714.692L485.872 706.826C484.786 705.068 483.41 703.512 481.949 702.051C480.488 700.589 478.932 699.214 477.174 698.128L469.308 693.269C453.492 683.5 453.492 660.499 469.308 650.73L477.174 645.871C478.932 644.785 480.488 643.41 481.949 641.949C483.41 640.487 484.786 638.932 485.872 637.173L490.731 629.307C500.5 613.491 523.5 613.491 533.269 629.307L538.129 637.174C539.215 638.932 540.59 640.487 542.051 641.949C543.512 643.41 545.067 644.785 546.826 645.871L554.692 650.73C570.508 660.499 570.508 683.5 554.692 693.269L546.826 698.128C545.067 699.214 543.512 700.589 542.051 702.05C540.59 703.512 539.215 705.067 538.129 706.825L533.269 714.692C529.94 720.082 525.073 723.635 519.718 725.351ZM531.95 688.949C528.781 690.262 525.22 690.262 522.05 688.949C518.881 687.637 516.363 685.119 515.05 681.949C513.738 678.78 513.738 675.219 515.05 672.05C516.363 668.881 518.881 666.363 522.05 665.05C525.22 663.737 528.781 663.737 531.95 665.05C535.119 666.363 537.637 668.881 538.95 672.05C540.263 675.219 540.263 678.78 538.95 681.949C537.637 685.119 535.119 687.637 531.95 688.949ZM489.172 677.828C490.983 678.578 493.017 678.578 494.828 677.828C496.639 677.078 498.078 675.639 498.828 673.828C499.579 672.017 499.579 669.982 498.828 668.171C498.078 666.36 496.639 664.921 494.828 664.171C493.017 663.421 490.983 663.421 489.172 664.171C487.361 664.921 485.922 666.36 485.172 668.171C484.421 669.982 484.421 672.017 485.172 673.828C485.922 675.639 487.361 677.078 489.172 677.828ZM514.414 651.414C513.509 651.789 512.491 651.789 511.586 651.414C510.68 651.039 509.961 650.319 509.586 649.414C509.211 648.508 509.211 647.491 509.586 646.585C509.961 645.68 510.68 644.96 511.586 644.585C512.491 644.21 513.509 644.21 514.414 644.585C515.32 644.96 516.039 645.68 516.414 646.585C516.789 647.491 516.789 648.508 516.414 649.414C516.039 650.319 515.32 651.039 514.414 651.414Z" fill="currentColor"/>
<path d="M490.731 714.692L492.432 713.641L490.731 714.692ZM469.308 693.269L468.257 694.971L469.308 693.269ZM469.308 650.73L470.359 652.432L469.308 650.73ZM490.731 629.307L492.432 630.358L490.731 629.307ZM533.269 629.307L531.568 630.358V630.358L533.269 629.307ZM554.692 650.73L553.641 652.432L554.692 650.73ZM554.692 693.269L553.641 691.567V691.567L554.692 693.269ZM533.269 714.692L531.568 713.641L533.269 714.692ZM522.05 688.949L522.816 687.102V687.102L522.05 688.949ZM531.95 688.949L531.184 687.102V687.102L531.95 688.949ZM515.05 681.949L516.898 681.184V681.184L515.05 681.949ZM515.05 672.05L516.898 672.815L515.05 672.05ZM522.05 665.05L522.816 666.898L522.05 665.05ZM531.95 665.05L531.184 666.898L531.95 665.05ZM538.95 672.05L540.798 671.284L540.798 671.284L538.95 672.05ZM538.95 681.949L540.798 682.715L538.95 681.949ZM489.172 677.828L489.937 675.98L489.172 677.828ZM498.828 673.828L500.676 674.593V674.593L498.828 673.828ZM498.828 668.171L500.676 667.406V667.406L498.828 668.171ZM489.172 664.171L489.937 666.019L489.172 664.171ZM485.172 673.828L483.324 674.593L485.172 673.828ZM511.586 651.414L510.82 653.262L510.82 653.262L511.586 651.414ZM509.586 649.414L511.434 648.648L509.586 649.414ZM516.414 649.414L514.567 648.648L516.414 649.414ZM477.174 698.128L476.123 699.829L477.174 698.128ZM485.872 706.826L484.17 707.877L485.872 706.826ZM538.129 637.174L536.427 638.225L538.129 637.174ZM519.718 725.351L520.328 727.256L519.718 725.351ZM514.756 723.999H509.244V727.999H514.756V723.999ZM489.029 715.743C492.619 721.554 497.88 725.4 503.672 727.256L504.893 723.447C499.973 721.87 495.502 718.61 492.432 713.641L489.029 715.743ZM484.17 707.877L489.029 715.743L492.432 713.641L487.573 705.775L484.17 707.877ZM468.257 694.971L476.123 699.829L478.225 696.426L470.359 691.567L468.257 694.971ZM468.257 649.029C451.176 659.579 451.175 684.42 468.257 694.971L470.359 691.567C455.808 682.58 455.808 661.419 470.359 652.432L468.257 649.029ZM476.123 644.17L468.257 649.029L470.359 652.432L478.225 647.573L476.123 644.17ZM489.029 628.256L484.17 636.122L487.573 638.224L492.432 630.358L489.029 628.256ZM534.971 628.256C524.42 611.175 499.58 611.175 489.029 628.256L492.432 630.358C501.42 615.808 522.58 615.808 531.568 630.358L534.971 628.256ZM539.83 636.123L534.971 628.256L531.568 630.358L536.427 638.225L539.83 636.123ZM555.743 649.029L547.877 644.169L545.774 647.572L553.641 652.432L555.743 649.029ZM555.743 694.971C572.824 684.42 572.825 659.579 555.743 649.029L553.641 652.432C568.192 661.419 568.192 682.58 553.641 691.567L555.743 694.971ZM547.877 699.83L555.743 694.971L553.641 691.567L545.774 696.427L547.877 699.83ZM534.971 715.743L539.83 707.876L536.427 705.774L531.568 713.641L534.971 715.743ZM520.328 727.256C526.12 725.4 531.381 721.554 534.971 715.743L531.568 713.641C528.498 718.61 524.027 721.87 519.107 723.447L520.328 727.256ZM521.285 690.797C524.944 692.313 529.056 692.313 532.715 690.797L531.184 687.102C528.505 688.211 525.495 688.211 522.816 687.102L521.285 690.797ZM513.203 682.715C514.718 686.374 517.626 689.281 521.285 690.797L522.816 687.102C520.136 685.992 518.008 683.863 516.898 681.184L513.203 682.715ZM513.203 671.284C511.687 674.944 511.687 679.055 513.203 682.715L516.898 681.184C515.788 678.505 515.788 675.494 516.898 672.815L513.203 671.284ZM521.285 663.202C517.626 664.718 514.718 667.625 513.203 671.284L516.898 672.815C518.008 670.136 520.136 668.007 522.816 666.898L521.285 663.202ZM532.715 663.202C529.056 661.686 524.944 661.686 521.285 663.202L522.816 666.898C525.495 665.788 528.505 665.788 531.184 666.898L532.715 663.202ZM540.798 671.284C539.282 667.625 536.374 664.718 532.715 663.202L531.184 666.898C533.864 668.007 535.992 670.136 537.102 672.815L540.798 671.284ZM540.798 682.715C542.313 679.055 542.313 674.944 540.798 671.284L537.102 672.815C538.212 675.494 538.212 678.505 537.102 681.184L540.798 682.715ZM532.715 690.797C536.374 689.281 539.282 686.374 540.798 682.715L537.102 681.184C535.992 683.863 533.864 685.992 531.184 687.102L532.715 690.797ZM494.063 675.98C492.742 676.527 491.258 676.527 489.937 675.98L488.406 679.676C490.707 680.629 493.293 680.629 495.594 679.676L494.063 675.98ZM496.981 673.063C496.434 674.384 495.384 675.433 494.063 675.98L495.594 679.676C497.895 678.723 499.723 676.894 500.676 674.593L496.981 673.063ZM496.981 668.936C497.528 670.257 497.528 671.742 496.981 673.063L500.676 674.593C501.629 672.292 501.629 669.707 500.676 667.406L496.981 668.936ZM494.063 666.019C495.384 666.566 496.434 667.616 496.981 668.936L500.676 667.406C499.723 665.105 497.895 663.276 495.594 662.323L494.063 666.019ZM489.937 666.019C491.258 665.472 492.742 665.472 494.063 666.019L495.594 662.323C493.293 661.37 490.707 661.37 488.406 662.323L489.937 666.019ZM487.019 668.936C487.567 667.616 488.616 666.566 489.937 666.019L488.406 662.323C486.105 663.276 484.277 665.105 483.324 667.406L487.019 668.936ZM487.019 673.063C486.472 671.742 486.472 670.257 487.019 668.936L483.324 667.406C482.371 669.707 482.371 672.292 483.324 674.593L487.019 673.063ZM489.937 675.98C488.616 675.433 487.567 674.384 487.019 673.063L483.324 674.593C484.277 676.894 486.105 678.723 488.406 679.676L489.937 675.98ZM510.82 653.262C512.216 653.84 513.784 653.84 515.18 653.262L513.649 649.566C513.233 649.738 512.767 649.738 512.351 649.566L510.82 653.262ZM507.738 650.179C508.316 651.575 509.425 652.683 510.82 653.262L512.351 649.566C511.936 649.394 511.606 649.064 511.434 648.648L507.738 650.179ZM507.738 645.82C507.16 647.216 507.16 648.784 507.738 650.179L511.434 648.648C511.262 648.233 511.262 647.766 511.434 647.351L507.738 645.82ZM510.82 642.738C509.425 643.316 508.316 644.424 507.738 645.82L511.434 647.351C511.606 646.935 511.936 646.605 512.351 646.433L510.82 642.738ZM515.18 642.738C513.784 642.16 512.216 642.16 510.82 642.738L512.351 646.433C512.767 646.261 513.233 646.261 513.649 646.433L515.18 642.738ZM518.262 645.82C517.684 644.424 516.575 643.316 515.18 642.738L513.649 646.433C514.064 646.605 514.394 646.935 514.567 647.351L518.262 645.82ZM518.262 650.179C518.84 648.784 518.84 647.216 518.262 645.82L514.567 647.351C514.739 647.766 514.739 648.233 514.567 648.648L518.262 650.179ZM515.18 653.262C516.575 652.683 517.684 651.575 518.262 650.179L514.567 648.648C514.394 649.064 514.064 649.394 513.649 649.566L515.18 653.262ZM540.637 700.636C539.124 702.149 537.629 703.829 536.427 705.774L539.83 707.876C540.801 706.305 542.055 704.875 543.465 703.465L540.637 700.636ZM483.363 643.363C484.876 641.85 486.372 640.17 487.573 638.224L484.17 636.122C483.2 637.693 481.945 639.124 480.535 640.534L483.363 643.363ZM478.225 647.573C480.17 646.371 481.85 644.876 483.363 643.363L480.535 640.534C479.125 641.944 477.694 643.199 476.123 644.17L478.225 647.573ZM545.774 696.427C543.829 697.628 542.149 699.124 540.637 700.636L543.465 703.465C544.875 702.055 546.306 700.8 547.877 699.83L545.774 696.427ZM483.363 700.636C481.85 699.124 480.17 697.628 478.225 696.426L476.123 699.829C477.694 700.8 479.125 702.055 480.535 703.465L483.363 700.636ZM487.573 705.775C486.372 703.829 484.876 702.149 483.363 700.636L480.535 703.465C481.945 704.875 483.2 706.306 484.17 707.877L487.573 705.775ZM540.637 643.363C542.149 644.875 543.829 646.371 545.774 647.572L547.877 644.169C546.305 643.199 544.875 641.944 543.465 640.534L540.637 643.363ZM509.244 723.999C507.66 723.999 506.208 723.868 504.893 723.447L503.672 727.256C505.552 727.859 507.473 727.999 509.244 727.999V723.999ZM536.427 638.225C537.629 640.17 539.124 641.85 540.637 643.363L543.465 640.534C542.055 639.125 540.801 637.694 539.83 636.123L536.427 638.225ZM514.756 727.999C516.527 727.999 518.448 727.859 520.328 727.256L519.107 723.447C517.792 723.868 516.34 723.999 514.756 723.999V727.999Z" fill="currentColor"/>
<path d="M489.172 677.828C490.983 678.579 493.018 678.579 494.829 677.828C496.64 677.078 498.078 675.639 498.829 673.828C499.579 672.017 499.579 669.983 498.829 668.172C498.078 666.361 496.64 664.922 494.829 664.172C493.018 663.421 490.983 663.421 489.172 664.172C487.361 664.922 485.922 666.361 485.172 668.172C484.422 669.983 484.422 672.017 485.172 673.828C485.922 675.639 487.361 677.078 489.172 677.828Z" fill="#888888" fill-opacity="0.5" stroke="currentColor" stroke-width="4" stroke-linecap="round" stroke-linejoin="round"/>
<path d="M511.586 651.414C512.491 651.789 513.509 651.789 514.414 651.414C515.32 651.039 516.039 650.32 516.414 649.414C516.789 648.509 516.789 647.491 516.414 646.586C516.039 645.68 515.32 644.961 514.414 644.586C513.509 644.211 512.491 644.211 511.586 644.586C510.68 644.961 509.961 645.68 509.586 646.586C509.211 647.491 509.211 648.509 509.586 649.414C509.961 650.32 510.68 651.039 511.586 651.414Z" fill="#888888" fill-opacity="0.5" stroke="currentColor" stroke-width="4" stroke-linecap="round" stroke-linejoin="round"/>
<g opacity="0.25">
<path fill-rule="evenodd" clip-rule="evenodd" d="M695.718 725.351C694.12 725.864 692.434 725.999 690.756 725.999H685.244C683.566 725.999 681.88 725.864 680.282 725.351C674.927 723.635 670.06 720.082 666.731 714.692L661.872 706.826C660.786 705.068 659.41 703.512 657.949 702.051C656.488 700.589 654.932 699.214 653.174 698.128L645.308 693.269C629.492 683.5 629.492 660.499 645.308 650.73L653.174 645.871C654.932 644.785 656.488 643.41 657.949 641.949C659.41 640.487 660.786 638.932 661.872 637.173L666.731 629.307C676.5 613.491 699.5 613.491 709.269 629.307L714.129 637.174C715.215 638.932 716.59 640.487 718.051 641.949C719.512 643.41 721.067 644.785 722.826 645.871L730.692 650.73C746.508 660.499 746.508 683.5 730.692 693.269L722.826 698.128C721.067 699.214 719.512 700.589 718.051 702.05C716.59 703.512 715.215 705.067 714.129 706.825L709.269 714.692C705.94 720.082 701.073 723.635 695.718 725.351ZM707.95 688.949C704.781 690.262 701.22 690.262 698.05 688.949C694.881 687.637 692.363 685.119 691.05 681.949C689.738 678.78 689.738 675.219 691.05 672.05C692.363 668.881 694.881 666.363 698.05 665.05C701.22 663.737 704.781 663.737 707.95 665.05C711.119 666.363 713.637 668.881 714.95 672.05C716.263 675.219 716.263 678.78 714.95 681.949C713.637 685.119 711.119 687.637 707.95 688.949ZM665.172 677.828C666.983 678.578 669.018 678.578 670.829 677.828C672.64 677.078 674.078 675.639 674.829 673.828C675.579 672.017 675.579 669.982 674.829 668.171C674.078 666.36 672.64 664.921 670.829 664.171C669.018 663.421 666.983 663.421 665.172 664.171C663.361 664.921 661.922 666.36 661.172 668.171C660.422 669.982 660.422 672.017 661.172 673.828C661.922 675.639 663.361 677.078 665.172 677.828ZM690.414 651.414C689.509 651.789 688.491 651.789 687.586 651.414C686.68 651.039 685.961 650.319 685.586 649.414C685.211 648.508 685.211 647.491 685.586 646.585C685.961 645.68 686.68 644.96 687.586 644.585C688.491 644.21 689.509 644.21 690.414 644.585C691.32 644.96 692.039 645.68 692.414 646.585C692.789 647.491 692.789 648.508 692.414 649.414C692.039 650.319 691.32 651.039 690.414 651.414Z" fill="currentColor"/>
<path d="M666.731 714.692L668.432 713.641L666.731 714.692ZM645.308 693.269L644.257 694.971L645.308 693.269ZM645.308 650.73L646.359 652.432L645.308 650.73ZM666.731 629.307L668.432 630.358L666.731 629.307ZM709.269 629.307L707.568 630.358V630.358L709.269 629.307ZM730.692 650.73L729.641 652.432L730.692 650.73ZM730.692 693.269L729.641 691.567V691.567L730.692 693.269ZM709.269 714.692L707.568 713.641L709.269 714.692ZM698.05 688.949L698.816 687.102V687.102L698.05 688.949ZM707.95 688.949L707.184 687.102V687.102L707.95 688.949ZM691.05 681.949L692.898 681.184V681.184L691.05 681.949ZM691.05 672.05L692.898 672.815L691.05 672.05ZM698.05 665.05L698.816 666.898L698.05 665.05ZM707.95 665.05L707.184 666.898L707.95 665.05ZM714.95 672.05L716.798 671.284L716.798 671.284L714.95 672.05ZM714.95 681.949L716.798 682.715L714.95 681.949ZM665.172 677.828L665.937 675.98L665.172 677.828ZM674.829 673.828L676.676 674.593V674.593L674.829 673.828ZM674.829 668.171L676.676 667.406V667.406L674.829 668.171ZM665.172 664.171L665.937 666.019L665.172 664.171ZM661.172 673.828L659.324 674.593L661.172 673.828ZM687.586 651.414L686.82 653.262L686.821 653.262L687.586 651.414ZM685.586 649.414L687.434 648.648L685.586 649.414ZM692.414 649.414L690.567 648.648L692.414 649.414ZM653.174 698.128L652.123 699.829L653.174 698.128ZM661.872 706.826L660.17 707.877L661.872 706.826ZM714.129 637.174L712.427 638.225L714.129 637.174ZM695.718 725.351L696.328 727.256L695.718 725.351ZM690.756 723.999H685.244V727.999H690.756V723.999ZM665.029 715.743C668.619 721.554 673.88 725.4 679.672 727.256L680.893 723.447C675.973 721.87 671.502 718.61 668.432 713.641L665.029 715.743ZM660.17 707.877L665.029 715.743L668.432 713.641L663.573 705.775L660.17 707.877ZM644.257 694.971L652.123 699.829L654.225 696.426L646.359 691.567L644.257 694.971ZM644.257 649.029C627.176 659.579 627.176 684.42 644.257 694.971L646.359 691.567C631.808 682.58 631.808 661.419 646.359 652.432L644.257 649.029ZM652.123 644.17L644.257 649.029L646.359 652.432L654.225 647.573L652.123 644.17ZM665.029 628.256L660.17 636.122L663.573 638.224L668.432 630.358L665.029 628.256ZM710.971 628.256C700.42 611.175 675.58 611.175 665.029 628.256L668.432 630.358C677.42 615.808 698.58 615.808 707.568 630.358L710.971 628.256ZM715.83 636.123L710.971 628.256L707.568 630.358L712.427 638.225L715.83 636.123ZM731.743 649.029L723.877 644.169L721.774 647.572L729.641 652.432L731.743 649.029ZM731.743 694.971C748.825 684.42 748.825 659.579 731.743 649.029L729.641 652.432C744.192 661.419 744.192 682.58 729.641 691.567L731.743 694.971ZM723.877 699.83L731.743 694.971L729.641 691.567L721.774 696.427L723.877 699.83ZM710.971 715.743L715.83 707.876L712.427 705.774L707.568 713.641L710.971 715.743ZM696.328 727.256C702.12 725.4 707.381 721.554 710.971 715.743L707.568 713.641C704.498 718.61 700.027 721.87 695.107 723.447L696.328 727.256ZM697.285 690.797C700.944 692.313 705.056 692.313 708.715 690.797L707.184 687.102C704.505 688.211 701.495 688.211 698.816 687.102L697.285 690.797ZM689.203 682.715C690.718 686.374 693.626 689.281 697.285 690.797L698.816 687.102C696.136 685.992 694.008 683.863 692.898 681.184L689.203 682.715ZM689.203 671.284C687.687 674.944 687.687 679.055 689.203 682.715L692.898 681.184C691.788 678.505 691.788 675.494 692.898 672.815L689.203 671.284ZM697.285 663.202C693.626 664.718 690.718 667.625 689.203 671.284L692.898 672.815C694.008 670.136 696.136 668.007 698.816 666.898L697.285 663.202ZM708.715 663.202C705.056 661.686 700.944 661.686 697.285 663.202L698.816 666.898C701.495 665.788 704.505 665.788 707.184 666.898L708.715 663.202ZM716.798 671.284C715.282 667.625 712.375 664.718 708.715 663.202L707.184 666.898C709.864 668.007 711.992 670.136 713.102 672.815L716.798 671.284ZM716.798 682.715C718.313 679.055 718.313 674.944 716.798 671.284L713.102 672.815C714.212 675.494 714.212 678.505 713.102 681.184L716.798 682.715ZM708.715 690.797C712.375 689.281 715.282 686.374 716.798 682.715L713.102 681.184C711.992 683.863 709.864 685.992 707.184 687.102L708.715 690.797ZM670.063 675.98C668.742 676.527 667.258 676.527 665.937 675.98L664.406 679.676C666.707 680.629 669.293 680.629 671.594 679.676L670.063 675.98ZM672.981 673.063C672.434 674.384 671.384 675.433 670.063 675.98L671.594 679.676C673.895 678.723 675.723 676.894 676.676 674.593L672.981 673.063ZM672.981 668.936C673.528 670.257 673.528 671.742 672.981 673.063L676.676 674.593C677.629 672.292 677.629 669.707 676.676 667.406L672.981 668.936ZM670.063 666.019C671.384 666.566 672.434 667.616 672.981 668.936L676.676 667.406C675.723 665.105 673.895 663.276 671.594 662.323L670.063 666.019ZM665.937 666.019C667.258 665.472 668.742 665.472 670.063 666.019L671.594 662.323C669.293 661.37 666.707 661.37 664.406 662.323L665.937 666.019ZM663.019 668.936C663.567 667.616 664.616 666.566 665.937 666.019L664.406 662.323C662.105 663.276 660.277 665.105 659.324 667.406L663.019 668.936ZM663.019 673.063C662.472 671.742 662.472 670.257 663.019 668.936L659.324 667.406C658.371 669.707 658.371 672.292 659.324 674.593L663.019 673.063ZM665.937 675.98C664.616 675.433 663.567 674.384 663.019 673.063L659.324 674.593C660.277 676.894 662.105 678.723 664.406 679.676L665.937 675.98ZM686.821 653.262C688.216 653.84 689.784 653.84 691.18 653.262L689.649 649.566C689.233 649.738 688.767 649.738 688.351 649.566L686.821 653.262ZM683.738 650.179C684.316 651.575 685.425 652.683 686.82 653.262L688.351 649.566C687.936 649.394 687.606 649.064 687.434 648.648L683.738 650.179ZM683.738 645.82C683.16 647.216 683.16 648.784 683.738 650.179L687.434 648.648C687.262 648.233 687.262 647.766 687.434 647.351L683.738 645.82ZM686.821 642.738C685.425 643.316 684.316 644.424 683.738 645.82L687.434 647.351C687.606 646.935 687.936 646.605 688.351 646.433L686.821 642.738ZM691.18 642.738C689.784 642.16 688.216 642.16 686.821 642.738L688.351 646.433C688.767 646.261 689.233 646.261 689.649 646.433L691.18 642.738ZM694.262 645.82C693.684 644.424 692.575 643.316 691.18 642.738L689.649 646.433C690.064 646.605 690.394 646.935 690.567 647.351L694.262 645.82ZM694.262 650.179C694.84 648.784 694.84 647.216 694.262 645.82L690.567 647.351C690.739 647.766 690.739 648.233 690.567 648.648L694.262 650.179ZM691.18 653.262C692.575 652.683 693.684 651.575 694.262 650.179L690.567 648.648C690.394 649.064 690.064 649.394 689.649 649.566L691.18 653.262ZM716.637 700.636C715.124 702.149 713.629 703.829 712.427 705.774L715.83 707.876C716.801 706.305 718.055 704.875 719.465 703.465L716.637 700.636ZM659.363 643.363C660.876 641.85 662.372 640.17 663.573 638.224L660.17 636.122C659.2 637.693 657.945 639.124 656.535 640.534L659.363 643.363ZM654.225 647.573C656.17 646.371 657.85 644.876 659.363 643.363L656.535 640.534C655.125 641.944 653.694 643.199 652.123 644.17L654.225 647.573ZM721.774 696.427C719.829 697.628 718.149 699.124 716.637 700.636L719.465 703.465C720.875 702.055 722.306 700.8 723.877 699.83L721.774 696.427ZM659.363 700.636C657.85 699.124 656.17 697.628 654.225 696.426L652.123 699.829C653.694 700.8 655.125 702.055 656.535 703.465L659.363 700.636ZM663.573 705.775C662.372 703.829 660.876 702.149 659.363 700.636L656.535 703.465C657.945 704.875 659.2 706.306 660.17 707.877L663.573 705.775ZM716.637 643.363C718.149 644.875 719.829 646.371 721.774 647.572L723.877 644.169C722.306 643.199 720.875 641.944 719.465 640.534L716.637 643.363ZM685.244 723.999C683.66 723.999 682.208 723.868 680.893 723.447L679.672 727.256C681.552 727.859 683.473 727.999 685.244 727.999V723.999ZM712.427 638.225C713.629 640.17 715.124 641.85 716.637 643.363L719.465 640.534C718.055 639.125 716.801 637.694 715.83 636.123L712.427 638.225ZM690.756 727.999C692.527 727.999 694.448 727.859 696.328 727.256L695.107 723.447C693.792 723.868 692.34 723.999 690.756 723.999V727.999Z" fill="currentColor"/>
</g>
<g opacity="0.5">
<path d="M698.05 688.95C701.22 690.263 704.781 690.263 707.95 688.95C711.119 687.637 713.637 685.119 714.95 681.95C716.263 678.78 716.263 675.22 714.95 672.05C713.637 668.881 711.119 666.363 707.95 665.05C704.781 663.737 701.22 663.737 698.05 665.05C694.881 666.363 692.363 668.881 691.05 672.05C689.738 675.22 689.738 678.78 691.05 681.95C692.363 685.119 694.881 687.637 698.05 688.95Z" fill="currentColor"/>
</g>
<g opacity="0.5">
<path d="M665.172 677.828C666.983 678.579 669.017 678.579 670.828 677.828C672.639 677.078 674.078 675.639 674.828 673.828C675.579 672.017 675.579 669.983 674.828 668.172C674.078 666.361 672.639 664.922 670.828 664.172C669.017 663.421 666.983 663.421 665.172 664.172C663.361 664.922 661.922 666.361 661.172 668.172C660.421 669.983 660.421 672.017 661.172 673.828C661.922 675.639 663.361 677.078 665.172 677.828Z" fill="currentColor"/>
</g>
<g opacity="0.5">
<path d="M687.586 651.414C688.491 651.789 689.509 651.789 690.414 651.414C691.32 651.039 692.039 650.32 692.414 649.414C692.789 648.509 692.789 647.491 692.414 646.586C692.039 645.68 691.32 644.961 690.414 644.586C689.509 644.211 688.491 644.211 687.586 644.586C686.68 644.961 685.961 645.68 685.586 646.586C685.211 647.491 685.211 648.509 685.586 649.414C685.961 650.32 686.68 651.039 687.586 651.414Z" fill="currentColor"/>
</g>
<path fill-rule="evenodd" clip-rule="evenodd" d="M871.718 725.351C870.12 725.864 868.434 725.999 866.756 725.999H861.244C859.566 725.999 857.88 725.864 856.282 725.351C850.927 723.635 846.06 720.082 842.731 714.692L837.872 706.826C836.786 705.068 835.41 703.512 833.949 702.051C832.488 700.589 830.932 699.214 829.174 698.128L821.308 693.269C805.492 683.5 805.492 660.499 821.308 650.73L829.174 645.871C830.932 644.785 832.488 643.41 833.949 641.949C835.41 640.487 836.786 638.932 837.872 637.173L842.731 629.307C852.5 613.491 875.5 613.491 885.269 629.307L890.129 637.174C891.215 638.932 892.59 640.487 894.051 641.949C895.512 643.41 897.067 644.785 898.826 645.871L906.692 650.73C922.508 660.499 922.508 683.5 906.692 693.269L898.826 698.128C897.067 699.214 895.512 700.589 894.051 702.05C892.59 703.512 891.215 705.067 890.129 706.825L885.269 714.692C881.94 720.082 877.073 723.635 871.718 725.351ZM883.95 688.949C880.781 690.262 877.22 690.262 874.05 688.949C870.881 687.637 868.363 685.119 867.05 681.949C865.738 678.78 865.738 675.219 867.05 672.05C868.363 668.881 870.881 666.363 874.05 665.05C877.22 663.737 880.781 663.737 883.95 665.05C887.119 666.363 889.637 668.881 890.95 672.05C892.263 675.219 892.263 678.78 890.95 681.949C889.637 685.119 887.119 687.637 883.95 688.949ZM841.172 677.828C842.983 678.578 845.018 678.578 846.829 677.828C848.64 677.078 850.078 675.639 850.829 673.828C851.579 672.017 851.579 669.982 850.829 668.171C850.078 666.36 848.64 664.921 846.829 664.171C845.018 663.421 842.983 663.421 841.172 664.171C839.361 664.921 837.922 666.36 837.172 668.171C836.422 669.982 836.422 672.017 837.172 673.828C837.922 675.639 839.361 677.078 841.172 677.828ZM866.414 651.414C865.509 651.789 864.491 651.789 863.586 651.414C862.68 651.039 861.961 650.319 861.586 649.414C861.211 648.508 861.211 647.491 861.586 646.585C861.961 645.68 862.68 644.96 863.586 644.585C864.491 644.21 865.509 644.21 866.414 644.585C867.32 644.96 868.039 645.68 868.414 646.585C868.789 647.491 868.789 648.508 868.414 649.414C868.039 650.319 867.32 651.039 866.414 651.414Z" fill="#FFA500"/>
<path d="M842.731 714.692L844.432 713.641L842.731 714.692ZM821.308 693.269L820.257 694.971L821.308 693.269ZM821.308 650.73L822.359 652.432L821.308 650.73ZM842.731 629.307L844.432 630.358L842.731 629.307ZM885.269 629.307L883.568 630.358V630.358L885.269 629.307ZM906.692 650.73L905.641 652.432L906.692 650.73ZM906.692 693.269L905.641 691.567V691.567L906.692 693.269ZM885.269 714.692L883.568 713.641L885.269 714.692ZM874.05 688.949L874.816 687.102V687.102L874.05 688.949ZM883.95 688.949L883.184 687.102V687.102L883.95 688.949ZM867.05 681.949L868.898 681.184V681.184L867.05 681.949ZM867.05 672.05L868.898 672.815L867.05 672.05ZM874.05 665.05L874.816 666.898L874.05 665.05ZM883.95 665.05L883.184 666.898L883.95 665.05ZM890.95 672.05L892.798 671.284L892.798 671.284L890.95 672.05ZM890.95 681.949L892.798 682.715L890.95 681.949ZM841.172 677.828L841.937 675.98L841.172 677.828ZM850.829 673.828L852.676 674.593V674.593L850.829 673.828ZM850.829 668.171L852.676 667.406V667.406L850.829 668.171ZM841.172 664.171L841.937 666.019L841.172 664.171ZM837.172 673.828L835.324 674.593L837.172 673.828ZM863.586 651.414L862.82 653.262L862.821 653.262L863.586 651.414ZM861.586 649.414L863.434 648.648L861.586 649.414ZM868.414 649.414L866.567 648.648L868.414 649.414ZM829.174 698.128L828.123 699.829L829.174 698.128ZM837.872 706.826L836.17 707.877L837.872 706.826ZM890.129 637.174L888.427 638.225L890.129 637.174ZM871.718 725.351L872.328 727.256L871.718 725.351ZM866.756 723.999H861.244V727.999H866.756V723.999ZM841.029 715.743C844.619 721.554 849.88 725.4 855.672 727.256L856.893 723.447C851.973 721.87 847.502 718.61 844.432 713.641L841.029 715.743ZM836.17 707.877L841.029 715.743L844.432 713.641L839.573 705.775L836.17 707.877ZM820.257 694.971L828.123 699.829L830.225 696.426L822.359 691.567L820.257 694.971ZM820.257 649.029C803.176 659.579 803.176 684.42 820.257 694.971L822.359 691.567C807.808 682.58 807.808 661.419 822.359 652.432L820.257 649.029ZM828.123 644.17L820.257 649.029L822.359 652.432L830.225 647.573L828.123 644.17ZM841.029 628.256L836.17 636.122L839.573 638.224L844.432 630.358L841.029 628.256ZM886.971 628.256C876.42 611.175 851.58 611.175 841.029 628.256L844.432 630.358C853.42 615.808 874.58 615.808 883.568 630.358L886.971 628.256ZM891.83 636.123L886.971 628.256L883.568 630.358L888.427 638.225L891.83 636.123ZM907.743 649.029L899.877 644.169L897.774 647.572L905.641 652.432L907.743 649.029ZM907.743 694.971C924.825 684.42 924.825 659.579 907.743 649.029L905.641 652.432C920.192 661.419 920.192 682.58 905.641 691.567L907.743 694.971ZM899.877 699.83L907.743 694.971L905.641 691.567L897.774 696.427L899.877 699.83ZM886.971 715.743L891.83 707.876L888.427 705.774L883.568 713.641L886.971 715.743ZM872.328 727.256C878.12 725.4 883.381 721.554 886.971 715.743L883.568 713.641C880.498 718.61 876.027 721.87 871.107 723.447L872.328 727.256ZM873.285 690.797C876.944 692.313 881.056 692.313 884.715 690.797L883.184 687.102C880.505 688.211 877.495 688.211 874.816 687.102L873.285 690.797ZM865.203 682.715C866.718 686.374 869.626 689.281 873.285 690.797L874.816 687.102C872.136 685.992 870.008 683.863 868.898 681.184L865.203 682.715ZM865.203 671.284C863.687 674.944 863.687 679.055 865.203 682.715L868.898 681.184C867.788 678.505 867.788 675.494 868.898 672.815L865.203 671.284ZM873.285 663.202C869.626 664.718 866.718 667.625 865.203 671.284L868.898 672.815C870.008 670.136 872.136 668.007 874.816 666.898L873.285 663.202ZM884.715 663.202C881.056 661.686 876.944 661.686 873.285 663.202L874.816 666.898C877.495 665.788 880.505 665.788 883.184 666.898L884.715 663.202ZM892.798 671.284C891.282 667.625 888.375 664.718 884.715 663.202L883.184 666.898C885.864 668.007 887.992 670.136 889.102 672.815L892.798 671.284ZM892.798 682.715C894.313 679.055 894.313 674.944 892.798 671.284L889.102 672.815C890.212 675.494 890.212 678.505 889.102 681.184L892.798 682.715ZM884.715 690.797C888.375 689.281 891.282 686.374 892.798 682.715L889.102 681.184C887.992 683.863 885.864 685.992 883.184 687.102L884.715 690.797ZM846.063 675.98C844.742 676.527 843.258 676.527 841.937 675.98L840.406 679.676C842.707 680.629 845.293 680.629 847.594 679.676L846.063 675.98ZM848.981 673.063C848.434 674.384 847.384 675.433 846.063 675.98L847.594 679.676C849.895 678.723 851.723 676.894 852.676 674.593L848.981 673.063ZM848.981 668.936C849.528 670.257 849.528 671.742 848.981 673.063L852.676 674.593C853.629 672.292 853.629 669.707 852.676 667.406L848.981 668.936ZM846.063 666.019C847.384 666.566 848.434 667.616 848.981 668.936L852.676 667.406C851.723 665.105 849.895 663.276 847.594 662.323L846.063 666.019ZM841.937 666.019C843.258 665.472 844.742 665.472 846.063 666.019L847.594 662.323C845.293 661.37 842.707 661.37 840.406 662.323L841.937 666.019ZM839.019 668.936C839.567 667.616 840.616 666.566 841.937 666.019L840.406 662.323C838.105 663.276 836.277 665.105 835.324 667.406L839.019 668.936ZM839.019 673.063C838.472 671.742 838.472 670.257 839.019 668.936L835.324 667.406C834.371 669.707 834.371 672.292 835.324 674.593L839.019 673.063ZM841.937 675.98C840.616 675.433 839.567 674.384 839.019 673.063L835.324 674.593C836.277 676.894 838.105 678.723 840.406 679.676L841.937 675.98ZM862.821 653.262C864.216 653.84 865.784 653.84 867.18 653.262L865.649 649.566C865.233 649.738 864.767 649.738 864.351 649.566L862.821 653.262ZM859.738 650.179C860.316 651.575 861.425 652.683 862.82 653.262L864.351 649.566C863.936 649.394 863.606 649.064 863.434 648.648L859.738 650.179ZM859.738 645.82C859.16 647.216 859.16 648.784 859.738 650.179L863.434 648.648C863.262 648.233 863.262 647.766 863.434 647.351L859.738 645.82ZM862.821 642.738C861.425 643.316 860.316 644.424 859.738 645.82L863.434 647.351C863.606 646.935 863.936 646.605 864.351 646.433L862.821 642.738ZM867.18 642.738C865.784 642.16 864.216 642.16 862.821 642.738L864.351 646.433C864.767 646.261 865.233 646.261 865.649 646.433L867.18 642.738ZM870.262 645.82C869.684 644.424 868.575 643.316 867.18 642.738L865.649 646.433C866.064 646.605 866.394 646.935 866.567 647.351L870.262 645.82ZM870.262 650.179C870.84 648.784 870.84 647.216 870.262 645.82L866.567 647.351C866.739 647.766 866.739 648.233 866.567 648.648L870.262 650.179ZM867.18 653.262C868.575 652.683 869.684 651.575 870.262 650.179L866.567 648.648C866.394 649.064 866.064 649.394 865.649 649.566L867.18 653.262ZM892.637 700.636C891.124 702.149 889.629 703.829 888.427 705.774L891.83 707.876C892.801 706.305 894.055 704.875 895.465 703.465L892.637 700.636ZM835.363 643.363C836.876 641.85 838.372 640.17 839.573 638.224L836.17 636.122C835.2 637.693 833.945 639.124 832.535 640.534L835.363 643.363ZM830.225 647.573C832.17 646.371 833.85 644.876 835.363 643.363L832.535 640.534C831.125 641.944 829.694 643.199 828.123 644.17L830.225 647.573ZM897.774 696.427C895.829 697.628 894.149 699.124 892.637 700.636L895.465 703.465C896.875 702.055 898.306 700.8 899.877 699.83L897.774 696.427ZM835.363 700.636C833.85 699.124 832.17 697.628 830.225 696.426L828.123 699.829C829.694 700.8 831.125 702.055 832.535 703.465L835.363 700.636ZM839.573 705.775C838.372 703.829 836.876 702.149 835.363 700.636L832.535 703.465C833.945 704.875 835.2 706.306 836.17 707.877L839.573 705.775ZM892.637 643.363C894.149 644.875 895.829 646.371 897.774 647.572L899.877 644.169C898.306 643.199 896.875 641.944 895.465 640.534L892.637 643.363ZM861.244 723.999C859.66 723.999 858.208 723.868 856.893 723.447L855.672 727.256C857.552 727.859 859.473 727.999 861.244 727.999V723.999ZM888.427 638.225C889.629 640.17 891.124 641.85 892.637 643.363L895.465 640.534C894.055 639.125 892.801 637.694 891.83 636.123L888.427 638.225ZM866.756 727.999C868.527 727.999 870.448 727.859 872.328 727.256L871.107 723.447C869.792 723.868 868.34 723.999 866.756 723.999V727.999Z" fill="#FFA500"/>
<path d="M874.05 688.95C877.22 690.263 880.781 690.263 883.95 688.95C887.119 687.637 889.637 685.119 890.95 681.95C892.263 678.78 892.263 675.22 890.95 672.05C889.637 668.881 887.119 666.363 883.95 665.05C880.781 663.737 877.22 663.737 874.05 665.05C870.881 666.363 868.363 668.881 867.05 672.05C865.738 675.22 865.738 678.78 867.05 681.95C868.363 685.119 870.881 687.637 874.05 688.95Z" fill="#DC143C"/>
<path d="M841.172 677.828C842.983 678.579 845.017 678.579 846.828 677.828C848.639 677.078 850.078 675.639 850.828 673.828C851.579 672.017 851.579 669.983 850.828 668.172C850.078 666.361 848.639 664.922 846.828 664.172C845.017 663.421 842.983 663.421 841.172 664.172C839.361 664.922 837.922 666.361 837.172 668.172C836.421 669.983 836.421 672.017 837.172 673.828C837.922 675.639 839.361 677.078 841.172 677.828Z" fill="#DC143C"/>
<path d="M863.586 651.414C864.491 651.789 865.509 651.789 866.414 651.414C867.32 651.039 868.039 650.32 868.414 649.414C868.789 648.509 868.789 647.491 868.414 646.586C868.039 645.68 867.32 644.961 866.414 644.586C865.509 644.211 864.491 644.211 863.586 644.586C862.68 644.961 861.961 645.68 861.586 646.586C861.211 647.491 861.211 648.509 861.586 649.414C861.961 650.32 862.68 651.039 863.586 651.414Z" fill="#DC143C"/>
</svg>
