<svg viewBox="0 0 1024 768" fill="none" xmlns="http://www.w3.org/2000/svg">
<path d="M424 36L424.023 95.9446L466.426 53.5736L424.055 95.977L484 96L424.055 96.023L466.426 138.426L424.023 96.0554L424 156L423.977 96.0554L381.574 138.426L423.945 96.023L364 96L423.945 95.977L381.574 53.5736L423.977 95.9446L424 36Z" stroke="#7B61FF" stroke-width="2" stroke-linecap="round" stroke-linejoin="round"/>
<path d="M578.787 147.213C592.369 152.839 607.631 152.839 621.213 147.213V147.213C634.796 141.587 645.587 130.796 651.213 117.213V117.213C656.839 103.631 656.839 88.3694 651.213 74.7868V74.7868C645.587 61.2042 634.796 50.4129 621.213 44.7868V44.7868C607.631 39.1607 592.369 39.1607 578.787 44.7868V44.7868C565.204 50.4129 554.413 61.2042 548.787 74.7868V74.7868C543.161 88.3694 543.161 103.631 548.787 117.213V117.213C554.413 130.796 565.204 141.587 578.787 147.213V147.213Z" stroke="#7B61FF" stroke-width="2" stroke-linecap="round" stroke-linejoin="round"/>
<path fill-rule="evenodd" clip-rule="evenodd" d="M522 233.996C521.998 228.475 517.521 224 512 224C506.479 224 502.002 228.475 502 233.996V234.004L501.981 282.868C508.644 282.208 515.356 282.208 522.019 282.868L522 234.004V233.996ZM576.427 305.405C581.604 309.649 586.351 314.396 590.595 319.573L625.134 285.008L625.14 285.002C629.043 281.097 629.041 274.767 625.137 270.863C621.233 266.959 614.903 266.958 610.998 270.86L610.992 270.866L576.427 305.405ZM613.132 373.981C613.792 380.644 613.792 387.356 613.132 394.019L661.996 394H662.004C667.525 393.998 672 389.521 672 384C672 378.479 667.525 374.002 662.004 374H661.996L613.132 373.981ZM590.595 448.427C586.351 453.604 581.604 458.351 576.427 462.595L610.992 497.134L610.998 497.14C614.903 501.043 621.233 501.041 625.137 497.137C629.041 493.233 629.043 486.903 625.14 482.998L625.134 482.992L590.595 448.427ZM522.019 485.132C515.356 485.792 508.644 485.792 501.981 485.132L502 533.996V534.004C502.002 539.525 506.479 544 512 544C517.521 544 521.998 539.525 522 534.004V533.996L522.019 485.132ZM447.573 462.595C442.396 458.351 437.649 453.604 433.405 448.427L398.866 482.992L398.86 482.998C394.958 486.903 394.959 493.233 398.863 497.137C402.767 501.041 409.097 501.043 413.002 497.14L413.008 497.134L447.573 462.595ZM410.868 394.019C410.208 387.356 410.208 380.644 410.868 373.981L362.004 374H361.996C356.475 374.002 352 378.479 352 384C352 389.521 356.475 393.998 361.996 394H362.004L410.868 394.019ZM433.405 319.573C437.649 314.396 442.396 309.649 447.573 305.405L413.008 270.866L413.002 270.86C409.097 266.958 402.767 266.959 398.863 270.863C394.959 274.767 394.958 281.097 398.86 285.002L398.866 285.008L433.405 319.573Z" fill="#888888" fill-opacity="0.5"/>
<path d="M522 233.996H527V233.994L522 233.996ZM502 233.996L497 233.994V233.996H502ZM502 234.004L507 234.006V234.004H502ZM501.981 282.868L496.981 282.866C496.981 284.278 497.577 285.625 498.624 286.573C499.67 287.521 501.069 287.983 502.474 287.844L501.981 282.868ZM522.019 282.868L521.526 287.844C522.931 287.983 524.33 287.521 525.376 286.573C526.423 285.625 527.019 284.278 527.019 282.866L522.019 282.868ZM522 234.004H517V234.006L522 234.004ZM576.427 305.405L572.893 301.868C571.894 302.866 571.363 304.24 571.433 305.65C571.502 307.061 572.165 308.376 573.257 309.271L576.427 305.405ZM590.595 319.573L586.729 322.743C587.624 323.835 588.939 324.498 590.35 324.567C591.76 324.637 593.134 324.106 594.132 323.107L590.595 319.573ZM625.134 285.008L621.604 281.467L621.598 281.474L625.134 285.008ZM625.14 285.002L628.67 288.543L628.677 288.537L625.14 285.002ZM625.137 270.863L628.673 267.327L628.673 267.327L625.137 270.863ZM610.998 270.86L614.528 274.401L614.532 274.397L610.998 270.86ZM610.992 270.866L607.462 267.325L607.458 267.329L610.992 270.866ZM613.132 373.981L613.134 368.981C611.722 368.981 610.375 369.577 609.427 370.624C608.479 371.67 608.017 373.069 608.156 374.474L613.132 373.981ZM613.132 394.019L608.156 393.526C608.017 394.931 608.479 396.33 609.427 397.376C610.375 398.423 611.722 399.019 613.134 399.019L613.132 394.019ZM661.996 394V389H661.994L661.996 394ZM662.004 394V399H662.006L662.004 394ZM662.004 374L662.006 369H662.004V374ZM661.996 374L661.994 379H661.996V374ZM590.595 448.427L594.132 444.893C593.134 443.894 591.76 443.363 590.35 443.433C588.939 443.502 587.624 444.165 586.729 445.257L590.595 448.427ZM576.427 462.595L573.257 458.729C572.165 459.624 571.502 460.939 571.433 462.35C571.363 463.76 571.894 465.134 572.893 466.132L576.427 462.595ZM610.992 497.134L614.528 493.599L614.526 493.598L610.992 497.134ZM610.998 497.14L607.462 500.675L607.464 500.677L610.998 497.14ZM625.137 497.137L628.673 500.673L628.673 500.673L625.137 497.137ZM625.14 482.998L628.677 479.464L628.675 479.462L625.14 482.998ZM625.134 482.992L621.598 486.526L621.599 486.528L625.134 482.992ZM522.019 485.132L527.019 485.134C527.019 483.722 526.423 482.375 525.376 481.427C524.33 480.479 522.931 480.017 521.526 480.156L522.019 485.132ZM501.981 485.132L502.474 480.156C501.069 480.017 499.67 480.479 498.624 481.427C497.577 482.375 496.981 483.722 496.981 485.134L501.981 485.132ZM502 533.996H507V533.994L502 533.996ZM502 534.004H497V534.006L502 534.004ZM522 534.004L527 534.006V534.004H522ZM522 533.996L517 533.994V533.996H522ZM447.573 462.595L451.107 466.132C452.106 465.134 452.637 463.76 452.567 462.35C452.498 460.939 451.835 459.624 450.743 458.729L447.573 462.595ZM433.405 448.427L437.271 445.257C436.376 444.165 435.061 443.502 433.65 443.433C432.24 443.363 430.866 443.894 429.868 444.893L433.405 448.427ZM398.866 482.992L395.329 479.458L395.325 479.462L398.866 482.992ZM398.86 482.998L402.397 486.532L402.401 486.528L398.86 482.998ZM398.863 497.137L395.327 500.673L395.327 500.673L398.863 497.137ZM413.002 497.14L416.537 500.677L416.543 500.67L413.002 497.14ZM413.008 497.134L409.474 493.598L409.467 493.604L413.008 497.134ZM410.868 394.019L410.866 399.019C412.278 399.019 413.625 398.423 414.573 397.376C415.521 396.33 415.983 394.931 415.844 393.526L410.868 394.019ZM410.868 373.981L415.844 374.474C415.983 373.069 415.521 371.67 414.573 370.624C413.625 369.577 412.278 368.981 410.866 368.981L410.868 373.981ZM362.004 374V379H362.006L362.004 374ZM361.996 374V369H361.994L361.996 374ZM361.996 394L361.994 399H361.996V394ZM362.004 394L362.006 389H362.004V394ZM433.405 319.573L429.868 323.107C430.866 324.106 432.24 324.637 433.65 324.567C435.061 324.498 436.376 323.835 437.271 322.743L433.405 319.573ZM447.573 305.405L450.743 309.271C451.835 308.376 452.498 307.061 452.567 305.65C452.637 304.24 452.106 302.866 451.107 301.868L447.573 305.405ZM413.008 270.866L409.472 274.401L409.474 274.403L413.008 270.866ZM413.002 270.86L416.538 267.325L416.537 267.323L413.002 270.86ZM398.86 285.002L395.323 288.537L395.325 288.538L398.86 285.002ZM398.866 285.008L402.403 281.474L402.401 281.472L398.866 285.008ZM512 229C514.761 229 516.999 231.237 517 233.998L527 233.994C526.997 225.712 520.282 219 512 219V229ZM507 233.998C507.001 231.237 509.239 229 512 229V219C503.718 219 497.003 225.712 497 233.994L507 233.998ZM507 234.004V233.996H497V234.004H507ZM506.981 282.87L507 234.006L497 234.002L496.981 282.866L506.981 282.87ZM502.474 287.844C508.809 287.216 515.191 287.216 521.526 287.844L522.512 277.892C515.521 277.2 508.479 277.2 501.489 277.892L502.474 287.844ZM517 234.006L517.019 282.87L527.019 282.866L527 234.002L517 234.006ZM517 233.996V234.004H527V233.996H517ZM573.257 309.271C578.18 313.307 582.693 317.82 586.729 322.743L594.462 316.403C590.009 310.971 585.029 305.991 579.597 301.538L573.257 309.271ZM621.598 281.474L587.058 316.039L594.132 323.107L628.671 288.542L621.598 281.474ZM621.609 281.462L621.604 281.467L628.665 288.548L628.67 288.543L621.609 281.462ZM621.602 274.398C623.554 276.351 623.554 279.515 621.603 281.468L628.677 288.537C634.531 282.678 634.529 273.184 628.673 267.327L621.602 274.398ZM614.532 274.397C616.485 272.446 619.649 272.446 621.602 274.398L628.673 267.327C622.816 261.471 613.322 261.469 607.464 267.323L614.532 274.397ZM614.523 274.406L614.528 274.401L607.467 267.32L607.462 267.325L614.523 274.406ZM579.961 308.942L614.526 274.403L607.458 267.329L572.893 301.868L579.961 308.942ZM608.156 374.474C608.784 380.809 608.784 387.191 608.156 393.526L618.108 394.512C618.8 387.521 618.8 380.479 618.108 373.489L608.156 374.474ZM661.994 389L613.13 389.019L613.134 399.019L661.998 399L661.994 389ZM662.004 389H661.996V399H662.004V389ZM667 384C667 386.761 664.763 388.999 662.002 389L662.006 399C670.288 398.997 677 392.282 677 384H667ZM662.002 379C664.763 379.001 667 381.239 667 384H677C677 375.718 670.288 369.003 662.006 369L662.002 379ZM661.996 379H662.004V369H661.996V379ZM613.13 378.981L661.994 379L661.998 369L613.134 368.981L613.13 378.981ZM586.729 445.257C582.693 450.18 578.18 454.693 573.257 458.729L579.597 466.462C585.029 462.009 590.009 457.029 594.462 451.597L586.729 445.257ZM614.526 493.598L579.961 459.058L572.893 466.132L607.458 500.671L614.526 493.598ZM614.533 493.604L614.528 493.599L607.457 500.67L607.462 500.675L614.533 493.604ZM621.602 493.602C619.649 495.554 616.485 495.554 614.532 493.603L607.464 500.677C613.322 506.531 622.816 506.529 628.673 500.673L621.602 493.602ZM621.603 486.532C623.554 488.485 623.554 491.649 621.602 493.602L628.673 500.673C634.529 494.816 634.531 485.322 628.677 479.464L621.603 486.532ZM621.599 486.528L621.604 486.533L628.675 479.462L628.67 479.457L621.599 486.528ZM587.058 451.961L621.598 486.526L628.671 479.458L594.132 444.893L587.058 451.961ZM521.526 480.156C515.191 480.784 508.809 480.784 502.474 480.156L501.489 490.108C508.479 490.8 515.521 490.8 522.512 490.108L521.526 480.156ZM507 533.994L506.981 485.13L496.981 485.134L497 533.998L507 533.994ZM507 534.004V533.996H497V534.004H507ZM512 539C509.239 539 507.001 536.763 507 534.002L497 534.006C497.003 542.288 503.718 549 512 549V539ZM517 534.002C516.999 536.763 514.761 539 512 539V549C520.282 549 526.997 542.288 527 534.006L517 534.002ZM517 533.996V534.004H527V533.996H517ZM517.019 485.13L517 533.994L527 533.998L527.019 485.134L517.019 485.13ZM450.743 458.729C445.82 454.693 441.307 450.18 437.271 445.257L429.538 451.597C433.991 457.029 438.971 462.009 444.403 466.462L450.743 458.729ZM402.403 486.526L436.942 451.961L429.868 444.893L395.329 479.458L402.403 486.526ZM402.401 486.528L402.406 486.523L395.325 479.462L395.32 479.467L402.401 486.528ZM402.398 493.602C400.446 491.649 400.446 488.485 402.397 486.532L395.323 479.464C389.469 485.322 389.471 494.816 395.327 500.673L402.398 493.602ZM409.468 493.603C407.515 495.554 404.351 495.554 402.398 493.602L395.327 500.673C401.184 506.529 410.678 506.531 416.537 500.677L409.468 493.603ZM409.467 493.604L409.462 493.609L416.543 500.67L416.548 500.665L409.467 493.604ZM444.039 459.058L409.474 493.598L416.542 500.671L451.107 466.132L444.039 459.058ZM415.844 393.526C415.216 387.191 415.216 380.809 415.844 374.474L405.892 373.489C405.2 380.479 405.2 387.521 405.892 394.512L415.844 393.526ZM362.006 379L410.87 378.981L410.866 368.981L362.002 369L362.006 379ZM361.996 379H362.004V369H361.996V379ZM357 384C357 381.239 359.237 379.001 361.998 379L361.994 369C353.712 369.003 347 375.718 347 384H357ZM361.998 389C359.237 388.999 357 386.761 357 384H347C347 392.282 353.712 398.997 361.994 399L361.998 389ZM362.004 389H361.996V399H362.004V389ZM410.87 389.019L362.006 389L362.002 399L410.866 399.019L410.87 389.019ZM437.271 322.743C441.307 317.82 445.82 313.307 450.743 309.271L444.403 301.538C438.971 305.991 433.991 310.971 429.538 316.403L437.271 322.743ZM409.474 274.403L444.039 308.942L451.107 301.868L416.542 267.329L409.474 274.403ZM409.467 274.396L409.472 274.401L416.543 267.33L416.538 267.325L409.467 274.396ZM402.398 274.398C404.351 272.446 407.515 272.446 409.468 274.397L416.537 267.323C410.678 261.469 401.184 261.471 395.327 267.327L402.398 274.398ZM402.397 281.468C400.446 279.515 400.446 276.351 402.398 274.398L395.327 267.327C389.471 273.184 389.469 282.678 395.323 288.537L402.397 281.468ZM402.401 281.472L402.396 281.467L395.325 288.538L395.33 288.543L402.401 281.472ZM436.942 316.039L402.403 281.474L395.329 288.542L429.868 323.107L436.942 316.039Z" fill="currentColor"/>
<path d="M489.019 439.481C503.734 445.576 520.267 445.576 534.981 439.481C549.695 433.386 561.386 421.695 567.481 406.981C573.576 392.266 573.576 375.733 567.481 361.019C561.386 346.305 549.695 334.614 534.981 328.519C520.267 322.424 503.734 322.424 489.019 328.519C474.305 334.614 462.614 346.305 456.519 361.019C450.424 375.733 450.424 392.266 456.519 406.981C462.614 421.695 474.305 433.386 489.019 439.481Z" fill="#888888" fill-opacity="0.5" stroke="currentColor" stroke-width="10" stroke-linecap="round" stroke-linejoin="round"/>
<g opacity="0.25">
<path d="M512 234L512.057 383.861L618.066 277.934L512.139 383.943L662 384L512.139 384.057L618.066 490.066L512.057 384.139L512 534L511.943 384.139L405.934 490.066L511.861 384.057L362 384L511.861 383.943L405.934 277.934L511.943 383.861L512 234Z" stroke="currentColor" stroke-width="2.5" stroke-linecap="round" stroke-linejoin="round"/>
<path d="M550.891 477.891C525.989 488.205 498.011 488.205 473.109 477.891V477.891C448.208 467.576 428.424 447.792 418.109 422.891V422.891C407.795 397.989 407.795 370.011 418.109 345.109V345.109C428.424 320.208 448.208 300.424 473.109 290.109V290.109C498.011 279.795 525.989 279.795 550.891 290.109V290.109C575.792 300.424 595.576 320.208 605.891 345.109V345.109C616.205 370.011 616.205 397.989 605.891 422.891V422.891C595.576 447.792 575.792 467.576 550.891 477.891V477.891Z" stroke="currentColor" stroke-width="2.5" stroke-linecap="round" stroke-linejoin="round"/>
<path d="M489.019 439.481C503.734 445.576 520.267 445.576 534.981 439.481V439.481C549.695 433.386 561.386 421.695 567.481 406.981V406.981C573.576 392.266 573.576 375.733 567.481 361.019V361.019C561.386 346.305 549.695 334.614 534.981 328.519V328.519C520.267 322.424 503.734 322.424 489.019 328.519V328.519C474.305 334.614 462.614 346.305 456.519 361.019V361.019C450.424 375.733 450.424 392.266 456.519 406.981V406.981C462.614 421.695 474.305 433.386 489.019 439.481V439.481Z" stroke="currentColor" stroke-width="2.5" stroke-linecap="round" stroke-linejoin="round"/>
</g>
<path d="M164 611.998H165V611.998L164 611.998ZM156 611.998L155 611.998V611.998H156ZM156 612.002L157 612.002V612.002H156ZM155.993 631.547L154.993 631.547C154.992 631.829 155.112 632.099 155.321 632.288C155.53 632.478 155.81 632.57 156.091 632.542L155.993 631.547ZM164.007 631.547L163.909 632.542C164.19 632.57 164.47 632.478 164.679 632.288C164.888 632.099 165.008 631.829 165.007 631.547L164.007 631.547ZM164 612.002H163V612.002L164 612.002ZM185.771 640.562L185.064 639.854C184.864 640.054 184.758 640.329 184.772 640.611C184.786 640.893 184.918 641.156 185.137 641.335L185.771 640.562ZM191.438 646.229L190.665 646.863C190.844 647.082 191.107 647.214 191.389 647.228C191.671 647.242 191.946 647.136 192.146 646.936L191.438 646.229ZM205.254 632.403L204.547 631.696L204.546 631.696L205.254 632.403ZM205.256 632.401L205.963 633.108L205.963 633.108L205.256 632.401ZM205.255 626.745L205.962 626.038V626.038L205.255 626.745ZM199.599 626.744L198.892 626.037L198.892 626.037L199.599 626.744ZM199.597 626.746L200.304 627.454L200.304 627.453L199.597 626.746ZM200.453 667.993L200.453 666.993C200.171 666.992 199.901 667.112 199.712 667.321C199.522 667.53 199.43 667.81 199.458 668.091L200.453 667.993ZM200.453 676.007L199.458 675.909C199.43 676.19 199.522 676.47 199.712 676.679C199.901 676.888 200.171 677.008 200.453 677.007L200.453 676.007ZM219.998 676V675H219.998L219.998 676ZM220.002 676V677H220.002L220.002 676ZM220.002 668L220.002 667H220.002V668ZM219.998 668L219.998 669H219.998V668ZM191.438 697.771L192.146 697.064C191.946 696.864 191.671 696.758 191.389 696.772C191.107 696.786 190.844 696.918 190.665 697.137L191.438 697.771ZM185.771 703.438L185.137 702.665C184.918 702.844 184.786 703.107 184.772 703.389C184.758 703.671 184.864 703.946 185.064 704.146L185.771 703.438ZM199.597 717.254L200.304 716.547L200.304 716.546L199.597 717.254ZM199.599 717.256L198.892 717.963L198.892 717.963L199.599 717.256ZM205.255 717.255L205.962 717.962L205.255 717.255ZM205.256 711.599L205.963 710.892L205.963 710.892L205.256 711.599ZM205.254 711.597L204.546 712.304L204.547 712.304L205.254 711.597ZM164.007 712.453L165.007 712.453C165.008 712.171 164.888 711.901 164.679 711.712C164.47 711.522 164.19 711.43 163.909 711.458L164.007 712.453ZM155.993 712.453L156.091 711.458C155.81 711.43 155.53 711.522 155.321 711.712C155.112 711.901 154.992 712.171 154.993 712.453L155.993 712.453ZM156 731.998H157V731.998L156 731.998ZM156 732.002H155V732.002L156 732.002ZM164 732.002L165 732.002V732.002H164ZM164 731.998L163 731.998V731.998H164ZM134.229 703.438L134.936 704.146C135.136 703.946 135.242 703.671 135.228 703.389C135.214 703.107 135.082 702.844 134.863 702.665L134.229 703.438ZM128.562 697.771L129.335 697.137C129.156 696.918 128.893 696.786 128.611 696.772C128.329 696.758 128.054 696.864 127.854 697.064L128.562 697.771ZM114.746 711.597L115.453 712.304L115.454 712.304L114.746 711.597ZM114.744 711.599L114.037 710.892L114.037 710.892L114.744 711.599ZM114.745 717.255L114.038 717.962H114.038L114.745 717.255ZM120.401 717.256L121.108 717.963L121.108 717.963L120.401 717.256ZM120.403 717.254L119.696 716.546L119.696 716.547L120.403 717.254ZM119.547 676.007L119.547 677.007C119.829 677.008 120.099 676.888 120.288 676.679C120.478 676.47 120.57 676.19 120.542 675.909L119.547 676.007ZM119.547 667.993L120.542 668.091C120.57 667.81 120.478 667.53 120.288 667.321C120.099 667.112 119.829 666.992 119.547 666.993L119.547 667.993ZM100.002 668V669H100.002L100.002 668ZM99.9985 668V667H99.9981L99.9985 668ZM99.9985 676L99.9981 677H99.9985V676ZM100.002 676L100.002 675H100.002V676ZM128.562 646.229L127.854 646.936C128.054 647.136 128.329 647.242 128.611 647.228C128.893 647.214 129.156 647.082 129.335 646.863L128.562 646.229ZM134.229 640.562L134.863 641.335C135.082 641.156 135.214 640.893 135.228 640.611C135.242 640.329 135.136 640.054 134.936 639.854L134.229 640.562ZM120.403 626.746L119.696 627.453L119.696 627.454L120.403 626.746ZM120.401 626.744L121.108 626.037L121.108 626.037L120.401 626.744ZM114.745 626.745L115.452 627.452L115.452 627.452L114.745 626.745ZM114.744 632.401L114.037 633.108L114.037 633.108L114.744 632.401ZM114.746 632.403L115.454 631.696L115.453 631.696L114.746 632.403ZM160 609C161.656 609 162.999 610.342 163 611.999L165 611.998C164.999 609.237 162.761 607 160 607V609ZM157 611.999C157.001 610.342 158.344 609 160 609V607C157.239 607 155.001 609.237 155 611.998L157 611.999ZM157 612.002V611.998H155V612.002H157ZM156.993 631.548L157 612.002L155 612.001L154.993 631.547L156.993 631.548ZM156.091 632.542C158.691 632.285 161.309 632.285 163.909 632.542L164.106 630.552C161.375 630.282 158.625 630.282 155.894 630.552L156.091 632.542ZM163 612.002L163.007 631.548L165.007 631.547L165 612.001L163 612.002ZM163 611.998V612.002H165V611.998H163ZM185.137 641.335C187.157 642.991 189.009 644.843 190.665 646.863L192.211 645.595C190.472 643.473 188.527 641.528 186.405 639.789L185.137 641.335ZM204.546 631.696L190.731 645.522L192.146 646.936L205.961 633.11L204.546 631.696ZM204.549 631.694L204.547 631.696L205.961 633.11L205.963 633.108L204.549 631.694ZM204.548 627.452C205.719 628.624 205.719 630.522 204.549 631.694L205.963 633.108C207.915 631.155 207.914 627.99 205.962 626.038L204.548 627.452ZM200.306 627.451C201.478 626.281 203.376 626.281 204.548 627.452L205.962 626.038C204.01 624.086 200.845 624.085 198.892 626.037L200.306 627.451ZM200.304 627.453L200.306 627.451L198.892 626.037L198.89 626.039L200.304 627.453ZM186.478 641.269L200.304 627.454L198.89 626.039L185.064 639.854L186.478 641.269ZM199.458 668.091C199.715 670.691 199.715 673.309 199.458 675.909L201.448 676.106C201.718 673.375 201.718 670.625 201.448 667.894L199.458 668.091ZM219.998 675L200.452 675.007L200.453 677.007L219.999 677L219.998 675ZM220.002 675H219.998V677H220.002V675ZM223 672C223 673.656 221.658 674.999 220.001 675L220.002 677C222.763 676.999 225 674.761 225 672H223ZM220.001 669C221.658 669.001 223 670.344 223 672H225C225 669.239 222.763 667.001 220.002 667L220.001 669ZM219.998 669H220.002V667H219.998V669ZM200.452 668.993L219.998 669L219.999 667L200.453 666.993L200.452 668.993ZM190.665 697.137C189.009 699.157 187.157 701.009 185.137 702.665L186.405 704.211C188.527 702.472 190.472 700.527 192.211 698.405L190.665 697.137ZM200.304 716.546L186.478 702.731L185.064 704.146L198.89 717.961L200.304 716.546ZM200.306 716.549L200.304 716.547L198.89 717.961L198.892 717.963L200.306 716.549ZM204.548 716.548C203.376 717.719 201.478 717.719 200.306 716.549L198.892 717.963C200.845 719.915 204.01 719.914 205.962 717.962L204.548 716.548ZM204.549 712.306C205.719 713.478 205.719 715.376 204.548 716.548L205.962 717.962C207.914 716.01 207.915 712.845 205.963 710.892L204.549 712.306ZM204.547 712.304L204.549 712.306L205.963 710.892L205.961 710.89L204.547 712.304ZM190.731 698.478L204.546 712.304L205.961 710.89L192.146 697.064L190.731 698.478ZM163.909 711.458C161.309 711.715 158.691 711.715 156.091 711.458L155.894 713.448C158.625 713.718 161.375 713.718 164.106 713.448L163.909 711.458ZM157 731.998L156.993 712.452L154.993 712.453L155 731.999L157 731.998ZM157 732.002V731.998H155V732.002H157ZM160 735C158.344 735 157.001 733.658 157 732.001L155 732.002C155.001 734.763 157.239 737 160 737V735ZM163 732.001C162.999 733.658 161.656 735 160 735V737C162.761 737 164.999 734.763 165 732.002L163 732.001ZM163 731.998V732.002H165V731.998H163ZM163.007 712.452L163 731.998L165 731.999L165.007 712.453L163.007 712.452ZM134.863 702.665C132.843 701.009 130.991 699.157 129.335 697.137L127.789 698.405C129.528 700.527 131.473 702.472 133.595 704.211L134.863 702.665ZM115.454 712.304L129.269 698.478L127.854 697.064L114.039 710.89L115.454 712.304ZM115.451 712.306L115.453 712.304L114.039 710.89L114.037 710.892L115.451 712.306ZM115.452 716.548C114.281 715.376 114.281 713.478 115.451 712.306L114.037 710.892C112.085 712.845 112.086 716.01 114.038 717.962L115.452 716.548ZM119.694 716.549C118.522 717.719 116.624 717.719 115.452 716.548L114.038 717.962C115.99 719.914 119.155 719.915 121.108 717.963L119.694 716.549ZM119.696 716.547L119.694 716.549L121.108 717.963L121.11 717.961L119.696 716.547ZM133.522 702.731L119.696 716.546L121.11 717.961L134.936 704.146L133.522 702.731ZM120.542 675.909C120.285 673.309 120.285 670.691 120.542 668.091L118.552 667.894C118.282 670.625 118.282 673.375 118.552 676.106L120.542 675.909ZM100.002 669L119.548 668.993L119.547 666.993L100.001 667L100.002 669ZM99.9985 669H100.002V667H99.9985V669ZM97 672C97 670.344 98.3424 669.001 99.9989 669L99.9981 667C97.2374 667.001 95 669.239 95 672H97ZM99.9989 675C98.3424 674.999 97 673.656 97 672H95C95 674.761 97.2374 676.999 99.9981 677L99.9989 675ZM100.002 675H99.9985V677H100.002V675ZM119.548 675.007L100.002 675L100.001 677L119.547 677.007L119.548 675.007ZM129.335 646.863C130.991 644.843 132.843 642.991 134.863 641.335L133.595 639.789C131.473 641.528 129.528 643.473 127.789 645.595L129.335 646.863ZM119.696 627.454L133.522 641.269L134.936 639.854L121.11 626.039L119.696 627.454ZM119.694 627.451L119.696 627.453L121.11 626.039L121.108 626.037L119.694 627.451ZM115.452 627.452C116.624 626.281 118.522 626.281 119.694 627.451L121.108 626.037C119.155 624.085 115.99 624.086 114.038 626.038L115.452 627.452ZM115.451 631.694C114.281 630.522 114.281 628.624 115.452 627.452L114.038 626.038C112.086 627.99 112.085 631.155 114.037 633.108L115.451 631.694ZM115.453 631.696L115.451 631.694L114.037 633.108L114.039 633.11L115.453 631.696ZM129.269 645.522L115.454 631.696L114.039 633.11L127.854 646.936L129.269 645.522Z" fill="currentColor"/>
<path d="M150.808 694.192C156.693 696.63 163.307 696.63 169.192 694.192V694.192C175.078 691.754 179.754 687.078 182.192 681.192V681.192C184.63 675.307 184.63 668.693 182.192 662.808V662.808C179.754 656.922 175.078 652.246 169.192 649.808V649.808C163.307 647.37 156.693 647.37 150.808 649.808V649.808C144.922 652.246 140.246 656.922 137.808 662.808V662.808C135.37 668.693 135.37 675.307 137.808 681.192V681.192C140.246 687.078 144.922 691.754 150.808 694.192V694.192Z" stroke="currentColor" stroke-width="2" stroke-linecap="round" stroke-linejoin="round"/>
<path fill-rule="evenodd" clip-rule="evenodd" d="M336 604C331.583 604 328.002 607.58 328 611.997L327.993 631.546C327.992 632.675 328.469 633.753 329.307 634.511C330.144 635.27 331.263 635.639 332.387 635.528C334.79 635.29 337.21 635.29 339.613 635.528C340.737 635.639 341.856 635.27 342.693 634.511C343.531 633.753 344.008 632.675 344.007 631.546L344 611.997C343.998 607.58 340.417 604 336 604ZM336 612.003L336.006 627.349H335.994L336 612.003Z" stroke="currentColor" stroke-linecap="round" stroke-linejoin="round"/>
<path fill-rule="evenodd" clip-rule="evenodd" d="M384.083 623.917C380.96 620.793 375.896 620.792 372.772 623.915L358.943 637.732C358.144 638.531 357.72 639.63 357.776 640.758C357.831 641.887 358.361 642.939 359.235 643.655C361.102 645.186 362.814 646.898 364.345 648.765C365.061 649.639 366.113 650.169 367.242 650.224C368.37 650.28 369.469 649.856 370.268 649.057L384.085 635.228C387.208 632.104 387.207 627.04 384.083 623.917ZM367.577 640.431L367.569 640.423L378.424 629.576L367.577 640.431Z" stroke="currentColor" stroke-linecap="round" stroke-linejoin="round"/>
<path fill-rule="evenodd" clip-rule="evenodd" d="M299.228 623.915C296.104 620.792 291.04 620.793 287.917 623.917C284.793 627.04 284.792 632.104 287.915 635.228L301.732 649.057C302.531 649.856 303.63 650.28 304.758 650.224C305.887 650.169 306.939 649.639 307.655 648.765C309.186 646.898 310.898 645.186 312.765 643.655C313.639 642.939 314.169 641.887 314.224 640.758C314.28 639.63 313.856 638.531 313.057 637.732L299.229 623.916L299.228 623.915ZM293.576 629.576L304.431 640.423L304.423 640.431L293.576 629.576Z" stroke="currentColor" stroke-linecap="round" stroke-linejoin="round"/>
<path fill-rule="evenodd" clip-rule="evenodd" d="M295.546 663.993L275.997 664C271.58 664.002 268 667.583 268 672C268 676.417 271.58 679.998 275.997 680L295.546 680.007C296.675 680.008 297.753 679.531 298.511 678.693C299.27 677.856 299.639 676.737 299.528 675.613C299.29 673.21 299.29 670.79 299.528 668.387C299.639 667.263 299.27 666.144 298.511 665.307C297.753 664.469 296.675 663.992 295.546 663.993ZM276.003 672L291.349 671.994V672.006L276.003 672Z" stroke="currentColor" stroke-linecap="round" stroke-linejoin="round"/>
<path fill-rule="evenodd" clip-rule="evenodd" d="M376.454 663.993C375.325 663.992 374.247 664.469 373.489 665.307C372.73 666.144 372.361 667.263 372.472 668.387C372.71 670.79 372.71 673.21 372.472 675.613C372.361 676.737 372.73 677.856 373.489 678.693C374.247 679.531 375.325 680.008 376.454 680.007L396.003 680C400.42 679.998 404 676.417 404 672C404 667.583 400.42 664.002 396.003 664L376.454 663.993ZM395.997 672L380.651 672.006V671.994L395.997 672Z" stroke="currentColor" stroke-linecap="round" stroke-linejoin="round"/>
<path fill-rule="evenodd" clip-rule="evenodd" d="M307.655 695.235C306.939 694.361 305.887 693.831 304.758 693.776C303.63 693.72 302.531 694.144 301.732 694.943L287.915 708.772C284.792 711.896 284.793 716.96 287.917 720.083C291.04 723.207 296.104 723.208 299.228 720.085L313.057 706.268C313.856 705.469 314.28 704.37 314.224 703.242C314.169 702.113 313.639 701.061 312.765 700.345C310.898 698.814 309.186 697.102 307.655 695.235ZM293.576 714.424L304.423 703.569L304.431 703.577L293.576 714.424Z" stroke="currentColor" stroke-linecap="round" stroke-linejoin="round"/>
<path fill-rule="evenodd" clip-rule="evenodd" d="M370.268 694.943C369.469 694.144 368.37 693.72 367.242 693.776C366.113 693.831 365.061 694.361 364.345 695.235C362.814 697.102 361.102 698.814 359.235 700.345C358.361 701.061 357.831 702.113 357.776 703.242C357.72 704.37 358.144 705.469 358.943 706.268L372.768 720.082L372.77 720.083L372.771 720.084L372.772 720.085C375.896 723.208 380.96 723.207 384.083 720.083C387.207 716.96 387.208 711.896 384.085 708.772L384.084 708.771L384.083 708.77L384.082 708.768L370.268 694.943ZM367.569 703.577L367.577 703.569L378.424 714.424L367.569 703.577Z" stroke="currentColor" stroke-linecap="round" stroke-linejoin="round"/>
<path fill-rule="evenodd" clip-rule="evenodd" d="M332.387 708.472C331.263 708.361 330.144 708.73 329.307 709.489C328.469 710.247 327.992 711.325 327.993 712.454L328 732.003C328.002 736.42 331.583 740 336 740C340.417 740 343.998 736.42 344 732.003L344.007 712.454C344.008 711.325 343.531 710.247 342.693 709.489C341.856 708.73 340.737 708.361 339.613 708.472C337.21 708.71 334.79 708.71 332.387 708.472ZM336 731.997L335.994 716.651H336.006L336 731.997Z" stroke="currentColor" stroke-linecap="round" stroke-linejoin="round"/>
<path fill-rule="evenodd" clip-rule="evenodd" d="M346.723 697.888C339.857 700.732 332.143 700.732 325.277 697.888C318.411 695.044 312.956 689.589 310.112 682.723C307.268 675.857 307.268 668.143 310.112 661.277C312.956 654.411 318.411 648.956 325.277 646.112C332.143 643.268 339.857 643.268 346.723 646.112C353.589 648.956 359.044 654.411 361.888 661.277C364.732 668.143 364.732 675.857 361.888 682.723C359.044 689.589 353.589 695.044 346.723 697.888ZM328.338 690.497C333.244 692.529 338.756 692.529 343.662 690.497C348.567 688.465 352.465 684.567 354.497 679.662C356.529 674.756 356.529 669.244 354.497 664.338C352.465 659.433 348.567 655.535 343.662 653.503C338.756 651.471 333.244 651.471 328.338 653.503C323.433 655.535 319.535 659.433 317.503 664.338C315.471 669.244 315.471 674.756 317.503 679.662C319.535 684.567 323.433 688.465 328.338 690.497Z" stroke="currentColor" stroke-linecap="round" stroke-linejoin="round"/>
<path fill-rule="evenodd" clip-rule="evenodd" d="M516 611.998C515.999 609.79 514.209 608 512 608C509.791 608 508.001 609.79 508 611.998V612.002L507.993 631.547C510.658 631.283 513.342 631.283 516.007 631.547L516 612.002V611.998ZM537.771 640.562C539.842 642.26 541.74 644.158 543.438 646.229L557.254 632.403L557.256 632.401C558.817 630.839 558.817 628.307 557.255 626.745C555.693 625.183 553.161 625.183 551.599 626.744L551.597 626.746L537.771 640.562ZM552.453 667.993C552.717 670.658 552.717 673.342 552.453 676.007L571.998 676H572.002C574.21 675.999 576 674.209 576 672C576 669.791 574.21 668.001 572.002 668H571.998L552.453 667.993ZM543.438 697.771C541.74 699.842 539.842 701.74 537.771 703.438L551.597 717.254L551.599 717.256C553.161 718.817 555.693 718.817 557.255 717.255C558.817 715.693 558.817 713.161 557.256 711.599L557.254 711.597L543.438 697.771ZM516.007 712.453C513.342 712.717 510.658 712.717 507.993 712.453L508 731.998V732.002C508.001 734.21 509.791 736 512 736C514.209 736 515.999 734.21 516 732.002V731.998L516.007 712.453ZM486.229 703.438C484.158 701.74 482.26 699.842 480.562 697.771L466.746 711.597L466.744 711.599C465.183 713.161 465.183 715.693 466.745 717.255C468.307 718.817 470.839 718.817 472.401 717.256L472.403 717.254L486.229 703.438ZM471.547 676.007C471.283 673.342 471.283 670.658 471.547 667.993L452.002 668H451.998C449.79 668.001 448 669.791 448 672C448 674.209 449.79 675.999 451.998 676H452.002L471.547 676.007ZM480.562 646.229C482.26 644.158 484.158 642.26 486.229 640.562L472.403 626.746L472.401 626.744C470.839 625.183 468.307 625.183 466.745 626.745C465.183 628.307 465.183 630.839 466.744 632.401L466.746 632.403L480.562 646.229Z" fill="currentColor"/>
<path d="M516 611.998H518V611.998L516 611.998ZM508 611.998L506 611.998V611.998H508ZM508 612.002L510 612.002V612.002H508ZM507.993 631.547L505.993 631.546C505.992 632.111 506.231 632.65 506.65 633.029C507.068 633.409 507.628 633.593 508.19 633.538L507.993 631.547ZM516.007 631.547L515.81 633.538C516.372 633.593 516.932 633.409 517.35 633.029C517.769 632.65 518.008 632.111 518.007 631.546L516.007 631.547ZM516 612.002H514V612.002L516 612.002ZM537.771 640.562L536.357 639.147C535.957 639.546 535.745 640.096 535.773 640.66C535.801 641.224 536.066 641.75 536.503 642.109L537.771 640.562ZM543.438 646.229L541.891 647.497C542.25 647.934 542.776 648.199 543.34 648.227C543.904 648.255 544.454 648.043 544.853 647.643L543.438 646.229ZM557.254 632.403L555.84 630.989L555.839 630.989L557.254 632.403ZM557.256 632.401L558.67 633.815L558.671 633.815L557.256 632.401ZM557.255 626.745L558.669 625.331V625.331L557.255 626.745ZM551.599 626.744L550.185 625.329L550.185 625.33L551.599 626.744ZM551.597 626.746L553.011 628.161L553.011 628.16L551.597 626.746ZM552.453 667.993L552.454 665.993C551.889 665.992 551.35 666.231 550.971 666.65C550.591 667.068 550.407 667.628 550.462 668.19L552.453 667.993ZM552.453 676.007L550.462 675.81C550.407 676.372 550.591 676.932 550.971 677.35C551.35 677.769 551.889 678.008 552.454 678.007L552.453 676.007ZM571.998 676V674H571.998L571.998 676ZM572.002 676V678H572.002L572.002 676ZM572.002 668L572.002 666H572.002V668ZM571.998 668L571.998 670H571.998V668ZM543.438 697.771L544.853 696.357C544.454 695.957 543.904 695.745 543.34 695.773C542.776 695.801 542.25 696.066 541.891 696.503L543.438 697.771ZM537.771 703.438L536.503 701.891C536.066 702.25 535.801 702.776 535.773 703.34C535.745 703.904 535.957 704.454 536.357 704.853L537.771 703.438ZM551.597 717.254L553.011 715.84L553.011 715.839L551.597 717.254ZM551.599 717.256L550.185 718.67L550.185 718.671L551.599 717.256ZM557.255 717.255L558.669 718.669L558.669 718.669L557.255 717.255ZM557.256 711.599L558.671 710.185L558.67 710.185L557.256 711.599ZM557.254 711.597L555.839 713.011L555.84 713.011L557.254 711.597ZM516.007 712.453L518.007 712.454C518.008 711.889 517.769 711.35 517.35 710.971C516.932 710.591 516.372 710.407 515.81 710.462L516.007 712.453ZM507.993 712.453L508.19 710.462C507.628 710.407 507.068 710.591 506.65 710.971C506.231 711.35 505.992 711.889 505.993 712.454L507.993 712.453ZM508 731.998H510V731.998L508 731.998ZM508 732.002H506V732.002L508 732.002ZM516 732.002L518 732.002V732.002H516ZM516 731.998L514 731.998V731.998H516ZM486.229 703.438L487.643 704.853C488.043 704.454 488.255 703.904 488.227 703.34C488.199 702.776 487.934 702.25 487.497 701.891L486.229 703.438ZM480.562 697.771L482.109 696.503C481.75 696.066 481.224 695.801 480.66 695.773C480.096 695.745 479.546 695.957 479.147 696.357L480.562 697.771ZM466.746 711.597L468.16 713.011L468.161 713.011L466.746 711.597ZM466.744 711.599L465.33 710.185L465.329 710.185L466.744 711.599ZM466.745 717.255L465.331 718.669H465.331L466.745 717.255ZM472.401 717.256L473.815 718.671L473.815 718.67L472.401 717.256ZM472.403 717.254L470.989 715.839L470.989 715.84L472.403 717.254ZM471.547 676.007L471.546 678.007C472.111 678.008 472.65 677.769 473.029 677.35C473.409 676.932 473.593 676.372 473.538 675.81L471.547 676.007ZM471.547 667.993L473.538 668.19C473.593 667.628 473.409 667.068 473.029 666.65C472.65 666.231 472.111 665.992 471.546 665.993L471.547 667.993ZM452.002 668V670H452.002L452.002 668ZM451.998 668V666H451.998L451.998 668ZM451.998 676L451.998 678H451.998V676ZM452.002 676L452.002 674H452.002V676ZM480.562 646.229L479.147 647.643C479.546 648.043 480.096 648.255 480.66 648.227C481.224 648.199 481.75 647.934 482.109 647.497L480.562 646.229ZM486.229 640.562L487.497 642.109C487.934 641.75 488.199 641.224 488.227 640.66C488.255 640.096 488.043 639.546 487.643 639.147L486.229 640.562ZM472.403 626.746L470.989 628.16L470.989 628.161L472.403 626.746ZM472.401 626.744L473.815 625.33L473.815 625.329L472.401 626.744ZM466.745 626.745L468.159 628.159L468.159 628.159L466.745 626.745ZM466.744 632.401L465.329 633.815L465.33 633.815L466.744 632.401ZM466.746 632.403L468.161 630.989L468.16 630.989L466.746 632.403ZM512 610C513.104 610 514 610.895 514 611.999L518 611.998C517.999 608.685 515.313 606 512 606V610ZM510 611.999C510 610.895 510.896 610 512 610V606C508.687 606 506.001 608.685 506 611.998L510 611.999ZM510 612.002V611.998H506V612.002H510ZM509.993 631.548L510 612.002L506 612.001L505.993 631.546L509.993 631.548ZM508.19 633.538C510.724 633.287 513.276 633.287 515.81 633.538L516.205 629.557C513.408 629.28 510.592 629.28 507.795 629.557L508.19 633.538ZM514 612.002L514.007 631.548L518.007 631.546L518 612.001L514 612.002ZM514 611.998V612.002H518V611.998H514ZM536.503 642.109C538.472 643.723 540.277 645.528 541.891 647.497L544.985 644.961C543.204 642.788 541.212 640.796 539.039 639.015L536.503 642.109ZM555.839 630.989L542.023 644.816L544.853 647.643L558.669 633.817L555.839 630.989ZM555.842 630.987L555.84 630.989L558.668 633.817L558.67 633.815L555.842 630.987ZM555.841 628.159C556.621 628.94 556.622 630.206 555.841 630.987L558.671 633.815C561.012 631.471 561.012 627.673 558.669 625.331L555.841 628.159ZM553.013 628.159C553.794 627.378 555.06 627.379 555.841 628.159L558.669 625.331C556.327 622.988 552.529 622.988 550.185 625.329L553.013 628.159ZM553.011 628.16L553.013 628.158L550.185 625.33L550.183 625.332L553.011 628.16ZM539.184 641.977L553.011 628.161L550.183 625.331L536.357 639.147L539.184 641.977ZM550.462 668.19C550.713 670.724 550.713 673.276 550.462 675.81L554.443 676.205C554.72 673.408 554.72 670.592 554.443 667.795L550.462 668.19ZM571.998 674L552.452 674.007L552.454 678.007L571.999 678L571.998 674ZM572.002 674H571.998V678H572.002V674ZM574 672C574 673.104 573.105 674 572.001 674L572.002 678C575.315 677.999 578 675.313 578 672H574ZM572.001 670C573.105 670 574 670.896 574 672H578C578 668.687 575.315 666.001 572.002 666L572.001 670ZM571.998 670H572.002V666H571.998V670ZM552.452 669.993L571.998 670L571.999 666L552.454 665.993L552.452 669.993ZM541.891 696.503C540.277 698.472 538.472 700.277 536.503 701.891L539.039 704.985C541.212 703.204 543.204 701.212 544.985 699.039L541.891 696.503ZM553.011 715.839L539.184 702.023L536.357 704.853L550.183 718.669L553.011 715.839ZM553.013 715.842L553.011 715.84L550.183 718.668L550.185 718.67L553.013 715.842ZM555.841 715.841C555.06 716.621 553.794 716.622 553.013 715.841L550.185 718.671C552.529 721.012 556.327 721.012 558.669 718.669L555.841 715.841ZM555.841 713.013C556.622 713.794 556.621 715.06 555.841 715.841L558.669 718.669C561.012 716.327 561.012 712.529 558.671 710.185L555.841 713.013ZM555.84 713.011L555.842 713.013L558.67 710.185L558.668 710.183L555.84 713.011ZM542.023 699.184L555.839 713.011L558.669 710.183L544.853 696.357L542.023 699.184ZM515.81 710.462C513.276 710.713 510.724 710.713 508.19 710.462L507.795 714.443C510.592 714.72 513.408 714.72 516.205 714.443L515.81 710.462ZM510 731.998L509.993 712.452L505.993 712.454L506 731.999L510 731.998ZM510 732.002V731.998H506V732.002H510ZM512 734C510.896 734 510 733.105 510 732.001L506 732.002C506.001 735.315 508.687 738 512 738V734ZM514 732.001C514 733.105 513.104 734 512 734V738C515.313 738 517.999 735.315 518 732.002L514 732.001ZM514 731.998V732.002H518V731.998H514ZM514.007 712.452L514 731.998L518 731.999L518.007 712.454L514.007 712.452ZM487.497 701.891C485.528 700.277 483.723 698.472 482.109 696.503L479.015 699.039C480.796 701.212 482.788 703.204 484.961 704.985L487.497 701.891ZM468.161 713.011L481.977 699.184L479.147 696.357L465.331 710.183L468.161 713.011ZM468.158 713.013L468.16 713.011L465.332 710.183L465.33 710.185L468.158 713.013ZM468.159 715.841C467.379 715.06 467.378 713.794 468.159 713.013L465.329 710.185C462.988 712.529 462.988 716.327 465.331 718.669L468.159 715.841ZM470.987 715.841C470.206 716.622 468.94 716.621 468.159 715.841L465.331 718.669C467.673 721.012 471.471 721.012 473.815 718.671L470.987 715.841ZM470.989 715.84L470.987 715.842L473.815 718.67L473.817 718.668L470.989 715.84ZM484.816 702.023L470.989 715.839L473.817 718.669L487.643 704.853L484.816 702.023ZM473.538 675.81C473.287 673.276 473.287 670.724 473.538 668.19L469.557 667.795C469.28 670.592 469.28 673.408 469.557 676.205L473.538 675.81ZM452.002 670L471.548 669.993L471.546 665.993L452.001 666L452.002 670ZM451.998 670H452.002V666H451.998V670ZM450 672C450 670.896 450.895 670 451.999 670L451.998 666C448.685 666.001 446 668.687 446 672H450ZM451.999 674C450.895 674 450 673.104 450 672H446C446 675.313 448.685 677.999 451.998 678L451.999 674ZM452.002 674H451.998V678H452.002V674ZM471.548 674.007L452.002 674L452.001 678L471.546 678.007L471.548 674.007ZM482.109 647.497C483.723 645.528 485.528 643.723 487.497 642.109L484.961 639.015C482.788 640.796 480.796 642.788 479.015 644.961L482.109 647.497ZM470.989 628.161L484.816 641.977L487.643 639.147L473.817 625.331L470.989 628.161ZM470.987 628.158L470.989 628.16L473.817 625.332L473.815 625.33L470.987 628.158ZM468.159 628.159C468.94 627.379 470.206 627.378 470.987 628.159L473.815 625.329C471.471 622.988 467.673 622.988 465.331 625.331L468.159 628.159ZM468.159 630.987C467.378 630.206 467.379 628.94 468.159 628.159L465.331 625.331C462.988 627.673 462.988 631.471 465.329 633.815L468.159 630.987ZM468.16 630.989L468.158 630.987L465.33 633.815L465.332 633.817L468.16 630.989ZM481.977 644.816L468.161 630.989L465.331 633.817L479.147 647.643L481.977 644.816Z" fill="currentColor"/>
<path d="M502.808 694.192C508.693 696.63 515.307 696.63 521.192 694.192C527.078 691.754 531.754 687.078 534.192 681.192C536.63 675.307 536.63 668.693 534.192 662.808C531.754 656.922 527.078 652.246 521.192 649.808C515.307 647.37 508.693 647.37 502.808 649.808C496.922 652.246 492.246 656.922 489.808 662.808C487.37 668.693 487.37 675.307 489.808 681.192C492.246 687.078 496.922 691.754 502.808 694.192Z" fill="currentColor" stroke="currentColor" stroke-width="4" stroke-linecap="round" stroke-linejoin="round"/>
<g opacity="0.25">
<path fill-rule="evenodd" clip-rule="evenodd" d="M692 611.998C691.999 609.79 690.209 608 688 608C685.791 608 684.001 609.79 684 611.998V612.002L683.993 631.547C686.658 631.283 689.342 631.283 692.007 631.547L692 612.002V611.998ZM713.771 640.562C715.842 642.26 717.74 644.158 719.438 646.229L733.254 632.403L733.256 632.401C734.817 630.839 734.817 628.307 733.255 626.745C731.693 625.183 729.161 625.183 727.599 626.744L727.597 626.746L713.771 640.562ZM728.453 667.993C728.717 670.658 728.717 673.342 728.453 676.007L747.998 676H748.002C750.21 675.999 752 674.209 752 672C752 669.791 750.21 668.001 748.002 668H747.998L728.453 667.993ZM719.438 697.771C717.74 699.842 715.842 701.74 713.771 703.438L727.597 717.254L727.599 717.256C729.161 718.817 731.693 718.817 733.255 717.255C734.817 715.693 734.817 713.161 733.256 711.599L733.254 711.597L719.438 697.771ZM692.007 712.453C689.342 712.717 686.658 712.717 683.993 712.453L684 731.998V732.002C684.001 734.21 685.791 736 688 736C690.209 736 691.999 734.21 692 732.002V731.998L692.007 712.453ZM662.229 703.438C660.158 701.74 658.26 699.842 656.562 697.771L642.746 711.597L642.744 711.599C641.183 713.161 641.183 715.693 642.745 717.255C644.307 718.817 646.839 718.817 648.401 717.256L648.403 717.254L662.229 703.438ZM647.547 676.007C647.283 673.342 647.283 670.658 647.547 667.993L628.002 668H627.998C625.79 668.001 624 669.791 624 672C624 674.209 625.79 675.999 627.998 676H628.002L647.547 676.007ZM656.562 646.229C658.26 644.158 660.158 642.26 662.229 640.562L648.403 626.746L648.401 626.744C646.839 625.183 644.307 625.183 642.745 626.745C641.183 628.307 641.183 630.839 642.744 632.401L642.746 632.403L656.562 646.229Z" fill="currentColor"/>
<path d="M692 611.998H694V611.998L692 611.998ZM684 611.998L682 611.998V611.998H684ZM684 612.002L686 612.002V612.002H684ZM683.993 631.547L681.993 631.546C681.992 632.111 682.231 632.65 682.65 633.029C683.068 633.409 683.628 633.593 684.19 633.538L683.993 631.547ZM692.007 631.547L691.81 633.538C692.372 633.593 692.932 633.409 693.35 633.029C693.769 632.65 694.008 632.111 694.007 631.546L692.007 631.547ZM692 612.002H690V612.002L692 612.002ZM713.771 640.562L712.357 639.147C711.957 639.546 711.745 640.096 711.773 640.66C711.801 641.224 712.066 641.75 712.503 642.109L713.771 640.562ZM719.438 646.229L717.891 647.497C718.25 647.934 718.776 648.199 719.34 648.227C719.904 648.255 720.454 648.043 720.853 647.643L719.438 646.229ZM733.254 632.403L731.84 630.989L731.839 630.989L733.254 632.403ZM733.256 632.401L734.67 633.815L734.671 633.815L733.256 632.401ZM733.255 626.745L734.669 625.331V625.331L733.255 626.745ZM727.599 626.744L726.185 625.329L726.185 625.33L727.599 626.744ZM727.597 626.746L729.011 628.161L729.011 628.16L727.597 626.746ZM728.453 667.993L728.454 665.993C727.889 665.992 727.35 666.231 726.971 666.65C726.591 667.068 726.407 667.628 726.462 668.19L728.453 667.993ZM728.453 676.007L726.462 675.81C726.407 676.372 726.591 676.932 726.971 677.35C727.35 677.769 727.889 678.008 728.454 678.007L728.453 676.007ZM747.998 676V674H747.998L747.998 676ZM748.002 676V678H748.002L748.002 676ZM748.002 668L748.002 666H748.002V668ZM747.998 668L747.998 670H747.998V668ZM719.438 697.771L720.853 696.357C720.454 695.957 719.904 695.745 719.34 695.773C718.776 695.801 718.25 696.066 717.891 696.503L719.438 697.771ZM713.771 703.438L712.503 701.891C712.066 702.25 711.801 702.776 711.773 703.34C711.745 703.904 711.957 704.454 712.357 704.853L713.771 703.438ZM727.597 717.254L729.011 715.84L729.011 715.839L727.597 717.254ZM727.599 717.256L726.185 718.67L726.185 718.671L727.599 717.256ZM733.255 717.255L734.669 718.669L734.669 718.669L733.255 717.255ZM733.256 711.599L734.671 710.185L734.67 710.185L733.256 711.599ZM733.254 711.597L731.839 713.011L731.84 713.011L733.254 711.597ZM692.007 712.453L694.007 712.454C694.008 711.889 693.769 711.35 693.35 710.971C692.932 710.591 692.372 710.407 691.81 710.462L692.007 712.453ZM683.993 712.453L684.19 710.462C683.628 710.407 683.068 710.591 682.65 710.971C682.231 711.35 681.992 711.889 681.993 712.454L683.993 712.453ZM684 731.998H686V731.998L684 731.998ZM684 732.002H682V732.002L684 732.002ZM692 732.002L694 732.002V732.002H692ZM692 731.998L690 731.998V731.998H692ZM662.229 703.438L663.643 704.853C664.043 704.454 664.255 703.904 664.227 703.34C664.199 702.776 663.934 702.25 663.497 701.891L662.229 703.438ZM656.562 697.771L658.109 696.503C657.75 696.066 657.224 695.801 656.66 695.773C656.096 695.745 655.546 695.957 655.147 696.357L656.562 697.771ZM642.746 711.597L644.16 713.011L644.161 713.011L642.746 711.597ZM642.744 711.599L641.33 710.185L641.329 710.185L642.744 711.599ZM642.745 717.255L641.331 718.669H641.331L642.745 717.255ZM648.401 717.256L649.815 718.671L649.815 718.67L648.401 717.256ZM648.403 717.254L646.989 715.839L646.989 715.84L648.403 717.254ZM647.547 676.007L647.546 678.007C648.111 678.008 648.65 677.769 649.029 677.35C649.409 676.932 649.593 676.372 649.538 675.81L647.547 676.007ZM647.547 667.993L649.538 668.19C649.593 667.628 649.409 667.068 649.029 666.65C648.65 666.231 648.111 665.992 647.546 665.993L647.547 667.993ZM628.002 668V670H628.002L628.002 668ZM627.998 668V666H627.998L627.998 668ZM627.998 676L627.998 678H627.998V676ZM628.002 676L628.002 674H628.002V676ZM656.562 646.229L655.147 647.643C655.546 648.043 656.096 648.255 656.66 648.227C657.224 648.199 657.75 647.934 658.109 647.497L656.562 646.229ZM662.229 640.562L663.497 642.109C663.934 641.75 664.199 641.224 664.227 640.66C664.255 640.096 664.043 639.546 663.643 639.147L662.229 640.562ZM648.403 626.746L646.989 628.16L646.989 628.161L648.403 626.746ZM648.401 626.744L649.815 625.33L649.815 625.329L648.401 626.744ZM642.745 626.745L644.159 628.159L644.159 628.159L642.745 626.745ZM642.744 632.401L641.329 633.815L641.33 633.815L642.744 632.401ZM642.746 632.403L644.161 630.989L644.16 630.989L642.746 632.403ZM688 610C689.104 610 690 610.895 690 611.999L694 611.998C693.999 608.685 691.313 606 688 606V610ZM686 611.999C686 610.895 686.896 610 688 610V606C684.687 606 682.001 608.685 682 611.998L686 611.999ZM686 612.002V611.998H682V612.002H686ZM685.993 631.548L686 612.002L682 612.001L681.993 631.546L685.993 631.548ZM684.19 633.538C686.724 633.287 689.276 633.287 691.81 633.538L692.205 629.557C689.408 629.28 686.592 629.28 683.795 629.557L684.19 633.538ZM690 612.002L690.007 631.548L694.007 631.546L694 612.001L690 612.002ZM690 611.998V612.002H694V611.998H690ZM712.503 642.109C714.472 643.723 716.277 645.528 717.891 647.497L720.985 644.961C719.204 642.788 717.212 640.796 715.039 639.015L712.503 642.109ZM731.839 630.989L718.023 644.816L720.853 647.643L734.669 633.817L731.839 630.989ZM731.842 630.987L731.84 630.989L734.668 633.817L734.67 633.815L731.842 630.987ZM731.841 628.159C732.621 628.94 732.622 630.206 731.841 630.987L734.671 633.815C737.012 631.471 737.012 627.673 734.669 625.331L731.841 628.159ZM729.013 628.159C729.794 627.378 731.06 627.379 731.841 628.159L734.669 625.331C732.327 622.988 728.529 622.988 726.185 625.329L729.013 628.159ZM729.011 628.16L729.013 628.158L726.185 625.33L726.183 625.332L729.011 628.16ZM715.184 641.977L729.011 628.161L726.183 625.331L712.357 639.147L715.184 641.977ZM726.462 668.19C726.713 670.724 726.713 673.276 726.462 675.81L730.443 676.205C730.72 673.408 730.72 670.592 730.443 667.795L726.462 668.19ZM747.998 674L728.452 674.007L728.454 678.007L747.999 678L747.998 674ZM748.002 674H747.998V678H748.002V674ZM750 672C750 673.104 749.105 674 748.001 674L748.002 678C751.315 677.999 754 675.313 754 672H750ZM748.001 670C749.105 670 750 670.896 750 672H754C754 668.687 751.315 666.001 748.002 666L748.001 670ZM747.998 670H748.002V666H747.998V670ZM728.452 669.993L747.998 670L747.999 666L728.454 665.993L728.452 669.993ZM717.891 696.503C716.277 698.472 714.472 700.277 712.503 701.891L715.039 704.985C717.212 703.204 719.204 701.212 720.985 699.039L717.891 696.503ZM729.011 715.839L715.184 702.023L712.357 704.853L726.183 718.669L729.011 715.839ZM729.013 715.842L729.011 715.84L726.183 718.668L726.185 718.67L729.013 715.842ZM731.841 715.841C731.06 716.621 729.794 716.622 729.013 715.841L726.185 718.671C728.529 721.012 732.327 721.012 734.669 718.669L731.841 715.841ZM731.841 713.013C732.622 713.794 732.621 715.06 731.841 715.841L734.669 718.669C737.012 716.327 737.012 712.529 734.671 710.185L731.841 713.013ZM731.84 713.011L731.842 713.013L734.67 710.185L734.668 710.183L731.84 713.011ZM718.023 699.184L731.839 713.011L734.669 710.183L720.853 696.357L718.023 699.184ZM691.81 710.462C689.276 710.713 686.724 710.713 684.19 710.462L683.795 714.443C686.592 714.72 689.408 714.72 692.205 714.443L691.81 710.462ZM686 731.998L685.993 712.452L681.993 712.454L682 731.999L686 731.998ZM686 732.002V731.998H682V732.002H686ZM688 734C686.896 734 686 733.105 686 732.001L682 732.002C682.001 735.315 684.687 738 688 738V734ZM690 732.001C690 733.105 689.104 734 688 734V738C691.313 738 693.999 735.315 694 732.002L690 732.001ZM690 731.998V732.002H694V731.998H690ZM690.007 712.452L690 731.998L694 731.999L694.007 712.454L690.007 712.452ZM663.497 701.891C661.528 700.277 659.723 698.472 658.109 696.503L655.015 699.039C656.796 701.212 658.788 703.204 660.961 704.985L663.497 701.891ZM644.161 713.011L657.977 699.184L655.147 696.357L641.331 710.183L644.161 713.011ZM644.158 713.013L644.16 713.011L641.332 710.183L641.33 710.185L644.158 713.013ZM644.159 715.841C643.379 715.06 643.378 713.794 644.159 713.013L641.329 710.185C638.988 712.529 638.988 716.327 641.331 718.669L644.159 715.841ZM646.987 715.841C646.206 716.622 644.94 716.621 644.159 715.841L641.331 718.669C643.673 721.012 647.471 721.012 649.815 718.671L646.987 715.841ZM646.989 715.84L646.987 715.842L649.815 718.67L649.817 718.668L646.989 715.84ZM660.816 702.023L646.989 715.839L649.817 718.669L663.643 704.853L660.816 702.023ZM649.538 675.81C649.287 673.276 649.287 670.724 649.538 668.19L645.557 667.795C645.28 670.592 645.28 673.408 645.557 676.205L649.538 675.81ZM628.002 670L647.548 669.993L647.546 665.993L628.001 666L628.002 670ZM627.998 670H628.002V666H627.998V670ZM626 672C626 670.896 626.895 670 627.999 670L627.998 666C624.685 666.001 622 668.687 622 672H626ZM627.999 674C626.895 674 626 673.104 626 672H622C622 675.313 624.685 677.999 627.998 678L627.999 674ZM628.002 674H627.998V678H628.002V674ZM647.548 674.007L628.002 674L628.001 678L647.546 678.007L647.548 674.007ZM658.109 647.497C659.723 645.528 661.528 643.723 663.497 642.109L660.961 639.015C658.788 640.796 656.796 642.788 655.015 644.961L658.109 647.497ZM646.989 628.161L660.816 641.977L663.643 639.147L649.817 625.331L646.989 628.161ZM646.987 628.158L646.989 628.16L649.817 625.332L649.815 625.33L646.987 628.158ZM644.159 628.159C644.94 627.379 646.206 627.378 646.987 628.159L649.815 625.329C647.471 622.988 643.673 622.988 641.331 625.331L644.159 628.159ZM644.159 630.987C643.378 630.206 643.379 628.94 644.159 628.159L641.331 625.331C638.988 627.673 638.988 631.471 641.329 633.815L644.159 630.987ZM644.16 630.989L644.158 630.987L641.33 633.815L641.332 633.817L644.16 630.989ZM657.977 644.816L644.161 630.989L641.331 633.817L655.147 647.643L657.977 644.816Z" fill="currentColor"/>
</g>
<path d="M678.808 694.192C684.693 696.63 691.307 696.63 697.192 694.192C703.078 691.754 707.754 687.078 710.192 681.192C712.63 675.307 712.63 668.693 710.192 662.808C707.754 656.922 703.078 652.246 697.192 649.808C691.307 647.37 684.693 647.37 678.808 649.808C672.922 652.246 668.246 656.922 665.808 662.808C663.37 668.693 663.37 675.307 665.808 681.192C668.246 687.078 672.922 691.754 678.808 694.192Z" fill="currentColor" stroke="currentColor" stroke-width="4" stroke-linecap="round" stroke-linejoin="round"/>
<path fill-rule="evenodd" clip-rule="evenodd" d="M868 611.998C867.999 609.79 866.209 608 864 608C861.791 608 860.001 609.79 860 611.998V612.002L859.993 631.547C862.658 631.283 865.342 631.283 868.007 631.547L868 612.002V611.998ZM889.771 640.562C891.842 642.26 893.74 644.158 895.438 646.229L909.254 632.403L909.256 632.401C910.817 630.839 910.817 628.307 909.255 626.745C907.693 625.183 905.161 625.183 903.599 626.744L903.597 626.746L889.771 640.562ZM904.453 667.993C904.717 670.658 904.717 673.342 904.453 676.007L923.998 676H924.002C926.21 675.999 928 674.209 928 672C928 669.791 926.21 668.001 924.002 668H923.998L904.453 667.993ZM895.438 697.771C893.74 699.842 891.842 701.74 889.771 703.438L903.597 717.254L903.599 717.256C905.161 718.817 907.693 718.817 909.255 717.255C910.817 715.693 910.817 713.161 909.256 711.599L909.254 711.597L895.438 697.771ZM868.007 712.453C865.342 712.717 862.658 712.717 859.993 712.453L860 731.998V732.002C860.001 734.21 861.791 736 864 736C866.209 736 867.999 734.21 868 732.002V731.998L868.007 712.453ZM838.229 703.438C836.158 701.74 834.26 699.842 832.562 697.771L818.746 711.597L818.744 711.599C817.183 713.161 817.183 715.693 818.745 717.255C820.307 718.817 822.839 718.817 824.401 717.256L824.403 717.254L838.229 703.438ZM823.547 676.007C823.283 673.342 823.283 670.658 823.547 667.993L804.002 668H803.998C801.79 668.001 800 669.791 800 672C800 674.209 801.79 675.999 803.998 676H804.002L823.547 676.007ZM832.562 646.229C834.26 644.158 836.158 642.26 838.229 640.562L824.403 626.746L824.401 626.744C822.839 625.183 820.307 625.183 818.745 626.745C817.183 628.307 817.183 630.839 818.744 632.401L818.746 632.403L832.562 646.229Z" fill="#FFA500"/>
<path d="M868 611.998H870V611.998L868 611.998ZM860 611.998L858 611.998V611.998H860ZM860 612.002L862 612.002V612.002H860ZM859.993 631.547L857.993 631.546C857.992 632.111 858.231 632.65 858.65 633.029C859.068 633.409 859.628 633.593 860.19 633.538L859.993 631.547ZM868.007 631.547L867.81 633.538C868.372 633.593 868.932 633.409 869.35 633.029C869.769 632.65 870.008 632.111 870.007 631.546L868.007 631.547ZM868 612.002H866V612.002L868 612.002ZM889.771 640.562L888.357 639.147C887.957 639.546 887.745 640.096 887.773 640.66C887.801 641.224 888.066 641.75 888.503 642.109L889.771 640.562ZM895.438 646.229L893.891 647.497C894.25 647.934 894.776 648.199 895.34 648.227C895.904 648.255 896.454 648.043 896.853 647.643L895.438 646.229ZM909.254 632.403L907.84 630.989L907.839 630.989L909.254 632.403ZM909.256 632.401L910.67 633.815L910.671 633.815L909.256 632.401ZM909.255 626.745L910.669 625.331V625.331L909.255 626.745ZM903.599 626.744L902.185 625.329L902.185 625.33L903.599 626.744ZM903.597 626.746L905.011 628.161L905.011 628.16L903.597 626.746ZM904.453 667.993L904.454 665.993C903.889 665.992 903.35 666.231 902.971 666.65C902.591 667.068 902.407 667.628 902.462 668.19L904.453 667.993ZM904.453 676.007L902.462 675.81C902.407 676.372 902.591 676.932 902.971 677.35C903.35 677.769 903.889 678.008 904.454 678.007L904.453 676.007ZM923.998 676V674H923.998L923.998 676ZM924.002 676V678H924.002L924.002 676ZM924.002 668L924.002 666H924.002V668ZM923.998 668L923.998 670H923.998V668ZM895.438 697.771L896.853 696.357C896.454 695.957 895.904 695.745 895.34 695.773C894.776 695.801 894.25 696.066 893.891 696.503L895.438 697.771ZM889.771 703.438L888.503 701.891C888.066 702.25 887.801 702.776 887.773 703.34C887.745 703.904 887.957 704.454 888.357 704.853L889.771 703.438ZM903.597 717.254L905.011 715.84L905.011 715.839L903.597 717.254ZM903.599 717.256L902.185 718.67L902.185 718.671L903.599 717.256ZM909.255 717.255L910.669 718.669L910.669 718.669L909.255 717.255ZM909.256 711.599L910.671 710.185L910.67 710.185L909.256 711.599ZM909.254 711.597L907.839 713.011L907.84 713.011L909.254 711.597ZM868.007 712.453L870.007 712.454C870.008 711.889 869.769 711.35 869.35 710.971C868.932 710.591 868.372 710.407 867.81 710.462L868.007 712.453ZM859.993 712.453L860.19 710.462C859.628 710.407 859.068 710.591 858.65 710.971C858.231 711.35 857.992 711.889 857.993 712.454L859.993 712.453ZM860 731.998H862V731.998L860 731.998ZM860 732.002H858V732.002L860 732.002ZM868 732.002L870 732.002V732.002H868ZM868 731.998L866 731.998V731.998H868ZM838.229 703.438L839.643 704.853C840.043 704.454 840.255 703.904 840.227 703.34C840.199 702.776 839.934 702.25 839.497 701.891L838.229 703.438ZM832.562 697.771L834.109 696.503C833.75 696.066 833.224 695.801 832.66 695.773C832.096 695.745 831.546 695.957 831.147 696.357L832.562 697.771ZM818.746 711.597L820.16 713.011L820.161 713.011L818.746 711.597ZM818.744 711.599L817.33 710.185L817.329 710.185L818.744 711.599ZM818.745 717.255L817.331 718.669H817.331L818.745 717.255ZM824.401 717.256L825.815 718.671L825.815 718.67L824.401 717.256ZM824.403 717.254L822.989 715.839L822.989 715.84L824.403 717.254ZM823.547 676.007L823.546 678.007C824.111 678.008 824.65 677.769 825.029 677.35C825.409 676.932 825.593 676.372 825.538 675.81L823.547 676.007ZM823.547 667.993L825.538 668.19C825.593 667.628 825.409 667.068 825.029 666.65C824.65 666.231 824.111 665.992 823.546 665.993L823.547 667.993ZM804.002 668V670H804.002L804.002 668ZM803.998 668V666H803.998L803.998 668ZM803.998 676L803.998 678H803.998V676ZM804.002 676L804.002 674H804.002V676ZM832.562 646.229L831.147 647.643C831.546 648.043 832.096 648.255 832.66 648.227C833.224 648.199 833.75 647.934 834.109 647.497L832.562 646.229ZM838.229 640.562L839.497 642.109C839.934 641.75 840.199 641.224 840.227 640.66C840.255 640.096 840.043 639.546 839.643 639.147L838.229 640.562ZM824.403 626.746L822.989 628.16L822.989 628.161L824.403 626.746ZM824.401 626.744L825.815 625.33L825.815 625.329L824.401 626.744ZM818.745 626.745L820.159 628.159L820.159 628.159L818.745 626.745ZM818.744 632.401L817.329 633.815L817.33 633.815L818.744 632.401ZM818.746 632.403L820.161 630.989L820.16 630.989L818.746 632.403ZM864 610C865.104 610 866 610.895 866 611.999L870 611.998C869.999 608.685 867.313 606 864 606V610ZM862 611.999C862 610.895 862.896 610 864 610V606C860.687 606 858.001 608.685 858 611.998L862 611.999ZM862 612.002V611.998H858V612.002H862ZM861.993 631.548L862 612.002L858 612.001L857.993 631.546L861.993 631.548ZM860.19 633.538C862.724 633.287 865.276 633.287 867.81 633.538L868.205 629.557C865.408 629.28 862.592 629.28 859.795 629.557L860.19 633.538ZM866 612.002L866.007 631.548L870.007 631.546L870 612.001L866 612.002ZM866 611.998V612.002H870V611.998H866ZM888.503 642.109C890.472 643.723 892.277 645.528 893.891 647.497L896.985 644.961C895.204 642.788 893.212 640.796 891.039 639.015L888.503 642.109ZM907.839 630.989L894.023 644.816L896.853 647.643L910.669 633.817L907.839 630.989ZM907.842 630.987L907.84 630.989L910.668 633.817L910.67 633.815L907.842 630.987ZM907.841 628.159C908.621 628.94 908.622 630.206 907.841 630.987L910.671 633.815C913.012 631.471 913.012 627.673 910.669 625.331L907.841 628.159ZM905.013 628.159C905.794 627.378 907.06 627.379 907.841 628.159L910.669 625.331C908.327 622.988 904.529 622.988 902.185 625.329L905.013 628.159ZM905.011 628.16L905.013 628.158L902.185 625.33L902.183 625.332L905.011 628.16ZM891.184 641.977L905.011 628.161L902.183 625.331L888.357 639.147L891.184 641.977ZM902.462 668.19C902.713 670.724 902.713 673.276 902.462 675.81L906.443 676.205C906.72 673.408 906.72 670.592 906.443 667.795L902.462 668.19ZM923.998 674L904.452 674.007L904.454 678.007L923.999 678L923.998 674ZM924.002 674H923.998V678H924.002V674ZM926 672C926 673.104 925.105 674 924.001 674L924.002 678C927.315 677.999 930 675.313 930 672H926ZM924.001 670C925.105 670 926 670.896 926 672H930C930 668.687 927.315 666.001 924.002 666L924.001 670ZM923.998 670H924.002V666H923.998V670ZM904.452 669.993L923.998 670L923.999 666L904.454 665.993L904.452 669.993ZM893.891 696.503C892.277 698.472 890.472 700.277 888.503 701.891L891.039 704.985C893.212 703.204 895.204 701.212 896.985 699.039L893.891 696.503ZM905.011 715.839L891.184 702.023L888.357 704.853L902.183 718.669L905.011 715.839ZM905.013 715.842L905.011 715.84L902.183 718.668L902.185 718.67L905.013 715.842ZM907.841 715.841C907.06 716.621 905.794 716.622 905.013 715.841L902.185 718.671C904.529 721.012 908.327 721.012 910.669 718.669L907.841 715.841ZM907.841 713.013C908.622 713.794 908.621 715.06 907.841 715.841L910.669 718.669C913.012 716.327 913.012 712.529 910.671 710.185L907.841 713.013ZM907.84 713.011L907.842 713.013L910.67 710.185L910.668 710.183L907.84 713.011ZM894.023 699.184L907.839 713.011L910.669 710.183L896.853 696.357L894.023 699.184ZM867.81 710.462C865.276 710.713 862.724 710.713 860.19 710.462L859.795 714.443C862.592 714.72 865.408 714.72 868.205 714.443L867.81 710.462ZM862 731.998L861.993 712.452L857.993 712.454L858 731.999L862 731.998ZM862 732.002V731.998H858V732.002H862ZM864 734C862.896 734 862 733.105 862 732.001L858 732.002C858.001 735.315 860.687 738 864 738V734ZM866 732.001C866 733.105 865.104 734 864 734V738C867.313 738 869.999 735.315 870 732.002L866 732.001ZM866 731.998V732.002H870V731.998H866ZM866.007 712.452L866 731.998L870 731.999L870.007 712.454L866.007 712.452ZM839.497 701.891C837.528 700.277 835.723 698.472 834.109 696.503L831.015 699.039C832.796 701.212 834.788 703.204 836.961 704.985L839.497 701.891ZM820.161 713.011L833.977 699.184L831.147 696.357L817.331 710.183L820.161 713.011ZM820.158 713.013L820.16 713.011L817.332 710.183L817.33 710.185L820.158 713.013ZM820.159 715.841C819.379 715.06 819.378 713.794 820.159 713.013L817.329 710.185C814.988 712.529 814.988 716.327 817.331 718.669L820.159 715.841ZM822.987 715.841C822.206 716.622 820.94 716.621 820.159 715.841L817.331 718.669C819.673 721.012 823.471 721.012 825.815 718.671L822.987 715.841ZM822.989 715.84L822.987 715.842L825.815 718.67L825.817 718.668L822.989 715.84ZM836.816 702.023L822.989 715.839L825.817 718.669L839.643 704.853L836.816 702.023ZM825.538 675.81C825.287 673.276 825.287 670.724 825.538 668.19L821.557 667.795C821.28 670.592 821.28 673.408 821.557 676.205L825.538 675.81ZM804.002 670L823.548 669.993L823.546 665.993L804.001 666L804.002 670ZM803.998 670H804.002V666H803.998V670ZM802 672C802 670.896 802.895 670 803.999 670L803.998 666C800.685 666.001 798 668.687 798 672H802ZM803.999 674C802.895 674 802 673.104 802 672H798C798 675.313 800.685 677.999 803.998 678L803.999 674ZM804.002 674H803.998V678H804.002V674ZM823.548 674.007L804.002 674L804.001 678L823.546 678.007L823.548 674.007ZM834.109 647.497C835.723 645.528 837.528 643.723 839.497 642.109L836.961 639.015C834.788 640.796 832.796 642.788 831.015 644.961L834.109 647.497ZM822.989 628.161L836.816 641.977L839.643 639.147L825.817 625.331L822.989 628.161ZM822.987 628.158L822.989 628.16L825.817 625.332L825.815 625.33L822.987 628.158ZM820.159 628.159C820.94 627.379 822.206 627.378 822.987 628.159L825.815 625.329C823.471 622.988 819.673 622.988 817.331 625.331L820.159 628.159ZM820.159 630.987C819.378 630.206 819.379 628.94 820.159 628.159L817.331 625.331C814.988 627.673 814.988 631.471 817.329 633.815L820.159 630.987ZM820.16 630.989L820.158 630.987L817.33 633.815L817.332 633.817L820.16 630.989ZM833.977 644.816L820.161 630.989L817.331 633.817L831.147 647.643L833.977 644.816Z" fill="#FFA500"/>
<path d="M854.808 694.192C860.693 696.63 867.307 696.63 873.192 694.192C879.078 691.754 883.754 687.078 886.192 681.192C888.63 675.307 888.63 668.693 886.192 662.808C883.754 656.922 879.078 652.246 873.192 649.808C867.307 647.37 860.693 647.37 854.808 649.808C848.922 652.246 844.246 656.922 841.808 662.808C839.37 668.693 839.37 675.307 841.808 681.192C844.246 687.078 848.922 691.754 854.808 694.192Z" fill="#FFD700" stroke="#FFD700" stroke-width="4" stroke-linecap="round" stroke-linejoin="round"/>
</svg>
