<svg viewBox="0 0 1024 768" fill="none" xmlns="http://www.w3.org/2000/svg">
<path d="M424 36L433.184 73.8269L466.426 53.5736L446.173 86.8156L484 96L446.173 105.184L466.426 138.426L433.184 118.173L424 156L414.816 118.173L381.574 138.426L401.827 105.184L364 96L401.827 86.8156L381.574 53.5736L414.816 73.8269L424 36Z" stroke="#7B61FF" stroke-width="2" stroke-linecap="round" stroke-linejoin="round"/>
<path d="M622.961 151.434L655.433 118.962L655.433 73.0397L622.961 40.568L577.039 40.568L544.567 73.0398L544.567 118.962L577.039 151.434L622.961 151.434Z" stroke="#7B61FF" stroke-width="2" stroke-linecap="round" stroke-linejoin="round"/>
<path d="M512 234L534.961 328.567L618.066 277.934L567.433 361.039L662 384L567.433 406.961L618.066 490.066L534.961 439.433L512 534L489.039 439.433L405.934 490.066L456.567 406.961L362 384L456.567 361.039L405.934 277.934L489.039 328.567L512 234Z" fill="#888888" fill-opacity="0.5" stroke="currentColor" stroke-width="10" stroke-linecap="round" stroke-linejoin="round"/>
<path d="M533.048 434.814L562.813 405.048L562.813 362.953L533.048 333.187L490.952 333.187L461.187 362.953L461.187 405.048L490.952 434.814L533.048 434.814Z" fill="#888888" fill-opacity="0.5" stroke="currentColor" stroke-width="10" stroke-linecap="round" stroke-linejoin="round"/>
<path d="M160 612L169.184 649.827L202.426 629.574L182.173 662.816L220 672L182.173 681.184L202.426 714.426L169.184 694.173L160 732L150.816 694.173L117.574 714.426L137.827 681.184L100 672L137.827 662.816L117.574 629.574L150.816 649.827L160 612Z" stroke="currentColor" stroke-width="2" stroke-linecap="round" stroke-linejoin="round"/>
<path d="M168.419 692.325L180.325 680.419L180.325 663.581L168.419 651.674L151.581 651.674L139.675 663.581L139.675 680.419L151.581 692.325L168.419 692.325Z" stroke="currentColor" stroke-width="2" stroke-linecap="round" stroke-linejoin="round"/>
<path d="M339.887 611.056L340.373 610.938V610.938L339.887 611.056ZM332.113 611.056L331.627 610.938V610.938L332.113 611.056ZM324.221 643.562L323.96 643.989C324.097 644.072 324.264 644.085 324.412 644.024C324.559 643.963 324.669 643.835 324.706 643.68L324.221 643.562ZM295.655 626.158L295.395 626.585H295.395L295.655 626.158ZM290.158 631.655L290.585 631.395V631.395L290.158 631.655ZM307.562 660.221L307.68 660.706C307.835 660.669 307.963 660.559 308.024 660.412C308.085 660.264 308.072 660.097 307.989 659.96L307.562 660.221ZM275.056 668.113L274.938 667.627H274.938L275.056 668.113ZM275.056 675.887L274.938 676.373H274.938L275.056 675.887ZM307.562 683.779L307.989 684.04C308.072 683.903 308.085 683.736 308.024 683.588C307.963 683.441 307.835 683.331 307.68 683.294L307.562 683.779ZM290.158 712.345L290.585 712.605L290.158 712.345ZM290.745 717.255L290.392 717.608L290.745 717.255ZM295.655 717.842L295.395 717.415L295.395 717.415L295.655 717.842ZM324.221 700.438L324.706 700.32C324.669 700.165 324.559 700.037 324.412 699.976C324.264 699.915 324.097 699.928 323.96 700.011L324.221 700.438ZM332.113 732.944L331.627 733.062L332.113 732.944ZM339.887 732.944L340.373 733.062L339.887 732.944ZM347.779 700.438L348.04 700.011C347.903 699.928 347.736 699.915 347.588 699.976C347.441 700.037 347.331 700.165 347.294 700.32L347.779 700.438ZM376.345 717.842L376.605 717.415V717.415L376.345 717.842ZM381.255 717.255L381.608 717.608L381.255 717.255ZM381.842 712.345L381.415 712.605H381.415L381.842 712.345ZM364.438 683.779L364.32 683.294C364.165 683.331 364.037 683.441 363.976 683.588C363.915 683.736 363.928 683.903 364.011 684.04L364.438 683.779ZM396.944 675.887L397.062 676.373L396.944 675.887ZM396.944 668.113L397.062 667.627L396.944 668.113ZM364.438 660.221L364.011 659.96C363.928 660.097 363.915 660.264 363.976 660.412C364.037 660.559 364.165 660.669 364.32 660.706L364.438 660.221ZM381.842 631.655L381.415 631.395L381.415 631.395L381.842 631.655ZM381.255 626.745L381.608 626.392L381.255 626.745ZM376.345 626.158L376.605 626.585L376.345 626.158ZM347.779 643.562L347.294 643.68C347.331 643.835 347.441 643.963 347.588 644.024C347.736 644.085 347.903 644.072 348.04 643.989L347.779 643.562ZM336 628.953L336.486 628.835C336.431 628.611 336.231 628.453 336 628.453C335.769 628.453 335.569 628.611 335.514 628.835L336 628.953ZM331.454 647.675L330.968 647.557C330.932 647.706 330.967 647.863 331.061 647.984C331.156 648.104 331.301 648.175 331.454 648.175V647.675ZM340.546 647.675V648.175C340.699 648.175 340.844 648.104 340.939 647.984C341.033 647.863 341.068 647.706 341.032 647.557L340.546 647.675ZM322.014 651.585L322.367 651.939C322.476 651.83 322.528 651.678 322.51 651.526C322.492 651.373 322.405 651.238 322.274 651.158L322.014 651.585ZM305.561 641.561L305.821 641.134C305.624 641.014 305.371 641.045 305.208 641.208C305.045 641.371 305.014 641.624 305.134 641.821L305.561 641.561ZM315.585 658.014L315.158 658.274C315.238 658.405 315.373 658.492 315.526 658.51C315.678 658.528 315.83 658.476 315.939 658.367L315.585 658.014ZM311.675 667.454H312.175C312.175 667.301 312.104 667.156 311.984 667.061C311.863 666.967 311.706 666.932 311.557 666.968L311.675 667.454ZM292.953 672L292.835 671.514C292.611 671.569 292.453 671.769 292.453 672C292.453 672.231 292.611 672.431 292.835 672.486L292.953 672ZM311.675 676.546L311.557 677.032C311.706 677.068 311.863 677.033 311.984 676.939C312.104 676.844 312.175 676.699 312.175 676.546H311.675ZM315.585 685.986L315.939 685.633C315.83 685.524 315.678 685.472 315.526 685.49C315.373 685.508 315.238 685.595 315.158 685.726L315.585 685.986ZM305.561 702.439L305.134 702.179C305.014 702.376 305.045 702.629 305.208 702.792C305.371 702.955 305.624 702.986 305.821 702.866L305.561 702.439ZM322.014 692.415L322.274 692.842C322.405 692.762 322.492 692.627 322.51 692.474C322.528 692.322 322.476 692.17 322.367 692.061L322.014 692.415ZM331.454 696.325V695.825C331.301 695.825 331.156 695.896 331.061 696.016C330.967 696.137 330.932 696.294 330.968 696.443L331.454 696.325ZM336 715.047L335.514 715.165C335.569 715.389 335.769 715.547 336 715.547C336.231 715.547 336.431 715.389 336.486 715.165L336 715.047ZM340.546 696.325L341.032 696.443C341.068 696.294 341.033 696.137 340.939 696.016C340.844 695.896 340.699 695.825 340.546 695.825V696.325ZM349.986 692.415L349.633 692.061C349.524 692.17 349.472 692.322 349.49 692.474C349.508 692.627 349.595 692.762 349.726 692.842L349.986 692.415ZM366.439 702.439L366.179 702.866C366.376 702.986 366.629 702.955 366.792 702.792C366.955 702.629 366.986 702.376 366.866 702.179L366.439 702.439ZM356.415 685.986L356.842 685.726C356.762 685.595 356.627 685.508 356.474 685.49C356.322 685.472 356.17 685.524 356.061 685.633L356.415 685.986ZM360.325 676.546H359.825C359.825 676.699 359.896 676.844 360.016 676.939C360.137 677.033 360.294 677.068 360.443 677.032L360.325 676.546ZM379.047 672L379.165 672.486C379.389 672.431 379.547 672.231 379.547 672C379.547 671.769 379.389 671.569 379.165 671.514L379.047 672ZM360.325 667.454L360.443 666.968C360.294 666.932 360.137 666.967 360.016 667.061C359.896 667.156 359.825 667.301 359.825 667.454H360.325ZM356.415 658.014L356.061 658.367C356.17 658.476 356.322 658.528 356.474 658.51C356.627 658.492 356.762 658.405 356.842 658.274L356.415 658.014ZM366.439 641.561L366.866 641.821C366.986 641.624 366.955 641.371 366.792 641.208C366.629 641.045 366.376 641.014 366.179 641.134L366.439 641.561ZM349.986 651.585L349.726 651.158C349.595 651.238 349.508 651.373 349.49 651.526C349.472 651.678 349.524 651.83 349.633 651.939L349.986 651.585ZM329.238 688.325L328.884 688.679C328.978 688.773 329.105 688.825 329.238 688.825V688.325ZM319.675 678.762H319.175C319.175 678.895 319.227 679.022 319.321 679.116L319.675 678.762ZM342.762 688.325V688.825C342.895 688.825 343.022 688.773 343.116 688.679L342.762 688.325ZM352.325 678.762L352.679 679.116C352.773 679.022 352.825 678.895 352.825 678.762H352.325ZM352.325 665.238H352.825C352.825 665.105 352.773 664.978 352.679 664.884L352.325 665.238ZM342.762 655.675L343.116 655.321C343.022 655.227 342.895 655.175 342.762 655.175V655.675ZM329.238 655.675V655.175C329.105 655.175 328.978 655.227 328.884 655.321L329.238 655.675ZM319.675 665.238L319.321 664.884C319.227 664.978 319.175 665.105 319.175 665.238H319.675ZM336 608.5C337.615 608.5 339.02 609.605 339.401 611.174L340.373 610.938C339.883 608.921 338.076 607.5 336 607.5V608.5ZM332.599 611.174C332.98 609.605 334.385 608.5 336 608.5V607.5C333.924 607.5 332.117 608.921 331.627 610.938L332.599 611.174ZM324.706 643.68L332.599 611.174L331.627 610.938L323.735 643.444L324.706 643.68ZM295.395 626.585L323.96 643.989L324.481 643.135L295.915 625.731L295.395 626.585ZM291.099 627.099C292.241 625.957 294.016 625.744 295.395 626.585L295.915 625.731C294.142 624.65 291.86 624.923 290.392 626.392L291.099 627.099ZM290.585 631.395C289.744 630.016 289.957 628.241 291.099 627.099L290.392 626.392C288.923 627.86 288.65 630.142 289.731 631.915L290.585 631.395ZM307.989 659.96L290.585 631.395L289.731 631.915L307.135 660.481L307.989 659.96ZM275.174 668.599L307.68 660.706L307.444 659.735L274.938 667.627L275.174 668.599ZM272.5 672C272.5 670.385 273.605 668.98 275.174 668.599L274.938 667.627C272.921 668.117 271.5 669.924 271.5 672H272.5ZM275.174 675.401C273.605 675.02 272.5 673.615 272.5 672H271.5C271.5 674.076 272.921 675.883 274.938 676.373L275.174 675.401ZM307.68 683.294L275.174 675.401L274.938 676.373L307.444 684.265L307.68 683.294ZM290.585 712.605L307.989 684.04L307.135 683.519L289.731 712.085L290.585 712.605ZM291.099 716.901C289.957 715.759 289.744 713.984 290.585 712.605L289.731 712.085C288.65 713.858 288.923 716.14 290.392 717.608L291.099 716.901ZM295.395 717.415C294.016 718.256 292.241 718.043 291.099 716.901L290.392 717.608C291.86 719.077 294.142 719.35 295.915 718.269L295.395 717.415ZM323.96 700.011L295.395 717.415L295.915 718.269L324.481 700.865L323.96 700.011ZM332.599 732.826L324.706 700.32L323.735 700.556L331.627 733.062L332.599 732.826ZM336 735.5C334.385 735.5 332.98 734.395 332.599 732.826L331.627 733.062C332.117 735.079 333.924 736.5 336 736.5V735.5ZM339.401 732.826C339.02 734.395 337.615 735.5 336 735.5V736.5C338.076 736.5 339.883 735.079 340.373 733.062L339.401 732.826ZM347.294 700.32L339.401 732.826L340.373 733.062L348.265 700.556L347.294 700.32ZM376.605 717.415L348.04 700.011L347.519 700.865L376.085 718.269L376.605 717.415ZM380.901 716.901C379.759 718.043 377.984 718.256 376.605 717.415L376.085 718.269C377.858 719.35 380.14 719.077 381.608 717.608L380.901 716.901ZM381.415 712.605C382.256 713.984 382.043 715.759 380.901 716.901L381.608 717.608C383.077 716.14 383.35 713.858 382.269 712.085L381.415 712.605ZM364.011 684.04L381.415 712.605L382.269 712.085L364.865 683.519L364.011 684.04ZM396.826 675.401L364.32 683.294L364.556 684.265L397.062 676.373L396.826 675.401ZM399.5 672C399.5 673.615 398.395 675.02 396.826 675.401L397.062 676.373C399.079 675.883 400.5 674.076 400.5 672H399.5ZM396.826 668.599C398.395 668.98 399.5 670.385 399.5 672H400.5C400.5 669.924 399.079 668.117 397.062 667.627L396.826 668.599ZM364.32 660.706L396.826 668.599L397.062 667.627L364.556 659.735L364.32 660.706ZM381.415 631.395L364.011 659.96L364.865 660.481L382.269 631.915L381.415 631.395ZM380.901 627.099C382.043 628.241 382.256 630.016 381.415 631.395L382.269 631.915C383.35 630.142 383.077 627.86 381.608 626.392L380.901 627.099ZM376.605 626.585C377.984 625.744 379.759 625.957 380.901 627.099L381.608 626.392C380.14 624.923 377.858 624.65 376.085 625.731L376.605 626.585ZM348.04 643.989L376.605 626.585L376.085 625.731L347.519 643.135L348.04 643.989ZM339.401 611.174L347.294 643.68L348.265 643.444L340.373 610.938L339.401 611.174ZM335.514 628.835L330.968 647.557L331.94 647.793L336.486 629.071L335.514 628.835ZM341.032 647.557L336.486 628.835L335.514 629.071L340.06 647.793L341.032 647.557ZM340.546 647.175L331.454 647.175V648.175L340.546 648.175V647.175ZM322.274 651.158L305.821 641.134L305.301 641.988L321.753 652.012L322.274 651.158ZM305.134 641.821L315.158 658.274L316.012 657.753L305.988 641.301L305.134 641.821ZM321.66 651.232L315.232 657.66L315.939 658.367L322.367 651.939L321.66 651.232ZM311.557 666.968L292.835 671.514L293.071 672.486L311.793 667.94L311.557 666.968ZM292.835 672.486L311.557 677.032L311.793 676.06L293.071 671.514L292.835 672.486ZM311.175 667.454L311.175 676.546H312.175L312.175 667.454H311.175ZM315.158 685.726L305.134 702.179L305.988 702.699L316.012 686.247L315.158 685.726ZM305.821 702.866L322.274 692.842L321.753 691.988L305.301 702.012L305.821 702.866ZM315.232 686.34L321.66 692.768L322.367 692.061L315.939 685.633L315.232 686.34ZM330.968 696.443L335.514 715.165L336.486 714.929L331.94 696.207L330.968 696.443ZM336.486 715.165L341.032 696.443L340.06 696.207L335.514 714.929L336.486 715.165ZM331.454 696.825H340.546V695.825H331.454V696.825ZM349.726 692.842L366.179 702.866L366.699 702.012L350.247 691.988L349.726 692.842ZM366.866 702.179L356.842 685.726L355.988 686.247L366.012 702.699L366.866 702.179ZM350.34 692.768L356.768 686.34L356.061 685.633L349.633 692.061L350.34 692.768ZM360.443 677.032L379.165 672.486L378.929 671.514L360.207 676.06L360.443 677.032ZM379.165 671.514L360.443 666.968L360.207 667.94L378.929 672.486L379.165 671.514ZM360.825 676.546V667.454H359.825V676.546H360.825ZM356.842 658.274L366.866 641.821L366.012 641.301L355.988 657.753L356.842 658.274ZM366.179 641.134L349.726 651.158L350.247 652.012L366.699 641.988L366.179 641.134ZM356.768 657.66L350.34 651.232L349.633 651.939L356.061 658.367L356.768 657.66ZM329.591 687.972L320.028 678.409L319.321 679.116L328.884 688.679L329.591 687.972ZM342.762 687.825H329.238V688.825H342.762V687.825ZM351.972 678.409L342.409 687.972L343.116 688.679L352.679 679.116L351.972 678.409ZM351.825 665.238V678.762H352.825V665.238H351.825ZM342.409 656.028L351.972 665.591L352.679 664.884L343.116 655.321L342.409 656.028ZM329.238 656.175L342.762 656.175V655.175L329.238 655.175V656.175ZM320.028 665.591L329.591 656.028L328.884 655.321L319.321 664.884L320.028 665.591ZM320.175 678.762V665.238H319.175V678.762H320.175Z" fill="currentColor"/>
<path fill-rule="evenodd" clip-rule="evenodd" d="M521.184 649.827L512 612L502.816 649.827L469.574 629.574L489.827 662.816L452 672L489.827 681.184L469.574 714.426L502.816 694.173L512 732L521.184 694.173L554.426 714.426L534.173 681.184L572 672L534.173 662.816L554.426 629.574L521.184 649.827ZM532.325 680.419L520.419 692.325H503.581L491.675 680.419V663.581L503.581 651.675L520.419 651.675L532.325 663.581V680.419Z" fill="currentColor"/>
<path d="M512 612L513.944 611.528C513.726 610.631 512.923 610 512 610C511.077 610 510.274 610.631 510.056 611.528L512 612ZM521.184 649.827L519.241 650.299C519.391 650.919 519.829 651.43 520.419 651.675C521.009 651.919 521.68 651.867 522.225 651.535L521.184 649.827ZM502.816 649.827L501.775 651.535C502.32 651.867 502.991 651.919 503.581 651.675C504.171 651.43 504.609 650.919 504.759 650.299L502.816 649.827ZM469.574 629.574L470.614 627.866C469.826 627.385 468.812 627.507 468.159 628.159C467.507 628.812 467.385 629.826 467.866 630.614L469.574 629.574ZM489.827 662.816L490.299 664.759C490.919 664.609 491.43 664.171 491.675 663.581C491.919 662.991 491.867 662.32 491.535 661.775L489.827 662.816ZM452 672L451.528 670.056C450.631 670.274 450 671.077 450 672C450 672.923 450.631 673.726 451.528 673.944L452 672ZM489.827 681.184L491.535 682.225C491.867 681.68 491.919 681.009 491.675 680.419C491.43 679.829 490.919 679.391 490.299 679.241L489.827 681.184ZM469.574 714.426L467.866 713.386C467.385 714.174 467.507 715.188 468.159 715.841C468.812 716.493 469.826 716.615 470.614 716.134L469.574 714.426ZM502.816 694.173L504.759 693.701C504.609 693.081 504.171 692.57 503.581 692.325C502.991 692.081 502.32 692.133 501.775 692.465L502.816 694.173ZM512 732L510.056 732.472C510.274 733.369 511.077 734 512 734C512.923 734 513.726 733.369 513.944 732.472L512 732ZM521.184 694.173L522.225 692.465C521.68 692.133 521.009 692.081 520.419 692.325C519.829 692.57 519.391 693.081 519.241 693.701L521.184 694.173ZM554.426 714.426L553.386 716.134C554.174 716.615 555.188 716.493 555.841 715.841C556.493 715.188 556.615 714.174 556.134 713.386L554.426 714.426ZM534.173 681.184L533.701 679.241C533.081 679.391 532.57 679.829 532.325 680.419C532.081 681.009 532.133 681.68 532.465 682.225L534.173 681.184ZM572 672L572.472 673.944C573.369 673.726 574 672.923 574 672C574 671.077 573.369 670.274 572.472 670.056L572 672ZM534.173 662.816L532.465 661.775C532.133 662.32 532.081 662.991 532.325 663.581C532.57 664.171 533.081 664.609 533.701 664.759L534.173 662.816ZM554.426 629.574L556.134 630.614C556.615 629.826 556.493 628.812 555.841 628.159C555.188 627.507 554.174 627.385 553.386 627.866L554.426 629.574ZM520.419 692.325V694.325C520.949 694.325 521.458 694.115 521.833 693.74L520.419 692.325ZM532.325 680.419L533.74 681.833C534.115 681.458 534.325 680.949 534.325 680.419H532.325ZM503.581 692.325L502.167 693.74C502.542 694.115 503.051 694.325 503.581 694.325V692.325ZM491.675 680.419H489.675C489.675 680.949 489.885 681.458 490.26 681.833L491.675 680.419ZM491.675 663.581L490.26 662.167C489.885 662.542 489.675 663.051 489.675 663.581H491.675ZM503.581 651.675V649.675C503.051 649.675 502.542 649.885 502.167 650.26L503.581 651.675ZM520.419 651.675L521.833 650.26C521.458 649.885 520.949 649.675 520.419 649.675V651.675ZM532.325 663.581H534.325C534.325 663.051 534.115 662.542 533.74 662.167L532.325 663.581ZM510.056 612.472L519.241 650.299L523.128 649.355L513.944 611.528L510.056 612.472ZM504.759 650.299L513.944 612.472L510.056 611.528L500.872 649.355L504.759 650.299ZM468.533 631.282L501.775 651.535L503.856 648.119L470.614 627.866L468.533 631.282ZM491.535 661.775L471.282 628.533L467.866 630.614L488.119 663.856L491.535 661.775ZM452.472 673.944L490.299 664.759L489.355 660.872L451.528 670.056L452.472 673.944ZM490.299 679.241L452.472 670.056L451.528 673.944L489.355 683.128L490.299 679.241ZM471.282 715.467L491.535 682.225L488.119 680.144L467.866 713.386L471.282 715.467ZM501.775 692.465L468.533 712.718L470.614 716.134L503.856 695.881L501.775 692.465ZM513.944 731.528L504.759 693.701L500.872 694.645L510.056 732.472L513.944 731.528ZM519.241 693.701L510.056 731.528L513.944 732.472L523.128 694.645L519.241 693.701ZM555.467 712.718L522.225 692.465L520.144 695.881L553.386 716.134L555.467 712.718ZM532.465 682.225L552.718 715.467L556.134 713.386L535.881 680.144L532.465 682.225ZM571.528 670.056L533.701 679.241L534.645 683.128L572.472 673.944L571.528 670.056ZM533.701 664.759L571.528 673.944L572.472 670.056L534.645 660.872L533.701 664.759ZM552.718 628.533L532.465 661.775L535.881 663.856L556.134 630.614L552.718 628.533ZM522.225 651.535L555.467 631.282L553.386 627.866L520.144 648.119L522.225 651.535ZM521.833 693.74L533.74 681.833L530.911 679.005L519.005 690.911L521.833 693.74ZM503.581 694.325H520.419V690.325H503.581V694.325ZM490.26 681.833L502.167 693.74L504.995 690.911L493.089 679.005L490.26 681.833ZM489.675 663.581V680.419H493.675V663.581H489.675ZM502.167 650.26L490.26 662.167L493.089 664.995L504.995 653.089L502.167 650.26ZM520.419 649.675L503.581 649.675V653.675L520.419 653.675V649.675ZM533.74 662.167L521.833 650.26L519.005 653.089L530.911 664.995L533.74 662.167ZM534.325 680.419V663.581H530.325V680.419H534.325Z" fill="currentColor"/>
<path opacity="0.25" d="M688 612L697.184 649.827L730.426 629.574L710.173 662.816L748 672L710.173 681.184L730.426 714.426L697.184 694.173L688 732L678.816 694.173L645.574 714.426L665.827 681.184L628 672L665.827 662.816L645.574 629.574L678.816 649.827L688 612Z" fill="currentColor" stroke="currentColor" stroke-width="4" stroke-linecap="round" stroke-linejoin="round"/>
<path d="M696.419 692.325L708.325 680.419L708.325 663.581L696.419 651.674L679.581 651.674L667.675 663.581L667.675 680.419L679.581 692.325L696.419 692.325Z" fill="currentColor" stroke="currentColor" stroke-width="4" stroke-linecap="round" stroke-linejoin="round"/>
<path d="M864 612L873.184 649.827L906.426 629.574L886.173 662.816L924 672L886.173 681.184L906.426 714.426L873.184 694.173L864 732L854.816 694.173L821.574 714.426L841.827 681.184L804 672L841.827 662.816L821.574 629.574L854.816 649.827L864 612Z" fill="#FFA500" stroke="#FFA500" stroke-width="4" stroke-linecap="round" stroke-linejoin="round"/>
<path d="M872.419 692.325L884.325 680.419L884.325 663.581L872.419 651.674L855.581 651.674L843.675 663.581L843.675 680.419L855.581 692.325L872.419 692.325Z" fill="#FFD700" stroke="#FFD700" stroke-width="4" stroke-linecap="round" stroke-linejoin="round"/>
</svg>
