<svg viewBox="0 0 1024 768" fill="none" xmlns="http://www.w3.org/2000/svg">
<path d="M424 36L434.8 77.2938L475.962 66L445.6 96L475.962 126L434.8 114.706L424 156L413.2 114.706L372.038 126L402.4 96L372.038 66L413.2 77.2938L424 36Z" stroke="#7B61FF" stroke-width="2" stroke-linecap="round" stroke-linejoin="round"/>
<path d="M630 147.961L660 95.9994L630 44.0379L570 44.0379L540 95.9994L570 147.961L630 147.961Z" stroke="#7B61FF" stroke-width="2" stroke-linecap="round" stroke-linejoin="round"/>
<path d="M512 234L539 337.235L641.904 309L566 384L641.904 459L539 430.765L512 534L485 430.765L382.096 459L458 384L382.096 309L485 337.235L512 234Z" fill="#888888" fill-opacity="0.5" stroke="currentColor" stroke-width="10" stroke-linecap="round" stroke-linejoin="round"/>
<path d="M539.5 431.631L567 383.999L539.5 336.368L484.5 336.368L457 383.999L484.5 431.631L539.5 431.631Z" fill="#888888" fill-opacity="0.5" stroke="currentColor" stroke-width="10" stroke-linecap="round" stroke-linejoin="round"/>
<path d="M160 612L170.8 653.294L211.962 642L181.6 672L211.962 702L170.8 690.706L160 732L149.2 690.706L108.038 702L138.4 672L108.038 642L149.2 653.294L160 612Z" stroke="currentColor" stroke-width="2" stroke-linecap="round" stroke-linejoin="round"/>
<path d="M171 691.053L182 672L171 652.948L149 652.948L138 672L149 691.053L171 691.053Z" stroke="currentColor" stroke-width="2" stroke-linecap="round" stroke-linejoin="round"/>
<path d="M339.87 610.988L340.354 610.861V610.861L339.87 610.988ZM332.13 610.988L331.647 610.861V610.861L332.13 610.988ZM322.355 648.365L322.222 648.847C322.351 648.883 322.489 648.865 322.605 648.798C322.72 648.731 322.805 648.621 322.838 648.492L322.355 648.365ZM285.097 638.143L284.965 638.625H284.965L285.097 638.143ZM280.575 640L280.142 639.75H280.142L280.575 640ZM281.227 644.845L280.876 645.201H280.876L281.227 644.845ZM308.709 672L309.061 672.356C309.156 672.262 309.209 672.134 309.209 672C309.209 671.866 309.156 671.738 309.061 671.644L308.709 672ZM281.227 699.155L281.579 699.51H281.579L281.227 699.155ZM280.575 704L280.142 704.25H280.142L280.575 704ZM285.097 705.857L285.229 706.34H285.229L285.097 705.857ZM322.355 695.635L322.838 695.508C322.805 695.379 322.72 695.269 322.605 695.202C322.489 695.135 322.351 695.117 322.222 695.153L322.355 695.635ZM332.13 733.012L331.647 733.139L332.13 733.012ZM339.87 733.012L340.354 733.139L339.87 733.012ZM349.646 695.635L349.778 695.153C349.649 695.117 349.511 695.135 349.396 695.202C349.28 695.269 349.196 695.379 349.162 695.508L349.646 695.635ZM386.903 705.857L386.771 706.34L386.903 705.857ZM390.773 699.155L390.422 699.51L390.773 699.155ZM363.291 672L362.94 671.644C362.845 671.738 362.791 671.866 362.791 672C362.791 672.134 362.845 672.262 362.94 672.356L363.291 672ZM390.773 644.845L391.125 645.201L390.773 644.845ZM386.903 638.143L387.036 638.625L386.903 638.143ZM349.646 648.365L349.162 648.492C349.196 648.621 349.28 648.731 349.396 648.798C349.511 648.865 349.649 648.883 349.778 648.847L349.646 648.365ZM336 627.808L336.484 627.682C336.426 627.462 336.228 627.308 336 627.308C335.773 627.308 335.574 627.462 335.516 627.682L336 627.808ZM330.472 648.947L329.988 648.821C329.949 648.971 329.981 649.13 330.076 649.253C330.17 649.376 330.317 649.447 330.472 649.447V648.947ZM341.529 648.947V649.447C341.684 649.447 341.83 649.376 341.925 649.253C342.019 649.13 342.052 648.971 342.013 648.821L341.529 648.947ZM318.8 655.686L319.233 655.936C319.311 655.802 319.322 655.639 319.263 655.496C319.204 655.352 319.082 655.245 318.933 655.204L318.8 655.686ZM297.729 649.904L297.861 649.422C297.642 649.362 297.41 649.457 297.296 649.654C297.182 649.851 297.216 650.1 297.378 650.26L297.729 649.904ZM313.272 665.262L312.92 665.617C313.031 665.726 313.185 665.778 313.338 665.757C313.492 665.737 313.627 665.646 313.705 665.512L313.272 665.262ZM313.272 678.738L313.705 678.488C313.627 678.354 313.492 678.263 313.338 678.243C313.185 678.222 313.031 678.274 312.92 678.383L313.272 678.738ZM297.729 694.096L297.378 693.74C297.216 693.9 297.182 694.149 297.296 694.346C297.41 694.543 297.642 694.638 297.861 694.578L297.729 694.096ZM318.8 688.314L318.933 688.796C319.082 688.755 319.204 688.648 319.263 688.504C319.322 688.361 319.311 688.198 319.233 688.064L318.8 688.314ZM330.472 695.053V694.553C330.317 694.553 330.17 694.624 330.076 694.747C329.981 694.87 329.949 695.029 329.988 695.179L330.472 695.053ZM336 716.192L335.516 716.318C335.574 716.538 335.773 716.692 336 716.692C336.228 716.692 336.426 716.538 336.484 716.318L336 716.192ZM341.529 695.053L342.013 695.179C342.052 695.029 342.019 694.87 341.925 694.747C341.83 694.624 341.684 694.553 341.529 694.553V695.053ZM353.2 688.314L352.767 688.064C352.689 688.198 352.679 688.361 352.737 688.504C352.796 688.648 352.918 688.755 353.068 688.796L353.2 688.314ZM374.271 694.096L374.139 694.578C374.358 694.638 374.59 694.543 374.704 694.346C374.818 694.149 374.784 693.9 374.623 693.74L374.271 694.096ZM358.729 678.738L359.08 678.383C358.97 678.274 358.815 678.222 358.662 678.243C358.508 678.263 358.373 678.354 358.296 678.488L358.729 678.738ZM358.729 665.262L358.296 665.512C358.373 665.646 358.508 665.737 358.662 665.757C358.815 665.778 358.97 665.726 359.08 665.617L358.729 665.262ZM374.271 649.904L374.623 650.26C374.784 650.1 374.818 649.851 374.704 649.654C374.591 649.457 374.358 649.362 374.139 649.422L374.271 649.904ZM353.2 655.686L353.068 655.204C352.918 655.245 352.796 655.352 352.737 655.496C352.679 655.639 352.689 655.802 352.767 655.936L353.2 655.686ZM327.31 687.053L326.877 687.303C326.966 687.457 327.131 687.553 327.31 687.553V687.053ZM318.619 672L318.186 671.75C318.097 671.905 318.097 672.095 318.186 672.25L318.619 672ZM344.691 687.053V687.553C344.869 687.553 345.034 687.457 345.124 687.303L344.691 687.053ZM353.381 672L353.814 672.25C353.904 672.095 353.904 671.905 353.814 671.75L353.381 672ZM344.691 656.947L345.124 656.697C345.034 656.543 344.869 656.447 344.691 656.447V656.947ZM327.31 656.947V656.447C327.131 656.447 326.966 656.543 326.877 656.697L327.31 656.947ZM336 608.5C337.592 608.5 338.984 609.574 339.386 611.114L340.354 610.861C339.836 608.881 338.047 607.5 336 607.5V608.5ZM332.614 611.114C333.017 609.574 334.408 608.5 336 608.5V607.5C333.953 607.5 332.165 608.881 331.647 610.861L332.614 611.114ZM322.838 648.492L332.614 611.114L331.647 610.861L321.871 648.239L322.838 648.492ZM284.965 638.625L322.222 648.847L322.487 647.883L285.229 637.66L284.965 638.625ZM281.008 640.25C281.804 638.871 283.43 638.204 284.965 638.625L285.229 637.66C283.256 637.119 281.165 637.977 280.142 639.75L281.008 640.25ZM281.579 644.49C280.446 643.371 280.212 641.629 281.008 640.25L280.142 639.75C279.118 641.523 279.42 643.762 280.876 645.201L281.579 644.49ZM309.061 671.644L281.579 644.49L280.876 645.201L308.358 672.356L309.061 671.644ZM281.579 699.51L309.061 672.356L308.358 671.644L280.876 698.799L281.579 699.51ZM281.008 703.75C280.212 702.371 280.446 700.629 281.579 699.51L280.876 698.799C279.42 700.238 279.118 702.477 280.142 704.25L281.008 703.75ZM284.965 705.375C283.43 705.796 281.804 705.129 281.008 703.75L280.142 704.25C281.165 706.023 283.256 706.881 285.229 706.34L284.965 705.375ZM322.222 695.153L284.965 705.375L285.229 706.34L322.487 696.117L322.222 695.153ZM332.614 732.886L322.838 695.508L321.871 695.761L331.647 733.139L332.614 732.886ZM336 735.5C334.408 735.5 333.017 734.426 332.614 732.886L331.647 733.139C332.165 735.119 333.953 736.5 336 736.5V735.5ZM339.386 732.886C338.984 734.426 337.592 735.5 336 735.5V736.5C338.047 736.5 339.836 735.119 340.354 733.139L339.386 732.886ZM349.162 695.508L339.386 732.886L340.354 733.139L350.129 695.761L349.162 695.508ZM387.036 705.375L349.778 695.153L349.513 696.117L386.771 706.34L387.036 705.375ZM390.993 703.75C390.197 705.129 388.571 705.796 387.036 705.375L386.771 706.34C388.745 706.881 390.835 706.023 391.859 704.25L390.993 703.75ZM390.422 699.51C391.554 700.629 391.789 702.371 390.993 703.75L391.859 704.25C392.882 702.477 392.581 700.238 391.125 698.799L390.422 699.51ZM362.94 672.356L390.422 699.51L391.125 698.799L363.643 671.644L362.94 672.356ZM390.422 644.49L362.94 671.644L363.643 672.356L391.125 645.201L390.422 644.49ZM390.993 640.25C391.789 641.629 391.554 643.371 390.422 644.49L391.125 645.201C392.581 643.762 392.882 641.523 391.859 639.75L390.993 640.25ZM387.036 638.625C388.571 638.204 390.197 638.871 390.993 640.25L391.859 639.75C390.835 637.977 388.745 637.119 386.771 637.66L387.036 638.625ZM349.778 648.847L387.036 638.625L386.771 637.66L349.513 647.883L349.778 648.847ZM339.386 611.114L349.162 648.492L350.129 648.239L340.354 610.861L339.386 611.114ZM335.516 627.682L329.988 648.821L330.955 649.074L336.484 627.935L335.516 627.682ZM342.013 648.821L336.484 627.682L335.516 627.935L341.045 649.074L342.013 648.821ZM341.529 648.447H330.472V649.447H341.529V648.447ZM318.933 655.204L297.861 649.422L297.597 650.386L318.668 656.168L318.933 655.204ZM297.378 650.26L312.92 665.617L313.623 664.906L298.081 649.549L297.378 650.26ZM318.367 655.436L312.839 665.012L313.705 665.512L319.233 655.936L318.367 655.436ZM312.92 678.383L297.378 693.74L298.081 694.451L313.623 679.094L312.92 678.383ZM297.861 694.578L318.933 688.796L318.668 687.832L297.597 693.614L297.861 694.578ZM312.839 678.988L318.367 688.564L319.233 688.064L313.705 678.488L312.839 678.988ZM329.988 695.179L335.516 716.318L336.484 716.065L330.955 694.926L329.988 695.179ZM336.484 716.318L342.013 695.179L341.045 694.926L335.516 716.065L336.484 716.318ZM330.472 695.553H341.529V694.553H330.472V695.553ZM353.068 688.796L374.139 694.578L374.403 693.614L353.332 687.832L353.068 688.796ZM374.623 693.74L359.08 678.383L358.377 679.094L373.92 694.451L374.623 693.74ZM353.633 688.564L359.162 678.988L358.296 678.488L352.767 688.064L353.633 688.564ZM359.08 665.617L374.623 650.26L373.92 649.549L358.377 664.906L359.08 665.617ZM374.139 649.422L353.068 655.204L353.332 656.168L374.404 650.386L374.139 649.422ZM359.162 665.012L353.633 655.436L352.767 655.936L358.296 665.512L359.162 665.012ZM327.743 686.803L319.052 671.75L318.186 672.25L326.877 687.303L327.743 686.803ZM344.691 686.553H327.31V687.553H344.691V686.553ZM352.948 671.75L344.258 686.803L345.124 687.303L353.814 672.25L352.948 671.75ZM344.258 657.197L352.948 672.25L353.814 671.75L345.124 656.697L344.258 657.197ZM327.31 657.447H344.691V656.447H327.31V657.447ZM319.052 672.25L327.743 657.197L326.877 656.697L318.186 671.75L319.052 672.25Z" fill="currentColor"/>
<path fill-rule="evenodd" clip-rule="evenodd" d="M522.71 652.947L512 612L501.291 652.947H522.71ZM523.145 653.199L533.855 671.748L563.962 642L523.145 653.199ZM533.855 672.252L523.145 690.801L563.962 702L533.855 672.252ZM522.71 691.053H501.291L512 732L522.71 691.053ZM500.855 690.801L490.145 672.252L460.039 702L500.855 690.801ZM490.145 671.748L500.855 653.199L460.039 642L490.145 671.748Z" fill="currentColor"/>
<path d="M512 612L513.935 611.494C513.705 610.614 512.91 610 512 610C511.09 610 510.295 610.614 510.065 611.494L512 612ZM522.71 652.947V654.947C523.329 654.947 523.914 654.66 524.293 654.17C524.671 653.679 524.801 653.041 524.644 652.441L522.71 652.947ZM501.291 652.947L499.356 652.441C499.199 653.041 499.329 653.679 499.708 654.17C500.086 654.66 500.671 654.947 501.291 654.947V652.947ZM533.855 671.748L532.123 672.748C532.433 673.285 532.974 673.648 533.588 673.73C534.202 673.813 534.82 673.607 535.261 673.171L533.855 671.748ZM523.145 653.199L522.616 651.27C522.019 651.434 521.531 651.866 521.295 652.439C521.06 653.012 521.104 653.662 521.413 654.199L523.145 653.199ZM563.962 642L565.367 643.423C566.014 642.783 566.149 641.788 565.694 641C565.239 640.212 564.31 639.831 563.432 640.071L563.962 642ZM523.145 690.801L521.413 689.801C521.104 690.338 521.06 690.988 521.295 691.561C521.531 692.134 522.019 692.566 522.616 692.73L523.145 690.801ZM533.855 672.252L535.261 670.829C534.82 670.393 534.202 670.187 533.588 670.27C532.974 670.352 532.433 670.715 532.123 671.252L533.855 672.252ZM563.962 702L563.432 703.929C564.31 704.169 565.239 703.788 565.694 703C566.149 702.212 566.014 701.217 565.367 700.577L563.962 702ZM501.291 691.053V689.053C500.671 689.053 500.086 689.34 499.708 689.83C499.329 690.321 499.199 690.959 499.356 691.559L501.291 691.053ZM522.71 691.053L524.644 691.559C524.801 690.959 524.671 690.321 524.293 689.83C523.914 689.34 523.329 689.053 522.71 689.053V691.053ZM512 732L510.065 732.506C510.295 733.386 511.09 734 512 734C512.91 734 513.705 733.386 513.935 732.506L512 732ZM490.145 672.252L491.877 671.252C491.568 670.715 491.027 670.352 490.412 670.27C489.798 670.187 489.18 670.393 488.74 670.829L490.145 672.252ZM500.855 690.801L501.384 692.73C501.982 692.566 502.469 692.134 502.705 691.561C502.94 690.988 502.897 690.338 502.587 689.801L500.855 690.801ZM460.039 702L458.633 700.577C457.986 701.217 457.852 702.212 458.307 703C458.761 703.788 459.691 704.169 460.568 703.929L460.039 702ZM500.855 653.199L502.587 654.199C502.897 653.662 502.94 653.012 502.705 652.439C502.469 651.866 501.982 651.434 501.384 651.27L500.855 653.199ZM490.145 671.748L488.74 673.171C489.18 673.607 489.798 673.813 490.412 673.73C491.027 673.648 491.568 673.285 491.877 672.748L490.145 671.748ZM460.039 642L460.568 640.071C459.691 639.831 458.761 640.212 458.307 641C457.852 641.788 457.986 642.783 458.633 643.423L460.039 642ZM510.065 612.506L520.775 653.453L524.644 652.441L513.935 611.494L510.065 612.506ZM503.226 653.453L513.935 612.506L510.065 611.494L499.356 652.441L503.226 653.453ZM522.71 650.947H501.291V654.947H522.71V650.947ZM535.587 670.748L524.877 652.199L521.413 654.199L532.123 672.748L535.587 670.748ZM562.556 640.577L532.449 670.326L535.261 673.171L565.367 643.423L562.556 640.577ZM523.675 655.128L564.491 643.929L563.432 640.071L522.616 651.27L523.675 655.128ZM524.877 691.801L535.587 673.252L532.123 671.252L521.413 689.801L524.877 691.801ZM564.491 700.071L523.675 688.872L522.616 692.73L563.432 703.929L564.491 700.071ZM532.449 673.674L562.556 703.423L565.367 700.577L535.261 670.829L532.449 673.674ZM501.291 693.053H522.71V689.053H501.291V693.053ZM513.935 731.494L503.226 690.547L499.356 691.559L510.065 732.506L513.935 731.494ZM520.775 690.547L510.065 731.494L513.935 732.506L524.644 691.559L520.775 690.547ZM488.413 673.252L499.123 691.801L502.587 689.801L491.877 671.252L488.413 673.252ZM461.444 703.423L491.551 673.674L488.74 670.829L458.633 700.577L461.444 703.423ZM500.326 688.872L459.509 700.071L460.568 703.929L501.384 692.73L500.326 688.872ZM499.123 652.199L488.413 670.748L491.877 672.748L502.587 654.199L499.123 652.199ZM459.509 643.929L500.326 655.128L501.384 651.27L460.568 640.071L459.509 643.929ZM491.551 670.326L461.444 640.577L458.633 643.423L488.74 673.171L491.551 670.326Z" fill="currentColor"/>
<path opacity="0.25" d="M688 612L698.8 653.294L739.962 642L709.6 672L739.962 702L698.8 690.706L688 732L677.2 690.706L636.038 702L666.4 672L636.038 642L677.2 653.294L688 612Z" fill="currentColor" stroke="currentColor" stroke-width="4" stroke-linecap="round" stroke-linejoin="round"/>
<path d="M699 691.053L710 672L699 652.948L677 652.948L666 672L677 691.053L699 691.053Z" fill="currentColor" stroke="currentColor" stroke-width="4" stroke-linecap="round" stroke-linejoin="round"/>
<path d="M864 612L874.8 653.294L915.962 642L885.6 672L915.962 702L874.8 690.706L864 732L853.2 690.706L812.038 702L842.4 672L812.038 642L853.2 653.294L864 612Z" fill="#FFA500" stroke="#FFA500" stroke-width="4" stroke-linecap="round" stroke-linejoin="round"/>
<path d="M875 691.053L886 672L875 652.948L853 652.948L842 672L853 691.053L875 691.053Z" fill="#FFD700" stroke="#FFD700" stroke-width="4" stroke-linecap="round" stroke-linejoin="round"/>
</svg>
