<svg viewBox="0 0 1024 768" fill="none" xmlns="http://www.w3.org/2000/svg">
<path d="M424 36L437.472 77.4573L481.063 77.459L445.798 103.083L459.267 144.541L424 118.92L388.733 144.541L402.202 103.083L366.937 77.459L410.528 77.4573L424 36Z" stroke="#7B61FF" stroke-width="2" stroke-linecap="round" stroke-linejoin="round"/>
<path d="M600 156L657.063 114.541L635.267 47.459H564.733L542.937 114.541L600 156Z" stroke="#7B61FF" stroke-width="2" stroke-linecap="round" stroke-linejoin="round"/>
<path d="M512 234L545.68 337.643L654.659 337.647L566.496 401.707L600.168 505.353L512 441.3L423.832 505.353L457.504 401.707L369.342 337.647L478.32 337.643L512 234Z" fill="#888888" fill-opacity="0.5" stroke="currentColor" stroke-width="10" stroke-linecap="round" stroke-linejoin="round"/>
<path d="M512 439L564.308 400.996L544.328 339.504H479.672L459.692 400.996L512 439Z" fill="#888888" fill-opacity="0.5" stroke="currentColor" stroke-width="10" stroke-linecap="round" stroke-linejoin="round"/>
<path d="M160 612L173.472 653.457L217.063 653.459L181.798 679.083L195.267 720.541L160 694.92L124.733 720.541L138.202 679.083L102.937 653.459L146.528 653.457L160 612Z" stroke="currentColor" stroke-width="2" stroke-linecap="round" stroke-linejoin="round"/>
<path d="M160 694L180.923 678.798L172.931 654.202H147.069L139.077 678.798L160 694Z" stroke="currentColor" stroke-width="2" stroke-linecap="round" stroke-linejoin="round"/>
<path d="M339.804 610.764L339.329 610.918V610.918L339.804 610.764ZM332.196 610.764L332.671 610.918V610.918L332.196 610.764ZM319.622 649.457L319.622 649.957C319.838 649.957 320.03 649.818 320.097 649.612L319.622 649.457ZM278.936 649.459L278.936 649.959H278.936L278.936 649.459ZM275.132 652.223L275.608 652.377L275.132 652.223ZM276.585 656.695L276.879 656.29H276.879L276.585 656.695ZM309.5 680.61L309.975 680.765C310.042 680.559 309.969 680.333 309.793 680.206L309.5 680.61ZM296.929 719.305L297.404 719.46L296.929 719.305ZM298.382 723.777L298.088 724.182H298.088L298.382 723.777ZM303.084 723.777L303.378 724.182L303.084 723.777ZM336 699.864L336.294 699.46C336.119 699.332 335.881 699.332 335.706 699.46L336 699.864ZM368.916 723.777L368.622 724.182L368.916 723.777ZM373.618 723.777L373.912 724.182L373.618 723.777ZM375.071 719.305L375.547 719.151L375.071 719.305ZM362.5 680.61L362.206 680.206C362.031 680.333 361.958 680.559 362.025 680.765L362.5 680.61ZM395.415 656.695L395.121 656.29L395.415 656.695ZM396.868 652.223L397.343 652.068V652.068L396.868 652.223ZM393.063 649.459L393.063 649.959L393.063 649.459ZM352.378 649.457L351.903 649.612C351.969 649.818 352.161 649.957 352.378 649.957L352.378 649.457ZM336 624.943L336.475 624.788C336.409 624.582 336.217 624.443 336 624.443C335.783 624.443 335.591 624.582 335.524 624.788L336 624.943ZM327.792 650.202L327.316 650.047C327.267 650.199 327.293 650.366 327.387 650.496C327.481 650.625 327.632 650.702 327.792 650.702V650.202ZM344.208 650.202V650.702C344.368 650.702 344.519 650.625 344.613 650.496C344.707 650.366 344.733 650.199 344.684 650.047L344.208 650.202ZM317.805 657.458L318.28 657.612C318.33 657.46 318.304 657.293 318.209 657.164C318.115 657.034 317.965 656.958 317.805 656.958L317.805 657.458ZM291.246 657.459L291.246 656.959C291.029 656.959 290.837 657.098 290.77 657.304C290.703 657.51 290.777 657.736 290.952 657.863L291.246 657.459ZM312.732 673.07L312.438 673.475C312.568 673.569 312.734 673.595 312.886 673.546C313.039 673.496 313.158 673.377 313.208 673.225L312.732 673.07ZM316.547 684.811L316.841 684.406C316.711 684.312 316.544 684.286 316.392 684.335C316.24 684.385 316.121 684.504 316.071 684.656L316.547 684.811ZM308.34 710.07L307.865 709.916C307.798 710.122 307.871 710.347 308.047 710.475C308.222 710.602 308.459 710.602 308.634 710.475L308.34 710.07ZM329.828 694.46L330.122 694.864C330.251 694.77 330.328 694.62 330.328 694.46C330.328 694.3 330.251 694.149 330.122 694.055L329.828 694.46ZM342.172 694.46L341.878 694.055C341.749 694.149 341.672 694.3 341.672 694.46C341.672 694.62 341.749 694.77 341.878 694.864L342.172 694.46ZM363.659 710.07L363.366 710.475C363.541 710.602 363.778 710.602 363.953 710.475C364.129 710.347 364.202 710.122 364.135 709.916L363.659 710.07ZM355.453 684.811L355.929 684.656C355.879 684.504 355.76 684.385 355.608 684.335C355.456 684.286 355.289 684.312 355.159 684.406L355.453 684.811ZM359.268 673.07L358.792 673.225C358.842 673.377 358.961 673.496 359.113 673.546C359.266 673.595 359.432 673.569 359.562 673.475L359.268 673.07ZM380.754 657.459L381.048 657.863C381.223 657.736 381.297 657.51 381.23 657.304C381.163 657.098 380.971 656.959 380.754 656.959L380.754 657.459ZM354.195 657.458L354.195 656.958C354.035 656.958 353.885 657.034 353.79 657.164C353.696 657.293 353.67 657.46 353.719 657.612L354.195 657.458ZM319.779 677.271L319.303 677.116C319.237 677.322 319.31 677.548 319.485 677.675L319.779 677.271ZM325.975 658.202V657.702C325.758 657.702 325.566 657.841 325.499 658.047L325.975 658.202ZM336 689.056L335.706 689.46C335.881 689.588 336.119 689.588 336.294 689.46L336 689.056ZM352.221 677.271L352.515 677.675C352.69 677.548 352.763 677.322 352.696 677.116L352.221 677.271ZM346.025 658.202L346.501 658.047C346.434 657.841 346.242 657.702 346.025 657.702V658.202ZM336 608.5C337.516 608.5 338.86 609.476 339.329 610.918L340.28 610.609C339.677 608.755 337.949 607.5 336 607.5V608.5ZM332.671 610.918C333.14 609.476 334.484 608.5 336 608.5V607.5C334.05 607.5 332.323 608.755 331.72 610.609L332.671 610.918ZM320.097 649.612L332.671 610.918L331.72 610.609L319.146 649.303L320.097 649.612ZM278.936 649.959L319.622 649.957L319.622 648.957L278.936 648.959L278.936 649.959ZM275.608 652.377C276.076 650.935 277.42 649.959 278.936 649.959L278.936 648.959C276.987 648.959 275.259 650.214 274.657 652.068L275.608 652.377ZM276.879 656.29C275.653 655.399 275.139 653.819 275.608 652.377L274.657 652.068C274.054 653.922 274.714 655.954 276.291 657.099L276.879 656.29ZM309.793 680.206L276.879 656.29L276.291 657.099L309.206 681.015L309.793 680.206ZM297.404 719.46L309.975 680.765L309.024 680.456L296.453 719.151L297.404 719.46ZM298.676 723.373C297.449 722.481 296.936 720.902 297.404 719.46L296.453 719.151C295.851 721.005 296.511 723.036 298.088 724.182L298.676 723.373ZM302.79 723.373C301.563 724.264 299.902 724.264 298.676 723.373L298.088 724.182C299.665 725.327 301.801 725.327 303.378 724.182L302.79 723.373ZM335.706 699.46L302.79 723.373L303.378 724.182L336.294 700.269L335.706 699.46ZM369.21 723.373L336.294 699.46L335.706 700.269L368.622 724.182L369.21 723.373ZM373.324 723.373C372.098 724.264 370.437 724.264 369.21 723.373L368.622 724.182C370.199 725.327 372.335 725.327 373.912 724.182L373.324 723.373ZM374.596 719.46C375.064 720.902 374.551 722.481 373.324 723.373L373.912 724.182C375.489 723.036 376.149 721.005 375.547 719.151L374.596 719.46ZM362.025 680.765L374.596 719.46L375.547 719.151L362.976 680.456L362.025 680.765ZM395.121 656.29L362.206 680.206L362.794 681.015L395.709 657.099L395.121 656.29ZM396.392 652.377C396.861 653.819 396.347 655.399 395.121 656.29L395.709 657.099C397.286 655.954 397.946 653.922 397.343 652.068L396.392 652.377ZM393.063 649.959C394.58 649.959 395.923 650.935 396.392 652.377L397.343 652.068C396.741 650.214 395.013 648.959 393.064 648.959L393.063 649.959ZM352.378 649.957L393.063 649.959L393.064 648.959L352.378 648.957L352.378 649.957ZM339.329 610.918L351.903 649.612L352.854 649.303L340.28 610.609L339.329 610.918ZM335.524 624.788L327.316 650.047L328.267 650.356L336.475 625.097L335.524 624.788ZM344.684 650.047L336.475 624.788L335.524 625.097L343.733 650.356L344.684 650.047ZM344.208 649.702H327.792V650.702H344.208V649.702ZM317.805 656.958L291.246 656.959L291.246 657.959L317.805 657.958L317.805 656.958ZM290.952 657.863L312.438 673.475L313.026 672.666L291.54 657.054L290.952 657.863ZM317.329 657.303L312.256 672.916L313.208 673.225L318.28 657.612L317.329 657.303ZM316.071 684.656L307.865 709.916L308.816 710.225L317.022 684.965L316.071 684.656ZM308.634 710.475L330.122 694.864L329.534 694.055L308.047 709.666L308.634 710.475ZM316.253 685.215L329.534 694.864L330.122 694.055L316.841 684.406L316.253 685.215ZM341.878 694.864L363.366 710.475L363.953 709.666L342.466 694.055L341.878 694.864ZM364.135 709.916L355.929 684.656L354.978 684.965L363.184 710.225L364.135 709.916ZM342.466 694.864L355.747 685.215L355.159 684.406L341.878 694.055L342.466 694.864ZM359.562 673.475L381.048 657.863L380.46 657.054L358.974 672.666L359.562 673.475ZM380.754 656.959L354.195 656.958L354.195 657.958L380.754 657.959L380.754 656.959ZM359.743 672.916L354.671 657.303L353.719 657.612L358.792 673.225L359.743 672.916ZM320.255 677.425L326.45 658.356L325.499 658.047L319.303 677.116L320.255 677.425ZM336.294 688.651L320.073 676.866L319.485 677.675L335.706 689.46L336.294 688.651ZM351.927 676.866L335.706 688.651L336.294 689.46L352.515 677.675L351.927 676.866ZM345.55 658.356L351.745 677.425L352.696 677.116L346.501 658.047L345.55 658.356ZM325.975 658.702H346.025V657.702H325.975V658.702Z" fill="currentColor"/>
<path fill-rule="evenodd" clip-rule="evenodd" d="M525.472 653.457L512 612L498.528 653.457L454.937 653.459L490.202 679.083L476.733 720.541L512 694.92L547.267 720.541L533.798 679.083L569.063 653.459L525.472 653.457ZM532.923 678.798L512 694L491.077 678.798L499.069 654.202H524.931L532.923 678.798Z" fill="currentColor"/>
<path d="M512 612L513.902 611.382C513.634 610.558 512.866 610 512 610C511.133 610 510.366 610.558 510.098 611.382L512 612ZM525.472 653.457L523.57 654.075C523.838 654.899 524.605 655.457 525.472 655.457L525.472 653.457ZM498.528 653.457L498.528 655.457C499.394 655.457 500.162 654.899 500.43 654.075L498.528 653.457ZM454.937 653.459L454.936 651.459C454.07 651.459 453.302 652.017 453.034 652.841C452.767 653.665 453.06 654.568 453.761 655.077L454.937 653.459ZM490.202 679.083L492.104 679.701C492.372 678.877 492.078 677.974 491.377 677.465L490.202 679.083ZM476.733 720.541L474.831 719.923C474.563 720.747 474.856 721.65 475.557 722.159C476.258 722.668 477.207 722.668 477.908 722.159L476.733 720.541ZM512 694.92L513.175 693.302C512.474 692.793 511.525 692.793 510.824 693.302L512 694.92ZM547.267 720.541L546.092 722.159C546.792 722.668 547.742 722.668 548.443 722.159C549.144 721.65 549.437 720.747 549.169 719.923L547.267 720.541ZM533.798 679.083L532.623 677.465C531.922 677.974 531.628 678.877 531.896 679.701L533.798 679.083ZM569.063 653.459L570.239 655.077C570.94 654.568 571.233 653.665 570.965 652.841C570.698 652.017 569.93 651.459 569.063 651.459L569.063 653.459ZM512 694L510.824 695.618C511.525 696.127 512.475 696.127 513.175 695.618L512 694ZM532.923 678.798L534.099 680.416C534.8 679.907 535.093 679.004 534.825 678.18L532.923 678.798ZM491.077 678.798L489.175 678.18C488.907 679.004 489.2 679.907 489.901 680.416L491.077 678.798ZM499.069 654.202V652.202C498.202 652.202 497.434 652.76 497.167 653.584L499.069 654.202ZM524.931 654.202L526.833 653.584C526.566 652.76 525.798 652.202 524.931 652.202V654.202ZM510.098 612.618L523.57 654.075L527.374 652.839L513.902 611.382L510.098 612.618ZM500.43 654.075L513.902 612.618L510.098 611.382L496.626 652.839L500.43 654.075ZM454.937 655.459L498.528 655.457L498.528 651.457L454.936 651.459L454.937 655.459ZM491.377 677.465L456.112 651.841L453.761 655.077L489.026 680.701L491.377 677.465ZM478.635 721.159L492.104 679.701L488.3 678.465L474.831 719.923L478.635 721.159ZM510.824 693.302L475.557 718.923L477.908 722.159L513.175 696.538L510.824 693.302ZM548.443 718.923L513.175 693.302L510.824 696.538L546.092 722.159L548.443 718.923ZM531.896 679.701L545.365 721.159L549.169 719.923L535.7 678.465L531.896 679.701ZM567.888 651.841L532.623 677.465L534.974 680.701L570.239 655.077L567.888 651.841ZM525.472 655.457L569.063 655.459L569.063 651.459L525.472 651.457L525.472 655.457ZM513.175 695.618L534.099 680.416L531.748 677.18L510.824 692.382L513.175 695.618ZM489.901 680.416L510.824 695.618L513.175 692.382L492.252 677.18L489.901 680.416ZM497.167 653.584L489.175 678.18L492.979 679.416L500.971 654.82L497.167 653.584ZM524.931 652.202H499.069V656.202H524.931V652.202ZM534.825 678.18L526.833 653.584L523.029 654.82L531.021 679.416L534.825 678.18Z" fill="currentColor"/>
<path opacity="0.25" d="M688 612L701.472 653.457L745.063 653.459L709.798 679.083L723.267 720.541L688 694.92L652.733 720.541L666.202 679.083L630.937 653.459L674.528 653.457L688 612Z" fill="currentColor" stroke="currentColor" stroke-width="4" stroke-linecap="round" stroke-linejoin="round"/>
<path d="M688 694L708.923 678.798L700.931 654.202H675.069L667.077 678.798L688 694Z" fill="currentColor" stroke="currentColor" stroke-width="4" stroke-linecap="round" stroke-linejoin="round"/>
<path d="M864 612L877.472 653.457L921.063 653.459L885.798 679.083L899.267 720.541L864 694.92L828.733 720.541L842.202 679.083L806.937 653.459L850.528 653.457L864 612Z" fill="#FFA500" stroke="#FFA500" stroke-width="4" stroke-linecap="round" stroke-linejoin="round"/>
<path d="M864 694L884.923 678.798L876.931 654.202H851.069L843.077 678.798L864 694Z" fill="#FFD700" stroke="#FFD700" stroke-width="4" stroke-linecap="round" stroke-linejoin="round"/>
</svg>
