<svg viewBox="0 0 1024 768" fill="none" xmlns="http://www.w3.org/2000/svg">
<path d="M419.514 54.8534C420.638 50.1279 427.362 50.1279 428.486 54.8534V54.8534C429.387 58.6361 434.276 59.6754 436.637 56.5859V56.5859C439.587 52.7263 445.729 55.4612 444.834 60.2355V60.2355C444.118 64.0573 448.162 66.9956 451.576 65.1334V65.1334C455.84 62.8071 460.339 67.804 457.58 71.8016V71.8016C455.371 75.0017 457.871 79.3309 461.746 79.0181V79.0181C466.588 78.6273 468.666 85.0221 464.519 87.5519V87.5519C461.2 89.5769 461.722 94.5485 465.39 95.8391V95.8391C469.972 97.4514 469.269 104.138 464.452 104.763V104.763C460.596 105.263 459.051 110.017 461.877 112.688V112.688C465.407 116.025 462.045 121.848 457.391 120.459V120.459C453.665 119.347 450.32 123.062 451.815 126.651V126.651C453.683 131.135 448.243 135.087 444.556 131.925V131.925C441.604 129.394 437.037 131.428 436.943 135.315V135.315C436.826 140.171 430.249 141.569 428.166 137.18V137.18C426.5 133.667 421.5 133.667 419.834 137.18V137.18C417.751 141.569 411.174 140.171 411.057 135.315V135.315C410.963 131.428 406.396 129.394 403.444 131.925V131.925C399.757 135.087 394.317 131.135 396.185 126.651V126.651C397.68 123.062 394.335 119.347 390.609 120.459V120.459C385.955 121.848 382.593 116.025 386.123 112.688V112.688C388.949 110.017 387.404 105.263 383.548 104.763V104.763C378.731 104.138 378.028 97.4514 382.61 95.8391V95.8391C386.278 94.5485 386.8 89.5769 383.481 87.5519V87.5519C379.334 85.0221 381.412 78.6273 386.254 79.0181V79.0181C390.129 79.3309 392.629 75.0017 390.42 71.8016V71.8016C387.661 67.804 392.16 62.8071 396.424 65.1334V65.1334C399.838 66.9956 403.882 64.0573 403.166 60.2355V60.2355C402.271 55.4612 408.413 52.7263 411.363 56.5859V56.5859C413.724 59.6754 418.613 58.6361 419.514 54.8534V54.8534Z" stroke="#7B61FF" stroke-width="2" stroke-linecap="round" stroke-linejoin="round"/>
<path d="M578.787 147.213C592.369 152.839 607.631 152.839 621.213 147.213V147.213C634.796 141.587 645.587 130.796 651.213 117.213V117.213C656.839 103.631 656.839 88.3694 651.213 74.7868V74.7868C645.587 61.2042 634.796 50.4129 621.213 44.7868V44.7868C607.631 39.1607 592.369 39.1607 578.787 44.7868V44.7868C565.204 50.4129 554.413 61.2042 548.787 74.7868V74.7868C543.161 88.3694 543.161 103.631 548.787 117.213V117.213C554.413 130.796 565.204 141.587 578.787 147.213V147.213Z" stroke="#7B61FF" stroke-width="2" stroke-linecap="round" stroke-linejoin="round"/>
<path fill-rule="evenodd" clip-rule="evenodd" d="M635.568 418.998H388.432C375.586 406.389 374.633 384.25 387.502 370.914C376.641 353.518 384.576 329.097 403.588 321.407C400.742 301.098 417.923 282.016 438.419 282.723C444.079 263.012 467.537 252.568 485.973 261.551C499.161 245.846 524.839 245.846 538.027 261.551C556.463 252.568 579.921 263.012 585.581 282.723C606.077 282.016 623.259 301.098 620.412 321.407C639.424 329.097 647.359 353.518 636.498 370.914C649.367 384.25 648.414 406.389 635.568 418.998Z" fill="#888888" fill-opacity="0.5"/>
<path d="M635.568 418.998V423.998C636.878 423.998 638.136 423.484 639.071 422.566L635.568 418.998ZM388.432 418.998L384.93 422.566C385.864 423.484 387.122 423.998 388.432 423.998V418.998ZM387.502 370.914L391.1 374.386C392.693 372.735 392.958 370.212 391.743 368.266L387.502 370.914ZM403.588 321.407L405.462 326.043C407.589 325.182 408.858 322.985 408.539 320.713L403.588 321.407ZM438.419 282.723L438.246 287.72C440.539 287.8 442.591 286.308 443.225 284.104L438.419 282.723ZM485.973 261.551L483.783 266.046C485.845 267.051 488.326 266.523 489.802 264.766L485.973 261.551ZM538.027 261.551L534.198 264.766C535.674 266.523 538.155 267.051 540.217 266.046L538.027 261.551ZM585.581 282.723L580.775 284.104C581.409 286.308 583.461 287.8 585.754 287.72L585.581 282.723ZM620.412 321.407L615.461 320.713C615.142 322.985 616.411 325.182 618.538 326.043L620.412 321.407ZM636.498 370.914L632.257 368.266C631.042 370.212 631.307 372.735 632.9 374.386L636.498 370.914ZM635.568 413.998H388.432V423.998H635.568V413.998ZM391.934 415.43C380.958 404.656 380.223 385.658 391.1 374.386L383.904 367.442C369.044 382.842 370.214 408.122 384.93 422.566L391.934 415.43ZM391.743 368.266C382.528 353.506 389.331 332.567 405.462 326.043L401.713 316.772C379.821 325.627 370.755 353.53 383.261 373.562L391.743 368.266ZM408.539 320.713C406.124 303.481 420.856 287.12 438.246 287.72L438.591 277.726C414.99 276.912 395.359 298.715 398.636 322.101L408.539 320.713ZM443.225 284.104C448.028 267.379 468.14 258.424 483.783 266.046L488.163 257.056C466.934 246.712 440.131 258.646 433.613 281.343L443.225 284.104ZM489.802 264.766C500.992 251.441 523.008 251.441 534.198 264.766L541.856 258.336C526.669 240.251 497.331 240.251 482.144 258.336L489.802 264.766ZM540.217 266.046C555.86 258.424 575.973 267.379 580.775 284.104L590.387 281.343C583.869 258.646 557.066 246.712 535.837 257.056L540.217 266.046ZM585.754 287.72C603.144 287.12 617.876 303.481 615.461 320.713L625.364 322.101C628.641 298.715 609.01 276.912 585.409 277.726L585.754 287.72ZM618.538 326.043C634.669 332.567 641.472 353.506 632.257 368.266L640.739 373.562C653.245 353.53 644.179 325.627 622.287 316.772L618.538 326.043ZM632.9 374.386C643.777 385.658 643.042 404.656 632.066 415.43L639.071 422.566C653.786 408.122 654.956 382.842 640.096 367.442L632.9 374.386Z" fill="currentColor"/>
<path fill-rule="evenodd" clip-rule="evenodd" d="M542 499L532 472.333V419L512 419L492 419V472.333L482 499L492 499H532L542 499Z" fill="#888888" fill-opacity="0.5"/>
<path d="M532 472.333H527C527 472.933 527.108 473.528 527.318 474.089L532 472.333ZM542 499L542 504C543.64 504 545.176 503.196 546.11 501.848C547.044 500.5 547.257 498.78 546.682 497.244L542 499ZM532 419H537C537 416.239 534.761 414 532 414L532 419ZM512 419L512 414H512L512 419ZM492 419L492 414C489.239 414 487 416.239 487 419H492ZM492 472.333L496.682 474.089C496.892 473.528 497 472.933 497 472.333H492ZM482 499L477.318 497.244C476.743 498.78 476.956 500.5 477.89 501.848C478.824 503.196 480.36 504 482 504L482 499ZM492 499L492 504H492V499ZM532 499V504H532L532 499ZM527.318 474.089L537.318 500.756L546.682 497.244L536.682 470.578L527.318 474.089ZM527 419V472.333H537V419H527ZM512 424L532 424L532 414L512 414L512 424ZM492 424L512 424L512 414L492 414L492 424ZM497 472.333V419H487V472.333H497ZM486.682 500.756L496.682 474.089L487.318 470.578L477.318 497.244L486.682 500.756ZM492 494L482 494L482 504L492 504L492 494ZM532 494H492V504H532V494ZM542 494L532 494L532 504L542 504L542 494Z" fill="currentColor"/>
<g opacity="0.25">
<path d="M501.146 284.452C503.866 273.019 520.134 273.019 522.855 284.452V284.452C525.032 293.604 536.862 296.118 542.574 288.643V288.643C549.71 279.306 564.571 285.922 562.406 297.473V297.473C560.673 306.719 570.458 313.828 578.716 309.323V309.323C589.033 303.695 599.918 315.784 593.242 325.456V325.456C587.898 333.198 593.945 343.672 603.322 342.915V342.915C615.036 341.97 620.063 357.441 610.03 363.561V363.561C602 368.46 603.264 380.488 612.138 383.611V383.611C623.223 387.512 621.523 403.69 609.869 405.201V405.201C600.539 406.41 596.802 417.912 603.639 424.374V424.374C612.179 432.447 604.046 446.535 592.784 443.174V443.174C583.77 440.485 575.677 449.472 579.295 458.156V458.156C583.813 469.005 570.653 478.567 561.732 470.916V470.916C554.591 464.793 543.542 469.712 543.315 479.116V479.116C543.03 490.865 527.118 494.247 522.08 483.63V483.63C518.047 475.131 505.953 475.131 501.92 483.63V483.63C496.882 494.247 480.97 490.865 480.686 479.116V479.116C480.458 469.712 469.41 464.793 462.268 470.916V470.916C453.348 478.567 440.187 469.005 444.706 458.156V458.156C448.323 449.472 440.23 440.485 431.216 443.174V443.174C419.955 446.535 411.821 432.447 420.362 424.374V424.374C427.198 417.912 423.461 406.41 414.132 405.201V405.201C402.477 403.69 400.777 387.512 411.863 383.611V383.611C420.737 380.488 422.001 368.46 413.97 363.561V363.561C403.938 357.441 408.965 341.97 420.678 342.915V342.915C430.055 343.672 436.102 333.198 430.758 325.456V325.456C424.083 315.784 434.968 303.695 445.284 309.323V309.323C453.543 313.828 463.327 306.719 461.594 297.473V297.473C459.43 285.922 474.291 279.306 481.426 288.643V288.643C487.138 296.118 498.968 293.604 501.146 284.452V284.452Z" stroke="currentColor" stroke-width="2.41935" stroke-linecap="round" stroke-linejoin="round"/>
<rect x="362" y="234" width="300" height="183.871" stroke="currentColor" stroke-width="2.41935" stroke-linecap="round" stroke-linejoin="round"/>
<path d="M512 417.871L541.032 495.29H482.968L512 417.871Z" stroke="currentColor" stroke-width="2.41935" stroke-linecap="round" stroke-linejoin="round"/>
</g>
<path d="M209.427 686V687C209.689 687 209.94 686.897 210.127 686.714L209.427 686ZM110.573 686L109.873 686.714C110.06 686.897 110.311 687 110.573 687V686ZM110.201 666.766L110.92 667.461C111.239 667.13 111.292 666.626 111.049 666.237L110.201 666.766ZM116.635 646.964L117.01 647.891C117.435 647.719 117.689 647.279 117.625 646.825L116.635 646.964ZM130.568 631.49L130.533 632.489C130.992 632.505 131.402 632.207 131.529 631.766L130.568 631.49ZM149.589 623.021L149.151 623.92C149.564 624.121 150.06 624.015 150.355 623.664L149.589 623.021ZM170.411 623.021L169.645 623.664C169.94 624.015 170.436 624.121 170.849 623.92L170.411 623.021ZM189.432 631.49L188.471 631.766C188.598 632.207 189.008 632.505 189.467 632.489L189.432 631.49ZM203.365 646.964L202.375 646.825C202.311 647.279 202.565 647.719 202.99 647.891L203.365 646.964ZM209.799 666.766L208.951 666.237C208.708 666.626 208.761 667.13 209.08 667.461L209.799 666.766ZM209.427 685H110.573V687H209.427V685ZM111.274 685.287C106.509 680.61 106.171 672.382 110.92 667.461L109.481 666.072C103.935 671.819 104.36 681.303 109.873 686.714L111.274 685.287ZM111.049 666.237C107.034 659.805 109.981 650.734 117.01 647.891L116.26 646.037C108.079 649.346 104.679 659.81 109.353 667.296L111.049 666.237ZM117.625 646.825C116.573 639.316 122.956 632.228 130.533 632.489L130.602 630.491C121.783 630.186 114.42 638.363 115.645 647.102L117.625 646.825ZM131.529 631.766C133.621 624.479 142.335 620.599 149.151 623.92L150.027 622.122C142.094 618.257 132.042 622.732 129.606 631.214L131.529 631.766ZM150.355 623.664C155.231 617.858 164.769 617.858 169.645 623.664L171.177 622.378C165.502 615.62 154.498 615.62 148.823 622.378L150.355 623.664ZM170.849 623.92C177.665 620.599 186.379 624.479 188.471 631.766L190.394 631.214C187.958 622.732 177.906 618.257 169.973 622.122L170.849 623.92ZM189.467 632.489C197.044 632.228 203.427 639.316 202.375 646.825L204.355 647.102C205.58 638.363 198.217 630.186 189.398 630.491L189.467 632.489ZM202.99 647.891C210.019 650.734 212.966 659.805 208.951 666.237L210.647 667.296C215.321 659.81 211.921 649.346 203.74 646.037L202.99 647.891ZM209.08 667.461C213.829 672.382 213.491 680.61 208.726 685.287L210.127 686.714C215.64 681.303 216.065 671.819 210.519 666.072L209.08 667.461Z" fill="currentColor"/>
<path d="M152 707.333L152.936 707.684C152.978 707.572 153 707.453 153 707.333H152ZM152 686V685C151.448 685 151 685.448 151 686H152ZM168 686H169C169 685.448 168.552 685 168 685V686ZM168 707.333H167C167 707.453 167.022 707.572 167.064 707.684L168 707.333ZM172 718V719C172.328 719 172.635 718.839 172.822 718.57C173.009 718.3 173.051 717.956 172.936 717.649L172 718ZM148 718L147.064 717.649C146.949 717.956 146.991 718.3 147.178 718.57C147.365 718.839 147.672 719 148 719V718ZM153 707.333V686H151V707.333H153ZM152 687H160V685H152V687ZM160 687H168V685H160V687ZM167 686V707.333H169V686H167ZM167.064 707.684L171.064 718.351L172.936 717.649L168.936 706.982L167.064 707.684ZM172 717H168V719H172V717ZM168 717H152V719H168V717ZM152 717H148V719H152V717ZM148.936 718.351L152.936 707.684L151.064 706.982L147.064 717.649L148.936 718.351Z" fill="currentColor"/>
<path d="M343.348 625.593L342.965 625.915V625.915L343.348 625.593ZM328.652 625.593L329.035 625.915L329.035 625.915L328.652 625.593ZM348.163 626.617L347.944 626.167L348.163 626.617ZM361.588 632.594L361.107 632.732V632.732L361.588 632.594ZM365.57 635.488L365.588 635.987L365.57 635.488ZM375.404 646.408L374.908 646.339L375.404 646.408ZM377.865 650.672L378.053 650.208L377.865 650.672ZM382.406 664.648L381.982 664.383H381.982L382.406 664.648ZM382.921 669.544L382.561 669.891L382.921 669.544ZM383.611 682V682.5C383.771 682.5 383.921 682.423 384.015 682.294L383.611 682ZM288.389 682L287.984 682.294C288.079 682.423 288.229 682.5 288.389 682.5V682ZM289.079 669.544L288.719 669.196L289.079 669.544ZM289.594 664.648L289.17 664.913L289.594 664.648ZM294.135 650.672L293.947 650.208H293.947L294.135 650.672ZM296.596 646.408L297.091 646.339L296.596 646.408ZM306.429 635.488L306.447 634.988L306.429 635.488ZM310.412 632.594L309.932 632.456L310.412 632.594ZM323.837 626.617L324.056 626.167L323.837 626.617ZM347.399 618.374L347.077 618.757C347.205 618.864 347.377 618.901 347.536 618.855L347.399 618.374ZM324.601 618.374L324.464 618.855C324.623 618.901 324.795 618.864 324.923 618.757L324.601 618.374ZM368.225 627.647L367.775 627.866C367.848 628.015 367.991 628.119 368.155 628.142L368.225 627.647ZM383.479 644.588L382.979 644.606C382.985 644.772 383.073 644.924 383.214 645.012L383.479 644.588ZM390.524 666.269L390.061 666.081C389.998 666.236 390.017 666.411 390.11 666.548L390.524 666.269ZM388.229 688.855L387.878 688.498L388.229 688.855ZM348 690V689.5C347.724 689.5 347.5 689.724 347.5 690H348ZM348 706.608H347.5C347.5 706.668 347.511 706.728 347.532 706.784L348 706.608ZM351.745 716.596L352.213 716.42L351.745 716.596ZM351.288 720.279L350.877 719.994H350.877L351.288 720.279ZM320.712 720.279L321.123 719.994H321.123L320.712 720.279ZM320.255 716.596L319.786 716.42L320.255 716.596ZM324 706.608L324.468 706.784C324.489 706.728 324.5 706.668 324.5 706.608H324ZM324 690H324.5C324.5 689.724 324.276 689.5 324 689.5V690ZM283.771 688.855L283.421 689.212L283.771 688.855ZM281.476 666.269L281.89 666.548C281.983 666.411 282.002 666.236 281.939 666.081L281.476 666.269ZM288.521 644.588L288.786 645.012C288.927 644.924 289.015 644.772 289.021 644.606L288.521 644.588ZM303.775 627.647L303.845 628.142C304.009 628.119 304.152 628.015 304.224 627.866L303.775 627.647ZM332 690V689.5C331.724 689.5 331.5 689.724 331.5 690H332ZM340 690H340.5C340.5 689.724 340.276 689.5 340 689.5V690ZM340.255 708.738L340.723 708.563H340.723L340.255 708.738ZM342.228 714V714.5C342.392 714.5 342.546 714.42 342.639 714.285C342.732 714.15 342.754 713.978 342.696 713.825L342.228 714ZM329.772 714L329.304 713.825C329.246 713.978 329.268 714.15 329.361 714.285C329.454 714.42 329.608 714.5 329.772 714.5V714ZM331.745 708.738L331.277 708.563H331.277L331.745 708.738ZM343.731 625.272C339.854 620.655 332.146 620.655 328.269 625.272L329.035 625.915C332.512 621.774 339.488 621.774 342.965 625.915L343.731 625.272ZM347.944 626.167C346.5 626.871 344.763 626.502 343.731 625.272L342.965 625.915C344.293 627.496 346.526 627.971 348.382 627.066L347.944 626.167ZM362.068 632.456C360.405 626.662 353.363 623.527 347.944 626.167L348.382 627.066C353.242 624.698 359.615 627.535 361.107 632.732L362.068 632.456ZM365.553 634.988C363.948 635.043 362.512 633.999 362.068 632.456L361.107 632.732C361.677 634.716 363.524 636.059 365.588 635.987L365.553 634.988ZM375.899 646.478C376.735 640.508 371.578 634.78 365.553 634.988L365.588 635.987C370.991 635.801 375.659 640.985 374.908 646.339L375.899 646.478ZM378.053 650.208C376.564 649.606 375.676 648.068 375.899 646.478L374.908 646.339C374.622 648.384 375.764 650.361 377.678 651.135L378.053 650.208ZM382.83 664.913C386.023 659.799 383.641 652.469 378.053 650.208L377.678 651.135C382.69 653.163 384.845 659.797 381.982 664.383L382.83 664.913ZM383.281 669.197C382.165 668.041 381.98 666.275 382.83 664.913L381.982 664.383C380.889 666.134 381.127 668.405 382.561 669.891L383.281 669.197ZM384.015 682.294C386.807 678.447 386.663 672.702 383.281 669.197L382.561 669.891C385.579 673.019 385.737 678.219 383.206 681.707L384.015 682.294ZM288.389 682.5H383.611V681.5H288.389V682.5ZM288.719 669.196C285.337 672.702 285.193 678.447 287.984 682.294L288.794 681.707C286.263 678.219 286.421 673.019 289.439 669.891L288.719 669.196ZM289.17 664.913C290.02 666.275 289.834 668.041 288.719 669.196L289.439 669.891C290.873 668.405 291.111 666.134 290.018 664.383L289.17 664.913ZM293.947 650.208C288.359 652.469 285.977 659.799 289.17 664.913L290.018 664.383C287.155 659.797 289.31 653.163 294.322 651.135L293.947 650.208ZM296.101 646.478C296.324 648.068 295.436 649.606 293.947 650.208L294.322 651.135C296.236 650.361 297.378 648.384 297.091 646.339L296.101 646.478ZM306.447 634.988C300.422 634.78 295.265 640.508 296.101 646.478L297.091 646.339C296.341 640.985 301.009 635.801 306.412 635.987L306.447 634.988ZM309.932 632.456C309.488 633.999 308.052 635.043 306.447 634.988L306.412 635.987C308.476 636.059 310.323 634.716 310.893 632.732L309.932 632.456ZM324.056 626.167C318.637 623.527 311.595 626.662 309.932 632.456L310.893 632.732C312.385 627.535 318.757 624.698 323.618 627.066L324.056 626.167ZM328.269 625.272C327.237 626.502 325.5 626.871 324.056 626.167L323.618 627.066C325.474 627.971 327.707 627.496 329.035 625.915L328.269 625.272ZM347.72 617.991C341.071 612.416 330.929 612.416 324.28 617.991L324.923 618.757C331.2 613.494 340.8 613.494 347.077 618.757L347.72 617.991ZM368.674 627.427C364.868 619.63 355.603 615.505 347.261 617.894L347.536 618.855C355.412 616.599 364.182 620.504 367.775 627.866L368.674 627.427ZM383.979 644.571C383.673 635.899 376.887 628.362 368.295 627.152L368.155 628.142C376.267 629.284 382.691 636.419 382.979 644.606L383.979 644.571ZM390.988 666.456C394.235 658.41 391.101 648.765 383.744 644.164L383.214 645.012C390.159 649.355 393.126 658.485 390.061 666.081L390.988 666.456ZM388.579 689.212C394.703 683.201 395.791 673.18 390.939 665.989L390.11 666.548C394.69 673.335 393.662 682.822 387.878 688.498L388.579 689.212ZM385.427 690.5C386.606 690.5 387.737 690.038 388.579 689.212L387.878 688.498C387.224 689.14 386.344 689.5 385.427 689.5V690.5ZM348 690.5H385.427V689.5H348V690.5ZM347.5 690V706.608H348.5V690H347.5ZM347.532 706.784L351.277 716.771L352.213 716.42L348.468 706.433L347.532 706.784ZM351.277 716.771C351.68 717.846 351.531 719.05 350.877 719.994L351.699 720.563C352.539 719.35 352.732 717.802 352.213 716.42L351.277 716.771ZM350.877 719.994C350.223 720.937 349.148 721.5 348 721.5V722.5C349.476 722.5 350.858 721.777 351.699 720.563L350.877 719.994ZM348 721.5H344V722.5H348V721.5ZM344 721.5H328V722.5H344V721.5ZM328 721.5H324V722.5H328V721.5ZM324 721.5C322.852 721.5 321.777 720.937 321.123 719.994L320.301 720.563C321.142 721.777 322.524 722.5 324 722.5V721.5ZM321.123 719.994C320.469 719.05 320.32 717.846 320.723 716.771L319.786 716.42C319.268 717.802 319.461 719.35 320.301 720.563L321.123 719.994ZM320.723 716.771L324.468 706.784L323.532 706.433L319.786 716.42L320.723 716.771ZM324.5 706.608V690H323.5V706.608H324.5ZM286.573 690.5H324V689.5H286.573V690.5ZM283.421 689.212C284.262 690.038 285.394 690.5 286.573 690.5V689.5C285.656 689.5 284.776 689.14 284.122 688.498L283.421 689.212ZM281.061 665.989C276.209 673.18 277.297 683.201 283.421 689.212L284.122 688.498C278.338 682.822 277.31 673.335 281.89 666.548L281.061 665.989ZM288.256 644.164C280.899 648.765 277.765 658.41 281.012 666.456L281.939 666.081C278.874 658.485 281.84 649.355 288.786 645.012L288.256 644.164ZM303.705 627.152C295.113 628.362 288.327 635.899 288.021 644.571L289.021 644.606C289.309 636.419 295.733 629.284 303.845 628.142L303.705 627.152ZM324.739 617.894C316.397 615.505 307.132 619.63 303.326 627.427L304.224 627.866C307.818 620.504 316.588 616.599 324.464 618.855L324.739 617.894ZM331.5 690V707.334H332.5V690H331.5ZM336 689.5H332V690.5H336V689.5ZM340 689.5H336V690.5H340V689.5ZM340.5 707.334V690H339.5V707.334H340.5ZM340.723 708.563C340.575 708.17 340.5 707.753 340.5 707.334H339.5C339.5 707.873 339.597 708.408 339.786 708.914L340.723 708.563ZM342.696 713.825L340.723 708.563L339.786 708.914L341.76 714.176L342.696 713.825ZM329.772 714.5H342.228V713.5H329.772V714.5ZM331.277 708.563L329.304 713.825L330.24 714.176L332.213 708.914L331.277 708.563ZM331.5 707.334C331.5 707.753 331.424 708.17 331.277 708.563L332.213 708.914C332.403 708.408 332.5 707.873 332.5 707.334H331.5Z" fill="currentColor"/>
<path fill-rule="evenodd" clip-rule="evenodd" d="M561.427 686H462.573C457.434 680.957 457.053 672.101 462.201 666.766C457.857 659.808 461.03 650.04 468.635 646.964C467.497 638.84 474.369 631.207 482.568 631.49C484.832 623.605 494.215 619.428 501.589 623.021C506.865 616.739 517.135 616.739 522.411 623.021C529.785 619.428 539.168 623.605 541.432 631.49C549.631 631.207 556.503 638.84 555.365 646.964C562.97 650.04 566.143 659.808 561.799 666.766C566.947 672.101 566.566 680.957 561.427 686Z" fill="currentColor"/>
<path d="M561.427 686V688C561.951 688 562.454 687.795 562.828 687.428L561.427 686ZM462.573 686L461.172 687.428C461.546 687.795 462.049 688 462.573 688V686ZM462.201 666.766L463.64 668.155C464.277 667.495 464.383 666.485 463.897 665.707L462.201 666.766ZM468.635 646.964L469.385 648.818C470.236 648.474 470.743 647.595 470.616 646.686L468.635 646.964ZM482.568 631.49L482.499 633.489C483.416 633.52 484.237 632.924 484.49 632.042L482.568 631.49ZM501.589 623.021L500.713 624.819C501.538 625.221 502.531 625.01 503.121 624.307L501.589 623.021ZM522.411 623.021L520.879 624.307C521.469 625.01 522.462 625.221 523.287 624.819L522.411 623.021ZM541.432 631.49L539.51 632.042C539.763 632.924 540.584 633.52 541.502 633.489L541.432 631.49ZM555.365 646.964L553.384 646.686C553.257 647.595 553.764 648.474 554.615 648.818L555.365 646.964ZM561.799 666.766L560.103 665.707C559.617 666.485 559.723 667.495 560.36 668.155L561.799 666.766ZM561.427 684H462.573V688H561.427V684ZM463.974 684.573C459.583 680.263 459.289 672.664 463.64 668.155L460.762 665.377C454.817 671.538 455.285 681.65 461.172 687.428L463.974 684.573ZM463.897 665.707C460.211 659.803 462.933 651.428 469.385 648.818L467.885 645.109C459.128 648.651 455.502 659.813 460.504 667.825L463.897 665.707ZM470.616 646.686C469.65 639.793 475.542 633.249 482.499 633.489L482.637 629.491C473.196 629.165 465.343 637.886 466.654 647.241L470.616 646.686ZM484.49 632.042C486.411 625.352 494.456 621.77 500.713 624.819L502.465 621.223C493.973 617.086 483.252 621.859 480.645 630.938L484.49 632.042ZM503.121 624.307C507.597 618.977 516.403 618.977 520.879 624.307L523.942 621.735C517.868 614.501 506.132 614.501 500.058 621.735L503.121 624.307ZM523.287 624.819C529.544 621.77 537.589 625.352 539.51 632.042L543.355 630.938C540.748 621.859 530.027 617.086 521.535 621.223L523.287 624.819ZM541.502 633.489C548.458 633.249 554.35 639.793 553.384 646.686L557.346 647.241C558.657 637.886 550.804 629.165 541.363 629.491L541.502 633.489ZM554.615 648.818C561.067 651.428 563.789 659.803 560.103 665.707L563.496 667.825C568.498 659.813 564.872 648.651 556.115 645.109L554.615 648.818ZM560.36 668.155C564.711 672.664 564.417 680.263 560.026 684.573L562.828 687.428C568.715 681.65 569.183 671.538 563.238 665.377L560.36 668.155Z" fill="currentColor"/>
<path fill-rule="evenodd" clip-rule="evenodd" d="M504 707.333V686H512H520V707.333L524 718H520H504H500L504 707.333Z" fill="currentColor"/>
<path d="M504 707.333L505.873 708.036C505.957 707.811 506 707.573 506 707.333H504ZM504 686V684C502.895 684 502 684.895 502 686H504ZM520 686H522C522 684.895 521.105 684 520 684V686ZM520 707.333H518C518 707.573 518.043 707.811 518.127 708.036L520 707.333ZM524 718V720C524.656 720 525.27 719.678 525.644 719.139C526.017 718.6 526.103 717.912 525.873 717.298L524 718ZM500 718L498.127 717.298C497.897 717.912 497.983 718.6 498.356 719.139C498.73 719.678 499.344 720 500 720V718ZM506 707.333V686H502V707.333H506ZM504 688H512V684H504V688ZM512 688H520V684H512V688ZM518 686V707.333H522V686H518ZM518.127 708.036L522.127 718.702L525.873 717.298L521.873 706.631L518.127 708.036ZM524 716H520V720H524V716ZM520 716H504V720H520V716ZM504 716H500V720H504V716ZM501.873 718.702L505.873 708.036L502.127 706.631L498.127 717.298L501.873 718.702Z" fill="currentColor"/>
<g opacity="0.25">
<path fill-rule="evenodd" clip-rule="evenodd" d="M737.427 686H638.573C633.434 680.957 633.053 672.101 638.201 666.766C633.857 659.808 637.03 650.04 644.635 646.964C643.497 638.84 650.369 631.207 658.568 631.49C660.832 623.605 670.215 619.428 677.589 623.021C682.865 616.739 693.135 616.739 698.411 623.021C705.785 619.428 715.168 623.605 717.432 631.49C725.631 631.207 732.503 638.84 731.365 646.964C738.97 650.04 742.143 659.808 737.799 666.766C742.947 672.101 742.566 680.957 737.427 686Z" fill="currentColor"/>
<path d="M737.427 686V688C737.951 688 738.454 687.795 738.828 687.428L737.427 686ZM638.573 686L637.172 687.428C637.546 687.795 638.049 688 638.573 688V686ZM638.201 666.766L639.64 668.155C640.277 667.495 640.383 666.485 639.897 665.707L638.201 666.766ZM644.635 646.964L645.385 648.818C646.236 648.474 646.743 647.595 646.616 646.686L644.635 646.964ZM658.568 631.49L658.499 633.489C659.416 633.52 660.237 632.924 660.49 632.042L658.568 631.49ZM677.589 623.021L676.713 624.819C677.538 625.221 678.531 625.01 679.121 624.307L677.589 623.021ZM698.411 623.021L696.879 624.307C697.469 625.01 698.462 625.221 699.287 624.819L698.411 623.021ZM717.432 631.49L715.51 632.042C715.763 632.924 716.584 633.52 717.502 633.489L717.432 631.49ZM731.365 646.964L729.384 646.686C729.257 647.595 729.764 648.474 730.615 648.818L731.365 646.964ZM737.799 666.766L736.103 665.707C735.617 666.485 735.723 667.495 736.36 668.155L737.799 666.766ZM737.427 684H638.573V688H737.427V684ZM639.974 684.573C635.583 680.263 635.289 672.664 639.64 668.155L636.762 665.377C630.817 671.538 631.285 681.65 637.172 687.428L639.974 684.573ZM639.897 665.707C636.211 659.803 638.933 651.428 645.385 648.818L643.885 645.109C635.128 648.651 631.502 659.813 636.504 667.825L639.897 665.707ZM646.616 646.686C645.65 639.793 651.542 633.249 658.499 633.489L658.637 629.491C649.196 629.165 641.343 637.886 642.654 647.241L646.616 646.686ZM660.49 632.042C662.411 625.352 670.456 621.77 676.713 624.819L678.465 621.223C669.973 617.086 659.252 621.859 656.645 630.938L660.49 632.042ZM679.121 624.307C683.597 618.977 692.403 618.977 696.879 624.307L699.942 621.735C693.868 614.501 682.132 614.501 676.058 621.735L679.121 624.307ZM699.287 624.819C705.544 621.77 713.589 625.352 715.51 632.042L719.355 630.938C716.748 621.859 706.027 617.086 697.535 621.223L699.287 624.819ZM717.502 633.489C724.458 633.249 730.35 639.793 729.384 646.686L733.346 647.241C734.657 637.886 726.804 629.165 717.363 629.491L717.502 633.489ZM730.615 648.818C737.067 651.428 739.789 659.803 736.103 665.707L739.496 667.825C744.498 659.813 740.872 648.651 732.115 645.109L730.615 648.818ZM736.36 668.155C740.711 672.664 740.417 680.263 736.026 684.573L738.828 687.428C744.715 681.65 745.183 671.538 739.238 665.377L736.36 668.155Z" fill="currentColor"/>
</g>
<path fill-rule="evenodd" clip-rule="evenodd" d="M680 707.333V686H688H696V707.333L700 718H696H680H676L680 707.333Z" fill="currentColor"/>
<path fill-rule="evenodd" clip-rule="evenodd" d="M913.427 686H814.573C809.434 680.957 809.053 672.101 814.201 666.766C809.857 659.808 813.03 650.04 820.635 646.964C819.497 638.84 826.369 631.207 834.568 631.49C836.832 623.605 846.215 619.428 853.589 623.021C858.865 616.739 869.135 616.739 874.411 623.021C881.785 619.428 891.168 623.605 893.432 631.49C901.631 631.207 908.503 638.84 907.365 646.964C914.97 650.04 918.143 659.808 913.799 666.766C918.947 672.101 918.566 680.957 913.427 686Z" fill="#FFA500"/>
<path d="M913.427 686V688C913.951 688 914.454 687.795 914.828 687.428L913.427 686ZM814.573 686L813.172 687.428C813.546 687.795 814.049 688 814.573 688V686ZM814.201 666.766L815.64 668.155C816.277 667.495 816.383 666.485 815.897 665.707L814.201 666.766ZM820.635 646.964L821.385 648.818C822.236 648.474 822.743 647.595 822.616 646.686L820.635 646.964ZM834.568 631.49L834.499 633.489C835.416 633.52 836.237 632.924 836.49 632.042L834.568 631.49ZM853.589 623.021L852.713 624.819C853.538 625.221 854.531 625.01 855.121 624.307L853.589 623.021ZM874.411 623.021L872.879 624.307C873.469 625.01 874.462 625.221 875.287 624.819L874.411 623.021ZM893.432 631.49L891.51 632.042C891.763 632.924 892.584 633.52 893.502 633.489L893.432 631.49ZM907.365 646.964L905.384 646.686C905.257 647.595 905.764 648.474 906.615 648.818L907.365 646.964ZM913.799 666.766L912.103 665.707C911.617 666.485 911.723 667.495 912.36 668.155L913.799 666.766ZM913.427 684H814.573V688H913.427V684ZM815.974 684.573C811.583 680.263 811.289 672.664 815.64 668.155L812.762 665.377C806.817 671.538 807.285 681.65 813.172 687.428L815.974 684.573ZM815.897 665.707C812.211 659.803 814.933 651.428 821.385 648.818L819.885 645.109C811.128 648.651 807.502 659.813 812.504 667.825L815.897 665.707ZM822.616 646.686C821.65 639.793 827.542 633.249 834.499 633.489L834.637 629.491C825.196 629.165 817.343 637.886 818.654 647.241L822.616 646.686ZM836.49 632.042C838.411 625.352 846.456 621.77 852.713 624.819L854.465 621.223C845.973 617.086 835.252 621.859 832.645 630.938L836.49 632.042ZM855.121 624.307C859.597 618.977 868.403 618.977 872.879 624.307L875.942 621.735C869.868 614.501 858.132 614.501 852.058 621.735L855.121 624.307ZM875.287 624.819C881.544 621.77 889.589 625.352 891.51 632.042L895.355 630.938C892.748 621.859 882.027 617.086 873.535 621.223L875.287 624.819ZM893.502 633.489C900.458 633.249 906.35 639.793 905.384 646.686L909.346 647.241C910.657 637.886 902.804 629.165 893.363 629.491L893.502 633.489ZM906.615 648.818C913.067 651.428 915.789 659.803 912.103 665.707L915.496 667.825C920.498 659.813 916.872 648.651 908.115 645.109L906.615 648.818ZM912.36 668.155C916.711 672.664 916.417 680.263 912.026 684.573L914.828 687.428C920.715 681.65 921.183 671.538 915.238 665.377L912.36 668.155Z" fill="#FFA500"/>
<path fill-rule="evenodd" clip-rule="evenodd" d="M856 707.333V686H864H872V707.333L876 718H872H856H852L856 707.333Z" fill="#8B4513"/>
</svg>
