<svg viewBox="0 0 1024 768" fill="none" xmlns="http://www.w3.org/2000/svg">
<path d="M419.695 53.7609C420.79 49.2462 427.21 49.2462 428.305 53.7609V53.7609C429.193 57.4263 433.964 58.3753 436.187 55.3288V55.3288C438.926 51.5766 444.858 54.0338 444.141 58.6235V58.6235C443.559 62.3499 447.604 65.0522 450.824 63.0886V63.0886C454.79 60.6699 459.33 65.2102 456.911 69.1763V69.1763C454.948 72.3964 457.65 76.4407 461.376 75.8588V75.8588C465.966 75.142 468.423 81.0742 464.671 83.8128V83.8128C461.625 86.0363 462.574 90.8069 466.239 91.6953V91.6953C470.754 92.7895 470.754 99.2105 466.239 100.305V100.305C462.574 101.193 461.625 105.964 464.671 108.187V108.187C468.423 110.926 465.966 116.858 461.376 116.141V116.141C457.65 115.559 454.948 119.604 456.911 122.824V122.824C459.33 126.79 454.79 131.33 450.824 128.911V128.911C447.604 126.948 443.559 129.65 444.141 133.376V133.376C444.858 137.966 438.926 140.423 436.187 136.671V136.671C433.964 133.625 429.193 134.574 428.305 138.239V138.239C427.21 142.754 420.79 142.754 419.695 138.239V138.239C418.807 134.574 414.036 133.625 411.813 136.671V136.671C409.074 140.423 403.142 137.966 403.859 133.376V133.376C404.441 129.65 400.396 126.948 397.176 128.911V128.911C393.21 131.33 388.67 126.79 391.089 122.824V122.824C393.052 119.604 390.35 115.559 386.624 116.141V116.141C382.034 116.858 379.577 110.926 383.329 108.187V108.187C386.375 105.964 385.426 101.193 381.761 100.305V100.305C377.246 99.2105 377.246 92.7895 381.761 91.6953V91.6953C385.426 90.8069 386.375 86.0363 383.329 83.8128V83.8128C379.577 81.0742 382.034 75.142 386.624 75.8588V75.8588C390.35 76.4407 393.052 72.3964 391.089 69.1763V69.1763C388.67 65.2103 393.21 60.6699 397.176 63.0886V63.0886C400.396 65.0522 404.441 62.3499 403.859 58.6235V58.6235C403.142 54.0338 409.074 51.5766 411.813 55.3288V55.3288C414.036 58.3753 418.807 57.4263 419.695 53.7609V53.7609Z" stroke="#7B61FF" stroke-width="2" stroke-linecap="round" stroke-linejoin="round"/>
<path d="M578.787 147.213C592.369 152.839 607.631 152.839 621.213 147.213V147.213C634.796 141.587 645.587 130.796 651.213 117.213V117.213C656.839 103.631 656.839 88.3694 651.213 74.7868V74.7868C645.587 61.2042 634.796 50.4129 621.213 44.7868V44.7868C607.631 39.1607 592.369 39.1607 578.787 44.7868V44.7868C565.204 50.4129 554.413 61.2042 548.787 74.7868V74.7868C543.161 88.3694 543.161 103.631 548.787 117.213V117.213C554.413 130.796 565.204 141.587 578.787 147.213V147.213Z" stroke="#7B61FF" stroke-width="2" stroke-linecap="round" stroke-linejoin="round"/>
<path fill-rule="evenodd" clip-rule="evenodd" d="M583.21 277.428C576.764 259.097 554.525 249.885 537.006 258.29C524.036 243.82 499.965 243.82 486.995 258.29C469.475 249.885 447.236 259.097 440.791 277.428C421.388 276.367 404.367 293.388 405.428 312.791C387.097 319.236 377.885 341.475 386.29 358.995C371.82 371.965 371.82 396.036 386.29 409.006C377.885 426.525 387.097 448.764 405.428 455.21C404.367 474.612 421.388 491.633 440.791 490.573C447.236 508.904 469.475 518.116 486.995 509.711C499.965 524.18 524.036 524.18 537.006 509.711C554.525 518.116 576.764 508.904 583.21 490.573C602.612 491.633 619.633 474.612 618.573 455.21C636.904 448.764 646.116 426.525 637.711 409.006C652.18 396.036 652.18 371.965 637.711 358.995C646.116 341.475 636.904 319.236 618.573 312.791C619.633 293.388 602.612 276.367 583.21 277.428Z" fill="#888888" fill-opacity="0.5"/>
<path d="M537.006 258.29L533.282 261.627C534.766 263.282 537.164 263.759 539.168 262.798L537.006 258.29ZM583.21 277.428L578.493 279.086C579.23 281.183 581.263 282.542 583.482 282.421L583.21 277.428ZM486.995 258.29L484.832 262.798C486.836 263.759 489.234 263.282 490.718 261.627L486.995 258.29ZM440.791 277.428L440.518 282.421C442.738 282.542 444.771 281.183 445.508 279.086L440.791 277.428ZM405.428 312.791L407.086 317.508C409.183 316.771 410.542 314.738 410.421 312.518L405.428 312.791ZM386.29 358.995L389.627 362.718C391.282 361.234 391.759 358.836 390.798 356.832L386.29 358.995ZM386.29 409.006L390.798 411.168C391.759 409.164 391.282 406.766 389.627 405.282L386.29 409.006ZM405.428 455.21L410.421 455.482C410.542 453.263 409.183 451.23 407.086 450.493L405.428 455.21ZM440.791 490.573L445.508 488.914C444.771 486.817 442.738 485.459 440.518 485.58L440.791 490.573ZM486.995 509.711L490.718 506.374C489.234 504.718 486.836 504.241 484.832 505.203L486.995 509.711ZM537.006 509.711L539.168 505.203C537.164 504.241 534.766 504.718 533.282 506.374L537.006 509.711ZM583.21 490.573L583.482 485.58C581.263 485.459 579.23 486.817 578.493 488.914L583.21 490.573ZM618.573 455.21L616.914 450.493C614.817 451.23 613.459 453.263 613.58 455.482L618.573 455.21ZM637.711 409.006L634.374 405.282C632.718 406.766 632.241 409.164 633.203 411.168L637.711 409.006ZM637.711 358.995L633.203 356.832C632.241 358.836 632.718 361.234 634.374 362.718L637.711 358.995ZM618.573 312.791L613.58 312.518C613.459 314.738 614.817 316.771 616.914 317.508L618.573 312.791ZM539.168 262.798C554.004 255.681 573.035 263.564 578.493 279.086L587.927 275.77C580.494 254.629 555.047 244.089 534.843 253.782L539.168 262.798ZM490.718 261.627C501.701 249.374 522.3 249.374 533.282 261.627L540.729 254.952C525.772 238.266 498.229 238.266 483.272 254.952L490.718 261.627ZM445.508 279.086C450.966 263.564 469.997 255.681 484.832 262.798L489.158 253.782C468.953 244.089 443.507 254.629 436.074 275.77L445.508 279.086ZM410.421 312.518C409.523 296.088 424.088 281.522 440.518 282.421L441.064 272.435C418.689 271.212 399.212 290.689 400.435 313.064L410.421 312.518ZM390.798 356.832C383.681 341.997 391.564 322.966 407.086 317.508L403.77 308.074C382.629 315.507 372.089 340.953 381.782 361.158L390.798 356.832ZM389.627 405.282C377.374 394.3 377.374 373.701 389.627 362.718L382.952 355.272C366.266 370.229 366.266 397.772 382.952 412.729L389.627 405.282ZM407.086 450.493C391.564 445.035 383.681 426.004 390.798 411.168L381.782 406.843C372.089 427.047 382.629 452.494 403.77 459.927L407.086 450.493ZM440.518 485.58C424.088 486.478 409.522 471.912 410.421 455.482L400.435 454.937C399.212 477.312 418.689 496.788 441.064 495.565L440.518 485.58ZM484.832 505.203C469.997 512.32 450.966 504.437 445.508 488.914L436.074 492.231C443.507 513.371 468.954 523.911 489.158 514.219L484.832 505.203ZM533.282 506.374C522.3 518.626 501.701 518.626 490.718 506.374L483.272 513.048C498.229 529.735 525.772 529.735 540.729 513.048L533.282 506.374ZM578.493 488.914C573.035 504.437 554.004 512.32 539.168 505.203L534.843 514.219C555.047 523.911 580.494 513.371 587.927 492.231L578.493 488.914ZM613.58 455.482C614.478 471.912 599.912 486.478 583.482 485.58L582.937 495.565C605.312 496.788 624.788 477.312 623.565 454.937L613.58 455.482ZM633.203 411.168C640.32 426.004 632.437 445.035 616.914 450.493L620.231 459.927C641.371 452.494 651.911 427.047 642.219 406.843L633.203 411.168ZM634.374 362.718C646.626 373.701 646.626 394.3 634.374 405.282L641.048 412.729C657.735 397.772 657.735 370.229 641.048 355.272L634.374 362.718ZM616.914 317.508C632.437 322.966 640.32 341.997 633.203 356.832L642.219 361.158C651.911 340.954 641.371 315.507 620.231 308.074L616.914 317.508ZM583.482 282.421C599.912 281.523 614.478 296.088 613.58 312.518L623.565 313.064C624.788 290.689 605.312 271.212 582.937 272.435L583.482 282.421Z" fill="currentColor"/>
<g opacity="0.25">
<path d="M501.586 281.809C504.233 270.886 519.767 270.886 522.415 281.809V281.809C524.564 290.677 536.106 292.973 541.485 285.602V285.602C548.111 276.524 562.463 282.469 560.729 293.573V293.573C559.321 302.589 569.106 309.127 576.896 304.376V304.376C586.492 298.524 597.476 309.509 591.625 319.104V319.104C586.874 326.895 593.412 336.679 602.427 335.271V335.271C613.531 333.537 619.476 347.889 610.398 354.515V354.515C603.028 359.894 605.324 371.436 614.192 373.586V373.586C625.114 376.233 625.114 391.767 614.192 394.415V394.415C605.324 396.564 603.028 408.106 610.398 413.485V413.485C619.476 420.111 613.531 434.463 602.427 432.729V432.729C593.412 431.321 586.874 441.106 591.625 448.896V448.896C597.476 458.492 586.492 469.476 576.896 463.625V463.625C569.106 458.874 559.321 465.412 560.729 474.427V474.427C562.463 485.531 548.111 491.476 541.485 482.398V482.398C536.106 475.028 524.564 477.324 522.415 486.192V486.192C519.767 497.114 504.233 497.114 501.586 486.192V486.192C499.436 477.324 487.894 475.028 482.515 482.398V482.398C475.889 491.476 461.537 485.531 463.271 474.427V474.427C464.679 465.412 454.895 458.874 447.104 463.625V463.625C437.509 469.476 426.524 458.492 432.376 448.896V448.896C437.127 441.106 430.589 431.321 421.573 432.729V432.729C410.469 434.463 404.524 420.111 413.602 413.485V413.485C420.973 408.106 418.677 396.564 409.809 394.415V394.415C398.886 391.767 398.886 376.233 409.809 373.586V373.586C418.677 371.436 420.973 359.894 413.602 354.515V354.515C404.524 347.889 410.469 333.537 421.573 335.271V335.271C430.589 336.679 437.127 326.895 432.376 319.104V319.104C426.524 309.509 437.509 298.524 447.104 304.376V304.376C454.895 309.126 464.679 302.589 463.271 293.573V293.573C461.537 282.469 475.889 276.524 482.515 285.602V285.602C487.894 292.973 499.436 290.677 501.586 281.809V281.809Z" stroke="currentColor" stroke-width="2.41935" stroke-linecap="round" stroke-linejoin="round"/>
<rect x="362" y="234" width="300" height="300" stroke="currentColor" stroke-width="2.41935" stroke-linecap="round" stroke-linejoin="round"/>
</g>
<path d="M170.002 621.716L169.258 622.383C169.554 622.714 170.034 622.81 170.435 622.617L170.002 621.716ZM188.484 629.371L187.54 629.703C187.688 630.122 188.095 630.394 188.538 630.37L188.484 629.371ZM149.998 621.716L149.565 622.617C149.966 622.81 150.446 622.714 150.743 622.383L149.998 621.716ZM131.516 629.371L131.462 630.37C131.906 630.394 132.312 630.122 132.46 629.703L131.516 629.371ZM117.371 643.516L117.703 644.46C118.122 644.312 118.394 643.906 118.37 643.462L117.371 643.516ZM109.716 661.998L110.383 662.743C110.714 662.446 110.81 661.966 110.617 661.565L109.716 661.998ZM109.716 682.002L110.617 682.435C110.81 682.034 110.714 681.554 110.383 681.258L109.716 682.002ZM117.371 700.484L118.37 700.538C118.394 700.095 118.122 699.688 117.703 699.54L117.371 700.484ZM131.516 714.629L132.46 714.297C132.312 713.878 131.906 713.606 131.462 713.63L131.516 714.629ZM149.998 722.284L150.743 721.617C150.446 721.286 149.966 721.19 149.565 721.383L149.998 722.284ZM170.002 722.284L170.435 721.383C170.034 721.19 169.554 721.286 169.258 721.617L170.002 722.284ZM188.484 714.629L188.538 713.63C188.094 713.606 187.688 713.878 187.54 714.297L188.484 714.629ZM202.629 700.484L202.297 699.54C201.878 699.688 201.606 700.095 201.63 700.538L202.629 700.484ZM210.284 682.002L209.617 681.258C209.286 681.554 209.19 682.034 209.383 682.435L210.284 682.002ZM210.284 661.998L209.383 661.565C209.19 661.966 209.286 662.446 209.617 662.743L210.284 661.998ZM202.629 643.516L201.63 643.462C201.606 643.906 201.878 644.312 202.297 644.46L202.629 643.516ZM170.435 622.617C176.906 619.513 185.16 622.932 187.54 629.703L189.427 629.04C186.652 621.145 177.114 617.195 169.57 620.814L170.435 622.617ZM150.743 622.383C155.533 617.039 164.467 617.039 169.258 622.383L170.747 621.048C165.162 614.817 154.839 614.817 149.253 621.048L150.743 622.383ZM132.46 629.703C134.84 622.932 143.094 619.513 149.565 622.617L150.43 620.814C142.886 617.195 133.349 621.145 130.573 629.04L132.46 629.703ZM118.37 643.462C117.978 636.295 124.295 629.978 131.462 630.37L131.571 628.373C123.215 627.916 115.916 635.215 116.373 643.571L118.37 643.462ZM110.617 661.565C107.513 655.094 110.932 646.84 117.703 644.46L117.04 642.573C109.145 645.349 105.195 654.886 108.814 662.43L110.617 661.565ZM110.383 681.258C105.039 676.467 105.039 667.533 110.383 662.743L109.048 661.253C102.817 666.839 102.817 677.162 109.048 682.747L110.383 681.258ZM117.703 699.54C110.932 697.16 107.513 688.906 110.617 682.435L108.814 681.57C105.195 689.114 109.145 698.652 117.04 701.427L117.703 699.54ZM131.462 713.63C124.295 714.022 117.978 707.705 118.37 700.538L116.373 700.429C115.916 708.785 123.215 716.084 131.571 715.628L131.462 713.63ZM149.565 721.383C143.094 724.487 134.84 721.068 132.46 714.297L130.573 714.961C133.349 722.855 142.886 726.805 150.43 723.186L149.565 721.383ZM169.258 721.617C164.467 726.961 155.533 726.961 150.743 721.617L149.253 722.952C154.839 729.183 165.162 729.183 170.747 722.952L169.258 721.617ZM187.54 714.297C185.16 721.068 176.906 724.487 170.435 721.383L169.57 723.186C177.114 726.805 186.652 722.855 189.427 714.961L187.54 714.297ZM201.63 700.538C202.022 707.705 195.705 714.022 188.538 713.63L188.429 715.628C196.785 716.084 204.084 708.785 203.628 700.429L201.63 700.538ZM209.383 682.435C212.487 688.906 209.068 697.16 202.297 699.54L202.961 701.427C210.855 698.652 214.805 689.114 211.186 681.57L209.383 682.435ZM209.617 662.743C214.961 667.533 214.961 676.467 209.617 681.258L210.952 682.747C217.183 677.162 217.183 666.839 210.952 661.253L209.617 662.743ZM202.297 644.46C209.068 646.84 212.487 655.094 209.383 661.565L211.186 662.43C214.805 654.886 210.855 645.349 202.961 642.573L202.297 644.46ZM188.538 630.37C195.705 629.978 202.022 636.295 201.63 643.462L203.628 643.571C204.084 635.215 196.785 627.916 188.429 628.373L188.538 630.37Z" fill="currentColor"/>
<path d="M328.977 624.386L329.349 624.719V624.719L328.977 624.386ZM343.024 624.386L343.396 624.052L343.024 624.386ZM324.268 625.322L324.484 624.872L324.268 625.322ZM311.29 630.698L311.762 630.864L311.29 630.698ZM307.298 633.365L307.271 633.864L307.298 633.365ZM297.365 643.298L296.866 643.325L297.365 643.298ZM294.698 647.29L294.532 646.818H294.532L294.698 647.29ZM289.322 660.268L288.872 660.484L289.322 660.268ZM288.386 664.977L288.052 664.604L288.386 664.977ZM288.386 679.024L288.052 679.396L288.386 679.024ZM289.322 683.732L288.872 683.516L289.322 683.732ZM294.698 696.71L294.532 697.182H294.532L294.698 696.71ZM297.365 700.702L297.864 700.729L297.365 700.702ZM307.298 710.635L307.271 710.136H307.271L307.298 710.635ZM311.29 713.302L310.818 713.468L311.29 713.302ZM324.268 718.678L324.052 718.227L324.268 718.678ZM328.977 719.614L329.349 719.281L328.977 719.614ZM343.024 719.614L342.651 719.281L343.024 719.614ZM347.732 718.678L347.949 718.227L347.732 718.678ZM360.71 713.302L361.182 713.468L360.71 713.302ZM364.702 710.635L364.729 710.136L364.702 710.635ZM374.635 700.702L374.136 700.729L374.635 700.702ZM377.302 696.71L377.468 697.182L377.302 696.71ZM382.678 683.732L382.227 683.949L382.678 683.732ZM383.614 679.024L383.281 678.651V678.651L383.614 679.024ZM383.614 664.977L383.281 665.349L383.614 664.977ZM382.678 660.268L382.227 660.052L382.678 660.268ZM377.302 647.29L377.468 646.818L377.302 647.29ZM374.635 643.298L374.136 643.271V643.271L374.635 643.298ZM364.702 633.365L364.675 632.866L364.702 633.365ZM360.71 630.698L361.182 630.532L360.71 630.698ZM347.732 625.322L347.516 624.872L347.732 625.322ZM346.919 617.106L346.609 617.498C346.735 617.598 346.901 617.631 347.056 617.587L346.919 617.106ZM325.081 617.106L324.944 617.587C325.099 617.631 325.265 617.598 325.391 617.498L325.081 617.106ZM304.905 625.463L304.963 625.96C305.122 625.941 305.264 625.847 305.342 625.706L304.905 625.463ZM289.463 640.905L289.706 641.342C289.847 641.264 289.941 641.122 289.96 640.963L289.463 640.905ZM281.106 661.081L281.498 661.391C281.598 661.265 281.631 661.099 281.587 660.944L281.106 661.081ZM281.106 682.919L281.587 683.056C281.631 682.901 281.598 682.735 281.498 682.609L281.106 682.919ZM289.463 703.095L289.96 703.038C289.941 702.878 289.847 702.737 289.706 702.658L289.463 703.095ZM304.905 718.537L305.342 718.294C305.264 718.153 305.122 718.059 304.963 718.041L304.905 718.537ZM325.081 726.894L325.391 726.502C325.265 726.402 325.099 726.369 324.944 726.413L325.081 726.894ZM346.919 726.894L347.056 726.413C346.901 726.369 346.735 726.402 346.609 726.502L346.919 726.894ZM367.095 718.537L367.038 718.041C366.878 718.059 366.737 718.153 366.658 718.294L367.095 718.537ZM382.537 703.095L382.294 702.658C382.153 702.737 382.059 702.878 382.041 703.038L382.537 703.095ZM390.894 682.919L390.502 682.609C390.402 682.735 390.369 682.901 390.413 683.056L390.894 682.919ZM390.894 661.081L390.413 660.944C390.369 661.099 390.402 661.265 390.502 661.391L390.894 661.081ZM382.537 640.905L382.041 640.963C382.059 641.122 382.153 641.264 382.294 641.342L382.537 640.905ZM367.095 625.463L366.658 625.706C366.737 625.847 366.878 625.941 367.038 625.96L367.095 625.463ZM329.349 624.719C332.748 620.927 339.252 620.927 342.651 624.719L343.396 624.052C339.599 619.816 332.401 619.816 328.604 624.052L329.349 624.719ZM324.052 625.773C325.855 626.638 328.014 626.209 329.349 624.719L328.604 624.052C327.566 625.211 325.887 625.545 324.484 624.872L324.052 625.773ZM311.762 630.864C313.451 626.059 319.459 623.57 324.052 625.773L324.484 624.872C319.355 622.411 312.705 625.166 310.818 630.532L311.762 630.864ZM307.271 633.864C309.268 633.974 311.098 632.751 311.762 630.864L310.818 630.532C310.302 632 308.879 632.951 307.325 632.866L307.271 633.864ZM297.864 643.271C297.587 638.185 302.185 633.587 307.271 633.864L307.325 632.866C301.645 632.556 296.556 637.645 296.866 643.325L297.864 643.271ZM294.864 647.762C296.751 647.098 297.974 645.268 297.864 643.271L296.866 643.325C296.951 644.879 296 646.302 294.532 646.818L294.864 647.762ZM289.773 660.052C287.57 655.459 290.059 649.451 294.864 647.762L294.532 646.818C289.166 648.705 286.411 655.355 288.872 660.484L289.773 660.052ZM288.719 665.349C290.209 664.014 290.638 661.855 289.773 660.052L288.872 660.484C289.545 661.887 289.211 663.566 288.052 664.604L288.719 665.349ZM288.719 678.651C284.927 675.252 284.927 668.748 288.719 665.349L288.052 664.604C283.816 668.401 283.816 675.599 288.052 679.396L288.719 678.651ZM289.773 683.949C290.638 682.145 290.209 679.987 288.719 678.651L288.052 679.396C289.211 680.435 289.545 682.113 288.872 683.516L289.773 683.949ZM294.864 696.239C290.059 694.549 287.57 688.541 289.773 683.949L288.872 683.516C286.411 688.645 289.166 695.295 294.532 697.182L294.864 696.239ZM297.864 700.729C297.974 698.732 296.751 696.902 294.864 696.239L294.532 697.182C296 697.698 296.951 699.121 296.866 700.675L297.864 700.729ZM307.271 710.136C302.185 710.414 297.587 705.815 297.864 700.729L296.866 700.675C296.556 706.355 301.645 711.445 307.325 711.134L307.271 710.136ZM311.762 713.136C311.098 711.249 309.268 710.027 307.271 710.136L307.325 711.134C308.879 711.049 310.302 712 310.818 713.468L311.762 713.136ZM324.052 718.227C319.459 720.43 313.451 717.941 311.762 713.136L310.818 713.468C312.705 718.835 319.355 721.589 324.484 719.129L324.052 718.227ZM329.349 719.281C328.014 717.791 325.855 717.362 324.052 718.227L324.484 719.129C325.887 718.456 327.566 718.79 328.604 719.948L329.349 719.281ZM342.651 719.281C339.252 723.073 332.748 723.073 329.349 719.281L328.604 719.948C332.401 724.184 339.599 724.184 343.396 719.948L342.651 719.281ZM347.949 718.227C346.145 717.362 343.987 717.791 342.651 719.281L343.396 719.948C344.435 718.79 346.113 718.456 347.516 719.129L347.949 718.227ZM360.239 713.136C358.549 717.941 352.541 720.43 347.949 718.227L347.516 719.129C352.645 721.589 359.295 718.835 361.182 713.468L360.239 713.136ZM364.729 710.136C362.732 710.027 360.902 711.249 360.239 713.136L361.182 713.468C361.698 712 363.121 711.049 364.675 711.134L364.729 710.136ZM374.136 700.729C374.414 705.815 369.815 710.414 364.729 710.136L364.675 711.134C370.355 711.445 375.445 706.355 375.134 700.675L374.136 700.729ZM377.136 696.239C375.249 696.902 374.027 698.732 374.136 700.729L375.134 700.675C375.049 699.121 376 697.698 377.468 697.182L377.136 696.239ZM382.227 683.949C384.43 688.541 381.941 694.549 377.136 696.239L377.468 697.182C382.835 695.295 385.589 688.645 383.129 683.516L382.227 683.949ZM383.281 678.651C381.791 679.987 381.362 682.145 382.227 683.949L383.129 683.516C382.456 682.113 382.79 680.435 383.948 679.396L383.281 678.651ZM383.281 665.349C387.073 668.748 387.073 675.252 383.281 678.651L383.948 679.396C388.184 675.599 388.184 668.401 383.948 664.604L383.281 665.349ZM382.227 660.052C381.362 661.855 381.791 664.014 383.281 665.349L383.948 664.604C382.79 663.566 382.456 661.887 383.129 660.484L382.227 660.052ZM377.136 647.762C381.941 649.451 384.43 655.459 382.227 660.052L383.129 660.484C385.589 655.355 382.835 648.705 377.468 646.818L377.136 647.762ZM374.136 643.271C374.027 645.268 375.249 647.098 377.136 647.762L377.468 646.818C376 646.302 375.049 644.879 375.134 643.325L374.136 643.271ZM364.729 633.864C369.815 633.587 374.414 638.185 374.136 643.271L375.134 643.325C375.445 637.645 370.355 632.556 364.675 632.866L364.729 633.864ZM360.239 630.864C360.902 632.751 362.732 633.974 364.729 633.864L364.675 632.866C363.121 632.951 361.698 632 361.182 630.532L360.239 630.864ZM347.949 625.773C352.541 623.57 358.549 626.059 360.239 630.864L361.182 630.532C359.295 625.166 352.645 622.411 347.516 624.872L347.949 625.773ZM342.651 624.719C343.987 626.209 346.145 626.638 347.949 625.773L347.516 624.872C346.113 625.545 344.435 625.211 343.396 624.052L342.651 624.719ZM347.23 616.714C340.77 611.595 331.231 611.595 324.77 616.714L325.391 617.498C331.488 612.667 340.512 612.667 346.609 617.498L347.23 616.714ZM325.218 616.625C317.291 614.368 308.478 618.019 304.468 625.22L305.342 625.706C309.126 618.911 317.463 615.457 324.944 617.587L325.218 616.625ZM304.847 624.966C296.66 625.915 289.915 632.66 288.966 640.847L289.96 640.963C290.855 633.236 297.236 626.855 304.963 625.96L304.847 624.966ZM289.22 640.468C282.019 644.478 278.368 653.291 280.625 661.218L281.587 660.944C279.457 653.463 282.911 645.126 289.706 641.342L289.22 640.468ZM280.714 660.77C275.595 667.231 275.595 676.77 280.714 683.23L281.498 682.609C276.667 676.512 276.667 667.488 281.498 661.391L280.714 660.77ZM280.625 682.782C278.368 690.71 282.019 699.522 289.22 703.532L289.706 702.658C282.911 698.875 279.457 690.537 281.587 683.056L280.625 682.782ZM288.966 703.153C289.915 711.34 296.66 718.085 304.847 719.034L304.963 718.041C297.236 717.145 290.855 710.764 289.96 703.038L288.966 703.153ZM304.468 718.78C308.478 725.982 317.291 729.632 325.218 727.375L324.944 726.413C317.463 728.543 309.126 725.09 305.342 718.294L304.468 718.78ZM324.77 727.286C331.231 732.405 340.77 732.405 347.23 727.286L346.609 726.502C340.512 731.333 331.488 731.333 325.391 726.502L324.77 727.286ZM346.782 727.375C354.71 729.632 363.522 725.982 367.532 718.78L366.658 718.294C362.875 725.09 354.537 728.543 347.056 726.413L346.782 727.375ZM367.153 719.034C375.34 718.085 382.085 711.34 383.034 703.153L382.041 703.038C381.145 710.764 374.764 717.145 367.038 718.041L367.153 719.034ZM382.78 703.532C389.982 699.522 393.632 690.71 391.375 682.782L390.413 683.056C392.543 690.537 389.09 698.875 382.294 702.658L382.78 703.532ZM391.286 683.23C396.405 676.77 396.405 667.231 391.286 660.77L390.502 661.391C395.333 667.488 395.333 676.512 390.502 682.609L391.286 683.23ZM391.375 661.218C393.632 653.291 389.982 644.478 382.78 640.468L382.294 641.342C389.09 645.126 392.543 653.463 390.413 660.944L391.375 661.218ZM383.034 640.847C382.085 632.66 375.34 625.915 367.153 624.966L367.038 625.96C374.764 626.855 381.145 633.236 382.041 640.963L383.034 640.847ZM367.532 625.22C363.522 618.019 354.71 614.368 346.782 616.625L347.056 617.587C354.537 615.457 362.875 618.911 366.658 625.706L367.532 625.22Z" fill="currentColor"/>
<path fill-rule="evenodd" clip-rule="evenodd" d="M540.484 629.371C537.906 622.039 529.01 618.354 522.002 621.716C516.814 615.928 507.186 615.928 501.998 621.716C494.99 618.354 486.094 622.039 483.516 629.371C475.755 628.947 468.947 635.755 469.371 643.516C462.039 646.094 458.354 654.99 461.716 661.998C455.928 667.186 455.928 676.814 461.716 682.002C458.354 689.01 462.039 697.906 469.371 700.484C468.947 708.245 475.755 715.053 483.516 714.629C486.094 721.962 494.99 725.646 501.998 722.284C507.186 728.072 516.814 728.072 522.002 722.284C529.01 725.646 537.906 721.962 540.484 714.629C548.245 715.053 555.053 708.245 554.629 700.484C561.962 697.906 565.646 689.01 562.284 682.002C568.072 676.814 568.072 667.186 562.284 661.998C565.646 654.99 561.962 646.094 554.629 643.516C555.053 635.755 548.245 628.947 540.484 629.371Z" fill="currentColor"/>
<path d="M522.002 621.716L520.513 623.051C521.106 623.713 522.066 623.904 522.867 623.519L522.002 621.716ZM540.484 629.371L538.597 630.035C538.892 630.873 539.705 631.417 540.593 631.368L540.484 629.371ZM501.998 621.716L501.133 623.519C501.935 623.904 502.894 623.713 503.487 623.051L501.998 621.716ZM483.516 629.371L483.407 631.368C484.295 631.417 485.108 630.873 485.403 630.035L483.516 629.371ZM469.371 643.516L470.035 645.403C470.873 645.108 471.417 644.295 471.368 643.407L469.371 643.516ZM461.716 661.998L463.051 663.487C463.713 662.894 463.904 661.935 463.519 661.133L461.716 661.998ZM461.716 682.002L463.519 682.867C463.904 682.066 463.713 681.106 463.051 680.513L461.716 682.002ZM469.371 700.484L471.368 700.593C471.417 699.705 470.873 698.892 470.035 698.597L469.371 700.484ZM483.516 714.629L485.403 713.966C485.108 713.127 484.295 712.583 483.407 712.632L483.516 714.629ZM501.998 722.284L503.487 720.949C502.894 720.287 501.935 720.097 501.133 720.481L501.998 722.284ZM522.002 722.284L522.867 720.481C522.066 720.097 521.106 720.287 520.513 720.949L522.002 722.284ZM540.484 714.629L540.593 712.632C539.705 712.583 538.892 713.127 538.597 713.966L540.484 714.629ZM554.629 700.484L553.966 698.597C553.127 698.892 552.583 699.705 552.632 700.593L554.629 700.484ZM562.284 682.002L560.949 680.513C560.287 681.106 560.097 682.066 560.481 682.867L562.284 682.002ZM562.284 661.998L560.481 661.133C560.097 661.935 560.287 662.894 560.949 663.487L562.284 661.998ZM554.629 643.516L552.632 643.407C552.583 644.295 553.127 645.108 553.966 645.403L554.629 643.516ZM522.867 623.519C528.802 620.672 536.414 623.825 538.597 630.035L542.371 628.708C539.397 620.252 529.219 616.036 521.137 619.913L522.867 623.519ZM503.487 623.051C507.88 618.15 516.12 618.15 520.513 623.051L523.492 620.381C517.509 613.706 506.491 613.706 500.509 620.381L503.487 623.051ZM485.403 630.035C487.586 623.825 495.199 620.672 501.133 623.519L502.863 619.913C494.781 616.036 484.603 620.252 481.63 628.708L485.403 630.035ZM471.368 643.407C471.009 636.835 476.835 631.009 483.407 631.368L483.626 627.374C474.675 626.885 466.885 634.675 467.374 643.626L471.368 643.407ZM463.519 661.133C460.672 655.199 463.825 647.586 470.035 645.403L468.708 641.63C460.252 644.603 456.036 654.781 459.913 662.863L463.519 661.133ZM463.051 680.513C458.15 676.12 458.15 667.88 463.051 663.487L460.381 660.509C453.706 666.491 453.706 677.509 460.381 683.492L463.051 680.513ZM470.035 698.597C463.825 696.414 460.672 688.802 463.519 682.867L459.913 681.137C456.036 689.219 460.252 699.397 468.708 702.371L470.035 698.597ZM483.407 712.632C476.835 712.991 471.009 707.165 471.368 700.593L467.374 700.375C466.885 709.325 474.675 717.115 483.626 716.626L483.407 712.632ZM501.133 720.481C495.199 723.328 487.586 720.175 485.403 713.966L481.63 715.292C484.603 723.748 494.781 727.965 502.863 724.088L501.133 720.481ZM520.513 720.949C516.12 725.85 507.88 725.85 503.487 720.949L500.509 723.619C506.491 730.294 517.509 730.294 523.492 723.619L520.513 720.949ZM538.597 713.966C536.414 720.175 528.802 723.328 522.867 720.481L521.137 724.088C529.219 727.965 539.397 723.748 542.371 715.292L538.597 713.966ZM552.632 700.593C552.991 707.165 547.165 712.991 540.593 712.632L540.375 716.626C549.325 717.115 557.115 709.325 556.626 700.375L552.632 700.593ZM560.481 682.867C563.328 688.802 560.175 696.414 553.966 698.597L555.292 702.371C563.748 699.397 567.965 689.219 564.088 681.137L560.481 682.867ZM560.949 663.487C565.85 667.88 565.85 676.12 560.949 680.513L563.619 683.492C570.294 677.509 570.294 666.491 563.619 660.509L560.949 663.487ZM553.966 645.403C560.175 647.586 563.328 655.199 560.481 661.133L564.088 662.863C567.965 654.781 563.748 644.603 555.292 641.63L553.966 645.403ZM540.593 631.368C547.165 631.009 552.991 636.835 552.632 643.407L556.626 643.626C557.115 634.675 549.325 626.885 540.375 627.374L540.593 631.368Z" fill="currentColor"/>
<g opacity="0.25">
<path fill-rule="evenodd" clip-rule="evenodd" d="M716.484 629.371C713.906 622.039 705.01 618.354 698.002 621.716C692.814 615.928 683.186 615.928 677.998 621.716C670.99 618.354 662.094 622.039 659.516 629.371C651.755 628.947 644.947 635.755 645.371 643.516C638.039 646.094 634.354 654.99 637.716 661.998C631.928 667.186 631.928 676.814 637.716 682.002C634.354 689.01 638.039 697.906 645.371 700.484C644.947 708.245 651.755 715.053 659.516 714.629C662.094 721.962 670.99 725.646 677.998 722.284C683.186 728.072 692.814 728.072 698.002 722.284C705.01 725.646 713.906 721.962 716.484 714.629C724.245 715.053 731.053 708.245 730.629 700.484C737.962 697.906 741.646 689.01 738.284 682.002C744.072 676.814 744.072 667.186 738.284 661.998C741.646 654.99 737.962 646.094 730.629 643.516C731.053 635.755 724.245 628.947 716.484 629.371Z" fill="currentColor"/>
<path d="M698.002 621.716L696.513 623.051C697.106 623.713 698.066 623.904 698.867 623.519L698.002 621.716ZM716.484 629.371L714.597 630.035C714.892 630.873 715.705 631.417 716.593 631.368L716.484 629.371ZM677.998 621.716L677.133 623.519C677.935 623.904 678.894 623.713 679.487 623.051L677.998 621.716ZM659.516 629.371L659.407 631.368C660.295 631.417 661.108 630.873 661.403 630.035L659.516 629.371ZM645.371 643.516L646.035 645.403C646.873 645.108 647.417 644.295 647.368 643.407L645.371 643.516ZM637.716 661.998L639.051 663.487C639.713 662.894 639.904 661.935 639.519 661.133L637.716 661.998ZM637.716 682.002L639.519 682.867C639.904 682.066 639.713 681.106 639.051 680.513L637.716 682.002ZM645.371 700.484L647.368 700.593C647.417 699.705 646.873 698.892 646.035 698.597L645.371 700.484ZM659.516 714.629L661.403 713.966C661.108 713.127 660.295 712.583 659.407 712.632L659.516 714.629ZM677.998 722.284L679.487 720.949C678.894 720.287 677.935 720.097 677.133 720.481L677.998 722.284ZM698.002 722.284L698.867 720.481C698.066 720.097 697.106 720.287 696.513 720.949L698.002 722.284ZM716.484 714.629L716.593 712.632C715.705 712.583 714.892 713.127 714.597 713.966L716.484 714.629ZM730.629 700.484L729.966 698.597C729.127 698.892 728.583 699.705 728.632 700.593L730.629 700.484ZM738.284 682.002L736.949 680.513C736.287 681.106 736.097 682.066 736.481 682.867L738.284 682.002ZM738.284 661.998L736.481 661.133C736.097 661.935 736.287 662.894 736.949 663.487L738.284 661.998ZM730.629 643.516L728.632 643.407C728.583 644.295 729.127 645.108 729.966 645.403L730.629 643.516ZM698.867 623.519C704.802 620.672 712.414 623.825 714.597 630.035L718.371 628.708C715.397 620.252 705.219 616.036 697.137 619.913L698.867 623.519ZM679.487 623.051C683.88 618.15 692.12 618.15 696.513 623.051L699.492 620.381C693.509 613.706 682.491 613.706 676.509 620.381L679.487 623.051ZM661.403 630.035C663.586 623.825 671.199 620.672 677.133 623.519L678.863 619.913C670.781 616.036 660.603 620.252 657.63 628.708L661.403 630.035ZM647.368 643.407C647.009 636.835 652.835 631.009 659.407 631.368L659.626 627.374C650.675 626.885 642.885 634.675 643.374 643.626L647.368 643.407ZM639.519 661.133C636.672 655.199 639.825 647.586 646.035 645.403L644.708 641.63C636.252 644.603 632.036 654.781 635.913 662.863L639.519 661.133ZM639.051 680.513C634.15 676.12 634.15 667.88 639.051 663.487L636.381 660.509C629.706 666.491 629.706 677.509 636.381 683.492L639.051 680.513ZM646.035 698.597C639.825 696.414 636.672 688.802 639.519 682.867L635.913 681.137C632.036 689.219 636.252 699.397 644.708 702.371L646.035 698.597ZM659.407 712.632C652.835 712.991 647.009 707.165 647.368 700.593L643.374 700.375C642.885 709.325 650.675 717.115 659.626 716.626L659.407 712.632ZM677.133 720.481C671.199 723.328 663.586 720.175 661.403 713.966L657.63 715.292C660.603 723.748 670.781 727.965 678.863 724.088L677.133 720.481ZM696.513 720.949C692.12 725.85 683.88 725.85 679.487 720.949L676.509 723.619C682.491 730.294 693.509 730.294 699.492 723.619L696.513 720.949ZM714.597 713.966C712.414 720.175 704.802 723.328 698.867 720.481L697.137 724.088C705.219 727.965 715.397 723.748 718.371 715.292L714.597 713.966ZM728.632 700.593C728.991 707.165 723.165 712.991 716.593 712.632L716.375 716.626C725.325 717.115 733.115 709.325 732.626 700.375L728.632 700.593ZM736.481 682.867C739.328 688.802 736.175 696.414 729.966 698.597L731.292 702.371C739.748 699.397 743.965 689.219 740.088 681.137L736.481 682.867ZM736.949 663.487C741.85 667.88 741.85 676.12 736.949 680.513L739.619 683.492C746.294 677.509 746.294 666.491 739.619 660.509L736.949 663.487ZM729.966 645.403C736.175 647.586 739.328 655.199 736.481 661.133L740.088 662.863C743.965 654.781 739.748 644.603 731.292 641.63L729.966 645.403ZM716.593 631.368C723.165 631.009 728.991 636.835 728.632 643.407L732.626 643.626C733.115 634.675 725.325 626.885 716.375 627.374L716.593 631.368Z" fill="currentColor"/>
</g>
<path fill-rule="evenodd" clip-rule="evenodd" d="M892.484 629.371C889.906 622.039 881.01 618.354 874.002 621.716C868.814 615.928 859.186 615.928 853.998 621.716C846.99 618.354 838.094 622.039 835.516 629.371C827.755 628.947 820.947 635.755 821.371 643.516C814.039 646.094 810.354 654.99 813.716 661.998C807.928 667.186 807.928 676.814 813.716 682.002C810.354 689.01 814.039 697.906 821.371 700.484C820.947 708.245 827.755 715.053 835.516 714.629C838.094 721.962 846.99 725.646 853.998 722.284C859.186 728.072 868.814 728.072 874.002 722.284C881.01 725.646 889.906 721.962 892.484 714.629C900.245 715.053 907.053 708.245 906.629 700.484C913.962 697.906 917.646 689.01 914.284 682.002C920.072 676.814 920.072 667.186 914.284 661.998C917.646 654.99 913.962 646.094 906.629 643.516C907.053 635.755 900.245 628.947 892.484 629.371Z" fill="#FFA500"/>
<path d="M874.002 621.716L872.513 623.051C873.106 623.713 874.066 623.904 874.867 623.519L874.002 621.716ZM892.484 629.371L890.597 630.035C890.892 630.873 891.705 631.417 892.593 631.368L892.484 629.371ZM853.998 621.716L853.133 623.519C853.935 623.904 854.894 623.713 855.487 623.051L853.998 621.716ZM835.516 629.371L835.407 631.368C836.295 631.417 837.108 630.873 837.403 630.035L835.516 629.371ZM821.371 643.516L822.035 645.403C822.873 645.108 823.417 644.295 823.368 643.407L821.371 643.516ZM813.716 661.998L815.051 663.487C815.713 662.894 815.904 661.935 815.519 661.133L813.716 661.998ZM813.716 682.002L815.519 682.867C815.904 682.066 815.713 681.106 815.051 680.513L813.716 682.002ZM821.371 700.484L823.368 700.593C823.417 699.705 822.873 698.892 822.035 698.597L821.371 700.484ZM835.516 714.629L837.403 713.966C837.108 713.127 836.295 712.583 835.407 712.632L835.516 714.629ZM853.998 722.284L855.487 720.949C854.894 720.287 853.935 720.097 853.133 720.481L853.998 722.284ZM874.002 722.284L874.867 720.481C874.066 720.097 873.106 720.287 872.513 720.949L874.002 722.284ZM892.484 714.629L892.593 712.632C891.705 712.583 890.892 713.127 890.597 713.966L892.484 714.629ZM906.629 700.484L905.966 698.597C905.127 698.892 904.583 699.705 904.632 700.593L906.629 700.484ZM914.284 682.002L912.949 680.513C912.287 681.106 912.097 682.066 912.481 682.867L914.284 682.002ZM914.284 661.998L912.481 661.133C912.097 661.935 912.287 662.894 912.949 663.487L914.284 661.998ZM906.629 643.516L904.632 643.407C904.583 644.295 905.127 645.108 905.966 645.403L906.629 643.516ZM874.867 623.519C880.802 620.672 888.414 623.825 890.597 630.035L894.371 628.708C891.397 620.252 881.219 616.036 873.137 619.913L874.867 623.519ZM855.487 623.051C859.88 618.15 868.12 618.15 872.513 623.051L875.492 620.381C869.509 613.706 858.491 613.706 852.509 620.381L855.487 623.051ZM837.403 630.035C839.586 623.825 847.199 620.672 853.133 623.519L854.863 619.913C846.781 616.036 836.603 620.252 833.63 628.708L837.403 630.035ZM823.368 643.407C823.009 636.835 828.835 631.009 835.407 631.368L835.626 627.374C826.675 626.885 818.885 634.675 819.374 643.626L823.368 643.407ZM815.519 661.133C812.672 655.199 815.825 647.586 822.035 645.403L820.708 641.63C812.252 644.603 808.036 654.781 811.913 662.863L815.519 661.133ZM815.051 680.513C810.15 676.12 810.15 667.88 815.051 663.487L812.381 660.509C805.706 666.491 805.706 677.509 812.381 683.492L815.051 680.513ZM822.035 698.597C815.825 696.414 812.672 688.802 815.519 682.867L811.913 681.137C808.036 689.219 812.252 699.397 820.708 702.371L822.035 698.597ZM835.407 712.632C828.835 712.991 823.009 707.165 823.368 700.593L819.374 700.375C818.885 709.325 826.675 717.115 835.626 716.626L835.407 712.632ZM853.133 720.481C847.199 723.328 839.586 720.175 837.403 713.966L833.63 715.292C836.603 723.748 846.781 727.965 854.863 724.088L853.133 720.481ZM872.513 720.949C868.12 725.85 859.88 725.85 855.487 720.949L852.509 723.619C858.491 730.294 869.509 730.294 875.492 723.619L872.513 720.949ZM890.597 713.966C888.414 720.175 880.802 723.328 874.867 720.481L873.137 724.088C881.219 727.965 891.397 723.748 894.371 715.292L890.597 713.966ZM904.632 700.593C904.991 707.165 899.165 712.991 892.593 712.632L892.375 716.626C901.325 717.115 909.115 709.325 908.626 700.375L904.632 700.593ZM912.481 682.867C915.328 688.802 912.175 696.414 905.966 698.597L907.292 702.371C915.748 699.397 919.965 689.219 916.088 681.137L912.481 682.867ZM912.949 663.487C917.85 667.88 917.85 676.12 912.949 680.513L915.619 683.492C922.294 677.509 922.294 666.491 915.619 660.509L912.949 663.487ZM905.966 645.403C912.175 647.586 915.328 655.199 912.481 661.133L916.088 662.863C919.965 654.781 915.748 644.603 907.292 641.63L905.966 645.403ZM892.593 631.368C899.165 631.009 904.991 636.835 904.632 643.407L908.626 643.626C909.115 634.675 901.325 626.885 892.375 627.374L892.593 631.368Z" fill="#FFA500"/>
</svg>
