<svg viewBox="0 0 1024 768" fill="none" xmlns="http://www.w3.org/2000/svg">
<path d="M419.803 54.7397C420.807 50.2583 427.193 50.2583 428.197 54.7397V54.7397C429.013 58.3826 433.764 59.3277 435.912 56.2743V56.2743C438.554 52.5181 444.455 54.9622 443.667 59.4866V59.4866C443.027 63.1645 447.055 65.8558 450.208 63.8568V63.8568C454.086 61.3977 458.602 65.9138 456.143 69.7924V69.7924C454.144 72.9452 456.836 76.9731 460.513 76.3328V76.3328C465.038 75.5451 467.482 81.4457 463.726 84.088V84.088C460.672 86.2358 461.617 90.987 465.26 91.8029V91.8029C469.742 92.8066 469.742 99.1934 465.26 100.197V100.197C461.617 101.013 460.672 105.764 463.726 107.912V107.912C467.482 110.554 465.038 116.455 460.513 115.667V115.667C456.836 115.027 454.144 119.055 456.143 122.208V122.208C458.602 126.086 454.086 130.602 450.208 128.143V128.143C447.055 126.144 443.027 128.836 443.667 132.513V132.513C444.455 137.038 438.554 139.482 435.912 135.726V135.726C433.764 132.672 429.013 133.617 428.197 137.26V137.26C427.193 141.742 420.807 141.742 419.803 137.26V137.26C418.987 133.617 414.236 132.672 412.088 135.726V135.726C409.446 139.482 403.545 137.038 404.333 132.513V132.513C404.973 128.836 400.945 126.144 397.792 128.143V128.143C393.914 130.602 389.398 126.086 391.857 122.208V122.208C393.856 119.055 391.164 115.027 387.487 115.667V115.667C382.962 116.455 380.518 110.554 384.274 107.912V107.912C387.328 105.764 386.383 101.013 382.74 100.197V100.197C378.258 99.1934 378.258 92.8066 382.74 91.8029V91.8029C386.383 90.987 387.328 86.2358 384.274 84.088V84.088C380.518 81.4457 382.962 75.5451 387.487 76.3328V76.3328C391.164 76.9731 393.856 72.9452 391.857 69.7924V69.7924C389.398 65.9138 393.914 61.3977 397.792 63.8568V63.8568C400.945 65.8558 404.973 63.1645 404.333 59.4866V59.4866C403.545 54.9622 409.446 52.5181 412.088 56.2743V56.2743C414.236 59.3277 418.987 58.3826 419.803 54.7397V54.7397Z" stroke="#7B61FF" stroke-width="2" stroke-linecap="round" stroke-linejoin="round"/>
<path d="M578.787 147.213C592.369 152.839 607.631 152.839 621.213 147.213V147.213C634.796 141.587 645.587 130.796 651.213 117.213V117.213C656.839 103.631 656.839 88.3694 651.213 74.7868V74.7868C645.587 61.2042 634.796 50.4129 621.213 44.7868V44.7868C607.631 39.1607 592.369 39.1607 578.787 44.7868V44.7868C565.204 50.4129 554.413 61.2042 548.787 74.7868V74.7868C543.161 88.3694 543.161 103.631 548.787 117.213V117.213C554.413 130.796 565.204 141.587 578.787 147.213V147.213Z" stroke="#7B61FF" stroke-width="2" stroke-linecap="round" stroke-linejoin="round"/>
<path fill-rule="evenodd" clip-rule="evenodd" d="M638.365 419H385.635C385.968 415.45 386.888 411.926 388.454 408.574C374.444 395.758 374.444 372.241 388.454 359.425C380.415 342.223 389.415 320.496 407.263 314.016C406.419 295.048 423.048 278.418 442.017 279.262C448.496 261.415 470.223 252.415 487.425 260.454C500.241 246.444 523.759 246.444 536.575 260.454C553.777 252.415 575.504 261.415 581.983 279.262C600.952 278.418 617.581 295.048 616.737 314.016C634.585 320.496 643.585 342.223 635.546 359.425C649.556 372.241 649.556 395.758 635.546 408.574C637.113 411.926 638.032 415.45 638.365 419Z" fill="#888888" fill-opacity="0.5"/>
<path d="M638.365 419V424C639.773 424 641.115 423.407 642.062 422.366C643.01 421.325 643.475 419.934 643.343 418.532L638.365 419ZM385.635 419L380.657 418.532C380.525 419.934 380.991 421.325 381.938 422.366C382.886 423.407 384.228 424 385.635 424V419ZM388.454 408.574L392.984 410.691C393.909 408.712 393.441 406.36 391.829 404.885L388.454 408.574ZM388.454 359.425L391.829 363.114C393.441 361.639 393.909 359.288 392.984 357.308L388.454 359.425ZM407.263 314.016L408.969 318.716C411.023 317.971 412.355 315.977 412.258 313.794L407.263 314.016ZM442.017 279.262L441.795 284.257C443.978 284.355 445.971 283.023 446.717 280.969L442.017 279.262ZM487.425 260.454L485.308 264.983C487.288 265.909 489.639 265.441 491.115 263.829L487.425 260.454ZM536.575 260.454L532.886 263.829C534.361 265.441 536.712 265.909 538.692 264.983L536.575 260.454ZM581.983 279.262L577.283 280.969C578.029 283.023 580.022 284.355 582.206 284.257L581.983 279.262ZM616.737 314.016L611.742 313.794C611.645 315.977 612.977 317.971 615.031 318.716L616.737 314.016ZM635.546 359.425L631.016 357.308C630.091 359.288 630.559 361.639 632.171 363.114L635.546 359.425ZM635.546 408.574L632.171 404.885C630.559 406.36 630.091 408.712 631.016 410.691L635.546 408.574ZM638.365 414H385.635V424H638.365V414ZM390.613 419.467C390.895 416.465 391.67 413.502 392.984 410.691L383.924 406.458C382.105 410.351 381.041 414.435 380.657 418.532L390.613 419.467ZM391.829 404.885C379.986 394.051 379.986 373.948 391.829 363.114L385.079 355.736C368.903 370.534 368.903 397.465 385.079 412.264L391.829 404.885ZM392.984 357.308C386.188 342.767 393.882 324.193 408.969 318.716L405.557 309.317C384.948 316.798 374.642 341.679 383.924 361.542L392.984 357.308ZM412.258 313.794C411.544 297.759 425.76 283.544 441.795 284.257L442.239 274.267C420.337 273.293 401.293 292.336 402.268 314.239L412.258 313.794ZM446.717 280.969C452.194 265.881 470.767 258.188 485.308 264.983L489.542 255.924C469.68 246.642 444.798 256.948 437.317 277.556L446.717 280.969ZM491.115 263.829C501.948 251.986 522.052 251.986 532.886 263.829L540.264 257.079C525.466 240.902 498.534 240.902 483.736 257.079L491.115 263.829ZM538.692 264.983C553.233 258.188 571.806 265.881 577.283 280.969L586.683 277.556C579.202 256.948 554.321 246.642 534.458 255.924L538.692 264.983ZM582.206 284.257C598.241 283.544 612.456 297.759 611.742 313.794L621.732 314.239C622.707 292.336 603.664 273.293 581.761 274.267L582.206 284.257ZM615.031 318.716C630.119 324.193 637.812 342.767 631.016 357.308L640.076 361.542C649.358 341.679 639.052 316.798 618.444 309.317L615.031 318.716ZM632.171 363.114C644.014 373.948 644.014 394.051 632.171 404.885L638.921 412.264C655.098 397.465 655.098 370.534 638.921 355.736L632.171 363.114ZM631.016 410.691C632.33 413.502 633.105 416.465 633.387 419.467L643.343 418.532C642.959 414.435 641.895 410.351 640.076 406.458L631.016 410.691Z" fill="currentColor"/>
<path fill-rule="evenodd" clip-rule="evenodd" d="M542 499L532 472.333V419L512 419L492 419V472.333L482 499L492 499H532L542 499Z" fill="#888888" fill-opacity="0.5"/>
<path d="M532 472.333H527C527 472.933 527.108 473.528 527.318 474.089L532 472.333ZM542 499L542 504C543.64 504 545.176 503.196 546.11 501.848C547.044 500.5 547.257 498.78 546.682 497.244L542 499ZM532 419H537C537 416.239 534.761 414 532 414L532 419ZM512 419L512 414H512L512 419ZM492 419L492 414C489.239 414 487 416.239 487 419H492ZM492 472.333L496.682 474.089C496.892 473.528 497 472.933 497 472.333H492ZM482 499L477.318 497.244C476.743 498.78 476.956 500.5 477.89 501.848C478.824 503.196 480.36 504 482 504L482 499ZM492 499L492 504H492V499ZM532 499V504H532L532 499ZM527.318 474.089L537.318 500.756L546.682 497.244L536.682 470.578L527.318 474.089ZM527 419V472.333H537V419H527ZM512 424L532 424L532 414L512 414L512 424ZM492 424L512 424L512 414L492 414L492 424ZM497 472.333V419H487V472.333H497ZM486.682 500.756L496.682 474.089L487.318 470.578L477.318 497.244L486.682 500.756ZM492 494L482 494L482 504L492 504L492 494ZM532 494H492V504H532V494ZM542 494L532 494L532 504L542 504L542 494Z" fill="currentColor"/>
<g opacity="0.25">
<path d="M501.846 284.177C504.274 273.335 519.726 273.335 522.154 284.177V284.177C524.128 292.99 535.623 295.277 540.82 287.89V287.89C547.212 278.802 561.488 284.715 559.582 295.661V295.661C558.033 304.559 567.778 311.071 575.406 306.234V306.234C584.789 300.285 595.715 311.211 589.766 320.595V320.595C584.93 328.222 591.441 337.967 600.339 336.418V336.418C611.285 334.513 617.198 348.788 608.111 355.181V355.181C600.724 360.377 603.01 371.872 611.823 373.846V373.846C622.666 376.274 622.666 391.726 611.823 394.154V394.154C603.01 396.128 600.724 407.623 608.111 412.82V412.82C617.198 419.212 611.285 433.488 600.339 431.582V431.582C591.441 430.033 584.93 439.778 589.766 447.406V447.406C595.715 456.789 584.789 467.715 575.406 461.766V461.766C567.778 456.93 558.033 463.441 559.582 472.339V472.339C561.488 483.285 547.212 489.198 540.82 480.111V480.111C535.623 472.724 524.128 475.01 522.154 483.823V483.823C519.726 494.666 504.274 494.666 501.846 483.823V483.823C499.872 475.01 488.377 472.724 483.181 480.111V480.111C476.788 489.198 462.513 483.285 464.418 472.339V472.339C465.967 463.441 456.222 456.93 448.595 461.766V461.766C439.211 467.715 428.285 456.789 434.234 447.406V447.406C439.071 439.778 432.559 430.033 423.661 431.582V431.582C412.715 433.488 406.802 419.212 415.89 412.82V412.82C423.277 407.623 420.99 396.128 412.177 394.154V394.154C401.335 391.726 401.335 376.274 412.177 373.846V373.846C420.99 371.872 423.277 360.377 415.89 355.181V355.181C406.802 348.788 412.715 334.513 423.661 336.418V336.418C432.559 337.967 439.071 328.222 434.234 320.595V320.595C428.285 311.211 439.211 300.285 448.595 306.234V306.234C456.222 311.071 465.967 304.559 464.418 295.661V295.661C462.513 284.715 476.788 278.802 483.181 287.89V287.89C488.377 295.277 499.872 292.99 501.846 284.177V284.177Z" stroke="currentColor" stroke-width="2.41935" stroke-linecap="round" stroke-linejoin="round"/>
<rect x="362" y="234" width="300" height="183.871" stroke="currentColor" stroke-width="2.41935" stroke-linecap="round" stroke-linejoin="round"/>
<path d="M512 417.871L541.032 495.29H482.968L512 417.871Z" stroke="currentColor" stroke-width="2.41935" stroke-linecap="round" stroke-linejoin="round"/>
</g>
<path d="M210.546 686V687C210.828 687 211.096 686.882 211.286 686.673C211.475 686.465 211.568 686.187 211.542 685.907L210.546 686ZM109.454 686L108.459 685.907C108.432 686.187 108.525 686.465 108.715 686.673C108.904 686.882 109.173 687 109.454 687V686ZM110.582 681.83L111.488 682.254C111.673 681.858 111.579 681.387 111.257 681.092L110.582 681.83ZM110.582 662.17L111.257 662.908C111.579 662.613 111.673 662.143 111.488 661.747L110.582 662.17ZM118.105 644.007L118.447 644.947C118.857 644.798 119.124 644.399 119.104 643.963L118.105 644.007ZM132.007 630.105L131.963 631.104C132.399 631.124 132.798 630.857 132.947 630.447L132.007 630.105ZM150.17 622.582L149.747 623.488C150.143 623.673 150.613 623.579 150.908 623.257L150.17 622.582ZM169.83 622.582L169.092 623.257C169.387 623.579 169.858 623.673 170.254 623.488L169.83 622.582ZM187.994 630.105L187.054 630.447C187.203 630.857 187.601 631.124 188.038 631.104L187.994 630.105ZM201.895 644.007L200.896 643.963C200.877 644.399 201.143 644.798 201.554 644.947L201.895 644.007ZM209.419 662.17L208.513 661.747C208.328 662.143 208.421 662.613 208.744 662.908L209.419 662.17ZM209.419 681.83L208.744 681.092C208.421 681.387 208.328 681.858 208.513 682.254L209.419 681.83ZM210.546 685H109.454V687H210.546V685ZM110.45 686.094C110.573 684.783 110.912 683.486 111.488 682.254L109.676 681.407C108.999 682.856 108.602 684.377 108.459 685.907L110.45 686.094ZM111.257 681.092C106.086 676.362 106.086 667.638 111.257 662.908L109.907 661.432C103.87 666.955 103.87 677.045 109.907 682.568L111.257 681.092ZM111.488 661.747C108.521 655.398 111.86 647.338 118.447 644.947L117.764 643.067C110.073 645.859 106.212 655.181 109.676 662.594L111.488 661.747ZM119.104 643.963C118.793 636.962 124.962 630.793 131.963 631.104L132.051 629.106C123.877 628.743 116.743 635.877 117.106 644.051L119.104 643.963ZM132.947 630.447C135.338 623.86 143.398 620.521 149.747 623.488L150.594 621.676C143.181 618.212 133.859 622.073 131.067 629.764L132.947 630.447ZM150.908 623.257C155.638 618.086 164.362 618.086 169.092 623.257L170.568 621.907C165.045 615.87 154.955 615.87 149.432 621.907L150.908 623.257ZM170.254 623.488C176.602 620.521 184.662 623.86 187.054 630.447L188.933 629.764C186.141 622.073 176.82 618.212 169.407 621.676L170.254 623.488ZM188.038 631.104C195.039 630.793 201.208 636.962 200.896 643.963L202.894 644.051C203.258 635.877 196.123 628.743 187.949 629.106L188.038 631.104ZM201.554 644.947C208.141 647.338 211.48 655.398 208.513 661.747L210.325 662.594C213.789 655.181 209.928 645.859 202.236 643.067L201.554 644.947ZM208.744 662.908C213.914 667.638 213.914 676.362 208.744 681.092L210.094 682.568C216.131 677.045 216.131 666.955 210.094 661.432L208.744 662.908ZM208.513 682.254C209.089 683.486 209.428 684.783 209.551 686.094L211.542 685.907C211.398 684.377 211.002 682.856 210.325 681.407L208.513 682.254Z" fill="currentColor"/>
<path d="M152 707.333L152.936 707.684C152.978 707.572 153 707.453 153 707.333H152ZM152 686V685C151.448 685 151 685.448 151 686H152ZM168 686H169C169 685.448 168.552 685 168 685V686ZM168 707.333H167C167 707.453 167.022 707.572 167.064 707.684L168 707.333ZM172 718V719C172.328 719 172.635 718.839 172.822 718.57C173.009 718.3 173.051 717.956 172.936 717.649L172 718ZM148 718L147.064 717.649C146.949 717.956 146.991 718.3 147.178 718.57C147.365 718.839 147.672 719 148 719V718ZM153 707.333V686H151V707.333H153ZM152 687H160V685H152V687ZM160 687H168V685H160V687ZM167 686V707.333H169V686H167ZM167.064 707.684L171.064 718.351L172.936 717.649L168.936 706.982L167.064 707.684ZM172 717H168V719H172V717ZM168 717H152V719H168V717ZM152 717H148V719H152V717ZM148.936 718.351L152.936 707.684L151.064 706.982L147.064 717.649L148.936 718.351Z" fill="currentColor"/>
<path d="M342.879 625.282L342.51 625.619V625.619L342.879 625.282ZM329.122 625.282L329.491 625.619V625.619L329.122 625.282ZM347.524 626.206L347.312 625.753L347.524 626.206ZM360.234 631.47L360.704 631.3L360.234 631.47ZM364.171 634.101L364.194 634.601L364.171 634.101ZM373.899 643.829L373.4 643.807V643.807L373.899 643.829ZM376.53 647.767L376.36 648.237L376.53 647.767ZM381.795 660.477L381.342 660.265L381.795 660.477ZM382.719 665.122L383.056 664.753V664.753L382.719 665.122ZM382.719 678.879L382.381 678.51L382.719 678.879ZM381.422 682V682.5C381.558 682.5 381.689 682.445 381.783 682.346C381.877 682.248 381.927 682.115 381.922 681.979L381.422 682ZM290.578 682L290.079 681.979C290.073 682.115 290.123 682.248 290.218 682.346C290.312 682.445 290.442 682.5 290.578 682.5V682ZM289.282 678.879L289.619 678.51H289.619L289.282 678.879ZM289.282 665.122L289.619 665.491H289.619L289.282 665.122ZM290.206 660.477L290.659 660.265L290.206 660.477ZM295.47 647.767L295.3 647.297H295.3L295.47 647.767ZM298.101 643.829L297.602 643.851L298.101 643.829ZM307.829 634.101L307.851 633.602H307.851L307.829 634.101ZM311.767 631.47L311.297 631.3L311.767 631.47ZM324.477 626.206L324.688 625.753L324.477 626.206ZM390.002 682.743L389.607 682.435C389.51 682.56 389.478 682.723 389.52 682.875L390.002 682.743ZM390.529 685.626L391.027 685.58V685.58L390.529 685.626ZM390.002 661.259L389.52 661.126C389.478 661.278 389.511 661.441 389.608 661.566L390.002 661.259ZM381.781 641.41L381.285 641.472C381.304 641.629 381.397 641.767 381.534 641.845L381.781 641.41ZM366.59 626.219L366.155 626.466C366.233 626.604 366.372 626.696 366.528 626.716L366.59 626.219ZM346.742 617.998L346.435 618.393C346.559 618.49 346.723 618.522 346.875 618.48L346.742 617.998ZM325.259 617.998L325.126 618.48C325.278 618.522 325.441 618.49 325.566 618.393L325.259 617.998ZM305.41 626.219L305.472 626.716C305.629 626.696 305.767 626.604 305.845 626.466L305.41 626.219ZM290.219 641.41L290.466 641.845C290.604 641.767 290.696 641.629 290.716 641.472L290.219 641.41ZM281.998 661.259L282.393 661.566C282.49 661.441 282.522 661.278 282.48 661.126L281.998 661.259ZM281.999 682.743L282.481 682.875C282.523 682.723 282.49 682.56 282.393 682.435L281.999 682.743ZM281.472 685.626L280.974 685.58L281.472 685.626ZM282.497 688.693L282.866 688.357L282.866 688.357L282.497 688.693ZM324 690H324.5C324.5 689.724 324.276 689.5 324 689.5V690ZM324 706.608L324.468 706.784C324.489 706.728 324.5 706.668 324.5 706.608H324ZM320.255 716.596L320.723 716.771H320.723L320.255 716.596ZM320.713 720.279L320.302 720.563H320.302L320.713 720.279ZM351.746 716.596L352.214 716.42L351.746 716.596ZM348 706.608H347.5C347.5 706.668 347.511 706.728 347.532 706.784L348 706.608ZM348 690V689.5C347.724 689.5 347.5 689.724 347.5 690H348ZM389.504 688.693L389.874 689.03V689.03L389.504 688.693ZM332 690V689.5C331.724 689.5 331.5 689.724 331.5 690H332ZM340 690H340.5C340.5 689.724 340.276 689.5 340 689.5V690ZM340.255 708.738L339.787 708.914L340.255 708.738ZM342.228 714V714.5C342.392 714.5 342.546 714.42 342.639 714.285C342.733 714.15 342.754 713.978 342.696 713.825L342.228 714ZM329.772 714L329.304 713.825C329.246 713.978 329.268 714.15 329.361 714.285C329.455 714.42 329.608 714.5 329.772 714.5V714ZM331.746 708.738L332.214 708.914L331.746 708.738ZM343.248 624.944C339.509 620.857 332.492 620.857 328.753 624.944L329.491 625.619C332.833 621.965 339.167 621.965 342.51 625.619L343.248 624.944ZM347.312 625.753C345.926 626.4 344.28 626.073 343.248 624.944L342.51 625.619C343.837 627.07 345.954 627.491 347.735 626.659L347.312 625.753ZM360.704 631.3C358.813 626.093 352.33 623.407 347.312 625.753L347.735 626.659C352.222 624.562 358.074 626.986 359.764 631.641L360.704 631.3ZM364.149 633.602C362.621 633.67 361.226 632.738 360.704 631.3L359.764 631.641C360.435 633.49 362.229 634.688 364.194 634.601L364.149 633.602ZM374.399 643.851C374.645 638.318 369.683 633.356 364.149 633.602L364.194 634.601C369.141 634.381 373.62 638.86 373.4 643.807L374.399 643.851ZM376.701 647.297C375.263 646.775 374.331 645.38 374.399 643.851L373.4 643.807C373.312 645.772 374.511 647.566 376.36 648.237L376.701 647.297ZM382.248 660.688C384.593 655.67 381.908 649.187 376.701 647.297L376.36 648.237C381.014 649.927 383.438 655.779 381.342 660.265L382.248 660.688ZM383.056 664.753C381.928 663.72 381.6 662.074 382.248 660.688L381.342 660.265C380.509 662.047 380.93 664.163 382.381 665.491L383.056 664.753ZM383.056 679.248C387.143 675.509 387.143 668.492 383.056 664.753L382.381 665.491C386.035 668.833 386.035 675.167 382.381 678.51L383.056 679.248ZM381.922 681.979C381.879 680.967 382.276 679.961 383.056 679.248L382.381 678.51C381.378 679.427 380.868 680.722 380.922 682.021L381.922 681.979ZM290.578 682.5H381.422V681.5H290.578V682.5ZM288.944 679.248C289.724 679.961 290.122 680.967 290.079 681.979L291.078 682.021C291.133 680.722 290.622 679.427 289.619 678.51L288.944 679.248ZM288.944 664.753C284.857 668.492 284.857 675.509 288.944 679.248L289.619 678.51C285.965 675.167 285.965 668.833 289.619 665.491L288.944 664.753ZM289.753 660.689C290.4 662.074 290.073 663.72 288.944 664.753L289.619 665.491C291.07 664.163 291.491 662.047 290.659 660.265L289.753 660.689ZM295.3 647.297C290.093 649.187 287.407 655.67 289.753 660.689L290.659 660.265C288.562 655.779 290.986 649.927 295.641 648.237L295.3 647.297ZM297.602 643.851C297.67 645.38 296.738 646.775 295.3 647.297L295.641 648.237C297.49 647.566 298.688 645.772 298.601 643.807L297.602 643.851ZM307.851 633.602C302.318 633.356 297.356 638.318 297.602 643.851L298.601 643.807C298.381 638.86 302.86 634.381 307.807 634.601L307.851 633.602ZM311.297 631.3C310.775 632.738 309.38 633.67 307.851 633.602L307.807 634.601C309.772 634.688 311.566 633.49 312.237 631.641L311.297 631.3ZM324.688 625.753C319.67 623.407 313.187 626.093 311.297 631.3L312.237 631.641C313.927 626.986 319.779 624.562 324.265 626.659L324.688 625.753ZM328.753 624.944C327.72 626.073 326.074 626.4 324.688 625.753L324.265 626.659C326.047 627.491 328.163 627.07 329.491 625.619L328.753 624.944ZM389.52 682.875C389.774 683.8 389.943 684.736 390.031 685.673L391.027 685.58C390.933 684.586 390.754 683.592 390.484 682.61L389.52 682.875ZM389.608 661.566C394.293 667.582 394.293 676.42 389.607 682.435L390.396 683.05C395.363 676.673 395.363 667.329 390.397 660.951L389.608 661.566ZM381.534 641.845C388.165 645.61 391.546 653.775 389.52 661.126L390.484 661.391C392.632 653.599 389.057 644.967 382.028 640.976L381.534 641.845ZM366.528 626.716C374.095 627.657 380.344 633.906 381.285 641.472L382.277 641.349C381.28 633.328 374.673 626.721 366.652 625.723L366.528 626.716ZM346.875 618.48C354.226 616.454 362.39 619.836 366.155 626.466L367.025 625.972C363.034 618.944 354.401 615.368 346.609 617.516L346.875 618.48ZM325.566 618.393C331.582 613.708 340.419 613.708 346.435 618.393L347.049 617.604C340.672 612.637 331.329 612.637 324.951 617.604L325.566 618.393ZM305.845 626.466C309.61 619.836 317.775 616.454 325.126 618.48L325.391 617.516C317.599 615.368 308.967 618.944 304.976 625.972L305.845 626.466ZM290.716 641.472C291.657 633.906 297.906 627.657 305.472 626.716L305.349 625.723C297.328 626.721 290.721 633.328 289.723 641.349L290.716 641.472ZM282.48 661.126C280.454 653.775 283.836 645.61 290.466 641.845L289.972 640.976C282.944 644.967 279.368 653.599 281.516 661.391L282.48 661.126ZM282.393 682.435C277.708 676.42 277.708 667.582 282.393 661.566L281.604 660.951C276.637 667.329 276.637 676.673 281.604 683.05L282.393 682.435ZM281.97 685.673C282.057 684.736 282.226 683.8 282.481 682.875L281.517 682.61C281.246 683.592 281.067 684.586 280.974 685.58L281.97 685.673ZM282.866 688.357C282.203 687.628 281.877 686.654 281.97 685.673L280.974 685.58C280.856 686.841 281.274 688.093 282.127 689.03L282.866 688.357ZM285.454 689.5C284.469 689.5 283.53 689.085 282.866 688.357L282.127 689.03C282.98 689.966 284.188 690.5 285.454 690.5V689.5ZM324 689.5H285.454V690.5H324V689.5ZM324.5 706.608V690H323.5V706.608H324.5ZM320.723 716.771L324.468 706.784L323.532 706.433L319.787 716.42L320.723 716.771ZM321.124 719.994C320.47 719.05 320.32 717.846 320.723 716.771L319.787 716.42C319.269 717.802 319.461 719.35 320.302 720.563L321.124 719.994ZM324 721.5C322.852 721.5 321.777 720.937 321.123 719.994L320.302 720.563C321.142 721.776 322.524 722.5 324 722.5V721.5ZM328 721.5H324V722.5H328V721.5ZM344 721.5H328V722.5H344V721.5ZM348 721.5H344V722.5H348V721.5ZM350.877 719.994C350.223 720.937 349.148 721.5 348 721.5V722.5C349.476 722.5 350.858 721.776 351.699 720.563L350.877 719.994ZM351.277 716.771C351.68 717.846 351.531 719.05 350.877 719.994L351.699 720.563C352.54 719.35 352.732 717.802 352.214 716.42L351.277 716.771ZM347.532 706.784L351.277 716.771L352.214 716.42L348.468 706.433L347.532 706.784ZM347.5 690V706.608H348.5V690H347.5ZM386.546 689.5H348V690.5H386.546V689.5ZM389.134 688.357C388.471 689.085 387.531 689.5 386.546 689.5V690.5C387.813 690.5 389.021 689.966 389.874 689.03L389.134 688.357ZM390.031 685.673C390.123 686.654 389.797 687.628 389.134 688.357L389.874 689.03C390.726 688.093 391.145 686.841 391.027 685.58L390.031 685.673ZM331.5 690V707.334H332.5V690H331.5ZM336 689.5H332V690.5H336V689.5ZM340 689.5H336V690.5H340V689.5ZM340.5 707.334V690H339.5V707.334H340.5ZM340.723 708.562C340.576 708.17 340.5 707.753 340.5 707.334H339.5C339.5 707.873 339.597 708.408 339.787 708.914L340.723 708.562ZM342.696 713.825L340.723 708.562L339.787 708.914L341.76 714.176L342.696 713.825ZM329.772 714.5H342.228V713.5H329.772V714.5ZM331.277 708.562L329.304 713.825L330.24 714.176L332.214 708.914L331.277 708.562ZM331.5 707.334C331.5 707.753 331.425 708.17 331.277 708.562L332.214 708.914C332.403 708.408 332.5 707.873 332.5 707.334H331.5Z" fill="currentColor"/>
<path fill-rule="evenodd" clip-rule="evenodd" d="M562.546 686H461.454C461.587 684.58 461.955 683.171 462.582 681.83C456.978 676.704 456.978 667.297 462.582 662.17C459.366 655.29 462.966 646.599 470.105 644.007C469.768 636.419 476.419 629.768 484.007 630.105C486.599 622.966 495.29 619.366 502.17 622.582C507.297 616.978 516.704 616.978 521.83 622.582C528.711 619.366 537.402 622.966 539.994 630.105C547.581 629.768 554.233 636.419 553.895 644.007C561.034 646.599 564.634 655.29 561.419 662.17C567.023 667.297 567.023 676.704 561.419 681.83C562.045 683.171 562.413 684.58 562.546 686Z" fill="currentColor"/>
<path d="M562.546 686V688C563.109 688 563.646 687.763 564.025 687.347C564.404 686.93 564.59 686.374 564.538 685.813L562.546 686ZM461.454 686L459.463 685.813C459.41 686.374 459.596 686.93 459.975 687.347C460.354 687.763 460.891 688 461.454 688V686ZM462.582 681.83L464.394 682.677C464.764 681.885 464.577 680.944 463.932 680.354L462.582 681.83ZM462.582 662.17L463.932 663.646C464.577 663.056 464.764 662.115 464.394 661.324L462.582 662.17ZM470.105 644.007L470.788 645.887C471.609 645.589 472.142 644.791 472.103 643.918L470.105 644.007ZM484.007 630.105L483.918 632.103C484.791 632.142 485.589 631.609 485.887 630.788L484.007 630.105ZM502.17 622.582L501.324 624.394C502.115 624.764 503.056 624.577 503.646 623.932L502.17 622.582ZM521.83 622.582L520.354 623.932C520.945 624.577 521.885 624.764 522.677 624.394L521.83 622.582ZM539.994 630.105L538.114 630.788C538.412 631.609 539.209 632.142 540.082 632.103L539.994 630.105ZM553.895 644.007L551.897 643.918C551.858 644.791 552.391 645.589 553.213 645.887L553.895 644.007ZM561.419 662.17L559.607 661.324C559.237 662.115 559.424 663.056 560.069 663.646L561.419 662.17ZM561.419 681.83L560.069 680.354C559.424 680.944 559.237 681.885 559.607 682.677L561.419 681.83ZM562.546 684H461.454V688H562.546V684ZM463.445 686.187C463.558 684.986 463.868 683.801 464.394 682.677L460.77 680.983C460.042 682.541 459.617 684.174 459.463 685.813L463.445 686.187ZM463.932 680.354C459.195 676.021 459.195 667.98 463.932 663.646L461.232 660.695C454.761 666.614 454.761 677.387 461.232 683.306L463.932 680.354ZM464.394 661.324C461.676 655.507 464.753 648.078 470.788 645.887L469.423 642.127C461.18 645.12 457.057 655.072 460.77 663.017L464.394 661.324ZM472.103 643.918C471.818 637.504 477.504 631.818 483.918 632.103L484.096 628.107C475.335 627.717 467.717 635.335 468.107 644.096L472.103 643.918ZM485.887 630.788C488.078 624.753 495.507 621.676 501.324 624.394L503.017 620.77C495.072 617.057 485.12 621.18 482.127 629.423L485.887 630.788ZM503.646 623.932C507.98 619.195 516.021 619.195 520.354 623.932L523.306 621.232C517.387 614.761 506.614 614.761 500.695 621.232L503.646 623.932ZM522.677 624.394C528.493 621.676 535.923 624.753 538.114 630.788L541.873 629.423C538.881 621.18 528.928 617.057 520.983 620.77L522.677 624.394ZM540.082 632.103C546.496 631.818 552.183 637.504 551.897 643.918L555.893 644.096C556.283 635.335 548.666 627.717 539.905 628.107L540.082 632.103ZM553.213 645.887C559.248 648.078 562.325 655.507 559.607 661.324L563.231 663.017C566.943 655.072 562.821 645.12 554.578 642.127L553.213 645.887ZM560.069 663.646C564.806 667.98 564.806 676.021 560.069 680.354L562.769 683.306C569.239 677.387 569.239 666.614 562.769 660.695L560.069 663.646ZM559.607 682.677C560.132 683.801 560.442 684.986 560.555 686.187L564.538 685.813C564.384 684.174 563.958 682.541 563.231 680.983L559.607 682.677Z" fill="currentColor"/>
<path fill-rule="evenodd" clip-rule="evenodd" d="M504 707.333V686H512H520V707.333L524 718H520H504H500L504 707.333Z" fill="currentColor"/>
<path d="M504 707.333L505.873 708.036C505.957 707.811 506 707.573 506 707.333H504ZM504 686V684C502.895 684 502 684.895 502 686H504ZM520 686H522C522 684.895 521.105 684 520 684V686ZM520 707.333H518C518 707.573 518.043 707.811 518.127 708.036L520 707.333ZM524 718V720C524.656 720 525.27 719.678 525.644 719.139C526.017 718.6 526.103 717.912 525.873 717.298L524 718ZM500 718L498.127 717.298C497.897 717.912 497.983 718.6 498.356 719.139C498.73 719.678 499.344 720 500 720V718ZM506 707.333V686H502V707.333H506ZM504 688H512V684H504V688ZM512 688H520V684H512V688ZM518 686V707.333H522V686H518ZM518.127 708.036L522.127 718.702L525.873 717.298L521.873 706.631L518.127 708.036ZM524 716H520V720H524V716ZM520 716H504V720H520V716ZM504 716H500V720H504V716ZM501.873 718.702L505.873 708.036L502.127 706.631L498.127 717.298L501.873 718.702Z" fill="currentColor"/>
<g opacity="0.25">
<path fill-rule="evenodd" clip-rule="evenodd" d="M738.546 686H637.454C637.587 684.58 637.955 683.171 638.582 681.83C632.978 676.704 632.978 667.297 638.582 662.17C635.366 655.29 638.966 646.599 646.105 644.007C645.768 636.419 652.419 629.768 660.007 630.105C662.599 622.966 671.29 619.366 678.17 622.582C683.297 616.978 692.704 616.978 697.83 622.582C704.711 619.366 713.402 622.966 715.994 630.105C723.581 629.768 730.233 636.419 729.895 644.007C737.034 646.599 740.634 655.29 737.419 662.17C743.023 667.297 743.023 676.704 737.419 681.83C738.045 683.171 738.413 684.58 738.546 686Z" fill="currentColor"/>
<path d="M738.546 686V688C739.109 688 739.646 687.763 740.025 687.347C740.404 686.93 740.59 686.374 740.538 685.813L738.546 686ZM637.454 686L635.463 685.813C635.41 686.374 635.596 686.93 635.975 687.347C636.354 687.763 636.891 688 637.454 688V686ZM638.582 681.83L640.394 682.677C640.764 681.885 640.577 680.944 639.932 680.354L638.582 681.83ZM638.582 662.17L639.932 663.646C640.577 663.056 640.764 662.115 640.394 661.324L638.582 662.17ZM646.105 644.007L646.788 645.887C647.609 645.589 648.142 644.791 648.103 643.918L646.105 644.007ZM660.007 630.105L659.918 632.103C660.791 632.142 661.589 631.609 661.887 630.788L660.007 630.105ZM678.17 622.582L677.324 624.394C678.115 624.764 679.056 624.577 679.646 623.932L678.17 622.582ZM697.83 622.582L696.354 623.932C696.945 624.577 697.885 624.764 698.677 624.394L697.83 622.582ZM715.994 630.105L714.114 630.788C714.412 631.609 715.209 632.142 716.082 632.103L715.994 630.105ZM729.895 644.007L727.897 643.918C727.858 644.791 728.391 645.589 729.213 645.887L729.895 644.007ZM737.419 662.17L735.607 661.324C735.237 662.115 735.424 663.056 736.069 663.646L737.419 662.17ZM737.419 681.83L736.069 680.354C735.424 680.944 735.237 681.885 735.607 682.677L737.419 681.83ZM738.546 684H637.454V688H738.546V684ZM639.445 686.187C639.558 684.986 639.868 683.801 640.394 682.677L636.77 680.983C636.042 682.541 635.617 684.174 635.463 685.813L639.445 686.187ZM639.932 680.354C635.195 676.021 635.195 667.98 639.932 663.646L637.232 660.695C630.761 666.614 630.761 677.387 637.232 683.306L639.932 680.354ZM640.394 661.324C637.676 655.507 640.753 648.078 646.788 645.887L645.423 642.127C637.18 645.12 633.057 655.072 636.77 663.017L640.394 661.324ZM648.103 643.918C647.818 637.504 653.504 631.818 659.918 632.103L660.096 628.107C651.335 627.717 643.717 635.335 644.107 644.096L648.103 643.918ZM661.887 630.788C664.078 624.753 671.507 621.676 677.324 624.394L679.017 620.77C671.072 617.057 661.12 621.18 658.127 629.423L661.887 630.788ZM679.646 623.932C683.98 619.195 692.021 619.195 696.354 623.932L699.306 621.232C693.387 614.761 682.614 614.761 676.695 621.232L679.646 623.932ZM698.677 624.394C704.493 621.676 711.923 624.753 714.114 630.788L717.873 629.423C714.881 621.18 704.928 617.057 696.983 620.77L698.677 624.394ZM716.082 632.103C722.496 631.818 728.183 637.504 727.897 643.918L731.893 644.096C732.283 635.335 724.666 627.717 715.905 628.107L716.082 632.103ZM729.213 645.887C735.248 648.078 738.325 655.507 735.607 661.324L739.231 663.017C742.943 655.072 738.821 645.12 730.578 642.127L729.213 645.887ZM736.069 663.646C740.806 667.98 740.806 676.021 736.069 680.354L738.769 683.306C745.239 677.387 745.239 666.614 738.769 660.695L736.069 663.646ZM735.607 682.677C736.132 683.801 736.442 684.986 736.555 686.187L740.538 685.813C740.384 684.174 739.958 682.541 739.231 680.983L735.607 682.677Z" fill="currentColor"/>
</g>
<path fill-rule="evenodd" clip-rule="evenodd" d="M680 707.333V686H688H696V707.333L700 718H696H680H676L680 707.333Z" fill="currentColor"/>
<path fill-rule="evenodd" clip-rule="evenodd" d="M914.546 686H813.454C813.587 684.58 813.955 683.171 814.582 681.83C808.978 676.704 808.978 667.297 814.582 662.17C811.366 655.29 814.966 646.599 822.105 644.007C821.768 636.419 828.419 629.768 836.007 630.105C838.599 622.966 847.29 619.366 854.17 622.582C859.297 616.978 868.704 616.978 873.83 622.582C880.711 619.366 889.402 622.966 891.994 630.105C899.581 629.768 906.233 636.419 905.895 644.007C913.034 646.599 916.634 655.29 913.419 662.17C919.023 667.297 919.023 676.704 913.419 681.83C914.045 683.171 914.413 684.58 914.546 686Z" fill="#FFA500"/>
<path d="M914.546 686V688C915.109 688 915.646 687.763 916.025 687.347C916.404 686.93 916.59 686.374 916.538 685.813L914.546 686ZM813.454 686L811.463 685.813C811.41 686.374 811.596 686.93 811.975 687.347C812.354 687.763 812.891 688 813.454 688V686ZM814.582 681.83L816.394 682.677C816.764 681.885 816.577 680.944 815.932 680.354L814.582 681.83ZM814.582 662.17L815.932 663.646C816.577 663.056 816.764 662.115 816.394 661.324L814.582 662.17ZM822.105 644.007L822.788 645.887C823.609 645.589 824.142 644.791 824.103 643.918L822.105 644.007ZM836.007 630.105L835.918 632.103C836.791 632.142 837.589 631.609 837.887 630.788L836.007 630.105ZM854.17 622.582L853.324 624.394C854.115 624.764 855.056 624.577 855.646 623.932L854.17 622.582ZM873.83 622.582L872.354 623.932C872.945 624.577 873.885 624.764 874.677 624.394L873.83 622.582ZM891.994 630.105L890.114 630.788C890.412 631.609 891.209 632.142 892.082 632.103L891.994 630.105ZM905.895 644.007L903.897 643.918C903.858 644.791 904.391 645.589 905.213 645.887L905.895 644.007ZM913.419 662.17L911.607 661.324C911.237 662.115 911.424 663.056 912.069 663.646L913.419 662.17ZM913.419 681.83L912.069 680.354C911.424 680.944 911.237 681.885 911.607 682.677L913.419 681.83ZM914.546 684H813.454V688H914.546V684ZM815.445 686.187C815.558 684.986 815.868 683.801 816.394 682.677L812.77 680.983C812.042 682.541 811.617 684.174 811.463 685.813L815.445 686.187ZM815.932 680.354C811.195 676.021 811.195 667.98 815.932 663.646L813.232 660.695C806.761 666.614 806.761 677.387 813.232 683.306L815.932 680.354ZM816.394 661.324C813.676 655.507 816.753 648.078 822.788 645.887L821.423 642.127C813.18 645.12 809.057 655.072 812.77 663.017L816.394 661.324ZM824.103 643.918C823.818 637.504 829.504 631.818 835.918 632.103L836.096 628.107C827.335 627.717 819.717 635.335 820.107 644.096L824.103 643.918ZM837.887 630.788C840.078 624.753 847.507 621.676 853.324 624.394L855.017 620.77C847.072 617.057 837.12 621.18 834.127 629.423L837.887 630.788ZM855.646 623.932C859.98 619.195 868.021 619.195 872.354 623.932L875.306 621.232C869.387 614.761 858.614 614.761 852.695 621.232L855.646 623.932ZM874.677 624.394C880.493 621.676 887.923 624.753 890.114 630.788L893.873 629.423C890.881 621.18 880.928 617.057 872.983 620.77L874.677 624.394ZM892.082 632.103C898.496 631.818 904.183 637.504 903.897 643.918L907.893 644.096C908.283 635.335 900.666 627.717 891.905 628.107L892.082 632.103ZM905.213 645.887C911.248 648.078 914.325 655.507 911.607 661.324L915.231 663.017C918.943 655.072 914.821 645.12 906.578 642.127L905.213 645.887ZM912.069 663.646C916.806 667.98 916.806 676.021 912.069 680.354L914.769 683.306C921.239 677.387 921.239 666.614 914.769 660.695L912.069 663.646ZM911.607 682.677C912.132 683.801 912.442 684.986 912.555 686.187L916.538 685.813C916.384 684.174 915.958 682.541 915.231 680.983L911.607 682.677Z" fill="#FFA500"/>
<path fill-rule="evenodd" clip-rule="evenodd" d="M856 707.333V686H864H872V707.333L876 718H872H856H852L856 707.333Z" fill="#8B4513"/>
</svg>
