<svg viewBox="0 0 1024 768" fill="none" xmlns="http://www.w3.org/2000/svg">
<path d="M424 36L433.128 64.9124L456.438 45.5248L448.486 74.7825L478.578 71.0751L456.07 91.389L483.389 104.539L453.472 109.459L469.345 135.292L441.517 123.257L440.904 153.57L424 128.4L407.096 153.57L406.483 123.257L378.655 135.292L394.528 109.459L364.611 104.539L391.93 91.389L369.422 71.0751L399.514 74.7825L391.562 45.5248L414.872 64.9124L424 36Z" stroke="#7B61FF" stroke-width="2" stroke-linecap="round" stroke-linejoin="round"/>
<path d="M578.787 147.213C592.369 152.839 607.631 152.839 621.213 147.213V147.213C634.796 141.587 645.587 130.796 651.213 117.213V117.213C656.839 103.631 656.839 88.3694 651.213 74.7868V74.7868C645.587 61.2042 634.796 50.4129 621.213 44.7868V44.7868C607.631 39.1607 592.369 39.1607 578.787 44.7868V44.7868C565.204 50.4129 554.413 61.2042 548.787 74.7868V74.7868C543.161 88.3694 543.161 103.631 548.787 117.213V117.213C554.413 130.796 565.204 141.587 578.787 147.213V147.213Z" stroke="#7B61FF" stroke-width="2" stroke-linecap="round" stroke-linejoin="round"/>
<path fill-rule="evenodd" clip-rule="evenodd" d="M455.627 252.361L479.073 271.862L488.254 242.781C503.973 240.138 520.027 240.138 535.745 242.781L544.926 271.862L568.372 252.362C583.159 258.693 596.632 267.408 608.324 278.037L600.326 307.465L630.593 303.736C635.971 311.681 640.574 320.203 644.3 329.199C646.705 335.006 648.713 340.931 650.322 346.935L627.682 367.368L655.161 380.594C655.537 396.438 653.285 412.329 648.402 427.601L618.31 432.551L634.276 458.534C625.956 472.183 615.431 484.305 603.176 494.425L575.186 482.319L574.569 512.809C572.022 514.046 569.431 515.211 566.8 516.301C554.604 521.353 541.883 524.649 529.002 526.189L512 500.872L494.997 526.189C482.117 524.649 469.396 521.353 457.199 516.301C454.568 515.211 451.977 514.046 449.43 512.809L448.814 482.319L420.823 494.425C408.568 484.305 398.043 472.183 389.723 458.534L405.689 432.551L375.597 427.601C370.715 412.329 368.462 396.438 368.839 380.594L396.317 367.368L373.678 346.935C375.287 340.931 377.294 335.006 379.699 329.199C383.425 320.203 388.029 311.681 393.406 303.736L423.674 307.465L415.675 278.037C427.368 267.408 440.841 258.693 455.627 252.361ZM489.019 439.481C503.733 445.576 520.266 445.576 534.981 439.481C549.695 433.386 561.386 421.696 567.481 406.981C573.576 392.267 573.576 375.734 567.481 361.019C561.386 346.305 549.695 334.614 534.981 328.519C520.266 322.424 503.733 322.424 489.019 328.519C474.304 334.614 462.614 346.305 456.519 361.019C450.424 375.734 450.424 392.267 456.519 406.981C462.614 421.696 474.304 433.386 489.019 439.481Z" fill="#888888" fill-opacity="0.5"/>
<path d="M455.627 252.361L458.824 248.517C457.38 247.316 455.385 247.026 453.659 247.765L455.627 252.361ZM479.073 271.862L475.876 275.706C477.156 276.771 478.883 277.129 480.482 276.659C482.08 276.19 483.34 274.956 483.841 273.367L479.073 271.862ZM488.254 242.781L487.425 237.85C485.573 238.161 484.052 239.484 483.486 241.275L488.254 242.781ZM535.745 242.781L540.513 241.275C539.948 239.484 538.426 238.161 536.574 237.85L535.745 242.781ZM544.926 271.862L540.158 273.367C540.66 274.956 541.92 276.19 543.518 276.66C545.116 277.129 546.843 276.771 548.124 275.706L544.926 271.862ZM568.372 252.362L570.341 247.765C568.614 247.026 566.619 247.316 565.175 248.517L568.372 252.362ZM608.324 278.037L613.149 279.348C613.642 277.536 613.077 275.601 611.688 274.337L608.324 278.037ZM600.326 307.465L595.501 306.154C595.064 307.761 595.456 309.481 596.547 310.739C597.638 311.998 599.284 312.631 600.937 312.428L600.326 307.465ZM630.593 303.736L634.734 300.933C633.681 299.378 631.846 298.544 629.982 298.774L630.593 303.736ZM644.3 329.199L648.92 327.286V327.286L644.3 329.199ZM650.322 346.935L653.672 350.647C655.066 349.388 655.637 347.455 655.151 345.641L650.322 346.935ZM627.682 367.368L624.332 363.656C623.096 364.772 622.496 366.43 622.733 368.079C622.97 369.728 624.013 371.15 625.514 371.873L627.682 367.368ZM655.161 380.594L660.159 380.475C660.114 378.597 659.021 376.903 657.329 376.089L655.161 380.594ZM648.402 427.601L649.214 432.535C651.067 432.23 652.593 430.913 653.165 429.124L648.402 427.601ZM618.31 432.551L617.499 427.617C615.855 427.887 614.454 428.958 613.762 430.474C613.07 431.989 613.178 433.749 614.05 435.168L618.31 432.551ZM634.276 458.534L638.546 461.136C639.523 459.533 639.519 457.516 638.536 455.916L634.276 458.534ZM603.176 494.425L601.191 499.014C602.915 499.759 604.911 499.476 606.36 498.28L603.176 494.425ZM575.186 482.319L577.17 477.73C575.641 477.069 573.884 477.213 572.482 478.113C571.081 479.014 570.22 480.553 570.187 482.218L575.186 482.319ZM574.569 512.809L576.754 517.307C578.443 516.486 579.53 514.788 579.568 512.91L574.569 512.809ZM566.8 516.301L564.887 511.682L564.887 511.682L566.8 516.301ZM529.002 526.189L524.852 528.977C525.899 530.536 527.731 531.376 529.596 531.154L529.002 526.189ZM512 500.872L516.15 498.085C515.222 496.702 513.665 495.872 512 495.872C510.334 495.872 508.778 496.702 507.849 498.085L512 500.872ZM494.997 526.189L494.404 531.154C496.268 531.376 498.101 530.536 499.148 528.977L494.997 526.189ZM457.199 516.301L459.112 511.682L459.112 511.682L457.199 516.301ZM449.43 512.809L444.431 512.91C444.469 514.788 445.556 516.486 447.246 517.307L449.43 512.809ZM448.814 482.319L453.813 482.218C453.779 480.553 452.918 479.014 451.517 478.113C450.116 477.213 448.358 477.069 446.829 477.73L448.814 482.319ZM420.823 494.425L417.64 498.28C419.088 499.476 421.084 499.759 422.808 499.014L420.823 494.425ZM389.723 458.534L385.463 455.916C384.48 457.516 384.476 459.533 385.454 461.136L389.723 458.534ZM405.689 432.551L409.949 435.168C410.821 433.749 410.929 431.989 410.237 430.474C409.545 428.958 408.144 427.887 406.5 427.617L405.689 432.551ZM375.597 427.601L370.835 429.124C371.406 430.913 372.933 432.23 374.786 432.535L375.597 427.601ZM368.839 380.594L366.67 376.089C364.978 376.903 363.885 378.597 363.84 380.475L368.839 380.594ZM396.317 367.368L398.486 371.873C399.987 371.15 401.029 369.728 401.266 368.079C401.503 366.43 400.904 364.772 399.667 363.656L396.317 367.368ZM373.678 346.935L368.848 345.641C368.362 347.455 368.934 349.388 370.328 350.647L373.678 346.935ZM379.699 329.199L375.08 327.286L375.08 327.286L379.699 329.199ZM393.406 303.736L394.017 298.774C392.153 298.544 390.318 299.378 389.265 300.933L393.406 303.736ZM423.674 307.465L423.062 312.428C424.715 312.631 426.361 311.998 427.452 310.739C428.543 309.481 428.935 307.761 428.498 306.154L423.674 307.465ZM415.675 278.037L412.312 274.337C410.922 275.601 410.357 277.536 410.85 279.348L415.675 278.037ZM534.981 439.481L533.067 434.862L534.981 439.481ZM489.019 439.481L490.932 434.862L489.019 439.481ZM567.481 406.981L562.861 405.068L567.481 406.981ZM567.481 361.019L562.861 362.933V362.933L567.481 361.019ZM534.981 328.519L533.067 333.139L534.981 328.519ZM489.019 328.519L490.932 333.139H490.932L489.019 328.519ZM456.519 361.019L461.138 362.933V362.933L456.519 361.019ZM456.519 406.981L461.138 405.068L456.519 406.981ZM452.43 256.206L475.876 275.706L482.27 268.018L458.824 248.517L452.43 256.206ZM483.841 273.367L493.022 244.286L483.486 241.275L474.305 270.357L483.841 273.367ZM489.083 247.712C504.253 245.161 519.747 245.161 534.916 247.712L536.574 237.85C520.307 235.115 503.692 235.115 487.425 237.85L489.083 247.712ZM530.977 244.286L540.158 273.367L549.694 270.357L540.513 241.275L530.977 244.286ZM548.124 275.706L571.57 256.206L565.175 248.517L541.729 268.018L548.124 275.706ZM566.404 256.958C580.674 263.068 593.677 271.478 604.961 281.737L611.688 274.337C599.587 263.337 585.643 254.318 570.341 247.765L566.404 256.958ZM603.499 276.726L595.501 306.154L605.151 308.776L613.149 279.348L603.499 276.726ZM600.937 312.428L631.205 308.699L629.982 298.774L599.714 302.503L600.937 312.428ZM626.453 306.539C631.642 314.206 636.085 322.43 639.681 331.113L648.92 327.286C645.063 317.976 640.299 309.156 634.734 300.933L626.453 306.539ZM639.681 331.113C642.002 336.717 643.939 342.435 645.492 348.229L655.151 345.641C653.486 339.426 651.409 333.295 648.92 327.286L639.681 331.113ZM646.972 343.223L624.332 363.656L631.032 371.079L653.672 350.647L646.972 343.223ZM625.514 371.873L652.992 385.099L657.329 376.089L629.851 362.862L625.514 371.873ZM650.162 380.713C650.526 396.004 648.351 411.34 643.64 426.079L653.165 429.124C658.218 413.318 660.549 396.872 660.159 380.475L650.162 380.713ZM647.591 422.668L617.499 427.617L619.122 437.484L649.214 432.535L647.591 422.668ZM614.05 435.168L630.016 461.151L638.536 455.916L622.571 429.933L614.05 435.168ZM630.007 455.931C621.978 469.104 611.82 480.803 599.992 490.569L606.36 498.28C619.043 487.807 629.935 475.262 638.546 461.136L630.007 455.931ZM605.161 489.835L577.17 477.73L573.201 486.909L601.191 499.014L605.161 489.835ZM570.187 482.218L569.57 512.708L579.568 512.91L580.185 482.42L570.187 482.218ZM572.385 508.312C569.926 509.506 567.426 510.63 564.887 511.682L568.714 520.92C571.437 519.793 574.117 518.587 576.754 517.307L572.385 508.312ZM564.887 511.682C553.116 516.557 540.839 519.738 528.409 521.224L529.596 531.154C542.926 529.56 556.091 526.149 568.714 520.92L564.887 511.682ZM533.153 523.401L516.15 498.085L507.849 503.66L524.852 528.977L533.153 523.401ZM507.849 498.085L490.846 523.401L499.148 528.977L516.15 503.66L507.849 498.085ZM495.591 521.224C483.16 519.738 470.884 516.557 459.112 511.682L455.285 520.92C467.908 526.149 481.073 529.56 494.404 531.154L495.591 521.224ZM459.112 511.682C456.573 510.63 454.073 509.506 451.615 508.312L447.246 517.307C449.882 518.587 452.563 519.793 455.285 520.92L459.112 511.682ZM454.429 512.708L453.813 482.218L443.815 482.42L444.431 512.91L454.429 512.708ZM446.829 477.73L418.839 489.835L422.808 499.014L450.799 486.909L446.829 477.73ZM424.007 490.569C412.179 480.803 402.022 469.104 393.993 455.931L385.454 461.136C394.064 475.262 404.957 487.807 417.64 498.28L424.007 490.569ZM393.983 461.151L409.949 435.168L401.429 429.933L385.463 455.916L393.983 461.151ZM406.5 427.617L376.409 422.668L374.786 432.535L404.877 437.484L406.5 427.617ZM380.36 426.079C375.648 411.34 373.474 396.004 373.837 380.713L363.84 380.475C363.45 396.872 365.782 413.318 370.835 429.124L380.36 426.079ZM371.007 385.099L398.486 371.873L394.148 362.862L366.67 376.089L371.007 385.099ZM399.667 363.656L377.028 343.223L370.328 350.647L392.967 371.079L399.667 363.656ZM378.507 348.229C380.06 342.435 381.997 336.716 384.318 331.113L375.08 327.286C372.591 333.295 370.513 339.426 368.848 345.641L378.507 348.229ZM384.318 331.113C387.915 322.43 392.357 314.206 397.547 306.539L389.265 300.933C383.7 309.156 378.936 317.976 375.08 327.286L384.318 331.113ZM392.795 308.698L423.062 312.428L424.285 302.503L394.017 298.774L392.795 308.698ZM428.498 306.154L420.5 276.726L410.85 279.348L418.849 308.777L428.498 306.154ZM419.038 281.737C430.323 271.478 443.325 263.068 457.595 256.958L453.659 247.765C438.356 254.318 424.413 263.337 412.312 274.337L419.038 281.737ZM533.067 434.862C519.578 440.449 504.421 440.449 490.932 434.862L487.105 444.101C503.045 450.703 520.954 450.703 536.894 444.101L533.067 434.862ZM562.861 405.068C557.274 418.557 546.557 429.274 533.067 434.862L536.894 444.101C552.834 437.498 565.498 424.834 572.1 408.895L562.861 405.068ZM562.861 362.933C568.449 376.422 568.449 391.578 562.861 405.068L572.1 408.895C578.702 392.955 578.702 375.045 572.1 359.106L562.861 362.933ZM533.067 333.139C546.557 338.726 557.274 349.443 562.861 362.933L572.1 359.106C565.498 343.166 552.834 330.502 536.894 323.9L533.067 333.139ZM490.932 333.139C504.421 327.551 519.578 327.551 533.067 333.139L536.894 323.9C520.954 317.297 503.045 317.297 487.105 323.9L490.932 333.139ZM461.138 362.933C466.726 349.443 477.443 338.726 490.932 333.139L487.105 323.9C471.166 330.502 458.502 343.166 451.899 359.106L461.138 362.933ZM461.138 405.068C455.551 391.578 455.551 376.422 461.138 362.933L451.899 359.106C445.297 375.045 445.297 392.955 451.899 408.895L461.138 405.068ZM490.932 434.862C477.443 429.274 466.726 418.557 461.138 405.068L451.899 408.895C458.502 424.834 471.166 437.498 487.105 444.101L490.932 434.862Z" fill="currentColor"/>
<path d="M501.393 409.607C508.185 412.42 515.815 412.42 522.607 409.607C529.398 406.794 534.794 401.398 537.607 394.607C540.42 387.815 540.42 380.185 537.607 373.393C534.794 366.602 529.398 361.206 522.607 358.393C515.815 355.58 508.185 355.58 501.393 358.393C494.602 361.206 489.206 366.602 486.393 373.393C483.58 380.185 483.58 387.815 486.393 394.607C489.206 401.398 494.602 406.794 501.393 409.607Z" fill="#888888" fill-opacity="0.5" stroke="currentColor" stroke-width="10" stroke-linecap="round" stroke-linejoin="round"/>
<g opacity="0.25">
<path d="M512 238.839L534.084 308.788L590.48 261.883L571.241 332.668L644.044 323.698L589.589 372.845L655.684 404.659L583.304 416.563L621.706 479.061L554.379 449.944L552.897 523.281L512 462.387L471.104 523.281L469.621 449.944L402.295 479.061L440.697 416.563L368.316 404.659L434.411 372.845L379.957 323.698L452.759 332.668L433.52 261.883L489.916 308.788L512 238.839Z" stroke="currentColor" stroke-width="2.41935" stroke-linecap="round" stroke-linejoin="round"/>
<path d="M489.76 437.691C504 443.59 520 443.59 534.24 437.691V437.691C548.479 431.793 559.793 420.48 565.691 406.24V406.24C571.589 392 571.589 376 565.691 361.76V361.76C559.793 347.521 548.479 336.207 534.24 330.309V330.309C520 324.411 504 324.411 489.76 330.309V330.309C475.52 336.207 464.207 347.521 458.309 361.76V361.76C452.41 376 452.41 392 458.309 406.24V406.24C464.207 420.48 475.52 431.793 489.76 437.691V437.691Z" stroke="currentColor" stroke-width="2.41935" stroke-linecap="round" stroke-linejoin="round"/>
<path d="M565.033 512.033C531.077 526.098 492.923 526.098 458.967 512.033V512.033C425.011 497.968 398.032 470.989 383.967 437.033V437.033C369.902 403.077 369.902 364.923 383.967 330.967V330.967C398.032 297.011 425.011 270.032 458.967 255.967V255.967C492.923 241.902 531.077 241.902 565.033 255.967V255.967C598.989 270.032 625.968 297.011 640.033 330.967V330.967C654.098 364.923 654.098 403.077 640.033 437.033V437.033C625.968 470.989 598.989 497.968 565.033 512.033V512.033Z" stroke="currentColor" stroke-width="2.41935" stroke-linecap="round" stroke-linejoin="round"/>
</g>
<path d="M137.451 619.345L138.09 618.576C137.801 618.336 137.402 618.278 137.057 618.425L137.451 619.345ZM146.829 627.145L146.19 627.914C146.446 628.127 146.791 628.198 147.111 628.104C147.431 628.011 147.683 627.764 147.783 627.446L146.829 627.145ZM150.502 615.512L150.336 614.526C149.966 614.589 149.661 614.853 149.548 615.211L150.502 615.512ZM169.498 615.513L170.452 615.211C170.339 614.853 170.034 614.589 169.664 614.526L169.498 615.513ZM173.171 627.145L172.217 627.446C172.317 627.764 172.569 628.011 172.889 628.104C173.209 628.198 173.554 628.127 173.81 627.914L173.171 627.145ZM182.549 619.345L182.943 618.426C182.597 618.278 182.198 618.336 181.91 618.576L182.549 619.345ZM198.53 629.615L199.495 629.877C199.593 629.515 199.48 629.128 199.202 628.875L198.53 629.615ZM195.33 641.386L194.365 641.124C194.278 641.445 194.356 641.789 194.575 642.041C194.793 642.293 195.122 642.419 195.453 642.379L195.33 641.386ZM207.437 639.895L208.265 639.334C208.055 639.023 207.688 638.856 207.315 638.902L207.437 639.895ZM212.92 650.08L213.844 649.697L212.92 650.08ZM215.329 657.174L215.999 657.917C216.277 657.665 216.392 657.278 216.294 656.915L215.329 657.174ZM206.273 665.347L205.603 664.605C205.356 664.828 205.236 665.16 205.283 665.489C205.331 665.819 205.539 666.104 205.839 666.248L206.273 665.347ZM217.264 670.638L218.264 670.614C218.255 670.238 218.036 669.9 217.698 669.737L217.264 670.638ZM214.561 689.441L214.723 690.427C215.094 690.367 215.399 690.103 215.513 689.745L214.561 689.441ZM202.524 691.42L202.362 690.434C202.033 690.488 201.753 690.702 201.615 691.005C201.476 691.308 201.498 691.66 201.672 691.944L202.524 691.42ZM208.91 701.814L209.764 702.334C209.96 702.013 209.959 701.61 209.762 701.29L208.91 701.814ZM196.47 716.17L196.073 717.088C196.418 717.237 196.817 717.18 197.107 716.941L196.47 716.17ZM185.274 711.328L185.671 710.41C185.365 710.278 185.014 710.307 184.734 710.487C184.453 710.667 184.281 710.975 184.274 711.308L185.274 711.328ZM185.028 723.524L185.465 724.423C185.803 724.259 186.02 723.92 186.028 723.544L185.028 723.524ZM181.92 724.921L181.537 723.997L181.92 724.921ZM166.801 728.876L165.971 729.433C166.18 729.745 166.547 729.913 166.92 729.869L166.801 728.876ZM160 718.749L160.83 718.192C160.644 717.915 160.333 717.749 160 717.749C159.667 717.749 159.355 717.915 159.17 718.192L160 718.749ZM153.199 728.876L153.08 729.869C153.453 729.913 153.82 729.745 154.029 729.433L153.199 728.876ZM138.079 724.921L138.462 723.997L138.079 724.921ZM134.972 723.524L133.972 723.544C133.98 723.92 134.197 724.259 134.535 724.423L134.972 723.524ZM134.726 711.328L135.725 711.308C135.719 710.975 135.546 710.667 135.266 710.487C134.986 710.307 134.634 710.278 134.329 710.41L134.726 711.328ZM123.529 716.17L122.893 716.941C123.182 717.18 123.581 717.237 123.926 717.088L123.529 716.17ZM111.089 701.814L110.237 701.29C110.041 701.61 110.04 702.014 110.235 702.334L111.089 701.814ZM117.476 691.42L118.328 691.944C118.502 691.66 118.524 691.308 118.385 691.005C118.247 690.702 117.967 690.488 117.638 690.434L117.476 691.42ZM105.439 689.441L104.486 689.745C104.601 690.103 104.906 690.366 105.276 690.427L105.439 689.441ZM102.735 670.638L102.302 669.737C101.963 669.9 101.745 670.239 101.736 670.614L102.735 670.638ZM113.727 665.347L114.161 666.248C114.461 666.104 114.669 665.819 114.717 665.489C114.764 665.16 114.644 664.828 114.397 664.605L113.727 665.347ZM104.671 657.174L103.705 656.915C103.608 657.278 103.722 657.665 104.001 657.916L104.671 657.174ZM107.079 650.08L106.156 649.697L107.079 650.08ZM112.562 639.895L112.685 638.902C112.312 638.856 111.945 639.023 111.734 639.334L112.562 639.895ZM124.669 641.386L124.547 642.379C124.878 642.419 125.207 642.293 125.425 642.041C125.643 641.789 125.722 641.445 125.634 641.124L124.669 641.386ZM121.47 629.615L120.797 628.875C120.519 629.128 120.407 629.515 120.505 629.877L121.47 629.615ZM169.192 694.193L169.575 695.117L169.192 694.193ZM182.192 681.193L183.116 681.575L182.192 681.193ZM182.192 662.808L181.268 663.191L182.192 662.808ZM169.192 649.808L169.575 648.884L169.192 649.808ZM137.808 662.808L138.731 663.191L137.808 662.808ZM137.808 681.193L136.884 681.575L137.808 681.193ZM136.811 620.114L146.19 627.914L147.469 626.376L138.09 618.576L136.811 620.114ZM147.783 627.446L151.455 615.814L149.548 615.211L145.876 626.844L147.783 627.446ZM150.668 616.499C156.845 615.46 163.155 615.46 169.332 616.499L169.664 614.526C163.267 613.451 156.733 613.451 150.336 614.526L150.668 616.499ZM168.544 615.814L172.217 627.446L174.124 626.844L170.452 615.211L168.544 615.814ZM173.81 627.914L183.188 620.114L181.91 618.576L172.531 626.376L173.81 627.914ZM182.155 620.264C187.967 622.753 193.262 626.177 197.857 630.355L199.202 628.875C194.444 624.549 188.96 621.002 182.943 618.426L182.155 620.264ZM197.565 629.353L194.365 641.124L196.295 641.648L199.495 629.877L197.565 629.353ZM195.453 642.379L207.56 640.887L207.315 638.902L195.208 640.394L195.453 642.379ZM206.609 640.455C208.722 643.578 210.532 646.927 211.996 650.463L213.844 649.697C212.327 646.036 210.454 642.568 208.265 639.334L206.609 640.455ZM211.996 650.463C212.941 652.745 213.73 655.073 214.363 657.433L216.294 656.915C215.64 654.472 214.823 652.06 213.844 649.697L211.996 650.463ZM214.659 656.432L205.603 664.605L206.943 666.09L215.999 657.917L214.659 656.432ZM205.839 666.248L216.83 671.539L217.698 669.737L206.707 664.446L205.839 666.248ZM216.264 670.661C216.412 676.888 215.527 683.134 213.608 689.136L215.513 689.745C217.5 683.53 218.417 677.062 218.264 670.614L216.264 670.661ZM214.399 688.454L202.362 690.434L202.687 692.407L214.723 690.427L214.399 688.454ZM201.672 691.944L208.058 702.337L209.762 701.29L203.376 690.897L201.672 691.944ZM208.057 701.293C204.787 706.658 200.65 711.422 195.834 715.399L197.107 716.941C202.095 712.823 206.378 707.889 209.764 702.334L208.057 701.293ZM196.867 715.252L185.671 710.41L184.877 712.246L196.073 717.088L196.867 715.252ZM184.274 711.308L184.028 723.504L186.028 723.544L186.274 711.348L184.274 711.308ZM184.591 722.624C183.59 723.111 182.571 723.568 181.537 723.997L182.303 725.844C183.374 725.401 184.428 724.927 185.465 724.423L184.591 722.624ZM181.537 723.997C176.744 725.982 171.744 727.278 166.682 727.883L166.92 729.869C172.162 729.242 177.339 727.901 182.303 725.844L181.537 723.997ZM167.631 728.318L160.83 718.192L159.17 719.307L165.971 729.433L167.631 728.318ZM159.17 718.192L152.369 728.318L154.029 729.433L160.83 719.307L159.17 718.192ZM153.318 727.883C148.255 727.278 143.256 725.982 138.462 723.997L137.697 725.844C142.661 727.901 147.838 729.242 153.08 729.869L153.318 727.883ZM138.462 723.997C137.428 723.568 136.41 723.111 135.409 722.624L134.535 724.423C135.572 724.927 136.626 725.401 137.697 725.844L138.462 723.997ZM135.972 723.504L135.725 711.308L133.726 711.348L133.972 723.544L135.972 723.504ZM134.329 710.41L123.132 715.252L123.926 717.088L135.122 712.246L134.329 710.41ZM124.166 715.399C119.349 711.422 115.213 706.658 111.943 701.293L110.235 702.334C113.621 707.889 117.905 712.823 122.893 716.941L124.166 715.399ZM111.941 702.337L118.328 691.944L116.624 690.897L110.237 701.29L111.941 702.337ZM117.638 690.434L105.601 688.454L105.276 690.427L117.313 692.407L117.638 690.434ZM106.391 689.136C104.472 683.134 103.587 676.889 103.735 670.662L101.736 670.614C101.582 677.062 102.499 683.53 104.486 689.745L106.391 689.136ZM103.169 671.539L114.161 666.248L113.293 664.446L102.302 669.737L103.169 671.539ZM114.397 664.605L105.341 656.432L104.001 657.916L113.057 666.09L114.397 664.605ZM105.637 657.433C106.269 655.073 107.058 652.745 108.003 650.463L106.156 649.697C105.177 652.06 104.36 654.472 103.705 656.915L105.637 657.433ZM108.003 650.463C109.468 646.927 111.277 643.578 113.39 640.455L111.734 639.334C109.546 642.568 107.672 646.036 106.156 649.697L108.003 650.463ZM112.44 640.887L124.547 642.379L124.792 640.394L112.685 638.902L112.44 640.887ZM125.634 641.124L122.435 629.353L120.505 629.877L123.704 641.648L125.634 641.124ZM122.143 630.355C126.738 626.177 132.033 622.752 137.844 620.264L137.057 618.425C131.039 621.002 125.556 624.549 120.797 628.875L122.143 630.355ZM168.81 693.269C163.169 695.605 156.831 695.605 151.19 693.269L150.425 695.117C156.556 697.656 163.444 697.656 169.575 695.117L168.81 693.269ZM181.268 680.81C178.932 686.451 174.45 690.932 168.81 693.269L169.575 695.117C175.706 692.577 180.577 687.706 183.116 681.575L181.268 680.81ZM181.268 663.191C183.605 668.831 183.605 675.169 181.268 680.81L183.116 681.575C185.656 675.445 185.656 668.556 183.116 662.425L181.268 663.191ZM168.81 650.732C174.45 653.068 178.932 657.55 181.268 663.191L183.116 662.425C180.577 656.294 175.706 651.423 169.575 648.884L168.81 650.732ZM151.19 650.732C156.831 648.395 163.169 648.395 168.81 650.732L169.575 648.884C163.444 646.345 156.556 646.345 150.425 648.884L151.19 650.732ZM138.731 663.191C141.068 657.55 145.55 653.068 151.19 650.732L150.425 648.884C144.294 651.423 139.423 656.294 136.884 662.425L138.731 663.191ZM138.731 680.81C136.395 675.169 136.395 668.831 138.731 663.191L136.884 662.425C134.344 668.556 134.344 675.445 136.884 681.575L138.731 680.81ZM151.19 693.269C145.55 690.932 141.068 686.451 138.731 680.81L136.884 681.575C139.423 687.706 144.294 692.577 150.425 695.117L151.19 693.269Z" fill="currentColor"/>
<path d="M155.757 682.243C158.474 683.368 161.526 683.368 164.243 682.243V682.243C166.959 681.117 169.117 678.959 170.243 676.243V676.243C171.368 673.526 171.368 670.474 170.243 667.757V667.757C169.117 665.041 166.959 662.883 164.243 661.757V661.757C161.526 660.632 158.474 660.632 155.757 661.757V661.757C153.041 662.883 150.883 665.041 149.757 667.757V667.757C148.632 670.474 148.632 673.526 149.757 676.243V676.243C150.883 678.959 153.041 681.117 155.757 682.243V682.243Z" stroke="currentColor" stroke-width="2" stroke-linecap="round" stroke-linejoin="round"/>
<path fill-rule="evenodd" clip-rule="evenodd" d="M341.773 685.938C338.077 687.47 333.923 687.47 330.227 685.938C326.53 684.407 323.593 681.47 322.062 677.774C320.531 674.077 320.531 669.923 322.062 666.227C323.593 662.53 326.53 659.593 330.227 658.062C333.923 656.531 338.077 656.531 341.773 658.062C345.47 659.593 348.407 662.53 349.938 666.227C351.469 669.923 351.469 674.077 349.938 677.774C348.407 681.47 345.47 684.407 341.773 685.938ZM333.288 678.547C335.024 679.267 336.975 679.267 338.712 678.547C340.448 677.828 341.828 676.449 342.547 674.712C343.266 672.976 343.266 671.025 342.547 669.288C341.828 667.552 340.448 666.172 338.712 665.453C336.975 664.734 335.024 664.734 333.288 665.453C331.552 666.172 330.172 667.552 329.453 669.288C328.734 671.025 328.734 672.976 329.453 674.712C330.172 676.449 331.552 677.828 333.288 678.547Z" stroke="currentColor" stroke-linecap="round" stroke-linejoin="round"/>
<path fill-rule="evenodd" clip-rule="evenodd" d="M346.723 646.112C339.857 643.268 332.143 643.268 325.277 646.112C318.411 648.956 312.956 654.411 310.112 661.277C307.268 668.143 307.268 675.857 310.112 682.723C312.956 689.589 318.411 695.044 325.277 697.888C332.143 700.732 339.857 700.732 346.723 697.888C353.589 695.044 359.044 689.589 361.888 682.723C364.732 675.857 364.732 668.143 361.888 661.277C359.044 654.411 353.589 648.956 346.723 646.112ZM328.338 653.503C333.244 651.471 338.756 651.471 343.662 653.503C348.567 655.535 352.465 659.433 354.497 664.339C356.529 669.244 356.529 674.756 354.497 679.662C352.465 684.568 348.567 688.465 343.662 690.497C338.756 692.529 333.244 692.529 328.338 690.497C323.433 688.465 319.535 684.568 317.503 679.662C315.471 674.756 315.471 669.244 317.503 664.339C319.535 659.433 323.433 655.535 328.338 653.503Z" stroke="currentColor" stroke-linecap="round" stroke-linejoin="round"/>
<path fill-rule="evenodd" clip-rule="evenodd" d="M346.161 611.568C339.435 610.437 332.565 610.437 325.839 611.568C324.357 611.817 323.14 612.875 322.687 614.308L320.808 620.261L316.009 616.269C314.853 615.309 313.257 615.076 311.876 615.668C305.549 618.377 299.783 622.106 294.779 626.655C293.668 627.666 293.216 629.214 293.61 630.664L295.247 636.688L289.051 635.925C287.56 635.741 286.092 636.408 285.25 637.653C282.949 641.053 280.978 644.7 279.384 648.549C278.355 651.034 277.496 653.569 276.807 656.139C276.418 657.59 276.876 659.137 277.991 660.143L282.625 664.326L277.001 667.034C275.647 667.685 274.772 669.041 274.737 670.543C274.575 677.323 275.539 684.123 277.629 690.659C278.086 692.09 279.307 693.144 280.79 693.388L286.949 694.401L283.681 699.72C282.895 701 282.892 702.613 283.674 703.896C287.234 709.737 291.738 714.924 296.982 719.254C298.141 720.211 299.738 720.438 301.117 719.841L306.847 717.363L306.973 723.605C307.003 725.107 307.873 726.465 309.225 727.122C310.315 727.651 311.423 728.15 312.549 728.616C317.768 730.778 323.212 732.189 328.724 732.847C330.216 733.026 331.682 732.353 332.519 731.106L336 725.924L339.48 731.106C340.318 732.353 341.784 733.026 343.276 732.847C348.788 732.188 354.232 730.778 359.451 728.616C360.577 728.15 361.685 727.651 362.775 727.122C364.127 726.465 364.997 725.107 365.027 723.605L365.153 717.363L370.883 719.841C372.262 720.438 373.859 720.211 375.017 719.254C380.262 714.924 384.766 709.737 388.326 703.896C389.108 702.613 389.105 701 388.318 699.72L385.05 694.401L391.21 693.388C392.692 693.144 393.913 692.09 394.371 690.659C396.46 684.123 397.424 677.322 397.263 670.543C397.227 669.041 396.353 667.685 394.999 667.033L389.374 664.326L394.009 660.144C395.124 659.137 395.581 657.59 395.192 656.139C394.504 653.569 393.645 651.034 392.616 648.549C391.021 644.7 389.051 641.053 386.75 637.653C385.908 636.408 384.439 635.741 382.948 635.925L376.752 636.688L378.39 630.664C378.784 629.214 378.332 627.666 377.22 626.655C372.217 622.107 366.451 618.377 360.124 615.668C358.742 615.076 357.146 615.309 355.991 616.27L351.192 620.261L349.312 614.308C348.86 612.875 347.643 611.817 346.161 611.568ZM326.644 628.349L329.561 619.11C333.837 618.59 338.162 618.59 342.439 619.11L345.356 628.349C345.757 629.62 346.765 630.608 348.044 630.983C349.322 631.358 350.704 631.072 351.728 630.22L359.177 624.025C363.082 625.911 366.716 628.255 370.012 630.988L367.47 640.337C367.121 641.623 367.435 642.999 368.307 644.006C369.18 645.013 370.497 645.519 371.819 645.356L381.435 644.171C382.882 646.534 384.151 649.019 385.225 651.611C385.808 653.019 386.328 654.445 386.785 655.886L379.593 662.378C378.604 663.271 378.124 664.597 378.314 665.916C378.503 667.235 379.337 668.373 380.538 668.951L389.268 673.153C389.175 677.443 388.564 681.724 387.435 685.901L377.875 687.473C376.56 687.69 375.439 688.547 374.886 689.759C374.332 690.971 374.419 692.379 375.116 693.515L380.188 701.769C377.776 705.35 374.942 708.617 371.755 711.502L362.862 707.657C361.639 707.128 360.233 707.242 359.112 707.963C357.991 708.683 357.302 709.915 357.275 711.247L357.079 720.934C356.85 721.032 356.62 721.129 356.389 721.225C352.609 722.791 348.694 723.903 344.722 724.562L339.321 716.519C338.578 715.413 337.332 714.749 336 714.749C334.667 714.749 333.422 715.413 332.679 716.519L327.277 724.562C323.305 723.903 319.39 722.791 315.61 721.225C315.379 721.129 315.15 721.032 314.921 720.934L314.725 711.247C314.698 709.915 314.009 708.683 312.888 707.963C311.767 707.242 310.361 707.128 309.138 707.657L300.245 711.502C297.057 708.617 294.223 705.35 291.811 701.77L296.884 693.515C297.581 692.379 297.668 690.971 297.114 689.759C296.561 688.547 295.44 687.69 294.125 687.473L284.564 685.901C283.435 681.724 282.825 677.443 282.732 673.154L291.462 668.951C292.662 668.373 293.496 667.235 293.686 665.916C293.876 664.597 293.396 663.271 292.407 662.378L285.214 655.886C285.672 654.445 286.192 653.019 286.775 651.611C287.848 649.019 289.117 646.533 290.564 644.171L300.18 645.356C301.503 645.519 302.82 645.013 303.692 644.006C304.565 642.999 304.879 641.623 304.529 640.337L301.988 630.988C305.284 628.254 308.918 625.911 312.822 624.025L320.271 630.22C321.296 631.072 322.678 631.358 323.956 630.983C325.235 630.608 326.242 629.62 326.644 628.349Z" stroke="currentColor" stroke-linecap="round" stroke-linejoin="round"/>
<path fill-rule="evenodd" clip-rule="evenodd" d="M489.451 619.345L498.829 627.145L502.502 615.512C508.789 614.455 515.211 614.455 521.498 615.513L525.171 627.145L534.549 619.345C540.463 621.878 545.853 625.363 550.53 629.615L547.33 641.386L559.437 639.895C561.588 643.073 563.43 646.481 564.92 650.08C565.882 652.402 566.685 654.772 567.329 657.174L558.273 665.347L569.264 670.638C569.415 676.975 568.514 683.332 566.561 689.441L554.524 691.42L560.91 701.814C557.583 707.273 553.373 712.122 548.47 716.17L537.274 711.328L537.028 723.524C536.009 724.019 534.973 724.485 533.92 724.921C529.041 726.941 523.953 728.26 518.801 728.876L512 718.749L505.199 728.876C500.047 728.26 494.958 726.941 490.079 724.921C489.027 724.485 487.991 724.019 486.972 723.524L486.726 711.328L475.529 716.17C470.627 712.122 466.417 707.273 463.089 701.814L469.476 691.42L457.439 689.441C455.486 683.332 454.585 676.975 454.735 670.638L465.727 665.347L456.671 657.174C457.315 654.772 458.117 652.402 459.079 650.08C460.57 646.481 462.411 643.073 464.562 639.895L476.669 641.386L473.47 629.615C478.147 625.363 483.536 621.877 489.451 619.345ZM502.808 694.193C508.693 696.631 515.307 696.631 521.192 694.193C527.078 691.755 531.754 687.078 534.192 681.193C536.63 675.307 536.63 668.694 534.192 662.808C531.754 656.922 527.078 652.246 521.192 649.808C515.307 647.37 508.693 647.37 502.808 649.808C496.922 652.246 492.246 656.922 489.808 662.808C487.37 668.694 487.37 675.307 489.808 681.193C492.246 687.078 496.922 691.755 502.808 694.193Z" fill="currentColor"/>
<path d="M489.451 619.345L490.73 617.807C490.152 617.327 489.354 617.211 488.663 617.506L489.451 619.345ZM498.829 627.145L497.55 628.683C498.063 629.109 498.753 629.252 499.393 629.064C500.032 628.876 500.536 628.383 500.736 627.747L498.829 627.145ZM502.502 615.512L502.17 613.54C501.429 613.665 500.821 614.194 500.595 614.91L502.502 615.512ZM521.498 615.513L523.405 614.91C523.179 614.194 522.57 613.665 521.83 613.54L521.498 615.513ZM525.171 627.145L523.263 627.747C523.464 628.383 523.968 628.876 524.607 629.064C525.246 629.252 525.937 629.109 526.45 628.683L525.171 627.145ZM534.549 619.345L535.336 617.506C534.646 617.211 533.848 617.327 533.27 617.807L534.549 619.345ZM550.53 629.615L552.46 630.14C552.657 629.415 552.431 628.641 551.875 628.135L550.53 629.615ZM547.33 641.386L545.4 640.862C545.226 641.505 545.383 642.192 545.819 642.696C546.255 643.199 546.914 643.453 547.575 643.371L547.33 641.386ZM559.437 639.895L561.094 638.774C560.672 638.151 559.938 637.818 559.193 637.91L559.437 639.895ZM564.92 650.08L566.768 649.315L564.92 650.08ZM567.329 657.174L568.669 658.659C569.226 658.156 569.455 657.382 569.26 656.657L567.329 657.174ZM558.273 665.347L556.933 663.862C556.438 664.309 556.199 664.972 556.293 665.632C556.388 666.291 556.805 666.86 557.406 667.149L558.273 665.347ZM569.264 670.638L571.264 670.59C571.246 669.839 570.808 669.161 570.132 668.836L569.264 670.638ZM566.561 689.441L566.885 691.414C567.627 691.292 568.237 690.765 568.466 690.05L566.561 689.441ZM554.524 691.42L554.2 689.447C553.542 689.555 552.982 689.984 552.705 690.59C552.428 691.196 552.471 691.9 552.82 692.467L554.524 691.42ZM560.91 701.814L562.618 702.855C563.009 702.213 563.008 701.407 562.614 700.767L560.91 701.814ZM548.47 716.17L547.676 718.006C548.366 718.304 549.165 718.191 549.744 717.712L548.47 716.17ZM537.274 711.328L538.068 709.492C537.457 709.228 536.754 709.285 536.193 709.645C535.632 710.006 535.288 710.621 535.275 711.288L537.274 711.328ZM537.028 723.524L537.902 725.323C538.577 724.995 539.012 724.315 539.027 723.564L537.028 723.524ZM533.92 724.921L533.155 723.073L533.92 724.921ZM518.801 728.876L517.141 729.991C517.559 730.614 518.292 730.951 519.038 730.862L518.801 728.876ZM512 718.749L513.66 717.634C513.289 717.081 512.666 716.749 512 716.749C511.334 716.749 510.711 717.081 510.34 717.634L512 718.749ZM505.199 728.876L504.961 730.862C505.707 730.951 506.44 730.614 506.859 729.991L505.199 728.876ZM490.079 724.921L490.845 723.073L490.079 724.921ZM486.972 723.524L484.973 723.564C484.988 724.315 485.423 724.995 486.098 725.323L486.972 723.524ZM486.726 711.328L488.725 711.288C488.712 710.621 488.367 710.006 487.807 709.645C487.246 709.285 486.543 709.228 485.932 709.492L486.726 711.328ZM475.529 716.17L474.256 717.712C474.835 718.191 475.634 718.304 476.323 718.006L475.529 716.17ZM463.089 701.814L461.385 700.767C460.992 701.407 460.991 702.213 461.382 702.855L463.089 701.814ZM469.476 691.42L471.18 692.467C471.528 691.9 471.572 691.196 471.295 690.59C471.018 689.984 470.458 689.555 469.8 689.447L469.476 691.42ZM457.439 689.441L455.534 690.05C455.762 690.765 456.373 691.292 457.114 691.414L457.439 689.441ZM454.735 670.638L453.868 668.836C453.191 669.162 452.754 669.839 452.736 670.59L454.735 670.638ZM465.727 665.347L466.594 667.149C467.195 666.86 467.612 666.291 467.706 665.632C467.801 664.972 467.561 664.309 467.067 663.862L465.727 665.347ZM456.671 657.174L454.739 656.656C454.545 657.382 454.773 658.155 455.331 658.659L456.671 657.174ZM459.079 650.08L457.232 649.315H457.232L459.079 650.08ZM464.562 639.895L464.807 637.91C464.061 637.818 463.327 638.151 462.906 638.774L464.562 639.895ZM476.669 641.386L476.425 643.371C477.086 643.453 477.745 643.199 478.181 642.696C478.617 642.192 478.774 641.505 478.599 640.862L476.669 641.386ZM473.47 629.615L472.125 628.135C471.569 628.64 471.343 629.415 471.54 630.139L473.47 629.615ZM521.192 694.193L521.958 696.04L521.192 694.193ZM534.192 681.193L536.04 681.958L534.192 681.193ZM534.192 662.808L532.345 663.573L534.192 662.808ZM521.192 649.808L521.958 647.96L521.192 649.808ZM489.808 662.808L491.655 663.573L489.808 662.808ZM489.808 681.193L487.96 681.958L489.808 681.193ZM488.172 620.882L497.55 628.683L500.108 625.607L490.73 617.807L488.172 620.882ZM500.736 627.747L504.409 616.115L500.595 614.91L496.922 626.543L500.736 627.747ZM502.833 617.485C508.901 616.465 515.099 616.465 521.166 617.485L521.83 613.54C515.323 612.446 508.677 612.446 502.17 613.54L502.833 617.485ZM519.591 616.115L523.263 627.747L527.078 626.543L523.405 614.91L519.591 616.115ZM526.45 628.683L535.828 620.882L533.27 617.807L523.892 625.607L526.45 628.683ZM533.762 621.183C539.47 623.628 544.671 626.992 549.184 631.095L551.875 628.135C547.035 623.735 541.457 620.127 535.336 617.506L533.762 621.183ZM548.6 629.091L545.4 640.862L549.26 641.911L552.46 630.14L548.6 629.091ZM547.575 643.371L559.682 641.88L559.193 637.91L547.086 639.401L547.575 643.371ZM557.781 641.016C559.857 644.083 561.634 647.372 563.072 650.845L566.768 649.315C565.225 645.591 563.32 642.063 561.094 638.774L557.781 641.016ZM563.072 650.845C564.001 653.087 564.776 655.374 565.397 657.692L569.26 656.657C568.594 654.171 567.763 651.718 566.768 649.315L563.072 650.845ZM565.989 655.69L556.933 663.862L559.613 666.832L568.669 658.659L565.989 655.69ZM557.406 667.149L568.397 672.44L570.132 668.836L559.14 663.545L557.406 667.149ZM567.265 670.685C567.41 676.802 566.54 682.936 564.656 688.832L568.466 690.05C570.487 683.728 571.42 677.149 571.264 670.59L567.265 670.685ZM566.236 687.467L554.2 689.447L554.849 693.394L566.885 691.414L566.236 687.467ZM552.82 692.467L559.206 702.861L562.614 700.767L556.228 690.373L552.82 692.467ZM559.203 700.773C555.991 706.042 551.928 710.721 547.197 714.628L549.744 717.712C554.817 713.523 559.174 708.505 562.618 702.855L559.203 700.773ZM549.264 714.334L538.068 709.492L536.48 713.164L547.676 718.006L549.264 714.334ZM535.275 711.288L535.028 723.483L539.027 723.564L539.274 711.368L535.275 711.288ZM536.154 721.725C535.171 722.202 534.17 722.652 533.155 723.073L534.685 726.768C535.775 726.317 536.847 725.835 537.902 725.323L536.154 721.725ZM533.155 723.073C528.446 725.023 523.536 726.295 518.564 726.89L519.038 730.862C524.37 730.224 529.636 728.86 534.685 726.768L533.155 723.073ZM520.461 727.761L513.66 717.634L510.34 719.864L517.141 729.991L520.461 727.761ZM510.34 717.634L503.539 727.761L506.859 729.991L513.66 719.864L510.34 717.634ZM505.436 726.89C500.464 726.295 495.553 725.023 490.845 723.073L489.314 726.768C494.363 728.86 499.629 730.224 504.961 730.862L505.436 726.89ZM490.845 723.073C489.829 722.652 488.829 722.202 487.846 721.725L486.098 725.323C487.153 725.835 488.225 726.317 489.314 726.768L490.845 723.073ZM488.972 723.483L488.725 711.288L484.726 711.368L484.973 723.564L488.972 723.483ZM485.932 709.492L474.735 714.334L476.323 718.006L487.519 713.164L485.932 709.492ZM476.803 714.628C472.072 710.721 468.009 706.042 464.797 700.773L461.382 702.855C464.826 708.505 469.183 713.523 474.256 717.712L476.803 714.628ZM464.793 702.861L471.18 692.467L467.772 690.373L461.385 700.767L464.793 702.861ZM469.8 689.447L457.763 687.467L457.114 691.414L469.151 693.394L469.8 689.447ZM459.344 688.832C457.459 682.936 456.589 676.802 456.735 670.685L452.736 670.59C452.58 677.149 453.513 683.728 455.534 690.05L459.344 688.832ZM455.603 672.44L466.594 667.149L464.859 663.545L453.868 668.836L455.603 672.44ZM467.067 663.862L458.011 655.689L455.331 658.659L464.387 666.832L467.067 663.862ZM458.603 657.692C459.224 655.374 459.999 653.087 460.927 650.845L457.232 649.315C456.236 651.718 455.405 654.171 454.739 656.656L458.603 657.692ZM460.927 650.845C462.366 647.372 464.143 644.083 466.219 641.016L462.906 638.774C460.68 642.063 458.774 645.591 457.232 649.315L460.927 650.845ZM464.318 641.88L476.425 643.371L476.914 639.401L464.807 637.91L464.318 641.88ZM478.599 640.862L475.4 629.09L471.54 630.139L474.739 641.911L478.599 640.862ZM474.815 631.095C479.329 626.991 484.53 623.628 490.238 621.183L488.663 617.506C482.543 620.127 476.965 623.735 472.125 628.135L474.815 631.095ZM520.427 692.345C515.031 694.58 508.969 694.58 503.573 692.345L502.042 696.04C508.418 698.681 515.582 698.681 521.958 696.04L520.427 692.345ZM532.345 680.427C530.11 685.823 525.823 690.11 520.427 692.345L521.958 696.04C528.334 693.399 533.399 688.334 536.04 681.958L532.345 680.427ZM532.345 663.573C534.58 668.969 534.58 675.032 532.345 680.427L536.04 681.958C538.681 675.582 538.681 668.418 536.04 662.043L532.345 663.573ZM520.427 651.656C525.823 653.891 530.11 658.178 532.345 663.573L536.04 662.043C533.399 655.667 528.334 650.601 521.958 647.96L520.427 651.656ZM503.573 651.656C508.969 649.421 515.031 649.421 520.427 651.656L521.958 647.96C515.582 645.319 508.418 645.319 502.042 647.96L503.573 651.656ZM491.655 663.573C493.89 658.178 498.177 653.891 503.573 651.656L502.042 647.96C495.666 650.601 490.601 655.667 487.96 662.043L491.655 663.573ZM491.655 680.427C489.42 675.032 489.42 668.969 491.655 663.573L487.96 662.043C485.319 668.418 485.319 675.582 487.96 681.958L491.655 680.427ZM503.573 692.345C498.177 690.11 493.89 685.823 491.655 680.427L487.96 681.958C490.601 688.334 495.666 693.399 502.042 696.04L503.573 692.345Z" fill="currentColor"/>
<path d="M507.757 682.243C510.474 683.368 513.526 683.368 516.243 682.243C518.959 681.117 521.117 678.959 522.243 676.243C523.368 673.526 523.368 670.474 522.243 667.757C521.117 665.041 518.959 662.883 516.243 661.757C513.526 660.632 510.474 660.632 507.757 661.757C505.041 662.883 502.883 665.041 501.757 667.757C500.632 670.474 500.632 673.526 501.757 676.243C502.883 678.959 505.041 681.117 507.757 682.243Z" fill="currentColor" stroke="currentColor" stroke-width="4" stroke-linecap="round" stroke-linejoin="round"/>
<g opacity="0.25">
<path fill-rule="evenodd" clip-rule="evenodd" d="M665.451 619.345L674.829 627.145L678.502 615.512C684.789 614.455 691.211 614.455 697.498 615.513L701.171 627.145L710.549 619.345C716.463 621.878 721.853 625.363 726.53 629.615L723.33 641.386L735.437 639.895C737.588 643.073 739.43 646.481 740.92 650.08C741.882 652.402 742.685 654.772 743.329 657.174L734.273 665.347L745.264 670.638C745.415 676.975 744.514 683.332 742.561 689.441L730.524 691.42L736.91 701.814C733.583 707.273 729.373 712.122 724.47 716.17L713.274 711.328L713.028 723.524C712.009 724.019 710.973 724.485 709.92 724.921C705.041 726.941 699.953 728.26 694.801 728.876L688 718.749L681.199 728.876C676.047 728.26 670.958 726.941 666.079 724.921C665.027 724.485 663.991 724.019 662.972 723.524L662.726 711.328L651.529 716.17C646.627 712.122 642.417 707.274 639.089 701.814L645.476 691.42L633.439 689.441C631.486 683.332 630.585 676.975 630.735 670.638L641.727 665.347L632.671 657.174C633.315 654.772 634.117 652.402 635.079 650.08C636.57 646.481 638.411 643.073 640.562 639.895L652.669 641.386L649.47 629.615C654.147 625.363 659.536 621.877 665.451 619.345ZM678.808 694.193C684.693 696.631 691.307 696.631 697.192 694.193C703.078 691.755 707.754 687.078 710.192 681.193C712.63 675.307 712.63 668.694 710.192 662.808C707.754 656.922 703.078 652.246 697.192 649.808C691.307 647.37 684.693 647.37 678.808 649.808C672.922 652.246 668.246 656.922 665.808 662.808C663.37 668.694 663.37 675.307 665.808 681.193C668.246 687.078 672.922 691.755 678.808 694.193Z" fill="currentColor"/>
<path d="M665.451 619.345L666.73 617.807C666.152 617.327 665.354 617.211 664.663 617.506L665.451 619.345ZM674.829 627.145L673.55 628.683C674.063 629.109 674.753 629.252 675.393 629.064C676.032 628.876 676.536 628.383 676.736 627.747L674.829 627.145ZM678.502 615.512L678.17 613.54C677.429 613.665 676.821 614.194 676.595 614.91L678.502 615.512ZM697.498 615.513L699.405 614.91C699.179 614.194 698.57 613.665 697.83 613.54L697.498 615.513ZM701.171 627.145L699.263 627.747C699.464 628.383 699.968 628.876 700.607 629.064C701.246 629.252 701.937 629.109 702.45 628.683L701.171 627.145ZM710.549 619.345L711.336 617.506C710.646 617.211 709.848 617.327 709.27 617.807L710.549 619.345ZM726.53 629.615L728.46 630.14C728.657 629.415 728.431 628.641 727.875 628.135L726.53 629.615ZM723.33 641.386L721.4 640.862C721.226 641.505 721.383 642.192 721.819 642.696C722.255 643.199 722.914 643.453 723.575 643.371L723.33 641.386ZM735.437 639.895L737.094 638.774C736.672 638.151 735.938 637.818 735.193 637.91L735.437 639.895ZM740.92 650.08L742.768 649.315L740.92 650.08ZM743.329 657.174L744.669 658.659C745.226 658.156 745.455 657.382 745.26 656.657L743.329 657.174ZM734.273 665.347L732.933 663.862C732.438 664.309 732.199 664.972 732.293 665.632C732.388 666.291 732.805 666.86 733.406 667.149L734.273 665.347ZM745.264 670.638L747.264 670.59C747.246 669.839 746.808 669.161 746.132 668.836L745.264 670.638ZM742.561 689.441L742.885 691.414C743.627 691.292 744.237 690.765 744.466 690.05L742.561 689.441ZM730.524 691.42L730.2 689.447C729.542 689.555 728.982 689.984 728.705 690.59C728.428 691.196 728.471 691.9 728.82 692.467L730.524 691.42ZM736.91 701.814L738.618 702.855C739.009 702.213 739.008 701.407 738.614 700.767L736.91 701.814ZM724.47 716.17L723.676 718.006C724.366 718.304 725.165 718.191 725.744 717.712L724.47 716.17ZM713.274 711.328L714.068 709.492C713.457 709.228 712.754 709.285 712.193 709.645C711.632 710.006 711.288 710.621 711.275 711.288L713.274 711.328ZM713.028 723.524L713.902 725.323C714.577 724.995 715.012 724.315 715.027 723.564L713.028 723.524ZM709.92 724.921L709.155 723.073L709.155 723.073L709.92 724.921ZM694.801 728.876L693.141 729.991C693.559 730.614 694.292 730.951 695.038 730.862L694.801 728.876ZM688 718.749L689.66 717.634C689.289 717.081 688.666 716.749 688 716.749C687.334 716.749 686.711 717.081 686.34 717.634L688 718.749ZM681.199 728.876L680.961 730.862C681.707 730.951 682.44 730.614 682.859 729.991L681.199 728.876ZM666.079 724.921L665.314 726.768L666.079 724.921ZM662.972 723.524L660.973 723.564C660.988 724.315 661.423 724.995 662.098 725.323L662.972 723.524ZM662.726 711.328L664.725 711.288C664.712 710.621 664.367 710.006 663.807 709.645C663.246 709.285 662.543 709.228 661.932 709.492L662.726 711.328ZM651.529 716.17L650.256 717.712C650.835 718.191 651.634 718.304 652.323 718.006L651.529 716.17ZM639.089 701.814L637.385 700.767C636.992 701.407 636.991 702.213 637.382 702.855L639.089 701.814ZM645.476 691.42L647.18 692.467C647.528 691.9 647.572 691.196 647.295 690.59C647.018 689.984 646.458 689.555 645.8 689.447L645.476 691.42ZM633.439 689.441L631.534 690.05C631.762 690.765 632.373 691.292 633.114 691.414L633.439 689.441ZM630.735 670.638L629.868 668.836C629.191 669.162 628.754 669.839 628.736 670.59L630.735 670.638ZM641.727 665.347L642.594 667.149C643.195 666.86 643.612 666.291 643.706 665.632C643.801 664.972 643.561 664.309 643.067 663.862L641.727 665.347ZM632.671 657.174L630.739 656.656C630.545 657.382 630.773 658.155 631.331 658.659L632.671 657.174ZM635.079 650.08L633.232 649.315L635.079 650.08ZM640.562 639.895L640.807 637.91C640.061 637.818 639.327 638.151 638.906 638.774L640.562 639.895ZM652.669 641.386L652.425 643.371C653.086 643.453 653.745 643.199 654.181 642.696C654.617 642.192 654.774 641.505 654.599 640.862L652.669 641.386ZM649.47 629.615L648.125 628.135C647.569 628.64 647.343 629.415 647.54 630.139L649.47 629.615ZM697.192 694.193L697.958 696.04L697.192 694.193ZM678.808 694.193L679.573 692.345V692.345L678.808 694.193ZM710.192 681.193L712.04 681.958L710.192 681.193ZM710.192 662.808L708.345 663.573L710.192 662.808ZM697.192 649.808L696.427 651.656L697.192 649.808ZM678.808 649.808L679.573 651.656L678.808 649.808ZM665.808 662.808L667.655 663.573L665.808 662.808ZM665.808 681.193L663.96 681.958L665.808 681.193ZM664.172 620.882L673.55 628.683L676.108 625.607L666.73 617.807L664.172 620.882ZM676.736 627.747L680.409 616.115L676.595 614.91L672.922 626.543L676.736 627.747ZM678.833 617.485C684.901 616.465 691.099 616.465 697.166 617.485L697.83 613.54C691.323 612.446 684.677 612.446 678.17 613.54L678.833 617.485ZM695.591 616.115L699.263 627.747L703.078 626.543L699.405 614.91L695.591 616.115ZM702.45 628.683L711.828 620.882L709.27 617.807L699.892 625.607L702.45 628.683ZM709.762 621.183C715.47 623.628 720.671 626.992 725.184 631.095L727.875 628.135C723.035 623.735 717.457 620.127 711.336 617.506L709.762 621.183ZM724.6 629.091L721.4 640.862L725.26 641.911L728.46 630.14L724.6 629.091ZM723.575 643.371L735.682 641.88L735.193 637.91L723.086 639.401L723.575 643.371ZM733.781 641.016C735.857 644.083 737.634 647.372 739.072 650.845L742.768 649.315C741.225 645.591 739.32 642.063 737.094 638.774L733.781 641.016ZM739.072 650.845C740.001 653.087 740.776 655.374 741.397 657.692L745.26 656.657C744.594 654.171 743.763 651.718 742.768 649.315L739.072 650.845ZM741.989 655.69L732.933 663.862L735.613 666.832L744.669 658.659L741.989 655.69ZM733.406 667.149L744.397 672.44L746.132 668.836L735.14 663.545L733.406 667.149ZM743.265 670.685C743.41 676.802 742.54 682.936 740.656 688.832L744.466 690.05C746.487 683.728 747.42 677.149 747.264 670.59L743.265 670.685ZM742.236 687.467L730.2 689.447L730.849 693.394L742.885 691.414L742.236 687.467ZM728.82 692.467L735.206 702.861L738.614 700.767L732.228 690.373L728.82 692.467ZM735.203 700.773C731.991 706.042 727.928 710.721 723.197 714.628L725.744 717.712C730.817 713.523 735.174 708.505 738.618 702.855L735.203 700.773ZM725.264 714.334L714.068 709.492L712.48 713.164L723.676 718.006L725.264 714.334ZM711.275 711.288L711.028 723.483L715.027 723.564L715.274 711.368L711.275 711.288ZM712.154 721.725C711.171 722.202 710.17 722.652 709.155 723.073L710.685 726.768C711.775 726.317 712.847 725.835 713.902 725.323L712.154 721.725ZM709.155 723.073C704.446 725.023 699.536 726.295 694.564 726.89L695.038 730.862C700.37 730.224 705.636 728.86 710.685 726.768L709.155 723.073ZM696.461 727.761L689.66 717.634L686.34 719.864L693.141 729.991L696.461 727.761ZM686.34 717.634L679.539 727.761L682.859 729.991L689.66 719.864L686.34 717.634ZM681.436 726.89C676.464 726.295 671.553 725.023 666.845 723.073L665.314 726.768C670.363 728.86 675.629 730.224 680.961 730.862L681.436 726.89ZM666.845 723.073C665.829 722.652 664.829 722.202 663.846 721.725L662.098 725.323C663.153 725.835 664.225 726.317 665.314 726.768L666.845 723.073ZM664.972 723.483L664.725 711.288L660.726 711.368L660.973 723.564L664.972 723.483ZM661.932 709.492L650.735 714.334L652.323 718.006L663.519 713.164L661.932 709.492ZM652.803 714.628C648.072 710.721 644.009 706.042 640.797 700.773L637.382 702.855C640.826 708.505 645.183 713.523 650.256 717.712L652.803 714.628ZM640.793 702.861L647.18 692.467L643.772 690.373L637.385 700.767L640.793 702.861ZM645.8 689.447L633.763 687.467L633.114 691.414L645.151 693.394L645.8 689.447ZM635.344 688.832C633.459 682.936 632.589 676.802 632.735 670.685L628.736 670.59C628.58 677.149 629.513 683.728 631.534 690.05L635.344 688.832ZM631.603 672.44L642.594 667.149L640.859 663.545L629.868 668.836L631.603 672.44ZM643.067 663.862L634.011 655.689L631.331 658.659L640.387 666.832L643.067 663.862ZM634.603 657.692C635.224 655.374 635.999 653.087 636.927 650.845L633.232 649.315C632.236 651.718 631.405 654.171 630.739 656.656L634.603 657.692ZM636.927 650.845C638.366 647.372 640.143 644.083 642.219 641.016L638.906 638.774C636.68 642.063 634.774 645.591 633.232 649.315L636.927 650.845ZM640.318 641.88L652.425 643.371L652.914 639.401L640.807 637.91L640.318 641.88ZM654.599 640.862L651.4 629.09L647.54 630.139L650.739 641.911L654.599 640.862ZM650.815 631.095C655.329 626.991 660.53 623.628 666.238 621.183L664.663 617.506C658.543 620.127 652.965 623.735 648.125 628.135L650.815 631.095ZM696.427 692.345C691.031 694.58 684.969 694.58 679.573 692.345L678.042 696.04C684.418 698.681 691.582 698.681 697.958 696.04L696.427 692.345ZM708.345 680.427C706.11 685.823 701.823 690.11 696.427 692.345L697.958 696.04C704.334 693.399 709.399 688.334 712.04 681.958L708.345 680.427ZM708.345 663.573C710.58 668.969 710.58 675.032 708.345 680.427L712.04 681.958C714.681 675.582 714.681 668.418 712.04 662.043L708.345 663.573ZM696.427 651.656C701.823 653.891 706.11 658.178 708.345 663.573L712.04 662.043C709.399 655.667 704.334 650.601 697.958 647.96L696.427 651.656ZM679.573 651.656C684.969 649.421 691.031 649.421 696.427 651.656L697.958 647.96C691.582 645.319 684.418 645.319 678.042 647.96L679.573 651.656ZM667.655 663.573C669.89 658.178 674.177 653.891 679.573 651.656L678.042 647.96C671.666 650.601 666.601 655.667 663.96 662.043L667.655 663.573ZM667.655 680.427C665.42 675.032 665.42 668.969 667.655 663.573L663.96 662.043C661.319 668.418 661.319 675.582 663.96 681.958L667.655 680.427ZM679.573 692.345C674.177 690.11 669.89 685.823 667.655 680.427L663.96 681.958C666.601 688.334 671.666 693.399 678.042 696.04L679.573 692.345Z" fill="currentColor"/>
</g>
<path d="M683.757 682.243C686.474 683.368 689.526 683.368 692.243 682.243C694.959 681.117 697.117 678.959 698.243 676.243C699.368 673.526 699.368 670.474 698.243 667.757C697.117 665.041 694.959 662.883 692.243 661.757C689.526 660.632 686.474 660.632 683.757 661.757C681.041 662.883 678.883 665.041 677.757 667.757C676.632 670.474 676.632 673.526 677.757 676.243C678.883 678.959 681.041 681.117 683.757 682.243Z" fill="currentColor" stroke="currentColor" stroke-width="4" stroke-linecap="round" stroke-linejoin="round"/>
<path fill-rule="evenodd" clip-rule="evenodd" d="M841.451 619.345L850.829 627.145L854.502 615.512C860.789 614.455 867.211 614.455 873.498 615.513L877.171 627.145L886.549 619.345C892.463 621.878 897.853 625.363 902.53 629.615L899.33 641.386L911.437 639.895C913.588 643.073 915.43 646.481 916.92 650.08C917.882 652.402 918.685 654.772 919.329 657.174L910.273 665.347L921.264 670.638C921.415 676.975 920.514 683.332 918.561 689.441L906.524 691.42L912.91 701.814C909.583 707.273 905.373 712.122 900.47 716.17L889.274 711.328L889.028 723.524C888.009 724.019 886.973 724.485 885.92 724.921C881.041 726.941 875.953 728.26 870.801 728.876L864 718.749L857.199 728.876C852.047 728.26 846.958 726.941 842.079 724.921C841.027 724.485 839.991 724.019 838.972 723.524L838.726 711.328L827.529 716.17C822.627 712.122 818.417 707.273 815.089 701.814L821.476 691.42L809.439 689.441C807.486 683.332 806.585 676.975 806.735 670.638L817.727 665.347L808.671 657.174C809.315 654.772 810.117 652.402 811.079 650.08C812.57 646.481 814.411 643.073 816.562 639.895L828.669 641.386L825.47 629.615C830.147 625.363 835.536 621.877 841.451 619.345ZM854.808 694.193C860.693 696.631 867.307 696.631 873.192 694.193C879.078 691.755 883.754 687.078 886.192 681.193C888.63 675.307 888.63 668.694 886.192 662.808C883.754 656.922 879.078 652.246 873.192 649.808C867.307 647.37 860.693 647.37 854.808 649.808C848.922 652.246 844.246 656.922 841.808 662.808C839.37 668.694 839.37 675.307 841.808 681.193C844.246 687.078 848.922 691.755 854.808 694.193Z" fill="#FFA500"/>
<path d="M841.451 619.345L842.73 617.807C842.152 617.327 841.354 617.211 840.663 617.506L841.451 619.345ZM850.829 627.145L849.55 628.683C850.063 629.109 850.753 629.252 851.393 629.064C852.032 628.876 852.536 628.383 852.736 627.747L850.829 627.145ZM854.502 615.512L854.17 613.54C853.429 613.665 852.821 614.194 852.595 614.91L854.502 615.512ZM873.498 615.513L875.405 614.91C875.179 614.194 874.57 613.665 873.83 613.54L873.498 615.513ZM877.171 627.145L875.263 627.747C875.464 628.383 875.968 628.876 876.607 629.064C877.246 629.252 877.937 629.109 878.45 628.683L877.171 627.145ZM886.549 619.345L887.336 617.506C886.646 617.211 885.848 617.327 885.27 617.807L886.549 619.345ZM902.53 629.615L904.46 630.14C904.657 629.415 904.431 628.641 903.875 628.135L902.53 629.615ZM899.33 641.386L897.4 640.862C897.226 641.505 897.383 642.192 897.819 642.696C898.255 643.199 898.914 643.453 899.575 643.371L899.33 641.386ZM911.437 639.895L913.094 638.774C912.672 638.151 911.938 637.818 911.193 637.91L911.437 639.895ZM916.92 650.08L918.768 649.315L916.92 650.08ZM919.329 657.174L920.669 658.659C921.226 658.156 921.455 657.382 921.26 656.657L919.329 657.174ZM910.273 665.347L908.933 663.862C908.438 664.309 908.199 664.972 908.293 665.632C908.388 666.291 908.805 666.86 909.406 667.149L910.273 665.347ZM921.264 670.638L923.264 670.59C923.246 669.839 922.808 669.161 922.132 668.836L921.264 670.638ZM918.561 689.441L918.885 691.414C919.627 691.292 920.237 690.765 920.466 690.05L918.561 689.441ZM906.524 691.42L906.2 689.447C905.542 689.555 904.982 689.984 904.705 690.59C904.428 691.196 904.471 691.9 904.82 692.467L906.524 691.42ZM912.91 701.814L914.618 702.855C915.009 702.213 915.008 701.407 914.614 700.767L912.91 701.814ZM900.47 716.17L899.676 718.006C900.366 718.304 901.165 718.191 901.744 717.712L900.47 716.17ZM889.274 711.328L890.068 709.492C889.457 709.228 888.754 709.285 888.193 709.645C887.632 710.006 887.288 710.621 887.275 711.288L889.274 711.328ZM889.028 723.524L889.902 725.323C890.577 724.995 891.012 724.315 891.027 723.564L889.028 723.524ZM885.92 724.921L885.155 723.073L885.92 724.921ZM870.801 728.876L869.141 729.991C869.559 730.614 870.292 730.951 871.038 730.862L870.801 728.876ZM864 718.749L865.66 717.634C865.289 717.081 864.666 716.749 864 716.749C863.334 716.749 862.711 717.081 862.34 717.634L864 718.749ZM857.199 728.876L856.961 730.862C857.707 730.951 858.44 730.614 858.859 729.991L857.199 728.876ZM842.079 724.921L842.845 723.073L842.079 724.921ZM838.972 723.524L836.973 723.564C836.988 724.315 837.423 724.995 838.098 725.323L838.972 723.524ZM838.726 711.328L840.725 711.288C840.712 710.621 840.367 710.006 839.807 709.645C839.246 709.285 838.543 709.228 837.932 709.492L838.726 711.328ZM827.529 716.17L826.256 717.712C826.835 718.191 827.634 718.304 828.323 718.006L827.529 716.17ZM815.089 701.814L813.385 700.767C812.992 701.407 812.991 702.213 813.382 702.855L815.089 701.814ZM821.476 691.42L823.18 692.467C823.528 691.9 823.572 691.196 823.295 690.59C823.018 689.984 822.458 689.555 821.8 689.447L821.476 691.42ZM809.439 689.441L807.534 690.05C807.762 690.765 808.373 691.292 809.114 691.414L809.439 689.441ZM806.735 670.638L805.868 668.836C805.191 669.162 804.754 669.839 804.736 670.59L806.735 670.638ZM817.727 665.347L818.594 667.149C819.195 666.86 819.612 666.291 819.706 665.632C819.801 664.972 819.561 664.309 819.067 663.862L817.727 665.347ZM808.671 657.174L806.739 656.656C806.545 657.382 806.773 658.155 807.331 658.659L808.671 657.174ZM811.079 650.08L809.232 649.315H809.232L811.079 650.08ZM816.562 639.895L816.807 637.91C816.061 637.818 815.327 638.151 814.906 638.774L816.562 639.895ZM828.669 641.386L828.425 643.371C829.086 643.453 829.745 643.199 830.181 642.696C830.617 642.192 830.774 641.505 830.599 640.862L828.669 641.386ZM825.47 629.615L824.125 628.135C823.569 628.64 823.343 629.415 823.54 630.139L825.47 629.615ZM873.192 694.193L873.958 696.04L873.192 694.193ZM886.192 681.193L888.04 681.958L886.192 681.193ZM886.192 662.808L884.345 663.573L886.192 662.808ZM873.192 649.808L873.958 647.96L873.192 649.808ZM841.808 662.808L843.655 663.573L841.808 662.808ZM841.808 681.193L839.96 681.958L841.808 681.193ZM840.172 620.882L849.55 628.683L852.108 625.607L842.73 617.807L840.172 620.882ZM852.736 627.747L856.409 616.115L852.595 614.91L848.922 626.543L852.736 627.747ZM854.833 617.485C860.901 616.465 867.099 616.465 873.166 617.485L873.83 613.54C867.323 612.446 860.677 612.446 854.17 613.54L854.833 617.485ZM871.591 616.115L875.263 627.747L879.078 626.543L875.405 614.91L871.591 616.115ZM878.45 628.683L887.828 620.882L885.27 617.807L875.892 625.607L878.45 628.683ZM885.762 621.183C891.47 623.628 896.671 626.992 901.184 631.095L903.875 628.135C899.035 623.735 893.457 620.127 887.336 617.506L885.762 621.183ZM900.6 629.091L897.4 640.862L901.26 641.911L904.46 630.14L900.6 629.091ZM899.575 643.371L911.682 641.88L911.193 637.91L899.086 639.401L899.575 643.371ZM909.781 641.016C911.857 644.083 913.634 647.372 915.072 650.845L918.768 649.315C917.225 645.591 915.32 642.063 913.094 638.774L909.781 641.016ZM915.072 650.845C916.001 653.087 916.776 655.374 917.397 657.692L921.26 656.657C920.594 654.171 919.763 651.718 918.768 649.315L915.072 650.845ZM917.989 655.69L908.933 663.862L911.613 666.832L920.669 658.659L917.989 655.69ZM909.406 667.149L920.397 672.44L922.132 668.836L911.14 663.545L909.406 667.149ZM919.265 670.685C919.41 676.802 918.54 682.936 916.656 688.832L920.466 690.05C922.487 683.728 923.42 677.149 923.264 670.59L919.265 670.685ZM918.236 687.467L906.2 689.447L906.849 693.394L918.885 691.414L918.236 687.467ZM904.82 692.467L911.206 702.861L914.614 700.767L908.228 690.373L904.82 692.467ZM911.203 700.773C907.991 706.042 903.928 710.721 899.197 714.628L901.744 717.712C906.817 713.523 911.174 708.505 914.618 702.855L911.203 700.773ZM901.264 714.334L890.068 709.492L888.48 713.164L899.676 718.006L901.264 714.334ZM887.275 711.288L887.028 723.483L891.027 723.564L891.274 711.368L887.275 711.288ZM888.154 721.725C887.171 722.202 886.17 722.652 885.155 723.073L886.685 726.768C887.775 726.317 888.847 725.835 889.902 725.323L888.154 721.725ZM885.155 723.073C880.446 725.023 875.536 726.295 870.564 726.89L871.038 730.862C876.37 730.224 881.636 728.86 886.685 726.768L885.155 723.073ZM872.461 727.761L865.66 717.634L862.34 719.864L869.141 729.991L872.461 727.761ZM862.34 717.634L855.539 727.761L858.859 729.991L865.66 719.864L862.34 717.634ZM857.436 726.89C852.464 726.295 847.553 725.023 842.845 723.073L841.314 726.768C846.363 728.86 851.629 730.224 856.961 730.862L857.436 726.89ZM842.845 723.073C841.829 722.652 840.829 722.202 839.846 721.725L838.098 725.323C839.153 725.835 840.225 726.317 841.314 726.768L842.845 723.073ZM840.972 723.483L840.725 711.288L836.726 711.368L836.973 723.564L840.972 723.483ZM837.932 709.492L826.735 714.334L828.323 718.006L839.519 713.164L837.932 709.492ZM828.803 714.628C824.072 710.721 820.009 706.042 816.797 700.773L813.382 702.855C816.826 708.505 821.183 713.523 826.256 717.712L828.803 714.628ZM816.793 702.861L823.18 692.467L819.772 690.373L813.385 700.767L816.793 702.861ZM821.8 689.447L809.763 687.467L809.114 691.414L821.151 693.394L821.8 689.447ZM811.344 688.832C809.459 682.936 808.589 676.802 808.735 670.685L804.736 670.59C804.58 677.149 805.513 683.728 807.534 690.05L811.344 688.832ZM807.603 672.44L818.594 667.149L816.859 663.545L805.868 668.836L807.603 672.44ZM819.067 663.862L810.011 655.689L807.331 658.659L816.387 666.832L819.067 663.862ZM810.603 657.692C811.224 655.374 811.999 653.087 812.927 650.845L809.232 649.315C808.236 651.718 807.405 654.171 806.739 656.656L810.603 657.692ZM812.927 650.845C814.366 647.372 816.143 644.083 818.219 641.016L814.906 638.774C812.68 642.063 810.774 645.591 809.232 649.315L812.927 650.845ZM816.318 641.88L828.425 643.371L828.914 639.401L816.807 637.91L816.318 641.88ZM830.599 640.862L827.4 629.09L823.54 630.139L826.739 641.911L830.599 640.862ZM826.815 631.095C831.329 626.991 836.53 623.628 842.238 621.183L840.663 617.506C834.543 620.127 828.965 623.735 824.125 628.135L826.815 631.095ZM872.427 692.345C867.031 694.58 860.969 694.58 855.573 692.345L854.042 696.04C860.418 698.681 867.582 698.681 873.958 696.04L872.427 692.345ZM884.345 680.427C882.11 685.823 877.823 690.11 872.427 692.345L873.958 696.04C880.334 693.399 885.399 688.334 888.04 681.958L884.345 680.427ZM884.345 663.573C886.58 668.969 886.58 675.032 884.345 680.427L888.04 681.958C890.681 675.582 890.681 668.418 888.04 662.043L884.345 663.573ZM872.427 651.656C877.823 653.891 882.11 658.178 884.345 663.573L888.04 662.043C885.399 655.667 880.334 650.601 873.958 647.96L872.427 651.656ZM855.573 651.656C860.969 649.421 867.031 649.421 872.427 651.656L873.958 647.96C867.582 645.319 860.418 645.319 854.042 647.96L855.573 651.656ZM843.655 663.573C845.89 658.178 850.177 653.891 855.573 651.656L854.042 647.96C847.666 650.601 842.601 655.667 839.96 662.043L843.655 663.573ZM843.655 680.427C841.42 675.032 841.42 668.969 843.655 663.573L839.96 662.043C837.319 668.418 837.319 675.582 839.96 681.958L843.655 680.427ZM855.573 692.345C850.177 690.11 845.89 685.823 843.655 680.427L839.96 681.958C842.601 688.334 847.666 693.399 854.042 696.04L855.573 692.345Z" fill="#FFA500"/>
<path d="M859.757 682.243C862.474 683.368 865.526 683.368 868.243 682.243C870.959 681.117 873.117 678.959 874.243 676.243C875.368 673.526 875.368 670.474 874.243 667.757C873.117 665.041 870.959 662.883 868.243 661.757C865.526 660.632 862.474 660.632 859.757 661.757C857.041 662.883 854.883 665.041 853.757 667.757C852.632 670.474 852.632 673.526 853.757 676.243C854.883 678.959 857.041 681.117 859.757 682.243Z" fill="#FFD700" stroke="#FFD700" stroke-width="4" stroke-linecap="round" stroke-linejoin="round"/>
</svg>
