<svg viewBox="0 0 1024 768" fill="none" xmlns="http://www.w3.org/2000/svg">
<path d="M424 36L443.75 68.817L481.063 77.459L455.955 106.383L459.267 144.541L424 129.6L388.733 144.541L392.045 106.383L366.937 77.459L404.25 68.817L424 36Z" stroke="#7B61FF" stroke-width="2" stroke-linecap="round" stroke-linejoin="round"/>
<path d="M600 156L657.063 114.541L635.267 47.459H564.733L542.937 114.541L600 156Z" stroke="#7B61FF" stroke-width="2" stroke-linecap="round" stroke-linejoin="round"/>
<path fill-rule="evenodd" clip-rule="evenodd" d="M512 258.603C521.187 258.603 529.703 263.417 534.44 271.288L552.636 301.523C558.221 310.804 567.331 317.422 577.883 319.866L612.26 327.828C621.211 329.901 628.421 336.512 631.26 345.25C634.099 353.988 632.152 363.574 626.129 370.512L602.997 397.16C595.897 405.34 592.417 416.049 593.354 426.84L596.405 461.996C597.199 471.149 593.139 480.049 585.706 485.449C578.274 490.849 568.555 491.96 560.095 488.376L527.603 474.611C517.63 470.385 506.369 470.385 496.396 474.611L463.904 488.376C455.444 491.96 445.725 490.849 438.293 485.449C430.86 480.049 426.8 471.149 427.595 461.996L430.646 426.84C431.582 416.049 428.102 405.34 421.002 397.16L397.87 370.512C391.847 363.574 389.9 353.988 392.739 345.25C395.578 336.512 402.788 329.901 411.739 327.828L446.116 319.866C456.669 317.422 465.779 310.804 471.364 301.523L489.559 271.288C494.297 263.417 502.812 258.603 512 258.603ZM558.643 419.408C568.567 412.198 572.72 399.417 568.929 387.75C565.139 376.084 554.267 368.185 542 368.185C529.733 368.185 518.861 376.084 515.07 387.75C511.279 399.417 515.432 412.198 525.356 419.408C535.28 426.618 548.719 426.618 558.643 419.408ZM469.888 376.5C472.054 383.167 469.681 390.47 464.01 394.59C458.339 398.711 450.66 398.711 444.989 394.59C439.318 390.47 436.945 383.167 439.111 376.5C441.277 369.834 447.49 365.32 454.5 365.32C461.509 365.32 467.722 369.834 469.888 376.5ZM502.244 330.545C505.08 332.605 508.919 332.605 511.755 330.545C514.59 328.485 515.777 324.834 514.694 321.5C513.611 318.167 510.504 315.91 507 315.91C503.495 315.91 500.388 318.167 499.305 321.5C498.222 324.834 499.409 328.485 502.244 330.545Z" fill="#888888" fill-opacity="0.5"/>
<path d="M568.929 387.75L573.685 386.205L568.929 387.75ZM558.643 419.408L561.582 423.453L558.643 419.408ZM515.07 387.75L519.825 389.295L515.07 387.75ZM525.356 419.408L528.295 415.363L525.356 419.408ZM469.888 376.5L474.643 374.955L469.888 376.5ZM439.111 376.5L434.356 374.955V374.955L439.111 376.5ZM511.755 330.545L514.694 334.59L514.694 334.59L511.755 330.545ZM502.244 330.545L499.305 334.59L499.305 334.59L502.244 330.545ZM499.305 321.5L504.061 323.045L504.061 323.045L499.305 321.5ZM489.559 271.288L485.275 268.71L489.559 271.288ZM421.002 397.16L424.778 393.883L421.002 397.16ZM463.904 488.376L465.854 492.98L463.904 488.376ZM527.603 474.611L525.653 479.215L527.603 474.611ZM496.396 474.611L494.446 470.007L496.396 474.611ZM560.095 488.376L562.046 483.772L560.095 488.376ZM602.997 397.16L599.221 393.883L602.997 397.16ZM593.354 426.84L588.372 427.273L593.354 426.84ZM626.129 370.512L622.353 367.235L626.129 370.512ZM612.26 327.828L611.132 332.699L612.26 327.828ZM552.636 301.523L548.351 304.101L552.636 301.523ZM556.92 298.945L538.724 268.71L530.156 273.867L548.351 304.101L556.92 298.945ZM613.389 322.957L579.011 314.995L576.755 324.737L611.132 332.699L613.389 322.957ZM606.773 400.438L629.905 373.79L622.353 367.235L599.221 393.883L606.773 400.438ZM601.386 461.563L598.335 426.408L588.372 427.273L591.423 462.428L601.386 461.563ZM525.653 479.215L558.145 492.98L562.046 483.772L529.554 470.007L525.653 479.215ZM465.854 492.98L498.346 479.215L494.446 470.007L461.953 483.772L465.854 492.98ZM425.664 426.408L422.613 461.564L432.576 462.428L435.627 427.273L425.664 426.408ZM394.094 373.79L417.226 400.438L424.778 393.883L401.646 367.235L394.094 373.79ZM444.988 314.995L410.611 322.957L412.867 332.699L447.245 324.737L444.988 314.995ZM485.275 268.71L467.08 298.945L475.648 304.101L493.843 273.867L485.275 268.71ZM564.174 389.295C567.295 398.902 563.876 409.426 555.704 415.363L561.582 423.453C573.259 414.969 578.145 399.932 573.685 386.205L564.174 389.295ZM542 373.185C552.101 373.185 561.053 379.689 564.174 389.295L573.685 386.205C569.225 372.478 556.433 363.185 542 363.185V373.185ZM519.825 389.295C522.946 379.689 531.899 373.185 542 373.185V363.185C527.566 363.185 514.775 372.478 510.315 386.205L519.825 389.295ZM528.295 415.363C520.123 409.426 516.704 398.902 519.825 389.295L510.315 386.205C505.854 399.932 510.74 414.969 522.417 423.453L528.295 415.363ZM555.704 415.363C547.532 421.3 536.467 421.3 528.295 415.363L522.417 423.453C534.094 431.937 549.905 431.937 561.582 423.453L555.704 415.363ZM466.949 398.635C474.372 393.242 477.479 383.682 474.643 374.955L465.133 378.045C466.629 382.652 464.99 387.698 461.071 390.545L466.949 398.635ZM442.05 398.635C449.474 404.029 459.526 404.029 466.949 398.635L461.071 390.545C457.153 393.392 451.846 393.392 447.928 390.545L442.05 398.635ZM434.356 374.955C431.52 383.682 434.627 393.242 442.05 398.635L447.928 390.545C444.009 387.698 442.37 382.652 443.866 378.045L434.356 374.955ZM454.5 360.32C445.324 360.32 437.191 366.228 434.356 374.955L443.866 378.045C445.363 373.439 449.656 370.32 454.5 370.32V360.32ZM474.643 374.955C471.808 366.228 463.675 360.32 454.5 360.32V370.32C459.343 370.32 463.636 373.439 465.133 378.045L474.643 374.955ZM508.816 326.5C507.733 327.287 506.266 327.287 505.183 326.5L499.305 334.59C503.893 337.924 510.106 337.924 514.694 334.59L508.816 326.5ZM509.938 323.045C510.352 324.318 509.899 325.713 508.816 326.5L514.694 334.59C519.282 331.257 521.202 325.349 519.449 319.955L509.938 323.045ZM507 320.91C508.338 320.91 509.525 321.772 509.938 323.045L519.449 319.955C517.697 314.562 512.671 310.91 507 310.91V320.91ZM504.061 323.045C504.474 321.772 505.661 320.91 507 320.91V310.91C501.329 310.91 496.303 314.562 494.55 319.955L504.061 323.045ZM505.183 326.5C504.1 325.713 503.647 324.318 504.061 323.045L494.55 319.955C492.798 325.349 494.717 331.257 499.305 334.59L505.183 326.5ZM493.843 273.867C497.676 267.498 504.566 263.603 512 263.603V253.603C501.058 253.603 490.917 259.336 485.275 268.71L493.843 273.867ZM447.245 324.737C459.116 321.988 469.364 314.542 475.648 304.101L467.08 298.945C462.193 307.065 454.221 312.857 444.988 314.995L447.245 324.737ZM397.495 346.795C399.792 339.726 405.625 334.377 412.867 332.699L410.611 322.957C399.951 325.426 391.365 333.299 387.984 343.705L397.495 346.795ZM401.646 367.235C396.773 361.621 395.198 353.865 397.495 346.795L387.984 343.705C384.603 354.111 386.922 365.528 394.094 373.79L401.646 367.235ZM435.627 427.273C436.68 415.133 432.766 403.085 424.778 393.883L417.226 400.438C423.439 407.595 426.484 416.966 425.664 426.408L435.627 427.273ZM441.232 481.404C435.218 477.035 431.933 469.834 432.576 462.428L422.613 461.564C421.667 472.464 426.502 483.063 435.354 489.494L441.232 481.404ZM461.953 483.772C455.109 486.672 447.245 485.773 441.232 481.404L435.354 489.494C444.205 495.925 455.78 497.248 465.854 492.98L461.953 483.772ZM529.554 470.007C518.334 465.253 505.666 465.253 494.446 470.007L498.346 479.215C507.073 475.517 516.926 475.517 525.653 479.215L529.554 470.007ZM582.768 481.404C576.754 485.773 568.89 486.672 562.046 483.772L558.145 492.98C568.219 497.248 579.794 495.925 588.645 489.494L582.768 481.404ZM591.423 462.428C592.066 469.834 588.781 477.035 582.768 481.404L588.645 489.494C597.497 483.063 602.332 472.464 601.386 461.563L591.423 462.428ZM599.221 393.883C591.233 403.085 587.319 415.133 588.372 427.273L598.335 426.408C597.515 416.966 600.56 407.595 606.773 400.438L599.221 393.883ZM626.505 346.795C628.802 353.865 627.226 361.621 622.353 367.235L629.905 373.79C637.078 365.528 639.396 354.111 636.015 343.705L626.505 346.795ZM611.132 332.699C618.374 334.377 624.207 339.726 626.505 346.795L636.015 343.705C632.634 333.299 624.048 325.426 613.389 322.957L611.132 332.699ZM538.724 268.71C533.082 259.336 522.941 253.603 512 253.603V263.603C519.433 263.603 526.323 267.498 530.156 273.867L538.724 268.71ZM548.351 304.101C554.635 314.542 564.883 321.988 576.755 324.737L579.011 314.995C569.778 312.857 561.807 307.065 556.92 298.945L548.351 304.101Z" fill="currentColor"/>
<path d="M525.357 419.408C535.281 426.618 548.719 426.618 558.643 419.408C568.568 412.197 572.72 399.417 568.93 387.75C565.139 376.083 554.267 368.184 542 368.184C529.733 368.184 518.861 376.083 515.07 387.75C511.28 399.417 515.432 412.197 525.357 419.408Z" fill="#888888" fill-opacity="0.5" stroke="currentColor" stroke-width="10" stroke-linecap="round" stroke-linejoin="round"/>
<path d="M444.989 394.59C450.66 398.71 458.34 398.71 464.011 394.59C469.682 390.47 472.055 383.167 469.888 376.5C467.722 369.833 461.51 365.32 454.5 365.32C447.49 365.32 441.278 369.833 439.112 376.5C436.945 383.167 439.318 390.47 444.989 394.59Z" fill="#888888" fill-opacity="0.5" stroke="currentColor" stroke-width="10" stroke-linecap="round" stroke-linejoin="round"/>
<path d="M502.245 330.545C505.08 332.605 508.92 332.605 511.755 330.545C514.591 328.485 515.777 324.833 514.694 321.5C513.611 318.167 510.505 315.91 507 315.91C503.495 315.91 500.389 318.167 499.306 321.5C498.223 324.833 499.409 328.485 502.245 330.545Z" fill="#888888" fill-opacity="0.5" stroke="currentColor" stroke-width="10" stroke-linecap="round" stroke-linejoin="round"/>
<g opacity="0.25">
<path d="M512 238.839L559.781 318.235L650.057 339.143L589.312 409.12L597.324 501.438L512 465.29L426.676 501.438L434.688 409.12L373.944 339.143L464.219 318.235L512 238.839Z" stroke="currentColor" stroke-width="2.41935" stroke-linecap="round" stroke-linejoin="round"/>
<path d="M512 534L369.342 430.353L423.832 262.647H600.168L654.658 430.353L512 534Z" stroke="currentColor" stroke-width="2.41935" stroke-linecap="round" stroke-linejoin="round"/>
</g>
<path d="M182.772 673.5L183.723 673.191V673.191L182.772 673.5ZM178.657 686.163L179.245 686.972L178.657 686.163ZM165.343 686.163L164.755 686.972L165.343 686.163ZM140.804 676.236L141.392 677.045H141.392L140.804 676.236ZM133.196 676.236L132.608 677.045H132.608L133.196 676.236ZM130.845 669L129.894 668.691L130.845 669ZM156.098 650.618L155.51 651.427H155.51L156.098 650.618ZM154.922 647L153.971 646.691V646.691L154.922 647ZM159.902 650.618L160.49 651.427H160.49L159.902 650.618ZM133.647 646.346L133.421 645.372L133.647 646.346ZM143.745 639.009L142.889 638.493L143.745 639.009ZM114.348 666.605L113.593 667.26L114.348 666.605ZM140.761 713.75L140.371 712.83L140.761 713.75ZM166.241 708.244L165.851 709.165L166.241 708.244ZM153.758 708.244L154.149 709.165L153.758 708.244ZM193.762 703.198L194.758 703.112L193.762 703.198ZM192.541 689.136L191.545 689.222L192.541 689.136ZM177.111 638.493L169.833 626.4L168.119 627.431L175.397 639.525L177.111 638.493ZM200.33 648.557L186.579 645.372L186.127 647.321L199.878 650.505L200.33 648.557ZM197.154 677.92L206.407 667.26L204.896 665.949L195.644 676.608L197.154 677.92ZM194.758 703.112L193.538 689.049L191.545 689.222L192.766 703.284L194.758 703.112ZM165.851 709.165L178.848 714.671L179.628 712.829L166.631 707.323L165.851 709.165ZM141.151 714.671L154.149 709.165L153.368 707.323L140.371 712.83L141.151 714.671ZM126.462 689.049L125.242 703.112L127.234 703.285L128.455 689.222L126.462 689.049ZM113.593 667.26L122.846 677.919L124.356 676.608L115.103 665.949L113.593 667.26ZM133.421 645.372L119.67 648.557L120.121 650.505L133.872 647.321L133.421 645.372ZM150.167 626.4L142.889 638.493L144.602 639.525L151.88 627.431L150.167 626.4ZM181.821 673.809C183.203 678.064 181.689 682.724 178.07 685.354L179.245 686.972C183.565 683.833 185.373 678.27 183.723 673.191L181.821 673.809ZM172 666.674C176.474 666.674 180.438 669.554 181.821 673.809L183.723 673.191C182.073 668.112 177.34 664.674 172 664.674V666.674ZM162.179 673.809C163.562 669.554 167.526 666.674 172 666.674V664.674C166.66 664.674 161.927 668.112 160.277 673.191L162.179 673.809ZM165.93 685.354C162.311 682.724 160.797 678.064 162.179 673.809L160.277 673.191C158.627 678.27 160.435 683.833 164.755 686.972L165.93 685.354ZM178.07 685.354C174.45 687.984 169.55 687.984 165.93 685.354L164.755 686.972C169.075 690.111 174.925 690.111 179.245 686.972L178.07 685.354ZM141.392 677.045C144.011 675.142 145.107 671.77 144.106 668.691L142.204 669.309C142.937 671.564 142.134 674.034 140.216 675.427L141.392 677.045ZM132.608 677.045C135.227 678.948 138.773 678.948 141.392 677.045L140.216 675.427C138.298 676.82 135.701 676.82 133.784 675.427L132.608 677.045ZM129.894 668.691C128.893 671.77 129.989 675.142 132.608 677.045L133.784 675.427C131.866 674.034 131.063 671.564 131.796 669.309L129.894 668.691ZM137 663.528C133.763 663.528 130.894 665.612 129.894 668.691L131.796 669.309C132.528 667.054 134.629 665.528 137 665.528V663.528ZM144.106 668.691C143.106 665.612 140.237 663.528 137 663.528V665.528C139.371 665.528 141.472 667.054 142.204 669.309L144.106 668.691ZM156.686 649.809C155.902 649.24 155.574 648.23 155.873 647.309L153.971 646.691C153.404 648.436 154.025 650.348 155.51 651.427L156.686 649.809ZM159.314 649.809C158.531 650.378 157.469 650.378 156.686 649.809L155.51 651.427C156.995 652.506 159.005 652.506 160.49 651.427L159.314 649.809ZM160.127 647.309C160.426 648.23 160.098 649.24 159.314 649.809L160.49 651.427C161.975 650.348 162.596 648.436 162.029 646.691L160.127 647.309ZM158 645.764C158.969 645.764 159.827 646.388 160.127 647.309L162.029 646.691C161.462 644.946 159.835 643.764 158 643.764V645.764ZM155.873 647.309C156.173 646.388 157.031 645.764 158 645.764V643.764C156.165 643.764 154.538 644.946 153.971 646.691L155.873 647.309ZM151.88 627.431C153.595 624.583 156.676 622.841 160 622.841V620.841C155.974 620.841 152.243 622.95 150.167 626.4L151.88 627.431ZM133.872 647.321C138.357 646.282 142.229 643.469 144.602 639.525L142.889 638.493C140.794 641.974 137.378 644.456 133.421 645.372L133.872 647.321ZM113.247 656.809C114.274 653.647 116.883 651.255 120.121 650.505L119.67 648.557C115.748 649.465 112.589 652.362 111.345 656.191L113.247 656.809ZM115.103 665.949C112.924 663.439 112.219 659.97 113.247 656.809L111.345 656.191C110.101 660.019 110.954 664.22 113.593 667.26L115.103 665.949ZM128.455 689.222C128.853 684.636 127.374 680.085 124.356 676.608L122.846 677.919C125.508 680.987 126.813 685.003 126.462 689.049L128.455 689.222ZM131.105 711.77C128.416 709.817 126.947 706.596 127.234 703.285L125.242 703.112C124.894 707.122 126.672 711.022 129.929 713.388L131.105 711.77ZM140.371 712.83C137.311 714.126 133.794 713.724 131.105 711.77L129.929 713.388C133.186 715.755 137.445 716.241 141.151 714.671L140.371 712.83ZM166.631 707.323C162.393 705.528 157.607 705.528 153.368 707.323L154.149 709.165C157.889 707.58 162.111 707.58 165.851 709.165L166.631 707.323ZM188.895 711.77C186.205 713.724 182.689 714.126 179.628 712.829L178.848 714.671C182.555 716.241 186.813 715.755 190.07 713.388L188.895 711.77ZM192.766 703.284C193.053 706.596 191.584 709.816 188.895 711.77L190.07 713.388C193.327 711.022 195.106 707.122 194.758 703.112L192.766 703.284ZM195.644 676.608C192.626 680.085 191.147 684.636 191.545 689.222L193.538 689.049C193.186 685.003 194.491 680.987 197.154 677.92L195.644 676.608ZM206.753 656.809C207.78 659.97 207.076 663.439 204.896 665.949L206.407 667.26C209.046 664.22 209.899 660.02 208.655 656.191L206.753 656.809ZM199.878 650.505C203.117 651.255 205.725 653.647 206.753 656.809L208.655 656.191C207.411 652.362 204.252 649.465 200.33 648.557L199.878 650.505ZM169.833 626.4C167.757 622.95 164.026 620.841 160 620.841V622.841C163.324 622.841 166.405 624.583 168.119 627.431L169.833 626.4ZM175.397 639.525C177.771 643.469 181.643 646.282 186.127 647.321L186.579 645.372C182.622 644.456 179.205 641.974 177.111 638.493L175.397 639.525Z" fill="currentColor"/>
<path d="M334.727 648.236C334.675 648.393 334.577 648.525 334.449 648.618C334.322 648.711 334.166 648.764 334 648.764C333.835 648.764 333.678 648.711 333.551 648.618C333.424 648.525 333.325 648.393 333.273 648.236C333.222 648.079 333.225 647.914 333.273 647.764C333.322 647.614 333.417 647.479 333.551 647.382M334.727 648.236L334 648L333.551 647.382M334.727 648.236C334.778 648.079 334.775 647.914 334.727 647.764C334.678 647.614 334.583 647.479 334.449 647.382C334.315 647.285 334.158 647.236 334 647.236C333.842 647.236 333.685 647.285 333.551 647.382M330.451 628.978C331.622 627.031 333.728 625.841 336 625.841C338.272 625.841 340.377 627.031 341.549 628.978L348.827 641.072C351.62 645.712 356.175 649.021 361.451 650.243L375.201 653.428C377.415 653.94 379.198 655.575 379.9 657.736C380.602 659.897 380.12 662.267 378.631 663.983L369.378 674.642C365.828 678.732 364.088 684.086 364.556 689.482L365.777 703.544C365.973 705.807 364.969 708.008 363.131 709.343C361.294 710.679 358.89 710.953 356.798 710.067L343.802 704.561C338.815 702.448 333.185 702.448 328.198 704.561L315.201 710.067C313.109 710.953 310.706 710.679 308.868 709.343C307.03 708.008 306.027 705.807 306.223 703.544L307.443 689.482C307.912 684.086 306.172 678.732 302.622 674.642L293.369 663.982C291.879 662.267 291.398 659.896 292.1 657.736C292.802 655.575 294.585 653.941 296.798 653.428L310.549 650.243C315.825 649.021 320.38 645.712 323.173 641.072L330.451 628.978ZM336 617.841C330.922 617.841 326.215 620.502 323.597 624.853L316.318 636.947C314.643 639.731 311.91 641.716 308.744 642.449L294.993 645.634C290.046 646.78 286.061 650.434 284.491 655.264C282.922 660.093 283.998 665.392 287.327 669.227L296.58 679.886C298.71 682.34 299.754 685.553 299.473 688.79L298.253 702.852C297.814 707.912 300.058 712.831 304.166 715.816C308.274 718.8 313.646 719.414 318.322 717.433L331.319 711.927C334.311 710.66 337.689 710.66 340.681 711.927L353.678 717.433C358.354 719.414 363.725 718.8 367.834 715.815C371.942 712.831 374.186 707.911 373.747 702.852L372.527 688.79C372.246 685.553 373.289 682.34 375.42 679.886L384.672 669.227C388.001 665.392 389.077 660.093 387.508 655.264C385.939 650.434 381.954 646.78 377.006 645.634L363.256 642.449C360.09 641.716 357.357 639.731 355.682 636.947L348.403 624.853C345.785 620.502 341.078 617.841 336 617.841ZM334 640.764C330.865 640.764 328.087 642.782 327.118 645.764C326.149 648.745 327.211 652.011 329.747 653.854C332.283 655.697 335.717 655.697 338.253 653.854C340.789 652.011 341.851 648.745 340.882 645.764C339.913 642.782 337.135 640.764 334 640.764ZM313 660.528C308.463 660.528 304.442 663.449 303.04 667.764C301.638 672.079 303.174 676.805 306.845 679.472C310.515 682.139 315.485 682.139 319.155 679.472C322.826 676.805 324.362 672.079 322.96 667.764C321.558 663.449 317.537 660.528 313 660.528ZM310.649 670.236C310.98 669.217 311.929 668.528 313 668.528C314.071 668.528 315.02 669.217 315.351 670.236C315.682 671.255 315.32 672.37 314.453 673C313.587 673.629 312.413 673.629 311.547 673C310.68 672.37 310.318 671.255 310.649 670.236ZM341.032 674.736C342.013 671.717 344.826 669.674 348 669.674C351.174 669.674 353.987 671.717 354.968 674.736C355.948 677.755 354.874 681.061 352.306 682.927C349.739 684.793 346.262 684.793 343.694 682.927C341.126 681.061 340.052 677.755 341.032 674.736ZM348 661.674C341.36 661.674 335.476 665.949 333.424 672.264C331.372 678.579 333.62 685.496 338.991 689.399C344.363 693.302 351.637 693.302 357.009 689.399C362.38 685.496 364.628 678.579 362.576 672.264C360.524 665.949 354.64 661.674 348 661.674Z" stroke="currentColor" stroke-linecap="round" stroke-linejoin="round"/>
<path fill-rule="evenodd" clip-rule="evenodd" d="M512 621.841C515.675 621.841 519.081 623.766 520.976 626.915L528.254 639.009C530.488 642.721 534.132 645.369 538.353 646.346L552.104 649.531C555.684 650.36 558.568 653.005 559.704 656.5C560.839 659.995 560.061 663.83 557.652 666.605L548.399 677.264C545.559 680.536 544.167 684.82 544.541 689.136L545.762 703.198C546.08 706.859 544.456 710.419 541.483 712.579C538.509 714.739 534.622 715.184 531.238 713.75L518.241 708.244C514.252 706.554 509.748 706.554 505.758 708.244L492.761 713.75C489.378 715.184 485.49 714.74 482.517 712.579C479.544 710.419 477.92 706.859 478.238 703.198L479.458 689.136C479.833 684.82 478.441 680.536 475.601 677.264L466.348 666.605C463.939 663.829 463.16 659.995 464.296 656.5C465.431 653.005 468.315 650.36 471.895 649.531L485.647 646.346C489.867 645.369 493.511 642.721 495.745 639.009L503.024 626.915C504.919 623.766 508.325 621.841 512 621.841ZM530.657 686.163C534.627 683.279 536.288 678.167 534.772 673.5C533.256 668.833 528.907 665.674 524 665.674C519.093 665.674 514.744 668.833 513.228 673.5C511.712 678.167 513.373 683.279 517.343 686.163C521.312 689.047 526.688 689.047 530.657 686.163ZM495.155 669C496.022 671.667 495.073 674.588 492.804 676.236C490.536 677.884 487.464 677.884 485.196 676.236C482.927 674.588 481.978 671.667 482.845 669C483.711 666.333 486.196 664.528 489 664.528C491.804 664.528 494.289 666.333 495.155 669ZM506.922 647C506.489 648.333 506.964 649.794 508.098 650.618C509.232 651.442 510.768 651.442 511.902 650.618C513.036 649.794 513.511 648.333 513.078 647C512.644 645.667 511.402 644.764 510 644.764C508.598 644.764 507.356 645.667 506.922 647Z" fill="currentColor"/>
<path d="M534.772 673.5L536.674 672.882V672.882L534.772 673.5ZM530.657 686.163L531.833 687.781H531.833L530.657 686.163ZM517.343 686.163L516.167 687.781L517.343 686.163ZM492.804 676.236L493.98 677.854H493.98L492.804 676.236ZM485.196 676.236L484.02 677.854H484.02L485.196 676.236ZM482.845 669L480.942 668.382L482.845 669ZM508.098 650.618L506.922 652.236L506.922 652.236L508.098 650.618ZM506.922 647L505.02 646.382L505.02 646.382L506.922 647ZM511.902 650.618L513.078 652.236L513.078 652.236L511.902 650.618ZM485.647 646.346L485.195 644.398L485.647 646.346ZM495.745 639.009L494.032 637.978L495.745 639.009ZM466.348 666.605L464.837 667.916L466.348 666.605ZM492.761 713.75L491.981 711.909L492.761 713.75ZM518.241 708.244L517.461 710.086L518.241 708.244ZM505.758 708.244L506.539 710.086L505.758 708.244ZM545.762 703.198L547.754 703.025L545.762 703.198ZM544.541 689.136L542.549 689.309L544.541 689.136ZM529.968 637.978L522.69 625.884L519.262 627.946L526.541 640.04L529.968 637.978ZM552.555 647.583L538.804 644.398L537.902 648.295L551.653 651.479L552.555 647.583ZM549.909 678.575L559.162 667.916L556.141 665.294L546.889 675.953L549.909 678.575ZM547.754 703.025L546.534 688.963L542.549 689.309L543.769 703.371L547.754 703.025ZM517.461 710.086L530.458 715.592L532.018 711.909L519.021 706.403L517.461 710.086ZM493.542 715.592L506.539 710.086L504.978 706.403L491.981 711.909L493.542 715.592ZM477.466 688.963L476.245 703.025L480.23 703.371L481.451 689.309L477.466 688.963ZM464.837 667.916L474.091 678.575L477.111 675.953L467.858 665.293L464.837 667.916ZM485.195 644.398L471.444 647.583L472.347 651.48L486.098 648.295L485.195 644.398ZM501.31 625.884L494.032 637.978L497.459 640.04L504.737 627.946L501.31 625.884ZM532.87 674.118C534.118 677.961 532.751 682.17 529.482 684.545L531.833 687.781C536.504 684.388 538.458 678.373 536.674 672.882L532.87 674.118ZM524 667.674C528.04 667.674 531.621 670.275 532.87 674.118L536.674 672.882C534.89 667.391 529.773 663.674 524 663.674V667.674ZM515.13 674.118C516.379 670.275 519.96 667.674 524 667.674V663.674C518.227 663.674 513.11 667.391 511.326 672.882L515.13 674.118ZM518.518 684.545C515.249 682.17 513.882 677.961 515.13 674.118L511.326 672.882C509.542 678.373 511.496 684.388 516.167 687.781L518.518 684.545ZM529.482 684.545C526.213 686.92 521.787 686.92 518.518 684.545L516.167 687.781C520.838 691.175 527.162 691.175 531.833 687.781L529.482 684.545ZM493.98 677.854C496.949 675.697 498.192 671.873 497.057 668.382L493.253 669.618C493.852 671.461 493.196 673.479 491.629 674.618L493.98 677.854ZM484.02 677.854C486.99 680.011 491.01 680.011 493.98 677.854L491.629 674.618C490.061 675.757 487.939 675.757 486.371 674.618L484.02 677.854ZM480.942 668.382C479.808 671.873 481.051 675.697 484.02 677.854L486.371 674.618C484.804 673.479 484.148 671.461 484.747 669.618L480.942 668.382ZM489 662.528C485.33 662.528 482.077 664.891 480.942 668.382L484.747 669.618C485.345 667.775 487.063 666.528 489 666.528V662.528ZM497.057 668.382C495.923 664.891 492.67 662.528 489 662.528V666.528C490.937 666.528 492.655 667.775 493.253 669.618L497.057 668.382ZM509.273 649C508.84 648.685 508.659 648.127 508.824 647.618L505.02 646.382C504.319 648.539 505.087 650.903 506.922 652.236L509.273 649ZM510.727 649C510.293 649.315 509.707 649.315 509.273 649L506.922 652.236C508.757 653.569 511.242 653.569 513.078 652.236L510.727 649ZM511.176 647.618C511.341 648.127 511.16 648.685 510.727 649L513.078 652.236C514.913 650.903 515.681 648.539 514.98 646.382L511.176 647.618ZM510 646.764C510.535 646.764 511.01 647.109 511.176 647.618L514.98 646.382C514.279 644.224 512.268 642.764 510 642.764V646.764ZM508.824 647.618C508.99 647.109 509.464 646.764 510 646.764V642.764C507.732 642.764 505.721 644.224 505.02 646.382L508.824 647.618ZM504.737 627.946C506.27 625.399 509.026 623.841 512 623.841V619.841C507.623 619.841 503.567 622.134 501.31 625.884L504.737 627.946ZM486.098 648.295C490.846 647.195 494.946 644.217 497.459 640.04L494.032 637.978C492.077 641.226 488.889 643.543 485.195 644.398L486.098 648.295ZM466.198 657.118C467.117 654.29 469.45 652.15 472.347 651.48L471.444 647.583C467.18 648.57 463.746 651.719 462.394 655.882L466.198 657.118ZM467.858 665.293C465.909 663.048 465.279 659.946 466.198 657.118L462.394 655.882C461.041 660.044 461.969 664.611 464.837 667.916L467.858 665.293ZM481.451 689.309C481.872 684.453 480.306 679.634 477.111 675.953L474.091 678.575C476.576 681.438 477.794 685.186 477.466 688.963L481.451 689.309ZM483.693 710.961C481.287 709.214 479.973 706.333 480.23 703.371L476.245 703.025C475.867 707.385 477.801 711.625 481.341 714.198L483.693 710.961ZM491.981 711.909C489.243 713.069 486.098 712.709 483.693 710.961L481.341 714.198C484.882 716.77 489.512 717.299 493.542 715.592L491.981 711.909ZM519.021 706.403C514.533 704.501 509.466 704.501 504.978 706.403L506.539 710.086C510.029 708.607 513.97 708.607 517.461 710.086L519.021 706.403ZM540.307 710.961C537.901 712.709 534.756 713.068 532.018 711.909L530.458 715.592C534.488 717.299 539.117 716.77 542.658 714.197L540.307 710.961ZM543.769 703.371C544.026 706.333 542.713 709.214 540.307 710.961L542.658 714.197C546.199 711.625 548.133 707.385 547.754 703.025L543.769 703.371ZM546.889 675.953C543.693 679.634 542.127 684.453 542.549 689.309L546.534 688.963C546.206 685.186 547.424 681.438 549.909 678.575L546.889 675.953ZM557.802 657.118C558.721 659.946 558.09 663.048 556.141 665.294L559.162 667.916C562.031 664.611 562.958 660.044 561.606 655.882L557.802 657.118ZM551.653 651.479C554.549 652.15 556.883 654.29 557.802 657.118L561.606 655.882C560.253 651.719 556.819 648.57 552.555 647.583L551.653 651.479ZM522.69 625.884C520.433 622.134 516.376 619.841 512 619.841V623.841C514.973 623.841 517.729 625.399 519.262 627.946L522.69 625.884ZM526.541 640.04C529.054 644.217 533.153 647.195 537.902 648.295L538.804 644.398C535.111 643.543 531.923 641.226 529.968 637.978L526.541 640.04Z" fill="currentColor"/>
<g opacity="0.25">
<path fill-rule="evenodd" clip-rule="evenodd" d="M688 621.841C691.675 621.841 695.082 623.766 696.977 626.915L704.255 639.009C706.489 642.721 710.133 645.369 714.354 646.346L728.104 649.531C731.685 650.36 734.569 653.005 735.704 656.5C736.84 659.995 736.061 663.83 733.652 666.605L724.399 677.264C721.559 680.536 720.167 684.82 720.542 689.136L721.762 703.198C722.08 706.859 720.456 710.419 717.483 712.579C714.51 714.739 710.622 715.184 707.239 713.75L694.242 708.244C690.252 706.554 685.748 706.554 681.759 708.244L668.762 713.75C665.378 715.184 661.491 714.74 658.518 712.579C655.544 710.419 653.921 706.859 654.238 703.198L655.459 689.136C655.833 684.82 654.441 680.536 651.601 677.264L642.348 666.605C639.939 663.829 639.16 659.995 640.296 656.5C641.432 653.005 644.316 650.36 647.896 649.531L661.647 646.346C665.868 645.369 669.512 642.721 671.746 639.009L679.024 626.915C680.919 623.766 684.325 621.841 688 621.841ZM706.658 686.163C710.628 683.279 712.289 678.167 710.772 673.5C709.256 668.833 704.907 665.674 700 665.674C695.094 665.674 690.745 668.833 689.229 673.5C687.712 678.167 689.373 683.279 693.343 686.163C697.313 689.047 702.688 689.047 706.658 686.163ZM671.156 669C672.022 671.667 671.073 674.588 668.805 676.236C666.536 677.884 663.465 677.884 661.196 676.236C658.928 674.588 657.979 671.667 658.845 669C659.712 666.333 662.197 664.528 665 664.528C667.804 664.528 670.289 666.333 671.156 669ZM682.923 647C682.49 648.333 682.964 649.794 684.098 650.618C685.233 651.442 686.768 651.442 687.903 650.618C689.037 649.794 689.511 648.333 689.078 647C688.645 645.667 687.402 644.764 686 644.764C684.599 644.764 683.356 645.667 682.923 647Z" fill="currentColor"/>
<path d="M710.772 673.5L712.674 672.882V672.882L710.772 673.5ZM706.658 686.163L707.833 687.781H707.833L706.658 686.163ZM693.343 686.163L692.167 687.781L693.343 686.163ZM668.805 676.236L669.98 677.854H669.98L668.805 676.236ZM661.196 676.236L660.021 677.854H660.021L661.196 676.236ZM658.845 669L656.943 668.382L658.845 669ZM684.098 650.618L682.923 652.236L682.923 652.236L684.098 650.618ZM682.923 647L681.021 646.382L681.021 646.382L682.923 647ZM687.903 650.618L689.078 652.236L689.078 652.236L687.903 650.618ZM661.647 646.346L661.196 644.398L661.647 646.346ZM671.746 639.009L670.032 637.978L671.746 639.009ZM642.348 666.605L640.838 667.916L642.348 666.605ZM668.762 713.75L667.982 711.909L668.762 713.75ZM694.242 708.244L693.462 710.086L694.242 708.244ZM681.759 708.244L682.539 710.086L681.759 708.244ZM721.762 703.198L723.755 703.025L721.762 703.198ZM720.542 689.136L718.549 689.309L720.542 689.136ZM705.968 637.978L698.69 625.884L695.263 627.946L702.541 640.04L705.968 637.978ZM728.556 647.583L714.805 644.398L713.902 648.295L727.653 651.479L728.556 647.583ZM725.91 678.575L735.162 667.916L732.142 665.294L722.889 675.953L725.91 678.575ZM723.755 703.025L722.534 688.963L718.549 689.309L719.77 703.371L723.755 703.025ZM693.462 710.086L706.458 715.592L708.019 711.909L695.022 706.403L693.462 710.086ZM669.542 715.592L682.539 710.086L680.979 706.403L667.982 711.909L669.542 715.592ZM653.466 688.963L652.246 703.025L656.231 703.371L657.451 689.309L653.466 688.963ZM640.838 667.916L650.091 678.575L653.112 675.953L643.859 665.293L640.838 667.916ZM661.196 644.398L647.445 647.583L648.347 651.48L662.098 648.295L661.196 644.398ZM677.311 625.884L670.032 637.978L673.46 640.04L680.738 627.946L677.311 625.884ZM708.87 674.118C710.119 677.961 708.751 682.17 705.482 684.545L707.833 687.781C712.504 684.388 714.458 678.373 712.674 672.882L708.87 674.118ZM700 667.674C704.041 667.674 707.622 670.275 708.87 674.118L712.674 672.882C710.89 667.391 705.774 663.674 700 663.674V667.674ZM691.131 674.118C692.379 670.275 695.96 667.674 700 667.674V663.674C694.227 663.674 689.11 667.391 687.326 672.882L691.131 674.118ZM694.519 684.545C691.25 682.17 689.882 677.961 691.131 674.118L687.326 672.882C685.542 678.373 687.497 684.388 692.167 687.781L694.519 684.545ZM705.482 684.545C702.214 686.92 697.787 686.92 694.519 684.545L692.167 687.781C696.838 691.175 703.163 691.175 707.833 687.781L705.482 684.545ZM669.98 677.854C672.95 675.697 674.192 671.873 673.058 668.382L669.254 669.618C669.852 671.461 669.197 673.479 667.629 674.618L669.98 677.854ZM660.021 677.854C662.99 680.011 667.011 680.011 669.98 677.854L667.629 674.618C666.062 675.757 663.939 675.757 662.372 674.618L660.021 677.854ZM656.943 668.382C655.809 671.873 657.051 675.697 660.021 677.854L662.372 674.618C660.804 673.479 660.149 671.461 660.747 669.618L656.943 668.382ZM665 662.528C661.33 662.528 658.077 664.891 656.943 668.382L660.747 669.618C661.346 667.775 663.063 666.528 665 666.528V662.528ZM673.058 668.382C671.924 664.891 668.671 662.528 665 662.528V666.528C666.938 666.528 668.655 667.775 669.254 669.618L673.058 668.382ZM685.274 649C684.841 648.685 684.659 648.127 684.825 647.618L681.021 646.382C680.32 648.539 681.088 650.903 682.923 652.236L685.274 649ZM686.727 649C686.294 649.315 685.707 649.315 685.274 649L682.923 652.236C684.758 653.569 687.243 653.569 689.078 652.236L686.727 649ZM687.176 647.618C687.342 648.127 687.16 648.685 686.727 649L689.078 652.236C690.913 650.903 691.681 648.539 690.98 646.382L687.176 647.618ZM686 646.764C686.536 646.764 687.011 647.109 687.176 647.618L690.98 646.382C690.279 644.224 688.269 642.764 686 642.764V646.764ZM684.825 647.618C684.99 647.109 685.465 646.764 686 646.764V642.764C683.732 642.764 681.722 644.224 681.021 646.382L684.825 647.618ZM680.738 627.946C682.271 625.399 685.027 623.841 688 623.841V619.841C683.624 619.841 679.567 622.134 677.311 625.884L680.738 627.946ZM662.098 648.295C666.847 647.195 670.946 644.217 673.46 640.04L670.032 637.978C668.078 641.226 664.889 643.543 661.196 644.398L662.098 648.295ZM642.198 657.118C643.117 654.29 645.45 652.15 648.347 651.48L647.445 647.583C643.181 648.57 639.746 651.719 638.394 655.882L642.198 657.118ZM643.859 665.293C641.909 663.048 641.279 659.946 642.198 657.118L638.394 655.882C637.042 660.044 637.969 664.611 640.838 667.916L643.859 665.293ZM657.451 689.309C657.873 684.453 656.307 679.634 653.112 675.953L650.091 678.575C652.576 681.438 653.794 685.186 653.466 688.963L657.451 689.309ZM659.693 710.961C657.288 709.214 655.974 706.333 656.231 703.371L652.246 703.025C651.867 707.385 653.801 711.625 657.342 714.198L659.693 710.961ZM667.982 711.909C665.244 713.069 662.099 712.709 659.693 710.961L657.342 714.198C660.883 716.77 665.512 717.299 669.542 715.592L667.982 711.909ZM695.022 706.403C690.534 704.501 685.467 704.501 680.979 706.403L682.539 710.086C686.03 708.607 689.971 708.607 693.462 710.086L695.022 706.403ZM716.307 710.961C713.902 712.709 710.757 713.068 708.019 711.909L706.458 715.592C710.488 717.299 715.118 716.77 718.659 714.197L716.307 710.961ZM719.77 703.371C720.027 706.333 718.713 709.214 716.307 710.961L718.659 714.197C722.199 711.625 724.133 707.385 723.755 703.025L719.77 703.371ZM722.889 675.953C719.694 679.634 718.128 684.453 718.549 689.309L722.534 688.963C722.207 685.186 723.425 681.438 725.91 678.575L722.889 675.953ZM733.802 657.118C734.721 659.946 734.091 663.048 732.142 665.294L735.162 667.916C738.031 664.611 738.959 660.044 737.606 655.882L733.802 657.118ZM727.653 651.479C730.55 652.15 732.883 654.29 733.802 657.118L737.606 655.882C736.254 651.719 732.819 648.57 728.556 647.583L727.653 651.479ZM698.69 625.884C696.433 622.134 692.377 619.841 688 619.841V623.841C690.974 623.841 693.73 625.399 695.263 627.946L698.69 625.884ZM702.541 640.04C705.054 644.217 709.154 647.195 713.902 648.295L714.805 644.398C711.112 643.543 707.923 641.226 705.968 637.978L702.541 640.04Z" fill="currentColor"/>
</g>
<g opacity="0.5">
<path d="M693.343 686.163C697.312 689.047 702.688 689.047 706.657 686.163C710.627 683.279 712.288 678.167 710.772 673.5C709.256 668.833 704.907 665.674 700 665.674C695.093 665.674 690.744 668.833 689.228 673.5C687.712 678.167 689.373 683.279 693.343 686.163Z" fill="currentColor"/>
</g>
<g opacity="0.5">
<path d="M661.196 676.236C663.464 677.884 666.536 677.884 668.804 676.236C671.073 674.588 672.022 671.667 671.155 669C670.289 666.333 667.804 664.528 665 664.528C662.196 664.528 659.711 666.333 658.845 669C657.978 671.667 658.927 674.588 661.196 676.236Z" fill="currentColor"/>
</g>
<g opacity="0.5">
<path d="M684.098 650.618C685.232 651.442 686.768 651.442 687.902 650.618C689.036 649.794 689.511 648.333 689.078 647C688.644 645.667 687.402 644.764 686 644.764C684.598 644.764 683.356 645.667 682.922 647C682.489 648.333 682.964 649.794 684.098 650.618Z" fill="currentColor"/>
</g>
<path fill-rule="evenodd" clip-rule="evenodd" d="M864 621.841C867.675 621.841 871.082 623.766 872.977 626.915L880.255 639.009C882.489 642.721 886.133 645.369 890.354 646.346L904.104 649.531C907.685 650.36 910.569 653.005 911.704 656.5C912.84 659.995 912.061 663.83 909.652 666.605L900.399 677.264C897.559 680.536 896.167 684.82 896.542 689.136L897.762 703.198C898.08 706.859 896.456 710.419 893.483 712.579C890.51 714.739 886.622 715.184 883.239 713.75L870.242 708.244C866.252 706.554 861.748 706.554 857.759 708.244L844.762 713.75C841.378 715.184 837.491 714.74 834.518 712.579C831.544 710.419 829.921 706.859 830.238 703.198L831.459 689.136C831.833 684.82 830.441 680.536 827.601 677.264L818.348 666.605C815.939 663.829 815.16 659.995 816.296 656.5C817.432 653.005 820.316 650.36 823.896 649.531L837.647 646.346C841.868 645.369 845.512 642.721 847.746 639.009L855.024 626.915C856.919 623.766 860.325 621.841 864 621.841ZM882.658 686.163C886.628 683.279 888.289 678.167 886.772 673.5C885.256 668.833 880.907 665.674 876 665.674C871.094 665.674 866.745 668.833 865.229 673.5C863.712 678.167 865.373 683.279 869.343 686.163C873.313 689.047 878.688 689.047 882.658 686.163ZM847.156 669C848.022 671.667 847.073 674.588 844.805 676.236C842.536 677.884 839.465 677.884 837.196 676.236C834.928 674.588 833.979 671.667 834.845 669C835.712 666.333 838.197 664.528 841 664.528C843.804 664.528 846.289 666.333 847.156 669ZM858.923 647C858.49 648.333 858.964 649.794 860.098 650.618C861.233 651.442 862.768 651.442 863.903 650.618C865.037 649.794 865.511 648.333 865.078 647C864.645 645.667 863.402 644.764 862 644.764C860.599 644.764 859.356 645.667 858.923 647Z" fill="#FFA500"/>
<path d="M886.772 673.5L888.674 672.882V672.882L886.772 673.5ZM882.658 686.163L883.833 687.781H883.833L882.658 686.163ZM869.343 686.163L868.167 687.781L869.343 686.163ZM844.805 676.236L845.98 677.854H845.98L844.805 676.236ZM837.196 676.236L836.021 677.854H836.021L837.196 676.236ZM834.845 669L832.943 668.382L834.845 669ZM860.098 650.618L858.923 652.236L858.923 652.236L860.098 650.618ZM858.923 647L857.021 646.382L857.021 646.382L858.923 647ZM863.903 650.618L865.078 652.236L865.078 652.236L863.903 650.618ZM837.647 646.346L837.196 644.398L837.647 646.346ZM847.746 639.009L846.032 637.978L847.746 639.009ZM818.348 666.605L816.838 667.916L818.348 666.605ZM844.762 713.75L843.982 711.909L844.762 713.75ZM870.242 708.244L869.462 710.086L870.242 708.244ZM857.759 708.244L858.539 710.086L857.759 708.244ZM897.762 703.198L899.755 703.025L897.762 703.198ZM896.542 689.136L894.549 689.309L896.542 689.136ZM881.968 637.978L874.69 625.884L871.263 627.946L878.541 640.04L881.968 637.978ZM904.556 647.583L890.805 644.398L889.902 648.295L903.653 651.479L904.556 647.583ZM901.91 678.575L911.162 667.916L908.142 665.294L898.889 675.953L901.91 678.575ZM899.755 703.025L898.534 688.963L894.549 689.309L895.77 703.371L899.755 703.025ZM869.462 710.086L882.458 715.592L884.019 711.909L871.022 706.403L869.462 710.086ZM845.542 715.592L858.539 710.086L856.979 706.403L843.982 711.909L845.542 715.592ZM829.466 688.963L828.246 703.025L832.231 703.371L833.451 689.309L829.466 688.963ZM816.838 667.916L826.091 678.575L829.112 675.953L819.859 665.293L816.838 667.916ZM837.196 644.398L823.445 647.583L824.347 651.48L838.098 648.295L837.196 644.398ZM853.311 625.884L846.032 637.978L849.46 640.04L856.738 627.946L853.311 625.884ZM884.87 674.118C886.119 677.961 884.751 682.17 881.482 684.545L883.833 687.781C888.504 684.388 890.458 678.373 888.674 672.882L884.87 674.118ZM876 667.674C880.041 667.674 883.622 670.275 884.87 674.118L888.674 672.882C886.89 667.391 881.774 663.674 876 663.674V667.674ZM867.131 674.118C868.379 670.275 871.96 667.674 876 667.674V663.674C870.227 663.674 865.11 667.391 863.326 672.882L867.131 674.118ZM870.519 684.545C867.25 682.17 865.882 677.961 867.131 674.118L863.326 672.882C861.542 678.373 863.497 684.388 868.167 687.781L870.519 684.545ZM881.482 684.545C878.214 686.92 873.787 686.92 870.519 684.545L868.167 687.781C872.838 691.175 879.163 691.175 883.833 687.781L881.482 684.545ZM845.98 677.854C848.95 675.697 850.192 671.873 849.058 668.382L845.254 669.618C845.852 671.461 845.197 673.479 843.629 674.618L845.98 677.854ZM836.021 677.854C838.99 680.011 843.011 680.011 845.98 677.854L843.629 674.618C842.062 675.757 839.939 675.757 838.372 674.618L836.021 677.854ZM832.943 668.382C831.809 671.873 833.051 675.697 836.021 677.854L838.372 674.618C836.804 673.479 836.149 671.461 836.747 669.618L832.943 668.382ZM841 662.528C837.33 662.528 834.077 664.891 832.943 668.382L836.747 669.618C837.346 667.775 839.063 666.528 841 666.528V662.528ZM849.058 668.382C847.924 664.891 844.671 662.528 841 662.528V666.528C842.938 666.528 844.655 667.775 845.254 669.618L849.058 668.382ZM861.274 649C860.841 648.685 860.659 648.127 860.825 647.618L857.021 646.382C856.32 648.539 857.088 650.903 858.923 652.236L861.274 649ZM862.727 649C862.294 649.315 861.707 649.315 861.274 649L858.923 652.236C860.758 653.569 863.243 653.569 865.078 652.236L862.727 649ZM863.176 647.618C863.342 648.127 863.16 648.685 862.727 649L865.078 652.236C866.913 650.903 867.681 648.539 866.98 646.382L863.176 647.618ZM862 646.764C862.536 646.764 863.011 647.109 863.176 647.618L866.98 646.382C866.279 644.224 864.269 642.764 862 642.764V646.764ZM860.825 647.618C860.99 647.109 861.465 646.764 862 646.764V642.764C859.732 642.764 857.722 644.224 857.021 646.382L860.825 647.618ZM856.738 627.946C858.271 625.399 861.027 623.841 864 623.841V619.841C859.624 619.841 855.567 622.134 853.311 625.884L856.738 627.946ZM838.098 648.295C842.847 647.195 846.946 644.217 849.46 640.04L846.032 637.978C844.078 641.226 840.889 643.543 837.196 644.398L838.098 648.295ZM818.198 657.118C819.117 654.29 821.45 652.15 824.347 651.48L823.445 647.583C819.181 648.57 815.746 651.719 814.394 655.882L818.198 657.118ZM819.859 665.293C817.909 663.048 817.279 659.946 818.198 657.118L814.394 655.882C813.042 660.044 813.969 664.611 816.838 667.916L819.859 665.293ZM833.451 689.309C833.873 684.453 832.307 679.634 829.112 675.953L826.091 678.575C828.576 681.438 829.794 685.186 829.466 688.963L833.451 689.309ZM835.693 710.961C833.288 709.214 831.974 706.333 832.231 703.371L828.246 703.025C827.867 707.385 829.801 711.625 833.342 714.198L835.693 710.961ZM843.982 711.909C841.244 713.069 838.099 712.709 835.693 710.961L833.342 714.198C836.883 716.77 841.512 717.299 845.542 715.592L843.982 711.909ZM871.022 706.403C866.534 704.501 861.467 704.501 856.979 706.403L858.539 710.086C862.03 708.607 865.971 708.607 869.462 710.086L871.022 706.403ZM892.307 710.961C889.902 712.709 886.757 713.068 884.019 711.909L882.458 715.592C886.488 717.299 891.118 716.77 894.659 714.197L892.307 710.961ZM895.77 703.371C896.027 706.333 894.713 709.214 892.307 710.961L894.659 714.197C898.199 711.625 900.133 707.385 899.755 703.025L895.77 703.371ZM898.889 675.953C895.694 679.634 894.128 684.453 894.549 689.309L898.534 688.963C898.207 685.186 899.425 681.438 901.91 678.575L898.889 675.953ZM909.802 657.118C910.721 659.946 910.091 663.048 908.142 665.294L911.162 667.916C914.031 664.611 914.959 660.044 913.606 655.882L909.802 657.118ZM903.653 651.479C906.55 652.15 908.883 654.29 909.802 657.118L913.606 655.882C912.254 651.719 908.819 648.57 904.556 647.583L903.653 651.479ZM874.69 625.884C872.433 622.134 868.377 619.841 864 619.841V623.841C866.974 623.841 869.73 625.399 871.263 627.946L874.69 625.884ZM878.541 640.04C881.054 644.217 885.154 647.195 889.902 648.295L890.805 644.398C887.112 643.543 883.923 641.226 881.968 637.978L878.541 640.04Z" fill="#FFA500"/>
<path d="M869.343 686.163C873.312 689.047 878.688 689.047 882.657 686.163C886.627 683.279 888.288 678.167 886.772 673.5C885.256 668.833 880.907 665.674 876 665.674C871.093 665.674 866.744 668.833 865.228 673.5C863.712 678.167 865.373 683.279 869.343 686.163Z" fill="#DC143C"/>
<path d="M837.196 676.236C839.464 677.884 842.536 677.884 844.804 676.236C847.073 674.588 848.022 671.667 847.155 669C846.289 666.333 843.804 664.528 841 664.528C838.196 664.528 835.711 666.333 834.845 669C833.978 671.667 834.927 674.588 837.196 676.236Z" fill="#DC143C"/>
<path d="M860.098 650.618C861.232 651.442 862.768 651.442 863.902 650.618C865.036 649.794 865.511 648.333 865.078 647C864.644 645.667 863.402 644.764 862 644.764C860.598 644.764 859.356 645.667 858.922 647C858.489 648.333 858.964 649.794 860.098 650.618Z" fill="#DC143C"/>
</svg>
