<svg viewBox="0 0 1024 768" fill="none" xmlns="http://www.w3.org/2000/svg">
<path d="M424 36L436.858 64.9576L466.426 53.5736L455.042 83.1418L484 96L455.042 108.858L466.426 138.426L436.858 127.042L424 156L411.142 127.042L381.574 138.426L392.958 108.858L364 96L392.958 83.1418L381.574 53.5736L411.142 64.9576L424 36Z" stroke="#7B61FF" stroke-width="2" stroke-linecap="round" stroke-linejoin="round"/>
<path d="M578.787 147.213C592.369 152.839 607.631 152.839 621.213 147.213V147.213C634.796 141.587 645.587 130.796 651.213 117.213V117.213C656.839 103.631 656.839 88.3694 651.213 74.7868V74.7868C645.587 61.2042 634.796 50.4129 621.213 44.7868V44.7868C607.631 39.1607 592.369 39.1607 578.787 44.7868V44.7868C565.204 50.4129 554.413 61.2042 548.787 74.7868V74.7868C543.161 88.3694 543.161 103.631 548.787 117.213V117.213C554.413 130.796 565.204 141.587 578.787 147.213V147.213Z" stroke="#7B61FF" stroke-width="2" stroke-linecap="round" stroke-linejoin="round"/>
<path fill-rule="evenodd" clip-rule="evenodd" d="M544.145 306.394L512 234L479.855 306.394L405.934 277.934L434.394 351.855L362 384L434.394 416.145L405.934 490.066L479.855 461.606L512 534L544.145 461.606L618.066 490.066L589.606 416.145L662 384L589.606 351.855L618.066 277.934L544.145 306.394ZM484.6 450.15C502.144 457.417 521.856 457.417 539.4 450.15C556.945 442.883 570.883 428.945 578.15 411.4C585.417 393.856 585.417 374.144 578.15 356.6C570.883 339.055 556.945 325.117 539.4 317.85C521.856 310.583 502.144 310.583 484.6 317.85C467.055 325.117 453.117 339.055 445.85 356.6C438.583 374.144 438.583 393.856 445.85 411.4C453.117 428.945 467.055 442.883 484.6 450.15Z" fill="#888888" fill-opacity="0.5"/>
<path d="M512 234L516.57 231.971C515.768 230.164 513.977 229 512 229C510.023 229 508.232 230.164 507.43 231.971L512 234ZM544.145 306.394L539.576 308.423C540.657 310.858 543.456 312.017 545.942 311.06L544.145 306.394ZM479.855 306.394L478.058 311.06C480.544 312.017 483.343 310.858 484.424 308.423L479.855 306.394ZM405.934 277.934L407.73 273.268C405.886 272.558 403.796 273.001 402.398 274.398C401.001 275.796 400.558 277.886 401.268 279.73L405.934 277.934ZM434.394 351.855L436.423 356.424C438.858 355.343 440.017 352.544 439.06 350.058L434.394 351.855ZM362 384L359.971 379.43C358.164 380.232 357 382.023 357 384C357 385.977 358.164 387.768 359.971 388.57L362 384ZM434.394 416.145L439.06 417.942C440.017 415.456 438.858 412.657 436.423 411.576L434.394 416.145ZM405.934 490.066L401.268 488.27C400.558 490.114 401.001 492.204 402.398 493.602C403.796 494.999 405.886 495.442 407.73 494.732L405.934 490.066ZM479.855 461.606L484.424 459.577C483.343 457.142 480.544 455.983 478.058 456.94L479.855 461.606ZM512 534L507.43 536.029C508.232 537.836 510.023 539 512 539C513.977 539 515.768 537.836 516.57 536.029L512 534ZM544.145 461.606L545.942 456.94C543.456 455.983 540.657 457.142 539.576 459.577L544.145 461.606ZM618.066 490.066L616.27 494.732C618.114 495.442 620.204 494.999 621.602 493.602C622.999 492.204 623.442 490.114 622.732 488.27L618.066 490.066ZM589.606 416.145L587.577 411.576C585.142 412.657 583.983 415.456 584.94 417.942L589.606 416.145ZM662 384L664.029 388.57C665.836 387.768 667 385.977 667 384C667 382.023 665.836 380.232 664.029 379.43L662 384ZM589.606 351.855L584.94 350.058C583.983 352.544 585.142 355.343 587.577 356.424L589.606 351.855ZM618.066 277.934L622.732 279.73C623.442 277.886 622.999 275.796 621.602 274.398C620.204 273.001 618.114 272.558 616.27 273.268L618.066 277.934ZM539.4 450.15L537.487 445.531L539.4 450.15ZM484.6 450.15L486.513 445.531H486.513L484.6 450.15ZM578.15 411.4L582.77 413.314L578.15 411.4ZM578.15 356.6L582.77 354.686V354.686L578.15 356.6ZM539.4 317.85L541.314 313.23L539.4 317.85ZM484.6 317.85L486.513 322.469H486.513L484.6 317.85ZM445.85 356.6L450.469 358.513V358.513L445.85 356.6ZM507.43 236.029L539.576 308.423L548.715 304.365L516.57 231.971L507.43 236.029ZM484.424 308.423L516.57 236.029L507.43 231.971L475.285 304.365L484.424 308.423ZM404.137 282.6L478.058 311.06L481.651 301.728L407.73 273.268L404.137 282.6ZM439.06 350.058L410.6 276.137L401.268 279.73L429.728 353.651L439.06 350.058ZM364.029 388.57L436.423 356.424L432.365 347.285L359.971 379.43L364.029 388.57ZM436.423 411.576L364.029 379.43L359.971 388.57L432.365 420.715L436.423 411.576ZM410.6 491.863L439.06 417.942L429.728 414.349L401.268 488.27L410.6 491.863ZM478.058 456.94L404.137 485.4L407.73 494.732L481.651 466.272L478.058 456.94ZM516.57 531.971L484.424 459.577L475.285 463.635L507.43 536.029L516.57 531.971ZM539.576 459.577L507.43 531.971L516.57 536.029L548.715 463.635L539.576 459.577ZM619.863 485.4L545.942 456.94L542.349 466.272L616.27 494.732L619.863 485.4ZM584.94 417.942L613.4 491.863L622.732 488.27L594.272 414.349L584.94 417.942ZM659.971 379.43L587.577 411.576L591.635 420.715L664.029 388.57L659.971 379.43ZM587.577 356.424L659.971 388.57L664.029 379.43L591.635 347.285L587.577 356.424ZM613.4 276.137L584.94 350.058L594.272 353.651L622.732 279.73L613.4 276.137ZM545.942 311.06L619.863 282.6L616.27 273.268L542.349 301.728L545.942 311.06ZM537.487 445.531C521.168 452.291 502.832 452.291 486.513 445.531L482.686 454.77C501.456 462.544 522.545 462.544 541.314 454.77L537.487 445.531ZM573.531 409.487C566.771 425.806 553.806 438.771 537.487 445.531L541.314 454.77C560.083 446.995 574.995 432.083 582.77 413.314L573.531 409.487ZM573.531 358.513C580.291 374.832 580.291 393.168 573.531 409.487L582.77 413.314C590.544 394.545 590.544 373.456 582.77 354.686L573.531 358.513ZM537.487 322.469C553.806 329.229 566.771 342.194 573.531 358.513L582.77 354.686C574.995 335.917 560.083 321.005 541.314 313.23L537.487 322.469ZM486.513 322.469C502.832 315.709 521.168 315.709 537.487 322.469L541.314 313.23C522.545 305.456 501.456 305.456 482.686 313.23L486.513 322.469ZM450.469 358.513C457.229 342.194 470.194 329.229 486.513 322.469L482.686 313.23C463.917 321.005 449.005 335.917 441.23 354.686L450.469 358.513ZM450.469 409.487C443.709 393.168 443.709 374.832 450.469 358.513L441.23 354.686C433.456 373.456 433.456 394.545 441.23 413.314L450.469 409.487ZM486.513 445.531C470.194 438.771 457.229 425.806 450.469 409.487L441.23 413.314C449.005 432.083 463.917 446.995 482.686 454.77L486.513 445.531Z" fill="currentColor"/>
<path d="M492.555 430.945C505.005 436.103 518.995 436.103 531.445 430.945C543.896 425.788 553.788 415.896 558.945 403.445C564.103 390.995 564.103 377.005 558.945 364.555C553.788 352.104 543.896 342.212 531.445 337.055C518.995 331.897 505.005 331.897 492.555 337.055C480.104 342.212 470.212 352.104 465.055 364.555C459.897 377.005 459.897 390.995 465.055 403.445C470.212 415.896 480.104 425.788 492.555 430.945Z" fill="#888888" fill-opacity="0.5" stroke="currentColor" stroke-width="10" stroke-linecap="round" stroke-linejoin="round"/>
<path d="M512 234L544.145 306.394L618.066 277.934L589.606 351.855L662 384L589.606 416.145L618.066 490.066L544.145 461.606L512 534L479.855 461.606L405.934 490.066L434.394 416.145L362 384L434.394 351.855L405.934 277.934L479.855 306.394L512 234Z" stroke="currentColor" stroke-width="2.5" stroke-linecap="round" stroke-linejoin="round"/>
<path d="M539.4 450.15C521.856 457.417 502.144 457.417 484.6 450.15V450.15C467.055 442.883 453.117 428.945 445.85 411.4V411.4C438.583 393.856 438.583 374.144 445.85 356.6V356.6C453.117 339.055 467.055 325.117 484.6 317.85V317.85C502.144 310.583 521.856 310.583 539.4 317.85V317.85C556.945 325.117 570.883 339.055 578.15 356.6V356.6C585.417 374.144 585.417 393.856 578.15 411.4V411.4C570.883 428.945 556.945 442.883 539.4 450.15V450.15Z" stroke="currentColor" stroke-width="2.5" stroke-linecap="round" stroke-linejoin="round"/>
<path d="M492.555 430.945C505.005 436.103 518.995 436.103 531.445 430.945V430.945C543.896 425.788 553.788 415.896 558.945 403.445V403.445C564.103 390.995 564.103 377.005 558.945 364.555V364.555C553.788 352.104 543.896 342.212 531.445 337.055V337.055C518.995 331.897 505.005 331.897 492.555 337.055V337.055C480.104 342.212 470.212 352.104 465.055 364.555V364.555C459.897 377.005 459.897 390.995 465.055 403.445V403.445C470.212 415.896 480.104 425.788 492.555 430.945V430.945Z" stroke="currentColor" stroke-width="2.5" stroke-linecap="round" stroke-linejoin="round"/>
<path d="M160 612L160.914 611.594C160.754 611.233 160.395 611 160 611C159.605 611 159.246 611.233 159.086 611.594L160 612ZM172.858 640.958L171.944 641.363C172.16 641.85 172.72 642.082 173.217 641.891L172.858 640.958ZM147.142 640.958L146.783 641.891C147.28 642.082 147.84 641.85 148.056 641.363L147.142 640.958ZM117.574 629.574L117.933 628.64C117.564 628.498 117.146 628.587 116.866 628.866C116.587 629.146 116.498 629.564 116.64 629.933L117.574 629.574ZM128.958 659.142L129.363 660.056C129.85 659.84 130.082 659.28 129.891 658.783L128.958 659.142ZM100 672L99.5942 671.086C99.2329 671.246 99 671.605 99 672C99 672.395 99.2329 672.754 99.5942 672.914L100 672ZM128.958 684.858L129.891 685.217C130.082 684.72 129.85 684.16 129.363 683.944L128.958 684.858ZM117.574 714.426L116.64 714.067C116.498 714.436 116.587 714.854 116.866 715.134C117.146 715.413 117.564 715.502 117.933 715.36L117.574 714.426ZM147.142 703.042L148.056 702.637C147.84 702.15 147.28 701.918 146.783 702.109L147.142 703.042ZM160 732L159.086 732.406C159.246 732.767 159.605 733 160 733C160.395 733 160.754 732.767 160.914 732.406L160 732ZM172.858 703.042L173.217 702.109C172.72 701.918 172.16 702.15 171.944 702.637L172.858 703.042ZM202.426 714.426L202.067 715.36C202.436 715.502 202.854 715.413 203.134 715.134C203.413 714.854 203.502 714.436 203.36 714.067L202.426 714.426ZM191.042 684.858L190.637 683.944C190.15 684.16 189.918 684.72 190.109 685.217L191.042 684.858ZM220 672L220.406 672.914C220.767 672.754 221 672.395 221 672C221 671.605 220.767 671.246 220.406 671.086L220 672ZM191.042 659.142L190.109 658.783C189.918 659.28 190.15 659.84 190.637 660.056L191.042 659.142ZM202.426 629.574L203.36 629.933C203.502 629.564 203.413 629.146 203.134 628.866C202.854 628.587 202.436 628.498 202.067 628.64L202.426 629.574ZM149.04 698.46L148.657 699.384L149.04 698.46ZM133.54 682.96L134.464 682.577H134.464L133.54 682.96ZM170.96 698.46L170.577 697.536L170.96 698.46ZM186.46 682.96L187.384 683.343L186.46 682.96ZM186.46 661.04L187.384 660.657L186.46 661.04ZM170.96 645.54L170.577 646.464V646.464L170.96 645.54ZM149.04 645.54L148.657 644.616L149.04 645.54ZM133.54 661.04L132.616 660.657L133.54 661.04ZM159.086 612.406L171.944 641.363L173.772 640.552L160.914 611.594L159.086 612.406ZM148.056 641.363L160.914 612.406L159.086 611.594L146.228 640.552L148.056 641.363ZM117.214 630.507L146.783 641.891L147.501 640.024L117.933 628.64L117.214 630.507ZM129.891 658.783L118.507 629.214L116.64 629.933L128.024 659.501L129.891 658.783ZM100.406 672.914L129.363 660.056L128.552 658.228L99.5942 671.086L100.406 672.914ZM129.363 683.944L100.406 671.086L99.5942 672.914L128.552 685.772L129.363 683.944ZM118.507 714.786L129.891 685.217L128.024 684.499L116.64 714.067L118.507 714.786ZM146.783 702.109L117.214 713.493L117.933 715.36L147.501 703.976L146.783 702.109ZM160.914 731.594L148.056 702.637L146.228 703.448L159.086 732.406L160.914 731.594ZM171.944 702.637L159.086 731.594L160.914 732.406L173.772 703.448L171.944 702.637ZM202.786 713.493L173.217 702.109L172.499 703.976L202.067 715.36L202.786 713.493ZM190.109 685.217L201.493 714.786L203.36 714.067L191.976 684.499L190.109 685.217ZM219.594 671.086L190.637 683.944L191.448 685.772L220.406 672.914L219.594 671.086ZM190.637 660.056L219.594 672.914L220.406 671.086L191.448 658.228L190.637 660.056ZM201.493 629.214L190.109 658.783L191.976 659.501L203.36 629.933L201.493 629.214ZM173.217 641.891L202.786 630.507L202.067 628.64L172.499 640.024L173.217 641.891ZM149.423 697.536C142.65 694.731 137.269 689.35 134.464 682.577L132.616 683.343C135.624 690.606 141.394 696.376 148.657 699.384L149.423 697.536ZM170.577 697.536C163.805 700.342 156.195 700.342 149.423 697.536L148.657 699.384C155.92 702.392 164.08 702.392 171.343 699.384L170.577 697.536ZM185.536 682.577C182.731 689.35 177.35 694.731 170.577 697.536L171.343 699.384C178.606 696.376 184.376 690.606 187.384 683.343L185.536 682.577ZM185.536 661.423C188.342 668.195 188.342 675.805 185.536 682.577L187.384 683.343C190.392 676.08 190.392 667.92 187.384 660.657L185.536 661.423ZM170.577 646.464C177.35 649.269 182.731 654.65 185.536 661.423L187.384 660.657C184.376 653.394 178.606 647.624 171.343 644.616L170.577 646.464ZM149.423 646.464C156.195 643.658 163.805 643.658 170.577 646.464L171.343 644.616C164.08 641.608 155.92 641.608 148.657 644.616L149.423 646.464ZM134.464 661.423C137.269 654.65 142.65 649.269 149.423 646.464L148.657 644.616C141.394 647.624 135.624 653.394 132.616 660.657L134.464 661.423ZM134.464 682.577C131.658 675.805 131.658 668.195 134.464 661.423L132.616 660.657C129.608 667.92 129.608 676.08 132.616 683.343L134.464 682.577Z" fill="currentColor"/>
<path d="M152.222 690.778C157.202 692.841 162.798 692.841 167.778 690.778V690.778C172.758 688.715 176.715 684.758 178.778 679.778V679.778C180.841 674.798 180.841 669.202 178.778 664.222V664.222C176.715 659.242 172.758 655.285 167.778 653.222V653.222C162.798 651.159 157.202 651.159 152.222 653.222V653.222C147.242 655.285 143.285 659.242 141.222 664.222V664.222C139.159 669.202 139.159 674.798 141.222 679.778V679.778C143.285 684.758 147.242 688.715 152.222 690.778V690.778Z" stroke="currentColor" stroke-width="2" stroke-linecap="round" stroke-linejoin="round"/>
<path d="M339.656 610.377L340.113 610.174V610.174L339.656 610.377ZM332.344 610.377L331.887 610.174V610.174L332.344 610.377ZM321.03 635.858L320.85 636.325C321.098 636.42 321.378 636.305 321.487 636.061L321.03 635.858ZM295.011 625.841L295.19 625.374L295.011 625.841ZM289.841 631.011L289.374 631.19L289.841 631.011ZM299.858 657.03L300.061 657.487C300.305 657.378 300.42 657.098 300.325 656.85L299.858 657.03ZM274.377 668.344L274.174 667.887H274.174L274.377 668.344ZM274.377 675.656L274.174 676.113H274.174L274.377 675.656ZM299.858 686.97L300.325 687.15C300.42 686.902 300.305 686.622 300.061 686.513L299.858 686.97ZM289.841 712.989L290.307 713.169H290.307L289.841 712.989ZM290.745 717.255L290.392 717.608H290.392L290.745 717.255ZM295.011 718.159L294.831 717.693H294.831L295.011 718.159ZM321.03 708.142L321.487 707.939C321.378 707.695 321.098 707.579 320.85 707.675L321.03 708.142ZM332.344 733.623L332.801 733.42L332.344 733.623ZM339.656 733.623L340.113 733.826L339.656 733.623ZM350.97 708.142L351.15 707.675C350.902 707.579 350.622 707.695 350.513 707.939L350.97 708.142ZM376.989 718.159L377.169 717.693L376.989 718.159ZM381.255 717.255L381.608 717.608L381.255 717.255ZM382.159 712.989L381.693 713.169L382.159 712.989ZM372.142 686.97L371.939 686.513C371.695 686.622 371.579 686.902 371.675 687.15L372.142 686.97ZM397.623 675.656L397.826 676.113L397.623 675.656ZM397.623 668.344L397.42 668.801L397.623 668.344ZM372.142 657.03L371.675 656.85C371.579 657.098 371.695 657.378 371.939 657.487L372.142 657.03ZM382.159 631.011L381.693 630.831V630.831L382.159 631.011ZM381.255 626.745L381.608 626.392V626.392L381.255 626.745ZM376.989 625.841L377.169 626.307V626.307L376.989 625.841ZM350.97 635.858L350.513 636.061C350.622 636.305 350.902 636.42 351.15 636.325L350.97 635.858ZM344.242 640.417L344.115 640.901C344.301 640.95 344.498 640.887 344.623 640.741C344.747 640.595 344.777 640.39 344.699 640.214L344.242 640.417ZM336 621.856L336.457 621.654C336.377 621.473 336.198 621.356 336 621.356C335.802 621.356 335.623 621.473 335.543 621.654L336 621.856ZM327.758 640.417L327.301 640.214C327.223 640.39 327.253 640.595 327.377 640.741C327.502 640.887 327.699 640.95 327.885 640.901L327.758 640.417ZM352.505 643.84L352.325 643.373C352.146 643.442 352.022 643.608 352.006 643.799C351.991 643.991 352.086 644.174 352.252 644.271L352.505 643.84ZM364.16 655.495L363.729 655.748C363.826 655.914 364.009 656.009 364.201 655.994C364.392 655.978 364.558 655.854 364.627 655.675L364.16 655.495ZM371.457 636.543L371.923 636.723C371.994 636.538 371.95 636.329 371.81 636.19C371.671 636.05 371.462 636.006 371.277 636.077L371.457 636.543ZM367.583 680.242L367.099 680.115C367.05 680.301 367.113 680.498 367.259 680.623C367.405 680.747 367.61 680.777 367.786 680.699L367.583 680.242ZM386.144 672L386.346 672.457C386.527 672.377 386.644 672.198 386.644 672C386.644 671.802 386.527 671.623 386.346 671.543L386.144 672ZM367.583 663.758L367.786 663.301C367.61 663.223 367.405 663.253 367.259 663.377C367.113 663.502 367.05 663.699 367.099 663.885L367.583 663.758ZM364.16 688.505L364.627 688.325C364.558 688.146 364.392 688.022 364.201 688.006C364.009 687.991 363.826 688.086 363.729 688.252L364.16 688.505ZM352.505 700.16L352.252 699.729C352.086 699.826 351.991 700.009 352.006 700.201C352.022 700.392 352.146 700.558 352.325 700.627L352.505 700.16ZM371.457 707.457L371.277 707.923C371.462 707.994 371.671 707.95 371.81 707.81C371.95 707.671 371.994 707.462 371.923 707.277L371.457 707.457ZM344.242 703.583L344.699 703.786C344.777 703.61 344.747 703.405 344.623 703.259C344.498 703.113 344.301 703.05 344.115 703.099L344.242 703.583ZM327.758 703.583L327.885 703.099C327.699 703.05 327.502 703.113 327.377 703.259C327.253 703.405 327.223 703.61 327.301 703.786L327.758 703.583ZM336 722.144L335.543 722.346C335.623 722.527 335.802 722.644 336 722.644C336.198 722.644 336.377 722.527 336.457 722.346L336 722.144ZM319.495 700.16L319.675 700.627C319.854 700.558 319.978 700.392 319.994 700.201C320.009 700.009 319.914 699.826 319.748 699.729L319.495 700.16ZM307.84 688.505L308.271 688.252C308.174 688.086 307.991 687.991 307.799 688.006C307.608 688.022 307.442 688.146 307.373 688.325L307.84 688.505ZM300.543 707.457L300.077 707.277C300.006 707.462 300.05 707.671 300.19 707.81C300.329 707.95 300.538 707.994 300.723 707.923L300.543 707.457ZM304.417 663.758L304.901 663.885C304.95 663.699 304.887 663.502 304.741 663.377C304.595 663.253 304.39 663.223 304.214 663.301L304.417 663.758ZM285.856 672L285.654 671.543C285.473 671.623 285.356 671.802 285.356 672C285.356 672.198 285.473 672.377 285.654 672.457L285.856 672ZM304.417 680.242L304.214 680.699C304.39 680.777 304.595 680.747 304.741 680.623C304.887 680.498 304.95 680.301 304.901 680.115L304.417 680.242ZM307.84 655.495L307.373 655.675C307.442 655.854 307.608 655.978 307.799 655.994C307.991 656.009 308.174 655.914 308.271 655.748L307.84 655.495ZM300.543 636.543L300.723 636.077C300.538 636.006 300.329 636.05 300.19 636.19C300.05 636.329 300.006 636.538 300.077 636.723L300.543 636.543ZM319.495 643.84L319.748 644.271C319.914 644.174 320.009 643.991 319.994 643.799C319.978 643.608 319.854 643.442 319.675 643.373L319.495 643.84ZM358.765 662.571L358.303 662.762L358.765 662.571ZM358.765 681.429L359.227 681.621V681.621L358.765 681.429ZM326.571 694.765L326.379 695.227L326.571 694.765ZM326.691 694.474L326.5 694.936L326.691 694.474ZM345.309 694.474L345.5 694.936L345.309 694.474ZM313.526 662.691L313.988 662.882L313.526 662.691ZM326.691 649.526L326.882 649.988L326.691 649.526ZM351.083 665.753L350.621 665.944L351.083 665.753ZM342.247 656.917L342.056 657.379L342.247 656.917ZM329.753 656.917L329.561 656.455L329.753 656.917ZM320.917 665.753L320.455 665.561L320.917 665.753ZM320.917 678.247L321.379 678.056L320.917 678.247ZM336 608.5C337.384 608.5 338.637 609.315 339.199 610.58L340.113 610.174C339.391 608.548 337.779 607.5 336 607.5V608.5ZM332.801 610.58C333.363 609.315 334.616 608.5 336 608.5V607.5C334.221 607.5 332.609 608.548 331.887 610.174L332.801 610.58ZM321.487 636.061L332.801 610.58L331.887 610.174L320.573 635.655L321.487 636.061ZM294.831 626.307L320.85 636.325L321.209 635.392L295.19 625.374L294.831 626.307ZM291.099 627.099C292.077 626.12 293.54 625.81 294.831 626.307L295.19 625.374C293.53 624.735 291.649 625.134 290.392 626.392L291.099 627.099ZM290.307 630.831C289.81 629.54 290.12 628.077 291.099 627.099L290.392 626.392C289.134 627.649 288.735 629.53 289.374 631.19L290.307 630.831ZM300.325 656.85L290.307 630.831L289.374 631.19L299.392 657.209L300.325 656.85ZM274.58 668.801L300.061 657.487L299.655 656.573L274.174 667.887L274.58 668.801ZM272.5 672C272.5 670.616 273.315 669.363 274.58 668.801L274.174 667.887C272.548 668.609 271.5 670.221 271.5 672H272.5ZM274.58 675.199C273.315 674.637 272.5 673.384 272.5 672H271.5C271.5 673.779 272.548 675.391 274.174 676.113L274.58 675.199ZM300.061 686.513L274.58 675.199L274.174 676.113L299.655 687.427L300.061 686.513ZM290.307 713.169L300.325 687.15L299.392 686.791L289.374 712.81L290.307 713.169ZM291.099 716.901C290.12 715.923 289.81 714.46 290.307 713.169L289.374 712.81C288.735 714.47 289.134 716.351 290.392 717.608L291.099 716.901ZM294.831 717.693C293.54 718.19 292.077 717.88 291.099 716.901L290.392 717.608C291.649 718.866 293.53 719.265 295.19 718.626L294.831 717.693ZM320.85 707.675L294.831 717.693L295.19 718.626L321.209 708.608L320.85 707.675ZM332.801 733.42L321.487 707.939L320.573 708.345L331.887 733.826L332.801 733.42ZM336 735.5C334.616 735.5 333.363 734.685 332.801 733.42L331.887 733.826C332.609 735.452 334.221 736.5 336 736.5V735.5ZM339.199 733.42C338.637 734.685 337.384 735.5 336 735.5V736.5C337.779 736.5 339.391 735.452 340.113 733.826L339.199 733.42ZM350.513 707.939L339.199 733.42L340.113 733.826L351.427 708.345L350.513 707.939ZM377.169 717.693L351.15 707.675L350.791 708.608L376.81 718.626L377.169 717.693ZM380.901 716.901C379.923 717.88 378.46 718.19 377.169 717.693L376.81 718.626C378.47 719.265 380.351 718.866 381.608 717.608L380.901 716.901ZM381.693 713.169C382.19 714.46 381.88 715.923 380.901 716.901L381.608 717.608C382.866 716.351 383.265 714.47 382.626 712.81L381.693 713.169ZM371.675 687.15L381.693 713.169L382.626 712.81L372.608 686.791L371.675 687.15ZM397.42 675.199L371.939 686.513L372.345 687.427L397.826 676.113L397.42 675.199ZM399.5 672C399.5 673.384 398.685 674.637 397.42 675.199L397.826 676.113C399.452 675.391 400.5 673.779 400.5 672H399.5ZM397.42 668.801C398.685 669.363 399.5 670.616 399.5 672H400.5C400.5 670.221 399.452 668.609 397.826 667.887L397.42 668.801ZM371.939 657.487L397.42 668.801L397.826 667.887L372.345 656.573L371.939 657.487ZM381.693 630.831L371.675 656.85L372.608 657.209L382.626 631.19L381.693 630.831ZM380.901 627.099C381.88 628.077 382.19 629.54 381.693 630.831L382.626 631.19C383.265 629.53 382.866 627.649 381.608 626.392L380.901 627.099ZM377.169 626.307C378.46 625.81 379.923 626.12 380.901 627.099L381.608 626.392C380.351 625.134 378.47 624.735 376.81 625.374L377.169 626.307ZM351.15 636.325L377.169 626.307L376.81 625.374L350.791 635.392L351.15 636.325ZM339.199 610.58L350.513 636.061L351.427 635.655L340.113 610.174L339.199 610.58ZM344.699 640.214L336.457 621.654L335.543 622.059L343.785 640.62L344.699 640.214ZM327.885 640.901C333.205 639.513 338.795 639.513 344.115 640.901L344.368 639.933C338.882 638.502 333.118 638.502 327.632 639.933L327.885 640.901ZM335.543 621.654L327.301 640.214L328.215 640.62L336.457 622.059L335.543 621.654ZM352.252 644.271C356.996 647.051 360.949 651.004 363.729 655.748L364.591 655.242C361.725 650.351 357.649 646.275 352.758 643.409L352.252 644.271ZM371.277 636.077L352.325 643.373L352.684 644.307L371.636 637.01L371.277 636.077ZM364.627 655.675L371.923 636.723L370.99 636.364L363.693 655.316L364.627 655.675ZM367.786 680.699L386.346 672.457L385.941 671.543L367.38 679.785L367.786 680.699ZM367.099 663.885C368.487 669.205 368.487 674.795 367.099 680.115L368.067 680.368C369.498 674.882 369.498 669.118 368.067 663.632L367.099 663.885ZM386.346 671.543L367.786 663.301L367.38 664.215L385.941 672.457L386.346 671.543ZM363.729 688.252C360.949 692.996 356.996 696.949 352.252 699.729L352.758 700.591C357.649 697.725 361.725 693.649 364.591 688.758L363.729 688.252ZM371.923 707.277L364.627 688.325L363.693 688.684L370.99 707.636L371.923 707.277ZM352.325 700.627L371.277 707.923L371.636 706.99L352.684 699.693L352.325 700.627ZM344.115 703.099C338.795 704.487 333.205 704.487 327.885 703.099L327.632 704.067C333.118 705.498 338.882 705.498 344.368 704.067L344.115 703.099ZM336.457 722.346L344.699 703.786L343.785 703.38L335.543 721.941L336.457 722.346ZM327.301 703.786L335.543 722.346L336.457 721.941L328.215 703.38L327.301 703.786ZM319.748 699.729C315.004 696.949 311.051 692.996 308.271 688.252L307.409 688.758C310.275 693.649 314.351 697.725 319.242 700.591L319.748 699.729ZM300.723 707.923L319.675 700.627L319.316 699.693L300.364 706.99L300.723 707.923ZM307.373 688.325L300.077 707.277L301.01 707.636L308.307 688.684L307.373 688.325ZM304.214 663.301L285.654 671.543L286.059 672.457L304.62 664.215L304.214 663.301ZM304.901 680.115C303.513 674.795 303.513 669.205 304.901 663.885L303.933 663.632C302.502 669.118 302.502 674.882 303.933 680.368L304.901 680.115ZM285.654 672.457L304.214 680.699L304.62 679.785L286.059 671.543L285.654 672.457ZM308.307 655.316L301.01 636.364L300.077 636.723L307.373 655.675L308.307 655.316ZM319.242 643.409C314.351 646.275 310.275 650.351 307.409 655.242L308.271 655.748C311.051 651.004 315.004 647.051 319.748 644.271L319.242 643.409ZM300.364 637.01L319.316 644.307L319.675 643.373L300.723 636.077L300.364 637.01ZM326.379 648.773C320.219 651.325 315.325 656.219 312.773 662.379L313.697 662.762C316.147 656.847 320.847 652.147 326.762 649.697L326.379 648.773ZM345.621 648.773C339.461 646.222 332.539 646.222 326.379 648.773L326.762 649.697C332.677 647.247 339.323 647.247 345.238 649.697L345.621 648.773ZM359.227 662.379C356.675 656.219 351.781 651.325 345.621 648.773L345.238 649.697C351.153 652.147 355.853 656.847 358.303 662.762L359.227 662.379ZM359.227 681.621C361.778 675.461 361.778 668.539 359.227 662.379L358.303 662.762C360.753 668.677 360.753 675.323 358.303 681.238L359.227 681.621ZM345.621 695.227C351.781 692.675 356.675 687.781 359.227 681.621L358.303 681.238C355.853 687.153 351.153 691.853 345.238 694.303L345.621 695.227ZM326.379 695.227C332.539 697.778 339.461 697.778 345.621 695.227L345.238 694.303C339.323 696.753 332.677 696.753 326.762 694.303L326.379 695.227ZM312.773 681.621C315.325 687.781 320.219 692.675 326.379 695.227L326.762 694.303C320.847 691.853 316.147 687.153 313.697 681.238L312.773 681.621ZM312.773 662.379C310.222 668.539 310.222 675.461 312.773 681.621L313.697 681.238C311.247 675.323 311.247 668.677 313.697 662.762L312.773 662.379ZM326.5 694.936C332.583 697.455 339.417 697.455 345.5 694.936L345.118 694.012C339.28 696.43 332.72 696.43 326.882 694.012L326.5 694.936ZM313.064 681.5C315.584 687.583 320.417 692.416 326.5 694.936L326.882 694.012C321.045 691.594 316.406 686.955 313.988 681.118L313.064 681.5ZM313.064 662.5C310.545 668.583 310.545 675.417 313.064 681.5L313.988 681.118C311.57 675.28 311.57 668.72 313.988 662.882L313.064 662.5ZM326.5 649.064C320.417 651.584 315.584 656.417 313.064 662.5L313.988 662.882C316.406 657.045 321.045 652.406 326.882 649.988L326.5 649.064ZM345.5 649.064C339.417 646.545 332.583 646.545 326.5 649.064L326.882 649.988C332.72 647.57 339.28 647.57 345.118 649.988L345.5 649.064ZM358.936 662.5C356.416 656.417 351.583 651.584 345.5 649.064L345.118 649.988C350.955 652.406 355.594 657.045 358.012 662.882L358.936 662.5ZM358.936 681.5C361.455 675.417 361.455 668.583 358.936 662.5L358.012 662.882C360.43 668.72 360.43 675.28 358.012 681.118L358.936 681.5ZM345.5 694.936C351.583 692.416 356.416 687.583 358.936 681.5L358.012 681.118C355.594 686.955 350.955 691.594 345.118 694.012L345.5 694.936ZM342.056 686.621C338.178 688.227 333.822 688.227 329.944 686.621L329.561 687.545C333.684 689.252 338.316 689.252 342.439 687.545L342.056 686.621ZM350.621 678.056C349.015 681.934 345.934 685.015 342.056 686.621L342.439 687.545C346.561 685.837 349.837 682.561 351.545 678.439L350.621 678.056ZM350.621 665.944C352.227 669.822 352.227 674.178 350.621 678.056L351.545 678.439C353.252 674.316 353.252 669.684 351.545 665.561L350.621 665.944ZM342.056 657.379C345.934 658.985 349.015 662.066 350.621 665.944L351.545 665.561C349.837 661.439 346.561 658.163 342.439 656.455L342.056 657.379ZM329.944 657.379C333.822 655.773 338.178 655.773 342.056 657.379L342.439 656.455C338.316 654.748 333.684 654.748 329.561 656.455L329.944 657.379ZM321.379 665.944C322.985 662.066 326.066 658.985 329.944 657.379L329.561 656.455C325.439 658.163 322.163 661.439 320.455 665.561L321.379 665.944ZM321.379 678.056C319.773 674.178 319.773 669.822 321.379 665.944L320.455 665.561C318.748 669.684 318.748 674.316 320.455 678.439L321.379 678.056ZM329.944 686.621C326.066 685.015 322.985 681.934 321.379 678.056L320.455 678.439C322.163 682.561 325.439 685.837 329.561 687.545L329.944 686.621Z" fill="currentColor"/>
<path fill-rule="evenodd" clip-rule="evenodd" d="M524.858 640.958L512 612L499.142 640.958L469.574 629.574L480.958 659.142L452 672L480.958 684.858L469.574 714.426L499.142 703.042L512 732L524.858 703.042L554.426 714.426L543.042 684.858L572 672L543.042 659.142L554.426 629.574L524.858 640.958ZM485.54 682.96C488.447 689.978 494.022 695.553 501.04 698.46C508.058 701.367 515.942 701.367 522.96 698.46C529.978 695.553 535.553 689.978 538.46 682.96C541.367 675.942 541.367 668.058 538.46 661.04C535.553 654.022 529.978 648.447 522.96 645.54C515.942 642.633 508.058 642.633 501.04 645.54C494.022 648.447 488.447 654.022 485.54 661.04C482.633 668.058 482.633 675.942 485.54 682.96Z" fill="currentColor"/>
<path d="M512 612L513.828 611.188C513.507 610.466 512.791 610 512 610C511.209 610 510.493 610.466 510.172 611.188L512 612ZM524.858 640.958L523.03 641.769C523.463 642.743 524.582 643.207 525.577 642.824L524.858 640.958ZM499.142 640.958L498.423 642.824C499.418 643.207 500.537 642.743 500.97 641.769L499.142 640.958ZM469.574 629.574L470.292 627.707C469.554 627.423 468.718 627.6 468.159 628.159C467.6 628.718 467.423 629.554 467.707 630.292L469.574 629.574ZM480.958 659.142L481.769 660.97C482.743 660.537 483.207 659.418 482.824 658.423L480.958 659.142ZM452 672L451.188 670.172C450.466 670.493 450 671.209 450 672C450 672.791 450.466 673.507 451.188 673.828L452 672ZM480.958 684.858L482.824 685.577C483.207 684.582 482.743 683.463 481.769 683.03L480.958 684.858ZM469.574 714.426L467.707 713.708C467.423 714.446 467.6 715.282 468.159 715.841C468.718 716.4 469.554 716.577 470.292 716.293L469.574 714.426ZM499.142 703.042L500.97 702.231C500.537 701.257 499.418 700.793 498.423 701.176L499.142 703.042ZM512 732L510.172 732.812C510.493 733.534 511.209 734 512 734C512.791 734 513.507 733.534 513.828 732.812L512 732ZM524.858 703.042L525.577 701.176C524.582 700.793 523.463 701.257 523.03 702.231L524.858 703.042ZM554.426 714.426L553.708 716.293C554.446 716.577 555.282 716.4 555.841 715.841C556.4 715.282 556.577 714.446 556.293 713.708L554.426 714.426ZM543.042 684.858L542.231 683.03C541.257 683.463 540.793 684.582 541.176 685.577L543.042 684.858ZM572 672L572.812 673.828C573.534 673.507 574 672.791 574 672C574 671.209 573.534 670.493 572.812 670.172L572 672ZM543.042 659.142L541.176 658.423C540.793 659.418 541.257 660.537 542.231 660.97L543.042 659.142ZM554.426 629.574L556.293 630.292C556.577 629.554 556.4 628.718 555.841 628.159C555.282 627.6 554.446 627.423 553.708 627.707L554.426 629.574ZM501.04 698.46L500.274 700.308V700.308L501.04 698.46ZM485.54 682.96L487.388 682.195L485.54 682.96ZM522.96 698.46L522.195 696.612V696.612L522.96 698.46ZM538.46 682.96L540.308 683.726L538.46 682.96ZM538.46 661.04L540.308 660.274L538.46 661.04ZM522.96 645.54L522.195 647.388L522.96 645.54ZM501.04 645.54L500.274 643.692L501.04 645.54ZM485.54 661.04L483.692 660.274L485.54 661.04ZM510.172 612.812L523.03 641.769L526.686 640.146L513.828 611.188L510.172 612.812ZM500.97 641.769L513.828 612.812L510.172 611.188L497.314 640.146L500.97 641.769ZM468.855 631.44L498.423 642.824L499.86 639.091L470.292 627.707L468.855 631.44ZM482.824 658.423L471.44 628.855L467.707 630.292L479.091 659.86L482.824 658.423ZM452.812 673.828L481.769 660.97L480.146 657.314L451.188 670.172L452.812 673.828ZM481.769 683.03L452.812 670.172L451.188 673.828L480.146 686.686L481.769 683.03ZM471.44 715.145L482.824 685.577L479.091 684.14L467.707 713.708L471.44 715.145ZM498.423 701.176L468.855 712.56L470.292 716.293L499.86 704.909L498.423 701.176ZM513.828 731.188L500.97 702.231L497.314 703.854L510.172 732.812L513.828 731.188ZM523.03 702.231L510.172 731.188L513.828 732.812L526.686 703.854L523.03 702.231ZM555.145 712.56L525.577 701.176L524.14 704.909L553.708 716.293L555.145 712.56ZM541.176 685.577L552.56 715.145L556.293 713.708L544.909 684.14L541.176 685.577ZM571.188 670.172L542.231 683.03L543.854 686.686L572.812 673.828L571.188 670.172ZM542.231 660.97L571.188 673.828L572.812 670.172L543.854 657.314L542.231 660.97ZM552.56 628.855L541.176 658.423L544.909 659.86L556.293 630.292L552.56 628.855ZM525.577 642.824L555.145 631.44L553.708 627.707L524.14 639.091L525.577 642.824ZM501.805 696.612C495.278 693.909 490.091 688.722 487.388 682.195L483.692 683.726C486.802 691.233 492.767 697.198 500.274 700.308L501.805 696.612ZM522.195 696.612C515.667 699.316 508.333 699.316 501.805 696.612L500.274 700.308C507.782 703.418 516.218 703.418 523.726 700.308L522.195 696.612ZM536.612 682.195C533.909 688.722 528.722 693.909 522.195 696.612L523.726 700.308C531.233 697.198 537.198 691.233 540.308 683.726L536.612 682.195ZM536.612 661.805C539.316 668.333 539.316 675.667 536.612 682.195L540.308 683.726C543.418 676.218 543.418 667.782 540.308 660.274L536.612 661.805ZM522.195 647.388C528.722 650.091 533.909 655.278 536.612 661.805L540.308 660.274C537.198 652.767 531.233 646.802 523.726 643.692L522.195 647.388ZM501.805 647.388C508.333 644.684 515.667 644.684 522.195 647.388L523.726 643.692C516.218 640.582 507.782 640.582 500.274 643.692L501.805 647.388ZM487.388 661.805C490.091 655.278 495.278 650.091 501.805 647.388L500.274 643.692C492.767 646.802 486.802 652.767 483.692 660.274L487.388 661.805ZM487.388 682.195C484.684 675.667 484.684 668.333 487.388 661.805L483.692 660.274C480.582 667.782 480.582 676.218 483.692 683.726L487.388 682.195Z" fill="currentColor"/>
<path d="M504.222 690.778C509.202 692.841 514.798 692.841 519.778 690.778C524.758 688.715 528.715 684.758 530.778 679.778C532.841 674.798 532.841 669.202 530.778 664.222C528.715 659.242 524.758 655.285 519.778 653.222C514.798 651.159 509.202 651.159 504.222 653.222C499.242 655.285 495.285 659.242 493.222 664.222C491.159 669.202 491.159 674.798 493.222 679.778C495.285 684.758 499.242 688.715 504.222 690.778Z" fill="currentColor" stroke="currentColor" stroke-width="4" stroke-linecap="round" stroke-linejoin="round"/>
<g opacity="0.25">
<path fill-rule="evenodd" clip-rule="evenodd" d="M700.858 640.958L688 612L675.142 640.958L645.574 629.574L656.958 659.142L628 672L656.958 684.858L645.574 714.426L675.142 703.042L688 732L700.858 703.042L730.426 714.426L719.042 684.858L748 672L719.042 659.142L730.426 629.574L700.858 640.958ZM661.54 682.96C664.447 689.978 670.022 695.553 677.04 698.46C684.058 701.367 691.942 701.367 698.96 698.46C705.978 695.553 711.553 689.978 714.46 682.96C717.367 675.942 717.367 668.058 714.46 661.04C711.553 654.022 705.978 648.447 698.96 645.54C691.942 642.633 684.058 642.633 677.04 645.54C670.022 648.447 664.447 654.022 661.54 661.04C658.633 668.058 658.633 675.942 661.54 682.96Z" fill="currentColor"/>
<path d="M688 612L689.828 611.188C689.507 610.466 688.791 610 688 610C687.209 610 686.493 610.466 686.172 611.188L688 612ZM700.858 640.958L699.03 641.769C699.463 642.743 700.582 643.207 701.577 642.824L700.858 640.958ZM675.142 640.958L674.423 642.824C675.418 643.207 676.537 642.743 676.97 641.769L675.142 640.958ZM645.574 629.574L646.292 627.707C645.554 627.423 644.718 627.6 644.159 628.159C643.6 628.718 643.423 629.554 643.707 630.292L645.574 629.574ZM656.958 659.142L657.769 660.97C658.743 660.537 659.207 659.418 658.824 658.423L656.958 659.142ZM628 672L627.188 670.172C626.466 670.493 626 671.209 626 672C626 672.791 626.466 673.507 627.188 673.828L628 672ZM656.958 684.858L658.824 685.577C659.207 684.582 658.743 683.463 657.769 683.03L656.958 684.858ZM645.574 714.426L643.707 713.708C643.423 714.446 643.6 715.282 644.159 715.841C644.718 716.4 645.554 716.577 646.292 716.293L645.574 714.426ZM675.142 703.042L676.97 702.231C676.537 701.257 675.418 700.793 674.423 701.176L675.142 703.042ZM688 732L686.172 732.812C686.493 733.534 687.209 734 688 734C688.791 734 689.507 733.534 689.828 732.812L688 732ZM700.858 703.042L701.577 701.176C700.582 700.793 699.463 701.257 699.03 702.231L700.858 703.042ZM730.426 714.426L729.708 716.293C730.446 716.577 731.282 716.4 731.841 715.841C732.4 715.282 732.577 714.446 732.293 713.708L730.426 714.426ZM719.042 684.858L718.231 683.03C717.257 683.463 716.793 684.582 717.176 685.577L719.042 684.858ZM748 672L748.812 673.828C749.534 673.507 750 672.791 750 672C750 671.209 749.534 670.493 748.812 670.172L748 672ZM719.042 659.142L717.176 658.423C716.793 659.418 717.257 660.537 718.231 660.97L719.042 659.142ZM730.426 629.574L732.293 630.292C732.577 629.554 732.4 628.718 731.841 628.159C731.282 627.6 730.446 627.423 729.708 627.707L730.426 629.574ZM677.04 698.46L676.274 700.308V700.308L677.04 698.46ZM661.54 682.96L663.388 682.195L661.54 682.96ZM698.96 698.46L698.195 696.612V696.612L698.96 698.46ZM714.46 682.96L716.308 683.726L714.46 682.96ZM714.46 661.04L716.308 660.274L714.46 661.04ZM698.96 645.54L698.195 647.388L698.96 645.54ZM677.04 645.54L676.274 643.692L677.04 645.54ZM661.54 661.04L659.692 660.274L661.54 661.04ZM686.172 612.812L699.03 641.769L702.686 640.146L689.828 611.188L686.172 612.812ZM676.97 641.769L689.828 612.812L686.172 611.188L673.314 640.146L676.97 641.769ZM644.855 631.44L674.423 642.824L675.86 639.091L646.292 627.707L644.855 631.44ZM658.824 658.423L647.44 628.855L643.707 630.292L655.091 659.86L658.824 658.423ZM628.812 673.828L657.769 660.97L656.146 657.314L627.188 670.172L628.812 673.828ZM657.769 683.03L628.812 670.172L627.188 673.828L656.146 686.686L657.769 683.03ZM647.44 715.145L658.824 685.577L655.091 684.14L643.707 713.708L647.44 715.145ZM674.423 701.176L644.855 712.56L646.292 716.293L675.86 704.909L674.423 701.176ZM689.828 731.188L676.97 702.231L673.314 703.854L686.172 732.812L689.828 731.188ZM699.03 702.231L686.172 731.188L689.828 732.812L702.686 703.854L699.03 702.231ZM731.145 712.56L701.577 701.176L700.14 704.909L729.708 716.293L731.145 712.56ZM717.176 685.577L728.56 715.145L732.293 713.708L720.909 684.14L717.176 685.577ZM747.188 670.172L718.231 683.03L719.854 686.686L748.812 673.828L747.188 670.172ZM718.231 660.97L747.188 673.828L748.812 670.172L719.854 657.314L718.231 660.97ZM728.56 628.855L717.176 658.423L720.909 659.86L732.293 630.292L728.56 628.855ZM701.577 642.824L731.145 631.44L729.708 627.707L700.14 639.091L701.577 642.824ZM677.805 696.612C671.278 693.909 666.091 688.722 663.388 682.195L659.692 683.726C662.802 691.233 668.767 697.198 676.274 700.308L677.805 696.612ZM698.195 696.612C691.667 699.316 684.333 699.316 677.805 696.612L676.274 700.308C683.782 703.418 692.218 703.418 699.726 700.308L698.195 696.612ZM712.612 682.195C709.909 688.722 704.722 693.909 698.195 696.612L699.726 700.308C707.233 697.198 713.198 691.233 716.308 683.726L712.612 682.195ZM712.612 661.805C715.316 668.333 715.316 675.667 712.612 682.195L716.308 683.726C719.418 676.218 719.418 667.782 716.308 660.274L712.612 661.805ZM698.195 647.388C704.722 650.091 709.909 655.278 712.612 661.805L716.308 660.274C713.198 652.767 707.233 646.802 699.726 643.692L698.195 647.388ZM677.805 647.388C684.333 644.684 691.667 644.684 698.195 647.388L699.726 643.692C692.218 640.582 683.782 640.582 676.274 643.692L677.805 647.388ZM663.388 661.805C666.091 655.278 671.278 650.091 677.805 647.388L676.274 643.692C668.767 646.802 662.802 652.767 659.692 660.274L663.388 661.805ZM663.388 682.195C660.684 675.667 660.684 668.333 663.388 661.805L659.692 660.274C656.582 667.782 656.582 676.218 659.692 683.726L663.388 682.195Z" fill="currentColor"/>
</g>
<path d="M680.222 690.778C685.202 692.841 690.798 692.841 695.778 690.778C700.758 688.715 704.715 684.758 706.778 679.778C708.841 674.798 708.841 669.202 706.778 664.222C704.715 659.242 700.758 655.285 695.778 653.222C690.798 651.159 685.202 651.159 680.222 653.222C675.242 655.285 671.285 659.242 669.222 664.222C667.159 669.202 667.159 674.798 669.222 679.778C671.285 684.758 675.242 688.715 680.222 690.778Z" fill="currentColor" stroke="currentColor" stroke-width="4" stroke-linecap="round" stroke-linejoin="round"/>
<path fill-rule="evenodd" clip-rule="evenodd" d="M876.858 640.958L864 612L851.142 640.958L821.574 629.574L832.958 659.142L804 672L832.958 684.858L821.574 714.426L851.142 703.042L864 732L876.858 703.042L906.426 714.426L895.042 684.858L924 672L895.042 659.142L906.426 629.574L876.858 640.958ZM837.54 682.96C840.447 689.978 846.022 695.553 853.04 698.46C860.058 701.367 867.942 701.367 874.96 698.46C881.978 695.553 887.553 689.978 890.46 682.96C893.367 675.942 893.367 668.058 890.46 661.04C887.553 654.022 881.978 648.447 874.96 645.54C867.942 642.633 860.058 642.633 853.04 645.54C846.022 648.447 840.447 654.022 837.54 661.04C834.633 668.058 834.633 675.942 837.54 682.96Z" fill="#FFA500"/>
<path d="M864 612L865.828 611.188C865.507 610.466 864.791 610 864 610C863.209 610 862.493 610.466 862.172 611.188L864 612ZM876.858 640.958L875.03 641.769C875.463 642.743 876.582 643.207 877.577 642.824L876.858 640.958ZM851.142 640.958L850.423 642.824C851.418 643.207 852.537 642.743 852.97 641.769L851.142 640.958ZM821.574 629.574L822.292 627.707C821.554 627.423 820.718 627.6 820.159 628.159C819.6 628.718 819.423 629.554 819.707 630.292L821.574 629.574ZM832.958 659.142L833.769 660.97C834.743 660.537 835.207 659.418 834.824 658.423L832.958 659.142ZM804 672L803.188 670.172C802.466 670.493 802 671.209 802 672C802 672.791 802.466 673.507 803.188 673.828L804 672ZM832.958 684.858L834.824 685.577C835.207 684.582 834.743 683.463 833.769 683.03L832.958 684.858ZM821.574 714.426L819.707 713.708C819.423 714.446 819.6 715.282 820.159 715.841C820.718 716.4 821.554 716.577 822.292 716.293L821.574 714.426ZM851.142 703.042L852.97 702.231C852.537 701.257 851.418 700.793 850.423 701.176L851.142 703.042ZM864 732L862.172 732.812C862.493 733.534 863.209 734 864 734C864.791 734 865.507 733.534 865.828 732.812L864 732ZM876.858 703.042L877.577 701.176C876.582 700.793 875.463 701.257 875.03 702.231L876.858 703.042ZM906.426 714.426L905.708 716.293C906.446 716.577 907.282 716.4 907.841 715.841C908.4 715.282 908.577 714.446 908.293 713.708L906.426 714.426ZM895.042 684.858L894.231 683.03C893.257 683.463 892.793 684.582 893.176 685.577L895.042 684.858ZM924 672L924.812 673.828C925.534 673.507 926 672.791 926 672C926 671.209 925.534 670.493 924.812 670.172L924 672ZM895.042 659.142L893.176 658.423C892.793 659.418 893.257 660.537 894.231 660.97L895.042 659.142ZM906.426 629.574L908.293 630.292C908.577 629.554 908.4 628.718 907.841 628.159C907.282 627.6 906.446 627.423 905.708 627.707L906.426 629.574ZM853.04 698.46L852.274 700.308V700.308L853.04 698.46ZM837.54 682.96L839.388 682.195L837.54 682.96ZM874.96 698.46L874.195 696.612V696.612L874.96 698.46ZM890.46 682.96L892.308 683.726L890.46 682.96ZM890.46 661.04L892.308 660.274L890.46 661.04ZM874.96 645.54L874.195 647.388L874.96 645.54ZM853.04 645.54L852.274 643.692L853.04 645.54ZM837.54 661.04L835.692 660.274L837.54 661.04ZM862.172 612.812L875.03 641.769L878.686 640.146L865.828 611.188L862.172 612.812ZM852.97 641.769L865.828 612.812L862.172 611.188L849.314 640.146L852.97 641.769ZM820.855 631.44L850.423 642.824L851.86 639.091L822.292 627.707L820.855 631.44ZM834.824 658.423L823.44 628.855L819.707 630.292L831.091 659.86L834.824 658.423ZM804.812 673.828L833.769 660.97L832.146 657.314L803.188 670.172L804.812 673.828ZM833.769 683.03L804.812 670.172L803.188 673.828L832.146 686.686L833.769 683.03ZM823.44 715.145L834.824 685.577L831.091 684.14L819.707 713.708L823.44 715.145ZM850.423 701.176L820.855 712.56L822.292 716.293L851.86 704.909L850.423 701.176ZM865.828 731.188L852.97 702.231L849.314 703.854L862.172 732.812L865.828 731.188ZM875.03 702.231L862.172 731.188L865.828 732.812L878.686 703.854L875.03 702.231ZM907.145 712.56L877.577 701.176L876.14 704.909L905.708 716.293L907.145 712.56ZM893.176 685.577L904.56 715.145L908.293 713.708L896.909 684.14L893.176 685.577ZM923.188 670.172L894.231 683.03L895.854 686.686L924.812 673.828L923.188 670.172ZM894.231 660.97L923.188 673.828L924.812 670.172L895.854 657.314L894.231 660.97ZM904.56 628.855L893.176 658.423L896.909 659.86L908.293 630.292L904.56 628.855ZM877.577 642.824L907.145 631.44L905.708 627.707L876.14 639.091L877.577 642.824ZM853.805 696.612C847.278 693.909 842.091 688.722 839.388 682.195L835.692 683.726C838.802 691.233 844.767 697.198 852.274 700.308L853.805 696.612ZM874.195 696.612C867.667 699.316 860.333 699.316 853.805 696.612L852.274 700.308C859.782 703.418 868.218 703.418 875.726 700.308L874.195 696.612ZM888.612 682.195C885.909 688.722 880.722 693.909 874.195 696.612L875.726 700.308C883.233 697.198 889.198 691.233 892.308 683.726L888.612 682.195ZM888.612 661.805C891.316 668.333 891.316 675.667 888.612 682.195L892.308 683.726C895.418 676.218 895.418 667.782 892.308 660.274L888.612 661.805ZM874.195 647.388C880.722 650.091 885.909 655.278 888.612 661.805L892.308 660.274C889.198 652.767 883.233 646.802 875.726 643.692L874.195 647.388ZM853.805 647.388C860.333 644.684 867.667 644.684 874.195 647.388L875.726 643.692C868.218 640.582 859.782 640.582 852.274 643.692L853.805 647.388ZM839.388 661.805C842.091 655.278 847.278 650.091 853.805 647.388L852.274 643.692C844.767 646.802 838.802 652.767 835.692 660.274L839.388 661.805ZM839.388 682.195C836.684 675.667 836.684 668.333 839.388 661.805L835.692 660.274C832.582 667.782 832.582 676.218 835.692 683.726L839.388 682.195Z" fill="#FFA500"/>
<path d="M856.222 690.778C861.202 692.841 866.798 692.841 871.778 690.778C876.758 688.715 880.715 684.758 882.778 679.778C884.841 674.798 884.841 669.202 882.778 664.222C880.715 659.242 876.758 655.285 871.778 653.222C866.798 651.159 861.202 651.159 856.222 653.222C851.242 655.285 847.285 659.242 845.222 664.222C843.159 669.202 843.159 674.798 845.222 679.778C847.285 684.758 851.242 688.715 856.222 690.778Z" fill="#FFD700" stroke="#FFD700" stroke-width="4" stroke-linecap="round" stroke-linejoin="round"/>
</svg>
