<svg viewBox="0 0 1024 768" fill="none" xmlns="http://www.w3.org/2000/svg">
<path d="M424 36L435.94 67.175L466.426 53.5736L452.825 84.0603L484 96L452.825 107.94L466.426 138.426L435.94 124.825L424 156L412.06 124.825L381.574 138.426L395.175 107.94L364 96L395.175 84.0603L381.574 53.5736L412.06 67.175L424 36Z" stroke="#7B61FF" stroke-width="2" stroke-linecap="round" stroke-linejoin="round"/>
<path d="M622.961 151.434L655.433 118.962L655.433 73.0397L622.961 40.568L577.039 40.568L544.567 73.0398L544.567 118.962L577.039 151.434L622.961 151.434Z" stroke="#7B61FF" stroke-width="2" stroke-linecap="round" stroke-linejoin="round"/>
<path d="M512 234L541.849 311.937L618.066 277.934L584.063 354.151L662 384L584.063 413.849L618.066 490.066L541.849 456.063L512 534L482.151 456.063L405.934 490.066L439.937 413.849L362 384L439.937 354.151L405.934 277.934L482.151 311.937L512 234Z" fill="#888888" fill-opacity="0.5" stroke="currentColor" stroke-width="10" stroke-linecap="round" stroke-linejoin="round"/>
<path d="M533.048 434.814L562.813 405.048L562.813 362.953L533.048 333.187L490.952 333.187L461.187 362.953L461.187 405.048L490.952 434.814L533.048 434.814Z" fill="#888888" fill-opacity="0.5" stroke="currentColor" stroke-width="10" stroke-linecap="round" stroke-linejoin="round"/>
<path d="M160 612L171.94 643.175L202.426 629.574L188.825 660.06L220 672L188.825 683.94L202.426 714.426L171.94 700.825L160 732L148.06 700.825L117.574 714.426L131.175 683.94L100 672L131.175 660.06L117.574 629.574L148.06 643.175L160 612Z" stroke="currentColor" stroke-width="2" stroke-linecap="round" stroke-linejoin="round"/>
<path d="M168.419 692.325L180.325 680.419L180.325 663.581L168.419 651.674L151.581 651.674L139.675 663.581L139.675 680.419L151.581 692.325L168.419 692.325Z" stroke="currentColor" stroke-width="2" stroke-linecap="round" stroke-linejoin="round"/>
<path d="M339.735 610.569L340.202 610.391V610.391L339.735 610.569ZM332.265 610.569L332.732 610.748L332.265 610.569ZM321.835 637.802L321.631 638.259C321.756 638.315 321.899 638.316 322.026 638.264C322.153 638.211 322.253 638.109 322.302 637.981L321.835 637.802ZM295.203 625.921L295.407 625.464L295.203 625.921ZM289.921 631.203L289.464 631.407L289.921 631.203ZM301.802 657.835L301.981 658.302C302.109 658.253 302.211 658.153 302.264 658.026C302.316 657.899 302.315 657.756 302.259 657.631L301.802 657.835ZM274.569 668.265L274.748 668.732L274.569 668.265ZM274.569 675.735L274.391 676.202H274.391L274.569 675.735ZM301.802 686.165L302.259 686.369C302.315 686.244 302.316 686.101 302.264 685.974C302.211 685.847 302.109 685.747 301.981 685.698L301.802 686.165ZM289.921 712.797L290.377 713L289.921 712.797ZM290.745 717.255L290.392 717.608H290.392L290.745 717.255ZM295.203 718.079L295.407 718.536L295.203 718.079ZM321.835 706.198L322.302 706.019C322.253 705.891 322.153 705.789 322.026 705.736C321.899 705.684 321.756 705.685 321.631 705.741L321.835 706.198ZM332.265 733.431L332.732 733.252L332.265 733.431ZM339.735 733.431L340.202 733.609L339.735 733.431ZM350.165 706.198L350.369 705.741C350.244 705.685 350.101 705.684 349.974 705.736C349.847 705.789 349.747 705.891 349.698 706.019L350.165 706.198ZM376.797 718.079L376.593 718.536L376.797 718.079ZM381.255 717.255L381.608 717.608L381.255 717.255ZM382.079 712.797L382.536 712.593L382.079 712.797ZM370.198 686.165L370.019 685.698C369.891 685.747 369.789 685.847 369.736 685.974C369.684 686.101 369.685 686.244 369.741 686.369L370.198 686.165ZM397.431 675.735L397.609 676.202L397.431 675.735ZM397.431 668.265L397.252 668.732L397.431 668.265ZM370.198 657.835L369.741 657.631C369.685 657.756 369.684 657.899 369.736 658.026C369.789 658.153 369.891 658.253 370.019 658.302L370.198 657.835ZM382.079 631.203L382.536 631.407L382.079 631.203ZM381.255 626.745L381.608 626.392V626.392L381.255 626.745ZM376.797 625.921L377 626.377L376.797 625.921ZM350.165 637.802L349.698 637.981C349.747 638.109 349.847 638.211 349.974 638.264C350.101 638.316 350.244 638.315 350.369 638.259L350.165 637.802ZM336 623.184L336.467 623.005C336.393 622.812 336.207 622.684 336 622.684C335.793 622.684 335.607 622.812 335.533 623.005L336 623.184ZM327.796 644.606L327.329 644.427L327.796 644.606ZM344.204 644.606L344.671 644.427L344.204 644.606ZM346.409 646.87L346.6 646.409H346.6L346.409 646.87ZM349.569 646.828L349.773 647.285L349.569 646.828ZM370.518 637.482L370.975 637.686C371.059 637.496 371.018 637.275 370.872 637.128C370.725 636.982 370.504 636.941 370.314 637.025L370.518 637.482ZM361.172 658.431L361.629 658.634V658.634L361.172 658.431ZM363.394 663.796L363.573 663.329L363.394 663.796ZM384.816 672L384.995 672.467C385.188 672.393 385.316 672.207 385.316 672C385.316 671.793 385.188 671.607 384.995 671.533L384.816 672ZM363.394 680.204L363.573 680.671L363.394 680.204ZM361.13 682.409L361.591 682.6L361.13 682.409ZM361.172 685.569L361.629 685.366V685.366L361.172 685.569ZM370.518 706.518L370.314 706.975C370.504 707.059 370.725 707.018 370.872 706.872C371.018 706.725 371.059 706.504 370.975 706.314L370.518 706.518ZM349.569 697.172L349.366 697.629H349.366L349.569 697.172ZM346.409 697.13L346.6 697.591L346.409 697.13ZM344.204 699.394L344.671 699.573L344.204 699.394ZM336 720.816L335.533 720.995C335.607 721.188 335.793 721.316 336 721.316C336.207 721.316 336.393 721.188 336.467 720.995L336 720.816ZM327.796 699.394L327.329 699.573L327.796 699.394ZM322.431 697.172L322.634 697.629H322.634L322.431 697.172ZM301.482 706.518L301.025 706.314C300.941 706.504 300.982 706.725 301.128 706.872C301.275 707.018 301.496 707.059 301.686 706.975L301.482 706.518ZM310.828 685.569L311.285 685.773L310.828 685.569ZM310.87 682.409L310.409 682.6V682.6L310.87 682.409ZM308.606 680.204L308.427 680.671L308.606 680.204ZM287.184 672L287.005 671.533C286.812 671.607 286.684 671.793 286.684 672C286.684 672.207 286.812 672.393 287.005 672.467L287.184 672ZM308.606 663.796L308.427 663.329L308.606 663.796ZM310.87 661.591L310.409 661.4L310.87 661.591ZM310.828 658.431L310.371 658.634H310.371L310.828 658.431ZM301.482 637.482L301.686 637.025C301.496 636.941 301.275 636.982 301.128 637.128C300.982 637.275 300.941 637.496 301.025 637.686L301.482 637.482ZM322.431 646.828L322.634 646.371V646.371L322.431 646.828ZM325.591 646.87L325.4 646.409L325.591 646.87ZM324.753 695.154L324.399 695.507L324.753 695.154ZM312.846 683.247L313.2 682.894L312.846 683.247ZM311.675 680.419H312.175H311.675ZM311.675 663.581H311.175H311.675ZM327.581 647.675V648.175V647.675ZM344.419 647.675V647.175V647.675ZM347.247 648.846L346.894 649.2V649.2L347.247 648.846ZM359.154 660.753L359.507 660.399L359.154 660.753ZM342.762 688.325V688.825C342.895 688.825 343.022 688.773 343.116 688.679L342.762 688.325ZM329.238 688.325L328.884 688.679C328.978 688.773 329.105 688.825 329.238 688.825V688.325ZM352.325 678.762L352.679 679.116C352.773 679.022 352.825 678.895 352.825 678.762H352.325ZM352.325 665.238H352.825C352.825 665.105 352.773 664.978 352.679 664.884L352.325 665.238ZM342.762 655.675L343.116 655.321C343.022 655.227 342.895 655.175 342.762 655.175V655.675ZM329.238 655.675V655.175C329.105 655.175 328.978 655.227 328.884 655.321L329.238 655.675ZM319.675 665.238L319.321 664.884C319.227 664.978 319.175 665.105 319.175 665.238H319.675ZM319.675 678.762H319.175C319.175 678.895 319.227 679.022 319.321 679.116L319.675 678.762ZM336 608.5C337.45 608.5 338.75 609.394 339.268 610.748L340.202 610.391C339.536 608.65 337.864 607.5 336 607.5V608.5ZM332.732 610.748C333.25 609.394 334.55 608.5 336 608.5V607.5C334.136 607.5 332.464 608.65 331.798 610.391L332.732 610.748ZM322.302 637.981L332.732 610.748L331.798 610.391L321.368 637.623L322.302 637.981ZM295 626.377L321.631 638.259L322.038 637.345L295.407 625.464L295 626.377ZM291.099 627.099C292.124 626.073 293.675 625.786 295 626.377L295.407 625.464C293.704 624.704 291.71 625.073 290.392 626.392L291.099 627.099ZM290.377 631C289.786 629.675 290.073 628.124 291.099 627.099L290.392 626.392C289.073 627.71 288.704 629.704 289.464 631.407L290.377 631ZM302.259 657.631L290.377 631L289.464 631.407L301.345 658.038L302.259 657.631ZM274.748 668.732L301.981 658.302L301.623 657.368L274.391 667.798L274.748 668.732ZM272.5 672C272.5 670.55 273.394 669.25 274.748 668.732L274.391 667.798C272.65 668.464 271.5 670.136 271.5 672H272.5ZM274.748 675.268C273.394 674.75 272.5 673.45 272.5 672H271.5C271.5 673.864 272.65 675.536 274.391 676.202L274.748 675.268ZM301.981 685.698L274.748 675.268L274.391 676.202L301.623 686.632L301.981 685.698ZM290.377 713L302.259 686.369L301.345 685.962L289.464 712.593L290.377 713ZM291.099 716.901C290.073 715.876 289.786 714.325 290.377 713L289.464 712.593C288.704 714.296 289.073 716.29 290.392 717.608L291.099 716.901ZM295 717.623C293.675 718.214 292.124 717.927 291.099 716.901L290.392 717.608C291.71 718.927 293.704 719.296 295.407 718.536L295 717.623ZM321.631 705.741L295 717.623L295.407 718.536L322.038 706.655L321.631 705.741ZM332.732 733.252L322.302 706.019L321.368 706.377L331.798 733.609L332.732 733.252ZM336 735.5C334.55 735.5 333.25 734.606 332.732 733.252L331.798 733.609C332.464 735.35 334.136 736.5 336 736.5V735.5ZM339.268 733.252C338.75 734.606 337.45 735.5 336 735.5V736.5C337.864 736.5 339.536 735.35 340.202 733.609L339.268 733.252ZM349.698 706.019L339.268 733.252L340.202 733.609L350.632 706.377L349.698 706.019ZM377 717.623L350.369 705.741L349.962 706.655L376.593 718.536L377 717.623ZM380.901 716.901C379.876 717.927 378.325 718.214 377 717.623L376.593 718.536C378.296 719.296 380.29 718.927 381.608 717.608L380.901 716.901ZM381.623 713C382.214 714.325 381.927 715.876 380.901 716.901L381.608 717.608C382.927 716.29 383.296 714.296 382.536 712.593L381.623 713ZM369.741 686.369L381.623 713L382.536 712.593L370.655 685.962L369.741 686.369ZM397.252 675.268L370.019 685.698L370.377 686.632L397.609 676.202L397.252 675.268ZM399.5 672C399.5 673.45 398.606 674.75 397.252 675.268L397.609 676.202C399.35 675.536 400.5 673.864 400.5 672H399.5ZM397.252 668.732C398.606 669.25 399.5 670.55 399.5 672H400.5C400.5 670.136 399.35 668.464 397.609 667.798L397.252 668.732ZM370.019 658.302L397.252 668.732L397.609 667.798L370.377 657.368L370.019 658.302ZM381.623 631L369.741 657.631L370.655 658.038L382.536 631.407L381.623 631ZM380.901 627.099C381.927 628.124 382.214 629.675 381.623 631L382.536 631.407C383.296 629.704 382.927 627.71 381.608 626.392L380.901 627.099ZM377 626.377C378.325 625.786 379.876 626.073 380.901 627.099L381.608 626.392C380.29 625.073 378.296 624.704 376.593 625.464L377 626.377ZM350.369 638.259L377 626.377L376.593 625.464L349.962 637.345L350.369 638.259ZM339.268 610.748L349.698 637.981L350.632 637.623L340.202 610.391L339.268 610.748ZM335.533 623.005L327.329 644.427L328.263 644.784L336.467 623.363L335.533 623.005ZM344.671 644.427L336.467 623.005L335.533 623.363L343.737 644.784L344.671 644.427ZM346.6 646.409C345.713 646.041 345.015 645.324 344.671 644.427L343.737 644.784C344.179 645.938 345.076 646.86 346.218 647.332L346.6 646.409ZM349.366 646.371C348.488 646.763 347.488 646.776 346.6 646.409L346.218 647.332C347.359 647.805 348.645 647.788 349.773 647.285L349.366 646.371ZM370.314 637.025L349.366 646.371L349.773 647.285L370.722 637.938L370.314 637.025ZM361.629 658.634L370.975 637.686L370.062 637.278L360.715 658.227L361.629 658.634ZM361.591 661.4C361.224 660.512 361.237 659.512 361.629 658.634L360.715 658.227C360.212 659.355 360.195 660.641 360.668 661.782L361.591 661.4ZM363.573 663.329C362.676 662.985 361.959 662.287 361.591 661.4L360.668 661.782C361.14 662.924 362.062 663.821 363.216 664.263L363.573 663.329ZM384.995 671.533L363.573 663.329L363.216 664.263L384.637 672.467L384.995 671.533ZM363.573 680.671L384.995 672.467L384.637 671.533L363.216 679.737L363.573 680.671ZM361.591 682.6C361.959 681.713 362.676 681.015 363.573 680.671L363.216 679.737C362.062 680.179 361.14 681.076 360.668 682.218L361.591 682.6ZM361.629 685.366C361.237 684.488 361.224 683.488 361.591 682.6L360.668 682.218C360.195 683.359 360.212 684.645 360.715 685.773L361.629 685.366ZM370.975 706.314L361.629 685.366L360.715 685.773L370.062 706.722L370.975 706.314ZM349.366 697.629L370.314 706.975L370.722 706.062L349.773 696.715L349.366 697.629ZM346.6 697.591C347.488 697.224 348.488 697.237 349.366 697.629L349.773 696.715C348.645 696.212 347.359 696.195 346.218 696.668L346.6 697.591ZM344.671 699.573C345.015 698.676 345.713 697.959 346.6 697.591L346.218 696.668C345.076 697.14 344.179 698.062 343.737 699.216L344.671 699.573ZM336.467 720.995L344.671 699.573L343.737 699.216L335.533 720.637L336.467 720.995ZM327.329 699.573L335.533 720.995L336.467 720.637L328.263 699.216L327.329 699.573ZM325.4 697.591C326.287 697.959 326.985 698.676 327.329 699.573L328.263 699.216C327.821 698.062 326.924 697.14 325.782 696.668L325.4 697.591ZM322.634 697.629C323.512 697.237 324.512 697.224 325.4 697.591L325.782 696.668C324.641 696.195 323.355 696.212 322.227 696.715L322.634 697.629ZM301.686 706.975L322.634 697.629L322.227 696.715L301.278 706.062L301.686 706.975ZM310.371 685.366L301.025 706.314L301.938 706.722L311.285 685.773L310.371 685.366ZM310.409 682.6C310.776 683.488 310.763 684.488 310.371 685.366L311.285 685.773C311.788 684.645 311.805 683.359 311.332 682.218L310.409 682.6ZM308.427 680.671C309.324 681.015 310.041 681.713 310.409 682.6L311.332 682.218C310.86 681.076 309.938 680.179 308.784 679.737L308.427 680.671ZM287.005 672.467L308.427 680.671L308.784 679.737L287.363 671.533L287.005 672.467ZM308.427 663.329L287.005 671.533L287.363 672.467L308.784 664.263L308.427 663.329ZM310.409 661.4C310.041 662.287 309.324 662.985 308.427 663.329L308.784 664.263C309.938 663.821 310.86 662.924 311.332 661.782L310.409 661.4ZM310.371 658.634C310.763 659.512 310.776 660.512 310.409 661.4L311.332 661.782C311.805 660.641 311.788 659.355 311.285 658.227L310.371 658.634ZM301.025 637.686L310.371 658.634L311.285 658.227L301.938 637.278L301.025 637.686ZM322.634 646.371L301.686 637.025L301.278 637.938L322.227 647.285L322.634 646.371ZM325.4 646.409C324.512 646.776 323.512 646.763 322.634 646.371L322.227 647.285C323.355 647.788 324.641 647.805 325.782 647.332L325.4 646.409ZM327.329 644.427C326.985 645.324 326.287 646.041 325.4 646.409L325.782 647.332C326.924 646.86 327.821 645.938 328.263 644.784L327.329 644.427ZM344.419 696.825C345.613 696.825 346.757 696.351 347.601 695.507L346.894 694.8C346.238 695.457 345.347 695.825 344.419 695.825V696.825ZM327.581 696.825H344.419V695.825H327.581V696.825ZM324.399 695.507C325.243 696.351 326.387 696.825 327.581 696.825V695.825C326.653 695.825 325.762 695.457 325.106 694.8L324.399 695.507ZM312.493 683.601L324.399 695.507L325.106 694.8L313.2 682.894L312.493 683.601ZM311.175 680.419C311.175 681.613 311.649 682.757 312.493 683.601L313.2 682.894C312.543 682.238 312.175 681.347 312.175 680.419H311.175ZM311.175 663.581L311.175 680.419H312.175L312.175 663.581H311.175ZM312.493 660.399C311.649 661.243 311.175 662.387 311.175 663.581H312.175C312.175 662.653 312.543 661.762 313.2 661.106L312.493 660.399ZM324.399 648.493L312.493 660.399L313.2 661.106L325.106 649.2L324.399 648.493ZM327.581 647.175C326.387 647.175 325.243 647.649 324.399 648.493L325.106 649.2C325.762 648.543 326.653 648.175 327.581 648.175V647.175ZM344.419 647.175L327.581 647.175V648.175L344.419 648.175V647.175ZM347.601 648.493C346.757 647.649 345.613 647.175 344.419 647.175V648.175C345.347 648.175 346.238 648.543 346.894 649.2L347.601 648.493ZM359.507 660.399L347.601 648.493L346.894 649.2L358.8 661.106L359.507 660.399ZM360.825 663.581C360.825 662.387 360.351 661.243 359.507 660.399L358.8 661.106C359.457 661.762 359.825 662.653 359.825 663.581H360.825ZM360.825 680.419V663.581H359.825V680.419H360.825ZM359.507 683.601C360.351 682.757 360.825 681.613 360.825 680.419H359.825C359.825 681.347 359.457 682.238 358.8 682.894L359.507 683.601ZM347.601 695.507L359.507 683.601L358.8 682.894L346.894 694.8L347.601 695.507ZM342.762 687.825H329.238V688.825H342.762V687.825ZM351.972 678.409L342.409 687.972L343.116 688.679L352.679 679.116L351.972 678.409ZM351.825 665.238V678.762H352.825V665.238H351.825ZM342.409 656.028L351.972 665.591L352.679 664.884L343.116 655.321L342.409 656.028ZM329.238 656.175L342.762 656.175V655.175L329.238 655.175V656.175ZM320.028 665.591L329.591 656.028L328.884 655.321L319.321 664.884L320.028 665.591ZM320.175 678.762V665.238H319.175V678.762H320.175ZM329.591 687.972L320.028 678.409L319.321 679.116L328.884 688.679L329.591 687.972Z" fill="currentColor"/>
<path fill-rule="evenodd" clip-rule="evenodd" d="M523.94 643.175L512 612L500.06 643.175L469.574 629.574L483.175 660.06L452 672L483.175 683.94L469.574 714.426L500.06 700.825L512 732L523.94 700.825L554.426 714.426L540.825 683.94L572 672L540.825 660.06L554.426 629.574L523.94 643.175ZM532.325 680.419L520.419 692.325H503.581L491.675 680.419V663.581L503.581 651.675L520.419 651.675L532.325 663.581V680.419Z" fill="currentColor"/>
<path d="M512 612L513.868 611.285C513.571 610.511 512.829 610 512 610C511.171 610 510.429 610.511 510.132 611.285L512 612ZM523.94 643.175L522.072 643.89C522.268 644.403 522.667 644.813 523.174 645.023C523.682 645.233 524.253 645.225 524.755 645.001L523.94 643.175ZM500.06 643.175L499.245 645.001C499.747 645.225 500.318 645.233 500.826 645.023C501.333 644.813 501.732 644.403 501.928 643.89L500.06 643.175ZM469.574 629.574L470.388 627.747C469.632 627.41 468.745 627.573 468.159 628.159C467.573 628.745 467.41 629.632 467.747 630.388L469.574 629.574ZM483.175 660.06L483.89 661.928C484.403 661.732 484.813 661.333 485.023 660.826C485.233 660.318 485.225 659.747 485.001 659.245L483.175 660.06ZM452 672L451.285 670.132C450.511 670.429 450 671.171 450 672C450 672.829 450.511 673.571 451.285 673.868L452 672ZM483.175 683.94L485.001 684.755C485.225 684.253 485.233 683.682 485.023 683.174C484.813 682.667 484.403 682.268 483.89 682.072L483.175 683.94ZM469.574 714.426L467.747 713.612C467.41 714.368 467.573 715.255 468.159 715.841C468.745 716.427 469.632 716.59 470.388 716.253L469.574 714.426ZM500.06 700.825L501.928 700.11C501.732 699.597 501.333 699.187 500.826 698.977C500.318 698.767 499.747 698.775 499.245 698.999L500.06 700.825ZM512 732L510.132 732.715C510.429 733.489 511.171 734 512 734C512.829 734 513.571 733.489 513.868 732.715L512 732ZM523.94 700.825L524.755 698.999C524.253 698.775 523.682 698.767 523.174 698.977C522.667 699.187 522.268 699.597 522.072 700.11L523.94 700.825ZM554.426 714.426L553.612 716.253C554.368 716.59 555.255 716.427 555.841 715.841C556.427 715.255 556.59 714.368 556.253 713.612L554.426 714.426ZM540.825 683.94L540.11 682.072C539.597 682.268 539.187 682.667 538.977 683.174C538.767 683.682 538.775 684.253 538.999 684.755L540.825 683.94ZM572 672L572.715 673.868C573.489 673.571 574 672.829 574 672C574 671.171 573.489 670.429 572.715 670.132L572 672ZM540.825 660.06L538.999 659.245C538.775 659.747 538.767 660.318 538.977 660.826C539.187 661.333 539.597 661.732 540.11 661.928L540.825 660.06ZM554.426 629.574L556.253 630.388C556.59 629.632 556.427 628.745 555.841 628.159C555.255 627.573 554.368 627.41 553.612 627.747L554.426 629.574ZM520.419 692.325V694.325C520.949 694.325 521.458 694.115 521.833 693.74L520.419 692.325ZM532.325 680.419L533.74 681.833C534.115 681.458 534.325 680.949 534.325 680.419H532.325ZM503.581 692.325L502.167 693.74C502.542 694.115 503.051 694.325 503.581 694.325V692.325ZM491.675 680.419H489.675C489.675 680.949 489.885 681.458 490.26 681.833L491.675 680.419ZM491.675 663.581L490.26 662.167C489.885 662.542 489.675 663.051 489.675 663.581H491.675ZM503.581 651.675V649.675C503.051 649.675 502.542 649.885 502.167 650.26L503.581 651.675ZM520.419 651.675L521.833 650.26C521.458 649.885 520.949 649.675 520.419 649.675V651.675ZM532.325 663.581H534.325C534.325 663.051 534.115 662.542 533.74 662.167L532.325 663.581ZM510.132 612.715L522.072 643.89L525.807 642.46L513.868 611.285L510.132 612.715ZM501.928 643.89L513.868 612.715L510.132 611.285L498.193 642.46L501.928 643.89ZM468.759 631.4L499.245 645.001L500.875 641.348L470.388 627.747L468.759 631.4ZM485.001 659.245L471.4 628.759L467.747 630.388L481.348 660.875L485.001 659.245ZM452.715 673.868L483.89 661.928L482.46 658.193L451.285 670.132L452.715 673.868ZM483.89 682.072L452.715 670.132L451.285 673.868L482.46 685.807L483.89 682.072ZM471.4 715.241L485.001 684.755L481.348 683.125L467.747 713.612L471.4 715.241ZM499.245 698.999L468.759 712.6L470.388 716.253L500.875 702.652L499.245 698.999ZM513.868 731.285L501.928 700.11L498.193 701.54L510.132 732.715L513.868 731.285ZM522.072 700.11L510.132 731.285L513.868 732.715L525.807 701.54L522.072 700.11ZM555.241 712.6L524.755 698.999L523.125 702.652L553.612 716.253L555.241 712.6ZM538.999 684.755L552.6 715.241L556.253 713.612L542.652 683.125L538.999 684.755ZM571.285 670.132L540.11 682.072L541.54 685.807L572.715 673.868L571.285 670.132ZM540.11 661.928L571.285 673.868L572.715 670.132L541.54 658.193L540.11 661.928ZM552.6 628.759L538.999 659.245L542.652 660.875L556.253 630.388L552.6 628.759ZM524.755 645.001L555.241 631.4L553.612 627.747L523.125 641.348L524.755 645.001ZM521.833 693.74L533.74 681.833L530.911 679.005L519.005 690.911L521.833 693.74ZM503.581 694.325H520.419V690.325H503.581V694.325ZM490.26 681.833L502.167 693.74L504.995 690.911L493.089 679.005L490.26 681.833ZM489.675 663.581V680.419H493.675V663.581H489.675ZM502.167 650.26L490.26 662.167L493.089 664.995L504.995 653.089L502.167 650.26ZM520.419 649.675L503.581 649.675V653.675L520.419 653.675V649.675ZM533.74 662.167L521.833 650.26L519.005 653.089L530.911 664.995L533.74 662.167ZM534.325 680.419V663.581H530.325V680.419H534.325Z" fill="currentColor"/>
<path opacity="0.25" d="M688 612L699.94 643.175L730.426 629.574L716.825 660.06L748 672L716.825 683.94L730.426 714.426L699.94 700.825L688 732L676.06 700.825L645.574 714.426L659.175 683.94L628 672L659.175 660.06L645.574 629.574L676.06 643.175L688 612Z" fill="currentColor" stroke="currentColor" stroke-width="4" stroke-linecap="round" stroke-linejoin="round"/>
<path d="M696.419 692.325L708.325 680.419L708.325 663.581L696.419 651.674L679.581 651.674L667.675 663.581L667.675 680.419L679.581 692.325L696.419 692.325Z" fill="currentColor" stroke="currentColor" stroke-width="4" stroke-linecap="round" stroke-linejoin="round"/>
<path d="M864 612L875.94 643.175L906.426 629.574L892.825 660.06L924 672L892.825 683.94L906.426 714.426L875.94 700.825L864 732L852.06 700.825L821.574 714.426L835.175 683.94L804 672L835.175 660.06L821.574 629.574L852.06 643.175L864 612Z" fill="#FFA500" stroke="#FFA500" stroke-width="4" stroke-linecap="round" stroke-linejoin="round"/>
<path d="M872.419 692.325L884.325 680.419L884.325 663.581L872.419 651.674L855.581 651.674L843.675 663.581L843.675 680.419L855.581 692.325L872.419 692.325Z" fill="#FFD700" stroke="#FFD700" stroke-width="4" stroke-linecap="round" stroke-linejoin="round"/>
</svg>
