<svg viewBox="0 0 1024 768" fill="none" xmlns="http://www.w3.org/2000/svg">
<path d="M424 36L437.576 82.4235L484 96L437.576 109.576L424 156L410.424 109.576L364 96L410.424 82.4235L424 36Z" stroke="#7B61FF" stroke-width="2" stroke-linecap="round" stroke-linejoin="round"/>
<path d="M578.787 147.213C592.369 152.839 607.631 152.839 621.213 147.213V147.213C634.796 141.587 645.587 130.796 651.213 117.213V117.213C656.839 103.631 656.839 88.3694 651.213 74.7868V74.7868C645.587 61.2042 634.796 50.4129 621.213 44.7868V44.7868C607.631 39.1607 592.369 39.1607 578.787 44.7868V44.7868C565.204 50.4129 554.413 61.2042 548.787 74.7868V74.7868C543.161 88.3694 543.161 103.631 548.787 117.213V117.213C554.413 130.796 565.204 141.587 578.787 147.213V147.213Z" stroke="#7B61FF" stroke-width="2" stroke-linecap="round" stroke-linejoin="round"/>
<path fill-rule="evenodd" clip-rule="evenodd" d="M538.133 243.203C520.861 239.997 503.139 239.997 485.866 243.203L475.283 279.391C473.365 280.064 471.461 280.792 469.573 281.574C442.408 292.826 420.825 314.409 409.573 341.574C408.791 343.461 408.064 345.365 407.39 347.283L371.203 357.866C367.997 375.139 367.997 392.861 371.203 410.134L407.39 420.717C408.064 422.635 408.791 424.539 409.573 426.427C420.825 453.592 442.408 475.174 469.573 486.427C471.461 487.209 473.365 487.936 475.283 488.609L485.866 524.797C503.139 528.003 520.861 528.003 538.133 524.797L548.717 488.609C550.634 487.936 552.538 487.208 554.426 486.427C581.591 475.174 603.174 453.592 614.426 426.427C615.208 424.539 615.936 422.635 616.609 420.717L652.797 410.134C656.002 392.861 656.002 375.139 652.797 357.866L616.609 347.283C615.936 345.365 615.208 343.461 614.426 341.574C603.174 314.409 581.591 292.826 554.426 281.574C552.538 280.792 550.634 280.064 548.717 279.391L538.133 243.203Z" fill="#888888" fill-opacity="0.5"/>
<path d="M485.866 243.203L484.953 238.287C483.099 238.631 481.596 239.99 481.067 241.8L485.866 243.203ZM538.133 243.203L542.932 241.8C542.403 239.99 540.9 238.631 539.046 238.287L538.133 243.203ZM475.283 279.391L476.939 284.109C478.459 283.575 479.629 282.341 480.082 280.794L475.283 279.391ZM469.573 281.574L471.487 286.193L469.573 281.574ZM409.573 341.574L404.954 339.66L409.573 341.574ZM407.39 347.283L408.794 352.082C410.341 351.63 411.575 350.46 412.108 348.939L407.39 347.283ZM371.203 357.866L369.799 353.067C367.989 353.597 366.631 355.1 366.287 356.954L371.203 357.866ZM371.203 410.134L366.287 411.046C366.631 412.901 367.989 414.404 369.799 414.933L371.203 410.134ZM407.39 420.717L412.108 419.061C411.575 417.54 410.341 416.37 408.794 415.918L407.39 420.717ZM409.573 426.427L404.954 428.34H404.954L409.573 426.427ZM469.573 486.427L467.66 491.046H467.66L469.573 486.427ZM475.283 488.609L480.082 487.206C479.629 485.659 478.459 484.425 476.939 483.892L475.283 488.609ZM485.866 524.797L481.067 526.201C481.596 528.011 483.099 529.369 484.953 529.713L485.866 524.797ZM538.133 524.797L539.046 529.713C540.9 529.369 542.403 528.011 542.932 526.201L538.133 524.797ZM548.717 488.609L547.06 483.892C545.54 484.425 544.37 485.659 543.918 487.206L548.717 488.609ZM554.426 486.427L552.513 481.807L554.426 486.427ZM614.426 426.427L609.807 424.513L614.426 426.427ZM616.609 420.717L615.205 415.918C613.659 416.37 612.425 417.54 611.891 419.061L616.609 420.717ZM652.797 410.134L654.2 414.933C656.01 414.404 657.369 412.901 657.713 411.046L652.797 410.134ZM652.797 357.866L657.713 356.954C657.369 355.1 656.01 353.597 654.2 353.067L652.797 357.866ZM616.609 347.283L611.891 348.939C612.425 350.46 613.659 351.63 615.205 352.082L616.609 347.283ZM614.426 341.574L609.807 343.487V343.487L614.426 341.574ZM554.426 281.574L556.339 276.954L554.426 281.574ZM548.717 279.391L543.918 280.794C544.37 282.341 545.54 283.575 547.06 284.109L548.717 279.391ZM486.778 248.119C503.448 245.025 520.551 245.025 537.221 248.119L539.046 238.287C521.17 234.969 502.829 234.969 484.953 238.287L486.778 248.119ZM481.067 241.8L470.484 277.988L480.082 280.794L490.665 244.607L481.067 241.8ZM473.627 274.673C471.622 275.377 469.633 276.137 467.66 276.954L471.487 286.193C473.289 285.446 475.107 284.752 476.939 284.109L473.627 274.673ZM467.66 276.954C439.27 288.714 416.713 311.27 404.954 339.66L414.193 343.487C424.937 317.547 445.547 296.938 471.487 286.193L467.66 276.954ZM404.954 339.66C404.137 341.633 403.376 343.623 402.673 345.627L412.108 348.939C412.751 347.108 413.446 345.29 414.193 343.487L404.954 339.66ZM405.987 342.484L369.799 353.067L372.606 362.665L408.794 352.082L405.987 342.484ZM376.119 409.222C373.025 392.552 373.025 375.448 376.119 358.779L366.287 356.954C362.969 374.83 362.969 393.17 366.287 411.046L376.119 409.222ZM369.799 414.933L405.987 425.516L408.794 415.918L372.606 405.335L369.799 414.933ZM402.673 422.373C403.376 424.378 404.137 426.367 404.954 428.34L414.193 424.513C413.446 422.71 412.751 420.892 412.108 419.061L402.673 422.373ZM404.954 428.34C416.713 456.73 439.27 479.286 467.66 491.046L471.487 481.807C445.547 471.062 424.937 450.453 414.193 424.513L404.954 428.34ZM467.66 491.046C469.633 491.863 471.622 492.624 473.627 493.327L476.939 483.892C475.107 483.249 473.289 482.554 471.487 481.807L467.66 491.046ZM470.484 490.013L481.067 526.201L490.665 523.394L480.082 487.206L470.484 490.013ZM537.221 519.881C520.551 522.975 503.448 522.975 486.778 519.881L484.953 529.713C502.829 533.031 521.17 533.031 539.046 529.713L537.221 519.881ZM542.932 526.201L553.516 490.013L543.918 487.206L533.334 523.394L542.932 526.201ZM550.373 493.327C552.377 492.623 554.367 491.863 556.339 491.046L552.513 481.807C550.71 482.554 548.892 483.249 547.06 483.892L550.373 493.327ZM556.339 491.046C584.73 479.286 607.286 456.73 619.045 428.34L609.807 424.513C599.062 450.453 578.453 471.062 552.513 481.807L556.339 491.046ZM619.045 428.34C619.863 426.367 620.623 424.378 621.327 422.373L611.891 419.061C611.248 420.892 610.553 422.71 609.807 424.513L619.045 428.34ZM618.012 425.516L654.2 414.933L651.393 405.335L615.205 415.918L618.012 425.516ZM647.881 358.779C650.974 375.448 650.974 392.552 647.881 409.222L657.713 411.046C661.03 393.17 661.03 374.83 657.713 356.954L647.881 358.779ZM654.2 353.067L618.012 342.484L615.205 352.082L651.393 362.665L654.2 353.067ZM621.327 345.627C620.623 343.623 619.863 341.633 619.045 339.66L609.807 343.487C610.553 345.29 611.248 347.108 611.891 348.939L621.327 345.627ZM619.045 339.66C607.286 311.27 584.73 288.714 556.339 276.954L552.513 286.193C578.453 296.938 599.062 317.547 609.807 343.487L619.045 339.66ZM556.339 276.954C554.367 276.137 552.377 275.377 550.373 274.673L547.06 284.109C548.892 284.752 550.71 285.446 552.513 286.193L556.339 276.954ZM553.516 277.988L542.932 241.8L533.335 244.607L543.918 280.794L553.516 277.988Z" fill="currentColor"/>
<path d="M489.019 439.481C503.734 445.576 520.267 445.576 534.981 439.481C549.695 433.386 561.386 421.695 567.481 406.981C573.576 392.266 573.576 375.733 567.481 361.019C561.386 346.305 549.695 334.614 534.981 328.519C520.267 322.424 503.734 322.424 489.019 328.519C474.305 334.614 462.614 346.305 456.519 361.019C450.424 375.733 450.424 392.266 456.519 406.981C462.614 421.695 474.305 433.386 489.019 439.481Z" fill="#888888" fill-opacity="0.5" stroke="currentColor" stroke-width="10" stroke-linecap="round" stroke-linejoin="round"/>
<path d="M149.546 615.681L149.364 614.698C148.993 614.767 148.692 615.039 148.586 615.401L149.546 615.681ZM170.453 615.681L171.413 615.401C171.307 615.039 171.007 614.767 170.636 614.698L170.453 615.681ZM145.313 630.157L145.644 631.1C145.948 630.993 146.182 630.747 146.273 630.437L145.313 630.157ZM143.029 631.03L142.647 630.106L143.029 631.03ZM119.029 655.03L118.105 654.647L119.029 655.03ZM118.156 657.314L118.437 658.273C118.746 658.183 118.993 657.949 119.1 657.645L118.156 657.314ZM103.681 661.547L103.4 660.587C103.038 660.693 102.767 660.993 102.698 661.364L103.681 661.547ZM103.681 682.454L102.698 682.636C102.767 683.007 103.038 683.308 103.4 683.414L103.681 682.454ZM118.156 686.687L119.1 686.356C118.993 686.052 118.746 685.818 118.437 685.727L118.156 686.687ZM119.029 688.971L118.105 689.354L119.029 688.971ZM143.029 712.971L143.412 712.047H143.412L143.029 712.971ZM145.313 713.844L146.273 713.563C146.182 713.254 145.948 713.007 145.644 712.9L145.313 713.844ZM149.546 728.319L148.586 728.6C148.692 728.962 148.993 729.233 149.364 729.302L149.546 728.319ZM170.453 728.319L170.636 729.302C171.007 729.233 171.307 728.962 171.413 728.6L170.453 728.319ZM174.687 713.844L174.355 712.9C174.051 713.007 173.817 713.254 173.727 713.563L174.687 713.844ZM176.97 712.971L177.353 713.895L176.97 712.971ZM200.97 688.971L201.894 689.354L200.97 688.971ZM201.843 686.687L201.563 685.727C201.253 685.818 201.007 686.052 200.9 686.356L201.843 686.687ZM216.319 682.454L216.599 683.414C216.961 683.308 217.233 683.007 217.302 682.636L216.319 682.454ZM216.319 661.547L217.302 661.364C217.233 660.993 216.961 660.693 216.599 660.587L216.319 661.547ZM201.843 657.314L200.9 657.645C201.007 657.949 201.253 658.183 201.563 658.273L201.843 657.314ZM200.97 655.03L200.046 655.412L200.97 655.03ZM176.97 631.03L176.588 631.954L176.97 631.03ZM174.687 630.157L173.727 630.437C173.817 630.747 174.051 630.993 174.355 631.1L174.687 630.157ZM149.729 616.665C156.517 615.405 163.482 615.405 170.271 616.665L170.636 614.698C163.606 613.394 156.394 613.394 149.364 614.698L149.729 616.665ZM148.586 615.401L144.353 629.876L146.273 630.437L150.506 615.962L148.586 615.401ZM144.982 629.213C144.197 629.488 143.419 629.786 142.647 630.106L143.412 631.954C144.15 631.648 144.894 631.363 145.644 631.1L144.982 629.213ZM142.647 630.106C131.535 634.708 122.708 643.536 118.105 654.647L119.953 655.412C124.352 644.791 132.791 636.353 143.412 631.954L142.647 630.106ZM118.105 654.647C117.786 655.419 117.488 656.198 117.213 656.982L119.1 657.645C119.363 656.895 119.647 656.15 119.953 655.412L118.105 654.647ZM117.875 656.354L103.4 660.587L103.962 662.507L118.437 658.273L117.875 656.354ZM104.664 682.271C103.404 675.483 103.404 668.518 104.664 661.729L102.698 661.364C101.393 668.394 101.393 675.607 102.698 682.636L104.664 682.271ZM103.4 683.414L117.875 687.647L118.437 685.727L103.962 681.494L103.4 683.414ZM117.213 687.018C117.488 687.803 117.786 688.581 118.105 689.354L119.953 688.588C119.647 687.85 119.363 687.106 119.1 686.356L117.213 687.018ZM118.105 689.354C122.708 700.465 131.535 709.292 142.647 713.895L143.412 712.047C132.791 707.648 124.352 699.209 119.953 688.588L118.105 689.354ZM142.647 713.895C143.419 714.215 144.197 714.512 144.982 714.787L145.644 712.9C144.894 712.637 144.15 712.353 143.412 712.047L142.647 713.895ZM144.353 714.125L148.586 728.6L150.506 728.038L146.273 713.563L144.353 714.125ZM170.271 727.336C163.482 728.596 156.517 728.596 149.729 727.336L149.364 729.302C156.394 730.607 163.606 730.607 170.636 729.302L170.271 727.336ZM171.413 728.6L175.646 714.125L173.727 713.563L169.493 728.038L171.413 728.6ZM175.018 714.787C175.802 714.512 176.581 714.215 177.353 713.895L176.588 712.047C175.85 712.353 175.105 712.637 174.355 712.9L175.018 714.787ZM177.353 713.895C188.464 709.292 197.292 700.465 201.894 689.354L200.046 688.588C195.647 699.209 187.209 707.648 176.588 712.047L177.353 713.895ZM201.894 689.354C202.214 688.581 202.512 687.803 202.787 687.018L200.9 686.356C200.637 687.106 200.352 687.85 200.046 688.588L201.894 689.354ZM202.124 687.647L216.599 683.414L216.038 681.494L201.563 685.727L202.124 687.647ZM215.335 661.729C216.595 668.518 216.595 675.483 215.335 682.271L217.302 682.636C218.606 675.607 218.606 668.394 217.302 661.364L215.335 661.729ZM216.599 660.587L202.124 656.354L201.563 658.273L216.038 662.507L216.599 660.587ZM202.787 656.982C202.512 656.198 202.214 655.419 201.894 654.647L200.046 655.412C200.352 656.15 200.637 656.895 200.9 657.645L202.787 656.982ZM201.894 654.647C197.292 643.536 188.464 634.708 177.353 630.106L176.588 631.954C187.209 636.353 195.647 644.791 200.046 655.412L201.894 654.647ZM177.353 630.106C176.581 629.786 175.802 629.488 175.018 629.213L174.355 631.1C175.105 631.363 175.85 631.648 176.588 631.954L177.353 630.106ZM175.646 629.876L171.413 615.401L169.493 615.962L173.727 630.437L175.646 629.876Z" fill="currentColor"/>
<path d="M150.808 694.192C156.693 696.63 163.307 696.63 169.192 694.192V694.192C175.078 691.754 179.754 687.078 182.192 681.192V681.192C184.63 675.307 184.63 668.693 182.192 662.808V662.808C179.754 656.922 175.078 652.246 169.192 649.808V649.808C163.307 647.37 156.693 647.37 150.808 649.808V649.808C144.922 652.246 140.246 656.922 137.808 662.808V662.808C135.37 668.693 135.37 675.307 137.808 681.192V681.192C140.246 687.078 144.922 691.754 150.808 694.192V694.192Z" stroke="currentColor" stroke-width="2" stroke-linecap="round" stroke-linejoin="round"/>
<path d="M291.334 653.499C296.241 641.653 305.652 632.241 317.498 627.334C317.677 627.26 317.856 627.187 318.035 627.116L321.707 614.559C322.131 613.111 323.333 612.024 324.816 611.749C332.208 610.377 339.792 610.377 347.183 611.749C348.667 612.024 349.869 613.111 350.292 614.559L353.965 627.116C354.144 627.187 354.323 627.26 354.501 627.334C366.347 632.241 375.759 641.653 380.666 653.499C380.74 653.677 380.813 653.856 380.884 654.035L393.441 657.708C394.889 658.131 395.976 659.333 396.251 660.817C397.623 668.208 397.623 675.792 396.251 683.184C395.976 684.667 394.889 685.869 393.441 686.293L380.884 689.965C380.813 690.144 380.74 690.323 380.666 690.502C375.759 702.348 366.347 711.759 354.501 716.666C354.323 716.74 354.144 716.813 353.965 716.885L350.292 729.442C349.869 730.89 348.667 731.977 347.183 732.252C339.792 733.624 332.208 733.624 324.816 732.252C323.333 731.977 322.131 730.89 321.707 729.442L318.035 716.885C317.856 716.813 317.677 716.74 317.498 716.666C305.652 711.759 296.241 702.348 291.334 690.502C291.26 690.323 291.187 690.144 291.115 689.965L278.558 686.293C277.11 685.869 276.023 684.667 275.748 683.184C274.376 675.792 274.376 668.208 275.748 660.817C276.023 659.333 277.11 658.131 278.558 657.708L291.115 654.035C291.187 653.856 291.26 653.677 291.334 653.499ZM291.334 653.499L292.002 653.776M328.677 619.225L325.152 631.279C324.79 632.517 323.854 633.504 322.638 633.931C321.94 634.176 321.247 634.441 320.56 634.725C310.674 638.82 302.82 646.674 298.725 656.56C298.44 657.248 298.175 657.94 297.93 658.638C297.503 659.855 296.516 660.791 295.279 661.153L283.225 664.678C282.551 669.536 282.551 674.465 283.225 679.323L295.279 682.848C296.516 683.21 297.503 684.146 297.93 685.362C298.175 686.06 298.44 686.753 298.725 687.44C302.666 696.956 310.091 704.59 319.458 708.8C319.823 708.964 320.19 709.122 320.56 709.275C321.247 709.56 321.94 709.825 322.638 710.07C323.854 710.497 324.79 711.484 325.152 712.721L328.677 724.775C333.535 725.449 338.464 725.449 343.322 724.775L346.847 712.721C347.209 711.484 348.145 710.497 349.362 710.07C350.06 709.825 350.753 709.56 351.44 709.275C361.326 705.18 369.18 697.326 373.275 687.44C373.559 686.753 373.824 686.06 374.069 685.362C374.496 684.146 375.483 683.21 376.721 682.848L388.775 679.323C389.449 674.465 389.449 669.536 388.775 664.678L376.721 661.153C375.483 660.791 374.496 659.855 374.069 658.638C373.824 657.94 373.559 657.248 373.275 656.56C369.18 646.674 361.326 638.82 351.44 634.725C350.753 634.441 350.06 634.176 349.362 633.931C348.145 633.504 347.209 632.517 346.847 631.279L343.322 619.225C338.464 618.551 333.535 618.551 328.677 619.225ZM325.277 697.888C332.143 700.732 339.857 700.732 346.723 697.888C353.589 695.044 359.044 689.589 361.888 682.723C364.732 675.857 364.732 668.143 361.888 661.277C359.044 654.411 353.589 648.956 346.723 646.112C340.076 643.359 332.635 643.271 325.937 645.848C325.716 645.933 325.496 646.021 325.277 646.112C318.411 648.956 312.956 654.411 310.112 661.277C307.268 668.143 307.268 675.857 310.112 682.723C312.308 688.026 316.063 692.488 320.822 695.554C322.224 696.458 323.714 697.241 325.277 697.888ZM343.661 690.497C338.756 692.529 333.244 692.529 328.338 690.497C325.863 689.472 323.645 687.972 321.794 686.108C319.975 684.276 318.51 682.093 317.503 679.662C315.471 674.756 315.471 669.244 317.503 664.339C319.043 660.62 321.655 657.481 324.965 655.295C326.022 654.596 327.151 653.995 328.338 653.503C333.244 651.471 338.756 651.471 343.661 653.503C348.567 655.535 352.465 659.433 354.497 664.339C356.529 669.244 356.529 674.756 354.497 679.662C352.465 684.568 348.567 688.465 343.661 690.497Z" stroke="currentColor" stroke-linecap="round" stroke-linejoin="round"/>
<path fill-rule="evenodd" clip-rule="evenodd" d="M501.546 615.681C508.455 614.399 515.544 614.399 522.453 615.681L526.687 630.157C527.454 630.426 528.215 630.717 528.97 631.03C539.836 635.531 548.469 644.164 552.97 655.03C553.283 655.785 553.574 656.546 553.843 657.314L568.319 661.547C569.601 668.456 569.601 675.545 568.319 682.454L553.843 686.687C553.574 687.454 553.283 688.216 552.97 688.971C548.469 699.837 539.836 708.47 528.97 712.971C528.215 713.284 527.454 713.575 526.687 713.844L522.453 728.319C515.544 729.601 508.455 729.601 501.546 728.319L497.313 713.844C496.546 713.575 495.784 713.284 495.029 712.971C484.163 708.47 475.53 699.837 471.029 688.971C470.716 688.216 470.425 687.454 470.156 686.687L455.681 682.454C454.399 675.545 454.399 668.456 455.681 661.547L470.156 657.314C470.425 656.546 470.716 655.785 471.029 655.03C475.53 644.164 484.163 635.531 495.029 631.03C495.784 630.717 496.546 630.426 497.313 630.157L501.546 615.681ZM521.192 694.193C515.306 696.631 508.693 696.631 502.807 694.193C496.922 691.755 492.245 687.078 489.807 681.193C487.369 675.307 487.369 668.694 489.807 662.808C492.245 656.922 496.922 652.246 502.807 649.808C508.693 647.37 515.306 647.37 521.192 649.808C527.078 652.246 531.754 656.922 534.192 662.808C536.63 668.694 536.63 675.307 534.192 681.193C531.754 687.078 527.078 691.755 521.192 694.193Z" fill="currentColor"/>
<path d="M522.453 615.681L524.373 615.12C524.161 614.396 523.56 613.853 522.818 613.715L522.453 615.681ZM501.546 615.681L501.181 613.715C500.44 613.853 499.838 614.396 499.627 615.12L501.546 615.681ZM526.687 630.157L524.767 630.718C524.948 631.337 525.416 631.83 526.024 632.044L526.687 630.157ZM528.97 631.03L528.205 632.877V632.877L528.97 631.03ZM552.97 655.03L551.123 655.795V655.795L552.97 655.03ZM553.843 657.314L551.956 657.976C552.17 658.584 552.663 659.052 553.282 659.233L553.843 657.314ZM568.319 661.547L570.285 661.182C570.147 660.44 569.604 659.839 568.88 659.627L568.319 661.547ZM568.319 682.454L568.88 684.373C569.604 684.162 570.147 683.56 570.285 682.819L568.319 682.454ZM553.843 686.687L553.282 684.767C552.663 684.948 552.17 685.416 551.956 686.025L553.843 686.687ZM552.97 688.971L554.818 689.736H554.818L552.97 688.971ZM528.97 712.971L529.736 714.819V714.819L528.97 712.971ZM526.687 713.844L526.024 711.957C525.416 712.17 524.948 712.664 524.767 713.283L526.687 713.844ZM522.453 728.319L522.818 730.285C523.56 730.148 524.161 729.605 524.373 728.88L522.453 728.319ZM501.546 728.319L499.627 728.88C499.838 729.605 500.44 730.148 501.181 730.285L501.546 728.319ZM497.313 713.844L499.233 713.283C499.052 712.664 498.584 712.17 497.975 711.957L497.313 713.844ZM495.029 712.971L495.795 711.123H495.795L495.029 712.971ZM471.029 688.971L469.181 689.736L471.029 688.971ZM470.156 686.687L472.043 686.025C471.83 685.416 471.336 684.948 470.717 684.767L470.156 686.687ZM455.681 682.454L453.715 682.819C453.852 683.56 454.396 684.162 455.12 684.373L455.681 682.454ZM455.681 661.547L455.12 659.627C454.396 659.839 453.852 660.44 453.715 661.182L455.681 661.547ZM470.156 657.314L470.717 659.233C471.336 659.052 471.83 658.584 472.043 657.976L470.156 657.314ZM471.029 655.03L469.181 654.264H469.181L471.029 655.03ZM495.029 631.03L494.264 629.182L494.264 629.182L495.029 631.03ZM497.313 630.157L497.975 632.044C498.584 631.83 499.052 631.337 499.233 630.718L497.313 630.157ZM502.807 694.193L503.573 692.345L502.807 694.193ZM521.192 694.193L520.427 692.345L521.192 694.193ZM521.192 649.808L521.958 647.96L521.192 649.808ZM534.192 662.808L536.04 662.042L534.192 662.808ZM522.818 613.715C515.668 612.388 508.332 612.388 501.181 613.715L501.911 617.648C508.579 616.41 515.42 616.41 522.088 617.648L522.818 613.715ZM528.606 629.595L524.373 615.12L520.534 616.243L524.767 630.718L528.606 629.595ZM529.736 629.182C528.947 628.855 528.151 628.551 527.349 628.27L526.024 632.044C526.757 632.301 527.484 632.579 528.205 632.877L529.736 629.182ZM554.818 654.264C550.114 642.908 541.092 633.886 529.736 629.182L528.205 632.877C538.581 637.175 546.825 645.419 551.123 655.795L554.818 654.264ZM555.731 656.651C555.449 655.849 555.145 655.053 554.818 654.264L551.123 655.795C551.421 656.516 551.699 657.243 551.956 657.976L555.731 656.651ZM568.88 659.627L554.405 655.394L553.282 659.233L567.757 663.466L568.88 659.627ZM570.285 682.819C571.612 675.668 571.612 668.332 570.285 661.182L566.352 661.912C567.59 668.58 567.59 675.421 566.352 682.089L570.285 682.819ZM554.405 688.607L568.88 684.373L567.757 680.534L553.282 684.767L554.405 688.607ZM554.818 689.736C555.145 688.947 555.449 688.151 555.731 687.349L551.956 686.025C551.699 686.757 551.421 687.484 551.123 688.205L554.818 689.736ZM529.736 714.819C541.092 710.115 550.114 701.092 554.818 689.736L551.123 688.205C546.825 698.581 538.581 706.825 528.205 711.123L529.736 714.819ZM527.349 715.731C528.151 715.45 528.947 715.145 529.736 714.819L528.205 711.123C527.484 711.422 526.757 711.7 526.024 711.957L527.349 715.731ZM524.373 728.88L528.606 714.405L524.767 713.283L520.534 727.758L524.373 728.88ZM501.181 730.285C508.332 731.613 515.668 731.613 522.818 730.285L522.088 726.353C515.42 727.59 508.579 727.59 501.911 726.353L501.181 730.285ZM495.393 714.405L499.627 728.88L503.466 727.758L499.233 713.283L495.393 714.405ZM494.264 714.819C495.053 715.145 495.849 715.45 496.651 715.731L497.975 711.957C497.243 711.7 496.516 711.422 495.795 711.123L494.264 714.819ZM469.181 689.736C473.885 701.092 482.908 710.115 494.264 714.819L495.795 711.123C485.419 706.825 477.175 698.581 472.877 688.205L469.181 689.736ZM468.269 687.349C468.55 688.151 468.855 688.947 469.181 689.736L472.877 688.205C472.578 687.484 472.3 686.757 472.043 686.025L468.269 687.349ZM455.12 684.373L469.595 688.607L470.717 684.767L456.242 680.534L455.12 684.373ZM453.715 661.182C452.387 668.332 452.387 675.668 453.715 682.819L457.647 682.089C456.41 675.421 456.41 668.58 457.647 661.912L453.715 661.182ZM469.595 655.394L455.12 659.627L456.242 663.466L470.717 659.233L469.595 655.394ZM469.181 654.264C468.855 655.053 468.55 655.849 468.269 656.651L472.043 657.976C472.3 657.243 472.578 656.516 472.877 655.795L469.181 654.264ZM494.264 629.182C482.908 633.886 473.885 642.908 469.181 654.264L472.877 655.795C477.175 645.419 485.419 637.175 495.795 632.877L494.264 629.182ZM496.651 628.269C495.849 628.551 495.053 628.855 494.264 629.182L495.795 632.877C496.516 632.579 497.243 632.301 497.975 632.044L496.651 628.269ZM499.627 615.12L495.393 629.595L499.233 630.718L503.466 616.243L499.627 615.12ZM502.042 696.04C508.418 698.681 515.582 698.681 521.958 696.04L520.427 692.345C515.031 694.58 508.968 694.58 503.573 692.345L502.042 696.04ZM487.96 681.958C490.601 688.334 495.666 693.399 502.042 696.04L503.573 692.345C498.177 690.11 493.89 685.823 491.655 680.427L487.96 681.958ZM487.96 662.042C485.319 668.418 485.319 675.582 487.96 681.958L491.655 680.427C489.42 675.032 489.42 668.969 491.655 663.573L487.96 662.042ZM502.042 647.96C495.666 650.601 490.601 655.667 487.96 662.042L491.655 663.573C493.89 658.178 498.177 653.891 503.573 651.656L502.042 647.96ZM521.958 647.96C515.582 645.319 508.418 645.319 502.042 647.96L503.573 651.656C508.968 649.421 515.031 649.421 520.427 651.656L521.958 647.96ZM536.04 662.042C533.399 655.667 528.333 650.601 521.958 647.96L520.427 651.656C525.823 653.891 530.109 658.178 532.344 663.573L536.04 662.042ZM536.04 681.958C538.681 675.582 538.681 668.418 536.04 662.042L532.344 663.573C534.579 668.969 534.579 675.032 532.344 680.427L536.04 681.958ZM521.958 696.04C528.333 693.399 533.399 688.334 536.04 681.958L532.344 680.427C530.109 685.823 525.823 690.11 520.427 692.345L521.958 696.04Z" fill="currentColor"/>
<g opacity="0.25">
<path fill-rule="evenodd" clip-rule="evenodd" d="M698.454 615.681C691.545 614.399 684.456 614.399 677.547 615.681L673.314 630.157C672.546 630.426 671.785 630.717 671.03 631.03C660.164 635.531 651.531 644.164 647.03 655.03C646.717 655.785 646.426 656.546 646.157 657.314L631.681 661.547C630.399 668.456 630.399 675.545 631.681 682.454L646.157 686.687C646.426 687.454 646.717 688.216 647.03 688.971C651.531 699.837 660.164 708.47 671.03 712.971C671.785 713.284 672.546 713.575 673.314 713.844L677.547 728.319C684.456 729.601 691.545 729.601 698.454 728.319L702.687 713.844C703.454 713.575 704.216 713.284 704.971 712.971C715.837 708.47 724.47 699.837 728.971 688.971C729.284 688.216 729.575 687.454 729.844 686.687L744.319 682.454C745.601 675.545 745.601 668.456 744.319 661.547L729.844 657.314C729.575 656.546 729.284 655.785 728.971 655.03C724.47 644.164 715.837 635.531 704.971 631.03C704.216 630.717 703.454 630.426 702.687 630.157L698.454 615.681Z" fill="currentColor"/>
<path d="M677.547 615.681L677.182 613.715C676.44 613.853 675.839 614.396 675.627 615.12L677.547 615.681ZM698.454 615.681L700.373 615.12C700.162 614.396 699.56 613.853 698.819 613.715L698.454 615.681ZM673.314 630.157L673.976 632.044C674.584 631.83 675.052 631.337 675.233 630.718L673.314 630.157ZM671.03 631.03L670.264 629.182L671.03 631.03ZM647.03 655.03L645.182 654.264L647.03 655.03ZM646.157 657.314L646.718 659.233C647.337 659.052 647.83 658.584 648.044 657.976L646.157 657.314ZM631.681 661.547L631.12 659.627C630.396 659.839 629.853 660.44 629.715 661.182L631.681 661.547ZM631.681 682.454L629.715 682.819C629.853 683.56 630.396 684.162 631.12 684.373L631.681 682.454ZM646.157 686.687L648.044 686.025C647.83 685.416 647.337 684.948 646.718 684.767L646.157 686.687ZM647.03 688.971L645.182 689.736H645.182L647.03 688.971ZM671.03 712.971L671.795 711.123H671.795L671.03 712.971ZM673.314 713.844L675.233 713.283C675.052 712.664 674.584 712.17 673.976 711.957L673.314 713.844ZM677.547 728.319L675.627 728.88C675.839 729.605 676.44 730.148 677.182 730.285L677.547 728.319ZM698.454 728.319L698.819 730.285C699.56 730.148 700.162 729.605 700.373 728.88L698.454 728.319ZM702.687 713.844L702.025 711.957C701.416 712.17 700.948 712.664 700.767 713.283L702.687 713.844ZM704.971 712.971L705.736 714.819V714.819L704.971 712.971ZM728.971 688.971L730.819 689.736L728.971 688.971ZM729.844 686.687L729.283 684.767C728.664 684.948 728.17 685.416 727.957 686.025L729.844 686.687ZM744.319 682.454L744.88 684.373C745.605 684.162 746.148 683.56 746.285 682.819L744.319 682.454ZM744.319 661.547L746.285 661.182C746.148 660.44 745.605 659.839 744.88 659.627L744.319 661.547ZM729.844 657.314L727.957 657.976C728.17 658.584 728.664 659.052 729.283 659.233L729.844 657.314ZM728.971 655.03L727.123 655.795V655.795L728.971 655.03ZM704.971 631.03L704.205 632.877L704.971 631.03ZM702.687 630.157L700.767 630.718C700.948 631.337 701.416 631.83 702.025 632.044L702.687 630.157ZM677.912 617.648C684.58 616.41 691.421 616.41 698.089 617.648L698.819 613.715C691.668 612.388 684.332 612.388 677.182 613.715L677.912 617.648ZM675.627 615.12L671.394 629.595L675.233 630.718L679.466 616.243L675.627 615.12ZM672.651 628.269C671.849 628.551 671.053 628.855 670.264 629.182L671.795 632.877C672.516 632.579 673.243 632.301 673.976 632.044L672.651 628.269ZM670.264 629.182C658.908 633.886 649.886 642.908 645.182 654.264L648.877 655.795C653.175 645.419 661.419 637.175 671.795 632.877L670.264 629.182ZM645.182 654.264C644.855 655.053 644.551 655.849 644.269 656.651L648.044 657.976C648.301 657.243 648.579 656.516 648.877 655.795L645.182 654.264ZM645.595 655.394L631.12 659.627L632.243 663.466L646.718 659.233L645.595 655.394ZM633.648 682.089C632.41 675.421 632.41 668.58 633.648 661.912L629.715 661.182C628.388 668.332 628.388 675.668 629.715 682.819L633.648 682.089ZM631.12 684.373L645.595 688.607L646.718 684.767L632.243 680.534L631.12 684.373ZM644.269 687.349C644.551 688.151 644.855 688.947 645.182 689.736L648.877 688.205C648.579 687.484 648.301 686.757 648.044 686.025L644.269 687.349ZM645.182 689.736C649.886 701.092 658.908 710.115 670.264 714.819L671.795 711.123C661.419 706.825 653.175 698.581 648.877 688.205L645.182 689.736ZM670.264 714.819C671.053 715.145 671.849 715.45 672.651 715.731L673.976 711.957C673.243 711.7 672.516 711.422 671.795 711.123L670.264 714.819ZM671.394 714.405L675.627 728.88L679.466 727.758L675.233 713.283L671.394 714.405ZM698.089 726.353C691.421 727.59 684.58 727.59 677.912 726.353L677.182 730.285C684.332 731.613 691.668 731.613 698.819 730.285L698.089 726.353ZM700.373 728.88L704.607 714.405L700.767 713.283L696.534 727.758L700.373 728.88ZM703.349 715.731C704.151 715.45 704.947 715.145 705.736 714.819L704.205 711.123C703.484 711.422 702.757 711.7 702.025 711.957L703.349 715.731ZM705.736 714.819C717.092 710.115 726.115 701.092 730.819 689.736L727.123 688.205C722.825 698.581 714.581 706.825 704.205 711.123L705.736 714.819ZM730.819 689.736C731.145 688.947 731.45 688.151 731.731 687.349L727.957 686.025C727.7 686.757 727.422 687.484 727.123 688.205L730.819 689.736ZM730.405 688.607L744.88 684.373L743.758 680.534L729.283 684.767L730.405 688.607ZM742.353 661.912C743.59 668.58 743.59 675.421 742.353 682.089L746.285 682.819C747.613 675.668 747.613 668.332 746.285 661.182L742.353 661.912ZM744.88 659.627L730.405 655.394L729.283 659.233L743.758 663.466L744.88 659.627ZM731.731 656.651C731.45 655.849 731.145 655.053 730.819 654.264L727.123 655.795C727.422 656.516 727.7 657.243 727.957 657.976L731.731 656.651ZM730.819 654.264C726.115 642.908 717.092 633.886 705.736 629.182L704.205 632.877C714.581 637.175 722.825 645.419 727.123 655.795L730.819 654.264ZM705.736 629.182C704.947 628.855 704.151 628.551 703.349 628.27L702.025 632.044C702.757 632.301 703.484 632.579 704.205 632.877L705.736 629.182ZM704.607 629.595L700.373 615.12L696.534 616.243L700.767 630.718L704.607 629.595Z" fill="currentColor"/>
</g>
<path d="M678.808 694.192C684.693 696.63 691.307 696.63 697.192 694.192C703.078 691.754 707.754 687.078 710.192 681.192C712.63 675.307 712.63 668.693 710.192 662.808C707.754 656.922 703.078 652.246 697.192 649.808C691.307 647.37 684.693 647.37 678.808 649.808C672.922 652.246 668.246 656.922 665.808 662.808C663.37 668.693 663.37 675.307 665.808 681.192C668.246 687.078 672.922 691.754 678.808 694.192Z" fill="currentColor" stroke="currentColor" stroke-width="4" stroke-linecap="round" stroke-linejoin="round"/>
<path fill-rule="evenodd" clip-rule="evenodd" d="M874.454 615.681C867.545 614.399 860.456 614.399 853.547 615.681L849.314 630.157C848.546 630.426 847.785 630.717 847.03 631.03C836.164 635.531 827.531 644.164 823.03 655.03C822.717 655.785 822.426 656.546 822.157 657.314L807.681 661.547C806.399 668.456 806.399 675.545 807.681 682.454L822.157 686.687C822.426 687.454 822.717 688.216 823.03 688.971C827.531 699.837 836.164 708.47 847.03 712.971C847.785 713.284 848.546 713.575 849.314 713.844L853.547 728.319C860.456 729.601 867.545 729.601 874.454 728.319L878.687 713.844C879.454 713.575 880.216 713.284 880.971 712.971C891.837 708.47 900.47 699.837 904.971 688.971C905.284 688.216 905.575 687.454 905.844 686.687L920.319 682.454C921.601 675.545 921.601 668.456 920.319 661.547L905.844 657.314C905.575 656.546 905.284 655.785 904.971 655.03C900.47 644.164 891.837 635.531 880.971 631.03C880.216 630.717 879.454 630.426 878.687 630.157L874.454 615.681Z" fill="#FFA500"/>
<path d="M853.547 615.681L853.182 613.715C852.44 613.853 851.839 614.396 851.627 615.12L853.547 615.681ZM874.454 615.681L876.373 615.12C876.162 614.396 875.56 613.853 874.819 613.715L874.454 615.681ZM849.314 630.157L849.976 632.044C850.584 631.83 851.052 631.337 851.233 630.718L849.314 630.157ZM847.03 631.03L846.264 629.182L847.03 631.03ZM823.03 655.03L821.182 654.264L823.03 655.03ZM822.157 657.314L822.718 659.233C823.337 659.052 823.83 658.584 824.044 657.976L822.157 657.314ZM807.681 661.547L807.12 659.627C806.396 659.839 805.853 660.44 805.715 661.182L807.681 661.547ZM807.681 682.454L805.715 682.819C805.853 683.56 806.396 684.162 807.12 684.373L807.681 682.454ZM822.157 686.687L824.044 686.025C823.83 685.416 823.337 684.948 822.718 684.767L822.157 686.687ZM823.03 688.971L821.182 689.736H821.182L823.03 688.971ZM847.03 712.971L847.795 711.123H847.795L847.03 712.971ZM849.314 713.844L851.233 713.283C851.052 712.664 850.584 712.17 849.976 711.957L849.314 713.844ZM853.547 728.319L851.627 728.88C851.839 729.605 852.44 730.148 853.182 730.285L853.547 728.319ZM874.454 728.319L874.819 730.285C875.56 730.148 876.162 729.605 876.373 728.88L874.454 728.319ZM878.687 713.844L878.025 711.957C877.416 712.17 876.948 712.664 876.767 713.283L878.687 713.844ZM880.971 712.971L881.736 714.819V714.819L880.971 712.971ZM904.971 688.971L906.819 689.736L904.971 688.971ZM905.844 686.687L905.283 684.767C904.664 684.948 904.17 685.416 903.957 686.025L905.844 686.687ZM920.319 682.454L920.88 684.373C921.605 684.162 922.148 683.56 922.285 682.819L920.319 682.454ZM920.319 661.547L922.285 661.182C922.148 660.44 921.605 659.839 920.88 659.627L920.319 661.547ZM905.844 657.314L903.957 657.976C904.17 658.584 904.664 659.052 905.283 659.233L905.844 657.314ZM904.971 655.03L903.123 655.795V655.795L904.971 655.03ZM880.971 631.03L880.205 632.877L880.971 631.03ZM878.687 630.157L876.767 630.718C876.948 631.337 877.416 631.83 878.025 632.044L878.687 630.157ZM853.912 617.648C860.58 616.41 867.421 616.41 874.089 617.648L874.819 613.715C867.668 612.388 860.332 612.388 853.182 613.715L853.912 617.648ZM851.627 615.12L847.394 629.595L851.233 630.718L855.466 616.243L851.627 615.12ZM848.651 628.269C847.849 628.551 847.053 628.855 846.264 629.182L847.795 632.877C848.516 632.579 849.243 632.301 849.976 632.044L848.651 628.269ZM846.264 629.182C834.908 633.886 825.886 642.908 821.182 654.264L824.877 655.795C829.175 645.419 837.419 637.175 847.795 632.877L846.264 629.182ZM821.182 654.264C820.855 655.053 820.551 655.849 820.269 656.651L824.044 657.976C824.301 657.243 824.579 656.516 824.877 655.795L821.182 654.264ZM821.595 655.394L807.12 659.627L808.243 663.466L822.718 659.233L821.595 655.394ZM809.648 682.089C808.41 675.421 808.41 668.58 809.648 661.912L805.715 661.182C804.388 668.332 804.388 675.668 805.715 682.819L809.648 682.089ZM807.12 684.373L821.595 688.607L822.718 684.767L808.243 680.534L807.12 684.373ZM820.269 687.349C820.551 688.151 820.855 688.947 821.182 689.736L824.877 688.205C824.579 687.484 824.301 686.757 824.044 686.025L820.269 687.349ZM821.182 689.736C825.886 701.092 834.908 710.115 846.264 714.819L847.795 711.123C837.419 706.825 829.175 698.581 824.877 688.205L821.182 689.736ZM846.264 714.819C847.053 715.145 847.849 715.45 848.651 715.731L849.976 711.957C849.243 711.7 848.516 711.422 847.795 711.123L846.264 714.819ZM847.394 714.405L851.627 728.88L855.466 727.758L851.233 713.283L847.394 714.405ZM874.089 726.353C867.421 727.59 860.58 727.59 853.912 726.353L853.182 730.285C860.332 731.613 867.668 731.613 874.819 730.285L874.089 726.353ZM876.373 728.88L880.607 714.405L876.767 713.283L872.534 727.758L876.373 728.88ZM879.349 715.731C880.151 715.45 880.947 715.145 881.736 714.819L880.205 711.123C879.484 711.422 878.757 711.7 878.025 711.957L879.349 715.731ZM881.736 714.819C893.092 710.115 902.115 701.092 906.819 689.736L903.123 688.205C898.825 698.581 890.581 706.825 880.205 711.123L881.736 714.819ZM906.819 689.736C907.145 688.947 907.45 688.151 907.731 687.349L903.957 686.025C903.7 686.757 903.422 687.484 903.123 688.205L906.819 689.736ZM906.405 688.607L920.88 684.373L919.758 680.534L905.283 684.767L906.405 688.607ZM918.353 661.912C919.59 668.58 919.59 675.421 918.353 682.089L922.285 682.819C923.613 675.668 923.613 668.332 922.285 661.182L918.353 661.912ZM920.88 659.627L906.405 655.394L905.283 659.233L919.758 663.466L920.88 659.627ZM907.731 656.651C907.45 655.849 907.145 655.053 906.819 654.264L903.123 655.795C903.422 656.516 903.7 657.243 903.957 657.976L907.731 656.651ZM906.819 654.264C902.115 642.908 893.092 633.886 881.736 629.182L880.205 632.877C890.581 637.175 898.825 645.419 903.123 655.795L906.819 654.264ZM881.736 629.182C880.947 628.855 880.151 628.551 879.349 628.27L878.025 632.044C878.757 632.301 879.484 632.579 880.205 632.877L881.736 629.182ZM880.607 629.595L876.373 615.12L872.534 616.243L876.767 630.718L880.607 629.595Z" fill="#FFA500"/>
<path d="M854.808 694.192C860.693 696.63 867.307 696.63 873.192 694.192C879.078 691.754 883.754 687.078 886.192 681.192C888.63 675.307 888.63 668.693 886.192 662.808C883.754 656.922 879.078 652.246 873.192 649.808C867.307 647.37 860.693 647.37 854.808 649.808C848.922 652.246 844.246 656.922 841.808 662.808C839.37 668.693 839.37 675.307 841.808 681.192C844.246 687.078 848.922 691.754 854.808 694.192Z" fill="#FFD700" stroke="#FFD700" stroke-width="4" stroke-linecap="round" stroke-linejoin="round"/>
<g opacity="0.25">
<path d="M512 238.839L544.846 351.154L657.161 384L544.846 416.846L512 529.161L479.154 416.846L366.839 384L479.154 351.154L512 238.839Z" stroke="currentColor" stroke-width="2.41935" stroke-linecap="round" stroke-linejoin="round"/>
<path d="M553.058 483.122C526.769 494.011 497.231 494.011 470.942 483.122V483.122C444.653 472.233 423.767 451.347 412.878 425.058V425.058C401.988 398.769 401.988 369.231 412.878 342.942V342.942C423.767 316.653 444.653 295.767 470.942 284.878V284.878C497.231 273.988 526.769 273.988 553.058 284.878V284.878C579.347 295.767 600.233 316.653 611.122 342.942V342.942C622.011 369.231 622.011 398.769 611.122 425.058V425.058C600.233 451.347 579.347 472.233 553.058 483.122V483.122Z" stroke="currentColor" stroke-width="2.41935" stroke-linecap="round" stroke-linejoin="round"/>
<path d="M489.76 437.691C504 443.59 520 443.59 534.24 437.691V437.691C548.479 431.793 559.793 420.48 565.691 406.24V406.24C571.589 392 571.589 376 565.691 361.76V361.76C559.793 347.521 548.479 336.207 534.24 330.309V330.309C520 324.411 504 324.411 489.76 330.309V330.309C475.52 336.207 464.207 347.521 458.309 361.76V361.76C452.41 376 452.41 392 458.309 406.24V406.24C464.207 420.48 475.52 431.793 489.76 437.691V437.691Z" stroke="currentColor" stroke-width="2.41935" stroke-linecap="round" stroke-linejoin="round"/>
<path d="M565.033 512.033C531.077 526.098 492.923 526.098 458.967 512.033V512.033C425.011 497.968 398.032 470.989 383.967 437.033V437.033C369.902 403.077 369.902 364.923 383.967 330.967V330.967C398.032 297.011 425.011 270.032 458.967 255.967V255.967C492.923 241.902 531.077 241.902 565.033 255.967V255.967C598.989 270.032 625.968 297.011 640.033 330.967V330.967C654.098 364.923 654.098 403.077 640.033 437.033V437.033C625.968 470.989 598.989 497.968 565.033 512.033V512.033Z" stroke="currentColor" stroke-width="2.41935" stroke-linecap="round" stroke-linejoin="round"/>
</g>
</svg>
