<svg viewBox="0 0 1024 768" fill="none" xmlns="http://www.w3.org/2000/svg">
<path d="M418.793 55.1656C420.235 49.8577 427.765 49.8577 429.207 55.1656V55.1656C430.317 59.2513 435.485 60.5251 438.366 57.4233V57.4233C442.11 53.3935 448.777 56.8926 447.587 62.2626V62.2626C446.671 66.3961 450.655 69.9259 454.648 68.5184V68.5184C459.836 66.6899 464.113 72.8865 460.564 77.0885V77.0885C457.832 80.3229 459.719 85.2998 463.909 85.9092V85.9092C469.352 86.7009 470.26 94.1754 465.164 96.2467V96.2467C461.242 97.841 460.601 103.125 464.027 105.612V105.612C468.479 108.842 465.809 115.882 460.334 115.348V115.348C456.121 114.937 453.097 119.318 454.975 123.112V123.112C457.416 128.042 451.78 133.034 447.181 130.018V130.018C443.641 127.696 438.928 130.169 438.828 134.402V134.402C438.698 139.9 431.387 141.702 428.717 136.894V136.894C426.661 133.193 421.339 133.193 419.283 136.894V136.894C416.613 141.702 409.302 139.9 409.172 134.402V134.402C409.072 130.169 404.359 127.696 400.819 130.018V130.018C396.22 133.034 390.584 128.042 393.025 123.112V123.112C394.903 119.318 391.879 114.937 387.666 115.348V115.348C382.191 115.882 379.521 108.842 383.973 105.612V105.612C387.399 103.125 386.758 97.841 382.836 96.2467V96.2467C377.74 94.1754 378.648 86.7009 384.091 85.9092V85.9092C388.281 85.2998 390.168 80.3229 387.436 77.0885V77.0885C383.887 72.8865 388.164 66.6899 393.352 68.5184V68.5184C397.345 69.9259 401.329 66.3961 400.413 62.2626V62.2626C399.223 56.8926 405.89 53.3935 409.634 57.4233V57.4233C412.515 60.5251 417.683 59.2513 418.793 55.1656V55.1656Z" stroke="#7B61FF" stroke-width="2" stroke-linecap="round" stroke-linejoin="round"/>
<path d="M578.787 147.213C592.369 152.839 607.631 152.839 621.213 147.213V147.213C634.796 141.587 645.587 130.796 651.213 117.213V117.213C656.839 103.631 656.839 88.3694 651.213 74.7868V74.7868C645.587 61.2042 634.796 50.4129 621.213 44.7868V44.7868C607.631 39.1607 592.369 39.1607 578.787 44.7868V44.7868C565.204 50.4129 554.413 61.2042 548.787 74.7868V74.7868C543.161 88.3694 543.161 103.631 548.787 117.213V117.213C554.413 130.796 565.204 141.587 578.787 147.213V147.213Z" stroke="#7B61FF" stroke-width="2" stroke-linecap="round" stroke-linejoin="round"/>
<path fill-rule="evenodd" clip-rule="evenodd" d="M640.235 419H383.765C383.668 412.048 385.569 405.012 389.827 398.835C371.586 382.655 375.344 351.703 396.927 340.359C388.295 317.555 406.006 291.895 430.389 291.88C433.343 267.677 460.95 253.188 482.547 264.506C496.411 244.447 527.589 244.447 541.453 264.506C563.05 253.188 590.657 267.677 593.611 291.88C617.994 291.895 635.706 317.555 627.073 340.359C648.656 351.703 652.414 382.655 634.173 398.835C638.431 405.012 640.333 412.048 640.235 419Z" fill="#888888" fill-opacity="0.5"/>
<path d="M640.235 419V424C642.969 424 645.196 421.804 645.234 419.071L640.235 419ZM383.765 419L378.766 419.071C378.804 421.804 381.031 424 383.765 424V419ZM389.827 398.835L393.943 401.672C395.377 399.593 395.034 396.77 393.145 395.094L389.827 398.835ZM396.927 340.359L399.253 344.785C401.489 343.609 402.497 340.951 401.603 338.589L396.927 340.359ZM430.389 291.88L430.392 296.88C432.918 296.879 435.046 294.994 435.352 292.486L430.389 291.88ZM482.547 264.506L480.226 268.934C482.464 270.107 485.224 269.427 486.661 267.349L482.547 264.506ZM541.453 264.506L537.34 267.349C538.776 269.427 541.536 270.107 543.774 268.934L541.453 264.506ZM593.611 291.88L588.648 292.486C588.954 294.994 591.082 296.879 593.608 296.88L593.611 291.88ZM627.073 340.359L622.397 338.589C621.503 340.951 622.511 343.609 624.747 344.785L627.073 340.359ZM634.173 398.835L630.855 395.094C628.966 396.77 628.623 399.593 630.057 401.672L634.173 398.835ZM640.235 414H383.765V424H640.235V414ZM388.765 418.93C388.681 412.944 390.313 406.939 393.943 401.672L385.71 395.997C380.824 403.085 378.654 411.151 378.766 419.071L388.765 418.93ZM393.145 395.094C377.519 381.234 380.765 354.502 399.253 344.785L394.601 335.933C369.923 348.904 365.652 384.075 386.509 402.575L393.145 395.094ZM401.603 338.589C394.209 319.055 409.505 296.893 430.392 296.88L430.386 286.88C402.507 286.897 382.381 316.055 392.251 342.129L401.603 338.589ZM435.352 292.486C437.883 271.753 461.726 259.239 480.226 268.934L484.868 260.077C460.174 247.136 428.803 263.601 425.426 291.275L435.352 292.486ZM486.661 267.349C498.536 250.166 525.464 250.166 537.34 267.349L545.566 261.663C529.715 238.728 494.285 238.728 478.434 261.663L486.661 267.349ZM543.774 268.934C562.274 259.239 586.117 271.753 588.648 292.486L598.574 291.275C595.197 263.601 563.826 247.136 539.132 260.077L543.774 268.934ZM593.608 296.88C614.495 296.893 629.792 319.055 622.397 338.589L631.749 342.129C641.62 316.055 621.493 286.897 593.614 286.88L593.608 296.88ZM624.747 344.785C643.235 354.502 646.481 381.234 630.855 395.094L637.491 402.575C658.348 384.075 654.077 348.904 629.399 335.933L624.747 344.785ZM630.057 401.672C633.687 406.939 635.319 412.944 635.235 418.93L645.234 419.071C645.346 411.151 643.176 403.085 638.29 395.997L630.057 401.672Z" fill="currentColor"/>
<path fill-rule="evenodd" clip-rule="evenodd" d="M542 499L532 472.333V419L512 419L492 419V472.333L482 499L492 499H532L542 499Z" fill="#888888" fill-opacity="0.5"/>
<path d="M532 472.333H527C527 472.933 527.108 473.528 527.318 474.089L532 472.333ZM542 499L542 504C543.64 504 545.176 503.196 546.11 501.848C547.044 500.5 547.257 498.78 546.682 497.244L542 499ZM532 419H537C537 416.239 534.761 414 532 414L532 419ZM512 419L512 414H512L512 419ZM492 419L492 414C489.239 414 487 416.239 487 419H492ZM492 472.333L496.682 474.089C496.892 473.528 497 472.933 497 472.333H492ZM482 499L477.318 497.244C476.743 498.78 476.956 500.5 477.89 501.848C478.824 503.196 480.36 504 482 504L482 499ZM492 499L492 504H492V499ZM532 499V504H532L532 499ZM527.318 474.089L537.318 500.756L546.682 497.244L536.682 470.578L527.318 474.089ZM527 419V472.333H537V419H527ZM512 424L532 424L532 414L512 414L512 424ZM492 424L512 424L512 414L492 414L492 424ZM497 472.333V419H487V472.333H497ZM486.682 500.756L496.682 474.089L487.318 470.578L477.318 497.244L486.682 500.756ZM492 494L482 494L482 504L492 504L492 494ZM532 494H492V504H532V494ZM542 494L532 494L532 504L542 504L542 494Z" fill="currentColor"/>
<g opacity="0.25">
<path d="M499.403 285.207C502.892 272.366 521.108 272.366 524.597 285.207V285.207C527.282 295.092 539.786 298.174 546.757 290.669V290.669C555.814 280.92 571.944 289.386 569.065 302.378V302.378C566.849 312.378 576.489 320.918 586.149 317.512V317.512C598.699 313.089 609.047 328.08 600.461 338.246V338.246C593.851 346.072 598.418 358.113 608.554 359.587V359.587C621.723 361.502 623.918 379.586 611.591 384.597V384.597C602.102 388.454 600.55 401.238 608.84 407.254V407.254C619.61 415.07 613.15 432.103 599.906 430.811V430.811C589.711 429.817 582.396 440.415 586.941 449.594V449.594C592.845 461.52 579.21 473.6 568.083 466.301V466.301C559.518 460.683 548.115 466.668 547.873 476.908V476.908C547.559 490.211 529.872 494.571 523.412 482.937V482.937C518.439 473.982 505.561 473.982 500.588 482.937V482.937C494.128 494.571 476.441 490.211 476.126 476.908V476.908C475.885 466.668 464.482 460.683 455.917 466.301V466.301C444.79 473.6 431.155 461.52 437.059 449.594V449.594C441.604 440.415 434.289 429.817 424.094 430.811V430.811C410.85 432.103 404.39 415.07 415.16 407.254V407.254C423.45 401.238 421.898 388.454 412.409 384.597V384.597C400.082 379.586 402.277 361.502 415.446 359.587V359.587C425.582 358.113 430.149 346.072 423.539 338.246V338.246C414.953 328.08 425.301 313.089 437.851 317.512V317.512C447.511 320.918 457.151 312.378 454.935 302.378V302.378C452.056 289.386 468.186 280.92 477.243 290.669V290.669C484.214 298.174 496.718 295.092 499.403 285.207V285.207Z" stroke="currentColor" stroke-width="2.41935" stroke-linecap="round" stroke-linejoin="round"/>
<rect x="362" y="234" width="300" height="183.871" stroke="currentColor" stroke-width="2.41935" stroke-linecap="round" stroke-linejoin="round"/>
<path d="M512 417.871L541.032 495.29H482.968L512 417.871Z" stroke="currentColor" stroke-width="2.41935" stroke-linecap="round" stroke-linejoin="round"/>
</g>
<path d="M211.294 686V687C211.841 687 212.286 686.561 212.294 686.014L211.294 686ZM108.706 686L107.706 686.014C107.714 686.561 108.159 687 108.706 687V686ZM111.131 677.934L111.954 678.501C112.241 678.085 112.172 677.521 111.794 677.186L111.131 677.934ZM113.971 654.543L114.436 655.428C114.883 655.193 115.085 654.662 114.906 654.189L113.971 654.543ZM127.356 635.152L127.356 636.152C127.861 636.152 128.287 635.775 128.348 635.273L127.356 635.152ZM148.219 624.202L147.755 625.088C148.202 625.322 148.754 625.186 149.042 624.771L148.219 624.202ZM171.781 624.202L170.958 624.771C171.246 625.186 171.798 625.322 172.245 625.088L171.781 624.202ZM192.644 635.152L191.652 635.273C191.713 635.775 192.139 636.152 192.644 636.152L192.644 635.152ZM206.029 654.543L205.094 654.189C204.915 654.662 205.117 655.193 205.564 655.428L206.029 654.543ZM208.869 677.934L208.206 677.186C207.828 677.521 207.759 678.085 208.046 678.501L208.869 677.934ZM211.294 685H108.706V687H211.294V685ZM109.706 685.986C109.67 683.398 110.376 680.79 111.954 678.501L110.307 677.366C108.479 680.019 107.664 683.04 107.706 686.014L109.706 685.986ZM111.794 677.186C105.021 671.178 106.422 659.641 114.436 655.428L113.505 653.658C104.253 658.521 102.647 671.746 110.467 678.682L111.794 677.186ZM114.906 654.189C111.701 645.722 118.302 636.158 127.356 636.152L127.355 634.152C116.902 634.158 109.335 645.122 113.036 654.897L114.906 654.189ZM128.348 635.273C129.445 626.286 139.735 620.885 147.755 625.088L148.683 623.316C139.425 618.464 127.629 624.655 126.363 635.031L128.348 635.273ZM149.042 624.771C154.189 617.323 165.811 617.323 170.958 624.771L172.604 623.634C166.661 615.035 153.339 615.035 147.396 623.634L149.042 624.771ZM172.245 625.088C180.265 620.885 190.555 626.286 191.652 635.273L193.637 635.031C192.371 624.655 180.575 618.464 171.317 623.316L172.245 625.088ZM192.644 636.152C201.698 636.158 208.299 645.722 205.094 654.189L206.964 654.897C210.665 645.122 203.097 634.158 192.645 634.152L192.644 636.152ZM205.564 655.428C213.578 659.641 214.979 671.178 208.206 677.186L209.533 678.682C217.352 671.746 215.747 658.521 206.494 653.658L205.564 655.428ZM208.046 678.501C209.624 680.79 210.33 683.398 210.294 685.986L212.294 686.014C212.336 683.04 211.521 680.019 209.693 677.366L208.046 678.501Z" fill="currentColor"/>
<path d="M152 707.333L152.936 707.684C152.978 707.572 153 707.453 153 707.333H152ZM152 686V685C151.448 685 151 685.448 151 686H152ZM168 686H169C169 685.448 168.552 685 168 685V686ZM168 707.333H167C167 707.453 167.022 707.572 167.064 707.684L168 707.333ZM172 718V719C172.328 719 172.635 718.839 172.822 718.57C173.009 718.3 173.051 717.956 172.936 717.649L172 718ZM148 718L147.064 717.649C146.949 717.956 146.991 718.3 147.178 718.57C147.365 718.839 147.672 719 148 719V718ZM153 707.333V686H151V707.333H153ZM152 687H160V685H152V687ZM160 687H168V685H160V687ZM167 686V707.333H169V686H167ZM167.064 707.684L171.064 718.351L172.936 717.649L168.936 706.982L167.064 707.684ZM172 717H168V719H172V717ZM168 717H152V719H168V717ZM152 717H148V719H152V717ZM148.936 718.351L152.936 707.684L151.064 706.982L147.064 717.649L148.936 718.351Z" fill="currentColor"/>
<path d="M344.491 626.476L344.079 626.761V626.761L344.491 626.476ZM327.509 626.476L327.098 626.192L327.509 626.476ZM349.638 627.745L349.406 627.302V627.302L349.638 627.745ZM364.674 635.637L364.177 635.697V635.697L364.674 635.637ZM368.642 639.152L368.642 639.652L368.642 639.152ZM378.288 653.127L378.756 653.304L378.288 653.127ZM380.168 658.084L380.401 657.641H380.401L380.168 658.084ZM382.215 674.941L381.883 674.567L382.215 674.941ZM381.576 680.204L381.988 679.92V679.92L381.576 680.204ZM382.553 682V682.5C382.72 682.5 382.876 682.416 382.969 682.278C383.062 682.139 383.079 681.963 383.015 681.809L382.553 682ZM289.447 682L288.985 681.809C288.921 681.963 288.938 682.139 289.031 682.278C289.124 682.416 289.28 682.5 289.447 682.5V682ZM290.424 680.204L290.836 680.488H290.836L290.424 680.204ZM289.785 674.941L289.453 675.315L289.785 674.941ZM291.832 658.084L291.599 657.641L291.832 658.084ZM293.712 653.127L294.179 652.95L293.712 653.127ZM303.358 639.152L303.358 639.652L303.358 639.152ZM307.326 635.637L307.822 635.697L307.326 635.637ZM322.362 627.745L322.594 627.302L322.362 627.745ZM348.963 619.408L348.611 619.763C348.742 619.893 348.933 619.94 349.109 619.886L348.963 619.408ZM323.037 619.408L322.891 619.886C323.067 619.94 323.258 619.893 323.389 619.763L323.037 619.408ZM371.918 631.456L371.442 631.607C371.497 631.783 371.645 631.914 371.826 631.948L371.918 631.456ZM386.646 652.792L386.154 652.705C386.121 652.886 386.191 653.07 386.336 653.185L386.646 652.792ZM389.77 678.53L389.375 678.224C389.262 678.369 389.238 678.565 389.312 678.733L389.77 678.53ZM391.293 686.056L390.793 686.049L391.293 686.056ZM348 690V689.5C347.724 689.5 347.5 689.724 347.5 690H348ZM348 706.608H347.5C347.5 706.668 347.511 706.727 347.532 706.783L348 706.608ZM351.745 716.595L351.277 716.771L351.745 716.595ZM320.255 716.595L319.786 716.42L320.255 716.595ZM324 706.608L324.468 706.783C324.489 706.727 324.5 706.668 324.5 706.608H324ZM324 690H324.5C324.5 689.724 324.276 689.5 324 689.5V690ZM280.707 686.056L281.206 686.049L280.707 686.056ZM282.23 678.53L282.688 678.733C282.762 678.565 282.738 678.369 282.625 678.224L282.23 678.53ZM285.354 652.792L285.664 653.185C285.809 653.07 285.879 652.886 285.846 652.705L285.354 652.792ZM300.082 631.456L300.174 631.948C300.355 631.914 300.503 631.783 300.558 631.607L300.082 631.456ZM332 690V689.5C331.724 689.5 331.5 689.724 331.5 690H332ZM340 690H340.5C340.5 689.724 340.276 689.5 340 689.5V690ZM340.255 708.738L339.786 708.913L340.255 708.738ZM342.228 714V714.5C342.392 714.5 342.546 714.419 342.639 714.285C342.732 714.15 342.754 713.978 342.696 713.824L342.228 714ZM329.772 714L329.304 713.824C329.246 713.978 329.268 714.15 329.361 714.285C329.454 714.419 329.608 714.5 329.772 714.5V714ZM331.745 708.738L332.213 708.913L331.745 708.738ZM344.902 626.192C340.748 620.182 331.252 620.182 327.098 626.192L327.921 626.761C331.677 621.326 340.323 621.326 344.079 626.761L344.902 626.192ZM349.406 627.302C347.84 628.123 345.907 627.647 344.902 626.192L344.079 626.761C345.372 628.631 347.856 629.243 349.87 628.188L349.406 627.302ZM365.17 635.576C364.285 628.324 355.877 623.911 349.406 627.302L349.87 628.188C355.722 625.121 363.377 629.139 364.177 635.697L365.17 635.576ZM368.642 638.652C366.874 638.651 365.384 637.331 365.17 635.576L364.177 635.697C364.453 637.954 366.368 639.651 368.642 639.652L368.642 638.652ZM378.756 653.304C381.342 646.472 375.948 638.656 368.642 638.652L368.642 639.652C375.248 639.656 380.16 646.771 377.821 652.95L378.756 653.304ZM380.401 657.641C378.836 656.819 378.13 654.958 378.756 653.304L377.821 652.95C377.016 655.076 377.923 657.469 379.936 658.527L380.401 657.641ZM382.547 675.315C388.012 670.467 386.868 661.041 380.401 657.641L379.935 658.527C385.783 661.6 386.826 670.183 381.883 674.567L382.547 675.315ZM381.988 679.92C380.984 678.464 381.224 676.489 382.547 675.315L381.883 674.567C380.182 676.076 379.874 678.616 381.164 680.488L381.988 679.92ZM383.015 681.809C382.745 681.156 382.404 680.524 381.988 679.92L381.164 680.488C381.54 681.033 381.848 681.603 382.091 682.191L383.015 681.809ZM289.447 682.5H382.553V681.5H289.447V682.5ZM290.012 679.92C289.596 680.524 289.255 681.156 288.985 681.809L289.909 682.191C290.152 681.603 290.46 681.033 290.836 680.488L290.012 679.92ZM289.453 675.315C290.776 676.489 291.016 678.464 290.012 679.92L290.836 680.488C292.126 678.616 291.818 676.076 290.117 674.567L289.453 675.315ZM291.599 657.641C285.132 661.041 283.988 670.467 289.453 675.315L290.117 674.567C285.174 670.183 286.217 661.6 292.064 658.527L291.599 657.641ZM293.244 653.304C293.87 654.958 293.164 656.819 291.599 657.641L292.064 658.527C294.077 657.469 294.984 655.076 294.179 652.95L293.244 653.304ZM303.358 638.652C296.052 638.656 290.658 646.472 293.244 653.304L294.179 652.95C291.84 646.771 296.752 639.656 303.358 639.652L303.358 638.652ZM306.83 635.576C306.616 637.331 305.126 638.651 303.358 638.652L303.358 639.652C305.632 639.651 307.547 637.954 307.822 635.697L306.83 635.576ZM322.594 627.302C316.123 623.911 307.715 628.324 306.83 635.576L307.822 635.697C308.623 629.139 316.278 625.121 322.13 628.188L322.594 627.302ZM327.098 626.192C326.093 627.647 324.16 628.123 322.594 627.302L322.13 628.188C324.144 629.243 326.628 628.631 327.921 626.761L327.098 626.192ZM349.315 619.053C342.091 611.895 329.909 611.895 322.685 619.053L323.389 619.763C330.223 612.992 341.777 612.992 348.611 619.763L349.315 619.053ZM372.395 631.305C369.326 621.611 358.538 615.949 348.816 618.93L349.109 619.886C358.307 617.066 368.538 622.436 371.442 631.607L372.395 631.305ZM387.138 652.88C388.926 642.87 382.005 632.843 372.011 630.965L371.826 631.948C381.281 633.725 387.845 643.234 386.154 652.705L387.138 652.88ZM390.164 678.837C396.401 670.804 394.933 658.708 386.956 652.4L386.336 653.185C393.882 659.152 395.275 670.624 389.375 678.224L390.164 678.837ZM391.793 686.063C391.83 683.466 391.333 680.823 390.227 678.328L389.312 678.733C390.358 681.089 390.828 683.589 390.793 686.049L391.793 686.063ZM387.294 690.5C389.754 690.5 391.759 688.523 391.793 686.063L390.793 686.049C390.767 687.963 389.208 689.5 387.294 689.5V690.5ZM348 690.5H387.294V689.5H348V690.5ZM347.5 690V706.608H348.5V690H347.5ZM347.532 706.783L351.277 716.771L352.213 716.42L348.468 706.432L347.532 706.783ZM351.277 716.771C351.68 717.846 351.531 719.05 350.877 719.993L351.699 720.563C352.539 719.35 352.732 717.802 352.213 716.42L351.277 716.771ZM350.877 719.993C350.223 720.937 349.148 721.5 348 721.5V722.5C349.476 722.5 350.858 721.776 351.699 720.563L350.877 719.993ZM348 721.5H344V722.5H348V721.5ZM344 721.5H328V722.5H344V721.5ZM328 721.5H324V722.5H328V721.5ZM324 721.5C322.852 721.5 321.777 720.937 321.123 719.993L320.301 720.563C321.142 721.776 322.524 722.5 324 722.5V721.5ZM321.123 719.993C320.469 719.05 320.32 717.846 320.723 716.771L319.786 716.42C319.268 717.802 319.461 719.35 320.301 720.563L321.123 719.993ZM320.723 716.771L324.468 706.783L323.532 706.432L319.786 716.42L320.723 716.771ZM324.5 706.608V690H323.5V706.608H324.5ZM284.706 690.5H324V689.5H284.706V690.5ZM280.207 686.063C280.241 688.523 282.246 690.5 284.706 690.5V689.5C282.792 689.5 281.233 687.963 281.206 686.049L280.207 686.063ZM281.773 678.328C280.667 680.823 280.17 683.466 280.207 686.063L281.206 686.049C281.172 683.589 281.642 681.089 282.688 678.733L281.773 678.328ZM285.044 652.4C277.067 658.708 275.599 670.804 281.836 678.837L282.625 678.224C276.725 670.624 278.118 659.152 285.664 653.185L285.044 652.4ZM299.989 630.965C289.995 632.843 283.074 642.87 284.862 652.88L285.846 652.705C284.155 643.234 290.719 633.725 300.174 631.948L299.989 630.965ZM323.184 618.93C313.462 615.949 302.674 621.611 299.605 631.305L300.558 631.607C303.462 622.436 313.693 617.066 322.891 619.886L323.184 618.93ZM331.5 690V707.333H332.5V690H331.5ZM336 689.5H332V690.5H336V689.5ZM340 689.5H336V690.5H340V689.5ZM340.5 707.333V690H339.5V707.333H340.5ZM340.723 708.562C340.575 708.169 340.5 707.753 340.5 707.333H339.5C339.5 707.873 339.597 708.408 339.786 708.913L340.723 708.562ZM342.696 713.824L340.723 708.562L339.786 708.913L341.76 714.175L342.696 713.824ZM329.772 714.5H342.228V713.5H329.772V714.5ZM331.277 708.562L329.304 713.824L330.24 714.175L332.213 708.913L331.277 708.562ZM331.5 707.333C331.5 707.753 331.424 708.169 331.277 708.562L332.213 708.913C332.403 708.408 332.5 707.873 332.5 707.333H331.5Z" fill="currentColor"/>
<path fill-rule="evenodd" clip-rule="evenodd" d="M563.294 686H460.706C460.667 683.219 461.428 680.404 463.131 677.934C455.834 671.462 457.338 659.081 465.971 654.543C462.518 645.422 469.602 635.158 479.356 635.152C480.537 625.471 491.58 619.675 500.219 624.202C505.764 616.179 518.236 616.179 523.781 624.202C532.42 619.675 543.463 625.471 544.644 635.152C554.398 635.158 561.482 645.422 558.029 654.543C566.663 659.081 568.166 671.462 560.869 677.934C562.573 680.404 563.333 683.219 563.294 686Z" fill="currentColor"/>
<path d="M563.294 686V688C564.387 688 565.278 687.121 565.294 686.028L563.294 686ZM460.706 686L458.706 686.028C458.722 687.121 459.613 688 460.706 688V686ZM463.131 677.934L464.777 679.069C465.351 678.237 465.214 677.108 464.458 676.437L463.131 677.934ZM465.971 654.543L466.901 656.314C467.796 655.844 468.199 654.78 467.841 653.835L465.971 654.543ZM479.356 635.152L479.357 637.152C480.367 637.151 481.219 636.397 481.341 635.394L479.356 635.152ZM500.219 624.202L499.291 625.974C500.186 626.443 501.29 626.17 501.864 625.339L500.219 624.202ZM523.781 624.202L522.136 625.339C522.71 626.17 523.815 626.443 524.709 625.974L523.781 624.202ZM544.644 635.152L542.659 635.394C542.782 636.397 543.633 637.151 544.643 637.152L544.644 635.152ZM558.029 654.543L556.159 653.835C555.801 654.78 556.204 655.844 557.099 656.314L558.029 654.543ZM560.869 677.934L559.542 676.437C558.786 677.108 558.649 678.237 559.223 679.069L560.869 677.934ZM563.294 684H460.706V688H563.294V684ZM462.706 685.972C462.672 683.577 463.325 681.175 464.777 679.069L461.484 676.799C459.53 679.634 458.662 682.86 458.706 686.028L462.706 685.972ZM464.458 676.437C458.208 670.893 459.506 660.201 466.901 656.314L465.04 652.773C455.169 657.961 453.461 672.03 461.804 679.43L464.458 676.437ZM467.841 653.835C464.883 646.022 471.002 637.157 479.357 637.152L479.354 633.152C468.203 633.159 460.152 644.822 464.1 655.251L467.841 653.835ZM481.341 635.394C482.353 627.101 491.89 622.095 499.291 625.974L501.147 622.431C491.27 617.254 478.721 623.84 477.37 634.91L481.341 635.394ZM501.864 625.339C506.614 618.466 517.386 618.466 522.136 625.339L525.426 623.065C519.086 613.891 504.914 613.891 498.574 623.065L501.864 625.339ZM524.709 625.974C532.11 622.095 541.647 627.101 542.659 635.394L546.63 634.91C545.279 623.84 532.73 617.254 522.853 622.431L524.709 625.974ZM544.643 637.152C552.998 637.157 559.117 646.022 556.159 653.835L559.9 655.251C563.848 644.822 555.797 633.159 544.646 633.152L544.643 637.152ZM557.099 656.314C564.494 660.201 565.792 670.893 559.542 676.437L562.196 679.43C570.539 672.03 568.831 657.961 558.96 652.773L557.099 656.314ZM559.223 679.069C560.675 681.175 561.328 683.577 561.294 685.972L565.294 686.028C565.338 682.86 564.47 679.634 562.516 676.799L559.223 679.069Z" fill="currentColor"/>
<path fill-rule="evenodd" clip-rule="evenodd" d="M504 707.333V686H512H520V707.333L524 718H520H504H500L504 707.333Z" fill="currentColor"/>
<path d="M504 707.333L505.873 708.036C505.957 707.811 506 707.573 506 707.333H504ZM504 686V684C502.895 684 502 684.895 502 686H504ZM520 686H522C522 684.895 521.105 684 520 684V686ZM520 707.333H518C518 707.573 518.043 707.811 518.127 708.036L520 707.333ZM524 718V720C524.656 720 525.27 719.678 525.644 719.139C526.017 718.6 526.103 717.912 525.873 717.298L524 718ZM500 718L498.127 717.298C497.897 717.912 497.983 718.6 498.356 719.139C498.73 719.678 499.344 720 500 720V718ZM506 707.333V686H502V707.333H506ZM504 688H512V684H504V688ZM512 688H520V684H512V688ZM518 686V707.333H522V686H518ZM518.127 708.036L522.127 718.702L525.873 717.298L521.873 706.631L518.127 708.036ZM524 716H520V720H524V716ZM520 716H504V720H520V716ZM504 716H500V720H504V716ZM501.873 718.702L505.873 708.036L502.127 706.631L498.127 717.298L501.873 718.702Z" fill="currentColor"/>
<g opacity="0.25">
<path fill-rule="evenodd" clip-rule="evenodd" d="M739.294 686H636.706C636.667 683.219 637.428 680.404 639.131 677.934C631.834 671.462 633.338 659.081 641.971 654.543C638.518 645.422 645.602 635.158 655.356 635.152C656.537 625.471 667.58 619.675 676.219 624.202C681.764 616.179 694.236 616.179 699.781 624.202C708.42 619.675 719.463 625.471 720.644 635.152C730.398 635.158 737.482 645.422 734.029 654.543C742.663 659.081 744.166 671.462 736.869 677.934C738.573 680.404 739.333 683.219 739.294 686Z" fill="currentColor"/>
<path d="M739.294 686V688C740.387 688 741.278 687.121 741.294 686.028L739.294 686ZM636.706 686L634.706 686.028C634.722 687.121 635.613 688 636.706 688V686ZM639.131 677.934L640.777 679.069C641.351 678.237 641.214 677.108 640.458 676.437L639.131 677.934ZM641.971 654.543L642.901 656.314C643.796 655.844 644.199 654.78 643.841 653.835L641.971 654.543ZM655.356 635.152L655.357 637.152C656.367 637.151 657.219 636.397 657.341 635.394L655.356 635.152ZM676.219 624.202L675.291 625.974C676.186 626.443 677.29 626.17 677.864 625.339L676.219 624.202ZM699.781 624.202L698.136 625.339C698.71 626.17 699.815 626.443 700.709 625.974L699.781 624.202ZM720.644 635.152L718.659 635.394C718.782 636.397 719.633 637.151 720.643 637.152L720.644 635.152ZM734.029 654.543L732.159 653.835C731.801 654.78 732.204 655.844 733.099 656.314L734.029 654.543ZM736.869 677.934L735.542 676.437C734.786 677.108 734.649 678.237 735.223 679.069L736.869 677.934ZM739.294 684H636.706V688H739.294V684ZM638.706 685.972C638.672 683.577 639.325 681.175 640.777 679.069L637.484 676.799C635.53 679.634 634.662 682.86 634.706 686.028L638.706 685.972ZM640.458 676.437C634.208 670.893 635.506 660.201 642.901 656.314L641.04 652.773C631.169 657.961 629.461 672.03 637.804 679.43L640.458 676.437ZM643.841 653.835C640.883 646.022 647.002 637.157 655.357 637.152L655.354 633.152C644.203 633.159 636.152 644.822 640.1 655.251L643.841 653.835ZM657.341 635.394C658.353 627.101 667.89 622.095 675.291 625.974L677.147 622.431C667.27 617.254 654.721 623.84 653.37 634.91L657.341 635.394ZM677.864 625.339C682.614 618.466 693.386 618.466 698.136 625.339L701.426 623.065C695.086 613.891 680.914 613.891 674.574 623.065L677.864 625.339ZM700.709 625.974C708.11 622.095 717.647 627.101 718.659 635.394L722.63 634.91C721.279 623.84 708.73 617.254 698.853 622.431L700.709 625.974ZM720.643 637.152C728.998 637.157 735.117 646.022 732.159 653.835L735.9 655.251C739.848 644.822 731.797 633.159 720.646 633.152L720.643 637.152ZM733.099 656.314C740.494 660.201 741.792 670.893 735.542 676.437L738.196 679.43C746.539 672.03 744.831 657.961 734.96 652.773L733.099 656.314ZM735.223 679.069C736.675 681.175 737.328 683.577 737.294 685.972L741.294 686.028C741.338 682.86 740.47 679.634 738.516 676.799L735.223 679.069Z" fill="currentColor"/>
</g>
<path fill-rule="evenodd" clip-rule="evenodd" d="M680 707.333V686H688H696V707.333L700 718H696H680H676L680 707.333Z" fill="currentColor"/>
<path fill-rule="evenodd" clip-rule="evenodd" d="M915.294 686H812.706C812.667 683.219 813.427 680.404 815.131 677.934C807.834 671.462 809.337 659.081 817.971 654.543C814.518 645.422 821.602 635.158 831.356 635.152C832.537 625.471 843.58 619.675 852.219 624.202C857.764 616.179 870.236 616.179 875.781 624.202C884.42 619.675 895.463 625.471 896.644 635.152C906.398 635.158 913.482 645.422 910.029 654.543C918.662 659.081 920.166 671.462 912.869 677.934C914.572 680.404 915.333 683.219 915.294 686Z" fill="#FFA500"/>
<path d="M915.294 686V688C916.387 688 917.278 687.121 917.294 686.028L915.294 686ZM812.706 686L810.706 686.028C810.722 687.121 811.613 688 812.706 688V686ZM815.131 677.934L816.777 679.069C817.351 678.237 817.214 677.108 816.458 676.437L815.131 677.934ZM817.971 654.543L818.901 656.314C819.796 655.844 820.199 654.78 819.841 653.835L817.971 654.543ZM831.356 635.152L831.357 637.152C832.367 637.151 833.219 636.397 833.341 635.394L831.356 635.152ZM852.219 624.202L851.291 625.974C852.185 626.443 853.29 626.17 853.864 625.339L852.219 624.202ZM875.781 624.202L874.136 625.339C874.71 626.17 875.814 626.443 876.709 625.974L875.781 624.202ZM896.644 635.152L894.659 635.394C894.781 636.397 895.633 637.151 896.643 637.152L896.644 635.152ZM910.029 654.543L908.159 653.835C907.801 654.78 908.204 655.844 909.099 656.314L910.029 654.543ZM912.869 677.934L911.542 676.437C910.786 677.108 910.649 678.237 911.223 679.069L912.869 677.934ZM915.294 684H812.706V688H915.294V684ZM814.706 685.972C814.672 683.577 815.325 681.175 816.777 679.069L813.484 676.799C811.53 679.634 810.662 682.86 810.706 686.028L814.706 685.972ZM816.458 676.437C810.208 670.893 811.506 660.201 818.901 656.314L817.04 652.773C807.169 657.961 805.461 672.03 813.804 679.43L816.458 676.437ZM819.841 653.835C816.883 646.022 823.002 637.157 831.357 637.152L831.354 633.152C820.203 633.159 812.152 644.822 816.1 655.251L819.841 653.835ZM833.341 635.394C834.353 627.101 843.89 622.095 851.291 625.974L853.147 622.431C843.27 617.254 830.721 623.84 829.37 634.91L833.341 635.394ZM853.864 625.339C858.614 618.466 869.386 618.466 874.136 625.339L877.426 623.065C871.086 613.891 856.914 613.891 850.574 623.065L853.864 625.339ZM876.709 625.974C884.11 622.095 893.647 627.101 894.659 635.394L898.63 634.91C897.279 623.84 884.73 617.254 874.853 622.431L876.709 625.974ZM896.643 637.152C904.998 637.157 911.117 646.022 908.159 653.835L911.9 655.251C915.848 644.822 907.797 633.159 896.646 633.152L896.643 637.152ZM909.099 656.314C916.494 660.201 917.792 670.893 911.542 676.437L914.196 679.43C922.539 672.03 920.831 657.961 910.96 652.773L909.099 656.314ZM911.223 679.069C912.675 681.175 913.328 683.577 913.294 685.972L917.294 686.028C917.338 682.86 916.47 679.634 914.516 676.799L911.223 679.069Z" fill="#FFA500"/>
<path fill-rule="evenodd" clip-rule="evenodd" d="M856 707.333V686H864H872V707.333L876 718H872H856H852L856 707.333Z" fill="#8B4513"/>
</svg>
