<svg viewBox="0 0 1024 768" fill="none" xmlns="http://www.w3.org/2000/svg">
<path d="M424 36L436.858 64.9576L466.426 53.5736L455.042 83.1418L484 96L455.042 108.858L466.426 138.426L436.858 127.042L424 156L411.142 127.042L381.574 138.426L392.958 108.858L364 96L392.958 83.1418L381.574 53.5736L411.142 64.9576L424 36Z" stroke="#7B61FF" stroke-width="2" stroke-linecap="round" stroke-linejoin="round"/>
<path d="M578.787 147.213C592.369 152.839 607.631 152.839 621.213 147.213V147.213C634.796 141.587 645.587 130.796 651.213 117.213V117.213C656.839 103.631 656.839 88.3694 651.213 74.7868V74.7868C645.587 61.2042 634.796 50.4129 621.213 44.7868V44.7868C607.631 39.1607 592.369 39.1607 578.787 44.7868V44.7868C565.204 50.4129 554.413 61.2042 548.787 74.7868V74.7868C543.161 88.3694 543.161 103.631 548.787 117.213V117.213C554.413 130.796 565.204 141.587 578.787 147.213V147.213Z" stroke="#7B61FF" stroke-width="2" stroke-linecap="round" stroke-linejoin="round"/>
<path fill-rule="evenodd" clip-rule="evenodd" d="M544.145 306.394L512 234L479.855 306.394L405.934 277.934L434.394 351.855L362 384L434.394 416.145L405.934 490.066L479.855 461.606L512 534L544.145 461.606L618.066 490.066L589.606 416.145L662 384L589.606 351.855L618.066 277.934L544.145 306.394ZM480.18 460.82C500.554 469.259 523.446 469.259 543.82 460.82C564.194 452.381 580.381 436.194 588.82 415.82C597.259 395.446 597.259 372.554 588.82 352.18C580.381 331.806 564.194 315.619 543.82 307.18C523.446 298.741 500.554 298.741 480.18 307.18C459.806 315.619 443.619 331.806 435.18 352.18C426.741 372.554 426.741 395.446 435.18 415.82C443.619 436.194 459.806 452.381 480.18 460.82Z" fill="#888888" fill-opacity="0.5"/>
<path d="M512 234L516.57 231.971C515.768 230.164 513.977 229 512 229C510.023 229 508.232 230.164 507.43 231.971L512 234ZM544.145 306.394L539.576 308.423C540.657 310.858 543.456 312.017 545.942 311.06L544.145 306.394ZM479.855 306.394L478.058 311.06C480.544 312.017 483.343 310.858 484.424 308.423L479.855 306.394ZM405.934 277.934L407.73 273.268C405.886 272.558 403.796 273.001 402.398 274.398C401.001 275.796 400.558 277.886 401.268 279.73L405.934 277.934ZM434.394 351.855L436.423 356.424C438.858 355.343 440.017 352.544 439.06 350.058L434.394 351.855ZM362 384L359.971 379.43C358.164 380.232 357 382.023 357 384C357 385.977 358.164 387.768 359.971 388.57L362 384ZM434.394 416.145L439.06 417.942C440.017 415.456 438.858 412.657 436.423 411.576L434.394 416.145ZM405.934 490.066L401.268 488.27C400.558 490.114 401.001 492.204 402.398 493.602C403.796 494.999 405.886 495.442 407.73 494.732L405.934 490.066ZM479.855 461.606L484.424 459.577C483.343 457.142 480.544 455.983 478.058 456.94L479.855 461.606ZM512 534L507.43 536.029C508.232 537.836 510.023 539 512 539C513.977 539 515.768 537.836 516.57 536.029L512 534ZM544.145 461.606L545.942 456.94C543.456 455.983 540.657 457.142 539.576 459.577L544.145 461.606ZM618.066 490.066L616.27 494.732C618.114 495.442 620.204 494.999 621.602 493.602C622.999 492.204 623.442 490.114 622.732 488.27L618.066 490.066ZM589.606 416.145L587.577 411.576C585.142 412.657 583.983 415.456 584.94 417.942L589.606 416.145ZM662 384L664.029 388.57C665.836 387.768 667 385.977 667 384C667 382.023 665.836 380.232 664.029 379.43L662 384ZM589.606 351.855L584.94 350.058C583.983 352.544 585.142 355.343 587.577 356.424L589.606 351.855ZM618.066 277.934L622.732 279.73C623.442 277.886 622.999 275.796 621.602 274.398C620.204 273.001 618.114 272.558 616.27 273.268L618.066 277.934ZM543.82 460.82L545.733 465.439L543.82 460.82ZM588.82 415.82L593.439 417.733L588.82 415.82ZM588.82 352.18L593.439 350.267V350.267L588.82 352.18ZM543.82 307.18L545.733 302.561L543.82 307.18ZM435.18 352.18L430.561 350.267V350.267L435.18 352.18ZM507.43 236.029L539.576 308.423L548.715 304.365L516.57 231.971L507.43 236.029ZM484.424 308.423L516.57 236.029L507.43 231.971L475.285 304.365L484.424 308.423ZM404.137 282.6L478.058 311.06L481.651 301.728L407.73 273.268L404.137 282.6ZM439.06 350.058L410.6 276.137L401.268 279.73L429.728 353.651L439.06 350.058ZM364.029 388.57L436.423 356.424L432.365 347.285L359.971 379.43L364.029 388.57ZM436.423 411.576L364.029 379.43L359.971 388.57L432.365 420.715L436.423 411.576ZM410.6 491.863L439.06 417.942L429.728 414.349L401.268 488.27L410.6 491.863ZM478.058 456.94L404.137 485.4L407.73 494.732L481.651 466.272L478.058 456.94ZM516.57 531.971L484.424 459.577L475.285 463.635L507.43 536.029L516.57 531.971ZM539.576 459.577L507.43 531.971L516.57 536.029L548.715 463.635L539.576 459.577ZM619.863 485.4L545.942 456.94L542.349 466.272L616.27 494.732L619.863 485.4ZM584.94 417.942L613.4 491.863L622.732 488.27L594.272 414.349L584.94 417.942ZM659.971 379.43L587.577 411.576L591.635 420.715L664.029 388.57L659.971 379.43ZM587.577 356.424L659.971 388.57L664.029 379.43L591.635 347.285L587.577 356.424ZM613.4 276.137L584.94 350.058L594.272 353.651L622.732 279.73L613.4 276.137ZM545.942 311.06L619.863 282.6L616.27 273.268L542.349 301.728L545.942 311.06ZM541.906 456.2C522.758 464.132 501.242 464.132 482.094 456.2L478.267 465.439C499.866 474.386 524.134 474.386 545.733 465.439L541.906 456.2ZM584.2 413.906C576.269 433.055 561.055 448.269 541.906 456.2L545.733 465.439C567.332 456.493 584.493 439.332 593.439 417.733L584.2 413.906ZM584.2 354.094C592.132 373.242 592.132 394.758 584.2 413.906L593.439 417.733C602.386 396.134 602.386 371.866 593.439 350.267L584.2 354.094ZM541.906 311.8C561.055 319.731 576.269 334.945 584.2 354.094L593.439 350.267C584.493 328.668 567.332 311.507 545.733 302.561L541.906 311.8ZM482.094 311.8C501.242 303.868 522.758 303.868 541.906 311.8L545.733 302.561C524.134 293.614 499.866 293.614 478.267 302.561L482.094 311.8ZM439.8 354.094C447.731 334.945 462.945 319.731 482.094 311.8L478.267 302.561C456.668 311.507 439.507 328.668 430.561 350.267L439.8 354.094ZM439.8 413.906C431.868 394.758 431.868 373.242 439.8 354.094L430.561 350.267C421.614 371.866 421.614 396.134 430.561 417.733L439.8 413.906ZM482.094 456.2C462.945 448.269 447.731 433.055 439.8 413.906L430.561 417.733C439.507 439.332 456.668 456.493 478.267 465.439L482.094 456.2Z" fill="currentColor"/>
<path d="M492.555 430.945C505.005 436.103 518.995 436.103 531.445 430.945C543.896 425.788 553.788 415.896 558.945 403.445C564.103 390.995 564.103 377.005 558.945 364.555C553.788 352.104 543.896 342.212 531.445 337.055C518.995 331.897 505.005 331.897 492.555 337.055C480.104 342.212 470.212 352.104 465.055 364.555C459.897 377.005 459.897 390.995 465.055 403.445C470.212 415.896 480.104 425.788 492.555 430.945Z" fill="#888888" fill-opacity="0.5" stroke="currentColor" stroke-width="10" stroke-linecap="round" stroke-linejoin="round"/>
<path d="M512 234L544.145 306.394L618.066 277.934L589.606 351.855L662 384L589.606 416.145L618.066 490.066L544.145 461.606L512 534L479.855 461.606L405.934 490.066L434.394 416.145L362 384L434.394 351.855L405.934 277.934L479.855 306.394L512 234Z" stroke="currentColor" stroke-width="2.5" stroke-linecap="round" stroke-linejoin="round"/>
<path d="M543.82 460.82C523.446 469.259 500.554 469.259 480.18 460.82V460.82C459.806 452.381 443.619 436.194 435.18 415.82V415.82C426.741 395.446 426.741 372.554 435.18 352.18V352.18C443.619 331.806 459.806 315.619 480.18 307.18V307.18C500.554 298.741 523.446 298.741 543.82 307.18V307.18C564.194 315.619 580.381 331.806 588.82 352.18V352.18C597.259 372.554 597.259 395.446 588.82 415.82V415.82C580.381 436.194 564.194 452.381 543.82 460.82V460.82Z" stroke="currentColor" stroke-width="2.5" stroke-linecap="round" stroke-linejoin="round"/>
<path d="M492.555 430.945C505.005 436.103 518.995 436.103 531.445 430.945V430.945C543.896 425.788 553.788 415.896 558.945 403.445V403.445C564.103 390.995 564.103 377.005 558.945 364.555V364.555C553.788 352.104 543.896 342.212 531.445 337.055V337.055C518.995 331.897 505.005 331.897 492.555 337.055V337.055C480.104 342.212 470.212 352.104 465.055 364.555V364.555C459.897 377.005 459.897 390.995 465.055 403.445V403.445C470.212 415.896 480.104 425.788 492.555 430.945V430.945Z" stroke="currentColor" stroke-width="2.5" stroke-linecap="round" stroke-linejoin="round"/>
<path d="M160 612L160.914 611.594C160.754 611.233 160.395 611 160 611C159.605 611 159.246 611.233 159.086 611.594L160 612ZM172.858 640.958L171.944 641.363C172.16 641.85 172.72 642.082 173.217 641.891L172.858 640.958ZM147.142 640.958L146.783 641.891C147.28 642.082 147.84 641.85 148.056 641.363L147.142 640.958ZM117.574 629.574L117.933 628.64C117.564 628.498 117.146 628.587 116.866 628.866C116.587 629.146 116.498 629.564 116.64 629.933L117.574 629.574ZM128.958 659.142L129.363 660.056C129.85 659.84 130.082 659.28 129.891 658.783L128.958 659.142ZM100 672L99.5942 671.086C99.2329 671.246 99 671.605 99 672C99 672.395 99.2329 672.754 99.5942 672.914L100 672ZM128.958 684.858L129.891 685.217C130.082 684.72 129.85 684.16 129.363 683.944L128.958 684.858ZM117.574 714.426L116.64 714.067C116.498 714.436 116.587 714.854 116.866 715.134C117.146 715.413 117.564 715.502 117.933 715.36L117.574 714.426ZM147.142 703.042L148.056 702.637C147.84 702.15 147.28 701.918 146.783 702.109L147.142 703.042ZM160 732L159.086 732.406C159.246 732.767 159.605 733 160 733C160.395 733 160.754 732.767 160.914 732.406L160 732ZM172.858 703.042L173.217 702.109C172.72 701.918 172.16 702.15 171.944 702.637L172.858 703.042ZM202.426 714.426L202.067 715.36C202.436 715.502 202.854 715.413 203.134 715.134C203.413 714.854 203.502 714.436 203.36 714.067L202.426 714.426ZM191.042 684.858L190.637 683.944C190.15 684.16 189.918 684.72 190.109 685.217L191.042 684.858ZM220 672L220.406 672.914C220.767 672.754 221 672.395 221 672C221 671.605 220.767 671.246 220.406 671.086L220 672ZM191.042 659.142L190.109 658.783C189.918 659.28 190.15 659.84 190.637 660.056L191.042 659.142ZM202.426 629.574L203.36 629.933C203.502 629.564 203.413 629.146 203.134 628.866C202.854 628.587 202.436 628.498 202.067 628.64L202.426 629.574ZM147.272 702.728L147.655 701.804L147.272 702.728ZM129.272 684.728L130.196 684.345L129.272 684.728ZM190.728 684.728L189.804 684.345L190.728 684.728ZM172.728 641.272L172.345 642.196L172.728 641.272ZM147.272 641.272L147.655 642.196L147.272 641.272ZM129.272 659.272L130.196 659.655L129.272 659.272ZM159.086 612.406L171.944 641.363L173.772 640.552L160.914 611.594L159.086 612.406ZM148.056 641.363L160.914 612.406L159.086 611.594L146.228 640.552L148.056 641.363ZM117.214 630.507L146.783 641.891L147.501 640.024L117.933 628.64L117.214 630.507ZM129.891 658.783L118.507 629.214L116.64 629.933L128.024 659.501L129.891 658.783ZM100.406 672.914L129.363 660.056L128.552 658.228L99.5942 671.086L100.406 672.914ZM129.363 683.944L100.406 671.086L99.5942 672.914L128.552 685.772L129.363 683.944ZM118.507 714.786L129.891 685.217L128.024 684.499L116.64 714.067L118.507 714.786ZM146.783 702.109L117.214 713.493L117.933 715.36L147.501 703.976L146.783 702.109ZM160.914 731.594L148.056 702.637L146.228 703.448L159.086 732.406L160.914 731.594ZM171.944 702.637L159.086 731.594L160.914 732.406L173.772 703.448L171.944 702.637ZM202.786 713.493L173.217 702.109L172.499 703.976L202.067 715.36L202.786 713.493ZM190.109 685.217L201.493 714.786L203.36 714.067L191.976 684.499L190.109 685.217ZM219.594 671.086L190.637 683.944L191.448 685.772L220.406 672.914L219.594 671.086ZM190.637 660.056L219.594 672.914L220.406 671.086L191.448 658.228L190.637 660.056ZM201.493 629.214L190.109 658.783L191.976 659.501L203.36 629.933L201.493 629.214ZM173.217 641.891L202.786 630.507L202.067 628.64L172.499 640.024L173.217 641.891ZM147.655 701.804C139.75 698.53 133.47 692.25 130.196 684.345L128.348 685.111C131.825 693.505 138.495 700.175 146.889 703.652L147.655 701.804ZM172.345 701.804C164.441 705.078 155.559 705.078 147.655 701.804L146.889 703.652C155.284 707.129 164.716 707.129 173.111 703.652L172.345 701.804ZM189.804 684.345C186.53 692.25 180.25 698.53 172.345 701.804L173.111 703.652C181.505 700.175 188.175 693.505 191.652 685.111L189.804 684.345ZM189.804 659.655C193.078 667.559 193.078 676.441 189.804 684.345L191.652 685.111C195.129 676.716 195.129 667.284 191.652 658.889L189.804 659.655ZM172.345 642.196C180.25 645.47 186.53 651.75 189.804 659.655L191.652 658.889C188.175 650.495 181.505 643.825 173.111 640.348L172.345 642.196ZM147.655 642.196C155.559 638.922 164.441 638.922 172.345 642.196L173.111 640.348C164.716 636.871 155.284 636.871 146.889 640.348L147.655 642.196ZM130.196 659.655C133.47 651.75 139.75 645.47 147.655 642.196L146.889 640.348C138.495 643.825 131.825 650.495 128.348 658.889L130.196 659.655ZM130.196 684.345C126.922 676.441 126.922 667.559 130.196 659.655L128.348 658.889C124.871 667.284 124.871 676.716 128.348 685.111L130.196 684.345Z" fill="currentColor"/>
<path d="M152.222 690.778C157.202 692.841 162.798 692.841 167.778 690.778V690.778C172.758 688.715 176.715 684.758 178.778 679.778V679.778C180.841 674.798 180.841 669.202 178.778 664.222V664.222C176.715 659.242 172.758 655.285 167.778 653.222V653.222C162.798 651.159 157.202 651.159 152.222 653.222V653.222C147.242 655.285 143.285 659.242 141.222 664.222V664.222C139.159 669.202 139.159 674.798 141.222 679.778V679.778C143.285 684.758 147.242 688.715 152.222 690.778V690.778Z" stroke="currentColor" stroke-width="2" stroke-linecap="round" stroke-linejoin="round"/>
<path d="M339.656 610.377L340.113 610.174V610.174L339.656 610.377ZM332.344 610.377L331.887 610.174V610.174L332.344 610.377ZM321.03 635.858L320.85 636.325C321.098 636.42 321.378 636.305 321.487 636.061L321.03 635.858ZM295.011 625.841L295.19 625.374L295.011 625.841ZM289.841 631.011L289.374 631.19L289.841 631.011ZM299.858 657.03L300.061 657.487C300.305 657.378 300.42 657.098 300.325 656.85L299.858 657.03ZM274.377 668.344L274.174 667.887H274.174L274.377 668.344ZM274.377 675.656L274.174 676.113H274.174L274.377 675.656ZM299.858 686.97L300.325 687.15C300.42 686.902 300.305 686.622 300.061 686.513L299.858 686.97ZM289.841 712.989L290.307 713.169H290.307L289.841 712.989ZM290.745 717.255L290.392 717.608H290.392L290.745 717.255ZM295.011 718.159L294.831 717.693H294.831L295.011 718.159ZM321.03 708.142L321.487 707.939C321.378 707.695 321.098 707.579 320.85 707.675L321.03 708.142ZM332.344 733.623L332.801 733.42L332.344 733.623ZM339.656 733.623L340.113 733.826L339.656 733.623ZM350.97 708.142L351.15 707.675C350.902 707.579 350.622 707.695 350.513 707.939L350.97 708.142ZM376.989 718.159L377.169 717.693L376.989 718.159ZM381.255 717.255L381.608 717.608L381.255 717.255ZM382.159 712.989L381.693 713.169L382.159 712.989ZM372.142 686.97L371.939 686.513C371.695 686.622 371.579 686.902 371.675 687.15L372.142 686.97ZM397.623 675.656L397.826 676.113L397.623 675.656ZM397.623 668.344L397.42 668.801L397.623 668.344ZM372.142 657.03L371.675 656.85C371.579 657.098 371.695 657.378 371.939 657.487L372.142 657.03ZM382.159 631.011L381.693 630.831V630.831L382.159 631.011ZM381.255 626.745L381.608 626.392V626.392L381.255 626.745ZM376.989 625.841L377.169 626.307V626.307L376.989 625.841ZM350.97 635.858L350.513 636.061C350.622 636.305 350.902 636.42 351.15 636.325L350.97 635.858ZM314.184 641.795L314.477 642.2C314.625 642.093 314.703 641.913 314.68 641.731C314.656 641.549 314.535 641.394 314.363 641.328L314.184 641.795ZM300.543 636.543L300.723 636.077C300.538 636.006 300.329 636.05 300.19 636.19C300.05 636.329 300.006 636.538 300.077 636.723L300.543 636.543ZM305.795 650.184L305.328 650.363C305.394 650.535 305.549 650.656 305.731 650.68C305.913 650.703 306.093 650.625 306.2 650.477L305.795 650.184ZM299.215 666.068L299.709 666.148C299.738 665.967 299.666 665.784 299.521 665.672C299.375 665.56 299.18 665.537 299.013 665.611L299.215 666.068ZM299.215 677.932L299.013 678.389C299.18 678.463 299.375 678.44 299.521 678.328C299.666 678.216 299.738 678.033 299.709 677.852L299.215 677.932ZM285.856 672L285.654 671.543C285.473 671.623 285.356 671.802 285.356 672C285.356 672.198 285.473 672.377 285.654 672.457L285.856 672ZM305.795 693.816L306.2 693.523C306.093 693.375 305.913 693.297 305.731 693.32C305.549 693.344 305.394 693.465 305.328 693.637L305.795 693.816ZM314.184 702.205L314.363 702.672C314.535 702.606 314.656 702.451 314.68 702.269C314.703 702.087 314.625 701.907 314.477 701.8L314.184 702.205ZM300.543 707.457L300.077 707.277C300.006 707.462 300.05 707.671 300.19 707.81C300.329 707.95 300.538 707.994 300.723 707.923L300.543 707.457ZM330.068 708.785L330.148 708.291C329.967 708.262 329.784 708.334 329.672 708.479C329.56 708.625 329.537 708.82 329.611 708.987L330.068 708.785ZM341.932 708.785L342.389 708.987C342.463 708.82 342.44 708.625 342.328 708.479C342.216 708.334 342.033 708.262 341.852 708.291L341.932 708.785ZM336 722.144L335.543 722.346C335.623 722.527 335.802 722.644 336 722.644C336.198 722.644 336.377 722.527 336.457 722.346L336 722.144ZM357.816 702.205L357.523 701.8C357.375 701.907 357.297 702.087 357.32 702.269C357.344 702.451 357.465 702.606 357.637 702.672L357.816 702.205ZM366.205 693.816L366.672 693.637C366.606 693.465 366.451 693.344 366.269 693.32C366.087 693.297 365.907 693.375 365.8 693.523L366.205 693.816ZM371.457 707.457L371.277 707.923C371.462 707.994 371.671 707.95 371.81 707.81C371.95 707.671 371.994 707.462 371.923 707.277L371.457 707.457ZM372.785 677.932L372.291 677.852C372.262 678.033 372.334 678.216 372.479 678.328C372.625 678.44 372.82 678.463 372.987 678.389L372.785 677.932ZM372.785 666.068L372.987 665.611C372.82 665.537 372.625 665.56 372.479 665.672C372.334 665.784 372.262 665.967 372.291 666.148L372.785 666.068ZM386.144 672L386.346 672.457C386.527 672.377 386.644 672.198 386.644 672C386.644 671.802 386.527 671.623 386.346 671.543L386.144 672ZM366.205 650.184L365.8 650.477C365.907 650.625 366.087 650.703 366.269 650.68C366.451 650.656 366.606 650.535 366.672 650.363L366.205 650.184ZM357.816 641.795L357.637 641.328C357.465 641.394 357.344 641.549 357.32 641.731C357.297 641.913 357.375 642.093 357.523 642.2L357.816 641.795ZM371.457 636.543L371.923 636.723C371.994 636.538 371.95 636.329 371.81 636.19C371.671 636.05 371.462 636.006 371.277 636.077L371.457 636.543ZM341.932 635.215L341.852 635.709C342.033 635.738 342.216 635.666 342.328 635.521C342.44 635.375 342.463 635.18 342.389 635.013L341.932 635.215ZM330.068 635.215L329.611 635.013C329.537 635.18 329.56 635.375 329.672 635.521C329.784 635.666 329.967 635.738 330.148 635.709L330.068 635.215ZM336 621.856L336.457 621.654C336.377 621.473 336.198 621.356 336 621.356C335.802 621.356 335.623 621.473 335.543 621.654L336 621.856ZM324.803 644.968L324.611 644.506L324.803 644.968ZM308.968 660.803L308.506 660.611L308.968 660.803ZM347.197 644.968L347.389 644.506L347.197 644.968ZM363.032 660.803L362.57 660.994L363.032 660.803ZM324.803 699.032L324.994 698.57L324.803 699.032ZM308.968 683.197L308.506 683.389L308.968 683.197ZM326.691 694.474L326.5 694.936L326.691 694.474ZM345.309 694.474L345.5 694.936L345.309 694.474ZM313.526 662.691L313.988 662.882L313.526 662.691ZM326.691 649.526L326.882 649.988L326.691 649.526ZM351.083 665.753L350.621 665.944L351.083 665.753ZM342.247 656.917L342.056 657.379L342.247 656.917ZM329.753 656.917L329.561 656.455L329.753 656.917ZM320.917 665.753L320.455 665.561L320.917 665.753ZM320.917 678.247L321.379 678.056L320.917 678.247ZM336 608.5C337.384 608.5 338.637 609.315 339.199 610.58L340.113 610.174C339.391 608.548 337.779 607.5 336 607.5V608.5ZM332.801 610.58C333.363 609.315 334.616 608.5 336 608.5V607.5C334.221 607.5 332.609 608.548 331.887 610.174L332.801 610.58ZM321.487 636.061L332.801 610.58L331.887 610.174L320.573 635.655L321.487 636.061ZM294.831 626.307L320.85 636.325L321.209 635.392L295.19 625.374L294.831 626.307ZM291.099 627.099C292.077 626.12 293.54 625.81 294.831 626.307L295.19 625.374C293.53 624.735 291.649 625.134 290.392 626.392L291.099 627.099ZM290.307 630.831C289.81 629.54 290.12 628.077 291.099 627.099L290.392 626.392C289.134 627.649 288.735 629.53 289.374 631.19L290.307 630.831ZM300.325 656.85L290.307 630.831L289.374 631.19L299.392 657.209L300.325 656.85ZM274.58 668.801L300.061 657.487L299.655 656.573L274.174 667.887L274.58 668.801ZM272.5 672C272.5 670.616 273.315 669.363 274.58 668.801L274.174 667.887C272.548 668.609 271.5 670.221 271.5 672H272.5ZM274.58 675.199C273.315 674.637 272.5 673.384 272.5 672H271.5C271.5 673.779 272.548 675.391 274.174 676.113L274.58 675.199ZM300.061 686.513L274.58 675.199L274.174 676.113L299.655 687.427L300.061 686.513ZM290.307 713.169L300.325 687.15L299.392 686.791L289.374 712.81L290.307 713.169ZM291.099 716.901C290.12 715.923 289.81 714.46 290.307 713.169L289.374 712.81C288.735 714.47 289.134 716.351 290.392 717.608L291.099 716.901ZM294.831 717.693C293.54 718.19 292.077 717.88 291.099 716.901L290.392 717.608C291.649 718.866 293.53 719.265 295.19 718.626L294.831 717.693ZM320.85 707.675L294.831 717.693L295.19 718.626L321.209 708.608L320.85 707.675ZM332.801 733.42L321.487 707.939L320.573 708.345L331.887 733.826L332.801 733.42ZM336 735.5C334.616 735.5 333.363 734.685 332.801 733.42L331.887 733.826C332.609 735.452 334.221 736.5 336 736.5V735.5ZM339.199 733.42C338.637 734.685 337.384 735.5 336 735.5V736.5C337.779 736.5 339.391 735.452 340.113 733.826L339.199 733.42ZM350.513 707.939L339.199 733.42L340.113 733.826L351.427 708.345L350.513 707.939ZM377.169 717.693L351.15 707.675L350.791 708.608L376.81 718.626L377.169 717.693ZM380.901 716.901C379.923 717.88 378.46 718.19 377.169 717.693L376.81 718.626C378.47 719.265 380.351 718.866 381.608 717.608L380.901 716.901ZM381.693 713.169C382.19 714.46 381.88 715.923 380.901 716.901L381.608 717.608C382.866 716.351 383.265 714.47 382.626 712.81L381.693 713.169ZM371.675 687.15L381.693 713.169L382.626 712.81L372.608 686.791L371.675 687.15ZM397.42 675.199L371.939 686.513L372.345 687.427L397.826 676.113L397.42 675.199ZM399.5 672C399.5 673.384 398.685 674.637 397.42 675.199L397.826 676.113C399.452 675.391 400.5 673.779 400.5 672H399.5ZM397.42 668.801C398.685 669.363 399.5 670.616 399.5 672H400.5C400.5 670.221 399.452 668.609 397.826 667.887L397.42 668.801ZM371.939 657.487L397.42 668.801L397.826 667.887L372.345 656.573L371.939 657.487ZM381.693 630.831L371.675 656.85L372.608 657.209L382.626 631.19L381.693 630.831ZM380.901 627.099C381.88 628.077 382.19 629.54 381.693 630.831L382.626 631.19C383.265 629.53 382.866 627.649 381.608 626.392L380.901 627.099ZM377.169 626.307C378.46 625.81 379.923 626.12 380.901 627.099L381.608 626.392C380.351 625.134 378.47 624.735 376.81 625.374L377.169 626.307ZM351.15 636.325L377.169 626.307L376.81 625.374L350.791 635.392L351.15 636.325ZM339.199 610.58L350.513 636.061L351.427 635.655L340.113 610.174L339.199 610.58ZM314.363 641.328L300.723 636.077L300.364 637.01L314.004 642.262L314.363 641.328ZM306.2 650.477C308.499 647.294 311.294 644.499 314.477 642.2L313.891 641.39C310.622 643.751 307.751 646.622 305.39 649.891L306.2 650.477ZM300.077 636.723L305.328 650.363L306.262 650.004L301.01 636.364L300.077 636.723ZM298.722 665.989C298.08 669.97 298.08 674.03 298.722 678.011L299.709 677.852C299.084 673.976 299.084 670.024 299.709 666.148L298.722 665.989ZM286.059 672.457L299.418 666.525L299.013 665.611L285.654 671.543L286.059 672.457ZM299.418 677.475L286.059 671.543L285.654 672.457L299.013 678.389L299.418 677.475ZM305.39 694.109C307.751 697.378 310.622 700.249 313.891 702.61L314.477 701.8C311.294 699.501 308.499 696.706 306.2 693.523L305.39 694.109ZM301.01 707.636L306.262 693.996L305.328 693.637L300.077 707.277L301.01 707.636ZM314.004 701.738L300.364 706.99L300.723 707.923L314.363 702.672L314.004 701.738ZM329.989 709.278C333.97 709.92 338.03 709.92 342.011 709.278L341.852 708.291C337.976 708.916 334.024 708.916 330.148 708.291L329.989 709.278ZM336.457 721.941L330.525 708.582L329.611 708.987L335.543 722.346L336.457 721.941ZM341.475 708.582L335.543 721.941L336.457 722.346L342.389 708.987L341.475 708.582ZM358.109 702.61C361.378 700.249 364.249 697.378 366.61 694.109L365.8 693.523C363.501 696.706 360.706 699.501 357.523 701.8L358.109 702.61ZM371.636 706.99L357.996 701.738L357.637 702.672L371.277 707.923L371.636 706.99ZM365.738 693.996L370.99 707.636L371.923 707.277L366.672 693.637L365.738 693.996ZM373.278 678.011C373.92 674.03 373.92 669.97 373.278 665.989L372.291 666.148C372.916 670.024 372.916 673.976 372.291 677.852L373.278 678.011ZM385.941 671.543L372.582 677.475L372.987 678.389L386.346 672.457L385.941 671.543ZM372.582 666.525L385.941 672.457L386.346 671.543L372.987 665.611L372.582 666.525ZM366.61 649.891C364.249 646.622 361.378 643.751 358.109 641.39L357.523 642.2C360.706 644.499 363.501 647.294 365.8 650.477L366.61 649.891ZM370.99 636.364L365.738 650.004L366.672 650.363L371.923 636.723L370.99 636.364ZM357.996 642.262L371.636 637.01L371.277 636.077L357.637 641.328L357.996 642.262ZM342.011 634.722C338.03 634.08 333.97 634.08 329.989 634.722L330.148 635.709C334.024 635.084 337.976 635.084 341.852 635.709L342.011 634.722ZM335.543 622.059L341.475 635.418L342.389 635.013L336.457 621.654L335.543 622.059ZM330.525 635.418L336.457 622.059L335.543 621.654L329.611 635.013L330.525 635.418ZM324.611 644.506C317.32 647.526 311.526 653.32 308.506 660.611L309.43 660.994C312.348 653.947 317.947 648.348 324.994 645.43L324.611 644.506ZM347.389 644.506C340.097 641.485 331.903 641.485 324.611 644.506L324.994 645.43C332.041 642.511 339.959 642.511 347.006 645.43L347.389 644.506ZM363.494 660.611C360.474 653.32 354.68 647.526 347.389 644.506L347.006 645.43C354.053 648.348 359.652 653.947 362.57 660.994L363.494 660.611ZM363.494 683.389C366.515 676.097 366.515 667.903 363.494 660.611L362.57 660.994C365.489 668.041 365.489 675.959 362.57 683.006L363.494 683.389ZM347.389 699.494C354.68 696.474 360.474 690.68 363.494 683.389L362.57 683.006C359.652 690.053 354.053 695.652 347.006 698.57L347.389 699.494ZM324.611 699.494C331.903 702.515 340.097 702.515 347.389 699.494L347.006 698.57C339.959 701.489 332.041 701.489 324.994 698.57L324.611 699.494ZM308.506 683.389C311.526 690.68 317.32 696.474 324.611 699.494L324.994 698.57C317.947 695.652 312.348 690.053 309.43 683.006L308.506 683.389ZM308.506 660.611C305.485 667.903 305.485 676.097 308.506 683.389L309.43 683.006C306.511 675.959 306.511 668.041 309.43 660.994L308.506 660.611ZM326.5 694.936C332.583 697.455 339.417 697.455 345.5 694.936L345.118 694.012C339.28 696.43 332.72 696.43 326.882 694.012L326.5 694.936ZM313.064 681.5C315.584 687.583 320.417 692.416 326.5 694.936L326.882 694.012C321.045 691.594 316.406 686.955 313.988 681.118L313.064 681.5ZM313.064 662.5C310.545 668.583 310.545 675.417 313.064 681.5L313.988 681.118C311.57 675.28 311.57 668.72 313.988 662.882L313.064 662.5ZM326.5 649.064C320.417 651.584 315.584 656.417 313.064 662.5L313.988 662.882C316.406 657.045 321.045 652.406 326.882 649.988L326.5 649.064ZM345.5 649.064C339.417 646.545 332.583 646.545 326.5 649.064L326.882 649.988C332.72 647.57 339.28 647.57 345.118 649.988L345.5 649.064ZM358.936 662.5C356.416 656.417 351.583 651.584 345.5 649.064L345.118 649.988C350.955 652.406 355.594 657.045 358.012 662.882L358.936 662.5ZM358.936 681.5C361.455 675.417 361.455 668.583 358.936 662.5L358.012 662.882C360.43 668.72 360.43 675.28 358.012 681.118L358.936 681.5ZM345.5 694.936C351.583 692.416 356.416 687.583 358.936 681.5L358.012 681.118C355.594 686.955 350.955 691.594 345.118 694.012L345.5 694.936ZM342.056 686.621C338.178 688.227 333.822 688.227 329.944 686.621L329.561 687.545C333.684 689.252 338.316 689.252 342.439 687.545L342.056 686.621ZM350.621 678.056C349.015 681.934 345.934 685.015 342.056 686.621L342.439 687.545C346.561 685.837 349.837 682.561 351.545 678.439L350.621 678.056ZM350.621 665.944C352.227 669.822 352.227 674.178 350.621 678.056L351.545 678.439C353.252 674.316 353.252 669.684 351.545 665.561L350.621 665.944ZM342.056 657.379C345.934 658.985 349.015 662.066 350.621 665.944L351.545 665.561C349.837 661.439 346.561 658.163 342.439 656.455L342.056 657.379ZM329.944 657.379C333.822 655.773 338.178 655.773 342.056 657.379L342.439 656.455C338.316 654.748 333.684 654.748 329.561 656.455L329.944 657.379ZM321.379 665.944C322.985 662.066 326.066 658.985 329.944 657.379L329.561 656.455C325.439 658.163 322.163 661.439 320.455 665.561L321.379 665.944ZM321.379 678.056C319.773 674.178 319.773 669.822 321.379 665.944L320.455 665.561C318.748 669.684 318.748 674.316 320.455 678.439L321.379 678.056ZM329.944 686.621C326.066 685.015 322.985 681.934 321.379 678.056L320.455 678.439C322.163 682.561 325.439 685.837 329.561 687.545L329.944 686.621Z" fill="currentColor"/>
<path fill-rule="evenodd" clip-rule="evenodd" d="M524.858 640.958L512 612L499.142 640.958L469.574 629.574L480.958 659.142L452 672L480.958 684.858L469.574 714.426L499.142 703.042L512 732L524.858 703.042L554.426 714.426L543.042 684.858L572 672L543.042 659.142L554.426 629.574L524.858 640.958ZM481.272 684.728C484.648 692.877 491.123 699.352 499.272 702.728C507.422 706.104 516.578 706.104 524.728 702.728C532.877 699.352 539.352 692.877 542.728 684.728C546.104 676.578 546.104 667.422 542.728 659.272C539.352 651.123 532.877 644.648 524.728 641.272C516.578 637.896 507.422 637.896 499.272 641.272C491.123 644.648 484.648 651.123 481.272 659.272C477.896 667.422 477.896 676.578 481.272 684.728Z" fill="currentColor"/>
<path d="M512 612L513.828 611.188C513.507 610.466 512.791 610 512 610C511.209 610 510.493 610.466 510.172 611.188L512 612ZM524.858 640.958L523.03 641.769C523.463 642.743 524.582 643.207 525.577 642.824L524.858 640.958ZM499.142 640.958L498.423 642.824C499.418 643.207 500.537 642.743 500.97 641.769L499.142 640.958ZM469.574 629.574L470.292 627.707C469.554 627.423 468.718 627.6 468.159 628.159C467.6 628.718 467.423 629.554 467.707 630.292L469.574 629.574ZM480.958 659.142L481.769 660.97C482.743 660.537 483.207 659.418 482.824 658.423L480.958 659.142ZM452 672L451.188 670.172C450.466 670.493 450 671.209 450 672C450 672.791 450.466 673.507 451.188 673.828L452 672ZM480.958 684.858L482.824 685.577C483.207 684.582 482.743 683.463 481.769 683.03L480.958 684.858ZM469.574 714.426L467.707 713.708C467.423 714.446 467.6 715.282 468.159 715.841C468.718 716.4 469.554 716.577 470.292 716.293L469.574 714.426ZM499.142 703.042L500.97 702.231C500.537 701.257 499.418 700.793 498.423 701.176L499.142 703.042ZM512 732L510.172 732.812C510.493 733.534 511.209 734 512 734C512.791 734 513.507 733.534 513.828 732.812L512 732ZM524.858 703.042L525.577 701.176C524.582 700.793 523.463 701.257 523.03 702.231L524.858 703.042ZM554.426 714.426L553.708 716.293C554.446 716.577 555.282 716.4 555.841 715.841C556.4 715.282 556.577 714.446 556.293 713.708L554.426 714.426ZM543.042 684.858L542.231 683.03C541.257 683.463 540.793 684.582 541.176 685.577L543.042 684.858ZM572 672L572.812 673.828C573.534 673.507 574 672.791 574 672C574 671.209 573.534 670.493 572.812 670.172L572 672ZM543.042 659.142L541.176 658.423C540.793 659.418 541.257 660.537 542.231 660.97L543.042 659.142ZM554.426 629.574L556.293 630.292C556.577 629.554 556.4 628.718 555.841 628.159C555.282 627.6 554.446 627.423 553.708 627.707L554.426 629.574ZM499.272 702.728L500.037 700.88L499.272 702.728ZM481.272 684.728L483.12 683.963L481.272 684.728ZM542.728 684.728L540.88 683.963L542.728 684.728ZM524.728 641.272L523.963 643.12L524.728 641.272ZM499.272 641.272L500.037 643.12L499.272 641.272ZM481.272 659.272L483.12 660.037L481.272 659.272ZM510.172 612.812L523.03 641.769L526.686 640.146L513.828 611.188L510.172 612.812ZM500.97 641.769L513.828 612.812L510.172 611.188L497.314 640.146L500.97 641.769ZM468.855 631.44L498.423 642.824L499.86 639.091L470.292 627.707L468.855 631.44ZM482.824 658.423L471.44 628.855L467.707 630.292L479.091 659.86L482.824 658.423ZM452.812 673.828L481.769 660.97L480.146 657.314L451.188 670.172L452.812 673.828ZM481.769 683.03L452.812 670.172L451.188 673.828L480.146 686.686L481.769 683.03ZM471.44 715.145L482.824 685.577L479.091 684.14L467.707 713.708L471.44 715.145ZM498.423 701.176L468.855 712.56L470.292 716.293L499.86 704.909L498.423 701.176ZM513.828 731.188L500.97 702.231L497.314 703.854L510.172 732.812L513.828 731.188ZM523.03 702.231L510.172 731.188L513.828 732.812L526.686 703.854L523.03 702.231ZM555.145 712.56L525.577 701.176L524.14 704.909L553.708 716.293L555.145 712.56ZM541.176 685.577L552.56 715.145L556.293 713.708L544.909 684.14L541.176 685.577ZM571.188 670.172L542.231 683.03L543.854 686.686L572.812 673.828L571.188 670.172ZM542.231 660.97L571.188 673.828L572.812 670.172L543.854 657.314L542.231 660.97ZM552.56 628.855L541.176 658.423L544.909 659.86L556.293 630.292L552.56 628.855ZM525.577 642.824L555.145 631.44L553.708 627.707L524.14 639.091L525.577 642.824ZM500.037 700.88C492.378 697.707 486.293 691.622 483.12 683.963L479.424 685.493C483.003 694.133 489.867 700.997 498.507 704.576L500.037 700.88ZM523.963 700.88C516.303 704.053 507.697 704.053 500.037 700.88L498.507 704.576C507.146 708.154 516.854 708.154 525.493 704.576L523.963 700.88ZM540.88 683.963C537.707 691.622 531.622 697.707 523.963 700.88L525.493 704.576C534.133 700.997 540.997 694.133 544.576 685.493L540.88 683.963ZM540.88 660.037C544.053 667.697 544.053 676.303 540.88 683.963L544.576 685.493C548.154 676.854 548.154 667.146 544.576 658.507L540.88 660.037ZM523.963 643.12C531.622 646.293 537.707 652.378 540.88 660.037L544.576 658.507C540.997 649.867 534.133 643.003 525.493 639.424L523.963 643.12ZM500.037 643.12C507.697 639.947 516.303 639.947 523.963 643.12L525.493 639.424C516.854 635.846 507.146 635.846 498.507 639.424L500.037 643.12ZM483.12 660.037C486.293 652.378 492.378 646.293 500.037 643.12L498.507 639.424C489.867 643.003 483.003 649.867 479.424 658.507L483.12 660.037ZM483.12 683.963C479.947 676.303 479.947 667.697 483.12 660.037L479.424 658.507C475.846 667.146 475.846 676.854 479.424 685.493L483.12 683.963Z" fill="currentColor"/>
<path d="M504.222 690.778C509.202 692.841 514.798 692.841 519.778 690.778C524.758 688.715 528.715 684.758 530.778 679.778C532.841 674.798 532.841 669.202 530.778 664.222C528.715 659.242 524.758 655.285 519.778 653.222C514.798 651.159 509.202 651.159 504.222 653.222C499.242 655.285 495.285 659.242 493.222 664.222C491.159 669.202 491.159 674.798 493.222 679.778C495.285 684.758 499.242 688.715 504.222 690.778Z" fill="currentColor" stroke="currentColor" stroke-width="4" stroke-linecap="round" stroke-linejoin="round"/>
<g opacity="0.25">
<path fill-rule="evenodd" clip-rule="evenodd" d="M700.858 640.958L688 612L675.142 640.958L645.574 629.574L656.958 659.142L628 672L656.958 684.858L645.574 714.426L675.142 703.042L688 732L700.858 703.042L730.426 714.426L719.042 684.858L748 672L719.042 659.142L730.426 629.574L700.858 640.958ZM657.272 684.728C660.648 692.877 667.123 699.352 675.272 702.728C683.422 706.104 692.578 706.104 700.728 702.728C708.877 699.352 715.352 692.877 718.728 684.728C722.104 676.578 722.104 667.422 718.728 659.272C715.352 651.123 708.877 644.648 700.728 641.272C692.578 637.896 683.422 637.896 675.272 641.272C667.123 644.648 660.648 651.123 657.272 659.272C653.896 667.422 653.896 676.578 657.272 684.728Z" fill="currentColor"/>
<path d="M688 612L689.828 611.188C689.507 610.466 688.791 610 688 610C687.209 610 686.493 610.466 686.172 611.188L688 612ZM700.858 640.958L699.03 641.769C699.463 642.743 700.582 643.207 701.577 642.824L700.858 640.958ZM675.142 640.958L674.423 642.824C675.418 643.207 676.537 642.743 676.97 641.769L675.142 640.958ZM645.574 629.574L646.292 627.707C645.554 627.423 644.718 627.6 644.159 628.159C643.6 628.718 643.423 629.554 643.707 630.292L645.574 629.574ZM656.958 659.142L657.769 660.97C658.743 660.537 659.207 659.418 658.824 658.423L656.958 659.142ZM628 672L627.188 670.172C626.466 670.493 626 671.209 626 672C626 672.791 626.466 673.507 627.188 673.828L628 672ZM656.958 684.858L658.824 685.577C659.207 684.582 658.743 683.463 657.769 683.03L656.958 684.858ZM645.574 714.426L643.707 713.708C643.423 714.446 643.6 715.282 644.159 715.841C644.718 716.4 645.554 716.577 646.292 716.293L645.574 714.426ZM675.142 703.042L676.97 702.231C676.537 701.257 675.418 700.793 674.423 701.176L675.142 703.042ZM688 732L686.172 732.812C686.493 733.534 687.209 734 688 734C688.791 734 689.507 733.534 689.828 732.812L688 732ZM700.858 703.042L701.577 701.176C700.582 700.793 699.463 701.257 699.03 702.231L700.858 703.042ZM730.426 714.426L729.708 716.293C730.446 716.577 731.282 716.4 731.841 715.841C732.4 715.282 732.577 714.446 732.293 713.708L730.426 714.426ZM719.042 684.858L718.231 683.03C717.257 683.463 716.793 684.582 717.176 685.577L719.042 684.858ZM748 672L748.812 673.828C749.534 673.507 750 672.791 750 672C750 671.209 749.534 670.493 748.812 670.172L748 672ZM719.042 659.142L717.176 658.423C716.793 659.418 717.257 660.537 718.231 660.97L719.042 659.142ZM730.426 629.574L732.293 630.292C732.577 629.554 732.4 628.718 731.841 628.159C731.282 627.6 730.446 627.423 729.708 627.707L730.426 629.574ZM675.272 702.728L676.037 700.88L675.272 702.728ZM657.272 684.728L659.12 683.963L657.272 684.728ZM718.728 684.728L716.88 683.963L718.728 684.728ZM700.728 641.272L699.963 643.12L700.728 641.272ZM675.272 641.272L676.037 643.12L675.272 641.272ZM657.272 659.272L659.12 660.037L657.272 659.272ZM686.172 612.812L699.03 641.769L702.686 640.146L689.828 611.188L686.172 612.812ZM676.97 641.769L689.828 612.812L686.172 611.188L673.314 640.146L676.97 641.769ZM644.855 631.44L674.423 642.824L675.86 639.091L646.292 627.707L644.855 631.44ZM658.824 658.423L647.44 628.855L643.707 630.292L655.091 659.86L658.824 658.423ZM628.812 673.828L657.769 660.97L656.146 657.314L627.188 670.172L628.812 673.828ZM657.769 683.03L628.812 670.172L627.188 673.828L656.146 686.686L657.769 683.03ZM647.44 715.145L658.824 685.577L655.091 684.14L643.707 713.708L647.44 715.145ZM674.423 701.176L644.855 712.56L646.292 716.293L675.86 704.909L674.423 701.176ZM689.828 731.188L676.97 702.231L673.314 703.854L686.172 732.812L689.828 731.188ZM699.03 702.231L686.172 731.188L689.828 732.812L702.686 703.854L699.03 702.231ZM731.145 712.56L701.577 701.176L700.14 704.909L729.708 716.293L731.145 712.56ZM717.176 685.577L728.56 715.145L732.293 713.708L720.909 684.14L717.176 685.577ZM747.188 670.172L718.231 683.03L719.854 686.686L748.812 673.828L747.188 670.172ZM718.231 660.97L747.188 673.828L748.812 670.172L719.854 657.314L718.231 660.97ZM728.56 628.855L717.176 658.423L720.909 659.86L732.293 630.292L728.56 628.855ZM701.577 642.824L731.145 631.44L729.708 627.707L700.14 639.091L701.577 642.824ZM676.037 700.88C668.378 697.707 662.293 691.622 659.12 683.963L655.424 685.493C659.003 694.133 665.867 700.997 674.507 704.576L676.037 700.88ZM699.963 700.88C692.303 704.053 683.697 704.053 676.037 700.88L674.507 704.576C683.146 708.154 692.854 708.154 701.493 704.576L699.963 700.88ZM716.88 683.963C713.707 691.622 707.622 697.707 699.963 700.88L701.493 704.576C710.133 700.997 716.997 694.133 720.576 685.493L716.88 683.963ZM716.88 660.037C720.053 667.697 720.053 676.303 716.88 683.963L720.576 685.493C724.154 676.854 724.154 667.146 720.576 658.507L716.88 660.037ZM699.963 643.12C707.622 646.293 713.707 652.378 716.88 660.037L720.576 658.507C716.997 649.867 710.133 643.003 701.493 639.424L699.963 643.12ZM676.037 643.12C683.697 639.947 692.303 639.947 699.963 643.12L701.493 639.424C692.854 635.846 683.146 635.846 674.507 639.424L676.037 643.12ZM659.12 660.037C662.293 652.378 668.378 646.293 676.037 643.12L674.507 639.424C665.867 643.003 659.003 649.867 655.424 658.507L659.12 660.037ZM659.12 683.963C655.947 676.303 655.947 667.697 659.12 660.037L655.424 658.507C651.846 667.146 651.846 676.854 655.424 685.493L659.12 683.963Z" fill="currentColor"/>
</g>
<path d="M680.222 690.778C685.202 692.841 690.798 692.841 695.778 690.778C700.758 688.715 704.715 684.758 706.778 679.778C708.841 674.798 708.841 669.202 706.778 664.222C704.715 659.242 700.758 655.285 695.778 653.222C690.798 651.159 685.202 651.159 680.222 653.222C675.242 655.285 671.285 659.242 669.222 664.222C667.159 669.202 667.159 674.798 669.222 679.778C671.285 684.758 675.242 688.715 680.222 690.778Z" fill="currentColor" stroke="currentColor" stroke-width="4" stroke-linecap="round" stroke-linejoin="round"/>
<path fill-rule="evenodd" clip-rule="evenodd" d="M876.858 640.958L864 612L851.142 640.958L821.574 629.574L832.958 659.142L804 672L832.958 684.858L821.574 714.426L851.142 703.042L864 732L876.858 703.042L906.426 714.426L895.042 684.858L924 672L895.042 659.142L906.426 629.574L876.858 640.958ZM833.272 684.728C836.648 692.877 843.123 699.352 851.272 702.728C859.422 706.104 868.578 706.104 876.728 702.728C884.877 699.352 891.352 692.877 894.728 684.728C898.104 676.578 898.104 667.422 894.728 659.272C891.352 651.123 884.877 644.648 876.728 641.272C868.578 637.896 859.422 637.896 851.272 641.272C843.123 644.648 836.648 651.123 833.272 659.272C829.896 667.422 829.896 676.578 833.272 684.728Z" fill="#FFA500"/>
<path d="M864 612L865.828 611.188C865.507 610.466 864.791 610 864 610C863.209 610 862.493 610.466 862.172 611.188L864 612ZM876.858 640.958L875.03 641.769C875.463 642.743 876.582 643.207 877.577 642.824L876.858 640.958ZM851.142 640.958L850.423 642.824C851.418 643.207 852.537 642.743 852.97 641.769L851.142 640.958ZM821.574 629.574L822.292 627.707C821.554 627.423 820.718 627.6 820.159 628.159C819.6 628.718 819.423 629.554 819.707 630.292L821.574 629.574ZM832.958 659.142L833.769 660.97C834.743 660.537 835.207 659.418 834.824 658.423L832.958 659.142ZM804 672L803.188 670.172C802.466 670.493 802 671.209 802 672C802 672.791 802.466 673.507 803.188 673.828L804 672ZM832.958 684.858L834.824 685.577C835.207 684.582 834.743 683.463 833.769 683.03L832.958 684.858ZM821.574 714.426L819.707 713.708C819.423 714.446 819.6 715.282 820.159 715.841C820.718 716.4 821.554 716.577 822.292 716.293L821.574 714.426ZM851.142 703.042L852.97 702.231C852.537 701.257 851.418 700.793 850.423 701.176L851.142 703.042ZM864 732L862.172 732.812C862.493 733.534 863.209 734 864 734C864.791 734 865.507 733.534 865.828 732.812L864 732ZM876.858 703.042L877.577 701.176C876.582 700.793 875.463 701.257 875.03 702.231L876.858 703.042ZM906.426 714.426L905.708 716.293C906.446 716.577 907.282 716.4 907.841 715.841C908.4 715.282 908.577 714.446 908.293 713.708L906.426 714.426ZM895.042 684.858L894.231 683.03C893.257 683.463 892.793 684.582 893.176 685.577L895.042 684.858ZM924 672L924.812 673.828C925.534 673.507 926 672.791 926 672C926 671.209 925.534 670.493 924.812 670.172L924 672ZM895.042 659.142L893.176 658.423C892.793 659.418 893.257 660.537 894.231 660.97L895.042 659.142ZM906.426 629.574L908.293 630.292C908.577 629.554 908.4 628.718 907.841 628.159C907.282 627.6 906.446 627.423 905.708 627.707L906.426 629.574ZM851.272 702.728L852.037 700.88L851.272 702.728ZM833.272 684.728L835.12 683.963L833.272 684.728ZM894.728 684.728L892.88 683.963L894.728 684.728ZM876.728 641.272L875.963 643.12L876.728 641.272ZM851.272 641.272L852.037 643.12L851.272 641.272ZM833.272 659.272L835.12 660.037L833.272 659.272ZM862.172 612.812L875.03 641.769L878.686 640.146L865.828 611.188L862.172 612.812ZM852.97 641.769L865.828 612.812L862.172 611.188L849.314 640.146L852.97 641.769ZM820.855 631.44L850.423 642.824L851.86 639.091L822.292 627.707L820.855 631.44ZM834.824 658.423L823.44 628.855L819.707 630.292L831.091 659.86L834.824 658.423ZM804.812 673.828L833.769 660.97L832.146 657.314L803.188 670.172L804.812 673.828ZM833.769 683.03L804.812 670.172L803.188 673.828L832.146 686.686L833.769 683.03ZM823.44 715.145L834.824 685.577L831.091 684.14L819.707 713.708L823.44 715.145ZM850.423 701.176L820.855 712.56L822.292 716.293L851.86 704.909L850.423 701.176ZM865.828 731.188L852.97 702.231L849.314 703.854L862.172 732.812L865.828 731.188ZM875.03 702.231L862.172 731.188L865.828 732.812L878.686 703.854L875.03 702.231ZM907.145 712.56L877.577 701.176L876.14 704.909L905.708 716.293L907.145 712.56ZM893.176 685.577L904.56 715.145L908.293 713.708L896.909 684.14L893.176 685.577ZM923.188 670.172L894.231 683.03L895.854 686.686L924.812 673.828L923.188 670.172ZM894.231 660.97L923.188 673.828L924.812 670.172L895.854 657.314L894.231 660.97ZM904.56 628.855L893.176 658.423L896.909 659.86L908.293 630.292L904.56 628.855ZM877.577 642.824L907.145 631.44L905.708 627.707L876.14 639.091L877.577 642.824ZM852.037 700.88C844.378 697.707 838.293 691.622 835.12 683.963L831.424 685.493C835.003 694.133 841.867 700.997 850.507 704.576L852.037 700.88ZM875.963 700.88C868.303 704.053 859.697 704.053 852.037 700.88L850.507 704.576C859.146 708.154 868.854 708.154 877.493 704.576L875.963 700.88ZM892.88 683.963C889.707 691.622 883.622 697.707 875.963 700.88L877.493 704.576C886.133 700.997 892.997 694.133 896.576 685.493L892.88 683.963ZM892.88 660.037C896.053 667.697 896.053 676.303 892.88 683.963L896.576 685.493C900.154 676.854 900.154 667.146 896.576 658.507L892.88 660.037ZM875.963 643.12C883.622 646.293 889.707 652.378 892.88 660.037L896.576 658.507C892.997 649.867 886.133 643.003 877.493 639.424L875.963 643.12ZM852.037 643.12C859.697 639.947 868.303 639.947 875.963 643.12L877.493 639.424C868.854 635.846 859.146 635.846 850.507 639.424L852.037 643.12ZM835.12 660.037C838.293 652.378 844.378 646.293 852.037 643.12L850.507 639.424C841.867 643.003 835.003 649.867 831.424 658.507L835.12 660.037ZM835.12 683.963C831.947 676.303 831.947 667.697 835.12 660.037L831.424 658.507C827.846 667.146 827.846 676.854 831.424 685.493L835.12 683.963Z" fill="#FFA500"/>
<path d="M856.222 690.778C861.202 692.841 866.798 692.841 871.778 690.778C876.758 688.715 880.715 684.758 882.778 679.778C884.841 674.798 884.841 669.202 882.778 664.222C880.715 659.242 876.758 655.285 871.778 653.222C866.798 651.159 861.202 651.159 856.222 653.222C851.242 655.285 847.285 659.242 845.222 664.222C843.159 669.202 843.159 674.798 845.222 679.778C847.285 684.758 851.242 688.715 856.222 690.778Z" fill="#FFD700" stroke="#FFD700" stroke-width="4" stroke-linecap="round" stroke-linejoin="round"/>
</svg>
