<svg viewBox="0 0 1024 768" fill="none" xmlns="http://www.w3.org/2000/svg">
<path d="M419.181 54.9926C420.449 49.9936 427.551 49.9936 428.819 54.9926V54.9926C429.817 58.923 434.846 60.071 437.45 56.9625V56.9625C440.762 53.009 447.161 56.0904 446.135 61.1447V61.1447C445.328 65.1186 449.361 68.3351 453.056 66.6643V66.6643C457.755 64.5393 462.183 70.0917 459.066 74.2003V74.2003C456.615 77.4306 458.853 82.0787 462.907 82.1764V82.1764C468.063 82.3007 469.643 89.2245 465.052 91.5736V91.5736C461.442 93.4205 461.442 98.5795 465.052 100.426V100.426C469.643 102.775 468.063 109.699 462.907 109.824V109.824C458.853 109.921 456.615 114.569 459.066 117.8V117.8C462.183 121.908 457.755 127.461 453.056 125.336V125.336C449.361 123.665 445.328 126.881 446.135 130.855V130.855C447.161 135.91 440.762 138.991 437.45 135.037V135.037C434.846 131.929 429.817 133.077 428.819 137.007V137.007C427.551 142.006 420.449 142.006 419.181 137.007V137.007C418.183 133.077 413.154 131.929 410.55 135.037V135.037C407.238 138.991 400.839 135.91 401.865 130.855V130.855C402.672 126.881 398.639 123.665 394.944 125.336V125.336C390.245 127.461 385.817 121.908 388.934 117.8V117.8C391.385 114.569 389.147 109.921 385.093 109.824V109.824C379.937 109.699 378.357 102.775 382.948 100.426V100.426C386.558 98.5795 386.558 93.4205 382.948 91.5736V91.5736C378.357 89.2245 379.937 82.3007 385.093 82.1764V82.1764C389.147 82.0787 391.385 77.4306 388.934 74.2003V74.2003C385.817 70.0917 390.245 64.5393 394.944 66.6643V66.6643C398.639 68.3351 402.672 65.1186 401.865 61.1447V61.1447C400.839 56.0904 407.238 53.009 410.55 56.9625V56.9625C413.154 60.071 418.183 58.923 419.181 54.9926V54.9926Z" stroke="#7B61FF" stroke-width="2" stroke-linecap="round" stroke-linejoin="round"/>
<path d="M578.787 147.213C592.37 152.839 607.631 152.839 621.213 147.213V147.213C634.796 141.587 645.587 130.796 651.213 117.213V117.213C656.839 103.631 656.839 88.3694 651.213 74.7868V74.7868C645.587 61.2042 634.796 50.4129 621.213 44.7868V44.7868C607.631 39.1607 592.37 39.1607 578.787 44.7868V44.7868C565.204 50.4129 554.413 61.2042 548.787 74.7868V74.7868C543.161 88.3694 543.161 103.631 548.787 117.213V117.213C554.413 130.796 565.204 141.587 578.787 147.213V147.213Z" stroke="#7B61FF" stroke-width="2" stroke-linecap="round" stroke-linejoin="round"/>
<path fill-rule="evenodd" clip-rule="evenodd" d="M641.465 418.999H382.535C378.126 407.605 379.435 394.029 387.769 384C373.526 366.859 379.802 339.361 400.071 330.098C394.676 308.475 412.261 286.423 434.543 286.872C439.064 265.049 464.475 252.812 484.356 262.883C497.897 245.183 526.102 245.183 539.644 262.883C559.524 252.812 584.936 265.049 589.457 286.872C611.738 286.423 629.324 308.475 623.928 330.098C644.198 339.362 650.474 366.859 636.231 384C644.565 394.029 645.874 407.605 641.465 418.999Z" fill="#888888" fill-opacity="0.5"/>
<path d="M641.465 418.999V423.999C643.53 423.999 645.382 422.729 646.128 420.803L641.465 418.999ZM382.535 418.999L377.872 420.803C378.617 422.729 380.47 423.999 382.535 423.999V418.999ZM387.769 384L391.614 387.195C393.153 385.343 393.153 382.657 391.614 380.804L387.769 384ZM400.071 330.098L402.15 334.646C404.34 333.645 405.506 331.224 404.923 328.888L400.071 330.098ZM434.543 286.872L434.442 291.871C436.85 291.92 438.95 290.245 439.439 287.886L434.543 286.872ZM484.356 262.883L482.096 267.344C484.244 268.432 486.864 267.834 488.327 265.922L484.356 262.883ZM539.644 262.883L535.673 265.922C537.136 267.834 539.755 268.432 541.904 267.344L539.644 262.883ZM589.457 286.872L584.561 287.886C585.049 290.245 587.15 291.92 589.557 291.871L589.457 286.872ZM623.928 330.098L619.077 328.888C618.494 331.224 619.66 333.645 621.85 334.646L623.928 330.098ZM636.231 384L632.385 380.804C630.846 382.657 630.846 385.343 632.385 387.195L636.231 384ZM641.465 413.999H382.535V423.999H641.465V413.999ZM387.198 417.194C383.363 407.284 384.575 395.666 391.614 387.195L383.923 380.804C374.294 392.393 372.889 407.926 377.872 420.803L387.198 417.194ZM391.614 380.804C379.476 366.197 384.876 342.54 402.15 334.646L397.993 325.55C374.728 336.183 367.575 367.522 383.923 387.195L391.614 380.804ZM404.923 328.888C400.325 310.46 415.454 291.489 434.442 291.871L434.644 281.873C409.069 281.358 389.027 306.49 395.22 331.309L404.923 328.888ZM439.439 287.886C443.292 269.289 465.154 258.76 482.096 267.344L486.615 258.423C463.797 246.863 434.836 260.81 429.647 285.858L439.439 287.886ZM488.327 265.922C499.867 250.837 524.132 250.837 535.673 265.922L543.615 259.845C528.072 239.529 495.928 239.529 480.385 259.845L488.327 265.922ZM541.904 267.344C558.846 258.76 580.708 269.289 584.561 287.886L594.353 285.858C589.164 260.81 560.203 246.863 537.384 258.423L541.904 267.344ZM589.557 291.871C608.546 291.489 623.675 310.46 619.077 328.888L628.78 331.309C634.972 306.49 614.931 281.358 589.356 281.873L589.557 291.871ZM621.85 334.646C639.124 342.54 644.524 366.197 632.385 380.804L640.077 387.195C656.425 367.522 649.272 336.183 626.007 325.55L621.85 334.646ZM632.385 387.195C639.424 395.666 640.637 407.284 636.802 417.194L646.128 420.803C651.111 407.926 649.706 392.393 640.077 380.804L632.385 387.195Z" fill="currentColor"/>
<path fill-rule="evenodd" clip-rule="evenodd" d="M542 499L532 472.333V419L512 419L492 419V472.333L482 499L492 499H532L542 499Z" fill="#888888" fill-opacity="0.5"/>
<path d="M532 472.333H527C527 472.933 527.108 473.528 527.318 474.089L532 472.333ZM542 499L542 504C543.64 504 545.176 503.196 546.11 501.848C547.044 500.5 547.257 498.78 546.682 497.244L542 499ZM532 419H537C537 416.239 534.761 414 532 414L532 419ZM512 419L512 414H512L512 419ZM492 419L492 414C489.239 414 487 416.239 487 419H492ZM492 472.333L496.682 474.089C496.892 473.528 497 472.933 497 472.333H492ZM482 499L477.318 497.244C476.743 498.78 476.956 500.5 477.89 501.848C478.824 503.196 480.36 504 482 504L482 499ZM492 499L492 504H492V499ZM532 499V504H532L532 499ZM527.318 474.089L537.318 500.756L546.682 497.244L536.682 470.578L527.318 474.089ZM527 419V472.333H537V419H527ZM512 424L532 424L532 414L512 414L512 424ZM492 424L512 424L512 414L492 414L492 424ZM497 472.333V419H487V472.333H497ZM486.682 500.756L496.682 474.089L487.318 470.578L477.318 497.244L486.682 500.756ZM492 494L482 494L482 504L492 504L492 494ZM532 494H492V504H532V494ZM542 494L532 494L532 504L542 504L542 494Z" fill="currentColor"/>
<g opacity="0.25">
<path d="M500.34 284.789C503.409 272.694 520.591 272.694 523.66 284.789V284.789C526.073 294.298 538.241 297.075 544.541 289.555V289.555C552.554 279.99 568.034 287.445 565.551 299.673V299.673C563.6 309.287 573.358 317.069 582.297 313.027V313.027C593.666 307.886 604.379 321.319 596.837 331.259V331.259C590.906 339.074 596.322 350.32 606.13 350.556V350.556C618.603 350.857 622.427 367.608 611.319 373.291V373.291C602.585 377.759 602.585 390.241 611.319 394.709V394.709C622.427 400.393 618.603 417.144 606.13 417.444V417.444C596.322 417.681 590.906 428.926 596.837 436.741V436.741C604.379 446.682 593.666 460.115 582.297 454.974V454.974C573.358 450.931 563.6 458.713 565.551 468.328V468.328C568.034 480.556 552.554 488.011 544.541 478.446V478.446C538.241 470.925 526.073 473.703 523.66 483.212V483.212C520.591 495.306 503.409 495.306 500.34 483.212V483.212C497.927 473.703 485.759 470.925 479.459 478.446V478.446C471.446 488.011 455.966 480.556 458.449 468.328V468.328C460.4 458.713 450.642 450.931 441.703 454.974V454.974C430.334 460.115 419.621 446.682 427.164 436.741V436.741C433.094 428.926 427.678 417.681 417.871 417.444V417.444C405.397 417.144 401.573 400.393 412.681 394.709V394.709C421.415 390.241 421.415 377.759 412.681 373.291V373.291C401.573 367.608 405.397 350.857 417.871 350.556V350.556C427.678 350.32 433.094 339.074 427.164 331.259V331.259C419.621 321.319 430.334 307.886 441.703 313.027V313.027C450.642 317.069 460.4 309.287 458.449 299.673V299.673C455.966 287.445 471.446 279.99 479.459 289.555V289.555C485.759 297.075 497.927 294.298 500.34 284.789V284.789Z" stroke="currentColor" stroke-width="2.41935" stroke-linecap="round" stroke-linejoin="round"/>
<rect x="362" y="234" width="300" height="183.871" stroke="currentColor" stroke-width="2.41935" stroke-linecap="round" stroke-linejoin="round"/>
<path d="M512 417.871L541.032 495.29H482.968L512 417.871Z" stroke="currentColor" stroke-width="2.41935" stroke-linecap="round" stroke-linejoin="round"/>
</g>
<path d="M211.786 686V687C212.199 687 212.569 686.746 212.718 686.361L211.786 686ZM108.214 686L107.282 686.361C107.431 686.746 107.801 687 108.214 687V686ZM110.307 672L111.077 672.639C111.384 672.268 111.384 671.731 111.077 671.361L110.307 672ZM115.229 650.439L115.644 651.349C116.082 651.148 116.315 650.664 116.199 650.197L115.229 650.439ZM129.017 633.149L128.997 634.148C129.479 634.158 129.899 633.823 129.996 633.351L129.017 633.149ZM148.942 623.553L148.49 624.445C148.92 624.663 149.444 624.543 149.737 624.161L148.942 623.553ZM171.058 623.553L170.263 624.161C170.556 624.543 171.08 624.663 171.509 624.445L171.058 623.553ZM190.983 633.149L190.003 633.351C190.101 633.823 190.521 634.158 191.003 634.148L190.983 633.149ZM204.771 650.439L203.801 650.197C203.684 650.664 203.918 651.148 204.356 651.349L204.771 650.439ZM209.692 672L208.923 671.361C208.615 671.731 208.615 672.268 208.923 672.639L209.692 672ZM211.786 685H108.214V687H211.786V685ZM109.147 685.639C107.498 681.378 108.002 676.339 111.077 672.639L109.538 671.361C105.946 675.684 105.403 681.506 107.282 686.361L109.147 685.639ZM111.077 671.361C105.8 665.011 108.135 654.78 115.644 651.349L114.813 649.53C106.106 653.509 103.42 665.276 109.538 672.639L111.077 671.361ZM116.199 650.197C114.2 642.187 120.743 633.982 128.997 634.148L129.037 632.149C119.466 631.956 111.941 641.393 114.258 650.681L116.199 650.197ZM129.996 633.351C131.671 625.267 141.126 620.714 148.49 624.445L149.394 622.661C140.855 618.335 129.98 623.572 128.038 632.946L129.996 633.351ZM149.737 624.161C154.753 617.604 165.247 617.604 170.263 624.161L171.852 622.946C166.035 615.342 153.965 615.342 148.148 622.946L149.737 624.161ZM171.509 624.445C178.874 620.714 188.329 625.267 190.003 633.351L191.962 632.946C190.02 623.572 179.145 618.335 170.606 622.661L171.509 624.445ZM191.003 634.148C199.257 633.982 205.8 642.187 203.801 650.197L205.742 650.681C208.059 641.393 200.534 631.956 190.963 632.149L191.003 634.148ZM204.356 651.349C211.864 654.78 214.2 665.011 208.923 671.361L210.462 672.639C216.58 665.276 213.894 653.509 205.187 649.53L204.356 651.349ZM208.923 672.639C211.998 676.339 212.502 681.378 210.853 685.639L212.718 686.361C214.597 681.506 214.054 675.684 210.462 671.361L208.923 672.639Z" fill="currentColor"/>
<path d="M152 707.333L152.936 707.684C152.978 707.572 153 707.453 153 707.333H152ZM152 686V685C151.448 685 151 685.448 151 686H152ZM168 686H169C169 685.448 168.552 685 168 685V686ZM168 707.333H167C167 707.453 167.022 707.572 167.064 707.684L168 707.333ZM172 718V719C172.328 719 172.635 718.839 172.822 718.57C173.009 718.3 173.051 717.956 172.936 717.649L172 718ZM148 718L147.064 717.649C146.949 717.956 146.991 718.3 147.178 718.57C147.365 718.839 147.672 719 148 719V718ZM153 707.333V686H151V707.333H153ZM152 687H160V685H152V687ZM160 687H168V685H160V687ZM167 686V707.333H169V686H167ZM167.064 707.684L171.064 718.351L172.936 717.649L168.936 706.982L167.064 707.684ZM172 717H168V719H172V717ZM168 717H152V719H168V717ZM152 717H148V719H152V717ZM148.936 718.351L152.936 707.684L151.064 706.982L147.064 717.649L148.936 718.351Z" fill="currentColor"/>
<path d="M343.881 625.984L343.484 626.288V626.288L343.881 625.984ZM328.119 625.984L328.516 626.288L328.119 625.984ZM348.865 627.121L349.091 627.567L348.865 627.121ZM363.066 633.96L362.576 634.061L363.066 633.96ZM367.063 637.148L367.053 636.648L367.063 637.148ZM376.89 649.471L377.376 649.592L376.89 649.471ZM379.109 654.077L379.317 653.622L379.109 654.077ZM382.616 669.443L383.001 669.763L382.616 669.443ZM382.616 674.556L383.001 674.237L382.616 674.556ZM384.699 682V682.5C384.951 682.5 385.164 682.312 385.195 682.061L384.699 682ZM287.301 682L286.805 682.061C286.836 682.312 287.049 682.5 287.301 682.5V682ZM289.384 674.556L289.769 674.876L289.384 674.556ZM289.384 669.443L288.999 669.763L289.384 669.443ZM292.891 654.077L292.683 653.622L292.891 654.077ZM295.11 649.471L295.595 649.35H295.595L295.11 649.471ZM304.937 637.148L304.927 637.648L304.937 637.148ZM308.934 633.96L308.444 633.859L308.934 633.96ZM323.135 627.121L323.361 626.675L323.135 627.121ZM348.134 618.836L347.798 619.206C347.928 619.324 348.109 619.365 348.277 619.315L348.134 618.836ZM323.866 618.836L323.723 619.315C323.891 619.365 324.073 619.324 324.202 619.206L323.866 618.836ZM369.999 629.366L369.536 629.553C369.602 629.715 369.747 629.832 369.92 629.859L369.999 629.366ZM385.131 648.34L384.632 648.308C384.62 648.482 384.701 648.65 384.845 648.75L385.131 648.34ZM390.531 672L390.095 671.754C390.01 671.907 390.01 672.093 390.095 672.245L390.531 672ZM391.516 687.443L391.05 687.263L391.516 687.443ZM348 690V689.5C347.724 689.5 347.5 689.724 347.5 690H348ZM348 706.608H347.5C347.5 706.668 347.511 706.727 347.532 706.783L348 706.608ZM351.745 716.595L352.214 716.42L351.745 716.595ZM351.288 720.278L350.877 719.993H350.877L351.288 720.278ZM320.712 720.278L321.123 719.993H321.123L320.712 720.278ZM320.255 716.595L319.787 716.42L320.255 716.595ZM324 706.608L324.468 706.783C324.489 706.727 324.5 706.668 324.5 706.608H324ZM324 690H324.5C324.5 689.724 324.276 689.5 324 689.5V690ZM280.484 687.443L280.95 687.263H280.95L280.484 687.443ZM281.469 672L281.905 672.245C281.991 672.093 281.991 671.907 281.905 671.754L281.469 672ZM286.869 648.34L287.155 648.75C287.299 648.65 287.38 648.482 287.368 648.308L286.869 648.34ZM302.001 629.366L302.08 629.859C302.253 629.832 302.398 629.715 302.464 629.553L302.001 629.366ZM332 690V689.5C331.724 689.5 331.5 689.724 331.5 690H332ZM340 690H340.5C340.5 689.724 340.276 689.5 340 689.5V690ZM340.255 708.738L340.723 708.562H340.723L340.255 708.738ZM342.228 714V714.5C342.392 714.5 342.546 714.419 342.639 714.285C342.732 714.15 342.754 713.978 342.696 713.824L342.228 714ZM329.772 714L329.304 713.824C329.246 713.978 329.268 714.15 329.361 714.285C329.454 714.419 329.608 714.5 329.772 714.5V714ZM331.745 708.738L331.277 708.562H331.277L331.745 708.738ZM344.278 625.68C340.262 620.431 331.738 620.431 327.722 625.68L328.516 626.288C332.132 621.562 339.868 621.562 343.484 626.288L344.278 625.68ZM348.639 626.675C347.136 627.437 345.302 627.019 344.278 625.68L343.484 626.288C344.801 628.009 347.158 628.547 349.091 627.567L348.639 626.675ZM363.556 633.859C362.215 627.387 354.535 623.689 348.639 626.675L349.091 627.567C354.399 624.878 361.369 628.235 362.576 634.061L363.556 633.859ZM367.053 636.648C365.368 636.682 363.898 635.509 363.556 633.859L362.576 634.061C363.016 636.184 364.906 637.691 367.073 637.648L367.053 636.648ZM377.376 649.592C378.976 643.179 373.661 636.515 367.053 636.648L367.073 637.648C373.022 637.528 377.846 643.576 376.405 649.35L377.376 649.592ZM379.317 653.622C377.783 652.922 376.967 651.227 377.376 649.592L376.405 649.35C375.881 651.453 376.93 653.631 378.901 654.532L379.317 653.622ZM383.001 669.763C387.224 664.68 385.328 656.369 379.317 653.622L378.901 654.532C384.313 657.005 386.034 664.547 382.231 669.124L383.001 669.763ZM383.001 674.237C381.923 672.94 381.923 671.06 383.001 669.763L382.231 669.124C380.846 670.791 380.846 673.209 382.231 674.876L383.001 674.237ZM385.195 682.061C385.539 679.287 384.829 676.437 383.001 674.237L382.231 674.876C383.866 676.843 384.516 679.41 384.203 681.938L385.195 682.061ZM287.301 682.5H384.699V681.5H287.301V682.5ZM288.999 674.237C287.171 676.437 286.461 679.287 286.805 682.061L287.797 681.938C287.484 679.41 288.134 676.843 289.769 674.876L288.999 674.237ZM288.999 669.763C290.077 671.06 290.077 672.94 288.999 674.237L289.769 674.876C291.154 673.209 291.154 670.791 289.769 669.124L288.999 669.763ZM292.683 653.622C286.672 656.369 284.776 664.68 288.999 669.763L289.769 669.124C285.966 664.547 287.687 657.005 293.099 654.532L292.683 653.622ZM294.625 649.592C295.033 651.227 294.217 652.922 292.683 653.622L293.099 654.532C295.071 653.631 296.12 651.453 295.595 649.35L294.625 649.592ZM304.947 636.648C298.339 636.515 293.024 643.179 294.625 649.592L295.595 649.35C294.154 643.576 298.978 637.528 304.927 637.648L304.947 636.648ZM308.444 633.859C308.103 635.509 306.632 636.682 304.947 636.648L304.927 637.648C307.094 637.691 308.984 636.184 309.424 634.061L308.444 633.859ZM323.361 626.675C317.465 623.689 309.785 627.387 308.444 633.859L309.424 634.061C310.631 628.235 317.601 624.878 322.909 627.567L323.361 626.675ZM327.722 625.68C326.698 627.019 324.865 627.437 323.361 626.675L322.909 627.567C324.842 628.547 327.199 628.009 328.516 626.288L327.722 625.68ZM348.47 618.466C341.539 612.169 330.461 612.169 323.53 618.466L324.202 619.206C330.752 613.255 341.248 613.255 347.798 619.206L348.47 618.466ZM370.463 629.178C366.95 620.497 356.969 615.691 347.992 618.357L348.277 619.315C356.76 616.796 366.216 621.35 369.536 629.553L370.463 629.178ZM385.63 648.372C386.231 639.026 379.324 630.365 370.079 628.872L369.92 629.859C378.656 631.27 385.2 639.476 384.632 648.308L385.63 648.372ZM390.967 672.245C395.563 664.086 393.098 653.286 385.417 647.93L384.845 648.75C392.104 653.812 394.439 664.044 390.095 671.754L390.967 672.245ZM391.982 687.624C393.91 682.643 393.773 676.735 390.967 671.754L390.095 672.245C392.741 676.942 392.88 682.534 391.05 687.263L391.982 687.624ZM387.786 690.5C389.644 690.5 391.312 689.357 391.982 687.624L391.05 687.263C390.528 688.611 389.231 689.5 387.786 689.5V690.5ZM348 690.5H387.786V689.5H348V690.5ZM347.5 690V706.608H348.5V690H347.5ZM347.532 706.783L351.277 716.771L352.214 716.42L348.468 706.432L347.532 706.783ZM351.277 716.771C351.68 717.846 351.531 719.05 350.877 719.993L351.699 720.563C352.539 719.35 352.732 717.802 352.214 716.42L351.277 716.771ZM350.877 719.993C350.223 720.937 349.148 721.5 348 721.5V722.5C349.476 722.5 350.858 721.776 351.699 720.563L350.877 719.993ZM348 721.5H344V722.5H348V721.5ZM344 721.5H328V722.5H344V721.5ZM328 721.5H324V722.5H328V721.5ZM324 721.5C322.852 721.5 321.777 720.937 321.123 719.993L320.301 720.563C321.142 721.776 322.524 722.5 324 722.5V721.5ZM321.123 719.993C320.469 719.05 320.32 717.846 320.723 716.771L319.787 716.42C319.268 717.802 319.461 719.35 320.301 720.563L321.123 719.993ZM320.723 716.771L324.468 706.783L323.532 706.432L319.787 716.42L320.723 716.771ZM324.5 706.608V690H323.5V706.608H324.5ZM284.214 690.5H324V689.5H284.214V690.5ZM280.018 687.624C280.688 689.357 282.356 690.5 284.214 690.5V689.5C282.769 689.5 281.472 688.611 280.95 687.263L280.018 687.624ZM281.033 671.754C278.227 676.735 278.09 682.643 280.018 687.624L280.95 687.263C279.12 682.534 279.259 676.942 281.905 672.245L281.033 671.754ZM286.583 647.93C278.902 653.286 276.437 664.086 281.033 672.245L281.905 671.754C277.561 664.044 279.896 653.812 287.155 648.75L286.583 647.93ZM301.921 628.872C292.676 630.365 285.769 639.026 286.37 648.372L287.368 648.308C286.8 639.476 293.344 631.27 302.08 629.859L301.921 628.872ZM324.008 618.357C315.031 615.691 305.05 620.497 301.537 629.178L302.464 629.553C305.784 621.35 315.24 616.796 323.723 619.315L324.008 618.357ZM331.5 690V707.333H332.5V690H331.5ZM336 689.5H332V690.5H336V689.5ZM340 689.5H336V690.5H340V689.5ZM340.5 707.333V690H339.5V707.333H340.5ZM340.723 708.562C340.576 708.169 340.5 707.753 340.5 707.333H339.5C339.5 707.873 339.597 708.408 339.787 708.913L340.723 708.562ZM342.696 713.824L340.723 708.562L339.787 708.913L341.76 714.175L342.696 713.824ZM329.772 714.5H342.228V713.5H329.772V714.5ZM331.277 708.562L329.304 713.824L330.24 714.175L332.214 708.913L331.277 708.562ZM331.5 707.333C331.5 707.753 331.425 708.169 331.277 708.562L332.214 708.913C332.403 708.408 332.5 707.873 332.5 707.333H331.5Z" fill="currentColor"/>
<path fill-rule="evenodd" clip-rule="evenodd" d="M563.786 686H460.214C458.45 681.442 458.974 676.012 462.308 672C456.61 665.144 459.121 654.144 467.229 650.439C465.07 641.79 472.105 632.969 481.017 633.149C482.826 624.42 492.99 619.524 500.942 623.553C506.359 616.473 517.641 616.473 523.058 623.553C531.01 619.524 541.174 624.42 542.983 633.149C551.895 632.969 558.93 641.79 556.771 650.439C564.879 654.144 567.39 665.144 561.693 672C565.026 676.012 565.55 681.442 563.786 686Z" fill="currentColor"/>
<path d="M563.786 686V688C564.612 688 565.353 687.492 565.651 686.722L563.786 686ZM460.214 686L458.349 686.722C458.647 687.492 459.388 688 460.214 688V686ZM462.308 672L463.846 673.278C464.461 672.537 464.461 671.463 463.846 670.722L462.308 672ZM467.229 650.439L468.06 652.258C468.936 651.858 469.402 650.89 469.169 649.955L467.229 650.439ZM481.017 633.149L480.977 635.148C481.94 635.168 482.78 634.498 482.976 633.554L481.017 633.149ZM500.942 623.553L500.039 625.337C500.898 625.773 501.946 625.534 502.531 624.768L500.942 623.553ZM523.058 623.553L521.469 624.768C522.055 625.534 523.102 625.773 523.962 625.337L523.058 623.553ZM542.983 633.149L541.024 633.554C541.22 634.498 542.06 635.168 543.023 635.148L542.983 633.149ZM556.771 650.439L554.831 649.955C554.598 650.89 555.064 651.858 555.94 652.258L556.771 650.439ZM561.693 672L560.154 670.722C559.539 671.463 559.539 672.537 560.154 673.278L561.693 672ZM563.786 684H460.214V688H563.786V684ZM462.079 685.278C460.545 681.314 461.03 676.666 463.846 673.278L460.769 670.722C456.918 675.357 456.356 681.571 458.349 686.722L462.079 685.278ZM463.846 670.722C458.991 664.879 461.15 655.416 468.06 652.258L466.397 648.62C457.091 652.873 454.23 665.408 460.769 673.278L463.846 670.722ZM469.169 649.955C467.33 642.584 473.382 634.995 480.977 635.148L481.058 631.149C470.828 630.943 462.811 640.996 465.288 650.923L469.169 649.955ZM482.976 633.554C484.517 626.115 493.262 621.904 500.039 625.337L501.846 621.769C492.719 617.145 481.134 622.724 479.059 632.743L482.976 633.554ZM502.531 624.768C507.147 618.735 516.853 618.735 521.469 624.768L524.646 622.338C518.429 614.212 505.571 614.212 499.354 622.338L502.531 624.768ZM523.962 625.337C530.738 621.904 539.483 626.115 541.024 633.554L544.941 632.743C542.866 622.724 531.281 617.145 522.154 621.769L523.962 625.337ZM543.023 635.148C550.619 634.995 556.67 642.584 554.831 649.955L558.712 650.923C561.189 640.996 553.172 630.943 542.943 631.149L543.023 635.148ZM555.94 652.258C562.85 655.416 565.01 664.879 560.154 670.722L563.231 673.278C569.77 665.408 566.909 652.873 557.603 648.62L555.94 652.258ZM560.154 673.278C562.97 676.666 563.455 681.314 561.921 685.278L565.651 686.722C567.645 681.571 567.083 675.357 563.231 670.722L560.154 673.278Z" fill="currentColor"/>
<path fill-rule="evenodd" clip-rule="evenodd" d="M504 707.333V686H512H520V707.333L524 718H520H504H500L504 707.333Z" fill="currentColor"/>
<path d="M504 707.333L505.873 708.036C505.957 707.811 506 707.573 506 707.333H504ZM504 686V684C502.895 684 502 684.895 502 686H504ZM520 686H522C522 684.895 521.105 684 520 684V686ZM520 707.333H518C518 707.573 518.043 707.811 518.127 708.036L520 707.333ZM524 718V720C524.656 720 525.27 719.678 525.644 719.139C526.017 718.6 526.103 717.912 525.873 717.298L524 718ZM500 718L498.127 717.298C497.897 717.912 497.983 718.6 498.356 719.139C498.73 719.678 499.344 720 500 720V718ZM506 707.333V686H502V707.333H506ZM504 688H512V684H504V688ZM512 688H520V684H512V688ZM518 686V707.333H522V686H518ZM518.127 708.036L522.127 718.702L525.873 717.298L521.873 706.631L518.127 708.036ZM524 716H520V720H524V716ZM520 716H504V720H520V716ZM504 716H500V720H504V716ZM501.873 718.702L505.873 708.036L502.127 706.631L498.127 717.298L501.873 718.702Z" fill="currentColor"/>
<g opacity="0.25">
<path fill-rule="evenodd" clip-rule="evenodd" d="M739.786 686H636.214C634.45 681.442 634.974 676.012 638.308 672C632.61 665.144 635.121 654.144 643.229 650.439C641.07 641.79 648.105 632.969 657.017 633.149C658.826 624.42 668.99 619.524 676.942 623.553C682.359 616.473 693.641 616.473 699.058 623.553C707.01 619.524 717.174 624.42 718.983 633.149C727.895 632.969 734.93 641.79 732.771 650.439C740.879 654.144 743.39 665.144 737.693 672C741.026 676.012 741.55 681.442 739.786 686Z" fill="currentColor"/>
<path d="M739.786 686V688C740.612 688 741.353 687.492 741.651 686.722L739.786 686ZM636.214 686L634.349 686.722C634.647 687.492 635.388 688 636.214 688V686ZM638.308 672L639.846 673.278C640.461 672.537 640.461 671.463 639.846 670.722L638.308 672ZM643.229 650.439L644.06 652.258C644.936 651.858 645.402 650.89 645.169 649.955L643.229 650.439ZM657.017 633.149L656.977 635.148C657.94 635.168 658.78 634.498 658.976 633.554L657.017 633.149ZM676.942 623.553L676.039 625.337C676.898 625.773 677.946 625.534 678.531 624.768L676.942 623.553ZM699.058 623.553L697.469 624.768C698.055 625.534 699.102 625.773 699.962 625.337L699.058 623.553ZM718.983 633.149L717.024 633.554C717.22 634.498 718.06 635.168 719.023 635.148L718.983 633.149ZM732.771 650.439L730.831 649.955C730.598 650.89 731.064 651.858 731.94 652.258L732.771 650.439ZM737.693 672L736.154 670.722C735.539 671.463 735.539 672.537 736.154 673.278L737.693 672ZM739.786 684H636.214V688H739.786V684ZM638.079 685.278C636.545 681.314 637.03 676.666 639.846 673.278L636.769 670.722C632.918 675.357 632.356 681.571 634.349 686.722L638.079 685.278ZM639.846 670.722C634.991 664.879 637.15 655.416 644.06 652.258L642.397 648.62C633.091 652.873 630.23 665.408 636.769 673.278L639.846 670.722ZM645.169 649.955C643.33 642.584 649.382 634.995 656.977 635.148L657.058 631.149C646.828 630.943 638.811 640.996 641.288 650.923L645.169 649.955ZM658.976 633.554C660.517 626.115 669.262 621.904 676.039 625.337L677.846 621.769C668.719 617.145 657.134 622.724 655.059 632.743L658.976 633.554ZM678.531 624.768C683.147 618.735 692.853 618.735 697.469 624.768L700.646 622.338C694.429 614.212 681.571 614.212 675.354 622.338L678.531 624.768ZM699.962 625.337C706.738 621.904 715.483 626.115 717.024 633.554L720.941 632.743C718.866 622.724 707.281 617.145 698.154 621.769L699.962 625.337ZM719.023 635.148C726.619 634.995 732.67 642.584 730.831 649.955L734.712 650.923C737.189 640.996 729.172 630.943 718.943 631.149L719.023 635.148ZM731.94 652.258C738.85 655.416 741.01 664.879 736.154 670.722L739.231 673.278C745.77 665.408 742.909 652.873 733.603 648.62L731.94 652.258ZM736.154 673.278C738.97 676.666 739.455 681.314 737.921 685.278L741.651 686.722C743.645 681.571 743.083 675.357 739.231 670.722L736.154 673.278Z" fill="currentColor"/>
</g>
<path fill-rule="evenodd" clip-rule="evenodd" d="M680 707.333V686H688H696V707.333L700 718H696H680H676L680 707.333Z" fill="currentColor"/>
<path fill-rule="evenodd" clip-rule="evenodd" d="M915.786 686H812.214C810.45 681.442 810.974 676.012 814.308 672C808.61 665.144 811.121 654.144 819.229 650.439C817.07 641.79 824.105 632.969 833.017 633.149C834.826 624.42 844.99 619.524 852.942 623.553C858.359 616.473 869.641 616.473 875.058 623.553C883.01 619.524 893.174 624.42 894.983 633.149C903.895 632.969 910.93 641.79 908.771 650.439C916.879 654.144 919.39 665.144 913.693 672C917.026 676.012 917.55 681.442 915.786 686Z" fill="#FFA500"/>
<path d="M915.786 686V688C916.612 688 917.353 687.492 917.651 686.722L915.786 686ZM812.214 686L810.349 686.722C810.647 687.492 811.388 688 812.214 688V686ZM814.308 672L815.846 673.278C816.461 672.537 816.461 671.463 815.846 670.722L814.308 672ZM819.229 650.439L820.06 652.258C820.936 651.858 821.402 650.89 821.169 649.955L819.229 650.439ZM833.017 633.149L832.977 635.148C833.94 635.168 834.78 634.498 834.976 633.554L833.017 633.149ZM852.942 623.553L852.039 625.337C852.898 625.773 853.946 625.534 854.531 624.768L852.942 623.553ZM875.058 623.553L873.469 624.768C874.055 625.534 875.102 625.773 875.962 625.337L875.058 623.553ZM894.983 633.149L893.024 633.554C893.22 634.498 894.06 635.168 895.023 635.148L894.983 633.149ZM908.771 650.439L906.831 649.955C906.598 650.89 907.064 651.858 907.94 652.258L908.771 650.439ZM913.693 672L912.154 670.722C911.539 671.463 911.539 672.537 912.154 673.278L913.693 672ZM915.786 684H812.214V688H915.786V684ZM814.079 685.278C812.545 681.314 813.03 676.666 815.846 673.278L812.769 670.722C808.918 675.357 808.356 681.571 810.349 686.722L814.079 685.278ZM815.846 670.722C810.991 664.879 813.15 655.416 820.06 652.258L818.397 648.62C809.091 652.873 806.23 665.408 812.769 673.278L815.846 670.722ZM821.169 649.955C819.33 642.584 825.382 634.995 832.977 635.148L833.058 631.149C822.828 630.943 814.811 640.996 817.288 650.923L821.169 649.955ZM834.976 633.554C836.517 626.115 845.262 621.904 852.039 625.337L853.846 621.769C844.719 617.145 833.134 622.724 831.059 632.743L834.976 633.554ZM854.531 624.768C859.147 618.735 868.853 618.735 873.469 624.768L876.646 622.338C870.429 614.212 857.571 614.212 851.354 622.338L854.531 624.768ZM875.962 625.337C882.738 621.904 891.483 626.115 893.024 633.554L896.941 632.743C894.866 622.724 883.281 617.145 874.154 621.769L875.962 625.337ZM895.023 635.148C902.619 634.995 908.67 642.584 906.831 649.955L910.712 650.923C913.189 640.996 905.172 630.943 894.943 631.149L895.023 635.148ZM907.94 652.258C914.85 655.416 917.01 664.879 912.154 670.722L915.231 673.278C921.77 665.408 918.909 652.873 909.603 648.62L907.94 652.258ZM912.154 673.278C914.97 676.666 915.455 681.314 913.921 685.278L917.651 686.722C919.645 681.571 919.083 675.357 915.231 670.722L912.154 673.278Z" fill="#FFA500"/>
<path fill-rule="evenodd" clip-rule="evenodd" d="M856 707.333V686H864H872V707.333L876 718H872H856H852L856 707.333Z" fill="#8B4513"/>
</svg>
