<svg viewBox="0 0 1024 768" fill="none" xmlns="http://www.w3.org/2000/svg">
<path d="M417.125 56.0407C419.371 49.4943 428.629 49.4943 430.875 56.0407V56.0407C432.445 60.6175 437.965 62.4111 441.926 59.6312V59.6312C447.59 55.6551 455.08 61.0971 453.049 67.7132V67.7132C451.629 72.3388 455.041 77.0345 459.879 77.1134V77.1134C466.799 77.2263 469.66 86.0316 464.128 90.1903V90.1903C460.26 93.0979 460.26 98.9021 464.128 101.81V101.81C469.66 105.968 466.799 114.774 459.879 114.887V114.887C455.041 114.965 451.629 119.661 453.049 124.287V124.287C455.08 130.903 447.59 136.345 441.926 132.369V132.369C437.965 129.589 432.445 131.382 430.875 135.959V135.959C428.629 142.506 419.371 142.506 417.125 135.959V135.959C415.555 131.382 410.035 129.589 406.074 132.369V132.369C400.41 136.345 392.92 130.903 394.951 124.287V124.287C396.371 119.661 392.959 114.965 388.121 114.887V114.887C381.201 114.774 378.34 105.968 383.872 101.81V101.81C387.74 98.9021 387.74 93.0979 383.872 90.1903V90.1903C378.34 86.0316 381.201 77.2263 388.121 77.1134V77.1134C392.959 77.0345 396.371 72.3388 394.951 67.7132V67.7132C392.92 61.0971 400.41 55.6551 406.074 59.6312V59.6312C410.035 62.4111 415.555 60.6175 417.125 56.0407V56.0407Z" stroke="#7B61FF" stroke-width="2" stroke-linecap="round" stroke-linejoin="round"/>
<path d="M578.787 147.213C592.369 152.839 607.631 152.839 621.213 147.213V147.213C634.796 141.587 645.587 130.796 651.213 117.213V117.213C656.839 103.631 656.839 88.3694 651.213 74.7868V74.7868C645.587 61.2042 634.796 50.4129 621.213 44.7868V44.7868C607.631 39.1607 592.369 39.1607 578.787 44.7868V44.7868C565.204 50.4129 554.413 61.2042 548.787 74.7868V74.7868C543.161 88.3694 543.161 103.631 548.787 117.213V117.213C554.413 130.796 565.204 141.587 578.787 147.213V147.213Z" stroke="#7B61FF" stroke-width="2" stroke-linecap="round" stroke-linejoin="round"/>
<path fill-rule="evenodd" clip-rule="evenodd" d="M641.657 419H382.343C380.464 406.828 383.928 393.771 394.088 384C370.02 360.853 383.531 319.272 416.607 314.693C410.741 281.82 446.112 256.122 475.563 271.859C490.14 241.817 533.861 241.817 548.437 271.859C577.888 256.122 613.259 281.82 607.393 314.693C640.469 319.272 653.98 360.853 629.912 384C640.072 393.771 643.536 406.828 641.657 419Z" fill="#888888" fill-opacity="0.5"/>
<path d="M641.657 419V424C644.124 424 646.222 422.201 646.599 419.763L641.657 419ZM382.343 419L377.402 419.763C377.778 422.201 379.876 424 382.343 424V419ZM394.088 384L397.554 387.604C398.534 386.661 399.088 385.36 399.088 384C399.088 382.64 398.534 381.339 397.554 380.396L394.088 384ZM416.607 314.693L417.293 319.646C418.64 319.459 419.853 318.732 420.652 317.632C421.452 316.532 421.769 315.153 421.53 313.815L416.607 314.693ZM475.563 271.859L473.207 276.269C474.406 276.91 475.815 277.035 477.108 276.614C478.402 276.194 479.468 275.265 480.062 274.042L475.563 271.859ZM548.437 271.859L543.938 274.042C544.532 275.265 545.598 276.194 546.892 276.614C548.185 277.035 549.594 276.91 550.793 276.269L548.437 271.859ZM607.393 314.693L602.471 313.815C602.232 315.153 602.548 316.532 603.348 317.632C604.147 318.732 605.36 319.459 606.707 319.646L607.393 314.693ZM629.912 384L626.446 380.396C625.466 381.339 624.912 382.64 624.912 384C624.912 385.36 625.466 386.661 626.446 387.604L629.912 384ZM641.657 414H382.343V424H641.657V414ZM387.285 418.237C385.632 407.528 388.67 396.148 397.554 387.604L390.622 380.396C379.185 391.395 375.297 406.129 377.402 419.763L387.285 418.237ZM397.554 380.396C376.496 360.144 388.353 323.652 417.293 319.646L415.922 309.74C378.709 314.892 363.545 361.563 390.622 387.604L397.554 380.396ZM421.53 313.815C416.397 285.052 447.438 262.499 473.207 276.269L477.92 267.449C444.786 249.744 405.085 278.588 411.685 315.571L421.53 313.815ZM480.062 274.042C492.815 247.756 531.185 247.756 543.938 274.042L552.935 269.676C536.537 235.877 487.464 235.877 471.065 269.676L480.062 274.042ZM550.793 276.269C576.562 262.499 607.603 285.052 602.471 313.815L612.315 315.571C618.915 278.588 579.214 249.744 546.08 267.449L550.793 276.269ZM606.707 319.646C635.648 323.652 647.505 360.144 626.446 380.396L633.378 387.604C660.455 361.563 645.291 314.892 608.078 309.74L606.707 319.646ZM626.446 387.604C635.33 396.148 638.369 407.528 636.716 418.237L646.599 419.763C648.703 406.129 644.815 391.395 633.378 380.396L626.446 387.604Z" fill="currentColor"/>
<path fill-rule="evenodd" clip-rule="evenodd" d="M542 499L532 472.333V419L512 419L492 419V472.333L482 499L492 499H532L542 499Z" fill="#888888" fill-opacity="0.5"/>
<path d="M532 472.333H527C527 472.933 527.108 473.528 527.318 474.089L532 472.333ZM542 499L542 504C543.64 504 545.176 503.196 546.11 501.848C547.044 500.5 547.257 498.78 546.682 497.244L542 499ZM532 419H537C537 416.239 534.761 414 532 414L532 419ZM512 419L512 414H512L512 419ZM492 419L492 414C489.239 414 487 416.239 487 419H492ZM492 472.333L496.682 474.089C496.892 473.528 497 472.933 497 472.333H492ZM482 499L477.318 497.244C476.743 498.78 476.956 500.5 477.89 501.848C478.824 503.196 480.36 504 482 504L482 499ZM492 499L492 504H492V499ZM532 499V504H532L532 499ZM527.318 474.089L537.318 500.756L546.682 497.244L536.682 470.578L527.318 474.089ZM527 419V472.333H537V419H527ZM512 424L532 424L532 414L512 414L512 424ZM492 424L512 424L512 414L492 414L492 424ZM497 472.333V419H487V472.333H497ZM486.682 500.756L496.682 474.089L487.318 470.578L477.318 497.244L486.682 500.756ZM492 494L482 494L482 504L492 504L492 494ZM532 494H492V504H532V494ZM542 494L532 494L532 504L542 504L542 494Z" fill="currentColor"/>
<g opacity="0.25">
<path d="M495.367 287.324C500.8 271.486 523.2 271.486 528.633 287.324V287.324C532.431 298.397 545.787 302.737 555.368 296.011V296.011C569.073 286.392 587.195 299.558 582.281 315.564V315.564C578.845 326.755 587.099 338.116 598.804 338.307V338.307C615.546 338.58 622.468 359.883 609.084 369.945V369.945C599.727 376.979 599.727 391.021 609.084 398.056V398.056C622.468 408.117 615.546 429.42 598.804 429.693V429.693C587.099 429.884 578.845 441.245 582.281 452.436V452.436C587.195 468.443 569.073 481.609 555.368 471.989V471.989C545.787 465.264 532.431 469.603 528.633 480.676V480.676C523.2 496.514 500.8 496.514 495.367 480.676V480.676C491.568 469.603 478.213 465.264 468.632 471.989V471.989C454.927 481.609 436.805 468.443 441.719 452.436V452.436C445.154 441.245 436.901 429.884 425.196 429.693V429.693C408.454 429.42 401.532 408.117 414.916 398.056V398.056C424.273 391.021 424.273 376.979 414.916 369.945V369.945C401.532 359.883 408.454 338.58 425.196 338.307V338.307C436.901 338.116 445.154 326.755 441.719 315.564V315.564C436.805 299.558 454.927 286.392 468.632 296.011V296.011C478.213 302.737 491.568 298.397 495.367 287.324V287.324Z" stroke="currentColor" stroke-width="2.41935" stroke-linecap="round" stroke-linejoin="round"/>
<rect x="362" y="234" width="300" height="183.871" stroke="currentColor" stroke-width="2.41935" stroke-linecap="round" stroke-linejoin="round"/>
<path d="M512 417.871L541.032 495.29H482.968L512 417.871Z" stroke="currentColor" stroke-width="2.41935" stroke-linecap="round" stroke-linejoin="round"/>
</g>
<path d="M211.863 686V687C212.356 687 212.776 686.64 212.851 686.152L211.863 686ZM108.137 686L107.149 686.152C107.224 686.64 107.644 687 108.137 687V686ZM112.835 672L113.528 672.721C113.725 672.532 113.835 672.272 113.835 672C113.835 671.728 113.725 671.468 113.528 671.279L112.835 672ZM121.843 644.277L121.98 645.268C122.25 645.23 122.492 645.085 122.652 644.865C122.812 644.645 122.875 644.369 122.827 644.102L121.843 644.277ZM145.425 627.144L144.954 628.026C145.194 628.154 145.476 628.179 145.734 628.095C145.993 628.011 146.206 627.825 146.325 627.58L145.425 627.144ZM174.575 627.144L173.675 627.58C173.794 627.825 174.007 628.011 174.266 628.095C174.524 628.179 174.806 628.154 175.046 628.026L174.575 627.144ZM198.157 644.277L197.173 644.102C197.125 644.369 197.188 644.645 197.348 644.865C197.508 645.085 197.751 645.23 198.02 645.268L198.157 644.277ZM207.165 672L206.472 671.279C206.276 671.468 206.165 671.728 206.165 672C206.165 672.272 206.276 672.532 206.472 672.721L207.165 672ZM211.863 685H108.137V687H211.863V685ZM109.126 685.847C108.419 681.271 109.72 676.384 113.528 672.721L112.142 671.279C107.823 675.433 106.352 680.991 107.149 686.152L109.126 685.847ZM113.528 671.279C104.503 662.599 109.577 646.985 121.98 645.268L121.706 643.287C107.648 645.233 101.913 662.883 112.142 672.721L113.528 671.279ZM122.827 644.102C120.628 631.775 133.91 622.124 144.954 628.026L145.897 626.262C133.38 619.573 118.365 630.482 120.859 644.453L122.827 644.102ZM146.325 627.58C151.791 616.314 168.209 616.314 173.675 627.58L175.474 626.707C169.279 613.939 150.721 613.939 144.526 626.707L146.325 627.58ZM175.046 628.026C186.09 622.124 199.372 631.775 197.173 644.102L199.142 644.453C201.635 630.482 186.62 619.573 174.103 626.262L175.046 628.026ZM198.02 645.268C210.423 646.985 215.497 662.599 206.472 671.279L207.858 672.721C218.087 662.883 212.352 645.233 198.294 643.287L198.02 645.268ZM206.472 672.721C210.28 676.384 211.581 681.271 210.875 685.847L212.851 686.152C213.648 680.991 212.177 675.433 207.858 671.279L206.472 672.721Z" fill="currentColor"/>
<path d="M152 707.333L152.936 707.684C152.978 707.572 153 707.453 153 707.333H152ZM152 686V685C151.448 685 151 685.448 151 686H152ZM168 686H169C169 685.448 168.552 685 168 685V686ZM168 707.333H167C167 707.453 167.022 707.572 167.064 707.684L168 707.333ZM172 718V719C172.328 719 172.635 718.839 172.822 718.57C173.009 718.3 173.051 717.956 172.936 717.649L172 718ZM148 718L147.064 717.649C146.949 717.956 146.991 718.3 147.178 718.57C147.365 718.839 147.672 719 148 719V718ZM153 707.333V686H151V707.333H153ZM152 687H160V685H152V687ZM160 687H168V685H160V687ZM167 686V707.333H169V686H167ZM167.064 707.684L171.064 718.351L172.936 717.649L168.936 706.982L167.064 707.684ZM172 717H168V719H172V717ZM168 717H152V719H168V717ZM152 717H148V719H152V717ZM148.936 718.351L152.936 707.684L151.064 706.982L147.064 717.649L148.936 718.351Z" fill="currentColor"/>
<path d="M346.976 628.89L346.526 629.108L346.976 628.89ZM325.024 628.89L324.574 628.671V628.671L325.024 628.89ZM352.46 630.672L352.696 631.113L352.46 630.672ZM370.219 643.575L370.712 643.662V643.662L370.219 643.575ZM370.921 646.628L370.517 646.922L370.921 646.628ZM373.609 648.239L373.54 648.735L373.609 648.239ZM380.392 669.117L380.739 669.477L380.392 669.117ZM380.392 674.883L380.739 674.523L380.392 674.883ZM383.972 682V682.5C384.115 682.5 384.251 682.439 384.346 682.332C384.441 682.225 384.485 682.082 384.468 681.94L383.972 682ZM288.028 682L287.532 681.94C287.515 682.082 287.559 682.225 287.654 682.332C287.749 682.439 287.885 682.5 288.028 682.5V682ZM291.608 674.883L291.261 674.523L291.608 674.883ZM291.608 669.117L291.261 669.477H291.261L291.608 669.117ZM298.392 648.239L298.46 648.735H298.46L298.392 648.239ZM301.079 646.628L300.675 646.334L301.079 646.628ZM301.781 643.575L302.273 643.487L301.781 643.575ZM319.54 630.672L319.305 631.113L319.54 630.672ZM322.661 630.948L322.816 631.423H322.816L322.661 630.948ZM352.202 622.136L351.8 622.433C351.927 622.605 352.149 622.677 352.352 622.613L352.202 622.136ZM319.798 622.136L319.648 622.613C319.852 622.677 320.073 622.605 320.2 622.433L319.798 622.136ZM378.417 641.182L377.917 641.187C377.919 641.4 378.056 641.588 378.258 641.656L378.417 641.182ZM388.429 672.002L388.022 671.712C387.898 671.886 387.898 672.118 388.021 672.292L388.429 672.002ZM391.816 686.61L392.31 686.686L391.816 686.61ZM348 690V689.5C347.724 689.5 347.5 689.724 347.5 690H348ZM348 706.608H347.5C347.5 706.668 347.511 706.727 347.532 706.783L348 706.608ZM351.745 716.595L351.277 716.771L351.745 716.595ZM351.288 720.278L350.877 719.994L351.288 720.278ZM320.712 720.278L321.123 719.994L320.712 720.278ZM320.255 716.595L320.723 716.771H320.723L320.255 716.595ZM324 706.608L324.468 706.783C324.489 706.727 324.5 706.668 324.5 706.608H324ZM324 690H324.5C324.5 689.724 324.276 689.5 324 689.5V690ZM280.184 686.61L279.69 686.686H279.69L280.184 686.61ZM283.571 672.002L283.979 672.292C284.102 672.118 284.102 671.886 283.979 671.712L283.571 672.002ZM293.583 641.182L293.742 641.656C293.944 641.588 294.081 641.4 294.083 641.187L293.583 641.182ZM332 690V689.5C331.724 689.5 331.5 689.724 331.5 690H332ZM340 690H340.5C340.5 689.724 340.276 689.5 340 689.5V690ZM340.255 708.738L340.723 708.562L340.723 708.562L340.255 708.738ZM342.228 714V714.5C342.392 714.5 342.546 714.42 342.639 714.285C342.732 714.15 342.754 713.978 342.696 713.824L342.228 714ZM329.772 714L329.304 713.824C329.246 713.978 329.268 714.15 329.361 714.285C329.455 714.42 329.608 714.5 329.772 714.5V714ZM331.745 708.738L331.277 708.562H331.277L331.745 708.738ZM347.426 628.671C342.871 619.284 329.129 619.284 324.574 628.671L325.474 629.108C329.664 620.472 342.336 620.472 346.526 629.108L347.426 628.671ZM349.493 630.472C348.588 630.178 347.841 629.528 347.426 628.671L346.526 629.108C347.06 630.209 348.02 631.045 349.184 631.423L349.493 630.472ZM352.224 630.231C351.385 630.679 350.399 630.766 349.493 630.472L349.184 631.423C350.348 631.802 351.616 631.689 352.696 631.113L352.224 630.231ZM370.712 643.662C372.545 633.391 361.427 625.313 352.224 630.231L352.696 631.113C361.162 626.589 371.413 634.037 369.727 643.487L370.712 643.662ZM371.326 646.334C370.766 645.564 370.544 644.599 370.712 643.662L369.727 643.487C369.512 644.692 369.797 645.932 370.517 646.922L371.326 646.334ZM373.677 647.744C372.734 647.614 371.885 647.105 371.326 646.334L370.517 646.922C371.236 647.912 372.328 648.567 373.54 648.735L373.677 647.744ZM380.739 669.477C388.259 662.245 384.013 649.175 373.677 647.744L373.54 648.735C383.048 650.051 386.964 662.103 380.046 668.756L380.739 669.477ZM379.665 672C379.665 671.048 380.053 670.137 380.739 669.477L380.046 668.756C379.163 669.605 378.665 670.776 378.665 672H379.665ZM380.739 674.523C380.053 673.863 379.665 672.952 379.665 672H378.665C378.665 673.224 379.163 674.395 380.046 675.243L380.739 674.523ZM384.468 681.94C384.144 679.25 382.943 676.643 380.739 674.523L380.046 675.243C382.078 677.198 383.178 679.591 383.475 682.06L384.468 681.94ZM288.028 682.5H383.972V681.5H288.028V682.5ZM291.261 674.523C289.057 676.643 287.856 679.25 287.532 681.94L288.525 682.06C288.822 679.591 289.922 677.198 291.955 675.243L291.261 674.523ZM292.335 672C292.335 672.952 291.948 673.863 291.261 674.523L291.955 675.243C292.837 674.395 293.335 673.224 293.335 672H292.335ZM291.261 669.477C291.948 670.137 292.335 671.048 292.335 672H293.335C293.335 670.776 292.837 669.605 291.955 668.756L291.261 669.477ZM298.323 647.744C287.988 649.175 283.741 662.245 291.261 669.477L291.955 668.756C285.036 662.103 288.952 650.051 298.46 648.735L298.323 647.744ZM300.675 646.334C300.115 647.105 299.266 647.614 298.323 647.744L298.46 648.735C299.672 648.567 300.764 647.912 301.484 646.922L300.675 646.334ZM301.289 643.662C301.456 644.599 301.234 645.564 300.675 646.334L301.484 646.922C302.203 645.932 302.488 644.692 302.273 643.487L301.289 643.662ZM319.776 630.231C310.573 625.313 299.456 633.391 301.289 643.662L302.273 643.487C300.587 634.037 310.839 626.589 319.305 631.113L319.776 630.231ZM322.507 630.472C321.602 630.766 320.615 630.679 319.776 630.231L319.305 631.113C320.384 631.689 321.652 631.802 322.816 631.423L322.507 630.472ZM324.574 628.671C324.159 629.528 323.412 630.178 322.507 630.472L322.816 631.423C323.98 631.045 324.94 630.209 325.474 629.108L324.574 628.671ZM352.604 621.838C344.493 610.895 327.507 610.895 319.396 621.838L320.2 622.433C327.911 612.03 344.09 612.03 351.8 622.433L352.604 621.838ZM378.917 641.177C378.788 627.557 365.045 617.573 352.052 621.659L352.352 622.613C364.705 618.728 377.794 628.238 377.917 641.187L378.917 641.177ZM388.836 672.293C396.74 661.197 391.491 645.04 378.576 640.708L378.258 641.656C390.536 645.775 395.535 661.164 388.022 671.712L388.836 672.293ZM392.31 686.686C393.087 681.652 392.061 676.254 388.836 671.713L388.021 672.292C391.083 676.604 392.063 681.735 391.322 686.534L392.31 686.686ZM387.863 690.5C390.083 690.5 391.972 688.881 392.31 686.686L391.322 686.534C391.059 688.24 389.59 689.5 387.863 689.5V690.5ZM348 690.5H387.863V689.5H348V690.5ZM347.5 690V706.608H348.5V690H347.5ZM347.532 706.783L351.277 716.771L352.214 716.42L348.468 706.432L347.532 706.783ZM351.277 716.771C351.68 717.846 351.531 719.05 350.877 719.994L351.699 720.563C352.539 719.35 352.732 717.802 352.214 716.42L351.277 716.771ZM350.877 719.994C350.223 720.937 349.148 721.5 348 721.5V722.5C349.476 722.5 350.858 721.776 351.699 720.563L350.877 719.994ZM348 721.5H344V722.5H348V721.5ZM344 721.5H328V722.5H344V721.5ZM328 721.5H324V722.5H328V721.5ZM324 721.5C322.852 721.5 321.777 720.937 321.123 719.994L320.301 720.563C321.142 721.776 322.524 722.5 324 722.5V721.5ZM321.123 719.994C320.47 719.05 320.32 717.846 320.723 716.771L319.787 716.42C319.268 717.802 319.461 719.35 320.301 720.563L321.123 719.994ZM320.723 716.771L324.468 706.783L323.532 706.432L319.787 716.42L320.723 716.771ZM324.5 706.608V690H323.5V706.608H324.5ZM284.137 690.5H324V689.5H284.137V690.5ZM279.69 686.686C280.029 688.881 281.917 690.5 284.137 690.5V689.5C282.41 689.5 280.942 688.24 280.678 686.534L279.69 686.686ZM283.164 671.713C279.939 676.254 278.913 681.652 279.69 686.686L280.678 686.534C279.938 681.735 280.917 676.604 283.979 672.292L283.164 671.713ZM293.424 640.708C280.51 645.04 275.261 661.198 283.164 672.293L283.979 671.712C276.465 661.164 281.464 645.775 293.742 641.656L293.424 640.708ZM319.948 621.659C306.955 617.573 293.212 627.557 293.083 641.177L294.083 641.187C294.206 628.238 307.295 618.728 319.648 622.613L319.948 621.659ZM331.5 690V707.333H332.5V690H331.5ZM336 689.5H332V690.5H336V689.5ZM340 689.5H336V690.5H340V689.5ZM340.5 707.333V690H339.5V707.333H340.5ZM340.723 708.562C340.576 708.169 340.5 707.753 340.5 707.333H339.5C339.5 707.873 339.597 708.408 339.787 708.913L340.723 708.562ZM342.696 713.824L340.723 708.562L339.787 708.913L341.76 714.175L342.696 713.824ZM329.772 714.5H342.228V713.5H329.772V714.5ZM331.277 708.562L329.304 713.824L330.24 714.175L332.214 708.913L331.277 708.562ZM331.5 707.333C331.5 707.753 331.425 708.169 331.277 708.562L332.214 708.913C332.403 708.408 332.5 707.873 332.5 707.333H331.5Z" fill="currentColor"/>
<path fill-rule="evenodd" clip-rule="evenodd" d="M563.863 686H460.137C459.386 681.131 460.771 675.909 464.835 672C455.208 662.741 460.612 646.109 473.843 644.277C471.496 631.128 485.645 620.849 497.425 627.144C503.256 615.127 520.744 615.127 526.575 627.144C538.355 620.849 552.504 631.128 550.157 644.277C563.388 646.109 568.792 662.741 559.165 672C563.229 675.909 564.614 681.131 563.863 686Z" fill="currentColor"/>
<path d="M563.863 686V688C564.85 688 565.689 687.28 565.839 686.305L563.863 686ZM460.137 686L458.161 686.305C458.311 687.28 459.15 688 460.137 688V686ZM464.835 672L466.222 673.441C466.614 673.064 466.835 672.544 466.835 672C466.835 671.456 466.614 670.935 466.222 670.558L464.835 672ZM473.843 644.277L474.117 646.258C474.656 646.184 475.141 645.893 475.461 645.453C475.781 645.013 475.907 644.461 475.812 643.926L473.843 644.277ZM497.425 627.144L496.483 628.908C496.963 629.164 497.526 629.214 498.043 629.046C498.561 628.878 498.987 628.506 499.225 628.017L497.425 627.144ZM526.575 627.144L524.775 628.017C525.013 628.506 525.439 628.878 525.957 629.046C526.474 629.214 527.038 629.164 527.517 628.908L526.575 627.144ZM550.157 644.277L548.188 643.926C548.093 644.461 548.219 645.013 548.539 645.453C548.859 645.893 549.344 646.184 549.883 646.258L550.157 644.277ZM559.165 672L557.778 670.558C557.386 670.935 557.165 671.456 557.165 672C557.165 672.544 557.386 673.064 557.778 673.441L559.165 672ZM563.863 684H460.137V688H563.863V684ZM462.114 685.695C461.453 681.411 462.668 676.859 466.222 673.441L463.449 670.558C458.874 674.958 457.319 680.851 458.161 686.305L462.114 685.695ZM466.222 670.558C457.798 662.458 462.541 647.861 474.117 646.258L473.569 642.296C458.684 644.357 452.618 663.025 463.449 673.441L466.222 670.558ZM475.812 643.926C473.759 632.421 486.175 623.4 496.483 628.908L498.368 625.38C485.115 618.298 469.234 629.835 471.874 644.629L475.812 643.926ZM499.225 628.017C504.326 617.502 519.674 617.502 524.775 628.017L528.374 626.271C521.815 612.751 502.185 612.751 495.626 626.271L499.225 628.017ZM527.517 628.908C537.825 623.4 550.241 632.421 548.188 643.926L552.126 644.629C554.766 629.835 538.886 618.298 525.632 625.38L527.517 628.908ZM549.883 646.258C561.459 647.861 566.202 662.458 557.778 670.558L560.551 673.441C571.382 663.025 565.316 644.357 550.431 642.296L549.883 646.258ZM557.778 673.441C561.332 676.859 562.547 681.411 561.886 685.695L565.839 686.305C566.681 680.851 565.126 674.958 560.551 670.558L557.778 673.441Z" fill="currentColor"/>
<path fill-rule="evenodd" clip-rule="evenodd" d="M504 707.333V686H512H520V707.333L524 718H520H504H500L504 707.333Z" fill="currentColor"/>
<path d="M504 707.333L505.873 708.036C505.957 707.811 506 707.573 506 707.333H504ZM504 686V684C502.895 684 502 684.895 502 686H504ZM520 686H522C522 684.895 521.105 684 520 684V686ZM520 707.333H518C518 707.573 518.043 707.811 518.127 708.036L520 707.333ZM524 718V720C524.656 720 525.27 719.678 525.644 719.139C526.017 718.6 526.103 717.912 525.873 717.298L524 718ZM500 718L498.127 717.298C497.897 717.912 497.983 718.6 498.356 719.139C498.73 719.678 499.344 720 500 720V718ZM506 707.333V686H502V707.333H506ZM504 688H512V684H504V688ZM512 688H520V684H512V688ZM518 686V707.333H522V686H518ZM518.127 708.036L522.127 718.702L525.873 717.298L521.873 706.631L518.127 708.036ZM524 716H520V720H524V716ZM520 716H504V720H520V716ZM504 716H500V720H504V716ZM501.873 718.702L505.873 708.036L502.127 706.631L498.127 717.298L501.873 718.702Z" fill="currentColor"/>
<g opacity="0.25">
<path fill-rule="evenodd" clip-rule="evenodd" d="M739.863 686H636.137C635.386 681.131 636.771 675.909 640.835 672C631.208 662.741 636.612 646.109 649.843 644.277C647.496 631.128 661.645 620.849 673.425 627.144C679.256 615.127 696.744 615.127 702.575 627.144C714.355 620.849 728.504 631.128 726.157 644.277C739.388 646.109 744.792 662.741 735.165 672C739.229 675.909 740.614 681.131 739.863 686Z" fill="currentColor"/>
<path d="M739.863 686V688C740.85 688 741.689 687.28 741.839 686.305L739.863 686ZM636.137 686L634.161 686.305C634.311 687.28 635.15 688 636.137 688V686ZM640.835 672L642.222 673.441C642.614 673.064 642.835 672.544 642.835 672C642.835 671.456 642.614 670.935 642.222 670.558L640.835 672ZM649.843 644.277L650.117 646.258C650.656 646.184 651.141 645.893 651.461 645.453C651.781 645.013 651.907 644.461 651.812 643.926L649.843 644.277ZM673.425 627.144L672.483 628.908C672.963 629.164 673.526 629.214 674.043 629.046C674.561 628.878 674.987 628.506 675.225 628.017L673.425 627.144ZM702.575 627.144L700.775 628.017C701.013 628.506 701.439 628.878 701.957 629.046C702.474 629.214 703.038 629.164 703.517 628.908L702.575 627.144ZM726.157 644.277L724.188 643.926C724.093 644.461 724.219 645.013 724.539 645.453C724.859 645.893 725.344 646.184 725.883 646.258L726.157 644.277ZM735.165 672L733.778 670.558C733.386 670.935 733.165 671.456 733.165 672C733.165 672.544 733.386 673.064 733.778 673.441L735.165 672ZM739.863 684H636.137V688H739.863V684ZM638.114 685.695C637.453 681.411 638.668 676.859 642.222 673.441L639.449 670.558C634.874 674.958 633.319 680.851 634.161 686.305L638.114 685.695ZM642.222 670.558C633.798 662.458 638.541 647.861 650.117 646.258L649.569 642.296C634.684 644.357 628.618 663.025 639.449 673.441L642.222 670.558ZM651.812 643.926C649.759 632.421 662.175 623.4 672.483 628.908L674.368 625.38C661.115 618.298 645.234 629.835 647.874 644.629L651.812 643.926ZM675.225 628.017C680.326 617.502 695.674 617.502 700.775 628.017L704.374 626.271C697.815 612.751 678.185 612.751 671.626 626.271L675.225 628.017ZM703.517 628.908C713.825 623.4 726.241 632.421 724.188 643.926L728.126 644.629C730.766 629.835 714.886 618.298 701.632 625.38L703.517 628.908ZM725.883 646.258C737.459 647.861 742.202 662.458 733.778 670.558L736.551 673.441C747.382 663.025 741.316 644.357 726.431 642.296L725.883 646.258ZM733.778 673.441C737.332 676.859 738.547 681.411 737.886 685.695L741.839 686.305C742.681 680.851 741.126 674.958 736.551 670.558L733.778 673.441Z" fill="currentColor"/>
</g>
<path fill-rule="evenodd" clip-rule="evenodd" d="M680 707.333V686H688H696V707.333L700 718H696H680H676L680 707.333Z" fill="currentColor"/>
<path fill-rule="evenodd" clip-rule="evenodd" d="M915.863 686H812.137C811.386 681.131 812.771 675.909 816.835 672C807.208 662.741 812.612 646.109 825.843 644.277C823.496 631.128 837.645 620.849 849.425 627.144C855.256 615.127 872.744 615.127 878.575 627.144C890.355 620.849 904.504 631.128 902.157 644.277C915.388 646.109 920.792 662.741 911.165 672C915.229 675.909 916.614 681.131 915.863 686Z" fill="#FFA500"/>
<path d="M915.863 686V688C916.85 688 917.689 687.28 917.839 686.305L915.863 686ZM812.137 686L810.161 686.305C810.311 687.28 811.15 688 812.137 688V686ZM816.835 672L818.222 673.441C818.614 673.064 818.835 672.544 818.835 672C818.835 671.456 818.614 670.935 818.222 670.558L816.835 672ZM825.843 644.277L826.117 646.258C826.656 646.184 827.141 645.893 827.461 645.453C827.781 645.013 827.907 644.461 827.812 643.926L825.843 644.277ZM849.425 627.144L848.483 628.908C848.963 629.164 849.526 629.214 850.043 629.046C850.561 628.878 850.987 628.506 851.225 628.017L849.425 627.144ZM878.575 627.144L876.775 628.017C877.013 628.506 877.439 628.878 877.957 629.046C878.474 629.214 879.038 629.164 879.517 628.908L878.575 627.144ZM902.157 644.277L900.188 643.926C900.093 644.461 900.219 645.013 900.539 645.453C900.859 645.893 901.344 646.184 901.883 646.258L902.157 644.277ZM911.165 672L909.778 670.558C909.386 670.935 909.165 671.456 909.165 672C909.165 672.544 909.386 673.064 909.778 673.441L911.165 672ZM915.863 684H812.137V688H915.863V684ZM814.114 685.695C813.453 681.411 814.668 676.859 818.222 673.441L815.449 670.558C810.874 674.958 809.319 680.851 810.161 686.305L814.114 685.695ZM818.222 670.558C809.798 662.458 814.541 647.861 826.117 646.258L825.569 642.296C810.684 644.357 804.618 663.025 815.449 673.441L818.222 670.558ZM827.812 643.926C825.759 632.421 838.175 623.4 848.483 628.908L850.368 625.38C837.115 618.298 821.234 629.835 823.874 644.629L827.812 643.926ZM851.225 628.017C856.326 617.502 871.674 617.502 876.775 628.017L880.374 626.271C873.815 612.751 854.185 612.751 847.626 626.271L851.225 628.017ZM879.517 628.908C889.825 623.4 902.241 632.421 900.188 643.926L904.126 644.629C906.766 629.835 890.886 618.298 877.632 625.38L879.517 628.908ZM901.883 646.258C913.459 647.861 918.202 662.458 909.778 670.558L912.551 673.441C923.382 663.025 917.316 644.357 902.431 642.296L901.883 646.258ZM909.778 673.441C913.332 676.859 914.547 681.411 913.886 685.695L917.839 686.305C918.681 680.851 917.126 674.958 912.551 670.558L909.778 673.441Z" fill="#FFA500"/>
<path fill-rule="evenodd" clip-rule="evenodd" d="M856 707.333V686H864H872V707.333L876 718H872H856H852L856 707.333Z" fill="#8B4513"/>
</svg>
