<svg viewBox="0 0 1024 768" fill="none" xmlns="http://www.w3.org/2000/svg">
<path d="M424 36L434.182 85.8177L484 96L434.182 106.182L424 156L413.818 106.182L364 96L413.818 85.8177L424 36Z" stroke="#7B61FF" stroke-width="2" stroke-linecap="round" stroke-linejoin="round"/>
<path d="M578.787 147.213C592.369 152.839 607.631 152.839 621.213 147.213V147.213C634.796 141.587 645.587 130.796 651.213 117.213V117.213C656.839 103.631 656.839 88.3694 651.213 74.7868V74.7868C645.587 61.2042 634.796 50.4129 621.213 44.7868V44.7868C607.631 39.1607 592.369 39.1607 578.787 44.7868V44.7868C565.204 50.4129 554.413 61.2042 548.787 74.7868V74.7868C543.161 88.3694 543.161 103.631 548.787 117.213V117.213C554.413 130.796 565.204 141.587 578.787 147.213V147.213Z" stroke="#7B61FF" stroke-width="2" stroke-linecap="round" stroke-linejoin="round"/>
<path fill-rule="evenodd" clip-rule="evenodd" d="M536.796 242.962C520.393 240.078 503.606 240.078 487.203 242.962L480.076 277.83C476.53 278.896 473.025 280.144 469.573 281.574C442.408 292.826 420.825 314.409 409.573 341.574C408.144 345.025 406.896 348.531 405.829 352.077L370.961 359.203C368.077 375.607 368.077 392.394 370.961 408.797L405.829 415.924C406.896 419.47 408.144 422.975 409.573 426.427C420.825 453.592 442.408 475.174 469.573 486.427C473.025 487.856 476.53 489.104 480.076 490.17L487.203 525.039C503.606 527.922 520.393 527.922 536.796 525.039L543.923 490.17C547.469 489.104 550.975 487.856 554.426 486.427C581.591 475.174 603.174 453.592 614.426 426.427C615.856 422.975 617.104 419.47 618.17 415.924L653.038 408.797C655.922 392.394 655.922 375.607 653.038 359.203L618.17 352.077C617.104 348.531 615.856 345.025 614.426 341.574C603.174 314.409 581.591 292.826 554.426 281.574C550.975 280.144 547.469 278.896 543.923 277.83L536.796 242.962Z" fill="#888888" fill-opacity="0.5"/>
<path d="M487.203 242.962L486.337 238.037C484.315 238.393 482.715 239.948 482.304 241.96L487.203 242.962ZM536.796 242.962L541.695 241.96C541.284 239.948 539.685 238.393 537.662 238.037L536.796 242.962ZM480.076 277.83L481.516 282.618C483.278 282.088 484.606 280.634 484.975 278.831L480.076 277.83ZM469.573 281.574L471.487 286.193H471.487L469.573 281.574ZM409.573 341.574L414.193 343.487V343.487L409.573 341.574ZM405.829 352.077L406.831 356.975C408.633 356.607 410.088 355.278 410.618 353.516L405.829 352.077ZM370.961 359.203L369.96 354.305C367.948 354.716 366.392 356.315 366.037 358.338L370.961 359.203ZM370.961 408.797L366.037 409.663C366.392 411.685 367.948 413.284 369.96 413.696L370.961 408.797ZM405.829 415.924L410.618 414.484C410.088 412.722 408.633 411.393 406.831 411.025L405.829 415.924ZM409.573 426.427L414.193 424.513L409.573 426.427ZM469.573 486.427L471.487 481.807H471.487L469.573 486.427ZM480.076 490.17L484.975 489.169C484.606 487.367 483.278 485.912 481.516 485.382L480.076 490.17ZM487.203 525.039L482.304 526.04C482.715 528.052 484.315 529.608 486.337 529.963L487.203 525.039ZM536.796 525.039L537.662 529.963C539.685 529.608 541.284 528.052 541.695 526.04L536.796 525.039ZM543.923 490.17L542.483 485.382C540.722 485.912 539.393 487.367 539.025 489.169L543.923 490.17ZM554.426 486.427L552.513 481.807H552.513L554.426 486.427ZM614.426 426.427L609.807 424.513V424.513L614.426 426.427ZM618.17 415.924L617.169 411.025C615.366 411.393 613.912 412.722 613.382 414.484L618.17 415.924ZM653.038 408.797L654.04 413.696C656.051 413.284 657.607 411.685 657.963 409.663L653.038 408.797ZM653.038 359.203L657.963 358.338C657.607 356.315 656.051 354.716 654.04 354.305L653.038 359.203ZM618.17 352.077L613.382 353.516C613.912 355.278 615.366 356.607 617.169 356.975L618.17 352.077ZM614.426 341.574L609.807 343.487V343.487L614.426 341.574ZM554.426 281.574L552.513 286.193L554.426 281.574ZM543.923 277.83L539.025 278.831C539.393 280.634 540.722 282.088 542.483 282.618L543.923 277.83ZM488.069 247.886C503.899 245.103 520.1 245.103 535.931 247.886L537.662 238.037C520.686 235.053 503.313 235.053 486.337 238.037L488.069 247.886ZM482.304 241.96L475.177 276.829L484.975 278.831L492.102 243.963L482.304 241.96ZM478.636 273.042C474.93 274.156 471.267 275.46 467.66 276.954L471.487 286.193C474.783 284.828 478.13 283.636 481.516 282.618L478.636 273.042ZM467.66 276.954C439.27 288.714 416.713 311.27 404.954 339.66L414.193 343.487C424.937 317.547 445.547 296.938 471.487 286.193L467.66 276.954ZM404.954 339.66C403.46 343.267 402.156 346.931 401.041 350.637L410.618 353.516C411.636 350.13 412.827 346.783 414.193 343.487L404.954 339.66ZM404.828 347.178L369.96 354.305L371.962 364.102L406.831 356.975L404.828 347.178ZM375.886 407.931C373.103 392.101 373.103 375.9 375.886 360.069L366.037 358.338C363.052 375.314 363.052 392.686 366.037 409.663L375.886 407.931ZM369.96 413.696L404.828 420.822L406.831 411.025L371.962 403.898L369.96 413.696ZM401.041 417.364C402.156 421.07 403.46 424.733 404.954 428.34L414.193 424.513C412.827 421.217 411.636 417.87 410.618 414.484L401.041 417.364ZM404.954 428.34C416.713 456.73 439.27 479.286 467.66 491.046L471.487 481.807C445.547 471.062 424.937 450.453 414.193 424.513L404.954 428.34ZM467.66 491.046C471.267 492.54 474.93 493.844 478.636 494.959L481.516 485.382C478.13 484.364 474.783 483.172 471.487 481.807L467.66 491.046ZM475.177 491.172L482.304 526.04L492.102 524.038L484.975 489.169L475.177 491.172ZM535.931 520.114C520.1 522.897 503.899 522.897 488.069 520.114L486.337 529.963C503.313 532.948 520.686 532.948 537.662 529.963L535.931 520.114ZM541.695 526.04L548.822 491.172L539.025 489.169L531.898 524.038L541.695 526.04ZM545.363 494.959C549.069 493.844 552.733 492.54 556.34 491.046L552.513 481.807C549.217 483.172 545.869 484.364 542.483 485.382L545.363 494.959ZM556.339 491.046C584.73 479.286 607.286 456.73 619.045 428.34L609.807 424.513C599.062 450.453 578.453 471.062 552.513 481.807L556.339 491.046ZM619.045 428.34C620.539 424.733 621.844 421.07 622.958 417.364L613.382 414.484C612.364 417.87 611.172 421.217 609.807 424.513L619.045 428.34ZM619.171 420.823L654.04 413.696L652.037 403.898L617.169 411.025L619.171 420.823ZM648.114 360.069C650.897 375.9 650.897 392.101 648.114 407.931L657.963 409.663C660.947 392.686 660.947 375.314 657.963 358.338L648.114 360.069ZM654.04 354.305L619.171 347.178L617.169 356.975L652.037 364.102L654.04 354.305ZM622.958 350.637C621.844 346.931 620.539 343.267 619.045 339.66L609.807 343.487C611.172 346.783 612.364 350.13 613.382 353.516L622.958 350.637ZM619.045 339.66C607.286 311.27 584.73 288.714 556.339 276.954L552.513 286.193C578.453 296.938 599.062 317.547 609.807 343.487L619.045 339.66ZM556.339 276.954C552.733 275.46 549.069 274.156 545.363 273.042L542.483 282.618C545.869 283.636 549.217 284.828 552.513 286.193L556.339 276.954ZM548.822 276.829L541.695 241.96L531.898 243.963L539.025 278.831L548.822 276.829Z" fill="currentColor"/>
<path d="M489.019 439.481C503.734 445.576 520.267 445.576 534.981 439.481C549.695 433.386 561.386 421.695 567.481 406.981C573.576 392.266 573.576 375.733 567.481 361.019C561.386 346.305 549.695 334.614 534.981 328.519C520.267 322.424 503.734 322.424 489.019 328.519C474.305 334.614 462.614 346.305 456.519 361.019C450.424 375.733 450.424 392.266 456.519 406.981C462.614 421.695 474.305 433.386 489.019 439.481Z" fill="#888888" fill-opacity="0.5" stroke="currentColor" stroke-width="10" stroke-linecap="round" stroke-linejoin="round"/>
<path d="M150.081 615.585L149.908 614.6C149.503 614.671 149.184 614.982 149.101 615.385L150.081 615.585ZM169.918 615.585L170.898 615.385C170.816 614.982 170.496 614.671 170.092 614.6L169.918 615.585ZM147.23 629.532L147.518 630.49C147.871 630.384 148.136 630.093 148.21 629.732L147.23 629.532ZM143.029 631.03L142.647 630.106V630.106L143.029 631.03ZM119.029 655.03L118.105 654.647L119.029 655.03ZM117.532 659.231L117.732 660.211C118.092 660.137 118.383 659.871 118.489 659.519L117.532 659.231ZM103.584 662.082L103.384 661.102C102.982 661.184 102.671 661.504 102.599 661.908L103.584 662.082ZM103.584 681.919L102.599 682.092C102.671 682.497 102.982 682.816 103.384 682.899L103.584 681.919ZM117.532 684.77L118.489 684.482C118.383 684.129 118.092 683.864 117.732 683.79L117.532 684.77ZM119.029 688.971L119.953 688.588L119.029 688.971ZM143.029 712.971L143.412 712.047H143.412L143.029 712.971ZM147.23 714.468L148.21 714.268C148.136 713.908 147.871 713.617 147.518 713.511L147.23 714.468ZM150.081 728.416L149.101 728.616C149.184 729.018 149.503 729.329 149.908 729.401L150.081 728.416ZM169.919 728.416L170.092 729.401C170.496 729.329 170.816 729.018 170.898 728.616L169.919 728.416ZM172.769 714.468L172.481 713.511C172.129 713.617 171.863 713.908 171.789 714.268L172.769 714.468ZM176.97 712.971L177.353 713.895L176.97 712.971ZM200.97 688.971L200.046 688.588L200.97 688.971ZM202.468 684.77L202.268 683.79C201.907 683.864 201.616 684.129 201.51 684.482L202.468 684.77ZM216.415 681.919L216.615 682.899C217.018 682.816 217.329 682.497 217.4 682.092L216.415 681.919ZM216.415 662.082L217.4 661.908C217.329 661.504 217.018 661.184 216.615 661.102L216.415 662.082ZM202.468 659.231L201.51 659.519C201.616 659.871 201.907 660.137 202.268 660.211L202.468 659.231ZM200.97 655.03L201.894 654.647L200.97 655.03ZM176.97 631.03L176.588 631.954L176.97 631.03ZM172.769 629.532L171.789 629.732C171.863 630.093 172.129 630.384 172.481 630.49L172.769 629.532ZM150.254 616.57C156.701 615.436 163.299 615.436 169.745 616.57L170.092 614.6C163.416 613.426 156.584 613.426 149.908 614.6L150.254 616.57ZM149.101 615.385L146.251 629.332L148.21 629.732L151.061 615.785L149.101 615.385ZM146.942 628.575C145.492 629.011 144.058 629.521 142.647 630.106L143.412 631.954C144.761 631.395 146.132 630.907 147.518 630.49L146.942 628.575ZM142.647 630.106C131.535 634.708 122.708 643.536 118.105 654.647L119.953 655.412C124.352 644.791 132.791 636.353 143.412 631.954L142.647 630.106ZM118.105 654.647C117.521 656.059 117.01 657.492 116.574 658.943L118.489 659.519C118.906 658.132 119.394 656.762 119.953 655.412L118.105 654.647ZM117.331 658.251L103.384 661.102L103.785 663.061L117.732 660.211L117.331 658.251ZM104.569 681.746C103.436 675.299 103.436 668.702 104.569 662.255L102.599 661.908C101.426 668.584 101.426 675.416 102.599 682.092L104.569 681.746ZM103.384 682.899L117.331 685.749L117.732 683.79L103.785 680.939L103.384 682.899ZM116.574 685.058C117.01 686.508 117.521 687.942 118.105 689.354L119.953 688.588C119.394 687.239 118.906 685.868 118.489 684.482L116.574 685.058ZM118.105 689.354C122.708 700.465 131.535 709.292 142.647 713.895L143.412 712.047C132.791 707.648 124.352 699.209 119.953 688.588L118.105 689.354ZM142.647 713.895C144.058 714.479 145.492 714.99 146.942 715.426L147.518 713.511C146.132 713.094 144.761 712.606 143.412 712.047L142.647 713.895ZM146.251 714.669L149.101 728.616L151.061 728.215L148.21 714.268L146.251 714.669ZM169.745 727.431C163.299 728.564 156.701 728.564 150.254 727.431L149.908 729.401C156.584 730.574 163.416 730.574 170.092 729.401L169.745 727.431ZM170.898 728.616L173.749 714.669L171.789 714.268L168.939 728.215L170.898 728.616ZM173.057 715.426C174.508 714.99 175.941 714.479 177.353 713.895L176.588 712.047C175.238 712.606 173.868 713.094 172.481 713.511L173.057 715.426ZM177.353 713.895C188.464 709.292 197.292 700.465 201.894 689.354L200.046 688.588C195.647 699.209 187.209 707.648 176.588 712.047L177.353 713.895ZM201.894 689.354C202.479 687.942 202.989 686.508 203.425 685.058L201.51 684.482C201.093 685.868 200.605 687.239 200.046 688.588L201.894 689.354ZM202.668 685.749L216.615 682.899L216.215 680.939L202.268 683.79L202.668 685.749ZM215.43 662.255C216.564 668.702 216.564 675.299 215.43 681.746L217.4 682.092C218.574 675.416 218.574 668.584 217.4 661.908L215.43 662.255ZM216.615 661.102L202.668 658.251L202.268 660.211L216.215 663.061L216.615 661.102ZM203.425 658.943C202.989 657.492 202.479 656.059 201.894 654.647L200.046 655.412C200.605 656.762 201.093 658.132 201.51 659.519L203.425 658.943ZM201.894 654.647C197.292 643.536 188.464 634.708 177.353 630.106L176.588 631.954C187.209 636.353 195.647 644.791 200.046 655.412L201.894 654.647ZM177.353 630.106C175.941 629.521 174.508 629.011 173.057 628.575L172.481 630.49C173.868 630.907 175.238 631.395 176.588 631.954L177.353 630.106ZM173.749 629.332L170.898 615.385L168.939 615.785L171.789 629.732L173.749 629.332Z" fill="currentColor"/>
<path d="M150.808 694.192C156.693 696.63 163.307 696.63 169.192 694.192V694.192C175.078 691.754 179.754 687.078 182.192 681.192V681.192C184.63 675.307 184.63 668.693 182.192 662.808V662.808C179.754 656.922 175.078 652.246 169.192 649.808V649.808C163.307 647.37 156.693 647.37 150.808 649.808V649.808C144.922 652.246 140.246 656.922 137.808 662.808V662.808C135.37 668.693 135.37 675.307 137.808 681.192V681.192C140.246 687.078 144.922 691.754 150.808 694.192V694.192Z" stroke="currentColor" stroke-width="2" stroke-linecap="round" stroke-linejoin="round"/>
<path d="M329.44 619.125L329.379 618.629C329.166 618.655 328.993 618.815 328.95 619.025L329.44 619.125ZM327.149 630.333L327.639 630.433L327.149 630.333ZM342.559 619.125L343.049 619.025C343.006 618.815 342.834 618.655 342.621 618.629L342.559 619.125ZM344.85 630.333L344.36 630.433L344.85 630.333ZM347.617 633.363L347.761 632.884L347.617 633.363ZM351.44 634.725L351.248 635.187L351.44 634.725ZM373.275 656.56L373.737 656.369L373.275 656.56ZM374.637 660.383L374.158 660.527L374.637 660.383ZM377.667 663.15L377.567 663.64L377.667 663.15ZM388.875 665.441L389.371 665.379C389.345 665.166 389.186 664.994 388.975 664.951L388.875 665.441ZM388.875 678.56L388.975 679.05C389.186 679.007 389.345 678.834 389.371 678.621L388.875 678.56ZM377.667 680.851L377.567 680.361L377.667 680.851ZM374.637 683.618L374.158 683.474L374.637 683.618ZM373.275 687.44L373.737 687.631V687.631L373.275 687.44ZM351.44 709.275L351.631 709.737L351.44 709.275ZM347.617 710.638L347.473 710.159L347.617 710.638ZM344.85 713.667L344.36 713.567L344.85 713.667ZM342.559 724.876L342.621 725.372C342.834 725.345 343.006 725.186 343.049 724.976L342.559 724.876ZM329.44 724.876L328.95 724.976C328.993 725.186 329.166 725.345 329.379 725.372L329.44 724.876ZM327.149 713.667L327.639 713.567L327.149 713.667ZM324.382 710.638L324.238 711.117H324.238L324.382 710.638ZM320.56 709.275L320.369 709.737L320.56 709.275ZM298.725 687.44L299.187 687.249L298.725 687.44ZM297.362 683.618L297.841 683.474L297.362 683.618ZM294.333 680.851L294.433 680.361L294.333 680.851ZM283.124 678.56L282.628 678.621C282.655 678.834 282.814 679.007 283.024 679.05L283.124 678.56ZM283.124 665.441L283.024 664.951C282.814 664.994 282.655 665.166 282.628 665.379L283.124 665.441ZM294.333 663.15L294.433 663.64L294.333 663.15ZM297.362 660.383L296.883 660.239L297.362 660.383ZM298.725 656.56L299.187 656.752L298.725 656.56ZM320.56 634.725L320.369 634.263V634.263L320.56 634.725ZM324.382 633.363L324.526 633.842L324.382 633.363ZM325.388 611.645L325.475 612.138L325.388 611.645ZM346.611 611.645L346.698 611.153V611.153L346.611 611.645ZM322.162 614.784L321.672 614.684L322.162 614.784ZM319.776 626.457L319.944 626.928C320.109 626.87 320.231 626.729 320.266 626.558L319.776 626.457ZM317.498 627.334L317.307 626.872V626.872L317.498 627.334ZM291.334 653.499L290.872 653.308L291.334 653.499ZM290.457 655.777L290.557 656.266C290.728 656.231 290.869 656.109 290.928 655.944L290.457 655.777ZM278.783 658.163L278.883 658.652L278.783 658.163ZM275.645 661.389L275.152 661.302H275.152L275.645 661.389ZM275.645 682.612L275.152 682.698H275.152L275.645 682.612ZM278.783 685.838L278.883 685.348H278.883L278.783 685.838ZM290.457 688.224L290.928 688.056C290.869 687.891 290.728 687.769 290.557 687.734L290.457 688.224ZM291.334 690.502L290.872 690.693V690.693L291.334 690.502ZM317.498 716.666L317.69 716.204H317.69L317.498 716.666ZM319.776 717.543L320.266 717.443C320.231 717.272 320.109 717.131 319.944 717.072L319.776 717.543ZM322.162 729.217L322.652 729.117L322.162 729.217ZM325.388 732.355L325.302 732.848L325.388 732.355ZM346.611 732.355L346.698 732.848L346.611 732.355ZM349.837 729.217L349.348 729.117V729.117L349.837 729.217ZM352.223 717.543L352.056 717.072C351.891 717.131 351.769 717.272 351.734 717.443L352.223 717.543ZM354.501 716.666L354.31 716.204L354.501 716.666ZM380.666 690.502L380.204 690.31L380.666 690.502ZM381.543 688.224L381.443 687.734C381.271 687.769 381.13 687.891 381.072 688.056L381.543 688.224ZM393.216 685.838L393.116 685.348L393.216 685.838ZM396.355 682.612L396.847 682.698L396.355 682.612ZM396.355 661.389L396.847 661.302L396.355 661.389ZM393.216 658.163L393.116 658.652L393.216 658.163ZM381.543 655.777L381.072 655.944C381.13 656.109 381.271 656.231 381.442 656.266L381.543 655.777ZM380.666 653.499L381.128 653.308V653.308L380.666 653.499ZM354.501 627.334L354.31 627.796V627.796L354.501 627.334ZM352.223 626.457L351.734 626.558C351.769 626.729 351.891 626.87 352.056 626.928L352.223 626.457ZM349.837 614.784L349.348 614.884V614.884L349.837 614.784ZM346.723 697.888L346.914 698.35L346.723 697.888ZM325.277 646.112L325.085 645.65L325.277 646.112ZM361.888 661.277L362.35 661.086L361.888 661.277ZM328.338 690.497L328.147 690.959L328.338 690.497ZM354.497 679.662L354.959 679.853L354.497 679.662ZM354.497 664.339L354.035 664.53L354.497 664.339ZM328.338 653.503L328.147 653.041L328.338 653.503ZM317.503 664.339L317.041 664.147L317.503 664.339ZM317.503 679.662L317.041 679.853L317.503 679.662ZM328.95 619.025L326.659 630.233L327.639 630.433L329.93 619.225L328.95 619.025ZM342.621 618.629C338.224 618.083 333.776 618.083 329.379 618.629L329.502 619.621C333.817 619.086 338.183 619.086 342.498 619.621L342.621 618.629ZM345.34 630.233L343.049 619.025L342.069 619.225L344.36 630.433L345.34 630.233ZM347.761 632.884C346.528 632.513 345.598 631.495 345.34 630.233L344.36 630.433C344.692 632.056 345.888 633.365 347.473 633.842L347.761 632.884ZM351.631 634.263C350.359 633.737 349.068 633.277 347.761 632.884L347.473 633.842C348.748 634.225 350.008 634.673 351.248 635.187L351.631 634.263ZM373.737 656.369C369.591 646.361 361.639 638.409 351.631 634.263L351.248 635.187C361.012 639.231 368.769 646.988 372.813 656.752L373.737 656.369ZM375.116 660.239C374.723 658.932 374.263 657.641 373.737 656.369L372.813 656.752C373.327 657.992 373.775 659.252 374.158 660.527L375.116 660.239ZM377.767 662.66C376.505 662.402 375.487 661.472 375.116 660.239L374.158 660.527C374.635 662.112 375.944 663.308 377.567 663.64L377.767 662.66ZM388.975 664.951L377.767 662.66L377.567 663.64L388.775 665.931L388.975 664.951ZM389.371 678.621C389.917 674.224 389.917 669.776 389.371 665.379L388.379 665.502C388.914 669.817 388.914 674.183 388.379 678.498L389.371 678.621ZM377.767 681.341L388.975 679.05L388.775 678.07L377.567 680.361L377.767 681.341ZM375.116 683.762C375.487 682.528 376.505 681.599 377.767 681.341L377.567 680.361C375.944 680.692 374.635 681.888 374.158 683.474L375.116 683.762ZM373.737 687.631C374.263 686.36 374.723 685.068 375.116 683.762L374.158 683.474C373.775 684.748 373.327 686.008 372.813 687.249L373.737 687.631ZM351.631 709.737C361.639 705.592 369.591 697.64 373.737 687.631L372.813 687.249C368.769 697.012 361.012 704.769 351.248 708.813L351.631 709.737ZM347.761 711.117C349.068 710.724 350.359 710.264 351.631 709.737L351.248 708.813C350.008 709.327 348.748 709.776 347.473 710.159L347.761 711.117ZM345.34 713.768C345.598 712.506 346.528 711.488 347.761 711.117L347.473 710.159C345.888 710.636 344.692 711.945 344.36 713.567L345.34 713.768ZM343.049 724.976L345.34 713.768L344.36 713.567L342.07 724.775L343.049 724.976ZM329.379 725.372C333.776 725.917 338.224 725.917 342.621 725.372L342.498 724.379C338.183 724.915 333.817 724.915 329.502 724.379L329.379 725.372ZM326.659 713.768L328.95 724.976L329.93 724.775L327.639 713.567L326.659 713.768ZM324.238 711.117C325.472 711.488 326.402 712.506 326.659 713.768L327.639 713.567C327.308 711.945 326.112 710.636 324.526 710.159L324.238 711.117ZM320.369 709.737C321.64 710.264 322.932 710.724 324.238 711.117L324.526 710.159C323.252 709.776 321.992 709.327 320.751 708.813L320.369 709.737ZM298.263 687.631C302.408 697.64 310.36 705.592 320.369 709.737L320.751 708.813C310.988 704.769 303.231 697.012 299.187 687.249L298.263 687.631ZM296.883 683.762C297.276 685.068 297.736 686.36 298.263 687.631L299.187 687.249C298.673 686.008 298.224 684.748 297.841 683.474L296.883 683.762ZM294.233 681.341C295.494 681.599 296.512 682.528 296.883 683.762L297.841 683.474C297.364 681.888 296.055 680.692 294.433 680.361L294.233 681.341ZM283.024 679.05L294.233 681.341L294.433 680.361L283.225 678.07L283.024 679.05ZM282.628 665.379C282.083 669.776 282.083 674.224 282.628 678.621L283.621 678.498C283.085 674.183 283.085 669.817 283.621 665.502L282.628 665.379ZM294.233 662.66L283.024 664.951L283.225 665.931L294.433 663.64L294.233 662.66ZM296.883 660.239C296.513 661.472 295.494 662.402 294.233 662.66L294.433 663.64C296.055 663.308 297.364 662.112 297.841 660.527L296.883 660.239ZM298.263 656.369C297.736 657.641 297.276 658.932 296.883 660.239L297.841 660.527C298.224 659.252 298.673 657.992 299.187 656.752L298.263 656.369ZM320.369 634.263C310.36 638.409 302.408 646.361 298.263 656.369L299.187 656.752C303.231 646.988 310.988 639.231 320.751 635.187L320.369 634.263ZM324.238 632.884C322.932 633.277 321.64 633.737 320.369 634.263L320.751 635.187C321.992 634.673 323.252 634.225 324.526 633.842L324.238 632.884ZM326.659 630.233C326.402 631.495 325.472 632.513 324.238 632.884L324.526 633.842C326.112 633.365 327.308 632.056 327.639 630.433L326.659 630.233ZM325.475 612.138C332.437 610.914 339.562 610.914 346.524 612.138L346.698 611.153C339.621 609.909 332.379 609.909 325.302 611.153L325.475 612.138ZM322.652 614.884C322.94 613.476 324.059 612.387 325.475 612.138L325.302 611.153C323.482 611.473 322.042 612.873 321.672 614.684L322.652 614.884ZM320.266 626.558L322.652 614.884L321.672 614.684L319.286 626.357L320.266 626.558ZM317.69 627.796C318.436 627.487 319.187 627.198 319.944 626.928L319.608 625.986C318.836 626.262 318.068 626.557 317.307 626.872L317.69 627.796ZM291.796 653.69C296.652 641.967 305.966 632.652 317.69 627.796L317.307 626.872C305.338 631.83 295.829 641.339 290.872 653.308L291.796 653.69ZM290.928 655.944C291.197 655.188 291.487 654.436 291.796 653.69L290.872 653.308C290.556 654.069 290.261 654.836 289.986 655.609L290.928 655.944ZM278.883 658.652L290.557 656.266L290.357 655.287L278.683 657.673L278.883 658.652ZM276.137 661.476C276.386 660.06 277.475 658.94 278.883 658.652L278.683 657.673C276.873 658.043 275.472 659.482 275.152 661.302L276.137 661.476ZM276.137 682.525C274.913 675.563 274.913 668.438 276.137 661.476L275.152 661.302C273.908 668.379 273.908 675.621 275.152 682.698L276.137 682.525ZM278.883 685.348C277.475 685.06 276.386 683.941 276.137 682.525L275.152 682.698C275.472 684.518 276.873 685.958 278.683 686.328L278.883 685.348ZM290.557 687.734L278.883 685.348L278.683 686.328L290.357 688.714L290.557 687.734ZM291.796 690.31C291.487 689.564 291.197 688.813 290.928 688.056L289.986 688.392C290.261 689.164 290.556 689.932 290.872 690.693L291.796 690.31ZM317.69 716.204C305.966 711.348 296.652 702.034 291.796 690.31L290.872 690.693C295.829 702.662 305.338 712.171 317.307 717.128L317.69 716.204ZM319.944 717.072C319.187 716.803 318.436 716.513 317.69 716.204L317.307 717.128C318.068 717.444 318.836 717.739 319.608 718.014L319.944 717.072ZM322.652 729.117L320.266 717.443L319.286 717.643L321.672 729.317L322.652 729.117ZM325.475 731.863C324.059 731.614 322.94 730.525 322.652 729.117L321.672 729.317C322.042 731.127 323.482 732.528 325.302 732.848L325.475 731.863ZM346.524 731.863C339.562 733.087 332.437 733.087 325.475 731.863L325.302 732.848C332.379 734.092 339.621 734.092 346.698 732.848L346.524 731.863ZM349.348 729.117C349.06 730.525 347.94 731.614 346.524 731.863L346.698 732.848C348.518 732.528 349.957 731.127 350.327 729.317L349.348 729.117ZM351.734 717.443L349.348 729.117L350.327 729.317L352.713 717.643L351.734 717.443ZM354.31 716.204C353.564 716.513 352.812 716.803 352.056 717.072L352.391 718.014C353.164 717.739 353.931 717.444 354.692 717.128L354.31 716.204ZM380.204 690.31C375.348 702.034 366.033 711.348 354.31 716.204L354.692 717.128C366.661 712.171 376.17 702.662 381.128 690.693L380.204 690.31ZM381.072 688.056C380.802 688.813 380.513 689.565 380.204 690.31L381.128 690.693C381.443 689.932 381.738 689.164 382.014 688.392L381.072 688.056ZM393.116 685.348L381.443 687.734L381.643 688.714L393.316 686.328L393.116 685.348ZM395.862 682.525C395.613 683.941 394.524 685.06 393.116 685.348L393.316 686.328C395.127 685.958 396.527 684.518 396.847 682.698L395.862 682.525ZM395.862 661.476C397.086 668.438 397.086 675.563 395.862 682.525L396.847 682.698C398.091 675.621 398.091 668.379 396.847 661.302L395.862 661.476ZM393.116 658.652C394.524 658.94 395.613 660.06 395.862 661.476L396.847 661.302C396.527 659.482 395.127 658.043 393.316 657.673L393.116 658.652ZM381.442 656.266L393.116 658.652L393.316 657.673L381.643 655.287L381.442 656.266ZM380.204 653.69C380.513 654.436 380.802 655.188 381.072 655.944L382.014 655.609C381.738 654.836 381.443 654.069 381.128 653.308L380.204 653.69ZM354.31 627.796C366.033 632.652 375.348 641.967 380.204 653.69L381.128 653.308C376.17 641.339 366.661 631.83 354.692 626.872L354.31 627.796ZM352.056 626.928C352.812 627.198 353.564 627.487 354.31 627.796L354.692 626.872C353.931 626.557 353.164 626.262 352.391 625.986L352.056 626.928ZM349.348 614.884L351.734 626.558L352.713 626.357L350.327 614.684L349.348 614.884ZM346.524 612.138C347.94 612.387 349.06 613.476 349.348 614.884L350.327 614.684C349.957 612.873 348.518 611.473 346.698 611.153L346.524 612.138ZM325.085 698.35C332.074 701.245 339.926 701.245 346.914 698.35L346.532 697.426C339.788 700.219 332.211 700.219 325.468 697.426L325.085 698.35ZM309.65 682.915C312.545 689.903 318.097 695.455 325.085 698.35L325.468 697.426C318.725 694.633 313.367 689.275 310.574 682.532L309.65 682.915ZM309.65 661.086C306.755 668.074 306.755 675.926 309.65 682.915L310.574 682.532C307.781 675.789 307.781 668.212 310.574 661.468L309.65 661.086ZM325.085 645.65C318.097 648.545 312.545 654.097 309.65 661.086L310.574 661.468C313.367 654.725 318.725 649.367 325.468 646.574L325.085 645.65ZM346.914 645.65C339.926 642.756 332.074 642.756 325.085 645.65L325.468 646.574C332.211 643.781 339.788 643.781 346.532 646.574L346.914 645.65ZM362.35 661.086C359.455 654.097 353.903 648.545 346.914 645.65L346.532 646.574C353.275 649.367 358.633 654.725 361.426 661.468L362.35 661.086ZM362.35 682.915C365.244 675.926 365.244 668.074 362.35 661.086L361.426 661.468C364.219 668.212 364.219 675.789 361.426 682.532L362.35 682.915ZM346.914 698.35C353.903 695.455 359.455 689.903 362.35 682.915L361.426 682.532C358.633 689.275 353.275 694.633 346.532 697.426L346.914 698.35ZM343.47 690.035C338.687 692.016 333.313 692.016 328.529 690.035L328.147 690.959C333.175 693.042 338.825 693.042 343.853 690.959L343.47 690.035ZM354.035 679.471C352.053 684.254 348.253 688.054 343.47 690.035L343.853 690.959C348.881 688.876 352.876 684.881 354.959 679.853L354.035 679.471ZM354.035 664.53C356.016 669.313 356.016 674.687 354.035 679.471L354.959 679.853C357.041 674.825 357.041 669.175 354.959 664.147L354.035 664.53ZM343.47 653.965C348.253 655.947 352.053 659.747 354.035 664.53L354.959 664.147C352.876 659.119 348.881 655.124 343.853 653.041L343.47 653.965ZM328.529 653.965C333.313 651.984 338.687 651.984 343.47 653.965L343.853 653.041C338.825 650.959 333.175 650.959 328.147 653.041L328.529 653.965ZM317.965 664.53C319.946 659.747 323.746 655.947 328.529 653.965L328.147 653.041C323.119 655.124 319.124 659.119 317.041 664.147L317.965 664.53ZM317.965 679.471C315.984 674.687 315.984 669.313 317.965 664.53L317.041 664.147C314.958 669.175 314.958 674.825 317.041 679.853L317.965 679.471ZM328.529 690.035C323.746 688.054 319.946 684.254 317.965 679.471L317.041 679.853C319.124 684.881 323.119 688.876 328.147 690.959L328.529 690.035Z" fill="currentColor"/>
<path fill-rule="evenodd" clip-rule="evenodd" d="M502.081 615.585C508.642 614.431 515.357 614.431 521.918 615.585L524.769 629.532C526.188 629.959 527.59 630.458 528.97 631.03C539.836 635.531 548.469 644.164 552.97 655.03C553.542 656.41 554.041 657.812 554.468 659.231L568.415 662.082C569.569 668.643 569.569 675.358 568.415 681.919L554.468 684.77C554.041 686.188 553.542 687.59 552.97 688.971C548.469 699.837 539.836 708.47 528.97 712.971C527.59 713.543 526.188 714.042 524.769 714.468L521.919 728.416C515.357 729.569 508.642 729.569 502.081 728.416L499.23 714.468C497.812 714.042 496.41 713.543 495.029 712.971C484.163 708.47 475.53 699.837 471.029 688.971C470.457 687.59 469.958 686.188 469.532 684.77L455.584 681.919C454.431 675.358 454.431 668.643 455.584 662.082L469.532 659.231C469.958 657.812 470.457 656.41 471.029 655.03C475.53 644.164 484.163 635.531 495.029 631.03C496.41 630.458 497.812 629.959 499.23 629.532L502.081 615.585ZM521.192 694.193C515.306 696.631 508.693 696.631 502.807 694.193C496.922 691.755 492.245 687.078 489.807 681.193C487.369 675.307 487.369 668.694 489.807 662.808C492.245 656.922 496.922 652.246 502.807 649.808C508.693 647.37 515.306 647.37 521.192 649.808C527.078 652.246 531.754 656.922 534.192 662.808C536.63 668.694 536.63 675.307 534.192 681.193C531.754 687.078 527.078 691.755 521.192 694.193Z" fill="currentColor"/>
<path d="M521.918 615.585L523.878 615.184C523.714 614.38 523.074 613.757 522.265 613.615L521.918 615.585ZM502.081 615.585L501.735 613.615C500.926 613.757 500.286 614.38 500.122 615.184L502.081 615.585ZM524.769 629.532L522.81 629.933C522.957 630.654 523.489 631.236 524.193 631.447L524.769 629.532ZM528.97 631.03L528.205 632.877V632.877L528.97 631.03ZM552.97 655.03L554.818 654.264H554.818L552.97 655.03ZM554.468 659.231L552.553 659.807C552.765 660.512 553.346 661.043 554.067 661.19L554.468 659.231ZM568.415 662.082L570.385 661.735C570.243 660.926 569.62 660.287 568.816 660.122L568.415 662.082ZM568.415 681.919L568.816 683.878C569.62 683.714 570.243 683.074 570.385 682.265L568.415 681.919ZM554.468 684.77L554.067 682.81C553.346 682.958 552.765 683.489 552.553 684.194L554.468 684.77ZM552.97 688.971L551.123 688.205V688.205L552.97 688.971ZM528.97 712.971L529.736 714.819V714.819L528.97 712.971ZM524.769 714.468L524.193 712.553C523.489 712.765 522.957 713.347 522.81 714.068L524.769 714.468ZM521.919 728.416L522.265 730.385C523.074 730.243 523.714 729.621 523.878 728.816L521.919 728.416ZM502.081 728.416L500.122 728.816C500.286 729.621 500.926 730.243 501.735 730.385L502.081 728.416ZM499.23 714.468L501.19 714.068C501.042 713.347 500.511 712.765 499.806 712.553L499.23 714.468ZM495.029 712.971L495.795 711.123L495.029 712.971ZM471.029 688.971L472.877 688.205H472.877L471.029 688.971ZM469.532 684.77L471.447 684.194C471.235 683.489 470.653 682.958 469.932 682.81L469.532 684.77ZM455.584 681.919L453.615 682.265C453.757 683.074 454.379 683.714 455.184 683.878L455.584 681.919ZM455.584 662.082L455.184 660.122C454.379 660.287 453.757 660.926 453.615 661.735L455.584 662.082ZM469.532 659.231L469.932 661.19C470.653 661.043 471.235 660.512 471.447 659.807L469.532 659.231ZM471.029 655.03L469.181 654.264L471.029 655.03ZM495.029 631.03L494.264 629.182L494.264 629.182L495.029 631.03ZM499.23 629.532L499.806 631.447C500.511 631.236 501.042 630.654 501.19 629.933L499.23 629.532ZM502.807 694.193L503.573 692.345L502.807 694.193ZM521.192 694.193L520.427 692.345L521.192 694.193ZM521.192 649.808L521.958 647.96L521.192 649.808ZM534.192 662.808L536.04 662.042L534.192 662.808ZM522.265 613.615C515.474 612.421 508.525 612.421 501.735 613.615L502.427 617.555C508.76 616.441 515.24 616.441 521.572 617.555L522.265 613.615ZM526.729 629.132L523.878 615.184L519.959 615.985L522.81 629.933L526.729 629.132ZM529.736 629.182C528.293 628.584 526.828 628.063 525.345 627.617L524.193 631.447C525.548 631.855 526.887 632.331 528.205 632.877L529.736 629.182ZM554.818 654.264C550.114 642.908 541.092 633.886 529.736 629.182L528.205 632.877C538.581 637.175 546.825 645.419 551.123 655.795L554.818 654.264ZM556.383 658.655C555.937 657.172 555.416 655.707 554.818 654.264L551.123 655.795C551.669 657.113 552.145 658.452 552.553 659.807L556.383 658.655ZM568.816 660.122L554.868 657.271L554.067 661.19L568.015 664.041L568.816 660.122ZM570.385 682.265C571.579 675.475 571.579 668.526 570.385 661.735L566.445 662.428C567.559 668.76 567.559 675.24 566.445 681.573L570.385 682.265ZM554.868 686.729L568.816 683.878L568.015 679.96L554.067 682.81L554.868 686.729ZM554.818 689.736C555.416 688.293 555.937 686.828 556.383 685.346L552.553 684.194C552.145 685.548 551.669 686.887 551.123 688.205L554.818 689.736ZM529.736 714.819C541.092 710.115 550.114 701.092 554.818 689.736L551.123 688.205C546.825 698.581 538.581 706.825 528.205 711.123L529.736 714.819ZM525.345 716.384C526.828 715.938 528.293 715.416 529.736 714.819L528.205 711.123C526.887 711.669 525.548 712.146 524.193 712.553L525.345 716.384ZM523.878 728.816L526.729 714.869L522.81 714.068L519.959 728.015L523.878 728.816ZM501.735 730.385C508.525 731.579 515.474 731.579 522.265 730.385L521.572 726.446C515.24 727.559 508.76 727.559 502.427 726.446L501.735 730.385ZM497.271 714.869L500.122 728.816L504.041 728.015L501.19 714.068L497.271 714.869ZM494.264 714.819C495.707 715.416 497.172 715.938 498.654 716.384L499.806 712.553C498.452 712.146 497.113 711.669 495.795 711.123L494.264 714.819ZM469.181 689.736C473.885 701.092 482.908 710.115 494.264 714.819L495.795 711.123C485.419 706.825 477.175 698.581 472.877 688.205L469.181 689.736ZM467.616 685.346C468.062 686.828 468.584 688.293 469.181 689.736L472.877 688.205C472.331 686.887 471.854 685.548 471.447 684.194L467.616 685.346ZM455.184 683.878L469.131 686.729L469.932 682.81L455.985 679.959L455.184 683.878ZM453.615 661.735C452.421 668.526 452.421 675.475 453.615 682.265L457.554 681.573C456.441 675.24 456.441 668.76 457.554 662.428L453.615 661.735ZM469.131 657.271L455.184 660.122L455.985 664.041L469.932 661.19L469.131 657.271ZM469.181 654.264C468.584 655.707 468.062 657.172 467.616 658.655L471.447 659.807C471.854 658.452 472.331 657.113 472.877 655.795L469.181 654.264ZM494.264 629.182C482.908 633.886 473.885 642.908 469.181 654.264L472.877 655.795C477.175 645.419 485.419 637.175 495.795 632.877L494.264 629.182ZM498.654 627.617C497.172 628.063 495.707 628.584 494.264 629.182L495.795 632.877C497.113 632.331 498.452 631.855 499.806 631.447L498.654 627.617ZM500.122 615.184L497.271 629.132L501.19 629.933L504.041 615.985L500.122 615.184ZM502.042 696.04C508.418 698.681 515.582 698.681 521.958 696.04L520.427 692.345C515.031 694.58 508.968 694.58 503.573 692.345L502.042 696.04ZM487.96 681.958C490.601 688.334 495.666 693.399 502.042 696.04L503.573 692.345C498.177 690.11 493.89 685.823 491.655 680.427L487.96 681.958ZM487.96 662.042C485.319 668.418 485.319 675.582 487.96 681.958L491.655 680.427C489.42 675.032 489.42 668.969 491.655 663.573L487.96 662.042ZM502.042 647.96C495.666 650.601 490.601 655.667 487.96 662.042L491.655 663.573C493.89 658.178 498.177 653.891 503.573 651.656L502.042 647.96ZM521.958 647.96C515.582 645.319 508.418 645.319 502.042 647.96L503.573 651.656C508.968 649.421 515.031 649.421 520.427 651.656L521.958 647.96ZM536.04 662.042C533.399 655.667 528.333 650.601 521.958 647.96L520.427 651.656C525.823 653.891 530.109 658.178 532.344 663.573L536.04 662.042ZM536.04 681.958C538.681 675.582 538.681 668.418 536.04 662.042L532.344 663.573C534.579 668.969 534.579 675.032 532.344 680.427L536.04 681.958ZM521.958 696.04C528.333 693.399 533.399 688.334 536.04 681.958L532.344 680.427C530.109 685.823 525.823 690.11 520.427 692.345L521.958 696.04Z" fill="currentColor"/>
<g opacity="0.25">
<path fill-rule="evenodd" clip-rule="evenodd" d="M697.918 615.585C691.357 614.431 684.642 614.431 678.081 615.585L675.23 629.532C673.812 629.959 672.41 630.458 671.029 631.03C660.163 635.531 651.53 644.164 647.029 655.03C646.457 656.41 645.958 657.812 645.532 659.231L631.584 662.082C630.431 668.643 630.431 675.358 631.584 681.919L645.532 684.77C645.958 686.188 646.457 687.59 647.029 688.971C651.53 699.837 660.163 708.47 671.029 712.971C672.41 713.543 673.812 714.042 675.23 714.468L678.081 728.416C684.642 729.569 691.357 729.569 697.919 728.416L700.769 714.468C702.188 714.042 703.59 713.543 704.97 712.971C715.836 708.47 724.469 699.837 728.97 688.971C729.542 687.59 730.041 686.188 730.468 684.77L744.415 681.919C745.569 675.358 745.569 668.643 744.415 662.082L730.468 659.231C730.041 657.812 729.542 656.41 728.97 655.03C724.469 644.164 715.836 635.531 704.97 631.03C703.59 630.458 702.188 629.959 700.769 629.532L697.918 615.585Z" fill="currentColor"/>
<path d="M678.081 615.585L677.735 613.615C676.926 613.757 676.286 614.38 676.122 615.184L678.081 615.585ZM697.918 615.585L699.878 615.184C699.714 614.38 699.074 613.757 698.265 613.615L697.918 615.585ZM675.23 629.532L675.806 631.447C676.511 631.236 677.042 630.654 677.19 629.933L675.23 629.532ZM671.029 631.03L670.264 629.182V629.182L671.029 631.03ZM647.029 655.03L645.181 654.264L647.029 655.03ZM645.532 659.231L645.932 661.19C646.653 661.043 647.235 660.512 647.447 659.807L645.532 659.231ZM631.584 662.082L631.184 660.122C630.379 660.287 629.757 660.926 629.615 661.735L631.584 662.082ZM631.584 681.919L629.615 682.265C629.757 683.074 630.379 683.714 631.184 683.878L631.584 681.919ZM645.532 684.77L647.447 684.194C647.235 683.489 646.653 682.958 645.932 682.81L645.532 684.77ZM647.029 688.971L648.877 688.205L647.029 688.971ZM671.029 712.971L671.795 711.123L671.029 712.971ZM675.23 714.468L677.19 714.068C677.042 713.347 676.511 712.765 675.806 712.553L675.23 714.468ZM678.081 728.416L676.122 728.816C676.286 729.621 676.926 730.243 677.735 730.385L678.081 728.416ZM697.919 728.416L698.265 730.385C699.074 730.243 699.714 729.621 699.878 728.816L697.919 728.416ZM700.769 714.468L700.193 712.553C699.489 712.765 698.957 713.347 698.81 714.068L700.769 714.468ZM704.97 712.971L705.736 714.819V714.819L704.97 712.971ZM728.97 688.971L727.123 688.205V688.205L728.97 688.971ZM730.468 684.77L730.067 682.81C729.346 682.958 728.765 683.489 728.553 684.194L730.468 684.77ZM744.415 681.919L744.816 683.878C745.62 683.714 746.243 683.074 746.385 682.265L744.415 681.919ZM744.415 662.082L746.385 661.735C746.243 660.926 745.62 660.287 744.816 660.122L744.415 662.082ZM730.468 659.231L728.553 659.807C728.765 660.512 729.346 661.043 730.067 661.19L730.468 659.231ZM728.97 655.03L730.818 654.264L728.97 655.03ZM704.97 631.03L704.205 632.877L704.97 631.03ZM700.769 629.532L698.81 629.933C698.957 630.654 699.489 631.236 700.193 631.447L700.769 629.532ZM678.427 617.555C684.76 616.441 691.24 616.441 697.572 617.555L698.265 613.615C691.474 612.421 684.525 612.421 677.735 613.615L678.427 617.555ZM676.122 615.184L673.271 629.132L677.19 629.933L680.041 615.985L676.122 615.184ZM674.654 627.617C673.172 628.063 671.707 628.584 670.264 629.182L671.795 632.877C673.113 632.331 674.452 631.855 675.806 631.447L674.654 627.617ZM670.264 629.182C658.908 633.886 649.885 642.908 645.181 654.264L648.877 655.795C653.175 645.419 661.419 637.175 671.795 632.877L670.264 629.182ZM645.181 654.264C644.584 655.707 644.062 657.172 643.616 658.655L647.447 659.807C647.854 658.452 648.331 657.113 648.877 655.795L645.181 654.264ZM645.131 657.271L631.184 660.122L631.985 664.041L645.932 661.19L645.131 657.271ZM633.554 681.573C632.441 675.24 632.441 668.76 633.554 662.428L629.615 661.735C628.421 668.526 628.421 675.475 629.615 682.265L633.554 681.573ZM631.184 683.878L645.131 686.729L645.932 682.81L631.985 679.959L631.184 683.878ZM643.616 685.346C644.062 686.828 644.584 688.293 645.181 689.736L648.877 688.205C648.331 686.887 647.854 685.548 647.447 684.194L643.616 685.346ZM645.181 689.736C649.885 701.092 658.908 710.115 670.264 714.819L671.795 711.123C661.419 706.825 653.175 698.581 648.877 688.205L645.181 689.736ZM670.264 714.819C671.707 715.416 673.172 715.938 674.654 716.384L675.806 712.553C674.452 712.146 673.113 711.669 671.795 711.123L670.264 714.819ZM673.271 714.869L676.122 728.816L680.041 728.015L677.19 714.068L673.271 714.869ZM697.572 726.446C691.24 727.559 684.76 727.559 678.427 726.446L677.735 730.385C684.525 731.579 691.474 731.579 698.265 730.385L697.572 726.446ZM699.878 728.816L702.729 714.869L698.81 714.068L695.959 728.015L699.878 728.816ZM701.345 716.384C702.828 715.938 704.293 715.416 705.736 714.819L704.205 711.123C702.887 711.669 701.548 712.146 700.193 712.553L701.345 716.384ZM705.736 714.819C717.092 710.115 726.114 701.092 730.818 689.736L727.123 688.205C722.825 698.581 714.581 706.825 704.205 711.123L705.736 714.819ZM730.818 689.736C731.416 688.293 731.937 686.828 732.383 685.346L728.553 684.194C728.145 685.548 727.669 686.887 727.123 688.205L730.818 689.736ZM730.868 686.729L744.816 683.878L744.015 679.96L730.067 682.81L730.868 686.729ZM742.445 662.428C743.559 668.76 743.559 675.24 742.445 681.573L746.385 682.265C747.579 675.475 747.579 668.526 746.385 661.735L742.445 662.428ZM744.816 660.122L730.868 657.271L730.067 661.19L744.015 664.041L744.816 660.122ZM732.383 658.655C731.937 657.172 731.416 655.707 730.818 654.264L727.123 655.795C727.669 657.113 728.145 658.452 728.553 659.807L732.383 658.655ZM730.818 654.264C726.114 642.908 717.092 633.886 705.736 629.182L704.205 632.877C714.581 637.175 722.825 645.419 727.123 655.795L730.818 654.264ZM705.736 629.182C704.293 628.584 702.828 628.063 701.345 627.617L700.193 631.447C701.548 631.855 702.887 632.331 704.205 632.877L705.736 629.182ZM702.729 629.132L699.878 615.184L695.959 615.985L698.81 629.933L702.729 629.132Z" fill="currentColor"/>
</g>
<path d="M678.808 694.192C684.693 696.63 691.307 696.63 697.192 694.192C703.078 691.754 707.754 687.078 710.192 681.192C712.63 675.307 712.63 668.693 710.192 662.808C707.754 656.922 703.078 652.246 697.192 649.808C691.307 647.37 684.693 647.37 678.808 649.808C672.922 652.246 668.246 656.922 665.808 662.808C663.37 668.693 663.37 675.307 665.808 681.192C668.246 687.078 672.922 691.754 678.808 694.192Z" fill="currentColor" stroke="currentColor" stroke-width="4" stroke-linecap="round" stroke-linejoin="round"/>
<path fill-rule="evenodd" clip-rule="evenodd" d="M873.918 615.585C867.357 614.431 860.642 614.431 854.081 615.585L851.23 629.532C849.812 629.959 848.41 630.458 847.029 631.03C836.163 635.531 827.53 644.164 823.029 655.03C822.457 656.41 821.958 657.812 821.532 659.231L807.584 662.082C806.431 668.643 806.431 675.358 807.584 681.919L821.532 684.77C821.958 686.188 822.457 687.59 823.029 688.971C827.53 699.837 836.163 708.47 847.029 712.971C848.41 713.543 849.812 714.042 851.23 714.468L854.081 728.416C860.642 729.569 867.357 729.569 873.919 728.416L876.769 714.468C878.188 714.042 879.59 713.543 880.97 712.971C891.836 708.47 900.469 699.837 904.97 688.971C905.542 687.59 906.041 686.188 906.468 684.77L920.415 681.919C921.569 675.358 921.569 668.643 920.415 662.082L906.468 659.231C906.041 657.812 905.542 656.41 904.97 655.03C900.469 644.164 891.836 635.531 880.97 631.03C879.59 630.458 878.188 629.959 876.769 629.532L873.918 615.585Z" fill="#FFA500"/>
<path d="M854.081 615.585L853.735 613.615C852.926 613.757 852.286 614.38 852.122 615.184L854.081 615.585ZM873.918 615.585L875.878 615.184C875.714 614.38 875.074 613.757 874.265 613.615L873.918 615.585ZM851.23 629.532L851.806 631.447C852.511 631.236 853.042 630.654 853.19 629.933L851.23 629.532ZM847.029 631.03L846.264 629.182V629.182L847.029 631.03ZM823.029 655.03L821.181 654.264L823.029 655.03ZM821.532 659.231L821.932 661.19C822.653 661.043 823.235 660.512 823.447 659.807L821.532 659.231ZM807.584 662.082L807.184 660.122C806.379 660.287 805.757 660.926 805.615 661.735L807.584 662.082ZM807.584 681.919L805.615 682.265C805.757 683.074 806.379 683.714 807.184 683.878L807.584 681.919ZM821.532 684.77L823.447 684.194C823.235 683.489 822.653 682.958 821.932 682.81L821.532 684.77ZM823.029 688.971L824.877 688.205L823.029 688.971ZM847.029 712.971L847.795 711.123L847.029 712.971ZM851.23 714.468L853.19 714.068C853.042 713.347 852.511 712.765 851.806 712.553L851.23 714.468ZM854.081 728.416L852.122 728.816C852.286 729.621 852.926 730.243 853.735 730.385L854.081 728.416ZM873.919 728.416L874.265 730.385C875.074 730.243 875.714 729.621 875.878 728.816L873.919 728.416ZM876.769 714.468L876.193 712.553C875.489 712.765 874.957 713.347 874.81 714.068L876.769 714.468ZM880.97 712.971L881.736 714.819V714.819L880.97 712.971ZM904.97 688.971L903.123 688.205V688.205L904.97 688.971ZM906.468 684.77L906.067 682.81C905.346 682.958 904.765 683.489 904.553 684.194L906.468 684.77ZM920.415 681.919L920.816 683.878C921.62 683.714 922.243 683.074 922.385 682.265L920.415 681.919ZM920.415 662.082L922.385 661.735C922.243 660.926 921.62 660.287 920.816 660.122L920.415 662.082ZM906.468 659.231L904.553 659.807C904.765 660.512 905.346 661.043 906.067 661.19L906.468 659.231ZM904.97 655.03L906.818 654.264L904.97 655.03ZM880.97 631.03L880.205 632.877L880.97 631.03ZM876.769 629.532L874.81 629.933C874.957 630.654 875.489 631.236 876.193 631.447L876.769 629.532ZM854.427 617.555C860.76 616.441 867.24 616.441 873.572 617.555L874.265 613.615C867.474 612.421 860.525 612.421 853.735 613.615L854.427 617.555ZM852.122 615.184L849.271 629.132L853.19 629.933L856.041 615.985L852.122 615.184ZM850.654 627.617C849.172 628.063 847.707 628.584 846.264 629.182L847.795 632.877C849.113 632.331 850.452 631.855 851.806 631.447L850.654 627.617ZM846.264 629.182C834.908 633.886 825.885 642.908 821.181 654.264L824.877 655.795C829.175 645.419 837.419 637.175 847.795 632.877L846.264 629.182ZM821.181 654.264C820.584 655.707 820.062 657.172 819.616 658.655L823.447 659.807C823.854 658.452 824.331 657.113 824.877 655.795L821.181 654.264ZM821.131 657.271L807.184 660.122L807.985 664.041L821.932 661.19L821.131 657.271ZM809.554 681.573C808.441 675.24 808.441 668.76 809.554 662.428L805.615 661.735C804.421 668.526 804.421 675.475 805.615 682.265L809.554 681.573ZM807.184 683.878L821.131 686.729L821.932 682.81L807.985 679.959L807.184 683.878ZM819.616 685.346C820.062 686.828 820.584 688.293 821.181 689.736L824.877 688.205C824.331 686.887 823.854 685.548 823.447 684.194L819.616 685.346ZM821.181 689.736C825.885 701.092 834.908 710.115 846.264 714.819L847.795 711.123C837.419 706.825 829.175 698.581 824.877 688.205L821.181 689.736ZM846.264 714.819C847.707 715.416 849.172 715.938 850.654 716.384L851.806 712.553C850.452 712.146 849.113 711.669 847.795 711.123L846.264 714.819ZM849.271 714.869L852.122 728.816L856.041 728.015L853.19 714.068L849.271 714.869ZM873.572 726.446C867.24 727.559 860.76 727.559 854.427 726.446L853.735 730.385C860.525 731.579 867.474 731.579 874.265 730.385L873.572 726.446ZM875.878 728.816L878.729 714.869L874.81 714.068L871.959 728.015L875.878 728.816ZM877.345 716.384C878.828 715.938 880.293 715.416 881.736 714.819L880.205 711.123C878.887 711.669 877.548 712.146 876.193 712.553L877.345 716.384ZM881.736 714.819C893.092 710.115 902.114 701.092 906.818 689.736L903.123 688.205C898.825 698.581 890.581 706.825 880.205 711.123L881.736 714.819ZM906.818 689.736C907.416 688.293 907.937 686.828 908.383 685.346L904.553 684.194C904.145 685.548 903.669 686.887 903.123 688.205L906.818 689.736ZM906.868 686.729L920.816 683.878L920.015 679.96L906.067 682.81L906.868 686.729ZM918.445 662.428C919.559 668.76 919.559 675.24 918.445 681.573L922.385 682.265C923.579 675.475 923.579 668.526 922.385 661.735L918.445 662.428ZM920.816 660.122L906.868 657.271L906.067 661.19L920.015 664.041L920.816 660.122ZM908.383 658.655C907.937 657.172 907.416 655.707 906.818 654.264L903.123 655.795C903.669 657.113 904.145 658.452 904.553 659.807L908.383 658.655ZM906.818 654.264C902.114 642.908 893.092 633.886 881.736 629.182L880.205 632.877C890.581 637.175 898.825 645.419 903.123 655.795L906.818 654.264ZM881.736 629.182C880.293 628.584 878.828 628.063 877.345 627.617L876.193 631.447C877.548 631.855 878.887 632.331 880.205 632.877L881.736 629.182ZM878.729 629.132L875.878 615.184L871.959 615.985L874.81 629.933L878.729 629.132Z" fill="#FFA500"/>
<path d="M854.808 694.192C860.693 696.63 867.307 696.63 873.192 694.192C879.078 691.754 883.754 687.078 886.192 681.192C888.63 675.307 888.63 668.693 886.192 662.808C883.754 656.922 879.078 652.246 873.192 649.808C867.307 647.37 860.693 647.37 854.808 649.808C848.922 652.246 844.246 656.922 841.808 662.808C839.37 668.693 839.37 675.307 841.808 681.192C844.246 687.078 848.922 691.754 854.808 694.192Z" fill="#FFD700" stroke="#FFD700" stroke-width="4" stroke-linecap="round" stroke-linejoin="round"/>
<g opacity="0.25">
<path d="M512 238.839L536.635 359.365L657.161 384L536.635 408.635L512 529.161L487.365 408.635L366.839 384L487.365 359.365L512 238.839Z" stroke="currentColor" stroke-width="2.41935" stroke-linecap="round" stroke-linejoin="round"/>
<path d="M553.058 483.122C526.769 494.011 497.231 494.011 470.942 483.122V483.122C444.653 472.233 423.767 451.347 412.878 425.058V425.058C401.988 398.769 401.988 369.231 412.878 342.942V342.942C423.767 316.653 444.653 295.767 470.942 284.878V284.878C497.231 273.988 526.769 273.988 553.058 284.878V284.878C579.347 295.767 600.233 316.653 611.122 342.942V342.942C622.011 369.231 622.011 398.769 611.122 425.058V425.058C600.233 451.347 579.347 472.233 553.058 483.122V483.122Z" stroke="currentColor" stroke-width="2.41935" stroke-linecap="round" stroke-linejoin="round"/>
<path d="M489.76 437.691C504 443.59 520 443.59 534.24 437.691V437.691C548.479 431.793 559.793 420.48 565.691 406.24V406.24C571.589 392 571.589 376 565.691 361.76V361.76C559.793 347.521 548.479 336.207 534.24 330.309V330.309C520 324.411 504 324.411 489.76 330.309V330.309C475.52 336.207 464.207 347.521 458.309 361.76V361.76C452.41 376 452.41 392 458.309 406.24V406.24C464.207 420.48 475.52 431.793 489.76 437.691V437.691Z" stroke="currentColor" stroke-width="2.41935" stroke-linecap="round" stroke-linejoin="round"/>
<path d="M565.033 512.033C531.077 526.098 492.923 526.098 458.967 512.033V512.033C425.011 497.968 398.032 470.989 383.967 437.033V437.033C369.902 403.077 369.902 364.923 383.967 330.967V330.967C398.032 297.011 425.011 270.032 458.967 255.967V255.967C492.923 241.902 531.077 241.902 565.033 255.967V255.967C598.989 270.032 625.968 297.011 640.033 330.967V330.967C654.098 364.923 654.098 403.077 640.033 437.033V437.033C625.968 470.989 598.989 497.968 565.033 512.033V512.033Z" stroke="currentColor" stroke-width="2.41935" stroke-linecap="round" stroke-linejoin="round"/>
</g>
</svg>
