<svg viewBox="0 0 1024 768" fill="none" xmlns="http://www.w3.org/2000/svg">
<path d="M424 36L436 75.2154L475.962 66L448 96L475.962 126L436 116.785L424 156L412 116.785L372.038 126L400 96L372.038 66L412 75.2154L424 36Z" stroke="#7B61FF" stroke-width="2" stroke-linecap="round" stroke-linejoin="round"/>
<path d="M578.787 147.213C592.369 152.839 607.631 152.839 621.213 147.213V147.213C634.796 141.587 645.587 130.796 651.213 117.213V117.213C656.839 103.631 656.839 88.3694 651.213 74.7868V74.7868C645.587 61.2042 634.796 50.4129 621.213 44.7868V44.7868C607.631 39.1607 592.369 39.1607 578.787 44.7868V44.7868C565.204 50.4129 554.413 61.2042 548.787 74.7868V74.7868C543.161 88.3694 543.161 103.631 548.787 117.213V117.213C554.413 130.796 565.204 141.587 578.787 147.213V147.213Z" stroke="#7B61FF" stroke-width="2" stroke-linecap="round" stroke-linejoin="round"/>
<path fill-rule="evenodd" clip-rule="evenodd" d="M401.476 292.944L438.07 301.383C447.294 293.129 457.92 286.401 469.574 281.574C472.16 280.503 474.776 279.534 477.417 278.666L488.406 242.755C504.025 240.147 519.975 240.147 535.595 242.756L546.584 278.666C549.224 279.534 551.841 280.503 554.427 281.574C566.08 286.401 576.706 293.129 585.93 301.383L622.524 292.944C631.458 303.788 638.826 315.982 644.301 329.199C644.934 330.729 645.54 332.267 646.119 333.812L620.514 361.283C623.65 376.263 623.65 391.737 620.514 406.717L646.119 434.189C645.54 435.734 644.934 437.271 644.301 438.801C638.826 452.018 631.458 464.213 622.524 475.056L585.93 466.617C576.706 474.871 566.08 481.6 554.427 486.427C551.841 487.498 549.224 488.467 546.584 489.334L535.595 525.245C519.975 527.854 504.025 527.854 488.406 525.245L477.417 489.334C474.776 488.467 472.16 487.498 469.574 486.427C457.92 481.6 447.294 474.871 438.07 466.617L401.476 475.056C392.542 464.213 385.174 452.018 379.699 438.801C379.066 437.272 378.46 435.734 377.882 434.189L403.486 406.717C400.351 391.737 400.351 376.263 403.487 361.283L377.882 333.812C378.46 332.266 379.066 330.729 379.699 329.199C385.174 315.982 392.542 303.788 401.476 292.944ZM489.019 439.481C503.734 445.576 520.267 445.576 534.981 439.481C549.696 433.386 561.386 421.696 567.481 406.981C573.576 392.267 573.576 375.734 567.481 361.019C561.386 346.305 549.696 334.614 534.981 328.519C520.267 322.424 503.734 322.424 489.019 328.519C474.305 334.614 462.614 346.305 456.519 361.019C450.424 375.734 450.424 392.267 456.519 406.981C462.614 421.696 474.305 433.386 489.019 439.481Z" fill="#888888" fill-opacity="0.5"/>
<path d="M401.476 292.944L402.6 288.072C400.752 287.646 398.823 288.302 397.617 289.765L401.476 292.944ZM438.07 301.383L436.947 306.255C438.531 306.621 440.193 306.193 441.405 305.109L438.07 301.383ZM469.574 281.574L467.66 276.954L469.574 281.574ZM477.417 278.666L478.977 283.417C480.521 282.91 481.722 281.684 482.198 280.129L477.417 278.666ZM488.406 242.755L487.582 237.824C485.712 238.136 484.179 239.479 483.624 241.292L488.406 242.755ZM535.595 242.756L540.376 241.292C539.821 239.479 538.289 238.136 536.418 237.824L535.595 242.756ZM546.584 278.666L541.802 280.129C542.278 281.684 543.479 282.91 545.024 283.417L546.584 278.666ZM554.427 281.574L556.34 276.954V276.954L554.427 281.574ZM585.93 301.383L582.596 305.109C583.807 306.193 585.47 306.621 587.054 306.255L585.93 301.383ZM622.524 292.944L626.383 289.765C625.177 288.302 623.248 287.646 621.4 288.072L622.524 292.944ZM644.301 329.199L648.92 327.286V327.286L644.301 329.199ZM646.119 333.812L649.776 337.221C651.069 335.834 651.466 333.835 650.801 332.059L646.119 333.812ZM620.514 361.283L616.856 357.874C615.748 359.063 615.287 360.717 615.62 362.308L620.514 361.283ZM620.514 406.717L615.62 405.693C615.287 407.284 615.748 408.937 616.856 410.126L620.514 406.717ZM646.119 434.189L650.801 435.941C651.466 434.165 651.069 432.166 649.776 430.779L646.119 434.189ZM644.301 438.801L648.92 440.714V440.714L644.301 438.801ZM622.524 475.056L621.4 479.928C623.248 480.354 625.177 479.699 626.383 478.235L622.524 475.056ZM585.93 466.617L587.054 461.745C585.47 461.38 583.807 461.807 582.596 462.891L585.93 466.617ZM554.427 486.427L552.513 481.807V481.807L554.427 486.427ZM546.584 489.334L545.024 484.584C543.479 485.091 542.278 486.317 541.802 487.871L546.584 489.334ZM535.595 525.245L536.418 530.177C538.289 529.864 539.821 528.521 540.376 526.708L535.595 525.245ZM488.406 525.245L483.624 526.708C484.179 528.521 485.712 529.864 487.582 530.177L488.406 525.245ZM477.417 489.334L482.198 487.871C481.722 486.317 480.521 485.091 478.977 484.584L477.417 489.334ZM469.574 486.427L471.487 481.807L471.487 481.807L469.574 486.427ZM438.07 466.617L441.405 462.891C440.193 461.807 438.531 461.38 436.947 461.745L438.07 466.617ZM401.476 475.056L397.617 478.235C398.823 479.699 400.752 480.354 402.6 479.928L401.476 475.056ZM379.699 438.801L375.08 440.714L375.08 440.714L379.699 438.801ZM377.882 434.189L374.224 430.78C372.931 432.167 372.534 434.166 373.199 435.941L377.882 434.189ZM403.486 406.717L407.144 410.126C408.252 408.937 408.713 407.284 408.38 405.693L403.486 406.717ZM403.487 361.283L408.38 362.308C408.713 360.717 408.252 359.063 407.144 357.874L403.487 361.283ZM377.882 333.812L373.199 332.059C372.534 333.835 372.931 335.834 374.224 337.221L377.882 333.812ZM379.699 329.199L384.319 331.113H384.319L379.699 329.199ZM534.981 439.481L533.068 434.862L534.981 439.481ZM489.019 439.481L487.106 444.101H487.106L489.019 439.481ZM567.481 406.981L572.101 408.895L567.481 406.981ZM567.481 361.019L572.101 359.106V359.106L567.481 361.019ZM534.981 328.519L536.895 323.9L534.981 328.519ZM489.019 328.519L487.106 323.9H487.106L489.019 328.519ZM456.519 361.019L461.139 362.933V362.933L456.519 361.019ZM456.519 406.981L461.139 405.068L456.519 406.981ZM400.353 297.816L436.947 306.255L439.194 296.511L402.6 288.072L400.353 297.816ZM441.405 305.109C450.213 297.227 460.359 290.803 471.487 286.193L467.66 276.954C455.481 281.999 444.376 289.031 434.736 297.657L441.405 305.109ZM471.487 286.193C473.957 285.17 476.455 284.245 478.977 283.417L475.857 273.916C473.097 274.822 470.363 275.835 467.66 276.954L471.487 286.193ZM482.198 280.129L493.187 244.219L483.624 241.292L472.636 277.203L482.198 280.129ZM489.229 247.687C504.304 245.169 519.697 245.169 534.771 247.687L536.418 237.824C520.253 235.124 503.747 235.124 487.582 237.824L489.229 247.687ZM530.814 244.219L541.802 280.129L551.365 277.203L540.376 241.292L530.814 244.219ZM545.024 283.417C547.545 284.245 550.044 285.17 552.513 286.193L556.34 276.954C553.638 275.835 550.903 274.822 548.143 273.916L545.024 283.417ZM552.513 286.193C563.641 290.803 573.788 297.227 582.596 305.109L589.264 297.657C579.624 289.031 568.519 281.999 556.34 276.954L552.513 286.193ZM587.054 306.255L623.647 297.817L621.4 288.072L584.806 296.511L587.054 306.255ZM618.665 296.124C627.287 306.588 634.398 318.357 639.681 331.113L648.92 327.286C643.254 313.607 635.629 300.987 626.383 289.765L618.665 296.124ZM639.681 331.113C640.293 332.589 640.878 334.073 641.436 335.564L650.801 332.059C650.203 330.46 649.576 328.869 648.92 327.286L639.681 331.113ZM642.461 330.403L616.856 357.874L624.171 364.692L649.776 337.221L642.461 330.403ZM615.62 362.308C618.614 376.612 618.614 391.388 615.62 405.693L625.408 407.742C628.685 392.086 628.685 375.914 625.408 360.259L615.62 362.308ZM616.856 410.126L642.461 437.598L649.776 430.779L624.171 403.308L616.856 410.126ZM641.436 432.436C640.878 433.927 640.293 435.411 639.681 436.888L648.92 440.714C649.576 439.132 650.203 437.54 650.801 435.941L641.436 432.436ZM639.681 436.888C634.398 449.644 627.287 461.412 618.665 471.877L626.383 478.235C635.629 467.013 643.254 454.393 648.92 440.714L639.681 436.888ZM623.647 470.184L587.054 461.745L584.806 471.489L621.4 479.928L623.647 470.184ZM582.596 462.891C573.788 470.773 563.641 477.198 552.513 481.807L556.34 491.046C568.519 486.001 579.624 478.97 589.264 470.343L582.596 462.891ZM552.513 481.807C550.044 482.83 547.545 483.755 545.024 484.584L548.143 494.084C550.903 493.178 553.638 492.165 556.34 491.046L552.513 481.807ZM541.802 487.871L530.814 523.782L540.376 526.708L551.365 490.797L541.802 487.871ZM534.771 520.313C519.697 522.831 504.304 522.831 489.229 520.313L487.582 530.177C503.747 532.876 520.253 532.876 536.418 530.177L534.771 520.313ZM493.187 523.782L482.198 487.871L472.636 490.797L483.624 526.708L493.187 523.782ZM478.977 484.584C476.455 483.755 473.957 482.83 471.487 481.807L467.66 491.046C470.363 492.165 473.097 493.178 475.857 494.084L478.977 484.584ZM471.487 481.807C460.359 477.198 450.213 470.773 441.405 462.891L434.736 470.343C444.376 478.97 455.481 486.001 467.66 491.046L471.487 481.807ZM436.947 461.745L400.353 470.184L402.6 479.928L439.194 471.489L436.947 461.745ZM405.335 471.877C396.713 461.412 389.602 449.644 384.319 436.888L375.08 440.714C380.746 454.393 388.371 467.013 397.617 478.235L405.335 471.877ZM384.319 436.888C383.707 435.411 383.122 433.927 382.564 432.436L373.199 435.941C373.797 437.54 374.424 439.132 375.08 440.714L384.319 436.888ZM381.539 437.598L407.144 410.126L399.829 403.308L374.224 430.78L381.539 437.598ZM408.38 405.693C405.386 391.388 405.386 376.612 408.38 362.308L398.593 360.259C395.315 375.914 395.315 392.086 398.593 407.742L408.38 405.693ZM407.144 357.874L381.539 330.402L374.224 337.221L399.829 364.692L407.144 357.874ZM382.564 335.564C383.122 334.073 383.707 332.589 384.319 331.113L375.08 327.286C374.424 328.869 373.797 330.46 373.199 332.059L382.564 335.564ZM384.319 331.113C389.602 318.357 396.713 306.588 405.335 296.124L397.617 289.765C388.371 300.987 380.746 313.607 375.08 327.286L384.319 331.113ZM533.068 434.862C519.578 440.449 504.422 440.449 490.933 434.862L487.106 444.101C503.045 450.703 520.955 450.703 536.895 444.101L533.068 434.862ZM562.862 405.068C557.274 418.557 546.557 429.274 533.068 434.862L536.895 444.101C552.834 437.498 565.498 424.834 572.101 408.895L562.862 405.068ZM562.862 362.933C568.449 376.422 568.449 391.578 562.862 405.068L572.101 408.895C578.703 392.955 578.703 375.045 572.101 359.106L562.862 362.933ZM533.068 333.139C546.557 338.726 557.274 349.443 562.862 362.933L572.101 359.106C565.498 343.166 552.834 330.502 536.895 323.9L533.068 333.139ZM490.933 333.139C504.422 327.551 519.578 327.551 533.068 333.139L536.895 323.9C520.955 317.297 503.045 317.297 487.106 323.9L490.933 333.139ZM461.139 362.933C466.726 349.443 477.443 338.726 490.933 333.139L487.106 323.9C471.166 330.502 458.502 343.166 451.9 359.106L461.139 362.933ZM461.139 405.068C455.551 391.578 455.551 376.422 461.139 362.933L451.9 359.106C445.297 375.045 445.297 392.955 451.9 408.895L461.139 405.068ZM490.933 434.862C477.443 429.274 466.726 418.557 461.139 405.068L451.9 408.895C458.502 424.834 471.166 437.498 487.106 444.101L490.933 434.862Z" fill="currentColor"/>
<path d="M501.393 409.607C508.185 412.42 515.815 412.42 522.607 409.607C529.398 406.794 534.794 401.398 537.607 394.607C540.42 387.815 540.42 380.185 537.607 373.393C534.794 366.602 529.398 361.206 522.607 358.393C515.815 355.58 508.185 355.58 501.393 358.393C494.602 361.206 489.206 366.602 486.393 373.393C483.58 380.185 483.58 387.815 486.393 394.607C489.206 401.398 494.602 406.794 501.393 409.607Z" fill="#888888" fill-opacity="0.5" stroke="currentColor" stroke-width="10" stroke-linecap="round" stroke-linejoin="round"/>
<path d="M115.79 635.578L116.015 634.603C115.646 634.518 115.26 634.649 115.019 634.942L115.79 635.578ZM130.428 638.953L130.203 639.928C130.52 640.001 130.853 639.915 131.095 639.699L130.428 638.953ZM143.029 631.03L142.647 630.106L143.029 631.03ZM146.167 629.867L146.479 630.817C146.787 630.715 147.028 630.47 147.123 630.159L146.167 629.867ZM150.562 615.502L150.397 614.516C150.023 614.579 149.717 614.847 149.606 615.21L150.562 615.502ZM169.438 615.502L170.394 615.21C170.283 614.847 169.977 614.579 169.603 614.516L169.438 615.502ZM173.833 629.867L172.877 630.159C172.972 630.47 173.213 630.715 173.521 630.817L173.833 629.867ZM176.97 631.03L176.588 631.954L176.97 631.03ZM189.572 638.953L188.905 639.699C189.147 639.915 189.48 640.001 189.797 639.928L189.572 638.953ZM204.209 635.578L204.981 634.942C204.74 634.649 204.354 634.518 203.985 634.604L204.209 635.578ZM212.92 650.08L213.844 649.697L212.92 650.08ZM213.647 651.925L214.379 652.607C214.637 652.329 214.717 651.93 214.584 651.574L213.647 651.925ZM203.405 662.914L202.674 662.232C202.452 662.47 202.36 662.8 202.427 663.118L203.405 662.914ZM203.405 681.087L202.427 680.882C202.36 681.2 202.452 681.531 202.674 681.769L203.405 681.087ZM213.647 692.076L214.584 692.426C214.717 692.071 214.637 691.671 214.379 691.394L213.647 692.076ZM212.92 693.921L211.996 693.538L211.996 693.538L212.92 693.921ZM204.209 708.423L203.985 709.397C204.354 709.482 204.74 709.351 204.981 709.058L204.209 708.423ZM189.572 705.047L189.797 704.073C189.48 704 189.147 704.085 188.905 704.302L189.572 705.047ZM176.97 712.971L177.353 713.895L176.97 712.971ZM173.833 714.134L173.521 713.184C173.213 713.285 172.972 713.53 172.877 713.841L173.833 714.134ZM169.438 728.498L169.603 729.484C169.977 729.422 170.283 729.153 170.394 728.791L169.438 728.498ZM150.562 728.498L149.606 728.791C149.717 729.153 150.023 729.422 150.397 729.484L150.562 728.498ZM146.167 714.134L147.123 713.841C147.028 713.53 146.787 713.285 146.479 713.184L146.167 714.134ZM143.029 712.971L143.412 712.047L143.412 712.047L143.029 712.971ZM130.428 705.047L131.095 704.302C130.853 704.085 130.52 704 130.203 704.073L130.428 705.047ZM115.79 708.423L115.019 709.058C115.26 709.351 115.646 709.482 116.015 709.397L115.79 708.423ZM107.08 693.921L106.156 694.303H106.156L107.08 693.921ZM106.353 692.076L105.621 691.394C105.362 691.671 105.283 692.071 105.416 692.426L106.353 692.076ZM116.594 681.087L117.326 681.769C117.548 681.531 117.64 681.2 117.573 680.882L116.594 681.087ZM116.594 662.913L117.573 663.118C117.64 662.8 117.548 662.469 117.326 662.232L116.594 662.913ZM106.353 651.925L105.416 651.574C105.283 651.929 105.362 652.329 105.621 652.607L106.353 651.925ZM107.08 650.08L106.156 649.697H106.156L107.08 650.08ZM169.192 694.193L169.575 695.117L169.192 694.193ZM150.808 694.193L151.19 693.269L150.808 694.193ZM182.192 681.193L183.116 681.575L182.192 681.193ZM182.192 662.808L181.269 663.191L182.192 662.808ZM169.192 649.808L169.575 648.884L169.192 649.808ZM137.808 662.808L136.884 662.425L137.808 662.808ZM137.808 681.193L136.884 681.575L137.808 681.193ZM115.566 636.552L130.203 639.928L130.653 637.979L116.015 634.603L115.566 636.552ZM131.095 639.699C134.701 636.471 138.856 633.841 143.412 631.954L142.647 630.106C137.88 632.08 133.534 634.832 129.761 638.208L131.095 639.699ZM143.412 631.954C144.423 631.535 145.446 631.156 146.479 630.817L145.855 628.917C144.774 629.271 143.704 629.668 142.647 630.106L143.412 631.954ZM147.123 630.159L151.518 615.795L149.606 615.21L145.21 629.574L147.123 630.159ZM150.727 616.489C156.866 615.463 163.134 615.463 169.273 616.489L169.603 614.516C163.246 613.454 156.754 613.454 150.397 614.516L150.727 616.489ZM168.482 615.795L172.877 630.159L174.79 629.574L170.394 615.21L168.482 615.795ZM173.521 630.817C174.554 631.156 175.577 631.535 176.588 631.954L177.353 630.106C176.296 629.668 175.225 629.271 174.145 628.917L173.521 630.817ZM176.588 631.954C181.144 633.841 185.299 636.471 188.905 639.699L190.239 638.208C186.466 634.832 182.12 632.08 177.353 630.106L176.588 631.954ZM189.797 639.928L204.434 636.552L203.985 634.604L189.347 637.979L189.797 639.928ZM203.438 636.214C206.949 640.475 209.845 645.268 211.996 650.463L213.844 649.697C211.616 644.318 208.617 639.355 204.981 634.942L203.438 636.214ZM211.996 650.463C212.245 651.064 212.483 651.668 212.711 652.275L214.584 651.574C214.349 650.946 214.102 650.32 213.844 649.697L211.996 650.463ZM212.916 651.243L202.674 662.232L204.137 663.595L214.379 652.607L212.916 651.243ZM202.427 663.118C203.653 668.975 203.653 675.025 202.427 680.882L204.384 681.292C205.667 675.165 205.667 668.836 204.384 662.709L202.427 663.118ZM202.674 681.769L212.916 692.757L214.379 691.394L204.137 680.405L202.674 681.769ZM212.711 691.725C212.483 692.332 212.245 692.937 211.996 693.538L213.844 694.303C214.102 693.681 214.349 693.055 214.584 692.426L212.711 691.725ZM211.996 693.538C209.845 698.733 206.949 703.525 203.438 707.787L204.981 709.058C208.617 704.645 211.616 699.682 213.844 694.303L211.996 693.538ZM204.434 707.448L189.797 704.073L189.347 706.021L203.985 709.397L204.434 707.448ZM188.905 704.302C185.299 707.529 181.144 710.16 176.588 712.047L177.353 713.895C182.12 711.92 186.466 709.168 190.239 705.792L188.905 704.302ZM176.588 712.047C175.577 712.466 174.554 712.845 173.521 713.184L174.145 715.084C175.225 714.729 176.296 714.333 177.353 713.895L176.588 712.047ZM172.877 713.841L168.482 728.206L170.394 728.791L174.79 714.426L172.877 713.841ZM169.273 727.512C163.134 728.537 156.866 728.537 150.727 727.512L150.397 729.484C156.754 730.546 163.246 730.546 169.603 729.484L169.273 727.512ZM151.518 728.206L147.123 713.841L145.21 714.426L149.606 728.791L151.518 728.206ZM146.479 713.184C145.446 712.845 144.423 712.466 143.412 712.047L142.647 713.895C143.704 714.333 144.774 714.729 145.855 715.084L146.479 713.184ZM143.412 712.047C138.856 710.16 134.701 707.529 131.095 704.302L129.761 705.792C133.534 709.168 137.88 711.92 142.647 713.895L143.412 712.047ZM130.203 704.073L115.566 707.448L116.015 709.397L130.653 706.021L130.203 704.073ZM116.562 707.787C113.051 703.525 110.155 698.733 108.003 693.538L106.156 694.303C108.384 699.682 111.383 704.645 115.019 709.058L116.562 707.787ZM108.003 693.538C107.755 692.937 107.516 692.332 107.289 691.725L105.416 692.426C105.651 693.055 105.898 693.681 106.156 694.303L108.003 693.538ZM107.084 692.758L117.326 681.769L115.863 680.405L105.621 691.394L107.084 692.758ZM117.573 680.882C116.347 675.025 116.347 668.975 117.573 663.118L115.616 662.708C114.333 668.836 114.333 675.165 115.616 681.292L117.573 680.882ZM117.326 662.232L107.084 651.243L105.621 652.607L115.863 663.595L117.326 662.232ZM107.289 652.275C107.516 651.668 107.755 651.064 108.003 650.463L106.156 649.697C105.898 650.32 105.651 650.945 105.416 651.574L107.289 652.275ZM108.003 650.463C110.155 645.268 113.051 640.475 116.562 636.214L115.019 634.942C111.383 639.355 108.384 644.318 106.156 649.697L108.003 650.463ZM168.81 693.269C163.169 695.605 156.831 695.605 151.19 693.269L150.425 695.117C156.556 697.656 163.444 697.656 169.575 695.117L168.81 693.269ZM181.269 680.81C178.932 686.451 174.451 690.932 168.81 693.269L169.575 695.117C175.706 692.577 180.577 687.706 183.116 681.575L181.269 680.81ZM181.269 663.191C183.605 668.831 183.605 675.169 181.269 680.81L183.116 681.575C185.656 675.445 185.656 668.556 183.116 662.425L181.269 663.191ZM168.81 650.732C174.451 653.068 178.932 657.55 181.269 663.191L183.116 662.425C180.577 656.294 175.706 651.423 169.575 648.884L168.81 650.732ZM151.19 650.732C156.831 648.395 163.169 648.395 168.81 650.732L169.575 648.884C163.444 646.345 156.556 646.345 150.425 648.884L151.19 650.732ZM138.732 663.191C141.068 657.55 145.55 653.068 151.19 650.732L150.425 648.884C144.294 651.423 139.423 656.294 136.884 662.425L138.732 663.191ZM138.732 680.81C136.395 675.169 136.395 668.831 138.732 663.191L136.884 662.425C134.344 668.556 134.344 675.445 136.884 681.575L138.732 680.81ZM151.19 693.269C145.55 690.932 141.068 686.451 138.732 680.81L136.884 681.575C139.423 687.706 144.294 692.577 150.425 695.117L151.19 693.269Z" fill="currentColor"/>
<path d="M155.757 682.243C158.474 683.368 161.526 683.368 164.243 682.243V682.243C166.959 681.117 169.118 678.959 170.243 676.243V676.243C171.368 673.526 171.368 670.474 170.243 667.757V667.757C169.118 665.041 166.959 662.883 164.243 661.757V661.757C161.526 660.632 158.474 660.632 155.757 661.757V661.757C153.041 662.883 150.883 665.041 149.757 667.757V667.757C148.632 670.474 148.632 673.526 149.757 676.243V676.243C150.883 678.959 153.041 681.117 155.757 682.243V682.243Z" stroke="currentColor" stroke-width="2" stroke-linecap="round" stroke-linejoin="round"/>
<path fill-rule="evenodd" clip-rule="evenodd" d="M341.773 658.062C338.077 656.531 333.923 656.531 330.227 658.062C326.53 659.593 323.593 662.53 322.062 666.227C320.531 669.924 320.531 674.077 322.062 677.774C323.593 681.47 326.53 684.407 330.227 685.938C333.923 687.47 338.077 687.47 341.773 685.938C345.47 684.407 348.407 681.47 349.938 677.774C351.469 674.077 351.469 669.924 349.938 666.227C348.407 662.53 345.47 659.593 341.773 658.062ZM333.288 665.453C335.025 664.734 336.976 664.734 338.712 665.453C340.448 666.172 341.828 667.552 342.547 669.288C343.266 671.025 343.266 672.976 342.547 674.712C341.828 676.449 340.448 677.828 338.712 678.547C336.976 679.267 335.025 679.267 333.288 678.547C331.552 677.828 330.172 676.449 329.453 674.712C328.734 672.976 328.734 671.025 329.453 669.288C330.172 667.552 331.552 666.172 333.288 665.453Z" stroke="currentColor" stroke-linecap="round" stroke-linejoin="round"/>
<path fill-rule="evenodd" clip-rule="evenodd" d="M346.723 646.112C339.857 643.268 332.143 643.268 325.277 646.112C318.411 648.956 312.956 654.411 310.112 661.277C307.268 668.143 307.268 675.857 310.112 682.723C312.956 689.589 318.411 695.044 325.277 697.888C332.143 700.732 339.857 700.732 346.723 697.888C353.589 695.044 359.044 689.589 361.888 682.723C364.732 675.857 364.732 668.143 361.888 661.277C359.044 654.411 353.589 648.956 346.723 646.112ZM328.338 653.503C333.244 651.471 338.756 651.471 343.662 653.503C348.567 655.535 352.465 659.433 354.497 664.339C356.529 669.244 356.529 674.756 354.497 679.662C352.465 684.568 348.567 688.465 343.662 690.497C338.756 692.529 333.244 692.529 328.338 690.497C323.433 688.465 319.535 684.568 317.503 679.662C315.471 674.756 315.471 669.244 317.503 664.339C319.535 659.433 323.433 655.535 328.338 653.503Z" stroke="currentColor" stroke-linecap="round" stroke-linejoin="round"/>
<path fill-rule="evenodd" clip-rule="evenodd" d="M346.097 611.557C339.413 610.441 332.587 610.441 325.903 611.557C324.407 611.807 323.181 612.882 322.737 614.332L318.932 626.767C318.452 626.948 317.974 627.137 317.499 627.334C313.078 629.165 308.996 631.624 305.361 634.602L292.689 631.68C291.211 631.339 289.668 631.864 288.703 633.034C284.88 637.675 281.727 642.893 279.384 648.549C279.113 649.204 278.854 649.862 278.606 650.523C278.075 651.943 278.392 653.542 279.426 654.652L288.293 664.165C287.441 669.353 287.441 674.647 288.293 679.836L279.426 689.348C278.392 690.458 278.075 692.057 278.606 693.478C278.854 694.139 279.113 694.797 279.384 695.451C281.727 701.107 284.88 706.326 288.703 710.966C289.668 712.137 291.211 712.661 292.689 712.32L305.361 709.398C308.996 712.377 313.078 714.835 317.499 716.666C317.974 716.863 318.452 717.052 318.932 717.234L322.737 729.669C323.181 731.119 324.407 732.194 325.903 732.443C332.587 733.56 339.413 733.56 346.097 732.443C347.593 732.194 348.819 731.119 349.263 729.669L353.068 717.233C353.548 717.052 354.026 716.863 354.501 716.666C358.922 714.835 363.004 712.377 366.639 709.398L379.311 712.32C380.789 712.661 382.332 712.137 383.297 710.966C387.12 706.326 390.273 701.107 392.616 695.451C392.887 694.797 393.146 694.139 393.394 693.478C393.925 692.057 393.608 690.458 392.573 689.348L383.707 679.836C384.559 674.647 384.559 669.353 383.707 664.165L392.573 654.652C393.608 653.543 393.925 651.944 393.394 650.523C393.146 649.862 392.887 649.204 392.616 648.549C390.273 642.893 387.12 637.675 383.297 633.034C382.332 631.864 380.789 631.339 379.311 631.68L366.639 634.602C363.004 631.624 358.922 629.165 354.501 627.334C354.026 627.137 353.548 626.948 353.068 626.767L349.263 614.332C348.819 612.882 347.593 611.807 346.097 611.557ZM325.992 631.037L329.644 619.1C333.866 618.593 338.134 618.593 342.356 619.1L346.008 631.037C346.389 632.281 347.35 633.261 348.585 633.667C349.546 633.983 350.499 634.335 351.44 634.725C355.681 636.482 359.548 638.93 362.904 641.934C363.873 642.801 365.204 643.143 366.471 642.851L378.635 640.046C381.166 643.422 383.306 647.113 384.991 651.054L376.479 660.186C375.593 661.138 375.224 662.46 375.49 663.733C376.631 669.185 376.631 674.816 375.49 680.267C375.224 681.54 375.593 682.863 376.479 683.814L384.991 692.946C383.306 696.887 381.166 700.578 378.635 703.954L366.471 701.149C365.204 700.857 363.873 701.199 362.904 702.066C359.548 705.07 355.681 707.519 351.44 709.275C350.499 709.665 349.546 710.018 348.585 710.333C347.35 710.739 346.389 711.72 346.008 712.963L342.356 724.9C338.134 725.408 333.866 725.408 329.644 724.9L325.992 712.963C325.611 711.72 324.65 710.739 323.415 710.333C322.453 710.018 321.501 709.665 320.56 709.275C316.319 707.519 312.452 705.07 309.095 702.066C308.126 701.199 306.796 700.857 305.529 701.149L293.365 703.955C290.834 700.578 288.694 696.887 287.009 692.946L295.521 683.814C296.407 682.863 296.776 681.54 296.51 680.268C295.368 674.816 295.368 669.184 296.51 663.733C296.776 662.46 296.407 661.137 295.521 660.186L287.009 651.054C288.694 647.113 290.834 643.422 293.365 640.046L305.529 642.851C306.796 643.143 308.126 642.801 309.095 641.934C312.452 638.93 316.319 636.482 320.56 634.725C321.501 634.335 322.453 633.983 323.415 633.667C324.65 633.261 325.611 632.281 325.992 631.037Z" stroke="currentColor" stroke-linecap="round" stroke-linejoin="round"/>
<path fill-rule="evenodd" clip-rule="evenodd" d="M467.79 635.578L482.428 638.953C486.118 635.652 490.368 632.961 495.029 631.03C496.064 630.601 497.11 630.214 498.167 629.867L502.562 615.502C508.81 614.459 515.19 614.459 521.438 615.502L525.833 629.867C526.89 630.214 527.936 630.601 528.97 631.03C533.632 632.961 537.882 635.652 541.572 638.953L556.209 635.578C559.783 639.915 562.73 644.793 564.92 650.08C565.174 650.692 565.416 651.307 565.647 651.925L555.405 662.914C556.66 668.905 556.66 675.095 555.405 681.087L565.647 692.076C565.416 692.694 565.174 693.309 564.92 693.921C562.73 699.208 559.783 704.085 556.209 708.423L541.572 705.047C537.882 708.349 533.632 711.04 528.97 712.971C527.936 713.399 526.89 713.787 525.833 714.134L521.438 728.498C515.19 729.542 508.81 729.542 502.562 728.498L498.167 714.134C497.11 713.787 496.064 713.399 495.029 712.971C490.368 711.04 486.118 708.349 482.428 705.047L467.79 708.423C464.217 704.085 461.27 699.208 459.08 693.921C458.826 693.309 458.584 692.694 458.353 692.076L468.594 681.087C467.34 675.095 467.34 668.905 468.594 662.913L458.353 651.925C458.584 651.307 458.826 650.692 459.08 650.08C461.27 644.793 464.217 639.915 467.79 635.578ZM502.808 694.193C508.693 696.631 515.307 696.631 521.192 694.193C527.078 691.755 531.754 687.078 534.192 681.193C536.63 675.307 536.63 668.694 534.192 662.808C531.754 656.922 527.078 652.246 521.192 649.808C515.307 647.37 508.693 647.37 502.808 649.808C496.922 652.246 492.246 656.922 489.808 662.808C487.37 668.694 487.37 675.307 489.808 681.193C492.246 687.078 496.922 691.755 502.808 694.193Z" fill="currentColor"/>
<path d="M467.79 635.578L468.24 633.629C467.501 633.459 466.729 633.721 466.247 634.306L467.79 635.578ZM482.428 638.953L481.979 640.902C482.612 641.048 483.277 640.877 483.762 640.444L482.428 638.953ZM495.029 631.03L494.264 629.182H494.264L495.029 631.03ZM498.167 629.867L498.791 631.767C499.408 631.564 499.889 631.074 500.079 630.452L498.167 629.867ZM502.562 615.502L502.233 613.53C501.485 613.655 500.872 614.192 500.65 614.917L502.562 615.502ZM521.438 615.502L523.35 614.917C523.128 614.192 522.515 613.655 521.767 613.53L521.438 615.502ZM525.833 629.867L523.921 630.452C524.111 631.074 524.592 631.564 525.209 631.767L525.833 629.867ZM528.97 631.03L528.205 632.877V632.877L528.97 631.03ZM541.572 638.953L540.238 640.444C540.723 640.877 541.388 641.048 542.021 640.902L541.572 638.953ZM556.209 635.578L557.753 634.306C557.271 633.721 556.499 633.459 555.76 633.629L556.209 635.578ZM564.92 650.08L566.768 649.315L564.92 650.08ZM565.647 651.925L567.11 653.289C567.627 652.734 567.786 651.934 567.52 651.224L565.647 651.925ZM555.405 662.914L553.942 661.55C553.499 662.026 553.315 662.687 553.448 663.323L555.405 662.914ZM555.405 681.087L553.448 680.677C553.315 681.314 553.499 681.975 553.942 682.451L555.405 681.087ZM565.647 692.076L567.52 692.777C567.786 692.066 567.627 691.267 567.11 690.712L565.647 692.076ZM564.92 693.921L563.072 693.155L563.072 693.155L564.92 693.921ZM556.209 708.423L555.76 710.371C556.499 710.542 557.271 710.28 557.753 709.694L556.209 708.423ZM541.572 705.047L542.021 703.098C541.388 702.952 540.723 703.123 540.238 703.557L541.572 705.047ZM528.97 712.971L529.736 714.819H529.736L528.97 712.971ZM525.833 714.134L525.209 712.234C524.592 712.436 524.111 712.927 523.921 713.549L525.833 714.134ZM521.438 728.498L521.767 730.471C522.515 730.346 523.128 729.809 523.35 729.083L521.438 728.498ZM502.562 728.498L500.65 729.083C500.872 729.809 501.485 730.346 502.233 730.471L502.562 728.498ZM498.167 714.134L500.079 713.549C499.889 712.927 499.408 712.436 498.791 712.234L498.167 714.134ZM495.029 712.971L495.795 711.123L495.795 711.123L495.029 712.971ZM482.428 705.047L483.762 703.557C483.277 703.123 482.612 702.952 481.979 703.098L482.428 705.047ZM467.79 708.423L466.247 709.694C466.729 710.28 467.501 710.542 468.24 710.371L467.79 708.423ZM459.08 693.921L457.232 694.686H457.232L459.08 693.921ZM458.353 692.076L456.889 690.712C456.372 691.267 456.214 692.066 456.479 692.777L458.353 692.076ZM468.594 681.087L470.057 682.451C470.501 681.975 470.685 681.314 470.552 680.677L468.594 681.087ZM468.594 662.913L470.552 663.323C470.685 662.687 470.501 662.025 470.058 661.55L468.594 662.913ZM458.353 651.925L456.479 651.224C456.214 651.934 456.372 652.734 456.89 653.288L458.353 651.925ZM459.08 650.08L457.232 649.315H457.232L459.08 650.08ZM521.192 694.193L521.958 696.04L521.192 694.193ZM502.808 694.193L503.573 692.345V692.345L502.808 694.193ZM534.192 681.193L536.04 681.958L534.192 681.193ZM534.192 662.808L532.345 663.573L534.192 662.808ZM521.192 649.808L521.958 647.96L521.192 649.808ZM489.808 662.808L487.96 662.043V662.043L489.808 662.808ZM489.808 681.193L487.96 681.958L489.808 681.193ZM467.341 637.527L481.979 640.902L482.877 637.005L468.24 633.629L467.341 637.527ZM483.762 640.444C487.285 637.291 491.344 634.721 495.795 632.877L494.264 629.182C489.392 631.2 484.95 634.012 481.094 637.463L483.762 640.444ZM495.795 632.877C496.782 632.468 497.782 632.098 498.791 631.767L497.543 627.967C496.439 628.329 495.345 628.734 494.264 629.182L495.795 632.877ZM500.079 630.452L504.475 616.088L500.65 614.917L496.254 629.281L500.079 630.452ZM502.892 617.475C508.921 616.468 515.079 616.468 521.108 617.475L521.767 613.53C515.301 612.45 508.699 612.45 502.233 613.53L502.892 617.475ZM519.525 616.088L523.921 630.452L527.746 629.282L523.35 614.917L519.525 616.088ZM525.209 631.767C526.218 632.098 527.217 632.468 528.205 632.877L529.736 629.182C528.655 628.734 527.561 628.329 526.457 627.967L525.209 631.767ZM528.205 632.877C532.656 634.721 536.715 637.291 540.238 640.444L542.906 637.463C539.05 634.012 534.607 631.2 529.736 629.182L528.205 632.877ZM542.021 640.902L556.659 637.527L555.76 633.629L541.122 637.005L542.021 640.902ZM554.666 636.85C558.115 641.036 560.959 645.743 563.072 650.845L566.768 649.315C564.502 643.843 561.451 638.795 557.753 634.306L554.666 636.85ZM563.072 650.845C563.317 651.436 563.551 652.029 563.774 652.626L567.52 651.224C567.281 650.584 567.03 649.948 566.768 649.315L563.072 650.845ZM564.184 650.561L553.942 661.55L556.868 664.277L567.11 653.289L564.184 650.561ZM553.448 663.323C554.646 669.045 554.646 674.955 553.448 680.677L557.363 681.497C558.674 675.235 558.674 668.766 557.363 662.504L553.448 663.323ZM553.942 682.451L564.184 693.439L567.11 690.712L556.868 679.723L553.942 682.451ZM563.774 691.375C563.551 691.971 563.317 692.565 563.072 693.155L566.768 694.686C567.03 694.053 567.281 693.416 567.52 692.777L563.774 691.375ZM563.072 693.155C560.959 698.258 558.115 702.965 554.666 707.151L557.753 709.694C561.451 705.206 564.502 700.157 566.768 694.686L563.072 693.155ZM556.659 706.474L542.021 703.098L541.122 706.996L555.76 710.371L556.659 706.474ZM540.238 703.557C536.715 706.71 532.656 709.279 528.205 711.123L529.736 714.819C534.607 712.801 539.05 709.988 542.906 706.537L540.238 703.557ZM528.205 711.123C527.217 711.532 526.218 711.902 525.209 712.234L526.457 716.034C527.561 715.671 528.655 715.266 529.736 714.819L528.205 711.123ZM523.921 713.549L519.525 727.913L523.35 729.083L527.746 714.719L523.921 713.549ZM521.108 726.525C515.079 727.533 508.921 727.533 502.892 726.525L502.233 730.471C508.699 731.551 515.301 731.551 521.767 730.471L521.108 726.525ZM504.475 727.913L500.079 713.549L496.254 714.719L500.65 729.083L504.475 727.913ZM498.791 712.234C497.782 711.902 496.782 711.532 495.795 711.123L494.264 714.819C495.345 715.266 496.439 715.671 497.543 716.034L498.791 712.234ZM495.795 711.123C491.343 709.279 487.285 706.71 483.762 703.557L481.094 706.537C484.95 709.988 489.392 712.801 494.264 714.819L495.795 711.123ZM481.979 703.098L467.341 706.474L468.24 710.371L482.877 706.996L481.979 703.098ZM469.334 707.151C465.885 702.965 463.041 698.258 460.927 693.155L457.232 694.686C459.498 700.157 462.548 705.206 466.247 709.694L469.334 707.151ZM460.927 693.155C460.683 692.565 460.449 691.971 460.226 691.375L456.479 692.777C456.719 693.416 456.97 694.053 457.232 694.686L460.927 693.155ZM459.816 693.439L470.057 682.451L467.131 679.724L456.889 690.712L459.816 693.439ZM470.552 680.677C469.354 674.956 469.354 669.045 470.552 663.323L466.637 662.504C465.326 668.766 465.326 675.235 466.637 681.497L470.552 680.677ZM470.058 661.55L459.816 650.561L456.89 653.288L467.131 664.277L470.058 661.55ZM460.226 652.626C460.449 652.029 460.683 651.436 460.927 650.845L457.232 649.315C456.97 649.948 456.719 650.584 456.479 651.224L460.226 652.626ZM460.927 650.845C463.041 645.743 465.885 641.036 469.334 636.85L466.247 634.306C462.548 638.795 459.498 643.843 457.232 649.315L460.927 650.845ZM520.427 692.345C515.031 694.58 508.969 694.58 503.573 692.345L502.042 696.04C508.418 698.681 515.582 698.681 521.958 696.04L520.427 692.345ZM532.345 680.427C530.11 685.823 525.823 690.11 520.427 692.345L521.958 696.04C528.334 693.399 533.399 688.334 536.04 681.958L532.345 680.427ZM532.345 663.573C534.58 668.969 534.58 675.032 532.345 680.427L536.04 681.958C538.681 675.582 538.681 668.418 536.04 662.043L532.345 663.573ZM520.427 651.656C525.823 653.891 530.11 658.178 532.345 663.573L536.04 662.043C533.399 655.667 528.334 650.601 521.958 647.96L520.427 651.656ZM503.573 651.656C508.969 649.421 515.031 649.421 520.427 651.656L521.958 647.96C515.582 645.319 508.418 645.319 502.042 647.96L503.573 651.656ZM491.655 663.573C493.89 658.178 498.177 653.891 503.573 651.656L502.042 647.96C495.666 650.601 490.601 655.667 487.96 662.043L491.655 663.573ZM491.655 680.427C489.42 675.032 489.42 668.969 491.655 663.573L487.96 662.043C485.319 668.418 485.319 675.582 487.96 681.958L491.655 680.427ZM503.573 692.345C498.177 690.11 493.89 685.823 491.655 680.427L487.96 681.958C490.601 688.334 495.666 693.399 502.042 696.04L503.573 692.345Z" fill="currentColor"/>
<path d="M507.757 682.243C510.474 683.368 513.526 683.368 516.243 682.243C518.959 681.117 521.118 678.959 522.243 676.243C523.368 673.526 523.368 670.474 522.243 667.757C521.118 665.041 518.959 662.883 516.243 661.757C513.526 660.632 510.474 660.632 507.757 661.757C505.041 662.883 502.883 665.041 501.757 667.757C500.632 670.474 500.632 673.526 501.757 676.243C502.883 678.959 505.041 681.117 507.757 682.243Z" fill="currentColor" stroke="currentColor" stroke-width="4" stroke-linecap="round" stroke-linejoin="round"/>
<g opacity="0.25">
<path fill-rule="evenodd" clip-rule="evenodd" d="M643.79 635.578L658.428 638.953C662.118 635.652 666.368 632.961 671.029 631.03C672.064 630.601 673.11 630.214 674.167 629.867L678.562 615.502C684.81 614.459 691.19 614.459 697.438 615.502L701.833 629.867C702.89 630.214 703.936 630.601 704.97 631.03C709.632 632.961 713.882 635.652 717.572 638.953L732.209 635.578C735.783 639.915 738.73 644.793 740.92 650.08C741.174 650.692 741.416 651.307 741.647 651.925L731.405 662.914C732.66 668.905 732.66 675.095 731.405 681.087L741.647 692.076C741.416 692.694 741.174 693.309 740.92 693.921C738.73 699.208 735.783 704.085 732.209 708.423L717.572 705.047C713.882 708.349 709.632 711.04 704.97 712.971C703.936 713.399 702.89 713.787 701.833 714.134L697.438 728.498C691.19 729.542 684.81 729.542 678.562 728.498L674.167 714.134C673.11 713.787 672.064 713.399 671.029 712.971C666.368 711.04 662.118 708.349 658.428 705.047L643.79 708.423C640.217 704.085 637.27 699.208 635.08 693.921C634.826 693.309 634.584 692.694 634.353 692.076L644.594 681.087C643.34 675.095 643.34 668.905 644.594 662.913L634.353 651.925C634.584 651.307 634.826 650.692 635.08 650.08C637.27 644.793 640.217 639.915 643.79 635.578ZM678.808 694.193C684.693 696.631 691.307 696.631 697.192 694.193C703.078 691.755 707.754 687.078 710.192 681.193C712.63 675.307 712.63 668.694 710.192 662.808C707.754 656.922 703.078 652.246 697.192 649.808C691.307 647.37 684.693 647.37 678.808 649.808C672.922 652.246 668.246 656.922 665.808 662.808C663.37 668.694 663.37 675.307 665.808 681.193C668.246 687.078 672.922 691.755 678.808 694.193Z" fill="currentColor"/>
<path d="M643.79 635.578L644.24 633.629C643.501 633.459 642.729 633.721 642.247 634.306L643.79 635.578ZM658.428 638.953L657.979 640.902C658.612 641.048 659.277 640.877 659.762 640.444L658.428 638.953ZM671.029 631.03L670.264 629.182H670.264L671.029 631.03ZM674.167 629.867L674.791 631.767C675.408 631.564 675.889 631.074 676.079 630.452L674.167 629.867ZM678.562 615.502L678.233 613.53C677.485 613.655 676.872 614.192 676.65 614.917L678.562 615.502ZM697.438 615.502L699.35 614.917C699.128 614.192 698.515 613.655 697.767 613.53L697.438 615.502ZM701.833 629.867L699.921 630.452C700.111 631.074 700.592 631.564 701.209 631.767L701.833 629.867ZM704.97 631.03L704.205 632.877V632.877L704.97 631.03ZM717.572 638.953L716.238 640.444C716.723 640.877 717.388 641.048 718.021 640.902L717.572 638.953ZM732.209 635.578L733.753 634.306C733.271 633.721 732.499 633.459 731.76 633.629L732.209 635.578ZM740.92 650.08L742.768 649.315L740.92 650.08ZM741.647 651.925L743.11 653.289C743.627 652.734 743.786 651.934 743.52 651.224L741.647 651.925ZM731.405 662.914L729.942 661.55C729.499 662.026 729.315 662.687 729.448 663.323L731.405 662.914ZM731.405 681.087L729.448 680.677C729.315 681.314 729.499 681.975 729.942 682.451L731.405 681.087ZM741.647 692.076L743.52 692.777C743.786 692.066 743.627 691.267 743.11 690.712L741.647 692.076ZM740.92 693.921L739.072 693.155L739.072 693.155L740.92 693.921ZM732.209 708.423L731.76 710.371C732.499 710.542 733.271 710.28 733.753 709.694L732.209 708.423ZM717.572 705.047L718.021 703.098C717.388 702.952 716.723 703.123 716.238 703.557L717.572 705.047ZM704.97 712.971L705.736 714.819H705.736L704.97 712.971ZM701.833 714.134L701.209 712.234C700.592 712.436 700.111 712.927 699.921 713.549L701.833 714.134ZM697.438 728.498L697.767 730.471C698.515 730.346 699.128 729.809 699.35 729.083L697.438 728.498ZM678.562 728.498L676.65 729.083C676.872 729.809 677.485 730.346 678.233 730.471L678.562 728.498ZM674.167 714.134L676.079 713.549C675.889 712.927 675.408 712.436 674.791 712.234L674.167 714.134ZM671.029 712.971L671.795 711.123L671.795 711.123L671.029 712.971ZM658.428 705.047L659.762 703.557C659.277 703.123 658.612 702.952 657.979 703.098L658.428 705.047ZM643.79 708.423L642.247 709.694C642.729 710.28 643.501 710.542 644.24 710.371L643.79 708.423ZM635.08 693.921L633.232 694.686H633.232L635.08 693.921ZM634.353 692.076L632.889 690.712C632.372 691.267 632.214 692.066 632.479 692.777L634.353 692.076ZM644.594 681.087L646.057 682.451C646.501 681.975 646.685 681.314 646.552 680.677L644.594 681.087ZM644.594 662.913L646.552 663.323C646.685 662.687 646.501 662.025 646.058 661.55L644.594 662.913ZM634.353 651.925L632.479 651.224C632.214 651.934 632.372 652.734 632.89 653.288L634.353 651.925ZM635.08 650.08L633.232 649.315H633.232L635.08 650.08ZM697.192 694.193L697.958 696.04L697.192 694.193ZM678.808 694.193L679.573 692.345V692.345L678.808 694.193ZM710.192 681.193L712.04 681.958L710.192 681.193ZM710.192 662.808L708.345 663.573L710.192 662.808ZM697.192 649.808L697.958 647.96L697.192 649.808ZM665.808 662.808L663.96 662.043V662.043L665.808 662.808ZM665.808 681.193L663.96 681.958L665.808 681.193ZM643.341 637.527L657.979 640.902L658.877 637.005L644.24 633.629L643.341 637.527ZM659.762 640.444C663.285 637.291 667.344 634.721 671.795 632.877L670.264 629.182C665.392 631.2 660.95 634.012 657.094 637.463L659.762 640.444ZM671.795 632.877C672.782 632.468 673.782 632.098 674.791 631.767L673.543 627.967C672.439 628.329 671.345 628.734 670.264 629.182L671.795 632.877ZM676.079 630.452L680.475 616.088L676.65 614.917L672.254 629.281L676.079 630.452ZM678.892 617.475C684.921 616.468 691.079 616.468 697.108 617.475L697.767 613.53C691.301 612.45 684.699 612.45 678.233 613.53L678.892 617.475ZM695.525 616.088L699.921 630.452L703.746 629.282L699.35 614.917L695.525 616.088ZM701.209 631.767C702.218 632.098 703.217 632.468 704.205 632.877L705.736 629.182C704.655 628.734 703.561 628.329 702.457 627.967L701.209 631.767ZM704.205 632.877C708.656 634.721 712.715 637.291 716.238 640.444L718.906 637.463C715.05 634.012 710.607 631.2 705.736 629.182L704.205 632.877ZM718.021 640.902L732.659 637.527L731.76 633.629L717.122 637.005L718.021 640.902ZM730.666 636.85C734.115 641.036 736.959 645.743 739.072 650.845L742.768 649.315C740.502 643.843 737.451 638.795 733.753 634.306L730.666 636.85ZM739.072 650.845C739.317 651.436 739.551 652.029 739.774 652.626L743.52 651.224C743.281 650.584 743.03 649.948 742.768 649.315L739.072 650.845ZM740.184 650.561L729.942 661.55L732.868 664.277L743.11 653.289L740.184 650.561ZM729.448 663.323C730.646 669.045 730.646 674.955 729.448 680.677L733.363 681.497C734.674 675.235 734.674 668.766 733.363 662.504L729.448 663.323ZM729.942 682.451L740.184 693.439L743.11 690.712L732.868 679.723L729.942 682.451ZM739.774 691.375C739.551 691.971 739.317 692.565 739.072 693.155L742.768 694.686C743.03 694.053 743.281 693.416 743.52 692.777L739.774 691.375ZM739.072 693.155C736.959 698.258 734.115 702.965 730.666 707.151L733.753 709.694C737.451 705.206 740.502 700.157 742.768 694.686L739.072 693.155ZM732.659 706.474L718.021 703.098L717.122 706.996L731.76 710.371L732.659 706.474ZM716.238 703.557C712.715 706.71 708.656 709.279 704.205 711.123L705.736 714.819C710.607 712.801 715.05 709.988 718.906 706.537L716.238 703.557ZM704.205 711.123C703.217 711.532 702.218 711.902 701.209 712.234L702.457 716.034C703.561 715.671 704.655 715.266 705.736 714.819L704.205 711.123ZM699.921 713.549L695.525 727.913L699.35 729.083L703.746 714.719L699.921 713.549ZM697.108 726.525C691.079 727.533 684.921 727.533 678.892 726.525L678.233 730.471C684.699 731.551 691.301 731.551 697.767 730.471L697.108 726.525ZM680.475 727.913L676.079 713.549L672.254 714.719L676.65 729.083L680.475 727.913ZM674.791 712.234C673.782 711.902 672.782 711.532 671.795 711.123L670.264 714.819C671.345 715.266 672.439 715.671 673.543 716.034L674.791 712.234ZM671.795 711.123C667.343 709.279 663.285 706.71 659.762 703.557L657.094 706.537C660.95 709.988 665.392 712.801 670.264 714.819L671.795 711.123ZM657.979 703.098L643.341 706.474L644.24 710.371L658.877 706.996L657.979 703.098ZM645.334 707.151C641.885 702.965 639.041 698.258 636.927 693.155L633.232 694.686C635.498 700.157 638.548 705.206 642.247 709.694L645.334 707.151ZM636.927 693.155C636.683 692.565 636.449 691.971 636.226 691.375L632.479 692.777C632.719 693.416 632.97 694.053 633.232 694.686L636.927 693.155ZM635.816 693.439L646.057 682.451L643.131 679.724L632.889 690.712L635.816 693.439ZM646.552 680.677C645.354 674.956 645.354 669.045 646.552 663.323L642.637 662.504C641.326 668.766 641.326 675.235 642.637 681.497L646.552 680.677ZM646.058 661.55L635.816 650.561L632.89 653.288L643.131 664.277L646.058 661.55ZM636.226 652.626C636.449 652.029 636.683 651.436 636.927 650.845L633.232 649.315C632.97 649.948 632.719 650.584 632.479 651.224L636.226 652.626ZM636.927 650.845C639.041 645.743 641.885 641.036 645.334 636.85L642.247 634.306C638.548 638.795 635.498 643.843 633.232 649.315L636.927 650.845ZM696.427 692.345C691.031 694.58 684.969 694.58 679.573 692.345L678.042 696.04C684.418 698.681 691.582 698.681 697.958 696.04L696.427 692.345ZM708.345 680.427C706.11 685.823 701.823 690.11 696.427 692.345L697.958 696.04C704.334 693.399 709.399 688.334 712.04 681.958L708.345 680.427ZM708.345 663.573C710.58 668.969 710.58 675.032 708.345 680.427L712.04 681.958C714.681 675.582 714.681 668.418 712.04 662.043L708.345 663.573ZM696.427 651.656C701.823 653.891 706.11 658.178 708.345 663.573L712.04 662.043C709.399 655.667 704.334 650.601 697.958 647.96L696.427 651.656ZM679.573 651.656C684.969 649.421 691.031 649.421 696.427 651.656L697.958 647.96C691.582 645.319 684.418 645.319 678.042 647.96L679.573 651.656ZM667.655 663.573C669.89 658.178 674.177 653.891 679.573 651.656L678.042 647.96C671.666 650.601 666.601 655.667 663.96 662.043L667.655 663.573ZM667.655 680.427C665.42 675.032 665.42 668.969 667.655 663.573L663.96 662.043C661.319 668.418 661.319 675.582 663.96 681.958L667.655 680.427ZM679.573 692.345C674.177 690.11 669.89 685.823 667.655 680.427L663.96 681.958C666.601 688.334 671.666 693.399 678.042 696.04L679.573 692.345Z" fill="currentColor"/>
</g>
<path d="M683.757 682.243C686.474 683.368 689.526 683.368 692.243 682.243C694.959 681.117 697.117 678.959 698.243 676.243C699.368 673.526 699.368 670.474 698.243 667.757C697.117 665.041 694.959 662.883 692.243 661.757C689.526 660.632 686.474 660.632 683.757 661.757C681.041 662.883 678.883 665.041 677.757 667.757C676.632 670.474 676.632 673.526 677.757 676.243C678.883 678.959 681.041 681.117 683.757 682.243Z" fill="currentColor" stroke="currentColor" stroke-width="4" stroke-linecap="round" stroke-linejoin="round"/>
<path fill-rule="evenodd" clip-rule="evenodd" d="M819.79 635.578L834.428 638.953C838.118 635.652 842.368 632.961 847.029 631.03C848.064 630.601 849.11 630.214 850.167 629.867L854.562 615.502C860.81 614.459 867.19 614.459 873.438 615.502L877.833 629.867C878.89 630.214 879.936 630.601 880.97 631.03C885.632 632.961 889.882 635.652 893.572 638.953L908.209 635.578C911.783 639.915 914.73 644.793 916.92 650.08C917.174 650.692 917.416 651.307 917.647 651.925L907.405 662.914C908.66 668.905 908.66 675.095 907.405 681.087L917.647 692.076C917.416 692.694 917.174 693.309 916.92 693.921C914.73 699.208 911.783 704.085 908.209 708.423L893.572 705.047C889.882 708.349 885.632 711.04 880.97 712.971C879.936 713.399 878.89 713.787 877.833 714.134L873.438 728.498C867.19 729.542 860.81 729.542 854.562 728.498L850.167 714.134C849.11 713.787 848.064 713.399 847.029 712.971C842.368 711.04 838.118 708.349 834.428 705.047L819.79 708.423C816.217 704.085 813.27 699.208 811.08 693.921C810.826 693.309 810.584 692.694 810.353 692.076L820.594 681.087C819.34 675.095 819.34 668.905 820.594 662.913L810.353 651.925C810.584 651.307 810.826 650.692 811.08 650.08C813.27 644.793 816.217 639.915 819.79 635.578ZM854.808 694.193C860.693 696.631 867.307 696.631 873.192 694.193C879.078 691.755 883.754 687.078 886.192 681.193C888.63 675.307 888.63 668.694 886.192 662.808C883.754 656.922 879.078 652.246 873.192 649.808C867.307 647.37 860.693 647.37 854.808 649.808C848.922 652.246 844.246 656.922 841.808 662.808C839.37 668.694 839.37 675.307 841.808 681.193C844.246 687.078 848.922 691.755 854.808 694.193Z" fill="#FFA500"/>
<path d="M819.79 635.578L820.24 633.629C819.501 633.459 818.729 633.721 818.247 634.306L819.79 635.578ZM834.428 638.953L833.979 640.902C834.612 641.048 835.277 640.877 835.762 640.444L834.428 638.953ZM847.029 631.03L846.264 629.182H846.264L847.029 631.03ZM850.167 629.867L850.791 631.767C851.408 631.564 851.889 631.074 852.079 630.452L850.167 629.867ZM854.562 615.502L854.233 613.53C853.485 613.655 852.872 614.192 852.65 614.917L854.562 615.502ZM873.438 615.502L875.35 614.917C875.128 614.192 874.515 613.655 873.767 613.53L873.438 615.502ZM877.833 629.867L875.921 630.452C876.111 631.074 876.592 631.564 877.209 631.767L877.833 629.867ZM880.97 631.03L880.205 632.877V632.877L880.97 631.03ZM893.572 638.953L892.238 640.444C892.723 640.877 893.388 641.048 894.021 640.902L893.572 638.953ZM908.209 635.578L909.753 634.306C909.271 633.721 908.499 633.459 907.76 633.629L908.209 635.578ZM916.92 650.08L918.768 649.315L916.92 650.08ZM917.647 651.925L919.11 653.289C919.627 652.734 919.786 651.934 919.52 651.224L917.647 651.925ZM907.405 662.914L905.942 661.55C905.499 662.026 905.315 662.687 905.448 663.323L907.405 662.914ZM907.405 681.087L905.448 680.677C905.315 681.314 905.499 681.975 905.942 682.451L907.405 681.087ZM917.647 692.076L919.52 692.777C919.786 692.066 919.627 691.267 919.11 690.712L917.647 692.076ZM916.92 693.921L915.072 693.155L915.072 693.155L916.92 693.921ZM908.209 708.423L907.76 710.371C908.499 710.542 909.271 710.28 909.753 709.694L908.209 708.423ZM893.572 705.047L894.021 703.098C893.388 702.952 892.723 703.123 892.238 703.557L893.572 705.047ZM880.97 712.971L881.736 714.819H881.736L880.97 712.971ZM877.833 714.134L877.209 712.234C876.592 712.436 876.111 712.927 875.921 713.549L877.833 714.134ZM873.438 728.498L873.767 730.471C874.515 730.346 875.128 729.809 875.35 729.083L873.438 728.498ZM854.562 728.498L852.65 729.083C852.872 729.809 853.485 730.346 854.233 730.471L854.562 728.498ZM850.167 714.134L852.079 713.549C851.889 712.927 851.408 712.436 850.791 712.234L850.167 714.134ZM847.029 712.971L847.795 711.123L847.795 711.123L847.029 712.971ZM834.428 705.047L835.762 703.557C835.277 703.123 834.612 702.952 833.979 703.098L834.428 705.047ZM819.79 708.423L818.247 709.694C818.729 710.28 819.501 710.542 820.24 710.371L819.79 708.423ZM811.08 693.921L809.232 694.686H809.232L811.08 693.921ZM810.353 692.076L808.889 690.712C808.372 691.267 808.214 692.066 808.479 692.777L810.353 692.076ZM820.594 681.087L822.057 682.451C822.501 681.975 822.685 681.314 822.552 680.677L820.594 681.087ZM820.594 662.913L822.552 663.323C822.685 662.687 822.501 662.025 822.058 661.55L820.594 662.913ZM810.353 651.925L808.479 651.224C808.214 651.934 808.372 652.734 808.89 653.288L810.353 651.925ZM811.08 650.08L809.232 649.315H809.232L811.08 650.08ZM873.192 694.193L873.958 696.04L873.192 694.193ZM854.808 694.193L855.573 692.345V692.345L854.808 694.193ZM886.192 681.193L888.04 681.958L886.192 681.193ZM886.192 662.808L884.345 663.573L886.192 662.808ZM873.192 649.808L873.958 647.96L873.192 649.808ZM841.808 662.808L839.96 662.043V662.043L841.808 662.808ZM841.808 681.193L839.96 681.958L841.808 681.193ZM819.341 637.527L833.979 640.902L834.877 637.005L820.24 633.629L819.341 637.527ZM835.762 640.444C839.285 637.291 843.344 634.721 847.795 632.877L846.264 629.182C841.392 631.2 836.95 634.012 833.094 637.463L835.762 640.444ZM847.795 632.877C848.782 632.468 849.782 632.098 850.791 631.767L849.543 627.967C848.439 628.329 847.345 628.734 846.264 629.182L847.795 632.877ZM852.079 630.452L856.475 616.088L852.65 614.917L848.254 629.281L852.079 630.452ZM854.892 617.475C860.921 616.468 867.079 616.468 873.108 617.475L873.767 613.53C867.301 612.45 860.699 612.45 854.233 613.53L854.892 617.475ZM871.525 616.088L875.921 630.452L879.746 629.282L875.35 614.917L871.525 616.088ZM877.209 631.767C878.218 632.098 879.217 632.468 880.205 632.877L881.736 629.182C880.655 628.734 879.561 628.329 878.457 627.967L877.209 631.767ZM880.205 632.877C884.656 634.721 888.715 637.291 892.238 640.444L894.906 637.463C891.05 634.012 886.607 631.2 881.736 629.182L880.205 632.877ZM894.021 640.902L908.659 637.527L907.76 633.629L893.122 637.005L894.021 640.902ZM906.666 636.85C910.115 641.036 912.959 645.743 915.072 650.845L918.768 649.315C916.502 643.843 913.451 638.795 909.753 634.306L906.666 636.85ZM915.072 650.845C915.317 651.436 915.551 652.029 915.774 652.626L919.52 651.224C919.281 650.584 919.03 649.948 918.768 649.315L915.072 650.845ZM916.184 650.561L905.942 661.55L908.868 664.277L919.11 653.289L916.184 650.561ZM905.448 663.323C906.646 669.045 906.646 674.955 905.448 680.677L909.363 681.497C910.674 675.235 910.674 668.766 909.363 662.504L905.448 663.323ZM905.942 682.451L916.184 693.439L919.11 690.712L908.868 679.723L905.942 682.451ZM915.774 691.375C915.551 691.971 915.317 692.565 915.072 693.155L918.768 694.686C919.03 694.053 919.281 693.416 919.52 692.777L915.774 691.375ZM915.072 693.155C912.959 698.258 910.115 702.965 906.666 707.151L909.753 709.694C913.451 705.206 916.502 700.157 918.768 694.686L915.072 693.155ZM908.659 706.474L894.021 703.098L893.122 706.996L907.76 710.371L908.659 706.474ZM892.238 703.557C888.715 706.71 884.656 709.279 880.205 711.123L881.736 714.819C886.607 712.801 891.05 709.988 894.906 706.537L892.238 703.557ZM880.205 711.123C879.217 711.532 878.218 711.902 877.209 712.234L878.457 716.034C879.561 715.671 880.655 715.266 881.736 714.819L880.205 711.123ZM875.921 713.549L871.525 727.913L875.35 729.083L879.746 714.719L875.921 713.549ZM873.108 726.525C867.079 727.533 860.921 727.533 854.892 726.525L854.233 730.471C860.699 731.551 867.301 731.551 873.767 730.471L873.108 726.525ZM856.475 727.913L852.079 713.549L848.254 714.719L852.65 729.083L856.475 727.913ZM850.791 712.234C849.782 711.902 848.782 711.532 847.795 711.123L846.264 714.819C847.345 715.266 848.439 715.671 849.543 716.034L850.791 712.234ZM847.795 711.123C843.343 709.279 839.285 706.71 835.762 703.557L833.094 706.537C836.95 709.988 841.392 712.801 846.264 714.819L847.795 711.123ZM833.979 703.098L819.341 706.474L820.24 710.371L834.877 706.996L833.979 703.098ZM821.334 707.151C817.885 702.965 815.041 698.258 812.927 693.155L809.232 694.686C811.498 700.157 814.548 705.206 818.247 709.694L821.334 707.151ZM812.927 693.155C812.683 692.565 812.449 691.971 812.226 691.375L808.479 692.777C808.719 693.416 808.97 694.053 809.232 694.686L812.927 693.155ZM811.816 693.439L822.057 682.451L819.131 679.724L808.889 690.712L811.816 693.439ZM822.552 680.677C821.354 674.956 821.354 669.045 822.552 663.323L818.637 662.504C817.326 668.766 817.326 675.235 818.637 681.497L822.552 680.677ZM822.058 661.55L811.816 650.561L808.89 653.288L819.131 664.277L822.058 661.55ZM812.226 652.626C812.449 652.029 812.683 651.436 812.927 650.845L809.232 649.315C808.97 649.948 808.719 650.584 808.479 651.224L812.226 652.626ZM812.927 650.845C815.041 645.743 817.885 641.036 821.334 636.85L818.247 634.306C814.548 638.795 811.498 643.843 809.232 649.315L812.927 650.845ZM872.427 692.345C867.031 694.58 860.969 694.58 855.573 692.345L854.042 696.04C860.418 698.681 867.582 698.681 873.958 696.04L872.427 692.345ZM884.345 680.427C882.11 685.823 877.823 690.11 872.427 692.345L873.958 696.04C880.334 693.399 885.399 688.334 888.04 681.958L884.345 680.427ZM884.345 663.573C886.58 668.969 886.58 675.032 884.345 680.427L888.04 681.958C890.681 675.582 890.681 668.418 888.04 662.043L884.345 663.573ZM872.427 651.656C877.823 653.891 882.11 658.178 884.345 663.573L888.04 662.043C885.399 655.667 880.334 650.601 873.958 647.96L872.427 651.656ZM855.573 651.656C860.969 649.421 867.031 649.421 872.427 651.656L873.958 647.96C867.582 645.319 860.418 645.319 854.042 647.96L855.573 651.656ZM843.655 663.573C845.89 658.178 850.177 653.891 855.573 651.656L854.042 647.96C847.666 650.601 842.601 655.667 839.96 662.043L843.655 663.573ZM843.655 680.427C841.42 675.032 841.42 668.969 843.655 663.573L839.96 662.043C837.319 668.418 837.319 675.582 839.96 681.958L843.655 680.427ZM855.573 692.345C850.177 690.11 845.89 685.823 843.655 680.427L839.96 681.958C842.601 688.334 847.666 693.399 854.042 696.04L855.573 692.345Z" fill="#FFA500"/>
<path d="M859.757 682.243C862.474 683.368 865.526 683.368 868.243 682.243C870.959 681.117 873.117 678.959 874.243 676.243C875.368 673.526 875.368 670.474 874.243 667.757C873.117 665.041 870.959 662.883 868.243 661.757C865.526 660.632 862.474 660.632 859.757 661.757C857.041 662.883 854.883 665.041 853.757 667.757C852.632 670.474 852.632 673.526 853.757 676.243C854.883 678.959 857.041 681.117 859.757 682.243Z" fill="#FFD700" stroke="#FFD700" stroke-width="4" stroke-linecap="round" stroke-linejoin="round"/>
<g opacity="0.25">
<path d="M512 238.839L541.032 333.715L637.713 311.42L570.065 384L637.713 456.581L541.032 434.286L512 529.161L482.968 434.286L386.287 456.581L453.935 384L386.287 311.42L482.968 333.715L512 238.839Z" stroke="currentColor" stroke-width="2.41935" stroke-linecap="round" stroke-linejoin="round"/>
<path d="M553.058 483.122C526.769 494.011 497.231 494.011 470.942 483.122V483.122C444.653 472.233 423.767 451.347 412.878 425.058V425.058C401.988 398.769 401.988 369.231 412.878 342.942V342.942C423.767 316.653 444.653 295.767 470.942 284.878V284.878C497.231 273.988 526.769 273.988 553.058 284.878V284.878C579.347 295.767 600.233 316.653 611.122 342.942V342.942C622.012 369.231 622.012 398.769 611.122 425.058V425.058C600.233 451.347 579.347 472.233 553.058 483.122V483.122Z" stroke="currentColor" stroke-width="2.41935" stroke-linecap="round" stroke-linejoin="round"/>
<path d="M489.76 437.691C504 443.59 520 443.59 534.24 437.691V437.691C548.479 431.793 559.793 420.48 565.691 406.24V406.24C571.59 392 571.59 376 565.691 361.76V361.76C559.793 347.521 548.479 336.207 534.24 330.309V330.309C520 324.411 504 324.411 489.76 330.309V330.309C475.521 336.207 464.207 347.521 458.309 361.76V361.76C452.41 376 452.41 392 458.309 406.24V406.24C464.207 420.48 475.521 431.793 489.76 437.691V437.691Z" stroke="currentColor" stroke-width="2.41935" stroke-linecap="round" stroke-linejoin="round"/>
<path d="M565.033 512.033C531.077 526.098 492.923 526.098 458.967 512.033V512.033C425.011 497.968 398.032 470.989 383.967 437.033V437.033C369.902 403.077 369.902 364.923 383.967 330.967V330.967C398.032 297.011 425.011 270.032 458.967 255.967V255.967C492.923 241.902 531.077 241.902 565.033 255.967V255.967C598.989 270.032 625.968 297.011 640.033 330.967V330.967C654.098 364.923 654.098 403.077 640.033 437.033V437.033C625.968 470.989 598.989 497.968 565.033 512.033V512.033Z" stroke="currentColor" stroke-width="2.41935" stroke-linecap="round" stroke-linejoin="round"/>
</g>
</svg>
