<svg viewBox="0 0 1024 768" fill="none" xmlns="http://www.w3.org/2000/svg">
<path d="M424 36L435.021 69.3923L466.426 53.5736L450.608 84.9787L484 96L450.608 107.021L466.426 138.426L435.021 122.608L424 156L412.979 122.608L381.574 138.426L397.392 107.021L364 96L397.392 84.9787L381.574 53.5736L412.979 69.3923L424 36Z" stroke="#7B61FF" stroke-width="2" stroke-linecap="round" stroke-linejoin="round"/>
<path d="M578.787 147.213C592.369 152.839 607.631 152.839 621.213 147.213V147.213C634.796 141.587 645.587 130.796 651.213 117.213V117.213C656.839 103.631 656.839 88.3694 651.213 74.7868V74.7868C645.587 61.2042 634.796 50.4129 621.213 44.7868V44.7868C607.631 39.1607 592.369 39.1607 578.787 44.7868V44.7868C565.204 50.4129 554.413 61.2042 548.787 74.7868V74.7868C543.161 88.3694 543.161 103.631 548.787 117.213V117.213C554.413 130.796 565.204 141.587 578.787 147.213V147.213Z" stroke="#7B61FF" stroke-width="2" stroke-linecap="round" stroke-linejoin="round"/>
<path fill-rule="evenodd" clip-rule="evenodd" d="M528.406 283.706L512 234L495.594 283.706C506.458 281.929 517.542 281.929 528.406 283.706ZM571.318 301.481C580.256 307.906 588.094 315.744 594.519 324.682L618.066 277.934L571.318 301.481ZM612.294 367.594C614.071 378.458 614.071 389.542 612.294 400.406L662 384L612.294 367.594ZM594.519 443.318C588.094 452.256 580.256 460.094 571.318 466.519L618.066 490.066L594.519 443.318ZM528.406 484.294C517.542 486.071 506.458 486.071 495.594 484.294L512 534L528.406 484.294ZM452.682 466.519C443.744 460.094 435.906 452.256 429.481 443.318L405.934 490.066L452.682 466.519ZM411.706 400.406C409.929 389.542 409.929 378.458 411.706 367.594L362 384L411.706 400.406ZM429.481 324.682C435.906 315.744 443.744 307.906 452.682 301.481L405.934 277.934L429.481 324.682Z" fill="#888888" fill-opacity="0.5"/>
<path d="M512 234L516.748 232.433C516.072 230.384 514.158 229 512 229C509.842 229 507.928 230.384 507.252 232.433L512 234ZM528.406 283.706L527.599 288.64C529.324 288.922 531.071 288.283 532.207 286.954C533.343 285.625 533.702 283.799 533.154 282.139L528.406 283.706ZM495.594 283.706L490.846 282.139C490.298 283.799 490.657 285.625 491.793 286.954C492.929 288.283 494.676 288.922 496.401 288.64L495.594 283.706ZM571.318 301.481L569.069 297.015C567.508 297.802 566.47 299.347 566.334 301.089C566.197 302.832 566.98 304.52 568.4 305.541L571.318 301.481ZM594.519 324.682L590.459 327.6C591.48 329.02 593.168 329.803 594.911 329.667C596.653 329.53 598.198 328.493 598.985 326.931L594.519 324.682ZM618.066 277.934L622.532 280.183C623.502 278.256 623.127 275.924 621.602 274.398C620.076 272.873 617.744 272.498 615.817 273.468L618.066 277.934ZM612.294 367.594L613.861 362.846C612.201 362.298 610.375 362.657 609.046 363.793C607.717 364.929 607.078 366.676 607.36 368.401L612.294 367.594ZM612.294 400.406L607.36 399.599C607.078 401.324 607.717 403.071 609.046 404.207C610.375 405.343 612.201 405.702 613.861 405.154L612.294 400.406ZM662 384L663.567 388.748C665.616 388.072 667 386.158 667 384C667 381.842 665.616 379.928 663.567 379.252L662 384ZM594.519 443.318L598.985 441.069C598.198 439.508 596.653 438.47 594.911 438.333C593.168 438.197 591.48 438.98 590.459 440.4L594.519 443.318ZM571.318 466.519L568.4 462.459C566.98 463.48 566.197 465.168 566.333 466.911C566.47 468.653 567.508 470.198 569.069 470.985L571.318 466.519ZM618.066 490.066L615.817 494.532C617.744 495.502 620.076 495.127 621.602 493.602C623.127 492.076 623.502 489.744 622.532 487.817L618.066 490.066ZM528.406 484.294L533.154 485.861C533.702 484.201 533.343 482.375 532.207 481.046C531.071 479.717 529.324 479.078 527.599 479.36L528.406 484.294ZM495.594 484.294L496.401 479.36C494.676 479.078 492.929 479.717 491.793 481.046C490.657 482.375 490.298 484.201 490.846 485.861L495.594 484.294ZM512 534L507.252 535.567C507.928 537.616 509.842 539 512 539C514.158 539 516.072 537.616 516.748 535.567L512 534ZM452.682 466.519L454.931 470.985C456.493 470.198 457.53 468.653 457.667 466.911C457.803 465.168 457.02 463.48 455.6 462.459L452.682 466.519ZM429.481 443.318L433.541 440.4C432.52 438.98 430.832 438.197 429.089 438.333C427.347 438.47 425.802 439.508 425.015 441.069L429.481 443.318ZM405.934 490.066L401.468 487.817C400.498 489.744 400.873 492.076 402.398 493.602C403.924 495.127 406.256 495.502 408.183 494.532L405.934 490.066ZM411.706 400.406L410.139 405.154C411.799 405.702 413.625 405.343 414.954 404.207C416.283 403.071 416.922 401.324 416.64 399.599L411.706 400.406ZM411.706 367.594L416.64 368.401C416.922 366.676 416.283 364.929 414.954 363.793C413.625 362.657 411.799 362.298 410.139 362.846L411.706 367.594ZM362 384L360.433 379.252C358.384 379.928 357 381.842 357 384C357 386.158 358.384 388.072 360.433 388.748L362 384ZM429.481 324.682L425.015 326.931C425.802 328.493 427.347 329.53 429.089 329.667C430.832 329.803 432.52 329.02 433.541 327.6L429.481 324.682ZM452.682 301.481L455.6 305.541C457.02 304.52 457.803 302.832 457.667 301.089C457.53 299.347 456.493 297.802 454.931 297.015L452.682 301.481ZM405.934 277.934L408.183 273.468C406.256 272.498 403.924 272.873 402.398 274.398C400.873 275.924 400.498 278.256 401.468 280.183L405.934 277.934ZM507.252 235.567L523.658 285.273L533.154 282.139L516.748 232.433L507.252 235.567ZM500.342 285.273L516.748 235.567L507.252 232.433L490.846 282.139L500.342 285.273ZM496.401 288.64C506.731 286.951 517.269 286.951 527.599 288.64L529.213 278.771C517.814 276.907 506.186 276.907 494.787 278.771L496.401 288.64ZM568.4 305.541C576.898 311.65 584.35 319.102 590.459 327.6L598.579 321.763C591.838 312.385 583.615 304.163 574.237 297.421L568.4 305.541ZM613.601 275.685L590.054 322.433L598.985 326.931L622.532 280.183L613.601 275.685ZM573.567 305.946L620.315 282.4L615.817 273.468L569.069 297.015L573.567 305.946ZM607.36 368.401C609.049 378.731 609.049 389.269 607.36 399.599L617.229 401.213C619.093 389.814 619.093 378.186 617.229 366.787L607.36 368.401ZM660.433 379.252L610.727 395.658L613.861 405.154L663.567 388.748L660.433 379.252ZM610.727 372.342L660.433 388.748L663.567 379.252L613.861 362.846L610.727 372.342ZM590.459 440.4C584.35 448.898 576.898 456.35 568.4 462.459L574.237 470.579C583.615 463.837 591.837 455.615 598.579 446.237L590.459 440.4ZM620.315 485.601L573.567 462.054L569.069 470.985L615.817 494.532L620.315 485.601ZM590.054 445.567L613.601 492.315L622.532 487.817L598.985 441.069L590.054 445.567ZM527.599 479.36C517.269 481.049 506.731 481.049 496.401 479.36L494.787 489.229C506.186 491.093 517.814 491.093 529.213 489.229L527.599 479.36ZM516.748 532.433L500.342 482.727L490.846 485.861L507.252 535.567L516.748 532.433ZM523.658 482.727L507.252 532.433L516.748 535.567L533.154 485.861L523.658 482.727ZM455.6 462.459C447.102 456.35 439.65 448.898 433.541 440.4L425.421 446.237C432.163 455.615 440.385 463.837 449.763 470.579L455.6 462.459ZM410.4 492.315L433.946 445.567L425.015 441.069L401.468 487.817L410.4 492.315ZM450.433 462.054L403.685 485.601L408.183 494.532L454.931 470.985L450.433 462.054ZM416.64 399.599C414.951 389.269 414.951 378.731 416.64 368.401L406.771 366.787C404.907 378.186 404.907 389.814 406.771 401.213L416.64 399.599ZM363.567 388.748L413.273 372.342L410.139 362.846L360.433 379.252L363.567 388.748ZM413.273 395.658L363.567 379.252L360.433 388.748L410.139 405.154L413.273 395.658ZM433.541 327.6C439.65 319.102 447.102 311.65 455.6 305.541L449.763 297.421C440.385 304.163 432.163 312.385 425.421 321.763L433.541 327.6ZM403.685 282.4L450.433 305.946L454.931 297.015L408.183 273.468L403.685 282.4ZM433.946 322.433L410.4 275.685L401.468 280.183L425.015 326.931L433.946 322.433Z" fill="currentColor"/>
<path d="M489.019 439.481C503.734 445.576 520.267 445.576 534.981 439.481C549.695 433.386 561.386 421.695 567.481 406.981C573.576 392.266 573.576 375.733 567.481 361.019C561.386 346.305 549.695 334.614 534.981 328.519C520.267 322.424 503.734 322.424 489.019 328.519C474.305 334.614 462.614 346.305 456.519 361.019C450.424 375.733 450.424 392.266 456.519 406.981C462.614 421.695 474.305 433.386 489.019 439.481Z" fill="#888888" fill-opacity="0.5" stroke="currentColor" stroke-width="10" stroke-linecap="round" stroke-linejoin="round"/>
<g opacity="0.25">
<path d="M512 234L539.553 317.481L618.066 277.934L578.519 356.447L662 384L578.519 411.553L618.066 490.066L539.553 450.519L512 534L484.447 450.519L405.934 490.066L445.481 411.553L362 384L445.481 356.447L405.934 277.934L484.447 317.481L512 234Z" stroke="currentColor" stroke-width="2.5" stroke-linecap="round" stroke-linejoin="round"/>
<path d="M550.891 477.891C525.989 488.205 498.011 488.205 473.109 477.891V477.891C448.208 467.576 428.424 447.792 418.109 422.891V422.891C407.795 397.989 407.795 370.011 418.109 345.109V345.109C428.424 320.208 448.208 300.424 473.109 290.109V290.109C498.011 279.795 525.989 279.795 550.891 290.109V290.109C575.792 300.424 595.576 320.208 605.891 345.109V345.109C616.205 370.011 616.205 397.989 605.891 422.891V422.891C595.576 447.792 575.792 467.576 550.891 477.891V477.891Z" stroke="currentColor" stroke-width="2.5" stroke-linecap="round" stroke-linejoin="round"/>
<path d="M489.019 439.481C503.734 445.576 520.267 445.576 534.981 439.481V439.481C549.695 433.386 561.386 421.695 567.481 406.981V406.981C573.576 392.266 573.576 375.733 567.481 361.019V361.019C561.386 346.305 549.695 334.614 534.981 328.519V328.519C520.267 322.424 503.734 322.424 489.019 328.519V328.519C474.305 334.614 462.614 346.305 456.519 361.019V361.019C450.424 375.733 450.424 392.266 456.519 406.981V406.981C462.614 421.695 474.305 433.386 489.019 439.481V439.481Z" stroke="currentColor" stroke-width="2.5" stroke-linecap="round" stroke-linejoin="round"/>
</g>
<path d="M160 612L160.95 611.687C160.814 611.277 160.432 611 160 611C159.568 611 159.186 611.277 159.05 611.687L160 612ZM166.562 631.882L166.401 632.869C166.746 632.926 167.095 632.798 167.323 632.532C167.55 632.266 167.621 631.901 167.512 631.569L166.562 631.882ZM153.438 631.882L152.488 631.569C152.379 631.901 152.45 632.266 152.677 632.532C152.905 632.798 153.254 632.926 153.599 632.869L153.438 631.882ZM183.727 638.992L183.277 638.099C182.965 638.256 182.758 638.565 182.73 638.914C182.703 639.263 182.86 639.6 183.144 639.804L183.727 638.992ZM193.008 648.273L192.196 648.856C192.4 649.14 192.737 649.297 193.086 649.27C193.435 649.242 193.743 649.035 193.901 648.723L193.008 648.273ZM202.426 629.574L203.32 630.023C203.514 629.638 203.439 629.172 203.134 628.866C202.828 628.561 202.362 628.486 201.977 628.68L202.426 629.574ZM200.118 665.438L200.431 664.488C200.099 664.379 199.734 664.45 199.468 664.677C199.202 664.905 199.074 665.254 199.131 665.599L200.118 665.438ZM200.118 678.562L199.131 678.401C199.074 678.746 199.202 679.095 199.468 679.323C199.734 679.55 200.099 679.621 200.431 679.512L200.118 678.562ZM220 672L220.313 672.95C220.723 672.814 221 672.432 221 672C221 671.568 220.723 671.186 220.313 671.05L220 672ZM193.008 695.727L193.901 695.277C193.743 694.965 193.435 694.758 193.086 694.73C192.737 694.703 192.4 694.86 192.196 695.144L193.008 695.727ZM183.727 705.008L183.144 704.196C182.86 704.4 182.703 704.737 182.73 705.086C182.758 705.435 182.965 705.743 183.277 705.901L183.727 705.008ZM202.426 714.426L201.977 715.32C202.362 715.514 202.828 715.439 203.134 715.134C203.439 714.828 203.514 714.362 203.32 713.977L202.426 714.426ZM166.562 712.118L167.512 712.431C167.621 712.099 167.55 711.734 167.323 711.468C167.095 711.202 166.746 711.074 166.401 711.131L166.562 712.118ZM153.438 712.118L153.599 711.131C153.254 711.074 152.905 711.202 152.677 711.468C152.45 711.734 152.379 712.099 152.488 712.431L153.438 712.118ZM160 732L159.05 732.313C159.186 732.723 159.568 733 160 733C160.432 733 160.814 732.723 160.95 732.313L160 732ZM136.273 705.008L136.723 705.901C137.035 705.743 137.242 705.435 137.27 705.086C137.297 704.737 137.14 704.4 136.856 704.196L136.273 705.008ZM126.992 695.727L127.804 695.144C127.6 694.86 127.263 694.703 126.914 694.73C126.565 694.758 126.256 694.965 126.099 695.277L126.992 695.727ZM117.574 714.426L116.68 713.977C116.486 714.362 116.561 714.828 116.866 715.134C117.172 715.439 117.638 715.514 118.023 715.32L117.574 714.426ZM119.882 678.562L119.569 679.512C119.901 679.621 120.266 679.55 120.532 679.323C120.798 679.095 120.926 678.746 120.869 678.401L119.882 678.562ZM119.882 665.438L120.869 665.599C120.926 665.254 120.798 664.905 120.532 664.677C120.266 664.45 119.901 664.379 119.569 664.488L119.882 665.438ZM100 672L99.6866 671.05C99.2768 671.186 99 671.568 99 672C99 672.432 99.2768 672.814 99.6866 672.95L100 672ZM126.992 648.273L126.099 648.723C126.256 649.035 126.565 649.242 126.914 649.27C127.263 649.297 127.6 649.14 127.804 648.856L126.992 648.273ZM136.273 638.992L136.856 639.804C137.14 639.6 137.297 639.263 137.27 638.914C137.242 638.565 137.035 638.256 136.723 638.099L136.273 638.992ZM117.574 629.574L118.023 628.68C117.638 628.486 117.172 628.561 116.866 628.866C116.561 629.172 116.486 629.638 116.68 630.023L117.574 629.574ZM159.05 612.313L165.613 632.196L167.512 631.569L160.95 611.687L159.05 612.313ZM154.387 632.196L160.95 612.313L159.05 611.687L152.488 631.569L154.387 632.196ZM153.599 632.869C157.838 632.176 162.162 632.176 166.401 632.869L166.724 630.895C162.271 630.167 157.729 630.167 153.276 630.895L153.599 632.869ZM183.144 639.804C186.631 642.311 189.689 645.369 192.196 648.856L193.82 647.689C191.186 644.026 187.974 640.814 184.311 638.18L183.144 639.804ZM201.533 629.124L192.115 647.823L193.901 648.723L203.32 630.023L201.533 629.124ZM184.177 639.885L202.876 630.467L201.977 628.68L183.277 638.099L184.177 639.885ZM199.131 665.599C199.824 669.838 199.824 674.162 199.131 678.401L201.105 678.724C201.833 674.271 201.833 669.729 201.105 665.276L199.131 665.599ZM219.687 671.05L199.804 677.613L200.431 679.512L220.313 672.95L219.687 671.05ZM199.804 666.387L219.687 672.95L220.313 671.05L200.431 664.488L199.804 666.387ZM192.196 695.144C189.689 698.631 186.631 701.689 183.144 704.196L184.311 705.82C187.974 703.186 191.186 699.974 193.82 696.311L192.196 695.144ZM202.876 713.533L184.177 704.115L183.277 705.901L201.977 715.32L202.876 713.533ZM192.115 696.177L201.533 714.876L203.32 713.977L193.901 695.277L192.115 696.177ZM166.401 711.131C162.162 711.824 157.838 711.824 153.599 711.131L153.276 713.105C157.729 713.833 162.271 713.833 166.724 713.105L166.401 711.131ZM160.95 731.687L154.387 711.804L152.488 712.431L159.05 732.313L160.95 731.687ZM165.613 711.804L159.05 731.687L160.95 732.313L167.512 712.431L165.613 711.804ZM136.856 704.196C133.369 701.689 130.311 698.631 127.804 695.144L126.18 696.311C128.814 699.974 132.026 703.186 135.689 705.82L136.856 704.196ZM118.467 714.876L127.885 696.177L126.099 695.277L116.68 713.977L118.467 714.876ZM135.823 704.115L117.124 713.533L118.023 715.32L136.723 705.901L135.823 704.115ZM120.869 678.401C120.176 674.162 120.176 669.838 120.869 665.599L118.895 665.276C118.167 669.729 118.167 674.271 118.895 678.724L120.869 678.401ZM100.313 672.95L120.196 666.387L119.569 664.488L99.6866 671.05L100.313 672.95ZM120.196 677.613L100.313 671.05L99.6866 672.95L119.569 679.512L120.196 677.613ZM127.804 648.856C130.311 645.369 133.369 642.311 136.856 639.804L135.689 638.18C132.026 640.814 128.814 644.026 126.18 647.689L127.804 648.856ZM117.124 630.467L135.823 639.885L136.723 638.099L118.023 628.68L117.124 630.467ZM127.885 647.823L118.467 629.124L116.68 630.023L126.099 648.723L127.885 647.823Z" fill="currentColor"/>
<path d="M150.808 694.192C156.693 696.63 163.307 696.63 169.192 694.192V694.192C175.078 691.754 179.754 687.078 182.192 681.192V681.192C184.63 675.307 184.63 668.693 182.192 662.808V662.808C179.754 656.922 175.078 652.246 169.192 649.808V649.808C163.307 647.37 156.693 647.37 150.808 649.808V649.808C144.922 652.246 140.246 656.922 137.808 662.808V662.808C135.37 668.693 135.37 675.307 137.808 681.192V681.192C140.246 687.078 144.922 691.754 150.808 694.192V694.192Z" stroke="currentColor" stroke-width="2" stroke-linecap="round" stroke-linejoin="round"/>
<path d="M339.798 610.746L339.324 610.903L339.798 610.746ZM332.202 610.746L332.676 610.903L332.202 610.746ZM325.639 630.629L325.164 630.472L325.639 630.629ZM326.397 634.481L326.777 634.156L326.397 634.481ZM330.083 635.83L330.003 635.336L330.083 635.83ZM341.917 635.83L341.997 635.336L341.917 635.83ZM345.603 634.481L345.223 634.156L345.603 634.481ZM346.361 630.629L346.836 630.472L346.361 630.629ZM336 624.762L336.475 624.606C336.407 624.401 336.216 624.262 336 624.262C335.784 624.262 335.593 624.401 335.525 624.606L336 624.762ZM335.143 627.358L334.669 627.201C334.618 627.355 334.645 627.524 334.741 627.654C334.837 627.785 334.991 627.861 335.153 627.857L335.143 627.358ZM336.857 627.358L336.847 627.857C337.009 627.861 337.163 627.785 337.259 627.654C337.355 627.524 337.382 627.355 337.331 627.201L336.857 627.358ZM295.373 626.001L295.598 625.555V625.555L295.373 626.001ZM290.001 631.373L289.555 631.598H289.555L290.001 631.373ZM299.42 650.072L299.866 649.847L299.42 650.072ZM302.679 652.26L302.64 652.759L302.679 652.26ZM306.24 650.608L306.646 650.899L306.24 650.608ZM314.608 642.24L314.899 642.646L314.608 642.24ZM316.26 638.679L316.759 638.64L316.26 638.679ZM314.072 635.42L313.847 635.866L314.072 635.42ZM381.255 626.745L381.608 626.392L381.255 626.745ZM381.999 631.373L381.552 631.148V631.148L381.999 631.373ZM376.627 626.001L376.402 625.555L376.627 626.001ZM357.928 635.42L357.703 634.973L357.928 635.42ZM357.392 642.24L357.101 642.646L357.392 642.24ZM365.76 650.608L366.166 650.316L365.76 650.608ZM369.321 652.26L369.282 651.762L369.321 652.26ZM372.58 650.072L372.134 649.847L372.58 650.072ZM302.598 638.598L302.823 638.151C302.63 638.054 302.397 638.092 302.244 638.244C302.092 638.397 302.054 638.63 302.151 638.823L302.598 638.598ZM303.827 641.039L303.381 641.264C303.454 641.408 303.592 641.509 303.753 641.533C303.913 641.557 304.075 641.502 304.188 641.385L303.827 641.039ZM305.039 639.827L305.385 640.188C305.502 640.075 305.557 639.913 305.533 639.753C305.509 639.592 305.408 639.454 305.264 639.381L305.039 639.827ZM366.961 639.827L366.736 639.381C366.592 639.454 366.491 639.592 366.467 639.753C366.443 639.913 366.498 640.075 366.615 640.188L366.961 639.827ZM368.173 641.039L367.812 641.385C367.925 641.502 368.087 641.557 368.247 641.533C368.408 641.509 368.546 641.408 368.619 641.264L368.173 641.039ZM369.402 638.598L369.849 638.823C369.946 638.63 369.908 638.397 369.756 638.244C369.603 638.092 369.37 638.054 369.177 638.151L369.402 638.598ZM298.481 662.397L298.156 662.777L298.481 662.397ZM299.83 666.083L299.336 666.003L299.83 666.083ZM294.629 661.639L294.472 661.164L294.629 661.639ZM274.746 668.202L274.903 668.676L274.746 668.202ZM274.746 675.798L274.903 675.324H274.903L274.746 675.798ZM294.629 682.361L294.472 682.836L294.629 682.361ZM298.481 681.603L298.156 681.223L298.481 681.603ZM299.83 677.917L299.336 677.997L299.83 677.917ZM377.371 661.639L377.528 661.164H377.528L377.371 661.639ZM372.17 666.083L371.677 666.164V666.164L372.17 666.083ZM372.17 677.917L371.677 677.836L372.17 677.917ZM377.371 682.361L377.528 682.836H377.528L377.371 682.361ZM397.254 675.798L397.097 675.324L397.254 675.798ZM397.254 668.202L397.41 667.727L397.254 668.202ZM288.762 672L288.606 671.525C288.401 671.593 288.262 671.784 288.262 672C288.262 672.216 288.401 672.407 288.606 672.475L288.762 672ZM291.358 672.857L291.201 673.331C291.355 673.382 291.524 673.355 291.654 673.259C291.785 673.163 291.861 673.009 291.857 672.847L291.358 672.857ZM291.358 671.143L291.857 671.153C291.861 670.991 291.785 670.837 291.654 670.741C291.524 670.645 291.355 670.618 291.201 670.669L291.358 671.143ZM380.642 672.857L380.143 672.847C380.139 673.009 380.215 673.163 380.346 673.259C380.476 673.355 380.645 673.382 380.799 673.331L380.642 672.857ZM383.238 672L383.394 672.475C383.599 672.407 383.738 672.216 383.738 672C383.738 671.784 383.599 671.593 383.394 671.525L383.238 672ZM380.642 671.143L380.799 670.669C380.645 670.618 380.476 670.645 380.346 670.741C380.215 670.837 380.139 670.991 380.143 671.153L380.642 671.143ZM306.24 693.392L306.646 693.101L306.24 693.392ZM299.42 693.928L298.973 693.703L299.42 693.928ZM290.001 712.627L289.555 712.402L290.001 712.627ZM290.745 717.255L290.392 717.608L290.745 717.255ZM295.373 717.999L295.148 717.552H295.148L295.373 717.999ZM314.072 708.58L313.847 708.134L314.072 708.58ZM316.26 705.321L315.762 705.282L316.26 705.321ZM314.608 701.76L314.316 702.166L314.608 701.76ZM369.321 691.74L369.282 692.238L369.321 691.74ZM372.58 693.928L373.027 693.703L372.58 693.928ZM365.76 693.392L366.166 693.684L365.76 693.392ZM357.392 701.76L357.684 702.166L357.392 701.76ZM355.74 705.321L356.238 705.282L355.74 705.321ZM357.928 708.58L357.703 709.027L357.928 708.58ZM376.627 717.999L376.852 717.552L376.627 717.999ZM381.255 717.255L381.608 717.608L381.255 717.255ZM381.999 712.627L381.552 712.852L381.999 712.627ZM303.827 702.961L304.188 702.615C304.075 702.498 303.913 702.443 303.753 702.467C303.592 702.491 303.454 702.592 303.381 702.736L303.827 702.961ZM302.598 705.402L302.151 705.177C302.054 705.37 302.092 705.603 302.244 705.756C302.397 705.908 302.63 705.946 302.823 705.849L302.598 705.402ZM305.039 704.173L305.264 704.619C305.408 704.546 305.509 704.408 305.533 704.247C305.557 704.087 305.502 703.925 305.385 703.812L305.039 704.173ZM366.961 704.173L366.615 703.812C366.498 703.925 366.443 704.087 366.467 704.247C366.491 704.408 366.592 704.546 366.736 704.619L366.961 704.173ZM369.402 705.402L369.177 705.849C369.37 705.946 369.603 705.908 369.756 705.756C369.908 705.603 369.946 705.37 369.849 705.177L369.402 705.402ZM368.173 702.961L368.619 702.736C368.546 702.592 368.408 702.491 368.247 702.467C368.087 702.443 367.925 702.498 367.812 702.615L368.173 702.961ZM330.083 708.17L330.164 707.677H330.164L330.083 708.17ZM325.639 713.371L325.164 713.528V713.528L325.639 713.371ZM332.202 733.254L331.727 733.41L332.202 733.254ZM339.798 733.254L339.324 733.097L339.798 733.254ZM346.361 713.371L346.836 713.528V713.528L346.361 713.371ZM341.917 708.17L341.836 707.677L341.917 708.17ZM335.143 716.642L335.153 716.143C334.991 716.139 334.837 716.215 334.741 716.346C334.645 716.476 334.618 716.645 334.669 716.799L335.143 716.642ZM336 719.238L335.525 719.394C335.593 719.599 335.784 719.738 336 719.738C336.216 719.738 336.407 719.599 336.475 719.394L336 719.238ZM336.857 716.642L337.331 716.799C337.382 716.645 337.355 716.476 337.259 716.346C337.163 716.215 337.009 716.139 336.847 716.143L336.857 716.642ZM325.277 646.112L325.086 645.65L325.277 646.112ZM361.888 661.277L362.35 661.086L361.888 661.277ZM343.662 690.497L343.47 690.035L343.662 690.497ZM328.338 690.497L328.53 690.035L328.338 690.497ZM354.497 679.662L354.035 679.47L354.497 679.662ZM354.497 664.338L354.035 664.53L354.497 664.338ZM343.662 653.503L343.47 653.965L343.662 653.503ZM328.338 653.503L328.53 653.965L328.338 653.503ZM317.503 664.338L317.041 664.147L317.503 664.338ZM317.503 679.662L317.965 679.47L317.503 679.662ZM336 608.5C337.51 608.5 338.85 609.469 339.324 610.903L340.273 610.59C339.665 608.746 337.942 607.5 336 607.5V608.5ZM332.676 610.903C333.15 609.469 334.49 608.5 336 608.5V607.5C334.058 607.5 332.335 608.746 331.727 610.59L332.676 610.903ZM326.114 630.785L332.676 610.903L331.727 610.59L325.164 630.472L326.114 630.785ZM326.777 634.156C325.982 633.226 325.731 631.947 326.114 630.785L325.164 630.472C324.671 631.966 324.994 633.609 326.016 634.806L326.777 634.156ZM330.003 635.336C328.795 635.534 327.572 635.086 326.777 634.156L326.016 634.806C327.039 636.002 328.611 636.577 330.164 636.323L330.003 635.336ZM341.997 635.336C338.026 634.687 333.974 634.687 330.003 635.336L330.164 636.323C334.029 635.691 337.971 635.691 341.836 636.323L341.997 635.336ZM345.223 634.156C344.428 635.086 343.205 635.534 341.997 635.336L341.836 636.323C343.389 636.577 344.961 636.002 345.984 634.806L345.223 634.156ZM345.886 630.785C346.269 631.947 346.018 633.226 345.223 634.156L345.984 634.806C347.006 633.609 347.329 631.966 346.836 630.472L345.886 630.785ZM339.324 610.903L345.886 630.785L346.836 630.472L340.273 610.59L339.324 610.903ZM335.525 624.606L334.669 627.201L335.618 627.514L336.475 624.919L335.525 624.606ZM337.331 627.201L336.475 624.606L335.525 624.919L336.382 627.514L337.331 627.201ZM335.153 627.857C335.718 627.847 336.282 627.847 336.847 627.857L336.866 626.858C336.289 626.847 335.711 626.847 335.134 626.858L335.153 627.857ZM291.099 627.099C292.167 626.031 293.799 625.768 295.148 626.448L295.598 625.555C293.864 624.681 291.765 625.019 290.392 626.392L291.099 627.099ZM290.448 631.148C289.768 629.799 290.031 628.167 291.099 627.099L290.392 626.392C289.019 627.765 288.681 629.864 289.555 631.598L290.448 631.148ZM299.866 649.847L290.448 631.148L289.555 631.598L298.973 650.297L299.866 649.847ZM302.718 651.762C301.498 651.666 300.417 650.94 299.866 649.847L298.973 650.297C299.681 651.702 301.072 652.636 302.64 652.759L302.718 651.762ZM305.834 650.316C305.12 651.309 303.938 651.858 302.718 651.762L302.64 652.759C304.209 652.882 305.728 652.177 306.646 650.899L305.834 650.316ZM314.316 641.834C311.048 644.183 308.183 647.048 305.834 650.316L306.646 650.899C308.932 647.72 311.72 644.932 314.899 642.646L314.316 641.834ZM315.762 638.718C315.858 639.938 315.309 641.12 314.316 641.834L314.899 642.646C316.177 641.728 316.882 640.209 316.759 638.64L315.762 638.718ZM313.847 635.866C314.94 636.417 315.666 637.498 315.762 638.718L316.759 638.64C316.636 637.072 315.702 635.681 314.297 634.973L313.847 635.866ZM295.148 626.448L313.847 635.866L314.297 634.973L295.598 625.555L295.148 626.448ZM380.901 627.099C381.969 628.167 382.232 629.799 381.552 631.148L382.445 631.598C383.319 629.864 382.981 627.765 381.608 626.392L380.901 627.099ZM376.852 626.448C378.201 625.768 379.833 626.031 380.901 627.099L381.608 626.392C380.235 625.019 378.136 624.681 376.402 625.555L376.852 626.448ZM358.153 635.866L376.852 626.448L376.402 625.555L357.703 634.973L358.153 635.866ZM356.238 638.718C356.334 637.498 357.06 636.417 358.153 635.866L357.703 634.973C356.298 635.681 355.364 637.072 355.241 638.64L356.238 638.718ZM357.684 641.834C356.691 641.12 356.142 639.938 356.238 638.718L355.241 638.64C355.118 640.209 355.823 641.728 357.101 642.646L357.684 641.834ZM366.166 650.316C363.817 647.048 360.952 644.183 357.684 641.834L357.101 642.646C360.28 644.932 363.068 647.72 365.354 650.899L366.166 650.316ZM369.282 651.762C368.062 651.858 366.88 651.309 366.166 650.316L365.354 650.899C366.272 652.177 367.791 652.882 369.36 652.759L369.282 651.762ZM372.134 649.847C371.583 650.94 370.502 651.666 369.282 651.762L369.36 652.759C370.928 652.636 372.319 651.702 373.027 650.297L372.134 649.847ZM381.552 631.148L372.134 649.847L373.027 650.297L382.445 631.598L381.552 631.148ZM302.151 638.823L303.381 641.264L304.274 640.814L303.044 638.373L302.151 638.823ZM305.264 639.381L302.823 638.151L302.373 639.044L304.814 640.274L305.264 639.381ZM304.188 641.385C304.579 640.979 304.979 640.579 305.385 640.188L304.692 639.467C304.276 639.867 303.867 640.276 303.467 640.692L304.188 641.385ZM366.615 640.188C367.021 640.579 367.421 640.979 367.812 641.385L368.533 640.692C368.133 640.276 367.724 639.867 367.308 639.467L366.615 640.188ZM369.177 638.151L366.736 639.381L367.186 640.274L369.627 639.044L369.177 638.151ZM368.619 641.264L369.849 638.823L368.956 638.373L367.726 640.814L368.619 641.264ZM298.156 662.777C299.086 663.572 299.534 664.795 299.336 666.003L300.323 666.164C300.577 664.611 300.002 663.039 298.806 662.016L298.156 662.777ZM294.785 662.114C295.947 661.731 297.226 661.982 298.156 662.777L298.806 662.016C297.609 660.994 295.966 660.671 294.472 661.164L294.785 662.114ZM274.903 668.676L294.785 662.114L294.472 661.164L274.59 667.727L274.903 668.676ZM272.5 672C272.5 670.49 273.469 669.15 274.903 668.676L274.59 667.727C272.746 668.335 271.5 670.058 271.5 672H272.5ZM274.903 675.324C273.469 674.85 272.5 673.51 272.5 672H271.5C271.5 673.942 272.746 675.665 274.59 676.273L274.903 675.324ZM294.785 681.886L274.903 675.324L274.59 676.273L294.472 682.836L294.785 681.886ZM298.156 681.223C297.226 682.018 295.947 682.269 294.785 681.886L294.472 682.836C295.966 683.329 297.609 683.006 298.806 681.984L298.156 681.223ZM299.336 677.997C299.534 679.205 299.086 680.428 298.156 681.223L298.806 681.984C300.002 680.961 300.577 679.389 300.323 677.836L299.336 677.997ZM299.336 666.003C298.687 669.974 298.687 674.026 299.336 677.997L300.323 677.836C299.691 673.971 299.691 670.029 300.323 666.164L299.336 666.003ZM373.844 662.777C374.774 661.982 376.053 661.731 377.215 662.114L377.528 661.164C376.034 660.671 374.391 660.994 373.194 662.016L373.844 662.777ZM372.664 666.003C372.466 664.795 372.914 663.572 373.844 662.777L373.194 662.016C371.998 663.039 371.423 664.611 371.677 666.164L372.664 666.003ZM372.664 677.997C373.313 674.026 373.313 669.974 372.664 666.003L371.677 666.164C372.309 670.029 372.309 673.971 371.677 677.836L372.664 677.997ZM373.844 681.223C372.914 680.428 372.466 679.205 372.664 677.997L371.677 677.836C371.423 679.389 371.998 680.961 373.194 681.984L373.844 681.223ZM377.215 681.886C376.053 682.269 374.774 682.018 373.844 681.223L373.194 681.984C374.391 683.006 376.034 683.329 377.528 682.836L377.215 681.886ZM397.097 675.324L377.215 681.886L377.528 682.836L397.41 676.273L397.097 675.324ZM399.5 672C399.5 673.51 398.531 674.85 397.097 675.324L397.41 676.273C399.254 675.665 400.5 673.942 400.5 672H399.5ZM397.097 668.676C398.531 669.15 399.5 670.49 399.5 672H400.5C400.5 670.058 399.254 668.335 397.41 667.727L397.097 668.676ZM377.215 662.114L397.097 668.676L397.41 667.727L377.528 661.164L377.215 662.114ZM288.606 672.475L291.201 673.331L291.514 672.382L288.919 671.525L288.606 672.475ZM291.201 670.669L288.606 671.525L288.919 672.475L291.514 671.618L291.201 670.669ZM291.857 672.847C291.847 672.282 291.847 671.718 291.857 671.153L290.858 671.134C290.847 671.711 290.847 672.289 290.858 672.866L291.857 672.847ZM380.799 673.331L383.394 672.475L383.081 671.525L380.486 672.382L380.799 673.331ZM380.143 671.153C380.153 671.718 380.153 672.282 380.143 672.847L381.142 672.866C381.153 672.289 381.153 671.711 381.142 671.134L380.143 671.153ZM383.394 671.525L380.799 670.669L380.486 671.618L383.081 672.475L383.394 671.525ZM302.718 692.238C303.938 692.142 305.12 692.691 305.834 693.684L306.646 693.101C305.728 691.823 304.209 691.118 302.64 691.241L302.718 692.238ZM299.866 694.153C300.417 693.06 301.498 692.334 302.718 692.238L302.64 691.241C301.072 691.364 299.681 692.298 298.973 693.703L299.866 694.153ZM290.448 712.852L299.866 694.153L298.973 693.703L289.555 712.402L290.448 712.852ZM291.099 716.901C290.031 715.833 289.768 714.201 290.448 712.852L289.555 712.402C288.681 714.136 289.019 716.235 290.392 717.608L291.099 716.901ZM295.148 717.552C293.799 718.232 292.167 717.969 291.099 716.901L290.392 717.608C291.765 718.981 293.864 719.319 295.598 718.445L295.148 717.552ZM313.847 708.134L295.148 717.552L295.598 718.445L314.297 709.027L313.847 708.134ZM315.762 705.282C315.666 706.502 314.94 707.583 313.847 708.134L314.297 709.027C315.702 708.319 316.636 706.928 316.759 705.36L315.762 705.282ZM314.316 702.166C315.309 702.88 315.858 704.062 315.762 705.282L316.759 705.36C316.882 703.791 316.177 702.272 314.899 701.354L314.316 702.166ZM305.834 693.684C308.183 696.952 311.048 699.817 314.316 702.166L314.899 701.354C311.72 699.068 308.932 696.28 306.646 693.101L305.834 693.684ZM369.282 692.238C370.502 692.334 371.583 693.06 372.134 694.153L373.027 693.703C372.319 692.298 370.928 691.364 369.36 691.241L369.282 692.238ZM366.166 693.684C366.88 692.691 368.062 692.142 369.282 692.238L369.36 691.241C367.791 691.118 366.272 691.823 365.354 693.101L366.166 693.684ZM357.684 702.166C360.952 699.817 363.817 696.952 366.166 693.684L365.354 693.101C363.068 696.28 360.28 699.068 357.101 701.354L357.684 702.166ZM356.238 705.282C356.142 704.062 356.691 702.88 357.684 702.166L357.101 701.354C355.823 702.272 355.118 703.791 355.241 705.36L356.238 705.282ZM358.153 708.134C357.06 707.583 356.334 706.502 356.238 705.282L355.241 705.36C355.364 706.928 356.298 708.319 357.703 709.027L358.153 708.134ZM376.852 717.552L358.153 708.134L357.703 709.027L376.402 718.445L376.852 717.552ZM380.901 716.901C379.833 717.969 378.201 718.232 376.852 717.552L376.402 718.445C378.136 719.319 380.235 718.981 381.608 717.608L380.901 716.901ZM381.552 712.852C382.232 714.201 381.969 715.833 380.901 716.901L381.608 717.608C382.981 716.235 383.319 714.136 382.445 712.402L381.552 712.852ZM372.134 694.153L381.552 712.852L382.445 712.402L373.027 693.703L372.134 694.153ZM303.381 702.736L302.151 705.177L303.044 705.627L304.274 703.186L303.381 702.736ZM305.385 703.812C304.979 703.421 304.579 703.021 304.188 702.615L303.467 703.308C303.867 703.724 304.276 704.133 304.692 704.533L305.385 703.812ZM302.823 705.849L305.264 704.619L304.814 703.726L302.373 704.956L302.823 705.849ZM366.736 704.619L369.177 705.849L369.627 704.956L367.186 703.726L366.736 704.619ZM367.812 702.615C367.421 703.021 367.021 703.421 366.615 703.812L367.308 704.533C367.724 704.133 368.133 703.724 368.533 703.308L367.812 702.615ZM369.849 705.177L368.619 702.736L367.726 703.186L368.956 705.627L369.849 705.177ZM326.777 709.844C327.572 708.914 328.795 708.466 330.003 708.664L330.164 707.677C328.611 707.423 327.039 707.998 326.016 709.194L326.777 709.844ZM326.114 713.215C325.731 712.053 325.982 710.774 326.777 709.844L326.016 709.194C324.994 710.391 324.671 712.034 325.164 713.528L326.114 713.215ZM332.676 733.097L326.114 713.215L325.164 713.528L331.727 733.41L332.676 733.097ZM336 735.5C334.49 735.5 333.15 734.531 332.676 733.097L331.727 733.41C332.335 735.254 334.058 736.5 336 736.5V735.5ZM339.324 733.097C338.85 734.531 337.51 735.5 336 735.5V736.5C337.942 736.5 339.665 735.254 340.273 733.41L339.324 733.097ZM345.886 713.215L339.324 733.097L340.273 733.41L346.836 713.528L345.886 713.215ZM345.223 709.844C346.018 710.774 346.269 712.053 345.886 713.215L346.836 713.528C347.329 712.034 347.006 710.391 345.984 709.194L345.223 709.844ZM341.997 708.664C343.205 708.466 344.428 708.914 345.223 709.844L345.984 709.194C344.961 707.998 343.389 707.423 341.836 707.677L341.997 708.664ZM330.003 708.664C333.974 709.313 338.026 709.313 341.997 708.664L341.836 707.677C337.971 708.309 334.029 708.309 330.164 707.677L330.003 708.664ZM334.669 716.799L335.525 719.394L336.475 719.081L335.618 716.486L334.669 716.799ZM336.847 716.143C336.282 716.153 335.718 716.153 335.153 716.143L335.134 717.142C335.711 717.153 336.289 717.153 336.866 717.142L336.847 716.143ZM336.475 719.394L337.331 716.799L336.382 716.486L335.525 719.081L336.475 719.394ZM325.086 698.35C332.074 701.245 339.926 701.245 346.914 698.35L346.532 697.426C339.788 700.219 332.212 700.219 325.468 697.426L325.086 698.35ZM309.65 682.914C312.545 689.903 318.097 695.455 325.086 698.35L325.468 697.426C318.725 694.633 313.367 689.275 310.574 682.532L309.65 682.914ZM309.65 661.086C306.755 668.074 306.755 675.926 309.65 682.914L310.574 682.532C307.781 675.788 307.781 668.212 310.574 661.468L309.65 661.086ZM325.086 645.65C318.097 648.545 312.545 654.097 309.65 661.086L310.574 661.468C313.367 654.725 318.725 649.367 325.468 646.574L325.086 645.65ZM346.914 645.65C339.926 642.755 332.074 642.755 325.086 645.65L325.468 646.574C332.212 643.781 339.788 643.781 346.532 646.574L346.914 645.65ZM362.35 661.086C359.455 654.097 353.903 648.545 346.914 645.65L346.532 646.574C353.275 649.367 358.633 654.725 361.426 661.468L362.35 661.086ZM362.35 682.914C365.245 675.926 365.245 668.074 362.35 661.086L361.426 661.468C364.219 668.212 364.219 675.788 361.426 682.532L362.35 682.914ZM346.914 698.35C353.903 695.455 359.455 689.903 362.35 682.914L361.426 682.532C358.633 689.275 353.275 694.633 346.532 697.426L346.914 698.35ZM343.47 690.035C338.687 692.016 333.313 692.016 328.53 690.035L328.147 690.959C333.175 693.042 338.825 693.042 343.853 690.959L343.47 690.035ZM354.035 679.47C352.054 684.253 348.253 688.054 343.47 690.035L343.853 690.959C348.881 688.876 352.876 684.881 354.959 679.853L354.035 679.47ZM354.035 664.53C356.016 669.313 356.016 674.687 354.035 679.47L354.959 679.853C357.042 674.825 357.042 669.175 354.959 664.147L354.035 664.53ZM343.47 653.965C348.253 655.946 352.054 659.747 354.035 664.53L354.959 664.147C352.876 659.119 348.881 655.124 343.853 653.041L343.47 653.965ZM328.53 653.965C333.313 651.984 338.687 651.984 343.47 653.965L343.853 653.041C338.825 650.958 333.175 650.958 328.147 653.041L328.53 653.965ZM317.965 664.53C319.946 659.747 323.747 655.946 328.53 653.965L328.147 653.041C323.119 655.124 319.124 659.119 317.041 664.147L317.965 664.53ZM317.965 679.47C315.984 674.687 315.984 669.313 317.965 664.53L317.041 664.147C314.958 669.175 314.958 674.825 317.041 679.853L317.965 679.47ZM328.53 690.035C323.747 688.054 319.946 684.253 317.965 679.47L317.041 679.853C319.124 684.881 323.119 688.876 328.147 690.959L328.53 690.035Z" fill="currentColor"/>
<path fill-rule="evenodd" clip-rule="evenodd" d="M518.562 631.882L512 612L505.438 631.882C509.783 631.172 514.217 631.172 518.562 631.882ZM535.727 638.992C539.303 641.562 542.438 644.697 545.008 648.273L554.426 629.574L535.727 638.992ZM552.118 665.438C552.828 669.783 552.828 674.217 552.118 678.562L572 672L552.118 665.438ZM545.008 695.727C542.438 699.303 539.303 702.438 535.727 705.008L554.426 714.426L545.008 695.727ZM518.562 712.118C514.217 712.828 509.783 712.828 505.438 712.118L512 732L518.562 712.118ZM488.273 705.008C484.697 702.438 481.562 699.303 478.992 695.727L469.574 714.426L488.273 705.008ZM471.882 678.562C471.172 674.217 471.172 669.783 471.882 665.438L452 672L471.882 678.562ZM478.992 648.273C481.562 644.697 484.697 641.562 488.273 638.992L469.574 629.574L478.992 648.273Z" fill="currentColor"/>
<path d="M512 612L513.899 611.373C513.629 610.554 512.863 610 512 610C511.137 610 510.371 610.554 510.101 611.373L512 612ZM518.562 631.882L518.239 633.856C518.93 633.969 519.629 633.713 520.083 633.182C520.537 632.65 520.681 631.92 520.461 631.255L518.562 631.882ZM505.438 631.882L503.539 631.255C503.319 631.92 503.463 632.65 503.917 633.182C504.371 633.713 505.07 633.969 505.761 633.856L505.438 631.882ZM535.727 638.992L534.828 637.206C534.203 637.521 533.788 638.139 533.733 638.836C533.679 639.533 533.992 640.208 534.56 640.616L535.727 638.992ZM545.008 648.273L543.384 649.44C543.792 650.008 544.467 650.321 545.164 650.267C545.861 650.212 546.479 649.797 546.794 649.172L545.008 648.273ZM554.426 629.574L556.213 630.473C556.601 629.703 556.451 628.77 555.841 628.159C555.23 627.549 554.297 627.399 553.527 627.787L554.426 629.574ZM552.118 665.438L552.745 663.539C552.08 663.319 551.35 663.463 550.818 663.917C550.287 664.371 550.031 665.07 550.144 665.761L552.118 665.438ZM552.118 678.562L550.144 678.239C550.031 678.93 550.287 679.629 550.818 680.083C551.35 680.537 552.08 680.681 552.745 680.461L552.118 678.562ZM572 672L572.627 673.899C573.446 673.629 574 672.863 574 672C574 671.137 573.446 670.371 572.627 670.101L572 672ZM545.008 695.727L546.794 694.828C546.479 694.203 545.861 693.788 545.164 693.733C544.467 693.679 543.792 693.992 543.384 694.56L545.008 695.727ZM535.727 705.008L534.56 703.384C533.992 703.792 533.679 704.467 533.733 705.164C533.788 705.861 534.203 706.479 534.828 706.794L535.727 705.008ZM554.426 714.426L553.527 716.213C554.297 716.601 555.23 716.451 555.841 715.841C556.451 715.23 556.601 714.297 556.213 713.527L554.426 714.426ZM518.562 712.118L520.461 712.745C520.681 712.08 520.537 711.35 520.083 710.818C519.629 710.287 518.93 710.031 518.239 710.144L518.562 712.118ZM505.438 712.118L505.761 710.144C505.07 710.031 504.371 710.287 503.917 710.818C503.463 711.35 503.319 712.08 503.539 712.745L505.438 712.118ZM512 732L510.101 732.627C510.371 733.446 511.137 734 512 734C512.863 734 513.629 733.446 513.899 732.627L512 732ZM488.273 705.008L489.172 706.794C489.797 706.479 490.212 705.861 490.267 705.164C490.321 704.467 490.008 703.792 489.44 703.384L488.273 705.008ZM478.992 695.727L480.616 694.56C480.208 693.992 479.533 693.679 478.836 693.733C478.139 693.788 477.521 694.203 477.206 694.828L478.992 695.727ZM469.574 714.426L467.787 713.527C467.399 714.297 467.549 715.23 468.159 715.841C468.77 716.451 469.703 716.601 470.473 716.213L469.574 714.426ZM471.882 678.562L471.255 680.461C471.92 680.681 472.65 680.537 473.182 680.083C473.713 679.629 473.969 678.93 473.856 678.239L471.882 678.562ZM471.882 665.438L473.856 665.761C473.969 665.07 473.713 664.371 473.182 663.917C472.65 663.463 471.92 663.319 471.255 663.539L471.882 665.438ZM452 672L451.373 670.101C450.554 670.371 450 671.137 450 672C450 672.863 450.554 673.629 451.373 673.899L452 672ZM478.992 648.273L477.206 649.172C477.521 649.797 478.139 650.212 478.836 650.267C479.533 650.321 480.208 650.008 480.616 649.44L478.992 648.273ZM488.273 638.992L489.44 640.616C490.008 640.208 490.321 639.533 490.267 638.836C490.212 638.139 489.797 637.521 489.172 637.206L488.273 638.992ZM469.574 629.574L470.473 627.787C469.703 627.399 468.77 627.549 468.159 628.159C467.549 628.77 467.399 629.703 467.787 630.473L469.574 629.574ZM510.101 612.627L516.663 632.509L520.461 631.255L513.899 611.373L510.101 612.627ZM507.337 632.509L513.899 612.627L510.101 611.373L503.539 631.255L507.337 632.509ZM505.761 633.856C509.892 633.18 514.108 633.18 518.239 633.856L518.885 629.909C514.326 629.163 509.674 629.163 505.115 629.909L505.761 633.856ZM534.56 640.616C537.959 643.06 540.94 646.041 543.384 649.44L546.632 647.105C543.935 643.354 540.646 640.065 536.895 637.368L534.56 640.616ZM552.64 628.674L543.221 647.373L546.794 649.172L556.213 630.473L552.64 628.674ZM536.627 640.779L555.326 631.36L553.527 627.787L534.828 637.206L536.627 640.779ZM550.144 665.761C550.82 669.892 550.82 674.108 550.144 678.239L554.091 678.885C554.837 674.326 554.837 669.674 554.091 665.115L550.144 665.761ZM571.373 670.101L551.491 676.663L552.745 680.461L572.627 673.899L571.373 670.101ZM551.491 667.337L571.373 673.899L572.627 670.101L552.745 663.539L551.491 667.337ZM543.384 694.56C540.94 697.959 537.959 700.94 534.56 703.384L536.895 706.632C540.646 703.935 543.935 700.646 546.632 696.895L543.384 694.56ZM555.326 712.64L536.627 703.221L534.828 706.794L553.527 716.213L555.326 712.64ZM543.221 696.627L552.64 715.326L556.213 713.527L546.794 694.828L543.221 696.627ZM518.239 710.144C514.108 710.82 509.892 710.82 505.761 710.144L505.115 714.091C509.674 714.837 514.326 714.837 518.885 714.091L518.239 710.144ZM513.899 731.373L507.337 711.491L503.539 712.745L510.101 732.627L513.899 731.373ZM516.663 711.491L510.101 731.373L513.899 732.627L520.461 712.745L516.663 711.491ZM489.44 703.384C486.041 700.94 483.06 697.959 480.616 694.56L477.368 696.895C480.065 700.646 483.354 703.935 487.105 706.632L489.44 703.384ZM471.36 715.326L480.779 696.627L477.206 694.828L467.787 713.527L471.36 715.326ZM487.373 703.221L468.674 712.64L470.473 716.213L489.172 706.794L487.373 703.221ZM473.856 678.239C473.18 674.108 473.18 669.892 473.856 665.761L469.909 665.115C469.163 669.674 469.163 674.326 469.909 678.885L473.856 678.239ZM452.627 673.899L472.509 667.337L471.255 663.539L451.373 670.101L452.627 673.899ZM472.509 676.663L452.627 670.101L451.373 673.899L471.255 680.461L472.509 676.663ZM480.616 649.44C483.06 646.041 486.041 643.06 489.44 640.616L487.105 637.368C483.354 640.065 480.065 643.354 477.368 647.105L480.616 649.44ZM468.674 631.36L487.373 640.779L489.172 637.206L470.473 627.787L468.674 631.36ZM480.779 647.373L471.36 628.674L467.787 630.473L477.206 649.172L480.779 647.373Z" fill="currentColor"/>
<path d="M502.808 694.192C508.693 696.63 515.307 696.63 521.192 694.192C527.078 691.754 531.754 687.078 534.192 681.192C536.63 675.307 536.63 668.693 534.192 662.808C531.754 656.922 527.078 652.246 521.192 649.808C515.307 647.37 508.693 647.37 502.808 649.808C496.922 652.246 492.246 656.922 489.808 662.808C487.37 668.693 487.37 675.307 489.808 681.192C492.246 687.078 496.922 691.754 502.808 694.192Z" fill="currentColor" stroke="currentColor" stroke-width="4" stroke-linecap="round" stroke-linejoin="round"/>
<g opacity="0.25">
<path fill-rule="evenodd" clip-rule="evenodd" d="M694.562 631.882L688 612L681.438 631.882C685.783 631.172 690.217 631.172 694.562 631.882ZM711.727 638.992C715.303 641.562 718.438 644.697 721.008 648.273L730.426 629.574L711.727 638.992ZM728.118 665.438C728.828 669.783 728.828 674.217 728.118 678.562L748 672L728.118 665.438ZM721.008 695.727C718.438 699.303 715.303 702.438 711.727 705.008L730.426 714.426L721.008 695.727ZM694.562 712.118C690.217 712.828 685.783 712.828 681.438 712.118L688 732L694.562 712.118ZM664.273 705.008C660.697 702.438 657.562 699.303 654.992 695.727L645.574 714.426L664.273 705.008ZM647.882 678.562C647.172 674.217 647.172 669.783 647.882 665.438L628 672L647.882 678.562ZM654.992 648.273C657.562 644.697 660.697 641.562 664.273 638.992L645.574 629.574L654.992 648.273Z" fill="currentColor"/>
<path d="M688 612L689.899 611.373C689.629 610.554 688.863 610 688 610C687.137 610 686.371 610.554 686.101 611.373L688 612ZM694.562 631.882L694.239 633.856C694.93 633.969 695.629 633.713 696.083 633.182C696.537 632.65 696.681 631.92 696.461 631.255L694.562 631.882ZM681.438 631.882L679.539 631.255C679.319 631.92 679.463 632.65 679.917 633.182C680.371 633.713 681.07 633.969 681.761 633.856L681.438 631.882ZM711.727 638.992L710.828 637.206C710.203 637.521 709.788 638.139 709.733 638.836C709.679 639.533 709.992 640.208 710.56 640.616L711.727 638.992ZM721.008 648.273L719.384 649.44C719.792 650.008 720.467 650.321 721.164 650.267C721.861 650.212 722.479 649.797 722.794 649.172L721.008 648.273ZM730.426 629.574L732.213 630.473C732.601 629.703 732.451 628.77 731.841 628.159C731.23 627.549 730.297 627.399 729.527 627.787L730.426 629.574ZM728.118 665.438L728.745 663.539C728.08 663.319 727.35 663.463 726.818 663.917C726.287 664.371 726.031 665.07 726.144 665.761L728.118 665.438ZM728.118 678.562L726.144 678.239C726.031 678.93 726.287 679.629 726.818 680.083C727.35 680.537 728.08 680.681 728.745 680.461L728.118 678.562ZM748 672L748.627 673.899C749.446 673.629 750 672.863 750 672C750 671.137 749.446 670.371 748.627 670.101L748 672ZM721.008 695.727L722.794 694.828C722.479 694.203 721.861 693.788 721.164 693.733C720.467 693.679 719.792 693.992 719.384 694.56L721.008 695.727ZM711.727 705.008L710.56 703.384C709.992 703.792 709.679 704.467 709.733 705.164C709.788 705.861 710.203 706.479 710.828 706.794L711.727 705.008ZM730.426 714.426L729.527 716.213C730.297 716.601 731.23 716.451 731.841 715.841C732.451 715.23 732.601 714.297 732.213 713.527L730.426 714.426ZM694.562 712.118L696.461 712.745C696.681 712.08 696.537 711.35 696.083 710.818C695.629 710.287 694.93 710.031 694.239 710.144L694.562 712.118ZM681.438 712.118L681.761 710.144C681.07 710.031 680.371 710.287 679.917 710.818C679.463 711.35 679.319 712.08 679.539 712.745L681.438 712.118ZM688 732L686.101 732.627C686.371 733.446 687.137 734 688 734C688.863 734 689.629 733.446 689.899 732.627L688 732ZM664.273 705.008L665.172 706.794C665.797 706.479 666.212 705.861 666.267 705.164C666.321 704.467 666.008 703.792 665.44 703.384L664.273 705.008ZM654.992 695.727L656.616 694.56C656.208 693.992 655.533 693.679 654.836 693.733C654.139 693.788 653.521 694.203 653.206 694.828L654.992 695.727ZM645.574 714.426L643.787 713.527C643.399 714.297 643.549 715.23 644.159 715.841C644.77 716.451 645.703 716.601 646.473 716.213L645.574 714.426ZM647.882 678.562L647.255 680.461C647.92 680.681 648.65 680.537 649.182 680.083C649.713 679.629 649.969 678.93 649.856 678.239L647.882 678.562ZM647.882 665.438L649.856 665.761C649.969 665.07 649.713 664.371 649.182 663.917C648.65 663.463 647.92 663.319 647.255 663.539L647.882 665.438ZM628 672L627.373 670.101C626.554 670.371 626 671.137 626 672C626 672.863 626.554 673.629 627.373 673.899L628 672ZM654.992 648.273L653.206 649.172C653.521 649.797 654.139 650.212 654.836 650.267C655.533 650.321 656.208 650.008 656.616 649.44L654.992 648.273ZM664.273 638.992L665.44 640.616C666.008 640.208 666.321 639.533 666.267 638.836C666.212 638.139 665.797 637.521 665.172 637.206L664.273 638.992ZM645.574 629.574L646.473 627.787C645.703 627.399 644.77 627.549 644.159 628.159C643.549 628.77 643.399 629.703 643.787 630.473L645.574 629.574ZM686.101 612.627L692.663 632.509L696.461 631.255L689.899 611.373L686.101 612.627ZM683.337 632.509L689.899 612.627L686.101 611.373L679.539 631.255L683.337 632.509ZM681.761 633.856C685.892 633.18 690.108 633.18 694.239 633.856L694.885 629.909C690.326 629.163 685.674 629.163 681.115 629.909L681.761 633.856ZM710.56 640.616C713.959 643.06 716.94 646.041 719.384 649.44L722.632 647.105C719.935 643.354 716.646 640.065 712.895 637.368L710.56 640.616ZM728.64 628.674L719.221 647.373L722.794 649.172L732.213 630.473L728.64 628.674ZM712.627 640.779L731.326 631.36L729.527 627.787L710.828 637.206L712.627 640.779ZM726.144 665.761C726.82 669.892 726.82 674.108 726.144 678.239L730.091 678.885C730.837 674.326 730.837 669.674 730.091 665.115L726.144 665.761ZM747.373 670.101L727.491 676.663L728.745 680.461L748.627 673.899L747.373 670.101ZM727.491 667.337L747.373 673.899L748.627 670.101L728.745 663.539L727.491 667.337ZM719.384 694.56C716.94 697.959 713.959 700.94 710.56 703.384L712.895 706.632C716.646 703.935 719.935 700.646 722.632 696.895L719.384 694.56ZM731.326 712.64L712.627 703.221L710.828 706.794L729.527 716.213L731.326 712.64ZM719.221 696.627L728.64 715.326L732.213 713.527L722.794 694.828L719.221 696.627ZM694.239 710.144C690.108 710.82 685.892 710.82 681.761 710.144L681.115 714.091C685.674 714.837 690.326 714.837 694.885 714.091L694.239 710.144ZM689.899 731.373L683.337 711.491L679.539 712.745L686.101 732.627L689.899 731.373ZM692.663 711.491L686.101 731.373L689.899 732.627L696.461 712.745L692.663 711.491ZM665.44 703.384C662.041 700.94 659.06 697.959 656.616 694.56L653.368 696.895C656.065 700.646 659.354 703.935 663.105 706.632L665.44 703.384ZM647.36 715.326L656.779 696.627L653.206 694.828L643.787 713.527L647.36 715.326ZM663.373 703.221L644.674 712.64L646.473 716.213L665.172 706.794L663.373 703.221ZM649.856 678.239C649.18 674.108 649.18 669.892 649.856 665.761L645.909 665.115C645.163 669.674 645.163 674.326 645.909 678.885L649.856 678.239ZM628.627 673.899L648.509 667.337L647.255 663.539L627.373 670.101L628.627 673.899ZM648.509 676.663L628.627 670.101L627.373 673.899L647.255 680.461L648.509 676.663ZM656.616 649.44C659.06 646.041 662.041 643.06 665.44 640.616L663.105 637.368C659.354 640.065 656.065 643.354 653.368 647.105L656.616 649.44ZM644.674 631.36L663.373 640.779L665.172 637.206L646.473 627.787L644.674 631.36ZM656.779 647.373L647.36 628.674L643.787 630.473L653.206 649.172L656.779 647.373Z" fill="currentColor"/>
</g>
<path d="M678.808 694.192C684.693 696.63 691.307 696.63 697.192 694.192C703.078 691.754 707.754 687.078 710.192 681.192C712.63 675.307 712.63 668.693 710.192 662.808C707.754 656.922 703.078 652.246 697.192 649.808C691.307 647.37 684.693 647.37 678.808 649.808C672.922 652.246 668.246 656.922 665.808 662.808C663.37 668.693 663.37 675.307 665.808 681.192C668.246 687.078 672.922 691.754 678.808 694.192Z" fill="currentColor" stroke="currentColor" stroke-width="4" stroke-linecap="round" stroke-linejoin="round"/>
<path fill-rule="evenodd" clip-rule="evenodd" d="M870.562 631.882L864 612L857.438 631.882C861.783 631.172 866.217 631.172 870.562 631.882ZM887.727 638.992C891.303 641.562 894.438 644.697 897.008 648.273L906.426 629.574L887.727 638.992ZM904.118 665.438C904.828 669.783 904.828 674.217 904.118 678.562L924 672L904.118 665.438ZM897.008 695.727C894.438 699.303 891.303 702.438 887.727 705.008L906.426 714.426L897.008 695.727ZM870.562 712.118C866.217 712.828 861.783 712.828 857.438 712.118L864 732L870.562 712.118ZM840.273 705.008C836.697 702.438 833.562 699.303 830.992 695.727L821.574 714.426L840.273 705.008ZM823.882 678.562C823.172 674.217 823.172 669.783 823.882 665.438L804 672L823.882 678.562ZM830.992 648.273C833.562 644.697 836.697 641.562 840.273 638.992L821.574 629.574L830.992 648.273Z" fill="#FFA500"/>
<path d="M864 612L865.899 611.373C865.629 610.554 864.863 610 864 610C863.137 610 862.371 610.554 862.101 611.373L864 612ZM870.562 631.882L870.239 633.856C870.93 633.969 871.629 633.713 872.083 633.182C872.537 632.65 872.681 631.92 872.461 631.255L870.562 631.882ZM857.438 631.882L855.539 631.255C855.319 631.92 855.463 632.65 855.917 633.182C856.371 633.713 857.07 633.969 857.761 633.856L857.438 631.882ZM887.727 638.992L886.828 637.206C886.203 637.521 885.788 638.139 885.733 638.836C885.679 639.533 885.992 640.208 886.56 640.616L887.727 638.992ZM897.008 648.273L895.384 649.44C895.792 650.008 896.467 650.321 897.164 650.267C897.861 650.212 898.479 649.797 898.794 649.172L897.008 648.273ZM906.426 629.574L908.213 630.473C908.601 629.703 908.451 628.77 907.841 628.159C907.23 627.549 906.297 627.399 905.527 627.787L906.426 629.574ZM904.118 665.438L904.745 663.539C904.08 663.319 903.35 663.463 902.818 663.917C902.287 664.371 902.031 665.07 902.144 665.761L904.118 665.438ZM904.118 678.562L902.144 678.239C902.031 678.93 902.287 679.629 902.818 680.083C903.35 680.537 904.08 680.681 904.745 680.461L904.118 678.562ZM924 672L924.627 673.899C925.446 673.629 926 672.863 926 672C926 671.137 925.446 670.371 924.627 670.101L924 672ZM897.008 695.727L898.794 694.828C898.479 694.203 897.861 693.788 897.164 693.733C896.467 693.679 895.792 693.992 895.384 694.56L897.008 695.727ZM887.727 705.008L886.56 703.384C885.992 703.792 885.679 704.467 885.733 705.164C885.788 705.861 886.203 706.479 886.828 706.794L887.727 705.008ZM906.426 714.426L905.527 716.213C906.297 716.601 907.23 716.451 907.841 715.841C908.451 715.23 908.601 714.297 908.213 713.527L906.426 714.426ZM870.562 712.118L872.461 712.745C872.681 712.08 872.537 711.35 872.083 710.818C871.629 710.287 870.93 710.031 870.239 710.144L870.562 712.118ZM857.438 712.118L857.761 710.144C857.07 710.031 856.371 710.287 855.917 710.818C855.463 711.35 855.319 712.08 855.539 712.745L857.438 712.118ZM864 732L862.101 732.627C862.371 733.446 863.137 734 864 734C864.863 734 865.629 733.446 865.899 732.627L864 732ZM840.273 705.008L841.172 706.794C841.797 706.479 842.212 705.861 842.267 705.164C842.321 704.467 842.008 703.792 841.44 703.384L840.273 705.008ZM830.992 695.727L832.616 694.56C832.208 693.992 831.533 693.679 830.836 693.733C830.139 693.788 829.521 694.203 829.206 694.828L830.992 695.727ZM821.574 714.426L819.787 713.527C819.399 714.297 819.549 715.23 820.159 715.841C820.77 716.451 821.703 716.601 822.473 716.213L821.574 714.426ZM823.882 678.562L823.255 680.461C823.92 680.681 824.65 680.537 825.182 680.083C825.713 679.629 825.969 678.93 825.856 678.239L823.882 678.562ZM823.882 665.438L825.856 665.761C825.969 665.07 825.713 664.371 825.182 663.917C824.65 663.463 823.92 663.319 823.255 663.539L823.882 665.438ZM804 672L803.373 670.101C802.554 670.371 802 671.137 802 672C802 672.863 802.554 673.629 803.373 673.899L804 672ZM830.992 648.273L829.206 649.172C829.521 649.797 830.139 650.212 830.836 650.267C831.533 650.321 832.208 650.008 832.616 649.44L830.992 648.273ZM840.273 638.992L841.44 640.616C842.008 640.208 842.321 639.533 842.267 638.836C842.212 638.139 841.797 637.521 841.172 637.206L840.273 638.992ZM821.574 629.574L822.473 627.787C821.703 627.399 820.77 627.549 820.159 628.159C819.549 628.77 819.399 629.703 819.787 630.473L821.574 629.574ZM862.101 612.627L868.663 632.509L872.461 631.255L865.899 611.373L862.101 612.627ZM859.337 632.509L865.899 612.627L862.101 611.373L855.539 631.255L859.337 632.509ZM857.761 633.856C861.892 633.18 866.108 633.18 870.239 633.856L870.885 629.909C866.326 629.163 861.674 629.163 857.115 629.909L857.761 633.856ZM886.56 640.616C889.959 643.06 892.94 646.041 895.384 649.44L898.632 647.105C895.935 643.354 892.646 640.065 888.895 637.368L886.56 640.616ZM904.64 628.674L895.221 647.373L898.794 649.172L908.213 630.473L904.64 628.674ZM888.627 640.779L907.326 631.36L905.527 627.787L886.828 637.206L888.627 640.779ZM902.144 665.761C902.82 669.892 902.82 674.108 902.144 678.239L906.091 678.885C906.837 674.326 906.837 669.674 906.091 665.115L902.144 665.761ZM923.373 670.101L903.491 676.663L904.745 680.461L924.627 673.899L923.373 670.101ZM903.491 667.337L923.373 673.899L924.627 670.101L904.745 663.539L903.491 667.337ZM895.384 694.56C892.94 697.959 889.959 700.94 886.56 703.384L888.895 706.632C892.646 703.935 895.935 700.646 898.632 696.895L895.384 694.56ZM907.326 712.64L888.627 703.221L886.828 706.794L905.527 716.213L907.326 712.64ZM895.221 696.627L904.64 715.326L908.213 713.527L898.794 694.828L895.221 696.627ZM870.239 710.144C866.108 710.82 861.892 710.82 857.761 710.144L857.115 714.091C861.674 714.837 866.326 714.837 870.885 714.091L870.239 710.144ZM865.899 731.373L859.337 711.491L855.539 712.745L862.101 732.627L865.899 731.373ZM868.663 711.491L862.101 731.373L865.899 732.627L872.461 712.745L868.663 711.491ZM841.44 703.384C838.041 700.94 835.06 697.959 832.616 694.56L829.368 696.895C832.065 700.646 835.354 703.935 839.105 706.632L841.44 703.384ZM823.36 715.326L832.779 696.627L829.206 694.828L819.787 713.527L823.36 715.326ZM839.373 703.221L820.674 712.64L822.473 716.213L841.172 706.794L839.373 703.221ZM825.856 678.239C825.18 674.108 825.18 669.892 825.856 665.761L821.909 665.115C821.163 669.674 821.163 674.326 821.909 678.885L825.856 678.239ZM804.627 673.899L824.509 667.337L823.255 663.539L803.373 670.101L804.627 673.899ZM824.509 676.663L804.627 670.101L803.373 673.899L823.255 680.461L824.509 676.663ZM832.616 649.44C835.06 646.041 838.041 643.06 841.44 640.616L839.105 637.368C835.354 640.065 832.065 643.354 829.368 647.105L832.616 649.44ZM820.674 631.36L839.373 640.779L841.172 637.206L822.473 627.787L820.674 631.36ZM832.779 647.373L823.36 628.674L819.787 630.473L829.206 649.172L832.779 647.373Z" fill="#FFA500"/>
<path d="M854.808 694.192C860.693 696.63 867.307 696.63 873.192 694.192C879.078 691.754 883.754 687.078 886.192 681.192C888.63 675.307 888.63 668.693 886.192 662.808C883.754 656.922 879.078 652.246 873.192 649.808C867.307 647.37 860.693 647.37 854.808 649.808C848.922 652.246 844.246 656.922 841.808 662.808C839.37 668.693 839.37 675.307 841.808 681.192C844.246 687.078 848.922 691.754 854.808 694.192Z" fill="#FFD700" stroke="#FFD700" stroke-width="4" stroke-linecap="round" stroke-linejoin="round"/>
</svg>
