<svg viewBox="0 0 1024 768" fill="none" xmlns="http://www.w3.org/2000/svg">
<path d="M424 36L427.674 87.1308L466.426 53.5736L432.869 92.3262L484 96L432.869 99.6738L466.426 138.426L427.674 104.869L424 156L420.326 104.869L381.574 138.426L415.131 99.6738L364 96L415.131 92.3262L381.574 53.5736L420.326 87.1308L424 36Z" stroke="#7B61FF" stroke-width="2" stroke-linecap="round" stroke-linejoin="round"/>
<path d="M578.787 147.213C592.369 152.839 607.631 152.839 621.213 147.213V147.213C634.796 141.587 645.587 130.796 651.213 117.213V117.213C656.839 103.631 656.839 88.3694 651.213 74.7868V74.7868C645.587 61.2042 634.796 50.4129 621.213 44.7868V44.7868C607.631 39.1607 592.369 39.1607 578.787 44.7868V44.7868C565.204 50.4129 554.413 61.2042 548.787 74.7868V74.7868C543.161 88.3694 543.161 103.631 548.787 117.213V117.213C554.413 130.796 565.204 141.587 578.787 147.213V147.213Z" stroke="#7B61FF" stroke-width="2" stroke-linecap="round" stroke-linejoin="round"/>
<path fill-rule="evenodd" clip-rule="evenodd" d="M515.48 282.433L512 234L508.52 282.433C510.839 282.353 513.161 282.353 515.48 282.433ZM581.358 309.72C583.054 311.304 584.696 312.946 586.28 314.642L618.066 277.934L581.358 309.72ZM613.567 380.52C613.647 382.839 613.647 385.161 613.567 387.48L662 384L613.567 380.52ZM586.28 453.358C584.696 455.054 583.054 456.696 581.358 458.28L618.066 490.066L586.28 453.358ZM515.48 485.567C513.161 485.647 510.839 485.647 508.52 485.567L512 534L515.48 485.567ZM442.642 458.28C440.946 456.696 439.304 455.054 437.721 453.358L405.934 490.066L442.642 458.28ZM410.433 387.48C410.353 385.161 410.353 382.839 410.433 380.52L362 384L410.433 387.48ZM437.721 314.642C439.304 312.946 440.946 311.304 442.642 309.72L405.934 277.934L437.721 314.642Z" fill="#888888" fill-opacity="0.5"/>
<path d="M512 234L516.987 233.642C516.799 231.026 514.622 229 512 229C509.378 229 507.201 231.026 507.013 233.642L512 234ZM515.48 282.433L515.309 287.43C516.726 287.478 518.097 286.923 519.081 285.901C520.065 284.88 520.569 283.489 520.467 282.074L515.48 282.433ZM508.52 282.433L503.533 282.074C503.431 283.489 503.935 284.88 504.919 285.901C505.903 286.923 507.274 287.478 508.691 287.43L508.52 282.433ZM581.358 309.72L578.085 305.941C577.013 306.869 576.386 308.209 576.359 309.627C576.332 311.045 576.909 312.407 577.946 313.375L581.358 309.72ZM586.28 314.642L582.625 318.054C583.593 319.091 584.955 319.668 586.373 319.641C587.791 319.614 589.131 318.987 590.059 317.915L586.28 314.642ZM618.066 277.934L621.846 281.207C623.562 279.225 623.456 276.253 621.602 274.398C619.747 272.544 616.775 272.438 614.793 274.154L618.066 277.934ZM613.567 380.52L613.926 375.533C612.511 375.431 611.12 375.935 610.099 376.919C609.077 377.903 608.522 379.274 608.57 380.691L613.567 380.52ZM613.567 387.48L608.57 387.309C608.522 388.726 609.077 390.097 610.099 391.081C611.12 392.065 612.511 392.569 613.926 392.467L613.567 387.48ZM662 384L662.358 388.987C664.974 388.799 667 386.622 667 384C667 381.378 664.974 379.201 662.358 379.013L662 384ZM586.28 453.358L590.059 450.085C589.131 449.013 587.791 448.386 586.373 448.359C584.955 448.332 583.593 448.909 582.625 449.946L586.28 453.358ZM581.358 458.28L577.946 454.625C576.909 455.593 576.332 456.955 576.359 458.373C576.386 459.791 577.013 461.131 578.085 462.059L581.358 458.28ZM618.066 490.066L614.793 493.846C616.775 495.562 619.747 495.456 621.602 493.602C623.456 491.747 623.562 488.775 621.846 486.793L618.066 490.066ZM515.48 485.567L520.467 485.926C520.569 484.511 520.065 483.12 519.081 482.099C518.097 481.077 516.726 480.522 515.309 480.57L515.48 485.567ZM508.52 485.567L508.691 480.57C507.274 480.522 505.903 481.077 504.919 482.099C503.935 483.12 503.431 484.511 503.533 485.926L508.52 485.567ZM512 534L507.013 534.358C507.201 536.974 509.378 539 512 539C514.622 539 516.799 536.974 516.987 534.358L512 534ZM442.642 458.28L445.915 462.059C446.987 461.131 447.614 459.791 447.641 458.373C447.668 456.955 447.091 455.593 446.054 454.625L442.642 458.28ZM437.721 453.358L441.375 449.946C440.407 448.909 439.045 448.332 437.627 448.359C436.209 448.386 434.869 449.013 433.941 450.085L437.721 453.358ZM405.934 490.066L402.154 486.793C400.438 488.775 400.544 491.747 402.398 493.602C404.253 495.456 407.225 495.562 409.207 493.846L405.934 490.066ZM410.433 387.48L410.075 392.467C411.489 392.569 412.88 392.065 413.901 391.081C414.923 390.097 415.478 388.726 415.43 387.309L410.433 387.48ZM410.433 380.52L415.43 380.691C415.478 379.274 414.923 377.903 413.901 376.919C412.88 375.935 411.489 375.431 410.075 375.533L410.433 380.52ZM362 384L361.642 379.013C359.026 379.201 357 381.378 357 384C357 386.622 359.026 388.799 361.642 388.987L362 384ZM437.721 314.642L433.941 317.915C434.869 318.987 436.209 319.614 437.627 319.641C439.045 319.668 440.407 319.091 441.375 318.054L437.721 314.642ZM442.642 309.72L446.054 313.375C447.091 312.407 447.668 311.045 447.641 309.627C447.614 308.209 446.987 306.869 445.915 305.941L442.642 309.72ZM405.934 277.934L409.207 274.154C407.225 272.438 404.253 272.544 402.398 274.398C400.544 276.253 400.438 279.225 402.154 281.207L405.934 277.934ZM507.013 234.358L510.493 282.791L520.467 282.074L516.987 233.642L507.013 234.358ZM513.507 282.791L516.987 234.358L507.013 233.642L503.533 282.074L513.507 282.791ZM508.691 287.43C510.896 287.354 513.104 287.354 515.309 287.43L515.651 277.436C513.218 277.352 510.782 277.352 508.349 277.436L508.691 287.43ZM577.946 313.375C579.558 314.881 581.119 316.442 582.625 318.054L589.934 311.229C588.272 309.45 586.55 307.728 584.771 306.066L577.946 313.375ZM614.286 274.661L582.5 311.369L590.059 317.915L621.846 281.207L614.286 274.661ZM584.631 313.5L621.339 281.714L614.793 274.154L578.085 305.941L584.631 313.5ZM608.57 380.691C608.646 382.896 608.646 385.104 608.57 387.309L618.564 387.651C618.648 385.218 618.648 382.782 618.564 380.349L608.57 380.691ZM661.642 379.013L613.209 382.493L613.926 392.467L662.358 388.987L661.642 379.013ZM613.209 385.507L661.642 388.987L662.358 379.013L613.926 375.533L613.209 385.507ZM582.625 449.946C581.119 451.558 579.558 453.119 577.946 454.625L584.771 461.934C586.55 460.272 588.272 458.55 589.934 456.771L582.625 449.946ZM621.339 486.286L584.631 454.5L578.085 462.059L614.793 493.846L621.339 486.286ZM582.5 456.631L614.286 493.339L621.846 486.793L590.059 450.085L582.5 456.631ZM515.309 480.57C513.104 480.646 510.896 480.646 508.691 480.57L508.349 490.564C510.782 490.648 513.218 490.648 515.651 490.564L515.309 480.57ZM516.987 533.642L513.507 485.209L503.533 485.926L507.013 534.358L516.987 533.642ZM510.493 485.209L507.013 533.642L516.987 534.358L520.467 485.926L510.493 485.209ZM446.054 454.625C444.442 453.119 442.881 451.558 441.375 449.946L434.066 456.771C435.728 458.55 437.45 460.272 439.229 461.934L446.054 454.625ZM409.714 493.339L441.5 456.631L433.941 450.085L402.154 486.793L409.714 493.339ZM439.369 454.5L402.661 486.286L409.207 493.846L445.915 462.059L439.369 454.5ZM415.43 387.309C415.354 385.104 415.354 382.896 415.43 380.691L405.436 380.349C405.352 382.782 405.352 385.218 405.436 387.651L415.43 387.309ZM362.358 388.987L410.791 385.507L410.075 375.533L361.642 379.013L362.358 388.987ZM410.791 382.493L362.358 379.013L361.642 388.987L410.075 392.467L410.791 382.493ZM441.375 318.054C442.881 316.442 444.442 314.881 446.054 313.375L439.229 306.066C437.45 307.728 435.728 309.45 434.066 311.229L441.375 318.054ZM402.661 281.714L439.369 313.5L445.915 305.941L409.207 274.154L402.661 281.714ZM441.5 311.369L409.714 274.661L402.154 281.207L433.941 317.915L441.5 311.369Z" fill="currentColor"/>
<path d="M489.019 439.481C503.734 445.576 520.267 445.576 534.981 439.481C549.695 433.386 561.386 421.695 567.481 406.981C573.576 392.266 573.576 375.733 567.481 361.019C561.386 346.305 549.695 334.614 534.981 328.519C520.267 322.424 503.734 322.424 489.019 328.519C474.305 334.614 462.614 346.305 456.519 361.019C450.424 375.733 450.424 392.266 456.519 406.981C462.614 421.695 474.305 433.386 489.019 439.481Z" fill="#888888" fill-opacity="0.5" stroke="currentColor" stroke-width="10" stroke-linecap="round" stroke-linejoin="round"/>
<g opacity="0.25">
<path d="M512 234L521.184 361.827L618.066 277.934L534.173 374.816L662 384L534.173 393.184L618.066 490.066L521.184 406.173L512 534L502.816 406.173L405.934 490.066L489.827 393.184L362 384L489.827 374.816L405.934 277.934L502.816 361.827L512 234Z" stroke="currentColor" stroke-width="2.5" stroke-linecap="round" stroke-linejoin="round"/>
<path d="M550.891 477.891C525.989 488.205 498.011 488.205 473.109 477.891V477.891C448.208 467.576 428.424 447.792 418.109 422.891V422.891C407.795 397.989 407.795 370.011 418.109 345.109V345.109C428.424 320.208 448.208 300.424 473.109 290.109V290.109C498.011 279.795 525.989 279.795 550.891 290.109V290.109C575.792 300.424 595.576 320.208 605.891 345.109V345.109C616.205 370.011 616.205 397.989 605.891 422.891V422.891C595.576 447.792 575.792 467.576 550.891 477.891V477.891Z" stroke="currentColor" stroke-width="2.5" stroke-linecap="round" stroke-linejoin="round"/>
<path d="M489.019 439.481C503.734 445.576 520.267 445.576 534.981 439.481V439.481C549.695 433.386 561.386 421.695 567.481 406.981V406.981C573.576 392.266 573.576 375.733 567.481 361.019V361.019C561.386 346.305 549.695 334.614 534.981 328.519V328.519C520.267 322.424 503.734 322.424 489.019 328.519V328.519C474.305 334.614 462.614 346.305 456.519 361.019V361.019C450.424 375.733 450.424 392.266 456.519 406.981V406.981C462.614 421.695 474.305 433.386 489.019 439.481V439.481Z" stroke="currentColor" stroke-width="2.5" stroke-linecap="round" stroke-linejoin="round"/>
</g>
<path d="M160 612L160.997 611.928C160.96 611.405 160.524 611 160 611C159.476 611 159.04 611.405 159.003 611.928L160 612ZM161.392 631.373L161.358 632.373C161.641 632.382 161.915 632.271 162.112 632.067C162.309 631.863 162.41 631.584 162.389 631.301L161.392 631.373ZM158.608 631.373L157.611 631.301C157.59 631.584 157.691 631.863 157.888 632.067C158.085 632.271 158.359 632.382 158.642 632.373L158.608 631.373ZM187.743 642.288L187.089 641.532C186.874 641.718 186.749 641.986 186.743 642.269C186.738 642.553 186.853 642.826 187.061 643.019L187.743 642.288ZM189.712 644.257L188.981 644.939C189.174 645.147 189.447 645.262 189.731 645.257C190.014 645.251 190.282 645.126 190.468 644.911L189.712 644.257ZM202.426 629.574L203.182 630.228C203.526 629.832 203.504 629.237 203.134 628.866C202.763 628.496 202.168 628.474 201.772 628.818L202.426 629.574ZM200.627 670.608L200.699 669.611C200.416 669.59 200.137 669.691 199.933 669.888C199.729 670.085 199.618 670.359 199.627 670.642L200.627 670.608ZM200.627 673.392L199.627 673.358C199.618 673.641 199.729 673.915 199.933 674.112C200.137 674.309 200.416 674.41 200.699 674.389L200.627 673.392ZM220 672L220.072 672.997C220.595 672.96 221 672.524 221 672C221 671.476 220.595 671.04 220.072 671.003L220 672ZM189.712 699.743L190.468 699.089C190.282 698.874 190.014 698.749 189.731 698.743C189.447 698.738 189.174 698.853 188.981 699.061L189.712 699.743ZM187.743 701.712L187.061 700.981C186.853 701.174 186.738 701.447 186.743 701.731C186.749 702.014 186.874 702.282 187.089 702.468L187.743 701.712ZM202.426 714.426L201.772 715.182C202.168 715.526 202.763 715.504 203.134 715.134C203.504 714.763 203.526 714.168 203.182 713.772L202.426 714.426ZM161.392 712.627L162.389 712.699C162.41 712.416 162.309 712.137 162.112 711.933C161.915 711.729 161.641 711.618 161.358 711.627L161.392 712.627ZM158.608 712.627L158.642 711.627C158.359 711.618 158.085 711.729 157.888 711.933C157.691 712.137 157.59 712.416 157.611 712.699L158.608 712.627ZM160 732L159.003 732.072C159.04 732.595 159.476 733 160 733C160.524 733 160.96 732.595 160.997 732.072L160 732ZM132.257 701.712L132.911 702.468C133.126 702.282 133.251 702.014 133.257 701.731C133.262 701.447 133.147 701.174 132.939 700.981L132.257 701.712ZM130.288 699.743L131.019 699.061C130.826 698.853 130.553 698.738 130.269 698.743C129.986 698.749 129.718 698.874 129.532 699.089L130.288 699.743ZM117.574 714.426L116.818 713.772C116.474 714.168 116.496 714.763 116.866 715.134C117.237 715.504 117.832 715.526 118.228 715.182L117.574 714.426ZM119.373 673.392L119.301 674.389C119.584 674.41 119.863 674.309 120.067 674.112C120.271 673.915 120.382 673.641 120.373 673.358L119.373 673.392ZM119.373 670.608L120.373 670.642C120.382 670.359 120.271 670.085 120.067 669.888C119.863 669.691 119.584 669.59 119.301 669.611L119.373 670.608ZM100 672L99.9283 671.003C99.4052 671.04 99 671.476 99 672C99 672.524 99.4052 672.96 99.9283 672.997L100 672ZM130.288 644.257L129.532 644.911C129.718 645.126 129.986 645.251 130.269 645.257C130.553 645.262 130.826 645.147 131.019 644.939L130.288 644.257ZM132.257 642.288L132.939 643.019C133.147 642.826 133.262 642.553 133.257 642.269C133.251 641.986 133.126 641.718 132.911 641.532L132.257 642.288ZM117.574 629.574L118.228 628.818C117.832 628.474 117.237 628.496 116.866 628.866C116.496 629.237 116.474 629.832 116.818 630.228L117.574 629.574ZM159.003 612.072L160.395 631.445L162.389 631.301L160.997 611.928L159.003 612.072ZM159.605 631.445L160.997 612.072L159.003 611.928L157.611 631.301L159.605 631.445ZM158.642 632.373C159.547 632.342 160.453 632.342 161.358 632.373L161.426 630.374C160.476 630.341 159.524 630.341 158.574 630.374L158.642 632.373ZM187.061 643.019C187.723 643.637 188.363 644.277 188.981 644.939L190.443 643.574C189.794 642.879 189.121 642.206 188.426 641.557L187.061 643.019ZM201.67 628.919L188.956 643.602L190.468 644.911L203.182 630.228L201.67 628.919ZM188.398 643.044L203.081 630.33L201.772 628.818L187.089 641.532L188.398 643.044ZM199.627 670.642C199.658 671.547 199.658 672.453 199.627 673.358L201.626 673.426C201.659 672.476 201.659 671.524 201.626 670.574L199.627 670.642ZM219.928 671.003L200.555 672.395L200.699 674.389L220.072 672.997L219.928 671.003ZM200.555 671.605L219.928 672.997L220.072 671.003L200.699 669.611L200.555 671.605ZM188.981 699.061C188.363 699.723 187.723 700.363 187.061 700.981L188.426 702.443C189.121 701.794 189.794 701.121 190.443 700.426L188.981 699.061ZM203.081 713.67L188.398 700.956L187.089 702.468L201.772 715.182L203.081 713.67ZM188.956 700.398L201.67 715.081L203.182 713.772L190.468 699.089L188.956 700.398ZM161.358 711.627C160.453 711.658 159.547 711.658 158.642 711.627L158.574 713.626C159.524 713.659 160.476 713.659 161.426 713.626L161.358 711.627ZM160.997 731.928L159.605 712.555L157.611 712.699L159.003 732.072L160.997 731.928ZM160.395 712.555L159.003 731.928L160.997 732.072L162.389 712.699L160.395 712.555ZM132.939 700.981C132.277 700.363 131.637 699.723 131.019 699.061L129.557 700.426C130.206 701.121 130.879 701.794 131.574 702.443L132.939 700.981ZM118.33 715.081L131.044 700.398L129.532 699.089L116.818 713.772L118.33 715.081ZM131.602 700.956L116.919 713.67L118.228 715.182L132.911 702.468L131.602 700.956ZM120.373 673.358C120.342 672.453 120.342 671.547 120.373 670.642L118.374 670.574C118.341 671.524 118.341 672.476 118.374 673.426L120.373 673.358ZM100.072 672.997L119.445 671.605L119.301 669.611L99.9283 671.003L100.072 672.997ZM119.445 672.395L100.072 671.003L99.9283 672.997L119.301 674.389L119.445 672.395ZM131.019 644.939C131.637 644.277 132.277 643.637 132.939 643.019L131.574 641.557C130.879 642.206 130.206 642.879 129.557 643.574L131.019 644.939ZM116.919 630.33L131.602 643.044L132.911 641.532L118.228 628.818L116.919 630.33ZM131.044 643.602L118.33 628.919L116.818 630.228L129.532 644.911L131.044 643.602Z" fill="currentColor"/>
<path d="M150.808 694.192C156.693 696.63 163.307 696.63 169.192 694.192V694.192C175.078 691.754 179.754 687.078 182.192 681.192V681.192C184.63 675.307 184.63 668.693 182.192 662.808V662.808C179.754 656.922 175.078 652.246 169.192 649.808V649.808C163.307 647.37 156.693 647.37 150.808 649.808V649.808C144.922 652.246 140.246 656.922 137.808 662.808V662.808C135.37 668.693 135.37 675.307 137.808 681.192V681.192C140.246 687.078 144.922 691.754 150.808 694.192V694.192Z" stroke="currentColor" stroke-width="2" stroke-linecap="round" stroke-linejoin="round"/>
<path d="M339.99 611.713L339.491 611.749V611.749L339.99 611.713ZM332.01 611.713L331.512 611.678V611.678L332.01 611.713ZM330.618 631.086L330.12 631.051V631.051L330.618 631.086ZM331.727 634.148L332.087 633.801V633.801L331.727 634.148ZM334.745 635.371L334.728 634.871H334.728L334.745 635.371ZM337.255 635.371L337.272 634.871L337.255 635.371ZM341.382 631.086L340.883 631.122L341.382 631.086ZM290.745 626.745L291.099 627.099L290.745 626.745ZM296.192 626.55L295.865 626.928L296.192 626.55ZM290.55 632.192L290.928 631.865L290.55 632.192ZM303.264 646.875L303.642 646.548L303.264 646.875ZM306.213 648.256L306.204 648.756L306.213 648.256ZM309.212 646.987L308.846 646.645L309.212 646.987ZM310.987 645.212L310.645 644.846L310.987 645.212ZM312.256 642.213L312.756 642.204L312.256 642.213ZM310.875 639.264L310.548 639.642L310.875 639.264ZM381.255 626.745L381.608 626.392L381.255 626.745ZM381.45 632.192L381.828 632.519L381.45 632.192ZM375.808 626.55L375.481 626.172L375.808 626.55ZM361.125 639.264L360.798 638.886L361.125 639.264ZM359.744 642.213L359.244 642.204L359.744 642.213ZM361.013 645.212L361.355 644.846H361.355L361.013 645.212ZM362.788 646.987L363.154 646.645V646.645L362.788 646.987ZM365.787 648.256L365.796 648.756H365.796L365.787 648.256ZM368.736 646.875L368.358 646.548L368.736 646.875ZM298.148 667.727L297.801 668.087H297.801L298.148 667.727ZM299.371 670.745L298.871 670.728V670.728L299.371 670.745ZM295.086 666.618L295.051 666.12H295.051L295.086 666.618ZM275.713 668.01L275.678 667.512H275.678L275.713 668.01ZM275.713 675.99L275.749 675.491H275.749L275.713 675.99ZM295.086 677.382L295.122 676.883L295.086 677.382ZM299.371 673.255L298.871 673.272L299.371 673.255ZM373.852 667.727L373.505 667.367L373.852 667.727ZM376.914 666.618L376.949 666.12L376.914 666.618ZM372.629 670.745L372.13 670.762V670.762L372.629 670.745ZM372.629 673.255L372.13 673.238V673.238L372.629 673.255ZM373.852 676.273L374.199 675.913L373.852 676.273ZM376.914 677.382L376.878 676.883L376.914 677.382ZM396.287 675.99L396.251 675.491L396.287 675.99ZM396.287 668.01L396.322 667.512L396.287 668.01ZM306.213 695.744L306.204 695.244L306.213 695.744ZM309.212 697.013L308.846 697.355V697.355L309.212 697.013ZM303.264 697.125L302.886 696.798L303.264 697.125ZM290.55 711.808L290.172 711.481L290.55 711.808ZM290.745 717.255L290.392 717.608L290.745 717.255ZM296.192 717.45L296.519 717.828L296.192 717.45ZM310.875 704.736L311.202 705.114L310.875 704.736ZM312.256 701.787L312.756 701.796V701.796L312.256 701.787ZM310.987 698.788L310.645 699.154H310.645L310.987 698.788ZM365.787 695.744L365.796 695.244L365.787 695.744ZM368.736 697.125L369.114 696.798L368.736 697.125ZM362.788 697.013L362.423 696.672V696.672L362.788 697.013ZM361.013 698.788L360.672 698.423H360.672L361.013 698.788ZM359.744 701.787L359.244 701.796L359.744 701.787ZM361.125 704.736L360.798 705.114L361.125 704.736ZM375.808 717.45L375.481 717.828L375.808 717.45ZM381.255 717.255L381.608 717.608L381.255 717.255ZM381.45 711.808L381.828 711.481L381.45 711.808ZM331.727 709.852L331.367 709.505L331.727 709.852ZM334.745 708.629L334.762 708.13H334.762L334.745 708.629ZM330.618 712.914L330.12 712.949L330.618 712.914ZM332.01 732.287L331.512 732.322L332.01 732.287ZM339.99 732.287L339.491 732.251L339.99 732.287ZM341.382 712.914L340.883 712.878L341.382 712.914ZM340.273 709.852L339.913 710.199L340.273 709.852ZM337.255 708.629L337.238 708.13H337.238L337.255 708.629ZM325.277 646.112L325.086 645.65L325.277 646.112ZM361.888 661.277L362.35 661.086L361.888 661.277ZM343.662 690.497L343.47 690.035L343.662 690.497ZM328.338 690.497L328.53 690.035L328.338 690.497ZM354.497 679.662L354.035 679.47L354.497 679.662ZM354.497 664.338L354.035 664.53L354.497 664.338ZM343.662 653.503L343.47 653.965L343.662 653.503ZM328.338 653.503L328.53 653.965L328.338 653.503ZM317.503 664.338L317.041 664.147L317.503 664.338ZM317.503 679.662L317.965 679.47L317.503 679.662ZM336 608.5C337.836 608.5 339.359 609.918 339.491 611.749L340.488 611.678C340.319 609.323 338.36 607.5 336 607.5V608.5ZM332.509 611.749C332.641 609.918 334.164 608.5 336 608.5V607.5C333.64 607.5 331.681 609.323 331.512 611.678L332.509 611.749ZM331.117 631.122L332.509 611.749L331.512 611.678L330.12 631.051L331.117 631.122ZM332.087 633.801C331.399 633.086 331.046 632.112 331.117 631.122L330.12 631.051C330.028 632.324 330.482 633.576 331.367 634.495L332.087 633.801ZM334.728 634.871C333.736 634.905 332.776 634.516 332.087 633.801L331.367 634.495C332.252 635.414 333.486 635.914 334.762 635.87L334.728 634.871ZM337.272 634.871C336.424 634.842 335.576 634.842 334.728 634.871L334.762 635.87C335.587 635.842 336.413 635.842 337.238 635.87L337.272 634.871ZM339.913 633.801C339.224 634.516 338.264 634.905 337.272 634.871L337.238 635.87C338.514 635.914 339.748 635.414 340.633 634.495L339.913 633.801ZM340.883 631.122C340.954 632.112 340.601 633.086 339.913 633.801L340.633 634.495C341.518 633.576 341.972 632.324 341.88 631.051L340.883 631.122ZM339.491 611.749L340.883 631.122L341.88 631.051L340.488 611.678L339.491 611.749ZM291.099 627.099C292.397 625.801 294.477 625.726 295.865 626.928L296.519 626.172C294.735 624.627 292.06 624.723 290.392 626.392L291.099 627.099ZM290.928 631.865C289.726 630.477 289.801 628.397 291.099 627.099L290.392 626.392C288.723 628.06 288.627 630.735 290.172 632.519L290.928 631.865ZM303.642 646.548L290.928 631.865L290.172 632.519L302.886 647.202L303.642 646.548ZM306.223 647.756C305.23 647.738 304.292 647.298 303.642 646.548L302.886 647.202C303.722 648.167 304.928 648.732 306.204 648.756L306.223 647.756ZM308.846 646.645C308.169 647.371 307.215 647.775 306.223 647.756L306.204 648.756C307.48 648.78 308.706 648.261 309.577 647.328L308.846 646.645ZM310.645 644.846C310.025 645.425 309.425 646.025 308.846 646.645L309.577 647.328C310.141 646.725 310.725 646.141 311.328 645.577L310.645 644.846ZM311.756 642.223C311.775 643.215 311.371 644.169 310.645 644.846L311.328 645.577C312.261 644.706 312.78 643.48 312.756 642.204L311.756 642.223ZM310.548 639.642C311.298 640.292 311.738 641.23 311.756 642.223L312.756 642.204C312.732 640.928 312.167 639.722 311.202 638.886L310.548 639.642ZM295.865 626.928L310.548 639.642L311.202 638.886L296.519 626.172L295.865 626.928ZM380.901 627.099C382.199 628.397 382.274 630.477 381.072 631.865L381.828 632.519C383.373 630.735 383.277 628.06 381.608 626.392L380.901 627.099ZM376.135 626.928C377.523 625.726 379.603 625.801 380.901 627.099L381.608 626.392C379.94 624.723 377.265 624.627 375.481 626.172L376.135 626.928ZM361.452 639.642L376.135 626.928L375.481 626.172L360.798 638.886L361.452 639.642ZM360.244 642.223C360.262 641.23 360.702 640.292 361.452 639.642L360.798 638.886C359.833 639.722 359.268 640.928 359.244 642.204L360.244 642.223ZM361.355 644.846C360.629 644.169 360.225 643.215 360.244 642.223L359.244 642.204C359.22 643.48 359.739 644.706 360.672 645.577L361.355 644.846ZM363.154 646.645C362.575 646.025 361.975 645.425 361.355 644.846L360.672 645.577C361.275 646.141 361.859 646.725 362.423 647.328L363.154 646.645ZM365.777 647.756C364.785 647.775 363.831 647.371 363.154 646.645L362.423 647.328C363.294 648.261 364.52 648.78 365.796 648.756L365.777 647.756ZM368.358 646.548C367.708 647.298 366.77 647.738 365.777 647.756L365.796 648.756C367.072 648.732 368.278 648.167 369.114 647.202L368.358 646.548ZM381.072 631.865L368.358 646.548L369.114 647.202L381.828 632.519L381.072 631.865ZM297.801 668.087C298.516 668.776 298.905 669.736 298.871 670.728L299.87 670.762C299.914 669.486 299.414 668.252 298.495 667.367L297.801 668.087ZM295.122 667.117C296.112 667.046 297.086 667.399 297.801 668.087L298.495 667.367C297.576 666.482 296.324 666.028 295.051 666.12L295.122 667.117ZM275.749 668.509L295.122 667.117L295.051 666.12L275.678 667.512L275.749 668.509ZM272.5 672C272.5 670.164 273.918 668.641 275.749 668.509L275.678 667.512C273.323 667.681 271.5 669.64 271.5 672H272.5ZM275.749 675.491C273.918 675.359 272.5 673.836 272.5 672H271.5C271.5 674.36 273.323 676.319 275.678 676.488L275.749 675.491ZM295.122 676.883L275.749 675.491L275.678 676.488L295.051 677.88L295.122 676.883ZM297.801 675.913C297.086 676.601 296.112 676.954 295.122 676.883L295.051 677.88C296.324 677.972 297.576 677.518 298.495 676.633L297.801 675.913ZM298.871 673.272C298.905 674.264 298.516 675.224 297.801 675.913L298.495 676.633C299.414 675.748 299.914 674.514 299.87 673.238L298.871 673.272ZM298.871 670.728C298.842 671.576 298.842 672.424 298.871 673.272L299.87 673.238C299.842 672.413 299.842 671.587 299.87 670.762L298.871 670.728ZM374.199 668.087C374.914 667.399 375.888 667.046 376.878 667.117L376.949 666.12C375.676 666.028 374.424 666.482 373.505 667.367L374.199 668.087ZM373.129 670.728C373.095 669.736 373.484 668.776 374.199 668.087L373.505 667.367C372.586 668.252 372.086 669.487 372.13 670.762L373.129 670.728ZM373.129 673.272C373.158 672.424 373.158 671.576 373.129 670.728L372.13 670.762C372.158 671.587 372.158 672.413 372.13 673.238L373.129 673.272ZM374.199 675.913C373.484 675.224 373.095 674.264 373.129 673.272L372.13 673.238C372.086 674.513 372.586 675.748 373.505 676.633L374.199 675.913ZM376.878 676.883C375.888 676.954 374.914 676.601 374.199 675.913L373.505 676.633C374.424 677.518 375.676 677.972 376.949 677.88L376.878 676.883ZM396.251 675.491L376.878 676.883L376.949 677.88L396.322 676.488L396.251 675.491ZM399.5 672C399.5 673.836 398.082 675.359 396.251 675.491L396.322 676.488C398.677 676.319 400.5 674.36 400.5 672H399.5ZM396.251 668.509C398.082 668.641 399.5 670.164 399.5 672H400.5C400.5 669.64 398.677 667.681 396.322 667.512L396.251 668.509ZM376.878 667.117L396.251 668.509L396.322 667.512L376.949 666.12L376.878 667.117ZM306.223 696.244C307.215 696.225 308.169 696.629 308.846 697.355L309.577 696.672C308.706 695.739 307.48 695.22 306.204 695.244L306.223 696.244ZM303.642 697.452C304.292 696.702 305.23 696.262 306.223 696.244L306.204 695.244C304.928 695.268 303.722 695.833 302.886 696.798L303.642 697.452ZM290.928 712.135L303.642 697.452L302.886 696.798L290.172 711.481L290.928 712.135ZM291.099 716.901C289.801 715.603 289.726 713.523 290.928 712.135L290.172 711.481C288.627 713.265 288.723 715.94 290.392 717.608L291.099 716.901ZM295.865 717.072C294.477 718.274 292.397 718.199 291.099 716.901L290.392 717.608C292.06 719.277 294.735 719.373 296.519 717.828L295.865 717.072ZM310.548 704.358L295.865 717.072L296.519 717.828L311.202 705.114L310.548 704.358ZM311.756 701.777C311.738 702.77 311.298 703.708 310.548 704.358L311.202 705.114C312.167 704.278 312.732 703.072 312.756 701.796L311.756 701.777ZM310.645 699.154C311.371 699.831 311.775 700.785 311.756 701.777L312.756 701.796C312.78 700.52 312.261 699.294 311.328 698.423L310.645 699.154ZM308.846 697.355C309.425 697.975 310.025 698.575 310.645 699.154L311.328 698.423C310.725 697.859 310.141 697.275 309.577 696.672L308.846 697.355ZM365.777 696.244C366.77 696.262 367.708 696.702 368.358 697.452L369.114 696.798C368.278 695.833 367.072 695.268 365.796 695.244L365.777 696.244ZM363.154 697.355C363.831 696.629 364.785 696.225 365.777 696.244L365.796 695.244C364.52 695.22 363.294 695.739 362.423 696.672L363.154 697.355ZM361.355 699.154C361.975 698.575 362.575 697.975 363.154 697.355L362.423 696.672C361.859 697.275 361.275 697.859 360.672 698.423L361.355 699.154ZM360.244 701.777C360.225 700.785 360.629 699.831 361.355 699.154L360.672 698.423C359.739 699.294 359.22 700.52 359.244 701.796L360.244 701.777ZM361.452 704.358C360.702 703.708 360.262 702.77 360.244 701.777L359.244 701.796C359.268 703.072 359.833 704.278 360.798 705.114L361.452 704.358ZM376.135 717.072L361.452 704.358L360.798 705.114L375.481 717.828L376.135 717.072ZM380.901 716.901C379.603 718.199 377.523 718.274 376.135 717.072L375.481 717.828C377.265 719.373 379.94 719.277 381.608 717.608L380.901 716.901ZM381.072 712.135C382.274 713.523 382.199 715.603 380.901 716.901L381.608 717.608C383.277 715.94 383.373 713.265 381.828 711.481L381.072 712.135ZM368.358 697.452L381.072 712.135L381.828 711.481L369.114 696.798L368.358 697.452ZM332.087 710.199C332.776 709.484 333.736 709.095 334.728 709.129L334.762 708.13C333.487 708.086 332.252 708.586 331.367 709.505L332.087 710.199ZM331.117 712.878C331.046 711.888 331.399 710.914 332.087 710.199L331.367 709.505C330.482 710.424 330.028 711.676 330.12 712.949L331.117 712.878ZM332.509 732.251L331.117 712.878L330.12 712.949L331.512 732.322L332.509 732.251ZM336 735.5C334.164 735.5 332.641 734.082 332.509 732.251L331.512 732.322C331.681 734.677 333.64 736.5 336 736.5V735.5ZM339.491 732.251C339.359 734.082 337.836 735.5 336 735.5V736.5C338.36 736.5 340.319 734.677 340.488 732.322L339.491 732.251ZM340.883 712.878L339.491 732.251L340.488 732.322L341.88 712.949L340.883 712.878ZM339.913 710.199C340.601 710.914 340.954 711.888 340.883 712.878L341.88 712.949C341.972 711.676 341.518 710.424 340.633 709.505L339.913 710.199ZM337.272 709.129C338.264 709.095 339.224 709.484 339.913 710.199L340.633 709.505C339.748 708.586 338.513 708.086 337.238 708.13L337.272 709.129ZM334.728 709.129C335.576 709.158 336.424 709.158 337.272 709.129L337.238 708.13C336.413 708.158 335.587 708.158 334.762 708.13L334.728 709.129ZM325.086 698.35C332.074 701.245 339.926 701.245 346.914 698.35L346.532 697.426C339.788 700.219 332.212 700.219 325.468 697.426L325.086 698.35ZM309.65 682.914C312.545 689.903 318.097 695.455 325.086 698.35L325.468 697.426C318.725 694.633 313.367 689.275 310.574 682.532L309.65 682.914ZM309.65 661.086C306.755 668.074 306.755 675.926 309.65 682.914L310.574 682.532C307.781 675.788 307.781 668.212 310.574 661.468L309.65 661.086ZM325.086 645.65C318.097 648.545 312.545 654.097 309.65 661.086L310.574 661.468C313.367 654.725 318.725 649.367 325.468 646.574L325.086 645.65ZM346.914 645.65C339.926 642.755 332.074 642.755 325.086 645.65L325.468 646.574C332.212 643.781 339.788 643.781 346.532 646.574L346.914 645.65ZM362.35 661.086C359.455 654.097 353.903 648.545 346.914 645.65L346.532 646.574C353.275 649.367 358.633 654.725 361.426 661.468L362.35 661.086ZM362.35 682.914C365.245 675.926 365.245 668.074 362.35 661.086L361.426 661.468C364.219 668.212 364.219 675.788 361.426 682.532L362.35 682.914ZM346.914 698.35C353.903 695.455 359.455 689.903 362.35 682.914L361.426 682.532C358.633 689.275 353.275 694.633 346.532 697.426L346.914 698.35ZM343.47 690.035C338.687 692.016 333.313 692.016 328.53 690.035L328.147 690.959C333.175 693.042 338.825 693.042 343.853 690.959L343.47 690.035ZM354.035 679.47C352.054 684.253 348.253 688.054 343.47 690.035L343.853 690.959C348.881 688.876 352.876 684.881 354.959 679.853L354.035 679.47ZM354.035 664.53C356.016 669.313 356.016 674.687 354.035 679.47L354.959 679.853C357.042 674.825 357.042 669.175 354.959 664.147L354.035 664.53ZM343.47 653.965C348.253 655.946 352.054 659.747 354.035 664.53L354.959 664.147C352.876 659.119 348.881 655.124 343.853 653.041L343.47 653.965ZM328.53 653.965C333.313 651.984 338.687 651.984 343.47 653.965L343.853 653.041C338.825 650.958 333.175 650.958 328.147 653.041L328.53 653.965ZM317.965 664.53C319.946 659.747 323.747 655.946 328.53 653.965L328.147 653.041C323.119 655.124 319.124 659.119 317.041 664.147L317.965 664.53ZM317.965 679.47C315.984 674.687 315.984 669.313 317.965 664.53L317.041 664.147C314.958 669.175 314.958 674.825 317.041 679.853L317.965 679.47ZM328.53 690.035C323.747 688.054 319.946 684.253 317.965 679.47L317.041 679.853C319.124 684.881 323.119 688.876 328.147 690.959L328.53 690.035Z" fill="currentColor"/>
<path fill-rule="evenodd" clip-rule="evenodd" d="M513.392 631.373L512 612L510.608 631.373C511.536 631.341 512.464 631.341 513.392 631.373ZM539.743 642.288C540.422 642.922 541.078 643.578 541.712 644.257L554.426 629.574L539.743 642.288ZM552.627 670.608C552.659 671.536 552.659 672.464 552.627 673.392L572 672L552.627 670.608ZM541.712 699.743C541.078 700.422 540.422 701.078 539.743 701.712L554.426 714.426L541.712 699.743ZM513.392 712.627C512.464 712.659 511.536 712.659 510.608 712.627L512 732L513.392 712.627ZM484.257 701.712C483.578 701.078 482.922 700.422 482.288 699.743L469.574 714.426L484.257 701.712ZM471.373 673.392C471.341 672.464 471.341 671.536 471.373 670.608L452 672L471.373 673.392ZM482.288 644.257C482.922 643.578 483.578 642.922 484.257 642.288L469.574 629.574L482.288 644.257Z" fill="currentColor"/>
<path d="M512 612L513.995 611.857C513.92 610.81 513.049 610 512 610C510.951 610 510.08 610.81 510.005 611.857L512 612ZM513.392 631.373L513.324 633.372C513.89 633.391 514.439 633.169 514.832 632.761C515.226 632.352 515.427 631.796 515.387 631.23L513.392 631.373ZM510.608 631.373L508.613 631.23C508.573 631.796 508.774 632.352 509.168 632.761C509.561 633.169 510.11 633.391 510.676 633.372L510.608 631.373ZM539.743 642.288L538.434 640.776C538.005 641.148 537.754 641.684 537.744 642.251C537.733 642.818 537.964 643.363 538.378 643.75L539.743 642.288ZM541.712 644.257L540.25 645.622C540.637 646.036 541.182 646.267 541.749 646.256C542.316 646.246 542.852 645.995 543.224 645.566L541.712 644.257ZM554.426 629.574L555.938 630.883C556.625 630.09 556.582 628.901 555.841 628.159C555.099 627.418 553.91 627.375 553.117 628.062L554.426 629.574ZM552.627 670.608L552.77 668.613C552.204 668.573 551.648 668.774 551.239 669.168C550.831 669.561 550.609 670.11 550.628 670.677L552.627 670.608ZM552.627 673.392L550.628 673.323C550.609 673.89 550.831 674.439 551.239 674.832C551.648 675.226 552.204 675.427 552.77 675.387L552.627 673.392ZM572 672L572.143 673.995C573.19 673.92 574 673.049 574 672C574 670.951 573.19 670.08 572.143 670.005L572 672ZM541.712 699.743L543.224 698.434C542.852 698.005 542.316 697.754 541.749 697.744C541.182 697.733 540.637 697.964 540.25 698.378L541.712 699.743ZM539.743 701.712L538.378 700.25C537.964 700.637 537.733 701.182 537.744 701.749C537.754 702.316 538.005 702.852 538.434 703.224L539.743 701.712ZM554.426 714.426L553.117 715.938C553.91 716.625 555.099 716.582 555.841 715.841C556.582 715.099 556.625 713.91 555.938 713.117L554.426 714.426ZM513.392 712.627L515.387 712.77C515.427 712.204 515.226 711.648 514.832 711.239C514.439 710.831 513.89 710.609 513.323 710.628L513.392 712.627ZM510.608 712.627L510.677 710.628C510.11 710.609 509.561 710.831 509.168 711.239C508.774 711.648 508.573 712.204 508.613 712.77L510.608 712.627ZM512 732L510.005 732.143C510.08 733.19 510.951 734 512 734C513.049 734 513.92 733.19 513.995 732.143L512 732ZM484.257 701.712L485.566 703.224C485.995 702.852 486.246 702.316 486.256 701.749C486.267 701.182 486.036 700.637 485.622 700.25L484.257 701.712ZM482.288 699.743L483.75 698.378C483.363 697.964 482.818 697.733 482.251 697.744C481.684 697.754 481.148 698.005 480.776 698.434L482.288 699.743ZM469.574 714.426L468.062 713.117C467.375 713.91 467.418 715.099 468.159 715.841C468.901 716.582 470.09 716.625 470.883 715.938L469.574 714.426ZM471.373 673.392L471.23 675.387C471.796 675.427 472.352 675.226 472.761 674.832C473.169 674.439 473.391 673.89 473.372 673.324L471.373 673.392ZM471.373 670.608L473.372 670.676C473.391 670.11 473.169 669.561 472.761 669.168C472.352 668.774 471.796 668.573 471.23 668.613L471.373 670.608ZM452 672L451.857 670.005C450.81 670.08 450 670.951 450 672C450 673.049 450.81 673.92 451.857 673.995L452 672ZM482.288 644.257L480.776 645.566C481.148 645.995 481.684 646.246 482.251 646.256C482.818 646.267 483.363 646.036 483.75 645.622L482.288 644.257ZM484.257 642.288L485.622 643.75C486.036 643.363 486.267 642.818 486.256 642.251C486.246 641.684 485.995 641.148 485.566 640.776L484.257 642.288ZM469.574 629.574L470.883 628.062C470.09 627.375 468.901 627.418 468.159 628.159C467.418 628.901 467.375 630.09 468.062 630.883L469.574 629.574ZM510.005 612.143L511.397 631.516L515.387 631.23L513.995 611.857L510.005 612.143ZM512.603 631.516L513.995 612.143L510.005 611.857L508.613 631.23L512.603 631.516ZM510.676 633.372C511.559 633.342 512.441 633.342 513.324 633.372L513.46 629.374C512.487 629.341 511.513 629.341 510.54 629.374L510.676 633.372ZM538.378 643.75C539.023 644.352 539.648 644.977 540.25 645.622L543.174 642.892C542.509 642.18 541.82 641.491 541.108 640.826L538.378 643.75ZM552.914 628.264L540.2 642.948L543.224 645.566L555.938 630.883L552.914 628.264ZM541.052 643.8L555.736 631.086L553.117 628.062L538.434 640.776L541.052 643.8ZM550.628 670.677C550.658 671.559 550.658 672.441 550.628 673.323L554.626 673.46C554.659 672.487 554.659 671.513 554.626 670.54L550.628 670.677ZM571.857 670.005L552.484 671.397L552.77 675.387L572.143 673.995L571.857 670.005ZM552.484 672.603L571.857 673.995L572.143 670.005L552.77 668.613L552.484 672.603ZM540.25 698.378C539.648 699.023 539.023 699.648 538.378 700.25L541.108 703.174C541.82 702.509 542.509 701.82 543.174 701.108L540.25 698.378ZM555.736 712.914L541.052 700.2L538.434 703.224L553.117 715.938L555.736 712.914ZM540.2 701.052L552.914 715.736L555.938 713.117L543.224 698.434L540.2 701.052ZM513.323 710.628C512.441 710.658 511.559 710.658 510.677 710.628L510.54 714.626C511.513 714.659 512.487 714.659 513.46 714.626L513.323 710.628ZM513.995 731.857L512.603 712.484L508.613 712.77L510.005 732.143L513.995 731.857ZM511.397 712.484L510.005 731.857L513.995 732.143L515.387 712.77L511.397 712.484ZM485.622 700.25C484.977 699.648 484.352 699.023 483.75 698.378L480.826 701.108C481.491 701.82 482.18 702.509 482.892 703.174L485.622 700.25ZM471.086 715.736L483.8 701.052L480.776 698.434L468.062 713.117L471.086 715.736ZM482.948 700.2L468.264 712.914L470.883 715.938L485.566 703.224L482.948 700.2ZM473.372 673.324C473.342 672.441 473.342 671.559 473.372 670.676L469.374 670.54C469.341 671.513 469.341 672.487 469.374 673.46L473.372 673.324ZM452.143 673.995L471.516 672.603L471.23 668.613L451.857 670.005L452.143 673.995ZM471.516 671.397L452.143 670.005L451.857 673.995L471.23 675.387L471.516 671.397ZM483.75 645.622C484.352 644.977 484.977 644.352 485.622 643.75L482.892 640.826C482.18 641.491 481.491 642.18 480.826 642.892L483.75 645.622ZM468.264 631.086L482.948 643.8L485.566 640.776L470.883 628.062L468.264 631.086ZM483.8 642.948L471.086 628.264L468.062 630.883L480.776 645.566L483.8 642.948Z" fill="currentColor"/>
<path d="M502.808 694.192C508.693 696.63 515.307 696.63 521.192 694.192C527.078 691.754 531.754 687.078 534.192 681.192C536.63 675.307 536.63 668.693 534.192 662.808C531.754 656.922 527.078 652.246 521.192 649.808C515.307 647.37 508.693 647.37 502.808 649.808C496.922 652.246 492.246 656.922 489.808 662.808C487.37 668.693 487.37 675.307 489.808 681.192C492.246 687.078 496.922 691.754 502.808 694.192Z" fill="currentColor" stroke="currentColor" stroke-width="4" stroke-linecap="round" stroke-linejoin="round"/>
<g opacity="0.25">
<path fill-rule="evenodd" clip-rule="evenodd" d="M689.392 631.373L688 612L686.608 631.373C687.536 631.341 688.464 631.341 689.392 631.373ZM715.743 642.288C716.422 642.922 717.078 643.578 717.712 644.257L730.426 629.574L715.743 642.288ZM728.627 670.608C728.659 671.536 728.659 672.464 728.627 673.392L748 672L728.627 670.608ZM717.712 699.743C717.078 700.422 716.422 701.078 715.743 701.712L730.426 714.426L717.712 699.743ZM689.392 712.627C688.464 712.659 687.536 712.659 686.608 712.627L688 732L689.392 712.627ZM660.257 701.712C659.578 701.078 658.922 700.422 658.288 699.743L645.574 714.426L660.257 701.712ZM647.373 673.392C647.341 672.464 647.341 671.536 647.373 670.608L628 672L647.373 673.392ZM658.288 644.257C658.922 643.578 659.578 642.922 660.257 642.288L645.574 629.574L658.288 644.257Z" fill="currentColor"/>
<path d="M688 612L689.995 611.857C689.92 610.81 689.049 610 688 610C686.951 610 686.08 610.81 686.005 611.857L688 612ZM689.392 631.373L689.324 633.372C689.89 633.391 690.439 633.169 690.832 632.761C691.226 632.352 691.427 631.796 691.387 631.23L689.392 631.373ZM686.608 631.373L684.613 631.23C684.573 631.796 684.774 632.352 685.168 632.761C685.561 633.169 686.11 633.391 686.676 633.372L686.608 631.373ZM715.743 642.288L714.434 640.776C714.005 641.148 713.754 641.684 713.744 642.251C713.733 642.818 713.964 643.363 714.378 643.75L715.743 642.288ZM717.712 644.257L716.25 645.622C716.637 646.036 717.182 646.267 717.749 646.256C718.316 646.246 718.852 645.995 719.224 645.566L717.712 644.257ZM730.426 629.574L731.938 630.883C732.625 630.09 732.582 628.901 731.841 628.159C731.099 627.418 729.91 627.375 729.117 628.062L730.426 629.574ZM728.627 670.608L728.77 668.613C728.204 668.573 727.648 668.774 727.239 669.168C726.831 669.561 726.609 670.11 726.628 670.677L728.627 670.608ZM728.627 673.392L726.628 673.323C726.609 673.89 726.831 674.439 727.239 674.832C727.648 675.226 728.204 675.427 728.77 675.387L728.627 673.392ZM748 672L748.143 673.995C749.19 673.92 750 673.049 750 672C750 670.951 749.19 670.08 748.143 670.005L748 672ZM717.712 699.743L719.224 698.434C718.852 698.005 718.316 697.754 717.749 697.744C717.182 697.733 716.637 697.964 716.25 698.378L717.712 699.743ZM715.743 701.712L714.378 700.25C713.964 700.637 713.733 701.182 713.744 701.749C713.754 702.316 714.005 702.852 714.434 703.224L715.743 701.712ZM730.426 714.426L729.117 715.938C729.91 716.625 731.099 716.582 731.841 715.841C732.582 715.099 732.625 713.91 731.938 713.117L730.426 714.426ZM689.392 712.627L691.387 712.77C691.427 712.204 691.226 711.648 690.832 711.239C690.439 710.831 689.89 710.609 689.323 710.628L689.392 712.627ZM686.608 712.627L686.677 710.628C686.11 710.609 685.561 710.831 685.168 711.239C684.774 711.648 684.573 712.204 684.613 712.77L686.608 712.627ZM688 732L686.005 732.143C686.08 733.19 686.951 734 688 734C689.049 734 689.92 733.19 689.995 732.143L688 732ZM660.257 701.712L661.566 703.224C661.995 702.852 662.246 702.316 662.256 701.749C662.267 701.182 662.036 700.637 661.622 700.25L660.257 701.712ZM658.288 699.743L659.75 698.378C659.363 697.964 658.818 697.733 658.251 697.744C657.684 697.754 657.148 698.005 656.776 698.434L658.288 699.743ZM645.574 714.426L644.062 713.117C643.375 713.91 643.418 715.099 644.159 715.841C644.901 716.582 646.09 716.625 646.883 715.938L645.574 714.426ZM647.373 673.392L647.23 675.387C647.796 675.427 648.352 675.226 648.761 674.832C649.169 674.439 649.391 673.89 649.372 673.324L647.373 673.392ZM647.373 670.608L649.372 670.676C649.391 670.11 649.169 669.561 648.761 669.168C648.352 668.774 647.796 668.573 647.23 668.613L647.373 670.608ZM628 672L627.857 670.005C626.81 670.08 626 670.951 626 672C626 673.049 626.81 673.92 627.857 673.995L628 672ZM658.288 644.257L656.776 645.566C657.148 645.995 657.684 646.246 658.251 646.256C658.818 646.267 659.363 646.036 659.75 645.622L658.288 644.257ZM660.257 642.288L661.622 643.75C662.036 643.363 662.267 642.818 662.256 642.251C662.246 641.684 661.995 641.148 661.566 640.776L660.257 642.288ZM645.574 629.574L646.883 628.062C646.09 627.375 644.901 627.418 644.159 628.159C643.418 628.901 643.375 630.09 644.062 630.883L645.574 629.574ZM686.005 612.143L687.397 631.516L691.387 631.23L689.995 611.857L686.005 612.143ZM688.603 631.516L689.995 612.143L686.005 611.857L684.613 631.23L688.603 631.516ZM686.676 633.372C687.559 633.342 688.441 633.342 689.324 633.372L689.46 629.374C688.487 629.341 687.513 629.341 686.54 629.374L686.676 633.372ZM714.378 643.75C715.023 644.352 715.648 644.977 716.25 645.622L719.174 642.892C718.509 642.18 717.82 641.491 717.108 640.826L714.378 643.75ZM728.914 628.264L716.2 642.948L719.224 645.566L731.938 630.883L728.914 628.264ZM717.052 643.8L731.736 631.086L729.117 628.062L714.434 640.776L717.052 643.8ZM726.628 670.677C726.658 671.559 726.658 672.441 726.628 673.323L730.626 673.46C730.659 672.487 730.659 671.513 730.626 670.54L726.628 670.677ZM747.857 670.005L728.484 671.397L728.77 675.387L748.143 673.995L747.857 670.005ZM728.484 672.603L747.857 673.995L748.143 670.005L728.77 668.613L728.484 672.603ZM716.25 698.378C715.648 699.023 715.023 699.648 714.378 700.25L717.108 703.174C717.82 702.509 718.509 701.82 719.174 701.108L716.25 698.378ZM731.736 712.914L717.052 700.2L714.434 703.224L729.117 715.938L731.736 712.914ZM716.2 701.052L728.914 715.736L731.938 713.117L719.224 698.434L716.2 701.052ZM689.323 710.628C688.441 710.658 687.559 710.658 686.677 710.628L686.54 714.626C687.513 714.659 688.487 714.659 689.46 714.626L689.323 710.628ZM689.995 731.857L688.603 712.484L684.613 712.77L686.005 732.143L689.995 731.857ZM687.397 712.484L686.005 731.857L689.995 732.143L691.387 712.77L687.397 712.484ZM661.622 700.25C660.977 699.648 660.352 699.023 659.75 698.378L656.826 701.108C657.491 701.82 658.18 702.509 658.892 703.174L661.622 700.25ZM647.086 715.736L659.8 701.052L656.776 698.434L644.062 713.117L647.086 715.736ZM658.948 700.2L644.264 712.914L646.883 715.938L661.566 703.224L658.948 700.2ZM649.372 673.324C649.342 672.441 649.342 671.559 649.372 670.676L645.374 670.54C645.341 671.513 645.341 672.487 645.374 673.46L649.372 673.324ZM628.143 673.995L647.516 672.603L647.23 668.613L627.857 670.005L628.143 673.995ZM647.516 671.397L628.143 670.005L627.857 673.995L647.23 675.387L647.516 671.397ZM659.75 645.622C660.352 644.977 660.977 644.352 661.622 643.75L658.892 640.826C658.18 641.491 657.491 642.18 656.826 642.892L659.75 645.622ZM644.264 631.086L658.948 643.8L661.566 640.776L646.883 628.062L644.264 631.086ZM659.8 642.948L647.086 628.264L644.062 630.883L656.776 645.566L659.8 642.948Z" fill="currentColor"/>
</g>
<path d="M678.808 694.192C684.693 696.63 691.307 696.63 697.192 694.192C703.078 691.754 707.754 687.078 710.192 681.192C712.63 675.307 712.63 668.693 710.192 662.808C707.754 656.922 703.078 652.246 697.192 649.808C691.307 647.37 684.693 647.37 678.808 649.808C672.922 652.246 668.246 656.922 665.808 662.808C663.37 668.693 663.37 675.307 665.808 681.192C668.246 687.078 672.922 691.754 678.808 694.192Z" fill="currentColor" stroke="currentColor" stroke-width="4" stroke-linecap="round" stroke-linejoin="round"/>
<path fill-rule="evenodd" clip-rule="evenodd" d="M865.392 631.373L864 612L862.608 631.373C863.536 631.341 864.464 631.341 865.392 631.373ZM891.743 642.288C892.422 642.922 893.078 643.578 893.712 644.257L906.426 629.574L891.743 642.288ZM904.627 670.608C904.659 671.536 904.659 672.464 904.627 673.392L924 672L904.627 670.608ZM893.712 699.743C893.078 700.422 892.422 701.078 891.743 701.712L906.426 714.426L893.712 699.743ZM865.392 712.627C864.464 712.659 863.536 712.659 862.608 712.627L864 732L865.392 712.627ZM836.257 701.712C835.578 701.078 834.922 700.422 834.288 699.743L821.574 714.426L836.257 701.712ZM823.373 673.392C823.341 672.464 823.341 671.536 823.373 670.608L804 672L823.373 673.392ZM834.288 644.257C834.922 643.578 835.578 642.922 836.257 642.288L821.574 629.574L834.288 644.257Z" fill="#FFA500"/>
<path d="M864 612L865.995 611.857C865.92 610.81 865.049 610 864 610C862.951 610 862.08 610.81 862.005 611.857L864 612ZM865.392 631.373L865.324 633.372C865.89 633.391 866.439 633.169 866.832 632.761C867.226 632.352 867.427 631.796 867.387 631.23L865.392 631.373ZM862.608 631.373L860.613 631.23C860.573 631.796 860.774 632.352 861.168 632.761C861.561 633.169 862.11 633.391 862.676 633.372L862.608 631.373ZM891.743 642.288L890.434 640.776C890.005 641.148 889.754 641.684 889.744 642.251C889.733 642.818 889.964 643.363 890.378 643.75L891.743 642.288ZM893.712 644.257L892.25 645.622C892.637 646.036 893.182 646.267 893.749 646.256C894.316 646.246 894.852 645.995 895.224 645.566L893.712 644.257ZM906.426 629.574L907.938 630.883C908.625 630.09 908.582 628.901 907.841 628.159C907.099 627.418 905.91 627.375 905.117 628.062L906.426 629.574ZM904.627 670.608L904.77 668.613C904.204 668.573 903.648 668.774 903.239 669.168C902.831 669.561 902.609 670.11 902.628 670.677L904.627 670.608ZM904.627 673.392L902.628 673.323C902.609 673.89 902.831 674.439 903.239 674.832C903.648 675.226 904.204 675.427 904.77 675.387L904.627 673.392ZM924 672L924.143 673.995C925.19 673.92 926 673.049 926 672C926 670.951 925.19 670.08 924.143 670.005L924 672ZM893.712 699.743L895.224 698.434C894.852 698.005 894.316 697.754 893.749 697.744C893.182 697.733 892.637 697.964 892.25 698.378L893.712 699.743ZM891.743 701.712L890.378 700.25C889.964 700.637 889.733 701.182 889.744 701.749C889.754 702.316 890.005 702.852 890.434 703.224L891.743 701.712ZM906.426 714.426L905.117 715.938C905.91 716.625 907.099 716.582 907.841 715.841C908.582 715.099 908.625 713.91 907.938 713.117L906.426 714.426ZM865.392 712.627L867.387 712.77C867.427 712.204 867.226 711.648 866.832 711.239C866.439 710.831 865.89 710.609 865.323 710.628L865.392 712.627ZM862.608 712.627L862.677 710.628C862.11 710.609 861.561 710.831 861.168 711.239C860.774 711.648 860.573 712.204 860.613 712.77L862.608 712.627ZM864 732L862.005 732.143C862.08 733.19 862.951 734 864 734C865.049 734 865.92 733.19 865.995 732.143L864 732ZM836.257 701.712L837.566 703.224C837.995 702.852 838.246 702.316 838.256 701.749C838.267 701.182 838.036 700.637 837.622 700.25L836.257 701.712ZM834.288 699.743L835.75 698.378C835.363 697.964 834.818 697.733 834.251 697.744C833.684 697.754 833.148 698.005 832.776 698.434L834.288 699.743ZM821.574 714.426L820.062 713.117C819.375 713.91 819.418 715.099 820.159 715.841C820.901 716.582 822.09 716.625 822.883 715.938L821.574 714.426ZM823.373 673.392L823.23 675.387C823.796 675.427 824.352 675.226 824.761 674.832C825.169 674.439 825.391 673.89 825.372 673.324L823.373 673.392ZM823.373 670.608L825.372 670.676C825.391 670.11 825.169 669.561 824.761 669.168C824.352 668.774 823.796 668.573 823.23 668.613L823.373 670.608ZM804 672L803.857 670.005C802.81 670.08 802 670.951 802 672C802 673.049 802.81 673.92 803.857 673.995L804 672ZM834.288 644.257L832.776 645.566C833.148 645.995 833.684 646.246 834.251 646.256C834.818 646.267 835.363 646.036 835.75 645.622L834.288 644.257ZM836.257 642.288L837.622 643.75C838.036 643.363 838.267 642.818 838.256 642.251C838.246 641.684 837.995 641.148 837.566 640.776L836.257 642.288ZM821.574 629.574L822.883 628.062C822.09 627.375 820.901 627.418 820.159 628.159C819.418 628.901 819.375 630.09 820.062 630.883L821.574 629.574ZM862.005 612.143L863.397 631.516L867.387 631.23L865.995 611.857L862.005 612.143ZM864.603 631.516L865.995 612.143L862.005 611.857L860.613 631.23L864.603 631.516ZM862.676 633.372C863.559 633.342 864.441 633.342 865.324 633.372L865.46 629.374C864.487 629.341 863.513 629.341 862.54 629.374L862.676 633.372ZM890.378 643.75C891.023 644.352 891.648 644.977 892.25 645.622L895.174 642.892C894.509 642.18 893.82 641.491 893.108 640.826L890.378 643.75ZM904.914 628.264L892.2 642.948L895.224 645.566L907.938 630.883L904.914 628.264ZM893.052 643.8L907.736 631.086L905.117 628.062L890.434 640.776L893.052 643.8ZM902.628 670.677C902.658 671.559 902.658 672.441 902.628 673.323L906.626 673.46C906.659 672.487 906.659 671.513 906.626 670.54L902.628 670.677ZM923.857 670.005L904.484 671.397L904.77 675.387L924.143 673.995L923.857 670.005ZM904.484 672.603L923.857 673.995L924.143 670.005L904.77 668.613L904.484 672.603ZM892.25 698.378C891.648 699.023 891.023 699.648 890.378 700.25L893.108 703.174C893.82 702.509 894.509 701.82 895.174 701.108L892.25 698.378ZM907.736 712.914L893.052 700.2L890.434 703.224L905.117 715.938L907.736 712.914ZM892.2 701.052L904.914 715.736L907.938 713.117L895.224 698.434L892.2 701.052ZM865.323 710.628C864.441 710.658 863.559 710.658 862.677 710.628L862.54 714.626C863.513 714.659 864.487 714.659 865.46 714.626L865.323 710.628ZM865.995 731.857L864.603 712.484L860.613 712.77L862.005 732.143L865.995 731.857ZM863.397 712.484L862.005 731.857L865.995 732.143L867.387 712.77L863.397 712.484ZM837.622 700.25C836.977 699.648 836.352 699.023 835.75 698.378L832.826 701.108C833.491 701.82 834.18 702.509 834.892 703.174L837.622 700.25ZM823.086 715.736L835.8 701.052L832.776 698.434L820.062 713.117L823.086 715.736ZM834.948 700.2L820.264 712.914L822.883 715.938L837.566 703.224L834.948 700.2ZM825.372 673.324C825.342 672.441 825.342 671.559 825.372 670.676L821.374 670.54C821.341 671.513 821.341 672.487 821.374 673.46L825.372 673.324ZM804.143 673.995L823.516 672.603L823.23 668.613L803.857 670.005L804.143 673.995ZM823.516 671.397L804.143 670.005L803.857 673.995L823.23 675.387L823.516 671.397ZM835.75 645.622C836.352 644.977 836.977 644.352 837.622 643.75L834.892 640.826C834.18 641.491 833.491 642.18 832.826 642.892L835.75 645.622ZM820.264 631.086L834.948 643.8L837.566 640.776L822.883 628.062L820.264 631.086ZM835.8 642.948L823.086 628.264L820.062 630.883L832.776 645.566L835.8 642.948Z" fill="#FFA500"/>
<path d="M854.808 694.192C860.693 696.63 867.307 696.63 873.192 694.192C879.078 691.754 883.754 687.078 886.192 681.192C888.63 675.307 888.63 668.693 886.192 662.808C883.754 656.922 879.078 652.246 873.192 649.808C867.307 647.37 860.693 647.37 854.808 649.808C848.922 652.246 844.246 656.922 841.808 662.808C839.37 668.693 839.37 675.307 841.808 681.192C844.246 687.078 848.922 691.754 854.808 694.192Z" fill="#FFD700" stroke="#FFD700" stroke-width="4" stroke-linecap="round" stroke-linejoin="round"/>
</svg>
