<svg viewBox="0 0 1024 768" fill="none" xmlns="http://www.w3.org/2000/svg">
<path d="M424 36L425.837 91.5654L466.426 53.5736L428.435 94.1631L484 96L428.435 97.8369L466.426 138.426L425.837 100.435L424 156L422.163 100.435L381.574 138.426L419.565 97.8369L364 96L419.565 94.1631L381.574 53.5736L422.163 91.5654L424 36Z" stroke="#7B61FF" stroke-width="2" stroke-linecap="round" stroke-linejoin="round"/>
<path d="M578.787 147.213C592.369 152.839 607.631 152.839 621.213 147.213V147.213C634.796 141.587 645.587 130.796 651.213 117.213V117.213C656.839 103.631 656.839 88.3694 651.213 74.7868V74.7868C645.587 61.2042 634.796 50.4129 621.213 44.7868V44.7868C607.631 39.1607 592.369 39.1607 578.787 44.7868V44.7868C565.204 50.4129 554.413 61.2042 548.787 74.7868V74.7868C543.161 88.3694 543.161 103.631 548.787 117.213V117.213C554.413 130.796 565.204 141.587 578.787 147.213V147.213Z" stroke="#7B61FF" stroke-width="2" stroke-linecap="round" stroke-linejoin="round"/>
<path fill-rule="evenodd" clip-rule="evenodd" d="M513.6 282.386L512 234L510.4 282.386C511.467 282.369 512.533 282.369 513.6 282.386ZM582.721 311.017C583.487 311.759 584.241 312.513 584.983 313.279L618.066 277.934L582.721 311.017ZM613.614 382.4C613.631 383.467 613.631 384.533 613.614 385.6L662 384L613.614 382.4ZM584.983 454.721C584.241 455.487 583.487 456.241 582.721 456.983L618.066 490.066L584.983 454.721ZM513.6 485.614C512.533 485.631 511.467 485.631 510.4 485.614L512 534L513.6 485.614ZM441.279 456.983C440.513 456.241 439.759 455.487 439.017 454.721L405.934 490.066L441.279 456.983ZM410.386 385.6C410.369 384.533 410.369 383.467 410.386 382.4L362 384L410.386 385.6ZM439.017 313.279C439.759 312.513 440.513 311.759 441.279 311.017L405.934 277.934L439.017 313.279Z" fill="#888888" fill-opacity="0.5"/>
<path d="M512 234L516.997 233.835C516.908 231.139 514.697 229 512 229C509.303 229 507.092 231.139 507.003 233.835L512 234ZM513.6 282.386L513.521 287.385C514.889 287.407 516.206 286.867 517.166 285.891C518.125 284.915 518.642 283.588 518.597 282.221L513.6 282.386ZM510.4 282.386L505.403 282.221C505.358 283.588 505.875 284.915 506.834 285.891C507.794 286.867 509.111 287.407 510.479 287.385L510.4 282.386ZM582.721 311.017L579.304 307.366C578.305 308.302 577.733 309.605 577.721 310.974C577.709 312.342 578.259 313.655 579.242 314.608L582.721 311.017ZM584.983 313.279L581.392 316.758C582.345 317.741 583.658 318.291 585.026 318.279C586.395 318.267 587.698 317.695 588.634 316.696L584.983 313.279ZM618.066 277.934L621.716 281.351C623.56 279.382 623.509 276.306 621.602 274.398C619.694 272.491 616.618 272.44 614.649 274.284L618.066 277.934ZM613.614 382.4L613.779 377.403C612.412 377.358 611.085 377.875 610.109 378.834C609.133 379.794 608.593 381.111 608.615 382.479L613.614 382.4ZM613.614 385.6L608.615 385.521C608.593 386.889 609.133 388.206 610.109 389.166C611.085 390.125 612.412 390.642 613.779 390.597L613.614 385.6ZM662 384L662.165 388.997C664.861 388.908 667 386.697 667 384C667 381.303 664.861 379.092 662.165 379.003L662 384ZM584.983 454.721L588.634 451.304C587.698 450.305 586.395 449.733 585.026 449.721C583.658 449.709 582.345 450.259 581.392 451.242L584.983 454.721ZM582.721 456.983L579.242 453.392C578.259 454.345 577.709 455.658 577.721 457.026C577.733 458.395 578.305 459.698 579.304 460.634L582.721 456.983ZM618.066 490.066L614.649 493.716C616.618 495.56 619.694 495.509 621.602 493.602C623.509 491.694 623.56 488.618 621.716 486.649L618.066 490.066ZM513.6 485.614L518.597 485.779C518.642 484.412 518.125 483.085 517.166 482.109C516.206 481.133 514.889 480.593 513.521 480.615L513.6 485.614ZM510.4 485.614L510.479 480.615C509.111 480.593 507.794 481.133 506.834 482.109C505.875 483.085 505.358 484.412 505.403 485.779L510.4 485.614ZM512 534L507.003 534.165C507.092 536.861 509.303 539 512 539C514.697 539 516.908 536.861 516.997 534.165L512 534ZM441.279 456.983L444.696 460.634C445.695 459.698 446.267 458.395 446.279 457.026C446.291 455.658 445.741 454.345 444.758 453.392L441.279 456.983ZM439.017 454.721L442.608 451.242C441.655 450.259 440.342 449.709 438.974 449.721C437.605 449.733 436.302 450.305 435.366 451.304L439.017 454.721ZM405.934 490.066L402.284 486.649C400.44 488.618 400.491 491.694 402.398 493.602C404.306 495.509 407.382 495.56 409.351 493.716L405.934 490.066ZM410.386 385.6L410.221 390.597C411.588 390.642 412.915 390.125 413.891 389.166C414.867 388.206 415.407 386.889 415.385 385.521L410.386 385.6ZM410.386 382.4L415.385 382.479C415.407 381.111 414.867 379.794 413.891 378.834C412.915 377.875 411.588 377.358 410.221 377.403L410.386 382.4ZM362 384L361.835 379.003C359.139 379.092 357 381.303 357 384C357 386.697 359.139 388.908 361.835 388.997L362 384ZM439.017 313.279L435.366 316.696C436.302 317.695 437.605 318.267 438.974 318.279C440.342 318.291 441.655 317.741 442.608 316.758L439.017 313.279ZM441.279 311.017L444.758 314.608C445.741 313.655 446.291 312.342 446.279 310.974C446.267 309.605 445.695 308.302 444.696 307.366L441.279 311.017ZM405.934 277.934L409.351 274.284C407.382 272.44 404.306 272.491 402.398 274.398C400.491 276.306 400.44 279.382 402.284 281.351L405.934 277.934ZM507.003 234.165L508.602 282.551L518.597 282.221L516.997 233.835L507.003 234.165ZM515.398 282.551L516.997 234.165L507.003 233.835L505.403 282.221L515.398 282.551ZM510.479 287.385C511.493 287.369 512.507 287.369 513.521 287.385L513.678 277.386C512.559 277.369 511.441 277.369 510.322 277.386L510.479 287.385ZM579.242 314.608C579.97 315.313 580.687 316.03 581.392 316.758L588.574 309.8C587.795 308.996 587.004 308.205 586.201 307.426L579.242 314.608ZM614.416 274.517L581.333 309.862L588.634 316.696L621.716 281.351L614.416 274.517ZM586.138 314.667L621.483 281.584L614.649 274.284L579.304 307.366L586.138 314.667ZM608.615 382.479C608.631 383.493 608.631 384.507 608.615 385.521L618.614 385.678C618.631 384.559 618.631 383.441 618.614 382.322L608.615 382.479ZM661.835 379.003L613.449 380.602L613.779 390.597L662.165 388.997L661.835 379.003ZM613.449 387.398L661.835 388.997L662.165 379.003L613.779 377.403L613.449 387.398ZM581.392 451.242C580.687 451.97 579.97 452.687 579.242 453.392L586.2 460.574C587.004 459.795 587.795 459.004 588.574 458.2L581.392 451.242ZM621.483 486.416L586.138 453.333L579.304 460.634L614.649 493.716L621.483 486.416ZM581.333 458.138L614.416 493.483L621.716 486.649L588.634 451.304L581.333 458.138ZM513.521 480.615C512.507 480.631 511.493 480.631 510.479 480.615L510.322 490.614C511.441 490.631 512.559 490.631 513.678 490.614L513.521 480.615ZM516.997 533.835L515.398 485.449L505.403 485.779L507.003 534.165L516.997 533.835ZM508.602 485.449L507.003 533.835L516.997 534.165L518.597 485.779L508.602 485.449ZM444.758 453.392C444.03 452.687 443.313 451.97 442.608 451.242L435.426 458.201C436.205 459.004 436.996 459.795 437.8 460.574L444.758 453.392ZM409.584 493.483L442.667 458.138L435.366 451.304L402.284 486.649L409.584 493.483ZM437.862 453.333L402.517 486.416L409.351 493.716L444.696 460.634L437.862 453.333ZM415.385 385.521C415.369 384.507 415.369 383.493 415.385 382.479L405.386 382.322C405.369 383.441 405.369 384.559 405.386 385.678L415.385 385.521ZM362.165 388.997L410.551 387.398L410.221 377.403L361.835 379.003L362.165 388.997ZM410.551 380.602L362.165 379.003L361.835 388.997L410.221 390.597L410.551 380.602ZM442.608 316.758C443.313 316.03 444.03 315.313 444.758 314.608L437.8 307.426C436.996 308.205 436.205 308.996 435.426 309.8L442.608 316.758ZM402.517 281.584L437.862 314.667L444.696 307.366L409.351 274.284L402.517 281.584ZM442.667 309.862L409.584 274.517L402.284 281.351L435.366 316.696L442.667 309.862Z" fill="currentColor"/>
<path d="M489.019 439.481C503.734 445.576 520.267 445.576 534.981 439.481C549.695 433.386 561.386 421.695 567.481 406.981C573.576 392.266 573.576 375.733 567.481 361.019C561.386 346.305 549.695 334.614 534.981 328.519C520.267 322.424 503.734 322.424 489.019 328.519C474.305 334.614 462.614 346.305 456.519 361.019C450.424 375.733 450.424 392.266 456.519 406.981C462.614 421.695 474.305 433.386 489.019 439.481Z" fill="#888888" fill-opacity="0.5" stroke="currentColor" stroke-width="10" stroke-linecap="round" stroke-linejoin="round"/>
<g opacity="0.25">
<path d="M512 234L516.592 372.913L618.066 277.934L523.087 379.408L662 384L523.087 388.592L618.066 490.066L516.592 395.087L512 534L507.408 395.087L405.934 490.066L500.913 388.592L362 384L500.913 379.408L405.934 277.934L507.408 372.913L512 234Z" stroke="currentColor" stroke-width="2.5" stroke-linecap="round" stroke-linejoin="round"/>
<path d="M550.891 477.891C525.989 488.205 498.011 488.205 473.109 477.891V477.891C448.208 467.576 428.424 447.792 418.109 422.891V422.891C407.795 397.989 407.795 370.011 418.109 345.109V345.109C428.424 320.208 448.208 300.424 473.109 290.109V290.109C498.011 279.795 525.989 279.795 550.891 290.109V290.109C575.792 300.424 595.576 320.208 605.891 345.109V345.109C616.205 370.011 616.205 397.989 605.891 422.891V422.891C595.576 447.792 575.792 467.576 550.891 477.891V477.891Z" stroke="currentColor" stroke-width="2.5" stroke-linecap="round" stroke-linejoin="round"/>
<path d="M489.019 439.481C503.734 445.576 520.267 445.576 534.981 439.481V439.481C549.695 433.386 561.386 421.695 567.481 406.981V406.981C573.576 392.266 573.576 375.733 567.481 361.019V361.019C561.386 346.305 549.695 334.614 534.981 328.519V328.519C520.267 322.424 503.734 322.424 489.019 328.519V328.519C474.305 334.614 462.614 346.305 456.519 361.019V361.019C450.424 375.733 450.424 392.266 456.519 406.981V406.981C462.614 421.695 474.305 433.386 489.019 439.481V439.481Z" stroke="currentColor" stroke-width="2.5" stroke-linecap="round" stroke-linejoin="round"/>
</g>
<path d="M160 612L160.999 611.967C160.982 611.428 160.539 611 160 611C159.461 611 159.018 611.428 159.001 611.967L160 612ZM160.64 631.354L160.624 632.354C160.898 632.359 161.161 632.25 161.353 632.055C161.545 631.86 161.648 631.595 161.639 631.321L160.64 631.354ZM159.36 631.354L158.361 631.321C158.352 631.595 158.455 631.86 158.647 632.055C158.839 632.25 159.102 632.359 159.376 632.354L159.36 631.354ZM188.288 642.807L187.605 642.077C187.405 642.264 187.291 642.524 187.288 642.798C187.286 643.072 187.396 643.334 187.593 643.525L188.288 642.807ZM189.193 643.712L188.475 644.407C188.666 644.604 188.928 644.714 189.202 644.712C189.476 644.709 189.736 644.595 189.923 644.395L189.193 643.712ZM202.426 629.574L203.156 630.257C203.525 629.863 203.515 629.248 203.134 628.866C202.752 628.485 202.137 628.475 201.743 628.844L202.426 629.574ZM200.646 671.36L200.679 670.361C200.405 670.352 200.14 670.455 199.945 670.647C199.75 670.839 199.641 671.102 199.646 671.376L200.646 671.36ZM200.646 672.64L199.646 672.624C199.641 672.898 199.75 673.161 199.945 673.353C200.14 673.545 200.405 673.648 200.679 673.639L200.646 672.64ZM220 672L220.033 672.999C220.572 672.982 221 672.539 221 672C221 671.461 220.572 671.018 220.033 671.001L220 672ZM189.193 700.288L189.923 699.605C189.736 699.405 189.476 699.291 189.202 699.288C188.928 699.286 188.666 699.396 188.475 699.593L189.193 700.288ZM188.288 701.193L187.593 700.475C187.396 700.666 187.286 700.928 187.288 701.202C187.291 701.476 187.405 701.736 187.605 701.923L188.288 701.193ZM202.426 714.426L201.743 715.156C202.137 715.525 202.752 715.515 203.134 715.134C203.515 714.752 203.525 714.137 203.156 713.743L202.426 714.426ZM160.64 712.646L161.639 712.679C161.648 712.405 161.545 712.14 161.353 711.945C161.161 711.75 160.898 711.641 160.624 711.646L160.64 712.646ZM159.36 712.646L159.376 711.646C159.102 711.641 158.839 711.75 158.647 711.945C158.455 712.14 158.352 712.405 158.361 712.679L159.36 712.646ZM160 732L159.001 732.033C159.018 732.572 159.461 733 160 733C160.539 733 160.982 732.572 160.999 732.033L160 732ZM131.712 701.193L132.395 701.923C132.595 701.736 132.709 701.476 132.712 701.202C132.714 700.928 132.604 700.666 132.407 700.475L131.712 701.193ZM130.807 700.288L131.525 699.593C131.334 699.396 131.072 699.286 130.798 699.288C130.524 699.291 130.264 699.405 130.077 699.605L130.807 700.288ZM117.574 714.426L116.844 713.743C116.475 714.137 116.485 714.752 116.866 715.134C117.248 715.515 117.863 715.525 118.257 715.156L117.574 714.426ZM119.354 672.64L119.321 673.639C119.595 673.648 119.86 673.545 120.055 673.353C120.25 673.161 120.359 672.898 120.354 672.624L119.354 672.64ZM119.354 671.36L120.354 671.376C120.359 671.102 120.25 670.839 120.055 670.647C119.86 670.455 119.595 670.352 119.321 670.361L119.354 671.36ZM100 672L99.967 671.001C99.4278 671.018 99 671.461 99 672C99 672.539 99.4278 672.982 99.967 672.999L100 672ZM130.807 643.712L130.077 644.395C130.264 644.595 130.524 644.709 130.798 644.712C131.072 644.714 131.334 644.604 131.525 644.407L130.807 643.712ZM131.712 642.807L132.407 643.525C132.604 643.334 132.714 643.072 132.712 642.798C132.709 642.524 132.595 642.264 132.395 642.077L131.712 642.807ZM117.574 629.574L118.257 628.844C117.863 628.475 117.248 628.485 116.866 628.866C116.485 629.248 116.475 629.863 116.844 630.257L117.574 629.574ZM159.001 612.033L159.64 631.387L161.639 631.321L160.999 611.967L159.001 612.033ZM160.36 631.387L160.999 612.033L159.001 611.967L158.361 631.321L160.36 631.387ZM159.376 632.354C159.792 632.348 160.208 632.348 160.624 632.354L160.656 630.354C160.219 630.348 159.781 630.348 159.344 630.354L159.376 632.354ZM187.593 643.525C187.891 643.814 188.186 644.109 188.475 644.407L189.911 643.016C189.607 642.702 189.298 642.393 188.984 642.089L187.593 643.525ZM201.696 628.89L188.463 643.028L189.923 644.395L203.156 630.257L201.696 628.89ZM188.972 643.537L203.11 630.304L201.743 628.844L187.605 642.077L188.972 643.537ZM199.646 671.376C199.652 671.792 199.652 672.208 199.646 672.624L201.646 672.656C201.652 672.219 201.652 671.781 201.646 671.344L199.646 671.376ZM219.967 671.001L200.613 671.64L200.679 673.639L220.033 672.999L219.967 671.001ZM200.613 672.36L219.967 672.999L220.033 671.001L200.679 670.361L200.613 672.36ZM188.475 699.593C188.186 699.891 187.891 700.186 187.593 700.475L188.984 701.911C189.298 701.607 189.607 701.298 189.911 700.984L188.475 699.593ZM203.11 713.696L188.972 700.463L187.605 701.923L201.743 715.156L203.11 713.696ZM188.463 700.972L201.696 715.11L203.156 713.743L189.923 699.605L188.463 700.972ZM160.624 711.646C160.208 711.652 159.792 711.652 159.376 711.646L159.344 713.646C159.781 713.652 160.219 713.652 160.656 713.646L160.624 711.646ZM160.999 731.967L160.36 712.613L158.361 712.679L159.001 732.033L160.999 731.967ZM159.64 712.613L159.001 731.967L160.999 732.033L161.639 712.679L159.64 712.613ZM132.407 700.475C132.109 700.186 131.814 699.891 131.525 699.593L130.089 700.984C130.393 701.298 130.702 701.607 131.016 701.911L132.407 700.475ZM118.304 715.11L131.537 700.972L130.077 699.605L116.844 713.743L118.304 715.11ZM131.028 700.463L116.89 713.696L118.257 715.156L132.395 701.923L131.028 700.463ZM120.354 672.624C120.348 672.208 120.348 671.792 120.354 671.376L118.354 671.344C118.348 671.781 118.348 672.219 118.354 672.656L120.354 672.624ZM100.033 672.999L119.387 672.36L119.321 670.361L99.967 671.001L100.033 672.999ZM119.387 671.64L100.033 671.001L99.967 672.999L119.321 673.639L119.387 671.64ZM131.525 644.407C131.814 644.109 132.109 643.814 132.407 643.525L131.016 642.089C130.702 642.393 130.393 642.702 130.089 643.016L131.525 644.407ZM116.89 630.304L131.028 643.537L132.395 642.077L118.257 628.844L116.89 630.304ZM131.537 643.028L118.304 628.89L116.844 630.257L130.077 644.395L131.537 643.028Z" fill="currentColor"/>
<path d="M150.808 694.192C156.693 696.63 163.307 696.63 169.192 694.192V694.192C175.078 691.754 179.754 687.078 182.192 681.192V681.192C184.63 675.307 184.63 668.693 182.192 662.808V662.808C179.754 656.922 175.078 652.246 169.192 649.808V649.808C163.307 647.37 156.693 647.37 150.808 649.808V649.808C144.922 652.246 140.246 656.922 137.808 662.808V662.808C135.37 668.693 135.37 675.307 137.808 681.192V681.192C140.246 687.078 144.922 691.754 150.808 694.192V694.192Z" stroke="currentColor" stroke-width="2" stroke-linecap="round" stroke-linejoin="round"/>
<path d="M339.998 611.868L339.498 611.884V611.884L339.998 611.868ZM332.002 611.868L331.502 611.851V611.851L332.002 611.868ZM331.362 631.222L330.863 631.206L331.362 631.222ZM332.507 634.158L332.151 634.509H332.151L332.507 634.158ZM335.423 635.354L335.415 634.854L335.423 635.354ZM336.577 635.354L336.585 634.854L336.577 635.354ZM339.493 634.158L339.136 633.808V633.808L339.493 634.158ZM340.638 631.222L340.138 631.239V631.239L340.638 631.222ZM296.307 626.653L295.965 627.018L296.307 626.653ZM290.653 632.307L291.018 631.965L290.653 632.307ZM303.886 646.445L304.251 646.103L303.886 646.445ZM306.772 647.711L306.776 647.211L306.772 647.711ZM309.679 646.495L309.32 646.147H309.32L309.679 646.495ZM310.495 645.679L310.147 645.32V645.32L310.495 645.679ZM311.711 642.772L311.211 642.776L311.711 642.772ZM310.445 639.886L310.103 640.251L310.445 639.886ZM381.347 632.307L380.982 631.965L381.347 632.307ZM375.693 626.653L376.035 627.018L375.693 626.653ZM361.555 639.886L361.897 640.251H361.897L361.555 639.886ZM360.289 642.772L360.789 642.776L360.289 642.772ZM361.505 645.679L361.853 645.32H361.853L361.505 645.679ZM362.321 646.495L361.962 646.843V646.843L362.321 646.495ZM365.228 647.711L365.232 648.211L365.228 647.711ZM368.114 646.445L368.479 646.787L368.114 646.445ZM298.158 668.507L298.509 668.151V668.151L298.158 668.507ZM299.354 671.423L298.854 671.415L299.354 671.423ZM295.222 667.362L295.206 666.863L295.222 667.362ZM275.868 668.002L275.851 667.502H275.851L275.868 668.002ZM275.868 675.998L275.884 675.498H275.884L275.868 675.998ZM295.222 676.638L295.239 676.138H295.239L295.222 676.638ZM298.158 675.493L297.808 675.136H297.808L298.158 675.493ZM299.354 672.577L298.854 672.585L299.354 672.577ZM373.842 668.507L374.192 668.864V668.864L373.842 668.507ZM376.778 667.362L376.794 666.863L376.778 667.362ZM372.646 671.423L373.146 671.415V671.415L372.646 671.423ZM372.646 672.577L373.146 672.585L372.646 672.577ZM373.842 675.493L373.491 675.849L373.842 675.493ZM376.778 676.638L376.761 676.138L376.778 676.638ZM396.132 675.998L396.116 675.498L396.132 675.998ZM396.132 668.002L396.149 667.502L396.132 668.002ZM306.772 696.289L306.776 696.789L306.772 696.289ZM309.679 697.505L309.32 697.853V697.853L309.679 697.505ZM303.886 697.555L304.251 697.897V697.897L303.886 697.555ZM290.653 711.693L291.018 712.035L290.653 711.693ZM296.307 717.347L295.965 716.982L296.307 717.347ZM310.445 704.114L310.787 704.479L310.445 704.114ZM311.711 701.228L312.211 701.232L311.711 701.228ZM310.495 698.321L310.843 697.962L310.495 698.321ZM368.114 697.555L367.749 697.897V697.897L368.114 697.555ZM362.321 697.505L361.962 697.157H361.962L362.321 697.505ZM361.505 698.321L361.157 697.962V697.962L361.505 698.321ZM361.555 704.114L361.897 703.749H361.897L361.555 704.114ZM375.693 717.347L376.035 716.982L375.693 717.347ZM381.347 711.693L380.982 712.035L381.347 711.693ZM332.507 709.842L332.864 710.192H332.864L332.507 709.842ZM335.423 708.646L335.415 709.146H335.415L335.423 708.646ZM331.362 712.778L330.863 712.794L331.362 712.778ZM332.002 732.132L331.502 732.149L332.002 732.132ZM339.998 732.132L339.498 732.116L339.998 732.132ZM340.638 712.778L340.138 712.761L340.638 712.778ZM339.493 709.842L339.849 709.491L339.493 709.842ZM336.577 708.646L336.585 709.146L336.577 708.646ZM325.277 646.112L325.086 645.65L325.277 646.112ZM361.888 661.277L362.35 661.086L361.888 661.277ZM343.662 690.497L343.47 690.035L343.662 690.497ZM328.338 690.497L328.53 690.035L328.338 690.497ZM354.497 679.662L354.035 679.47L354.497 679.662ZM354.497 664.338L354.035 664.53L354.497 664.338ZM343.662 653.503L343.47 653.965L343.662 653.503ZM328.338 653.503L328.53 653.965L328.338 653.503ZM317.503 664.338L317.041 664.147L317.503 664.338ZM317.503 679.662L317.965 679.47L317.503 679.662ZM336 608.5C337.888 608.5 339.436 609.997 339.498 611.884L340.498 611.851C340.417 609.425 338.427 607.5 336 607.5V608.5ZM332.502 611.884C332.564 609.997 334.112 608.5 336 608.5V607.5C333.573 607.5 331.583 609.425 331.502 611.851L332.502 611.884ZM331.862 631.239L332.502 611.884L331.502 611.851L330.863 631.206L331.862 631.239ZM332.864 633.808C332.193 633.125 331.83 632.196 331.862 631.239L330.863 631.206C330.822 632.437 331.288 633.63 332.151 634.509L332.864 633.808ZM335.415 634.854C334.458 634.869 333.535 634.491 332.864 633.808L332.151 634.509C333.014 635.387 334.2 635.873 335.431 635.854L335.415 634.854ZM336.585 634.854C336.195 634.848 335.805 634.848 335.415 634.854L335.431 635.854C335.81 635.848 336.19 635.848 336.569 635.854L336.585 634.854ZM339.136 633.808C338.465 634.491 337.543 634.869 336.585 634.854L336.569 635.854C337.8 635.873 338.986 635.387 339.849 634.509L339.136 633.808ZM340.138 631.239C340.17 632.196 339.807 633.125 339.136 633.808L339.849 634.509C340.712 633.63 341.178 632.437 341.137 631.206L340.138 631.239ZM339.498 611.884L340.138 631.239L341.137 631.206L340.498 611.851L339.498 611.884ZM291.099 627.099C292.434 625.764 294.587 625.728 295.965 627.018L296.649 626.288C294.876 624.629 292.108 624.675 290.392 626.392L291.099 627.099ZM291.018 631.965C289.728 630.587 289.764 628.434 291.099 627.099L290.392 626.392C288.675 628.108 288.629 630.876 290.288 632.649L291.018 631.965ZM304.251 646.103L291.018 631.965L290.288 632.649L303.521 646.787L304.251 646.103ZM306.776 647.211C305.819 647.203 304.906 646.803 304.251 646.103L303.521 646.787C304.363 647.686 305.536 648.201 306.768 648.211L306.776 647.211ZM309.32 646.147C308.654 646.835 307.734 647.22 306.776 647.211L306.768 648.211C307.999 648.222 309.181 647.728 310.038 646.843L309.32 646.147ZM310.147 645.32C309.867 645.592 309.592 645.867 309.32 646.147L310.038 646.843C310.302 646.571 310.571 646.302 310.843 646.038L310.147 645.32ZM311.211 642.776C311.22 643.734 310.835 644.654 310.147 645.32L310.843 646.038C311.728 645.181 312.222 643.999 312.211 642.768L311.211 642.776ZM310.103 640.251C310.803 640.906 311.203 641.819 311.211 642.776L312.211 642.768C312.201 641.536 311.686 640.363 310.787 639.521L310.103 640.251ZM295.965 627.018L310.103 640.251L310.787 639.521L296.649 626.288L295.965 627.018ZM380.901 627.099C382.236 628.434 382.272 630.587 380.982 631.965L381.712 632.649C383.371 630.876 383.325 628.108 381.608 626.392L380.901 627.099ZM376.035 627.018C377.413 625.728 379.566 625.764 380.901 627.099L381.608 626.392C379.892 624.675 377.124 624.629 375.351 626.288L376.035 627.018ZM361.897 640.251L376.035 627.018L375.351 626.288L361.213 639.521L361.897 640.251ZM360.789 642.776C360.797 641.819 361.197 640.906 361.897 640.251L361.213 639.521C360.314 640.363 359.799 641.536 359.789 642.768L360.789 642.776ZM361.853 645.32C361.165 644.654 360.78 643.734 360.789 642.776L359.789 642.768C359.778 643.999 360.272 645.181 361.157 646.038L361.853 645.32ZM362.68 646.147C362.408 645.867 362.133 645.592 361.853 645.32L361.157 646.038C361.429 646.302 361.698 646.571 361.962 646.843L362.68 646.147ZM365.224 647.211C364.266 647.22 363.346 646.835 362.68 646.147L361.962 646.843C362.819 647.728 364.001 648.222 365.232 648.211L365.224 647.211ZM367.749 646.103C367.094 646.803 366.181 647.203 365.224 647.211L365.232 648.211C366.464 648.201 367.637 647.686 368.479 646.787L367.749 646.103ZM380.982 631.965L367.749 646.103L368.479 646.787L381.712 632.649L380.982 631.965ZM297.808 668.864C298.491 669.535 298.869 670.458 298.854 671.415L299.854 671.431C299.873 670.2 299.387 669.014 298.509 668.151L297.808 668.864ZM295.239 667.862C296.196 667.83 297.125 668.193 297.808 668.864L298.509 668.151C297.63 667.288 296.437 666.822 295.206 666.863L295.239 667.862ZM275.884 668.502L295.239 667.862L295.206 666.863L275.851 667.502L275.884 668.502ZM272.5 672C272.5 670.112 273.997 668.564 275.884 668.502L275.851 667.502C273.425 667.583 271.5 669.573 271.5 672H272.5ZM275.884 675.498C273.997 675.436 272.5 673.888 272.5 672H271.5C271.5 674.427 273.425 676.417 275.851 676.498L275.884 675.498ZM295.239 676.138L275.884 675.498L275.851 676.498L295.206 677.137L295.239 676.138ZM297.808 675.136C297.125 675.807 296.196 676.17 295.239 676.138L295.206 677.137C296.437 677.178 297.63 676.712 298.509 675.849L297.808 675.136ZM298.854 672.585C298.869 673.543 298.491 674.465 297.808 675.136L298.509 675.849C299.387 674.986 299.873 673.8 299.854 672.569L298.854 672.585ZM298.854 671.415C298.848 671.805 298.848 672.195 298.854 672.585L299.854 672.569C299.848 672.19 299.848 671.81 299.854 671.431L298.854 671.415ZM374.192 668.864C374.875 668.193 375.804 667.83 376.761 667.862L376.794 666.863C375.563 666.822 374.37 667.288 373.491 668.151L374.192 668.864ZM373.146 671.415C373.131 670.458 373.509 669.535 374.192 668.864L373.491 668.151C372.613 669.014 372.127 670.2 372.146 671.431L373.146 671.415ZM373.146 672.585C373.152 672.195 373.152 671.805 373.146 671.415L372.146 671.431C372.152 671.81 372.152 672.19 372.146 672.569L373.146 672.585ZM374.192 675.136C373.509 674.465 373.131 673.542 373.146 672.585L372.146 672.569C372.127 673.8 372.613 674.986 373.491 675.849L374.192 675.136ZM376.761 676.138C375.804 676.17 374.875 675.807 374.192 675.136L373.491 675.849C374.37 676.712 375.563 677.178 376.794 677.137L376.761 676.138ZM396.116 675.498L376.761 676.138L376.794 677.137L396.149 676.498L396.116 675.498ZM399.5 672C399.5 673.888 398.003 675.436 396.116 675.498L396.149 676.498C398.575 676.417 400.5 674.427 400.5 672H399.5ZM396.116 668.502C398.003 668.564 399.5 670.112 399.5 672H400.5C400.5 669.573 398.575 667.583 396.149 667.502L396.116 668.502ZM376.761 667.862L396.116 668.502L396.149 667.502L376.794 666.863L376.761 667.862ZM306.776 696.789C307.734 696.78 308.654 697.165 309.32 697.853L310.038 697.157C309.181 696.272 307.999 695.778 306.768 695.789L306.776 696.789ZM304.251 697.897C304.906 697.197 305.819 696.797 306.776 696.789L306.768 695.789C305.536 695.799 304.363 696.314 303.521 697.213L304.251 697.897ZM291.018 712.035L304.251 697.897L303.521 697.213L290.288 711.351L291.018 712.035ZM291.099 716.901C289.764 715.566 289.728 713.413 291.018 712.035L290.288 711.351C288.629 713.124 288.675 715.892 290.392 717.608L291.099 716.901ZM295.965 716.982C294.587 718.272 292.434 718.236 291.099 716.901L290.392 717.608C292.108 719.325 294.876 719.371 296.649 717.712L295.965 716.982ZM310.103 703.749L295.965 716.982L296.649 717.712L310.787 704.479L310.103 703.749ZM311.211 701.224C311.203 702.181 310.803 703.094 310.103 703.749L310.787 704.479C311.686 703.637 312.201 702.464 312.211 701.232L311.211 701.224ZM310.147 698.68C310.835 699.346 311.22 700.266 311.211 701.224L312.211 701.232C312.222 700.001 311.728 698.819 310.843 697.962L310.147 698.68ZM309.32 697.853C309.592 698.133 309.867 698.408 310.147 698.68L310.843 697.962C310.571 697.698 310.302 697.429 310.038 697.157L309.32 697.853ZM365.224 696.789C366.181 696.797 367.094 697.197 367.749 697.897L368.479 697.213C367.637 696.314 366.464 695.799 365.232 695.789L365.224 696.789ZM362.68 697.853C363.346 697.165 364.266 696.78 365.224 696.789L365.232 695.789C364.001 695.778 362.819 696.272 361.962 697.157L362.68 697.853ZM361.853 698.68C362.133 698.408 362.408 698.133 362.68 697.853L361.962 697.157C361.698 697.429 361.429 697.698 361.157 697.962L361.853 698.68ZM360.789 701.224C360.78 700.266 361.165 699.346 361.853 698.68L361.157 697.962C360.272 698.819 359.778 700.001 359.789 701.232L360.789 701.224ZM361.897 703.749C361.197 703.094 360.797 702.181 360.789 701.224L359.789 701.232C359.799 702.464 360.314 703.637 361.213 704.479L361.897 703.749ZM376.035 716.982L361.897 703.749L361.213 704.479L375.351 717.712L376.035 716.982ZM380.901 716.901C379.566 718.236 377.413 718.272 376.035 716.982L375.351 717.712C377.124 719.371 379.892 719.325 381.608 717.608L380.901 716.901ZM380.982 712.035C382.272 713.413 382.236 715.566 380.901 716.901L381.608 717.608C383.325 715.892 383.371 713.124 381.712 711.351L380.982 712.035ZM367.749 697.897L380.982 712.035L381.712 711.351L368.479 697.213L367.749 697.897ZM332.864 710.192C333.535 709.509 334.458 709.131 335.415 709.146L335.431 708.146C334.2 708.127 333.014 708.613 332.151 709.491L332.864 710.192ZM331.862 712.761C331.83 711.804 332.193 710.875 332.864 710.192L332.151 709.491C331.288 710.37 330.822 711.563 330.863 712.794L331.862 712.761ZM332.502 732.116L331.862 712.761L330.863 712.794L331.502 732.149L332.502 732.116ZM336 735.5C334.112 735.5 332.564 734.003 332.502 732.116L331.502 732.149C331.583 734.575 333.573 736.5 336 736.5V735.5ZM339.498 732.116C339.436 734.003 337.888 735.5 336 735.5V736.5C338.427 736.5 340.417 734.575 340.498 732.149L339.498 732.116ZM340.138 712.761L339.498 732.116L340.498 732.149L341.137 712.794L340.138 712.761ZM339.136 710.192C339.807 710.875 340.17 711.804 340.138 712.761L341.137 712.794C341.178 711.563 340.712 710.37 339.849 709.491L339.136 710.192ZM336.585 709.146C337.542 709.131 338.465 709.509 339.136 710.192L339.849 709.491C338.986 708.613 337.8 708.127 336.569 708.146L336.585 709.146ZM335.415 709.146C335.805 709.152 336.195 709.152 336.585 709.146L336.569 708.146C336.19 708.152 335.81 708.152 335.431 708.146L335.415 709.146ZM325.086 698.35C332.074 701.245 339.926 701.245 346.914 698.35L346.532 697.426C339.788 700.219 332.212 700.219 325.468 697.426L325.086 698.35ZM309.65 682.914C312.545 689.903 318.097 695.455 325.086 698.35L325.468 697.426C318.725 694.633 313.367 689.275 310.574 682.532L309.65 682.914ZM309.65 661.086C306.755 668.074 306.755 675.926 309.65 682.914L310.574 682.532C307.781 675.788 307.781 668.212 310.574 661.468L309.65 661.086ZM325.086 645.65C318.097 648.545 312.545 654.097 309.65 661.086L310.574 661.468C313.367 654.725 318.725 649.367 325.468 646.574L325.086 645.65ZM346.914 645.65C339.926 642.755 332.074 642.755 325.086 645.65L325.468 646.574C332.212 643.781 339.788 643.781 346.532 646.574L346.914 645.65ZM362.35 661.086C359.455 654.097 353.903 648.545 346.914 645.65L346.532 646.574C353.275 649.367 358.633 654.725 361.426 661.468L362.35 661.086ZM362.35 682.914C365.245 675.926 365.245 668.074 362.35 661.086L361.426 661.468C364.219 668.212 364.219 675.788 361.426 682.532L362.35 682.914ZM346.914 698.35C353.903 695.455 359.455 689.903 362.35 682.914L361.426 682.532C358.633 689.275 353.275 694.633 346.532 697.426L346.914 698.35ZM343.47 690.035C338.687 692.016 333.313 692.016 328.53 690.035L328.147 690.959C333.175 693.042 338.825 693.042 343.853 690.959L343.47 690.035ZM354.035 679.47C352.054 684.253 348.253 688.054 343.47 690.035L343.853 690.959C348.881 688.876 352.876 684.881 354.959 679.853L354.035 679.47ZM354.035 664.53C356.016 669.313 356.016 674.687 354.035 679.47L354.959 679.853C357.042 674.825 357.042 669.175 354.959 664.147L354.035 664.53ZM343.47 653.965C348.253 655.946 352.054 659.747 354.035 664.53L354.959 664.147C352.876 659.119 348.881 655.124 343.853 653.041L343.47 653.965ZM328.53 653.965C333.313 651.984 338.687 651.984 343.47 653.965L343.853 653.041C338.825 650.958 333.175 650.958 328.147 653.041L328.53 653.965ZM317.965 664.53C319.946 659.747 323.747 655.946 328.53 653.965L328.147 653.041C323.119 655.124 319.124 659.119 317.041 664.147L317.965 664.53ZM317.965 679.47C315.984 674.687 315.984 669.313 317.965 664.53L317.041 664.147C314.958 669.175 314.958 674.825 317.041 679.853L317.965 679.47ZM328.53 690.035C323.747 688.054 319.946 684.253 317.965 679.47L317.041 679.853C319.124 684.881 323.119 688.876 328.147 690.959L328.53 690.035Z" fill="currentColor"/>
<path fill-rule="evenodd" clip-rule="evenodd" d="M512.64 631.354L512 612L511.36 631.354C511.787 631.348 512.213 631.348 512.64 631.354ZM540.288 642.807C540.595 643.104 540.896 643.405 541.193 643.712L554.426 629.574L540.288 642.807ZM552.646 671.36C552.652 671.787 552.652 672.213 552.646 672.64L572 672L552.646 671.36ZM541.193 700.288C540.896 700.595 540.595 700.896 540.288 701.193L554.426 714.426L541.193 700.288ZM512.64 712.646C512.213 712.652 511.787 712.652 511.36 712.646L512 732L512.64 712.646ZM483.712 701.193C483.405 700.896 483.104 700.595 482.807 700.288L469.574 714.426L483.712 701.193ZM471.354 672.64C471.348 672.213 471.348 671.787 471.354 671.36L452 672L471.354 672.64ZM482.807 643.712C483.104 643.405 483.405 643.104 483.712 642.807L469.574 629.574L482.807 643.712Z" fill="currentColor"/>
<path d="M512 612L513.999 611.934C513.963 610.856 513.079 610 512 610C510.921 610 510.037 610.856 510.001 611.934L512 612ZM512.64 631.354L512.608 633.354C513.156 633.363 513.683 633.147 514.066 632.756C514.45 632.366 514.657 631.835 514.639 631.288L512.64 631.354ZM511.36 631.354L509.361 631.288C509.343 631.835 509.55 632.366 509.934 632.756C510.317 633.147 510.844 633.363 511.392 633.354L511.36 631.354ZM540.288 642.807L538.922 641.347C538.522 641.721 538.293 642.242 538.288 642.789C538.284 643.337 538.504 643.862 538.897 644.243L540.288 642.807ZM541.193 643.712L539.757 645.103C540.138 645.496 540.663 645.716 541.211 645.712C541.758 645.707 542.279 645.478 542.653 645.078L541.193 643.712ZM554.426 629.574L555.887 630.94C556.624 630.153 556.603 628.922 555.841 628.159C555.078 627.397 553.847 627.376 553.06 628.113L554.426 629.574ZM552.646 671.36L552.712 669.361C552.165 669.343 551.634 669.55 551.244 669.934C550.853 670.317 550.637 670.844 550.646 671.392L552.646 671.36ZM552.646 672.64L550.646 672.608C550.637 673.156 550.853 673.683 551.244 674.066C551.634 674.45 552.165 674.657 552.712 674.639L552.646 672.64ZM572 672L572.066 673.999C573.144 673.963 574 673.079 574 672C574 670.921 573.144 670.037 572.066 670.001L572 672ZM541.193 700.288L542.653 698.922C542.279 698.522 541.758 698.293 541.211 698.288C540.663 698.284 540.138 698.504 539.757 698.897L541.193 700.288ZM540.288 701.193L538.897 699.757C538.504 700.138 538.284 700.663 538.288 701.211C538.293 701.758 538.522 702.279 538.922 702.653L540.288 701.193ZM554.426 714.426L553.06 715.887C553.847 716.624 555.078 716.603 555.841 715.841C556.603 715.078 556.624 713.847 555.887 713.06L554.426 714.426ZM512.64 712.646L514.639 712.712C514.657 712.165 514.45 711.634 514.066 711.244C513.683 710.853 513.156 710.637 512.608 710.646L512.64 712.646ZM511.36 712.646L511.392 710.646C510.844 710.637 510.317 710.853 509.934 711.244C509.55 711.634 509.343 712.165 509.361 712.712L511.36 712.646ZM512 732L510.001 732.066C510.037 733.144 510.921 734 512 734C513.079 734 513.963 733.144 513.999 732.066L512 732ZM483.712 701.193L485.078 702.653C485.478 702.279 485.707 701.758 485.712 701.211C485.716 700.663 485.496 700.138 485.103 699.757L483.712 701.193ZM482.807 700.288L484.243 698.897C483.862 698.504 483.337 698.284 482.789 698.288C482.242 698.293 481.721 698.522 481.347 698.922L482.807 700.288ZM469.574 714.426L468.113 713.06C467.376 713.847 467.397 715.078 468.159 715.841C468.922 716.603 470.153 716.624 470.94 715.887L469.574 714.426ZM471.354 672.64L471.288 674.639C471.835 674.657 472.366 674.45 472.756 674.066C473.147 673.683 473.363 673.156 473.354 672.608L471.354 672.64ZM471.354 671.36L473.354 671.392C473.363 670.844 473.147 670.317 472.756 669.934C472.366 669.55 471.835 669.343 471.288 669.361L471.354 671.36ZM452 672L451.934 670.001C450.856 670.037 450 670.921 450 672C450 673.079 450.856 673.963 451.934 673.999L452 672ZM482.807 643.712L481.347 645.078C481.721 645.478 482.242 645.707 482.789 645.712C483.337 645.716 483.862 645.496 484.243 645.103L482.807 643.712ZM483.712 642.807L485.103 644.243C485.496 643.862 485.716 643.337 485.712 642.789C485.707 642.242 485.478 641.721 485.078 641.347L483.712 642.807ZM469.574 629.574L470.94 628.113C470.153 627.376 468.922 627.397 468.159 628.159C467.397 628.922 467.376 630.153 468.113 630.94L469.574 629.574ZM510.001 612.066L510.641 631.42L514.639 631.288L513.999 611.934L510.001 612.066ZM513.359 631.42L513.999 612.066L510.001 611.934L509.361 631.288L513.359 631.42ZM511.392 633.354C511.797 633.348 512.203 633.348 512.608 633.354L512.671 629.355C512.224 629.348 511.776 629.348 511.329 629.355L511.392 633.354ZM538.897 644.243C539.188 644.525 539.475 644.812 539.757 645.103L542.63 642.32C542.318 641.998 542.002 641.682 541.68 641.37L538.897 644.243ZM552.966 628.207L539.733 642.345L542.653 645.078L555.887 630.94L552.966 628.207ZM541.655 644.267L555.793 631.034L553.06 628.113L538.922 641.347L541.655 644.267ZM550.646 671.392C550.652 671.797 550.652 672.203 550.646 672.608L554.645 672.671C554.652 672.224 554.652 671.776 554.645 671.329L550.646 671.392ZM571.934 670.001L552.58 670.641L552.712 674.639L572.066 673.999L571.934 670.001ZM552.58 673.359L571.934 673.999L572.066 670.001L552.712 669.361L552.58 673.359ZM539.757 698.897C539.475 699.188 539.188 699.475 538.897 699.757L541.68 702.63C542.002 702.318 542.318 702.002 542.63 701.68L539.757 698.897ZM555.793 712.966L541.655 699.733L538.922 702.653L553.06 715.887L555.793 712.966ZM539.733 701.655L552.966 715.793L555.887 713.06L542.653 698.922L539.733 701.655ZM512.608 710.646C512.203 710.652 511.797 710.652 511.392 710.646L511.329 714.645C511.776 714.652 512.224 714.652 512.671 714.645L512.608 710.646ZM513.999 731.934L513.359 712.58L509.361 712.712L510.001 732.066L513.999 731.934ZM510.641 712.58L510.001 731.934L513.999 732.066L514.639 712.712L510.641 712.58ZM485.103 699.757C484.812 699.475 484.525 699.188 484.243 698.897L481.37 701.68C481.682 702.002 481.998 702.318 482.32 702.63L485.103 699.757ZM471.034 715.793L484.267 701.655L481.347 698.922L468.113 713.06L471.034 715.793ZM482.345 699.733L468.207 712.966L470.94 715.887L485.078 702.653L482.345 699.733ZM473.354 672.608C473.348 672.203 473.348 671.797 473.354 671.392L469.355 671.329C469.348 671.776 469.348 672.224 469.355 672.671L473.354 672.608ZM452.066 673.999L471.42 673.359L471.288 669.361L451.934 670.001L452.066 673.999ZM471.42 670.641L452.066 670.001L451.934 673.999L471.288 674.639L471.42 670.641ZM484.243 645.103C484.525 644.812 484.812 644.525 485.103 644.243L482.32 641.37C481.998 641.682 481.682 641.998 481.37 642.32L484.243 645.103ZM468.207 631.034L482.345 644.267L485.078 641.347L470.94 628.113L468.207 631.034ZM484.267 642.345L471.034 628.207L468.113 630.94L481.347 645.078L484.267 642.345Z" fill="currentColor"/>
<path d="M502.808 694.192C508.693 696.63 515.307 696.63 521.192 694.192C527.078 691.754 531.754 687.078 534.192 681.192C536.63 675.307 536.63 668.693 534.192 662.808C531.754 656.922 527.078 652.246 521.192 649.808C515.307 647.37 508.693 647.37 502.808 649.808C496.922 652.246 492.246 656.922 489.808 662.808C487.37 668.693 487.37 675.307 489.808 681.192C492.246 687.078 496.922 691.754 502.808 694.192Z" fill="currentColor" stroke="currentColor" stroke-width="4" stroke-linecap="round" stroke-linejoin="round"/>
<g opacity="0.25">
<path fill-rule="evenodd" clip-rule="evenodd" d="M688.64 631.354L688 612L687.36 631.354C687.787 631.348 688.213 631.348 688.64 631.354ZM716.288 642.807C716.595 643.104 716.896 643.405 717.193 643.712L730.426 629.574L716.288 642.807ZM728.646 671.36C728.652 671.787 728.652 672.213 728.646 672.64L748 672L728.646 671.36ZM717.193 700.288C716.896 700.595 716.595 700.896 716.288 701.193L730.426 714.426L717.193 700.288ZM688.64 712.646C688.213 712.652 687.787 712.652 687.36 712.646L688 732L688.64 712.646ZM659.712 701.193C659.405 700.896 659.104 700.595 658.807 700.288L645.574 714.426L659.712 701.193ZM647.354 672.64C647.348 672.213 647.348 671.787 647.354 671.36L628 672L647.354 672.64ZM658.807 643.712C659.104 643.405 659.405 643.104 659.712 642.807L645.574 629.574L658.807 643.712Z" fill="currentColor"/>
<path d="M688 612L689.999 611.934C689.963 610.856 689.079 610 688 610C686.921 610 686.037 610.856 686.001 611.934L688 612ZM688.64 631.354L688.608 633.354C689.156 633.363 689.683 633.147 690.066 632.756C690.45 632.366 690.657 631.835 690.639 631.288L688.64 631.354ZM687.36 631.354L685.361 631.288C685.343 631.835 685.55 632.366 685.934 632.756C686.317 633.147 686.844 633.363 687.392 633.354L687.36 631.354ZM716.288 642.807L714.922 641.347C714.522 641.721 714.293 642.242 714.288 642.789C714.284 643.337 714.504 643.862 714.897 644.243L716.288 642.807ZM717.193 643.712L715.757 645.103C716.138 645.496 716.663 645.716 717.211 645.712C717.758 645.707 718.279 645.478 718.653 645.078L717.193 643.712ZM730.426 629.574L731.887 630.94C732.624 630.153 732.603 628.922 731.841 628.159C731.078 627.397 729.847 627.376 729.06 628.113L730.426 629.574ZM728.646 671.36L728.712 669.361C728.165 669.343 727.634 669.55 727.244 669.934C726.853 670.317 726.637 670.844 726.646 671.392L728.646 671.36ZM728.646 672.64L726.646 672.608C726.637 673.156 726.853 673.683 727.244 674.066C727.634 674.45 728.165 674.657 728.712 674.639L728.646 672.64ZM748 672L748.066 673.999C749.144 673.963 750 673.079 750 672C750 670.921 749.144 670.037 748.066 670.001L748 672ZM717.193 700.288L718.653 698.922C718.279 698.522 717.758 698.293 717.211 698.288C716.663 698.284 716.138 698.504 715.757 698.897L717.193 700.288ZM716.288 701.193L714.897 699.757C714.504 700.138 714.284 700.663 714.288 701.211C714.293 701.758 714.522 702.279 714.922 702.653L716.288 701.193ZM730.426 714.426L729.06 715.887C729.847 716.624 731.078 716.603 731.841 715.841C732.603 715.078 732.624 713.847 731.887 713.06L730.426 714.426ZM688.64 712.646L690.639 712.712C690.657 712.165 690.45 711.634 690.066 711.244C689.683 710.853 689.156 710.637 688.608 710.646L688.64 712.646ZM687.36 712.646L687.392 710.646C686.844 710.637 686.317 710.853 685.934 711.244C685.55 711.634 685.343 712.165 685.361 712.712L687.36 712.646ZM688 732L686.001 732.066C686.037 733.144 686.921 734 688 734C689.079 734 689.963 733.144 689.999 732.066L688 732ZM659.712 701.193L661.078 702.653C661.478 702.279 661.707 701.758 661.712 701.211C661.716 700.663 661.496 700.138 661.103 699.757L659.712 701.193ZM658.807 700.288L660.243 698.897C659.862 698.504 659.337 698.284 658.789 698.288C658.242 698.293 657.721 698.522 657.347 698.922L658.807 700.288ZM645.574 714.426L644.113 713.06C643.376 713.847 643.397 715.078 644.159 715.841C644.922 716.603 646.153 716.624 646.94 715.887L645.574 714.426ZM647.354 672.64L647.288 674.639C647.835 674.657 648.366 674.45 648.756 674.066C649.147 673.683 649.363 673.156 649.354 672.608L647.354 672.64ZM647.354 671.36L649.354 671.392C649.363 670.844 649.147 670.317 648.756 669.934C648.366 669.55 647.835 669.343 647.288 669.361L647.354 671.36ZM628 672L627.934 670.001C626.856 670.037 626 670.921 626 672C626 673.079 626.856 673.963 627.934 673.999L628 672ZM658.807 643.712L657.347 645.078C657.721 645.478 658.242 645.707 658.789 645.712C659.337 645.716 659.862 645.496 660.243 645.103L658.807 643.712ZM659.712 642.807L661.103 644.243C661.496 643.862 661.716 643.337 661.712 642.789C661.707 642.242 661.478 641.721 661.078 641.347L659.712 642.807ZM645.574 629.574L646.94 628.113C646.153 627.376 644.922 627.397 644.159 628.159C643.397 628.922 643.376 630.153 644.113 630.94L645.574 629.574ZM686.001 612.066L686.641 631.42L690.639 631.288L689.999 611.934L686.001 612.066ZM689.359 631.42L689.999 612.066L686.001 611.934L685.361 631.288L689.359 631.42ZM687.392 633.354C687.797 633.348 688.203 633.348 688.608 633.354L688.671 629.355C688.224 629.348 687.776 629.348 687.329 629.355L687.392 633.354ZM714.897 644.243C715.188 644.525 715.475 644.812 715.757 645.103L718.63 642.32C718.318 641.998 718.002 641.682 717.68 641.37L714.897 644.243ZM728.966 628.207L715.733 642.345L718.653 645.078L731.887 630.94L728.966 628.207ZM717.655 644.267L731.793 631.034L729.06 628.113L714.922 641.347L717.655 644.267ZM726.646 671.392C726.652 671.797 726.652 672.203 726.646 672.608L730.645 672.671C730.652 672.224 730.652 671.776 730.645 671.329L726.646 671.392ZM747.934 670.001L728.58 670.641L728.712 674.639L748.066 673.999L747.934 670.001ZM728.58 673.359L747.934 673.999L748.066 670.001L728.712 669.361L728.58 673.359ZM715.757 698.897C715.475 699.188 715.188 699.475 714.897 699.757L717.68 702.63C718.002 702.318 718.318 702.002 718.63 701.68L715.757 698.897ZM731.793 712.966L717.655 699.733L714.922 702.653L729.06 715.887L731.793 712.966ZM715.733 701.655L728.966 715.793L731.887 713.06L718.653 698.922L715.733 701.655ZM688.608 710.646C688.203 710.652 687.797 710.652 687.392 710.646L687.329 714.645C687.776 714.652 688.224 714.652 688.671 714.645L688.608 710.646ZM689.999 731.934L689.359 712.58L685.361 712.712L686.001 732.066L689.999 731.934ZM686.641 712.58L686.001 731.934L689.999 732.066L690.639 712.712L686.641 712.58ZM661.103 699.757C660.812 699.475 660.525 699.188 660.243 698.897L657.37 701.68C657.682 702.002 657.998 702.318 658.32 702.63L661.103 699.757ZM647.034 715.793L660.267 701.655L657.347 698.922L644.113 713.06L647.034 715.793ZM658.345 699.733L644.207 712.966L646.94 715.887L661.078 702.653L658.345 699.733ZM649.354 672.608C649.348 672.203 649.348 671.797 649.354 671.392L645.355 671.329C645.348 671.776 645.348 672.224 645.355 672.671L649.354 672.608ZM628.066 673.999L647.42 673.359L647.288 669.361L627.934 670.001L628.066 673.999ZM647.42 670.641L628.066 670.001L627.934 673.999L647.288 674.639L647.42 670.641ZM660.243 645.103C660.525 644.812 660.812 644.525 661.103 644.243L658.32 641.37C657.998 641.682 657.682 641.998 657.37 642.32L660.243 645.103ZM644.207 631.034L658.345 644.267L661.078 641.347L646.94 628.113L644.207 631.034ZM660.267 642.345L647.034 628.207L644.113 630.94L657.347 645.078L660.267 642.345Z" fill="currentColor"/>
</g>
<path d="M678.808 694.192C684.693 696.63 691.307 696.63 697.192 694.192C703.078 691.754 707.754 687.078 710.192 681.192C712.63 675.307 712.63 668.693 710.192 662.808C707.754 656.922 703.078 652.246 697.192 649.808C691.307 647.37 684.693 647.37 678.808 649.808C672.922 652.246 668.246 656.922 665.808 662.808C663.37 668.693 663.37 675.307 665.808 681.192C668.246 687.078 672.922 691.754 678.808 694.192Z" fill="currentColor" stroke="currentColor" stroke-width="4" stroke-linecap="round" stroke-linejoin="round"/>
<path fill-rule="evenodd" clip-rule="evenodd" d="M864.64 631.354L864 612L863.36 631.354C863.787 631.348 864.213 631.348 864.64 631.354ZM892.288 642.807C892.595 643.104 892.896 643.405 893.193 643.712L906.426 629.574L892.288 642.807ZM904.646 671.36C904.652 671.787 904.652 672.213 904.646 672.64L924 672L904.646 671.36ZM893.193 700.288C892.896 700.595 892.595 700.896 892.288 701.193L906.426 714.426L893.193 700.288ZM864.64 712.646C864.213 712.652 863.787 712.652 863.36 712.646L864 732L864.64 712.646ZM835.712 701.193C835.405 700.896 835.104 700.595 834.807 700.288L821.574 714.426L835.712 701.193ZM823.354 672.64C823.348 672.213 823.348 671.787 823.354 671.36L804 672L823.354 672.64ZM834.807 643.712C835.104 643.405 835.405 643.104 835.712 642.807L821.574 629.574L834.807 643.712Z" fill="#FFA500"/>
<path d="M864 612L865.999 611.934C865.963 610.856 865.079 610 864 610C862.921 610 862.037 610.856 862.001 611.934L864 612ZM864.64 631.354L864.608 633.354C865.156 633.363 865.683 633.147 866.066 632.756C866.45 632.366 866.657 631.835 866.639 631.288L864.64 631.354ZM863.36 631.354L861.361 631.288C861.343 631.835 861.55 632.366 861.934 632.756C862.317 633.147 862.844 633.363 863.392 633.354L863.36 631.354ZM892.288 642.807L890.922 641.347C890.522 641.721 890.293 642.242 890.288 642.789C890.284 643.337 890.504 643.862 890.897 644.243L892.288 642.807ZM893.193 643.712L891.757 645.103C892.138 645.496 892.663 645.716 893.211 645.712C893.758 645.707 894.279 645.478 894.653 645.078L893.193 643.712ZM906.426 629.574L907.887 630.94C908.624 630.153 908.603 628.922 907.841 628.159C907.078 627.397 905.847 627.376 905.06 628.113L906.426 629.574ZM904.646 671.36L904.712 669.361C904.165 669.343 903.634 669.55 903.244 669.934C902.853 670.317 902.637 670.844 902.646 671.392L904.646 671.36ZM904.646 672.64L902.646 672.608C902.637 673.156 902.853 673.683 903.244 674.066C903.634 674.45 904.165 674.657 904.712 674.639L904.646 672.64ZM924 672L924.066 673.999C925.144 673.963 926 673.079 926 672C926 670.921 925.144 670.037 924.066 670.001L924 672ZM893.193 700.288L894.653 698.922C894.279 698.522 893.758 698.293 893.211 698.288C892.663 698.284 892.138 698.504 891.757 698.897L893.193 700.288ZM892.288 701.193L890.897 699.757C890.504 700.138 890.284 700.663 890.288 701.211C890.293 701.758 890.522 702.279 890.922 702.653L892.288 701.193ZM906.426 714.426L905.06 715.887C905.847 716.624 907.078 716.603 907.841 715.841C908.603 715.078 908.624 713.847 907.887 713.06L906.426 714.426ZM864.64 712.646L866.639 712.712C866.657 712.165 866.45 711.634 866.066 711.244C865.683 710.853 865.156 710.637 864.608 710.646L864.64 712.646ZM863.36 712.646L863.392 710.646C862.844 710.637 862.317 710.853 861.934 711.244C861.55 711.634 861.343 712.165 861.361 712.712L863.36 712.646ZM864 732L862.001 732.066C862.037 733.144 862.921 734 864 734C865.079 734 865.963 733.144 865.999 732.066L864 732ZM835.712 701.193L837.078 702.653C837.478 702.279 837.707 701.758 837.712 701.211C837.716 700.663 837.496 700.138 837.103 699.757L835.712 701.193ZM834.807 700.288L836.243 698.897C835.862 698.504 835.337 698.284 834.789 698.288C834.242 698.293 833.721 698.522 833.347 698.922L834.807 700.288ZM821.574 714.426L820.113 713.06C819.376 713.847 819.397 715.078 820.159 715.841C820.922 716.603 822.153 716.624 822.94 715.887L821.574 714.426ZM823.354 672.64L823.288 674.639C823.835 674.657 824.366 674.45 824.756 674.066C825.147 673.683 825.363 673.156 825.354 672.608L823.354 672.64ZM823.354 671.36L825.354 671.392C825.363 670.844 825.147 670.317 824.756 669.934C824.366 669.55 823.835 669.343 823.288 669.361L823.354 671.36ZM804 672L803.934 670.001C802.856 670.037 802 670.921 802 672C802 673.079 802.856 673.963 803.934 673.999L804 672ZM834.807 643.712L833.347 645.078C833.721 645.478 834.242 645.707 834.789 645.712C835.337 645.716 835.862 645.496 836.243 645.103L834.807 643.712ZM835.712 642.807L837.103 644.243C837.496 643.862 837.716 643.337 837.712 642.789C837.707 642.242 837.478 641.721 837.078 641.347L835.712 642.807ZM821.574 629.574L822.94 628.113C822.153 627.376 820.922 627.397 820.159 628.159C819.397 628.922 819.376 630.153 820.113 630.94L821.574 629.574ZM862.001 612.066L862.641 631.42L866.639 631.288L865.999 611.934L862.001 612.066ZM865.359 631.42L865.999 612.066L862.001 611.934L861.361 631.288L865.359 631.42ZM863.392 633.354C863.797 633.348 864.203 633.348 864.608 633.354L864.671 629.355C864.224 629.348 863.776 629.348 863.329 629.355L863.392 633.354ZM890.897 644.243C891.188 644.525 891.475 644.812 891.757 645.103L894.63 642.32C894.318 641.998 894.002 641.682 893.68 641.37L890.897 644.243ZM904.966 628.207L891.733 642.345L894.653 645.078L907.887 630.94L904.966 628.207ZM893.655 644.267L907.793 631.034L905.06 628.113L890.922 641.347L893.655 644.267ZM902.646 671.392C902.652 671.797 902.652 672.203 902.646 672.608L906.645 672.671C906.652 672.224 906.652 671.776 906.645 671.329L902.646 671.392ZM923.934 670.001L904.58 670.641L904.712 674.639L924.066 673.999L923.934 670.001ZM904.58 673.359L923.934 673.999L924.066 670.001L904.712 669.361L904.58 673.359ZM891.757 698.897C891.475 699.188 891.188 699.475 890.897 699.757L893.68 702.63C894.002 702.318 894.318 702.002 894.63 701.68L891.757 698.897ZM907.793 712.966L893.655 699.733L890.922 702.653L905.06 715.887L907.793 712.966ZM891.733 701.655L904.966 715.793L907.887 713.06L894.653 698.922L891.733 701.655ZM864.608 710.646C864.203 710.652 863.797 710.652 863.392 710.646L863.329 714.645C863.776 714.652 864.224 714.652 864.671 714.645L864.608 710.646ZM865.999 731.934L865.359 712.58L861.361 712.712L862.001 732.066L865.999 731.934ZM862.641 712.58L862.001 731.934L865.999 732.066L866.639 712.712L862.641 712.58ZM837.103 699.757C836.812 699.475 836.525 699.188 836.243 698.897L833.37 701.68C833.682 702.002 833.998 702.318 834.32 702.63L837.103 699.757ZM823.034 715.793L836.267 701.655L833.347 698.922L820.113 713.06L823.034 715.793ZM834.345 699.733L820.207 712.966L822.94 715.887L837.078 702.653L834.345 699.733ZM825.354 672.608C825.348 672.203 825.348 671.797 825.354 671.392L821.355 671.329C821.348 671.776 821.348 672.224 821.355 672.671L825.354 672.608ZM804.066 673.999L823.42 673.359L823.288 669.361L803.934 670.001L804.066 673.999ZM823.42 670.641L804.066 670.001L803.934 673.999L823.288 674.639L823.42 670.641ZM836.243 645.103C836.525 644.812 836.812 644.525 837.103 644.243L834.32 641.37C833.998 641.682 833.682 641.998 833.37 642.32L836.243 645.103ZM820.207 631.034L834.345 644.267L837.078 641.347L822.94 628.113L820.207 631.034ZM836.267 642.345L823.034 628.207L820.113 630.94L833.347 645.078L836.267 642.345Z" fill="#FFA500"/>
<path d="M854.808 694.192C860.693 696.63 867.307 696.63 873.192 694.192C879.078 691.754 883.754 687.078 886.192 681.192C888.63 675.307 888.63 668.693 886.192 662.808C883.754 656.922 879.078 652.246 873.192 649.808C867.307 647.37 860.693 647.37 854.808 649.808C848.922 652.246 844.246 656.922 841.808 662.808C839.37 668.693 839.37 675.307 841.808 681.192C844.246 687.078 848.922 691.754 854.808 694.192Z" fill="#FFD700" stroke="#FFD700" stroke-width="4" stroke-linecap="round" stroke-linejoin="round"/>
</svg>
