<svg viewBox="0 0 1024 768" fill="none" xmlns="http://www.w3.org/2000/svg">
<path d="M424 36L436.696 78.5252L481.063 77.459L444.543 102.675L459.267 144.541L424 117.6L388.733 144.541L403.457 102.675L366.937 77.459L411.304 78.5252L424 36Z" stroke="#7B61FF" stroke-width="2" stroke-linecap="round" stroke-linejoin="round"/>
<path d="M578.787 147.213C592.369 152.839 607.631 152.839 621.213 147.213V147.213C634.796 141.587 645.587 130.796 651.213 117.213V117.213C656.839 103.631 656.839 88.3694 651.213 74.7868V74.7868C645.587 61.2042 634.796 50.4129 621.213 44.7868V44.7868C607.631 39.1607 592.369 39.1607 578.787 44.7868V44.7868C565.204 50.4129 554.413 61.2042 548.787 74.7868V74.7868C543.161 88.3694 543.161 103.631 548.787 117.213V117.213C554.413 130.796 565.204 141.587 578.787 147.213V147.213Z" stroke="#7B61FF" stroke-width="2" stroke-linecap="round" stroke-linejoin="round"/>
<path fill-rule="evenodd" clip-rule="evenodd" d="M385.555 316.781L423.155 317.685C434.996 301.822 450.977 289.277 469.574 281.574C471.823 280.642 474.094 279.788 476.385 279.011L487.145 242.972C503.587 240.074 520.414 240.074 536.856 242.972L547.615 279.011C549.906 279.788 552.178 280.642 554.427 281.574C573.024 289.277 589.005 301.822 600.846 317.685L638.445 316.781C640.585 320.808 642.541 324.951 644.301 329.199C648.968 340.468 652.137 352.183 653.807 364.059L622.857 385.429C622.677 399.374 619.867 413.292 614.427 426.427C611.248 434.1 607.245 441.329 602.525 448.005L615.003 483.484C603.48 495.414 589.894 505.334 574.786 512.704L544.898 489.872C523.476 496.53 500.525 496.53 479.102 489.872L449.215 512.704C434.106 505.334 420.52 495.414 408.998 483.484L421.476 448.005C416.755 441.329 412.752 434.1 409.574 426.427C404.134 413.292 401.324 399.374 401.144 385.429L370.194 364.059C371.863 352.183 375.032 340.468 379.699 329.199C381.459 324.951 383.415 320.808 385.555 316.781ZM534.981 439.481C549.696 433.386 561.386 421.696 567.481 406.981C573.576 392.267 573.576 375.734 567.481 361.019C561.386 346.305 549.696 334.614 534.981 328.519C520.267 322.424 503.734 322.424 489.019 328.519C474.305 334.614 462.614 346.305 456.519 361.019C450.424 375.734 450.424 392.267 456.519 406.981C462.614 421.696 474.305 433.386 489.019 439.481C503.734 445.576 520.267 445.576 534.981 439.481Z" fill="#888888" fill-opacity="0.5"/>
<path d="M385.555 316.781L385.675 311.783C383.783 311.737 382.028 312.763 381.14 314.434L385.555 316.781ZM423.155 317.685L423.035 322.683C424.654 322.722 426.193 321.974 427.162 320.676L423.155 317.685ZM469.574 281.574L467.66 276.954V276.954L469.574 281.574ZM476.385 279.011L477.992 283.746C479.526 283.225 480.713 281.993 481.176 280.441L476.385 279.011ZM487.145 242.972L486.277 238.048C484.414 238.376 482.895 239.728 482.354 241.541L487.145 242.972ZM536.856 242.972L541.647 241.542C541.105 239.728 539.587 238.376 537.723 238.048L536.856 242.972ZM547.615 279.011L542.824 280.441C543.288 281.993 544.475 283.225 546.009 283.746L547.615 279.011ZM554.427 281.574L552.513 286.193V286.193L554.427 281.574ZM600.846 317.685L596.839 320.676C597.808 321.974 599.346 322.722 600.966 322.683L600.846 317.685ZM638.445 316.781L642.86 314.434C641.972 312.763 640.217 311.737 638.325 311.783L638.445 316.781ZM644.301 329.199L639.681 331.113V331.113L644.301 329.199ZM653.807 364.059L656.647 368.174C658.204 367.099 659.021 365.237 658.758 363.363L653.807 364.059ZM622.857 385.429L620.016 381.314C618.682 382.235 617.878 383.744 617.857 385.364L622.857 385.429ZM614.427 426.427L619.046 428.34L614.427 426.427ZM602.525 448.005L598.442 445.118C597.507 446.441 597.27 448.135 597.808 449.664L602.525 448.005ZM615.003 483.484L618.599 486.958C619.914 485.597 620.347 483.61 619.72 481.825L615.003 483.484ZM574.786 512.704L571.751 516.677C573.254 517.826 575.277 518.027 576.978 517.198L574.786 512.704ZM544.898 489.872L547.934 485.899C546.646 484.916 544.962 484.617 543.415 485.098L544.898 489.872ZM479.102 489.872L480.586 485.098C479.039 484.617 477.354 484.916 476.067 485.899L479.102 489.872ZM449.215 512.704L447.023 517.198C448.723 518.027 450.746 517.826 452.25 516.677L449.215 512.704ZM408.998 483.484L404.281 481.826C403.653 483.611 404.087 485.597 405.401 486.958L408.998 483.484ZM421.476 448.005L426.193 449.664C426.73 448.135 426.494 446.441 425.558 445.118L421.476 448.005ZM409.574 426.427L414.193 424.513L409.574 426.427ZM401.144 385.429L406.144 385.364C406.123 383.744 405.318 382.235 403.985 381.314L401.144 385.429ZM370.194 364.059L365.242 363.363C364.979 365.236 365.796 367.098 367.353 368.173L370.194 364.059ZM379.699 329.199L375.08 327.286L379.699 329.199ZM567.481 406.981L562.862 405.068L567.481 406.981ZM534.981 439.481L533.068 434.862L534.981 439.481ZM567.481 361.019L562.862 362.933V362.933L567.481 361.019ZM534.981 328.519L533.068 333.139L534.981 328.519ZM489.019 328.519L490.933 333.139H490.933L489.019 328.519ZM456.519 361.019L461.139 362.933L461.139 362.933L456.519 361.019ZM456.519 406.981L461.139 405.068H461.139L456.519 406.981ZM489.019 439.481L490.933 434.862H490.933L489.019 439.481ZM385.435 321.78L423.035 322.683L423.275 312.686L385.675 311.783L385.435 321.78ZM427.162 320.676C438.469 305.528 453.729 293.549 471.487 286.193L467.66 276.954C448.224 285.005 431.523 298.116 419.148 314.694L427.162 320.676ZM471.487 286.193C473.635 285.304 475.804 284.488 477.992 283.746L474.779 274.276C472.385 275.088 470.01 275.981 467.66 276.954L471.487 286.193ZM481.176 280.441L491.936 244.402L482.354 241.541L471.594 277.58L481.176 280.441ZM488.013 247.896C503.88 245.1 520.12 245.1 535.988 247.896L537.723 238.048C520.708 235.049 503.293 235.049 486.277 238.048L488.013 247.896ZM532.065 244.402L542.824 280.441L552.406 277.58L541.647 241.542L532.065 244.402ZM546.009 283.746C548.196 284.488 550.366 285.304 552.513 286.193L556.34 276.954C553.99 275.981 551.616 275.088 549.222 274.276L546.009 283.746ZM552.513 286.193C570.272 293.549 585.532 305.528 596.839 320.676L604.852 314.694C592.478 298.116 575.776 285.005 556.34 276.954L552.513 286.193ZM600.966 322.683L638.565 321.78L638.325 311.783L600.726 312.686L600.966 322.683ZM634.03 319.128C636.096 323.014 637.983 327.012 639.681 331.113L648.92 327.286C647.099 322.889 645.075 318.601 642.86 314.434L634.03 319.128ZM639.681 331.113C644.186 341.988 647.244 353.294 648.855 364.755L658.758 363.363C657.03 351.073 653.751 338.948 648.92 327.286L639.681 331.113ZM650.966 359.945L620.016 381.314L625.698 389.543L656.647 368.174L650.966 359.945ZM617.857 385.364C617.686 398.68 615.002 411.971 609.807 424.513L619.046 428.34C624.732 414.614 627.669 400.067 627.856 385.493L617.857 385.364ZM609.807 424.513C606.772 431.841 602.95 438.743 598.442 445.118L606.607 450.891C611.541 443.914 615.724 436.36 619.046 428.34L609.807 424.513ZM597.808 449.664L610.286 485.143L619.72 481.825L607.242 446.346L597.808 449.664ZM611.406 480.01C600.286 491.524 587.175 501.098 572.594 508.21L576.978 517.198C592.614 509.571 606.675 499.304 618.599 486.958L611.406 480.01ZM577.821 508.731L547.934 485.899L541.863 493.846L571.751 516.677L577.821 508.731ZM543.415 485.098C522.958 491.455 501.042 491.455 480.586 485.098L477.618 494.647C500.007 501.605 523.993 501.605 546.382 494.647L543.415 485.098ZM476.067 485.899L446.179 508.731L452.25 516.677L482.137 493.846L476.067 485.899ZM451.407 508.21C436.826 501.098 423.714 491.524 412.594 480.011L405.401 486.958C417.326 499.304 431.386 509.571 447.023 517.198L451.407 508.21ZM413.714 485.143L426.193 449.664L416.759 446.346L404.281 481.826L413.714 485.143ZM425.558 445.118C421.051 438.743 417.229 431.841 414.193 424.513L404.954 428.34C408.276 436.36 412.46 443.914 417.393 450.891L425.558 445.118ZM414.193 424.513C408.998 411.971 406.315 398.68 406.144 385.364L396.144 385.493C396.332 400.067 399.269 414.614 404.954 428.34L414.193 424.513ZM403.985 381.314L373.034 359.944L367.353 368.173L398.303 389.543L403.985 381.314ZM375.145 364.755C376.756 353.294 379.814 341.988 384.319 331.113L375.08 327.286C370.249 338.947 366.97 351.072 365.242 363.363L375.145 364.755ZM384.319 331.113C386.017 327.012 387.904 323.014 389.97 319.128L381.14 314.434C378.925 318.601 376.901 322.889 375.08 327.286L384.319 331.113ZM562.862 405.068C557.274 418.557 546.557 429.274 533.068 434.862L536.895 444.101C552.834 437.498 565.498 424.834 572.101 408.895L562.862 405.068ZM562.862 362.933C568.449 376.422 568.449 391.578 562.862 405.068L572.101 408.895C578.703 392.955 578.703 375.045 572.101 359.106L562.862 362.933ZM533.068 333.139C546.557 338.726 557.274 349.443 562.862 362.933L572.101 359.106C565.498 343.166 552.834 330.502 536.895 323.9L533.068 333.139ZM490.933 333.139C504.422 327.551 519.579 327.551 533.068 333.139L536.895 323.9C520.955 317.297 503.045 317.297 487.106 323.9L490.933 333.139ZM461.139 362.933C466.726 349.443 477.443 338.726 490.933 333.139L487.106 323.9C471.166 330.502 458.502 343.166 451.9 359.106L461.139 362.933ZM461.139 405.068C455.551 391.578 455.551 376.422 461.139 362.933L451.9 359.106C445.298 375.045 445.298 392.955 451.9 408.895L461.139 405.068ZM490.933 434.862C477.443 429.274 466.726 418.557 461.139 405.068L451.9 408.895C458.502 424.834 471.166 437.498 487.106 444.101L490.933 434.862ZM533.068 434.862C519.579 440.449 504.422 440.449 490.933 434.862L487.106 444.101C503.045 450.703 520.955 450.703 536.895 444.101L533.068 434.862Z" fill="currentColor"/>
<path d="M501.393 409.607C508.185 412.42 515.815 412.42 522.607 409.607C529.398 406.794 534.794 401.398 537.607 394.607C540.42 387.815 540.42 380.185 537.607 373.393C534.794 366.602 529.398 361.206 522.607 358.393C515.815 355.58 508.185 355.58 501.393 358.393C494.602 361.206 489.206 366.602 486.393 373.393C483.58 380.185 483.58 387.815 486.393 394.607C489.206 401.398 494.602 406.794 501.393 409.607Z" fill="#888888" fill-opacity="0.5" stroke="currentColor" stroke-width="10" stroke-linecap="round" stroke-linejoin="round"/>
<path d="M109.422 645.113L109.446 644.113C109.068 644.104 108.717 644.309 108.539 644.643L109.422 645.113ZM124.462 645.474L124.438 646.474C124.762 646.482 125.069 646.332 125.263 646.072L124.462 645.474ZM143.029 631.03L142.647 630.106L143.029 631.03ZM145.754 630.004L146.075 630.951C146.382 630.847 146.62 630.601 146.712 630.291L145.754 630.004ZM150.058 615.589L149.884 614.604C149.512 614.67 149.208 614.94 149.1 615.303L150.058 615.589ZM169.942 615.589L170.9 615.303C170.792 614.94 170.488 614.67 170.116 614.604L169.942 615.589ZM174.246 630.005L173.288 630.291C173.381 630.601 173.618 630.847 173.925 630.952L174.246 630.005ZM176.97 631.03L176.588 631.954L176.97 631.03ZM195.538 645.474L194.737 646.072C194.931 646.332 195.238 646.482 195.562 646.474L195.538 645.474ZM210.578 645.113L211.461 644.643C211.283 644.309 210.932 644.104 210.554 644.113L210.578 645.113ZM212.92 650.08L213.844 649.697L212.92 650.08ZM216.723 664.024L217.291 664.847C217.602 664.632 217.765 664.259 217.713 663.885L216.723 664.024ZM204.342 672.572L203.774 671.749C203.508 671.933 203.347 672.235 203.343 672.559L204.342 672.572ZM200.97 688.971L201.894 689.354L200.97 688.971ZM196.21 697.602L195.393 697.025C195.206 697.289 195.159 697.628 195.266 697.934L196.21 697.602ZM201.201 711.794L201.92 712.489C202.183 712.216 202.27 711.819 202.144 711.462L201.201 711.794ZM185.114 723.482L184.507 724.276C184.808 724.506 185.213 724.546 185.553 724.38L185.114 723.482ZM173.159 714.349L173.766 713.555C173.509 713.358 173.172 713.298 172.863 713.394L173.159 714.349ZM146.841 714.349L147.137 713.394C146.828 713.298 146.491 713.358 146.234 713.555L146.841 714.349ZM134.886 723.482L134.447 724.381C134.787 724.546 135.192 724.506 135.493 724.276L134.886 723.482ZM118.799 711.794L117.856 711.462C117.73 711.819 117.817 712.216 118.08 712.489L118.799 711.794ZM123.79 697.602L124.734 697.934C124.841 697.628 124.794 697.289 124.607 697.025L123.79 697.602ZM119.029 688.971L118.105 689.354L119.029 688.971ZM115.657 672.572L116.657 672.559C116.653 672.235 116.492 671.933 116.226 671.749L115.657 672.572ZM103.277 664.024L102.287 663.884C102.234 664.259 102.398 664.632 102.709 664.847L103.277 664.024ZM107.08 650.08L106.156 649.697L107.08 650.08ZM169.192 694.193L168.81 693.269L169.192 694.193ZM150.808 694.193L151.19 693.269L150.808 694.193ZM182.193 681.193L183.116 681.575L182.193 681.193ZM182.193 662.808L181.269 663.191L182.193 662.808ZM169.192 649.808L168.81 650.732L169.192 649.808ZM137.808 662.808L138.732 663.191L137.808 662.808ZM137.808 681.193L136.884 681.575L137.808 681.193ZM109.398 646.112L124.438 646.474L124.486 644.474L109.446 644.113L109.398 646.112ZM125.263 646.072C129.893 639.87 136.141 634.965 143.412 631.954L142.647 630.106C135.04 633.257 128.504 638.388 123.66 644.876L125.263 646.072ZM143.412 631.954C144.291 631.589 145.18 631.255 146.075 630.951L145.433 629.057C144.496 629.375 143.566 629.725 142.647 630.106L143.412 631.954ZM146.712 630.291L151.016 615.875L149.1 615.303L144.796 629.718L146.712 630.291ZM150.231 616.574C156.693 615.435 163.307 615.435 169.769 616.574L170.116 614.604C163.424 613.425 156.576 613.425 149.884 614.604L150.231 616.574ZM168.984 615.875L173.288 630.291L175.204 629.718L170.9 615.303L168.984 615.875ZM173.925 630.952C174.82 631.255 175.709 631.589 176.588 631.954L177.353 630.106C176.433 629.725 175.504 629.375 174.567 629.058L173.925 630.952ZM176.588 631.954C183.859 634.965 190.107 639.87 194.737 646.072L196.339 644.876C191.496 638.388 184.96 633.257 177.353 630.106L176.588 631.954ZM195.562 646.474L210.602 646.112L210.554 644.113L195.514 644.474L195.562 646.474ZM209.695 645.582C210.536 647.164 211.305 648.793 211.996 650.463L213.844 649.697C213.128 647.968 212.332 646.282 211.461 644.643L209.695 645.582ZM211.996 650.463C213.831 654.891 215.076 659.496 215.732 664.163L217.713 663.885C217.033 659.051 215.744 654.283 213.844 649.697L211.996 650.463ZM216.154 663.201L203.774 671.749L204.911 673.395L217.291 664.847L216.154 663.201ZM203.343 672.559C203.272 678.011 202.174 683.453 200.047 688.588L201.894 689.354C204.12 683.981 205.269 678.288 205.342 672.585L203.343 672.559ZM200.047 688.588C198.804 691.588 197.239 694.415 195.393 697.025L197.026 698.179C198.957 695.449 200.594 692.492 201.894 689.354L200.047 688.588ZM195.266 697.934L200.258 712.126L202.144 711.462L197.153 697.27L195.266 697.934ZM200.482 711.099C195.953 715.788 190.614 719.687 184.676 722.583L185.553 724.38C191.702 721.381 197.231 717.344 201.92 712.489L200.482 711.099ZM185.721 722.687L173.766 713.555L172.552 715.144L184.507 724.276L185.721 722.687ZM172.863 713.394C164.487 715.997 155.513 715.997 147.137 713.394L146.544 715.304C155.306 718.027 164.694 718.027 173.456 715.304L172.863 713.394ZM146.234 713.555L134.279 722.687L135.493 724.276L147.448 715.144L146.234 713.555ZM135.324 722.583C129.386 719.687 124.047 715.788 119.518 711.099L118.08 712.489C122.769 717.344 128.298 721.381 134.447 724.381L135.324 722.583ZM119.742 712.126L124.734 697.934L122.847 697.27L117.856 711.462L119.742 712.126ZM124.607 697.025C122.761 694.415 121.196 691.589 119.953 688.588L118.105 689.354C119.406 692.492 121.043 695.449 122.974 698.179L124.607 697.025ZM119.953 688.588C117.826 683.453 116.728 678.011 116.657 672.559L114.657 672.584C114.731 678.288 115.88 683.981 118.105 689.354L119.953 688.588ZM116.226 671.749L103.846 663.201L102.709 664.847L115.089 673.394L116.226 671.749ZM104.268 664.163C104.924 659.496 106.169 654.891 108.004 650.463L106.156 649.697C104.256 654.283 102.967 659.051 102.287 663.884L104.268 664.163ZM108.004 650.463C108.695 648.793 109.464 647.164 110.305 645.582L108.539 644.643C107.668 646.282 106.872 647.968 106.156 649.697L108.004 650.463ZM168.81 693.269C163.169 695.605 156.831 695.605 151.19 693.269L150.425 695.117C156.556 697.656 163.444 697.656 169.575 695.117L168.81 693.269ZM181.269 680.81C178.932 686.451 174.451 690.932 168.81 693.269L169.575 695.117C175.706 692.577 180.577 687.706 183.116 681.575L181.269 680.81ZM181.269 663.191C183.605 668.831 183.605 675.169 181.269 680.81L183.116 681.575C185.656 675.445 185.656 668.556 183.116 662.425L181.269 663.191ZM168.81 650.732C174.451 653.068 178.932 657.55 181.269 663.191L183.116 662.425C180.577 656.294 175.706 651.423 169.575 648.884L168.81 650.732ZM151.19 650.732C156.831 648.395 163.169 648.395 168.81 650.732L169.575 648.884C163.444 646.345 156.556 646.345 150.425 648.884L151.19 650.732ZM138.732 663.191C141.068 657.55 145.55 653.068 151.19 650.732L150.425 648.884C144.294 651.423 139.423 656.294 136.884 662.425L138.732 663.191ZM138.732 680.81C136.395 675.169 136.395 668.831 138.732 663.191L136.884 662.425C134.344 668.556 134.344 675.445 136.884 681.575L138.732 680.81ZM151.19 693.269C145.55 690.932 141.068 686.451 138.732 680.81L136.884 681.575C139.423 687.706 144.294 692.577 150.425 695.117L151.19 693.269Z" fill="currentColor"/>
<path d="M155.757 682.243C158.474 683.368 161.526 683.368 164.243 682.243V682.243C166.959 681.117 169.117 678.959 170.243 676.243V676.243C171.368 673.526 171.368 670.474 170.243 667.757V667.757C169.117 665.041 166.959 662.883 164.243 661.757V661.757C161.526 660.632 158.474 660.632 155.757 661.757V661.757C153.041 662.883 150.883 665.041 149.757 667.757V667.757C148.632 670.474 148.632 673.526 149.757 676.243V676.243C150.883 678.959 153.041 681.117 155.757 682.243V682.243Z" stroke="currentColor" stroke-width="2" stroke-linecap="round" stroke-linejoin="round"/>
<path d="M329.166 619.16L329.102 618.664C328.906 618.689 328.744 618.827 328.687 619.017L329.166 619.16ZM325.587 631.149L325.108 631.006V631.006L325.587 631.149ZM342.834 619.16L343.313 619.017C343.256 618.827 343.094 618.689 342.898 618.664L342.834 619.16ZM346.413 631.149L346.892 631.006L346.413 631.149ZM348.961 633.792L349.122 633.319L348.961 633.792ZM351.44 634.725L351.248 635.187L351.44 634.725ZM368.333 647.867L367.932 648.166L368.333 647.867ZM371.634 649.473L371.646 649.973L371.634 649.473ZM384.142 649.172L384.594 648.958C384.51 648.78 384.328 648.668 384.13 648.672L384.142 649.172ZM385.225 651.611L385.687 651.419L385.225 651.611ZM388.366 662.171L388.65 662.582C388.813 662.47 388.894 662.273 388.858 662.079L388.366 662.171ZM378.07 669.28L378.354 669.692L378.07 669.28ZM376.343 672.52L376.843 672.527L376.343 672.52ZM373.275 687.44L373.737 687.631V687.631L373.275 687.44ZM368.944 695.293L369.352 695.581H369.352L368.944 695.293ZM368.436 698.929L367.965 699.095L368.436 698.929ZM372.588 710.732L372.931 711.096C373.074 710.96 373.125 710.753 373.059 710.566L372.588 710.732ZM361.53 718.766L361.227 719.163C361.384 719.283 361.597 719.299 361.77 719.205L361.53 718.766ZM351.588 711.171L351.891 710.773L351.588 711.171ZM347.972 710.529L347.824 710.052V710.052L347.972 710.529ZM324.028 710.529L323.879 711.007L324.028 710.529ZM320.412 711.171L320.109 710.773L320.412 711.171ZM310.47 718.766L310.23 719.205C310.403 719.3 310.616 719.283 310.773 719.163L310.47 718.766ZM299.412 710.732L298.941 710.566C298.875 710.753 298.926 710.96 299.069 711.096L299.412 710.732ZM303.564 698.929L303.092 698.763L303.564 698.929ZM303.056 695.293L303.464 695.004L303.056 695.293ZM298.725 687.44L298.263 687.631V687.631L298.725 687.44ZM295.657 672.52L295.157 672.527L295.657 672.52ZM293.93 669.28L294.214 668.869L293.93 669.28ZM283.634 662.171L283.142 662.079C283.106 662.273 283.187 662.47 283.35 662.582L283.634 662.171ZM286.775 651.611L287.237 651.802L286.775 651.611ZM287.857 649.172L287.869 648.672C287.672 648.668 287.49 648.78 287.406 648.958L287.857 649.172ZM300.366 649.473L300.354 649.973L300.366 649.473ZM303.667 647.867L303.267 647.568L303.667 647.867ZM320.56 634.725L320.369 634.263L320.56 634.725ZM323.039 633.792L323.2 634.266L323.039 633.792ZM325.364 611.65L325.277 611.157V611.157L325.364 611.65ZM346.636 611.65L346.55 612.142V612.142L346.636 611.65ZM322.225 614.445L322.704 614.588V614.588L322.225 614.445ZM318.496 626.934L318.677 627.4C318.821 627.344 318.931 627.225 318.975 627.077L318.496 626.934ZM317.499 627.334L317.69 627.796L317.499 627.334ZM298.548 641.427L298.536 641.927C298.69 641.93 298.838 641.863 298.935 641.743L298.548 641.427ZM285.518 641.114L285.53 640.614L285.518 641.114ZM281.89 643.235L282.331 643.47H282.331L281.89 643.235ZM279.384 648.549L278.922 648.358H278.922L279.384 648.549ZM275.316 663.467L275.811 663.536L275.316 663.467ZM277.005 667.315L276.721 667.727H276.721L277.005 667.315ZM287.73 674.721L288.229 674.693C288.221 674.539 288.141 674.397 288.014 674.309L287.73 674.721ZM291.334 690.502L290.872 690.693L291.334 690.502ZM295.35 698.172L295.821 698.337C295.873 698.192 295.854 698.031 295.77 697.901L295.35 698.172ZM291.025 710.467L290.554 710.301L291.025 710.467ZM291.922 714.573L291.562 714.92L291.922 714.573ZM309.132 727.077L308.913 727.526L309.132 727.077ZM313.314 726.66L313.617 727.058H313.617L313.314 726.66ZM323.671 718.748L323.799 718.265C323.649 718.225 323.49 718.257 323.368 718.351L323.671 718.748ZM348.329 718.748L348.632 718.351C348.51 718.257 348.35 718.225 348.201 718.265L348.329 718.748ZM358.686 726.66L358.99 726.263H358.99L358.686 726.66ZM362.868 727.077L363.087 727.526L362.868 727.077ZM380.078 714.573L379.719 714.225L380.078 714.573ZM380.974 710.467L380.503 710.633L380.974 710.467ZM376.65 698.171L376.23 697.901C376.146 698.031 376.127 698.192 376.179 698.337L376.65 698.171ZM380.666 690.502L380.204 690.31L380.666 690.502ZM384.27 674.721L383.985 674.31C383.858 674.397 383.779 674.539 383.77 674.693L384.27 674.721ZM394.995 667.315L394.711 666.904L394.995 667.315ZM396.684 663.467L396.188 663.537V663.537L396.684 663.467ZM392.616 648.549L393.078 648.358L392.616 648.549ZM390.11 643.235L389.668 643.47L390.11 643.235ZM386.482 641.114L386.47 640.614L386.482 641.114ZM373.452 641.427L373.064 641.743C373.162 641.863 373.309 641.93 373.464 641.927L373.452 641.427ZM354.501 627.334L354.31 627.796L354.501 627.334ZM353.504 626.934L353.025 627.077C353.069 627.225 353.179 627.344 353.323 627.4L353.504 626.934ZM349.775 614.445L349.296 614.588V614.588L349.775 614.445ZM343.662 653.503L343.47 653.965L343.662 653.503ZM328.338 653.503L328.53 653.965L328.338 653.503ZM354.497 664.339L354.035 664.53L354.497 664.339ZM354.497 679.662L354.959 679.853L354.497 679.662ZM343.662 690.497L343.853 690.959L343.662 690.497ZM328.338 690.497L328.53 690.035L328.338 690.497ZM317.503 679.662L317.041 679.853L317.503 679.662ZM317.503 664.339L317.965 664.53L317.503 664.339ZM325.277 646.112L325.468 646.574L325.277 646.112ZM310.112 661.277L310.574 661.468L310.112 661.277ZM310.112 682.723L309.65 682.915V682.915L310.112 682.723ZM325.277 697.888L325.468 697.426L325.277 697.888ZM346.723 697.888L346.915 698.35L346.723 697.888ZM361.888 682.723L361.426 682.532L361.888 682.723ZM361.888 661.277L361.426 661.468L361.888 661.277ZM330.227 685.938L330.418 685.476L330.227 685.938ZM341.773 685.938L341.582 685.476L341.773 685.938ZM322.062 677.774L322.524 677.582L322.062 677.774ZM322.062 666.227L322.524 666.418L322.062 666.227ZM330.227 658.062L330.418 658.524L330.227 658.062ZM341.773 658.062L341.582 658.524L341.773 658.062ZM349.938 666.227L349.476 666.418L349.938 666.227ZM349.938 677.774L349.476 677.582V677.582L349.938 677.774ZM338.712 678.547L338.903 679.009H338.903L338.712 678.547ZM333.288 678.547L333.097 679.009L333.288 678.547ZM342.547 674.712L343.009 674.904L342.547 674.712ZM342.547 669.288L343.009 669.097L342.547 669.288ZM338.712 665.453L338.903 664.991H338.903L338.712 665.453ZM333.288 665.453L333.097 664.991L333.288 665.453ZM329.453 669.288L329.915 669.48L329.453 669.288ZM329.453 674.712L329.915 674.521L329.453 674.712ZM328.687 619.017L325.108 631.006L326.066 631.292L329.645 619.303L328.687 619.017ZM342.898 618.664C338.319 618.072 333.681 618.072 329.102 618.664L329.23 619.656C333.724 619.074 338.276 619.074 342.77 619.656L342.898 618.664ZM346.892 631.006L343.313 619.017L342.355 619.303L345.934 631.292L346.892 631.006ZM349.122 633.319C348.048 632.955 347.217 632.092 346.892 631.006L345.934 631.292C346.351 632.689 347.419 633.797 348.8 634.266L349.122 633.319ZM351.631 634.263C350.803 633.92 349.966 633.605 349.122 633.319L348.8 634.266C349.624 634.545 350.44 634.852 351.248 635.187L351.631 634.263ZM368.733 647.568C364.371 641.723 358.483 637.101 351.631 634.263L351.248 635.187C357.932 637.956 363.676 642.464 367.932 648.166L368.733 647.568ZM371.622 648.973C370.488 649 369.412 648.477 368.733 647.568L367.932 648.166C368.804 649.334 370.188 650.008 371.646 649.973L371.622 648.973ZM384.13 648.672L371.622 648.973L371.646 649.973L384.154 649.672L384.13 648.672ZM385.687 651.419C385.342 650.588 384.978 649.767 384.594 648.958L383.691 649.387C384.067 650.181 384.425 650.986 384.763 651.802L385.687 651.419ZM388.858 662.079C388.177 658.453 387.12 654.88 385.687 651.419L384.763 651.802C386.17 655.198 387.207 658.705 387.875 662.263L388.858 662.079ZM378.354 669.692L388.65 662.582L388.082 661.759L377.786 668.869L378.354 669.692ZM376.843 672.527C376.857 671.393 377.421 670.336 378.354 669.692L377.786 668.869C376.586 669.697 375.862 671.056 375.843 672.514L376.843 672.527ZM373.737 687.631C375.741 682.792 376.777 677.664 376.843 672.527L375.843 672.514C375.778 677.526 374.768 682.528 372.813 687.249L373.737 687.631ZM369.352 695.581C371.091 693.122 372.566 690.459 373.737 687.631L372.813 687.249C371.67 690.007 370.232 692.605 368.535 695.004L369.352 695.581ZM368.908 698.763C368.532 697.693 368.697 696.507 369.352 695.581L368.535 695.004C367.694 696.195 367.481 697.719 367.965 699.095L368.908 698.763ZM373.059 710.566L368.908 698.763L367.965 699.095L372.116 710.898L373.059 710.566ZM361.77 719.205C365.843 716.981 369.59 714.251 372.931 711.096L372.244 710.369C368.966 713.466 365.288 716.145 361.291 718.327L361.77 719.205ZM351.284 711.568L361.227 719.163L361.834 718.369L351.891 710.773L351.284 711.568ZM348.121 711.007C349.204 710.67 350.383 710.879 351.284 711.568L351.891 710.773C350.732 709.888 349.216 709.619 347.824 710.052L348.121 711.007ZM323.879 711.007C331.772 713.46 340.228 713.46 348.121 711.007L347.824 710.052C340.124 712.445 331.875 712.445 324.176 710.052L323.879 711.007ZM320.716 711.568C321.617 710.879 322.796 710.67 323.879 711.007L324.176 710.052C322.784 709.619 321.268 709.888 320.109 710.773L320.716 711.568ZM310.773 719.163L320.716 711.568L320.109 710.773L310.166 718.369L310.773 719.163ZM299.069 711.096C302.41 714.251 306.157 716.982 310.23 719.205L310.709 718.327C306.712 716.145 303.034 713.466 299.756 710.369L299.069 711.096ZM303.092 698.763L298.941 710.566L299.884 710.898L304.035 699.095L303.092 698.763ZM302.648 695.581C303.303 696.508 303.468 697.693 303.092 698.763L304.035 699.095C304.519 697.72 304.306 696.195 303.464 695.004L302.648 695.581ZM298.263 687.631C299.434 690.459 300.909 693.122 302.648 695.581L303.464 695.004C301.768 692.605 300.329 690.007 299.187 687.249L298.263 687.631ZM295.157 672.527C295.223 677.664 296.259 682.792 298.263 687.631L299.187 687.249C297.231 682.528 296.222 677.526 296.157 672.514L295.157 672.527ZM293.646 669.691C294.579 670.336 295.142 671.392 295.157 672.527L296.157 672.514C296.138 671.056 295.414 669.697 294.214 668.869L293.646 669.691ZM283.35 662.582L293.646 669.691L294.214 668.869L283.918 661.759L283.35 662.582ZM286.313 651.419C284.88 654.88 283.823 658.453 283.142 662.079L284.125 662.263C284.793 658.705 285.83 655.198 287.237 651.802L286.313 651.419ZM287.406 648.958C287.022 649.767 286.658 650.588 286.313 651.419L287.237 651.802C287.575 650.986 287.933 650.181 288.309 649.387L287.406 648.958ZM300.378 648.973L287.869 648.672L287.845 649.672L300.354 649.973L300.378 648.973ZM303.267 647.568C302.588 648.477 301.511 649 300.378 648.973L300.354 649.973C301.811 650.008 303.196 649.334 304.068 648.166L303.267 647.568ZM320.369 634.263C313.517 637.101 307.629 641.723 303.267 647.568L304.068 648.166C308.324 642.464 314.068 637.956 320.751 635.187L320.369 634.263ZM322.878 633.319C322.034 633.605 321.197 633.92 320.369 634.263L320.751 635.187C321.56 634.852 322.376 634.545 323.2 634.266L322.878 633.319ZM325.108 631.006C324.783 632.092 323.952 632.955 322.878 633.319L323.2 634.266C324.581 633.797 325.649 632.689 326.066 631.292L325.108 631.006ZM325.45 612.142C332.429 610.912 339.571 610.912 346.55 612.142L346.723 611.157C339.63 609.907 332.37 609.907 325.277 611.157L325.45 612.142ZM322.704 614.588C323.083 613.318 324.146 612.372 325.45 612.142L325.277 611.157C323.6 611.453 322.233 612.67 321.746 614.302L322.704 614.588ZM318.975 627.077L322.704 614.588L321.746 614.302L318.017 626.791L318.975 627.077ZM317.69 627.796C318.018 627.66 318.347 627.528 318.677 627.4L318.315 626.468C317.978 626.599 317.642 626.734 317.307 626.872L317.69 627.796ZM298.935 641.743C303.893 635.67 310.315 630.851 317.69 627.796L317.307 626.872C309.778 629.991 303.222 634.911 298.161 641.111L298.935 641.743ZM285.506 641.614L298.536 641.927L298.56 640.927L285.53 640.614L285.506 641.614ZM282.331 643.47C282.953 642.3 284.182 641.582 285.506 641.614L285.53 640.614C283.828 640.573 282.248 641.497 281.448 643L282.331 643.47ZM279.846 648.741C280.593 646.937 281.423 645.179 282.331 643.47L281.448 643C280.525 644.738 279.681 646.525 278.922 648.358L279.846 648.741ZM275.811 663.536C276.52 658.496 277.865 653.523 279.846 648.741L278.922 648.358C276.909 653.219 275.541 658.274 274.821 663.397L275.811 663.536ZM277.289 666.904C276.199 666.151 275.627 664.848 275.811 663.536L274.821 663.397C274.584 665.084 275.319 666.759 276.721 667.727L277.289 666.904ZM288.014 674.309L277.289 666.904L276.721 667.727L287.446 675.132L288.014 674.309ZM291.796 690.31C289.718 685.294 288.529 680.012 288.229 674.693L287.231 674.749C287.537 680.18 288.751 685.572 290.872 690.693L291.796 690.31ZM295.77 697.901C294.231 695.511 292.899 692.973 291.796 690.31L290.872 690.693C291.998 693.411 293.358 696.002 294.929 698.442L295.77 697.901ZM291.497 710.633L295.821 698.337L294.878 698.006L290.554 710.301L291.497 710.633ZM292.281 714.225C291.361 713.273 291.058 711.882 291.497 710.633L290.554 710.301C289.989 711.907 290.379 713.695 291.562 714.92L292.281 714.225ZM309.351 726.627C302.938 723.499 297.172 719.289 292.281 714.225L291.562 714.92C296.533 720.067 302.394 724.347 308.913 727.526L309.351 726.627ZM313.01 726.263C311.958 727.067 310.542 727.208 309.351 726.627L308.913 727.526C310.443 728.273 312.264 728.091 313.617 727.058L313.01 726.263ZM323.368 718.351L313.01 726.263L313.617 727.058L323.975 719.146L323.368 718.351ZM348.201 718.265C340.205 720.374 331.795 720.374 323.799 718.265L323.544 719.232C331.707 721.385 340.293 721.385 348.456 719.232L348.201 718.265ZM358.99 726.263L348.632 718.351L348.025 719.146L358.383 727.058L358.99 726.263ZM362.649 726.627C361.458 727.208 360.042 727.067 358.99 726.263L358.383 727.058C359.736 728.091 361.557 728.273 363.087 727.526L362.649 726.627ZM379.719 714.225C374.828 719.289 369.062 723.499 362.649 726.627L363.087 727.526C369.606 724.347 375.467 720.067 380.438 714.92L379.719 714.225ZM380.503 710.633C380.942 711.882 380.639 713.273 379.719 714.225L380.438 714.92C381.621 713.695 382.011 711.907 381.446 710.301L380.503 710.633ZM376.179 698.337L380.503 710.633L381.446 710.301L377.122 698.005L376.179 698.337ZM380.204 690.31C379.101 692.973 377.769 695.511 376.23 697.901L377.071 698.442C378.642 696.002 380.002 693.411 381.128 690.693L380.204 690.31ZM383.77 674.693C383.471 680.013 382.282 685.294 380.204 690.31L381.128 690.693C383.249 685.572 384.463 680.18 384.769 674.749L383.77 674.693ZM394.711 666.904L383.985 674.31L384.554 675.133L395.279 667.727L394.711 666.904ZM396.188 663.537C396.373 664.848 395.801 666.151 394.711 666.904L395.279 667.727C396.681 666.759 397.416 665.084 397.179 663.397L396.188 663.537ZM392.154 648.741C394.135 653.523 395.48 658.496 396.188 663.537L397.179 663.397C396.458 658.274 395.091 653.219 393.078 648.358L392.154 648.741ZM389.668 643.47C390.577 645.179 391.407 646.937 392.154 648.741L393.078 648.358C392.318 646.525 391.475 644.738 390.551 643L389.668 643.47ZM386.494 641.614C387.818 641.582 389.047 642.3 389.668 643.47L390.551 643C389.752 641.497 388.172 640.573 386.47 640.614L386.494 641.614ZM373.464 641.927L386.494 641.614L386.47 640.614L373.44 640.927L373.464 641.927ZM354.31 627.796C361.685 630.851 368.106 635.67 373.064 641.743L373.839 641.111C368.777 634.911 362.222 629.991 354.693 626.872L354.31 627.796ZM353.323 627.4C353.653 627.528 353.982 627.66 354.31 627.796L354.693 626.872C354.358 626.734 354.022 626.599 353.685 626.468L353.323 627.4ZM349.296 614.588L353.025 627.077L353.983 626.791L350.254 614.302L349.296 614.588ZM346.55 612.142C347.854 612.372 348.917 613.318 349.296 614.588L350.254 614.302C349.767 612.67 348.4 611.453 346.723 611.157L346.55 612.142ZM343.853 653.041C338.825 650.959 333.175 650.959 328.147 653.041L328.53 653.965C333.313 651.984 338.687 651.984 343.47 653.965L343.853 653.041ZM354.959 664.147C352.876 659.119 348.881 655.124 343.853 653.041L343.47 653.965C348.254 655.947 352.054 659.747 354.035 664.53L354.959 664.147ZM354.959 679.853C357.042 674.825 357.042 669.175 354.959 664.147L354.035 664.53C356.016 669.313 356.016 674.687 354.035 679.471L354.959 679.853ZM343.853 690.959C348.881 688.876 352.876 684.881 354.959 679.853L354.035 679.471C352.054 684.254 348.254 688.054 343.47 690.035L343.853 690.959ZM328.147 690.959C333.175 693.042 338.825 693.042 343.853 690.959L343.47 690.035C338.687 692.016 333.313 692.016 328.53 690.035L328.147 690.959ZM317.041 679.853C319.124 684.881 323.119 688.876 328.147 690.959L328.53 690.035C323.747 688.054 319.946 684.254 317.965 679.471L317.041 679.853ZM317.041 664.147C314.959 669.175 314.959 674.825 317.041 679.853L317.965 679.471C315.984 674.687 315.984 669.313 317.965 664.53L317.041 664.147ZM328.147 653.041C323.119 655.124 319.124 659.119 317.041 664.147L317.965 664.53C319.946 659.747 323.747 655.947 328.53 653.965L328.147 653.041ZM325.468 646.574C332.212 643.781 339.788 643.781 346.532 646.574L346.915 645.65C339.926 642.756 332.074 642.756 325.086 645.65L325.468 646.574ZM310.574 661.468C313.367 654.725 318.725 649.367 325.468 646.574L325.086 645.65C318.097 648.545 312.545 654.097 309.65 661.086L310.574 661.468ZM310.574 682.532C307.781 675.789 307.781 668.212 310.574 661.468L309.65 661.086C306.756 668.074 306.756 675.926 309.65 682.915L310.574 682.532ZM325.468 697.426C318.725 694.633 313.367 689.275 310.574 682.532L309.65 682.915C312.545 689.903 318.097 695.455 325.086 698.35L325.468 697.426ZM346.532 697.426C339.788 700.219 332.212 700.219 325.468 697.426L325.086 698.35C332.074 701.245 339.926 701.245 346.915 698.35L346.532 697.426ZM361.426 682.532C358.633 689.275 353.275 694.633 346.532 697.426L346.915 698.35C353.903 695.455 359.455 689.903 362.35 682.915L361.426 682.532ZM361.426 661.468C364.219 668.212 364.219 675.789 361.426 682.532L362.35 682.915C365.245 675.926 365.245 668.074 362.35 661.086L361.426 661.468ZM346.532 646.574C353.275 649.367 358.633 654.725 361.426 661.468L362.35 661.086C359.455 654.097 353.903 648.545 346.915 645.65L346.532 646.574ZM330.035 686.4C333.855 687.982 338.146 687.982 341.965 686.4L341.582 685.476C338.008 686.957 333.992 686.957 330.418 685.476L330.035 686.4ZM321.6 677.965C323.182 681.784 326.216 684.818 330.035 686.4L330.418 685.476C326.844 683.996 324.004 681.156 322.524 677.582L321.6 677.965ZM321.6 666.036C320.018 669.855 320.018 674.146 321.6 677.965L322.524 677.582C321.043 674.008 321.043 669.992 322.524 666.418L321.6 666.036ZM330.035 657.6C326.216 659.182 323.182 662.216 321.6 666.036L322.524 666.418C324.004 662.844 326.844 660.004 330.418 658.524L330.035 657.6ZM341.965 657.6C338.146 656.018 333.855 656.018 330.035 657.6L330.418 658.524C333.992 657.044 338.008 657.044 341.582 658.524L341.965 657.6ZM350.4 666.036C348.818 662.216 345.784 659.182 341.965 657.6L341.582 658.524C345.156 660.004 347.996 662.844 349.476 666.418L350.4 666.036ZM350.4 677.965C351.982 674.146 351.982 669.855 350.4 666.036L349.476 666.418C350.957 669.992 350.957 674.008 349.476 677.582L350.4 677.965ZM341.965 686.4C345.784 684.818 348.818 681.784 350.4 677.965L349.476 677.582C347.996 681.156 345.156 683.996 341.582 685.476L341.965 686.4ZM338.521 678.085C336.907 678.754 335.093 678.754 333.48 678.085L333.097 679.009C334.956 679.779 337.044 679.779 338.903 679.009L338.521 678.085ZM342.085 674.521C341.417 676.135 340.135 677.417 338.521 678.085L338.903 679.009C340.762 678.239 342.239 676.762 343.009 674.904L342.085 674.521ZM342.085 669.48C342.754 671.094 342.754 672.907 342.085 674.521L343.009 674.904C343.779 673.045 343.779 670.956 343.009 669.097L342.085 669.48ZM338.521 665.915C340.135 666.584 341.417 667.866 342.085 669.48L343.009 669.097C342.239 667.238 340.762 665.761 338.903 664.991L338.521 665.915ZM333.48 665.915C335.093 665.247 336.907 665.247 338.521 665.915L338.903 664.991C337.044 664.221 334.956 664.221 333.097 664.991L333.48 665.915ZM329.915 669.48C330.583 667.866 331.866 666.584 333.48 665.915L333.097 664.991C331.238 665.761 329.761 667.238 328.991 669.097L329.915 669.48ZM329.915 674.521C329.246 672.907 329.246 671.094 329.915 669.48L328.991 669.097C328.221 670.956 328.221 673.045 328.991 674.904L329.915 674.521ZM333.48 678.085C331.866 677.417 330.583 676.135 329.915 674.521L328.991 674.904C329.761 676.762 331.238 678.239 333.097 679.009L333.48 678.085Z" fill="currentColor"/>
<path fill-rule="evenodd" clip-rule="evenodd" d="M461.422 645.113L476.462 645.474C481.198 639.129 487.591 634.111 495.029 631.03C495.929 630.657 496.838 630.315 497.754 630.004L502.058 615.589C508.635 614.43 515.366 614.43 521.942 615.589L526.246 630.005C527.162 630.315 528.071 630.657 528.97 631.03C536.409 634.111 542.802 639.129 547.538 645.474L562.578 645.113C563.434 646.723 564.216 648.38 564.92 650.08C566.787 654.587 568.055 659.274 568.723 664.024L556.342 672.572C556.271 678.15 555.147 683.717 552.97 688.971C551.699 692.04 550.098 694.932 548.21 697.602L553.201 711.794C548.592 716.566 543.158 720.534 537.114 723.482L525.159 714.349C516.59 717.012 507.41 717.012 498.841 714.349L486.886 723.482C480.842 720.534 475.408 716.566 470.799 711.794L475.79 697.602C473.902 694.932 472.301 692.04 471.029 688.971C468.853 683.717 467.729 678.15 467.657 672.572L455.277 664.024C455.945 659.274 457.213 654.587 459.08 650.08C459.784 648.38 460.566 646.723 461.422 645.113ZM502.808 694.193C508.694 696.631 515.307 696.631 521.192 694.193C527.078 691.755 531.755 687.078 534.193 681.193C536.63 675.307 536.63 668.694 534.193 662.808C531.755 656.922 527.078 652.246 521.192 649.808C515.307 647.37 508.694 647.37 502.808 649.808C496.922 652.246 492.246 656.922 489.808 662.808C487.37 668.694 487.37 675.307 489.808 681.193C492.246 687.078 496.922 691.755 502.808 694.193Z" fill="currentColor"/>
<path d="M461.422 645.113L461.47 643.113C460.713 643.095 460.011 643.506 459.656 644.174L461.422 645.113ZM476.462 645.474L476.414 647.473C477.062 647.489 477.677 647.19 478.065 646.67L476.462 645.474ZM495.029 631.03L494.264 629.182L495.029 631.03ZM497.754 630.004L498.397 631.898C499.01 631.69 499.485 631.198 499.67 630.577L497.754 630.004ZM502.058 615.589L501.711 613.619C500.965 613.751 500.358 614.292 500.141 615.017L502.058 615.589ZM521.942 615.589L523.859 615.017C523.642 614.292 523.035 613.751 522.289 613.619L521.942 615.589ZM526.246 630.005L524.33 630.577C524.515 631.198 524.99 631.69 525.603 631.898L526.246 630.005ZM528.97 631.03L528.205 632.877V632.877L528.97 631.03ZM547.538 645.474L545.935 646.67C546.323 647.19 546.938 647.489 547.586 647.473L547.538 645.474ZM562.578 645.113L564.344 644.174C563.989 643.506 563.287 643.095 562.53 643.113L562.578 645.113ZM564.92 650.08L566.768 649.315V649.315L564.92 650.08ZM568.723 664.024L569.859 665.67C570.482 665.24 570.808 664.495 570.703 663.745L568.723 664.024ZM556.342 672.572L555.206 670.926C554.673 671.294 554.351 671.898 554.343 672.546L556.342 672.572ZM552.97 688.971L554.818 689.736L554.818 689.736L552.97 688.971ZM548.21 697.602L546.577 696.447C546.203 696.976 546.108 697.654 546.323 698.266L548.21 697.602ZM553.201 711.794L554.64 713.183C555.165 712.639 555.339 711.844 555.088 711.13L553.201 711.794ZM537.114 723.482L535.9 725.071C536.502 725.53 537.311 725.611 537.991 725.279L537.114 723.482ZM525.159 714.349L526.373 712.76C525.858 712.366 525.185 712.247 524.566 712.439L525.159 714.349ZM498.841 714.349L499.434 712.439C498.815 712.247 498.142 712.366 497.627 712.76L498.841 714.349ZM486.886 723.482L486.009 725.279C486.689 725.611 487.498 725.531 488.1 725.071L486.886 723.482ZM470.799 711.794L468.912 711.13C468.661 711.844 468.835 712.639 469.36 713.183L470.799 711.794ZM475.79 697.602L477.677 698.266C477.892 697.654 477.797 696.977 477.423 696.447L475.79 697.602ZM471.029 688.971L469.182 689.736H469.182L471.029 688.971ZM467.657 672.572L469.657 672.546C469.649 671.898 469.327 671.294 468.794 670.926L467.657 672.572ZM455.277 664.024L453.297 663.745C453.191 664.495 453.518 665.24 454.141 665.67L455.277 664.024ZM459.08 650.08L457.232 649.315L457.232 649.315L459.08 650.08ZM521.192 694.193L520.427 692.345V692.345L521.192 694.193ZM502.808 694.193L503.573 692.345V692.345L502.808 694.193ZM534.193 681.193L536.04 681.958L534.193 681.193ZM534.193 662.808L532.345 663.573L534.193 662.808ZM521.192 649.808L520.427 651.656L521.192 649.808ZM489.808 662.808L491.655 663.573L489.808 662.808ZM489.808 681.193L487.96 681.958L489.808 681.193ZM461.374 647.112L476.414 647.473L476.51 643.475L461.47 643.113L461.374 647.112ZM478.065 646.67C482.587 640.611 488.691 635.82 495.795 632.877L494.264 629.182C486.49 632.402 479.809 637.646 474.859 644.278L478.065 646.67ZM495.795 632.877C496.654 632.522 497.522 632.195 498.397 631.898L497.111 628.11C496.154 628.435 495.204 628.793 494.264 629.182L495.795 632.877ZM499.67 630.577L503.974 616.161L500.141 615.017L495.838 629.432L499.67 630.577ZM502.405 617.559C508.752 616.44 515.248 616.44 521.595 617.559L522.289 613.619C515.483 612.42 508.517 612.42 501.711 613.619L502.405 617.559ZM520.026 616.161L524.33 630.577L528.162 629.432L523.859 615.017L520.026 616.161ZM525.603 631.898C526.478 632.195 527.346 632.522 528.205 632.877L529.736 629.182C528.796 628.793 527.846 628.435 526.889 628.111L525.603 631.898ZM528.205 632.877C535.308 635.82 541.412 640.611 545.935 646.67L549.141 644.278C544.191 637.646 537.51 632.402 529.736 629.182L528.205 632.877ZM547.586 647.473L562.626 647.112L562.53 643.113L547.49 643.475L547.586 647.473ZM560.812 646.051C561.638 647.606 562.393 649.205 563.072 650.845L566.768 649.315C566.039 647.556 565.23 645.841 564.344 644.174L560.812 646.051ZM563.072 650.845C564.874 655.195 566.098 659.718 566.742 664.302L570.703 663.745C570.012 658.829 568.7 653.979 566.768 649.315L563.072 650.845ZM567.586 662.378L555.206 670.926L557.479 674.218L569.859 665.67L567.586 662.378ZM554.343 672.546C554.274 677.872 553.201 683.189 551.123 688.205L554.818 689.736C557.092 684.246 558.267 678.427 558.342 672.597L554.343 672.546ZM551.123 688.205C549.909 691.137 548.38 693.897 546.577 696.447L549.843 698.757C551.816 695.966 553.49 692.944 554.818 689.736L551.123 688.205ZM546.323 698.266L551.314 712.457L555.088 711.13L550.097 696.938L546.323 698.266ZM551.762 710.404C547.314 715.01 542.07 718.839 536.237 721.684L537.991 725.279C544.246 722.228 549.87 718.122 554.64 713.183L551.762 710.404ZM538.328 721.892L526.373 712.76L523.945 715.938L535.9 725.071L538.328 721.892ZM524.566 712.439C516.383 714.982 507.617 714.982 499.434 712.439L498.247 716.259C507.203 719.042 516.797 719.042 525.753 716.259L524.566 712.439ZM497.627 712.76L485.672 721.892L488.1 725.071L500.055 715.939L497.627 712.76ZM487.763 721.684C481.93 718.839 476.686 715.01 472.238 710.405L469.36 713.183C474.13 718.122 479.754 722.228 486.009 725.279L487.763 721.684ZM472.686 712.458L477.677 698.266L473.903 696.939L468.912 711.13L472.686 712.458ZM477.423 696.447C475.62 693.898 474.091 691.137 472.877 688.205L469.182 689.736C470.51 692.944 472.184 695.966 474.157 698.757L477.423 696.447ZM472.877 688.205C470.799 683.189 469.726 677.872 469.657 672.546L465.658 672.597C465.733 678.427 466.907 684.246 469.182 689.736L472.877 688.205ZM468.794 670.926L456.414 662.378L454.141 665.67L466.521 674.217L468.794 670.926ZM457.258 664.302C457.902 659.718 459.126 655.195 460.927 650.845L457.232 649.315C455.3 653.979 453.988 658.829 453.297 663.745L457.258 664.302ZM460.927 650.845C461.607 649.205 462.362 647.606 463.188 646.051L459.656 644.174C458.77 645.841 457.96 647.556 457.232 649.315L460.927 650.845ZM520.427 692.345C515.031 694.58 508.969 694.58 503.573 692.345L502.042 696.04C508.418 698.681 515.582 698.681 521.958 696.04L520.427 692.345ZM532.345 680.427C530.11 685.823 525.823 690.11 520.427 692.345L521.958 696.04C528.334 693.399 533.399 688.334 536.04 681.958L532.345 680.427ZM532.345 663.573C534.58 668.969 534.58 675.032 532.345 680.427L536.04 681.958C538.681 675.582 538.681 668.418 536.04 662.043L532.345 663.573ZM520.427 651.656C525.823 653.891 530.11 658.178 532.345 663.573L536.04 662.043C533.399 655.667 528.334 650.601 521.958 647.96L520.427 651.656ZM503.573 651.656C508.969 649.421 515.031 649.421 520.427 651.656L521.958 647.96C515.582 645.319 508.418 645.319 502.042 647.96L503.573 651.656ZM491.655 663.573C493.89 658.178 498.177 653.891 503.573 651.656L502.042 647.96C495.667 650.601 490.601 655.667 487.96 662.043L491.655 663.573ZM491.655 680.427C489.421 675.032 489.421 668.969 491.655 663.573L487.96 662.043C485.319 668.418 485.319 675.582 487.96 681.958L491.655 680.427ZM503.573 692.345C498.177 690.11 493.89 685.823 491.655 680.427L487.96 681.958C490.601 688.334 495.667 693.399 502.042 696.04L503.573 692.345Z" fill="currentColor"/>
<path d="M507.757 682.243C510.474 683.368 513.526 683.368 516.243 682.243C518.959 681.117 521.117 678.959 522.243 676.243C523.368 673.526 523.368 670.474 522.243 667.757C521.117 665.041 518.959 662.883 516.243 661.757C513.526 660.632 510.474 660.632 507.757 661.757C505.041 662.883 502.883 665.041 501.757 667.757C500.632 670.474 500.632 673.526 501.757 676.243C502.883 678.959 505.041 681.117 507.757 682.243Z" fill="currentColor" stroke="currentColor" stroke-width="4" stroke-linecap="round" stroke-linejoin="round"/>
<g opacity="0.25">
<path fill-rule="evenodd" clip-rule="evenodd" d="M637.422 645.113L652.462 645.474C657.198 639.129 663.591 634.111 671.029 631.03C671.929 630.657 672.838 630.315 673.754 630.004L678.058 615.589C684.635 614.43 691.366 614.43 697.942 615.589L702.246 630.005C703.162 630.315 704.071 630.657 704.97 631.03C712.409 634.111 718.802 639.129 723.538 645.474L738.578 645.113C739.434 646.723 740.216 648.38 740.92 650.08C742.787 654.587 744.055 659.274 744.723 664.024L732.342 672.572C732.271 678.15 731.147 683.717 728.97 688.971C727.699 692.04 726.098 694.932 724.21 697.602L729.201 711.794C724.592 716.566 719.158 720.534 713.114 723.482L701.159 714.349C692.59 717.012 683.41 717.012 674.841 714.349L662.886 723.482C656.842 720.534 651.408 716.566 646.799 711.794L651.79 697.602C649.902 694.932 648.301 692.04 647.029 688.971C644.853 683.717 643.729 678.15 643.657 672.572L631.277 664.024C631.945 659.274 633.213 654.587 635.08 650.08C635.784 648.38 636.566 646.723 637.422 645.113ZM678.808 694.193C684.694 696.631 691.307 696.631 697.192 694.193C703.078 691.755 707.755 687.078 710.193 681.193C712.63 675.307 712.63 668.694 710.193 662.808C707.755 656.922 703.078 652.246 697.192 649.808C691.307 647.37 684.694 647.37 678.808 649.808C672.922 652.246 668.246 656.922 665.808 662.808C663.37 668.694 663.37 675.307 665.808 681.193C668.246 687.078 672.922 691.755 678.808 694.193Z" fill="currentColor"/>
<path d="M637.422 645.113L637.47 643.113C636.713 643.095 636.011 643.506 635.656 644.174L637.422 645.113ZM652.462 645.474L652.414 647.473C653.062 647.489 653.677 647.19 654.065 646.67L652.462 645.474ZM671.029 631.03L670.264 629.182L671.029 631.03ZM673.754 630.004L674.397 631.898C675.01 631.69 675.485 631.198 675.67 630.577L673.754 630.004ZM678.058 615.589L677.711 613.619C676.965 613.751 676.358 614.292 676.141 615.017L678.058 615.589ZM697.942 615.589L699.859 615.017C699.642 614.292 699.035 613.751 698.289 613.619L697.942 615.589ZM702.246 630.005L700.33 630.577C700.515 631.198 700.99 631.69 701.603 631.898L702.246 630.005ZM704.97 631.03L704.205 632.877V632.877L704.97 631.03ZM723.538 645.474L721.935 646.67C722.323 647.19 722.938 647.489 723.586 647.473L723.538 645.474ZM738.578 645.113L740.344 644.174C739.989 643.506 739.287 643.095 738.53 643.113L738.578 645.113ZM740.92 650.08L742.768 649.315V649.315L740.92 650.08ZM744.723 664.024L745.859 665.67C746.482 665.24 746.808 664.495 746.703 663.745L744.723 664.024ZM732.342 672.572L731.206 670.926C730.673 671.294 730.351 671.898 730.343 672.546L732.342 672.572ZM728.97 688.971L730.818 689.736L730.818 689.736L728.97 688.971ZM724.21 697.602L722.577 696.447C722.203 696.976 722.108 697.654 722.323 698.266L724.21 697.602ZM729.201 711.794L730.64 713.183C731.165 712.639 731.339 711.844 731.088 711.13L729.201 711.794ZM713.114 723.482L711.9 725.071C712.502 725.53 713.311 725.611 713.991 725.279L713.114 723.482ZM701.159 714.349L702.373 712.76C701.858 712.366 701.185 712.247 700.566 712.439L701.159 714.349ZM674.841 714.349L675.434 712.439C674.815 712.247 674.142 712.366 673.627 712.76L674.841 714.349ZM662.886 723.482L662.009 725.279C662.689 725.611 663.498 725.531 664.1 725.071L662.886 723.482ZM646.799 711.794L644.912 711.13C644.661 711.844 644.835 712.639 645.36 713.183L646.799 711.794ZM651.79 697.602L653.677 698.266C653.892 697.654 653.797 696.977 653.423 696.447L651.79 697.602ZM647.029 688.971L645.182 689.736H645.182L647.029 688.971ZM643.657 672.572L645.657 672.546C645.649 671.898 645.327 671.294 644.794 670.926L643.657 672.572ZM631.277 664.024L629.297 663.745C629.191 664.495 629.518 665.24 630.141 665.67L631.277 664.024ZM635.08 650.08L633.232 649.315L633.232 649.315L635.08 650.08ZM697.192 694.193L696.427 692.345V692.345L697.192 694.193ZM678.808 694.193L679.573 692.345V692.345L678.808 694.193ZM710.193 681.193L712.04 681.958L710.193 681.193ZM710.193 662.808L708.345 663.573L710.193 662.808ZM697.192 649.808L696.427 651.656L697.192 649.808ZM665.808 662.808L667.655 663.573L665.808 662.808ZM665.808 681.193L663.96 681.958L665.808 681.193ZM637.374 647.112L652.414 647.473L652.51 643.475L637.47 643.113L637.374 647.112ZM654.065 646.67C658.587 640.611 664.691 635.82 671.795 632.877L670.264 629.182C662.49 632.402 655.809 637.646 650.859 644.278L654.065 646.67ZM671.795 632.877C672.654 632.522 673.522 632.195 674.397 631.898L673.111 628.11C672.154 628.435 671.204 628.793 670.264 629.182L671.795 632.877ZM675.67 630.577L679.974 616.161L676.141 615.017L671.838 629.432L675.67 630.577ZM678.405 617.559C684.752 616.44 691.248 616.44 697.595 617.559L698.289 613.619C691.483 612.42 684.517 612.42 677.711 613.619L678.405 617.559ZM696.026 616.161L700.33 630.577L704.162 629.432L699.859 615.017L696.026 616.161ZM701.603 631.898C702.478 632.195 703.346 632.522 704.205 632.877L705.736 629.182C704.796 628.793 703.846 628.435 702.889 628.111L701.603 631.898ZM704.205 632.877C711.308 635.82 717.412 640.611 721.935 646.67L725.141 644.278C720.191 637.646 713.51 632.402 705.736 629.182L704.205 632.877ZM723.586 647.473L738.626 647.112L738.53 643.113L723.49 643.475L723.586 647.473ZM736.812 646.051C737.638 647.606 738.393 649.205 739.072 650.845L742.768 649.315C742.039 647.556 741.23 645.841 740.344 644.174L736.812 646.051ZM739.072 650.845C740.874 655.195 742.098 659.718 742.742 664.302L746.703 663.745C746.012 658.829 744.7 653.979 742.768 649.315L739.072 650.845ZM743.586 662.378L731.206 670.926L733.479 674.218L745.859 665.67L743.586 662.378ZM730.343 672.546C730.274 677.872 729.201 683.189 727.123 688.205L730.818 689.736C733.092 684.246 734.267 678.427 734.342 672.597L730.343 672.546ZM727.123 688.205C725.909 691.137 724.38 693.897 722.577 696.447L725.843 698.757C727.816 695.966 729.49 692.944 730.818 689.736L727.123 688.205ZM722.323 698.266L727.314 712.457L731.088 711.13L726.097 696.938L722.323 698.266ZM727.762 710.404C723.314 715.01 718.07 718.839 712.237 721.684L713.991 725.279C720.246 722.228 725.87 718.122 730.64 713.183L727.762 710.404ZM714.328 721.892L702.373 712.76L699.945 715.938L711.9 725.071L714.328 721.892ZM700.566 712.439C692.383 714.982 683.617 714.982 675.434 712.439L674.247 716.259C683.203 719.042 692.797 719.042 701.753 716.259L700.566 712.439ZM673.627 712.76L661.672 721.892L664.1 725.071L676.055 715.939L673.627 712.76ZM663.763 721.684C657.93 718.839 652.686 715.01 648.238 710.405L645.36 713.183C650.13 718.122 655.754 722.228 662.009 725.279L663.763 721.684ZM648.686 712.458L653.677 698.266L649.903 696.939L644.912 711.13L648.686 712.458ZM653.423 696.447C651.62 693.898 650.091 691.137 648.877 688.205L645.182 689.736C646.51 692.944 648.184 695.966 650.157 698.757L653.423 696.447ZM648.877 688.205C646.799 683.189 645.726 677.872 645.657 672.546L641.658 672.597C641.733 678.427 642.907 684.246 645.182 689.736L648.877 688.205ZM644.794 670.926L632.414 662.378L630.141 665.67L642.521 674.217L644.794 670.926ZM633.258 664.302C633.902 659.718 635.126 655.195 636.927 650.845L633.232 649.315C631.3 653.979 629.988 658.829 629.297 663.745L633.258 664.302ZM636.927 650.845C637.607 649.205 638.362 647.606 639.188 646.051L635.656 644.174C634.77 645.841 633.96 647.556 633.232 649.315L636.927 650.845ZM696.427 692.345C691.031 694.58 684.969 694.58 679.573 692.345L678.042 696.04C684.418 698.681 691.582 698.681 697.958 696.04L696.427 692.345ZM708.345 680.427C706.11 685.823 701.823 690.11 696.427 692.345L697.958 696.04C704.334 693.399 709.399 688.334 712.04 681.958L708.345 680.427ZM708.345 663.573C710.58 668.969 710.58 675.032 708.345 680.427L712.04 681.958C714.681 675.582 714.681 668.418 712.04 662.043L708.345 663.573ZM696.427 651.656C701.823 653.891 706.11 658.178 708.345 663.573L712.04 662.043C709.399 655.667 704.334 650.601 697.958 647.96L696.427 651.656ZM679.573 651.656C684.969 649.421 691.031 649.421 696.427 651.656L697.958 647.96C691.582 645.319 684.418 645.319 678.042 647.96L679.573 651.656ZM667.655 663.573C669.89 658.178 674.177 653.891 679.573 651.656L678.042 647.96C671.667 650.601 666.601 655.667 663.96 662.043L667.655 663.573ZM667.655 680.427C665.421 675.032 665.421 668.969 667.655 663.573L663.96 662.043C661.319 668.418 661.319 675.582 663.96 681.958L667.655 680.427ZM679.573 692.345C674.177 690.11 669.89 685.823 667.655 680.427L663.96 681.958C666.601 688.334 671.667 693.399 678.042 696.04L679.573 692.345Z" fill="currentColor"/>
</g>
<path d="M683.757 682.243C686.474 683.368 689.526 683.368 692.243 682.243C694.959 681.117 697.118 678.959 698.243 676.243C699.368 673.526 699.368 670.474 698.243 667.757C697.118 665.041 694.959 662.883 692.243 661.757C689.526 660.632 686.474 660.632 683.757 661.757C681.041 662.883 678.883 665.041 677.757 667.757C676.632 670.474 676.632 673.526 677.757 676.243C678.883 678.959 681.041 681.117 683.757 682.243Z" fill="currentColor" stroke="currentColor" stroke-width="4" stroke-linecap="round" stroke-linejoin="round"/>
<path fill-rule="evenodd" clip-rule="evenodd" d="M813.422 645.113L828.462 645.474C833.198 639.129 839.59 634.111 847.029 631.03C847.929 630.657 848.838 630.315 849.754 630.004L854.058 615.589C860.634 614.43 867.366 614.43 873.942 615.589L878.246 630.005C879.162 630.315 880.071 630.657 880.97 631.03C888.409 634.111 894.802 639.129 899.538 645.474L914.578 645.113C915.434 646.723 916.216 648.38 916.92 650.08C918.787 654.587 920.055 659.274 920.723 664.024L908.342 672.572C908.271 678.15 907.147 683.717 904.97 688.971C903.699 692.04 902.098 694.932 900.21 697.602L905.201 711.794C900.592 716.566 895.158 720.534 889.114 723.482L877.159 714.349C868.59 717.012 859.41 717.012 850.841 714.349L838.886 723.482C832.842 720.534 827.408 716.566 822.799 711.794L827.79 697.602C825.902 694.932 824.301 692.04 823.029 688.971C820.853 683.717 819.729 678.15 819.657 672.572L807.277 664.024C807.945 659.274 809.213 654.587 811.08 650.08C811.784 648.38 812.566 646.723 813.422 645.113ZM854.808 694.193C860.693 696.631 867.307 696.631 873.192 694.193C879.078 691.755 883.755 687.078 886.192 681.193C888.63 675.307 888.63 668.694 886.192 662.808C883.755 656.922 879.078 652.246 873.192 649.808C867.307 647.37 860.693 647.37 854.808 649.808C848.922 652.246 844.246 656.922 841.808 662.808C839.37 668.694 839.37 675.307 841.808 681.193C844.246 687.078 848.922 691.755 854.808 694.193Z" fill="#FFA500"/>
<path d="M813.422 645.113L813.47 643.113C812.713 643.095 812.011 643.506 811.656 644.174L813.422 645.113ZM828.462 645.474L828.414 647.473C829.062 647.489 829.677 647.19 830.064 646.67L828.462 645.474ZM847.029 631.03L846.264 629.182L847.029 631.03ZM849.754 630.004L850.397 631.898C851.01 631.69 851.485 631.198 851.67 630.577L849.754 630.004ZM854.058 615.589L853.711 613.619C852.965 613.751 852.358 614.292 852.141 615.017L854.058 615.589ZM873.942 615.589L875.859 615.017C875.642 614.292 875.035 613.751 874.289 613.619L873.942 615.589ZM878.246 630.005L876.33 630.577C876.515 631.198 876.99 631.69 877.603 631.898L878.246 630.005ZM880.97 631.03L880.205 632.877V632.877L880.97 631.03ZM899.538 645.474L897.935 646.67C898.323 647.19 898.938 647.489 899.586 647.473L899.538 645.474ZM914.578 645.113L916.344 644.174C915.989 643.506 915.287 643.095 914.53 643.113L914.578 645.113ZM916.92 650.08L918.768 649.315V649.315L916.92 650.08ZM920.723 664.024L921.859 665.67C922.482 665.24 922.808 664.495 922.703 663.745L920.723 664.024ZM908.342 672.572L907.206 670.926C906.673 671.294 906.351 671.898 906.343 672.546L908.342 672.572ZM904.97 688.971L906.818 689.736L906.818 689.736L904.97 688.971ZM900.21 697.602L898.577 696.447C898.203 696.976 898.108 697.654 898.323 698.266L900.21 697.602ZM905.201 711.794L906.64 713.183C907.165 712.639 907.339 711.844 907.088 711.13L905.201 711.794ZM889.114 723.482L887.9 725.071C888.502 725.53 889.311 725.611 889.991 725.279L889.114 723.482ZM877.159 714.349L878.373 712.76C877.858 712.366 877.185 712.247 876.566 712.439L877.159 714.349ZM850.841 714.349L851.434 712.439C850.815 712.247 850.142 712.366 849.627 712.76L850.841 714.349ZM838.886 723.482L838.009 725.279C838.689 725.611 839.498 725.531 840.1 725.071L838.886 723.482ZM822.799 711.794L820.912 711.13C820.661 711.844 820.835 712.639 821.36 713.183L822.799 711.794ZM827.79 697.602L829.677 698.266C829.892 697.654 829.797 696.977 829.423 696.447L827.79 697.602ZM823.029 688.971L821.182 689.736H821.182L823.029 688.971ZM819.657 672.572L821.657 672.546C821.649 671.898 821.327 671.294 820.794 670.926L819.657 672.572ZM807.277 664.024L805.297 663.745C805.191 664.495 805.518 665.24 806.141 665.67L807.277 664.024ZM811.08 650.08L809.232 649.315L809.232 649.315L811.08 650.08ZM873.192 694.193L872.427 692.345V692.345L873.192 694.193ZM854.808 694.193L855.573 692.345V692.345L854.808 694.193ZM886.192 681.193L888.04 681.958L886.192 681.193ZM886.192 662.808L884.345 663.573L886.192 662.808ZM873.192 649.808L872.427 651.656L873.192 649.808ZM841.808 662.808L843.655 663.573L841.808 662.808ZM841.808 681.193L839.96 681.958L841.808 681.193ZM813.374 647.112L828.414 647.473L828.51 643.475L813.47 643.113L813.374 647.112ZM830.064 646.67C834.587 640.611 840.691 635.82 847.795 632.877L846.264 629.182C838.49 632.402 831.809 637.646 826.859 644.278L830.064 646.67ZM847.795 632.877C848.654 632.522 849.521 632.195 850.397 631.898L849.111 628.11C848.154 628.435 847.204 628.793 846.264 629.182L847.795 632.877ZM851.67 630.577L855.974 616.161L852.141 615.017L847.838 629.432L851.67 630.577ZM854.405 617.559C860.752 616.44 867.248 616.44 873.595 617.559L874.289 613.619C867.483 612.42 860.517 612.42 853.711 613.619L854.405 617.559ZM872.026 616.161L876.33 630.577L880.162 629.432L875.859 615.017L872.026 616.161ZM877.603 631.898C878.478 632.195 879.346 632.522 880.205 632.877L881.736 629.182C880.796 628.793 879.846 628.435 878.889 628.111L877.603 631.898ZM880.205 632.877C887.308 635.82 893.412 640.611 897.935 646.67L901.141 644.278C896.191 637.646 889.51 632.402 881.736 629.182L880.205 632.877ZM899.586 647.473L914.626 647.112L914.53 643.113L899.49 643.475L899.586 647.473ZM912.812 646.051C913.638 647.606 914.393 649.205 915.072 650.845L918.768 649.315C918.039 647.556 917.23 645.841 916.344 644.174L912.812 646.051ZM915.072 650.845C916.874 655.195 918.097 659.718 918.742 664.302L922.703 663.745C922.012 658.829 920.7 653.979 918.768 649.315L915.072 650.845ZM919.586 662.378L907.206 670.926L909.479 674.218L921.859 665.67L919.586 662.378ZM906.343 672.546C906.274 677.872 905.201 683.189 903.123 688.205L906.818 689.736C909.092 684.246 910.267 678.427 910.342 672.597L906.343 672.546ZM903.123 688.205C901.909 691.137 900.38 693.897 898.577 696.447L901.843 698.757C903.816 695.966 905.489 692.944 906.818 689.736L903.123 688.205ZM898.323 698.266L903.314 712.457L907.088 711.13L902.096 696.938L898.323 698.266ZM903.762 710.404C899.314 715.01 894.07 718.839 888.237 721.684L889.991 725.279C896.246 722.228 901.87 718.122 906.64 713.183L903.762 710.404ZM890.328 721.892L878.373 712.76L875.945 715.938L887.9 725.071L890.328 721.892ZM876.566 712.439C868.383 714.982 859.617 714.982 851.434 712.439L850.247 716.259C859.203 719.042 868.797 719.042 877.753 716.259L876.566 712.439ZM849.627 712.76L837.672 721.892L840.1 725.071L852.055 715.939L849.627 712.76ZM839.762 721.684C833.93 718.839 828.686 715.01 824.237 710.405L821.36 713.183C826.13 718.122 831.754 722.228 838.009 725.279L839.762 721.684ZM824.686 712.458L829.677 698.266L825.903 696.939L820.912 711.13L824.686 712.458ZM829.423 696.447C827.62 693.898 826.091 691.137 824.877 688.205L821.182 689.736C822.51 692.944 824.184 695.966 826.157 698.757L829.423 696.447ZM824.877 688.205C822.799 683.189 821.726 677.872 821.657 672.546L817.658 672.597C817.733 678.427 818.907 684.246 821.182 689.736L824.877 688.205ZM820.794 670.926L808.414 662.378L806.141 665.67L818.521 674.217L820.794 670.926ZM809.258 664.302C809.902 659.718 811.126 655.195 812.927 650.845L809.232 649.315C807.3 653.979 805.988 658.829 805.297 663.745L809.258 664.302ZM812.927 650.845C813.607 649.205 814.362 647.606 815.188 646.051L811.656 644.174C810.77 645.841 809.96 647.556 809.232 649.315L812.927 650.845ZM872.427 692.345C867.031 694.58 860.969 694.58 855.573 692.345L854.042 696.04C860.418 698.681 867.582 698.681 873.958 696.04L872.427 692.345ZM884.345 680.427C882.11 685.823 877.823 690.11 872.427 692.345L873.958 696.04C880.334 693.399 885.399 688.334 888.04 681.958L884.345 680.427ZM884.345 663.573C886.58 668.969 886.58 675.032 884.345 680.427L888.04 681.958C890.681 675.582 890.681 668.418 888.04 662.043L884.345 663.573ZM872.427 651.656C877.823 653.891 882.11 658.178 884.345 663.573L888.04 662.043C885.399 655.667 880.334 650.601 873.958 647.96L872.427 651.656ZM855.573 651.656C860.969 649.421 867.031 649.421 872.427 651.656L873.958 647.96C867.582 645.319 860.418 645.319 854.042 647.96L855.573 651.656ZM843.655 663.573C845.89 658.178 850.177 653.891 855.573 651.656L854.042 647.96C847.666 650.601 842.601 655.667 839.96 662.043L843.655 663.573ZM843.655 680.427C841.42 675.032 841.42 668.969 843.655 663.573L839.96 662.043C837.319 668.418 837.319 675.582 839.96 681.958L843.655 680.427ZM855.573 692.345C850.177 690.11 845.89 685.823 843.655 680.427L839.96 681.958C842.601 688.334 847.666 693.399 854.042 696.04L855.573 692.345Z" fill="#FFA500"/>
<path d="M859.757 682.243C862.474 683.368 865.526 683.368 868.243 682.243C870.959 681.117 873.118 678.959 874.243 676.243C875.368 673.526 875.368 670.474 874.243 667.757C873.118 665.041 870.959 662.883 868.243 661.757C865.526 660.632 862.474 660.632 859.757 661.757C857.041 662.883 854.883 665.041 853.757 667.757C852.632 670.474 852.632 673.526 853.757 676.243C854.883 678.959 857.041 681.117 859.757 682.243Z" fill="#FFD700" stroke="#FFD700" stroke-width="4" stroke-linecap="round" stroke-linejoin="round"/>
<g opacity="0.25">
<path d="M512 238.839L542.717 341.723L650.057 339.143L561.7 400.149L597.324 501.438L512 436.258L426.676 501.438L462.3 400.149L373.943 339.143L481.283 341.723L512 238.839Z" stroke="currentColor" stroke-width="2.41935" stroke-linecap="round" stroke-linejoin="round"/>
<path d="M553.058 483.122C526.769 494.011 497.231 494.011 470.942 483.122V483.122C444.653 472.233 423.767 451.347 412.878 425.058V425.058C401.988 398.769 401.988 369.231 412.878 342.942V342.942C423.767 316.653 444.653 295.767 470.942 284.878V284.878C497.231 273.988 526.769 273.988 553.058 284.878V284.878C579.347 295.767 600.233 316.653 611.122 342.942V342.942C622.012 369.231 622.012 398.769 611.122 425.058V425.058C600.233 451.347 579.347 472.233 553.058 483.122V483.122Z" stroke="currentColor" stroke-width="2.41935" stroke-linecap="round" stroke-linejoin="round"/>
<path d="M489.76 437.691C504 443.59 520 443.59 534.24 437.691V437.691C548.479 431.793 559.793 420.48 565.691 406.24V406.24C571.59 392 571.59 376 565.691 361.76V361.76C559.793 347.521 548.479 336.207 534.24 330.309V330.309C520 324.411 504 324.411 489.76 330.309V330.309C475.521 336.207 464.207 347.521 458.309 361.76V361.76C452.41 376 452.41 392 458.309 406.24V406.24C464.207 420.48 475.521 431.793 489.76 437.691V437.691Z" stroke="currentColor" stroke-width="2.41935" stroke-linecap="round" stroke-linejoin="round"/>
<path d="M565.033 512.033C531.077 526.098 492.923 526.098 458.967 512.033V512.033C425.011 497.968 398.032 470.989 383.967 437.033V437.033C369.902 403.077 369.902 364.923 383.967 330.967V330.967C398.032 297.011 425.011 270.032 458.967 255.967V255.967C492.923 241.902 531.077 241.902 565.033 255.967V255.967C598.989 270.032 625.968 297.011 640.033 330.967V330.967C654.098 364.923 654.098 403.077 640.033 437.033V437.033C625.968 470.989 598.989 497.968 565.033 512.033V512.033Z" stroke="currentColor" stroke-width="2.41935" stroke-linecap="round" stroke-linejoin="round"/>
</g>
</svg>
