<svg viewBox="0 0 1024 768" fill="none" xmlns="http://www.w3.org/2000/svg">
<path d="M415.229 57.2682C418.457 49.4411 429.543 49.4411 432.771 57.2682V57.2682C434.773 62.1228 440.337 64.4278 445.186 62.4106V62.4106C453.003 59.1584 460.842 66.9973 457.589 74.8143V74.8143C455.572 79.6626 457.877 85.2273 462.732 87.2293V87.2293C470.559 90.4571 470.559 101.543 462.732 104.771V104.771C457.877 106.773 455.572 112.337 457.589 117.186V117.186C460.842 125.003 453.003 132.842 445.186 129.589V129.589C440.337 127.572 434.773 129.877 432.771 134.732V134.732C429.543 142.559 418.457 142.559 415.229 134.732V134.732C413.227 129.877 407.663 127.572 402.814 129.589V129.589C394.997 132.842 387.158 125.003 390.411 117.186V117.186C392.428 112.337 390.123 106.773 385.268 104.771V104.771C377.441 101.543 377.441 90.4571 385.268 87.2293V87.2293C390.123 85.2273 392.428 79.6626 390.411 74.8143V74.8143C387.158 66.9973 394.997 59.1584 402.814 62.4106V62.4106C407.663 64.4278 413.227 62.1228 415.229 57.2682V57.2682Z" stroke="#7B61FF" stroke-width="2" stroke-linecap="round" stroke-linejoin="round"/>
<path d="M578.787 147.213C592.369 152.839 607.631 152.839 621.213 147.213V147.213C634.796 141.587 645.587 130.796 651.213 117.213V117.213C656.839 103.631 656.839 88.3694 651.213 74.7868V74.7868C645.587 61.2042 634.796 50.4129 621.213 44.7868V44.7868C607.631 39.1607 592.369 39.1607 578.787 44.7868V44.7868C565.204 50.4129 554.413 61.2042 548.787 74.7868V74.7868C543.161 88.3694 543.161 103.631 548.787 117.213V117.213C554.413 130.796 565.204 141.587 578.787 147.213V147.213Z" stroke="#7B61FF" stroke-width="2" stroke-linecap="round" stroke-linejoin="round"/>
<path fill-rule="evenodd" clip-rule="evenodd" d="M630.138 418.999H393.862C369.082 397.847 373.326 354.991 406.592 341.272C407.216 341.015 407.512 340.3 407.253 339.678C391.409 301.597 429.597 263.409 467.679 279.252C468.301 279.511 469.015 279.215 469.272 278.592C484.997 240.462 539.003 240.462 554.727 278.592C554.984 279.215 555.699 279.511 556.321 279.252C594.403 263.409 632.591 301.597 616.747 339.678C616.488 340.301 616.784 341.015 617.407 341.272C650.674 354.991 654.917 397.847 630.138 418.999Z" fill="#888888" fill-opacity="0.5"/>
<path d="M630.138 418.999V423.999C631.328 423.999 632.479 423.575 633.384 422.802L630.138 418.999ZM393.862 418.999L390.615 422.802C391.521 423.575 392.672 423.999 393.862 423.999V418.999ZM406.592 341.272L404.686 336.65L404.686 336.65L406.592 341.272ZM407.253 339.678L402.636 341.599H402.636L407.253 339.678ZM467.679 279.252L469.599 274.636V274.636L467.679 279.252ZM469.272 278.592L464.65 276.686L464.65 276.686L469.272 278.592ZM554.727 278.592L550.105 280.498L550.105 280.498L554.727 278.592ZM556.321 279.252L554.401 274.636V274.636L556.321 279.252ZM616.747 339.678L621.364 341.599L621.364 341.599L616.747 339.678ZM617.407 341.272L615.501 345.894L615.501 345.894L617.407 341.272ZM630.138 413.999H393.862V423.999H630.138V413.999ZM397.108 415.197C374.997 396.322 378.898 358.101 408.499 345.894L404.686 336.65C367.755 351.88 363.168 399.372 390.615 422.802L397.108 415.197ZM408.499 345.894C411.68 344.582 413.191 340.935 411.869 337.757L402.636 341.599C401.832 339.666 402.751 337.448 404.686 336.65L408.499 345.894ZM411.869 337.757C397.74 303.796 431.796 269.739 465.758 283.869L469.599 274.636C427.398 257.078 385.079 299.398 402.636 341.599L411.869 337.757ZM465.758 283.869C468.936 285.191 472.583 283.68 473.895 280.498L464.65 276.686C465.448 274.751 467.666 273.832 469.599 274.636L465.758 283.869ZM473.895 280.498C487.918 246.493 536.082 246.493 550.105 280.498L559.35 276.686C541.924 234.43 482.076 234.43 464.65 276.686L473.895 280.498ZM550.105 280.498C551.417 283.68 555.064 285.191 558.242 283.869L554.401 274.636C556.334 273.832 558.552 274.751 559.35 276.686L550.105 280.498ZM558.242 283.869C592.204 269.739 626.26 303.796 612.131 337.757L621.364 341.599C638.921 299.398 596.602 257.078 554.401 274.636L558.242 283.869ZM612.131 337.757C610.809 340.935 612.319 344.582 615.501 345.894L619.314 336.65C621.249 337.448 622.168 339.666 621.364 341.599L612.131 337.757ZM615.501 345.894C645.102 358.101 649.003 396.322 626.892 415.197L633.384 422.802C660.832 399.372 656.245 351.88 619.314 336.65L615.501 345.894Z" fill="currentColor"/>
<path fill-rule="evenodd" clip-rule="evenodd" d="M542 499L532 472.333V419L512 419L492 419V472.333L482 499L492 499H532L542 499Z" fill="#888888" fill-opacity="0.5"/>
<path d="M532 472.333H527C527 472.933 527.108 473.528 527.318 474.089L532 472.333ZM542 499L542 504C543.64 504 545.176 503.196 546.11 501.848C547.044 500.5 547.257 498.78 546.682 497.244L542 499ZM532 419H537C537 416.239 534.761 414 532 414L532 419ZM512 419L512 414H512L512 419ZM492 419L492 414C489.239 414 487 416.239 487 419H492ZM492 472.333L496.682 474.089C496.892 473.528 497 472.933 497 472.333H492ZM482 499L477.318 497.244C476.743 498.78 476.956 500.5 477.89 501.848C478.824 503.196 480.36 504 482 504L482 499ZM492 499L492 504H492V499ZM532 499V504H532L532 499ZM527.318 474.089L537.318 500.756L546.682 497.244L536.682 470.578L527.318 474.089ZM527 419V472.333H537V419H527ZM512 424L532 424L532 414L512 414L512 424ZM492 424L512 424L512 414L492 414L492 424ZM497 472.333V419H487V472.333H497ZM486.682 500.756L496.682 474.089L487.318 470.578L477.318 497.244L486.682 500.756ZM492 494L482 494L482 504L492 504L492 494ZM532 494H492V504H532V494ZM542 494L532 494L532 504L542 504L542 494Z" fill="currentColor"/>
<g opacity="0.25">
<path d="M490.781 290.294C498.59 271.358 525.41 271.358 533.22 290.294V290.294C538.063 302.039 551.526 307.616 563.256 302.736V302.736C582.168 294.867 601.133 313.832 593.265 332.744V332.744C588.385 344.474 593.961 357.937 605.706 362.781V362.781C624.643 370.59 624.643 397.41 605.706 405.22V405.22C593.961 410.063 588.385 423.526 593.265 435.256V435.256C601.133 454.168 582.168 473.133 563.256 465.265V465.265C551.526 460.385 538.063 465.961 533.22 477.706V477.706C525.41 496.643 498.59 496.643 490.781 477.706V477.706C485.937 465.961 472.474 460.385 460.744 465.265V465.265C441.832 473.133 422.867 454.168 430.736 435.256V435.256C435.616 423.526 430.039 410.063 418.294 405.22V405.22C399.358 397.41 399.358 370.59 418.294 362.781V362.781C430.039 357.937 435.616 344.474 430.736 332.744V332.744C422.867 313.832 441.832 294.867 460.744 302.736V302.736C472.474 307.616 485.937 302.039 490.781 290.294V290.294Z" stroke="currentColor" stroke-width="2.41935" stroke-linecap="round" stroke-linejoin="round"/>
<rect x="362" y="234" width="300" height="183.871" stroke="currentColor" stroke-width="2.41935" stroke-linecap="round" stroke-linejoin="round"/>
<path d="M512 417.871L541.032 495.29H482.968L512 417.871Z" stroke="currentColor" stroke-width="2.41935" stroke-linecap="round" stroke-linejoin="round"/>
</g>
<path d="M207.255 685.999V686.999C207.493 686.999 207.724 686.915 207.905 686.76L207.255 685.999ZM112.745 685.999L112.095 686.76C112.276 686.915 112.507 686.999 112.745 686.999V685.999ZM117.837 654.909L118.218 655.833L118.218 655.833L117.837 654.909ZM118.101 654.271L119.024 653.887L118.101 654.271ZM142.271 630.101L142.656 629.177V629.177L142.271 630.101ZM142.909 629.837L141.985 629.455L141.985 629.455L142.909 629.837ZM177.091 629.837L178.016 629.455V629.455L177.091 629.837ZM177.729 630.101L177.345 629.177V629.177L177.729 630.101ZM201.899 654.271L202.822 654.655L201.899 654.271ZM202.163 654.909L202.544 653.984L202.544 653.984L202.163 654.909ZM207.255 684.999H112.745V686.999H207.255V684.999ZM113.394 685.239C104.016 677.233 105.645 661.018 118.218 655.833L117.456 653.984C103.416 659.774 101.65 677.844 112.095 686.76L113.394 685.239ZM118.218 655.833C118.979 655.519 119.341 654.647 119.024 653.887L117.178 654.655C117.069 654.393 117.193 654.092 117.456 653.984L118.218 655.833ZM119.024 653.887C113.03 639.478 127.479 625.029 141.887 631.024L142.656 629.177C126.599 622.497 110.498 638.599 117.178 654.655L119.024 653.887ZM141.887 631.024C142.647 631.34 143.52 630.979 143.834 630.218L141.985 629.455C142.093 629.193 142.394 629.068 142.656 629.177L141.887 631.024ZM143.834 630.218C149.783 615.791 170.217 615.791 176.167 630.218L178.016 629.455C171.386 613.378 148.615 613.378 141.985 629.455L143.834 630.218ZM176.167 630.218C176.48 630.979 177.353 631.34 178.113 631.024L177.345 629.177C177.607 629.068 177.907 629.193 178.016 629.455L176.167 630.218ZM178.113 631.024C192.521 625.029 206.97 639.478 200.976 653.887L202.822 654.655C209.502 638.599 193.401 622.497 177.345 629.177L178.113 631.024ZM200.976 653.887C200.659 654.647 201.021 655.519 201.782 655.833L202.544 653.984C202.807 654.092 202.931 654.393 202.822 654.655L200.976 653.887ZM201.782 655.833C214.355 661.018 215.984 677.233 206.606 685.239L207.905 686.76C218.35 677.844 216.584 659.774 202.544 653.984L201.782 655.833Z" fill="currentColor"/>
<path d="M152 707.333L152.936 707.684C152.978 707.572 153 707.453 153 707.333H152ZM152 686V685C151.448 685 151 685.448 151 686H152ZM168 686H169C169 685.448 168.552 685 168 685V686ZM168 707.333H167C167 707.453 167.022 707.572 167.064 707.684L168 707.333ZM172 718V719C172.328 719 172.635 718.839 172.822 718.57C173.009 718.3 173.051 717.956 172.936 717.649L172 718ZM148 718L147.064 717.649C146.949 717.956 146.991 718.3 147.178 718.57C147.365 718.839 147.672 719 148 719V718ZM153 707.333V686H151V707.333H153ZM152 687H160V685H152V687ZM160 687H168V685H160V687ZM167 686V707.333H169V686H167ZM167.064 707.684L171.064 718.351L172.936 717.649L168.936 706.982L167.064 707.684ZM172 717H168V719H172V717ZM168 717H152V719H168V717ZM152 717H148V719H152V717ZM148.936 718.351L152.936 707.684L151.064 706.982L147.064 717.649L148.936 718.351Z" fill="currentColor"/>
<path d="M349.393 631.362L349.856 631.171L349.856 631.171L349.393 631.362ZM322.607 631.362L322.145 631.171V631.171L322.607 631.362ZM355.265 633.794L355.073 633.332L355.265 633.794ZM374.206 652.735L374.668 652.927L374.206 652.735ZM376.638 658.607L376.829 658.144L376.829 658.144L376.638 658.607ZM381.673 681.999V682.499C381.81 682.499 381.94 682.444 382.034 682.345L381.673 681.999ZM290.327 681.999L289.966 682.345C290.06 682.444 290.191 682.499 290.327 682.499V681.999ZM295.362 658.606L295.553 659.069C295.564 659.064 295.575 659.059 295.586 659.054L295.362 658.606ZM295.362 658.606L295.172 658.144C295.16 658.149 295.149 658.154 295.139 658.159L295.362 658.606ZM297.794 652.735L297.333 652.927L297.794 652.735ZM316.735 633.794L316.543 634.255L316.735 633.794ZM355.323 625.349L354.892 625.602C355.005 625.795 355.233 625.89 355.45 625.833L355.323 625.349ZM316.677 625.349L316.551 625.833C316.767 625.89 316.995 625.795 317.109 625.602L316.677 625.349ZM382.651 652.676L382.167 652.549C382.11 652.766 382.205 652.994 382.398 653.107L382.651 652.676ZM385.853 689.042L385.528 688.661L385.853 689.042ZM348 689.999V689.499C347.724 689.499 347.5 689.723 347.5 689.999H348ZM348 706.608H347.5C347.5 706.668 347.511 706.727 347.532 706.783L348 706.608ZM351.746 716.595L351.277 716.771L351.746 716.595ZM320.255 716.595L319.787 716.42L320.255 716.595ZM324 706.608L324.468 706.783C324.489 706.727 324.5 706.668 324.5 706.608H324ZM324 689.999H324.5C324.5 689.723 324.276 689.499 324 689.499V689.999ZM286.148 689.042L285.823 689.422H285.823L286.148 689.042ZM289.35 652.676L289.602 653.107C289.796 652.994 289.89 652.766 289.833 652.549L289.35 652.676ZM332 690V689.5C331.724 689.5 331.5 689.723 331.5 690H332ZM340 690H340.5C340.5 689.723 340.276 689.5 340 689.5V690ZM340.255 708.737L339.787 708.913L340.255 708.737ZM342.228 714V714.5C342.392 714.5 342.546 714.419 342.639 714.284C342.733 714.15 342.754 713.978 342.696 713.824L342.228 714ZM329.772 714L329.304 713.824C329.246 713.978 329.268 714.15 329.361 714.284C329.455 714.419 329.608 714.5 329.772 714.5V714ZM331.746 708.737L332.214 708.913L331.746 708.737ZM349.856 631.171C344.757 618.806 327.244 618.806 322.145 631.171L323.069 631.552C327.828 620.013 344.172 620.013 348.931 631.552L349.856 631.171ZM355.073 633.332C353.036 634.18 350.697 633.211 349.856 631.171L348.931 631.552C349.983 634.104 352.909 635.316 355.457 634.255L355.073 633.332ZM374.668 652.927C379.805 640.578 367.422 628.195 355.073 633.332L355.457 634.255C366.982 629.461 378.539 641.018 373.744 652.542L374.668 652.927ZM376.829 658.144C374.789 657.303 373.82 654.964 374.668 652.927L373.744 652.542C372.684 655.091 373.896 658.016 376.448 659.069L376.829 658.144ZM382.034 682.345C388.874 675.211 387.074 662.369 376.829 658.144L376.448 659.069C385.997 663.007 387.698 674.992 381.312 681.653L382.034 682.345ZM290.327 682.499H381.673V681.499H290.327V682.499ZM295.172 658.144C284.927 662.369 283.127 675.211 289.966 682.345L290.688 681.653C284.302 674.992 286.003 663.007 295.553 659.069L295.172 658.144ZM295.139 658.159L295.139 658.159L295.586 659.054L295.586 659.054L295.139 658.159ZM297.333 652.927C298.181 654.964 297.212 657.303 295.172 658.144L295.553 659.069C298.105 658.016 299.316 655.091 298.256 652.542L297.333 652.927ZM316.927 633.332C304.579 628.195 292.195 640.578 297.333 652.927L298.256 652.542C293.461 641.018 305.018 629.461 316.543 634.255L316.927 633.332ZM322.145 631.171C321.304 633.211 318.965 634.18 316.927 633.332L316.543 634.255C319.092 635.316 322.017 634.104 323.069 631.552L322.145 631.171ZM355.755 625.097C347.015 610.164 324.985 610.164 316.246 625.097L317.109 625.602C325.462 611.329 346.538 611.329 354.892 625.602L355.755 625.097ZM383.134 652.802C387.513 636.064 371.935 620.487 355.197 624.866L355.45 625.833C371.449 621.648 386.352 636.55 382.167 652.549L383.134 652.802ZM386.177 689.422C397.697 679.588 396.685 660.301 382.903 652.244L382.398 653.107C395.561 660.802 396.547 679.255 385.528 688.661L386.177 689.422ZM383.256 690.499C384.327 690.499 385.363 690.117 386.177 689.422L385.528 688.661C384.894 689.202 384.089 689.499 383.256 689.499V690.499ZM348 690.499H383.256V689.499H348V690.499ZM347.5 689.999V706.608H348.5V689.999H347.5ZM347.532 706.783L351.277 716.771L352.214 716.42L348.468 706.432L347.532 706.783ZM351.277 716.771C351.68 717.845 351.531 719.05 350.877 719.993L351.699 720.563C352.54 719.35 352.732 717.801 352.214 716.42L351.277 716.771ZM350.877 719.993C350.223 720.937 349.148 721.5 348 721.5V722.5C349.476 722.5 350.858 721.776 351.699 720.563L350.877 719.993ZM348 721.5H344V722.5H348V721.5ZM344 721.5H328V722.5H344V721.5ZM328 721.5H324V722.5H328V721.5ZM324 721.5C322.852 721.5 321.777 720.937 321.123 719.993L320.302 720.563C321.142 721.776 322.524 722.5 324 722.5V721.5ZM321.123 719.993C320.47 719.05 320.32 717.845 320.723 716.771L319.787 716.42C319.269 717.801 319.461 719.35 320.302 720.563L321.123 719.993ZM320.723 716.771L324.468 706.783L323.532 706.432L319.787 716.42L320.723 716.771ZM324.5 706.608V689.999H323.5V706.608H324.5ZM288.745 690.499H324V689.499H288.745V690.499ZM285.823 689.422C286.638 690.117 287.674 690.499 288.745 690.499V689.499C287.912 689.499 287.106 689.202 286.472 688.661L285.823 689.422ZM289.097 652.244C275.315 660.301 274.303 679.588 285.823 689.422L286.472 688.661C275.453 679.255 276.44 660.802 289.602 653.107L289.097 652.244ZM316.804 624.866C300.065 620.487 284.488 636.064 288.866 652.802L289.833 652.549C285.649 636.55 300.552 621.648 316.551 625.833L316.804 624.866ZM331.5 690V707.333H332.5V690H331.5ZM336 689.5H332V690.5H336V689.5ZM340 689.5H336V690.5H340V689.5ZM340.5 707.333V690H339.5V707.333H340.5ZM340.723 708.562C340.576 708.169 340.5 707.753 340.5 707.333H339.5C339.5 707.873 339.597 708.408 339.787 708.913L340.723 708.562ZM342.696 713.824L340.723 708.562L339.787 708.913L341.76 714.175L342.696 713.824ZM329.772 714.5H342.228V713.5H329.772V714.5ZM331.277 708.562L329.304 713.824L330.24 714.175L332.214 708.913L331.277 708.562ZM331.5 707.333C331.5 707.753 331.425 708.169 331.277 708.562L332.214 708.913C332.403 708.408 332.5 707.873 332.5 707.333H331.5Z" fill="currentColor"/>
<path fill-rule="evenodd" clip-rule="evenodd" d="M559.255 685.999H464.745C454.833 677.538 456.531 660.396 469.837 654.909C470.086 654.806 470.205 654.52 470.101 654.271C463.764 639.039 479.039 623.763 494.271 630.101C494.52 630.204 494.806 630.086 494.909 629.837C501.199 614.584 522.801 614.584 529.091 629.837C529.194 630.086 529.48 630.204 529.729 630.101C544.961 623.763 560.236 639.039 553.899 654.271C553.795 654.52 553.914 654.806 554.163 654.909C567.47 660.396 569.167 677.538 559.255 685.999Z" fill="currentColor"/>
<path d="M559.255 685.999V687.999C559.732 687.999 560.192 687.83 560.554 687.521L559.255 685.999ZM464.745 685.999L463.446 687.521C463.808 687.83 464.269 687.999 464.745 687.999V685.999ZM469.837 654.909L470.6 656.758L470.6 656.758L469.837 654.909ZM470.101 654.271L471.948 653.503H471.948L470.101 654.271ZM494.271 630.101L495.04 628.254L494.271 630.101ZM494.909 629.837L493.06 629.074L493.06 629.074L494.909 629.837ZM529.091 629.837L530.94 629.074V629.074L529.091 629.837ZM529.729 630.101L528.96 628.254L529.729 630.101ZM553.899 654.271L555.746 655.039L553.899 654.271ZM554.163 654.909L554.926 653.06L554.926 653.06L554.163 654.909ZM559.255 683.999H464.745V687.999H559.255V683.999ZM466.043 684.478C457.199 676.928 458.759 661.64 470.6 656.758L469.075 653.06C454.302 659.152 452.467 678.149 463.446 687.521L466.043 684.478ZM470.6 656.758C471.872 656.233 472.477 654.774 471.948 653.503L468.255 655.039C467.933 654.266 468.301 653.379 469.075 653.06L470.6 656.758ZM471.948 653.503C466.296 639.918 479.919 626.295 493.503 631.947L495.04 628.254C478.159 621.231 461.232 638.159 468.255 655.039L471.948 653.503ZM493.503 631.947C494.774 632.476 496.233 631.872 496.758 630.599L493.06 629.074C493.379 628.3 494.267 627.932 495.04 628.254L493.503 631.947ZM496.758 630.599C502.367 616.997 521.633 616.997 527.242 630.599L530.94 629.074C523.97 612.172 500.03 612.172 493.06 629.074L496.758 630.599ZM527.242 630.599C527.767 631.872 529.226 632.476 530.497 631.947L528.96 628.254C529.733 627.932 530.621 628.3 530.94 629.074L527.242 630.599ZM530.497 631.947C544.081 626.295 557.704 639.918 552.052 653.503L555.746 655.039C562.768 638.159 545.841 621.231 528.96 628.254L530.497 631.947ZM552.052 653.503C551.524 654.774 552.128 656.233 553.401 656.758L554.926 653.06C555.7 653.379 556.067 654.266 555.746 655.039L552.052 653.503ZM553.401 656.758C565.241 661.64 566.801 676.928 557.957 684.478L560.554 687.521C571.533 678.149 569.698 659.152 554.926 653.06L553.401 656.758Z" fill="currentColor"/>
<path fill-rule="evenodd" clip-rule="evenodd" d="M504 707.333V686H512H520V707.333L524 718H520H504H500L504 707.333Z" fill="currentColor"/>
<path d="M504 707.333L505.873 708.036C505.957 707.811 506 707.573 506 707.333H504ZM504 686V684C502.895 684 502 684.895 502 686H504ZM520 686H522C522 684.895 521.105 684 520 684V686ZM520 707.333H518C518 707.573 518.043 707.811 518.127 708.036L520 707.333ZM524 718V720C524.656 720 525.27 719.678 525.644 719.139C526.017 718.6 526.103 717.912 525.873 717.298L524 718ZM500 718L498.127 717.298C497.897 717.912 497.983 718.6 498.356 719.139C498.73 719.678 499.344 720 500 720V718ZM506 707.333V686H502V707.333H506ZM504 688H512V684H504V688ZM512 688H520V684H512V688ZM518 686V707.333H522V686H518ZM518.127 708.036L522.127 718.702L525.873 717.298L521.873 706.631L518.127 708.036ZM524 716H520V720H524V716ZM520 716H504V720H520V716ZM504 716H500V720H504V716ZM501.873 718.702L505.873 708.036L502.127 706.631L498.127 717.298L501.873 718.702Z" fill="currentColor"/>
<g opacity="0.25">
<path fill-rule="evenodd" clip-rule="evenodd" d="M735.255 685.999H640.745C630.833 677.538 632.531 660.396 645.837 654.909C646.086 654.806 646.205 654.52 646.101 654.271C639.764 639.039 655.039 623.763 670.271 630.101C670.52 630.204 670.806 630.086 670.909 629.837C677.199 614.584 698.801 614.584 705.091 629.837C705.194 630.086 705.48 630.204 705.729 630.101C720.961 623.763 736.236 639.039 729.899 654.271C729.795 654.52 729.914 654.806 730.163 654.909C743.47 660.396 745.167 677.538 735.255 685.999Z" fill="currentColor"/>
<path d="M735.255 685.999V687.999C735.732 687.999 736.192 687.83 736.554 687.521L735.255 685.999ZM640.745 685.999L639.446 687.521C639.808 687.83 640.269 687.999 640.745 687.999V685.999ZM645.837 654.909L646.6 656.758L646.6 656.758L645.837 654.909ZM646.101 654.271L647.948 653.503H647.948L646.101 654.271ZM670.271 630.101L671.04 628.254L670.271 630.101ZM670.909 629.837L669.06 629.074L669.06 629.074L670.909 629.837ZM705.091 629.837L706.94 629.074V629.074L705.091 629.837ZM705.729 630.101L704.96 628.254L705.729 630.101ZM729.899 654.271L731.746 655.039L729.899 654.271ZM730.163 654.909L730.926 653.06L730.926 653.06L730.163 654.909ZM735.255 683.999H640.745V687.999H735.255V683.999ZM642.043 684.478C633.199 676.928 634.759 661.64 646.6 656.758L645.075 653.06C630.302 659.152 628.467 678.149 639.446 687.521L642.043 684.478ZM646.6 656.758C647.872 656.233 648.477 654.774 647.948 653.503L644.255 655.039C643.933 654.266 644.301 653.379 645.075 653.06L646.6 656.758ZM647.948 653.503C642.296 639.918 655.919 626.295 669.503 631.947L671.04 628.254C654.159 621.231 637.232 638.159 644.255 655.039L647.948 653.503ZM669.503 631.947C670.774 632.476 672.233 631.872 672.758 630.599L669.06 629.074C669.379 628.3 670.267 627.932 671.04 628.254L669.503 631.947ZM672.758 630.599C678.367 616.997 697.633 616.997 703.242 630.599L706.94 629.074C699.97 612.172 676.03 612.172 669.06 629.074L672.758 630.599ZM703.242 630.599C703.767 631.872 705.226 632.476 706.497 631.947L704.96 628.254C705.733 627.932 706.621 628.3 706.94 629.074L703.242 630.599ZM706.497 631.947C720.081 626.295 733.704 639.918 728.052 653.503L731.746 655.039C738.768 638.159 721.841 621.231 704.96 628.254L706.497 631.947ZM728.052 653.503C727.524 654.774 728.128 656.233 729.401 656.758L730.926 653.06C731.7 653.379 732.067 654.266 731.746 655.039L728.052 653.503ZM729.401 656.758C741.241 661.64 742.801 676.928 733.957 684.478L736.554 687.521C747.533 678.149 745.698 659.152 730.926 653.06L729.401 656.758Z" fill="currentColor"/>
</g>
<path fill-rule="evenodd" clip-rule="evenodd" d="M680 707.333V686H688H696V707.333L700 718H696H680H676L680 707.333Z" fill="currentColor"/>
<path fill-rule="evenodd" clip-rule="evenodd" d="M911.255 685.999H816.745C806.833 677.538 808.531 660.396 821.837 654.909C822.086 654.806 822.205 654.52 822.101 654.271C815.764 639.039 831.039 623.763 846.271 630.101C846.52 630.204 846.806 630.086 846.909 629.837C853.199 614.584 874.801 614.584 881.091 629.837C881.194 630.086 881.48 630.204 881.729 630.101C896.961 623.763 912.236 639.039 905.899 654.271C905.795 654.52 905.914 654.806 906.163 654.909C919.47 660.396 921.167 677.538 911.255 685.999Z" fill="#FFA500"/>
<path d="M911.255 685.999V687.999C911.732 687.999 912.192 687.83 912.554 687.521L911.255 685.999ZM816.745 685.999L815.446 687.521C815.808 687.83 816.269 687.999 816.745 687.999V685.999ZM821.837 654.909L822.6 656.758L822.6 656.758L821.837 654.909ZM822.101 654.271L823.948 653.503H823.948L822.101 654.271ZM846.271 630.101L847.04 628.254L846.271 630.101ZM846.909 629.837L845.06 629.074L845.06 629.074L846.909 629.837ZM881.091 629.837L882.94 629.074V629.074L881.091 629.837ZM881.729 630.101L880.96 628.254L881.729 630.101ZM905.899 654.271L907.746 655.039L905.899 654.271ZM906.163 654.909L906.926 653.06L906.926 653.06L906.163 654.909ZM911.255 683.999H816.745V687.999H911.255V683.999ZM818.043 684.478C809.199 676.928 810.759 661.64 822.6 656.758L821.075 653.06C806.302 659.152 804.467 678.149 815.446 687.521L818.043 684.478ZM822.6 656.758C823.872 656.233 824.477 654.774 823.948 653.503L820.255 655.039C819.933 654.266 820.301 653.379 821.075 653.06L822.6 656.758ZM823.948 653.503C818.296 639.918 831.919 626.295 845.503 631.947L847.04 628.254C830.159 621.231 813.232 638.159 820.255 655.039L823.948 653.503ZM845.503 631.947C846.774 632.476 848.233 631.872 848.758 630.599L845.06 629.074C845.379 628.3 846.267 627.932 847.04 628.254L845.503 631.947ZM848.758 630.599C854.367 616.997 873.633 616.997 879.242 630.599L882.94 629.074C875.97 612.172 852.03 612.172 845.06 629.074L848.758 630.599ZM879.242 630.599C879.767 631.872 881.226 632.476 882.497 631.947L880.96 628.254C881.733 627.932 882.621 628.3 882.94 629.074L879.242 630.599ZM882.497 631.947C896.081 626.295 909.704 639.918 904.052 653.503L907.746 655.039C914.768 638.159 897.841 621.231 880.96 628.254L882.497 631.947ZM904.052 653.503C903.524 654.774 904.128 656.233 905.401 656.758L906.926 653.06C907.7 653.379 908.067 654.266 907.746 655.039L904.052 653.503ZM905.401 656.758C917.241 661.64 918.801 676.928 909.957 684.478L912.554 687.521C923.533 678.149 921.698 659.152 906.926 653.06L905.401 656.758Z" fill="#FFA500"/>
<path fill-rule="evenodd" clip-rule="evenodd" d="M856 707.333V686H864H872V707.333L876 718H872H856H852L856 707.333Z" fill="#8B4513"/>
</svg>
