<svg viewBox="0 0 1024 768" fill="none" xmlns="http://www.w3.org/2000/svg">
<path d="M424 36L429.511 82.6961L466.426 53.5736L437.304 90.4894L484 96L437.304 101.511L466.426 138.426L429.511 109.304L424 156L418.489 109.304L381.574 138.426L410.696 101.511L364 96L410.696 90.4894L381.574 53.5736L418.489 82.6961L424 36Z" stroke="#7B61FF" stroke-width="2" stroke-linecap="round" stroke-linejoin="round"/>
<path d="M578.787 147.213C592.369 152.839 607.631 152.839 621.213 147.213V147.213C634.796 141.587 645.587 130.796 651.213 117.213V117.213C656.839 103.631 656.839 88.3694 651.213 74.7868V74.7868C645.587 61.2042 634.796 50.4129 621.213 44.7868V44.7868C607.631 39.1607 592.369 39.1607 578.787 44.7868V44.7868C565.204 50.4129 554.413 61.2042 548.787 74.7868V74.7868C543.161 88.3694 543.161 103.631 548.787 117.213V117.213C554.413 130.796 565.204 141.587 578.787 147.213V147.213Z" stroke="#7B61FF" stroke-width="2" stroke-linecap="round" stroke-linejoin="round"/>
<path fill-rule="evenodd" clip-rule="evenodd" d="M517.728 282.535L512 234L506.272 282.535C510.088 282.319 513.912 282.319 517.728 282.535ZM579.697 308.203C582.547 310.749 585.251 313.453 587.797 316.303L618.066 277.934L579.697 308.203ZM613.465 378.272C613.681 382.088 613.681 385.912 613.465 389.728L662 384L613.465 378.272ZM587.797 451.697C585.251 454.547 582.547 457.251 579.697 459.797L618.066 490.066L587.797 451.697ZM517.728 485.465C513.912 485.681 510.088 485.681 506.272 485.465L512 534L517.728 485.465ZM444.303 459.797C441.453 457.251 438.749 454.547 436.203 451.697L405.934 490.066L444.303 459.797ZM410.535 389.728C410.319 385.912 410.319 382.088 410.535 378.272L362 384L410.535 389.728ZM436.203 316.303C438.749 313.453 441.453 310.749 444.303 308.203L405.934 277.934L436.203 316.303Z" fill="#888888" fill-opacity="0.5"/>
<path d="M512 234L516.966 233.414C516.668 230.897 514.535 229 512 229C509.465 229 507.332 230.897 507.034 233.414L512 234ZM517.728 282.535L517.446 287.527C518.921 287.61 520.357 287.037 521.37 285.961C522.382 284.885 522.866 283.416 522.693 281.949L517.728 282.535ZM506.272 282.535L501.307 281.949C501.134 283.416 501.618 284.885 502.631 285.961C503.643 287.037 505.079 287.61 506.554 287.527L506.272 282.535ZM579.697 308.203L576.6 304.278C575.44 305.193 574.744 306.574 574.699 308.05C574.654 309.527 575.264 310.948 576.366 311.932L579.697 308.203ZM587.797 316.303L584.068 319.634C585.052 320.736 586.473 321.346 587.95 321.301C589.426 321.256 590.807 320.56 591.722 319.4L587.797 316.303ZM618.066 277.934L621.992 281.031C623.561 279.041 623.394 276.191 621.602 274.398C619.809 272.606 616.959 272.439 614.969 274.008L618.066 277.934ZM613.465 378.272L614.051 373.307C612.584 373.134 611.115 373.618 610.039 374.631C608.963 375.643 608.39 377.079 608.473 378.554L613.465 378.272ZM613.465 389.728L608.473 389.446C608.39 390.921 608.963 392.357 610.039 393.37C611.115 394.382 612.584 394.866 614.051 394.693L613.465 389.728ZM662 384L662.586 388.966C665.103 388.668 667 386.535 667 384C667 381.465 665.103 379.332 662.586 379.034L662 384ZM587.797 451.697L591.722 448.6C590.807 447.44 589.426 446.744 587.95 446.699C586.473 446.654 585.052 447.264 584.068 448.366L587.797 451.697ZM579.697 459.797L576.366 456.068C575.264 457.052 574.654 458.473 574.699 459.95C574.744 461.426 575.44 462.807 576.6 463.722L579.697 459.797ZM618.066 490.066L614.969 493.992C616.959 495.561 619.809 495.394 621.602 493.602C623.394 491.809 623.561 488.959 621.992 486.969L618.066 490.066ZM517.728 485.465L522.693 486.051C522.866 484.584 522.382 483.115 521.37 482.039C520.357 480.963 518.921 480.39 517.446 480.473L517.728 485.465ZM506.272 485.465L506.554 480.473C505.079 480.39 503.643 480.963 502.631 482.039C501.618 483.115 501.134 484.584 501.307 486.051L506.272 485.465ZM512 534L507.034 534.586C507.332 537.103 509.465 539 512 539C514.535 539 516.668 537.103 516.966 534.586L512 534ZM444.303 459.797L447.4 463.722C448.56 462.807 449.256 461.426 449.301 459.95C449.346 458.473 448.736 457.052 447.634 456.068L444.303 459.797ZM436.203 451.697L439.932 448.366C438.948 447.264 437.527 446.654 436.05 446.699C434.574 446.744 433.193 447.44 432.278 448.6L436.203 451.697ZM405.934 490.066L402.008 486.969C400.439 488.959 400.606 491.809 402.398 493.602C404.191 495.394 407.041 495.561 409.031 493.992L405.934 490.066ZM410.535 389.728L409.949 394.693C411.416 394.866 412.885 394.382 413.961 393.37C415.037 392.357 415.61 390.921 415.527 389.446L410.535 389.728ZM410.535 378.272L415.527 378.554C415.61 377.079 415.037 375.643 413.961 374.631C412.885 373.618 411.416 373.134 409.949 373.307L410.535 378.272ZM362 384L361.414 379.034C358.897 379.332 357 381.465 357 384C357 386.535 358.897 388.668 361.414 388.966L362 384ZM436.203 316.303L432.278 319.4C433.193 320.56 434.574 321.256 436.05 321.301C437.527 321.346 438.948 320.736 439.932 319.634L436.203 316.303ZM444.303 308.203L447.634 311.932C448.736 310.948 449.346 309.527 449.301 308.05C449.256 306.574 448.56 305.193 447.4 304.278L444.303 308.203ZM405.934 277.934L409.031 274.008C407.041 272.439 404.191 272.606 402.398 274.398C400.606 276.191 400.439 279.041 402.008 281.031L405.934 277.934ZM507.034 234.586L512.762 283.121L522.693 281.949L516.966 233.414L507.034 234.586ZM511.238 283.121L516.966 234.586L507.034 233.414L501.307 281.949L511.238 283.121ZM506.554 287.527C510.182 287.322 513.818 287.322 517.446 287.527L518.009 277.543C514.006 277.317 509.994 277.317 505.991 277.543L506.554 287.527ZM576.366 311.932C579.076 314.353 581.647 316.924 584.068 319.634L591.526 312.973C588.855 309.982 586.018 307.145 583.028 304.474L576.366 311.932ZM614.141 274.837L583.871 313.206L591.722 319.4L621.992 281.031L614.141 274.837ZM582.794 312.129L621.163 281.86L614.969 274.008L576.6 304.278L582.794 312.129ZM608.473 378.554C608.678 382.182 608.678 385.818 608.473 389.446L618.457 390.009C618.683 386.006 618.683 381.994 618.457 377.991L608.473 378.554ZM661.414 379.034L612.879 384.762L614.051 394.693L662.586 388.966L661.414 379.034ZM612.879 383.238L661.414 388.966L662.586 379.034L614.051 373.307L612.879 383.238ZM584.068 448.366C581.647 451.076 579.076 453.647 576.366 456.068L583.028 463.526C586.018 460.855 588.855 458.018 591.526 455.028L584.068 448.366ZM621.163 486.141L582.794 455.871L576.6 463.722L614.969 493.992L621.163 486.141ZM583.871 454.794L614.141 493.163L621.992 486.969L591.722 448.6L583.871 454.794ZM517.446 480.473C513.818 480.678 510.182 480.678 506.554 480.473L505.991 490.457C509.994 490.683 514.006 490.683 518.009 490.457L517.446 480.473ZM516.966 533.414L511.238 484.879L501.307 486.051L507.034 534.586L516.966 533.414ZM512.762 484.879L507.034 533.414L516.966 534.586L522.693 486.051L512.762 484.879ZM447.634 456.068C444.924 453.647 442.353 451.076 439.932 448.366L432.474 455.027C435.145 458.018 437.982 460.855 440.973 463.526L447.634 456.068ZM409.86 493.163L440.129 454.794L432.278 448.6L402.008 486.969L409.86 493.163ZM441.206 455.871L402.837 486.141L409.031 493.992L447.4 463.722L441.206 455.871ZM415.527 389.446C415.322 385.818 415.322 382.182 415.527 378.554L405.543 377.991C405.317 381.994 405.317 386.006 405.543 390.009L415.527 389.446ZM362.586 388.966L411.121 383.238L409.949 373.307L361.414 379.034L362.586 388.966ZM411.121 384.762L362.586 379.034L361.414 388.966L409.949 394.693L411.121 384.762ZM439.932 319.634C442.353 316.924 444.924 314.353 447.634 311.932L440.973 304.474C437.982 307.145 435.145 309.982 432.474 312.973L439.932 319.634ZM402.837 281.86L441.206 312.129L447.4 304.278L409.031 274.008L402.837 281.86ZM440.129 313.206L409.86 274.837L402.008 281.031L432.278 319.4L440.129 313.206Z" fill="currentColor"/>
<path d="M489.019 439.481C503.734 445.576 520.267 445.576 534.981 439.481C549.695 433.386 561.386 421.695 567.481 406.981C573.576 392.266 573.576 375.733 567.481 361.019C561.386 346.305 549.695 334.614 534.981 328.519C520.267 322.424 503.734 322.424 489.019 328.519C474.305 334.614 462.614 346.305 456.519 361.019C450.424 375.733 450.424 392.266 456.519 406.981C462.614 421.695 474.305 433.386 489.019 439.481Z" fill="#888888" fill-opacity="0.5" stroke="currentColor" stroke-width="10" stroke-linecap="round" stroke-linejoin="round"/>
<g opacity="0.25">
<path d="M512 234L525.777 350.74L618.066 277.934L545.26 370.223L662 384L545.26 397.777L618.066 490.066L525.777 417.26L512 534L498.223 417.26L405.934 490.066L478.74 397.777L362 384L478.74 370.223L405.934 277.934L498.223 350.74L512 234Z" stroke="currentColor" stroke-width="2.5" stroke-linecap="round" stroke-linejoin="round"/>
<path d="M550.891 477.891C525.989 488.205 498.011 488.205 473.109 477.891V477.891C448.208 467.576 428.424 447.792 418.109 422.891V422.891C407.795 397.989 407.795 370.011 418.109 345.109V345.109C428.424 320.208 448.208 300.424 473.109 290.109V290.109C498.011 279.795 525.989 279.795 550.891 290.109V290.109C575.792 300.424 595.576 320.208 605.891 345.109V345.109C616.205 370.011 616.205 397.989 605.891 422.891V422.891C595.576 447.792 575.792 467.576 550.891 477.891V477.891Z" stroke="currentColor" stroke-width="2.5" stroke-linecap="round" stroke-linejoin="round"/>
<path d="M489.019 439.481C503.734 445.576 520.267 445.576 534.981 439.481V439.481C549.695 433.386 561.386 421.695 567.481 406.981V406.981C573.576 392.266 573.576 375.733 567.481 361.019V361.019C561.386 346.305 549.695 334.614 534.981 328.519V328.519C520.267 322.424 503.734 322.424 489.019 328.519V328.519C474.305 334.614 462.614 346.305 456.519 361.019V361.019C450.424 375.733 450.424 392.266 456.519 406.981V406.981C462.614 421.695 474.305 433.386 489.019 439.481V439.481Z" stroke="currentColor" stroke-width="2.5" stroke-linecap="round" stroke-linejoin="round"/>
</g>
<path d="M160 612L160.993 611.883C160.934 611.379 160.507 611 160 611C159.493 611 159.066 611.379 159.007 611.883L160 612ZM162.291 631.414L162.235 632.412C162.53 632.429 162.817 632.314 163.019 632.099C163.222 631.884 163.319 631.59 163.284 631.297L162.291 631.414ZM157.709 631.414L156.716 631.297C156.681 631.59 156.778 631.884 156.981 632.099C157.183 632.314 157.47 632.429 157.765 632.412L157.709 631.414ZM187.079 641.681L186.459 640.896C186.227 641.079 186.088 641.355 186.079 641.651C186.07 641.946 186.192 642.23 186.413 642.427L187.079 641.681ZM190.319 644.921L189.573 645.587C189.77 645.808 190.054 645.93 190.349 645.921C190.645 645.912 190.921 645.773 191.104 645.541L190.319 644.921ZM202.426 629.574L203.212 630.193C203.525 629.795 203.492 629.225 203.134 628.866C202.775 628.508 202.205 628.475 201.807 628.788L202.426 629.574ZM200.586 669.709L200.703 668.716C200.41 668.681 200.116 668.778 199.901 668.981C199.686 669.183 199.571 669.47 199.588 669.765L200.586 669.709ZM200.586 674.291L199.588 674.235C199.571 674.53 199.686 674.817 199.901 675.019C200.116 675.222 200.41 675.319 200.703 675.284L200.586 674.291ZM220 672L220.117 672.993C220.621 672.934 221 672.507 221 672C221 671.493 220.621 671.066 220.117 671.007L220 672ZM190.319 699.079L191.104 698.459C190.921 698.227 190.645 698.088 190.349 698.079C190.054 698.07 189.77 698.192 189.573 698.413L190.319 699.079ZM187.079 702.319L186.413 701.573C186.192 701.77 186.07 702.054 186.079 702.349C186.088 702.645 186.227 702.921 186.459 703.104L187.079 702.319ZM202.426 714.426L201.807 715.212C202.205 715.525 202.775 715.492 203.134 715.134C203.492 714.775 203.525 714.205 203.212 713.807L202.426 714.426ZM162.291 712.586L163.284 712.703C163.319 712.41 163.222 712.116 163.019 711.901C162.817 711.686 162.53 711.571 162.235 711.588L162.291 712.586ZM157.709 712.586L157.765 711.588C157.47 711.571 157.183 711.686 156.981 711.901C156.778 712.116 156.681 712.41 156.716 712.703L157.709 712.586ZM160 732L159.007 732.117C159.066 732.621 159.493 733 160 733C160.507 733 160.934 732.621 160.993 732.117L160 732ZM132.921 702.319L133.541 703.104C133.773 702.921 133.912 702.645 133.921 702.349C133.93 702.054 133.808 701.77 133.587 701.573L132.921 702.319ZM129.681 699.079L130.427 698.413C130.23 698.192 129.946 698.07 129.651 698.079C129.355 698.088 129.079 698.227 128.896 698.459L129.681 699.079ZM117.574 714.426L116.788 713.807C116.475 714.205 116.508 714.775 116.866 715.134C117.225 715.492 117.795 715.525 118.193 715.212L117.574 714.426ZM119.414 674.291L119.297 675.284C119.59 675.319 119.884 675.222 120.099 675.019C120.314 674.817 120.429 674.53 120.412 674.235L119.414 674.291ZM119.414 669.709L120.412 669.765C120.429 669.47 120.314 669.183 120.099 668.981C119.884 668.778 119.59 668.681 119.297 668.716L119.414 669.709ZM100 672L99.8828 671.007C99.3793 671.066 99 671.493 99 672C99 672.507 99.3793 672.934 99.8828 672.993L100 672ZM129.681 644.921L128.896 645.541C129.079 645.773 129.355 645.912 129.651 645.921C129.946 645.93 130.23 645.808 130.427 645.587L129.681 644.921ZM132.921 641.681L133.587 642.427C133.808 642.23 133.93 641.946 133.921 641.651C133.912 641.355 133.773 641.079 133.541 640.896L132.921 641.681ZM117.574 629.574L118.193 628.788C117.795 628.475 117.225 628.508 116.866 628.866C116.508 629.225 116.475 629.795 116.788 630.193L117.574 629.574ZM159.007 612.117L161.298 631.531L163.284 631.297L160.993 611.883L159.007 612.117ZM158.702 631.531L160.993 612.117L159.007 611.883L156.716 631.297L158.702 631.531ZM157.765 632.412C159.254 632.328 160.746 632.328 162.235 632.412L162.347 630.415C160.784 630.327 159.216 630.327 157.653 630.415L157.765 632.412ZM186.413 642.427C187.525 643.42 188.58 644.475 189.573 645.587L191.065 644.255C190.021 643.087 188.913 641.979 187.745 640.935L186.413 642.427ZM201.641 628.954L189.534 644.302L191.104 645.541L203.212 630.193L201.641 628.954ZM187.698 642.466L203.046 630.359L201.807 628.788L186.459 640.896L187.698 642.466ZM199.588 669.765C199.672 671.254 199.672 672.746 199.588 674.235L201.585 674.347C201.673 672.784 201.673 671.216 201.585 669.653L199.588 669.765ZM219.883 671.007L200.469 673.298L200.703 675.284L220.117 672.993L219.883 671.007ZM200.469 670.702L219.883 672.993L220.117 671.007L200.703 668.716L200.469 670.702ZM189.573 698.413C188.58 699.525 187.525 700.58 186.413 701.573L187.745 703.065C188.913 702.021 190.021 700.913 191.065 699.745L189.573 698.413ZM203.046 713.641L187.698 701.534L186.459 703.104L201.807 715.212L203.046 713.641ZM189.534 699.698L201.641 715.046L203.212 713.807L191.104 698.459L189.534 699.698ZM162.235 711.588C160.746 711.672 159.254 711.672 157.765 711.588L157.653 713.585C159.216 713.673 160.784 713.673 162.347 713.585L162.235 711.588ZM160.993 731.883L158.702 712.469L156.716 712.703L159.007 732.117L160.993 731.883ZM161.298 712.469L159.007 731.883L160.993 732.117L163.284 712.703L161.298 712.469ZM133.587 701.573C132.475 700.58 131.42 699.525 130.427 698.413L128.935 699.745C129.979 700.913 131.087 702.021 132.255 703.065L133.587 701.573ZM118.359 715.046L130.466 699.698L128.896 698.459L116.788 713.807L118.359 715.046ZM132.302 701.534L116.954 713.641L118.193 715.212L133.541 703.104L132.302 701.534ZM120.412 674.235C120.328 672.746 120.328 671.254 120.412 669.765L118.415 669.653C118.327 671.216 118.327 672.784 118.415 674.347L120.412 674.235ZM100.117 672.993L119.531 670.702L119.297 668.716L99.8828 671.007L100.117 672.993ZM119.531 673.298L100.117 671.007L99.8828 672.993L119.297 675.284L119.531 673.298ZM130.427 645.587C131.42 644.475 132.475 643.42 133.587 642.427L132.255 640.935C131.087 641.979 129.979 643.087 128.935 644.255L130.427 645.587ZM116.954 630.359L132.302 642.466L133.541 640.896L118.193 628.788L116.954 630.359ZM130.466 644.302L118.359 628.954L116.788 630.193L128.896 645.541L130.466 644.302Z" fill="currentColor"/>
<path d="M150.808 694.192C156.693 696.63 163.307 696.63 169.192 694.192V694.192C175.078 691.754 179.754 687.078 182.192 681.192V681.192C184.63 675.307 184.63 668.693 182.192 662.808V662.808C179.754 656.922 175.078 652.246 169.192 649.808V649.808C163.307 647.37 156.693 647.37 150.808 649.808V649.808C144.922 652.246 140.246 656.922 137.808 662.808V662.808C135.37 668.693 135.37 675.307 137.808 681.192V681.192C140.246 687.078 144.922 691.754 150.808 694.192V694.192Z" stroke="currentColor" stroke-width="2" stroke-linecap="round" stroke-linejoin="round"/>
<path d="M339.972 611.531L339.476 611.59V611.59L339.972 611.531ZM332.028 611.531L332.524 611.59V611.59L332.028 611.531ZM329.737 630.945L329.24 630.886V630.887L329.737 630.945ZM333.934 635.408L333.962 635.907L333.934 635.408ZM338.066 635.408L338.038 635.907L338.066 635.408ZM341.205 634.155L340.84 633.812V633.812L341.205 634.155ZM342.263 630.945L342.76 630.887V630.886L342.263 630.945ZM290.745 626.745L291.099 627.099L290.745 626.745ZM296.051 626.433L295.741 626.826V626.826L296.051 626.433ZM290.433 632.051L290.826 631.741H290.826L290.433 632.051ZM302.541 647.399L302.148 647.708H302.148L302.541 647.399ZM305.559 648.919L305.544 649.419H305.544L305.559 648.919ZM308.665 647.586L308.292 647.253L308.665 647.586ZM311.586 644.665L311.253 644.292L311.586 644.665ZM312.919 641.559L313.419 641.544V641.544L312.919 641.559ZM311.399 638.541L311.708 638.148V638.148L311.399 638.541ZM381.255 626.745L381.608 626.392L381.255 626.745ZM381.567 632.051L381.174 631.741L381.567 632.051ZM375.949 626.433L376.259 626.826V626.826L375.949 626.433ZM360.601 638.541L360.292 638.148V638.148L360.601 638.541ZM359.081 641.559L359.58 641.574V641.574L359.081 641.559ZM360.414 644.665L360.747 644.292V644.292L360.414 644.665ZM363.335 647.586L362.963 647.919L363.335 647.586ZM366.441 648.919L366.456 649.419L366.441 648.919ZM369.459 647.399L369.852 647.708L369.459 647.399ZM299.408 669.934L299.907 669.962L299.408 669.934ZM294.945 665.737L294.886 665.24H294.886L294.945 665.737ZM275.531 668.028L275.59 668.524H275.59L275.531 668.028ZM275.531 675.972L275.59 675.476H275.59L275.531 675.972ZM294.945 678.263L294.886 678.76H294.886L294.945 678.263ZM298.155 677.205L297.812 676.84H297.812L298.155 677.205ZM299.408 674.066L299.907 674.038L299.408 674.066ZM377.055 665.737L377.114 665.24L377.055 665.737ZM372.592 669.934L373.092 669.906V669.906L372.592 669.934ZM372.592 674.066L373.092 674.094L372.592 674.066ZM377.055 678.263L377.114 678.76L377.055 678.263ZM396.469 675.972L396.41 675.476H396.41L396.469 675.972ZM396.469 668.028L396.41 668.524L396.469 668.028ZM305.559 695.081L305.574 695.58H305.574L305.559 695.081ZM308.665 696.414L308.292 696.747L308.665 696.414ZM302.541 696.601L302.933 696.911V696.911L302.541 696.601ZM290.433 711.949L290.826 712.259H290.826L290.433 711.949ZM290.745 717.255L291.099 716.901L290.745 717.255ZM296.051 717.567L295.741 717.174L296.051 717.567ZM311.399 705.459L311.708 705.852L311.399 705.459ZM312.919 702.441L313.419 702.456L312.919 702.441ZM311.586 699.335L311.919 698.963L311.586 699.335ZM366.441 695.081L366.426 695.58H366.426L366.441 695.081ZM369.459 696.601L369.852 696.292L369.459 696.601ZM363.335 696.414L363.708 696.747V696.747L363.335 696.414ZM360.414 699.335L360.747 699.708H360.747L360.414 699.335ZM359.081 702.441L359.58 702.426V702.426L359.081 702.441ZM360.601 705.459L360.292 705.852L360.601 705.459ZM375.949 717.567L376.259 717.174L375.949 717.567ZM381.255 717.255L381.608 717.608L381.255 717.255ZM381.567 711.949L381.174 712.259L381.567 711.949ZM333.934 708.592L333.906 709.092H333.906L333.934 708.592ZM329.737 713.055L329.24 713.114L329.737 713.055ZM332.028 732.469L332.524 732.41L332.028 732.469ZM339.972 732.469L339.476 732.41V732.41L339.972 732.469ZM342.263 713.055L342.76 713.114L342.263 713.055ZM338.066 708.592L338.094 709.092L338.066 708.592ZM325.277 646.112L325.086 645.65L325.277 646.112ZM361.888 661.277L362.35 661.086L361.888 661.277ZM343.662 690.497L343.47 690.035L343.662 690.497ZM328.338 690.497L328.53 690.035L328.338 690.497ZM354.497 679.662L354.035 679.47L354.497 679.662ZM354.497 664.338L354.035 664.53L354.497 664.338ZM343.662 653.503L343.47 653.965L343.662 653.503ZM328.338 653.503L328.53 653.965L328.338 653.503ZM317.503 664.338L317.041 664.147L317.503 664.338ZM317.503 679.662L317.965 679.47L317.503 679.662ZM336 608.5C337.774 608.5 339.268 609.828 339.476 611.59L340.469 611.473C340.202 609.207 338.281 607.5 336 607.5V608.5ZM332.524 611.59C332.732 609.828 334.226 608.5 336 608.5V607.5C333.719 607.5 331.798 609.207 331.531 611.473L332.524 611.59ZM330.233 631.004L332.524 611.59L331.531 611.473L329.24 630.886L330.233 631.004ZM331.16 633.812C330.451 633.059 330.112 632.031 330.233 631.004L329.24 630.887C329.084 632.207 329.52 633.529 330.431 634.497L331.16 633.812ZM333.906 634.908C332.874 634.967 331.868 634.565 331.16 633.812L330.431 634.497C331.342 635.466 332.635 635.982 333.962 635.907L333.906 634.908ZM338.094 634.908C336.699 634.83 335.301 634.83 333.906 634.908L333.962 635.907C335.32 635.83 336.68 635.83 338.038 635.907L338.094 634.908ZM340.84 633.812C340.132 634.565 339.126 634.967 338.094 634.908L338.038 635.907C339.365 635.982 340.658 635.466 341.569 634.497L340.84 633.812ZM341.767 631.004C341.888 632.031 341.549 633.059 340.84 633.812L341.569 634.497C342.48 633.529 342.916 632.207 342.76 630.887L341.767 631.004ZM339.476 611.59L341.767 631.004L342.76 630.886L340.469 611.473L339.476 611.59ZM291.099 627.099C292.353 625.844 294.348 625.727 295.741 626.826L296.361 626.041C294.57 624.628 292.005 624.779 290.392 626.392L291.099 627.099ZM290.826 631.741C289.727 630.348 289.844 628.353 291.099 627.099L290.392 626.392C288.779 628.005 288.628 630.57 290.041 632.361L290.826 631.741ZM302.933 647.089L290.826 631.741L290.041 632.361L302.148 647.708L302.933 647.089ZM305.574 648.42C304.541 648.388 303.574 647.901 302.933 647.089L302.148 647.708C302.972 648.752 304.215 649.379 305.544 649.419L305.574 648.42ZM308.292 647.253C307.603 648.024 306.608 648.451 305.574 648.42L305.544 649.419C306.873 649.46 308.152 648.911 309.037 647.919L308.292 647.253ZM311.253 644.292C310.211 645.222 309.222 646.211 308.292 647.253L309.037 647.919C309.943 646.905 310.905 645.943 311.919 645.037L311.253 644.292ZM312.42 641.574C312.451 642.608 312.024 643.603 311.253 644.292L311.919 645.037C312.911 644.152 313.46 642.873 313.419 641.544L312.42 641.574ZM311.089 638.933C311.901 639.574 312.388 640.541 312.42 641.574L313.419 641.544C313.379 640.215 312.752 638.972 311.708 638.148L311.089 638.933ZM295.741 626.826L311.089 638.933L311.708 638.148L296.361 626.041L295.741 626.826ZM380.901 627.099C382.156 628.353 382.273 630.348 381.174 631.741L381.959 632.361C383.372 630.57 383.221 628.005 381.608 626.392L380.901 627.099ZM376.259 626.826C377.652 625.727 379.647 625.844 380.901 627.099L381.608 626.392C379.995 624.779 377.43 624.628 375.639 626.041L376.259 626.826ZM360.911 638.933L376.259 626.826L375.639 626.041L360.292 638.148L360.911 638.933ZM359.58 641.574C359.612 640.541 360.099 639.574 360.911 638.933L360.292 638.148C359.248 638.972 358.621 640.215 358.581 641.544L359.58 641.574ZM360.747 644.292C359.976 643.603 359.549 642.608 359.58 641.574L358.581 641.544C358.54 642.873 359.089 644.152 360.081 645.037L360.747 644.292ZM363.708 647.253C362.778 646.211 361.789 645.222 360.747 644.292L360.081 645.037C361.095 645.943 362.057 646.905 362.963 647.919L363.708 647.253ZM366.426 648.42C365.392 648.451 364.397 648.024 363.708 647.253L362.963 647.919C363.848 648.911 365.127 649.46 366.456 649.419L366.426 648.42ZM369.067 647.089C368.426 647.901 367.459 648.388 366.426 648.42L366.456 649.419C367.785 649.379 369.028 648.752 369.852 647.708L369.067 647.089ZM381.174 631.741L369.067 647.089L369.852 647.708L381.959 632.361L381.174 631.741ZM297.812 667.16C298.565 667.868 298.967 668.874 298.908 669.906L299.907 669.962C299.982 668.635 299.466 667.342 298.497 666.431L297.812 667.16ZM295.004 666.233C296.031 666.112 297.059 666.451 297.812 667.16L298.497 666.431C297.529 665.52 296.207 665.084 294.886 665.24L295.004 666.233ZM275.59 668.524L295.004 666.233L294.886 665.24L275.473 667.531L275.59 668.524ZM272.5 672C272.5 670.226 273.828 668.732 275.59 668.524L275.473 667.531C273.207 667.798 271.5 669.719 271.5 672H272.5ZM275.59 675.476C273.828 675.268 272.5 673.774 272.5 672H271.5C271.5 674.281 273.207 676.202 275.473 676.469L275.59 675.476ZM295.004 677.767L275.59 675.476L275.473 676.469L294.886 678.76L295.004 677.767ZM297.812 676.84C297.059 677.549 296.031 677.888 295.004 677.767L294.886 678.76C296.207 678.916 297.529 678.48 298.497 677.569L297.812 676.84ZM298.908 674.094C298.967 675.126 298.565 676.132 297.812 676.84L298.497 677.569C299.466 676.658 299.982 675.365 299.907 674.038L298.908 674.094ZM298.908 669.906C298.83 671.301 298.83 672.699 298.908 674.094L299.907 674.038C299.83 672.68 299.83 671.32 299.907 669.962L298.908 669.906ZM374.188 667.16C374.941 666.451 375.969 666.112 376.996 666.233L377.114 665.24C375.793 665.084 374.471 665.52 373.503 666.431L374.188 667.16ZM373.092 669.906C373.033 668.874 373.435 667.868 374.188 667.16L373.503 666.431C372.534 667.342 372.018 668.635 372.093 669.962L373.092 669.906ZM373.092 674.094C373.17 672.699 373.17 671.301 373.092 669.906L372.093 669.962C372.17 671.32 372.17 672.68 372.093 674.038L373.092 674.094ZM374.188 676.84C373.435 676.132 373.033 675.126 373.092 674.094L372.093 674.038C372.018 675.365 372.534 676.658 373.503 677.569L374.188 676.84ZM376.996 677.767C375.969 677.888 374.941 677.549 374.188 676.84L373.503 677.569C374.471 678.48 375.793 678.916 377.114 678.76L376.996 677.767ZM396.41 675.476L376.996 677.767L377.114 678.76L396.527 676.469L396.41 675.476ZM399.5 672C399.5 673.774 398.172 675.268 396.41 675.476L396.527 676.469C398.793 676.202 400.5 674.281 400.5 672H399.5ZM396.41 668.524C398.172 668.732 399.5 670.226 399.5 672H400.5C400.5 669.719 398.793 667.798 396.527 667.531L396.41 668.524ZM376.996 666.233L396.41 668.524L396.527 667.531L377.114 665.24L376.996 666.233ZM305.574 695.58C306.608 695.549 307.603 695.976 308.292 696.747L309.037 696.081C308.152 695.089 306.873 694.54 305.544 694.581L305.574 695.58ZM302.933 696.911C303.574 696.099 304.541 695.612 305.574 695.58L305.544 694.581C304.215 694.621 302.972 695.248 302.148 696.292L302.933 696.911ZM290.826 712.259L302.933 696.911L302.148 696.292L290.041 711.639L290.826 712.259ZM291.099 716.901C289.844 715.647 289.727 713.652 290.826 712.259L290.041 711.639C288.628 713.43 288.779 715.995 290.392 717.608L291.099 716.901ZM295.741 717.174C294.348 718.273 292.353 718.156 291.099 716.901L290.392 717.608C292.005 719.221 294.57 719.372 296.361 717.959L295.741 717.174ZM311.089 705.067L295.741 717.174L296.361 717.959L311.708 705.852L311.089 705.067ZM312.42 702.426C312.388 703.459 311.901 704.426 311.089 705.067L311.708 705.852C312.752 705.028 313.379 703.785 313.419 702.456L312.42 702.426ZM311.253 699.708C312.024 700.397 312.451 701.392 312.42 702.426L313.419 702.456C313.46 701.127 312.911 699.848 311.919 698.963L311.253 699.708ZM308.292 696.747C309.222 697.789 310.211 698.778 311.253 699.708L311.919 698.963C310.905 698.057 309.943 697.095 309.037 696.081L308.292 696.747ZM366.426 695.58C367.459 695.612 368.426 696.099 369.067 696.911L369.852 696.292C369.028 695.248 367.785 694.621 366.456 694.581L366.426 695.58ZM363.708 696.747C364.397 695.976 365.392 695.549 366.426 695.58L366.456 694.581C365.127 694.54 363.848 695.089 362.963 696.081L363.708 696.747ZM360.747 699.708C361.789 698.778 362.778 697.789 363.708 696.747L362.963 696.081C362.057 697.095 361.095 698.057 360.081 698.963L360.747 699.708ZM359.58 702.426C359.549 701.392 359.976 700.397 360.747 699.708L360.081 698.963C359.089 699.848 358.54 701.127 358.581 702.456L359.58 702.426ZM360.911 705.067C360.099 704.426 359.612 703.459 359.58 702.426L358.581 702.456C358.621 703.785 359.248 705.028 360.292 705.852L360.911 705.067ZM376.259 717.174L360.911 705.067L360.292 705.852L375.639 717.959L376.259 717.174ZM380.901 716.901C379.647 718.156 377.652 718.273 376.259 717.174L375.639 717.959C377.43 719.372 379.995 719.221 381.608 717.608L380.901 716.901ZM381.174 712.259C382.273 713.652 382.156 715.647 380.901 716.901L381.608 717.608C383.221 715.995 383.372 713.43 381.959 711.639L381.174 712.259ZM369.067 696.911L381.174 712.259L381.959 711.639L369.852 696.292L369.067 696.911ZM331.16 710.188C331.868 709.435 332.874 709.033 333.906 709.092L333.962 708.093C332.635 708.018 331.342 708.534 330.431 709.503L331.16 710.188ZM330.233 712.996C330.112 711.969 330.451 710.941 331.16 710.188L330.431 709.503C329.52 710.471 329.084 711.793 329.24 713.114L330.233 712.996ZM332.524 732.41L330.233 712.996L329.24 713.114L331.531 732.527L332.524 732.41ZM336 735.5C334.226 735.5 332.732 734.172 332.524 732.41L331.531 732.527C331.798 734.793 333.719 736.5 336 736.5V735.5ZM339.476 732.41C339.268 734.172 337.774 735.5 336 735.5V736.5C338.281 736.5 340.202 734.793 340.469 732.527L339.476 732.41ZM341.767 712.996L339.476 732.41L340.469 732.527L342.76 713.114L341.767 712.996ZM340.84 710.188C341.549 710.941 341.888 711.969 341.767 712.996L342.76 713.114C342.916 711.793 342.48 710.471 341.569 709.503L340.84 710.188ZM338.094 709.092C339.126 709.033 340.132 709.435 340.84 710.188L341.569 709.503C340.658 708.534 339.365 708.018 338.038 708.093L338.094 709.092ZM333.906 709.092C335.301 709.17 336.699 709.17 338.094 709.092L338.038 708.093C336.68 708.17 335.32 708.17 333.962 708.093L333.906 709.092ZM325.086 698.35C332.074 701.245 339.926 701.245 346.914 698.35L346.532 697.426C339.788 700.219 332.212 700.219 325.468 697.426L325.086 698.35ZM309.65 682.914C312.545 689.903 318.097 695.455 325.086 698.35L325.468 697.426C318.725 694.633 313.367 689.275 310.574 682.532L309.65 682.914ZM309.65 661.086C306.755 668.074 306.755 675.926 309.65 682.914L310.574 682.532C307.781 675.788 307.781 668.212 310.574 661.468L309.65 661.086ZM325.086 645.65C318.097 648.545 312.545 654.097 309.65 661.086L310.574 661.468C313.367 654.725 318.725 649.367 325.468 646.574L325.086 645.65ZM346.914 645.65C339.926 642.755 332.074 642.755 325.086 645.65L325.468 646.574C332.212 643.781 339.788 643.781 346.532 646.574L346.914 645.65ZM362.35 661.086C359.455 654.097 353.903 648.545 346.914 645.65L346.532 646.574C353.275 649.367 358.633 654.725 361.426 661.468L362.35 661.086ZM362.35 682.914C365.245 675.926 365.245 668.074 362.35 661.086L361.426 661.468C364.219 668.212 364.219 675.788 361.426 682.532L362.35 682.914ZM346.914 698.35C353.903 695.455 359.455 689.903 362.35 682.914L361.426 682.532C358.633 689.275 353.275 694.633 346.532 697.426L346.914 698.35ZM343.47 690.035C338.687 692.016 333.313 692.016 328.53 690.035L328.147 690.959C333.175 693.042 338.825 693.042 343.853 690.959L343.47 690.035ZM354.035 679.47C352.054 684.253 348.253 688.054 343.47 690.035L343.853 690.959C348.881 688.876 352.876 684.881 354.959 679.853L354.035 679.47ZM354.035 664.53C356.016 669.313 356.016 674.687 354.035 679.47L354.959 679.853C357.042 674.825 357.042 669.175 354.959 664.147L354.035 664.53ZM343.47 653.965C348.253 655.946 352.054 659.747 354.035 664.53L354.959 664.147C352.876 659.119 348.881 655.124 343.853 653.041L343.47 653.965ZM328.53 653.965C333.313 651.984 338.687 651.984 343.47 653.965L343.853 653.041C338.825 650.958 333.175 650.958 328.147 653.041L328.53 653.965ZM317.965 664.53C319.946 659.747 323.747 655.946 328.53 653.965L328.147 653.041C323.119 655.124 319.124 659.119 317.041 664.147L317.965 664.53ZM317.965 679.47C315.984 674.687 315.984 669.313 317.965 664.53L317.041 664.147C314.958 669.175 314.958 674.825 317.041 679.853L317.965 679.47ZM328.53 690.035C323.747 688.054 319.946 684.253 317.965 679.47L317.041 679.853C319.124 684.881 323.119 688.876 328.147 690.959L328.53 690.035Z" fill="currentColor"/>
<path fill-rule="evenodd" clip-rule="evenodd" d="M514.291 631.414L512 612L509.709 631.414C511.235 631.328 512.765 631.328 514.291 631.414ZM539.079 641.681C540.219 642.7 541.3 643.781 542.319 644.921L554.426 629.574L539.079 641.681ZM552.586 669.709C552.672 671.235 552.672 672.765 552.586 674.291L572 672L552.586 669.709ZM542.319 699.079C541.3 700.219 540.219 701.3 539.079 702.319L554.426 714.426L542.319 699.079ZM514.291 712.586C512.765 712.672 511.235 712.672 509.709 712.586L512 732L514.291 712.586ZM484.921 702.319C483.781 701.3 482.7 700.219 481.681 699.079L469.574 714.426L484.921 702.319ZM471.414 674.291C471.328 672.765 471.328 671.235 471.414 669.709L452 672L471.414 674.291ZM481.681 644.921C482.7 643.781 483.781 642.7 484.921 641.681L469.574 629.574L481.681 644.921Z" fill="currentColor"/>
<path d="M512 612L513.986 611.766C513.867 610.759 513.014 610 512 610C510.986 610 510.133 610.759 510.014 611.766L512 612ZM514.291 631.414L514.178 633.411C514.768 633.444 515.343 633.215 515.748 632.784C516.153 632.354 516.347 631.766 516.277 631.179L514.291 631.414ZM509.709 631.414L507.723 631.179C507.653 631.766 507.847 632.354 508.252 632.784C508.657 633.215 509.232 633.444 509.822 633.411L509.709 631.414ZM539.079 641.681L537.84 640.111C537.376 640.477 537.098 641.03 537.08 641.62C537.062 642.211 537.306 642.779 537.746 643.173L539.079 641.681ZM542.319 644.921L540.827 646.254C541.221 646.694 541.789 646.938 542.38 646.92C542.97 646.902 543.523 646.624 543.889 646.16L542.319 644.921ZM554.426 629.574L555.997 630.812C556.625 630.016 556.558 628.876 555.841 628.159C555.124 627.442 553.984 627.375 553.188 628.003L554.426 629.574ZM552.586 669.709L552.821 667.723C552.234 667.653 551.646 667.847 551.216 668.252C550.785 668.657 550.556 669.232 550.589 669.822L552.586 669.709ZM552.586 674.291L550.589 674.178C550.556 674.768 550.785 675.343 551.216 675.748C551.646 676.153 552.234 676.347 552.821 676.277L552.586 674.291ZM572 672L572.234 673.986C573.241 673.867 574 673.014 574 672C574 670.986 573.241 670.133 572.234 670.014L572 672ZM542.319 699.079L543.889 697.84C543.523 697.376 542.97 697.098 542.38 697.08C541.789 697.062 541.221 697.306 540.827 697.746L542.319 699.079ZM539.079 702.319L537.746 700.827C537.306 701.221 537.062 701.789 537.08 702.38C537.098 702.97 537.376 703.523 537.84 703.889L539.079 702.319ZM554.426 714.426L553.188 715.997C553.984 716.625 555.124 716.558 555.841 715.841C556.558 715.124 556.625 713.984 555.997 713.188L554.426 714.426ZM514.291 712.586L516.277 712.821C516.347 712.234 516.153 711.646 515.748 711.216C515.343 710.785 514.768 710.556 514.178 710.589L514.291 712.586ZM509.709 712.586L509.822 710.589C509.232 710.556 508.657 710.785 508.252 711.216C507.847 711.646 507.653 712.234 507.723 712.821L509.709 712.586ZM512 732L510.014 732.234C510.133 733.241 510.986 734 512 734C513.014 734 513.867 733.241 513.986 732.234L512 732ZM484.921 702.319L486.16 703.889C486.624 703.523 486.902 702.97 486.92 702.38C486.938 701.789 486.694 701.221 486.254 700.827L484.921 702.319ZM481.681 699.079L483.173 697.746C482.779 697.306 482.211 697.062 481.62 697.08C481.03 697.098 480.477 697.376 480.111 697.84L481.681 699.079ZM469.574 714.426L468.003 713.188C467.375 713.984 467.442 715.124 468.159 715.841C468.876 716.558 470.016 716.625 470.812 715.997L469.574 714.426ZM471.414 674.291L471.179 676.277C471.766 676.347 472.354 676.153 472.784 675.748C473.215 675.343 473.444 674.768 473.411 674.178L471.414 674.291ZM471.414 669.709L473.411 669.822C473.444 669.232 473.215 668.657 472.784 668.252C472.354 667.847 471.766 667.653 471.179 667.723L471.414 669.709ZM452 672L451.766 670.014C450.759 670.133 450 670.986 450 672C450 673.014 450.759 673.867 451.766 673.986L452 672ZM481.681 644.921L480.111 646.16C480.477 646.624 481.03 646.902 481.62 646.92C482.211 646.938 482.779 646.694 483.173 646.254L481.681 644.921ZM484.921 641.681L486.254 643.173C486.694 642.779 486.938 642.211 486.92 641.62C486.902 641.03 486.624 640.477 486.16 640.111L484.921 641.681ZM469.574 629.574L470.812 628.003C470.016 627.375 468.876 627.442 468.159 628.159C467.442 628.876 467.375 630.016 468.003 630.812L469.574 629.574ZM510.014 612.234L512.305 631.648L516.277 631.179L513.986 611.766L510.014 612.234ZM511.695 631.648L513.986 612.234L510.014 611.766L507.723 631.179L511.695 631.648ZM509.822 633.411C511.273 633.329 512.727 633.329 514.178 633.411L514.404 629.417C512.803 629.327 511.197 629.327 509.596 629.417L509.822 633.411ZM537.746 643.173C538.83 644.141 539.859 645.17 540.827 646.254L543.81 643.589C542.742 642.393 541.607 641.258 540.411 640.19L537.746 643.173ZM552.856 628.335L540.749 643.683L543.889 646.16L555.997 630.812L552.856 628.335ZM540.317 643.251L555.665 631.144L553.188 628.003L537.84 640.111L540.317 643.251ZM550.589 669.822C550.671 671.273 550.671 672.727 550.589 674.178L554.583 674.404C554.673 672.803 554.673 671.197 554.583 669.596L550.589 669.822ZM571.766 670.014L552.352 672.305L552.821 676.277L572.234 673.986L571.766 670.014ZM552.352 671.695L571.766 673.986L572.234 670.014L552.821 667.723L552.352 671.695ZM540.827 697.746C539.859 698.83 538.83 699.859 537.746 700.827L540.411 703.81C541.607 702.742 542.742 701.607 543.81 700.411L540.827 697.746ZM555.665 712.856L540.317 700.749L537.84 703.889L553.188 715.997L555.665 712.856ZM540.749 700.317L552.856 715.665L555.997 713.188L543.889 697.84L540.749 700.317ZM514.178 710.589C512.727 710.671 511.273 710.671 509.822 710.589L509.596 714.583C511.197 714.673 512.803 714.673 514.404 714.583L514.178 710.589ZM513.986 731.766L511.695 712.352L507.723 712.821L510.014 732.234L513.986 731.766ZM512.305 712.352L510.014 731.766L513.986 732.234L516.277 712.821L512.305 712.352ZM486.254 700.827C485.17 699.859 484.141 698.83 483.173 697.746L480.19 700.411C481.258 701.607 482.393 702.742 483.589 703.81L486.254 700.827ZM471.144 715.665L483.251 700.317L480.111 697.84L468.003 713.188L471.144 715.665ZM483.683 700.749L468.335 712.856L470.812 715.997L486.16 703.889L483.683 700.749ZM473.411 674.178C473.329 672.727 473.329 671.273 473.411 669.822L469.417 669.596C469.327 671.197 469.327 672.803 469.417 674.404L473.411 674.178ZM452.234 673.986L471.648 671.695L471.179 667.723L451.766 670.014L452.234 673.986ZM471.648 672.305L452.234 670.014L451.766 673.986L471.179 676.277L471.648 672.305ZM483.173 646.254C484.141 645.17 485.17 644.141 486.254 643.173L483.589 640.19C482.393 641.258 481.258 642.393 480.19 643.589L483.173 646.254ZM468.335 631.144L483.683 643.251L486.16 640.111L470.812 628.003L468.335 631.144ZM483.251 643.683L471.144 628.335L468.003 630.812L480.111 646.16L483.251 643.683Z" fill="currentColor"/>
<path d="M502.808 694.192C508.693 696.63 515.307 696.63 521.192 694.192C527.078 691.754 531.754 687.078 534.192 681.192C536.63 675.307 536.63 668.693 534.192 662.808C531.754 656.922 527.078 652.246 521.192 649.808C515.307 647.37 508.693 647.37 502.808 649.808C496.922 652.246 492.246 656.922 489.808 662.808C487.37 668.693 487.37 675.307 489.808 681.192C492.246 687.078 496.922 691.754 502.808 694.192Z" fill="currentColor" stroke="currentColor" stroke-width="4" stroke-linecap="round" stroke-linejoin="round"/>
<g opacity="0.25">
<path fill-rule="evenodd" clip-rule="evenodd" d="M690.291 631.414L688 612L685.709 631.414C687.235 631.328 688.765 631.328 690.291 631.414ZM715.079 641.681C716.219 642.7 717.3 643.781 718.319 644.921L730.426 629.574L715.079 641.681ZM728.586 669.709C728.672 671.235 728.672 672.765 728.586 674.291L748 672L728.586 669.709ZM718.319 699.079C717.3 700.219 716.219 701.3 715.079 702.319L730.426 714.426L718.319 699.079ZM690.291 712.586C688.765 712.672 687.235 712.672 685.709 712.586L688 732L690.291 712.586ZM660.921 702.319C659.781 701.3 658.7 700.219 657.681 699.079L645.574 714.426L660.921 702.319ZM647.414 674.291C647.328 672.765 647.328 671.235 647.414 669.709L628 672L647.414 674.291ZM657.681 644.921C658.7 643.781 659.781 642.7 660.921 641.681L645.574 629.574L657.681 644.921Z" fill="currentColor"/>
<path d="M688 612L689.986 611.766C689.867 610.759 689.014 610 688 610C686.986 610 686.133 610.759 686.014 611.766L688 612ZM690.291 631.414L690.178 633.411C690.768 633.444 691.343 633.215 691.748 632.784C692.153 632.354 692.347 631.766 692.277 631.179L690.291 631.414ZM685.709 631.414L683.723 631.179C683.653 631.766 683.847 632.354 684.252 632.784C684.657 633.215 685.232 633.444 685.822 633.411L685.709 631.414ZM715.079 641.681L713.84 640.111C713.376 640.477 713.098 641.03 713.08 641.62C713.062 642.211 713.306 642.779 713.746 643.173L715.079 641.681ZM718.319 644.921L716.827 646.254C717.221 646.694 717.789 646.938 718.38 646.92C718.97 646.902 719.523 646.624 719.889 646.16L718.319 644.921ZM730.426 629.574L731.997 630.812C732.625 630.016 732.558 628.876 731.841 628.159C731.124 627.442 729.984 627.375 729.188 628.003L730.426 629.574ZM728.586 669.709L728.821 667.723C728.234 667.653 727.646 667.847 727.216 668.252C726.785 668.657 726.556 669.232 726.589 669.822L728.586 669.709ZM728.586 674.291L726.589 674.178C726.556 674.768 726.785 675.343 727.216 675.748C727.646 676.153 728.234 676.347 728.821 676.277L728.586 674.291ZM748 672L748.234 673.986C749.241 673.867 750 673.014 750 672C750 670.986 749.241 670.133 748.234 670.014L748 672ZM718.319 699.079L719.889 697.84C719.523 697.376 718.97 697.098 718.38 697.08C717.789 697.062 717.221 697.306 716.827 697.746L718.319 699.079ZM715.079 702.319L713.746 700.827C713.306 701.221 713.062 701.789 713.08 702.38C713.098 702.97 713.376 703.523 713.84 703.889L715.079 702.319ZM730.426 714.426L729.188 715.997C729.984 716.625 731.124 716.558 731.841 715.841C732.558 715.124 732.625 713.984 731.997 713.188L730.426 714.426ZM690.291 712.586L692.277 712.821C692.347 712.234 692.153 711.646 691.748 711.216C691.343 710.785 690.768 710.556 690.178 710.589L690.291 712.586ZM685.709 712.586L685.822 710.589C685.232 710.556 684.657 710.785 684.252 711.216C683.847 711.646 683.653 712.234 683.723 712.821L685.709 712.586ZM688 732L686.014 732.234C686.133 733.241 686.986 734 688 734C689.014 734 689.867 733.241 689.986 732.234L688 732ZM660.921 702.319L662.16 703.889C662.624 703.523 662.902 702.97 662.92 702.38C662.938 701.789 662.694 701.221 662.254 700.827L660.921 702.319ZM657.681 699.079L659.173 697.746C658.779 697.306 658.211 697.062 657.62 697.08C657.03 697.098 656.477 697.376 656.111 697.84L657.681 699.079ZM645.574 714.426L644.003 713.188C643.375 713.984 643.442 715.124 644.159 715.841C644.876 716.558 646.016 716.625 646.812 715.997L645.574 714.426ZM647.414 674.291L647.179 676.277C647.766 676.347 648.354 676.153 648.784 675.748C649.215 675.343 649.444 674.768 649.411 674.178L647.414 674.291ZM647.414 669.709L649.411 669.822C649.444 669.232 649.215 668.657 648.784 668.252C648.354 667.847 647.766 667.653 647.179 667.723L647.414 669.709ZM628 672L627.766 670.014C626.759 670.133 626 670.986 626 672C626 673.014 626.759 673.867 627.766 673.986L628 672ZM657.681 644.921L656.111 646.16C656.477 646.624 657.03 646.902 657.62 646.92C658.211 646.938 658.779 646.694 659.173 646.254L657.681 644.921ZM660.921 641.681L662.254 643.173C662.694 642.779 662.938 642.211 662.92 641.62C662.902 641.03 662.624 640.477 662.16 640.111L660.921 641.681ZM645.574 629.574L646.812 628.003C646.016 627.375 644.876 627.442 644.159 628.159C643.442 628.876 643.375 630.016 644.003 630.812L645.574 629.574ZM686.014 612.234L688.305 631.648L692.277 631.179L689.986 611.766L686.014 612.234ZM687.695 631.648L689.986 612.234L686.014 611.766L683.723 631.179L687.695 631.648ZM685.822 633.411C687.273 633.329 688.727 633.329 690.178 633.411L690.404 629.417C688.803 629.327 687.197 629.327 685.596 629.417L685.822 633.411ZM713.746 643.173C714.83 644.141 715.859 645.17 716.827 646.254L719.81 643.589C718.742 642.393 717.607 641.258 716.411 640.19L713.746 643.173ZM728.856 628.335L716.749 643.683L719.889 646.16L731.997 630.812L728.856 628.335ZM716.317 643.251L731.665 631.144L729.188 628.003L713.84 640.111L716.317 643.251ZM726.589 669.822C726.671 671.273 726.671 672.727 726.589 674.178L730.583 674.404C730.673 672.803 730.673 671.197 730.583 669.596L726.589 669.822ZM747.766 670.014L728.352 672.305L728.821 676.277L748.234 673.986L747.766 670.014ZM728.352 671.695L747.766 673.986L748.234 670.014L728.821 667.723L728.352 671.695ZM716.827 697.746C715.859 698.83 714.83 699.859 713.746 700.827L716.411 703.81C717.607 702.742 718.742 701.607 719.81 700.411L716.827 697.746ZM731.665 712.856L716.317 700.749L713.84 703.889L729.188 715.997L731.665 712.856ZM716.749 700.317L728.856 715.665L731.997 713.188L719.889 697.84L716.749 700.317ZM690.178 710.589C688.727 710.671 687.273 710.671 685.822 710.589L685.596 714.583C687.197 714.673 688.803 714.673 690.404 714.583L690.178 710.589ZM689.986 731.766L687.695 712.352L683.723 712.821L686.014 732.234L689.986 731.766ZM688.305 712.352L686.014 731.766L689.986 732.234L692.277 712.821L688.305 712.352ZM662.254 700.827C661.17 699.859 660.141 698.83 659.173 697.746L656.19 700.411C657.258 701.607 658.393 702.742 659.589 703.81L662.254 700.827ZM647.144 715.665L659.251 700.317L656.111 697.84L644.003 713.188L647.144 715.665ZM659.683 700.749L644.335 712.856L646.812 715.997L662.16 703.889L659.683 700.749ZM649.411 674.178C649.329 672.727 649.329 671.273 649.411 669.822L645.417 669.596C645.327 671.197 645.327 672.803 645.417 674.404L649.411 674.178ZM628.234 673.986L647.648 671.695L647.179 667.723L627.766 670.014L628.234 673.986ZM647.648 672.305L628.234 670.014L627.766 673.986L647.179 676.277L647.648 672.305ZM659.173 646.254C660.141 645.17 661.17 644.141 662.254 643.173L659.589 640.19C658.393 641.258 657.258 642.393 656.19 643.589L659.173 646.254ZM644.335 631.144L659.683 643.251L662.16 640.111L646.812 628.003L644.335 631.144ZM659.251 643.683L647.144 628.335L644.003 630.812L656.111 646.16L659.251 643.683Z" fill="currentColor"/>
</g>
<path d="M678.808 694.192C684.693 696.63 691.307 696.63 697.192 694.192C703.078 691.754 707.754 687.078 710.192 681.192C712.63 675.307 712.63 668.693 710.192 662.808C707.754 656.922 703.078 652.246 697.192 649.808C691.307 647.37 684.693 647.37 678.808 649.808C672.922 652.246 668.246 656.922 665.808 662.808C663.37 668.693 663.37 675.307 665.808 681.192C668.246 687.078 672.922 691.754 678.808 694.192Z" fill="currentColor" stroke="currentColor" stroke-width="4" stroke-linecap="round" stroke-linejoin="round"/>
<path fill-rule="evenodd" clip-rule="evenodd" d="M866.291 631.414L864 612L861.709 631.414C863.235 631.328 864.765 631.328 866.291 631.414ZM891.079 641.681C892.219 642.7 893.3 643.781 894.319 644.921L906.426 629.574L891.079 641.681ZM904.586 669.709C904.672 671.235 904.672 672.765 904.586 674.291L924 672L904.586 669.709ZM894.319 699.079C893.3 700.219 892.219 701.3 891.079 702.319L906.426 714.426L894.319 699.079ZM866.291 712.586C864.765 712.672 863.235 712.672 861.709 712.586L864 732L866.291 712.586ZM836.921 702.319C835.781 701.3 834.7 700.219 833.681 699.079L821.574 714.426L836.921 702.319ZM823.414 674.291C823.328 672.765 823.328 671.235 823.414 669.709L804 672L823.414 674.291ZM833.681 644.921C834.7 643.781 835.781 642.7 836.921 641.681L821.574 629.574L833.681 644.921Z" fill="#FFA500"/>
<path d="M864 612L865.986 611.766C865.867 610.759 865.014 610 864 610C862.986 610 862.133 610.759 862.014 611.766L864 612ZM866.291 631.414L866.178 633.411C866.768 633.444 867.343 633.215 867.748 632.784C868.153 632.354 868.347 631.766 868.277 631.179L866.291 631.414ZM861.709 631.414L859.723 631.179C859.653 631.766 859.847 632.354 860.252 632.784C860.657 633.215 861.232 633.444 861.822 633.411L861.709 631.414ZM891.079 641.681L889.84 640.111C889.376 640.477 889.098 641.03 889.08 641.62C889.062 642.211 889.306 642.779 889.746 643.173L891.079 641.681ZM894.319 644.921L892.827 646.254C893.221 646.694 893.789 646.938 894.38 646.92C894.97 646.902 895.523 646.624 895.889 646.16L894.319 644.921ZM906.426 629.574L907.997 630.812C908.625 630.016 908.558 628.876 907.841 628.159C907.124 627.442 905.984 627.375 905.188 628.003L906.426 629.574ZM904.586 669.709L904.821 667.723C904.234 667.653 903.646 667.847 903.216 668.252C902.785 668.657 902.556 669.232 902.589 669.822L904.586 669.709ZM904.586 674.291L902.589 674.178C902.556 674.768 902.785 675.343 903.216 675.748C903.646 676.153 904.234 676.347 904.821 676.277L904.586 674.291ZM924 672L924.234 673.986C925.241 673.867 926 673.014 926 672C926 670.986 925.241 670.133 924.234 670.014L924 672ZM894.319 699.079L895.889 697.84C895.523 697.376 894.97 697.098 894.38 697.08C893.789 697.062 893.221 697.306 892.827 697.746L894.319 699.079ZM891.079 702.319L889.746 700.827C889.306 701.221 889.062 701.789 889.08 702.38C889.098 702.97 889.376 703.523 889.84 703.889L891.079 702.319ZM906.426 714.426L905.188 715.997C905.984 716.625 907.124 716.558 907.841 715.841C908.558 715.124 908.625 713.984 907.997 713.188L906.426 714.426ZM866.291 712.586L868.277 712.821C868.347 712.234 868.153 711.646 867.748 711.216C867.343 710.785 866.768 710.556 866.178 710.589L866.291 712.586ZM861.709 712.586L861.822 710.589C861.232 710.556 860.657 710.785 860.252 711.216C859.847 711.646 859.653 712.234 859.723 712.821L861.709 712.586ZM864 732L862.014 732.234C862.133 733.241 862.986 734 864 734C865.014 734 865.867 733.241 865.986 732.234L864 732ZM836.921 702.319L838.16 703.889C838.624 703.523 838.902 702.97 838.92 702.38C838.938 701.789 838.694 701.221 838.254 700.827L836.921 702.319ZM833.681 699.079L835.173 697.746C834.779 697.306 834.211 697.062 833.62 697.08C833.03 697.098 832.477 697.376 832.111 697.84L833.681 699.079ZM821.574 714.426L820.003 713.188C819.375 713.984 819.442 715.124 820.159 715.841C820.876 716.558 822.016 716.625 822.812 715.997L821.574 714.426ZM823.414 674.291L823.179 676.277C823.766 676.347 824.354 676.153 824.784 675.748C825.215 675.343 825.444 674.768 825.411 674.178L823.414 674.291ZM823.414 669.709L825.411 669.822C825.444 669.232 825.215 668.657 824.784 668.252C824.354 667.847 823.766 667.653 823.179 667.723L823.414 669.709ZM804 672L803.766 670.014C802.759 670.133 802 670.986 802 672C802 673.014 802.759 673.867 803.766 673.986L804 672ZM833.681 644.921L832.111 646.16C832.477 646.624 833.03 646.902 833.62 646.92C834.211 646.938 834.779 646.694 835.173 646.254L833.681 644.921ZM836.921 641.681L838.254 643.173C838.694 642.779 838.938 642.211 838.92 641.62C838.902 641.03 838.624 640.477 838.16 640.111L836.921 641.681ZM821.574 629.574L822.812 628.003C822.016 627.375 820.876 627.442 820.159 628.159C819.442 628.876 819.375 630.016 820.003 630.812L821.574 629.574ZM862.014 612.234L864.305 631.648L868.277 631.179L865.986 611.766L862.014 612.234ZM863.695 631.648L865.986 612.234L862.014 611.766L859.723 631.179L863.695 631.648ZM861.822 633.411C863.273 633.329 864.727 633.329 866.178 633.411L866.404 629.417C864.803 629.327 863.197 629.327 861.596 629.417L861.822 633.411ZM889.746 643.173C890.83 644.141 891.859 645.17 892.827 646.254L895.81 643.589C894.742 642.393 893.607 641.258 892.411 640.19L889.746 643.173ZM904.856 628.335L892.749 643.683L895.889 646.16L907.997 630.812L904.856 628.335ZM892.317 643.251L907.665 631.144L905.188 628.003L889.84 640.111L892.317 643.251ZM902.589 669.822C902.671 671.273 902.671 672.727 902.589 674.178L906.583 674.404C906.673 672.803 906.673 671.197 906.583 669.596L902.589 669.822ZM923.766 670.014L904.352 672.305L904.821 676.277L924.234 673.986L923.766 670.014ZM904.352 671.695L923.766 673.986L924.234 670.014L904.821 667.723L904.352 671.695ZM892.827 697.746C891.859 698.83 890.83 699.859 889.746 700.827L892.411 703.81C893.607 702.742 894.742 701.607 895.81 700.411L892.827 697.746ZM907.665 712.856L892.317 700.749L889.84 703.889L905.188 715.997L907.665 712.856ZM892.749 700.317L904.856 715.665L907.997 713.188L895.889 697.84L892.749 700.317ZM866.178 710.589C864.727 710.671 863.273 710.671 861.822 710.589L861.596 714.583C863.197 714.673 864.803 714.673 866.404 714.583L866.178 710.589ZM865.986 731.766L863.695 712.352L859.723 712.821L862.014 732.234L865.986 731.766ZM864.305 712.352L862.014 731.766L865.986 732.234L868.277 712.821L864.305 712.352ZM838.254 700.827C837.17 699.859 836.141 698.83 835.173 697.746L832.19 700.411C833.258 701.607 834.393 702.742 835.589 703.81L838.254 700.827ZM823.144 715.665L835.251 700.317L832.111 697.84L820.003 713.188L823.144 715.665ZM835.683 700.749L820.335 712.856L822.812 715.997L838.16 703.889L835.683 700.749ZM825.411 674.178C825.329 672.727 825.329 671.273 825.411 669.822L821.417 669.596C821.327 671.197 821.327 672.803 821.417 674.404L825.411 674.178ZM804.234 673.986L823.648 671.695L823.179 667.723L803.766 670.014L804.234 673.986ZM823.648 672.305L804.234 670.014L803.766 673.986L823.179 676.277L823.648 672.305ZM835.173 646.254C836.141 645.17 837.17 644.141 838.254 643.173L835.589 640.19C834.393 641.258 833.258 642.393 832.19 643.589L835.173 646.254ZM820.335 631.144L835.683 643.251L838.16 640.111L822.812 628.003L820.335 631.144ZM835.251 643.683L823.144 628.335L820.003 630.812L832.111 646.16L835.251 643.683Z" fill="#FFA500"/>
<path d="M854.808 694.192C860.693 696.63 867.307 696.63 873.192 694.192C879.078 691.754 883.754 687.078 886.192 681.192C888.63 675.307 888.63 668.693 886.192 662.808C883.754 656.922 879.078 652.246 873.192 649.808C867.307 647.37 860.693 647.37 854.808 649.808C848.922 652.246 844.246 656.922 841.808 662.808C839.37 668.693 839.37 675.307 841.808 681.192C844.246 687.078 848.922 691.754 854.808 694.192Z" fill="#FFD700" stroke="#FFD700" stroke-width="4" stroke-linecap="round" stroke-linejoin="round"/>
</svg>
