<svg viewBox="0 0 1024 768" fill="none" xmlns="http://www.w3.org/2000/svg">
<path d="M424 36L436.858 64.9576L466.426 53.5736L455.042 83.1418L484 96L455.042 108.858L466.426 138.426L436.858 127.042L424 156L411.142 127.042L381.574 138.426L392.958 108.858L364 96L392.958 83.1418L381.574 53.5736L411.142 64.9576L424 36Z" stroke="#7B61FF" stroke-width="2" stroke-linecap="round" stroke-linejoin="round"/>
<path d="M622.961 151.434L655.433 118.962L655.433 73.0397L622.961 40.568L577.039 40.568L544.567 73.0398L544.567 118.962L577.039 151.434L622.961 151.434Z" stroke="#7B61FF" stroke-width="2" stroke-linecap="round" stroke-linejoin="round"/>
<path d="M512 234L544.145 306.394L618.066 277.934L589.606 351.855L662 384L589.606 416.145L618.066 490.066L544.145 461.606L512 534L479.855 461.606L405.934 490.066L434.394 416.145L362 384L434.394 351.855L405.934 277.934L479.855 306.394L512 234Z" fill="#888888" fill-opacity="0.5" stroke="currentColor" stroke-width="10" stroke-linecap="round" stroke-linejoin="round"/>
<path d="M533.048 434.814L562.813 405.048L562.813 362.953L533.048 333.187L490.952 333.187L461.187 362.953L461.187 405.048L490.952 434.814L533.048 434.814Z" fill="#888888" fill-opacity="0.5" stroke="currentColor" stroke-width="10" stroke-linecap="round" stroke-linejoin="round"/>
<path d="M160 612L172.858 640.958L202.426 629.574L191.042 659.142L220 672L191.042 684.858L202.426 714.426L172.858 703.042L160 732L147.142 703.042L117.574 714.426L128.958 684.858L100 672L128.958 659.142L117.574 629.574L147.142 640.958L160 612Z" stroke="currentColor" stroke-width="2" stroke-linecap="round" stroke-linejoin="round"/>
<path d="M168.419 692.325L180.325 680.419L180.325 663.581L168.419 651.674L151.581 651.674L139.675 663.581L139.675 680.419L151.581 692.325L168.419 692.325Z" stroke="currentColor" stroke-width="2" stroke-linecap="round" stroke-linejoin="round"/>
<path d="M339.656 610.377L340.113 610.174V610.174L339.656 610.377ZM332.344 610.377L331.887 610.174V610.174L332.344 610.377ZM321.03 635.858L320.85 636.325C321.098 636.42 321.378 636.305 321.487 636.061L321.03 635.858ZM295.011 625.841L295.19 625.374L295.011 625.841ZM289.841 631.011L289.374 631.19L289.841 631.011ZM299.858 657.03L300.061 657.487C300.305 657.378 300.42 657.098 300.325 656.85L299.858 657.03ZM274.377 668.344L274.174 667.887H274.174L274.377 668.344ZM274.377 675.656L274.174 676.113H274.174L274.377 675.656ZM299.858 686.97L300.325 687.15C300.42 686.902 300.305 686.622 300.061 686.513L299.858 686.97ZM289.841 712.989L290.307 713.169H290.307L289.841 712.989ZM290.745 717.255L290.392 717.608H290.392L290.745 717.255ZM295.011 718.159L294.831 717.693H294.831L295.011 718.159ZM321.03 708.142L321.487 707.939C321.378 707.695 321.098 707.579 320.85 707.675L321.03 708.142ZM332.344 733.623L332.801 733.42L332.344 733.623ZM339.656 733.623L340.113 733.826L339.656 733.623ZM350.97 708.142L351.15 707.675C350.902 707.579 350.622 707.695 350.513 707.939L350.97 708.142ZM376.989 718.159L377.169 717.693L376.989 718.159ZM381.255 717.255L381.608 717.608L381.255 717.255ZM382.159 712.989L381.693 713.169L382.159 712.989ZM372.142 686.97L371.939 686.513C371.695 686.622 371.579 686.902 371.675 687.15L372.142 686.97ZM397.623 675.656L397.826 676.113L397.623 675.656ZM397.623 668.344L397.42 668.801L397.623 668.344ZM372.142 657.03L371.675 656.85C371.579 657.098 371.695 657.378 371.939 657.487L372.142 657.03ZM382.159 631.011L381.693 630.831V630.831L382.159 631.011ZM381.255 626.745L381.608 626.392V626.392L381.255 626.745ZM376.989 625.841L377.169 626.307V626.307L376.989 625.841ZM350.97 635.858L350.513 636.061C350.622 636.305 350.902 636.42 351.15 636.325L350.97 635.858ZM336 621.856L336.457 621.654C336.377 621.473 336.198 621.356 336 621.356C335.802 621.356 335.623 621.473 335.543 621.654L336 621.856ZM326.798 642.581L327.255 642.784L326.798 642.581ZM345.202 642.581L344.745 642.784L345.202 642.581ZM350.295 644.691L350.116 644.224L350.295 644.691ZM371.457 636.543L371.923 636.723C371.994 636.538 371.95 636.329 371.81 636.19C371.671 636.05 371.462 636.006 371.277 636.077L371.457 636.543ZM363.309 657.705L363.776 657.884L363.309 657.705ZM365.419 662.798L365.216 663.255L365.419 662.798ZM386.144 672L386.346 672.457C386.527 672.377 386.644 672.198 386.644 672C386.644 671.802 386.527 671.623 386.346 671.543L386.144 672ZM365.419 681.202L365.216 680.745L365.419 681.202ZM363.309 686.295L363.776 686.116L363.309 686.295ZM371.457 707.457L371.277 707.923C371.462 707.994 371.671 707.95 371.81 707.81C371.95 707.671 371.994 707.462 371.923 707.277L371.457 707.457ZM350.295 699.309L350.116 699.776L350.295 699.309ZM345.202 701.419L344.745 701.216L345.202 701.419ZM336 722.144L335.543 722.346C335.623 722.527 335.802 722.644 336 722.644C336.198 722.644 336.377 722.527 336.457 722.346L336 722.144ZM326.798 701.419L327.255 701.216L326.798 701.419ZM321.705 699.309L321.884 699.776L321.705 699.309ZM300.543 707.457L300.077 707.277C300.006 707.462 300.05 707.671 300.19 707.81C300.329 707.95 300.538 707.994 300.723 707.923L300.543 707.457ZM308.691 686.295L308.224 686.116L308.691 686.295ZM306.581 681.202L306.784 680.745L306.581 681.202ZM285.856 672L285.654 671.543C285.473 671.623 285.356 671.802 285.356 672C285.356 672.198 285.473 672.377 285.654 672.457L285.856 672ZM306.581 662.798L306.784 663.255L306.581 662.798ZM308.691 657.705L308.224 657.884L308.691 657.705ZM300.543 636.543L300.723 636.077C300.538 636.006 300.329 636.05 300.19 636.19C300.05 636.329 300.006 636.538 300.077 636.723L300.543 636.543ZM321.705 644.691L321.884 644.224L321.705 644.691ZM324.753 695.154L324.399 695.507L324.753 695.154ZM312.846 683.247L313.2 682.894L312.846 683.247ZM311.675 680.419H312.175H311.675ZM311.675 663.581H311.175H311.675ZM327.581 647.675V648.175V647.675ZM344.419 647.675V647.175V647.675ZM347.247 648.846L346.894 649.2V649.2L347.247 648.846ZM359.154 660.753L359.507 660.399L359.154 660.753ZM342.762 688.325V688.825C342.895 688.825 343.022 688.773 343.116 688.679L342.762 688.325ZM329.238 688.325L328.884 688.679C328.978 688.773 329.105 688.825 329.238 688.825V688.325ZM352.325 678.762L352.679 679.116C352.773 679.022 352.825 678.895 352.825 678.762H352.325ZM352.325 665.238H352.825C352.825 665.105 352.773 664.978 352.679 664.884L352.325 665.238ZM342.762 655.675L343.116 655.321C343.022 655.227 342.895 655.175 342.762 655.175V655.675ZM329.238 655.675V655.175C329.105 655.175 328.978 655.227 328.884 655.321L329.238 655.675ZM319.675 665.238L319.321 664.884C319.227 664.978 319.175 665.105 319.175 665.238H319.675ZM319.675 678.762H319.175C319.175 678.895 319.227 679.022 319.321 679.116L319.675 678.762ZM336 608.5C337.384 608.5 338.637 609.315 339.199 610.58L340.113 610.174C339.391 608.548 337.779 607.5 336 607.5V608.5ZM332.801 610.58C333.363 609.315 334.616 608.5 336 608.5V607.5C334.221 607.5 332.609 608.548 331.887 610.174L332.801 610.58ZM321.487 636.061L332.801 610.58L331.887 610.174L320.573 635.655L321.487 636.061ZM294.831 626.307L320.85 636.325L321.209 635.392L295.19 625.374L294.831 626.307ZM291.099 627.099C292.077 626.12 293.54 625.81 294.831 626.307L295.19 625.374C293.53 624.735 291.649 625.134 290.392 626.392L291.099 627.099ZM290.307 630.831C289.81 629.54 290.12 628.077 291.099 627.099L290.392 626.392C289.134 627.649 288.735 629.53 289.374 631.19L290.307 630.831ZM300.325 656.85L290.307 630.831L289.374 631.19L299.392 657.209L300.325 656.85ZM274.58 668.801L300.061 657.487L299.655 656.573L274.174 667.887L274.58 668.801ZM272.5 672C272.5 670.616 273.315 669.363 274.58 668.801L274.174 667.887C272.548 668.609 271.5 670.221 271.5 672H272.5ZM274.58 675.199C273.315 674.637 272.5 673.384 272.5 672H271.5C271.5 673.779 272.548 675.391 274.174 676.113L274.58 675.199ZM300.061 686.513L274.58 675.199L274.174 676.113L299.655 687.427L300.061 686.513ZM290.307 713.169L300.325 687.15L299.392 686.791L289.374 712.81L290.307 713.169ZM291.099 716.901C290.12 715.923 289.81 714.46 290.307 713.169L289.374 712.81C288.735 714.47 289.134 716.351 290.392 717.608L291.099 716.901ZM294.831 717.693C293.54 718.19 292.077 717.88 291.099 716.901L290.392 717.608C291.649 718.866 293.53 719.265 295.19 718.626L294.831 717.693ZM320.85 707.675L294.831 717.693L295.19 718.626L321.209 708.608L320.85 707.675ZM332.801 733.42L321.487 707.939L320.573 708.345L331.887 733.826L332.801 733.42ZM336 735.5C334.616 735.5 333.363 734.685 332.801 733.42L331.887 733.826C332.609 735.452 334.221 736.5 336 736.5V735.5ZM339.199 733.42C338.637 734.685 337.384 735.5 336 735.5V736.5C337.779 736.5 339.391 735.452 340.113 733.826L339.199 733.42ZM350.513 707.939L339.199 733.42L340.113 733.826L351.427 708.345L350.513 707.939ZM377.169 717.693L351.15 707.675L350.791 708.608L376.81 718.626L377.169 717.693ZM380.901 716.901C379.923 717.88 378.46 718.19 377.169 717.693L376.81 718.626C378.47 719.265 380.351 718.866 381.608 717.608L380.901 716.901ZM381.693 713.169C382.19 714.46 381.88 715.923 380.901 716.901L381.608 717.608C382.866 716.351 383.265 714.47 382.626 712.81L381.693 713.169ZM371.675 687.15L381.693 713.169L382.626 712.81L372.608 686.791L371.675 687.15ZM397.42 675.199L371.939 686.513L372.345 687.427L397.826 676.113L397.42 675.199ZM399.5 672C399.5 673.384 398.685 674.637 397.42 675.199L397.826 676.113C399.452 675.391 400.5 673.779 400.5 672H399.5ZM397.42 668.801C398.685 669.363 399.5 670.616 399.5 672H400.5C400.5 670.221 399.452 668.609 397.826 667.887L397.42 668.801ZM371.939 657.487L397.42 668.801L397.826 667.887L372.345 656.573L371.939 657.487ZM381.693 630.831L371.675 656.85L372.608 657.209L382.626 631.19L381.693 630.831ZM380.901 627.099C381.88 628.077 382.19 629.54 381.693 630.831L382.626 631.19C383.265 629.53 382.866 627.649 381.608 626.392L380.901 627.099ZM377.169 626.307C378.46 625.81 379.923 626.12 380.901 627.099L381.608 626.392C380.351 625.134 378.47 624.735 376.81 625.374L377.169 626.307ZM351.15 636.325L377.169 626.307L376.81 625.374L350.791 635.392L351.15 636.325ZM339.199 610.58L350.513 636.061L351.427 635.655L340.113 610.174L339.199 610.58ZM335.543 621.654L326.341 642.378L327.255 642.784L336.457 622.059L335.543 621.654ZM345.659 642.378L336.457 621.654L335.543 622.059L344.745 642.784L345.659 642.378ZM350.116 644.224C348.376 644.894 346.416 644.082 345.659 642.378L344.745 642.784C345.718 644.975 348.238 646.018 350.475 645.157L350.116 644.224ZM371.277 636.077L350.116 644.224L350.475 645.157L371.636 637.01L371.277 636.077ZM363.776 657.884L371.923 636.723L370.99 636.364L362.843 657.525L363.776 657.884ZM365.622 662.341C363.918 661.584 363.106 659.624 363.776 657.884L362.843 657.525C361.982 659.762 363.025 662.282 365.216 663.255L365.622 662.341ZM386.346 671.543L365.622 662.341L365.216 663.255L385.941 672.457L386.346 671.543ZM365.622 681.659L386.346 672.457L385.941 671.543L365.216 680.745L365.622 681.659ZM363.776 686.116C363.106 684.376 363.918 682.416 365.622 681.659L365.216 680.745C363.025 681.718 361.982 684.238 362.843 686.475L363.776 686.116ZM371.923 707.277L363.776 686.116L362.843 686.475L370.99 707.636L371.923 707.277ZM350.116 699.776L371.277 707.923L371.636 706.99L350.475 698.843L350.116 699.776ZM345.659 701.622C346.416 699.918 348.376 699.106 350.116 699.776L350.475 698.843C348.238 697.982 345.718 699.025 344.745 701.216L345.659 701.622ZM336.457 722.346L345.659 701.622L344.745 701.216L335.543 721.941L336.457 722.346ZM326.341 701.622L335.543 722.346L336.457 721.941L327.255 701.216L326.341 701.622ZM321.884 699.776C323.624 699.106 325.584 699.918 326.341 701.622L327.255 701.216C326.282 699.025 323.762 697.982 321.525 698.843L321.884 699.776ZM300.723 707.923L321.884 699.776L321.525 698.843L300.364 706.99L300.723 707.923ZM308.224 686.116L300.077 707.277L301.01 707.636L309.157 686.475L308.224 686.116ZM306.378 681.659C308.082 682.416 308.894 684.376 308.224 686.116L309.157 686.475C310.018 684.238 308.975 681.718 306.784 680.745L306.378 681.659ZM285.654 672.457L306.378 681.659L306.784 680.745L286.059 671.543L285.654 672.457ZM306.378 662.341L285.654 671.543L286.059 672.457L306.784 663.255L306.378 662.341ZM308.224 657.884C308.894 659.624 308.082 661.584 306.378 662.341L306.784 663.255C308.975 662.282 310.018 659.762 309.157 657.525L308.224 657.884ZM300.077 636.723L308.224 657.884L309.157 657.525L301.01 636.364L300.077 636.723ZM321.884 644.224L300.723 636.077L300.364 637.01L321.525 645.157L321.884 644.224ZM326.341 642.378C325.584 644.082 323.624 644.894 321.884 644.224L321.525 645.157C323.762 646.018 326.282 644.975 327.255 642.784L326.341 642.378ZM344.419 696.825C345.613 696.825 346.757 696.351 347.601 695.507L346.894 694.8C346.238 695.457 345.347 695.825 344.419 695.825V696.825ZM327.581 696.825H344.419V695.825H327.581V696.825ZM324.399 695.507C325.243 696.351 326.387 696.825 327.581 696.825V695.825C326.653 695.825 325.762 695.457 325.106 694.8L324.399 695.507ZM312.493 683.601L324.399 695.507L325.106 694.8L313.2 682.894L312.493 683.601ZM311.175 680.419C311.175 681.613 311.649 682.757 312.493 683.601L313.2 682.894C312.543 682.238 312.175 681.347 312.175 680.419H311.175ZM311.175 663.581L311.175 680.419H312.175L312.175 663.581H311.175ZM312.493 660.399C311.649 661.243 311.175 662.387 311.175 663.581H312.175C312.175 662.653 312.543 661.762 313.2 661.106L312.493 660.399ZM324.399 648.493L312.493 660.399L313.2 661.106L325.106 649.2L324.399 648.493ZM327.581 647.175C326.387 647.175 325.243 647.649 324.399 648.493L325.106 649.2C325.762 648.543 326.653 648.175 327.581 648.175V647.175ZM344.419 647.175L327.581 647.175V648.175L344.419 648.175V647.175ZM347.601 648.493C346.757 647.649 345.613 647.175 344.419 647.175V648.175C345.347 648.175 346.238 648.543 346.894 649.2L347.601 648.493ZM359.507 660.399L347.601 648.493L346.894 649.2L358.8 661.106L359.507 660.399ZM360.825 663.581C360.825 662.387 360.351 661.243 359.507 660.399L358.8 661.106C359.457 661.762 359.825 662.653 359.825 663.581H360.825ZM360.825 680.419V663.581H359.825V680.419H360.825ZM359.507 683.601C360.351 682.757 360.825 681.613 360.825 680.419H359.825C359.825 681.347 359.457 682.238 358.8 682.894L359.507 683.601ZM347.601 695.507L359.507 683.601L358.8 682.894L346.894 694.8L347.601 695.507ZM342.762 687.825H329.238V688.825H342.762V687.825ZM351.972 678.409L342.409 687.972L343.116 688.679L352.679 679.116L351.972 678.409ZM351.825 665.238V678.762H352.825V665.238H351.825ZM342.409 656.028L351.972 665.591L352.679 664.884L343.116 655.321L342.409 656.028ZM329.238 656.175L342.762 656.175V655.175L329.238 655.175V656.175ZM320.028 665.591L329.591 656.028L328.884 655.321L319.321 664.884L320.028 665.591ZM320.175 678.762V665.238H319.175V678.762H320.175ZM329.591 687.972L320.028 678.409L319.321 679.116L328.884 688.679L329.591 687.972Z" fill="currentColor"/>
<path fill-rule="evenodd" clip-rule="evenodd" d="M524.858 640.958L512 612L499.142 640.958L469.574 629.574L480.958 659.142L452 672L480.958 684.858L469.574 714.426L499.142 703.042L512 732L524.858 703.042L554.426 714.426L543.042 684.858L572 672L543.042 659.142L554.426 629.574L524.858 640.958ZM532.325 680.419L520.419 692.325H503.581L491.675 680.419V663.581L503.581 651.675L520.419 651.675L532.325 663.581V680.419Z" fill="currentColor"/>
<path d="M512 612L513.828 611.188C513.507 610.466 512.791 610 512 610C511.209 610 510.493 610.466 510.172 611.188L512 612ZM524.858 640.958L523.03 641.769C523.463 642.743 524.582 643.207 525.577 642.824L524.858 640.958ZM499.142 640.958L498.423 642.824C499.418 643.207 500.537 642.743 500.97 641.769L499.142 640.958ZM469.574 629.574L470.292 627.707C469.554 627.423 468.718 627.6 468.159 628.159C467.6 628.718 467.423 629.554 467.707 630.292L469.574 629.574ZM480.958 659.142L481.769 660.97C482.743 660.537 483.207 659.418 482.824 658.423L480.958 659.142ZM452 672L451.188 670.172C450.466 670.493 450 671.209 450 672C450 672.791 450.466 673.507 451.188 673.828L452 672ZM480.958 684.858L482.824 685.577C483.207 684.582 482.743 683.463 481.769 683.03L480.958 684.858ZM469.574 714.426L467.707 713.708C467.423 714.446 467.6 715.282 468.159 715.841C468.718 716.4 469.554 716.577 470.292 716.293L469.574 714.426ZM499.142 703.042L500.97 702.231C500.537 701.257 499.418 700.793 498.423 701.176L499.142 703.042ZM512 732L510.172 732.812C510.493 733.534 511.209 734 512 734C512.791 734 513.507 733.534 513.828 732.812L512 732ZM524.858 703.042L525.577 701.176C524.582 700.793 523.463 701.257 523.03 702.231L524.858 703.042ZM554.426 714.426L553.708 716.293C554.446 716.577 555.282 716.4 555.841 715.841C556.4 715.282 556.577 714.446 556.293 713.708L554.426 714.426ZM543.042 684.858L542.231 683.03C541.257 683.463 540.793 684.582 541.176 685.577L543.042 684.858ZM572 672L572.812 673.828C573.534 673.507 574 672.791 574 672C574 671.209 573.534 670.493 572.812 670.172L572 672ZM543.042 659.142L541.176 658.423C540.793 659.418 541.257 660.537 542.231 660.97L543.042 659.142ZM554.426 629.574L556.293 630.292C556.577 629.554 556.4 628.718 555.841 628.159C555.282 627.6 554.446 627.423 553.708 627.707L554.426 629.574ZM520.419 692.325V694.325C520.949 694.325 521.458 694.115 521.833 693.74L520.419 692.325ZM532.325 680.419L533.74 681.833C534.115 681.458 534.325 680.949 534.325 680.419H532.325ZM503.581 692.325L502.167 693.74C502.542 694.115 503.051 694.325 503.581 694.325V692.325ZM491.675 680.419H489.675C489.675 680.949 489.885 681.458 490.26 681.833L491.675 680.419ZM491.675 663.581L490.26 662.167C489.885 662.542 489.675 663.051 489.675 663.581H491.675ZM503.581 651.675V649.675C503.051 649.675 502.542 649.885 502.167 650.26L503.581 651.675ZM520.419 651.675L521.833 650.26C521.458 649.885 520.949 649.675 520.419 649.675V651.675ZM532.325 663.581H534.325C534.325 663.051 534.115 662.542 533.74 662.167L532.325 663.581ZM510.172 612.812L523.03 641.769L526.686 640.146L513.828 611.188L510.172 612.812ZM500.97 641.769L513.828 612.812L510.172 611.188L497.314 640.146L500.97 641.769ZM468.855 631.44L498.423 642.824L499.86 639.091L470.292 627.707L468.855 631.44ZM482.824 658.423L471.44 628.855L467.707 630.292L479.091 659.86L482.824 658.423ZM452.812 673.828L481.769 660.97L480.146 657.314L451.188 670.172L452.812 673.828ZM481.769 683.03L452.812 670.172L451.188 673.828L480.146 686.686L481.769 683.03ZM471.44 715.145L482.824 685.577L479.091 684.14L467.707 713.708L471.44 715.145ZM498.423 701.176L468.855 712.56L470.292 716.293L499.86 704.909L498.423 701.176ZM513.828 731.188L500.97 702.231L497.314 703.854L510.172 732.812L513.828 731.188ZM523.03 702.231L510.172 731.188L513.828 732.812L526.686 703.854L523.03 702.231ZM555.145 712.56L525.577 701.176L524.14 704.909L553.708 716.293L555.145 712.56ZM541.176 685.577L552.56 715.145L556.293 713.708L544.909 684.14L541.176 685.577ZM571.188 670.172L542.231 683.03L543.854 686.686L572.812 673.828L571.188 670.172ZM542.231 660.97L571.188 673.828L572.812 670.172L543.854 657.314L542.231 660.97ZM552.56 628.855L541.176 658.423L544.909 659.86L556.293 630.292L552.56 628.855ZM525.577 642.824L555.145 631.44L553.708 627.707L524.14 639.091L525.577 642.824ZM521.833 693.74L533.74 681.833L530.911 679.005L519.005 690.911L521.833 693.74ZM503.581 694.325H520.419V690.325H503.581V694.325ZM490.26 681.833L502.167 693.74L504.995 690.911L493.089 679.005L490.26 681.833ZM489.675 663.581V680.419H493.675V663.581H489.675ZM502.167 650.26L490.26 662.167L493.089 664.995L504.995 653.089L502.167 650.26ZM520.419 649.675L503.581 649.675V653.675L520.419 653.675V649.675ZM533.74 662.167L521.833 650.26L519.005 653.089L530.911 664.995L533.74 662.167ZM534.325 680.419V663.581H530.325V680.419H534.325Z" fill="currentColor"/>
<path opacity="0.25" d="M688 612L700.858 640.958L730.426 629.574L719.042 659.142L748 672L719.042 684.858L730.426 714.426L700.858 703.042L688 732L675.142 703.042L645.574 714.426L656.958 684.858L628 672L656.958 659.142L645.574 629.574L675.142 640.958L688 612Z" fill="currentColor" stroke="currentColor" stroke-width="4" stroke-linecap="round" stroke-linejoin="round"/>
<path d="M696.419 692.325L708.325 680.419L708.325 663.581L696.419 651.674L679.581 651.674L667.675 663.581L667.675 680.419L679.581 692.325L696.419 692.325Z" fill="currentColor" stroke="currentColor" stroke-width="4" stroke-linecap="round" stroke-linejoin="round"/>
<path d="M864 612L876.858 640.958L906.426 629.574L895.042 659.142L924 672L895.042 684.858L906.426 714.426L876.858 703.042L864 732L851.142 703.042L821.574 714.426L832.958 684.858L804 672L832.958 659.142L821.574 629.574L851.142 640.958L864 612Z" fill="#FFA500" stroke="#FFA500" stroke-width="4" stroke-linecap="round" stroke-linejoin="round"/>
<path d="M872.419 692.325L884.325 680.419L884.325 663.581L872.419 651.674L855.581 651.674L843.675 663.581L843.675 680.419L855.581 692.325L872.419 692.325Z" fill="#FFD700" stroke="#FFD700" stroke-width="4" stroke-linecap="round" stroke-linejoin="round"/>
</svg>
