<svg viewBox="0 0 1024 768" fill="none" xmlns="http://www.w3.org/2000/svg">
<path d="M424 36L443.75 68.817L481.063 77.459L455.955 106.383L459.267 144.541L424 129.6L388.733 144.541L392.045 106.383L366.937 77.459L404.25 68.817L424 36Z" stroke="#7B61FF" stroke-width="2" stroke-linecap="round" stroke-linejoin="round"/>
<path d="M638.567 141.962L645.962 57.432L561.432 50.0366L554.037 134.567L638.567 141.962Z" stroke="#7B61FF" stroke-width="2" stroke-linecap="round" stroke-linejoin="round"/>
<path fill-rule="evenodd" clip-rule="evenodd" d="M516.746 277.943C531.138 279.202 544.058 287.27 551.508 299.648C557.814 310.126 568.1 317.6 580.015 320.359L588.661 322.362C608.451 326.945 621.847 345.397 620.077 365.633C619.327 374.2 615.888 382.31 610.25 388.805L607.112 392.42C597.382 403.629 592.613 418.305 593.897 433.093L597.955 479.857C598.783 489.392 590.804 497.365 581.269 496.531C579.663 496.39 578.089 495.998 576.604 495.369L539.69 479.73C521.991 472.232 502.008 472.232 484.31 479.73L475.828 483.324C470.713 485.491 465.144 486.371 459.609 485.887C440.921 484.252 427.093 467.783 428.715 449.094L430.383 429.866C431.488 417.141 427.384 404.512 419.011 394.866L418.424 394.19C410.418 384.967 406.499 372.89 407.563 360.724C409.264 341.289 423.279 325.155 442.285 320.753L443.923 320.374C455.877 317.605 466.198 310.107 472.525 299.593C481.453 284.759 498.053 276.308 515.301 277.817L516.746 277.943ZM539.843 421.154C553.459 422.345 565.463 412.273 566.655 398.656C567.846 385.04 557.773 373.036 544.157 371.845C530.541 370.654 518.537 380.726 517.345 394.342C516.154 407.959 526.227 419.963 539.843 421.154ZM468.588 382.732C467.907 390.512 461.047 396.268 453.267 395.587C445.486 394.907 439.73 388.047 440.411 380.267C441.092 372.486 447.951 366.73 455.732 367.411C463.513 368.091 469.268 374.951 468.588 382.732ZM506.383 331.043C510.274 331.384 513.703 328.506 514.044 324.616C514.384 320.725 511.506 317.295 507.616 316.955C503.725 316.615 500.296 319.493 499.955 323.383C499.615 327.273 502.493 330.703 506.383 331.043Z" fill="#888888" fill-opacity="0.5"/>
<path d="M566.655 398.656L571.635 399.092V399.092L566.655 398.656ZM539.843 421.154L540.279 416.173L539.843 421.154ZM544.157 371.845L543.721 376.826L544.157 371.845ZM517.345 394.342L522.326 394.778V394.778L517.345 394.342ZM453.267 395.587L452.831 400.568H452.831L453.267 395.587ZM468.588 382.732L463.607 382.296L463.607 382.296L468.588 382.732ZM440.411 380.267L435.43 379.831V379.831L440.411 380.267ZM455.732 367.411L455.296 372.392H455.296L455.732 367.411ZM514.044 324.616L509.063 324.18L514.044 324.616ZM506.383 331.043L506.819 326.062L506.819 326.062L506.383 331.043ZM507.616 316.955L507.18 321.936H507.18L507.616 316.955ZM499.955 323.383L504.936 323.819L499.955 323.383ZM515.301 277.817L515.737 272.836L515.301 277.817ZM443.923 320.374L442.795 315.503L443.923 320.374ZM442.285 320.753L441.157 315.882L442.285 320.753ZM475.828 483.324L477.778 487.928L475.828 483.324ZM539.69 479.73L537.74 484.334L539.69 479.73ZM576.604 495.369L578.554 490.765L576.604 495.369ZM610.25 388.805L614.026 392.082L610.25 388.805ZM516.746 277.943L517.182 272.962L516.746 277.943ZM589.79 317.491L581.143 315.488L578.887 325.23L587.533 327.233L589.79 317.491ZM610.888 395.697L614.026 392.082L606.474 385.527L603.336 389.142L610.888 395.697ZM602.936 479.424L598.878 432.661L588.915 433.525L592.974 480.289L602.936 479.424ZM537.74 484.334L574.653 499.973L578.554 490.765L541.64 475.127L537.74 484.334ZM477.778 487.928L486.26 484.334L482.359 475.127L473.878 478.72L477.778 487.928ZM425.402 429.434L423.733 448.661L433.696 449.526L435.365 430.298L425.402 429.434ZM414.648 397.467L415.235 398.143L422.787 391.588L422.2 390.912L414.648 397.467ZM442.795 315.503L441.157 315.882L443.413 325.624L445.051 325.245L442.795 315.503ZM517.182 272.962L515.737 272.836L514.865 282.798L516.31 282.924L517.182 272.962ZM561.674 398.221C560.723 409.086 551.144 417.124 540.279 416.173L539.407 426.135C555.774 427.567 570.204 415.459 571.635 399.092L561.674 398.221ZM543.721 376.826C554.587 377.776 562.624 387.355 561.674 398.221L571.635 399.092C573.067 382.725 560.96 368.296 544.593 366.864L543.721 376.826ZM522.326 394.778C523.277 383.913 532.856 375.875 543.721 376.826L544.593 366.864C528.225 365.432 513.796 377.539 512.364 393.907L522.326 394.778ZM540.279 416.173C529.413 415.222 521.376 405.644 522.326 394.778L512.364 393.907C510.932 410.274 523.04 424.703 539.407 426.135L540.279 416.173ZM452.831 400.568C463.363 401.49 472.647 393.699 473.568 383.167L463.607 382.296C463.166 387.326 458.732 391.047 453.702 390.606L452.831 400.568ZM435.43 379.831C434.508 390.362 442.299 399.647 452.831 400.568L453.702 390.606C448.673 390.166 444.952 385.732 445.392 380.702L435.43 379.831ZM456.168 362.43C445.636 361.508 436.351 369.299 435.43 379.831L445.392 380.702C445.832 375.672 450.266 371.952 455.296 372.392L456.168 362.43ZM473.568 383.167C474.49 372.636 466.699 363.351 456.168 362.43L455.296 372.392C460.326 372.832 464.047 377.266 463.607 382.296L473.568 383.167ZM509.063 324.18C508.963 325.319 507.959 326.162 506.819 326.062L505.947 336.024C512.589 336.605 518.444 331.693 519.025 325.051L509.063 324.18ZM507.18 321.936C508.32 322.036 509.162 323.04 509.063 324.18L519.025 325.051C519.606 318.41 514.693 312.555 508.052 311.974L507.18 321.936ZM504.936 323.819C505.036 322.679 506.041 321.836 507.18 321.936L508.052 311.974C501.41 311.393 495.555 316.306 494.974 322.947L504.936 323.819ZM506.819 326.062C505.68 325.963 504.837 324.958 504.936 323.819L494.974 322.947C494.393 329.589 499.306 335.443 505.947 336.024L506.819 326.062ZM476.809 302.171C484.752 288.974 499.52 281.455 514.865 282.798L515.737 272.836C496.586 271.16 478.154 280.544 468.241 297.015L476.809 302.171ZM445.051 325.245C458.325 322.171 469.784 313.845 476.809 302.171L468.241 297.015C462.612 306.369 453.43 313.039 442.795 315.503L445.051 325.245ZM412.544 361.16C414.056 343.881 426.516 329.538 443.413 325.624L441.157 315.882C420.042 320.772 404.472 338.696 402.582 360.288L412.544 361.16ZM422.2 390.912C415.083 382.713 411.598 371.976 412.544 361.16L402.582 360.288C401.4 373.804 405.754 387.222 414.648 397.467L422.2 390.912ZM435.365 430.298C436.586 416.224 432.048 402.256 422.787 391.588L415.235 398.143C422.721 406.767 426.389 418.057 425.402 429.434L435.365 430.298ZM460.045 480.906C444.106 479.511 432.312 465.466 433.696 449.526L423.733 448.661C421.873 470.101 437.736 488.992 459.174 490.868L460.045 480.906ZM473.878 478.72C469.515 480.568 464.765 481.319 460.045 480.906L459.174 490.868C465.522 491.423 471.91 490.414 477.778 487.928L473.878 478.72ZM541.64 475.127C522.695 467.1 501.305 467.1 482.359 475.127L486.26 484.334C502.712 477.364 521.288 477.364 537.74 484.334L541.64 475.127ZM581.705 491.55C580.62 491.455 579.557 491.19 578.554 490.765L574.653 499.973C576.62 500.806 578.706 501.325 580.834 501.512L581.705 491.55ZM592.974 480.289C593.533 486.729 588.144 492.113 581.705 491.55L580.834 501.512C593.464 502.617 604.032 492.055 602.936 479.424L592.974 480.289ZM603.336 389.142C592.718 401.374 587.515 417.389 588.915 433.525L598.878 432.661C597.711 419.222 602.045 405.884 610.888 395.697L603.336 389.142ZM615.096 365.197C614.438 372.713 611.42 379.829 606.474 385.527L614.026 392.082C620.355 384.792 624.216 375.686 625.057 366.068L615.096 365.197ZM587.533 327.233C604.896 331.254 616.649 347.443 615.096 365.197L625.057 366.068C627.045 343.351 612.006 322.636 589.79 317.491L587.533 327.233ZM555.792 297.069C547.518 283.321 533.167 274.361 517.182 272.962L516.31 282.924C529.109 284.044 540.599 291.218 547.223 302.226L555.792 297.069ZM547.223 302.226C554.228 313.865 565.653 322.165 578.887 325.23L581.143 315.488C570.547 313.034 561.4 306.388 555.792 297.069L547.223 302.226Z" fill="currentColor"/>
<path d="M539.843 421.155C553.459 422.346 565.463 412.274 566.655 398.657C567.846 385.041 557.773 373.037 544.157 371.846C530.541 370.655 518.537 380.727 517.345 394.343C516.154 407.96 526.227 419.964 539.843 421.155Z" fill="#888888" fill-opacity="0.5" stroke="currentColor" stroke-width="10" stroke-linecap="round" stroke-linejoin="round"/>
<path d="M453.267 395.588C461.048 396.269 467.907 390.513 468.588 382.733C469.268 374.952 463.513 368.092 455.732 367.412C447.951 366.731 441.092 372.487 440.411 380.268C439.73 388.048 445.486 394.908 453.267 395.588Z" fill="#888888" fill-opacity="0.5" stroke="currentColor" stroke-width="10" stroke-linecap="round" stroke-linejoin="round"/>
<path d="M506.383 331.044C510.274 331.384 513.703 328.506 514.044 324.616C514.384 320.725 511.506 317.296 507.616 316.955C503.726 316.615 500.296 319.493 499.955 323.383C499.615 327.274 502.493 330.703 506.383 331.044Z" fill="#888888" fill-opacity="0.5" stroke="currentColor" stroke-width="10" stroke-linecap="round" stroke-linejoin="round"/>
<g opacity="0.25">
<path d="M512 238.839L559.781 318.235L650.057 339.143L589.312 409.12L597.324 501.438L512 465.29L426.676 501.438L434.688 409.12L373.943 339.143L464.219 318.235L512 238.839Z" stroke="currentColor" stroke-width="2.41935" stroke-linecap="round" stroke-linejoin="round"/>
<path d="M608.417 498.904L626.905 287.579L415.58 269.091L397.092 480.416L608.417 498.904Z" stroke="currentColor" stroke-width="2.41935" stroke-linecap="round" stroke-linejoin="round"/>
</g>
<path d="M181.862 677.862L180.866 677.775L181.862 677.862ZM171.137 686.861L171.224 685.865L171.137 686.861ZM162.138 676.137L163.134 676.224L162.138 676.137ZM136.507 676.635L136.594 675.639L136.507 676.635ZM142.635 671.493L143.631 671.58L142.635 671.493ZM131.365 670.507L130.368 670.419L131.365 670.507ZM160.818 648.246L159.821 648.159V648.159L160.818 648.246ZM157.753 650.817L157.666 651.813L157.753 650.817ZM158.247 645.182L158.159 646.178L158.247 645.182ZM155.182 647.753L156.179 647.84V647.84L155.182 647.753ZM161.321 629.526L161.234 630.522L161.321 629.526ZM145.532 711.729L145.142 710.808L145.532 711.729ZM171.076 710.292L170.686 711.213L171.076 710.292ZM148.924 710.292L148.534 709.371L148.924 710.292ZM185.841 716.547L186.231 715.626L185.841 716.547ZM194.382 710.342L193.386 710.428L194.382 710.342ZM198.045 675.368L197.29 674.712L198.045 675.368ZM192.759 691.637L193.755 691.55L192.759 691.637ZM199.3 673.922L198.545 673.266L199.3 673.922ZM161.898 629.577L161.985 628.581L161.898 629.577ZM190.89 646.37L187.432 645.569L186.98 647.518L190.439 648.319L190.89 646.37ZM198.8 676.023L200.055 674.577L198.545 673.266L197.29 674.712L198.8 676.023ZM195.378 710.255L193.755 691.55L191.762 691.723L193.386 710.428L195.378 710.255ZM170.686 711.213L185.451 717.468L186.231 715.626L171.466 709.371L170.686 711.213ZM145.922 712.65L149.314 711.213L148.534 709.371L145.142 710.808L145.922 712.65ZM126.357 690.26L125.69 697.95L127.682 698.123L128.35 690.433L126.357 690.26ZM121.815 676.731L122.049 677.002L123.56 675.69L123.325 675.42L121.815 676.731ZM132.544 645.575L131.888 645.727L132.34 647.675L132.995 647.523L132.544 645.575ZM161.985 628.581L161.408 628.53L161.234 630.522L161.811 630.573L161.985 628.581ZM180.866 677.775C180.437 682.671 176.121 686.293 171.224 685.865L171.05 687.857C177.047 688.382 182.333 683.946 182.858 677.949L180.866 677.775ZM172.776 668.134C177.672 668.562 181.294 672.879 180.866 677.775L182.858 677.949C183.383 671.953 178.947 666.666 172.95 666.141L172.776 668.134ZM163.134 676.224C163.563 671.327 167.879 667.705 172.776 668.134L172.95 666.141C166.953 665.617 161.667 670.053 161.142 676.05L163.134 676.224ZM171.224 685.865C166.328 685.437 162.706 681.12 163.134 676.224L161.142 676.05C160.617 682.046 165.053 687.333 171.05 687.857L171.224 685.865ZM136.42 677.631C140.082 677.951 143.311 675.242 143.631 671.58L141.639 671.405C141.415 673.968 139.156 675.863 136.594 675.639L136.42 677.631ZM130.368 670.419C130.048 674.082 132.757 677.311 136.42 677.631L136.594 675.639C134.032 675.415 132.137 673.156 132.361 670.594L130.368 670.419ZM137.58 664.368C133.918 664.048 130.689 666.757 130.368 670.419L132.361 670.594C132.585 668.032 134.844 666.136 137.406 666.36L137.58 664.368ZM143.631 671.58C143.952 667.917 141.243 664.688 137.58 664.368L137.406 666.36C139.968 666.585 141.863 668.843 141.639 671.405L143.631 671.58ZM159.821 648.159C159.733 649.165 158.847 649.909 157.841 649.821L157.666 651.813C159.773 651.998 161.63 650.44 161.814 648.333L159.821 648.159ZM158.159 646.178C159.165 646.266 159.909 647.153 159.821 648.159L161.814 648.333C161.998 646.227 160.44 644.37 158.334 644.186L158.159 646.178ZM156.179 647.84C156.267 646.834 157.153 646.09 158.159 646.178L158.334 644.186C156.227 644.001 154.37 645.56 154.186 647.666L156.179 647.84ZM157.841 649.821C156.835 649.733 156.091 648.846 156.179 647.84L154.186 647.666C154.002 649.772 155.56 651.629 157.666 651.813L157.841 649.821ZM145.067 638.753C148.441 633.146 154.715 629.952 161.234 630.522L161.408 628.53C154.128 627.893 147.121 631.46 143.353 637.721L145.067 638.753ZM132.995 647.523C138.04 646.355 142.396 643.19 145.067 638.753L143.353 637.721C140.962 641.695 137.062 644.529 132.544 645.575L132.995 647.523ZM119.222 662.776C119.864 655.434 125.159 649.338 132.34 647.675L131.888 645.727C123.864 647.585 117.947 654.397 117.229 662.602L119.222 662.776ZM123.325 675.42C120.3 671.936 118.819 667.373 119.222 662.776L117.229 662.602C116.78 667.739 118.435 672.837 121.815 676.731L123.325 675.42ZM128.35 690.433C128.815 685.073 127.086 679.753 123.56 675.69L122.049 677.002C125.221 680.655 126.776 685.439 126.357 690.26L128.35 690.433ZM139.131 711.758C132.206 711.152 127.081 705.049 127.682 698.123L125.69 697.95C124.993 705.976 130.932 713.048 138.957 713.751L139.131 711.758ZM145.142 710.808C143.246 711.611 141.182 711.938 139.131 711.758L138.957 713.751C141.334 713.958 143.725 713.581 145.922 712.65L145.142 710.808ZM171.466 709.371C164.137 706.266 155.863 706.266 148.534 709.371L149.314 711.213C156.144 708.319 163.856 708.319 170.686 711.213L171.466 709.371ZM187.794 716.016C187.256 715.968 186.729 715.837 186.231 715.626L185.451 717.468C186.141 717.76 186.873 717.943 187.62 718.008L187.794 716.016ZM193.386 710.428C193.663 713.623 190.99 716.295 187.794 716.016L187.62 718.008C192.053 718.396 195.763 714.689 195.378 710.255L193.386 710.428ZM197.29 674.712C193.22 679.4 191.226 685.538 191.762 691.723L193.755 691.55C193.265 685.905 195.085 680.302 198.8 676.023L197.29 674.712ZM202.234 664.566C201.953 667.783 200.662 670.828 198.545 673.266L200.055 674.577C202.448 671.82 203.909 668.377 204.227 664.74L202.234 664.566ZM190.439 648.319C197.869 650.04 202.899 656.968 202.234 664.566L204.227 664.74C204.978 656.149 199.291 648.316 190.89 646.37L190.439 648.319ZM176.66 637.743C173.515 632.518 168.061 629.112 161.985 628.581L161.811 630.573C167.249 631.049 172.131 634.097 174.946 638.774L176.66 637.743ZM174.946 638.774C177.608 643.198 181.951 646.353 186.98 647.518L187.432 645.569C182.93 644.527 179.043 641.703 176.66 637.743L174.946 638.774Z" fill="currentColor"/>
<path d="M323.637 640.3L323.209 640.042L323.637 640.3ZM336.972 633.511L336.928 634.009L336.972 633.511ZM309.672 650.446L309.559 649.959L309.672 650.446ZM309.017 650.598L309.129 651.085L309.017 650.598ZM298.21 663.038L297.712 662.994L298.21 663.038ZM301.59 673.453L301.968 673.126H301.968L301.59 673.453ZM301.825 673.724L301.448 674.052H301.448L301.825 673.724ZM307.338 690.692L306.84 690.649L307.338 690.692ZM306.671 698.383L307.169 698.426L306.671 698.383ZM315.393 708.77L315.349 709.268H315.349L315.393 708.77ZM319.971 708.046L319.776 707.586L319.971 708.046ZM323.364 706.609L323.559 707.069L323.364 706.609ZM348.636 706.609L348.441 707.069L348.636 706.609ZM363.401 712.864L363.596 712.404H363.596L363.401 712.864ZM364.056 713.027L364.012 713.525H364.012L364.056 713.027ZM366.397 710.688L365.899 710.731L366.397 710.688ZM364.774 691.983L364.276 692.026V692.026L364.774 691.983ZM371.024 672.746L371.402 673.073L371.024 672.746ZM372.279 671.3L371.902 670.972L372.279 671.3ZM375.246 664.304L374.748 664.261L375.246 664.304ZM365.762 651.241L365.875 650.754L365.762 651.241ZM362.304 650.44L362.191 650.928L362.304 650.44ZM348.376 640.321L347.947 640.579L348.376 640.321ZM337.55 633.562L337.506 634.06L337.55 633.562ZM337.669 625.542L337.713 625.043L337.669 625.542ZM316.783 636.175L316.355 635.917L316.783 636.175ZM338.247 625.592L338.29 625.094L338.247 625.592ZM355.23 636.196L355.659 635.938L355.23 636.196ZM364.109 642.647L364.221 642.16L364.109 642.647ZM367.567 643.448L367.454 643.935L367.567 643.448ZM383.215 665.002L383.713 665.045L383.215 665.002ZM378.321 676.544L377.943 676.216L378.321 676.544ZM377.066 677.99L377.443 678.318L377.066 677.99ZM372.744 691.291L372.246 691.334L372.744 691.291ZM374.367 709.996L373.869 710.039V710.039L374.367 709.996ZM363.359 720.997L363.402 720.499L363.359 720.997ZM360.281 720.23L360.476 719.77H360.476L360.281 720.23ZM345.516 713.975L345.711 713.515L345.516 713.975ZM326.485 713.975L326.68 714.435L326.485 713.975ZM323.092 715.412L323.287 715.873L323.092 715.412ZM314.696 716.739L314.652 717.237L314.696 716.739ZM298.701 697.691L299.199 697.734L298.701 697.691ZM299.368 690.001L298.87 689.957L299.368 690.001ZM295.784 678.968L296.161 678.64H296.161L295.784 678.968ZM295.549 678.698L295.171 679.025L295.171 679.026L295.549 678.698ZM290.241 662.341L289.743 662.297L290.241 662.341ZM307.212 642.804L307.324 643.291L307.212 642.804ZM307.867 642.652L307.754 642.165L307.867 642.652ZM335.167 648.102L334.669 648.058V648.058L335.167 648.102ZM333.898 649.167L333.854 649.665H333.854L333.898 649.167ZM334.102 646.833L334.059 647.331L334.102 646.833ZM332.833 647.898L332.335 647.854V647.854L332.833 647.898ZM334.595 641.197L334.552 641.695L334.595 641.197ZM327.198 647.405L327.696 647.448V647.448L327.198 647.405ZM340.802 648.595L340.304 648.551L340.802 648.595ZM333.405 654.802L333.361 655.3L333.405 654.802ZM313.842 661.379L313.798 661.878L313.842 661.379ZM303.38 670.158L302.882 670.114L303.38 670.158ZM322.62 671.841L323.118 671.885L322.62 671.841ZM312.158 680.62L312.115 681.118L312.158 680.62ZM313.144 669.349L313.101 669.847L313.101 669.847L313.144 669.349ZM312.856 672.65L312.899 672.152L312.856 672.65ZM314.651 671.144L315.149 671.188L314.651 671.144ZM342.123 676.485L342.621 676.529L342.123 676.485ZM348.514 671.122L348.471 671.621L348.514 671.122ZM353.877 677.514L353.379 677.47V677.47L353.877 677.514ZM349.211 663.153L349.168 663.651L349.211 663.153ZM334.153 675.788L334.651 675.832L334.153 675.788ZM361.847 678.211L362.345 678.255L361.847 678.211ZM346.789 690.846L346.745 691.344H346.745L346.789 690.846ZM324.066 640.557C326.75 636.097 331.742 633.555 336.928 634.009L337.016 633.013C331.449 632.526 326.091 635.254 323.209 640.042L324.066 640.557ZM309.785 650.933C315.753 649.551 320.907 645.807 324.066 640.557L323.209 640.042C320.189 645.059 315.264 648.638 309.559 649.959L309.785 650.933ZM309.129 651.085L309.785 650.933L309.559 649.959L308.904 650.111L309.129 651.085ZM298.708 663.082C299.219 657.248 303.425 652.406 309.129 651.085L308.904 650.111C302.777 651.53 298.26 656.73 297.712 662.994L298.708 663.082ZM301.968 673.126C299.565 670.358 298.389 666.733 298.708 663.082L297.712 662.994C297.369 666.916 298.632 670.809 301.213 673.781L301.968 673.126ZM302.203 673.396L301.968 673.126L301.213 673.781L301.448 674.052L302.203 673.396ZM307.837 690.735C308.384 684.431 306.351 678.175 302.203 673.396L301.448 674.052C305.418 678.626 307.364 684.615 306.84 690.649L307.837 690.735ZM307.169 698.426L307.837 690.735L306.84 690.649L306.173 698.339L307.169 698.426ZM315.436 708.271C310.436 707.834 306.735 703.427 307.169 698.426L306.173 698.339C305.691 703.891 309.799 708.782 315.349 709.268L315.436 708.271ZM319.776 707.586C318.408 708.166 316.917 708.401 315.436 708.271L315.349 709.268C316.993 709.411 318.647 709.15 320.167 708.506L319.776 707.586ZM323.169 706.148L319.776 707.586L320.167 708.506L323.559 707.069L323.169 706.148ZM348.831 706.148C340.63 702.674 331.37 702.674 323.169 706.148L323.559 707.069C331.511 703.7 340.489 703.7 348.441 707.069L348.831 706.148ZM363.596 712.404L348.831 706.148L348.441 707.069L363.206 713.324L363.596 712.404ZM364.099 712.529C363.926 712.514 363.756 712.472 363.596 712.404L363.206 713.324C363.463 713.433 363.735 713.501 364.012 713.525L364.099 712.529ZM365.899 710.731C365.988 711.759 365.128 712.619 364.099 712.529L364.012 713.525C365.66 713.669 367.038 712.292 366.895 710.644L365.899 710.731ZM364.276 692.026L365.899 710.731L366.895 710.644L365.272 691.94L364.276 692.026ZM370.647 672.418C365.956 677.822 363.657 684.897 364.276 692.026L365.272 691.94C364.677 685.08 366.888 678.273 371.402 673.073L370.647 672.418ZM371.902 670.972L370.647 672.418L371.402 673.073L372.657 671.628L371.902 670.972ZM374.748 664.261C374.531 666.742 373.534 669.091 371.902 670.972L372.657 671.628C374.428 669.587 375.508 667.039 375.744 664.348L374.748 664.261ZM365.649 651.729C371.381 653.056 375.26 658.4 374.748 664.261L375.744 664.348C376.3 657.991 372.092 652.194 365.875 650.754L365.649 651.729ZM362.191 650.928L365.649 651.729L365.875 650.754L362.416 649.953L362.191 650.928ZM347.947 640.579C351.098 645.815 356.238 649.549 362.191 650.928L362.416 649.953C356.727 648.636 351.815 645.067 348.804 640.064L347.947 640.579ZM337.506 634.06C341.829 634.438 345.71 636.861 347.947 640.579L348.804 640.064C346.402 636.071 342.235 633.47 337.593 633.064L337.506 634.06ZM336.928 634.009L337.506 634.06L337.593 633.064L337.016 633.013L336.928 634.009ZM337.713 625.043C329.101 624.29 320.812 628.51 316.355 635.917L317.211 636.432C321.472 629.353 329.394 625.319 337.626 626.04L337.713 625.043ZM338.29 625.094L337.713 625.043L337.626 626.04L338.203 626.09L338.29 625.094ZM355.659 635.938C351.937 629.754 345.481 625.723 338.29 625.094L338.203 626.09C345.075 626.691 351.245 630.544 354.802 636.454L355.659 635.938ZM364.221 642.16C360.643 641.331 357.553 639.086 355.659 635.938L354.802 636.454C356.836 639.834 360.153 642.244 363.996 643.134L364.221 642.16ZM367.68 642.961L364.221 642.16L363.996 643.134L367.454 643.935L367.68 642.961ZM383.713 665.045C384.617 654.717 377.78 645.3 367.68 642.961L367.454 643.935C377.069 646.162 383.577 655.126 382.717 664.958L383.713 665.045ZM378.698 676.872C381.575 673.557 383.331 669.418 383.713 665.045L382.717 664.958C382.353 669.12 380.682 673.061 377.943 676.216L378.698 676.872ZM377.443 678.318L378.698 676.872L377.943 676.216L376.688 677.662L377.443 678.318ZM373.242 691.248C372.834 686.547 374.35 681.881 377.443 678.318L376.688 677.662C373.417 681.43 371.814 686.363 372.246 691.334L373.242 691.248ZM374.865 709.953L373.242 691.248L372.246 691.334L373.869 710.039L374.865 709.953ZM363.315 721.495C369.915 722.072 375.438 716.553 374.865 709.953L373.869 710.039C374.388 716.02 369.383 721.022 363.402 720.499L363.315 721.495ZM360.086 720.691C361.113 721.126 362.203 721.397 363.315 721.495L363.402 720.499C362.395 720.41 361.407 720.164 360.476 719.77L360.086 720.691ZM345.32 714.435L360.086 720.691L360.476 719.77L345.711 713.515L345.32 714.435ZM326.68 714.435C332.637 711.912 339.363 711.912 345.32 714.435L345.711 713.515C339.504 710.885 332.496 710.885 326.29 713.515L326.68 714.435ZM323.287 715.873L326.68 714.435L326.29 713.515L322.897 714.952L323.287 715.873ZM314.652 717.237C317.599 717.495 320.564 717.026 323.287 715.873L322.897 714.952C320.324 716.042 317.523 716.485 314.739 716.241L314.652 717.237ZM298.203 697.648C297.339 707.598 304.702 716.367 314.652 717.237L314.739 716.241C305.339 715.419 298.383 707.135 299.199 697.734L298.203 697.648ZM298.87 689.957L298.203 697.648L299.199 697.734L299.867 690.044L298.87 689.957ZM295.406 679.296C297.957 682.234 299.207 686.081 298.87 689.957L299.867 690.044C300.226 685.898 298.889 681.783 296.161 678.64L295.406 679.296ZM295.171 679.026L295.406 679.296L296.161 678.64L295.927 678.37L295.171 679.026ZM289.743 662.297C289.21 668.379 291.17 674.415 295.171 679.025L295.927 678.37C292.102 673.965 290.23 668.196 290.739 662.384L289.743 662.297ZM307.099 642.317C297.598 644.518 290.592 652.582 289.743 662.297L290.739 662.384C291.551 653.101 298.245 645.394 307.324 643.291L307.099 642.317ZM307.754 642.165L307.099 642.317L307.324 643.291L307.98 643.14L307.754 642.165ZM316.355 635.917C314.452 639.078 311.349 641.333 307.754 642.165L307.98 643.14C311.838 642.246 315.169 639.826 317.211 636.432L316.355 635.917ZM334.669 648.058C334.637 648.428 334.311 648.701 333.941 648.669L333.854 649.665C334.774 649.745 335.585 649.065 335.665 648.145L334.669 648.058ZM334.059 647.331C334.428 647.363 334.701 647.689 334.669 648.058L335.665 648.145C335.746 647.226 335.065 646.415 334.146 646.334L334.059 647.331ZM333.331 647.941C333.363 647.572 333.689 647.298 334.059 647.331L334.146 646.334C333.226 646.254 332.415 646.934 332.335 647.854L333.331 647.941ZM333.941 648.669C333.572 648.636 333.299 648.311 333.331 647.941L332.335 647.854C332.254 648.774 332.935 649.584 333.854 649.665L333.941 648.669ZM334.639 640.699C330.607 640.346 327.052 643.329 326.699 647.361L327.696 647.448C328 643.966 331.07 641.391 334.552 641.695L334.639 640.699ZM341.301 648.638C341.653 644.606 338.671 641.052 334.639 640.699L334.552 641.695C338.033 642 340.609 645.069 340.304 648.551L341.301 648.638ZM333.361 655.3C337.393 655.653 340.948 652.67 341.301 648.638L340.304 648.551C340 652.033 336.93 654.609 333.448 654.304L333.361 655.3ZM326.699 647.361C326.347 651.393 329.329 654.947 333.361 655.3L333.448 654.304C329.967 653.999 327.391 650.93 327.696 647.448L326.699 647.361ZM313.885 660.881C308.297 660.392 303.371 664.526 302.882 670.114L303.878 670.202C304.319 665.164 308.76 661.437 313.798 661.878L313.885 660.881ZM323.118 671.885C323.607 666.297 319.473 661.37 313.885 660.881L313.798 661.878C318.836 662.318 322.563 666.76 322.122 671.798L323.118 671.885ZM312.115 681.118C317.703 681.607 322.629 677.473 323.118 671.885L322.122 671.798C321.681 676.836 317.24 680.562 312.202 680.122L312.115 681.118ZM302.882 670.114C302.393 675.703 306.527 680.629 312.115 681.118L312.202 680.122C307.164 679.681 303.437 675.239 303.878 670.202L302.882 670.114ZM311.848 670.899C311.903 670.262 312.464 669.791 313.101 669.847L313.188 668.851C312.001 668.747 310.955 669.625 310.851 670.812L311.848 670.899ZM312.899 672.152C312.263 672.096 311.792 671.535 311.848 670.899L310.851 670.812C310.748 671.998 311.625 673.044 312.812 673.148L312.899 672.152ZM314.152 671.1C314.097 671.737 313.536 672.208 312.899 672.152L312.812 673.148C313.999 673.252 315.045 672.374 315.149 671.188L314.152 671.1ZM313.101 669.847C313.737 669.903 314.208 670.464 314.152 671.1L315.149 671.188C315.252 670.001 314.375 668.955 313.188 668.851L313.101 669.847ZM342.621 676.529C342.881 673.558 345.5 671.361 348.471 671.621L348.558 670.624C345.037 670.316 341.933 672.921 341.625 676.442L342.621 676.529ZM347.529 682.378C344.559 682.119 342.361 679.5 342.621 676.529L341.625 676.442C341.317 679.963 343.921 683.067 347.442 683.375L347.529 682.378ZM353.379 677.47C353.119 680.441 350.5 682.638 347.529 682.378L347.442 683.375C350.963 683.683 354.067 681.078 354.375 677.557L353.379 677.47ZM348.471 671.621C351.441 671.88 353.639 674.499 353.379 677.47L354.375 677.557C354.683 674.036 352.079 670.932 348.558 670.624L348.471 671.621ZM349.255 662.655C341.333 661.962 334.348 667.822 333.655 675.745L334.651 675.832C335.296 668.46 341.796 663.006 349.168 663.651L349.255 662.655ZM362.345 678.255C363.038 670.332 357.177 663.348 349.255 662.655L349.168 663.651C356.54 664.296 361.993 670.795 361.348 678.167L362.345 678.255ZM346.745 691.344C354.667 692.037 361.652 686.177 362.345 678.255L361.348 678.167C360.703 685.54 354.204 690.993 346.832 690.348L346.745 691.344ZM333.655 675.745C332.962 683.667 338.823 690.651 346.745 691.344L346.832 690.348C339.46 689.703 334.006 683.204 334.651 675.832L333.655 675.745Z" fill="currentColor"/>
<path fill-rule="evenodd" clip-rule="evenodd" d="M513.898 629.577C519.655 630.08 524.823 633.308 527.803 638.259C530.326 642.45 534.44 645.44 539.206 646.544L542.664 647.345C550.58 649.178 555.939 656.559 555.231 664.653C554.931 668.08 553.555 671.324 551.3 673.922L550.045 675.368C546.153 679.851 544.245 685.722 544.759 691.637L546.382 710.342C546.713 714.156 543.521 717.345 539.707 717.012C539.065 716.956 538.435 716.799 537.841 716.547L523.076 710.292C515.997 707.293 508.004 707.293 500.924 710.292L497.532 711.729C495.486 712.596 493.258 712.948 491.044 712.754C483.569 712.1 478.037 705.513 478.686 698.037L479.353 690.346C479.795 685.256 478.154 680.204 474.804 676.346L474.57 676.076C471.367 672.387 469.8 667.556 470.225 662.689C470.906 654.915 476.511 648.462 484.114 646.701L484.769 646.549C489.551 645.442 493.679 642.442 496.21 638.237C499.781 632.303 506.421 628.923 513.321 629.526L513.898 629.577ZM523.137 686.861C528.584 687.338 533.385 683.309 533.862 677.862C534.338 672.416 530.309 667.614 524.863 667.138C519.416 666.661 514.615 670.69 514.138 676.137C513.662 681.583 517.691 686.385 523.137 686.861ZM494.635 671.493C494.363 674.605 491.619 676.907 488.507 676.635C485.395 676.363 483.092 673.619 483.365 670.507C483.637 667.394 486.381 665.092 489.493 665.364C492.605 665.637 494.908 668.38 494.635 671.493ZM509.753 650.817C511.31 650.953 512.682 649.802 512.818 648.246C512.954 646.69 511.803 645.318 510.247 645.182C508.69 645.046 507.318 646.197 507.182 647.753C507.046 649.309 508.197 650.681 509.753 650.817Z" fill="currentColor"/>
<path d="M533.862 677.862L531.869 677.688V677.688L533.862 677.862ZM523.137 686.861L523.311 684.869L523.137 686.861ZM514.138 676.137L516.13 676.311V676.311L514.138 676.137ZM488.507 676.635L488.681 674.642L488.507 676.635ZM494.635 671.493L496.628 671.667L494.635 671.493ZM489.493 665.364L489.667 663.372H489.667L489.493 665.364ZM512.818 648.246L510.825 648.072V648.072L512.818 648.246ZM509.753 650.817L509.579 652.81L509.753 650.817ZM510.247 645.182L510.072 647.174L510.247 645.182ZM507.182 647.753L509.175 647.927L507.182 647.753ZM513.321 629.526L513.146 631.519L513.321 629.526ZM474.804 676.346L473.294 677.657L474.804 676.346ZM478.686 698.037L476.693 697.864L478.686 698.037ZM497.532 711.729L496.752 709.888L497.532 711.729ZM523.076 710.292L522.296 712.133L523.076 710.292ZM546.382 710.342L544.39 710.515L546.382 710.342ZM550.045 675.368L548.535 674.057L550.045 675.368ZM551.3 673.922L552.81 675.233L551.3 673.922ZM542.664 647.345L542.213 649.293L542.664 647.345ZM543.116 645.396L539.657 644.595L538.755 648.492L542.213 649.293L543.116 645.396ZM551.555 676.679L552.81 675.233L549.79 672.611L548.535 674.057L551.555 676.679ZM548.375 710.169L546.751 691.464L542.766 691.81L544.39 710.515L548.375 710.169ZM522.296 712.133L537.061 718.389L538.621 714.706L523.856 708.45L522.296 712.133ZM498.312 713.571L501.704 712.133L500.144 708.45L496.752 709.888L498.312 713.571ZM477.361 690.173L476.693 697.864L480.678 698.21L481.346 690.519L477.361 690.173ZM473.059 677.387L473.294 677.657L476.315 675.035L476.08 674.764L473.059 677.387ZM484.318 644.601L483.663 644.753L484.565 648.649L485.221 648.498L484.318 644.601ZM514.073 627.584L513.495 627.534L513.146 631.519L513.724 631.569L514.073 627.584ZM531.869 677.688C531.489 682.034 527.658 685.249 523.311 684.869L522.963 688.854C529.51 689.426 535.281 684.583 535.854 678.037L531.869 677.688ZM524.688 669.13C529.035 669.51 532.25 673.342 531.869 677.688L535.854 678.037C536.427 671.49 531.584 665.718 525.037 665.145L524.688 669.13ZM516.13 676.311C516.511 671.965 520.342 668.75 524.688 669.13L525.037 665.145C518.49 664.572 512.718 669.415 512.146 675.962L516.13 676.311ZM523.311 684.869C518.965 684.489 515.75 680.657 516.13 676.311L512.146 675.962C511.573 682.509 516.416 688.281 522.963 688.854L523.311 684.869ZM488.333 678.627C492.545 678.996 496.259 675.88 496.628 671.667L492.643 671.318C492.467 673.33 490.693 674.819 488.681 674.642L488.333 678.627ZM481.372 670.332C481.004 674.545 484.12 678.259 488.333 678.627L488.681 674.642C486.669 674.466 485.181 672.693 485.357 670.681L481.372 670.332ZM489.667 663.372C485.455 663.003 481.741 666.12 481.372 670.332L485.357 670.681C485.533 668.669 487.307 667.181 489.319 667.357L489.667 663.372ZM496.628 671.667C496.996 667.454 493.88 663.74 489.667 663.372L489.319 667.357C491.331 667.533 492.819 669.306 492.643 671.318L496.628 671.667ZM510.825 648.072C510.785 648.528 510.384 648.865 509.928 648.825L509.579 652.81C512.236 653.042 514.578 651.077 514.81 648.42L510.825 648.072ZM510.072 647.174C510.528 647.214 510.865 647.616 510.825 648.072L514.81 648.42C515.042 645.764 513.077 643.422 510.421 643.19L510.072 647.174ZM509.175 647.927C509.215 647.472 509.616 647.134 510.072 647.174L510.421 643.19C507.764 642.957 505.422 644.922 505.19 647.579L509.175 647.927ZM509.928 648.825C509.472 648.785 509.135 648.383 509.175 647.927L505.19 647.579C504.958 650.235 506.923 652.577 509.579 652.81L509.928 648.825ZM497.924 639.268C501.101 633.989 507.008 630.982 513.146 631.519L513.495 627.534C505.835 626.864 498.462 630.617 494.497 637.206L497.924 639.268ZM485.221 648.498C490.53 647.268 495.114 643.938 497.924 639.268L494.497 637.206C492.245 640.947 488.572 643.616 484.318 644.601L485.221 648.498ZM472.218 662.864C472.822 655.952 477.806 650.215 484.565 648.649L483.663 644.753C475.217 646.709 468.989 653.878 468.233 662.515L472.218 662.864ZM476.08 674.764C473.233 671.485 471.839 667.19 472.218 662.864L468.233 662.515C467.76 667.921 469.502 673.288 473.059 677.387L476.08 674.764ZM481.346 690.519C481.835 684.89 480.019 679.302 476.315 675.035L473.294 677.657C476.288 681.106 477.756 685.623 477.361 690.173L481.346 690.519ZM491.219 710.762C484.843 710.204 480.125 704.586 480.678 698.21L476.693 697.864C475.949 706.44 482.295 713.996 490.87 714.747L491.219 710.762ZM496.752 709.888C495.006 710.627 493.107 710.927 491.219 710.762L490.87 714.747C493.409 714.969 495.965 714.565 498.312 713.571L496.752 709.888ZM523.856 708.45C516.278 705.24 507.722 705.24 500.144 708.45L501.704 712.133C508.285 709.346 515.715 709.346 522.296 712.133L523.856 708.45ZM539.882 715.019C539.448 714.981 539.022 714.876 538.621 714.706L537.061 718.389C537.848 718.722 538.682 718.93 539.533 719.004L539.882 715.019ZM544.39 710.515C544.613 713.091 542.458 715.245 539.882 715.019L539.533 719.004C544.585 719.446 548.813 715.221 548.375 710.169L544.39 710.515ZM548.535 674.057C544.287 678.949 542.206 685.355 542.766 691.81L546.751 691.464C546.285 686.088 548.018 680.753 551.555 676.679L548.535 674.057ZM553.238 664.479C552.975 667.485 551.768 670.332 549.79 672.611L552.81 675.233C555.342 672.317 556.886 668.674 557.223 664.827L553.238 664.479ZM542.213 649.293C549.158 650.901 553.86 657.377 553.238 664.479L557.223 664.827C558.018 655.74 552.002 647.454 543.116 645.396L542.213 649.293ZM529.517 637.227C526.207 631.728 520.467 628.144 514.073 627.584L513.724 631.569C518.843 632.017 523.44 634.887 526.089 639.29L529.517 637.227ZM526.089 639.29C528.891 643.946 533.461 647.266 538.755 648.492L539.657 644.595C535.419 643.614 531.76 640.955 529.517 637.227L526.089 639.29Z" fill="currentColor"/>
<g opacity="0.25">
<path fill-rule="evenodd" clip-rule="evenodd" d="M689.898 629.577C695.655 630.08 700.823 633.308 703.803 638.259C706.326 642.45 710.44 645.44 715.206 646.544L718.664 647.345C726.58 649.178 731.939 656.559 731.231 664.653C730.931 668.08 729.555 671.324 727.3 673.922L726.045 675.368C722.153 679.851 720.245 685.722 720.759 691.637L722.382 710.342C722.713 714.156 719.521 717.345 715.707 717.012C715.065 716.956 714.435 716.799 713.841 716.547L699.076 710.292C691.997 707.293 684.004 707.293 676.924 710.292L673.532 711.729C671.486 712.596 669.258 712.948 667.044 712.754C659.569 712.1 654.037 705.513 654.686 698.037L655.353 690.346C655.795 685.256 654.154 680.204 650.804 676.346L650.57 676.076C647.367 672.387 645.8 667.556 646.225 662.689C646.906 654.915 652.511 648.462 660.114 646.701L660.769 646.549C665.551 645.442 669.679 642.442 672.21 638.237C675.781 632.303 682.421 628.923 689.321 629.526L689.898 629.577ZM699.137 686.861C704.584 687.338 709.385 683.309 709.862 677.862C710.338 672.416 706.309 667.614 700.863 667.138C695.416 666.661 690.615 670.69 690.138 676.137C689.662 681.583 693.691 686.385 699.137 686.861ZM670.635 671.493C670.363 674.605 667.619 676.907 664.507 676.635C661.395 676.363 659.092 673.619 659.365 670.507C659.637 667.394 662.381 665.092 665.493 665.364C668.605 665.637 670.908 668.38 670.635 671.493ZM685.753 650.817C687.31 650.953 688.682 649.802 688.818 648.246C688.954 646.69 687.803 645.318 686.247 645.182C684.69 645.046 683.318 646.197 683.182 647.753C683.046 649.309 684.197 650.681 685.753 650.817Z" fill="currentColor"/>
<path d="M709.862 677.862L707.869 677.688L709.862 677.862ZM699.137 686.861L699.311 684.869L699.137 686.861ZM690.138 676.137L692.13 676.311V676.311L690.138 676.137ZM664.507 676.635L664.681 674.642L664.507 676.635ZM670.635 671.493L672.628 671.667V671.667L670.635 671.493ZM659.365 670.507L657.372 670.332L659.365 670.507ZM688.818 648.246L686.825 648.072V648.072L688.818 648.246ZM685.753 650.817L685.579 652.81L685.753 650.817ZM686.247 645.182L686.072 647.174L686.247 645.182ZM683.182 647.753L685.175 647.927V647.927L683.182 647.753ZM689.321 629.526L689.146 631.519L689.321 629.526ZM673.532 711.729L672.752 709.888L673.532 711.729ZM699.076 710.292L698.296 712.133L699.076 710.292ZM676.924 710.292L676.144 708.45L676.924 710.292ZM713.841 716.547L714.621 714.706L713.841 716.547ZM722.382 710.342L720.39 710.515L722.382 710.342ZM726.045 675.368L724.535 674.057L726.045 675.368ZM720.759 691.637L722.751 691.464L720.759 691.637ZM727.3 673.922L725.79 672.611L727.3 673.922ZM689.898 629.577L690.073 627.584L689.898 629.577ZM719.116 645.396L715.657 644.595L714.755 648.492L718.213 649.293L719.116 645.396ZM727.555 676.679L728.81 675.233L725.79 672.611L724.535 674.057L727.555 676.679ZM724.375 710.169L722.751 691.464L718.766 691.81L720.39 710.515L724.375 710.169ZM698.296 712.133L713.061 718.389L714.621 714.706L699.856 708.45L698.296 712.133ZM674.312 713.571L677.704 712.133L676.144 708.45L672.752 709.888L674.312 713.571ZM653.361 690.173L652.693 697.864L656.678 698.21L657.346 690.519L653.361 690.173ZM649.059 677.387L649.294 677.657L652.315 675.035L652.08 674.764L649.059 677.387ZM660.318 644.601L659.663 644.753L660.565 648.649L661.221 648.498L660.318 644.601ZM690.073 627.584L689.495 627.534L689.146 631.519L689.724 631.569L690.073 627.584ZM707.869 677.688C707.489 682.034 703.658 685.249 699.311 684.869L698.963 688.854C705.51 689.426 711.281 684.583 711.854 678.037L707.869 677.688ZM700.688 669.13C705.035 669.51 708.25 673.342 707.869 677.688L711.854 678.037C712.427 671.49 707.584 665.718 701.037 665.145L700.688 669.13ZM692.13 676.311C692.511 671.965 696.342 668.75 700.688 669.13L701.037 665.145C694.49 664.572 688.718 669.415 688.146 675.962L692.13 676.311ZM699.311 684.869C694.965 684.489 691.75 680.657 692.13 676.311L688.146 675.962C687.573 682.509 692.416 688.281 698.963 688.854L699.311 684.869ZM664.333 678.627C668.545 678.996 672.259 675.88 672.628 671.667L668.643 671.318C668.467 673.33 666.693 674.819 664.681 674.642L664.333 678.627ZM657.372 670.332C657.004 674.545 660.12 678.259 664.333 678.627L664.681 674.642C662.669 674.466 661.181 672.693 661.357 670.681L657.372 670.332ZM665.667 663.372C661.455 663.003 657.741 666.12 657.372 670.332L661.357 670.681C661.533 668.669 663.307 667.181 665.319 667.357L665.667 663.372ZM672.628 671.667C672.996 667.454 669.88 663.74 665.667 663.372L665.319 667.357C667.331 667.533 668.819 669.306 668.643 671.318L672.628 671.667ZM686.825 648.072C686.785 648.528 686.384 648.865 685.928 648.825L685.579 652.81C688.236 653.042 690.578 651.077 690.81 648.42L686.825 648.072ZM686.072 647.174C686.528 647.214 686.865 647.616 686.825 648.072L690.81 648.42C691.042 645.764 689.077 643.422 686.421 643.19L686.072 647.174ZM685.175 647.927C685.215 647.472 685.616 647.134 686.072 647.174L686.421 643.19C683.764 642.957 681.422 644.922 681.19 647.579L685.175 647.927ZM685.928 648.825C685.472 648.785 685.135 648.383 685.175 647.927L681.19 647.579C680.958 650.235 682.923 652.577 685.579 652.81L685.928 648.825ZM673.924 639.268C677.101 633.989 683.008 630.982 689.146 631.519L689.495 627.534C681.835 626.864 674.462 630.617 670.497 637.206L673.924 639.268ZM661.221 648.498C666.53 647.268 671.114 643.938 673.924 639.268L670.497 637.206C668.245 640.947 664.572 643.616 660.318 644.601L661.221 648.498ZM648.218 662.864C648.822 655.952 653.806 650.215 660.565 648.649L659.663 644.753C651.217 646.709 644.989 653.878 644.233 662.515L648.218 662.864ZM652.08 674.764C649.233 671.485 647.839 667.19 648.218 662.864L644.233 662.515C643.76 667.921 645.502 673.288 649.059 677.387L652.08 674.764ZM657.346 690.519C657.835 684.89 656.019 679.302 652.315 675.035L649.294 677.657C652.288 681.106 653.756 685.623 653.361 690.173L657.346 690.519ZM667.219 710.762C660.843 710.204 656.125 704.586 656.678 698.21L652.693 697.864C651.949 706.44 658.295 713.996 666.87 714.747L667.219 710.762ZM672.752 709.888C671.006 710.627 669.107 710.927 667.219 710.762L666.87 714.747C669.409 714.969 671.965 714.565 674.312 713.571L672.752 709.888ZM699.856 708.45C692.278 705.24 683.722 705.24 676.144 708.45L677.704 712.133C684.285 709.346 691.715 709.346 698.296 712.133L699.856 708.45ZM715.882 715.019C715.448 714.981 715.022 714.876 714.621 714.706L713.061 718.389C713.848 718.722 714.682 718.93 715.533 719.004L715.882 715.019ZM720.39 710.515C720.613 713.091 718.458 715.245 715.882 715.019L715.533 719.004C720.585 719.446 724.813 715.221 724.375 710.169L720.39 710.515ZM724.535 674.057C720.287 678.949 718.206 685.355 718.766 691.81L722.751 691.464C722.285 686.088 724.018 680.753 727.555 676.679L724.535 674.057ZM729.238 664.479C728.975 667.485 727.768 670.332 725.79 672.611L728.81 675.233C731.342 672.317 732.886 668.674 733.223 664.827L729.238 664.479ZM718.213 649.293C725.158 650.901 729.86 657.377 729.238 664.479L733.223 664.827C734.018 655.74 728.002 647.454 719.116 645.396L718.213 649.293ZM705.517 637.227C702.207 631.728 696.467 628.144 690.073 627.584L689.724 631.569C694.843 632.017 699.44 634.887 702.089 639.29L705.517 637.227ZM702.089 639.29C704.891 643.946 709.461 647.266 714.755 648.492L715.657 644.595C711.419 643.614 707.76 640.955 705.517 637.227L702.089 639.29Z" fill="currentColor"/>
</g>
<g opacity="0.5">
<path d="M699.137 686.862C704.584 687.338 709.385 683.309 709.862 677.863C710.338 672.416 706.309 667.615 700.863 667.138C695.416 666.662 690.614 670.691 690.138 676.137C689.661 681.584 693.69 686.385 699.137 686.862Z" fill="currentColor"/>
</g>
<g opacity="0.5">
<path d="M664.507 676.635C667.619 676.907 670.363 674.605 670.635 671.493C670.908 668.381 668.605 665.637 665.493 665.365C662.381 665.092 659.637 667.395 659.365 670.507C659.092 673.619 661.395 676.363 664.507 676.635Z" fill="currentColor"/>
</g>
<g opacity="0.5">
<path d="M685.753 650.818C687.31 650.954 688.681 649.803 688.818 648.247C688.954 646.691 687.803 645.319 686.246 645.183C684.69 645.047 683.318 646.198 683.182 647.754C683.046 649.31 684.197 650.682 685.753 650.818Z" fill="currentColor"/>
</g>
<path fill-rule="evenodd" clip-rule="evenodd" d="M865.898 629.577C871.655 630.08 876.823 633.308 879.803 638.259C882.326 642.45 886.44 645.44 891.206 646.544L894.664 647.345C902.58 649.178 907.939 656.559 907.231 664.653C906.931 668.08 905.555 671.324 903.3 673.922L902.045 675.368C898.153 679.851 896.245 685.722 896.759 691.637L898.382 710.342C898.713 714.156 895.521 717.345 891.707 717.012C891.065 716.956 890.435 716.799 889.841 716.547L875.076 710.292C867.997 707.293 860.004 707.293 852.924 710.292L849.532 711.729C847.486 712.596 845.258 712.948 843.044 712.754C835.569 712.1 830.037 705.513 830.686 698.037L831.353 690.346C831.795 685.256 830.154 680.204 826.804 676.346L826.57 676.076C823.367 672.387 821.8 667.556 822.225 662.689C822.906 654.915 828.511 648.462 836.114 646.701L836.769 646.549C841.551 645.442 845.679 642.442 848.21 638.237C851.781 632.303 858.421 628.923 865.321 629.526L865.898 629.577ZM875.137 686.861C880.584 687.338 885.385 683.309 885.862 677.862C886.338 672.416 882.309 667.614 876.863 667.138C871.416 666.661 866.615 670.69 866.138 676.137C865.662 681.583 869.691 686.385 875.137 686.861ZM846.635 671.493C846.363 674.605 843.619 676.907 840.507 676.635C837.395 676.363 835.092 673.619 835.365 670.507C835.637 667.394 838.381 665.092 841.493 665.364C844.605 665.637 846.908 668.38 846.635 671.493ZM861.753 650.817C863.31 650.953 864.682 649.802 864.818 648.246C864.954 646.69 863.803 645.318 862.247 645.182C860.69 645.046 859.318 646.197 859.182 647.753C859.046 649.309 860.197 650.681 861.753 650.817Z" fill="#FFA500"/>
<path d="M885.862 677.862L883.869 677.688L885.862 677.862ZM875.137 686.861L875.311 684.869L875.137 686.861ZM866.138 676.137L868.13 676.311V676.311L866.138 676.137ZM840.507 676.635L840.681 674.642L840.507 676.635ZM846.635 671.493L848.628 671.667V671.667L846.635 671.493ZM835.365 670.507L833.372 670.332L835.365 670.507ZM864.818 648.246L862.825 648.072V648.072L864.818 648.246ZM861.753 650.817L861.579 652.81L861.753 650.817ZM862.247 645.182L862.072 647.174L862.247 645.182ZM859.182 647.753L861.175 647.927V647.927L859.182 647.753ZM865.321 629.526L865.146 631.519L865.321 629.526ZM849.532 711.729L848.752 709.888L849.532 711.729ZM875.076 710.292L874.296 712.133L875.076 710.292ZM852.924 710.292L852.144 708.45L852.924 710.292ZM889.841 716.547L890.621 714.706L889.841 716.547ZM898.382 710.342L896.39 710.515L898.382 710.342ZM902.045 675.368L900.535 674.057L902.045 675.368ZM896.759 691.637L898.751 691.464L896.759 691.637ZM903.3 673.922L901.79 672.611L903.3 673.922ZM865.898 629.577L866.073 627.584L865.898 629.577ZM895.116 645.396L891.657 644.595L890.755 648.492L894.213 649.293L895.116 645.396ZM903.555 676.679L904.81 675.233L901.79 672.611L900.535 674.057L903.555 676.679ZM900.375 710.169L898.751 691.464L894.766 691.81L896.39 710.515L900.375 710.169ZM874.296 712.133L889.061 718.389L890.621 714.706L875.856 708.45L874.296 712.133ZM850.312 713.571L853.704 712.133L852.144 708.45L848.752 709.888L850.312 713.571ZM829.361 690.173L828.693 697.864L832.678 698.21L833.346 690.519L829.361 690.173ZM825.059 677.387L825.294 677.657L828.315 675.035L828.08 674.764L825.059 677.387ZM836.318 644.601L835.663 644.753L836.565 648.649L837.221 648.498L836.318 644.601ZM866.073 627.584L865.495 627.534L865.146 631.519L865.724 631.569L866.073 627.584ZM883.869 677.688C883.489 682.034 879.658 685.249 875.311 684.869L874.963 688.854C881.51 689.426 887.281 684.583 887.854 678.037L883.869 677.688ZM876.688 669.13C881.035 669.51 884.25 673.342 883.869 677.688L887.854 678.037C888.427 671.49 883.584 665.718 877.037 665.145L876.688 669.13ZM868.13 676.311C868.511 671.965 872.342 668.75 876.688 669.13L877.037 665.145C870.49 664.572 864.718 669.415 864.146 675.962L868.13 676.311ZM875.311 684.869C870.965 684.489 867.75 680.657 868.13 676.311L864.146 675.962C863.573 682.509 868.416 688.281 874.963 688.854L875.311 684.869ZM840.333 678.627C844.545 678.996 848.259 675.88 848.628 671.667L844.643 671.318C844.467 673.33 842.693 674.819 840.681 674.642L840.333 678.627ZM833.372 670.332C833.004 674.545 836.12 678.259 840.333 678.627L840.681 674.642C838.669 674.466 837.181 672.693 837.357 670.681L833.372 670.332ZM841.667 663.372C837.455 663.003 833.741 666.12 833.372 670.332L837.357 670.681C837.533 668.669 839.307 667.181 841.319 667.357L841.667 663.372ZM848.628 671.667C848.996 667.454 845.88 663.74 841.667 663.372L841.319 667.357C843.331 667.533 844.819 669.306 844.643 671.318L848.628 671.667ZM862.825 648.072C862.785 648.528 862.384 648.865 861.928 648.825L861.579 652.81C864.236 653.042 866.578 651.077 866.81 648.42L862.825 648.072ZM862.072 647.174C862.528 647.214 862.865 647.616 862.825 648.072L866.81 648.42C867.042 645.764 865.077 643.422 862.421 643.19L862.072 647.174ZM861.175 647.927C861.215 647.472 861.616 647.134 862.072 647.174L862.421 643.19C859.764 642.957 857.422 644.922 857.19 647.579L861.175 647.927ZM861.928 648.825C861.472 648.785 861.135 648.383 861.175 647.927L857.19 647.579C856.958 650.235 858.923 652.577 861.579 652.81L861.928 648.825ZM849.924 639.268C853.101 633.989 859.008 630.982 865.146 631.519L865.495 627.534C857.835 626.864 850.462 630.617 846.497 637.206L849.924 639.268ZM837.221 648.498C842.53 647.268 847.114 643.938 849.924 639.268L846.497 637.206C844.245 640.947 840.572 643.616 836.318 644.601L837.221 648.498ZM824.218 662.864C824.822 655.952 829.806 650.215 836.565 648.649L835.663 644.753C827.217 646.709 820.989 653.878 820.233 662.515L824.218 662.864ZM828.08 674.764C825.233 671.485 823.839 667.19 824.218 662.864L820.233 662.515C819.76 667.921 821.502 673.288 825.059 677.387L828.08 674.764ZM833.346 690.519C833.835 684.89 832.019 679.302 828.315 675.035L825.294 677.657C828.288 681.106 829.756 685.623 829.361 690.173L833.346 690.519ZM843.219 710.762C836.843 710.204 832.125 704.586 832.678 698.21L828.693 697.864C827.949 706.44 834.295 713.996 842.87 714.747L843.219 710.762ZM848.752 709.888C847.006 710.627 845.107 710.927 843.219 710.762L842.87 714.747C845.409 714.969 847.965 714.565 850.312 713.571L848.752 709.888ZM875.856 708.45C868.278 705.24 859.722 705.24 852.144 708.45L853.704 712.133C860.285 709.346 867.715 709.346 874.296 712.133L875.856 708.45ZM891.882 715.019C891.448 714.981 891.022 714.876 890.621 714.706L889.061 718.389C889.848 718.722 890.682 718.93 891.533 719.004L891.882 715.019ZM896.39 710.515C896.613 713.091 894.458 715.245 891.882 715.019L891.533 719.004C896.585 719.446 900.813 715.221 900.375 710.169L896.39 710.515ZM900.535 674.057C896.287 678.949 894.206 685.355 894.766 691.81L898.751 691.464C898.285 686.088 900.018 680.753 903.555 676.679L900.535 674.057ZM905.238 664.479C904.975 667.485 903.768 670.332 901.79 672.611L904.81 675.233C907.342 672.317 908.886 668.674 909.223 664.827L905.238 664.479ZM894.213 649.293C901.158 650.901 905.86 657.377 905.238 664.479L909.223 664.827C910.018 655.74 904.002 647.454 895.116 645.396L894.213 649.293ZM881.517 637.227C878.207 631.728 872.467 628.144 866.073 627.584L865.724 631.569C870.843 632.017 875.44 634.887 878.089 639.29L881.517 637.227ZM878.089 639.29C880.891 643.946 885.461 647.266 890.755 648.492L891.657 644.595C887.419 643.614 883.76 640.955 881.517 637.227L878.089 639.29Z" fill="#FFA500"/>
<path d="M875.137 686.862C880.584 687.338 885.385 683.309 885.862 677.863C886.338 672.416 882.309 667.615 876.863 667.138C871.416 666.662 866.614 670.691 866.138 676.137C865.661 681.584 869.69 686.385 875.137 686.862Z" fill="#DC143C"/>
<path d="M840.507 676.635C843.619 676.907 846.363 674.605 846.635 671.493C846.908 668.381 844.605 665.637 841.493 665.365C838.381 665.092 835.637 667.395 835.365 670.507C835.092 673.619 837.395 676.363 840.507 676.635Z" fill="#DC143C"/>
<path d="M861.753 650.818C863.31 650.954 864.681 649.803 864.818 648.247C864.954 646.691 863.803 645.319 862.246 645.183C860.69 645.047 859.318 646.198 859.182 647.754C859.046 649.31 860.197 650.682 861.753 650.818Z" fill="#DC143C"/>
</svg>
