<svg viewBox="0 0 80 80" fill="none">
  <mask id="mask0cori" mask-type="alpha" maskUnits="userSpaceOnUse" x="0" y="0" width="80" height="80">
    <circle cx="40" cy="40" r="40" fill="#C4C4C4" />
  </mask>
  <g mask="url(#mask0cori)">
    <g clip-path="url(#clip0cori)">
      <path d="M80 0H0V80H80V0Z" fill="#EB5757" />
      <path d="M19.9991 0H-20V80H19.9991V0Z" fill="#333333" />
      <path d="M100 0H60.001V80H100V0Z" fill="#219653" />
      <path opacity="0.75" d="M52 19.2154C56.5754 21.857 60.1513 25.9345 62.1731 30.8156C64.1949 35.6967 64.5496 41.1085 63.1822 46.2117C61.8148 51.3149 58.8017 55.8243 54.6103 59.0405C50.4188 62.2567 45.2832 64 40 64C34.7168 64 29.5812 62.2567 25.3897 59.0405C21.1983 55.8243 18.1852 51.3149 16.8178 46.2117C15.4504 41.1085 15.8051 35.6967 17.8269 30.8156C19.8487 25.9345 23.4246 21.857 28 19.2154" stroke="#F2F2F2" stroke-width="8" />
      <circle opacity="0.75" cx="40" cy="40" r="10" fill="#F2F2F2" />
    </g>
  </g>
  <defs>
    <clipPath id="clip0cori">
      <rect width="80" height="80" fill="white" />
    </clipPath>
  </defs>
</svg>