<svg width="80" height="80" viewBox="0 0 80 80" fill="none" xmlns="http://www.w3.org/2000/svg">
  <mask id="mask0" mask-type="alpha" maskUnits="userSpaceOnUse" x="0" y="0" width="80" height="80">
    <circle cx="40" cy="40" r="40" fill="#C4C4C4" />
  </mask>
  <g mask="url(#mask0)">
    <g clip-path="url(#clip0)">
      <rect width="80" height="80" fill="#2F80ED" />
      <g clip-path="url(#clip1)">
        <rect x="-20" width="60" height="40" fill="#2F80ED" />
        <path d="M-20 0L40 40M40 0L-20 40" stroke="#F2F2F2" stroke-width="8" />
        <path d="M-20 0L40 40M40 0L-20 40" stroke="#EB5757" stroke-width="3" />
        <path d="M10 40V0M-20 20H40" stroke="#F2F2F2" stroke-width="12" />
        <path d="M10 40V0M-20 20H40" stroke="#EB5757" stroke-width="7" />
      </g>
      <path d="M10 51L11.8223 57.2159L17.8183 54.7651L14.0947 60.0654L19.7493 63.2252L13.2837 63.6187L14.3388 70.0097L10 65.2L5.66116 70.0097L6.71631 63.6187L0.250721 63.2252L5.9053 60.0654L2.18168 54.7651L8.17769 57.2159L10 51Z" fill="#F2F2F2" />
      <path d="M73 9L73.9112 12.108L76.9092 10.8826L75.0473 13.5327L77.8746 15.1126L74.6418 15.3093L75.1694 18.5048L73 16.1L70.8306 18.5048L71.3582 15.3093L68.1254 15.1126L70.9527 13.5327L69.0908 10.8826L72.0888 12.108L73 9Z" fill="#F2F2F2" />
      <path d="M80 38L80.5467 39.8648L82.3455 39.1295L81.2284 40.7196L82.9248 41.6676L80.9851 41.7856L81.3017 43.7029L80 42.26L78.6983 43.7029L79.0149 41.7856L77.0752 41.6676L78.7716 40.7196L77.6545 39.1295L79.4533 39.8648L80 38Z" fill="#F2F2F2" />
      <path d="M56 29L56.9112 32.108L59.9092 30.8826L58.0473 33.5327L60.8746 35.1126L57.6418 35.3093L58.1694 38.5048L56 36.1L53.8306 38.5048L54.3582 35.3093L51.1254 35.1126L53.9527 33.5327L52.0908 30.8826L55.0888 32.108L56 29Z" fill="#F2F2F2" />
      <path d="M74 61L74.9112 64.108L77.9092 62.8826L76.0473 65.5327L78.8746 67.1126L75.6418 67.3093L76.1694 70.5048L74 68.1L71.8306 70.5048L72.3582 67.3093L69.1254 67.1126L71.9527 65.5327L70.0908 62.8826L73.0888 64.108L74 61Z" fill="#F2F2F2" />
    </g>
  </g>
  <defs>
    <clipPath id="clip0">
      <rect width="80" height="80" fill="white" />
    </clipPath>
    <clipPath id="clip1">
      <rect width="60" height="40" fill="white" transform="translate(-20)" />
    </clipPath>
  </defs>
</svg>