<svg width="80" height="80" viewBox="0 0 80 80" fill="none" xmlns="http://www.w3.org/2000/svg">
  <mask id="mask0" mask-type="alpha" maskUnits="userSpaceOnUse" x="0" y="0" width="80" height="80">
    <circle cx="40" cy="40" r="40" fill="#C4C4C4" />
  </mask>
  <g mask="url(#mask0)">
    <g clip-path="url(#clip0)">
      <path d="M80 0H0V80H80V0Z" fill="#219653" />
      <path d="M0 0H80L40 40L0 0Z" fill="#EB5757" />
      <path d="M0 80H80L40 40L0 80Z" fill="#EB5757" />
      <path d="M80 0L0 80M0 0L80 80" stroke="#F2F2F2" stroke-width="12" />
      <circle cx="39.5" cy="40" r="22" fill="#F2F2F2" />
      <path d="M39.5 25.0468L40.7407 27.329L40.8869 27.5978L41.1928 27.59L43.7896 27.5234L42.4335 29.739L42.2738 30L42.4335 30.261L43.7896 32.4766L41.1928 32.41L40.8869 32.4022L40.7407 32.671L39.5 34.9532L38.2593 32.671L38.1131 32.4022L37.8072 32.41L35.2104 32.4766L36.5665 30.261L36.7262 30L36.5665 29.739L35.2104 27.5234L37.8072 27.59L38.1131 27.5978L38.2593 27.329L39.5 25.0468Z" fill="#EB5757" stroke="#F2C94C" />
      <path d="M28.5 40.0468L29.7407 42.329L29.8869 42.5978L30.1928 42.59L32.7896 42.5234L31.4335 44.739L31.2738 45L31.4335 45.261L32.7896 47.4766L30.1928 47.41L29.8869 47.4022L29.7407 47.671L28.5 49.9532L27.2593 47.671L27.1131 47.4022L26.8072 47.41L24.2104 47.4766L25.5665 45.261L25.7262 45L25.5665 44.739L24.2104 42.5234L26.8072 42.59L27.1131 42.5978L27.2593 42.329L28.5 40.0468Z" fill="#EB5757" stroke="#F2C94C" />
      <path d="M50.5 40.0468L51.7407 42.329L51.8869 42.5978L52.1928 42.59L54.7896 42.5234L53.4335 44.739L53.2738 45L53.4335 45.261L54.7896 47.4766L52.1928 47.41L51.8869 47.4022L51.7407 47.671L50.5 49.9532L49.2593 47.671L49.1131 47.4022L48.8072 47.41L46.2104 47.4766L47.5665 45.261L47.7262 45L47.5665 44.739L46.2104 42.5234L48.8072 42.59L49.1131 42.5978L49.2593 42.329L50.5 40.0468Z" fill="#EB5757" stroke="#F2C94C" />
    </g>
  </g>
  <defs>
    <clipPath id="clip0">
      <rect width="80" height="80" fill="white" />
    </clipPath>
  </defs>
</svg>