<svg width="80" height="80" viewBox="0 0 80 80" fill="none" xmlns="http://www.w3.org/2000/svg">
  <mask id="mask0" mask-type="alpha" maskUnits="userSpaceOnUse" x="0" y="0" width="80" height="80">
    <circle cx="40" cy="40" r="40" fill="#C4C4C4" />
  </mask>
  <g mask="url(#mask0)">
    <g clip-path="url(#clip0)">
      <rect width="80" height="80" fill="#56CCF2" />
      <g clip-path="url(#clip1)">
        <rect x="-20" width="60" height="40" fill="#2F80ED" />
        <path d="M-20 0L40 40M40 0L-20 40" stroke="#F2F2F2" stroke-width="8" />
        <path d="M-20 0L40 40M40 0L-20 40" stroke="#EB5757" stroke-width="3" />
        <path d="M10 40V0M-20 20H40" stroke="#F2F2F2" stroke-width="12" />
        <path d="M10 40V0M-20 20H40" stroke="#EB5757" stroke-width="7" />
      </g>
      <path d="M57 28H83V44.2718C83 51.7223 77.8575 58.1867 70.5978 59.8621L70 60L69.4022 59.8621C62.1425 58.1867 57 51.7223 57 44.2718V28Z" fill="#F2F2F2" />
      <path fill-rule="evenodd" clip-rule="evenodd" d="M57 44V44.2718C57 45.55 57.1513 46.7991 57.4388 48H68V59.471C68.4577 59.6213 68.9254 59.752 69.4022 59.8621L70 60L70.5978 59.8621C71.0746 59.752 71.5423 59.6213 72 59.471V48H82.5612C82.8487 46.7991 83 45.55 83 44.2718V44H72V28H68V44H57Z" fill="#EB5757" />
      <path d="M57 28H83V34H57V28Z" fill="#EB5757" />
      <path d="M57 27.5H56.5V28V44.2718C56.5 51.9551 61.8033 58.6216 69.2898 60.3493L69.8876 60.4872L70 60.5131L70.1124 60.4872L70.7102 60.3493C78.1967 58.6216 83.5 51.9551 83.5 44.2718V28V27.5H83H57Z" stroke="#4F4F4F" />
    </g>
  </g>
  <defs>
    <clipPath id="clip0">
      <rect width="80" height="80" fill="white" />
    </clipPath>
    <clipPath id="clip1">
      <rect width="60" height="40" fill="white" transform="translate(-20)" />
    </clipPath>
  </defs>
</svg>