<svg width="80" height="80" viewBox="0 0 80 80" fill="none" xmlns="http://www.w3.org/2000/svg">
<mask id="mask0" mask-type="alpha" maskUnits="userSpaceOnUse" x="0" y="0" width="80" height="80">
<circle cx="40" cy="40" r="40" fill="#C4C4C4"/>
</mask>
<g mask="url(#mask0)">
<g clip-path="url(#clip0)">
<path d="M80 0H0V80H80V0Z" fill="#56CCF2"/>
<path d="M80 0V39.0281L0 40V0H80Z" fill="#F2F2F2"/>
<mask id="path-5-outside-1" maskUnits="userSpaceOnUse" x="20" y="28" width="40" height="36" fill="black">
<rect fill="white" x="20" y="28" width="40" height="36"/>
<path d="M51.5911 38.3765C52.0675 40.4508 52.1285 42.6251 51.7694 44.7313C51.4103 46.8374 50.6408 48.819 49.5202 50.5227C48.3997 52.2263 46.9583 53.6064 45.3075 54.5562C43.6566 55.506 41.8406 56 40 56C38.1593 56 36.3434 55.506 34.6925 54.5562C33.0417 53.6064 31.6003 52.2263 30.4798 50.5227C29.3592 48.819 28.5897 46.8374 28.2306 44.7313C27.8715 42.6251 27.9325 40.4508 28.4089 38.3765L40 42L51.5911 38.3765Z"/>
</mask>
<path d="M51.5911 38.3765C52.0675 40.4508 52.1285 42.6251 51.7694 44.7313C51.4103 46.8374 50.6408 48.819 49.5202 50.5227C48.3997 52.2263 46.9583 53.6064 45.3075 54.5562C43.6566 55.506 41.8406 56 40 56C38.1593 56 36.3434 55.506 34.6925 54.5562C33.0417 53.6064 31.6003 52.2263 30.4798 50.5227C29.3592 48.819 28.5897 46.8374 28.2306 44.7313C27.8715 42.6251 27.9325 40.4508 28.4089 38.3765L40 42L51.5911 38.3765Z" stroke="#219653" stroke-width="16" mask="url(#path-5-outside-1)"/>
<ellipse cx="40" cy="42" rx="12" ry="14" fill="#56CCF2"/>
<mask id="path-7-inside-2" fill="white">
<path fill-rule="evenodd" clip-rule="evenodd" d="M49.1053 29.1408C52.4489 32.229 54.5 36.9519 54.5 42C54.5 50.7373 48.3558 58.5 40 58.5C31.6442 58.5 25.5 50.7373 25.5 42C25.5 36.9519 27.5511 32.229 30.8947 29.1408C30.3307 28.3637 30 27.4189 30 26.4C30 23.749 32.2386 21.6 35 21.6C36.3627 21.6 37.5981 22.1234 38.5 22.9721V20.7H36.6667V17.7L38.5 17.7V16H41.5V17.7L43.3333 17.7V20.7H41.5V22.9721C42.4019 22.1234 43.6373 21.6 45 21.6C47.7614 21.6 50 23.749 50 26.4C50 27.4189 49.6693 28.3637 49.1053 29.1408ZM44.6599 32C47.4646 33.916 49.5 37.5259 49.5 42C49.5 48.7267 44.899 53.5 40 53.5C35.101 53.5 30.5 48.7267 30.5 42C30.5 37.5259 32.5354 33.916 35.3401 32H44.6599Z"/>
</mask>
<path fill-rule="evenodd" clip-rule="evenodd" d="M49.1053 29.1408C52.4489 32.229 54.5 36.9519 54.5 42C54.5 50.7373 48.3558 58.5 40 58.5C31.6442 58.5 25.5 50.7373 25.5 42C25.5 36.9519 27.5511 32.229 30.8947 29.1408C30.3307 28.3637 30 27.4189 30 26.4C30 23.749 32.2386 21.6 35 21.6C36.3627 21.6 37.5981 22.1234 38.5 22.9721V20.7H36.6667V17.7L38.5 17.7V16H41.5V17.7L43.3333 17.7V20.7H41.5V22.9721C42.4019 22.1234 43.6373 21.6 45 21.6C47.7614 21.6 50 23.749 50 26.4C50 27.4189 49.6693 28.3637 49.1053 29.1408ZM44.6599 32C47.4646 33.916 49.5 37.5259 49.5 42C49.5 48.7267 44.899 53.5 40 53.5C35.101 53.5 30.5 48.7267 30.5 42C30.5 37.5259 32.5354 33.916 35.3401 32H44.6599Z" fill="#F2994A"/>
<path d="M49.1053 29.1408L46.6774 27.3786L45.1116 29.536L47.0698 31.3446L49.1053 29.1408ZM30.8947 29.1408L32.9302 31.3446L34.8884 29.536L33.3226 27.3786L30.8947 29.1408ZM38.5 22.9721L36.444 25.1568L41.5 29.915V22.9721H38.5ZM38.5 20.7H41.5V17.7H38.5V20.7ZM36.6667 20.7H33.6667V23.7H36.6667V20.7ZM36.6667 17.7V14.7L33.6667 14.7V17.7H36.6667ZM38.5 17.7V20.7H41.5V17.7H38.5ZM38.5 16V13H35.5V16H38.5ZM41.5 16H44.5V13H41.5V16ZM41.5 17.7H38.5V20.7H41.5V17.7ZM43.3333 17.7H46.3333V14.7L43.3333 14.7V17.7ZM43.3333 20.7V23.7H46.3333V20.7H43.3333ZM41.5 20.7V17.7H38.5V20.7H41.5ZM41.5 22.9721H38.5V29.915L43.556 25.1568L41.5 22.9721ZM44.6599 32L46.3522 29.5229L45.5868 29H44.6599V32ZM35.3401 32V29H34.4132L33.6478 29.5229L35.3401 32ZM57.5 42C57.5 36.1678 55.1371 30.628 51.1408 26.937L47.0698 31.3446C49.7608 33.83 51.5 37.7359 51.5 42H57.5ZM40 61.5C50.4487 61.5 57.5 51.9215 57.5 42H51.5C51.5 49.553 46.2629 55.5 40 55.5V61.5ZM22.5 42C22.5 51.9215 29.5513 61.5 40 61.5V55.5C33.7371 55.5 28.5 49.553 28.5 42H22.5ZM28.8592 26.937C24.8629 30.628 22.5 36.1678 22.5 42H28.5C28.5 37.7359 30.2392 33.83 32.9302 31.3446L28.8592 26.937ZM27 26.4C27 28.0814 27.5486 29.6379 28.4667 30.9029L33.3226 27.3786C33.1128 27.0895 33 26.7564 33 26.4H27ZM35 18.6C30.6983 18.6 27 21.9779 27 26.4H33C33 25.5201 33.7788 24.6 35 24.6V18.6ZM40.556 20.7874C39.1078 19.4245 37.1407 18.6 35 18.6V24.6C35.5848 24.6 36.0885 24.8222 36.444 25.1568L40.556 20.7874ZM35.5 20.7V22.9721H41.5V20.7H35.5ZM36.6667 23.7H38.5V17.7H36.6667V23.7ZM33.6667 17.7V20.7H39.6667V17.7H33.6667ZM38.5 14.7L36.6667 14.7V20.7H38.5V14.7ZM35.5 16V17.7H41.5V16H35.5ZM41.5 13H38.5V19H41.5V13ZM44.5 17.7V16H38.5V17.7H44.5ZM43.3333 14.7L41.5 14.7V20.7H43.3333V14.7ZM46.3333 20.7V17.7H40.3333V20.7H46.3333ZM41.5 23.7H43.3333V17.7H41.5V23.7ZM44.5 22.9721V20.7H38.5V22.9721H44.5ZM45 18.6C42.8594 18.6 40.8922 19.4245 39.444 20.7874L43.556 25.1568C43.9115 24.8222 44.4152 24.6 45 24.6V18.6ZM53 26.4C53 21.9779 49.3017 18.6 45 18.6V24.6C46.2212 24.6 47 25.5201 47 26.4H53ZM51.5333 30.9029C52.4514 29.6379 53 28.0814 53 26.4H47C47 26.7564 46.8872 27.0895 46.6774 27.3786L51.5333 30.9029ZM52.5 42C52.5 36.6175 50.0411 32.0429 46.3522 29.5229L42.9676 34.4771C44.8881 35.7891 46.5 38.4344 46.5 42H52.5ZM40 56.5C46.945 56.5 52.5 49.9656 52.5 42H46.5C46.5 47.4878 42.8531 50.5 40 50.5V56.5ZM27.5 42C27.5 49.9656 33.055 56.5 40 56.5V50.5C37.1469 50.5 33.5 47.4878 33.5 42H27.5ZM33.6478 29.5229C29.9589 32.0429 27.5 36.6175 27.5 42H33.5C33.5 38.4344 35.1119 35.7891 37.0324 34.4771L33.6478 29.5229ZM35.3401 35H44.6599V29H35.3401V35Z" fill="#F2994A" mask="url(#path-7-inside-2)"/>
<rect x="31" y="55" width="18" height="6" fill="#F2F2F2"/>
<rect x="24" y="59" width="10" height="4" fill="#F2F2F2"/>
<rect x="46" y="59" width="10" height="4" fill="#F2F2F2"/>
</g>
</g>
<defs>
<clipPath id="clip0">
<rect width="80" height="80" fill="white"/>
</clipPath>
</defs>
</svg>
