<svg viewBox="0 0 80 80" fill="none">
  <mask id="mask0qoyB" mask-type="alpha" maskUnits="userSpaceOnUse" x="0" y="0" width="80" height="80">
    <circle cx="40" cy="40" r="40" fill="#C4C4C4" />
  </mask>
  <g mask="url(#mask0qoyB)">
    <g clip-path="url(#clip0qoyB)">
      <path d="M80 0H0V80H80V0Z" fill="#F2F2F2" />
      <path d="M80 0H0V26.6667H80V0Z" fill="#EB5757" />
      <path opacity="0.9" d="M80 53.3333H0V80H80V53.3333Z" fill="#219653" />
      <path fill-rule="evenodd" clip-rule="evenodd" d="M29 40C29 40.5382 28.581 41.0007 28.0428 41.0005L27.958 41.0005C27.4389 41.0004 27.0034 40.6002 27.0002 40.0811C27.0001 40.0541 27 40.0271 27 40C27 39.9729 27.0001 39.9459 27.0002 39.9189C27.0034 39.3998 27.4389 38.9996 27.958 38.9995L28.0428 38.9995C28.581 38.9993 29 39.4618 29 40ZM53 40C53 39.9729 52.9999 39.9459 52.9998 39.9189C52.9966 39.3998 52.5611 38.9996 52.042 38.9995L51.9572 38.9995C51.419 38.9993 51 39.4618 51 40C51 40.5382 51.419 41.0007 51.9572 41.0005L52.042 41.0005C52.5611 41.0004 52.9966 40.6002 52.9998 40.0811C52.9999 40.0541 53 40.0271 53 40ZM50.9312 34.8442C51.3806 34.5845 51.5578 34.0203 51.3007 33.5695C51.2736 33.5219 51.2461 33.4744 51.2184 33.4272C50.9559 32.9802 50.3795 32.8523 49.9305 33.1113L49.8559 33.1544C49.3896 33.4234 49.2574 34.0317 49.527 34.4976C49.7964 34.963 50.391 35.1563 50.8566 34.8873L50.9312 34.8442ZM46.8887 30.0695C47.1477 29.6205 47.0198 29.0441 46.5728 28.7816C46.5256 28.7539 46.4781 28.7264 46.4305 28.6993C45.9797 28.4422 45.4155 28.6194 45.1558 29.0688L45.1127 29.1434C44.8437 29.609 45.037 30.2036 45.5024 30.473C45.9683 30.7426 46.5766 30.6104 46.8456 30.1441L46.8887 30.0695ZM40 27C39.9729 27 39.9459 27.0001 39.9189 27.0002C39.3998 27.0034 38.9996 27.4389 38.9995 27.958L38.9995 28.0428C38.9993 28.581 39.4618 29 40 29C40.5382 29 41.0007 28.581 41.0005 28.0428L41.0005 27.958C41.0004 27.4389 40.6002 27.0034 40.0811 27.0002C40.0541 27.0001 40.0271 27 40 27ZM30.0695 33.1113C29.6205 32.8523 29.0441 32.9802 28.7816 33.4272C28.7539 33.4744 28.7264 33.5219 28.6993 33.5695C28.4422 34.0203 28.6194 34.5845 29.0688 34.8442L29.1434 34.8873C29.609 35.1563 30.2036 34.963 30.473 34.4976C30.7426 34.0317 30.6104 33.4234 30.1441 33.1544L30.0695 33.1113ZM34.4976 30.473C34.0317 30.7426 33.4234 30.6104 33.1544 30.1441L33.1113 30.0695C32.8523 29.6205 32.9802 29.0441 33.4272 28.7816C33.4744 28.7539 33.5219 28.7264 33.5695 28.6993C34.0203 28.4422 34.5845 28.6194 34.8442 29.0688L34.8873 29.1434C35.1563 29.609 34.963 30.2036 34.4976 30.473Z" fill="#F2C94C" />
      <path d="M31.7427 48.7075L31.0545 49.433L31.4188 49.7786L31.9136 49.6928L31.7427 48.7075ZM28.4854 43.3899L28.2463 42.4189L27.2311 42.6689L27.5259 43.6719L28.4854 43.3899ZM51.5143 43.3899L52.4737 43.6719L52.7686 42.6689L51.7534 42.4189L51.5143 43.3899ZM48.2569 48.7075L48.0861 49.6928L48.5808 49.7786L48.9451 49.433L48.2569 48.7075ZM32.4309 47.982C31.0423 46.6647 29.9981 44.9904 29.4448 43.1079L27.5259 43.6719C28.181 45.9004 29.4159 47.8786 31.0545 49.433L32.4309 47.982ZM39.9998 41C35.9495 41 32.0127 41.4916 28.2463 42.4189L28.7244 44.3609C32.3356 43.4718 36.1119 43 39.9998 43V41ZM51.7534 42.4189C47.987 41.4916 44.0501 41 39.9998 41V43C43.8877 43 47.6641 43.4718 51.2752 44.3609L51.7534 42.4189ZM50.5549 43.1079C50.0016 44.9904 48.9574 46.6647 47.5687 47.982L48.9451 49.433C50.5838 47.8786 51.8187 45.9004 52.4737 43.6719L50.5549 43.1079ZM39.9998 49C42.7579 49 45.4597 49.2374 48.0861 49.6928L48.4278 47.7222C45.689 47.2473 42.8729 47 39.9998 47V49ZM31.9136 49.6928C34.54 49.2374 37.2418 49 39.9998 49V47C37.1268 47 34.3107 47.2473 31.5719 47.7222L31.9136 49.6928Z" fill="#F2C94C" />
      <path d="M40 34L40 42" stroke="#F2C94C" stroke-width="2" stroke-linecap="round" />
    </g>
  </g>
  <defs>
    <clipPath id="clip0qoyB">
      <rect width="80" height="80" fill="white" />
    </clipPath>
  </defs>
</svg>