<svg width="80" height="80" viewBox="0 0 80 80" fill="none" xmlns="http://www.w3.org/2000/svg">
  <mask id="mask0" mask-type="alpha" maskUnits="userSpaceOnUse" x="0" y="0" width="80" height="80">
    <circle cx="40" cy="40" r="40" fill="#C4C4C4" />
  </mask>
  <g mask="url(#mask0)">
    <g clip-path="url(#clip0)">
      <path d="M100 0H-20V80H100V0Z" fill="#EB5757" />
      <circle cx="40" cy="40" r="24" fill="#F2F2F2" />
      <path fill-rule="evenodd" clip-rule="evenodd" d="M50.5691 26.8491C48.6666 25.9385 46.5358 25.4286 44.2859 25.4286C36.2383 25.4286 29.7144 31.9525 29.7144 40C29.7144 48.0476 36.2383 54.5715 44.2859 54.5715C46.5358 54.5715 48.6666 54.0615 50.5691 53.1509C47.5925 55.6428 43.7572 57.1429 39.5716 57.1429C30.1038 57.1429 22.4287 49.4678 22.4287 40C22.4287 30.5323 30.1038 22.8572 39.5716 22.8572C43.7572 22.8572 47.5925 24.3573 50.5691 26.8491Z" fill="#EB5757" />
      <path d="M41.2856 31.0923L46.837 36.1128L53.311 32.3562L50.2516 39.1873L55.8249 44.1835L48.3828 43.3849L45.3533 50.2293L43.8131 42.9046L36.3675 42.1385L42.8578 38.4102L41.2856 31.0923Z" fill="#EB5757" />
    </g>
  </g>
  <defs>
    <clipPath id="clip0">
      <rect width="80" height="80" fill="white" />
    </clipPath>
  </defs>
</svg>