<svg viewBox="0 0 80 80" fill="none">
  <path d="M37 67.4167C37 69.0735 38.3431 70.4167 40 70.4167C41.6569 70.4167 43 69.0735 43 67.4167H37ZM43 59.7494C43 58.0925 41.6569 56.7494 40 56.7494C38.3431 56.7494 37 58.0925 37 59.7494H43ZM37 45.7494C37 47.4062 38.3431 48.7494 40 48.7494C41.6569 48.7494 43 47.4062 43 45.7494H37ZM43 33.0834C43 31.4265 41.6569 30.0834 40 30.0834C38.3431 30.0834 37 31.4265 37 33.0834H43ZM37 19.0834C37 20.7402 38.3431 22.0834 40 22.0834C41.6569 22.0834 43 20.7402 43 19.0834H37ZM43 11.4167C43 9.75984 41.6569 8.41669 40 8.41669C38.3431 8.41669 37 9.75984 37 11.4167L43 11.4167ZM43 67.4167L43 59.7494H37V67.4167H43ZM43 45.7494L43 33.0834H37L37 45.7494H43ZM43 19.0834V11.4167L37 11.4167V19.0834H43Z" fill="currentColor" />
  <path d="M21.334 23.0827C21.334 20.8736 23.1248 19.0827 25.334 19.0827L54.6673 19.0827C56.8765 19.0827 58.6673 20.8736 58.6673 23.0827V29.0827C58.6673 31.2918 56.8765 33.0827 54.6673 33.0827L25.334 33.0827C23.1248 33.0827 21.334 31.2918 21.334 29.0827V23.0827Z" fill="currentColor" />
  <path d="M26 49.7507C26 47.5415 27.7909 45.7507 30 45.7507L50 45.7507C52.2091 45.7507 54 47.5415 54 49.7507V55.7507C54 57.9598 52.2091 59.7507 50 59.7507H30C27.7909 59.7507 26 57.9598 26 55.7507V49.7507Z" fill="currentColor" />
</svg>