<svg viewBox="0 0 80 81" fill="none">
  <path d="M42.8492 49C41.1924 49 39.8492 50.3431 39.8492 52C39.8492 53.6569 41.1924 55 42.8492 55L42.8492 49ZM64 55C65.6569 55 67 53.6569 67 52C67 50.3431 65.6569 49 64 49V55ZM16 25C14.3431 25 13 26.3431 13 28C13 29.6569 14.3431 31 16 31V25ZM37.1508 31C38.8076 31 40.1508 29.6569 40.1508 28C40.1508 26.3431 38.8076 25 37.1508 25V31ZM16 36.9648C14.3431 36.9648 13 38.308 13 39.9648C13 41.6217 14.3431 42.9648 16 42.9648V36.9648ZM25.1859 42.9648C26.8428 42.9648 28.1859 41.6217 28.1859 39.9648C28.1859 38.308 26.8428 36.9648 25.1859 36.9648V42.9648ZM54.8844 36.9648C53.2275 36.9648 51.8844 38.308 51.8844 39.9648C51.8844 41.6217 53.2275 42.9648 54.8844 42.9648L54.8844 36.9648ZM64 42.9648C65.6569 42.9648 67 41.6217 67 39.9648C67 38.308 65.6569 36.9648 64 36.9648L64 42.9648ZM30.8844 60.9648C29.2275 60.9648 27.8844 62.308 27.8844 63.9648C27.8844 65.6217 29.2275 66.9648 30.8844 66.9648V60.9648ZM64 66.9648C65.6569 66.9648 67 65.6217 67 63.9648C67 62.308 65.6569 60.9648 64 60.9648V66.9648ZM16 12.9648C14.3431 12.9648 13 14.308 13 15.9648C13 17.6217 14.3431 18.9648 16 18.9648V12.9648ZM49.1859 18.9648C50.8428 18.9648 52.1859 17.6217 52.1859 15.9648C52.1859 14.308 50.8428 12.9648 49.1859 12.9648V18.9648ZM42.8492 55H64V49H42.8492L42.8492 55ZM16 31L37.1508 31V25L16 25V31ZM16 42.9648H25.1859V36.9648H16V42.9648ZM54.8844 42.9648H64L64 36.9648H54.8844L54.8844 42.9648ZM30.8844 66.9648H64V60.9648L30.8844 60.9648V66.9648ZM16 18.9648L49.1859 18.9648V12.9648L16 12.9648V18.9648Z" fill="currentColor" />
  <path d="M12 68L68 12" stroke="currentColor" stroke-width="6" stroke-linecap="round" stroke-linejoin="round" />
</svg>