<svg viewBox="0 0 80 80" fill="none">
  <path d="M33 29C33 27.3431 31.6569 26 30 26C28.3431 26 27 27.3431 27 29L33 29ZM58 67L58 64L58 67ZM66 70C67.6569 70 69 68.6569 69 67C69 65.3431 67.6569 64 66 64L66 70ZM27 29L27 39L33 39L33 29L27 29ZM58 70L66 70L66 64L58 64L58 70ZM27 39C27 56.1208 40.8792 70 58 70L58 64C44.1929 64 33 52.8071 33 39L27 39Z" fill="currentColor" />
  <path d="M40.3431 29L19.6569 29C17.5693 29 16.5239 26.4761 18 25L27.8787 15.1213C29.0503 13.9497 30.9497 13.9497 32.1213 15.1213L42 25C43.4761 26.4761 42.4307 29 40.3431 29Z" fill="currentColor" stroke="currentColor" stroke-width="4" stroke-linecap="round" stroke-linejoin="round" />
</svg>