<svg viewBox="0 0 80 80" fill="none">
  <path d="M43 21C43 19.3431 41.6569 18 40 18C38.3431 18 37 19.3431 37 21H43ZM37 34C37 35.6569 38.3431 37 40 37C41.6569 37 43 35.6569 43 34H37ZM37 21L37 34H43L43 21H37Z" fill="currentColor" />
  <path d="M45.818 21L34.182 21C33.0078 21 32.4197 19.5803 33.25 18.75L37.8787 14.1213C39.0503 12.9497 40.9497 12.9497 42.1213 14.1213L46.75 18.75C47.5803 19.5803 46.9923 21 45.818 21Z" fill="currentColor" stroke="currentColor" stroke-width="3" stroke-linecap="round" stroke-linejoin="round" />
  <path d="M43 59C43 60.6569 41.6569 62 40 62C38.3431 62 37 60.6569 37 59H43ZM37 46C37 44.3431 38.3431 43 40 43C41.6569 43 43 44.3431 43 46H37ZM37 59L37 46H43L43 59H37Z" fill="currentColor" />
  <path d="M45.818 59L34.182 59C33.0078 59 32.4197 60.4197 33.25 61.25L37.8787 65.8787C39.0503 67.0503 40.9497 67.0503 42.1213 65.8787L46.75 61.25C47.5803 60.4197 46.9923 59 45.818 59Z" fill="currentColor" stroke="currentColor" stroke-width="3" stroke-linecap="round" stroke-linejoin="round" />
</svg>