<svg viewBox="0 0 80 80" fill="none">
  <path fill-rule="evenodd" clip-rule="evenodd" d="M31.7678 14.2322C32.7441 15.2085 32.7441 16.7915 31.7678 17.7678L18.0354 31.5001L61.9645 31.5L48.2322 17.7678C47.2559 16.7915 47.2559 15.2085 48.2322 14.2322C49.2085 13.2559 50.7915 13.2559 51.7678 14.2322L69.7678 32.2322C70.3663 32.8308 70.5979 33.6574 70.4625 34.4324C70.4593 34.4664 70.4554 34.5006 70.4508 34.5348L67.2881 58.2557C66.6588 62.9753 62.6328 66.5001 57.8714 66.5001H22.1286C17.3672 66.5001 13.3412 62.9753 12.7119 58.2557L9.56675 34.6667C9.55904 34.6089 9.55316 34.5513 9.54903 34.4941C9.39002 33.7015 9.61775 32.8467 10.2322 32.2322L28.2322 14.2322C29.2085 13.2559 30.7915 13.2559 31.7678 14.2322ZM27.7188 42.9126C27.7188 41.5319 26.5995 40.4126 25.2188 40.4126C23.838 40.4126 22.7188 41.5319 22.7188 42.9126V54.9126C22.7188 56.2933 23.838 57.4126 25.2188 57.4126C26.5995 57.4126 27.7188 56.2933 27.7188 54.9126V42.9126ZM35.2188 40.4126C36.5995 40.4126 37.7188 41.5319 37.7188 42.9126V54.9126C37.7188 56.2933 36.5995 57.4126 35.2188 57.4126C33.838 57.4126 32.7188 56.2933 32.7188 54.9126V42.9126C32.7188 41.5319 33.838 40.4126 35.2188 40.4126ZM47.7188 42.9126C47.7188 41.5319 46.5995 40.4126 45.2188 40.4126C43.838 40.4126 42.7188 41.5319 42.7188 42.9126V54.9126C42.7188 56.2933 43.838 57.4126 45.2188 57.4126C46.5995 57.4126 47.7188 56.2933 47.7188 54.9126V42.9126ZM55.2188 40.4126C56.5995 40.4126 57.7188 41.5319 57.7188 42.9126V54.9126C57.7188 56.2933 56.5995 57.4126 55.2188 57.4126C53.838 57.4126 52.7188 56.2933 52.7188 54.9126V42.9126C52.7188 41.5319 53.838 40.4126 55.2188 40.4126Z" fill="currentColor" />
</svg>