<svg viewBox="0 0 80 80" fill="none">
  <path d="M39.7766 38.0173L39.556 38.0548L39.341 38.1167L39.1343 38.2023L38.9384 38.3106L38.756 38.44L38.5891 38.5891L38.44 38.756L38.3106 38.9384L38.2023 39.1343L38.1167 39.341L38.0548 39.556L38.0173 39.7766L38.0047 40L38.0173 40.2234L38.0548 40.444L38.1167 40.659L38.2023 40.8657L38.3106 41.0616L38.44 41.244L38.5891 41.4109L38.756 41.56L38.9385 41.6894L39.1343 41.7977L39.341 41.8833L39.556 41.9452L39.7766 41.9827L40 41.9953L40.2234 41.9827L40.444 41.9452L40.659 41.8833L40.8657 41.7977L41.0616 41.6894L41.244 41.56L41.4109 41.4109L41.56 41.244L41.6894 41.0616L41.7977 40.8657L41.8833 40.659L41.9452 40.444L41.9827 40.2234L41.9953 40L41.9827 39.7766L41.9452 39.556L41.8833 39.341L41.7977 39.1343L41.6894 38.9385L41.56 38.756L41.4109 38.5891L41.244 38.44L41.0616 38.3106L40.8657 38.2023L40.659 38.1167L40.444 38.0548L40.2234 38.0173L40 38.0047L39.7766 38.0173Z" fill="currentColor" />
  <path fill-rule="evenodd" clip-rule="evenodd" d="M40 12L43.135 12.1761L46.2306 12.702L49.2478 13.5713L52.1487 14.7729L54.8969 16.2917L57.4577 18.1087L59.799 20.201L61.8913 22.5423L63.7083 25.1031L65.2271 27.8513L66.4287 30.7522L67.298 33.7694L67.8239 36.865L68 40L67.8239 43.135L67.298 46.2306L66.4287 49.2478L65.2271 52.1487L63.7083 54.8969L61.8913 57.4577L59.799 59.799L57.4577 61.8913L54.8969 63.7083L52.1487 65.2271L49.2478 66.4287L46.2306 67.298L43.135 67.8239L40 68L36.865 67.8239L33.7694 67.298L30.7522 66.4287L27.8513 65.2271L25.1031 63.7083L22.5423 61.8913L20.201 59.799L18.1087 57.4577L16.2917 54.8969L14.7729 52.1487L13.5713 49.2478L12.702 46.2306L12.1761 43.135L12 40L12.1761 36.865L12.702 33.7694L13.5713 30.7522L14.7729 27.8513L16.2917 25.1031L18.1087 22.5423L20.201 20.201L22.5423 18.1087L25.1031 16.2917L27.8513 14.7729L30.7522 13.5713L33.7694 12.702L36.865 12.1761L40 12ZM40.1682 32.0047L40.728 32.0362C40.8401 32.0425 40.9517 32.055 41.0623 32.0738L41.6151 32.1677C41.7258 32.1865 41.8353 32.2115 41.9431 32.2426L42.4819 32.3978C42.5897 32.4289 42.6958 32.466 42.7994 32.5089L43.3175 32.7235C43.4212 32.7665 43.5224 32.8152 43.6206 32.8695L44.1113 33.1407C44.2095 33.195 44.3046 33.2548 44.3962 33.3197L44.8535 33.6442C44.945 33.7091 45.0328 33.7791 45.1165 33.8539L45.5346 34.2275C45.6183 34.3023 45.6977 34.3817 45.7725 34.4654L46.1461 34.8835C46.2209 34.9672 46.2909 35.055 46.3558 35.1465L46.6803 35.6038C46.7452 35.6954 46.805 35.7905 46.8593 35.8887L47.1305 36.3794C47.1848 36.4777 47.2335 36.5788 47.2765 36.6825L47.4911 37.2006C47.534 37.3042 47.5711 37.4103 47.6022 37.5181L47.7574 38.0569C47.7885 38.1647 47.8135 38.2742 47.8323 38.3849L47.9262 38.9377C47.945 39.0483 47.9576 39.1599 47.9638 39.272L47.9953 39.8318C48.0016 39.9438 48.0016 40.0562 47.9953 40.1682L47.9638 40.728C47.9576 40.8401 47.945 40.9517 47.9262 41.0623L47.8323 41.6151C47.8135 41.7258 47.7885 41.8353 47.7574 41.9431L47.6022 42.4819C47.5711 42.5897 47.534 42.6958 47.4911 42.7994L47.2765 43.3175C47.2335 43.4212 47.1848 43.5224 47.1305 43.6206L46.8593 44.1113C46.805 44.2095 46.7452 44.3046 46.6803 44.3962L46.3558 44.8535C46.2909 44.945 46.2209 45.0328 46.1461 45.1165L45.7725 45.5346C45.6977 45.6183 45.6183 45.6977 45.5346 45.7725L45.1165 46.1461C45.0328 46.2209 44.945 46.2909 44.8535 46.3558L44.3962 46.6803C44.3046 46.7452 44.2095 46.805 44.1113 46.8593L43.6206 47.1305C43.5224 47.1848 43.4212 47.2335 43.3175 47.2765L42.7994 47.4911C42.6958 47.534 42.5897 47.5711 42.4819 47.6022L41.9431 47.7574C41.8353 47.7885 41.7258 47.8135 41.6151 47.8323L41.0623 47.9262C40.9517 47.945 40.8401 47.9576 40.728 47.9638L40.1682 47.9953C40.0562 48.0016 39.9438 48.0016 39.8318 47.9953L39.272 47.9638C39.1599 47.9576 39.0483 47.945 38.9377 47.9262L38.3849 47.8323C38.2742 47.8135 38.1647 47.7885 38.0569 47.7574L37.5181 47.6022C37.4103 47.5711 37.3042 47.534 37.2006 47.4911L36.6825 47.2765C36.5788 47.2335 36.4777 47.1848 36.3794 47.1305L35.8887 46.8593C35.7905 46.805 35.6954 46.7452 35.6038 46.6803L35.1465 46.3558C35.055 46.2909 34.9672 46.2209 34.8835 46.1461L34.4654 45.7725C34.3817 45.6977 34.3023 45.6183 34.2275 45.5346L33.8539 45.1165C33.7791 45.0328 33.7091 44.945 33.6442 44.8535L33.3197 44.3962C33.2548 44.3046 33.195 44.2095 33.1407 44.1113L32.8695 43.6206C32.8152 43.5224 32.7665 43.4212 32.7235 43.3175L32.5089 42.7994C32.466 42.6958 32.4289 42.5897 32.3978 42.4819L32.2426 41.9431C32.2115 41.8353 32.1865 41.7258 32.1677 41.6151L32.0738 41.0623C32.055 40.9517 32.0425 40.8401 32.0362 40.728L32.0047 40.1682C31.9984 40.0562 31.9984 39.9438 32.0047 39.8318L32.0362 39.272C32.0425 39.1599 32.055 39.0483 32.0738 38.9377L32.1677 38.3849C32.1865 38.2742 32.2115 38.1647 32.2426 38.0569L32.3978 37.5181C32.4289 37.4103 32.466 37.3042 32.5089 37.2006L32.7235 36.6825C32.7665 36.5788 32.8152 36.4776 32.8695 36.3794L33.1407 35.8887C33.195 35.7905 33.2548 35.6954 33.3197 35.6038L33.6442 35.1465C33.7091 35.055 33.7791 34.9672 33.8539 34.8835L34.2275 34.4654C34.3023 34.3817 34.3817 34.3023 34.4654 34.2275L34.8835 33.8539C34.9672 33.7791 35.055 33.7091 35.1465 33.6442L35.6038 33.3197C35.6954 33.2548 35.7905 33.195 35.8887 33.1407L36.3794 32.8695C36.4776 32.8152 36.5788 32.7665 36.6825 32.7235L37.2006 32.5089C37.3042 32.466 37.4103 32.4289 37.5181 32.3978L38.0569 32.2426C38.1647 32.2115 38.2742 32.1865 38.3849 32.1677L38.9377 32.0738C39.0483 32.055 39.1599 32.0425 39.272 32.0362L39.8318 32.0047C39.9438 31.9984 40.0562 31.9984 40.1682 32.0047ZM30.8076 30.8076C33.2456 28.3696 36.5522 27 40 27C41.6569 27 43 25.6569 43 24C43 22.3431 41.6569 21 40 21C34.9609 21 30.1282 23.0018 26.565 26.565C23.0018 30.1282 21 34.9609 21 40C21 41.6569 22.3431 43 24 43C25.6569 43 27 41.6569 27 40C27 36.5522 28.3696 33.2456 30.8076 30.8076Z" fill="currentColor" />
</svg>