<svg viewBox="0 0 80 80" fill="none">
  <path d="M42.9975 33.0718C41.2846 33.072 39.5705 33.5154 38.0353 34.4017C34.9639 36.175 33.0718 39.4522 33.0718 42.9987C33.0718 44.0551 33.2399 45.0887 33.5574 46.0658C34.0694 47.6416 35.7619 48.5039 37.3376 47.9919C38.9134 47.4798 39.7757 45.7874 39.2637 44.2116C39.1383 43.8258 39.0718 43.4176 39.0718 42.9987C39.0718 41.5958 39.8203 40.2994 41.0353 39.5979C41.6427 39.2472 42.3199 39.0719 42.9983 39.0718C44.6551 39.0716 45.9981 37.7282 45.9979 36.0714C45.9977 34.4145 44.6544 33.0716 42.9975 33.0718Z" fill="currentColor" />
  <path fill-rule="evenodd" clip-rule="evenodd" d="M38.2969 8.99994C36.7076 8.99994 35.2692 9.94078 34.6322 11.3968L33.931 12.9997H33.8564C32.1989 12.9997 30.7132 14.0219 30.1207 15.5698L28.4249 20H25.525L25.338 19.1452C24.9363 17.3089 23.3102 15.9999 21.4304 15.9999H18.6042C16.7244 15.9999 15.0983 17.3089 14.6966 19.1452L14.5097 20H14C11.2386 20 9 22.2386 9 25V61C9 63.7614 11.2386 66 14 66H31.9497C38.9308 69.3555 47.0692 69.3555 54.0504 66H64C66.7614 66 69 63.7614 69 61V25C69 22.2386 66.7614 20 64 20H57.6962L56.0004 15.5698C55.4079 14.0219 53.9222 12.9997 52.2647 12.9997H52.1382L51.437 11.3968C50.8 9.94077 49.3616 8.99994 47.7723 8.99994H38.2969ZM52.7583 26.0981C46.7199 22.6117 39.2801 22.6117 33.2417 26.0981C27.2032 29.5844 23.4833 36.0273 23.4833 43C23.4833 49.9726 27.2032 56.4156 33.2417 59.9019C39.2801 63.3882 46.7199 63.3882 52.7583 59.9019C58.7968 56.4156 62.5167 49.9726 62.5167 43C62.5167 36.0274 58.7968 29.5844 52.7583 26.0981Z" fill="currentColor" />
</svg>