<svg viewBox="0 0 80 80" fill="none">
  <path d="M28.5952 47.5961L31.0059 49.3817L31.0059 49.3817L28.5952 47.5961ZM51.4048 16.8032L48.9941 15.0175V15.0175L51.4048 16.8032ZM52 48.3996L52 51.3996C53.6568 51.3996 55 50.0565 55 48.3996H52ZM52 48.3996V45.3996C50.3431 45.3996 49 46.7428 49 48.3996H52ZM49 63.9996C49 65.6565 50.3431 66.9996 52 66.9996C53.6568 66.9996 55 65.6565 55 63.9996L49 63.9996ZM55.6 51.3996C57.2568 51.3996 58.6 50.0565 58.6 48.3996C58.6 46.7428 57.2568 45.3996 55.6 45.3996L55.6 51.3996ZM31.0059 49.3817L53.8154 18.5889L48.9941 15.0175L26.1846 45.8104L31.0059 49.3817ZM29 45.3996C31.0502 45.3996 32.2262 47.7343 31.0059 49.3817L26.1846 45.8104C24.4717 48.1227 26.1223 51.3996 29 51.3996L29 45.3996ZM52 45.3996H29L29 51.3996L52 51.3996L52 45.3996ZM49 16.9996V48.3996H55V16.9996H49ZM53.8154 18.5889C52.2834 20.6572 49 19.5735 49 16.9996H55C55 13.7894 50.9049 12.4379 48.9941 15.0175L53.8154 18.5889ZM49 48.3996L49 63.9996L55 63.9996L55 48.3996H49ZM55.6 45.3996H52L52 51.3996H55.6L55.6 45.3996Z" fill="currentColor" />
</svg>