<svg viewBox="0 0 80 80" fill="none">
  <path d="M29.3929 14.3939C36.1842 11.5808 43.8148 11.5808 50.6061 14.3939V14.3939C57.3974 17.2069 62.7931 22.6026 65.6061 29.3939V29.3939C68.4192 36.1852 68.4192 43.8158 65.6061 50.6071V50.6071C62.7931 57.3984 57.3974 62.794 50.6061 65.6071V65.6071C43.8148 68.4201 36.1842 68.4201 29.3929 65.6071V65.6071C22.6016 62.794 17.206 57.3984 14.3929 50.6071V50.6071C11.5799 43.8158 11.5799 36.1852 14.3929 29.3939V29.3939C17.206 22.6026 22.6016 17.2069 29.3929 14.3939V14.3939Z" stroke="currentColor" stroke-width="5" stroke-linecap="round" stroke-linejoin="round" />
  <path fill-rule="evenodd" clip-rule="evenodd" d="M37.4634 12.3916C39.0632 12.2444 40.6727 12.2364 42.2736 12.3679L40.107 14.7742C39.6536 15.2777 38.9525 15.4782 38.3015 15.2906C37.1512 14.959 36.6551 13.6048 37.3189 12.6086L37.4634 12.3916ZM35.1921 12.6959L33.7916 14.1731C33.1301 14.871 32.2082 15.2624 31.2466 15.2536C29.516 15.2378 28.0394 16.5021 27.7884 18.2145L27.7713 18.3312C27.6238 19.3372 27.0577 20.2339 26.2128 20.7996L25.4073 21.3389C24.5013 21.9455 23.9962 22.9963 24.0884 24.0828L24.1309 24.583C24.2287 25.7348 23.4897 26.792 22.3745 27.0959C21.3605 27.3722 20.2848 26.955 19.7223 26.0673L19.1766 25.2063C18.7554 24.5417 18.1753 24.064 17.5264 23.7765C20.5114 19.6385 24.6076 16.369 29.3983 14.3847C31.2771 13.6064 33.2202 13.0435 35.1921 12.6959ZM22.9273 30.2779C21.5072 30.5585 20.8146 32.1804 21.5941 33.4003L23.6835 36.6703C24.3303 37.6825 25.34 38.4088 26.5054 38.7002L28.2677 39.1407C28.9625 39.3144 29.6974 39.109 30.2014 38.6001C31.0155 37.7782 30.9788 36.443 30.1206 35.6672L24.7038 30.7696C24.2225 30.3344 23.5639 30.1521 22.9273 30.2779ZM36.3121 36.0288C36.087 37.0332 36.8264 37.9963 37.8549 38.0382L42.114 38.2116C42.67 38.2342 43.2174 38.0697 43.6688 37.7444L44.0215 37.4902C44.3735 37.2365 44.6001 36.8444 44.6443 36.4128C44.7358 35.5177 44.0334 34.7398 43.1336 34.7398H37.922C37.1498 34.7398 36.481 35.2754 36.3121 36.0288ZM39.42 41.0795C37.6086 41.1678 35.8982 41.9405 34.6346 43.2415L33.8224 44.0777C32.9137 45.0133 32.4488 46.293 32.5451 47.5937C32.7216 49.9764 34.7062 51.8195 37.0954 51.8195H38.5328C39.892 51.8195 41.2005 52.3356 42.1938 53.2634L42.7553 53.7879C43.3878 54.3787 44.221 54.7074 45.0866 54.7074C46.9727 54.7074 48.5017 53.1783 48.5017 51.2922V48.8732C48.5017 47.4439 47.977 46.0643 47.0272 44.9962L45.8427 43.6642C44.2809 41.908 42.0079 40.9534 39.6605 41.0678L39.42 41.0795ZM30.999 31.8589C29.7531 31.0653 29.5474 29.329 30.5734 28.2663L33.1564 25.5908C33.4643 25.2718 33.9233 25.1491 34.3493 25.2716C35.1154 25.4921 35.4565 26.3853 35.0323 27.0602L34.9595 27.176C34.803 27.4251 34.7355 27.7199 34.768 28.0123L34.8807 29.0236C34.9563 29.7022 34.7769 30.3846 34.3773 30.9382L34.1481 31.2558C33.4239 32.2593 32.0427 32.5238 30.999 31.8589ZM52.641 54.9316C52.2032 54.3544 52.1845 53.5616 52.5947 52.9645L53.7502 51.2819C54.3293 50.4387 55.5205 50.3026 56.2749 50.9935C56.8951 51.5614 57.0011 52.5 56.5231 53.1919L55.363 54.8713C54.7127 55.8126 53.3324 55.8432 52.641 54.9316Z" fill="currentColor" />
  <path d="M37.4634 12.3916L37.4176 11.8937C37.2672 11.9076 37.1311 11.9887 37.0473 12.1144L37.4634 12.3916ZM42.2736 12.3679L42.6451 12.7024C42.7723 12.5612 42.8084 12.36 42.7383 12.1834C42.6681 12.0067 42.5039 11.8851 42.3145 11.8696L42.2736 12.3679ZM40.107 14.7742L39.7354 14.4396V14.4396L40.107 14.7742ZM38.3015 15.2906L38.163 15.771L38.3015 15.2906ZM37.3189 12.6086L37.735 12.8858V12.8858L37.3189 12.6086ZM35.1921 12.6959L35.5549 13.0399C35.7034 12.8833 35.7346 12.6491 35.6324 12.4591C35.5303 12.2691 35.3177 12.166 35.1052 12.2035L35.1921 12.6959ZM33.7916 14.1731L33.4287 13.8292L33.7916 14.1731ZM31.2466 15.2536L31.2421 15.7536L31.2466 15.2536ZM27.7884 18.2145L27.2937 18.142V18.142L27.7884 18.2145ZM27.7713 18.3312L28.266 18.4037V18.4037L27.7713 18.3312ZM26.2128 20.7996L25.9346 20.3841L26.2128 20.7996ZM25.4073 21.3389L25.6855 21.7543V21.7543L25.4073 21.3389ZM24.0884 24.0828L23.5902 24.1251L24.0884 24.0828ZM24.1309 24.583L24.6291 24.5407L24.1309 24.583ZM22.3745 27.0959L22.243 26.6135H22.243L22.3745 27.0959ZM19.7223 26.0673L20.1446 25.7997L19.7223 26.0673ZM19.1766 25.2063L18.7543 25.4739L18.7543 25.4739L19.1766 25.2063ZM17.5264 23.7765L17.1209 23.484C17.0327 23.6062 17.0044 23.7617 17.0437 23.9071C17.0831 24.0526 17.186 24.1726 17.3238 24.2336L17.5264 23.7765ZM29.3983 14.3847L29.2069 13.9227L29.3983 14.3847ZM21.5941 33.4003L22.0154 33.1311L21.5941 33.4003ZM22.9273 30.2779L23.0243 30.7684L22.9273 30.2779ZM23.6835 36.6703L23.2622 36.9395L23.2622 36.9395L23.6835 36.6703ZM26.5054 38.7002L26.6267 38.2151L26.5054 38.7002ZM28.2677 39.1407L28.1464 39.6258L28.2677 39.1407ZM30.2014 38.6001L29.8462 38.2483L30.2014 38.6001ZM30.1206 35.6672L30.456 35.2963L30.1206 35.6672ZM24.7038 30.7696L25.0392 30.3987L24.7038 30.7696ZM37.8549 38.0382L37.8345 38.5377H37.8345L37.8549 38.0382ZM36.3121 36.0288L36.8 36.1382L36.3121 36.0288ZM42.114 38.2116L42.1343 37.712L42.114 38.2116ZM43.6688 37.7444L43.3765 37.3388L43.6688 37.7444ZM44.0215 37.4902L43.7291 37.0846L44.0215 37.4902ZM44.6443 36.4128L44.1469 36.3619V36.3619L44.6443 36.4128ZM34.6346 43.2415L34.2759 42.8931V42.8931L34.6346 43.2415ZM39.42 41.0795L39.4443 41.5789H39.4443L39.42 41.0795ZM33.8224 44.0777L34.1811 44.4261L33.8224 44.0777ZM32.5451 47.5937L33.0438 47.5568L32.5451 47.5937ZM42.1938 53.2634L41.8525 53.6288L42.1938 53.2634ZM42.7553 53.7879L43.0966 53.4225L42.7553 53.7879ZM47.0272 44.9962L47.4008 44.664L47.4008 44.664L47.0272 44.9962ZM45.8427 43.6642L45.469 43.9965L45.8427 43.6642ZM39.6605 41.0678L39.6361 40.5684H39.6361L39.6605 41.0678ZM30.5734 28.2663L30.9331 28.6136L30.5734 28.2663ZM30.999 31.8589L31.2676 31.4372L30.999 31.8589ZM33.1564 25.5908L32.7966 25.2435L33.1564 25.5908ZM34.3493 25.2716L34.4876 24.7911H34.4876L34.3493 25.2716ZM35.0323 27.0602L35.4556 27.3263L35.4556 27.3263L35.0323 27.0602ZM34.9595 27.176L34.5362 26.91L34.9595 27.176ZM34.768 28.0123L35.265 27.9569V27.9569L34.768 28.0123ZM34.8807 29.0236L35.3777 28.9682L34.8807 29.0236ZM34.3773 30.9382L33.9719 30.6456V30.6456L34.3773 30.9382ZM34.1481 31.2558L34.5535 31.5485L34.5536 31.5485L34.1481 31.2558ZM52.5947 52.9645L53.0068 53.2475L52.5947 52.9645ZM52.641 54.9316L52.2426 55.2338L52.641 54.9316ZM53.7502 51.2819L54.1623 51.565L53.7502 51.2819ZM56.2749 50.9935L55.9372 51.3622L55.9372 51.3622L56.2749 50.9935ZM56.5231 53.1919L56.1117 52.9077H56.1117L56.5231 53.1919ZM55.363 54.8713L55.7744 55.1554L55.363 54.8713ZM37.5093 12.8895C39.0802 12.7449 40.6607 12.7371 42.2327 12.8662L42.3145 11.8696C40.6848 11.7358 39.0462 11.7438 37.4176 11.8937L37.5093 12.8895ZM41.902 12.0333L39.7354 14.4396L40.4786 15.1088L42.6451 12.7024L41.902 12.0333ZM39.7354 14.4396C39.4101 14.8009 38.9071 14.9448 38.44 14.8101L38.163 15.771C38.998 16.0117 39.8971 15.7546 40.4786 15.1088L39.7354 14.4396ZM38.44 14.8101C37.6146 14.5722 37.2587 13.6006 37.735 12.8858L36.9028 12.3313C36.0514 13.609 36.6877 15.3457 38.163 15.771L38.44 14.8101ZM37.735 12.8858L37.8795 12.6689L37.0473 12.1144L36.9028 12.3313L37.735 12.8858ZM34.8292 12.3519L33.4287 13.8292L34.1545 14.5171L35.5549 13.0399L34.8292 12.3519ZM33.4287 13.8292C32.8627 14.4262 32.0739 14.7611 31.2512 14.7536L31.2421 15.7536C32.3424 15.7636 33.3974 15.3157 34.1545 14.5171L33.4287 13.8292ZM31.2512 14.7536C29.2707 14.7356 27.5809 16.1823 27.2937 18.142L28.2831 18.287C28.4979 16.8218 29.7613 15.7401 31.2421 15.7536L31.2512 14.7536ZM27.2937 18.142L27.2766 18.2587L28.266 18.4037L28.2831 18.287L27.2937 18.142ZM27.2766 18.2587C27.1496 19.1249 26.6621 19.897 25.9346 20.3841L26.491 21.2151C27.4533 20.5708 28.0981 19.5495 28.266 18.4037L27.2766 18.2587ZM25.9346 20.3841L25.1292 20.9234L25.6855 21.7543L26.491 21.2151L25.9346 20.3841ZM25.1292 20.9234C24.072 21.6312 23.4826 22.8574 23.5902 24.1251L24.5866 24.0405C24.5098 23.1353 24.9306 22.2598 25.6855 21.7543L25.1292 20.9234ZM23.5902 24.1251L23.6327 24.6253L24.6291 24.5407L24.5866 24.0405L23.5902 24.1251ZM23.6327 24.6253C23.71 25.5366 23.1254 26.373 22.243 26.6135L22.5059 27.5783C23.854 27.2109 24.7473 25.933 24.6291 24.5407L23.6327 24.6253ZM22.243 26.6135C21.4407 26.8321 20.5897 26.502 20.1446 25.7997L19.2999 26.3349C19.9799 27.408 21.2802 27.9123 22.5059 27.5783L22.243 26.6135ZM20.1446 25.7997L19.599 24.9387L18.7543 25.4739L19.2999 26.3349L20.1446 25.7997ZM19.599 24.9387C19.1234 24.1882 18.4657 23.6458 17.7289 23.3193L17.3238 24.2336C17.8849 24.4822 18.3875 24.8951 18.7543 25.4739L19.599 24.9387ZM17.9319 24.069C20.8631 20.0057 24.8854 16.7952 29.5896 14.8466L29.2069 13.9227C24.3298 15.9429 20.1598 19.2714 17.1209 23.484L17.9319 24.069ZM29.5896 14.8466C31.4346 14.0824 33.3427 13.5296 35.2789 13.1883L35.1052 12.2035C33.0978 12.5574 31.1197 13.1305 29.2069 13.9227L29.5896 14.8466ZM22.0154 33.1311C21.4256 32.208 21.9496 30.9807 23.0243 30.7684L22.8304 29.7874C21.0647 30.1363 20.2036 32.1528 21.1727 33.6695L22.0154 33.1311ZM24.1049 36.4011L22.0154 33.1311L21.1727 33.6695L23.2622 36.9395L24.1049 36.4011ZM26.6267 38.2151C25.5852 37.9548 24.6829 37.3057 24.1049 36.4011L23.2622 36.9395C23.9778 38.0594 25.0948 38.8629 26.3841 39.1853L26.6267 38.2151ZM28.3889 38.6557L26.6267 38.2151L26.3841 39.1853L28.1464 39.6258L28.3889 38.6557ZM29.8462 38.2483C29.4664 38.6317 28.9125 38.7866 28.3889 38.6557L28.1464 39.6258C29.0124 39.8423 29.9285 39.5862 30.5567 38.952L29.8462 38.2483ZM29.7853 36.038C30.432 36.6227 30.4597 37.6289 29.8462 38.2483L30.5567 38.952C31.5714 37.9275 31.5255 36.2633 30.456 35.2963L29.7853 36.038ZM24.3685 31.1404L29.7853 36.038L30.456 35.2963L25.0392 30.3987L24.3685 31.1404ZM23.0243 30.7684C23.506 30.6732 24.0043 30.8111 24.3685 31.1404L25.0392 30.3987C24.4407 29.8576 23.6219 29.631 22.8304 29.7874L23.0243 30.7684ZM37.8752 37.5386C37.1584 37.5094 36.6431 36.8382 36.8 36.1382L35.8242 35.9195C35.5308 37.2283 36.4944 38.4832 37.8345 38.5377L37.8752 37.5386ZM42.1343 37.712L37.8752 37.5386L37.8345 38.5377L42.0937 38.7112L42.1343 37.712ZM43.3765 37.3388C43.0159 37.5987 42.5785 37.7301 42.1343 37.712L42.0937 38.7112C42.7614 38.7384 43.419 38.5408 43.9612 38.15L43.3765 37.3388ZM43.7291 37.0846L43.3765 37.3388L43.9612 38.15L44.3138 37.8958L43.7291 37.0846ZM44.1469 36.3619C44.1173 36.6514 43.9652 36.9144 43.7291 37.0846L44.3138 37.8958C44.7817 37.5586 45.083 37.0374 45.1417 36.4636L44.1469 36.3619ZM43.1336 35.2398C43.7371 35.2398 44.2082 35.7616 44.1469 36.3619L45.1417 36.4636C45.2633 35.2739 44.3296 34.2398 43.1336 34.2398V35.2398ZM37.922 35.2398H43.1336V34.2398H37.922V35.2398ZM36.8 36.1382C36.9177 35.6131 37.3838 35.2398 37.922 35.2398V34.2398C36.9158 34.2398 36.0443 34.9377 35.8242 35.9195L36.8 36.1382ZM34.9933 43.5898C36.1686 42.3798 37.7595 41.661 39.4443 41.5789L39.3957 40.5801C37.4577 40.6746 35.6278 41.5013 34.2759 42.8931L34.9933 43.5898ZM34.1811 44.4261L34.9933 43.5898L34.2759 42.8931L33.4637 43.7294L34.1811 44.4261ZM33.0438 47.5568C32.958 46.3986 33.3719 45.2591 34.1811 44.4261L33.4637 43.7294C32.4554 44.7675 31.9396 46.1874 32.0465 47.6306L33.0438 47.5568ZM37.0954 51.3195C34.9681 51.3195 33.2009 49.6784 33.0438 47.5568L32.0465 47.6306C32.2423 50.2744 34.4444 52.3195 37.0954 52.3195V51.3195ZM38.5328 51.3195H37.0954V52.3195H38.5328V51.3195ZM42.5351 52.8981C41.4492 51.8837 40.0187 51.3195 38.5328 51.3195V52.3195C39.7653 52.3195 40.9518 52.7875 41.8525 53.6288L42.5351 52.8981ZM43.0966 53.4225L42.5351 52.8981L41.8525 53.6288L42.4139 54.1533L43.0966 53.4225ZM45.0866 54.2074C44.3477 54.2074 43.6365 53.9268 43.0966 53.4225L42.4139 54.1533C43.1391 54.8306 44.0943 55.2074 45.0866 55.2074V54.2074ZM48.0017 51.2922C48.0017 52.9022 46.6966 54.2074 45.0866 54.2074V55.2074C47.2488 55.2074 49.0017 53.4545 49.0017 51.2922H48.0017ZM48.0017 48.8732V51.2922H49.0017V48.8732H48.0017ZM46.6536 45.3285C47.522 46.305 48.0017 47.5664 48.0017 48.8732H49.0017C49.0017 47.3214 48.4321 45.8236 47.4008 44.664L46.6536 45.3285ZM45.469 43.9965L46.6536 45.3285L47.4008 44.664L46.2163 43.332L45.469 43.9965ZM39.6848 41.5672C41.8811 41.4601 44.0078 42.3533 45.469 43.9965L46.2163 43.332C44.554 41.4627 42.1347 40.4466 39.6361 40.5684L39.6848 41.5672ZM39.4443 41.5789L39.6848 41.5672L39.6361 40.5684L39.3957 40.5801L39.4443 41.5789ZM30.2137 27.919C28.9681 29.2092 29.2178 31.3172 30.7303 32.2806L31.2676 31.4372C30.2884 30.8135 30.1268 29.4489 30.9331 28.6136L30.2137 27.919ZM32.7966 25.2435L30.2137 27.919L30.9331 28.6136L33.5161 25.9381L32.7966 25.2435ZM34.4876 24.7911C33.8836 24.6174 33.2331 24.7914 32.7966 25.2435L33.5161 25.9381C33.6955 25.7523 33.9629 25.6807 34.2111 25.7522L34.4876 24.7911ZM35.4556 27.3263C36.0569 26.3697 35.5735 25.1036 34.4876 24.7911L34.2111 25.7522C34.6574 25.8806 34.8561 26.401 34.609 26.7942L35.4556 27.3263ZM35.3828 27.4421L35.4556 27.3263L34.609 26.7942L34.5362 26.91L35.3828 27.4421ZM35.265 27.9569C35.2449 27.7769 35.2865 27.5954 35.3828 27.4421L34.5362 26.91C34.3195 27.2548 34.226 27.6629 34.2711 28.0676L35.265 27.9569ZM35.3777 28.9682L35.265 27.9569L34.2711 28.0676L34.3838 29.079L35.3777 28.9682ZM34.7828 31.2309C35.255 30.5766 35.467 29.7701 35.3777 28.9682L34.3838 29.079C34.4457 29.6342 34.2989 30.1926 33.9719 30.6456L34.7828 31.2309ZM34.5536 31.5485L34.7828 31.2308L33.9719 30.6456L33.7427 30.9632L34.5536 31.5485ZM30.7303 32.2806C31.9975 33.0878 33.6743 32.7667 34.5535 31.5485L33.7427 30.9632C33.1735 31.7519 32.0879 31.9598 31.2676 31.4372L30.7303 32.2806ZM52.1825 52.6814C51.6503 53.4562 51.6746 54.4849 52.2426 55.2338L53.0394 54.6295C52.7318 54.224 52.7187 53.667 53.0068 53.2475L52.1825 52.6814ZM53.338 50.9989L52.1825 52.6814L53.0068 53.2475L54.1623 51.565L53.338 50.9989ZM56.6126 50.6247C55.6341 49.7286 54.0891 49.9052 53.338 50.9989L54.1623 51.565C54.5695 50.9722 55.4069 50.8765 55.9372 51.3622L56.6126 50.6247ZM56.9345 53.4761C57.5544 52.5787 57.417 51.3614 56.6126 50.6247L55.9372 51.3622C56.3732 51.7615 56.4477 52.4213 56.1117 52.9077L56.9345 53.4761ZM55.7744 55.1554L56.9345 53.4761L56.1117 52.9077L54.9516 54.5871L55.7744 55.1554ZM52.2426 55.2338C53.1397 56.4165 54.9306 56.3768 55.7744 55.1554L54.9516 54.5871C54.4948 55.2484 53.5251 55.2699 53.0394 54.6295L52.2426 55.2338Z" fill="currentColor" />
</svg>