<svg viewBox="0 0 80 80" fill="none">
  <path d="M35 60.1083C35 61.7651 36.3431 63.1083 38 63.1083C39.6569 63.1083 41 61.7651 41 60.1083H35ZM41 20.1083C41 18.4514 39.6569 17.1083 38 17.1083C36.3431 17.1083 35 18.4514 35 20.1083H41ZM7 60.1083C7 61.7651 8.34315 63.1083 10 63.1083C11.6569 63.1083 13 61.7651 13 60.1083H7ZM13 20.1083C13 18.4514 11.6569 17.1083 10 17.1083C8.34315 17.1083 7 18.4514 7 20.1083H13ZM10 37.1083C8.34315 37.1083 7 38.4514 7 40.1083C7 41.7651 8.34315 43.1083 10 43.1083V37.1083ZM38 43.1083C39.6569 43.1083 41 41.7651 41 40.1083C41 38.4514 39.6569 37.1083 38 37.1083V43.1083ZM41 60.1083V20.1083H35V60.1083H41ZM13 60.1083V20.1083H7V60.1083H13ZM10 43.1083H38V37.1083H10V43.1083Z" fill="currentColor" />
  <path d="M53.8782 25.8792C52.7069 27.0511 52.7073 28.9506 53.8792 30.1219C55.051 31.2932 56.9505 31.2927 58.1218 30.1209L53.8782 25.8792ZM63.7791 20.2173L65.9009 22.3382L65.9009 22.3382L63.7791 20.2173ZM60.9962 60.0001C60.9962 61.6569 62.3394 63.0001 63.9962 63.0001C65.6531 63.0001 66.9962 61.6569 66.9962 60.0001H60.9962ZM58.1218 30.1209L65.9009 22.3382L61.6572 18.0965L53.8782 25.8792L58.1218 30.1209ZM60.9962 20.3073V60.0001H66.9962V20.3073H60.9962ZM65.9009 22.3382C64.0913 24.1486 60.9962 22.867 60.9962 20.3073H66.9962C66.9962 17.5209 63.6271 16.1258 61.6572 18.0965L65.9009 22.3382Z" fill="currentColor" />
</svg>