<svg viewBox="0 0 80 80" fill="none">
  <path d="M21.5201 21C20.3101 21 19.2186 21.7268 18.7521 22.8432L12.6049 37.5526C12.7308 37.5183 12.8633 37.5 13 37.5H67C67.1367 37.5 67.2692 37.5183 67.3951 37.5526L61.2479 22.8432C60.7814 21.7268 59.6898 21 58.4799 21H21.5201Z" fill="currentColor" />
  <path d="M21.5 49C21.5 48.7239 21.7239 48.5 22 48.5C22.2761 48.5 22.5 48.7239 22.5 49C22.5 49.2761 22.2761 49.5 22 49.5C21.7239 49.5 21.5 49.2761 21.5 49Z" fill="currentColor" />
  <path fill-rule="evenodd" clip-rule="evenodd" d="M12 59V40.1181C12.2654 40.3556 12.6158 40.5 13 40.5H67C67.3842 40.5 67.7346 40.3556 68 40.1181V59H12ZM61.5 45C61.5 44.1716 60.8284 43.5 60 43.5C59.1716 43.5 58.5 44.1716 58.5 45V53C58.5 53.8284 59.1716 54.5 60 54.5C60.8284 54.5 61.5 53.8284 61.5 53V45ZM52 43.5C52.8284 43.5 53.5 44.1716 53.5 45V53C53.5 53.8284 52.8284 54.5 52 54.5C51.1716 54.5 50.5 53.8284 50.5 53V45C50.5 44.1716 51.1716 43.5 52 43.5ZM22 45.5C20.067 45.5 18.5 47.067 18.5 49C18.5 50.933 20.067 52.5 22 52.5C23.933 52.5 25.5 50.933 25.5 49C25.5 47.067 23.933 45.5 22 45.5Z" fill="currentColor" />
</svg>