<svg viewBox="0 0 80 80" fill="none">
  <path d="M33 60.5C33 59.6716 33.6716 59 34.5 59C35.3284 59 36 59.6716 36 60.5V66C36 67.1046 35.1046 68 34 68H14C12.8954 68 12 67.1046 12 66V46C12 44.8954 12.8954 44 14 44H19.5C20.3284 44 21 44.6716 21 45.5C21 46.3284 20.3284 47 19.5 47H17.5C16.1193 47 15 48.1193 15 49.5V62.5C15 63.8807 16.1193 65 17.5 65H30.5C31.8807 65 33 63.8807 33 62.5V60.5Z" fill="currentColor" />
  <path d="M19.5 50C20.3284 50 21 50.6716 21 51.5V54C21 56.7614 23.2386 59 26 59H28.5C29.3284 59 30 59.6716 30 60.5C30 61.3284 29.3284 62 28.5 62H20C18.8954 62 18 61.1046 18 60V51.5C18 50.6716 18.6716 50 19.5 50Z" fill="currentColor" />
  <path d="M56 26C56 24.8954 55.1046 24 54 24H26C24.8954 24 24 24.8954 24 26V54C24 55.1046 24.8954 56 26 56H54C55.1046 56 56 55.1046 56 54V26Z" fill="currentColor" />
  <path d="M66 12C67.1046 12 68 12.8954 68 14V34C68 35.1046 67.1046 36 66 36H60.5C59.6716 36 59 35.3284 59 34.5C59 33.6716 59.6716 33 60.5 33H62.5C63.8807 33 65 31.8807 65 30.5V17.5C65 16.1193 63.8807 15 62.5 15H49.5C48.1193 15 47 16.1193 47 17.5V19.5C47 20.3284 46.3284 21 45.5 21C44.6716 21 44 20.3284 44 19.5V14C44 12.8954 44.8954 12 46 12H66Z" fill="currentColor" />
  <path d="M60.5 30C59.6716 30 59 29.3284 59 28.5V26C59 23.2386 56.7614 21 54 21H51.5C50.6716 21 50 20.3284 50 19.5C50 18.6716 50.6716 18 51.5 18H60C61.1046 18 62 18.8954 62 20V28.5C62 29.3284 61.3284 30 60.5 30Z" fill="currentColor" />
</svg>