<svg viewBox="0 0 80 80" fill="none">
  <path fill-rule="evenodd" clip-rule="evenodd" d="M39.9997 8C45.5645 10.6738 50.3078 14.9857 53.4997 20.5141C59.0689 30.1603 59.0689 42.0449 53.4997 51.6911C50.3078 57.2195 45.5645 61.5314 39.9997 64.2052C34.4348 61.5314 29.6915 57.2195 26.4997 51.6911C20.9304 42.0449 20.9304 30.1603 26.4997 20.5142C29.6915 14.9857 34.4348 10.6738 39.9997 8ZM39.9997 23C41.6565 23 42.9997 24.3431 42.9997 26V72C42.9997 73.6569 41.6565 75 39.9997 75C38.3428 75 36.9997 73.6569 36.9997 72V26C36.9997 24.3431 38.3428 23 39.9997 23Z" fill="currentColor" />
</svg>