<svg viewBox="0 0 80 80" fill="none">
  <path fill-rule="evenodd" clip-rule="evenodd" d="M52.6438 15.9068C49.4515 12.7652 45.1616 11 40.7183 11C36.275 11 32.0419 12.7652 28.9507 15.9068C26.895 17.9961 25.456 20.5805 24.7436 23.3841C22.2489 23.9808 19.9441 25.2571 18.1005 27.1007C15.475 29.7262 14 33.2872 14 37.0002C14 40.7132 15.475 44.2742 18.1005 46.8997C20.3287 49.1279 23.2306 50.5274 26.3275 50.9L39.8294 30.6727L39.1493 42.4987L33.4745 51.0002H33.799H38L38.0493 50.9999H38.6604L39.1493 42.4987L39.1629 42.4783L38.6819 50.9999H46.4782L46.8665 50.4183L43.4151 50.4183C41.7583 50.4183 40.4151 49.0751 40.4151 47.4183V40.6024L39.1629 42.4783L39.8294 30.6727C41.8037 27.7149 46.4151 29.1125 46.4151 32.6688V44.4183H51.3627C54.2352 44.4183 55.9478 47.6206 54.3531 50.0098L53.6921 51H55C57.9174 51 60.7153 49.8411 62.7782 47.7782C64.8411 45.7153 66 42.9174 66 40C66 37.0826 64.8411 34.2847 62.7782 32.2218C61.3812 30.8248 59.6471 29.8424 57.7671 29.3537L57.7413 27.7521C57.6698 23.3094 55.836 19.0484 52.6438 15.9068Z" fill="currentColor" />
  <path fill-rule="evenodd" clip-rule="evenodd" d="M36.5376 54.5814L28.59 54.5814C28.1143 54.5814 27.8307 54.0511 28.0948 53.6555L42.3243 32.3382C42.6513 31.8484 43.4149 32.0798 43.4149 32.6687V47.4182L51.3624 47.4182C51.8381 47.4182 52.1217 47.9485 51.8576 48.3442L37.6282 69.6614C37.3012 70.1512 36.5376 69.9198 36.5376 69.3309L36.5376 54.5814Z" fill="currentColor" />
</svg>