<svg viewBox="0 0 80 80" fill="none">
  <path d="M34.9282 63C33.2713 63 31.9282 61.6569 31.9282 60C31.9282 58.3431 33.2713 57 34.9282 57V63ZM49.0718 17C50.7286 17 52.0718 18.3431 52.0718 20C52.0718 21.6569 50.7286 23 49.0718 23V17ZM34.9282 57H47.5V63H34.9282V57ZM27.5 17H49.0718V23H27.5V17ZM47.5 46H27.5V40H47.5V46ZM27.5 46C19.4919 46 13 39.5081 13 31.5H19C19 36.1944 22.8056 40 27.5 40V46ZM53 51.5C53 48.4624 50.5376 46 47.5 46V40C53.8513 40 59 45.1487 59 51.5H53ZM27.5 23C22.8056 23 19 26.8056 19 31.5H13C13 23.4919 19.4919 17 27.5 17V23ZM47.5 57C50.5376 57 53 54.5376 53 51.5H59C59 57.8513 53.8513 63 47.5 63V57Z" fill="currentColor" />
  <path d="M24.5359 66C26.6795 67.2376 29.3205 67.2376 31.4641 66C33.6077 64.7624 34.9282 62.4752 34.9282 60C34.9282 57.5248 33.6077 55.2376 31.4641 54C29.3205 52.7624 26.6795 52.7624 24.5359 54C22.3923 55.2376 21.0718 57.5248 21.0718 60C21.0718 62.4752 22.3923 64.7624 24.5359 66Z" fill="currentColor" stroke="currentColor" stroke-width="6" stroke-linecap="round" stroke-linejoin="round" />
  <path d="M52.5359 26C54.6795 27.2376 57.3205 27.2376 59.4641 26C61.6077 24.7624 62.9282 22.4752 62.9282 20C62.9282 17.5248 61.6077 15.2376 59.4641 14C57.3205 12.7624 54.6795 12.7624 52.5359 14C50.3923 15.2376 49.0718 17.5248 49.0718 20C49.0718 22.4752 50.3923 24.7624 52.5359 26Z" fill="currentColor" stroke="currentColor" stroke-width="6" stroke-linecap="round" stroke-linejoin="round" />
</svg>