<svg viewBox="0 0 80 80" fill="none">
  <path fill-rule="evenodd" clip-rule="evenodd" d="M65.8769 20.9998C68.4791 20.9998 70.3886 23.4453 69.7574 25.9699L64.7574 45.9699C64.3123 47.7506 62.7123 48.9998 60.8769 48.9998H29.1231C27.2876 48.9998 25.6877 47.7506 25.2425 45.9699L20.2425 25.9699C19.6113 23.4453 21.5208 20.9998 24.1231 20.9998H65.8769Z" fill="currentColor" />
  <path d="M26.0403 61.5305C26.4421 63.1379 28.0709 64.1151 29.6783 63.7133C31.2857 63.3114 32.263 61.6826 31.8611 60.0753L26.0403 61.5305ZM17 13L19.9104 12.2724C19.5766 10.9369 18.3766 10 17 10V13ZM9 10C7.34315 10 6 11.3431 6 13C6 14.6569 7.34315 16 9 16V10ZM30.419 58C28.7621 58 27.419 59.3431 27.419 61C27.419 62.6569 28.7621 64 30.419 64V58ZM60.581 64C62.2379 64 63.581 62.6569 63.581 61C63.581 59.3431 62.2379 58 60.581 58V64ZM31.8611 60.0753L19.9104 12.2724L14.0896 13.7276L26.0403 61.5305L31.8611 60.0753ZM17 10H9V16H17V10ZM30.419 64H60.581V58H30.419V64Z" fill="currentColor" />
  <path d="M26.4019 61.4988C28.0096 60.5706 29.9904 60.5706 31.5981 61.4988C33.2058 62.427 34.1962 64.1424 34.1962 65.9988C34.1962 67.8552 33.2058 69.5706 31.5981 70.4988C29.9904 71.427 28.0096 71.427 26.4019 70.4988C24.7942 69.5706 23.8038 67.8552 23.8038 65.9988C23.8038 64.1424 24.7942 62.427 26.4019 61.4988Z" fill="currentColor" stroke="currentColor" stroke-width="6" stroke-linecap="round" stroke-linejoin="round" />
  <path d="M59.4019 61.4988C61.0096 60.5706 62.9904 60.5706 64.5981 61.4988C66.2058 62.427 67.1962 64.1424 67.1962 65.9988C67.1962 67.8552 66.2058 69.5706 64.5981 70.4988C62.9904 71.427 61.0096 71.427 59.4019 70.4988C57.7942 69.5706 56.8038 67.8552 56.8038 65.9988C56.8038 64.1424 57.7942 62.427 59.4019 61.4988Z" fill="currentColor" stroke="currentColor" stroke-width="6" stroke-linecap="round" stroke-linejoin="round" />
</svg>