<svg viewBox="0 0 80 80" fill="none">
  <path fill-rule="evenodd" clip-rule="evenodd" d="M64.4342 19.5938C63.344 15.6001 60.6954 12.2051 57.0644 10.1474L56.9366 10.0749C53.3056 8.01715 48.986 7.46306 44.9174 8.53318C40.7991 9.61635 37.2774 12.2743 35.1356 15.9156L34.3501 17.2511C33.686 16.9204 32.9854 16.654 32.2576 16.459C29.4348 15.7025 26.4315 16.0804 23.9092 17.5099C21.3869 18.9393 19.5518 21.3034 18.8078 24.0813C18.7097 24.4475 18.6316 24.817 18.5734 25.1882C15.9959 25.5671 13.5867 26.7533 11.7056 28.5998L11.6235 28.6804C9.30573 30.9555 8 34.0669 8 37.3146C8 40.5624 9.30573 43.6737 11.6235 45.9488L11.7056 46.0295C14.0191 48.3004 17.1314 49.5726 20.3731 49.5726H23.2129L23.2203 49.5727H30.0516L37.3033 34.6862C37.8058 33.6546 38.8528 33 40.0003 33C41.1478 33 42.1948 33.6546 42.6973 34.6862L49.9487 49.5727H56.7813C56.7869 49.5727 56.7925 49.5725 56.798 49.5723C56.8024 49.5721 56.8067 49.5719 56.8111 49.5715H59.6269C62.8686 49.5715 65.9809 48.2993 68.2944 46.0284L68.3765 45.9478C70.6943 43.6727 72 40.5613 72 37.3136C72 34.0658 70.6943 30.9545 68.3765 28.6794L68.2944 28.5987C67.261 27.5844 66.0682 26.7693 64.7757 26.1778C65.132 24.0011 65.0248 21.7573 64.4342 19.5938ZM43.2747 49.5727L40.0002 42.8504L36.7256 49.5727H43.2747Z" fill="currentColor" />
  <path d="M40.0003 36L52 60.6345L40.0003 72L28 60.6345L40.0003 36Z" fill="currentColor" />
</svg>