<svg viewBox="0 0 80 80" fill="none">
  <path d="M32 55C32 56.6569 30.6569 58 29 58C27.3431 58 26 56.6569 26 55L32 55ZM26 16C26 14.3431 27.3431 13 29 13C30.6569 13 32 14.3431 32 16H26ZM26 55L26 16H32L32 55L26 55Z" fill="currentColor" />
  <path d="M34.818 55L23.182 55C22.0078 55 21.4197 56.4197 22.25 57.25L27.5858 62.5858C28.3668 63.3668 29.6332 63.3668 30.4142 62.5858L35.75 57.25C36.5803 56.4197 35.9923 55 34.818 55Z" fill="currentColor" stroke="currentColor" stroke-width="5" stroke-linecap="round" stroke-linejoin="round" />
  <path d="M49.679 17.6958C48.4064 18.7568 48.2349 20.6485 49.2959 21.9211C50.3569 23.1937 52.2486 23.3652 53.5212 22.3042L49.679 17.6958ZM56.2799 16.0984L54.3588 13.7941L54.3588 13.7941L56.2799 16.0984ZM53.3978 36C53.3978 37.6569 54.741 39 56.3978 39C58.0547 39 59.3978 37.6569 59.3978 36H53.3978ZM53.5212 22.3042L58.2009 18.4026L54.3588 13.7941L49.679 17.6958L53.5212 22.3042ZM53.3978 16.1536V36H59.3978V16.1536H53.3978ZM58.2009 18.4026C56.2939 19.9925 53.3978 18.6365 53.3978 16.1536H59.3978C59.3978 13.5488 56.3595 12.1261 54.3588 13.7941L58.2009 18.4026Z" fill="currentColor" />
  <path d="M51 61C49.3431 61 48 62.3431 48 64C48 65.6569 49.3431 67 51 67V61ZM59.9972 49.6927L62.9971 49.705V49.705L59.9972 49.6927ZM57 54V55.5H63V54H57ZM53.8333 47H55V41H53.8333V47ZM51.5 61H51V67H51.5V61ZM53.8333 58.6667H53.9986V52.6667H53.8333V58.6667ZM57 49V54H63V49H57ZM62.9971 49.705L63 49.0123L57 48.9877L56.9972 49.6804L62.9971 49.705ZM45 49.8333C45 54.7118 48.9548 58.6667 53.8333 58.6667V52.6667C52.2685 52.6667 51 51.3981 51 49.8333H45ZM53.9986 58.6667C58.954 58.6667 62.9768 54.6603 62.9971 49.705L56.9972 49.6804C56.9904 51.3316 55.6499 52.6667 53.9986 52.6667V58.6667ZM57 55.5C57 58.5376 54.5376 61 51.5 61V67C57.8513 67 63 61.8513 63 55.5H57ZM55 47C56.1046 47 57 47.8954 57 49H63C63 44.5817 59.4183 41 55 41V47ZM51 49.8333C51 48.2685 52.2685 47 53.8333 47V41C48.9548 41 45 44.9548 45 49.8333H51Z" fill="currentColor" />
</svg>