<svg viewBox="0 0 80 80" fill="none">
  <path fill-rule="evenodd" clip-rule="evenodd" d="M27.9644 19.4053L24.7175 14.9656L27.9367 19.4255L27.9644 19.4053ZM20.5091 29.649L15.2725 27.9656L20.4985 29.6816L20.5091 29.649ZM59.5023 29.6813L64.7274 27.9656L59.4917 29.6487L59.5023 29.6813ZM52.0635 19.4251L55.2823 14.9656L52.0358 19.4049L52.0635 19.4251ZM40.0171 15.5001L39.9999 10L39.9828 15.5001L40.0171 15.5001ZM43.5266 25.1459C45.8188 25.8907 47.8163 27.342 49.233 29.2918C50.6496 31.2416 51.4126 33.5899 51.4126 36H28.5873C28.5873 33.5899 29.3502 31.2416 30.7669 29.2918C32.1835 27.342 34.1811 25.8907 36.4732 25.1459C38.7654 24.4011 41.2345 24.4011 43.5266 25.1459Z" fill="currentColor" />
  <path d="M24.7175 14.9656L26.7355 13.4898C25.9222 12.3778 24.3626 12.1332 23.248 12.943C22.1335 13.7528 21.8841 15.3116 22.6904 16.4287L24.7175 14.9656ZM27.9644 19.4053L29.4342 21.4276C29.9716 21.0371 30.3314 20.4487 30.4343 19.7924C30.5371 19.1361 30.3745 18.4658 29.9824 17.9296L27.9644 19.4053ZM27.9367 19.4255L25.9095 20.8887C26.2984 21.4274 26.8858 21.7892 27.5419 21.8942C28.1981 21.9991 28.869 21.8385 29.4065 21.4478L27.9367 19.4255ZM15.2725 27.9656L16.0376 25.5855C14.726 25.1639 13.3205 25.8828 12.8948 27.193C12.4691 28.5033 13.1836 29.911 14.4925 30.3408L15.2725 27.9656ZM20.5091 29.649L22.8868 30.4214C23.092 29.7895 23.0373 29.1019 22.7348 28.5105C22.4322 27.919 21.9067 27.4723 21.2742 27.269L20.5091 29.649ZM20.4985 29.6816L19.7185 32.0569C20.3498 32.2641 21.0376 32.2116 21.63 31.9109C22.2225 31.6101 22.6709 31.0859 22.8762 30.454L20.4985 29.6816ZM64.7274 27.9656L65.5074 30.3408C66.8163 29.911 67.5308 28.5033 67.105 27.193C66.6793 25.8828 65.2738 25.1639 63.9623 25.5855L64.7274 27.9656ZM59.5023 29.6813L57.1247 30.454C57.33 31.0858 57.7784 31.61 58.3708 31.9106C58.9633 32.2113 59.651 32.2638 60.2822 32.0566L59.5023 29.6813ZM59.4917 29.6487L58.7266 27.2687C58.094 27.472 57.5685 27.9188 57.2659 28.5103C56.9634 29.1018 56.9087 29.7894 57.1141 30.4213L59.4917 29.6487ZM55.2823 14.9656L57.3095 16.4287C58.1158 15.3116 57.8664 13.7528 56.7518 12.943C55.6373 12.1332 54.0776 12.3778 53.2644 13.4898L55.2823 14.9656ZM52.0635 19.4251L50.5943 21.4478C51.1318 21.8382 51.8026 21.9986 52.4586 21.8936C53.1146 21.7886 53.7019 21.4269 54.0907 20.8882L52.0635 19.4251ZM52.0358 19.4049L50.0178 17.9291C49.6256 18.4654 49.463 19.1358 49.566 19.7923C49.6689 20.4487 50.029 21.0371 50.5666 21.4276L52.0358 19.4049ZM39.9999 10L42.4999 9.9922C42.4956 8.61454 41.3776 7.5 39.9999 7.5C38.6223 7.5 37.5042 8.61454 37.4999 9.9922L39.9999 10ZM40.0171 15.5001L40.0176 18.0001C40.6819 17.9999 41.3188 17.7354 41.7878 17.2649C42.2567 16.7944 42.5191 16.1566 42.5171 15.4923L40.0171 15.5001ZM39.9828 15.5001L37.4828 15.4923C37.4807 16.1567 37.7433 16.7947 38.2124 17.2652C38.6816 17.7358 39.3188 18.0002 39.9833 18.0001L39.9828 15.5001ZM43.5266 25.1459L44.2992 22.7683H44.2992L43.5266 25.1459ZM51.4126 36V38.5C52.7933 38.5 53.9126 37.3807 53.9126 36H51.4126ZM28.5873 36H26.0873C26.0873 37.3807 27.2065 38.5 28.5873 38.5V36ZM30.7669 29.2918L28.7443 27.8223H28.7443L30.7669 29.2918ZM36.4732 25.1459L35.7007 22.7683H35.7007L36.4732 25.1459ZM22.6996 16.4413L25.9465 20.8811L29.9824 17.9296L26.7355 13.4898L22.6996 16.4413ZM29.9638 17.9624L26.7446 13.5024L22.6904 16.4287L25.9095 20.8887L29.9638 17.9624ZM26.4946 17.3831L26.4668 17.4032L29.4065 21.4478L29.4342 21.4276L26.4946 17.3831ZM14.5073 30.3456L19.7439 32.029L21.2742 27.269L16.0376 25.5855L14.5073 30.3456ZM21.2784 27.3064L16.0524 25.5903L14.4925 30.3408L19.7185 32.0569L21.2784 27.3064ZM18.1314 28.8766L18.1208 28.9092L22.8762 30.454L22.8868 30.4214L18.1314 28.8766ZM63.9474 25.5903L58.7223 27.3061L60.2822 32.0566L65.5074 30.3408L63.9474 25.5903ZM60.2568 32.0287L65.4925 30.3456L63.9623 25.5855L58.7266 27.2687L60.2568 32.0287ZM61.8799 28.9087L61.8693 28.8761L57.1141 30.4213L57.1247 30.454L61.8799 28.9087ZM53.2552 13.5024L50.0364 17.9619L54.0907 20.8882L57.3095 16.4287L53.2552 13.5024ZM54.0537 20.8807L57.3003 16.4413L53.2644 13.4898L50.0178 17.9291L54.0537 20.8807ZM53.5328 17.4023L53.505 17.3822L50.5666 21.4276L50.5943 21.4478L53.5328 17.4023ZM37.4999 10.0078L37.5171 15.5079L42.5171 15.4923L42.4999 9.9922L37.4999 10.0078ZM42.4828 15.5079L42.4999 10.0078L37.4999 9.9922L37.4828 15.4923L42.4828 15.5079ZM40.0166 13.0001L39.9823 13.0001L39.9833 18.0001L40.0176 18.0001L40.0166 13.0001ZM51.2555 27.8223C49.5286 25.4454 47.0935 23.6762 44.2992 22.7683L42.7541 27.5235C44.5442 28.1052 46.1041 29.2385 47.2104 30.7613L51.2555 27.8223ZM53.9126 36C53.9126 33.0619 52.9825 30.1993 51.2555 27.8223L47.2104 30.7613C48.3167 32.284 48.9126 34.1178 48.9126 36H53.9126ZM28.5873 38.5H51.4126V33.5H28.5873V38.5ZM28.7443 27.8223C27.0174 30.1993 26.0873 33.0619 26.0873 36H31.0873C31.0873 34.1178 31.6831 32.284 32.7894 30.7613L28.7443 27.8223ZM35.7007 22.7683C32.9064 23.6762 30.4713 25.4454 28.7443 27.8223L32.7894 30.7613C33.8957 29.2385 35.4557 28.1052 37.2458 27.5235L35.7007 22.7683ZM44.2992 22.7683C41.5049 21.8603 38.4949 21.8603 35.7007 22.7683L37.2458 27.5235C39.0358 26.9419 40.964 26.9419 42.7541 27.5235L44.2992 22.7683Z" fill="currentColor" />
  <path d="M8 36H72" stroke="currentColor" stroke-width="5" stroke-linecap="round" stroke-linejoin="round" />
  <path d="M37.5013 64C37.5013 65.3807 38.6206 66.5 40.0013 66.5C41.382 66.5 42.5013 65.3807 42.5013 64H37.5013ZM42.5013 45.9997C42.5013 44.619 41.382 43.4997 40.0013 43.4997C38.6206 43.4997 37.5013 44.619 37.5013 45.9997H42.5013ZM42.5013 64V45.9997H37.5013V64H42.5013Z" fill="currentColor" />
  <path d="M32.9155 64L47.0845 64C47.9035 64 48.2023 65.0786 47.5 65.5L41.2862 69.2283C40.4945 69.7033 39.5055 69.7033 38.7138 69.2283L32.5 65.5C31.7977 65.0786 32.0964 64 32.9155 64Z" fill="currentColor" stroke="currentColor" stroke-width="4" stroke-linecap="round" stroke-linejoin="round" />
</svg>