<svg viewBox="0 0 80 80" fill="none">
  <path d="M38 67.4167V69.4167H42V67.4167H38ZM42 59.7494V57.7494H38V59.7494H42ZM38 45.7494V47.7494H42V45.7494H38ZM42 33.0834V31.0834H38V33.0834H42ZM38 19.0834V21.0834H42V19.0834H38ZM42 11.4167V9.41669H38V11.4167H42ZM42 67.4167L42 59.7494H38L38 67.4167H42ZM42 45.7494L42 33.0834H38L38 45.7494H42ZM42 19.0834V11.4167H38V19.0834H42Z" fill="#FFC200" class="fill-yellow" />
  <path d="M21.334 19.0827L58.6673 19.0827V33.0827L21.334 33.0827L21.334 19.0827Z" fill="#7AC70C" class="fill-green" />
  <path d="M26 45.7507L54 45.7507V59.7507L26 59.7507L26 45.7507Z" fill="#AEEE52" class="fill-green" />
</svg>