<svg viewBox="0 0 80 80" fill="none">
  <path d="M50 23H62.4286L74 39H50V23Z" fill="#84D3FF" stroke="#84D3FF" stroke-width="4" stroke-linecap="square" class="fill-blue stroke-blue" />
  <path fill-rule="evenodd" clip-rule="evenodd" d="M74 39H50V55H56L62 49L68 55H74V39Z" fill="#F4F4F4" class="fill-white" />
  <path d="M50 39V37H48V39H50ZM74 39H76V37H74V39ZM50 55H48V57H50V55ZM56 55V57H56.8284L57.4142 56.4142L56 55ZM62 49L63.4142 47.5858L62 46.1716L60.5858 47.5858L62 49ZM68 55L66.5858 56.4142L67.1716 57H68V55ZM74 55V57H76V55H74ZM50 41H74V37H50V41ZM52 55V39H48V55H52ZM56 53H50V57H56V53ZM57.4142 56.4142L63.4142 50.4142L60.5858 47.5858L54.5858 53.5858L57.4142 56.4142ZM60.5858 50.4142L66.5858 56.4142L69.4142 53.5858L63.4142 47.5858L60.5858 50.4142ZM74 53H68V57H74V53ZM72 39V55H76V39H72Z" fill="#D2D2D2" class="fill-undefined" />
  <path d="M62 49L70 57L62 65L54 57L62 49Z" fill="black" stroke="black" stroke-width="4" stroke-linecap="square" class="fill-grey stroke-grey" />
  <path fill-rule="evenodd" clip-rule="evenodd" d="M50 15H6V55H13L19 49L25 55H50V15Z" fill="#F4F4F4" class="fill-white" />
  <path d="M6 15V13H4V15H6ZM50 15H52V13H50V15ZM6 55H4V57H6V55ZM13 55V57H13.8284L14.4142 56.4142L13 55ZM19 49L20.4142 47.5858L19 46.1716L17.5858 47.5858L19 49ZM25 55L23.5858 56.4142L24.1716 57H25V55ZM50 55V57H52V55H50ZM6 17H50V13H6V17ZM8 55V15H4V55H8ZM13 53H6V57H13V53ZM14.4142 56.4142L20.4142 50.4142L17.5858 47.5858L11.5858 53.5858L14.4142 56.4142ZM17.5858 50.4142L23.5858 56.4142L26.4142 53.5858L20.4142 47.5858L17.5858 50.4142ZM50 53H25V57H50V53ZM48 15V55H52V15H48Z" fill="#D2D2D2" class="fill-undefined" />
  <path d="M19 49L27 57L19 65L11 57L19 49Z" fill="black" stroke="black" stroke-width="4" stroke-linecap="square" class="fill-grey stroke-grey" />
  <path fill-rule="evenodd" clip-rule="evenodd" d="M24.923 40.595L24.923 43.6719H31.0768V40.595L31.0768 38.6719V38.4796V38.2873V38.095V37.9026V37.7103V37.518V37.3257V37.1334V37.0373V36.9411V36.845V36.7488L31.2691 36.7488H31.4614H31.6537H31.846H32.0383H32.2306H34.923H37.9999V30.595L34.923 30.595H32.2306H32.0383H31.846L31.6537 30.595H31.4614H31.2691L31.0768 30.595V30.4988V30.4026V30.3065V30.2103V30.1142V30.018V29.9219V29.8257V29.7296L31.0768 29.6334V29.5373V29.4411V29.2488V29.0565V28.8642V28.6719V28.4796V28.2873V28.2872L31.0768 28.095V28.0949L31.0768 27.9026L31.0768 26.7488L31.0769 23.6719L24.923 23.6719L24.923 26.7488L24.923 27.9026V28.095V28.095L24.923 28.2873V28.2873V28.4796V28.6719V28.8642V29.0565V29.2488V29.4411V29.5373V29.6334V29.7296V29.8257V29.9219V30.018V30.1142V30.2103V30.3065V30.4026V30.4988V30.595L24.923 30.595H24.7306H24.5383H21.0768H17.9999L17.9999 36.7488L21.0768 36.7488H24.5383H24.7306H24.923L24.923 36.7488V36.845V36.9411V37.0373V37.1334V37.3257L24.923 37.518V37.7103L24.923 37.9026V38.095V38.2873V38.4796V38.6719V40.595Z" fill="#D33131" class="fill-red" />
</svg>