<svg viewBox="0 0 80 80" fill="none">
  <path d="M50.6667 35.2H52.6667V33.2H50.6667V35.2ZM24 35.2V33.2H22V35.2H24ZM50.6667 64V66H52.6667V64H50.6667ZM24 64H22V66H24V64ZM48 37.2H50V33.2H48V37.2ZM26.6667 35.2H24.6667V37.2H26.6667V35.2ZM26.6667 16V14H24.6667V16H26.6667ZM42.6667 18H44.6667V14H42.6667V18ZM50.6667 35.2H48.6667V37.2H50.6667V35.2ZM56 37.2L58 37.2V33.2L56 33.2V37.2ZM52.6667 30.4V28.4L48.6667 28.4V30.4L52.6667 30.4ZM50.6667 33.2H24V37.2H50.6667V33.2ZM52.6667 49.6L52.6667 35.2H48.6667L48.6667 49.6H52.6667ZM52.6667 64V49.6H48.6667V64H52.6667ZM24 66H50.6667V62L24 62V66ZM22 35.2L22 64H26L26 35.2H22ZM48 33.2H26.6667V37.2H48V33.2ZM28.6667 35.2L28.6667 16H24.6667L24.6667 35.2H28.6667ZM26.6667 18L42.6667 18V14L26.6667 14V18ZM50.6667 37.2H56V33.2H50.6667V37.2ZM48.6667 30.4L48.6667 35.2H52.6667L52.6667 30.4L48.6667 30.4Z" fill="#7AC70C" class="fill-green" />
</svg>