<svg viewBox="0 0 80 80" fill="none">
  <path d="M39.9999 68.0001L39.3493 69.8914L39.9999 70.1152L40.6505 69.8914L39.9999 68.0001ZM22.7245 62.0573L20.9778 63.0315L21.3505 63.6996L22.0739 63.9485L22.7245 62.0573ZM17.7466 49.026L16.7724 47.2793L13.279 49.2276L14.2532 50.9743L17.7466 49.026ZM41.9999 28V26H37.9999V28H41.9999ZM57.2752 62.0573L57.9258 63.9485L58.6493 63.6996L59.0219 63.0315L57.2752 62.0573ZM65.7466 50.9743L66.7208 49.2276L63.2274 47.2793L62.2532 49.026L65.7466 50.9743ZM40.6505 66.1089L23.3751 60.1661L22.0739 63.9485L39.3493 69.8914L40.6505 66.1089ZM24.4712 61.0831L17.7466 49.026L14.2532 50.9743L20.9778 63.0315L24.4712 61.0831ZM37.9999 28V68.0001H41.9999V28H37.9999ZM40.6505 69.8914L57.9258 63.9485L56.6246 60.1661L39.3493 66.1089L40.6505 69.8914ZM59.0219 63.0315L65.7466 50.9743L62.2532 49.026L55.5285 61.0831L59.0219 63.0315Z" fill="#1CB0F6" class="fill-blue" />
  <path d="M16 42L21 50H20.7669H16H11.232H11L15.8832 42.187L16 42Z" fill="#7B61FF" stroke="#7B61FF" stroke-width="4" stroke-linecap="square" class="fill-purple stroke-purple" />
  <path d="M64 42L69 50H68.7669H64H59.232H59L63.8832 42.187L64 42Z" fill="#7B61FF" stroke="#7B61FF" stroke-width="4" stroke-linecap="square" class="fill-purple stroke-purple" />
  <path d="M40 12L46.9282 16V24L40 28L33.0718 24V16L40 12Z" fill="#84D3FF" stroke="#1CB0F6" stroke-width="4" stroke-linecap="square" class="fill-blue stroke-blue" />
  <path d="M32 36H48" stroke="#7B61FF" stroke-width="4" stroke-linecap="square" class="stroke-purple" />
</svg>