<svg viewBox="0 0 80 80" fill="none">
  <path fill-rule="evenodd" clip-rule="evenodd" d="M32.0001 44L19.1291 44L24.3143 39L39.8699 24L55.4254 39L60.6106 44H48.0001L48.0001 54V62L32.0001 62L32.0001 54V44Z" fill="#84D3FF" class="fill-blue" />
  <path d="M19.1291 44V46H14.1738L17.7408 42.5603L19.1291 44ZM32.0001 44V42H34.0001V44H32.0001ZM24.3143 39L25.7026 40.4397L24.3143 39ZM39.8699 24L38.4816 22.5603L39.8699 21.2216L41.2581 22.5603L39.8699 24ZM60.6106 44L61.9989 42.5603L65.566 46H60.6106V44ZM48.0001 44H46.0001V42H48.0001V44ZM48.0001 54H46.0001H48.0001ZM48.0001 62H50.0001V64H48.0001V62ZM32.0001 62V64H30.0001V62H32.0001ZM32.0001 54H34.0001H32.0001ZM19.1291 42L32.0001 42V46L19.1291 46V42ZM25.7026 40.4397L20.5174 45.4397L17.7408 42.5603L22.926 37.5603L25.7026 40.4397ZM41.2581 25.4397L25.7026 40.4397L22.926 37.5603L38.4816 22.5603L41.2581 25.4397ZM54.0371 40.4397L38.4816 25.4397L41.2581 22.5603L56.8137 37.5603L54.0371 40.4397ZM59.2223 45.4397L54.0371 40.4397L56.8137 37.5603L61.9989 42.5603L59.2223 45.4397ZM48.0001 42H60.6106V46H48.0001V42ZM46.0001 54L46.0001 44H50.0001L50.0001 54H46.0001ZM46.0001 62V54H50.0001V62H46.0001ZM32.0001 60L48.0001 60V64L32.0001 64V60ZM34.0001 54L34.0001 62H30.0001L30.0001 54H34.0001ZM34.0001 44V54H30.0001V44H34.0001Z" fill="#84D3FF" class="fill-blue" />
  <path d="M56 16L24 16" stroke="#84D3FF" stroke-width="4" stroke-linecap="square" class="stroke-blue" />
  <path d="M19.1291 44L60.6106 44L55.4254 39L39.8699 24L24.3143 39L19.1291 44Z" fill="#1CB0F6" stroke="#1CB0F6" stroke-width="4" stroke-linecap="square" class="fill-blue stroke-blue" />
</svg>