<svg viewBox="0 0 80 80" fill="none">
  <path fill-rule="evenodd" clip-rule="evenodd" d="M23.7644 36.9999L23.7644 52.3115L48.1885 71.7891L66.8501 67.5297L47.7667 52.3111L47.7667 36.9999L23.7644 36.9999Z" fill="#84D3FF" class="fill-blue" />
  <path d="M23.7644 36.9999L23.7644 35.4999L22.2644 35.4999L22.2644 36.9999L23.7644 36.9999ZM23.7644 52.3115L22.2644 52.3115L22.2644 53.0338L22.8292 53.4842L23.7644 52.3115ZM48.1885 71.7891L47.2533 72.9618L47.8181 73.4122L48.5223 73.2515L48.1885 71.7891ZM66.8501 67.5297L67.1839 68.9921L70.2206 68.299L67.7854 66.3569L66.8501 67.5297ZM47.7667 52.3111L46.2667 52.3111L46.2667 53.0335L46.8315 53.4839L47.7667 52.3111ZM47.7667 36.9999L49.2667 36.9999L49.2667 35.4999L47.7667 35.4999L47.7667 36.9999ZM22.2644 36.9999L22.2644 52.3115L25.2644 52.3115L25.2644 36.9999L22.2644 36.9999ZM22.8292 53.4842L47.2533 72.9618L49.1238 70.6163L24.6996 51.1387L22.8292 53.4842ZM48.5223 73.2515L67.1839 68.9921L66.5163 66.0673L47.8547 70.3267L48.5223 73.2515ZM67.7854 66.3569L48.7019 51.1384L46.8315 53.4839L65.9149 68.7024L67.7854 66.3569ZM49.2667 52.3111L49.2667 36.9999L46.2667 36.9999L46.2667 52.3111L49.2667 52.3111ZM47.7667 35.4999L23.7644 35.4999L23.7644 38.4999L47.7667 38.4999L47.7667 35.4999Z" fill="#84D3FF" class="fill-blue" />
  <path d="M64.9629 37L8.96289 37L15.9629 30L36.9629 9L57.9629 30L64.9629 37Z" fill="#1CB0F6" class="fill-blue" />
  <path d="M8.96289 37L7.90223 35.9393L5.34157 38.5L8.96289 38.5L8.96289 37ZM64.9629 37L64.9629 38.5L68.5842 38.5L66.0236 35.9393L64.9629 37ZM15.9629 30L17.0236 31.0607L15.9629 30ZM36.9629 9L38.0236 7.93934L36.9629 6.87867L35.9022 7.93934L36.9629 9ZM57.9629 30L56.9022 31.0607L56.9022 31.0607L57.9629 30ZM8.96289 38.5L64.9629 38.5L64.9629 35.5L8.96289 35.5L8.96289 38.5ZM10.0236 38.0607L17.0236 31.0607L14.9022 28.9393L7.90223 35.9393L10.0236 38.0607ZM17.0236 31.0607L38.0236 10.0607L35.9022 7.93934L14.9022 28.9393L17.0236 31.0607ZM35.9022 10.0607L56.9022 31.0607L59.0236 28.9393L38.0236 7.93934L35.9022 10.0607ZM56.9022 31.0607L63.9022 38.0607L66.0236 35.9393L59.0236 28.9393L56.9022 31.0607Z" fill="#1CB0F6" class="fill-blue" />
</svg>