<svg viewBox="0 0 80 80" fill="none">
  <rect x="16" y="16" width="48" height="48" fill="#AEEE52" stroke="#7AC70C" stroke-width="4" stroke-linecap="square" class="fill-green stroke-green" />
  <path fill-rule="evenodd" clip-rule="evenodd" d="M46.4 40L56.6967 40L52.5485 36L40.1041 24L27.6596 36L23.5115 40H33.6L33.6 48L33.6 54.4H46.4V48V40Z" fill="#FF9100" class="fill-orange" />
  <path d="M56.6967 40V42H61.652L58.0849 38.5603L56.6967 40ZM46.4 40V38H44.4V40H46.4ZM52.5485 36L51.1602 37.4397L52.5485 36ZM40.1041 24L41.4923 22.5603L40.1041 21.2216L38.7158 22.5603L40.1041 24ZM23.5115 40L22.1232 38.5603L18.5561 42H23.5115V40ZM33.6 40H35.6V38H33.6V40ZM33.6 48H35.6H33.6ZM33.6 54.4H31.6V56.4H33.6V54.4ZM46.4 54.4V56.4H48.4V54.4H46.4ZM56.6967 38L46.4 38V42L56.6967 42V38ZM51.1602 37.4397L55.3084 41.4397L58.0849 38.5603L53.9368 34.5603L51.1602 37.4397ZM38.7158 25.4397L51.1602 37.4397L53.9368 34.5603L41.4923 22.5603L38.7158 25.4397ZM29.0479 37.4397L41.4923 25.4397L38.7158 22.5603L26.2714 34.5603L29.0479 37.4397ZM24.8997 41.4397L29.0479 37.4397L26.2714 34.5603L22.1232 38.5603L24.8997 41.4397ZM33.6 38H23.5115V42H33.6V38ZM35.6 48L35.6 40H31.6L31.6 48H35.6ZM35.6 54.4L35.6 48H31.6L31.6 54.4H35.6ZM46.4 52.4H33.6V56.4L46.4 56.4V52.4ZM44.4 48V54.4H48.4V48H44.4ZM44.4 40V48H48.4V40H44.4Z" fill="#FF9100" class="fill-orange" />
</svg>