<svg viewBox="0 0 80 80" fill="none">
  <path d="M20 64.334H60C62.2091 64.334 64 62.5431 64 60.334L64 20.334C64 18.1248 62.2091 16.334 60 16.334L20 16.334C17.7909 16.334 16 18.1248 16 20.334L16 60.334C16 62.5431 17.7909 64.334 20 64.334Z" fill="#84D3FF" class="fill-blue" />
  <path d="M62.8995 20.2626L64.3137 18.8484L61.4852 16.02L60.071 17.4342L62.8995 20.2626ZM34.615 42.8902L33.2008 44.3044L36.0292 47.1329L37.4434 45.7186L34.615 42.8902ZM60.071 17.4342L34.615 42.8902L37.4434 45.7186L62.8995 20.2626L60.071 17.4342Z" fill="#F4F4F4" class="fill-white" />
  <path d="M69.9716 27.3348L53.001 10.3642L57.2437 10.3642L69.9716 10.3642V23.0921L69.9716 27.3348Z" fill="#1CB0F6" stroke="#1CB0F6" stroke-width="4" stroke-linecap="square" class="fill-blue stroke-blue" />
</svg>