<svg viewBox="0 0 80 80" fill="none">
  <rect x="10" y="22" width="56" height="36" fill="#1CB0F6" class="fill-blue" />
  <path d="M66 32H66.5H70V48H66.5H66V32Z" fill="#FFC200" class="fill-yellow" />
  <path fill-rule="evenodd" clip-rule="evenodd" d="M23 28.3379V31L23 49V52H17L17 49L17 31L17 28.3379H23Z" fill="#FFC200" class="fill-yellow" />
  <path d="M23 28.3379L25 28.3379L25 26.3379H23V28.3379ZM23 31L21 31V31H23ZM23 49H25H23ZM23 52V54H25V52H23ZM17 52H15V54H17V52ZM17 49H15H17ZM17 31H19H17ZM17 28.3379V26.3379H15L15 28.3379L17 28.3379ZM21 28.3379L21 31L25 31V28.3379L21 28.3379ZM21 31L21 49H25L25 31H21ZM21 49L21 52H25L25 49H21ZM23 50H17V54H23V50ZM19 52V49H15L15 52H19ZM19 49L19 31H15L15 49H19ZM19 31V28.3379L15 28.3379L15 31H19ZM17 30.3379H23V26.3379H17V30.3379Z" fill="#FFC200" class="fill-yellow" />
</svg>