<svg viewBox="0 0 80 80" fill="none">
  <rect x="10" y="22" width="56" height="36" fill="#1CB0F6" class="fill-blue" />
  <path d="M66 32H66.5H70V48H66.5H66V32Z" fill="#FFC200" class="fill-yellow" />
  <path fill-rule="evenodd" clip-rule="evenodd" d="M41 28.3379H47V31V49V52H41V49V31V28.3379ZM29 28.3379H35V31V49V52H29V49L29 31V28.3379ZM23 28.3379V31L23 49V52H17V49L17 31V28.3379H23Z" fill="#FFC200" class="fill-yellow" />
  <path d="M41 28.3379V26.3379H39V28.3379H41ZM47 28.3379H49V26.3379H47V28.3379ZM47 52V54H49V52H47ZM41 52H39V54H41V52ZM29 28.3379V26.3379L27 26.3379V28.3379L29 28.3379ZM35 28.3379H37V26.3379H35V28.3379ZM35 52V54H37V52H35ZM29 52H27V54H29V52ZM29 49H27H29ZM29 31L31 31L29 31ZM23 28.3379H25V26.3379H23V28.3379ZM23 31H25H23ZM23 49H21H23ZM23 52V54H25V52H23ZM17 52H15V54H17V52ZM17 28.3379V26.3379H15V28.3379H17ZM41 30.3379H47V26.3379H41V30.3379ZM49 31V28.3379H45V31L49 31ZM49 49V31L45 31V49H49ZM49 52V49H45V52H49ZM41 54H47V50H41V54ZM39 49V52H43V49H39ZM39 31V49H43V31H39ZM39 28.3379V31H43V28.3379H39ZM29 30.3379L35 30.3379V26.3379H29V30.3379ZM33 28.3379V31H37V28.3379H33ZM33 31V49H37V31H33ZM33 49V52H37V49H33ZM35 50H29V54H35V50ZM31 52V49H27V52H31ZM31 49L31 31L27 31L27 49H31ZM31 31V28.3379L27 28.3379V31L31 31ZM21 28.3379V31H25V28.3379H21ZM21 31L21 49H25L25 31H21ZM21 49V52H25V49H21ZM23 50H17V54H23V50ZM19 52V49H15V52H19ZM19 49L19 31H15L15 49H19ZM19 31V28.3379H15V31H19ZM17 30.3379H23V26.3379H17V30.3379Z" fill="#FFC200" class="fill-yellow" />
</svg>