<svg viewBox="0 0 80 80" fill="none">
  <path d="M16 62H14V66H16L16 62ZM64 66H66V62H64V66ZM66 16V14L62 14V16L66 16ZM62 64V66H66V64H62ZM16.005 66H18.005V62H16.005V66ZM23.995 62H21.995V66H23.995V62ZM24.005 66H26.005V62H24.005V66ZM31.995 62H29.995V66H31.995V62ZM32.005 66H34.005V62H32.005V66ZM39.995 62L37.995 62V66H39.995V62ZM40.005 66H42.005V62H40.005V66ZM47.995 62H45.995V66H47.995V62ZM48.005 66H50.005V62H48.005V66ZM55.995 62H53.995V66H55.995V62ZM56.005 66H58.005V62H56.005V66ZM63.995 62H61.995V66H63.995V62ZM66 63.995V61.995H62V63.995H66ZM62 56.005V58.005H66V56.005H62ZM66 55.995V53.995H62V55.995H66ZM62 48.005V50.005H66V48.005H62ZM66 47.995V45.995H62V47.995H66ZM62 40.005V42.005H66V40.005H62ZM66 39.995V37.995L62 37.995L62 39.995L66 39.995ZM62 32.005V34.005L66 34.005V32.005L62 32.005ZM66 31.995V29.995H62V31.995H66ZM62 24.005V26.005H66V24.005H62ZM66 23.995V21.995H62V23.995H66ZM62 16.005V18.005H66V16.005L62 16.005ZM16 66H16.005V62H16L16 66ZM23.995 66H24.005V62H23.995V66ZM31.995 66H32.005V62H31.995V66ZM39.995 66H40.005V62H39.995V66ZM47.995 66H48.005V62H47.995V66ZM55.995 66H56.005V62H55.995V66ZM63.995 66H64V62H63.995V66ZM66 64V63.995H62V64H66ZM66 56.005V55.995H62V56.005H66ZM66 48.005V47.995H62V48.005H66ZM66 40.005V39.995L62 39.995V40.005H66ZM66 32.005V31.995H62V32.005L66 32.005ZM66 24.005V23.995H62V24.005H66ZM66 16.005V16L62 16V16.005L66 16.005Z" fill="#84D3FF" class="fill-blue" />
  <path d="M16 14H14V18H16V14ZM64 18H66V14H64V18ZM18 16V14L14 14V16L18 16ZM14 64V66H18L18 64H14ZM16 18L64 18V14L16 14V18ZM14 16L14 64H18L18 16L14 16Z" fill="#1CB0F6" class="fill-blue" />
</svg>