<svg viewBox="0 0 80 80" fill="none">
  <path fill-rule="evenodd" clip-rule="evenodd" d="M12 48.4212L12 44.4212L12 40.0001L12 35.5791L12 31.5791L16 31.5791L29 31.5791L29 30.737L21 30.737L17 30.737L17 26.737L17 22.8072L17 21.1503L18.1716 19.9787L19.9787 18.1716L22.8072 15.3431L28.464 21L26.727 22.737L29 22.737L29 15.93L29 11.93L37 11.93L37 15.93L37 26.737L37 35.5791L37 39.5791L33 39.5791L20 39.5791L20 40.0001L20 40.4212L33 40.4212L37 40.4212L37 44.4212L37 53.2633L37 64.0703L37 68.0703L29 68.0703L29 64.0703L29 57.2633L26.727 57.2633L28.464 59.0003L22.8072 64.6571L19.9787 61.8287L18.1716 60.0215L17 58.85L17 57.1931L17 53.2633L17 49.2633L21 49.2633L29 49.2633L29 48.4212L16 48.4212L12 48.4212Z" fill="#FFC200" class="fill-yellow" />
  <path d="M12 44.4212L10 44.4212L12 44.4212ZM12 48.4212L10 48.4212L10 50.4212L12 50.4212L12 48.4212ZM12 35.5791L10 35.5791L12 35.5791ZM12 31.5791L12 29.5791L10 29.5791L10 31.5791L12 31.5791ZM16 31.5791L16 29.5791L16 31.5791ZM29 31.5791L29 33.5791L31 33.5791L31 31.5791L29 31.5791ZM29 30.737L31 30.737L31 28.737L29 28.737L29 30.737ZM21 30.737L21 28.737L21 30.737ZM17 30.737L15 30.737L15 32.737L17 32.737L17 30.737ZM17 26.737L15 26.737L17 26.737ZM17 22.8072L15 22.8072L17 22.8072ZM17 21.1503L15.5858 19.7361L15 20.3219L15 21.1503L17 21.1503ZM18.1716 19.9787L16.7574 18.5645L16.7574 18.5645L18.1716 19.9787ZM19.9787 18.1716L18.5645 16.7574L19.9787 18.1716ZM22.8072 15.3431L24.2214 13.9289L22.8072 12.5147L21.3929 13.9289L22.8072 15.3431ZM28.464 21L29.8782 22.4142L31.2924 21L29.8782 19.5858L28.464 21ZM26.727 22.737L25.3128 21.3228L21.8986 24.737L26.727 24.737L26.727 22.737ZM29 22.737L29 24.737L31 24.737L31 22.737L29 22.737ZM29 15.93L27 15.93L29 15.93ZM29 11.93L29 9.92996L27 9.92996L27 11.93L29 11.93ZM37 11.93L39 11.93L39 9.92996L37 9.92996L37 11.93ZM37 15.93L35 15.93L37 15.93ZM37 35.5791L35 35.5791L37 35.5791ZM37 39.5791L37 41.5791L39 41.5791L39 39.5791L37 39.5791ZM33 39.5791L33 37.5791L33 39.5791ZM20 39.5791L20 37.5791L18 37.5791L18 39.5791L20 39.5791ZM20 40.0001L18 40.0001L20 40.0001ZM20 40.4212L18 40.4212L18 42.4212L20 42.4212L20 40.4212ZM33 40.4212L33 38.4212L33 40.4212ZM37 40.4212L39 40.4212L39 38.4212L37 38.4212L37 40.4212ZM37 44.4212L35 44.4212L37 44.4212ZM37 64.0703L35 64.0703L37 64.0703ZM37 68.0703L37 70.0703L39 70.0703L39 68.0703L37 68.0703ZM29 68.0703L27 68.0703L27 70.0703L29 70.0703L29 68.0703ZM29 64.0703L27 64.0703L29 64.0703ZM29 57.2633L31 57.2633L31 55.2633L29 55.2633L29 57.2633ZM26.727 57.2633L26.727 55.2633L21.8986 55.2633L25.3128 58.6775L26.727 57.2633ZM28.464 59.0003L29.8782 60.4145L31.2924 59.0003L29.8782 57.5861L28.464 59.0003ZM22.8072 64.6571L21.3929 66.0713L22.8072 67.4856L24.2214 66.0713L22.8072 64.6571ZM19.9787 61.8287L21.3929 60.4145L19.9787 61.8287ZM18.1716 60.0215L16.7574 61.4358L16.7574 61.4358L18.1716 60.0215ZM17 58.85L15 58.85L15 59.6784L15.5858 60.2642L17 58.85ZM17 57.1931L15 57.1931L17 57.1931ZM17 53.2633L15 53.2633L17 53.2633ZM17 49.2633L17 47.2633L15 47.2633L15 49.2633L17 49.2633ZM21 49.2633L21 47.2633L21 49.2633ZM29 49.2633L29 51.2633L31 51.2633L31 49.2633L29 49.2633ZM29 48.4212L31 48.4212L31 46.4212L29 46.4212L29 48.4212ZM16 48.4212L16 46.4212L16 48.4212ZM10 44.4212L10 48.4212L14 48.4212L14 44.4212L10 44.4212ZM10 40.0001L10 44.4212L14 44.4212L14 40.0001L10 40.0001ZM10 35.5791L10 40.0001L14 40.0001L14 35.5791L10 35.5791ZM10 31.5791L10 35.5791L14 35.5791L14 31.5791L10 31.5791ZM16 29.5791L12 29.5791L12 33.5791L16 33.5791L16 29.5791ZM29 29.5791L16 29.5791L16 33.5791L29 33.5791L29 29.5791ZM27 30.737L27 31.5791L31 31.5791L31 30.737L27 30.737ZM21 32.737L29 32.737L29 28.737L21 28.737L21 32.737ZM17 32.737L21 32.737L21 28.737L17 28.737L17 32.737ZM15 26.737L15 30.737L19 30.737L19 26.737L15 26.737ZM15 22.8072L15 26.737L19 26.737L19 22.8072L15 22.8072ZM15 21.1503L15 22.8072L19 22.8072L19 21.1503L15 21.1503ZM16.7574 18.5645L15.5858 19.7361L18.4142 22.5645L19.5858 21.3929L16.7574 18.5645ZM18.5645 16.7574L16.7574 18.5645L19.5858 21.3929L21.3929 19.5858L18.5645 16.7574ZM21.3929 13.9289L18.5645 16.7574L21.3929 19.5858L24.2214 16.7574L21.3929 13.9289ZM29.8782 19.5858L24.2214 13.9289L21.3929 16.7574L27.0498 22.4142L29.8782 19.5858ZM28.1412 24.1512L29.8782 22.4142L27.0498 19.5858L25.3128 21.3228L28.1412 24.1512ZM29 20.737L26.727 20.737L26.727 24.737L29 24.737L29 20.737ZM27 15.93L27 22.737L31 22.737L31 15.93L27 15.93ZM27 11.93L27 15.93L31 15.93L31 11.93L27 11.93ZM37 9.92996L29 9.92996L29 13.93L37 13.93L37 9.92996ZM39 15.93L39 11.93L35 11.93L35 15.93L39 15.93ZM39 26.737L39 15.93L35 15.93L35 26.737L39 26.737ZM39 35.5791L39 26.737L35 26.737L35 35.5791L39 35.5791ZM39 39.5791L39 35.5791L35 35.5791L35 39.5791L39 39.5791ZM33 41.5791L37 41.5791L37 37.5791L33 37.5791L33 41.5791ZM20 41.5791L33 41.5791L33 37.5791L20 37.5791L20 41.5791ZM22 40.0001L22 39.5791L18 39.5791L18 40.0001L22 40.0001ZM22 40.4212L22 40.0001L18 40.0001L18 40.4212L22 40.4212ZM33 38.4212L20 38.4212L20 42.4212L33 42.4212L33 38.4212ZM37 38.4212L33 38.4212L33 42.4212L37 42.4212L37 38.4212ZM39 44.4212L39 40.4212L35 40.4212L35 44.4212L39 44.4212ZM39 53.2633L39 44.4212L35 44.4212L35 53.2633L39 53.2633ZM39 64.0703L39 53.2633L35 53.2633L35 64.0703L39 64.0703ZM39 68.0703L39 64.0703L35 64.0703L35 68.0703L39 68.0703ZM29 70.0703L37 70.0703L37 66.0703L29 66.0703L29 70.0703ZM27 64.0703L27 68.0703L31 68.0703L31 64.0703L27 64.0703ZM27 57.2633L27 64.0703L31 64.0703L31 57.2633L27 57.2633ZM26.727 59.2633L29 59.2633L29 55.2633L26.727 55.2633L26.727 59.2633ZM29.8782 57.5861L28.1412 55.8491L25.3128 58.6775L27.0498 60.4145L29.8782 57.5861ZM24.2214 66.0713L29.8782 60.4145L27.0498 57.5861L21.3929 63.2429L24.2214 66.0713ZM18.5645 63.2429L21.3929 66.0713L24.2214 63.2429L21.3929 60.4145L18.5645 63.2429ZM16.7574 61.4358L18.5645 63.2429L21.3929 60.4145L19.5858 58.6073L16.7574 61.4358ZM15.5858 60.2642L16.7574 61.4358L19.5858 58.6073L18.4142 57.4358L15.5858 60.2642ZM15 57.1931L15 58.85L19 58.85L19 57.1931L15 57.1931ZM15 53.2633L15 57.1931L19 57.1931L19 53.2633L15 53.2633ZM15 49.2633L15 53.2633L19 53.2633L19 49.2633L15 49.2633ZM21 47.2633L17 47.2633L17 51.2633L21 51.2633L21 47.2633ZM29 47.2633L21 47.2633L21 51.2633L29 51.2633L29 47.2633ZM27 48.4212L27 49.2633L31 49.2633L31 48.4212L27 48.4212ZM16 50.4212L29 50.4212L29 46.4212L16 46.4212L16 50.4212ZM12 50.4212L16 50.4212L16 46.4212L12 46.4212L12 50.4212Z" fill="#D33131" class="fill-red" />
  <path fill-rule="evenodd" clip-rule="evenodd" d="M68 48.4212L68 44.4212L68 40.0001L68 35.5791L68 31.5791L64 31.5791L51 31.5791L51 30.737L59 30.737L63 30.737L63 26.737L63 22.8072L63 21.1503L61.8284 19.9787L60.0213 18.1716L57.1928 15.3431L51.536 21L53.273 22.737L51 22.737L51 15.93L51 11.93L43 11.93L43 15.93L43 26.737L43 35.5791L43 39.5791L47 39.5791L60 39.5791L60 40.0001L60 40.4212L47 40.4212L43 40.4212L43 44.4212L43 53.2633L43 64.0703L43 68.0703L51 68.0703L51 64.0703L51 57.2633L53.273 57.2633L51.536 59.0003L57.1928 64.6571L60.0213 61.8287L61.8284 60.0215L63 58.85L63 57.1931L63 53.2633L63 49.2633L59 49.2633L51 49.2633L51 48.4212L64 48.4212L68 48.4212Z" fill="#FFC200" class="fill-yellow" />
  <path d="M68 44.4212L70 44.4212L68 44.4212ZM68 48.4212L70 48.4212L70 50.4212L68 50.4212L68 48.4212ZM68 35.5791L70 35.5791L68 35.5791ZM68 31.5791L68 29.5791L70 29.5791L70 31.5791L68 31.5791ZM51 31.5791L51 33.5791L49 33.5791L49 31.5791L51 31.5791ZM51 30.737L49 30.737L49 28.737L51 28.737L51 30.737ZM63 30.737L65 30.737L65 32.737L63 32.737L63 30.737ZM63 26.737L65 26.737L63 26.737ZM63 22.8072L65 22.8072L63 22.8072ZM63 21.1503L64.4142 19.7361L65 20.3219L65 21.1503L63 21.1503ZM61.8284 19.9787L63.2426 18.5645L63.2426 18.5645L61.8284 19.9787ZM60.0213 18.1716L61.4355 16.7574L60.0213 18.1716ZM57.1928 15.3431L55.7786 13.9289L57.1928 12.5147L58.6071 13.9289L57.1928 15.3431ZM51.536 21L50.1218 22.4142L48.7076 21L50.1218 19.5858L51.536 21ZM53.273 22.737L54.6872 21.3228L58.1014 24.737L53.273 24.737L53.273 22.737ZM51 22.737L51 24.737L49 24.737L49 22.737L51 22.737ZM51 15.93L53 15.93L51 15.93ZM51 11.93L51 9.92996L53 9.92996L53 11.93L51 11.93ZM43 11.93L41 11.93L41 9.92996L43 9.92996L43 11.93ZM43 15.93L45 15.93L43 15.93ZM43 35.5791L45 35.5791L43 35.5791ZM43 39.5791L43 41.5791L41 41.5791L41 39.5791L43 39.5791ZM47 39.5791L47 37.5791L47 39.5791ZM60 39.5791L60 37.5791L62 37.5791L62 39.5791L60 39.5791ZM60 40.0001L62 40.0001L60 40.0001ZM60 40.4212L62 40.4212L62 42.4212L60 42.4212L60 40.4212ZM47 40.4212L47 38.4212L47 40.4212ZM43 40.4212L41 40.4212L41 38.4212L43 38.4212L43 40.4212ZM43 44.4212L45 44.4212L43 44.4212ZM43 64.0703L45 64.0703L43 64.0703ZM43 68.0703L43 70.0703L41 70.0703L41 68.0703L43 68.0703ZM51 68.0703L53 68.0703L53 70.0703L51 70.0703L51 68.0703ZM51 64.0703L53 64.0703L51 64.0703ZM51 57.2633L49 57.2633L49 55.2633L51 55.2633L51 57.2633ZM53.273 57.2633L53.273 55.2633L58.1014 55.2633L54.6872 58.6775L53.273 57.2633ZM51.536 59.0003L50.1218 60.4145L48.7076 59.0003L50.1218 57.5861L51.536 59.0003ZM57.1928 64.6571L58.6071 66.0713L57.1928 67.4856L55.7786 66.0713L57.1928 64.6571ZM60.0213 61.8287L58.6071 60.4145L60.0213 61.8287ZM61.8284 60.0215L63.2426 61.4358L63.2426 61.4358L61.8284 60.0215ZM63 58.85L65 58.85L65 59.6784L64.4142 60.2642L63 58.85ZM63 57.1931L65 57.1931L63 57.1931ZM63 53.2633L65 53.2633L63 53.2633ZM63 49.2633L63 47.2633L65 47.2633L65 49.2633L63 49.2633ZM51 49.2633L51 51.2633L49 51.2633L49 49.2633L51 49.2633ZM51 48.4212L49 48.4212L49 46.4212L51 46.4212L51 48.4212ZM70 44.4212L70 48.4212L66 48.4212L66 44.4212L70 44.4212ZM70 40.0001L70 44.4212L66 44.4212L66 40.0001L70 40.0001ZM70 35.5791L70 40.0001L66 40.0001L66 35.5791L70 35.5791ZM70 31.5791L70 35.5791L66 35.5791L66 31.5791L70 31.5791ZM64 29.5791L68 29.5791L68 33.5791L64 33.5791L64 29.5791ZM51 29.5791L64 29.5791L64 33.5791L51 33.5791L51 29.5791ZM53 30.737L53 31.5791L49 31.5791L49 30.737L53 30.737ZM59 32.737L51 32.737L51 28.737L59 28.737L59 32.737ZM63 32.737L59 32.737L59 28.737L63 28.737L63 32.737ZM65 26.737L65 30.737L61 30.737L61 26.737L65 26.737ZM65 22.8072L65 26.737L61 26.737L61 22.8072L65 22.8072ZM65 21.1503L65 22.8072L61 22.8072L61 21.1503L65 21.1503ZM63.2426 18.5645L64.4142 19.7361L61.5858 22.5645L60.4142 21.3929L63.2426 18.5645ZM61.4355 16.7574L63.2426 18.5645L60.4142 21.3929L58.6071 19.5858L61.4355 16.7574ZM58.6071 13.9289L61.4355 16.7574L58.6071 19.5858L55.7786 16.7574L58.6071 13.9289ZM50.1218 19.5858L55.7786 13.9289L58.6071 16.7574L52.9502 22.4142L50.1218 19.5858ZM51.8588 24.1512L50.1218 22.4142L52.9502 19.5858L54.6872 21.3228L51.8588 24.1512ZM51 20.737L53.273 20.737L53.273 24.737L51 24.737L51 20.737ZM53 15.93L53 22.737L49 22.737L49 15.93L53 15.93ZM53 11.93L53 15.93L49 15.93L49 11.93L53 11.93ZM43 9.92996L51 9.92996L51 13.93L43 13.93L43 9.92996ZM41 15.93L41 11.93L45 11.93L45 15.93L41 15.93ZM41 26.737L41 15.93L45 15.93L45 26.737L41 26.737ZM41 35.5791L41 26.737L45 26.737L45 35.5791L41 35.5791ZM41 39.5791L41 35.5791L45 35.5791L45 39.5791L41 39.5791ZM47 41.5791L43 41.5791L43 37.5791L47 37.5791L47 41.5791ZM60 41.5791L47 41.5791L47 37.5791L60 37.5791L60 41.5791ZM58 40.0001L58 39.5791L62 39.5791L62 40.0001L58 40.0001ZM58 40.4212L58 40.0001L62 40.0001L62 40.4212L58 40.4212ZM47 38.4212L60 38.4212L60 42.4212L47 42.4212L47 38.4212ZM43 38.4212L47 38.4212L47 42.4212L43 42.4212L43 38.4212ZM41 44.4212L41 40.4212L45 40.4212L45 44.4212L41 44.4212ZM41 53.2633L41 44.4212L45 44.4212L45 53.2633L41 53.2633ZM41 64.0703L41 53.2633L45 53.2633L45 64.0703L41 64.0703ZM41 68.0703L41 64.0703L45 64.0703L45 68.0703L41 68.0703ZM51 70.0703L43 70.0703L43 66.0703L51 66.0703L51 70.0703ZM53 64.0703L53 68.0703L49 68.0703L49 64.0703L53 64.0703ZM53 57.2633L53 64.0703L49 64.0703L49 57.2633L53 57.2633ZM53.273 59.2633L51 59.2633L51 55.2633L53.273 55.2633L53.273 59.2633ZM50.1218 57.5861L51.8588 55.8491L54.6872 58.6775L52.9502 60.4145L50.1218 57.5861ZM55.7786 66.0713L50.1218 60.4145L52.9502 57.5861L58.6071 63.2429L55.7786 66.0713ZM61.4355 63.2429L58.6071 66.0713L55.7786 63.2429L58.6071 60.4145L61.4355 63.2429ZM63.2426 61.4358L61.4355 63.2429L58.6071 60.4145L60.4142 58.6073L63.2426 61.4358ZM64.4142 60.2642L63.2426 61.4358L60.4142 58.6073L61.5858 57.4358L64.4142 60.2642ZM65 57.1931L65 58.85L61 58.85L61 57.1931L65 57.1931ZM65 53.2633L65 57.1931L61 57.1931L61 53.2633L65 53.2633ZM65 49.2633L65 53.2633L61 53.2633L61 49.2633L65 49.2633ZM59 47.2633L63 47.2633L63 51.2633L59 51.2633L59 47.2633ZM51 47.2633L59 47.2633L59 51.2633L51 51.2633L51 47.2633ZM53 48.4212L53 49.2633L49 49.2633L49 48.4212L53 48.4212ZM64 50.4212L51 50.4212L51 46.4212L64 46.4212L64 50.4212ZM68 50.4212L64 50.4212L64 46.4212L68 46.4212L68 50.4212Z" fill="#D33131" class="fill-red" />
</svg>