<svg viewBox="0 0 80 80" fill="none">
  <path d="M32 18V16H30V18H32ZM48 18L50 18V16L48 16V18ZM46 26V28H50V26H46ZM30 26V28H34V26H30ZM32 20L48 20V16L32 16V20ZM46 18V26H50V18L46 18ZM34 26V18H30L30 26H34Z" fill="#606060" class="fill-grey" />
  <rect x="14" y="26" width="52" height="36" fill="#F4F4F4" stroke="#D2D2D2" stroke-width="4" stroke-linecap="square" class="fill-white stroke-undefined" />
  <path fill-rule="evenodd" clip-rule="evenodd" d="M36.3076 52.3077V56H43.6922L43.6922 52.3077V48.1538V47.9231V47.6923L43.923 47.6923H44.1537H44.3845H44.6153H44.846H45.0768H48.3076H51.9999V40.3077H48.3076L45.0768 40.3077H44.846H44.6153H44.3845H44.1537H43.923H43.6922V40.0769V39.8462V39.6154V39.3846V39.1538V38.9231V35.6923L43.6922 32L36.3076 32V35.6923L36.3076 38.9231V39.1538V39.3846V39.6154V39.8462V40.0769V40.3077H36.3076H36.0768H35.846H31.6922H27.9999L27.9999 47.6923H31.6922H35.846H36.0768H36.3076H36.3076V47.9231V48.1538L36.3076 52.3077Z" fill="#D33131" class="fill-red" />
</svg>