<svg viewBox="0 0 80 80" fill="none">
  <path fill-rule="evenodd" clip-rule="evenodd" d="M18 59.7764V67.7764H27V59.7764H18ZM53 59.7764V67.7764H62V59.7764H53Z" fill="#606060" class="fill-grey" />
  <path d="M18 59.7764V57.7764H16V59.7764H18ZM18 67.7764H16V69.7764H18V67.7764ZM27 67.7764V69.7764H29V67.7764H27ZM27 59.7764H29V57.7764H27V59.7764ZM53 59.7764V57.7764H51V59.7764H53ZM53 67.7764H51V69.7764H53V67.7764ZM62 67.7764V69.7764H64V67.7764H62ZM62 59.7764H64V57.7764H62V59.7764ZM16 59.7764V67.7764H20V59.7764H16ZM18 69.7764H27V65.7764H18V69.7764ZM29 67.7764V59.7764H25V67.7764H29ZM27 57.7764H18V61.7764H27V57.7764ZM51 59.7764V67.7764H55V59.7764H51ZM53 69.7764H62V65.7764H53V69.7764ZM64 67.7764V59.7764H60V67.7764H64ZM62 57.7764H53V61.7764H62V57.7764Z" fill="#606060" class="fill-grey" />
  <path fill-rule="evenodd" clip-rule="evenodd" d="M16 26.7764H10V38.7764H16V26.7764ZM64 38.7764H70V26.7764H64V38.7764Z" fill="#D2D2D2" class="fill-undefined" />
  <path d="M10 26.7764V24.7764H8V26.7764H10ZM16 26.7764H18V24.7764H16V26.7764ZM10 38.7764H8V40.7764H10V38.7764ZM16 38.7764V40.7764H18V38.7764H16ZM70 38.7764V40.7764H72V38.7764H70ZM64 38.7764H62V40.7764H64V38.7764ZM70 26.7764H72V24.7764H70V26.7764ZM64 26.7764V24.7764H62V26.7764H64ZM10 28.7764H16V24.7764H10V28.7764ZM12 38.7764V26.7764H8V38.7764H12ZM16 36.7764H10V40.7764H16V36.7764ZM18 38.7764V26.7764H14V38.7764H18ZM70 36.7764H64V40.7764H70V36.7764ZM68 26.7764V38.7764H72V26.7764H68ZM64 28.7764H70V24.7764H64V28.7764ZM62 26.7764V38.7764H66V26.7764H62Z" fill="#D2D2D2" class="fill-undefined" />
  <path fill-rule="evenodd" clip-rule="evenodd" d="M64 17.5017V59.7765H16V17.5017L28.3569 12H51.6431L64 17.5017Z" fill="#D33131" class="fill-red" />
  <path d="M64 17.5017H66V16.2029L64.8135 15.6746L64 17.5017ZM64 59.7765V61.7765H66V59.7765H64ZM16 59.7765H14V61.7765H16V59.7765ZM16 17.5017L15.1865 15.6746L14 16.2029V17.5017H16ZM28.3569 12V10H27.9318L27.5435 10.1729L28.3569 12ZM51.6431 12L52.4565 10.1729L52.0682 10H51.6431V12ZM62 17.5017V59.7765H66V17.5017H62ZM64 57.7765H16V61.7765H64V57.7765ZM18 59.7765V17.5017H14V59.7765H18ZM27.5435 10.1729L15.1865 15.6746L16.8135 19.3288L29.1704 13.8271L27.5435 10.1729ZM51.6431 10H28.3569V14H51.6431V10ZM64.8135 15.6746L52.4565 10.1729L50.8296 13.8271L63.1865 19.3288L64.8135 15.6746Z" fill="#D33131" class="fill-red" />
  <rect x="16" y="23.7764" width="48" height="18" fill="#84D3FF" stroke="#84D3FF" stroke-width="4" stroke-linecap="square" class="fill-blue stroke-blue" />
  <rect x="22" y="47.7764" width="6" height="6" fill="#FFC200" stroke="#FFC200" stroke-width="4" stroke-linecap="square" class="fill-yellow stroke-yellow" />
  <rect x="52" y="47.7764" width="6" height="6" fill="#FFC200" stroke="#FFC200" stroke-width="4" stroke-linecap="square" class="fill-yellow stroke-yellow" />
</svg>