<svg viewBox="0 0 80 80" fill="none">
  <path fill-rule="evenodd" clip-rule="evenodd" d="M31.8239 26.4606L26.1821 20.8183L23.0002 17.6362L16.636 23.9999L19.8178 27.182L28.4999 35.8648V37.2676L28.4999 46.0002V63.0002V67.5002H37.4999V63.0002L37.4999 50.5002H37.9999H38.4999L38.4999 63.0002V67.5002H47.4999V63.0002L47.4999 46.0002V37.2676V35.8648L56.1821 27.182L59.3639 23.9999L52.9997 17.6362L49.8178 20.8183L44.176 26.4606L43.29 29.4904H41.1465L41.1359 29.501H34.864L34.8534 29.4904L32.7099 29.4904L31.8239 26.4606Z" fill="#FFC200" class="fill-yellow" />
  <path d="M38 11.3999L46.5595 18.3097L43.2901 29.4901L32.7099 29.4901L29.4405 18.3097L38 11.3999Z" fill="#FF9100" class="fill-orange" />
</svg>