<svg viewBox="0 0 80 80" fill="none">
  <path d="M40 16.0005L62.8254 32.5841L54.1068 59.4169H25.8932L17.1746 32.5841L40 16.0005Z" fill="#F4F4F4" stroke="#D2D2D2" stroke-width="4" stroke-linecap="square" class="fill-white stroke-undefined" />
  <path d="M30.7049 28.9361L29.4319 27.3935L27.8772 28.6765L29.1724 30.2211L30.7049 28.9361ZM30.7105 28.9315L32.2421 27.6454L30.9676 26.1275L29.4382 27.3883L30.7105 28.9315ZM31.9967 30.4632L33.2666 32.0083L34.828 30.725L33.5283 29.1771L31.9967 30.4632ZM31.99 30.4687L30.4575 31.7537L31.731 33.2725L33.2612 32.0127L31.99 30.4687ZM25.7419 37.3365L23.7768 36.9646L23.4004 38.9538L25.394 39.306L25.7419 37.3365ZM25.7433 37.3295L26.0899 35.3598L24.1462 35.0177L23.7783 36.9567L25.7433 37.3295ZM27.7132 37.6762L29.6774 38.0531L30.0602 36.0584L28.0599 35.7064L27.7132 37.6762ZM27.7116 37.6845L27.3637 39.654L29.3058 39.9971L29.6761 38.06L27.7116 37.6845ZM27.3384 47.0417L25.5956 48.0229L26.5871 49.7841L28.3378 48.7741L27.3384 47.0417ZM27.335 47.0356L26.3344 45.3039L24.6232 46.2926L25.5914 48.0154L27.335 47.0356ZM29.0669 46.0349L30.8122 45.0582L29.822 43.2887L28.0663 44.3032L29.0669 46.0349ZM29.071 46.0422L30.0704 47.7746L31.7816 46.7874L30.8156 45.0642L29.071 46.0422ZM34.8788 53.4643L34.1861 55.3405L36.0703 56.0361L36.7579 54.149L34.8788 53.4643ZM34.8722 53.4619L32.9926 52.7785L32.3125 54.6488L34.1795 55.3381L34.8722 53.4619ZM35.5556 51.5821L36.2499 49.7064L34.3634 49.0082L33.676 50.8987L35.5556 51.5821ZM35.5635 51.585L37.4426 52.2697L38.1244 50.3986L36.2563 49.7088L35.5635 51.585ZM44.8108 53.4619L45.5038 55.338L47.3704 54.6486L46.6905 52.7785L44.8108 53.4619ZM44.8043 53.4643L42.9251 54.149L43.6126 56.0359L45.4967 55.3407L44.8043 53.4643ZM44.1195 51.5851L43.4267 49.7089L41.5587 50.3987L42.2404 52.2697L44.1195 51.5851ZM44.1274 51.5822L46.007 50.8988L45.3196 49.008L43.4329 49.7066L44.1274 51.5822ZM52.3482 47.0357L54.0911 48.0166L55.061 46.2933L53.3488 45.304L52.3482 47.0357ZM52.3447 47.0418L51.3453 48.7742L53.0963 49.7843L54.0877 48.0227L52.3447 47.0418ZM50.6121 46.0423L48.8673 45.0647L47.9019 46.7877L49.6127 47.7747L50.6121 46.0423ZM50.6162 46.0349L51.6168 44.3032L49.8615 43.289L48.8711 45.0579L50.6162 46.0349ZM53.9399 37.3295L55.9048 36.9562L55.5365 35.0178L53.5933 35.3597L53.9399 37.3295ZM53.9412 37.3365L54.2892 39.306L56.2826 38.9538L55.9064 36.9648L53.9412 37.3365ZM51.9715 37.6845L50.007 38.0595L50.3769 39.9972L52.3195 39.654L51.9715 37.6845ZM51.9699 37.6761L51.6233 35.7064L49.6235 36.0583L50.0057 38.0526L51.9699 37.6761ZM48.9726 28.9314L50.245 27.3884L48.7157 26.1272L47.441 27.6453L48.9726 28.9314ZM48.9782 28.936L50.5107 30.221L51.806 28.6762L50.251 27.3932L48.9782 28.936ZM47.6931 30.4686L46.4222 32.0129L47.9523 33.2721L49.2256 31.7536L47.6931 30.4686ZM47.6864 30.4631L46.1548 29.177L44.8554 30.7245L46.4162 32.0079L47.6864 30.4631ZM39.8379 25.6514L39.8374 23.6514L37.8386 23.6519L37.8379 25.6507L39.8379 25.6514ZM39.8451 25.6514L41.8451 25.6507L41.8444 23.6519L39.8456 23.6514L39.8451 25.6514ZM39.8372 27.6514L37.8372 27.6507L37.8365 29.6521L39.8379 29.6514L39.8372 27.6514ZM39.8458 27.6514L39.8452 29.6514L41.8465 29.652L41.8458 27.6507L39.8458 27.6514ZM31.9779 30.4786C31.9794 30.4774 31.981 30.4761 31.9827 30.4746L29.4382 27.3883C29.4362 27.3899 29.4341 27.3917 29.4319 27.3935L31.9779 30.4786ZM29.1788 30.2176L30.465 31.7493L33.5283 29.1771L32.2421 27.6454L29.1788 30.2176ZM30.7267 28.9181C30.7242 28.9202 30.7215 28.9224 30.7189 28.9246L33.2612 32.0127C33.2629 32.0113 33.2647 32.0098 33.2666 32.0083L30.7267 28.9181ZM33.5226 29.1836L32.2374 27.651L29.1724 30.2211L30.4575 31.7537L33.5226 29.1836ZM27.7071 37.7084C27.7075 37.7062 27.7079 37.7042 27.7082 37.7023L23.7783 36.9567C23.7778 36.9594 23.7773 36.9621 23.7768 36.9646L27.7071 37.7084ZM25.3967 39.2992L27.3666 39.6459L28.0599 35.7064L26.0899 35.3598L25.3967 39.2992ZM25.7491 37.2992C25.7485 37.3025 25.7478 37.3057 25.7472 37.309L29.6761 38.06C29.6765 38.0577 29.677 38.0554 29.6774 38.0531L25.7491 37.2992ZM28.0596 35.715L26.0899 35.367L25.394 39.306L27.3637 39.654L28.0596 35.715ZM29.0812 46.0606C29.0802 46.0587 29.0793 46.0572 29.0785 46.0558L25.5914 48.0154C25.5929 48.0181 25.5944 48.0207 25.5956 48.0229L29.0812 46.0606ZM28.3356 48.7673L30.0675 47.7666L28.0663 44.3032L26.3344 45.3039L28.3356 48.7673ZM27.3216 47.0115C27.3234 47.0148 27.3253 47.0181 27.3265 47.0202L30.8156 45.0642C30.8141 45.0614 30.8131 45.0598 30.8122 45.0582L27.3216 47.0115ZM28.0716 44.3098L26.339 45.3094L28.3378 48.7741L30.0704 47.7746L28.0716 44.3098ZM35.5714 51.5881C35.5714 51.5881 35.5714 51.5881 35.5714 51.5881C35.5714 51.5881 35.5714 51.588 35.5714 51.588C35.5714 51.588 35.5714 51.588 35.5714 51.588C35.5714 51.588 35.5714 51.588 35.5714 51.588C35.5714 51.588 35.5714 51.588 35.5714 51.588C35.5714 51.588 35.5714 51.588 35.5713 51.588C35.5713 51.588 35.5713 51.588 35.5713 51.588C35.5713 51.588 35.5713 51.588 35.5713 51.588C35.5713 51.588 35.5713 51.588 35.5713 51.588C35.5713 51.588 35.5713 51.588 35.5713 51.588C35.5713 51.588 35.5713 51.588 35.5713 51.588C35.5713 51.588 35.5713 51.588 35.5713 51.588C35.5713 51.588 35.5713 51.588 35.5713 51.588C35.5713 51.588 35.5712 51.588 35.5712 51.588C35.5712 51.588 35.5712 51.588 35.5712 51.588C35.5712 51.588 35.5712 51.588 35.5712 51.588C35.5712 51.588 35.5712 51.588 35.5712 51.588C35.5712 51.588 35.5712 51.588 35.5712 51.588C35.5712 51.588 35.5712 51.588 35.5712 51.588C35.5712 51.588 35.5712 51.588 35.5712 51.588C35.5712 51.588 35.5712 51.588 35.5712 51.588C35.5711 51.588 35.5711 51.588 35.5711 51.588C35.5711 51.588 35.5711 51.5879 35.5711 51.5879C35.5711 51.5879 35.5711 51.5879 35.5711 51.5879C35.5711 51.5879 35.5711 51.5879 35.5711 51.5879C35.5711 51.5879 35.5711 51.5879 35.5711 51.5879C35.5711 51.5879 35.5711 51.5879 35.5711 51.5879C35.5711 51.5879 35.5711 51.5879 35.5711 51.5879C35.5711 51.5879 35.5711 51.5879 35.5711 51.5879C35.571 51.5879 35.571 51.5879 35.571 51.5879C35.571 51.5879 35.571 51.5879 35.571 51.5879C35.571 51.5879 35.571 51.5879 35.571 51.5879C35.571 51.5879 35.571 51.5879 35.571 51.5879C35.571 51.5879 35.571 51.5879 35.571 51.5879C35.571 51.5879 35.571 51.5879 35.571 51.5879C35.571 51.5879 35.571 51.5879 35.571 51.5879C35.571 51.5879 35.571 51.5879 35.5709 51.5879C35.5709 51.5879 35.5709 51.5879 35.5709 51.5879C35.5709 51.5879 35.5709 51.5879 35.5709 51.5879C35.5709 51.5879 35.5709 51.5879 35.5709 51.5879C35.5709 51.5879 35.5709 51.5879 35.5709 51.5879C35.5709 51.5879 35.5709 51.5879 35.5709 51.5879C35.5709 51.5879 35.5709 51.5879 35.5709 51.5879C35.5709 51.5879 35.5709 51.5879 35.5709 51.5878C35.5709 51.5878 35.5708 51.5878 35.5708 51.5878C35.5708 51.5878 35.5708 51.5878 35.5708 51.5878C35.5708 51.5878 35.5708 51.5878 35.5708 51.5878C35.5708 51.5878 35.5708 51.5878 35.5708 51.5878C35.5708 51.5878 35.5708 51.5878 35.5708 51.5878C35.5708 51.5878 35.5708 51.5878 35.5708 51.5878C35.5708 51.5878 35.5708 51.5878 35.5708 51.5878C35.5708 51.5878 35.5708 51.5878 35.5708 51.5878C35.5708 51.5878 35.5707 51.5878 35.5707 51.5878C35.5707 51.5878 35.5707 51.5878 35.5707 51.5878C35.5707 51.5878 35.5707 51.5878 35.5707 51.5878C35.5707 51.5878 35.5707 51.5878 35.5707 51.5878C35.5707 51.5878 35.5707 51.5878 35.5707 51.5878C35.5707 51.5878 35.5707 51.5878 35.5707 51.5878C35.5707 51.5878 35.5707 51.5878 35.5707 51.5878C35.5707 51.5878 35.5707 51.5878 35.5707 51.5878C35.5706 51.5878 35.5706 51.5878 35.5706 51.5878C35.5706 51.5878 35.5706 51.5878 35.5706 51.5878C35.5706 51.5878 35.5706 51.5878 35.5706 51.5878C35.5706 51.5878 35.5706 51.5878 35.5706 51.5878C35.5706 51.5878 35.5706 51.5878 35.5706 51.5877C35.5706 51.5877 35.5706 51.5877 35.5706 51.5877C35.5706 51.5877 35.5706 51.5877 35.5706 51.5877C35.5706 51.5877 35.5706 51.5877 35.5705 51.5877C35.5705 51.5877 35.5705 51.5877 35.5705 51.5877C35.5705 51.5877 35.5705 51.5877 35.5705 51.5877C35.5705 51.5877 35.5705 51.5877 35.5705 51.5877C35.5705 51.5877 35.5705 51.5877 35.5705 51.5877C35.5705 51.5877 35.5705 51.5877 35.5705 51.5877C35.5705 51.5877 35.5705 51.5877 35.5705 51.5877C35.5705 51.5877 35.5705 51.5877 35.5705 51.5877C35.5705 51.5877 35.5705 51.5877 35.5704 51.5877C35.5704 51.5877 35.5704 51.5877 35.5704 51.5877C35.5704 51.5877 35.5704 51.5877 35.5704 51.5877C35.5704 51.5877 35.5704 51.5877 35.5704 51.5877C35.5704 51.5877 35.5704 51.5877 35.5704 51.5877C35.5704 51.5877 35.5704 51.5877 35.5704 51.5877C35.5704 51.5877 35.5704 51.5877 35.5704 51.5877C35.5704 51.5877 35.5704 51.5877 35.5704 51.5877C35.5704 51.5877 35.5703 51.5877 35.5703 51.5877C35.5703 51.5877 35.5703 51.5877 35.5703 51.5877C35.5703 51.5877 35.5703 51.5877 35.5703 51.5877C35.5703 51.5876 35.5703 51.5876 35.5703 51.5876C35.5703 51.5876 35.5703 51.5876 35.5703 51.5876C35.5703 51.5876 35.5703 51.5876 35.5703 51.5876C35.5703 51.5876 35.5703 51.5876 35.5703 51.5876C35.5703 51.5876 35.5703 51.5876 35.5703 51.5876C35.5703 51.5876 35.5702 51.5876 35.5702 51.5876C35.5702 51.5876 35.5702 51.5876 35.5702 51.5876C35.5702 51.5876 35.5702 51.5876 35.5702 51.5876C35.5702 51.5876 35.5702 51.5876 35.5702 51.5876C35.5702 51.5876 35.5702 51.5876 35.5702 51.5876C35.5702 51.5876 35.5702 51.5876 35.5702 51.5876C35.5702 51.5876 35.5702 51.5876 35.5702 51.5876C35.5702 51.5876 35.5702 51.5876 35.5702 51.5876C35.5701 51.5876 35.5701 51.5876 35.5701 51.5876C35.5701 51.5876 35.5701 51.5876 35.5701 51.5876C35.5701 51.5876 35.5701 51.5876 35.5701 51.5876C35.5701 51.5876 35.5701 51.5876 35.5701 51.5876C35.5701 51.5876 35.5701 51.5876 35.5701 51.5876C35.5701 51.5876 35.5701 51.5876 35.5701 51.5876C35.5701 51.5876 35.5701 51.5876 35.5701 51.5876C35.5701 51.5876 35.5701 51.5876 35.57 51.5876C35.57 51.5875 35.57 51.5875 35.57 51.5875C35.57 51.5875 35.57 51.5875 35.57 51.5875C35.57 51.5875 35.57 51.5875 35.57 51.5875C35.57 51.5875 35.57 51.5875 35.57 51.5875C35.57 51.5875 35.57 51.5875 35.57 51.5875C35.57 51.5875 35.57 51.5875 35.57 51.5875C35.57 51.5875 35.57 51.5875 35.57 51.5875C35.57 51.5875 35.57 51.5875 35.5699 51.5875C35.5699 51.5875 35.5699 51.5875 35.5699 51.5875C35.5699 51.5875 35.5699 51.5875 35.5699 51.5875C35.5699 51.5875 35.5699 51.5875 35.5699 51.5875C35.5699 51.5875 35.5699 51.5875 35.5699 51.5875C35.5699 51.5875 35.5699 51.5875 35.5699 51.5875C35.5699 51.5875 35.5699 51.5875 35.5699 51.5875C35.5699 51.5875 35.5699 51.5875 35.5699 51.5875C35.5699 51.5875 35.5698 51.5875 35.5698 51.5875C35.5698 51.5875 35.5698 51.5875 35.5698 51.5875C35.5698 51.5875 35.5698 51.5875 35.5698 51.5875C35.5698 51.5875 35.5698 51.5875 35.5698 51.5875C35.5698 51.5875 35.5698 51.5875 35.5698 51.5875C35.5698 51.5875 35.5698 51.5875 35.5698 51.5875C35.5698 51.5875 35.5698 51.5874 35.5698 51.5874C35.5698 51.5874 35.5698 51.5874 35.5698 51.5874C35.5697 51.5874 35.5697 51.5874 35.5697 51.5874C35.5697 51.5874 35.5697 51.5874 35.5697 51.5874C35.5697 51.5874 35.5697 51.5874 35.5697 51.5874C35.5697 51.5874 35.5697 51.5874 35.5697 51.5874C35.5697 51.5874 35.5697 51.5874 35.5697 51.5874C35.5697 51.5874 35.5697 51.5874 35.5697 51.5874C35.5697 51.5874 35.5697 51.5874 35.5697 51.5874C35.5697 51.5874 35.5697 51.5874 35.5697 51.5874C35.5696 51.5874 35.5696 51.5874 35.5696 51.5874C35.5696 51.5874 35.5696 51.5874 35.5696 51.5874C35.5696 51.5874 35.5696 51.5874 35.5696 51.5874C35.5696 51.5874 35.5696 51.5874 35.5696 51.5874C35.5696 51.5874 35.5696 51.5874 35.5696 51.5874C35.5696 51.5874 35.5696 51.5874 35.5696 51.5874C35.5696 51.5874 35.5696 51.5874 35.5696 51.5874C35.5696 51.5874 35.5696 51.5874 35.5695 51.5874C35.5695 51.5874 35.5695 51.5874 35.5695 51.5874C35.5695 51.5874 35.5695 51.5874 35.5695 51.5874C35.5695 51.5874 35.5695 51.5874 35.5695 51.5874C35.5695 51.5873 35.5695 51.5873 35.5695 51.5873C35.5695 51.5873 35.5695 51.5873 35.5695 51.5873C35.5695 51.5873 35.5695 51.5873 35.5695 51.5873C35.5695 51.5873 35.5695 51.5873 35.5695 51.5873C35.5695 51.5873 35.5695 51.5873 35.5694 51.5873C35.5694 51.5873 35.5694 51.5873 35.5694 51.5873C35.5694 51.5873 35.5694 51.5873 35.5694 51.5873C35.5694 51.5873 35.5694 51.5873 35.5694 51.5873C35.5694 51.5873 35.5694 51.5873 35.5694 51.5873C35.5694 51.5873 35.5694 51.5873 35.5694 51.5873C35.5694 51.5873 35.5694 51.5873 35.5694 51.5873C35.5694 51.5873 35.5694 51.5873 35.5694 51.5873C35.5694 51.5873 35.5693 51.5873 35.5693 51.5873C35.5693 51.5873 35.5693 51.5873 35.5693 51.5873C35.5693 51.5873 35.5693 51.5873 35.5693 51.5873C35.5693 51.5873 35.5693 51.5873 35.5693 51.5873C35.5693 51.5873 35.5693 51.5873 35.5693 51.5873C35.5693 51.5873 35.5693 51.5873 35.5693 51.5873C35.5693 51.5873 35.5693 51.5873 35.5693 51.5873C35.5693 51.5873 35.5693 51.5873 35.5693 51.5873C35.5692 51.5873 35.5692 51.5873 35.5692 51.5873C35.5692 51.5872 35.5692 51.5872 35.5692 51.5872C35.5692 51.5872 35.5692 51.5872 35.5692 51.5872C35.5692 51.5872 35.5692 51.5872 35.5692 51.5872C35.5692 51.5872 35.5692 51.5872 35.5692 51.5872C35.5692 51.5872 35.5692 51.5872 35.5692 51.5872C35.5692 51.5872 35.5692 51.5872 35.5692 51.5872C35.5692 51.5872 35.5692 51.5872 35.5692 51.5872C35.5691 51.5872 35.5691 51.5872 35.5691 51.5872C35.5691 51.5872 35.5691 51.5872 35.5691 51.5872C35.5691 51.5872 35.5691 51.5872 35.5691 51.5872C35.5691 51.5872 35.5691 51.5872 35.5691 51.5872C35.5691 51.5872 35.5691 51.5872 35.5691 51.5872C35.5691 51.5872 35.5691 51.5872 35.5691 51.5872C35.5691 51.5872 35.5691 51.5872 35.5691 51.5872C35.5691 51.5872 35.5691 51.5872 35.569 51.5872C35.569 51.5872 35.569 51.5872 35.569 51.5872C35.569 51.5872 35.569 51.5872 35.569 51.5872C35.569 51.5872 35.569 51.5872 35.569 51.5872C35.569 51.5872 35.569 51.5872 35.569 51.5872C35.569 51.5872 35.569 51.5872 35.569 51.5872C35.569 51.5872 35.569 51.5872 35.569 51.5872C35.569 51.5872 35.569 51.5871 35.569 51.5871C35.569 51.5871 35.5689 51.5871 35.5689 51.5871C35.5689 51.5871 35.5689 51.5871 35.5689 51.5871C35.5689 51.5871 35.5689 51.5871 35.5689 51.5871C35.5689 51.5871 35.5689 51.5871 35.5689 51.5871C35.5689 51.5871 35.5689 51.5871 35.5689 51.5871C35.5689 51.5871 35.5689 51.5871 35.5689 51.5871C35.5689 51.5871 35.5689 51.5871 35.5689 51.5871C35.5689 51.5871 35.5689 51.5871 35.5689 51.5871C35.5689 51.5871 35.5688 51.5871 35.5688 51.5871C35.5688 51.5871 35.5688 51.5871 35.5688 51.5871C35.5688 51.5871 35.5688 51.5871 35.5688 51.5871C35.5688 51.5871 35.5688 51.5871 35.5688 51.5871C35.5688 51.5871 35.5688 51.5871 35.5688 51.5871C35.5688 51.5871 35.5688 51.5871 35.5688 51.5871C35.5688 51.5871 35.5688 51.5871 35.5688 51.5871C35.5688 51.5871 35.5688 51.5871 35.5688 51.5871C35.5687 51.5871 35.5687 51.5871 35.5687 51.5871C35.5687 51.5871 35.5687 51.5871 35.5687 51.5871C35.5687 51.5871 35.5687 51.5871 35.5687 51.5871C35.5687 51.5871 35.5687 51.5871 35.5687 51.5871C35.5687 51.5871 35.5687 51.587 35.5687 51.587C35.5687 51.587 35.5687 51.587 35.5687 51.587C35.5687 51.587 35.5687 51.587 35.5687 51.587C35.5687 51.587 35.5687 51.587 35.5687 51.587C35.5686 51.587 35.5686 51.587 35.5686 51.587C35.5686 51.587 35.5686 51.587 35.5686 51.587C35.5686 51.587 35.5686 51.587 35.5686 51.587C35.5686 51.587 35.5686 51.587 35.5686 51.587C35.5686 51.587 35.5686 51.587 35.5686 51.587C35.5686 51.587 35.5686 51.587 35.5686 51.587C35.5686 51.587 35.5686 51.587 35.5686 51.587C35.5686 51.587 35.5686 51.587 35.5685 51.587C35.5685 51.587 35.5685 51.587 35.5685 51.587C35.5685 51.587 35.5685 51.587 35.5685 51.587C35.5685 51.587 35.5685 51.587 35.5685 51.587C35.5685 51.587 35.5685 51.587 35.5685 51.587C35.5685 51.587 35.5685 51.587 35.5685 51.587C35.5685 51.587 35.5685 51.587 35.5685 51.587C35.5685 51.587 35.5685 51.587 35.5685 51.587C35.5685 51.587 35.5684 51.587 35.5684 51.587C35.5684 51.587 35.5684 51.587 35.5684 51.587C35.5684 51.587 35.5684 51.587 35.5684 51.5869C35.5684 51.5869 35.5684 51.5869 35.5684 51.5869C35.5684 51.5869 35.5684 51.5869 35.5684 51.5869C35.5684 51.5869 35.5684 51.5869 35.5684 51.5869C35.5684 51.5869 35.5684 51.5869 35.5684 51.5869C35.5684 51.5869 35.5684 51.5869 35.5684 51.5869C35.5684 51.5869 35.5683 51.5869 35.5683 51.5869C35.5683 51.5869 35.5683 51.5869 35.5683 51.5869C35.5683 51.5869 35.5683 51.5869 35.5683 51.5869C35.5683 51.5869 35.5683 51.5869 35.5683 51.5869C35.5683 51.5869 35.5683 51.5869 35.5683 51.5869C35.5683 51.5869 35.5683 51.5869 35.5683 51.5869C35.5683 51.5869 35.5683 51.5869 35.5683 51.5869C35.5683 51.5869 35.5683 51.5869 35.5683 51.5869C35.5682 51.5869 35.5682 51.5869 35.5682 51.5869C35.5682 51.5869 35.5682 51.5869 35.5682 51.5869C35.5682 51.5869 35.5682 51.5869 35.5682 51.5869C35.5682 51.5869 35.5682 51.5869 35.5682 51.5869C35.5682 51.5869 35.5682 51.5869 35.5682 51.5869C35.5682 51.5869 35.5682 51.5869 35.5682 51.5869C35.5682 51.5869 35.5682 51.5869 35.5682 51.5869C35.5682 51.5869 35.5682 51.5869 35.5681 51.5868C35.5681 51.5868 35.5681 51.5868 35.5681 51.5868C35.5681 51.5868 35.5681 51.5868 35.5681 51.5868C35.5681 51.5868 35.5681 51.5868 35.5681 51.5868C35.5681 51.5868 35.5681 51.5868 35.5681 51.5868C35.5681 51.5868 35.5681 51.5868 35.5681 51.5868C35.5681 51.5868 35.5681 51.5868 35.5681 51.5868C35.5681 51.5868 35.5681 51.5868 35.5681 51.5868C35.5681 51.5868 35.5681 51.5868 35.568 51.5868C35.568 51.5868 35.568 51.5868 35.568 51.5868C35.568 51.5868 35.568 51.5868 35.568 51.5868C35.568 51.5868 35.568 51.5868 35.568 51.5868C35.568 51.5868 35.568 51.5868 35.568 51.5868C35.568 51.5868 35.568 51.5868 35.568 51.5868C35.568 51.5868 35.568 51.5868 35.568 51.5868C35.568 51.5868 35.568 51.5868 35.568 51.5868C35.568 51.5868 35.5679 51.5868 35.5679 51.5868C35.5679 51.5868 35.5679 51.5868 35.5679 51.5868C35.5679 51.5868 35.5679 51.5868 35.5679 51.5868C35.5679 51.5868 35.5679 51.5868 35.5679 51.5868C35.5679 51.5868 35.5679 51.5868 35.5679 51.5868C35.5679 51.5868 35.5679 51.5868 35.5679 51.5868C35.5679 51.5867 35.5679 51.5867 35.5679 51.5867C35.5679 51.5867 35.5679 51.5867 35.5679 51.5867C35.5679 51.5867 35.5678 51.5867 35.5678 51.5867C35.5678 51.5867 35.5678 51.5867 35.5678 51.5867C35.5678 51.5867 35.5678 51.5867 35.5678 51.5867C35.5678 51.5867 35.5678 51.5867 35.5678 51.5867C35.5678 51.5867 35.5678 51.5867 35.5678 51.5867C35.5678 51.5867 35.5678 51.5867 35.5678 51.5867C35.5678 51.5867 35.5678 51.5867 35.5678 51.5867C35.5678 51.5867 35.5678 51.5867 35.5678 51.5867C35.5677 51.5867 35.5677 51.5867 35.5677 51.5867C35.5677 51.5867 35.5677 51.5867 35.5677 51.5867C35.5677 51.5867 35.5677 51.5867 35.5677 51.5867C35.5677 51.5867 35.5677 51.5867 35.5677 51.5867C35.5677 51.5867 35.5677 51.5867 35.5677 51.5867C35.5677 51.5867 35.5677 51.5867 35.5677 51.5867C35.5677 51.5867 35.5677 51.5867 35.5677 51.5867C35.5677 51.5867 35.5677 51.5867 35.5676 51.5867C35.5676 51.5867 35.5676 51.5867 35.5676 51.5867C35.5676 51.5867 35.5676 51.5867 35.5676 51.5867C35.5676 51.5867 35.5676 51.5867 35.5676 51.5867C35.5676 51.5866 35.5676 51.5866 35.5676 51.5866C35.5676 51.5866 35.5676 51.5866 35.5676 51.5866C35.5676 51.5866 35.5676 51.5866 35.5676 51.5866C35.5676 51.5866 35.5676 51.5866 35.5676 51.5866C35.5676 51.5866 35.5676 51.5866 35.5675 51.5866C35.5675 51.5866 35.5675 51.5866 35.5675 51.5866C35.5675 51.5866 35.5675 51.5866 35.5675 51.5866C35.5675 51.5866 35.5675 51.5866 35.5675 51.5866C35.5675 51.5866 35.5675 51.5866 35.5675 51.5866C35.5675 51.5866 35.5675 51.5866 35.5675 51.5866C35.5675 51.5866 35.5675 51.5866 35.5675 51.5866C35.5675 51.5866 35.5675 51.5866 35.5675 51.5866C35.5675 51.5866 35.5674 51.5866 35.5674 51.5866C35.5674 51.5866 35.5674 51.5866 35.5674 51.5866C35.5674 51.5866 35.5674 51.5866 35.5674 51.5866C35.5674 51.5866 35.5674 51.5866 35.5674 51.5866C35.5674 51.5866 35.5674 51.5866 35.5674 51.5866C35.5674 51.5866 35.5674 51.5866 35.5674 51.5866C35.5674 51.5866 35.5674 51.5866 35.5674 51.5866C35.5674 51.5866 35.5674 51.5866 35.5674 51.5866C35.5673 51.5866 35.5673 51.5866 35.5673 51.5865C35.5673 51.5865 35.5673 51.5865 35.5673 51.5865C35.5673 51.5865 35.5673 51.5865 35.5673 51.5865C35.5673 51.5865 35.5673 51.5865 35.5673 51.5865C35.5673 51.5865 35.5673 51.5865 35.5673 51.5865C35.5673 51.5865 35.5673 51.5865 35.5673 51.5865C35.5673 51.5865 35.5673 51.5865 35.5673 51.5865C35.5673 51.5865 35.5673 51.5865 35.5673 51.5865C35.5672 51.5865 35.5672 51.5865 35.5672 51.5865C35.5672 51.5865 35.5672 51.5865 35.5672 51.5865C35.5672 51.5865 35.5672 51.5865 35.5672 51.5865C35.5672 51.5865 35.5672 51.5865 35.5672 51.5865C35.5672 51.5865 35.5672 51.5865 35.5672 51.5865C35.5672 51.5865 35.5672 51.5865 35.5672 51.5865C35.5672 51.5865 35.5672 51.5865 35.5672 51.5865C35.5672 51.5865 35.5672 51.5865 35.5671 51.5865C35.5671 51.5865 35.5671 51.5865 35.5671 51.5865C35.5671 51.5865 35.5671 51.5865 35.5671 51.5865C35.5671 51.5865 35.5671 51.5865 35.5671 51.5865C35.5671 51.5865 35.5671 51.5865 35.5671 51.5865C35.5671 51.5865 35.5671 51.5865 35.5671 51.5865C35.5671 51.5865 35.5671 51.5865 35.5671 51.5865C35.5671 51.5864 35.5671 51.5864 35.5671 51.5864C35.5671 51.5864 35.567 51.5864 35.567 51.5864C35.567 51.5864 35.567 51.5864 35.567 51.5864C35.567 51.5864 35.567 51.5864 35.567 51.5864C35.567 51.5864 35.567 51.5864 35.567 51.5864C35.567 51.5864 35.567 51.5864 35.567 51.5864C35.567 51.5864 35.567 51.5864 35.567 51.5864C35.567 51.5864 35.567 51.5864 35.567 51.5864C35.567 51.5864 35.567 51.5864 35.567 51.5864C35.567 51.5864 35.5669 51.5864 35.5669 51.5864C35.5669 51.5864 35.5669 51.5864 35.5669 51.5864C35.5669 51.5864 35.5669 51.5864 35.5669 51.5864C35.5669 51.5864 35.5669 51.5864 35.5669 51.5864C35.5669 51.5864 35.5669 51.5864 35.5669 51.5864C35.5669 51.5864 35.5669 51.5864 35.5669 51.5864C35.5669 51.5864 35.5669 51.5864 35.5669 51.5864C35.5669 51.5864 35.5669 51.5864 35.5669 51.5864C35.5668 51.5864 35.5668 51.5864 35.5668 51.5864C35.5668 51.5864 35.5668 51.5864 35.5668 51.5864C35.5668 51.5864 35.5668 51.5864 35.5668 51.5864C35.5668 51.5864 35.5668 51.5864 35.5668 51.5864C35.5668 51.5863 35.5668 51.5863 35.5668 51.5863C35.5668 51.5863 35.5668 51.5863 35.5668 51.5863C35.5668 51.5863 35.5668 51.5863 35.5668 51.5863C35.5668 51.5863 35.5668 51.5863 35.5668 51.5863C35.5667 51.5863 35.5667 51.5863 35.5667 51.5863C35.5667 51.5863 35.5667 51.5863 35.5667 51.5863C35.5667 51.5863 35.5667 51.5863 35.5667 51.5863C35.5667 51.5863 35.5667 51.5863 35.5667 51.5863C35.5667 51.5863 35.5667 51.5863 35.5667 51.5863C35.5667 51.5863 35.5667 51.5863 35.5667 51.5863C35.5667 51.5863 35.5667 51.5863 35.5667 51.5863C35.5667 51.5863 35.5667 51.5863 35.5666 51.5863C35.5666 51.5863 35.5666 51.5863 35.5666 51.5863C35.5666 51.5863 35.5666 51.5863 35.5666 51.5863C35.5666 51.5863 35.5666 51.5863 35.5666 51.5863C35.5666 51.5863 35.5666 51.5863 35.5666 51.5863C35.5666 51.5863 35.5666 51.5863 35.5666 51.5863C35.5666 51.5863 35.5666 51.5863 35.5666 51.5863C35.5666 51.5863 35.5666 51.5863 35.5666 51.5863C35.5666 51.5863 35.5665 51.5863 35.5665 51.5863C35.5665 51.5863 35.5665 51.5863 35.5665 51.5863C35.5665 51.5863 35.5665 51.5862 35.5665 51.5862C35.5665 51.5862 35.5665 51.5862 35.5665 51.5862C35.5665 51.5862 35.5665 51.5862 35.5665 51.5862C35.5665 51.5862 35.5665 51.5862 35.5665 51.5862C35.5665 51.5862 35.5665 51.5862 35.5665 51.5862C35.5665 51.5862 35.5665 51.5862 35.5665 51.5862C35.5665 51.5862 35.5664 51.5862 35.5664 51.5862C35.5664 51.5862 35.5664 51.5862 35.5664 51.5862C35.5664 51.5862 35.5664 51.5862 35.5664 51.5862C35.5664 51.5862 35.5664 51.5862 35.5664 51.5862C35.5664 51.5862 35.5664 51.5862 35.5664 51.5862C35.5664 51.5862 35.5664 51.5862 35.5664 51.5862C35.5664 51.5862 35.5664 51.5862 35.5664 51.5862C35.5664 51.5862 35.5664 51.5862 35.5664 51.5862C35.5663 51.5862 35.5663 51.5862 35.5663 51.5862C35.5663 51.5862 35.5663 51.5862 35.5663 51.5862C35.5663 51.5862 35.5663 51.5862 35.5663 51.5862C35.5663 51.5862 35.5663 51.5862 35.5663 51.5862C35.5663 51.5862 35.5663 51.5862 35.5663 51.5862C35.5663 51.5862 35.5663 51.5862 35.5663 51.5862C35.5663 51.5862 35.5663 51.5862 35.5663 51.5862C35.5663 51.5862 35.5663 51.5861 35.5662 51.5861C35.5662 51.5861 35.5662 51.5861 35.5662 51.5861C35.5662 51.5861 35.5662 51.5861 35.5662 51.5861C35.5662 51.5861 35.5662 51.5861 35.5662 51.5861C35.5662 51.5861 35.5662 51.5861 35.5662 51.5861C35.5662 51.5861 35.5662 51.5861 35.5662 51.5861C35.5662 51.5861 35.5662 51.5861 35.5662 51.5861C35.5662 51.5861 35.5662 51.5861 35.5662 51.5861C35.5662 51.5861 35.5662 51.5861 35.5661 51.5861C35.5661 51.5861 35.5661 51.5861 35.5661 51.5861C35.5661 51.5861 35.5661 51.5861 35.5661 51.5861C35.5661 51.5861 35.5661 51.5861 35.5661 51.5861C35.5661 51.5861 35.5661 51.5861 35.5661 51.5861C35.5661 51.5861 35.5661 51.5861 35.5661 51.5861C35.5661 51.5861 35.5661 51.5861 35.5661 51.5861C35.5661 51.5861 35.5661 51.5861 35.5661 51.5861C35.5661 51.5861 35.566 51.5861 35.566 51.5861C35.566 51.5861 35.566 51.5861 35.566 51.5861C35.566 51.5861 35.566 51.5861 35.566 51.5861C35.566 51.5861 35.566 51.5861 35.566 51.5861C35.566 51.5861 35.566 51.5861 35.566 51.5861C35.566 51.5861 35.566 51.5861 35.566 51.586C35.566 51.586 35.566 51.586 35.566 51.586C35.566 51.586 35.566 51.586 35.566 51.586C35.566 51.586 35.5659 51.586 35.5659 51.586C35.5659 51.586 35.5659 51.586 35.5659 51.586C35.5659 51.586 35.5659 51.586 35.5659 51.586C35.5659 51.586 35.5659 51.586 35.5659 51.586C35.5659 51.586 35.5659 51.586 35.5659 51.586C35.5659 51.586 35.5659 51.586 35.5659 51.586C35.5659 51.586 35.5659 51.586 35.5659 51.586C35.5659 51.586 35.5659 51.586 35.5659 51.586C35.5658 51.586 35.5658 51.586 35.5658 51.586C35.5658 51.586 35.5658 51.586 35.5658 51.586C35.5658 51.586 35.5658 51.586 35.5658 51.586C35.5658 51.586 35.5658 51.586 35.5658 51.586C35.5658 51.586 35.5658 51.586 35.5658 51.586C35.5658 51.586 35.5658 51.586 35.5658 51.586C35.5658 51.586 35.5658 51.586 35.5658 51.586C35.5658 51.586 35.5658 51.586 35.5657 51.586C35.5657 51.586 35.5657 51.586 35.5657 51.586C35.5657 51.586 35.5657 51.586 35.5657 51.586C35.5657 51.586 35.5657 51.586 35.5657 51.5859C35.5657 51.5859 35.5657 51.5859 35.5657 51.5859C35.5657 51.5859 35.5657 51.5859 35.5657 51.5859C35.5657 51.5859 35.5657 51.5859 35.5657 51.5859C35.5657 51.5859 35.5657 51.5859 35.5657 51.5859C35.5657 51.5859 35.5657 51.5859 35.5656 51.5859C35.5656 51.5859 35.5656 51.5859 35.5656 51.5859C35.5656 51.5859 35.5656 51.5859 35.5656 51.5859C35.5656 51.5859 35.5656 51.5859 35.5656 51.5859C35.5656 51.5859 35.5656 51.5859 35.5656 51.5859C35.5656 51.5859 35.5656 51.5859 35.5656 51.5859C35.5656 51.5859 35.5656 51.5859 35.5656 51.5859C35.5656 51.5859 35.5656 51.5859 35.5656 51.5859C35.5656 51.5859 35.5655 51.5859 35.5655 51.5859C35.5655 51.5859 35.5655 51.5859 35.5655 51.5859C35.5655 51.5859 35.5655 51.5859 35.5655 51.5859C35.5655 51.5859 35.5655 51.5859 35.5655 51.5859C35.5655 51.5859 35.5655 51.5859 35.5655 51.5859C35.5655 51.5859 35.5655 51.5859 35.5655 51.5859C35.5655 51.5859 35.5655 51.5859 35.5655 51.5859C35.5655 51.5859 35.5655 51.5859 35.5655 51.5859C35.5654 51.5859 35.5654 51.5859 35.5654 51.5858C35.5654 51.5858 35.5654 51.5858 35.5654 51.5858C35.5654 51.5858 35.5654 51.5858 35.5654 51.5858C35.5654 51.5858 35.5654 51.5858 35.5654 51.5858C35.5654 51.5858 35.5654 51.5858 35.5654 51.5858C35.5654 51.5858 35.5654 51.5858 35.5654 51.5858C35.5654 51.5858 35.5654 51.5858 35.5654 51.5858C35.5654 51.5858 35.5654 51.5858 35.5654 51.5858C35.5653 51.5858 35.5653 51.5858 35.5653 51.5858C35.5653 51.5858 35.5653 51.5858 35.5653 51.5858C35.5653 51.5858 35.5653 51.5858 35.5653 51.5858C35.5653 51.5858 35.5653 51.5858 35.5653 51.5858C35.5653 51.5858 35.5653 51.5858 35.5653 51.5858C35.5653 51.5858 35.5653 51.5858 35.5653 51.5858C35.5653 51.5858 35.5653 51.5858 35.5653 51.5858C35.5653 51.5858 35.5653 51.5858 35.5652 51.5858C35.5652 51.5858 35.5652 51.5858 35.5652 51.5858C35.5652 51.5858 35.5652 51.5858 35.5652 51.5858C35.5652 51.5858 35.5652 51.5858 35.5652 51.5858C35.5652 51.5858 35.5652 51.5858 35.5652 51.5858C35.5652 51.5858 35.5652 51.5858 35.5652 51.5858C35.5652 51.5858 35.5652 51.5858 35.5652 51.5858C35.5652 51.5857 35.5652 51.5857 35.5652 51.5857C35.5652 51.5857 35.5652 51.5857 35.5651 51.5857C35.5651 51.5857 35.5651 51.5857 35.5651 51.5857C35.5651 51.5857 35.5651 51.5857 35.5651 51.5857C35.5651 51.5857 35.5651 51.5857 35.5651 51.5857C35.5651 51.5857 35.5651 51.5857 35.5651 51.5857C35.5651 51.5857 35.5651 51.5857 35.5651 51.5857C35.5651 51.5857 35.5651 51.5857 35.5651 51.5857C35.5651 51.5857 35.5651 51.5857 35.5651 51.5857C35.5651 51.5857 35.565 51.5857 35.565 51.5857C35.565 51.5857 35.565 51.5857 35.565 51.5857C35.565 51.5857 35.565 51.5857 35.565 51.5857C35.565 51.5857 35.565 51.5857 35.565 51.5857C35.565 51.5857 35.565 51.5857 35.565 51.5857C35.565 51.5857 35.565 51.5857 35.565 51.5857C35.565 51.5857 35.565 51.5857 35.565 51.5857C35.565 51.5857 35.565 51.5857 35.565 51.5857C35.5649 51.5857 35.5649 51.5857 35.5649 51.5857C35.5649 51.5857 35.5649 51.5857 35.5649 51.5857C35.5649 51.5857 35.5649 51.5857 35.5649 51.5857C35.5649 51.5857 35.5649 51.5857 35.5649 51.5856C35.5649 51.5856 35.5649 51.5856 35.5649 51.5856C35.5649 51.5856 35.5649 51.5856 35.5649 51.5856C35.5649 51.5856 35.5649 51.5856 35.5649 51.5856C35.5649 51.5856 35.5649 51.5856 35.5649 51.5856L34.1795 55.3381C34.1795 55.3381 34.1795 55.3381 34.1795 55.3381C34.1795 55.3381 34.1796 55.3381 34.1796 55.3381C34.1796 55.3381 34.1796 55.3381 34.1796 55.3381C34.1796 55.3381 34.1796 55.3381 34.1796 55.3381C34.1796 55.3381 34.1796 55.3381 34.1796 55.3381C34.1796 55.3381 34.1796 55.3381 34.1796 55.3381C34.1796 55.3381 34.1796 55.3381 34.1796 55.3381C34.1796 55.3381 34.1796 55.3381 34.1796 55.3381C34.1796 55.3381 34.1796 55.3381 34.1796 55.3381C34.1797 55.3381 34.1797 55.3381 34.1797 55.3381C34.1797 55.3381 34.1797 55.3381 34.1797 55.3381C34.1797 55.3381 34.1797 55.3381 34.1797 55.3381C34.1797 55.3381 34.1797 55.3381 34.1797 55.3381C34.1797 55.3381 34.1797 55.3381 34.1797 55.3381C34.1797 55.3382 34.1797 55.3382 34.1797 55.3382C34.1797 55.3382 34.1797 55.3382 34.1797 55.3382C34.1797 55.3382 34.1797 55.3382 34.1797 55.3382C34.1798 55.3382 34.1798 55.3382 34.1798 55.3382C34.1798 55.3382 34.1798 55.3382 34.1798 55.3382C34.1798 55.3382 34.1798 55.3382 34.1798 55.3382C34.1798 55.3382 34.1798 55.3382 34.1798 55.3382C34.1798 55.3382 34.1798 55.3382 34.1798 55.3382C34.1798 55.3382 34.1798 55.3382 34.1798 55.3382C34.1798 55.3382 34.1798 55.3382 34.1798 55.3382C34.1798 55.3382 34.1798 55.3382 34.1799 55.3382C34.1799 55.3382 34.1799 55.3382 34.1799 55.3382C34.1799 55.3382 34.1799 55.3382 34.1799 55.3382C34.1799 55.3382 34.1799 55.3382 34.1799 55.3382C34.1799 55.3382 34.1799 55.3382 34.1799 55.3382C34.1799 55.3382 34.1799 55.3382 34.1799 55.3382C34.1799 55.3382 34.1799 55.3382 34.1799 55.3382C34.1799 55.3382 34.1799 55.3382 34.1799 55.3382C34.1799 55.3382 34.18 55.3382 34.18 55.3382C34.18 55.3382 34.18 55.3382 34.18 55.3382C34.18 55.3382 34.18 55.3382 34.18 55.3382C34.18 55.3382 34.18 55.3383 34.18 55.3383C34.18 55.3383 34.18 55.3383 34.18 55.3383C34.18 55.3383 34.18 55.3383 34.18 55.3383C34.18 55.3383 34.18 55.3383 34.18 55.3383C34.18 55.3383 34.18 55.3383 34.18 55.3383C34.18 55.3383 34.1801 55.3383 34.1801 55.3383C34.1801 55.3383 34.1801 55.3383 34.1801 55.3383C34.1801 55.3383 34.1801 55.3383 34.1801 55.3383C34.1801 55.3383 34.1801 55.3383 34.1801 55.3383C34.1801 55.3383 34.1801 55.3383 34.1801 55.3383C34.1801 55.3383 34.1801 55.3383 34.1801 55.3383C34.1801 55.3383 34.1801 55.3383 34.1801 55.3383C34.1801 55.3383 34.1801 55.3383 34.1801 55.3383C34.1802 55.3383 34.1802 55.3383 34.1802 55.3383C34.1802 55.3383 34.1802 55.3383 34.1802 55.3383C34.1802 55.3383 34.1802 55.3383 34.1802 55.3383C34.1802 55.3383 34.1802 55.3383 34.1802 55.3383C34.1802 55.3383 34.1802 55.3383 34.1802 55.3383C34.1802 55.3383 34.1802 55.3383 34.1802 55.3383C34.1802 55.3383 34.1802 55.3383 34.1802 55.3383C34.1802 55.3383 34.1802 55.3383 34.1803 55.3383C34.1803 55.3384 34.1803 55.3384 34.1803 55.3384C34.1803 55.3384 34.1803 55.3384 34.1803 55.3384C34.1803 55.3384 34.1803 55.3384 34.1803 55.3384C34.1803 55.3384 34.1803 55.3384 34.1803 55.3384C34.1803 55.3384 34.1803 55.3384 34.1803 55.3384C34.1803 55.3384 34.1803 55.3384 34.1803 55.3384C34.1803 55.3384 34.1803 55.3384 34.1803 55.3384C34.1803 55.3384 34.1803 55.3384 34.1804 55.3384C34.1804 55.3384 34.1804 55.3384 34.1804 55.3384C34.1804 55.3384 34.1804 55.3384 34.1804 55.3384C34.1804 55.3384 34.1804 55.3384 34.1804 55.3384C34.1804 55.3384 34.1804 55.3384 34.1804 55.3384C34.1804 55.3384 34.1804 55.3384 34.1804 55.3384C34.1804 55.3384 34.1804 55.3384 34.1804 55.3384C34.1804 55.3384 34.1804 55.3384 34.1804 55.3384C34.1804 55.3384 34.1805 55.3384 34.1805 55.3384C34.1805 55.3384 34.1805 55.3384 34.1805 55.3384C34.1805 55.3384 34.1805 55.3384 34.1805 55.3384C34.1805 55.3384 34.1805 55.3384 34.1805 55.3384C34.1805 55.3384 34.1805 55.3384 34.1805 55.3384C34.1805 55.3384 34.1805 55.3384 34.1805 55.3384C34.1805 55.3384 34.1805 55.3385 34.1805 55.3385C34.1805 55.3385 34.1805 55.3385 34.1805 55.3385C34.1805 55.3385 34.1806 55.3385 34.1806 55.3385C34.1806 55.3385 34.1806 55.3385 34.1806 55.3385C34.1806 55.3385 34.1806 55.3385 34.1806 55.3385C34.1806 55.3385 34.1806 55.3385 34.1806 55.3385C34.1806 55.3385 34.1806 55.3385 34.1806 55.3385C34.1806 55.3385 34.1806 55.3385 34.1806 55.3385C34.1806 55.3385 34.1806 55.3385 34.1806 55.3385C34.1806 55.3385 34.1806 55.3385 34.1806 55.3385C34.1807 55.3385 34.1807 55.3385 34.1807 55.3385C34.1807 55.3385 34.1807 55.3385 34.1807 55.3385C34.1807 55.3385 34.1807 55.3385 34.1807 55.3385C34.1807 55.3385 34.1807 55.3385 34.1807 55.3385C34.1807 55.3385 34.1807 55.3385 34.1807 55.3385C34.1807 55.3385 34.1807 55.3385 34.1807 55.3385C34.1807 55.3385 34.1807 55.3385 34.1807 55.3385C34.1807 55.3385 34.1807 55.3385 34.1808 55.3385C34.1808 55.3385 34.1808 55.3385 34.1808 55.3385C34.1808 55.3385 34.1808 55.3385 34.1808 55.3385C34.1808 55.3385 34.1808 55.3385 34.1808 55.3385C34.1808 55.3385 34.1808 55.3386 34.1808 55.3386C34.1808 55.3386 34.1808 55.3386 34.1808 55.3386C34.1808 55.3386 34.1808 55.3386 34.1808 55.3386C34.1808 55.3386 34.1808 55.3386 34.1808 55.3386C34.1808 55.3386 34.1808 55.3386 34.1809 55.3386C34.1809 55.3386 34.1809 55.3386 34.1809 55.3386C34.1809 55.3386 34.1809 55.3386 34.1809 55.3386C34.1809 55.3386 34.1809 55.3386 34.1809 55.3386C34.1809 55.3386 34.1809 55.3386 34.1809 55.3386C34.1809 55.3386 34.1809 55.3386 34.1809 55.3386C34.1809 55.3386 34.1809 55.3386 34.1809 55.3386C34.1809 55.3386 34.1809 55.3386 34.1809 55.3386C34.1809 55.3386 34.181 55.3386 34.181 55.3386C34.181 55.3386 34.181 55.3386 34.181 55.3386C34.181 55.3386 34.181 55.3386 34.181 55.3386C34.181 55.3386 34.181 55.3386 34.181 55.3386C34.181 55.3386 34.181 55.3386 34.181 55.3386C34.181 55.3386 34.181 55.3386 34.181 55.3386C34.181 55.3386 34.181 55.3386 34.181 55.3386C34.181 55.3386 34.181 55.3386 34.181 55.3386C34.1811 55.3386 34.1811 55.3386 34.1811 55.3386C34.1811 55.3386 34.1811 55.3386 34.1811 55.3387C34.1811 55.3387 34.1811 55.3387 34.1811 55.3387C34.1811 55.3387 34.1811 55.3387 34.1811 55.3387C34.1811 55.3387 34.1811 55.3387 34.1811 55.3387C34.1811 55.3387 34.1811 55.3387 34.1811 55.3387C34.1811 55.3387 34.1811 55.3387 34.1811 55.3387C34.1811 55.3387 34.1811 55.3387 34.1811 55.3387C34.1812 55.3387 34.1812 55.3387 34.1812 55.3387C34.1812 55.3387 34.1812 55.3387 34.1812 55.3387C34.1812 55.3387 34.1812 55.3387 34.1812 55.3387C34.1812 55.3387 34.1812 55.3387 34.1812 55.3387C34.1812 55.3387 34.1812 55.3387 34.1812 55.3387C34.1812 55.3387 34.1812 55.3387 34.1812 55.3387C34.1812 55.3387 34.1812 55.3387 34.1812 55.3387C34.1812 55.3387 34.1812 55.3387 34.1813 55.3387C34.1813 55.3387 34.1813 55.3387 34.1813 55.3387C34.1813 55.3387 34.1813 55.3387 34.1813 55.3387C34.1813 55.3387 34.1813 55.3387 34.1813 55.3387C34.1813 55.3387 34.1813 55.3387 34.1813 55.3387C34.1813 55.3387 34.1813 55.3387 34.1813 55.3387C34.1813 55.3387 34.1813 55.3387 34.1813 55.3387C34.1813 55.3387 34.1813 55.3387 34.1813 55.3388C34.1813 55.3388 34.1813 55.3388 34.1814 55.3388C34.1814 55.3388 34.1814 55.3388 34.1814 55.3388C34.1814 55.3388 34.1814 55.3388 34.1814 55.3388C34.1814 55.3388 34.1814 55.3388 34.1814 55.3388C34.1814 55.3388 34.1814 55.3388 34.1814 55.3388C34.1814 55.3388 34.1814 55.3388 34.1814 55.3388C34.1814 55.3388 34.1814 55.3388 34.1814 55.3388C34.1814 55.3388 34.1814 55.3388 34.1814 55.3388C34.1814 55.3388 34.1815 55.3388 34.1815 55.3388C34.1815 55.3388 34.1815 55.3388 34.1815 55.3388C34.1815 55.3388 34.1815 55.3388 34.1815 55.3388C34.1815 55.3388 34.1815 55.3388 34.1815 55.3388C34.1815 55.3388 34.1815 55.3388 34.1815 55.3388C34.1815 55.3388 34.1815 55.3388 34.1815 55.3388C34.1815 55.3388 34.1815 55.3388 34.1815 55.3388C34.1815 55.3388 34.1815 55.3388 34.1815 55.3388C34.1816 55.3388 34.1816 55.3388 34.1816 55.3388C34.1816 55.3388 34.1816 55.3388 34.1816 55.3388C34.1816 55.3388 34.1816 55.3388 34.1816 55.3388C34.1816 55.3388 34.1816 55.3388 34.1816 55.3388C34.1816 55.3388 34.1816 55.3388 34.1816 55.3389C34.1816 55.3389 34.1816 55.3389 34.1816 55.3389C34.1816 55.3389 34.1816 55.3389 34.1816 55.3389C34.1816 55.3389 34.1816 55.3389 34.1816 55.3389C34.1817 55.3389 34.1817 55.3389 34.1817 55.3389C34.1817 55.3389 34.1817 55.3389 34.1817 55.3389C34.1817 55.3389 34.1817 55.3389 34.1817 55.3389C34.1817 55.3389 34.1817 55.3389 34.1817 55.3389C34.1817 55.3389 34.1817 55.3389 34.1817 55.3389C34.1817 55.3389 34.1817 55.3389 34.1817 55.3389C34.1817 55.3389 34.1817 55.3389 34.1817 55.3389C34.1817 55.3389 34.1817 55.3389 34.1818 55.3389C34.1818 55.3389 34.1818 55.3389 34.1818 55.3389C34.1818 55.3389 34.1818 55.3389 34.1818 55.3389C34.1818 55.3389 34.1818 55.3389 34.1818 55.3389C34.1818 55.3389 34.1818 55.3389 34.1818 55.3389C34.1818 55.3389 34.1818 55.3389 34.1818 55.3389C34.1818 55.3389 34.1818 55.3389 34.1818 55.3389C34.1818 55.3389 34.1818 55.3389 34.1818 55.3389C34.1818 55.3389 34.1819 55.3389 34.1819 55.3389C34.1819 55.3389 34.1819 55.3389 34.1819 55.3389C34.1819 55.3389 34.1819 55.3389 34.1819 55.3389C34.1819 55.339 34.1819 55.339 34.1819 55.339C34.1819 55.339 34.1819 55.339 34.1819 55.339C34.1819 55.339 34.1819 55.339 34.1819 55.339C34.1819 55.339 34.1819 55.339 34.1819 55.339C34.1819 55.339 34.1819 55.339 34.1819 55.339C34.1819 55.339 34.182 55.339 34.182 55.339C34.182 55.339 34.182 55.339 34.182 55.339C34.182 55.339 34.182 55.339 34.182 55.339C34.182 55.339 34.182 55.339 34.182 55.339C34.182 55.339 34.182 55.339 34.182 55.339C34.182 55.339 34.182 55.339 34.182 55.339C34.182 55.339 34.182 55.339 34.182 55.339C34.182 55.339 34.182 55.339 34.182 55.339C34.1821 55.339 34.1821 55.339 34.1821 55.339C34.1821 55.339 34.1821 55.339 34.1821 55.339C34.1821 55.339 34.1821 55.339 34.1821 55.339C34.1821 55.339 34.1821 55.339 34.1821 55.339C34.1821 55.339 34.1821 55.339 34.1821 55.339C34.1821 55.339 34.1821 55.339 34.1821 55.339C34.1821 55.339 34.1821 55.339 34.1821 55.339C34.1821 55.339 34.1821 55.339 34.1821 55.339C34.1822 55.3391 34.1822 55.3391 34.1822 55.3391C34.1822 55.3391 34.1822 55.3391 34.1822 55.3391C34.1822 55.3391 34.1822 55.3391 34.1822 55.3391C34.1822 55.3391 34.1822 55.3391 34.1822 55.3391C34.1822 55.3391 34.1822 55.3391 34.1822 55.3391C34.1822 55.3391 34.1822 55.3391 34.1822 55.3391C34.1822 55.3391 34.1822 55.3391 34.1822 55.3391C34.1822 55.3391 34.1822 55.3391 34.1823 55.3391C34.1823 55.3391 34.1823 55.3391 34.1823 55.3391C34.1823 55.3391 34.1823 55.3391 34.1823 55.3391C34.1823 55.3391 34.1823 55.3391 34.1823 55.3391C34.1823 55.3391 34.1823 55.3391 34.1823 55.3391C34.1823 55.3391 34.1823 55.3391 34.1823 55.3391C34.1823 55.3391 34.1823 55.3391 34.1823 55.3391C34.1823 55.3391 34.1823 55.3391 34.1823 55.3391C34.1823 55.3391 34.1824 55.3391 34.1824 55.3391C34.1824 55.3391 34.1824 55.3391 34.1824 55.3391C34.1824 55.3391 34.1824 55.3391 34.1824 55.3391C34.1824 55.3391 34.1824 55.3391 34.1824 55.3391C34.1824 55.3391 34.1824 55.3391 34.1824 55.3391C34.1824 55.3391 34.1824 55.3391 34.1824 55.3391C34.1824 55.3391 34.1824 55.3392 34.1824 55.3392C34.1824 55.3392 34.1824 55.3392 34.1824 55.3392C34.1824 55.3392 34.1825 55.3392 34.1825 55.3392C34.1825 55.3392 34.1825 55.3392 34.1825 55.3392C34.1825 55.3392 34.1825 55.3392 34.1825 55.3392C34.1825 55.3392 34.1825 55.3392 34.1825 55.3392C34.1825 55.3392 34.1825 55.3392 34.1825 55.3392C34.1825 55.3392 34.1825 55.3392 34.1825 55.3392C34.1825 55.3392 34.1825 55.3392 34.1825 55.3392C34.1825 55.3392 34.1825 55.3392 34.1825 55.3392C34.1826 55.3392 34.1826 55.3392 34.1826 55.3392C34.1826 55.3392 34.1826 55.3392 34.1826 55.3392C34.1826 55.3392 34.1826 55.3392 34.1826 55.3392C34.1826 55.3392 34.1826 55.3392 34.1826 55.3392C34.1826 55.3392 34.1826 55.3392 34.1826 55.3392C34.1826 55.3392 34.1826 55.3392 34.1826 55.3392C34.1826 55.3392 34.1826 55.3392 34.1826 55.3392C34.1826 55.3392 34.1826 55.3392 34.1827 55.3392C34.1827 55.3392 34.1827 55.3392 34.1827 55.3392C34.1827 55.3392 34.1827 55.3392 34.1827 55.3392C34.1827 55.3392 34.1827 55.3392 34.1827 55.3392C34.1827 55.3393 34.1827 55.3393 34.1827 55.3393C34.1827 55.3393 34.1827 55.3393 34.1827 55.3393C34.1827 55.3393 34.1827 55.3393 34.1827 55.3393C34.1827 55.3393 34.1827 55.3393 34.1827 55.3393C34.1827 55.3393 34.1827 55.3393 34.1828 55.3393C34.1828 55.3393 34.1828 55.3393 34.1828 55.3393C34.1828 55.3393 34.1828 55.3393 34.1828 55.3393C34.1828 55.3393 34.1828 55.3393 34.1828 55.3393C34.1828 55.3393 34.1828 55.3393 34.1828 55.3393C34.1828 55.3393 34.1828 55.3393 34.1828 55.3393C34.1828 55.3393 34.1828 55.3393 34.1828 55.3393C34.1828 55.3393 34.1828 55.3393 34.1828 55.3393C34.1828 55.3393 34.1829 55.3393 34.1829 55.3393C34.1829 55.3393 34.1829 55.3393 34.1829 55.3393C34.1829 55.3393 34.1829 55.3393 34.1829 55.3393C34.1829 55.3393 34.1829 55.3393 34.1829 55.3393C34.1829 55.3393 34.1829 55.3393 34.1829 55.3393C34.1829 55.3393 34.1829 55.3393 34.1829 55.3393C34.1829 55.3393 34.1829 55.3393 34.1829 55.3393C34.1829 55.3393 34.1829 55.3393 34.1829 55.3393C34.183 55.3393 34.183 55.3393 34.183 55.3393C34.183 55.3393 34.183 55.3394 34.183 55.3394C34.183 55.3394 34.183 55.3394 34.183 55.3394C34.183 55.3394 34.183 55.3394 34.183 55.3394C34.183 55.3394 34.183 55.3394 34.183 55.3394C34.183 55.3394 34.183 55.3394 34.183 55.3394C34.183 55.3394 34.183 55.3394 34.183 55.3394C34.183 55.3394 34.183 55.3394 34.183 55.3394C34.1831 55.3394 34.1831 55.3394 34.1831 55.3394C34.1831 55.3394 34.1831 55.3394 34.1831 55.3394C34.1831 55.3394 34.1831 55.3394 34.1831 55.3394C34.1831 55.3394 34.1831 55.3394 34.1831 55.3394C34.1831 55.3394 34.1831 55.3394 34.1831 55.3394C34.1831 55.3394 34.1831 55.3394 34.1831 55.3394C34.1831 55.3394 34.1831 55.3394 34.1831 55.3394C34.1831 55.3394 34.1831 55.3394 34.1832 55.3394C34.1832 55.3394 34.1832 55.3394 34.1832 55.3394C34.1832 55.3394 34.1832 55.3394 34.1832 55.3394C34.1832 55.3394 34.1832 55.3394 34.1832 55.3394C34.1832 55.3394 34.1832 55.3394 34.1832 55.3394C34.1832 55.3394 34.1832 55.3394 34.1832 55.3394C34.1832 55.3394 34.1832 55.3394 34.1832 55.3394C34.1832 55.3394 34.1832 55.3395 34.1832 55.3395C34.1832 55.3395 34.1832 55.3395 34.1833 55.3395C34.1833 55.3395 34.1833 55.3395 34.1833 55.3395C34.1833 55.3395 34.1833 55.3395 34.1833 55.3395C34.1833 55.3395 34.1833 55.3395 34.1833 55.3395C34.1833 55.3395 34.1833 55.3395 34.1833 55.3395C34.1833 55.3395 34.1833 55.3395 34.1833 55.3395C34.1833 55.3395 34.1833 55.3395 34.1833 55.3395C34.1833 55.3395 34.1833 55.3395 34.1833 55.3395C34.1833 55.3395 34.1834 55.3395 34.1834 55.3395C34.1834 55.3395 34.1834 55.3395 34.1834 55.3395C34.1834 55.3395 34.1834 55.3395 34.1834 55.3395C34.1834 55.3395 34.1834 55.3395 34.1834 55.3395C34.1834 55.3395 34.1834 55.3395 34.1834 55.3395C34.1834 55.3395 34.1834 55.3395 34.1834 55.3395C34.1834 55.3395 34.1834 55.3395 34.1834 55.3395C34.1834 55.3395 34.1834 55.3395 34.1834 55.3395C34.1835 55.3395 34.1835 55.3395 34.1835 55.3395C34.1835 55.3395 34.1835 55.3395 34.1835 55.3395C34.1835 55.3395 34.1835 55.3395 34.1835 55.3395C34.1835 55.3395 34.1835 55.3395 34.1835 55.3395C34.1835 55.3395 34.1835 55.3396 34.1835 55.3396C34.1835 55.3396 34.1835 55.3396 34.1835 55.3396C34.1835 55.3396 34.1835 55.3396 34.1835 55.3396C34.1835 55.3396 34.1835 55.3396 34.1835 55.3396C34.1836 55.3396 34.1836 55.3396 34.1836 55.3396C34.1836 55.3396 34.1836 55.3396 34.1836 55.3396C34.1836 55.3396 34.1836 55.3396 34.1836 55.3396C34.1836 55.3396 34.1836 55.3396 34.1836 55.3396C34.1836 55.3396 34.1836 55.3396 34.1836 55.3396C34.1836 55.3396 34.1836 55.3396 34.1836 55.3396C34.1836 55.3396 34.1836 55.3396 34.1836 55.3396C34.1836 55.3396 34.1836 55.3396 34.1837 55.3396C34.1837 55.3396 34.1837 55.3396 34.1837 55.3396C34.1837 55.3396 34.1837 55.3396 34.1837 55.3396C34.1837 55.3396 34.1837 55.3396 34.1837 55.3396C34.1837 55.3396 34.1837 55.3396 34.1837 55.3396C34.1837 55.3396 34.1837 55.3396 34.1837 55.3396C34.1837 55.3396 34.1837 55.3396 34.1837 55.3396C34.1837 55.3396 34.1837 55.3396 34.1837 55.3396C34.1837 55.3396 34.1838 55.3396 34.1838 55.3396C34.1838 55.3396 34.1838 55.3396 34.1838 55.3396C34.1838 55.3396 34.1838 55.3396 34.1838 55.3397C34.1838 55.3397 34.1838 55.3397 34.1838 55.3397C34.1838 55.3397 34.1838 55.3397 34.1838 55.3397C34.1838 55.3397 34.1838 55.3397 34.1838 55.3397C34.1838 55.3397 34.1838 55.3397 34.1838 55.3397C34.1838 55.3397 34.1838 55.3397 34.1838 55.3397C34.1838 55.3397 34.1839 55.3397 34.1839 55.3397C34.1839 55.3397 34.1839 55.3397 34.1839 55.3397C34.1839 55.3397 34.1839 55.3397 34.1839 55.3397C34.1839 55.3397 34.1839 55.3397 34.1839 55.3397C34.1839 55.3397 34.1839 55.3397 34.1839 55.3397C34.1839 55.3397 34.1839 55.3397 34.1839 55.3397C34.1839 55.3397 34.1839 55.3397 34.1839 55.3397C34.1839 55.3397 34.1839 55.3397 34.1839 55.3397C34.184 55.3397 34.184 55.3397 34.184 55.3397C34.184 55.3397 34.184 55.3397 34.184 55.3397C34.184 55.3397 34.184 55.3397 34.184 55.3397C34.184 55.3397 34.184 55.3397 34.184 55.3397C34.184 55.3397 34.184 55.3397 34.184 55.3397C34.184 55.3397 34.184 55.3397 34.184 55.3397C34.184 55.3397 34.184 55.3397 34.184 55.3397C34.184 55.3397 34.184 55.3397 34.184 55.3398C34.1841 55.3398 34.1841 55.3398 34.1841 55.3398C34.1841 55.3398 34.1841 55.3398 34.1841 55.3398C34.1841 55.3398 34.1841 55.3398 34.1841 55.3398C34.1841 55.3398 34.1841 55.3398 34.1841 55.3398C34.1841 55.3398 34.1841 55.3398 34.1841 55.3398C34.1841 55.3398 34.1841 55.3398 34.1841 55.3398C34.1841 55.3398 34.1841 55.3398 34.1841 55.3398C34.1841 55.3398 34.1841 55.3398 34.1842 55.3398C34.1842 55.3398 34.1842 55.3398 34.1842 55.3398C34.1842 55.3398 34.1842 55.3398 34.1842 55.3398C34.1842 55.3398 34.1842 55.3398 34.1842 55.3398C34.1842 55.3398 34.1842 55.3398 34.1842 55.3398C34.1842 55.3398 34.1842 55.3398 34.1842 55.3398C34.1842 55.3398 34.1842 55.3398 34.1842 55.3398C34.1842 55.3398 34.1842 55.3398 34.1842 55.3398C34.1842 55.3398 34.1843 55.3398 34.1843 55.3398C34.1843 55.3398 34.1843 55.3398 34.1843 55.3398C34.1843 55.3398 34.1843 55.3398 34.1843 55.3398C34.1843 55.3398 34.1843 55.3398 34.1843 55.3398C34.1843 55.3398 34.1843 55.3398 34.1843 55.3398C34.1843 55.3398 34.1843 55.3398 34.1843 55.3398C34.1843 55.3399 34.1843 55.3399 34.1843 55.3399C34.1843 55.3399 34.1843 55.3399 34.1843 55.3399C34.1843 55.3399 34.1844 55.3399 34.1844 55.3399C34.1844 55.3399 34.1844 55.3399 34.1844 55.3399C34.1844 55.3399 34.1844 55.3399 34.1844 55.3399C34.1844 55.3399 34.1844 55.3399 34.1844 55.3399C34.1844 55.3399 34.1844 55.3399 34.1844 55.3399C34.1844 55.3399 34.1844 55.3399 34.1844 55.3399C34.1844 55.3399 34.1844 55.3399 34.1844 55.3399C34.1844 55.3399 34.1844 55.3399 34.1844 55.3399C34.1845 55.3399 34.1845 55.3399 34.1845 55.3399C34.1845 55.3399 34.1845 55.3399 34.1845 55.3399C34.1845 55.3399 34.1845 55.3399 34.1845 55.3399C34.1845 55.3399 34.1845 55.3399 34.1845 55.3399C34.1845 55.3399 34.1845 55.3399 34.1845 55.3399C34.1845 55.3399 34.1845 55.3399 34.1845 55.3399C34.1845 55.3399 34.1845 55.3399 34.1845 55.3399C34.1845 55.3399 34.1845 55.3399 34.1846 55.3399C34.1846 55.3399 34.1846 55.3399 34.1846 55.3399C34.1846 55.3399 34.1846 55.3399 34.1846 55.3399C34.1846 55.3399 34.1846 55.3399 34.1846 55.3399C34.1846 55.34 34.1846 55.34 34.1846 55.34C34.1846 55.34 34.1846 55.34 34.1846 55.34C34.1846 55.34 34.1846 55.34 34.1846 55.34C34.1846 55.34 34.1846 55.34 34.1846 55.34C34.1846 55.34 34.1846 55.34 34.1847 55.34C34.1847 55.34 34.1847 55.34 34.1847 55.34C34.1847 55.34 34.1847 55.34 34.1847 55.34C34.1847 55.34 34.1847 55.34 34.1847 55.34C34.1847 55.34 34.1847 55.34 34.1847 55.34C34.1847 55.34 34.1847 55.34 34.1847 55.34C34.1847 55.34 34.1847 55.34 34.1847 55.34C34.1847 55.34 34.1847 55.34 34.1847 55.34C34.1847 55.34 34.1848 55.34 34.1848 55.34C34.1848 55.34 34.1848 55.34 34.1848 55.34C34.1848 55.34 34.1848 55.34 34.1848 55.34C34.1848 55.34 34.1848 55.34 34.1848 55.34C34.1848 55.34 34.1848 55.34 34.1848 55.34C34.1848 55.34 34.1848 55.34 34.1848 55.34C34.1848 55.34 34.1848 55.34 34.1848 55.34C34.1848 55.34 34.1848 55.34 34.1848 55.34C34.1848 55.34 34.1849 55.34 34.1849 55.34C34.1849 55.34 34.1849 55.3401 34.1849 55.3401C34.1849 55.3401 34.1849 55.3401 34.1849 55.3401C34.1849 55.3401 34.1849 55.3401 34.1849 55.3401C34.1849 55.3401 34.1849 55.3401 34.1849 55.3401C34.1849 55.3401 34.1849 55.3401 34.1849 55.3401C34.1849 55.3401 34.1849 55.3401 34.1849 55.3401C34.1849 55.3401 34.1849 55.3401 34.1849 55.3401C34.185 55.3401 34.185 55.3401 34.185 55.3401C34.185 55.3401 34.185 55.3401 34.185 55.3401C34.185 55.3401 34.185 55.3401 34.185 55.3401C34.185 55.3401 34.185 55.3401 34.185 55.3401C34.185 55.3401 34.185 55.3401 34.185 55.3401C34.185 55.3401 34.185 55.3401 34.185 55.3401C34.185 55.3401 34.185 55.3401 34.185 55.3401C34.185 55.3401 34.185 55.3401 34.1851 55.3401C34.1851 55.3401 34.1851 55.3401 34.1851 55.3401C34.1851 55.3401 34.1851 55.3401 34.1851 55.3401C34.1851 55.3401 34.1851 55.3401 34.1851 55.3401C34.1851 55.3401 34.1851 55.3401 34.1851 55.3401C34.1851 55.3401 34.1851 55.3401 34.1851 55.3401C34.1851 55.3401 34.1851 55.3401 34.1851 55.3401C34.1851 55.3402 34.1851 55.3402 34.1851 55.3402C34.1851 55.3402 34.1851 55.3402 34.1852 55.3402C34.1852 55.3402 34.1852 55.3402 34.1852 55.3402C34.1852 55.3402 34.1852 55.3402 34.1852 55.3402C34.1852 55.3402 34.1852 55.3402 34.1852 55.3402C34.1852 55.3402 34.1852 55.3402 34.1852 55.3402C34.1852 55.3402 34.1852 55.3402 34.1852 55.3402C34.1852 55.3402 34.1852 55.3402 34.1852 55.3402C34.1852 55.3402 34.1852 55.3402 34.1852 55.3402C34.1852 55.3402 34.1853 55.3402 34.1853 55.3402C34.1853 55.3402 34.1853 55.3402 34.1853 55.3402C34.1853 55.3402 34.1853 55.3402 34.1853 55.3402C34.1853 55.3402 34.1853 55.3402 34.1853 55.3402C34.1853 55.3402 34.1853 55.3402 34.1853 55.3402C34.1853 55.3402 34.1853 55.3402 34.1853 55.3402C34.1853 55.3402 34.1853 55.3402 34.1853 55.3402C34.1853 55.3402 34.1853 55.3402 34.1853 55.3402C34.1854 55.3402 34.1854 55.3402 34.1854 55.3402C34.1854 55.3402 34.1854 55.3402 34.1854 55.3402C34.1854 55.3402 34.1854 55.3402 34.1854 55.3402C34.1854 55.3402 34.1854 55.3402 34.1854 55.3402C34.1854 55.3403 34.1854 55.3403 34.1854 55.3403C34.1854 55.3403 34.1854 55.3403 34.1854 55.3403C34.1854 55.3403 34.1854 55.3403 34.1854 55.3403C34.1854 55.3403 34.1854 55.3403 34.1854 55.3403C34.1855 55.3403 34.1855 55.3403 34.1855 55.3403C34.1855 55.3403 34.1855 55.3403 34.1855 55.3403C34.1855 55.3403 34.1855 55.3403 34.1855 55.3403C34.1855 55.3403 34.1855 55.3403 34.1855 55.3403C34.1855 55.3403 34.1855 55.3403 34.1855 55.3403C34.1855 55.3403 34.1855 55.3403 34.1855 55.3403C34.1855 55.3403 34.1855 55.3403 34.1855 55.3403C34.1855 55.3403 34.1855 55.3403 34.1856 55.3403C34.1856 55.3403 34.1856 55.3403 34.1856 55.3403C34.1856 55.3403 34.1856 55.3403 34.1856 55.3403C34.1856 55.3403 34.1856 55.3403 34.1856 55.3403C34.1856 55.3403 34.1856 55.3403 34.1856 55.3403C34.1856 55.3403 34.1856 55.3403 34.1856 55.3403C34.1856 55.3403 34.1856 55.3403 34.1856 55.3403C34.1856 55.3403 34.1856 55.3403 34.1856 55.3403C34.1856 55.3403 34.1856 55.3403 34.1857 55.3403C34.1857 55.3403 34.1857 55.3403 34.1857 55.3403C34.1857 55.3403 34.1857 55.3404 34.1857 55.3404C34.1857 55.3404 34.1857 55.3404 34.1857 55.3404C34.1857 55.3404 34.1857 55.3404 34.1857 55.3404C34.1857 55.3404 34.1857 55.3404 34.1857 55.3404C34.1857 55.3404 34.1857 55.3404 34.1857 55.3404C34.1857 55.3404 34.1857 55.3404 34.1857 55.3404C34.1857 55.3404 34.1858 55.3404 34.1858 55.3404C34.1858 55.3404 34.1858 55.3404 34.1858 55.3404C34.1858 55.3404 34.1858 55.3404 34.1858 55.3404C34.1858 55.3404 34.1858 55.3404 34.1858 55.3404C34.1858 55.3404 34.1858 55.3404 34.1858 55.3404C34.1858 55.3404 34.1858 55.3404 34.1858 55.3404C34.1858 55.3404 34.1858 55.3404 34.1858 55.3404C34.1858 55.3404 34.1858 55.3404 34.1858 55.3404C34.1859 55.3404 34.1859 55.3404 34.1859 55.3404C34.1859 55.3404 34.1859 55.3404 34.1859 55.3404C34.1859 55.3404 34.1859 55.3404 34.1859 55.3404C34.1859 55.3404 34.1859 55.3404 34.1859 55.3404C34.1859 55.3404 34.1859 55.3404 34.1859 55.3404C34.1859 55.3404 34.1859 55.3404 34.1859 55.3404C34.1859 55.3404 34.1859 55.3404 34.1859 55.3404C34.1859 55.3404 34.1859 55.3405 34.1859 55.3405C34.186 55.3405 34.186 55.3405 34.186 55.3405C34.186 55.3405 34.186 55.3405 34.186 55.3405C34.186 55.3405 34.186 55.3405 34.186 55.3405C34.186 55.3405 34.186 55.3405 34.186 55.3405C34.186 55.3405 34.186 55.3405 34.186 55.3405C34.186 55.3405 34.186 55.3405 34.186 55.3405C34.186 55.3405 34.186 55.3405 34.186 55.3405C34.186 55.3405 34.186 55.3405 34.1861 55.3405C34.1861 55.3405 34.1861 55.3405 34.1861 55.3405C34.1861 55.3405 34.1861 55.3405 34.1861 55.3405C34.1861 55.3405 34.1861 55.3405 34.1861 55.3405C34.1861 55.3405 34.1861 55.3405 34.1861 55.3405L35.5714 51.5881ZM36.7518 54.1453L37.4353 52.2655L33.676 50.8987L32.9926 52.7785L36.7518 54.1453ZM34.8614 53.4577C34.8639 53.4587 34.8672 53.4599 34.8707 53.4612L36.2563 49.7088C36.2545 49.7082 36.2526 49.7075 36.2499 49.7064L34.8614 53.4577ZM33.6843 50.9003L32.9996 52.7796L36.7579 54.149L37.4426 52.2697L33.6843 50.9003ZM44.1179 51.5858C44.1152 51.5868 44.1168 51.5862 44.1119 51.588L45.4967 55.3407C45.4974 55.3404 45.4981 55.3401 45.4994 55.3397C45.5005 55.3393 45.5021 55.3387 45.5038 55.338L44.1179 51.5858ZM46.6834 52.7797L45.9987 50.9004L42.2404 52.2697L42.9251 54.149L46.6834 52.7797ZM44.8123 53.4612C44.8157 53.46 44.819 53.4588 44.8218 53.4577L43.4329 49.7066C43.4306 49.7075 43.4286 49.7082 43.4267 49.7089L44.8123 53.4612ZM42.2478 52.2656L42.9312 54.1453L46.6905 52.7785L46.007 50.8988L42.2478 52.2656ZM50.6053 46.0548C50.6046 46.056 50.6039 46.0572 50.6033 46.0582C50.6027 46.0592 50.6023 46.0601 50.6018 46.0609L54.0877 48.0227C54.0884 48.0215 54.089 48.0203 54.0896 48.0193C54.0902 48.0183 54.0907 48.0174 54.0911 48.0166L50.6053 46.0548ZM53.3441 45.3094L51.6115 44.3099L49.6127 47.7747L51.3453 48.7742L53.3441 45.3094ZM52.3569 47.0199C52.3582 47.0175 52.3598 47.0148 52.3613 47.012L48.8711 45.0579C48.8699 45.06 48.8687 45.0622 48.8673 45.0647L52.3569 47.0199ZM49.6156 47.7666L51.3476 48.7674L53.3488 45.304L51.6168 44.3032L49.6156 47.7666ZM51.9751 37.7027C51.9755 37.7051 51.9758 37.7067 51.9761 37.7082L55.9064 36.9648C55.9058 36.9616 55.9052 36.9585 55.9048 36.9562L51.9751 37.7027ZM53.5933 35.367L51.6236 35.715L52.3195 39.654L54.2892 39.306L53.5933 35.367ZM53.9361 37.3095C53.9354 37.3058 53.9344 37.3007 53.9342 37.2997L50.0057 38.0526C50.0066 38.0572 50.0067 38.0576 50.007 38.0595L53.9361 37.3095ZM52.3166 39.6459L54.2865 39.2992L53.5933 35.3597L51.6233 35.7064L52.3166 39.6459ZM47.7002 30.4744C47.7029 30.4766 47.7036 30.4773 47.7054 30.4787L50.251 27.3932C50.249 27.3916 50.246 27.3892 50.245 27.3884L47.7002 30.4744ZM47.4456 27.6509L46.1605 29.1835L49.2256 31.7536L50.5107 30.221L47.4456 27.6509ZM48.9639 28.9242C48.9614 28.9222 48.959 28.9202 48.9567 28.9183L46.4162 32.0079C46.4183 32.0097 46.4203 32.0113 46.4222 32.0129L48.9639 28.9242ZM49.2181 31.7492L50.5043 30.2175L47.441 27.6453L46.1548 29.177L49.2181 31.7492ZM39.8384 27.6514C39.8405 27.6514 39.8426 27.6514 39.8446 27.6514L39.8456 23.6514C39.8429 23.6514 39.8401 23.6514 39.8374 23.6514L39.8384 27.6514ZM41.8372 27.6521L41.8379 25.6521L37.8379 25.6507L37.8372 27.6507L41.8372 27.6521ZM39.8465 25.6514C39.8432 25.6514 39.8399 25.6514 39.8365 25.6514L39.8379 29.6514C39.8403 29.6514 39.8427 29.6514 39.8452 29.6514L39.8465 25.6514ZM37.8451 25.6521L37.8458 27.6521L41.8458 27.6507L41.8451 25.6507L37.8451 25.6521Z" fill="#606060" class="fill-grey" />
  <path d="M37.0007 37.0006V35.0006H35.0007V37.0006H37.0007ZM43.0007 37.0006H45.0007V35.0006H43.0007V37.0006ZM37.0007 43.0006H35.0007V45.0006H37.0007V43.0006ZM43.0007 43.0006V45.0006H45.0007V43.0006H43.0007ZM48.2737 32.4804L49.489 30.892L46.3122 28.4614L45.0969 30.0498L48.2737 32.4804ZM40.7087 35.7854L39.4934 37.3738L42.6702 39.8044L43.8855 38.2159L40.7087 35.7854ZM52.9187 49.6481L54.6571 50.637L56.635 47.1602L54.8966 46.1713L52.9187 49.6481ZM43.9897 39.9665L42.2513 38.9776L40.2734 42.4543L42.0118 43.4433L43.9897 39.9665ZM37.0007 39.0006H43.0007V35.0006H37.0007V39.0006ZM39.0007 43.0006V37.0006H35.0007V43.0006H39.0007ZM43.0007 41.0006H37.0007V45.0006H43.0007V41.0006ZM41.0007 37.0006V43.0006H45.0007V37.0006H41.0007ZM45.0969 30.0498L40.7087 35.7854L43.8855 38.2159L48.2737 32.4804L45.0969 30.0498ZM54.8966 46.1713L43.9897 39.9665L42.0118 43.4433L52.9187 49.6481L54.8966 46.1713Z" fill="#D33131" class="fill-red" />
</svg>