<svg viewBox="0 0 80 80" fill="none">
  <path fill-rule="evenodd" clip-rule="evenodd" d="M52.2489 17.1245L40.1245 10.1245L28.0002 17.1245L28.0002 30.9998L18.1245 30.9998L11.1245 43.1242L18.1245 55.2485H32.1245L36.1247 48.3201V54.8198L34.3747 58.6242L30.1247 64.1242L30.1247 67.1242H50.1247V64.1242L45.8747 58.6242L44.1247 54.8198V48.3206L48.1245 55.2485H62.1245L69.1245 43.1242L62.1245 30.9998H52.2489V17.1245Z" fill="#606060" class="fill-grey" />
  <path fill-rule="evenodd" clip-rule="evenodd" d="M47.6173 25.5119L40.0918 21.0786L32.5663 25.5119V34.2997L26.4366 34.2997L22.0918 41.9785L26.4366 49.6572H35.1263L38.0377 44.5118H42.1459L45.0573 49.6572H53.747L58.0918 41.9785L53.747 34.2997L47.6173 34.2997V25.5119Z" fill="#D2D2D2" class="fill-undefined" />
</svg>