<svg viewBox="0 0 80 80" fill="none">
  <path fill-rule="evenodd" clip-rule="evenodd" d="M27.1925 62.6169L39.8713 67.8686L59.6703 59.6676L67.8713 39.8687L59.6703 20.0697L39.8713 11.8687L20.0723 20.0697L11.8713 39.8687L17.121 52.5424L12.9999 66.7373L27.1925 62.6169Z" fill="#7B61FF" class="fill-purple" />
  <path d="M27.1925 62.6169L27.9578 60.7691L27.3092 60.5004L26.6349 60.6962L27.1925 62.6169ZM39.8713 67.8686L39.106 69.7164L39.8713 70.0334L40.6367 69.7164L39.8713 67.8686ZM59.6703 59.6676L60.4357 61.5154L61.2011 61.1984L61.5181 60.433L59.6703 59.6676ZM67.8713 39.8687L69.7191 40.634L70.0361 39.8687L69.7191 39.1033L67.8713 39.8687ZM59.6703 20.0697L61.5181 19.3043L61.2011 18.5389L60.4357 18.2219L59.6703 20.0697ZM39.8713 11.8687L40.6367 10.0209L39.8713 9.70387L39.106 10.0209L39.8713 11.8687ZM20.0723 20.0697L19.307 18.2219L18.5416 18.5389L18.2246 19.3043L20.0723 20.0697ZM11.8713 39.8687L10.0236 39.1033L9.70655 39.8687L10.0236 40.634L11.8713 39.8687ZM17.121 52.5424L19.0417 53.1001L19.2375 52.4258L18.9688 51.7771L17.121 52.5424ZM12.9999 66.7373L11.0792 66.1797L10.0654 69.6719L13.5575 68.658L12.9999 66.7373ZM26.4271 64.4647L39.106 69.7164L40.6367 66.0209L27.9578 60.7691L26.4271 64.4647ZM40.6367 69.7164L60.4357 61.5154L58.905 57.8199L39.106 66.0209L40.6367 69.7164ZM61.5181 60.433L69.7191 40.634L66.0236 39.1033L57.8226 58.9023L61.5181 60.433ZM69.7191 39.1033L61.5181 19.3043L57.8226 20.835L66.0236 40.634L69.7191 39.1033ZM60.4357 18.2219L40.6367 10.0209L39.106 13.7164L58.905 21.9174L60.4357 18.2219ZM39.106 10.0209L19.307 18.2219L20.8377 21.9174L40.6367 13.7164L39.106 10.0209ZM18.2246 19.3043L10.0236 39.1033L13.7191 40.634L21.9201 20.835L18.2246 19.3043ZM10.0236 40.634L15.2732 53.3078L18.9688 51.7771L13.7191 39.1033L10.0236 40.634ZM14.9206 67.2949L19.0417 53.1001L15.2003 51.9848L11.0792 66.1797L14.9206 67.2949ZM26.6349 60.6962L12.4423 64.8166L13.5575 68.658L27.7501 64.5376L26.6349 60.6962Z" fill="#7B61FF" class="fill-purple" />
  <path d="M22.7437 46.9588C24.6241 51.4985 28.2309 55.1053 32.7706 56.9857C37.3104 58.8662 42.4112 58.8662 46.9509 56.9857C51.4906 55.1053 55.0974 51.4985 56.9778 46.9588C58.8583 42.419 58.8583 37.3183 56.9778 32.7785C55.0974 28.2388 51.4906 24.632 46.9509 22.7516C42.4112 20.8711 37.3104 20.8711 32.7706 22.7516C28.2309 24.632 24.6241 28.2388 22.7437 32.7785C20.8633 37.3183 20.8633 42.419 22.7437 46.9588Z" fill="#84D3FF" class="fill-blue" />
</svg>