<svg viewBox="0 0 80 80" fill="none">
  <path fill-rule="evenodd" clip-rule="evenodd" d="M31.0001 58V67H49.0001L49.0001 58V49H49.5H50H50.5H51H58L67 49V31H58H51H50.5H50H49.5L49.0001 31V30.5V30V29.5V29V22L49.0001 13L31.0001 13V22L31.0001 29V29.5V30V30.5V31L31 31L22 31H13L13 49H22H31H31.0001V58Z" fill="#84D3FF" class="fill-blue" />
  <path d="M31.0001 67H29.0001L29.0001 69H31.0001L31.0001 67ZM49.0001 67V69H51.0001V67H49.0001ZM49.0001 58H51.0001H49.0001ZM49.0001 49V47H47.0001V49H49.0001ZM58 49V51V49ZM67 49V51H69V49H67ZM67 31L69 31V29H67V31ZM49.5 31V29H49.5L49.5 31ZM49.0001 31H47.0001V33L49.0001 33L49.0001 31ZM49.0001 22L47.0001 22V22H49.0001ZM49.0001 13L51.0001 13V11L49.0001 11V13ZM31.0001 13V11L29.0001 11V13L31.0001 13ZM31.0001 22H33.0001H31.0001ZM31.0001 29H29.0001H31.0001ZM31.0001 31L31.0715 32.9987L33.0001 32.9298V31H31.0001ZM31 31V33H31.0357L31.0714 32.9987L31 31ZM13 31L13 29H11V31H13ZM13 49H11L11 51H13V49ZM31.0001 49H33.0001V47H31.0001V49ZM33.0001 67V58H29.0001V67H33.0001ZM49.0001 65H31.0001L31.0001 69H49.0001V65ZM47.0001 58L47.0001 67H51.0001L51.0001 58H47.0001ZM47.0001 49V58H51.0001V49H47.0001ZM49.5 47H49.0001V51H49.5V47ZM50 47H49.5V51H50V47ZM50.5 47H50V51H50.5V47ZM51 47H50.5V51H51V47ZM58 47H51V51H58V47ZM67 47L58 47V51L67 51V47ZM65 31V49H69V31L65 31ZM58 33H67V29H58V33ZM51 33H58V29H51V33ZM50.5 33H51V29H50.5V33ZM50 33H50.5V29H50V33ZM49.5 33H50V29H49.5V33ZM49.0001 33L49.5 33L49.5 29L49.0001 29L49.0001 33ZM47.0001 30.5V31H51.0001V30.5H47.0001ZM47.0001 30V30.5H51.0001V30H47.0001ZM47.0001 29.5V30H51.0001V29.5H47.0001ZM47.0001 29V29.5H51.0001V29H47.0001ZM47.0001 22V29H51.0001V22H47.0001ZM47.0001 13L47.0001 22L51.0001 22L51.0001 13L47.0001 13ZM31.0001 15L49.0001 15V11L31.0001 11V15ZM33.0001 22V13L29.0001 13V22L33.0001 22ZM33.0001 29L33.0001 22L29.0001 22L29.0001 29L33.0001 29ZM33.0001 29.5V29H29.0001V29.5H33.0001ZM33.0001 30V29.5H29.0001V30H33.0001ZM33.0001 30.5V30H29.0001V30.5H33.0001ZM33.0001 31V30.5H29.0001V31H33.0001ZM31.0714 32.9987L31.0715 32.9987L30.9287 29.0013L30.9286 29.0013L31.0714 32.9987ZM22 33H31V29L22 29L22 33ZM13 33H22L22 29H13L13 33ZM15 49L15 31H11L11 49H15ZM22 47H13V51H22V47ZM31 47H22V51H31V47ZM31.0001 47H31V51H31.0001V47ZM33.0001 58V49H29.0001V58H33.0001Z" fill="#1CB0F6" class="fill-blue" />
  <circle cx="40" cy="40" r="4" fill="#7B61FF" class="fill-purple" />
  <path d="M43.9895 22L35.9895 22L36.9895 21L39.9895 18L42.9895 21L43.9895 22Z" fill="#F4F4F4" class="fill-white" />
  <path d="M58 43.9893L58 35.9893L59 36.9893L62 39.9893L59 42.9893L58 43.9893Z" fill="#F4F4F4" class="fill-white" />
  <path d="M43.9895 58L35.9895 58L36.9895 59L39.9895 62L42.9895 59L43.9895 58Z" fill="#F4F4F4" class="fill-white" />
  <path d="M22 43.9893L22 35.9893L21 36.9893L18 39.9893L21 42.9893L22 43.9893Z" fill="#F4F4F4" class="fill-white" />
</svg>