<svg viewBox="0 0 80 80" fill="none">
  <path fill-rule="evenodd" clip-rule="evenodd" d="M34.0317 61.3139L37.4955 48.3869L52.255 33.6274L51.4909 32.8633L73.2236 38.6865L64.9414 69.5961L34.0317 61.3139Z" fill="#84D3FF" class="fill-blue" />
  <path d="M37.4955 48.3869L36.0813 46.9727L35.7024 47.3516L35.5637 47.8693L37.4955 48.3869ZM34.0317 61.3139L32.0999 60.7963L31.5822 62.7282L33.5141 63.2458L34.0317 61.3139ZM52.255 33.6274L53.6693 35.0416L55.0835 33.6274L53.6693 32.2132L52.255 33.6274ZM51.4909 32.8633L52.0086 30.9314L44.7988 28.9996L50.0767 34.2775L51.4909 32.8633ZM73.2236 38.6865L75.1554 39.2042L75.6731 37.2723L73.7412 36.7547L73.2236 38.6865ZM64.9414 69.5961L64.4237 71.528L66.3556 72.0456L66.8732 70.1138L64.9414 69.5961ZM35.5637 47.8693L32.0999 60.7963L35.9636 61.8316L39.4274 48.9045L35.5637 47.8693ZM50.8408 32.2132L36.0813 46.9727L38.9097 49.8011L53.6693 35.0416L50.8408 32.2132ZM50.0767 34.2775L50.8408 35.0416L53.6693 32.2132L52.9052 31.4491L50.0767 34.2775ZM73.7412 36.7547L52.0086 30.9314L50.9733 34.7951L72.7059 40.6184L73.7412 36.7547ZM66.8732 70.1138L75.1554 39.2042L71.2917 38.1689L63.0095 69.0785L66.8732 70.1138ZM33.5141 63.2458L64.4237 71.528L65.459 67.6643L34.5494 59.3821L33.5141 63.2458Z" fill="#1CB0F6" class="fill-blue" />
  <rect x="61.0684" y="40.2603" width="5.33333" height="5.33333" transform="rotate(15 61.0684 40.2603)" fill="#F4F4F4" class="fill-white" />
  <rect x="42.415" y="53.207" width="5.33333" height="5.33333" transform="rotate(15 42.415 53.207)" fill="#F4F4F4" class="fill-white" />
  <rect x="7" y="33.6274" width="32" height="32" transform="rotate(-45 7 33.6274)" fill="#84D3FF" stroke="#1CB0F6" stroke-width="4" stroke-linecap="square" class="fill-blue stroke-blue" />
  <rect x="14.5425" y="32.6846" width="5.33333" height="5.33333" transform="rotate(-45 14.5425 32.6846)" fill="#F4F4F4" class="fill-white" />
  <rect x="24.9136" y="22.3135" width="5.33333" height="5.33333" transform="rotate(-45 24.9136 22.3135)" fill="#F4F4F4" class="fill-white" />
  <rect x="26.7988" y="44.9409" width="5.33333" height="5.33333" transform="rotate(-45 26.7988 44.9409)" fill="#F4F4F4" class="fill-white" />
  <rect x="37.1699" y="34.5703" width="5.33333" height="5.33333" transform="rotate(-45 37.1699 34.5703)" fill="#F4F4F4" class="fill-white" />
</svg>