<svg viewBox="0 0 80 80" fill="none">
  <path d="M51.2 20H53.2V18H51.2V20ZM28.8 20V18H26.8V20H28.8ZM28 60H26V62H28V60ZM52 60V62H54V60H52ZM28.8 36.4583H26.8V37.9785L28.2647 38.3854L28.8 36.4583ZM52 43.125H54V41.6335L52.5705 41.2081L52 43.125ZM40.8 39.7917L41.3705 37.8748L41.3529 37.8695L41.3353 37.8646L40.8 39.7917ZM30 49.5833L30 47.5833H26L26 49.5833H30ZM49.2 30.4167V32.4167H53.2V30.4167H49.2ZM38 20V22L42 22V20L38 20ZM42 16V14H38V16L42 16ZM38 64V66H42V64H38ZM42 60V58H38V60H42ZM51.2 18L28.8 18V22L51.2 22V18ZM28 62L52 62V58L28 58V62ZM26.8 20L26.8 36.4583H30.8L30.8 20H26.8ZM49.2 20V30H53.2V20H49.2ZM26 50V60H30V50H26ZM50 43.125L50 60L54 60L54 43.125H50ZM28.2647 38.3854L40.2647 41.7187L41.3353 37.8646L29.3353 34.5313L28.2647 38.3854ZM40.2295 41.7086L51.4295 45.0419L52.5705 41.2081L41.3705 37.8748L40.2295 41.7086ZM30 50V49.5833H26V50H30ZM49.2 30V30.4167H53.2V30H49.2ZM42 20V16L38 16V20L42 20ZM42 64V60H38V64H42Z" fill="#7AC70C" class="fill-green" />
</svg>