<svg viewBox="0 0 80 80" fill="none">
  <path d="M40 12L47.0711 27.6396L60 47.8198L54.1421 62.0894L40 68L25.8579 62.0894L20 47.8198L32.9289 27.6396L40 12Z" fill="#1CB0F6" stroke="#1CB0F6" stroke-width="4" stroke-linecap="square" class="fill-blue stroke-blue" />
  <path d="M26.999 50.0034L25.1511 49.2383L24.8343 50.0036L25.1513 50.7688L26.999 50.0034ZM28.847 50.7682L29.6121 48.9203L25.9164 47.3901L25.1513 49.238L28.847 50.7682ZM43.1989 62.4254L45.0467 61.6601L43.516 57.9646L41.6682 58.7299L43.1989 62.4254ZM38.9969 62.0012L38.2315 63.849L38.9969 64.166L39.7622 63.849L38.9969 62.0012ZM30.5131 58.4871L28.6653 59.2525L28.9824 60.0179L29.7477 60.3349L30.5131 58.4871ZM28.8469 50.7685L28.847 50.7682L25.1513 49.238L25.1511 49.2383L28.8469 50.7685ZM41.6682 58.7299L38.2315 60.1535L39.7622 63.849L43.1989 62.4254L41.6682 58.7299ZM39.7622 60.1535L31.2785 56.6394L29.7477 60.3349L38.2315 63.849L39.7622 60.1535ZM32.3609 57.7218L28.8468 49.238L25.1513 50.7688L28.6653 59.2525L32.3609 57.7218Z" fill="#F4F4F4" class="fill-white" />
</svg>