<svg viewBox="0 0 80 80" fill="none">
  <path fill-rule="evenodd" clip-rule="evenodd" d="M51.8579 54L44.7578 32H34.9513L27.8579 54H28.3796H34.9999L34.9999 68H44.9999L44.9999 54H51.3362H51.8579Z" fill="#FFC200" class="fill-yellow" />
  <path d="M44.7578 32L46.6612 31.3857L46.214 30H44.7578V32ZM51.8579 54V56H54.6049L53.7612 53.3857L51.8579 54ZM34.9513 32V30H33.4948L33.0478 31.3863L34.9513 32ZM27.8579 54L25.9544 53.3863L25.1117 56H27.8579V54ZM34.9999 54H36.9999V52H34.9999V54ZM34.9999 68H32.9999V70H34.9999V68ZM44.9999 68V70H46.9999V68H44.9999ZM44.9999 54V52H42.9999V54H44.9999ZM42.8545 32.6143L49.9546 54.6143L53.7612 53.3857L46.6612 31.3857L42.8545 32.6143ZM34.9513 34H44.7578V30L34.9513 30V34ZM29.7614 54.6137L36.8548 32.6137L33.0478 31.3863L25.9544 53.3863L29.7614 54.6137ZM28.3796 52H27.8579V56H28.3796V52ZM34.9999 52H28.3796V56H34.9999V52ZM36.9999 68L36.9999 54H32.9999L32.9999 68H36.9999ZM44.9999 66H34.9999V70H44.9999V66ZM42.9999 54L42.9999 68H46.9999L46.9999 54H42.9999ZM51.3362 52H44.9999V56H51.3362V52ZM51.8579 52H51.3362V56H51.8579V52Z" fill="#FFC200" class="fill-yellow" />
  <path d="M40 28L47.6085 22.4721L44.7023 13.5279L35.2977 13.5279L32.3915 22.4721L40 28Z" fill="#FF9100" stroke="#FF9100" stroke-width="4" stroke-linecap="square" class="fill-orange stroke-orange" />
</svg>