<svg viewBox="0 0 80 80" fill="none">
  <path fill-rule="evenodd" clip-rule="evenodd" d="M58 16L22 16L22 64H58L58 16Z" fill="#84D3FF" class="fill-blue" />
  <path d="M22 16V14H20V16H22ZM58 16H60V14H58V16ZM22 64H20V66H22V64ZM58 64V66H60V64H58ZM58 42H60V38H58V42ZM22 38H20V42H22V38ZM22 18L58 18V14L22 14V18ZM24 64L24 16H20L20 64H24ZM58 62L22 62V66H58V62ZM56 16L56 64H60L60 16H56ZM58 38L22 38V42L58 42V38Z" fill="#7B61FF" class="fill-purple" />
  <path d="M12 16L12 64M22 16L22 64" stroke="#7B61FF" stroke-width="4" stroke-linecap="square" class="stroke-purple" />
  <path d="M12 16L22 16" stroke="#7B61FF" stroke-width="4" stroke-linecap="square" class="stroke-purple" />
  <path d="M22 28L12 28" stroke="#7B61FF" stroke-width="4" stroke-linecap="square" class="stroke-purple" />
  <path d="M22 40H12" stroke="#7B61FF" stroke-width="4" stroke-linecap="square" class="stroke-purple" />
  <path d="M22 52H12" stroke="#7B61FF" stroke-width="4" stroke-linecap="square" class="stroke-purple" />
  <path d="M22 64H12" stroke="#7B61FF" stroke-width="4" stroke-linecap="square" class="stroke-purple" />
  <path d="M58 16L58 64M68 16V64" stroke="#7B61FF" stroke-width="4" stroke-linecap="square" class="stroke-purple" />
  <path d="M58 16L68 16" stroke="#7B61FF" stroke-width="4" stroke-linecap="square" class="stroke-purple" />
  <path d="M68 28L58 28" stroke="#7B61FF" stroke-width="4" stroke-linecap="square" class="stroke-purple" />
  <path d="M68 40H58" stroke="#7B61FF" stroke-width="4" stroke-linecap="square" class="stroke-purple" />
  <path d="M68 52H58" stroke="#7B61FF" stroke-width="4" stroke-linecap="square" class="stroke-purple" />
  <path d="M68 64H58" stroke="#7B61FF" stroke-width="4" stroke-linecap="square" class="stroke-purple" />
</svg>