<svg viewBox="0 0 80 80" fill="none">
  <path d="M17 45H15L15 49H17V45ZM33 49H35V45H33V49ZM24.6757 20V18H23.176L22.7558 19.4396L24.6757 20ZM11.0801 59.4396L10.5197 61.3595L14.3595 62.4803L14.9199 60.5604L11.0801 59.4396ZM25.3243 20L27.2442 19.4396L26.824 18H25.3243V20ZM35.0801 60.5604L35.6405 62.4803L39.4803 61.3595L38.9199 59.4396L35.0801 60.5604ZM17 49H33V45H17V49ZM22.7558 19.4396L11.0801 59.4396L14.9199 60.5604L26.5956 20.5604L22.7558 19.4396ZM24.6757 22H25.3243V18L24.6757 18V22ZM23.4044 20.5604L35.0801 60.5604L38.9199 59.4396L27.2442 19.4396L23.4044 20.5604Z" fill="#7AC70C" class="fill-green" />
  <path d="M43 44V42H41V44H43ZM67 44H69V42H67V44ZM43 60H41V62H43V60ZM67 60V62H69V60H67ZM65 44V46H69V44H65ZM67 32H69V30H67V32ZM51 30H49V34H51V30ZM43 46H67V42H43V46ZM45 60L45 44H41L41 60H45ZM67 58H43V62H67V58ZM65 44V60H69V44H65ZM69 44V32L65 32V44H69ZM67 30L51.1336 30V34L67 34V30ZM51.1336 30H51V34H51.1336V30Z" fill="#FF9100" class="fill-orange" />
</svg>