<svg viewBox="0 0 80 80" fill="none">
  <path fill-rule="evenodd" clip-rule="evenodd" d="M40.9347 22.2822L28.8104 28.2822L28.8104 40.2822L39.6528 45.6479L39.6528 53.7533L36.1385 55.7822V64.7822L43.9328 69.2822L51.727 64.7822V55.7822L49.6528 54.5847L49.6528 41.9679L53.0591 40.2822V28.2822L40.9347 22.2822Z" fill="#FFC200" class="fill-yellow" />
  <path d="M24.9612 14.3378L23.1692 19.9342L27.8044 24.6393L32.461 21.9508L30.7038 15.5841L24.9612 14.3378Z" fill="#FF9100" class="fill-orange" />
  <path d="M35.5189 11.8879L33.1855 15.7851L35.7128 20.4022L39.6082 19.3584L39.4883 14.0963L35.5189 11.8879Z" fill="#FF9100" class="fill-orange" />
  <path d="M44.2933 13.5534L41.9582 15.7663L42.5194 19.6503L45.2014 19.8378L46.2977 16.0697L44.2933 13.5534Z" fill="#FF9100" class="fill-orange" />
  <path d="M51.7484 16.8135L48.8771 17.4367L47.9985 20.6201L50.3268 21.9643L52.6444 19.6118L51.7484 16.8135Z" fill="#FF9100" class="fill-orange" />
  <path d="M57.0357 21.7325L54.328 21.3642L53.0229 23.8442L54.9239 25.7453L57.404 24.4401L57.0357 21.7325Z" fill="#FF9100" class="fill-orange" />
</svg>