<svg viewBox="0 0 80 80" fill="none">
  <path d="M40 10L65.9808 25V55L40 70L14.0192 55L14.0192 25L40 10Z" fill="#1CB0F6" class="fill-blue" />
  <path fill-rule="evenodd" clip-rule="evenodd" d="M18.9785 22.1309L20.3398 21.345L23.8348 21.5303L28.6912 23.9132L34.5187 23.1705L48.212 25.6225L50.1833 28.7305L47.7253 31.5475L51.4154 35.4537L55.7212 35.0062L56.4986 29.5751L58.931 32.0287L62.6271 32.4727L63.5512 35.4537L52.8322 46.6166L53.2019 51.4139L50.1833 47.7583H45.0086L45.0086 52.0078L49.5673 53.3397L53.2019 57.4624L60.4044 57.7795L60.6607 58.0657L46.595 66.1865L46.4255 60.9508L49.2593 57.7795L46.7951 54.7351L41.2454 53.8287L32.38 43.9527L31.2095 35.0731L26.263 31.0916L20.921 32.8879L18.9785 30.8879L18.9785 22.1309ZM39.9475 21.5303V19.1276L49.2593 18.2612L47.7253 23.1705L39.9475 21.5303ZM51.8646 22.3491L59.3814 28.41L62.4668 28.3275L55.7212 19.1276L51.8646 22.3491Z" fill="#AEEE52" class="fill-green" />
</svg>