<svg viewBox="0 0 80 80" fill="none">
  <path d="M40 10L65.9808 25V55L40 70L14.0192 55L14.0192 25L40 10Z" fill="#1CB0F6" class="fill-blue" />
  <path fill-rule="evenodd" clip-rule="evenodd" d="M30.0508 15.7384L34.4702 13.1868L39.6724 12.8818L39.988 18.5067L34.5774 23.8918L32.1041 20.9008L32.1788 18.8381L29.9382 16.4143L30.0508 15.7384ZM25.0016 18.6535L26.5799 17.7423L27.623 19.1733L25.706 19.2248L25.0016 18.6535ZM14.0249 34.6484L14.0249 24.9909L19.2205 21.9912L20.7567 23.6271L23.432 23.3475L23.9149 19.953L25.4262 21.4865L27.7226 21.764L28.2967 23.6271L21.637 30.6039L21.8667 33.6023L19.9912 31.3175H16.7762V33.9734L19.6085 34.8059L21.8667 37.3826L26.3416 37.5808L28.5647 40.0782L31.0142 40.8441V44.3198L23.1297 52.5651V58.2734L21.3401 56.9715L20.3357 54.2697V47.5703L17.8096 44.3198L17.6565 39.5628L19.4171 37.5808L17.8862 35.678L14.4381 35.1115L14.0249 34.6484ZM65.9864 40.0068V43.7106L64.1943 45.5508L64.1694 53.312L60.9828 56.664L58.6178 56.6124L57.4228 54.9622L57.2734 50.2178L55.5026 48.8149L55.4063 43.4365L51.2238 43.3849L47.6389 39.7751L48.2136 34.3582L50.429 31.5104L50.9749 32.1945L54.3956 32.0783L54.5292 33.1854L58.0221 34.4308L58.423 33.6994L61.182 33.7931L63.0243 31.9624L60.709 29.3324L63.3918 29.0536L65.0479 29.9952L65.9864 29.1204V38.354L63.1238 35.3402L62.128 36.0106L65.9864 40.0068ZM55.4801 18.9251L54.8674 19.5329L55.456 21.4939L57.2205 19.9299L55.4801 18.9251ZM58.3846 20.602L57.2983 21.7775L57.1738 23.1699L53.6387 23.2472L51.165 25.5133L49.5963 19.5329L45.8707 22.467L45.6746 25.3441L51.165 25.5133L49.891 28.2629L47.6959 28.9746L47.925 30.4573L50.2031 30.699L52.369 28.5846L53.813 28.6104L55.5026 30.5759L56.7988 30.4569L58.095 30.338L58.9912 29.4355L60.709 29.3324L61.8008 26.9685L64.918 26.7331L65.9864 28.2672V24.9909L58.3846 20.602Z" fill="#AEEE52" class="fill-green" />
</svg>