<svg viewBox="0 0 80 80" fill="none">
  <path d="M40 10L65.9808 25V55L40 70L14.0192 55L14.0192 25L40 10Z" fill="#1CB0F6" class="fill-blue" />
  <path fill-rule="evenodd" clip-rule="evenodd" d="M33.7456 13.605L35.0994 14.5913H38.0054L39.5765 15.9711L50.364 15.9711L51.9708 16.8988L53.6857 18.5702H50.9833L49.8764 20.722L46.1441 20.5275L43.6302 22.9661L39.608 23.0945L39.5765 26.7829L34.3917 32.2073L30.8408 32.1752L30.3023 35.8192L27.4785 37.6943L27.7614 40.9993L24.9138 41.7688L21.4288 36.3145L18.0864 40.8068L17.2311 43.719L16.422 43.5907L14.0249 39.7384L14.0249 24.9907L33.7456 13.605ZM52.1393 62.9854L50.6082 63.8693L49.4121 62.3053L51.7169 58.977L53.6857 60.7651L52.1393 62.9854ZM27.4785 43.7267L24.3676 44.3364L28.068 50.08L31.7521 50.9935L33.5616 49.1816L27.4785 43.7267ZM43.5673 28.068L40.0156 27.0965L36.9198 31.7044L39.5765 32.464L43.5673 28.068ZM37.4083 47.3526L36.8427 49.8554L42.4047 50.08L43.6616 49.1816L43.8502 47.3526H37.4083ZM37.4083 52.3903L34.1088 55.7595L34.473 60.6368L40.5821 60.6368L43.0065 62.8829H46.7411V56.6194L42.7189 52.1336L37.4083 52.3903ZM34.473 46.033L31.1242 43.9173L35.0994 39.8335L36.8427 40.3309L35.9314 41.7688L36.1514 43.7267L34.473 46.033Z" fill="#AEEE52" class="fill-green" />
</svg>