<svg viewBox="0 0 80 80" fill="none">
  <path d="M36 20H44L48 76H32L36 20Z" fill="#FFC200" stroke="#FFC200" stroke-width="4" stroke-linecap="square" class="fill-yellow stroke-yellow" />
  <path fill-rule="evenodd" clip-rule="evenodd" d="M20 4H48L48 6H54V4H60V20H54V18H48L48 20H20V4Z" fill="#FF9100" class="fill-orange" />
  <path d="M48 4L50 4L50 2H48V4ZM20 4V2H18V4H20ZM48 6L46 6L46 8H48V6ZM54 6V8H56V6H54ZM54 4V2H52V4H54ZM60 4H62V2H60V4ZM60 20V22H62V20H60ZM54 20H52V22H54V20ZM54 18H56V16H54V18ZM48 18V16H46L46 18L48 18ZM48 20V22H50L50 20L48 20ZM20 20H18V22H20V20ZM48 2H20V6H48V2ZM50 6L50 4L46 4L46 6L50 6ZM48 8H54V4H48V8ZM52 4V6H56V4H52ZM60 2H54V6H60V2ZM62 20V4H58V20H62ZM54 22H60V18H54V22ZM52 18V20H56V18H52ZM54 16H48V20H54V16ZM50 20L50 18L46 18L46 20L50 20ZM20 22H48V18H20V22ZM18 4V20H22V4H18Z" fill="#FF9100" class="fill-orange" />
</svg>