<svg viewBox="0 0 80 80" fill="none">
  <path fill-rule="evenodd" clip-rule="evenodd" d="M56.5288 13.443L54.0848 10.999L51.6409 13.443L41.9555 23.1284L39.9424 25.1415L45.9857 31.1849C47.3355 32.5346 47.3355 34.723 45.9857 36.0728C44.636 37.4225 42.4476 37.4225 41.0979 36.0728L35.0611 30.036L22.5923 42.5048L22.4111 42.6859C21.2386 44.0438 21.2967 46.0973 22.5856 47.3862C23.9353 48.7359 26.1237 48.7359 27.4734 47.3862L36.6532 38.2064L36.7348 38.2879L27.555 47.4677C26.2052 48.8175 26.2052 51.0059 27.555 52.3556C28.9047 53.7054 31.0931 53.7054 32.4429 52.3556L41.6227 43.1758L41.7039 43.257L32.5241 52.4368C31.1743 53.7866 31.1743 55.9749 32.5241 57.3247C33.8738 58.6744 36.0622 58.6744 37.4119 57.3247L46.5917 48.1449L46.6729 48.2261L37.4931 57.4059C36.1434 58.7556 36.1434 60.944 37.4931 62.2938C38.8429 63.6435 41.0313 63.6435 42.381 62.2938L61.7509 42.9239C61.763 42.9118 61.775 42.8996 61.7869 42.8874L71.4361 33.2382L73.88 30.7942L71.4361 28.3503L56.5288 13.443Z" fill="#D33131" class="fill-red" />
  <path fill-rule="evenodd" clip-rule="evenodd" d="M5.99951 30.8008L8.44345 28.3568L23.3551 13.4452L25.799 11.0012L28.243 13.4452L37.5034 22.7056L37.7217 22.9239C37.7472 22.9479 37.7724 22.9724 37.7974 22.9974L45.9853 31.1852C47.335 32.535 47.335 34.7234 45.9853 36.0731C44.6355 37.4229 42.4471 37.4229 41.0974 36.0731L35.0606 30.0363L22.5918 42.5052L20.1478 44.9491L17.7039 42.5052L8.44345 33.2447L5.99951 30.8008Z" fill="#FFC200" class="fill-yellow" />
</svg>