<svg viewBox="0 0 80 80" fill="none">
  <path fill-rule="evenodd" clip-rule="evenodd" d="M21.4731 16.7051L13.2721 24.9061L13.2721 36.5041L20.2011 43.4331L40.0001 63.232L59.799 43.4331L66.728 36.5041V24.9061L58.527 16.7051L46.929 16.7051L40.6911 22.943L40.0001 23.6341L39.309 22.943L33.0711 16.7051L21.4731 16.7051Z" fill="#D33131" class="fill-red" />
  <path d="M13.2721 24.9061L11.8579 23.4919L11.2721 24.0777V24.9061H13.2721ZM21.4731 16.7051L21.4731 14.7051H20.6447L20.0589 15.2909L21.4731 16.7051ZM13.2721 36.5041H11.2721V37.3326L11.8579 37.9183L13.2721 36.5041ZM20.2011 43.4331L18.7869 44.8473L20.2011 43.4331ZM40.0001 63.232L38.5858 64.6463L40.0001 66.0605L41.4143 64.6463L40.0001 63.232ZM66.728 36.5041L68.1422 37.9183L68.728 37.3326V36.5041H66.728ZM66.728 24.9061H68.728V24.0777L68.1422 23.4919L66.728 24.9061ZM58.527 16.7051L59.9412 15.2909L59.3554 14.7051L58.527 14.7051V16.7051ZM46.929 16.7051V14.7051H46.1006L45.5148 15.2909L46.929 16.7051ZM40.0001 23.6341L38.5858 25.0483L40.0001 26.4625L41.4143 25.0483L40.0001 23.6341ZM39.309 22.943L37.8948 24.3573L39.309 22.943ZM33.0711 16.7051L34.4853 15.2909L33.8996 14.7051H33.0711V16.7051ZM14.6863 26.3204L22.8874 18.1193L20.0589 15.2909L11.8579 23.4919L14.6863 26.3204ZM15.2721 36.5041L15.2721 24.9061H11.2721L11.2721 36.5041H15.2721ZM21.6153 42.0188L14.6863 35.0899L11.8579 37.9183L18.7869 44.8473L21.6153 42.0188ZM18.7869 44.8473L38.5858 64.6463L41.4143 61.8178L21.6153 42.0188L18.7869 44.8473ZM41.4143 64.6463L61.2133 44.8473L58.3848 42.0188L38.5858 61.8178L41.4143 64.6463ZM61.2133 44.8473L68.1422 37.9183L65.3138 35.0899L58.3848 42.0188L61.2133 44.8473ZM68.728 36.5041V24.9061H64.728V36.5041H68.728ZM68.1422 23.4919L59.9412 15.2909L57.1128 18.1193L65.3138 26.3204L68.1422 23.4919ZM58.527 14.7051L46.929 14.7051V18.7051L58.527 18.7051V14.7051ZM45.5148 15.2909L39.2769 21.5288L42.1053 24.3573L48.3432 18.1193L45.5148 15.2909ZM39.2769 21.5288L38.5858 22.2199L41.4143 25.0483L42.1053 24.3573L39.2769 21.5288ZM37.8948 24.3573L38.5858 25.0483L41.4143 22.2199L40.7232 21.5288L37.8948 24.3573ZM31.6569 18.1193L37.8948 24.3573L40.7232 21.5288L34.4853 15.2909L31.6569 18.1193ZM21.4731 18.7051L33.0711 18.7051L33.0711 14.7051L21.4731 14.7051L21.4731 18.7051Z" fill="#FFC200" class="fill-yellow" />
  <path d="M40 23.5771L49.8995 33.4766" stroke="#FFC200" stroke-width="4" stroke-linecap="square" class="stroke-yellow" />
</svg>