<svg viewBox="0 0 80 80" fill="none">
  <path d="M15.6519 25.6471L15.6519 8" stroke="#7B61FF" stroke-width="4" stroke-linecap="square" class="stroke-purple" />
  <ellipse cx="11.325" cy="25.6471" rx="4.32692" ry="3.43137" fill="#D33131" stroke="#D33131" stroke-width="4" stroke-linecap="square" class="fill-red stroke-red" />
  <path d="M31.998 29.5686L31.998 11.9216" stroke="#7B61FF" stroke-width="4" stroke-linecap="square" class="stroke-purple" />
  <ellipse cx="27.6712" cy="29.5686" rx="4.32692" ry="3.43137" fill="#D33131" stroke="#D33131" stroke-width="4" stroke-linecap="square" class="fill-red stroke-red" />
  <path d="M15.6519 12.902L31.998 16.8235" stroke="#7B61FF" stroke-width="4" stroke-linecap="square" class="stroke-purple" />
  <path d="M15.6519 8L31.998 11.9216" stroke="#7B61FF" stroke-width="4" stroke-linecap="square" class="stroke-purple" />
  <path d="M50.4919 16.5841L71.1322 28.5008" stroke="#7AC70C" stroke-width="4" stroke-linecap="square" class="stroke-green" />
  <path d="M47.3157 14.7504L50.524 9.19336L56.8749 12.86L53.6666 18.417L47.3157 14.7504Z" stroke="#7AC70C" stroke-width="4" stroke-linecap="square" class="stroke-green" />
  <path d="M50.4919 25.75L71.1322 13.8333" stroke="#AEEE52" stroke-width="4" stroke-linecap="square" class="stroke-green" />
  <path d="M47.3157 27.5838L50.524 33.1407L56.8749 29.4741L53.6666 23.9171L47.3157 27.5838Z" stroke="#AEEE52" stroke-width="4" stroke-linecap="square" class="stroke-green" />
  <ellipse cx="20.998" cy="67.7143" rx="2.11765" ry="2.14286" fill="#1CB0F6" stroke="#1CB0F6" stroke-width="4" stroke-linecap="square" class="fill-blue stroke-blue" />
  <path d="M20.9985 44.2162L22.0074 42.4893L20.9985 41.8999L19.9896 42.4893L20.9985 44.2162ZM35.4129 54.9537L37.1398 55.9626L39.1576 52.5089L37.4307 51.5L35.4129 54.9537ZM4.56985 51.4979L2.84296 52.5068L4.86074 55.9605L6.58762 54.9517L4.56985 51.4979ZM21.0016 51.7135L22.0105 49.9867L21.0016 49.3972L19.9927 49.9867L21.0016 51.7135ZM31.1818 59.9774L32.9087 60.9862L34.9264 57.5325L33.1996 56.5236L31.1818 59.9774ZM8.80303 56.5239L7.07614 57.5328L9.09392 60.9866L10.8208 59.9777L8.80303 56.5239ZM21.0016 59.2135L22.0105 57.4867L21.0016 56.8972L19.9927 57.4867L21.0016 59.2135ZM26.9481 65.004L28.675 66.0129L30.6928 62.5591L28.9659 61.5502L26.9481 65.004ZM13.0367 61.5505L11.3098 62.5594L13.3276 66.0132L15.0545 65.0043L13.0367 61.5505ZM19.9896 45.9431L35.4129 54.9537L37.4307 51.5L22.0074 42.4893L19.9896 45.9431ZM6.58762 54.9517L22.0074 45.9431L19.9896 42.4893L4.56985 51.4979L6.58762 54.9517ZM19.9927 53.4404L31.1818 59.9774L33.1996 56.5236L22.0105 49.9867L19.9927 53.4404ZM10.8208 59.9777L22.0105 53.4404L19.9927 49.9867L8.80303 56.5239L10.8208 59.9777ZM19.9927 60.9404L26.9481 65.004L28.9659 61.5502L22.0105 57.4867L19.9927 60.9404ZM15.0545 65.0043L22.0105 60.9404L19.9927 57.4867L13.0367 61.5505L15.0545 65.0043Z" fill="#84D3FF" class="fill-blue" />
  <path d="M59.511 49.158L58.893 51.0601L61.5197 51.9136L61.511 49.1517L59.511 49.158ZM59.4981 45L61.4981 44.9938L57.4981 44.9938L59.4981 45ZM59.4983 49.1538L60.1164 47.2517L59.4984 47.0509L58.8803 47.2517L59.4983 49.1538ZM59.4851 49.1581L57.4851 49.1519L57.4765 51.9137L60.1031 51.0603L59.4851 49.1581ZM54.0176 50.9347L54.6356 52.8368L57.2623 51.9834L55.6319 49.754L54.0176 50.9347ZM51.563 47.5783L53.1773 46.3977L49.9413 48.7488L51.563 47.5783ZM53.9967 50.95L52.375 52.1205L53.9913 54.3599L55.6147 52.1256L53.9967 50.95ZM54.0048 50.9388L53.3868 49.0367L52.7687 49.2375L52.3868 49.7632L54.0048 50.9388ZM50.6176 55.6009L52.2356 56.7765L53.8589 54.5421L51.2297 53.6969L50.6176 55.6009ZM46.6588 54.3283L47.2709 52.4242L46.0348 56.2284L46.6588 54.3283ZM50.6096 55.6256L49.9856 57.5258L52.6096 58.3874V55.6256H50.6096ZM50.6096 55.6119L48.9916 54.4363L48.6096 54.9621V55.6119H50.6096ZM50.6096 61.3744H52.6096V58.6126L49.9856 59.4742L50.6096 61.3744ZM46.6588 62.6717L46.0348 60.7716L47.2709 64.5758L46.6588 62.6717ZM50.6176 61.3991L51.2297 63.3031L53.8589 62.4579L52.2356 60.2235L50.6176 61.3991ZM50.6096 61.3881H48.6096V62.0379L48.9916 62.5637L50.6096 61.3881ZM53.9967 66.05L55.6146 64.8744L53.9913 62.6402L52.375 64.8795L53.9967 66.05ZM51.563 69.4217L49.9413 68.2512L53.1773 70.6023L51.563 69.4217ZM54.0176 66.0653L55.6319 67.246L57.2622 65.0167L54.6356 64.1632L54.0176 66.0653ZM54.0048 66.0612L52.3868 67.2368L52.7688 67.7625L53.3867 67.9633L54.0048 66.0612ZM59.4851 67.8419L60.1031 65.9397L57.4765 65.0864L57.4851 67.8481L59.4851 67.8419ZM59.4981 72L57.4981 72.0062H61.4981L59.4981 72ZM59.511 67.842L61.511 67.8483L61.5197 65.0866L58.8931 65.9399L59.511 67.842ZM59.4983 67.8462L58.8804 69.7483L59.4983 69.949L60.1163 69.7483L59.4983 67.8462ZM64.9787 66.0655L64.3606 64.1634L61.734 65.0169L63.3643 67.2461L64.9787 66.0655ZM67.4332 69.4217L65.8188 70.6023L69.0549 68.2512L67.4332 69.4217ZM64.9998 66.0503L66.6214 64.8798L65.005 62.6404L63.3817 64.8748L64.9998 66.0503ZM64.9919 66.0612L65.6099 67.9633L66.228 67.7625L66.6099 67.2367L64.9919 66.0612ZM68.379 61.3992L66.761 60.2236L65.1374 62.458L67.7669 63.3033L68.379 61.3992ZM72.3373 62.6717L71.7252 64.5758L72.9613 60.7716L72.3373 62.6717ZM68.3871 61.3746L69.011 59.4744L66.3871 58.6127V61.3746H68.3871ZM68.3871 61.3881L70.005 62.5638L70.3871 62.038V61.3881H68.3871ZM68.3871 55.6254H66.3871V58.3872L69.011 57.5256L68.3871 55.6254ZM72.3373 54.3283L72.9613 56.2284L71.7252 52.4242L72.3373 54.3283ZM68.379 55.6008L67.7669 53.6967L65.1375 54.542L66.761 56.7764L68.379 55.6008ZM68.3871 55.6119H70.3871V54.962L70.0051 54.4363L68.3871 55.6119ZM64.9998 50.9497L63.3818 52.1253L65.0052 54.3595L66.6214 52.1202L64.9998 50.9497ZM67.4332 47.5783L69.0549 48.7488L65.8188 46.3977L67.4332 47.5783ZM64.9787 50.9345L63.3643 49.7539L61.734 51.9831L64.3606 52.8366L64.9787 50.9345ZM64.9919 50.9388L66.6098 49.7632L66.2279 49.2375L65.6099 49.0367L64.9919 50.9388ZM61.511 49.1517L61.4981 44.9938L57.4981 45.0062L57.5111 49.1642L61.511 49.1517ZM58.8803 51.056L58.893 51.0601L60.1291 47.2559L60.1164 47.2517L58.8803 51.056ZM60.1031 51.0603L60.1163 51.056L58.8803 47.2517L58.8671 47.256L60.1031 51.0603ZM57.4981 44.9938L57.4851 49.1519L61.4851 49.1644L61.4981 45.0062L57.4981 44.9938ZM55.6319 49.754L53.1773 46.3977L49.9486 48.7589L52.4032 52.1153L55.6319 49.754ZM49.9413 48.7488L52.375 52.1205L55.6183 49.7795L53.1847 46.4078L49.9413 48.7488ZM55.6147 52.1256L55.6228 52.1144L52.3868 49.7632L52.3786 49.7744L55.6147 52.1256ZM54.6228 52.8409L54.6356 52.8368L53.3996 49.0325L53.3868 49.0367L54.6228 52.8409ZM51.2297 53.6969L47.2709 52.4242L46.0467 56.2323L50.0055 57.5049L51.2297 53.6969ZM46.0348 56.2284L49.9856 57.5258L51.2336 53.7254L47.2828 52.4281L46.0348 56.2284ZM52.6096 55.6256V55.6119H48.6096V55.6256H52.6096ZM52.2277 56.7874L52.2356 56.7765L48.9995 54.4254L48.9916 54.4363L52.2277 56.7874ZM49.9856 59.4742L46.0348 60.7716L47.2828 64.5719L51.2336 63.2746L49.9856 59.4742ZM47.2709 64.5758L51.2297 63.3031L50.0055 59.4951L46.0467 60.7677L47.2709 64.5758ZM52.2356 60.2235L52.2277 60.2126L48.9916 62.5637L48.9995 62.5746L52.2356 60.2235ZM52.6096 61.3881V61.3744H48.6096V61.3881H52.6096ZM52.375 64.8795L49.9413 68.2512L53.1847 70.5922L55.6183 67.2205L52.375 64.8795ZM53.1773 70.6023L55.6319 67.246L52.4032 64.8847L49.9486 68.2411L53.1773 70.6023ZM54.6356 64.1632L54.6229 64.1591L53.3867 67.9633L53.3995 67.9675L54.6356 64.1632ZM55.6228 64.8856L55.6146 64.8744L52.3787 67.2256L52.3868 67.2368L55.6228 64.8856ZM57.4851 67.8481L57.4981 72.0062L61.4981 71.9938L61.4851 67.8356L57.4851 67.8481ZM61.4981 72.0062L61.511 67.8483L57.5111 67.8358L57.4981 71.9938L61.4981 72.0062ZM58.8931 65.9399L58.8804 65.944L60.1163 69.7483L60.129 69.7442L58.8931 65.9399ZM60.1163 65.944L60.1031 65.9397L58.8671 69.744L58.8804 69.7483L60.1163 65.944ZM63.3643 67.2461L65.8188 70.6023L69.0475 68.2411L66.593 64.8849L63.3643 67.2461ZM69.0549 68.2512L66.6214 64.8798L63.3781 67.2209L65.8115 70.5922L69.0549 68.2512ZM63.3817 64.8748L63.3738 64.8857L66.6099 67.2367L66.6178 67.2259L63.3817 64.8748ZM64.3738 64.1591L64.3606 64.1634L65.5968 67.9676L65.6099 67.9633L64.3738 64.1591ZM67.7669 63.3033L71.7252 64.5758L72.9494 60.7677L68.9911 59.4952L67.7669 63.3033ZM72.9613 60.7716L69.011 59.4744L67.7631 63.2747L71.7134 64.5719L72.9613 60.7716ZM66.3871 61.3746V61.3881H70.3871V61.3746H66.3871ZM66.7691 60.2125L66.761 60.2236L69.997 62.5749L70.005 62.5638L66.7691 60.2125ZM69.011 57.5256L72.9613 56.2284L71.7134 52.4281L67.7631 53.7253L69.011 57.5256ZM71.7252 52.4242L67.7669 53.6967L68.9911 57.5048L72.9494 56.2323L71.7252 52.4242ZM66.761 56.7764L66.769 56.7875L70.0051 54.4363L69.997 54.4252L66.761 56.7764ZM66.3871 55.6119V55.6254H70.3871V55.6119H66.3871ZM66.6214 52.1202L69.0549 48.7488L65.8115 46.4078L63.3781 49.7791L66.6214 52.1202ZM65.8188 46.3977L63.3643 49.7539L66.593 52.1151L69.0475 48.7589L65.8188 46.3977ZM64.3606 52.8366L64.3738 52.8409L65.6099 49.0367L65.5968 49.0324L64.3606 52.8366ZM63.3739 52.1145L63.3818 52.1253L66.6177 49.774L66.6098 49.7632L63.3739 52.1145Z" fill="#FFC200" class="fill-yellow" />
  <path d="M59.4981 52.2692L63.1605 53.4592L65.4239 56.5746V60.4254L63.1605 63.5408L59.4981 64.7308L55.8357 63.5408L53.5723 60.4254V56.5746L55.8357 53.4592L59.4981 52.2692Z" fill="#FF9100" class="fill-orange" />
</svg>