<svg viewBox="0 0 80 80" fill="none">
  <path fill-rule="evenodd" clip-rule="evenodd" d="M29.7552 44.5651L26.3511 49.4436L29.0544 62.9798L40.0001 69.004L50.9457 62.9798L53.6491 49.4436L50.2449 44.5651L40.0001 42.0039L29.7552 44.5651Z" fill="#FFC200" class="fill-yellow" />
  <path fill-rule="evenodd" clip-rule="evenodd" d="M48 18.0039L40 10.0039L32 18.0039H34.75L40 23.2539V28.0039L40.01 27.9939V23.2539L45.26 18.0039H48Z" fill="#FFC200" class="fill-yellow" />
  <path d="M40 10.0039L41.4142 8.58969L40 7.17548L38.5858 8.58969L40 10.0039ZM48 18.0039V20.0039H52.8284L49.4142 16.5897L48 18.0039ZM32 18.0039L30.5858 16.5897L27.1716 20.0039H32V18.0039ZM34.75 18.0039L36.1642 16.5897L35.5784 16.0039H34.75V18.0039ZM40 23.2539H42V22.4255L41.4142 21.8397L40 23.2539ZM40 28.0039H38V32.8323L41.4142 29.4181L40 28.0039ZM40.01 27.9939L41.4242 29.4081L42.01 28.8223V27.9939H40.01ZM40.01 23.2539L38.5958 21.8397L38.01 22.4255V23.2539H40.01ZM45.26 18.0039V16.0039H44.4316L43.8458 16.5897L45.26 18.0039ZM38.5858 11.4181L46.5858 19.4181L49.4142 16.5897L41.4142 8.58969L38.5858 11.4181ZM33.4142 19.4181L41.4142 11.4181L38.5858 8.58969L30.5858 16.5897L33.4142 19.4181ZM34.75 16.0039H32V20.0039H34.75V16.0039ZM41.4142 21.8397L36.1642 16.5897L33.3358 19.4181L38.5858 24.6681L41.4142 21.8397ZM42 28.0039V23.2539H38V28.0039H42ZM38.5958 26.5797L38.5858 26.5897L41.4142 29.4181L41.4242 29.4081L38.5958 26.5797ZM42.01 27.9939V23.2539H38.01V27.9939H42.01ZM41.4242 24.6681L46.6742 19.4181L43.8458 16.5897L38.5958 21.8397L41.4242 24.6681ZM45.26 20.0039H48V16.0039H45.26V20.0039Z" fill="#FFC200" class="fill-yellow" />
  <path fill-rule="evenodd" clip-rule="evenodd" d="M40 36.0039L29.3333 38.6706L22 32.2539V23.2539L27.25 18.0039H34.75L40 23.2539V36.0039ZM50.6744 38.6725L40.01 36.0064V23.2539L45.26 18.0039H52.76L58.01 23.2539V32.2539L50.6744 38.6725Z" fill="#F4F4F4" class="fill-white" />
  <path d="M29.3333 38.6706L28.0163 40.1757L28.8036 40.8646L29.8184 40.6109L29.3333 38.6706ZM40 36.0039L40.4851 37.9442L42 37.5655V36.0039H40ZM22 32.2539H20V33.1614L20.683 33.7591L22 32.2539ZM22 23.2539L20.5858 21.8397L20 22.4255V23.2539H22ZM27.25 18.0039V16.0039H26.4216L25.8358 16.5897L27.25 18.0039ZM34.75 18.0039L36.1642 16.5897L35.5784 16.0039H34.75V18.0039ZM40 23.2539H42V22.4255L41.4142 21.8397L40 23.2539ZM40.01 36.0064H38.01V37.568L39.5249 37.9467L40.01 36.0064ZM50.6744 38.6725L50.1894 40.6128L51.2042 40.8665L51.9915 40.1777L50.6744 38.6725ZM40.01 23.2539L38.5958 21.8397L38.01 22.4255V23.2539H40.01ZM45.26 18.0039V16.0039H44.4316L43.8458 16.5897L45.26 18.0039ZM52.76 18.0039L54.1742 16.5897L53.5884 16.0039H52.76V18.0039ZM58.01 23.2539H60.01V22.4255L59.4242 21.8397L58.01 23.2539ZM58.01 32.2539L59.327 33.7591L60.01 33.1614V32.2539H58.01ZM29.8184 40.6109L40.4851 37.9442L39.5149 34.0636L28.8483 36.7303L29.8184 40.6109ZM30.6503 37.1654L23.317 30.7488L20.683 33.7591L28.0163 40.1757L30.6503 37.1654ZM24 32.2539V23.2539H20V32.2539H24ZM23.4142 24.6681L28.6642 19.4181L25.8358 16.5897L20.5858 21.8397L23.4142 24.6681ZM27.25 20.0039H34.75V16.0039H27.25V20.0039ZM33.3358 19.4181L38.5858 24.6681L41.4142 21.8397L36.1642 16.5897L33.3358 19.4181ZM38 23.2539V36.0039H42V23.2539H38ZM39.5249 37.9467L50.1894 40.6128L51.1595 36.7322L40.4951 34.0661L39.5249 37.9467ZM38.01 23.2539V36.0064H42.01V23.2539H38.01ZM43.8458 16.5897L38.5958 21.8397L41.4242 24.6681L46.6742 19.4181L43.8458 16.5897ZM52.76 16.0039H45.26V20.0039H52.76V16.0039ZM59.4242 21.8397L54.1742 16.5897L51.3458 19.4181L56.5958 24.6681L59.4242 21.8397ZM60.01 32.2539V23.2539H56.01V32.2539H60.01ZM51.9915 40.1777L59.327 33.7591L56.693 30.7488L49.3574 37.1674L51.9915 40.1777Z" fill="#D33131" class="fill-red" />
  <path d="M28 39.0039L40 36.0039L52 39.0039V45.0039L40 42.0039L28 45.0039V39.0039Z" fill="#7B61FF" stroke="#7B61FF" stroke-width="4" stroke-linecap="square" class="fill-purple stroke-purple" />
</svg>