<svg viewBox="0 0 80 80" fill="none">
  <path fill-rule="evenodd" clip-rule="evenodd" d="M40.0001 5.38281L58.935 20.4829V51.7225L40.0001 66.8226L21.0652 51.7225L21.0652 20.4829L40.0001 5.38281Z" fill="#7AC70C" class="fill-green" />
  <path d="M40.0001 5.38281L41.2471 3.81915L40.0001 2.82472L38.7531 3.81915L40.0001 5.38281ZM58.935 20.4829H60.935V19.5197L60.1819 18.9192L58.935 20.4829ZM58.935 51.7225L60.1819 53.2862L60.935 52.6857V51.7225H58.935ZM40.0001 66.8226L38.7531 68.3862L40.0001 69.3807L41.247 68.3862L40.0001 66.8226ZM21.0652 51.7225H19.0652V52.6857L19.8182 53.2862L21.0652 51.7225ZM21.0652 20.4829L19.8182 18.9192L19.0652 19.5197V20.4829H21.0652ZM38.7531 6.94648L57.688 22.0465L60.1819 18.9192L41.2471 3.81915L38.7531 6.94648ZM56.935 20.4829V51.7225H60.935V20.4829H56.935ZM57.688 50.1588L38.7531 65.2589L41.247 68.3862L60.1819 53.2862L57.688 50.1588ZM41.247 65.2589L22.3122 50.1588L19.8182 53.2862L38.7531 68.3862L41.247 65.2589ZM23.0652 51.7225L23.0652 20.4829H19.0652L19.0652 51.7225H23.0652ZM22.3122 22.0465L41.2471 6.94648L38.7531 3.81915L19.8182 18.9192L22.3122 22.0465Z" fill="#7AC70C" class="fill-green" />
  <path d="M40 72V26" stroke="#FF9100" stroke-width="4" stroke-linecap="square" class="stroke-orange" />
</svg>