<svg viewBox="0 0 80 80" fill="none">
  <path d="M51.5 35.5L53.5 35.5L53.5 33.5L51.5 33.5L51.5 35.5ZM51.5 71.5L51.5 73.5L53.5 73.5L53.5 71.5L51.5 71.5ZM27.5 71.5L25.5 71.5L25.5 73.5L27.5 73.5L27.5 71.5ZM29.5 47.6315L29.5 45.6315L25.5 45.6315L25.5 47.6315L29.5 47.6315ZM40.1773 33.5L38.1773 33.5L38.1773 37.5L40.1773 37.5L40.1773 33.5ZM49.5 35.5L49.5 71.5L53.5 71.5L53.5 35.5L49.5 35.5ZM29.5 71.5L29.5 47.6315L25.5 47.6315L25.5 71.5L29.5 71.5ZM40.1773 37.5L51.5 37.5L51.5 33.5L40.1773 33.5L40.1773 37.5ZM51.5 69.5L39.5 69.5L39.5 73.5L51.5 73.5L51.5 69.5ZM39.5 69.5L27.5 69.5L27.5 73.5L39.5 73.5L39.5 69.5Z" fill="#1CB0F6" class="fill-blue" />
  <path d="M27.5 43.5L25.5 43.5L25.5 45.5L27.5 45.5L27.5 43.5ZM27.5 7.5L27.5 5.5L25.5 5.5L25.5 7.5L27.5 7.5ZM51.5 7.5L53.5 7.5L53.5 5.5L51.5 5.5L51.5 7.5ZM49.5 31.3685L49.5 33.3685L53.5 33.3685L53.5 31.3685L49.5 31.3685ZM38.8227 45.5L40.8227 45.5L40.8227 41.5L38.8227 41.5L38.8227 45.5ZM39.5 7.5L39.5 9.5L39.5 7.5ZM29.5 43.5L29.5 7.5L25.5 7.5L25.5 43.5L29.5 43.5ZM49.5 7.5L49.5 31.3685L53.5 31.3685L53.5 7.5L49.5 7.5ZM38.8227 41.5L27.5 41.5L27.5 45.5L38.8227 45.5L38.8227 41.5ZM27.5 9.5L39.5 9.5L39.5 5.5L27.5 5.5L27.5 9.5ZM39.5 9.5L51.5 9.5L51.5 5.5L39.5 5.5L39.5 9.5Z" fill="#84D3FF" class="fill-blue" />
</svg>