<svg viewBox="0 0 80 80" fill="none">
  <path d="M24 16V14H22V16H24ZM22 64V66H26V64H22ZM56 16H58V14H56V16ZM54 64V66H58V64H54ZM24.8889 16L26.6974 15.146L26.1562 14H24.8889V16ZM40 48L38.1915 48.854L40 52.6838L41.8085 48.854L40 48ZM55.1111 16V14H53.8438L53.3026 15.146L55.1111 16ZM22 16V64H26V16H22ZM54 16V64H58V16H54ZM24 18H24.8889V14H24V18ZM23.0804 16.854L38.1915 48.854L41.8085 47.146L26.6974 15.146L23.0804 16.854ZM41.8085 48.854L56.9196 16.854L53.3026 15.146L38.1915 47.146L41.8085 48.854ZM55.1111 18H56V14H55.1111V18Z" fill="#7AC70C" class="fill-green" />
</svg>