<svg viewBox="0 0 80 80" fill="none">
  <path fill-rule="evenodd" clip-rule="evenodd" d="M51 32H29V38.6667L29 48.6667V52H35L35 68H45L45 52H51V48.6667V38.6667V32Z" fill="#FFC200" class="fill-yellow" />
  <path d="M29 32V30H27V32H29ZM51 32L53 32V30H51V32ZM29 52H27V54H29V52ZM35 52H37V50H35V52ZM35 68H33V70H35V68ZM45 68V70H47V68H45ZM45 52V50H43V52H45ZM51 52V54H53V52H51ZM29 34H51V30L29 30V34ZM31 38.6667V32H27V38.6667H31ZM31 48.6667L31 38.6667H27L27 48.6667H31ZM31 52V48.6667H27V52H31ZM35 50H29V54H35V50ZM37 68L37 52H33L33 68H37ZM45 66H35V70H45V66ZM43 52L43 68H47L47 52H43ZM51 50H45V54H51V50ZM49 48.6667V52H53V48.6667H49ZM49 38.6667V48.6667H53V38.6667H49ZM49 32V38.6667H53V32L49 32Z" fill="#FFC200" class="fill-yellow" />
  <path d="M40 28L47.6085 22.4721L44.7023 13.5279L35.2977 13.5279L32.3915 22.4721L40 28Z" fill="#FF9100" stroke="#FF9100" stroke-width="4" stroke-linecap="square" class="fill-orange stroke-orange" />
</svg>