<svg viewBox="0 0 80 80" fill="none">
  <path fill-rule="evenodd" clip-rule="evenodd" d="M7.80713 37.8533L21.2421 29.5546L23.091 25.0908L27.5547 23.2419L35.7342 10H45.1432L53.3227 23.2419L57.7864 25.0908L59.6354 29.5546L73.0703 37.8534V47.0239L68.2523 50H12.625L7.80713 47.024V37.8533ZM48.4388 44.0387L53.7186 41.8517L55.9055 36.572L53.7186 31.2923L48.4388 29.1053L43.1591 31.2923L40.9722 36.572L43.1591 41.8517L48.4388 44.0387ZM32.7891 36.389L29.7721 37.6387L26.7552 36.389L25.5055 33.372L26.7552 30.355L29.7721 29.1053L32.7891 30.355L34.0388 33.372L32.7891 36.389ZM40.9722 23.2389L42.4807 22.6141L43.1055 21.1056L42.4807 19.5971L40.9722 18.9722L39.4637 19.5971L38.8388 21.1056L39.4637 22.6141L40.9722 23.2389Z" fill="#D33131" class="fill-red" />
  <path d="M48.4388 44.0386L53.7186 41.8516L55.9055 36.5719L53.7186 31.2922L48.4388 29.1052L43.1591 31.2922L40.9722 36.5719L43.1591 41.8516L48.4388 44.0386Z" fill="#F4F4F4" class="fill-white" />
  <path d="M29.7723 37.6382L32.7893 36.3885L34.0389 33.3715L32.7893 30.3545L29.7723 29.1049L26.7553 30.3545L25.5056 33.3715L26.7553 36.3885L29.7723 37.6382Z" fill="#F4F4F4" class="fill-white" />
  <path d="M40.972 23.2383L42.4805 22.6134L43.1053 21.1049L42.4805 19.5965L40.972 18.9716L39.4635 19.5965L38.8386 21.1049L39.4635 22.6134L40.972 23.2383Z" fill="#F4F4F4" class="fill-white" />
  <path fill-rule="evenodd" clip-rule="evenodd" d="M43.911 50H35.911V62.4563L33.2605 67H35.911H43.911H47.2605L43.911 61.2579V50Z" fill="#FF9100" class="fill-orange" />
</svg>