<svg viewBox="0 0 80 80" fill="none">
  <path fill-rule="evenodd" clip-rule="evenodd" d="M41.135 23.5521L55.9842 17.4014L70.8335 23.5521L75.3274 34.4014H65.3704L60.9689 29.9999L56.5675 34.4014H44.9175L43.9505 28.2957L42.7807 25.9999H40.1211L41.135 23.5521Z" fill="#7AC70C" class="fill-green" />
  <path fill-rule="evenodd" clip-rule="evenodd" d="M35.6655 34.6153L36.8625 46.0034L29.7153 68H44.2201L47.2294 49L43.9502 28.2958L42.7805 26H42.7472L43.3277 27.4015H42.8794L35.6655 34.6153Z" fill="#FF9100" class="fill-orange" />
  <path fill-rule="evenodd" clip-rule="evenodd" d="M38.834 16.5521L23.9847 10.4014L9.13551 16.5521L4.6416 27.4014H14.5986L19 22.9999L22.6214 26.6212L32.3431 22.5944L43.1924 27.0883L42.8793 27.4014H43.3279L38.834 16.5521Z" fill="#7AC70C" class="fill-green" />
  <path fill-rule="evenodd" clip-rule="evenodd" d="M17.4941 28.7452L32.3433 22.5944L43.1926 27.0883L29.1025 41.1784H22.8779L22.8779 47.403L15.8372 54.4437L11.3433 43.5944L17.4941 28.7452Z" fill="#7AC70C" class="fill-green" />
</svg>