<svg viewBox="0 0 80 80" fill="none">
  <path d="M24 72L62 55L41.5 43L62 32" stroke="#1CB0F6" stroke-width="4" stroke-linecap="square" class="stroke-blue" />
  <path fill-rule="evenodd" clip-rule="evenodd" d="M36.831 40.2329L24 34L11.169 40.2329L8 54.2382L14.5021 62.9364L23.6667 71.6819L24 72L24.3333 71.6819L33.4979 62.9364L40 54.2382L36.831 40.2329ZM30.9167 47.0072L23.9999 41.9577L17.0832 47.0072L19.7251 55.1774H28.2747L30.9167 47.0072Z" fill="#D33131" class="fill-red" />
  <path d="M24 34L24.8739 32.201L24 31.7765L23.1261 32.201L24 34ZM36.831 40.2329L38.7817 39.7915L38.5695 38.854L37.7049 38.4339L36.831 40.2329ZM11.169 40.2329L10.2951 38.4339L9.43046 38.854L9.21831 39.7915L11.169 40.2329ZM8 54.2382L6.04931 53.7968L5.8457 54.6966L6.3981 55.4356L8 54.2382ZM14.5021 62.9364L12.9002 64.1338L13.0003 64.2678L13.1213 64.3833L14.5021 62.9364ZM23.6667 71.6819L25.0474 70.235L25.0474 70.235L23.6667 71.6819ZM24 72L22.6192 73.4469L24 74.7645L25.3807 73.4469L24 72ZM24.3333 71.6819L22.9526 70.235L24.3333 71.6819ZM33.4979 62.9364L34.8787 64.3833L34.9997 64.2678L35.0998 64.1338L33.4979 62.9364ZM40 54.2382L41.6019 55.4356L42.1543 54.6966L41.9507 53.7968L40 54.2382ZM23.9999 41.9577L25.1792 40.3423L23.9999 39.4814L22.8207 40.3423L23.9999 41.9577ZM30.9167 47.0072L32.8197 47.6225L33.2651 46.2453L32.096 45.3918L30.9167 47.0072ZM17.0832 47.0072L15.9039 45.3918L14.7348 46.2453L15.1802 47.6225L17.0832 47.0072ZM19.7251 55.1774L17.8222 55.7928L18.2699 57.1774H19.7251V55.1774ZM28.2747 55.1774V57.1774H29.73L30.1777 55.7928L28.2747 55.1774ZM23.1261 35.799L35.9571 42.0319L37.7049 38.4339L24.8739 32.201L23.1261 35.799ZM12.0429 42.0319L24.8739 35.799L23.1261 32.201L10.2951 38.4339L12.0429 42.0319ZM9.95069 54.6796L13.1197 40.6743L9.21831 39.7915L6.04931 53.7968L9.95069 54.6796ZM16.104 61.7389L9.6019 53.0407L6.3981 55.4356L12.9002 64.1338L16.104 61.7389ZM25.0474 70.235L15.8828 61.4895L13.1213 64.3833L22.2859 73.1288L25.0474 70.235ZM25.3808 70.5531L25.0474 70.235L22.2859 73.1288L22.6192 73.4469L25.3808 70.5531ZM22.9526 70.235L22.6193 70.5531L25.3807 73.4469L25.7141 73.1288L22.9526 70.235ZM32.1172 61.4895L22.9526 70.235L25.7141 73.1288L34.8787 64.3833L32.1172 61.4895ZM38.3981 53.0407L31.896 61.7389L35.0998 64.1338L41.6019 55.4356L38.3981 53.0407ZM34.8803 40.6743L38.0493 54.6796L41.9507 53.7968L38.7817 39.7915L34.8803 40.6743ZM22.8207 43.573L29.7375 48.6225L32.096 45.3918L25.1792 40.3423L22.8207 43.573ZM18.2624 48.6225L25.1792 43.573L22.8207 40.3423L15.9039 45.3918L18.2624 48.6225ZM21.6281 54.5621L18.9861 46.3918L15.1802 47.6225L17.8222 55.7928L21.6281 54.5621ZM28.2747 53.1774H19.7251V57.1774H28.2747V53.1774ZM29.0137 46.3918L26.3718 54.5621L30.1777 55.7928L32.8197 47.6225L29.0137 46.3918Z" fill="#D33131" class="fill-red" />
  <path fill-rule="evenodd" clip-rule="evenodd" d="M70.0194 11.9366L62 8L53.9806 11.9366L52 20.782L56.0638 26.2756L61.7917 31.7991L62 32L62.2083 31.7991L67.9362 26.2756L72 20.782L70.0194 11.9366ZM66.323 16.2152L62 13.026L57.6771 16.2152L59.3283 21.3753H64.6718L66.323 16.2152Z" fill="#D33131" class="fill-red" />
  <path d="M62 8L62.8813 6.20465L62 5.77203L61.1187 6.20465L62 8ZM70.0194 11.9366L71.9711 11.4996L71.7615 10.5638L70.9007 10.1412L70.0194 11.9366ZM53.9806 11.9366L53.0993 10.1412L52.2385 10.5638L52.029 11.4996L53.9806 11.9366ZM52 20.782L50.0483 20.345L49.8487 21.2367L50.3921 21.9714L52 20.782ZM56.0638 26.2756L54.4559 27.465L54.5553 27.5993L54.6755 27.7153L56.0638 26.2756ZM61.7917 31.7991L60.4034 33.2388L60.4034 33.2388L61.7917 31.7991ZM62 32L60.6117 33.4397L62 34.7784L63.3883 33.4397L62 32ZM62.2083 31.7991L63.5966 33.2388L63.5966 33.2388L62.2083 31.7991ZM67.9362 26.2756L69.3245 27.7153L69.4447 27.5993L69.5441 27.465L67.9362 26.2756ZM72 20.782L73.6079 21.9714L74.1513 21.2367L73.9517 20.345L72 20.782ZM62 13.026L63.1874 11.4166L62 10.5407L60.8127 11.4166L62 13.026ZM66.323 16.2152L68.2279 16.8247L68.6653 15.4578L67.5103 14.6058L66.323 16.2152ZM57.6771 16.2152L56.4897 14.6058L55.3348 15.4578L55.7722 16.8247L57.6771 16.2152ZM59.3283 21.3753L57.4234 21.9849L57.8684 23.3753H59.3283V21.3753ZM64.6718 21.3753V23.3753H66.1317L66.5766 21.9849L64.6718 21.3753ZM61.1187 9.79535L69.1381 13.7319L70.9007 10.1412L62.8813 6.20465L61.1187 9.79535ZM54.8619 13.7319L62.8813 9.79535L61.1187 6.20465L53.0993 10.1412L54.8619 13.7319ZM53.9517 21.219L55.9323 12.3736L52.029 11.4996L50.0483 20.345L53.9517 21.219ZM57.6717 25.0862L53.6079 19.5926L50.3921 21.9714L54.4559 27.465L57.6717 25.0862ZM63.18 30.3594L57.4521 24.836L54.6755 27.7153L60.4034 33.2388L63.18 30.3594ZM63.3883 30.5603L63.18 30.3594L60.4034 33.2388L60.6117 33.4397L63.3883 30.5603ZM60.82 30.3594L60.6117 30.5603L63.3883 33.4397L63.5966 33.2388L60.82 30.3594ZM66.5479 24.836L60.82 30.3594L63.5966 33.2388L69.3245 27.7153L66.5479 24.836ZM70.3921 19.5926L66.3283 25.0862L69.5441 27.465L73.6079 21.9714L70.3921 19.5926ZM68.0677 12.3736L70.0483 21.219L73.9517 20.345L71.9711 11.4996L68.0677 12.3736ZM60.8127 14.6355L65.1357 17.8246L67.5103 14.6058L63.1874 11.4166L60.8127 14.6355ZM58.8644 17.8246L63.1874 14.6355L60.8127 11.4166L56.4897 14.6058L58.8644 17.8246ZM61.2331 20.7658L59.5819 15.6056L55.7722 16.8247L57.4234 21.9849L61.2331 20.7658ZM64.6718 19.3753H59.3283V23.3753H64.6718V19.3753ZM64.4182 15.6056L62.7669 20.7658L66.5766 21.9849L68.2279 16.8247L64.4182 15.6056Z" fill="#D33131" class="fill-red" />
</svg>