<svg viewBox="0 0 80 80" fill="none">
  <path d="M32 16H48.5714L64 34H32V16Z" fill="#84D3FF" stroke="#84D3FF" stroke-width="4" stroke-linecap="square" class="fill-blue stroke-blue" />
  <path fill-rule="evenodd" clip-rule="evenodd" d="M72 34H64V52L66 54H72V34Z" fill="#FF9100" class="fill-orange" />
  <path d="M64 34V32H62V34H64ZM72 34H74V32H72V34ZM64 52H62V52.8284L62.5858 53.4142L64 52ZM66 54L64.5858 55.4142L65.1716 56H66V54ZM72 54V56H74V54H72ZM64 36H72V32H64V36ZM66 52V34H62V52H66ZM62.5858 53.4142L64.5858 55.4142L67.4142 52.5858L65.4142 50.5858L62.5858 53.4142ZM72 52H66V56H72V52ZM70 34V54H74V34H70Z" fill="#FF9100" class="fill-orange" />
  <path fill-rule="evenodd" clip-rule="evenodd" d="M32 34H8V54H15L21 48L27 54H32V34Z" fill="#FFC200" class="fill-yellow" />
  <path d="M8 34V32H6V34H8ZM32 34H34V32H32V34ZM8 54H6V56H8V54ZM15 54V56H15.8284L16.4142 55.4142L15 54ZM21 48L22.4142 46.5858L21 45.1716L19.5858 46.5858L21 48ZM27 54L25.5858 55.4142L26.1716 56H27V54ZM32 54V56H34V54H32ZM8 36H32V32H8V36ZM10 54V34H6V54H10ZM15 52H8V56H15V52ZM16.4142 55.4142L22.4142 49.4142L19.5858 46.5858L13.5858 52.5858L16.4142 55.4142ZM19.5858 49.4142L25.5858 55.4142L28.4142 52.5858L22.4142 46.5858L19.5858 49.4142ZM32 52H27V56H32V52ZM30 34V54H34V34H30Z" fill="#FFC200" class="fill-yellow" />
  <path fill-rule="evenodd" clip-rule="evenodd" d="M32 34H64V52L60 48L54 54H32V34ZM33 35.5H36H40H43V41.5H40H36H33V35.5Z" fill="#FF9100" class="fill-orange" />
  <path d="M64 34H66V32H64V34ZM32 34V32H30V34H32ZM64 52L62.5858 53.4142L66 56.8284V52H64ZM60 48L61.4142 46.5858L60 45.1716L58.5858 46.5858L60 48ZM54 54V56H54.8284L55.4142 55.4142L54 54ZM32 54H30V56H32V54ZM33 35.5V33.5H31V35.5H33ZM43 35.5H45V33.5H43V35.5ZM43 41.5V43.5H45V41.5H43ZM33 41.5H31V43.5H33V41.5ZM64 32H32V36H64V32ZM66 52V34H62V52H66ZM58.5858 49.4142L62.5858 53.4142L65.4142 50.5858L61.4142 46.5858L58.5858 49.4142ZM55.4142 55.4142L61.4142 49.4142L58.5858 46.5858L52.5858 52.5858L55.4142 55.4142ZM32 56H54V52H32V56ZM30 34V54H34V34H30ZM36 33.5H33V37.5H36V33.5ZM40 33.5H36V37.5H40V33.5ZM43 33.5H40V37.5H43V33.5ZM45 41.5V35.5H41V41.5H45ZM40 43.5H43V39.5H40V43.5ZM36 43.5H40V39.5H36V43.5ZM33 43.5H36V39.5H33V43.5ZM31 35.5V41.5H35V35.5H31Z" fill="#FF9100" class="fill-orange" />
  <path d="M21 48L29 56L21 64L13 56L21 48Z" fill="black" stroke="black" stroke-width="4" stroke-linecap="square" class="fill-grey stroke-grey" />
  <path d="M60 48L68 56L60 64L52 56L60 48Z" fill="black" stroke="black" stroke-width="4" stroke-linecap="square" class="fill-grey stroke-grey" />
</svg>