<svg viewBox="0 0 80 80" fill="none">
  <path fill-rule="evenodd" clip-rule="evenodd" d="M49.4269 34L36.2501 11.0005H29.3751H28.0001L31.9472 34H20.5234L14.8091 26H9.80908H8.80908L11.791 39.9367L11.809 39.9998L11.791 40.063L8.80908 53.9996H9.80908H14.8091L20.523 46H31.9473L28.0001 69.0003H29.3751H36.2501L49.4273 46H64.1939L70.8091 43V37L64.1939 34H49.4269Z" fill="#84D3FF" class="fill-blue" />
  <path fill-rule="evenodd" clip-rule="evenodd" d="M20.5234 34L14.8091 26H9.80908H8.80908L11.791 39.9366L11.809 39.9998L11.791 40.0629L8.80908 53.9995H9.80908H14.8091L20.523 46H64.1939L70.8091 43V37L64.1939 34H20.5234Z" fill="#7B61FF" class="fill-purple" />
</svg>