<svg viewBox="0 0 80 80" fill="none">
  <path fill-rule="evenodd" clip-rule="evenodd" d="M30 14C31.6569 14 33 15.3431 33 17V27H27L27 17C27 15.3431 28.3431 14 30 14ZM53 27V17C53 15.3431 51.6569 14 50 14C48.3431 14 47 15.3431 47 17V27H53Z" fill="#84D3FF" class="fill-blue" />
  <path d="M33 27V29H35V27H33ZM27 27H25V29H27V27ZM53 27V29L55 29V27L53 27ZM47 27H45V29H47V27ZM35 17C35 14.2386 32.7614 12 30 12V16C30.5523 16 31 16.4477 31 17H35ZM35 27V17H31L31 27H35ZM33 25H27L27 29H33V25ZM25 17L25 27H29L29 17H25ZM30 12C27.2386 12 25 14.2386 25 17H29C29 16.4477 29.4477 16 30 16V12ZM55 27V17H51V27L55 27ZM55 17C55 14.2386 52.7614 12 50 12V16C50.5523 16 51 16.4477 51 17H55ZM50 12C47.2386 12 45 14.2386 45 17H49C49 16.4477 49.4477 16 50 16V12ZM45 17V27H49V17H45ZM53 25H47V29H53V25Z" fill="#84D3FF" class="fill-blue" />
  <path d="M40 53V63" stroke="#7B61FF" stroke-width="4" stroke-linecap="square" class="stroke-purple" />
  <path fill-rule="evenodd" clip-rule="evenodd" d="M60 35V27H55.5884L24.4115 27H20V35H24.4115L24.4115 44L40 53L55.5884 44V35H60Z" fill="#7B61FF" class="fill-purple" />
  <path d="M60 27H62V25H60V27ZM60 35V37H62V35H60ZM20 27V25H18V27H20ZM20 35H18V37H20V35ZM24.4115 35H26.4115V33H24.4115V35ZM24.4115 44H22.4115V45.1547L23.4115 45.732L24.4115 44ZM40 53L39 54.732L40 55.3094L41 54.732L40 53ZM55.5884 44L56.5884 45.732L57.5884 45.1547V44H55.5884ZM55.5884 35V33H53.5884V35H55.5884ZM58 27V35H62V27H58ZM55.5884 29H60V25H55.5884V29ZM24.4115 29L55.5884 29V25L24.4115 25V29ZM20 29H24.4115V25H20V29ZM22 35V27H18V35H22ZM24.4115 33H20V37H24.4115V33ZM26.4115 44L26.4115 35H22.4115L22.4115 44H26.4115ZM41 51.268L25.4115 42.2679L23.4115 45.732L39 54.732L41 51.268ZM54.5884 42.2679L39 51.268L41 54.732L56.5884 45.732L54.5884 42.2679ZM53.5884 35V44H57.5884V35H53.5884ZM60 33H55.5884V37H60V33Z" fill="#7B61FF" class="fill-purple" />
</svg>