<svg viewBox="0 0 80 80" fill="none">
  <path d="M64.5413 60.4992V62.4992L65.696 62.4992L66.2733 61.4992L64.5413 60.4992ZM68.0058 54.4985L69.7378 55.4985L70.3152 54.4985L69.7378 53.4985L68.0058 54.4985ZM60.4436 37.4004L59.4436 35.6683L55.9795 37.6683L56.9795 39.4004L60.4436 37.4004ZM48.2944 58.4992H46.2944L46.2944 62.4992H48.2944L48.2944 58.4992ZM66.2733 61.4992L69.7378 55.4985L66.2737 53.4985L62.8092 59.4992L66.2733 61.4992ZM56.9795 39.4004L66.2737 55.4985L69.7378 53.4985L60.4436 37.4004L56.9795 39.4004ZM64.5413 58.4992L48.2944 58.4992L48.2944 62.4992L64.5413 62.4992V58.4992Z" fill="#AEEE52" class="fill-green" />
  <path d="M48.3003 52.5L48.3003 68.5L46.3003 66.5L40.3003 60.5L46.3003 54.5L48.3003 52.5Z" fill="#7AC70C" stroke="#7AC70C" stroke-width="4" stroke-linecap="square" class="fill-green stroke-green" />
  <path d="M43.7593 12.4995L45.4914 11.4995L44.914 10.4995L43.7593 10.4995L43.7593 12.4995ZM36.8304 12.4995L36.8304 10.4995L35.6757 10.4995L35.0983 11.4995L36.8304 12.4995ZM25.804 27.5977L24.804 29.3297L28.2681 31.3297L29.2681 29.5977L25.804 27.5977ZM50.1507 27.5697L51.1507 29.3018L54.6148 27.3018L53.6148 25.5697L50.1507 27.5697ZM43.7593 10.4995L36.8304 10.4995L36.8304 14.4995L43.7593 14.4995L43.7593 10.4995ZM29.2681 29.5977L38.5624 13.4995L35.0983 11.4995L25.804 27.5977L29.2681 29.5977ZM42.0273 13.4995L50.1507 27.5697L53.6148 25.5697L45.4914 11.4995L42.0273 13.4995Z" fill="#AEEE52" class="fill-green" />
  <path d="M44.9527 30.565L58.8091 22.565L58.077 25.297L55.8809 33.4932L47.6847 31.297L44.9527 30.565Z" fill="#7AC70C" stroke="#7AC70C" stroke-width="4" stroke-linecap="square" class="fill-green stroke-green" />
  <path d="M12.5827 54.4954L10.8506 53.4954L10.2733 54.4954L10.8506 55.4954L12.5827 54.4954ZM16.0472 60.4961L14.3151 61.4961L14.8925 62.4961L16.0472 62.4961L16.0472 60.4961ZM34.6357 62.4961L36.6357 62.4961L36.6357 58.4961L34.6357 58.4961L34.6357 62.4961ZM22.4381 41.4252L23.4381 39.6931L19.974 37.6931L18.974 39.4252L22.4381 41.4252ZM10.8506 55.4954L14.3151 61.4961L17.7792 59.4961L14.3147 53.4954L10.8506 55.4954ZM34.6357 58.4961L16.0472 58.4961L16.0472 62.4961L34.6357 62.4961L34.6357 58.4961ZM14.3147 55.4954L22.4381 41.4252L18.974 39.4252L10.8506 53.4954L14.3147 55.4954Z" fill="#AEEE52" class="fill-green" />
  <path d="M27.6303 44.4292L13.7739 36.4292L16.506 35.6971L24.7021 33.501L26.8983 41.6971L27.6303 44.4292Z" fill="#7AC70C" stroke="#7AC70C" stroke-width="4" stroke-linecap="square" class="fill-green stroke-green" />
</svg>