<svg viewBox="0 0 80 80" fill="none">
  <path d="M22.5 22.1855V20.1855H21.6716L21.0858 20.7713L22.5 22.1855ZM48.5 24.1855H50.5V20.1855H48.5V24.1855ZM12.5 32.1855L11.0858 30.7713L10.5 31.3571V32.1855H12.5ZM12.5 48.1855H10.5V49.014L11.0858 49.5998L12.5 48.1855ZM13.8633 52.3773L15.2775 53.7915L18.1059 50.963L16.6917 49.5488L13.8633 52.3773ZM22.5 24.1855L48.5 24.1855V20.1855L22.5 20.1855V24.1855ZM13.9142 33.5998L23.9142 23.5998L21.0858 20.7713L11.0858 30.7713L13.9142 33.5998ZM14.5 48.1855L14.5 32.1855H10.5L10.5 48.1855H14.5ZM11.0858 49.5998L13.8633 52.3773L16.6917 49.5488L13.9142 46.7713L11.0858 49.5998Z" fill="#84D3FF" class="fill-blue" />
  <path d="M48.5 34.1855L48.5 10.1855L51.5 13.1855L60.5 22.1855L51.5 31.1855L48.5 34.1855Z" fill="#1CB0F6" stroke="#1CB0F6" stroke-width="4" stroke-linecap="square" class="fill-blue stroke-blue" />
  <path d="M57.5 58.1855V60.1855H58.3284L58.9142 59.5998L57.5 58.1855ZM31.5 56.1855H29.5V60.1855H31.5V56.1855ZM67.5 48.1855L68.9142 49.5998L69.5 49.014V48.1855H67.5ZM67.5 32.1855H69.5V31.3571L68.9142 30.7713L67.5 32.1855ZM66.1367 27.9938L64.7225 26.5796L61.8941 29.408L63.3083 30.8223L66.1367 27.9938ZM57.5 56.1855L31.5 56.1855V60.1855L57.5 60.1855V56.1855ZM66.0858 46.7713L56.0858 56.7713L58.9142 59.5998L68.9142 49.5998L66.0858 46.7713ZM65.5 32.1855V48.1855H69.5V32.1855H65.5ZM68.9142 30.7713L66.1367 27.9938L63.3083 30.8223L66.0858 33.5998L68.9142 30.7713Z" fill="#84D3FF" class="fill-blue" />
  <path d="M31.5 46.1855L31.5 70.1855L28.5 67.1855L19.5 58.1855L28.5 49.1855L31.5 46.1855Z" fill="#1CB0F6" stroke="#1CB0F6" stroke-width="4" stroke-linecap="square" class="fill-blue stroke-blue" />
  <path d="M36.3999 30.1836H34.3999V34.1836H36.3999V30.1836ZM39.5984 32.1836H41.5984V30.1836H39.5984V32.1836ZM37.5984 48.1836V50.1836H41.5984V48.1836H37.5984ZM36.3999 34.1836H39.5984V30.1836H36.3999V34.1836ZM37.5984 32.1836V32.3065H41.5984V32.1836H37.5984ZM37.5984 32.3065V48.1836H41.5984V32.3065H37.5984Z" fill="#1CB0F6" class="fill-blue" />
</svg>