<svg viewBox="0 0 80 80" fill="none">
  <path fill-rule="evenodd" clip-rule="evenodd" d="M21 60.9512V68.9512H29V60.9512H21ZM51 60.9512V68.9512H59V60.9512H51Z" fill="#606060" class="fill-grey" />
  <path d="M21 60.9512V58.9512H19V60.9512H21ZM21 68.9512H19V70.9512H21V68.9512ZM29 68.9512V70.9512H31V68.9512H29ZM29 60.9512H31V58.9512H29V60.9512ZM51 60.9512V58.9512H49V60.9512H51ZM51 68.9512H49V70.9512H51V68.9512ZM59 68.9512V70.9512H61V68.9512H59ZM59 60.9512H61V58.9512H59V60.9512ZM19 60.9512V68.9512H23V60.9512H19ZM21 70.9512H29V66.9512H21V70.9512ZM31 68.9512V60.9512H27V68.9512H31ZM29 58.9512H21V62.9512H29V58.9512ZM49 60.9512V68.9512H53V60.9512H49ZM51 70.9512H59V66.9512H51V70.9512ZM61 68.9512V60.9512H57V68.9512H61ZM59 58.9512H51V62.9512H59V58.9512Z" fill="#606060" class="fill-grey" />
  <path fill-rule="evenodd" clip-rule="evenodd" d="M20 23.9512H14V35.9512H20V23.9512ZM60 35.9512H66V23.9512H60V35.9512Z" fill="#D2D2D2" class="fill-undefined" />
  <path d="M14 23.9512V21.9512H12V23.9512H14ZM20 23.9512H22V21.9512H20V23.9512ZM14 35.9512H12V37.9512H14V35.9512ZM20 35.9512V37.9512H22V35.9512H20ZM66 35.9512V37.9512H68V35.9512H66ZM60 35.9512H58V37.9512H60V35.9512ZM66 23.9512H68V21.9512H66V23.9512ZM60 23.9512V21.9512H58V23.9512H60ZM14 25.9512H20V21.9512H14V25.9512ZM16 35.9512V23.9512H12V35.9512H16ZM20 33.9512H14V37.9512H20V33.9512ZM22 35.9512V23.9512H18V35.9512H22ZM66 33.9512H60V37.9512H66V33.9512ZM64 23.9512V35.9512H68V23.9512H64ZM60 25.9512H66V21.9512H60V25.9512ZM58 23.9512V35.9512H62V23.9512H58Z" fill="#D2D2D2" class="fill-undefined" />
  <path fill-rule="evenodd" clip-rule="evenodd" d="M60 15.4613V38.9512H20V15.4613L30.0202 11H49.9798L60 15.4613Z" fill="#FFC200" class="fill-yellow" />
  <path d="M60 15.4613H62V14.1625L60.8135 13.6342L60 15.4613ZM60 38.9512V40.9512H62V38.9512H60ZM20 38.9512H18V40.9512H20V38.9512ZM20 15.4613L19.1865 13.6342L18 14.1625V15.4613H20ZM30.0202 11V9H29.5951L29.2068 9.17291L30.0202 11ZM49.9798 11L50.7932 9.17291L50.4049 9H49.9798V11ZM58 15.4613V38.9512H62V15.4613H58ZM60 36.9512H20V40.9512H60V36.9512ZM22 38.9512V15.4613H18V38.9512H22ZM29.2068 9.17291L19.1865 13.6342L20.8135 17.2884L30.8337 12.8271L29.2068 9.17291ZM49.9798 9H30.0202V13H49.9798V9ZM60.8135 13.6342L50.7932 9.17291L49.1663 12.8271L59.1865 17.2884L60.8135 13.6342Z" fill="#FFC200" class="fill-yellow" />
  <rect x="20" y="22.9512" width="40" height="16" fill="#84D3FF" stroke="#84D3FF" stroke-width="4" stroke-linecap="square" class="fill-blue stroke-blue" />
  <path d="M16 38.9512H64V60.9512H16V38.9512Z" fill="#FFC200" stroke="#FFC200" stroke-width="4" stroke-linecap="square" class="fill-yellow stroke-yellow" />
  <path fill-rule="evenodd" clip-rule="evenodd" d="M29 46.9512H23V52.9512H29V46.9512ZM57 46.9512H51V52.9512H57V46.9512Z" fill="#D33131" class="fill-red" />
  <path d="M23 46.9512V44.9512H21V46.9512H23ZM29 46.9512H31V44.9512H29V46.9512ZM23 52.9512H21V54.9512H23V52.9512ZM29 52.9512V54.9512H31V52.9512H29ZM51 46.9512V44.9512H49V46.9512H51ZM57 46.9512H59V44.9512H57V46.9512ZM51 52.9512H49V54.9512H51V52.9512ZM57 52.9512V54.9512H59V52.9512H57ZM23 48.9512H29V44.9512H23V48.9512ZM25 52.9512V46.9512H21V52.9512H25ZM29 50.9512H23V54.9512H29V50.9512ZM27 46.9512V52.9512H31V46.9512H27ZM51 48.9512H57V44.9512H51V48.9512ZM53 52.9512V46.9512H49V52.9512H53ZM57 50.9512H51V54.9512H57V50.9512ZM55 46.9512V52.9512H59V46.9512H55Z" fill="#D33131" class="fill-red" />
</svg>