<svg viewBox="0 0 80 80" fill="none">
  <path fill-rule="evenodd" clip-rule="evenodd" d="M27.5 24.312L33.5 23.1055V23.9995H45.5V23.3066L50.5 24.312V30.8641V58.9995H42.5V47.9999H34.5V58.9995H27.5V30.8641V24.312Z" fill="#1CB0F6" class="fill-blue" />
  <path d="M33.5 23.1055H35.5V20.6633L33.1057 21.1447L33.5 23.1055ZM27.5 24.312L27.1057 22.3512L25.5 22.6741V24.312H27.5ZM33.5 23.9995H31.5V25.9995H33.5V23.9995ZM45.5 23.9995V25.9995H47.5V23.9995H45.5ZM45.5 23.3066L45.8943 21.3458L43.5 20.8643V23.3066H45.5ZM50.5 24.312H52.5V22.6741L50.8943 22.3512L50.5 24.312ZM50.5 58.9995V60.9995H52.5V58.9995H50.5ZM42.5 58.9995H40.5V60.9995H42.5V58.9995ZM42.5 47.9999H44.5V45.9999H42.5V47.9999ZM34.5 47.9999V45.9999H32.5V47.9999H34.5ZM34.5 58.9995V60.9995H36.5V58.9995H34.5ZM27.5 58.9995H25.5V60.9995H27.5V58.9995ZM33.1057 21.1447L27.1057 22.3512L27.8943 26.2727L33.8943 25.0662L33.1057 21.1447ZM35.5 23.9995V23.1055H31.5V23.9995H35.5ZM45.5 21.9995H33.5V25.9995H45.5V21.9995ZM43.5 23.3066V23.9995H47.5V23.3066H43.5ZM50.8943 22.3512L45.8943 21.3458L45.1057 25.2673L50.1057 26.2727L50.8943 22.3512ZM52.5 30.8641V24.312H48.5V30.8641H52.5ZM52.5 58.9995V30.8641H48.5V58.9995H52.5ZM42.5 60.9995H50.5V56.9995H42.5V60.9995ZM40.5 47.9999V58.9995H44.5V47.9999H40.5ZM34.5 49.9999H42.5V45.9999H34.5V49.9999ZM36.5 58.9995V47.9999H32.5V58.9995H36.5ZM27.5 60.9995H34.5V56.9995H27.5V60.9995ZM25.5 30.8641V58.9995H29.5V30.8641H25.5ZM25.5 24.312V30.8641H29.5V24.312H25.5Z" fill="#1CB0F6" class="fill-blue" />
  <path fill-rule="evenodd" clip-rule="evenodd" d="M33.5 16H24.5H22.5V20H24.5H33.5V16ZM45.5 20H54.5H56.5V16H54.5H45.5V20Z" fill="black" class="fill-grey" />
  <rect x="34.5" y="48" width="8" height="20" fill="black" class="fill-grey" />
  <rect x="33.5" y="12" width="12" height="12" fill="#FFC200" class="fill-yellow" />
</svg>