<svg viewBox="0 0 80 80" fill="none">
  <path d="M32.2078 33.0455L30.4928 34.0745L32.5508 37.5045L34.2658 36.4755L32.2078 33.0455ZM47.3685 28.6139L49.0835 27.5849L47.0255 24.1549L45.3105 25.1839L47.3685 28.6139ZM45.3105 54.8223L47.0255 55.8513L49.0835 52.4213L47.3685 51.3923L45.3105 54.8223ZM34.2687 43.5325L32.5537 42.5035L30.4958 45.9335L32.2107 46.9625L34.2687 43.5325ZM34.2658 36.4755L47.3685 28.6139L45.3105 25.1839L32.2078 33.0455L34.2658 36.4755ZM47.3685 51.3923L34.2687 43.5325L32.2107 46.9625L45.3105 54.8223L47.3685 51.3923Z" fill="#FF00FF" class="fill-purple" />
  <path d="M25.0005 50.0002L16.3402 45.0002L16.3402 35.0002L25.0005 30.0002L33.6607 35.0002L33.6607 45.0002L25.0005 50.0002Z" fill="#7B61FF" stroke="#7B61FF" stroke-width="4" stroke-linecap="square" class="fill-purple stroke-purple" />
  <path d="M55.0005 68.0002L46.3402 63.0002L46.3402 53.0002L55.0005 48.0002L63.6607 53.0002L63.6607 63.0002L55.0005 68.0002Z" fill="#7B61FF" stroke="#7B61FF" stroke-width="4" stroke-linecap="square" class="fill-purple stroke-purple" />
  <path d="M55.0005 32.0002L46.3402 27.0002L46.3402 17.0002L55.0005 12.0002L63.6607 17.0002L63.6607 27.0002L55.0005 32.0002Z" fill="#7B61FF" stroke="#7B61FF" stroke-width="4" stroke-linecap="square" class="fill-purple stroke-purple" />
</svg>