<svg viewBox="0 0 80 80" fill="none">
  <path fill-rule="evenodd" clip-rule="evenodd" d="M40.0003 70.9952L18.4624 52.9228L12.8954 21.3504L40 13L67.1053 21.3506L61.5383 52.9228L40.0003 70.9952Z" fill="#1CB0F6" class="fill-blue" />
  <path d="M40.0003 70.9952L38.7148 72.5273L40.0003 73.606L41.2859 72.5273L40.0003 70.9952ZM18.4624 52.9228L16.4928 53.2701L16.6192 53.9869L17.1769 54.4548L18.4624 52.9228ZM12.8954 21.3504L12.3065 19.4391L10.6192 19.9589L10.9258 21.6977L12.8954 21.3504ZM40 13L40.5889 11.0887L40 10.9072L39.4112 11.0887L40 13ZM67.1053 21.3506L69.0749 21.6979L69.3815 19.9591L67.6941 19.4393L67.1053 21.3506ZM61.5383 52.9228L62.8238 54.4548L63.3815 53.9869L63.5079 53.2701L61.5383 52.9228ZM41.2859 69.4631L19.748 51.3907L17.1769 54.4548L38.7148 72.5273L41.2859 69.4631ZM20.4321 52.5755L14.865 21.0031L10.9258 21.6977L16.4928 53.2701L20.4321 52.5755ZM13.4842 23.2618L40.5889 14.9113L39.4112 11.0887L12.3065 19.4391L13.4842 23.2618ZM39.4112 14.9113L66.5164 23.262L67.6941 19.4393L40.5889 11.0887L39.4112 14.9113ZM65.1357 21.0033L59.5686 52.5755L63.5079 53.2701L69.0749 21.6979L65.1357 21.0033ZM60.2527 51.3907L38.7148 69.4631L41.2859 72.5273L62.8238 54.4548L60.2527 51.3907Z" fill="#1CB0F6" class="fill-blue" />
  <path fill-rule="evenodd" clip-rule="evenodd" d="M40.0002 59.3563L26.1544 47.7786L22.5756 27.5526L40.0001 22.2031L57.4249 27.5527L53.8461 47.7786L40.0002 59.3563Z" fill="#84D3FF" class="fill-blue" />
  <path d="M40.0002 59.3563L38.7173 60.8906L40.0002 61.9634L41.2832 60.8906L40.0002 59.3563ZM26.1544 47.7786L24.185 48.1271L24.3121 48.8452L24.8715 49.3129L26.1544 47.7786ZM22.5756 27.5526L21.9886 25.6407L20.2981 26.1597L20.6062 27.9011L22.5756 27.5526ZM40.0001 22.2031L40.587 20.2912L40.0001 20.111L39.4131 20.2912L40.0001 22.2031ZM57.4249 27.5527L59.3943 27.9012L59.7024 26.1598L58.0118 25.6408L57.4249 27.5527ZM53.8461 47.7786L55.129 49.3129L55.6884 48.8452L55.8155 48.1271L53.8461 47.7786ZM41.2832 57.822L27.4374 46.2444L24.8715 49.3129L38.7173 60.8906L41.2832 57.822ZM28.1239 47.4302L24.545 27.2042L20.6062 27.9011L24.185 48.1271L28.1239 47.4302ZM23.1626 29.4645L40.587 24.115L39.4131 20.2912L21.9886 25.6407L23.1626 29.4645ZM39.4131 24.115L56.8379 29.4647L58.0118 25.6408L40.587 20.2912L39.4131 24.115ZM55.4555 27.2043L51.8766 47.4302L55.8155 48.1271L59.3943 27.9012L55.4555 27.2043ZM52.5631 46.2444L38.7173 57.822L41.2832 60.8906L55.129 49.3129L52.5631 46.2444Z" fill="#84D3FF" class="fill-blue" />
</svg>