<svg viewBox="0 0 80 80" fill="none">
  <path fill-rule="evenodd" clip-rule="evenodd" d="M40.0003 70.7092L23.6418 60.1963L12.6479 36.123L15.2538 17.9987L39.9999 10L64.7468 17.999L67.3527 36.123L56.3588 60.1963L40.0003 70.7092Z" fill="#1CB0F6" class="fill-blue" />
  <path d="M40.0003 70.7092L38.919 72.3917L40.0003 73.0866L41.0816 72.3917L40.0003 70.7092ZM23.6418 60.1963L21.8226 61.0271L22.0665 61.5613L22.5606 61.8788L23.6418 60.1963ZM12.6479 36.123L10.6683 35.8384L10.5847 36.4196L10.8287 36.9538L12.6479 36.123ZM15.2538 17.9987L14.6387 16.0957L13.4517 16.4793L13.2742 17.7141L15.2538 17.9987ZM39.9999 10L40.615 8.09695L39.9999 7.89812L39.3847 8.09695L39.9999 10ZM64.7468 17.999L66.7265 17.7144L66.549 16.4796L65.362 16.096L64.7468 17.999ZM67.3527 36.123L69.1719 36.9538L69.4159 36.4196L69.3323 35.8384L67.3527 36.123ZM56.3588 60.1963L57.4401 61.8788L57.9341 61.5613L58.178 61.0271L56.3588 60.1963ZM41.0816 69.0267L24.7231 58.5138L22.5606 61.8788L38.919 72.3917L41.0816 69.0267ZM25.4611 59.3654L14.4672 35.2922L10.8287 36.9538L21.8226 61.0271L25.4611 59.3654ZM14.6276 36.4076L17.2335 18.2834L13.2742 17.7141L10.6683 35.8384L14.6276 36.4076ZM15.869 19.9018L40.615 11.9031L39.3847 8.09695L14.6387 16.0957L15.869 19.9018ZM39.3847 11.9031L64.1317 19.9021L65.362 16.096L40.615 8.09695L39.3847 11.9031ZM62.7672 18.2836L65.373 36.4076L69.3323 35.8384L66.7265 17.7144L62.7672 18.2836ZM65.5334 35.2922L54.5395 59.3654L58.178 61.0271L69.1719 36.9538L65.5334 35.2922ZM55.2775 58.5138L38.919 69.0267L41.0816 72.3917L57.4401 61.8788L55.2775 58.5138Z" fill="#1CB0F6" class="fill-blue" />
  <path fill-rule="evenodd" clip-rule="evenodd" d="M40.0002 59.1731L29.4841 52.4382L22.4166 37.0163L24.0918 25.4054L40 20.2813L55.9087 25.4056L57.5839 37.0163L50.5164 52.4382L40.0002 59.1731Z" fill="#84D3FF" class="fill-blue" />
  <path d="M40.0002 59.1731L38.9216 60.8573L40.0002 61.5481L41.0789 60.8573L40.0002 59.1731ZM29.4841 52.4382L27.6659 53.2715L27.9107 53.8056L28.4054 54.1225L29.4841 52.4382ZM22.4166 37.0163L20.4371 36.7307L20.3529 37.3139L20.5984 37.8495L22.4166 37.0163ZM24.0918 25.4054L23.4786 23.5018L22.2905 23.8844L22.1123 25.1198L24.0918 25.4054ZM40 20.2813L40.6131 18.3776L40 18.1801L39.3868 18.3776L40 20.2813ZM55.9087 25.4056L57.8882 25.12L57.71 23.8846L56.5219 23.5019L55.9087 25.4056ZM57.5839 37.0163L59.4021 37.8495L59.6475 37.3139L59.5634 36.7307L57.5839 37.0163ZM50.5164 52.4382L51.595 54.1225L52.0898 53.8056L52.3346 53.2715L50.5164 52.4382ZM41.0789 57.4889L30.5627 50.754L28.4054 54.1225L38.9216 60.8573L41.0789 57.4889ZM31.3022 51.605L24.2347 36.1831L20.5984 37.8495L27.6659 53.2715L31.3022 51.605ZM24.3961 37.3019L26.0713 25.691L22.1123 25.1198L20.4371 36.7307L24.3961 37.3019ZM24.705 27.3091L40.6131 22.1849L39.3868 18.3776L23.4786 23.5018L24.705 27.3091ZM39.3868 22.1849L55.2955 27.3093L56.5219 23.5019L40.6131 18.3776L39.3868 22.1849ZM53.9292 25.6912L55.6044 37.3019L59.5634 36.7307L57.8882 25.12L53.9292 25.6912ZM55.7657 36.1831L48.6982 51.605L52.3346 53.2715L59.4021 37.8495L55.7657 36.1831ZM49.4378 50.754L38.9216 57.4889L41.0789 60.8573L51.595 54.1225L49.4378 50.754Z" fill="#84D3FF" class="fill-blue" />
</svg>