<svg viewBox="0 0 80 80" fill="none">
  <path fill-rule="evenodd" clip-rule="evenodd" d="M71 20.9998L64 48.9998H26L19 20.9998H71Z" fill="#84D3FF" class="fill-blue" />
  <path d="M64 48.9998V50.9998H65.5616L65.9403 49.4848L64 48.9998ZM71 20.9998L72.9403 21.4848L73.5616 18.9998H71V20.9998ZM26 48.9998L24.0597 49.4848L24.4384 50.9998H26V48.9998ZM19 20.9998V18.9998H16.4384L17.0597 21.4848L19 20.9998ZM65.9403 49.4848L72.9403 21.4848L69.0597 20.5147L62.0597 48.5147L65.9403 49.4848ZM26 50.9998H64V46.9998H26V50.9998ZM17.0597 21.4848L24.0597 49.4848L27.9403 48.5147L20.9403 20.5147L17.0597 21.4848ZM71 18.9998H19V22.9998H71V18.9998Z" fill="#84D3FF" class="fill-blue" />
  <path d="M26.8595 60.6841L27.3445 62.6244L31.2251 61.6542L30.74 59.714L26.8595 60.6841ZM17 13L18.9403 12.5149L18.5616 11H17V13ZM9 11H7V15H9V11ZM30.0012 59H28.0012V63H30.0012V59ZM60.9988 63H62.9988V59H60.9988V63ZM30.74 59.714L18.9403 12.5149L15.0597 13.4851L26.8595 60.6841L30.74 59.714ZM17 11H9V15H17V11ZM30.0012 63H60.9988V59H30.0012V63Z" fill="#7B61FF" class="fill-purple" />
  <path d="M29 59.9988L35 65.9988L29 71.9988L23 65.9988L29 59.9988Z" fill="#1CB0F6" stroke="#1CB0F6" stroke-width="4" stroke-linecap="square" class="fill-blue stroke-blue" />
  <path d="M62 59.9988L68 65.9988L62 71.9988L56 65.9988L62 59.9988Z" fill="#1CB0F6" stroke="#1CB0F6" stroke-width="4" stroke-linecap="square" class="fill-blue stroke-blue" />
</svg>