<svg viewBox="0 0 80 80" fill="none">
  <path fill-rule="evenodd" clip-rule="evenodd" d="M67.5 63.5V67.5H59.5V63.5L59.5 15.5V11.5L67.5 11.5V15.5L67.5 63.5ZM51.5 67.5V63.5L51.5 27.5V23.5H43.5V27.5L43.5 63.5L43.5 67.5H51.5ZM35.5 63.5L35.5 67.5H27.5V63.5L27.5 39.5L27.5 35.5H35.5V39.5L35.5 63.5ZM19.5 63.5L19.5 67.5H11.5V63.5L11.5 51.5L11.5 47.5H19.5V51.5V63.5Z" fill="#FF00FF" class="fill-purple" />
  <path d="M67.5 67.5V69.5H69.5V67.5H67.5ZM67.5 63.5H69.5H67.5ZM59.5 67.5H57.5V69.5H59.5V67.5ZM59.5 63.5H61.5H59.5ZM59.5 15.5H57.5H59.5ZM59.5 11.5V9.5H57.5V11.5H59.5ZM67.5 11.5H69.5V9.5H67.5V11.5ZM67.5 15.5H65.5V15.5L67.5 15.5ZM51.5 67.5V69.5H53.5V67.5H51.5ZM51.5 23.5H53.5V21.5H51.5V23.5ZM43.5 23.5V21.5H41.5V23.5H43.5ZM43.5 27.5H41.5H43.5ZM43.5 63.5H45.5H43.5ZM43.5 67.5H41.5V69.5H43.5V67.5ZM35.5 67.5V69.5H37.5V67.5H35.5ZM35.5 63.5H37.5H35.5ZM27.5 67.5H25.5V69.5H27.5V67.5ZM27.5 63.5H29.5H27.5ZM27.5 39.5H25.5H27.5ZM27.5 35.5V33.5H25.5V35.5H27.5ZM35.5 35.5H37.5V33.5H35.5V35.5ZM35.5 39.5H33.5H35.5ZM19.5 67.5V69.5H21.5L21.5 67.5H19.5ZM19.5 63.5H17.5H19.5ZM11.5 67.5H9.5V69.5H11.5V67.5ZM11.5 47.5V45.5H9.5V47.5H11.5ZM19.5 47.5H21.5V45.5H19.5V47.5ZM69.5 67.5V63.5H65.5V67.5H69.5ZM59.5 69.5H67.5V65.5H59.5V69.5ZM57.5 63.5V67.5H61.5V63.5H57.5ZM57.5 15.5L57.5 63.5H61.5L61.5 15.5L57.5 15.5ZM57.5 11.5V15.5H61.5V11.5L57.5 11.5ZM67.5 9.5L59.5 9.5V13.5L67.5 13.5V9.5ZM69.5 15.5V11.5H65.5V15.5H69.5ZM69.5 63.5L69.5 15.5L65.5 15.5L65.5 63.5H69.5ZM49.5 63.5V67.5H53.5V63.5H49.5ZM49.5 27.5L49.5 63.5H53.5L53.5 27.5H49.5ZM49.5 23.5V27.5H53.5V23.5H49.5ZM43.5 25.5H51.5V21.5H43.5V25.5ZM45.5 27.5V23.5H41.5V27.5H45.5ZM45.5 63.5L45.5 27.5H41.5L41.5 63.5H45.5ZM45.5 67.5V63.5H41.5L41.5 67.5H45.5ZM51.5 65.5H43.5L43.5 69.5H51.5V65.5ZM37.5 67.5L37.5 63.5L33.5 63.5L33.5 67.5H37.5ZM27.5 69.5H35.5L35.5 65.5H27.5V69.5ZM25.5 63.5V67.5H29.5L29.5 63.5H25.5ZM25.5 39.5L25.5 63.5H29.5L29.5 39.5H25.5ZM25.5 35.5L25.5 39.5H29.5V35.5H25.5ZM35.5 33.5H27.5V37.5H35.5V33.5ZM37.5 39.5V35.5H33.5V39.5H37.5ZM37.5 63.5L37.5 39.5H33.5L33.5 63.5L37.5 63.5ZM21.5 67.5L21.5 63.5H17.5L17.5 67.5H21.5ZM11.5 69.5H19.5V65.5H11.5V69.5ZM9.5 63.5V67.5H13.5V63.5H9.5ZM9.5 51.5L9.5 63.5H13.5L13.5 51.5H9.5ZM9.5 47.5L9.5 51.5H13.5L13.5 47.5H9.5ZM19.5 45.5H11.5V49.5H19.5V45.5ZM21.5 51.5V47.5H17.5V51.5H21.5ZM21.5 63.5V51.5H17.5V63.5H21.5Z" fill="#7B61FF" class="fill-purple" />
</svg>