<svg viewBox="0 0 80 80" fill="none">
  <path fill-rule="evenodd" clip-rule="evenodd" d="M58.2895 16.5672L40.2914 10.4844L22.2934 16.5672L12.7168 31.9695L16.0427 49.4844L22.2914 54.3531V62V68H34.2914V62V60.9164H34.7914V62V68H46.7914V62V60.9164H47.2914V62V68H59.2914V62V53.574L64.5401 49.4844L67.866 31.9695L58.2895 16.5672Z" fill="#AEEE52" class="fill-green" />
  <path d="M40.2914 10.4844L40.9318 8.58966L40.2914 8.37324L39.6511 8.58966L40.2914 10.4844ZM58.2895 16.5672L59.9879 15.5112L59.6092 14.9021L58.9298 14.6725L58.2895 16.5672ZM22.2934 16.5672L21.653 14.6725L20.9736 14.9021L20.5949 15.5112L22.2934 16.5672ZM12.7168 31.9695L11.0183 30.9135L10.6063 31.5761L10.7519 32.3426L12.7168 31.9695ZM16.0427 49.4844L14.0778 49.8575L14.2185 50.5985L14.8135 51.062L16.0427 49.4844ZM22.2914 54.3531H24.2914V53.376L23.5207 52.7755L22.2914 54.3531ZM22.2914 68H20.2914V70H22.2914V68ZM34.2914 68V70H36.2914V68H34.2914ZM34.2914 60.9164V58.9164H32.2914V60.9164H34.2914ZM34.7914 60.9164H36.7914V58.9164H34.7914V60.9164ZM34.7914 68H32.7914V70H34.7914V68ZM46.7914 68V70H48.7914V68H46.7914ZM46.7914 60.9164V58.9164H44.7914V60.9164H46.7914ZM47.2914 60.9164H49.2914V58.9164H47.2914V60.9164ZM47.2914 68H45.2914V70H47.2914V68ZM59.2914 68V70H61.2914V68H59.2914ZM59.2914 53.574L58.0622 51.9963L57.2914 52.5969V53.574H59.2914ZM64.5401 49.4844L65.7694 51.062L66.3643 50.5985L66.505 49.8575L64.5401 49.4844ZM67.866 31.9695L69.8309 32.3426L69.9765 31.5761L69.5645 30.9135L67.866 31.9695ZM39.6511 12.3791L57.6491 18.4619L58.9298 14.6725L40.9318 8.58966L39.6511 12.3791ZM22.9337 18.4619L40.9318 12.3791L39.6511 8.58966L21.653 14.6725L22.9337 18.4619ZM14.4153 33.0256L23.9918 17.6233L20.5949 15.5112L11.0183 30.9135L14.4153 33.0256ZM18.0076 49.1113L14.6817 31.5964L10.7519 32.3426L14.0778 49.8575L18.0076 49.1113ZM23.5207 52.7755L17.2719 47.9067L14.8135 51.062L21.0622 55.9308L23.5207 52.7755ZM24.2914 62V54.3531H20.2914V62H24.2914ZM24.2914 68V62H20.2914V68H24.2914ZM34.2914 66H22.2914V70H34.2914V66ZM32.2914 62V68H36.2914V62H32.2914ZM32.2914 60.9164V62H36.2914V60.9164H32.2914ZM34.7914 58.9164H34.2914V62.9164H34.7914V58.9164ZM36.7914 62V60.9164H32.7914V62H36.7914ZM36.7914 68V62H32.7914V68H36.7914ZM46.7914 66H34.7914V70H46.7914V66ZM44.7914 62V68H48.7914V62H44.7914ZM44.7914 60.9164V62H48.7914V60.9164H44.7914ZM47.2914 58.9164H46.7914V62.9164H47.2914V58.9164ZM45.2914 60.9164V62H49.2914V60.9164H45.2914ZM45.2914 62V68H49.2914V62H45.2914ZM47.2914 70H59.2914V66H47.2914V70ZM61.2914 68V62H57.2914V68H61.2914ZM61.2914 62V53.574H57.2914V62H61.2914ZM63.3109 47.9067L58.0622 51.9963L60.5207 55.1516L65.7694 51.062L63.3109 47.9067ZM65.9011 31.5964L62.5752 49.1113L66.505 49.8575L69.8309 32.3426L65.9011 31.5964ZM56.591 17.6233L66.1676 33.0256L69.5645 30.9135L59.9879 15.5112L56.591 17.6233Z" fill="#FF00FF" class="fill-purple" />
  <path d="M29.2915 29L34.4877 32V38L29.2915 41L24.0954 38V32L29.2915 29Z" fill="#FF00FF" stroke="#FF00FF" stroke-width="4" stroke-linecap="square" class="fill-purple stroke-purple" />
  <path d="M51.2915 29L56.4877 32V38L51.2915 41L46.0954 38V32L51.2915 29Z" fill="#FF00FF" stroke="#FF00FF" stroke-width="4" stroke-linecap="square" class="fill-purple stroke-purple" />
  <path d="M40.2915 41L45.4877 50H35.0954L40.2915 41Z" fill="#FF00FF" stroke="#FF00FF" stroke-width="4" stroke-linecap="square" class="fill-purple stroke-purple" />
</svg>