<svg viewBox="0 0 80 80" fill="none">
  <path d="M33.6085 15.0162L32.1454 13.6526L29.4182 16.5787L30.8812 17.9423L33.6085 15.0162ZM40.0035 23.7107L38.6399 25.1737L40.0035 26.4447L41.3671 25.1737L40.0035 23.7107ZM26.0413 31.7718L26.6265 33.6842L28.409 33.1388L27.9901 31.3224L26.0413 31.7718ZM25.6068 20.9874L25.1574 19.0386L21.2597 19.9374L21.7091 21.8863L25.6068 20.9874ZM49.1236 17.9443L50.5867 16.5807L47.8594 13.6546L46.3963 15.0182L49.1236 17.9443ZM58.2972 21.8892L58.7466 19.9403L54.8489 19.0415L54.3995 20.9903L58.2972 21.8892ZM53.9657 31.7718L52.0168 31.3224L51.5979 33.1388L53.3805 33.6842L53.9657 31.7718ZM63.6642 36.8311L65.5766 37.4163L66.7471 33.5914L64.8346 33.0061L63.6642 36.8311ZM64.8346 46.6596L66.7471 46.0743L65.5766 42.2494L63.6642 42.8346L64.8346 46.6596ZM53.9657 47.8939L53.3805 45.9815L51.5979 46.5269L52.0168 48.3433L53.9657 47.8939ZM54.4681 58.9729L54.9175 60.9218L58.8152 60.0229L58.3658 58.0741L54.4681 58.9729ZM46.6197 64.8557L48.0827 66.2193L50.81 63.2932L49.347 61.9296L46.6197 64.8557ZM40.0035 55.955L41.3671 54.492L40.0035 53.221L38.6398 54.492L40.0035 55.955ZM30.6578 61.9316L29.1948 63.2952L31.9221 66.2213L33.3851 64.8577L30.6578 61.9316ZM21.6405 58.0769L21.1911 60.0258L25.0888 60.9246L25.5382 58.9758L21.6405 58.0769ZM26.0413 47.8939L27.9901 48.3433L28.409 46.5269L26.6265 45.9815L26.0413 47.8939ZM16.3372 42.8329L14.4247 42.2477L13.2543 46.0726L15.1667 46.6578L16.3372 42.8329ZM15.1667 33.0079L13.2543 33.5931L14.4247 37.418L16.3372 36.8328L15.1667 33.0079ZM30.8812 17.9423L38.6399 25.1737L41.3671 22.2477L33.6085 15.0162L30.8812 17.9423ZM27.9901 31.3224L25.6068 20.9874L21.7091 21.8863L24.0924 32.2212L27.9901 31.3224ZM41.3671 25.1737L49.1236 17.9443L46.3963 15.0182L38.6399 22.2477L41.3671 25.1737ZM54.3995 20.9903L52.0168 31.3224L55.9145 32.2212L58.2972 21.8892L54.3995 20.9903ZM53.3805 33.6842L63.6642 36.8311L64.8346 33.0061L54.5509 29.8593L53.3805 33.6842ZM63.6642 42.8346L53.3805 45.9815L54.5509 49.8064L64.8346 46.6596L63.6642 42.8346ZM52.0168 48.3433L54.4681 58.9729L58.3658 58.0741L55.9145 47.4445L52.0168 48.3433ZM49.347 61.9296L41.3671 54.492L38.6398 57.4181L46.6197 64.8557L49.347 61.9296ZM38.6398 54.492L30.6578 61.9316L33.3851 64.8577L41.3671 57.4181L38.6398 54.492ZM25.5382 58.9758L27.9901 48.3433L24.0924 47.4445L21.6405 58.0769L25.5382 58.9758ZM26.6265 45.9815L16.3372 42.8329L15.1667 46.6578L25.4561 49.8064L26.6265 45.9815ZM16.3372 36.8328L26.6265 33.6842L25.4561 29.8593L15.1667 33.0079L16.3372 36.8328Z" fill="#84D3FF" class="fill-blue" />
  <path d="M39.9999 12L41.9999 11.998H37.9999L39.9999 12ZM40.0279 39.9515L38.0279 39.9535L38.0314 43.4096L41.0262 41.6846L40.0279 39.9515ZM64.2486 26L65.2504 27.731L63.2504 24.2669L64.2486 26ZM40.0559 40L39.0542 38.269L36.0629 40L39.0542 41.731L40.0559 40ZM64.2486 54L63.2504 55.7331L65.2504 52.269L64.2486 54ZM40.0279 40.0485L41.0262 38.3154L38.0314 36.5904L38.0279 40.0465L40.0279 40.0485ZM39.9999 68L37.9999 68.002H41.9999L39.9999 68ZM39.9719 40.0485L41.9719 40.0465L41.9685 36.5904L38.9737 38.3154L39.9719 40.0485ZM15.7512 54L14.7495 52.269L16.7495 55.7331L15.7512 54ZM39.9439 40L40.9457 41.731L43.937 40L40.9457 38.269L39.9439 40ZM15.7512 26L16.7495 24.2669L14.7495 27.731L15.7512 26ZM39.9719 39.9515L38.9737 41.6846L41.9685 43.4096L41.9719 39.9535L39.9719 39.9515ZM37.9999 12.002L38.0279 39.9535L42.0279 39.9495L41.9999 11.998L37.9999 12.002ZM41.0262 41.6846L65.2469 27.7331L63.2504 24.2669L39.0297 38.2185L41.0262 41.6846ZM63.2469 24.269L39.0542 38.269L41.0577 41.731L65.2504 27.731L63.2469 24.269ZM39.0542 41.731L63.2469 55.731L65.2504 52.269L41.0577 38.269L39.0542 41.731ZM65.2469 52.2669L41.0262 38.3154L39.0297 41.7815L63.2504 55.7331L65.2469 52.2669ZM38.0279 40.0465L37.9999 67.998L41.9999 68.002L42.0279 40.0505L38.0279 40.0465ZM41.9999 67.998L41.9719 40.0465L37.9719 40.0505L37.9999 68.002L41.9999 67.998ZM38.9737 38.3154L14.753 52.2669L16.7495 55.7331L40.9702 41.7815L38.9737 38.3154ZM16.753 55.731L40.9457 41.731L38.9422 38.269L14.7495 52.269L16.753 55.731ZM40.9457 38.269L16.753 24.269L14.7495 27.731L38.9422 41.731L40.9457 38.269ZM14.753 27.7331L38.9737 41.6846L40.9702 38.2185L16.7495 24.2669L14.753 27.7331ZM41.9719 39.9535L41.9999 12.002L37.9999 11.998L37.9719 39.9495L41.9719 39.9535Z" fill="#1CB0F6" class="fill-blue" />
</svg>