<svg viewBox="0 0 80 80" fill="none">
  <path d="M31 25L31 23L27 23V25L31 25ZM27 64L27 66H31L31 64H27ZM27 25L27 64H31L31 25L27 25Z" fill="#84D3FF" class="fill-blue" />
  <path d="M38 25L20 25L22.25 22.75L29 16L35.75 22.75L38 25Z" fill="#1CB0F6" stroke="#1CB0F6" stroke-width="4" stroke-linecap="square" class="fill-blue stroke-blue" />
  <path d="M51.6001 14H49.6001V18H51.6001V14ZM56.3978 16H58.3978V14L56.3978 14V16ZM54.3978 36V38H58.3978V36H54.3978ZM51.6001 18H56.3978V14H51.6001V18ZM54.3978 16V16.1536H58.3978V16H54.3978ZM54.3978 16.1536V36H58.3978V16.1536H54.3978Z" fill="#1CB0F6" class="fill-blue" />
  <path d="M60 64V66H62V64H60ZM48 44V42H46V44H48ZM48 55.6667H46V57.6667H48V55.6667ZM60 44H62V42H60V44ZM51 62H49V66H51V62ZM59.9727 55.6667V57.6667H61.9645L61.9726 55.6749L59.9727 55.6667ZM58 54V64H62V54H58ZM46 44V55.6667H50V44H46ZM48 46H60V42H48V46ZM60 62H51.5V66H60V62ZM51.5 62H51V66H51.5V62ZM48 57.6667H59.9727V53.6667H48V57.6667ZM58 44V49H62V44H58ZM58 49V54H62V49H58ZM61.9726 55.6749L62 49.0082L58 48.9918L57.9727 55.6585L61.9726 55.6749Z" fill="#84D3FF" class="fill-blue" />
</svg>