<svg viewBox="0 0 80 80" fill="none">
  <path fill-rule="evenodd" clip-rule="evenodd" d="M12 28.4023L28.4023 12L51.5977 12L68 28.4023V51.5983L51.5983 68H28.4017L12 51.5983L12 28.4023Z" fill="#D33131" class="fill-red" />
  <path d="M12 28.4023L10.9393 27.3417L10.5 27.781L10.5 28.4023H12ZM28.4023 12V10.5L27.781 10.5L27.3417 10.9393L28.4023 12ZM51.5977 12L52.6583 10.9393L52.219 10.5H51.5977V12ZM68 28.4023H69.5V27.781L69.0607 27.3417L68 28.4023ZM68 51.5983L69.0607 52.659L69.5 52.2196V51.5983H68ZM51.5983 68V69.5H52.2196L52.659 69.0607L51.5983 68ZM28.4017 68L27.341 69.0607L27.7804 69.5H28.4017V68ZM12 51.5983H10.5V52.2196L10.9393 52.659L12 51.5983ZM13.0607 29.463L29.463 13.0607L27.3417 10.9393L10.9393 27.3417L13.0607 29.463ZM28.4023 13.5L51.5977 13.5V10.5L28.4023 10.5V13.5ZM50.537 13.0607L66.9393 29.463L69.0607 27.3417L52.6583 10.9393L50.537 13.0607ZM66.5 28.4023V51.5983H69.5V28.4023L66.5 28.4023ZM66.9393 50.5376L50.5376 66.9393L52.659 69.0607L69.0607 52.659L66.9393 50.5376ZM51.5983 66.5H28.4017L28.4017 69.5H51.5983V66.5ZM29.4624 66.9393L13.0607 50.5376L10.9393 52.659L27.341 69.0607L29.4624 66.9393ZM13.5 51.5983L13.5 28.4023H10.5L10.5 51.5983H13.5Z" fill="#F4F4F4" class="fill-white" />
  <path d="M25.2333 32H27.2333V30H25.2333V32ZM17.7667 32V30H15.7667V32H17.7667ZM17.5 48H15.5V50H17.5V48ZM25.5 48V50H27.5L27.5 48H25.5ZM17.7667 38.5833H15.7667V40.0249L17.1342 40.4807L17.7667 38.5833ZM25.5 41.25H27.5V39.8406L26.1727 39.3665L25.5 41.25ZM21.7667 39.9167L22.4393 38.0332L22.4193 38.026L22.3991 38.0193L21.7667 39.9167ZM19.5 43.8333L19.5 41.8333H15.5V43.8333H19.5ZM23.2333 36.1667V38.1667H27.2333V36.1667H23.2333ZM25.2333 30H17.7667V34H25.2333V30ZM17.5 50H25.5V46H17.5V50ZM15.7667 32L15.7667 38.5833H19.7667V32H15.7667ZM23.2333 32V36H27.2333V32H23.2333ZM15.5 44L15.5 48H19.5V44H15.5ZM23.5 41.25L23.5 48H27.5V41.25H23.5ZM17.1342 40.4807L21.1342 41.814L22.3991 38.0193L18.3991 36.686L17.1342 40.4807ZM21.094 41.8002L24.8273 43.1335L26.1727 39.3665L22.4393 38.0332L21.094 41.8002ZM19.5 44V43.8333H15.5V44H19.5ZM23.2333 36V36.1667H27.2333V36H23.2333Z" fill="#F4F4F4" class="fill-white" />
  <path d="M29 30H27V34H29V30ZM37 34H39V30H37V34ZM31 48V50H35V48H31ZM29 34H33V30H29V34ZM33 34H37V30H33V34ZM31 32L31 48H35V32H31Z" fill="#F4F4F4" class="fill-white" />
  <path d="M40.5 32V30H38.5V32H40.5ZM40.5 48H38.5V50H40.5V48ZM48.5 32H50.5V30H48.5V32ZM48.5 48V50H50.5V48H48.5ZM38.5 32V48H42.5V32H38.5ZM46.5 32V48H50.5V32H46.5ZM48.5 30H40.5V34H48.5V30ZM40.5 50H48.5V46H40.5V50Z" fill="#F4F4F4" class="fill-white" />
  <path d="M54 40H52V42H54V40ZM54 32V30H52V32H54ZM62 40V42H64V40H62ZM62 32H64V30H62V32ZM56 32V30H52V32H56ZM52 48V50H56V48H52ZM56 40V32H52V40H56ZM54.125 38H54V42H54.125V38ZM62 38H54.125V42H62V38ZM60 32V40H64V32H60ZM54.125 34H62V30H54.125V34ZM54 34H54.125V30H54V34ZM52 32V48H56V32H52Z" fill="#F4F4F4" class="fill-white" />
</svg>