<svg viewBox="0 0 80 80" fill="none">
  <path fill-rule="evenodd" clip-rule="evenodd" d="M33 50.2466C27.9092 50.6127 23.3226 51.3711 19.6516 52.4199C17.0195 53.1719 14.7442 54.105 13.0809 55.2286C11.4874 56.305 10 57.8803 10 59.9998C10 62.1194 11.4874 63.6947 13.0809 64.7711C14.7442 65.8947 17.0195 66.8277 19.6516 67.5797C24.9429 69.0915 32.1365 69.9998 40 69.9998C47.8635 69.9998 55.0571 69.0915 60.3484 67.5797C62.9805 66.8277 65.2558 65.8947 66.9191 64.7711C68.5126 63.6947 70 62.1194 70 59.9998C70 57.8803 68.5126 56.305 66.9191 55.2286C65.2558 54.105 62.9805 53.1719 60.3484 52.4199C56.6774 51.3711 52.0908 50.6127 47 50.2466V54.2574C51.7471 54.6146 55.9532 55.3242 59.2495 56.266C61.6845 56.9617 63.5096 57.7525 64.6801 58.5432C65.9204 59.381 66 59.9103 66 59.9998C66 60.0894 65.9204 60.6187 64.6801 61.4565C63.5096 62.2471 61.6845 63.0379 59.2495 63.7336C54.4068 65.1173 47.6004 65.9998 40 65.9998C32.3996 65.9998 25.5932 65.1173 20.7505 63.7336C18.3155 63.0379 16.4904 62.2471 15.3199 61.4565C14.0796 60.6187 14 60.0894 14 59.9998C14 59.9103 14.0796 59.381 15.3199 58.5432C16.4904 57.7525 18.3155 56.9617 20.7505 56.266C24.0468 55.3242 28.2529 54.6146 33 54.2574V50.2466Z" fill="#1CB0F6" class="fill-blue" />
  <path fill-rule="evenodd" clip-rule="evenodd" d="M29.1667 48H27V34.5L31.3333 30H35.6667H44.3333H48.6667L53 34.5V48H50.8333H47V62H44.4545H35.5455H33V48H29.1667Z" fill="#FFC200" class="fill-yellow" />
  <path d="M40 12L50 22L40 32L30 22L40 12Z" fill="#FF9100" stroke="#FF9100" stroke-width="2" stroke-linecap="square" class="fill-orange stroke-orange" />
</svg>