<svg viewBox="0 0 80 80" fill="none">
  <path fill-rule="evenodd" clip-rule="evenodd" d="M26.1763 59.9951L19.5858 66.5857C18.8047 67.3667 18.8047 68.633 19.5858 69.4141C20.3668 70.1951 21.6332 70.1951 22.4142 69.4141L30.4142 61.4141C30.8059 61.0224 31.0012 60.5085 31 59.9951H26.1763ZM49 59.9951C48.9988 60.5085 49.1941 61.0224 49.5858 61.4141L57.5858 69.4141C58.3668 70.1951 59.6332 70.1951 60.4142 69.4141C61.1953 68.633 61.1953 67.3667 60.4142 66.5857L53.8237 59.9951H49Z" fill="#606060" class="fill-grey" />
  <path fill-rule="evenodd" clip-rule="evenodd" d="M16 53.6323V18.3629L23.583 12H56.417L64 18.3629V53.6323L56.417 59.9952H23.583L16 53.6323Z" fill="#AEEE52" class="fill-green" />
  <path d="M16 24H64V40H16V24Z" fill="#1CB0F6" class="fill-blue" />
  <path d="M40 40V24" stroke="#AEEE52" stroke-width="4" stroke-linecap="square" class="stroke-green" />
  <rect x="24" y="47" width="6" height="6" fill="#FFC200" stroke="#FFC200" stroke-width="4" stroke-linecap="square" class="fill-yellow stroke-yellow" />
  <rect x="50" y="47" width="6" height="6" fill="#FFC200" stroke="#FFC200" stroke-width="4" stroke-linecap="square" class="fill-yellow stroke-yellow" />
</svg>