<svg viewBox="0 0 80 80" fill="none">
  <path fill-rule="evenodd" clip-rule="evenodd" d="M73.136 39.901L40.0458 20.7964L6.83838 39.9687L28.5536 58.6906C29.9851 57.0303 31.7566 55.6969 33.7483 54.7809C35.7399 53.8649 37.9051 53.3875 40.0973 53.3812C42.2895 53.3749 44.4575 53.8397 46.4544 54.7442C48.4513 55.6488 50.2305 56.9718 51.6715 58.6239L73.136 39.901Z" fill="#F4F4F4" class="fill-white" />
  <path d="M40.0458 20.7964L41.0458 19.0643L40.0458 18.487L39.0458 19.0643L40.0458 20.7964ZM73.136 39.901L74.4507 41.4082L76.5599 39.5684L74.136 38.169L73.136 39.901ZM6.83838 39.9687L5.83838 38.2366L3.39963 39.6447L5.53242 41.4835L6.83838 39.9687ZM28.5536 58.6906L27.2477 60.2054L28.7624 61.5113L30.0684 59.9966L28.5536 58.6906ZM33.7483 54.7809L32.9125 52.9639L33.7483 54.7809ZM40.0973 53.3812L40.0916 51.3812L40.0973 53.3812ZM51.6715 58.6239L50.1643 59.9386L51.479 61.4457L52.9862 60.1311L51.6715 58.6239ZM39.0458 22.5284L72.136 41.6331L74.136 38.169L41.0458 19.0643L39.0458 22.5284ZM7.83838 41.7007L41.0458 22.5284L39.0458 19.0643L5.83838 38.2366L7.83838 41.7007ZM5.53242 41.4835L27.2477 60.2054L29.8596 57.1758L8.14433 38.4539L5.53242 41.4835ZM30.0684 59.9966C31.3127 58.5533 32.8527 57.3942 34.584 56.5979L32.9125 52.9639C30.6606 53.9997 28.6574 55.5073 27.0389 57.3846L30.0684 59.9966ZM34.584 56.5979C36.3153 55.8017 38.1975 55.3867 40.1031 55.3812L40.0916 51.3812C37.6128 51.3884 35.1645 51.9281 32.9125 52.9639L34.584 56.5979ZM40.1031 55.3812C42.0087 55.3757 43.8933 55.7798 45.6292 56.5661L47.2796 52.9224C45.0217 51.8997 42.5703 51.3741 40.0916 51.3812L40.1031 55.3812ZM45.6292 56.5661C47.365 57.3523 48.9117 58.5025 50.1643 59.9386L53.1787 57.3092C51.5493 55.4412 49.5375 53.9452 47.2796 52.9224L45.6292 56.5661ZM52.9862 60.1311L74.4507 41.4082L71.8214 38.3939L50.3568 57.1167L52.9862 60.1311Z" fill="#D2D2D2" class="fill-undefined" />
  <path d="M20.2521 40.8291L18.6339 42.0044L19.6923 43.4617L21.2521 42.5611L20.2521 40.8291ZM19.0703 39.202L18.0703 37.4699L16.147 38.5804L17.4521 40.3773L19.0703 39.202ZM19.0794 39.1967L20.6973 38.0209L19.6387 36.5644L18.0794 37.4647L19.0794 39.1967ZM20.2617 40.8235L21.2618 42.5556L23.1857 41.4448L21.8796 39.6477L20.2617 40.8235ZM60.9295 39.2019L62.5477 40.3773L63.853 38.5802L61.9294 37.4698L60.9295 39.2019ZM59.7478 40.829L58.7476 42.561L60.3075 43.4617L61.366 42.0044L59.7478 40.829ZM59.7381 40.8235L58.1203 39.6476L56.8143 41.4446L58.738 42.5555L59.7381 40.8235ZM60.9204 39.1967L61.9203 37.4646L60.361 36.5645L59.3026 38.0209L60.9204 39.1967ZM51.1896 33.5786L53.0918 34.1963L53.5919 32.6563L52.1898 31.8466L51.1896 33.5786ZM51.1805 33.5733L52.1807 31.8414L50.042 30.6063L49.2785 32.955L51.1805 33.5733ZM50.558 35.5233L49.558 37.2554L51.6972 38.4905L52.4602 36.1411L50.558 35.5233ZM50.5484 35.5178L48.6463 34.8994L48.1455 36.4399L49.5483 37.2498L50.5484 35.5178ZM40.0043 27.273L42.0043 27.2726L42.004 25.2817L40.0131 25.273L40.0043 27.273ZM39.9955 27.273L39.9865 25.273L37.9958 25.2819L37.9955 27.2726L39.9955 27.273ZM39.9951 29.4304L37.9951 29.4301L37.9946 32.8946L40.995 31.1626L39.9951 29.4304ZM40 29.4276L40.9998 27.6955L40 27.1183L39.0001 27.6955L40 29.4276ZM40.0047 29.4304L39.0048 31.1625L42.0052 32.8945L42.0047 29.4301L40.0047 29.4304ZM28.8194 33.5734L30.7214 32.955L29.9579 30.6067L27.8194 31.8413L28.8194 33.5734ZM29.4515 35.5178L30.4514 37.2499L31.8543 36.44L31.3535 34.8995L29.4515 35.5178ZM28.8103 33.5786L27.8103 31.8466L26.4079 32.6562L26.908 34.1964L28.8103 33.5786ZM29.4418 35.5234L27.5396 36.1411L28.3025 38.4905L30.4418 37.2555L29.4418 35.5234ZM21.8703 39.6538L20.6885 38.0267L17.4521 40.3773L18.6339 42.0044L21.8703 39.6538ZM18.0794 37.4647L18.0703 37.4699L20.0703 40.934L20.0794 40.9288L18.0794 37.4647ZM17.4616 40.3726L18.6439 41.9993L21.8796 39.6477L20.6973 38.0209L17.4616 40.3726ZM21.2521 42.5611L21.2618 42.5556L19.2617 39.0915L19.2521 39.097L21.2521 42.5611ZM59.3113 38.0266L58.1295 39.6537L61.366 42.0044L62.5477 40.3773L59.3113 38.0266ZM58.738 42.5555L58.7476 42.561L60.7479 39.0971L60.7382 39.0915L58.738 42.5555ZM61.356 41.9993L62.5383 40.3725L59.3026 38.0209L58.1203 39.6476L61.356 41.9993ZM61.9294 37.4698L61.9203 37.4646L59.9205 40.9288L59.9296 40.9341L61.9294 37.4698ZM52.1898 31.8466L52.1807 31.8414L50.1803 35.3053L50.1894 35.3105L52.1898 31.8466ZM49.2874 32.9608L48.6558 34.9056L52.4602 36.1411L53.0918 34.1963L49.2874 32.9608ZM49.5483 37.2498L49.558 37.2554L51.5581 33.7913L51.5484 33.7857L49.5483 37.2498ZM52.4504 36.1361L53.0825 34.1917L49.2785 32.955L48.6463 34.8994L52.4504 36.1361ZM40.0131 25.273C40.0042 25.2729 39.9954 25.2729 39.9865 25.273L40.0044 29.2729C40.0015 29.273 39.9985 29.273 39.9956 29.2729L40.0131 25.273ZM41.9951 29.4307L41.9955 27.2733L37.9955 27.2726L37.9951 29.4301L41.9951 29.4307ZM40.995 31.1626L40.9998 31.1598L39.0001 27.6955L38.9953 27.6983L40.995 31.1626ZM39.0001 31.1598L39.0048 31.1625L41.0046 27.6982L40.9998 27.6955L39.0001 31.1598ZM38.0043 27.2733L38.0047 29.4307L42.0047 29.4301L42.0043 27.2726L38.0043 27.2733ZM26.9173 34.1917L27.5495 36.1362L31.3535 34.8995L30.7214 32.955L26.9173 34.1917ZM27.8194 31.8413L27.8103 31.8466L29.8102 35.3107L29.8193 35.3054L27.8194 31.8413ZM31.344 34.9057L30.7125 32.9609L26.908 34.1964L27.5396 36.1411L31.344 34.9057ZM30.4418 37.2555L30.4514 37.2499L28.4515 33.7857L28.4418 33.7913L30.4418 37.2555Z" fill="#606060" class="fill-grey" />
  <g clip-path="url(#clip0)">
    <path d="M40 36V48" stroke="#D33131" stroke-width="4" stroke-linecap="square" class="stroke-red" />
  </g>
  <defs>
    <clipPath id="clip0">
      <rect width="4.00098" height="82" fill="white" transform="translate(37.9977 28)" class="fill-white" />
    </clipPath>
  </defs>
</svg>