<svg viewBox="0 0 80 80" fill="none">
  <path fill-rule="evenodd" clip-rule="evenodd" d="M62.6274 21.3726L40 12L17.3726 21.3726L8 44L17.1127 66H62.8873L72 44L62.6274 21.3726Z" fill="#F4F4F4" class="fill-white" />
  <path d="M40 12L40.7654 10.1522L40 9.83522L39.2346 10.1522L40 12ZM62.6274 21.3726L64.4752 20.6072L64.1582 19.8418L63.3928 19.5248L62.6274 21.3726ZM17.3726 21.3726L16.6072 19.5248L15.8418 19.8418L15.5248 20.6072L17.3726 21.3726ZM8 44L6.15224 43.2346L5.83522 44L6.15224 44.7654L8 44ZM17.1127 66L15.2649 66.7654L15.7763 68H17.1127V66ZM62.8873 66V68H64.2237L64.7351 66.7654L62.8873 66ZM72 44L73.8478 44.7654L74.1648 44L73.8478 43.2346L72 44ZM39.2346 13.8478L61.8621 23.2203L63.3928 19.5248L40.7654 10.1522L39.2346 13.8478ZM18.1379 23.2203L40.7654 13.8478L39.2346 10.1522L16.6072 19.5248L18.1379 23.2203ZM9.84776 44.7654L19.2203 22.1379L15.5248 20.6072L6.15224 43.2346L9.84776 44.7654ZM18.9605 65.2346L9.84776 43.2346L6.15224 44.7654L15.2649 66.7654L18.9605 65.2346ZM17.1127 68H62.8873V64H17.1127V68ZM70.1522 43.2346L61.0395 65.2346L64.7351 66.7654L73.8478 44.7654L70.1522 43.2346ZM60.7797 22.1379L70.1522 44.7654L73.8478 43.2346L64.4752 20.6072L60.7797 22.1379Z" fill="#D2D2D2" class="fill-undefined" />
  <path d="M19.7519 32.3064L20.7515 30.5741L18.7768 29.4347L17.9042 31.5409L19.7519 32.3064ZM19.7498 32.3115L17.9021 31.546L17.2309 33.1661L18.7494 34.0433L19.7498 32.3115ZM21.4991 33.3145L23.3469 34.0798L24.0182 32.459L22.4987 31.5822L21.4991 33.3145ZM21.4966 33.3206L20.4962 35.0524L22.4715 36.1935L23.3444 34.0859L21.4966 33.3206ZM15.3296 43.9973L15.3291 41.9973L13.3217 41.9979L13.3296 44.0052L15.3296 43.9973ZM15.3296 44.0022L13.3296 44.0121L13.3395 46.0017L15.3291 46.0022L15.3296 44.0022ZM17.3296 43.9968L19.3296 43.984L19.3168 41.9963L17.3291 41.9968L17.3296 43.9968ZM17.3297 44.0027L17.3291 46.0027L19.3465 46.0032L19.3296 43.9859L17.3297 44.0027ZM19.7647 55.6794L18.7642 53.9477L17.2459 54.8248L17.9169 56.4448L19.7647 55.6794ZM19.7668 55.6846L17.919 56.4499L18.7915 58.5564L20.7663 57.4169L19.7668 55.6846ZM21.5115 54.6703L23.3593 53.9052L22.4865 51.7973L20.511 52.9385L21.5115 54.6703ZM21.514 54.6764L22.5135 56.4087L24.033 55.532L23.3618 53.9113L21.514 54.6764ZM60.2332 55.6846L59.2336 57.4169L61.2091 58.5568L62.0812 56.4493L60.2332 55.6846ZM58.486 54.6764L56.6381 53.9112L55.9669 55.532L57.4864 56.4087L58.486 54.6764ZM58.4885 54.6703L59.4889 52.9385L57.5135 51.7974L56.6407 53.9051L58.4885 54.6703ZM60.2353 55.6794L62.0833 56.4442L62.7536 54.8245L61.2357 53.9477L60.2353 55.6794ZM64.6704 44.0022L64.6709 46.0022L66.6609 46.0017L66.6703 44.0116L64.6704 44.0022ZM64.6704 43.9973L66.6703 44.0068L66.6799 41.9979L64.6709 41.9973L64.6704 43.9973ZM62.6703 44.0027L60.6704 43.9871L60.6546 46.0032L62.6708 46.0027L62.6703 44.0027ZM62.6703 43.9968L62.6709 41.9968L60.682 41.9963L60.6704 43.9851L62.6703 43.9968ZM60.2501 32.3115L61.2506 34.0433L62.7682 33.1666L62.0982 31.547L60.2501 32.3115ZM60.248 32.3064L62.0961 31.5418L61.2242 29.4341L59.2485 30.5741L60.248 32.3064ZM58.5033 33.3206L56.6559 34.0867L57.5293 36.1931L59.5038 35.0524L58.5033 33.3206ZM58.5008 33.3145L57.5013 31.5822L55.9811 32.4593L56.6533 34.0806L58.5008 33.3145ZM51.6994 23.7412L53.4317 24.7408L54.5711 22.7662L52.465 21.8936L51.6994 23.7412ZM51.6943 23.7391L52.4599 21.8914L50.8398 21.2201L49.9625 22.7387L51.6943 23.7391ZM50.6913 25.4884L49.9261 27.3363L51.5469 28.0074L52.4236 26.488L50.6913 25.4884ZM50.6852 25.4859L48.9534 24.4855L47.8122 26.4609L49.92 27.3337L50.6852 25.4859ZM40.0024 19.3071L42.0024 19.3066L42.0019 17.308L40.0033 17.3071L40.0024 19.3071ZM39.9976 19.3071L39.9965 17.3071L37.9981 17.3082L37.9976 19.3066L39.9976 19.3071ZM39.997 21.3071L37.997 21.3066L37.9965 23.3091L39.999 23.3071L39.997 21.3071ZM40.0029 21.3071L40.001 23.3071L42.0034 23.3091L42.0029 21.3066L40.0029 21.3071ZM28.3057 23.7391L30.0375 22.7387L29.1603 21.2203L27.5403 21.8914L28.3057 23.7391ZM29.3148 25.4859L30.0801 27.3337L32.1877 26.4608L31.0466 24.4855L29.3148 25.4859ZM28.3005 23.7412L27.5351 21.8935L25.4288 22.766L26.5682 24.7408L28.3005 23.7412ZM29.3087 25.4884L27.5764 26.488L28.4532 28.0075L30.074 27.3362L29.3087 25.4884ZM17.9042 31.5409L17.9021 31.546L21.5975 33.077L21.5997 33.0719L17.9042 31.5409ZM18.7524 34.0387L20.4996 35.0468L22.4987 31.5822L20.7515 30.5741L18.7524 34.0387ZM23.3444 34.0859L23.3469 34.0798L19.6514 32.5492L19.6488 32.5553L23.3444 34.0859ZM22.4971 31.5888L20.7503 30.5797L18.7494 34.0433L20.4962 35.0524L22.4971 31.5888ZM13.3296 44.0052C13.3296 44.0075 13.3296 44.0098 13.3296 44.0121L17.3296 43.9923C17.3296 43.9913 17.3296 43.9904 17.3296 43.9895L13.3296 44.0052ZM15.3301 45.9973L17.3301 45.9968L17.3291 41.9968L15.3291 41.9973L15.3301 45.9973ZM19.3296 43.9859C19.3296 43.9853 19.3296 43.9846 19.3296 43.984L15.3297 44.0097C15.3297 44.0129 15.3297 44.0162 15.3297 44.0195L19.3296 43.9859ZM17.3302 42.0027L15.3301 42.0022L15.3291 46.0022L17.3291 46.0027L17.3302 42.0027ZM17.9169 56.4448L17.919 56.4499L21.6146 54.9193L21.6124 54.9141L17.9169 56.4448ZM20.7651 57.4112L22.5119 56.4021L20.511 52.9385L18.7642 53.9477L20.7651 57.4112ZM23.3618 53.9113L23.3593 53.9052L19.6636 55.4355L19.6662 55.4416L23.3618 53.9113ZM20.5144 52.9441L18.7672 53.9523L20.7663 57.4169L22.5135 56.4087L20.5144 52.9441ZM61.2327 53.9523L59.4855 52.9441L57.4864 56.4087L59.2336 57.4169L61.2327 53.9523ZM56.6407 53.9051L56.6381 53.9112L60.3338 55.4417L60.3363 55.4355L56.6407 53.9051ZM57.488 56.4021L59.2348 57.4112L61.2357 53.9477L59.4889 52.9385L57.488 56.4021ZM62.0812 56.4493L62.0833 56.4442L58.3873 54.9147L58.3852 54.9198L62.0812 56.4493ZM66.6703 44.0116C66.6703 44.0095 66.6703 44.0075 66.6703 44.0069C66.6704 44.0059 66.6704 44.0062 66.6703 44.0068L62.6704 43.9879C62.6704 43.9901 62.6704 43.9921 62.6704 43.9927C62.6704 43.9937 62.6704 43.9933 62.6704 43.9927L66.6703 44.0116ZM64.6698 42.0022L62.6698 42.0027L62.6708 46.0027L64.6709 46.0022L64.6698 42.0022ZM60.6704 43.9851C60.6704 43.9848 60.6704 43.9848 60.6704 43.9871L64.6702 44.0183C64.6703 44.0167 64.6703 44.0128 64.6703 44.0085L60.6704 43.9851ZM62.6698 45.9968L64.6699 45.9973L64.6709 41.9973L62.6709 41.9968L62.6698 45.9968ZM62.0982 31.547L62.0961 31.5418L58.3999 33.0709L58.402 33.076L62.0982 31.547ZM59.2497 30.5797L57.5029 31.5888L59.5038 35.0524L61.2506 34.0433L59.2497 30.5797ZM56.6533 34.0806L56.6559 34.0867L60.3508 32.5546L60.3483 32.5485L56.6533 34.0806ZM59.5004 35.0468L61.2476 34.0387L59.2485 30.5741L57.5013 31.5822L59.5004 35.0468ZM52.465 21.8936L52.4599 21.8914L50.9287 25.5868L50.9338 25.5889L52.465 21.8936ZM49.9671 22.7417L48.959 24.4889L52.4236 26.488L53.4317 24.7408L49.9671 22.7417ZM49.92 27.3337L49.9261 27.3363L51.4565 23.6406L51.4504 23.6381L49.92 27.3337ZM52.417 26.4864L53.4261 24.7396L49.9625 22.7387L48.9534 24.4855L52.417 26.4864ZM40.0033 17.3071C40.0012 17.3071 39.9989 17.3071 39.9965 17.3071L39.9986 21.3071C39.9994 21.3071 40.0004 21.3071 40.0015 21.3071L40.0033 17.3071ZM41.997 21.3076L41.9976 19.3076L37.9976 19.3066L37.997 21.3066L41.997 21.3076ZM39.999 23.3071C39.9997 23.3071 40.0003 23.3071 40.001 23.3071L40.0049 19.3071C40.0016 19.3071 39.9984 19.3071 39.9951 19.3071L39.999 23.3071ZM38.0024 19.3076L38.0029 21.3076L42.0029 21.3066L42.0024 19.3066L38.0024 19.3076ZM26.5739 24.7396L27.583 26.4864L31.0466 24.4855L30.0375 22.7387L26.5739 24.7396ZM27.5403 21.8914L27.5351 21.8935L29.0659 25.589L29.0711 25.5869L27.5403 21.8914ZM31.041 24.4889L30.0328 22.7417L26.5682 24.7408L27.5764 26.488L31.041 24.4889ZM30.074 27.3362L30.0801 27.3337L28.5495 23.6381L28.5434 23.6407L30.074 27.3362Z" fill="#606060" class="fill-grey" />
  <path d="M40 44L41 42.2679L40 41.6906L39 42.2679L40 44ZM45.1961 47H47.1961V45.8453L46.1961 45.2679L45.1961 47ZM34.8038 47L33.8038 45.2679L32.8038 45.8453V47H34.8038ZM34.8038 53H32.8038V54.1547L33.8038 54.732L34.8038 53ZM40 56L39 57.732L40 58.3094L41 57.732L40 56ZM45.1961 53L46.1961 54.732L47.1961 54.1547V53H45.1961ZM38 44V46H42V44H38ZM42 32V30H38V32H42ZM39 45.7321L44.1961 48.732L46.1961 45.2679L41 42.2679L39 45.7321ZM35.8038 48.732L41 45.7321L39 42.2679L33.8038 45.2679L35.8038 48.732ZM36.8038 53V47H32.8038V53H36.8038ZM41 54.268L35.8038 51.268L33.8038 54.732L39 57.732L41 54.268ZM44.1961 51.268L39 54.268L41 57.732L46.1961 54.732L44.1961 51.268ZM43.1961 47V53H47.1961V47H43.1961ZM42 44V32H38V44H42Z" fill="#D33131" class="fill-red" />
</svg>