<svg viewBox="0 0 80 80" fill="none">
  <path fill-rule="evenodd" clip-rule="evenodd" d="M25.8564 10.0557L17.8564 14.0557L17.8564 43.6745L12 47.0557L12 63.0557L25.8564 71.0557L39.7128 63.0557V47.0557L33.8564 43.6745L33.8564 14.0557L25.8564 10.0557Z" fill="#F4F4F4" class="fill-white" />
  <path d="M17.8564 14.0557L16.962 12.2668L15.8564 12.8196V14.0557H17.8564ZM25.8564 10.0557L26.7508 8.26681L25.8564 7.8196L24.962 8.26681L25.8564 10.0557ZM17.8564 43.6745L18.8564 45.4065L19.8564 44.8292V43.6745H17.8564ZM12 47.0557L11 45.3236L10 45.901V47.0557H12ZM12 63.0557H10V64.2104L11 64.7877L12 63.0557ZM25.8564 71.0557L24.8564 72.7877L25.8564 73.3651L26.8564 72.7877L25.8564 71.0557ZM39.7128 63.0557L40.7128 64.7877L41.7128 64.2104V63.0557H39.7128ZM39.7128 47.0557H41.7128V45.901L40.7128 45.3236L39.7128 47.0557ZM33.8564 43.6745H31.8564V44.8292L32.8564 45.4065L33.8564 43.6745ZM33.8564 14.0557H35.8564V12.8196L34.7508 12.2668L33.8564 14.0557ZM18.7508 15.8445L26.7508 11.8445L24.962 8.26681L16.962 12.2668L18.7508 15.8445ZM19.8564 43.6745L19.8564 14.0557H15.8564L15.8564 43.6745H19.8564ZM13 48.7877L18.8564 45.4065L16.8564 41.9424L11 45.3236L13 48.7877ZM14 63.0557L14 47.0557H10L10 63.0557H14ZM26.8564 69.3236L13 61.3236L11 64.7877L24.8564 72.7877L26.8564 69.3236ZM38.7128 61.3236L24.8564 69.3236L26.8564 72.7877L40.7128 64.7877L38.7128 61.3236ZM37.7128 47.0557V63.0557H41.7128V47.0557H37.7128ZM32.8564 45.4065L38.7128 48.7877L40.7128 45.3236L34.8564 41.9424L32.8564 45.4065ZM31.8564 14.0557L31.8564 43.6745L35.8564 43.6745L35.8564 14.0557H31.8564ZM24.962 11.8445L32.962 15.8445L34.7508 12.2668L26.7508 8.26681L24.962 11.8445Z" fill="#F4F4F4" class="fill-white" />
  <path fill-rule="evenodd" clip-rule="evenodd" d="M26.0395 16.8184C27.1441 16.8184 28.0395 17.7138 28.0395 18.8184L28.0395 48.2937L32.8252 51.0566V59.0566L25.897 63.0566L18.9687 59.0566V51.0566L24.0395 48.129L24.0395 18.8184C24.0395 17.7138 24.935 16.8184 26.0395 16.8184Z" fill="#D33131" class="fill-red" />
  <path d="M55 11L58.3843 15.9724L64.382 15.5181L62.6044 21.2643L66.6991 25.6703L61.0983 27.8632L60.2066 33.8116L55 30.8L49.7934 33.8116L48.9017 27.8632L43.3009 25.6703L47.3956 21.2643L45.618 15.5181L51.6157 15.9724L55 11Z" fill="#FFC200" stroke="#FFC200" stroke-width="4" stroke-linecap="square" class="fill-yellow stroke-yellow" />
</svg>