<svg viewBox="0 0 80 80" fill="none">
  <path d="M50 23H62.4286L74 39H50V23Z" fill="#84D3FF" stroke="#84D3FF" stroke-width="4" stroke-linecap="square" class="fill-blue stroke-blue" />
  <path fill-rule="evenodd" clip-rule="evenodd" d="M74 39H50V55H54.8284L56.3431 51.3431L62 49L67.6569 51.3431L69.1716 55H74V39Z" fill="#FFC200" class="fill-yellow" />
  <path d="M50 39V37H48V39H50ZM74 39H76V37H74V39ZM50 55H48V57H50V55ZM54.8284 55V57H56.1648L56.6762 55.7654L54.8284 55ZM56.3431 51.3431L55.5778 49.4954L54.8124 49.8124L54.4954 50.5778L56.3431 51.3431ZM62 49L62.7654 47.1522L62 46.8352L61.2346 47.1522L62 49ZM67.6569 51.3431L69.5046 50.5778L69.1876 49.8124L68.4222 49.4954L67.6569 51.3431ZM69.1716 55L67.3238 55.7654L67.8352 57H69.1716V55ZM74 55V57H76V55H74ZM50 41H74V37H50V41ZM52 55V39H48V55H52ZM54.8284 53H50V57H54.8284V53ZM56.6762 55.7654L58.1909 52.1085L54.4954 50.5778L52.9807 54.2346L56.6762 55.7654ZM57.1085 53.1909L62.7654 50.8478L61.2346 47.1522L55.5778 49.4954L57.1085 53.1909ZM61.2346 50.8478L66.8915 53.1909L68.4222 49.4954L62.7654 47.1522L61.2346 50.8478ZM65.8091 52.1085L67.3238 55.7654L71.0193 54.2346L69.5046 50.5778L65.8091 52.1085ZM74 53H69.1716V57H74V53ZM72 39V55H76V39H72Z" fill="#FFC200" class="fill-yellow" />
  <path d="M62 49L67.6569 51.3431L70 57L67.6569 62.6569L62 65L56.3431 62.6569L54 57L56.3431 51.3431L62 49Z" fill="black" stroke="black" stroke-width="4" stroke-linecap="square" class="fill-grey stroke-grey" />
  <path fill-rule="evenodd" clip-rule="evenodd" d="M50 15H6V55H11.8284L13.3431 51.3431L19 49L24.6569 51.3431L26.1716 55H50V15Z" fill="#FF9100" class="fill-orange" />
  <path d="M6 15V13H4V15H6ZM50 15H52V13H50V15ZM6 55H4V57H6V55ZM11.8284 55V57H13.1648L13.6762 55.7654L11.8284 55ZM13.3431 51.3431L12.5778 49.4954L11.8124 49.8124L11.4954 50.5778L13.3431 51.3431ZM19 49L19.7654 47.1522L19 46.8352L18.2346 47.1522L19 49ZM24.6569 51.3431L26.5046 50.5778L26.1876 49.8124L25.4222 49.4954L24.6569 51.3431ZM26.1716 55L24.3238 55.7654L24.8352 57H26.1716V55ZM50 55V57H52V55H50ZM6 17H50V13H6V17ZM8 55V15H4V55H8ZM11.8284 53H6V57H11.8284V53ZM13.6762 55.7654L15.1909 52.1085L11.4954 50.5778L9.98067 54.2346L13.6762 55.7654ZM14.1085 53.1909L19.7654 50.8478L18.2346 47.1522L12.5778 49.4954L14.1085 53.1909ZM18.2346 50.8478L23.8915 53.1909L25.4222 49.4954L19.7654 47.1522L18.2346 50.8478ZM22.8091 52.1085L24.3238 55.7654L28.0193 54.2346L26.5046 50.5778L22.8091 52.1085ZM50 53H26.1716V57H50V53ZM48 15V55H52V15H48Z" fill="#FF9100" class="fill-orange" />
  <path d="M19 49L24.6569 51.3431L27 57L24.6569 62.6569L19 65L13.3431 62.6569L11 57L13.3431 51.3431L19 49Z" fill="black" stroke="black" stroke-width="4" stroke-linecap="square" class="fill-grey stroke-grey" />
</svg>