<svg viewBox="0 0 80 80" fill="none">
  <rect x="12" y="22" width="56" height="40" fill="#7B61FF" stroke="#7B61FF" stroke-width="4" stroke-linecap="square" class="fill-purple stroke-purple" />
  <path d="M23.5 29.5L40 29L56.5 29.5L57 42L56.5 54.5L40 55L23.5 54.5L23 42L23.5 29.5Z" fill="#84D3FF" stroke="#84D3FF" stroke-width="4" stroke-linecap="square" class="fill-blue stroke-blue" />
  <path fill-rule="evenodd" clip-rule="evenodd" d="M29.4142 8.58579C28.6332 7.80474 27.3668 7.80474 26.5858 8.58579C25.8047 9.36684 25.8047 10.6332 26.5858 11.4142L35.1716 20H44.8284L53.4142 11.4142C54.1952 10.6332 54.1952 9.36684 53.4142 8.58579C52.6331 7.80474 51.3668 7.80474 50.5858 8.58579L40 19.1716L29.4142 8.58579ZM57.9581 60H58.0448C58.016 59.9994 57.9871 59.9994 57.9581 60ZM56.4384 64H60.5615L61.9403 69.5149C62.2082 70.5865 61.5566 71.6724 60.4851 71.9403C59.4135 72.2082 58.3276 71.5567 58.0597 70.4851L56.4384 64ZM20.9551 60C20.9839 59.9994 21.0128 59.9994 21.0418 60H20.9551ZM18.4384 64H22.5615L20.9403 70.4851C20.6724 71.5567 19.5865 72.2082 18.5149 71.9403C17.4433 71.6724 16.7918 70.5865 17.0597 69.5149L18.4384 64Z" fill="#252525" class="fill-grey" />
</svg>