<svg viewBox="0 0 80 80" fill="none">
  <rect x="40" y="6" width="48" height="48" transform="rotate(45 40 6)" fill="#FFC200" stroke="#FFC200" stroke-width="4" stroke-linecap="square" class="fill-yellow stroke-yellow" />
  <path d="M35.2856 43.7142L35.2856 45.7142L31.2856 45.7142L31.2856 43.7142L35.2856 43.7142ZM33.2856 26L31.2856 26L31.2856 24L33.2856 24L33.2856 26ZM48.9999 26L48.9999 24L50.9999 24L50.9999 26L48.9999 26ZM48.9999 40L50.9999 40L48.9999 40ZM50.9999 50L50.9999 52L46.9999 52L46.9999 50L50.9999 50ZM31.2856 43.7142L31.2856 26L35.2856 26L35.2856 43.7142L31.2856 43.7142ZM33.2856 24L48.9999 24L48.9999 28L33.2856 28L33.2856 24ZM50.9999 26L50.9999 40L46.9999 40L46.9999 26L50.9999 26ZM50.9999 40L50.9999 47L46.9999 47L46.9999 40L50.9999 40ZM50.9999 47L50.9999 50L46.9999 50L46.9999 47L50.9999 47Z" fill="#252525" class="fill-grey" />
  <path d="M43.5714 43.7143L23 43.7143L25.5714 46.2857L33.2857 54L41 46.2857L43.5714 43.7143Z" fill="#252525" stroke="#252525" stroke-width="2" stroke-linecap="square" class="fill-grey stroke-grey" />
</svg>