<svg viewBox="0 0 80 80" fill="none">
  <path fill-rule="evenodd" clip-rule="evenodd" d="M25.5385 39.7738L19 44.9331L12.4615 39.7738L14.959 31.4258L23.041 31.4258L25.5385 39.7738ZM8 56.1331L8 57.9998H21V51.9995L26.8318 49.7908L19 46.802L8 50.9998V56.1331ZM72 58L59 58L59 51.9995L53.1685 49.7909L61 46.8023L72 51V56.1333V58ZM54.4615 39.774L61 44.9333L67.5385 39.774L65.041 31.426L56.959 31.426L54.4615 39.774Z" fill="#FFC200" class="fill-yellow" />
  <path d="M19 44.9331L17.7611 46.5032L19 47.4808L20.2389 46.5032L19 44.9331ZM25.5385 39.7738L26.7774 41.3438L27.844 40.5022L27.4546 39.2005L25.5385 39.7738ZM12.4615 39.7738L10.5454 39.2005L10.156 40.5022L11.2226 41.3438L12.4615 39.7738ZM14.959 31.4258V29.4258H13.4697L13.0429 30.8525L14.959 31.4258ZM23.041 31.4258L24.9571 30.8525L24.5303 29.4258H23.041V31.4258ZM8 57.9998H6V59.9998H8V57.9998ZM21 57.9998L21 59.9998H23L23 57.9998H21ZM21 51.9995L20.2916 50.1292L19 50.6184V51.9995H21ZM26.8318 49.7908L27.5402 51.6611L32.4599 49.7978L27.5449 47.9222L26.8318 49.7908ZM19 46.802L19.7131 44.9335L19 44.6614L18.2869 44.9335L19 46.802ZM8 50.9998L7.28693 49.1312L6 49.6223V50.9998H8ZM59 58H57V60H59V58ZM72 58V60H74V58H72ZM59 51.9995H61V50.6184L59.7084 50.1292L59 51.9995ZM53.1685 49.7909L52.4554 47.9223L47.5404 49.7979L52.4601 51.6612L53.1685 49.7909ZM61 46.8023L61.7131 44.9337L61 44.6616L60.2869 44.9337L61 46.8023ZM72 51H74V49.6225L72.7131 49.1314L72 51ZM61 44.9333L59.7611 46.5034L61 47.481L62.2389 46.5034L61 44.9333ZM54.4615 39.774L52.5454 39.2007L52.156 40.5024L53.2226 41.3441L54.4615 39.774ZM67.5385 39.774L68.7774 41.3441L69.844 40.5024L69.4546 39.2007L67.5385 39.774ZM65.041 31.426L66.9571 30.8528L66.5303 29.426H65.041V31.426ZM56.959 31.426V29.426H55.4697L55.0429 30.8528L56.959 31.426ZM20.2389 46.5032L26.7774 41.3438L24.2996 38.2037L17.7611 43.363L20.2389 46.5032ZM11.2226 41.3438L17.7611 46.5032L20.2389 43.363L13.7004 38.2037L11.2226 41.3438ZM13.0429 30.8525L10.5454 39.2005L14.3776 40.347L16.8751 31.999L13.0429 30.8525ZM23.041 29.4258L14.959 29.4258V33.4258H23.041V29.4258ZM27.4546 39.2005L24.9571 30.8525L21.1249 31.999L23.6224 40.347L27.4546 39.2005ZM10 57.9998V56.1331H6L6 57.9998H10ZM21 55.9998H8L8 59.9998H21L21 55.9998ZM19 51.9995V57.9998H23V51.9995H19ZM26.1234 47.9204L20.2916 50.1292L21.7084 53.8699L27.5402 51.6611L26.1234 47.9204ZM18.2869 48.6706L26.1188 51.6593L27.5449 47.9222L19.7131 44.9335L18.2869 48.6706ZM8.71307 52.8683L19.7131 48.6706L18.2869 44.9335L7.28693 49.1312L8.71307 52.8683ZM10 56.1331V50.9998H6V56.1331H10ZM59 60L72 60V56L59 56V60ZM57 51.9995L57 58H61L61 51.9995H57ZM52.4601 51.6612L58.2916 53.8699L59.7084 50.1292L53.8768 47.9205L52.4601 51.6612ZM60.2869 44.9337L52.4554 47.9223L53.8815 51.6594L61.7131 48.6708L60.2869 44.9337ZM72.7131 49.1314L61.7131 44.9337L60.2869 48.6708L71.2869 52.8685L72.7131 49.1314ZM74 56.1333V51H70V56.1333H74ZM74 58V56.1333H70V58H74ZM62.2389 43.3633L55.7004 38.2039L53.2226 41.3441L59.7611 46.5034L62.2389 43.3633ZM66.2996 38.2039L59.7611 43.3633L62.2389 46.5034L68.7774 41.3441L66.2996 38.2039ZM63.1249 31.9992L65.6224 40.3472L69.4546 39.2007L66.9571 30.8528L63.1249 31.9992ZM56.959 33.426H65.041V29.426L56.959 29.426V33.426ZM56.3776 40.3472L58.8751 31.9992L55.0429 30.8528L52.5454 39.2007L56.3776 40.3472Z" fill="#FFC200" class="fill-yellow" />
  <path d="M59 63.9998L21 63.9998L21 60.7998V51.9998L40 44.8037L59 51.9998L59 60.7998V63.9998Z" fill="#FF9100" stroke="#FF9100" stroke-width="4" stroke-linecap="square" class="fill-orange stroke-orange" />
  <path d="M40 41.6001L51.2938 32.7555L46.9799 18.4447L33.0201 18.4447L28.7062 32.7555L40 41.6001Z" fill="#FF9100" stroke="#FF9100" stroke-width="4" stroke-linecap="square" class="fill-orange stroke-orange" />
</svg>