<svg viewBox="0 0 80 80" fill="none">
  <path fill-rule="evenodd" clip-rule="evenodd" d="M17.1463 49.1754H4.14648V31.1754H17.1467L32.1465 16.1756L32.1465 21.1736V58.1736V64.1756L17.1463 49.1754Z" fill="#D33131" class="fill-red" />
  <path d="M17.1463 49.1754L18.5605 47.7612L17.9747 47.1754H17.1463V49.1754ZM4.14648 49.1754H2.14648V51.1754H4.14648V49.1754ZM4.14648 31.1754V29.1754H2.14648V31.1754H4.14648ZM17.1467 31.1754V33.1754H17.9751L18.5609 32.5896L17.1467 31.1754ZM32.1465 16.1756L34.1465 16.1756L34.1465 11.3472L30.7323 14.7614L32.1465 16.1756ZM32.1465 21.1736H34.1465V21.1736L32.1465 21.1736ZM32.1465 64.1756L30.7323 65.5898L34.1465 69.004V64.1756H32.1465ZM17.1463 47.1754H4.14648V51.1754H17.1463V47.1754ZM6.14648 49.1754V31.1754H2.14648V49.1754H6.14648ZM4.14648 33.1754H17.1467V29.1754H4.14648V33.1754ZM18.5609 32.5896L33.5607 17.5898L30.7323 14.7614L15.7325 29.7612L18.5609 32.5896ZM30.1465 16.1756L30.1465 21.1736L34.1465 21.1736L34.1465 16.1756L30.1465 16.1756ZM30.1465 21.1736V58.1736H34.1465V21.1736H30.1465ZM30.1465 58.1736V64.1756H34.1465V58.1736H30.1465ZM33.5607 62.7614L18.5605 47.7612L15.7321 50.5896L30.7323 65.5898L33.5607 62.7614Z" fill="#D33131" class="fill-red" />
  <path d="M42.6362 46.3181L48.4216 40.5326L49.5787 39.3756L55.3642 33.5901" stroke="#FF9100" stroke-width="4" stroke-linecap="square" class="stroke-orange" />
  <path d="M55.3638 46.3181L49.5784 40.5326L48.4213 39.3756L42.6358 33.5901" stroke="#FF9100" stroke-width="4" stroke-linecap="square" class="stroke-orange" />
</svg>