<svg viewBox="0 0 80 80" fill="none">
  <path d="M13 19.5L14.4142 20.9142V20.9142L13 19.5ZM3.08579 26.5857L1.67157 28L4.5 30.8284L5.91421 29.4142L3.08579 26.5857ZM16 16.5L17.4142 15.0858L16 13.6716L14.5857 15.0858L16 16.5ZM15 17.5L13.5857 16.0858V16.0858L15 17.5ZM14.5 18L15.9142 19.4142L15.9142 19.4142L14.5 18ZM13.5 19L12.0857 17.5858V17.5858L13.5 19ZM26.0857 29.4142L27.4999 30.8284L30.3283 28L28.9141 26.5857L26.0857 29.4142ZM37 19.5L38.4142 20.9142V20.9142L37 19.5ZM27.0858 26.5857L25.6716 28L28.5 30.8284L29.9142 29.4142L27.0858 26.5857ZM40 16.5L41.4142 15.0858L40 13.6716L38.5857 15.0858L40 16.5ZM39 17.5L37.5857 16.0858V16.0858L39 17.5ZM38.5 18L39.9142 19.4142V19.4142L38.5 18ZM37.5 19L36.0857 17.5858V17.5858L37.5 19ZM50.0857 29.4142L51.4999 30.8284L54.3283 28L52.9141 26.5857L50.0857 29.4142ZM61 19.5L62.4142 20.9142V20.9142L61 19.5ZM51.0858 26.5857L49.6716 28L52.5 30.8284L53.9142 29.4142L51.0858 26.5857ZM64 16.5L65.4142 15.0858L64 13.6716L62.5857 15.0858L64 16.5ZM63 17.5L61.5857 16.0858V16.0858L63 17.5ZM62.5 18L63.9142 19.4142V19.4142L62.5 18ZM61.5 19L60.0857 17.5858V17.5858L61.5 19ZM74.0857 29.4142L75.4999 30.8284L78.3284 28L76.9141 26.5857L74.0857 29.4142ZM11.5857 18.0858L3.08579 26.5857L5.91421 29.4142L14.4142 20.9142L11.5857 18.0858ZM14.5857 15.0858L13.5857 16.0858L16.4142 18.9142L17.4142 17.9142L14.5857 15.0858ZM13.5857 16.0858L13.0857 16.5858L15.9142 19.4142L16.4142 18.9142L13.5857 16.0858ZM13.0857 16.5858L12.5857 17.0858L15.4142 19.9142L15.9142 19.4142L13.0857 16.5858ZM12.5857 17.0858L12.0857 17.5858L14.9142 20.4142L15.4142 19.9142L12.5857 17.0858ZM12.0857 17.5858L11.5857 18.0858L14.4142 20.9142L14.9142 20.4142L12.0857 17.5858ZM28.9141 26.5857L17.4142 15.0858L14.5857 17.9142L26.0857 29.4142L28.9141 26.5857ZM35.5857 18.0858L27.0858 26.5857L29.9142 29.4142L38.4142 20.9142L35.5857 18.0858ZM38.5857 15.0858L37.5857 16.0858L40.4142 18.9142L41.4142 17.9142L38.5857 15.0858ZM37.5857 16.0858L37.0857 16.5858L39.9142 19.4142L40.4142 18.9142L37.5857 16.0858ZM37.0857 16.5858L36.5857 17.0858L39.4142 19.9142L39.9142 19.4142L37.0857 16.5858ZM36.5857 17.0858L36.0857 17.5858L38.9142 20.4142L39.4142 19.9142L36.5857 17.0858ZM36.0857 17.5858L35.5857 18.0858L38.4142 20.9142L38.9142 20.4142L36.0857 17.5858ZM52.9141 26.5857L41.4142 15.0858L38.5857 17.9142L50.0857 29.4142L52.9141 26.5857ZM59.5857 18.0858L51.0858 26.5857L53.9142 29.4142L62.4142 20.9142L59.5857 18.0858ZM62.5857 15.0858L61.5857 16.0858L64.4142 18.9142L65.4142 17.9142L62.5857 15.0858ZM61.5857 16.0858L61.0857 16.5858L63.9142 19.4142L64.4142 18.9142L61.5857 16.0858ZM61.0857 16.5858L60.5857 17.0858L63.4142 19.9142L63.9142 19.4142L61.0857 16.5858ZM60.5857 17.0858L60.0857 17.5858L62.9142 20.4142L63.4142 19.9142L60.5857 17.0858ZM60.0857 17.5858L59.5857 18.0858L62.4142 20.9142L62.9142 20.4142L60.0857 17.5858ZM76.9141 26.5857L65.4142 15.0858L62.5857 17.9142L74.0857 29.4142L76.9141 26.5857Z" fill="#84D3FF" class="fill-blue" />
  <path d="M13 33.2285L14.4142 34.6427V34.6427L13 33.2285ZM3.08579 40.3143L1.67157 41.7285L4.5 44.5569L5.91421 43.1427L3.08579 40.3143ZM16 30.2285L17.4142 28.8143L16 27.4001L14.5857 28.8143L16 30.2285ZM15 31.2285L13.5857 29.8143V29.8143L15 31.2285ZM14.5 31.7285L15.9142 33.1427L15.9142 33.1427L14.5 31.7285ZM13.5 32.7285L12.0857 31.3143V31.3143L13.5 32.7285ZM26.0857 43.1427L27.4999 44.5569L30.3283 41.7285L28.9141 40.3143L26.0857 43.1427ZM37 33.2285L38.4142 34.6427V34.6427L37 33.2285ZM27.0858 40.3143L25.6716 41.7285L28.5 44.5569L29.9142 43.1427L27.0858 40.3143ZM40 30.2285L41.4142 28.8143L40 27.4001L38.5857 28.8143L40 30.2285ZM39 31.2285L37.5857 29.8143V29.8143L39 31.2285ZM38.5 31.7285L39.9142 33.1427V33.1427L38.5 31.7285ZM37.5 32.7285L36.0857 31.3143V31.3143L37.5 32.7285ZM50.0857 43.1427L51.4999 44.5569L54.3283 41.7285L52.9141 40.3143L50.0857 43.1427ZM61 33.2285L62.4142 34.6427V34.6427L61 33.2285ZM51.0858 40.3143L49.6716 41.7285L52.5 44.5569L53.9142 43.1427L51.0858 40.3143ZM64 30.2285L65.4142 28.8143L64 27.4001L62.5857 28.8143L64 30.2285ZM63 31.2285L61.5857 29.8143V29.8143L63 31.2285ZM62.5 31.7285L63.9142 33.1427V33.1427L62.5 31.7285ZM61.5 32.7285L60.0857 31.3143V31.3143L61.5 32.7285ZM74.0857 43.1427L75.4999 44.5569L78.3284 41.7285L76.9141 40.3143L74.0857 43.1427ZM11.5857 31.8143L3.08579 40.3143L5.91421 43.1427L14.4142 34.6427L11.5857 31.8143ZM14.5857 28.8143L13.5857 29.8143L16.4142 32.6427L17.4142 31.6427L14.5857 28.8143ZM13.5857 29.8143L13.0857 30.3143L15.9142 33.1427L16.4142 32.6427L13.5857 29.8143ZM13.0857 30.3143L12.5857 30.8143L15.4142 33.6427L15.9142 33.1427L13.0857 30.3143ZM12.5857 30.8143L12.0857 31.3143L14.9142 34.1427L15.4142 33.6427L12.5857 30.8143ZM12.0857 31.3143L11.5857 31.8143L14.4142 34.6427L14.9142 34.1427L12.0857 31.3143ZM28.9141 40.3143L17.4142 28.8143L14.5857 31.6427L26.0857 43.1427L28.9141 40.3143ZM35.5857 31.8143L27.0858 40.3143L29.9142 43.1427L38.4142 34.6427L35.5857 31.8143ZM38.5857 28.8143L37.5857 29.8143L40.4142 32.6427L41.4142 31.6427L38.5857 28.8143ZM37.5857 29.8143L37.0857 30.3143L39.9142 33.1427L40.4142 32.6427L37.5857 29.8143ZM37.0857 30.3143L36.5857 30.8143L39.4142 33.6427L39.9142 33.1427L37.0857 30.3143ZM36.5857 30.8143L36.0857 31.3143L38.9142 34.1427L39.4142 33.6427L36.5857 30.8143ZM36.0857 31.3143L35.5857 31.8143L38.4142 34.6427L38.9142 34.1427L36.0857 31.3143ZM52.9141 40.3143L41.4142 28.8143L38.5857 31.6427L50.0857 43.1427L52.9141 40.3143ZM59.5857 31.8143L51.0858 40.3143L53.9142 43.1427L62.4142 34.6427L59.5857 31.8143ZM62.5857 28.8143L61.5857 29.8143L64.4142 32.6427L65.4142 31.6427L62.5857 28.8143ZM61.5857 29.8143L61.0857 30.3143L63.9142 33.1427L64.4142 32.6427L61.5857 29.8143ZM61.0857 30.3143L60.5857 30.8143L63.4142 33.6427L63.9142 33.1427L61.0857 30.3143ZM60.5857 30.8143L60.0857 31.3143L62.9142 34.1427L63.4142 33.6427L60.5857 30.8143ZM60.0857 31.3143L59.5857 31.8143L62.4142 34.6427L62.9142 34.1427L60.0857 31.3143ZM76.9141 40.3143L65.4142 28.8143L62.5857 31.6427L74.0857 43.1427L76.9141 40.3143Z" fill="#1CB0F6" class="fill-blue" />
  <path d="M13 46.957L14.4142 48.3712V48.3712L13 46.957ZM3.08579 54.0428L1.67157 55.457L4.5 58.2854L5.91421 56.8712L3.08579 54.0428ZM16 43.957L17.4142 42.5428L16 41.1286L14.5857 42.5428L16 43.957ZM15 44.957L13.5857 43.5428V43.5428L15 44.957ZM14.5 45.457L15.9142 46.8712L15.9142 46.8712L14.5 45.457ZM13.5 46.457L12.0857 45.0428V45.0428L13.5 46.457ZM26.0857 56.8712L27.4999 58.2854L30.3283 55.457L28.9141 54.0428L26.0857 56.8712ZM37 46.957L38.4142 48.3712V48.3712L37 46.957ZM27.0858 54.0428L25.6716 55.457L28.5 58.2854L29.9142 56.8712L27.0858 54.0428ZM40 43.957L41.4142 42.5428L40 41.1286L38.5857 42.5428L40 43.957ZM39 44.957L37.5857 43.5428V43.5428L39 44.957ZM38.5 45.457L39.9142 46.8712V46.8712L38.5 45.457ZM37.5 46.457L36.0857 45.0428V45.0428L37.5 46.457ZM50.0857 56.8712L51.4999 58.2854L54.3283 55.457L52.9141 54.0428L50.0857 56.8712ZM61 46.957L62.4142 48.3712V48.3712L61 46.957ZM51.0858 54.0428L49.6716 55.457L52.5 58.2854L53.9142 56.8712L51.0858 54.0428ZM64 43.957L65.4142 42.5428L64 41.1286L62.5857 42.5428L64 43.957ZM63 44.957L61.5857 43.5428V43.5428L63 44.957ZM62.5 45.457L63.9142 46.8712V46.8712L62.5 45.457ZM61.5 46.457L60.0857 45.0428V45.0428L61.5 46.457ZM74.0857 56.8712L75.4999 58.2854L78.3284 55.457L76.9141 54.0428L74.0857 56.8712ZM11.5857 45.5428L3.08579 54.0428L5.91421 56.8712L14.4142 48.3712L11.5857 45.5428ZM14.5857 42.5428L13.5857 43.5428L16.4142 46.3712L17.4142 45.3712L14.5857 42.5428ZM13.5857 43.5428L13.0857 44.0428L15.9142 46.8712L16.4142 46.3712L13.5857 43.5428ZM13.0857 44.0428L12.5857 44.5428L15.4142 47.3712L15.9142 46.8712L13.0857 44.0428ZM12.5857 44.5428L12.0857 45.0428L14.9142 47.8712L15.4142 47.3712L12.5857 44.5428ZM12.0857 45.0428L11.5857 45.5428L14.4142 48.3712L14.9142 47.8712L12.0857 45.0428ZM28.9141 54.0428L17.4142 42.5428L14.5857 45.3712L26.0857 56.8712L28.9141 54.0428ZM35.5857 45.5428L27.0858 54.0428L29.9142 56.8712L38.4142 48.3712L35.5857 45.5428ZM38.5857 42.5428L37.5857 43.5428L40.4142 46.3712L41.4142 45.3712L38.5857 42.5428ZM37.5857 43.5428L37.0857 44.0428L39.9142 46.8712L40.4142 46.3712L37.5857 43.5428ZM37.0857 44.0428L36.5857 44.5428L39.4142 47.3712L39.9142 46.8712L37.0857 44.0428ZM36.5857 44.5428L36.0857 45.0428L38.9142 47.8712L39.4142 47.3712L36.5857 44.5428ZM36.0857 45.0428L35.5857 45.5428L38.4142 48.3712L38.9142 47.8712L36.0857 45.0428ZM52.9141 54.0428L41.4142 42.5428L38.5857 45.3712L50.0857 56.8712L52.9141 54.0428ZM59.5857 45.5428L51.0858 54.0428L53.9142 56.8712L62.4142 48.3712L59.5857 45.5428ZM62.5857 42.5428L61.5857 43.5428L64.4142 46.3712L65.4142 45.3712L62.5857 42.5428ZM61.5857 43.5428L61.0857 44.0428L63.9142 46.8712L64.4142 46.3712L61.5857 43.5428ZM61.0857 44.0428L60.5857 44.5428L63.4142 47.3712L63.9142 46.8712L61.0857 44.0428ZM60.5857 44.5428L60.0857 45.0428L62.9142 47.8712L63.4142 47.3712L60.5857 44.5428ZM60.0857 45.0428L59.5857 45.5428L62.4142 48.3712L62.9142 47.8712L60.0857 45.0428ZM76.9141 54.0428L65.4142 42.5428L62.5857 45.3712L74.0857 56.8712L76.9141 54.0428Z" fill="#84D3FF" class="fill-blue" />
  <path d="M13 60.6855L14.4142 62.0998V62.0998L13 60.6855ZM3.08579 67.7713L1.67157 69.1855L4.5 72.0139L5.91421 70.5997L3.08579 67.7713ZM16 57.6855L17.4142 56.2713L16 54.8571L14.5857 56.2713L16 57.6855ZM15 58.6855L13.5857 57.2713V57.2713L15 58.6855ZM14.5 59.1855L15.9142 60.5998L15.9142 60.5998L14.5 59.1855ZM13.5 60.1855L12.0857 58.7713V58.7713L13.5 60.1855ZM26.0857 70.5997L27.4999 72.0139L30.3283 69.1855L28.9141 67.7713L26.0857 70.5997ZM37 60.6855L38.4142 62.0998V62.0998L37 60.6855ZM27.0858 67.7713L25.6716 69.1855L28.5 72.0139L29.9142 70.5997L27.0858 67.7713ZM40 57.6855L41.4142 56.2713L40 54.8571L38.5857 56.2713L40 57.6855ZM39 58.6855L37.5857 57.2713V57.2713L39 58.6855ZM38.5 59.1855L39.9142 60.5998V60.5998L38.5 59.1855ZM37.5 60.1855L36.0857 58.7713V58.7713L37.5 60.1855ZM50.0857 70.5997L51.4999 72.0139L54.3283 69.1855L52.9141 67.7713L50.0857 70.5997ZM61 60.6855L62.4142 62.0998V62.0998L61 60.6855ZM51.0858 67.7713L49.6716 69.1855L52.5 72.0139L53.9142 70.5997L51.0858 67.7713ZM64 57.6855L65.4142 56.2713L64 54.8571L62.5857 56.2713L64 57.6855ZM63 58.6855L61.5857 57.2713V57.2713L63 58.6855ZM62.5 59.1855L63.9142 60.5998V60.5998L62.5 59.1855ZM61.5 60.1855L60.0857 58.7713V58.7713L61.5 60.1855ZM74.0857 70.5997L75.4999 72.0139L78.3284 69.1855L76.9141 67.7713L74.0857 70.5997ZM11.5857 59.2713L3.08579 67.7713L5.91421 70.5997L14.4142 62.0998L11.5857 59.2713ZM14.5857 56.2713L13.5857 57.2713L16.4142 60.0998L17.4142 59.0998L14.5857 56.2713ZM13.5857 57.2713L13.0857 57.7713L15.9142 60.5998L16.4142 60.0998L13.5857 57.2713ZM13.0857 57.7713L12.5857 58.2713L15.4142 61.0998L15.9142 60.5998L13.0857 57.7713ZM12.5857 58.2713L12.0857 58.7713L14.9142 61.5998L15.4142 61.0998L12.5857 58.2713ZM12.0857 58.7713L11.5857 59.2713L14.4142 62.0998L14.9142 61.5998L12.0857 58.7713ZM28.9141 67.7713L17.4142 56.2713L14.5857 59.0998L26.0857 70.5997L28.9141 67.7713ZM35.5857 59.2713L27.0858 67.7713L29.9142 70.5997L38.4142 62.0998L35.5857 59.2713ZM38.5857 56.2713L37.5857 57.2713L40.4142 60.0998L41.4142 59.0998L38.5857 56.2713ZM37.5857 57.2713L37.0857 57.7713L39.9142 60.5998L40.4142 60.0998L37.5857 57.2713ZM37.0857 57.7713L36.5857 58.2713L39.4142 61.0998L39.9142 60.5998L37.0857 57.7713ZM36.5857 58.2713L36.0857 58.7713L38.9142 61.5998L39.4142 61.0998L36.5857 58.2713ZM36.0857 58.7713L35.5857 59.2713L38.4142 62.0998L38.9142 61.5998L36.0857 58.7713ZM52.9141 67.7713L41.4142 56.2713L38.5857 59.0998L50.0857 70.5997L52.9141 67.7713ZM59.5857 59.2713L51.0858 67.7713L53.9142 70.5997L62.4142 62.0998L59.5857 59.2713ZM62.5857 56.2713L61.5857 57.2713L64.4142 60.0998L65.4142 59.0998L62.5857 56.2713ZM61.5857 57.2713L61.0857 57.7713L63.9142 60.5998L64.4142 60.0998L61.5857 57.2713ZM61.0857 57.7713L60.5857 58.2713L63.4142 61.0998L63.9142 60.5998L61.0857 57.7713ZM60.5857 58.2713L60.0857 58.7713L62.9142 61.5998L63.4142 61.0998L60.5857 58.2713ZM60.0857 58.7713L59.5857 59.2713L62.4142 62.0998L62.9142 61.5998L60.0857 58.7713ZM76.9141 67.7713L65.4142 56.2713L62.5857 59.0998L74.0857 70.5997L76.9141 67.7713Z" fill="#1CB0F6" class="fill-blue" />
</svg>