<svg viewBox="0 0 80 80" fill="none">
  <path fill-rule="evenodd" clip-rule="evenodd" d="M56.0502 21.567C58.8879 23.1752 60.9654 25.856 61.8174 28.9771C62.5067 31.5022 62.3489 34.1869 61.389 36.6094C63.9806 36.9823 66.4041 38.171 68.2944 40.0265L68.3765 40.1071C70.6943 42.3822 72 45.4936 72 48.7413C72 51.9891 70.6943 55.1004 68.3765 57.3755L68.2944 57.4562C65.9809 59.727 62.8686 60.9993 59.6269 60.9993H59.5122H56.8094C56.8001 60.9999 56.7907 61.0003 56.7813 61.0003L23.2203 61.0003C23.218 61.0003 23.2157 61.0003 23.2133 61.0002H20.4878H20.3731C17.1314 61.0002 14.0191 59.728 11.7056 57.4571L11.6235 57.3764C9.30573 55.1014 8 51.99 8 48.7423C8 45.4945 9.30573 42.3831 11.6235 40.1081L11.7056 40.0274C13.596 38.1718 16.0198 36.983 18.6118 36.6103C17.6518 34.1876 17.4939 31.5028 18.1832 28.9776C19.0352 25.8564 21.1127 23.1757 23.9504 21.5675L24.0502 21.5109C26.8879 19.9027 30.2918 19.477 33.4715 20.3134C36.0487 20.9912 38.342 22.4719 40.0001 24.5049C41.6583 22.4717 43.9517 20.9908 46.5291 20.3129C49.7088 19.4766 53.1127 19.9022 55.9504 21.5104L56.0502 21.567Z" fill="currentColor" />
  <path d="M61.8174 28.9771L59.888 29.5038L59.888 29.5038L61.8174 28.9771ZM56.0502 21.567L55.0641 23.307L55.0641 23.307L56.0502 21.567ZM61.389 36.6094L59.5296 35.8727L58.5963 38.2282L61.1042 38.589L61.389 36.6094ZM68.2944 40.0265L69.6954 38.5992L69.6954 38.5992L68.2944 40.0265ZM68.3765 40.1071L66.9755 41.5344L66.9755 41.5344L68.3765 40.1071ZM68.3765 57.3755L69.7775 58.8028L69.7775 58.8028L68.3765 57.3755ZM68.2944 57.4562L66.8934 56.0289L66.8933 56.0289L68.2944 57.4562ZM56.8094 60.9993V58.9993H56.7383L56.6675 59.0043L56.8094 60.9993ZM23.2133 61.0002L23.2495 59.0005L23.2314 59.0002H23.2133V61.0002ZM11.7056 57.4571L10.3046 58.8844L10.3046 58.8844L11.7056 57.4571ZM11.6235 57.3764L13.0245 55.9492L13.0245 55.9491L11.6235 57.3764ZM11.6235 40.1081L10.2225 38.6808L10.2224 38.6808L11.6235 40.1081ZM11.7056 40.0274L13.1066 41.4547L13.1067 41.4547L11.7056 40.0274ZM18.6118 36.6103L18.8965 38.5899L21.4046 38.2292L20.4711 35.8735L18.6118 36.6103ZM18.1832 28.9776L20.1126 29.5043V29.5043L18.1832 28.9776ZM23.9504 21.5675L22.9643 19.8275L22.9643 19.8275L23.9504 21.5675ZM24.0502 21.5109L25.0363 23.2509V23.2509L24.0502 21.5109ZM33.4715 20.3134L32.9627 22.2476L32.9627 22.2476L33.4715 20.3134ZM40.0001 24.5049L38.4502 25.769L40.0002 27.6694L41.5501 25.7689L40.0001 24.5049ZM46.5291 20.3129L46.0204 18.3787V18.3787L46.5291 20.3129ZM55.9504 21.5104L56.9365 19.7704L56.9365 19.7704L55.9504 21.5104ZM63.7468 28.4505C62.7546 24.8154 60.3376 21.6979 57.0363 19.827L55.0641 23.307C57.4383 24.6525 59.1763 26.8965 59.888 29.5038L63.7468 28.4505ZM63.2483 37.3462C64.3662 34.5247 64.5511 31.3969 63.7468 28.4504L59.888 29.5038C60.4623 31.6076 60.3315 33.849 59.5296 35.8727L63.2483 37.3462ZM69.6954 38.5992C67.4996 36.4438 64.6843 35.0629 61.6738 34.6298L61.1042 38.589C63.277 38.9016 65.3087 39.8983 66.8933 41.4538L69.6954 38.5992ZM69.7776 38.6799L69.6954 38.5992L66.8933 41.4537L66.9755 41.5344L69.7776 38.6799ZM74 48.7413C74 44.9567 72.4784 41.331 69.7776 38.6798L66.9755 41.5344C68.9101 43.4334 70 46.0304 70 48.7413H74ZM69.7775 58.8028C72.4784 56.1516 74 52.5259 74 48.7413H70C70 51.4522 68.9101 54.0492 66.9755 55.9482L69.7775 58.8028ZM69.6954 58.8835L69.7775 58.8028L66.9755 55.9482L66.8934 56.0289L69.6954 58.8835ZM59.6269 62.9993C63.3926 62.9993 67.008 61.5214 69.6954 58.8834L66.8933 56.0289C64.9538 57.9327 62.3446 58.9993 59.6269 58.9993V62.9993ZM59.5122 62.9993H59.6269V58.9993H59.5122V62.9993ZM56.8094 62.9993H59.5122V58.9993H56.8094V62.9993ZM56.6675 59.0043C56.7054 59.0016 56.7434 59.0003 56.7813 59.0003V63.0003C56.8381 63.0003 56.8948 62.9982 56.9513 62.9942L56.6675 59.0043ZM56.7813 59.0003L23.2203 59.0003V63.0003L56.7813 63.0003V59.0003ZM23.2203 59.0003C23.2289 59.0003 23.2387 59.0003 23.2495 59.0005L23.1772 62.9999C23.1927 63.0002 23.2071 63.0003 23.2203 63.0003V59.0003ZM20.4878 63.0002H23.2133V59.0002H20.4878V63.0002ZM20.3731 63.0002H20.4878V59.0002H20.3731V63.0002ZM10.3046 58.8844C12.992 61.5223 16.6074 63.0002 20.3731 63.0002V59.0002C17.6554 59.0002 15.0462 57.9336 13.1067 56.0298L10.3046 58.8844ZM10.2224 58.8037L10.3046 58.8844L13.1067 56.0298L13.0245 55.9492L10.2224 58.8037ZM6 48.7423C6 52.5269 7.52158 56.1526 10.2224 58.8037L13.0245 55.9491C11.0899 54.0502 10 51.4531 10 48.7423H6ZM10.2224 38.6808C7.52158 41.3319 6 44.9576 6 48.7423H10C10 46.0314 11.0899 43.4343 13.0245 41.5354L10.2224 38.6808ZM10.3046 38.6001L10.2225 38.6808L13.0245 41.5354L13.1066 41.4547L10.3046 38.6001ZM18.3271 34.6306C15.3162 35.0636 12.5006 36.4445 10.3046 38.6001L13.1067 41.4547C14.6914 39.8991 16.7234 38.9024 18.8965 38.5899L18.3271 34.6306ZM16.2538 28.4509C15.4494 31.3975 15.6344 34.5255 16.7524 37.347L20.4711 35.8735C19.6692 33.8497 19.5383 31.6081 20.1126 29.5043L16.2538 28.4509ZM22.9643 19.8275C19.663 21.6984 17.2461 24.8159 16.2538 28.4509L20.1126 29.5043C20.8243 26.8969 22.5623 24.653 24.9365 23.3075L22.9643 19.8275ZM23.0641 19.7709L22.9643 19.8275L24.9365 23.3075L25.0363 23.2509L23.0641 19.7709ZM33.9802 18.3791C30.3052 17.4126 26.364 17.9008 23.0641 19.7709L25.0363 23.2509C27.4119 21.9046 30.2784 21.5415 32.9627 22.2476L33.9802 18.3791ZM41.55 23.2409C39.6236 20.8789 36.9653 19.1643 33.9802 18.3791L32.9627 22.2476C35.1321 22.8181 37.0604 24.0649 38.4502 25.769L41.55 23.2409ZM46.0204 18.3787C43.0351 19.1639 40.3766 20.8787 38.4502 23.2409L41.5501 25.7689C42.9399 24.0646 44.8684 22.8177 47.0379 22.2471L46.0204 18.3787ZM56.9365 19.7704C53.6367 17.9003 49.6954 17.4121 46.0204 18.3787L47.0379 22.2471C49.7223 21.5411 52.5887 21.9041 54.9643 23.2504L56.9365 19.7704ZM57.0364 19.827L56.9365 19.7704L54.9642 23.2504L55.0641 23.307L57.0364 19.827Z" fill="currentColor" />
</svg>