<svg viewBox="0 0 80 80" fill="none">
  <path fill-rule="evenodd" clip-rule="evenodd" d="M46.0191 18.8301C46.0809 19.6107 46.5962 20.2754 47.3136 20.5892C48.0214 20.8988 48.7158 21.2504 49.3933 21.6439C50.0481 22.0243 50.6767 22.4392 51.2775 22.8853C51.9102 23.3552 52.7494 23.4715 53.4603 23.1311L57.5672 21.1649C58.3522 20.7891 59.2959 20.9593 59.8578 21.6239C62.0233 24.1851 63.7057 27.1308 64.8191 30.2987C65.1049 31.112 64.7839 32.0043 64.0753 32.4953L60.3052 35.1078C59.6629 35.5529 59.3474 36.3305 59.4357 37.1069C59.5231 37.8745 59.5676 38.6506 59.5676 39.4316C59.5676 40.2131 59.523 40.9895 59.4356 41.7575C59.3472 42.534 59.6627 43.3116 60.3051 43.7567L64.0733 46.368C64.7819 46.859 65.1029 47.7516 64.8169 48.5649C63.7027 51.7327 62.0194 54.6782 59.8531 57.239C59.2911 57.9033 58.3476 58.0734 57.5628 57.6977L53.4592 55.733C52.7483 55.3926 51.9092 55.5089 51.2764 55.9787C50.676 56.4246 50.0477 56.8391 49.3933 57.2193C48.7158 57.6129 48.0214 57.9644 47.3137 58.274C46.5963 58.5878 46.081 59.2525 46.0192 60.0331L45.6558 64.6234C45.5876 65.4853 44.9744 66.2132 44.1245 66.3718C40.8204 66.9882 37.4282 66.9886 34.124 66.3728C33.2739 66.2144 32.6605 65.4865 32.5923 64.6244L32.2288 60.0335C32.167 59.2529 31.6517 58.5882 30.9343 58.2744C30.2263 57.9647 29.5316 57.613 28.8539 57.2193C28.1996 56.8392 27.5714 56.4247 26.971 55.9789C26.3383 55.5091 25.4991 55.3929 24.7883 55.7332L20.6816 57.6994C19.8969 58.0751 18.9534 57.9051 18.3914 57.2409C16.225 54.6805 14.5416 51.7354 13.4271 48.568C13.1409 47.7546 13.4619 46.8619 14.1707 46.3708L17.9421 43.7573C18.5845 43.3122 18.9 42.5345 18.8116 41.758C18.7241 40.9899 18.6795 40.2133 18.6795 39.4316C18.6795 38.6504 18.7241 37.8742 18.8115 37.1064C18.8998 36.33 18.5843 35.5524 17.942 35.1073L14.1686 32.4924C13.46 32.0014 13.139 31.109 13.4249 30.2957C14.5386 27.1282 16.2211 24.1829 18.3867 21.6221C18.9486 20.9576 19.8923 20.7873 20.6772 21.1631L24.7872 23.1309C25.498 23.4712 26.3372 23.355 26.97 22.8851C27.5707 22.439 28.1992 22.0243 28.8539 21.6439C29.5316 21.2502 30.2263 20.8985 30.9344 20.5888C31.6518 20.2751 32.1672 19.6104 32.2289 18.8298L32.5929 14.2328C32.6611 13.3707 33.2745 12.6428 34.1246 12.4844C37.4284 11.8688 40.8202 11.8691 44.1238 12.4854C44.9738 12.644 45.587 13.3719 45.6552 14.2338L46.0191 18.8301ZM44.2581 30.5381C41.0833 28.6937 37.1632 28.6937 33.9884 30.5381C30.8391 32.3677 28.9012 35.7898 28.9012 39.432C28.9012 43.0741 30.8391 46.4963 33.9884 48.3258C37.1632 50.1702 41.0833 50.1702 44.2581 48.3258C47.4073 46.4963 49.3453 43.0741 49.3453 39.432C49.3453 35.7898 47.4073 32.3677 44.2581 30.5381Z" fill="currentColor" />
  <path d="M49.3933 21.6439L48.1374 23.8056L48.1374 23.8056L49.3933 21.6439ZM49.3933 57.2193L48.1374 55.0576H48.1374L49.3933 57.2193ZM28.8539 57.2193L27.5981 59.381L28.8539 57.2193ZM28.8539 21.6439L27.5981 19.4822L27.5981 19.4822L28.8539 21.6439ZM33.9884 30.5381L32.7326 28.3764L33.9884 30.5381ZM44.2581 30.5381L43.0022 32.6998H43.0022L44.2581 30.5381ZM33.9884 48.3258L32.7326 50.4875H32.7326L33.9884 48.3258ZM44.2581 48.3258L45.5139 50.4875L44.2581 48.3258ZM44.1238 12.4854L43.6654 14.943L44.1238 12.4854ZM45.6552 14.2338L48.1474 14.0365L45.6552 14.2338ZM13.4249 30.2957L11.0664 29.4664L13.4249 30.2957ZM17.942 35.1073L19.3659 33.0524L17.942 35.1073ZM18.8116 41.758L16.3276 42.0408L18.8116 41.758ZM13.4271 48.568L11.0689 49.3978L13.4271 48.568ZM14.1707 46.3708L12.7467 44.316L14.1707 46.3708ZM18.3914 57.2409L16.4829 58.8557L18.3914 57.2409ZM26.971 55.9789L25.4807 57.9861L26.971 55.9789ZM24.7883 55.7332L23.7087 53.4783L24.7883 55.7332ZM32.2288 60.0335L29.7366 60.2308L32.2288 60.0335ZM30.9343 58.2744L29.9325 60.5649L30.9343 58.2744ZM34.124 66.3728L33.666 68.8305L34.124 66.3728ZM32.5923 64.6244L30.1001 64.8217L32.5923 64.6244ZM53.4592 55.733L54.5388 53.4781L53.4592 55.733ZM51.2764 55.9787L49.7861 53.9715L51.2764 55.9787ZM59.8531 57.239L57.9444 55.6244L59.8531 57.239ZM57.5628 57.6977L56.4832 59.9525L57.5628 57.6977ZM64.0733 46.368L62.6493 48.4228L64.0733 46.368ZM64.8169 48.5649L67.1752 49.3944L64.8169 48.5649ZM59.4356 41.7575L61.9196 42.0403L59.4356 41.7575ZM32.5929 14.2328L35.0851 14.4301L32.5929 14.2328ZM34.1246 12.4844L33.6667 10.0267L34.1246 12.4844ZM60.3052 35.1078L61.7292 37.1627L60.3052 35.1078ZM59.4357 37.1069L61.9197 36.8243L59.4357 37.1069ZM30.9344 20.5888L29.9326 18.2983L30.9344 20.5888ZM32.2289 18.8298L29.7367 18.6325L32.2289 18.8298ZM64.8191 30.2987L67.1777 29.4698L64.8191 30.2987ZM59.8578 21.6239L57.9487 23.2381L59.8578 21.6239ZM45.6558 64.6234L48.148 64.8207L45.6558 64.6234ZM44.1245 66.3718L44.583 68.8293L44.1245 66.3718ZM26.97 22.8851L25.4795 20.878L26.97 22.8851ZM51.2775 22.8853L49.787 24.8924L51.2775 22.8853ZM53.4603 23.1311L54.5399 25.386L53.4603 23.1311ZM47.3137 58.274L46.3118 55.9836L47.3137 58.274ZM46.0192 60.0331L48.5114 60.2304L46.0192 60.0331ZM20.6772 21.1631L21.7568 18.9083L20.6772 21.1631ZM47.3136 20.5892L46.3117 22.8797L47.3136 20.5892ZM46.0191 18.8301L48.5113 18.6329L46.0191 18.8301ZM50.6491 19.4822C49.8891 19.0407 49.1099 18.6462 48.3155 18.2987L46.3117 22.8797C46.9328 23.1514 47.5425 23.46 48.1374 23.8056L50.6491 19.4822ZM52.768 20.8782C52.0925 20.3766 51.3856 19.9101 50.6491 19.4822L48.1374 23.8056C48.7105 24.1386 49.2608 24.5017 49.787 24.8924L52.768 20.8782ZM56.4876 18.91L52.3808 20.8763L54.5399 25.386L58.6468 23.4198L56.4876 18.91ZM67.1777 29.4698C65.9641 26.0168 64.1299 22.8047 61.7669 20.0098L57.9487 23.2381C59.9167 25.5656 61.4473 28.2449 62.4605 31.1277L67.1777 29.4698ZM61.7292 37.1627L65.4993 34.5501L62.6514 30.4404L58.8813 33.053L61.7292 37.1627ZM62.0676 39.4316C62.0676 38.5554 62.0177 37.6851 61.9197 36.8243L56.9518 37.3896C57.0285 38.064 57.0676 38.7457 57.0676 39.4316H62.0676ZM61.9196 42.0403C62.0176 41.1791 62.0676 40.3083 62.0676 39.4316H57.0676C57.0676 40.1179 57.0285 40.8 56.9517 41.4747L61.9196 42.0403ZM65.4972 44.3131L61.729 41.7019L58.8811 45.8116L62.6493 48.4228L65.4972 44.3131ZM61.7617 58.8536C64.1257 56.0592 65.9607 52.8473 67.1752 49.3944L62.4585 47.7354C61.4446 50.6181 59.9131 53.2972 57.9444 55.6244L61.7617 58.8536ZM52.3796 57.9879L56.4832 59.9525L58.6423 55.4428L54.5388 53.4781L52.3796 57.9879ZM50.6491 59.381C51.3852 58.9534 52.0917 58.4872 52.7668 57.9859L49.7861 53.9715C49.2602 54.362 48.7102 54.7249 48.1374 55.0576L50.6491 59.381ZM48.3156 60.5645C49.11 60.217 49.8892 59.8225 50.6491 59.381L48.1374 55.0576C47.5425 55.4033 46.9329 55.7119 46.3118 55.9836L48.3156 60.5645ZM48.148 64.8207L48.5114 60.2304L43.527 59.8358L43.1636 64.4261L48.148 64.8207ZM33.666 68.8305C37.2731 69.5027 40.976 69.5023 44.583 68.8293L43.6659 63.9142C40.6648 64.4741 37.5833 64.4744 34.582 63.9151L33.666 68.8305ZM29.7366 60.2308L30.1001 64.8217L35.0845 64.4271L34.721 59.8362L29.7366 60.2308ZM27.5981 59.381C28.3583 59.8227 29.1378 60.2173 29.9325 60.5649L31.9361 55.9839C31.3147 55.7121 30.7049 55.4034 30.1097 55.0576L27.5981 59.381ZM25.4807 57.9861C26.1557 58.4873 26.8621 58.9535 27.5981 59.381L30.1097 55.0576C29.5371 54.725 28.9871 54.3621 28.4614 53.9717L25.4807 57.9861ZM21.7612 59.9543L25.8679 57.9881L23.7087 53.4783L19.602 55.4445L21.7612 59.9543ZM11.0689 49.3978C12.2836 52.8502 14.1189 56.0617 16.4829 58.8557L20.2999 55.626C18.3312 53.2993 16.7996 50.6205 15.7854 47.7382L11.0689 49.3978ZM16.5182 41.7025L12.7467 44.316L15.5946 48.4257L19.3661 45.8121L16.5182 41.7025ZM16.1795 39.4316C16.1795 40.3085 16.2296 41.1795 16.3276 42.0408L21.2955 41.4752C21.2187 40.8003 21.1795 40.1181 21.1795 39.4316H16.1795ZM16.3275 36.8237C16.2295 37.6847 16.1795 38.5552 16.1795 39.4316H21.1795C21.1795 38.7455 21.2187 38.0637 21.2954 37.3891L16.3275 36.8237ZM12.7446 34.5473L16.518 37.1621L19.3659 33.0524L15.5925 30.4376L12.7446 34.5473ZM16.4777 20.0078C14.1146 22.8022 12.2803 26.0139 11.0664 29.4664L15.7834 31.1249C16.7968 28.2425 18.3276 25.5635 20.2956 23.2364L16.4777 20.0078ZM25.8667 20.876L21.7568 18.9083L19.5976 23.418L23.7076 25.3858L25.8667 20.876ZM27.5981 19.4822C26.8617 19.91 26.1549 20.3765 25.4795 20.878L28.4605 24.8922C28.9865 24.5016 29.5367 24.1385 30.1097 23.8056L27.5981 19.4822ZM29.9326 18.2983C29.1379 18.6459 28.3583 19.0406 27.5981 19.4822L30.1097 23.8056C30.7049 23.4598 31.3148 23.1511 31.9361 22.8794L29.9326 18.2983ZM30.1007 14.0355L29.7367 18.6325L34.7212 19.027L35.0851 14.4301L30.1007 14.0355ZM44.5823 10.0278C40.9758 9.35503 37.2733 9.35465 33.6667 10.0267L34.5826 14.9421C37.5835 14.3829 40.6646 14.3832 43.6654 14.943L44.5823 10.0278ZM48.5113 18.6329L48.1474 14.0365L43.163 14.4311L43.5269 19.0274L48.5113 18.6329ZM35.2442 32.6998C37.6425 31.3065 40.6039 31.3065 43.0022 32.6998L45.5139 28.3764C41.5626 26.081 36.6838 26.081 32.7326 28.3764L35.2442 32.6998ZM31.4012 39.432C31.4012 36.6656 32.878 34.0745 35.2442 32.6998L32.7326 28.3764C28.8002 30.6609 26.4012 34.914 26.4012 39.432H31.4012ZM35.2442 46.1641C32.878 44.7895 31.4012 42.1983 31.4012 39.432H26.4012C26.4012 43.9499 28.8002 48.203 32.7326 50.4875L35.2442 46.1641ZM43.0022 46.1641C40.6039 47.5574 37.6425 47.5574 35.2442 46.1641L32.7326 50.4875C36.6838 52.783 41.5626 52.783 45.5139 50.4875L43.0022 46.1641ZM46.8453 39.432C46.8453 42.1983 45.3684 44.7895 43.0022 46.1641L45.5139 50.4875C49.4462 48.203 51.8453 43.9499 51.8453 39.432H46.8453ZM43.0022 32.6998C45.3684 34.0745 46.8453 36.6656 46.8453 39.432H51.8453C51.8453 34.914 49.4462 30.6609 45.5139 28.3764L43.0022 32.6998ZM43.6654 14.943C43.3274 14.88 43.1776 14.6155 43.163 14.4311L48.1474 14.0365C47.9964 12.1283 46.6202 10.408 44.5823 10.0278L43.6654 14.943ZM15.5925 30.4376C15.7446 30.543 15.8963 30.8036 15.7834 31.1249L11.0664 29.4664C10.3816 31.4143 11.1754 33.4598 12.7446 34.5473L15.5925 30.4376ZM21.2954 37.3891C21.4779 35.7857 20.8352 34.0706 19.3659 33.0524L16.518 37.1621C16.3334 37.0341 16.3217 36.8742 16.3275 36.8237L21.2954 37.3891ZM19.3661 45.8121C20.8355 44.7939 21.4781 43.0787 21.2955 41.4752L16.3276 42.0408C16.3219 41.9903 16.3335 41.8304 16.5182 41.7025L19.3661 45.8121ZM15.7854 47.7382C15.8985 48.0595 15.7467 48.3202 15.5946 48.4257L12.7467 44.316C11.1771 45.4036 10.3834 47.4497 11.0689 49.3978L15.7854 47.7382ZM19.602 55.4445C19.7698 55.3642 20.0763 55.3617 20.2999 55.626L16.4829 58.8557C17.8305 60.4484 20.0239 60.7861 21.7612 59.9543L19.602 55.4445ZM28.4614 53.9717C27.1578 53.0038 25.3354 52.6995 23.7087 53.4783L25.8679 57.9881C25.6628 58.0863 25.5187 58.0144 25.4807 57.9861L28.4614 53.9717ZM34.721 59.8362C34.5797 58.0503 33.4162 56.6312 31.9361 55.9839L29.9325 60.5649C29.8873 60.5451 29.7544 60.4554 29.7366 60.2308L34.721 59.8362ZM34.582 63.9151C34.9201 63.9781 35.0699 64.2427 35.0845 64.4271L30.1001 64.8217C30.2512 66.7302 31.6277 68.4506 33.666 68.8305L34.582 63.9151ZM54.5388 53.4781C52.912 52.6992 51.0896 53.0036 49.7861 53.9715L52.7668 57.9859C52.7288 58.0141 52.5847 58.086 52.3796 57.9879L54.5388 53.4781ZM57.9444 55.6244C58.1681 55.36 58.4745 55.3624 58.6423 55.4428L56.4832 59.9525C58.2206 60.7844 60.4141 60.4466 61.7617 58.8536L57.9444 55.6244ZM62.6493 48.4228C62.4972 48.3174 62.3455 48.0567 62.4585 47.7354L67.1752 49.3944C67.8604 47.4464 67.0666 45.4007 65.4972 44.3131L62.6493 48.4228ZM56.9517 41.4747C56.7691 43.0782 57.4118 44.7934 58.8811 45.8116L61.729 41.7019C61.9137 41.8299 61.9253 41.9898 61.9196 42.0403L56.9517 41.4747ZM35.0851 14.4301C35.0705 14.6145 34.9207 14.8791 34.5826 14.9421L33.6667 10.0267C31.6283 10.4065 30.2518 12.127 30.1007 14.0355L35.0851 14.4301ZM58.8813 33.053C57.412 34.0712 56.7693 35.7862 56.9518 37.3896L61.9197 36.8243C61.9255 36.8748 61.9138 37.0347 61.7292 37.1627L58.8813 33.053ZM31.9361 22.8794C33.4163 22.232 34.5798 20.8129 34.7212 19.027L29.7367 18.6325C29.7545 18.4078 29.8874 18.3181 29.9326 18.2983L31.9361 22.8794ZM62.4605 31.1277C62.3476 30.8064 62.4993 30.5458 62.6514 30.4404L65.4993 34.5501C67.0684 33.4628 67.8622 31.4176 67.1777 29.4698L62.4605 31.1277ZM58.6468 23.4198C58.4789 23.5001 58.1724 23.5025 57.9487 23.2381L61.7669 20.0098C60.4195 18.4161 58.2254 18.078 56.4876 18.91L58.6468 23.4198ZM43.1636 64.4261C43.1782 64.2418 43.328 63.9772 43.6659 63.9142L44.583 68.8293C46.6209 68.4491 47.997 66.7289 48.148 64.8207L43.1636 64.4261ZM23.7076 25.3858C25.3344 26.1646 27.1569 25.8602 28.4605 24.8922L25.4795 20.878C25.5176 20.8497 25.6617 20.7778 25.8667 20.876L23.7076 25.3858ZM49.787 24.8924C51.0905 25.8605 52.9131 26.1649 54.5399 25.386L52.3808 20.8763C52.5858 20.7781 52.7299 20.85 52.768 20.8782L49.787 24.8924ZM46.3118 55.9836C44.8318 56.6309 43.6684 58.05 43.527 59.8358L48.5114 60.2304C48.4936 60.455 48.3608 60.5447 48.3156 60.5645L46.3118 55.9836ZM20.2956 23.2364C20.072 23.5008 19.7654 23.4984 19.5976 23.418L21.7568 18.9083C20.0191 18.0763 17.8252 18.4143 16.4777 20.0078L20.2956 23.2364ZM48.3155 18.2987C48.3607 18.3185 48.4935 18.4082 48.5113 18.6329L43.5269 19.0274C43.6683 20.8133 44.8317 22.2323 46.3117 22.8797L48.3155 18.2987Z" fill="currentColor" />
</svg>