<svg viewBox="0 0 80 80" fill="none">
  <path fill-rule="evenodd" clip-rule="evenodd" d="M12 36.3418V40.1796L12 54.1796L12 68.1796C12 70.3887 13.7909 72.1796 16 72.1796H64C66.2091 72.1796 68 70.3887 68 68.1796V54.1796V40.1796V36.3418C68 37.5095 67.4897 38.6189 66.6032 39.3788L45.2063 57.719C42.2104 60.2869 37.7896 60.2869 34.7937 57.719L13.3968 39.3788C12.5103 38.6189 12 37.5095 12 36.3418Z" fill="currentColor" />
  <path fill-rule="evenodd" clip-rule="evenodd" d="M12 33.985C12 33.9936 12.0069 34.0005 12.0155 34.0005C12.0069 34.0005 12 34.0074 12 34.016L12 36.1607C12 37.3284 12.5103 38.4378 13.3968 39.1978L19 44.0005L19 24.0005L13.3968 28.8032C12.5103 29.5631 12 30.6725 12 31.8402V33.985ZM28.3333 16.0005L51.6666 16.0005L45.2063 10.4631C42.2104 7.89513 37.7896 7.89513 34.7937 10.4631L28.3333 16.0005ZM61 24.0005L61 44.0005L66.6032 39.1978C67.4897 38.4378 68 37.3284 68 36.1607V34.016C68 34.0074 67.9931 34.0005 67.9845 34.0005C67.9931 34.0005 68 33.9936 68 33.985V31.8402C68 30.6725 67.4897 29.5631 66.6032 28.8032L61 24.0005Z" fill="currentColor" />
  <path d="M61.002 44.1816L62.3035 45.7002C62.7468 45.3202 63.002 44.7655 63.002 44.1816H61.002ZM19.002 44.1816H17.002C17.002 44.7655 17.2571 45.3202 17.7004 45.7002L19.002 44.1816ZM34.7956 57.7191L33.494 59.2376H33.494L34.7956 57.7191ZM45.2083 57.7191L46.5099 59.2376L45.2083 57.7191ZM63.002 44.1816L63.002 21H59.002L59.002 44.1816H63.002ZM63.002 21C63.002 17.134 59.8679 14 56.002 14V18C57.6588 18 59.002 19.3431 59.002 21H63.002ZM56.002 14L24.002 14V18L56.002 18V14ZM24.002 14C20.136 14 17.002 17.134 17.002 21H21.002C21.002 19.3431 22.3451 18 24.002 18V14ZM17.002 21L17.002 44.1816H21.002L21.002 21H17.002ZM36.0972 56.2006L20.3035 42.6631L17.7004 45.7002L33.494 59.2376L36.0972 56.2006ZM43.9067 56.2006C41.6598 58.1265 38.3441 58.1265 36.0972 56.2006L33.494 59.2376C37.2389 62.4475 42.765 62.4475 46.5099 59.2376L43.9067 56.2006ZM59.7004 42.6631L43.9067 56.2006L46.5099 59.2376L62.3035 45.7002L59.7004 42.6631Z" fill="currentColor" />
  <path d="M28.002 26.0005C26.8974 26.0005 26.002 26.8959 26.002 28.0005C26.002 29.1051 26.8974 30.0005 28.002 30.0005V26.0005ZM44.002 30.0005C45.1065 30.0005 46.002 29.1051 46.002 28.0005C46.002 26.8959 45.1065 26.0005 44.002 26.0005V30.0005ZM28.002 34.0005C26.8974 34.0005 26.002 34.8959 26.002 36.0005C26.002 37.1051 26.8974 38.0005 28.002 38.0005V34.0005ZM52.002 38.0005C53.1065 38.0005 54.002 37.1051 54.002 36.0005C54.002 34.8959 53.1065 34.0005 52.002 34.0005V38.0005ZM28.002 42.0005C26.8974 42.0005 26.002 42.8959 26.002 44.0005C26.002 45.1051 26.8974 46.0005 28.002 46.0005V42.0005ZM44.002 46.0005C45.1065 46.0005 46.002 45.1051 46.002 44.0005C46.002 42.8959 45.1065 42.0005 44.002 42.0005V46.0005ZM28.002 30.0005L44.002 30.0005V26.0005L28.002 26.0005V30.0005ZM28.002 38.0005H52.002V34.0005H28.002V38.0005ZM28.002 46.0005H44.002V42.0005H28.002V46.0005Z" fill="currentColor" />
</svg>