<svg viewBox="0 0 80 80" fill="none">
  <path fill-rule="evenodd" clip-rule="evenodd" d="M46 39.1424L68 13.9995L12 13.9995L34 39.1424L34 65.9995L46 56.1172V39.1424Z" fill="currentColor" />
  <path d="M68 13.9995L69.5052 15.3165C70.0219 14.7259 70.1455 13.8877 69.8213 13.1731C69.497 12.4585 68.7848 11.9995 68 11.9995V13.9995ZM46 39.1424L44.4948 37.8254C44.1758 38.1899 44 38.6579 44 39.1424L46 39.1424ZM12 13.9995V11.9995C11.2152 11.9995 10.503 12.4585 10.1787 13.1731C9.85446 13.8877 9.97808 14.7259 10.4948 15.3165L12 13.9995ZM34 39.1424H36C36 38.6579 35.8242 38.1899 35.5052 37.8254L34 39.1424ZM34 65.9995H32C32 66.7734 32.4465 67.4779 33.1464 67.8082C33.8463 68.1385 34.674 68.0354 35.2714 67.5434L34 65.9995ZM46 56.1172L47.2714 57.661C47.7327 57.2811 48 56.7148 48 56.1172H46ZM66.4948 12.6825L44.4948 37.8254L47.5052 40.4594L69.5052 15.3165L66.4948 12.6825ZM12 15.9995L68 15.9995V11.9995L12 11.9995V15.9995ZM35.5052 37.8254L13.5052 12.6825L10.4948 15.3165L32.4948 40.4594L35.5052 37.8254ZM36 65.9995L36 39.1424H32L32 65.9995H36ZM44.7286 54.5733L32.7286 64.4557L35.2714 67.5434L47.2714 57.661L44.7286 54.5733ZM44 39.1424L44 56.1172H48V39.1424L44 39.1424Z" fill="currentColor" />
</svg>