<svg viewBox="0 0 80 80" fill="none">
  <path d="M46.1865 39.9997L44.3006 37.6665C43.596 38.2361 43.1865 39.0936 43.1865 39.9997C43.1865 40.9057 43.596 41.7633 44.3006 42.3328L46.1865 39.9997ZM54.3497 33.4015L52.4638 31.0683L54.3497 33.4015ZM57.3207 17H60.3207C60.3207 15.3431 58.9776 14 57.3207 14V17ZM22.6797 17V14C21.0228 14 19.6797 15.3431 19.6797 17H22.6797ZM25.6507 33.4015L27.5366 31.0683L25.6507 33.4015ZM33.8147 40.0003L35.7005 42.3335C36.4052 41.7639 36.8147 40.9064 36.8147 40.0003C36.8147 39.0943 36.4052 38.2367 35.7005 37.6672L33.8147 40.0003ZM25.6515 46.5985L23.7657 44.2654L25.6515 46.5985ZM22.6805 63H19.6805C19.6805 64.6569 21.0236 66 22.6805 66V63ZM57.3215 63V66C58.9783 66 60.3215 64.6569 60.3215 63H57.3215ZM54.3504 46.5985L52.4646 48.9317L54.3504 46.5985ZM61 20C62.6569 20 64 18.6569 64 17C64 15.3431 62.6569 14 61 14V20ZM19 14C17.3431 14 16 15.3431 16 17C16 18.6569 17.3431 20 19 20V14ZM61 66C62.6569 66 64 64.6569 64 63C64 61.3431 62.6569 60 61 60V66ZM57.3215 60C55.6646 60 54.3215 61.3431 54.3215 63C54.3215 64.6569 55.6646 66 57.3215 66V60ZM22.6805 66C24.3373 66 25.6805 64.6569 25.6805 63C25.6805 61.3431 24.3373 60 22.6805 60V66ZM19 60C17.3431 60 16 61.3431 16 63C16 64.6569 17.3431 66 19 66V60ZM48.0723 42.3328L56.2355 35.7346L52.4638 31.0683L44.3006 37.6665L48.0723 42.3328ZM56.2355 35.7346C58.8192 33.6462 60.3207 30.502 60.3207 27.1798H54.3207C54.3207 28.6899 53.6382 30.1191 52.4638 31.0683L56.2355 35.7346ZM60.3207 27.1798V17H54.3207V27.1798H60.3207ZM57.3207 14L22.6797 14V20L57.3207 20V14ZM19.6797 17V27.1798H25.6797V17H19.6797ZM19.6797 27.1798C19.6797 30.502 21.1812 33.6462 23.7649 35.7346L27.5366 31.0683C26.3622 30.1191 25.6797 28.6899 25.6797 27.1798H19.6797ZM23.7649 35.7346L31.9288 42.3335L35.7005 37.6672L27.5366 31.0683L23.7649 35.7346ZM31.9288 37.6672L23.7657 44.2654L27.5374 48.9317L35.7005 42.3335L31.9288 37.6672ZM23.7657 44.2654C21.1819 46.3538 19.6805 49.498 19.6805 52.8202H25.6805C25.6805 51.3101 26.363 49.8809 27.5374 48.9317L23.7657 44.2654ZM19.6805 52.8202V63H25.6805V52.8202H19.6805ZM22.6805 66H57.3215V60L22.6805 60V66ZM60.3215 63V52.8202H54.3215V63H60.3215ZM60.3215 52.8202C60.3215 49.498 58.82 46.3538 56.2363 44.2654L52.4646 48.9317C53.639 49.8809 54.3215 51.3101 54.3215 52.8202H60.3215ZM56.2363 44.2654L48.0723 37.6665L44.3006 42.3328L52.4646 48.9317L56.2363 44.2654ZM61 14L19 14V20L61 20V14ZM61 60H57.3215V66H61V60ZM22.6805 60H19V66H22.6805V60Z" fill="currentColor" />
</svg>