<svg viewBox="0 0 80 80" fill="none">
  <path fill-rule="evenodd" clip-rule="evenodd" d="M60 30L40 14L20 30L20 48.3589C20.9238 48.6854 21.8167 49.1287 22.6566 49.6886L23.1096 49.9906L23.5626 50.2926C26.2498 52.0841 29.7506 52.0841 32.4378 50.2926L33.3438 49.6886C37.3746 47.0014 42.6258 47.0014 46.6566 49.6886L47.1096 49.9906L47.5626 50.2926C50.2498 52.0841 53.7506 52.0841 56.4378 50.2926L57.3438 49.6886C58.1836 49.1288 59.0763 48.6855 60 48.359L60 30ZM46 42V30H34L34 42H46Z" fill="currentColor" />
  <path d="M40 14L41.2494 12.4383C40.519 11.8539 39.481 11.8539 38.7506 12.4383L40 14ZM60 30H62C62 29.3924 61.7238 28.8178 61.2494 28.4383L60 30ZM20 30L18.7506 28.4383C18.2762 28.8178 18 29.3924 18 30H20ZM20 48.3589H18C18 49.2064 18.5343 49.962 19.3334 50.2445L20 48.3589ZM22.6566 49.6886L21.5472 51.3527H21.5472L22.6566 49.6886ZM23.1096 49.9906L24.219 48.3265L24.219 48.3265L23.1096 49.9906ZM23.5626 50.2926L22.4532 51.9567L22.4532 51.9567L23.5626 50.2926ZM32.4378 50.2926L33.5472 51.9567L33.5472 51.9567L32.4378 50.2926ZM33.3438 49.6886L32.2344 48.0245L32.2344 48.0245L33.3438 49.6886ZM46.6566 49.6886L47.766 48.0245L47.766 48.0245L46.6566 49.6886ZM47.1096 49.9906L46.0002 51.6547L46.0002 51.6547L47.1096 49.9906ZM47.5626 50.2926L48.672 48.6285L48.672 48.6285L47.5626 50.2926ZM56.4378 50.2926L57.5472 51.9567L57.5472 51.9567L56.4378 50.2926ZM57.3438 49.6886L56.2344 48.0245L56.2343 48.0245L57.3438 49.6886ZM60 48.359L60.6667 50.2446C61.4658 49.9621 62 49.2065 62 48.359H60ZM46 30H48C48 28.8954 47.1046 28 46 28V30ZM46 42V44C47.1046 44 48 43.1046 48 42H46ZM34 30V28C32.8954 28 32 28.8954 32 30H34ZM34 42H32C32 43.1046 32.8954 44 34 44V42ZM38.7506 15.5617L58.7506 31.5617L61.2494 28.4383L41.2494 12.4383L38.7506 15.5617ZM21.2494 31.5617L41.2494 15.5617L38.7506 12.4383L18.7506 28.4383L21.2494 31.5617ZM22 48.3589L22 30H18L18 48.3589H22ZM23.766 48.0245C22.7868 47.3717 21.745 46.8545 20.6666 46.4732L19.3334 50.2445C20.1026 50.5164 20.8465 50.8857 21.5472 51.3527L23.766 48.0245ZM24.219 48.3265L23.766 48.0245L21.5472 51.3527L22.0002 51.6547L24.219 48.3265ZM24.672 48.6285L24.219 48.3265L22.0002 51.6547L22.4532 51.9567L24.672 48.6285ZM31.3284 48.6285C29.313 49.9721 26.6874 49.9721 24.672 48.6285L22.4532 51.9567C25.8122 54.1961 30.1882 54.1961 33.5472 51.9567L31.3284 48.6285ZM32.2344 48.0245L31.3284 48.6285L33.5472 51.9567L34.4532 51.3527L32.2344 48.0245ZM47.766 48.0245C43.0634 44.8895 36.937 44.8895 32.2344 48.0245L34.4532 51.3527C37.8122 49.1134 42.1882 49.1134 45.5472 51.3527L47.766 48.0245ZM48.219 48.3265L47.766 48.0245L45.5472 51.3527L46.0002 51.6547L48.219 48.3265ZM48.672 48.6285L48.2189 48.3265L46.0002 51.6547L46.4532 51.9567L48.672 48.6285ZM55.3284 48.6285C53.313 49.9721 50.6874 49.9721 48.672 48.6285L46.4532 51.9567C49.8122 54.1961 54.1882 54.1961 57.5472 51.9567L55.3284 48.6285ZM56.2343 48.0245L55.3284 48.6285L57.5472 51.9567L58.4532 51.3527L56.2343 48.0245ZM59.3333 46.4734C58.2551 46.8546 57.2134 47.3718 56.2344 48.0245L58.4532 51.3527C59.1537 50.8857 59.8975 50.5165 60.6667 50.2446L59.3333 46.4734ZM58 30L58 48.359H62L62 30H58ZM44 30V42H48V30H44ZM34 32H46V28L34 28V32ZM36 42L36 30H32L32 42H36ZM46 40H34L34 44H46V40Z" fill="currentColor" />
  <path d="M67.5 36L64.5 33.6L40 14L15.5 33.6L12.5 36" stroke="currentColor" stroke-width="6" stroke-linecap="round" stroke-linejoin="round" />
  <path fill-rule="evenodd" clip-rule="evenodd" d="M55 26V16C55 15.4477 54.5523 15 54 15H50C49.4477 15 49 15.4477 49 16V21.2L55 26Z" fill="currentColor" />
  <path d="M55 26L53.7506 27.5617C54.3509 28.042 55.1734 28.1356 55.8664 27.8026C56.5593 27.4696 57 26.7688 57 26H55ZM49 21.2H47C47 21.8076 47.2762 22.3822 47.7506 22.7617L49 21.2ZM53 16V26H57V16H53ZM54 17C53.4477 17 53 16.5523 53 16H57C57 14.3431 55.6569 13 54 13V17ZM50 17H54V13H50V17ZM51 16C51 16.5523 50.5523 17 50 17V13C48.3431 13 47 14.3431 47 16H51ZM51 21.2V16H47V21.2H51ZM47.7506 22.7617L53.7506 27.5617L56.2494 24.4383L50.2494 19.6383L47.7506 22.7617Z" fill="currentColor" />
  <path d="M10.4532 57.6985L11.8399 59.7787L11.8399 59.7787L10.4532 57.6985ZM9.54716 58.3025L8.16041 56.2224L8.16041 56.2224L9.54716 58.3025ZM22.0002 58.0005L23.3869 55.9204L23.3869 55.9204L22.0002 58.0005ZM21.5472 57.6985L20.1604 59.7787L20.1604 59.7787L21.5472 57.6985ZM6.62495 57.0082C5.33158 57.4915 4.67487 58.9318 5.15814 60.2251C5.64142 61.5185 7.08167 62.1752 8.37505 61.692L6.62495 57.0082ZM34.4532 57.6985L33.0664 55.6184V55.6184L34.4532 57.6985ZM33.5472 58.3025L32.1604 56.2224L33.5472 58.3025ZM22.4532 58.3025L21.0664 60.3827L21.0664 60.3827L22.4532 58.3025ZM46.0002 58.0005L47.3869 55.9204V55.9204L46.0002 58.0005ZM45.5472 57.6985L44.1604 59.7787V59.7787L45.5472 57.6985ZM58.4532 57.6985L57.0664 55.6184L57.0664 55.6184L58.4532 57.6985ZM57.5472 58.3025L58.9339 60.3827L58.9339 60.3827L57.5472 58.3025ZM46.4532 58.3025L47.8399 56.2224V56.2224L46.4532 58.3025ZM70.0002 58.0005L71.3869 55.9204V55.9204L70.0002 58.0005ZM69.5472 57.6985L68.1604 59.7787V59.7787L69.5472 57.6985ZM70.4532 58.3025L71.8399 56.2224V56.2224L70.4532 58.3025ZM71.6249 61.6918C72.9182 62.1751 74.3585 61.5185 74.8418 60.2251C75.3251 58.9317 74.6685 57.4915 73.3751 57.0082L71.6249 61.6918ZM9.06641 55.6184L8.16041 56.2224L10.9339 60.3827L11.8399 59.7787L9.06641 55.6184ZM23.3869 55.9204L22.9339 55.6184L20.1604 59.7787L20.6134 60.0807L23.3869 55.9204ZM11.8399 59.7787C14.3592 58.0992 17.6412 58.0992 20.1604 59.7787L22.9339 55.6184C18.7352 52.8193 13.2651 52.8193 9.06641 55.6184L11.8399 59.7787ZM8.16041 56.2224C7.67259 56.5476 7.15721 56.8094 6.62495 57.0082L8.37505 61.692C9.26397 61.3598 10.1232 60.9232 10.9339 60.3827L8.16041 56.2224ZM33.0664 55.6184L32.1604 56.2224L34.9339 60.3827L35.8399 59.7787L33.0664 55.6184ZM23.8399 56.2224L23.3869 55.9204L20.6134 60.0807L21.0664 60.3827L23.8399 56.2224ZM47.3869 55.9204L46.9339 55.6184L44.1604 59.7787L44.6134 60.0807L47.3869 55.9204ZM35.8399 59.7787C38.3592 58.0992 41.6412 58.0992 44.1604 59.7787L46.9339 55.6184C42.7352 52.8193 37.2652 52.8193 33.0664 55.6184L35.8399 59.7787ZM32.1604 56.2224C29.6412 57.9019 26.3592 57.9019 23.8399 56.2224L21.0664 60.3827C25.2652 63.1818 30.7352 63.1818 34.9339 60.3827L32.1604 56.2224ZM57.0664 55.6184L56.1604 56.2224L58.9339 60.3827L59.8399 59.7787L57.0664 55.6184ZM47.8399 56.2224L47.3869 55.9204L44.6134 60.0807L45.0664 60.3827L47.8399 56.2224ZM71.3869 55.9204L70.9339 55.6184L68.1604 59.7787L68.6134 60.0807L71.3869 55.9204ZM59.8399 59.7787C62.3592 58.0992 65.6412 58.0992 68.1604 59.7787L70.9339 55.6184C66.7352 52.8193 61.2652 52.8193 57.0664 55.6184L59.8399 59.7787ZM56.1604 56.2224C53.6412 57.9019 50.3592 57.9019 47.8399 56.2224L45.0664 60.3827C49.2652 63.1818 54.7352 63.1818 58.9339 60.3827L56.1604 56.2224ZM71.8399 56.2224L71.3869 55.9204L68.6134 60.0807L69.0664 60.3827L71.8399 56.2224ZM73.3751 57.0082C72.8429 56.8093 72.3277 56.5476 71.8399 56.2224L69.0664 60.3827C69.877 60.9231 70.7361 61.3597 71.6249 61.6918L73.3751 57.0082Z" fill="currentColor" />
  <path d="M22.0002 65.7701L23.3869 63.6899L23.3869 63.6899L22.0002 65.7701ZM21.5472 65.4681L20.1604 67.5482L20.1604 67.5482L21.5472 65.4681ZM20.375 62.0787C19.0817 61.5954 17.6414 62.2521 17.1581 63.5455C16.6749 64.8388 17.3316 66.2791 18.625 66.7624L20.375 62.0787ZM34.4532 65.4681L35.8399 67.5482V67.5482L34.4532 65.4681ZM33.5472 66.0721L32.1604 63.9919L32.1604 63.9919L33.5472 66.0721ZM22.4532 66.0721L21.0664 68.1522L21.0664 68.1522L22.4532 66.0721ZM46.0002 65.7701L47.3869 63.6899V63.6899L46.0002 65.7701ZM45.5472 65.4681L44.1604 67.5482L44.1604 67.5482L45.5472 65.4681ZM58.4532 65.4681L59.8399 67.5482L59.8399 67.5482L58.4532 65.4681ZM57.5472 66.0721L56.1604 63.9919V63.9919L57.5472 66.0721ZM46.4532 66.0721L47.8399 63.9919L47.8399 63.9919L46.4532 66.0721ZM61.3751 66.7625C62.6685 66.2791 63.3251 64.8389 62.8418 63.5455C62.3585 62.2522 60.9182 61.5955 59.6249 62.0788L61.3751 66.7625ZM23.3869 63.6899L22.9339 63.3879L20.1604 67.5482L20.6134 67.8502L23.3869 63.6899ZM18.625 66.7624C19.1572 66.9613 19.6726 67.223 20.1604 67.5482L22.9339 63.3879C22.1232 62.8474 21.264 62.4108 20.375 62.0787L18.625 66.7624ZM33.0664 63.3879L32.1604 63.9919L34.9339 68.1522L35.8399 67.5482L33.0664 63.3879ZM23.8399 63.9919L23.3869 63.6899L20.6134 67.8502L21.0664 68.1522L23.8399 63.9919ZM47.3869 63.6899L46.9339 63.3879L44.1604 67.5482L44.6134 67.8502L47.3869 63.6899ZM35.8399 67.5482C38.3592 65.8687 41.6412 65.8687 44.1604 67.5482L46.9339 63.3879C42.7352 60.5888 37.2652 60.5888 33.0664 63.3879L35.8399 67.5482ZM32.1604 63.9919C29.6412 65.6714 26.3592 65.6714 23.8399 63.9919L21.0664 68.1522C25.2652 70.9514 30.7352 70.9514 34.9339 68.1522L32.1604 63.9919ZM57.0664 63.3879L56.1604 63.9919L58.9339 68.1522L59.8399 67.5482L57.0664 63.3879ZM47.8399 63.9919L47.3869 63.6899L44.6134 67.8502L45.0664 68.1522L47.8399 63.9919ZM59.8399 67.5482C60.3277 67.223 60.8429 66.9613 61.3751 66.7625L59.6249 62.0788C58.7361 62.4109 57.877 62.8475 57.0664 63.3879L59.8399 67.5482ZM56.1604 63.9919C53.6412 65.6714 50.3592 65.6714 47.8399 63.9919L45.0664 68.1522C49.2652 70.9514 54.7352 70.9514 58.9339 68.1522L56.1604 63.9919Z" fill="currentColor" />
</svg>