<svg viewBox="0 0 80 80" fill="none">
  <path d="M21 64C21 65.6569 22.3431 67 24 67C25.6569 67 27 65.6569 27 64H21ZM27 16C27 14.3431 25.6569 13 24 13C22.3431 13 21 14.3431 21 16H27ZM57.9755 18.2577C59.2224 17.1667 59.3488 15.2714 58.2577 14.0245C57.1667 12.7776 55.2714 12.6512 54.0245 13.7423L57.9755 18.2577ZM53.676 65.8971C54.7238 67.1806 56.6136 67.3717 57.8971 66.324C59.1806 65.2762 59.3717 63.3864 58.324 62.1029L53.676 65.8971ZM27 64V44H21V64H27ZM27 44V16H21V44H27ZM25.9755 46.2577L35.1184 38.2577L31.1673 33.7423L22.0245 41.7423L25.9755 46.2577ZM35.1184 38.2577L57.9755 18.2577L54.0245 13.7423L31.1673 33.7423L35.1184 38.2577ZM58.324 62.1029L35.4668 34.1029L30.8189 37.8971L53.676 65.8971L58.324 62.1029Z" fill="currentColor" />
</svg>