<svg viewBox="0 0 80 80" fill="none">
  <path fill-rule="evenodd" clip-rule="evenodd" d="M60.3755 11.2559C62.0323 11.2559 63.3755 12.599 63.3755 14.2559V19.2559H68.3755C70.0323 19.2559 71.3755 20.599 71.3755 22.2559C71.3755 23.9127 70.0323 25.2559 68.3755 25.2559H63.3755V30.2559C63.3755 31.9127 62.0323 33.2559 60.3755 33.2559C58.7186 33.2559 57.3755 31.9127 57.3755 30.2559V25.2559H52.3755C50.7186 25.2559 49.3755 23.9127 49.3755 22.2559C49.3755 20.599 50.7186 19.2559 52.3755 19.2559H57.3755V14.2559C57.3755 12.599 58.7186 11.2559 60.3755 11.2559Z" fill="currentColor" />
  <path d="M41.2492 29.5935C40.7461 29.3779 40.1766 29.3779 39.6736 29.5935L16.7507 39.4175C15.1345 40.1102 15.1345 42.4015 16.7507 43.0941L39.6736 52.9182C40.1767 53.1338 40.7461 53.1338 41.2492 52.9182L64.172 43.0941C65.7883 42.4015 65.7883 40.1102 64.172 39.4175L41.2492 29.5935Z" fill="currentColor" />
  <path d="M16.7507 50.4175L20.8522 48.6598L38.2949 56.1352C39.6784 56.7281 41.2445 56.7281 42.628 56.1352L60.0706 48.6598L64.172 50.4175C65.7883 51.1102 65.7883 53.4015 64.172 54.0941L41.2492 63.9182C40.7461 64.1338 40.1767 64.1338 39.6736 63.9182L16.7507 54.0941C15.1345 53.4015 15.1345 51.1102 16.7507 50.4175Z" fill="currentColor" />
</svg>