<svg viewBox="0 0 80 80" fill="none">
  <path d="M34 61C32.3431 61 31 62.3431 31 64C31 65.6569 32.3431 67 34 67V61ZM51.9862 32.0479L48.9862 32.0376L51.9862 32.0479ZM49 40V47H55V40H49ZM25 28V32.0069H31V28H25ZM35 61H34V67H35V61ZM49 28V40H55V28H49ZM54.9861 32.0581L55 28.0103L49 27.9897L48.9862 32.0376L54.9861 32.0581ZM25 32.0069C25 40.2874 31.7126 47 39.9931 47V41C35.0264 41 31 36.9736 31 32.0069H25ZM39.9931 47C48.2536 47 54.9579 40.3185 54.9861 32.0581L48.9862 32.0376C48.9692 36.9924 44.9479 41 39.9931 41V47ZM49 47C49 54.732 42.732 61 35 61V67C46.0457 67 55 58.0457 55 47H49ZM40 19C44.9706 19 49 23.0294 49 28H55C55 19.7157 48.2843 13 40 13V19ZM31 28C31 23.0294 35.0294 19 40 19V13C31.7157 13 25 19.7157 25 28H31Z" fill="currentColor" />
</svg>