<svg viewBox="0 0 80 80" fill="none">
  <path fill-rule="evenodd" clip-rule="evenodd" d="M22 12C19.7909 12 18 13.7909 18 16V64C18 66.2091 19.7909 68 22 68H58C60.2091 68 62 66.2091 62 64V16C62 13.7909 60.2091 12 58 12L22 12ZM28 21.5C26.6193 21.5 25.5 22.6193 25.5 24C25.5 25.3807 26.6193 26.5 28 26.5H52C53.3807 26.5 54.5 25.3807 54.5 24C54.5 22.6193 53.3807 21.5 52 21.5H28ZM25.5 40C25.5 38.6193 26.6193 37.5 28 37.5H52C53.3807 37.5 54.5 38.6193 54.5 40C54.5 41.3807 53.3807 42.5 52 42.5H28C26.6193 42.5 25.5 41.3807 25.5 40ZM28 53.5C26.6193 53.5 25.5 54.6193 25.5 56C25.5 57.3807 26.6193 58.5 28 58.5H52C53.3807 58.5 54.5 57.3807 54.5 56C54.5 54.6193 53.3807 53.5 52 53.5H28ZM25.5 32C25.5 30.6193 26.6193 29.5 28 29.5H44C45.3807 29.5 46.5 30.6193 46.5 32C46.5 33.3807 45.3807 34.5 44 34.5H28C26.6193 34.5 25.5 33.3807 25.5 32ZM28 45.5C26.6193 45.5 25.5 46.6193 25.5 48C25.5 49.3807 26.6193 50.5 28 50.5H44C45.3807 50.5 46.5 49.3807 46.5 48C46.5 46.6193 45.3807 45.5 44 45.5H28Z" fill="currentColor" />
</svg>