<svg viewBox="0 0 80 80" fill="none">
  <path fill-rule="evenodd" clip-rule="evenodd" d="M30 13H22C19.7909 13 18 14.7909 18 17V65C18 67.2091 19.7909 69 22 69H58C60.2091 69 62 67.2091 62 65V17C62 14.7909 60.2091 13 58 13H50C50 15.2091 48.2091 17 46 17H34C31.7909 17 30 15.2091 30 13ZM36 52.3077V46.0384C36 46.0173 35.9828 46.0001 35.9616 46.0001H29.6922C28.5876 46.0001 27.6922 45.1047 27.6922 44.0001V40.0001C27.6922 38.8955 28.5876 38.0001 29.6922 38.0001H35.9614C35.9827 38.0001 36 37.9828 36 37.9615L36 31.6923C36 30.5877 36.8954 29.6923 38 29.6923L42 29.6923C43.1046 29.6923 44 30.5877 44 31.6923L44 37.9615C44 37.9828 44.0173 38.0001 44.0386 38.0001H50.3076C51.4121 38.0001 52.3076 38.8955 52.3076 40.0001V44.0001C52.3076 45.1047 51.4121 46.0001 50.3076 46.0001L44.0383 46.0001C44.0171 46.0001 44 46.0173 44 46.0384V52.3077C44 53.4122 43.1045 54.3077 42 54.3077H38C36.8954 54.3077 36 53.4122 36 52.3077Z" fill="currentColor" />
  <path d="M30 13C30 10.7909 31.7909 9 34 9H46C48.2091 9 50 10.7909 50 13C50 15.2091 48.2091 17 46 17H34C31.7909 17 30 15.2091 30 13Z" stroke="currentColor" stroke-width="3" />
  <path d="M37 8C37 7.44772 37.4477 7 38 7H42C42.5523 7 43 7.44772 43 8C43 8.55228 42.5523 9 42 9H38C37.4477 9 37 8.55228 37 8Z" stroke="currentColor" stroke-width="3" />
</svg>