<svg viewBox="0 0 80 80" fill="none">
  <path d="M27 16C27 14.3431 25.6569 13 24 13C22.3431 13 21 14.3431 21 16H27ZM21 64C21 65.6569 22.3431 67 24 67C25.6569 67 27 65.6569 27 64H21ZM53.2462 65.1882C53.9023 66.7096 55.6675 67.4111 57.1889 66.755C58.7103 66.0989 59.4118 64.3337 58.7558 62.8123L53.2462 65.1882ZM48.6217 39.3119C47.9657 37.7905 46.2004 37.089 44.679 37.7451C43.1576 38.4012 42.4561 40.1664 43.1122 41.6878L48.6217 39.3119ZM27 39.5V16.5H21V39.5H27ZM24.5 37C25.8807 37 27 38.1193 27 39.5H21C21 41.433 22.567 43 24.5 43V37ZM44 37H24.5V43H44V37ZM53 28C53 32.9706 48.9706 37 44 37V43C52.2843 43 59 36.2843 59 28H53ZM44 19C48.9706 19 53 23.0294 53 28H59C59 19.7157 52.2843 13 44 13V19ZM24.5 19H44V13H24.5V19ZM27 16.5C27 17.8807 25.8807 19 24.5 19V13C22.567 13 21 14.567 21 16.5H27ZM21 16V64H27V16H21ZM58.7558 62.8123L48.6217 39.3119L43.1122 41.6878L53.2462 65.1882L58.7558 62.8123Z" fill="currentColor" />
</svg>