<svg viewBox="0 0 80 80" fill="none">
  <path d="M18.6999 41.0708C21.4173 39.7622 24.5827 39.7622 27.3001 41.0708C30.0174 42.3794 31.991 44.8542 32.6622 47.7947C33.3333 50.7351 32.6289 53.8211 30.7485 56.1792C28.868 58.5372 26.0161 59.9107 23 59.9107C19.9839 59.9107 17.132 58.5372 15.2515 56.1792C13.3711 53.8211 12.6667 50.7351 13.3378 47.7947C14.009 44.8542 15.9826 42.3794 18.6999 41.0708Z" fill="currentColor" />
  <path d="M52.6999 41.0708C55.4173 39.7622 58.5827 39.7622 61.3001 41.0708C64.0174 42.3794 65.991 44.8542 66.6622 47.7947C67.3333 50.7351 66.6289 53.8211 64.7485 56.1792C62.868 58.5372 60.0161 59.9107 57 59.9107C53.9839 59.9107 51.132 58.5372 49.2515 56.1792C47.3711 53.8211 46.6667 50.7351 47.3378 47.7947C48.009 44.8542 49.9826 42.3794 52.6999 41.0708Z" fill="currentColor" />
  <path fill-rule="evenodd" clip-rule="evenodd" d="M8 31H60C66.6274 31 72 36.3726 72 43V45C72 47.6035 70.7564 49.9165 68.8308 51.3773C68.9857 50.0476 68.9171 48.6861 68.612 47.3496C67.8055 43.8158 65.4336 40.8416 62.1678 39.2689C58.9021 37.6962 55.0979 37.6962 51.8322 39.2689C48.5664 40.8416 46.1945 43.8158 45.388 47.3496C44.9573 49.2365 44.9979 51.1732 45.4733 53H34.5267C35.0021 51.1732 35.0427 49.2365 34.612 47.3496C33.8055 43.8158 31.4336 40.8416 28.1678 39.2689C24.9021 37.6962 21.0979 37.6962 17.8322 39.2689C14.5664 40.8416 12.1945 43.8158 11.388 47.3496C11.2573 47.9223 11.17 48.4996 11.1251 49.077C9.18362 46.945 8 44.1107 8 41V31ZM64.3224 52.9936C64.2155 52.9979 64.108 53 64 53H49.6802C49.0688 51.5079 48.9209 49.8466 49.2877 48.2397C49.8234 45.8927 51.3987 43.9173 53.5677 42.8727C55.7367 41.8282 58.2633 41.8282 60.4323 42.8727C62.6013 43.9173 64.1766 45.8927 64.7123 48.2397C65.0786 49.8443 64.9316 51.5032 64.3224 52.9936ZM30.7123 48.2397C31.0791 49.8466 30.9312 51.5079 30.3198 53H20C18.3572 53 16.7915 52.6699 15.3656 52.0724C15.03 50.8357 14.9954 49.5204 15.2877 48.2397C15.8234 45.8927 17.3987 43.9173 19.5677 42.8727C21.7367 41.8282 24.2633 41.8282 26.4323 42.8727C28.6013 43.9173 30.1766 45.8927 30.7123 48.2397Z" fill="currentColor" />
  <path d="M48.4237 19H34.167V31H58.0003L51.8368 20.9142C51.1102 19.7252 49.8171 19 48.4237 19Z" stroke="currentColor" stroke-width="5" stroke-linecap="round" stroke-linejoin="round" />
  <path d="M34.1667 19L14 31H34.1667V19Z" stroke="currentColor" stroke-width="5" stroke-linecap="round" stroke-linejoin="round" />
</svg>