<svg viewBox="0 0 80 80" fill="none">
  <path fill-rule="evenodd" clip-rule="evenodd" d="M27.5 30.8641C27.5 27.7809 29.2593 25.044 31.9098 23.7134C33.6436 26.0129 36.3982 27.4995 39.5 27.4995C42.4226 27.4995 45.037 26.1797 46.7797 24.1036C49.0414 25.5365 50.5 28.0568 50.5 30.8641V47.4995C50.5 50.4833 49.3636 53.2018 47.5 55.2456V51.9999C47.5 47.0294 43.4706 42.9999 38.5 42.9999C33.5294 42.9999 29.5 47.0294 29.5 51.9999V53.9822C28.2381 52.1364 27.5 49.9042 27.5 47.4995V30.8641Z" fill="currentColor" />
  <path d="M31.9098 23.7134L34.3052 21.9073C33.4329 20.7504 31.8586 20.3822 30.5638 21.0323L31.9098 23.7134ZM46.7797 24.1036L48.3853 21.5694C47.1161 20.7653 45.4479 21.0241 44.4819 22.1748L46.7797 24.1036ZM47.5 55.2456H44.5C44.5 56.4842 45.2612 57.5954 46.4161 58.0429C47.571 58.4904 48.8823 58.1821 49.7168 57.2669L47.5 55.2456ZM29.5 53.9822L27.0235 55.6754C27.766 56.7613 29.1293 57.2369 30.3861 56.8483C31.643 56.4597 32.5 55.2977 32.5 53.9822H29.5ZM30.5638 21.0323C26.9207 22.8612 24.5 26.6227 24.5 30.8641H30.5C30.5 28.9392 31.598 27.2267 33.2557 26.3945L30.5638 21.0323ZM39.5 24.4995C37.3796 24.4995 35.4965 23.4874 34.3052 21.9073L29.5144 25.5195C31.7906 28.5385 35.4168 30.4995 39.5 30.4995V24.4995ZM44.4819 22.1748C43.2848 23.6009 41.4988 24.4995 39.5 24.4995V30.4995C43.3465 30.4995 46.7892 28.7585 49.0775 26.0323L44.4819 22.1748ZM53.5 30.8641C53.5 27.002 51.4922 23.5378 48.3853 21.5694L45.1741 26.6378C46.5907 27.5353 47.5 29.1117 47.5 30.8641H53.5ZM53.5 47.4995V30.8641H47.5V47.4995H53.5ZM49.7168 57.2669C52.0645 54.6921 53.5 51.26 53.5 47.4995H47.5C47.5 49.7067 46.6627 51.7114 45.2832 53.2242L49.7168 57.2669ZM44.5 51.9999V55.2456H50.5V51.9999H44.5ZM38.5 45.9999C41.8137 45.9999 44.5 48.6862 44.5 51.9999H50.5C50.5 45.3725 45.1274 39.9999 38.5 39.9999V45.9999ZM32.5 51.9999C32.5 48.6862 35.1863 45.9999 38.5 45.9999V39.9999C31.8726 39.9999 26.5 45.3725 26.5 51.9999H32.5ZM32.5 53.9822V51.9999H26.5V53.9822H32.5ZM24.5 47.4995C24.5 50.5273 25.4314 53.3467 27.0235 55.6754L31.9765 52.289C31.0447 50.9262 30.5 49.281 30.5 47.4995H24.5ZM24.5 30.8641V47.4995H30.5V30.8641H24.5Z" fill="currentColor" />
  <path fill-rule="evenodd" clip-rule="evenodd" d="M34.044 15.5C33.6947 16.2611 33.5 17.1078 33.5 18C33.5 18.8922 33.6947 19.7389 34.044 20.5H24.5C23.1193 20.5 22 19.3807 22 18C22 16.6193 23.1193 15.5 24.5 15.5H34.044ZM44.956 20.5C45.3053 19.7389 45.5 18.8922 45.5 18C45.5 17.1078 45.3053 16.2611 44.956 15.5H54.5C55.8807 15.5 57 16.6193 57 18C57 19.3807 55.8807 20.5 54.5 20.5H44.956Z" fill="currentColor" />
  <path d="M34.044 15.5L35.4073 16.1257C35.6205 15.6613 35.5825 15.1203 35.3067 14.6902C35.0308 14.2601 34.555 14 34.044 14V15.5ZM34.044 20.5V22C34.555 22 35.0308 21.7399 35.3067 21.3098C35.5825 20.8797 35.6205 20.3387 35.4073 19.8743L34.044 20.5ZM44.956 20.5L43.5927 19.8743C43.3795 20.3387 43.4175 20.8797 43.6933 21.3098C43.9692 21.7399 44.445 22 44.956 22V20.5ZM44.956 15.5V14C44.445 14 43.9692 14.2601 43.6933 14.6902C43.4175 15.1203 43.3795 15.6613 43.5927 16.1257L44.956 15.5ZM35 18C35 17.3281 35.1463 16.6944 35.4073 16.1257L32.6808 14.8743C32.2432 15.8277 32 16.8875 32 18H35ZM35.4073 19.8743C35.1463 19.3056 35 18.6719 35 18H32C32 19.1125 32.2432 20.1723 32.6808 21.1257L35.4073 19.8743ZM24.5 22H34.044V19H24.5V22ZM20.5 18C20.5 20.2091 22.2909 22 24.5 22V19C23.9477 19 23.5 18.5523 23.5 18H20.5ZM24.5 14C22.2909 14 20.5 15.7909 20.5 18H23.5C23.5 17.4477 23.9477 17 24.5 17V14ZM34.044 14H24.5V17H34.044V14ZM44 18C44 18.6719 43.8537 19.3056 43.5927 19.8743L46.3192 21.1257C46.7568 20.1723 47 19.1125 47 18H44ZM43.5927 16.1257C43.8537 16.6944 44 17.3281 44 18H47C47 16.8875 46.7568 15.8277 46.3192 14.8743L43.5927 16.1257ZM44.956 17H54.5V14H44.956V17ZM54.5 17C55.0523 17 55.5 17.4477 55.5 18H58.5C58.5 15.7909 56.7091 14 54.5 14V17ZM55.5 18C55.5 18.5523 55.0523 19 54.5 19V22C56.7091 22 58.5 20.2091 58.5 18H55.5ZM54.5 19H44.956V22H54.5V19Z" fill="currentColor" />
  <rect x="34.5" y="48" width="8" height="20" rx="4" fill="currentColor" />
  <rect x="33.5" y="12" width="12" height="12" rx="6" stroke="currentColor" stroke-width="5" stroke-linecap="square" stroke-linejoin="round" />
</svg>