<svg viewBox="0 0 80 80" fill="none">
  <path fill-rule="evenodd" clip-rule="evenodd" d="M13.5775 30.724C15.8197 22.3559 22.3559 15.8197 30.724 13.5775C39.092 11.3353 48.0206 13.7277 54.1464 19.8536C60.2723 25.9794 62.6647 34.908 60.4225 43.276C58.1802 51.6441 51.6441 58.1802 43.276 60.4225C34.908 62.6647 25.9794 60.2723 19.8536 54.1464C13.7277 48.0206 11.3353 39.092 13.5775 30.724ZM52.0887 55.9828L64.6608 68.5548C65.8324 69.7264 67.7318 69.7264 68.9034 68.5548C70.075 67.3833 70.075 65.4838 68.9034 64.3122L56.288 51.6967C55.0707 53.2939 53.6597 54.7338 52.0887 55.9828ZM36.9951 19.2776C33.9372 19.278 30.878 20.0694 28.1375 21.6516C22.6553 24.8168 19.278 30.6661 19.2776 36.9964C19.2776 38.6532 20.6206 39.9965 22.2775 39.9966C23.9343 39.9966 25.2776 38.6536 25.2776 36.9967C25.2779 32.8099 27.5116 28.9412 31.1375 26.8477C32.9502 25.8012 34.9724 25.2779 36.9959 25.2776C38.6528 25.2774 39.9957 23.9341 39.9955 22.2772C39.9953 20.6204 38.652 19.2774 36.9951 19.2776Z" fill="currentColor" />
</svg>