<svg viewBox="0 0 80 80" fill="none">
  <path fill-rule="evenodd" clip-rule="evenodd" d="M39.9998 13C33.8098 16.1734 26.9135 17.8608 19.8641 17.8608C18.9124 17.8608 17.9634 17.8301 17.0186 17.7691C15.7991 23.3474 15.6641 29.1518 16.6707 34.8601C18.4725 45.0788 23.8171 54.336 31.7659 61.0058C34.3145 63.1443 37.0786 64.973 39.9999 66.4707C42.9213 64.973 45.6854 63.1443 48.2339 61.0058C56.1827 54.336 61.5273 45.0788 63.3292 34.8601C64.3357 29.1518 64.2008 23.3474 62.9812 17.769C62.0364 17.8301 61.0874 17.8608 60.1356 17.8608C53.0862 17.8608 46.1899 16.1734 39.9998 13Z" fill="currentColor" />
  <path d="M39.9998 13L40.9123 11.2203C40.3394 10.9266 39.6602 10.9266 39.0874 11.2203L39.9998 13ZM17.0186 17.7691L17.1475 15.7732C16.161 15.7095 15.2759 16.3761 15.0648 17.3419L17.0186 17.7691ZM16.6707 34.8601L14.7011 35.2074L16.6707 34.8601ZM31.7659 61.0058L33.0515 59.4737L31.7659 61.0058ZM39.9999 66.4707L39.0875 68.2504C39.6603 68.5441 40.3395 68.5441 40.9123 68.2504L39.9999 66.4707ZM48.2339 61.0058L49.5195 62.5379L48.2339 61.0058ZM63.3292 34.8601L65.2988 35.2074L63.3292 34.8601ZM62.9812 17.769L64.9351 17.3419C64.7239 16.3761 63.8388 15.7095 62.8523 15.7732L62.9812 17.769ZM39.0874 11.2203C33.1778 14.2499 26.594 15.8608 19.8641 15.8608V19.8608C27.233 19.8608 34.4418 18.0969 40.9123 14.7797L39.0874 11.2203ZM19.8641 15.8608C18.9555 15.8608 18.0495 15.8315 17.1475 15.7732L16.8898 19.7649C17.8774 19.8287 18.8693 19.8608 19.8641 19.8608V15.8608ZM15.0648 17.3419C13.79 23.1729 13.6489 29.2404 14.7011 35.2074L18.6403 34.5128C17.6794 29.0632 17.8082 23.5218 18.9725 18.1962L15.0648 17.3419ZM14.7011 35.2074C16.5845 45.8892 22.1714 55.5658 30.4803 62.5379L33.0515 59.4737C25.4629 53.1061 20.3605 44.2684 18.6403 34.5128L14.7011 35.2074ZM30.4803 62.5379C33.1444 64.7733 36.0337 66.6849 39.0875 68.2504L40.9123 64.691C38.1234 63.2611 35.4846 61.5153 33.0515 59.4737L30.4803 62.5379ZM40.9123 68.2504C43.9661 66.6849 46.8555 64.7733 49.5195 62.5379L46.9484 59.4737C44.5152 61.5153 41.8765 63.2611 39.0875 64.691L40.9123 68.2504ZM49.5195 62.5379C57.8285 55.5658 63.4153 45.8892 65.2988 35.2074L61.3596 34.5128C59.6394 44.2684 54.5369 53.1061 46.9484 59.4737L49.5195 62.5379ZM65.2988 35.2074C66.3509 29.2404 66.2099 23.1729 64.9351 17.3419L61.0274 18.1962C62.1917 23.5218 62.3205 29.0632 61.3596 34.5128L65.2988 35.2074ZM62.8523 15.7732C61.9503 15.8315 61.0443 15.8608 60.1356 15.8608V19.8608C61.1305 19.8608 62.1224 19.8287 63.1101 19.7649L62.8523 15.7732ZM60.1356 15.8608C53.4056 15.8608 46.8219 14.2499 40.9123 11.2203L39.0874 14.7797C45.5579 18.0969 52.7667 19.8608 60.1356 19.8608V15.8608Z" fill="currentColor" />
</svg>