<svg viewBox="0 0 80 80" fill="none">
  <path d="M32 19.5C32 18.6716 32.6716 18 33.5 18H46.5C47.3285 18 48 18.6716 48 19.5V24H51.5C52.8807 24 54 25.1193 54 26.5V32.9078L42.7855 28.422C40.9974 27.7067 39.0027 27.7067 37.2146 28.422L26 32.9078V26.5C26 25.1193 27.1193 24 28.5 24H32V19.5Z" fill="currentColor" />
  <path d="M58.8204 42.3056C59.4924 39.8529 58.2163 37.2865 55.8551 36.342L41.857 30.7428C41.7392 30.6957 41.6202 30.6532 41.5 30.6154V62H49.6103C51.8629 62 53.8374 60.4937 54.4326 58.3212L58.8204 42.3056Z" fill="currentColor" />
  <path d="M38.5 62V30.6155C38.3799 30.6533 38.2608 30.6957 38.1431 30.7428L24.145 36.342C21.7838 37.2865 20.5077 39.8529 21.1796 42.3056L25.5675 58.3212C26.1627 60.4937 28.1372 62 30.3898 62H38.5Z" fill="currentColor" />
</svg>