<svg viewBox="0 0 80 80" fill="none">
  <path fill-rule="evenodd" clip-rule="evenodd" d="M27 22C23.134 22 20 25.134 20 29V51C20 54.866 23.134 58 27 58H53C56.866 58 60 54.866 60 51V29C60 25.134 56.866 22 53 22H27ZM28.5451 36.6283C28.5451 35.0038 29.1773 33.4459 30.3025 32.2973C31.4277 31.1486 32.9538 30.5033 34.5451 30.5033C36.1364 30.5033 37.6626 31.1486 38.7878 32.2973L40 33.5347L41.212 32.2975C42.3372 31.1488 43.8634 30.5035 45.4547 30.5035C47.046 30.5035 48.5721 31.1488 49.6973 32.2974C50.8225 33.4461 51.4547 35.004 51.4547 36.6285C51.4547 38.2529 50.8225 39.8109 49.6973 40.9595L40.9428 49.8964C40.9316 49.9079 40.9202 49.9191 40.9087 49.93C40.3859 50.4279 39.5665 50.4167 39.057 49.8966L39.0054 49.8435L30.3025 40.9594C29.1773 39.8107 28.5451 38.2527 28.5451 36.6283Z" fill="currentColor" />
  <path d="M28 16C28 13.7909 29.7909 12 32 12H48C50.2091 12 52 13.7909 52 16V19H28V16Z" fill="currentColor" />
  <path d="M28 61V64C28 66.2091 29.7909 68 32 68H48C50.2091 68 52 66.2091 52 64V61H28Z" fill="currentColor" />
</svg>