<svg viewBox="0 0 80 80" fill="none">
  <circle cx="40.0039" cy="60" r="4" fill="currentColor" stroke="currentColor" stroke-width="6" stroke-linecap="round" stroke-linejoin="round" />
  <path d="M30.286 47.9364L32.1565 50.2819L32.1565 50.2819L30.286 47.9364ZM36.5406 44.9243L37.2082 47.8491L36.5406 44.9243ZM24.3479 50.104C23.4546 51.4994 23.8616 53.3548 25.2569 54.2481C26.6523 55.1414 28.5077 54.7344 29.4011 53.339L24.3479 50.104ZM49.7374 47.9364L47.867 50.2819L47.867 50.2819L49.7374 47.9364ZM50.6211 53.337C51.5147 54.7322 53.3701 55.1388 54.7653 54.2452C56.1606 53.3516 56.5672 51.4961 55.6736 50.1009L50.6211 53.337ZM43.4828 44.9243L42.8152 47.8491L43.4828 44.9243ZM22.9916 36.7895L21.1212 34.444V34.444L22.9916 36.7895ZM33.9373 31.5184L33.2697 28.5936L33.9373 31.5184ZM15.8803 39.8113C14.8784 41.1309 15.136 43.0129 16.4557 44.0147C17.7753 45.0166 19.6572 44.759 20.6591 43.4394L15.8803 39.8113ZM57.0316 36.7895L58.9021 34.444V34.444L57.0316 36.7895ZM59.3626 43.4374C60.3646 44.7569 62.2466 45.0143 63.5661 44.0123C64.8856 43.0103 65.143 41.1283 64.141 39.8088L59.3626 43.4374ZM46.086 31.5184L46.7536 28.5936L46.086 31.5184ZM32.1565 50.2819C33.6363 49.1018 35.3629 48.2702 37.2082 47.8491L35.8731 41.9995C33.149 42.6213 30.6001 43.8488 28.4155 45.5909L32.1565 50.2819ZM29.4011 53.339C30.1439 52.1787 31.074 51.1451 32.1565 50.2819L28.4155 45.5909C26.8175 46.8653 25.4445 48.3911 24.3479 50.104L29.4011 53.339ZM47.867 50.2819C48.9488 51.1446 49.8784 52.1775 50.6211 53.337L55.6736 50.1009C54.5773 48.3893 53.205 46.8645 51.6079 45.5909L47.867 50.2819ZM42.8152 47.8491C44.6605 48.2702 46.3872 49.1018 47.867 50.2819L51.6079 45.5909C49.4234 43.8488 46.8744 42.6213 44.1504 41.9995L42.8152 47.8491ZM44.1504 41.9995C41.4263 41.3778 38.5971 41.3778 35.8731 41.9995L37.2082 47.8491C39.0535 47.4279 40.9699 47.4279 42.8152 47.8491L44.1504 41.9995ZM24.8621 39.135C27.716 36.8591 31.046 35.2554 34.6048 34.4432L33.2697 28.5936C28.8321 29.6065 24.6798 31.6061 21.1212 34.444L24.8621 39.135ZM20.6591 43.4394C21.8726 41.841 23.2833 40.3941 24.8621 39.135L21.1212 34.444C19.1525 36.014 17.3935 37.8182 15.8803 39.8113L20.6591 43.4394ZM55.1612 39.135C56.7393 40.3936 58.1494 41.8398 59.3626 43.4374L64.141 39.8088C62.6283 37.8167 60.87 36.0133 58.9021 34.444L55.1612 39.135ZM45.4184 34.4432C48.9772 35.2554 52.3073 36.8591 55.1612 39.135L58.9021 34.444C55.3435 31.6061 51.1911 29.6065 46.7536 28.5936L45.4184 34.4432ZM46.7536 28.5936C42.316 27.5808 37.7073 27.5808 33.2697 28.5936L34.6048 34.4432C38.1636 33.6309 41.8597 33.6309 45.4184 34.4432L46.7536 28.5936Z" fill="currentColor" />
</svg>