<svg viewBox="0 0 120 80" fill="none">
  <g clip-path="url(#clip0L-eQ)">
    <path d="M120 0H0V40H120V0Z" fill="#EB5757" />
    <path d="M120 40H0V80H120V40Z" fill="#333333" />
    <path fill-rule="evenodd" clip-rule="evenodd" d="M42.4724 56.6482C43.5281 57.0574 44.5972 57.3709 45.6704 57.593L45.4179 59.6383L48.3936 60.0193L48.6643 57.9786C50.6711 58.083 52.6605 57.8808 54.57 57.3998L55.2305 59.3536L58.0768 58.4058L57.4335 56.4445C59.2599 55.6785 60.9722 54.6433 62.5063 53.3673L63.9478 54.8396L66.1009 52.7507L64.6741 51.2666C65.9655 49.8094 67.0609 48.1415 67.9028 46.2882L69.8432 46.9904L70.8768 44.1741L68.9435 43.4546C69.4998 41.5007 69.7437 39.5194 69.7009 37.5693L71.7492 37.3605L71.4585 34.3747L69.4062 34.5651C69.062 32.6019 68.4269 30.7043 67.5291 28.9368L69.2882 27.8573L67.7307 25.2933L65.9638 26.3556C64.8204 24.7556 63.4346 23.3145 61.8339 22.0945L62.9476 20.3631L60.4319 18.7287L59.3009 20.4524C58.5448 20.04 57.7534 19.6716 56.9288 19.352L56.206 21.2168C65.4751 24.8097 70.0767 35.2364 66.4839 44.5055C62.891 53.7747 52.4644 58.3762 43.1952 54.7835L42.4724 56.6482Z" fill="#F2C94C" />
    <path d="M55.6997 26.0054L57.0399 30.1608L61.406 30.1513L57.8681 32.7099L59.2264 36.8595L55.6997 34.2854L52.173 36.8595L53.5313 32.7099L49.9934 30.1513L54.3596 30.1608L55.6997 26.0054Z" fill="#F2C94C" />
    <path opacity="0.9" d="M48.6997 46.0054L77.6997 64.0054" stroke="#F2C94C" stroke-width="2.5" stroke-linecap="round" stroke-linejoin="round" />
  </g>
  <defs>
    <clipPath id="clip0L-eQ">
      <rect width="120" height="80" fill="white" />
    </clipPath>
  </defs>
</svg>