<svg viewBox="0 0 120 80" fill="none">
  <rect width="120" height="80" fill="#2F80ED" />
  <rect width="120" height="8" fill="#EB5757" />
  <rect y="72" width="120" height="8" fill="#EB5757" />
  <path d="M59 65C72.8071 65 84 53.8071 84 40C84 26.1929 72.8071 15 59 15C45.1929 15 34 26.1929 34 40C34 53.8071 45.1929 65 59 65Z" fill="#F2F2F2" />
  <path d="M59 65C72.8071 65 84 53.8071 84 40C84 26.1929 72.8071 15 59 15C45.1929 15 34 26.1929 34 40C34 53.8071 45.1929 65 59 65Z" fill="#219653" />
  <path d="M59 59C69.4934 59 78 50.4934 78 40C78 29.5066 69.4934 21 59 21C48.5066 21 40 29.5066 40 40C40 50.4934 48.5066 59 59 59Z" fill="#F2F2F2" />
  <path d="M50 46.6665V40H68V46.6665L59 51.9999L50 46.6665Z" fill="#56CCF2" />
  <path d="M68 32H50V40H68V32Z" fill="#F2C94C" />
</svg>