<svg viewBox="0 0 120 80" fill="none">
  <g clip-path="url(#clip04AuT)">
    <path d="M120 0H0V80H120V0Z" fill="#2F80ED" />
    <path d="M27.4152 0.0771484H107.415V79.9213" fill="#F2C94C" />
    <path d="M9.99988 -8.51489L11.6457 -3.78014L16.6573 -3.67801L12.6628 -0.649645L14.1144 4.14823L9.99988 1.28511L5.88538 4.14823L7.33692 -0.649645L3.34248 -3.67801L8.35408 -3.78014L9.99988 -8.51489Z" fill="#F2F2F2" />
    <path d="M20.04 1.52539L21.6858 6.26014L26.6974 6.36227L22.703 9.39064L24.1545 14.1885L20.04 11.3254L15.9255 14.1885L17.3771 9.39064L13.3826 6.36227L18.3942 6.26014L20.04 1.52539Z" fill="#F2F2F2" />
    <path d="M30.0803 11.5654L31.7261 16.3002L36.7377 16.4023L32.7432 19.4307L34.1948 24.2285L30.0803 21.3654L25.9658 24.2285L27.4173 19.4307L23.4229 16.4023L28.4345 16.3002L30.0803 11.5654Z" fill="#F2F2F2" />
    <path d="M40.1204 21.6057L41.7662 26.3405L46.7778 26.4426L42.7834 29.471L44.2349 34.2688L40.1204 31.4057L36.0059 34.2688L37.4575 29.471L33.463 26.4426L38.4746 26.3405L40.1204 21.6057Z" fill="#F2F2F2" />
    <path d="M50.1606 31.646L51.8064 36.3807L56.818 36.4829L52.8236 39.5112L54.2751 44.3091L50.1606 41.446L46.0461 44.3091L47.4977 39.5112L43.5032 36.4829L48.5148 36.3807L50.1606 31.646Z" fill="#F2F2F2" />
    <path d="M60.2008 41.686L61.8466 46.4208L66.8582 46.5229L62.8638 49.5513L64.3153 54.3492L60.2008 51.486L56.0863 54.3492L57.5378 49.5513L53.5434 46.5229L58.555 46.4208L60.2008 41.686Z" fill="#F2F2F2" />
    <path d="M70.241 51.7263L71.8868 56.4611L76.8984 56.5632L72.904 59.5916L74.3555 64.3894L70.241 61.5263L66.1265 64.3894L67.5781 59.5916L63.5836 56.5632L68.5952 56.4611L70.241 51.7263Z" fill="#F2F2F2" />
    <path d="M80.2812 61.7666L81.927 66.5014L86.9386 66.6035L82.9442 69.6318L84.3957 74.4297L80.2812 71.5666L76.1668 74.4297L77.6183 69.6318L73.6239 66.6035L78.6355 66.5014L80.2812 61.7666Z" fill="#F2F2F2" />
    <path d="M90.3214 71.8066L91.9672 76.5414L96.9788 76.6435L92.9844 79.6719L94.4359 84.4698L90.3214 81.6066L86.2069 84.4698L87.6585 79.6719L83.664 76.6435L88.6756 76.5414L90.3214 71.8066Z" fill="#F2F2F2" />
  </g>
  <defs>
    <clipPath id="clip04AuT">
      <rect width="120" height="80" fill="white" />
    </clipPath>
  </defs>
</svg>