<svg width="120" height="80" viewBox="0 0 120 80" fill="none" xmlns="http://www.w3.org/2000/svg">
<g clip-path="url(#clip0)">
<rect width="51" height="31" fill="#2F80ED"/>
<rect width="51" height="31" transform="matrix(-1 0 0 1 120 49)" fill="#2F80ED"/>
<rect x="69" width="51" height="31" fill="#EB5757"/>
<rect width="51" height="31" transform="matrix(-1 0 0 1 51 49)" fill="#EB5757"/>
<rect y="31" width="120" height="18" fill="#F2F2F2"/>
<rect x="69" width="80" height="18" transform="rotate(90 69 0)" fill="#F2F2F2"/>
<path d="M54 34.0006C55.8242 32.9659 57.8936 32.4211 60 32.4211C62.1064 32.4211 64.1758 32.9659 66 34.0006" stroke="#2F80ED" stroke-width="3" stroke-linecap="round" stroke-linejoin="round"/>
<path d="M56.5716 46.6763C55.2644 45.9348 54.2427 44.7903 53.665 43.4201C53.0874 42.05 52.986 40.5309 53.3767 39.0984" stroke="#219653" stroke-width="4" stroke-linecap="round" stroke-linejoin="round"/>
<path d="M66.6237 39.0984C67.0144 40.5309 66.913 42.05 66.3354 43.4201C65.7577 44.7903 64.736 45.9348 63.4288 46.6763" stroke="#219653" stroke-width="4" stroke-linecap="round" stroke-linejoin="round"/>
<path d="M66 45.9995C64.1758 47.0342 62.1064 47.5789 60 47.5789C57.8936 47.5789 55.8242 47.0342 54 45.9995" stroke="#EB5757" stroke-width="3" stroke-linecap="round" stroke-linejoin="round"/>
<path d="M55.7144 35.7896H64.2858V40.767C64.2858 43.1339 62.367 45.0527 60.0001 45.0527C57.6331 45.0527 55.7144 43.1339 55.7144 40.767V35.7896Z" fill="#2F80ED"/>
<path d="M64.2858 40.4211V35.7896H60.0001V40.4211H64.2858Z" fill="#EB5757"/>
<path d="M55.7144 40.4211V40.767C55.7144 43.1339 57.6331 45.0527 60.0001 45.0527V40.4211H55.7144Z" fill="#EB5757"/>
</g>
<defs>
<clipPath id="clip0">
<rect width="120" height="80" fill="white"/>
</clipPath>
</defs>
</svg>
