<svg width="120" height="81" viewBox="0 0 120 81" fill="none" xmlns="http://www.w3.org/2000/svg">
<path d="M120 40H0V80H120V40Z" fill="#EB5757"/>
<path d="M120 0V40H0V0H120Z" fill="#2F80ED"/>
<rect x="46" y="26.0781" width="28" height="28" rx="4" fill="#F2F2F2"/>
<path d="M46 50.0781H74C74 52.2873 72.2091 54.0781 70 54.0781H50C47.7909 54.0781 46 52.2873 46 50.0781Z" fill="#219653"/>
<path fill-rule="evenodd" clip-rule="evenodd" d="M56.0345 37.6133C55.0968 38.551 54.6445 39.8972 54.7771 41.3559C54.8154 41.7774 54.9016 42.1983 55.0321 42.6109L53.0344 40.6133C52.0968 41.551 51.6445 42.8972 51.7771 44.3559C51.8796 45.4834 52.325 46.6066 53.0416 47.5781H54C54 46.1974 55.1193 45.0781 56.5 45.0781C57.8807 45.0781 59 46.1974 59 47.5781V45.0781H61V47.5781C61 46.1974 62.1193 45.0781 63.5 45.0781C64.8807 45.0781 66 46.1974 66 47.5781H67.0135C67.7299 46.6066 68.1753 45.4835 68.2778 44.3562C68.4104 42.8975 67.9581 41.5512 67.0204 40.6135L65.0228 42.6111C65.1532 42.1985 65.2395 41.7776 65.2778 41.3562C65.4104 39.8975 64.9581 38.5512 64.0204 37.6135L60.0276 41.6064L56.0345 37.6133Z" fill="#2F80ED"/>
<path d="M60 35.0781L60 50.0781" stroke="#F2994A" stroke-width="2"/>
<path fill-rule="evenodd" clip-rule="evenodd" d="M58 35.0779C58 35.0779 58 35.078 58 35.078L64 35.078H70C70 34.5527 69.8448 34.0326 69.5433 33.5473C69.2417 33.062 68.7998 32.621 68.2426 32.2496C67.6855 31.8782 67.0241 31.5835 66.2961 31.3825C66.0572 31.3165 65.8126 31.261 65.564 31.2163L69.2676 29.078C69.0049 28.6231 68.6105 28.2502 68.1067 27.9807C67.6029 27.7112 66.9997 27.5503 66.3314 27.5072C65.6632 27.4641 64.9431 27.5397 64.2121 27.7295C63.4812 27.9194 62.7538 28.2199 62.0714 28.6139C61.3891 29.0079 60.7651 29.4876 60.2352 30.0256C60.1669 30.0949 60.1004 30.165 60.0357 30.2359C59.9709 30.165 59.9044 30.0949 59.8361 30.0256C59.3062 29.4875 58.6822 29.0078 57.9999 28.6138C57.3175 28.2199 56.5901 27.9194 55.8591 27.7295C55.1282 27.5396 54.4081 27.464 53.7398 27.5071C53.0716 27.5502 52.4684 27.7111 51.9646 27.9806C51.4608 28.2502 51.0664 28.623 50.8037 29.0779L54.4905 31.2065C54.2231 31.2529 53.9603 31.3116 53.7039 31.3824C52.9759 31.5834 52.3145 31.878 51.7574 32.2495C51.2002 32.6209 50.7583 33.0618 50.4567 33.5471C50.1552 34.0324 50 34.5526 50 35.0779L56 35.0779H58Z" fill="#219653"/>
<path fill-rule="evenodd" clip-rule="evenodd" d="M63 46.1635C62.5738 46.3141 62.236 46.6519 62.0854 47.0781H63V46.1635ZM62.0854 48.0781C62.236 48.5043 62.5738 48.8421 63 48.9928V48.0781H62.0854ZM64 48.9928C64.4262 48.8421 64.764 48.5043 64.9146 48.0781H64V48.9928ZM64.9146 47.0781C64.764 46.6519 64.4262 46.3141 64 46.1635V47.0781H64.9146ZM63.5 45.0781C62.1193 45.0781 61 46.1974 61 47.5781C61 48.9588 62.1193 50.0781 63.5 50.0781C64.5252 50.0781 65.4062 49.4611 65.792 48.5781H69V49.5781H70V45.5781H69V46.5781H65.792C65.4062 45.6952 64.5252 45.0781 63.5 45.0781Z" fill="#F2C94C"/>
<path fill-rule="evenodd" clip-rule="evenodd" d="M57 46.1635C57.4262 46.3141 57.764 46.6519 57.9146 47.0781H57V46.1635ZM57.9146 48.0781C57.764 48.5043 57.4262 48.8421 57 48.9928V48.0781H57.9146ZM56 48.9928C55.5738 48.8421 55.236 48.5043 55.0854 48.0781H56V48.9928ZM55.0854 47.0781C55.236 46.6519 55.5738 46.3141 56 46.1635V47.0781H55.0854ZM56.5 45.0781C57.8807 45.0781 59 46.1974 59 47.5781C59 48.9588 57.8807 50.0781 56.5 50.0781C55.4748 50.0781 54.5938 49.4611 54.208 48.5781H51V49.5781H50V45.5781H51V46.5781H54.208C54.5938 45.6952 55.4748 45.0781 56.5 45.0781Z" fill="#F2C94C"/>
</svg>
