<svg viewBox="0 0 120 80" fill="none">
  <g clip-path="url(#clip0x-qN)">
    <path d="M120 0H0V80H120V0Z" fill="#F2F2F2" />
    <path d="M120 0H0V26.6667H120V0Z" fill="#6FCF97" />
    <path d="M120 53.34H0V80.01H120V53.34Z" fill="#EB5757" />
    <path d="M1.69727 23.9999V55.9999" stroke="#F2F2F2" stroke-width="5" />
    <path d="M10.6973 23.9999V55.9999" stroke="#F2F2F2" stroke-width="5" />
    <path d="M19.6973 23.9999V55.9999" stroke="#F2F2F2" stroke-width="5" />
    <path d="M28.6973 23.9999V55.9999" stroke="#F2F2F2" stroke-width="5" />
    <path d="M37.6973 23.9999V55.9999" stroke="#F2F2F2" stroke-width="5" />
    <path d="M46.6973 23.9999V55.9999" stroke="#F2F2F2" stroke-width="5" />
    <path d="M55.6973 23.9999V55.9999" stroke="#F2F2F2" stroke-width="5" />
    <path d="M64.6973 23.9999V55.9999" stroke="#F2F2F2" stroke-width="5" />
    <path d="M73.6973 23.9999V55.9999" stroke="#F2F2F2" stroke-width="5" />
    <path d="M82.6973 23.9999V55.9999" stroke="#F2F2F2" stroke-width="5" />
    <path d="M91.6973 23.9999V55.9999" stroke="#F2F2F2" stroke-width="5" />
    <path d="M100.697 23.9999V55.9999" stroke="#F2F2F2" stroke-width="5" />
    <path d="M109.697 23.9999V55.9999" stroke="#F2F2F2" stroke-width="5" />
    <path d="M118.697 23.9999V55.9999" stroke="#F2F2F2" stroke-width="5" />
    <path fill-rule="evenodd" clip-rule="evenodd" d="M62.7141 45.4308C62.1321 45.7407 61.4999 45.2638 61.4999 44.6043L61.4999 32C61.4999 31.4477 61.0522 31 60.4999 31H59.4999C58.9476 31 58.4999 31.4477 58.4999 32L58.4999 44.6043C58.4999 45.2638 57.8678 45.7407 57.2857 45.4308C57.0469 45.3036 56.8145 45.1592 56.5902 44.9977C55.5686 44.2626 54.7564 43.2056 54.2729 41.9484C53.7891 40.6907 53.6611 39.301 53.9089 37.9594C54.1567 36.618 54.766 35.3998 55.6443 34.4539L55.9845 34.0875C56.3603 33.6828 56.3369 33.0501 55.9322 32.6743L55.1994 31.9938C54.7947 31.618 54.1619 31.6415 53.7861 32.0462L53.4459 32.4126C52.1665 33.7904 51.3064 35.5328 50.9588 37.4145C50.6113 39.2959 50.7889 41.2471 51.4728 43.0254C52.157 44.8042 53.3224 46.3423 54.838 47.4328C54.85 47.4414 54.8571 47.4553 54.8571 47.47V48.1154C54.8571 48.6677 55.3048 49.1154 55.8571 49.1154H59.9999H64.1428C64.6951 49.1154 65.1428 48.6677 65.1428 48.1154V47.47C65.1428 47.4553 65.1499 47.4414 65.1619 47.4328C66.6775 46.3423 67.8428 44.8042 68.527 43.0254C69.211 41.2471 69.3885 39.2959 69.041 37.4145C68.6935 35.5328 67.8333 33.7904 66.5539 32.4126L66.2137 32.0462C65.8379 31.6415 65.2052 31.618 64.8005 31.9939L64.0677 32.6743C63.663 33.0501 63.6395 33.6828 64.0153 34.0875L64.3556 34.4539C65.2339 35.3998 65.8432 36.618 66.0909 37.9594C66.3387 39.3011 66.2108 40.6907 65.727 41.9484C65.2434 43.2056 64.4313 44.2626 63.4096 44.9977C63.1853 45.1592 62.9529 45.3036 62.7141 45.4308Z" fill="#EB5757" />
  </g>
  <defs>
    <clipPath id="clip0x-qN">
      <rect width="120" height="80" fill="white" />
    </clipPath>
  </defs>
</svg>