<svg width="120" height="80" viewBox="0 0 120 80" fill="none" xmlns="http://www.w3.org/2000/svg">
  <g clip-path="url(#clip0)">
    <rect width="120" height="80" fill="#EB5757" />
    <path d="M51.6866 8.98703L44.5 10.5L51.1284 10.8899C52.3595 10.9623 53.5571 11.3183 54.6278 11.9302L56.5 13L49.5 15L54.3691 15.8592C56.7584 16.2809 59.2123 16.1536 61.5452 15.4871L72 12.5L65.5 12L67.2872 10.2128C68.404 9.09595 69.8264 8.33471 71.3752 8.02497L76.5 7H68.3062C66.4897 7 64.7272 7.61825 63.3087 8.75305L60.5 11L56.2065 9.34866C54.7663 8.79473 53.1966 8.66914 51.6866 8.98703Z" fill="#F2C94C" />
    <path d="M60 20L61.1298 25.6444L63.1287 20.2462L63.3616 25.9979L66.1803 20.9789L65.5106 26.6961L69.0798 22.1799L67.524 27.722L71.7557 23.8197L69.3521 29.0502L74.1421 25.8579L70.9498 30.6479L76.1803 28.2443L72.278 32.476L77.8201 30.9202L73.3039 34.4894L79.0211 33.8197L74.0021 36.6384L79.7538 36.8713L74.3556 38.8702L80 40L74.3556 41.1298L79.7538 43.1287L74.0021 43.3616L79.0211 46.1803L73.3039 45.5106L77.8201 49.0798L72.278 47.524L76.1803 51.7557L70.9498 49.3521L74.1421 54.1421L69.3521 50.9498L71.7557 56.1803L67.524 52.278L69.0798 57.8201L65.5106 53.3039L66.1803 59.0211L63.3616 54.0021L63.1287 59.7538L61.1298 54.3556L60 60L58.8702 54.3556L56.8713 59.7538L56.6384 54.0021L53.8197 59.0211L54.4894 53.3039L50.9202 57.8201L52.476 52.278L48.2443 56.1803L50.6479 50.9498L45.8579 54.1421L49.0502 49.3521L43.8197 51.7557L47.722 47.524L42.1799 49.0798L46.6961 45.5106L40.9789 46.1803L45.9979 43.3616L40.2462 43.1287L45.6444 41.1298L40 40L45.6444 38.8702L40.2462 36.8713L45.9979 36.6384L40.9789 33.8197L46.6961 34.4894L42.1799 30.9202L47.722 32.476L43.8197 28.2443L49.0502 30.6479L45.8579 25.8579L50.6479 29.0502L48.2443 23.8197L52.476 27.722L50.9202 22.1799L54.4894 26.6961L53.8197 20.9789L56.6384 25.9979L56.8713 20.2462L58.8702 25.6444L60 20Z" fill="#F2C94C" />
    <circle cx="60" cy="40" r="12" stroke="#F2994A" />
    <path fill-rule="evenodd" clip-rule="evenodd" d="M132.898 43.9999L125.958 41.6864C122.058 40.3864 117.841 40.3864 113.941 41.6864L112.061 42.3133C109.392 43.2028 106.507 43.2028 103.839 42.3133L101.958 41.6864C98.058 40.3864 93.8415 40.3864 89.9414 41.6864L88.0607 42.3133C85.3922 43.2028 82.5073 43.2028 79.8388 42.3133L77.9581 41.6864C74.058 40.3864 69.8415 40.3864 65.9414 41.6864L64.0607 42.3133C61.3922 43.2028 58.5073 43.2028 55.8388 42.3133L53.9581 41.6864C50.058 40.3864 45.8415 40.3864 41.9414 41.6864L40.0607 42.3133C37.3922 43.2028 34.5073 43.2028 31.8388 42.3133L29.9581 41.6864C26.058 40.3864 21.8415 40.3864 17.9414 41.6864L16.0607 42.3133C13.3922 43.2028 10.5073 43.2028 7.83879 42.3133L5.95808 41.6864C2.05801 40.3864 -2.15851 40.3864 -6.05858 41.6864L-12.9989 43.9999L-12.1024 46.6893V81.9999H131.898V47.0025L132.898 43.9999Z" fill="#2F80ED" />
    <path d="M-12 44L-5.05964 41.6865C-1.77538 40.5918 1.77538 40.5918 5.05964 41.6865L6.94036 42.3135C10.2246 43.4082 13.7754 43.4082 17.0596 42.3135L18.9404 41.6865C22.2246 40.5918 25.7754 40.5918 29.0596 41.6865L30.9404 42.3135C34.2246 43.4082 37.7754 43.4082 41.0596 42.3135L42.9404 41.6865C46.2246 40.5918 49.7754 40.5918 53.0596 41.6865L54.9404 42.3135C58.2246 43.4082 61.7754 43.4082 65.0596 42.3135L66.9404 41.6865C70.2246 40.5918 73.7754 40.5918 77.0596 41.6865L78.9404 42.3135C82.2246 43.4082 85.7754 43.4082 89.0596 42.3135L90.9404 41.6865C94.2246 40.5918 97.7754 40.5918 101.06 41.6865L102.94 42.3135C106.225 43.4082 109.775 43.4082 113.06 42.3135L114.94 41.6865C118.225 40.5918 121.775 40.5918 125.06 41.6865L132 44" stroke="#F2F2F2" stroke-width="5" />
    <path d="M-12 54L-5.05964 51.6865C-1.77538 50.5918 1.77538 50.5918 5.05964 51.6865L6.94036 52.3135C10.2246 53.4082 13.7754 53.4082 17.0596 52.3135L18.9404 51.6865C22.2246 50.5918 25.7754 50.5918 29.0596 51.6865L30.9404 52.3135C34.2246 53.4082 37.7754 53.4082 41.0596 52.3135L42.9404 51.6865C46.2246 50.5918 49.7754 50.5918 53.0596 51.6865L54.9404 52.3135C58.2246 53.4082 61.7754 53.4082 65.0596 52.3135L66.9404 51.6865C70.2246 50.5918 73.7754 50.5918 77.0596 51.6865L78.9404 52.3135C82.2246 53.4082 85.7754 53.4082 89.0596 52.3135L90.9404 51.6865C94.2246 50.5918 97.7754 50.5918 101.06 51.6865L102.94 52.3135C106.225 53.4082 109.775 53.4082 113.06 52.3135L114.94 51.6865C118.225 50.5918 121.775 50.5918 125.06 51.6865L132 54" stroke="#F2F2F2" stroke-width="5" />
    <path d="M-12 64L-5.05964 61.6865C-1.77538 60.5918 1.77538 60.5918 5.05964 61.6865L6.94036 62.3135C10.2246 63.4082 13.7754 63.4082 17.0596 62.3135L18.9404 61.6865C22.2246 60.5918 25.7754 60.5918 29.0596 61.6865L30.9404 62.3135C34.2246 63.4082 37.7754 63.4082 41.0596 62.3135L42.9404 61.6865C46.2246 60.5918 49.7754 60.5918 53.0596 61.6865L54.9404 62.3135C58.2246 63.4082 61.7754 63.4082 65.0596 62.3135L66.9404 61.6865C70.2246 60.5918 73.7754 60.5918 77.0596 61.6865L78.9404 62.3135C82.2246 63.4082 85.7754 63.4082 89.0596 62.3135L90.9404 61.6865C94.2246 60.5918 97.7754 60.5918 101.06 61.6865L102.94 62.3135C106.225 63.4082 109.775 63.4082 113.06 62.3135L114.94 61.6865C118.225 60.5918 121.775 60.5918 125.06 61.6865L132 64" stroke="#F2F2F2" stroke-width="5" />
    <path d="M-12 74L-5.05964 71.6865C-1.77538 70.5918 1.77538 70.5918 5.05964 71.6865L6.94036 72.3135C10.2246 73.4082 13.7754 73.4082 17.0596 72.3135L18.9404 71.6865C22.2246 70.5918 25.7754 70.5918 29.0596 71.6865L30.9404 72.3135C34.2246 73.4082 37.7754 73.4082 41.0596 72.3135L42.9404 71.6865C46.2246 70.5918 49.7754 70.5918 53.0596 71.6865L54.9404 72.3135C58.2246 73.4082 61.7754 73.4082 65.0596 72.3135L66.9404 71.6865C70.2246 70.5918 73.7754 70.5918 77.0596 71.6865L78.9404 72.3135C82.2246 73.4082 85.7754 73.4082 89.0596 72.3135L90.9404 71.6865C94.2246 70.5918 97.7754 70.5918 101.06 71.6865L102.94 72.3135C106.225 73.4082 109.775 73.4082 113.06 72.3135L114.94 71.6865C118.225 70.5918 121.775 70.5918 125.06 71.6865L132 74" stroke="#F2F2F2" stroke-width="5" />
  </g>
  <defs>
    <clipPath id="clip0">
      <rect width="120" height="80" fill="white" />
    </clipPath>
  </defs>
</svg>