<svg viewBox="0 0 120 80" fill="none">
  <path d="M120 0H0V80H120V0Z" fill="#EB5757" />
  <path fill-rule="evenodd" clip-rule="evenodd" d="M61.5438 24.3258L60 19L58.4562 24.3258L55.9031 19.4035L55.428 24.9282L51.9636 20.5985L52.5755 26.1097L48.333 22.5391L50.0083 27.8251L45.1508 25.1508L47.8251 30.0083L42.5391 28.333L46.1097 32.5755L40.5985 31.9636L44.9282 35.428L39.4035 35.9031L44.3258 38.4562L39 40L44.3258 41.5438L39.4035 44.0969L44.9282 44.572L40.5985 48.0364L46.1097 47.4245L42.5391 51.667L47.8251 49.9917L45.1508 54.8492L50.0083 52.1749L48.333 57.4609L52.5755 53.8903L51.9636 59.4015L55.428 55.0718L55.9031 60.5965L58.4562 55.6742L60 61L61.5438 55.6742L64.0969 60.5965L64.572 55.0718L68.0364 59.4015L67.4245 53.8903L71.667 57.4609L69.9917 52.1749L74.8492 54.8492L72.1749 49.9917L77.4609 51.667L73.8903 47.4245L79.4015 48.0364L75.0718 44.572L80.5965 44.0969L75.6742 41.5438L81 40L75.6742 38.4562L80.5965 35.9031L75.0718 35.428L79.4015 31.9636L73.8903 32.5755L77.4609 28.333L72.1749 30.0083L74.8492 25.1508L69.9917 27.8251L71.667 22.5391L67.4245 26.1097L68.0364 20.5985L64.572 24.9282L64.0969 19.4035L61.5438 24.3258ZM60 54C67.732 54 74 47.732 74 40C74 32.268 67.732 26 60 26C52.268 26 46 32.268 46 40C46 47.732 52.268 54 60 54Z" fill="#F2C94C" />
  <path fill-rule="evenodd" clip-rule="evenodd" d="M69.7008 45.1905C70.5298 43.6444 71 41.8771 71 40C71 37.1366 69.9059 34.5288 68.1131 32.5717C66.1523 33.039 64.2982 33.7813 62.5938 34.7556C65.8125 37.5093 68.2939 41.1 69.7008 45.1905ZM67.4284 48.1129C66.3163 43.4469 63.647 39.3849 60.0001 36.5065C56.3532 39.3849 53.6838 43.447 52.5717 48.1131C54.5288 49.906 57.1366 51 60 51C62.8634 51 65.4713 49.9059 67.4284 48.1129ZM51.887 32.5717C50.0941 34.5288 49 37.1366 49 40C49 41.8772 49.4702 43.6445 50.2993 45.1907C51.7062 41.1001 54.1876 37.5094 57.4064 34.7556C55.702 33.7813 53.8478 33.039 51.887 32.5717ZM65.1907 30.2993C63.6445 29.4702 61.8772 29 60 29C58.1229 29 56.3556 29.4702 54.8094 30.2992C56.6512 30.9327 58.3917 31.784 60.0001 32.8224C61.6084 31.784 63.3489 30.9327 65.1907 30.2993Z" fill="#F2C94C" />
</svg>