<svg width="120" height="80" viewBox="0 0 120 80" fill="none" xmlns="http://www.w3.org/2000/svg">
<g clip-path="url(#clip0)">
<path d="M120 -0.0202637H0V26.6464H120V-0.0202637Z" fill="#333333"/>
<path d="M120 26.6465H0V53.3132H120V26.6465Z" fill="#EB5757"/>
<path d="M120 53.313H0V79.9797H120V53.313Z" fill="#219653"/>
<path fill-rule="evenodd" clip-rule="evenodd" d="M61 2.98963C60.9999 2.43739 60.5522 1.98975 60 1.98975C59.4478 1.98975 59.0001 2.43739 59 2.98963V2.98986L58.9994 8.01922C58.9994 8.56194 59.4573 8.98975 60 8.98975C60.5427 8.98975 61.0006 8.56194 61.0006 8.01922L61 2.98986V2.98963ZM62.8014 8.21939C62.6806 8.74858 63.0369 9.26816 63.5662 9.38864C64.0949 9.50899 64.6318 9.19319 64.7524 8.66458L65.8701 3.76511L65.8704 3.76396L65.8704 3.76374C65.9932 3.22534 65.6564 2.68929 65.118 2.5664C64.5796 2.44352 64.0435 2.78032 63.9206 3.3187L63.9205 3.31892L62.8014 8.21939ZM66.4631 9.26293C66.2278 9.75149 66.4568 10.3359 66.9452 10.5716C67.434 10.8075 68.0306 10.6203 68.266 10.1313L70.4464 5.60242L70.4465 5.60221C70.686 5.10463 70.4769 4.50707 69.9793 4.26746C69.4818 4.02785 68.8842 4.23692 68.6445 4.73445L68.6444 4.73465L66.4631 9.26293ZM69.7988 11.0976C69.4606 11.5216 69.5524 12.1416 69.9763 12.48C70.4005 12.8187 71.0249 12.7698 71.3633 12.3453L74.4985 8.41303L74.4987 8.41286C74.8429 7.98106 74.772 7.35194 74.3403 7.00762C73.9085 6.66331 73.2794 6.73416 72.935 7.16588L72.9349 7.16605L72.9315 7.17029L69.7988 11.0976ZM72.6444 13.6264C72.22 13.9648 72.171 14.5893 72.5097 15.0135C72.8482 15.4373 73.4681 15.5291 73.8921 15.1909L77.8237 12.0549L77.8239 12.0547C78.2556 11.7104 78.3264 11.0812 77.9821 10.6495C77.6378 10.2177 77.0087 10.1468 76.5769 10.4911L76.5767 10.4912L72.6444 13.6264ZM74.8585 16.7237C74.3694 16.9592 74.1822 17.5557 74.4181 18.0446C74.6538 18.5329 75.2383 18.762 75.7268 18.5267L80.2489 16.3483L80.2551 16.3453L80.2553 16.3452C80.7528 16.1056 80.9619 15.508 80.7223 15.0104C80.4827 14.5129 79.8851 14.3037 79.3875 14.5433L79.3873 14.5434L74.8585 16.7237ZM76.3252 20.2373C75.7966 20.3579 75.4808 20.8948 75.6011 21.4235C75.7216 21.9528 76.2412 22.3092 76.7704 22.1883L81.6708 21.0692L81.671 21.0692C82.2094 20.9462 82.5462 20.4102 82.4233 19.8718C82.3005 19.3334 81.7644 18.9965 81.226 19.1193L81.2258 19.1194L76.3252 20.2373ZM76.9705 23.9892C76.4278 23.9891 76 24.447 76 24.9897H83C83 24.4375 82.5524 23.9898 82.0001 23.9897H81.9999L76.9705 23.9892ZM44 24.9897C44 24.447 43.5722 23.9891 43.0295 23.9892L38.0001 23.9897H37.9999C37.4476 23.9898 37 24.4375 37 24.9897H44ZM48 24.9897C48 18.3623 53.3726 12.9897 60 12.9897C66.6274 12.9897 72 18.3623 72 24.9897H48ZM43.2296 22.1883C43.7588 22.3092 44.2784 21.9528 44.3989 21.4235C44.5192 20.8948 44.2034 20.3579 43.6748 20.2373L38.7754 19.1196L38.7742 19.1194L38.774 19.1193C38.2356 18.9965 37.6995 19.3334 37.5767 19.8718C37.4538 20.4102 37.7906 20.9462 38.329 21.0692L38.3292 21.0692L43.2296 22.1883ZM44.2732 18.5267C44.7617 18.762 45.3462 18.5329 45.5819 18.0446C45.8178 17.5557 45.6306 16.9592 45.1415 16.7237L40.6127 14.5434L40.6125 14.5433C40.1149 14.3037 39.5173 14.5129 39.2777 15.0104C39.0381 15.508 39.2472 16.1056 39.7447 16.3452L39.7449 16.3453L44.2732 18.5267ZM46.1079 15.1909C46.5319 15.5291 47.1518 15.4373 47.4903 15.0135C47.829 14.5893 47.78 13.9648 47.3556 13.6264L43.4233 10.4912L43.4231 10.4911C42.9913 10.1468 42.3622 10.2177 42.0179 10.6495C41.6736 11.0812 41.7444 11.7104 42.1761 12.0547L42.1763 12.0549L42.1769 12.0554L46.1079 15.1909ZM48.6367 12.3453C48.9751 12.7698 49.5995 12.8188 50.0237 12.48C50.4476 12.1416 50.5394 11.5216 50.2012 11.0976L47.0656 7.16665L47.0651 7.16605L47.065 7.16588C46.7206 6.73416 46.0915 6.66331 45.6597 7.00762C45.228 7.35194 45.1571 7.98106 45.5013 8.41286L45.5015 8.41303L48.6367 12.3453ZM51.734 10.1313C51.9694 10.6203 52.566 10.8075 53.0548 10.5716C53.5432 10.3359 53.7722 9.75149 53.5369 9.26293L51.3556 4.73465L51.3555 4.73445C51.1158 4.23692 50.5182 4.02785 50.0207 4.26746C49.5231 4.50707 49.314 5.10463 49.5535 5.60221L49.5536 5.60242L51.734 10.1313ZM55.2476 8.66458C55.3682 9.19319 55.9051 9.50899 56.4338 9.38864C56.9631 9.26816 57.3194 8.74858 57.1986 8.21938L56.0795 3.31892L56.0794 3.3187C55.9565 2.78032 55.4204 2.44352 54.882 2.5664C54.3436 2.68929 54.0068 3.22534 54.1296 3.76374L54.1296 3.76396L54.1299 3.76511L55.2476 8.66458Z" fill="#EB5757"/>
</g>
<defs>
<clipPath id="clip0">
<rect width="120" height="80" fill="white"/>
</clipPath>
</defs>
</svg>
