<svg width="120" height="80" viewBox="0 0 120 80" fill="none" xmlns="http://www.w3.org/2000/svg">
  <rect width="120" height="80" fill="#2F80ED" />
  <g clip-path="url(#clip0)">
    <rect width="60" height="40" fill="#2F80ED" />
    <path d="M0 0L60 40M60 0L0 40" stroke="#F2F2F2" stroke-width="8" />
    <path d="M0 0L60 40M60 0L0 40" stroke="#EB5757" stroke-width="3" />
    <path d="M30 40V0M0 20H60" stroke="#F2F2F2" stroke-width="12" />
    <path d="M30 40V0M0 20H60" stroke="#EB5757" stroke-width="7" />
  </g>
  <path d="M92.4759 6.84653C92.4093 6.63999 92.217 6.5 92 6.5C91.783 6.5 91.5907 6.63999 91.5241 6.84653L90.7427 9.2695L88.1969 9.26393C87.9799 9.26346 87.7873 9.40303 87.7202 9.60942C87.6532 9.81582 87.7269 10.0419 87.9028 10.1691L89.9657 11.661L89.1737 14.0805C89.1062 14.2868 89.1794 14.513 89.355 14.6406C89.5305 14.7681 89.7683 14.7679 89.9436 14.6399L92 13.139L94.0564 14.6399C94.2317 14.7679 94.4695 14.7681 94.645 14.6406C94.8206 14.513 94.8938 14.2868 94.8263 14.0805L94.0343 11.661L96.0972 10.1691C96.2731 10.0419 96.3468 9.81582 96.2798 9.60942C96.2127 9.40303 96.0201 9.26346 95.8031 9.26393L93.2573 9.2695L92.4759 6.84653Z" fill="#EB5757" stroke="#F2F2F2" stroke-linejoin="round" />
  <path d="M104.476 21.8465C104.409 21.64 104.217 21.5 104 21.5C103.783 21.5 103.591 21.64 103.524 21.8465L102.743 24.2695L100.197 24.2639C99.9799 24.2635 99.7873 24.403 99.7202 24.6094C99.6532 24.8158 99.7269 25.0419 99.9028 25.1691L101.966 26.661L101.174 29.0805C101.106 29.2868 101.179 29.513 101.355 29.6406C101.531 29.7681 101.768 29.7679 101.944 29.6399L104 28.139L106.056 29.6399C106.232 29.7679 106.469 29.7681 106.645 29.6406C106.821 29.513 106.894 29.2868 106.826 29.0805L106.034 26.661L108.097 25.1691C108.273 25.0419 108.347 24.8158 108.28 24.6094C108.213 24.403 108.02 24.2635 107.803 24.2639L105.257 24.2695L104.476 21.8465Z" fill="#EB5757" stroke="#F2F2F2" stroke-linejoin="round" />
  <path d="M75.4759 26.8465C75.4093 26.64 75.217 26.5 75 26.5C74.783 26.5 74.5907 26.64 74.5241 26.8465L73.7427 29.2695L71.1969 29.2639C70.9799 29.2635 70.7873 29.403 70.7202 29.6094C70.6532 29.8158 70.7269 30.0419 70.9028 30.1691L72.9657 31.661L72.1737 34.0805C72.1062 34.2868 72.1794 34.513 72.355 34.6406C72.5305 34.7681 72.7683 34.7679 72.9436 34.6399L75 33.139L77.0564 34.6399C77.2317 34.7679 77.4695 34.7681 77.645 34.6406C77.8206 34.513 77.8938 34.2868 77.8263 34.0805L77.0343 31.661L79.0972 30.1691C79.2731 30.0419 79.3468 29.8158 79.2798 29.6094C79.2127 29.403 79.0201 29.2635 78.8031 29.2639L76.2573 29.2695L75.4759 26.8465Z" fill="#EB5757" stroke="#F2F2F2" stroke-linejoin="round" />
  <path d="M92.4759 60.8465C92.4093 60.64 92.217 60.5 92 60.5C91.783 60.5 91.5907 60.64 91.5241 60.8465L90.7427 63.2695L88.1969 63.2639C87.9799 63.2635 87.7873 63.403 87.7202 63.6094C87.6532 63.8158 87.7269 64.0419 87.9028 64.1691L89.9657 65.661L89.1737 68.0805C89.1062 68.2868 89.1794 68.513 89.355 68.6406C89.5305 68.7681 89.7683 68.7679 89.9436 68.6399L92 67.139L94.0564 68.6399C94.2317 68.7679 94.4695 68.7681 94.645 68.6406C94.8206 68.513 94.8938 68.2868 94.8263 68.0805L94.0343 65.661L96.0972 64.1691C96.2731 64.0419 96.3468 63.8158 96.2798 63.6094C96.2127 63.403 96.0201 63.2635 95.8031 63.2639L93.2573 63.2695L92.4759 60.8465Z" fill="#EB5757" stroke="#F2F2F2" stroke-linejoin="round" />
  <defs>
    <clipPath id="clip0">
      <rect width="60" height="40" fill="white" />
    </clipPath>
  </defs>
</svg>