<svg width="120" height="80" viewBox="0 0 120 80" fill="none" xmlns="http://www.w3.org/2000/svg">
  <path d="M120 0H0V79.9983H120V0Z" fill="#219653" />
  <path fill-rule="evenodd" clip-rule="evenodd" d="M65.5157 24.1774C66.3219 23.3711 67.1856 22.6574 68.0936 22.0361C65.0805 22.9646 62.2435 24.6212 59.8588 27.0058C52.0484 34.8163 52.0484 47.4796 59.8588 55.2901C67.6693 63.1006 80.3326 63.1006 88.1431 55.2901C90.5277 52.9054 92.1843 50.0684 93.1128 47.0553C92.4915 47.9633 91.7778 48.827 90.9715 49.6332C83.9421 56.6627 72.5451 56.6627 65.5157 49.6332C58.4863 42.6038 58.4863 31.2068 65.5157 24.1774ZM84.3046 27.3482L79.1258 24.7094L81.7645 29.8883L77.6546 33.9982L83.3954 33.089L86.0341 38.2678L86.9434 32.527L92.6841 31.6178L87.5053 28.979L88.4146 23.2382L84.3046 27.3482Z" fill="#F2F2F2" />
  <path d="M28 0H0V80H28V0Z" fill="#F2F2F2" />
</svg>