<svg width="120" height="80" viewBox="0 0 120 80" fill="none" xmlns="http://www.w3.org/2000/svg">
  <path d="M120 0H0V80H120V0Z" fill="#EB5757" />
  <path d="M48 0V41.3043V80H0V0H48Z" fill="#219653" />
  <path d="M48 58C57.9411 58 66 49.9411 66 40C66 30.0589 57.9411 22 48 22C38.0589 22 30 30.0589 30 40C30 49.9411 38.0589 58 48 58Z" fill="#F2C94C" />
  <path d="M38 30H58V42C58 47.5228 53.5228 52 48 52C42.4772 52 38 47.5228 38 42V30Z" fill="#F2F2F2" />
  <path d="M40.5 32.5H55.5V42C55.5 46.1421 52.1421 49.5 48 49.5C43.8579 49.5 40.5 46.1421 40.5 42V32.5Z" stroke="#EB5757" stroke-width="5" />
</svg>