<svg width="120" height="80" viewBox="0 0 120 80" fill="none" xmlns="http://www.w3.org/2000/svg">
<path d="M120 0V80H0V0H120Z" fill="#EB5757"/>
<path d="M30 0V80H0V0H30Z" fill="#F2F2F2"/>
<path d="M42 4L30 0V8L42 4Z" fill="#F2F2F2"/>
<path d="M42 12L30 8V16L42 12Z" fill="#F2F2F2"/>
<path d="M42 20L30 16V24L42 20Z" fill="#F2F2F2"/>
<path d="M42 28L30 24V32L42 28Z" fill="#F2F2F2"/>
<path d="M42 36L30 32V40L42 36Z" fill="#F2F2F2"/>
<path d="M42 44L30 40V48L42 44Z" fill="#F2F2F2"/>
<path d="M42 52L30 48V56L42 52Z" fill="#F2F2F2"/>
<path d="M42 60L30 56V64L42 60Z" fill="#F2F2F2"/>
<path d="M42 68L30 64V72L42 68Z" fill="#F2F2F2"/>
<path d="M42 76L30 72V80L42 76Z" fill="#F2F2F2"/>
</svg>
