<svg width="120" height="80" viewBox="0 0 120 80" fill="none" xmlns="http://www.w3.org/2000/svg">
  <g clip-path="url(#clip0)">
    <path d="M120 0H0V80H120V0Z" fill="#56CCF2" />
    <path d="M120 0V39.0281L0 40V0H120Z" fill="#F2F2F2" />
    <mask id="path-3-outside-1" maskUnits="userSpaceOnUse" x="40" y="28" width="40" height="36" fill="black">
      <rect fill="white" x="40" y="28" width="40" height="36" />
      <path d="M71.5911 38.3765C72.0675 40.4508 72.1285 42.6251 71.7694 44.7313C71.4103 46.8374 70.6408 48.819 69.5202 50.5227C68.3997 52.2263 66.9583 53.6064 65.3075 54.5562C63.6566 55.506 61.8406 56 60 56C58.1593 56 56.3434 55.506 54.6925 54.5562C53.0417 53.6064 51.6003 52.2263 50.4798 50.5227C49.3592 48.819 48.5897 46.8374 48.2306 44.7313C47.8715 42.6251 47.9325 40.4508 48.4089 38.3765L60 42L71.5911 38.3765Z" />
    </mask>
    <path d="M71.5911 38.3765C72.0675 40.4508 72.1285 42.6251 71.7694 44.7313C71.4103 46.8374 70.6408 48.819 69.5202 50.5227C68.3997 52.2263 66.9583 53.6064 65.3075 54.5562C63.6566 55.506 61.8406 56 60 56C58.1593 56 56.3434 55.506 54.6925 54.5562C53.0417 53.6064 51.6003 52.2263 50.4798 50.5227C49.3592 48.819 48.5897 46.8374 48.2306 44.7313C47.8715 42.6251 47.9325 40.4508 48.4089 38.3765L60 42L71.5911 38.3765Z" stroke="#219653" stroke-width="16" mask="url(#path-3-outside-1)" />
    <ellipse cx="60" cy="42" rx="12" ry="14" fill="#56CCF2" />
    <mask id="path-5-inside-2" fill="white">
      <path fill-rule="evenodd" clip-rule="evenodd" d="M69.1053 29.1408C72.4489 32.229 74.5 36.9519 74.5 42C74.5 50.7373 68.3558 58.5 60 58.5C51.6442 58.5 45.5 50.7373 45.5 42C45.5 36.9519 47.5511 32.229 50.8947 29.1408C50.3307 28.3637 50 27.4189 50 26.4C50 23.749 52.2386 21.6 55 21.6C56.3627 21.6 57.5981 22.1234 58.5 22.9721V20.7H56.6667V17.7L58.5 17.7V16H61.5V17.7L63.3333 17.7V20.7H61.5V22.9721C62.4019 22.1234 63.6373 21.6 65 21.6C67.7614 21.6 70 23.749 70 26.4C70 27.4189 69.6693 28.3637 69.1053 29.1408ZM64.6599 32C67.4646 33.916 69.5 37.5259 69.5 42C69.5 48.7267 64.899 53.5 60 53.5C55.101 53.5 50.5 48.7267 50.5 42C50.5 37.5259 52.5354 33.916 55.3401 32H64.6599Z" />
    </mask>
    <path fill-rule="evenodd" clip-rule="evenodd" d="M69.1053 29.1408C72.4489 32.229 74.5 36.9519 74.5 42C74.5 50.7373 68.3558 58.5 60 58.5C51.6442 58.5 45.5 50.7373 45.5 42C45.5 36.9519 47.5511 32.229 50.8947 29.1408C50.3307 28.3637 50 27.4189 50 26.4C50 23.749 52.2386 21.6 55 21.6C56.3627 21.6 57.5981 22.1234 58.5 22.9721V20.7H56.6667V17.7L58.5 17.7V16H61.5V17.7L63.3333 17.7V20.7H61.5V22.9721C62.4019 22.1234 63.6373 21.6 65 21.6C67.7614 21.6 70 23.749 70 26.4C70 27.4189 69.6693 28.3637 69.1053 29.1408ZM64.6599 32C67.4646 33.916 69.5 37.5259 69.5 42C69.5 48.7267 64.899 53.5 60 53.5C55.101 53.5 50.5 48.7267 50.5 42C50.5 37.5259 52.5354 33.916 55.3401 32H64.6599Z" fill="#F2994A" />
    <path d="M69.1053 29.1408L66.6774 27.3786L65.1116 29.536L67.0698 31.3446L69.1053 29.1408ZM50.8947 29.1408L52.9302 31.3446L54.8884 29.536L53.3226 27.3786L50.8947 29.1408ZM58.5 22.9721L56.444 25.1568L61.5 29.915V22.9721H58.5ZM58.5 20.7H61.5V17.7H58.5V20.7ZM56.6667 20.7H53.6667V23.7H56.6667V20.7ZM56.6667 17.7V14.7L53.6667 14.7V17.7H56.6667ZM58.5 17.7V20.7H61.5V17.7H58.5ZM58.5 16V13H55.5V16H58.5ZM61.5 16H64.5V13H61.5V16ZM61.5 17.7H58.5V20.7H61.5V17.7ZM63.3333 17.7H66.3333V14.7L63.3333 14.7V17.7ZM63.3333 20.7V23.7H66.3333V20.7H63.3333ZM61.5 20.7V17.7H58.5V20.7H61.5ZM61.5 22.9721H58.5V29.915L63.556 25.1568L61.5 22.9721ZM64.6599 32L66.3522 29.5229L65.5868 29H64.6599V32ZM55.3401 32V29H54.4132L53.6478 29.5229L55.3401 32ZM77.5 42C77.5 36.1678 75.1371 30.628 71.1408 26.937L67.0698 31.3446C69.7608 33.83 71.5 37.7359 71.5 42H77.5ZM60 61.5C70.4487 61.5 77.5 51.9215 77.5 42H71.5C71.5 49.553 66.2629 55.5 60 55.5V61.5ZM42.5 42C42.5 51.9215 49.5513 61.5 60 61.5V55.5C53.7371 55.5 48.5 49.553 48.5 42H42.5ZM48.8592 26.937C44.8629 30.628 42.5 36.1678 42.5 42H48.5C48.5 37.7359 50.2392 33.83 52.9302 31.3446L48.8592 26.937ZM47 26.4C47 28.0814 47.5486 29.6379 48.4667 30.9029L53.3226 27.3786C53.1128 27.0895 53 26.7564 53 26.4H47ZM55 18.6C50.6983 18.6 47 21.9779 47 26.4H53C53 25.5201 53.7788 24.6 55 24.6V18.6ZM60.556 20.7874C59.1078 19.4245 57.1407 18.6 55 18.6V24.6C55.5848 24.6 56.0885 24.8222 56.444 25.1568L60.556 20.7874ZM55.5 20.7V22.9721H61.5V20.7H55.5ZM56.6667 23.7H58.5V17.7H56.6667V23.7ZM53.6667 17.7V20.7H59.6667V17.7H53.6667ZM58.5 14.7L56.6667 14.7V20.7H58.5V14.7ZM55.5 16V17.7H61.5V16H55.5ZM61.5 13H58.5V19H61.5V13ZM64.5 17.7V16H58.5V17.7H64.5ZM63.3333 14.7L61.5 14.7V20.7H63.3333V14.7ZM66.3333 20.7V17.7H60.3333V20.7H66.3333ZM61.5 23.7H63.3333V17.7H61.5V23.7ZM64.5 22.9721V20.7H58.5V22.9721H64.5ZM65 18.6C62.8594 18.6 60.8922 19.4245 59.444 20.7874L63.556 25.1568C63.9115 24.8222 64.4152 24.6 65 24.6V18.6ZM73 26.4C73 21.9779 69.3017 18.6 65 18.6V24.6C66.2212 24.6 67 25.5201 67 26.4H73ZM71.5333 30.9029C72.4514 29.6379 73 28.0814 73 26.4H67C67 26.7564 66.8872 27.0895 66.6774 27.3786L71.5333 30.9029ZM72.5 42C72.5 36.6175 70.0411 32.0429 66.3522 29.5229L62.9676 34.4771C64.8881 35.7891 66.5 38.4344 66.5 42H72.5ZM60 56.5C66.945 56.5 72.5 49.9656 72.5 42H66.5C66.5 47.4878 62.8531 50.5 60 50.5V56.5ZM47.5 42C47.5 49.9656 53.055 56.5 60 56.5V50.5C57.1469 50.5 53.5 47.4878 53.5 42H47.5ZM53.6478 29.5229C49.9589 32.0429 47.5 36.6175 47.5 42H53.5C53.5 38.4344 55.1119 35.7891 57.0324 34.4771L53.6478 29.5229ZM55.3401 35H64.6599V29H55.3401V35Z" fill="#F2994A" mask="url(#path-5-inside-2)" />
    <rect x="51" y="55" width="18" height="6" fill="#F2F2F2" />
    <rect x="44" y="59" width="10" height="4" fill="#F2F2F2" />
    <rect x="66" y="59" width="10" height="4" fill="#F2F2F2" />
  </g>
  <defs>
    <clipPath id="clip0">
      <rect width="120" height="80" fill="white" />
    </clipPath>
  </defs>
</svg>