<svg width="120" height="81" viewBox="0 0 120 81" fill="none" xmlns="http://www.w3.org/2000/svg">
  <g clip-path="url(#clip0)">
    <path d="M120 0H0V80.0008H120V0Z" fill="#219653" />
    <path fill-rule="evenodd" clip-rule="evenodd" d="M45 36V25C45 24.4477 45.4477 24 46 24H48C48.5523 24 49 24.4477 49 25V36C49 40.0803 45.9453 43.4471 41.998 43.9384C41.45 44.0066 41 43.5523 41 43V41C41 40.4477 41.4547 40.0128 41.9899 39.8766C43.7202 39.4361 45 37.8675 45 36ZM51 41C51 40.4477 51.4477 40 52 40H56C56.5523 40 57 40.4477 57 41V43C57 43.5523 56.5523 44 56 44H52C51.4477 44 51 43.5523 51 43V41ZM76 24C75.4477 24 75 24.4477 75 25V33V36C75 37.8675 73.7202 39.4361 71.9899 39.8766C71.4547 40.0128 71 40.4477 71 41V43C71 43.5523 71.45 44.0066 71.998 43.9384C75.9453 43.4471 79 40.0803 79 36V33V25C79 24.4477 78.5523 24 78 24H76ZM63 31V25C63 24.4477 63.4477 24 64 24H66C66.5523 24 67 24.4477 67 25V31V33V36C67 40.0803 63.9453 43.4471 59.998 43.9384C59.45 44.0066 59 43.5523 59 43V41C59 40.4477 59.4547 40.0128 59.9899 39.8766C61.7202 39.4361 63 37.8675 63 36C63 35.9483 62.9526 35.9096 62.9018 35.9189C62.6093 35.9722 62.3079 36 62 36C61.1433 36 60.3369 35.7845 59.6321 35.4048C59.2403 35.1938 58.7597 35.1938 58.3679 35.4048C57.6631 35.7845 56.8567 36 56 36C53.2386 36 51 33.7614 51 31V25C51 24.4477 51.4477 24 52 24H54C54.5523 24 55 24.4477 55 25V31C55 31.5523 55.4477 32 56 32C56.5523 32 57 31.5523 57 31V25C57 24.4477 57.4477 24 58 24H60C60.5523 24 61 24.4477 61 25V31C61 31.5523 61.4477 32 62 32C62.5523 32 63 31.5523 63 31ZM70 24C69.4477 24 69 24.4477 69 25V34.5C69 35.0523 69.4477 35.5 70 35.5H72C72.5523 35.5 73 35.0523 73 34.5V25C73 24.4477 72.5523 24 72 24H70Z" fill="#F2F2F2" />
    <path fill-rule="evenodd" clip-rule="evenodd" d="M70.5 53.5V53H68.5V53.5H44V55.5H68.5V56H70.5V55.5H76V53.5H70.5Z" fill="#F2F2F2" />
  </g>
  <defs>
    <clipPath id="clip0">
      <rect width="120" height="80" fill="white" />
    </clipPath>
  </defs>
</svg>