<svg viewBox="0 0 120 80" fill="none">
  <path d="M120 0H0V80H120V0Z" fill="#F2F2F2" />
  <path d="M120 0H0V40H120V0Z" fill="#EB5757" />
  <path fill-rule="evenodd" clip-rule="evenodd" d="M31.9408 7.17681C24.8763 7.29313 19.1856 12.9897 19.1856 20C19.1856 27.0103 24.8763 32.7069 31.9408 32.8232C30.5939 33.2624 29.1543 33.5 27.6585 33.5C20.1151 33.5 14 27.4558 14 20C14 12.5442 20.1151 6.5 27.6585 6.5C29.1543 6.5 30.5939 6.73764 31.9408 7.17681Z" fill="#F2F2F2" />
  <path d="M32.4387 10.55L33.052 12.4157H35.0367L33.4311 13.5687L34.0444 15.4343L32.4387 14.2813L30.8331 15.4343L31.4464 13.5687L29.8407 12.4157H31.8254L32.4387 10.55Z" fill="#F2F2F2" />
  <path d="M25.6096 15.95L26.2229 17.8157H28.2076L26.602 18.9687L27.2153 20.8343L25.6096 19.6813L24.004 20.8343L24.6173 18.9687L23.0116 17.8157H24.9963L25.6096 15.95Z" fill="#F2F2F2" />
  <path d="M28.3411 23.375L28.9544 25.2407H30.9391L29.3334 26.3937L29.9467 28.2593L28.3411 27.1063L26.7354 28.2593L27.3487 26.3937L25.7431 25.2407H27.7278L28.3411 23.375Z" fill="#F2F2F2" />
  <path d="M36.5364 23.375L37.1497 25.2407H39.1344L37.5287 26.3937L38.1421 28.2593L36.5364 27.1063L34.9307 28.2593L35.544 26.3937L33.9384 25.2407H35.9231L36.5364 23.375Z" fill="#F2F2F2" />
  <path d="M39.2678 15.95L39.8811 17.8157H41.8658L40.2602 18.9687L40.8735 20.8343L39.2678 19.6813L37.6622 20.8343L38.2755 18.9687L36.6698 17.8157H38.6545L39.2678 15.95Z" fill="#F2F2F2" />
</svg>