<svg width="120" height="80" viewBox="0 0 120 80" fill="none" xmlns="http://www.w3.org/2000/svg">
  <g clip-path="url(#clip0)">
    <path d="M120 0H0V80H120V0Z" fill="#F2F2F2" />
    <circle cx="60.0004" cy="40.0002" r="80" transform="rotate(-45 60.0004 40.0002)" fill="#F2F2F2" />
    <path d="M69.8994 49.8992C72.5248 47.2739 74 43.7128 74 40C74 38.1436 73.2624 36.3631 71.9497 35.0505C70.637 33.7377 68.8562 33 66.9997 33C65.1433 33 63.3628 33.7375 62.0501 35.0501C60.7375 36.3628 60 38.1436 60 40L60 40.0026C59.9993 41.858 59.2617 43.6375 57.9497 44.9495C56.637 46.2623 54.8562 47 52.9997 47C51.1433 47 49.3628 46.2625 48.0501 44.9499C46.7381 43.6378 46.0007 41.8581 46 40.0027C46.0007 43.7146 47.4756 47.2749 50.1003 49.8997C52.7257 52.5251 56.2867 54 59.9996 54C63.7126 54 67.2739 52.5247 69.8994 49.8992Z" fill="#2F80ED" />
    <path d="M50.1005 30.1008C47.4752 32.7261 46 36.2872 46 40C46 41.8564 46.7376 43.6369 48.0503 44.9495C49.363 46.2623 51.1438 47 53.0003 47C54.8567 47 56.6372 46.2625 57.9499 44.9499C59.2625 43.6372 60 41.8564 60 40L60 39.9974C60.0007 38.142 60.7382 36.3625 62.0503 35.0505C63.363 33.7377 65.1438 33 67.0003 33C68.8567 33 70.6372 33.7375 71.9499 35.0501C73.2619 36.3622 73.9993 38.1419 74 39.9973C73.9993 36.2854 72.5244 32.7251 69.8997 30.1003C67.2742 27.4749 63.7133 26 60.0004 26C56.2874 26 52.7261 27.4753 50.1005 30.1008Z" fill="#EB5757" />
    <path fill-rule="evenodd" clip-rule="evenodd" d="M41.6152 18.7868L38.7868 21.6152L35.2513 25.1507C34.8608 25.5413 34.2276 25.5413 33.8371 25.1507L33.13 24.4436C32.7394 24.0531 32.7394 23.42 33.13 23.0294L36.6655 19.4939L39.4939 16.6655L43.0295 13.1299C43.42 12.7394 44.0531 12.7394 44.4437 13.1299L45.1508 13.837C45.5413 14.2276 45.5413 14.8607 45.1508 15.2513L41.6152 18.7868Z" fill="#333333" />
    <path fill-rule="evenodd" clip-rule="evenodd" d="M44.4434 21.6152L41.6149 24.4436L38.0794 27.9792C37.6889 28.3697 37.0557 28.3697 36.6652 27.9792L35.9581 27.2721C35.5676 26.8815 35.5676 26.2484 35.9581 25.8579L39.4936 22.3223L42.322 19.4939L45.8576 15.9584C46.2481 15.5678 46.8813 15.5678 47.2718 15.9584L47.9789 16.6655C48.3694 17.056 48.3694 17.6892 47.9789 18.0797L44.4434 21.6152Z" fill="#333333" />
    <path fill-rule="evenodd" clip-rule="evenodd" d="M47.2725 24.4436L44.444 27.2721L40.9085 30.8076C40.518 31.1981 39.8848 31.1981 39.4943 30.8076L38.7872 30.1005C38.3967 29.71 38.3967 29.0768 38.7872 28.6863L42.3227 25.1507L45.1511 22.3223L48.6867 18.7868C49.0772 18.3963 49.7104 18.3963 50.1009 18.7868L50.808 19.4939C51.1985 19.8844 51.1985 20.5176 50.808 20.9081L47.2725 24.4436Z" fill="#333333" />
    <path fill-rule="evenodd" clip-rule="evenodd" d="M74.8495 13.837C74.4589 14.2276 74.4589 14.8607 74.8495 15.2512L77.6779 18.0797C78.0684 18.4702 78.7016 18.4702 79.0921 18.0797L79.7992 17.3726C80.1897 16.982 80.1897 16.3489 79.7992 15.9583L76.9708 13.1299C76.5803 12.7394 75.9471 12.7394 75.5566 13.1299L74.8495 13.837ZM81.9205 20.9081C81.53 21.2986 81.53 21.9318 81.9205 22.3223L84.749 25.1507C85.1395 25.5413 85.7726 25.5413 86.1632 25.1507L86.8703 24.4436C87.2608 24.0531 87.2608 23.4199 86.8703 23.0294L84.0418 20.201C83.6513 19.8105 83.0182 19.8105 82.6276 20.201L81.9205 20.9081Z" fill="#333333" />
    <path fill-rule="evenodd" clip-rule="evenodd" d="M78.3853 24.4436L75.5569 21.6152L72.0213 18.0797C71.6308 17.6891 71.6308 17.056 72.0213 16.6655L72.7284 15.9583C73.119 15.5678 73.7521 15.5678 74.1427 15.9583L77.6782 19.4939L80.5066 22.3223L84.0421 25.8578C84.4327 26.2484 84.4327 26.8815 84.0421 27.2721L83.335 27.9792C82.9445 28.3697 82.3114 28.3697 81.9208 27.9792L78.3853 24.4436Z" fill="#333333" />
    <path fill-rule="evenodd" clip-rule="evenodd" d="M69.1922 19.4939C68.8017 19.8844 68.8017 20.5176 69.1922 20.9081L72.0207 23.7365C72.4112 24.127 73.0443 24.127 73.4349 23.7365L74.142 23.0294C74.5325 22.6389 74.5325 22.0057 74.142 21.6152L71.3136 18.7868C70.923 18.3962 70.2899 18.3962 69.8993 18.7868L69.1922 19.4939ZM76.2633 26.5649C75.8728 26.9555 75.8728 27.5886 76.2633 27.9792L79.0917 30.8076C79.4823 31.1981 80.1154 31.1981 80.5059 30.8076L81.213 30.1005C81.6036 29.71 81.6036 29.0768 81.213 28.6863L78.3846 25.8578C77.9941 25.4673 77.3609 25.4673 76.9704 25.8578L76.2633 26.5649Z" fill="#333333" />
    <path fill-rule="evenodd" clip-rule="evenodd" d="M86.1629 54.8493C85.7724 54.4587 85.1392 54.4587 84.7487 54.8493L81.9203 57.6777C81.5298 58.0682 81.5298 58.7014 81.9203 59.0919L82.6274 59.799C83.0179 60.1895 83.6511 60.1895 84.0416 59.799L86.87 56.9706C87.2606 56.58 87.2606 55.9469 86.87 55.5564L86.1629 54.8493ZM79.0919 61.9203C78.7013 61.5298 78.0682 61.5298 77.6777 61.9203L74.8492 64.7487C74.4587 65.1393 74.4587 65.7724 74.8492 66.163L75.5563 66.8701C75.9469 67.2606 76.58 67.2606 76.9705 66.8701L79.799 64.0416C80.1895 63.6511 80.1895 63.018 79.799 62.6274L79.0919 61.9203Z" fill="#333333" />
    <path fill-rule="evenodd" clip-rule="evenodd" d="M83.3348 52.0208C82.9443 51.6303 82.3111 51.6303 81.9206 52.0208L79.0922 54.8492C78.7016 55.2398 78.7016 55.8729 79.0922 56.2635L79.7993 56.9706C80.1898 57.3611 80.823 57.3611 81.2135 56.9706L84.0419 54.1421C84.4324 53.7516 84.4324 53.1185 84.0419 52.7279L83.3348 52.0208ZM76.2637 59.0919C75.8732 58.7014 75.2401 58.7014 74.8495 59.0919L72.0211 61.9203C71.6306 62.3108 71.6306 62.944 72.0211 63.3345L72.7282 64.0416C73.1187 64.4322 73.7519 64.4322 74.1424 64.0416L76.9708 61.2132C77.3614 60.8227 77.3614 60.1895 76.9708 59.799L76.2637 59.0919Z" fill="#333333" />
    <path fill-rule="evenodd" clip-rule="evenodd" d="M80.5057 49.1924C80.1152 48.8019 79.482 48.8019 79.0915 49.1924L76.2631 52.0208C75.8725 52.4114 75.8725 53.0445 76.2631 53.435L76.9702 54.1421C77.3607 54.5327 77.9939 54.5327 78.3844 54.1421L81.2128 51.3137C81.6033 50.9232 81.6033 50.29 81.2128 49.8995L80.5057 49.1924ZM73.4346 56.2635C73.0441 55.8729 72.411 55.8729 72.0204 56.2635L69.192 59.0919C68.8015 59.4824 68.8015 60.1156 69.192 60.5061L69.8991 61.2132C70.2896 61.6037 70.9228 61.6037 71.3133 61.2132L74.1417 58.3848C74.5323 57.9943 74.5323 57.3611 74.1417 56.9706L73.4346 56.2635Z" fill="#333333" />
    <path fill-rule="evenodd" clip-rule="evenodd" d="M38.7866 58.3848L41.615 61.2132L45.1505 64.7488C45.5411 65.1393 45.5411 65.7724 45.1505 66.163L44.4434 66.8701C44.0529 67.2606 43.4197 67.2606 43.0292 66.8701L39.4937 63.3345L36.6653 60.5061L33.1297 56.9706C32.7392 56.5801 32.7392 55.9469 33.1297 55.5564L33.8368 54.8493C34.2274 54.4587 34.8605 54.4587 35.251 54.8493L38.7866 58.3848Z" fill="#333333" />
    <path fill-rule="evenodd" clip-rule="evenodd" d="M47.9787 63.3345C48.3692 62.944 48.3692 62.3109 47.9787 61.9203L45.1502 59.0919C44.7597 58.7014 44.1266 58.7014 43.736 59.0919L43.0289 59.799C42.6384 60.1895 42.6384 60.8227 43.0289 61.2132L45.8573 64.0416C46.2479 64.4322 46.881 64.4322 47.2716 64.0416L47.9787 63.3345ZM40.9076 56.2635C41.2981 55.873 41.2981 55.2398 40.9076 54.8493L38.0792 52.0208C37.6886 51.6303 37.0555 51.6303 36.665 52.0208L35.9579 52.7279C35.5673 53.1185 35.5673 53.7516 35.9579 54.1422L38.7863 56.9706C39.1768 57.3611 39.81 57.3611 40.2005 56.9706L40.9076 56.2635Z" fill="#333333" />
    <path fill-rule="evenodd" clip-rule="evenodd" d="M44.4438 52.7279L47.2722 55.5564L50.8078 59.0919C51.1983 59.4824 51.1983 60.1156 50.8078 60.5061L50.1007 61.2132C49.7101 61.6038 49.077 61.6038 48.6864 61.2132L45.1509 57.6777L42.3225 54.8493L38.787 51.3137C38.3964 50.9232 38.3964 50.29 38.787 49.8995L39.4941 49.1924C39.8846 48.8019 40.5177 48.8019 40.9083 49.1924L44.4438 52.7279Z" fill="#333333" />
  </g>
  <defs>
    <clipPath id="clip0">
      <rect width="120" height="80" fill="white" />
    </clipPath>
  </defs>
</svg>