<svg width="120" height="80" viewBox="0 0 120 80" fill="none" xmlns="http://www.w3.org/2000/svg">
<g clip-path="url(#clip0)">
<path d="M120 0H0V80H120V0Z" fill="#F2F2F2"/>
<path d="M120 0H0V26.6667H120V0Z" fill="#EB5757"/>
<path opacity="0.9" d="M120 53.3333H0V80H120V53.3333Z" fill="#333333"/>
<path d="M45 32L47.0206 38.2188H53.5595L48.2694 42.0623L50.2901 48.2812L45 44.4377L39.7099 48.2812L41.7306 42.0623L36.4405 38.2188H42.9794L45 32Z" fill="#6FCF97"/>
<path d="M75 32L77.0206 38.2188H83.5595L78.2694 42.0623L80.2901 48.2812L75 44.4377L69.7099 48.2812L71.7306 42.0623L66.4405 38.2188H72.9794L75 32Z" fill="#6FCF97"/>
</g>
<defs>
<clipPath id="clip0">
<rect width="120" height="80" fill="white"/>
</clipPath>
</defs>
</svg>
