<svg width="120" height="80" viewBox="0 0 120 80" fill="none" xmlns="http://www.w3.org/2000/svg">
<path d="M120 0H0V80H120V0Z" fill="#EB5757"/>
<circle cx="60" cy="40" r="24" fill="#F2F2F2"/>
<path fill-rule="evenodd" clip-rule="evenodd" d="M70.5691 26.8492C68.6666 25.9385 66.5358 25.4286 64.2859 25.4286C56.2383 25.4286 49.7144 31.9525 49.7144 40C49.7144 48.0476 56.2383 54.5715 64.2859 54.5715C66.5358 54.5715 68.6666 54.0615 70.5691 53.1509C67.5925 55.6428 63.7572 57.1429 59.5716 57.1429C50.1038 57.1429 42.4287 49.4678 42.4287 40C42.4287 30.5323 50.1038 22.8572 59.5716 22.8572C63.7572 22.8572 67.5925 24.3573 70.5691 26.8492Z" fill="#EB5757"/>
<path d="M61.2856 31.0923L66.837 36.1128L73.311 32.3562L70.2516 39.1873L75.8249 44.1835L68.3828 43.3849L65.3533 50.2293L63.8131 42.9046L56.3675 42.1385L62.8578 38.4102L61.2856 31.0923Z" fill="#EB5757"/>
</svg>
