<svg width="120" height="80" viewBox="0 0 120 80" fill="none" xmlns="http://www.w3.org/2000/svg">
  <path d="M120 0H0V79.9983H120V0Z" fill="#EB5757" />
  <path fill-rule="evenodd" clip-rule="evenodd" d="M52.5911 25.3274C50.0701 23.8481 47.1341 23 44 23C34.6112 23 27 30.6112 27 40C27 49.3888 34.6112 57 44 57C47.1341 57 50.0701 56.1519 52.5911 54.6726C49.0234 57.9789 44.2477 60 39 60C27.9543 60 19 51.0457 19 40C19 28.9543 27.9543 20 39 20C44.2477 20 49.0234 22.0211 52.5911 25.3274Z" fill="#F2F2F2" />
  <path d="M60.6593 28.4118L64.6163 34.5051L71.6342 32.6247L67.0619 38.271L71.0189 44.3643L64.236 41.7606L59.6638 47.4069L60.044 40.1514L53.2612 37.5477L60.279 35.6673L60.6593 28.4118Z" fill="#F2F2F2" />
</svg>