<svg viewBox="0 0 80 80" fill="none">
  <path d="M33.0148 20C33.0517 20.0098 17.5 57.5 17.5 57.5L42.5306 57.5C42.5306 57.4284 39.3951 49.9309 39.4275 49.8917H32.2911C32.371 49.8728 38.9931 34.46 39.015 34.2592C39.1406 34.4907 49.1602 57.5198 49.1503 57.5L62.5 57.5L44.8253 20H33.0148ZM33.0148 20C33.0148 20 33.0148 20 33.0148 20ZM40 5C20.6953 5 5 20.6953 5 40C5 59.3047 20.6953 75 40 75C59.3047 75 75 59.3047 75 40C75 20.6953 59.3047 5 40 5Z" stroke="currentColor" stroke-linecap="round" stroke-linejoin="round" />
</svg>