<svg viewBox="0 0 80 80" fill="none">
  <path d="M18.3793 31.1088C16.4245 30.9975 14.7507 32.2081 13.8226 32.2081C12.8803 32.2081 11.4599 31.1644 9.91277 31.1923C7.90156 31.2201 6.03105 32.3472 5.00437 34.1423C2.89475 37.7326 4.45587 43.0482 6.49515 45.9703C7.4937 47.4175 8.68922 49.004 10.2644 48.9482C11.7551 48.8926 12.3459 47.9881 14.1461 47.9881C15.9603 47.9881 16.4807 48.9481 18.0557 48.9205C19.6872 48.8926 20.7139 47.4733 21.7124 46.0261C22.8516 44.384 23.3158 42.7838 23.3439 42.7003C23.3158 42.6724 20.1937 41.4896 20.1656 37.9272C20.1374 34.9494 22.6266 33.53 22.7391 33.4466C21.3329 31.3871 19.1389 31.1644 18.3793 31.1088Z" stroke="currentColor" stroke-linecap="round" stroke-linejoin="round" />
  <path d="M29.6726 48.7662V27.0723H37.9002C42.1475 27.0723 45.115 29.9666 45.115 34.1969C45.115 38.4272 42.0913 41.3495 37.7877 41.3495H33.0762V48.7662H29.6726Z" stroke="currentColor" stroke-linecap="round" stroke-linejoin="round" />
  <path d="M56.3522 46.1631C55.4522 47.8607 53.4693 48.9324 51.3313 48.9324C48.1669 48.9324 45.959 47.0676 45.959 44.2567C45.959 41.4737 48.0967 39.8735 52.0486 39.6368L56.2959 39.3863V38.1898C56.2959 36.4224 55.1286 35.4623 53.0472 35.4623C51.3313 35.4623 50.0796 36.3389 49.8265 37.6748H46.7607C46.859 34.8639 49.5313 32.8184 53.1457 32.8184C57.0414 32.8184 59.5731 34.8361 59.5731 37.967V48.7652H56.4226V46.1631H56.3522Z" stroke="currentColor" stroke-linecap="round" stroke-linejoin="round" />
  <path d="M70.0226 49.6144C68.6584 53.4133 67.0974 54.6657 63.7782 54.6657C63.525 54.6657 62.6813 54.6378 62.4844 54.5822V51.9801C62.6952 52.0077 63.2157 52.0356 63.483 52.0356C64.9878 52.0356 65.8315 51.4095 66.3519 49.7814L66.6613 48.8213L60.895 33.0273H64.4534L68.4615 45.8434H68.532L72.5401 33.0273H75.9999L70.0226 49.6144Z" stroke="currentColor" stroke-linecap="round" stroke-linejoin="round" />
  <path d="M13.6115 30.843C14.9617 30.9543 16.312 30.1751 17.1557 29.1871C17.9855 28.1713 18.5341 26.8076 18.3934 25.416C17.198 25.4717 15.7211 26.1953 14.8774 27.2111C14.1038 28.0878 13.4428 29.5071 13.6115 30.843Z" stroke="currentColor" stroke-linecap="round" stroke-linejoin="round" />
</svg>