<svg viewBox="0 0 80 80" fill="none">
  <path d="M63.672 44.0623C63.672 35.8592 57.422 32.7733 53.1251 32.7733C48.8282 32.7733 42.461 35.8592 42.461 44.0623C42.461 49.0573 45.1954 55.4686 53.3985 55.4686C59.961 55.4686 62.9818 50.6509 63.672 48.242H57.5001C57.1876 49.3358 55.9766 50.5467 53.3985 50.5467C49.6485 50.5467 48.3204 47.3436 48.1251 45.742H63.672M63.672 44.0623C63.672 44.9022 63.672 47.9165 63.672 45.742M63.672 44.0623V45.742M75 40C75 59.33 59.33 75 40 75C20.67 75 5 59.33 5 40C5 20.67 20.67 5 40 5C59.33 5 75 20.67 75 40ZM17.1899 24.3585V54.8986H31.6034C36.2361 54.8986 40.3516 51.3513 40.3516 46.7186C40.3516 43.294 39.2719 40.8388 35.384 39.0674C38.633 37.2361 39.5191 35.4511 39.5191 32.5695C39.5191 28.0347 35.8429 24.3585 31.3081 24.3585H17.1899ZM23.1641 29.4139V36.7577H30.1563C30.1563 36.7577 33.5548 36.7577 33.5548 33.0858C33.5548 29.4139 30.1563 29.4139 30.1563 29.4139H23.1641ZM23.1641 41.7967V49.7264H30.6641C31.9141 49.7004 34.4141 48.953 34.4141 46.1717C34.4141 42.4217 31.8751 41.7967 30.6641 41.7967H23.1641ZM48.1251 41.7967C48.3334 40.3514 49.6251 37.4608 53.1251 37.4608C56.6251 37.4608 57.5001 40.3514 57.5001 41.7967H48.1251ZM45.6641 26.0936V29.8827H60.3907V26.0936H45.6641Z" stroke="currentColor" stroke-linecap="round" stroke-linejoin="round" />
</svg>