<svg viewBox="0 0 80 80" fill="none">
  <path d="M75 40C75 59.33 59.33 75 40 75C20.67 75 5 59.33 5 40C5 20.67 20.67 5 40 5C59.33 5 75 20.67 75 40Z" stroke="currentColor" stroke-linecap="round" stroke-linejoin="round" />
  <path d="M45 17.5H40V22.5H45V17.5Z" stroke="currentColor" stroke-linecap="round" stroke-linejoin="round" />
  <path d="M25 25H30V30H25V25Z" stroke="currentColor" stroke-linecap="round" stroke-linejoin="round" />
  <path d="M15.0039 42.3535C15.4311 49.6068 19.7507 60.0001 35 60.0001C52 60.0001 59.5833 47.5001 61.25 41.2501C63.3333 41.2501 68 40.0001 70 35.0001C68.75 33.75 63.75 33.75 61.25 35.0001C61.25 33.0001 60 28.75 57.5 27.5C55.8333 29.1667 53.25 33.5 56.25 37.5C55 39.9999 51.6668 40 50.0001 40H17.3572C16.0336 40 14.926 41.0321 15.0039 42.3535Z" stroke="currentColor" stroke-linecap="round" stroke-linejoin="round" />
  <path d="M22.5 32.5H17.5V37.5H22.5V32.5Z" stroke="currentColor" stroke-linecap="round" stroke-linejoin="round" />
  <path d="M25 32.5H30V37.5H25V32.5Z" stroke="currentColor" stroke-linecap="round" stroke-linejoin="round" />
  <path d="M37.5 32.5H32.5V37.5H37.5V32.5Z" stroke="currentColor" stroke-linecap="round" stroke-linejoin="round" />
  <path d="M40 32.5H45V37.5H40V32.5Z" stroke="currentColor" stroke-linecap="round" stroke-linejoin="round" />
  <path d="M52.5 32.5H47.5V37.5H52.5V32.5Z" stroke="currentColor" stroke-linecap="round" stroke-linejoin="round" />
  <path d="M37.5 25H32.5V30H37.5V25Z" stroke="currentColor" stroke-linecap="round" stroke-linejoin="round" />
  <path d="M40 25H45V30H40V25Z" stroke="currentColor" stroke-linecap="round" stroke-linejoin="round" />
</svg>