<svg viewBox="0 0 80 80" fill="none">
  <path d="M62.3625 22.8807C61.6126 21.9086 60.7985 20.9867 59.9255 20.1212C59.2323 19.3954 58.4894 18.7179 57.7021 18.0934C58.1551 18.4841 58.5871 18.8981 58.9961 19.3339C60.5281 20.9526 61.693 22.8769 62.4129 24.9777C63.8748 29.3637 63.7797 34.853 60.9879 39.1643C59.4379 41.5801 57.273 43.5495 54.7111 44.8748C52.1492 46.2001 49.2802 46.8347 46.3921 46.7146C46.1395 46.7146 45.8848 46.7146 45.6286 46.6959C35.12 46.0722 32.4711 35.3998 37.9385 30.7886C36.4638 30.4747 33.6937 31.0901 31.7649 33.9453C30.0342 36.5093 30.1321 40.4664 31.2002 43.2738C30.5177 41.8893 30.0543 40.4091 29.8263 38.885C28.4427 29.6334 34.717 21.7435 40.4705 19.7899C37.3667 17.1052 29.589 17.2874 23.8004 21.5044C20.3958 24.0244 17.9167 27.5776 16.7409 31.6223C17.1156 28.3401 18.1026 25.1554 19.6516 22.23C17.7137 23.2231 15.2459 26.3638 14.0282 29.2729C12.2558 33.7111 11.6308 38.5172 12.2099 43.2551C12.2519 43.6141 12.2897 43.9724 12.3373 44.3286C13.063 48.4663 14.7272 52.387 17.2047 55.7956C19.6821 59.2044 22.9082 62.012 26.6401 64.0074C30.372 66.0027 34.5124 67.1338 38.7497 67.3154C42.9869 67.497 47.2106 66.7243 51.1026 65.0556C54.9946 63.387 58.4536 60.8658 61.2191 57.6817C63.9847 54.4978 65.9849 50.7341 67.0688 46.6739C68.1528 42.6138 68.2924 38.3631 67.4772 34.2417C66.662 30.1205 64.9132 26.236 62.3625 22.8807Z" stroke="currentColor" stroke-linecap="round" stroke-linejoin="round" />
  <path d="M62.4129 24.9782C61.6931 22.8772 60.5282 20.953 58.996 19.3343C57.1754 17.4557 55.0169 15.9298 52.6315 14.8346C50.6399 13.8625 48.5399 13.1255 46.3746 12.6385C42.5578 11.8112 38.608 11.7876 34.7813 12.5692C30.804 13.4008 27.3067 15.1049 25.0945 17.2352C26.8585 16.2484 28.7491 15.5024 30.7151 15.0176C34.5352 14.067 38.5356 14.0829 42.348 15.0638C46.1604 16.0447 49.6624 17.9591 52.5321 20.6309C53.6952 21.7231 54.7132 22.9573 55.5618 24.3038C58.9877 29.8194 58.6636 36.7537 55.9922 40.8431C54.0081 43.8813 49.7585 46.7337 45.7937 46.7005C48.7777 46.9234 51.7669 46.3405 54.4428 45.0138C57.1186 43.6871 59.3807 41.6663 60.9879 39.1668C63.7796 34.8535 63.8748 29.3642 62.4129 24.9782Z" stroke="currentColor" stroke-linecap="round" stroke-linejoin="round" />
</svg>