<svg viewBox="0 0 80 80" fill="none">
  <path d="M75 22.9544H75.5C75.5 22.7709 75.3995 22.6022 75.2382 22.5148C75.0769 22.4274 74.8807 22.4353 74.727 22.5355L75 22.9544ZM69.1962 64.9999V65.4999L69.1987 65.4999L69.1962 64.9999ZM67.2227 64.9999H66.7227C66.7227 65.276 66.9465 65.4999 67.2227 65.4999V64.9999ZM67.2227 28.024L66.9496 27.6052C66.808 27.6975 66.7227 27.855 66.7227 28.024H67.2227ZM5 22.1484L5.27969 21.734C5.12643 21.6306 4.92859 21.6201 4.76532 21.7069C4.60205 21.7937 4.5 21.9635 4.5 22.1484H5ZM10.7526 64.9994L10.7459 65.4994H10.7526V64.9994ZM12.7778 64.9994V65.4994C13.0539 65.4994 13.2778 65.2756 13.2778 64.9994H12.7778ZM12.7778 27.3973H13.2778C13.2778 27.2311 13.1952 27.0758 13.0575 26.9828L12.7778 27.3973ZM10.5396 15.0073L10.8222 14.5948C10.7321 14.533 10.6242 14.5025 10.5151 14.5079L10.5396 15.0073ZM40 35.1915L39.7174 35.604C39.8854 35.7191 40.1065 35.7208 40.2762 35.6082L40 35.1915ZM70.2968 15.1082L70.3921 14.6174C70.2634 14.5924 70.1299 14.619 70.0206 14.6914L70.2968 15.1082ZM75.0003 22.9527L75.2734 23.3716C75.415 23.2793 75.5003 23.1217 75.5003 22.9526L75.0003 22.9527ZM40 45.7684L39.7205 46.183C39.8871 46.2953 40.1047 46.297 40.273 46.1873L40 45.7684ZM5.00032 22.1733L4.50032 22.1734C4.50035 22.3396 4.58299 22.4949 4.72082 22.5879L5.00032 22.1733ZM10.8333 15.5H69.1667V14.5H10.8333V15.5ZM74.5 20.7692V59.2307H75.5V20.7692H74.5ZM69.1667 64.5H10.8333V65.5H69.1667V64.5ZM5.5 59.2307V20.7692H4.5V59.2307H5.5ZM10.8333 64.5C7.88259 64.5 5.5 62.1356 5.5 59.2307H4.5C4.5 62.6983 7.34075 65.5 10.8333 65.5V64.5ZM74.5 59.2307C74.5 62.1356 72.1174 64.5 69.1667 64.5V65.5C72.6592 65.5 75.5 62.6983 75.5 59.2307H74.5ZM69.1667 15.5C72.1174 15.5 74.5 17.8643 74.5 20.7692H75.5C75.5 17.3016 72.6592 14.5 69.1667 14.5V15.5ZM10.8333 14.5C7.34075 14.5 4.5 17.3016 4.5 20.7692H5.5C5.5 17.8643 7.88259 15.5 10.8333 15.5V14.5ZM74.5 22.9544V59.2307H75.5V22.9544H74.5ZM74.5 59.2307C74.5 62.1268 72.132 64.4855 69.1938 64.4999L69.1987 65.4999C72.6766 65.4828 75.5 62.6877 75.5 59.2307H74.5ZM69.1962 64.4999H67.2227V65.4999H69.1962V64.4999ZM67.7227 64.9999V28.024H66.7227V64.9999H67.7227ZM67.4957 28.4429L75.273 23.3733L74.727 22.5355L66.9496 27.6052L67.4957 28.4429ZM4.5 22.1484V59.2307H5.5V22.1484H4.5ZM10.7593 64.4995C7.84285 64.4603 5.5 62.1113 5.5 59.2307H4.5C4.5 62.6693 7.29342 65.453 10.7459 65.4994L10.7593 64.4995ZM10.7526 65.4994H12.7778V64.4994H10.7526V65.4994ZM13.2778 64.9994V27.3973H12.2778V64.9994H13.2778ZM13.0575 26.9828L5.27969 21.734L4.72031 22.5629L12.4981 27.8118L13.0575 26.9828ZM10.257 15.4197L39.7174 35.604L40.2826 34.779L10.8222 14.5948L10.257 15.4197ZM40.2762 35.6082L70.5731 15.525L70.0206 14.6914L39.7237 34.7747L40.2762 35.6082ZM70.2016 15.599C72.6557 16.0754 74.5 18.213 74.5 20.7692H75.5C75.5 17.7176 73.2998 15.1818 70.3921 14.6174L70.2016 15.599ZM74.5 20.7693L74.5003 22.9528L75.5003 22.9526L75.5 20.7692L74.5 20.7693ZM74.7273 22.5338L39.7269 45.3495L40.273 46.1873L75.2734 23.3716L74.7273 22.5338ZM40.2795 45.3538L5.27981 21.7587L4.72082 22.5879L39.7205 46.183L40.2795 45.3538ZM5.50032 22.1732L5.5 20.7691L4.5 20.7693L4.50032 22.1734L5.50032 22.1732ZM5.5 20.7692C5.5 17.9533 7.73916 15.6454 10.5641 15.5067L10.5151 14.5079C7.16999 14.6721 4.5 17.4077 4.5 20.7692H5.5Z" fill="currentColor" />
</svg>