<svg viewBox="0 0 80 80" fill="none">
  <path d="M66.1982 7.87305H13.8018C10.5975 7.87305 8 10.4705 8 13.6748V66.0713C8 69.2755 10.5975 71.873 13.8018 71.873H66.1982C69.4025 71.873 72 69.2755 72 66.0713V13.6748C72 10.4705 69.4025 7.87305 66.1982 7.87305Z" stroke="currentColor" stroke-linecap="round" stroke-linejoin="round" />
  <path d="M29.3889 28.009C31.5164 28.009 33.2986 26.3415 33.2986 24.156C33.2986 21.9719 31.5164 20.3047 29.3889 20.3047C27.2614 20.3047 25.4796 21.9719 25.4796 24.156C25.4796 26.3412 27.2614 28.009 29.3889 28.009ZM21.2824 48.639C21.0526 49.6165 20.9374 50.672 20.9374 51.533C20.9374 54.9258 22.7771 57.1781 26.6869 57.1781C29.9294 57.1781 32.5581 55.2526 34.4509 52.1433L33.2951 56.7816H39.7339L43.4139 42.0218C44.3339 38.2847 46.1161 36.345 48.8186 36.345C50.9459 36.345 52.2681 37.668 52.2681 39.852C52.2681 40.4848 52.2106 41.174 51.9806 41.9218L50.0831 48.706C49.7956 49.6835 49.6811 50.6615 49.6811 51.5808C49.6811 54.8016 51.5779 57.1573 55.5451 57.1573C58.9374 57.1573 61.6394 54.9736 63.1344 49.7413L60.6049 48.7648C59.3399 52.27 58.2474 52.9038 57.3849 52.9038C56.5224 52.9038 56.0624 52.3293 56.0624 51.18C56.0624 50.6625 56.1779 50.0883 56.3499 49.3968L58.1901 42.7873C58.6499 41.2353 58.8226 39.859 58.8226 38.5945C58.8226 33.65 55.8326 31.0695 52.2106 31.0695C48.8186 31.0695 45.3686 34.1292 43.6441 37.3495L44.9086 31.5695H35.0776L33.6976 36.6605H38.2974L35.4649 48.0005C33.2406 52.945 29.1549 53.0253 28.6421 52.9105C27.8001 52.7205 27.2616 52.4008 27.2616 51.3068C27.2616 50.6755 27.3766 49.7688 27.6641 48.6755L31.9766 31.5695H21.0526L19.6726 36.6605H24.2144L21.2824 48.639Z" stroke="currentColor" stroke-linecap="round" stroke-linejoin="round" />
</svg>