<svg viewBox="0 0 80 80" fill="none">
  <path d="M44.5069 49.0672L44.4036 48.5779L43.4587 48.7774L44.167 49.4339L44.5069 49.0672ZM50.975 46.585L51.2265 47.0172L51.2272 47.0167L50.975 46.585ZM50.7337 54.8381L50.3939 55.2048L50.3943 55.2052L50.7337 54.8381ZM50.7337 59.1143L50.3941 58.7474L50.3939 58.7476L50.7337 59.1143ZM46.1211 59.1143L46.4611 58.7478L46.4608 58.7475L46.1211 59.1143ZM39.9989 53.4435L40.3386 53.0767L39.9987 52.7618L39.6589 53.0768L39.9989 53.4435ZM33.882 59.1143L34.2214 59.4814L34.2219 59.481L33.882 59.1143ZM29.266 59.1143L28.9261 59.4811L28.9265 59.4814L29.266 59.1143ZM29.2647 54.8381L28.9248 54.4713L28.9246 54.4715L29.2647 54.8381ZM35.4922 49.0672L35.832 49.4339L36.5404 48.7774L35.5954 48.5779L35.4922 49.0672ZM29.0241 46.585L28.7718 47.0167L28.7727 47.0173L29.0241 46.585ZM28.0024 42.4149L28.4159 42.6959L28.4165 42.6951L28.0024 42.4149ZM32.501 41.4638L32.2491 41.8957L32.2492 41.8958L32.501 41.4638ZM47.498 41.4638L47.7497 41.8958L47.7499 41.8957L47.498 41.4638ZM51.998 42.4149L51.5842 42.6955L51.5846 42.6961L51.998 42.4149ZM5.5 40C5.5 20.9462 20.9462 5.5 40 5.5V4.5C20.3939 4.5 4.5 20.3939 4.5 40H5.5ZM40 5.5C59.0538 5.5 74.5 20.9462 74.5 40H75.5C75.5 20.3939 59.6061 4.5 40 4.5V5.5ZM74.5 40C74.5 59.0538 59.0538 74.5 40 74.5V75.5C59.6061 75.5 75.5 59.6061 75.5 40H74.5ZM40 74.5C20.9462 74.5 5.5 59.0538 5.5 40H4.5C4.5 59.6061 20.3939 75.5 40 75.5V74.5ZM39.9717 26.5494C42.2755 26.5494 44.0837 28.2772 44.0837 30.3226H45.0837C45.0837 27.6544 42.7545 25.5494 39.9717 25.5494V26.5494ZM35.8597 30.3226C35.8597 28.2774 37.6698 26.5494 39.9717 26.5494V25.5494C37.1911 25.5494 34.8597 27.6543 34.8597 30.3226H35.8597ZM39.9717 34.0952C37.6699 34.0952 35.8597 32.366 35.8597 30.3226H34.8597C34.8597 32.989 37.1911 35.0952 39.9717 35.0952V34.0952ZM44.0837 30.3226C44.0837 32.3662 42.2754 34.0952 39.9717 34.0952V35.0952C42.7546 35.0952 45.0837 32.9889 45.0837 30.3226H44.0837ZM39.9717 41.1422C46.3555 41.1422 51.6105 36.3246 51.6105 30.3226H50.6105C50.6105 35.7019 45.8764 40.1422 39.9717 40.1422V41.1422ZM28.333 30.3226C28.333 36.3247 33.5893 41.1422 39.9717 41.1422V40.1422C34.0683 40.1422 29.333 35.7018 29.333 30.3226H28.333ZM39.9717 19.5C33.5892 19.5 28.333 24.3189 28.333 30.3226H29.333C29.333 24.9415 34.0685 20.5 39.9717 20.5V19.5ZM51.6105 30.3226C51.6105 24.3189 46.3556 19.5 39.9717 19.5V20.5C45.8762 20.5 50.6105 24.9414 50.6105 30.3226H51.6105ZM44.6102 49.5564C46.9283 49.067 49.1652 48.2168 51.2265 47.0171L50.7235 46.1529C48.7566 47.2976 46.6201 48.11 44.4036 48.5779L44.6102 49.5564ZM51.0736 54.4713L44.8468 48.7004L44.167 49.4339L50.3939 55.2048L51.0736 54.4713ZM51.0734 59.4813C52.5627 58.1026 52.563 55.8486 51.0732 54.471L50.3943 55.2052C51.4557 56.1867 51.456 57.7644 50.3941 58.7474L51.0734 59.4813ZM45.781 59.4809C47.2459 60.8398 49.6077 60.8395 51.0736 59.4811L50.3939 58.7476C49.3112 59.7509 47.5422 59.7506 46.4611 58.7478L45.781 59.4809ZM39.6591 53.8103L45.7813 59.4812L46.4608 58.7475L40.3386 53.0767L39.6591 53.8103ZM34.2219 59.481L40.3388 53.8102L39.6589 53.0768L33.542 58.7477L34.2219 59.481ZM31.5726 60.4994C32.5239 60.4994 33.4839 60.1635 34.2214 59.4814L33.5425 58.7472C33.0044 59.2449 32.2929 59.4994 31.5726 59.4994V60.4994ZM28.9265 59.4814C29.6638 60.1633 30.6224 60.4994 31.5726 60.4994V59.4994C30.8541 59.4994 30.1438 59.2451 29.6055 58.7472L28.9265 59.4814ZM28.9246 54.4715C27.4383 55.8502 27.4383 58.1024 28.9261 59.4811L29.6058 58.7476C28.545 57.7646 28.5451 56.1876 29.6047 55.2046L28.9246 54.4715ZM35.1523 48.7004L28.9248 54.4713L29.6045 55.2048L35.832 49.4339L35.1523 48.7004ZM28.7727 47.0173C30.8337 48.2155 33.0705 49.067 35.3889 49.5564L35.5954 48.5779C33.3791 48.1101 31.2425 47.2965 29.2754 46.1528L28.7727 47.0173ZM27.5888 42.134C26.456 43.8014 27.0127 45.9889 28.7718 47.0167L29.2763 46.1533C27.9869 45.4 27.6279 43.8559 28.4159 42.6959L27.5888 42.134ZM32.753 41.0319C31.0111 40.016 28.7013 40.4896 27.5882 42.1348L28.4165 42.6951C29.2188 41.5092 30.9372 41.1305 32.2491 41.8957L32.753 41.0319ZM47.2463 41.0318C42.8392 43.6 37.1572 43.5993 32.7528 41.0319L32.2492 41.8958C36.9649 44.6447 43.0315 44.6453 47.7497 41.8958L47.2463 41.0318ZM52.4119 42.1344C51.2969 40.4898 48.9882 40.0158 47.2461 41.0319L47.7499 41.8957C49.0616 41.1307 50.7797 41.509 51.5842 42.6955L52.4119 42.1344ZM51.2272 47.0167C52.9859 45.9892 53.5447 43.8004 52.4115 42.1338L51.5846 42.6961C52.3721 43.8544 52.0125 45.3997 50.7228 46.1533L51.2272 47.0167Z" fill="currentColor" />
</svg>