<svg viewBox="0 0 80 80" fill="none">
  <path d="M40 5C20.6953 5 5 20.6953 5 40C5 59.3047 20.6953 75 40 75C59.3047 75 75 59.3047 75 40C75 20.6953 59.3047 5 40 5Z" stroke="currentColor" stroke-linecap="round" stroke-linejoin="round" />
  <path fill-rule="evenodd" clip-rule="evenodd" d="M50.0482 22.2738C50.0165 22.4746 50 22.6807 50 22.8906C50 25.0108 51.6789 26.7295 53.75 26.7295C55.8211 26.7295 57.5 25.0108 57.5 22.8906C57.5 20.7705 55.8211 19.0517 53.75 19.0517C52.8271 19.0517 51.9822 19.393 51.3289 19.959L41.5905 17.5L38.0708 31.9127C33.3885 32.2281 29.1774 33.6797 26.0007 35.8713C25.0988 34.9657 23.8631 34.4073 22.5 34.4073C19.7386 34.4073 17.5 36.699 17.5 39.5259C17.5 41.4932 18.5841 43.2012 20.1742 44.0581C20.0593 44.6686 20 45.2914 20 45.924C20 53.698 28.9543 60 40 60C51.0457 60 60 53.698 60 45.924C60 45.2914 59.9407 44.6686 59.8258 44.0581C61.4159 43.2012 62.5 41.4932 62.5 39.5259C62.5 36.699 60.2614 34.4073 57.5 34.4073C56.1369 34.4073 54.9012 34.9657 53.9992 35.8713C50.5384 33.4837 45.8498 31.9743 40.6616 31.8556L43.4095 20.6036L50.0482 22.2738ZM31.25 47.2037C33.3211 47.2037 35 45.4849 35 43.3648C35 41.2446 33.3211 39.5259 31.25 39.5259C29.1789 39.5259 27.5 41.2446 27.5 43.3648C27.5 45.4849 29.1789 47.2037 31.25 47.2037ZM48.75 47.2037C50.8211 47.2037 52.5 45.4849 52.5 43.3648C52.5 41.2446 50.8211 39.5259 48.75 39.5259C46.6789 39.5259 45 41.2446 45 43.3648C45 45.4849 46.6789 47.2037 48.75 47.2037ZM31.9434 51.2575C31.369 50.8654 30.5929 51.0243 30.2099 51.6124C29.827 52.2004 29.9822 52.9949 30.5566 53.3869C33.2768 55.2434 36.6384 56.1716 40 56.1716C43.3616 56.1716 46.7232 55.2434 49.4434 53.3869C50.0178 52.9949 50.173 52.2004 49.7901 51.6124C49.4071 51.0243 48.631 50.8654 48.0566 51.2575C45.7563 52.8274 42.8781 53.6123 40 53.6123C38.2932 53.6123 36.5863 53.3363 35 52.7841C33.9114 52.4053 32.8795 51.8964 31.9434 51.2575Z" stroke="currentColor" stroke-linecap="round" stroke-linejoin="round" />
</svg>