<svg viewBox="0 0 80 80" fill="none">
  <path d="M66.2505 37.4989C69.702 37.4989 72.5 34.7009 72.5 31.2495C72.5 27.798 69.7017 25 66.2503 25C62.7985 25 60 27.7982 60 31.25V37.4989H66.2505ZM48.75 37.4989C52.2018 37.4989 55 34.7007 55 31.2489V13.75C55 10.2982 52.2018 7.5 48.75 7.5C45.2982 7.5 42.5 10.2982 42.5 13.75V31.2489C42.5 34.7007 45.2982 37.4989 48.75 37.4989Z" stroke="currentColor" stroke-linecap="round" stroke-linejoin="round" />
  <path d="M13.7495 42.5011C10.298 42.5011 7.5 45.2991 7.5 48.7505C7.5 52.202 10.2982 55 13.7497 55C17.2015 55 20 52.2018 20 48.75V42.5011H13.7495ZM31.25 42.5011C27.7982 42.5011 25 45.2993 25 48.7511V66.25C25 69.7018 27.7982 72.5 31.25 72.5C34.7018 72.5 37.5 69.7018 37.5 66.25V48.7511C37.5 45.2993 34.7018 42.5011 31.25 42.5011Z" stroke="currentColor" stroke-linecap="round" stroke-linejoin="round" />
  <path d="M42.5005 66.2505C42.5005 69.702 45.2984 72.5 48.7499 72.5C52.2014 72.5 54.9994 69.7017 54.9994 66.2503C54.9994 62.7985 52.2012 60 48.7494 60H42.5005V66.2505ZM42.5005 48.75C42.5005 52.2018 45.2987 55 48.7505 55H66.2494C69.7012 55 72.4994 52.2018 72.4994 48.75C72.4994 45.2982 69.7012 42.5 66.2494 42.5H48.7505C45.2987 42.5 42.5005 45.2982 42.5005 48.75Z" stroke="currentColor" stroke-linecap="round" stroke-linejoin="round" />
  <path d="M37.4995 13.7495C37.4995 10.298 34.7016 7.5 31.2501 7.5C27.7986 7.5 25.0006 10.2983 25.0006 13.7497C25.0006 17.2015 27.7988 20 31.2506 20H37.4995V13.7495ZM37.4995 31.25C37.4995 27.7982 34.7013 25 31.2495 25L13.7506 25C10.2988 25 7.50061 27.7982 7.50061 31.25C7.50061 34.7018 10.2988 37.5 13.7506 37.5L31.2495 37.5C34.7013 37.5 37.4995 34.7018 37.4995 31.25Z" stroke="currentColor" stroke-linecap="round" stroke-linejoin="round" />
</svg>