<svg viewBox="0 0 80 80" fill="none">
  <path d="M30.057 43.0058L29.7728 42.5944L30.057 43.0058ZM25.9079 43.6367L26.0596 43.1603L25.9079 43.6367ZM46.6374 31.5507L46.9216 31.9621L46.6374 31.5507ZM47.2552 32.3566L47.6141 32.7047L47.2552 32.3566ZM35.7849 48.7512L35.5193 49.1748H35.5193L35.7849 48.7512ZM35.3203 44.6616L34.9614 44.3135L35.3203 44.6616ZM49.1474 57.1307L49.413 56.7071L49.1474 57.1307ZM52.8545 55.3154L53.3487 55.3919V55.3919L52.8545 55.3154ZM54.0731 22.705L53.8721 22.2472L54.0731 22.705ZM57.4664 25.522L56.9723 25.4455L57.4664 25.522ZM18.412 38.3621L18.6131 38.8199L18.412 38.3621ZM18.5537 41.2947L18.4019 41.7712L18.5537 41.2947ZM74.5 40C74.5 59.0538 59.0538 74.5 40 74.5V75.5C59.6061 75.5 75.5 59.6061 75.5 40H74.5ZM40 74.5C20.9462 74.5 5.5 59.0538 5.5 40H4.5C4.5 59.6061 20.3939 75.5 40 75.5V74.5ZM5.5 40C5.5 20.9462 20.9462 5.5 40 5.5V4.5C20.3939 4.5 4.5 20.3939 4.5 40H5.5ZM40 5.5C59.0538 5.5 74.5 20.9462 74.5 40H75.5C75.5 20.3939 59.6061 4.5 40 4.5V5.5ZM18.6131 38.8199L54.2741 23.1628L53.8721 22.2472L18.211 37.9043L18.6131 38.8199ZM46.3532 31.1393L29.7728 42.5944L30.3412 43.4171L46.9216 31.9621L46.3532 31.1393ZM26.0596 43.1603L18.7054 40.8183L18.4019 41.7712L25.7562 44.1131L26.0596 43.1603ZM49.413 56.7071L36.0506 48.3276L35.5193 49.1748L48.8818 57.5543L49.413 56.7071ZM35.6792 45.0097L47.6141 32.7047L46.8963 32.0085L34.9614 44.3135L35.6792 45.0097ZM56.9723 25.4455L52.3604 55.2389L53.3487 55.3919L57.9605 25.5985L56.9723 25.4455ZM29.7728 42.5944C28.6728 43.3543 27.3137 43.5596 26.0596 43.1603L25.7562 44.1131C27.3092 44.6077 28.9898 44.3508 30.3412 43.4171L29.7728 42.5944ZM46.9216 31.9621C46.9329 31.9543 46.9344 31.956 46.926 31.9578C46.9175 31.9595 46.9076 31.9594 46.8987 31.9575C46.8906 31.9558 46.8873 31.9533 46.8881 31.9539C46.8891 31.9546 46.8928 31.9574 46.8972 31.9631C46.9016 31.9689 46.905 31.9753 46.9071 31.9813C46.9091 31.9871 46.9093 31.9906 46.9092 31.9915C46.9092 31.9919 46.9093 31.9914 46.9093 31.9915C46.9092 31.9917 46.9086 31.9931 46.9069 31.9957C46.9052 31.9983 46.902 32.0026 46.8963 32.0085L47.6141 32.7047C48.0293 32.2767 47.9603 31.7062 47.6908 31.3547C47.556 31.1789 47.3565 31.0337 47.1112 30.9804C46.8556 30.9248 46.5872 30.9776 46.3532 31.1393L46.9216 31.9621ZM36.0506 48.3276C34.9339 47.6273 34.7376 45.9805 35.6792 45.0097L34.9614 44.3135C33.5874 45.73 33.8508 48.1285 35.5193 49.1748L36.0506 48.3276ZM48.8818 57.5543C50.7122 58.7022 53.0184 57.5256 53.3487 55.3919L52.3604 55.2389C52.13 56.7273 50.5801 57.439 49.413 56.7071L48.8818 57.5543ZM54.2741 23.1628C55.656 22.5561 57.2317 23.7699 56.9723 25.4455L57.9605 25.5985C58.3246 23.2467 56.071 21.2817 53.8721 22.2472L54.2741 23.1628ZM18.211 37.9043C16.5128 38.6499 16.6231 41.2047 18.4019 41.7712L18.7054 40.8183C17.8209 40.5366 17.7434 39.2018 18.6131 38.8199L18.211 37.9043Z" fill="currentColor" />
</svg>