<svg viewBox="0 0 80 80" fill="none">
  <path d="M53.9507 5.86923C55.0442 5.59455 57.5045 5.59458 57.5045 7.79198M53.9507 5.86923C55.4815 4.66065 57.2767 4.95367 57.9145 5.3199L72.6979 12.5687C74.1065 13.2594 75.0001 14.6965 75.0001 16.2714V63.9578C75.0001 65.5538 74.0827 67.0062 72.6455 67.6858L58.7346 74.2634C57.7778 74.6754 55.7002 75.6917 53.9507 74.2634M53.9507 5.86923L5.62406 50.1582C4.83829 50.8783 4.78766 52.104 5.51133 52.8871L10.1307 57.8856C10.798 58.6076 11.9005 58.7059 12.684 58.1133L57.5044 24.2063L57.5045 7.79198M53.9507 5.86923C53.9507 5.86922 53.9507 5.86923 53.9507 5.86923ZM53.9507 5.86923L54.128 5.82976C55.2886 5.60042 57.5045 5.70662 57.5045 7.79198M57.5045 7.79198V72.066M57.5045 72.066C57.3222 73.1189 56.1376 74.6754 53.9507 74.2634M57.5045 72.066L57.5044 55.927L12.684 22.02C11.9005 21.4274 10.798 21.5257 10.1307 22.2477L5.51133 27.2463C4.78766 28.0293 4.83829 29.255 5.62406 29.9752L53.9507 74.2634" stroke="currentColor" stroke-linecap="round" stroke-linejoin="round" />
</svg>