<svg viewBox="0 0 80 80" fill="none">
  <path d="M57.5045 72.066L57.9972 72.1513L58.0045 72.1089V72.066H57.5045ZM53.9507 74.2634L53.6129 74.632L53.6234 74.6416L53.6345 74.6507L53.9507 74.2634ZM58.7346 74.2634L58.9324 74.7226L58.9404 74.7192L58.9484 74.7154L58.7346 74.2634ZM72.6455 67.6858L72.4318 67.2338V67.2338L72.6455 67.6858ZM72.6979 12.5687L72.4777 13.0176L72.6979 12.5687ZM57.9145 5.3199L57.6656 5.75351L57.6797 5.76165L57.6944 5.76884L57.9145 5.3199ZM54.128 5.82976L54.0311 5.3391L54.0194 5.3417L54.128 5.82976ZM57.5044 24.2063L57.8061 24.6051C57.931 24.5106 58.0044 24.363 58.0044 24.2063L57.5044 24.2063ZM12.684 58.1133L12.3823 57.7145L12.684 58.1133ZM10.1307 57.8856L9.76352 58.2249L10.1307 57.8856ZM5.51133 52.8871L5.14413 53.2264H5.14413L5.51133 52.8871ZM5.62406 50.1582L5.96188 50.5268H5.96188L5.62406 50.1582ZM57.5044 55.927H58.0044C58.0044 55.7703 57.931 55.6227 57.8061 55.5282L57.5044 55.927ZM12.684 22.02L12.3823 22.4188H12.3823L12.684 22.02ZM10.1307 22.2477L10.4979 22.5871L10.1307 22.2477ZM5.51133 27.2463L5.14413 26.9069H5.14413L5.51133 27.2463ZM5.62406 29.9752L5.28624 30.3438L5.28624 30.3438L5.62406 29.9752ZM54.0725 6.35416C54.5598 6.23175 55.3485 6.17622 55.9854 6.37983C56.296 6.47914 56.5444 6.63146 56.715 6.84131C56.8809 7.04531 57.0045 7.34166 57.0045 7.79198H58.0045C58.0045 7.1436 57.8205 6.61592 57.4909 6.21048C57.1661 5.81089 56.731 5.56836 56.2899 5.42732C55.4232 5.15024 54.435 5.23202 53.8289 5.38429L54.0725 6.35416ZM57.0045 7.79198V72.066H58.0045V7.79198H57.0045ZM57.0118 71.9807C56.8666 72.8198 55.8987 74.1216 54.0433 73.772L53.8581 74.7547C56.3766 75.2292 57.7779 73.418 57.9972 72.1513L57.0118 71.9807ZM53.6345 74.6507C54.6471 75.4774 55.7582 75.5895 56.7132 75.4481C57.6492 75.3095 58.4737 74.9201 58.9324 74.7226L58.5369 73.8042C58.0388 74.0186 57.346 74.3435 56.5667 74.4589C55.8063 74.5715 55.0038 74.4777 54.2669 73.876L53.6345 74.6507ZM58.9484 74.7154L72.8593 68.1378L72.4318 67.2338L58.5209 73.8114L58.9484 74.7154ZM75.5001 63.9578V16.2714H74.5001V63.9578H75.5001ZM72.918 12.1197L58.1347 4.87097L57.6944 5.76884L72.4777 13.0176L72.918 12.1197ZM58.1635 4.88629C57.746 4.64659 57.0393 4.46917 56.2453 4.50451C55.4365 4.5405 54.5002 4.79836 53.6409 5.47678L54.2605 6.26167C54.932 5.73152 55.6587 5.5316 56.2897 5.50352C56.9354 5.47478 57.4452 5.62698 57.6656 5.75351L58.1635 4.88629ZM75.5001 16.2714C75.5001 14.5067 74.4988 12.8948 72.918 12.1197L72.4777 13.0176C73.7142 13.6239 74.5001 14.8863 74.5001 16.2714H75.5001ZM72.8593 68.1378C74.4721 67.3752 75.5001 65.7462 75.5001 63.9578H74.5001C74.5001 65.3614 73.6933 66.6373 72.4318 67.2338L72.8593 68.1378ZM58.0045 7.79198C58.0045 7.17752 57.8394 6.67034 57.5394 6.27239C57.2425 5.87855 56.8408 5.62773 56.4249 5.47391C55.6089 5.17208 54.6633 5.21431 54.0311 5.33924L54.225 6.32027C54.7533 6.21586 55.496 6.19653 56.078 6.41181C56.3612 6.51653 56.586 6.66894 56.7408 6.87435C56.8926 7.07566 57.0045 7.36376 57.0045 7.79198H58.0045ZM58.0044 24.2063L58.0045 7.79198L57.0045 7.79198L57.0044 24.2063L58.0044 24.2063ZM12.9856 58.512L57.8061 24.6051L57.2028 23.8076L12.3823 57.7145L12.9856 58.512ZM9.76352 58.2249C10.6051 59.1356 11.9969 59.26 12.9856 58.512L12.3823 57.7145C11.8042 58.1519 10.9909 58.0797 10.4979 57.5462L9.76352 58.2249ZM5.14413 53.2264L9.76352 58.2249L10.4979 57.5462L5.87854 52.5477L5.14413 53.2264ZM5.28624 49.7895C4.29615 50.6969 4.23261 52.2401 5.14413 53.2264L5.87854 52.5477C5.34271 51.9679 5.38043 51.0596 5.96188 50.5268L5.28624 49.7895ZM53.6129 5.50061L5.28624 49.7895L5.96188 50.5268L54.2885 6.23784L53.6129 5.50061ZM54.4507 5.86923C54.4507 5.86923 54.4507 5.86923 54.4507 5.86923C54.4507 5.86923 54.4507 5.86923 54.4507 5.86923C54.4507 5.86923 54.4507 5.86923 54.4507 5.86923C54.4507 5.86923 54.4507 5.86923 54.4507 5.86923V5.86923C54.4507 5.86923 54.4507 5.86923 54.4507 5.86923V5.86923V5.86923C54.4507 5.86923 54.4507 5.86923 54.4507 5.86923C53.9507 5.86923 53.4507 5.86923 53.4507 5.86923C53.4507 5.86923 53.4507 5.86923 53.4507 5.86923C53.4507 5.86923 53.4507 5.86923 53.4507 5.86923C53.4507 5.86923 53.4507 5.86923 53.4507 5.86923C53.4507 5.86923 53.4507 5.86923 53.4507 5.86923C53.4507 5.86923 53.4507 5.86923 53.4507 5.86923V5.86923C53.4507 5.86923 53.4507 5.86923 53.4507 5.86923V5.86923C53.4507 5.86923 53.4507 5.86923 53.4507 5.86923C53.4507 5.86923 53.4507 5.86923 53.4507 5.86923V5.86923C53.4507 5.86923 53.4507 5.86923 53.4507 5.86923V5.86923C53.4507 5.86923 53.4507 5.86923 53.4507 5.86923C53.4507 5.86923 53.4507 5.86923 53.4507 5.86923C53.4507 5.86923 53.4507 5.86923 53.4507 5.86923C53.4507 5.86923 53.4507 5.86923 53.4507 5.86923C53.4507 5.86923 53.4507 5.86923 53.4507 5.86923C53.4507 5.86923 53.9507 5.86923 54.4507 5.86923C54.4507 5.86923 54.4507 5.86923 54.4507 5.86923V5.86923V5.86923C54.4507 5.86923 54.4507 5.86923 54.4507 5.86923V5.86923C54.4507 5.86923 54.4507 5.86923 54.4507 5.86923C54.4507 5.86923 54.4507 5.86923 54.4507 5.86923C54.4507 5.86923 54.4507 5.86923 54.4507 5.86923C54.4507 5.86923 54.4507 5.86923 54.4507 5.86923H53.4507C53.4507 5.86923 53.4507 5.86923 53.4507 5.86923C53.4507 5.86923 53.4507 5.86923 53.4507 5.86923C53.4507 5.86923 53.4507 5.86923 53.4507 5.86923C53.4507 5.86923 53.4507 5.86923 53.4507 5.86923V5.86923C53.4507 5.86923 53.4507 5.86923 53.4507 5.86923V5.86923V5.86923C53.4507 5.86923 53.4507 5.86923 53.4507 5.86923C53.9507 5.86923 54.4507 5.86923 54.4507 5.86923C54.4507 5.86923 54.4507 5.86923 54.4507 5.86923C54.4507 5.86923 54.4507 5.86923 54.4507 5.86923C54.4507 5.86923 54.4507 5.86923 54.4507 5.86923C54.4507 5.86923 54.4507 5.86923 54.4507 5.86923C54.4507 5.86923 54.4507 5.86923 54.4507 5.86923V5.86923C54.4507 5.86923 54.4507 5.86923 54.4507 5.86923V5.86923C54.4507 5.86923 54.4507 5.86923 54.4507 5.86923C54.4507 5.86923 54.4507 5.86923 54.4507 5.86923V5.86923C54.4507 5.86923 54.4507 5.86923 54.4507 5.86923V5.86923C54.4507 5.86923 54.4507 5.86923 54.4507 5.86923C54.4507 5.86923 54.4507 5.86923 54.4507 5.86923C54.4507 5.86923 54.4507 5.86923 54.4507 5.86923C54.4507 5.86923 54.4507 5.86923 54.4507 5.86923C54.4507 5.86923 54.4507 5.86923 54.4507 5.86923C54.4507 5.86923 53.9507 5.86923 53.4507 5.86923C53.4507 5.86923 53.4507 5.86923 53.4507 5.86923V5.86923V5.86923C53.4507 5.86923 53.4507 5.86923 53.4507 5.86923V5.86923C53.4507 5.86923 53.4507 5.86923 53.4507 5.86923C53.4507 5.86923 53.4507 5.86923 53.4507 5.86923C53.4507 5.86923 53.4507 5.86923 53.4507 5.86923C53.4507 5.86923 53.4507 5.86923 53.4507 5.86923H54.4507ZM54.0194 5.3417L53.8421 5.38117L54.0593 6.35729L54.2367 6.31782L54.0194 5.3417ZM57.8061 55.5282L12.9856 21.6213L12.3823 22.4188L57.2028 56.3257L57.8061 55.5282ZM12.9856 21.6213C11.9969 20.8733 10.6051 20.9977 9.76352 21.9084L10.4979 22.5871C10.9909 22.0536 11.8042 21.9814 12.3823 22.4188L12.9856 21.6213ZM9.76352 21.9084L5.14413 26.9069L5.87854 27.5856L10.4979 22.5871L9.76352 21.9084ZM5.14413 26.9069C4.23261 27.8932 4.29615 29.4364 5.28624 30.3438L5.96188 29.6065C5.38043 29.0737 5.34271 28.1654 5.87854 27.5856L5.14413 26.9069ZM5.28624 30.3438L53.6129 74.632L54.2885 73.8947L5.96187 29.6065L5.28624 30.3438ZM58.0045 72.066L58.0044 55.927H57.0044L57.0045 72.066H58.0045Z" fill="currentColor" />
</svg>