<svg viewBox="0 0 81 80" fill="none">
  <path d="M37.2205 15.2815L37.4129 14.82L37.2205 15.2815ZM39.8083 26.7546L40.1775 26.4174V26.4174L39.8083 26.7546ZM58.7262 25.7838L58.41 26.1711L58.7262 25.7838ZM59.3063 35.7125L58.827 35.855V35.855L59.3063 35.7125ZM69.613 43.3024L70.0606 43.0796L69.613 43.3024ZM33.9056 61.6315L34.039 62.1134L33.9056 61.6315ZM43.3383 47.8039L43.8194 47.6678L43.3383 47.8039ZM18.5861 54.6549L19.0672 54.5187L18.5861 54.6549ZM28.0188 40.8273L28.1521 41.3092L28.0188 40.8273ZM28.6906 56.8835L28.4817 56.4292H28.4817L28.6906 56.8835ZM31.1804 51.5053L30.7279 51.718L30.7279 51.718L31.1804 51.5053ZM22.9282 55.2996L23.3807 55.0869L23.3807 55.0869L22.9282 55.2996ZM25.418 49.9214L25.6269 50.3757H25.6269L25.418 49.9214ZM35.1393 48.4098L34.6868 48.6225V48.6225L35.1393 48.4098ZM34.1692 50.5054L33.9603 50.0512L34.1692 50.5054ZM32.894 47.7927L33.1029 48.247L32.894 47.7927ZM31.9238 49.8883L31.4713 50.101L31.4713 50.101L31.9238 49.8883ZM55.0953 11.1933L55.2142 11.6789L55.0953 11.1933ZM73.7292 31.7635L74.1977 31.9383L73.7292 31.7635ZM75.4465 35.4472L75.6178 34.9775L75.4465 35.4472ZM79.1711 33.7488L79.6396 33.9235L79.1711 33.7488ZM53.7018 5.62471L53.583 5.13905L53.7018 5.62471ZM57.658 21.2061L57.5434 20.7194L57.658 21.2061ZM63.9415 28.161L63.4719 27.9891V27.9891L63.9415 28.161ZM69.3952 30.1144L68.9256 29.9425L69.3952 30.1144ZM56.3148 15.6254L56.4294 16.1121L56.3148 15.6254ZM54.1651 19.08L53.679 19.197L54.1651 19.08ZM0.999997 49.392C0.999997 45.1229 2.61002 40.6183 5.22201 36.3103C7.83176 32.006 11.4237 27.9284 15.34 24.5229C19.2574 21.1164 23.4816 18.3978 27.3449 16.7976C31.2324 15.1875 34.6509 14.7514 37.028 15.7429L37.4129 14.82C34.659 13.6713 30.9219 14.2337 26.9622 15.8738C22.9784 17.5238 18.6638 20.3074 14.6839 23.7683C10.7028 27.2301 7.03881 31.385 4.36691 35.7918C1.69728 40.1949 0 44.8797 0 49.392H0.999997ZM37.028 15.7429C38.2773 16.2641 38.989 17.1103 39.3841 18.1112C39.7869 19.1313 39.8667 20.33 39.7975 21.5345C39.7283 22.7381 39.5148 23.8968 39.3595 24.8455C39.2835 25.3101 39.2188 25.74 39.2008 26.085C39.1918 26.2575 39.193 26.4305 39.2175 26.5875C39.2406 26.7356 39.2936 26.9325 39.4391 27.0918L40.1775 26.4174C40.2255 26.47 40.2162 26.5019 40.2055 26.4333C40.1962 26.3736 40.192 26.2782 40.1994 26.1372C40.2142 25.8552 40.2694 25.4776 40.3464 25.007C40.4973 24.0849 40.7229 22.8614 40.7958 21.5919C40.8687 20.3234 40.7936 18.9581 40.3143 17.744C39.8274 16.5108 38.9299 15.4527 37.4129 14.82L37.028 15.7429ZM39.4391 27.0918C39.624 27.2943 39.8686 27.3768 40.0888 27.4061C40.3079 27.4352 40.5481 27.4183 40.7892 27.3804C41.2713 27.3045 41.8691 27.125 42.5304 26.9025C43.882 26.4478 45.5544 25.7962 47.42 25.2588C51.1652 24.1801 55.3496 23.6723 58.41 26.1711L59.0425 25.3965C55.5584 22.5518 50.9085 23.2134 47.1432 24.2979C45.2535 24.8422 43.5015 25.5207 42.2115 25.9547C41.552 26.1766 41.0246 26.331 40.6337 26.3926C40.4382 26.4233 40.3049 26.426 40.2207 26.4148C40.1374 26.4037 40.1488 26.386 40.1775 26.4174L39.4391 27.0918ZM58.41 26.1711C60.112 27.5608 60.2151 29.5567 59.8555 31.4665C59.6767 32.4163 59.3903 33.3044 59.1568 34.0411C59.0422 34.4026 58.9364 34.7401 58.8696 35.0193C58.836 35.1596 58.8088 35.2987 58.7966 35.4282C58.7849 35.5507 58.7823 35.7046 58.827 35.855L59.7855 35.57C59.7942 35.5991 59.7854 35.5936 59.7921 35.5226C59.7982 35.4586 59.8139 35.3701 59.8421 35.2521C59.8989 35.0146 59.9928 34.7133 60.1101 34.3432C60.3403 33.6169 60.6464 32.6709 60.8383 31.6515C61.2202 29.6229 61.1776 27.1399 59.0425 25.3965L58.41 26.1711ZM58.827 35.855C58.9318 36.2074 59.2061 36.4616 59.4775 36.6503C59.7588 36.8459 60.1175 37.0253 60.5085 37.2003C60.9019 37.3765 61.3579 37.561 61.8374 37.7591C62.3211 37.9589 62.8377 38.176 63.3706 38.4238C65.5078 39.4174 67.8473 40.8781 69.1654 43.5253L70.0606 43.0796C68.5906 40.1275 65.9999 38.5434 63.7922 37.517C63.2389 37.2597 62.7059 37.0359 62.2192 36.8349C61.7284 36.6321 61.2931 36.456 60.9172 36.2876C60.5388 36.1183 60.2501 35.9695 60.0483 35.8292C59.8366 35.682 59.7923 35.5927 59.7855 35.57L58.827 35.855ZM69.1654 43.5253C70.1834 45.5697 70.2307 48.1917 69.2759 51.0185C68.3221 53.8425 66.3767 56.838 63.4696 59.5803C57.6596 65.0608 48.0373 69.4996 34.9896 69.4996V70.4996C48.2664 70.4996 58.142 65.9804 64.1558 60.3077C67.1605 57.4734 69.2084 54.3434 70.2233 51.3385C71.2373 48.3363 71.2288 45.4258 70.0606 43.0796L69.1654 43.5253ZM34.9896 69.4996C24.3217 69.4996 15.7991 66.936 9.95969 63.1325C4.11374 59.3247 0.999997 54.3106 0.999997 49.392H0C0 54.7551 3.38707 60.0448 9.41391 63.9704C15.4473 67.9003 24.1695 70.4996 34.9896 70.4996V69.4996ZM56.3401 47.4104C56.7385 51.4828 54.5549 55.481 50.5606 58.649C46.5708 61.8135 40.8248 64.101 34.2662 64.7286L34.3614 65.724C41.0834 65.0808 47.0198 62.7338 51.182 59.4325C55.3398 56.1348 57.7779 51.836 57.3354 47.313L56.3401 47.4104ZM34.2662 64.7286C27.7076 65.3562 21.6244 64.2006 17.0947 61.851C12.5595 59.4987 9.64083 55.9879 9.24238 51.915L8.24714 52.0124C8.68958 56.535 11.9152 60.291 16.6342 62.7387C21.3586 65.1893 27.6395 66.3672 34.3614 65.724L34.2662 64.7286ZM9.24238 51.915C8.84398 47.8425 11.0276 43.8444 15.0219 40.6764C19.0117 37.5119 24.7577 35.2244 31.3163 34.5968L31.2211 33.6014C24.4992 34.2446 18.5628 36.5916 14.4005 39.8929C10.2428 43.1905 7.80466 47.4893 8.24714 52.0124L9.24238 51.915ZM31.3163 34.5968C37.8749 33.9692 43.9581 35.1248 48.4879 37.4743C53.023 39.8267 55.9417 43.3374 56.3401 47.4104L57.3354 47.313C56.8929 42.7904 53.6674 39.0344 48.9483 36.5866C44.2239 34.1361 37.943 32.9581 31.2211 33.6014L31.3163 34.5968ZM34.039 62.1134C41.0596 60.1702 45.5417 53.7544 43.8194 47.6678L42.8572 47.9401C44.3861 53.3433 40.4219 59.3091 33.7723 61.1496L34.039 62.1134ZM18.105 54.791C19.8263 60.8742 27.0192 64.0563 34.039 62.1134L33.7723 61.1496C27.1218 62.9903 20.5971 59.9254 19.0672 54.5187L18.105 54.791ZM27.8854 40.3454C20.8648 42.2886 16.3827 48.7044 18.105 54.791L19.0672 54.5187C17.5383 49.1155 21.5024 43.1497 28.1521 41.3092L27.8854 40.3454ZM43.8194 47.6678C42.0981 41.5846 34.9052 38.4025 27.8854 40.3454L28.1521 41.3092C34.8026 39.4684 41.3273 42.5334 42.8572 47.9401L43.8194 47.6678ZM28.8995 57.3377C31.3561 56.2082 32.687 53.5349 31.6329 51.2926L30.7279 51.718C31.4813 53.3207 30.5827 55.4632 28.4817 56.4292L28.8995 57.3377ZM22.4757 55.5123C23.5275 57.7499 26.444 58.4668 28.8995 57.3377L28.4817 56.4292C26.3796 57.3957 24.1363 56.6943 23.3807 55.0869L22.4757 55.5123ZM25.2091 49.4672C22.7525 50.5967 21.4216 53.27 22.4757 55.5123L23.3807 55.0869C22.6273 53.4842 23.5259 51.3417 25.6269 50.3757L25.2091 49.4672ZM31.6329 51.2926C30.5811 49.055 27.6646 48.3381 25.2091 49.4672L25.6269 50.3757C27.729 49.4092 29.9724 50.1106 30.7279 51.718L31.6329 51.2926ZM34.6868 48.6225C34.8886 49.0518 34.6704 49.7246 33.9603 50.0512L34.3781 50.9597C35.4438 50.4697 36.0943 49.266 35.5918 48.1971L34.6868 48.6225ZM33.1029 48.247C33.8141 47.9199 34.4828 48.1885 34.6868 48.6225L35.5918 48.1971C35.0916 47.1329 33.7497 46.8489 32.6851 47.3384L33.1029 48.247ZM32.3763 49.6756C32.1745 49.2463 32.3927 48.5735 33.1029 48.247L32.6851 47.3384C31.6194 47.8284 30.9689 49.0321 31.4713 50.101L32.3763 49.6756ZM33.9603 50.0512C33.249 50.3782 32.5803 50.1096 32.3763 49.6756L31.4713 50.101C31.9716 51.1652 33.3135 51.4492 34.3781 50.9597L33.9603 50.0512ZM58.905 10.2366C57.5476 10.2366 56.2322 10.4002 54.9765 10.7076L55.2142 11.6789C56.3927 11.3905 57.6283 11.2366 58.905 11.2366V10.2366ZM75.1997 26.3577C75.1997 17.449 67.8991 10.2366 58.905 10.2366V11.2366C67.3572 11.2366 74.1997 18.0117 74.1997 26.3577H75.1997ZM74.1977 31.9383C74.845 30.2026 75.1997 28.3238 75.1997 26.3577H74.1997C74.1997 28.2026 73.867 29.9631 73.2607 31.5888L74.1977 31.9383ZM75.6178 34.9775C74.3721 34.523 73.7417 33.1607 74.1977 31.9383L73.2607 31.5888C72.608 33.3388 73.5154 35.275 75.2751 35.9169L75.6178 34.9775ZM78.7026 33.5741C78.2457 34.7992 76.8661 35.4329 75.6178 34.9775L75.2751 35.9169C77.0323 36.558 78.9879 35.6708 79.6396 33.9235L78.7026 33.5741ZM80 26.3577C80 28.89 79.5425 31.3221 78.7026 33.5741L79.6396 33.9235C80.5205 31.5616 81 29.0113 81 26.3577H80ZM58.905 5.49998C70.5607 5.49998 80 14.8435 80 26.3577H81C81 14.2808 71.1025 4.49998 58.905 4.49998V5.49998ZM53.8207 6.11037C55.4515 5.71119 57.155 5.49998 58.905 5.49998V4.49998C57.0743 4.49998 55.291 4.72096 53.583 5.13905L53.8207 6.11037ZM52.0684 8.9767C51.752 7.71234 52.5306 6.42616 53.8207 6.11037L53.583 5.13905C51.7635 5.58441 50.6451 7.40839 51.0983 9.21946L52.0684 8.9767ZM54.9765 10.7076C53.6844 11.0239 52.3853 10.2431 52.0684 8.9767L51.0983 9.21946C51.551 11.0285 53.3966 12.1238 55.2142 11.6789L54.9765 10.7076ZM58.905 20.5624C58.4335 20.5624 57.978 20.6171 57.5434 20.7194L57.7726 21.6928C58.1325 21.608 58.5111 21.5624 58.905 21.5624V20.5624ZM64.7591 26.3577C64.7591 23.1518 62.1329 20.5624 58.905 20.5624V21.5624C61.5911 21.5624 63.7591 23.7145 63.7591 26.3577H64.7591ZM64.411 28.333C64.6355 27.7197 64.7591 27.0556 64.7591 26.3577H63.7591C63.7591 26.9365 63.6568 27.4842 63.4719 27.9891L64.411 28.333ZM65.8494 31.3639C64.6008 30.9167 63.9624 29.558 64.411 28.333L63.4719 27.9891C62.8297 29.743 63.7487 31.6737 65.5122 32.3053L65.8494 31.3639ZM68.9256 29.9425C68.4761 31.1702 67.1004 31.812 65.8494 31.3639L65.5122 32.3053C67.2731 32.936 69.2234 32.0375 69.8647 30.2863L68.9256 29.9425ZM69.5594 26.3577C69.5594 27.6121 69.3365 28.8204 68.9256 29.9425L69.8647 30.2863C70.3153 29.0558 70.5594 27.7312 70.5594 26.3577H69.5594ZM58.905 15.8258C64.7945 15.8258 69.5594 20.5463 69.5594 26.3577H70.5594C70.5594 19.9836 65.3363 14.8258 58.905 14.8258V15.8258ZM56.4294 16.1121C57.2262 15.9246 58.0555 15.8258 58.905 15.8258V14.8258C57.9778 14.8258 57.0716 14.9336 56.2003 15.1388L56.4294 16.1121ZM54.6512 18.963C54.3462 17.6959 55.1364 16.4165 56.4294 16.1121L56.2003 15.1388C54.3769 15.568 53.2421 17.3819 53.679 19.197L54.6512 18.963ZM57.5434 20.7194C56.2486 21.0242 54.9566 20.232 54.6512 18.963L53.679 19.197C54.1153 21.01 55.951 22.1216 57.7726 21.6928L57.5434 20.7194Z" fill="currentColor" />
</svg>