<svg viewBox="0 0 80 80" fill="none">
  <path opacity="0.9" d="M17.8655 49.2712L18.3356 49.1009C18.2904 48.976 18.1973 48.8742 18.0769 48.8181C17.9565 48.7619 17.8187 48.7559 17.6939 48.8015L17.8655 49.2712ZM14.5176 50.4944L14.346 50.0247C14.1519 50.0957 14.0214 50.2788 14.0177 50.4854L14.5176 50.4944ZM14.3395 60.4528L13.8396 60.4439C13.8366 60.6087 13.9151 60.7643 14.0493 60.86C14.1835 60.9556 14.3562 60.979 14.511 60.9225L14.3395 60.4528ZM25.928 56.2195L26.0996 56.6891C26.2991 56.6162 26.4308 56.4252 26.4279 56.2127C26.4251 56.0003 26.2882 55.8128 26.0868 55.7454L25.928 56.2195ZM19.6177 38.7384L20.0442 38.9995C20.1552 38.8181 20.1394 38.5863 20.0047 38.4217C19.87 38.2572 19.6459 38.1958 19.4462 38.2688L19.6177 38.7384ZM8 42.9824L7.82844 42.5127C7.67395 42.5691 7.5571 42.6979 7.51592 42.8572C7.47475 43.0164 7.51451 43.1857 7.62228 43.31L8 42.9824ZM14.5175 50.497L14.1398 50.8246C14.2757 50.9813 14.4943 51.0379 14.6891 50.9667L14.5175 50.497ZM17.8654 49.2738L18.037 49.7435C18.2959 49.6489 18.4294 49.3626 18.3355 49.1035L17.8654 49.2738ZM39.165 24.3655L39.3366 24.8351L39.165 24.3655ZM17.865 49.27L18.0365 49.7397C18.2955 49.6451 18.4291 49.3587 18.335 49.0994L17.865 49.27ZM71.431 29.7047L71.901 29.5342L71.901 29.5341L71.431 29.7047ZM17.8628 49.2708L17.6913 48.8011C17.4323 48.8957 17.2987 49.1821 17.3927 49.4413L17.8628 49.2708ZM46.586 64.6743L46.63 65.1724L46.586 64.6743ZM39.1404 39.9767L39.6384 39.9326L39.1404 39.9767ZM42.138 14.3559L42.1821 14.8539L42.138 14.3559ZM58.89 60.1757L59.1776 60.5847L58.89 60.1757ZM40.0741 42.53L40.4831 42.2424V42.2424L40.0741 42.53ZM29.8342 18.854L30.1218 19.263L29.8342 18.854ZM46.2503 22.3917C46.3252 22.6575 46.6014 22.8122 46.8672 22.7373C47.133 22.6625 47.2877 22.3863 47.2128 22.1205L46.2503 22.3917ZM57.3625 51.3032L57.8183 51.0977C57.7607 50.9699 57.6521 50.8722 57.519 50.8283C57.3858 50.7845 57.2404 50.7985 57.1181 50.867L57.3625 51.3032ZM49.8407 54.7157L49.672 54.2451C49.486 54.3117 49.3567 54.4817 49.3421 54.6787L49.8407 54.7157ZM38.4984 24.8284C38.6911 25.0262 39.0077 25.0303 39.2055 24.8376C39.4032 24.6449 39.4073 24.3283 39.2146 24.1305L38.4984 24.8284ZM17.6939 48.8015L14.346 50.0247L14.6892 50.964L18.0371 49.7408L17.6939 48.8015ZM14.0177 50.4854L13.8396 60.4439L14.8394 60.4618L15.0176 50.5033L14.0177 50.4854ZM14.511 60.9225L26.0996 56.6891L25.7564 55.7498L14.1679 59.9832L14.511 60.9225ZM26.0868 55.7454C22.2008 54.444 19.4506 52.1803 18.3356 49.1009L17.3954 49.4414C18.647 52.8981 21.6991 55.3305 25.7692 56.6936L26.0868 55.7454ZM19.4462 38.2688L7.82844 42.5127L8.17156 43.452L19.7893 39.208L19.4462 38.2688ZM7.62228 43.31L14.1398 50.8246L14.8953 50.1694L8.37772 42.6548L7.62228 43.31ZM14.6891 50.9667L18.037 49.7435L17.6938 48.8042L14.3459 50.0274L14.6891 50.9667ZM18.3355 49.1035C17.2234 46.0353 17.8893 42.519 20.0442 38.9995L19.1913 38.4773C16.9374 42.1587 16.1461 45.9975 17.3953 49.4442L18.3355 49.1035ZM38.9935 23.8958C31.5317 26.6214 25.3718 30.8042 21.4516 35.3879C17.5429 39.9579 15.7911 45.0215 17.395 49.4406L18.335 49.0994C16.9085 45.169 18.4106 40.4818 22.2115 36.0378C26.0008 31.6074 32.0061 27.5127 39.3366 24.8351L38.9935 23.8958ZM71.901 29.5341C70.2965 25.1146 65.7112 22.3646 59.7902 21.3844C53.8519 20.4014 46.4555 21.1702 38.9935 23.8958L39.3366 24.8351C46.6674 22.1574 53.8882 21.421 59.6269 22.371C65.3828 23.3238 69.5341 25.9452 70.961 29.8753L71.901 29.5341ZM50.3029 55.08C57.7643 52.3546 63.9284 48.1844 67.8509 43.6067C71.7624 39.0418 73.5132 33.9781 71.901 29.5342L70.961 29.8752C72.3962 33.8315 70.8936 38.5189 67.0916 42.956C63.3005 47.3803 57.2912 51.4628 49.9598 54.1407L50.3029 55.08ZM17.3927 49.4413C19.0051 53.8871 23.5906 56.6376 29.5114 57.6113C35.4486 58.5877 42.8416 57.8054 50.3029 55.08L49.9598 54.1407C42.6284 56.8186 35.4107 57.568 29.6737 56.6245C23.9203 55.6784 19.7679 53.0574 18.3328 49.1003L17.3927 49.4413ZM17.6935 48.8003L17.6913 48.8011L18.0343 49.7405L18.0365 49.7397L17.6935 48.8003ZM46.5419 64.1762C46.3619 64.1922 46.1309 64.1292 45.8374 63.8955C45.5416 63.6598 45.2178 63.277 44.8773 62.733C44.1972 61.6466 43.509 60.0134 42.8568 57.9294C41.5549 53.7696 40.428 47.9188 39.7695 41.3258L38.7745 41.4252C39.4374 48.063 40.5744 53.9847 41.9025 58.2281C42.5653 60.3459 43.2837 62.072 44.0297 63.2636C44.4022 63.8588 44.7964 64.3447 45.2144 64.6777C45.6347 65.0125 46.1135 65.218 46.63 65.1724L46.5419 64.1762ZM39.7695 41.3258C39.7235 40.8649 39.6798 40.4004 39.6384 39.9326L38.6423 40.0207C38.684 40.4922 38.7281 40.9605 38.7745 41.4252L39.7695 41.3258ZM39.6384 39.9326C39.0264 33.0086 39.0563 26.7028 39.5938 22.1093C39.863 19.8084 40.2566 17.9641 40.7468 16.6926C40.9924 16.0558 41.252 15.5896 41.5119 15.2838C41.7703 14.9797 41.9959 14.8704 42.1821 14.8539L42.094 13.8578C41.5592 13.9051 41.112 14.2101 40.7498 14.6363C40.3891 15.0608 40.0804 15.6412 39.8138 16.3328C39.2797 17.718 38.8738 19.6576 38.6006 21.9931C38.053 26.6726 38.0261 33.0497 38.6423 40.0207L39.6384 39.9326ZM58.6024 59.7667C58.4265 59.8904 58.128 59.9541 57.6245 59.8315C57.1241 59.7098 56.4951 59.4198 55.7487 58.9502C54.2598 58.0134 52.4054 56.4268 50.3375 54.3156L49.6231 55.0153C51.7146 57.1507 53.6318 58.7998 55.2162 59.7966C56.0065 60.2939 56.7396 60.6454 57.388 60.8032C58.0333 60.9602 58.6702 60.9415 59.1776 60.5847L58.6024 59.7667ZM50.3375 54.3156C47.3118 51.2265 43.8639 47.0505 40.4831 42.2424L39.6651 42.8176C43.0706 47.6608 46.5525 51.8804 49.6231 55.0153L50.3375 54.3156ZM40.4831 42.2424C40.2128 41.8581 39.9465 41.4747 39.6843 41.0926L38.8598 41.6584C39.1242 42.0437 39.3926 42.4302 39.6651 42.8176L40.4831 42.2424ZM39.6843 41.0926C35.9352 35.6297 33.0227 30.4319 31.3347 26.4134C30.489 24.4003 29.9615 22.7084 29.7805 21.4395C29.6899 20.8042 29.6904 20.3028 29.7645 19.9319C29.838 19.564 29.9739 19.367 30.1218 19.263L29.5466 18.445C29.1224 18.7432 28.8892 19.2091 28.7839 19.736C28.6792 20.2601 28.6914 20.8856 28.7906 21.5807C28.9891 22.9725 29.5534 24.7549 30.4127 26.8007C32.1347 30.9 35.0852 36.1585 38.8598 41.6584L39.6843 41.0926ZM42.1821 14.8539C42.3795 14.8365 42.6402 14.9145 42.9747 15.2086C43.3095 15.5028 43.672 15.9754 44.049 16.636C44.8013 17.9544 45.5536 19.9188 46.2503 22.3917L47.2128 22.1205C46.5068 19.6146 45.7283 17.5612 44.9175 16.1404C44.5129 15.4313 44.0859 14.8539 43.6349 14.4575C43.1837 14.0608 42.6626 13.8076 42.094 13.8578L42.1821 14.8539ZM56.9067 51.5088C57.9468 53.8148 58.6216 55.771 58.887 57.2409C59.02 57.9773 59.0446 58.5626 58.9776 58.9962C58.9107 59.4291 58.7631 59.6537 58.6024 59.7667L59.1776 60.5847C59.6402 60.2594 59.8751 59.7363 59.9659 59.1489C60.0566 58.5623 60.0141 57.8549 59.8711 57.0632C59.5846 55.4767 58.8724 53.435 57.8183 51.0977L56.9067 51.5088ZM50.3029 55.08C52.9108 54.1274 55.3586 52.9991 57.6069 51.7394L57.1181 50.867C54.9174 52.1001 52.5184 53.2061 49.9598 54.1407L50.3029 55.08ZM49.3421 54.6787C49.1235 57.6262 48.7298 60.0349 48.1962 61.7114C47.9287 62.5518 47.635 63.1791 47.3311 63.5949C47.0254 64.0134 46.7562 64.1573 46.5419 64.1762L46.63 65.1724C47.2479 65.1177 47.7467 64.7211 48.1385 64.1849C48.5323 63.6461 48.8658 62.9045 49.1491 62.0147C49.7169 60.2308 50.1183 57.7338 50.3393 54.7527L49.3421 54.6787ZM50.0095 55.1864C50.0564 55.1695 50.1034 55.1526 50.1504 55.1356L49.8102 54.1953C49.7641 54.2119 49.718 54.2285 49.672 54.2451L50.0095 55.1864ZM50.1504 55.1356C50.2017 55.1171 50.2537 55.098 50.3029 55.08L49.9598 54.1407C49.9083 54.1595 49.8596 54.1774 49.8102 54.1953L50.1504 55.1356ZM30.1218 19.263C30.2993 19.1382 30.6018 19.0746 31.1131 19.2015C31.6208 19.3275 32.2589 19.6249 33.0156 20.1048C34.5251 21.0622 36.4047 22.6797 38.4984 24.8284L39.2146 24.1305C37.0974 21.9577 35.1553 20.2777 33.5512 19.2603C32.751 18.7528 32.0093 18.3935 31.354 18.2309C30.7023 18.0692 30.0586 18.085 29.5466 18.445L30.1218 19.263Z" fill="currentColor" />
</svg>