<svg viewBox="0 0 80 80" fill="none">
  <path d="M53.8112 33.5508L49.6634 39.9584H53.5505C56.8642 39.9584 59.5505 42.6447 59.5505 45.9584L59.5506 57.9896C59.5506 60.1988 57.7597 61.9896 55.5506 61.9896C53.3414 61.9896 51.5506 60.1988 51.5506 57.9896L51.5505 47.9584L47.2542 47.9584C46.2441 44.6471 44.012 41.7806 40.9282 40.0001C39.5482 39.2034 38.0651 38.6631 36.5452 38.3793L42.3911 29.3372L38.4103 27.3485L32.3662 32.5693C30.6944 34.0133 28.1685 33.8287 26.7244 32.1569C25.2803 30.4851 25.465 27.9592 27.1368 26.5151L34.1896 20.423C36.0223 18.84 38.6269 18.5139 40.7932 19.5961L51.4558 24.923C54.656 26.5217 55.7551 30.5478 53.8112 33.5508Z" fill="currentColor" fill-opacity="0.25" />
  <path d="M27.0718 40.0001C31.359 37.5249 36.641 37.5249 40.9282 40.0001C45.2154 42.4753 47.8564 47.0497 47.8564 52.0001C47.8564 56.9506 45.2154 61.5249 40.9282 64.0001C36.641 66.4753 31.359 66.4753 27.0718 64.0001C22.7846 61.5249 20.1436 56.9506 20.1436 52.0001C20.1436 47.0497 22.7846 42.4753 27.0718 40.0001Z" fill="currentColor" fill-opacity="0.25" />
  <path d="M52.2636 24.6824C53.9928 25.5151 56.0072 25.5151 57.7364 24.6824C59.4657 23.8496 60.7216 22.2747 61.1487 20.4035C61.5758 18.5323 61.1275 16.5685 59.9309 15.0679C58.7342 13.5674 56.9193 12.6934 55 12.6934C53.0807 12.6934 51.2659 13.5674 50.0692 15.0679C48.8725 16.5685 48.4243 18.5323 48.8514 20.4035C49.2785 22.2747 50.5344 23.8496 52.2636 24.6824Z" fill="currentColor" fill-opacity="0.25" />
  <path d="M40.9282 40.0001C44.012 41.7806 46.2441 44.6471 47.2542 47.9584L51.5505 47.9584L51.5506 57.9896C51.5506 60.1988 53.3414 61.9896 55.5506 61.9896C57.7597 61.9896 59.5506 60.1988 59.5506 57.9896L59.5505 45.9584C59.5505 42.6447 56.8642 39.9584 53.5505 39.9584H49.6634L53.8112 33.5508C55.7551 30.5478 54.656 26.5217 51.4558 24.923L40.7932 19.5961C38.6269 18.5139 36.0223 18.84 34.1896 20.423L27.1368 26.5151C25.465 27.9592 25.2803 30.4851 26.7244 32.1569C28.1685 33.8287 30.6944 34.0133 32.3662 32.5693L38.4103 27.3485L42.3911 29.3372L36.5452 38.3793C38.0651 38.6631 39.5482 39.2034 40.9282 40.0001ZM40.9282 40.0001C45.2154 42.4753 47.8564 47.0497 47.8564 52.0001C47.8564 56.9506 45.2154 61.5249 40.9282 64.0001C36.641 66.4753 31.359 66.4753 27.0718 64.0001C22.7846 61.5249 20.1436 56.9506 20.1436 52.0001C20.1436 47.0497 22.7846 42.4753 27.0718 40.0001C31.359 37.5249 36.641 37.5249 40.9282 40.0001ZM48.8514 20.4035C49.2785 22.2747 50.5344 23.8496 52.2636 24.6824C53.9928 25.5151 56.0072 25.5151 57.7364 24.6824C59.4657 23.8496 60.7216 22.2747 61.1487 20.4035C61.5758 18.5323 61.1275 16.5685 59.9309 15.0679C58.7342 13.5674 56.9193 12.6934 55 12.6934C53.0807 12.6934 51.2659 13.5674 50.0692 15.0679C48.8725 16.5685 48.4243 18.5323 48.8514 20.4035Z" stroke="currentColor" stroke-linecap="round" stroke-linejoin="round" />
</svg>