<svg viewBox="0 0 80 80" fill="none">
  <path d="M48 44H56.4013C59.5401 44 61.0823 40.1787 58.8229 38L43.8005 23.5141C41.7667 21.553 38.5458 21.553 36.512 23.5141L21.4896 38C19.2302 40.1787 20.7724 44 23.9112 44H32L32 62C32 63.1046 32.8954 64 34 64H46C47.1046 64 48 63.1046 48 62V44Z" fill="currentColor" fill-opacity="0.25" />
  <path d="M16 30L16 16C16 13.7909 17.7909 12 20 12L60 12C62.2091 12 64 13.7909 64 16V30M56.4013 44H48V62C48 63.1046 47.1046 64 46 64H34C32.8954 64 32 63.1046 32 62L32 44H23.9112C20.7724 44 19.2302 40.1787 21.4896 38L36.512 23.5141C38.5458 21.553 41.7667 21.553 43.8005 23.5141L58.8229 38C61.0823 40.1787 59.5401 44 56.4013 44Z" stroke="currentColor" stroke-linecap="round" stroke-linejoin="round" />
</svg>