<svg width="80" height="80" viewBox="0 0 80 80" fill="none" xmlns="http://www.w3.org/2000/svg">
  <path d="M53.0001 30.9997H55.1005C58.7537 30.9997 60.5832 26.5829 58 23.9997L40.7123 6.71201C38.6621 4.66175 35.3379 4.66175 33.2877 6.71201L16 23.9997C13.4168 26.5829 15.2463 30.9997 18.8995 30.9997H21.0001L33.2878 18.712C35.338 16.6618 38.6621 16.6618 40.7124 18.712L53.0001 30.9997Z" fill="currentColor" fill-opacity="0.25" />
  <path d="M49.0023 43.1718H55.1007C58.7538 43.1718 60.5834 38.755 58.0002 36.1719L40.7125 18.8842C38.6622 16.8339 35.3381 16.8339 33.2879 18.8842L16.0002 36.1718C13.417 38.755 15.2465 43.1718 18.8997 43.1718L25 43.1718C25.0313 46.6399 25.5894 50.1044 26.6744 53.4437C28.9087 60.3202 33.2626 66.3128 39.1121 70.5627C44.9616 74.8126 52.0063 77.1016 59.2367 77.1016C61.5573 77.1016 63.8588 76.8658 66.1078 76.4051C67.9195 76.0339 68.0097 73.5835 66.3996 72.674C65.2694 72.0356 64.1723 71.331 63.1144 70.5624C57.2649 66.3125 52.911 60.3199 50.6767 53.4434C49.5917 50.1042 49.0336 46.6398 49.0023 43.1718Z" fill="currentColor" fill-opacity="0.25" />
  <path d="M53.0001 30.9997H55.1005C58.7537 30.9997 60.5832 26.5829 58 23.9997L40.7123 6.71201C38.6621 4.66175 35.3379 4.66175 33.2877 6.71201L16 23.9997C13.4168 26.5829 15.2463 30.9997 18.8995 30.9997H21.0001L33.2878 18.712C35.338 16.6618 38.6621 16.6618 40.7124 18.712L53.0001 30.9997Z" stroke="currentColor" stroke-width="4" stroke-linecap="round" stroke-linejoin="round" />
  <path d="M49.0023 43.1718H55.1007C58.7538 43.1718 60.5834 38.755 58.0002 36.1719L40.7125 18.8842C38.6622 16.8339 35.3381 16.8339 33.2879 18.8842L16.0002 36.1718C13.417 38.755 15.2465 43.1718 18.8997 43.1718L25 43.1718C25.0313 46.6399 25.5894 50.1044 26.6744 53.4437C28.9087 60.3202 33.2626 66.3128 39.1121 70.5627C44.9616 74.8126 52.0063 77.1016 59.2367 77.1016C61.5573 77.1016 63.8588 76.8658 66.1078 76.4051C67.9195 76.0339 68.0097 73.5835 66.3996 72.674C65.2694 72.0356 64.1723 71.331 63.1144 70.5624C57.2649 66.3125 52.911 60.3199 50.6767 53.4434C49.5917 50.1042 49.0336 46.6398 49.0023 43.1718Z" stroke="currentColor" stroke-width="4" stroke-linecap="round" stroke-linejoin="round" />
</svg>