<svg width="80" height="80" viewBox="0 0 80 80" fill="none" xmlns="http://www.w3.org/2000/svg">
  <path d="M48.0001 44H53.6678C56.2835 44 57.5687 40.8156 55.6859 39L43.7745 27.5141C41.7408 25.553 38.5198 25.553 36.4861 27.5141L24.5748 39C22.6919 40.8156 23.9771 44 26.5928 44H32.0001L32.0001 60C32.0001 61.1046 32.8955 62 34.0001 62L46.0001 62C47.1047 62 48.0001 61.1046 48.0001 60L48.0001 44Z" fill="currentColor" fill-opacity="0.25" />
  <path d="M24.0001 16H56.0001M53.6678 44H48.0001L48.0001 60C48.0001 61.1046 47.1047 62 46.0001 62L34.0001 62C32.8955 62 32.0001 61.1046 32.0001 60L32.0001 44H26.5928C23.9771 44 22.6919 40.8156 24.5748 39L36.4861 27.5141C38.5198 25.553 41.7408 25.553 43.7745 27.5141L55.6859 39C57.5687 40.8156 56.2835 44 53.6678 44Z" stroke="currentColor" stroke-width="4" stroke-linecap="round" stroke-linejoin="round" />
</svg>