<svg width="80" height="80" viewBox="0 0 80 80" fill="none" xmlns="http://www.w3.org/2000/svg">
  <path d="M51.7637 38.6673C51.7637 32.0396 46.3907 26.667 39.763 26.6673C33.1359 26.6677 27.7637 32.0402 27.7637 38.6673V41.3333C27.7637 47.9608 33.1363 53.3333 39.7637 53.3333C46.3911 53.3333 51.7637 47.9608 51.7637 41.3333M51.7637 38.6673V41.3333M51.7637 38.6673V28.9985M51.7637 41.3333V47.3461C51.7637 50.6647 54.4577 53.3531 57.7764 53.3461C61.0851 53.339 63.7637 50.6548 63.7637 47.3461V40C63.7637 26.7452 53.0185 16 39.7637 16C26.5088 16 15.7637 26.7452 15.7637 40C15.7637 53.2548 26.5088 64 39.7637 64H51.7637" stroke="currentColor" stroke-width="4" stroke-linecap="round" stroke-linejoin="round" />
</svg>