<svg width="80" height="80" viewBox="0 0 80 80" fill="none" xmlns="http://www.w3.org/2000/svg">
  <path d="M62.1546 23.2176C63.6915 25.5118 63.0775 28.6175 60.7833 30.1544L51.2624 36.5322C51.1063 36.6368 51.0126 36.8124 51.0126 37.0003V42.9998L29.0403 42.9998V37.0003C29.0403 36.8164 28.9485 36.6447 28.7955 36.5427L19.2261 30.1599C16.9288 28.6276 16.3086 25.5231 17.8409 23.2259C19.3732 20.9286 22.4777 20.3084 24.775 21.8407L34.735 28.484C35.2696 28.8405 35.8977 29.0308 36.5403 29.0308H43.5126C44.1515 29.0308 44.776 28.841 45.3069 28.4854L55.2178 21.8462C57.512 20.3094 60.6177 20.9233 62.1546 23.2176Z" fill="currentColor" fill-opacity="0.25" />
  <path d="M28.4789 47.5212L21.5598 54.4403C19.8106 56.1894 19.6034 58.9547 21.0724 60.945L27.0174 69C28.6572 71.2218 31.7877 71.6936 34.0095 70.0538C36.2313 68.4139 36.7031 65.2835 35.0633 63.0617L32.0419 58.968C31.8301 58.681 31.86 58.2822 32.1122 58.03L35.7199 54.4223C35.2055 54.1786 34.7243 53.8611 34.2929 53.4761L30.0046 49.6485C29.3383 49.0538 28.821 48.3252 28.4789 47.5212Z" fill="currentColor" fill-opacity="0.25" />
  <path d="M44.3159 54.4052L47.9515 58.0408L47.9624 58.0516C48.2109 58.2971 48.2408 58.6881 48.0324 58.9685L44.9999 63.0478C43.3524 65.264 43.8134 68.3961 46.0296 70.0435C48.2457 71.691 51.3778 71.23 53.0253 69.0138L59.0132 60.9588C60.4999 58.959 60.2871 56.1698 58.5143 54.4187L55.0009 50.9481L51.5368 47.484C51.1949 48.3027 50.672 49.0446 49.9954 49.6485L45.7071 53.4761C45.2857 53.8522 44.8169 54.1639 44.3159 54.4052Z" fill="currentColor" fill-opacity="0.25" />
  <path d="M34.7692 12.8002C37.8882 10.5341 42.1118 10.5341 45.2308 12.8002C48.3499 15.0663 49.655 19.0831 48.4636 22.7498C47.2723 26.4164 43.8554 28.899 40 28.899C36.1446 28.899 32.7277 26.4164 31.5364 22.7498C30.345 19.0831 31.6501 15.0663 34.7692 12.8002Z" fill="currentColor" fill-opacity="0.25" />
  <path d="M41.7118 54.9998C43.1855 54.9998 44.6077 54.4574 45.7071 53.4761L49.9954 49.6485C51.2708 48.5102 52 46.8818 52 45.1723V43.694C52 43.3106 51.6892 42.9998 51.3058 42.9998H28.6942C28.3108 42.9998 28 43.3106 28 43.694V45.1723C28 46.8818 28.7292 48.5102 30.0046 49.6485L34.2929 53.4761C35.3923 54.4574 36.8145 54.9998 38.2882 54.9998H41.7118Z" fill="currentColor" fill-opacity="0.25" />
  <path d="M34.2929 53.4761C34.7243 53.8611 35.2055 54.1786 35.7199 54.4223L32.1122 58.03C31.86 58.2822 31.8301 58.681 32.0419 58.968L35.0633 63.0617C36.7031 65.2835 36.2313 68.4139 34.0095 70.0538C31.7877 71.6936 28.6572 71.2218 27.0174 69L21.0724 60.945C19.6034 58.9547 19.8106 56.1894 21.5598 54.4403L28.4789 47.5212C28.821 48.3252 29.3383 49.0538 30.0046 49.6485M34.2929 53.4761L30.0046 49.6485M34.2929 53.4761C35.3923 54.4574 36.8145 54.9998 38.2882 54.9998H41.7118C43.1855 54.9998 44.6077 54.4574 45.7071 53.4761M30.0046 49.6485C28.7292 48.5102 28 46.8818 28 45.1723V43.694C28 43.3106 28.3108 42.9998 28.6942 42.9998H51.3058C51.6892 42.9998 52 43.3106 52 43.694V45.1723C52 46.8818 51.2708 48.5102 49.9954 49.6485M49.9954 49.6485C50.672 49.0446 51.1949 48.3027 51.5368 47.484L55.0009 50.9481L58.5143 54.4187C60.2871 56.1698 60.4999 58.959 59.0132 60.9588L53.0253 69.0138C51.3778 71.23 48.2457 71.691 46.0296 70.0435C43.8134 68.3961 43.3524 65.264 44.9999 63.0478L48.0324 58.9685C48.2408 58.6881 48.2109 58.2971 47.9624 58.0516L47.9515 58.0408L44.3159 54.4052C44.8169 54.1639 45.2857 53.8522 45.7071 53.4761M49.9954 49.6485L45.7071 53.4761M60.7833 30.1544C63.0775 28.6175 63.6915 25.5118 62.1546 23.2176C60.6177 20.9233 57.512 20.3094 55.2178 21.8462L45.3069 28.4854C44.776 28.841 44.1515 29.0308 43.5126 29.0308H36.5403C35.8977 29.0308 35.2696 28.8405 34.735 28.484L24.775 21.8407C22.4777 20.3084 19.3732 20.9286 17.8409 23.2259C16.3086 25.5231 16.9288 28.6276 19.2261 30.1599L28.7955 36.5427C28.9485 36.6447 29.0403 36.8164 29.0403 37.0003V42.9998L51.0126 42.9998V37.0003C51.0126 36.8124 51.1063 36.6368 51.2624 36.5322L60.7833 30.1544ZM31.5364 22.7498C30.345 19.0831 31.6501 15.0663 34.7692 12.8002C37.8882 10.5341 42.1118 10.5341 45.2308 12.8002C48.3499 15.0663 49.655 19.0831 48.4636 22.7498C47.2723 26.4164 43.8554 28.899 40 28.899C36.1446 28.899 32.7277 26.4164 31.5364 22.7498Z" stroke="currentColor" stroke-width="4" stroke-linecap="round" stroke-linejoin="round" />
</svg>