<svg viewBox="0 0 80 80" fill="none">
  <path d="M26 70C23.7909 70 22 68.2091 22 66L22 18C22 15.7909 23.7909 14 26 14L54 14C56.2091 14 58 15.7909 58 18L58 66C58 68.2091 56.2091 70 54 70H26Z" fill="currentColor" fill-opacity="0.25" />
  <path d="M32.5 14C32.2239 14 32 13.7761 32 13.5C32 11.567 33.567 10 35.5 10L44.5 10C46.433 10 48 11.567 48 13.5C48 13.7761 47.7761 14 47.5 14L32.5 14Z" fill="currentColor" fill-opacity="0.25" />
  <path d="M30.1221 57C29.0175 57 28.1221 57.8954 28.1221 59V61C28.1221 62.1046 29.0175 63 30.1221 63H50.1221C51.2266 63 52.1221 62.1046 52.1221 61V59C52.1221 57.8954 51.2266 57 50.1221 57H30.1221Z" fill="currentColor" fill-opacity="0.25" />
  <path d="M26 70C23.7909 70 22 68.2091 22 66L22 18C22 15.7909 23.7909 14 26 14L54 14C56.2091 14 58 15.7909 58 18L58 66C58 68.2091 56.2091 70 54 70H26Z" stroke="currentColor" stroke-linecap="round" stroke-linejoin="round" />
  <path d="M32.5 14C32.2239 14 32 13.7761 32 13.5C32 11.567 33.567 10 35.5 10L44.5 10C46.433 10 48 11.567 48 13.5C48 13.7761 47.7761 14 47.5 14L32.5 14Z" stroke="currentColor" stroke-linecap="round" stroke-linejoin="round" />
  <path d="M30.1221 57C29.0175 57 28.1221 57.8954 28.1221 59V61C28.1221 62.1046 29.0175 63 30.1221 63H50.1221C51.2266 63 52.1221 62.1046 52.1221 61V59C52.1221 57.8954 51.2266 57 50.1221 57H30.1221Z" stroke="currentColor" stroke-linecap="round" stroke-linejoin="round" />
</svg>