<svg width="80" height="80" viewBox="0 0 80 80" fill="none" xmlns="http://www.w3.org/2000/svg">
  <path fill-rule="evenodd" clip-rule="evenodd" d="M26 70C23.7909 70 22 68.2091 22 66L22 18C22 15.7909 23.7909 14 26 14H54C56.2091 14 58 15.7909 58 18L58 66C58 68.2091 56.2091 70 54 70H26ZM36.5377 45.7699L29.2952 45.7698C28.5068 45.7698 28.0285 44.9001 28.4507 44.2343L41.5705 23.5449C42.1068 22.6993 43.4151 23.0791 43.4151 24.0804V38.2297L50.6576 38.2298C51.446 38.2298 51.9243 39.0995 51.5021 39.7653L38.3823 60.4547C37.846 61.3003 36.5377 60.9205 36.5377 59.9192V45.7699Z" fill="currentColor" fill-opacity="0.25" />
  <path d="M36.5377 45.7699L29.2952 45.7698C28.5068 45.7698 28.0285 44.9001 28.4507 44.2343L41.5705 23.5449C42.1068 22.6993 43.4151 23.0791 43.4151 24.0804V38.2297L50.6576 38.2298C51.446 38.2298 51.9243 39.0995 51.5021 39.7653L38.3823 60.4547C37.846 61.3003 36.5377 60.9205 36.5377 59.9192V45.7699Z" fill="currentColor" fill-opacity="0.25" />
  <path d="M32.5 14C32.2239 14 32 13.7761 32 13.5C32 11.567 33.567 10 35.5 10L44.5 10C46.433 10 48 11.567 48 13.5C48 13.7761 47.7761 14 47.5 14L32.5 14Z" fill="currentColor" fill-opacity="0.25" />
  <path fill-rule="evenodd" clip-rule="evenodd" d="M26 70C23.7909 70 22 68.2091 22 66L22 18C22 15.7909 23.7909 14 26 14H54C56.2091 14 58 15.7909 58 18L58 66C58 68.2091 56.2091 70 54 70H26ZM36.5377 45.7699L29.2952 45.7698C28.5068 45.7698 28.0285 44.9001 28.4507 44.2343L41.5705 23.5449C42.1068 22.6993 43.4151 23.0791 43.4151 24.0804V38.2297L50.6576 38.2298C51.446 38.2298 51.9243 39.0995 51.5021 39.7653L38.3823 60.4547C37.846 61.3003 36.5377 60.9205 36.5377 59.9192V45.7699Z" stroke="currentColor" stroke-width="4" stroke-linecap="round" stroke-linejoin="round" />
  <path d="M36.5377 45.7699L29.2952 45.7698C28.5068 45.7698 28.0285 44.9001 28.4507 44.2343L41.5705 23.5449C42.1068 22.6993 43.4151 23.0791 43.4151 24.0804V38.2297L50.6576 38.2298C51.446 38.2298 51.9243 39.0995 51.5021 39.7653L38.3823 60.4547C37.846 61.3003 36.5377 60.9205 36.5377 59.9192V45.7699Z" stroke="currentColor" stroke-width="4" stroke-linecap="round" stroke-linejoin="round" />
  <path d="M32.5 14C32.2239 14 32 13.7761 32 13.5C32 11.567 33.567 10 35.5 10L44.5 10C46.433 10 48 11.567 48 13.5C48 13.7761 47.7761 14 47.5 14L32.5 14Z" stroke="currentColor" stroke-width="4" stroke-linecap="round" stroke-linejoin="round" />
</svg>