<svg width="80" height="80" viewBox="0 0 80 80" fill="none" xmlns="http://www.w3.org/2000/svg">
  <path d="M18.0457 24.8188C18.0457 24.2666 18.4934 23.8188 19.0457 23.8188H31.0457C31.5979 23.8188 32.0457 24.2666 32.0457 24.8188V66.8188C32.0457 67.3711 31.5979 67.8188 31.0457 67.8188H19.0457C18.4934 67.8188 18.0457 67.3711 18.0457 66.8188V24.8188Z" fill="currentColor" fill-opacity="0.25" />
  <path d="M32.0457 12.8188C32.0457 12.2666 32.4934 11.8188 33.0457 11.8188H45.0457C45.5979 11.8188 46.0457 12.2666 46.0457 12.8188V66.8188C46.0457 67.3711 45.5979 67.8188 45.0457 67.8188H33.0457C32.4934 67.8188 32.0457 67.3711 32.0457 66.8188V12.8188Z" fill="currentColor" fill-opacity="0.25" />
  <path d="M59.2942 31.1793L49.0458 32.8198L54.5165 66.9977C55.702 66.1578 57.0756 65.5896 58.5406 65.3551L60.4292 65.0528C61.8942 64.8183 63.3765 64.9294 64.765 65.3573L59.2942 31.1793Z" fill="currentColor" fill-opacity="0.25" />
  <path d="M32.0457 66.8188V24.8188C32.0457 24.2666 31.5979 23.8188 31.0457 23.8188H19.0457C18.4934 23.8188 18.0457 24.2666 18.0457 24.8188V66.8188C18.0457 67.3711 18.4934 67.8188 19.0457 67.8188H31.0457C31.5979 67.8188 32.0457 67.3711 32.0457 66.8188ZM32.0457 66.8188V12.8188C32.0457 12.2666 32.4934 11.8188 33.0457 11.8188H45.0457C45.5979 11.8188 46.0457 12.2666 46.0457 12.8188V66.8188C46.0457 67.3711 45.5979 67.8188 45.0457 67.8188H33.0457C32.4934 67.8188 32.0457 67.3711 32.0457 66.8188ZM18.0457 30.103H32.0457M18.0457 61.5316H32.0457M32.0457 19.8169H46.0457M32.0457 59.8169H46.0457M49.0458 32.8198L59.2942 31.1793M49.0458 32.8198L54.5165 66.9977C55.702 66.1578 57.0756 65.5896 58.5406 65.3551L60.4292 65.0528C61.8942 64.8183 63.3765 64.9294 64.765 65.3573L59.2942 31.1793M49.0458 32.8198L54.706 68.1813M59.2942 31.1793L64.9544 66.5409" stroke="currentColor" stroke-width="4" stroke-linecap="round" stroke-linejoin="round" />
</svg>