<svg width="80" height="80" viewBox="0 0 80 80" fill="none" xmlns="http://www.w3.org/2000/svg">
  <path d="M41.7562 19.6407L13.6406 47.7564L9.44963 38.2087C8.12456 35.1899 8.78699 31.6675 11.1181 29.3363L23.3362 17.1183C25.6673 14.7871 29.1898 14.1247 32.2085 15.4498L41.7562 19.6407Z" fill="currentColor" fill-opacity="0.25" />
  <path d="M24.0739 62.6008L27.9609 66.4879C28.742 67.2689 30.0083 67.2689 30.7893 66.4879L35.032 62.2452C35.813 61.4642 35.813 60.1978 35.032 59.4168L31.234 55.6189L24.8701 61.9828C24.6259 62.227 24.358 62.433 24.0739 62.6008Z" fill="currentColor" fill-opacity="0.25" />
  <path d="M49.6188 37.2341L53.4168 41.032C54.1978 41.8131 55.4641 41.8131 56.2452 41.032L60.4878 36.7894C61.2689 36.0083 61.2689 34.742 60.4878 33.9609L56.6008 30.0739C56.4329 30.3581 56.227 30.6259 55.9828 30.8701L49.6188 37.2341Z" fill="currentColor" fill-opacity="0.25" />
  <path d="M14.9706 57.7401C11.8464 54.6159 11.8464 49.5506 14.9706 46.4264L40.4264 20.9706C43.5506 17.8464 48.6159 17.8464 51.7401 20.9706L55.9828 25.2132C57.5448 26.7753 57.5449 29.308 55.9828 30.8701L24.8701 61.9828C23.308 63.5449 20.7753 63.5449 19.2132 61.9828L14.9706 57.7401Z" fill="currentColor" fill-opacity="0.25" />
  <path d="M20.8898 53.7599C19.7182 52.5883 19.7182 50.6888 20.8898 49.5173C22.0614 48.3457 23.9609 48.3457 25.1325 49.5173C26.304 50.6888 26.304 52.5883 25.1325 53.7599C23.9609 54.9315 22.0614 54.9315 20.8898 53.7599Z" fill="currentColor" fill-opacity="0.25" />
  <path d="M47.7599 26.8898C46.5883 25.7183 44.6888 25.7183 43.5172 26.8898C42.3457 28.0614 42.3457 29.9609 43.5172 31.1325C44.6888 32.3041 46.5883 32.3041 47.7599 31.1325C48.9314 29.9609 48.9314 28.0614 47.7599 26.8898Z" fill="currentColor" fill-opacity="0.25" />
  <path d="M24.8701 61.9828L31.234 55.6189L35.032 59.4168C35.813 60.1978 35.813 61.4642 35.032 62.2452L30.7893 66.4879C30.0083 67.2689 28.742 67.2689 27.9609 66.4879L24.0739 62.6008C24.358 62.433 24.6259 62.227 24.8701 61.9828ZM24.8701 61.9828L55.9828 30.8701M24.8701 61.9828C23.308 63.5449 20.7753 63.5449 19.2132 61.9828L14.9706 57.7401C11.8464 54.6159 11.8464 49.5506 14.9706 46.4264L40.4264 20.9706C43.5506 17.8464 48.6159 17.8464 51.7401 20.9706L55.9828 25.2132C57.5449 26.7753 57.5449 29.308 55.9828 30.8701M55.9828 30.8701C56.227 30.626 56.4329 30.3581 56.6008 30.0739L60.4878 33.9609C61.2689 34.742 61.2689 36.0083 60.4878 36.7894L56.2452 41.032C55.4641 41.8131 54.1978 41.8131 53.4168 41.032L49.6188 37.2341L55.9828 30.8701ZM8 67.0733H72M41.7562 19.6407L13.6406 47.7564L9.44963 38.2087C8.12456 35.1899 8.78699 31.6675 11.1181 29.3363L23.3362 17.1183C25.6673 14.7871 29.1898 14.1247 32.2085 15.4498L41.7562 19.6407ZM25.1325 53.7599C23.9609 54.9315 22.0614 54.9315 20.8898 53.7599C19.7182 52.5883 19.7182 50.6888 20.8898 49.5173C22.0614 48.3457 23.9609 48.3457 25.1325 49.5173C26.304 50.6888 26.304 52.5883 25.1325 53.7599ZM47.7599 31.1325C48.9314 29.9609 48.9314 28.0614 47.7599 26.8898C46.5883 25.7183 44.6888 25.7183 43.5172 26.8898C42.3457 28.0614 42.3457 29.9609 43.5172 31.1325C44.6888 32.3041 46.5883 32.3041 47.7599 31.1325Z" stroke="currentColor" stroke-width="4" stroke-linecap="round" stroke-linejoin="round" />
</svg>