<svg width="80" height="80" viewBox="0 0 80 80" fill="none" xmlns="http://www.w3.org/2000/svg">
  <path d="M59.8807 35H20.1191L23.9069 25.2853C25.1045 22.2137 28.0637 20.1914 31.3604 20.1914H48.6394C51.9361 20.1914 54.8953 22.2138 56.0929 25.2853L59.8807 35Z" fill="currentColor" fill-opacity="0.25" />
  <path d="M17 52.874V58.3711C17 59.4757 17.8954 60.3711 19 60.3711H25C26.1046 60.3711 27 59.4757 27 58.3711V53H18C17.6547 53 17.3196 52.9563 17 52.874Z" fill="currentColor" fill-opacity="0.25" />
  <path d="M53 53V58.3711C53 59.4757 53.8954 60.3711 55 60.3711H61C62.1046 60.3711 63 59.4757 63 58.3711V52.874C62.6804 52.9563 62.3453 53 62 53H53Z" fill="currentColor" fill-opacity="0.25" />
  <path d="M14 43C14 38.5817 17.5817 35 22 35H58C62.4183 35 66 38.5817 66 43V49C66 51.2091 64.2091 53 62 53H18C15.7909 53 14 51.2091 14 49V43Z" fill="currentColor" fill-opacity="0.25" />
  <path d="M21 44.3711C21 42.7142 22.3431 41.3711 24 41.3711C25.6569 41.3711 27 42.7142 27 44.3711C27 46.0279 25.6569 47.3711 24 47.3711C22.3431 47.3711 21 46.0279 21 44.3711Z" fill="currentColor" fill-opacity="0.25" />
  <path d="M59 44.3711C59 42.7142 57.6569 41.3711 56 41.3711C54.3431 41.3711 53 42.7142 53 44.3711C53 46.0279 54.3431 47.3711 56 47.3711C57.6569 47.3711 59 46.0279 59 44.3711Z" fill="currentColor" fill-opacity="0.25" />
  <path d="M18 53H27V58.3711C27 59.4757 26.1046 60.3711 25 60.3711H19C17.8954 60.3711 17 59.4757 17 58.3711V52.874C17.3196 52.9563 17.6547 53 18 53ZM18 53H62M18 53C15.7909 53 14 51.2091 14 49V43C14 38.5817 17.5817 35 22 35H58C62.4183 35 66 38.5817 66 43V49C66 51.2091 64.2091 53 62 53M62 53C62.3453 53 62.6804 52.9563 63 52.874V58.3711C63 59.4757 62.1046 60.3711 61 60.3711H55C53.8954 60.3711 53 59.4757 53 58.3711V53H62ZM59.8807 35H20.1191L23.9069 25.2853C25.1045 22.2137 28.0637 20.1914 31.3604 20.1914H48.6394C51.9361 20.1914 54.8953 22.2138 56.0929 25.2853L59.8807 35ZM24 47.3711C22.3431 47.3711 21 46.0279 21 44.3711C21 42.7142 22.3431 41.3711 24 41.3711C25.6569 41.3711 27 42.7142 27 44.3711C27 46.0279 25.6569 47.3711 24 47.3711ZM56 47.3711C57.6569 47.3711 59 46.0279 59 44.3711C59 42.7142 57.6569 41.3711 56 41.3711C54.3431 41.3711 53 42.7142 53 44.3711C53 46.0279 54.3431 47.3711 56 47.3711Z" stroke="currentColor" stroke-width="4" stroke-linecap="round" stroke-linejoin="round" />
</svg>