<svg viewBox="0 0 80 80" fill="none">
  <path d="M43.9421 16.5121C43.2608 14.9419 41.7124 13.9258 40.0007 13.9258C38.289 13.9258 36.7406 14.9419 36.0593 16.5121L34.6053 19.8638L31.6702 17.6882C30.295 16.6689 28.4461 16.5632 26.9637 17.419C25.4813 18.2749 24.6484 19.929 24.8435 21.6296L25.2601 25.2592L21.6304 24.8427C19.9299 24.6475 18.2758 25.4804 17.4199 26.9628C16.564 28.4452 16.6698 30.2942 17.6891 31.6693L19.8646 34.6044L16.513 36.0585C14.9427 36.7398 13.9266 38.2882 13.9266 39.9999C13.9266 41.7116 14.9427 43.26 16.513 43.9412L19.8646 45.3953L17.6891 48.3304C16.6698 49.7055 16.564 51.5545 17.4199 53.0369C18.2758 54.5193 19.9299 55.3522 21.6304 55.157L25.2601 54.7405L24.8435 58.3701C24.6484 60.0707 25.4813 61.7248 26.9637 62.5807C28.4461 63.4365 30.295 63.3308 31.6702 62.3115L34.6053 60.1359L36.0593 63.4876C36.7406 65.0579 38.289 66.0739 40.0007 66.0739C41.7124 66.0739 43.2608 65.0579 43.9421 63.4876L45.3962 60.1359L48.3312 62.3115C49.7064 63.3308 51.5554 63.4365 53.0377 62.5807C54.5201 61.7248 55.353 60.0707 55.1579 58.3701L54.7413 54.7405L58.371 55.157C60.0715 55.3522 61.7257 54.5193 62.5815 53.0369C63.4374 51.5545 63.3316 49.7055 62.3123 48.3304L60.1368 45.3953L63.4884 43.9412C65.0587 43.26 66.0748 41.7116 66.0748 39.9999C66.0748 38.2882 65.0587 36.7398 63.4884 36.0585L60.1368 34.6044L62.3123 31.6693C63.3316 30.2942 63.4374 28.4452 62.5815 26.9628C61.7257 25.4804 60.0715 24.6475 58.371 24.8427L54.7413 25.2592L55.1579 21.6296C55.353 19.929 54.5201 18.2749 53.0377 17.419C51.5554 16.5632 49.7064 16.6689 48.3312 17.6882L45.3962 19.8638L43.9421 16.5121Z" fill="currentColor" fill-opacity="0.25" stroke="currentColor" stroke-linecap="round" stroke-linejoin="round" />
</svg>