<svg viewBox="0 0 80 80" fill="none">
  <path d="M65.6036 25.218C67.5265 28.5486 68.7998 32.2542 69.3115 36.1412C70.335 43.915 68.2283 51.777 63.4551 57.9976C58.6819 64.2182 51.633 68.2878 43.8592 69.3113C36.0854 70.3347 28.2234 68.2281 22.0028 63.4549C18.8925 61.0682 16.3199 58.1127 14.397 54.7821L27.5296 47.2C29.4392 50.5075 32.5844 52.9209 36.2734 53.9093C39.9624 54.8978 43.8929 54.3803 47.2004 52.4708C50.5078 50.5612 52.9212 47.416 53.9097 43.727C54.8982 40.038 54.3807 36.1075 52.4711 32.8L65.6036 25.218Z" fill="currentColor" fill-opacity="0.25" />
  <path d="M41.162 10.4586L40.5662 25.6111C37.9924 25.5099 35.4387 26.1009 33.171 27.3225C30.9034 28.544 29.0049 30.3514 27.6735 32.5564C26.342 34.7613 25.6264 37.2829 25.6011 39.8585C25.5757 42.4341 26.2417 44.9694 27.5296 47.2L14.397 54.7821C12.4741 51.4515 11.2008 47.7459 10.6891 43.8589C9.66563 36.0851 11.7722 28.2231 16.5455 22.0025C21.3187 15.7819 28.3676 11.7123 36.1414 10.6888C37.8166 10.4683 39.4959 10.3931 41.162 10.4586Z" fill="currentColor" fill-opacity="0.25" />
  <path d="M41.1491 10.4581C47.2191 10.6942 53.1143 12.798 57.9978 16.5452C61.0993 18.9251 63.6661 21.8706 65.5872 25.1897L52.4632 32.7862C51.2457 30.683 49.5158 28.922 47.4345 27.6674C45.3532 26.4128 42.9883 25.7053 40.5599 25.6109L41.1491 10.4581Z" fill="currentColor" fill-opacity="0.25" />
  <path d="M14.397 54.7821C16.3199 58.1127 18.8925 61.0682 22.0028 63.4549C28.2234 68.2281 36.0854 70.3347 43.8592 69.3113C51.633 68.2878 58.6819 64.2182 63.4551 57.9976C68.2283 51.777 70.335 43.915 69.3115 36.1412C68.7998 32.2542 67.5265 28.5486 65.6036 25.218L52.4711 32.8C54.3807 36.1075 54.8982 40.038 53.9097 43.727C52.9212 47.416 50.5078 50.5612 47.2004 52.4708C43.8929 54.3803 39.9624 54.8978 36.2734 53.9093C32.5844 52.9209 29.4392 50.5075 27.5296 47.2M14.397 54.7821L27.5296 47.2M14.397 54.7821C12.4741 51.4515 11.2008 47.7459 10.6891 43.8589C9.66563 36.0851 11.7722 28.2231 16.5455 22.0025C21.3187 15.7819 28.3676 11.7123 36.1414 10.6888C37.8166 10.4683 39.4959 10.3931 41.162 10.4586L40.5662 25.6111C37.9924 25.5099 35.4387 26.1009 33.171 27.3225C30.9034 28.544 29.0049 30.3515 27.6735 32.5564C26.342 34.7613 25.6264 37.2829 25.6011 39.8585C25.5757 42.4341 26.2417 44.9694 27.5296 47.2M41.1491 10.4581C47.2191 10.6942 53.1143 12.798 57.9978 16.5452C61.0993 18.9251 63.6661 21.8706 65.5872 25.1897L52.4632 32.7862C51.2457 30.683 49.5158 28.922 47.4345 27.6674C45.3532 26.4128 42.9883 25.7053 40.5599 25.6109L41.1491 10.4581Z" stroke="currentColor" stroke-linecap="round" stroke-linejoin="round" />
</svg>