<svg width="80" height="80" viewBox="0 0 80 80" fill="none" xmlns="http://www.w3.org/2000/svg">
  <path d="M40 66C54.3594 66 66 54.3594 66 40C66 25.6406 54.3594 14 40 14C25.6406 14 14 25.6406 14 40C14 46.5596 16.4291 52.5518 20.4369 57.1261L16 66L40 66Z" fill="currentColor" fill-opacity="0.25" />
  <path d="M40 46.4V46.0197C40 43.6861 41.2297 41.5252 43.2359 40.3332L44.9751 39.3C47.4705 37.8175 49 35.1297 49 32.2271C49 27.6834 45.3166 24 40.7729 24H40C35.0294 24 31 28.0294 31 33V33.5082M40 53.5999V55.1999M66 40C66 54.3594 54.3594 66 40 66L16 66L20.4369 57.1261C16.4291 52.5518 14 46.5596 14 40C14 25.6406 25.6406 14 40 14C54.3594 14 66 25.6406 66 40Z" stroke="currentColor" stroke-width="4" stroke-linecap="round" stroke-linejoin="round" />
</svg>