<svg width="80" height="80" viewBox="0 0 80 80" fill="none" xmlns="http://www.w3.org/2000/svg">
  <path d="M24 12C19.5817 12 16 15.5817 16 20V52C16 56.4183 19.5817 60 24 60H34L40 68L46 60H56C60.4183 60 64 56.4183 64 52V20C64 15.5817 60.4183 12 56 12H24Z" fill="currentColor" fill-opacity="0.25" />
  <path d="M40 24L40.0208 35.988L50.3923 42L40 36.024L29.6077 42L39.9792 35.988L40 24Z" fill="currentColor" fill-opacity="0.25" />
  <path d="M40 48L40.0208 36.012L50.3923 30L40 35.976L29.6077 30L39.9792 36.012L40 48Z" fill="currentColor" fill-opacity="0.25" />
  <path d="M24 12C19.5817 12 16 15.5817 16 20V52C16 56.4183 19.5817 60 24 60H34L40 68L46 60H56C60.4183 60 64 56.4183 64 52V20C64 15.5817 60.4183 12 56 12H24Z" stroke="currentColor" stroke-width="4" stroke-linecap="round" stroke-linejoin="round" />
  <path d="M40 24L40.0208 35.988L50.3923 42L40 36.024L29.6077 42L39.9792 35.988L40 24Z" stroke="currentColor" stroke-width="4" stroke-linecap="round" stroke-linejoin="round" />
  <path d="M40 48L40.0208 36.012L50.3923 30L40 35.976L29.6077 30L39.9792 36.012L40 48Z" stroke="currentColor" stroke-width="4" stroke-linecap="round" stroke-linejoin="round" />
</svg>