<svg viewBox="0 0 80 80" fill="none">
  <path d="M39.9464 22.0002C39.594 22.0006 39.2521 21.9554 38.9265 21.8703L33.6137 40.637L23.9989 25.3512C23.9012 25.4107 23.8002 25.4664 23.6959 25.5182L23.6056 25.5633C22.8249 25.9548 21.9772 26.0667 21.1763 25.937L21.3543 44.2367L14.4452 38.1313C13.9234 39.0111 13.0738 39.6742 12.0637 39.9514L18.253 59H61.7515L67.9404 39.9525C66.9296 39.6763 66.079 39.0137 65.5564 38.134L58.6502 44.2367L58.8282 25.9363C58.026 26.0672 57.1765 25.9555 56.3944 25.5633L56.3041 25.5182C56.201 25.467 56.101 25.4119 56.0043 25.3532L46.3908 40.637L41.0777 21.8691C40.7508 21.955 40.4075 22.0006 40.0536 22.0002L40 22.0001L39.9464 22.0002Z" fill="currentColor" fill-opacity="0.25" />
  <path d="M16.0022 61C16.0022 59.8954 16.8976 59 18.0022 59H62.0022C63.1068 59 64.0022 59.8954 64.0022 61V65C64.0022 66.1046 63.1068 67 62.0022 67H18.0022C16.8976 67 16.0022 66.1046 16.0022 65V61Z" fill="currentColor" fill-opacity="0.25" />
  <path d="M40 14L39.9366 14C37.7274 14.0028 35.9388 15.7958 35.9415 18.0049C35.9442 20.2141 37.7373 22.0029 39.9464 22.0002L40 22.0001L40.0536 22.0002C42.2627 22.0029 44.0557 20.2141 44.0584 18.0049C44.0612 15.7958 42.2725 14.0028 40.0634 14L40 14Z" fill="currentColor" fill-opacity="0.25" />
  <path d="M23.6959 25.5182C25.6743 24.5354 26.4814 22.1346 25.4985 20.1562C24.5156 18.1777 22.115 17.3706 20.1366 18.3535L20.0196 18.4119C18.0448 19.4021 17.2467 21.8057 18.237 23.7805C19.2272 25.7553 21.6308 26.5535 23.6056 25.5633L23.6959 25.5182Z" fill="currentColor" fill-opacity="0.25" />
  <path d="M59.8634 18.3535C57.8849 17.3706 55.4843 18.1777 54.5014 20.1562C53.5186 22.1346 54.3257 24.5354 56.3041 25.5182L56.3944 25.5633C58.3691 26.5535 60.7727 25.7553 61.763 23.7805C62.7532 21.8057 61.9551 19.4021 59.9804 18.4119L59.8634 18.3535Z" fill="currentColor" fill-opacity="0.25" />
  <path d="M15.0023 35.9971C15.0136 33.788 13.2319 31.9881 11.0227 31.9768C8.81363 31.9655 7.01366 33.7472 7.0024 35.9564L7.0022 36.0352L7.0024 36.114C7.01366 38.3231 8.81363 40.1048 11.0227 40.0936C13.2319 40.0823 15.0136 38.2823 15.0023 36.0732L15.0022 36.0352L15.0023 35.9971Z" fill="currentColor" fill-opacity="0.25" />
  <path d="M72.9975 35.9564C72.9863 33.7472 71.1863 31.9655 68.9772 31.9768C66.7681 31.9881 64.9864 33.788 64.9977 35.9971L64.9977 36.0352L64.9977 36.0732C64.9864 38.2823 66.7681 40.0823 68.9772 40.0936C71.1863 40.1048 72.9863 38.3231 72.9975 36.114L72.9977 36.0352L72.9975 35.9564Z" fill="currentColor" fill-opacity="0.25" />
  <path d="M39.9464 22.0002C39.594 22.0006 39.2521 21.9554 38.9265 21.8703L33.6137 40.637L23.9989 25.3512C23.9012 25.4107 23.8002 25.4664 23.6959 25.5182M39.9464 22.0002L40 22.0001L40.0536 22.0002M39.9464 22.0002C37.7373 22.0029 35.9442 20.2141 35.9415 18.0049C35.9388 15.7958 37.7274 14.0028 39.9366 14L40 14L40.0634 14C42.2725 14.0028 44.0612 15.7958 44.0584 18.0049C44.0557 20.2141 42.2627 22.0029 40.0536 22.0002M23.6959 25.5182L23.6056 25.5633M23.6959 25.5182C25.6743 24.5354 26.4814 22.1346 25.4985 20.1562C24.5156 18.1777 22.115 17.3706 20.1366 18.3535L20.0196 18.4119C18.0448 19.4021 17.2467 21.8057 18.237 23.7805C19.2272 25.7553 21.6308 26.5535 23.6056 25.5633M23.6056 25.5633C22.8249 25.9548 21.9772 26.0667 21.1763 25.937L21.3543 44.2367L14.4452 38.1313C13.9234 39.0111 13.0738 39.6742 12.0637 39.9514L18.253 59H61.7515L67.9404 39.9525C66.9296 39.6763 66.079 39.0137 65.5564 38.134L58.6502 44.2367L58.8282 25.9363C58.026 26.0672 57.1765 25.9555 56.3944 25.5633M56.3944 25.5633L56.3041 25.5182M56.3944 25.5633C58.3691 26.5535 60.7727 25.7553 61.763 23.7805C62.7532 21.8057 61.9551 19.4021 59.9804 18.4119L59.8634 18.3535C57.8849 17.3706 55.4843 18.1777 54.5014 20.1562C53.5186 22.1346 54.3257 24.5354 56.3041 25.5182M56.3041 25.5182C56.201 25.467 56.101 25.4119 56.0043 25.3532L46.3908 40.637L41.0777 21.8691C40.7508 21.955 40.4075 22.0006 40.0536 22.0002M18.0022 67H62.0022C63.1068 67 64.0022 66.1046 64.0022 65V61C64.0022 59.8954 63.1068 59 62.0022 59H18.0022C16.8976 59 16.0022 59.8954 16.0022 61V65C16.0022 66.1046 16.8976 67 18.0022 67ZM11.0227 31.9768C13.2319 31.9881 15.0136 33.788 15.0023 35.9971L15.0022 36.0352L15.0023 36.0732C15.0136 38.2823 13.2319 40.0823 11.0227 40.0936C8.81363 40.1048 7.01366 38.3231 7.0024 36.114L7.0022 36.0352L7.0024 35.9564C7.01366 33.7472 8.81363 31.9655 11.0227 31.9768ZM68.9772 31.9768C71.1863 31.9655 72.9863 33.7472 72.9975 35.9564L72.9977 36.0352L72.9975 36.114C72.9863 38.3231 71.1863 40.1048 68.9772 40.0936C66.7681 40.0823 64.9864 38.2823 64.9977 36.0732L64.9977 36.0352L64.9977 35.9971C64.9864 33.788 66.7681 31.9881 68.9772 31.9768Z" stroke="currentColor" stroke-linecap="round" stroke-linejoin="round" />
</svg>