<svg width="80" height="80" viewBox="0 0 80 80" fill="none" xmlns="http://www.w3.org/2000/svg">
  <path d="M47.9714 16.9507C43.5644 12.5594 36.4358 12.5594 32.0287 16.9507C30.0878 18.8846 28.9974 21.3483 28.7574 23.8774C31.2115 24.6298 33.4701 25.9722 35.3216 27.8171C37.6367 30.1239 39.1681 33.0698 39.7441 36.2412C39.9205 36.2452 40.097 36.2451 40.2734 36.2408C40.8495 33.0696 42.3809 30.1239 44.6959 27.8172C46.5431 25.9766 48.7956 24.6361 51.2432 23.8827C51.0042 21.3517 49.9136 18.886 47.9714 16.9507Z" fill="currentColor" fill-opacity="0.25" />
  <path d="M21.0378 59.7883L28.3976 57.955C32.2069 57.006 36.1034 56.5316 40 56.5316V39.0827C40 34.8547 38.3166 30.8014 35.3216 27.8171C32.3405 24.8467 28.3037 23.1781 24.0954 23.1781H23.9046C19.6963 23.1781 15.6595 24.846 12.6785 27.8164C9.68347 30.8007 8 34.8547 8 39.0827V41.1436C8 45.7673 10.0002 50.1649 13.4853 53.2035L21.0378 59.7883Z" fill="currentColor" fill-opacity="0.25" />
  <path d="M58.9759 59.7917L66.5321 53.2037C70.0172 50.1651 72.0174 45.7675 72.0174 41.1438V39.0829C72.0174 34.8549 70.3339 30.8009 67.3389 27.8166C64.3579 24.8462 60.3211 23.1783 56.1128 23.1783H55.9219C51.7136 23.1783 47.6769 24.8468 44.6959 27.8172C41.7009 30.8015 40.0173 34.8549 40.0173 39.0829V56.5316C43.9082 56.533 47.799 57.0074 51.6027 57.955L58.9759 59.7917Z" fill="currentColor" fill-opacity="0.25" />
  <path d="M18.6668 61.9417C18.6668 61.0233 19.2923 60.2229 20.1834 60.001L28.3976 57.955C36.0162 56.0571 43.9841 56.0571 51.6027 57.955L59.8169 60.001C60.7081 60.2229 61.3335 61.0233 61.3335 61.9416V68.448C61.3335 69.7484 60.1119 70.703 58.8501 70.3887L51.6027 68.5833C43.9841 66.6855 36.0162 66.6855 28.3976 68.5833L21.1503 70.3887C19.8884 70.703 18.6668 69.7484 18.6668 68.448V61.9417Z" fill="currentColor" fill-opacity="0.25" />
  <path d="M35.3216 27.8171C33.4701 25.9722 31.2115 24.6298 28.7574 23.8774C28.9974 21.3483 30.0878 18.8846 32.0287 16.9507C36.4358 12.5594 43.5644 12.5594 47.9714 16.9507C49.9136 18.886 51.0042 21.3517 51.2432 23.8827C48.7956 24.6361 46.5431 25.9766 44.6959 27.8172M35.3216 27.8171C37.6367 30.1239 39.1681 33.0698 39.7441 36.2412C39.9205 36.2452 40.097 36.2451 40.2734 36.2408C40.8495 33.0696 42.3809 30.1239 44.6959 27.8172M35.3216 27.8171C38.3166 30.8014 40 34.8547 40 39.0827V56.5316C36.1034 56.5316 32.2069 57.006 28.3976 57.955M35.3216 27.8171C32.3405 24.8467 28.3037 23.1781 24.0954 23.1781H23.9046C19.6963 23.1781 15.6595 24.846 12.6785 27.8164C9.68347 30.8007 8 34.8547 8 39.0827V41.1436C8 45.7673 10.0002 50.1649 13.4853 53.2035L21.0378 59.7883L28.3976 57.955M44.6959 27.8172C47.6769 24.8468 51.7136 23.1783 55.9219 23.1783H56.1128C60.3211 23.1783 64.3579 24.8462 67.3389 27.8166C70.3339 30.8009 72.0174 34.8549 72.0174 39.0829V41.1438C72.0174 45.7675 70.0172 50.1651 66.5321 53.2037L58.9759 59.7917L51.6027 57.955M44.6959 27.8172C41.7009 30.8015 40.0173 34.8549 40.0173 39.0829V56.5316C43.9082 56.533 47.799 57.0074 51.6027 57.955M28.3976 57.955L20.1834 60.001C19.2923 60.2229 18.6668 61.0233 18.6668 61.9417V68.448C18.6668 69.7484 19.8884 70.703 21.1503 70.3887L28.3976 68.5833C36.0162 66.6855 43.9841 66.6855 51.6027 68.5833L58.8501 70.3887C60.1119 70.703 61.3335 69.7484 61.3335 68.448V61.9416C61.3335 61.0233 60.7081 60.2229 59.8169 60.001L51.6027 57.955M28.3976 57.955C36.0162 56.0571 43.9841 56.0571 51.6027 57.955" stroke="currentColor" stroke-width="4" stroke-linecap="round" stroke-linejoin="round" />
</svg>