<svg width="80" height="80" viewBox="0 0 80 80" fill="none" xmlns="http://www.w3.org/2000/svg">
  <path d="M33.9999 12L34.0249 20.0079L34.0005 20L33.9749 20.0083L33.9999 12Z" fill="currentColor" fill-opacity="0.25" />
  <path d="M23.4449 23.4297L18.7175 16.9656L23.4046 23.4593L23.4203 23.4377L23.4449 23.4297Z" fill="currentColor" fill-opacity="0.25" />
  <path d="M16.8967 32.4166L9.27246 29.9656L16.8814 32.4641V32.4377L16.8967 32.4166Z" fill="currentColor" fill-opacity="0.25" />
  <path d="M16.8814 43.5359L9.27246 46.0344L16.8968 43.5834L16.8815 43.5623L16.8814 43.5359Z" fill="currentColor" fill-opacity="0.25" />
  <path d="M23.4046 52.5407L18.7175 59.0344L23.4449 52.5703L23.4203 52.5623L23.4046 52.5407Z" fill="currentColor" fill-opacity="0.25" />
  <path d="M51.1195 32.4377V32.4638L58.7274 29.9656L51.104 32.4163L51.1195 32.4377Z" fill="currentColor" fill-opacity="0.25" />
  <path d="M44.5958 23.4586L49.2823 16.9656L44.5552 23.4294L44.5806 23.4377L44.5958 23.4586Z" fill="currentColor" fill-opacity="0.25" />
  <path d="M37.5266 27.1459C39.8188 27.8907 41.8163 29.342 43.233 31.2918C44.6496 33.2416 45.4126 35.5899 45.4126 38C45.4126 39.225 45.2155 40.4341 44.8356 41.583C44.6739 41.8208 44.5203 42.0651 44.3753 42.3156L43.7628 43.3734C43.2651 43.1221 42.7403 42.9196 42.1957 42.7713C40.0879 42.1975 37.8226 42.4827 35.9317 43.5713C34.0408 44.6599 32.6605 46.4735 32.105 48.5807C32.0483 48.7955 32.0006 49.0118 31.9616 49.2292C31.4597 49.1381 30.9624 49.0131 30.4732 48.8541C28.1811 48.1093 26.1835 46.658 24.7669 44.7082C23.3502 42.7584 22.5873 40.4101 22.5873 38C22.5873 35.5899 23.3502 33.2416 24.7669 31.2918C26.1835 29.342 28.1811 27.8907 30.4732 27.1459C32.7654 26.4011 35.2345 26.4011 37.5266 27.1459Z" fill="currentColor" fill-opacity="0.25" />
  <path d="M60.7502 37.9342C63.4983 39.5163 65.5115 42.13 66.3334 45.1886C66.7757 46.8348 66.8556 48.5403 66.5876 50.1924C67.57 50.649 68.475 51.2764 69.2558 52.055C71.0095 53.8037 71.9998 56.1832 71.9998 58.6597C71.9998 61.1363 71.0095 63.5157 69.2558 65.2645C67.5027 67.0127 65.1231 67.9991 62.6472 67.9991H60.6087C60.6012 67.9997 60.5935 68 60.5858 68H35.4151C35.4123 68 35.4095 67.9999 35.4067 67.9999H33.3525C30.8766 67.9999 28.497 67.0135 26.7438 65.2652C24.9902 63.5165 23.9998 61.1371 23.9998 58.6605C23.9998 56.1839 24.9902 53.8045 26.7438 52.0558C28.1574 50.6463 29.9781 49.732 31.9281 49.4306C31.972 49.1455 32.0309 48.8617 32.105 48.5807C32.6605 46.4735 34.0408 44.6599 35.9317 43.5713C37.8226 42.4827 40.0879 42.1975 42.1957 42.7713C42.7403 42.9196 43.2651 43.1221 43.7628 43.3734L44.3753 42.3156C45.9671 39.5664 48.5882 37.5602 51.6612 36.7391C54.7284 35.9195 58.0021 36.3521 60.7502 37.9342Z" fill="currentColor" fill-opacity="0.25" />
  <path d="M44.3753 42.3156C44.5203 42.0651 44.6739 41.8208 44.8356 41.583C45.2155 40.4341 45.4126 39.225 45.4126 38C45.4126 35.5899 44.6496 33.2416 43.233 31.2918C41.8163 29.342 39.8188 27.8907 37.5266 27.1459C35.2345 26.4011 32.7654 26.4011 30.4732 27.1459C28.1811 27.8907 26.1835 29.342 24.7669 31.2918C23.3502 33.2416 22.5873 35.5899 22.5873 38C22.5873 40.4101 23.3502 42.7584 24.7669 44.7082C26.1835 46.658 28.1811 48.1093 30.4732 48.8541C30.9624 49.0131 31.4597 49.1381 31.9616 49.2292C32.0006 49.0118 32.0483 48.7955 32.105 48.5807M44.3753 42.3156L43.7628 43.3734C43.2651 43.1221 42.7403 42.9196 42.1957 42.7713C40.0879 42.1975 37.8226 42.4827 35.9317 43.5713C34.0408 44.6599 32.6605 46.4735 32.105 48.5807M44.3753 42.3156C45.9671 39.5664 48.5882 37.5602 51.6612 36.7391C54.7284 35.9196 58.0021 36.3521 60.7502 37.9342C63.4983 39.5163 65.5115 42.13 66.3334 45.1886C66.7757 46.8348 66.8556 48.5403 66.5876 50.1924C67.57 50.649 68.475 51.2764 69.2558 52.055C71.0095 53.8037 71.9998 56.1832 71.9998 58.6597C71.9998 61.1363 71.0095 63.5157 69.2558 65.2645C67.5027 67.0127 65.1231 67.9991 62.6472 67.9991H60.6087C60.6012 67.9997 60.5935 68 60.5858 68H35.4151C35.4123 68 35.4095 67.9999 35.4067 67.9999H33.3525C30.8766 67.9999 28.497 67.0135 26.7438 65.2652C24.9902 63.5165 23.9998 61.1371 23.9998 58.6605C23.9998 56.1839 24.9902 53.8045 26.7438 52.0558C28.1574 50.6463 29.9781 49.732 31.9281 49.4306C31.972 49.1455 32.0309 48.8617 32.105 48.5807M34.0249 20.0079L33.9999 12L33.9749 20.0083L34.0005 20L34.0249 20.0079ZM18.7175 16.9656L23.4449 23.4297L23.4203 23.4377L23.4046 23.4593L18.7175 16.9656ZM9.27246 29.9656L16.8967 32.4166L16.8814 32.4377V32.4641L9.27246 29.9656ZM9.27246 46.0344L16.8814 43.5359L16.8815 43.5623L16.8968 43.5834L9.27246 46.0344ZM18.7175 59.0344L23.4046 52.5407L23.4203 52.5623L23.4449 52.5703L18.7175 59.0344ZM51.1195 32.4377V32.4638L58.7274 29.9656L51.104 32.4163L51.1195 32.4377ZM49.2823 16.9656L44.5958 23.4586L44.5806 23.4377L44.5552 23.4294L49.2823 16.9656Z" stroke="currentColor" stroke-width="4" stroke-linecap="round" stroke-linejoin="round" />
</svg>