<svg width="80" height="80" viewBox="0 0 80 80" fill="none" xmlns="http://www.w3.org/2000/svg">
  <path d="M14 30.7084C14 28.4993 15.7909 26.7084 18 26.7084H62C64.2091 26.7084 66 28.4993 66 30.7084V70.7084C66 72.9176 64.2091 74.7084 62 74.7084H18C15.7909 74.7084 14 72.9176 14 70.7084V30.7084Z" fill="currentColor" fill-opacity="0.25" />
  <path d="M27.2857 45.5656C24.9188 45.5656 23 47.4844 23 49.8513V56.2799C23 57.4633 23.9594 58.4227 25.1429 58.4227H26.8182V66.7084C26.8182 67.813 27.7136 68.7084 28.8182 68.7084H31.1818C32.2864 68.7084 33.1818 67.813 33.1818 66.7084V58.4227H34.8571C36.0406 58.4227 37 57.4633 37 56.2799V49.8513C37 47.4844 35.0812 45.5656 32.7143 45.5656H27.2857Z" fill="currentColor" fill-opacity="0.25" />
  <path d="M27.9975 42.02C29.2617 42.635 30.7383 42.635 32.0025 42.02C33.2526 41.4118 34.1586 40.2685 34.4649 38.9125L34.4772 38.8582C34.7846 37.4975 34.4515 36.0586 33.5871 34.9637C32.7228 33.8687 31.395 33.2177 30 33.2177C28.605 33.2177 27.2772 33.8687 26.4129 34.9637C25.5485 36.0586 25.2154 37.4975 25.5228 38.8582L25.5351 38.9125C25.8414 40.2685 26.7474 41.4118 27.9975 42.02Z" fill="currentColor" fill-opacity="0.25" />
  <path d="M53.6261 47.0115C52.8467 46.0943 51.7037 45.5656 50.5 45.5656C49.2963 45.5656 48.1534 46.0943 47.3739 47.0115L47.279 47.1233C46.9002 47.5691 46.6137 48.0857 46.436 48.6431L43.0104 59.394C42.9608 59.5496 43.0769 59.7084 43.2402 59.7084H47.4274V66.7084C47.4274 67.813 48.3228 68.7084 49.4274 68.7084H51.7522C52.8568 68.7084 53.7522 67.813 53.7522 66.7084V59.7084H57.7599C57.9231 59.7084 58.0392 59.5496 57.9897 59.394L54.564 48.6431C54.3864 48.0857 54.0999 47.5691 53.7211 47.1233L53.6261 47.0115Z" fill="currentColor" fill-opacity="0.25" />
  <path d="M48.5921 42.0163C49.8525 42.6332 51.3272 42.6332 52.5876 42.0163C53.8255 41.4104 54.7215 40.2753 55.0235 38.9306L55.043 38.8437C55.3467 37.4914 55.0265 36.0743 54.171 34.9839L54.1404 34.945C53.2849 33.8546 51.9758 33.2177 50.5898 33.2177C49.2039 33.2177 47.8948 33.8546 47.0392 34.945L47.0087 34.9839C46.1531 36.0743 45.833 37.4914 46.1366 38.8437L46.1561 38.9306C46.4581 40.2753 47.3542 41.4104 48.5921 42.0163Z" fill="currentColor" fill-opacity="0.25" />
  <path d="M31 6.69365V12.1438M31 12.1524V21.1249M25.6667 12.1529L29.7889 7.25775C30.4215 6.50648 31.5785 6.50648 32.2111 7.25775L36.3333 12.1529M51 19.7232V14.2731M51 14.2645V5.29199M45.6667 14.264L49.7889 19.1591C50.4215 19.9104 51.5785 19.9104 52.2111 19.1591L56.3333 14.264M18 74.7084H62C64.2091 74.7084 66 72.9176 66 70.7084V30.7084C66 28.4993 64.2091 26.7084 62 26.7084H18C15.7909 26.7084 14 28.4993 14 30.7084V70.7084C14 72.9176 15.7909 74.7084 18 74.7084ZM23 49.8513C23 47.4844 24.9188 45.5656 27.2857 45.5656H32.7143C35.0812 45.5656 37 47.4844 37 49.8513V56.2799C37 57.4633 36.0406 58.4227 34.8571 58.4227H33.1818V66.7084C33.1818 67.813 32.2864 68.7084 31.1818 68.7084H28.8182C27.7136 68.7084 26.8182 67.813 26.8182 66.7084V58.4227H25.1429C23.9594 58.4227 23 57.4633 23 56.2799V49.8513ZM25.5351 38.9125L25.5228 38.8582C25.2154 37.4975 25.5485 36.0586 26.4129 34.9637C27.2772 33.8687 28.605 33.2177 30 33.2177C31.395 33.2177 32.7228 33.8687 33.5871 34.9637C34.4515 36.0586 34.7846 37.4975 34.4772 38.8582L34.4649 38.9125C34.1586 40.2685 33.2526 41.4118 32.0025 42.02C30.7383 42.635 29.2617 42.635 27.9975 42.02C26.7474 41.4118 25.8414 40.2685 25.5351 38.9125ZM50.5 45.5656C51.7037 45.5656 52.8467 46.0943 53.6261 47.0115L53.7211 47.1233C54.0999 47.5691 54.3864 48.0857 54.564 48.6431L57.9897 59.394C58.0392 59.5496 57.9231 59.7084 57.7599 59.7084H53.7522V66.7084C53.7522 67.813 52.8568 68.7084 51.7522 68.7084H49.4274C48.3228 68.7084 47.4274 67.813 47.4274 66.7084V59.7084H43.2402C43.0769 59.7084 42.9608 59.5496 43.0104 59.394L46.436 48.6431C46.6137 48.0857 46.9002 47.5691 47.279 47.1233L47.3739 47.0115C48.1534 46.0943 49.2963 45.5656 50.5 45.5656ZM46.1561 38.9306L46.1366 38.8437C45.833 37.4914 46.1531 36.0743 47.0087 34.9839L47.0392 34.945C47.8948 33.8546 49.2039 33.2177 50.5898 33.2177C51.9758 33.2177 53.2849 33.8546 54.1404 34.945L54.171 34.9839C55.0265 36.0743 55.3467 37.4914 55.043 38.8437L55.0235 38.9306C54.7215 40.2753 53.8255 41.4104 52.5876 42.0163C51.3272 42.6332 49.8525 42.6332 48.5921 42.0163C47.3542 41.4104 46.4581 40.2753 46.1561 38.9306Z" stroke="currentColor" stroke-width="4" stroke-linecap="round" stroke-linejoin="round" />
</svg>