<svg width="80" height="80" viewBox="0 0 80 80" fill="none" xmlns="http://www.w3.org/2000/svg">
  <path d="M14 31.0002C14 28.791 15.7909 27.0002 18 27.0002H62C64.2091 27.0002 66 28.791 66 31.0002V71.0002C66 73.2093 64.2091 75.0002 62 75.0002H18C15.7909 75.0002 14 73.2093 14 71.0002V31.0002Z" fill="currentColor" fill-opacity="0.25" />
  <path d="M27.2857 45.8573C24.9188 45.8573 23 47.7761 23 50.143V56.5716C23 57.7551 23.9594 58.7145 25.1429 58.7145H26.8182V67.0002C26.8182 68.1047 27.7136 69.0002 28.8182 69.0002H31.1818C32.2864 69.0002 33.1818 68.1047 33.1818 67.0002V58.7145H34.8571C36.0406 58.7145 37 57.7551 37 56.5716V50.143C37 47.7761 35.0812 45.8573 32.7143 45.8573H27.2857Z" fill="currentColor" fill-opacity="0.25" />
  <path d="M27.9975 42.3117C29.2617 42.9267 30.7383 42.9267 32.0025 42.3117C33.2526 41.7035 34.1586 40.5602 34.4649 39.2043L34.4772 39.1499C34.7846 37.7892 34.4515 36.3503 33.5871 35.2554C32.7228 34.1605 31.395 33.5095 30 33.5095C28.605 33.5095 27.2772 34.1605 26.4129 35.2554C25.5485 36.3503 25.2154 37.7892 25.5228 39.1499L25.5351 39.2043C25.8414 40.5602 26.7474 41.7035 27.9975 42.3117Z" fill="currentColor" fill-opacity="0.25" />
  <path d="M53.6261 47.3033C52.8467 46.386 51.7037 45.8573 50.5 45.8573C49.2963 45.8573 48.1534 46.386 47.3739 47.3033L47.279 47.415C46.9002 47.8608 46.6137 48.3774 46.436 48.9348L43.0104 59.6857C42.9608 59.8413 43.0769 60.0002 43.2402 60.0002H47.4274V67.0002C47.4274 68.1047 48.3228 69.0002 49.4274 69.0002H51.7522C52.8568 69.0002 53.7522 68.1047 53.7522 67.0002V60.0002H57.7599C57.9231 60.0002 58.0392 59.8413 57.9897 59.6857L54.564 48.9348C54.3864 48.3774 54.0999 47.8608 53.7211 47.415L53.6261 47.3033Z" fill="currentColor" fill-opacity="0.25" />
  <path d="M48.5921 42.308C49.8525 42.925 51.3272 42.925 52.5876 42.308C53.8255 41.7021 54.7215 40.5671 55.0235 39.2223L55.043 39.1354C55.3467 37.7832 55.0265 36.366 54.171 35.2756L54.1404 35.2367C53.2849 34.1463 51.9758 33.5095 50.5898 33.5095C49.2039 33.5095 47.8948 34.1463 47.0392 35.2367L47.0087 35.2756C46.1531 36.366 45.833 37.7832 46.1366 39.1354L46.1561 39.2223C46.4581 40.5671 47.3542 41.7021 48.5921 42.308Z" fill="currentColor" fill-opacity="0.25" />
  <path d="M31 9.26861V12.4362M31 12.4447V21.4168M25.6667 12.4446L28.7053 8.83627C29.904 7.41282 32.096 7.41282 33.2947 8.83627L36.3333 12.4446M51 17.7317V14.5641M51 14.5557V5.5835M45.6667 14.5557L48.7053 18.1641C49.904 19.5875 52.096 19.5875 53.2947 18.1641L56.3333 14.5557M18 75.0002H62C64.2091 75.0002 66 73.2093 66 71.0002V31.0002C66 28.791 64.2091 27.0002 62 27.0002H18C15.7909 27.0002 14 28.791 14 31.0002V71.0002C14 73.2093 15.7909 75.0002 18 75.0002ZM23 50.143C23 47.7761 24.9188 45.8573 27.2857 45.8573H32.7143C35.0812 45.8573 37 47.7761 37 50.143V56.5716C37 57.7551 36.0406 58.7145 34.8571 58.7145H33.1818V67.0002C33.1818 68.1047 32.2864 69.0002 31.1818 69.0002H28.8182C27.7136 69.0002 26.8182 68.1047 26.8182 67.0002V58.7145H25.1429C23.9594 58.7145 23 57.7551 23 56.5716V50.143ZM25.5351 39.2043L25.5228 39.1499C25.2154 37.7892 25.5485 36.3503 26.4129 35.2554C27.2772 34.1605 28.605 33.5095 30 33.5095C31.395 33.5095 32.7228 34.1605 33.5871 35.2554C34.4515 36.3503 34.7846 37.7892 34.4772 39.1499L34.4649 39.2043C34.1586 40.5603 33.2526 41.7035 32.0025 42.3117C30.7383 42.9267 29.2617 42.9267 27.9975 42.3117C26.7474 41.7035 25.8414 40.5603 25.5351 39.2043ZM50.5 45.8573C51.7037 45.8573 52.8467 46.386 53.6261 47.3033L53.7211 47.415C54.0999 47.8608 54.3864 48.3774 54.564 48.9348L57.9897 59.6857C58.0392 59.8413 57.9231 60.0002 57.7599 60.0002H53.7522V67.0002C53.7522 68.1047 52.8568 69.0002 51.7522 69.0002H49.4274C48.3228 69.0002 47.4274 68.1047 47.4274 67.0002V60.0002H43.2402C43.0769 60.0002 42.9608 59.8413 43.0104 59.6857L46.436 48.9348C46.6137 48.3774 46.9002 47.8608 47.279 47.415L47.3739 47.3033C48.1534 46.386 49.2963 45.8573 50.5 45.8573ZM46.1561 39.2223L46.1366 39.1354C45.833 37.7832 46.1531 36.366 47.0087 35.2756L47.0392 35.2367C47.8948 34.1463 49.2039 33.5095 50.5898 33.5095C51.9758 33.5095 53.2849 34.1463 54.1404 35.2367L54.171 35.2756C55.0265 36.366 55.3467 37.7832 55.043 39.1354L55.0235 39.2223C54.7215 40.5671 53.8255 41.7021 52.5876 42.308C51.3272 42.925 49.8525 42.925 48.5921 42.308C47.3542 41.7021 46.4581 40.5671 46.1561 39.2223Z" stroke="currentColor" stroke-width="4" stroke-linecap="round" stroke-linejoin="round" />
</svg>