<svg width="80" height="80" viewBox="0 0 80 80" fill="none" xmlns="http://www.w3.org/2000/svg">
  <path d="M12 26C12 23.7909 13.7909 22 16 22H64C66.2091 22 68 23.7909 68 26V54C68 56.2091 66.2091 58 64 58H16C13.7909 58 12 56.2091 12 54V26Z" fill="currentColor" fill-opacity="0.25" />
  <path d="M57 29H61V33H57V29Z" fill="currentColor" fill-opacity="0.25" />
  <path d="M19 44H43M19 50H35M16 58H64C66.2091 58 68 56.2091 68 54V26C68 23.7909 66.2091 22 64 22H16C13.7909 22 12 23.7909 12 26V54C12 56.2091 13.7909 58 16 58ZM57 29H61V33H57V29Z" stroke="currentColor" stroke-width="4" stroke-linecap="round" stroke-linejoin="round" />
</svg>