<svg width="80" height="80" viewBox="0 0 80 80" fill="none" xmlns="http://www.w3.org/2000/svg">
  <path d="M11.5147 48.5146C9.26427 50.765 8 53.8172 8 56.9998C8 60.1824 9.26436 63.2347 11.5148 65.4852C13.7652 67.7356 16.8175 68.9999 20 68.9999H60C63.1825 68.9999 66.2348 67.7356 68.4852 65.4852C70.7356 63.2347 72 60.1824 72 56.9998C72 53.8172 70.7357 50.765 68.4853 48.5146C66.2349 46.2642 63.1826 44.9999 60 44.9999C56.8174 44.9999 53.7651 46.2642 51.5147 48.5146C50.9451 49.0841 50.4387 49.7051 50 50.3665C49.5613 49.7051 49.0549 49.0841 48.4853 48.5146C46.2349 46.2642 43.1826 44.9999 40 44.9999C36.8174 44.9999 33.7651 46.2642 31.5147 48.5146C30.9451 49.0841 30.4387 49.7051 30 50.3665C29.5613 49.7051 29.0549 49.0841 28.4853 48.5146C26.2349 46.2642 23.1826 44.9999 20 44.9999C16.8174 44.9999 13.7651 46.2642 11.5147 48.5146Z" fill="currentColor" fill-opacity="0.25" />
  <path d="M29.4346 37.05L21.5813 26.0826L21.0249 26.8595C17.9405 31.167 16.282 36.332 16.282 41.6298V43C16.282 43.8606 16.3273 44.7106 16.4156 45.5477C17.5654 45.1878 18.773 44.9999 20 44.9999C23.1826 44.9999 26.2349 46.2642 28.4853 48.5146C29.0549 49.0841 29.5613 49.7051 30 50.3665C30.4387 49.7051 30.9451 49.0841 31.5147 48.5146C33.7651 46.2642 36.8174 44.9999 40 44.9999C43.1826 44.9999 46.2349 46.2642 48.4853 48.5146C49.0549 49.0841 49.5613 49.7051 50 50.3665C50.4387 49.7051 50.9451 49.0841 51.5147 48.5146C53.7651 46.2642 56.8174 44.9999 60 44.9999C61.422 44.9999 62.818 45.2523 64.1282 45.7323C64.2298 44.8356 64.282 43.9239 64.282 43V41.6298C64.282 36.332 62.6235 31.167 59.5391 26.8595L48.1827 11L29.5294 37.05C29.5061 37.0824 29.4578 37.0824 29.4346 37.05Z" fill="currentColor" fill-opacity="0.25" />
  <path d="M29.1526 47.8226L23.6285 40.108C23.3454 41.3073 23.1999 42.5426 23.1999 43.7904C23.1999 44.3537 23.2289 44.9102 23.2856 45.4585C25.2336 46.0131 27.0277 47.0569 28.4853 48.5146C29.0549 49.0841 29.5613 49.7051 30 50.3665C30.4387 49.7051 30.9451 49.0841 31.5147 48.5146C33.7651 46.2642 36.8174 44.9999 40 44.9999C43.1826 44.9999 46.2349 46.2642 48.4853 48.5146C49.0549 49.0841 49.5613 49.7051 50 50.3665C50.4387 49.7051 50.9451 49.0841 51.5147 48.5146C52.9722 47.057 54.7663 46.0132 56.7142 45.4586C56.7708 44.9103 56.7999 44.3537 56.7999 43.7904C56.7999 40.2182 55.607 36.7482 53.4105 33.9311L46 24.427L29.2474 47.8226C29.2241 47.8551 29.1758 47.8551 29.1526 47.8226Z" fill="currentColor" fill-opacity="0.25" />
  <path d="M60 44.9999C63.1826 44.9999 66.2349 46.2642 68.4853 48.5146C70.7357 50.765 72 53.8172 72 56.9998C72 60.1824 70.7356 63.2347 68.4852 65.4852C66.2348 67.7356 63.1825 68.9999 60 68.9999H20C16.8175 68.9999 13.7652 67.7356 11.5148 65.4852C9.26436 63.2347 8 60.1824 8 56.9998C8 53.8172 9.26427 50.765 11.5147 48.5146C13.7651 46.2642 16.8174 44.9999 20 44.9999M60 44.9999C56.8174 44.9999 53.7651 46.2642 51.5147 48.5146M60 44.9999C61.422 44.9999 62.818 45.2523 64.1282 45.7323C64.2298 44.8356 64.282 43.9239 64.282 43V41.6298C64.282 36.332 62.6235 31.167 59.5391 26.8595L48.1827 11L29.5294 37.05C29.5061 37.0824 29.4578 37.0824 29.4346 37.05L21.5813 26.0826L21.0249 26.8595C17.9405 31.167 16.282 36.332 16.282 41.6298V43C16.282 43.8606 16.3273 44.7106 16.4156 45.5477C17.5654 45.1878 18.773 44.9999 20 44.9999M51.5147 48.5146C50.9451 49.0841 50.4387 49.7051 50 50.3665C49.5613 49.7051 49.0549 49.0841 48.4853 48.5146C46.2349 46.2642 43.1826 44.9999 40 44.9999C36.8174 44.9999 33.7651 46.2642 31.5147 48.5146C30.9451 49.0841 30.4387 49.7051 30 50.3665C29.5613 49.7051 29.0549 49.0841 28.4853 48.5146M51.5147 48.5146C52.9722 47.057 54.7663 46.0132 56.7142 45.4586C56.7708 44.9103 56.7999 44.3537 56.7999 43.7904C56.7999 40.2182 55.607 36.7482 53.4105 33.9311L46 24.427L29.2474 47.8226C29.2241 47.8551 29.1758 47.8551 29.1526 47.8226L23.6285 40.108C23.3454 41.3073 23.1999 42.5426 23.1999 43.7904C23.1999 44.3537 23.2289 44.9102 23.2856 45.4585C25.2336 46.0131 27.0277 47.0569 28.4853 48.5146M28.4853 48.5146C26.2349 46.2642 23.1826 44.9999 20 44.9999" stroke="currentColor" stroke-width="4" stroke-linecap="round" stroke-linejoin="round" />
</svg>