<svg width="80" height="80" viewBox="0 0 80 80" fill="none" xmlns="http://www.w3.org/2000/svg">
  <path d="M40 67.9826C51.0457 67.9826 60 59.0283 60 47.9826V46.7779C60 42.3584 58.6191 38.0493 56.0503 34.453L40.0395 12.0379C40.0201 12.0108 39.9799 12.0108 39.9605 12.0379L39.8146 12.2421C37.6413 15.2848 37.5756 19.3544 39.6498 22.4656L44.0662 29.0903C45.3272 30.9816 46 33.2039 46 35.477V36.9909C46 42.5138 41.5228 46.9909 36 46.9909C30.4772 46.9909 26 42.5138 26 36.9909V35.477C26 33.2039 26.6729 30.9816 27.9338 29.0903L30.0832 25.8661L23.9497 34.453C21.3809 38.0493 20 42.3584 20 46.7779V47.9826C20 59.0283 28.9543 67.9826 40 67.9826Z" fill="currentColor" fill-opacity="0.25" stroke="currentColor" stroke-width="4" stroke-linecap="round" stroke-linejoin="round" />
</svg>