<svg width="80" height="80" viewBox="0 0 80 80" fill="none" xmlns="http://www.w3.org/2000/svg">
  <path d="M14 12.2348C14 12.1051 14.1051 12 14.2348 12H38C39.1046 12 40 12.8954 40 14C40 15.1046 40.8954 16 42 16H63.0459C64.4609 16 65.4284 17.4291 64.9029 18.7428L58.2971 35.2572C58.1064 35.734 58.1064 36.266 58.2971 36.7428L64.9029 53.2572C65.4284 54.5709 64.4609 56 63.0459 56H42C40.8954 56 40 55.1046 40 54C40 52.8954 39.1046 52 38 52H14.1394C14.0624 52 14 51.9376 14 51.8606V12.2348Z" fill="currentColor" fill-opacity="0.25" />
  <path d="M40 14C40 15.1046 40.8954 16 42 16H63.0459C64.4609 16 65.4284 17.4291 64.9029 18.7428L58.2971 35.2572C58.1064 35.734 58.1064 36.266 58.2971 36.7428L64.9029 53.2572C65.4284 54.5709 64.4609 56 63.0459 56H42C40.8954 56 40 55.1046 40 54C40 52.8954 39.1046 52 38 52H14.1394C14.0624 52 14 51.9376 14 51.8606V12.2348C14 12.1051 14.1051 12 14.2348 12H38C39.1046 12 40 12.8954 40 14ZM40 14V34M14 11L14 67" stroke="currentColor" stroke-width="4" stroke-linecap="round" stroke-linejoin="round" />
</svg>