<svg width="80" height="80" viewBox="0 0 80 80" fill="none" xmlns="http://www.w3.org/2000/svg">
  <path d="M4 21.7308C5.54705 21.7309 7.09412 21.283 8.43776 20.3872L11.5626 18.304C14.2498 16.5126 17.7506 16.5126 20.4378 18.304L23.5626 20.3872C26.2498 22.1787 29.7506 22.1787 32.4378 20.3872L35.5626 18.304C38.2498 16.5126 41.7506 16.5126 44.4378 18.304L47.5626 20.3872C50.2498 22.1787 53.7506 22.1787 56.4378 20.3872L59.5626 18.304C62.2498 16.5126 65.7506 16.5126 68.4378 18.304L71.5626 20.3872C72.9061 21.2829 74.4531 21.7308 76 21.7308M4 35.5004C5.54705 35.5004 7.09412 35.0525 8.43776 34.1568L11.5626 32.0736C14.2498 30.2821 17.7506 30.2821 20.4378 32.0736L23.5626 34.1568C26.2498 35.9482 29.7506 35.9482 32.4378 34.1568L35.5626 32.0736C38.2498 30.2821 41.7506 30.2821 44.4378 32.0736L47.5626 34.1568C50.2498 35.9482 53.7506 35.9482 56.4378 34.1568L59.5626 32.0736C62.2498 30.2821 65.7506 30.2821 68.4378 32.0736L71.5626 34.1568C72.9061 35.0525 74.4531 35.5003 76 35.5004M4 49.2699C5.54705 49.2699 7.09412 48.8221 8.43776 47.9263L11.5626 45.8431C14.2498 44.0516 17.7506 44.0516 20.4378 45.8431L23.5626 47.9263C26.2498 49.7178 29.7506 49.7178 32.4378 47.9263L35.5626 45.8431C38.2498 44.0516 41.7506 44.0516 44.4378 45.8431L47.5626 47.9263C50.2498 49.7178 53.7506 49.7178 56.4378 47.9263L59.5626 45.8431C62.2498 44.0516 65.7506 44.0516 68.4378 45.8431L71.5626 47.9263C72.9061 48.822 74.4531 49.2699 76 49.2699M4 63.0394C5.54705 63.0395 7.09412 62.5916 8.43776 61.6958L11.5626 59.6126C14.2498 57.8212 17.7506 57.8212 20.4378 59.6126L23.5626 61.6958C26.2498 63.4873 29.7506 63.4873 32.4378 61.6958L35.5626 59.6126C38.2498 57.8212 41.7506 57.8212 44.4378 59.6126L47.5626 61.6958C50.2498 63.4873 53.7506 63.4873 56.4378 61.6958L59.5626 59.6126C62.2498 57.8212 65.7506 57.8212 68.4378 59.6126L71.5626 61.6958C72.9061 62.5915 74.4531 63.0394 76 63.0394" stroke="currentColor" stroke-width="4" stroke-linecap="round" stroke-linejoin="round" />
</svg>