<svg width="80" height="80" viewBox="0 0 80 80" fill="none" xmlns="http://www.w3.org/2000/svg">
  <path d="M16 14C13.7909 14 12 15.7909 12 18V34C12 31.7909 13.7909 30 16 30V29C16 26.7909 17.7909 25 20 25H60C62.2091 25 64 26.7909 64 29V30C66.2091 30 68 31.7909 68 34V24.2609C68 22.0517 66.2091 20.2609 64 20.2609H35.3189C34.9982 20.2609 34.6922 20.1261 34.4757 19.8895L30.2767 15.2999C29.5189 14.4717 28.448 14 27.3255 14H16Z" fill="currentColor" fill-opacity="0.25" />
  <path d="M12 34C12 31.7909 13.7909 30 16 30H64C66.2091 30 68 31.7909 68 34V62C68 64.2091 66.2091 66 64 66H16C13.7909 66 12 64.2091 12 62V34Z" fill="currentColor" fill-opacity="0.25" />
  <path d="M20 25C17.7909 25 16 26.7909 16 29V30C16 30 16 30 16 30H64V29C64 26.7909 62.2091 25 60 25H20Z" fill="currentColor" fill-opacity="0.25" />
  <path d="M12 34C12 31.7909 13.7909 30 16 30M12 34V62C12 64.2091 13.7909 66 16 66H64C66.2091 66 68 64.2091 68 62V34M12 34V18C12 15.7909 13.7909 14 16 14H27.3255C28.448 14 29.5189 14.4717 30.2767 15.2999L34.4757 19.8895C34.6922 20.1261 34.9982 20.2609 35.3189 20.2609H64C66.2091 20.2609 68 22.0517 68 24.2609V34M16 30V29C16 26.7909 17.7909 25 20 25H60C62.2091 25 64 26.7909 64 29V30M16 30H64M16 30C16 30 16 30 16 30ZM64 30C66.2091 30 68 31.7909 68 34" stroke="currentColor" stroke-width="4" stroke-linecap="round" stroke-linejoin="round" />
</svg>