<svg width="80" height="80" viewBox="0 0 80 80" fill="none" xmlns="http://www.w3.org/2000/svg">
  <path d="M16.1038 40.3093C17.2409 37.1254 20.2568 35 23.6378 35H68.324C71.0901 35 73.0213 37.7404 72.091 40.3453L64.9481 60.3453C64.3795 61.9373 62.8716 63 61.1811 63H10.838C9.45495 63 8.48935 61.6298 8.95453 60.3273L16.1038 40.3093Z" fill="currentColor" fill-opacity="0.25" />
  <path d="M8 21C8 18.7909 9.79086 17 12 17H23.0318C24.322 17 25.533 17.6223 26.2841 18.6713L30.4757 24.5254C30.689 24.8233 31.0329 25 31.3992 25H60C62.2091 25 64 26.7909 64 29V35H23.6378C20.2568 35 17.2409 37.1254 16.1038 40.3093L8.95453 60.3273C8.80685 60.7408 8.80338 61.1611 8.91167 61.5423C8.34209 60.8511 8 59.9655 8 59V21Z" fill="currentColor" fill-opacity="0.25" />
  <path d="M8.95453 60.3273L16.1038 40.3093C17.2409 37.1254 20.2568 35 23.6378 35M8.95453 60.3273C8.48935 61.6298 9.45495 63 10.838 63H61.1811C62.8716 63 64.3795 61.9373 64.9481 60.3453L72.091 40.3453C73.0213 37.7404 71.0901 35 68.324 35H23.6378M8.95453 60.3273C8.80685 60.7408 8.80338 61.1611 8.91167 61.5423C8.34209 60.8511 8 59.9655 8 59V21C8 18.7909 9.79086 17 12 17H23.0318C24.322 17 25.533 17.6223 26.2841 18.6713L30.4757 24.5254C30.689 24.8233 31.0329 25 31.3992 25H60C62.2091 25 64 26.7909 64 29V35H23.6378" stroke="currentColor" stroke-width="4" stroke-linecap="round" stroke-linejoin="round" />
</svg>