<svg width="80" height="80" viewBox="0 0 80 80" fill="none" xmlns="http://www.w3.org/2000/svg">
  <path d="M29.3935 14.3935C36.1848 11.5804 43.8154 11.5804 50.6067 14.3935C57.398 17.2065 62.7936 22.6022 65.6067 29.3935C68.4197 36.1848 68.4197 43.8154 65.6067 50.6067C62.7936 57.398 57.398 62.7936 50.6067 65.6067C43.8154 68.4197 36.1848 68.4197 29.3935 65.6067C22.6022 62.7936 17.2065 57.398 14.3935 50.6067C11.5804 43.8154 11.5804 36.1848 14.3935 29.3935C17.2065 22.6022 22.6022 17.2065 29.3935 14.3935Z" fill="currentColor" fill-opacity="0.25" />
  <path d="M23.6873 17.5874C24.2922 17.1468 24.9157 16.7301 25.5568 16.3385L26.6772 17.8757C27.0776 18.425 26.6975 19.1981 26.018 19.2164C25.8167 19.2218 25.6201 19.1551 25.4637 19.0282L23.6873 17.5874Z" fill="currentColor" fill-opacity="0.25" />
  <path d="M13.0472 33.5528C13.385 32.1386 13.8356 30.7446 14.399 29.3843C15.5578 26.5869 17.1546 24.0263 19.1068 21.7855C19.1666 21.9044 19.2443 22.0165 19.3396 22.118L20.0411 22.8651C20.492 23.3452 21.1413 23.5869 21.7964 23.5184L22.4816 23.4468C23.0402 23.3884 23.4874 22.9575 23.5665 22.4015L23.6564 21.7701C23.7623 21.0255 24.6753 20.7246 25.2032 21.2603C25.3476 21.4067 25.5373 21.4999 25.7415 21.5246L26.7059 21.6411C27.3242 21.7158 27.8408 22.1474 28.0242 22.7427C28.1925 23.2888 28.0523 23.8831 27.6577 24.2965L21.8929 30.3359C21.73 30.5065 21.6473 30.7382 21.6653 30.9734L21.6702 31.0374C21.7308 31.828 20.7377 32.2268 20.2346 31.6139C20.0805 31.4262 19.8505 31.3174 19.6077 31.3174H18.2953C17.4563 31.3174 16.7762 31.9976 16.7762 32.8365C16.7762 33.5105 17.2203 34.1039 17.8669 34.294L18.8166 34.5731C19.3339 34.7251 19.7972 35.0211 20.1525 35.4266L20.5228 35.8491C21.3812 36.8286 22.6024 37.4151 23.9036 37.4727L24.3244 37.4914C25.6141 37.5485 26.8258 38.1247 27.6842 39.089L28.0976 39.5535C28.4032 39.8968 28.7964 40.1506 29.235 40.2878C30.2935 40.6187 31.0142 41.5992 31.0142 42.7082V43.0926C31.0142 43.8802 30.7104 44.6374 30.1661 45.2066L23.7988 51.8653C23.3694 52.3144 23.1297 52.9119 23.1297 53.5332V56.355C23.1297 57.1533 22.224 57.6145 21.5784 57.1448C21.423 57.0318 21.3044 56.8754 21.2375 56.6953L20.7109 55.2789C20.4628 54.6114 20.3357 53.905 20.3357 53.1929V49.6838C20.3357 48.3139 19.8794 46.9831 19.0388 45.9015C18.2399 44.8734 17.787 43.6188 17.7452 42.3175L17.6838 40.4116C17.6663 39.8666 17.8584 39.3356 18.2205 38.9279L18.3003 38.8381C18.945 38.1122 18.9715 37.0269 18.3629 36.2705C18.0559 35.8889 17.619 35.6341 17.1357 35.5547L16.0942 35.3835C15.0226 35.2075 14.0437 34.6695 13.3206 33.8592L13.0472 33.5528Z" fill="currentColor" fill-opacity="0.25" />
  <path d="M31.074 13.753C31.5577 13.5883 32.0448 13.4374 32.5348 13.3002L35.7876 13.1095C37.9315 12.9839 39.77 14.6229 39.8904 16.767C39.9525 17.8736 39.5386 18.9539 38.7531 19.7358L36.6197 21.8591C35.5235 22.9502 33.7224 22.8578 32.7368 21.6659C32.3302 21.1742 32.1169 20.5486 32.14 19.911C32.1649 19.2238 31.9168 18.5546 31.45 18.0496L30.7211 17.2611C30.2272 16.7269 30.0081 15.9943 30.1276 15.2767C30.2326 14.6462 30.5832 14.1067 31.074 13.753Z" fill="currentColor" fill-opacity="0.25" />
  <path d="M56.6154 17.8026C59.8227 20.2037 62.4856 23.2825 64.4019 26.837C64.2481 26.806 64.0888 26.7956 63.9281 26.8078L63.3817 26.849C62.4058 26.9228 61.5463 27.5193 61.136 28.4078L60.709 29.3323L59.6413 29.3964C59.2226 29.4216 58.8278 29.6 58.5323 29.8976C58.2498 30.182 57.8762 30.358 57.4769 30.3946L55.5026 30.5758L53.8129 28.6104L53.7925 28.61C52.8816 28.5937 52.0021 28.9427 51.3502 29.5791L50.8248 30.092C50.431 30.4764 49.8864 30.6653 49.3391 30.6073L48.6333 30.5324C48.2158 30.4881 47.8803 30.1682 47.8162 29.7533C47.7469 29.3044 48.0135 28.8716 48.4455 28.7315L49.1468 28.5041C49.6213 28.3503 50.0102 28.0057 50.2198 27.5531L51.165 25.5133L52.8668 23.9543C53.3643 23.4985 54.0106 23.239 54.6852 23.2243L56.1617 23.192C56.738 23.1794 57.2126 22.7356 57.264 22.1615C57.2862 21.9125 57.3903 21.6779 57.56 21.4943L58.6014 20.3674C58.811 20.1405 58.8229 19.7943 58.6293 19.5537C58.4061 19.2764 57.9965 19.2419 57.7302 19.478L56.5635 20.5121C56.0467 20.9702 55.2291 20.7378 55.0306 20.0763C54.9301 19.7418 55.0223 19.3792 55.2702 19.1332L56.5133 17.8999C56.5467 17.8668 56.5808 17.8343 56.6154 17.8026Z" fill="currentColor" fill-opacity="0.25" />
  <path d="M51.165 25.5133L47.6934 25.4063C46.5908 25.3723 45.7369 24.4295 45.8119 23.3289C45.8493 22.7801 46.1172 22.2727 46.5494 21.9324L46.7103 21.8057C48.0727 20.7327 50.0884 21.4087 50.5284 23.0861L51.165 25.5133Z" fill="currentColor" fill-opacity="0.25" />
  <path d="M65.6375 29.4455C66.8442 32.3785 67.527 35.467 67.6859 38.5758L67.3291 38.5611C66.564 38.5294 65.8413 38.2011 65.3139 37.6459L63.4667 35.7012C63.2688 35.4927 62.9492 35.4577 62.7108 35.6182C62.4068 35.8228 62.3615 36.2523 62.616 36.5159L66.1748 40.2018C66.4596 40.4968 66.6636 40.8602 66.7671 41.2569C66.9781 42.0656 66.7507 42.9257 66.1676 43.5245L65.4108 44.3017C64.6305 45.1029 64.1923 46.176 64.1887 47.2943L64.1765 51.1219C64.1719 52.5284 63.6295 53.8799 62.6605 54.8992L61.7502 55.8567C61.2614 56.3709 60.5785 56.6551 59.8693 56.6397C59.0809 56.6225 58.3432 56.2332 57.8807 55.5945C57.5834 55.184 57.4142 54.6914 57.3983 54.1848L57.3086 51.3369C57.2863 50.6272 56.9523 49.9635 56.3958 49.5225C55.8303 49.0745 55.4951 48.3969 55.4822 47.6755L55.459 46.3783C55.4296 44.7394 54.1032 43.4204 52.4642 43.4002C51.6692 43.3904 50.9099 43.0688 50.3497 42.5048L49.566 41.7155C48.3466 40.4878 47.7448 38.7763 47.9274 37.0555L48.1438 35.0163C48.1894 34.5861 48.3544 34.1772 48.62 33.8358L50.0441 32.0052C50.2403 31.753 50.6207 31.7506 50.82 32.0004C50.9175 32.1225 51.0668 32.1913 51.2229 32.186L53.73 32.1009C54.1065 32.0881 54.4302 32.3654 54.4753 32.7394C54.5083 33.0126 54.693 33.2437 54.9522 33.3362L57.5659 34.2681C57.8287 34.3618 58.1208 34.2507 58.2549 34.006C58.358 33.8179 58.5581 33.7039 58.7724 33.7112L60.365 33.7653C60.8863 33.783 61.3918 33.5845 61.7618 33.2168C62.471 32.5121 62.5089 31.377 61.8483 30.6265L60.709 29.3323L62.8161 29.1134C63.1905 29.0745 63.5677 29.1536 63.895 29.3396L64.3399 29.5927C64.7588 29.8308 65.2831 29.771 65.6375 29.4455Z" fill="currentColor" fill-opacity="0.25" />
  <path d="M60.709 29.3323L61.136 28.4078C61.5463 27.5193 62.4058 26.9228 63.3817 26.849L63.9281 26.8078C64.0888 26.7956 64.2481 26.806 64.4019 26.837C62.4856 23.2825 59.8227 20.2037 56.6154 17.8026C56.5808 17.8343 56.5467 17.8668 56.5133 17.8999L55.2702 19.1332C55.0223 19.3792 54.9301 19.7418 55.0306 20.0763C55.2291 20.7378 56.0467 20.9702 56.5635 20.5121L57.7302 19.478C57.9965 19.2419 58.4061 19.2764 58.6293 19.5537C58.8229 19.7943 58.811 20.1405 58.6014 20.3674L57.56 21.4943C57.3903 21.6779 57.2862 21.9125 57.264 22.1615C57.2126 22.7356 56.738 23.1794 56.1617 23.192L54.6852 23.2243C54.0106 23.239 53.3643 23.4985 52.8668 23.9543L51.165 25.5133M60.709 29.3323L59.6413 29.3964C59.2226 29.4216 58.8278 29.6 58.5323 29.8976C58.2498 30.182 57.8762 30.358 57.4769 30.3946L55.5026 30.5758M60.709 29.3323L61.8483 30.6265C62.5089 31.377 62.471 32.5121 61.7618 33.2168C61.3918 33.5845 60.8863 33.783 60.365 33.7653L58.7724 33.7112C58.5581 33.7039 58.358 33.8179 58.2549 34.006C58.1208 34.2507 57.8287 34.3618 57.5659 34.2681L54.9522 33.3362C54.693 33.2437 54.5083 33.0126 54.4753 32.7394C54.4302 32.3654 54.1065 32.0881 53.73 32.1009L51.2229 32.186C51.0668 32.1913 50.9175 32.1225 50.82 32.0004C50.6207 31.7506 50.2403 31.753 50.0441 32.0052L48.62 33.8358C48.3544 34.1772 48.1894 34.5861 48.1438 35.0163L47.9274 37.0555C47.7448 38.7763 48.3466 40.4878 49.566 41.7155L50.3497 42.5048C50.9099 43.0688 51.6692 43.3904 52.4642 43.4002C54.1032 43.4204 55.4296 44.7394 55.459 46.3783L55.4822 47.6755C55.4951 48.3969 55.8303 49.0745 56.3958 49.5225C56.9523 49.9635 57.2863 50.6272 57.3086 51.3369L57.3983 54.1848C57.4142 54.6914 57.5834 55.184 57.8807 55.5945C58.3432 56.2332 59.0809 56.6225 59.8693 56.6397C60.5785 56.6551 61.2614 56.3709 61.7502 55.8567L62.6605 54.8992C63.6295 53.8799 64.1719 52.5284 64.1765 51.1219L64.1887 47.2943C64.1923 46.176 64.6305 45.1029 65.4108 44.3017L66.1676 43.5245C66.7507 42.9257 66.9781 42.0656 66.7671 41.2569C66.6636 40.8602 66.4596 40.4968 66.1748 40.2018L62.616 36.5159C62.3615 36.2523 62.4068 35.8228 62.7108 35.6182C62.9492 35.4577 63.2688 35.4927 63.4667 35.7012L65.3139 37.6459C65.8413 38.2011 66.564 38.5294 67.3291 38.5611L67.6859 38.5758C67.527 35.467 66.8442 32.3785 65.6375 29.4455C65.2831 29.771 64.7588 29.8308 64.3399 29.5927L63.895 29.3396C63.5677 29.1536 63.1905 29.0745 62.8161 29.1134L60.709 29.3323ZM55.5026 30.5758L53.8129 28.6104M55.5026 30.5758C54.9549 30.0258 53.8129 28.6104 53.8129 28.6104M53.8129 28.6104L53.7925 28.61C52.8816 28.5937 52.0021 28.9427 51.3502 29.5791L50.8248 30.092C50.431 30.4764 49.8864 30.6653 49.3391 30.6073L48.6333 30.5324C48.2158 30.4881 47.8803 30.1682 47.8162 29.7533C47.7469 29.3044 48.0135 28.8716 48.4455 28.7315L49.1468 28.5041C49.6213 28.3503 50.0102 28.0057 50.2198 27.5531L51.165 25.5133M51.165 25.5133L47.6934 25.4063C46.5908 25.3723 45.7369 24.4295 45.8119 23.3289C45.8493 22.7801 46.1172 22.2727 46.5494 21.9324L46.7103 21.8057C48.0727 20.7327 50.0884 21.4087 50.5284 23.0861L51.165 25.5133ZM14.3935 29.3935C17.2065 22.6022 22.6022 17.2065 29.3935 14.3935C36.1848 11.5804 43.8154 11.5804 50.6067 14.3935C57.398 17.2065 62.7936 22.6022 65.6067 29.3935C68.4197 36.1848 68.4197 43.8154 65.6067 50.6067C62.7936 57.398 57.398 62.7936 50.6067 65.6067C43.8154 68.4197 36.1848 68.4197 29.3935 65.6067C22.6022 62.7936 17.2065 57.398 14.3935 50.6067C11.5804 43.8154 11.5804 36.1848 14.3935 29.3935ZM23.6873 17.5874C24.2922 17.1468 24.9157 16.7301 25.5568 16.3385L26.6772 17.8757C27.0776 18.425 26.6975 19.1981 26.018 19.2164C25.8167 19.2218 25.6201 19.1551 25.4637 19.0282L23.6873 17.5874ZM13.0472 33.5528C13.385 32.1386 13.8356 30.7446 14.399 29.3843C15.5578 26.5869 17.1546 24.0263 19.1068 21.7855C19.1666 21.9044 19.2443 22.0165 19.3396 22.118L20.0411 22.8651C20.492 23.3452 21.1413 23.5869 21.7964 23.5184L22.4816 23.4468C23.0402 23.3884 23.4874 22.9575 23.5665 22.4015L23.6564 21.7701C23.7623 21.0255 24.6753 20.7246 25.2032 21.2603C25.3476 21.4067 25.5373 21.4999 25.7415 21.5246L26.7059 21.6411C27.3242 21.7158 27.8408 22.1474 28.0242 22.7427C28.1925 23.2888 28.0523 23.8831 27.6577 24.2965L21.8929 30.3359C21.73 30.5065 21.6473 30.7382 21.6653 30.9734L21.6702 31.0374C21.7308 31.828 20.7377 32.2268 20.2346 31.6139C20.0805 31.4262 19.8505 31.3174 19.6077 31.3174H18.2953C17.4563 31.3174 16.7762 31.9976 16.7762 32.8365C16.7762 33.5105 17.2203 34.1039 17.8669 34.294L18.8166 34.5731C19.3339 34.7251 19.7972 35.0211 20.1525 35.4266L20.5228 35.8491C21.3812 36.8286 22.6024 37.4151 23.9036 37.4727L24.3244 37.4914C25.6141 37.5485 26.8258 38.1247 27.6842 39.089L28.0976 39.5535C28.4032 39.8968 28.7964 40.1506 29.235 40.2878C30.2935 40.6187 31.0142 41.5992 31.0142 42.7082V43.0926C31.0142 43.8802 30.7104 44.6374 30.1661 45.2066L23.7988 51.8653C23.3694 52.3144 23.1297 52.9119 23.1297 53.5332V56.355C23.1297 57.1533 22.224 57.6145 21.5784 57.1448C21.423 57.0318 21.3044 56.8754 21.2375 56.6953L20.7109 55.2789C20.4628 54.6114 20.3357 53.905 20.3357 53.1929V49.6838C20.3357 48.3139 19.8794 46.9831 19.0388 45.9015C18.2399 44.8734 17.787 43.6188 17.7452 42.3175L17.6838 40.4116C17.6663 39.8666 17.8584 39.3356 18.2205 38.9279L18.3003 38.8381C18.945 38.1122 18.9715 37.0269 18.3629 36.2705C18.0559 35.8889 17.619 35.6341 17.1357 35.5547L16.0942 35.3835C15.0226 35.2075 14.0437 34.6695 13.3206 33.8592L13.0472 33.5528ZM31.074 13.753C31.5577 13.5883 32.0448 13.4374 32.5348 13.3002L35.7876 13.1095C37.9315 12.9839 39.77 14.6229 39.8904 16.767C39.9525 17.8736 39.5386 18.9539 38.7531 19.7358L36.6197 21.8591C35.5235 22.9502 33.7224 22.8578 32.7368 21.6659C32.3302 21.1742 32.1169 20.5486 32.14 19.911C32.1649 19.2238 31.9168 18.5546 31.45 18.0496L30.7211 17.2611C30.2272 16.7269 30.0081 15.9943 30.1276 15.2767C30.2326 14.6462 30.5832 14.1067 31.074 13.753Z" stroke="currentColor" stroke-width="4" stroke-linecap="round" stroke-linejoin="round" />
</svg>