<svg width="80" height="80" viewBox="0 0 80 80" fill="none" xmlns="http://www.w3.org/2000/svg">
  <path d="M29.3935 14.3934C36.1848 11.5804 43.8154 11.5804 50.6067 14.3934C57.398 17.2064 62.7936 22.6021 65.6067 29.3934C68.4197 36.1847 68.4197 43.8153 65.6067 50.6066C62.7936 57.3979 57.398 62.7936 50.6067 65.6066C43.8154 68.4196 36.1848 68.4196 29.3935 65.6066C22.6022 62.7936 17.2065 57.3979 14.3935 50.6066C11.5804 43.8153 11.5804 36.1847 14.3935 29.3934C17.2065 22.6021 22.6022 17.2064 29.3935 14.3934Z" fill="currentColor" fill-opacity="0.25" />
  <path fill-rule="evenodd" clip-rule="evenodd" d="M18.4254 23.4892C19.217 23.573 20.0048 23.3002 20.575 22.7448L21.3353 22.0041C22.2793 21.0847 23.5515 20.5807 24.869 20.6041L24.9006 20.6047L27.3466 23.4437L30.2056 23.1819C30.783 23.129 31.3234 22.8749 31.7324 22.464C32.1602 22.0341 32.7313 21.7765 33.3367 21.7402L34.8834 21.6476L36.5304 23.5143C37.4875 24.5991 37.4326 26.2421 36.4053 27.2607C35.871 27.7905 35.1418 28.0764 34.3898 28.0509L32.0793 27.9726C31.7694 27.962 31.48 28.1267 31.3308 28.3985C31.1366 28.7521 30.7145 28.9126 30.3345 28.7774L26.549 27.4306C26.1742 27.2973 25.9072 26.9634 25.8594 26.5686C25.7941 26.0285 25.3266 25.628 24.7829 25.6465L21.1509 25.7695C20.9251 25.7772 20.709 25.6777 20.5679 25.5013C20.2791 25.1403 19.729 25.1437 19.4448 25.5083L17.3849 28.1502C16.9993 28.6449 16.7597 29.2376 16.6934 29.8614L16.3657 32.9427C16.1109 35.3396 16.9503 37.7236 18.6507 39.4321L19.8871 40.6743C20.6982 41.4893 21.7965 41.9536 22.9461 41.9678C25.3199 41.997 27.2409 43.9072 27.2836 46.2808L27.317 48.1411C27.3357 49.1843 27.8211 50.1642 28.6396 50.8112C29.4451 51.448 29.9287 52.4077 29.9611 53.434L30.0907 57.5427C30.1138 58.2762 30.3581 58.988 30.7892 59.582C31.4599 60.5061 32.5265 61.0666 33.6681 61.0915C34.6948 61.1138 35.6835 60.7029 36.3918 59.9594L37.7048 58.5813C39.1098 57.1066 39.8965 55.1497 39.903 53.1129L39.9207 47.5949C39.9259 45.9783 40.5603 44.4272 41.6894 43.2703L42.7864 42.1464C43.6297 41.2823 43.9586 40.0396 43.6531 38.8715C43.5033 38.2987 43.2084 37.7743 42.7967 37.3489L37.6456 32.0255C37.2766 31.6442 37.3423 31.022 37.7827 30.7261C38.1272 30.4947 38.5884 30.5453 38.8746 30.8459L41.5481 33.6545C42.3125 34.4576 43.3592 34.9321 44.467 34.9779L45.2828 35.0117C45.9589 35.0396 46.6158 34.7827 47.0935 34.3035C48.0337 33.3605 48.0335 31.8345 47.0932 30.8917L44.3251 28.1164C44.1127 27.9035 44.0692 27.5746 44.2191 27.3138C44.4368 26.9348 44.9543 26.8645 45.2653 27.1717L46.5154 28.4066C46.8906 28.7772 47.3958 28.9865 47.9232 28.9896L49.0196 28.9962C50.647 29.006 52.1543 29.8546 53.0066 31.241L55.6591 35.5551C55.7659 35.7288 55.9431 35.8473 56.1445 35.8796C56.4934 35.9356 56.8293 35.7229 56.9277 35.3836L57.5721 33.163C57.6807 32.7888 57.8544 32.4368 58.0851 32.1229L58.6228 31.3915C60.0387 29.4655 62.9492 29.5685 64.2254 31.5899L64.7155 32.3662C65.1857 33.111 66.0571 33.4886 66.9116 33.3369C66.5801 31.9967 66.147 30.6753 65.6123 29.3842C62.7992 22.5929 57.4035 17.1972 50.6123 14.3842C43.821 11.5712 36.1903 11.5712 29.399 14.3842C24.746 16.3116 20.748 19.4513 17.7871 23.4217L18.4254 23.4892ZM34.8834 21.6476L35.4995 20.3165C36.0949 19.0303 37.3399 18.167 38.7532 18.0605L39.5487 18.0006C40.4336 17.9339 41.288 18.3394 41.7959 19.0671L42.2475 19.7141C42.7047 20.3691 42.6097 21.2608 42.0248 21.8048C41.5127 22.2811 40.7508 22.3703 40.1425 22.0252L39.4955 21.6581C39.0218 21.3893 38.4759 21.2751 37.9341 21.3312L34.8834 21.6476Z" fill="currentColor" fill-opacity="0.25" />
  <path d="M67.4615 36.1991C67.6829 37.8021 67.7632 39.4199 67.7024 41.0337L66.393 38.9768C65.7186 37.9174 66.2749 36.5234 67.4615 36.1991Z" fill="currentColor" fill-opacity="0.25" />
  <path d="M44.0678 53.5287C43.3075 53.5287 42.7033 52.89 42.7456 52.1309L42.8075 51.0164C42.8339 50.542 43.0017 50.0863 43.2893 49.708L43.7123 49.1516C43.9182 48.8809 44.234 48.7159 44.5738 48.7016C45.2375 48.6736 45.7852 49.2156 45.764 49.8796L45.7118 51.5144C45.7009 51.8587 45.6046 52.1949 45.4316 52.4928L45.213 52.8694C44.976 53.2775 44.5397 53.5287 44.0678 53.5287Z" fill="currentColor" fill-opacity="0.25" />
  <path d="M24.9006 20.6047L24.869 20.6041C23.5515 20.5807 22.2793 21.0847 21.3353 22.0041L20.575 22.7448C20.0048 23.3002 19.217 23.573 18.4254 23.4892L17.7871 23.4217C20.748 19.4513 24.746 16.3116 29.399 14.3842C36.1903 11.5712 43.821 11.5712 50.6123 14.3842C57.4035 17.1972 62.7992 22.5929 65.6123 29.3842C66.147 30.6753 66.5801 31.9967 66.9116 33.3369C66.0571 33.4886 65.1857 33.111 64.7155 32.3662L64.2254 31.5899C62.9492 29.5685 60.0387 29.4655 58.6228 31.3915L58.0851 32.1229C57.8544 32.4368 57.6807 32.7888 57.5721 33.163L56.9277 35.3836C56.8293 35.7229 56.4934 35.9356 56.1445 35.8796C55.9431 35.8473 55.7659 35.7288 55.6591 35.5551L53.0066 31.241C52.1543 29.8546 50.647 29.006 49.0196 28.9962L47.9232 28.9896C47.3958 28.9865 46.8906 28.7772 46.5154 28.4066L45.2653 27.1717C44.9543 26.8645 44.4368 26.9348 44.2191 27.3138C44.0692 27.5746 44.1127 27.9035 44.3251 28.1164L47.0932 30.8917C48.0335 31.8345 48.0337 33.3605 47.0935 34.3035C46.6158 34.7827 45.9589 35.0396 45.2828 35.0117L44.467 34.9779C43.3592 34.9321 42.3125 34.4576 41.5481 33.6545L38.8746 30.8459C38.5884 30.5453 38.1272 30.4947 37.7827 30.7261C37.3423 31.022 37.2766 31.6442 37.6456 32.0255L42.7967 37.3489C43.2084 37.7743 43.5033 38.2987 43.6531 38.8715C43.9586 40.0396 43.6297 41.2823 42.7864 42.1464L41.6894 43.2703C40.5603 44.4272 39.9259 45.9783 39.9207 47.5949L39.903 53.1129C39.8965 55.1497 39.1098 57.1066 37.7048 58.5813L36.3918 59.9594C35.6835 60.7029 34.6948 61.1138 33.6681 61.0915C32.5265 61.0666 31.4599 60.5061 30.7892 59.582C30.3581 58.988 30.1138 58.2762 30.0907 57.5427L29.9611 53.434C29.9287 52.4077 29.4451 51.448 28.6396 50.8112C27.8211 50.1642 27.3357 49.1843 27.317 48.1411L27.2836 46.2808C27.2409 43.9072 25.3199 41.997 22.9461 41.9678C21.7965 41.9536 20.6982 41.4893 19.8871 40.6743L18.6507 39.4321C16.9503 37.7236 16.1109 35.3396 16.3657 32.9427L16.6934 29.8614C16.7597 29.2376 16.9993 28.6449 17.3849 28.1502L19.4448 25.5083C19.729 25.1437 20.2791 25.1403 20.5679 25.5013C20.709 25.6777 20.9251 25.7772 21.1509 25.7695L24.7829 25.6465C25.3266 25.628 25.7941 26.0285 25.8594 26.5686C25.9072 26.9634 26.1742 27.2973 26.549 27.4306L30.3345 28.7774C30.7145 28.9126 31.1366 28.7521 31.3308 28.3985C31.48 28.1267 31.7694 27.962 32.0793 27.9726L34.3898 28.0509C35.1418 28.0764 35.871 27.7905 36.4053 27.2607C37.4326 26.2421 37.4875 24.5991 36.5304 23.5143L34.8834 21.6476M24.9006 20.6047L27.3466 23.4437M24.9006 20.6047C24.9006 20.6047 26.5537 22.6492 27.3466 23.4437M27.3466 23.4437L30.2056 23.1819C30.783 23.129 31.3234 22.8749 31.7324 22.464C32.1602 22.0341 32.7313 21.7765 33.3367 21.7402L34.8834 21.6476M34.8834 21.6476L35.4995 20.3165C36.0949 19.0303 37.3399 18.167 38.7532 18.0605L39.5487 18.0006C40.4336 17.9339 41.288 18.3394 41.7959 19.0671L42.2475 19.7141C42.7047 20.3691 42.6097 21.2608 42.0248 21.8048C41.5127 22.2811 40.7508 22.3703 40.1425 22.0252L39.4955 21.6581C39.0218 21.3893 38.4759 21.2751 37.9341 21.3312L34.8834 21.6476ZM14.3935 29.3934C17.2065 22.6021 22.6022 17.2064 29.3935 14.3934C36.1848 11.5804 43.8154 11.5804 50.6067 14.3934C57.398 17.2064 62.7936 22.6021 65.6067 29.3934C68.4197 36.1847 68.4197 43.8153 65.6067 50.6066C62.7936 57.3979 57.398 62.7936 50.6067 65.6066C43.8154 68.4196 36.1848 68.4196 29.3935 65.6066C22.6022 62.7936 17.2065 57.3979 14.3935 50.6066C11.5804 43.8153 11.5804 36.1847 14.3935 29.3934ZM67.4615 36.1991C67.6829 37.8021 67.7632 39.4199 67.7024 41.0337L66.393 38.9768C65.7186 37.9174 66.2749 36.5234 67.4615 36.1991ZM42.7456 52.1309C42.7033 52.89 43.3075 53.5287 44.0678 53.5287C44.5397 53.5287 44.976 53.2775 45.213 52.8694L45.4316 52.4928C45.6046 52.1949 45.7008 51.8587 45.7118 51.5144L45.764 49.8796C45.7852 49.2156 45.2375 48.6736 44.5738 48.7016C44.234 48.7159 43.9182 48.8809 43.7123 49.1516L43.2893 49.708C43.0017 50.0863 42.8339 50.542 42.8075 51.0164L42.7456 52.1309Z" stroke="currentColor" stroke-width="4" stroke-linecap="round" stroke-linejoin="round" />
</svg>