<svg width="80" height="80" viewBox="0 0 80 80" fill="none" xmlns="http://www.w3.org/2000/svg">
  <path d="M29.3935 14.3935C36.1848 11.5804 43.8154 11.5804 50.6067 14.3935C57.398 17.2065 62.7936 22.6022 65.6067 29.3935C68.4197 36.1848 68.4197 43.8154 65.6067 50.6067C62.7936 57.398 57.398 62.7936 50.6067 65.6067C43.8154 68.4197 36.1848 68.4197 29.3935 65.6067C22.6022 62.7936 17.2065 57.398 14.3935 50.6067C11.5804 43.8154 11.5804 36.1848 14.3935 29.3935C17.2065 22.6022 22.6022 17.2065 29.3935 14.3935Z" fill="currentColor" fill-opacity="0.25" />
  <path d="M60.5546 58.5903C57.8258 61.605 54.4408 64.0116 50.6123 65.5975C49.3258 66.1304 48.0092 66.5623 46.6738 66.8933C46.6266 66.5825 46.5976 66.268 46.5874 65.9514L46.4695 62.3111C46.4413 61.4379 46.7503 60.5873 47.3324 59.9359L47.4572 59.7962C48.4961 58.6336 48.5387 56.8892 47.5577 55.6773C47.0666 55.0704 46.3693 54.6655 45.5988 54.5397L43.9106 54.2639C42.1857 53.9822 40.6089 53.1196 39.4414 51.819L34.0345 45.7958C32.9567 44.5952 32.2672 43.0967 32.0563 41.4972L31.5601 37.7325C31.3351 36.0255 30.4612 34.4707 29.1199 33.3911L28.3047 32.735C27.0327 31.7111 25.3264 31.4065 23.7787 31.9269L22.5285 32.3473C21.5462 32.6776 20.4615 32.4147 19.7394 31.6713C19.2515 31.1689 18.9785 30.4961 18.9785 29.7957V25.3464C18.9785 23.1324 20.8354 21.3713 23.0463 21.4884C23.5666 21.516 24.076 21.6486 24.5437 21.8781L26.5365 22.8559C27.942 23.5456 29.5189 23.8077 31.072 23.6097L33.3033 23.3254C34.1089 23.2227 34.9254 23.2433 35.7248 23.3864L46.8694 25.3821C47.7249 25.5353 48.477 26.0403 48.9426 26.7743L49.2797 27.3059C49.8157 28.1509 49.732 29.2477 49.0742 30.0016C48.3091 30.8784 48.3351 32.1929 49.1341 33.0388L50.2631 34.2339C50.9894 35.0027 52.0323 35.3895 53.0844 35.2802L54.1954 35.1648C55.0923 35.0716 55.8108 34.3803 55.9385 33.4877L56.0813 32.4902C56.2528 31.2925 57.72 30.8071 58.5718 31.6664C58.8044 31.901 59.1094 32.0501 59.4374 32.0895L61.0043 32.2777C61.9915 32.3963 62.8167 33.0842 63.1111 34.0339C63.3826 34.9099 63.1569 35.8643 62.5217 36.5258L53.2461 46.1856C52.9828 46.4598 52.8489 46.8333 52.8781 47.2123L52.8849 47.3007C52.9829 48.5724 51.3873 49.2163 50.5752 48.2328C50.327 47.9323 49.9576 47.7582 49.5678 47.7582H47.4374C46.096 47.7582 45.0086 48.8456 45.0086 50.187C45.0086 51.2661 45.7205 52.2158 46.7563 52.5184L48.2966 52.9684C49.1266 53.211 49.8708 53.684 50.4427 54.3327L51.0399 55.0101C52.4213 56.577 54.381 57.5143 56.4678 57.6062L57.1699 57.6371C58.3682 57.6898 59.5249 58.0211 60.5546 58.5903Z" fill="currentColor" fill-opacity="0.25" />
  <path d="M39.9475 20.3988C39.9475 19.6784 40.496 19.0765 41.2133 19.0098L46.0697 18.558C47.5864 18.4168 48.7582 19.8648 48.3039 21.3188C47.9759 22.3687 46.9034 22.9971 45.8271 22.7702L41.0547 21.7637C40.4094 21.6276 39.9475 21.0583 39.9475 20.3988Z" fill="currentColor" fill-opacity="0.25" />
  <path d="M53.9222 20.6303C52.8573 21.5199 52.8715 23.161 53.9517 24.0319L58.9931 28.0969C59.2437 28.299 59.5581 28.4053 59.88 28.3967C60.973 28.3674 61.5832 27.1224 60.9366 26.2406L57.1073 21.018C56.3564 19.9938 54.8968 19.8162 53.9222 20.6303Z" fill="currentColor" fill-opacity="0.25" />
  <path d="M29.3935 14.3935C36.1848 11.5804 43.8154 11.5804 50.6067 14.3935C57.398 17.2065 62.7936 22.6022 65.6067 29.3935C68.4197 36.1848 68.4197 43.8154 65.6067 50.6067C62.7936 57.398 57.398 62.7936 50.6067 65.6067C43.8154 68.4197 36.1848 68.4197 29.3935 65.6067C22.6022 62.7936 17.2065 57.398 14.3935 50.6067C11.5804 43.8154 11.5804 36.1848 14.3935 29.3935C17.2065 22.6022 22.6022 17.2065 29.3935 14.3935Z" stroke="currentColor" stroke-width="4" stroke-linecap="round" stroke-linejoin="round" />
  <path d="M60.5546 58.5903C57.8258 61.605 54.4408 64.0116 50.6123 65.5975C49.3258 66.1304 48.0092 66.5623 46.6738 66.8933C46.6266 66.5825 46.5976 66.268 46.5874 65.9514L46.4695 62.3111C46.4413 61.4379 46.7503 60.5873 47.3324 59.9359L47.4572 59.7962C48.4961 58.6336 48.5387 56.8892 47.5577 55.6773C47.0666 55.0704 46.3693 54.6655 45.5988 54.5397L43.9106 54.2639C42.1857 53.9822 40.6089 53.1196 39.4414 51.819L34.0345 45.7958C32.9567 44.5952 32.2672 43.0967 32.0563 41.4972L31.5601 37.7325C31.3351 36.0255 30.4612 34.4707 29.1199 33.3911L28.3047 32.735C27.0327 31.7111 25.3264 31.4065 23.7787 31.9269L22.5285 32.3473C21.5462 32.6776 20.4615 32.4147 19.7394 31.6713C19.2515 31.1689 18.9785 30.4961 18.9785 29.7957V25.3464C18.9785 23.1324 20.8354 21.3713 23.0463 21.4884C23.5666 21.516 24.076 21.6486 24.5437 21.8781L26.5365 22.8559C27.942 23.5456 29.5189 23.8077 31.072 23.6097L33.3033 23.3254C34.1089 23.2227 34.9254 23.2433 35.7248 23.3864L46.8694 25.3821C47.7249 25.5353 48.477 26.0403 48.9426 26.7743L49.2797 27.3059C49.8157 28.1509 49.732 29.2477 49.0742 30.0016C48.3091 30.8784 48.3351 32.1929 49.1341 33.0388L50.2631 34.2339C50.9894 35.0027 52.0323 35.3895 53.0844 35.2802L54.1954 35.1648C55.0923 35.0716 55.8108 34.3803 55.9385 33.4877L56.0813 32.4902C56.2528 31.2925 57.72 30.8071 58.5718 31.6664C58.8044 31.901 59.1094 32.0501 59.4374 32.0895L61.0043 32.2777C61.9915 32.3963 62.8167 33.0842 63.1111 34.0339C63.3826 34.9099 63.1569 35.8643 62.5217 36.5258L53.2461 46.1856C52.9828 46.4598 52.8489 46.8333 52.8781 47.2123L52.8849 47.3007C52.9829 48.5724 51.3873 49.2163 50.5752 48.2328C50.327 47.9323 49.9576 47.7582 49.5678 47.7582H47.4374C46.096 47.7582 45.0086 48.8456 45.0086 50.187C45.0086 51.2661 45.7205 52.2158 46.7563 52.5184L48.2966 52.9684C49.1266 53.211 49.8708 53.684 50.4427 54.3327L51.0399 55.0101C52.4213 56.577 54.381 57.5143 56.4678 57.6062L57.1699 57.6371C58.3682 57.6898 59.5249 58.0211 60.5546 58.5903Z" stroke="currentColor" stroke-width="4" stroke-linecap="round" stroke-linejoin="round" />
  <path d="M39.9475 20.3988C39.9475 19.6784 40.496 19.0765 41.2133 19.0098L46.0697 18.558C47.5864 18.4168 48.7582 19.8648 48.3039 21.3188C47.9759 22.3687 46.9034 22.9971 45.8271 22.7702L41.0547 21.7637C40.4094 21.6276 39.9475 21.0583 39.9475 20.3988Z" stroke="currentColor" stroke-width="4" stroke-linecap="round" stroke-linejoin="round" />
  <path d="M53.9222 20.6303C52.8573 21.5199 52.8715 23.161 53.9517 24.0319L58.9931 28.0969C59.2437 28.299 59.5581 28.4053 59.88 28.3967C60.973 28.3674 61.5832 27.1224 60.9366 26.2406L57.1073 21.018C56.3564 19.9938 54.8968 19.8162 53.9222 20.6303Z" stroke="currentColor" stroke-width="4" stroke-linecap="round" stroke-linejoin="round" />
</svg>