<svg width="80" height="80" viewBox="0 0 80 80" fill="none" xmlns="http://www.w3.org/2000/svg">
  <path d="M29.3935 14.3935C36.1848 11.5804 43.8154 11.5804 50.6067 14.3935C57.398 17.2065 62.7936 22.6022 65.6067 29.3935C68.4197 36.1848 68.4197 43.8154 65.6067 50.6067C62.7936 57.398 57.398 62.7936 50.6067 65.6067C43.8154 68.4197 36.1848 68.4197 29.3935 65.6067C22.6022 62.7936 17.2065 57.398 14.3935 50.6067C11.5804 43.8154 11.5804 36.1848 14.3935 29.3935C17.2065 22.6022 22.6022 17.2065 29.3935 14.3935Z" fill="currentColor" fill-opacity="0.25" />
  <path d="M33.1026 13.1478C33.1953 13.208 33.2865 13.2708 33.3762 13.3361L34.0105 13.7982C34.7182 14.3137 35.5711 14.5915 36.4467 14.5915H36.9599C37.6337 14.5915 38.2846 14.8367 38.791 15.2814C39.2973 15.726 39.9482 15.9713 40.622 15.9713H50.4904C50.8293 15.9713 51.1547 16.1036 51.3974 16.3401L52.1352 17.0592C52.7009 17.6105 52.3105 18.5703 51.5206 18.5703C51.1907 18.5703 50.8884 18.7547 50.7375 19.0481L50.4458 19.6152C50.0993 20.2889 49.3898 20.6968 48.6332 20.6574L47.6474 20.606C46.6887 20.5561 45.7526 20.9074 45.0636 21.5758L44.4597 22.1617C43.9259 22.6794 43.2183 22.9795 42.4751 23.0032L42.2181 23.0114C40.7598 23.0579 39.5981 24.247 39.5857 25.706C39.5798 26.3979 39.3104 27.0616 38.8323 27.5617L35.2062 31.3553C34.6865 31.8991 33.965 32.2036 33.2128 32.1968C31.8532 32.1846 30.6928 33.177 30.494 34.522L30.4844 34.5866C30.3685 35.3713 29.9249 36.0699 29.2641 36.5087L28.6251 36.9331C27.9181 37.4025 27.5235 38.2202 27.5958 39.0658L27.6274 39.4346C27.705 40.3405 27.1229 41.172 26.2452 41.4092C25.4528 41.6233 24.6132 41.2985 24.1712 40.6068L23.7421 39.9352C22.6247 38.1864 20.1029 38.0968 18.8641 39.7617L18.3927 40.3953C18.1901 40.6675 18.0375 40.9736 17.9418 41.2992L17.383 43.2019C17.2961 43.4977 17.0031 43.683 16.6986 43.6347C16.5229 43.6069 16.368 43.5041 16.274 43.3531L13.9741 39.6569C13.5716 39.0101 13.0064 38.4982 12.3497 38.1611C12.5475 35.1709 13.2306 32.2052 14.3991 29.3843C17.2121 22.593 22.6078 17.1973 29.3991 14.3843C30.61 13.8827 31.8477 13.4705 33.1026 13.1478Z" fill="currentColor" fill-opacity="0.25" />
  <path d="M26.6927 43.8809C25.5781 44.0993 25.0356 45.3735 25.6508 46.3283L27.2833 48.8623C27.7873 49.6446 28.571 50.2049 29.4742 50.4288L30.885 50.7786C31.423 50.912 31.9916 50.7538 32.3833 50.3615C33.0236 49.7205 32.9947 48.6734 32.3202 48.0686L28.0746 44.2615C27.6992 43.9248 27.1875 43.7839 26.6927 43.8809Z" fill="currentColor" fill-opacity="0.25" />
  <path d="M41.8497 29.9603C42.6361 29.094 42.231 27.7027 41.1025 27.394C40.453 27.2163 39.7627 27.4731 39.3873 28.032L37.981 30.125C37.457 30.9051 37.8459 31.9694 38.7495 32.2277C39.2559 32.3725 39.8007 32.2173 40.1547 31.8273L41.8497 29.9603Z" fill="currentColor" fill-opacity="0.25" />
  <path d="M37.1823 48.3529C37.0056 49.1348 37.5811 49.8854 38.382 49.9177L41.7378 50.0533C42.17 50.0707 42.5957 49.9436 42.9476 49.6921L43.2289 49.491C43.504 49.2944 43.6815 48.9891 43.7161 48.6527C43.7878 47.9574 43.2423 47.3528 42.5433 47.3528H38.4337C37.8341 47.3528 37.3144 47.7681 37.1823 48.3529Z" fill="currentColor" fill-opacity="0.25" />
  <path d="M39.5959 52.2847C38.1897 52.3527 36.861 52.9494 35.8759 53.9553L35.23 54.6148C34.5173 55.3426 34.1523 56.3419 34.2282 57.3577C34.3663 59.207 35.907 60.637 37.7615 60.637H38.9296C39.9919 60.637 41.015 61.0381 41.7943 61.76L42.235 62.1683C42.731 62.6278 43.3822 62.8831 44.0583 62.8831C45.54 62.8831 46.7411 61.6819 46.7411 60.2002V58.3531C46.7411 57.2369 46.329 56.16 45.5838 55.3289L44.6644 54.3035C43.4335 52.9308 41.6497 52.1855 39.808 52.2745L39.5959 52.2847Z" fill="currentColor" fill-opacity="0.25" />
  <path d="M33.028 45.1202C32.0472 44.5006 31.8857 43.1352 32.6949 42.3039L34.7091 40.2346C34.9495 39.9877 35.3061 39.8926 35.6375 39.9872C36.2393 40.1589 36.5068 40.8611 36.1718 41.3897L36.1212 41.4695C35.9984 41.6634 35.9454 41.8933 35.971 42.1214L36.058 42.8959C36.1181 43.4304 35.9758 43.9681 35.6593 44.403L35.4788 44.6511C34.913 45.4286 33.8409 45.6338 33.028 45.1202Z" fill="currentColor" fill-opacity="0.25" />
  <path d="M49.9934 63.0657C49.6469 62.6126 49.6322 61.9877 49.9569 61.5187L50.8614 60.2125C51.3145 59.5582 52.2401 59.4523 52.8292 59.9874C53.3191 60.4323 53.4026 61.1717 53.0244 61.7147L52.1163 63.0184C51.6074 63.7492 50.5344 63.773 49.9934 63.0657Z" fill="currentColor" fill-opacity="0.25" />
  <path d="M29.3935 14.3935C36.1848 11.5804 43.8154 11.5804 50.6067 14.3935C57.398 17.2065 62.7936 22.6022 65.6067 29.3935C68.4197 36.1848 68.4197 43.8154 65.6067 50.6067C62.7936 57.398 57.398 62.7936 50.6067 65.6067C43.8154 68.4197 36.1848 68.4197 29.3935 65.6067C22.6022 62.7936 17.2065 57.398 14.3935 50.6067C11.5804 43.8154 11.5804 36.1848 14.3935 29.3935C17.2065 22.6022 22.6022 17.2065 29.3935 14.3935Z" stroke="currentColor" stroke-width="4" stroke-linecap="round" stroke-linejoin="round" />
  <path d="M33.1026 13.1478C33.1953 13.208 33.2865 13.2708 33.3762 13.3361L34.0105 13.7982C34.7182 14.3137 35.5711 14.5915 36.4467 14.5915H36.9599C37.6337 14.5915 38.2846 14.8367 38.791 15.2814C39.2973 15.726 39.9482 15.9713 40.622 15.9713H50.4904C50.8293 15.9713 51.1547 16.1036 51.3974 16.3401L52.1352 17.0592C52.7009 17.6105 52.3105 18.5703 51.5206 18.5703C51.1907 18.5703 50.8884 18.7547 50.7375 19.0481L50.4458 19.6152C50.0993 20.2889 49.3898 20.6968 48.6332 20.6574L47.6474 20.606C46.6887 20.5561 45.7526 20.9074 45.0636 21.5758L44.4597 22.1617C43.9259 22.6794 43.2183 22.9795 42.4751 23.0032L42.2181 23.0114C40.7598 23.0579 39.5981 24.247 39.5857 25.706C39.5798 26.3979 39.3104 27.0616 38.8323 27.5617L35.2062 31.3553C34.6865 31.8991 33.965 32.2036 33.2128 32.1968C31.8532 32.1846 30.6928 33.177 30.494 34.522L30.4844 34.5866C30.3685 35.3713 29.9249 36.0699 29.2641 36.5087L28.6251 36.9331C27.9181 37.4025 27.5235 38.2202 27.5958 39.0658L27.6274 39.4346C27.705 40.3405 27.1229 41.172 26.2452 41.4092C25.4528 41.6233 24.6132 41.2985 24.1712 40.6068L23.7421 39.9352C22.6247 38.1864 20.1029 38.0968 18.8641 39.7617L18.3927 40.3953C18.1901 40.6675 18.0375 40.9736 17.9418 41.2992L17.383 43.2019C17.2961 43.4977 17.0031 43.683 16.6986 43.6347C16.5229 43.6069 16.368 43.5041 16.274 43.3531L13.9741 39.6569C13.5716 39.0101 13.0064 38.4982 12.3497 38.1611C12.5475 35.1709 13.2306 32.2052 14.3991 29.3843C17.2121 22.593 22.6078 17.1973 29.3991 14.3843C30.61 13.8827 31.8477 13.4705 33.1026 13.1478Z" stroke="currentColor" stroke-width="4" stroke-linecap="round" stroke-linejoin="round" />
  <path d="M26.6927 43.8809C25.5781 44.0993 25.0356 45.3735 25.6508 46.3283L27.2833 48.8623C27.7873 49.6446 28.571 50.2049 29.4742 50.4288L30.885 50.7786C31.423 50.912 31.9916 50.7538 32.3833 50.3615C33.0236 49.7205 32.9947 48.6734 32.3202 48.0686L28.0746 44.2615C27.6992 43.9248 27.1875 43.7839 26.6927 43.8809Z" stroke="currentColor" stroke-width="4" stroke-linecap="round" stroke-linejoin="round" />
  <path d="M41.8497 29.9603C42.6361 29.094 42.231 27.7027 41.1025 27.394C40.453 27.2163 39.7627 27.4731 39.3873 28.032L37.981 30.125C37.457 30.9051 37.8459 31.9694 38.7495 32.2277C39.2559 32.3725 39.8007 32.2173 40.1547 31.8273L41.8497 29.9603Z" stroke="currentColor" stroke-width="4" stroke-linecap="round" stroke-linejoin="round" />
  <path d="M37.1823 48.3529C37.0056 49.1348 37.5811 49.8854 38.382 49.9177L41.7378 50.0533C42.17 50.0707 42.5957 49.9436 42.9476 49.6921L43.2289 49.491C43.504 49.2944 43.6815 48.9891 43.7161 48.6527C43.7878 47.9574 43.2423 47.3528 42.5433 47.3528H38.4337C37.8341 47.3528 37.3144 47.7681 37.1823 48.3529Z" stroke="currentColor" stroke-width="4" stroke-linecap="round" stroke-linejoin="round" />
  <path d="M39.5959 52.2847C38.1897 52.3527 36.861 52.9494 35.8759 53.9553L35.23 54.6148C34.5173 55.3426 34.1523 56.3419 34.2282 57.3577C34.3663 59.207 35.907 60.637 37.7615 60.637H38.9296C39.9919 60.637 41.015 61.0381 41.7943 61.76L42.235 62.1683C42.731 62.6278 43.3822 62.8831 44.0583 62.8831C45.54 62.8831 46.7411 61.6819 46.7411 60.2002V58.3531C46.7411 57.2369 46.329 56.16 45.5838 55.3289L44.6644 54.3035C43.4335 52.9308 41.6497 52.1855 39.808 52.2745L39.5959 52.2847Z" stroke="currentColor" stroke-width="4" stroke-linecap="round" stroke-linejoin="round" />
  <path d="M33.028 45.1202C32.0472 44.5006 31.8857 43.1352 32.6949 42.3039L34.7091 40.2346C34.9495 39.9877 35.3061 39.8926 35.6375 39.9872C36.2393 40.1589 36.5068 40.8611 36.1718 41.3897L36.1212 41.4695C35.9984 41.6634 35.9454 41.8933 35.971 42.1214L36.058 42.8959C36.1181 43.4304 35.9758 43.9681 35.6593 44.403L35.4788 44.6511C34.913 45.4286 33.8409 45.6338 33.028 45.1202Z" stroke="currentColor" stroke-width="4" stroke-linecap="round" stroke-linejoin="round" />
  <path d="M49.9934 63.0657C49.6469 62.6126 49.6322 61.9877 49.9569 61.5187L50.8614 60.2125C51.3145 59.5582 52.2401 59.4523 52.8292 59.9874C53.3191 60.4323 53.4026 61.1717 53.0244 61.7147L52.1163 63.0184C51.6074 63.7492 50.5344 63.773 49.9934 63.0657Z" stroke="currentColor" stroke-width="4" stroke-linecap="round" stroke-linejoin="round" />
</svg>