<svg width="80" height="80" viewBox="0 0 80 80" fill="none" xmlns="http://www.w3.org/2000/svg">
  <path d="M20.6716 37.5574C20.425 38.3275 20.2918 39.1483 20.2918 40.0002V49.4418C20.2918 53.2552 22.9835 56.5386 26.7229 57.2864L38.7229 59.6864C39.7586 59.8936 40.8251 59.8936 41.8608 59.6864L53.8608 57.2864C57.6002 56.5386 60.2918 53.2552 60.2918 49.4418V40.0002C60.2918 39.0834 60.1376 38.2026 59.8537 37.3824L40.3163 43.8948C40.111 43.9632 39.8891 43.9632 39.6839 43.8948L20.6716 37.5574Z" fill="currentColor" fill-opacity="0.25" />
  <path d="M39.6839 20.1055C39.8891 20.0371 40.111 20.0371 40.3163 20.1055L73.154 31.0514C74.0657 31.3553 74.0657 32.6449 73.154 32.9488L40.3163 43.8948C40.111 43.9632 39.8891 43.9632 39.6839 43.8948L6.84612 32.9488C5.93443 32.6449 5.93443 31.3553 6.84613 31.0514L39.6839 20.1055Z" fill="currentColor" fill-opacity="0.25" />
  <path d="M40.3163 43.8948L59.8537 37.3824C60.1376 38.2026 60.2918 39.0834 60.2918 40.0002V49.4418C60.2918 53.2552 57.6002 56.5386 53.8608 57.2864L41.8608 59.6864C40.8251 59.8936 39.7586 59.8936 38.7229 59.6864L26.7229 57.2864C22.9835 56.5386 20.2918 53.2552 20.2918 49.4418V40.0002C20.2918 39.1483 20.425 38.3275 20.6716 37.5574L39.6839 43.8948M40.3163 43.8948C40.111 43.9632 39.8891 43.9632 39.6839 43.8948M40.3163 43.8948L73.154 32.9488C74.0657 32.6449 74.0657 31.3553 73.154 31.0514L40.3163 20.1055C40.111 20.0371 39.8891 20.0371 39.6839 20.1055L6.84613 31.0514C5.93443 31.3553 5.93443 32.6449 6.84612 32.9488L39.6839 43.8948M39.0001 31.0001L16.077 37.5496C13.0719 38.4082 11.0001 41.1549 11.0001 44.2802V50.5001M11.0001 50.5001L10.0001 62.0001M11.0001 50.5001L12.0001 62.0001" stroke="currentColor" stroke-width="4" stroke-linecap="round" stroke-linejoin="round" />
</svg>