<svg width="80" height="80" viewBox="0 0 80 80" fill="none" xmlns="http://www.w3.org/2000/svg">
  <path d="M8.8125 66.375C8.8125 66.6511 9.03636 66.875 9.3125 66.875H46.3938C52.695 66.875 58.8086 64.7304 63.729 60.7941L69.6551 56.0532C71.2723 54.7594 71.5345 52.3996 70.2408 50.7823C68.947 49.1651 66.5871 48.9029 64.9699 50.1967L59.0438 54.9375C58.2404 55.5803 57.2235 55.875 56.1945 55.875H34.8124C34.6744 55.875 34.5625 55.7631 34.5625 55.6251C34.5625 55.4896 34.6705 55.3786 34.806 55.3768C34.897 55.3756 34.988 55.375 35.0791 55.375H44.8125C46.8836 55.375 48.5625 53.696 48.5625 51.625C48.5625 49.5539 46.8836 47.875 44.8125 47.875H35.0791C30.4929 47.875 25.9925 49.0114 21.974 51.1644C20.6071 51.8967 19.1042 52.375 17.5535 52.375H9.3125C9.03636 52.375 8.8125 52.5988 8.8125 52.875V66.375Z" fill="currentColor" fill-opacity="0.25" />
  <path d="M38.3275 16.2845C38.9052 15.0067 40.7198 15.0067 41.2975 16.2845L42.249 18.3889C42.9807 20.0073 43.829 21.5705 44.7872 23.0661L47.4962 27.2945C48.9481 29.5606 49.204 32.3922 48.1819 34.8819C47.3506 36.907 45.7489 38.5189 43.7291 39.363L43.3639 39.5156C41.0916 40.4654 38.5334 40.4654 36.2611 39.5156L35.8959 39.363C33.8761 38.5189 32.2744 36.907 31.4431 34.8819C30.421 32.3922 30.6769 29.5606 32.1288 27.2945L34.8378 23.0661C35.796 21.5705 36.6443 20.0073 37.376 18.3889L38.3275 16.2845Z" fill="currentColor" fill-opacity="0.25" />
  <path d="M8.8125 66.375C8.8125 66.6511 9.03636 66.875 9.3125 66.875H46.3938C52.695 66.875 58.8086 64.7304 63.729 60.7941L69.6551 56.0532C71.2723 54.7594 71.5345 52.3996 70.2408 50.7823C68.947 49.1651 66.5871 48.9029 64.9699 50.1967L59.0438 54.9375C58.2404 55.5803 57.2235 55.875 56.1945 55.875H34.8124C34.6744 55.875 34.5625 55.7631 34.5625 55.6251C34.5625 55.4896 34.6705 55.3786 34.806 55.3768C34.897 55.3756 34.988 55.375 35.0791 55.375H44.8125C46.8836 55.375 48.5625 53.696 48.5625 51.625C48.5625 49.5539 46.8836 47.875 44.8125 47.875H35.0791C30.4929 47.875 25.9925 49.0114 21.974 51.1644C20.6071 51.8967 19.1042 52.375 17.5535 52.375H9.3125C9.03636 52.375 8.8125 52.5988 8.8125 52.875V66.375Z" stroke="currentColor" stroke-width="4" stroke-linecap="round" stroke-linejoin="round" />
  <path d="M38.3275 16.2845C38.9052 15.0067 40.7198 15.0067 41.2975 16.2845L42.249 18.3889C42.9807 20.0073 43.829 21.5705 44.7872 23.0661L47.4962 27.2945C48.9481 29.5606 49.204 32.3922 48.1819 34.8819C47.3506 36.907 45.7489 38.5189 43.7291 39.363L43.3639 39.5156C41.0916 40.4654 38.5334 40.4654 36.2611 39.5156L35.8959 39.363C33.8761 38.5189 32.2744 36.907 31.4431 34.8819C30.421 32.3922 30.6769 29.5606 32.1288 27.2945L34.8378 23.0661C35.796 21.5705 36.6443 20.0073 37.376 18.3889L38.3275 16.2845Z" stroke="currentColor" stroke-width="4" stroke-linecap="round" stroke-linejoin="round" />
</svg>