<svg width="80" height="80" viewBox="0 0 80 80" fill="none" xmlns="http://www.w3.org/2000/svg">
  <path d="M45.75 16.5C45.75 14.1528 43.8472 12.25 41.5 12.25C39.1528 12.25 37.25 14.1528 37.25 16.5V39.25C37.25 39.3881 37.1381 39.5 37 39.5C36.8619 39.5 36.75 39.3881 36.75 39.25V20.5C36.75 18.1528 34.8472 16.25 32.5 16.25C30.1528 16.25 28.25 18.1528 28.25 20.5V45.125C28.25 45.5259 27.73 45.6833 27.5077 45.3498L24.0362 40.1425C22.7342 38.1895 20.0955 37.6618 18.1425 38.9638C16.1895 40.2658 15.6618 42.9045 16.9637 44.8575L30.9637 65.8575C31.752 67.0398 33.079 67.75 34.5 67.75H56.5C58.5701 67.75 60.3391 66.2585 60.6889 64.2181L63.6889 46.7181C63.7296 46.4809 63.75 46.2407 63.75 46V28.5C63.75 26.1528 61.8472 24.25 59.5 24.25C57.1528 24.25 55.25 26.1528 55.25 28.5V39.25C55.25 39.3881 55.1381 39.5 55 39.5C54.8619 39.5 54.75 39.3881 54.75 39.25V20.5C54.75 18.1528 52.8472 16.25 50.5 16.25C48.1528 16.25 46.25 18.1528 46.25 20.5V39.25C46.25 39.3881 46.1381 39.5 46 39.5C45.8619 39.5 45.75 39.3881 45.75 39.25V16.5Z" fill="currentColor" fill-opacity="0.25" stroke="currentColor" stroke-width="4" stroke-linecap="round" stroke-linejoin="round" />
</svg>