<svg width="80" height="80" viewBox="0 0 80 80" fill="none" xmlns="http://www.w3.org/2000/svg">
  <path d="M34.8038 40.0002C33.5289 39.4906 32.3125 38.7861 31.1995 37.8865L27.879 35.2026C24.5906 32.5446 22.6797 28.5428 22.6797 24.3146V17H57.3207V24.3146C57.3207 28.5428 55.4097 32.5446 52.1214 35.2026L48.8009 37.8865C47.6881 38.7859 46.472 39.4903 45.1973 39.9998C46.4723 40.5094 47.6887 41.2139 48.8016 42.1135L52.1221 44.7974C55.4105 47.4554 57.3215 51.4572 57.3215 55.6854V63H22.6805V55.6854C22.6805 51.4572 24.5914 47.4554 27.8798 44.7974L31.2003 42.1135C32.313 41.2141 33.5291 40.5097 34.8038 40.0002Z" fill="currentColor" fill-opacity="0.25" />
  <path d="M57.3215 63V55.6854C57.3215 51.4572 55.4105 47.4554 52.1221 44.7974L48.8016 42.1135C47.6887 41.2139 46.4723 40.5094 45.1973 39.9998C46.472 39.4903 47.6881 38.7859 48.8009 37.8865L52.1214 35.2026C55.4097 32.5446 57.3207 28.5428 57.3207 24.3146V17H22.6797V24.3146C22.6797 28.5428 24.5906 32.5446 27.879 35.2026L31.1995 37.8865C32.3125 38.7861 33.5289 39.4906 34.8038 40.0002C33.5291 40.5097 32.313 41.2141 31.2003 42.1135L27.8798 44.7974C24.5914 47.4554 22.6805 51.4572 22.6805 55.6854V63M57.3215 63H22.6805M57.3215 63H61M22.6805 63H19M61 17H19" stroke="currentColor" stroke-width="4" stroke-linecap="round" stroke-linejoin="round" />
</svg>