<svg width="80" height="80" viewBox="0 0 80 80" fill="none" xmlns="http://www.w3.org/2000/svg">
  <path d="M60 34L40 18L20 34V62H60V34Z" fill="currentColor" fill-opacity="0.25" />
  <path d="M55 30V19H49V25.2L55 30Z" fill="currentColor" fill-opacity="0.25" />
  <path d="M38.515 31.9096C39.0927 30.6318 40.9073 30.6318 41.485 31.9096L42.4365 34.0139C43.1682 35.6324 44.0165 37.1956 44.9747 38.6912L47.6837 42.9196C49.1356 45.1857 49.3915 48.0173 48.3694 50.5069C47.5381 52.532 45.9364 54.1439 43.9166 54.9881L43.5514 55.1407C41.2791 56.0904 38.7209 56.0904 36.4486 55.1407L36.0834 54.9881C34.0636 54.1439 32.4619 52.532 31.6306 50.5069C30.6085 48.0173 30.8644 45.1857 32.3163 42.9196L35.0253 38.6912C35.9835 37.1956 36.8318 35.6324 37.5635 34.0139L38.515 31.9096Z" fill="currentColor" fill-opacity="0.25" />
  <path d="M40 18L60 34V62H20V34L40 18ZM40 18L12.5 40M40 18L67.5 40M55 19V30L49 25.2V19H55ZM35.0253 38.6912L32.3163 42.9196C30.8644 45.1857 30.6085 48.0173 31.6306 50.5069C32.4619 52.532 34.0636 54.1439 36.0834 54.9881L36.4486 55.1407C38.7209 56.0904 41.2791 56.0904 43.5514 55.1407L43.9166 54.9881C45.9364 54.1439 47.5381 52.532 48.3694 50.5069C49.3915 48.0173 49.1356 45.1857 47.6837 42.9196L44.9747 38.6912C44.0165 37.1956 43.1682 35.6324 42.4365 34.0139L41.485 31.9096C40.9073 30.6318 39.0927 30.6318 38.515 31.9096L37.5635 34.0139C36.8318 35.6324 35.9835 37.1956 35.0253 38.6912Z" stroke="currentColor" stroke-width="4" stroke-linecap="round" stroke-linejoin="round" />
</svg>