<svg width="80" height="80" viewBox="0 0 80 80" fill="none" xmlns="http://www.w3.org/2000/svg">
  <path d="M15.6519 25.6471C15.6519 27.5422 13.7147 29.0784 11.325 29.0784C8.93533 29.0784 6.9981 27.5422 6.9981 25.6471C6.9981 23.752 8.93533 22.2157 11.325 22.2157C13.7147 22.2157 15.6519 23.752 15.6519 25.6471Z" fill="currentColor" fill-opacity="0.25" />
  <path d="M31.9981 29.5686C31.9981 31.4637 30.0609 33 27.6712 33C25.2815 33 23.3442 31.4637 23.3442 29.5686C23.3442 27.6735 25.2815 26.1373 27.6712 26.1373C30.0609 26.1373 31.9981 27.6735 31.9981 29.5686Z" fill="currentColor" fill-opacity="0.25" />
  <path d="M50.0943 16.3545C48.5597 15.4685 48.034 13.5063 48.9199 11.9718C49.8059 10.4373 51.7681 9.91153 53.3026 10.7975L54.0965 11.2558C55.631 12.1418 56.1567 14.104 55.2708 15.6385C54.3848 17.173 52.4226 17.6988 50.8881 16.8128L50.0943 16.3545Z" fill="currentColor" fill-opacity="0.25" />
  <path d="M50.0943 25.9796C48.5597 26.8656 48.034 28.8278 48.9199 30.3623C49.8059 31.8968 51.7681 32.4226 53.3026 31.5366L54.0965 31.0783C55.631 30.1923 56.1567 28.2301 55.2708 26.6956C54.3848 25.1611 52.4226 24.6353 50.8881 25.5213L50.0943 25.9796Z" fill="currentColor" fill-opacity="0.25" />
  <path d="M23.1157 67.7143C23.1157 68.8978 22.1676 69.8571 20.9981 69.8571C19.8286 69.8571 18.8804 68.8978 18.8804 67.7143C18.8804 66.5308 19.8286 65.5714 20.9981 65.5714C22.1676 65.5714 23.1157 66.5308 23.1157 67.7143Z" fill="currentColor" fill-opacity="0.25" />
  <path d="M59.4981 45L59.511 49.158L59.4983 49.1538L59.4851 49.1581L59.4981 45Z" fill="currentColor" fill-opacity="0.25" />
  <path d="M54.0176 50.9347L51.563 47.5783L53.9967 50.95L54.0048 50.9388L54.0176 50.9347Z" fill="currentColor" fill-opacity="0.25" />
  <path d="M50.6176 55.6009L46.6588 54.3283L50.6096 55.6256V55.6119L50.6176 55.6009Z" fill="currentColor" fill-opacity="0.25" />
  <path d="M50.6096 61.3744L46.6588 62.6717L50.6176 61.3991L50.6096 61.3881V61.3744Z" fill="currentColor" fill-opacity="0.25" />
  <path d="M53.9967 66.05L51.563 69.4217L54.0176 66.0653L54.0048 66.0612L53.9967 66.05Z" fill="currentColor" fill-opacity="0.25" />
  <path d="M59.4851 67.8419L59.4981 72L59.511 67.842L59.4983 67.8462L59.4851 67.8419Z" fill="currentColor" fill-opacity="0.25" />
  <path d="M64.9787 66.0655L67.4332 69.4217L64.9997 66.0503L64.9919 66.0612L64.9787 66.0655Z" fill="currentColor" fill-opacity="0.25" />
  <path d="M68.379 61.3992L72.3373 62.6717L68.387 61.3746V61.3881L68.379 61.3992Z" fill="currentColor" fill-opacity="0.25" />
  <path d="M68.387 55.6254L72.3373 54.3283L68.379 55.6008L68.387 55.6119V55.6254Z" fill="currentColor" fill-opacity="0.25" />
  <path d="M64.9997 50.9497L67.4332 47.5783L64.9787 50.9345L64.9919 50.9388L64.9997 50.9497Z" fill="currentColor" fill-opacity="0.25" />
  <path d="M57.6669 52.8642C58.8571 52.4775 60.1391 52.4775 61.3293 52.8642C62.5194 53.2509 63.5566 54.0045 64.2922 55.0169C65.0277 56.0293 65.4239 57.2486 65.4239 58.5C65.4239 59.7514 65.0277 60.9707 64.2922 61.9831C63.5566 62.9955 62.5194 63.7491 61.3293 64.1358C60.1391 64.5225 58.8571 64.5225 57.6669 64.1358C56.4768 63.7491 55.4396 62.9955 54.704 61.9831C53.9685 60.9707 53.5723 59.7514 53.5723 58.5C53.5723 57.2486 53.9685 56.0293 54.704 55.0169C55.4396 54.0045 56.4768 53.2509 57.6669 52.8642Z" fill="currentColor" fill-opacity="0.25" />
  <path d="M15.6519 25.6471L15.6519 8L31.9981 11.9216L31.9981 29.5686M15.6519 25.6471C15.6519 27.5422 13.7147 29.0784 11.325 29.0784C8.93533 29.0784 6.9981 27.5422 6.9981 25.6471C6.9981 23.752 8.93533 22.2157 11.325 22.2157C13.7147 22.2157 15.6519 23.752 15.6519 25.6471ZM31.9981 29.5686C31.9981 31.4637 30.0609 33 27.6712 33C25.2815 33 23.3442 31.4637 23.3442 29.5686C23.3442 27.6735 25.2815 26.1373 27.6712 26.1373C30.0609 26.1373 31.9981 27.6735 31.9981 29.5686ZM15.6519 12.902L31.9981 16.8235M50.492 16.5841L71.1322 28.5007M50.492 25.75L71.1322 13.8333M14.0472 63.2794C14.5341 62.5098 15.1437 61.8242 15.8533 61.2516C16.8233 60.4689 17.9551 59.9174 19.1646 59.638C20.3741 59.3587 21.6303 59.3587 22.8398 59.638C24.0494 59.9174 25.1812 60.4689 26.1511 61.2516C26.8603 61.8239 27.4696 62.5089 27.9564 63.278M9.49174 57.8707C10.2135 56.9087 11.0525 56.0379 11.9916 55.2801C13.689 53.9103 15.6696 52.9451 17.7863 52.4563C19.903 51.9674 22.1013 51.9674 24.218 52.4563C26.3347 52.9451 28.3153 53.9103 30.0128 55.2801C30.9514 56.0376 31.7901 56.908 32.5117 57.8695M4.96008 52.4903C5.89614 51.3216 6.95714 50.255 8.12674 49.3112C10.5517 47.3544 13.3811 45.9755 16.405 45.2772C19.4288 44.5788 22.5693 44.5788 25.5931 45.2772C28.6169 45.9755 31.4464 47.3544 33.8713 49.3112C35.0418 50.2557 36.1035 51.3232 37.0401 52.4929M55.2708 15.6385C54.3848 17.173 52.4226 17.6988 50.8881 16.8128L50.0943 16.3545C48.5598 15.4685 48.034 13.5063 48.9199 11.9718C49.8059 10.4373 51.7681 9.91153 53.3026 10.7975L54.0965 11.2558C55.631 12.1418 56.1568 14.104 55.2708 15.6385ZM55.2708 26.6956C54.3848 25.1611 52.4226 24.6353 50.8881 25.5213L50.0943 25.9796C48.5598 26.8656 48.034 28.8278 48.9199 30.3623C49.8059 31.8968 51.7681 32.4226 53.3026 31.5366L54.0965 31.0783C55.631 30.1923 56.1568 28.2301 55.2708 26.6956ZM23.1157 67.7143C23.1157 68.8978 22.1676 69.8571 20.9981 69.8571C19.8286 69.8571 18.8804 68.8978 18.8804 67.7143C18.8804 66.5308 19.8286 65.5714 20.9981 65.5714C22.1676 65.5714 23.1157 66.5308 23.1157 67.7143ZM59.511 49.158L59.4981 45L59.4851 49.1581L59.4983 49.1538L59.511 49.158ZM54.0176 50.9347L51.563 47.5783L53.9967 50.95L54.0048 50.9388L54.0176 50.9347ZM50.6176 55.6009L46.6588 54.3283L50.6096 55.6256V55.6119L50.6176 55.6009ZM50.6096 61.3744L46.6588 62.6717L50.6176 61.3991L50.6096 61.3881V61.3744ZM53.9967 66.05L51.563 69.4217L54.0176 66.0653L54.0048 66.0612L53.9967 66.05ZM59.4851 67.8419L59.4981 72L59.511 67.842L59.4983 67.8462L59.4851 67.8419ZM64.9787 66.0655L67.4332 69.4217L64.9997 66.0503L64.9919 66.0612L64.9787 66.0655ZM68.379 61.3992L72.3373 62.6717L68.387 61.3746V61.3881L68.379 61.3992ZM68.387 55.6254L72.3373 54.3283L68.379 55.6008L68.387 55.6119V55.6254ZM64.9997 50.9497L67.4332 47.5783L64.9787 50.9345L64.9919 50.9388L64.9997 50.9497ZM54.704 55.0169C55.4396 54.0045 56.4768 53.2509 57.6669 52.8642C58.8571 52.4775 60.1391 52.4775 61.3293 52.8642C62.5194 53.2509 63.5566 54.0045 64.2922 55.0169C65.0277 56.0293 65.4239 57.2486 65.4239 58.5C65.4239 59.7514 65.0277 60.9707 64.2922 61.9831C63.5566 62.9955 62.5194 63.7491 61.3293 64.1358C60.1391 64.5225 58.8571 64.5225 57.6669 64.1358C56.4768 63.7491 55.4396 62.9955 54.704 61.9831C53.9685 60.9707 53.5723 59.7514 53.5723 58.5C53.5723 57.2486 53.9685 56.0293 54.704 55.0169Z" stroke="currentColor" stroke-width="4" stroke-linecap="round" stroke-linejoin="round" />
</svg>