<svg viewBox="0 0 80 80" fill="none">
  <path d="M29.783 44.5254L29.7589 44.5599C27.582 47.6796 26.7725 51.5525 27.5175 55.2829L27.934 57.3685C28.6445 60.9263 30.889 63.9892 34.0674 65.7385C37.7614 67.7715 42.2391 67.7715 45.9331 65.7385C49.1115 63.9892 51.356 60.9263 52.0665 57.3685L52.483 55.2829C53.228 51.5525 52.4185 47.6796 50.2416 44.56L50.2175 44.5254C50.1092 44.5198 49.9994 44.5036 49.8893 44.4761C43.3966 42.8529 36.604 42.8529 30.1112 44.4761C30.0011 44.5036 29.8913 44.5198 29.783 44.5254Z" fill="currentColor" fill-opacity="0.25" />
  <path d="M44.5002 14.5041C42.0149 12.0188 37.9855 12.0188 35.5002 14.5041C34.412 15.5923 33.8002 16.9767 33.665 18.3978C35.0529 18.8234 36.3299 19.5838 37.3752 20.6291C38.6739 21.9278 39.5329 23.584 39.8563 25.3664C39.9556 25.3687 40.0549 25.3686 40.1542 25.3662C40.4776 23.5839 41.3366 21.9277 42.6352 20.6291C43.6781 19.5862 44.9515 18.8269 46.3357 18.4008C46.201 16.9786 45.5892 15.5931 44.5002 14.5041Z" fill="currentColor" fill-opacity="0.25" />
  <path d="M29.3339 38.671C29.3498 38.6666 29.3657 38.6623 29.3817 38.6583C32.8675 37.7869 36.4338 37.3512 40 37.3512V26.9661C40 24.5891 39.056 22.3099 37.3752 20.6291C35.6944 18.9483 33.4146 18.0038 31.0377 18.0038H30.9623C28.5854 18.0038 26.3058 18.948 24.625 20.6288C22.9442 22.3095 22 24.5891 22 26.9661V28.1699C22 30.7651 23.1203 33.2341 25.0735 34.943L29.3339 38.671Z" fill="currentColor" fill-opacity="0.25" />
  <path d="M50.6736 38.6731L54.9365 34.943C56.8897 33.2341 58.01 30.7651 58.01 28.1699V26.9661C58.01 24.5891 57.0658 22.3095 55.385 20.6288C53.7042 18.948 51.4246 18.0038 49.0477 18.0038H48.9723C46.5954 18.0038 44.316 18.9483 42.6352 20.6291C40.9544 22.3099 40.01 24.5891 40.01 26.9661V37.3512C43.5729 37.352 47.1357 37.7877 50.6183 38.6583C50.6368 38.663 50.6553 38.6679 50.6736 38.6731Z" fill="currentColor" fill-opacity="0.25" />
  <path d="M28 40.4282C28 39.5911 28.5697 38.8613 29.3817 38.6583C36.3533 36.9154 43.6467 36.9154 50.6183 38.6583C51.4303 38.8613 52 39.5911 52 40.4282V42.828C52 43.9333 50.9616 44.7442 49.8893 44.4761C43.3966 42.8529 36.604 42.8529 30.1112 44.4761C29.039 44.7442 28 43.9333 28 42.828V40.4282Z" fill="currentColor" fill-opacity="0.25" />
  <path d="M49.8893 44.4761C49.9994 44.5036 50.1092 44.5198 50.2175 44.5254L50.2416 44.56C52.4185 47.6796 53.228 51.5525 52.483 55.2829L52.0665 57.3685C51.356 60.9263 49.1115 63.9892 45.9331 65.7385C42.2391 67.7715 37.7614 67.7715 34.0674 65.7385C30.889 63.9892 28.6445 60.9263 27.934 57.3685L27.5175 55.2829C26.7725 51.5525 27.582 47.6796 29.7589 44.5599L29.783 44.5254C29.8913 44.5198 30.0011 44.5036 30.1112 44.4761M49.8893 44.4761C43.3966 42.8529 36.604 42.8529 30.1112 44.4761M49.8893 44.4761C50.9616 44.7442 52 43.9332 52 42.828V40.4282C52 39.5911 51.4303 38.8613 50.6183 38.6583M30.1112 44.4761C29.039 44.7442 28 43.9332 28 42.828V40.4282C28 39.5911 28.5697 38.8613 29.3817 38.6583M28.979 65.2411L30.6304 63.5435C32.3661 61.7591 34.5763 60.5087 36.9998 59.9401C38.9593 59.4803 40.9987 59.4803 42.9582 59.9401C45.3817 60.5087 47.5919 61.7591 49.3276 63.5435L50.979 65.2411M37.3752 20.6291C36.3299 19.5838 35.0529 18.8234 33.665 18.3978C33.8002 16.9767 34.412 15.5923 35.5002 14.5041C37.9855 12.0188 42.0149 12.0188 44.5002 14.5041C45.5892 15.5931 46.201 16.9786 46.3357 18.4008C44.9515 18.8269 43.6781 19.5862 42.6352 20.6291M37.3752 20.6291C38.6739 21.9278 39.5329 23.584 39.8563 25.3664C39.9556 25.3687 40.0549 25.3686 40.1542 25.3662C40.4776 23.5839 41.3366 21.9277 42.6352 20.6291M37.3752 20.6291C39.056 22.3099 40 24.5891 40 26.9661V37.3512C36.4338 37.3512 32.8675 37.7869 29.3817 38.6583M37.3752 20.6291C35.6944 18.9483 33.4146 18.0038 31.0377 18.0038H30.9623C28.5854 18.0038 26.3058 18.948 24.625 20.6288C22.9442 22.3095 22 24.5891 22 26.9661V28.1699C22 30.7651 23.1203 33.2341 25.0735 34.943L29.3339 38.671C29.3498 38.6666 29.3657 38.6623 29.3817 38.6583M42.6352 20.6291C44.316 18.9483 46.5954 18.0038 48.9723 18.0038H49.0477C51.4246 18.0038 53.7042 18.948 55.385 20.6288C57.0658 22.3095 58.01 24.5891 58.01 26.9661V28.1699C58.01 30.7651 56.8897 33.2341 54.9365 34.943L50.6736 38.6731C50.6553 38.6679 50.6368 38.663 50.6183 38.6583M42.6352 20.6291C40.9544 22.3099 40.01 24.5891 40.01 26.9661V37.3512C43.5729 37.352 47.1357 37.7877 50.6183 38.6583M29.3817 38.6583C36.3533 36.9154 43.6467 36.9154 50.6183 38.6583" stroke="currentColor" stroke-linecap="round" stroke-linejoin="round" />
</svg>