<svg width="80" height="80" viewBox="0 0 80 80" fill="none" xmlns="http://www.w3.org/2000/svg">
  <path d="M20 16C20 13.7909 21.7909 12 24 12H56C58.2091 12 60 13.7909 60 16V64C60 66.2091 58.2091 68 56 68H24C21.7909 68 20 66.2091 20 64V16Z" fill="currentColor" fill-opacity="0.25" />
  <path d="M31.55 29C31.55 26.7909 33.3409 25 35.55 25H44.45C46.6591 25 48.45 26.7909 48.45 29V40V51C48.45 53.2091 46.6591 55 44.45 55H35.55C33.3409 55 31.55 53.2091 31.55 51V40V29Z" fill="currentColor" fill-opacity="0.25" />
  <path d="M39.75 17H40.25M39.75 63H40.25M48.45 40V29C48.45 26.7909 46.6591 25 44.45 25H35.55C33.3409 25 31.55 26.7909 31.55 29V40M48.45 40V51C48.45 53.2091 46.6591 55 44.45 55H35.55C33.3409 55 31.55 53.2091 31.55 51V40M48.45 40H31.55M24 68H56C58.2091 68 60 66.2091 60 64V16C60 13.7909 58.2091 12 56 12H24C21.7909 12 20 13.7909 20 16V64C20 66.2091 21.7909 68 24 68Z" stroke="currentColor" stroke-width="4" stroke-linecap="round" stroke-linejoin="round" />
</svg>