<svg width="80" height="80" viewBox="0 0 80 80" fill="none" xmlns="http://www.w3.org/2000/svg">
  <path d="M8 35C8 26.7157 14.7157 20 23 20C31.2843 20 38 26.7157 38 35V59.9504C38 59.9778 37.9778 60 37.9504 60H8.05754C8.02576 60 8 59.9742 8 59.9425V35Z" fill="currentColor" fill-opacity="0.25" />
  <path d="M24 20C23.83 20 23.6607 20.0027 23.4919 20.0079C31.5485 20.2675 38 26.8803 38 35V59.9504C38 59.9778 37.9778 60 37.9504 60H71.9505C71.9778 60 72 59.9778 72 59.9504V36C72 27.1634 64.8366 20 56 20H24Z" fill="currentColor" fill-opacity="0.25" />
  <path d="M57 34H64C64.5523 34 65 34.4477 65 35V42C65 44.2091 63.2091 46 61 46C58.7909 46 57 44.2091 57 42V34Z" fill="currentColor" fill-opacity="0.25" />
  <path d="M37.9504 60H8.05754C8.02576 60 8 59.9742 8 59.9425V35C8 26.7157 14.7157 20 23 20C31.2843 20 38 26.7157 38 35M37.9504 60C37.9778 60 38 59.9778 38 59.9504V35M37.9504 60H71.9505C71.9778 60 72 59.9778 72 59.9504V36C72 27.1634 64.8366 20 56 20H24C23.83 20 23.6607 20.0027 23.4919 20.0079C31.5485 20.2675 38 26.8803 38 35M57 34H64C64.5523 34 65 34.4477 65 35V42C65 44.2091 63.2091 46 61 46C58.7909 46 57 44.2091 57 42V34ZM57 34H46M26 34H18" stroke="currentColor" stroke-width="4" stroke-linecap="round" stroke-linejoin="round" />
</svg>