<svg viewBox="0 0 80 80" fill="none">
  <path d="M31 21C31 16.0294 35.0294 12 40 12C44.9706 12 49 16.0294 49 21V39C49 43.9706 44.9706 48 40 48C35.0294 48 31 43.9706 31 39V21Z" fill="currentColor" fill-opacity="0.25" />
  <path d="M50 68H30M40 55V68M40 55C31.1634 55 24 47.8366 24 39V31M40 55C48.8366 55 56 47.8366 56 39V31M40 23H49M40 30H49M40 37H49M40 48C35.0294 48 31 43.9706 31 39V21C31 16.0294 35.0294 12 40 12C44.9706 12 49 16.0294 49 21V39C49 43.9706 44.9706 48 40 48Z" stroke="currentColor" stroke-linecap="round" stroke-linejoin="round" />
</svg>