<svg width="80" height="80" viewBox="0 0 80 80" fill="none" xmlns="http://www.w3.org/2000/svg">
  <path d="M31.0203 21C31.0203 16.0294 35.0497 12 40.0203 12C44.9908 12 49.0203 16.0294 49.0203 21V39C49.0203 43.9706 44.9908 48 40.0203 48C35.0497 48 31.0203 43.9706 31.0203 39V21Z" fill="currentColor" fill-opacity="0.25" />
  <path d="M50.0203 68H30.0203M40.0203 55V68M40.0203 55C31.1837 55 24.0203 47.8366 24.0203 39V31M40.0203 55C48.8568 55 56.0203 47.8366 56.0203 39V31M12 68L68 12M40.0203 48C35.0497 48 31.0203 43.9706 31.0203 39V21C31.0203 16.0294 35.0497 12 40.0203 12C44.9908 12 49.0203 16.0294 49.0203 21V39C49.0203 43.9706 44.9908 48 40.0203 48Z" stroke="currentColor" stroke-width="4" stroke-linecap="round" stroke-linejoin="round" />
</svg>