<svg viewBox="0 0 80 80" fill="none">
  <path d="M32 18C32 16.8954 32.8954 16 34 16H46.7317C47.8994 16 49.0088 16.5103 49.7687 17.3968L64 34H32V18Z" fill="currentColor" fill-opacity="0.25" />
  <path d="M68 34H64V49.7849C65.2569 50.5938 66.2485 51.7715 66.8284 53.1716C66.9409 53.4432 67.0366 53.7198 67.1153 54H70C71.1046 54 72 53.1046 72 52V38C72 35.7909 70.2091 34 68 34Z" fill="currentColor" fill-opacity="0.25" />
  <path d="M32 34H8V54H13.8847C13.9634 53.7198 14.0591 53.4432 14.1716 53.1716C14.9217 51.3606 16.3606 49.9217 18.1716 49.1716C19.9826 48.4214 22.0174 48.4214 23.8284 49.1716C25.6394 49.9217 27.0783 51.3606 27.8284 53.1716C27.9409 53.4432 28.0366 53.7198 28.1153 54H32V34Z" fill="currentColor" fill-opacity="0.25" />
  <path d="M32 34H64V49.7849C63.6311 49.5474 63.2393 49.3418 62.8284 49.1716C61.0174 48.4214 58.9826 48.4214 57.1716 49.1716C55.3606 49.9217 53.9217 51.3606 53.1716 53.1716C53.0591 53.4432 52.9634 53.7198 52.8847 54H32V34Z" fill="currentColor" fill-opacity="0.25" />
  <path d="M18.1716 49.1716C19.9826 48.4214 22.0174 48.4214 23.8284 49.1716C25.6394 49.9217 27.0783 51.3606 27.8284 53.1716C28.5786 54.9826 28.5786 57.0174 27.8284 58.8284C27.0783 60.6394 25.6394 62.0783 23.8284 62.8284C22.0174 63.5786 19.9826 63.5786 18.1716 62.8284C16.3606 62.0783 14.9217 60.6394 14.1716 58.8284C13.4214 57.0174 13.4214 54.9826 14.1716 53.1716C14.9217 51.3606 16.3606 49.9217 18.1716 49.1716Z" fill="currentColor" fill-opacity="0.25" />
  <path d="M57.1716 49.1716C58.9826 48.4214 61.0174 48.4214 62.8284 49.1716C64.6394 49.9217 66.0783 51.3606 66.8284 53.1716C67.5786 54.9826 67.5786 57.0174 66.8284 58.8284C66.0783 60.6394 64.6394 62.0783 62.8284 62.8284C61.0174 63.5786 58.9826 63.5786 57.1716 62.8284C55.3606 62.0783 53.9217 60.6394 53.1716 58.8284C52.4214 57.0174 52.4214 54.9826 53.1716 53.1716C53.9217 51.3606 55.3606 49.9217 57.1716 49.1716Z" fill="currentColor" fill-opacity="0.25" />
  <path d="M64 34L49.7687 17.3968C49.0088 16.5103 47.8994 16 46.7317 16H34C32.8954 16 32 16.8954 32 18V34M64 34H32M64 34H68C70.2091 34 72 35.7909 72 38V52C72 53.1046 71.1046 54 70 54H67.1153C67.0366 53.7198 66.9409 53.4432 66.8284 53.1716M64 34V49.7849M32 34H8V54H13.8847C13.9634 53.7198 14.0591 53.4432 14.1716 53.1716M32 34V54M64 49.7849C65.2569 50.5938 66.2485 51.7715 66.8284 53.1716M64 49.7849C63.6311 49.5474 63.2393 49.3418 62.8284 49.1716M66.8284 53.1716C67.5786 54.9826 67.5786 57.0174 66.8284 58.8284C66.0783 60.6394 64.6394 62.0783 62.8284 62.8284C61.0174 63.5786 58.9826 63.5786 57.1716 62.8284C55.3606 62.0783 53.9217 60.6394 53.1716 58.8284C52.4214 57.0174 52.4214 54.9826 53.1716 53.1716M66.8284 53.1716C66.0783 51.3606 64.6394 49.9217 62.8284 49.1716M14.1716 53.1716C14.9217 51.3606 16.3606 49.9217 18.1716 49.1716C19.9826 48.4214 22.0174 48.4214 23.8284 49.1716C25.6394 49.9217 27.0783 51.3606 27.8284 53.1716M14.1716 53.1716C13.4214 54.9826 13.4214 57.0174 14.1716 58.8284C14.9217 60.6394 16.3606 62.0783 18.1716 62.8284C19.9826 63.5786 22.0174 63.5786 23.8284 62.8284C25.6394 62.0783 27.0783 60.6394 27.8284 58.8284C28.5786 57.0174 28.5786 54.9826 27.8284 53.1716M27.8284 53.1716C27.9409 53.4432 28.0366 53.7198 28.1153 54H32M32 54H52.8847C52.9634 53.7198 53.0591 53.4432 53.1716 53.1716M62.8284 49.1716C61.0174 48.4214 58.9826 48.4214 57.1716 49.1716C55.3606 49.9217 53.9217 51.3606 53.1716 53.1716M36 38.5H40" stroke="currentColor" stroke-linecap="round" stroke-linejoin="round" />
</svg>