<svg width="80" height="80" viewBox="0 0 80 80" fill="none" xmlns="http://www.w3.org/2000/svg">
  <path d="M31.9997 39.9999H20.0002C17.6929 39.9999 15.8641 41.9466 16.008 44.2494L17.508 68.2494C17.6398 70.3575 19.388 71.9999 21.5002 71.9999H57.9846C60.0969 71.9999 61.8451 70.3575 61.9768 68.2494L63.4768 44.2494C63.6207 41.9466 61.7919 39.9999 59.4846 39.9999H47.9997V46C47.9997 49.3137 45.3134 52 41.9997 52H37.9997C34.6859 52 31.9997 49.3137 31.9997 46V39.9999Z" fill="currentColor" fill-opacity="0.25" />
  <path d="M16.008 44.2494C16.0038 44.1826 16.0013 44.1162 16.0004 44.0501C11.6887 44.5323 8.47443 48.4275 8.94851 52.8523L10.2342 64.8523C10.6698 68.9174 14.1003 72 18.1887 72H61.8114C65.8998 72 69.3303 68.9174 69.7659 64.8523L71.0516 52.8523C71.5444 48.253 68.0521 44.2259 63.4847 44.0092C63.4844 44.0888 63.4819 44.1688 63.4768 44.2494L61.9768 68.2494C61.8451 70.3575 60.0969 71.9999 57.9846 71.9999H21.5002C19.388 71.9999 17.6398 70.3575 17.508 68.2494L16.008 44.2494Z" fill="currentColor" fill-opacity="0.25" />
  <path d="M15.9996 16C15.9996 13.7909 17.7904 12 19.9996 12H59.9996C62.2087 12 63.9996 13.7909 63.9996 16V28C63.9996 30.2091 62.2087 32 59.9996 32H19.9996C17.7904 32 15.9996 30.2091 15.9996 28V16Z" fill="currentColor" fill-opacity="0.25" />
  <path d="M32.341 12H47.6582C46.8345 9.66962 44.612 8 41.9996 8H37.9996C35.3871 8 33.1647 9.66962 32.341 12Z" fill="currentColor" fill-opacity="0.25" />
  <path d="M47.9996 32H31.9996L31.9997 46C31.9997 49.3137 34.6859 52 37.9997 52H41.9997C45.3134 52 47.9997 49.3137 47.9997 46L47.9996 32Z" fill="currentColor" fill-opacity="0.25" />
  <path d="M31.9996 22C31.9996 17.5817 35.5813 14 39.9996 14C44.4178 14 47.9996 17.5817 47.9996 22C47.9996 26.4183 44.4178 30 39.9996 30C35.5813 30 31.9996 26.4183 31.9996 22Z" fill="currentColor" fill-opacity="0.25" />
  <path d="M16.008 44.2494C15.8641 41.9466 17.6929 39.9999 20.0002 39.9999H31.9997V46M16.008 44.2494L17.508 68.2494C17.6398 70.3575 19.388 71.9999 21.5002 71.9999H57.9846C60.0969 71.9999 61.8451 70.3575 61.9768 68.2494L63.4768 44.2494M16.008 44.2494C16.0038 44.1826 16.0013 44.1162 16.0004 44.0501C11.6887 44.5323 8.47443 48.4275 8.94851 52.8523L10.2342 64.8523C10.6698 68.9174 14.1003 72 18.1887 72H61.8114C65.8998 72 69.3303 68.9174 69.7659 64.8523L71.0516 52.8523C71.5444 48.253 68.0521 44.2259 63.4847 44.0092C63.4844 44.0888 63.4819 44.1688 63.4768 44.2494M63.4768 44.2494C63.6207 41.9466 61.7919 39.9999 59.4846 39.9999H47.9997V46M47.9997 46C47.9997 49.3137 45.3134 52 41.9997 52H37.9997C34.6859 52 31.9997 49.3137 31.9997 46M47.9997 46L47.9996 32H31.9996L31.9997 46M39.9996 22V22.01M19.9996 32H59.9996C62.2087 32 63.9996 30.2091 63.9996 28V16C63.9996 13.7909 62.2087 12 59.9996 12H19.9996C17.7904 12 15.9996 13.7909 15.9996 16V28C15.9996 30.2091 17.7904 32 19.9996 32ZM32.341 12H47.6582C46.8345 9.66962 44.612 8 41.9996 8H37.9996C35.3871 8 33.1647 9.66962 32.341 12ZM39.9996 30C35.5813 30 31.9996 26.4183 31.9996 22C31.9996 17.5817 35.5813 14 39.9996 14C44.4178 14 47.9996 17.5817 47.9996 22C47.9996 26.4183 44.4178 30 39.9996 30Z" stroke="currentColor" stroke-width="4" stroke-linecap="round" stroke-linejoin="round" />
</svg>