<svg width="80" height="80" viewBox="0 0 80 80" fill="none" xmlns="http://www.w3.org/2000/svg">
  <path d="M27.2529 43.1798C26.7195 43.538 26.2182 43.9492 25.7573 44.4101L19.88 50.287C17.7074 52.4594 16.9714 55.6844 17.9863 58.5843L21.5086 68.6479C21.8253 69.5527 22.9787 69.8157 23.6562 69.1376L32.6721 60.1224L27.7383 44.8513C27.5597 44.2986 27.3979 43.7411 27.2529 43.1798Z" fill="currentColor" fill-opacity="0.25" />
  <path d="M47.8214 60.6163L56.3425 69.1373C57.021 69.8159 58.1755 69.5524 58.4925 68.6467L62.0135 58.5866C63.0288 55.6859 62.2926 52.46 60.1195 50.2869L54.243 44.4104C53.9433 44.1107 53.6265 43.832 53.295 43.5753C53.1781 44.0031 53.0513 44.4286 52.9147 44.8513L47.8214 60.6163Z" fill="currentColor" fill-opacity="0.25" />
  <path d="M40.0738 10.6969C40.219 10.5724 40.4333 10.5724 40.5785 10.6969L44.1462 13.7549C50.6075 19.2932 54.3262 27.3783 54.3262 35.8883C54.3262 38.9311 53.8501 41.9559 52.9147 44.8513L46.1106 65.9096C46.0007 66.25 45.6838 66.4806 45.3262 66.4806H35.3262C34.9685 66.4806 34.6517 66.25 34.5417 65.9096L27.7383 44.8513C26.8029 41.9559 26.3262 38.9311 26.3262 35.8883C26.3262 27.3783 30.0448 19.2932 36.5061 13.7549L40.0738 10.6969Z" fill="currentColor" fill-opacity="0.25" />
  <path d="M37.7281 25.9808C39.3358 25.0526 41.3166 25.0526 42.9242 25.9808C44.5319 26.909 45.5223 28.6244 45.5223 30.4808C45.5223 32.3372 44.5319 34.0526 42.9242 34.9808C41.3166 35.909 39.3358 35.909 37.7281 34.9808C36.1204 34.0526 35.13 32.3372 35.13 30.4808C35.13 28.6244 36.1204 26.909 37.7281 25.9808Z" fill="currentColor" fill-opacity="0.25" />
  <path d="M27.7383 44.8513L32.6721 60.1224L23.6562 69.1376C22.9787 69.8157 21.8253 69.5527 21.5086 68.6479L17.9863 58.5843C16.9714 55.6844 17.7074 52.4594 19.88 50.287L25.7573 44.4101C26.2182 43.9492 26.7195 43.538 27.2529 43.1798C27.3979 43.7411 27.5597 44.2986 27.7383 44.8513ZM27.7383 44.8513L34.5417 65.9096C34.6517 66.25 34.9685 66.4806 35.3262 66.4806H45.3262C45.6838 66.4806 46.0007 66.25 46.1106 65.9096L52.9147 44.8513M27.7383 44.8513C26.8029 41.9559 26.3262 38.9311 26.3262 35.8883C26.3262 27.3783 30.0448 19.2932 36.5061 13.7549L40.0738 10.6969C40.219 10.5724 40.4333 10.5724 40.5785 10.6969L44.1462 13.7549C50.6075 19.2932 54.3262 27.3783 54.3262 35.8883C54.3262 38.9311 53.8501 41.9559 52.9147 44.8513M52.9147 44.8513C53.0513 44.4286 53.1781 44.0031 53.295 43.5753C53.6265 43.832 53.9433 44.1107 54.243 44.4104L60.1195 50.2869C62.2926 52.46 63.0288 55.6859 62.0135 58.5866L58.4925 68.6467C58.1755 69.5524 57.021 69.8159 56.3425 69.1373L47.8214 60.6163L52.9147 44.8513ZM35.13 30.4808C35.13 28.6244 36.1204 26.909 37.7281 25.9808C39.3358 25.0526 41.3166 25.0526 42.9242 25.9808C44.5319 26.909 45.5223 28.6244 45.5223 30.4808C45.5223 32.3372 44.5319 34.0526 42.9242 34.9808C41.3166 35.909 39.3358 35.909 37.7281 34.9808C36.1204 34.0526 35.13 32.3372 35.13 30.4808Z" stroke="currentColor" stroke-width="4" stroke-linecap="round" stroke-linejoin="round" />
</svg>