<svg width="80" height="80" viewBox="0 0 80 80" fill="none" xmlns="http://www.w3.org/2000/svg">
  <path d="M63 18C63.6403 18 64.2544 18.2544 64.7071 18.7071L73.6464 27.6464C73.8728 27.8728 74 28.1799 74 28.5V32C74 32.5523 73.5523 33 73 33H52C50.8954 33 50 33.8954 50 35V41C50 42.1046 50.8954 43 52 43H73.9C73.9552 43 74 43.0448 74 43.1V54.5C74 56.433 72.433 58 70.5 58H66.8252C65.932 58 65.2258 57.267 65.027 56.3961C64.5389 54.2576 63.1036 52.4578 61.1273 51.506C59.1511 50.5543 56.8489 50.5543 54.8727 51.506C52.8964 52.4578 51.4611 54.2576 50.973 56.3961C50.7742 57.267 50.068 58 49.1748 58H32.8252C31.932 58 31.2258 57.267 31.027 56.3961C30.5389 54.2576 29.1036 52.4578 27.1273 51.506C25.1511 50.5543 22.8489 50.5543 20.8727 51.506C18.8964 52.4578 17.4611 54.2576 16.973 56.3961C16.8939 56.7423 16.8411 57.0913 16.8139 57.4404C16.7899 57.7488 16.5414 58 16.232 58C16.0835 58 15.941 57.941 15.8359 57.8359L13 55C8.51797 50.518 6 44.439 6 38.1005V26.5C6 21.8056 9.80558 18 14.5 18H63Z" fill="currentColor" fill-opacity="0.25" />
  <path d="M32 16C32 14.8954 32.8954 14 34 14H46C47.1046 14 48 14.8954 48 16C48 17.1046 47.1046 18 46 18H34C32.8954 18 32 17.1046 32 16Z" fill="currentColor" fill-opacity="0.25" />
  <path d="M50 35C50 33.8954 50.8954 33 52 33H66L74 43H52C50.8954 43 50 42.1046 50 41V35Z" fill="currentColor" fill-opacity="0.25" />
  <path d="M18 35C18 33.8954 18.8954 33 20 33H36C37.1046 33 38 33.8954 38 35V41C38 42.1046 37.1046 43 36 43H20C18.8954 43 18 42.1046 18 41V35Z" fill="currentColor" fill-opacity="0.25" />
  <path d="M20.8727 51.506C22.8489 50.5543 25.1511 50.5543 27.1273 51.506C29.1036 52.4578 30.5389 54.2576 31.027 56.3961C31.5151 58.5346 31.0029 60.779 29.6352 62.494C28.2676 64.2089 26.1935 65.2077 24 65.2077C21.8065 65.2077 19.7324 64.2089 18.3648 62.494C16.9971 60.779 16.4849 58.5346 16.973 56.3961C17.4611 54.2576 18.8964 52.4578 20.8727 51.506Z" fill="currentColor" fill-opacity="0.25" />
  <path d="M54.8727 51.506C56.8489 50.5543 59.1511 50.5543 61.1273 51.506C63.1036 52.4578 64.5389 54.2576 65.027 56.3961C65.5151 58.5346 65.0029 60.779 63.6352 62.494C62.2676 64.2089 60.1935 65.2077 58 65.2077C55.8065 65.2077 53.7324 64.2089 52.3648 62.494C50.9971 60.779 50.4849 58.5346 50.973 56.3961C51.4611 54.2576 52.8964 52.4578 54.8727 51.506Z" fill="currentColor" fill-opacity="0.25" />
  <path d="M52 33H73C73.5523 33 74 32.5523 74 32V28.5C74 28.1799 73.8728 27.8728 73.6464 27.6464L64.7071 18.7071C64.2544 18.2544 63.6403 18 63 18H14.5C9.80558 18 6 21.8056 6 26.5V38.1005C6 44.439 8.51797 50.518 13 55L15.8359 57.8359C15.941 57.941 16.0835 58 16.232 58C16.5414 58 16.7899 57.7488 16.8139 57.4404C16.8411 57.0913 16.8939 56.7423 16.973 56.3961M52 33C50.8954 33 50 33.8954 50 35V41C50 42.1046 50.8954 43 52 43M52 33H66L74 43H52M52 43H73.9C73.9552 43 74 43.0448 74 43.1V54.5C74 56.433 72.433 58 70.5 58H66.8252C65.932 58 65.2258 57.267 65.027 56.3961M65.027 56.3961C64.5389 54.2576 63.1036 52.4578 61.1273 51.506C59.1511 50.5543 56.8489 50.5543 54.8727 51.506C52.8964 52.4578 51.4611 54.2576 50.973 56.3961M65.027 56.3961C65.5151 58.5346 65.0029 60.779 63.6352 62.494C62.2676 64.2089 60.1935 65.2077 58 65.2077C55.8065 65.2077 53.7324 64.2089 52.3648 62.494C50.9971 60.779 50.4849 58.5346 50.973 56.3961M50.973 56.3961C50.7742 57.267 50.068 58 49.1748 58H32.8252C31.932 58 31.2258 57.267 31.027 56.3961M31.027 56.3961C30.5389 54.2576 29.1036 52.4578 27.1273 51.506C25.1511 50.5543 22.8489 50.5543 20.8727 51.506C18.8964 52.4578 17.4611 54.2576 16.973 56.3961M31.027 56.3961C31.5151 58.5346 31.0029 60.779 29.6352 62.494C28.2676 64.2089 26.1935 65.2077 24 65.2077C21.8065 65.2077 19.7324 64.2089 18.3648 62.494C16.9971 60.779 16.4849 58.5346 16.973 56.3961M34 18H46C47.1046 18 48 17.1046 48 16C48 14.8954 47.1046 14 46 14H34C32.8954 14 32 14.8954 32 16C32 17.1046 32.8954 18 34 18ZM20 43H36C37.1046 43 38 42.1046 38 41V35C38 33.8954 37.1046 33 36 33H20C18.8954 33 18 33.8954 18 35V41C18 42.1046 18.8954 43 20 43Z" stroke="currentColor" stroke-width="4" stroke-linecap="round" stroke-linejoin="round" />
</svg>