<svg width="80" height="80" viewBox="0 0 80 80" fill="none" xmlns="http://www.w3.org/2000/svg">
  <path d="M13.5775 30.724C15.8197 22.3559 22.3559 15.8197 30.724 13.5775C39.092 11.3353 48.0206 13.7277 54.1464 19.8536C60.2723 25.9794 62.6647 34.908 60.4225 43.276C58.1802 51.6441 51.6441 58.1802 43.276 60.4225C34.908 62.6647 25.9794 60.2723 19.8536 54.1464C13.7277 48.0206 11.3353 39.092 13.5775 30.724Z" fill="currentColor" fill-opacity="0.25" />
  <path d="M66.7821 66.4335L54.3199 53.9714M22.2776 36.9966C22.2779 31.738 25.0834 26.8789 29.6375 24.2496C31.9141 22.9352 34.4548 22.2779 36.9955 22.2776M19.8536 54.1464C13.7277 48.0206 11.3353 39.092 13.5775 30.724C15.8197 22.3559 22.3559 15.8197 30.724 13.5775C39.092 11.3353 48.0206 13.7277 54.1464 19.8536C60.2723 25.9794 62.6647 34.908 60.4225 43.276C58.1802 51.6441 51.6441 58.1802 43.276 60.4225C34.908 62.6647 25.9794 60.2723 19.8536 54.1464Z" stroke="currentColor" stroke-width="4" stroke-linecap="round" stroke-linejoin="round" />
</svg>