<svg viewBox="0 0 80 80" fill="none">
  <path d="M39.9998 13C33.8098 16.1734 26.9135 17.8608 19.8641 17.8608C18.9124 17.8608 17.9634 17.8301 17.0186 17.7691C15.7991 23.3474 15.6641 29.1518 16.6707 34.8601C18.4725 45.0788 23.8171 54.336 31.7659 61.0058C34.3145 63.1443 37.0786 64.973 39.9999 66.4707C42.9213 64.973 45.6854 63.1443 48.234 61.0058C56.1827 54.336 61.5273 45.0788 63.3292 34.8601C64.3357 29.1518 64.2008 23.3474 62.9812 17.769C62.0364 17.8301 61.0874 17.8608 60.1356 17.8608C53.0862 17.8608 46.1899 16.1734 39.9998 13Z" fill="currentColor" fill-opacity="0.25" stroke="currentColor" stroke-linecap="round" stroke-linejoin="round" />
</svg>