<svg width="80" height="80" viewBox="0 0 80 80" fill="none" xmlns="http://www.w3.org/2000/svg">
  <path d="M58.8199 40.3057C59.4919 37.853 58.2158 35.2866 55.8546 34.3421L41.8565 28.7429C40.6644 28.266 39.3346 28.266 38.1426 28.7429L24.1445 34.3421C21.7833 35.2866 20.5072 37.853 21.1792 40.3057L23.3555 48.2492C25.5816 47.7749 27.9394 48.1105 29.9794 49.2561C31.6484 50.1934 33.6851 50.1934 35.3541 49.2561C38.2395 47.6358 41.7606 47.6358 44.646 49.2561C46.315 50.1934 48.3518 50.1934 50.0208 49.2561C52.0604 48.1107 54.4178 47.775 56.6437 48.2489L58.8199 40.3057Z" fill="currentColor" fill-opacity="0.25" />
  <path d="M33.4995 16C32.6711 16 31.9995 16.6716 31.9995 17.5V22H33.9995H45.9995H47.9995V17.5C47.9995 16.6716 47.3279 16 46.4995 16H33.4995Z" fill="currentColor" fill-opacity="0.25" />
  <path d="M25.9995 24.5C25.9995 23.1193 27.1188 22 28.4995 22H33.9995H45.9995H51.4995C52.8802 22 53.9995 23.1193 53.9995 24.5V33.6004L41.8565 28.7429C40.6644 28.266 39.3346 28.266 38.1426 28.7429L25.9995 33.6004V24.5Z" fill="currentColor" fill-opacity="0.25" />
  <path d="M41.8565 28.7429L55.8546 34.3421C58.2158 35.2866 59.4919 37.853 58.8199 40.3057L56.6437 48.2489C54.4178 47.775 52.0604 48.1107 50.0208 49.2561C48.3518 50.1934 46.315 50.1934 44.646 49.2561C41.7606 47.6358 38.2395 47.6358 35.3541 49.2561C33.6851 50.1934 31.6484 50.1934 29.9794 49.2561C27.9394 48.1105 25.5816 47.7749 23.3555 48.2492L21.1792 40.3057C20.5072 37.853 21.7833 35.2866 24.1445 34.3421L38.1426 28.7429M41.8565 28.7429C40.6644 28.266 39.3346 28.266 38.1426 28.7429M41.8565 28.7429L53.9995 33.6004V24.5C53.9995 23.1193 52.8802 22 51.4995 22H45.9995M38.1426 28.7429L25.9995 33.6004V24.5C25.9995 23.1193 27.1188 22 28.4995 22H33.9995M39.9995 28.3853L39.9995 48.0409M33.9995 22H31.9995V17.5C31.9995 16.6716 32.6711 16 33.4995 16H46.4995C47.3279 16 47.9995 16.6716 47.9995 17.5V22H45.9995M33.9995 22H45.9995M16 56.6872C17.8825 57.2089 19.9219 56.9798 21.6667 56C23.9439 54.7212 26.7229 54.7212 29.0001 56C31.2773 57.2788 34.0562 57.2788 36.3334 56C38.6106 54.7212 41.3895 54.7212 43.6667 56C45.9439 57.2788 48.7229 57.2788 51.0001 56C53.2773 54.7212 56.0562 54.7212 58.3334 56C60.0782 56.9798 62.1175 57.2089 64 56.6872M24 61.1604C25.6892 60.855 27.4595 61.1348 29.0001 62C31.2773 63.2788 34.0562 63.2788 36.3334 62C38.6106 60.7212 41.3895 60.7212 43.6667 62C45.9439 63.2788 48.7229 63.2788 51.0001 62C52.5406 61.1348 54.3109 60.855 56 61.1604" stroke="currentColor" stroke-width="4" stroke-linecap="round" stroke-linejoin="round" />
</svg>