<svg width="80" height="80" viewBox="0 0 80 80" fill="none" xmlns="http://www.w3.org/2000/svg">
  <path d="M44.0273 54H34.0273C32.9228 54 32.0273 54.8954 32.0273 56V61.1716C32.0273 62.9826 32.7468 64.7194 34.0273 66C35.3079 67.2806 37.0448 68 38.8558 68H39.1756C40.9847 68 42.7204 67.2845 44.004 66.0096C45.299 64.7234 46.0273 62.9735 46.0273 61.1482V56C46.0273 54.8954 45.1319 54 44.0273 54Z" fill="currentColor" fill-opacity="0.25" />
  <path d="M28 24.3852C28 22.8095 28.3007 21.2484 28.8858 19.7854L29.2296 18.9259C30.9028 14.7429 34.9542 12 39.4594 12C43.4914 12 47.2013 14.2023 49.132 17.7419L50.1971 19.6947C51.3801 21.8635 52 24.2945 52 26.765V29C52 32.937 51.0121 36.8111 49.1269 40.2674L46.1946 45.6433C46.0669 45.8773 46 46.1397 46 46.4064C46 47.2865 45.2865 48 44.4064 48H34C32.8954 48 32 47.1046 32 46L32 44.622C32 41.5687 31.4174 38.5435 30.2834 35.7086L29.4856 33.7139C28.5042 31.2605 28 28.6424 28 26V24.3852Z" fill="currentColor" fill-opacity="0.25" />
  <path d="M44.0273 54H34.0273C32.9228 54 32.0273 54.8954 32.0273 56V61.1716C32.0273 62.9826 32.7468 64.7194 34.0273 66C35.3079 67.2806 37.0448 68 38.8558 68H39.1756C40.9847 68 42.7204 67.2845 44.004 66.0096C45.299 64.7234 46.0273 62.9735 46.0273 61.1482V56C46.0273 54.8954 45.1319 54 44.0273 54Z" stroke="currentColor" stroke-width="4" stroke-linecap="round" stroke-linejoin="round" />
  <path d="M28 24.3852C28 22.8095 28.3007 21.2484 28.8858 19.7854L29.2296 18.9259C30.9028 14.7429 34.9542 12 39.4594 12C43.4914 12 47.2013 14.2023 49.132 17.7419L50.1971 19.6947C51.3801 21.8635 52 24.2945 52 26.765V29C52 32.937 51.0121 36.8111 49.1269 40.2674L46.1946 45.6433C46.0669 45.8773 46 46.1397 46 46.4064C46 47.2865 45.2865 48 44.4064 48H34C32.8954 48 32 47.1046 32 46L32 44.622C32 41.5687 31.4174 38.5435 30.2834 35.7086L29.4856 33.7139C28.5042 31.2605 28 28.6424 28 26V24.3852Z" stroke="currentColor" stroke-width="4" stroke-linecap="round" stroke-linejoin="round" />
</svg>