<svg width="80" height="80" viewBox="0 0 80 80" fill="none" xmlns="http://www.w3.org/2000/svg">
  <path d="M65.4615 43.9998L73 15.9998H17L24.5385 43.9998H65.4615Z" fill="currentColor" fill-opacity="0.25" />
  <path d="M28.4019 61.5C30.0096 60.5718 31.9904 60.5718 33.5981 61.5C35.2058 62.4282 36.1962 64.1436 36.1962 66C36.1962 67.8564 35.2058 69.5718 33.5981 70.5C31.9904 71.4282 30.0096 71.4282 28.4019 70.5C26.7942 69.5718 25.8038 67.8564 25.8038 66C25.8038 64.1436 26.7942 62.4282 28.4019 61.5Z" fill="currentColor" fill-opacity="0.25" />
  <path d="M54.4019 61.5C56.0096 60.5718 57.9904 60.5718 59.5981 61.5C61.2058 62.4282 62.1962 64.1436 62.1962 66C62.1962 67.8564 61.2058 69.5718 59.5981 70.5C57.9904 71.4282 56.0096 71.4282 54.4019 70.5C52.7942 69.5718 51.8038 67.8564 51.8038 66C51.8038 64.1436 52.7942 62.4282 54.4019 61.5Z" fill="currentColor" fill-opacity="0.25" />
  <path d="M7 8H14.8462L26.9616 53H62M73 15.9998L65.4615 43.9998H24.5385L17 15.9998H73ZM25.8038 66C25.8038 64.1436 26.7942 62.4282 28.4019 61.5C30.0096 60.5718 31.9904 60.5718 33.5981 61.5C35.2058 62.4282 36.1962 64.1436 36.1962 66C36.1962 67.8564 35.2058 69.5718 33.5981 70.5C31.9904 71.4282 30.0096 71.4282 28.4019 70.5C26.7942 69.5718 25.8038 67.8564 25.8038 66ZM51.8038 66C51.8038 64.1436 52.7942 62.4282 54.4019 61.5C56.0096 60.5718 57.9904 60.5718 59.5981 61.5C61.2058 62.4282 62.1962 64.1436 62.1962 66C62.1962 67.8564 61.2058 69.5718 59.5981 70.5C57.9904 71.4282 56.0096 71.4282 54.4019 70.5C52.7942 69.5718 51.8038 67.8564 51.8038 66Z" stroke="currentColor" stroke-width="4" stroke-linecap="round" stroke-linejoin="round" />
</svg>