<svg width="80" height="80" viewBox="0 0 80 80" fill="none" xmlns="http://www.w3.org/2000/svg">
  <path d="M36 66C36 67.1046 35.1046 68 34 68H30C28.8954 68 28 67.1046 28 66L28 38C28 36.8954 28.8954 36 30 36H34C35.1046 36 36 36.8954 36 38L36 66Z" fill="currentColor" fill-opacity="0.25" />
  <path d="M20 66C20 67.1046 19.1046 68 18 68H14C12.8954 68 12 67.1046 12 66V50C12 48.8954 12.8954 48 14 48H18C19.1046 48 20 48.8954 20 50V66Z" fill="currentColor" fill-opacity="0.25" />
  <path d="M36 66C36 67.1046 35.1046 68 34 68H30C28.8954 68 28 67.1046 28 66L28 38C28 36.8954 28.8954 36 30 36H34C35.1046 36 36 36.8954 36 38L36 66Z" stroke="currentColor" stroke-width="4" stroke-linecap="round" stroke-linejoin="round" />
  <path d="M20 66C20 67.1046 19.1046 68 18 68H14C12.8954 68 12 67.1046 12 66V50C12 48.8954 12.8954 48 14 48H18C19.1046 48 20 48.8954 20 50V66Z" stroke="currentColor" stroke-width="4" stroke-linecap="round" stroke-linejoin="round" />
</svg>