<svg viewBox="0 0 80 80" fill="none">
  <path d="M46 12H26C22.6863 12 20 14.6863 20 18V62C20 65.3137 22.6863 68 26 68H54C57.3137 68 60 65.3137 60 62V26L46 12Z" fill="currentColor" fill-opacity="0.25" />
  <path d="M27 39C27 36.7909 28.7909 35 31 35H49C51.2091 35 53 36.7909 53 39V57C53 59.2091 51.2091 61 49 61H31C28.7909 61 27 59.2091 27 57V39Z" fill="currentColor" fill-opacity="0.25" />
  <path d="M36 35V61M44 35V61M27 44H53M53 52H27M26 12H46L60 26V62C60 65.3137 57.3137 68 54 68H26C22.6863 68 20 65.3137 20 62V18C20 14.6863 22.6863 12 26 12ZM31 61H49C51.2091 61 53 59.2091 53 57V39C53 36.7909 51.2091 35 49 35H31C28.7909 35 27 36.7909 27 39V57C27 59.2091 28.7909 61 31 61Z" stroke="currentColor" stroke-linecap="round" stroke-linejoin="round" />
</svg>