<svg width="80" height="80" viewBox="0 0 80 80" fill="none" xmlns="http://www.w3.org/2000/svg">
  <path d="M57.0644 10.1474C60.6954 12.2051 63.344 15.6001 64.4342 19.5938C65.0248 21.7573 65.132 24.0011 64.7757 26.1778C66.0682 26.7693 67.261 27.5844 68.2944 28.5987L68.3765 28.6794C70.6943 30.9545 72 34.0658 72 37.3136C72 40.5613 70.6943 43.6727 68.3765 45.9478L68.2944 46.0284C65.9809 48.2993 62.8686 49.5715 59.6269 49.5715H56.8111C56.8012 49.5723 56.7913 49.5727 56.7813 49.5727H23.2203C23.2179 49.5727 23.2154 49.5726 23.2129 49.5726H20.3731C17.1314 49.5726 14.0191 48.3004 11.7056 46.0295L11.6235 45.9488C9.30573 43.6737 8 40.5624 8 37.3146C8 34.0669 9.30573 30.9555 11.6235 28.6804L11.7056 28.5998C13.5867 26.7533 15.9959 25.5671 18.5734 25.1882C18.6316 24.817 18.7097 24.4475 18.8078 24.0813C19.5518 21.3034 21.3869 18.9393 23.9092 17.5099C26.4315 16.0804 29.4348 15.7025 32.2576 16.459C32.9854 16.654 33.686 16.9204 34.3501 17.2511L35.1356 15.9156C37.2774 12.2743 40.7991 9.61635 44.9174 8.53318C48.986 7.46306 53.3056 8.01715 56.9366 10.0749L57.0644 10.1474Z" fill="currentColor" fill-opacity="0.25" />
  <path d="M40.0001 36L40.014 49.8534C40.0159 51.6846 41.9975 52.8287 43.5842 51.9147L55.5886 45L43.5981 51.9387C42.0132 52.8559 42.0132 55.1441 43.5981 56.0613L55.5886 63L43.5842 56.0853C41.9975 55.1713 40.0159 56.3154 40.014 58.1465L40.0001 72L39.9863 58.1466C39.9844 56.3154 38.0028 55.1713 36.4161 56.0853L24.4117 63L36.4022 56.0613C37.9871 55.1441 37.9871 52.8559 36.4022 51.9387L24.4117 45L36.4161 51.9147C38.0028 52.8287 39.9844 51.6846 39.9863 49.8534L40.0001 36Z" fill="currentColor" fill-opacity="0.25" />
  <path d="M35.0145 38.8797L40.0021 43.5284L44.9885 38.8808M29.4943 42.0667L31.0264 48.7105L24.4121 50.7345M50.5095 42.0684L48.9778 48.7105L55.589 50.7335M55.589 57.0517L48.9778 59.0747L50.5536 65.9081M45.1321 69.0383L40.0021 64.2569L34.8709 69.0394M29.4502 65.9098L31.0264 59.0747L24.4121 57.0507M64.4342 19.5938C63.344 15.6001 60.6954 12.2051 57.0644 10.1474L56.9366 10.0749C53.3056 8.01715 48.986 7.46306 44.9174 8.53318C40.7991 9.61635 37.2774 12.2743 35.1356 15.9156L34.3501 17.2511C33.686 16.9204 32.9854 16.654 32.2576 16.459C29.4348 15.7025 26.4315 16.0804 23.9092 17.5099C21.3869 18.9393 19.5518 21.3034 18.8078 24.0813C18.7097 24.4475 18.6316 24.817 18.5734 25.1882C15.9959 25.5671 13.5867 26.7533 11.7056 28.5998L11.6235 28.6804C9.30573 30.9555 8 34.0669 8 37.3146C8 40.5624 9.30573 43.6737 11.6235 45.9488L11.7056 46.0295C14.0191 48.3004 17.1314 49.5726 20.3731 49.5726H23.2129C23.2154 49.5726 23.2179 49.5727 23.2203 49.5727H56.7813C56.7913 49.5727 56.8012 49.5723 56.8111 49.5715H59.6269C62.8686 49.5715 65.9809 48.2993 68.2944 46.0284L68.3765 45.9478C70.6943 43.6727 72 40.5613 72 37.3136C72 34.0658 70.6943 30.9545 68.3765 28.6794L68.2944 28.5987C67.261 27.5844 66.0682 26.7693 64.7757 26.1778C65.132 24.0011 65.0248 21.7573 64.4342 19.5938ZM40.0001 36L40.014 49.8534C40.0159 51.6846 41.9975 52.8287 43.5842 51.9147L55.5886 45L43.5981 51.9387C42.0132 52.8559 42.0132 55.1441 43.5981 56.0613L55.5886 63L43.5842 56.0853C41.9975 55.1713 40.0159 56.3154 40.014 58.1465L40.0001 72L39.9863 58.1466C39.9844 56.3154 38.0028 55.1713 36.4161 56.0853L24.4117 63L36.4022 56.0613C37.9871 55.1441 37.9871 52.8559 36.4022 51.9387L24.4117 45L36.4161 51.9147C38.0028 52.8287 39.9844 51.6846 39.9863 49.8534L40.0001 36Z" stroke="currentColor" stroke-width="4" stroke-linecap="round" stroke-linejoin="round" />
</svg>