<svg width="80" height="80" viewBox="0 0 80 80" fill="none" xmlns="http://www.w3.org/2000/svg">
  <path d="M38.144 12.6219C38.8158 10.949 41.1841 10.949 41.8559 12.6219L47.8081 27.4441C48.0941 28.1565 48.7628 28.6422 49.5287 28.6942L65.4647 29.7747C67.2634 29.8967 67.9952 32.149 66.6118 33.3049L54.3544 43.5461C53.7652 44.0383 53.5099 44.8243 53.6972 45.5688L57.594 61.0588C58.0338 62.8071 56.1178 64.1992 54.591 63.2406L41.0634 54.7478C40.4132 54.3396 39.5867 54.3396 38.9365 54.7478L25.4089 63.2406C23.882 64.1992 21.9661 62.8071 22.4059 61.0588L26.3027 45.5688C26.49 44.8243 26.2346 44.0383 25.6455 43.5461L13.3881 33.3049C12.0047 32.149 12.7365 29.8967 14.5352 29.7747L30.4712 28.6942C31.2371 28.6422 31.9057 28.1565 32.1918 27.4441L38.144 12.6219Z" fill="currentColor" fill-opacity="0.25" stroke="currentColor" stroke-width="4" stroke-linecap="round" stroke-linejoin="round" />
</svg>