<svg width="80" height="80" viewBox="0 0 80 80" fill="none" xmlns="http://www.w3.org/2000/svg">
  <path d="M29.4816 40.1314L40.1967 47.8L50.9119 40.1314L53.0661 53.1307L66.0654 55.2849L58.3967 66L51.2833 66.0001C51.2833 66.0001 51.2833 66.0001 51.2833 66.0001C51.2833 63.0598 50.1153 60.2398 48.0361 58.1606C45.957 56.0815 43.1371 54.9135 40.1968 54.9135C37.2564 54.9135 34.4365 56.0815 32.3574 58.1606C30.2782 60.2398 29.1102 63.0597 29.1102 66C29.1102 66 29.1102 66 29.1102 66L21.9967 66.0001L14.3281 55.2849L27.3274 53.1307L29.4816 40.1314Z" fill="currentColor" fill-opacity="0.25" />
  <path d="M40.1968 54.9135C37.2564 54.9135 34.4365 56.0815 32.3574 58.1606C30.2782 60.2398 29.1102 63.0597 29.1102 66C29.1102 66 29.1102 66 29.1102 66L51.2833 66.0001C51.2833 66.0001 51.2833 66.0001 51.2833 66.0001C51.2833 63.0598 50.1153 60.2398 48.0361 58.1606C45.957 56.0815 43.1371 54.9135 40.1968 54.9135Z" fill="currentColor" fill-opacity="0.25" />
  <path d="M47.0845 20.0001H32.9155C32.0965 20.0001 31.7977 18.9214 32.5 18.5001L38.7138 14.7718C39.5055 14.2968 40.4945 14.2968 41.2862 14.7718L47.5 18.5001C48.2023 18.9214 47.9035 20.0001 47.0845 20.0001Z" fill="currentColor" fill-opacity="0.25" />
  <path d="M51.2833 66.0001L58.3967 66L66.0654 55.2849L53.0661 53.1307L50.9119 40.1314L40.1967 47.8L29.4816 40.1314L27.3274 53.1307L14.3281 55.2849L21.9967 66.0001L29.1102 66M51.2833 66.0001C51.2833 66.0001 51.2833 66.0001 51.2833 66.0001ZM51.2833 66.0001C51.2833 63.0598 50.1153 60.2398 48.0361 58.1606C45.957 56.0815 43.1371 54.9135 40.1968 54.9135C37.2564 54.9135 34.4365 56.0815 32.3574 58.1606C30.2782 60.2398 29.1102 63.0597 29.1102 66M51.2833 66.0001L29.1102 66M29.1102 66C29.1102 66 29.1102 66 29.1102 66ZM8 66.1314H72M39.9987 20.0001V38.0003M32.9155 20.0001H47.0845C47.9036 20.0001 48.2023 18.9214 47.5 18.5001L41.2862 14.7718C40.4945 14.2968 39.5055 14.2968 38.7138 14.7718L32.5 18.5001C31.7977 18.9214 32.0965 20.0001 32.9155 20.0001Z" stroke="currentColor" stroke-width="4" stroke-linecap="round" stroke-linejoin="round" />
</svg>