<svg viewBox="0 0 80 80" fill="none">
  <path d="M51.3136 16.6865C44.0696 13.6859 35.9303 13.6859 28.6862 16.6865C21.4422 19.6871 15.6868 25.4424 12.6862 32.6865C9.68565 39.9305 9.68565 48.0698 12.6862 55.3139C14.3935 59.4357 16.9927 63.0755 20.2505 66.0002H59.7494C63.0072 63.0755 65.6063 59.4357 67.3136 55.3139C70.3142 48.0698 70.3142 39.9305 67.3136 32.6865C64.3131 25.4424 58.5577 19.6871 51.3136 16.6865Z" fill="currentColor" fill-opacity="0.25" />
  <path d="M19.9204 32.4105L19.9232 32.4056L21.6555 33.4052C21.6544 33.4071 21.6533 33.409 21.6522 33.4109L19.9204 32.4105Z" fill="currentColor" fill-opacity="0.25" />
  <path d="M16.8269 44.003L16.8269 43.9974L18.8269 43.9969C18.8269 43.9991 18.8269 44.0013 18.8269 44.0035L16.8269 44.003Z" fill="currentColor" fill-opacity="0.25" />
  <path d="M19.9424 55.5837L19.9396 55.5788L21.6714 54.5783C21.6725 54.5803 21.6736 54.5822 21.6747 54.5841L19.9424 55.5837Z" fill="currentColor" fill-opacity="0.25" />
  <path d="M60.0575 55.5837L58.3252 54.5841C58.3263 54.5822 58.3274 54.5803 58.3285 54.5783L60.0603 55.5788L60.0575 55.5837Z" fill="currentColor" fill-opacity="0.25" />
  <path d="M63.1731 43.9974L63.173 44.003L61.173 44.0035C61.173 44.0013 61.1731 43.9991 61.1731 43.9969L63.1731 43.9974Z" fill="currentColor" fill-opacity="0.25" />
  <path d="M60.0767 32.4056L60.0795 32.4105L58.3477 33.4109C58.3466 33.409 58.3455 33.4071 58.3444 33.4052L60.0767 32.4056Z" fill="currentColor" fill-opacity="0.25" />
  <path d="M51.5937 23.9135L51.5986 23.9163L50.599 25.6487C50.5971 25.6476 50.5952 25.6465 50.5933 25.6453L51.5937 23.9135Z" fill="currentColor" fill-opacity="0.25" />
  <path d="M40.0028 20.8049H39.9972L39.9966 22.8049C39.9988 22.8049 40.0011 22.8049 40.0033 22.8049L40.0028 20.8049Z" fill="currentColor" fill-opacity="0.25" />
  <path d="M29.4066 25.6453L28.4062 23.9136L28.4013 23.9164L29.4009 25.6487C29.4028 25.6476 29.4047 25.6465 29.4066 25.6453Z" fill="currentColor" fill-opacity="0.25" />
  <path d="M42.598 45.5002C40.9903 44.572 39.0096 44.572 37.4019 45.5002C35.7942 46.4284 34.8038 48.1438 34.8038 50.0002C34.8038 51.8566 35.7942 53.572 37.4019 54.5002C39.0096 55.4284 40.9903 55.4284 42.598 54.5002C44.2057 53.572 45.1961 51.8566 45.1961 50.0002C45.1961 48.1438 44.2057 46.4284 42.598 45.5002Z" fill="currentColor" fill-opacity="0.25" />
  <path d="M39.9999 44.804V32.0002M28.6862 16.6865C35.9303 13.6859 44.0696 13.6859 51.3136 16.6865C58.5577 19.6871 64.3131 25.4424 67.3136 32.6865C70.3142 39.9305 70.3142 48.0698 67.3136 55.3139C65.6063 59.4357 63.0072 63.0755 59.7494 66.0002H20.2505C16.9927 63.0755 14.3935 59.4357 12.6862 55.3139C9.68565 48.0698 9.68565 39.9305 12.6862 32.6865C15.6868 25.4424 21.4422 19.6871 28.6862 16.6865ZM19.9232 32.4056L19.9204 32.4105L21.6522 33.4109C21.6533 33.409 21.6544 33.4071 21.6555 33.4052L19.9232 32.4056ZM16.8269 43.9974L16.8269 44.003L18.8269 44.0035C18.8269 44.0013 18.8269 43.9991 18.8269 43.9969L16.8269 43.9974ZM19.9396 55.5788L19.9424 55.5837L21.6747 54.5841C21.6736 54.5822 21.6725 54.5803 21.6714 54.5783L19.9396 55.5788ZM60.0575 55.5837L58.3252 54.5841C58.3263 54.5822 58.3274 54.5803 58.3285 54.5783L60.0603 55.5788L60.0575 55.5837ZM63.173 44.003L63.1731 43.9974L61.1731 43.9969C61.1731 43.9991 61.173 44.0013 61.173 44.0035L63.173 44.003ZM60.0795 32.4105L60.0767 32.4056L58.3444 33.4052C58.3455 33.4071 58.3466 33.409 58.3477 33.4109L60.0795 32.4105ZM51.5986 23.9163L51.5937 23.9135L50.5933 25.6453C50.5952 25.6465 50.5971 25.6476 50.599 25.6487L51.5986 23.9163ZM40.0028 20.8049H39.9972L39.9966 22.8049C39.9988 22.8049 40.0011 22.8049 40.0033 22.8049L40.0028 20.8049ZM28.4062 23.9136L29.4066 25.6453C29.4047 25.6465 29.4028 25.6476 29.4009 25.6487L28.4013 23.9164L28.4062 23.9136ZM37.4019 45.5002C39.0096 44.572 40.9903 44.572 42.598 45.5002C44.2057 46.4284 45.1961 48.1438 45.1961 50.0002C45.1961 51.8566 44.2057 53.572 42.598 54.5002C40.9903 55.4284 39.0096 55.4284 37.4019 54.5002C35.7942 53.572 34.8038 51.8566 34.8038 50.0002C34.8038 48.1438 35.7942 46.4284 37.4019 45.5002Z" stroke="currentColor" stroke-linecap="round" stroke-linejoin="round" />
</svg>