<svg width="80" height="80" viewBox="0 0 80 80" fill="none" xmlns="http://www.w3.org/2000/svg">
  <path d="M70.9014 39.3727C71.7338 38.6466 71.8233 37.3796 71.0592 36.582C69.7398 35.2046 68.3265 33.9131 66.8274 32.7176C61.789 28.6996 55.91 25.8684 49.6271 24.4344C43.3443 23.0004 36.8191 23.0004 30.5362 24.4344C24.2534 25.8684 18.3744 28.6996 13.3359 32.7176C11.7719 33.9649 10.3013 35.3166 8.93331 36.7613C8.17385 37.5634 8.2707 38.8298 9.10728 39.5511L28.361 56.1508C29.1976 56.8721 30.4521 56.765 31.2892 56.0443C32.2406 55.2251 33.3043 54.5407 34.4509 54.0134C36.205 53.2066 38.112 52.7862 40.0427 52.7806C41.9735 52.775 43.8829 53.1844 45.6416 53.9811C46.7912 54.5018 47.8589 55.18 48.815 55.9937C49.6562 56.7096 50.9113 56.8094 51.7437 56.0833L70.9014 39.3727Z" fill="currentColor" fill-opacity="0.25" />
  <path d="M16.8755 36.7455C16.8773 36.7442 16.8791 36.7429 16.8809 36.7415L18.0567 38.3594C18.0548 38.3609 18.0528 38.3623 18.0509 38.3638L16.8755 36.7455Z" fill="currentColor" fill-opacity="0.25" />
  <path d="M62.5844 36.353L61.4091 37.9712C61.4071 37.9699 61.4052 37.9685 61.4032 37.9671L62.5791 36.3492C62.5809 36.3504 62.5826 36.3517 62.5844 36.353Z" fill="currentColor" fill-opacity="0.25" />
  <path d="M51.6374 30.9034C51.6395 30.904 51.6416 30.9047 51.6437 30.9054L51.0259 32.8077C51.0236 32.8069 51.0213 32.8062 51.019 32.8055L51.6374 30.9034Z" fill="currentColor" fill-opacity="0.25" />
  <path d="M39.5907 29.1231C39.5885 29.1232 39.5863 29.1232 39.5841 29.1232L39.5838 31.1233C39.5862 31.1233 39.5886 31.1233 39.591 31.1232L39.5907 29.1231Z" fill="currentColor" fill-opacity="0.25" />
  <path d="M28.2346 33.048L27.6162 31.1459C27.6141 31.1466 27.612 31.1473 27.6099 31.148L28.2277 33.0503C28.23 33.0495 28.2323 33.0488 28.2346 33.048Z" fill="currentColor" fill-opacity="0.25" />
  <path d="M39.5897 37.0001V47.0001M66.8274 32.7176C68.3265 33.9131 69.7398 35.2046 71.0592 36.582C71.8233 37.3796 71.7338 38.6466 70.9014 39.3727L51.7437 56.0833C50.9113 56.8094 49.6562 56.7096 48.815 55.9937C47.8589 55.18 46.7912 54.5018 45.6416 53.9811C43.8829 53.1844 41.9735 52.775 40.0427 52.7806C38.112 52.7862 36.205 53.2066 34.4509 54.0134C33.3043 54.5407 32.2406 55.2251 31.2892 56.0443C30.4521 56.765 29.1976 56.8721 28.361 56.1508L9.10728 39.5511C8.2707 38.8298 8.17385 37.5634 8.93331 36.7613C10.3013 35.3166 11.7719 33.9649 13.3359 32.7176C18.3744 28.6996 24.2534 25.8684 30.5362 24.4344C36.8191 23.0004 43.3443 23.0004 49.6271 24.4344C55.91 25.8684 61.789 28.6996 66.8274 32.7176ZM16.8809 36.7415C16.8791 36.7429 16.8773 36.7442 16.8755 36.7455L18.0509 38.3638C18.0528 38.3623 18.0548 38.3609 18.0567 38.3594L16.8809 36.7415ZM62.5844 36.353L61.4091 37.9712C61.4071 37.9699 61.4052 37.9685 61.4032 37.9671L62.5791 36.3492C62.5809 36.3504 62.5826 36.3517 62.5844 36.353ZM51.6437 30.9054C51.6416 30.9047 51.6395 30.904 51.6374 30.9034L51.019 32.8055C51.0213 32.8062 51.0236 32.8069 51.0259 32.8077L51.6437 30.9054ZM39.5907 29.1231C39.5885 29.1232 39.5863 29.1232 39.5841 29.1232L39.5838 31.1233C39.5862 31.1233 39.5886 31.1233 39.591 31.1232L39.5907 29.1231ZM27.6162 31.1459L28.2346 33.048C28.2323 33.0488 28.23 33.0495 28.2277 33.0503L27.6099 31.148C27.612 31.1473 27.6141 31.1466 27.6162 31.1459Z" stroke="currentColor" stroke-width="4" stroke-linecap="round" stroke-linejoin="round" />
</svg>