<svg width="80" height="80" viewBox="0 0 80 80" fill="none" xmlns="http://www.w3.org/2000/svg">
  <path d="M28.6862 12.6865C35.9303 9.68589 44.0696 9.68589 51.3136 12.6865C58.5577 15.6871 64.3131 21.4424 67.3136 28.6865C70.3142 35.9305 70.3142 44.0698 67.3136 51.3139C64.3131 58.5579 58.5577 64.3133 51.3136 67.3139C44.0696 70.3145 35.9303 70.3145 28.6862 67.3139C21.4422 64.3133 15.6868 58.5579 12.6862 51.3139C9.68565 44.0698 9.68565 35.9305 12.6862 28.6865C15.6868 21.4424 21.4422 15.6871 28.6862 12.6865Z" fill="currentColor" fill-opacity="0.25" />
  <path d="M23.2391 24.5167C27.1149 28.9914 30.9999 34.0803 30.9999 40.0001C30.9999 45.92 27.1149 51.0089 23.2391 55.4836C21.7291 57.2269 20.4871 59.2104 19.5736 61.3733C22.1927 63.8765 25.2744 65.9006 28.6862 67.3139C35.9303 70.3145 44.0696 70.3145 51.3136 67.3139C54.7254 65.9007 57.8069 63.8767 60.4259 61.3737C59.5125 59.2108 58.2706 57.2274 56.7608 55.4841C52.8851 51.0092 48.9999 45.9201 48.9999 40.0001C48.9999 34.0802 52.8851 28.9911 56.7608 24.5161C58.2705 22.773 59.5124 20.7897 60.4258 18.6269C57.8068 16.124 54.7253 14.0996 51.3136 12.6865C44.0696 9.68589 35.9303 9.68589 28.6862 12.6865C25.2744 14.0997 22.1928 16.1242 19.5738 18.6273C20.4872 20.7901 21.7292 22.7735 23.2391 24.5167Z" fill="currentColor" fill-opacity="0.25" />
  <path d="M28.6862 12.6865C21.4422 15.6871 15.6868 21.4424 12.6862 28.6865C9.68565 35.9305 9.68565 44.0698 12.6862 51.3139C15.6868 58.5579 21.4422 64.3133 28.6862 67.3139M28.6862 12.6865C35.9303 9.68589 44.0696 9.68589 51.3136 12.6865M28.6862 12.6865C25.2744 14.0997 22.1928 16.1242 19.5738 18.6273C20.4872 20.7901 21.7292 22.7735 23.2391 24.5167C27.1149 28.9914 30.9999 34.0803 30.9999 40.0001C30.9999 45.92 27.1149 51.0089 23.2391 55.4836C21.7291 57.2269 20.4871 59.2104 19.5736 61.3733C22.1927 63.8765 25.2744 65.9006 28.6862 67.3139M28.6862 67.3139C35.9303 70.3145 44.0696 70.3145 51.3136 67.3139M51.3136 67.3139C58.5577 64.3133 64.3131 58.5579 67.3136 51.3139C70.3142 44.0698 70.3142 35.9305 67.3136 28.6865C64.3131 21.4424 58.5577 15.6871 51.3136 12.6865M51.3136 67.3139C54.7254 65.9007 57.8069 63.8767 60.4259 61.3737C59.5125 59.2108 58.2706 57.2274 56.7608 55.4841C52.8851 51.0092 48.9999 45.9201 48.9999 40.0001C48.9999 34.0802 52.8851 28.9911 56.7608 24.5161C58.2705 22.773 59.5124 20.7897 60.4258 18.6269C57.8068 16.124 54.7253 14.0996 51.3136 12.6865" stroke="currentColor" stroke-width="4" stroke-linecap="round" stroke-linejoin="round" />
</svg>