<svg width="80" height="80" viewBox="0 0 80 80" fill="none" xmlns="http://www.w3.org/2000/svg">
  <path d="M8 24C8 21.7909 9.79086 20 12 20H50C52.2091 20 54 21.7909 54 24V56C54 58.2091 52.2091 60 50 60H12C9.79086 60 8 58.2091 8 56V24Z" fill="currentColor" fill-opacity="0.25" />
  <path d="M54 48.5789L69.2068 55.1487C70.5272 55.7191 72 54.7511 72 53.3127V27.3982C72 25.9598 70.5272 24.9917 69.2068 25.5622L54 32.132V48.5789Z" fill="currentColor" fill-opacity="0.25" />
  <path d="M8 24C8 21.7909 9.79086 20 12 20H50C52.2091 20 54 21.7909 54 24V56C54 58.2091 52.2091 60 50 60H12C9.79086 60 8 58.2091 8 56V24Z" stroke="currentColor" stroke-width="4" stroke-linecap="round" stroke-linejoin="round" />
  <path d="M54 48.5789L69.2068 55.1487C70.5272 55.7191 72 54.7511 72 53.3127V27.3982C72 25.9598 70.5272 24.9917 69.2068 25.5622L54 32.132V48.5789Z" stroke="currentColor" stroke-width="4" stroke-linecap="round" stroke-linejoin="round" />
</svg>