<svg width="80" height="80" viewBox="0 0 80 80" fill="none" xmlns="http://www.w3.org/2000/svg">
  <path d="M34.9517 45.6001L32.392 54.3722C32.1543 55.1868 31.6636 55.9048 30.991 56.4222L26.5614 59.8296C24.8103 61.1765 24.4828 63.6879 25.8297 65.439C27.1766 67.19 29.688 67.5175 31.439 66.1706L35.8687 62.7632C37.8866 61.2109 39.3586 59.0571 40.0717 56.6131L40.9069 53.7511L38.0882 49.805C36.6968 48.6621 35.6312 47.2123 34.9517 45.6001Z" fill="currentColor" fill-opacity="0.25" />
  <path d="M36.6218 26.7123C37.9853 25.7385 39.619 25.215 41.2945 25.215C44.5525 25.215 47.4884 27.1812 48.7289 30.1937L50.1198 33.5718C50.4688 34.4194 51.0984 35.1214 51.9031 35.5603L54.9154 37.2034C56.8548 38.2613 57.5695 40.691 56.5116 42.6304C55.4538 44.5698 53.024 45.2844 51.0846 44.2266L48.0723 42.5835C47.3384 42.1832 46.6532 41.71 46.0253 41.1738L45.218 46.023L48.3723 50.439C49.2474 51.6641 49.8841 53.043 50.2493 54.5037L52.3806 63.03C52.9164 65.1732 51.6133 67.3449 49.4701 67.8806C47.3269 68.4164 45.1552 67.1133 44.6194 64.9701L42.4881 56.4438C42.3664 55.9569 42.1541 55.4973 41.8624 55.0889L38.0882 49.805C35.5839 47.748 34.1349 44.6967 34.0934 41.4934L32.9866 43.4611C31.9035 45.3865 29.4647 46.0694 27.5392 44.9863C25.6138 43.9033 24.9309 41.4644 26.014 39.539L29.6406 33.0917C30.5034 31.5578 31.693 30.2325 33.1252 29.2096L36.6218 26.7123Z" fill="currentColor" fill-opacity="0.25" />
  <path d="M40.6546 23.8705C42.1368 24.5843 43.8633 24.5843 45.3455 23.8705C46.8278 23.1567 47.9043 21.8068 48.2703 20.203C48.6364 18.5991 48.2522 16.9158 47.2265 15.6296C46.2008 14.3434 44.6452 13.5942 43.0001 13.5942C41.3549 13.5942 39.7993 14.3434 38.7736 15.6296C37.7479 16.9158 37.3637 18.5991 37.7298 20.203C38.0958 21.8068 39.1724 23.1567 40.6546 23.8705Z" fill="currentColor" fill-opacity="0.25" />
  <path d="M38.0882 49.805L40.9069 53.7511L40.0717 56.6131C39.3586 59.0571 37.8866 61.2109 35.8687 62.7632L31.439 66.1706C29.688 67.5175 27.1766 67.19 25.8297 65.439C24.4828 63.6879 24.8103 61.1765 26.5614 59.8296L30.991 56.4222C31.6636 55.9048 32.1543 55.1868 32.392 54.3722L34.9517 45.6001C35.6312 47.2123 36.6968 48.6621 38.0882 49.805ZM38.0882 49.805L41.8624 55.0889C42.1541 55.4973 42.3664 55.9569 42.4881 56.4438L44.6194 64.9701C45.1552 67.1133 47.3269 68.4164 49.4701 67.8806C51.6133 67.3449 52.9164 65.1732 52.3806 63.03L50.2493 54.5037C49.8841 53.043 49.2474 51.6641 48.3723 50.439L45.218 46.023L46.0253 41.1738C46.6532 41.71 47.3384 42.1832 48.0723 42.5835L51.0846 44.2266C53.024 45.2844 55.4538 44.5698 56.5116 42.6304C57.5695 40.691 56.8548 38.2613 54.9154 37.2034L51.9031 35.5603C51.0984 35.1214 50.4688 34.4194 50.1198 33.5718L48.7289 30.1937C47.4884 27.1812 44.5525 25.215 41.2945 25.215C39.619 25.215 37.9853 25.7385 36.6218 26.7123L33.1252 29.2096C31.693 30.2325 30.5034 31.5578 29.6406 33.0917L26.014 39.539C24.9309 41.4644 25.6138 43.9033 27.5392 44.9863C29.4647 46.0694 31.9035 45.3865 32.9866 43.4611L34.0934 41.4934C34.1349 44.6967 35.5839 47.748 38.0882 49.805ZM37.7298 20.203C38.0958 21.8068 39.1724 23.1567 40.6546 23.8705C42.1368 24.5843 43.8633 24.5843 45.3455 23.8705C46.8278 23.1567 47.9043 21.8068 48.2703 20.203C48.6364 18.5991 48.2522 16.9158 47.2265 15.6296C46.2008 14.3434 44.6452 13.5942 43.0001 13.5942C41.3549 13.5942 39.7993 14.3434 38.7736 15.6296C37.7479 16.9158 37.3637 18.5991 37.7298 20.203Z" stroke="currentColor" stroke-width="4" stroke-linecap="round" stroke-linejoin="round" />
</svg>