<svg width="80" height="80" viewBox="0 0 80 80" fill="none" xmlns="http://www.w3.org/2000/svg">
  <path d="M4 23.0728C7.07107 23.0728 10.1421 21.9012 12.4853 19.5581L15 17.0434C15.5523 16.4911 16.4477 16.4911 17 17.0434L19.5147 19.5581C24.201 24.2444 31.799 24.2444 36.4853 19.5581L39 17.0434C39.5523 16.4911 40.4477 16.4911 41 17.0434L43.5147 19.5581C48.201 24.2444 55.799 24.2444 60.4853 19.5581L63 17.0434C63.5523 16.4911 64.4477 16.4911 65 17.0434L67.5147 19.5581C69.8579 21.9012 72.9289 23.0728 76 23.0728M4 36.8013C7.07107 36.8013 10.1421 35.6297 12.4853 33.2866L15 30.7719C15.5523 30.2196 16.4477 30.2196 17 30.7719L19.5147 33.2866C24.201 37.9729 31.799 37.9729 36.4853 33.2866L39 30.7719C39.5523 30.2196 40.4477 30.2196 41 30.7719L43.5147 33.2866C48.201 37.9729 55.799 37.9729 60.4853 33.2866L63 30.7719C63.5523 30.2196 64.4477 30.2196 65 30.7719L67.5147 33.2866C69.8579 35.6297 72.9289 36.8013 76 36.8013M4 50.5298C7.07107 50.5298 10.1421 49.3583 12.4853 47.0151L15 44.5004C15.5523 43.9481 16.4477 43.9481 17 44.5004L19.5147 47.0151C24.201 51.7014 31.799 51.7014 36.4853 47.0151L39 44.5004C39.5523 43.9481 40.4477 43.9481 41 44.5004L43.5147 47.0151C48.201 51.7014 55.799 51.7014 60.4853 47.0151L63 44.5004C63.5523 43.9481 64.4477 43.9481 65 44.5004L67.5147 47.0151C69.8579 49.3583 72.9289 50.5298 76 50.5298M4 64.2584C7.07107 64.2584 10.1421 63.0868 12.4853 60.7436L15 58.2289C15.5523 57.6766 16.4477 57.6766 17 58.2289L19.5147 60.7436C24.201 65.4299 31.799 65.4299 36.4853 60.7436L39 58.2289C39.5523 57.6766 40.4477 57.6766 41 58.2289L43.5147 60.7436C48.201 65.4299 55.799 65.4299 60.4853 60.7436L63 58.2289C63.5523 57.6766 64.4477 57.6766 65 58.2289L67.5147 60.7436C69.8579 63.0868 72.9289 64.2584 76 64.2584" stroke="currentColor" stroke-width="4" stroke-linecap="round" stroke-linejoin="round" />
</svg>