<svg viewBox="0 0 80 80" fill="none">
  <path fill-rule="evenodd" clip-rule="evenodd" d="M53.8111 33.5507L49.6634 39.9583H53.5505C56.8642 39.9583 59.5505 42.6446 59.5505 45.9583L59.5505 57.9895C59.5505 60.1986 57.7597 61.9895 55.5505 61.9895C53.3414 61.9895 51.5505 60.1986 51.5505 57.9895L51.5505 47.9583L47.2541 47.9583C46.2441 44.647 44.012 41.7804 40.9282 40C39.5482 39.2032 38.065 38.6629 36.5452 38.3791L42.391 29.337L38.4103 27.3483L32.3662 32.5691C30.6944 34.0132 28.1685 33.8286 26.7244 32.1568C25.2803 30.485 25.4649 27.959 27.1367 26.515L34.1896 20.4228C36.0223 18.8399 38.6268 18.5137 40.7932 19.596L51.4558 24.9228C54.656 26.5216 55.755 30.5477 53.8111 33.5507Z" fill="currentColor" fill-opacity="0.15" />
  <path d="M49.6634 39.9583L47.9845 38.8715L45.9863 41.9583H49.6634V39.9583ZM53.8111 33.5507L52.1322 32.4639L53.8111 33.5507ZM53.5505 39.9583V41.9583H53.5505L53.5505 39.9583ZM59.5505 45.9583L57.5505 45.9583V45.9583L59.5505 45.9583ZM59.5505 57.9895L57.5505 57.9895L59.5505 57.9895ZM55.5505 61.9895V59.9895H55.5505L55.5505 61.9895ZM51.5505 57.9895L49.5505 57.9895L51.5505 57.9895ZM51.5505 47.9583L53.5505 47.9583L53.5505 45.9583H51.5505V47.9583ZM47.2541 47.9583L45.3412 48.5418L45.7732 49.9583H47.2541V47.9583ZM40.9282 40L39.9282 41.732H39.9282L40.9282 40ZM36.5452 38.3791L34.8656 37.2933L33.2465 39.7977L36.1781 40.3451L36.5452 38.3791ZM42.391 29.337L44.0706 30.4229L45.2837 28.5465L43.2849 27.5479L42.391 29.337ZM38.4103 27.3483L39.3041 25.5592L38.1117 24.9635L37.103 25.8348L38.4103 27.3483ZM32.3662 32.5691L33.6736 34.0827H33.6736L32.3662 32.5691ZM26.7244 32.1568L25.2108 33.4641L26.7244 32.1568ZM27.1367 26.515L25.8294 25.0014L25.8294 25.0014L27.1367 26.515ZM34.1896 20.4228L35.497 21.9364V21.9364L34.1896 20.4228ZM40.7932 19.596L39.8994 21.3852V21.3852L40.7932 19.596ZM51.4558 24.9228L50.562 26.712L51.4558 24.9228ZM51.3424 41.0451L55.4901 34.6375L52.1322 32.4639L47.9845 38.8715L51.3424 41.0451ZM53.5505 37.9583H49.6634V41.9583H53.5505V37.9583ZM61.5505 45.9583C61.5505 41.54 57.9688 37.9583 53.5505 37.9583L53.5505 41.9583C55.7597 41.9583 57.5505 43.7492 57.5505 45.9583L61.5505 45.9583ZM61.5505 57.9895L61.5505 45.9583L57.5505 45.9583L57.5505 57.9895L61.5505 57.9895ZM55.5505 63.9895C58.8643 63.9895 61.5505 61.3032 61.5505 57.9895L57.5505 57.9895C57.5505 59.0941 56.6551 59.9895 55.5505 59.9895V63.9895ZM49.5505 57.9895C49.5505 61.3032 52.2368 63.9895 55.5505 63.9895L55.5505 59.9895C54.446 59.9895 53.5505 59.0941 53.5505 57.9895L49.5505 57.9895ZM49.5505 47.9583L49.5505 57.9895L53.5505 57.9895L53.5505 47.9583L49.5505 47.9583ZM47.2541 49.9583L51.5505 49.9583V45.9583L47.2541 45.9583V49.9583ZM39.9282 41.732C42.5666 43.2553 44.4767 45.7078 45.3412 48.5418L49.1671 47.3748C48.0114 43.5861 45.4574 40.3055 41.9282 38.268L39.9282 41.732ZM36.1781 40.3451C37.4782 40.5879 38.747 41.0501 39.9282 41.732L41.9282 38.268C40.3494 37.3564 38.6518 36.7379 36.9123 36.4131L36.1781 40.3451ZM40.7115 28.2512L34.8656 37.2933L38.2247 39.465L44.0706 30.4229L40.7115 28.2512ZM37.5165 29.1375L41.4972 31.1262L43.2849 27.5479L39.3041 25.5592L37.5165 29.1375ZM33.6736 34.0827L39.7177 28.8619L37.103 25.8348L31.0588 31.0556L33.6736 34.0827ZM25.2108 33.4641C27.377 35.9718 31.1658 36.2488 33.6736 34.0827L31.0588 31.0556C30.2229 31.7776 28.96 31.6853 28.2379 30.8494L25.2108 33.4641ZM25.8294 25.0014C23.3217 27.1675 23.0447 30.9564 25.2108 33.4641L28.2379 30.8494C27.5159 30.0135 27.6082 28.7505 28.4441 28.0285L25.8294 25.0014ZM32.8823 18.9093L25.8294 25.0014L28.4441 28.0285L35.497 21.9364L32.8823 18.9093ZM41.687 17.8068C38.7986 16.3638 35.3258 16.7986 32.8823 18.9093L35.497 21.9364C36.7187 20.8811 38.4551 20.6636 39.8994 21.3852L41.687 17.8068ZM52.3496 23.1337L41.687 17.8068L39.8994 21.3852L50.562 26.712L52.3496 23.1337ZM55.4901 34.6375C58.082 30.6334 56.6165 25.2653 52.3496 23.1337L50.562 26.712C52.6954 27.7778 53.4281 30.4619 52.1322 32.4639L55.4901 34.6375Z" fill="currentColor" />
  <path d="M27.0718 40C31.359 37.5248 36.641 37.5248 40.9282 40C45.2154 42.4752 47.8564 47.0496 47.8564 52C47.8564 56.9504 45.2154 61.5248 40.9282 64C36.641 66.4752 31.359 66.4752 27.0718 64C22.7846 61.5248 20.1436 56.9504 20.1436 52C20.1436 47.0496 22.7846 42.4752 27.0718 40Z" fill="currentColor" fill-opacity="0.15" stroke="currentColor" stroke-width="4" stroke-linecap="round" stroke-linejoin="round" />
  <path d="M52.2636 24.6822C53.9928 25.515 56.0072 25.515 57.7364 24.6822C59.4656 23.8495 60.7216 22.2746 61.1487 20.4034C61.5757 18.5322 61.1275 16.5684 59.9308 15.0678C58.7342 13.5672 56.9193 12.6932 55 12.6932C53.0807 12.6932 51.2658 13.5672 50.0692 15.0678C48.8725 16.5684 48.4243 18.5322 48.8513 20.4034C49.2784 22.2746 50.5344 23.8495 52.2636 24.6822Z" fill="currentColor" fill-opacity="0.15" stroke="currentColor" stroke-width="4" stroke-linecap="round" stroke-linejoin="round" />
</svg>