<svg viewBox="0 0 80 80" fill="none">
  <path d="M10 12C10 10.8954 10.8954 10 12 10H68C69.1046 10 70 10.8954 70 12V68C70 69.1046 69.1046 70 68 70H12C10.8954 70 10 69.1046 10 68V12Z" fill="currentColor" fill-opacity="0.25" />
  <path d="M40 16L42.6871 16.1509L45.3405 16.6017L47.9267 17.3468L50.4132 18.3767L52.7688 19.6786L54.9638 21.236L56.9706 23.0294L58.764 25.0362L60.3214 27.2312L61.6233 29.5868L62.6532 32.0733L63.3983 34.6595L63.8491 37.3129L64 40L63.8491 42.6871L63.3983 45.3405L62.6532 47.9267L61.6233 50.4132L60.3214 52.7688L58.764 54.9638L56.9706 56.9706L54.9638 58.764L52.7688 60.3214L50.4132 61.6233L47.9267 62.6532L45.3405 63.3983L42.6871 63.8491L40 64L37.3129 63.8491L34.6595 63.3983L32.0733 62.6532L29.5868 61.6233L27.2312 60.3214L25.0362 58.764L23.0294 56.9706L21.236 54.9638L19.6786 52.7688L18.3767 50.4132L17.3468 47.9267L16.6017 45.3405L16.1509 42.6871L16 40L16.1509 37.3129L16.6017 34.6595L17.3468 32.0733L18.3767 29.5868L19.6786 27.2312L21.236 25.0362L23.0294 23.0294L25.0362 21.236L27.2312 19.6786L29.5868 18.3767L32.0733 17.3468L34.6595 16.6017L37.3129 16.1509L40 16Z" fill="currentColor" fill-opacity="0.25" />
  <path d="M40 35.7143L40.4798 35.7412L40.9537 35.8217L41.4155 35.9548L41.8595 36.1387L42.2801 36.3712L42.6721 36.6493L43.0305 36.9695L43.3507 37.3279L43.6288 37.7199L43.8613 38.1405L44.0452 38.5845L44.1783 39.0463L44.2588 39.5202L44.2857 40L44.2588 40.4798L44.1783 40.9537L44.0452 41.4155L43.8613 41.8595L43.6288 42.2801L43.3507 42.6721L43.0305 43.0305L42.6721 43.3507L42.2801 43.6288L41.8595 43.8613L41.4155 44.0452L40.9537 44.1783L40.4798 44.2588L40 44.2857L39.5202 44.2588L39.0463 44.1783L38.5845 44.0452L38.1405 43.8613L37.7199 43.6288L37.3279 43.3507L36.9695 43.0305L36.6493 42.6721L36.3712 42.2801L36.1387 41.8595L35.9548 41.4155L35.8217 40.9537L35.7412 40.4798L35.7143 40L35.7412 39.5202L35.8217 39.0463L35.9548 38.5845L36.1387 38.1405L36.3712 37.7199L36.6493 37.3279L36.9695 36.9695L37.3279 36.6493L37.7199 36.3712L38.1405 36.1387L38.5845 35.9548L39.0463 35.8217L39.5202 35.7412L40 35.7143Z" fill="currentColor" fill-opacity="0.25" />
  <path d="M10 12C10 10.8954 10.8954 10 12 10H68C69.1046 10 70 10.8954 70 12V68C70 69.1046 69.1046 70 68 70H12C10.8954 70 10 69.1046 10 68V12Z" stroke="currentColor" stroke-linecap="round" stroke-linejoin="round" />
  <path d="M40 16L42.6871 16.1509L45.3405 16.6017L47.9267 17.3468L50.4132 18.3767L52.7688 19.6786L54.9638 21.236L56.9706 23.0294L58.764 25.0362L60.3214 27.2312L61.6233 29.5868L62.6532 32.0733L63.3983 34.6595L63.8491 37.3129L64 40L63.8491 42.6871L63.3983 45.3405L62.6532 47.9267L61.6233 50.4132L60.3214 52.7688L58.764 54.9638L56.9706 56.9706L54.9638 58.764L52.7688 60.3214L50.4132 61.6233L47.9267 62.6532L45.3405 63.3983L42.6871 63.8491L40 64L37.3129 63.8491L34.6595 63.3983L32.0733 62.6532L29.5868 61.6233L27.2312 60.3214L25.0362 58.764L23.0294 56.9706L21.236 54.9638L19.6786 52.7688L18.3767 50.4132L17.3468 47.9267L16.6017 45.3405L16.1509 42.6871L16 40L16.1509 37.3129L16.6017 34.6595L17.3468 32.0733L18.3767 29.5868L19.6786 27.2312L21.236 25.0362L23.0294 23.0294L25.0362 21.236L27.2312 19.6786L29.5868 18.3767L32.0733 17.3468L34.6595 16.6017L37.3129 16.1509L40 16Z" stroke="currentColor" stroke-linecap="round" stroke-linejoin="round" />
  <path d="M40 35.7143L40.4798 35.7412L40.9537 35.8217L41.4155 35.9548L41.8595 36.1387L42.2801 36.3712L42.6721 36.6493L43.0305 36.9695L43.3507 37.3279L43.6288 37.7199L43.8613 38.1405L44.0452 38.5845L44.1783 39.0463L44.2588 39.5202L44.2857 40L44.2588 40.4798L44.1783 40.9537L44.0452 41.4155L43.8613 41.8595L43.6288 42.2801L43.3507 42.6721L43.0305 43.0305L42.6721 43.3507L42.2801 43.6288L41.8595 43.8613L41.4155 44.0452L40.9537 44.1783L40.4798 44.2588L40 44.2857L39.5202 44.2588L39.0463 44.1783L38.5845 44.0452L38.1405 43.8613L37.7199 43.6288L37.3279 43.3507L36.9695 43.0305L36.6493 42.6721L36.3712 42.2801L36.1387 41.8595L35.9548 41.4155L35.8217 40.9537L35.7412 40.4798L35.7143 40L35.7412 39.5202L35.8217 39.0463L35.9548 38.5845L36.1387 38.1405L36.3712 37.7199L36.6493 37.3279L36.9695 36.9695L37.3279 36.6493L37.7199 36.3712L38.1405 36.1387L38.5845 35.9548L39.0463 35.8217L39.5202 35.7412L40 35.7143Z" stroke="currentColor" stroke-linecap="round" stroke-linejoin="round" />
</svg>