<svg viewBox="0 0 80 80" fill="none">
  <path d="M21.334 23.0827C21.334 20.8736 23.1248 19.0827 25.334 19.0827H54.6673C56.8765 19.0827 58.6673 20.8736 58.6673 23.0827V29.0827C58.6673 31.2918 56.8764 33.0827 54.6673 33.0827H25.334C23.1248 33.0827 21.334 31.2918 21.334 29.0827V23.0827Z" fill="currentColor" fill-opacity="0.25" />
  <path d="M26 49.7507C26 47.5415 27.7909 45.7507 30 45.7507H50C52.2091 45.7507 54 47.5415 54 49.7507V55.7507C54 57.9598 52.2091 59.7507 50 59.7507H30C27.7909 59.7507 26 57.9598 26 55.7507V49.7507Z" fill="currentColor" fill-opacity="0.25" />
  <path d="M40 67.4167V59.7494M40 45.7494V33.0834M40 19.0834V11.4167M25.334 33.0827H54.6673C56.8765 33.0827 58.6673 31.2918 58.6673 29.0827V23.0827C58.6673 20.8736 56.8765 19.0827 54.6673 19.0827H25.334C23.1248 19.0827 21.334 20.8736 21.334 23.0827V29.0827C21.334 31.2918 23.1248 33.0827 25.334 33.0827ZM30 59.7507H50C52.2091 59.7507 54 57.9598 54 55.7507V49.7507C54 47.5415 52.2091 45.7507 50 45.7507H30C27.7909 45.7507 26 47.5415 26 49.7507V55.7507C26 57.9598 27.7909 59.7507 30 59.7507Z" stroke="currentColor" stroke-width="4" stroke-linecap="round" stroke-linejoin="round" />
</svg>