<svg viewBox="0 0 80 80" fill="none">
  <path d="M50 25C50 23.8954 50.8954 23 52 23H60.385C61.6685 23 62.874 23.6159 63.6262 24.6559L74 39H50V25Z" fill="currentColor" fill-opacity="0.15" stroke="currentColor" stroke-linecap="round" stroke-linejoin="round" />
  <path fill-rule="evenodd" clip-rule="evenodd" d="M74 39H50V55H54.8847C54.9634 54.7198 55.0591 54.4432 55.1716 54.1716C55.9217 52.3606 57.3606 50.9217 59.1716 50.1716C60.9826 49.4214 63.0174 49.4214 64.8284 50.1716C66.6394 50.9217 68.0783 52.3606 68.8284 54.1716C68.9409 54.4432 69.0366 54.7198 69.1153 55H74V39Z" fill="currentColor" fill-opacity="0.15" />
  <path d="M50 39V37C48.8954 37 48 37.8954 48 39H50ZM74 39H76C76 37.8954 75.1046 37 74 37V39ZM50 55H48C48 56.1046 48.8954 57 50 57V55ZM54.8847 55V57C55.7808 57 56.5675 56.4039 56.81 55.5412L54.8847 55ZM55.1716 54.1716L53.3238 53.4062L53.3238 53.4062L55.1716 54.1716ZM59.1716 50.1716L58.4062 48.3238H58.4062L59.1716 50.1716ZM64.8284 50.1716L65.5938 48.3238H65.5938L64.8284 50.1716ZM68.8284 54.1716L70.6762 53.4062V53.4062L68.8284 54.1716ZM69.1153 55L67.19 55.5412C67.4325 56.4039 68.2192 57 69.1153 57V55ZM74 55V57C75.1046 57 76 56.1046 76 55H74ZM50 41H74V37H50V41ZM52 55V39H48V55H52ZM54.8847 53H50V57H54.8847V53ZM56.81 55.5412C56.8675 55.3369 56.9372 55.1351 57.0193 54.9369L53.3238 53.4062C53.1809 53.7512 53.0594 54.1027 52.9593 54.4588L56.81 55.5412ZM57.0193 54.9369C57.5665 53.616 58.616 52.5665 59.9369 52.0193L58.4062 48.3238C56.1051 49.2769 54.2769 51.1051 53.3238 53.4062L57.0193 54.9369ZM59.9369 52.0193C61.2579 51.4722 62.7421 51.4722 64.0631 52.0193L65.5938 48.3238C63.2927 47.3707 60.7073 47.3707 58.4062 48.3238L59.9369 52.0193ZM64.0631 52.0193C65.384 52.5665 66.4335 53.616 66.9807 54.9369L70.6762 53.4062C69.7231 51.1051 67.8949 49.2769 65.5938 48.3238L64.0631 52.0193ZM66.9807 54.9369C67.0628 55.1351 67.1325 55.3369 67.19 55.5412L71.0407 54.4588C70.9406 54.1027 70.8191 53.7512 70.6762 53.4062L66.9807 54.9369ZM74 53H69.1153V57H74V53ZM72 39V55H76V39H72Z" fill="currentColor" />
  <path d="M59.1716 50.1716C60.9826 49.4214 63.0174 49.4214 64.8284 50.1716C66.6394 50.9217 68.0783 52.3606 68.8284 54.1716C69.5786 55.9826 69.5786 58.0174 68.8284 59.8284C68.0783 61.6394 66.6394 63.0783 64.8284 63.8284C63.0174 64.5786 60.9826 64.5786 59.1716 63.8284C57.3606 63.0783 55.9217 61.6394 55.1716 59.8284C54.4214 58.0174 54.4214 55.9826 55.1716 54.1716C55.9217 52.3606 57.3606 50.9217 59.1716 50.1716Z" fill="currentColor" fill-opacity="0.15" stroke="currentColor" stroke-linecap="round" stroke-linejoin="round" />
  <path fill-rule="evenodd" clip-rule="evenodd" d="M10 15C7.79086 15 6 16.7909 6 19V55H11.8847C11.9634 54.7198 12.0591 54.4432 12.1716 54.1716C12.9217 52.3606 14.3606 50.9217 16.1716 50.1716C17.9826 49.4214 20.0174 49.4214 21.8284 50.1716C23.6394 50.9217 25.0783 52.3606 25.8284 54.1716C25.9409 54.4432 26.0366 54.7198 26.1153 55H50V19C50 16.7909 48.2091 15 46 15H10Z" fill="currentColor" fill-opacity="0.15" />
  <path d="M6 55H4C4 56.1046 4.89543 57 6 57V55ZM11.8847 55V57C12.7808 57 13.5675 56.4039 13.81 55.5412L11.8847 55ZM12.1716 54.1716L14.0193 54.9369L14.0193 54.9369L12.1716 54.1716ZM16.1716 50.1716L15.4062 48.3238L16.1716 50.1716ZM21.8284 50.1716L22.5938 48.3238L21.8284 50.1716ZM25.8284 54.1716L23.9807 54.9369L25.8284 54.1716ZM26.1153 55L24.19 55.5412C24.4325 56.4039 25.2192 57 26.1153 57V55ZM50 55V57C51.1046 57 52 56.1046 52 55H50ZM8 19C8 17.8954 8.89543 17 10 17V13C6.68629 13 4 15.6863 4 19H8ZM8 55V19H4V55H8ZM11.8847 53H6V57H11.8847V53ZM13.81 55.5412C13.8675 55.3369 13.9372 55.1351 14.0193 54.9369L10.3238 53.4062C10.1809 53.7512 10.0594 54.1027 9.95931 54.4588L13.81 55.5412ZM14.0193 54.9369C14.5665 53.616 15.616 52.5665 16.9369 52.0193L15.4062 48.3238C13.1051 49.2769 11.2769 51.1051 10.3238 53.4062L14.0193 54.9369ZM16.9369 52.0193C18.2579 51.4722 19.7421 51.4722 21.0631 52.0193L22.5938 48.3238C20.2927 47.3707 17.7073 47.3707 15.4062 48.3238L16.9369 52.0193ZM21.0631 52.0193C22.384 52.5665 23.4335 53.616 23.9807 54.9369L27.6762 53.4062C26.7231 51.1051 24.8949 49.2769 22.5938 48.3238L21.0631 52.0193ZM23.9807 54.9369C24.0628 55.1351 24.1325 55.3369 24.19 55.5412L28.0407 54.4588C27.9406 54.1027 27.8191 53.7512 27.6762 53.4062L23.9807 54.9369ZM50 53H26.1153V57H50V53ZM48 19V55H52V19H48ZM46 17C47.1046 17 48 17.8954 48 19H52C52 15.6863 49.3137 13 46 13V17ZM10 17H46V13H10V17Z" fill="currentColor" />
  <path d="M16.1716 50.1716C17.9826 49.4214 20.0174 49.4214 21.8284 50.1716C23.6394 50.9217 25.0783 52.3606 25.8284 54.1716C26.5786 55.9826 26.5786 58.0174 25.8284 59.8284C25.0783 61.6394 23.6394 63.0783 21.8284 63.8284C20.0174 64.5786 17.9826 64.5786 16.1716 63.8284C14.3606 63.0783 12.9217 61.6394 12.1716 59.8284C11.4214 58.0174 11.4214 55.9826 12.1716 54.1716C12.9217 52.3606 14.3606 50.9217 16.1716 50.1716Z" fill="currentColor" fill-opacity="0.15" stroke="currentColor" stroke-linecap="round" stroke-linejoin="round" />
  <path fill-rule="evenodd" clip-rule="evenodd" d="M24.923 40.595L24.923 42.518C24.923 43.1553 25.4396 43.6719 26.0768 43.6719H29.923C30.5603 43.6719 31.0768 43.1553 31.0768 42.518V40.595L31.0768 38.6719V38.4796V38.2873V38.095V37.9026V37.7103V37.518V37.3257V37.1334V37.0373V36.9411V36.845C31.0768 36.7918 31.1199 36.7488 31.173 36.7488L31.2691 36.7488H31.4614H31.6537H31.846H32.0383H32.2306H34.923H36.846C37.4833 36.7488 37.9999 36.2322 37.9999 35.5949V31.7488C37.9999 31.1115 37.4833 30.595 36.846 30.595L34.923 30.595H32.2306H32.0383H31.846L31.6537 30.595H31.4614H31.2691L31.173 30.595C31.1199 30.595 31.0768 30.5519 31.0768 30.4988V30.4026V30.3065V30.2103V30.1142V30.018V29.9219V29.8257V29.7296L31.0768 29.6334V29.5373V29.4411V29.2488V29.0565V28.8642V28.6719V28.4796V28.2873V28.2872L31.0768 28.095V28.0949L31.0768 27.9026L31.0768 26.7488L31.0768 24.8257C31.0769 24.1885 30.5603 23.6719 29.923 23.6719L26.0769 23.6719C25.4396 23.6719 24.923 24.1885 24.923 24.8257L24.923 26.7488L24.923 27.9026V28.095V28.095L24.923 28.2873V28.2873V28.4796V28.6719V28.8642V29.0565V29.2488V29.4411V29.5373V29.6334V29.7296V29.8257V29.9219V30.018V30.1142V30.2103V30.3065V30.4026V30.4988V30.5949C24.923 30.5949 24.923 30.595 24.923 30.595H24.7306H24.5383H21.0768H19.1537C18.5165 30.595 17.9999 31.1115 17.9999 31.7488L17.9999 35.595C17.9999 36.2322 18.5165 36.7488 19.1537 36.7488L21.0768 36.7488H24.5383H24.7306H24.923C24.923 36.7488 24.923 36.7488 24.923 36.7488V36.845V36.9411V37.0373V37.1334V37.3257L24.923 37.518V37.7103L24.923 37.9026V38.095V38.2873V38.4796V38.6719V40.595Z" fill="currentColor" fill-opacity="0.15" />
  <path d="M24.923 40.595H26.923H24.923ZM31.0768 40.595L29.0768 40.595V40.595H31.0768ZM31.0768 38.6719L33.0768 38.6719V38.6719H31.0768ZM31.2691 36.7488V34.7488H31.2691L31.2691 36.7488ZM34.923 30.595V32.595V30.595ZM31.2691 30.595V28.595H31.2691L31.2691 30.595ZM31.0768 29.7296L29.0768 29.7295V29.7296H31.0768ZM31.0768 29.6334L33.0768 29.6334V29.6334L31.0768 29.6334ZM31.0768 28.2872L33.0768 28.2872V28.2872L31.0768 28.2872ZM31.0768 28.095H29.0768V28.095L31.0768 28.095ZM31.0768 28.0949L29.0768 28.0949V28.0949H31.0768ZM31.0768 27.9026L33.0768 27.9027V27.9027L31.0768 27.9026ZM31.0768 26.7488L29.0768 26.7488V26.7488L31.0768 26.7488ZM24.923 26.7488L26.923 26.7488V26.7488L24.923 26.7488ZM24.923 27.9026L22.923 27.9026V27.9026H24.923ZM24.923 28.095H22.923V28.095L24.923 28.095ZM24.923 28.2873H26.923V28.2873L24.923 28.2873ZM21.0768 36.7488L21.0768 34.7488H21.0768L21.0768 36.7488ZM24.923 37.7103L26.923 37.7103V37.7103H24.923ZM24.923 37.9026L22.923 37.9026V37.9026H24.923ZM31.0768 24.8257L29.0768 24.8257L31.0768 24.8257ZM31.173 36.7488L31.173 34.7488L31.173 36.7488ZM24.923 24.8257L22.923 24.8257L24.923 24.8257ZM19.1537 36.7488L19.1537 34.7488L19.1537 36.7488ZM31.173 30.595L31.173 32.595L31.173 30.595ZM26.923 42.518V40.595L22.923 40.595L22.923 42.518H26.923ZM29.923 41.6719H26.0768V45.6719H29.923V41.6719ZM29.0768 40.595V42.518H33.0768V40.595H29.0768ZM29.0768 38.6719L29.0768 40.595L33.0768 40.595L33.0768 38.6719L29.0768 38.6719ZM29.0768 38.4796V38.6719H33.0768V38.4796H29.0768ZM29.0768 38.2873V38.4796H33.0768V38.2873H29.0768ZM29.0768 38.095V38.2873H33.0768V38.095H29.0768ZM29.0768 37.9026V38.095H33.0768V37.9026H29.0768ZM29.0768 37.7103V37.9026H33.0768V37.7103H29.0768ZM29.0768 37.518V37.7103H33.0768V37.518H29.0768ZM29.0768 37.3257V37.518H33.0768V37.3257H29.0768ZM29.0768 37.1334V37.3257H33.0768V37.1334H29.0768ZM29.0768 37.0373V37.1334H33.0768V37.0373H29.0768ZM29.0768 36.9411V37.0373H33.0768V36.9411H29.0768ZM29.0768 36.845V36.9411H33.0768V36.845H29.0768ZM31.2691 34.7488L31.173 34.7488L31.173 38.7488L31.2691 38.7488L31.2691 34.7488ZM31.4614 34.7488H31.2691V38.7488H31.4614V34.7488ZM31.6537 34.7488H31.4614V38.7488H31.6537V34.7488ZM31.846 34.7488H31.6537V38.7488H31.846V34.7488ZM32.0383 34.7488H31.846V38.7488H32.0383V34.7488ZM32.2306 34.7488H32.0383V38.7488H32.2306V34.7488ZM34.923 34.7488H32.2306V38.7488H34.923V34.7488ZM36.846 34.7488H34.923V38.7488H36.846V34.7488ZM35.9999 31.7488V35.5949H39.9999V31.7488H35.9999ZM34.923 32.595H36.846V28.595L34.923 28.595V32.595ZM32.2306 32.595H34.923V28.595H32.2306V32.595ZM32.0383 32.595H32.2306V28.595H32.0383V32.595ZM31.846 32.595H32.0383V28.595H31.846V32.595ZM31.6537 32.595H31.846V28.595L31.6537 28.595V32.595ZM31.4614 32.595H31.6537V28.595H31.4614V32.595ZM31.2691 32.595H31.4614V28.595H31.2691V32.595ZM31.173 32.595L31.2691 32.595L31.2691 28.595L31.173 28.595L31.173 32.595ZM29.0768 30.4026V30.4988L33.0768 30.4988V30.4026L29.0768 30.4026ZM29.0768 30.3065V30.4026L33.0768 30.4026V30.3065L29.0768 30.3065ZM29.0768 30.2103V30.3065L33.0768 30.3065V30.2103L29.0768 30.2103ZM29.0768 30.1142V30.2103L33.0768 30.2103V30.1142L29.0768 30.1142ZM29.0768 30.018V30.1142L33.0768 30.1142V30.018L29.0768 30.018ZM29.0768 29.9219V30.018L33.0768 30.018V29.9219L29.0768 29.9219ZM29.0768 29.8257V29.9219L33.0768 29.9219V29.8257L29.0768 29.8257ZM29.0768 29.7296V29.8257L33.0768 29.8257V29.7296L29.0768 29.7296ZM29.0768 29.6334L29.0768 29.7295L33.0768 29.7296L33.0768 29.6334L29.0768 29.6334ZM29.0768 29.5373V29.6334L33.0768 29.6334V29.5373L29.0768 29.5373ZM29.0768 29.4411V29.5373L33.0768 29.5373V29.4411L29.0768 29.4411ZM29.0768 29.2488V29.4411L33.0768 29.4411V29.2488L29.0768 29.2488ZM29.0768 29.0565V29.2488L33.0768 29.2488V29.0565L29.0768 29.0565ZM29.0768 28.8642V29.0565L33.0768 29.0565V28.8642L29.0768 28.8642ZM29.0768 28.6719V28.8642L33.0768 28.8642V28.6719L29.0768 28.6719ZM29.0768 28.4796V28.6719L33.0768 28.6719V28.4796L29.0768 28.4796ZM29.0768 28.2873V28.4796L33.0768 28.4796V28.2873L29.0768 28.2873ZM29.0768 28.2872V28.2873L33.0768 28.2873V28.2872L29.0768 28.2872ZM29.0768 28.095L29.0768 28.2873L33.0768 28.2872L33.0768 28.0949L29.0768 28.095ZM29.0768 28.0949V28.095L33.0768 28.095V28.0949L29.0768 28.0949ZM29.0768 27.9026L29.0768 28.0949L33.0768 28.0949L33.0768 27.9027L29.0768 27.9026ZM29.0768 26.7488L29.0768 27.9026L33.0768 27.9027L33.0768 26.7488L29.0768 26.7488ZM29.0768 24.8257L29.0768 26.7488L33.0768 26.7488L33.0768 24.8257L29.0768 24.8257ZM26.0768 25.6719L29.923 25.6719L29.923 21.6719L26.0769 21.6719L26.0768 25.6719ZM26.923 26.7488L26.923 24.8257L22.923 24.8257L22.923 26.7488L26.923 26.7488ZM26.923 27.9026L26.923 26.7488L22.923 26.7488L22.923 27.9026L26.923 27.9026ZM26.923 28.095V27.9026H22.923V28.095H26.923ZM26.923 28.095V28.095H22.923V28.095H26.923ZM26.923 28.2873L26.923 28.095L22.923 28.095L22.923 28.2873L26.923 28.2873ZM26.923 28.2873V28.2873H22.923V28.2873H26.923ZM26.923 28.4796V28.2873H22.923V28.4796H26.923ZM26.923 28.6719V28.4796H22.923V28.6719H26.923ZM26.923 28.8642V28.6719H22.923V28.8642H26.923ZM26.923 29.0565V28.8642H22.923V29.0565H26.923ZM26.923 29.2488V29.0565H22.923V29.2488H26.923ZM26.923 29.4411V29.2488H22.923V29.4411H26.923ZM26.923 29.5373V29.4411H22.923V29.5373H26.923ZM26.923 29.6334V29.5373H22.923V29.6334H26.923ZM26.923 29.7296V29.6334H22.923V29.7296H26.923ZM26.923 29.8257V29.7296H22.923V29.8257H26.923ZM26.923 29.9219V29.8257H22.923V29.9219H26.923ZM26.923 30.018V29.9219H22.923V30.018H26.923ZM26.923 30.1142V30.018H22.923V30.1142H26.923ZM26.923 30.2103V30.1142H22.923V30.2103H26.923ZM26.923 30.3065V30.2103H22.923V30.3065H26.923ZM26.923 30.4026V30.3065H22.923V30.4026H26.923ZM26.923 30.4988V30.4026H22.923V30.4988H26.923ZM26.923 30.5949V30.4988H22.923V30.5949H26.923ZM24.7306 32.595H24.923V28.595H24.7306V32.595ZM24.5383 32.595H24.7306V28.595H24.5383V32.595ZM21.0768 32.595H24.5383V28.595H21.0768V32.595ZM19.1537 32.595H21.0768V28.595H19.1537V32.595ZM19.9999 35.595L19.9999 31.7488H15.9999L15.9999 35.595L19.9999 35.595ZM21.0768 34.7488L19.1537 34.7488L19.1537 38.7488L21.0768 38.7488L21.0768 34.7488ZM24.5383 34.7488H21.0768L21.0768 38.7488H24.5383L24.5383 34.7488ZM24.7306 34.7488H24.5383L24.5383 38.7488H24.7306L24.7306 34.7488ZM24.923 34.7488H24.7306L24.7306 38.7488H24.923L24.923 34.7488ZM26.923 36.845V36.7488H22.923V36.845H26.923ZM26.923 36.9411V36.845H22.923V36.9411H26.923ZM26.923 37.0373V36.9411H22.923V37.0373H26.923ZM26.923 37.1334V37.0373H22.923V37.1334H26.923ZM26.923 37.3257V37.1334H22.923V37.3257H26.923ZM26.923 37.518V37.3257H22.923L22.923 37.518H26.923ZM26.923 37.7103V37.518H22.923V37.7103H26.923ZM26.923 37.9026V37.7103L22.923 37.7103L22.923 37.9026L26.923 37.9026ZM26.923 38.095V37.9026H22.923V38.095H26.923ZM26.923 38.2873V38.095H22.923V38.2873H26.923ZM26.923 38.4796V38.2873H22.923V38.4796H26.923ZM26.923 38.6719V38.4796H22.923V38.6719H26.923ZM26.923 40.595L26.923 38.6719H22.923V40.595H26.923ZM19.1537 28.595C17.4119 28.595 15.9999 30.007 15.9999 31.7488H19.9999C19.9999 32.2161 19.621 32.595 19.1537 32.595V28.595ZM33.0768 24.8257C33.0769 23.0839 31.6648 21.6719 29.923 21.6719L29.923 25.6719C29.4557 25.6719 29.0768 25.293 29.0768 24.8257L33.0768 24.8257ZM39.9999 31.7488C39.9999 30.007 38.5879 28.595 36.846 28.595V32.595C36.3787 32.595 35.9999 32.2161 35.9999 31.7488H39.9999ZM29.923 45.6719C31.6648 45.6719 33.0768 44.2598 33.0768 42.518H29.0768C29.0768 42.0507 29.4557 41.6719 29.923 41.6719V45.6719ZM24.8821 38.7484C23.7938 38.7262 22.923 37.8376 22.923 36.7488H26.923C26.923 35.6601 26.0521 34.7714 24.9638 34.7492L24.8821 38.7484ZM36.846 38.7488C38.5879 38.7488 39.9999 37.3368 39.9999 35.5949H35.9999C35.9999 35.1276 36.3787 34.7488 36.846 34.7488V38.7488ZM22.923 30.5949C22.923 29.4747 23.843 28.573 24.9629 28.5954L24.883 32.5946C26.003 32.617 26.923 31.7152 26.923 30.5949H22.923ZM33.0768 36.845C33.0768 37.8964 32.2245 38.7488 31.173 38.7488L31.173 34.7488C30.0153 34.7488 29.0768 35.6873 29.0768 36.845H33.0768ZM26.0769 21.6719C24.335 21.6719 22.923 23.0839 22.923 24.8257L26.923 24.8257C26.923 25.293 26.5442 25.6719 26.0768 25.6719L26.0769 21.6719ZM15.9999 35.595C15.9999 37.3368 17.4119 38.7488 19.1537 38.7488L19.1537 34.7488C19.621 34.7488 19.9999 35.1276 19.9999 35.595L15.9999 35.595ZM31.173 28.595C32.2245 28.5949 33.0768 29.4473 33.0768 30.4988L29.0768 30.4988C29.0768 31.6565 30.0153 32.595 31.173 32.595L31.173 28.595ZM22.923 42.518C22.923 44.2599 24.335 45.6719 26.0768 45.6719V41.6719C26.5442 41.6719 26.923 42.0507 26.923 42.518H22.923Z" fill="currentColor" />
</svg>