<svg viewBox="0 0 80 80" fill="none">
  <path d="M30 17.9999C33.3137 14.6862 38.6863 14.6862 42 17.9999C45.3137 21.3136 45.3137 26.6862 42 29.9999L36.0137 35.9863C36.0061 35.9938 35.9939 35.9938 35.9863 35.9863L30 29.9999C26.6863 26.6862 26.6863 21.3136 30 17.9999Z" fill="currentColor" fill-opacity="0.25" />
  <path d="M35.9805 36.0195C35.9912 36.0087 36.0087 36.0087 36.0195 36.0195L51.9785 51.9784C51.9904 51.9903 51.9904 52.0095 51.9785 52.0214L44 59.9999C39.5817 64.4182 32.4183 64.4182 28 59.9999C23.5817 55.5816 23.5817 48.4182 28 43.9999L35.9805 36.0195Z" fill="currentColor" fill-opacity="0.25" />
  <path d="M60 43.9999L52 51.9999L60 59.9999M36.0137 35.9863L42 29.9999C45.3137 26.6862 45.3137 21.3136 42 17.9999C38.6863 14.6862 33.3137 14.6862 30 17.9999C26.6863 21.3136 26.6863 26.6862 30 29.9999L35.9863 35.9863C35.9939 35.9938 36.0061 35.9938 36.0137 35.9863ZM35.9805 36.0195L28 43.9999C23.5817 48.4182 23.5817 55.5816 28 59.9999C32.4183 64.4182 39.5817 64.4182 44 59.9999L51.9785 52.0214C51.9904 52.0095 51.9904 51.9903 51.9785 51.9784L36.0195 36.0195C36.0087 36.0087 35.9912 36.0087 35.9805 36.0195Z" stroke="currentColor" stroke-width="4" stroke-linecap="round" stroke-linejoin="round" />
</svg>