<svg viewBox="0 0 80 80" fill="none">
  <path d="M63.641 29.4996H33.9369L42.7268 14.2751C45.1709 14.5342 47.5869 15.1425 49.8987 16.1001C56.0357 18.6421 60.9517 23.4438 63.641 29.4996Z" fill="currentColor" fill-opacity="0.25" />
  <path d="M60.9134 55.2238L46.0614 29.4993L63.641 29.4996C64.6387 31.7458 65.3199 34.142 65.6465 36.6228C66.5136 43.2087 64.8132 49.8668 60.9134 55.2238Z" fill="currentColor" fill-opacity="0.25" />
  <path d="M37.272 65.7236L52.124 39.9991L60.9134 55.2238C59.467 57.2109 57.7326 58.9989 55.7475 60.5221C50.4775 64.5659 43.8611 66.4224 37.272 65.7236Z" fill="currentColor" fill-opacity="0.25" />
  <path d="M16.3578 50.4995L46.0619 50.4995L37.272 65.7236C34.8278 65.4645 32.4119 64.8565 30.1001 63.899C23.9631 61.3569 19.0471 56.5553 16.3578 50.4995Z" fill="currentColor" fill-opacity="0.25" />
  <path d="M19.0854 24.7752L33.9374 50.4996L16.3578 50.4995C15.3601 48.2532 14.6789 45.8569 14.3523 43.3761C13.4852 36.7903 15.1856 30.1321 19.0854 24.7752Z" fill="currentColor" fill-opacity="0.25" />
  <path d="M42.7268 14.2751L27.8747 39.9998L19.0854 24.7752C20.5318 22.788 22.2661 21.0001 24.2513 19.4768C29.5213 15.433 36.1376 13.5762 42.7268 14.2751Z" fill="currentColor" fill-opacity="0.25" />
  <path d="M63.641 29.4996H33.9369L42.7268 14.2751M63.641 29.4996C60.9517 23.4438 56.0357 18.6421 49.8987 16.1001C47.5869 15.1425 45.1709 14.5342 42.7268 14.2751M63.641 29.4996L46.0614 29.4993L60.9134 55.2238M63.641 29.4996C64.6387 31.7458 65.3199 34.142 65.6465 36.6228C66.5136 43.2087 64.8132 49.8668 60.9134 55.2238M42.7268 14.2751L27.8747 39.9998L19.0854 24.7752M42.7268 14.2751C36.1376 13.5762 29.5213 15.433 24.2513 19.4768C22.2661 21.0001 20.5318 22.788 19.0854 24.7752M60.9134 55.2238L52.124 39.9991L37.272 65.7236M60.9134 55.2238C59.467 57.2109 57.7326 58.9989 55.7475 60.5221C50.4775 64.5659 43.8611 66.4224 37.272 65.7236M37.272 65.7236L46.0619 50.4995L16.3578 50.4995M37.272 65.7236C34.8278 65.4645 32.4119 64.8565 30.1001 63.899C23.9631 61.3569 19.0471 56.5553 16.3578 50.4995M16.3578 50.4995L33.9374 50.4996L19.0854 24.7752M16.3578 50.4995C15.3601 48.2532 14.6789 45.8569 14.3523 43.3761C13.4852 36.7903 15.1856 30.1321 19.0854 24.7752" stroke="currentColor" stroke-width="4" stroke-linecap="round" stroke-linejoin="round" />
</svg>