<svg viewBox="0 0 80 80" fill="none">
  <path d="M38 28.0005C38 26.8959 38.8954 26.0005 40 26.0005C41.1046 26.0005 42 26.8959 42 28.0005H38ZM52 66C53.1046 66 54 66.8954 54 68C54 69.1046 53.1046 70 52 70V66ZM42 28.0005L42 60H38L38 28.0005H42ZM48 66H52V70H48V66ZM42 60C42 63.3137 44.6863 66 48 66V70C42.4772 70 38 65.5228 38 60H42Z" fill="currentColor" />
  <path d="M29.6569 28L50.3431 28C52.4307 28 53.4761 25.4761 52 24L42.1213 14.1213C40.9497 12.9497 39.0503 12.9497 37.8787 14.1213L28 24C26.5239 25.4761 27.5693 28 29.6569 28Z" fill="currentColor" fill-opacity="0.25" stroke="currentColor" stroke-width="4" stroke-linecap="round" stroke-linejoin="round" />
</svg>