<svg viewBox="0 0 80 80" fill="none">
  <path fill-rule="evenodd" clip-rule="evenodd" d="M48.0001 36.9997H53.6678C56.2835 36.9997 57.5687 33.8153 55.6859 31.9997L43.7745 20.5138C41.7408 18.5527 38.5198 18.5527 36.4861 20.5138L24.5748 31.9997C22.6919 33.8153 23.9771 36.9997 26.5928 36.9997H32.0001L32.0001 46.9997V52.9997C32.0001 54.1043 32.8955 54.9997 34.0001 54.9997H46.0001C47.1047 54.9997 48.0001 54.1043 48.0001 52.9997L48.0001 46.9997V36.9997Z" fill="currentColor" fill-opacity="0.15" />
  <path d="M48.0001 36.9997V34.9997C46.8955 34.9997 46.0001 35.8952 46.0001 36.9997H48.0001ZM55.6859 31.9997L54.2976 33.4394L54.2976 33.4394L55.6859 31.9997ZM43.7745 20.5138L42.3862 21.9535V21.9535L43.7745 20.5138ZM36.4861 20.5138L35.0978 19.0741L35.0978 19.0741L36.4861 20.5138ZM24.5748 31.9997L23.1865 30.56L24.5748 31.9997ZM32.0001 36.9997H34.0001C34.0001 35.8952 33.1047 34.9997 32.0001 34.9997V36.9997ZM32.0001 46.9997H34.0001H32.0001ZM48.0001 52.9997H50.0001H48.0001ZM48.0001 46.9997H46.0001H48.0001ZM53.6678 34.9997H48.0001V38.9997H53.6678V34.9997ZM54.2976 33.4394C54.8852 34.006 54.4841 34.9997 53.6678 34.9997V38.9997C58.0829 38.9997 60.2523 33.6247 57.0741 30.56L54.2976 33.4394ZM42.3862 21.9535L54.2976 33.4394L57.0741 30.56L45.1628 19.0741L42.3862 21.9535ZM37.8744 21.9535C39.1333 20.7395 41.1273 20.7395 42.3862 21.9535L45.1628 19.0741C42.3543 16.3659 37.9063 16.3659 35.0978 19.0741L37.8744 21.9535ZM25.963 33.4394L37.8744 21.9535L35.0978 19.0741L23.1865 30.56L25.963 33.4394ZM26.5928 34.9997C25.7765 34.9997 25.3755 34.006 25.963 33.4394L23.1865 30.56C20.0084 33.6247 22.1777 38.9997 26.5928 38.9997V34.9997ZM32.0001 34.9997H26.5928V38.9997H32.0001V34.9997ZM34.0001 46.9997L34.0001 36.9997H30.0001L30.0001 46.9997H34.0001ZM34.0001 52.9997V46.9997H30.0001V52.9997H34.0001ZM34.0001 52.9997H30.0001C30.0001 55.2089 31.791 56.9997 34.0001 56.9997V52.9997ZM46.0001 52.9997H34.0001V56.9997H46.0001V52.9997ZM46.0001 52.9997H46.0001V56.9997C48.2092 56.9997 50.0001 55.2089 50.0001 52.9997H46.0001ZM46.0001 46.9997L46.0001 52.9997H50.0001L50.0001 46.9997H46.0001ZM46.0001 36.9997V46.9997H50.0001V36.9997H46.0001Z" fill="currentColor" />
  <path d="M24 63H56" stroke="currentColor" stroke-width="4" stroke-linecap="round" />
</svg>