<svg viewBox="0 0 80 80" fill="none">
  <path d="M49.4835 63.8979L50.2489 65.7457V65.7457L49.4835 63.8979ZM42.298 63.7123C41.2006 63.8379 40.4128 64.8293 40.5384 65.9267C40.6639 67.0241 41.6553 67.812 42.7527 67.6864L42.298 63.7123ZM42.7342 67.6885C43.8317 67.5637 44.6202 66.5728 44.4953 65.4753C44.3705 64.3778 43.3796 63.5893 42.2821 63.7141L42.7342 67.6885ZM42.1989 63.7235C41.101 63.8444 40.309 64.8325 40.43 65.9305C40.551 67.0284 41.5391 67.8204 42.637 67.6994L42.1989 63.7235ZM63.4835 49.8979L65.3313 50.6633H65.3313L63.4835 49.8979ZM63.4835 30.099L65.3313 29.3336H65.3313L63.4835 30.099ZM58.4837 19.5177C57.672 18.7686 56.4066 18.8194 55.6575 19.6311C54.9085 20.4428 54.9592 21.7081 55.771 22.4572L58.4837 19.5177ZM48.7181 62.0502C46.6472 62.908 44.4859 63.462 42.298 63.7123L42.7527 67.6864C45.3073 67.3941 47.8311 66.7472 50.2489 65.7457L48.7181 62.0502ZM42.2821 63.7141C42.2544 63.7173 42.2267 63.7204 42.1989 63.7235L42.637 67.6994C42.6694 67.6958 42.7018 67.6922 42.7342 67.6885L42.2821 63.7141ZM61.6357 49.1326C59.2132 54.9811 54.5666 59.6277 48.7181 62.0502L50.2489 65.7457C57.0775 62.9172 62.5028 57.4919 65.3313 50.6633L61.6357 49.1326ZM61.6357 30.8643C64.0583 36.7128 64.0583 43.2841 61.6357 49.1326L65.3313 50.6633C68.1598 43.8347 68.1598 36.1622 65.3313 29.3336L61.6357 30.8643ZM55.771 22.4572C58.288 24.78 60.2999 27.6394 61.6357 30.8643L65.3313 29.3336C63.7716 25.5682 61.4223 22.2295 58.4837 19.5177L55.771 22.4572Z" fill="currentColor" />
  <path d="M42.418 56.5962L42.418 73.4038C42.418 75.0999 40.3673 75.9493 39.168 74.75L31.5393 67.1213C30.3677 65.9497 30.3677 64.0503 31.5393 62.8787L39.168 55.25C40.3673 54.0507 42.418 54.9001 42.418 56.5962Z" fill="currentColor" fill-opacity="0.25" stroke="currentColor" stroke-width="4" stroke-linecap="round" stroke-linejoin="round" />
  <path d="M29.4931 16.1021L30.2584 17.9498L30.2584 17.9498L29.4931 16.1021ZM36.6785 16.2877C37.7759 16.1621 38.5638 15.1707 38.4382 14.0733C38.3126 12.9759 37.3212 12.188 36.2238 12.3136L36.6785 16.2877ZM36.2424 12.3115C35.1449 12.4363 34.3564 13.4272 34.4812 14.5247C34.606 15.6222 35.5969 16.4107 36.6944 16.2859L36.2424 12.3115ZM36.7776 16.2765C37.8756 16.1556 38.6675 15.1675 38.5466 14.0695C38.4256 12.9716 37.4375 12.1796 36.3396 12.3006L36.7776 16.2765ZM15.4931 30.1021L13.6453 29.3367H13.6453L15.4931 30.1021ZM15.4931 49.901L13.6453 50.6664H13.6453L15.4931 49.901ZM20.4929 60.4823C21.3046 61.2314 22.5699 61.1806 23.319 60.3689C24.0681 59.5572 24.0173 58.2919 23.2056 57.5428L20.4929 60.4823ZM30.2584 17.9498C32.3293 17.092 34.4907 16.538 36.6785 16.2877L36.2238 12.3136C33.6692 12.6059 31.1455 13.2528 28.7277 14.2543L30.2584 17.9498ZM36.6944 16.2859C36.7222 16.2827 36.7499 16.2796 36.7776 16.2765L36.3396 12.3006C36.3072 12.3042 36.2748 12.3078 36.2424 12.3115L36.6944 16.2859ZM17.3408 30.8674C19.7633 25.0189 24.4099 20.3723 30.2584 17.9498L28.7277 14.2543C21.8991 17.0828 16.4738 22.5081 13.6453 29.3367L17.3408 30.8674ZM17.3408 49.1357C14.9183 43.2872 14.9183 36.7159 17.3408 30.8674L13.6453 29.3367C10.8168 36.1653 10.8168 43.8378 13.6453 50.6664L17.3408 49.1357ZM23.2056 57.5428C20.6886 55.22 18.6766 52.3606 17.3408 49.1357L13.6453 50.6664C15.205 54.4318 17.5543 57.7705 20.4929 60.4823L23.2056 57.5428Z" fill="currentColor" />
  <path d="M36.5586 23.4038L36.5586 6.59619C36.5586 4.90008 38.6093 4.05067 39.8086 5.25L47.4373 12.8787C48.6088 14.0503 48.6088 15.9497 47.4373 17.1213L39.8086 24.75C38.6093 25.9493 36.5586 25.0999 36.5586 23.4038Z" fill="currentColor" fill-opacity="0.25" stroke="currentColor" stroke-width="4" stroke-linecap="round" stroke-linejoin="round" />
</svg>