<svg viewBox="0 0 80 80" fill="none">
  <path d="M42 21C42 19.8954 41.1046 19 40 19C38.8954 19 38 19.8954 38 21H42ZM38 34C38 35.1046 38.8954 36 40 36C41.1046 36 42 35.1046 42 34H38ZM38 21L38 34H42L42 21H38Z" fill="currentColor" />
  <path d="M45.818 21L34.182 21C33.0078 21 32.4197 19.5803 33.25 18.75L37.8787 14.1213C39.0503 12.9497 40.9497 12.9497 42.1213 14.1213L46.75 18.75C47.5803 19.5803 46.9923 21 45.818 21Z" fill="currentColor" fill-opacity="0.15" stroke="currentColor" stroke-width="4" stroke-linecap="round" stroke-linejoin="round" />
  <path d="M42 59C42 60.1046 41.1046 61 40 61C38.8954 61 38 60.1046 38 59H42ZM38 46C38 44.8954 38.8954 44 40 44C41.1046 44 42 44.8954 42 46H38ZM38 59L38 46H42L42 59H38Z" fill="currentColor" />
  <path d="M45.818 59L34.182 59C33.0078 59 32.4197 60.4197 33.25 61.25L37.8787 65.8787C39.0503 67.0503 40.9497 67.0503 42.1213 65.8787L46.75 61.25C47.5803 60.4197 46.9923 59 45.818 59Z" fill="currentColor" fill-opacity="0.15" stroke="currentColor" stroke-width="4" stroke-linecap="round" stroke-linejoin="round" />
</svg>