<svg viewBox="0 0 80 80" fill="none">
  <path fill-rule="evenodd" clip-rule="evenodd" d="M48.0001 37.0002H53.6678C56.2835 37.0002 57.5687 33.8158 55.6859 32.0002L43.7745 20.5143C41.7408 18.5532 38.5198 18.5532 36.4861 20.5143L24.5748 32.0002C22.6919 33.8158 23.9771 37.0002 26.5928 37.0002H32.0001L32.0001 47.0002V53.0002C32.0001 54.1048 32.8955 55.0002 34.0001 55.0002H46.0001C47.1047 55.0002 48.0001 54.1048 48.0001 53.0002L48.0001 47.0002V37.0002Z" fill="currentColor" fill-opacity="0.25" />
  <path d="M48.0001 37.0002V35.0002C46.8955 35.0002 46.0001 35.8956 46.0001 37.0002H48.0001ZM55.6859 32.0002L54.2976 33.4399L54.2976 33.4399L55.6859 32.0002ZM43.7745 20.5143L42.3862 21.954V21.954L43.7745 20.5143ZM36.4861 20.5143L35.0978 19.0746L35.0978 19.0746L36.4861 20.5143ZM24.5748 32.0002L23.1865 30.5605L24.5748 32.0002ZM32.0001 37.0002H34.0001C34.0001 35.8956 33.1047 35.0002 32.0001 35.0002V37.0002ZM32.0001 47.0002H34.0001H32.0001ZM48.0001 53.0002H50.0001H48.0001ZM48.0001 47.0002H46.0001H48.0001ZM53.6678 35.0002H48.0001V39.0002H53.6678V35.0002ZM54.2976 33.4399C54.8852 34.0065 54.4841 35.0002 53.6678 35.0002V39.0002C58.0829 39.0002 60.2523 33.6252 57.0741 30.5605L54.2976 33.4399ZM42.3862 21.954L54.2976 33.4399L57.0741 30.5605L45.1628 19.0746L42.3862 21.954ZM37.8744 21.954C39.1333 20.74 41.1273 20.74 42.3862 21.954L45.1628 19.0746C42.3543 16.3664 37.9063 16.3664 35.0978 19.0746L37.8744 21.954ZM25.963 33.4399L37.8744 21.954L35.0978 19.0746L23.1865 30.5605L25.963 33.4399ZM26.5928 35.0002C25.7765 35.0002 25.3755 34.0065 25.963 33.4399L23.1865 30.5605C20.0084 33.6252 22.1777 39.0002 26.5928 39.0002V35.0002ZM32.0001 35.0002H26.5928V39.0002H32.0001V35.0002ZM34.0001 47.0002L34.0001 37.0002H30.0001L30.0001 47.0002H34.0001ZM34.0001 53.0002V47.0002H30.0001V53.0002H34.0001ZM34.0001 53.0002H30.0001C30.0001 55.2094 31.791 57.0002 34.0001 57.0002V53.0002ZM46.0001 53.0002H34.0001V57.0002H46.0001V53.0002ZM46.0001 53.0002H46.0001V57.0002C48.2092 57.0002 50.0001 55.2094 50.0001 53.0002H46.0001ZM46.0001 47.0002L46.0001 53.0002H50.0001L50.0001 47.0002H46.0001ZM46.0001 37.0002V47.0002H50.0001V37.0002H46.0001Z" fill="currentColor" />
  <path d="M24 63H56" stroke="currentColor" stroke-width="4" stroke-linecap="round" />
</svg>