<svg viewBox="0 0 80 83" fill="none">
  <path fill-rule="evenodd" clip-rule="evenodd" d="M53.0001 31L55.1005 31C58.7537 31 60.5832 26.5832 58 24L40.7123 6.71231C38.6621 4.66206 35.3379 4.66206 33.2877 6.71231L16 24C13.4168 26.5832 15.2463 31 18.8995 31L21.0001 31L33.2878 18.7123C35.338 16.6621 38.6621 16.6621 40.7124 18.7123L53.0001 31Z" fill="currentColor" fill-opacity="0.15" />
  <path d="M55.1005 31L55.1005 29L55.1005 31ZM53.0001 31L51.5859 32.4142C51.9609 32.7893 52.4696 33 53.0001 33L53.0001 31ZM58 24L59.4142 22.5858L59.4142 22.5858L58 24ZM40.7123 6.71231L42.1265 5.2981L40.7123 6.71231ZM33.2877 6.71231L34.7019 8.12652L33.2877 6.71231ZM16 24L17.4142 25.4142L17.4142 25.4142L16 24ZM21.0001 31L21.0001 33C21.5305 33 22.0392 32.7893 22.4143 32.4142L21.0001 31ZM33.2878 18.7123L34.702 20.1265L33.2878 18.7123ZM40.7124 18.7123L39.2982 20.1265L39.2982 20.1265L40.7124 18.7123ZM55.1005 29L53.0001 29L53.0001 33L55.1005 33L55.1005 29ZM56.5858 25.4142C57.909 26.7375 56.9719 29 55.1005 29L55.1005 33C60.5355 33 63.2573 26.4289 59.4142 22.5858L56.5858 25.4142ZM39.2981 8.12652L56.5858 25.4142L59.4142 22.5858L42.1265 5.2981L39.2981 8.12652ZM34.7019 8.12652C35.9711 6.85732 38.0289 6.85732 39.2981 8.12652L42.1265 5.2981C39.2952 2.46679 34.7048 2.46679 31.8735 5.2981L34.7019 8.12652ZM17.4142 25.4142L34.7019 8.12652L31.8735 5.2981L14.5858 22.5858L17.4142 25.4142ZM18.8995 29C17.0281 29 16.091 26.7375 17.4142 25.4142L14.5858 22.5858C10.7427 26.4289 13.4645 33 18.8995 33L18.8995 29ZM21.0001 29L18.8995 29L18.8995 33L21.0001 33L21.0001 29ZM22.4143 32.4142L34.702 20.1265L31.8735 17.2981L19.5859 29.5858L22.4143 32.4142ZM34.702 20.1265C35.9712 18.8573 38.029 18.8573 39.2982 20.1265L42.1266 17.2981C39.2953 14.4668 34.7049 14.4668 31.8735 17.2981L34.702 20.1265ZM39.2982 20.1265L51.5859 32.4142L54.4143 29.5858L42.1266 17.2981L39.2982 20.1265Z" fill="currentColor" />
  <path fill-rule="evenodd" clip-rule="evenodd" d="M49.0021 43.1718L55.1005 43.1718C58.7537 43.1718 60.5832 38.755 58 36.1718L40.7123 18.8841C38.6621 16.8339 35.3379 16.8339 33.2877 18.8841L16 36.1718C13.4168 38.755 15.2463 43.1718 18.8995 43.1718L24.9999 43.1718C25.0311 46.6399 25.5892 50.1044 26.6742 53.4437C28.9085 60.3201 33.2624 66.3128 39.1119 70.5627C44.9614 74.8126 52.0061 77.1016 59.2365 77.1016C61.5571 77.1016 63.8586 76.8658 66.1076 76.405C67.9193 76.0339 68.0095 73.5835 66.3994 72.6739C65.2692 72.0355 64.1721 71.331 63.1142 70.5624C57.2647 66.3125 52.9108 60.3198 50.6765 53.4433C49.5915 50.1041 49.0334 46.6398 49.0021 43.1718Z" fill="currentColor" fill-opacity="0.15" />
  <path d="M49.0021 43.1718L49.0021 41.1718C48.4686 41.1718 47.9571 41.385 47.5816 41.764C47.206 42.1429 46.9974 42.6563 47.0022 43.1898L49.0021 43.1718ZM58 36.1718L59.4142 34.7576L59.4142 34.7576L58 36.1718ZM40.7123 18.8841L42.1265 17.4699L40.7123 18.8841ZM33.2877 18.8841L31.8735 17.4699L33.2877 18.8841ZM16 36.1718L14.5858 34.7576L14.5858 34.7576L16 36.1718ZM18.8995 43.1718L18.8995 41.1718L18.8995 41.1718L18.8995 43.1718ZM24.9999 43.1718L26.9998 43.1538C26.9899 42.0563 26.0974 41.1718 24.9999 41.1718L24.9999 43.1718ZM26.6742 53.4437L24.7721 54.0617L26.6742 53.4437ZM39.1119 70.5627L40.2875 68.9446L39.1119 70.5627ZM66.1076 76.405L65.7063 74.4457L65.7062 74.4457L66.1076 76.405ZM66.3994 72.6739L67.383 70.9326L67.383 70.9326L66.3994 72.6739ZM63.1142 70.5624L64.2898 68.9443L64.2898 68.9443L63.1142 70.5624ZM50.6765 53.4433L48.7744 54.0614L50.6765 53.4433ZM55.1005 41.1718L49.0021 41.1718L49.0021 45.1718L55.1005 45.1718L55.1005 41.1718ZM56.5858 37.586C57.909 38.9093 56.9719 41.1718 55.1005 41.1718L55.1005 45.1718C60.5355 45.1718 63.2573 38.6007 59.4142 34.7576L56.5858 37.586ZM39.2981 20.2983L56.5858 37.586L59.4142 34.7576L42.1265 17.4699L39.2981 20.2983ZM34.7019 20.2983C35.9711 19.0291 38.0289 19.0291 39.2981 20.2983L42.1265 17.4699C39.2952 14.6386 34.7048 14.6386 31.8735 17.4699L34.7019 20.2983ZM17.4142 37.586L34.7019 20.2983L31.8735 17.4699L14.5858 34.7576L17.4142 37.586ZM18.8995 41.1718C17.0281 41.1718 16.091 38.9093 17.4142 37.586L14.5858 34.7576C10.7427 38.6007 13.4645 45.1718 18.8995 45.1718L18.8995 41.1718ZM24.9999 41.1718L18.8995 41.1718L18.8995 45.1718L24.9999 45.1718L24.9999 41.1718ZM22.9999 43.1898C23.033 46.8604 23.6237 50.5273 24.7721 54.0617L28.5763 52.8256C27.5547 49.6814 27.0292 46.4193 26.9998 43.1538L22.9999 43.1898ZM24.7721 54.0617C27.1369 61.3399 31.7451 67.6826 37.9363 72.1807L40.2875 68.9446C34.7797 64.943 30.6801 59.3004 28.5763 52.8256L24.7721 54.0617ZM37.9363 72.1807C44.1275 76.6789 51.5838 79.1016 59.2365 79.1016L59.2365 75.1016C52.4285 75.1016 45.7953 72.9463 40.2875 68.9446L37.9363 72.1807ZM59.2365 79.1016C61.6927 79.1016 64.1286 78.852 66.509 78.3643L65.7062 74.4457C63.5886 74.8795 61.4216 75.1016 59.2365 75.1016L59.2365 79.1016ZM66.509 78.3643C68.4224 77.9723 69.4375 76.4086 69.5329 74.8647C69.6246 73.3802 68.8992 71.789 67.383 70.9326L65.4157 74.4153C65.4687 74.4452 65.4968 74.4793 65.5148 74.5137C65.5366 74.5557 65.5418 74.5964 65.5405 74.618C65.5392 74.639 65.5359 74.6016 65.5852 74.5403C65.6102 74.5092 65.641 74.4824 65.6724 74.4634C65.704 74.4444 65.7199 74.4429 65.7063 74.4457L66.509 78.3643ZM67.383 70.9326C66.3189 70.3314 65.2859 69.6681 64.2898 68.9443L61.9386 72.1804C63.0583 72.9939 64.2195 73.7396 65.4157 74.4153L67.383 70.9326ZM64.2898 68.9443C58.782 64.9427 54.6824 59.3001 52.5786 52.8253L48.7744 54.0614C51.1392 61.3395 55.7474 67.6822 61.9386 72.1804L64.2898 68.9443ZM52.5786 52.8253C51.557 49.6812 51.0315 46.4192 51.0021 43.1538L47.0022 43.1898C47.0353 46.8603 47.626 50.5271 48.7744 54.0614L52.5786 52.8253Z" fill="currentColor" />
</svg>