<svg viewBox="0 0 80 80" fill="none">
  <path fill-rule="evenodd" clip-rule="evenodd" d="M48.0001 44.0002H53.6678C56.2835 44.0002 57.5687 40.8158 55.6859 39.0002L43.7745 27.5143C41.7408 25.5532 38.5198 25.5532 36.4861 27.5143L24.5748 39.0002C22.6919 40.8158 23.9771 44.0002 26.5928 44.0002H32.0001L32.0001 54.0002V60.0002C32.0001 61.1048 32.8955 62.0002 34.0001 62.0002H46.0001C47.1047 62.0002 48.0001 61.1048 48.0001 60.0002L48.0001 54.0002V44.0002Z" fill="currentColor" fill-opacity="0.25" />
  <path d="M48.0001 44.0002V42.0002C46.8955 42.0002 46.0001 42.8956 46.0001 44.0002H48.0001ZM55.6859 39.0002L54.2976 40.4399L54.2976 40.4399L55.6859 39.0002ZM43.7745 27.5143L42.3862 28.954V28.954L43.7745 27.5143ZM36.4861 27.5143L35.0978 26.0746L35.0978 26.0746L36.4861 27.5143ZM24.5748 39.0002L23.1865 37.5605L24.5748 39.0002ZM32.0001 44.0002H34.0001C34.0001 42.8956 33.1047 42.0002 32.0001 42.0002V44.0002ZM32.0001 54.0002H34.0001H32.0001ZM48.0001 60.0002H50.0001H48.0001ZM48.0001 54.0002H46.0001H48.0001ZM53.6678 42.0002H48.0001V46.0002H53.6678V42.0002ZM54.2976 40.4399C54.8852 41.0065 54.4841 42.0002 53.6678 42.0002V46.0002C58.0829 46.0002 60.2523 40.6252 57.0741 37.5605L54.2976 40.4399ZM42.3862 28.954L54.2976 40.4399L57.0741 37.5605L45.1628 26.0746L42.3862 28.954ZM37.8744 28.954C39.1333 27.74 41.1273 27.74 42.3862 28.954L45.1628 26.0746C42.3543 23.3664 37.9063 23.3664 35.0978 26.0746L37.8744 28.954ZM25.963 40.4399L37.8744 28.954L35.0978 26.0746L23.1865 37.5605L25.963 40.4399ZM26.5928 42.0002C25.7765 42.0002 25.3755 41.0065 25.963 40.4399L23.1865 37.5605C20.0084 40.6252 22.1777 46.0002 26.5928 46.0002V42.0002ZM32.0001 42.0002H26.5928V46.0002H32.0001V42.0002ZM34.0001 54.0002L34.0001 44.0002H30.0001L30.0001 54.0002H34.0001ZM34.0001 60.0002V54.0002H30.0001V60.0002H34.0001ZM34.0001 60.0002H30.0001C30.0001 62.2094 31.791 64.0002 34.0001 64.0002V60.0002ZM46.0001 60.0002H34.0001V64.0002H46.0001V60.0002ZM46.0001 60.0002H46.0001V64.0002C48.2092 64.0002 50.0001 62.2094 50.0001 60.0002H46.0001ZM46.0001 54.0002L46.0001 60.0002H50.0001L50.0001 54.0002H46.0001ZM46.0001 44.0002V54.0002H50.0001V44.0002H46.0001Z" fill="currentColor" />
  <path d="M24 16H56" stroke="currentColor" stroke-width="4" stroke-linecap="round" />
</svg>