<svg viewBox="0 0 80 80" fill="none">
  <path d="M68 40C68 55.464 55.464 68 40 68C24.536 68 12 55.464 12 40C12 24.536 24.536 12 40 12C55.464 12 68 24.536 68 40Z" fill="currentColor" fill-opacity="0.15" />
  <path d="M66 40C66 54.3594 54.3594 66 40 66V70C56.5685 70 70 56.5685 70 40H66ZM40 66C25.6406 66 14 54.3594 14 40H10C10 56.5685 23.4315 70 40 70V66ZM14 40C14 25.6406 25.6406 14 40 14V10C23.4315 10 10 23.4315 10 40H14ZM40 14C54.3594 14 66 25.6406 66 40H70C70 23.4315 56.5685 10 40 10V14Z" fill="currentColor" />
  <path d="M42 27.7426C42 26.6381 41.1046 25.7426 40 25.7426C38.8954 25.7426 38 26.6381 38 27.7426H42ZM38 36.9842C38 38.0887 38.8954 38.9842 40 38.9842C41.1046 38.9842 42 38.0887 42 36.9842H38ZM42 37.0001C42 35.8955 41.1046 35.0001 40 35.0001C38.8954 35.0001 38 35.8955 38 37.0001H42ZM38 54.0001C38 55.1046 38.8954 56.0001 40 56.0001C41.1046 56.0001 42 55.1046 42 54.0001H38ZM38 27.7426V36.9842H42V27.7426H38ZM38 37.0001V54.0001H42V37.0001H38Z" fill="currentColor" />
  <path d="M52 37L42.1213 27.1213C40.9497 25.9497 39.0503 25.9497 37.8787 27.1213L28 37" stroke="currentColor" stroke-width="4" stroke-linecap="round" stroke-linejoin="round" />
</svg>