<svg viewBox="0 0 80 80" fill="none">
  <path d="M16 30L16 29.5L16 16C16 13.7909 17.7909 12 20 12L60 12C62.2091 12 64 13.7909 64 16L64 29.5L64 30" stroke="currentColor" stroke-width="4" stroke-linecap="round" stroke-linejoin="round" />
  <path fill-rule="evenodd" clip-rule="evenodd" d="M48 44.0002L56.4013 44.0002C59.5401 44.0002 61.0824 40.1789 58.8229 38.0002L43.8005 23.5143C41.7668 21.5532 38.5458 21.5532 36.5121 23.5143L21.4896 38.0002C19.2302 40.1789 20.7725 44.0002 23.9112 44.0002L32 44.0002L32 56.0002L32 62.0002C32 63.1048 32.8955 64.0002 34 64.0002L46 64.0002C47.1046 64.0002 48 63.1048 48 62.0002L48 56.0002L48 44.0002Z" fill="currentColor" fill-opacity="0.15" />
  <path d="M48 44.0002V42.0002C46.8955 42.0002 46 42.8956 46 44.0002L48 44.0002ZM58.8229 38.0002L60.2112 36.5605L58.8229 38.0002ZM43.8005 23.5143L45.1888 22.0746V22.0746L43.8005 23.5143ZM36.5121 23.5143L35.1238 22.0746L35.1238 22.0746L36.5121 23.5143ZM21.4896 38.0002L20.1013 36.5605H20.1013L21.4896 38.0002ZM32 44.0002L34 44.0002C34 42.8956 33.1046 42.0002 32 42.0002L32 44.0002ZM32 56.0002L34 56.0002L32 56.0002ZM56.4013 42.0002L48 42.0002V46.0002L56.4013 46.0002L56.4013 42.0002ZM57.4347 39.4399C58.3988 40.3696 57.7407 42.0002 56.4013 42.0002L56.4013 46.0002C61.3395 46.0002 63.7659 39.9883 60.2112 36.5605L57.4347 39.4399ZM42.4122 24.954L57.4347 39.4399L60.2112 36.5605L45.1888 22.0746L42.4122 24.954ZM37.9003 24.954C39.1593 23.74 41.1532 23.74 42.4122 24.954L45.1888 22.0746C42.3803 19.3664 37.9323 19.3664 35.1238 22.0746L37.9003 24.954ZM22.8779 39.4399L37.9003 24.954L35.1238 22.0746L20.1013 36.5605L22.8779 39.4399ZM23.9112 42.0002C22.5719 42.0002 21.9137 40.3696 22.8779 39.4399L20.1013 36.5605C16.5466 39.9883 18.9731 46.0002 23.9112 46.0002L23.9112 42.0002ZM32 42.0002L23.9112 42.0002L23.9112 46.0002L32 46.0002L32 42.0002ZM34 56.0002L34 44.0002L30 44.0002L30 56.0002L34 56.0002ZM34 62.0002L34 56.0002L30 56.0002L30 62.0002L34 62.0002ZM34 62.0002L30 62.0002C30 64.2094 31.7909 66.0002 34 66.0002L34 62.0002ZM46 62.0002L34 62.0002L34 66.0002L46 66.0002L46 62.0002ZM46 62.0002L46 66.0002C48.2092 66.0002 50 64.2094 50 62.0002L46 62.0002ZM46 56.0002L46 62.0002L50 62.0002L50 56.0002L46 56.0002ZM46 44.0002L46 56.0002L50 56.0002L50 44.0002L46 44.0002Z" fill="currentColor" />
</svg>