<svg viewBox="0 0 80 80" fill="none">
  <path d="M53.2856 41.9995C52.1811 41.9995 51.2856 41.1041 51.2856 39.9995C51.2856 38.8949 52.1811 37.9995 53.2856 37.9995L53.2856 41.9995ZM70.2856 37.9995C71.3902 37.9995 72.2856 38.8949 72.2856 39.9995C72.2856 41.1041 71.3902 41.9995 70.2856 41.9995L70.2856 37.9995ZM53.2856 37.9995L70.2856 37.9995L70.2856 41.9995L53.2856 41.9995L53.2856 37.9995Z" fill="currentColor" />
  <path d="M53.2856 45.8175L53.2856 34.1815C53.2856 33.0073 51.866 32.4192 51.0356 33.2495L46.407 37.8782C45.2354 39.0498 45.2354 40.9493 46.407 42.1208L51.0356 46.7495C51.866 47.5798 53.2856 46.9918 53.2856 45.8175Z" fill="currentColor" fill-opacity="0.15" stroke="currentColor" stroke-width="4" stroke-linecap="round" stroke-linejoin="round" />
  <path d="M26.7144 41.9995C27.8189 41.9995 28.7144 41.1041 28.7144 39.9995C28.7144 38.8949 27.8189 37.9995 26.7144 37.9995L26.7144 41.9995ZM9.71436 37.9995C8.60979 37.9995 7.71436 38.8949 7.71436 39.9995C7.71436 41.1041 8.60979 41.9995 9.71436 41.9995L9.71436 37.9995ZM26.7144 37.9995L9.71436 37.9995L9.71436 41.9995L26.7144 41.9995L26.7144 37.9995Z" fill="currentColor" />
  <path d="M26.7144 45.8175L26.7144 34.1815C26.7144 33.0073 28.134 32.4192 28.9644 33.2495L33.593 37.8782C34.7646 39.0498 34.7646 40.9493 33.593 42.1208L28.9644 46.7495C28.134 47.5798 26.7144 46.9918 26.7144 45.8175Z" fill="currentColor" fill-opacity="0.15" stroke="currentColor" stroke-width="4" stroke-linecap="round" stroke-linejoin="round" />
  <path d="M37.999 53.2866C37.999 52.1821 38.8945 51.2866 39.999 51.2866C41.1036 51.2866 41.999 52.1821 41.999 53.2866L37.999 53.2866ZM41.999 70.2866C41.999 71.3912 41.1036 72.2866 39.999 72.2866C38.8945 72.2866 37.999 71.3912 37.999 70.2866L41.999 70.2866ZM41.999 53.2866L41.999 70.2866L37.999 70.2866L37.999 53.2866L41.999 53.2866Z" fill="currentColor" />
  <path d="M34.181 53.2866L45.817 53.2866C46.9913 53.2866 47.5793 51.8669 46.749 51.0366L42.1203 46.4079C40.9488 45.2364 39.0493 45.2364 37.8777 46.4079L33.249 51.0366C32.4187 51.8669 33.0068 53.2866 34.181 53.2866Z" fill="currentColor" fill-opacity="0.15" stroke="currentColor" stroke-width="4" stroke-linecap="round" stroke-linejoin="round" />
  <path d="M37.999 26.7153C37.999 27.8199 38.8945 28.7153 39.999 28.7153C41.1036 28.7153 41.999 27.8199 41.999 26.7153L37.999 26.7153ZM41.999 9.71533C41.999 8.61076 41.1036 7.71533 39.999 7.71533C38.8945 7.71533 37.999 8.61076 37.999 9.71533L41.999 9.71533ZM41.999 26.7153L41.999 9.71533L37.999 9.71533L37.999 26.7153L41.999 26.7153Z" fill="currentColor" />
  <path d="M34.181 26.7153L45.817 26.7153C46.9913 26.7153 47.5793 28.135 46.749 28.9653L42.1203 33.594C40.9488 34.7656 39.0493 34.7656 37.8777 33.594L33.249 28.9653C32.4187 28.135 33.0068 26.7153 34.181 26.7153Z" fill="currentColor" fill-opacity="0.15" stroke="currentColor" stroke-width="4" stroke-linecap="round" stroke-linejoin="round" />
</svg>