<svg viewBox="0 0 80 80" fill="none">
  <path d="M38 28C38 26.8954 38.8954 26 40 26C41.1046 26 42 26.8954 42 28H38ZM52 65.9995C53.1046 65.9995 54 66.8949 54 67.9995C54 69.1041 53.1046 69.9995 52 69.9995V65.9995ZM42 28L42 59.9995H38L38 28H42ZM48 65.9995H52V69.9995H48V65.9995ZM42 59.9995C42 63.3132 44.6863 65.9995 48 65.9995V69.9995C42.4772 69.9995 38 65.5224 38 59.9995H42Z" fill="currentColor" />
  <path d="M29.6569 28L50.3431 28C52.4307 28 53.4761 25.4761 52 24L42.1213 14.1213C40.9497 12.9497 39.0503 12.9497 37.8787 14.1213L28 24C26.5239 25.4761 27.5693 28 29.6569 28Z" fill="currentColor" fill-opacity="0.15" stroke="currentColor" stroke-width="4" stroke-linecap="round" stroke-linejoin="round" />
</svg>