<svg viewBox="0 0 80 80" fill="none">
  <path d="M44 18C45.1046 18 46 17.1046 46 16C46 14.8954 45.1046 14 44 14V18ZM66 36C66 34.8954 65.1046 34 64 34C62.8954 34 62 34.8954 62 36H66ZM62 62H18V66H62V62ZM18 62V18H14V62H18ZM18 18H44V14H18V18ZM62 36V62H66V36H62ZM18 18V18V14C15.7909 14 14 15.7909 14 18H18ZM18 62H18H14C14 64.2091 15.7909 66 18 66V62ZM62 66C64.2091 66 66 64.2091 66 62H62V66Z" fill="currentColor" />
  <path d="M62.8995 19.9286C63.6805 19.1476 63.6805 17.8812 62.8995 17.1002C62.1184 16.3191 60.8521 16.3191 60.071 17.1002L62.8995 19.9286ZM34.615 42.5562C33.8339 43.3373 33.8339 44.6036 34.615 45.3847C35.396 46.1657 36.6624 46.1657 37.4434 45.3847L34.615 42.5562ZM60.071 17.1002L34.615 42.5562L37.4434 45.3847L62.8995 19.9286L60.071 17.1002Z" fill="currentColor" />
  <path d="M66.9716 24.0008L56.001 13.0302C54.894 11.9231 55.678 10.0302 57.2437 10.0302L66.9716 10.0302C68.6285 10.0302 69.9716 11.3733 69.9716 13.0302L69.9716 22.7581C69.9716 24.3238 68.0787 25.1078 66.9716 24.0008Z" fill="currentColor" fill-opacity="0.15" stroke="currentColor" stroke-linecap="round" stroke-linejoin="round" />
</svg>