<svg viewBox="0 0 80 80" fill="none">
  <path d="M42 19.241C42 18.1364 41.1046 17.241 40 17.241C38.8954 17.241 38 18.1364 38 19.241H42ZM38 33.9787C38 35.0833 38.8954 35.9787 40 35.9787C41.1046 35.9787 42 35.0833 42 33.9787H38ZM42 34.0001C42 32.8955 41.1046 32.0001 40 32.0001C38.8954 32.0001 38 32.8955 38 34.0001H42ZM38 57.0001C38 58.1046 38.8954 59.0001 40 59.0001C41.1046 59.0001 42 58.1046 42 57.0001H38ZM38 19.241V33.9787H42V19.241H38ZM38 34.0001V57.0001H42V34.0001H38Z" fill="currentColor" />
  <path d="M56 34L42.1213 20.1213C40.9497 18.9497 39.0503 18.9497 37.8787 20.1213L24 34" stroke="currentColor" stroke-width="4" stroke-linecap="round" stroke-linejoin="round" />
  <path d="M24 65H56" stroke="currentColor" stroke-width="4" stroke-linecap="round" />
</svg>