<svg viewBox="0 0 80 80" fill="none">
  <path fill-rule="evenodd" clip-rule="evenodd" d="M48.0001 43.9997H53.6678C56.2835 43.9997 57.5687 40.8153 55.6859 38.9997L43.7745 27.5138C41.7408 25.5527 38.5198 25.5527 36.4861 27.5138L24.5748 38.9997C22.6919 40.8153 23.9771 43.9997 26.5928 43.9997H32.0001L32.0001 53.9997V59.9997C32.0001 61.1043 32.8955 61.9997 34.0001 61.9997H46.0001C47.1047 61.9997 48.0001 61.1043 48.0001 59.9997L48.0001 53.9997V43.9997Z" fill="currentColor" fill-opacity="0.15" />
  <path d="M48.0001 43.9997V41.9997C46.8955 41.9997 46.0001 42.8952 46.0001 43.9997H48.0001ZM55.6859 38.9997L54.2976 40.4394L54.2976 40.4394L55.6859 38.9997ZM43.7745 27.5138L42.3862 28.9535V28.9535L43.7745 27.5138ZM36.4861 27.5138L35.0978 26.0741L35.0978 26.0741L36.4861 27.5138ZM24.5748 38.9997L23.1865 37.56L24.5748 38.9997ZM32.0001 43.9997H34.0001C34.0001 42.8952 33.1047 41.9997 32.0001 41.9997V43.9997ZM32.0001 53.9997H34.0001H32.0001ZM48.0001 59.9997H50.0001H48.0001ZM48.0001 53.9997H46.0001H48.0001ZM53.6678 41.9997H48.0001V45.9997H53.6678V41.9997ZM54.2976 40.4394C54.8852 41.006 54.4841 41.9997 53.6678 41.9997V45.9997C58.0829 45.9997 60.2523 40.6247 57.0741 37.56L54.2976 40.4394ZM42.3862 28.9535L54.2976 40.4394L57.0741 37.56L45.1628 26.0741L42.3862 28.9535ZM37.8744 28.9535C39.1333 27.7395 41.1273 27.7395 42.3862 28.9535L45.1628 26.0741C42.3543 23.3659 37.9063 23.3659 35.0978 26.0741L37.8744 28.9535ZM25.963 40.4394L37.8744 28.9535L35.0978 26.0741L23.1865 37.56L25.963 40.4394ZM26.5928 41.9997C25.7765 41.9997 25.3755 41.006 25.963 40.4394L23.1865 37.56C20.0084 40.6247 22.1777 45.9997 26.5928 45.9997V41.9997ZM32.0001 41.9997H26.5928V45.9997H32.0001V41.9997ZM34.0001 53.9997L34.0001 43.9997H30.0001L30.0001 53.9997H34.0001ZM34.0001 59.9997V53.9997H30.0001V59.9997H34.0001ZM34.0001 59.9997H30.0001C30.0001 62.2089 31.791 63.9997 34.0001 63.9997V59.9997ZM46.0001 59.9997H34.0001V63.9997H46.0001V59.9997ZM46.0001 59.9997H46.0001V63.9997C48.2092 63.9997 50.0001 62.2089 50.0001 59.9997H46.0001ZM46.0001 53.9997L46.0001 59.9997H50.0001L50.0001 53.9997H46.0001ZM46.0001 43.9997V53.9997H50.0001V43.9997H46.0001Z" fill="currentColor" />
  <path d="M24 16H56" stroke="currentColor" stroke-linecap="round" />
</svg>