<svg viewBox="0 0 80 80" fill="none">
  <path fill-rule="evenodd" clip-rule="evenodd" d="M50 14C50 12.8954 49.1046 12 48 12H32C30.8954 12 30 12.8954 30 14V30H14C12.8954 30 12 30.8954 12 32V48C12 49.1046 12.8954 50 14 50H30V66C30 67.1046 30.8954 68 32 68H48C49.1046 68 50 67.1046 50 66V50H66C67.1046 50 68 49.1046 68 48V32C68 30.8954 67.1046 30 66 30H50V14Z" fill="currentColor" fill-opacity="0.15" />
  <path d="M30 30V32H32V30H30ZM30 50H32V48H30V50ZM50 50V48H48V50H50ZM50 30H48V32H50V30ZM48 14H52C52 11.7909 50.2091 10 48 10V14ZM32 14H48V10H32V14ZM32 14V14V10C29.7909 10 28 11.7909 28 14H32ZM32 30V14H28V30H32ZM14 32H30V28H14V32ZM14 32V28C11.7909 28 10 29.7909 10 32H14ZM14 48V32H10V48H14ZM14 48H14H10C10 50.2091 11.7909 52 14 52V48ZM30 48H14V52H30V48ZM32 66V50H28V66H32ZM32 66H28C28 68.2091 29.7909 70 32 70V66ZM48 66H32V70H48V66ZM48 66V70C50.2091 70 52 68.2091 52 66H48ZM48 50V66H52V50H48ZM66 48H50V52H66V48ZM66 48V52C68.2091 52 70 50.2091 70 48H66ZM66 32V48H70V32H66ZM66 32H70C70 29.7909 68.2091 28 66 28V32ZM50 32H66V28H50V32ZM48 14V30H52V14H48Z" fill="currentColor" />
  <rect x="30" y="30" width="20" height="20" fill="currentColor" fill-opacity="0.15" stroke="currentColor" stroke-width="4" stroke-linecap="square" />
  <path d="M36 37H36.5V33H36V37ZM37 36.5V36H33V36.5H37ZM36.5 35.5H36V39.5H36.5V35.5ZM35.5 36V36.5H39.5V36H35.5ZM43.5 37H44V33H43.5V37ZM44.5 36.5V36H40.5V36.5H44.5ZM44 35.5H43.5V39.5H44V35.5ZM43 36V36.5H47V36H43ZM44 40.5H43.5V44.5H44V40.5ZM47 44V43.5H43V44H47ZM43.5 47H44V43H43.5V47ZM40.5 43.5V44H44.5V43.5H40.5ZM36 44.5H36.5V40.5H36V44.5ZM37 44V43.5H33V44H37ZM36.5 43H36V47H36.5V43ZM35.5 43.5V44H39.5V43.5H35.5ZM36.5 47C38.1569 47 39.5 45.6569 39.5 44H35.5C35.5 43.4477 35.9477 43 36.5 43V47ZM33 44C33 45.6569 34.3431 47 36 47V43C36.5523 43 37 43.4477 37 44H33ZM36.5 44.5C35.9477 44.5 35.5 44.0523 35.5 43.5H39.5C39.5 41.8431 38.1569 40.5 36.5 40.5V44.5ZM36 40.5C34.3431 40.5 33 41.8431 33 43.5H37C37 44.0523 36.5523 44.5 36 44.5V40.5ZM43.5 43C44.0523 43 44.5 43.4477 44.5 44H40.5C40.5 45.6569 41.8431 47 43.5 47V43ZM43 44C43 43.4477 43.4477 43 44 43V47C45.6569 47 47 45.6569 47 44H43ZM43.5 40.5C41.8431 40.5 40.5 41.8431 40.5 43.5H44.5C44.5 44.0523 44.0523 44.5 43.5 44.5V40.5ZM44 44.5C43.4477 44.5 43 44.0523 43 43.5H47C47 41.8431 45.6569 40.5 44 40.5V44.5ZM44 39.5C45.6569 39.5 47 38.1569 47 36.5H43C43 35.9477 43.4477 35.5 44 35.5V39.5ZM40.5 36.5C40.5 38.1569 41.8431 39.5 43.5 39.5V35.5C44.0523 35.5 44.5 35.9477 44.5 36.5H40.5ZM44 37C43.4477 37 43 36.5523 43 36H47C47 34.3431 45.6569 33 44 33V37ZM43.5 33C41.8431 33 40.5 34.3431 40.5 36H44.5C44.5 36.5523 44.0523 37 43.5 37V33ZM36.5 39.5C38.1569 39.5 39.5 38.1569 39.5 36.5H35.5C35.5 35.9477 35.9477 35.5 36.5 35.5V39.5ZM33 36.5C33 38.1569 34.3431 39.5 36 39.5V35.5C36.5523 35.5 37 35.9477 37 36.5H33ZM36.5 37C35.9477 37 35.5 36.5523 35.5 36H39.5C39.5 34.3431 38.1569 33 36.5 33V37ZM36 33C34.3431 33 33 34.3431 33 36H37C37 36.5523 36.5523 37 36 37V33Z" fill="currentColor" />
</svg>