<svg viewBox="0 0 80 80" fill="none">
  <path fill-rule="evenodd" clip-rule="evenodd" d="M38 4H42C45.3137 4 48 6.68629 48 10V35.4059C48 35.801 47.961 36.1951 47.8835 36.5826L44.0201 55.8993C44.0084 55.9579 43.957 56 43.8974 56H36.0949C36.0397 56 35.9922 55.9611 35.9814 55.907L32.1165 36.5826C32.039 36.1951 32 35.801 32 35.4059V10C32 6.68629 34.6863 4 38 4Z" fill="currentColor" fill-opacity="0.25" />
  <path d="M44.0201 55.8993L42.059 55.5071L42.059 55.5071L44.0201 55.8993ZM35.9814 55.907L34.0202 56.2992L34.0202 56.2992L35.9814 55.907ZM32.1165 36.5826L30.1554 36.9748H30.1554L32.1165 36.5826ZM42 2H38V6H42V2ZM50 10C50 5.58172 46.4183 2 42 2V6C44.2091 6 46 7.79086 46 10H50ZM50 35.4059V10H46V35.4059H50ZM49.8446 36.9748C49.948 36.4582 50 35.9327 50 35.4059H46C46 35.6693 45.974 35.9321 45.9223 36.1903L49.8446 36.9748ZM45.9813 56.2916L49.8446 36.9748L45.9223 36.1903L42.059 55.5071L45.9813 56.2916ZM43.8974 58C44.9104 58 45.7826 57.285 45.9813 56.2916L42.059 55.5071C42.2342 54.6308 43.0037 54 43.8974 54V58ZM43.8974 54H36.0949V58H43.8974V54ZM34.0202 56.2992C34.218 57.2881 35.0863 58 36.0949 58V54C36.9931 54 37.7664 54.634 37.9426 55.5147L34.0202 56.2992ZM30.1554 36.9748L34.0202 56.2992L37.9426 55.5147L34.0777 36.1903L30.1554 36.9748ZM30 35.4059C30 35.9327 30.052 36.4582 30.1554 36.9748L34.0777 36.1903C34.026 35.9321 34 35.6693 34 35.4059H30ZM30 10V35.4059H34V10H30ZM38 2C33.5817 2 30 5.58172 30 10H34C34 7.79086 35.7909 6 38 6V2Z" fill="currentColor" />
  <path d="M36 56L36 76L44 76L44 56L36 56Z" fill="currentColor" fill-opacity="0.25" stroke="currentColor" stroke-width="4" stroke-linecap="round" stroke-linejoin="round" />
  <path d="M45 76L43.3333 76L36.6667 76L35 76" stroke="currentColor" stroke-width="4" stroke-linecap="round" stroke-linejoin="round" />
</svg>