<svg viewBox="0 0 80 80" fill="none">
  <path d="M28.6863 12.6865C35.9304 9.68589 44.0697 9.68589 51.3138 12.6865C58.5578 15.6871 64.3132 21.4424 67.3138 28.6865C70.3143 35.9305 70.3143 44.0698 67.3138 51.3139C64.3132 58.5579 58.5578 64.3133 51.3138 67.3139C44.0697 70.3145 35.9304 70.3145 28.6863 67.3139C21.4423 64.3133 15.6869 58.5579 12.6863 51.3139C9.68577 44.0698 9.68576 35.9305 12.6863 28.6865C15.6869 21.4424 21.4423 15.6871 28.6863 12.6865Z" fill="currentColor" fill-opacity="0.25" />
  <path d="M10.5035 38L37.9997 38V10.5038C39.3315 10.4135 40.6679 10.4135 41.9997 10.5037V38L69.4964 38C69.5866 39.3318 69.5867 40.6682 69.4964 42H41.9997V69.4966C40.6679 69.5869 39.3315 69.5869 37.9997 69.4966V42H10.5035C10.4132 40.6682 10.4132 39.3318 10.5035 38Z" fill="currentColor" fill-opacity="0.25" />
  <path d="M19.4636 61.2677C22.0114 58.7269 24.0617 55.6875 25.4654 52.2987C28.263 45.5447 28.263 37.956 25.4654 31.202C23.7484 27.0568 21.0639 23.4344 17.6848 20.6077C18.5633 19.5968 19.5095 18.6468 20.5168 17.7642C24.2614 20.9674 27.2399 25.0336 29.1609 29.6713C32.3645 37.4054 32.3645 46.0953 29.1609 53.8294C27.5988 57.6008 25.3372 60.9943 22.5331 63.8531C21.4511 63.0607 20.4257 62.1967 19.4636 61.2677Z" fill="currentColor" fill-opacity="0.25" />
  <path d="M59.4827 17.7639C55.7379 20.9672 52.7592 25.0335 50.8382 29.6713C47.6346 37.4054 47.6346 46.0953 50.8382 53.8294C52.4004 57.601 54.662 60.9946 57.4663 63.8534C58.5483 63.0611 59.5737 62.1971 60.5358 61.2681C57.9879 58.7272 55.9375 55.6877 54.5337 52.2987C51.7361 45.5447 51.7361 37.956 54.5337 31.202C56.2508 27.0566 58.9354 23.4341 62.3147 20.6073C61.4362 19.5965 60.4899 18.6464 59.4827 17.7639Z" fill="currentColor" fill-opacity="0.25" />
</svg>