<svg viewBox="0 0 80 80" fill="none">
  <g clip-path="url(#clip0)">
    <path d="M28.6863 12.6863C35.9303 9.68571 44.0697 9.68571 51.3137 12.6863C58.5578 15.6869 64.3131 21.4422 67.3137 28.6863C70.3143 35.9303 70.3143 44.0697 67.3137 51.3137C64.3131 58.5578 58.5578 64.3131 51.3137 67.3137C44.0697 70.3143 35.9303 70.3143 28.6863 67.3137C21.4422 64.3131 15.6869 58.5578 12.6863 51.3137C9.68571 44.0697 9.68571 35.9303 12.6863 28.6863C15.6869 21.4422 21.4422 15.6869 28.6863 12.6863Z" fill="currentColor" fill-opacity="0.15" stroke="currentColor" stroke-linecap="round" stroke-linejoin="round" />
    <path fill-rule="evenodd" clip-rule="evenodd" d="M10.5035 38L37.9997 38V10.5038C39.3315 10.4135 40.6679 10.4135 41.9997 10.5037V38L69.4964 38C69.5866 39.3318 69.5867 40.6682 69.4964 42H41.9997V69.4966C40.6679 69.5869 39.3315 69.5869 37.9997 69.4966V42H10.5035C10.4132 40.6682 10.4132 39.3318 10.5035 38Z" fill="currentColor" />
    <path fill-rule="evenodd" clip-rule="evenodd" d="M19.4637 61.2675C22.0114 58.7267 24.0617 55.6873 25.4654 52.2985C28.263 45.5445 28.263 37.9558 25.4654 31.2018C23.7484 27.0566 21.0639 23.4342 17.6848 20.6075C18.5633 19.5966 19.5096 18.6466 20.5168 17.764C24.2614 20.9672 27.2399 25.0334 29.1609 29.6711C32.3645 37.4052 32.3645 46.0951 29.1609 53.8292C27.5988 57.6006 25.3372 60.9941 22.5331 63.8529C21.4511 63.0605 20.4257 62.1965 19.4637 61.2675ZM59.4827 17.7637C55.7379 20.967 52.7593 25.0333 50.8382 29.6711C47.6346 37.4052 47.6346 46.0951 50.8382 53.8292C52.4004 57.6008 54.6621 60.9944 57.4664 63.8532C58.5484 63.0609 59.5737 62.1969 60.5358 61.2679C57.9879 58.727 55.9375 55.6875 54.5337 52.2985C51.7361 45.5445 51.7361 37.9558 54.5337 31.2018C56.2508 27.0564 58.9355 23.4339 62.3147 20.6071C61.4362 19.5963 60.49 18.6462 59.4827 17.7637Z" fill="currentColor" />
  </g>
  <defs>
    <clipPath id="clip0">
      <rect width="64" height="64" fill="currentColor" transform="translate(8 8)" />
    </clipPath>
  </defs>
</svg>