<svg viewBox="0 0 80 80" fill="none">
  <path d="M26 70C23.7909 70 22 68.2091 22 66L22 18C22 15.7909 23.7909 14 26 14L54 14C56.2091 14 58 15.7909 58 18L58 66C58 68.2091 56.2091 70 54 70H26Z" fill="currentColor" fill-opacity="0.15" stroke="currentColor" stroke-width="4" stroke-linecap="round" stroke-linejoin="round" />
  <path d="M32.5 14C32.2239 14 32 13.7761 32 13.5C32 11.567 33.567 10 35.5 10L44.5 10C46.433 10 48 11.567 48 13.5C48 13.7761 47.7761 14 47.5 14L32.5 14Z" fill="currentColor" fill-opacity="0.15" stroke="currentColor" stroke-width="4" stroke-linecap="round" stroke-linejoin="round" />
  <path d="M30.1221 59H31.1221V55H30.1221V59ZM30.1221 61V59H26.1221V61H30.1221ZM31.1221 61H30.1221V65H31.1221V61ZM49.1221 61H31.1221V65H49.1221V61ZM50.1221 61H49.1221V65H50.1221V61ZM50.1221 59V61L54.1221 61V59L50.1221 59ZM49.1221 59H50.1221V55H49.1221V59ZM31.1221 59H49.1221V55H31.1221V59ZM54.1221 59C54.1221 56.7909 52.3312 55 50.1221 55V59L54.1221 59ZM26.1221 61C26.1221 63.2091 27.9129 65 30.1221 65V61H30.1221H26.1221ZM50.1221 65C52.3312 65 54.1221 63.2091 54.1221 61L50.1221 61V65ZM30.1221 55C27.9129 55 26.1221 56.7909 26.1221 59H30.1221L30.1221 59V55Z" fill="currentColor" />
</svg>