<svg viewBox="0 0 80 80" fill="none">
  <path d="M26 70C23.7909 70 22 68.2091 22 66L22 18C22 15.7909 23.7909 14 26 14L54 14C56.2091 14 58 15.7909 58 18L58 66C58 68.2091 56.2091 70 54 70H26Z" fill="currentColor" fill-opacity="0.25" stroke="currentColor" stroke-width="4" stroke-linecap="round" stroke-linejoin="round" />
  <path d="M32.5 14C32.2239 14 32 13.7761 32 13.5C32 11.567 33.567 10 35.5 10L44.5 10C46.433 10 48 11.567 48 13.5C48 13.7761 47.7761 14 47.5 14L32.5 14Z" fill="currentColor" fill-opacity="0.25" stroke="currentColor" stroke-width="4" stroke-linecap="round" stroke-linejoin="round" />
  <path d="M52.1221 61H54.1221H52.1221ZM52.1221 49L54.1221 49L52.1221 49ZM52.1221 59H54.1221H52.1221ZM52.1221 47L54.1221 47L52.1221 47ZM52.1221 35H54.1221H52.1221ZM31.1221 19H30.1221V23H31.1221V19ZM49.1221 19L31.1221 19V23L49.1221 23V19ZM50.1221 19H49.1221V23H50.1221V19ZM54.1221 25V23H50.1221V25H54.1221ZM49.1221 29H50.1221V25H49.1221V29ZM31.1221 29L49.1221 29V25L31.1221 25V29ZM30.1221 29H31.1221V25H30.1221V29ZM26.1221 23V25H30.1221V23H26.1221ZM30.1221 35H31.1221L31.1221 31H30.1221L30.1221 35ZM30.1221 37V35H26.1221V37H30.1221ZM31.1221 37H30.1221V41H31.1221V37ZM49.1221 37H31.1221V41H49.1221V37ZM50.1221 37H49.1221V41H50.1221V37ZM50.1221 35L50.1221 37L54.1221 37L54.1221 35L50.1221 35ZM49.1221 35H50.1221V31H49.1221V35ZM31.1221 35H49.1221V31L31.1221 31L31.1221 35ZM31.1221 43H30.1221V47H31.1221V43ZM49.1221 43H31.1221V47H49.1221V43ZM50.1221 43H49.1221V47H50.1221V43ZM54.1221 49L54.1221 47L50.1221 47L50.1221 49L54.1221 49ZM49.1221 53H50.1221V49H49.1221V53ZM31.1221 53H49.1221V49H31.1221L31.1221 53ZM30.1221 53H31.1221L31.1221 49H30.1221L30.1221 53ZM26.1221 47V49H30.1221V47H26.1221ZM31.1221 55H30.1221V59H31.1221V55ZM49.1221 55H31.1221V59H49.1221V55ZM50.1221 55H49.1221V59H50.1221V55ZM54.1221 61L54.1221 59L50.1221 59L50.1221 61L54.1221 61ZM49.1221 65H50.1221V61H49.1221V65ZM31.1221 65H49.1221V61H31.1221V65ZM30.1221 65H31.1221V61H30.1221V65ZM26.1221 59V61H30.1221V59H26.1221ZM50.1221 61V65C52.3312 65 54.1221 63.2091 54.1221 61L50.1221 61ZM30.1221 55C27.9129 55 26.1221 56.7909 26.1221 59H30.1221H30.1221V55ZM30.1221 49H30.1221H26.1221C26.1221 51.2091 27.9129 53 30.1221 53L30.1221 49ZM50.1221 49V53C52.3312 53 54.1221 51.2091 54.1221 49L50.1221 49ZM30.1221 43C27.9129 43 26.1221 44.7909 26.1221 47H30.1221H30.1221V43ZM50.1221 41C52.3312 41 54.1221 39.2091 54.1221 37L50.1221 37V41ZM26.1221 37C26.1221 39.2091 27.9129 41 30.1221 41V37H30.1221H26.1221ZM30.1221 25H26.1221C26.1221 27.2091 27.9129 29 30.1221 29V25ZM50.1221 59L54.1221 59C54.1221 56.7909 52.3312 55 50.1221 55V59ZM50.1221 25V29C52.3312 29 54.1221 27.2091 54.1221 25H50.1221ZM50.1221 47L54.1221 47C54.1221 44.7909 52.3312 43 50.1221 43V47ZM30.1221 61H30.1221H26.1221C26.1221 63.2091 27.9129 65 30.1221 65V61ZM30.1221 31C27.9129 31 26.1221 32.7909 26.1221 35H30.1221H30.1221L30.1221 31ZM54.1221 35C54.1221 32.7909 52.3312 31 50.1221 31V35L54.1221 35ZM50.1221 23V23H54.1221C54.1221 20.7909 52.3312 19 50.1221 19V23ZM30.1221 19C27.9129 19 26.1221 20.7909 26.1221 23H30.1221V19Z" fill="currentColor" />
</svg>