<svg viewBox="0 0 80 80" fill="none">
  <rect x="10" y="22" width="56" height="36" rx="4" fill="currentColor" fill-opacity="0.15" stroke="currentColor" stroke-linecap="round" />
  <path d="M66 32.5C66 32.2239 66.2239 32 66.5 32C68.433 32 70 33.567 70 35.5V44.5C70 46.433 68.433 48 66.5 48C66.2239 48 66 47.7761 66 47.5V32.5Z" fill="currentColor" fill-opacity="0.15" stroke="currentColor" stroke-linecap="round" />
  <path d="M23 31H25H23ZM23 49H21H23ZM29 31L31 31L29 31ZM29 49H27H29ZM25 31V30.3379H21V31H25ZM25 49L25 31H21L21 49H25ZM25 50V49H21V50H25ZM19 54H21V50H19V54ZM15 49V50H19V49H15ZM15 31L15 49H19L19 31H15ZM15 30.3379V31H19V30.3379H15ZM19 30.3379H21V26.3379H19V30.3379ZM27 30.3379V31L31 31V30.3379L27 30.3379ZM27 31L27 49H31L31 31L27 31ZM27 49V50H31V49H27ZM31 54H33V50H31V54ZM37 50V49H33V50H37ZM37 49V31H33V49H37ZM37 31V30.3379H33V31H37ZM31 30.3379H33V26.3379H31V30.3379ZM43 31V30.3379H39V31H43ZM43 49V31H39V49H43ZM43 50V49H39V50H43ZM45 50H43V54H45V50ZM45 49V50H49V49H45ZM45 31V49H49V31L45 31ZM45 30.3379V31L49 31V30.3379L45 30.3379ZM43 30.3379H45V26.3379H43V30.3379ZM51 30.3379V31H55V30.3379H51ZM51 31V49H55V31H51ZM51 49V50H55V49H51ZM55 54H57L57 50H55L55 54ZM61 50V49H57V50H61ZM61 49V31H57V49H61ZM61 31V30.3379H57V31H61ZM55 30.3379H57V26.3379H55V30.3379ZM57 54C59.2091 54 61 52.2091 61 50H57L57 54ZM49 30.3379C49 28.1288 47.2091 26.3379 45 26.3379V30.3379V30.3379L49 30.3379ZM45 54C47.2091 54 49 52.2091 49 50H45V54ZM43 30.3379V30.3379V26.3379C40.7909 26.3379 39 28.1288 39 30.3379H43ZM27 50C27 52.2091 28.7909 54 31 54V50H27ZM19 30.3379V30.3379V26.3379C16.7909 26.3379 15 28.1288 15 30.3379H19ZM37 30.3379C37 28.1288 35.2091 26.3379 33 26.3379V30.3379V30.3379H37ZM51 50C51 52.2091 52.7909 54 55 54L55 50H51ZM19 50H15C15 52.2091 16.7909 54 19 54V50ZM39 50C39 52.2091 40.7909 54 43 54V50H39ZM61 30.3379C61 28.1288 59.2091 26.3379 57 26.3379V30.3379V30.3379H61ZM31 30.3379V30.3379V26.3379C28.7909 26.3379 27 28.1288 27 30.3379L31 30.3379ZM21 50V54C23.2091 54 25 52.2091 25 50H21ZM33 54C35.2091 54 37 52.2091 37 50H33V54ZM55 30.3379V30.3379V26.3379C52.7909 26.3379 51 28.1288 51 30.3379H55ZM25 30.3379C25 28.1288 23.2091 26.3379 21 26.3379V30.3379V30.3379H25Z" fill="currentColor" />
</svg>