<svg viewBox="0 0 80 80" fill="none">
  <path fill-rule="evenodd" clip-rule="evenodd" d="M26 70C23.7909 70 22 68.2091 22 66L22 18C22 15.7909 23.7909 14 26 14L54 14C56.2091 14 58 15.7909 58 18L58 66C58 68.2091 56.2091 70 54 70H26ZM36.5377 45.7699L29.2952 45.7698C28.5068 45.7698 28.0285 44.9001 28.4507 44.2343L41.5705 23.5449C42.1068 22.6993 43.4151 23.0791 43.4151 24.0804V38.2297L50.6576 38.2298C51.446 38.2298 51.9243 39.0995 51.5021 39.7653L38.3823 60.4547C37.846 61.3003 36.5377 60.9205 36.5377 59.9192V45.7699Z" fill="currentColor" fill-opacity="0.15" />
  <path d="M22 66H24H22ZM22 18H20H22ZM58 18H56H58ZM58 66H60H58ZM29.2952 45.7698L29.2952 43.7698H29.2952L29.2952 45.7698ZM36.5377 45.7699H38.5377V43.7699L36.5377 43.7699L36.5377 45.7699ZM28.4507 44.2343L26.7617 43.1632H26.7617L28.4507 44.2343ZM41.5705 23.5449L43.2596 24.616V24.616L41.5705 23.5449ZM43.4151 38.2297H41.4151V40.2297L43.4151 40.2297L43.4151 38.2297ZM50.6576 38.2298L50.6576 40.2298H50.6576V38.2298ZM51.5021 39.7653L49.8131 38.6942L49.8131 38.6942L51.5021 39.7653ZM38.3823 60.4547L36.6932 59.3836H36.6932L38.3823 60.4547ZM20 66C20 69.3137 22.6863 72 26 72L26 68C24.8954 68 24 67.1046 24 66H20ZM20 18L20 66H24L24 18H20ZM26 12C22.6863 12 20 14.6863 20 18H24C24 16.8954 24.8954 16 26 16V12ZM54 12L26 12V16L54 16V12ZM60 18C60 14.6863 57.3137 12 54 12V16C55.1046 16 56 16.8954 56 18H60ZM60 66L60 18L56 18L56 66H60ZM54 72C57.3137 72 60 69.3137 60 66H56C56 67.1046 55.1046 68 54 68V72ZM26 72H54V68H26L26 72ZM29.2952 47.7698L36.5377 47.7699L36.5377 43.7699L29.2952 43.7698L29.2952 47.7698ZM26.7617 43.1632C25.4951 45.1606 26.9301 47.7698 29.2952 47.7698L29.2952 43.7698C30.0836 43.7698 30.5619 44.6396 30.1397 45.3054L26.7617 43.1632ZM39.8815 22.4738L26.7617 43.1632L30.1397 45.3054L43.2596 24.616L39.8815 22.4738ZM45.4151 24.0804C45.4151 21.0766 41.4902 19.9371 39.8815 22.4738L43.2596 24.616C42.7234 25.4615 41.4151 25.0817 41.4151 24.0804H45.4151ZM41.4151 24.0804V38.2297H45.4151V24.0804H41.4151ZM50.6576 36.2298L43.4151 36.2297L43.4151 40.2297L50.6576 40.2298L50.6576 36.2298ZM53.1911 40.8364C54.4577 38.839 53.0227 36.2298 50.6576 36.2298V40.2298C49.8692 40.2298 49.3909 39.36 49.8131 38.6942L53.1911 40.8364ZM40.0713 61.5258L53.1911 40.8364L49.8131 38.6942L36.6932 59.3836L40.0713 61.5258ZM34.5377 59.9192C34.5377 62.923 38.4626 64.0625 40.0713 61.5258L36.6932 59.3836C37.2294 58.5381 38.5377 58.9179 38.5377 59.9192H34.5377ZM38.5377 59.9192L38.5377 45.7699H34.5377V59.9192H38.5377Z" fill="currentColor" />
  <path fill-rule="evenodd" clip-rule="evenodd" d="M36.5377 45.7698L29.2952 45.7698C28.5068 45.7698 28.0285 44.9001 28.4507 44.2343L41.5705 23.5449C42.1068 22.6993 43.4151 23.0791 43.4151 24.0804L43.4151 38.2297L50.6576 38.2297C51.446 38.2297 51.9243 39.0995 51.5021 39.7653L38.3823 60.4547C37.846 61.3003 36.5377 60.9204 36.5377 59.9192L36.5377 45.7698Z" fill="currentColor" fill-opacity="0.15" />
  <path d="M36.5377 45.7698L38.5377 45.7698C38.5377 44.6653 37.6423 43.7698 36.5377 43.7698L36.5377 45.7698ZM29.2952 45.7698L29.2952 43.7698L29.2952 43.7698L29.2952 45.7698ZM28.4507 44.2343L26.7617 43.1632L26.7617 43.1632L28.4507 44.2343ZM41.5705 23.5449L43.2596 24.6159L43.2596 24.6159L41.5705 23.5449ZM43.4151 38.2297L41.4151 38.2297C41.4151 39.3343 42.3105 40.2297 43.4151 40.2297L43.4151 38.2297ZM50.6576 38.2297L50.6576 40.2297L50.6576 38.2297ZM51.5021 39.7653L49.8131 38.6942L49.8131 38.6942L51.5021 39.7653ZM38.3823 60.4547L36.6932 59.3836L36.6932 59.3836L38.3823 60.4547ZM36.5377 43.7698L29.2952 43.7698L29.2952 47.7698L36.5377 47.7698L36.5377 43.7698ZM29.2952 43.7698C30.0836 43.7698 30.5619 44.6396 30.1397 45.3054L26.7617 43.1632C25.4951 45.1606 26.9301 47.7698 29.2952 47.7698L29.2952 43.7698ZM30.1397 45.3054L43.2596 24.6159L39.8815 22.4738L26.7617 43.1632L30.1397 45.3054ZM43.2596 24.6159C42.7234 25.4615 41.4151 25.0817 41.4151 24.0804L45.4151 24.0804C45.4151 21.0766 41.4902 19.937 39.8815 22.4738L43.2596 24.6159ZM41.4151 24.0804L41.4151 38.2297L45.4151 38.2297L45.4151 24.0804L41.4151 24.0804ZM43.4151 40.2297L50.6576 40.2297L50.6576 36.2297L43.4151 36.2297L43.4151 40.2297ZM50.6576 40.2297C49.8692 40.2297 49.3909 39.36 49.8131 38.6942L53.1911 40.8363C54.4577 38.839 53.0227 36.2297 50.6576 36.2297L50.6576 40.2297ZM49.8131 38.6942L36.6932 59.3836L40.0713 61.5258L53.1911 40.8363L49.8131 38.6942ZM36.6932 59.3836C37.2294 58.538 38.5377 58.9179 38.5377 59.9192L34.5377 59.9192C34.5377 62.923 38.4626 64.0625 40.0713 61.5258L36.6932 59.3836ZM38.5377 59.9192L38.5377 45.7698L34.5377 45.7698L34.5377 59.9192L38.5377 59.9192Z" fill="currentColor" />
  <path d="M32.5 14C32.2239 14 32 13.7761 32 13.5C32 11.567 33.567 10 35.5 10L44.5 10C46.433 10 48 11.567 48 13.5C48 13.7761 47.7761 14 47.5 14L32.5 14Z" fill="currentColor" fill-opacity="0.15" stroke="currentColor" stroke-width="4" stroke-linecap="round" stroke-linejoin="round" />
</svg>