<svg viewBox="0 0 80 80" fill="none">
  <path d="M34.1587 65.9047H67.6191C67.8294 65.9047 68 65.7342 68 65.5238V60.2857C68 53.2901 62.3289 47.619 55.3333 47.619H35.3016C34.46 47.619 33.7778 48.3013 33.7778 49.1428V65.5238C33.7778 65.7342 33.9483 65.9047 34.1587 65.9047Z" fill="currentColor" fill-opacity="0.25" />
  <path d="M20.4306 52.1669C22.0766 51.236 24.0901 51.236 25.7361 52.1669L25.8192 52.2139C27.4585 53.141 28.472 54.8786 28.472 56.7619C28.472 58.6451 27.4585 60.3827 25.8192 61.3098L25.7361 61.3568C24.0901 62.2877 22.0766 62.2877 20.4306 61.3568L20.3475 61.3098C18.7082 60.3827 17.6948 58.6451 17.6948 56.7619C17.6948 54.8786 18.7082 53.141 20.3475 52.2139L20.4306 52.1669Z" fill="currentColor" fill-opacity="0.25" />
  <path d="M34.1587 33.9047H67.6191C67.8294 33.9047 68 33.7342 68 33.5238V28.2857C68 21.2901 62.3289 15.619 55.3333 15.619H35.3016C34.46 15.619 33.7778 16.3013 33.7778 17.1428V33.5238C33.7778 33.7342 33.9483 33.9047 34.1587 33.9047Z" fill="currentColor" fill-opacity="0.25" />
  <path d="M20.4306 20.1669C22.0766 19.236 24.0901 19.236 25.7361 20.1669L25.8192 20.2139C27.4585 21.141 28.472 22.8786 28.472 24.7619C28.472 26.6451 27.4585 28.3827 25.8192 29.3098L25.7361 29.3568C24.0901 30.2877 22.0766 30.2877 20.4306 29.3568L20.3475 29.3098C18.7082 28.3827 17.6948 26.6451 17.6948 24.7619C17.6948 22.8786 18.7082 21.141 20.3475 20.2139L20.4306 20.1669Z" fill="currentColor" fill-opacity="0.25" />
  <path d="M12 72V8M12 65.9047H68M68 65.9047L68 71.9999M68 65.9047V33.9047H12M67.6191 65.9047H34.1587C33.9483 65.9047 33.7778 65.7342 33.7778 65.5238V49.1428C33.7778 48.3012 34.46 47.619 35.3016 47.619H55.3333C62.329 47.619 68 53.2901 68 60.2857V65.5238C68 65.7342 67.8294 65.9047 67.6191 65.9047ZM17.6948 56.7619C17.6948 54.8786 18.7082 53.141 20.3475 52.2139L20.4306 52.1669C22.0766 51.236 24.0901 51.236 25.7361 52.1669L25.8192 52.2139C27.4585 53.141 28.472 54.8786 28.472 56.7619C28.472 58.6451 27.4585 60.3827 25.8192 61.3098L25.7361 61.3568C24.0901 62.2877 22.0766 62.2877 20.4306 61.3568L20.3475 61.3098C18.7082 60.3827 17.6948 58.6451 17.6948 56.7619ZM67.6191 33.9047H34.1587C33.9483 33.9047 33.7778 33.7342 33.7778 33.5238V17.1428C33.7778 16.3013 34.46 15.619 35.3016 15.619H55.3333C62.329 15.619 68 21.2901 68 28.2857V33.5238C68 33.7342 67.8294 33.9047 67.6191 33.9047ZM17.6948 24.7619C17.6948 22.8786 18.7082 21.141 20.3475 20.2139L20.4306 20.1669C22.0766 19.236 24.0901 19.236 25.7361 20.1669L25.8192 20.2139C27.4585 21.141 28.472 22.8786 28.472 24.7619C28.472 26.6451 27.4585 28.3827 25.8192 29.3098L25.7361 29.3568C24.0901 30.2877 22.0766 30.2877 20.4306 29.3568L20.3475 29.3098C18.7082 28.3827 17.6948 26.6451 17.6948 24.7619Z" stroke="currentColor" stroke-linecap="round" stroke-linejoin="round" />
</svg>