<svg viewBox="0 0 80 80" fill="none">
  <path d="M4 33C4 31.8954 4.89543 31 6 31H30C31.1046 31 32 31.8954 32 33V51C32 52.1046 31.1046 53 30 53H6C4.89543 53 4 52.1046 4 51V33Z" fill="currentColor" fill-opacity="0.25" />
  <path d="M32.5 53H75.5C75.7761 53 76 52.7761 76 52.5V45C76 36.1634 68.8366 29 60 29H34C32.8954 29 32 29.8954 32 31V52.5C32 52.7761 32.2239 53 32.5 53Z" fill="currentColor" fill-opacity="0.25" />
  <path d="M4 61V19M4 53H76V61M6 53H30C31.1046 53 32 52.1046 32 51V33C32 31.8954 31.1046 31 30 31H6C4.89543 31 4 31.8954 4 33V51C4 52.1046 4.89543 53 6 53ZM75.5 53H32.5C32.2239 53 32 52.7761 32 52.5V31C32 29.8954 32.8954 29 34 29H60C68.8366 29 76 36.1634 76 45V52.5C76 52.7761 75.7761 53 75.5 53Z" stroke="currentColor" stroke-linecap="round" stroke-linejoin="round" />
</svg>