<svg viewBox="0 0 80 80" fill="none">
  <path fill-rule="evenodd" clip-rule="evenodd" d="M33.7549 57C33.3124 57.9211 33.0718 58.9434 33.0718 60C33.0718 62.4752 34.3923 64.7624 36.5359 66C38.6795 67.2376 41.3205 67.2376 43.4641 66C45.6077 64.7624 46.9282 62.4752 46.9282 60C46.9282 58.9434 46.6876 57.9211 46.245 57H33.7549Z" fill="currentColor" fill-opacity="0.15" />
  <path d="M33.7549 57V55H32.497L31.9522 56.1338L33.7549 57ZM43.4641 66L44.4641 67.732L43.4641 66ZM46.245 57L48.0477 56.1338L47.5029 55H46.245V57ZM35.0718 60C35.0718 59.2481 35.2428 58.5214 35.5577 57.8662L31.9522 56.1338C31.382 57.3207 31.0718 58.6386 31.0718 60H35.0718ZM37.5359 64.2679C36.0111 63.3876 35.0718 61.7607 35.0718 60H31.0718C31.0718 63.1897 32.7735 66.1372 35.5359 67.732L37.5359 64.2679ZM42.4641 64.2679C40.9393 65.1483 39.0607 65.1483 37.5359 64.2679L35.5359 67.732C38.2983 69.3269 41.7017 69.3269 44.4641 67.732L42.4641 64.2679ZM44.9282 60C44.9282 61.7607 43.9889 63.3876 42.4641 64.2679L44.4641 67.732C47.2265 66.1372 48.9282 63.1897 48.9282 60H44.9282ZM44.4423 57.8662C44.7571 58.5214 44.9282 59.2481 44.9282 60H48.9282C48.9282 58.6386 48.618 57.3207 48.0477 56.1338L44.4423 57.8662ZM46.245 55H33.7549V59H46.245V55Z" fill="currentColor" />
  <path fill-rule="evenodd" clip-rule="evenodd" d="M39.6274 17C35.384 17 31.3143 18.6857 28.3137 21.6863L27.6863 22.3137C24.6857 25.3143 23 29.384 23 33.6274V36.5656C23 41.9665 20.8545 47.1461 17.0355 50.9651C16.3725 51.6281 16 52.5273 16 53.4649C16 55.4173 17.5828 57.0001 19.5352 57.0001L60.4648 57.0001C62.4172 57.0001 64 55.4173 64 53.4649C64 52.5273 63.6275 51.6281 62.9645 50.9651C59.1455 47.1461 57 41.9665 57 36.5656V33.6274C57 29.384 55.3143 25.3143 52.3137 22.3137L51.6863 21.6863C48.6857 18.6857 44.616 17 40.3726 17H39.6274Z" fill="currentColor" fill-opacity="0.15" />
  <path d="M28.3137 21.6863L29.7279 23.1005L28.3137 21.6863ZM52.3137 22.3137L53.7279 20.8995V20.8995L52.3137 22.3137ZM51.6863 21.6863L50.2721 23.1005L50.2721 23.1005L51.6863 21.6863ZM29.7279 23.1005C32.3534 20.475 35.9144 19 39.6274 19V15C34.8535 15 30.2752 16.8964 26.8995 20.2721L29.7279 23.1005ZM29.1005 23.7279L29.7279 23.1005L26.8995 20.2721L26.2721 20.8995L29.1005 23.7279ZM25 33.6274C25 29.9144 26.475 26.3534 29.1005 23.7279L26.2721 20.8995C22.8964 24.2751 21 28.8535 21 33.6274H25ZM25 36.5656V33.6274H21V36.5656H25ZM18 53.4649C18 53.0577 18.1617 52.6672 18.4497 52.3793L15.6213 49.5508C14.5832 50.5889 14 51.9968 14 53.4649H18ZM19.5352 55.0001C18.6873 55.0001 18 54.3127 18 53.4649H14C14 56.5219 16.4782 59.0001 19.5352 59.0001V55.0001ZM60.4648 55.0001L19.5352 55.0001V59.0001L60.4648 59.0001V55.0001ZM62 53.4649C62 54.3127 61.3127 55.0001 60.4648 55.0001V59.0001C63.5218 59.0001 66 56.5219 66 53.4649H62ZM61.5503 52.3793C61.8383 52.6672 62 53.0577 62 53.4649H66C66 51.9968 65.4168 50.5889 64.3787 49.5508L61.5503 52.3793ZM55 33.6274V36.5656H59V33.6274H55ZM50.8995 23.7279C53.525 26.3534 55 29.9144 55 33.6274H59C59 28.8535 57.1036 24.2752 53.7279 20.8995L50.8995 23.7279ZM50.2721 23.1005L50.8995 23.7279L53.7279 20.8995L53.1005 20.2721L50.2721 23.1005ZM40.3726 19C44.0856 19 47.6466 20.475 50.2721 23.1005L53.1005 20.2721C49.7249 16.8964 45.1465 15 40.3726 15V19ZM39.6274 19H40.3726V15H39.6274V19ZM64.3787 49.5508C60.9348 46.107 59 41.436 59 36.5656H55C55 42.4969 57.3562 48.1853 61.5503 52.3793L64.3787 49.5508ZM21 36.5656C21 41.436 19.0652 46.107 15.6213 49.5508L18.4497 52.3793C22.6438 48.1853 25 42.4969 25 36.5656H21Z" fill="currentColor" />
  <path fill-rule="evenodd" clip-rule="evenodd" d="M42 17.0829V14C42 12.8954 41.1046 12 40 12C38.8954 12 38 12.8954 38 14V17.0829C38.5383 17.0279 39.0814 17 39.6274 17H40.3726C40.9186 17 41.4617 17.0279 42 17.0829Z" fill="currentColor" fill-opacity="0.15" />
  <path d="M42 17.0829L41.7966 19.0726L44 19.2978V17.0829H42ZM38 17.0829H36V19.2978L38.2034 19.0726L38 17.0829ZM44 17.0829V14H40V17.0829H44ZM44 14C44 11.7909 42.2091 10 40 10V14V14H44ZM40 10C37.7909 10 36 11.7909 36 14H40V14V10ZM36 14V17.0829H40V14H36ZM39.6274 15C39.0133 15 38.4023 15.0314 37.7966 15.0933L38.2034 19.0726C38.6744 19.0244 39.1496 19 39.6274 19V15ZM40.3726 15H39.6274V19H40.3726V15ZM42.2034 15.0933C41.5977 15.0314 40.9867 15 40.3726 15V19C40.8504 19 41.3256 19.0244 41.7966 19.0726L42.2034 15.0933Z" fill="currentColor" />
</svg>