<svg viewBox="0 0 80 80" fill="none">
  <path fill-rule="evenodd" clip-rule="evenodd" d="M21.7549 57C21.3124 57.9211 21.0718 58.9434 21.0718 60C21.0718 62.4752 22.3923 64.7624 24.5359 66C26.6795 67.2376 29.3205 67.2376 31.4641 66C33.6077 64.7624 34.9282 62.4752 34.9282 60C34.9282 58.9434 34.6876 57.9211 34.245 57H21.7549Z" fill="currentColor" fill-opacity="0.15" />
  <path d="M21.7549 57V55H20.497L19.9522 56.1338L21.7549 57ZM31.4641 66L32.4641 67.732L31.4641 66ZM34.245 57L36.0477 56.1338L35.5029 55H34.245V57ZM23.0718 60C23.0718 59.2481 23.2428 58.5214 23.5577 57.8662L19.9522 56.1338C19.382 57.3207 19.0718 58.6386 19.0718 60H23.0718ZM25.5359 64.2679C24.0111 63.3876 23.0718 61.7607 23.0718 60H19.0718C19.0718 63.1897 20.7735 66.1372 23.5359 67.732L25.5359 64.2679ZM30.4641 64.2679C28.9393 65.1483 27.0607 65.1483 25.5359 64.2679L23.5359 67.732C26.2983 69.3269 29.7017 69.3269 32.4641 67.732L30.4641 64.2679ZM32.9282 60C32.9282 61.7607 31.9889 63.3876 30.4641 64.2679L32.4641 67.732C35.2265 66.1372 36.9282 63.1897 36.9282 60H32.9282ZM32.4423 57.8662C32.7571 58.5214 32.9282 59.2481 32.9282 60H36.9282C36.9282 58.6386 36.618 57.3207 36.0477 56.1338L32.4423 57.8662ZM34.245 55H21.7549V59H34.245V55Z" fill="currentColor" />
  <path fill-rule="evenodd" clip-rule="evenodd" d="M27.6274 17C23.384 17 19.3143 18.6857 16.3137 21.6863L15.6863 22.3137C12.6857 25.3143 11 29.384 11 33.6274V36.5656C11 41.9665 8.85449 47.1461 5.03546 50.9651C4.37247 51.6281 4 52.5273 4 53.4649C4 55.4173 5.58276 57.0001 7.53519 57.0001L48.4648 57.0001C50.4172 57.0001 52 55.4173 52 53.4649C52 52.5273 51.6275 51.6281 50.9645 50.9651C47.1455 47.1461 45 41.9665 45 36.5656V33.6274C45 29.384 43.3143 25.3143 40.3137 22.3137L39.6863 21.6863C36.6857 18.6857 32.616 17 28.3726 17H27.6274Z" fill="currentColor" fill-opacity="0.15" />
  <path d="M16.3137 21.6863L17.7279 23.1005L16.3137 21.6863ZM40.3137 22.3137L41.7279 20.8995V20.8995L40.3137 22.3137ZM39.6863 21.6863L38.2721 23.1005L38.2721 23.1005L39.6863 21.6863ZM17.7279 23.1005C20.3534 20.475 23.9144 19 27.6274 19V15C22.8535 15 18.2752 16.8964 14.8995 20.2721L17.7279 23.1005ZM17.1005 23.7279L17.7279 23.1005L14.8995 20.2721L14.2721 20.8995L17.1005 23.7279ZM13 33.6274C13 29.9144 14.475 26.3534 17.1005 23.7279L14.2721 20.8995C10.8964 24.2751 9 28.8535 9 33.6274H13ZM13 36.5656V33.6274H9V36.5656H13ZM6 53.4649C6 53.0577 6.16175 52.6672 6.44966 52.3793L3.62126 49.5508C2.58319 50.5889 2 51.9968 2 53.4649H6ZM7.53519 55.0001C6.68733 55.0001 6 54.3127 6 53.4649H2C2 56.5219 4.47819 59.0001 7.53519 59.0001L7.53519 55.0001ZM48.4648 55.0001L7.53519 55.0001L7.53519 59.0001L48.4648 59.0001V55.0001ZM50 53.4649C50 54.3127 49.3127 55.0001 48.4648 55.0001V59.0001C51.5218 59.0001 54 56.5219 54 53.4649H50ZM49.5503 52.3793C49.8383 52.6672 50 53.0577 50 53.4649H54C54 51.9968 53.4168 50.5889 52.3787 49.5508L49.5503 52.3793ZM43 33.6274V36.5656H47V33.6274H43ZM38.8995 23.7279C41.525 26.3534 43 29.9144 43 33.6274H47C47 28.8535 45.1036 24.2752 41.7279 20.8995L38.8995 23.7279ZM38.2721 23.1005L38.8995 23.7279L41.7279 20.8995L41.1005 20.2721L38.2721 23.1005ZM28.3726 19C32.0856 19 35.6466 20.475 38.2721 23.1005L41.1005 20.2721C37.7249 16.8964 33.1465 15 28.3726 15V19ZM27.6274 19H28.3726V15H27.6274V19ZM52.3787 49.5508C48.9348 46.107 47 41.436 47 36.5656H43C43 42.4969 45.3562 48.1853 49.5503 52.3793L52.3787 49.5508ZM9 36.5656C9 41.436 7.06521 46.107 3.62126 49.5508L6.44966 52.3793C10.6438 48.1853 13 42.4969 13 36.5656H9Z" fill="currentColor" />
  <path fill-rule="evenodd" clip-rule="evenodd" d="M30 17.0829V14C30 12.8954 29.1046 12 28 12C26.8954 12 26 12.8954 26 14V17.0829C26.5383 17.0279 27.0814 17 27.6274 17H28.3726C28.9186 17 29.4617 17.0279 30 17.0829Z" fill="currentColor" fill-opacity="0.15" />
  <path d="M30 17.0829L29.7966 19.0726L32 19.2978V17.0829H30ZM26 17.0829H24V19.2978L26.2034 19.0726L26 17.0829ZM32 17.0829V14H28V17.0829H32ZM32 14C32 11.7909 30.2091 10 28 10V14V14H32ZM28 10C25.7909 10 24 11.7909 24 14H28V14V10ZM24 14V17.0829H28V14H24ZM27.6274 15C27.0133 15 26.4023 15.0314 25.7966 15.0933L26.2034 19.0726C26.6744 19.0244 27.1496 19 27.6274 19V15ZM28.3726 15H27.6274V19H28.3726V15ZM30.2034 15.0933C29.5977 15.0314 28.9867 15 28.3726 15V19C28.8504 19 29.3256 19.0244 29.7966 19.0726L30.2034 15.0933Z" fill="currentColor" />
  <path d="M55.8926 22L64.9835 22L66.8017 22L75.8926 22" stroke="currentColor" stroke-width="4" stroke-linecap="round" stroke-linejoin="round" />
  <path d="M65.8926 12L65.8926 21.0909L65.8926 22.9091L65.8926 32" stroke="currentColor" stroke-width="4" stroke-linecap="round" stroke-linejoin="round" />
</svg>