<svg viewBox="0 0 80 80" fill="none">
  <path d="M20.5001 29.1676L19.3245 27.5495L18.5001 28.1485V29.1676H20.5001ZM34.0001 19.3593H36.0001V15.434L32.8245 17.7412L34.0001 19.3593ZM20.5001 39.5V41.5H22.5001V39.5H20.5001ZM16.2202 39.5V37.5H13.4675L14.3181 40.118L16.2202 39.5ZM22.5561 59L20.654 59.618L21.1031 61H22.5561V59ZM30.0001 59H32.0001V57H30.0001V59ZM30.0001 63.8435H28.0001V65.8435H30.0001V63.8435ZM50.0001 63.8435V65.8435H52.0001V63.8435H50.0001ZM50.0001 59V57H48.0001V59H50.0001ZM57.444 59V61H58.8971L59.3461 59.618L57.444 59ZM63.78 39.5L65.6821 40.118L66.5327 37.5H63.78V39.5ZM59.5001 39.5H57.5001L57.5001 41.5H59.5001L59.5001 39.5ZM59.5001 29.1676H61.5001V28.1485L60.6757 27.5495L59.5001 29.1676ZM46.0001 19.3593L47.1757 17.7412L44.0001 15.434V19.3593H46.0001ZM46.0001 21V23L48.0001 23V21H46.0001ZM34.0001 21H32.0001V23H34.0001V21ZM21.6757 30.7856L35.1757 20.9773L32.8245 17.7412L19.3245 27.5495L21.6757 30.7856ZM22.5001 39.5L22.5001 29.1676H18.5001L18.5001 39.5H22.5001ZM16.2202 41.5H20.5001V37.5H16.2202V41.5ZM24.4583 58.382L18.1223 38.882L14.3181 40.118L20.654 59.618L24.4583 58.382ZM30.0001 57H22.5561V61H30.0001V57ZM32.0001 63.8435V59H28.0001V63.8435H32.0001ZM50.0001 61.8435L30.0001 61.8435V65.8435H50.0001V61.8435ZM48.0001 59V63.8435H52.0001V59H48.0001ZM57.444 57H50.0001V61H57.444V57ZM61.8778 38.882L55.5419 58.382L59.3461 59.618L65.6821 40.118L61.8778 38.882ZM63.78 37.5H59.5001L59.5001 41.5H63.78L63.78 37.5ZM61.5001 39.5V29.1676H57.5001V39.5H61.5001ZM44.8245 20.9773L58.3245 30.7856L60.6757 27.5495L47.1757 17.7412L44.8245 20.9773ZM48.0001 21V19.3593H44.0001V21H48.0001ZM34.0001 23H46.0001V19H34.0001V23ZM32.0001 19.3593V21H36.0001V19.3593H32.0001Z" fill="currentColor" />
  <rect x="34" y="9" width="12" height="12" fill="currentColor" fill-opacity="0.15" stroke="currentColor" stroke-linecap="square" stroke-linejoin="round" />
  <rect x="18" y="59" width="12" height="12" fill="currentColor" fill-opacity="0.15" stroke="currentColor" stroke-linecap="square" stroke-linejoin="round" />
  <rect x="50" y="59" width="12" height="12" fill="currentColor" fill-opacity="0.15" stroke="currentColor" stroke-linecap="square" stroke-linejoin="round" />
  <rect x="8.5" y="27.5" width="12" height="12" fill="currentColor" fill-opacity="0.15" stroke="currentColor" stroke-linecap="square" stroke-linejoin="round" />
  <rect x="59.5" y="27.5" width="12" height="12" fill="currentColor" fill-opacity="0.15" stroke="currentColor" stroke-linecap="square" stroke-linejoin="round" />
</svg>