<svg viewBox="0 0 80 80" fill="none">
  <path d="M20 27.5001C20 25.6436 20.7376 23.863 22.0504 22.5503C23.3631 21.2376 25.1436 20.5 27 20.5C28.8565 20.5 30.637 21.2376 31.9497 22.5503C33.2624 23.863 34 25.6435 34 27.5V49.5003C34 45.7872 32.5249 42.226 29.8993 39.6005C27.2739 36.9751 23.7129 35.5 20 35.5C16.2871 35.5 12.7261 36.9751 10.1007 39.6005C9.24583 40.4554 8.51293 41.4094 7.9132 42.4356L7.90698 42.4339L14.6723 31.3359C15.8595 29.3884 17.8061 28.0615 20.0015 27.642C20.0005 27.5948 20 27.5475 20 27.5001Z" fill="currentColor" fill-opacity="0.25" />
  <path d="M33.9991 49.6622L34 49.5003C34 49.5543 33.9997 49.6083 33.9991 49.6622Z" fill="currentColor" fill-opacity="0.25" />
  <path d="M60.0002 27.5001C60.0002 25.6436 59.2626 23.863 57.9499 22.5503C56.6372 21.2376 54.8567 20.5 53.0002 20.5C51.1438 20.5 49.3633 21.2376 48.0506 22.5503C46.7379 23.863 46.0003 25.6435 46.0002 27.5V49.5003C46.0002 45.7872 47.4754 42.226 50.1009 39.6005C52.7263 36.9751 56.2873 35.5 60.0002 35.5C63.7131 35.5 67.2741 36.9751 69.8996 39.6005C70.7544 40.4554 71.4873 41.4094 72.087 42.4356L72.0933 42.4339L65.328 31.3359C64.1407 29.3884 62.1941 28.0615 59.9988 27.642C59.9997 27.5948 60.0002 27.5475 60.0002 27.5001Z" fill="currentColor" fill-opacity="0.25" />
  <path d="M46.0012 49.6622L46.0002 49.5003C46.0002 49.5543 46.0005 49.6083 46.0012 49.6622Z" fill="currentColor" fill-opacity="0.25" />
  <path d="M44.2426 25.2574C45.3677 26.3826 46 27.9087 46 29.5L46 43.5C46 41.9087 45.3677 40.3826 44.2426 39.2574C43.1174 38.1322 41.5912 37.5 40 37.5C38.4088 37.5 36.8826 38.1322 35.7574 39.2574C34.6369 40.3779 34.0052 41.8962 34 43.4804V29.5199L34 29.5001C34 27.9088 34.6322 26.3826 35.7574 25.2574C36.8826 24.1322 38.4088 23.5 40 23.5C41.5912 23.5 43.1174 24.1322 44.2426 25.2574Z" fill="currentColor" fill-opacity="0.25" />
  <path d="M46 43.5C46 41.9087 45.3677 40.3826 44.2426 39.2574C43.1174 38.1322 41.5912 37.5 40 37.5C38.4088 37.5 36.8826 38.1322 35.7574 39.2574C34.6322 40.3826 34 41.9088 34 43.5001C34 45.0914 34.6321 46.6175 35.7573 47.7427C36.8825 48.8679 38.4087 49.5 40 49.5C41.5913 49.5 43.1175 48.8679 44.2427 47.7427C45.3679 46.6175 46 45.0913 46 43.5Z" fill="currentColor" fill-opacity="0.25" />
  <path d="M6 49.5003C6 45.7872 7.47517 42.226 10.1007 39.6005C12.7261 36.9751 16.2871 35.5 20 35.5C23.7129 35.5 27.2739 36.9751 29.8993 39.6005C32.5249 42.226 34 45.7872 34 49.5003C34 53.2132 32.525 56.7741 29.8996 59.3996C27.2741 62.025 23.7129 63.5 20 63.5C16.2871 63.5 12.7259 62.025 10.1004 59.3996C7.47496 56.7741 6 53.2132 6 49.5003Z" fill="currentColor" fill-opacity="0.25" />
  <path d="M74 49.5003C74 45.7872 72.5251 42.226 69.8996 39.6005C67.2741 36.9751 63.7131 35.5 60.0002 35.5C56.2873 35.5 52.7263 36.9751 50.1009 39.6005C47.4754 42.226 46.0002 45.7872 46.0002 49.5003C46.0002 53.2132 47.475 56.7741 50.1004 59.3996C52.7259 62.025 56.2871 63.5 60 63.5C63.7129 63.5 67.2741 62.025 69.8996 59.3996C72.525 56.7741 74 53.2132 74 49.5003Z" fill="currentColor" fill-opacity="0.25" />
  <path d="M34 49.5003V27.5C34 25.6435 33.2624 23.863 31.9497 22.5503C30.637 21.2376 28.8565 20.5 27 20.5C25.1436 20.5 23.3631 21.2376 22.0504 22.5503C20.7376 23.863 20 25.6436 20 27.5001C20 27.5475 20.0005 27.5948 20.0015 27.642C17.8061 28.0615 15.8595 29.3884 14.6723 31.3359L7.90698 42.4339L7.9132 42.4356C8.51293 41.4094 9.24583 40.4554 10.1007 39.6005M34 49.5003C34 45.7872 32.5249 42.226 29.8993 39.6005C27.2739 36.9751 23.7129 35.5 20 35.5C16.2871 35.5 12.7261 36.9751 10.1007 39.6005M34 49.5003L33.9991 49.6622C33.9997 49.6083 34 49.5543 34 49.5003ZM34 49.5003C34 53.2132 32.525 56.7741 29.8996 59.3996C27.2741 62.025 23.7129 63.5 20 63.5C16.2871 63.5 12.7259 62.025 10.1004 59.3996C7.47496 56.7741 6 53.2132 6 49.5003C6 45.7872 7.47517 42.226 10.1007 39.6005M46.0002 49.5003V27.5C46.0003 25.6435 46.7379 23.863 48.0506 22.5503C49.3633 21.2376 51.1438 20.5 53.0002 20.5C54.8567 20.5 56.6372 21.2376 57.9499 22.5503C59.2626 23.863 60.0002 25.6436 60.0002 27.5001C60.0002 27.5475 59.9997 27.5948 59.9988 27.642C62.1941 28.0615 64.1407 29.3884 65.328 31.3359L72.0933 42.4339L72.087 42.4356C71.4873 41.4094 70.7544 40.4554 69.8996 39.6005M46.0002 49.5003C46.0002 45.7872 47.4754 42.226 50.1009 39.6005C52.7263 36.9751 56.2873 35.5 60.0002 35.5C63.7131 35.5 67.2741 36.9751 69.8996 39.6005M46.0002 49.5003L46.0012 49.6622C46.0005 49.6083 46.0002 49.5543 46.0002 49.5003ZM46.0002 49.5003C46.0002 53.2132 47.475 56.7741 50.1004 59.3996C52.7259 62.025 56.2871 63.5 60 63.5C63.7129 63.5 67.2741 62.025 69.8996 59.3996C72.525 56.7741 74 53.2132 74 49.5003C74 45.7872 72.5251 42.226 69.8996 39.6005M46 43.5L46 29.5C46 27.9087 45.3677 26.3826 44.2426 25.2574C43.1174 24.1322 41.5912 23.5 40 23.5C38.4088 23.5 36.8826 24.1322 35.7574 25.2574C34.6322 26.3826 34 27.9088 34 29.5001L34 29.5199V43.4804C34.0052 41.8962 34.6369 40.3779 35.7574 39.2574M46 43.5C46 41.9087 45.3677 40.3826 44.2426 39.2574C43.1174 38.1322 41.5912 37.5 40 37.5C38.4088 37.5 36.8826 38.1322 35.7574 39.2574M46 43.5C46 45.0913 45.3679 46.6175 44.2427 47.7427C43.1175 48.8679 41.5913 49.5 40 49.5C38.4087 49.5 36.8825 48.8679 35.7573 47.7427C34.6321 46.6175 34 45.0914 34 43.5001C34 41.9088 34.6322 40.3826 35.7574 39.2574" stroke="currentColor" stroke-width="4" stroke-linecap="round" stroke-linejoin="round" />
</svg>