<svg viewBox="0 0 80 80" fill="none">
  <path fill-rule="evenodd" clip-rule="evenodd" d="M20.0003 27.5001C20.0003 25.6436 20.7378 23.863 22.0506 22.5503C23.3633 21.2376 25.1438 20.5 27.0003 20.5C28.8567 20.5 30.6372 21.2376 31.9499 22.5503C33.2626 23.863 34.0002 25.6435 34.0003 27.5V27.5001V49.5003C34.0003 45.7872 32.5251 42.226 29.8996 39.6005C27.2742 36.9751 23.7132 35.5 20.0003 35.5C16.2873 35.5 12.7263 36.9751 10.1009 39.6005C9.24608 40.4554 8.51318 41.4094 7.91344 42.4356L7.90723 42.4339L14.6725 31.3359C15.8598 29.3884 17.8064 28.0615 20.0017 27.642C20.0007 27.5948 20.0003 27.5475 20.0003 27.5001ZM33.9993 49.6622L34.0003 49.6625V49.5003C34.0003 49.5543 33.9999 49.6083 33.9993 49.6622Z" fill="currentColor" fill-opacity="0.15" />
  <path d="M22.0506 22.5503L20.6364 21.1361L20.6364 21.1361L22.0506 22.5503ZM31.9499 22.5503L33.3641 21.1361V21.1361L31.9499 22.5503ZM34.0003 27.5H36.0003V27.5L34.0003 27.5ZM10.1009 39.6005L11.5151 41.0147L11.5151 41.0147L10.1009 39.6005ZM7.91344 42.4356L7.37973 44.3631C8.25429 44.6052 9.18228 44.2282 9.64017 43.4448L7.91344 42.4356ZM7.90723 42.4339L6.19952 41.3929C5.87303 41.9284 5.81671 42.5861 6.04739 43.1694C6.27807 43.7527 6.76903 44.194 7.37352 44.3613L7.90723 42.4339ZM14.6725 31.3359L16.3802 32.3769L14.6725 31.3359ZM20.0017 27.642L20.377 29.6065C21.3348 29.4235 22.021 28.5765 22.0013 27.6016L20.0017 27.642ZM33.9993 49.6622L31.9995 49.6391C31.989 50.5466 32.5908 51.3474 33.4655 51.5897L33.9993 49.6622ZM34.0003 49.6625L33.4664 51.5899C34.0685 51.7567 34.7139 51.6325 35.2111 51.2543C35.7083 50.8761 36.0003 50.2872 36.0003 49.6625H34.0003ZM20.6364 21.1361C18.9486 22.8239 18.0003 25.1132 18.0003 27.5001H22.0003C22.0003 26.1741 22.5271 24.9022 23.4648 23.9645L20.6364 21.1361ZM27.0003 18.5C24.6133 18.5 22.3241 19.4483 20.6364 21.1361L23.4648 23.9645C24.4025 23.0268 25.6743 22.5 27.0003 22.5V18.5ZM33.3641 21.1361C31.6764 19.4483 29.3872 18.5 27.0003 18.5V22.5C28.3262 22.5 29.598 23.0268 30.5357 23.9645L33.3641 21.1361ZM36.0003 27.5C36.0002 25.113 35.0519 22.8238 33.3641 21.1361L30.5357 23.9645C31.4734 24.9022 32.0002 26.174 32.0003 27.5L36.0003 27.5ZM36.0003 27.5001V27.5H32.0003V27.5001H36.0003ZM36.0003 49.5003V27.5001H32.0003V49.5003H36.0003ZM28.4854 41.0147C30.7358 43.2652 32.0003 46.3177 32.0003 49.5003H36.0003C36.0003 45.2568 34.3144 41.1869 31.3138 38.1863L28.4854 41.0147ZM20.0003 37.5C23.1827 37.5 26.235 38.7644 28.4854 41.0147L31.3138 38.1863C28.3133 35.1858 24.2436 33.5 20.0003 33.5V37.5ZM11.5151 41.0147C13.7655 38.7644 16.8178 37.5 20.0003 37.5V33.5C15.7569 33.5 11.6872 35.1858 8.68671 38.1863L11.5151 41.0147ZM9.64017 43.4448C10.1542 42.5652 10.7823 41.7475 11.5151 41.0147L8.68671 38.1863C7.70981 39.1632 6.87216 40.2536 6.18671 41.4264L9.64017 43.4448ZM7.37352 44.3613L7.37973 44.3631L8.44715 40.5081L8.44093 40.5064L7.37352 44.3613ZM12.9648 30.2949L6.19952 41.3929L9.61494 43.4749L16.3802 32.3769L12.9648 30.2949ZM19.6264 25.6776C16.8823 26.2018 14.449 27.8602 12.9648 30.2949L16.3802 32.3769C17.2705 30.9165 18.7304 29.9211 20.377 29.6065L19.6264 25.6776ZM18.0003 27.5001C18.0003 27.561 18.0009 27.6218 18.0021 27.6825L22.0013 27.6016C22.0006 27.5678 22.0003 27.534 22.0003 27.5001H18.0003ZM33.4655 51.5897L33.4664 51.5899L34.5341 47.7351L34.5332 47.7348L33.4655 51.5897ZM36.0003 49.6625V49.5003H32.0003V49.6625H36.0003ZM32.0003 49.5003C32.0003 49.5466 32 49.5929 31.9995 49.6391L35.9992 49.6854C35.9999 49.6237 36.0003 49.562 36.0003 49.5003H32.0003Z" fill="currentColor" />
  <path fill-rule="evenodd" clip-rule="evenodd" d="M59.9997 27.5001C59.9997 25.6436 59.2622 23.863 57.9494 22.5503C56.6367 21.2376 54.8562 20.5 52.9997 20.5C51.1433 20.5 49.3628 21.2376 48.0501 22.5503C46.7374 23.863 45.9998 25.6435 45.9997 27.5V27.5001V49.5003C45.9997 45.7872 47.4749 42.226 50.1004 39.6005C52.7258 36.9751 56.2868 35.5 59.9997 35.5C63.7127 35.5 67.2737 36.9751 69.8991 39.6005C70.7539 40.4554 71.4868 41.4094 72.0866 42.4356L72.0928 42.4339L65.3275 31.3359C64.1402 29.3884 62.1936 28.0615 59.9983 27.642C59.9993 27.5948 59.9997 27.5475 59.9997 27.5001ZM46.0007 49.6622L45.9997 49.6625V49.5003C45.9997 49.5543 46.0001 49.6083 46.0007 49.6622Z" fill="currentColor" fill-opacity="0.15" />
  <path d="M57.9494 22.5503L59.3636 21.1361L59.3636 21.1361L57.9494 22.5503ZM48.0501 22.5503L46.6359 21.1361V21.1361L48.0501 22.5503ZM45.9997 27.5H43.9997V27.5L45.9997 27.5ZM69.8991 39.6005L68.4849 41.0147L68.4849 41.0147L69.8991 39.6005ZM72.0866 42.4356L72.6203 44.3631C71.7457 44.6052 70.8177 44.2282 70.3598 43.4448L72.0866 42.4356ZM72.0928 42.4339L73.8005 41.3929C74.127 41.9284 74.1833 42.5861 73.9526 43.1694C73.7219 43.7527 73.231 44.194 72.6265 44.3613L72.0928 42.4339ZM65.3275 31.3359L63.6198 32.3769L65.3275 31.3359ZM59.9983 27.642L59.623 29.6065C58.6652 29.4235 57.979 28.5765 57.9987 27.6016L59.9983 27.642ZM46.0007 49.6622L48.0005 49.6391C48.011 50.5466 47.4092 51.3474 46.5345 51.5897L46.0007 49.6622ZM45.9997 49.6625L46.5336 51.5899C45.9315 51.7567 45.2861 51.6325 44.7889 51.2543C44.2917 50.8761 43.9997 50.2872 43.9997 49.6625H45.9997ZM59.3636 21.1361C61.0514 22.8239 61.9997 25.1132 61.9997 27.5001H57.9997C57.9997 26.1741 57.4729 24.9022 56.5352 23.9645L59.3636 21.1361ZM52.9997 18.5C55.3867 18.5 57.6759 19.4483 59.3636 21.1361L56.5352 23.9645C55.5975 23.0268 54.3257 22.5 52.9997 22.5V18.5ZM46.6359 21.1361C48.3236 19.4483 50.6128 18.5 52.9997 18.5V22.5C51.6738 22.5 50.402 23.0268 49.4643 23.9645L46.6359 21.1361ZM43.9997 27.5C43.9998 25.113 44.9481 22.8238 46.6359 21.1361L49.4643 23.9645C48.5266 24.9022 47.9998 26.174 47.9997 27.5L43.9997 27.5ZM43.9997 27.5001V27.5H47.9997V27.5001H43.9997ZM43.9997 49.5003V27.5001H47.9997V49.5003H43.9997ZM51.5146 41.0147C49.2642 43.2652 47.9997 46.3177 47.9997 49.5003H43.9997C43.9997 45.2568 45.6856 41.1869 48.6862 38.1863L51.5146 41.0147ZM59.9997 37.5C56.8173 37.5 53.765 38.7644 51.5146 41.0147L48.6862 38.1863C51.6867 35.1858 55.7564 33.5 59.9997 33.5V37.5ZM68.4849 41.0147C66.2345 38.7644 63.1822 37.5 59.9997 37.5V33.5C64.2431 33.5 68.3128 35.1858 71.3133 38.1863L68.4849 41.0147ZM70.3598 43.4448C69.8458 42.5652 69.2177 41.7475 68.4849 41.0147L71.3133 38.1863C72.2902 39.1632 73.1278 40.2536 73.8133 41.4264L70.3598 43.4448ZM72.6265 44.3613L72.6203 44.3631L71.5529 40.5081L71.5591 40.5064L72.6265 44.3613ZM67.0352 30.2949L73.8005 41.3929L70.3851 43.4749L63.6198 32.3769L67.0352 30.2949ZM60.3736 25.6776C63.1177 26.2018 65.551 27.8602 67.0352 30.2949L63.6198 32.3769C62.7295 30.9165 61.2696 29.9211 59.623 29.6065L60.3736 25.6776ZM61.9997 27.5001C61.9997 27.561 61.9991 27.6218 61.9979 27.6825L57.9987 27.6016C57.9994 27.5678 57.9997 27.534 57.9997 27.5001H61.9997ZM46.5345 51.5897L46.5336 51.5899L45.4659 47.7351L45.4668 47.7348L46.5345 51.5897ZM43.9997 49.6625V49.5003H47.9997V49.6625H43.9997ZM47.9997 49.5003C47.9997 49.5466 48 49.5929 48.0005 49.6391L44.0008 49.6854C44.0001 49.6237 43.9997 49.562 43.9997 49.5003H47.9997Z" fill="currentColor" />
  <path fill-rule="evenodd" clip-rule="evenodd" d="M44.2426 25.2574C45.3677 26.3826 46 27.9087 46 29.5H46V43.5H46C46 41.9087 45.3677 40.3826 44.2426 39.2574C43.1174 38.1322 41.5912 37.5 40 37.5C38.4088 37.5 36.8826 38.1322 35.7574 39.2574C34.6369 40.3779 34.0052 41.8962 34 43.4804V29.5199L34 29.5001C34 27.9088 34.6322 26.3826 35.7574 25.2574C36.8826 24.1322 38.4088 23.5 40 23.5C41.5912 23.5 43.1174 24.1322 44.2426 25.2574Z" fill="currentColor" fill-opacity="0.15" />
  <path d="M46 29.5L44 29.5L44 31.5H46V29.5ZM44.2426 25.2574L45.6568 23.8432L45.6568 23.8432L44.2426 25.2574ZM46 29.5H48V27.5H46V29.5ZM46 43.5V45.5H48V43.5H46ZM46 43.5L44 43.5L44 45.5H46V43.5ZM44.2426 39.2574L45.6568 37.8432V37.8432L44.2426 39.2574ZM35.7574 39.2574L37.1717 40.6716H37.1717L35.7574 39.2574ZM34 43.4804H32L36 43.487L34 43.4804ZM34 29.5199H36L36 29.5166L34 29.5199ZM34 29.5001H32L32 29.5034L34 29.5001ZM35.7574 25.2574L37.1717 26.6716L37.1717 26.6716L35.7574 25.2574ZM48 29.5C48 27.3783 47.157 25.3434 45.6568 23.8432L42.8283 26.6716C43.5785 27.4217 44 28.4392 44 29.5L48 29.5ZM46 27.5H46V31.5H46V27.5ZM48 43.5V29.5H44V43.5H48ZM46 45.5H46V41.5H46V45.5ZM48 43.5C48 41.3783 47.157 39.3434 45.6568 37.8432L42.8283 40.6716C43.5785 41.4217 44 42.4392 44 43.5L48 43.5ZM45.6568 37.8432C44.1566 36.3429 42.1217 35.5 40 35.5V39.5C41.0608 39.5 42.0782 39.9215 42.8283 40.6716L45.6568 37.8432ZM40 35.5C37.8783 35.5 35.8434 36.3429 34.3432 37.8432L37.1717 40.6716C37.9218 39.9215 38.9392 39.5 40 39.5V35.5ZM34.3432 37.8432C32.8492 39.3372 32.007 41.3615 32 43.4738L36 43.487C36.0035 42.4309 36.4246 41.4186 37.1717 40.6716L34.3432 37.8432ZM32 29.5199V43.4804H36V29.5199H32ZM32 29.5034L32 29.5232L36 29.5166L36 29.4968L32 29.5034ZM34.3432 23.8432C32.843 25.3434 32 27.3784 32 29.5001H36C36 28.4393 36.4215 27.4218 37.1717 26.6716L34.3432 23.8432ZM40 21.5C37.8783 21.5 35.8434 22.3429 34.3432 23.8432L37.1717 26.6716C37.9218 25.9215 38.9392 25.5 40 25.5V21.5ZM45.6568 23.8432C44.1566 22.3429 42.1217 21.5 40 21.5V25.5C41.0608 25.5 42.0782 25.9215 42.8283 26.6716L45.6568 23.8432Z" fill="currentColor" />
  <path fill-rule="evenodd" clip-rule="evenodd" d="M46 43.5001C46 41.9088 45.3678 40.3826 44.2426 39.2574C43.1174 38.1322 41.5912 37.5 40 37.5C38.4088 37.5 36.8826 38.1322 35.7574 39.2574C34.6322 40.3826 34 41.9088 34 43.5001C34 45.0914 34.6321 46.6175 35.7573 47.7427C36.8825 48.8679 38.4087 49.5 40 49.5C41.5913 49.5 43.1175 48.8679 44.2427 47.7427C45.3679 46.6175 46 45.0914 46 43.5001Z" fill="currentColor" fill-opacity="0.15" />
  <path d="M42.8285 46.3285C43.5786 45.5784 44 44.561 44 43.5001H48C48 45.6218 47.1572 47.6566 45.6569 49.1569L42.8285 46.3285ZM40 47.5C41.0609 47.5 42.0784 47.0785 42.8285 46.3285L45.6569 49.1569C44.1566 50.6572 42.1216 51.5 40 51.5V47.5ZM37.1715 46.3285C37.9216 47.0785 38.9391 47.5 40 47.5V51.5C37.8784 51.5 35.8434 50.6572 34.3431 49.1569L37.1715 46.3285ZM36 43.5001C36 44.561 36.4214 45.5784 37.1715 46.3285L34.3431 49.1569C32.8428 47.6566 32 45.6218 32 43.5001H36ZM37.1717 40.6716C36.4215 41.4218 36 42.4393 36 43.5001H32C32 41.3784 32.843 39.3434 34.3432 37.8432L37.1717 40.6716ZM40 39.5C38.9392 39.5 37.9218 39.9215 37.1717 40.6716L34.3432 37.8432C35.8434 36.3429 37.8783 35.5 40 35.5V39.5ZM42.8283 40.6716C42.0782 39.9215 41.0608 39.5 40 39.5V35.5C42.1217 35.5 44.1566 36.3429 45.6568 37.8432L42.8283 40.6716ZM45.6568 37.8432C47.157 39.3434 48 41.3784 48 43.5001H44C44 42.4393 43.5785 41.4218 42.8283 40.6716L45.6568 37.8432Z" fill="currentColor" />
  <path fill-rule="evenodd" clip-rule="evenodd" d="M6 49.5003C6 45.7872 7.47516 42.226 10.1007 39.6005C12.7261 36.9751 16.2871 35.5 20 35.5C23.7129 35.5 27.2739 36.9751 29.8993 39.6005C32.5248 42.226 34 45.7872 34 49.5003C34 53.2132 32.525 56.7741 29.8996 59.3996C27.2741 62.025 23.7129 63.5 20 63.5C16.2871 63.5 12.7259 62.025 10.1004 59.3996C7.47496 56.7741 6 53.2132 6 49.5003Z" fill="currentColor" fill-opacity="0.15" />
  <path d="M11.5146 57.9854C9.26426 55.735 8 52.6828 8 49.5003H4C4 53.7436 5.68567 57.8133 8.6862 60.8138L11.5146 57.9854ZM20 61.5C16.8174 61.5 13.765 60.2357 11.5146 57.9854L8.6862 60.8138C11.6868 63.8144 15.7567 65.5 20 65.5V61.5ZM28.4854 57.9854C26.235 60.2357 23.1826 61.5 20 61.5V65.5C24.2433 65.5 28.3132 63.8144 31.3138 60.8138L28.4854 57.9854ZM32 49.5003C32 52.6828 30.7357 55.735 28.4854 57.9854L31.3138 60.8138C34.3143 57.8133 36 53.7436 36 49.5003H32ZM28.4851 41.0147C30.7356 43.2652 32 46.3177 32 49.5003H36C36 45.2568 34.3141 41.1869 31.3135 38.1863L28.4851 41.0147ZM20 37.5C23.1824 37.5 26.2347 38.7644 28.4851 41.0147L31.3135 38.1863C28.3131 35.1858 24.2434 33.5 20 33.5V37.5ZM11.5149 41.0147C13.7653 38.7644 16.8176 37.5 20 37.5V33.5C15.7566 33.5 11.6869 35.1858 8.68645 38.1863L11.5149 41.0147ZM8.68645 38.1863C5.68589 41.1869 4 45.2568 4 49.5003H8C8 46.3177 9.26443 43.2652 11.5149 41.0147L8.68645 38.1863Z" fill="currentColor" />
  <path fill-rule="evenodd" clip-rule="evenodd" d="M74 49.5003C74 45.7872 72.5248 42.226 69.8993 39.6005C67.2739 36.9751 63.7129 35.5 60 35.5C56.2871 35.5 52.7261 36.9751 50.1007 39.6005C47.4752 42.226 46 45.7872 46 49.5003C46 53.2132 47.475 56.7741 50.1004 59.3996C52.7259 62.025 56.2871 63.5 60 63.5C63.7129 63.5 67.2741 62.025 69.8996 59.3996C72.525 56.7741 74 53.2132 74 49.5003Z" fill="currentColor" fill-opacity="0.15" />
  <path d="M68.4854 57.9854C70.7357 55.735 72 52.6828 72 49.5003H76C76 53.7436 74.3143 57.8133 71.3138 60.8138L68.4854 57.9854ZM60 61.5C63.1826 61.5 66.235 60.2357 68.4854 57.9854L71.3138 60.8138C68.3132 63.8144 64.2433 65.5 60 65.5V61.5ZM51.5146 57.9854C53.765 60.2357 56.8174 61.5 60 61.5V65.5C55.7567 65.5 51.6868 63.8144 48.6862 60.8138L51.5146 57.9854ZM48 49.5003C48 52.6828 49.2643 55.735 51.5146 57.9854L48.6862 60.8138C45.6857 57.8133 44 53.7436 44 49.5003H48ZM51.5149 41.0147C49.2644 43.2652 48 46.3177 48 49.5003H44C44 45.2568 45.6859 41.1869 48.6865 38.1863L51.5149 41.0147ZM60 37.5C56.8176 37.5 53.7653 38.7644 51.5149 41.0147L48.6865 38.1863C51.6869 35.1858 55.7566 33.5 60 33.5V37.5ZM68.4851 41.0147C66.2347 38.7644 63.1824 37.5 60 37.5V33.5C64.2434 33.5 68.3131 35.1858 71.3135 38.1863L68.4851 41.0147ZM71.3135 38.1863C74.3141 41.1869 76 45.2568 76 49.5003H72C72 46.3177 70.7356 43.2652 68.4851 41.0147L71.3135 38.1863Z" fill="currentColor" />
</svg>