<svg viewBox="0 0 80 80" fill="none">
  <path fill-rule="evenodd" clip-rule="evenodd" d="M40 22V66L66 58V33.8673L47.864 38L40 22Z" fill="currentColor" fill-opacity="0.25" />
  <path d="M40 66H38C38 66.6347 38.3013 67.2317 38.8118 67.6088C39.3223 67.9859 39.9815 68.0982 40.5882 67.9116L40 66ZM40 22L41.7949 21.1178C41.3846 20.2831 40.4531 19.8413 39.5471 20.0519C38.6412 20.2625 38 21.0699 38 22H40ZM66 58L66.5882 59.9116C67.4274 59.6533 68 58.878 68 58H66ZM66 33.8673H68C68 33.2587 67.723 32.6833 67.2473 32.3038C66.7716 31.9243 66.149 31.782 65.5556 31.9172L66 33.8673ZM47.864 38L46.0691 38.8822C46.4779 39.714 47.4047 40.1559 48.3083 39.95L47.864 38ZM42 66V22H38V66H42ZM65.4118 56.0884L39.4118 64.0884L40.5882 67.9116L66.5882 59.9116L65.4118 56.0884ZM64 33.8673V58H68V33.8673H64ZM48.3083 39.95L66.4444 35.8173L65.5556 31.9172L47.4196 36.05L48.3083 39.95ZM38.2051 22.8822L46.0691 38.8822L49.6589 37.1178L41.7949 21.1178L38.2051 22.8822Z" fill="currentColor" />
  <path d="M66 18L40 22L47.864 38L72 32.5L66 18Z" fill="currentColor" fill-opacity="0.25" stroke="currentColor" stroke-width="4" stroke-linecap="round" stroke-linejoin="round" />
  <path fill-rule="evenodd" clip-rule="evenodd" d="M40 22V66L14 58V33.8673L32.136 38L40 22Z" fill="currentColor" fill-opacity="0.25" />
  <path d="M40 66H42C42 66.6347 41.6987 67.2317 41.1882 67.6088C40.6777 67.9859 40.0185 68.0982 39.4118 67.9116L40 66ZM40 22L38.2051 21.1178C38.6154 20.2831 39.5469 19.8413 40.4529 20.0519C41.3588 20.2625 42 21.0699 42 22H40ZM14 58L13.4118 59.9116C12.5726 59.6533 12 58.878 12 58H14ZM14 33.8673H12C12 33.2587 12.277 32.6833 12.7527 32.3038C13.2284 31.9243 13.851 31.782 14.4444 31.9172L14 33.8673ZM32.136 38L33.9309 38.8822C33.5221 39.714 32.5953 40.1559 31.6917 39.95L32.136 38ZM38 66V22H42V66H38ZM14.5882 56.0884L40.5882 64.0884L39.4118 67.9116L13.4118 59.9116L14.5882 56.0884ZM16 33.8673V58H12V33.8673H16ZM31.6917 39.95L13.5556 35.8173L14.4444 31.9172L32.5804 36.05L31.6917 39.95ZM41.7949 22.8822L33.9309 38.8822L30.3411 37.1178L38.2051 21.1178L41.7949 22.8822Z" fill="currentColor" />
  <path d="M14 18L40 22L32.136 38L8 32.5L14 18Z" fill="currentColor" fill-opacity="0.25" stroke="currentColor" stroke-width="4" stroke-linecap="round" stroke-linejoin="round" />
  <path d="M14 18L40 22L66 18L40 14L14 18Z" fill="currentColor" fill-opacity="0.25" stroke="currentColor" stroke-width="4" stroke-linecap="round" stroke-linejoin="round" />
</svg>