<svg viewBox="0 0 80 80" fill="none">
  <path d="M48 26V24C48 20.6863 45.3137 18 42 18H38C34.6863 18 32 20.6863 32 24V26" stroke="currentColor" stroke-linecap="round" stroke-linejoin="round" />
  <path fill-rule="evenodd" clip-rule="evenodd" d="M15.9246 26.0014L64.0754 26.0014C64.0504 26.0005 64.0252 26 64 26L16 26C15.9748 26 15.9496 26.0005 15.9246 26.0014ZM66 44.2871L54.7078 45.9003C44.9521 47.2939 35.0479 47.2939 25.2922 45.9003L14 44.2871L14 60C14 61.1046 14.8954 62 16 62L64 62C65.1046 62 66 61.1046 66 60V44.2871Z" fill="currentColor" fill-opacity="0.15" />
  <path d="M15.9246 26.0014L15.8506 24.0028C14.7612 24.0431 13.9048 24.9485 13.925 26.0384C13.9452 27.1284 14.8345 28.0014 15.9246 28.0014V26.0014ZM64.0754 26.0014V28.0014C65.1655 28.0014 66.0549 27.1284 66.075 26.0384C66.0952 24.9485 65.2388 24.0431 64.1494 24.0028L64.0754 26.0014ZM66 44.2871H68C68 43.7073 67.7484 43.1561 67.3104 42.7762C66.8724 42.3963 66.2911 42.2252 65.7172 42.3072L66 44.2871ZM54.7078 45.9003L54.425 43.9204H54.425L54.7078 45.9003ZM25.2922 45.9003L25.575 43.9204L25.2922 45.9003ZM14 44.2871L14.2828 42.3072C13.7089 42.2252 13.1276 42.3963 12.6896 42.7762C12.2516 43.1561 12 43.7073 12 44.2871H14ZM15.9246 28.0014L64.0754 28.0014V24.0014L15.9246 24.0014V28.0014ZM64 28C64.0005 28 64.001 28 64.0013 28L64.1494 24.0028C64.0998 24.0009 64.0499 24 64 24V28ZM16 28L64 28V24L16 24V28ZM15.9987 28C15.999 28 15.9995 28 16 28V24C15.9501 24 15.9002 24.0009 15.8506 24.0028L15.9987 28ZM65.7172 42.3072L54.425 43.9204L54.9907 47.8802L66.2828 46.267L65.7172 42.3072ZM54.425 43.9204C44.8569 45.2872 35.1431 45.2872 25.575 43.9204L25.0093 47.8802C34.9526 49.3006 45.0474 49.3006 54.9907 47.8802L54.425 43.9204ZM25.575 43.9204L14.2828 42.3072L13.7172 46.267L25.0093 47.8802L25.575 43.9204ZM16 60L16 44.2871H12L12 60H16ZM16 60H16H12C12 62.2091 13.7909 64 16 64V60ZM64 60L16 60V64H64V60ZM64 60V64C66.2091 64 68 62.2091 68 60H64ZM64 44.2871L64 60H68V44.2871H64Z" fill="currentColor" />
  <path d="M35 46.824L35.0962 44.8263C34.5497 44.8 34.0163 44.9987 33.6202 45.3762C33.2241 45.7536 33 46.2769 33 46.824H35ZM45 46.824H47C47 46.2769 46.7759 45.7536 46.3798 45.3762C45.9837 44.9987 45.4503 44.8 44.9038 44.8263L45 46.824ZM33 46.824V49.9997H37V46.824H33ZM33 49.9997C33 52.2088 34.7909 53.9997 37 53.9997V49.9997H37H33ZM37 53.9997H43V49.9997H37V53.9997ZM43 53.9997C45.2091 53.9997 47 52.2088 47 49.9997H43V53.9997ZM47 49.9997V46.824H43V49.9997H47ZM44.9038 44.8263C41.6365 44.9836 38.3635 44.9836 35.0962 44.8263L34.9038 48.8217C38.2993 48.9851 41.7007 48.9851 45.0962 48.8217L44.9038 44.8263Z" fill="currentColor" />
  <path d="M12 28C12 26.8954 12.8954 26 14 26L66 26C67.1046 26 68 26.8954 68 28V42.2654C68 43.2607 67.2681 44.1046 66.2828 44.2453L54.7078 45.8989C44.9521 47.2926 35.0479 47.2926 25.2922 45.8989L13.7172 44.2453C12.7319 44.1046 12 43.2607 12 42.2654L12 28Z" fill="currentColor" fill-opacity="0.15" stroke="currentColor" stroke-linecap="round" stroke-linejoin="round" />
</svg>