<svg viewBox="0 0 80 80" fill="none">
  <path d="M23 72H57" stroke="currentColor" stroke-linecap="round" stroke-linejoin="round" />
  <path d="M25 24L55 24L55 72H25L25 24Z" fill="currentColor" fill-opacity="0.15" stroke="currentColor" stroke-linecap="round" stroke-linejoin="round" />
  <path d="M34 68C34 66.8954 34.8954 66 36 66H44C45.1046 66 46 66.8954 46 68V72H34V68Z" stroke="currentColor" stroke-linecap="round" />
  <path d="M31 12L49 12V18L31 18V12Z" fill="currentColor" fill-opacity="0.15" stroke="currentColor" stroke-linecap="round" stroke-linejoin="round" />
  <path d="M40 12L40 8" stroke="currentColor" stroke-linecap="round" stroke-linejoin="round" />
  <path d="M24 18L56 18V24L24 24V18Z" fill="currentColor" fill-opacity="0.15" stroke="currentColor" stroke-linecap="round" stroke-linejoin="round" />
  <path d="M31 30V28C29.8954 28 29 28.8954 29 30H31ZM37 30H39C39 28.8954 38.1046 28 37 28V30ZM31 36H29C29 37.1046 29.8954 38 31 38V36ZM37 36V38C38.1046 38 39 37.1046 39 36H37ZM31 42V40C29.8954 40 29 40.8954 29 42H31ZM37 42H39C39 40.8954 38.1046 40 37 40V42ZM31 48H29C29 49.1046 29.8954 50 31 50V48ZM37 48V50C38.1046 50 39 49.1046 39 48H37ZM37 54H39C39 52.8954 38.1046 52 37 52V54ZM31 54V52C29.8954 52 29 52.8954 29 54H31ZM37 60V62C38.1046 62 39 61.1046 39 60H37ZM31 60H29C29 61.1046 29.8954 62 31 62V60ZM43 30V28C41.8954 28 41 28.8954 41 30H43ZM49 30H51C51 28.8954 50.1046 28 49 28V30ZM43 36H41C41 37.1046 41.8954 38 43 38V36ZM49 36V38C50.1046 38 51 37.1046 51 36H49ZM49 42H51C51 40.8954 50.1046 40 49 40V42ZM43 42V40C41.8954 40 41 40.8954 41 42H43ZM49 48V50C50.1046 50 51 49.1046 51 48H49ZM43 48H41C41 49.1046 41.8954 50 43 50V48ZM43 54V52C41.8954 52 41 52.8954 41 54H43ZM49 54H51C51 52.8954 50.1046 52 49 52V54ZM43 60H41C41 61.1046 41.8954 62 43 62V60ZM49 60V62C50.1046 62 51 61.1046 51 60H49ZM31 32H37V28H31V32ZM33 36V30H29V36H33ZM37 34H31V38H37V34ZM35 30V36H39V30H35ZM31 44H37V40H31V44ZM33 48V42H29V48H33ZM37 46H31V50H37V46ZM35 42V48H39V42H35ZM37 52H31V56H37V52ZM39 60V54H35V60H39ZM31 62H37V58H31V62ZM29 54V60H33V54H29ZM43 32H49V28H43V32ZM45 36V30H41V36H45ZM49 34H43V38H49V34ZM47 30V36H51V30H47ZM49 40H43V44H49V40ZM51 48V42H47V48H51ZM43 50H49V46H43V50ZM41 42V48H45V42H41ZM43 56H49V52H43V56ZM45 60V54H41V60H45ZM49 58H43V62H49V58ZM47 54V60H51V54H47Z" fill="currentColor" />
</svg>