<svg viewBox="0 0 80 80" fill="none">
  <path fill-rule="evenodd" clip-rule="evenodd" d="M18 59.8882V65.8882C18 66.9928 18.8954 67.8882 20 67.8882H25C26.1046 67.8882 27 66.9928 27 65.8882V59.8882H18ZM53 59.8882V65.8882C53 66.9928 53.8954 67.8882 55 67.8882H60C61.1046 67.8882 62 66.9928 62 65.8882V59.8882H53Z" fill="currentColor" fill-opacity="0.25" />
  <path d="M18 59.8882V57.8882H16V59.8882H18ZM27 59.8882H29V57.8882H27V59.8882ZM53 59.8882V57.8882H51V59.8882H53ZM62 59.8882H64V57.8882H62V59.8882ZM16 59.8882V65.8882H20V59.8882H16ZM16 65.8882C16 68.0973 17.7909 69.8882 20 69.8882V65.8882H20H16ZM20 69.8882H25V65.8882H20V69.8882ZM25 69.8882C27.2091 69.8882 29 68.0973 29 65.8882H25V69.8882ZM29 65.8882V59.8882H25V65.8882H29ZM27 57.8882H18V61.8882H27V57.8882ZM51 59.8882V65.8882H55V59.8882H51ZM51 65.8882C51 68.0973 52.7909 69.8882 55 69.8882V65.8882H51ZM55 69.8882H60V65.8882H55V69.8882ZM60 69.8882C62.2091 69.8882 64 68.0973 64 65.8882H60V69.8882ZM64 65.8882V59.8882H60V65.8882H64ZM62 57.8882H53V61.8882H62V57.8882Z" fill="currentColor" />
  <path fill-rule="evenodd" clip-rule="evenodd" d="M16 26.8882H12C10.8954 26.8882 10 27.7836 10 28.8882V36.8882C10 37.9928 10.8954 38.8882 12 38.8882H16V26.8882ZM64 38.8882H68C69.1046 38.8882 70 37.9928 70 36.8882V28.8882C70 27.7836 69.1046 26.8882 68 26.8882H64V38.8882Z" fill="currentColor" fill-opacity="0.25" />
  <path d="M16 26.8882H18V24.8882H16V26.8882ZM16 38.8882V40.8882H18V38.8882H16ZM64 38.8882H62V40.8882H64V38.8882ZM64 26.8882V24.8882H62V26.8882H64ZM12 28.8882H16V24.8882H12V28.8882ZM12 28.8882V28.8882V24.8882C9.79086 24.8882 8 26.679 8 28.8882H12ZM12 36.8882V28.8882H8V36.8882H12ZM12 36.8882H12H8C8 39.0973 9.79086 40.8882 12 40.8882V36.8882ZM16 36.8882H12V40.8882H16V36.8882ZM18 38.8882V26.8882H14V38.8882H18ZM68 36.8882H64V40.8882H68V36.8882ZM68 36.8882V40.8882C70.2091 40.8882 72 39.0973 72 36.8882H68ZM68 28.8882V36.8882H72V28.8882H68ZM68 28.8882H72C72 26.679 70.2091 24.8882 68 24.8882V28.8882ZM64 28.8882H68V24.8882H64V28.8882ZM62 26.8882V38.8882H66V26.8882H62Z" fill="currentColor" />
  <path fill-rule="evenodd" clip-rule="evenodd" d="M62.8701 17.1146C63.5651 17.434 64 18.1347 64 18.8996V57.8883C64 58.9929 63.1046 59.8883 62 59.8883H18C16.8954 59.8883 16 58.9929 16 57.8883V18.8996C16 18.1347 16.4349 17.434 17.1299 17.1146C17.3261 17.0244 17.523 16.9354 17.7205 16.8475C24.7331 13.7252 32.3237 12.1118 40 12.1118C47.6763 12.1118 55.2669 13.7253 62.2795 16.8475C62.477 16.9354 62.6739 17.0244 62.8701 17.1146Z" fill="currentColor" fill-opacity="0.25" />
  <path d="M17.7205 16.8475L16.907 15.0204L16.907 15.0204L17.7205 16.8475ZM62.2795 16.8475L63.093 15.0204V15.0204L62.2795 16.8475ZM62.8701 17.1146L62.0351 18.932L62.8701 17.1146ZM62 18.8996V57.8883H66V18.8996H62ZM62 57.8883H18V61.8883H62V57.8883ZM18 57.8883V18.8996H14V57.8883H18ZM16.907 15.0204C16.7023 15.1115 16.4983 15.2038 16.2948 15.2973L17.9649 18.932C18.154 18.8451 18.3437 18.7593 18.534 18.6746L16.907 15.0204ZM40 10.1118C32.0434 10.1118 24.1757 11.7842 16.907 15.0204L18.534 18.6746C25.2906 15.6663 32.604 14.1118 40 14.1118V10.1118ZM63.093 15.0204C55.8243 11.7842 47.9566 10.1118 40 10.1118V14.1118C47.396 14.1118 54.7094 15.6663 61.466 18.6746L63.093 15.0204ZM63.7052 15.2973C63.5017 15.2038 63.2977 15.1115 63.093 15.0204L61.466 18.6746C61.6563 18.7593 61.846 18.8451 62.0351 18.932L63.7052 15.2973ZM18 18.8996C18 18.897 18.0006 18.8996 17.9969 18.9055C17.9949 18.9087 17.9913 18.9133 17.9855 18.9185C17.9793 18.9239 17.9721 18.9287 17.9649 18.932L16.2948 15.2973C14.8664 15.9536 14 17.3796 14 18.8996H18ZM18 57.8883H18H14C14 60.0974 15.7909 61.8883 18 61.8883V57.8883ZM62 57.8883V61.8883C64.2091 61.8883 66 60.0974 66 57.8883H62ZM66 18.8996C66 17.3796 65.1336 15.9536 63.7052 15.2973L62.0351 18.932C62.0279 18.9287 62.0207 18.9239 62.0145 18.9185C62.0087 18.9133 62.0051 18.9087 62.0031 18.9055C61.9994 18.8996 62 18.897 62 18.8996H66Z" fill="currentColor" />
  <rect x="16" y="23.8882" width="48" height="18" fill="currentColor" fill-opacity="0.25" stroke="currentColor" stroke-width="4" stroke-linecap="square" />
  <rect x="22" y="47.8882" width="6" height="6" rx="3" fill="currentColor" fill-opacity="0.25" stroke="currentColor" stroke-width="4" stroke-linecap="square" />
  <rect x="52" y="47.8882" width="6" height="6" rx="3" fill="currentColor" fill-opacity="0.25" stroke="currentColor" stroke-width="4" stroke-linecap="square" />
</svg>