<svg viewBox="0 0 80 80" fill="none">
  <path fill-rule="evenodd" clip-rule="evenodd" d="M27.1603 23.6616L29.3479 17.9465C29.6442 17.1726 30.387 16.6615 31.2157 16.6615L49.6241 16.6615C50.4528 16.6615 51.1957 17.1726 51.4919 17.9465L53.6795 23.6616H65C66.6569 23.6616 68 25.0047 68 26.6616V60.6616C68 62.3184 66.6569 63.6616 65 63.6616L15 63.6616C13.3431 63.6616 12 62.3184 12 60.6616L12 26.6616C12 25.0047 13.3431 23.6616 15 23.6616L27.1603 23.6616Z" fill="currentColor" fill-opacity="0.15" />
  <path d="M27.1603 23.6616V25.6616H28.5363L29.0282 24.3765L27.1603 23.6616ZM29.3479 17.9465L31.2157 18.6615V18.6615L29.3479 17.9465ZM51.4919 17.9465L49.6241 18.6615V18.6615L51.4919 17.9465ZM53.6795 23.6616L51.8117 24.3765L52.3035 25.6616H53.6795V23.6616ZM29.0282 24.3765L31.2157 18.6615L27.4801 17.2316L25.2925 22.9466L29.0282 24.3765ZM31.2157 18.6615L31.2157 18.6615V14.6615C29.5583 14.6615 28.0726 15.6837 27.4801 17.2316L31.2157 18.6615ZM31.2157 18.6615L49.6241 18.6615V14.6615L31.2157 14.6615V18.6615ZM49.6241 18.6615V18.6615L53.3598 17.2316C52.7673 15.6837 51.2815 14.6615 49.6241 14.6615V18.6615ZM49.6241 18.6615L51.8117 24.3765L55.5473 22.9466L53.3598 17.2316L49.6241 18.6615ZM53.6795 25.6616H65V21.6616H53.6795V25.6616ZM65 25.6616C65.5523 25.6616 66 26.1093 66 26.6616H70C70 23.9001 67.7614 21.6616 65 21.6616V25.6616ZM66 26.6616V60.6616H70V26.6616H66ZM66 60.6616C66 61.2139 65.5523 61.6616 65 61.6616V65.6616C67.7614 65.6616 70 63.423 70 60.6616H66ZM65 61.6616L15 61.6616V65.6616H65V61.6616ZM15 61.6616C14.4477 61.6616 14 61.2139 14 60.6616H10C10 63.423 12.2386 65.6616 15 65.6616V61.6616ZM14 60.6616L14 26.6616H10L10 60.6616H14ZM14 26.6616C14 26.1093 14.4477 25.6616 15 25.6616L15 21.6616C12.2386 21.6616 10 23.9001 10 26.6616H14ZM15 25.6616H27.1603V21.6616L15 21.6616L15 25.6616Z" fill="currentColor" />
  <path d="M33.9378 32.1616C37.6891 29.9958 42.3109 29.9958 46.0622 32.1616V32.1616C49.8135 34.3274 52.1244 38.3299 52.1244 42.6616V42.6616C52.1244 46.9932 49.8135 50.9958 46.0622 53.1616V53.1616C42.3109 55.3274 37.6891 55.3274 33.9378 53.1616V53.1616C30.1865 50.9958 27.8756 46.9932 27.8756 42.6616V42.6616C27.8756 38.3299 30.1865 34.3274 33.9378 32.1616V32.1616Z" stroke="currentColor" stroke-linecap="round" stroke-linejoin="round" />
</svg>