<svg viewBox="0 0 80 80" fill="none">
  <g opacity="0.9">
    <path fill-rule="evenodd" clip-rule="evenodd" d="M39.9999 49.189C47.1796 49.189 52.9999 43.3687 52.9999 36.189V35.5872C52.9999 32.7279 52.0988 29.9414 50.4248 27.6235L40.0256 13.2246C40.0129 13.207 39.9868 13.207 39.9742 13.2246C38.5074 15.2555 38.4632 17.9859 39.8635 20.0633L42.6384 24.1799C43.4606 25.3997 43.8999 26.8372 43.8999 28.3082V29.1942C43.8999 32.784 40.9897 35.6942 37.3999 35.6942C33.81 35.6942 30.8999 32.784 30.8999 29.1942V28.3082C30.8999 26.8372 31.3391 25.3997 32.1614 24.1799L33.5523 22.1164L29.575 27.6235C27.9009 29.9414 26.9999 32.7279 26.9999 35.5872V36.189C26.9999 43.3687 32.8202 49.189 39.9999 49.189Z" fill="currentColor" fill-opacity="0.25" />
    <path d="M50.4248 27.6235L52.0461 26.4525L50.4248 27.6235ZM40.0256 13.2246L38.4041 14.3955L38.4042 14.3955L40.0256 13.2246ZM42.6384 24.1799L44.2968 23.062V23.062L42.6384 24.1799ZM32.1614 24.1799L33.8198 25.2978H33.8198L32.1614 24.1799ZM33.5523 22.1164L35.2107 23.2343C35.821 22.3289 35.5923 21.1012 34.6969 20.4763C33.8014 19.8514 32.5703 20.0602 31.9309 20.9454L33.5523 22.1164ZM29.575 27.6235L31.1963 28.7945L31.1963 28.7944L29.575 27.6235ZM50.9999 36.189C50.9999 42.2641 46.075 47.189 39.9999 47.189V51.189C48.2841 51.189 54.9999 44.4733 54.9999 36.189H50.9999ZM50.9999 35.5872V36.189H54.9999V35.5872H50.9999ZM48.8034 28.7945C50.2313 30.7716 50.9999 33.1484 50.9999 35.5872H54.9999C54.9999 32.3075 53.9663 29.1113 52.0461 26.4525L48.8034 28.7945ZM38.4042 14.3955L48.8034 28.7945L52.0461 26.4525L41.6469 12.0536L38.4042 14.3955ZM41.5956 14.3955C40.8099 15.4834 39.1898 15.4834 38.4041 14.3955L41.647 12.0537C40.836 10.9307 39.1637 10.9307 38.3528 12.0537L41.5956 14.3955ZM38.2051 21.1812L40.98 25.2978L44.2968 23.062L41.5219 18.9454L38.2051 21.1812ZM40.98 25.2978C41.5796 26.1873 41.8999 27.2355 41.8999 28.3082H45.8999C45.8999 26.4389 45.3417 24.6121 44.2968 23.062L40.98 25.2978ZM41.8999 28.3082V29.1942H45.8999V28.3082H41.8999ZM41.8999 29.1942C41.8999 31.6795 39.8852 33.6942 37.3999 33.6942V37.6942C42.0943 37.6942 45.8999 33.8886 45.8999 29.1942H41.8999ZM37.3999 33.6942C34.9146 33.6942 32.8999 31.6795 32.8999 29.1942H28.8999C28.8999 33.8886 32.7055 37.6942 37.3999 37.6942V33.6942ZM32.8999 29.1942V28.3082H28.8999V29.1942H32.8999ZM32.8999 28.3082C32.8999 27.2355 33.2202 26.1873 33.8198 25.2978L30.503 23.062C29.4581 24.6121 28.8999 26.4389 28.8999 28.3082H32.8999ZM33.8198 25.2978L35.2107 23.2343L31.8939 20.9985L30.503 23.062L33.8198 25.2978ZM31.1963 28.7944L35.1736 23.2874L31.9309 20.9454L27.9536 26.4525L31.1963 28.7944ZM28.9999 35.5872C28.9999 33.1484 29.7684 30.7716 31.1963 28.7945L27.9536 26.4525C26.0334 29.1112 24.9999 32.3075 24.9999 35.5872H28.9999ZM28.9999 36.189V35.5872H24.9999V36.189H28.9999ZM39.9999 47.189C33.9247 47.189 28.9999 42.2641 28.9999 36.189H24.9999C24.9999 44.4733 31.7156 51.189 39.9999 51.189V47.189ZM38.3528 12.0536C36.3951 14.7643 36.3361 18.4085 38.2051 21.1812L41.5219 18.9454C40.5903 17.5633 40.6197 15.7468 41.5956 14.3955L38.3528 12.0536Z" fill="currentColor" />
  </g>
  <path d="M13.6886 66.7881L66.3114 47.635" stroke="currentColor" stroke-width="4" stroke-linecap="round" stroke-linejoin="round" />
  <path d="M13.6886 47.6353L66.3114 66.7884" stroke="currentColor" stroke-width="4" stroke-linecap="round" stroke-linejoin="round" />
</svg>