<svg viewBox="0 0 80 80" fill="none">
  <path fill-rule="evenodd" clip-rule="evenodd" d="M59.8807 46H20.1191L23.9069 36.2853C25.1045 33.2137 28.0637 31.1914 31.3604 31.1914H48.6394C51.9361 31.1914 54.8953 33.2138 56.0929 36.2853L59.8807 46Z" fill="currentColor" fill-opacity="0.15" />
  <path d="M59.8807 46V48C60.5412 48 61.1592 47.6738 61.5319 47.1285C61.9046 46.5831 61.984 45.8889 61.7441 45.2735L59.8807 46ZM20.1191 46L18.2558 45.2735C18.0158 45.8889 18.0952 46.5831 18.4679 47.1285C18.8406 47.6738 19.4586 48 20.1191 48V46ZM23.9069 36.2853L25.7703 37.0118L23.9069 36.2853ZM56.0929 36.2853L57.9562 35.5587L56.0929 36.2853ZM59.8807 44H20.1191V48H59.8807V44ZM22.0436 35.5587L18.2558 45.2735L21.9825 46.7265L25.7703 37.0118L22.0436 35.5587ZM31.3604 29.1914C27.2395 29.1914 23.5406 31.7193 22.0436 35.5587L25.7703 37.0118C26.6685 34.7082 28.8879 33.1914 31.3604 33.1914V29.1914ZM48.6394 29.1914H31.3604V33.1914H48.6394V29.1914ZM57.9562 35.5587C56.4592 31.7193 52.7603 29.1914 48.6394 29.1914V33.1914C51.1119 33.1914 53.3313 34.7082 54.2295 37.0118L57.9562 35.5587ZM61.7441 45.2735L57.9562 35.5587L54.2295 37.0118L58.0173 46.7265L61.7441 45.2735Z" fill="currentColor" />
  <path fill-rule="evenodd" clip-rule="evenodd" d="M17 63.874V69.3711C17 70.4757 17.8954 71.3711 19 71.3711H25C26.1046 71.3711 27 70.4757 27 69.3711V64H18C17.6547 64 17.3196 63.9563 17 63.874ZM53 64V69.3711C53 70.4757 53.8954 71.3711 55 71.3711H61C62.1046 71.3711 63 70.4757 63 69.3711V63.874C62.6804 63.9563 62.3453 64 62 64H53Z" fill="currentColor" fill-opacity="0.15" />
  <path d="M17 63.874L17.4985 61.9371C16.8997 61.783 16.2633 61.9145 15.7746 62.2934C15.286 62.6722 15 63.2557 15 63.874H17ZM27 64H29C29 62.8955 28.1046 62 27 62V64ZM53 64V62C51.8954 62 51 62.8955 51 64H53ZM63 63.874H65C65 63.2557 64.714 62.6722 64.2253 62.2934C63.7367 61.9145 63.1003 61.783 62.5015 61.9372L63 63.874ZM15 63.874V69.3711H19V63.874H15ZM15 69.3711C15 71.5803 16.7909 73.3711 19 73.3711V69.3711H19H15ZM19 73.3711H25V69.3711H19V73.3711ZM25 73.3711C27.2091 73.3711 29 71.5803 29 69.3711H25V69.3711V73.3711ZM29 69.3711V64H25V69.3711H29ZM27 62H18V66H27V62ZM18 62C17.8243 62 17.6566 61.9779 17.4985 61.9371L16.5015 65.8109C16.9826 65.9347 17.4851 66 18 66V62ZM55 69.3711V64H51V69.3711H55ZM55 69.3711V69.3711H51C51 71.5803 52.7909 73.3711 55 73.3711V69.3711ZM61 69.3711H55V73.3711H61V69.3711ZM61 69.3711V73.3711C63.2091 73.3711 65 71.5803 65 69.3711H61ZM61 63.874V69.3711H65V63.874H61ZM62.5015 61.9372C62.3434 61.9778 62.1757 62 62 62V66C62.5149 66 63.0174 65.9347 63.4985 65.8109L62.5015 61.9372ZM62 62H53V66H62V62Z" fill="currentColor" />
  <path d="M14 54C14 49.5817 17.5817 46 22 46H58C62.4183 46 66 49.5817 66 54V60C66 62.2091 64.2091 64 62 64H18C15.7909 64 14 62.2091 14 60V54Z" fill="currentColor" fill-opacity="0.15" />
  <path d="M22 48H58V44H22V48ZM64 54V60H68V54H64ZM62 62H18V66H62V62ZM16 60V54H12V60H16ZM18 62C16.8954 62 16 61.1046 16 60H12C12 63.3137 14.6863 66 18 66V62ZM64 60C64 61.1046 63.1046 62 62 62V66C65.3137 66 68 63.3137 68 60H64ZM58 48C61.3137 48 64 50.6863 64 54H68C68 48.4772 63.5228 44 58 44V48ZM22 44C16.4772 44 12 48.4772 12 54H16C16 50.6863 18.6863 48 22 48V44Z" fill="currentColor" />
  <rect x="21" y="52.3711" width="6" height="6" rx="3" fill="currentColor" fill-opacity="0.15" stroke="currentColor" stroke-width="4" stroke-linecap="round" stroke-linejoin="round" />
  <rect width="6" height="6" rx="3" transform="matrix(-1 0 0 1 59 52.3711)" fill="currentColor" fill-opacity="0.15" stroke="currentColor" stroke-width="4" stroke-linecap="round" stroke-linejoin="round" />
  <path d="M21.2575 9.64228C21.5463 9.00339 22.4537 9.00339 22.7425 9.64228L23.2182 10.6945C23.5841 11.5037 24.0083 12.2853 24.4874 13.0331L25.8419 15.1473C26.5678 16.2803 26.6957 17.6961 26.1847 18.941C25.769 19.9535 24.9682 20.7595 23.9583 21.1815L23.7757 21.2578C22.6395 21.7327 21.3605 21.7327 20.2243 21.2578L20.0417 21.1815C19.0318 20.7595 18.231 19.9535 17.8153 18.941C17.3043 17.6961 17.4322 16.2803 18.1581 15.1473L19.5126 13.0331C19.9917 12.2853 20.4159 11.5037 20.7818 10.6945L21.2575 9.64228Z" fill="currentColor" fill-opacity="0.15" stroke="currentColor" stroke-width="4" stroke-linecap="square" stroke-linejoin="round" />
  <path d="M39.2575 9.64228C39.5463 9.00339 40.4537 9.00339 40.7425 9.64228L41.2182 10.6945C41.5841 11.5037 42.0083 12.2853 42.4874 13.0331L43.8419 15.1473C44.5678 16.2803 44.6957 17.6961 44.1847 18.941C43.769 19.9535 42.9682 20.7595 41.9583 21.1815L41.7757 21.2578C40.6395 21.7327 39.3605 21.7327 38.2243 21.2578L38.0417 21.1815C37.0318 20.7595 36.231 19.9535 35.8153 18.941C35.3043 17.6961 35.4322 16.2803 36.1581 15.1473L37.5126 13.0331C37.9917 12.2853 38.4159 11.5037 38.7818 10.6945L39.2575 9.64228Z" fill="currentColor" fill-opacity="0.15" stroke="currentColor" stroke-width="4" stroke-linecap="square" stroke-linejoin="round" />
  <path d="M57.2575 9.64228C57.5463 9.00339 58.4537 9.00339 58.7425 9.64228L59.2182 10.6945C59.5841 11.5037 60.0083 12.2853 60.4874 13.0331L61.8419 15.1473C62.5678 16.2803 62.6957 17.6961 62.1847 18.941C61.769 19.9535 60.9682 20.7595 59.9583 21.1815L59.7757 21.2578C58.6395 21.7327 57.3605 21.7327 56.2243 21.2578L56.0417 21.1815C55.0318 20.7595 54.231 19.9535 53.8153 18.941C53.3043 17.6961 53.4322 16.2803 54.1581 15.1473L55.5126 13.0331C55.9917 12.2853 56.4159 11.5037 56.7818 10.6945L57.2575 9.64228Z" fill="currentColor" fill-opacity="0.15" stroke="currentColor" stroke-width="4" stroke-linecap="square" stroke-linejoin="round" />
</svg>