<svg viewBox="0 0 80 80" fill="none">
  <path fill-rule="evenodd" clip-rule="evenodd" d="M58.4998 34C58.7161 34 58.847 33.761 58.7304 33.5787L51.1299 21.6907C49.6598 19.3913 47.119 18 44.3898 18H28.7218C25.4288 18 22.4722 20.0178 21.272 23.0843L17.182 33.5344C17.0944 33.7582 17.2594 34 17.4998 34H58.4998Z" fill="currentColor" fill-opacity="0.25" />
  <path d="M58.7304 33.5787L60.4155 32.5014L60.4155 32.5014L58.7304 33.5787ZM51.1299 21.6907L49.4449 22.768V22.768L51.1299 21.6907ZM21.272 23.0843L19.4096 22.3554L21.272 23.0843ZM17.182 33.5344L15.3196 32.8055L15.3196 32.8055L17.182 33.5344ZM34.9998 18C34.9998 16.8954 34.1043 16 32.9998 16C31.8952 16 30.9998 16.8954 30.9998 18H34.9998ZM30.9998 34C30.9998 35.1046 31.8952 36 32.9998 36C34.1043 36 34.9998 35.1046 34.9998 34H30.9998ZM58.4998 36C59.6043 36 60.4998 35.1046 60.4998 34C60.4998 32.8954 59.6043 32 58.4998 32V36ZM17.4998 32C16.3952 32 15.4998 32.8954 15.4998 34C15.4998 35.1046 16.3952 36 17.4998 36V32ZM57.0454 34.6561C56.3108 33.507 57.136 32 58.4998 32V36C60.2961 36 61.3831 34.0149 60.4155 32.5014L57.0454 34.6561ZM49.4449 22.768L57.0454 34.6561L60.4155 32.5014L52.815 20.6134L49.4449 22.768ZM44.3898 20C46.4367 20 48.3423 21.0435 49.4449 22.768L52.815 20.6134C50.9774 17.7391 47.8013 16 44.3898 16V20ZM28.7218 20H44.3898V16H28.7218V20ZM23.1344 23.8132C24.0346 21.5134 26.252 20 28.7218 20V16C24.6055 16 20.9098 18.5223 19.4096 22.3554L23.1344 23.8132ZM19.0444 34.2633L23.1344 23.8132L19.4096 22.3554L15.3196 32.8055L19.0444 34.2633ZM17.4998 32C18.668 32 19.4702 33.1754 19.0444 34.2633L15.3196 32.8055C14.7186 34.341 15.8509 36 17.4998 36V32ZM58.4998 32H17.4998V36H58.4998V32ZM30.9998 18V34H34.9998V18H30.9998ZM58.4998 32H17.4998V36H58.4998V32Z" fill="currentColor" />
  <path fill-rule="evenodd" clip-rule="evenodd" d="M10 41C10 37.134 13.134 34 17 34H58C64.6274 34 70 39.3726 70 46V48C70 50.2091 68.2091 52 66 52H65.0469C65.0134 51.7311 64.9664 51.4626 64.9054 51.1956C64.3563 48.7898 62.7415 46.765 60.5182 45.6943C58.2949 44.6236 55.7051 44.6236 53.4818 45.6943C51.2585 46.765 49.6437 48.7898 49.0946 51.1956C49.0336 51.4626 48.9866 51.7311 48.9531 52H31.0469C31.0134 51.7311 30.9664 51.4626 30.9054 51.1956C30.3563 48.7898 28.7415 46.765 26.5182 45.6943C24.2949 44.6236 21.7051 44.6236 19.4818 45.6943C17.2585 46.765 15.6437 48.7898 15.0946 51.1956C15.0336 51.4626 14.9866 51.7311 14.9531 52H14C11.7909 52 10 50.2091 10 48V41Z" fill="currentColor" fill-opacity="0.25" />
  <path d="M65.0469 52L63.0622 52.2468C63.1867 53.2482 64.0377 54 65.0469 54V52ZM64.9054 51.1956L66.8553 50.7506V50.7506L64.9054 51.1956ZM49.0946 51.1956L47.1447 50.7506V50.7506L49.0946 51.1956ZM48.9531 52V54C49.9623 54 50.8133 53.2482 50.9378 52.2468L48.9531 52ZM31.0469 52L29.0622 52.2468C29.1867 53.2482 30.0377 54 31.0469 54V52ZM30.9054 51.1956L32.8553 50.7506V50.7506L30.9054 51.1956ZM26.5182 45.6943L27.386 43.8924L26.5182 45.6943ZM15.0946 51.1956L13.1447 50.7506L13.1447 50.7506L15.0946 51.1956ZM14.9531 52V54C15.9623 54 16.8133 53.2482 16.9378 52.2468L14.9531 52ZM17 32C12.0294 32 8 36.0294 8 41H12C12 38.2386 14.2386 36 17 36V32ZM58 32H17V36H58V32ZM72 46C72 38.268 65.732 32 58 32V36C63.5229 36 68 40.4772 68 46H72ZM72 48V46H68V48H72ZM66 54C69.3137 54 72 51.3137 72 48H68C68 49.1046 67.1046 50 66 50V54ZM65.0469 54H66V50H65.0469V54ZM62.9556 51.6407C63.0015 51.842 63.037 52.0442 63.0622 52.2468L67.0316 51.7532C66.9899 51.4179 66.9312 51.0833 66.8553 50.7506L62.9556 51.6407ZM59.6505 47.4962C61.3254 48.3028 62.5419 49.8283 62.9556 51.6407L66.8553 50.7506C66.1707 47.7514 64.1577 45.2271 61.386 43.8924L59.6505 47.4962ZM54.3495 47.4962C56.0245 46.6896 57.9755 46.6896 59.6505 47.4962L61.386 43.8924C58.6143 42.5576 55.3857 42.5576 52.614 43.8924L54.3495 47.4962ZM51.0444 51.6407C51.4581 49.8283 52.6746 48.3028 54.3495 47.4962L52.614 43.8924C49.8423 45.2271 47.8293 47.7514 47.1447 50.7506L51.0444 51.6407ZM50.9378 52.2468C50.963 52.0442 50.9985 51.842 51.0444 51.6407L47.1447 50.7506C47.0688 51.0833 47.0101 51.4179 46.9684 51.7532L50.9378 52.2468ZM31.0469 54H48.9531V50H31.0469V54ZM28.9556 51.6407C29.0015 51.842 29.037 52.0442 29.0622 52.2468L33.0316 51.7532C32.9899 51.4179 32.9312 51.0833 32.8553 50.7506L28.9556 51.6407ZM25.6505 47.4962C27.3254 48.3028 28.5419 49.8283 28.9556 51.6407L32.8553 50.7506C32.1707 47.7514 30.1577 45.2271 27.386 43.8924L25.6505 47.4962ZM20.3495 47.4962C22.0245 46.6896 23.9755 46.6896 25.6505 47.4962L27.386 43.8924C24.6143 42.5576 21.3857 42.5576 18.614 43.8924L20.3495 47.4962ZM17.0444 51.6407C17.4581 49.8283 18.6746 48.3028 20.3495 47.4962L18.614 43.8924C15.8423 45.2271 13.8293 47.7514 13.1447 50.7506L17.0444 51.6407ZM16.9378 52.2468C16.963 52.0442 16.9985 51.842 17.0444 51.6407L13.1447 50.7506C13.0688 51.0833 13.0101 51.4179 12.9684 51.7532L16.9378 52.2468ZM14 54H14.9531V50H14V54ZM8 48C8 51.3137 10.6863 54 14 54V50C12.8954 50 12 49.1046 12 48H8ZM8 41V48H12V41H8Z" fill="currentColor" />
  <path d="M19.4818 45.6943C21.7051 44.6236 24.2949 44.6236 26.5182 45.6943C28.7415 46.765 30.3563 48.7898 30.9054 51.1956C31.4545 53.6015 30.8782 56.1264 29.3397 58.0557C27.8011 59.985 25.4677 61.1087 23 61.1087C20.5323 61.1087 18.1989 59.985 16.6603 58.0557C15.1218 56.1264 14.5455 53.6015 15.0946 51.1956C15.6437 48.7898 17.2585 46.765 19.4818 45.6943Z" fill="currentColor" fill-opacity="0.25" stroke="currentColor" stroke-width="4" stroke-linecap="round" stroke-linejoin="round" />
  <path d="M53.4818 45.6943C55.7051 44.6236 58.2949 44.6236 60.5182 45.6943C62.7415 46.765 64.3563 48.7898 64.9054 51.1956C65.4545 53.6015 64.8782 56.1264 63.3397 58.0557C61.8011 59.985 59.4677 61.1087 57 61.1087C54.5323 61.1087 52.1989 59.985 50.6603 58.0557C49.1218 56.1264 48.5455 53.6015 49.0946 51.1956C49.6437 48.7898 51.2585 46.765 53.4818 45.6943Z" fill="currentColor" fill-opacity="0.25" stroke="currentColor" stroke-width="4" stroke-linecap="round" stroke-linejoin="round" />
</svg>