<svg viewBox="0 0 82 80" fill="none">
  <path fill-rule="evenodd" clip-rule="evenodd" d="M43.7563 19.6408L15.6407 47.7564L11.4497 38.2087C10.1247 35.19 10.7871 31.6675 13.1182 29.3364L25.3363 17.1183C27.6674 14.7872 31.1899 14.1247 34.2086 15.4498L43.7563 19.6408Z" fill="currentColor" fill-opacity="0.15" />
  <path d="M43.7563 19.6408L45.1706 21.055C45.6376 20.5879 45.844 19.9203 45.7219 19.2711C45.5998 18.6219 45.1651 18.0749 44.5602 17.8094L43.7563 19.6408ZM15.6407 47.7564L13.8094 48.5603C14.0749 49.1651 14.6219 49.5999 15.2711 49.722C15.9202 49.844 16.5878 49.6377 17.0549 49.1706L15.6407 47.7564ZM11.4497 38.2087L13.2811 37.4048L11.4497 38.2087ZM34.2086 15.4498L35.0125 13.6185L34.2086 15.4498ZM42.3421 18.2265L14.2265 46.3422L17.0549 49.1706L45.1706 21.055L42.3421 18.2265ZM9.61838 39.0125L13.8094 48.5603L17.472 46.9525L13.2811 37.4048L9.61838 39.0125ZM11.704 27.9221C8.79008 30.8361 7.96206 35.2391 9.61838 39.0125L13.2811 37.4048C12.2873 35.1408 12.7841 32.4989 14.5324 30.7506L11.704 27.9221ZM23.9221 15.7041L11.704 27.9221L14.5324 30.7506L26.7505 18.5325L23.9221 15.7041ZM35.0125 13.6185C31.2391 11.9621 26.836 12.7902 23.9221 15.7041L26.7505 18.5325C28.4989 16.7841 31.1407 16.2873 33.4047 17.2811L35.0125 13.6185ZM44.5602 17.8094L35.0125 13.6185L33.4047 17.2811L42.9525 21.4721L44.5602 17.8094Z" fill="currentColor" />
  <path fill-rule="evenodd" clip-rule="evenodd" d="M26.0737 62.6006L29.9608 66.4876C30.7418 67.2687 32.0081 67.2687 32.7892 66.4876L37.0318 62.245C37.8129 61.4639 37.8129 60.1976 37.0318 59.4166L33.2339 55.6186L26.8699 61.9826C26.6258 62.2268 26.3579 62.4328 26.0737 62.6006ZM51.6187 37.2339L55.4166 41.0318C56.1977 41.8128 57.464 41.8128 58.245 41.0318L62.4877 36.7891C63.2687 36.0081 63.2687 34.7418 62.4877 33.9607L58.6006 30.0737C58.4328 30.3578 58.2268 30.6257 57.9826 30.8699L51.6187 37.2339Z" fill="currentColor" fill-opacity="0.15" />
  <path d="M26.0737 62.6006L25.0567 60.8785C24.5243 61.1929 24.1672 61.7359 24.0896 62.3493C24.0119 62.9627 24.2223 63.5776 24.6595 64.0148L26.0737 62.6006ZM29.9608 66.4876L28.5466 67.9018L29.9608 66.4876ZM37.0318 59.4166L35.6176 60.8308L37.0318 59.4166ZM33.2339 55.6186L34.6481 54.2044C34.273 53.8293 33.7643 53.6186 33.2339 53.6186C32.7035 53.6186 32.1948 53.8293 31.8197 54.2044L33.2339 55.6186ZM51.6187 37.2339L50.2045 35.8196C49.4234 36.6007 49.4234 37.867 50.2045 38.6481L51.6187 37.2339ZM62.4877 33.9607L61.0735 35.3749L62.4877 33.9607ZM58.6006 30.0737L60.0149 28.6595C59.5776 28.2223 58.9628 28.0118 58.3494 28.0895C57.736 28.1672 57.193 28.5242 56.8786 29.0566L58.6006 30.0737ZM24.6595 64.0148L28.5466 67.9018L31.375 65.0734L27.4879 61.1864L24.6595 64.0148ZM28.5466 67.9018C30.1087 69.4639 32.6413 69.4639 34.2034 67.9018L31.375 65.0734L31.375 65.0734L28.5466 67.9018ZM34.2034 67.9018L38.4461 63.6592L35.6176 60.8308L31.375 65.0734L34.2034 67.9018ZM38.4461 63.6592C40.0081 62.0971 40.0081 59.5644 38.4461 58.0023L35.6176 60.8308L35.6176 60.8308L38.4461 63.6592ZM38.4461 58.0023L34.6481 54.2044L31.8197 57.0328L35.6176 60.8308L38.4461 58.0023ZM31.8197 54.2044L25.4557 60.5684L28.2842 63.3968L34.6481 57.0328L31.8197 54.2044ZM25.4557 60.5684C25.3315 60.6926 25.1973 60.7955 25.0567 60.8785L27.0908 64.3227C27.5186 64.07 27.9201 63.7609 28.2842 63.3968L25.4557 60.5684ZM56.8308 39.6176L53.0329 35.8196L50.2045 38.6481L54.0024 42.446L56.8308 39.6176ZM56.8308 39.6176L56.8308 39.6176L54.0024 42.446C55.5645 44.0081 58.0972 44.0081 59.6593 42.446L56.8308 39.6176ZM61.0735 35.3749L56.8308 39.6176L59.6593 42.446L63.9019 38.2034L61.0735 35.3749ZM61.0735 35.3749L63.9019 38.2034C65.464 36.6413 65.464 34.1086 63.9019 32.5465L61.0735 35.3749ZM57.1864 31.4879L61.0735 35.3749L63.9019 32.5465L60.0149 28.6595L57.1864 31.4879ZM56.8786 29.0566C56.7955 29.1972 56.6927 29.3314 56.5684 29.4557L59.3969 32.2841C59.7609 31.92 60.0701 31.5185 60.3227 31.0907L56.8786 29.0566ZM56.5684 29.4557L50.2045 35.8196L53.0329 38.6481L59.3969 32.2841L56.5684 29.4557Z" fill="currentColor" />
  <path d="M16.9703 57.7399C13.8461 54.6157 13.8461 49.5503 16.9703 46.4262L42.4262 20.9703C45.5504 17.8461 50.6157 17.8461 53.7399 20.9703L57.9825 25.213C59.5446 26.775 59.5446 29.3077 57.9825 30.8698L26.8698 61.9825C25.3077 63.5446 22.7751 63.5446 21.213 61.9825L16.9703 57.7399Z" fill="currentColor" fill-opacity="0.15" />
  <path d="M18.3845 47.8404L43.8404 22.3845L41.012 19.5561L15.5561 45.0119L18.3845 47.8404ZM52.3257 22.3845L56.5683 26.6272L59.3967 23.7987L55.1541 19.5561L52.3257 22.3845ZM56.5683 29.4556L25.4556 60.5683L28.284 63.3967L59.3967 32.284L56.5683 29.4556ZM22.6272 60.5683L18.3845 56.3256L15.5561 59.1541L19.7988 63.3967L22.6272 60.5683ZM25.4556 60.5683C24.6746 61.3493 23.4082 61.3493 22.6272 60.5683L19.7988 63.3967C22.1419 65.7399 25.9409 65.7399 28.284 63.3967L25.4556 60.5683ZM56.5683 26.6272C57.3494 27.4082 57.3494 28.6745 56.5683 29.4556L59.3967 32.284C61.7399 29.9409 61.7399 26.1419 59.3967 23.7987L56.5683 26.6272ZM43.8404 22.3845C46.1835 20.0414 49.9825 20.0414 52.3257 22.3845L55.1541 19.5561C51.2489 15.6509 44.9172 15.6509 41.012 19.5561L43.8404 22.3845ZM15.5561 45.0119C11.6509 48.9172 11.6509 55.2488 15.5561 59.1541L18.3845 56.3256C16.0414 53.9825 16.0414 50.1835 18.3845 47.8404L15.5561 45.0119Z" fill="currentColor" />
  <rect x="20.7686" y="51.6387" width="6" height="6" rx="3" transform="rotate(-45 20.7686 51.6387)" fill="currentColor" fill-opacity="0.15" stroke="currentColor" stroke-width="4" stroke-linecap="round" stroke-linejoin="round" />
  <rect width="6" height="6" rx="3" transform="matrix(-0.707107 0.707107 0.707107 0.707107 47.6387 24.7686)" fill="currentColor" fill-opacity="0.15" stroke="currentColor" stroke-width="4" stroke-linecap="round" stroke-linejoin="round" />
  <path d="M10 67.0732H74" stroke="currentColor" stroke-width="4" stroke-linecap="round" stroke-linejoin="round" />
</svg>