<svg viewBox="0 0 80 80" fill="none">
  <path d="M68 40C68 55.464 55.464 68 40 68C24.536 68 12 55.464 12 40C12 24.536 24.536 12 40 12C55.464 12 68 24.536 68 40Z" fill="currentColor" fill-opacity="0.15" />
  <path d="M66 40C66 54.3594 54.3594 66 40 66V70C56.5685 70 70 56.5685 70 40H66ZM40 66C25.6406 66 14 54.3594 14 40H10C10 56.5685 23.4315 70 40 70V66ZM14 40C14 25.6406 25.6406 14 40 14V10C23.4315 10 10 23.4315 10 40H14ZM40 14C54.3594 14 66 25.6406 66 40H70C70 23.4315 56.5685 10 40 10V14Z" fill="currentColor" />
  <path d="M49.0131 45L30.9126 45C29.0861 45 28.1713 42.7916 29.4629 41.5L38.1067 32.8562C39.1319 31.831 40.7939 31.831 41.819 32.8562L50.4629 41.5C51.7545 42.7916 50.8397 45 49.0131 45Z" fill="currentColor" fill-opacity="0.15" stroke="currentColor" stroke-width="4" stroke-linecap="round" stroke-linejoin="round" />
</svg>