<svg viewBox="0 0 80 80" fill="none">
  <path d="M65.8112 40.1837L54.8406 51.1543C53.7335 52.2613 54.5176 54.1543 56.0833 54.1543H65.8112C67.468 54.1543 68.8112 52.8111 68.8112 51.1543V41.4263C68.8112 39.8607 66.9183 39.0766 65.8112 40.1837Z" fill="currentColor" fill-opacity="0.25" />
  <path d="M8 21.6273L24.617 38.2443C26.1791 39.8064 28.7118 39.8064 30.2739 38.2443L38.7591 29.7591C40.3212 28.197 42.8539 28.197 44.416 29.7591L60.3259 45.669M72.0001 68H10.0001C8.89553 68 8.0001 67.1046 8.0001 66V12M54.8406 51.1543L65.8112 40.1837C66.9183 39.0766 68.8112 39.8607 68.8112 41.4263V51.1543C68.8112 52.8111 67.468 54.1543 65.8112 54.1543H56.0833C54.5176 54.1543 53.7335 52.2613 54.8406 51.1543Z" stroke="currentColor" stroke-linecap="round" stroke-linejoin="round" />
</svg>