<svg viewBox="0 0 88 88" fill="none">
  <path fill-rule="evenodd" clip-rule="evenodd" d="M69.7714 29.1208C71.7069 32.4733 72.9886 36.2033 73.5037 40.1157C74.5338 47.9406 72.4134 55.8543 67.6088 62.1157C62.8042 68.3772 55.709 72.4736 47.8841 73.5038C40.0592 74.5339 32.1456 72.4135 25.8841 67.6089C22.7534 65.2066 20.1639 62.2317 18.2284 58.8792L31.4472 51.2473C33.3693 54.5764 36.5352 57.0057 40.2484 58.0007C43.9617 58.9956 47.9181 58.4747 51.2472 56.5526C54.5764 54.6305 57.0057 51.4646 58.0006 47.7514C58.9956 44.0382 58.4747 40.0818 56.5526 36.7526L69.7714 29.1208Z" fill="currentColor" fill-opacity="0.15" />
  <path d="M69.7714 29.1208L71.5148 28.1142C70.9589 27.1514 69.7277 26.8215 68.7648 27.3774L69.7714 29.1208ZM73.5037 40.1157L75.4996 39.853L73.5037 40.1157ZM67.6088 62.1157L69.2059 63.3413L67.6088 62.1157ZM47.8841 73.5038L48.1469 75.4997L47.8841 73.5038ZM25.8841 67.6089L24.6586 69.206L25.8841 67.6089ZM18.2284 58.8792L17.2218 57.1357C16.2589 57.6917 15.929 58.9229 16.4849 59.8857L18.2284 58.8792ZM31.4472 51.2473L33.1907 50.2407C32.6347 49.2778 31.4035 48.9479 30.4407 49.5038L31.4472 51.2473ZM40.2484 58.0007L39.7274 59.9452L39.7274 59.9452L40.2484 58.0007ZM58.0006 47.7514L59.9452 48.2725L58.0006 47.7514ZM56.5526 36.7526L55.5461 35.0092C54.5832 35.5651 54.2533 36.7963 54.8092 37.7592L56.5526 36.7526ZM68.0279 30.1274C69.8326 33.2531 71.0275 36.7307 71.5077 40.3785L75.4996 39.853C74.9496 35.6759 73.5812 31.6934 71.5148 28.1142L68.0279 30.1274ZM71.5077 40.3785C72.4682 47.674 70.4912 55.0523 66.0116 60.8902L69.2059 63.3413C74.3355 56.6562 76.5994 48.2072 75.4996 39.853L71.5077 40.3785ZM66.0116 60.8902C61.5321 66.7281 54.9169 70.5474 47.6213 71.5079L48.1469 75.4997C56.5011 74.3998 64.0763 70.0263 69.2059 63.3413L66.0116 60.8902ZM47.6213 71.5079C40.3258 72.4683 32.9475 70.4913 27.1096 66.0118L24.6586 69.206C31.3436 74.3356 39.7926 76.5995 48.1469 75.4997L47.6213 71.5079ZM27.1096 66.0118C24.1907 63.772 21.7764 60.9984 19.9718 57.8726L16.4849 59.8857C18.5514 63.4649 21.3161 66.6412 24.6586 69.206L27.1096 66.0118ZM19.2349 60.6226L32.4538 52.9907L30.4407 49.5038L17.2218 57.1357L19.2349 60.6226ZM29.7038 52.2538C31.8929 56.0454 35.4985 58.8121 39.7274 59.9452L40.7695 56.0561C37.572 55.1994 34.8458 53.1075 33.1907 50.2407L29.7038 52.2538ZM39.7274 59.9452C43.9564 61.0783 48.4622 60.4851 52.2538 58.2961L50.2407 54.8092C47.3739 56.4644 43.967 56.9129 40.7695 56.0561L39.7274 59.9452ZM52.2538 58.2961C56.0454 56.107 58.812 52.5014 59.9452 48.2725L56.0561 47.2304C55.1993 50.4279 53.1075 53.1541 50.2407 54.8092L52.2538 58.2961ZM59.9452 48.2725C61.0783 44.0435 60.4851 39.5376 58.2961 35.7461L54.8092 37.7592C56.4643 40.626 56.9129 44.0329 56.0561 47.2304L59.9452 48.2725ZM57.5592 38.4961L70.7779 30.8642L68.7648 27.3774L55.5461 35.0092L57.5592 38.4961Z" fill="currentColor" />
  <path fill-rule="evenodd" clip-rule="evenodd" d="M45.1695 14.2645L44.5698 29.5166C41.9791 29.4147 39.4086 30.0096 37.1261 31.2391C34.8435 32.4687 32.9326 34.288 31.5924 36.5074C30.2522 38.7268 29.5318 41.265 29.5064 43.8576C29.4809 46.4501 30.1512 49.002 31.4476 51.2473L18.2287 58.8792C16.2931 55.5267 15.0115 51.7967 14.4964 47.8843C13.4662 40.0594 15.5867 32.1457 20.3913 25.8843C25.1959 19.6228 32.2911 15.5264 40.1159 14.4962C41.8022 14.2742 43.4925 14.1985 45.1695 14.2645Z" fill="currentColor" fill-opacity="0.15" />
  <path d="M45.1695 14.2645L47.1811 14.3436C47.2248 13.2326 46.3596 12.2966 45.2486 12.2529L45.1695 14.2645ZM44.5698 29.5166L44.4907 31.5281C45.0242 31.5491 45.5442 31.3573 45.9363 30.9949C46.3283 30.6325 46.5604 30.1292 46.5814 29.5957L44.5698 29.5166ZM37.1261 31.2391L38.0808 33.0115L37.1261 31.2391ZM31.5924 36.5074L29.8691 35.4668L29.8691 35.4668L31.5924 36.5074ZM29.5064 43.8576L27.4933 43.8378L27.4933 43.8378L29.5064 43.8576ZM31.4476 51.2473L32.4541 52.9907C32.9165 52.7237 33.2539 52.284 33.3921 51.7683C33.5303 51.2526 33.458 50.7031 33.191 50.2407L31.4476 51.2473ZM18.2287 58.8792L16.4853 59.8858C17.0412 60.8486 18.2724 61.1785 19.2353 60.6226L18.2287 58.8792ZM14.4964 47.8843L16.4923 47.6215L16.4923 47.6215L14.4964 47.8843ZM20.3913 25.8843L18.7942 24.6587L20.3913 25.8843ZM40.1159 14.4962L40.3787 16.4921L40.1159 14.4962ZM43.1579 14.1854L42.5582 29.4375L46.5814 29.5957L47.1811 14.3436L43.1579 14.1854ZM44.6489 27.505C41.6984 27.389 38.7709 28.0664 36.1713 29.4668L38.0808 33.0115C40.0463 31.9527 42.2598 31.4404 44.4907 31.5281L44.6489 27.505ZM36.1713 29.4668C33.5718 30.8672 31.3954 32.9391 29.8691 35.4668L33.3157 37.548C34.4698 35.6369 36.1153 34.0703 38.0808 33.0115L36.1713 29.4668ZM29.8691 35.4668C28.3428 37.9944 27.5223 40.8852 27.4933 43.8378L31.5194 43.8773C31.5413 41.6449 32.1617 39.4592 33.3157 37.548L29.8691 35.4668ZM27.4933 43.8378C27.4643 46.7904 28.2278 49.6967 29.7041 52.2538L33.191 50.2407C32.0747 48.3073 31.4975 46.1098 31.5194 43.8773L27.4933 43.8378ZM30.441 49.5038L17.2221 57.1358L19.2353 60.6226L32.4541 52.9907L30.441 49.5038ZM19.9721 57.8726C18.1675 54.7469 16.9726 51.2693 16.4923 47.6215L12.5005 48.147C13.0504 52.3241 14.4188 56.3066 16.4853 59.8858L19.9721 57.8726ZM16.4923 47.6215C15.5318 40.326 17.5089 32.9477 21.9884 27.1098L18.7942 24.6587C13.6645 31.3438 11.4006 39.7928 12.5005 48.147L16.4923 47.6215ZM21.9884 27.1098C26.468 21.2719 33.0832 17.4526 40.3787 16.4921L39.8532 12.5003C31.4989 13.6002 23.9238 17.9737 18.7942 24.6587L21.9884 27.1098ZM40.3787 16.4921C41.951 16.2852 43.5269 16.2146 45.0904 16.2761L45.2486 12.2529C43.4581 12.1825 41.6533 12.2633 39.8532 12.5003L40.3787 16.4921Z" fill="currentColor" />
  <path fill-rule="evenodd" clip-rule="evenodd" d="M45.1564 14.2639C51.2662 14.5015 57.2001 16.6191 62.1158 20.391C65.2376 22.7865 67.8213 25.7514 69.7551 29.0922L56.5448 36.7387C55.3193 34.6216 53.578 32.8491 51.4831 31.5862C49.3881 30.3234 47.0076 29.6112 44.5633 29.5162L45.1564 14.2639Z" fill="currentColor" fill-opacity="0.15" />
  <path d="M45.1564 14.2639L45.2346 12.2523C44.7011 12.2315 44.1812 12.4235 43.7893 12.7861C43.3974 13.1487 43.1655 13.6521 43.1448 14.1856L45.1564 14.2639ZM62.1158 20.391L60.8902 21.9881L62.1158 20.391ZM69.7551 29.0922L70.7636 30.8346C71.7258 30.2776 72.0544 29.046 71.4974 28.0837L69.7551 29.0922ZM56.5448 36.7387L54.8024 37.7472C55.3594 38.7094 56.591 39.038 57.5533 38.481L56.5448 36.7387ZM51.4831 31.5862L52.5224 29.8621L51.4831 31.5862ZM44.5633 29.5162L42.5517 29.438C42.5085 30.549 43.3741 31.4846 44.4851 31.5278L44.5633 29.5162ZM45.0782 16.2755C50.7747 16.497 56.3072 18.4714 60.8902 21.9881L63.3413 18.7939C58.093 14.7667 51.7577 12.5059 45.2346 12.2523L45.0782 16.2755ZM60.8902 21.9881C63.8009 24.2216 66.2098 26.9858 68.0127 30.1007L71.4974 28.0837C69.4328 24.517 66.6743 21.3514 63.3413 18.7939L60.8902 21.9881ZM68.7466 27.3499L55.5363 34.9964L57.5533 38.481L70.7636 30.8346L68.7466 27.3499ZM58.2871 35.7302C56.8915 33.3191 54.9083 31.3004 52.5224 29.8621L50.4438 33.3103C52.2478 34.3978 53.7472 35.9241 54.8024 37.7472L58.2871 35.7302ZM52.5224 29.8621C50.1364 28.4239 47.4253 27.6128 44.6415 27.5046L44.4851 31.5278C46.5899 31.6097 48.6398 32.2229 50.4438 33.3103L52.5224 29.8621ZM46.5749 29.5944L47.168 14.3421L43.1448 14.1856L42.5517 29.438L46.5749 29.5944Z" fill="currentColor" />
</svg>