<svg viewBox="0 0 80 80" fill="none">
  <path d="M65 44C66.1046 44 67 44.8954 67 46V66C67 67.1046 66.1046 68 65 68H51C49.8954 68 49 67.1046 49 66V46C49 44.8954 49.8954 44 51 44H65Z" fill="currentColor" fill-opacity="0.25" />
  <path d="M29 28C30.1046 28 31 28.8954 31 30V66C31 67.1046 30.1046 68 29 68H15C13.8954 68 13 67.1046 13 66V30C13 28.8954 13.8954 28 15 28H29Z" fill="currentColor" fill-opacity="0.25" />
  <path d="M47 12C48.1046 12 49 12.8954 49 14V66C49 67.1046 48.1046 68 47 68H33C31.8954 68 31 67.1046 31 66V14C31 12.8954 31.8954 12 33 12H47Z" fill="currentColor" fill-opacity="0.25" />
  <path d="M49 66V46C49 44.8954 49.8954 44 51 44H65C66.1046 44 67 44.8954 67 46V66C67 67.1046 66.1046 68 65 68H51C49.8954 68 49 67.1046 49 66ZM49 66V14C49 12.8954 48.1046 12 47 12H33C31.8954 12 31 12.8954 31 14V66M49 66C49 67.1046 48.1046 68 47 68H33C31.8954 68 31 67.1046 31 66M31 66V30C31 28.8954 30.1046 28 29 28H15C13.8954 28 13 28.8954 13 30V66C13 67.1046 13.8954 68 15 68H29C30.1046 68 31 67.1046 31 66ZM72 68H8" stroke="currentColor" stroke-width="4" stroke-linecap="round" stroke-linejoin="round" />
</svg>