<svg viewBox="0 0 80 80" fill="none">
  <path d="M29 44C30.1046 44 31 44.8954 31 46V66C31 67.1046 30.1046 68 29 68H15C13.8954 68 13 67.1046 13 66V46C13 44.8954 13.8954 44 15 44H29Z" fill="currentColor" fill-opacity="0.25" />
  <path d="M47 28C48.1046 28 49 28.8954 49 30V66C49 67.1046 48.1046 68 47 68H33C31.8954 68 31 67.1046 31 66V30C31 28.8954 31.8954 28 33 28H47Z" fill="currentColor" fill-opacity="0.25" />
  <path d="M65 12C66.1046 12 67 12.8954 67 14V66C67 67.1046 66.1046 68 65 68H51C49.8954 68 49 67.1046 49 66V14C49 12.8954 49.8954 12 51 12H65Z" fill="currentColor" fill-opacity="0.25" />
  <path d="M31 66V46C31 44.8954 30.1046 44 29 44H15C13.8954 44 13 44.8954 13 46V66C13 67.1046 13.8954 68 15 68H29C30.1046 68 31 67.1046 31 66ZM31 66V30C31 28.8954 31.8954 28 33 28H47C48.1046 28 49 28.8954 49 30V66M31 66C31 67.1046 31.8954 68 33 68H47C48.1046 68 49 67.1046 49 66M49 66V14C49 12.8954 49.8954 12 51 12H65C66.1046 12 67 12.8954 67 14V66C67 67.1046 66.1046 68 65 68H51C49.8954 68 49 67.1046 49 66ZM72 68H8" stroke="currentColor" stroke-width="4" stroke-linecap="round" stroke-linejoin="round" />
</svg>