<svg viewBox="0 0 80 80" fill="none">
  <path d="M16 18C16 16.8954 16.8954 16 18 16H62C63.1046 16 64 16.8954 64 18V62C64 63.1046 63.1046 64 62 64H18C16.8954 64 16 63.1046 16 62V18Z" fill="currentColor" fill-opacity="0.25" />
  <path d="M25.2307 40.1819L33.6694 48.7005C34.4467 49.4853 35.7071 49.4853 36.4844 48.7005L54.7692 30.2424M18 64H62C63.1046 64 64 63.1046 64 62V18C64 16.8954 63.1046 16 62 16H18C16.8954 16 16 16.8954 16 18V62C16 63.1046 16.8954 64 18 64Z" stroke="currentColor" stroke-linecap="round" stroke-linejoin="round" />
</svg>