<svg viewBox="0 0 80 80" fill="none">
  <path d="M30 13.5H23C20.2386 13.5 18 15.7386 18 18.5V64.5C18 67.2614 20.2386 69.5 23 69.5H57C59.7614 69.5 62 67.2614 62 64.5V18.5C62 15.7386 59.7614 13.5 57 13.5H50C50 15.7091 48.2091 17.5 46 17.5H34C31.7909 17.5 30 15.7091 30 13.5Z" fill="currentColor" fill-opacity="0.25" />
  <path d="M30 13.5C30 11.2909 31.7909 9.5 34 9.5H46C48.2091 9.5 50 11.2909 50 13.5C50 15.7091 48.2091 17.5 46 17.5H34C31.7909 17.5 30 15.7091 30 13.5Z" fill="currentColor" fill-opacity="0.25" />
  <path d="M30 13.5H23C20.2386 13.5 18 15.7386 18 18.5V64.5C18 67.2614 20.2386 69.5 23 69.5H57C59.7614 69.5 62 67.2614 62 64.5V18.5C62 15.7386 59.7614 13.5 57 13.5H50M30 13.5C30 15.7091 31.7909 17.5 34 17.5H46C48.2091 17.5 50 15.7091 50 13.5M30 13.5C30 11.2909 31.7909 9.5 34 9.5H46C48.2091 9.5 50 11.2909 50 13.5" stroke="currentColor" stroke-width="4" stroke-linecap="round" stroke-linejoin="round" />
</svg>