<svg viewBox="0 0 80 80" fill="none">
  <path fill-rule="evenodd" clip-rule="evenodd" d="M30 13.5L23 13.5C20.2386 13.5 18 15.7386 18 18.5L18 64.5C18 67.2614 20.2386 69.5 23 69.5H57C59.7614 69.5 62 67.2614 62 64.5L62 18.5C62 15.7386 59.7614 13.5 57 13.5L50 13.5C50 15.7091 48.2091 17.5 46 17.5H34C31.7909 17.5 30 15.7091 30 13.5Z" fill="currentColor" fill-opacity="0.25" />
  <path d="M30 13.5H32V11.5H30V13.5ZM50 13.5V11.5H48V13.5H50ZM23 15.5L30 15.5V11.5L23 11.5V15.5ZM20 18.5C20 16.8431 21.3431 15.5 23 15.5V11.5C19.134 11.5 16 14.634 16 18.5H20ZM20 64.5L20 18.5H16L16 64.5H20ZM23 67.5C21.3431 67.5 20 66.1569 20 64.5H16C16 68.366 19.134 71.5 23 71.5L23 67.5ZM57 67.5H23L23 71.5H57V67.5ZM60 64.5C60 66.1569 58.6569 67.5 57 67.5V71.5C60.866 71.5 64 68.366 64 64.5H60ZM60 18.5L60 64.5H64L64 18.5H60ZM57 15.5C58.6569 15.5 60 16.8431 60 18.5H64C64 14.634 60.866 11.5 57 11.5V15.5ZM50 15.5L57 15.5V11.5L50 11.5V15.5ZM48 13.5C48 14.6046 47.1046 15.5 46 15.5V19.5C49.3137 19.5 52 16.8137 52 13.5H48ZM46 15.5H34V19.5H46V15.5ZM34 15.5C32.8954 15.5 32 14.6046 32 13.5H28C28 16.8137 30.6863 19.5 34 19.5V15.5Z" fill="currentColor" />
  <rect x="30" y="9.5" width="20" height="8" rx="4" fill="currentColor" fill-opacity="0.25" stroke="currentColor" stroke-width="4" />
</svg>