<svg viewBox="0 0 80 80" fill="none">
  <path d="M57.0644 21.5748C60.6954 23.6326 63.344 27.0276 64.4342 31.0213C65.0248 33.1848 65.132 35.4286 64.7757 37.6053C66.0682 38.1968 67.261 39.0119 68.2944 40.0262L68.3765 40.1069C70.6943 42.382 72 45.4933 72 48.7411C72 51.9888 70.6943 55.1002 68.3765 57.3753L68.2944 57.4559C65.9809 59.7268 62.8686 60.999 59.6269 60.999H56.8111C56.8012 60.9998 56.7913 61.0002 56.7813 61.0002H23.2203C23.2179 61.0002 23.2154 61.0001 23.2129 61.0001H20.3731C17.1314 61.0001 14.0191 59.7278 11.7056 57.457L11.6235 57.3763C9.30573 55.1012 8 51.9899 8 48.7421C8 45.4944 9.30573 42.383 11.6235 40.1079L11.7056 40.0273C13.5867 38.1808 15.9959 36.9946 18.5734 36.6157C18.6316 36.2445 18.7097 35.875 18.8078 35.5088C19.5518 32.7309 21.3869 30.3668 23.9092 28.9374C26.4315 27.5079 29.4348 27.13 32.2576 27.8864C32.9854 28.0815 33.686 28.3479 34.3501 28.6786L35.1356 27.3431C37.2774 23.7018 40.7991 21.0438 44.9174 19.9607C48.986 18.8906 53.3056 19.4446 56.9366 21.5024L57.0644 21.5748Z" fill="currentColor" fill-opacity="0.25" stroke="currentColor" stroke-width="4" stroke-linecap="round" stroke-linejoin="round" />
</svg>