<svg viewBox="0 0 80 80" fill="none">
  <path fill-rule="evenodd" clip-rule="evenodd" d="M36.0405 20.16L36.0213 14L36.0021 20.1602L36.0217 20.1538L36.0405 20.16ZM24.2656 17.8197L27.9021 22.7921L27.8831 22.7982L27.8711 22.8148L24.2656 17.8197ZM47.777 17.8197L44.172 22.8143L44.1603 22.7982L44.1407 22.7919L47.777 17.8197ZM38.7344 25.6507C36.9712 25.0778 35.0719 25.0778 33.3087 25.6507C31.5455 26.2236 30.0089 27.34 28.9192 28.8398L28.9104 28.852C29.0279 28.9574 29.1433 29.0656 29.2566 29.1764C31.0786 30.9589 32.2271 33.2992 32.5266 35.7911C34.6592 34.8316 37.0822 34.6354 39.3668 35.2521C39.7019 35.3426 40.0308 35.4496 40.3525 35.5723C40.6741 35.695 40.9885 35.8335 41.2945 35.9869L42.0319 34.7241C42.7049 33.5715 43.5267 32.5255 44.4683 31.608C44.1883 30.6193 43.7352 29.6813 43.1239 28.8398C42.0341 27.34 40.4976 26.2236 38.7344 25.6507Z" fill="currentColor" fill-opacity="0.15" />
  <path d="M36.0213 14L38.0213 13.9938C38.0179 12.8916 37.1235 12 36.0213 12C34.9192 12 34.0248 12.8916 34.0213 13.9938L36.0213 14ZM36.0405 20.16L35.4225 22.0621C36.0325 22.2603 36.7004 22.1539 37.2187 21.7762C37.7369 21.3984 38.0425 20.795 38.0405 20.1537L36.0405 20.16ZM36.0021 20.1602L34.0021 20.154C34.0001 20.7953 34.3058 21.3987 34.824 21.7764C35.3423 22.1542 36.0102 22.2605 36.6202 22.0623L36.0021 20.1602ZM36.0217 20.1538L36.6397 18.2517C36.238 18.1212 35.8053 18.1212 35.4037 18.2517L36.0217 20.1538ZM27.9021 22.7921L28.5201 24.6942C29.13 24.496 29.6079 24.0174 29.8051 23.4071C30.0024 22.7969 29.895 22.1291 29.5164 21.6115L27.9021 22.7921ZM24.2656 17.8197L25.88 16.639C25.2294 15.7494 23.9817 15.5538 23.0901 16.2016C22.1984 16.8494 21.9989 18.0965 22.6439 18.9902L24.2656 17.8197ZM27.8831 22.7982L27.2651 20.8961C26.8634 21.0266 26.5134 21.281 26.2651 21.6227L27.8831 22.7982ZM27.8711 22.8148L26.2494 23.9854C26.6247 24.5054 27.2266 24.8138 27.868 24.8148C28.5093 24.8158 29.1122 24.5092 29.4891 23.9904L27.8711 22.8148ZM44.172 22.8143L42.5539 23.9898C42.9308 24.5087 43.5337 24.8153 44.175 24.8143C44.8164 24.8133 45.4183 24.5048 45.7937 23.9848L44.172 22.8143ZM47.777 17.8197L49.3987 18.9902C50.0438 18.0965 49.8442 16.8494 48.9526 16.2016C48.061 15.5538 46.8133 15.7494 46.1627 16.639L47.777 17.8197ZM44.1603 22.7982L45.7783 21.6227C45.5301 21.281 45.18 21.0266 44.7783 20.8961L44.1603 22.7982ZM44.1407 22.7919L42.5264 21.6113C42.1478 22.1289 42.0404 22.7967 42.2377 23.4069C42.4349 24.0172 42.9128 24.4958 43.5227 24.694L44.1407 22.7919ZM33.3087 25.6507L33.9267 27.5528H33.9267L33.3087 25.6507ZM38.7344 25.6507L38.1163 27.5528H38.1163L38.7344 25.6507ZM28.9192 28.8398L27.3011 27.6643L27.3001 27.6657L28.9192 28.8398ZM28.9104 28.852L27.2913 27.6778C26.69 28.507 26.8123 29.6565 27.5746 30.3405L28.9104 28.852ZM29.2566 29.1764L27.8579 30.606L27.8579 30.606L29.2566 29.1764ZM32.5266 35.7911L30.5409 36.0298C30.6169 36.6616 30.9889 37.2196 31.543 37.5325C32.0971 37.8455 32.767 37.8761 33.3473 37.615L32.5266 35.7911ZM39.3668 35.2521L39.888 33.3212L39.888 33.3212L39.3668 35.2521ZM40.3525 35.5723L39.6395 37.4409H39.6395L40.3525 35.5723ZM41.2945 35.9869L40.3983 37.7748C41.3414 38.2476 42.4896 37.9065 43.0216 36.9954L41.2945 35.9869ZM42.0319 34.7241L43.759 35.7327L43.759 35.7327L42.0319 34.7241ZM44.4683 31.608L45.8641 33.0404C46.3898 32.5282 46.5926 31.7692 46.3927 31.063L44.4683 31.608ZM43.1239 28.8398L41.5058 30.0154V30.0154L43.1239 28.8398ZM34.0213 14.0062L34.0406 20.1662L38.0405 20.1537L38.0213 13.9938L34.0213 14.0062ZM38.0021 20.1665L38.0213 14.0062L34.0213 13.9938L34.0021 20.154L38.0021 20.1665ZM35.4037 18.2517L35.3841 18.2581L36.6202 22.0623L36.6398 22.056L35.4037 18.2517ZM36.6586 18.2578L36.6397 18.2517L35.4037 22.056L35.4225 22.0621L36.6586 18.2578ZM29.5164 21.6115L25.88 16.639L22.6513 19.0003L26.2877 23.9727L29.5164 21.6115ZM28.5012 24.7003L28.5201 24.6942L27.284 20.89L27.2651 20.8961L28.5012 24.7003ZM29.4891 23.9904L29.5012 23.9738L26.2651 21.6227L26.253 21.6393L29.4891 23.9904ZM22.6439 18.9902L26.2494 23.9854L29.4928 21.6443L25.8873 16.6491L22.6439 18.9902ZM45.7937 23.9848L49.3987 18.9902L46.1553 16.6491L42.5503 21.6438L45.7937 23.9848ZM42.5422 23.9737L42.5539 23.9898L45.79 21.6388L45.7783 21.6227L42.5422 23.9737ZM43.5227 24.694L43.5422 24.7003L44.7783 20.8961L44.7588 20.8898L43.5227 24.694ZM46.1627 16.639L42.5264 21.6113L45.7551 23.9725L49.3914 19.0003L46.1627 16.639ZM33.9267 27.5528C35.2882 27.1104 36.7548 27.1104 38.1163 27.5528L39.3524 23.7486C37.1875 23.0452 34.8555 23.0452 32.6906 23.7486L33.9267 27.5528ZM30.5372 30.0154C31.3787 28.8572 32.5652 27.9952 33.9267 27.5528L32.6906 23.7486C30.5257 24.452 28.6391 25.8227 27.3011 27.6643L30.5372 30.0154ZM30.5294 30.0262L30.5382 30.014L27.3001 27.6657L27.2913 27.6778L30.5294 30.0262ZM30.6552 27.7468C30.5214 27.6158 30.3849 27.488 30.2461 27.3634L27.5746 30.3405C27.6708 30.4269 27.7653 30.5154 27.8579 30.606L30.6552 27.7468ZM34.5124 35.5525C34.1584 32.6072 32.8021 29.8471 30.6552 27.7468L27.8579 30.606C29.3552 32.0708 30.2959 33.9912 30.5409 36.0298L34.5124 35.5525ZM39.888 33.3212C37.1582 32.5843 34.261 32.8176 31.706 33.9673L33.3473 37.615C35.0574 36.8456 37.0062 36.6865 38.8456 37.183L39.888 33.3212ZM41.0655 33.7037C40.6812 33.5571 40.2883 33.4293 39.888 33.3212L38.8455 37.183C39.1155 37.2558 39.3804 37.342 39.6395 37.4409L41.0655 33.7037ZM42.1907 34.1989C41.8252 34.0157 41.4497 33.8503 41.0655 33.7037L39.6395 37.4409C39.8985 37.5397 40.1518 37.6513 40.3983 37.7748L42.1907 34.1989ZM40.3048 33.7156L39.5674 34.9784L43.0216 36.9954L43.759 35.7327L40.3048 33.7156ZM43.0726 30.1755C42.0033 31.2175 41.0696 32.4058 40.3048 33.7156L43.759 35.7327C44.3402 34.7373 45.05 33.8336 45.8641 33.0404L43.0726 30.1755ZM41.5058 30.0154C41.9779 30.6652 42.3278 31.3894 42.544 32.1529L46.3927 31.063C46.0489 29.8491 45.4926 28.6975 44.7419 27.6643L41.5058 30.0154ZM38.1163 27.5528C39.4779 27.9952 40.6644 28.8572 41.5058 30.0154L44.7419 27.6643C43.4039 25.8227 41.5173 24.452 39.3524 23.7486L38.1163 27.5528Z" fill="currentColor" />
  <path fill-rule="evenodd" clip-rule="evenodd" d="M29.2537 29.1763C27.1742 27.1419 24.3555 26 21.4697 26C18.5838 26 15.8021 27.1419 13.7885 29.1763C12.4435 30.5352 11.5004 32.2182 11.0311 34.0454C9.39948 34.4321 7.88873 35.2648 6.68274 36.4637C4.97168 38.1647 4 40.4873 4 42.9C4 45.3127 4.97168 47.6353 6.68274 49.3362C8.39279 51.0362 10.7156 51.9999 13.1269 51.9999H16.942L16.9439 51.9997H17.1123L17.1538 51.9999H17.3112C17.8029 49.955 18.8614 48.0624 20.3758 46.5651C22.1119 44.8486 24.3547 43.7278 26.7461 43.3641C26.7999 43.0175 26.8722 42.6727 26.963 42.331C27.6475 39.7567 29.3415 37.5545 31.6663 36.2275C31.9459 36.0678 32.2321 35.9223 32.5237 35.7911C32.2242 33.2992 31.0757 30.9589 29.2537 29.1763Z" fill="currentColor" fill-opacity="0.15" />
  <path d="M29.2537 29.1763L27.855 30.6059L29.2537 29.1763ZM13.7885 29.1763L12.367 27.7694V27.7694L13.7885 29.1763ZM11.0311 34.0454L11.4924 35.9915C12.2152 35.8202 12.7835 35.2624 12.9682 34.5429L11.0311 34.0454ZM6.68274 36.4637L5.27271 35.0453H5.27271L6.68274 36.4637ZM6.68274 49.3362L5.27271 50.7546H5.27271L6.68274 49.3362ZM16.942 51.9999V53.9999C17.017 53.9999 17.0918 53.9957 17.1663 53.9873L16.942 51.9999ZM16.9439 51.9997V49.9997C16.869 49.9997 16.7941 50.0039 16.7196 50.0123L16.9439 51.9997ZM17.1123 51.9997L17.1225 49.9997H17.1123V51.9997ZM17.1538 51.9999L17.1437 53.9999H17.1538V51.9999ZM17.3112 51.9999V53.9999C18.2357 53.9999 19.0397 53.3663 19.2558 52.4674L17.3112 51.9999ZM20.3758 46.5651L21.782 47.9873L20.3758 46.5651ZM26.7461 43.3641L27.0468 45.3413C27.9101 45.21 28.5884 44.5339 28.7224 43.671L26.7461 43.3641ZM26.963 42.331L25.0302 41.817L26.963 42.331ZM31.6663 36.2275L30.6748 34.4905L30.6748 34.4905L31.6663 36.2275ZM32.5237 35.7911L33.3444 37.615C34.1419 37.2561 34.6138 36.4208 34.5094 35.5525L32.5237 35.7911ZM21.4697 28C23.834 28 26.1503 28.9381 27.855 30.6059L30.6523 27.7467C28.1982 25.3457 24.877 24 21.4697 24V28ZM15.2099 30.5832C16.8401 28.9362 19.1067 28 21.4697 28V24C18.061 24 14.764 25.3476 12.367 27.7694L15.2099 30.5832ZM12.9682 34.5429C13.3505 33.0546 14.1177 31.6867 15.2099 30.5832L12.367 27.7694C10.7692 29.3837 9.65027 31.3818 9.09396 33.5479L12.9682 34.5429ZM8.09277 37.8821C9.0352 36.9452 10.2169 36.2938 11.4924 35.9915L10.5698 32.0993C8.58211 32.5705 6.74225 33.5845 5.27271 35.0453L8.09277 37.8821ZM6 42.9C6 41.0229 6.75711 39.2099 8.09277 37.8821L5.27271 35.0453C3.18626 37.1195 2 39.9517 2 42.9H6ZM8.09277 47.9178C6.75711 46.59 6 44.777 6 42.9H2C2 45.8483 3.18626 48.6805 5.27271 50.7546L8.09277 47.9178ZM13.1269 49.9999C11.2471 49.9999 9.43031 49.2475 8.09277 47.9178L5.27271 50.7546C7.35527 52.8249 10.1841 53.9999 13.1269 53.9999V49.9999ZM16.942 49.9999H13.1269V53.9999H16.942V49.9999ZM16.7196 50.0123L16.7177 50.0125L17.1663 53.9873L17.1682 53.9871L16.7196 50.0123ZM17.1123 49.9997H16.9439V53.9997H17.1123V49.9997ZM17.164 49.9999L17.1225 49.9997L17.1021 53.9997L17.1437 53.9999L17.164 49.9999ZM17.3112 49.9999H17.1538V53.9999H17.3112V49.9999ZM19.2558 52.4674C19.661 50.782 20.5343 49.2208 21.782 47.9873L18.9696 45.1428C17.1884 46.904 15.9447 49.1279 15.3666 51.5324L19.2558 52.4674ZM21.782 47.9873C23.2169 46.5685 25.0725 45.6416 27.0468 45.3413L26.4454 41.3868C23.6368 41.814 21.0068 43.1287 18.9696 45.1428L21.782 47.9873ZM28.7224 43.671C28.7654 43.3939 28.8232 43.1181 28.8959 42.8449L25.0302 41.817C24.9211 42.2272 24.8344 42.6412 24.7698 43.0571L28.7224 43.671ZM28.8959 42.8449C29.4426 40.7887 30.7969 39.0266 32.6578 37.9644L30.6748 34.4905C27.8861 36.0824 25.8524 38.7247 25.0302 41.817L28.8959 42.8449ZM32.6578 37.9644C32.8816 37.8366 33.1108 37.7201 33.3444 37.615L31.7031 33.9673C31.3535 34.1246 31.0103 34.299 30.6748 34.4905L32.6578 37.9644ZM27.855 30.6059C29.3522 32.0707 30.293 33.9912 30.538 36.0298L34.5094 35.5525C34.1555 32.6072 32.7992 29.847 30.6523 27.7467L27.855 30.6059Z" fill="currentColor" />
  <path fill-rule="evenodd" clip-rule="evenodd" d="M62.1723 29.3573C65.5336 31.276 68.0257 34.4743 69.0331 38.1916C69.5761 40.1953 69.6744 42.2762 69.3452 44.2928C70.5525 44.8502 71.6656 45.6163 72.6242 46.5641C74.7696 48.6853 76 51.5996 76 54.6166C76 57.6335 74.7696 60.5478 72.6242 62.669C70.4813 64.7878 67.5662 65.9989 64.5527 65.9989H61.9979C61.9888 65.9996 61.9796 65.9999 61.9703 65.9999H31.0312C31.0287 65.9999 31.0261 65.9999 31.0236 65.9998H28.4473C25.4338 65.9998 22.5187 64.7887 20.3758 62.67C18.2304 60.5488 17 57.6344 17 54.6175C17 51.6006 18.2304 48.6862 20.3758 46.5651C22.1119 44.8486 24.3547 43.7278 26.7461 43.3641C26.7999 43.0176 26.8722 42.6727 26.963 42.331C27.6475 39.7567 29.3415 37.5546 31.6663 36.2275C33.991 34.9004 36.7669 34.551 39.364 35.2521C40.0342 35.433 40.6797 35.6801 41.2917 35.9868L42.0291 34.7241C43.9953 31.3569 47.2305 28.8995 51.0181 27.896C54.7778 26.9 58.811 27.4385 62.1723 29.3573Z" fill="currentColor" fill-opacity="0.15" />
  <path d="M69.0331 38.1916L67.1027 38.7147V38.7147L69.0331 38.1916ZM62.1723 29.3573L63.1638 27.6204V27.6204L62.1723 29.3573ZM69.3452 44.2928L67.3713 43.9705C67.2265 44.8574 67.691 45.732 68.5069 46.1086L69.3452 44.2928ZM72.6242 46.5641L71.218 47.9863L72.6242 46.5641ZM72.6242 62.669L74.0304 64.0912H74.0304L72.6242 62.669ZM61.9979 65.9989V63.9989C61.9472 63.9989 61.8966 64.0008 61.8461 64.0046L61.9979 65.9989ZM31.0236 65.9998L31.0654 64.0003C31.0515 64 31.0375 63.9998 31.0236 63.9998V65.9998ZM20.3758 62.67L21.782 61.2477H21.782L20.3758 62.67ZM20.3758 46.5651L21.782 47.9873H21.782L20.3758 46.5651ZM26.7461 43.3641L27.0468 45.3414C27.9101 45.2101 28.5884 44.5339 28.7224 43.6711L26.7461 43.3641ZM26.963 42.331L28.8959 42.8449V42.8449L26.963 42.331ZM31.6663 36.2275L30.6748 34.4906L30.6748 34.4906L31.6663 36.2275ZM39.364 35.2521L39.8852 33.3212L39.364 35.2521ZM41.2917 35.9868L40.3955 37.7748C41.3386 38.2476 42.4868 37.9064 43.0188 36.9954L41.2917 35.9868ZM42.0291 34.7241L43.7562 35.7326H43.7562L42.0291 34.7241ZM51.0181 27.896L50.506 25.9627L51.0181 27.896ZM70.9635 37.6685C69.8152 33.4313 66.981 29.7994 63.1638 27.6204L61.1808 31.0942C64.0862 32.7527 66.2363 35.5174 67.1027 38.7147L70.9635 37.6685ZM71.319 44.6151C71.6937 42.3202 71.5821 39.951 70.9635 37.6685L67.1027 38.7147C67.5702 40.4396 67.6551 42.2321 67.3713 43.9705L71.319 44.6151ZM74.0304 45.1419C72.9047 44.0289 71.5988 43.1304 70.1835 42.477L68.5069 46.1086C69.5061 46.5699 70.4265 47.2037 71.218 47.9863L74.0304 45.1419ZM78 54.6166C78 51.0592 76.5514 47.6345 74.0304 45.1419L71.218 47.9863C72.9877 49.7361 74 52.1401 74 54.6166H78ZM74.0304 64.0912C76.5514 61.5986 78 58.1739 78 54.6166H74C74 57.093 72.9877 59.497 71.218 61.2468L74.0304 64.0912ZM64.5527 67.9989C68.0987 67.9989 71.5173 66.5759 74.0304 64.0912L71.218 61.2468C69.4452 62.9996 67.0337 63.9989 64.5527 63.9989V67.9989ZM61.9979 67.9989H64.5527V63.9989H61.9979V67.9989ZM61.8461 64.0046C61.8878 64.0015 61.9292 63.9999 61.9703 63.9999V67.9999C62.0299 67.9999 62.0898 67.9977 62.1497 67.9931L61.8461 64.0046ZM61.9703 63.9999L31.0312 63.9999V67.9999H61.9703V63.9999ZM31.0312 63.9999C31.0426 63.9999 31.054 64 31.0654 64.0003L30.9817 67.9994C30.9983 67.9998 31.0148 67.9999 31.0312 67.9999V63.9999ZM28.4473 67.9998H31.0236V63.9998H28.4473V67.9998ZM18.9696 64.0922C21.4827 66.5769 24.9013 67.9998 28.4473 67.9998V63.9998C25.9663 63.9998 23.5548 63.0005 21.782 61.2477L18.9696 64.0922ZM15 54.6175C15 58.1749 16.4486 61.5996 18.9696 64.0922L21.782 61.2477C20.0123 59.498 19 57.094 19 54.6175H15ZM18.9696 45.1429C16.4486 47.6354 15 51.0601 15 54.6175H19C19 52.141 20.0123 49.737 21.782 47.9873L18.9696 45.1429ZM26.4454 41.3868C23.6368 41.814 21.0068 43.1287 18.9696 45.1429L21.782 47.9873C23.2169 46.5685 25.0725 45.6416 27.0468 45.3414L26.4454 41.3868ZM25.0302 41.817C24.9211 42.2273 24.8344 42.6412 24.7698 43.0571L28.7224 43.6711C28.7654 43.3939 28.8232 43.1181 28.8959 42.8449L25.0302 41.817ZM30.6748 34.4906C27.8861 36.0825 25.8524 38.7247 25.0302 41.817L28.8959 42.8449C29.4426 40.7888 30.7969 39.0267 32.6578 37.9644L30.6748 34.4906ZM39.8852 33.3212C36.7828 32.4837 33.4626 32.8992 30.6748 34.4906L32.6578 37.9644C34.5195 36.9017 36.751 36.6183 38.8428 37.183L39.8852 33.3212ZM42.1879 34.1989C41.4569 33.8325 40.6859 33.5373 39.8852 33.3212L38.8428 37.183C39.3826 37.3287 39.9025 37.5277 40.3955 37.7748L42.1879 34.1989ZM40.302 33.7156L39.5646 34.9783L43.0188 36.9954L43.7562 35.7326L40.302 33.7156ZM50.506 25.9627C46.2098 27.1009 42.5364 29.8891 40.302 33.7156L43.7562 35.7326C45.4542 32.8248 48.2512 30.6981 51.5303 29.8293L50.506 25.9627ZM63.1638 27.6204C59.3491 25.4428 54.7761 24.8315 50.506 25.9627L51.5303 29.8293C54.7795 28.9686 58.2729 29.4343 61.1808 31.0942L63.1638 27.6204Z" fill="currentColor" />
</svg>