<svg viewBox="0 0 80 80" fill="none">
  <path d="M46.1865 13.6244C42.4352 11.4585 37.8135 11.4585 34.0622 13.6244C30.3109 15.7902 28 19.7927 28 24.1244C28 27.6236 29.5081 30.908 32.0653 33.183C30.0625 31.7849 27.6494 30.9997 25.1244 30.9997C20.7927 30.9997 16.7902 33.3106 14.6244 37.0618C12.4585 40.8131 12.4585 45.4349 14.6244 49.1862C16.7902 52.9375 20.7927 55.2484 25.1244 55.2484C29.456 55.2484 33.4585 52.9375 35.6244 49.1862C35.8064 48.8709 35.9731 48.5495 36.1245 48.223V54.8197L34.6607 58.0019C34.4705 58.4153 34.234 58.8058 33.9558 59.1659L30.5913 63.5199C30.2887 63.9116 30.1245 64.3925 30.1245 64.8875C30.1245 66.1227 31.1259 67.124 32.3611 67.124L47.888 67.124C49.1232 67.124 50.1245 66.1227 50.1245 64.8875C50.1245 64.3925 49.9603 63.9116 49.6577 63.5199L46.9376 59.9998C46.2311 59.0856 45.6308 58.0941 45.1479 57.0445L44.1245 54.8197V48.2237C44.2758 48.55 44.4425 48.8712 44.6244 49.1862C46.7902 52.9375 50.7927 55.2484 55.1244 55.2484C59.456 55.2484 63.4585 52.9375 65.6244 49.1862C67.7902 45.4349 67.7902 40.8131 65.6244 37.0618C63.4585 33.3106 59.456 30.9997 55.1244 30.9997C52.5994 30.9997 50.1862 31.7849 48.1834 33.1829C50.7407 30.908 52.2487 27.6236 52.2487 24.1244C52.2487 19.7927 49.9378 15.7902 46.1865 13.6244Z" fill="currentColor" fill-opacity="0.25" stroke="currentColor" stroke-width="4" stroke-linecap="round" stroke-linejoin="round" />
</svg>