<svg viewBox="0 0 80 80" fill="none">
  <path fill-rule="evenodd" clip-rule="evenodd" d="M46.1865 13.6244C42.4352 11.4585 37.8135 11.4585 34.0622 13.6244C30.3109 15.7902 28 19.7927 28 24.1244C28 27.6236 29.5081 30.908 32.0653 33.183C30.0625 31.7849 27.6494 30.9997 25.1244 30.9997C20.7927 30.9997 16.7902 33.3106 14.6244 37.0618C12.4585 40.8131 12.4585 45.4349 14.6244 49.1862C16.7902 52.9375 20.7927 55.2484 25.1244 55.2484C29.456 55.2484 33.4585 52.9375 35.6244 49.1862C35.8064 48.8709 35.9731 48.5495 36.1245 48.223V54.8197L34.6607 58.0019C34.4705 58.4153 34.234 58.8058 33.9558 59.1659L30.5913 63.5199C30.2887 63.9116 30.1245 64.3925 30.1245 64.8875C30.1245 66.1227 31.1259 67.124 32.3611 67.124H47.8879C49.1232 67.124 50.1245 66.1227 50.1245 64.8875C50.1245 64.3925 49.9603 63.9116 49.6577 63.5199L46.9376 59.9998C46.2311 59.0856 45.6308 58.0941 45.1479 57.0445L44.1245 54.8197V48.2237C44.2758 48.55 44.4425 48.8712 44.6244 49.1862C46.7902 52.9375 50.7927 55.2484 55.1244 55.2484C59.456 55.2484 63.4585 52.9375 65.6244 49.1862C67.7902 45.4349 67.7902 40.8131 65.6244 37.0618C63.4585 33.3106 59.456 30.9997 55.1244 30.9997C52.5994 30.9997 50.1862 31.7849 48.1834 33.1829C50.7407 30.908 52.2487 27.6236 52.2487 24.1244C52.2487 19.7927 49.9378 15.7902 46.1865 13.6244Z" fill="currentColor" fill-opacity="0.25" />
  <path d="M34.0622 13.6244L33.0622 11.8923V11.8923L34.0622 13.6244ZM46.1865 13.6244L45.1865 15.3564V15.3564L46.1865 13.6244ZM32.0653 33.183L30.9205 34.8229C31.7888 35.429 32.979 35.2533 33.6351 34.4222C34.2912 33.591 34.1858 32.3925 33.3946 31.6887L32.0653 33.183ZM14.6244 37.0618L16.3564 38.0618H16.3564L14.6244 37.0618ZM14.6244 49.1862L16.3564 48.1862H16.3564L14.6244 49.1862ZM35.6244 49.1862L33.8923 48.1862H33.8923L35.6244 49.1862ZM36.1245 48.223H38.1245C38.1245 47.2845 37.4719 46.4721 36.5553 46.27C35.6388 46.0678 34.705 46.5301 34.3101 47.3816L36.1245 48.223ZM36.1245 54.8197L37.9415 55.6555C38.0621 55.3933 38.1245 55.1082 38.1245 54.8197H36.1245ZM34.6607 58.0019L32.8437 57.1661H32.8437L34.6607 58.0019ZM33.9558 59.1659L35.5384 60.3888L33.9558 59.1659ZM30.5913 63.5199L32.1739 64.7428L32.1739 64.7428L30.5913 63.5199ZM49.6577 63.5199L51.2403 62.297L51.2403 62.297L49.6577 63.5199ZM46.9376 59.9998L45.355 61.2226L45.355 61.2227L46.9376 59.9998ZM45.1479 57.0445L46.9649 56.2087L45.1479 57.0445ZM44.1245 54.8197H42.1245C42.1245 55.1082 42.1869 55.3933 42.3075 55.6555L44.1245 54.8197ZM44.1245 48.2237L45.9389 47.3821C45.5439 46.5307 44.6101 46.0684 43.6936 46.2706C42.7771 46.4728 42.1245 47.2851 42.1245 48.2237H44.1245ZM44.6244 49.1862L46.3564 48.1862L46.3564 48.1862L44.6244 49.1862ZM65.6244 49.1862L67.3564 50.1862L65.6244 49.1862ZM65.6244 37.0618L63.8923 38.0618L65.6244 37.0618ZM48.1834 33.1829L46.8541 31.6887C46.063 32.3925 45.9575 33.591 46.6136 34.4221C47.2697 35.2533 48.46 35.429 49.3282 34.8229L48.1834 33.1829ZM35.0622 15.3564C38.1947 13.5479 42.0541 13.5479 45.1865 15.3564L47.1865 11.8923C42.8164 9.36923 37.4323 9.36923 33.0622 11.8923L35.0622 15.3564ZM30 24.1244C30 20.5073 31.9297 17.1649 35.0622 15.3564L33.0622 11.8923C28.6921 14.4154 26 19.0782 26 24.1244L30 24.1244ZM33.3946 31.6887C31.2591 29.7889 30 27.046 30 24.1244L26 24.1244C26 28.2011 27.7571 32.0272 30.736 34.6772L33.3946 31.6887ZM33.2101 31.543C30.8775 29.9147 28.066 28.9997 25.1244 28.9997V32.9997C27.2327 32.9997 29.2475 33.6551 30.9205 34.8229L33.2101 31.543ZM25.1244 28.9997C20.0782 28.9997 15.4154 31.6917 12.8923 36.0618L16.3564 38.0618C18.1649 34.9294 21.5073 32.9997 25.1244 32.9997V28.9997ZM12.8923 36.0618C10.3692 40.4319 10.3692 45.8161 12.8923 50.1862L16.3564 48.1862C14.5479 45.0537 14.5479 41.1943 16.3564 38.0618L12.8923 36.0618ZM12.8923 50.1862C15.4154 54.5563 20.0782 57.2484 25.1244 57.2484V53.2484C21.5073 53.2484 18.1649 51.3187 16.3564 48.1862L12.8923 50.1862ZM25.1244 57.2484C30.1705 57.2484 34.8333 54.5563 37.3564 50.1862L33.8923 48.1862C32.0838 51.3187 28.7414 53.2484 25.1244 53.2484V57.2484ZM37.3564 50.1862C37.5683 49.8192 37.7625 49.4448 37.9389 49.0644L34.3101 47.3816C34.1837 47.6542 34.0444 47.9227 33.8923 48.1862L37.3564 50.1862ZM38.1245 54.8197V48.223L34.1245 48.223V54.8197L38.1245 54.8197ZM36.4777 58.8377L37.9415 55.6555L34.3075 53.9839L32.8437 57.1661L36.4777 58.8377ZM35.5384 60.3888C35.9091 59.909 36.2243 59.3886 36.4777 58.8377L32.8437 57.1661C32.7168 57.442 32.5589 57.7027 32.3732 57.943L35.5384 60.3888ZM32.1739 64.7428L35.5384 60.3888L32.3732 57.943L29.0087 62.297L32.1739 64.7428ZM32.1245 64.8875C32.1245 64.8351 32.1419 64.7842 32.1739 64.7428L29.0087 62.297C28.4355 63.0389 28.1245 63.9499 28.1245 64.8875H32.1245ZM32.3611 65.124C32.2304 65.124 32.1245 65.0181 32.1245 64.8875H28.1245C28.1245 67.2272 30.0213 69.124 32.3611 69.124L32.3611 65.124ZM47.8879 65.124H32.3611L32.3611 69.124H47.8879V65.124ZM48.1245 64.8875C48.1245 65.0181 48.0186 65.124 47.8879 65.124V69.124C50.2277 69.124 52.1245 67.2272 52.1245 64.8875H48.1245ZM48.0751 64.7428C48.1071 64.7842 48.1245 64.8351 48.1245 64.8875H52.1245C52.1245 63.9499 51.8135 63.0389 51.2403 62.297L48.0751 64.7428ZM45.355 61.2227L48.0751 64.7428L51.2403 62.297L48.5201 58.7769L45.355 61.2227ZM43.331 57.8803C43.877 59.0674 44.556 60.1887 45.355 61.2226L48.5201 58.7769C47.9062 57.9824 47.3845 57.1208 46.9649 56.2087L43.331 57.8803ZM42.3075 55.6555L43.331 57.8803L46.9649 56.2087L45.9415 53.9839L42.3075 55.6555ZM42.1245 48.2237V54.8197H46.1245V48.2237H42.1245ZM46.3564 48.1862C46.2044 47.9229 46.0652 47.6546 45.9389 47.3821L42.3102 49.0652C42.4865 49.4453 42.6805 49.8194 42.8923 50.1862L46.3564 48.1862ZM55.1244 53.2484C51.5073 53.2484 48.1649 51.3187 46.3564 48.1862L42.8923 50.1862C45.4154 54.5563 50.0782 57.2484 55.1244 57.2484V53.2484ZM63.8923 48.1862C62.0838 51.3187 58.7414 53.2484 55.1244 53.2484V57.2484C60.1705 57.2484 64.8333 54.5563 67.3564 50.1862L63.8923 48.1862ZM63.8923 38.0618C65.7008 41.1943 65.7008 45.0537 63.8923 48.1862L67.3564 50.1862C69.8795 45.8161 69.8795 40.4319 67.3564 36.0618L63.8923 38.0618ZM55.1244 32.9997C58.7414 32.9997 62.0838 34.9294 63.8923 38.0618L67.3564 36.0618C64.8333 31.6917 60.1705 28.9997 55.1244 28.9997V32.9997ZM49.3282 34.8229C51.0012 33.6551 53.016 32.9997 55.1244 32.9997V28.9997C52.1827 28.9997 49.3712 29.9147 47.0386 31.543L49.3282 34.8229ZM50.2487 24.1244C50.2487 27.046 48.9896 29.7889 46.8541 31.6887L49.5128 34.6772C52.4917 32.0272 54.2487 28.2011 54.2487 24.1244H50.2487ZM45.1865 15.3564C48.319 17.1649 50.2487 20.5073 50.2487 24.1244H54.2487C54.2487 19.0782 51.5566 14.4154 47.1865 11.8923L45.1865 15.3564Z" fill="currentColor" />
</svg>