<svg viewBox="0 0 80 80" fill="none">
  <path fill-rule="evenodd" clip-rule="evenodd" d="M33.0234 14.2028C33.0923 13.3383 33.7093 12.6095 34.5624 12.4533C37.8654 11.8486 41.2534 11.8489 44.5563 12.4543C45.4092 12.6107 46.026 13.3394 46.0949 14.2038L46.4658 18.8603C46.5283 19.6444 47.048 20.311 47.7705 20.6219C48.5128 20.9413 49.241 21.3059 49.951 21.7158C50.6613 22.1259 51.3415 22.5745 51.9896 23.0579C52.62 23.5282 53.4573 23.6451 54.1676 23.3071L58.3833 21.3013C59.1665 20.9286 60.1063 21.0986 60.668 21.7593C62.8432 24.3178 64.5368 27.2524 65.6638 30.4159C65.9548 31.2326 65.632 32.1311 64.9179 32.6229L61.0737 35.2703C60.4259 35.7164 60.1085 36.4999 60.2005 37.281C60.295 38.0834 60.3433 38.8962 60.3433 39.7158C60.3433 40.5359 60.295 41.349 60.2003 42.1519C60.1083 42.933 60.4257 43.7165 61.0735 44.1626L64.9158 46.8087C65.63 47.3006 65.9527 48.1993 65.6615 49.0162C64.5337 52.1795 62.8393 55.1139 60.6632 57.672C60.1014 58.3324 59.1618 58.5022 58.3788 58.1297L54.1664 56.1254C53.4562 55.7874 52.619 55.9042 51.9885 56.3745C51.3408 56.8577 50.6609 57.3059 49.951 57.7158C49.241 58.1257 48.5129 58.4903 47.7706 58.8097C47.0481 59.1206 46.5284 59.7872 46.4659 60.5713L46.0955 65.2217C46.0266 66.0861 45.4098 66.8148 44.557 66.9712C41.2536 67.5768 37.8652 67.5771 34.5617 66.9722C33.7087 66.816 33.0917 66.0872 33.0228 65.2227L32.6523 60.5716C32.5899 59.7876 32.0701 59.1209 31.3475 58.8101C30.605 58.4906 29.8766 58.1259 29.1664 57.7158C28.4565 57.306 27.7768 56.8578 27.1291 56.3747C26.4987 55.9045 25.6615 55.7877 24.9513 56.1256L20.7357 58.1314C19.9528 58.504 19.0133 58.3342 18.4514 57.6739C16.2753 55.1162 14.5807 52.1822 13.4526 49.0192C13.1613 48.2024 13.484 47.3035 14.1983 46.8116L18.0439 44.1632C18.6917 43.717 19.0091 42.9335 18.9171 42.1524C18.8224 41.3494 18.7741 40.536 18.7741 39.7158C18.7741 38.896 18.8223 38.083 18.9169 37.2805C19.0089 36.4993 18.6915 35.7159 18.0437 35.2698L14.1961 32.62C13.482 32.1282 13.1592 31.2296 13.4503 30.4128C14.5776 27.2497 16.2713 24.3155 18.4466 21.7574C19.0084 21.0968 19.9481 20.9269 20.7312 21.2995L24.9501 23.3069C25.6603 23.6448 26.4976 23.528 27.1281 23.0577C27.776 22.5743 28.4561 22.1259 29.1664 21.7158C29.8766 21.3058 30.605 20.941 31.3477 20.6215C32.0702 20.3107 32.59 19.644 32.6524 18.8599L33.0234 14.2028ZM44.7545 30.7162C41.5391 28.8598 37.5775 28.8598 34.3622 30.7162C31.1468 32.5726 29.166 36.0034 29.166 39.7162C29.166 43.429 31.1468 46.8598 34.3622 48.7162C37.5775 50.5726 41.5391 50.5726 44.7545 48.7162C47.9698 46.8598 49.9506 43.429 49.9506 39.7162C49.9506 36.0034 47.9698 32.5726 44.7545 30.7162Z" fill="currentColor" fill-opacity="0.15" />
  <path d="M49.951 21.7158L48.951 23.4479L49.951 21.7158ZM49.951 57.7158L50.951 59.4479L49.951 57.7158ZM29.1664 57.7158L30.1664 55.9838H30.1664L29.1664 57.7158ZM29.1664 21.7158L28.1664 19.9838L28.1664 19.9838L29.1664 21.7158ZM34.3622 30.7162L35.3622 32.4482L34.3622 30.7162ZM34.3622 48.7162L35.3622 46.9841L34.3622 48.7162ZM32.6524 18.8599L30.6588 18.7011L32.6524 18.8599ZM20.7312 21.2995L19.8719 23.1055L20.7312 21.2995ZM13.4526 49.0192L11.5688 49.6911L13.4526 49.0192ZM14.1983 46.8116L13.0639 45.1644L14.1983 46.8116ZM20.7357 58.1314L19.8764 56.3254L20.7357 58.1314ZM18.4514 57.6739L19.9747 56.3778L18.4514 57.6739ZM27.1291 56.3747L25.9333 57.9779L27.1291 56.3747ZM32.6523 60.5716L34.646 60.4128L32.6523 60.5716ZM31.3475 58.8101L30.5572 60.6473L31.3475 58.8101ZM33.0228 65.2227L31.0291 65.3815L33.0228 65.2227ZM46.0955 65.2217L48.0892 65.3805L46.0955 65.2217ZM44.557 66.9712L44.9176 68.9384L44.557 66.9712ZM47.7706 58.8097L46.9802 56.9725L47.7706 58.8097ZM46.4659 60.5713L44.4722 60.4124L46.4659 60.5713ZM64.9158 46.8087L63.7814 48.4559L64.9158 46.8087ZM65.6615 49.0162L67.5454 49.6878L65.6615 49.0162ZM60.2003 42.1519L62.1866 42.386L60.2003 42.1519ZM61.0735 44.1626L62.2079 42.5154L61.0735 44.1626ZM61.0737 35.2703L59.9393 33.6232L61.0737 35.2703ZM60.2005 37.281L62.1867 37.047L60.2005 37.281ZM65.6638 30.4159L67.5478 29.7447L65.6638 30.4159ZM51.9896 23.0579L53.1855 21.4549L51.9896 23.0579ZM14.1961 32.62L13.0617 34.2672L14.1961 32.62ZM46.4658 18.8603L48.4595 18.7015L46.4658 18.8603ZM54.1664 56.1254L55.0257 54.3194L54.1664 56.1254ZM51.9885 56.3745L53.1843 57.9776L51.9885 56.3745ZM33.0234 14.2028L31.0297 14.044L33.0234 14.2028ZM60.668 21.7593L62.1917 20.4639L60.668 21.7593ZM60.6632 57.672L59.1398 56.3761L60.6632 57.672ZM58.3788 58.1297L59.2381 56.3237L58.3788 58.1297ZM46.0949 14.2038L48.0886 14.045L46.0949 14.2038ZM44.9169 10.4871C41.3757 9.83801 37.7435 9.83763 34.2022 10.486L34.9226 14.4206C37.9873 13.8595 41.1311 13.8598 44.1957 14.4215L44.9169 10.4871ZM48.4595 18.7015L48.0886 14.045L44.1012 14.3626L44.4721 19.0191L48.4595 18.7015ZM50.951 19.9838C50.173 19.5346 49.3748 19.1349 48.561 18.7847L46.9801 22.459C47.6509 22.7477 48.309 23.0772 48.951 23.4479L50.951 19.9838ZM53.1855 21.4549C52.475 20.9248 51.7294 20.4332 50.951 19.9838L48.951 23.4479C49.5932 23.8187 50.208 24.2241 50.7937 24.661L53.1855 21.4549ZM57.524 19.4953L53.3083 21.5012L55.0269 25.1131L59.2426 23.1072L57.524 19.4953ZM67.5478 29.7447C66.3396 26.353 64.5239 23.2069 62.1917 20.4639L59.1443 23.0548C61.1626 25.4287 62.7341 28.1518 63.7798 31.087L67.5478 29.7447ZM62.2081 36.9175L66.0523 34.2701L63.7836 30.9757L59.9393 33.6232L62.2081 36.9175ZM62.3433 39.7158C62.3433 38.8176 62.2904 37.9267 62.1867 37.047L58.2142 37.515C58.2996 38.2401 58.3433 38.9747 58.3433 39.7158H62.3433ZM62.1866 42.386C62.2903 41.5058 62.3433 40.6145 62.3433 39.7158H58.3433C58.3433 40.4573 58.2996 41.1923 58.2141 41.9178L62.1866 42.386ZM66.0502 45.1615L62.2079 42.5154L59.9391 45.8098L63.7814 48.4559L66.0502 45.1615ZM62.1866 58.9679C64.5196 56.2253 66.3362 53.0794 67.5454 49.6878L63.7777 48.3445C62.7312 51.2797 61.1589 54.0026 59.1398 56.3761L62.1866 58.9679ZM53.3071 57.9314L57.5195 59.9357L59.2381 56.3237L55.0257 54.3194L53.3071 57.9314ZM50.951 59.4479C51.729 58.9987 52.4742 58.5073 53.1843 57.9776L50.7927 54.7714C50.2074 55.208 49.5929 55.6132 48.951 55.9838L50.951 59.4479ZM48.5611 60.6469C49.3749 60.2967 50.173 59.897 50.951 59.4479L48.951 55.9838C48.3091 56.3544 47.6509 56.6839 46.9802 56.9725L48.5611 60.6469ZM48.0892 65.3805L48.4596 60.7301L44.4722 60.4124L44.1018 65.0629L48.0892 65.3805ZM34.2015 68.9395C37.7432 69.588 41.3759 69.5877 44.9176 68.9384L44.1963 65.004C41.1313 65.5659 37.9871 65.5662 34.922 65.0049L34.2015 68.9395ZM30.6586 60.7305L31.0291 65.3815L35.0165 65.0639L34.646 60.4128L30.6586 60.7305ZM28.1664 59.4479C28.9446 59.8972 29.743 60.297 30.5572 60.6473L32.1379 56.9729C31.4669 56.6842 30.8085 56.3545 30.1664 55.9838L28.1664 59.4479ZM25.9333 57.9779C26.6434 58.5075 27.3885 58.9988 28.1664 59.4479L30.1664 55.9838C29.5246 55.6132 28.9102 55.2081 28.3249 54.7716L25.9333 57.9779ZM21.595 59.9374L25.8106 57.9316L24.092 54.3196L19.8764 56.3254L21.595 59.9374ZM11.5688 49.6911C12.7783 53.0822 14.5951 56.2277 16.9282 58.9699L19.9747 56.3778C17.9555 54.0047 16.3831 51.2822 15.3364 48.3474L11.5688 49.6911ZM16.9095 42.516L13.0639 45.1644L15.3326 48.4588L19.1783 45.8103L16.9095 42.516ZM16.7741 39.7158C16.7741 40.6147 16.827 41.5062 16.9308 42.3865L20.9033 41.9182C20.8178 41.1926 20.7741 40.4574 20.7741 39.7158H16.7741ZM16.9307 37.0464C16.827 37.9263 16.7741 38.8174 16.7741 39.7158H20.7741C20.7741 38.9746 20.8177 38.2398 20.9032 37.5145L16.9307 37.0464ZM13.0617 34.2672L16.9093 36.917L19.1781 33.6226L15.3305 30.9728L13.0617 34.2672ZM16.923 20.4618C14.5908 23.2044 12.7749 26.3501 11.5664 29.7414L15.3343 31.0842C16.3802 28.1493 17.9519 25.4266 19.9702 23.0531L16.923 20.4618ZM25.8094 21.5009L21.5905 19.4935L19.8719 23.1055L24.0908 25.1129L25.8094 21.5009ZM28.1664 19.9838C27.3881 20.4331 26.6426 20.9247 25.9322 21.4546L28.3239 24.6608C28.9095 24.224 29.5242 23.8186 30.1664 23.4479L28.1664 19.9838ZM30.5573 18.7843C29.7431 19.1346 28.9447 19.5344 28.1664 19.9838L30.1664 23.4479C30.8085 23.0771 31.467 22.7474 32.138 22.4587L30.5573 18.7843ZM31.0297 14.044L30.6588 18.7011L34.6461 19.0187L35.0171 14.3617L31.0297 14.044ZM35.3622 32.4482C37.9587 30.9491 41.1579 30.9491 43.7545 32.4482L45.7545 28.9841C41.9203 26.7704 37.1963 26.7704 33.3622 28.9841L35.3622 32.4482ZM31.166 39.7162C31.166 36.7179 32.7656 33.9474 35.3622 32.4482L33.3622 28.9841C29.528 31.1978 27.166 35.2888 27.166 39.7162H31.166ZM35.3622 46.9841C32.7656 45.485 31.166 42.7144 31.166 39.7162H27.166C27.166 44.1435 29.528 48.2345 33.3622 50.4482L35.3622 46.9841ZM43.7545 46.9841C41.1579 48.4833 37.9587 48.4833 35.3622 46.9841L33.3622 50.4482C37.1963 52.6619 41.9203 52.6619 45.7545 50.4482L43.7545 46.9841ZM47.9506 39.7162C47.9506 42.7144 46.351 45.485 43.7545 46.9841L45.7545 50.4482C49.5886 48.2345 51.9506 44.1435 51.9506 39.7162H47.9506ZM43.7545 32.4482C46.351 33.9474 47.9506 36.7179 47.9506 39.7162H51.9506C51.9506 35.2888 49.5886 31.1978 45.7545 28.9841L43.7545 32.4482ZM32.138 22.4587C33.4766 21.8829 34.5194 20.6103 34.6461 19.0187L30.6588 18.7011C30.6593 18.6944 30.6619 18.6992 30.6487 18.7168C30.6335 18.7369 30.6036 18.7644 30.5573 18.7843L32.138 22.4587ZM19.9702 23.0531C19.9587 23.0665 19.9434 23.0794 19.9266 23.089C19.9106 23.0983 19.8971 23.1024 19.8882 23.1041C19.8719 23.1073 19.8674 23.1033 19.8719 23.1055L21.5905 19.4935C20.0466 18.7589 18.112 19.0637 16.923 20.4618L19.9702 23.0531ZM19.1783 45.8103C20.4932 44.9048 21.0739 43.3654 20.9033 41.9182L16.9308 42.3865C16.9367 42.4366 16.9278 42.4763 16.918 42.4994C16.9094 42.5197 16.9039 42.5198 16.9095 42.516L19.1783 45.8103ZM15.3364 48.3474C15.3423 48.3641 15.3458 48.3838 15.3458 48.4031C15.3457 48.4216 15.3426 48.4354 15.3396 48.444C15.3342 48.4597 15.3285 48.4616 15.3326 48.4588L13.0639 45.1644C11.6556 46.1343 10.9522 47.9623 11.5688 49.6911L15.3364 48.3474ZM19.8764 56.3254C19.8719 56.3276 19.8764 56.3236 19.8927 56.3268C19.9016 56.3285 19.9151 56.3327 19.9311 56.3419C19.9479 56.3515 19.9632 56.3643 19.9747 56.3778L16.9282 58.9699C18.1172 60.3674 20.0514 60.6719 21.595 59.9374L19.8764 56.3254ZM28.3249 54.7716C27.1569 53.9004 25.5336 53.6337 24.092 54.3196L25.8106 57.9316C25.8045 57.9345 25.8073 57.9299 25.8292 57.9326C25.8541 57.9356 25.893 57.9478 25.9333 57.9779L28.3249 54.7716ZM34.646 60.4128C34.5192 58.8213 33.4765 57.5487 32.1379 56.9729L30.5572 60.6473C30.6035 60.6672 30.6334 60.6947 30.6485 60.7148C30.6618 60.7324 30.6592 60.7372 30.6586 60.7305L34.646 60.4128ZM34.922 65.0049C34.9394 65.0081 34.9581 65.015 34.9749 65.0247C34.9909 65.034 35.0012 65.0436 35.0072 65.0504C35.0181 65.063 35.0169 65.0689 35.0165 65.0639L31.0291 65.3815C31.1649 67.0859 32.3962 68.6089 34.2015 68.9395L34.922 65.0049ZM44.1018 65.0629C44.1014 65.0679 44.1002 65.062 44.1111 65.0495C44.1171 65.0426 44.1274 65.033 44.1434 65.0237C44.1601 65.014 44.1789 65.0072 44.1963 65.004L44.9176 68.9384C46.7226 68.6075 47.9534 67.0846 48.0892 65.3805L44.1018 65.0629ZM46.9802 56.9725C45.6417 57.5484 44.599 58.821 44.4722 60.4124L48.4596 60.7301C48.4591 60.7368 48.4565 60.732 48.4697 60.7144C48.4848 60.6943 48.5148 60.6668 48.5611 60.6469L46.9802 56.9725ZM63.7814 48.4559C63.7855 48.4587 63.7798 48.4568 63.7744 48.4411C63.7715 48.4325 63.7683 48.4188 63.7683 48.4003C63.7682 48.3809 63.7717 48.3612 63.7777 48.3445L67.5454 49.6878C68.1617 47.9591 67.4583 46.1313 66.0502 45.1615L63.7814 48.4559ZM58.2141 41.9178C58.0435 43.3649 58.6242 44.9042 59.9391 45.8098L62.2079 42.5154C62.2135 42.5193 62.208 42.5191 62.1994 42.4989C62.1896 42.4757 62.1807 42.436 62.1866 42.386L58.2141 41.9178ZM59.9393 33.6232C58.6244 34.5287 58.0437 36.0679 58.2142 37.515L62.1867 37.047C62.1809 36.9969 62.1897 36.9572 62.1996 36.9341C62.2082 36.9138 62.2136 36.9137 62.2081 36.9175L59.9393 33.6232ZM63.7798 31.087C63.7738 31.0703 63.7704 31.0507 63.7704 31.0313C63.7705 31.0128 63.7736 30.999 63.7766 30.9905C63.782 30.9748 63.7877 30.9729 63.7836 30.9757L66.0523 34.2701C67.4602 33.3005 68.1636 31.4732 67.5478 29.7447L63.7798 31.087ZM24.0908 25.1129C25.5325 25.7988 27.1559 25.5321 28.3239 24.6608L25.9322 21.4546C25.8918 21.4847 25.853 21.4969 25.828 21.5C25.8061 21.5026 25.8033 21.498 25.8094 21.5009L24.0908 25.1129ZM50.7937 24.661C51.9617 25.5323 53.5851 25.7991 55.0269 25.1131L53.3083 21.5012C53.3144 21.4982 53.3115 21.5029 53.2897 21.5002C53.2647 21.4972 53.2259 21.485 53.1855 21.4549L50.7937 24.661ZM15.3305 30.9728C15.3264 30.97 15.3321 30.9719 15.3375 30.9876C15.3404 30.9962 15.3436 31.0099 15.3436 31.0284C15.3437 31.0478 15.3402 31.0675 15.3343 31.0842L11.5664 29.7414C10.9503 31.47 11.6538 33.2975 13.0617 34.2672L15.3305 30.9728ZM44.4721 19.0191C44.5989 20.6106 45.6416 21.8831 46.9801 22.459L48.561 18.7847C48.5147 18.7648 48.4847 18.7373 48.4696 18.7171C48.4564 18.6996 48.459 18.6948 48.4595 18.7015L44.4721 19.0191ZM55.0257 54.3194C53.5841 53.6334 51.9607 53.9001 50.7927 54.7714L53.1843 57.9776C53.2247 57.9475 53.2635 57.9353 53.2885 57.9323C53.3104 57.9296 53.3132 57.9343 53.3071 57.9314L55.0257 54.3194ZM20.9032 37.5145C21.0737 36.0674 20.493 34.5281 19.1781 33.6226L16.9093 36.917C16.9038 36.9131 16.9092 36.9133 16.9178 36.9335C16.9277 36.9567 16.9365 36.9964 16.9307 37.0464L20.9032 37.5145ZM34.2022 10.486C32.3968 10.8165 31.1655 12.3396 31.0297 14.044L35.0171 14.3617C35.0175 14.3567 35.0187 14.3626 35.0078 14.3751C35.0018 14.3819 34.9915 14.3915 34.9755 14.4008C34.9587 14.4106 34.94 14.4174 34.9226 14.4206L34.2022 10.486ZM59.2426 23.1072C59.2471 23.1051 59.2426 23.1091 59.2263 23.1059C59.2174 23.1042 59.2039 23.1 59.1879 23.0908C59.1711 23.0811 59.1558 23.0683 59.1443 23.0548L62.1917 20.4639C61.0028 19.0655 59.068 18.7606 57.524 19.4953L59.2426 23.1072ZM59.1398 56.3761C59.1513 56.3626 59.1666 56.3498 59.1834 56.3401C59.1995 56.3309 59.213 56.3268 59.2218 56.325C59.2381 56.3219 59.2426 56.3258 59.2381 56.3237L57.5195 59.9357C59.0632 60.6702 60.9975 60.3656 62.1866 58.9679L59.1398 56.3761ZM44.1957 14.4215C44.1783 14.4184 44.1595 14.4115 44.1428 14.4018C44.1268 14.3925 44.1165 14.3829 44.1105 14.376C44.0996 14.3635 44.1008 14.3576 44.1012 14.3626L48.0886 14.045C47.9528 12.3409 46.7219 10.8179 44.9169 10.4871L44.1957 14.4215Z" fill="currentColor" />
</svg>