<svg viewBox="0 0 80 80" fill="none">
  <path d="M17.1894 52.3071C16.7399 51.4874 16.3331 50.6401 15.9719 49.7681C13.3464 43.4296 13.3464 36.3077 15.9719 29.9691C18.5975 23.6306 23.6334 18.5946 29.9719 15.9691C36.3105 13.3436 43.4324 13.3436 49.7709 15.9691C56.1095 18.5946 61.1454 23.6306 63.7709 29.9691C66.3964 36.3077 66.3964 43.4296 63.7709 49.7681C61.1454 56.1067 56.1095 61.1426 49.7709 63.7681C43.4324 66.3936 36.3105 66.3936 29.9719 63.7681C29.0985 63.4063 28.2498 62.9988 27.4287 62.5483L13 66.7373L17.1894 52.3071Z" fill="currentColor" fill-opacity="0.25" stroke="currentColor" stroke-width="4" stroke-linecap="round" stroke-linejoin="round" />
</svg>