<svg viewBox="0 0 80 80" fill="none">
  <path d="M40 16L43.135 16.1761L46.2306 16.702L49.2478 17.5713L52.1487 18.7729L54.8969 20.2917L57.4577 22.1087L59.799 24.201L61.8913 26.5423L63.7083 29.1031L65.2271 31.8513L66.4287 34.7522L67.298 37.7694L67.8239 40.865L68 44L67.8239 47.135L67.298 50.2306L66.4287 53.2478L65.2271 56.1487L63.7083 58.8969L61.8913 61.4577L59.799 63.799L57.4577 65.8913L54.8969 67.7083L52.1487 69.2271L49.2478 70.4287L46.2306 71.298L43.135 71.8239L40 72L36.865 71.8239L33.7694 71.298L30.7522 70.4287L27.8513 69.2271L25.1031 67.7083L22.5423 65.8913L20.201 63.799L18.1087 61.4577L16.2917 58.8969L14.7729 56.1487L13.5713 53.2478L12.702 50.2306L12.1761 47.135L12 44L12.1761 40.865L12.702 37.7694L13.5713 34.7522L14.7729 31.8513L16.2917 29.1031L18.1087 26.5423L20.201 24.201L22.5423 22.1087L25.1031 20.2917L27.8513 18.7729L30.7522 17.5713L33.7694 16.702L36.865 16.1761L40 16Z" fill="currentColor" fill-opacity="0.15" />
  <path d="M40 16L40.1121 14.0031C40.0374 13.999 39.9626 13.999 39.8879 14.0031L40 16ZM43.135 16.1761L43.47 14.2043C43.3963 14.1918 43.3218 14.1834 43.2471 14.1792L43.135 16.1761ZM46.2306 16.702L46.7843 14.7802C46.7124 14.7595 46.6394 14.7428 46.5656 14.7303L46.2306 16.702ZM49.2478 17.5713L50.0132 15.7235C49.9441 15.6949 49.8734 15.6701 49.8015 15.6494L49.2478 17.5713ZM52.1487 18.7729L53.1162 17.0224C53.0507 16.9862 52.9832 16.9537 52.9141 16.9251L52.1487 18.7729ZM54.8969 20.2917L56.0542 18.6606C55.9932 18.6173 55.9298 18.5775 55.8643 18.5413L54.8969 20.2917ZM57.4577 22.1087L58.7904 20.6174C58.7346 20.5676 58.6761 20.5209 58.6151 20.4776L57.4577 22.1087ZM59.799 24.201L61.2903 22.8683C61.2404 22.8125 61.1875 22.7596 61.1317 22.7097L59.799 24.201ZM61.8913 26.5423L63.5224 25.3849C63.4791 25.3239 63.4324 25.2654 63.3826 25.2096L61.8913 26.5423ZM63.7083 29.1031L65.4587 28.1357C65.4225 28.0702 65.3827 28.0068 65.3394 27.9458L63.7083 29.1031ZM65.2271 31.8513L67.0749 31.0859C67.0463 31.0168 67.0138 30.9493 66.9776 30.8838L65.2271 31.8513ZM66.4287 34.7522L68.3506 34.1985C68.3299 34.1266 68.3051 34.0559 68.2765 33.9868L66.4287 34.7522ZM67.298 37.7694L69.2697 37.4344C69.2572 37.3606 69.2405 37.2876 69.2198 37.2157L67.298 37.7694ZM67.8239 40.865L69.8208 40.7529C69.8166 40.6782 69.8082 40.6037 69.7957 40.53L67.8239 40.865ZM68 44L69.9969 44.1121C70.001 44.0374 70.001 43.9626 69.9969 43.8879L68 44ZM67.8239 47.135L69.7957 47.47C69.8082 47.3963 69.8166 47.3218 69.8208 47.2471L67.8239 47.135ZM67.298 50.2306L69.2198 50.7843C69.2405 50.7124 69.2572 50.6394 69.2697 50.5656L67.298 50.2306ZM66.4287 53.2478L68.2765 54.0132C68.3051 53.9441 68.3299 53.8734 68.3506 53.8015L66.4287 53.2478ZM65.2271 56.1487L66.9776 57.1162C67.0138 57.0507 67.0463 56.9832 67.0749 56.9141L65.2271 56.1487ZM63.7083 58.8969L65.3394 60.0542C65.3827 59.9932 65.4225 59.9298 65.4587 59.8643L63.7083 58.8969ZM61.8913 61.4577L63.3826 62.7904C63.4324 62.7346 63.4791 62.6761 63.5224 62.6151L61.8913 61.4577ZM59.799 63.799L61.1317 65.2903C61.1875 65.2404 61.2404 65.1875 61.2903 65.1317L59.799 63.799ZM57.4577 65.8913L58.6151 67.5224C58.6761 67.4791 58.7346 67.4324 58.7904 67.3826L57.4577 65.8913ZM54.8969 67.7083L55.8643 69.4587C55.9298 69.4225 55.9932 69.3827 56.0542 69.3394L54.8969 67.7083ZM52.1487 69.2271L52.9141 71.0749C52.9832 71.0463 53.0507 71.0138 53.1162 70.9776L52.1487 69.2271ZM49.2478 70.4287L49.8015 72.3506C49.8734 72.3299 49.9441 72.3051 50.0132 72.2765L49.2478 70.4287ZM46.2306 71.298L46.5656 73.2697C46.6394 73.2572 46.7124 73.2405 46.7843 73.2198L46.2306 71.298ZM43.135 71.8239L43.2471 73.8208C43.3218 73.8166 43.3963 73.8082 43.47 73.7957L43.135 71.8239ZM40 72L39.8879 73.9969C39.9626 74.001 40.0374 74.001 40.1121 73.9969L40 72ZM36.865 71.8239L36.53 73.7957C36.6037 73.8082 36.6782 73.8166 36.7529 73.8208L36.865 71.8239ZM33.7694 71.298L33.2157 73.2198C33.2876 73.2405 33.3606 73.2572 33.4344 73.2697L33.7694 71.298ZM30.7522 70.4287L29.9868 72.2765C30.0559 72.3051 30.1266 72.3299 30.1985 72.3506L30.7522 70.4287ZM27.8513 69.2271L26.8838 70.9776C26.9493 71.0138 27.0168 71.0463 27.0859 71.0749L27.8513 69.2271ZM25.1031 67.7083L23.9458 69.3394C24.0068 69.3827 24.0702 69.4225 24.1357 69.4587L25.1031 67.7083ZM22.5423 65.8913L21.2096 67.3826C21.2654 67.4324 21.3239 67.4791 21.3849 67.5224L22.5423 65.8913ZM20.201 63.799L18.7097 65.1317C18.7596 65.1875 18.8125 65.2404 18.8683 65.2903L20.201 63.799ZM18.1087 61.4577L16.4776 62.6151C16.5209 62.6761 16.5676 62.7346 16.6174 62.7904L18.1087 61.4577ZM16.2917 58.8969L14.5413 59.8643C14.5775 59.9298 14.6173 59.9932 14.6606 60.0542L16.2917 58.8969ZM14.7729 56.1487L12.9251 56.9141C12.9537 56.9832 12.9862 57.0507 13.0224 57.1162L14.7729 56.1487ZM13.5713 53.2478L11.6494 53.8015C11.6701 53.8734 11.6949 53.9441 11.7235 54.0132L13.5713 53.2478ZM12.702 50.2306L10.7303 50.5656C10.7428 50.6394 10.7595 50.7124 10.7802 50.7843L12.702 50.2306ZM12.1761 47.135L10.1792 47.2471C10.1834 47.3218 10.1918 47.3963 10.2043 47.47L12.1761 47.135ZM12 44L10.0031 43.8879C9.99895 43.9626 9.99895 44.0374 10.0031 44.1121L12 44ZM12.1761 40.865L10.2043 40.53C10.1918 40.6037 10.1834 40.6782 10.1792 40.7529L12.1761 40.865ZM12.702 37.7694L10.7802 37.2157C10.7595 37.2876 10.7428 37.3606 10.7303 37.4344L12.702 37.7694ZM13.5713 34.7522L11.7235 33.9868C11.6949 34.0559 11.6701 34.1266 11.6494 34.1985L13.5713 34.7522ZM14.7729 31.8513L13.0224 30.8838C12.9862 30.9493 12.9537 31.0168 12.9251 31.0859L14.7729 31.8513ZM16.2917 29.1031L14.6606 27.9458C14.6173 28.0068 14.5775 28.0702 14.5413 28.1357L16.2917 29.1031ZM18.1087 26.5423L16.6174 25.2096C16.5676 25.2654 16.5209 25.3239 16.4776 25.3849L18.1087 26.5423ZM20.201 24.201L18.8683 22.7097C18.8125 22.7596 18.7596 22.8125 18.7097 22.8683L20.201 24.201ZM22.5423 22.1087L21.3849 20.4776C21.3239 20.5209 21.2654 20.5676 21.2096 20.6174L22.5423 22.1087ZM25.1031 20.2917L24.1357 18.5413C24.0702 18.5775 24.0068 18.6173 23.9458 18.6606L25.1031 20.2917ZM27.8513 18.7729L27.0859 16.9251C27.0168 16.9537 26.9493 16.9862 26.8838 17.0224L27.8513 18.7729ZM30.7522 17.5713L30.1985 15.6494C30.1266 15.6701 30.0559 15.6949 29.9868 15.7235L30.7522 17.5713ZM33.7694 16.702L33.4344 14.7303C33.3606 14.7428 33.2876 14.7595 33.2157 14.7802L33.7694 16.702ZM36.865 16.1761L36.7529 14.1792C36.6782 14.1834 36.6037 14.1918 36.53 14.2043L36.865 16.1761ZM39.8879 17.9969L43.0229 18.1729L43.2471 14.1792L40.1121 14.0031L39.8879 17.9969ZM42.8 18.1478L45.8956 18.6738L46.5656 14.7303L43.47 14.2043L42.8 18.1478ZM45.6769 18.6239L48.6941 19.4931L49.8015 15.6494L46.7843 14.7802L45.6769 18.6239ZM48.4824 19.419L51.3834 20.6206L52.9141 16.9251L50.0132 15.7235L48.4824 19.419ZM51.1813 20.5233L53.9295 22.0422L55.8643 18.5413L53.1162 17.0224L51.1813 20.5233ZM53.7396 21.9228L56.3004 23.7398L58.6151 20.4776L56.0542 18.6606L53.7396 21.9228ZM56.125 23.6L58.4663 25.6923L61.1317 22.7097L58.7904 20.6174L56.125 23.6ZM58.3077 25.5337L60.4 27.875L63.3826 25.2096L61.2903 22.8683L58.3077 25.5337ZM60.2602 27.6996L62.0772 30.2604L65.3394 27.9458L63.5224 25.3849L60.2602 27.6996ZM61.9578 30.0705L63.4767 32.8187L66.9776 30.8838L65.4587 28.1357L61.9578 30.0705ZM63.3794 32.6166L64.581 35.5176L68.2765 33.9868L67.0749 31.0859L63.3794 32.6166ZM64.5069 35.3059L65.3761 38.3231L69.2198 37.2157L68.3506 34.1985L64.5069 35.3059ZM65.3262 38.1044L65.8522 41.2L69.7957 40.53L69.2697 37.4344L65.3262 38.1044ZM65.8271 40.9771L66.0031 44.1121L69.9969 43.8879L69.8208 40.7529L65.8271 40.9771ZM66.0031 43.8879L65.8271 47.0229L69.8208 47.2471L69.9969 44.1121L66.0031 43.8879ZM65.8522 46.8L65.3262 49.8956L69.2697 50.5656L69.7957 47.47L65.8522 46.8ZM65.3761 49.6769L64.5069 52.6941L68.3506 53.8015L69.2198 50.7843L65.3761 49.6769ZM64.581 52.4824L63.3794 55.3834L67.0749 56.9141L68.2765 54.0132L64.581 52.4824ZM63.4767 55.1813L61.9578 57.9295L65.4587 59.8643L66.9776 57.1162L63.4767 55.1813ZM62.0772 57.7396L60.2602 60.3004L63.5224 62.6151L65.3394 60.0542L62.0772 57.7396ZM60.4 60.125L58.3077 62.4663L61.2903 65.1317L63.3826 62.7904L60.4 60.125ZM58.4663 62.3077L56.125 64.4L58.7904 67.3826L61.1317 65.2903L58.4663 62.3077ZM56.3004 64.2602L53.7396 66.0772L56.0542 69.3394L58.6151 67.5224L56.3004 64.2602ZM53.9295 65.9578L51.1813 67.4767L53.1162 70.9776L55.8643 69.4587L53.9295 65.9578ZM51.3834 67.3794L48.4824 68.581L50.0132 72.2765L52.9141 71.0749L51.3834 67.3794ZM48.6941 68.5069L45.6769 69.3761L46.7843 73.2198L49.8015 72.3506L48.6941 68.5069ZM45.8956 69.3262L42.8 69.8522L43.47 73.7957L46.5656 73.2697L45.8956 69.3262ZM43.0229 69.8271L39.8879 70.0031L40.1121 73.9969L43.2471 73.8208L43.0229 69.8271ZM40.1121 70.0031L36.9771 69.8271L36.7529 73.8208L39.8879 73.9969L40.1121 70.0031ZM37.2 69.8522L34.1044 69.3262L33.4344 73.2697L36.53 73.7957L37.2 69.8522ZM34.3231 69.3761L31.3059 68.5069L30.1985 72.3506L33.2157 73.2198L34.3231 69.3761ZM31.5176 68.581L28.6166 67.3794L27.0859 71.0749L29.9868 72.2765L31.5176 68.581ZM28.8187 67.4767L26.0705 65.9578L24.1357 69.4587L26.8838 70.9776L28.8187 67.4767ZM26.2604 66.0772L23.6996 64.2602L21.3849 67.5224L23.9458 69.3394L26.2604 66.0772ZM23.875 64.4L21.5337 62.3077L18.8683 65.2903L21.2096 67.3826L23.875 64.4ZM21.6923 62.4663L19.6 60.125L16.6174 62.7904L18.7097 65.1317L21.6923 62.4663ZM19.7398 60.3004L17.9228 57.7396L14.6606 60.0542L16.4776 62.6151L19.7398 60.3004ZM18.0422 57.9295L16.5233 55.1813L13.0224 57.1162L14.5413 59.8643L18.0422 57.9295ZM16.6206 55.3834L15.419 52.4824L11.7235 54.0132L12.9251 56.9141L16.6206 55.3834ZM15.4931 52.6941L14.6239 49.6769L10.7802 50.7843L11.6494 53.8015L15.4931 52.6941ZM14.6738 49.8956L14.1478 46.8L10.2043 47.47L10.7303 50.5656L14.6738 49.8956ZM14.1729 47.0229L13.9969 43.8879L10.0031 44.1121L10.1792 47.2471L14.1729 47.0229ZM13.9969 44.1121L14.1729 40.9771L10.1792 40.7529L10.0031 43.8879L13.9969 44.1121ZM14.1478 41.2L14.6738 38.1044L10.7303 37.4344L10.2043 40.53L14.1478 41.2ZM14.6239 38.3231L15.4931 35.3059L11.6494 34.1985L10.7802 37.2157L14.6239 38.3231ZM15.419 35.5176L16.6206 32.6166L12.9251 31.0859L11.7235 33.9868L15.419 35.5176ZM16.5233 32.8187L18.0422 30.0705L14.5413 28.1357L13.0224 30.8838L16.5233 32.8187ZM17.9228 30.2604L19.7398 27.6996L16.4776 25.3849L14.6606 27.9458L17.9228 30.2604ZM19.6 27.875L21.6923 25.5337L18.7097 22.8683L16.6174 25.2096L19.6 27.875ZM21.5337 25.6923L23.875 23.6L21.2096 20.6174L18.8683 22.7097L21.5337 25.6923ZM23.6996 23.7398L26.2604 21.9228L23.9458 18.6606L21.3849 20.4776L23.6996 23.7398ZM26.0705 22.0422L28.8187 20.5233L26.8838 17.0224L24.1357 18.5413L26.0705 22.0422ZM28.6166 20.6206L31.5176 19.419L29.9868 15.7235L27.0859 16.9251L28.6166 20.6206ZM31.3059 19.4931L34.3231 18.6239L33.2157 14.7802L30.1985 15.6494L31.3059 19.4931ZM34.1044 18.6738L37.2 18.1478L36.53 14.2043L33.4344 14.7303L34.1044 18.6738ZM36.9771 18.1729L40.1121 17.9969L39.8879 14.0031L36.7529 14.1792L36.9771 18.1729Z" fill="currentColor" />
  <path d="M54.1421 29.858L55.6366 31.5304L56.9345 33.3595L58.0194 35.3225L58.8777 37.3946L59.4986 39.5498L59.8742 41.7609L60 44.0002L59.8742 46.2395L59.4986 48.4506L58.8777 50.6058L58.0194 52.6779L56.9345 54.6408L55.6366 56.47L54.1421 58.1423L52.4698 59.6368L50.6406 60.9347L48.6777 62.0196L46.6056 62.8778L44.4504 63.4987L42.2393 63.8744L40 64.0002L37.7607 63.8744L35.5496 63.4987L33.3944 62.8778L31.3223 62.0196L29.3594 60.9347L27.5302 59.6368L25.8579 58.1423L24.3634 56.47L23.0655 54.6408L21.9806 52.6779L21.1223 50.6058L20.5014 48.4506L20.1258 46.2395L20 44.0002L20.1258 41.7609L20.5014 39.5498L21.1223 37.3946L21.9806 35.3225L23.0655 33.3595L24.3634 31.5304L25.8579 29.858L27.5302 28.3636L29.3594 27.0657L31.3223 25.9808L33.3944 25.1225L35.5496 24.5016L37.7607 24.1259L40 24.0002L42.2393 24.1259L44.4504 24.5016L46.6056 25.1225L48.6777 25.9808L50.6406 27.0657L52.4698 28.3636L54.1421 29.858Z" fill="currentColor" fill-opacity="0.15" />
  <path d="M54.1421 29.858L55.6334 28.5254C55.5836 28.4696 55.5306 28.4166 55.4748 28.3668L54.1421 29.858ZM55.6366 31.5304L57.2678 30.373C57.2245 30.312 57.1778 30.2535 57.1279 30.1977L55.6366 31.5304ZM56.9345 33.3595L58.6849 32.3921C58.6487 32.3266 58.6089 32.2632 58.5656 32.2022L56.9345 33.3595ZM58.0194 35.3225L59.8671 34.5571C59.8385 34.488 59.806 34.4206 59.7698 34.3551L58.0194 35.3225ZM58.8777 37.3946L60.7995 36.8409C60.7788 36.769 60.7541 36.6984 60.7254 36.6292L58.8777 37.3946ZM59.4986 39.5498L61.4703 39.2147C61.4578 39.141 61.4411 39.068 61.4204 38.9961L59.4986 39.5498ZM59.8742 41.7609L61.8711 41.6487C61.8669 41.574 61.8585 41.4996 61.846 41.4259L59.8742 41.7609ZM60 44.0002L61.9969 44.1123C62.001 44.0376 62.001 43.9627 61.9969 43.888L60 44.0002ZM59.8742 46.2395L61.846 46.5745C61.8585 46.5007 61.8669 46.4263 61.8711 46.3516L59.8742 46.2395ZM59.4986 48.4506L61.4204 49.0043C61.4411 48.9324 61.4578 48.8594 61.4703 48.7856L59.4986 48.4506ZM58.8777 50.6058L60.7254 51.3711C60.7541 51.302 60.7788 51.2313 60.7995 51.1594L58.8777 50.6058ZM58.0194 52.6779L59.7698 53.6453C59.806 53.5798 59.8385 53.5123 59.8671 53.4432L58.0194 52.6779ZM56.9345 54.6408L58.5656 55.7982C58.6089 55.7371 58.6487 55.6737 58.6849 55.6083L56.9345 54.6408ZM55.6366 56.47L57.1279 57.8027C57.1778 57.7469 57.2245 57.6883 57.2678 57.6273L55.6366 56.47ZM54.1421 58.1423L55.4748 59.6336C55.5306 59.5837 55.5836 59.5308 55.6334 59.475L54.1421 58.1423ZM52.4698 59.6368L53.6271 61.2679C53.6882 61.2246 53.7467 61.178 53.8025 61.1281L52.4698 59.6368ZM50.6406 60.9347L51.6081 62.6851C51.6736 62.6489 51.737 62.6091 51.798 62.5658L50.6406 60.9347ZM48.6777 62.0196L49.443 63.8673C49.5122 63.8387 49.5796 63.8062 49.6451 63.77L48.6777 62.0196ZM46.6056 62.8778L47.1593 64.7997C47.2312 64.779 47.3018 64.7542 47.3709 64.7256L46.6056 62.8778ZM44.4504 63.4987L44.7854 65.4705C44.8592 65.458 44.9322 65.4413 45.0041 65.4206L44.4504 63.4987ZM42.2393 63.8744L42.3514 65.8713C42.4261 65.8671 42.5005 65.8587 42.5743 65.8462L42.2393 63.8744ZM40 64.0002L39.8879 65.997C39.9626 66.0012 40.0374 66.0012 40.1121 65.997L40 64.0002ZM37.7607 63.8744L37.4257 65.8462C37.4995 65.8587 37.5739 65.8671 37.6486 65.8713L37.7607 63.8744ZM35.5496 63.4987L34.9959 65.4206C35.0678 65.4413 35.1408 65.458 35.2146 65.4705L35.5496 63.4987ZM33.3944 62.8778L32.6291 64.7256C32.6982 64.7542 32.7688 64.779 32.8407 64.7997L33.3944 62.8778ZM31.3223 62.0196L30.3549 63.77C30.4204 63.8062 30.4878 63.8387 30.557 63.8673L31.3223 62.0196ZM29.3594 60.9347L28.202 62.5658C28.263 62.6091 28.3264 62.6489 28.3919 62.6851L29.3594 60.9347ZM27.5302 59.6368L26.1975 61.1281C26.2533 61.178 26.3118 61.2246 26.3729 61.2679L27.5302 59.6368ZM25.8579 58.1423L24.3666 59.475C24.4164 59.5308 24.4694 59.5837 24.5252 59.6336L25.8579 58.1423ZM24.3634 56.47L22.7322 57.6273C22.7755 57.6883 22.8222 57.7469 22.8721 57.8027L24.3634 56.47ZM23.0655 54.6408L21.3151 55.6083C21.3513 55.6737 21.3911 55.7371 21.4344 55.7982L23.0655 54.6408ZM21.9806 52.6779L20.1329 53.4432C20.1615 53.5123 20.194 53.5798 20.2302 53.6453L21.9806 52.6779ZM21.1223 50.6058L19.2005 51.1594C19.2212 51.2313 19.2459 51.302 19.2746 51.3711L21.1223 50.6058ZM20.5014 48.4506L18.5297 48.7856C18.5422 48.8594 18.5589 48.9324 18.5796 49.0043L20.5014 48.4506ZM20.1258 46.2395L18.1289 46.3516C18.1331 46.4263 18.1415 46.5007 18.154 46.5745L20.1258 46.2395ZM20 44.0002L18.0031 43.888C17.999 43.9627 17.999 44.0376 18.0031 44.1123L20 44.0002ZM20.1258 41.7609L18.154 41.4259C18.1415 41.4996 18.1331 41.574 18.1289 41.6487L20.1258 41.7609ZM20.5014 39.5498L18.5796 38.9961C18.5589 39.068 18.5422 39.141 18.5297 39.2147L20.5014 39.5498ZM21.1223 37.3946L19.2746 36.6292C19.2459 36.6984 19.2212 36.769 19.2005 36.8409L21.1223 37.3946ZM21.9806 35.3225L20.2302 34.3551C20.194 34.4206 20.1615 34.488 20.1329 34.5571L21.9806 35.3225ZM23.0655 33.3595L21.4344 32.2022C21.3911 32.2632 21.3513 32.3266 21.3151 32.3921L23.0655 33.3595ZM24.3634 31.5304L22.8721 30.1977C22.8222 30.2535 22.7755 30.312 22.7322 30.373L24.3634 31.5304ZM25.8579 29.858L24.5252 28.3668C24.4694 28.4166 24.4164 28.4696 24.3666 28.5254L25.8579 29.858ZM27.5302 28.3636L26.3729 26.7324C26.3118 26.7757 26.2533 26.8224 26.1975 26.8723L27.5302 28.3636ZM29.3594 27.0657L28.3919 25.3153C28.3264 25.3514 28.263 25.3913 28.202 25.4346L29.3594 27.0657ZM31.3223 25.9808L30.557 24.133C30.4878 24.1617 30.4204 24.1942 30.3549 24.2304L31.3223 25.9808ZM33.3944 25.1225L32.8407 23.2007C32.7689 23.2214 32.6982 23.2461 32.6291 23.2748L33.3944 25.1225ZM35.5496 24.5016L35.2146 22.5299C35.1408 22.5424 35.0678 22.5591 34.9959 22.5798L35.5496 24.5016ZM37.7607 24.1259L37.6486 22.1291C37.5739 22.1333 37.4995 22.1417 37.4257 22.1542L37.7607 24.1259ZM40 24.0002L40.1121 22.0033C40.0374 21.9991 39.9626 21.9991 39.8879 22.0033L40 24.0002ZM42.2393 24.1259L42.5743 22.1542C42.5005 22.1417 42.4261 22.1333 42.3514 22.1291L42.2393 24.1259ZM44.4504 24.5016L45.0041 22.5798C44.9322 22.5591 44.8592 22.5424 44.7854 22.5299L44.4504 24.5016ZM46.6056 25.1225L47.3709 23.2748C47.3018 23.2461 47.2311 23.2214 47.1593 23.2007L46.6056 25.1225ZM48.6777 25.9808L49.6451 24.2304C49.5796 24.1942 49.5122 24.1617 49.443 24.133L48.6777 25.9808ZM50.6406 27.0657L51.798 25.4346C51.737 25.3913 51.6736 25.3514 51.6081 25.3153L50.6406 27.0657ZM52.4698 28.3636L53.8025 26.8723C53.7467 26.8224 53.6882 26.7757 53.6271 26.7324L52.4698 28.3636ZM52.6509 31.1907L54.1453 32.8631L57.1279 30.1977L55.6334 28.5254L52.6509 31.1907ZM54.0055 32.6877L55.3034 34.5169L58.5656 32.2022L57.2678 30.373L54.0055 32.6877ZM55.184 34.327L56.2689 36.2899L59.7698 34.3551L58.6849 32.3921L55.184 34.327ZM56.1716 36.0879L57.0299 38.16L60.7254 36.6292L59.8671 34.5571L56.1716 36.0879ZM56.9558 37.9483L57.5767 40.1034L61.4204 38.9961L60.7995 36.8409L56.9558 37.9483ZM57.5268 39.8848L57.9025 42.0959L61.846 41.4259L61.4703 39.2147L57.5268 39.8848ZM57.8774 41.873L58.0031 44.1123L61.9969 43.888L61.8711 41.6487L57.8774 41.873ZM58.0031 43.888L57.8774 46.1273L61.8711 46.3516L61.9969 44.1123L58.0031 43.888ZM57.9025 45.9045L57.5268 48.1156L61.4703 48.7856L61.846 46.5745L57.9025 45.9045ZM57.5767 47.8969L56.9558 50.0521L60.7995 51.1594L61.4204 49.0043L57.5767 47.8969ZM57.0299 49.8404L56.1716 51.9125L59.8671 53.4432L60.7254 51.3711L57.0299 49.8404ZM56.2689 51.7104L55.184 53.6734L58.6849 55.6083L59.7698 53.6453L56.2689 51.7104ZM55.3034 53.4835L54.0055 55.3126L57.2678 57.6273L58.5656 55.7982L55.3034 53.4835ZM54.1453 55.1373L52.6509 56.8096L55.6334 59.475L57.1279 57.8027L54.1453 55.1373ZM52.8094 56.651L51.1371 58.1455L53.8025 61.1281L55.4748 59.6336L52.8094 56.651ZM51.3125 58.0057L49.4833 59.3035L51.798 62.5658L53.6271 61.2679L51.3125 58.0057ZM49.6732 59.1842L47.7102 60.2691L49.6451 63.77L51.6081 62.6851L49.6732 59.1842ZM47.9123 60.1718L45.8402 61.0301L47.3709 64.7256L49.443 63.8673L47.9123 60.1718ZM46.0519 60.956L43.8968 61.5769L45.0041 65.4206L47.1593 64.7997L46.0519 60.956ZM44.1154 61.527L41.9043 61.9027L42.5743 65.8462L44.7854 65.4705L44.1154 61.527ZM42.1272 61.8776L39.8879 62.0033L40.1121 65.997L42.3514 65.8713L42.1272 61.8776ZM40.1121 62.0033L37.8728 61.8776L37.6486 65.8713L39.8879 65.997L40.1121 62.0033ZM38.0957 61.9027L35.8846 61.527L35.2146 65.4705L37.4257 65.8462L38.0957 61.9027ZM36.1032 61.5769L33.9481 60.956L32.8407 64.7997L34.9959 65.4206L36.1032 61.5769ZM34.1598 61.0301L32.0877 60.1718L30.557 63.8673L32.6291 64.7256L34.1598 61.0301ZM32.2898 60.2691L30.3268 59.1842L28.3919 62.6851L30.3549 63.77L32.2898 60.2691ZM30.5167 59.3035L28.6875 58.0057L26.3729 61.2679L28.202 62.5658L30.5167 59.3035ZM28.8629 58.1455L27.1906 56.651L24.5252 59.6336L26.1975 61.1281L28.8629 58.1455ZM27.3491 56.8096L25.8547 55.1373L22.8721 57.8027L24.3666 59.475L27.3491 56.8096ZM25.9945 55.3126L24.6966 53.4835L21.4344 55.7982L22.7322 57.6273L25.9945 55.3126ZM24.816 53.6734L23.7311 51.7104L20.2302 53.6453L21.3151 55.6083L24.816 53.6734ZM23.8284 51.9125L22.9701 49.8404L19.2746 51.3711L20.1329 53.4432L23.8284 51.9125ZM23.0442 50.0521L22.4233 47.8969L18.5796 49.0043L19.2005 51.1594L23.0442 50.0521ZM22.4732 48.1156L22.0975 45.9045L18.154 46.5745L18.5297 48.7856L22.4732 48.1156ZM22.1226 46.1273L21.9969 43.888L18.0031 44.1123L18.1289 46.3516L22.1226 46.1273ZM21.9969 44.1123L22.1226 41.873L18.1289 41.6487L18.0031 43.888L21.9969 44.1123ZM22.0975 42.0959L22.4732 39.8848L18.5297 39.2147L18.154 41.4259L22.0975 42.0959ZM22.4233 40.1034L23.0442 37.9483L19.2005 36.8409L18.5796 38.9961L22.4233 40.1034ZM22.9701 38.16L23.8284 36.0879L20.1329 34.5571L19.2746 36.6292L22.9701 38.16ZM23.7311 36.2899L24.816 34.327L21.3151 32.3921L20.2302 34.3551L23.7311 36.2899ZM24.6966 34.5169L25.9945 32.6877L22.7322 30.373L21.4344 32.2022L24.6966 34.5169ZM25.8547 32.8631L27.3491 31.1907L24.3666 28.5254L22.8721 30.1977L25.8547 32.8631ZM27.1906 31.3493L28.8629 29.8548L26.1975 26.8723L24.5252 28.3668L27.1906 31.3493ZM28.6875 29.9947L30.5167 28.6968L28.202 25.4346L26.3729 26.7324L28.6875 29.9947ZM30.3268 28.8161L32.2898 27.7313L30.3549 24.2304L28.3919 25.3153L30.3268 28.8161ZM32.0877 27.8286L34.1598 26.9703L32.6291 23.2748L30.557 24.133L32.0877 27.8286ZM33.9481 27.0443L36.1033 26.4235L34.9959 22.5798L32.8407 23.2007L33.9481 27.0443ZM35.8846 26.4734L38.0957 26.0977L37.4257 22.1542L35.2146 22.5299L35.8846 26.4734ZM37.8729 26.1228L40.1121 25.997L39.8879 22.0033L37.6486 22.1291L37.8729 26.1228ZM39.8879 25.997L42.1271 26.1228L42.3514 22.1291L40.1121 22.0033L39.8879 25.997ZM41.9043 26.0977L44.1154 26.4734L44.7854 22.5299L42.5743 22.1542L41.9043 26.0977ZM43.8967 26.4235L46.0519 27.0443L47.1593 23.2007L45.0041 22.5798L43.8967 26.4235ZM45.8402 26.9703L47.9123 27.8286L49.443 24.133L47.3709 23.2748L45.8402 26.9703ZM47.7102 27.7313L49.6732 28.8161L51.6081 25.3153L49.6451 24.2304L47.7102 27.7313ZM49.4833 28.6968L51.3125 29.9947L53.6271 26.7324L51.798 25.4346L49.4833 28.6968ZM51.1371 29.8548L52.8094 31.3493L55.4748 28.3668L53.8025 26.8723L51.1371 29.8548Z" fill="currentColor" />
  <path d="M47.8037 34.8833C48.6334 34.5277 49.4723 35.3667 49.1167 36.1964L44.1982 47.673C44.097 47.909 43.909 48.0971 43.6729 48.1982L32.1963 53.1168C31.3666 53.4724 30.5277 52.6334 30.8833 51.8037L35.8018 40.3271C35.903 40.0911 36.091 39.903 36.327 39.8019L47.8037 34.8833Z" fill="currentColor" fill-opacity="0.15" stroke="currentColor" stroke-width="4" stroke-linecap="round" stroke-linejoin="round" />
  <path d="M40 8L40.4479 8.02515L40.8901 8.10029L41.3211 8.22447L41.7355 8.39612L42.1281 8.6131L42.494 8.87267L42.8284 9.17157L43.1273 9.50604L43.3869 9.87187L43.6039 10.2645L43.7755 10.6789L43.8997 11.1099L43.9748 11.5521L44 12L43.9748 12.4479L43.8997 12.8901L43.7755 13.3211L43.6039 13.7355L43.3869 14.1281L43.1273 14.494L42.8284 14.8284L42.494 15.1273L42.1281 15.3869L41.7355 15.6039L41.3211 15.7755L40.8901 15.8997L40.4479 15.9748L40 16L39.5521 15.9748L39.1099 15.8997L38.6789 15.7755L38.2645 15.6039L37.8719 15.3869L37.506 15.1273L37.1716 14.8284L36.8727 14.494L36.6131 14.1281L36.3961 13.7355L36.2245 13.3211L36.1003 12.8901L36.0252 12.4479L36 12L36.0252 11.5521L36.1003 11.1099L36.2245 10.6789L36.3961 10.2645L36.6131 9.87187L36.8727 9.50604L37.1716 9.17157L37.506 8.87267L37.8719 8.6131L38.2645 8.39612L38.6789 8.22447L39.1099 8.10029L39.5521 8.02515L40 8Z" fill="currentColor" fill-opacity="0.15" />
  <path d="M40 8L40.1121 6.00315C40.0374 5.99895 39.9626 5.99895 39.8879 6.00315L40 8ZM40.4479 8.02515L40.7829 6.05341C40.7091 6.04088 40.6347 6.03249 40.56 6.0283L40.4479 8.02515ZM40.8901 8.10029L41.4438 6.17845C41.3719 6.15774 41.2989 6.14108 41.2251 6.12855L40.8901 8.10029ZM41.3211 8.22447L42.0865 6.37671C42.0174 6.34808 41.9467 6.32334 41.8748 6.30263L41.3211 8.22447ZM41.7355 8.39612L42.703 6.64568C42.6375 6.60949 42.57 6.577 42.5009 6.54837L41.7355 8.39612ZM42.1281 8.6131L43.2855 6.98198C43.2245 6.93868 43.161 6.89885 43.0956 6.86266L42.1281 8.6131ZM42.494 8.87267L43.8267 7.38139C43.7709 7.33153 43.7123 7.28485 43.6513 7.24155L42.494 8.87267ZM42.8284 9.17157L44.3197 7.83888C44.2699 7.78309 44.2169 7.73014 44.1611 7.68029L42.8284 9.17157ZM43.1273 9.50604L44.7584 8.3487C44.7152 8.28768 44.6685 8.22914 44.6186 8.17335L43.1273 9.50604ZM43.3869 9.87187L45.1373 8.90444C45.1012 8.83895 45.0613 8.77555 45.018 8.71453L43.3869 9.87187ZM43.6039 10.2645L45.4516 9.4991C45.423 9.42997 45.3905 9.36251 45.3543 9.29703L43.6039 10.2645ZM43.7755 10.6789L45.6974 10.1252C45.6767 10.0533 45.6519 9.98264 45.6233 9.91351L43.7755 10.6789ZM43.8997 11.1099L45.8715 10.7749C45.8589 10.7011 45.8423 10.6281 45.8215 10.5562L43.8997 11.1099ZM43.9748 11.5521L45.9717 11.44C45.9675 11.3653 45.9591 11.2909 45.9466 11.2171L43.9748 11.5521ZM44 12L45.9969 12.1121C46.001 12.0374 46.001 11.9626 45.9969 11.8879L44 12ZM43.9748 12.4479L45.9466 12.7829C45.9591 12.7091 45.9675 12.6347 45.9717 12.56L43.9748 12.4479ZM43.8997 12.8901L45.8215 13.4438C45.8423 13.3719 45.8589 13.2989 45.8715 13.2251L43.8997 12.8901ZM43.7755 13.3211L45.6233 14.0865C45.6519 14.0174 45.6767 13.9467 45.6974 13.8748L43.7755 13.3211ZM43.6039 13.7355L45.3543 14.703C45.3905 14.6375 45.423 14.57 45.4516 14.5009L43.6039 13.7355ZM43.3869 14.1281L45.018 15.2855C45.0613 15.2245 45.1012 15.161 45.1373 15.0956L43.3869 14.1281ZM43.1273 14.494L44.6186 15.8267C44.6685 15.7709 44.7152 15.7123 44.7584 15.6513L43.1273 14.494ZM42.8284 14.8284L44.1611 16.3197C44.2169 16.2699 44.2699 16.2169 44.3197 16.1611L42.8284 14.8284ZM42.494 15.1273L43.6513 16.7584C43.7123 16.7152 43.7709 16.6685 43.8267 16.6186L42.494 15.1273ZM42.1281 15.3869L43.0956 17.1373C43.161 17.1012 43.2245 17.0613 43.2855 17.018L42.1281 15.3869ZM41.7355 15.6039L42.5009 17.4516C42.57 17.423 42.6375 17.3905 42.703 17.3543L41.7355 15.6039ZM41.3211 15.7755L41.8748 17.6974C41.9467 17.6767 42.0174 17.6519 42.0865 17.6233L41.3211 15.7755ZM40.8901 15.8997L41.2251 17.8715C41.2989 17.8589 41.3719 17.8423 41.4438 17.8215L40.8901 15.8997ZM40.4479 15.9748L40.56 17.9717C40.6347 17.9675 40.7091 17.9591 40.7829 17.9466L40.4479 15.9748ZM40 16L39.8879 17.9969C39.9626 18.001 40.0374 18.001 40.1121 17.9969L40 16ZM39.5521 15.9748L39.2171 17.9466C39.2909 17.9591 39.3653 17.9675 39.44 17.9717L39.5521 15.9748ZM39.1099 15.8997L38.5562 17.8215C38.6281 17.8423 38.7011 17.8589 38.7749 17.8715L39.1099 15.8997ZM38.6789 15.7755L37.9135 17.6233C37.9826 17.6519 38.0533 17.6767 38.1252 17.6974L38.6789 15.7755ZM38.2645 15.6039L37.297 17.3543C37.3625 17.3905 37.43 17.423 37.4991 17.4516L38.2645 15.6039ZM37.8719 15.3869L36.7145 17.018C36.7755 17.0613 36.839 17.1012 36.9044 17.1373L37.8719 15.3869ZM37.506 15.1273L36.1733 16.6186C36.2291 16.6685 36.2877 16.7152 36.3487 16.7584L37.506 15.1273ZM37.1716 14.8284L35.6803 16.1611C35.7301 16.2169 35.7831 16.2699 35.8389 16.3197L37.1716 14.8284ZM36.8727 14.494L35.2416 15.6513C35.2848 15.7123 35.3315 15.7709 35.3814 15.8267L36.8727 14.494ZM36.6131 14.1281L34.8627 15.0956C34.8988 15.161 34.9387 15.2245 34.982 15.2855L36.6131 14.1281ZM36.3961 13.7355L34.5484 14.5009C34.577 14.57 34.6095 14.6375 34.6457 14.703L36.3961 13.7355ZM36.2245 13.3211L34.3026 13.8748C34.3233 13.9467 34.3481 14.0174 34.3767 14.0865L36.2245 13.3211ZM36.1003 12.8901L34.1285 13.2251C34.1411 13.2989 34.1577 13.3719 34.1785 13.4438L36.1003 12.8901ZM36.0252 12.4479L34.0283 12.56C34.0325 12.6347 34.0409 12.7091 34.0534 12.7829L36.0252 12.4479ZM36 12L34.0031 11.8879C33.999 11.9626 33.999 12.0374 34.0031 12.1121L36 12ZM36.0252 11.5521L34.0534 11.2171C34.0409 11.2909 34.0325 11.3653 34.0283 11.44L36.0252 11.5521ZM36.1003 11.1099L34.1785 10.5562C34.1577 10.6281 34.1411 10.7011 34.1285 10.7749L36.1003 11.1099ZM36.2245 10.6789L34.3767 9.91352C34.3481 9.98264 34.3233 10.0533 34.3026 10.1252L36.2245 10.6789ZM36.3961 10.2645L34.6457 9.29703C34.6095 9.36251 34.577 9.42997 34.5484 9.4991L36.3961 10.2645ZM36.6131 9.87187L34.982 8.71453C34.9387 8.77555 34.8988 8.83895 34.8627 8.90443L36.6131 9.87187ZM36.8727 9.50604L35.3814 8.17335C35.3315 8.22914 35.2848 8.28768 35.2416 8.3487L36.8727 9.50604ZM37.1716 9.17157L35.8389 7.68029C35.7831 7.73014 35.7301 7.78309 35.6803 7.83888L37.1716 9.17157ZM37.506 8.87267L36.3487 7.24155C36.2877 7.28485 36.2291 7.33153 36.1733 7.38139L37.506 8.87267ZM37.8719 8.6131L36.9044 6.86266C36.839 6.89885 36.7755 6.93869 36.7145 6.98198L37.8719 8.6131ZM38.2645 8.39612L37.4991 6.54837C37.43 6.577 37.3625 6.60949 37.297 6.64568L38.2645 8.39612ZM38.6789 8.22447L38.1252 6.30263C38.0533 6.32334 37.9826 6.34808 37.9135 6.37671L38.6789 8.22447ZM39.1099 8.10029L38.7749 6.12855C38.7011 6.14108 38.6281 6.15774 38.5562 6.17845L39.1099 8.10029ZM39.5521 8.02515L39.44 6.0283C39.3653 6.03249 39.2909 6.04088 39.2171 6.05341L39.5521 8.02515ZM39.8879 9.99685L40.3357 10.022L40.56 6.0283L40.1121 6.00315L39.8879 9.99685ZM40.1128 9.99689L40.5551 10.072L41.2251 6.12855L40.7829 6.05341L40.1128 9.99689ZM40.3364 10.0221L40.7674 10.1463L41.8748 6.30263L41.4438 6.17845L40.3364 10.0221ZM40.5557 10.0722L40.9702 10.2439L42.5009 6.54837L42.0865 6.37671L40.5557 10.0722ZM40.7681 10.1466L41.1607 10.3636L43.0956 6.86266L42.703 6.64568L40.7681 10.1466ZM40.9708 10.2442L41.3366 10.5038L43.6513 7.24155L43.2855 6.98198L40.9708 10.2442ZM41.1613 10.364L41.4957 10.6629L44.1611 7.68029L43.8267 7.38139L41.1613 10.364ZM41.3371 10.5043L41.636 10.8387L44.6186 8.17335L44.3197 7.83888L41.3371 10.5043ZM41.4962 10.6634L41.7558 11.0292L45.018 8.71453L44.7584 8.3487L41.4962 10.6634ZM41.6364 10.8393L41.8534 11.2319L45.3543 9.29703L45.1373 8.90444L41.6364 10.8393ZM41.7561 11.0298L41.9278 11.4443L45.6233 9.91351L45.4516 9.4991L41.7561 11.0298ZM41.8537 11.2326L41.9779 11.6636L45.8215 10.5562L45.6974 10.1252L41.8537 11.2326ZM41.928 11.4449L42.0031 11.8872L45.9466 11.2171L45.8715 10.7749L41.928 11.4449ZM41.978 11.6643L42.0031 12.1121L45.9969 11.8879L45.9717 11.44L41.978 11.6643ZM42.0031 11.8879L41.978 12.3357L45.9717 12.56L45.9969 12.1121L42.0031 11.8879ZM42.0031 12.1128L41.928 12.5551L45.8715 13.2251L45.9466 12.7829L42.0031 12.1128ZM41.9779 12.3364L41.8537 12.7674L45.6974 13.8748L45.8215 13.4438L41.9779 12.3364ZM41.9278 12.5557L41.7561 12.9702L45.4516 14.5009L45.6233 14.0865L41.9278 12.5557ZM41.8534 12.7681L41.6364 13.1607L45.1373 15.0956L45.3543 14.703L41.8534 12.7681ZM41.7558 12.9708L41.4962 13.3366L44.7584 15.6513L45.018 15.2855L41.7558 12.9708ZM41.636 13.1613L41.3371 13.4957L44.3197 16.1611L44.6186 15.8267L41.636 13.1613ZM41.4957 13.3371L41.1613 13.636L43.8267 16.6186L44.1611 16.3197L41.4957 13.3371ZM41.3366 13.4962L40.9708 13.7558L43.2855 17.018L43.6513 16.7584L41.3366 13.4962ZM41.1607 13.6364L40.7681 13.8534L42.703 17.3543L43.0956 17.1373L41.1607 13.6364ZM40.9702 13.7561L40.5557 13.9278L42.0865 17.6233L42.5009 17.4516L40.9702 13.7561ZM40.7674 13.8537L40.3364 13.9779L41.4438 17.8215L41.8748 17.6974L40.7674 13.8537ZM40.5551 13.928L40.1128 14.0031L40.7829 17.9466L41.2251 17.8715L40.5551 13.928ZM40.3357 13.978L39.8879 14.0031L40.1121 17.9969L40.56 17.9717L40.3357 13.978ZM40.1121 14.0031L39.6643 13.978L39.44 17.9717L39.8879 17.9969L40.1121 14.0031ZM39.8872 14.0031L39.4449 13.928L38.7749 17.8715L39.2171 17.9466L39.8872 14.0031ZM39.6636 13.9779L39.2326 13.8537L38.1252 17.6974L38.5562 17.8215L39.6636 13.9779ZM39.4443 13.9278L39.0298 13.7561L37.4991 17.4516L37.9135 17.6233L39.4443 13.9278ZM39.2319 13.8534L38.8393 13.6364L36.9044 17.1373L37.297 17.3543L39.2319 13.8534ZM39.0292 13.7558L38.6634 13.4962L36.3487 16.7584L36.7145 17.018L39.0292 13.7558ZM38.8387 13.636L38.5043 13.3371L35.8389 16.3197L36.1733 16.6186L38.8387 13.636ZM38.6629 13.4957L38.364 13.1613L35.3814 15.8267L35.6803 16.1611L38.6629 13.4957ZM38.5038 13.3366L38.2442 12.9708L34.982 15.2855L35.2416 15.6513L38.5038 13.3366ZM38.3636 13.1607L38.1466 12.7681L34.6457 14.703L34.8627 15.0956L38.3636 13.1607ZM38.2439 12.9702L38.0722 12.5557L34.3767 14.0865L34.5484 14.5009L38.2439 12.9702ZM38.1463 12.7674L38.0221 12.3364L34.1785 13.4438L34.3026 13.8748L38.1463 12.7674ZM38.072 12.5551L37.9969 12.1128L34.0534 12.7829L34.1285 13.2251L38.072 12.5551ZM38.022 12.3357L37.9969 11.8879L34.0031 12.1121L34.0283 12.56L38.022 12.3357ZM37.9969 12.1121L38.022 11.6643L34.0283 11.44L34.0031 11.8879L37.9969 12.1121ZM37.9969 11.8872L38.072 11.4449L34.1285 10.7749L34.0534 11.2171L37.9969 11.8872ZM38.0221 11.6636L38.1463 11.2326L34.3026 10.1252L34.1785 10.5562L38.0221 11.6636ZM38.0722 11.4443L38.2439 11.0298L34.5484 9.4991L34.3767 9.91352L38.0722 11.4443ZM38.1466 11.2319L38.3636 10.8393L34.8627 8.90443L34.6457 9.29703L38.1466 11.2319ZM38.2442 11.0292L38.5038 10.6634L35.2416 8.3487L34.982 8.71453L38.2442 11.0292ZM38.364 10.8387L38.6629 10.5043L35.6803 7.83888L35.3814 8.17335L38.364 10.8387ZM38.5043 10.6629L38.8387 10.364L36.1733 7.38139L35.8389 7.68029L38.5043 10.6629ZM38.6634 10.5038L39.0292 10.2442L36.7145 6.98198L36.3487 7.24155L38.6634 10.5038ZM38.8393 10.3636L39.2319 10.1466L37.297 6.64568L36.9044 6.86266L38.8393 10.3636ZM39.0298 10.2439L39.4443 10.0722L37.9135 6.37671L37.4991 6.54837L39.0298 10.2439ZM39.2326 10.1463L39.6636 10.0221L38.5562 6.17845L38.1252 6.30263L39.2326 10.1463ZM39.4449 10.072L39.8872 9.99689L39.2171 6.05341L38.7749 6.12855L39.4449 10.072ZM39.6643 10.022L40.1121 9.99685L39.8879 6.00315L39.44 6.0283L39.6643 10.022Z" fill="currentColor" />
  <path fill-rule="evenodd" clip-rule="evenodd" d="M40.0028 28.0002L40 24L39.9972 28.0002L40 28L40.0028 28.0002ZM55.9998 43.9972L56 44L55.9998 44.0028L60 44L55.9998 43.9972ZM40.0028 59.9998L40 60L39.9972 59.9998L40 64L40.0028 59.9998ZM24.0002 44.0028L24 44L24.0002 43.9972L20 44L24.0002 44.0028Z" fill="currentColor" fill-opacity="0.15" />
  <path d="M40 24L42 23.9986C41.9992 22.8946 41.104 22 40 22C38.896 22 38.0008 22.8946 38 23.9986L40 24ZM40.0028 28.0002L39.8908 29.997C40.4401 30.0278 40.9778 29.831 41.3774 29.453C41.777 29.0749 42.0032 28.5489 42.0028 27.9987L40.0028 28.0002ZM39.9972 28.0002L37.9972 27.9987C37.9968 28.5489 38.223 29.0749 38.6226 29.453C39.0222 29.831 39.5599 30.0278 40.1092 29.997L39.9972 28.0002ZM40 28L40.112 26.0031C40.0374 25.999 39.9626 25.999 39.888 26.0031L40 28ZM55.9998 43.9972L56.0013 41.9972C55.451 41.9968 54.9248 42.2232 54.5467 42.623C54.1686 43.0228 53.9719 43.5608 54.003 44.1102L55.9998 43.9972ZM56 44L57.9968 44.113C58.0011 44.0377 58.0011 43.9623 57.9968 43.887L56 44ZM55.9998 44.0028L54.003 43.8898C53.9719 44.4392 54.1686 44.9772 54.5467 45.377C54.9248 45.7768 55.451 46.0032 56.0013 46.0028L55.9998 44.0028ZM60 44L60.0014 46C61.1054 45.9992 62 45.104 62 44C62 42.896 61.1054 42.0008 60.0014 42L60 44ZM40.0028 59.9998L42.0028 60.0013C42.0032 59.451 41.7768 58.9248 41.377 58.5467C40.9772 58.1686 40.4392 57.9719 39.8898 58.003L40.0028 59.9998ZM40 60L39.887 61.9968C39.9623 62.0011 40.0377 62.0011 40.113 61.9968L40 60ZM39.9972 59.9998L40.1102 58.003C39.5608 57.9719 39.0228 58.1686 38.623 58.5467C38.2232 58.9248 37.9968 59.451 37.9972 60.0013L39.9972 59.9998ZM40 64L38 64.0014C38.0008 65.1054 38.896 66 40 66C41.104 66 41.9992 65.1054 42 64.0014L40 64ZM24.0002 44.0028L23.9987 46.0028C24.5489 46.0032 25.0749 45.777 25.453 45.3774C25.831 44.9778 26.0278 44.4401 25.997 43.8908L24.0002 44.0028ZM24 44L22.0031 43.888C21.999 43.9626 21.999 44.0374 22.0031 44.112L24 44ZM24.0002 43.9972L25.997 44.1092C26.0278 43.5599 25.831 43.0222 25.453 42.6226C25.0749 42.223 24.5489 41.9968 23.9987 41.9972L24.0002 43.9972ZM20 44L19.9986 42C18.8946 42.0008 18 42.896 18 44C18 45.104 18.8946 45.9992 19.9986 46L20 44ZM38 24.0014L38.0028 28.0016L42.0028 27.9987L42 23.9986L38 24.0014ZM41.9972 28.0016L42 24.0014L38 23.9986L37.9972 27.9987L41.9972 28.0016ZM40.1092 29.997L40.112 29.9969L39.888 26.0031L39.8851 26.0033L40.1092 29.997ZM39.888 29.9969L39.8908 29.997L40.1149 26.0033L40.112 26.0031L39.888 29.9969ZM54.003 44.1102L54.0032 44.113L57.9968 43.887L57.9966 43.8841L54.003 44.1102ZM54.0032 43.887L54.003 43.8898L57.9966 44.1159L57.9968 44.113L54.0032 43.887ZM59.9986 42L55.9984 42.0028L56.0013 46.0028L60.0014 46L59.9986 42ZM55.9984 45.9972L59.9986 46L60.0014 42L56.0013 41.9972L55.9984 45.9972ZM39.8898 58.003L39.887 58.0032L40.113 61.9968L40.1159 61.9966L39.8898 58.003ZM40.113 58.0032L40.1102 58.003L39.8841 61.9966L39.887 61.9968L40.113 58.0032ZM42 63.9986L41.9972 59.9984L37.9972 60.0013L38 64.0014L42 63.9986ZM38.0028 59.9984L38 63.9986L42 64.0014L42.0028 60.0013L38.0028 59.9984ZM25.997 43.8908L25.9969 43.888L22.0031 44.112L22.0033 44.1149L25.997 43.8908ZM25.9969 44.112L25.997 44.1092L22.0033 43.8851L22.0031 43.888L25.9969 44.112ZM20.0014 46L24.0016 45.9972L23.9987 41.9972L19.9986 42L20.0014 46ZM24.0016 42.0028L20.0014 42L19.9986 46L23.9987 46.0028L24.0016 42.0028Z" fill="currentColor" />
</svg>