<svg viewBox="0 0 94 86" fill="none">
  <path d="M40 16L43.135 16.1761L46.2306 16.702L49.2478 17.5713L52.1487 18.7729L54.8969 20.2917L57.4577 22.1087L59.799 24.201L61.8913 26.5423L63.7083 29.1031L65.2271 31.8513L66.4287 34.7522L67.298 37.7694L67.8239 40.865L68 44L67.8239 47.135L67.298 50.2306L66.4287 53.2478L65.2271 56.1487L63.7083 58.8969L61.8913 61.4577L59.799 63.799L57.4577 65.8913L54.8969 67.7083L52.1487 69.2271L49.2478 70.4287L46.2306 71.298L43.135 71.8239L40 72L36.865 71.8239L33.7694 71.298L30.7522 70.4287L27.8513 69.2271L25.1031 67.7083L22.5423 65.8913L20.201 63.799L18.1087 61.4577L16.2917 58.8969L14.7729 56.1487L13.5713 53.2478L12.702 50.2306L12.1761 47.135L12 44L12.1761 40.865L12.702 37.7694L13.5713 34.7522L14.7729 31.8513L16.2917 29.1031L18.1087 26.5423L20.201 24.201L22.5423 22.1087L25.1031 20.2917L27.8513 18.7729L30.7522 17.5713L33.7694 16.702L36.865 16.1761L40 16Z" fill="currentColor" fill-opacity="0.15" />
  <path d="M40 16L40.1121 14.0031C40.0374 13.999 39.9626 13.999 39.8879 14.0031L40 16ZM43.135 16.1761L43.47 14.2043C43.3963 14.1918 43.3218 14.1834 43.2471 14.1792L43.135 16.1761ZM46.2306 16.702L46.7843 14.7802C46.7124 14.7595 46.6394 14.7428 46.5656 14.7303L46.2306 16.702ZM49.2478 17.5713L50.0132 15.7235C49.9441 15.6949 49.8734 15.6701 49.8015 15.6494L49.2478 17.5713ZM52.1487 18.7729L53.1162 17.0224C53.0507 16.9862 52.9832 16.9537 52.9141 16.9251L52.1487 18.7729ZM54.8969 20.2917L56.0542 18.6606C55.9932 18.6173 55.9298 18.5775 55.8643 18.5413L54.8969 20.2917ZM57.4577 22.1087L58.7904 20.6174C58.7346 20.5676 58.6761 20.5209 58.6151 20.4776L57.4577 22.1087ZM59.799 24.201L61.2903 22.8683C61.2404 22.8125 61.1875 22.7596 61.1317 22.7097L59.799 24.201ZM61.8913 26.5423L63.5224 25.3849C63.4791 25.3239 63.4324 25.2654 63.3826 25.2096L61.8913 26.5423ZM63.7083 29.1031L65.4587 28.1357C65.4225 28.0702 65.3827 28.0068 65.3394 27.9458L63.7083 29.1031ZM65.2271 31.8513L67.0749 31.0859C67.0463 31.0168 67.0138 30.9493 66.9776 30.8838L65.2271 31.8513ZM66.4287 34.7522L68.3506 34.1985C68.3299 34.1266 68.3051 34.0559 68.2765 33.9868L66.4287 34.7522ZM67.298 37.7694L69.2697 37.4344C69.2572 37.3606 69.2405 37.2876 69.2198 37.2157L67.298 37.7694ZM67.8239 40.865L69.8208 40.7529C69.8166 40.6782 69.8082 40.6037 69.7957 40.53L67.8239 40.865ZM68 44L69.9969 44.1121C70.001 44.0374 70.001 43.9626 69.9969 43.8879L68 44ZM67.8239 47.135L69.7957 47.47C69.8082 47.3963 69.8166 47.3218 69.8208 47.2471L67.8239 47.135ZM67.298 50.2306L69.2198 50.7843C69.2405 50.7124 69.2572 50.6394 69.2697 50.5656L67.298 50.2306ZM66.4287 53.2478L68.2765 54.0132C68.3051 53.9441 68.3299 53.8734 68.3506 53.8015L66.4287 53.2478ZM65.2271 56.1487L66.9776 57.1162C67.0138 57.0507 67.0463 56.9832 67.0749 56.9141L65.2271 56.1487ZM63.7083 58.8969L65.3394 60.0542C65.3827 59.9932 65.4225 59.9298 65.4587 59.8643L63.7083 58.8969ZM61.8913 61.4577L63.3826 62.7904C63.4324 62.7346 63.4791 62.6761 63.5224 62.6151L61.8913 61.4577ZM59.799 63.799L61.1317 65.2903C61.1875 65.2404 61.2404 65.1875 61.2903 65.1317L59.799 63.799ZM57.4577 65.8913L58.6151 67.5224C58.6761 67.4791 58.7346 67.4324 58.7904 67.3826L57.4577 65.8913ZM54.8969 67.7083L55.8643 69.4587C55.9298 69.4225 55.9932 69.3827 56.0542 69.3394L54.8969 67.7083ZM52.1487 69.2271L52.9141 71.0749C52.9832 71.0463 53.0507 71.0138 53.1162 70.9776L52.1487 69.2271ZM49.2478 70.4287L49.8015 72.3506C49.8734 72.3299 49.9441 72.3051 50.0132 72.2765L49.2478 70.4287ZM46.2306 71.298L46.5656 73.2697C46.6394 73.2572 46.7124 73.2405 46.7843 73.2198L46.2306 71.298ZM43.135 71.8239L43.2471 73.8208C43.3218 73.8166 43.3963 73.8082 43.47 73.7957L43.135 71.8239ZM40 72L39.8879 73.9969C39.9626 74.001 40.0374 74.001 40.1121 73.9969L40 72ZM36.865 71.8239L36.53 73.7957C36.6037 73.8082 36.6782 73.8166 36.7529 73.8208L36.865 71.8239ZM33.7694 71.298L33.2157 73.2198C33.2876 73.2405 33.3606 73.2572 33.4344 73.2697L33.7694 71.298ZM30.7522 70.4287L29.9868 72.2765C30.0559 72.3051 30.1266 72.3299 30.1985 72.3506L30.7522 70.4287ZM27.8513 69.2271L26.8838 70.9776C26.9493 71.0138 27.0168 71.0463 27.0859 71.0749L27.8513 69.2271ZM25.1031 67.7083L23.9458 69.3394C24.0068 69.3827 24.0702 69.4225 24.1357 69.4587L25.1031 67.7083ZM22.5423 65.8913L21.2096 67.3826C21.2654 67.4324 21.3239 67.4791 21.3849 67.5224L22.5423 65.8913ZM20.201 63.799L18.7097 65.1317C18.7596 65.1875 18.8125 65.2404 18.8683 65.2903L20.201 63.799ZM18.1087 61.4577L16.4776 62.6151C16.5209 62.6761 16.5676 62.7346 16.6174 62.7904L18.1087 61.4577ZM16.2917 58.8969L14.5413 59.8643C14.5775 59.9298 14.6173 59.9932 14.6606 60.0542L16.2917 58.8969ZM14.7729 56.1487L12.9251 56.9141C12.9537 56.9832 12.9862 57.0507 13.0224 57.1162L14.7729 56.1487ZM13.5713 53.2478L11.6494 53.8015C11.6701 53.8734 11.6949 53.9441 11.7235 54.0132L13.5713 53.2478ZM12.702 50.2306L10.7303 50.5656C10.7428 50.6394 10.7595 50.7124 10.7802 50.7843L12.702 50.2306ZM12.1761 47.135L10.1792 47.2471C10.1834 47.3218 10.1918 47.3963 10.2043 47.47L12.1761 47.135ZM12 44L10.0031 43.8879C9.99895 43.9626 9.99895 44.0374 10.0031 44.1121L12 44ZM12.1761 40.865L10.2043 40.53C10.1918 40.6037 10.1834 40.6782 10.1792 40.7529L12.1761 40.865ZM12.702 37.7694L10.7802 37.2157C10.7595 37.2876 10.7428 37.3606 10.7303 37.4344L12.702 37.7694ZM13.5713 34.7522L11.7235 33.9868C11.6949 34.0559 11.6701 34.1266 11.6494 34.1985L13.5713 34.7522ZM14.7729 31.8513L13.0224 30.8838C12.9862 30.9493 12.9537 31.0168 12.9251 31.0859L14.7729 31.8513ZM16.2917 29.1031L14.6606 27.9458C14.6173 28.0068 14.5775 28.0702 14.5413 28.1357L16.2917 29.1031ZM18.1087 26.5423L16.6174 25.2096C16.5676 25.2654 16.5209 25.3239 16.4776 25.3849L18.1087 26.5423ZM20.201 24.201L18.8683 22.7097C18.8125 22.7596 18.7596 22.8125 18.7097 22.8683L20.201 24.201ZM22.5423 22.1087L21.3849 20.4776C21.3239 20.5209 21.2654 20.5676 21.2096 20.6174L22.5423 22.1087ZM25.1031 20.2917L24.1357 18.5413C24.0702 18.5775 24.0068 18.6173 23.9458 18.6606L25.1031 20.2917ZM27.8513 18.7729L27.0859 16.9251C27.0168 16.9537 26.9493 16.9862 26.8838 17.0224L27.8513 18.7729ZM30.7522 17.5713L30.1985 15.6494C30.1266 15.6701 30.0559 15.6949 29.9868 15.7235L30.7522 17.5713ZM33.7694 16.702L33.4344 14.7303C33.3606 14.7428 33.2876 14.7595 33.2157 14.7802L33.7694 16.702ZM36.865 16.1761L36.7529 14.1792C36.6782 14.1834 36.6037 14.1918 36.53 14.2043L36.865 16.1761ZM39.8879 17.9969L43.0229 18.1729L43.2471 14.1792L40.1121 14.0031L39.8879 17.9969ZM42.8 18.1478L45.8956 18.6738L46.5656 14.7303L43.47 14.2043L42.8 18.1478ZM45.6769 18.6239L48.6941 19.4931L49.8015 15.6494L46.7843 14.7802L45.6769 18.6239ZM48.4824 19.419L51.3834 20.6206L52.9141 16.9251L50.0132 15.7235L48.4824 19.419ZM51.1813 20.5233L53.9295 22.0422L55.8643 18.5413L53.1162 17.0224L51.1813 20.5233ZM53.7396 21.9228L56.3004 23.7398L58.6151 20.4776L56.0542 18.6606L53.7396 21.9228ZM56.125 23.6L58.4663 25.6923L61.1317 22.7097L58.7904 20.6174L56.125 23.6ZM58.3077 25.5337L60.4 27.875L63.3826 25.2096L61.2903 22.8683L58.3077 25.5337ZM60.2602 27.6996L62.0772 30.2604L65.3394 27.9458L63.5224 25.3849L60.2602 27.6996ZM61.9578 30.0705L63.4767 32.8187L66.9776 30.8838L65.4587 28.1357L61.9578 30.0705ZM63.3794 32.6166L64.581 35.5176L68.2765 33.9868L67.0749 31.0859L63.3794 32.6166ZM64.5069 35.3059L65.3761 38.3231L69.2198 37.2157L68.3506 34.1985L64.5069 35.3059ZM65.3262 38.1044L65.8522 41.2L69.7957 40.53L69.2697 37.4344L65.3262 38.1044ZM65.8271 40.9771L66.0031 44.1121L69.9969 43.8879L69.8208 40.7529L65.8271 40.9771ZM66.0031 43.8879L65.8271 47.0229L69.8208 47.2471L69.9969 44.1121L66.0031 43.8879ZM65.8522 46.8L65.3262 49.8956L69.2697 50.5656L69.7957 47.47L65.8522 46.8ZM65.3761 49.6769L64.5069 52.6941L68.3506 53.8015L69.2198 50.7843L65.3761 49.6769ZM64.581 52.4824L63.3794 55.3834L67.0749 56.9141L68.2765 54.0132L64.581 52.4824ZM63.4767 55.1813L61.9578 57.9295L65.4587 59.8643L66.9776 57.1162L63.4767 55.1813ZM62.0772 57.7396L60.2602 60.3004L63.5224 62.6151L65.3394 60.0542L62.0772 57.7396ZM60.4 60.125L58.3077 62.4663L61.2903 65.1317L63.3826 62.7904L60.4 60.125ZM58.4663 62.3077L56.125 64.4L58.7904 67.3826L61.1317 65.2903L58.4663 62.3077ZM56.3004 64.2602L53.7396 66.0772L56.0542 69.3394L58.6151 67.5224L56.3004 64.2602ZM53.9295 65.9578L51.1813 67.4767L53.1162 70.9776L55.8643 69.4587L53.9295 65.9578ZM51.3834 67.3794L48.4824 68.581L50.0132 72.2765L52.9141 71.0749L51.3834 67.3794ZM48.6941 68.5069L45.6769 69.3761L46.7843 73.2198L49.8015 72.3506L48.6941 68.5069ZM45.8956 69.3262L42.8 69.8522L43.47 73.7957L46.5656 73.2697L45.8956 69.3262ZM43.0229 69.8271L39.8879 70.0031L40.1121 73.9969L43.2471 73.8208L43.0229 69.8271ZM40.1121 70.0031L36.9771 69.8271L36.7529 73.8208L39.8879 73.9969L40.1121 70.0031ZM37.2 69.8522L34.1044 69.3262L33.4344 73.2697L36.53 73.7957L37.2 69.8522ZM34.3231 69.3761L31.3059 68.5069L30.1985 72.3506L33.2157 73.2198L34.3231 69.3761ZM31.5176 68.581L28.6166 67.3794L27.0859 71.0749L29.9868 72.2765L31.5176 68.581ZM28.8187 67.4767L26.0705 65.9578L24.1357 69.4587L26.8838 70.9776L28.8187 67.4767ZM26.2604 66.0772L23.6996 64.2602L21.3849 67.5224L23.9458 69.3394L26.2604 66.0772ZM23.875 64.4L21.5337 62.3077L18.8683 65.2903L21.2096 67.3826L23.875 64.4ZM21.6923 62.4663L19.6 60.125L16.6174 62.7904L18.7097 65.1317L21.6923 62.4663ZM19.7398 60.3004L17.9228 57.7396L14.6606 60.0542L16.4776 62.6151L19.7398 60.3004ZM18.0422 57.9295L16.5233 55.1813L13.0224 57.1162L14.5413 59.8643L18.0422 57.9295ZM16.6206 55.3834L15.419 52.4824L11.7235 54.0132L12.9251 56.9141L16.6206 55.3834ZM15.4931 52.6941L14.6239 49.6769L10.7802 50.7843L11.6494 53.8015L15.4931 52.6941ZM14.6738 49.8956L14.1478 46.8L10.2043 47.47L10.7303 50.5656L14.6738 49.8956ZM14.1729 47.0229L13.9969 43.8879L10.0031 44.1121L10.1792 47.2471L14.1729 47.0229ZM13.9969 44.1121L14.1729 40.9771L10.1792 40.7529L10.0031 43.8879L13.9969 44.1121ZM14.1478 41.2L14.6738 38.1044L10.7303 37.4344L10.2043 40.53L14.1478 41.2ZM14.6239 38.3231L15.4931 35.3059L11.6494 34.1985L10.7802 37.2157L14.6239 38.3231ZM15.419 35.5176L16.6206 32.6166L12.9251 31.0859L11.7235 33.9868L15.419 35.5176ZM16.5233 32.8187L18.0422 30.0705L14.5413 28.1357L13.0224 30.8838L16.5233 32.8187ZM17.9228 30.2604L19.7398 27.6996L16.4776 25.3849L14.6606 27.9458L17.9228 30.2604ZM19.6 27.875L21.6923 25.5337L18.7097 22.8683L16.6174 25.2096L19.6 27.875ZM21.5337 25.6923L23.875 23.6L21.2096 20.6174L18.8683 22.7097L21.5337 25.6923ZM23.6996 23.7398L26.2604 21.9228L23.9458 18.6606L21.3849 20.4776L23.6996 23.7398ZM26.0705 22.0422L28.8187 20.5233L26.8838 17.0224L24.1357 18.5413L26.0705 22.0422ZM28.6166 20.6206L31.5176 19.419L29.9868 15.7235L27.0859 16.9251L28.6166 20.6206ZM31.3059 19.4931L34.3231 18.6239L33.2157 14.7802L30.1985 15.6494L31.3059 19.4931ZM34.1044 18.6738L37.2 18.1478L36.53 14.2043L33.4344 14.7303L34.1044 18.6738ZM36.9771 18.1729L40.1121 17.9969L39.8879 14.0031L36.7529 14.1792L36.9771 18.1729Z" fill="currentColor" />
  <path d="M59.799 35.5148L61.8913 37.8561L63.7083 40.4169L65.2271 43.1651L66.4287 46.066L67.298 49.0832L67.8239 52.1788L68 55.3138L67.8239 58.4488L67.298 61.5444L66.4287 64.5616L65.2271 67.4625L63.7083 70.2107L61.8913 72.7715L59.799 75.1128L57.4577 77.2051L54.8969 79.0221L52.1487 80.5409L49.2478 81.7425L46.2306 82.6118L43.135 83.1377L40 83.3138L36.865 83.1377L33.7694 82.6118L30.7522 81.7425L27.8513 80.5409L25.1031 79.0221L22.5423 77.2051L20.201 75.1128L18.1087 72.7715L16.2917 70.2107L14.7729 67.4625L13.5713 64.5616L12.702 61.5444L12.1761 58.4488L12 55.3138L12.1761 52.1788L12.702 49.0832L13.5713 46.066L14.7729 43.1651L16.2917 40.4169L18.1087 37.8561L20.201 35.5148L22.5423 33.4225L25.1031 31.6055L27.8513 30.0867L30.7522 28.8851L33.7694 28.0158L36.865 27.4899L40 27.3138L43.135 27.4899L46.2306 28.0158L49.2478 28.8851L52.1487 30.0867L54.8969 31.6055L57.4577 33.4225L59.799 35.5148Z" fill="currentColor" fill-opacity="0.15" />
  <path d="M59.799 35.5148L61.2903 34.1821C61.2404 34.1263 61.1875 34.0734 61.1317 34.0235L59.799 35.5148ZM61.8913 37.8561L63.5224 36.6987C63.4791 36.6377 63.4324 36.5792 63.3826 36.5234L61.8913 37.8561ZM63.7083 40.4169L65.4587 39.4495C65.4225 39.384 65.3827 39.3206 65.3394 39.2596L63.7083 40.4169ZM65.2271 43.1651L67.0749 42.3997C67.0463 42.3306 67.0138 42.2631 66.9776 42.1976L65.2271 43.1651ZM66.4287 46.066L68.3506 45.5123C68.3299 45.4404 68.3051 45.3697 68.2765 45.3006L66.4287 46.066ZM67.298 49.0832L69.2697 48.7482C69.2572 48.6744 69.2405 48.6014 69.2198 48.5295L67.298 49.0832ZM67.8239 52.1788L69.8208 52.0667C69.8166 51.992 69.8082 51.9175 69.7957 51.8438L67.8239 52.1788ZM68 55.3138L69.9969 55.4259C70.001 55.3512 70.001 55.2764 69.9969 55.2017L68 55.3138ZM67.8239 58.4488L69.7957 58.7838C69.8082 58.7101 69.8166 58.6356 69.8208 58.5609L67.8239 58.4488ZM67.298 61.5444L69.2198 62.0981C69.2405 62.0262 69.2572 61.9532 69.2697 61.8794L67.298 61.5444ZM66.4287 64.5616L68.2765 65.327C68.3051 65.2579 68.3299 65.1872 68.3506 65.1153L66.4287 64.5616ZM65.2271 67.4625L66.9776 68.43C67.0138 68.3645 67.0463 68.297 67.0749 68.2279L65.2271 67.4625ZM63.7083 70.2107L65.3394 71.368C65.3827 71.307 65.4225 71.2436 65.4587 71.1781L63.7083 70.2107ZM61.8913 72.7715L63.3826 74.1042C63.4324 74.0484 63.4791 73.9899 63.5224 73.9289L61.8913 72.7715ZM59.799 75.1128L61.1317 76.6041C61.1875 76.5542 61.2404 76.5013 61.2903 76.4455L59.799 75.1128ZM57.4577 77.2051L58.6151 78.8362C58.6761 78.7929 58.7346 78.7462 58.7904 78.6964L57.4577 77.2051ZM54.8969 79.0221L55.8643 80.7725C55.9298 80.7363 55.9932 80.6965 56.0542 80.6532L54.8969 79.0221ZM52.1487 80.5409L52.9141 82.3887C52.9832 82.3601 53.0507 82.3276 53.1162 82.2914L52.1487 80.5409ZM49.2478 81.7425L49.8015 83.6644C49.8734 83.6437 49.9441 83.6189 50.0132 83.5903L49.2478 81.7425ZM46.2306 82.6118L46.5656 84.5835C46.6394 84.571 46.7124 84.5543 46.7843 84.5336L46.2306 82.6118ZM43.135 83.1377L43.2471 85.1346C43.3218 85.1304 43.3963 85.122 43.47 85.1095L43.135 83.1377ZM40 83.3138L39.8879 85.3107C39.9626 85.3148 40.0374 85.3148 40.1121 85.3107L40 83.3138ZM36.865 83.1377L36.53 85.1095C36.6037 85.122 36.6782 85.1304 36.7529 85.1346L36.865 83.1377ZM33.7694 82.6118L33.2157 84.5336C33.2876 84.5543 33.3606 84.571 33.4344 84.5835L33.7694 82.6118ZM30.7522 81.7425L29.9868 83.5903C30.0559 83.6189 30.1266 83.6437 30.1985 83.6644L30.7522 81.7425ZM27.8513 80.5409L26.8838 82.2914C26.9493 82.3276 27.0168 82.3601 27.0859 82.3887L27.8513 80.5409ZM25.1031 79.0221L23.9458 80.6532C24.0068 80.6965 24.0702 80.7363 24.1357 80.7725L25.1031 79.0221ZM22.5423 77.2051L21.2096 78.6964C21.2654 78.7462 21.3239 78.7929 21.3849 78.8362L22.5423 77.2051ZM20.201 75.1128L18.7097 76.4455C18.7596 76.5013 18.8125 76.5542 18.8683 76.6041L20.201 75.1128ZM18.1087 72.7715L16.4776 73.9289C16.5209 73.9899 16.5676 74.0484 16.6174 74.1042L18.1087 72.7715ZM16.2917 70.2107L14.5413 71.1781C14.5775 71.2436 14.6173 71.307 14.6606 71.368L16.2917 70.2107ZM14.7729 67.4625L12.9251 68.2279C12.9537 68.297 12.9862 68.3645 13.0224 68.43L14.7729 67.4625ZM13.5713 64.5616L11.6494 65.1153C11.6701 65.1872 11.6949 65.2579 11.7235 65.327L13.5713 64.5616ZM12.702 61.5444L10.7303 61.8794C10.7428 61.9532 10.7595 62.0262 10.7802 62.0981L12.702 61.5444ZM12.1761 58.4488L10.1792 58.5609C10.1834 58.6356 10.1918 58.7101 10.2043 58.7838L12.1761 58.4488ZM12 55.3138L10.0031 55.2017C9.99895 55.2764 9.99895 55.3512 10.0031 55.4259L12 55.3138ZM12.1761 52.1788L10.2043 51.8438C10.1918 51.9175 10.1834 51.992 10.1792 52.0667L12.1761 52.1788ZM12.702 49.0832L10.7802 48.5295C10.7595 48.6014 10.7428 48.6744 10.7303 48.7482L12.702 49.0832ZM13.5713 46.066L11.7235 45.3006C11.6949 45.3697 11.6701 45.4404 11.6494 45.5123L13.5713 46.066ZM14.7729 43.1651L13.0224 42.1976C12.9862 42.2631 12.9537 42.3306 12.9251 42.3997L14.7729 43.1651ZM16.2917 40.4169L14.6606 39.2596C14.6173 39.3206 14.5775 39.384 14.5413 39.4495L16.2917 40.4169ZM18.1087 37.8561L16.6174 36.5234C16.5676 36.5792 16.5209 36.6377 16.4776 36.6987L18.1087 37.8561ZM20.201 35.5148L18.8683 34.0235C18.8125 34.0734 18.7596 34.1263 18.7097 34.1821L20.201 35.5148ZM22.5423 33.4225L21.3849 31.7914C21.3239 31.8347 21.2654 31.8814 21.2096 31.9312L22.5423 33.4225ZM25.1031 31.6055L24.1357 29.8551C24.0702 29.8913 24.0068 29.9311 23.9458 29.9744L25.1031 31.6055ZM27.8513 30.0867L27.0859 28.2389C27.0168 28.2675 26.9493 28.3 26.8838 28.3362L27.8513 30.0867ZM30.7522 28.8851L30.1985 26.9632C30.1266 26.9839 30.0559 27.0087 29.9868 27.0373L30.7522 28.8851ZM33.7694 28.0158L33.4344 26.0441C33.3606 26.0566 33.2876 26.0733 33.2157 26.094L33.7694 28.0158ZM36.865 27.4899L36.7529 25.493C36.6782 25.4972 36.6037 25.5056 36.53 25.5181L36.865 27.4899ZM40 27.3138L40.1121 25.3169C40.0374 25.3128 39.9626 25.3128 39.8879 25.3169L40 27.3138ZM43.135 27.4899L43.47 25.5181C43.3963 25.5056 43.3218 25.4972 43.2471 25.493L43.135 27.4899ZM46.2306 28.0158L46.7843 26.094C46.7124 26.0733 46.6394 26.0566 46.5656 26.0441L46.2306 28.0158ZM49.2478 28.8851L50.0132 27.0373C49.9441 27.0087 49.8734 26.9839 49.8015 26.9632L49.2478 28.8851ZM52.1487 30.0867L53.1162 28.3362C53.0507 28.3 52.9832 28.2675 52.9141 28.2389L52.1487 30.0867ZM54.8969 31.6055L56.0542 29.9744C55.9932 29.9311 55.9298 29.8913 55.8643 29.8551L54.8969 31.6055ZM57.4577 33.4225L58.7904 31.9312C58.7346 31.8814 58.6761 31.8347 58.6151 31.7914L57.4577 33.4225ZM58.3077 36.8475L60.4 39.1888L63.3826 36.5234L61.2903 34.1821L58.3077 36.8475ZM60.2602 39.0134L62.0772 41.5742L65.3394 39.2596L63.5224 36.6987L60.2602 39.0134ZM61.9578 41.3843L63.4767 44.1325L66.9776 42.1976L65.4587 39.4495L61.9578 41.3843ZM63.3794 43.9304L64.581 46.8314L68.2765 45.3006L67.0749 42.3997L63.3794 43.9304ZM64.5069 46.6197L65.3761 49.6369L69.2198 48.5295L68.3506 45.5123L64.5069 46.6197ZM65.3262 49.4182L65.8522 52.5138L69.7957 51.8438L69.2697 48.7482L65.3262 49.4182ZM65.8271 52.2909L66.0031 55.4259L69.9969 55.2017L69.8208 52.0667L65.8271 52.2909ZM66.0031 55.2017L65.8271 58.3367L69.8208 58.5609L69.9969 55.4259L66.0031 55.2017ZM65.8522 58.1138L65.3262 61.2094L69.2697 61.8794L69.7957 58.7838L65.8522 58.1138ZM65.3761 60.9907L64.5069 64.0079L68.3506 65.1153L69.2198 62.0981L65.3761 60.9907ZM64.581 63.7962L63.3794 66.6972L67.0749 68.2279L68.2765 65.327L64.581 63.7962ZM63.4767 66.4951L61.9578 69.2433L65.4587 71.1781L66.9776 68.43L63.4767 66.4951ZM62.0772 69.0534L60.2602 71.6142L63.5224 73.9289L65.3394 71.368L62.0772 69.0534ZM60.4 71.4388L58.3077 73.7801L61.2903 76.4455L63.3826 74.1042L60.4 71.4388ZM58.4663 73.6215L56.125 75.7138L58.7904 78.6964L61.1317 76.6041L58.4663 73.6215ZM56.3004 75.574L53.7396 77.391L56.0542 80.6532L58.6151 78.8362L56.3004 75.574ZM53.9295 77.2716L51.1813 78.7905L53.1162 82.2914L55.8643 80.7725L53.9295 77.2716ZM51.3834 78.6932L48.4824 79.8948L50.0132 83.5903L52.9141 82.3887L51.3834 78.6932ZM48.6941 79.8207L45.6769 80.6899L46.7843 84.5336L49.8015 83.6644L48.6941 79.8207ZM45.8956 80.64L42.8 81.166L43.47 85.1095L46.5656 84.5835L45.8956 80.64ZM43.0229 81.1409L39.8879 81.3169L40.1121 85.3107L43.2471 85.1346L43.0229 81.1409ZM40.1121 81.3169L36.9771 81.1409L36.7529 85.1346L39.8879 85.3107L40.1121 81.3169ZM37.2 81.166L34.1044 80.64L33.4344 84.5835L36.53 85.1095L37.2 81.166ZM34.3231 80.6899L31.3059 79.8207L30.1985 83.6644L33.2157 84.5336L34.3231 80.6899ZM31.5176 79.8948L28.6166 78.6932L27.0859 82.3887L29.9868 83.5903L31.5176 79.8948ZM28.8187 78.7905L26.0705 77.2716L24.1357 80.7725L26.8838 82.2914L28.8187 78.7905ZM26.2604 77.391L23.6996 75.574L21.3849 78.8362L23.9458 80.6532L26.2604 77.391ZM23.875 75.7138L21.5337 73.6215L18.8683 76.6041L21.2096 78.6964L23.875 75.7138ZM21.6923 73.7801L19.6 71.4388L16.6174 74.1042L18.7097 76.4455L21.6923 73.7801ZM19.7398 71.6142L17.9228 69.0534L14.6606 71.368L16.4776 73.9289L19.7398 71.6142ZM18.0422 69.2433L16.5233 66.4951L13.0224 68.43L14.5413 71.1781L18.0422 69.2433ZM16.6206 66.6972L15.419 63.7962L11.7235 65.327L12.9251 68.2279L16.6206 66.6972ZM15.4931 64.0079L14.6239 60.9907L10.7802 62.0981L11.6494 65.1153L15.4931 64.0079ZM14.6738 61.2094L14.1478 58.1138L10.2043 58.7838L10.7303 61.8794L14.6738 61.2094ZM14.1729 58.3367L13.9969 55.2017L10.0031 55.4259L10.1792 58.5609L14.1729 58.3367ZM13.9969 55.4259L14.1729 52.2909L10.1792 52.0667L10.0031 55.2017L13.9969 55.4259ZM14.1478 52.5138L14.6738 49.4182L10.7303 48.7482L10.2043 51.8438L14.1478 52.5138ZM14.6239 49.6369L15.4931 46.6197L11.6494 45.5123L10.7802 48.5295L14.6239 49.6369ZM15.419 46.8314L16.6206 43.9304L12.9251 42.3997L11.7235 45.3006L15.419 46.8314ZM16.5233 44.1325L18.0422 41.3843L14.5413 39.4495L13.0224 42.1976L16.5233 44.1325ZM17.9228 41.5742L19.7398 39.0134L16.4776 36.6987L14.6606 39.2596L17.9228 41.5742ZM19.6 39.1888L21.6923 36.8475L18.7097 34.1821L16.6174 36.5234L19.6 39.1888ZM21.5337 37.0061L23.875 34.9138L21.2096 31.9312L18.8683 34.0235L21.5337 37.0061ZM23.6996 35.0536L26.2604 33.2366L23.9458 29.9744L21.3849 31.7914L23.6996 35.0536ZM26.0705 33.356L28.8187 31.8371L26.8838 28.3362L24.1357 29.8551L26.0705 33.356ZM28.6166 31.9344L31.5176 30.7328L29.9868 27.0373L27.0859 28.2389L28.6166 31.9344ZM31.3059 30.8069L34.3231 29.9377L33.2157 26.094L30.1985 26.9632L31.3059 30.8069ZM34.1044 29.9876L37.2 29.4616L36.53 25.5181L33.4344 26.0441L34.1044 29.9876ZM36.9771 29.4867L40.1121 29.3107L39.8879 25.3169L36.7529 25.493L36.9771 29.4867ZM39.8879 29.3107L43.0229 29.4867L43.2471 25.493L40.1121 25.3169L39.8879 29.3107ZM42.8 29.4616L45.8956 29.9876L46.5656 26.0441L43.47 25.5181L42.8 29.4616ZM45.6769 29.9377L48.6941 30.8069L49.8015 26.9632L46.7843 26.094L45.6769 29.9377ZM48.4824 30.7328L51.3834 31.9344L52.9141 28.2389L50.0132 27.0373L48.4824 30.7328ZM51.1813 31.8371L53.9295 33.356L55.8643 29.8551L53.1162 28.3362L51.1813 31.8371ZM53.7396 33.2366L56.3004 35.0536L58.6151 31.7914L56.0542 29.9744L53.7396 33.2366ZM56.125 34.9138L58.4663 37.0061L61.1317 34.0235L58.7904 31.9312L56.125 34.9138Z" fill="currentColor" />
  <path d="M47.8037 34.8833C48.6334 34.5277 49.4723 35.3667 49.1167 36.1964L44.1982 47.673C44.097 47.909 43.909 48.0971 43.6729 48.1982L32.1963 53.1168C31.3666 53.4724 30.5277 52.6334 30.8833 51.8037L35.8018 40.3271C35.903 40.0911 36.091 39.903 36.327 39.8019L47.8037 34.8833Z" fill="currentColor" fill-opacity="0.15" stroke="currentColor" stroke-width="4" stroke-linecap="round" stroke-linejoin="round" />
  <path d="M64 8L67.135 8.17606L70.2306 8.70202L73.2478 9.57127L76.1487 10.7729L78.8969 12.2917L81.4577 14.1087L83.799 16.201L85.8913 18.5423L87.7083 21.1031L89.2271 23.8513L90.4287 26.7522L91.298 29.7694L91.8239 32.865L92 36L91.8239 39.135L91.298 42.2306L90.4287 45.2478L89.2271 48.1487L87.7083 50.8969L85.8913 53.4577L83.799 55.799L81.4577 57.8913L78.8969 59.7083L76.1487 61.2271L73.2478 62.4287L70.2306 63.298L67.135 63.8239L64 64L60.865 63.8239L57.7694 63.298L54.7522 62.4287L51.8513 61.2271L49.1031 59.7083L46.5423 57.8913L44.201 55.799L42.1087 53.4577L40.2917 50.8969L38.7729 48.1487L37.5713 45.2478L36.702 42.2306L36.1761 39.135L36 36L36.1761 32.865L36.702 29.7694L37.5713 26.7522L38.7729 23.8513L40.2917 21.1031L42.1087 18.5423L44.201 16.201L46.5423 14.1087L49.1031 12.2917L51.8513 10.7729L54.7522 9.57127L57.7694 8.70202L60.865 8.17606L64 8Z" fill="currentColor" fill-opacity="0.15" />
  <path d="M64 8L64.1121 6.00315C64.0374 5.99895 63.9626 5.99895 63.8879 6.00315L64 8ZM67.135 8.17606L67.47 6.20432C67.3963 6.19178 67.3218 6.1834 67.2471 6.1792L67.135 8.17606ZM70.2306 8.70202L70.7843 6.78018C70.7124 6.75947 70.6394 6.74281 70.5656 6.73028L70.2306 8.70202ZM73.2478 9.57127L74.0132 7.72351C73.9441 7.69488 73.8734 7.67014 73.8015 7.64943L73.2478 9.57127ZM76.1487 10.7729L77.1162 9.02242C77.0507 8.98623 76.9832 8.95374 76.9141 8.92511L76.1487 10.7729ZM78.8969 12.2917L80.0542 10.6606C79.9932 10.6173 79.9298 10.5775 79.8643 10.5413L78.8969 12.2917ZM81.4577 14.1087L82.7904 12.6174C82.7346 12.5676 82.6761 12.5209 82.6151 12.4776L81.4577 14.1087ZM83.799 16.201L85.2903 14.8683C85.2404 14.8125 85.1875 14.7596 85.1317 14.7097L83.799 16.201ZM85.8913 18.5423L87.5224 17.3849C87.4791 17.3239 87.4324 17.2654 87.3826 17.2096L85.8913 18.5423ZM87.7083 21.1031L89.4587 20.1357C89.4225 20.0702 89.3827 20.0068 89.3394 19.9458L87.7083 21.1031ZM89.2271 23.8513L91.0749 23.0859C91.0463 23.0168 91.0138 22.9493 90.9776 22.8838L89.2271 23.8513ZM90.4287 26.7522L92.3506 26.1985C92.3299 26.1266 92.3051 26.0559 92.2765 25.9868L90.4287 26.7522ZM91.298 29.7694L93.2697 29.4344C93.2572 29.3606 93.2405 29.2876 93.2198 29.2157L91.298 29.7694ZM91.8239 32.865L93.8208 32.7529C93.8166 32.6782 93.8082 32.6037 93.7957 32.53L91.8239 32.865ZM92 36L93.9969 36.1121C94.001 36.0374 94.001 35.9626 93.9969 35.8879L92 36ZM91.8239 39.135L93.7957 39.47C93.8082 39.3963 93.8166 39.3218 93.8208 39.2471L91.8239 39.135ZM91.298 42.2306L93.2198 42.7843C93.2405 42.7124 93.2572 42.6394 93.2697 42.5656L91.298 42.2306ZM90.4287 45.2478L92.2765 46.0132C92.3051 45.9441 92.3299 45.8734 92.3506 45.8015L90.4287 45.2478ZM89.2271 48.1487L90.9776 49.1162C91.0138 49.0507 91.0463 48.9832 91.0749 48.9141L89.2271 48.1487ZM87.7083 50.8969L89.3394 52.0542C89.3827 51.9932 89.4225 51.9298 89.4587 51.8643L87.7083 50.8969ZM85.8913 53.4577L87.3826 54.7904C87.4324 54.7346 87.4791 54.6761 87.5224 54.6151L85.8913 53.4577ZM83.799 55.799L85.1317 57.2903C85.1875 57.2404 85.2404 57.1875 85.2903 57.1317L83.799 55.799ZM81.4577 57.8913L82.6151 59.5224C82.6761 59.4791 82.7346 59.4324 82.7904 59.3826L81.4577 57.8913ZM78.8969 59.7083L79.8643 61.4587C79.9298 61.4225 79.9932 61.3827 80.0542 61.3394L78.8969 59.7083ZM76.1487 61.2271L76.9141 63.0749C76.9832 63.0463 77.0507 63.0138 77.1162 62.9776L76.1487 61.2271ZM73.2478 62.4287L73.8015 64.3506C73.8734 64.3299 73.9441 64.3051 74.0132 64.2765L73.2478 62.4287ZM70.2306 63.298L70.5656 65.2697C70.6394 65.2572 70.7124 65.2405 70.7843 65.2198L70.2306 63.298ZM67.135 63.8239L67.2471 65.8208C67.3218 65.8166 67.3963 65.8082 67.47 65.7957L67.135 63.8239ZM64 64L63.8879 65.9969C63.9626 66.001 64.0374 66.001 64.1121 65.9969L64 64ZM60.865 63.8239L60.53 65.7957C60.6037 65.8082 60.6782 65.8166 60.7529 65.8208L60.865 63.8239ZM57.7694 63.298L57.2157 65.2198C57.2876 65.2405 57.3606 65.2572 57.4344 65.2697L57.7694 63.298ZM54.7522 62.4287L53.9868 64.2765C54.0559 64.3051 54.1266 64.3299 54.1985 64.3506L54.7522 62.4287ZM51.8513 61.2271L50.8838 62.9776C50.9493 63.0138 51.0168 63.0463 51.0859 63.0749L51.8513 61.2271ZM49.1031 59.7083L47.9458 61.3394C48.0068 61.3827 48.0702 61.4225 48.1357 61.4587L49.1031 59.7083ZM46.5423 57.8913L45.2096 59.3826C45.2654 59.4324 45.3239 59.4791 45.3849 59.5224L46.5423 57.8913ZM44.201 55.799L42.7097 57.1317C42.7596 57.1875 42.8125 57.2404 42.8683 57.2903L44.201 55.799ZM42.1087 53.4577L40.4776 54.6151C40.5209 54.6761 40.5676 54.7346 40.6174 54.7904L42.1087 53.4577ZM40.2917 50.8969L38.5413 51.8643C38.5775 51.9298 38.6173 51.9932 38.6606 52.0542L40.2917 50.8969ZM38.7729 48.1487L36.9251 48.9141C36.9537 48.9832 36.9862 49.0507 37.0224 49.1162L38.7729 48.1487ZM37.5713 45.2478L35.6494 45.8015C35.6701 45.8734 35.6949 45.9441 35.7235 46.0132L37.5713 45.2478ZM36.702 42.2306L34.7303 42.5656C34.7428 42.6394 34.7595 42.7124 34.7802 42.7843L36.702 42.2306ZM36.1761 39.135L34.1792 39.2471C34.1834 39.3218 34.1918 39.3963 34.2043 39.47L36.1761 39.135ZM36 36L34.0031 35.8879C33.999 35.9626 33.999 36.0374 34.0031 36.1121L36 36ZM36.1761 32.865L34.2043 32.53C34.1918 32.6037 34.1834 32.6782 34.1792 32.7529L36.1761 32.865ZM36.702 29.7694L34.7802 29.2157C34.7595 29.2876 34.7428 29.3606 34.7303 29.4344L36.702 29.7694ZM37.5713 26.7522L35.7235 25.9868C35.6949 26.0559 35.6701 26.1266 35.6494 26.1985L37.5713 26.7522ZM38.7729 23.8513L37.0224 22.8838C36.9862 22.9493 36.9537 23.0168 36.9251 23.0859L38.7729 23.8513ZM40.2917 21.1031L38.6606 19.9458C38.6173 20.0068 38.5775 20.0702 38.5413 20.1357L40.2917 21.1031ZM42.1087 18.5423L40.6174 17.2096C40.5676 17.2654 40.5209 17.3239 40.4776 17.3849L42.1087 18.5423ZM44.201 16.201L42.8683 14.7097C42.8125 14.7596 42.7596 14.8125 42.7097 14.8683L44.201 16.201ZM46.5423 14.1087L45.3849 12.4776C45.3239 12.5209 45.2654 12.5676 45.2096 12.6174L46.5423 14.1087ZM49.1031 12.2917L48.1357 10.5413C48.0702 10.5775 48.0068 10.6173 47.9458 10.6606L49.1031 12.2917ZM51.8513 10.7729L51.0859 8.92511C51.0168 8.95374 50.9493 8.98623 50.8838 9.02242L51.8513 10.7729ZM54.7522 9.57127L54.1985 7.64943C54.1266 7.67014 54.0559 7.69487 53.9868 7.72351L54.7522 9.57127ZM57.7694 8.70202L57.4344 6.73028C57.3606 6.74281 57.2876 6.75947 57.2157 6.78018L57.7694 8.70202ZM60.865 8.17606L60.7529 6.1792C60.6782 6.1834 60.6037 6.19178 60.53 6.20432L60.865 8.17606ZM63.8879 9.99685L67.0229 10.1729L67.2471 6.1792L64.1121 6.00315L63.8879 9.99685ZM66.8 10.1478L69.8956 10.6738L70.5656 6.73028L67.47 6.20432L66.8 10.1478ZM69.6769 10.6239L72.6941 11.4931L73.8015 7.64943L70.7843 6.78018L69.6769 10.6239ZM72.4824 11.419L75.3834 12.6206L76.9141 8.92511L74.0132 7.72351L72.4824 11.419ZM75.1813 12.5233L77.9295 14.0422L79.8643 10.5413L77.1162 9.02242L75.1813 12.5233ZM77.7396 13.9228L80.3004 15.7398L82.6151 12.4776L80.0542 10.6606L77.7396 13.9228ZM80.125 15.6L82.4663 17.6923L85.1317 14.7097L82.7904 12.6174L80.125 15.6ZM82.3077 17.5337L84.4 19.875L87.3826 17.2096L85.2903 14.8683L82.3077 17.5337ZM84.2602 19.6996L86.0772 22.2604L89.3394 19.9458L87.5224 17.3849L84.2602 19.6996ZM85.9578 22.0705L87.4767 24.8187L90.9776 22.8838L89.4587 20.1357L85.9578 22.0705ZM87.3794 24.6166L88.581 27.5176L92.2765 25.9868L91.0749 23.0859L87.3794 24.6166ZM88.5069 27.3059L89.3761 30.3231L93.2198 29.2157L92.3506 26.1985L88.5069 27.3059ZM89.3262 30.1044L89.8522 33.2L93.7957 32.53L93.2697 29.4344L89.3262 30.1044ZM89.8271 32.9771L90.0031 36.1121L93.9969 35.8879L93.8208 32.7529L89.8271 32.9771ZM90.0031 35.8879L89.8271 39.0229L93.8208 39.2471L93.9969 36.1121L90.0031 35.8879ZM89.8522 38.8L89.3262 41.8956L93.2697 42.5656L93.7957 39.47L89.8522 38.8ZM89.3761 41.6769L88.5069 44.6941L92.3506 45.8015L93.2198 42.7843L89.3761 41.6769ZM88.581 44.4824L87.3794 47.3834L91.0749 48.9141L92.2765 46.0132L88.581 44.4824ZM87.4767 47.1813L85.9578 49.9295L89.4587 51.8643L90.9776 49.1162L87.4767 47.1813ZM86.0772 49.7396L84.2602 52.3004L87.5224 54.6151L89.3394 52.0542L86.0772 49.7396ZM84.4 52.125L82.3077 54.4663L85.2903 57.1317L87.3826 54.7904L84.4 52.125ZM82.4663 54.3077L80.125 56.4L82.7904 59.3826L85.1317 57.2903L82.4663 54.3077ZM80.3004 56.2602L77.7396 58.0772L80.0542 61.3394L82.6151 59.5224L80.3004 56.2602ZM77.9295 57.9578L75.1813 59.4767L77.1162 62.9776L79.8643 61.4587L77.9295 57.9578ZM75.3834 59.3794L72.4824 60.581L74.0132 64.2765L76.9141 63.0749L75.3834 59.3794ZM72.6941 60.5069L69.6769 61.3761L70.7843 65.2198L73.8015 64.3506L72.6941 60.5069ZM69.8956 61.3262L66.8 61.8522L67.47 65.7957L70.5656 65.2697L69.8956 61.3262ZM67.0229 61.8271L63.8879 62.0031L64.1121 65.9969L67.2471 65.8208L67.0229 61.8271ZM64.1121 62.0031L60.9771 61.8271L60.7529 65.8208L63.8879 65.9969L64.1121 62.0031ZM61.2 61.8522L58.1044 61.3262L57.4344 65.2697L60.53 65.7957L61.2 61.8522ZM58.3231 61.3761L55.3059 60.5069L54.1985 64.3506L57.2157 65.2198L58.3231 61.3761ZM55.5176 60.581L52.6166 59.3794L51.0859 63.0749L53.9868 64.2765L55.5176 60.581ZM52.8187 59.4767L50.0705 57.9578L48.1357 61.4587L50.8838 62.9776L52.8187 59.4767ZM50.2604 58.0772L47.6996 56.2602L45.3849 59.5224L47.9458 61.3394L50.2604 58.0772ZM47.875 56.4L45.5337 54.3077L42.8683 57.2903L45.2096 59.3826L47.875 56.4ZM45.6923 54.4663L43.6 52.125L40.6174 54.7904L42.7097 57.1317L45.6923 54.4663ZM43.7398 52.3004L41.9228 49.7396L38.6606 52.0542L40.4776 54.6151L43.7398 52.3004ZM42.0422 49.9295L40.5233 47.1813L37.0224 49.1162L38.5413 51.8643L42.0422 49.9295ZM40.6206 47.3834L39.419 44.4824L35.7235 46.0132L36.9251 48.9141L40.6206 47.3834ZM39.4931 44.6941L38.6239 41.6769L34.7802 42.7843L35.6494 45.8015L39.4931 44.6941ZM38.6738 41.8956L38.1478 38.8L34.2043 39.47L34.7303 42.5656L38.6738 41.8956ZM38.1729 39.0229L37.9969 35.8879L34.0031 36.1121L34.1792 39.2471L38.1729 39.0229ZM37.9969 36.1121L38.1729 32.9771L34.1792 32.7529L34.0031 35.8879L37.9969 36.1121ZM38.1478 33.2L38.6738 30.1044L34.7303 29.4344L34.2043 32.53L38.1478 33.2ZM38.6239 30.3231L39.4931 27.3059L35.6494 26.1985L34.7802 29.2157L38.6239 30.3231ZM39.419 27.5176L40.6206 24.6166L36.9251 23.0859L35.7235 25.9868L39.419 27.5176ZM40.5233 24.8187L42.0422 22.0705L38.5413 20.1357L37.0224 22.8838L40.5233 24.8187ZM41.9228 22.2604L43.7398 19.6996L40.4776 17.3849L38.6606 19.9458L41.9228 22.2604ZM43.6 19.875L45.6923 17.5337L42.7097 14.8683L40.6174 17.2096L43.6 19.875ZM45.5337 17.6923L47.875 15.6L45.2096 12.6174L42.8683 14.7097L45.5337 17.6923ZM47.6996 15.7398L50.2604 13.9228L47.9458 10.6606L45.3849 12.4776L47.6996 15.7398ZM50.0705 14.0422L52.8187 12.5233L50.8838 9.02242L48.1357 10.5413L50.0705 14.0422ZM52.6166 12.6206L55.5176 11.419L53.9868 7.72351L51.0859 8.92511L52.6166 12.6206ZM55.3059 11.4931L58.3231 10.6239L57.2157 6.78018L54.1985 7.64943L55.3059 11.4931ZM58.1044 10.6738L61.2 10.1478L60.53 6.20432L57.4344 6.73028L58.1044 10.6738ZM60.9771 10.1729L64.1121 9.99685L63.8879 6.00315L60.7529 6.1792L60.9771 10.1729Z" fill="currentColor" />
  <path fill-rule="evenodd" clip-rule="evenodd" d="M40.0047 30.7093L40 24L39.9952 30.7132L40.0047 30.7093ZM26.7093 44.0047L26.7132 43.9952L20 44L26.7093 44.0047Z" fill="currentColor" fill-opacity="0.15" />
  <path d="M40 24L42 23.9986C41.9992 22.8946 41.104 22 40 22C38.896 22 38.0008 22.8946 38 23.9986L40 24ZM40.0047 30.7093L40.7701 32.5571C41.5179 32.2473 42.0053 31.5173 42.0047 30.7079L40.0047 30.7093ZM39.9952 30.7132L37.9952 30.7118C37.9948 31.38 38.328 32.0043 38.8835 32.3758C39.439 32.7472 40.1433 32.8167 40.7606 32.561L39.9952 30.7132ZM26.7093 44.0047L26.7079 46.0047C27.5173 46.0053 28.2473 45.5179 28.5571 44.7701L26.7093 44.0047ZM26.7132 43.9952L28.561 44.7606C28.8167 44.1433 28.7472 43.439 28.3758 42.8835C28.0043 42.328 27.38 41.9948 26.7118 41.9952L26.7132 43.9952ZM20 44L19.9986 42C18.8946 42.0008 18 42.896 18 44C18 45.104 18.8946 45.9992 19.9986 46L20 44ZM38 24.0014L38.0047 30.7107L42.0047 30.7079L42 23.9986L38 24.0014ZM41.9952 30.7146L42 24.0014L38 23.9986L37.9952 30.7118L41.9952 30.7146ZM40.7606 32.561L40.7701 32.5571L39.2394 28.8615L39.2299 28.8655L40.7606 32.561ZM28.5571 44.7701L28.561 44.7606L24.8655 43.2299L24.8615 43.2394L28.5571 44.7701ZM20.0014 46L26.7146 45.9952L26.7118 41.9952L19.9986 42L20.0014 46ZM26.7107 42.0047L20.0014 42L19.9986 46L26.7079 46.0047L26.7107 42.0047Z" fill="currentColor" />
</svg>