<svg viewBox="0 0 80 80" fill="none">
  <path fill-rule="evenodd" clip-rule="evenodd" d="M30 55.0008L30 39.5705C30 38.5161 30.4163 37.5044 31.1583 36.7554L41.6276 26.1872C42.3787 25.4291 43.4016 25.0025 44.4689 25.0024L50 25.0017V17.0011C50 14.7917 48.2087 13.0007 45.9993 13.0011L37.8095 13.0026L22.0004 13.0009C19.7911 13.0006 18 14.7915 18 17.0009L18 51.0008C18 53.2099 19.7909 55.0008 22 55.0008H30Z" fill="currentColor" fill-opacity="0.25" />
  <path d="M30 55.0008V57.0008C31.1046 57.0008 32 56.1053 32 55.0008H30ZM31.1583 36.7554L29.7375 35.3478L31.1583 36.7554ZM41.6276 26.1872L43.0485 27.5948L43.0485 27.5948L41.6276 26.1872ZM44.4689 25.0024L44.4691 27.0024L44.4689 25.0024ZM50 25.0017L50.0002 27.0017C51.1047 27.0016 52 26.1062 52 25.0017H50ZM45.9993 13.0011L45.9989 11.0011L45.9993 13.0011ZM37.8095 13.0026L37.8093 15.0026H37.8099L37.8095 13.0026ZM22.0004 13.0009L22.0002 15.0009L22.0004 13.0009ZM18 17.0009L20 17.0009V17.0009H18ZM18 51.0008H16H18ZM28 39.5705L28 55.0008H32L32 39.5705H28ZM29.7375 35.3478C28.6244 36.4714 28 37.989 28 39.5705H32C32 39.0433 32.2081 38.5375 32.5792 38.1629L29.7375 35.3478ZM40.2068 24.7797L29.7375 35.3478L32.5792 38.1629L43.0485 27.5948L40.2068 24.7797ZM44.4686 23.0024C42.8678 23.0025 41.3334 23.6424 40.2068 24.7797L43.0485 27.5948C43.424 27.2157 43.9355 27.0024 44.4691 27.0024L44.4686 23.0024ZM49.9998 23.0017L44.4686 23.0024L44.4691 27.0024L50.0002 27.0017L49.9998 23.0017ZM52 25.0017V17.0011L48 17.0011V25.0017H52ZM52 17.0011C52 13.687 49.3131 11.0005 45.9989 11.0011L45.9996 15.0011C47.1044 15.0009 48 15.8964 48 17.0011L52 17.0011ZM45.9989 11.0011L37.8092 11.0026L37.8099 15.0026L45.9996 15.0011L45.9989 11.0011ZM37.8097 11.0026L22.0007 11.0009L22.0002 15.0009L37.8093 15.0026L37.8097 11.0026ZM22.0007 11.0009C18.6867 11.0005 16 13.6869 16 17.0009L20 17.0009C20 15.8962 20.8956 15.0007 22.0002 15.0009L22.0007 11.0009ZM16 17.0009L16 51.0008H20L20 17.0009L16 17.0009ZM16 51.0008C16 54.3145 18.6863 57.0008 22 57.0008V53.0008C20.8954 53.0008 20 52.1053 20 51.0008H16ZM22 57.0008H30V53.0008H22V57.0008Z" fill="currentColor" />
  <path fill-rule="evenodd" clip-rule="evenodd" d="M41.73 26.0879C42.4703 25.3921 43.4494 25.0028 44.4689 25.0027L57.9996 25.0012C60.2089 25.001 62 26.7919 62 29.0012L62 63.0011C62 65.2103 60.2091 67.0011 58 67.0011H34C31.7909 67.0011 30 65.2103 30 63.0011L30 39.5709C30 38.5542 30.3871 37.5771 31.08 36.837C30.7326 37.2625 31.0304 37.9228 31.6 37.9228L38.8 37.9228C41.0091 37.9228 42.8 36.132 42.8 33.9228V26.615C42.8 26.052 42.1531 25.7569 41.73 26.0879Z" fill="currentColor" fill-opacity="0.25" />
  <path d="M44.4689 25.0027L44.4686 23.0027L44.4689 25.0027ZM41.73 26.0879L42.9624 27.6631C42.1202 28.322 40.9086 28.2018 40.2122 27.3903C39.5158 26.5787 39.5811 25.3629 40.3603 24.6305L41.73 26.0879ZM57.9996 25.0012L57.9993 23.0012L57.9996 25.0012ZM62 29.0012L60 29.0012L62 29.0012ZM62 63.0011H64H62ZM31.08 36.837L29.6201 35.4701C30.357 34.683 31.5852 34.6218 32.3968 35.3317C33.2083 36.0415 33.3111 37.2669 32.6291 38.1021L31.08 36.837ZM44.4691 27.0027C43.9594 27.0028 43.4698 27.1974 43.0997 27.5453L40.3603 24.6305C41.4708 23.5868 42.9394 23.0029 44.4686 23.0027L44.4691 27.0027ZM57.9998 27.0012L44.4691 27.0027L44.4686 23.0027L57.9993 23.0012L57.9998 27.0012ZM60 29.0012C60 27.8966 59.1044 27.0011 57.9998 27.0012L57.9993 23.0012C61.3133 23.0009 64 25.6873 64 29.0012L60 29.0012ZM60 63.0011L60 29.0012L64 29.0012L64 63.0011H60ZM58 65.0011C59.1046 65.0011 60 64.1057 60 63.0011H64C64 66.3148 61.3137 69.0011 58 69.0011V65.0011ZM34 65.0011H58V69.0011H34V65.0011ZM32 63.0011C32 64.1057 32.8954 65.0011 34 65.0011V69.0011C30.6863 69.0011 28 66.3148 28 63.0011H32ZM32 39.5709L32 63.0011H28L28 39.5709H32ZM32.54 38.204C32.1935 38.574 32 39.0625 32 39.5709H28C28 38.0458 28.5806 36.5803 29.6201 35.4701L32.54 38.204ZM31.6 39.9228C29.3128 39.9228 28.1366 37.2794 29.5309 35.572L32.6291 38.1021C33.3286 37.2455 32.748 35.9228 31.6 35.9228L31.6 39.9228ZM38.8 39.9228L31.6 39.9228L31.6 35.9228L38.8 35.9228V39.9228ZM44.8 33.9228C44.8 37.2365 42.1137 39.9228 38.8 39.9228V35.9228C39.9046 35.9228 40.8 35.0274 40.8 33.9228H44.8ZM44.8 26.615V33.9228H40.8V26.615H44.8ZM40.4976 24.5127C42.201 23.18 44.8 24.3438 44.8 26.615H40.8C40.8 27.7602 42.1052 28.3337 42.9624 27.6631L40.4976 24.5127Z" fill="currentColor" />
  <path d="M31.1257 36.7854L41.6631 26.1467C42.0808 25.725 42.7998 26.0208 42.7998 26.6144V33.9222C42.7998 36.1314 41.0089 37.9222 38.7998 37.9222H31.5998C31.0069 37.9222 30.7085 37.2067 31.1257 36.7854Z" fill="currentColor" fill-opacity="0.25" />
  <path d="M41.6631 26.1467L40.2421 24.7393V24.7393L41.6631 26.1467ZM31.1257 36.7854L32.5467 38.1929L32.5467 38.1929L31.1257 36.7854ZM43.084 27.5542L32.5467 38.1929L29.7048 35.378L40.2421 24.7393L43.084 27.5542ZM44.7998 26.6144V33.9222H40.7998V26.6144H44.7998ZM38.7998 39.9222H31.5998V35.9222H38.7998V39.9222ZM44.7998 33.9222C44.7998 37.2359 42.1135 39.9222 38.7998 39.9222V35.9222C39.9044 35.9222 40.7998 35.0268 40.7998 33.9222H44.7998ZM32.5467 38.1929C33.3801 37.3514 32.7841 35.9222 31.5998 35.9222V39.9222C29.2297 39.9222 28.0369 37.0619 29.7048 35.378L32.5467 38.1929ZM40.2421 24.7393C41.917 23.0483 44.7998 24.2344 44.7998 26.6144H40.7998C40.7998 27.8072 42.2446 28.4017 43.084 27.5542L40.2421 24.7393Z" fill="currentColor" />
</svg>