<svg viewBox="0 0 80 80" fill="none">
  <path d="M20 16H19.6667C13.2233 16 8 21.2233 8 27.6667V52.3333C8 58.7767 13.2233 64 19.6667 64H20M60 16H60.3333C66.7767 16 72 21.2233 72 27.6667V52.3333C72 58.7767 66.7767 64 60.3333 64H60M36 16H34.8399C30.1069 16 26.4087 20.0865 26.8796 24.796L27.4514 30.5141C27.7817 33.8172 26.0379 36.9811 23.0688 38.4656L20 40L23.0688 41.5344C26.0379 43.0189 27.7817 46.1828 27.4514 49.4859L26.8796 55.204C26.4087 59.9135 30.1069 64 34.8399 64H36M44 16H45.1601C49.8931 16 53.5913 20.0865 53.1204 24.796L52.5486 30.5141C52.2183 33.8172 53.9621 36.9811 56.9312 38.4656L60 40L56.9312 41.5344C53.9621 43.0189 52.2183 46.1828 52.5486 49.4859L53.1204 55.204C53.5913 59.9135 49.8931 64 45.1601 64H44" stroke="currentColor" stroke-width="4" stroke-linecap="round" stroke-linejoin="round" />
</svg>