<svg viewBox="0 0 80 80" fill="none">
  <path d="M8 28C8 26.8954 8.89543 26 10 26H14.5165C21.4758 26 28.4053 25.0919 35.1295 23.2988L44.8705 20.7012C51.5947 18.9081 58.5242 18 65.4835 18H70C71.1046 18 72 18.8954 72 20V52C72 53.1046 71.1046 54 70 54H65.4835C58.5242 54 51.5947 54.9081 44.8705 56.7012L35.1295 59.2988C28.4053 61.0919 21.4758 62 14.5165 62H10C8.89543 62 8 61.1046 8 60V28Z" fill="currentColor" fill-opacity="0.25" />
  <path d="M8 35.9451V28C8 26.8954 8.89543 26 10 26H14.5165C15.6576 26 16.7979 25.9756 17.9367 25.9269C17.9785 26.2787 18 26.6369 18 27C18 31.9706 13.9706 36 9 36C8.66199 36 8.32833 35.9814 8 35.9451Z" fill="currentColor" fill-opacity="0.25" />
  <path d="M17.9529 61.9262C16.8088 61.9753 15.663 62 14.5165 62H10C8.89543 62 8 61.1046 8 60V52.0549C8.32833 52.0186 8.66199 52 9 52C13.9706 52 18 56.0294 18 61C18 61.3127 17.9841 61.6217 17.9529 61.9262Z" fill="currentColor" fill-opacity="0.25" />
  <path d="M72 44.0549V52C72 53.1046 71.1046 54 70 54H65.4835C64.3424 54 63.2021 54.0244 62.0633 54.0731C62.0215 53.7213 62 53.3631 62 53C62 48.0294 66.0294 44 71 44C71.338 44 71.6717 44.0186 72 44.0549Z" fill="currentColor" fill-opacity="0.25" />
  <path d="M72 27.9451C71.6717 27.9814 71.338 28 71 28C66.0294 28 62 23.9706 62 19C62 18.6873 62.0159 18.3783 62.0471 18.0738C63.1912 18.0246 64.337 18 65.4835 18H70C71.1046 18 72 18.8954 72 20V27.9451Z" fill="currentColor" fill-opacity="0.25" />
  <path d="M35.4751 31.66C38.2776 29.5026 42.1814 29.5026 44.9839 31.66C46.9007 33.1355 48.0237 35.4173 48.0237 37.8362V42.1638C48.0237 44.5827 46.9007 46.8645 44.9839 48.34C42.1814 50.4974 38.2776 50.4974 35.4751 48.34C33.5583 46.8645 32.4353 44.5827 32.4353 42.1638V37.8362C32.4353 35.4173 33.5583 33.1355 35.4751 31.66Z" fill="currentColor" fill-opacity="0.25" />
  <path d="M19.4152 41.22C20.3494 40.5009 21.6506 40.5009 22.5848 41.22C23.2237 41.7118 23.5981 42.4724 23.5981 43.2787V44.7213C23.5981 45.5276 23.2237 46.2882 22.5848 46.78C21.6506 47.4991 20.3494 47.4991 19.4152 46.78C18.7763 46.2882 18.4019 45.5276 18.4019 44.7213V43.2787C18.4019 42.4724 18.7763 41.7118 19.4152 41.22Z" fill="currentColor" fill-opacity="0.25" />
  <path d="M57.4152 33.22C58.3494 32.5009 59.6506 32.5009 60.5848 33.22C61.2237 33.7118 61.5981 34.4724 61.5981 35.2787V36.7213C61.5981 37.5276 61.2237 38.2882 60.5848 38.78C59.6506 39.4991 58.3494 39.4991 57.4152 38.78C56.7763 38.2882 56.4019 37.5276 56.4019 36.7213V35.2787C56.4019 34.4724 56.7763 33.7118 57.4152 33.22Z" fill="currentColor" fill-opacity="0.25" />
  <path d="M14.5165 62H10C8.89543 62 8 61.1046 8 60M14.5165 62C21.4758 62 28.4053 61.0919 35.1295 59.2988L44.8705 56.7012C51.5948 54.9081 58.5242 54 65.4835 54M14.5165 62C15.663 62 16.8088 61.9753 17.9529 61.9262C17.9841 61.6217 18 61.3127 18 61C18 56.0294 13.9706 52 9 52C8.66199 52 8.32833 52.0186 8 52.0549V60M14.5165 26H10C8.89543 26 8 26.8954 8 28M14.5165 26C21.4758 26 28.4053 25.0919 35.1295 23.2988L44.8705 20.7012C51.5947 18.9081 58.5242 18 65.4835 18M14.5165 26C15.6576 26 16.7979 25.9756 17.9367 25.9269C17.9785 26.2787 18 26.6369 18 27C18 31.9706 13.9706 36 9 36C8.66199 36 8.32833 35.9814 8 35.9451V28M65.4835 54H70C71.1046 54 72 53.1046 72 52M65.4835 54C64.3424 54 63.2021 54.0244 62.0633 54.0731C62.0215 53.7213 62 53.3631 62 53C62 48.0294 66.0294 44 71 44C71.338 44 71.6717 44.0186 72 44.0549V52M65.4835 18H70C71.1046 18 72 18.8954 72 20M65.4835 18C64.337 18 63.1912 18.0246 62.0471 18.0738C62.0159 18.3783 62 18.6873 62 19C62 23.9706 66.0294 28 71 28C71.338 28 71.6717 27.9814 72 27.9451V20M8 60V28M72 52V20M32.4353 37.8362V42.1638C32.4353 44.5827 33.5583 46.8645 35.4751 48.34C38.2776 50.4974 42.1814 50.4974 44.9839 48.34C46.9007 46.8645 48.0237 44.5827 48.0237 42.1638V37.8362C48.0237 35.4173 46.9007 33.1355 44.9839 31.66C42.1814 29.5026 38.2776 29.5026 35.4751 31.66C33.5583 33.1355 32.4353 35.4173 32.4353 37.8362ZM18.4019 43.2787V44.7213C18.4019 45.5276 18.7763 46.2882 19.4152 46.78C20.3494 47.4991 21.6506 47.4991 22.5848 46.78C23.2237 46.2882 23.5981 45.5276 23.5981 44.7213V43.2787C23.5981 42.4724 23.2237 41.7118 22.5848 41.22C21.6506 40.5009 20.3494 40.5009 19.4152 41.22C18.7763 41.7118 18.4019 42.4724 18.4019 43.2787ZM56.4019 35.2787V36.7213C56.4019 37.5276 56.7763 38.2882 57.4152 38.78C58.3494 39.4991 59.6506 39.4991 60.5848 38.78C61.2237 38.2882 61.5981 37.5276 61.5981 36.7213V35.2787C61.5981 34.4724 61.2237 33.7118 60.5848 33.22C59.6506 32.5009 58.3494 32.5009 57.4152 33.22C56.7763 33.7118 56.4019 34.4724 56.4019 35.2787Z" stroke="currentColor" stroke-linecap="round" stroke-linejoin="round" />
</svg>