<svg viewBox="0 0 80 80" fill="none">
  <path d="M31.9885 16.2848L29.8009 22H14C12.3431 22 11 23.3431 11 25V61C11 62.6568 12.3431 64 14 64H34.8749C33.8029 63.5851 32.7552 63.0851 31.7417 62.4999C24.775 58.4777 20.4833 51.0444 20.4833 42.9999C20.4833 34.9555 24.775 27.5222 31.7417 23.4999C38.7083 19.4777 47.2917 19.4777 54.2583 23.4999C61.225 27.5222 65.5167 34.9555 65.5167 42.9999C65.5167 51.0444 61.225 58.4777 54.2583 62.4999C53.2448 63.0851 52.1971 63.5851 51.1251 64H64C65.6569 64 67 62.6568 67 61V25C67 23.3431 65.6569 22 64 22H56.3202L54.1326 16.2848C53.8363 15.5108 53.0934 14.9997 52.2647 14.9997H33.8564C33.0277 14.9997 32.2848 15.5108 31.9885 16.2848Z" fill="currentColor" fill-opacity="0.25" />
  <path d="M23.9151 21.9999H16.1195L16.6504 19.5726C16.8513 18.6544 17.6643 17.9999 18.6042 17.9999H21.4304C22.3703 17.9999 23.1833 18.6544 23.3842 19.5726L23.9151 21.9999Z" fill="currentColor" fill-opacity="0.25" />
  <path d="M50.8302 14.9999H35.239L36.4646 12.1984C36.783 11.4704 37.5023 10.9999 38.2969 10.9999H47.7723C48.5669 10.9999 49.2862 11.4704 49.6047 12.1984L50.8302 14.9999Z" fill="currentColor" fill-opacity="0.25" />
  <path d="M31.7417 23.4999C38.7083 19.4777 47.2917 19.4777 54.2583 23.4999C61.225 27.5222 65.5167 34.9555 65.5167 42.9999C65.5167 51.0444 61.225 58.4777 54.2583 62.4999C47.2917 66.5222 38.7083 66.5222 31.7417 62.4999C24.775 58.4777 20.4833 51.0444 20.4833 42.9999C20.4833 34.9555 24.775 27.5222 31.7417 23.4999Z" fill="currentColor" fill-opacity="0.25" />
  <path d="M36.0718 31C40.359 28.5248 45.641 28.5248 49.9282 31C54.2154 33.4752 56.8564 38.0496 56.8564 43C56.8564 47.9504 54.2154 52.5248 49.9282 55C45.641 57.4752 40.359 57.4752 36.0718 55C31.7846 52.5248 29.1436 47.9504 29.1436 43C29.1436 38.0496 31.7846 33.4752 36.0718 31Z" fill="currentColor" fill-opacity="0.25" />
  <path d="M31.7417 62.4999C32.7552 63.0851 33.8029 63.5851 34.8749 64H14C12.3431 64 11 62.6568 11 61V25C11 23.3431 12.3431 22 14 22H29.8009L31.9885 16.2848C32.2848 15.5108 33.0277 14.9997 33.8564 14.9997H52.2647C53.0934 14.9997 53.8363 15.5108 54.1326 16.2848L56.3202 22H64C65.6569 22 67 23.3431 67 25V61C67 62.6568 65.6569 64 64 64H51.1251C52.1971 63.5851 53.2448 63.0851 54.2583 62.4999M31.7417 62.4999C24.775 58.4777 20.4833 51.0444 20.4833 42.9999C20.4833 34.9555 24.775 27.5222 31.7417 23.4999C38.7083 19.4777 47.2917 19.4777 54.2583 23.4999C61.225 27.5222 65.5167 34.9555 65.5167 42.9999C65.5167 51.0444 61.225 58.4777 54.2583 62.4999M31.7417 62.4999C38.7083 66.5222 47.2917 66.5222 54.2583 62.4999M36.4105 45.1387C36.1891 44.4573 36.0718 43.7364 36.0718 42.9987C36.0718 40.524 37.3921 38.2372 39.5353 36.9998C40.6066 36.3813 41.8022 36.0719 42.9979 36.0718M23.9151 21.9999H16.1195L16.6504 19.5726C16.8513 18.6544 17.6643 17.9999 18.6042 17.9999H21.4304C22.3703 17.9999 23.1833 18.6544 23.3842 19.5726L23.9151 21.9999ZM50.8302 14.9999H35.239L36.4646 12.1984C36.783 11.4704 37.5023 10.9999 38.2969 10.9999H47.7723C48.5669 10.9999 49.2862 11.4704 49.6047 12.1984L50.8302 14.9999ZM29.1436 43C29.1436 38.0496 31.7846 33.4752 36.0718 31C40.359 28.5248 45.641 28.5248 49.9282 31C54.2154 33.4752 56.8564 38.0496 56.8564 43C56.8564 47.9504 54.2154 52.5248 49.9282 55C45.641 57.4752 40.359 57.4752 36.0718 55C31.7846 52.5248 29.1436 47.9504 29.1436 43Z" stroke="currentColor" stroke-linecap="round" stroke-linejoin="round" />
</svg>