<svg viewBox="0 0 80 80" fill="none">
  <path fill-rule="evenodd" clip-rule="evenodd" d="M31.9885 16.2848L29.8009 22H14C12.3431 22 11 23.3432 11 25V61C11 62.6569 12.3431 64 14 64H34.8749C33.8029 63.5851 32.7552 63.0851 31.7417 62.5C24.775 58.4777 20.4833 51.0444 20.4833 43C20.4833 34.9555 24.775 27.5222 31.7417 23.5C38.7083 19.4777 47.2917 19.4777 54.2583 23.5C61.225 27.5222 65.5167 34.9555 65.5167 43C65.5167 51.0444 61.225 58.4777 54.2583 62.5C53.2448 63.0851 52.1971 63.5851 51.1251 64H64C65.6569 64 67 62.6569 67 61V25C67 23.3432 65.6569 22 64 22H56.3202L54.1326 16.2848C53.8363 15.5108 53.0934 14.9998 52.2647 14.9998H33.8564C33.0277 14.9998 32.2848 15.5108 31.9885 16.2848Z" fill="currentColor" fill-opacity="0.15" />
  <path d="M29.8009 22V24C30.6296 24 31.3725 23.4889 31.6687 22.715L29.8009 22ZM31.9885 16.2848L33.8564 16.9998V16.9998L31.9885 16.2848ZM34.8749 64V66C35.8378 66 36.6641 65.3138 36.8409 64.3672C37.0177 63.4206 36.4948 62.4824 35.5967 62.1348L34.8749 64ZM31.7417 62.5L32.7417 60.7679L31.7417 62.5ZM31.7417 23.5L30.7417 21.7679L31.7417 23.5ZM54.2583 23.5L53.2583 25.232L54.2583 23.5ZM54.2583 62.5L53.2583 60.7679L53.2583 60.7679L54.2583 62.5ZM51.1251 64L50.4033 62.1348C49.5052 62.4824 48.9823 63.4206 49.1591 64.3672C49.3359 65.3138 50.1622 66 51.1251 66V64ZM56.3202 22L54.4524 22.715C54.7486 23.4889 55.4915 24 56.3202 24V22ZM54.1326 16.2848L56.0004 15.5698V15.5698L54.1326 16.2848ZM31.6687 22.715L33.8564 16.9998L30.1207 15.5698L27.9331 21.285L31.6687 22.715ZM14 24H29.8009V20H14V24ZM13 25C13 24.4477 13.4477 24 14 24V20C11.2386 20 9 22.2386 9 25H13ZM13 61V25H9V61H13ZM14 62C13.4477 62 13 61.5523 13 61H9C9 63.7614 11.2386 66 14 66V62ZM34.8749 62H14V66H34.8749V62ZM35.5967 62.1348C34.6202 61.7569 33.6655 61.3013 32.7417 60.7679L30.7417 64.232C31.8449 64.8689 32.9856 65.4134 34.153 65.8652L35.5967 62.1348ZM32.7417 60.7679C26.3938 57.103 22.4833 50.3299 22.4833 43H18.4833C18.4833 51.7589 23.1562 59.8525 30.7417 64.232L32.7417 60.7679ZM22.4833 43C22.4833 35.6701 26.3938 28.897 32.7417 25.232L30.7417 21.7679C23.1562 26.1474 18.4833 34.241 18.4833 43H22.4833ZM32.7417 25.232C39.0895 21.5671 46.9105 21.5671 53.2583 25.232L55.2583 21.7679C47.6729 17.3884 38.3272 17.3884 30.7417 21.7679L32.7417 25.232ZM53.2583 25.232C59.6062 28.897 63.5167 35.6701 63.5167 43H67.5167C67.5167 34.241 62.8438 26.1474 55.2583 21.7679L53.2583 25.232ZM63.5167 43C63.5167 50.3299 59.6062 57.103 53.2583 60.7679L55.2583 64.232C62.8438 59.8525 67.5167 51.7589 67.5167 43H63.5167ZM53.2583 60.7679C52.3345 61.3013 51.3798 61.7569 50.4033 62.1348L51.847 65.8652C53.0144 65.4134 54.1552 64.8689 55.2583 64.232L53.2583 60.7679ZM64 62H51.1251V66H64V62ZM65 61C65 61.5523 64.5523 62 64 62V66C66.7614 66 69 63.7614 69 61H65ZM65 25V61H69V25H65ZM64 24C64.5523 24 65 24.4477 65 25H69C69 22.2386 66.7614 20 64 20V24ZM56.3202 24H64V20H56.3202V24ZM52.2647 16.9998L54.4524 22.715L58.188 21.285L56.0004 15.5698L52.2647 16.9998ZM52.2647 16.9998L52.2647 16.9998L56.0004 15.5698C55.4079 14.0219 53.9222 12.9998 52.2647 12.9998V16.9998ZM33.8564 16.9998H52.2647V12.9998H33.8564V16.9998ZM33.8564 16.9998L33.8564 16.9998V12.9998C32.1989 12.9998 30.7132 14.0219 30.1207 15.5698L33.8564 16.9998Z" fill="currentColor" />
  <path fill-rule="evenodd" clip-rule="evenodd" d="M23.9151 21.9999H16.1195L16.6504 19.5726C16.8513 18.6544 17.6644 17.9999 18.6042 17.9999H21.4304C22.3703 17.9999 23.1834 18.6544 23.3842 19.5726L23.9151 21.9999Z" fill="currentColor" fill-opacity="0.15" />
  <path d="M23.9151 21.9999V23.9999C24.5206 23.9999 25.0935 23.7257 25.4731 23.254C25.8528 22.7823 25.9983 22.1641 25.8689 21.5726L23.9151 21.9999ZM16.1195 21.9999L14.1657 21.5726C14.0363 22.1641 14.1819 22.7823 14.5615 23.254C14.9412 23.7257 15.514 23.9999 16.1195 23.9999V21.9999ZM16.6504 19.5726L18.6042 19.9999V19.9999L16.6504 19.5726ZM23.3842 19.5726L25.338 19.1452V19.1452L23.3842 19.5726ZM23.9151 19.9999H16.1195V23.9999H23.9151V19.9999ZM14.6966 19.1452L14.1657 21.5726L18.0733 22.4273L18.6042 19.9999L14.6966 19.1452ZM18.6042 15.9999C16.7245 15.9999 15.0983 17.3089 14.6966 19.1452L18.6042 19.9999V15.9999ZM21.4304 15.9999H18.6042V19.9999H21.4304V15.9999ZM25.338 19.1452C24.9363 17.3089 23.3102 15.9999 21.4304 15.9999V19.9999L21.4304 19.9999L25.338 19.1452ZM25.8689 21.5726L25.338 19.1452L21.4304 19.9999L21.9613 22.4273L25.8689 21.5726Z" fill="currentColor" />
  <path fill-rule="evenodd" clip-rule="evenodd" d="M50.8302 14.9999L35.239 14.9999L36.4645 12.1984C36.783 11.4704 37.5022 10.9999 38.2969 10.9999L47.7723 10.9999C48.5669 10.9999 49.2861 11.4704 49.6046 12.1984L50.8302 14.9999Z" fill="currentColor" fill-opacity="0.15" />
  <path d="M50.8302 14.9999V16.9999C51.5051 16.9999 52.1345 16.6595 52.504 16.0947C52.8734 15.5298 52.933 14.8167 52.6625 14.1984L50.8302 14.9999ZM35.239 14.9999L33.4066 14.1984C33.1361 14.8167 33.1957 15.5298 33.5652 16.0947C33.9346 16.6595 34.564 16.9999 35.239 16.9999V14.9999ZM36.4645 12.1984L34.6322 11.3968L34.6322 11.3968L36.4645 12.1984ZM49.6046 12.1984L47.7723 12.9999L47.7723 12.9999L49.6046 12.1984ZM50.8302 12.9999L35.239 12.9999V16.9999L50.8302 16.9999V12.9999ZM34.6322 11.3968L33.4066 14.1984L37.0713 15.8015L38.2969 12.9999L34.6322 11.3968ZM38.2969 8.99994C36.7076 8.99994 35.2691 9.94078 34.6322 11.3968L38.2969 12.9999L38.2969 12.9999V8.99994ZM47.7723 8.99994L38.2969 8.99994V12.9999L47.7723 12.9999V8.99994ZM51.437 11.3968C50.8 9.94077 49.3615 8.99994 47.7723 8.99994V12.9999L47.7723 12.9999L51.437 11.3968ZM52.6625 14.1984L51.437 11.3968L47.7723 12.9999L48.9978 15.8015L52.6625 14.1984Z" fill="currentColor" />
  <path d="M31.7417 23.5C38.7083 19.4778 47.2917 19.4778 54.2583 23.5C61.225 27.5222 65.5167 34.9556 65.5167 43C65.5167 51.0444 61.225 58.4778 54.2583 62.5C47.2917 66.5222 38.7083 66.5222 31.7417 62.5C24.775 58.4778 20.4833 51.0444 20.4833 43C20.4833 34.9556 24.775 27.5222 31.7417 23.5Z" fill="currentColor" fill-opacity="0.15" stroke="currentColor" stroke-width="4" stroke-linecap="round" stroke-linejoin="round" />
  <path d="M36.0718 31C40.359 28.5248 45.641 28.5248 49.9282 31V31C54.2154 33.4752 56.8564 38.0496 56.8564 43V43C56.8564 47.9504 54.2154 52.5248 49.9282 55V55C45.641 57.4752 40.359 57.4752 36.0718 55V55C31.7846 52.5248 29.1436 47.9504 29.1436 43V43C29.1436 38.0496 31.7846 33.4752 36.0718 31V31Z" stroke="currentColor" stroke-width="4" stroke-linecap="round" stroke-linejoin="round" />
  <path d="M39.5353 36.9998L40.5353 38.7319L39.5353 36.9998ZM34.5085 45.7568C34.8498 46.8073 35.9781 47.3822 37.0286 47.0408C38.0791 46.6995 38.654 45.5712 38.3127 44.5207L34.5085 45.7568ZM42.9982 38.0718C44.1027 38.0716 44.998 37.1761 44.9979 36.0715C44.9978 34.967 44.1022 34.0716 42.9977 34.0718L42.9982 38.0718ZM38.0718 42.9987C38.0718 41.2385 39.0109 39.612 40.5353 38.7319L38.5353 35.2678C35.7733 36.8624 34.0718 39.8094 34.0718 42.9987H38.0718ZM38.3127 44.5207C38.1553 44.0363 38.0718 43.5239 38.0718 42.9987H34.0718C34.0718 43.9489 34.223 44.8783 34.5085 45.7568L38.3127 44.5207ZM42.9977 34.0718C41.4572 34.072 39.9159 34.4707 38.5353 35.2678L40.5353 38.7319C41.2974 38.2919 42.1473 38.0719 42.9982 38.0718L42.9977 34.0718Z" fill="currentColor" />
</svg>