<svg viewBox="0 0 80 80" fill="none">
  <path d="M38.4 22.7417C39.5046 22.7417 40.4 21.8463 40.4 20.7417C40.4 19.6371 39.5046 18.7417 38.4 18.7417V22.7417ZM62 42.342C62 41.2374 61.1046 40.342 60 40.342C58.8954 40.342 58 41.2374 58 42.342H62ZM10 22.7417L10 66.7417H14L14 22.7417H10ZM14 70.7417H58V66.7417H14V70.7417ZM38.4 18.7417L14 18.7417V22.7417L38.4 22.7417V18.7417ZM62 66.7417L62 42.342H58L58 66.7417H62ZM58 70.7417C60.2091 70.7417 62 68.9508 62 66.7417H58V66.7417V70.7417ZM10 66.7417C10 68.9508 11.7909 70.7417 14 70.7417V66.7417H10ZM14 22.7417L14 22.7417V18.7417C11.7909 18.7417 10 20.5326 10 22.7417H14Z" fill="currentColor" />
  <path fill-rule="evenodd" clip-rule="evenodd" d="M68.0148 21.8972C68.7946 21.1174 68.7946 19.8532 68.0148 19.0734L62.358 13.4165C61.5756 12.6342 60.3072 12.6342 59.5249 13.4166L30.6999 42.2415C28.1994 44.742 26.5977 48.0005 26.1452 51.5077L25.8375 53.8921L25.7118 54.8664C25.6482 55.3589 26.0677 55.7785 26.5603 55.7149L27.5345 55.5892L29.919 55.2815C33.4262 54.829 36.6847 53.2273 39.1852 50.7268L68.0148 21.8972Z" fill="currentColor" fill-opacity="0.25" />
  <path d="M63.7722 12.0023C62.9911 11.2213 61.7248 11.2213 60.9437 12.0023C60.1627 12.7834 60.1627 14.0497 60.9437 14.8308L63.7722 12.0023ZM25.8375 53.8921L27.821 54.1481L27.821 54.1481L25.8375 53.8921ZM27.5345 55.5892L27.2786 53.6056L27.2786 53.6056L27.5345 55.5892ZM29.919 55.2815L29.6631 53.298L29.919 55.2815ZM26.1452 51.5077L24.1616 51.2517L26.1452 51.5077ZM60.9437 14.8308L66.6006 20.4876L69.429 17.6592L63.7722 12.0023L60.9437 14.8308ZM32.1141 43.6557L60.9391 14.8308L58.1106 12.0023L29.2857 40.8273L32.1141 43.6557ZM27.821 54.1481L28.1287 51.7636L24.1616 51.2517L23.8539 53.6362L27.821 54.1481ZM27.6953 55.1223L27.821 54.1481L23.8539 53.6362L23.7282 54.6104L27.6953 55.1223ZM27.2786 53.6056L26.3044 53.7314L26.8162 57.6985L27.7905 57.5728L27.2786 53.6056ZM29.6631 53.298L27.2786 53.6056L27.7905 57.5728L30.175 57.2651L29.6631 53.298ZM66.6006 20.4829L37.771 49.3126L40.5994 52.141L69.429 23.3114L66.6006 20.4829ZM30.175 57.2651C34.1205 56.756 37.7863 54.9541 40.5994 52.141L37.771 49.3126C35.583 51.5005 32.7319 52.902 29.6631 53.298L30.175 57.2651ZM23.7282 54.6104C23.4969 56.403 25.0237 57.9298 26.8162 57.6985L26.3044 53.7314C27.1118 53.6272 27.7995 54.3149 27.6953 55.1223L23.7282 54.6104ZM29.2857 40.8273C26.4726 43.6404 24.6707 47.3061 24.1616 51.2517L28.1287 51.7636C28.5247 48.6948 29.9262 45.8437 32.1141 43.6557L29.2857 40.8273ZM63.7722 12.0023C62.2088 10.4389 59.674 10.439 58.1106 12.0023L60.9391 14.8308C60.9411 14.8287 60.9418 14.8284 60.9411 14.8289C60.9405 14.8292 60.9398 14.8296 60.9391 14.8299C60.9381 14.8303 60.9389 14.8298 60.9414 14.8298C60.9439 14.8298 60.9447 14.8303 60.9437 14.8299C60.943 14.8296 60.9423 14.8292 60.9417 14.8289C60.941 14.8284 60.9417 14.8287 60.9437 14.8308L63.7722 12.0023ZM66.6006 20.4876C66.6023 20.4893 66.6023 20.4896 66.6016 20.4886C66.601 20.4877 66.6004 20.4866 66.6 20.4855C66.5993 20.4837 66.5996 20.4836 66.5996 20.4853C66.5996 20.4869 66.5993 20.4869 66.6 20.4851C66.6004 20.484 66.601 20.4829 66.6016 20.4819C66.6023 20.4809 66.6023 20.4812 66.6006 20.4829L69.429 23.3114C70.9898 21.7506 70.9898 19.22 69.429 17.6592L66.6006 20.4876Z" fill="currentColor" />
  <path d="M63.7721 12.0023C62.991 11.2212 61.7247 11.2212 60.9436 12.0023C60.1626 12.7833 60.1626 14.0497 60.9436 14.8307L63.7721 12.0023ZM25.8374 53.8921L27.8209 54.148L25.8374 53.8921ZM27.5344 55.5891L27.2785 53.6056L27.5344 55.5891ZM29.9189 55.2815L29.663 53.2979L29.9189 55.2815ZM26.1451 51.5076L24.1615 51.2517L26.1451 51.5076ZM60.9436 14.8307L66.6005 20.4876L69.4289 17.6591L63.7721 12.0023L60.9436 14.8307ZM32.114 43.6557L60.939 14.8307L58.1105 12.0023L29.2856 40.8272L32.114 43.6557ZM27.8209 54.148L28.1286 51.7636L24.1615 51.2517L23.8538 53.6361L27.8209 54.148ZM27.6952 55.1223L27.8209 54.148L23.8538 53.6361L23.7281 54.6104L27.6952 55.1223ZM27.2785 53.6056L26.3043 53.7313L26.8161 57.6984L27.7904 57.5727L27.2785 53.6056ZM29.663 53.2979L27.2785 53.6056L27.7904 57.5727L30.1748 57.265L29.663 53.2979ZM66.6005 20.4829L37.7709 49.3125L40.5993 52.1409L69.4289 23.3113L66.6005 20.4829ZM30.1748 57.265C34.1204 56.7559 37.7862 54.954 40.5993 52.1409L37.7709 49.3125C35.5829 51.5005 32.7317 52.9019 29.663 53.2979L30.1748 57.265ZM23.7281 54.6104C23.4968 56.403 25.0236 57.9297 26.8161 57.6984L26.3043 53.7313C27.1117 53.6271 27.7994 54.3148 27.6952 55.1223L23.7281 54.6104ZM29.2856 40.8272C26.4725 43.6403 24.6706 47.3061 24.1615 51.2517L28.1286 51.7636C28.5246 48.6948 29.926 45.8436 32.114 43.6557L29.2856 40.8272ZM63.7721 12.0023C62.2087 10.4389 59.6739 10.4389 58.1105 12.0023L60.939 14.8307C60.941 14.8287 60.9417 14.8284 60.941 14.8288C60.9404 14.8292 60.9397 14.8296 60.939 14.8298C60.938 14.8303 60.9388 14.8297 60.9413 14.8297C60.9438 14.8297 60.9446 14.8303 60.9436 14.8298C60.9429 14.8296 60.9422 14.8292 60.9416 14.8288C60.9409 14.8284 60.9416 14.8287 60.9436 14.8307L63.7721 12.0023ZM66.6005 20.4876C66.6022 20.4893 66.6022 20.4896 66.6015 20.4886C66.6009 20.4876 66.6003 20.4865 66.5999 20.4855C66.5992 20.4836 66.5995 20.4836 66.5995 20.4852C66.5995 20.4869 66.5992 20.4869 66.5999 20.485C66.6003 20.4839 66.6009 20.4828 66.6015 20.4819C66.6022 20.4809 66.6022 20.4812 66.6005 20.4829L69.4289 23.3113C70.9897 21.7505 70.9897 19.2199 69.4289 17.6591L66.6005 20.4876Z" fill="currentColor" />
  <path d="M52.1465 20.8037L60.6271 29.2843" stroke="currentColor" stroke-width="4" stroke-linejoin="round" />
</svg>