<svg viewBox="0 0 80 80" fill="none">
  <path d="M42 14C43.1046 14 44 13.1046 44 12C44 10.8954 43.1046 10 42 10V14ZM70 36.9117C70 35.8071 69.1046 34.9117 68 34.9117C66.8954 34.9117 66 35.8071 66 36.9117H70ZM10 42C10 43.1046 10.8954 44 12 44C13.1046 44 14 43.1046 14 42H10ZM36.9117 66C35.8071 66 34.9117 66.8954 34.9117 68C34.9117 69.1046 35.8071 70 36.9117 70V66ZM16 14H42V10H16V14ZM66 36.9117V64H70V36.9117H66ZM14 42V16H10V42H14ZM64 66H36.9117V70H64V66ZM66 64C66 65.1046 65.1046 66 64 66V70C67.3137 70 70 67.3137 70 64H66ZM16 10C12.6863 10 10 12.6863 10 16H14C14 14.8954 14.8954 14 16 14V10Z" fill="currentColor" />
  <path fill-rule="evenodd" clip-rule="evenodd" d="M68.4 23.139C69.9604 21.5786 69.9604 19.0488 68.4 17.4884L62.7432 11.8315C61.1793 10.2677 58.6439 10.2677 57.0801 11.8315L18.0553 50.8563C16.7708 52.1408 15.9617 53.8242 15.7611 55.6297L14.9396 63.023L14.7982 64.2957C14.7257 64.9483 15.2771 65.4996 15.9296 65.4271L17.2024 65.2857L24.5956 64.4642C26.4011 64.2636 28.0845 63.4545 29.369 62.17L68.4 23.139Z" fill="currentColor" fill-opacity="0.15" />
  <path d="M64.1574 10.4173C63.3763 9.63628 62.11 9.63628 61.3289 10.4173C60.5479 11.1984 60.5479 12.4647 61.3289 13.2458L64.1574 10.4173ZM14.9396 63.023L16.9274 63.2438L16.9274 63.2438L14.9396 63.023ZM17.2024 65.2857L17.4232 67.2735L17.4232 67.2735L17.2024 65.2857ZM24.5956 64.4642L24.3748 62.4765L24.5956 64.4642ZM15.7611 55.6297L17.7489 55.8506L15.7611 55.6297ZM61.3289 13.2458L66.9858 18.9026L69.8142 16.0742L64.1574 10.4173L61.3289 13.2458ZM19.4695 52.2705L58.4943 13.2458L55.6659 10.4173L16.6411 49.4421L19.4695 52.2705ZM16.9274 63.2438L17.7489 55.8506L13.7733 55.4088L12.9519 62.8021L16.9274 63.2438ZM16.786 64.5166L16.9274 63.2438L12.9519 62.8021L12.8104 64.0749L16.786 64.5166ZM16.9815 63.2979L15.7087 63.4394L16.1504 67.4149L17.4232 67.2735L16.9815 63.2979ZM24.3748 62.4765L16.9815 63.2979L17.4232 67.2735L24.8165 66.452L24.3748 62.4765ZM66.9858 21.7248L27.9548 60.7558L30.7832 63.5842L69.8142 24.5532L66.9858 21.7248ZM24.8165 66.452C27.0733 66.2012 29.1776 65.1899 30.7832 63.5842L27.9548 60.7558C26.9914 61.7192 25.7289 62.326 24.3748 62.4765L24.8165 66.452ZM12.8104 64.0749C12.5964 66.0012 14.2241 67.6289 16.1504 67.4149L15.7087 63.4394C16.33 63.3703 16.855 63.8953 16.786 64.5166L12.8104 64.0749ZM16.6411 49.4421C15.0355 51.0477 14.0241 53.152 13.7733 55.4088L17.7489 55.8506C17.8993 54.4965 18.5062 53.2339 19.4695 52.2705L16.6411 49.4421ZM64.1574 10.4173C61.8125 8.07246 58.0107 8.07246 55.6659 10.4173L58.4943 13.2458C59.2771 12.463 60.5462 12.463 61.3289 13.2458L64.1574 10.4173ZM66.9858 18.9026C67.7651 19.6819 67.7651 20.9455 66.9858 21.7248L69.8142 24.5532C72.1557 22.2118 72.1557 18.4156 69.8142 16.0742L66.9858 18.9026Z" fill="currentColor" />
  <path d="M48.6035 20.3192L59.911 31.6267" stroke="currentColor" stroke-width="4" stroke-linejoin="round" />
</svg>