<svg viewBox="0 0 80 80" fill="none">
  <path fill-rule="evenodd" clip-rule="evenodd" d="M18 58C18 55.7909 19.7909 54 22 54L24 54L56 54L58 54C60.2091 54 62 55.7909 62 58L62 62C62 64.2091 60.2091 66 58 66H56L24 66L22 66C19.7909 66 18 64.2091 18 62L18 58Z" fill="currentColor" fill-opacity="0.15" />
  <path d="M24 54L24 52L24 54ZM56 54L56 56L56 54ZM56 66L56 68L56 66ZM24 66L24 64L24 66ZM18 62L16 62L18 62ZM62 62L64 62L62 62ZM62 58L60 58L62 58ZM22 54L22 56L22 54ZM18 58L16 58L18 58ZM24 52L22 52L22 56L24 56L24 52ZM56 52L24 52L24 56L56 56L56 52ZM58 52L56 52L56 56L58 56L58 52ZM64 62L64 58L60 58L60 62L64 62ZM56 68L58 68L58 64L56 64L56 68ZM24 68L56 68L56 64L24 64L24 68ZM22 68L24 68L24 64L22 64L22 68ZM16 58L16 62L20 62L20 58L16 58ZM22 64C20.8954 64 20 63.1046 20 62L16 62C16 65.3137 18.6863 68 22 68L22 64ZM60 62C60 63.1046 59.1046 64 58 64L58 68C61.3137 68 64 65.3137 64 62L60 62ZM58 56C59.1046 56 60 56.8954 60 58L64 58C64 54.6863 61.3137 52 58 52L58 56ZM22 52C18.6863 52 16 54.6863 16 58L20 58C20 56.8954 20.8954 56 22 56L22 52Z" fill="currentColor" />
  <path d="M38.4 16.1333C39.2 15.0667 40.8 15.0667 41.6 16.1333L61.6 42.8C62.5889 44.1185 61.6481 46 60 46L20 46C18.3519 46 17.4111 44.1185 18.4 42.8L38.4 16.1333Z" fill="currentColor" fill-opacity="0.15" stroke="currentColor" stroke-linecap="square" stroke-linejoin="round" />
</svg>