<svg viewBox="0 0 80 80" fill="none">
  <rect x="12" y="22" width="56" height="36" rx="4" fill="currentColor" fill-opacity="0.15" stroke="currentColor" stroke-width="4" stroke-linecap="round" stroke-linejoin="round" />
  <path d="M69.3015 27.5186C70.1402 26.7997 70.2373 25.5371 69.5184 24.6985C68.7996 23.8598 67.537 23.7627 66.6983 24.4815L69.3015 27.5186ZM45.2063 45.5374L43.9047 44.0189H43.9047L45.2063 45.5374ZM34.7937 45.5374L36.0953 44.0189L34.7937 45.5374ZM13.3016 24.4815C12.4629 23.7626 11.2003 23.8598 10.4815 24.6984C9.76264 25.5371 9.85977 26.7997 10.6984 27.5185L13.3016 24.4815ZM66.6983 24.4815L43.9047 44.0189L46.5079 47.0559L69.3015 27.5186L66.6983 24.4815ZM36.0953 44.0189L13.3016 24.4815L10.6984 27.5185L33.4921 47.0559L36.0953 44.0189ZM43.9047 44.0189C41.6578 45.9449 38.3422 45.9449 36.0953 44.0189L33.4921 47.0559C37.237 50.2659 42.763 50.2659 46.5079 47.0559L43.9047 44.0189Z" fill="currentColor" />
</svg>