<svg viewBox="0 0 80 80" fill="none">
  <path d="M68 31.66C68 30.4923 67.4897 29.383 66.6032 28.623L45.2063 10.2829C42.2104 7.71495 37.7896 7.71495 34.7937 10.2829L13.3968 28.623C12.5102 29.383 12 30.4924 12 31.6601V35.9806C12 37.1483 12.5102 38.2577 13.3968 39.0176L34.7937 57.3577C37.7896 59.9257 42.2104 59.9257 45.2063 57.3577L66.6032 39.0176C67.4897 38.2577 68 37.1483 68 35.9806V31.66Z" fill="currentColor" fill-opacity="0.25" />
  <path d="M12 36.1622C12 37.3299 12.5102 38.4393 13.3968 39.1992L34.7937 57.5394C37.7896 60.1073 42.2104 60.1073 45.2063 57.5394L66.6032 39.1992C67.4897 38.4393 68 37.3299 68 36.1622V68C68 70.2091 66.2091 72 64 72H16C13.7909 72 12 70.2091 12 68V36.1622Z" fill="currentColor" fill-opacity="0.25" />
  <path d="M68 31.66C68 30.4923 67.4897 29.383 66.6032 28.623L45.2063 10.2829C42.2104 7.71495 37.7896 7.71495 34.7937 10.2829L13.3968 28.623C12.5102 29.383 12 30.4924 12 31.6601V35.9806C12 37.1483 12.5102 38.2577 13.3968 39.0176L34.7937 57.3577C37.7896 59.9257 42.2104 59.9257 45.2063 57.3577L66.6032 39.0176C67.4897 38.2577 68 37.1483 68 35.9806V31.66Z" stroke="currentColor" stroke-width="4" stroke-linecap="round" stroke-linejoin="round" />
  <path d="M12 36.1622C12 37.3299 12.5102 38.4393 13.3968 39.1992L34.7937 57.5394C37.7896 60.1073 42.2104 60.1073 45.2063 57.5394L66.6032 39.1992C67.4897 38.4393 68 37.3299 68 36.1622V68C68 70.2091 66.2091 72 64 72H16C13.7909 72 12 70.2091 12 68V36.1622Z" stroke="currentColor" stroke-width="4" stroke-linecap="round" stroke-linejoin="round" />
</svg>