<svg viewBox="0 0 80 80" fill="none">
  <path fill-rule="evenodd" clip-rule="evenodd" d="M68 33.8203V33.8048V31.66C68 30.4923 67.4897 29.383 66.6032 28.623L45.2063 10.2829C42.2104 7.71495 37.7896 7.71495 34.7937 10.2829L13.3968 28.623C12.5102 29.383 12 30.4924 12 31.6601V33.8048V33.8203V33.8358L12 35.9806C12 37.1483 12.5102 38.2577 13.3968 39.0176L34.7937 57.3577C37.7896 59.9257 42.2104 59.9257 45.2063 57.3577L66.6032 39.0176C67.4897 38.2577 68 37.1483 68 35.9806V33.8358V33.8203ZM12 40V36.1622C12 37.3299 12.5102 38.4393 13.3968 39.1992L34.7937 57.5394C37.7896 60.1073 42.2104 60.1073 45.2063 57.5394L66.6032 39.1992C67.4897 38.4393 68 37.3299 68 36.1622V40V54V68C68 70.2091 66.2091 72 64 72H16C13.7909 72 12 70.2091 12 68L12 54L12 40Z" fill="currentColor" fill-opacity="0.15" />
  <path d="M66.6032 28.623L65.3016 30.1415L66.6032 28.623ZM45.2063 10.2829L43.9047 11.8014L43.9047 11.8014L45.2063 10.2829ZM34.7937 10.2829L36.0953 11.8014L34.7937 10.2829ZM13.3968 28.623L14.6984 30.1415L14.6984 30.1415L13.3968 28.623ZM13.3968 39.0176L12.0952 40.5361H12.0953L13.3968 39.0176ZM34.7937 57.3577L33.4921 58.8763L34.7937 57.3577ZM45.2063 57.3577L46.5079 58.8763L45.2063 57.3577ZM66.6032 39.0176L65.3016 37.4991L65.3016 37.4991L66.6032 39.0176ZM14 36.1622C14 35.0576 13.1046 34.1622 12 34.1622C10.8954 34.1622 10 35.0576 10 36.1622H14ZM13.3968 39.1992L14.6984 37.6807L14.6984 37.6807L13.3968 39.1992ZM34.7937 57.5394L33.4921 59.0579L34.7937 57.5394ZM45.2063 57.5394L46.5079 59.0579L45.2063 57.5394ZM66.6032 39.1992L65.3016 37.6807L66.6032 39.1992ZM70 36.1622C70 35.0576 69.1046 34.1622 68 34.1622C66.8954 34.1622 66 35.0576 66 36.1622L70 36.1622ZM66 33.8048V33.8203L70 33.8203V33.8048L66 33.8048ZM66 31.66V33.8048L70 33.8048V31.66L66 31.66ZM65.3016 30.1415C65.7449 30.5215 66 31.0762 66 31.66L70 31.66C70 29.9085 69.2346 28.2444 67.9047 27.1045L65.3016 30.1415ZM43.9047 11.8014L65.3016 30.1415L67.9047 27.1045L46.5079 8.76437L43.9047 11.8014ZM36.0953 11.8014C38.3422 9.87545 41.6578 9.87545 43.9047 11.8014L46.5079 8.76437C42.763 5.55446 37.237 5.55446 33.4921 8.76437L36.0953 11.8014ZM14.6984 30.1415L36.0953 11.8014L33.4921 8.76437L12.0953 27.1045L14.6984 30.1415ZM14 31.6601C14 31.0762 14.2551 30.5215 14.6984 30.1415L12.0953 27.1045C10.7654 28.2444 10 29.9085 10 31.6601H14ZM14 33.8048V31.6601H10V33.8048H14ZM14 33.8203V33.8048H10V33.8203H14ZM14 33.8358V33.8203H10V33.8358H14ZM14 35.9806V33.8358H10V35.9806H14ZM14.6984 37.4991C14.2551 37.1191 14 36.5644 14 35.9806H10C10 37.7321 10.7654 39.3962 12.0952 40.5361L14.6984 37.4991ZM36.0953 55.8392L14.6984 37.4991L12.0953 40.5361L33.4921 58.8763L36.0953 55.8392ZM43.9047 55.8392C41.6578 57.7652 38.3422 57.7652 36.0953 55.8392L33.4921 58.8763C37.237 62.0862 42.763 62.0862 46.5079 58.8763L43.9047 55.8392ZM65.3016 37.4991L43.9047 55.8392L46.5079 58.8763L67.9047 40.5361L65.3016 37.4991ZM66 35.9806C66 36.5644 65.7449 37.1191 65.3016 37.4991L67.9047 40.5361C69.2346 39.3962 70 37.7321 70 35.9806L66 35.9806ZM66 33.8358V35.9806L70 35.9806V33.8358L66 33.8358ZM66 33.8203V33.8358L70 33.8358V33.8203L66 33.8203ZM10 36.1622L10 40H14L14 36.1622H10ZM14.6984 37.6807C14.2551 37.3008 14 36.7461 14 36.1622H10C10 37.9138 10.7654 39.5779 12.0953 40.7178L14.6984 37.6807ZM36.0953 56.0209L14.6984 37.6807L12.0953 40.7178L33.4921 59.0579L36.0953 56.0209ZM43.9047 56.0209C41.6578 57.9468 38.3422 57.9468 36.0953 56.0209L33.4921 59.0579C37.237 62.2678 42.763 62.2678 46.5079 59.0579L43.9047 56.0209ZM65.3016 37.6807L43.9047 56.0209L46.5079 59.0579L67.9047 40.7178L65.3016 37.6807ZM66 36.1622C66 36.7461 65.7449 37.3008 65.3016 37.6807L67.9047 40.7178C69.2346 39.5779 70 37.9138 70 36.1622L66 36.1622ZM70 40V36.1622L66 36.1622V40L70 40ZM70 54V40L66 40V54H70ZM70 68V54H66V68H70ZM64 74C67.3137 74 70 71.3137 70 68H66C66 69.1046 65.1046 70 64 70V74ZM16 74L64 74V70H16V74ZM10 68C10 71.3137 12.6863 74 16 74V70C14.8954 70 14 69.1046 14 68H10ZM10 54L10 68H14L14 54H10ZM10 40L10 54H14L14 40H10Z" fill="currentColor" />
</svg>