<svg viewBox="0 0 80 80" fill="none">
  <path fill-rule="evenodd" clip-rule="evenodd" d="M71.0149 39.9991C69.8845 42.4173 68.4644 44.7177 66.7669 46.8463C60.2707 54.9923 50.4185 59.7368 39.9994 59.7368C29.5803 59.7368 19.7282 54.9923 13.232 46.8463C11.5349 44.7182 10.1151 42.4185 8.98486 40.0009C10.1152 37.5827 11.5353 35.2823 13.2329 33.1537C19.7291 25.0077 29.5812 20.2632 40.0003 20.2632C50.4194 20.2632 60.2715 25.0077 66.7677 33.1537C68.4648 35.2818 69.8846 37.5815 71.0149 39.9991Z" fill="currentColor" fill-opacity="0.15" />
  <path d="M71.0149 39.9991L72.8267 40.846L73.2226 39.999L72.8266 39.1521L71.0149 39.9991ZM66.7669 46.8463L65.2032 45.5993L66.7669 46.8463ZM13.232 46.8463L14.7957 45.5993L14.7957 45.5993L13.232 46.8463ZM8.98486 40.0009L7.17303 39.154L6.77712 40.001L7.17308 40.8479L8.98486 40.0009ZM13.2329 33.1537L14.7965 34.4007L13.2329 33.1537ZM66.7677 33.1537L65.204 34.4007V34.4007L66.7677 33.1537ZM69.203 39.1522C68.1388 41.429 66.8017 43.5949 65.2032 45.5993L68.3305 48.0933C70.1271 45.8405 71.6302 43.4057 72.8267 40.846L69.203 39.1522ZM65.2032 45.5993C59.0865 53.2694 49.8099 57.7368 39.9994 57.7368V61.7368C51.0272 61.7368 61.4548 56.7151 68.3305 48.0933L65.2032 45.5993ZM39.9994 57.7368C30.189 57.7368 20.9124 53.2695 14.7957 45.5993L11.6684 48.0933C18.544 56.7151 28.9717 61.7368 39.9994 61.7368V57.7368ZM14.7957 45.5993C13.1976 43.5954 11.8608 41.43 10.7966 39.1539L7.17308 40.8479C8.36943 43.4069 9.87225 45.841 11.6684 48.0933L14.7957 45.5993ZM11.6692 31.9067C9.87265 34.1595 8.36952 36.5943 7.17303 39.154L10.7967 40.8478C11.861 38.571 13.198 36.4051 14.7965 34.4007L11.6692 31.9067ZM40.0003 18.2632C28.9725 18.2632 18.5449 23.2849 11.6692 31.9067L14.7965 34.4007C20.9132 26.7305 30.1898 22.2632 40.0003 22.2632V18.2632ZM68.3314 31.9067C61.4557 23.2849 51.028 18.2632 40.0003 18.2632V22.2632C49.8107 22.2632 59.0873 26.7306 65.204 34.4007L68.3314 31.9067ZM72.8266 39.1521C71.6303 36.5931 70.1275 34.159 68.3314 31.9067L65.204 34.4007C66.8021 36.4046 68.1389 38.57 69.2031 40.8461L72.8266 39.1521Z" fill="currentColor" />
  <path d="M55.7965 36.8718L53.8466 36.4268V36.4268L55.7965 36.8718ZM32.9492 47.8745L33.8169 46.0726L32.9492 47.8745ZM24.1748 36.8718L26.1247 36.4268L24.1748 36.8718ZM27.3063 23.1517L25.7427 21.9047L25.7427 21.9047L27.3063 23.1517ZM27.8669 22.4861L27.1579 20.616L26.6987 20.7901L26.3723 21.1572L27.8669 22.4861ZM52.0871 22.4667L53.5796 21.1354L53.2526 20.7689L52.7931 20.5955L52.0871 22.4667ZM52.665 23.1517L54.2286 21.9047L54.2286 21.9047L52.665 23.1517ZM47.8899 49.6764C52.8849 47.271 56.5127 42.7219 57.7463 37.3169L53.8466 36.4268C52.8838 40.645 50.0526 44.1953 46.1544 46.0726L47.8899 49.6764ZM32.0814 49.6764C37.0764 52.0819 42.8949 52.0819 47.8899 49.6764L46.1544 46.0726C42.2561 47.9499 37.7152 47.9499 33.8169 46.0726L32.0814 49.6764ZM22.225 37.3169C23.4586 42.7219 27.0864 47.271 32.0814 49.6764L33.8169 46.0726C29.9187 44.1953 27.0875 40.645 26.1247 36.4268L22.225 37.3169ZM25.7427 21.9047C22.286 26.2392 20.9913 31.9118 22.225 37.3169L26.1247 36.4268C25.1619 32.2085 26.1723 27.7814 28.87 24.3987L25.7427 21.9047ZM26.3723 21.1572C26.1564 21.4 25.9464 21.6492 25.7427 21.9047L28.87 24.3987C29.0291 24.1992 29.193 24.0046 29.3616 23.8151L26.3723 21.1572ZM28.576 24.3562C32.1837 22.9884 36.0497 22.2632 40.0027 22.2632V18.2632C35.5595 18.2632 31.2133 19.0785 27.1579 20.616L28.576 24.3562ZM40.0027 22.2632C43.938 22.2632 47.7872 22.982 51.3811 24.3379L52.7931 20.5955C48.7532 19.0712 44.426 18.2632 40.0027 18.2632V22.2632ZM54.2286 21.9047C54.0188 21.6416 53.8023 21.3851 53.5796 21.1354L50.5946 23.798C50.7684 23.9929 50.9374 24.1932 51.1013 24.3987L54.2286 21.9047ZM57.7463 37.3169C58.98 31.9118 57.6853 26.2392 54.2286 21.9047L51.1013 24.3987C53.799 27.7814 54.8094 32.2085 53.8466 36.4268L57.7463 37.3169Z" fill="currentColor" />
  <path d="M33.4665 29.4995C34.0188 28.5429 33.691 27.3197 32.7344 26.7674C31.7778 26.2152 30.5547 26.5429 30.0024 27.4995L33.4665 29.4995ZM34.2194 43.2414C35.1759 43.7938 36.3991 43.4662 36.9516 42.5097C37.504 41.5532 37.1764 40.33 36.2199 39.7776L34.2194 43.2414ZM32.4585 33.2616C32.4585 31.9175 32.8168 30.6249 33.4665 29.4995L30.0024 27.4995C29.0078 29.2223 28.4585 31.2031 28.4585 33.2616H32.4585ZM36.2199 39.7776C33.8923 38.4333 32.4585 35.9496 32.4585 33.2616H28.4585C28.4585 37.3784 30.6545 41.1826 34.2194 43.2414L36.2199 39.7776Z" fill="currentColor" />
</svg>