<svg viewBox="0 0 80 80" fill="none">
  <path d="M56 18C57.1046 18 58 17.1046 58 16C58 14.8954 57.1046 14 56 14V18ZM24 16V14C22.8954 14 22 14.8954 22 16H24ZM22 64C22 65.1046 22.8954 66 24 66C25.1046 66 26 65.1046 26 64H22ZM24 38C22.8954 38 22 38.8954 22 40C22 41.1046 22.8954 42 24 42V38ZM49 42C50.1046 42 51 41.1046 51 40C51 38.8954 50.1046 38 49 38V42ZM56 14L24 14V18L56 18V14ZM22 16V16.5H26V16H22ZM22 63.5V64H26V63.5H22ZM22 16.5L22 40H26L26 16.5H22ZM22 40L22 63.5H26L26 40H22ZM24 42H49V38H24V42Z" fill="currentColor" />
</svg>