<svg viewBox="0 0 80 80" fill="none">
  <path d="M17.5 27C17.5 23.134 20.634 20 24.5 20C28.366 20 31.5 23.134 31.5 27C31.5 30.866 28.366 34 24.5 34C20.634 34 17.5 30.866 17.5 27Z" fill="currentColor" fill-opacity="0.25" />
  <path d="M62.5 20H39.5V40M39.5 60V40M39.5 40H57.4688M24.5 34C20.634 34 17.5 30.866 17.5 27C17.5 23.134 20.634 20 24.5 20C28.366 20 31.5 23.134 31.5 27C31.5 30.866 28.366 34 24.5 34Z" stroke="currentColor" stroke-width="4" stroke-linecap="round" stroke-linejoin="round" />
</svg>