<svg viewBox="0 0 80 80" fill="none">
  <path fill-rule="evenodd" clip-rule="evenodd" d="M31.8694 31H32V64.5V65H68V63V39.5L62.1421 26.4185L48 21L33.8578 26.4185L32 30.5674V30.8694C32 30.9415 31.9415 31 31.8694 31Z" fill="currentColor" fill-opacity="0.25" />
  <path d="M32 31H34C34 29.8954 33.1046 29 32 29V31ZM31.8694 29C30.7648 29 29.8694 29.8954 29.8694 31C29.8694 32.1046 30.7648 33 31.8694 33V29ZM32 65H30C30 66.1046 30.8954 67 32 67V65ZM68 65V67C69.1045 67 70 66.1046 70 65H68ZM68 39.5H70C70 39.2183 69.9405 38.9397 69.8253 38.6826L68 39.5ZM62.1421 26.4185L63.9675 25.6011C63.7511 25.118 63.352 24.7403 62.8577 24.5509L62.1421 26.4185ZM48 21L48.7156 19.1324C48.2548 18.9559 47.7451 18.9559 47.2844 19.1324L48 21ZM33.8578 26.4185L33.1423 24.5509C32.6479 24.7403 32.2489 25.118 32.0325 25.6011L33.8578 26.4185ZM32 30.5674L30.1746 29.75C30.0595 30.0071 30 30.2857 30 30.5674H32ZM32 29H31.8694V33H32V29ZM34 64.5V31H30V64.5H34ZM34 65V64.5H30V65H34ZM68 63H32V67H68V63ZM66 63V65H70V63H66ZM66 39.5V63H70V39.5H66ZM60.3168 27.2359L66.1746 40.3174L69.8253 38.6826L63.9675 25.6011L60.3168 27.2359ZM47.2844 22.8676L61.4265 28.2861L62.8577 24.5509L48.7156 19.1324L47.2844 22.8676ZM34.5734 28.2861L48.7156 22.8676L47.2844 19.1324L33.1423 24.5509L34.5734 28.2861ZM33.8253 31.3848L35.6832 27.2359L32.0325 25.6011L30.1746 29.75L33.8253 31.3848ZM30 30.5674V30.8694H34V30.5674H30ZM30 30.8694C30 29.837 30.8369 29 31.8694 29V33C33.0461 33 34 32.0461 34 30.8694H30Z" fill="currentColor" />
  <path d="M12 65H32V64.5V31H12V64.5V65Z" fill="currentColor" fill-opacity="0.25" stroke="currentColor" stroke-width="4" stroke-linecap="round" stroke-linejoin="round" />
  <path d="M31.8694 31H12.1229C12.055 31 12 30.945 12 30.8771V25.2426C12 22.5261 13.0791 19.9209 15 18L15.1716 17.8284C16.9826 16.0174 19.4388 15 22 15C24.5612 15 27.0174 16.0174 28.8284 17.8284L29 18C30.9209 19.9209 32 22.5261 32 25.2426V30.8694C32 30.9415 31.9415 31 31.8694 31Z" fill="currentColor" fill-opacity="0.25" stroke="currentColor" stroke-width="4" stroke-linecap="round" stroke-linejoin="round" />
  <rect x="42" y="54" width="12" height="11" fill="currentColor" fill-opacity="0.25" stroke="currentColor" stroke-width="4" stroke-linecap="round" stroke-linejoin="round" />
  <rect x="45" y="38" width="6" height="6" fill="currentColor" fill-opacity="0.25" stroke="currentColor" stroke-width="4" stroke-linecap="round" stroke-linejoin="round" />
</svg>