<svg viewBox="0 0 80 80" fill="none">
  <path fill-rule="evenodd" clip-rule="evenodd" d="M44.9609 34.2705C43.7158 32.8287 41.9051 32 40.0001 32C38.0951 32 36.2843 32.8287 35.0392 34.2705L34.9196 34.409C34.3127 35.1117 33.8527 35.9287 33.5666 36.812L28.1608 53.5036C28.0815 53.7487 28.2642 54 28.5218 54H35.1421L35.1421 66C35.1421 67.1046 36.0375 68 37.1421 68H43.1421C44.2467 68 45.1421 67.1046 45.1421 66L45.1421 54H51.4783C51.736 54 51.9187 53.7487 51.8393 53.5036L46.4335 36.812C46.1474 35.9287 45.6874 35.1117 45.0806 34.409L44.9609 34.2705Z" fill="currentColor" fill-opacity="0.15" />
  <path d="M44.9609 34.2705L43.4473 35.5777L43.4473 35.5777L44.9609 34.2705ZM35.0392 34.2705L33.5256 32.9632L33.5256 32.9632L35.0392 34.2705ZM34.9196 34.409L36.4332 35.7163L36.4332 35.7163L34.9196 34.409ZM33.5666 36.812L31.6639 36.1958L31.6639 36.1958L33.5666 36.812ZM28.1608 53.5036L26.2581 52.8874H26.2581L28.1608 53.5036ZM35.1421 54H37.1421C37.1421 52.8954 36.2467 52 35.1421 52V54ZM45.1421 54V52C44.0375 52 43.1421 52.8954 43.1421 54H45.1421ZM51.8393 53.5036L53.742 52.8874L53.742 52.8874L51.8393 53.5036ZM46.4335 36.812L48.3362 36.1958V36.1958L46.4335 36.812ZM45.0806 34.409L46.5942 33.1018L46.5942 33.1018L45.0806 34.409ZM40.0001 34C41.3238 34 42.5821 34.5759 43.4473 35.5777L46.4746 32.9632C44.8495 31.0816 42.4863 30 40.0001 30V34ZM36.5529 35.5777C37.4181 34.5759 38.6763 34 40.0001 34V30C37.5139 30 35.1506 31.0816 33.5256 32.9632L36.5529 35.5777ZM36.4332 35.7163L36.5529 35.5777L33.5256 32.9632L33.4059 33.1018L36.4332 35.7163ZM35.4693 37.4282C35.6731 36.799 36.0009 36.2169 36.4332 35.7163L33.4059 33.1018C32.6246 34.0065 32.0323 35.0585 31.6639 36.1958L35.4693 37.4282ZM30.0635 54.1199L35.4693 37.4282L31.6639 36.1958L26.2581 52.8874L30.0635 54.1199ZM28.5218 52C29.6221 52 30.4025 53.0731 30.0635 54.1199L26.2581 52.8874C25.7604 54.4244 26.9063 56 28.5218 56V52ZM35.1421 52H28.5218V56H35.1421V52ZM37.1421 66L37.1421 54H33.1421L33.1421 66H37.1421ZM37.1421 66H33.1421C33.1421 68.2091 34.933 70 37.1421 70V66ZM43.1421 66H37.1421V70H43.1421V66ZM43.1421 66V70C45.3512 70 47.1421 68.2091 47.1421 66H43.1421ZM43.1421 54L43.1421 66H47.1421L47.1421 54H43.1421ZM51.4783 52H45.1421V56H51.4783V52ZM49.9366 54.1199C49.5976 53.0731 50.378 52 51.4783 52V56C53.0939 56 54.2398 54.4244 53.742 52.8874L49.9366 54.1199ZM44.5308 37.4282L49.9366 54.1199L53.742 52.8874L48.3362 36.1958L44.5308 37.4282ZM43.5669 35.7163C43.9993 36.2169 44.327 36.799 44.5308 37.4282L48.3362 36.1958C47.9679 35.0585 47.3756 34.0065 46.5942 33.1018L43.5669 35.7163ZM43.4473 35.5777L43.567 35.7163L46.5942 33.1018L46.4746 32.9632L43.4473 35.5777Z" fill="currentColor" />
  <path d="M37.0148 26.494C38.991 27.4457 41.2931 27.4457 43.2694 26.494C45.2457 25.5422 46.681 23.7424 47.1691 21.6039C47.6572 19.4654 47.145 17.221 45.7773 15.506C44.4097 13.7911 42.3356 12.7922 40.1421 12.7922C37.9486 12.7922 35.8745 13.7911 34.5068 15.506C33.1392 17.221 32.627 19.4654 33.1151 21.6039C33.6032 23.7424 35.0385 25.5422 37.0148 26.494Z" fill="currentColor" fill-opacity="0.15" stroke="currentColor" stroke-width="4" stroke-linecap="round" stroke-linejoin="round" />
</svg>