<svg viewBox="0 0 80 80" fill="none">
  <rect x="12" y="20" width="10" height="8" stroke="currentColor" stroke-width="4" stroke-linecap="round" stroke-linejoin="round" />
  <rect x="12" y="44" width="10" height="8" stroke="currentColor" stroke-width="4" stroke-linecap="round" stroke-linejoin="round" />
  <rect x="12" y="28" width="10" height="8" stroke="currentColor" stroke-width="4" stroke-linecap="round" stroke-linejoin="round" />
  <rect x="12" y="52" width="10" height="8" stroke="currentColor" stroke-width="4" stroke-linecap="round" stroke-linejoin="round" />
  <path d="M22 68V60H12L12 68" stroke="currentColor" stroke-width="4" stroke-linecap="round" stroke-linejoin="round" />
  <path d="M12 12L12 20H22V12" stroke="currentColor" stroke-width="4" stroke-linecap="round" stroke-linejoin="round" />
  <rect x="12" y="36" width="10" height="8" stroke="currentColor" stroke-width="4" stroke-linecap="round" stroke-linejoin="round" />
  <rect x="58" y="20" width="10" height="8" stroke="currentColor" stroke-width="4" stroke-linecap="round" stroke-linejoin="round" />
  <rect x="58" y="44" width="10" height="8" stroke="currentColor" stroke-width="4" stroke-linecap="round" stroke-linejoin="round" />
  <rect x="58" y="28" width="10" height="8" stroke="currentColor" stroke-width="4" stroke-linecap="round" stroke-linejoin="round" />
  <rect x="58" y="52" width="10" height="8" stroke="currentColor" stroke-width="4" stroke-linecap="round" stroke-linejoin="round" />
  <path d="M68 68V60H58V68" stroke="currentColor" stroke-width="4" stroke-linecap="round" stroke-linejoin="round" />
  <path d="M58 12V20H68V12" stroke="currentColor" stroke-width="4" stroke-linecap="round" stroke-linejoin="round" />
  <rect x="58" y="36" width="10" height="8" stroke="currentColor" stroke-width="4" stroke-linecap="round" stroke-linejoin="round" />
  <path fill-rule="evenodd" clip-rule="evenodd" d="M58 12L22 12L22 68H58L58 12Z" fill="currentColor" fill-opacity="0.25" />
  <path d="M22 12V10C20.8954 10 20 10.8954 20 12H22ZM58 12H60C60 10.8954 59.1046 10 58 10V12ZM22 68H20C20 69.1046 20.8954 70 22 70V68ZM58 68V70C59.1046 70 60 69.1046 60 68H58ZM58 42H60V38H58V42ZM22 38H20V42H22V38ZM22 14L58 14V10L22 10V14ZM24 68L24 12H20L20 68H24ZM58 66H22L22 70H58V66ZM56 12L56 68H60L60 12H56ZM58 38L22 38V42L58 42V38Z" fill="currentColor" />
</svg>