<svg viewBox="0 0 80 80" fill="none">
  <path fill-rule="evenodd" clip-rule="evenodd" d="M11.5147 48.5147C9.26427 50.7651 8 53.8173 8 56.9999C8 60.1825 9.26436 63.2348 11.5148 65.4853C13.7652 67.7357 16.8175 69 20 69H40H60C63.1825 69 66.2348 67.7357 68.4852 65.4853C70.7356 63.2348 72 60.1825 72 56.9999C72 53.8173 70.7357 50.7651 68.4853 48.5147C66.2349 46.2643 63.1826 45 60 45C56.8174 45 53.7651 46.2643 51.5147 48.5147C50.9451 49.0842 50.4387 49.7052 50 50.3666C49.5613 49.7052 49.0549 49.0842 48.4853 48.5147C46.2349 46.2643 43.1826 45 40 45C36.8174 45 33.7651 46.2643 31.5147 48.5147C30.9451 49.0842 30.4387 49.7052 30 50.3666C29.5613 49.7052 29.0549 49.0842 28.4853 48.5147C26.2349 46.2643 23.1826 45 20 45C16.8174 45 13.7651 46.2643 11.5147 48.5147Z" fill="currentColor" fill-opacity="0.15" />
  <path d="M11.5147 48.5147L10.1005 47.1005V47.1005L11.5147 48.5147ZM11.5148 65.4853L10.1006 66.8995H10.1006L11.5148 65.4853ZM68.4852 65.4853L69.8994 66.8995L68.4852 65.4853ZM68.4853 48.5147L69.8995 47.1005L68.4853 48.5147ZM51.5147 48.5147L50.1005 47.1005V47.1005L51.5147 48.5147ZM50 50.3666L48.3333 51.4721L50 53.9847L51.6667 51.4721L50 50.3666ZM48.4853 48.5147L47.0711 49.9289L47.0711 49.9289L48.4853 48.5147ZM31.5147 48.5147L30.1005 47.1005L30.1005 47.1005L31.5147 48.5147ZM30 50.3666L28.3333 51.4721L30 53.9847L31.6667 51.4721L30 50.3666ZM28.4853 48.5147L29.8995 47.1005V47.1005L28.4853 48.5147ZM10 56.9999C10 54.3477 11.0536 51.8042 12.9289 49.9289L10.1005 47.1005C7.47497 49.7259 6 53.2869 6 56.9999H10ZM12.929 64.0711C11.0536 62.1957 10 59.652 10 56.9999H6C6 60.7129 7.47508 64.274 10.1006 66.8995L12.929 64.0711ZM20 67C17.3479 67 14.8043 65.9464 12.929 64.0711L10.1006 66.8995C12.726 69.5249 16.287 71 20 71V67ZM40 67H20V71H40V67ZM60 67H40V71H60V67ZM67.071 64.0711C65.1957 65.9464 62.6521 67 60 67V71C63.713 71 67.274 69.5249 69.8994 66.8995L67.071 64.0711ZM70 56.9999C70 59.652 68.9464 62.1957 67.071 64.0711L69.8994 66.8995C72.5249 64.274 74 60.7129 74 56.9999H70ZM67.0711 49.9289C68.9464 51.8042 70 54.3477 70 56.9999H74C74 53.2869 72.525 49.7259 69.8995 47.1005L67.0711 49.9289ZM60 47C62.6521 47 65.1958 48.0536 67.0711 49.9289L69.8995 47.1005C67.274 44.475 63.713 43 60 43V47ZM52.9289 49.9289C54.8042 48.0536 57.3479 47 60 47V43C56.287 43 52.726 44.475 50.1005 47.1005L52.9289 49.9289ZM51.6667 51.4721C52.0322 50.921 52.4542 50.4036 52.9289 49.9289L50.1005 47.1005C49.436 47.7649 48.8452 48.4893 48.3333 49.261L51.6667 51.4721ZM47.0711 49.9289C47.5458 50.4036 47.9678 50.921 48.3333 51.4721L51.6667 49.261C51.1548 48.4893 50.564 47.7649 49.8995 47.1005L47.0711 49.9289ZM40 47C42.6521 47 45.1958 48.0536 47.0711 49.9289L49.8995 47.1005C47.274 44.475 43.713 43 40 43V47ZM32.9289 49.9289C34.8042 48.0536 37.3478 47 40 47V43C36.287 43 32.726 44.475 30.1005 47.1005L32.9289 49.9289ZM31.6667 51.4721C32.0322 50.921 32.4542 50.4036 32.9289 49.9289L30.1005 47.1005C29.436 47.7649 28.8452 48.4893 28.3333 49.261L31.6667 51.4721ZM27.0711 49.9289C27.5458 50.4036 27.9678 50.921 28.3333 51.4721L31.6667 49.261C31.1548 48.4893 30.564 47.7649 29.8995 47.1005L27.0711 49.9289ZM20 47C22.6522 47 25.1958 48.0536 27.0711 49.9289L29.8995 47.1005C27.274 44.475 23.713 43 20 43V47ZM12.9289 49.9289C14.8042 48.0536 17.3478 47 20 47V43C16.287 43 12.726 44.475 10.1005 47.1005L12.9289 49.9289Z" fill="currentColor" />
  <path fill-rule="evenodd" clip-rule="evenodd" d="M41.5638 3.78906C40.3955 4.21579 39.1562 4.49513 37.8684 4.60459L36.6793 6.31274C41.3323 9.33626 43.1631 15.914 39.573 21.0709L34.3208 28.6154C35.9167 29.6525 37.8448 30.2714 40 30.2714C48.4387 30.2714 53.3944 20.783 48.573 13.8573L41.5638 3.78906ZM20 44.6358C20 38.4339 23.9304 33.15 29.4362 31.1391L30.9605 33.3287C30.9797 33.3562 31.0204 33.3562 31.0395 33.3287L33.1316 30.3236C33.5379 30.2891 33.9491 30.2714 34.3643 30.2714H45.6356C53.5689 30.2714 60 36.7026 60 44.6358C60 44.7576 59.9985 44.879 59.9955 45.0001C56.8145 45.0013 53.764 46.2655 51.5147 48.5148C50.9451 49.0844 50.4387 49.7053 50 50.3667C49.5613 49.7053 49.0549 49.0844 48.4853 48.5148C46.2349 46.2644 43.1826 45.0001 40 45.0001C36.8174 45.0001 33.7651 46.2644 31.5147 48.5148C30.9451 49.0844 30.4387 49.7053 30 50.3667C29.5613 49.7053 29.0549 49.0844 28.4853 48.5148C26.236 46.2655 23.1855 45.0013 20.0045 45.0001C20.0015 44.879 20 44.7576 20 44.6358Z" fill="currentColor" fill-opacity="0.15" />
  <path d="M37.8684 4.60459L37.699 2.61177C37.1064 2.66215 36.5669 2.97372 36.227 3.46189L37.8684 4.60459ZM41.5638 3.78906L43.2052 2.64636C42.6864 1.90111 41.7306 1.59891 40.8777 1.91044L41.5638 3.78906ZM36.6793 6.31274L35.0378 5.17004C34.7285 5.61446 34.6125 6.16534 34.7165 6.69676C34.8205 7.22819 35.1355 7.69475 35.5895 7.98979L36.6793 6.31274ZM39.573 21.0709L41.2144 22.2136L39.573 21.0709ZM34.3208 28.6154L32.6793 27.4727C32.37 27.9172 32.254 28.468 32.358 28.9995C32.4619 29.5309 32.777 29.9974 33.231 30.2925L34.3208 28.6154ZM48.573 13.8573L46.9316 15L48.573 13.8573ZM29.4362 31.1391L31.0776 29.9964C30.5588 29.2512 29.603 28.949 28.75 29.2605L29.4362 31.1391ZM30.9605 33.3287L29.3191 34.4714L29.3191 34.4714L30.9605 33.3287ZM31.0395 33.3287L32.6809 34.4714L32.6809 34.4714L31.0395 33.3287ZM33.1316 30.3236L32.9622 28.3308C32.3695 28.3811 31.83 28.6927 31.4902 29.1809L33.1316 30.3236ZM59.9955 45.0001L59.9962 47.0001C61.0811 46.9997 61.9678 46.1344 61.9948 45.0499L59.9955 45.0001ZM51.5147 48.5148L50.1005 47.1006L50.1005 47.1006L51.5147 48.5148ZM50 50.3667L48.3333 51.4722C48.7039 52.0308 49.3297 52.3667 50 52.3667C50.6704 52.3667 51.2961 52.0308 51.6667 51.4722L50 50.3667ZM48.4853 48.5148L47.0711 49.929L47.0711 49.929L48.4853 48.5148ZM31.5147 48.5148L30.1005 47.1006L30.1005 47.1006L31.5147 48.5148ZM30 50.3667L28.3333 51.4722C28.7039 52.0308 29.3296 52.3667 30 52.3667C30.6704 52.3667 31.2961 52.0308 31.6667 51.4722L30 50.3667ZM28.4853 48.5148L27.0711 49.929H27.0711L28.4853 48.5148ZM20.0045 45.0001L18.0052 45.0499C18.0322 46.1344 18.9189 46.9997 20.0038 47.0001L20.0045 45.0001ZM38.0378 6.5974C39.5044 6.47275 40.9173 6.15441 42.25 5.66768L40.8777 1.91044C39.8736 2.27717 38.808 2.51752 37.699 2.61177L38.0378 6.5974ZM38.3207 7.45544L39.5098 5.74729L36.227 3.46189L35.0378 5.17004L38.3207 7.45544ZM41.2144 22.2136C45.5033 16.0529 43.2889 8.22247 37.769 4.63569L35.5895 7.98979C39.3758 10.45 40.8228 15.7752 37.9316 19.9282L41.2144 22.2136ZM35.9622 29.7581L41.2144 22.2136L37.9316 19.9282L32.6793 27.4727L35.9622 29.7581ZM40 28.2714C38.2384 28.2714 36.6879 27.7684 35.4105 26.9384L33.231 30.2925C35.1456 31.5366 37.4511 32.2714 40 32.2714V28.2714ZM46.9316 15C50.8299 20.5996 46.823 28.2714 40 28.2714V32.2714C50.0544 32.2714 55.959 20.9663 50.2144 12.7146L46.9316 15ZM39.9224 4.93176L46.9316 15L50.2144 12.7146L43.2052 2.64636L39.9224 4.93176ZM28.75 29.2605C22.4806 31.5503 18 37.5673 18 44.6358H22C22 39.3006 25.3802 34.7497 30.1223 33.0177L28.75 29.2605ZM32.6019 32.186L31.0776 29.9964L27.7948 32.2818L29.3191 34.4714L32.6019 32.186ZM29.3981 32.186C30.1747 31.0705 31.8253 31.0705 32.6019 32.186L29.3191 34.4714C30.134 35.642 31.866 35.642 32.6809 34.4714L29.3981 32.186ZM31.4902 29.1809L29.3981 32.186L32.6809 34.4714L34.773 31.4663L31.4902 29.1809ZM34.3643 28.2714C33.8925 28.2714 33.4248 28.2915 32.9622 28.3308L33.301 32.3164C33.651 32.2866 34.0057 32.2714 34.3643 32.2714V28.2714ZM45.6356 28.2714H34.3643V32.2714H45.6356V28.2714ZM62 44.6358C62 35.598 54.6734 28.2714 45.6356 28.2714V32.2714C52.4643 32.2714 58 37.8071 58 44.6358H62ZM61.9948 45.0499C61.9983 44.9123 62 44.7742 62 44.6358H58C58 44.741 57.9987 44.8458 57.9961 44.9504L61.9948 45.0499ZM59.9947 43.0001C56.2837 43.0015 52.7247 44.4763 50.1005 47.1006L52.9289 49.929C54.8033 48.0546 57.3454 47.0011 59.9962 47.0001L59.9947 43.0001ZM50.1005 47.1006C49.436 47.765 48.8452 48.4894 48.3333 49.2612L51.6667 51.4722C52.0322 50.9211 52.4542 50.4037 52.9289 49.929L50.1005 47.1006ZM51.6667 49.2612C51.1548 48.4894 50.564 47.765 49.8995 47.1006L47.0711 49.929C47.5458 50.4037 47.9678 50.9211 48.3333 51.4722L51.6667 49.2612ZM49.8995 47.1006C47.274 44.4751 43.713 43.0001 40 43.0001V47.0001C42.6522 47.0001 45.1958 48.0537 47.0711 49.929L49.8995 47.1006ZM40 43.0001C36.287 43.0001 32.726 44.4751 30.1005 47.1006L32.9289 49.929C34.8042 48.0537 37.3479 47.0001 40 47.0001V43.0001ZM30.1005 47.1006C29.436 47.765 28.8452 48.4894 28.3333 49.2612L31.6667 51.4722C32.0322 50.9211 32.4542 50.4037 32.9289 49.929L30.1005 47.1006ZM31.6667 49.2612C31.1548 48.4894 30.564 47.765 29.8995 47.1006L27.0711 49.929C27.5458 50.4037 27.9678 50.9211 28.3333 51.4722L31.6667 49.2612ZM29.8995 47.1006C27.2753 44.4763 23.7163 43.0015 20.0053 43.0001L20.0038 47.0001C22.6546 47.0011 25.1967 48.0546 27.0711 49.929L29.8995 47.1006ZM18 44.6358C18 44.7742 18.0017 44.9122 18.0052 45.0499L22.0039 44.9503C22.0013 44.8458 22 44.741 22 44.6358H18Z" fill="currentColor" />
  <path fill-rule="evenodd" clip-rule="evenodd" d="M39.5731 30.3049C42.5352 26.05 41.807 20.8279 38.848 17.4329L39.9723 15.9498C39.9862 15.9315 40.0138 15.9315 40.0277 15.9498L45.5426 23.225C49.0149 27.8055 45.7478 34.3817 40 34.3817C38.9601 34.3817 38.0014 34.1665 37.1491 33.7867L39.5731 30.3049ZM30.9606 42.5627L27.8412 38.082C26.685 39.6242 26 41.5401 26 43.616C26 44.8126 26.2276 45.9561 26.6419 47.0055C27.3002 47.4429 27.9183 47.9474 28.4854 48.5146C29.055 49.0841 29.5613 49.7051 30.0001 50.3665C30.4388 49.7051 30.9452 49.0841 31.5147 48.5146C33.7651 46.2642 36.8175 44.9999 40.0001 44.9999C43.1826 44.9999 46.235 46.2642 48.4854 48.5146C49.055 49.0841 49.5613 49.7051 50.0001 50.3665C50.4388 49.7051 50.9452 49.0841 51.5147 48.5146C52.0818 47.9475 52.6998 47.443 53.358 47.0056C53.7724 45.9562 54 44.8127 54 43.616C54 38.5161 49.8657 34.3818 44.7658 34.3818H36.7349L31.0396 42.5627C31.0204 42.5902 30.9797 42.5902 30.9606 42.5627Z" fill="currentColor" fill-opacity="0.15" />
  <path d="M38.848 17.4329L37.2542 16.2247C36.6819 16.9798 36.7178 18.0328 37.3403 18.747L38.848 17.4329ZM39.5731 30.3049L41.2145 31.4476L41.2145 31.4476L39.5731 30.3049ZM39.9723 15.9498L41.5662 17.158L41.5662 17.1579L39.9723 15.9498ZM40.0277 15.9498L38.4338 17.1579L38.4338 17.158L40.0277 15.9498ZM45.5426 23.225L47.1365 22.0168V22.0168L45.5426 23.225ZM37.1491 33.7867L35.5077 32.644C35.1671 33.1334 35.0625 33.7492 35.2225 34.3236C35.3826 34.8979 35.7905 35.3709 36.3352 35.6136L37.1491 33.7867ZM27.8412 38.082L29.4827 36.9393C29.1158 36.4124 28.5184 36.0936 27.8764 36.0823C27.2345 36.071 26.6262 36.3686 26.241 36.8823L27.8412 38.082ZM30.9606 42.5627L32.602 41.4201L32.602 41.42L30.9606 42.5627ZM26.6419 47.0055L24.7817 47.74C24.9317 48.1201 25.1946 48.4451 25.535 48.6713L26.6419 47.0055ZM28.4854 48.5146L29.8996 47.1004L29.8996 47.1004L28.4854 48.5146ZM30.0001 50.3665L28.3334 51.472C28.7039 52.0306 29.3297 52.3665 30.0001 52.3665C30.6704 52.3665 31.2962 52.0306 31.6667 51.472L30.0001 50.3665ZM31.5147 48.5146L32.9289 49.9288H32.9289L31.5147 48.5146ZM48.4854 48.5146L47.0712 49.9288L47.0712 49.9288L48.4854 48.5146ZM50.0001 50.3665L48.3334 51.472C48.7039 52.0306 49.3297 52.3665 50.0001 52.3665C50.6704 52.3665 51.2962 52.0306 51.6667 51.472L50.0001 50.3665ZM51.5147 48.5146L50.1005 47.1004L50.1005 47.1004L51.5147 48.5146ZM53.358 47.0056L54.465 48.6714C54.8053 48.4452 55.0682 48.1202 55.2183 47.7401L53.358 47.0056ZM36.7349 34.3818V32.3818C36.0805 32.3818 35.4674 32.7019 35.0935 33.239L36.7349 34.3818ZM31.0396 42.5627L29.3982 41.42L29.3981 41.42L31.0396 42.5627ZM37.3403 18.747C39.7549 21.5174 40.3208 25.7304 37.9317 29.1622L41.2145 31.4476C44.7496 26.3697 43.8591 20.1384 40.3558 16.1188L37.3403 18.747ZM38.3785 14.7416L37.2542 16.2247L40.4419 18.6411L41.5662 17.158L38.3785 14.7416ZM41.6215 14.7416C40.8073 13.6675 39.1927 13.6675 38.3785 14.7416L41.5662 17.1579C40.7798 18.1954 39.2202 18.1954 38.4338 17.1579L41.6215 14.7416ZM47.1365 22.0168L41.6215 14.7416L38.4338 17.158L43.9488 24.4332L47.1365 22.0168ZM40 36.3817C47.4006 36.3817 51.6072 27.9144 47.1365 22.0168L43.9488 24.4332C46.4226 27.6965 44.095 32.3817 40 32.3817V36.3817ZM36.3352 35.6136C37.4436 36.1075 38.6797 36.3817 40 36.3817V32.3817C39.2405 32.3817 38.5592 32.2255 37.9631 31.9599L36.3352 35.6136ZM37.9317 29.1622L35.5077 32.644L38.7906 34.9294L41.2145 31.4476L37.9317 29.1622ZM26.1998 39.2247L29.3192 43.7054L32.602 41.42L29.4827 36.9393L26.1998 39.2247ZM28 43.616C28 41.9874 28.5358 40.4897 29.4414 39.2817L26.241 36.8823C24.8342 38.7587 24 41.0928 24 43.616H28ZM28.5022 46.2711C28.1787 45.4517 28 44.5571 28 43.616H24C24 45.0681 24.2765 46.4606 24.7817 47.74L28.5022 46.2711ZM29.8996 47.1004C29.238 46.4388 28.5169 45.8502 27.7489 45.3398L25.535 48.6713C26.0835 49.0357 26.5985 49.4561 27.0712 49.9288L29.8996 47.1004ZM31.6667 49.2609C31.1548 48.4892 30.564 47.7648 29.8996 47.1004L27.0712 49.9288C27.5459 50.4035 27.9678 50.9209 28.3334 51.472L31.6667 49.2609ZM30.1005 47.1004C29.4361 47.7648 28.8453 48.4892 28.3334 49.2609L31.6667 51.472C32.0323 50.9209 32.4542 50.4035 32.9289 49.9288L30.1005 47.1004ZM40.0001 42.9999C36.2871 42.9999 32.726 44.4749 30.1005 47.1004L32.9289 49.9288C34.8043 48.0535 37.3479 46.9999 40.0001 46.9999V42.9999ZM49.8996 47.1004C47.2741 44.4749 43.713 42.9999 40.0001 42.9999V46.9999C42.6522 46.9999 45.1959 48.0535 47.0712 49.9288L49.8996 47.1004ZM51.6667 49.2609C51.1549 48.4892 50.564 47.7648 49.8996 47.1004L47.0712 49.9288C47.5459 50.4035 47.9678 50.9209 48.3334 51.472L51.6667 49.2609ZM50.1005 47.1004C49.4361 47.7648 48.8453 48.4892 48.3334 49.2609L51.6667 51.472C52.0323 50.9209 52.4542 50.4035 52.9289 49.9288L50.1005 47.1004ZM52.2511 45.3399C51.4831 45.8503 50.762 46.4388 50.1005 47.1004L52.9289 49.9288C53.4016 49.4562 53.9166 49.0358 54.465 48.6714L52.2511 45.3399ZM52 43.616C52 44.5571 51.8213 45.4518 51.4978 46.2712L55.2183 47.7401C55.7234 46.4606 56 45.0682 56 43.616H52ZM44.7658 36.3818C48.7611 36.3818 52 39.6206 52 43.616H56C56 37.4115 50.9703 32.3818 44.7658 32.3818V36.3818ZM36.7349 36.3818H44.7658V32.3818H36.7349V36.3818ZM32.681 43.7054L38.3763 35.5245L35.0935 33.239L29.3982 41.42L32.681 43.7054ZM29.3191 43.7053C30.134 44.876 31.8661 44.876 32.681 43.7054L29.3981 41.42C30.1747 40.3045 31.8254 40.3044 32.602 41.4201L29.3191 43.7053Z" fill="currentColor" />
</svg>