<svg viewBox="0 0 80 80" fill="none">
  <path fill-rule="evenodd" clip-rule="evenodd" d="M14 12.2348C14 12.1051 14.1051 12 14.2348 12H38C39.1046 12 40 12.8954 40 14C40 15.1046 40.8954 16 42 16H63.0459C64.4609 16 65.4284 17.4291 64.9029 18.7428L58.2971 35.2572C58.1064 35.734 58.1064 36.266 58.2971 36.7428L64.9029 53.2572C65.4284 54.5709 64.4609 56 63.0459 56H42C40.8954 56 40 55.1046 40 54C40 52.8954 39.1046 52 38 52H14.1394C14.0624 52 14 51.9376 14 51.8606V12.2348Z" fill="currentColor" fill-opacity="0.15" />
  <path d="M64.9029 53.2572L66.7598 52.5144L64.9029 53.2572ZM58.2971 35.2572L60.1541 36L58.2971 35.2572ZM58.2971 36.7428L56.4402 37.4856L58.2971 36.7428ZM64.9029 18.7428L63.0459 18L64.9029 18.7428ZM38 10H14.2348V14H38V10ZM63.0459 14H42V18H63.0459V14ZM60.1541 36L66.7598 19.4856L63.0459 18L56.4402 34.5144L60.1541 36ZM66.7598 52.5144L60.1541 36L56.4402 37.4856L63.0459 54L66.7598 52.5144ZM42 58H63.0459V54H42V58ZM14.1394 54H38V50H14.1394V54ZM12 12.2348V51.8606H16V12.2348H12ZM14.1394 50C15.167 50 16 50.833 16 51.8606H12C12 53.0422 12.9578 54 14.1394 54V50ZM42 54C42 51.7909 40.2091 50 38 50V54H42ZM42 54H38C38 56.2091 39.7909 58 42 58V54ZM63.0459 54H63.0459V58C65.8758 58 67.8108 55.1419 66.7598 52.5144L63.0459 54ZM56.4402 34.5144C56.0587 35.4681 56.0587 36.5319 56.4402 37.4856L60.1541 36L56.4402 34.5144ZM63.0459 18L66.7598 19.4856C67.8108 16.8581 65.8758 14 63.0459 14V18ZM38 14C38 16.2091 39.7909 18 42 18V14H38ZM14.2348 10C13.0006 10 12 11.0005 12 12.2348H16C16 13.2097 15.2097 14 14.2348 14V10ZM38 14H42C42 11.7909 40.2091 10 38 10V14Z" fill="currentColor" />
  <path d="M14 11L14 67" stroke="currentColor" stroke-linecap="round" stroke-linejoin="round" />
  <path d="M40 14V34" stroke="currentColor" stroke-linecap="round" stroke-linejoin="round" />
</svg>