<svg viewBox="0 0 80 80" fill="none">
  <path d="M16.0002 40.0009L14.8908 41.665H14.8908L16.0002 40.0009ZM14.4378 38.9593L15.5472 37.2952V37.2952L14.4378 38.9593ZM13.1248 36.116C12.0756 35.7709 10.9452 36.3418 10.6001 37.3911C10.255 38.4404 10.8259 39.5707 11.8752 39.9158L13.1248 36.116ZM29.5626 38.9593L28.4532 37.2952L28.4532 37.2952L29.5626 38.9593ZM26.4378 41.0425L27.5472 42.7066L26.4378 41.0425ZM17.5626 41.0425L18.672 39.3784L17.5626 41.0425ZM40.0002 40.0009L38.8908 41.665L40.0002 40.0009ZM38.4378 38.9593L39.5472 37.2952L38.4378 38.9593ZM53.5626 38.9593L54.672 40.6234L53.5626 38.9593ZM50.4378 41.0425L49.3284 39.3784V39.3784L50.4378 41.0425ZM41.5626 41.0425L42.672 39.3784L42.672 39.3784L41.5626 41.0425ZM56.1249 39.9159C57.1742 39.5708 57.745 38.4404 57.3999 37.3911C57.0547 36.3418 55.9243 35.771 54.8751 36.1162L56.1249 39.9159ZM17.1096 38.3368L15.5472 37.2952L13.3284 40.6234L14.8908 41.665L17.1096 38.3368ZM11.8752 39.9158C12.3809 40.0821 12.8699 40.3178 13.3284 40.6234L15.5472 37.2952C14.785 36.7871 13.9695 36.3938 13.1248 36.116L11.8752 39.9158ZM28.4532 37.2952L25.3284 39.3784L27.5472 42.7066L30.672 40.6234L28.4532 37.2952ZM18.672 39.3784L17.1096 38.3368L14.8908 41.665L16.4532 42.7066L18.672 39.3784ZM41.1096 38.3368L39.5472 37.2952L37.3284 40.6234L38.8908 41.665L41.1096 38.3368ZM30.672 40.6234C32.6874 39.2798 35.313 39.2798 37.3284 40.6234L39.5472 37.2952C36.1882 35.0559 31.8122 35.0559 28.4532 37.2952L30.672 40.6234ZM25.3284 39.3784C23.313 40.722 20.6874 40.722 18.672 39.3784L16.4532 42.7066C19.8122 44.946 24.1882 44.946 27.5472 42.7066L25.3284 39.3784ZM52.4532 37.2952L49.3284 39.3784L51.5472 42.7066L54.672 40.6234L52.4532 37.2952ZM42.672 39.3784L41.1096 38.3368L38.8908 41.665L40.4532 42.7066L42.672 39.3784ZM54.672 40.6234C55.1303 40.3178 55.6193 40.0822 56.1249 39.9159L54.8751 36.1162C54.0306 36.394 53.2152 36.7872 52.4532 37.2952L54.672 40.6234ZM49.3284 39.3784C47.313 40.722 44.6874 40.722 42.672 39.3784L40.4532 42.7066C43.8122 44.946 48.1882 44.946 51.5472 42.7066L49.3284 39.3784Z" fill="currentColor" />
  <path d="M28.0002 26.2305L26.8908 24.5664H26.8908L28.0002 26.2305ZM26.4378 27.2721L27.5472 28.9362V28.9362L26.4378 27.2721ZM25.1248 30.1154C24.0756 30.4605 22.9452 29.8896 22.6001 28.8404C22.255 27.7911 22.8259 26.6607 23.8752 26.3156L25.1248 30.1154ZM41.5626 27.2721L40.4532 28.9362L40.4532 28.9362L41.5626 27.2721ZM38.4378 25.1889L39.5472 23.5248L38.4378 25.1889ZM29.5626 25.1889L30.672 26.853L29.5626 25.1889ZM52.0002 26.2305L50.8908 24.5664L52.0002 26.2305ZM50.4378 27.2721L51.5472 28.9362L50.4378 27.2721ZM65.5626 27.2721L66.672 25.608L65.5626 27.2721ZM62.4378 25.1889L61.3284 26.853V26.853L62.4378 25.1889ZM53.5626 25.1889L54.672 26.853L54.672 26.853L53.5626 25.1889ZM68.1249 26.3156C69.1742 26.6607 69.745 27.7911 69.3999 28.8403C69.0547 29.8896 67.9243 30.4604 66.8751 30.1153L68.1249 26.3156ZM29.1096 27.8946L27.5472 28.9362L25.3284 25.608L26.8908 24.5664L29.1096 27.8946ZM23.8752 26.3156C24.3809 26.1493 24.8699 25.9137 25.3284 25.608L27.5472 28.9362C26.785 29.4443 25.9695 29.8376 25.1248 30.1154L23.8752 26.3156ZM40.4532 28.9362L37.3284 26.853L39.5472 23.5248L42.672 25.608L40.4532 28.9362ZM30.672 26.853L29.1096 27.8946L26.8908 24.5664L28.4532 23.5248L30.672 26.853ZM53.1096 27.8946L51.5472 28.9362L49.3284 25.608L50.8908 24.5664L53.1096 27.8946ZM42.672 25.608C44.6874 26.9516 47.313 26.9516 49.3284 25.608L51.5472 28.9362C48.1882 31.1756 43.8122 31.1756 40.4532 28.9362L42.672 25.608ZM37.3284 26.853C35.313 25.5094 32.6874 25.5094 30.672 26.853L28.4532 23.5248C31.8122 21.2855 36.1882 21.2855 39.5472 23.5248L37.3284 26.853ZM64.4532 28.9362L61.3284 26.853L63.5472 23.5248L66.672 25.608L64.4532 28.9362ZM54.672 26.853L53.1096 27.8946L50.8908 24.5664L52.4532 23.5248L54.672 26.853ZM66.672 25.608C67.1303 25.9136 67.6193 26.1492 68.1249 26.3156L66.8751 30.1153C66.0306 29.8375 65.2152 29.4443 64.4532 28.9362L66.672 25.608ZM61.3284 26.853C59.313 25.5094 56.6874 25.5094 54.672 26.853L52.4532 23.5248C55.8122 21.2855 60.1882 21.2855 63.5472 23.5248L61.3284 26.853Z" fill="currentColor" />
  <path d="M28.0002 53.7696L26.8908 52.1055H26.8908L28.0002 53.7696ZM26.4378 54.8112L27.5472 56.4753V56.4753L26.4378 54.8112ZM25.1248 57.6545C24.0756 57.9996 22.9452 57.4287 22.6001 56.3794C22.255 55.3301 22.8259 54.1998 23.8752 53.8547L25.1248 57.6545ZM41.5626 54.8112L40.4532 56.4753L40.4532 56.4753L41.5626 54.8112ZM38.4378 52.728L39.5472 51.0639L38.4378 52.728ZM29.5626 52.728L30.672 54.3921L29.5626 52.728ZM52.0002 53.7696L50.8908 52.1055L52.0002 53.7696ZM50.4378 54.8112L51.5472 56.4753L50.4378 54.8112ZM65.5626 54.8112L66.672 53.1471L65.5626 54.8112ZM62.4378 52.728L61.3284 54.3921V54.3921L62.4378 52.728ZM53.5626 52.728L54.672 54.3921L54.672 54.3921L53.5626 52.728ZM68.1249 53.8546C69.1742 54.1998 69.745 55.3301 69.3999 56.3794C69.0547 57.4287 67.9243 57.9995 66.8751 57.6543L68.1249 53.8546ZM29.1096 55.4337L27.5472 56.4753L25.3284 53.1471L26.8908 52.1055L29.1096 55.4337ZM23.8752 53.8547C24.3809 53.6884 24.8699 53.4527 25.3284 53.1471L27.5472 56.4753C26.785 56.9834 25.9695 57.3767 25.1248 57.6545L23.8752 53.8547ZM40.4532 56.4753L37.3284 54.3921L39.5472 51.0639L42.672 53.1471L40.4532 56.4753ZM30.672 54.3921L29.1096 55.4337L26.8908 52.1055L28.4532 51.0639L30.672 54.3921ZM53.1096 55.4337L51.5472 56.4753L49.3284 53.1471L50.8908 52.1055L53.1096 55.4337ZM42.672 53.1471C44.6874 54.4907 47.313 54.4907 49.3284 53.1471L51.5472 56.4753C48.1882 58.7146 43.8122 58.7146 40.4532 56.4753L42.672 53.1471ZM37.3284 54.3921C35.313 53.0485 32.6874 53.0485 30.672 54.3921L28.4532 51.0639C31.8122 48.8246 36.1882 48.8246 39.5472 51.0639L37.3284 54.3921ZM64.4532 56.4753L61.3284 54.3921L63.5472 51.0639L66.672 53.1471L64.4532 56.4753ZM54.672 54.3921L53.1096 55.4337L50.8908 52.1055L52.4532 51.0639L54.672 54.3921ZM66.672 53.1471C67.1303 53.4527 67.6193 53.6883 68.1249 53.8546L66.8751 57.6543C66.0306 57.3766 65.2152 56.9833 64.4532 56.4753L66.672 53.1471ZM61.3284 54.3921C59.313 53.0485 56.6874 53.0485 54.672 54.3921L52.4532 51.0639C55.8122 48.8246 60.1882 48.8246 63.5472 51.0639L61.3284 54.3921Z" fill="currentColor" />
</svg>