<svg viewBox="0 0 80 80" fill="none">
  <path d="M16.1038 40.3093C17.2409 37.1254 20.2568 35 23.6378 35L68.324 35C71.0901 35 73.0213 37.7404 72.091 40.3453L64.9481 60.3453C64.3795 61.9373 62.8716 63 61.1811 63L10.838 63C9.45495 63 8.48935 61.6298 8.95453 60.3273L16.1038 40.3093Z" fill="currentColor" fill-opacity="0.15" stroke="currentColor" stroke-linecap="round" stroke-linejoin="round" />
  <path fill-rule="evenodd" clip-rule="evenodd" d="M12 17C9.79086 17 8 18.7909 8 21V29V45V59C8 59.9655 8.34209 60.8511 8.91167 61.5423C8.80338 61.1611 8.80685 60.7408 8.95453 60.3273L13 49V34C13 31.7909 14.7909 30 17 30H55C57.2091 30 59 31.7909 59 34V35H64V29C64 26.7909 62.2091 25 60 25H31.3992C31.0329 25 30.689 24.8233 30.4757 24.5254L30.1359 24.0508L29.7597 23.5254L29.3835 23L26.2841 18.6713C25.533 17.6223 24.322 17 23.0318 17H12Z" fill="currentColor" fill-opacity="0.15" />
  <path d="M8.91167 61.5423L7.36827 62.8142C7.97038 63.5448 9.00226 63.7532 9.84067 63.3134C10.6791 62.8737 11.0943 61.9063 10.8355 60.9956L8.91167 61.5423ZM8.95453 60.3273L7.07104 59.6547H7.07104L8.95453 60.3273ZM13 49L14.8835 49.6727C14.9606 49.4568 15 49.2292 15 49H13ZM59 35H57C57 36.1046 57.8954 37 59 37V35ZM64 35V37C65.1046 37 66 36.1046 66 35H64ZM30.4757 24.5254L32.1019 23.3611V23.3611L30.4757 24.5254ZM30.1359 24.0508L31.7621 22.8865L30.1359 24.0508ZM29.7597 23.5254L28.1336 24.6898V24.6898L29.7597 23.5254ZM29.3835 23L31.0096 21.8357V21.8357L29.3835 23ZM26.2841 18.6713L27.9102 17.507L27.9102 17.507L26.2841 18.6713ZM10 21C10 19.8954 10.8954 19 12 19V15C8.68629 15 6 17.6863 6 21H10ZM10 29V21H6V29H10ZM10 45V29H6V45H10ZM10 59V45H6V59H10ZM10.4551 60.2703C10.1698 59.9241 10 59.4845 10 59H6C6 60.4465 6.51441 61.7782 7.36827 62.8142L10.4551 60.2703ZM7.07104 59.6547C6.7788 60.4729 6.76935 61.32 6.98783 62.0889L10.8355 60.9956C10.8358 60.9967 10.8364 60.9996 10.8363 61.0036C10.8363 61.0044 10.8362 61.0051 10.8362 61.0057C10.8361 61.0062 10.8361 61.0065 10.8361 61.0064C10.8361 61.0064 10.8362 61.0059 10.8364 61.0049C10.8367 61.0039 10.8372 61.0023 10.838 61L7.07104 59.6547ZM11.1165 48.3273L7.07104 59.6547L10.838 61L14.8835 49.6727L11.1165 48.3273ZM15 49V34H11V49H15ZM15 34C15 32.8954 15.8954 32 17 32V28C13.6863 28 11 30.6863 11 34H15ZM17 32H55V28H17V32ZM55 32C56.1046 32 57 32.8954 57 34H61C61 30.6863 58.3137 28 55 28V32ZM57 34V35H61V34H57ZM64 33H59V37H64V33ZM62 29V35H66V29H62ZM60 27C61.1046 27 62 27.8954 62 29H66C66 25.6863 63.3137 23 60 23V27ZM31.3992 27H60V23H31.3992V27ZM28.8496 25.6898C29.4384 26.5121 30.3878 27 31.3992 27V23C31.678 23 31.9396 23.1344 32.1019 23.3611L28.8496 25.6898ZM28.5098 25.2152L28.8496 25.6898L32.1019 23.3611L31.7621 22.8865L28.5098 25.2152ZM28.1336 24.6898L28.5098 25.2152L31.7621 22.8865L31.3858 22.3611L28.1336 24.6898ZM27.7574 24.1643L28.1336 24.6898L31.3858 22.3611L31.0096 21.8357L27.7574 24.1643ZM24.6579 19.8357L27.7574 24.1643L31.0096 21.8357L27.9102 17.507L24.6579 19.8357ZM23.0318 19C23.6769 19 24.2824 19.3112 24.6579 19.8357L27.9102 17.507C26.7835 15.9335 24.9671 15 23.0318 15V19ZM12 19H23.0318V15H12V19Z" fill="currentColor" />
  <path fill-rule="evenodd" clip-rule="evenodd" d="M17 30C14.7909 30 13 31.7909 13 34V49L16.1038 40.3093C17.2409 37.1254 20.2568 35 23.6378 35H59V34C59 31.7909 57.2091 30 55 30H17Z" fill="currentColor" fill-opacity="0.15" />
  <path d="M13 49H11C11 49.9729 11.7001 50.8046 12.6587 50.9707C13.6172 51.1367 14.5563 50.5889 14.8835 49.6727L13 49ZM16.1038 40.3093L17.9873 40.982V40.982L16.1038 40.3093ZM59 35V37C60.1046 37 61 36.1046 61 35H59ZM15 34C15 32.8954 15.8954 32 17 32V28C13.6863 28 11 30.6863 11 34H15ZM15 49V34H11V49H15ZM14.8835 49.6727L17.9873 40.982L14.2203 39.6366L11.1165 48.3273L14.8835 49.6727ZM17.9873 40.982C18.8401 38.594 21.1021 37 23.6378 37V33C19.4116 33 15.6417 35.6567 14.2203 39.6366L17.9873 40.982ZM23.6378 37H59V33H23.6378V37ZM57 34V35H61V34H57ZM55 32C56.1046 32 57 32.8954 57 34H61C61 30.6863 58.3137 28 55 28V32ZM17 32H55V28H17V32Z" fill="currentColor" />
</svg>