<svg viewBox="0 0 80 80" fill="none">
  <path d="M56.4156 22.0251C59.5337 21.7474 62.7088 22.3042 65.5982 23.6957C70.4154 26.0155 73.914 30.4027 75.1038 35.6153C76.2935 40.8279 75.0448 46.2986 71.7113 50.4787C68.3777 54.6589 63.322 57.0936 57.9753 57.0936C52.8661 57.0936 48.0225 54.8703 44.6935 51.0251H36.7473C36.6867 51.1037 36.6255 51.1819 36.5635 51.2596C33.1444 55.547 27.9591 58.0441 22.4753 58.0441C16.9916 58.0441 11.8063 55.547 8.38723 51.2596C4.96818 46.9722 3.68751 41.3613 4.90776 36.015C6.128 30.6688 9.71636 26.1691 14.657 23.7898C17.3877 22.4748 20.3672 21.8866 23.3205 22.0251L56.4156 22.0251Z" fill="currentColor" fill-opacity="0.25" />
  <path d="M22.4753 29.5222C23.8561 29.5222 24.9753 30.6415 24.9753 32.0222V36.5222H29.4753C30.8561 36.5222 31.9753 37.6415 31.9753 39.0222C31.9753 40.4029 30.8561 41.5222 29.4753 41.5222H24.9753V46.0222C24.9753 47.4029 23.8561 48.5222 22.4753 48.5222C21.0946 48.5222 19.9753 47.4029 19.9753 46.0222V41.5222H15.4753C14.0946 41.5222 12.9753 40.4029 12.9753 39.0222C12.9753 37.6415 14.0946 36.5222 15.4753 36.5222H19.9753V32.0222C19.9753 30.6415 21.0946 29.5222 22.4753 29.5222Z" fill="currentColor" fill-opacity="0.25" />
  <path d="M48.9753 37.0222C50.0799 35.9176 51.8708 35.9176 52.9753 37.0222C54.0799 38.1268 54.0799 39.9176 52.9753 41.0222C51.8708 42.1268 50.0799 42.1268 48.9753 41.0222C47.8708 39.9176 47.8708 38.1268 48.9753 37.0222Z" fill="currentColor" fill-opacity="0.25" />
  <path d="M55.9753 44.0222C57.0799 42.9176 58.8708 42.9176 59.9753 44.0222C61.0799 45.1268 61.0799 46.9176 59.9753 48.0222C58.8708 49.1268 57.0799 49.1268 55.9753 48.0222C54.8708 46.9176 54.8708 45.1268 55.9753 44.0222Z" fill="currentColor" fill-opacity="0.25" />
  <path d="M55.9753 30.0222C57.0799 28.9176 58.8708 28.9176 59.9753 30.0222C61.0799 31.1268 61.0799 32.9176 59.9753 34.0222C58.8708 35.1268 57.0799 35.1268 55.9753 34.0222C54.8708 32.9176 54.8708 31.1268 55.9753 30.0222Z" fill="currentColor" fill-opacity="0.25" />
  <path d="M62.9753 37.0222C64.0799 35.9176 65.8708 35.9176 66.9753 37.0222C68.0799 38.1268 68.0799 39.9176 66.9753 41.0222C65.8708 42.1268 64.0799 42.1268 62.9753 41.0222C61.8708 39.9176 61.8708 38.1268 62.9753 37.0222Z" fill="currentColor" fill-opacity="0.25" />
  <path d="M56.4156 22.0251C59.5337 21.7474 62.7088 22.3042 65.5982 23.6957C70.4154 26.0155 73.914 30.4027 75.1038 35.6153C76.2935 40.8279 75.0448 46.2986 71.7113 50.4787C68.3777 54.6589 63.322 57.0936 57.9753 57.0936C52.8661 57.0936 48.0225 54.8703 44.6935 51.0251H36.7473C36.6867 51.1037 36.6255 51.1819 36.5635 51.2596C33.1444 55.547 27.9591 58.0441 22.4753 58.0441C16.9916 58.0441 11.8063 55.547 8.38723 51.2596C4.96818 46.9722 3.68751 41.3613 4.90776 36.015C6.128 30.6688 9.71636 26.1691 14.657 23.7898C17.3877 22.4748 20.3672 21.8866 23.3205 22.0251L56.4156 22.0251Z" stroke="currentColor" stroke-width="4" stroke-linecap="round" stroke-linejoin="round" />
  <path d="M22.4753 29.5222C23.8561 29.5222 24.9753 30.6415 24.9753 32.0222V36.5222H29.4753C30.8561 36.5222 31.9753 37.6415 31.9753 39.0222C31.9753 40.4029 30.8561 41.5222 29.4753 41.5222H24.9753V46.0222C24.9753 47.4029 23.8561 48.5222 22.4753 48.5222C21.0946 48.5222 19.9753 47.4029 19.9753 46.0222V41.5222H15.4753C14.0946 41.5222 12.9753 40.4029 12.9753 39.0222C12.9753 37.6415 14.0946 36.5222 15.4753 36.5222H19.9753V32.0222C19.9753 30.6415 21.0946 29.5222 22.4753 29.5222Z" stroke="currentColor" stroke-width="4" stroke-linecap="round" stroke-linejoin="round" />
  <path d="M48.9753 37.0222C50.0799 35.9176 51.8708 35.9176 52.9753 37.0222C54.0799 38.1268 54.0799 39.9176 52.9753 41.0222C51.8708 42.1268 50.0799 42.1268 48.9753 41.0222C47.8708 39.9176 47.8708 38.1268 48.9753 37.0222Z" stroke="currentColor" stroke-width="4" stroke-linecap="round" stroke-linejoin="round" />
  <path d="M55.9753 44.0222C57.0799 42.9176 58.8708 42.9176 59.9753 44.0222C61.0799 45.1268 61.0799 46.9176 59.9753 48.0222C58.8708 49.1268 57.0799 49.1268 55.9753 48.0222C54.8708 46.9176 54.8708 45.1268 55.9753 44.0222Z" stroke="currentColor" stroke-width="4" stroke-linecap="round" stroke-linejoin="round" />
  <path d="M55.9753 30.0222C57.0799 28.9176 58.8708 28.9176 59.9753 30.0222C61.0799 31.1268 61.0799 32.9176 59.9753 34.0222C58.8708 35.1268 57.0799 35.1268 55.9753 34.0222C54.8708 32.9176 54.8708 31.1268 55.9753 30.0222Z" stroke="currentColor" stroke-width="4" stroke-linecap="round" stroke-linejoin="round" />
  <path d="M62.9753 37.0222C64.0799 35.9176 65.8708 35.9176 66.9753 37.0222C68.0799 38.1268 68.0799 39.9176 66.9753 41.0222C65.8708 42.1268 64.0799 42.1268 62.9753 41.0222C61.8708 39.9176 61.8708 38.1268 62.9753 37.0222Z" stroke="currentColor" stroke-width="4" stroke-linecap="round" stroke-linejoin="round" />
</svg>