<svg viewBox="0 0 80 80" fill="none">
  <path d="M8 29C8 26.7909 9.79086 25 12 25H68C70.2091 25 72 26.7909 72 29V69C72 71.2091 70.2091 73 68 73H12C9.79086 73 8 71.2091 8 69V29Z" fill="currentColor" fill-opacity="0.25" />
  <path d="M24.8564 16.2584C27.0983 12.2231 32.9017 12.2231 35.1436 16.2584L40 25H30C25.5135 25 22.6776 20.1803 24.8564 16.2584Z" fill="currentColor" fill-opacity="0.25" />
  <path d="M55.1436 16.2584C52.9017 12.2231 47.0983 12.2231 44.8564 16.2584L40 25H50C54.4865 25 57.3224 20.1803 55.1436 16.2584Z" fill="currentColor" fill-opacity="0.25" />
  <path d="M16 57H23M30 57H37M44 57H51M58 57H65M16 65H32M40 25L35.1436 16.2584C32.9017 12.2231 27.0983 12.2231 24.8564 16.2584C22.6776 20.1803 25.5135 25 30 25H40ZM40 25L50 43M40 25L44.8564 16.2584C47.0983 12.2231 52.9017 12.2231 55.1436 16.2584C57.3224 20.1803 54.4865 25 50 25H40ZM40 25L30 43M12 73H68C70.2091 73 72 71.2091 72 69V29C72 26.7909 70.2091 25 68 25H12C9.79086 25 8 26.7909 8 29V69C8 71.2091 9.79086 73 12 73Z" stroke="currentColor" stroke-width="4" stroke-linecap="round" stroke-linejoin="round" />
</svg>