<svg viewBox="0 0 80 80" fill="none">
  <path d="M24 24H56V68H24V24Z" fill="currentColor" fill-opacity="0.25" />
  <path d="M40.0031 23.9884L40 12L39.9969 23.9884L34 13.6077L39.9915 23.9915L29.6077 18L39.9884 23.9969L28 24H52L40.0116 23.9969L50.3923 18L40.0085 23.9915L46 13.6077L40.0031 23.9884Z" fill="currentColor" fill-opacity="0.25" />
  <path d="M40 58V34M24 24H56V68H24V24ZM40 12L40.0031 23.9884L46 13.6077L40.0085 23.9915L50.3923 18L40.0116 23.9969L52 24H28L39.9884 23.9969L29.6077 18L39.9915 23.9915L34 13.6077L39.9969 23.9884L40 12Z" stroke="currentColor" stroke-width="4" stroke-linecap="round" stroke-linejoin="round" />
</svg>