<svg viewBox="0 0 80 80" fill="none">
  <path d="M29.3934 14.3934C36.1847 11.5804 43.8153 11.5804 50.6066 14.3934C57.3979 17.2064 62.7936 22.6021 65.6066 29.3934C68.4196 36.1847 68.4196 43.8153 65.6066 50.6066C62.7936 57.3979 57.3979 62.7936 50.6066 65.6066C43.8153 68.4196 36.1847 68.4196 29.3934 65.6066C22.6021 62.7936 17.2064 57.3979 14.3934 50.6066C11.5804 43.8153 11.5804 36.1847 14.3934 29.3934C17.2064 22.6021 22.6021 17.2064 29.3934 14.3934Z" fill="currentColor" fill-opacity="0.15" stroke="currentColor" stroke-width="4" />
  <path d="M37.4642 12.3911L37.2808 10.3996C36.6792 10.4549 36.1348 10.7793 35.7998 11.2821L37.4642 12.3911ZM42.2743 12.3674L43.7606 13.7056C44.2693 13.1406 44.4137 12.336 44.1332 11.6294C43.8526 10.9228 43.1957 10.4363 42.438 10.3741L42.2743 12.3674ZM40.1077 14.7737L38.6214 13.4355L38.6214 13.4355L40.1077 14.7737ZM38.3022 15.2901L37.7482 17.2118L38.3022 15.2901ZM37.3196 12.6081L38.984 13.7171L38.984 13.7171L37.3196 12.6081ZM35.1928 12.6954L36.6442 14.0713C37.238 13.445 37.363 12.5084 36.9543 11.7483C36.5457 10.9882 35.6955 10.5759 34.8455 10.7257L35.1928 12.6954ZM33.7923 14.1727L32.3409 12.7967V12.7967L33.7923 14.1727ZM31.2474 15.2531L31.2291 17.253L31.2474 15.2531ZM27.7891 18.214L25.8103 17.924L25.8103 17.924L27.7891 18.214ZM27.772 18.3307L29.7509 18.6208L29.7509 18.6208L27.772 18.3307ZM26.2135 20.7991L25.1008 19.1372L25.1008 19.1372L26.2135 20.7991ZM25.4081 21.3384L26.5208 23.0003L26.5208 23.0003L25.4081 21.3384ZM24.0892 24.0823L22.0963 24.2515V24.2515L24.0892 24.0823ZM24.1316 24.5825L26.1245 24.4133L24.1316 24.5825ZM22.3752 27.0954L21.8494 25.1658L21.8494 25.1658L22.3752 27.0954ZM19.723 26.0668L21.4123 24.9963L21.4123 24.9963L19.723 26.0668ZM19.1774 25.2058L17.488 26.2764L17.488 26.2764L19.1774 25.2058ZM17.5271 23.776L15.9051 22.6059C15.5524 23.0948 15.4391 23.7167 15.5966 24.2987C15.7541 24.8806 16.1658 25.3604 16.7169 25.6046L17.5271 23.776ZM29.399 14.3842L28.6336 12.5364V12.5364L29.399 14.3842ZM21.5948 33.3998L23.2801 32.3229H23.2801L21.5948 33.3998ZM22.9281 30.2774L23.3158 32.2394H23.3158L22.9281 30.2774ZM23.6843 36.6698L21.9989 37.7467L21.9989 37.7467L23.6843 36.6698ZM26.5061 38.6997L26.9912 36.7594H26.9912L26.5061 38.6997ZM28.2684 39.1403L27.7833 41.0805H27.7834L28.2684 39.1403ZM30.2022 38.5997L28.7812 37.1922H28.7812L30.2022 38.5997ZM30.1214 35.6667L31.4627 34.1831L31.4627 34.1831L30.1214 35.6667ZM24.7046 30.7691L26.0459 29.2855L24.7046 30.7691ZM37.8556 38.0377L37.7742 40.036H37.7742L37.8556 38.0377ZM36.3128 36.0283L38.2644 36.4658V36.4658L36.3128 36.0283ZM42.1147 38.2111L42.1961 36.2127H42.1961L42.1147 38.2111ZM43.6695 37.7439L42.5002 36.1214L42.5002 36.1214L43.6695 37.7439ZM44.0222 37.4897L42.8528 35.8672L44.0222 37.4897ZM44.645 36.4123L42.6554 36.2089V36.2089L44.645 36.4123ZM34.6353 43.241L33.2007 41.8475L33.2007 41.8475L34.6353 43.241ZM39.4207 41.079L39.5181 43.0766H39.5181L39.4207 41.079ZM33.8231 44.0772L35.2578 45.4707H35.2578L33.8231 44.0772ZM32.5459 47.5932L34.5404 47.4455L32.5459 47.5932ZM42.1945 53.2629L40.8293 54.7245H40.8293L42.1945 53.2629ZM42.756 53.7874L44.1212 52.3259L42.756 53.7874ZM47.0279 44.9957L48.5225 43.6667L48.5225 43.6667L47.0279 44.9957ZM45.8434 43.6637L44.3489 44.9928L44.3489 44.9928L45.8434 43.6637ZM39.6612 41.0673L39.5638 39.0697H39.5638L39.6612 41.0673ZM30.5741 28.2658L32.013 29.6549L30.5741 28.2658ZM30.9997 31.8585L32.0742 30.1716H32.0742L30.9997 31.8585ZM33.1571 25.5903L31.7182 24.2012H31.7182L33.1571 25.5903ZM34.3501 25.2712L34.9031 23.3491H34.9031L34.3501 25.2712ZM35.033 27.0598L36.7263 28.1241L36.7263 28.1241L35.033 27.0598ZM34.9602 27.1756L33.2669 26.1112L33.2669 26.1112L34.9602 27.1756ZM34.7688 28.0118L36.7565 27.7903V27.7903L34.7688 28.0118ZM34.8815 29.0231L36.8692 28.8016V28.8016L34.8815 29.0231ZM34.3781 30.9377L32.7563 29.7673L32.7563 29.7673L34.3781 30.9377ZM34.1488 31.2554L35.7706 32.4258L35.7706 32.4258L34.1488 31.2554ZM52.5954 52.964L54.244 54.0962V54.0962L52.5954 52.964ZM52.6417 54.9312L51.0482 56.1398L52.6417 54.9312ZM53.7509 51.2815L55.3995 52.4137H55.3995L53.7509 51.2815ZM56.2757 50.993L54.9249 52.4679L54.9249 52.4679L56.2757 50.993ZM56.5238 53.1914L54.8783 52.0547L54.8783 52.0547L56.5238 53.1914ZM55.3637 54.8708L57.0093 56.0075L57.0093 56.0075L55.3637 54.8708ZM37.6475 14.3827C39.1318 14.2461 40.6253 14.2387 42.1106 14.3607L42.438 10.3741C40.7216 10.2332 38.996 10.2417 37.2808 10.3996L37.6475 14.3827ZM40.788 11.0292L38.6214 13.4355L41.594 16.1119L43.7606 13.7056L40.788 11.0292ZM38.6214 13.4355C38.6804 13.37 38.7715 13.3439 38.8562 13.3683L37.7482 17.2118C39.135 17.6116 40.6283 17.1845 41.594 16.1119L38.6214 13.4355ZM38.8562 13.3683C39.0058 13.4114 39.0703 13.5875 38.984 13.7171L35.6552 11.4991C34.2413 13.6211 35.298 16.5055 37.7482 17.2118L38.8562 13.3683ZM38.984 13.7171L39.1285 13.5002L35.7998 11.2821L35.6552 11.4991L38.984 13.7171ZM33.7413 11.3194L32.3409 12.7967L35.2438 15.5486L36.6442 14.0713L33.7413 11.3194ZM32.3409 12.7967C32.0614 13.0915 31.6719 13.2569 31.2656 13.2532L31.2291 17.253C32.7459 17.2669 34.2002 16.6494 35.2438 15.5486L32.3409 12.7967ZM31.2656 13.2532C28.5355 13.2283 26.2062 15.2226 25.8103 17.924L29.768 18.504C29.874 17.7805 30.4979 17.2464 31.2291 17.253L31.2656 13.2532ZM25.8103 17.924L25.7932 18.0407L29.7509 18.6208L29.768 18.504L25.8103 17.924ZM25.7932 18.0407C25.7277 18.4876 25.4762 18.8859 25.1008 19.1372L27.3262 22.461C28.6407 21.581 29.5215 20.1859 29.7509 18.6208L25.7932 18.0407ZM25.1008 19.1372L24.2954 19.6765L26.5208 23.0003L27.3262 22.461L25.1008 19.1372ZM24.2954 19.6765C22.7847 20.6879 21.9425 22.44 22.0963 24.2515L26.082 23.9131C26.0513 23.5517 26.2193 23.2021 26.5208 23.0003L24.2954 19.6765ZM22.0963 24.2515L22.1388 24.7517L26.1245 24.4133L26.082 23.9131L22.0963 24.2515ZM22.1388 24.7517C22.1549 24.9415 22.0331 25.1157 21.8494 25.1658L22.901 29.025C24.9477 28.4673 26.3039 26.5271 26.1245 24.4133L22.1388 24.7517ZM21.8494 25.1658C21.6823 25.2113 21.505 25.1426 21.4123 24.9963L18.0336 27.1374C19.066 28.7665 21.0401 29.5321 22.901 29.025L21.8494 25.1658ZM21.4123 24.9963L20.8667 24.1353L17.488 26.2764L18.0336 27.1374L21.4123 24.9963ZM20.8667 24.1353C20.2279 23.1272 19.3375 22.3906 18.3372 21.9474L16.7169 25.6046C17.0146 25.7364 17.2844 25.9551 17.488 26.2764L20.8667 24.1353ZM19.1491 24.9461C21.9188 21.1066 25.7195 18.0731 30.1644 16.232L28.6336 12.5364C23.4972 14.664 19.1055 18.1695 15.9051 22.6059L19.1491 24.9461ZM30.1644 16.232C31.9078 15.5098 33.7106 14.9875 35.54 14.665L34.8455 10.7257C32.7314 11.0985 30.648 11.7021 28.6336 12.5364L30.1644 16.232ZM23.2801 32.3229C23.2735 32.3125 23.2714 32.3066 23.2709 32.305C23.2703 32.303 23.27 32.3016 23.2699 32.2999C23.2696 32.2956 23.2701 32.2853 23.2759 32.2718C23.2817 32.2582 23.2888 32.2507 23.2921 32.248C23.2934 32.2469 23.2946 32.2461 23.2964 32.2452C23.298 32.2444 23.3036 32.2418 23.3158 32.2394L22.5404 28.3153C19.738 28.8691 18.3714 32.0695 19.9095 34.4767L23.2801 32.3229ZM25.3696 35.5929L23.2801 32.3229L19.9095 34.4767L21.9989 37.7467L25.3696 35.5929ZM26.9912 36.7594C26.3215 36.592 25.7413 36.1746 25.3696 35.5929L21.9989 37.7467C22.9209 39.1895 24.36 40.2247 26.0211 40.64L26.9912 36.7594ZM28.7535 37.2L26.9912 36.7594L26.0211 40.64L27.7833 41.0805L28.7535 37.2ZM28.7812 37.1922C28.774 37.1995 28.7634 37.2025 28.7535 37.2L27.7834 41.0805C29.163 41.4255 30.6223 41.0175 31.6231 40.0071L28.7812 37.1922ZM28.78 37.1502C28.7838 37.1536 28.7854 37.1557 28.7859 37.1564C28.7864 37.1571 28.7868 37.1578 28.7872 37.1586C28.788 37.1605 28.7894 37.1648 28.7896 37.171C28.7898 37.1772 28.7886 37.1815 28.7879 37.1834C28.7876 37.1842 28.7872 37.1849 28.7867 37.1857C28.7862 37.1864 28.7848 37.1886 28.7812 37.1922L31.6231 40.0071C33.2397 38.375 33.1666 35.7238 31.4627 34.1831L28.78 37.1502ZM23.3632 32.2526L28.78 37.1502L31.4627 34.1831L26.0459 29.2855L23.3632 32.2526ZM23.3158 32.2394C23.3328 32.2361 23.3504 32.241 23.3632 32.2526L26.0459 29.2855C25.0961 28.4268 23.7965 28.0671 22.5404 28.3153L23.3158 32.2394ZM37.937 36.0393C38.1552 36.0482 38.3122 36.2526 38.2644 36.4658L34.3612 35.5909C33.8632 37.8129 35.499 39.9434 37.7742 40.036L37.937 36.0393ZM42.1961 36.2127L37.937 36.0393L37.7742 40.036L42.0334 40.2094L42.1961 36.2127ZM42.5002 36.1214C42.4119 36.185 42.3048 36.2172 42.1961 36.2127L42.0334 40.2094C43.0365 40.2503 44.0244 39.9534 44.8389 39.3664L42.5002 36.1214ZM42.8528 35.8672L42.5002 36.1214L44.8389 39.3664L45.1916 39.1122L42.8528 35.8672ZM42.6554 36.2089C42.6694 36.072 42.7412 35.9476 42.8528 35.8672L45.1916 39.1122C46.0072 38.5244 46.5324 37.6158 46.6346 36.6157L42.6554 36.2089ZM43.1344 36.7393C42.8491 36.7393 42.6263 36.4927 42.6554 36.2089L46.6346 36.6157C46.8467 34.5418 45.2191 32.7393 43.1344 32.7393V36.7393ZM37.9227 36.7393H43.1344V32.7393H37.9227V36.7393ZM38.2644 36.4658C38.2286 36.6257 38.0866 36.7393 37.9227 36.7393V32.7393C36.2145 32.7393 34.7348 33.9241 34.3612 35.5909L38.2644 36.4658ZM36.07 44.6344C36.9805 43.697 38.2129 43.1403 39.5181 43.0766L39.3234 39.0814C37.0057 39.1943 34.8174 40.183 33.2007 41.8475L36.07 44.6344ZM35.2578 45.4707L36.07 44.6344L33.2007 41.8475L32.3884 42.6838L35.2578 45.4707ZM34.5404 47.4455C34.4863 46.715 34.7474 45.9962 35.2578 45.4707L32.3884 42.6838C31.0814 44.0295 30.4128 45.8701 30.5513 47.7409L34.5404 47.4455ZM37.0962 49.819C35.7542 49.819 34.6395 48.7838 34.5404 47.4455L30.5513 47.7409C30.8051 51.168 33.6597 53.819 37.0962 53.819V49.819ZM38.5335 49.819H37.0962V53.819H38.5335V49.819ZM43.5598 51.8014C42.1961 50.5276 40.3996 49.819 38.5335 49.819V53.819C39.3859 53.819 40.2064 54.1426 40.8293 54.7245L43.5598 51.8014ZM44.1212 52.3259L43.5598 51.8014L40.8293 54.7245L41.3907 55.2489L44.1212 52.3259ZM45.0873 52.7069C44.7286 52.7069 44.3833 52.5707 44.1212 52.3259L41.3907 55.2489C42.3936 56.1858 43.7149 56.7069 45.0873 56.7069V52.7069ZM46.5025 51.2917C46.5025 52.0733 45.8689 52.7069 45.0873 52.7069V56.7069C48.078 56.7069 50.5025 54.2824 50.5025 51.2917H46.5025ZM46.5025 48.8727V51.2917H50.5025V48.8727H46.5025ZM45.5334 46.3248C46.1576 47.0267 46.5025 47.9334 46.5025 48.8727H50.5025C50.5025 46.9534 49.7979 45.1009 48.5225 43.6667L45.5334 46.3248ZM44.3489 44.9928L45.5334 46.3248L48.5225 43.6667L47.3379 42.3347L44.3489 44.9928ZM39.7585 43.0649C41.5015 42.98 43.1892 43.6888 44.3489 44.9928L47.3379 42.3347C45.374 40.1262 42.5157 38.9258 39.5638 39.0697L39.7585 43.0649ZM39.5181 43.0766L39.7586 43.0649L39.5638 39.0697L39.3234 39.0814L39.5181 43.0766ZM29.1353 26.8767C27.2309 28.8493 27.6126 32.0722 29.9252 33.5453L32.0742 30.1716C31.895 30.0575 31.8655 29.8078 32.013 29.6549L29.1353 26.8767ZM31.7182 24.2012L29.1353 26.8767L32.013 29.6549L34.596 26.9794L31.7182 24.2012ZM34.9031 23.3491C33.7656 23.0219 32.5403 23.3497 31.7182 24.2012L34.596 26.9794C34.3897 27.1931 34.0824 27.2753 33.7971 27.1932L34.9031 23.3491ZM36.7263 28.1241C37.8588 26.3222 36.9483 23.9376 34.9031 23.3491L33.7971 27.1932C33.2841 27.0456 33.0557 26.4474 33.3397 25.9955L36.7263 28.1241ZM36.6535 28.2399L36.7263 28.1241L33.3397 25.9954L33.2669 26.1112L36.6535 28.2399ZM36.7565 27.7903C36.774 27.9475 36.7377 28.106 36.6535 28.2399L33.2669 26.1112C32.8697 26.7433 32.6984 27.4913 32.7811 28.2333L36.7565 27.7903ZM36.8692 28.8016L36.7565 27.7903L32.7811 28.2333L32.8938 29.2446L36.8692 28.8016ZM35.9998 32.1082C36.6899 31.1521 36.9997 29.9735 36.8692 28.8016L32.8938 29.2446C32.9144 29.4298 32.8654 29.6161 32.7563 29.7673L35.9998 32.1082ZM35.7706 32.4258L35.9998 32.1082L32.7563 29.7673L32.5271 30.0849L35.7706 32.4258ZM29.9252 33.5453C31.8626 34.7794 34.4262 34.2884 35.7706 32.4258L32.5271 30.0849C32.423 30.2292 32.2243 30.2672 32.0742 30.1716L29.9252 33.5453ZM50.9467 51.8317C50.0486 53.1395 50.0895 54.8757 51.0482 56.1398L54.2352 53.7225C54.3184 53.8322 54.3219 53.9828 54.244 54.0962L50.9467 51.8317ZM52.1022 50.1492L50.9467 51.8317L54.244 54.0962L55.3995 52.4137L52.1022 50.1492ZM57.6264 49.518C55.9757 48.0063 53.3694 48.3041 52.1022 50.1492L55.3995 52.4137C55.2907 52.5722 55.0667 52.5978 54.9249 52.4679L57.6264 49.518ZM58.1694 54.3282C59.2152 52.8142 58.9834 50.7607 57.6264 49.518L54.9249 52.4679C54.8083 52.3612 54.7884 52.1847 54.8783 52.0547L58.1694 54.3282ZM57.0093 56.0075L58.1694 54.3282L54.8783 52.0547L53.7182 53.734L57.0093 56.0075ZM51.0482 56.1398C52.5623 58.1361 55.5852 58.069 57.0093 56.0075L53.7182 53.734C53.8417 53.5552 54.1039 53.5494 54.2352 53.7225L51.0482 56.1398Z" fill="currentColor" />
</svg>