<svg viewBox="0 0 80 80" fill="none">
  <path d="M29.3935 14.3935C36.1848 11.5804 43.8154 11.5804 50.6067 14.3935C57.398 17.2065 62.7936 22.6022 65.6067 29.3935C68.4197 36.1848 68.4197 43.8154 65.6067 50.6067C62.7936 57.398 57.398 62.7936 50.6067 65.6067C43.8154 68.4197 36.1848 68.4197 29.3935 65.6067C22.6022 62.7936 17.2065 57.398 14.3935 50.6067C11.5804 43.8154 11.5804 36.1848 14.3935 29.3935C17.2065 22.6022 22.6022 17.2065 29.3935 14.3935Z" fill="currentColor" fill-opacity="0.25" />
  <path fill-rule="evenodd" clip-rule="evenodd" d="M24.4121 45.6112C25.6336 45.7398 26.8492 45.3202 27.7312 44.4653L28.9063 43.3263C30.3663 41.9112 32.3298 41.136 34.3627 41.172L34.4187 41.173L38.2003 45.5407L42.6238 45.1376C43.5145 45.0565 44.3486 44.6657 44.9811 44.0334C45.6427 43.3719 46.5239 42.9758 47.4578 42.9201L49.8527 42.7774L52.3911 45.6404C53.8732 47.3121 53.7885 49.8512 52.1981 51.4204C51.3766 52.231 50.258 52.668 49.1046 52.6291L45.515 52.508C45.0372 52.4919 44.5909 52.7454 44.3599 53.1639C44.0595 53.7081 43.4095 53.9551 42.8236 53.7476L36.9642 51.6733C36.3868 51.4688 35.9749 50.9551 35.901 50.3471C35.8001 49.5166 35.0811 48.9011 34.2451 48.9293L28.6206 49.1189C28.272 49.1306 27.9382 48.9775 27.7197 48.7057C27.2727 48.1495 26.4242 48.1548 25.9841 48.7164L22.8055 52.7734C22.2051 53.5396 21.832 54.459 21.7286 55.4268L21.2022 60.3533C23.5814 62.5504 26.3495 64.3343 29.3991 65.5975C36.1903 68.4105 43.821 68.4105 50.6123 65.5975C52.9583 64.6257 55.1378 63.3458 57.1018 61.8065L54.1286 58.749C53.5563 58.1605 53.6579 57.1971 54.3404 56.741C54.8706 56.3865 55.5789 56.4641 56.0198 56.925L59.0678 60.1113C61.2756 58.0196 63.1369 55.5668 64.5628 52.8419L64.4527 52.7321C64.123 52.4032 64.0557 51.8938 64.2885 51.4906C64.5302 51.0719 65.0094 50.8984 65.4378 51.0093C65.497 50.8726 65.5552 50.7353 65.6123 50.5975C68.4253 43.8062 68.4253 36.1756 65.6123 29.3843C64.1133 25.7655 61.881 22.543 59.0951 19.8963L57.5701 19.9023C55.5133 19.9105 53.5325 19.1262 52.0388 17.7124L51.5702 17.2688C50.2086 15.9799 48.4367 15.2102 46.5654 15.0941C44.2966 14.9533 42.0741 15.7842 40.4547 17.3795L37.6856 20.1074C37.1279 20.6568 36.9206 21.4699 37.1471 22.2193C37.5912 23.6883 39.4059 24.2057 40.5579 23.1918L43.1942 20.8715C43.787 20.3497 44.695 20.4262 45.1922 21.0398C45.6282 21.5778 45.6016 22.3547 45.1298 22.8617L42.8053 25.3592C42.4254 25.7673 42.1921 26.2901 42.1421 26.8454C42.0274 28.1195 40.9736 29.1039 39.6946 29.1317L36.3633 29.2041C34.8579 29.2368 33.4151 29.8129 32.3012 30.8261L28.4924 34.2906L27.0712 28.9108C26.0822 25.1671 21.5868 23.6552 18.5365 26.0404L18.1591 26.3355C17.1942 27.09 16.5952 28.2188 16.5113 29.4408C16.3436 31.8836 18.2389 33.9768 20.6863 34.0517L28.4924 34.2906L26.3788 38.8196C25.9083 39.8278 25.0391 40.5945 23.98 40.9355L22.3981 41.4447C21.4364 41.7543 20.8426 42.7174 20.998 43.7157C21.1412 44.6362 21.8859 45.3451 22.8124 45.4427L24.4121 45.6112ZM49.8527 42.7774L50.7982 40.7447C51.7232 38.7561 53.6509 37.4227 55.8381 37.2587L57.0832 37.1653C58.4409 37.0635 59.7519 37.6841 60.5337 38.7988L61.2313 39.7933C61.9411 40.8053 61.7939 42.1861 60.8867 43.0257C60.0984 43.7554 58.9289 43.8921 57.9935 43.364L56.9835 42.7938C56.2508 42.3801 55.4076 42.2042 54.5705 42.2906L49.8527 42.7774Z" fill="currentColor" fill-opacity="0.25" />
  <path d="M34.4187 41.173L34.3627 41.172C32.3298 41.136 30.3663 41.9112 28.9063 43.3263L27.7312 44.4653C26.8492 45.3202 25.6336 45.7398 24.4121 45.6112L22.8124 45.4427C21.8859 45.3451 21.1412 44.6362 20.998 43.7157C20.8426 42.7174 21.4364 41.7543 22.3981 41.4447L23.98 40.9355C25.0391 40.5945 25.9083 39.8278 26.3788 38.8196L28.4924 34.2906M34.4187 41.173L38.2003 45.5407M34.4187 41.173C34.4187 41.173 36.9745 44.3183 38.2003 45.5407M38.2003 45.5407L42.6238 45.1376C43.5145 45.0565 44.3486 44.6657 44.9811 44.0334C45.6427 43.3719 46.5239 42.9758 47.4578 42.9201L49.8527 42.7774M49.8527 42.7774L52.3911 45.6404C53.8732 47.3121 53.7885 49.8512 52.1981 51.4204C51.3766 52.231 50.258 52.668 49.1046 52.6291L45.515 52.508C45.0372 52.4919 44.5909 52.7454 44.3599 53.1639C44.0595 53.7081 43.4095 53.9551 42.8236 53.7476L36.9642 51.6733C36.3868 51.4688 35.9749 50.9551 35.901 50.3471C35.8001 49.5166 35.0811 48.9011 34.2451 48.9293L28.6206 49.1189C28.272 49.1306 27.9382 48.9775 27.7197 48.7057C27.2727 48.1495 26.4242 48.1548 25.9841 48.7164L22.8055 52.7734C22.2051 53.5396 21.832 54.459 21.7286 55.4268L21.2022 60.3533C23.5814 62.5504 26.3495 64.3343 29.3991 65.5975C36.1903 68.4105 43.821 68.4105 50.6123 65.5975C52.9583 64.6257 55.1378 63.3458 57.1018 61.8065L54.1286 58.749C53.5563 58.1605 53.6579 57.1971 54.3404 56.741C54.8706 56.3865 55.5789 56.4641 56.0198 56.925L59.0678 60.1113C61.2756 58.0196 63.1369 55.5668 64.5628 52.8419L64.4527 52.7321C64.123 52.4032 64.0557 51.8938 64.2885 51.4906C64.5302 51.0719 65.0094 50.8984 65.4378 51.0093C65.497 50.8726 65.5552 50.7353 65.6123 50.5975C68.4253 43.8062 68.4253 36.1756 65.6123 29.3843C64.1133 25.7655 61.881 22.543 59.0951 19.8963L57.5701 19.9023C55.5133 19.9105 53.5325 19.1262 52.0388 17.7124L51.5702 17.2688C50.2086 15.9799 48.4367 15.2102 46.5654 15.0941C44.2966 14.9533 42.0741 15.7842 40.4547 17.3795L37.6856 20.1074C37.1279 20.6568 36.9206 21.4699 37.1471 22.2193C37.5912 23.6883 39.4059 24.2057 40.5579 23.1918L43.1942 20.8715C43.787 20.3497 44.695 20.4262 45.1922 21.0398C45.6282 21.5778 45.6016 22.3547 45.1298 22.8617L42.8053 25.3592C42.4254 25.7673 42.1921 26.2901 42.1421 26.8454C42.0274 28.1195 40.9736 29.1039 39.6946 29.1317L36.3633 29.2041C34.8579 29.2368 33.4151 29.8129 32.3012 30.8261L28.4924 34.2906M49.8527 42.7774L50.7982 40.7447C51.7232 38.7561 53.6509 37.4227 55.8381 37.2587L57.0832 37.1653C58.4409 37.0635 59.7519 37.6841 60.5337 38.7988L61.2313 39.7933C61.9411 40.8053 61.7939 42.1861 60.8867 43.0257C60.0984 43.7554 58.9289 43.8921 57.9935 43.364L56.9835 42.7938C56.2508 42.3801 55.4076 42.2042 54.5705 42.2906L49.8527 42.7774ZM28.4924 34.2906L27.0712 28.9108C26.0822 25.1671 21.5868 23.6552 18.5365 26.0404L18.1591 26.3355C17.1942 27.09 16.5952 28.2188 16.5113 29.4408C16.3436 31.8836 18.2389 33.9768 20.6863 34.0517L28.4924 34.2906ZM14.3935 29.3935C17.2065 22.6022 22.6022 17.2065 29.3935 14.3935C36.1848 11.5804 43.8154 11.5804 50.6067 14.3935C57.398 17.2065 62.7936 22.6022 65.6067 29.3935C68.4197 36.1848 68.4197 43.8154 65.6067 50.6067C62.7936 57.398 57.398 62.7936 50.6067 65.6067C43.8154 68.4197 36.1848 68.4197 29.3935 65.6067C22.6022 62.7936 17.2065 57.398 14.3935 50.6067C11.5804 43.8154 11.5804 36.1848 14.3935 29.3935Z" stroke="currentColor" stroke-width="4" stroke-linecap="round" stroke-linejoin="round" />
</svg>