<svg viewBox="0 0 80 80" fill="none">
  <path d="M20.712 59.5036C20.2529 59.1966 20.1516 58.5702 20.474 58.1217L24.2034 52.9337C27.147 55.0496 30.5923 56.4315 34.2518 56.9133C40.0822 57.6808 45.9787 56.1009 50.6441 52.521C55.3096 48.941 58.3618 43.6544 59.1294 37.824C59.897 31.9937 58.317 26.0972 54.7371 21.4317C52.4901 18.5034 49.5707 16.2106 46.2665 14.7194L48.8962 8.89245C49.1234 8.38904 49.7165 8.16357 50.2119 8.40767C54.2457 10.3951 57.8118 13.2956 60.6009 16.9304C65.3742 23.151 67.4808 31.013 66.4573 38.7868C65.4339 46.5606 61.3642 53.6095 55.1436 58.3827C48.923 63.156 41.061 65.2626 33.2872 64.2392C28.7449 63.6411 24.45 62.0031 20.712 59.5036Z" fill="currentColor" fill-opacity="0.25" />
  <path d="M40.1072 13.0165C45.9375 13.7841 51.2242 16.8364 54.8041 21.5018C58.384 26.1673 59.964 32.0637 59.1964 37.8941C58.4288 43.7245 55.3766 49.0111 50.7111 52.591C46.0457 56.171 40.1492 57.7509 34.3188 56.9833C28.4885 56.2158 23.2018 53.1635 19.6219 48.4981C16.042 43.8326 14.462 37.9361 15.2296 32.1058C15.9972 26.2754 19.0494 20.9888 23.7149 17.4088C28.3803 13.8289 34.2768 12.2489 40.1072 13.0165Z" fill="currentColor" fill-opacity="0.25" />
  <path fill-rule="evenodd" clip-rule="evenodd" d="M27.4621 21.9435C27.9094 22.2681 28.477 22.3788 29.0135 22.246L29.7274 22.0692C30.6154 21.8494 31.5543 21.9906 32.3383 22.4619L32.3639 22.4773L32.8631 25.0249L34.6837 25.8673C35.0488 26.0362 35.4613 26.0725 35.8503 25.9698C36.257 25.8623 36.6891 25.9071 37.0652 26.0955L38.035 26.5814L38.384 28.2574C38.5891 29.2426 37.9835 30.2151 37.0088 30.4656C36.5103 30.5937 35.981 30.5122 35.5441 30.2401L34.1592 29.3774C33.9768 29.2638 33.7462 29.2618 33.562 29.3723C33.3226 29.5157 33.0146 29.4658 32.8329 29.254L31.0051 27.1238C30.8261 26.9152 30.7809 26.6233 30.8884 26.3704C31.0348 26.0257 30.8938 25.6262 30.5633 25.4499L28.3179 24.2518C28.1794 24.1779 28.0835 24.0432 28.059 23.8881C28.0088 23.5709 27.6772 23.3822 27.3789 23.5011L25.2339 24.3557C24.8238 24.5191 24.4681 24.7949 24.2077 25.1515L23.04 26.7502C22.008 28.1633 21.6744 29.969 22.1334 31.6576L22.419 32.7079C22.6282 33.4778 23.1289 34.136 23.8149 34.5433C25.2424 35.3908 25.7382 37.2191 24.9344 38.6716L24.3383 39.7488C23.9877 40.3823 23.9417 41.1401 24.213 41.8114C24.48 42.4719 24.4399 43.2169 24.1035 43.845L22.7751 46.3256C22.5329 46.7777 22.4334 47.2926 22.4897 47.8024C22.5762 48.5863 23.0286 49.2894 23.703 49.6983C24.3154 50.0697 25.0609 50.1718 25.7492 49.9739L26.9925 49.6164C28.3608 49.2229 29.5243 48.3162 30.2402 47.0855L32.132 43.8333C32.6946 42.8662 33.6142 42.1584 34.6931 41.8622L35.7499 41.572C36.5529 41.3515 37.1796 40.7229 37.3976 39.9192C37.5042 39.5263 37.507 39.1125 37.4057 38.7182L36.1294 33.7476C36.0372 33.3885 36.2947 33.0343 36.6647 33.0112C36.9494 32.9934 37.2062 33.1816 37.2748 33.4585L37.9214 36.0649C38.1078 36.8164 38.5769 37.4669 39.231 37.881L39.7244 38.1934C40.1155 38.441 40.5918 38.5147 41.0394 38.3969C41.9348 38.1613 42.4662 37.2406 42.2224 36.3474L41.5105 33.7396C41.4551 33.5366 41.5438 33.3217 41.7264 33.217C41.9875 33.0674 42.3197 33.2032 42.4011 33.4929L42.7322 34.6715C42.8314 35.0246 43.0638 35.3255 43.3803 35.5108L44.0406 35.8973C45.0221 36.4717 45.6401 37.5095 45.6777 38.646L45.7926 42.1268C45.7973 42.269 45.8636 42.4022 45.9741 42.4918C46.1658 42.6471 46.4429 42.6359 46.6215 42.4657L47.7697 41.371C47.9662 41.1837 48.1944 41.0327 48.4436 40.9251L49.0236 40.6747C50.5479 40.0167 52.2592 41.0876 52.3338 42.7461L52.3625 43.383C52.392 44.039 52.8438 44.5999 53.4785 44.7685C54.1814 44.9553 54.9173 44.612 55.2259 43.9534L55.3516 43.6852C55.6396 43.0705 56.2401 42.6618 56.9177 42.6193L57.5302 42.581C57.7244 42.5688 57.9143 42.5315 58.0955 42.4713C58.6228 40.9991 58.9967 39.4643 59.2039 37.8899C59.9715 32.0596 58.3916 26.1631 54.8116 21.4976C54.6713 21.3147 54.5284 21.1343 54.3829 20.9565C53.823 20.8441 53.2353 20.8941 52.6923 21.1119L52.2954 21.2711C51.2063 21.7079 49.9771 21.6229 48.9585 21.0401L46.3022 19.5205C45.4144 19.0126 44.7551 18.1837 44.4599 17.2044L44.4215 17.0769C44.1772 16.2664 43.6571 15.5667 42.9514 15.0991C42.096 14.5324 41.0406 14.3543 40.0466 14.6089L38.3623 15.0404C38.0196 15.1282 37.7544 15.3995 37.6745 15.744C37.519 16.4137 38.1061 17.0207 38.7806 16.8878L40.3451 16.5794C40.6917 16.5111 41.026 16.7435 41.0826 17.0923C41.1327 17.4012 40.9466 17.6995 40.6471 17.7903L39.1833 18.2337C38.9434 18.3063 38.7346 18.4571 38.5902 18.662C38.2604 19.1298 37.6318 19.2752 37.1301 18.9998L35.8017 18.2706C35.2079 17.9446 34.5167 17.8433 33.8543 17.9852L31.59 18.4701L32.238 16.0685C32.499 15.1014 32.1445 14.1615 31.4681 13.5818C30.1626 13.9325 28.8892 14.4026 27.6645 14.9875C27.6722 15.6248 27.9948 16.2462 28.5797 16.608L31.59 18.4701L29.7512 19.7494C29.3405 20.0351 28.8293 20.1371 28.3404 20.0307L27.6027 19.8702C27.1599 19.7739 26.713 20.0147 26.5499 20.4374C26.4 20.8262 26.5303 21.2672 26.8675 21.5119L27.4621 21.9435ZM38.035 26.5814L38.8509 26.0123C39.6636 25.4454 40.7188 25.3609 41.6113 25.7912L42.1276 26.0402C42.6748 26.304 43.0436 26.8356 43.099 27.4406L43.1488 27.9831C43.1997 28.5392 42.8298 29.0466 42.2848 29.1683C41.8163 29.2729 41.3335 29.0645 41.0882 28.6518L40.8177 28.1966C40.6239 27.8706 40.3342 27.6124 39.9882 27.4572L38.035 26.5814Z" fill="currentColor" fill-opacity="0.25" />
  <path d="M54.1907 49.2668C53.4292 50.1723 52.5926 51.02 51.6867 51.7999C51.4061 51.3692 51.2419 50.8686 51.2164 50.3474L51.099 47.9388C51.0547 47.0313 51.9402 46.3655 52.7998 46.66C53.1814 46.7907 53.4795 47.093 53.605 47.4764L54.1907 49.2668Z" fill="currentColor" fill-opacity="0.25" />
  <path d="M32.5985 48.8154C32.1382 48.5497 31.9959 47.9518 32.2871 47.5072L32.6992 46.8779C32.8797 46.6023 33.1393 46.3875 33.4439 46.2618L33.8892 46.0781C34.1076 45.9879 34.3548 45.9991 34.5641 46.1087C34.9756 46.3239 35.1174 46.8435 34.8724 47.2379L34.2866 48.181C34.1595 48.3855 33.9832 48.5549 33.7738 48.6736L33.5176 48.8189C33.2323 48.9808 32.8826 48.9795 32.5985 48.8154Z" fill="currentColor" fill-opacity="0.25" />
  <path d="M37.213 71.4373V64.9999M37.213 71.4373H53.213M37.213 71.4373L21.213 71.4373M32.3639 22.4773L32.3383 22.4619C31.5543 21.9906 30.6154 21.8494 29.7274 22.0692L29.0135 22.246C28.477 22.3788 27.9094 22.2681 27.4621 21.9435L26.8675 21.5119C26.5303 21.2672 26.4 20.8262 26.5499 20.4374C26.713 20.0147 27.1599 19.7739 27.6027 19.8702L28.3404 20.0307C28.8293 20.1371 29.3405 20.0351 29.7512 19.7494L31.59 18.4701M32.3639 22.4773L32.8631 25.0249M32.3639 22.4773C32.3639 22.4773 32.658 24.2741 32.8631 25.0249M32.8631 25.0249L34.6837 25.8673C35.0488 26.0362 35.4613 26.0725 35.8503 25.9698C36.2571 25.8623 36.6891 25.9071 37.0652 26.0955L38.035 26.5814M38.035 26.5814L38.384 28.2574C38.5891 29.2426 37.9835 30.2151 37.0088 30.4656C36.5103 30.5937 35.981 30.5122 35.5441 30.2401L34.1592 29.3774C33.9768 29.2638 33.7462 29.2618 33.562 29.3723C33.3226 29.5157 33.0146 29.4658 32.8329 29.254L31.0051 27.1238C30.8261 26.9152 30.7809 26.6233 30.8884 26.3704C31.0348 26.0257 30.8938 25.6262 30.5633 25.4499L28.3179 24.2518C28.1794 24.1779 28.0835 24.0432 28.059 23.8881C28.0088 23.5709 27.6772 23.3822 27.3789 23.5011L25.2339 24.3557C24.8238 24.5191 24.4681 24.7949 24.2077 25.1515L23.04 26.7502C22.008 28.1633 21.6744 29.969 22.1334 31.6576L22.419 32.7079C22.6282 33.4778 23.1289 34.136 23.8149 34.5433C25.2424 35.3908 25.7382 37.2191 24.9344 38.6716L24.3383 39.7488C23.9877 40.3823 23.9417 41.1401 24.213 41.8114C24.48 42.4719 24.4399 43.2169 24.1035 43.845L22.7751 46.3256C22.5329 46.7777 22.4334 47.2926 22.4897 47.8024C22.5762 48.5863 23.0286 49.2894 23.703 49.6983C24.3154 50.0697 25.0609 50.1718 25.7492 49.9739L26.9925 49.6164C28.3608 49.2229 29.5243 48.3162 30.2402 47.0855L32.132 43.8333C32.6946 42.8662 33.6142 42.1584 34.6931 41.8622L35.7499 41.572C36.5529 41.3515 37.1796 40.7229 37.3976 39.9192C37.5042 39.5263 37.507 39.1125 37.4057 38.7182L36.1294 33.7476C36.0372 33.3885 36.2947 33.0343 36.6647 33.0112C36.9494 32.9934 37.2062 33.1816 37.2748 33.4585L37.9214 36.0649C38.1078 36.8164 38.5769 37.4669 39.231 37.881L39.7244 38.1934C40.1155 38.441 40.5918 38.5147 41.0394 38.3969C41.9348 38.1613 42.4662 37.2406 42.2224 36.3474L41.5105 33.7396C41.4551 33.5366 41.5438 33.3217 41.7264 33.217C41.9875 33.0674 42.3197 33.2032 42.4011 33.4929L42.7322 34.6715C42.8314 35.0246 43.0638 35.3255 43.3803 35.5108L44.0406 35.8973C45.0221 36.4717 45.6401 37.5095 45.6777 38.646L45.7926 42.1268C45.7973 42.269 45.8636 42.4022 45.9741 42.4918C46.1658 42.6471 46.4429 42.6359 46.6215 42.4657L47.7697 41.371C47.9662 41.1837 48.1944 41.0327 48.4436 40.9251L49.0236 40.6747C50.5479 40.0167 52.2592 41.0876 52.3338 42.7461L52.3625 43.383C52.392 44.039 52.8438 44.6 53.4785 44.7685C54.1814 44.9553 54.9173 44.612 55.2259 43.9534L55.3516 43.6852C55.6396 43.0705 56.2401 42.6618 56.9177 42.6193L57.5302 42.581C57.7244 42.5688 57.9143 42.5315 58.0955 42.4713C58.6228 40.9991 58.9967 39.4643 59.2039 37.8899C59.9715 32.0596 58.3916 26.1631 54.8116 21.4976C54.6713 21.3147 54.5284 21.1343 54.3829 20.9565C53.823 20.8441 53.2353 20.8941 52.6923 21.1119L52.2954 21.2711C51.2063 21.7079 49.9771 21.6229 48.9585 21.0401L46.3022 19.5205C45.4144 19.0126 44.7551 18.1837 44.4599 17.2044L44.4215 17.0769C44.1772 16.2664 43.6571 15.5667 42.9514 15.0991C42.096 14.5324 41.0406 14.3543 40.0466 14.6089L38.3623 15.0404C38.0196 15.1282 37.7544 15.3995 37.6745 15.744C37.519 16.4137 38.1061 17.0207 38.7806 16.8878L40.3451 16.5794C40.6917 16.5111 41.026 16.7435 41.0826 17.0923C41.1327 17.4012 40.9466 17.6995 40.6471 17.7903L39.1833 18.2337C38.9434 18.3063 38.7346 18.4571 38.5902 18.662C38.2604 19.1298 37.6318 19.2752 37.1301 18.9998L35.8017 18.2706C35.2079 17.9446 34.5167 17.8433 33.8543 17.9852L31.59 18.4701M38.035 26.5814L38.8509 26.0123C39.6636 25.4454 40.7188 25.3609 41.6113 25.7912L42.1276 26.0402C42.6748 26.304 43.0436 26.8356 43.099 27.4406L43.1488 27.9831C43.1997 28.5392 42.8298 29.0466 42.2848 29.1683C41.8163 29.2729 41.3335 29.0645 41.0882 28.6518L40.8177 28.1966C40.6239 27.8706 40.3342 27.6124 39.9882 27.4572L38.035 26.5814ZM31.59 18.4701L32.238 16.0685C32.499 15.1014 32.1445 14.1615 31.4681 13.5818C30.1626 13.9325 28.8892 14.4026 27.6645 14.9875C27.6722 15.6248 27.9948 16.2462 28.5797 16.608L31.59 18.4701ZM20.474 58.1217C20.1516 58.5702 20.2529 59.1966 20.712 59.5036C24.45 62.0031 28.7449 63.6411 33.2872 64.2392C41.061 65.2626 48.923 63.156 55.1436 58.3827C61.3642 53.6095 65.4339 46.5606 66.4573 38.7868C67.4808 31.013 65.3742 23.151 60.6009 16.9304C57.8118 13.2956 54.2457 10.3951 50.2119 8.40767C49.7165 8.16357 49.1234 8.38904 48.8962 8.89245L46.2665 14.7194C49.5707 16.2106 52.4901 18.5034 54.7371 21.4317C58.317 26.0972 59.897 31.9937 59.1294 37.824C58.3618 43.6544 55.3096 48.941 50.6441 52.521C45.9787 56.1009 40.0822 57.6808 34.2518 56.9133C30.5923 56.4315 27.147 55.0496 24.2034 52.9337L20.474 58.1217ZM23.7149 17.4088C28.3803 13.8289 34.2768 12.2489 40.1072 13.0165C45.9375 13.7841 51.2242 16.8364 54.8041 21.5018C58.384 26.1673 59.964 32.0637 59.1964 37.8941C58.4288 43.7245 55.3766 49.0111 50.7111 52.591C46.0457 56.171 40.1492 57.7509 34.3188 56.9833C28.4885 56.2158 23.2018 53.1635 19.6219 48.4981C16.042 43.8326 14.462 37.9361 15.2296 32.1058C15.9972 26.2754 19.0494 20.9888 23.7149 17.4088ZM54.1907 49.2668C53.4292 50.1723 52.5926 51.02 51.6867 51.7999C51.4061 51.3692 51.2419 50.8686 51.2164 50.3474L51.099 47.9388C51.0547 47.0313 51.9402 46.3655 52.7998 46.66C53.1814 46.7907 53.4795 47.093 53.605 47.4764L54.1907 49.2668ZM32.2871 47.5072C31.9959 47.9518 32.1382 48.5497 32.5985 48.8154C32.8826 48.9795 33.2323 48.9808 33.5176 48.8189L33.7738 48.6736C33.9832 48.5549 34.1595 48.3855 34.2866 48.181L34.8724 47.2379C35.1174 46.8435 34.9756 46.3239 34.5641 46.1087C34.3548 45.9991 34.1076 45.9879 33.8892 46.0781L33.4439 46.2618C33.1393 46.3875 32.8797 46.6023 32.6992 46.8779L32.2871 47.5072Z" stroke="currentColor" stroke-width="4" stroke-linecap="round" stroke-linejoin="round" />
</svg>