<svg viewBox="0 0 80 80" fill="none">
  <path d="M29.3934 14.3934C36.1847 11.5804 43.8153 11.5804 50.6066 14.3934C57.3979 17.2064 62.7936 22.6021 65.6066 29.3934C68.4196 36.1847 68.4196 43.8153 65.6066 50.6066C62.7936 57.3979 57.3979 62.7936 50.6066 65.6066C43.8153 68.4196 36.1847 68.4196 29.3934 65.6066C22.6021 62.7936 17.2064 57.3979 14.3934 50.6066C11.5804 43.8153 11.5804 36.1847 14.3934 29.3934C17.2064 22.6021 22.6021 17.2064 29.3934 14.3934Z" fill="currentColor" fill-opacity="0.15" stroke="currentColor" stroke-width="4" stroke-linecap="round" stroke-linejoin="round" />
  <path d="M33.1025 13.1479L34.1915 11.4704C33.722 11.1657 33.1464 11.0716 32.6043 11.211L33.1025 13.1479ZM33.3761 13.3363L32.1985 14.9528L32.1985 14.9528L33.3761 13.3363ZM34.0104 13.7984L32.8328 15.4149L32.8328 15.4149L34.0104 13.7984ZM38.7908 15.2815L37.4711 16.7843L37.4711 16.7843L38.7908 15.2815ZM51.3973 16.3403L50.0014 17.7726L50.0014 17.7726L51.3973 16.3403ZM52.1351 17.0593L53.531 15.6271L53.531 15.627L52.1351 17.0593ZM50.7374 19.0483L48.9589 18.1334L48.9589 18.1334L50.7374 19.0483ZM50.4457 19.6153L52.2242 20.5302L52.2242 20.5302L50.4457 19.6153ZM48.6331 20.6575L48.529 22.6548L48.6331 20.6575ZM47.6473 20.6062L47.5432 22.6035L47.6473 20.6062ZM45.0635 21.576L43.6709 20.1405L45.0635 21.576ZM44.4596 22.1618L45.8521 23.5974L45.8521 23.5974L44.4596 22.1618ZM42.475 23.0033L42.4112 21.0044L42.4112 21.0044L42.475 23.0033ZM42.218 23.0115L42.2818 25.0105H42.2818L42.218 23.0115ZM39.5856 25.7062L41.5855 25.7232V25.7232L39.5856 25.7062ZM38.8322 27.5619L40.278 28.9438L40.278 28.9438L38.8322 27.5619ZM35.2061 31.3555L36.6519 32.7374L36.6519 32.7374L35.2061 31.3555ZM33.2127 32.197L33.1946 34.1969H33.1947L33.2127 32.197ZM30.4939 34.5222L32.4724 34.8147L32.4724 34.8146L30.4939 34.5222ZM30.4843 34.5868L28.5058 34.2942L28.5058 34.2944L30.4843 34.5868ZM29.264 36.5089L30.3704 38.175V38.175L29.264 36.5089ZM28.625 36.9332L29.7313 38.5994H29.7313L28.625 36.9332ZM27.5957 39.066L25.603 39.2365L25.603 39.2366L27.5957 39.066ZM27.6273 39.4348L29.62 39.2642L29.62 39.2642L27.6273 39.4348ZM26.2451 41.4094L25.7233 39.4786L26.2451 41.4094ZM24.1711 40.607L25.8565 39.5301L24.1711 40.607ZM23.742 39.9354L25.4273 38.8585H25.4273L23.742 39.9354ZM18.864 39.7619L17.2594 38.568L17.2594 38.568L18.864 39.7619ZM18.3926 40.3954L16.788 39.2016L16.788 39.2016L18.3926 40.3954ZM17.9417 41.2994L19.8607 41.863L19.8607 41.863L17.9417 41.2994ZM17.3829 43.202L19.3019 43.7657L19.3019 43.7656L17.3829 43.202ZM16.6985 43.6349L16.3851 45.6102L16.3851 45.6102L16.6985 43.6349ZM16.2739 43.3532L14.5758 44.4098L14.5758 44.4099L16.2739 43.3532ZM13.974 39.6571L15.6721 38.6004L15.6721 38.6004L13.974 39.6571ZM12.3496 38.1613L10.354 38.0293C10.3013 38.8252 10.7266 39.5763 11.4362 39.9405L12.3496 38.1613ZM14.399 29.3844L16.2467 30.1498L14.399 29.3844ZM29.399 14.3844L28.6336 12.5367L28.6336 12.5367L29.399 14.3844ZM25.6507 46.3285L23.9694 47.4117L23.9694 47.4117L25.6507 46.3285ZM26.6926 43.881L27.0772 45.8437L27.0772 45.8437L26.6926 43.881ZM27.2832 48.8624L28.9645 47.7793L28.9645 47.7792L27.2832 48.8624ZM29.4741 50.429L28.9928 52.3702H28.9928L29.4741 50.429ZM30.8849 50.7788L30.4036 52.72L30.8849 50.7788ZM32.3832 50.3617L30.9681 48.9484L30.9681 48.9484L32.3832 50.3617ZM32.3201 48.0687L30.9848 49.5577L30.9849 49.5578L32.3201 48.0687ZM28.0745 44.2616L26.7393 45.7506L28.0745 44.2616ZM41.1024 27.3941L41.6301 25.465L41.63 25.465L41.1024 27.3941ZM41.8496 29.9604L40.3688 28.6161L41.8496 29.9604ZM39.3872 28.0321L41.0473 29.1475L41.0473 29.1475L39.3872 28.0321ZM37.9809 30.1252L39.641 31.2406L39.641 31.2406L37.9809 30.1252ZM38.7493 32.2279L38.1996 34.1508L38.1996 34.1508L38.7493 32.2279ZM40.1546 31.8274L38.6738 30.4831L38.6738 30.4831L40.1546 31.8274ZM38.3818 49.9179L38.3011 51.9163H38.3011L38.3818 49.9179ZM37.1822 48.3531L35.2314 47.9122L35.2314 47.9122L37.1822 48.3531ZM41.7377 50.0534L41.657 52.0518H41.657L41.7377 50.0534ZM42.9475 49.6922L44.1105 51.3193L44.1106 51.3193L42.9475 49.6922ZM43.2288 49.4912L44.3918 51.1183L44.3919 51.1182L43.2288 49.4912ZM43.716 48.6529L45.7055 48.858L45.7055 48.858L43.716 48.6529ZM35.8758 53.9554L37.3047 55.3548L37.3047 55.3548L35.8758 53.9554ZM39.5958 52.2849L39.4993 50.2872H39.4993L39.5958 52.2849ZM35.2299 54.6149L33.801 53.2156L33.801 53.2156L35.2299 54.6149ZM34.2281 57.3578L32.2336 57.5068V57.5068L34.2281 57.3578ZM41.7942 61.7602L40.435 63.2273H40.435L41.7942 61.7602ZM42.2349 62.1685L43.5941 60.7013L42.2349 62.1685ZM45.5837 55.3291L47.0728 53.9939H47.0728L45.5837 55.3291ZM44.6643 54.3037L43.1752 55.6389L43.1753 55.6389L44.6643 54.3037ZM39.8079 52.2747L39.9045 54.2723L39.9045 54.2723L39.8079 52.2747ZM32.6948 42.304L34.128 43.6991L34.128 43.6991L32.6948 42.304ZM33.0279 45.1204L31.9596 46.8112L31.9596 46.8112L33.0279 45.1204ZM34.709 40.2348L33.2759 38.8398L33.2759 38.8398L34.709 40.2348ZM35.6374 39.9874L36.1862 38.0641H36.1862L35.6374 39.9874ZM36.1717 41.3898L37.861 42.4604L37.861 42.4604L36.1717 41.3898ZM36.1211 41.4697L37.8104 42.5403L37.8104 42.5403L36.1211 41.4697ZM35.9709 42.1215L37.9584 41.8982L37.9584 41.8982L35.9709 42.1215ZM36.0579 42.896L34.0704 43.1193V43.1193L36.0579 42.896ZM35.6592 44.4032L34.0421 43.2264V43.2264L35.6592 44.4032ZM35.4787 44.6513L37.0958 45.8281L37.0958 45.8281L35.4787 44.6513ZM49.9568 61.5189L51.6011 62.6575V62.6575L49.9568 61.5189ZM49.9933 63.0658L51.582 61.8509L51.582 61.8509L49.9933 63.0658ZM50.8613 60.2127L52.5056 61.3513L52.5056 61.3513L50.8613 60.2127ZM52.8291 59.9876L51.4845 61.4681L51.4845 61.4681L52.8291 59.9876ZM53.0243 61.7149L54.6655 62.858L54.6655 62.858L53.0243 61.7149ZM52.1162 63.0186L50.4751 61.8755L50.4751 61.8755L52.1162 63.0186ZM32.0135 14.8255C32.0761 14.8662 32.1378 14.9086 32.1985 14.9528L34.5538 11.7198C34.4351 11.6332 34.3142 11.5501 34.1915 11.4704L32.0135 14.8255ZM32.1985 14.9528L32.8328 15.4149L35.1881 12.1819L34.5538 11.7198L32.1985 14.9528ZM32.8328 15.4149C33.8825 16.1796 35.1478 16.5917 36.4465 16.5917V12.5917C35.9943 12.5917 35.5537 12.4482 35.1881 12.1819L32.8328 15.4149ZM36.4465 16.5917H36.9598V12.5917H36.4465V16.5917ZM36.9598 16.5917C37.148 16.5917 37.3297 16.6601 37.4711 16.7843L40.1106 13.7788C39.2393 13.0136 38.1193 12.5917 36.9598 12.5917V16.5917ZM37.4711 16.7843C38.3424 17.5495 39.4624 17.9714 40.6219 17.9714V13.9714C40.4337 13.9714 40.252 13.9029 40.1105 13.7787L37.4711 16.7843ZM40.6219 17.9714L50.4903 17.9714V13.9714H40.6219V17.9714ZM50.4903 17.9714C50.3077 17.9714 50.1322 17.9001 50.0014 17.7726L52.7933 14.908C52.1771 14.3075 51.3507 13.9714 50.4903 13.9714V17.9714ZM50.0014 17.7726L50.7392 18.4916L53.531 15.627L52.7932 14.908L50.0014 17.7726ZM50.7391 18.4916C50.02 17.7907 50.5162 16.5705 51.5205 16.5705V20.5705C54.1047 20.5705 55.3816 17.4307 53.531 15.6271L50.7391 18.4916ZM51.5205 16.5705C50.4412 16.5705 49.4526 17.1738 48.9589 18.1334L52.5159 19.9631C52.3241 20.3361 51.9399 20.5705 51.5205 20.5705V16.5705ZM48.9589 18.1334L48.6672 18.7005L52.2242 20.5302L52.5159 19.9631L48.9589 18.1334ZM48.6673 18.7005C48.6806 18.6745 48.708 18.6587 48.7372 18.6603L48.529 22.6548C50.0715 22.7352 51.5177 21.9037 52.2242 20.5302L48.6673 18.7005ZM48.7372 18.6603L47.7513 18.6089L47.5432 22.6035L48.529 22.6548L48.7372 18.6603ZM47.7513 18.6089C46.2374 18.53 44.759 19.0849 43.6709 20.1405L46.456 23.0115C46.7459 22.7303 47.1398 22.5824 47.5432 22.6035L47.7513 18.6089ZM43.6709 20.1405L43.067 20.7263L45.8521 23.5974L46.456 23.0115L43.6709 20.1405ZM43.067 20.7263C42.8906 20.8974 42.6568 20.9965 42.4112 21.0044L42.5388 25.0023C43.7796 24.9627 44.9611 24.4618 45.8521 23.5974L43.067 20.7263ZM42.4112 21.0044L42.1542 21.0126L42.2818 25.0105L42.5388 25.0023L42.4112 21.0044ZM42.1542 21.0126C39.6233 21.0933 37.6073 23.1571 37.5857 25.6892L41.5855 25.7232C41.5888 25.3373 41.8961 25.0228 42.2818 25.0105L42.1542 21.0126ZM37.5857 25.6891C37.5841 25.8721 37.5129 26.0477 37.3864 26.18L40.278 28.9438C41.1077 28.0758 41.5753 26.924 41.5855 25.7232L37.5857 25.6891ZM37.3864 26.18L33.7603 29.9735L36.6519 32.7374L40.278 28.9438L37.3864 26.18ZM33.7603 29.9735C33.6223 30.118 33.4306 30.1989 33.2308 30.1971L33.1947 34.1969C34.4992 34.2087 35.7505 33.6805 36.6519 32.7374L33.7603 29.9735ZM33.2308 30.1971C30.8727 30.1758 28.8601 31.897 28.5154 34.2298L32.4724 34.8146C32.5252 34.4573 32.8335 34.1937 33.1946 34.1969L33.2308 30.1971ZM28.5154 34.2297L28.5058 34.2942L32.4628 34.8793L32.4724 34.8147L28.5154 34.2297ZM28.5058 34.2944C28.4727 34.5183 28.3462 34.7176 28.1577 34.8428L30.3704 38.175C31.5035 37.4226 32.264 36.2247 32.4629 34.8792L28.5058 34.2944ZM28.1577 34.8428L27.5186 35.2671L29.7313 38.5994L30.3704 38.175L28.1577 34.8428ZM27.5186 35.2671C26.2028 36.1409 25.4683 37.6628 25.603 39.2365L29.5885 38.8954C29.5784 38.778 29.6332 38.6645 29.7313 38.5994L27.5186 35.2671ZM25.603 39.2366L25.6346 39.6054L29.62 39.2642L29.5884 38.8954L25.603 39.2366ZM25.6346 39.6054C25.6296 39.5472 25.667 39.4938 25.7233 39.4786L26.7669 43.3401C28.5786 42.8505 29.7801 41.1341 29.62 39.2642L25.6346 39.6054ZM25.7233 39.4786C25.7742 39.4649 25.8281 39.4857 25.8565 39.5301L22.4858 41.6838C23.398 43.1116 25.1313 43.7821 26.7669 43.3401L25.7233 39.4786ZM25.8565 39.5301L25.4273 38.8585L22.0566 41.0122L22.4858 41.6838L25.8565 39.5301ZM25.4273 38.8585C23.5564 35.9303 19.3336 35.7802 17.2594 38.568L20.4686 40.9557C20.8719 40.4137 21.6929 40.4429 22.0566 41.0122L25.4273 38.8585ZM17.2594 38.568L16.788 39.2016L19.9972 41.5893L20.4686 40.9557L17.2594 38.568ZM16.788 39.2016C16.4442 39.6637 16.1851 40.1832 16.0228 40.7358L19.8607 41.863C19.8896 41.7644 19.9359 41.6717 19.9972 41.5893L16.788 39.2016ZM16.0228 40.7358L15.464 42.6385L19.3019 43.7656L19.8607 41.863L16.0228 40.7358ZM15.464 42.6384C15.6605 41.9695 16.3231 41.5504 17.0118 41.6596L16.3851 45.6102C17.6829 45.8161 18.9316 45.0263 19.3019 43.7657L15.464 42.6384ZM17.0118 41.6596C17.4091 41.7226 17.7595 41.955 17.972 42.2966L14.5758 44.4099C14.9763 45.0534 15.6365 45.4914 16.3851 45.6102L17.0118 41.6596ZM17.972 42.2966L15.6721 38.6004L12.2759 40.7137L14.5758 44.4098L17.972 42.2966ZM15.6721 38.6004C15.0752 37.6412 14.2366 36.8818 13.263 36.382L11.4362 39.9405C11.7761 40.115 12.0679 40.3794 12.2759 40.7137L15.6721 38.6004ZM14.3452 38.2933C14.5287 35.5188 15.1625 32.7672 16.2467 30.1498L12.5512 28.6191C11.2984 31.6435 10.566 34.8233 10.354 38.0293L14.3452 38.2933ZM16.2467 30.1498C18.8568 23.8486 23.8631 18.8423 30.1643 16.2322L28.6336 12.5367C21.3522 15.5527 15.5672 21.3377 12.5512 28.6191L16.2467 30.1498ZM30.1643 16.2322C31.288 15.7667 32.4364 15.3843 33.6006 15.0849L32.6043 11.211C31.2589 11.557 29.9319 11.9989 28.6336 12.5367L30.1643 16.2322ZM27.332 45.2453C27.4824 45.4787 27.3497 45.7903 27.0772 45.8437L26.3079 41.9184C23.8062 42.4086 22.5887 45.2687 23.9694 47.4117L27.332 45.2453ZM28.9645 47.7792L27.332 45.2453L23.9694 47.4117L25.602 49.9456L28.9645 47.7792ZM29.9554 48.4878C29.5469 48.3865 29.1925 48.1331 28.9645 47.7793L25.602 49.9456C26.382 51.1564 27.5949 52.0236 28.9928 52.3702L29.9554 48.4878ZM31.3662 48.8376L29.9554 48.4878L28.9928 52.3702L30.4036 52.72L31.3662 48.8376ZM30.9681 48.9484C31.0722 48.8442 31.2233 48.8021 31.3662 48.8376L30.4036 52.72C31.6226 53.0223 32.9109 52.6637 33.7984 51.775L30.9681 48.9484ZM30.9849 49.5578C30.8056 49.397 30.798 49.1188 30.9681 48.9484L33.7984 51.775C35.2489 50.3225 35.1837 47.9502 33.6553 46.5797L30.9849 49.5578ZM26.7393 45.7506L30.9848 49.5577L33.6553 46.5797L29.4098 42.7726L26.7393 45.7506ZM27.0772 45.8437C26.9562 45.8674 26.8311 45.833 26.7393 45.7506L29.4098 42.7726C28.5671 42.017 27.4186 41.7007 26.3079 41.9184L27.0772 45.8437ZM40.5747 29.3233C40.2637 29.2382 40.152 28.8548 40.3688 28.6161L43.3304 31.3048C45.12 29.3335 44.1981 26.1675 41.6301 25.465L40.5747 29.3233ZM41.0473 29.1475C40.9438 29.3015 40.7536 29.3722 40.5747 29.3233L41.63 25.465C40.1523 25.0608 38.5814 25.6451 37.7271 26.9168L41.0473 29.1475ZM39.641 31.2406L41.0473 29.1475L37.7271 26.9168L36.3208 29.0098L39.641 31.2406ZM39.2991 30.3049C39.7011 30.4199 39.8742 30.8935 39.641 31.2406L36.3208 29.0098C35.0395 30.917 35.9905 33.5193 38.1996 34.1508L39.2991 30.3049ZM38.6738 30.4831C38.8314 30.3096 39.0738 30.2405 39.2991 30.3049L38.1996 34.1508C39.4379 34.5049 40.7698 34.1253 41.6355 33.1718L38.6738 30.4831ZM40.3688 28.6161L38.6738 30.4831L41.6355 33.1718L43.3304 31.3048L40.3688 28.6161ZM38.4626 47.9195C38.9101 47.9376 39.2317 48.3571 39.133 48.794L35.2314 47.9122C34.7792 49.9128 36.2518 51.8335 38.3011 51.9163L38.4626 47.9195ZM41.8184 48.0551L38.4626 47.9195L38.3011 51.9163L41.657 52.0518L41.8184 48.0551ZM41.7845 48.0652C41.7944 48.0581 41.8063 48.0546 41.8183 48.0551L41.657 52.0518C42.5335 52.0872 43.3969 51.8295 44.1105 51.3193L41.7845 48.0652ZM42.0658 47.8641L41.7845 48.0652L44.1106 51.3193L44.3918 51.1183L42.0658 47.8641ZM41.7266 48.4477C41.7507 48.2136 41.8742 48.001 42.0658 47.8641L44.3919 51.1182C45.1336 50.5881 45.612 49.7649 45.7055 48.858L41.7266 48.4477ZM42.5432 49.3529C42.0565 49.3529 41.6767 48.9319 41.7266 48.4478L45.7055 48.858C45.8988 46.9832 44.4279 45.3529 42.5432 45.3529L42.5432 49.3529ZM38.4336 49.3529H42.5432L42.5432 45.3529H38.4336L38.4336 49.3529ZM39.133 48.794C39.0591 49.1208 38.7687 49.3529 38.4336 49.3529L38.4336 45.3529C36.8993 45.3529 35.5696 46.4156 35.2314 47.9122L39.133 48.794ZM37.3047 55.3548C37.937 54.7092 38.7898 54.3262 39.6924 54.2826L39.4993 50.2872C37.5893 50.3796 35.7848 51.1899 34.4469 52.5561L37.3047 55.3548ZM36.6588 56.0143L37.3047 55.3548L34.4469 52.5561L33.801 53.2156L36.6588 56.0143ZM36.2225 57.2089C36.1895 56.7665 36.3484 56.3313 36.6588 56.0143L33.801 53.2156C32.686 54.3542 32.115 55.9176 32.2336 57.5068L36.2225 57.2089ZM37.7614 58.6371C36.9537 58.6371 36.2827 58.0143 36.2225 57.2089L32.2336 57.5068C32.4497 60.4 34.8601 62.6371 37.7614 62.6371V58.6371ZM38.9295 58.6371H37.7614V62.6371H38.9295V58.6371ZM43.1534 60.293C42.0044 59.2285 40.4958 58.6371 38.9295 58.6371V62.6371C39.4878 62.6371 40.0254 62.8479 40.435 63.2273L43.1534 60.293ZM43.5941 60.7013L43.1534 60.293L40.435 63.2273L40.8757 63.6356L43.5941 60.7013ZM44.0582 60.8832C43.8861 60.8832 43.7204 60.8183 43.5941 60.7013L40.8757 63.6356C41.7414 64.4376 42.878 64.8832 44.0582 64.8832V60.8832ZM44.741 60.2004C44.741 60.5775 44.4353 60.8832 44.0582 60.8832V64.8832C46.6444 64.8832 48.741 62.7867 48.741 60.2004H44.741ZM44.741 58.3533V60.2004H48.741V58.3533H44.741ZM44.0947 56.6643C44.5108 57.1284 44.741 57.7299 44.741 58.3533H48.741C48.741 56.7442 48.1469 55.1919 47.0728 53.9939L44.0947 56.6643ZM43.1753 55.6389L44.0947 56.6643L47.0728 53.9939L46.1534 52.9685L43.1753 55.6389ZM39.9045 54.2723C41.1448 54.2124 42.3462 54.7143 43.1752 55.6389L46.1534 52.9685C44.5206 51.1475 42.1543 50.1589 39.7114 50.277L39.9045 54.2723ZM39.6924 54.2826L39.9045 54.2723L39.7114 50.277L39.4993 50.2872L39.6924 54.2826ZM31.2617 40.909C29.5658 42.6512 29.9042 45.5126 31.9596 46.8112L34.0961 43.4296C34.1899 43.4889 34.2054 43.6195 34.128 43.6991L31.2617 40.909ZM33.2759 38.8398L31.2617 40.909L34.128 43.6991L36.1422 41.6298L33.2759 38.8398ZM36.1862 38.0641C35.1473 37.7677 34.0295 38.0656 33.2759 38.8398L36.1421 41.6299C35.8694 41.9101 35.4647 42.0179 35.0887 41.9106L36.1862 38.0641ZM37.861 42.4604C38.9111 40.8034 38.0727 38.6024 36.1862 38.0641L35.0886 41.9106C34.4058 41.7157 34.1023 40.919 34.4824 40.3192L37.861 42.4604ZM37.8104 42.5403L37.861 42.4604L34.4824 40.3192L34.4318 40.3991L37.8104 42.5403ZM37.9584 41.8982C37.9836 42.1228 37.9314 42.3494 37.8104 42.5403L34.4318 40.399C34.0651 40.9777 33.9069 41.6641 33.9834 42.3449L37.9584 41.8982ZM38.0454 42.6727L37.9584 41.8982L33.9834 42.3448L34.0704 43.1193L38.0454 42.6727ZM37.2764 45.58C37.8869 44.741 38.1613 43.7039 38.0454 42.6727L34.0704 43.1193C34.0747 43.1573 34.0646 43.1955 34.0421 43.2264L37.2764 45.58ZM37.0958 45.8281L37.2764 45.58L34.0421 43.2264L33.8616 43.4745L37.0958 45.8281ZM31.9596 46.8112C33.6634 47.8876 35.91 47.4576 37.0958 45.8281L33.8616 43.4744C33.9157 43.4 34.0183 43.3804 34.0961 43.4296L31.9596 46.8112ZM48.3125 60.3803C47.4937 61.5627 47.5309 63.1383 48.4047 64.2808L51.582 61.8509C51.7627 62.0872 51.7704 62.413 51.6011 62.6575L48.3125 60.3803ZM49.2171 59.0741L48.3125 60.3803L51.6011 62.6575L52.5056 61.3513L49.2171 59.0741ZM54.1738 58.5071C52.6898 57.1592 50.3584 57.4259 49.217 59.0741L52.5056 61.3513C52.2705 61.6908 51.7902 61.7458 51.4845 61.4681L54.1738 58.5071ZM54.6655 62.858C55.6181 61.4902 55.4077 59.6278 54.1738 58.5071L51.4845 61.4681C51.2303 61.2372 51.1869 60.8535 51.3832 60.5718L54.6655 62.858ZM53.7574 64.1617L54.6655 62.858L51.3832 60.5718L50.4751 61.8755L53.7574 64.1617ZM48.4047 64.2808C49.7686 66.0644 52.474 66.0042 53.7574 64.1617L50.4751 61.8755C50.7405 61.4945 51.2999 61.4821 51.582 61.8509L48.4047 64.2808Z" fill="currentColor" />
</svg>