<svg viewBox="0 0 88 89" fill="none">
  <path d="M46.0132 73.6497C46.0132 72.5378 45.1119 71.6365 44.0001 71.6365C42.8883 71.6365 41.9869 72.5378 41.9869 73.6497H46.0132ZM60.1052 82.1424C61.217 82.1424 62.1183 81.2411 62.1183 80.1293C62.1183 79.0175 61.217 78.1161 60.1052 78.1161V82.1424ZM27.895 78.1161C26.7831 78.1161 25.8818 79.0175 25.8818 80.1293C25.8818 81.2411 26.7831 82.1424 27.895 82.1424L27.895 78.1161ZM46.0132 80.1293V73.6497H41.9869V80.1293H46.0132ZM44.0001 82.1424L60.1052 82.1424V78.1161L44.0001 78.1161V82.1424ZM44.0001 78.1161L27.895 78.1161L27.895 82.1424L44.0001 82.1424V78.1161Z" fill="currentColor" />
  <path d="M27.1512 66.7261L25.5166 65.5511L27.1512 66.7261ZM27.3908 68.1171L28.5098 66.4436L28.5098 66.4436L27.3908 68.1171ZM30.9051 61.504L32.0801 59.8694L30.4455 58.6943L29.2705 60.329L30.9051 61.504ZM41.0195 65.5097L40.7568 67.5057L40.7568 67.5057L41.0195 65.5097ZM66.0606 46.2951L68.0565 46.5579L68.0565 46.5578L66.0606 46.2951ZM61.6394 29.7951L60.0423 31.0206L60.0423 31.0206L61.6394 29.7951ZM53.1132 23.0386L51.2782 22.2105L50.4501 24.0454L52.285 24.8735L53.1132 23.0386ZM55.7601 17.1734L57.595 18.0015L55.7601 17.1734ZM57.0845 16.6855L56.1947 18.4913L57.0845 16.6855ZM67.5417 25.2642L69.1389 24.0387L69.1389 24.0387L67.5417 25.2642ZM73.4366 47.2642L71.4407 47.0014L71.4407 47.0014L73.4366 47.2642ZM62.0486 66.9889L60.8231 65.3917L62.0486 66.9889ZM40.0486 72.8838L40.3113 70.8878L40.0486 72.8838ZM25.5166 65.5511C24.5539 66.8902 24.826 68.8237 26.2718 69.7905L28.5098 66.4436C29.0314 66.7923 29.0994 67.4649 28.7858 67.9012L25.5166 65.5511ZM29.2705 60.329L25.5166 65.5511L28.7858 67.9012L32.5397 62.6791L29.2705 60.329ZM41.2823 63.5138C37.931 63.0726 34.7759 61.8072 32.0801 59.8694L29.7301 63.1386C32.9601 65.4605 36.7409 66.977 40.7568 67.5057L41.2823 63.5138ZM56.294 59.4914C52.0215 62.7699 46.6216 64.2168 41.2823 63.5138L40.7568 67.5057C47.1548 68.348 53.6254 66.6142 58.7451 62.6857L56.294 59.4914ZM64.0647 46.0323C63.3617 51.3716 60.5665 56.213 56.294 59.4914L58.7451 62.6857C63.8648 58.7572 67.2142 52.9559 68.0565 46.5579L64.0647 46.0323ZM60.0423 31.0206C63.3207 35.2931 64.7676 40.693 64.0647 46.0323L68.0565 46.5578C68.8988 40.1598 67.165 33.6893 63.2365 28.5696L60.0423 31.0206ZM52.285 24.8735C55.3111 26.2392 57.9846 28.3389 60.0423 31.0206L63.2365 28.5696C60.7707 25.3561 57.567 22.84 53.9413 21.2037L52.285 24.8735ZM53.9252 16.3453L51.2782 22.2105L54.9481 23.8667L57.595 18.0015L53.9252 16.3453ZM57.9742 14.8796C56.4141 14.1109 54.6035 14.8421 53.9252 16.3453L57.595 18.0015C57.374 18.4913 56.7575 18.7686 56.1947 18.4913L57.9742 14.8796ZM69.1389 24.0387C66.1415 20.1324 62.309 17.0154 57.9742 14.8796L56.1947 18.4913C59.9804 20.3565 63.3271 23.0785 65.9446 26.4897L69.1389 24.0387ZM75.4325 47.527C76.5324 39.1727 74.2685 30.7237 69.1389 24.0387L65.9446 26.4897C70.4242 32.3276 72.4012 39.7059 71.4407 47.0014L75.4325 47.527ZM63.2741 68.586C69.9592 63.4564 74.3327 55.8812 75.4325 47.527L71.4407 47.0014C70.4802 54.297 66.6609 60.9122 60.8231 65.3917L63.2741 68.586ZM39.7858 74.8797C48.1401 75.9795 56.589 73.7156 63.2741 68.586L60.8231 65.3917C54.9852 69.8713 47.6069 71.8483 40.3113 70.8878L39.7858 74.8797ZM26.2718 69.7905C30.2887 72.4766 34.9043 74.237 39.7858 74.8797L40.3113 70.8878C36.0485 70.3266 32.0179 68.7894 28.5098 66.4436L26.2718 69.7905Z" fill="currentColor" />
  <path d="M46.9132 21.3247C52.7819 22.0973 58.1033 25.1696 61.7067 29.8657C65.3101 34.5618 66.9005 40.497 66.1279 46.3657C65.3552 52.2344 62.2829 57.5557 57.5868 61.1592C52.8907 64.7626 46.9555 66.353 41.0868 65.5803C35.2182 64.8077 29.8968 61.7354 26.2933 57.0393C22.6899 52.3432 21.0996 46.408 21.8722 40.5393C22.6448 34.6706 25.7171 29.3493 30.4132 25.7458C35.1093 22.1424 41.0445 20.552 46.9132 21.3247Z" fill="currentColor" fill-opacity="0.15" stroke="currentColor" stroke-width="4" stroke-linecap="round" stroke-linejoin="round" />
  <path d="M47.0272 21.3348L47.2995 19.3402C46.6297 19.2487 45.9588 19.4995 45.5132 20.0079C45.0676 20.5163 44.907 21.2143 45.0855 21.8663L47.0272 21.3348ZM51.7924 22.5312L53.7579 22.096C53.6103 21.4292 53.1347 20.8827 52.4946 20.6445L51.7924 22.5312ZM47.2869 21.7545L48.6292 20.2541L48.6292 20.2541L47.2869 21.7545ZM49.5944 23.8187L48.2522 25.3191L49.5944 23.8187ZM51.3906 23.8077L50.03 22.3239L50.03 22.3239L51.3906 23.8077ZM36.1235 22.5684L35.4124 20.6851C34.7605 20.9312 34.2822 21.497 34.148 22.1808C34.0139 22.8646 34.2428 23.5691 34.7534 24.0434L36.1235 22.5684ZM44.0721 21.1296L45.3329 19.5601C44.977 19.2742 44.5345 19.1178 44.078 19.1165L44.0721 21.1296ZM44.2129 21.2453L42.9169 22.7858L42.9169 22.7858L44.2129 21.2453ZM49.345 25.5628L48.049 27.1033L49.345 25.5628ZM50.0342 26.9597L48.0231 27.0508L48.0231 27.0508L50.0342 26.9597ZM50.0522 27.3592L48.0412 27.4502L48.0412 27.4502L50.0522 27.3592ZM49.0958 28.7576L49.7401 30.6649L49.7401 30.6649L49.0958 28.7576ZM48.1773 30.4236L50.134 29.9502L50.134 29.9502L48.1773 30.4236ZM48.4203 31.4279L46.4636 31.9012L48.4203 31.4279ZM49.6319 32.8851L48.8094 34.7226L49.6319 32.8851ZM50.2819 33.1761L49.4594 35.0135L50.2819 33.1761ZM51.7598 32.812L50.178 31.5668L50.178 31.5668L51.7598 32.812ZM52.1435 32.3246L50.5617 31.0794L50.5617 31.0794L52.1435 32.3246ZM53.7672 32.6583L51.8225 33.1787L51.8225 33.1787L53.7672 32.6583ZM54.1074 33.1609L52.9016 34.773L52.9016 34.773L54.1074 33.1609ZM54.9151 33.7651L56.1209 32.153L54.9151 33.7651ZM55.5087 35.3717L53.5444 34.9309L53.5444 34.9309L55.5087 35.3717ZM54.4039 36.5417L53.8513 34.6059L53.8513 34.6059L54.4039 36.5417ZM46.3111 38.8521L46.8637 40.7879L46.8637 40.7879L46.3111 38.8521ZM45.7843 39.297L43.9681 38.4285L43.9681 38.4285L45.7843 39.297ZM45.7655 39.3363L47.5816 40.2048L47.5817 40.2048L45.7655 39.3363ZM44.2073 39.1203L46.1912 38.7786L46.1912 38.7786L44.2073 39.1203ZM43.8065 38.5455L44.8131 36.802L43.8065 38.5455ZM42.6284 37.8653L41.6219 39.6087L42.6284 37.8653ZM40.7723 40.234L42.2245 38.8397L42.2245 38.8397L40.7723 40.234ZM41.4808 40.9718L40.0286 42.3661L40.0286 42.3661L41.4808 40.9718ZM42.2246 42.3866L40.2527 42.7924L40.2527 42.7924L42.2246 42.3866ZM42.3393 42.9441L44.3111 42.5384L44.3111 42.5384L42.3393 42.9441ZM44.4849 46.0586L43.4032 47.7565L43.4032 47.7565L44.4849 46.0586ZM44.8767 46.3083L45.9584 44.6104L45.9584 44.6104L44.8767 46.3083ZM47.0171 49.3896L48.9857 48.9686L47.0171 49.3896ZM47.1488 50.0057L45.1802 50.4267L45.1802 50.4267L47.1488 50.0057ZM47.7782 51.2165L46.3026 52.5859L47.7782 51.2165ZM46.1399 55.9612L46.6909 57.8975L46.1399 55.9612ZM37.2048 58.5035L37.7557 60.4398L37.7557 60.4398L37.2048 58.5035ZM35.7649 59.6261L34.0215 58.6195L35.7649 59.6261ZM34.3658 62.0495L36.1092 63.056L34.3658 62.0495ZM32.5988 61.9622L34.433 61.1323L34.433 61.1323L32.5988 61.9622ZM32.5236 61.3909L30.5372 61.064L30.5372 61.064L32.5236 61.3909ZM32.768 59.9056L34.7545 60.2324L34.7545 60.2324L32.768 59.9056ZM35.9961 50.9114L34.0037 51.1999L34.0037 51.1999L35.9961 50.9114ZM36.6583 47.1349L38.4337 48.0841L38.4337 48.0841L36.6583 47.1349ZM37.5528 45.4618L39.3282 46.411L37.5528 45.4618ZM38.7683 44.4445L39.3901 46.3592L39.3901 46.3592L38.7683 44.4445ZM38.876 44.4095L38.2542 42.4948L38.2542 42.4948L38.876 44.4095ZM40.2252 42.1992L38.238 42.5214L38.238 42.5215L40.2252 42.1992ZM39.5189 40.9762L40.7914 39.4162L40.7914 39.4162L39.5189 40.9762ZM38.6744 40.2873L37.402 41.8473L37.402 41.8473L38.6744 40.2873ZM36.9953 37.5439L38.9634 37.1205L38.9634 37.1205L36.9953 37.5439ZM36.1139 33.4473L34.1458 33.8707L34.1458 33.8707L36.1139 33.4473ZM36.533 28.7928L34.6722 28.0246L34.6722 28.0246L36.533 28.7928ZM37.0914 27.4401L35.2306 26.6719L37.0914 27.4401ZM37.12 24.2866L38.9945 23.5522L38.9945 23.5522L37.12 24.2866ZM36.8852 23.6872L38.7597 22.9529L38.7597 22.9529L36.8852 23.6872ZM61.4979 29.5841L63.0756 28.3336C62.3957 27.4759 61.155 27.3185 60.2825 27.9793L61.4979 29.5841ZM61.7143 29.8615L60.1171 31.0871L60.1171 31.0871L61.7143 29.8615ZM65.7485 38.4027L66.2514 40.352C67.3095 40.0791 67.9566 39.0119 67.7096 37.9476L65.7485 38.4027ZM63.492 38.9848L63.9949 40.9341L63.9949 40.9341L63.492 38.9848ZM60.1939 36.8395L58.2112 37.1883L58.2113 37.1883L60.1939 36.8395ZM60.548 35.0122L62.2533 36.0821L62.2533 36.0821L60.548 35.0122ZM60.875 33.0536L62.8353 32.5956L62.8353 32.5956L60.875 33.0536ZM60.6275 31.9942L62.5878 31.5362L62.5878 31.5362L60.6275 31.9942ZM61.105 29.9609L59.5534 28.6782L59.5534 28.6782L61.105 29.9609ZM53.6364 27.0707L55.5115 26.338L55.5115 26.338L53.6364 27.0707ZM54.6933 25.2029L54.3559 23.2183L54.3559 23.2183L54.6933 25.2029ZM55.1162 30.8575L53.2411 31.5902L53.2411 31.5902L55.1162 30.8575ZM55.5039 31.2967L56.4638 29.5272L56.4638 29.5272L55.5039 31.2967ZM56.7581 30.4509L58.7584 30.2242L58.7584 30.2242L56.7581 30.4509ZM56.3001 26.4112L54.2998 26.638L54.2998 26.638L56.3001 26.4112ZM46.7548 23.3294C48.2473 23.5332 49.7002 23.9005 51.0902 24.4179L52.4946 20.6445C50.8288 20.0245 49.0877 19.5843 47.2995 19.3402L46.7548 23.3294ZM45.0855 21.8663C45.2282 22.3878 45.5191 22.8741 45.9447 23.2548L48.6292 20.2541C48.7969 20.4041 48.9124 20.5972 48.9689 20.8032L45.0855 21.8663ZM45.9447 23.2548L48.2522 25.3191L50.9367 22.3184L48.6292 20.2541L45.9447 23.2548ZM48.2522 25.3191C49.536 26.4676 51.4814 26.4557 52.7511 25.2916L50.03 22.3239C50.2859 22.0893 50.6779 22.0869 50.9367 22.3184L48.2522 25.3191ZM52.7511 25.2916C53.6929 24.428 54.0003 23.191 53.7579 22.096L49.8268 22.9663C49.7803 22.7563 49.8399 22.4983 50.03 22.3239L52.7511 25.2916ZM36.8346 24.4518C39.137 23.5825 41.5875 23.1355 44.0663 23.1427L44.078 19.1165C41.1074 19.1078 38.1711 19.6435 35.4124 20.6851L36.8346 24.4518ZM42.8113 22.699C42.8468 22.7276 42.882 22.7565 42.9169 22.7858L45.5089 19.7048C45.4508 19.6559 45.3921 19.6077 45.3329 19.5601L42.8113 22.699ZM42.9169 22.7858L48.049 27.1033L50.641 24.0223L45.5089 19.7048L42.9169 22.7858ZM48.049 27.1033C48.0334 27.0902 48.024 27.0711 48.0231 27.0508L52.0452 26.8686C51.9953 25.7653 51.4861 24.7333 50.641 24.0223L48.049 27.1033ZM48.0231 27.0508L48.0412 27.4502L52.0633 27.2681L52.0452 26.8686L48.0231 27.0508ZM48.0412 27.4502C48.029 27.1812 48.1963 26.9366 48.4515 26.8504L49.7401 30.6649C51.1849 30.1768 52.1323 28.7915 52.0633 27.2681L48.0412 27.4502ZM48.4515 26.8504C46.7719 27.4177 45.8038 29.1738 46.2206 30.8969L50.134 29.9502C50.2077 30.2545 50.0367 30.5647 49.7401 30.6649L48.4515 26.8504ZM46.2206 30.8969L46.4636 31.9012L50.377 30.9545L50.134 29.9502L46.2206 30.8969ZM46.4636 31.9012C46.7667 33.1541 47.6329 34.1959 48.8094 34.7226L50.4544 31.0477C50.4156 31.0303 50.387 30.9959 50.377 30.9545L46.4636 31.9012ZM48.8094 34.7226L49.4594 35.0135L51.1044 31.3386L50.4544 31.0477L48.8094 34.7226ZM49.4594 35.0135C50.8197 35.6224 52.4198 35.2283 53.3416 34.0572L50.178 31.5668C50.398 31.2874 50.7798 31.1933 51.1044 31.3386L49.4594 35.0135ZM53.3416 34.0572L53.7253 33.5698L50.5617 31.0794L50.178 31.5668L53.3416 34.0572ZM53.7253 33.5698C53.172 34.2727 52.0537 34.0429 51.8225 33.1787L55.7119 32.1379C55.086 29.7989 52.0594 29.1769 50.5617 31.0794L53.7253 33.5698ZM51.8225 33.1787C51.9931 33.8162 52.3732 34.3778 52.9016 34.773L55.3132 31.5489C55.5084 31.6949 55.6489 31.9024 55.7119 32.1379L51.8225 33.1787ZM52.9016 34.773L53.7093 35.3772L56.1209 32.153L55.3132 31.5489L52.9016 34.773ZM53.7093 35.3772C53.5712 35.2739 53.5067 35.0991 53.5444 34.9309L57.473 35.8124C57.7826 34.4328 57.2532 32.9999 56.1209 32.153L53.7093 35.3772ZM53.5444 34.9309C53.5795 34.7745 53.6972 34.6498 53.8513 34.6059L54.9566 38.4775C56.22 38.1168 57.1853 37.0945 57.473 35.8124L53.5444 34.9309ZM53.8513 34.6059L45.7584 36.9163L46.8637 40.7879L54.9566 38.4775L53.8513 34.6059ZM45.7584 36.9163C44.9726 37.1406 44.3207 37.6912 43.9681 38.4285L47.6004 40.1656C47.4553 40.469 47.1871 40.6956 46.8637 40.7879L45.7584 36.9163ZM43.9681 38.4285L43.9493 38.4678L47.5817 40.2048L47.6004 40.1656L43.9681 38.4285ZM43.9494 38.4677C44.4488 37.4235 45.9947 37.6378 46.1912 38.7786L42.2233 39.462C42.6929 42.1886 46.3879 42.7009 47.5816 40.2048L43.9494 38.4677ZM46.1912 38.7786C46.0481 37.9478 45.5431 37.2236 44.8131 36.802L42.7999 40.2889C42.4945 40.1125 42.2832 39.8095 42.2233 39.462L46.1912 38.7786ZM44.8131 36.802L43.635 36.1219L41.6219 39.6087L42.7999 40.2889L44.8131 36.802ZM43.635 36.1219C41.9453 35.1463 39.7846 35.7253 38.809 37.415L42.2959 39.4281C42.1596 39.6641 41.8579 39.745 41.6219 39.6087L43.635 36.1219ZM38.809 37.415C38.0228 38.7767 38.2312 40.4941 39.3202 41.6283L42.2245 38.8397C42.3766 38.9981 42.4057 39.238 42.2959 39.4281L38.809 37.415ZM39.3202 41.6283L40.0286 42.3661L42.9329 39.5775L42.2245 38.8397L39.3202 41.6283ZM40.0286 42.3661C40.142 42.4842 40.2197 42.632 40.2527 42.7924L44.1964 41.9809C44.0103 41.0767 43.5723 40.2435 42.9329 39.5775L40.0286 42.3661ZM40.2527 42.7924L40.3674 43.3498L44.3111 42.5384L44.1964 41.9809L40.2527 42.7924ZM40.3674 43.3498C40.7417 45.1688 41.8369 46.7586 43.4032 47.7565L45.5666 44.3608C44.9188 43.9481 44.4659 43.2906 44.3111 42.5384L40.3674 43.3498ZM43.4032 47.7565L43.795 48.0061L45.9584 44.6104L45.5666 44.3608L43.4032 47.7565ZM43.795 48.0061C44.4376 48.4155 44.8891 49.0655 45.0484 49.8106L48.9857 48.9686C48.6009 47.1691 47.5104 45.5992 45.9584 44.6104L43.795 48.0061ZM45.0484 49.8106L45.1802 50.4267L49.1174 49.5847L48.9857 48.9686L45.0484 49.8106ZM45.1802 50.4267C45.3529 51.2344 45.7407 51.9805 46.3026 52.5859L49.2539 49.8471C49.1856 49.7736 49.1384 49.6829 49.1174 49.5847L45.1802 50.4267ZM46.3026 52.5859C46.4689 52.7651 46.4989 53.0317 46.3767 53.2434L49.8636 55.2565C50.8691 53.5149 50.6218 51.3212 49.2539 49.8471L46.3026 52.5859ZM46.3767 53.2434L46.201 53.5477L49.6879 55.5609L49.8636 55.2565L46.3767 53.2434ZM46.201 53.5477C46.0667 53.7803 45.8472 53.9514 45.589 54.0249L46.6909 57.8975C47.9555 57.5376 49.0304 56.6996 49.6879 55.5609L46.201 53.5477ZM45.589 54.0249L36.6538 56.5672L37.7557 60.4398L46.6909 57.8975L45.589 54.0249ZM36.6538 56.5672C35.5431 56.8833 34.599 57.6194 34.0215 58.6195L37.5084 60.6326C37.5626 60.5387 37.6513 60.4695 37.7557 60.4398L36.6538 56.5672ZM34.0215 58.6195L32.6224 61.0429L36.1092 63.056L37.5084 60.6326L34.0215 58.6195ZM32.6224 61.0429C33.0372 60.3244 34.091 60.3765 34.433 61.1323L30.7647 62.792C31.7742 65.0233 34.8847 65.177 36.1092 63.056L32.6224 61.0429ZM34.433 61.1323C34.5159 61.3156 34.5427 61.5193 34.51 61.7177L30.5372 61.064C30.4408 61.6498 30.5199 62.2511 30.7647 62.792L34.433 61.1323ZM34.51 61.7178L34.7545 60.2324L30.7816 59.5787L30.5372 61.064L34.51 61.7178ZM34.7545 60.2324C34.8318 59.7625 34.9934 59.3103 35.2316 58.8978L31.7447 56.8847C31.264 57.7173 30.9377 58.63 30.7816 59.5787L34.7545 60.2324ZM35.2316 58.8978L36.98 55.8695L33.4931 53.8564L31.7447 56.8847L35.2316 58.8978ZM36.98 55.8695C37.8957 54.2835 38.2509 52.4354 37.9885 50.6229L34.0037 51.1999C34.1366 52.1176 33.9568 53.0533 33.4931 53.8564L36.98 55.8695ZM37.9885 50.6229C37.8622 49.7508 38.0182 48.8612 38.4337 48.0841L34.883 46.1858C34.0624 47.7205 33.7544 49.4775 34.0037 51.1999L37.9885 50.6229ZM38.4337 48.0841L39.3282 46.411L35.7775 44.5127L34.883 46.1858L38.4337 48.0841ZM39.3282 46.411C39.3413 46.3864 39.3635 46.3678 39.3901 46.3592L38.1466 42.5298C37.1303 42.8598 36.2813 43.5704 35.7775 44.5127L39.3282 46.411ZM39.3901 46.3592L39.4977 46.3242L38.2542 42.4948L38.1466 42.5298L39.3901 46.3592ZM39.4977 46.3242C41.3757 45.7144 42.5284 43.8261 42.2123 41.877L38.238 42.5215C38.238 42.5216 38.2378 42.5204 38.2379 42.5184C38.2379 42.5164 38.2381 42.5143 38.2385 42.5124C38.2393 42.5087 38.2404 42.5064 38.2412 42.5051C38.242 42.5038 38.2435 42.5018 38.2464 42.4994C38.248 42.4982 38.2497 42.497 38.2514 42.4961C38.2532 42.4951 38.2543 42.4948 38.2542 42.4948L39.4977 46.3242ZM42.2123 41.877C42.0556 40.9105 41.5501 40.0351 40.7914 39.4162L38.2465 42.5362C38.2419 42.5325 38.2389 42.5272 38.238 42.5214L42.2123 41.877ZM40.7914 39.4162L39.9469 38.7273L37.402 41.8473L38.2465 42.5362L40.7914 39.4162ZM39.9469 38.7273C39.4461 38.3189 39.0993 37.7522 38.9634 37.1205L35.0272 37.9673C35.3554 39.4928 36.1929 40.8611 37.402 41.8473L39.9469 38.7273ZM38.9634 37.1205L38.0821 33.0239L34.1458 33.8707L35.0272 37.9673L38.9634 37.1205ZM38.0821 33.0239C37.8327 31.8646 37.9414 30.657 38.3938 29.561L34.6722 28.0246C33.9084 29.875 33.7248 31.9137 34.1458 33.8707L38.0821 33.0239ZM38.3938 29.561L38.9523 28.2082L35.2306 26.6719L34.6722 28.0246L38.3938 29.561ZM38.9523 28.2082C39.5667 26.7198 39.5818 25.0515 38.9945 23.5522L35.2456 25.0209C35.4539 25.5525 35.4485 26.1441 35.2306 26.6719L38.9523 28.2082ZM38.9945 23.5522L38.7597 22.9529L35.0108 24.4215L35.2456 25.0209L38.9945 23.5522ZM38.7597 22.9529C38.4784 22.2348 38.0416 21.6026 37.4936 21.0935L34.7534 24.0434C34.8649 24.147 34.9535 24.2753 35.0108 24.4215L38.7597 22.9529ZM59.9203 30.8347C59.9865 30.9182 60.0521 31.0024 60.1171 31.0871L63.3114 28.636C63.2335 28.5345 63.1549 28.4337 63.0756 28.3336L59.9203 30.8347ZM60.1171 31.0871C61.8981 33.4081 63.1386 36.0617 63.7875 38.8578L67.7096 37.9476C66.932 34.5973 65.4455 31.4173 63.3114 28.636L60.1171 31.0871ZM63.9949 40.9341L66.2514 40.352L65.2457 36.4534L62.9892 37.0355L63.9949 40.9341ZM58.2113 37.1883C58.6799 39.8518 61.3277 41.6222 63.9949 40.9341L62.9892 37.0355C62.6438 37.1246 62.2471 36.8913 62.1766 36.4906L58.2113 37.1883ZM58.8427 33.9424C58.2345 34.9119 58.0153 36.0749 58.2112 37.1883L62.1766 36.4906C62.151 36.3452 62.1823 36.1953 62.2533 36.0821L58.8427 33.9424ZM58.9146 33.5115C58.949 33.659 58.9232 33.8141 58.8427 33.9424L62.2533 36.0821C62.9046 35.0441 63.1141 33.7889 62.8353 32.5956L58.9146 33.5115ZM58.6671 32.4522L58.9146 33.5115L62.8353 32.5956L62.5878 31.5362L58.6671 32.4522ZM59.5534 28.6782C58.6849 29.7288 58.357 31.1248 58.6671 32.4522L62.5878 31.5362C62.5638 31.4333 62.5892 31.3251 62.6565 31.2436L59.5534 28.6782ZM60.2825 27.9793C60.0167 28.1806 59.7716 28.4143 59.5534 28.6782L62.6565 31.2437C62.6745 31.2219 62.6936 31.2039 62.7134 31.189L60.2825 27.9793ZM55.5115 26.338C55.6567 26.7095 55.424 27.1207 55.0307 27.1876L54.3559 23.2183C52.2335 23.5791 50.9778 25.7981 51.7613 27.8034L55.5115 26.338ZM56.9912 30.1248L55.5115 26.338L51.7613 27.8034L53.2411 31.5902L56.9912 30.1248ZM56.4638 29.5272C56.7047 29.6579 56.8915 29.8696 56.9912 30.1248L53.2411 31.5902C53.4874 32.2206 53.9489 32.7435 54.5439 33.0663L56.4638 29.5272ZM54.7578 30.6777C54.6521 29.7455 55.6391 29.0798 56.4638 29.5272L54.5439 33.0663C56.5811 34.1715 59.0195 32.5271 58.7584 30.2242L54.7578 30.6777ZM54.2998 26.638L54.7578 30.6777L58.7584 30.2242L58.3004 26.1844L54.2998 26.638ZM55.0307 27.1876C54.6744 27.2482 54.3405 26.997 54.2998 26.638L58.3004 26.1844C58.0807 24.2467 56.2784 22.8915 54.3559 23.2183L55.0307 27.1876Z" fill="currentColor" />
</svg>