<svg viewBox="0 0 80 80" fill="none">
  <path d="M29.3934 14.3934C36.1847 11.5804 43.8153 11.5804 50.6066 14.3934C57.3979 17.2064 62.7936 22.6021 65.6066 29.3934C68.4196 36.1847 68.4196 43.8153 65.6066 50.6066C62.7936 57.3979 57.3979 62.7936 50.6066 65.6066C43.8153 68.4196 36.1847 68.4196 29.3934 65.6066C22.6021 62.7936 17.2064 57.3979 14.3934 50.6066C11.5804 43.8153 11.5804 36.1847 14.3934 29.3934C17.2064 22.6021 22.6021 17.2064 29.3934 14.3934Z" fill="currentColor" fill-opacity="0.15" stroke="currentColor" stroke-width="4" />
  <path d="M23.1527 31.3182L21.7658 29.8772H21.7658L23.1527 31.3182ZM21.2842 31.9603L21.4923 29.9712H21.4923L21.2842 31.9603ZM23.8151 30.6807L22.4282 29.2396L23.8151 30.6807ZM26.8869 29.4739L26.8517 31.4736H26.8517L26.8869 29.4739ZM26.9242 29.4746L28.4316 28.1601C28.0598 27.7338 27.5249 27.4848 26.9594 27.4749L26.9242 29.4746ZM29.0569 31.9205L27.5495 33.2349C27.9709 33.7182 28.5985 33.9701 29.2371 33.9123L29.0569 31.9205ZM30.6929 31.7724L30.5127 29.7806L30.5127 29.7806L30.6929 31.7724ZM31.5542 31.6945L31.7344 33.6864H31.7345L31.5542 31.6945ZM32.8811 31.0763L34.2902 32.4957L34.2902 32.4957L32.8811 31.0763ZM34.2749 30.4531L34.1567 28.4566H34.1567L34.2749 30.4531ZM37.0537 31.9691L38.5455 30.6371V30.6371L37.0537 31.9691ZM36.9452 35.2191L35.5455 33.7905L36.9452 35.2191ZM35.2186 35.8904L35.2856 33.8915H35.2856L35.2186 35.8904ZM33.1802 35.8221L33.1133 37.821H33.1133L33.1802 35.8221ZM32.5305 36.1898L34.2786 37.1615L34.2786 37.1615L32.5305 36.1898ZM31.6673 36.5174L32.3306 34.6306H32.3306L31.6673 36.5174ZM28.3573 35.3538L27.694 37.2407L27.694 37.2407L28.3573 35.3538ZM27.76 34.6112L29.7452 34.3681V34.3681L27.76 34.6112ZM26.8329 33.8178L26.8998 35.8167H26.8998L26.8329 33.8178ZM23.6534 33.9243L23.7203 35.9232H23.7203L23.6534 33.9243ZM23.1458 33.6924L24.7003 32.4342L24.7003 32.4341L23.1458 33.6924ZM22.1676 33.6985L20.5975 32.4596L20.5975 32.4596L22.1676 33.6985ZM20.3798 35.9643L18.8097 34.7254L18.8097 34.7254L20.3798 35.9643ZM19.7662 37.4671L17.7777 37.2531H17.7777L19.7662 37.4671ZM19.5014 39.9276L21.4899 40.1416V40.1416L19.5014 39.9276ZM21.5871 45.8066L20.178 47.2259H20.178L21.5871 45.8066ZM22.5526 46.7652L23.9617 45.3458L23.9617 45.3458L22.5526 46.7652ZM25.2109 47.8796L25.1866 49.8794H25.1866L25.2109 47.8796ZM29.0029 51.6488L31.0026 51.6125V51.6125L29.0029 51.6488ZM29.0309 53.1875L31.0306 53.1512L29.0309 53.1875ZM30.1844 55.4987L31.4155 53.9225L31.4155 53.9225L30.1844 55.4987ZM31.3369 57.7686L33.3359 57.7047L31.3369 57.7686ZM31.4491 61.2842L29.4502 61.348L31.4491 61.2842ZM32.0632 63.0612L30.4513 64.2451L32.0632 63.0612ZM34.5616 64.3553L34.6046 62.3558H34.6046L34.5616 64.3553ZM36.949 63.3747L35.5093 61.9864H35.5093L36.949 63.3747ZM38.0714 62.2106L39.5111 63.5989H39.5111L38.0714 62.2106ZM40.0054 57.4411L42.0054 57.4476L40.0054 57.4411ZM40.0207 52.738L38.0207 52.7315L40.0207 52.738ZM41.5612 49.0036L42.9841 50.409L41.5612 49.0036ZM42.5238 48.029L43.9467 49.4345L43.9467 49.4345L42.5238 48.029ZM43.2745 45.2099L45.2079 44.6982L45.2079 44.6982L43.2745 45.2099ZM42.5327 43.9047L43.9616 42.5054L43.9616 42.5054L42.5327 43.9047ZM38.0444 39.3216L36.6155 40.721L36.6155 40.721L38.0444 39.3216ZM38.1636 38.1898L39.2696 39.8562L39.2696 39.8562L38.1636 38.1898ZM39.1037 38.2927L37.6633 39.6803L37.6634 39.6803L39.1037 38.2927ZM41.4326 40.7102L39.9923 42.0978L41.4326 40.7102ZM43.9854 41.8577L44.0671 39.8593H44.067L43.9854 41.8577ZM44.7148 41.8875L44.7964 39.8891L44.7148 41.8875ZM46.2655 41.2859L44.8576 39.8654L44.8576 39.8654L46.2655 41.2859ZM46.2651 38.3278L44.8576 39.7487L46.2651 38.3278ZM43.8646 35.9498L42.457 37.3706L42.4571 37.3706L43.8646 35.9498ZM43.7718 35.2491L42.0428 34.2438L42.0428 34.2438L43.7718 35.2491ZM44.6745 35.1261L43.2775 36.5573L43.2775 36.5574L44.6745 35.1261ZM45.7696 36.195L44.3726 37.6263L44.3726 37.6263L45.7696 36.195ZM46.9957 36.6985L47.0076 34.6985H47.0076L46.9957 36.6985ZM47.9521 36.7042L47.9402 38.7041H47.9402L47.9521 36.7042ZM51.4422 38.6567L49.7441 39.7133L49.7441 39.7133L51.4422 38.6567ZM53.7422 42.3528L52.0441 43.4095L53.7422 42.3528ZM54.1668 42.6345L53.8534 44.6098V44.6098L54.1668 42.6345ZM54.8512 42.2017L56.7702 42.7652V42.7652L54.8512 42.2017ZM55.41 40.299L57.3289 40.8626L57.329 40.8626L55.41 40.299ZM55.8609 39.395L54.2563 38.2012L54.2563 38.2012L55.8609 39.395ZM56.3323 38.7615L57.9368 39.9554L56.3323 38.7615ZM61.2103 38.935L62.8956 37.8581V37.8581L61.2103 38.935ZM61.6394 39.6066L63.3247 38.5297L61.6394 39.6066ZM63.7134 40.409L63.1916 38.4782L63.1916 38.4782L63.7134 40.409ZM65.0956 38.4344L63.1029 38.605V38.605L65.0956 38.4344ZM65.064 38.0656L63.0713 38.2361V38.2361L65.064 38.0656ZM66.0932 35.9329L64.9869 34.2667V34.2667L66.0932 35.9329ZM66.7323 35.5085L67.8386 37.1746L67.8386 37.1746L66.7323 35.5085ZM67.2758 35.0365L68.7706 36.3652C69.1791 35.9057 69.3535 35.2839 69.2436 34.679L67.2758 35.0365ZM65.6123 29.3843L67.4601 28.6189V28.6189L65.6123 29.3843ZM50.6123 14.3843L51.3777 12.5365V12.5365L50.6123 14.3843ZM49.8099 14.0664L50.5174 12.1957C50.0847 12.0321 49.6086 12.0235 49.1703 12.1714L49.8099 14.0664ZM48.0769 15.2912L49.6499 16.5265L49.6499 16.5265L48.0769 15.2912ZM47.7468 15.7116L46.1739 14.4763L46.1739 14.4763L47.7468 15.7116ZM43.9902 17.5472L43.9981 19.5472L43.9902 17.5472ZM40.1649 17.5623L40.157 15.5623L40.1649 17.5623ZM36.7229 16.2065L35.3532 17.6638L35.3532 17.6638L36.7229 16.2065ZM36.6017 16.0925L37.9715 14.6352L37.9714 14.6352L36.6017 16.0925ZM33.7741 14.8703L33.8971 12.8741L33.7741 14.8703ZM30.3233 16.1551L28.9247 14.7254V14.7254L30.3233 16.1551ZM28.7695 17.6749L27.371 16.2452L27.371 16.2452L28.7695 17.6749ZM28.4647 18.8665L26.5514 19.449L28.4647 18.8665ZM30.377 19.4133L29.0609 17.9074V17.9074L30.377 19.4133ZM31.8779 18.1017L30.5618 16.5957L31.8779 18.1017ZM32.9968 18.1959L34.5463 16.9314L34.5463 16.9314L32.9968 18.1959ZM32.9616 19.2238L31.5024 17.856L31.5024 17.856L32.9616 19.2238ZM31.6541 20.6186L33.1133 21.9864L33.1133 21.9864L31.6541 20.6186ZM31.2798 21.4529L29.288 21.2723L29.288 21.2723L31.2798 21.4529ZM29.9103 22.7312L29.9534 24.7307H29.9534L29.9103 22.7312ZM28.0165 22.7721L27.9734 20.7725H27.9734L28.0165 22.7721ZM25.73 23.6802L27.0706 25.1644L27.0706 25.1644L25.73 23.6802ZM22.7824 22.6155L24.7152 22.1013L22.7824 22.6155ZM20.3948 20.4049L20.7625 18.439C20.1134 18.3176 19.4463 18.5244 18.9797 18.9916L20.3948 20.4049ZM17.1558 24.3038L15.5069 23.1718C15.0658 23.8144 15.0381 24.6547 15.4361 25.3249L17.1558 24.3038ZM19.1593 25.486L19.2201 23.4869H19.2201L19.1593 25.486ZM22.3909 28.1545L24.201 29.0052H24.201L22.3909 28.1545ZM21.0395 29.3407L21.6485 31.2458H21.6485L21.0395 29.3407ZM20.1406 29.6281L19.5316 27.7231L20.1406 29.6281ZM19.3555 30.9001L17.3796 31.2097H17.3796L19.3555 30.9001ZM20.3709 31.8648L20.5789 29.8756L20.5789 29.8756L20.3709 31.8648ZM67.2959 44.8333L69.2651 45.1827C69.386 44.5015 69.1462 43.8062 68.6311 43.3443L67.2959 44.8333ZM66.1684 49.1405L65.2631 50.9239C65.7774 51.1849 66.3793 51.2113 66.9145 50.9961C67.4496 50.7809 67.8658 50.3452 68.0562 49.8008L66.1684 49.1405ZM64.7515 47.8621L66.4328 46.7789H66.4328L64.7515 47.8621ZM63.119 45.3281L64.8002 44.2449V44.2449L63.119 45.3281ZM64.1608 42.8807L64.5455 44.8433H64.5455L64.1608 42.8807ZM65.5428 43.2613L64.2076 44.7503L65.5428 43.2613ZM36.156 29.2469L34.3449 28.3985V28.3985L36.156 29.2469ZM39.006 27.2824L39.1545 29.2769L39.006 27.2824ZM39.7205 27.2292L39.572 25.2347H39.572L39.7205 27.2292ZM41.6474 28.1381L43.2809 26.9841L41.6474 28.1381ZM42.0403 28.6943L43.6738 27.5403L43.6738 27.5403L42.0403 28.6943ZM41.8458 30.5172L40.4924 29.0446L40.4924 29.0446L41.8458 30.5172ZM40.2277 30.706L41.2057 28.9614L41.2057 28.9614L40.2277 30.706ZM39.6503 30.3823L38.6722 32.1268L38.6722 32.1268L39.6503 30.3823ZM38.2902 30.1003L38.0863 28.1107L38.0863 28.1107L38.2902 30.1003ZM42.4847 56.6182L40.4879 56.5059V56.5059L42.4847 56.6182ZM42.5375 55.6795L40.5407 55.5671V55.5671L42.5375 55.6795ZM42.9587 54.5471L44.5437 55.7668L44.5437 55.7668L42.9587 54.5471ZM43.3259 54.0699L44.911 55.2895L44.911 55.2895L43.3259 54.0699ZM44.0756 53.6812L43.9923 51.6829H43.9923L44.0756 53.6812ZM45.1151 54.7109L43.1162 54.6464L45.1151 54.7109ZM45.0703 56.098L43.0714 56.0334V56.0334L45.0703 56.098ZM44.8232 56.9517L46.5476 57.9649L46.5476 57.9649L44.8232 56.9517ZM44.6367 57.2692L46.361 58.2824L46.3611 58.2824L44.6367 57.2692ZM27.6497 33.3416C28.4346 34.1188 29.7009 34.1126 30.4781 33.3277C31.2552 32.5428 31.249 31.2765 30.4641 30.4993L27.6497 33.3416ZM28.4719 28.2079C27.7724 27.3531 26.5123 27.2272 25.6575 27.9268C24.8027 28.6263 24.6768 29.8864 25.3764 30.7412L28.4719 28.2079ZM21.7658 29.8772C21.6929 29.9473 21.5929 29.9817 21.4923 29.9712L21.0762 33.9495C22.3497 34.0827 23.617 33.6471 24.5396 32.7592L21.7658 29.8772ZM22.4282 29.2396L21.7658 29.8772L24.5396 32.7592L25.202 32.1217L22.4282 29.2396ZM26.9221 27.4742C25.2495 27.4448 23.6335 28.0796 22.4282 29.2396L25.202 32.1217C25.6444 31.6958 26.2377 31.4628 26.8517 31.4736L26.9221 27.4742ZM26.9594 27.4749L26.9221 27.4742L26.8517 31.4736L26.8889 31.4742L26.9594 27.4749ZM30.5643 30.6061L28.4316 28.1601L25.4167 30.789L27.5495 33.2349L30.5643 30.6061ZM30.5127 29.7806L28.8767 29.9286L29.2371 33.9123L30.8732 33.7643L30.5127 29.7806ZM31.374 29.7026L30.5127 29.7806L30.8732 33.7643L31.7344 33.6864L31.374 29.7026ZM31.472 29.657C31.4457 29.6832 31.411 29.6993 31.374 29.7026L31.7345 33.6864C32.699 33.5991 33.6028 33.178 34.2902 32.4957L31.472 29.657ZM34.1567 28.4566C33.1455 28.5165 32.1909 28.9433 31.472 29.657L34.2902 32.4957C34.3177 32.4683 34.3543 32.4519 34.3931 32.4496L34.1567 28.4566ZM35.5103 28.3765L34.1567 28.4566L34.3931 32.4496L35.7467 32.3695L35.5103 28.3765ZM38.5455 30.6371L37.1203 29.0409L34.1366 31.7051L35.5618 33.3012L38.5455 30.6371ZM38.3448 36.6477C40.0067 35.0195 40.0951 32.3725 38.5455 30.6371L35.5618 33.3012C35.688 33.4425 35.6808 33.6579 35.5455 33.7905L38.3448 36.6477ZM35.1517 37.8893C36.341 37.9291 37.4948 37.4805 38.3448 36.6477L35.5455 33.7905C35.4763 33.8582 35.3824 33.8948 35.2856 33.8915L35.1517 37.8893ZM33.1133 37.821L35.1517 37.8893L35.2856 33.8915L33.2472 33.8232L33.1133 37.821ZM34.2786 37.1615C34.0446 37.5825 33.5947 37.8371 33.1133 37.821L33.2472 33.8232C32.229 33.7891 31.2773 34.3277 30.7824 35.2182L34.2786 37.1615ZM31.004 38.4042C32.2526 38.8431 33.6357 38.3182 34.2786 37.1615L30.7824 35.2182C31.0864 34.6713 31.7403 34.4231 32.3306 34.6306L31.004 38.4042ZM27.694 37.2407L31.004 38.4042L32.3306 34.6306L29.0206 33.467L27.694 37.2407ZM25.7749 34.8542C25.909 35.9498 26.6527 36.8746 27.694 37.2407L29.0206 33.467C29.4137 33.6053 29.6946 33.9545 29.7452 34.3681L25.7749 34.8542ZM26.8998 35.8167C26.3321 35.8357 25.8439 35.418 25.7749 34.8542L29.7452 34.3681C29.5624 32.875 28.2695 31.7686 26.766 31.819L26.8998 35.8167ZM23.7203 35.9232L26.8998 35.8167L26.766 31.819L23.5865 31.9254L23.7203 35.9232ZM21.5912 34.9507C22.1092 35.5907 22.8974 35.9507 23.7203 35.9232L23.5865 31.9254C24.017 31.911 24.4293 32.0993 24.7003 32.4342L21.5912 34.9507ZM23.7377 34.9374C23.1919 35.629 22.1455 35.6355 21.5912 34.9507L24.7003 32.4341C23.6409 31.1252 21.6406 31.1377 20.5975 32.4596L23.7377 34.9374ZM21.9498 37.2032L23.7377 34.9374L20.5975 32.4596L18.8097 34.7254L21.9498 37.2032ZM21.7547 37.6811C21.7735 37.5066 21.8411 37.3409 21.9498 37.2032L18.8097 34.7254C18.2347 35.4541 17.877 36.3302 17.7777 37.2531L21.7547 37.6811ZM21.4899 40.1416L21.7547 37.6811L17.7777 37.2531L17.5129 39.7136L21.4899 40.1416ZM22.9961 44.3873C21.8751 43.2743 21.3209 41.7121 21.4899 40.1416L17.5129 39.7136C17.2138 42.4925 18.1945 45.2568 20.178 47.2259L22.9961 44.3873ZM23.9617 45.3458L22.9961 44.3873L20.178 47.2259L21.1436 48.1845L23.9617 45.3458ZM25.2352 45.8797C24.7575 45.8739 24.3007 45.6824 23.9617 45.3458L21.1436 48.1845C22.22 49.2531 23.6699 49.861 25.1866 49.8794L25.2352 45.8797ZM31.0026 51.6125C30.9453 48.457 28.391 45.9181 25.2352 45.8797L25.1866 49.8794C26.1806 49.8915 26.9852 50.6912 27.0033 51.6852L31.0026 51.6125ZM31.0306 53.1512L31.0026 51.6125L27.0033 51.6852L27.0312 53.2239L31.0306 53.1512ZM31.4155 53.9225C31.1775 53.7366 31.0361 53.4532 31.0306 53.1512L27.0312 53.2239C27.0586 54.7316 27.7648 56.1466 28.9533 57.0748L31.4155 53.9225ZM33.3359 57.7047C33.2885 56.2215 32.585 54.836 31.4155 53.9225L28.9533 57.0748C29.1875 57.2578 29.3284 57.5353 29.3379 57.8324L33.3359 57.7047ZM33.4481 61.2203L33.3359 57.7047L29.3379 57.8324L29.4502 61.348L33.4481 61.2203ZM33.6751 61.8772C33.5348 61.6862 33.4557 61.4572 33.4481 61.2203L29.4502 61.348C29.4835 62.3927 29.8326 63.4027 30.4513 64.2451L33.6751 61.8772ZM34.6046 62.3558C34.2339 62.3478 33.8871 62.1659 33.6751 61.8772L30.4513 64.2451C31.4065 65.5457 32.9181 66.3204 34.5187 66.3548L34.6046 62.3558ZM35.5093 61.9864C35.279 62.2253 34.9474 62.3631 34.6046 62.3558L34.5186 66.3548C35.966 66.386 37.3761 65.8131 38.3887 64.7629L35.5093 61.9864ZM36.6317 60.8224L35.5093 61.9864L38.3887 64.7629L39.5111 63.5989L36.6317 60.8224ZM38.0054 57.4346C38.0013 58.6987 37.5091 59.9124 36.6317 60.8224L39.5111 63.5989C41.1043 61.9466 41.9979 59.7429 42.0054 57.4476L38.0054 57.4346ZM38.0207 52.7315L38.0054 57.4346L42.0054 57.4476L42.0207 52.7446L38.0207 52.7315ZM40.1383 47.5981C38.7873 48.9658 38.0269 50.8091 38.0207 52.7315L42.0207 52.7446C42.0235 51.8699 42.3694 51.0313 42.9841 50.409L40.1383 47.5981ZM41.1009 46.6235L40.1383 47.5981L42.9841 50.409L43.9467 49.4345L41.1009 46.6235ZM41.3411 45.7216C41.4263 46.0436 41.3349 46.3866 41.1009 46.6235L43.9467 49.4345C45.1758 48.1902 45.6554 46.3889 45.2079 44.6982L41.3411 45.7216ZM41.1037 45.3041C41.2176 45.4204 41.2994 45.5643 41.3411 45.7216L45.2079 44.6982C44.9892 43.8717 44.5597 43.1162 43.9616 42.5054L41.1037 45.3041ZM36.6155 40.721L41.1037 45.3041L43.9616 42.5054L39.4733 37.9223L36.6155 40.721ZM37.0576 36.5235C35.6257 37.4739 35.413 39.4931 36.6155 40.721L39.4733 37.9223C40.0273 38.488 39.9294 39.4183 39.2696 39.8562L37.0576 36.5235ZM40.544 36.9051C39.6265 35.9527 38.1594 35.7921 37.0576 36.5235L39.2696 39.8562C38.762 40.1931 38.0861 40.1191 37.6633 39.6803L40.544 36.9051ZM42.873 39.3226L40.544 36.9051L37.6634 39.6803L39.9923 42.0978L42.873 39.3226ZM44.067 39.8593C43.6148 39.8409 43.187 39.6486 42.873 39.3226L39.9923 42.0978C41.0211 43.1657 42.4222 43.7955 43.9038 43.856L44.067 39.8593ZM44.7964 39.8891L44.0671 39.8593L43.9038 43.856L44.6332 43.8858L44.7964 39.8891ZM44.8576 39.8654C44.8414 39.8815 44.8192 39.8901 44.7964 39.8891L44.6332 43.8858C45.7664 43.9321 46.8678 43.5048 47.6733 42.7064L44.8576 39.8654ZM44.8576 39.7487C44.89 39.7808 44.89 39.8332 44.8576 39.8654L47.6733 42.7064C49.285 41.1091 49.2847 38.504 47.6727 36.907L44.8576 39.7487ZM42.4571 37.3706L44.8576 39.7487L47.6727 36.907L45.2722 34.5289L42.4571 37.3706ZM42.0428 34.2438C41.4527 35.2588 41.623 36.5443 42.457 37.3706L45.2722 34.5289C45.7324 34.9849 45.8264 35.6943 45.5007 36.2544L42.0428 34.2438ZM46.0715 33.6949C44.8703 32.5224 42.8866 32.7926 42.0428 34.2438L45.5007 36.2545C45.0351 37.0553 43.9404 37.2044 43.2775 36.5573L46.0715 33.6949ZM47.1666 34.7638L46.0715 33.6949L43.2775 36.5574L44.3726 37.6263L47.1666 34.7638ZM47.0076 34.6985C47.0671 34.6989 47.1241 34.7223 47.1666 34.7638L44.3726 37.6263C45.0714 38.3083 46.0074 38.6926 46.9838 38.6984L47.0076 34.6985ZM47.964 34.7042L47.0076 34.6985L46.9838 38.6984L47.9402 38.7041L47.964 34.7042ZM53.1403 37.6C52.0265 35.81 50.0722 34.7167 47.964 34.7042L47.9402 38.7041C48.6749 38.7085 49.356 39.0895 49.7441 39.7133L53.1403 37.6ZM55.4403 41.2962L53.1403 37.6L49.7441 39.7133L52.0441 43.4095L55.4403 41.2962ZM54.4801 40.6592C54.8774 40.7222 55.2277 40.9547 55.4403 41.2962L52.0441 43.4095C52.4445 44.0531 53.1047 44.4911 53.8534 44.6098L54.4801 40.6592ZM52.9323 41.6381C53.1287 40.9691 53.7914 40.55 54.4801 40.6592L53.8534 44.6098C55.1511 44.8157 56.3999 44.0259 56.7702 42.7652L52.9323 41.6381ZM53.4911 39.7354L52.9323 41.6381L56.7702 42.7652L57.3289 40.8626L53.4911 39.7354ZM54.2563 38.2012C53.9125 38.6633 53.6534 39.1828 53.491 39.7354L57.329 40.8626C57.3579 40.764 57.4041 40.6713 57.4655 40.5889L54.2563 38.2012ZM54.7277 37.5676L54.2563 38.2012L57.4655 40.5889L57.9368 39.9554L54.7277 37.5676ZM62.8956 37.8581C61.0246 34.9299 56.8019 34.7798 54.7277 37.5676L57.9368 39.9554C58.3401 39.4133 59.1612 39.4425 59.5249 40.0118L62.8956 37.8581ZM63.3247 38.5297L62.8956 37.8581L59.5249 40.0118L59.9541 40.6835L63.3247 38.5297ZM63.1916 38.4782C63.2425 38.4645 63.2964 38.4853 63.3247 38.5297L59.9541 40.6835C60.8663 42.1112 62.5996 42.7817 64.2352 42.3397L63.1916 38.4782ZM63.1029 38.605C63.0979 38.5468 63.1353 38.4935 63.1916 38.4782L64.2352 42.3397C66.0469 41.8501 67.2484 40.1337 67.0883 38.2639L63.1029 38.605ZM63.0713 38.2361L63.1029 38.605L67.0883 38.2639L67.0567 37.895L63.0713 38.2361ZM64.9869 34.2667C63.6711 35.1405 62.9366 36.6624 63.0713 38.2361L67.0567 37.895C67.0467 37.7776 67.1015 37.6641 67.1996 37.599L64.9869 34.2667ZM65.6259 33.8424L64.9869 34.2667L67.1996 37.599L67.8386 37.1746L65.6259 33.8424ZM65.781 33.7078C65.7358 33.7586 65.6839 33.8039 65.6259 33.8424L67.8386 37.1746C68.186 36.944 68.4986 36.6713 68.7706 36.3652L65.781 33.7078ZM63.7645 30.1496C64.4694 31.8513 64.9839 33.6096 65.308 35.3939L69.2436 34.679C68.869 32.6169 68.2745 30.585 67.4601 28.6189L63.7645 30.1496ZM49.8469 16.232C56.1482 18.8421 61.1545 23.8484 63.7645 30.1496L67.4601 28.6189C64.444 21.3375 58.659 15.5525 51.3777 12.5365L49.8469 16.232ZM49.1024 15.9371C49.3517 16.0314 49.5999 16.1297 49.8469 16.232L51.3777 12.5365C51.0923 12.4183 50.8055 12.3047 50.5174 12.1957L49.1024 15.9371ZM49.6499 16.5265C49.8582 16.2612 50.1371 16.0668 50.4494 15.9614L49.1703 12.1714C48.13 12.5225 47.199 13.1709 46.504 14.056L49.6499 16.5265ZM49.3198 16.9468L49.6499 16.5265L46.504 14.056L46.1739 14.4763L49.3198 16.9468ZM43.9981 19.5472C46.0761 19.539 48.0363 18.5812 49.3198 16.9468L46.1739 14.4763C45.6453 15.1494 44.8381 15.5438 43.9823 15.5472L43.9981 19.5472ZM40.1728 19.5623L43.9981 19.5472L43.9823 15.5472L40.157 15.5623L40.1728 19.5623ZM35.3532 17.6638C36.6577 18.8899 38.3825 19.5693 40.1728 19.5623L40.157 15.5623C39.3902 15.5653 38.6514 15.2743 38.0927 14.7491L35.3532 17.6638ZM35.232 17.5498L35.3532 17.6638L38.0927 14.7491L37.9715 14.6352L35.232 17.5498ZM33.6511 16.8665C34.2416 16.9029 34.8008 17.1446 35.232 17.5498L37.9714 14.6352C36.8603 13.5909 35.4191 12.9679 33.8971 12.8741L33.6511 16.8665ZM31.7218 17.5848C32.2344 17.0834 32.9354 16.8224 33.6511 16.8665L33.8971 12.8741C32.0525 12.7604 30.2459 13.433 28.9247 14.7254L31.7218 17.5848ZM30.1681 19.1046L31.7218 17.5848L28.9247 14.7254L27.371 16.2452L30.1681 19.1046ZM30.378 18.284C30.4667 18.5753 30.3857 18.8917 30.1681 19.1046L27.371 16.2452C26.5212 17.0764 26.2052 18.3118 26.5514 19.449L30.378 18.284ZM29.0609 17.9074C29.5066 17.5179 30.2056 17.7178 30.378 18.284L26.5514 19.449C27.2244 21.6593 29.9534 22.4397 31.6932 20.9193L29.0609 17.9074ZM30.5618 16.5957L29.0609 17.9074L31.6932 20.9193L33.194 19.6076L30.5618 16.5957ZM34.5463 16.9314C33.552 15.713 31.746 15.5608 30.5618 16.5957L33.194 19.6076C32.6749 20.0613 31.8832 19.9946 31.4473 19.4605L34.5463 16.9314ZM34.4208 20.5915C35.3735 19.5751 35.4271 18.0107 34.5463 16.9314L31.4473 19.4605C31.0612 18.9873 31.0848 18.3015 31.5024 17.856L34.4208 20.5915ZM33.1133 21.9864L34.4208 20.5915L31.5024 17.856L30.1949 19.2509L33.1133 21.9864ZM33.2716 21.6335C33.2596 21.7655 33.2039 21.8897 33.1133 21.9864L30.1949 19.2509C29.6757 19.8047 29.3565 20.5162 29.288 21.2723L33.2716 21.6335ZM29.9534 24.7307C31.6866 24.6933 33.1151 23.36 33.2716 21.6335L29.288 21.2723C29.3153 20.9709 29.5646 20.7382 29.8672 20.7317L29.9534 24.7307ZM28.0597 24.7716L29.9534 24.7307L29.8672 20.7317L27.9734 20.7725L28.0597 24.7716ZM27.0706 25.1644C27.3424 24.9189 27.6935 24.7795 28.0597 24.7716L27.9734 20.7725C26.6466 20.8011 25.3744 21.3064 24.3895 22.196L27.0706 25.1644ZM24.9224 27.1046L27.0706 25.1644L24.3895 22.196L22.2413 24.1362L24.9224 27.1046ZM20.8497 23.1297L21.6491 26.1346L25.5147 25.1062L24.7152 22.1013L20.8497 23.1297ZM20.0271 22.3708C20.4194 22.4442 20.7402 22.7181 20.8497 23.1297L24.7152 22.1013C24.1809 20.093 22.5593 18.775 20.7625 18.439L20.0271 22.3708ZM18.8046 25.4358C19.6955 24.1381 20.702 22.9275 21.8099 21.8182L18.9797 18.9916C17.6995 20.2734 16.5365 21.6722 15.5069 23.1718L18.8046 25.4358ZM19.2201 23.4869C19.075 23.4825 18.9487 23.406 18.8754 23.2826L15.4361 25.3249C16.1764 26.5717 17.5252 27.4373 19.0986 27.4851L19.2201 23.4869ZM23.6426 23.6213L19.2201 23.4869L19.0986 27.4851L23.5211 27.6195L23.6426 23.6213ZM24.201 29.0052L25.3919 26.4711L21.7718 24.7697L20.5809 27.3038L24.201 29.0052ZM21.6485 31.2458C22.7737 30.8861 23.6985 30.0743 24.201 29.0052L20.5809 27.3038C20.5513 27.3667 20.4968 27.4145 20.4306 27.4357L21.6485 31.2458ZM20.7496 31.5331L21.6485 31.2458L20.4306 27.4357L19.5316 27.7231L20.7496 31.5331ZM21.3314 30.5905C21.3964 31.0052 21.1494 31.4053 20.7496 31.5331L19.5316 27.7231C18.0528 28.1958 17.1393 29.6759 17.3796 31.2097L21.3314 30.5905ZM20.5789 29.8756C20.9628 29.9158 21.2716 30.2092 21.3314 30.5905L17.3796 31.2097C17.6006 32.6201 18.7429 33.7054 20.1628 33.8539L20.5789 29.8756ZM21.4923 29.9712L20.5789 29.8756L20.1628 33.8539L21.0762 33.9495L21.4923 29.9712ZM65.3267 44.4839C65.0869 45.835 64.7382 47.1715 64.2805 48.4802L68.0562 49.8008C68.5851 48.2886 68.9881 46.7441 69.2651 45.1827L65.3267 44.4839ZM67.0737 47.3571C66.8144 47.2255 66.5925 47.0268 66.4328 46.7789L63.0702 48.9453C63.617 49.7939 64.3765 50.4738 65.2631 50.9239L67.0737 47.3571ZM66.4328 46.7789L64.8002 44.2449L61.4377 46.4113L63.0702 48.9453L66.4328 46.7789ZM64.8002 44.2449C64.9506 44.4783 64.818 44.7899 64.5455 44.8433L63.7762 40.918C61.2745 41.4083 60.057 44.2683 61.4377 46.4113L64.8002 44.2449ZM64.5455 44.8433C64.4245 44.867 64.2994 44.8326 64.2076 44.7503L66.878 41.7722C66.0354 41.0166 64.8869 40.7003 63.7762 40.918L64.5455 44.8433ZM64.2076 44.7503L65.9607 46.3223L68.6311 43.3443L66.878 41.7722L64.2076 44.7503ZM34.3449 28.3985L33.8174 29.5246L37.4396 31.2214L37.9671 30.0954L34.3449 28.3985ZM38.8575 25.2879C36.9019 25.4335 35.1768 26.6226 34.3449 28.3985L37.9671 30.0954C38.186 29.6281 38.6399 29.3152 39.1545 29.2769L38.8575 25.2879ZM39.572 25.2347L38.8575 25.2879L39.1545 29.2769L39.869 29.2237L39.572 25.2347ZM43.2809 26.9841C42.4376 25.7902 41.0297 25.1262 39.572 25.2347L39.869 29.2237C39.9259 29.2194 39.9809 29.2454 40.0138 29.292L43.2809 26.9841ZM43.6738 27.5403L43.2809 26.9841L40.0138 29.292L40.4067 29.8482L43.6738 27.5403ZM43.1991 31.9898C44.4535 30.837 44.6568 28.9319 43.6738 27.5403L40.4067 29.8482C40.2292 29.5969 40.2659 29.2528 40.4924 29.0446L43.1991 31.9898ZM39.2496 32.4505C40.5273 33.1668 42.1206 32.981 43.1991 31.9898L40.4924 29.0446C40.6872 28.8656 40.975 28.8321 41.2057 28.9614L39.2496 32.4505ZM38.6722 32.1268L39.2496 32.4505L41.2057 28.9614L40.6283 28.6377L38.6722 32.1268ZM38.494 32.0899C38.5558 32.0836 38.618 32.0965 38.6722 32.1268L40.6283 28.6377C39.8555 28.2045 38.9677 28.0204 38.0863 28.1107L38.494 32.0899ZM35.8323 32.3626L38.494 32.0899L38.0863 28.1107L35.4246 28.3834L35.8323 32.3626ZM40.4879 56.5059C40.386 58.3161 41.8264 59.8398 43.6395 59.8398V55.8398C44.1239 55.8398 44.5088 56.247 44.4816 56.7306L40.4879 56.5059ZM40.5407 55.5671L40.4879 56.5059L44.4816 56.7306L44.5344 55.7919L40.5407 55.5671ZM41.3736 53.3275C40.8768 53.9731 40.5865 54.7537 40.5407 55.5671L44.5344 55.7919C44.5349 55.7828 44.5382 55.774 44.5437 55.7668L41.3736 53.3275ZM41.7408 52.8502L41.3736 53.3275L44.5437 55.7668L44.911 55.2895L41.7408 52.8502ZM43.9923 51.6829C43.1061 51.7198 42.2817 52.1472 41.7408 52.8502L44.911 55.2895C44.7303 55.5243 44.4549 55.6671 44.1589 55.6794L43.9923 51.6829ZM47.1141 54.7755C47.1703 53.0332 45.7341 51.6103 43.9923 51.6829L44.1589 55.6794C43.5771 55.7037 43.0974 55.2284 43.1162 54.6464L47.1141 54.7755ZM47.0693 56.1625L47.1141 54.7755L43.1162 54.6464L43.0714 56.0334L47.0693 56.1625ZM46.5476 57.9649C46.8694 57.4172 47.0488 56.7975 47.0693 56.1625L43.0714 56.0334C43.0725 56 43.0819 55.9674 43.0988 55.9386L46.5476 57.9649ZM46.3611 58.2824L46.5476 57.9649L43.0988 55.9385L42.9123 56.256L46.3611 58.2824ZM43.6395 59.8398C44.7586 59.8398 45.7941 59.2473 46.361 58.2824L42.9123 56.256C43.0638 55.9982 43.3405 55.8398 43.6395 55.8398V59.8398ZM30.4641 30.4993C30.189 30.2269 29.7093 29.6801 29.2555 29.1459C29.0384 28.8903 28.8417 28.6548 28.6991 28.4831C28.628 28.3974 28.5706 28.3279 28.5313 28.2802C28.5116 28.2563 28.4965 28.2379 28.4864 28.2256C28.4814 28.2195 28.4776 28.2149 28.4752 28.2119C28.474 28.2104 28.4731 28.2093 28.4725 28.2087C28.4723 28.2083 28.4721 28.2081 28.472 28.208C28.4719 28.2079 28.4719 28.2079 28.4719 28.2079C28.4719 28.2079 28.4719 28.2079 28.4719 28.2079C28.4719 28.2079 28.4719 28.2079 26.9242 29.4746C25.3764 30.7412 25.3764 30.7412 25.3764 30.7413C25.3765 30.7413 25.3765 30.7413 25.3765 30.7414C25.3766 30.7415 25.3767 30.7416 25.3768 30.7418C25.3771 30.7421 25.3774 30.7425 25.3779 30.743C25.3787 30.744 25.3799 30.7455 25.3814 30.7474C25.3845 30.7511 25.3889 30.7565 25.3946 30.7634C25.406 30.7773 25.4225 30.7973 25.4436 30.823C25.4858 30.8742 25.5464 30.9477 25.6212 31.0378C25.7706 31.2177 25.9774 31.4654 26.207 31.7357C26.6468 32.2534 27.2335 32.9295 27.6497 33.3416L30.4641 30.4993Z" fill="currentColor" />
</svg>