<svg viewBox="0 0 80 80" fill="none">
  <path d="M20.4992 59.5036C20.04 59.1966 19.9387 58.5702 20.2611 58.1217L23.9905 52.9337C26.9341 55.0496 30.3794 56.4315 34.0389 56.9133C39.8693 57.6808 45.7658 56.1009 50.4313 52.521C55.0967 48.941 58.149 43.6544 58.9165 37.824C59.6841 31.9937 58.1042 26.0972 54.5242 21.4317C52.2772 18.5034 49.3578 16.2106 46.0536 14.7194L48.6833 8.89245C48.9105 8.38904 49.5036 8.16357 49.999 8.40767C54.0328 10.3951 57.5989 13.2956 60.388 16.9304C65.1613 23.151 67.2679 31.013 66.2444 38.7868C65.221 46.5606 61.1513 53.6095 54.9307 58.3827C48.7101 63.156 40.8481 65.2626 33.0743 64.2392C28.532 63.6411 24.2371 62.0031 20.4992 59.5036Z" fill="currentColor" fill-opacity="0.25" />
  <path d="M39.8943 13.0165C45.7246 13.7841 51.0113 16.8364 54.5912 21.5018C58.1711 26.1673 59.7511 32.0637 58.9835 37.8941C58.2159 43.7245 55.1637 49.0111 50.4982 52.591C45.8328 56.171 39.9363 57.7509 34.1059 56.9833C28.2756 56.2158 22.9889 53.1635 19.409 48.4981C15.8291 43.8326 14.2491 37.9361 15.0167 32.1058C15.7843 26.2754 18.8365 20.9888 23.502 17.4088C28.1674 13.8289 34.0639 12.2489 39.8943 13.0165Z" fill="currentColor" fill-opacity="0.25" />
  <path d="M49.8423 28.0466C48.7165 36.5978 44.2398 44.3516 37.3972 49.6021C34.3009 51.978 30.8349 53.7533 27.1755 54.8807C26.3193 54.4576 25.4913 53.9796 24.6967 53.4497C23.8428 49.716 23.647 45.8257 24.1566 41.9552C25.2823 33.404 29.759 25.6503 36.6016 20.3997C39.6967 18.0248 43.1613 16.2499 46.8191 15.1225C47.6772 15.5463 48.5069 16.0253 49.3031 16.5564C50.1562 20.2889 50.3516 24.1777 49.8423 28.0466Z" fill="currentColor" fill-opacity="0.25" />
  <path d="M37.0001 71.4373V64.9999M37.0001 71.4373H53.0001M37.0001 71.4373L21.0001 71.4373M15.2375 30.7491L51.5614 51.7207M23.0903 17.7315L58.9085 38.4111M20.2611 58.1217C19.9387 58.5702 20.04 59.1966 20.4992 59.5036C24.2371 62.0031 28.532 63.6411 33.0743 64.2392C40.8481 65.2626 48.7101 63.156 54.9307 58.3827C61.1513 53.6095 65.221 46.5606 66.2444 38.7868C67.2679 31.013 65.1613 23.151 60.388 16.9304C57.5989 13.2956 54.0328 10.3951 49.999 8.40767C49.5036 8.16357 48.9105 8.38904 48.6833 8.89245L46.0536 14.7194C49.3578 16.2106 52.2772 18.5034 54.5242 21.4317C58.1042 26.0972 59.6841 31.9937 58.9165 37.824C58.149 43.6544 55.0967 48.941 50.4313 52.521C45.7658 56.1009 39.8693 57.6808 34.0389 56.9133C30.3794 56.4315 26.9341 55.0496 23.9905 52.9337L20.2611 58.1217ZM23.502 17.4088C28.1674 13.8289 34.0639 12.2489 39.8943 13.0165C45.7246 13.7841 51.0113 16.8364 54.5912 21.5018C58.1711 26.1673 59.7511 32.0637 58.9835 37.8941C58.2159 43.7245 55.1637 49.0111 50.4982 52.591C45.8328 56.171 39.9363 57.7509 34.1059 56.9833C28.2756 56.2158 22.9889 53.1635 19.409 48.4981C15.8291 43.8326 14.2491 37.9361 15.0167 32.1058C15.7843 26.2754 18.8365 20.9888 23.502 17.4088ZM37.3972 49.6021C44.2398 44.3516 48.7165 36.5978 49.8423 28.0466C50.3516 24.1777 50.1562 20.2889 49.3031 16.5564C48.5069 16.0253 47.6772 15.5463 46.8191 15.1225C43.1613 16.2499 39.6967 18.0248 36.6016 20.3997C29.759 25.6503 25.2823 33.404 24.1566 41.9552C23.647 45.8257 23.8428 49.716 24.6967 53.4497C25.4913 53.9796 26.3193 54.4576 27.1755 54.8807C30.8349 53.7533 34.3009 51.978 37.3972 49.6021Z" stroke="currentColor" stroke-linecap="round" stroke-linejoin="round" />
</svg>