<svg viewBox="0 0 80 80" fill="none">
  <path d="M29.3935 14.3934C36.1848 11.5804 43.8154 11.5804 50.6067 14.3934C57.398 17.2064 62.7936 22.6021 65.6067 29.3934C68.4197 36.1847 68.4197 43.8153 65.6067 50.6066C62.7936 57.3979 57.398 62.7936 50.6067 65.6066C43.8154 68.4196 36.1848 68.4196 29.3935 65.6066C22.6022 62.7936 17.2065 57.3979 14.3935 50.6066C11.5804 43.8153 11.5804 36.1847 14.3935 29.3934C17.2065 22.6021 22.6022 17.2064 29.3935 14.3934Z" fill="currentColor" fill-opacity="0.25" />
  <path d="M47.0797 13.1922L43.2453 17.1854C42.982 17.4596 42.8482 17.8331 42.8774 18.2122L42.8842 18.3005C42.9821 19.5722 41.3865 20.2162 40.5744 19.2327C40.3262 18.9321 39.9568 18.7581 39.5671 18.7581H37.4367C36.0953 18.7581 35.0079 19.8455 35.0079 21.1869C35.0079 22.2659 35.7198 23.2156 36.7555 23.5182L38.2958 23.9683C39.1259 24.2108 39.8701 24.6839 40.4419 25.3325L41.0392 26.01C42.4206 27.5769 44.3802 28.5141 46.4671 28.606L47.1692 28.6369C49.2376 28.728 51.1822 29.6488 52.5634 31.1913L53.2302 31.936C53.7219 32.4852 54.3534 32.8907 55.0573 33.1096C56.7624 33.6396 57.9242 35.2174 57.9242 37.0029V37.5951C57.9242 38.8569 57.4356 40.0697 56.5609 40.9791L46.3148 51.6306C45.6213 52.3516 45.234 53.313 45.234 54.3134V58.8083C45.234 60.0921 43.7791 60.8355 42.7388 60.0831C42.4876 59.9015 42.2957 59.6497 42.1871 59.3593L41.2438 56.8369C40.9086 55.9406 40.7369 54.9915 40.7369 54.0346V47.5185C40.7369 45.7328 40.1395 43.9983 39.0396 42.5914L38.2798 41.6194C37.2345 40.2824 36.6415 38.6475 36.5866 36.9512L36.4688 33.311C36.4405 32.4378 36.7495 31.5872 37.3316 30.9357L37.4564 30.796C38.4953 29.6334 38.5379 27.889 37.557 26.6771C37.0658 26.0703 36.3685 25.6654 35.598 25.5395L33.9098 25.2638C32.185 24.9821 30.6081 24.1194 29.4406 22.8189L24.3341 17.1302C25.9106 16.0495 27.6062 15.1268 29.3991 14.3842C35.0344 12.05 41.2476 11.6527 47.0797 13.1922Z" fill="currentColor" fill-opacity="0.25" />
  <path d="M29.3935 14.3934C36.1848 11.5804 43.8154 11.5804 50.6067 14.3934C57.398 17.2064 62.7936 22.6021 65.6067 29.3934C68.4197 36.1847 68.4197 43.8153 65.6067 50.6066C62.7936 57.3979 57.398 62.7936 50.6067 65.6066C43.8154 68.4196 36.1848 68.4196 29.3935 65.6066C22.6022 62.7936 17.2065 57.3979 14.3935 50.6066C11.5804 43.8153 11.5804 36.1847 14.3935 29.3934C17.2065 22.6021 22.6022 17.2064 29.3935 14.3934Z" stroke="currentColor" stroke-width="4" stroke-linecap="round" stroke-linejoin="round" />
  <path d="M47.0797 13.1922L43.2453 17.1854C42.982 17.4596 42.8482 17.8331 42.8774 18.2122L42.8842 18.3005C42.9821 19.5722 41.3865 20.2162 40.5744 19.2327C40.3262 18.9321 39.9568 18.7581 39.5671 18.7581H37.4367C36.0953 18.7581 35.0079 19.8455 35.0079 21.1869C35.0079 22.2659 35.7198 23.2156 36.7555 23.5182L38.2958 23.9683C39.1259 24.2108 39.8701 24.6839 40.4419 25.3325L41.0392 26.01C42.4206 27.5769 44.3802 28.5141 46.4671 28.606L47.1692 28.6369C49.2376 28.728 51.1822 29.6488 52.5634 31.1913L53.2302 31.936C53.7219 32.4852 54.3534 32.8907 55.0573 33.1096C56.7624 33.6396 57.9242 35.2174 57.9242 37.0029V37.5951C57.9242 38.8569 57.4356 40.0697 56.5609 40.9791L46.3148 51.6306C45.6213 52.3516 45.234 53.313 45.234 54.3134V58.8083C45.234 60.0921 43.7791 60.8355 42.7388 60.0831C42.4876 59.9015 42.2957 59.6497 42.1871 59.3593L41.2438 56.8369C40.9086 55.9406 40.7369 54.9915 40.7369 54.0346V47.5185C40.7369 45.7328 40.1395 43.9983 39.0396 42.5914L38.2798 41.6194C37.2345 40.2824 36.6415 38.6475 36.5866 36.9512L36.4688 33.311C36.4405 32.4378 36.7495 31.5872 37.3316 30.9357L37.4564 30.796C38.4953 29.6334 38.5379 27.889 37.557 26.6771C37.0658 26.0703 36.3685 25.6654 35.598 25.5395L33.9098 25.2638C32.185 24.9821 30.6081 24.1194 29.4406 22.8189L24.3341 17.1302C25.9106 16.0495 27.6062 15.1268 29.3991 14.3842C35.0344 12.05 41.2476 11.6527 47.0797 13.1922Z" stroke="currentColor" stroke-width="4" stroke-linecap="round" stroke-linejoin="round" />
</svg>