<svg viewBox="0 0 88 89" fill="none">
  <path d="M46.0132 73.6497C46.0132 72.5378 45.1119 71.6365 44.0001 71.6365C42.8883 71.6365 41.9869 72.5378 41.9869 73.6497H46.0132ZM60.1052 82.1424C61.217 82.1424 62.1183 81.2411 62.1183 80.1293C62.1183 79.0175 61.217 78.1161 60.1052 78.1161V82.1424ZM27.895 78.1162C26.7831 78.1162 25.8818 79.0175 25.8818 80.1293C25.8818 81.2411 26.7831 82.1424 27.895 82.1424L27.895 78.1162ZM46.0132 80.1293V73.6497H41.9869V80.1293H46.0132ZM44.0001 82.1424L60.1052 82.1424V78.1161L44.0001 78.1161V82.1424ZM44.0001 78.1161L27.895 78.1162L27.895 82.1424L44.0001 82.1424V78.1161Z" fill="currentColor" />
  <path d="M27.1512 66.7261L25.5166 65.5511L25.5166 65.5511L27.1512 66.7261ZM27.3908 68.1171L28.5098 66.4436L28.5098 66.4436L27.3908 68.1171ZM30.9051 61.504L32.0801 59.8694L30.4455 58.6943L29.2705 60.3289L30.9051 61.504ZM41.0195 65.5097L40.7568 67.5057L40.7568 67.5057L41.0195 65.5097ZM66.0606 46.2951L68.0565 46.5579L68.0565 46.5578L66.0606 46.2951ZM61.6394 29.7951L60.0423 31.0206L61.6394 29.7951ZM53.1132 23.0386L51.2782 22.2105L50.4501 24.0454L52.285 24.8735L53.1132 23.0386ZM55.7601 17.1734L57.595 18.0015L55.7601 17.1734ZM57.0845 16.6855L57.9742 14.8796L57.0845 16.6855ZM67.5417 25.2642L65.9446 26.4897L67.5417 25.2642ZM73.4366 47.2642L71.4407 47.0014L73.4366 47.2642ZM62.0486 66.9889L63.2741 68.586L62.0486 66.9889ZM40.0486 72.8838L39.7858 74.8797L39.7858 74.8797L40.0486 72.8838ZM25.5166 65.5511C24.5539 66.8902 24.826 68.8237 26.2718 69.7905L28.5098 66.4436C29.0314 66.7923 29.0994 67.4649 28.7858 67.9012L25.5166 65.5511ZM29.2705 60.3289L25.5166 65.5511L28.7858 67.9012L32.5397 62.6791L29.2705 60.3289ZM41.2823 63.5138C37.931 63.0726 34.7759 61.8072 32.0801 59.8694L29.7301 63.1386C32.9601 65.4605 36.7409 66.977 40.7568 67.5057L41.2823 63.5138ZM56.294 59.4914C52.0215 62.7699 46.6216 64.2168 41.2823 63.5138L40.7568 67.5057C47.1548 68.348 53.6254 66.6142 58.7451 62.6857L56.294 59.4914ZM64.0647 46.0323C63.3617 51.3716 60.5665 56.213 56.294 59.4914L58.7451 62.6857C63.8648 58.7572 67.2142 52.9559 68.0565 46.5579L64.0647 46.0323ZM60.0423 31.0206C63.3207 35.2931 64.7676 40.693 64.0647 46.0323L68.0565 46.5578C68.8988 40.1598 67.165 33.6893 63.2365 28.5696L60.0423 31.0206ZM52.285 24.8735C55.3111 26.2392 57.9846 28.3389 60.0423 31.0206L63.2365 28.5696C60.7707 25.3561 57.567 22.84 53.9413 21.2037L52.285 24.8735ZM53.9252 16.3453L51.2782 22.2105L54.9481 23.8667L57.595 18.0015L53.9252 16.3453ZM57.9742 14.8796C56.4141 14.1109 54.6035 14.8421 53.9252 16.3453L57.595 18.0015C57.374 18.4913 56.7575 18.7686 56.1947 18.4913L57.9742 14.8796ZM69.1389 24.0387C66.1415 20.1324 62.309 17.0154 57.9742 14.8796L56.1947 18.4913C59.9805 20.3565 63.3271 23.0785 65.9446 26.4897L69.1389 24.0387ZM75.4325 47.527C76.5324 39.1727 74.2685 30.7238 69.1389 24.0387L65.9446 26.4897C70.4242 32.3276 72.4012 39.7059 71.4407 47.0014L75.4325 47.527ZM63.2741 68.586C69.9592 63.4564 74.3327 55.8812 75.4325 47.527L71.4407 47.0014C70.4802 54.297 66.6609 60.9122 60.8231 65.3917L63.2741 68.586ZM39.7858 74.8797C48.14 75.9795 56.589 73.7156 63.2741 68.586L60.8231 65.3917C54.9852 69.8713 47.6069 71.8483 40.3113 70.8878L39.7858 74.8797ZM26.2718 69.7905C30.2887 72.4766 34.9043 74.237 39.7858 74.8797L40.3113 70.8878C36.0485 70.3266 32.0179 68.7894 28.5098 66.4436L26.2718 69.7905Z" fill="currentColor" />
  <path d="M46.9132 21.3247C52.7819 22.0973 58.1033 25.1696 61.7067 29.8657C65.3101 34.5618 66.9005 40.497 66.1279 46.3657C65.3552 52.2344 62.2829 57.5557 57.5868 61.1592C52.8907 64.7626 46.9555 66.353 41.0868 65.5803C35.2182 64.8077 29.8968 61.7354 26.2933 57.0393C22.6899 52.3432 21.0996 46.408 21.8722 40.5393C22.6448 34.6706 25.7171 29.3493 30.4132 25.7458C35.1093 22.1424 41.0445 20.552 46.9132 21.3247Z" fill="currentColor" fill-opacity="0.15" stroke="currentColor" stroke-width="4" />
  <path d="M50.0014 21.9492L51.7949 21.0349C51.5391 20.533 51.0846 20.1613 50.542 20.01L50.0014 21.9492ZM50.1164 22.1908L51.9566 21.3744L51.9566 21.3744L50.1164 22.1908ZM50.3727 22.7685L48.5326 23.5849L48.5326 23.5849L50.3727 22.7685ZM51.7522 24.3025L50.7456 26.046L51.7522 24.3025ZM52.1101 24.5092L53.1167 22.7657L52.1101 24.5092ZM53.1093 25.7275L55.016 25.0817L55.016 25.0817L53.1093 25.7275ZM54.1085 26.9459L55.1151 25.2024L54.1085 26.9459ZM60.9904 30.9191L59.9838 32.6626L60.9904 30.9191ZM61.4744 31.5416L63.4121 30.9956L63.4121 30.9956L61.4744 31.5416ZM61.6994 32.34L59.7617 32.886L59.7617 32.886L61.6994 32.34ZM59.9239 33.1643L61.0138 34.8569L61.0138 34.8569L59.9239 33.1643ZM59.4922 33.4424L60.5821 35.1349L60.5821 35.1349L59.4922 33.4424ZM57.8085 33.4394L58.9044 31.7507L57.8085 33.4394ZM57.1417 33.0066L58.2376 31.3179L57.1417 33.0066ZM54.9493 32.6426L54.4579 30.6904L54.4579 30.6904L54.9493 32.6426ZM54.2923 32.808L54.7837 34.7602L54.2923 32.808ZM52.5695 32.5958L53.52 30.8212L52.5695 32.5958ZM52.387 32.4981L51.4365 34.2727L51.4365 34.2727L52.387 32.4981ZM49.4663 33.3174L51.2011 34.3388L51.2011 34.3387L49.4663 33.3174ZM48.1937 34.3081L47.6289 32.3758L47.6289 32.3758L48.1937 34.3081ZM44.1376 35.4937L43.5728 33.5614L44.1376 35.4937ZM42.4086 35.278L43.4309 33.5437L42.4086 35.278ZM39.5764 35.8048L41.1539 37.0555L39.5764 35.8048ZM39.5437 35.846L37.9662 34.5954L37.9662 34.5954L39.5437 35.846ZM37.9188 36.6951L37.7929 34.6859L37.7929 34.6859L37.9188 36.6951ZM37.3023 36.7337L37.4282 38.7429L37.4282 38.7429L37.3023 36.7337ZM35.7259 37.8066L37.5488 38.6609L37.5488 38.6609L35.7259 37.8066ZM35.5994 38.0766L33.7765 37.2223L33.7765 37.2224L35.5994 38.0766ZM33.8405 38.8971L33.3236 40.8427L33.3236 40.8427L33.8405 38.8971ZM32.7172 37.5025L34.7283 37.412L34.7283 37.4119L32.7172 37.5025ZM32.6883 36.8613L30.6772 36.9518L30.6772 36.9518L32.6883 36.8613ZM29.3564 34.7763L28.5585 32.928L28.5585 32.928L29.3564 34.7763ZM28.7726 35.0283L29.5705 36.8766L29.5705 36.8766L28.7726 35.0283ZM28.0942 35.4772L29.4833 36.9343L29.4833 36.9343L28.0942 35.4772ZM26.9384 36.5791L28.3276 38.0361L28.3276 38.0361L26.9384 36.5791ZM26.2868 36.6053L25.0196 38.1695L25.0196 38.1695L26.2868 36.6053ZM26.1042 36.2379L28.1162 36.1715L26.1042 36.2379ZM25.9884 32.7343L28.0005 32.6679L28.0005 32.6679L25.9884 32.7343ZM25.4579 31.0373L23.7847 29.9178C23.3383 30.5851 23.331 31.4539 23.7662 32.1286L25.4579 31.0373ZM30.4209 25.7416L29.1954 24.1444L29.1954 24.1444L30.4209 25.7416ZM46.9209 21.3204L46.6582 23.3163L46.9209 21.3204ZM31.4453 42.0882L29.4346 42.1863L29.4346 42.1863L31.4453 42.0882ZM33.1573 40.8009L32.5048 42.7054L32.5048 42.7054L33.1573 40.8009ZM31.5636 44.5126L33.5744 44.4145L31.5636 44.5126ZM32.4607 46.4872L33.8573 45.0372L33.8573 45.0372L32.4607 46.4872ZM33.3037 47.2992L31.9072 48.7491L31.9072 48.7491L33.3037 47.2992ZM34.5165 47.6115L33.9942 45.6673L33.9942 45.6673L34.5165 47.6115ZM35.3957 45.9871L37.3091 45.3611L37.3091 45.3611L35.3957 45.9871ZM33.9678 41.6227L32.0545 42.2487L33.9678 41.6227ZM49.8444 35.1052L48.4135 36.5212L49.8444 35.1052ZM49.3322 37.1957L48.718 35.2785L48.718 35.2785L49.3322 37.1957ZM48.3914 34.8595L47.5056 33.0517L47.5056 33.0517L48.3914 34.8595ZM46.568 35.753L47.4538 37.5607L47.4538 37.5607L46.568 35.753ZM46.2573 37.5287L47.7043 36.1291L47.7043 36.1291L46.2573 37.5287ZM47.3985 37.8153L48.0128 39.7324L48.0128 39.7324L47.3985 37.8153ZM38.8785 49.7173L39.9546 48.0159L39.9546 48.0159L38.8785 49.7173ZM38.6719 48.143L37.1933 46.7769L37.1932 46.7769L38.6719 48.143ZM41.1642 51.1629L42.2403 49.4615L42.2403 49.4615L41.1642 51.1629ZM42.1533 51.3982L42.3483 53.4018L42.3483 53.4018L42.1533 51.3982ZM42.4305 51.3712L42.2355 49.3675L42.2355 49.3675L42.4305 51.3712ZM43.1077 50.9828L41.4767 49.8027L41.4767 49.8027L43.1077 50.9828ZM35.5052 51.5239L34.9639 49.5849L34.9639 49.5849L35.5052 51.5239ZM38.7721 51.8567L39.6933 50.0667L39.6933 50.0667L38.7721 51.8567ZM34.7893 51.7238L34.2479 49.7848L34.2479 49.7848L34.7893 51.7238ZM32.9862 53.2332L34.7998 54.1072L32.9862 53.2332ZM34.1299 56.9427L35.1365 55.1993L34.1299 56.9427ZM34.9446 57.413L33.938 59.1565L34.9446 57.413ZM36.4902 59.3496L34.5669 59.9445L34.5669 59.9445L36.4902 59.3496ZM36.6331 59.8118L38.5563 59.2169L38.5563 59.2169L36.6331 59.8118ZM41.7222 56.3906L39.7522 56.805L41.7222 56.3906ZM41.4939 55.3053L43.4639 54.8908L43.4639 54.8908L41.4939 55.3053ZM38.9241 51.935L38.0029 53.725L38.0029 53.725L38.9241 51.935ZM37.9781 42.1178L38.5253 44.0551L38.5253 44.0551L37.9781 42.1178ZM37.0764 44.2159L35.2942 45.1522L35.2942 45.1523L37.0764 44.2159ZM40.2159 41.4858L39.6687 39.5484L39.6687 39.5484L40.2159 41.4858ZM40.9629 41.687L39.5166 43.0873L39.5166 43.0873L40.9629 41.687ZM40.7709 42.8802L39.8371 41.0967L39.8371 41.0967L40.7709 42.8802ZM40.7034 42.9155L41.6372 44.6989L41.6372 44.6989L40.7034 42.9155ZM40.3362 43.3096L42.1811 44.1152L42.1811 44.1152L40.3362 43.3096ZM40.0851 43.8847L38.2401 43.0791L38.2401 43.0791L40.0851 43.8847ZM39.2002 44.7753L38.3828 42.9355L38.3828 42.9355L39.2002 44.7753ZM38.9744 44.8756L39.7918 46.7153L39.7918 46.7153L38.9744 44.8756ZM42.2797 62.4679L41.4194 60.6478L41.4194 60.6478L42.2797 62.4679ZM41.6823 63.5614L43.6786 63.3019L43.6786 63.3018L41.6823 63.5614ZM43.4364 61.9211L42.5761 60.1011L42.5761 60.1011L43.4364 61.9211ZM44.8993 62.5565L46.8166 61.9426L44.8993 62.5565ZM44.34 63.8396L45.1953 65.662L45.1953 65.662L44.34 63.8396ZM43.1818 64.3832L44.0371 66.2056L43.1818 64.3832ZM48.2078 22.8635C48.2319 22.9107 48.2547 22.9586 48.2763 23.0073L51.9566 21.3744C51.9057 21.2596 51.8518 21.1464 51.7949 21.0349L48.2078 22.8635ZM48.2763 23.0073L48.5326 23.5849L52.2129 21.952L51.9566 21.3744L48.2763 23.0073ZM48.5326 23.5849C48.9913 24.6188 49.7661 25.4804 50.7456 26.046L52.7588 22.5591C52.5172 22.4196 52.326 22.2071 52.2129 21.952L48.5326 23.5849ZM50.7456 26.046L51.1035 26.2526L53.1167 22.7657L52.7588 22.5591L50.7456 26.046ZM51.1035 26.2526C51.1501 26.2795 51.1853 26.3224 51.2026 26.3733L55.016 25.0817C54.6851 24.1047 54.01 23.2815 53.1167 22.7657L51.1035 26.2526ZM51.2026 26.3733C51.5335 27.3503 52.2086 28.1735 53.1019 28.6893L55.1151 25.2024C55.0685 25.1755 55.0333 25.1326 55.016 25.0817L51.2026 26.3733ZM53.1019 28.6893L59.9838 32.6626L61.997 29.1757L55.1151 25.2024L53.1019 28.6893ZM59.9838 32.6626C59.7655 32.5365 59.6051 32.3302 59.5367 32.0876L63.4121 30.9956C63.1957 30.2277 62.6879 29.5746 61.997 29.1757L59.9838 32.6626ZM59.5367 32.0876L59.7617 32.886L63.6371 31.794L63.4121 30.9956L59.5367 32.0876ZM59.7617 32.886C59.4444 31.76 60.6558 30.8181 61.6689 31.403L59.6558 34.8899C61.7707 36.1109 64.2994 34.1447 63.6371 31.794L59.7617 32.886ZM61.6689 31.403C60.7857 30.8931 59.6915 30.9196 58.834 31.4718L61.0138 34.8569C60.603 35.1214 60.0789 35.1342 59.6558 34.8899L61.6689 31.403ZM58.834 31.4718L58.4023 31.7498L60.5821 35.1349L61.0138 34.8569L58.834 31.4718ZM58.4023 31.7498C58.5553 31.6513 58.7518 31.6516 58.9044 31.7507L56.7125 35.128C57.8887 35.8914 59.4032 35.8941 60.5821 35.1349L58.4023 31.7498ZM58.9044 31.7507L58.2376 31.3179L56.0457 34.6953L56.7125 35.128L58.9044 31.7507ZM58.2376 31.3179C57.1197 30.5924 55.7502 30.365 54.4579 30.6904L55.4408 34.5948C55.6476 34.5428 55.8668 34.5792 56.0457 34.6953L58.2376 31.3179ZM54.4579 30.6904L53.8008 30.8558L54.7837 34.7602L55.4408 34.5948L54.4579 30.6904ZM53.8008 30.8558C53.7062 30.8796 53.606 30.8673 53.52 30.8212L51.6191 34.3705C52.5887 34.8898 53.7171 35.0287 54.7837 34.7602L53.8008 30.8558ZM53.52 30.8212L53.3374 30.7234L51.4365 34.2727L51.6191 34.3705L53.52 30.8212ZM53.3374 30.7234C51.3495 29.6587 48.8756 30.3527 47.7315 32.296L51.2011 34.3387C51.2491 34.2571 51.353 34.228 51.4365 34.2727L53.3374 30.7234ZM47.7315 32.296C47.7087 32.3347 47.672 32.3632 47.6289 32.3758L48.7585 36.2404C49.785 35.9404 50.6585 35.2603 51.2011 34.3388L47.7315 32.296ZM47.6289 32.3758L43.5728 33.5614L44.7024 37.426L48.7585 36.2404L47.6289 32.3758ZM43.5728 33.5614C43.5251 33.5754 43.4737 33.5689 43.4309 33.5437L41.3863 37.0122C42.3871 37.6022 43.5873 37.7519 44.7024 37.426L43.5728 33.5614ZM43.4309 33.5437C41.6219 32.4773 39.3034 32.9086 37.9989 34.5542L41.1539 37.0555C41.2097 36.9851 41.3089 36.9666 41.3863 37.0122L43.4309 33.5437ZM37.9989 34.5542L37.9662 34.5954L41.1213 37.0966L41.1539 37.0555L37.9989 34.5542ZM37.9662 34.5954C37.9239 34.6487 37.8609 34.6816 37.7929 34.6859L38.0447 38.7043C39.2517 38.6287 40.37 38.0444 41.1213 37.0966L37.9662 34.5954ZM37.7929 34.6859L37.1764 34.7245L37.4282 38.7429L38.0447 38.7043L37.7929 34.6859ZM37.1764 34.7245C35.7602 34.8133 34.5051 35.6675 33.9029 36.9524L37.5488 38.6609C37.5266 38.7082 37.4804 38.7397 37.4282 38.7429L37.1764 34.7245ZM33.9029 36.9524L33.7765 37.2223L37.4223 38.9308L37.5488 38.6609L33.9029 36.9524ZM33.7765 37.2224C33.879 37.0034 34.1237 36.8893 34.3573 36.9514L33.3236 40.8427C34.9724 41.2807 36.6984 40.4756 37.4223 38.9308L33.7765 37.2224ZM34.3573 36.9514C34.5683 37.0074 34.7185 37.1939 34.7283 37.412L30.7061 37.5929C30.7753 39.1316 31.835 40.4473 33.3236 40.8427L34.3573 36.9514ZM34.7283 37.4119L34.6994 36.7708L30.6772 36.9518L30.7061 37.593L34.7283 37.4119ZM34.6994 36.7708C34.561 33.694 31.3862 31.7073 28.5585 32.928L30.1543 36.6246C30.3951 36.5206 30.6654 36.6898 30.6772 36.9518L34.6994 36.7708ZM28.5585 32.928L27.9747 33.1801L29.5705 36.8766L30.1543 36.6246L28.5585 32.928ZM27.9747 33.1801C27.5051 33.3828 27.0752 33.6672 26.705 34.0201L29.4833 36.9343C29.5087 36.91 29.5382 36.8905 29.5705 36.8766L27.9747 33.1801ZM26.705 34.0201L25.5493 35.122L28.3276 38.0361L29.4833 36.9343L26.705 34.0201ZM25.5493 35.122C26.1022 34.5949 26.9605 34.5602 27.5541 35.0411L25.0196 38.1695C25.999 38.963 27.4153 38.9059 28.3276 38.0361L25.5493 35.122ZM27.5541 35.0411C27.8965 35.3186 28.1016 35.731 28.1162 36.1715L24.0921 36.3044C24.1161 37.0312 24.4545 37.7118 25.0196 38.1695L27.5541 35.0411ZM28.1162 36.1715L28.0005 32.6679L23.9764 32.8008L24.0921 36.3044L28.1162 36.1715ZM28.0005 32.6679C27.968 31.6846 27.6662 30.7467 27.1496 29.946L23.7662 32.1286C23.8941 32.3268 23.9684 32.558 23.9764 32.8008L28.0005 32.6679ZM27.1311 32.1567C28.352 30.3319 29.8717 28.7005 31.6464 27.3387L29.1954 24.1444C27.0689 25.7762 25.2476 27.7312 23.7847 29.9178L27.1311 32.1567ZM31.6464 27.3387C35.919 24.0603 41.3188 22.6134 46.6582 23.3163L47.1837 19.3245C40.7857 18.4822 34.3151 20.216 29.1954 24.1444L31.6464 27.3387ZM46.6582 23.3163C47.6103 23.4417 48.5465 23.6336 49.4608 23.8884L50.542 20.01C49.4463 19.7046 48.3244 19.4747 47.1837 19.3245L46.6582 23.3163ZM33.4561 41.9901C33.4809 42.4977 32.9856 42.8701 32.5048 42.7054L33.8098 38.8964C31.5986 38.1389 29.3207 39.8517 29.4346 42.1863L33.4561 41.9901ZM33.5744 44.4145L33.4561 41.9901L29.4346 42.1863L29.5529 44.6107L33.5744 44.4145ZM33.8573 45.0372C33.6871 44.8733 33.5859 44.6506 33.5744 44.4145L29.5529 44.6107C29.6144 45.8716 30.1549 47.0614 31.0642 47.9372L33.8573 45.0372ZM34.7003 45.8492L33.8573 45.0372L31.0642 47.9372L31.9072 48.7491L34.7003 45.8492ZM33.9942 45.6673C34.2452 45.5999 34.5131 45.6689 34.7003 45.8492L31.9072 48.7491C32.7373 49.5487 33.9257 49.8548 35.0389 49.5557L33.9942 45.6673ZM33.4824 46.6131C33.3503 46.2094 33.584 45.7775 33.9942 45.6673L35.0388 49.5557C36.8582 49.067 37.8949 47.1516 37.3091 45.3611L33.4824 46.6131ZM32.0545 42.2487L33.4824 46.6131L37.3091 45.3611L35.8812 40.9967L32.0545 42.2487ZM32.5048 42.7054C32.2914 42.6322 32.1247 42.4632 32.0545 42.2487L35.8812 40.9967C35.5585 40.0104 34.7916 39.2328 33.8098 38.8964L32.5048 42.7054ZM48.4135 36.5212C48.0195 36.1232 48.1846 35.4494 48.718 35.2785L49.9465 39.1128C52.2743 38.367 52.9947 35.4265 51.2753 33.6891L48.4135 36.5212ZM49.2772 36.6673C48.9878 36.8091 48.6402 36.7503 48.4135 36.5212L51.2753 33.6891C50.2859 32.6893 48.7687 32.4328 47.5056 33.0517L49.2772 36.6673ZM47.4538 37.5607L49.2772 36.6673L47.5056 33.0517L45.6822 33.9452L47.4538 37.5607ZM47.7043 36.1291C48.1285 36.5677 48.0016 37.2923 47.4538 37.5607L45.6822 33.9452C43.7753 34.8795 43.3339 37.4019 44.8102 38.9283L47.7043 36.1291ZM46.7843 35.8981C47.1099 35.7938 47.4666 35.8833 47.7043 36.1291L44.8102 38.9283C45.6378 39.7839 46.8792 40.0956 48.0128 39.7324L46.7843 35.8981ZM48.718 35.2785L46.7843 35.8981L48.0128 39.7324L49.9465 39.1128L48.718 35.2785ZM39.9546 48.0159C40.472 48.3431 40.566 49.0594 40.1506 49.5091L37.1932 46.7769C35.9018 48.1747 36.194 50.4014 37.8024 51.4187L39.9546 48.0159ZM42.2403 49.4615L39.9546 48.0159L37.8024 51.4187L40.0881 52.8643L42.2403 49.4615ZM41.9584 49.3945C42.0572 49.3849 42.1564 49.4085 42.2403 49.4615L40.0881 52.8643C40.7608 53.2898 41.5561 53.4789 42.3483 53.4018L41.9584 49.3945ZM42.2355 49.3675L41.9584 49.3945L42.3483 53.4018L42.6254 53.3749L42.2355 49.3675ZM41.4767 49.8027C41.6555 49.5556 41.9319 49.3971 42.2355 49.3675L42.6254 53.3749C43.4711 53.2926 44.2407 52.8512 44.7388 52.1628L41.4767 49.8027ZM41.8067 51.3474C41.2605 51.0321 41.1071 50.3136 41.4767 49.8027L44.7388 52.1628C45.7683 50.7398 45.3408 48.7387 43.8198 47.8606L41.8067 51.3474ZM38.9408 49.6928L41.8067 51.3474L43.8198 47.8606L40.9539 46.2059L38.9408 49.6928ZM40.1506 49.5091C39.8398 49.8455 39.3374 49.9218 38.9408 49.6928L40.9539 46.2059C39.7209 45.4941 38.1594 45.7312 37.1933 46.7769L40.1506 49.5091ZM36.0466 53.4629C36.6497 53.2945 37.2941 53.3602 37.8509 53.6467L39.6933 50.0667C38.2339 49.3157 36.5447 49.1436 34.9639 49.5849L36.0466 53.4629ZM35.3306 53.6628L36.0466 53.4629L34.9639 49.5849L34.2479 49.7848L35.3306 53.6628ZM34.7998 54.1072C34.9046 53.8896 35.098 53.7277 35.3306 53.6628L34.2479 49.7848C32.9004 50.161 31.7801 51.099 31.1727 52.3593L34.7998 54.1072ZM35.1365 55.1993C34.7558 54.9795 34.6089 54.5032 34.7998 54.1072L31.1727 52.3593C30.067 54.6537 30.9176 57.4126 33.1234 58.6861L35.1365 55.1993ZM35.9511 55.6696L35.1365 55.1993L33.1234 58.6861L33.938 59.1565L35.9511 55.6696ZM38.4134 58.7548C38.0107 57.4529 37.1313 56.351 35.9511 55.6696L33.938 59.1565C34.2394 59.3305 34.4641 59.612 34.5669 59.9445L38.4134 58.7548ZM38.5563 59.2169L38.4134 58.7548L34.5669 59.9445L34.7098 60.4066L38.5563 59.2169ZM38.6234 59.3009C38.5913 59.2824 38.5673 59.2524 38.5563 59.2169L34.7098 60.4066C35.0206 61.4115 35.6994 62.2619 36.6102 62.7878L38.6234 59.3009ZM38.8245 59.2471C38.7838 59.3175 38.6938 59.3416 38.6234 59.3009L36.6102 62.7878C38.6064 63.9403 41.1589 63.2564 42.3114 61.2602L38.8245 59.2471ZM39.5682 57.9589L38.8245 59.2471L42.3114 61.2602L43.0551 59.972L39.5682 57.9589ZM39.7522 56.805C39.8351 57.1992 39.7696 57.6101 39.5682 57.9589L43.0551 59.972C43.7525 58.764 43.9794 57.3411 43.6922 55.9761L39.7522 56.805ZM39.5239 55.7198L39.7522 56.805L43.6922 55.9761L43.4639 54.8908L39.5239 55.7198ZM38.0029 53.725C38.7843 54.1271 39.3429 54.8598 39.5239 55.7198L43.4639 54.8908C43.0334 52.8449 41.7043 51.1017 39.8453 50.145L38.0029 53.725ZM37.8509 53.6467L38.0029 53.725L39.8453 50.145L39.6933 50.0667L37.8509 53.6467ZM37.4309 40.1804C35.3005 40.7821 34.2647 43.1926 35.2942 45.1522L38.8586 43.2796C39.0191 43.5853 38.8576 43.9613 38.5253 44.0551L37.4309 40.1804ZM39.6687 39.5484L37.4309 40.1805L38.5253 44.0551L40.763 43.4231L39.6687 39.5484ZM42.4093 40.2867C41.7011 39.5552 40.6485 39.2717 39.6687 39.5484L40.763 43.4231C40.3174 43.549 39.8387 43.42 39.5166 43.0873L42.4093 40.2867ZM41.7047 44.6636C43.3424 43.8061 43.6952 41.6148 42.4093 40.2867L39.5166 43.0873C38.9318 42.4833 39.0922 41.4867 39.8371 41.0967L41.7047 44.6636ZM41.6372 44.6989L41.7047 44.6636L39.8371 41.0967L39.7696 41.132L41.6372 44.6989ZM42.1811 44.1152C42.0716 44.366 41.8797 44.572 41.6372 44.6989L39.7696 41.132C39.1997 41.4304 38.7487 41.9144 38.4913 42.504L42.1811 44.1152ZM41.93 44.6903L42.1811 44.1152L38.4913 42.5039L38.2401 43.0791L41.93 44.6903ZM40.0176 46.615C40.8731 46.2349 41.5553 45.5483 41.93 44.6903L38.2401 43.0791C38.2681 43.0151 38.319 42.9639 38.3828 42.9355L40.0176 46.615ZM39.7918 46.7153L40.0176 46.615L38.3828 42.9355L38.157 43.0358L39.7918 46.7153ZM35.2942 45.1523C36.1477 46.7766 38.115 47.4603 39.7918 46.7153L38.157 43.0358C38.4186 42.9196 38.7254 43.0263 38.8585 43.2796L35.2942 45.1523ZM41.4194 60.6478C40.2143 61.2174 39.5141 62.4991 39.686 63.8209L43.6786 63.3018C43.732 63.7126 43.5144 64.1109 43.14 64.2879L41.4194 60.6478ZM42.5761 60.1011L41.4194 60.6478L43.14 64.2879L44.2967 63.7412L42.5761 60.1011ZM46.8166 61.9426C46.2501 60.1733 44.2556 59.3072 42.5761 60.1011L44.2967 63.7412C43.776 63.9873 43.1576 63.7188 42.982 63.1703L46.8166 61.9426ZM45.1953 65.662C46.5935 65.0058 47.2876 63.4137 46.8166 61.9426L42.982 63.1703C42.836 62.7142 43.0512 62.2206 43.4847 62.0172L45.1953 65.662ZM44.0371 66.2056L45.1953 65.662L43.4847 62.0172L42.3265 62.5608L44.0371 66.2056ZM39.686 63.8209C39.9542 65.8844 42.1534 67.0896 44.0371 66.2056L42.3265 62.5608C42.9119 62.286 43.5953 62.6606 43.6786 63.3019L39.686 63.8209Z" fill="currentColor" />
</svg>