<svg viewBox="0 0 80 80" fill="none">
  <path d="M29.3934 14.3934C36.1847 11.5804 43.8153 11.5804 50.6066 14.3934C57.3979 17.2064 62.7936 22.6021 65.6066 29.3934C68.4196 36.1847 68.4196 43.8153 65.6066 50.6066C62.7936 57.3979 57.3979 62.7936 50.6066 65.6066C43.8153 68.4196 36.1847 68.4196 29.3934 65.6066C22.6021 62.7936 17.2064 57.3979 14.3934 50.6066C11.5804 43.8153 11.5804 36.1847 14.3934 29.3934C17.2064 22.6021 22.6021 17.2064 29.3934 14.3934Z" fill="currentColor" fill-opacity="0.15" stroke="currentColor" stroke-width="4" stroke-linecap="round" stroke-linejoin="round" />
  <path d="M20.5749 22.7448L19.1794 21.3121L19.1794 21.3121L20.5749 22.7448ZM18.4254 23.4892L18.6359 21.5003H18.6359L18.4254 23.4892ZM21.3353 22.0041L22.7308 23.4368L22.7308 23.4368L21.3353 22.0041ZM24.8689 20.6041L24.9047 18.6045L24.9046 18.6045L24.8689 20.6041ZM24.9005 20.6047L26.4157 19.2993C26.0439 18.8677 25.5058 18.6152 24.9363 18.605L24.9005 20.6047ZM27.3465 23.4437L25.8313 24.7492C26.2531 25.2387 26.8854 25.4943 27.5289 25.4354L27.3465 23.4437ZM29.2229 23.2719L29.0405 21.2802H29.0405L29.2229 23.2719ZM30.2055 23.1819L30.3879 25.1736L30.3879 25.1736L30.2055 23.1819ZM31.7323 22.464L30.3148 21.0531L30.3148 21.0531L31.7323 22.464ZM33.3367 21.7402L33.4563 23.7366H33.4563L33.3367 21.7402ZM36.5303 23.5143L38.0301 22.1912L38.0301 22.1912L36.5303 23.5143ZM36.4053 27.2607L34.9971 25.8405L34.9971 25.8405L36.4053 27.2607ZM34.3897 28.0509L34.322 30.0497L34.3897 28.0509ZM32.0793 27.9726L32.147 25.9737H32.147L32.0793 27.9726ZM31.3307 28.3985L33.0838 29.3613L33.0838 29.3612L31.3307 28.3985ZM30.3344 28.7774L31.0048 26.8931L31.0048 26.8931L30.3344 28.7774ZM26.5489 27.4306L25.8785 29.3149H25.8785L26.5489 27.4306ZM25.8594 26.5686L23.8739 26.8087L23.8739 26.8087L25.8594 26.5686ZM24.7829 25.6465L24.8506 27.6453L24.8506 27.6453L24.7829 25.6465ZM21.1509 25.7695L21.2186 27.7684H21.2186L21.1509 25.7695ZM20.5678 25.5013L19.0059 26.7505L19.0059 26.7505L20.5678 25.5013ZM19.4447 25.5083L21.022 26.738L21.022 26.738L19.4447 25.5083ZM17.3849 28.1502L15.8076 26.9205L15.8076 26.9205L17.3849 28.1502ZM16.6933 29.8614L18.6821 30.0728L18.6821 30.0728L16.6933 29.8614ZM16.3657 32.9427L14.3769 32.7312L14.3769 32.7312L16.3657 32.9427ZM18.6506 39.4321L20.0682 38.0212L20.0682 38.0212L18.6506 39.4321ZM19.8871 40.6743L18.4695 42.0852L18.4695 42.0852L19.8871 40.6743ZM22.9461 41.9678L22.9215 43.9676H22.9215L22.9461 41.9678ZM27.2835 46.2808L25.2838 46.3167V46.3167L27.2835 46.2808ZM27.3169 48.1411L29.3166 48.1052L29.3166 48.1051L27.3169 48.1411ZM28.6396 50.8112L29.8798 49.2422L29.8798 49.2422L28.6396 50.8112ZM29.961 53.434L27.962 53.4971L27.962 53.4971L29.961 53.434ZM30.0907 57.5427L32.0897 57.4796L32.0897 57.4796L30.0907 57.5427ZM30.7892 59.582L29.1705 60.7567L29.1705 60.7567L30.7892 59.582ZM33.668 61.0915L33.6245 63.091H33.6245L33.668 61.0915ZM36.3918 59.9594L37.8398 61.339L37.8398 61.339L36.3918 59.9594ZM37.7048 58.5813L39.1528 59.9609L39.1528 59.9609L37.7048 58.5813ZM39.903 53.1129L41.903 53.1193V53.1193L39.903 53.1129ZM39.9207 47.5949L41.9207 47.6013L39.9207 47.5949ZM41.6894 43.2703L40.2581 41.8734L40.2581 41.8734L41.6894 43.2703ZM42.7864 42.1464L44.2177 43.5433L44.2177 43.5433L42.7864 42.1464ZM43.6531 38.8715L45.588 38.3654L45.588 38.3654L43.6531 38.8715ZM42.7966 37.3489L41.3594 38.7396L41.3594 38.7396L42.7966 37.3489ZM37.6455 32.0255L39.0828 30.6347L39.0828 30.6347L37.6455 32.0255ZM37.7827 30.7261L38.8979 32.3864L38.8979 32.3863L37.7827 30.7261ZM38.8745 30.8459L37.4259 32.2249L37.4259 32.2249L38.8745 30.8459ZM41.548 33.6545L40.0994 35.0335L40.0994 35.0335L41.548 33.6545ZM44.467 34.9779L44.5496 32.9796H44.5496L44.467 34.9779ZM45.2828 35.0117L45.2002 37.0099H45.2002L45.2828 35.0117ZM47.0935 34.3035L48.5099 35.7156H48.5099L47.0935 34.3035ZM47.0931 30.8917L48.5092 29.4793V29.4793L47.0931 30.8917ZM44.3251 28.1164L42.909 29.5288L44.3251 28.1164ZM44.2191 27.3138L45.9532 28.3101L45.9532 28.3101L44.2191 27.3138ZM45.2653 27.1717L46.6708 25.7488L45.2653 27.1717ZM46.5154 28.4066L45.1099 29.8294L45.1099 29.8294L46.5154 28.4066ZM47.9231 28.9896L47.9111 30.9896H47.9111L47.9231 28.9896ZM49.0196 28.9962L49.0316 26.9963L49.0196 28.9962ZM53.0066 31.241L51.3029 32.2885V32.2885L53.0066 31.241ZM55.6591 35.5551L53.9553 36.6026L53.9553 36.6026L55.6591 35.5551ZM56.1444 35.8796L56.4615 33.9049L56.4615 33.9049L56.1444 35.8796ZM56.9277 35.3836L55.0069 34.8262V34.8262L56.9277 35.3836ZM57.5721 33.163L55.6513 32.6056L55.6513 32.6056L57.5721 33.163ZM58.0851 32.1229L59.6965 33.3075L59.6965 33.3075L58.0851 32.1229ZM58.6227 31.3915L57.0113 30.2069L57.0113 30.2069L58.6227 31.3915ZM64.2254 31.5899L62.5342 32.6576V32.6576L64.2254 31.5899ZM64.7155 32.3662L63.0243 33.4339L63.0243 33.4339L64.7155 32.3662ZM66.9116 33.3369L67.2613 35.3061C67.8064 35.2093 68.2869 34.8909 68.5885 34.4267C68.8902 33.9625 68.986 33.3941 68.8531 32.8567L66.9116 33.3369ZM65.6122 29.3842L67.46 28.6188V28.6188L65.6122 29.3842ZM50.6122 14.3842L51.3776 12.5364V12.5364L50.6122 14.3842ZM29.399 14.3842L28.6336 12.5364V12.5364L29.399 14.3842ZM17.787 23.4217L16.1838 22.226C15.7541 22.8021 15.6666 23.5645 15.9546 24.223C16.2426 24.8815 16.8617 25.3349 17.5765 25.4105L17.787 23.4217ZM67.4615 36.1991L69.4427 35.9255C69.364 35.3554 69.0435 34.8469 68.5632 34.5299C68.0829 34.2128 67.4893 34.1181 66.9342 34.2698L67.4615 36.1991ZM67.7024 41.0337L66.0152 42.1077C66.4852 42.846 67.3807 43.193 68.2255 42.964C69.0703 42.7351 69.668 41.9835 69.701 41.1089L67.7024 41.0337ZM66.393 38.9768L68.0801 37.9028V37.9028L66.393 38.9768ZM35.4994 20.3165L37.3144 21.1566L37.3144 21.1566L35.4994 20.3165ZM38.7532 18.0605L38.9035 20.0549H38.9035L38.7532 18.0605ZM39.5486 18.0006L39.3983 16.0062H39.3983L39.5486 18.0006ZM41.7959 19.0671L43.4359 17.9224L43.4359 17.9224L41.7959 19.0671ZM42.2474 19.7141L40.6074 20.8588L40.6074 20.8588L42.2474 19.7141ZM42.0248 21.8048L40.6627 20.3403L40.6626 20.3403L42.0248 21.8048ZM40.1425 22.0252L39.1555 23.7647L39.1555 23.7647L40.1425 22.0252ZM39.4955 21.6581L40.4825 19.9186L39.4955 21.6581ZM37.9341 21.3312L37.7278 19.3419L37.7278 19.3419L37.9341 21.3312ZM42.7455 52.1309L40.7486 52.0199V52.0199L42.7455 52.1309ZM42.8075 51.0164L44.8044 51.1275V51.1275L42.8075 51.0164ZM43.2892 49.708L41.6971 48.4976L41.6971 48.4976L43.2892 49.708ZM43.7123 49.1516L45.3044 50.3621L45.3044 50.3621L43.7123 49.1516ZM44.5737 48.7016L44.4894 46.7033H44.4894L44.5737 48.7016ZM45.764 49.8796L47.7629 49.9434V49.9434L45.764 49.8796ZM45.7118 51.5144L47.7108 51.5782V51.5782L45.7118 51.5144ZM45.4316 52.4928L47.1612 53.4969L47.1612 53.4969L45.4316 52.4928ZM45.2129 52.8694L43.4833 51.8652L43.4833 51.8652L45.2129 52.8694ZM19.1794 21.3121C19.0352 21.4525 18.836 21.5215 18.6359 21.5003L18.2148 25.4781C19.5978 25.6245 20.9742 25.1478 21.9704 24.1775L19.1794 21.3121ZM19.9398 20.5715L19.1794 21.3121L21.9704 24.1775L22.7308 23.4368L19.9398 20.5715ZM24.9046 18.6045C23.0535 18.5715 21.266 19.2797 19.9398 20.5715L22.7308 23.4368C23.2924 22.8898 24.0494 22.5899 24.8333 22.6038L24.9046 18.6045ZM24.9363 18.605L24.9047 18.6045L24.8332 22.6038L24.8648 22.6044L24.9363 18.605ZM28.8617 22.1383L26.4157 19.2993L23.3853 21.9102L25.8313 24.7492L28.8617 22.1383ZM29.0405 21.2802L27.1641 21.4521L27.5289 25.4354L29.4053 25.2636L29.0405 21.2802ZM30.0232 21.1903L29.0405 21.2802L29.4053 25.2636L30.3879 25.1736L30.0232 21.1903ZM30.3148 21.0531C30.2367 21.1316 30.1334 21.1802 30.0232 21.1903L30.3879 25.1736C31.4324 25.0779 32.41 24.6183 33.1499 23.8749L30.3148 21.0531ZM33.2171 19.7438C32.1218 19.8094 31.0888 20.2754 30.3148 21.0531L33.1499 23.8749C33.2316 23.7928 33.3407 23.7436 33.4563 23.7366L33.2171 19.7438ZM34.7637 19.6511L33.2171 19.7438L33.4563 23.7366L35.0029 23.644L34.7637 19.6511ZM38.0301 22.1912L36.3831 20.3244L33.3836 22.9707L35.0306 24.8375L38.0301 22.1912ZM37.8135 28.6809C39.593 26.9164 39.688 24.0704 38.0301 22.1912L35.0306 24.8375C35.2868 25.1279 35.2721 25.5678 34.9971 25.8405L37.8135 28.6809ZM34.322 30.0497C35.6247 30.0939 36.8879 29.5987 37.8135 28.6809L34.9971 25.8405C34.8541 25.9823 34.6588 26.0589 34.4575 26.052L34.322 30.0497ZM32.0115 29.9714L34.322 30.0497L34.4575 26.052L32.147 25.9737L32.0115 29.9714ZM33.0838 29.3612C32.87 29.7505 32.4554 29.9864 32.0115 29.9714L32.147 25.9737C31.0834 25.9376 30.09 26.5029 29.5777 27.4358L33.0838 29.3612ZM29.664 30.6617C30.9686 31.1258 32.4172 30.575 33.0838 29.3613L29.5777 27.4358C29.8559 26.9292 30.4604 26.6994 31.0048 26.8931L29.664 30.6617ZM25.8785 29.3149L29.664 30.6617L31.0048 26.8931L27.2193 25.5463L25.8785 29.3149ZM23.8739 26.8087C24.0127 27.9567 24.7891 28.9273 25.8785 29.3149L27.2193 25.5463C27.5593 25.6672 27.8016 25.9701 27.8449 26.3284L23.8739 26.8087ZM24.8506 27.6453C24.3573 27.662 23.9331 27.2987 23.8739 26.8087L27.8449 26.3284C27.655 24.7582 26.2958 23.5941 24.7151 23.6476L24.8506 27.6453ZM21.2186 27.7684L24.8506 27.6453L24.7151 23.6476L21.0831 23.7707L21.2186 27.7684ZM19.0059 26.7505C19.5414 27.4201 20.3617 27.7974 21.2186 27.7684L21.0831 23.7707C21.4885 23.7569 21.8764 23.9354 22.1297 24.2521L19.0059 26.7505ZM21.022 26.738C20.5118 27.3924 19.5242 27.3985 19.0059 26.7505L22.1298 24.2521C21.034 22.8821 18.9461 22.895 17.8675 24.2785L21.022 26.738ZM18.9622 29.3799L21.022 26.738L17.8675 24.2785L15.8076 26.9205L18.9622 29.3799ZM18.6821 30.0728C18.709 29.8203 18.806 29.5802 18.9622 29.3799L15.8076 26.9205C15.1925 27.7095 14.8103 28.655 14.7046 29.6499L18.6821 30.0728ZM18.3545 33.1542L18.6821 30.0728L14.7046 29.6499L14.3769 32.7312L18.3545 33.1542ZM20.0682 38.0212C18.7929 36.7399 18.1633 34.9518 18.3545 33.1542L14.3769 32.7312C14.0583 35.7273 15.1076 38.7074 17.2331 40.8429L20.0682 38.0212ZM21.3046 39.2635L20.0682 38.0212L17.2331 40.8429L18.4695 42.0852L21.3046 39.2635ZM22.9707 39.9679C22.3445 39.9602 21.7464 39.7073 21.3046 39.2635L18.4695 42.0852C19.6499 43.2712 21.2483 43.947 22.9215 43.9676L22.9707 39.9679ZM29.2832 46.2449C29.2212 42.7904 26.4254 40.0104 22.9707 39.9679L22.9215 43.9676C24.2144 43.9835 25.2606 45.0239 25.2838 46.3167L29.2832 46.2449ZM29.3166 48.1051L29.2832 46.2449L25.2838 46.3167L25.3173 48.177L29.3166 48.1051ZM29.8798 49.2422C29.5313 48.9667 29.3246 48.5494 29.3166 48.1052L25.3173 48.177C25.3467 49.8191 26.1108 51.3616 27.3993 52.3802L29.8798 49.2422ZM31.96 53.371C31.9091 51.7554 31.1479 50.2446 29.8798 49.2422L27.3993 52.3802C27.7423 52.6514 27.9482 53.0601 27.962 53.4971L31.96 53.371ZM32.0897 57.4796L31.96 53.371L27.962 53.4971L28.0917 57.6058L32.0897 57.4796ZM32.4078 58.4073C32.2111 58.1362 32.1001 57.8115 32.0897 57.4796L28.0917 57.6057C28.1275 58.741 28.5051 59.8397 29.1705 60.7567L32.4078 58.4073ZM33.7115 59.092C33.1975 59.0808 32.7126 58.8273 32.4078 58.4073L29.1705 60.7567C30.2071 62.1849 31.8555 63.0525 33.6245 63.091L33.7115 59.092ZM34.9438 58.5798C34.6233 58.9161 34.176 59.1021 33.7115 59.092L33.6245 63.091C35.2135 63.1256 36.7435 62.4896 37.8398 61.339L34.9438 58.5798ZM36.2568 57.2017L34.9438 58.5798L37.8398 61.339L39.1528 59.9609L36.2568 57.2017ZM37.903 53.1064C37.8981 54.6318 37.309 56.0973 36.2568 57.2017L39.1528 59.9609C40.9106 58.1159 41.8948 55.6676 41.903 53.1193L37.903 53.1064ZM37.9207 47.5885L37.903 53.1064L41.903 53.1193L41.9207 47.6013L37.9207 47.5885ZM40.2581 41.8734C38.7659 43.4023 37.9276 45.4521 37.9207 47.5885L41.9207 47.6013C41.9242 46.5045 42.3546 45.4522 43.1207 44.6673L40.2581 41.8734ZM41.3551 40.7494L40.2581 41.8734L43.1207 44.6673L44.2177 43.5433L41.3551 40.7494ZM41.7182 39.3775C41.8461 39.8668 41.7083 40.3875 41.3551 40.7495L44.2177 43.5433C45.551 42.1771 46.071 40.2123 45.588 38.3654L41.7182 39.3775ZM41.3594 38.7396C41.5318 38.9179 41.6554 39.1375 41.7182 39.3775L45.588 38.3654C45.3512 37.4599 44.8848 36.6307 44.2339 35.9581L41.3594 38.7396ZM36.2082 33.4162L41.3594 38.7396L44.2339 35.9581L39.0828 30.6347L36.2082 33.4162ZM36.6675 29.0659C35.1929 30.0565 34.9729 32.1396 36.2083 33.4162L39.0828 30.6347C39.5802 31.1487 39.4916 31.9875 38.8979 32.3864L36.6675 29.0659ZM40.3232 29.467C39.3651 28.4605 37.821 28.2911 36.6674 29.066L38.8979 32.3863C38.4334 32.6984 37.8117 32.6301 37.4259 32.2249L40.3232 29.467ZM42.9967 32.2756L40.3232 29.467L37.4259 32.2249L40.0994 35.0335L42.9967 32.2756ZM44.5496 32.9796C43.9602 32.9553 43.4034 32.7028 42.9967 32.2756L40.0994 35.0335C41.2217 36.2124 42.7581 36.909 44.3844 36.9762L44.5496 32.9796ZM45.3654 33.0134L44.5496 32.9796L44.3844 36.9762L45.2002 37.0099L45.3654 33.0134ZM45.6771 32.8914C45.5949 32.9739 45.4818 33.0182 45.3654 33.0134L45.2002 37.0099C46.436 37.061 47.6366 36.5915 48.5099 35.7156L45.6771 32.8914ZM45.6771 32.304C45.839 32.4664 45.839 32.7291 45.6771 32.8914L48.5099 35.7156C50.2283 33.9918 50.228 31.2026 48.5092 29.4793L45.6771 32.304ZM42.909 29.5288L45.6771 32.304L48.5092 29.4793L45.7411 26.704L42.909 29.5288ZM42.4849 26.3174C41.8853 27.361 42.0591 28.6767 42.909 29.5288L45.7411 26.704C46.1661 27.1302 46.2531 27.7882 45.9532 28.3101L42.4849 26.3174ZM46.6708 25.7488C45.4267 24.5198 43.3561 24.8011 42.4849 26.3174L45.9532 28.3101C45.5175 29.0685 44.482 29.2092 43.8597 28.5945L46.6708 25.7488ZM47.9209 26.9838L46.6708 25.7488L43.8597 28.5945L45.1099 29.8294L47.9209 26.9838ZM47.9352 26.9897C47.9298 26.9896 47.9247 26.9875 47.9209 26.9838L45.1099 29.8294C45.8564 30.5669 46.8617 30.9833 47.9111 30.9896L47.9352 26.9897ZM49.0316 26.9963L47.9352 26.9897L47.9111 30.9896L49.0076 30.9962L49.0316 26.9963ZM54.7103 30.1935C53.4963 28.2189 51.3495 27.0102 49.0316 26.9963L49.0076 30.9962C49.9445 31.0018 50.8122 31.4904 51.3029 32.2885L54.7103 30.1935ZM57.3628 34.5076L54.7103 30.1935L51.3029 32.2885L53.9553 36.6026L57.3628 34.5076ZM56.4615 33.9049C56.8353 33.965 57.1645 34.185 57.3628 34.5076L53.9553 36.6026C54.3673 37.2726 55.0509 37.7297 55.8274 37.8544L56.4615 33.9049ZM55.0069 34.8262C55.1898 34.196 55.8136 33.8009 56.4615 33.9049L55.8274 37.8544C57.173 38.0704 58.4687 37.2498 58.8485 35.9409L55.0069 34.8262ZM55.6513 32.6056L55.0069 34.8262L58.8485 35.9409L59.4929 33.7204L55.6513 32.6056ZM56.4737 30.9382C56.1037 31.4414 55.8254 32.0058 55.6513 32.6056L59.4929 33.7204C59.536 33.5719 59.6049 33.4321 59.6965 33.3075L56.4737 30.9382ZM57.0113 30.2069L56.4737 30.9383L59.6965 33.3075L60.2341 32.5762L57.0113 30.2069ZM65.9165 30.5223C63.8881 27.3093 59.2619 27.1455 57.0113 30.2069L60.2341 32.5762C60.8154 31.7855 62.0103 31.8278 62.5342 32.6576L65.9165 30.5223ZM66.4067 31.2985L65.9165 30.5222L62.5342 32.6576L63.0243 33.4339L66.4067 31.2985ZM66.5618 31.3677C66.5019 31.3783 66.4398 31.3511 66.4066 31.2985L63.0243 33.4339C63.9315 34.8709 65.6123 35.599 67.2613 35.3061L66.5618 31.3677ZM63.7645 30.1496C64.2607 31.3476 64.6625 32.5736 64.97 33.817L68.8531 32.8567C68.4977 31.4197 68.0333 30.003 67.46 28.6188L63.7645 30.1496ZM49.8468 16.232C56.1481 18.842 61.1544 23.8483 63.7645 30.1496L67.46 28.6188C64.4439 21.3375 58.6589 15.5525 51.3776 12.5364L49.8468 16.232ZM30.1644 16.232C36.4656 13.6219 43.5456 13.6219 49.8468 16.232L51.3776 12.5364C44.0962 9.52041 35.915 9.52041 28.6336 12.5364L30.1644 16.232ZM19.3903 24.6173C22.1377 20.9333 25.8471 18.0202 30.1644 16.232L28.6336 12.5364C23.6447 14.6029 19.3583 17.9693 16.1838 22.226L19.3903 24.6173ZM18.6359 21.5003L17.9976 21.4328L17.5765 25.4105L18.2148 25.4781L18.6359 21.5003ZM65.4803 36.4726C65.6856 37.96 65.7601 39.4611 65.7038 40.9584L69.701 41.1089C69.7661 39.3787 69.68 37.6442 69.4427 35.9255L65.4803 36.4726ZM69.3895 39.9596L68.0801 37.9028L64.7058 40.0508L66.0152 42.1077L69.3895 39.9596ZM68.0801 37.9028C68.088 37.9152 68.0987 37.9409 68.1014 37.9724C68.1037 38.0003 68.0991 38.0222 68.093 38.0381C68.0869 38.0538 68.0761 38.0716 68.0572 38.0891C68.0358 38.1089 68.0098 38.1225 67.9888 38.1283L66.9342 34.2698C64.4607 34.9459 63.3012 37.8443 64.7058 40.0508L68.0801 37.9028ZM33.6845 19.4764L33.0683 20.8074L36.6983 22.4877L37.3144 21.1566L33.6845 19.4764ZM38.6029 16.0662C36.4664 16.2272 34.5844 17.532 33.6845 19.4764L37.3144 21.1566C37.6052 20.5285 38.2132 20.1069 38.9035 20.0549L38.6029 16.0662ZM39.3983 16.0062L38.6029 16.0662L38.9035 20.0549L39.6989 19.9949L39.3983 16.0062ZM43.4359 17.9224C42.5233 16.615 40.9883 15.8864 39.3983 16.0062L39.6989 19.9949C39.8788 19.9814 40.0526 20.0638 40.1558 20.2118L43.4359 17.9224ZM43.8875 18.5694L43.4359 17.9224L40.1558 20.2118L40.6074 20.8588L43.8875 18.5694ZM43.3869 23.2693C44.7017 22.0464 44.9152 20.0419 43.8875 18.5694L40.6074 20.8588C40.4941 20.6964 40.5176 20.4753 40.6627 20.3403L43.3869 23.2693ZM39.1555 23.7647C40.5229 24.5406 42.2356 24.3401 43.3869 23.2693L40.6626 20.3403C40.7896 20.2222 40.9786 20.2001 41.1294 20.2857L39.1555 23.7647ZM38.5085 23.3977L39.1555 23.7647L41.1294 20.2857L40.4825 19.9186L38.5085 23.3977ZM38.1404 23.3206C38.2681 23.3073 38.3968 23.3343 38.5085 23.3977L40.4825 19.9186C39.6466 19.4444 38.6837 19.2428 37.7278 19.3419L38.1404 23.3206ZM35.0896 23.6369L38.1404 23.3206L37.7278 19.3419L34.6771 19.6582L35.0896 23.6369ZM40.7486 52.0199C40.6426 53.9254 42.1592 55.5287 44.0677 55.5287V51.5287C44.4557 51.5287 44.764 51.8546 44.7424 52.242L40.7486 52.0199ZM40.8106 50.9054L40.7486 52.0199L44.7424 52.242L44.8044 51.1275L40.8106 50.9054ZM41.6971 48.4976C41.1679 49.1937 40.8591 50.0323 40.8106 50.9054L44.8044 51.1275C44.8086 51.0517 44.8354 50.9789 44.8814 50.9185L41.6971 48.4976ZM42.1202 47.9412L41.6971 48.4976L44.8813 50.9185L45.3044 50.3621L42.1202 47.9412ZM44.4894 46.7033C43.5548 46.7428 42.6864 47.1965 42.1202 47.9412L45.3044 50.3621C45.1499 50.5652 44.913 50.689 44.658 50.6998L44.4894 46.7033ZM47.7629 49.9434C47.8212 48.1171 46.315 46.6263 44.4894 46.7033L44.658 50.6998C44.16 50.7208 43.7491 50.3141 43.765 49.8158L47.7629 49.9434ZM47.7108 51.5782L47.7629 49.9434L43.765 49.8158L43.7128 51.4507L47.7108 51.5782ZM47.1612 53.4969C47.5004 52.9127 47.6892 52.2534 47.7108 51.5782L43.7128 51.4506C43.7124 51.464 43.7087 51.477 43.7019 51.4886L47.1612 53.4969ZM46.9426 53.8736L47.1612 53.4969L43.702 51.4886L43.4833 51.8652L46.9426 53.8736ZM44.0677 55.5287C45.2525 55.5287 46.3477 54.8981 46.9426 53.8735L43.4833 51.8652C43.6042 51.6569 43.8269 51.5287 44.0677 51.5287V55.5287Z" fill="currentColor" />
</svg>