<svg viewBox="0 0 80 80" fill="none">
  <path d="M29.3934 14.3934C36.1847 11.5804 43.8153 11.5804 50.6066 14.3934C57.3979 17.2064 62.7936 22.6021 65.6066 29.3934C68.4196 36.1847 68.4196 43.8153 65.6066 50.6066C62.7936 57.3979 57.3979 62.7936 50.6066 65.6066C43.8153 68.4196 36.1847 68.4196 29.3934 65.6066C22.6021 62.7936 17.2064 57.3979 14.3934 50.6066C11.5804 43.8153 11.5804 36.1847 14.3934 29.3934C17.2064 22.6021 22.6021 17.2064 29.3934 14.3934Z" fill="currentColor" fill-opacity="0.15" stroke="currentColor" stroke-width="4" />
  <path d="M27.7312 44.4653L29.1232 45.9014L27.7312 44.4653ZM24.4121 45.6111L24.2026 47.6001H24.2026L24.4121 45.6111ZM28.9063 43.3262L30.2983 44.7623L30.2983 44.7623L28.9063 43.3262ZM34.3627 41.1719L34.3273 43.1716H34.3273L34.3627 41.1719ZM34.4187 41.1729L35.9307 39.8638C35.5589 39.4344 35.0221 39.1833 34.4541 39.1732L34.4187 41.1729ZM38.2003 45.5406L36.6883 46.8498C37.11 47.3367 37.7403 47.5908 38.3818 47.5324L38.2003 45.5406ZM41.1013 45.2763L40.9198 43.2845H40.9198L41.1013 45.2763ZM42.6238 45.1376L42.8053 47.1293H42.8053L42.6238 45.1376ZM44.9811 44.0333L43.567 42.619L44.9811 44.0333ZM47.4578 42.9201L47.5768 44.9165L47.4578 42.9201ZM52.3911 45.6403L50.8946 46.9672V46.9672L52.3911 45.6403ZM52.1982 51.4203L50.7935 49.9967V49.9967L52.1982 51.4203ZM49.1046 52.6291L49.172 50.6302L49.1046 52.6291ZM45.515 52.508L45.5824 50.5091L45.515 52.508ZM44.3599 53.1638L46.1109 54.1302L46.1109 54.1302L44.3599 53.1638ZM42.8236 53.7476L43.491 51.8622L43.491 51.8622L42.8236 53.7476ZM36.9642 51.6732L36.2967 53.5585L36.2967 53.5585L36.9642 51.6732ZM35.901 50.347L33.9156 50.5883V50.5883L35.901 50.347ZM34.2451 48.9292L34.3125 50.9281L34.2451 48.9292ZM28.6206 49.1188L28.6879 51.1177H28.6879L28.6206 49.1188ZM27.7197 48.7056L29.2786 47.4527L29.2786 47.4527L27.7197 48.7056ZM25.9841 48.7164L27.5585 49.9499L25.9841 48.7164ZM22.8055 52.7733L24.3798 54.0068L24.3798 54.0068L22.8055 52.7733ZM21.7286 55.4268L19.7399 55.2143L21.7286 55.4268ZM21.2022 60.3532L19.2135 60.1407C19.1463 60.7697 19.3806 61.3934 19.8453 61.8225L21.2022 60.3532ZM29.3991 65.5974L28.6337 67.4452L29.3991 65.5974ZM50.6123 65.5974L49.8469 63.7496L50.6123 65.5974ZM57.1018 61.8065L58.3355 63.3806C58.7822 63.0306 59.0591 62.5072 59.0973 61.941C59.1355 61.3748 58.9313 60.819 58.5357 60.4122L57.1018 61.8065ZM54.1286 58.7489L52.6948 60.1432H52.6948L54.1286 58.7489ZM54.3404 56.7409L55.4518 58.4036V58.4036L54.3404 56.7409ZM56.0198 56.925L57.465 55.5425L56.0198 56.925ZM59.0678 60.1113L57.6226 61.4938C58.3835 62.2892 59.6442 62.3202 60.4433 61.5631L59.0678 60.1113ZM64.5628 52.8419L66.3348 53.7691C66.7407 52.9936 66.595 52.0442 65.9754 51.426L64.5628 52.8419ZM64.4527 52.732L63.0401 54.1479L63.0401 54.1479L64.4527 52.732ZM64.2885 51.4905L62.5565 50.4905V50.4905L64.2885 51.4905ZM65.4378 51.0092L64.9367 52.9454C65.8902 53.1922 66.8814 52.708 67.273 51.8043L65.4378 51.0092ZM65.6123 50.5974L63.7645 49.832L63.7645 49.8321L65.6123 50.5974ZM65.6123 29.3842L67.46 28.6188V28.6188L65.6123 29.3842ZM59.0951 19.8962L60.4726 18.4462C60.0989 18.0912 59.6026 17.8942 59.0871 17.8962L59.0951 19.8962ZM57.5701 19.9023L57.5621 17.9023L57.5701 19.9023ZM52.0388 17.7123L53.4137 16.2598L53.4137 16.2598L52.0388 17.7123ZM51.5702 17.2687L50.1953 18.7212V18.7212L51.5702 17.2687ZM46.5654 15.094L46.4415 17.0902L46.5654 15.094ZM40.4547 17.3795L39.0511 15.9547V15.9547L40.4547 17.3795ZM37.6856 20.1073L36.282 18.6825L36.282 18.6825L37.6856 20.1073ZM37.1471 22.2192L35.2327 22.7979V22.798L37.1471 22.2192ZM40.5579 23.1917L41.8793 24.693L40.5579 23.1917ZM43.1942 20.8714L41.8728 19.3701L41.8728 19.3701L43.1942 20.8714ZM45.1922 21.0397L43.6384 22.2989L43.6384 22.2989L45.1922 21.0397ZM45.1298 22.8616L43.6658 21.499L43.6658 21.499L45.1298 22.8616ZM42.8053 25.3591L44.2693 26.7217L44.2693 26.7217L42.8053 25.3591ZM42.1421 26.8453L40.1502 26.666V26.666L42.1421 26.8453ZM39.6946 29.1316L39.6512 27.1321L39.6946 29.1316ZM36.3633 29.204L36.3199 27.2045L36.3633 29.204ZM32.3012 30.826L33.647 32.3055L32.3012 30.826ZM27.0712 28.9107L25.1375 29.4216L27.0712 28.9107ZM18.5365 26.0403L19.7685 27.6158L19.7685 27.6158L18.5365 26.0403ZM18.1591 26.3354L16.9271 24.7599H16.9271L18.1591 26.3354ZM16.5113 29.4407L18.5066 29.5777L16.5113 29.4407ZM20.6863 34.0516L20.7475 32.0525H20.7475L20.6863 34.0516ZM26.3788 38.8195L24.5665 37.9737V37.9737L26.3788 38.8195ZM23.98 40.9354L24.5929 42.8392L23.98 40.9354ZM22.3981 41.4447L21.7853 39.5409L22.3981 41.4447ZM20.998 43.7156L22.9742 43.4082L20.998 43.7156ZM22.8124 45.4426L23.0219 43.4536H23.0219L22.8124 45.4426ZM50.7982 40.7447L48.9847 39.9011L50.7982 40.7447ZM55.8381 37.2586L55.9876 39.253L55.8381 37.2586ZM57.0832 37.1653L57.2327 39.1597L57.0832 37.1653ZM60.5337 38.7987L62.1711 37.6502V37.6502L60.5337 38.7987ZM61.2313 39.7932L59.5939 40.9417V40.9417L61.2313 39.7932ZM60.8867 43.0257L59.5282 41.5578L59.5282 41.5578L60.8867 43.0257ZM57.9935 43.3639L58.9767 41.6223L57.9935 43.3639ZM56.9835 42.7937L56.0002 44.5353L56.9835 42.7937ZM54.5705 42.2905L54.3652 40.3011L54.5705 42.2905ZM36.7881 46.9568C37.5702 47.7368 38.8366 47.735 39.6165 46.9529C40.3965 46.1707 40.3947 44.9044 39.6126 44.1244L36.7881 46.9568ZM35.9709 39.9117C35.2743 39.0544 34.0147 38.9242 33.1574 39.6208C32.3002 40.3173 32.17 41.5769 32.8665 42.4342L35.9709 39.9117ZM26.3392 43.0291C25.8828 43.4715 25.2537 43.6887 24.6216 43.6221L24.2026 47.6001C26.0135 47.7909 27.8157 47.1687 29.1232 45.9014L26.3392 43.0291ZM27.5144 41.8901L26.3392 43.0291L29.1232 45.9014L30.2983 44.7623L27.5144 41.8901ZM34.3982 39.1722C31.8335 39.1268 29.3563 40.1048 27.5144 41.8901L30.2983 44.7623C31.3763 43.7174 32.8262 43.145 34.3273 43.1716L34.3982 39.1722ZM34.4541 39.1732L34.3982 39.1722L34.3273 43.1716L34.3832 43.1726L34.4541 39.1732ZM39.7123 44.2315L35.9307 39.8638L32.9067 42.4821L36.6883 46.8498L39.7123 44.2315ZM40.9198 43.2845L38.0188 43.5489L38.3818 47.5324L41.2828 47.268L40.9198 43.2845ZM42.4423 43.1458L40.9198 43.2845L41.2828 47.268L42.8053 47.1293L42.4423 43.1458ZM43.567 42.619C43.2652 42.9207 42.8673 43.1071 42.4423 43.1458L42.8053 47.1293C44.1617 47.0057 45.432 46.4107 46.3952 45.4477L43.567 42.619ZM47.3388 40.9236C45.9165 41.0084 44.5746 41.6116 43.567 42.619L46.3952 45.4477C46.7108 45.132 47.1312 44.9431 47.5768 44.9165L47.3388 40.9236ZM49.7337 40.7808L47.3388 40.9236L47.5768 44.9165L49.9717 44.7738L49.7337 40.7808ZM53.8876 44.3135L51.3492 41.4505L48.3562 44.1041L50.8946 46.9672L53.8876 44.3135ZM53.6028 52.844C55.95 50.5281 56.0751 46.7807 53.8876 44.3135L50.8946 46.9672C51.6714 47.8434 51.627 49.1742 50.7935 49.9967L53.6028 52.844ZM49.0371 54.6279C50.7394 54.6854 52.3904 54.0403 53.6029 52.844L50.7935 49.9967C50.3629 50.4215 49.7765 50.6506 49.172 50.6302L49.0371 54.6279ZM45.4476 54.5068L49.0371 54.6279L49.172 50.6302L45.5824 50.5091L45.4476 54.5068ZM46.1109 54.1302C45.9783 54.3706 45.7219 54.5161 45.4476 54.5068L45.5824 50.5091C44.3525 50.4676 43.2035 51.12 42.6088 52.1974L46.1109 54.1302ZM42.1561 55.6329C43.6645 56.1669 45.3377 55.5311 46.1109 54.1302L42.6089 52.1974C42.7813 51.8849 43.1546 51.7431 43.491 51.8622L42.1561 55.6329ZM36.2967 53.5585L42.1561 55.6329L43.491 51.8622L37.6316 49.7879L36.2967 53.5585ZM33.9156 50.5883C34.0812 51.9501 35.0036 53.1007 36.2967 53.5585L37.6316 49.7879C37.77 49.8368 37.8687 49.9599 37.8864 50.1057L33.9156 50.5883ZM34.3125 50.9281C34.1121 50.9348 33.9398 50.7873 33.9156 50.5883L37.8864 50.1057C37.6603 48.2458 36.0502 46.8672 34.1777 46.9303L34.3125 50.9281ZM28.6879 51.1177L34.3125 50.9281L34.1777 46.9303L28.5532 47.1199L28.6879 51.1177ZM26.1608 49.9585C26.7738 50.7212 27.7101 51.1506 28.6879 51.1177L28.5532 47.1199C28.8339 47.1105 29.1027 47.2338 29.2786 47.4527L26.1608 49.9585ZM27.5585 49.9499C27.2041 50.4022 26.5208 50.4064 26.1608 49.9585L29.2786 47.4527C28.0247 45.8925 25.6443 45.9072 24.4098 47.4829L27.5585 49.9499ZM24.3798 54.0068L27.5585 49.9499L24.4098 47.4829L21.2312 51.5398L24.3798 54.0068ZM23.7173 55.6393C23.7809 55.0438 24.0105 54.4782 24.3798 54.0068L21.2312 51.5398C20.3998 52.6008 19.8831 53.874 19.7399 55.2143L23.7173 55.6393ZM23.1909 60.5657L23.7173 55.6393L19.7399 55.2143L19.2135 60.1407L23.1909 60.5657ZM30.1644 63.7496C27.3349 62.5776 24.7666 60.9225 22.559 58.8839L19.8453 61.8225C22.3962 64.1782 25.3642 66.0909 28.6337 67.4452L30.1644 63.7496ZM49.8469 63.7496C43.5457 66.3597 36.4657 66.3597 30.1644 63.7496L28.6337 67.4452C35.915 70.4612 44.0963 70.4612 51.3776 67.4452L49.8469 63.7496ZM55.8681 60.2323C54.0459 61.6604 52.0237 62.848 49.8469 63.7496L51.3776 67.4452C53.8929 66.4033 56.2297 65.031 58.3355 63.3806L55.8681 60.2323ZM52.6948 60.1432L55.668 63.2008L58.5357 60.4122L55.5625 57.3546L52.6948 60.1432ZM53.229 55.0781C51.5075 56.2288 51.2513 58.6588 52.6948 60.1432L55.5625 57.3546C55.8614 57.6621 55.8083 58.1653 55.4518 58.4036L53.229 55.0781ZM57.465 55.5425C56.3529 54.3799 54.5665 54.1841 53.229 55.0781L55.4518 58.4036C55.1748 58.5888 54.8049 58.5482 54.5745 58.3075L57.465 55.5425ZM60.513 58.7288L57.465 55.5425L54.5745 58.3075L57.6226 61.4938L60.513 58.7288ZM62.7907 51.9146C61.4678 54.4427 59.7409 56.7185 57.6923 58.6594L60.4433 61.5631C62.8104 59.3206 64.8061 56.6907 66.3348 53.7691L62.7907 51.9146ZM63.0401 54.1479L63.1502 54.2577L65.9754 51.426L65.8653 51.3162L63.0401 54.1479ZM62.5565 50.4905C61.8706 51.6784 62.069 53.1791 63.0401 54.1479L65.8653 51.3162C66.1771 51.6272 66.2408 52.1091 66.0205 52.4905L62.5565 50.4905ZM65.9389 49.073C64.6884 48.7494 63.272 49.2513 62.5565 50.4905L66.0205 52.4905C65.7885 52.8924 65.3304 53.0473 64.9367 52.9454L65.9389 49.073ZM63.7645 49.8321C63.7115 49.96 63.6576 50.0873 63.6026 50.2142L67.273 51.8043C67.3364 51.6577 67.3988 51.5106 67.46 51.3628L63.7645 49.8321ZM63.7645 30.1496C66.3746 36.4508 66.3746 43.5308 63.7645 49.832L67.46 51.3628C70.4761 44.0814 70.4761 35.9002 67.46 28.6188L63.7645 30.1496ZM57.7176 21.3462C60.3026 23.802 62.3737 26.7919 63.7645 30.1496L67.46 28.6188C65.8529 24.7389 63.4595 21.2838 60.4726 18.4462L57.7176 21.3462ZM57.578 21.9023L59.103 21.8962L59.0871 17.8962L57.5621 17.9023L57.578 21.9023ZM50.6639 19.1648C52.531 20.9321 55.0071 21.9125 57.578 21.9023L57.5621 17.9023C56.0196 17.9084 54.5339 17.3202 53.4137 16.2598L50.6639 19.1648ZM50.1953 18.7212L50.6639 19.1648L53.4137 16.2598L52.9451 15.8162L50.1953 18.7212ZM46.4415 17.0902C47.8452 17.1773 49.1743 17.7547 50.1953 18.7212L52.9451 15.8162C51.2429 14.205 49.0282 13.243 46.6893 13.0978L46.4415 17.0902ZM41.8582 18.8042C43.0726 17.608 44.7397 16.9845 46.4415 17.0902L46.6893 13.0978C43.8535 12.9219 41.0755 13.9604 39.0511 15.9547L41.8582 18.8042ZM39.0892 21.5321L41.8582 18.8042L39.0511 15.9547L36.282 18.6825L39.0892 21.5321ZM39.0615 21.6405C39.0499 21.602 39.0605 21.5603 39.0892 21.5321L36.282 18.6825C35.1953 19.7531 34.7912 21.3377 35.2327 22.7979L39.0615 21.6405ZM39.2365 21.6904C39.2125 21.7115 39.1984 21.7151 39.1908 21.7166C39.1785 21.7192 39.1589 21.7199 39.1354 21.7132C39.1119 21.7065 39.0956 21.6956 39.0865 21.6869C39.0809 21.6816 39.0708 21.6711 39.0615 21.6405L35.2327 22.798C36.0981 25.6605 39.6344 26.6688 41.8793 24.693L39.2365 21.6904ZM41.8728 19.3701L39.2365 21.6904L41.8793 24.693L44.5156 22.3727L41.8728 19.3701ZM46.7461 19.7805C45.5333 18.2839 43.3188 18.0974 41.8728 19.3701L44.5155 22.3727C44.2553 22.6018 43.8567 22.5682 43.6384 22.2989L46.7461 19.7805ZM46.5938 24.2242C47.7446 22.9878 47.8095 21.0928 46.7461 19.7805L43.6384 22.2989C43.4469 22.0626 43.4586 21.7215 43.6658 21.499L46.5938 24.2242ZM44.2693 26.7217L46.5938 24.2242L43.6658 21.499L41.3413 23.9965L44.2693 26.7217ZM44.1341 27.0247C44.1443 26.9115 44.1918 26.8049 44.2693 26.7217L41.3413 23.9965C40.659 24.7295 40.24 25.6686 40.1502 26.666L44.1341 27.0247ZM39.7381 31.1312C42.0352 31.0813 43.928 29.3131 44.1341 27.0247L40.1502 26.666C40.1268 26.9257 39.9119 27.1264 39.6512 27.1321L39.7381 31.1312ZM36.4067 31.2035L39.7381 31.1312L39.6512 27.1321L36.3199 27.2045L36.4067 31.2035ZM33.647 32.3055C34.4037 31.6172 35.384 31.2258 36.4067 31.2035L36.3199 27.2045C34.3318 27.2477 32.4265 28.0085 30.9554 29.3465L33.647 32.3055ZM29.8382 35.77L33.647 32.3055L30.9554 29.3465L27.1466 32.811L29.8382 35.77ZM25.1375 29.4216L26.5587 34.8014L30.4261 33.7797L29.0048 28.3999L25.1375 29.4216ZM19.7685 27.6158C21.6874 26.1153 24.5153 27.0665 25.1375 29.4216L29.0048 28.3999C27.649 23.2676 21.4862 21.1949 17.3045 24.4648L19.7685 27.6158ZM19.391 27.9109L19.7685 27.6158L17.3045 24.4648L16.9271 24.7599L19.391 27.9109ZM18.5066 29.5777C18.5516 28.9218 18.8731 28.3159 19.391 27.9109L16.9271 24.7599C15.5152 25.8639 14.6387 27.5157 14.516 29.3038L18.5066 29.5777ZM20.7475 32.0525C19.4339 32.0123 18.4166 30.8889 18.5066 29.5777L14.516 29.3038C14.2706 32.8782 17.0439 35.9411 20.6252 36.0507L20.7475 32.0525ZM28.5536 32.2915L20.7475 32.0525L20.6252 36.0507L28.4312 36.2896L28.5536 32.2915ZM28.1912 39.6653L30.3048 35.1363L26.68 33.4447L24.5665 37.9737L28.1912 39.6653ZM24.5929 42.8392C26.1816 42.3278 27.4854 41.1777 28.1912 39.6653L24.5665 37.9737C24.3312 38.4778 23.8966 38.8612 23.3671 39.0316L24.5929 42.8392ZM23.011 43.3484L24.5929 42.8392L23.3671 39.0316L21.7853 39.5409L23.011 43.3484ZM22.9742 43.4082C22.9701 43.3819 22.9857 43.3566 23.011 43.3484L21.7853 39.5409C19.8871 40.1519 18.7152 42.0527 19.0217 44.0231L22.9742 43.4082ZM23.0219 43.4536C22.9975 43.451 22.9779 43.4324 22.9742 43.4082L19.0217 44.0231C19.3044 45.8399 20.7743 47.239 22.6029 47.4316L23.0219 43.4536ZM24.6216 43.6221L23.0219 43.4536L22.6029 47.4316L24.2026 47.6001L24.6216 43.6221ZM48.9847 39.9011L48.0393 41.9338L51.6661 43.6208L52.6116 41.5882L48.9847 39.9011ZM55.6885 35.2642C52.7793 35.4824 50.2152 37.2559 48.9847 39.9011L52.6116 41.5882C53.2312 40.256 54.5225 39.3629 55.9876 39.253L55.6885 35.2642ZM56.9336 35.1709L55.6885 35.2642L55.9876 39.253L57.2327 39.1597L56.9336 35.1709ZM62.1711 37.6502C60.9844 35.9583 58.9944 35.0163 56.9336 35.1709L57.2327 39.1597C57.8873 39.1106 58.5194 39.4098 58.8963 39.9472L62.1711 37.6502ZM62.8687 38.6448L62.1711 37.6502L58.8963 39.9472L59.5939 40.9417L62.8687 38.6448ZM62.2452 44.4935C63.8867 42.9743 64.153 40.4758 62.8687 38.6448L59.5939 40.9417C59.7292 41.1346 59.7012 41.3978 59.5282 41.5578L62.2452 44.4935ZM57.0102 45.1055C58.7027 46.0611 60.8188 45.8137 62.2452 44.4935L59.5282 41.5578C59.378 41.6969 59.1551 41.723 58.9767 41.6223L57.0102 45.1055ZM56.0002 44.5353L57.0102 45.1055L58.9767 41.6223L57.9668 41.0521L56.0002 44.5353ZM54.7758 44.28C55.2005 44.2361 55.6284 44.3254 56.0002 44.5353L57.9668 41.0521C56.8731 40.4346 55.6146 40.1722 54.3652 40.3011L54.7758 44.28ZM50.0579 44.7667L54.7758 44.28L54.3652 40.3011L49.6474 40.7879L50.0579 44.7667ZM39.6126 44.1244C39.0699 43.5833 38.1778 42.5563 37.3786 41.6088C36.9887 41.1466 36.6359 40.7213 36.3806 40.4115C36.253 40.2567 36.15 40.1311 36.0792 40.0444C36.0438 40.0011 36.0164 39.9676 35.998 39.945C35.9888 39.9337 35.9819 39.9252 35.9773 39.9196C35.975 39.9168 35.9734 39.9147 35.9723 39.9134C35.9717 39.9127 35.9713 39.9123 35.9711 39.912C35.971 39.9118 35.9709 39.9117 35.9709 39.9117C35.9708 39.9116 35.9708 39.9116 35.9708 39.9116C35.9708 39.9116 35.9709 39.9117 34.4187 41.1729C32.8665 42.4342 32.8666 42.4342 32.8666 42.4343C32.8666 42.4343 32.8667 42.4344 32.8668 42.4345C32.8669 42.4346 32.867 42.4348 32.8672 42.435C32.8676 42.4355 32.8681 42.4362 32.8688 42.437C32.8702 42.4387 32.8722 42.4412 32.8748 42.4444C32.88 42.4507 32.8875 42.46 32.8974 42.4721C32.917 42.4962 32.9458 42.5314 32.9826 42.5765C33.0564 42.6666 33.1626 42.7963 33.2938 42.9555C33.556 43.2736 33.9188 43.711 34.3211 44.1879C35.1063 45.1188 36.1049 46.2755 36.7881 46.9568L39.6126 44.1244Z" fill="currentColor" />
</svg>