<svg viewBox="0 0 80 80" fill="none">
  <path d="M29.3935 14.3934C36.1848 11.5804 43.8154 11.5804 50.6067 14.3934C57.398 17.2064 62.7936 22.6021 65.6067 29.3934C68.4197 36.1847 68.4197 43.8153 65.6067 50.6066C62.7936 57.3979 57.398 62.7936 50.6067 65.6066C43.8154 68.4196 36.1848 68.4196 29.3935 65.6066C22.6022 62.7936 17.2065 57.3979 14.3935 50.6066C11.5804 43.8153 11.5804 36.1847 14.3935 29.3934C17.2065 22.6021 22.6022 17.2064 29.3935 14.3934Z" fill="currentColor" fill-opacity="0.25" />
  <path d="M57.5097 61.4805C55.4588 63.1512 53.1615 64.534 50.6765 65.5707C50.0416 65.273 49.3437 65.1147 48.6303 65.1147H47.359C45.2001 65.1147 43.4069 63.449 43.248 61.2959C43.1615 60.1238 43.5794 58.9706 44.3966 58.1261L45.1226 57.3759C46.2621 56.1983 47.807 55.4984 49.4437 55.4183L49.6477 55.4083C51.7586 55.3051 53.8022 56.1654 55.2037 57.7473L56.2741 58.9554C56.911 59.6742 57.3351 60.5484 57.5097 61.4805Z" fill="currentColor" fill-opacity="0.25" />
  <path d="M57.756 18.704C56.9789 18.8403 56.2535 19.2088 55.6808 19.771L54.9835 20.4556C54.3716 21.0564 53.5562 21.4052 52.6991 21.4329L52.4559 21.4408C50.759 21.4956 49.4076 22.8796 49.3933 24.5773C49.3866 25.3761 49.078 26.1429 48.5295 26.7237L44.3688 31.1291C43.7743 31.7585 42.9444 32.1117 42.0786 32.1038C40.5233 32.0896 39.1965 33.2262 38.9718 34.7652L38.9544 34.8843C38.8219 35.7913 38.3125 36.6002 37.5517 37.1115L36.8311 37.5958C36.0143 38.1446 35.5593 39.0931 35.6422 40.0736L35.6813 40.5358C35.7688 41.5704 35.1055 42.52 34.104 42.7939C33.1905 43.0437 32.2211 42.6674 31.7155 41.8666L31.2254 41.0903C29.9492 39.0689 27.0387 38.9658 25.6227 40.8919L25.0851 41.6232C24.8543 41.9371 24.6807 42.2892 24.5721 42.6633L23.9277 44.8839C23.8293 45.2232 23.4933 45.436 23.1445 45.38C22.9431 45.3477 22.7659 45.2292 22.6591 45.0554L20.0066 40.7413C19.1543 39.3549 17.647 38.5064 16.0196 38.4966L14.9232 38.49C14.3958 38.4868 13.8906 38.2776 13.5154 37.9069L12.4655 36.8698C12.7545 34.3188 13.399 31.7985 14.3991 29.3842C17.2121 22.5929 22.6078 17.1972 29.3991 14.3842C36.1903 11.5712 43.821 11.5712 50.6123 14.3842C53.222 15.4652 55.6257 16.9276 57.756 18.704Z" fill="currentColor" fill-opacity="0.25" />
  <path d="M12.3233 38.6176L14.0931 40.392C15.0335 41.3348 15.0337 42.8608 14.0935 43.8038C13.7049 44.1937 13.1978 44.4364 12.6582 44.4983C12.3375 42.5528 12.2259 40.5812 12.3233 38.6176Z" fill="currentColor" fill-opacity="0.25" />
  <path d="M34.594 45.6682C33.3172 45.9215 32.6939 47.379 33.393 48.4771L35.2754 51.4341C35.8588 52.3506 36.7712 53.0087 37.8249 53.2731L39.3949 53.6671C40.0234 53.8248 40.6885 53.6385 41.1436 53.1773C41.8749 52.4362 41.8418 51.2353 41.0709 50.5356L36.1977 46.113C35.7637 45.7192 35.1689 45.5542 34.594 45.6682Z" fill="currentColor" fill-opacity="0.25" />
  <path d="M52.0127 29.4824C52.9085 28.4838 52.4425 26.8917 51.1496 26.5337C50.3961 26.3252 49.594 26.6246 49.1616 27.276L47.5368 29.7236C46.9415 30.6202 47.3878 31.8369 48.4216 32.1361C49.0093 32.3061 49.6425 32.1247 50.0511 31.6693L52.0127 29.4824Z" fill="currentColor" fill-opacity="0.25" />
  <path d="M46.636 50.8605C46.4336 51.7669 47.101 52.6355 48.029 52.6734L51.8514 52.8297C52.3534 52.8502 52.8477 52.7012 53.2548 52.4068L53.5695 52.1791C53.8866 51.9497 54.0906 51.5958 54.1303 51.2065C54.2126 50.398 53.5781 49.6956 52.7654 49.6956H48.0898C47.3922 49.6956 46.7881 50.1797 46.636 50.8605Z" fill="currentColor" fill-opacity="0.25" />
  <path d="M41.8509 47.0905C40.7324 46.3753 40.5475 44.8157 41.4678 43.8588L43.7969 41.4372C44.0744 41.1487 44.489 41.0376 44.8736 41.1487C45.5621 41.3475 45.8689 42.15 45.4885 42.7574L45.4197 42.8673C45.2789 43.0921 45.2183 43.3579 45.2475 43.6215L45.3496 44.5408C45.4172 45.1499 45.2566 45.7623 44.8989 46.2599L44.6931 46.5461C44.0406 47.4535 42.7926 47.6926 41.8509 47.0905Z" fill="currentColor" fill-opacity="0.25" />
  <path d="M29.3935 14.3934C36.1848 11.5804 43.8154 11.5804 50.6067 14.3934C57.398 17.2064 62.7936 22.6021 65.6067 29.3934C68.4197 36.1847 68.4197 43.8153 65.6067 50.6066C62.7936 57.3979 57.398 62.7936 50.6067 65.6066C43.8154 68.4196 36.1848 68.4196 29.3935 65.6066C22.6022 62.7936 17.2065 57.3979 14.3935 50.6066C11.5804 43.8153 11.5804 36.1847 14.3935 29.3934C17.2065 22.6021 22.6022 17.2064 29.3935 14.3934Z" stroke="currentColor" stroke-linecap="round" stroke-linejoin="round" />
  <path d="M57.5097 61.4805C55.4588 63.1512 53.1615 64.534 50.6765 65.5707C50.0416 65.273 49.3437 65.1147 48.6303 65.1147H47.359C45.2001 65.1147 43.4069 63.449 43.248 61.2959C43.1615 60.1238 43.5794 58.9706 44.3966 58.1261L45.1226 57.3759C46.2621 56.1983 47.807 55.4984 49.4437 55.4183L49.6477 55.4083C51.7586 55.3051 53.8022 56.1654 55.2037 57.7473L56.2741 58.9554C56.911 59.6742 57.3351 60.5484 57.5097 61.4805Z" stroke="currentColor" stroke-linecap="round" stroke-linejoin="round" />
  <path d="M57.756 18.704C56.9789 18.8403 56.2535 19.2088 55.6808 19.771L54.9835 20.4556C54.3716 21.0564 53.5562 21.4052 52.6991 21.4329L52.4559 21.4408C50.759 21.4956 49.4076 22.8796 49.3933 24.5773C49.3866 25.3761 49.078 26.1429 48.5295 26.7237L44.3688 31.1291C43.7743 31.7585 42.9444 32.1117 42.0786 32.1038C40.5233 32.0896 39.1965 33.2262 38.9718 34.7652L38.9544 34.8843C38.8219 35.7913 38.3125 36.6002 37.5517 37.1115L36.8311 37.5958C36.0143 38.1446 35.5593 39.0931 35.6422 40.0736L35.6813 40.5358C35.7688 41.5704 35.1055 42.52 34.104 42.7939C33.1905 43.0437 32.2211 42.6674 31.7155 41.8666L31.2254 41.0903C29.9492 39.0689 27.0387 38.9658 25.6227 40.8919L25.0851 41.6232C24.8543 41.9371 24.6807 42.2892 24.5721 42.6633L23.9277 44.8839C23.8293 45.2232 23.4933 45.436 23.1445 45.38C22.9431 45.3477 22.7659 45.2292 22.6591 45.0554L20.0066 40.7413C19.1543 39.3549 17.647 38.5064 16.0196 38.4966L14.9232 38.49C14.3958 38.4868 13.8906 38.2776 13.5154 37.9069L12.4655 36.8698C12.7545 34.3188 13.399 31.7985 14.3991 29.3842C17.2121 22.5929 22.6078 17.1972 29.3991 14.3842C36.1903 11.5712 43.821 11.5712 50.6123 14.3842C53.222 15.4652 55.6257 16.9276 57.756 18.704Z" stroke="currentColor" stroke-linecap="round" stroke-linejoin="round" />
  <path d="M12.3233 38.6176L14.0931 40.392C15.0335 41.3348 15.0337 42.8608 14.0935 43.8038C13.7049 44.1937 13.1978 44.4364 12.6582 44.4983C12.3375 42.5528 12.2259 40.5812 12.3233 38.6176Z" stroke="currentColor" stroke-linecap="round" stroke-linejoin="round" />
  <path d="M34.594 45.6682C33.3172 45.9215 32.6939 47.379 33.393 48.4771L35.2754 51.4341C35.8588 52.3506 36.7712 53.0087 37.8249 53.2731L39.3949 53.6671C40.0234 53.8248 40.6885 53.6385 41.1436 53.1773C41.8749 52.4362 41.8418 51.2353 41.0709 50.5356L36.1977 46.113C35.7637 45.7192 35.1689 45.5542 34.594 45.6682Z" stroke="currentColor" stroke-linecap="round" stroke-linejoin="round" />
  <path d="M52.0127 29.4824C52.9085 28.4838 52.4425 26.8917 51.1496 26.5337C50.3961 26.3252 49.594 26.6246 49.1616 27.276L47.5368 29.7236C46.9415 30.6202 47.3878 31.8369 48.4216 32.1361C49.0093 32.3061 49.6425 32.1247 50.0511 31.6693L52.0127 29.4824Z" stroke="currentColor" stroke-linecap="round" stroke-linejoin="round" />
  <path d="M46.636 50.8605C46.4336 51.7669 47.101 52.6355 48.029 52.6734L51.8514 52.8297C52.3534 52.8502 52.8477 52.7012 53.2548 52.4068L53.5695 52.1791C53.8866 51.9497 54.0906 51.5958 54.1303 51.2065C54.2126 50.398 53.5781 49.6956 52.7654 49.6956H48.0898C47.3922 49.6956 46.7881 50.1797 46.636 50.8605Z" stroke="currentColor" stroke-linecap="round" stroke-linejoin="round" />
  <path d="M41.8509 47.0905C40.7324 46.3753 40.5475 44.8157 41.4678 43.8588L43.7969 41.4372C44.0744 41.1487 44.489 41.0376 44.8736 41.1487C45.5621 41.3475 45.8689 42.15 45.4885 42.7574L45.4197 42.8673C45.2789 43.0921 45.2183 43.3579 45.2475 43.6215L45.3496 44.5408C45.4172 45.1499 45.2566 45.7623 44.8989 46.2599L44.6931 46.5461C44.0406 47.4535 42.7926 47.6926 41.8509 47.0905Z" stroke="currentColor" stroke-linecap="round" stroke-linejoin="round" />
</svg>