<svg viewBox="0 0 80 80" fill="none">
  <path fill-rule="evenodd" clip-rule="evenodd" d="M47.24 16.7893C47.3997 14.4475 45.6308 12.4197 43.289 12.26C40.9472 12.1003 38.9194 13.8693 38.7597 16.2111L37.2597 38.2111L37.2498 38.3554V38.5002V39.0084C37.2498 39.28 37.0297 39.5002 36.7581 39.5002C36.502 39.5002 36.2888 39.3036 36.268 39.0484L36.2358 38.6544L36.2192 38.4506L36.183 38.2493L32.683 18.7493C32.2684 16.4391 30.0593 14.9023 27.7491 15.317C25.4388 15.7317 23.9021 17.9407 24.3167 20.251L27.7806 39.5497L28.2498 45.2983V45.8208C28.2498 46.2337 27.7184 46.4012 27.4816 46.063C26.1356 44.1401 23.4856 43.6724 21.5627 45.0184C19.6398 46.3645 19.1721 49.0145 20.5181 50.9374L31.0181 65.9374C31.8133 67.0735 33.113 67.7502 34.4998 67.7502H56.4998C58.5699 67.7502 60.3389 66.2586 60.6887 64.2183L63.6887 46.7183C63.7294 46.4811 63.7498 46.2408 63.7498 46.0002V39.1252C63.7498 36.778 61.847 34.8752 59.4998 34.8752C57.1526 34.8752 55.2498 36.778 55.2498 39.1252V39.2502C55.2498 39.3882 55.1379 39.5002 54.9998 39.5002C54.8618 39.5002 54.7498 39.3882 54.7498 39.2502V39.1252V36.0002C54.7498 33.653 52.847 31.7502 50.4998 31.7502C48.1526 31.7502 46.2498 33.653 46.2498 36.0002V39.1252V39.2502C46.2498 39.3882 46.1379 39.5002 45.9998 39.5002C45.8618 39.5002 45.7498 39.3882 45.7498 39.2502V38.6449L47.24 16.7893Z" fill="currentColor" fill-opacity="0.25" />
  <path d="M37.2597 38.2111L39.255 38.3471V38.3471L37.2597 38.2111ZM37.2498 38.3554L35.2545 38.2194C35.2514 38.2647 35.2498 38.3101 35.2498 38.3554H37.2498ZM36.2358 38.6544L38.2292 38.4917V38.4917L36.2358 38.6544ZM36.2192 38.4506L38.2125 38.2879C38.2073 38.224 38.199 38.1604 38.1877 38.0973L36.2192 38.4506ZM36.183 38.2493L38.1516 37.896L38.1516 37.896L36.183 38.2493ZM27.7806 39.5497L29.774 39.387C29.7688 39.3231 29.7605 39.2595 29.7491 39.1964L27.7806 39.5497ZM28.2498 45.2983H30.2498C30.2498 45.244 30.2476 45.1897 30.2432 45.1356L28.2498 45.2983ZM45.7498 38.6449L43.7545 38.5088C43.7514 38.5541 43.7498 38.5995 43.7498 38.6449H45.7498ZM36.268 39.0484L34.2746 39.2111L36.268 39.0484ZM39.255 38.3471L40.7551 16.3471L36.7644 16.075L35.2643 38.075L39.255 38.3471ZM39.2452 38.4915L39.255 38.3471L35.2643 38.075L35.2545 38.2194L39.2452 38.4915ZM39.2498 38.5002V38.3554H35.2498V38.5002H39.2498ZM39.2498 39.0084V38.5002H35.2498V39.0084H39.2498ZM34.2424 38.8171L34.2746 39.2111L38.2613 38.8857L38.2292 38.4917L34.2424 38.8171ZM34.2258 38.6133L34.2424 38.8171L38.2292 38.4917L38.2125 38.2879L34.2258 38.6133ZM34.2145 38.6027L34.2506 38.8039L38.1877 38.0973L38.1516 37.896L34.2145 38.6027ZM30.7145 19.1027L34.2145 38.6027L38.1516 37.896L34.6516 18.396L30.7145 19.1027ZM29.7491 39.1964L26.2853 19.8977L22.3482 20.6043L25.8121 39.9031L29.7491 39.1964ZM30.2432 45.1356L29.774 39.387L25.7872 39.7124L26.2565 45.461L30.2432 45.1356ZM30.2498 45.8208V45.2983H26.2498V45.8208H30.2498ZM32.6565 64.7905L22.1566 49.7905L18.8797 52.0843L29.3796 67.0843L32.6565 64.7905ZM56.4998 65.7502H34.4998V69.7502H56.4998V65.7502ZM61.7175 46.3803L58.7174 63.8803L62.6599 64.5562L65.66 47.0562L61.7175 46.3803ZM61.7498 39.1252V46.0002H65.7498V39.1252H61.7498ZM57.2498 39.2502V39.1252H53.2498V39.2502H57.2498ZM52.7498 39.1252V39.2502H56.7498V39.1252H52.7498ZM52.7498 36.0002V39.1252H56.7498V36.0002H52.7498ZM48.2498 39.1252V36.0002H44.2498V39.1252H48.2498ZM48.2498 39.2502V39.1252H44.2498V39.2502H48.2498ZM43.7498 38.6449V39.2502H47.7498V38.6449H43.7498ZM45.2447 16.6532L43.7545 38.5088L47.7452 38.7809L49.2354 16.9253L45.2447 16.6532ZM45.9998 37.5002C46.9663 37.5002 47.7498 38.2837 47.7498 39.2502H43.7498C43.7498 40.4928 44.7572 41.5002 45.9998 41.5002V37.5002ZM56.7498 36.0002C56.7498 32.5484 53.9516 29.7502 50.4998 29.7502V33.7502C51.7425 33.7502 52.7498 34.7575 52.7498 36.0002H56.7498ZM59.4998 32.8752C56.0481 32.8752 53.2498 35.6734 53.2498 39.1252H57.2498C57.2498 37.8825 58.2572 36.8752 59.4998 36.8752V32.8752ZM65.7498 39.1252C65.7498 35.6734 62.9516 32.8752 59.4998 32.8752V36.8752C60.7425 36.8752 61.7498 37.8825 61.7498 39.1252H65.7498ZM56.4998 69.7502C59.5441 69.7502 62.1455 67.5567 62.6599 64.5562L58.7174 63.8803C58.5323 64.9605 57.5957 65.7502 56.4998 65.7502V69.7502ZM44.2498 39.2502C44.2498 38.2837 45.0333 37.5002 45.9998 37.5002V41.5002C47.2425 41.5002 48.2498 40.4928 48.2498 39.2502H44.2498ZM20.4158 43.38C17.5879 45.3594 16.9002 49.2565 18.8797 52.0843L22.1566 49.7905C21.444 48.7724 21.6916 47.3695 22.7096 46.6569L20.4158 43.38ZM29.1201 44.916C27.1406 42.0882 23.2436 41.4005 20.4158 43.38L22.7096 46.6569C23.7276 45.9443 25.1305 46.1919 25.8432 47.2099L29.1201 44.916ZM54.9998 37.5002C55.9663 37.5002 56.7498 38.2837 56.7498 39.2502H52.7498C52.7498 40.4928 53.7572 41.5002 54.9998 41.5002V37.5002ZM27.3957 13.3485C23.9982 13.9583 21.7384 17.2068 22.3482 20.6043L26.2853 19.8977C26.0657 18.6746 26.8793 17.5051 28.1024 17.2856L27.3957 13.3485ZM29.3796 67.0843C30.5491 68.7551 32.4603 69.7502 34.4998 69.7502V65.7502C33.7656 65.7502 33.0776 65.3919 32.6565 64.7905L29.3796 67.0843ZM43.425 10.2646C39.9813 10.0298 36.9992 12.6312 36.7644 16.075L40.7551 16.3471C40.8396 15.1073 41.9132 14.1708 43.1529 14.2554L43.425 10.2646ZM53.2498 39.2502C53.2498 38.2837 54.0333 37.5002 54.9998 37.5002V41.5002C56.2425 41.5002 57.2498 40.4928 57.2498 39.2502H53.2498ZM34.6516 18.396C34.0418 14.9985 30.7932 12.7387 27.3957 13.3485L28.1024 17.2856C29.3255 17.066 30.495 17.8796 30.7145 19.1027L34.6516 18.396ZM36.7581 37.5002C37.5435 37.5002 38.1974 38.1029 38.2613 38.8857L34.2746 39.2111C34.3801 40.5044 35.4605 41.5002 36.7581 41.5002V37.5002ZM50.4998 29.7502C47.0481 29.7502 44.2498 32.5484 44.2498 36.0002H48.2498C48.2498 34.7575 49.2572 33.7502 50.4998 33.7502V29.7502ZM26.2498 45.8208C26.2498 44.2783 28.2355 43.6523 29.1201 44.916L25.8432 47.2099C27.2013 49.1501 30.2498 48.1891 30.2498 45.8208H26.2498ZM65.66 47.0562C65.7198 46.7074 65.7498 46.3541 65.7498 46.0002H61.7498C61.7498 46.1276 61.739 46.2548 61.7175 46.3803L65.66 47.0562ZM35.2498 39.0084C35.2498 38.1754 35.9251 37.5002 36.7581 37.5002V41.5002C38.1342 41.5002 39.2498 40.3846 39.2498 39.0084H35.2498ZM49.2354 16.9253C49.4702 13.4815 46.8688 10.4995 43.425 10.2646L43.1529 14.2554C44.3927 14.3399 45.3292 15.4135 45.2447 16.6532L49.2354 16.9253Z" fill="currentColor" />
</svg>