<svg viewBox="0 0 80 80" fill="none">
  <path d="M8.8125 66.3752C8.8125 66.6514 9.03636 66.8752 9.3125 66.8752H46.3938C52.695 66.8752 58.8086 64.7307 63.729 60.7943L69.6551 56.0535C71.2723 54.7597 71.5345 52.3998 70.2408 50.7826C68.947 49.1654 66.5871 48.9032 64.9699 50.197L59.0438 54.9378C58.2404 55.5806 57.2235 55.8752 56.1945 55.8752H34.8124C34.6744 55.8752 34.5625 55.7634 34.5625 55.6254C34.5625 55.4899 34.6705 55.3789 34.806 55.3771C34.897 55.3758 34.988 55.3752 35.0791 55.3752H44.8125C46.8836 55.3752 48.5625 53.6963 48.5625 51.6252C48.5625 49.5542 46.8836 47.8752 44.8125 47.8752H35.0791C30.4929 47.8752 25.9925 49.0117 21.974 51.1646C20.6071 51.897 19.1042 52.3752 17.5535 52.3752H9.3125C9.03636 52.3752 8.8125 52.5991 8.8125 52.8752V66.3752Z" fill="currentColor" fill-opacity="0.25" />
  <path d="M29.6907 17.6034C28.2842 19.0256 27.494 20.9544 27.494 22.9657C27.494 24.9769 28.2842 26.9057 29.6907 28.3279L41.8126 40.5844L53.9344 28.3279C55.3409 26.9057 56.1311 24.9769 56.1311 22.9657C56.1311 20.9544 55.3409 19.0256 53.9344 17.6034C52.5279 16.1813 50.6202 15.3823 48.6311 15.3823C46.642 15.3823 44.7343 16.1813 43.3278 17.6034L41.8126 19.1355L40.2973 17.6034C38.8908 16.1813 36.9831 15.3823 34.994 15.3823C33.0049 15.3823 31.0972 16.1813 29.6907 17.6034Z" fill="currentColor" fill-opacity="0.25" />
  <path d="M41.8126 19.1355C41.8126 19.1355 41.8126 19.1355 41.8126 19.1355ZM41.8126 19.1355L43.3278 17.6034C44.7343 16.1813 46.642 15.3823 48.6311 15.3823C50.6202 15.3823 52.5279 16.1813 53.9344 17.6034C55.3409 19.0256 56.1311 20.9544 56.1311 22.9657C56.1311 24.9769 55.3409 26.9057 53.9344 28.3279L41.8126 40.5844M41.8126 19.1355L40.2973 17.6034C38.8908 16.1813 36.9831 15.3823 34.994 15.3823C33.0049 15.3823 31.0972 16.1813 29.6907 17.6034C28.2842 19.0256 27.494 20.9544 27.494 22.9657C27.494 24.9769 28.2842 26.9057 29.6907 28.3279L41.8126 40.5844M41.8126 40.5844C41.8126 40.5844 41.8126 40.5844 41.8126 40.5844ZM9.3125 66.8752H46.3938C52.695 66.8752 58.8086 64.7307 63.729 60.7943L69.6551 56.0535C71.2723 54.7597 71.5345 52.3998 70.2408 50.7826C68.947 49.1654 66.5871 48.9032 64.9699 50.197L59.0438 54.9378C58.2404 55.5806 57.2235 55.8752 56.1945 55.8752H34.8124C34.6744 55.8752 34.5625 55.7634 34.5625 55.6254C34.5625 55.4899 34.6705 55.3789 34.806 55.3771C34.897 55.3758 34.988 55.3752 35.0791 55.3752H44.8125C46.8836 55.3752 48.5625 53.6963 48.5625 51.6252C48.5625 49.5542 46.8836 47.8752 44.8125 47.8752H35.0791C30.4929 47.8752 25.9925 49.0117 21.974 51.1646C20.6071 51.897 19.1042 52.3752 17.5535 52.3752H9.3125C9.03636 52.3752 8.8125 52.5991 8.8125 52.8752V66.3752C8.8125 66.6514 9.03636 66.8752 9.3125 66.8752Z" stroke="currentColor" stroke-linecap="round" stroke-linejoin="round" />
</svg>