<svg viewBox="0 0 80 80" fill="none">
  <path fill-rule="evenodd" clip-rule="evenodd" d="M8.8125 66.375C8.8125 66.6511 9.03636 66.875 9.3125 66.875H46.3938C52.695 66.875 58.8086 64.7305 63.729 60.7941L69.6551 56.0533C71.2723 54.7595 71.5345 52.3996 70.2408 50.7824C68.947 49.1652 66.5871 48.903 64.9699 50.1967L59.0438 54.9376C58.2404 55.5804 57.2235 55.875 56.1945 55.875H55.3125L34.8124 55.875C34.6744 55.875 34.5625 55.7631 34.5625 55.6251C34.5625 55.4896 34.6705 55.3787 34.806 55.3768C34.897 55.3756 34.988 55.375 35.0791 55.375H44.8125C46.8836 55.375 48.5625 53.6961 48.5625 51.625C48.5625 49.5539 46.8836 47.875 44.8125 47.875H35.0791C30.4929 47.875 25.9925 49.0114 21.974 51.1644C20.6071 51.8968 19.1042 52.375 17.5535 52.375H9.3125C9.03636 52.375 8.8125 52.5989 8.8125 52.875L8.8125 66.375Z" fill="currentColor" fill-opacity="0.15" />
  <path d="M63.729 60.7941L64.9784 62.3558L63.729 60.7941ZM34.806 55.3768L34.833 57.3767L34.806 55.3768ZM46.3938 64.875H9.3125V68.875H46.3938V64.875ZM62.4797 59.2324C57.9138 62.885 52.2408 64.875 46.3938 64.875V68.875C53.1491 68.875 59.7034 66.5759 64.9784 62.3558L62.4797 59.2324ZM68.4057 54.4915L62.4797 59.2324L64.9784 62.3558L70.9045 57.615L68.4057 54.4915ZM60.2932 56.4993L66.2193 51.7585L63.7205 48.635L57.7944 53.3759L60.2932 56.4993ZM55.3125 57.875H56.1945V53.875H55.3125V57.875ZM34.8124 57.875L55.3125 57.875V53.875H34.8124V57.875ZM35.0791 53.375C34.979 53.375 34.879 53.3757 34.779 53.377L34.833 57.3767C34.915 57.3756 34.997 57.375 35.0791 57.375V53.375ZM44.8125 53.375H35.0791V57.375L44.8125 57.375V53.375ZM35.0791 49.875H44.8125V45.875H35.0791V49.875ZM22.9185 52.9273C26.6474 50.9295 30.8234 49.875 35.0791 49.875V45.875C30.1623 45.875 25.3376 47.0933 21.0295 49.4015L22.9185 52.9273ZM9.3125 54.375H17.5535V50.375H9.3125L9.3125 54.375ZM6.8125 52.875L6.8125 66.375H10.8125L10.8125 52.875H6.8125ZM9.3125 50.375C7.93179 50.375 6.8125 51.4943 6.8125 52.875H10.8125C10.8125 53.7034 10.1409 54.375 9.3125 54.375L9.3125 50.375ZM21.0295 49.4015C19.8711 50.0221 18.6928 50.375 17.5535 50.375V54.375C19.5157 54.375 21.3431 53.7714 22.9185 52.9273L21.0295 49.4015ZM44.8125 57.375C47.9881 57.375 50.5625 54.8006 50.5625 51.625H46.5625C46.5625 52.5915 45.779 53.375 44.8125 53.375V57.375ZM57.7944 53.3759C57.4067 53.6861 56.8543 53.875 56.1945 53.875V57.875C57.5927 57.875 59.074 57.4747 60.2932 56.4993L57.7944 53.3759ZM50.5625 51.625C50.5625 48.4494 47.9881 45.875 44.8125 45.875V49.875C45.779 49.875 46.5625 50.6585 46.5625 51.625H50.5625ZM70.9045 57.615C73.3842 55.6312 73.7863 52.0128 71.8025 49.533L68.679 52.0318C69.2828 52.7865 69.1604 53.8878 68.4057 54.4915L70.9045 57.615ZM34.8124 53.875C35.7789 53.875 36.5625 54.6586 36.5625 55.6251L32.5625 55.6251C32.5625 56.8677 33.5698 57.875 34.8124 57.875V53.875ZM71.8025 49.533C69.8187 47.0532 66.2003 46.6512 63.7205 48.635L66.2193 51.7585C66.974 51.1547 68.0753 51.2771 68.679 52.0318L71.8025 49.533ZM36.5625 55.6251C36.5625 56.5681 35.807 57.3635 34.833 57.3767L34.779 53.377C33.534 53.3938 32.5625 54.4112 32.5625 55.6251L36.5625 55.6251ZM9.3125 64.875C10.1409 64.875 10.8125 65.5466 10.8125 66.375H6.8125C6.8125 67.7557 7.93179 68.875 9.3125 68.875V64.875Z" fill="currentColor" />
  <path d="M38.3275 16.2846C38.9052 15.0068 40.7198 15.0068 41.2975 16.2846L42.249 18.3889C42.9807 20.0074 43.829 21.5706 44.7872 23.0662L47.4962 27.2946C48.9481 29.5607 49.204 32.3923 48.1819 34.8819C47.3506 36.907 45.7489 38.5189 43.7291 39.3631L43.3639 39.5157C41.0916 40.4654 38.5334 40.4654 36.2611 39.5157L35.8959 39.3631C33.8761 38.5189 32.2744 36.907 31.4431 34.8819C30.421 32.3923 30.6769 29.5607 32.1288 27.2946L34.8378 23.0662C35.796 21.5706 36.6443 20.0074 37.376 18.3889L38.3275 16.2846Z" fill="currentColor" fill-opacity="0.15" stroke="currentColor" stroke-width="4" stroke-linecap="square" stroke-linejoin="round" />
</svg>