<svg viewBox="0 0 80 80" fill="none">
  <path fill-rule="evenodd" clip-rule="evenodd" d="M41.3332 12.75C43.6804 12.75 45.5832 14.6528 45.5832 17V39.166C45.5832 39.2814 45.6767 39.375 45.7922 39.375C45.9529 39.375 46.0832 39.2447 46.0832 39.084V21C46.0832 18.6528 47.986 16.75 50.3332 16.75C52.6804 16.75 54.5832 18.6528 54.5832 21L54.5832 39.166C54.5832 39.2814 54.6767 39.375 54.7921 39.375C54.9529 39.375 55.0832 39.2447 55.0832 39.084L55.0832 29C55.0832 26.6528 56.986 24.75 59.3332 24.75C61.6804 24.75 63.5832 26.6528 63.5832 29L63.5832 46.5C63.5832 46.7131 63.5671 46.926 63.5352 47.1367L61.0352 63.6367C60.7204 65.7143 58.9345 67.25 56.8332 67.25H34.3332C32.9314 67.25 31.6198 66.5588 30.8274 65.4025L17.1614 45.4611C15.8345 43.5249 16.3284 40.8797 18.2646 39.5528C20.2008 38.226 22.846 38.7199 24.1729 40.6561L27.6666 45.754C27.7934 45.9391 28.0832 45.8493 28.0832 45.625L28.0832 21C28.0832 18.6528 29.986 16.75 32.3332 16.75C34.6804 16.75 36.5832 18.6528 36.5832 21V39.166C36.5832 39.2814 36.6767 39.375 36.7922 39.375C36.9529 39.375 37.0832 39.2447 37.0832 39.084V17C37.0832 14.6528 38.986 12.75 41.3332 12.75Z" fill="currentColor" fill-opacity="0.15" />
  <path d="M34.3332 65.25C33.2286 65.25 32.3332 66.1454 32.3332 67.25C32.3332 68.3546 33.2286 69.25 34.3332 69.25L34.3332 65.25ZM27.6666 45.754L26.0168 46.8846L27.6666 45.754ZM47.5832 39.166V17L43.5832 17V39.166H47.5832ZM44.0832 21V39.084H48.0832V21H44.0832ZM56.5832 39.166L56.5832 21H52.5832L52.5832 39.166H56.5832ZM53.0832 29L53.0832 39.084H57.0832L57.0832 29H53.0832ZM65.5832 46.5V29H61.5832L61.5832 46.5H65.5832ZM63.0126 63.9363L65.5126 47.4363L61.5578 46.8371L59.0578 63.3371L63.0126 63.9363ZM34.3332 69.25H56.8332V65.25H34.3332L34.3332 69.25ZM15.5116 46.5917L29.1776 66.5331L32.4772 64.2719L18.8112 44.3305L15.5116 46.5917ZM29.3164 44.6234L25.8227 39.5255L22.5231 41.7867L26.0168 46.8846L29.3164 44.6234ZM26.0832 21L26.0832 45.625H30.0832L30.0832 21H26.0832ZM38.5832 39.166V21H34.5832V39.166H38.5832ZM35.0832 17V39.084H39.0832V17H35.0832ZM39.0832 17C39.0832 15.7574 40.0905 14.75 41.3332 14.75V10.75C37.8814 10.75 35.0832 13.5482 35.0832 17H39.0832ZM34.5832 39.166C34.5832 40.386 35.5722 41.375 36.7922 41.375V37.375C37.7813 37.375 38.5832 38.1769 38.5832 39.166H34.5832ZM32.3332 18.75C33.5758 18.75 34.5832 19.7574 34.5832 21H38.5832C38.5832 17.5482 35.7849 14.75 32.3332 14.75V18.75ZM18.8112 44.3305C18.1087 43.3055 18.3702 41.9051 19.3952 41.2026L17.134 37.9031C14.2867 39.8544 13.5603 43.7444 15.5116 46.5917L18.8112 44.3305ZM34.3332 65.25C33.5911 65.25 32.8967 64.8841 32.4772 64.2719L29.1776 66.5331C30.3429 68.2335 32.2718 69.25 34.3332 69.25L34.3332 65.25ZM36.7922 41.375C38.0574 41.375 39.0832 40.3493 39.0832 39.084H35.0832C35.0832 38.1401 35.8483 37.375 36.7922 37.375V41.375ZM59.3332 26.75C60.5758 26.75 61.5832 27.7574 61.5832 29H65.5832C65.5832 25.5482 62.7849 22.75 59.3332 22.75V26.75ZM54.7921 41.375C56.0574 41.375 57.0832 40.3493 57.0832 39.084H53.0832C53.0832 38.1401 53.8483 37.375 54.7921 37.375V41.375ZM59.0578 63.3371C58.8911 64.437 57.9456 65.25 56.8332 65.25V69.25C59.9234 69.25 62.5497 66.9916 63.0126 63.9363L59.0578 63.3371ZM30.0832 21C30.0832 19.7574 31.0905 18.75 32.3332 18.75V14.75C28.8814 14.75 26.0832 17.5482 26.0832 21H30.0832ZM52.5832 39.166C52.5832 40.386 53.5722 41.375 54.7921 41.375V37.375C55.7813 37.375 56.5832 38.1769 56.5832 39.166H52.5832ZM19.3952 41.2026C20.4203 40.5001 21.8207 40.7616 22.5231 41.7867L25.8227 39.5255C23.8714 36.6781 19.9813 35.9518 17.134 37.9031L19.3952 41.2026ZM45.7922 41.375C47.0574 41.375 48.0832 40.3493 48.0832 39.084H44.0832C44.0832 38.1401 44.8483 37.375 45.7922 37.375V41.375ZM50.3332 18.75C51.5758 18.75 52.5832 19.7574 52.5832 21H56.5832C56.5832 17.5482 53.7849 14.75 50.3332 14.75V18.75ZM57.0832 29C57.0832 27.7574 58.0905 26.75 59.3332 26.75V22.75C55.8814 22.75 53.0832 25.5482 53.0832 29H57.0832ZM43.5832 39.166C43.5832 40.386 44.5722 41.375 45.7922 41.375V37.375C46.7813 37.375 47.5832 38.1769 47.5832 39.166H43.5832ZM61.5832 46.5C61.5832 46.6128 61.5747 46.7255 61.5578 46.8371L65.5126 47.4363C65.5596 47.1264 65.5832 46.8134 65.5832 46.5H61.5832ZM26.0168 46.8846C27.2548 48.6911 30.0832 47.815 30.0832 45.625H26.0832C26.0832 43.8837 28.332 43.1871 29.3164 44.6234L26.0168 46.8846ZM48.0832 21C48.0832 19.7574 49.0905 18.75 50.3332 18.75V14.75C46.8814 14.75 44.0832 17.5482 44.0832 21H48.0832ZM47.5832 17C47.5832 13.5482 44.7849 10.75 41.3332 10.75V14.75C42.5758 14.75 43.5832 15.7574 43.5832 17L47.5832 17Z" fill="currentColor" />
</svg>