<svg viewBox="0 0 80 80" fill="none">
  <path fill-rule="evenodd" clip-rule="evenodd" d="M45.75 16.5C45.75 14.1528 43.8472 12.25 41.5 12.25C39.1528 12.25 37.25 14.1528 37.25 16.5V39.125V39.25C37.25 39.3881 37.1381 39.5 37 39.5C36.8619 39.5 36.75 39.3881 36.75 39.25V39.125V20.5C36.75 18.1528 34.8472 16.25 32.5 16.25C30.1528 16.25 28.25 18.1528 28.25 20.5L28.25 39.125L28.25 45.125C28.25 45.5259 27.73 45.6833 27.5077 45.3498L24.0362 40.1425C22.7342 38.1895 20.0955 37.6618 18.1425 38.9638C16.1895 40.2658 15.6618 42.9045 16.9637 44.8575L30.9637 65.8575C31.752 67.0398 33.079 67.75 34.5 67.75H56.5C58.5701 67.75 60.3391 66.2585 60.6889 64.2181L63.6889 46.7181C63.7296 46.4809 63.75 46.2407 63.75 46L63.75 28.5C63.75 26.1528 61.8472 24.25 59.5 24.25C57.1528 24.25 55.25 26.1528 55.25 28.5L55.25 39.25C55.25 39.3881 55.1381 39.5 55 39.5C54.8619 39.5 54.75 39.3881 54.75 39.25V39.125L54.75 20.5C54.75 18.1528 52.8472 16.25 50.5 16.25C48.1528 16.25 46.25 18.1528 46.25 20.5V39.125V39.25C46.25 39.3881 46.1381 39.5 46 39.5C45.8619 39.5 45.75 39.3881 45.75 39.25V39.125V16.5Z" fill="currentColor" fill-opacity="0.15" />
  <path d="M27.5077 45.3498L25.8436 46.4592L27.5077 45.3498ZM39.25 39.125V16.5H35.25V39.125H39.25ZM39.25 39.25V39.125H35.25V39.25H39.25ZM34.75 39.125V39.25H38.75V39.125H34.75ZM34.75 20.5V39.125H38.75V20.5H34.75ZM30.25 39.125L30.25 20.5H26.25L26.25 39.125H30.25ZM30.25 45.125L30.25 39.125H26.25L26.25 45.125H30.25ZM22.3721 41.2519L25.8436 46.4592L29.1718 44.2404L25.7003 39.0331L22.3721 41.2519ZM32.6278 64.7481L18.6279 43.7481L15.2996 45.9669L29.2996 66.9669L32.6278 64.7481ZM56.5 65.75H34.5L34.5 69.75H56.5V65.75ZM61.7177 46.3802L58.7176 63.8802L62.6601 64.556L65.6601 47.056L61.7177 46.3802ZM61.75 28.5L61.75 46H65.75V28.5H61.75ZM57.25 39.25L57.25 28.5H53.25L53.25 39.25H57.25ZM52.75 39.125V39.25H56.75V39.125H52.75ZM52.75 20.5L52.75 39.125H56.75L56.75 20.5H52.75ZM48.25 39.125L48.25 20.5H44.25V39.125H48.25ZM48.25 39.25V39.125H44.25V39.25H48.25ZM43.75 39.125V39.25H47.75V39.125H43.75ZM43.75 16.5V39.125H47.75V16.5L43.75 16.5ZM46 37.5C46.9665 37.5 47.75 38.2835 47.75 39.25H43.75C43.75 40.4926 44.7574 41.5 46 41.5V37.5ZM56.75 20.5C56.75 17.0482 53.9518 14.25 50.5 14.25V18.25C51.7426 18.25 52.75 19.2574 52.75 20.5H56.75ZM59.5 22.25C56.0482 22.25 53.25 25.0482 53.25 28.5H57.25C57.25 27.2574 58.2574 26.25 59.5 26.25V22.25ZM65.6601 47.056C65.7199 46.7072 65.75 46.3539 65.75 46H61.75C61.75 46.1274 61.7392 46.2546 61.7177 46.3802L65.6601 47.056ZM47.75 16.5C47.75 13.0482 44.9518 10.25 41.5 10.25V14.25C42.7426 14.25 43.75 15.2574 43.75 16.5L47.75 16.5ZM56.5 69.75C59.5443 69.75 62.1457 67.5566 62.6601 64.556L58.7176 63.8802C58.5324 64.9604 57.5959 65.75 56.5 65.75V69.75ZM50.5 14.25C47.0482 14.25 44.25 17.0482 44.25 20.5H48.25C48.25 19.2574 49.2574 18.25 50.5 18.25V14.25ZM26.25 45.125C26.25 43.5471 28.2965 42.9275 29.1718 44.2404L25.8436 46.4592C27.1636 48.4392 30.25 47.5047 30.25 45.125H26.25ZM55 37.5C55.9665 37.5 56.75 38.2835 56.75 39.25H52.75C52.75 40.4926 53.7574 41.5 55 41.5V37.5ZM32.5 14.25C29.0482 14.25 26.25 17.0482 26.25 20.5H30.25C30.25 19.2574 31.2574 18.25 32.5 18.25V14.25ZM29.2996 66.9669C30.4588 68.7056 32.4103 69.75 34.5 69.75L34.5 65.75C33.7477 65.75 33.0451 65.374 32.6278 64.7481L29.2996 66.9669ZM53.25 39.25C53.25 38.2835 54.0335 37.5 55 37.5V41.5C56.2426 41.5 57.25 40.4926 57.25 39.25H53.25ZM38.75 20.5C38.75 17.0482 35.9518 14.25 32.5 14.25V18.25C33.7426 18.25 34.75 19.2574 34.75 20.5H38.75ZM44.25 39.25C44.25 38.2835 45.0335 37.5 46 37.5V41.5C47.2426 41.5 48.25 40.4926 48.25 39.25H44.25ZM17.0331 37.2997C14.161 39.2144 13.3849 43.0948 15.2996 45.9669L18.6279 43.7481C17.9386 42.7141 18.2179 41.3172 19.2519 40.6279L17.0331 37.2997ZM65.75 28.5C65.75 25.0482 62.9518 22.25 59.5 22.25V26.25C60.7426 26.25 61.75 27.2574 61.75 28.5H65.75ZM37 37.5C37.9665 37.5 38.75 38.2835 38.75 39.25H34.75C34.75 40.4926 35.7574 41.5 37 41.5V37.5ZM41.5 10.25C38.0482 10.25 35.25 13.0482 35.25 16.5H39.25C39.25 15.2574 40.2574 14.25 41.5 14.25V10.25ZM25.7003 39.0331C23.7856 36.1611 19.9051 35.385 17.0331 37.2997L19.2519 40.6279C20.2858 39.9386 21.6828 40.218 22.3721 41.2519L25.7003 39.0331ZM35.25 39.25C35.25 38.2835 36.0335 37.5 37 37.5V41.5C38.2426 41.5 39.25 40.4926 39.25 39.25H35.25Z" fill="currentColor" />
</svg>