<svg viewBox="0 0 80 80" fill="none">
  <path fill-rule="evenodd" clip-rule="evenodd" d="M4 27H16.3431C17.404 27 18.4214 26.5786 19.1716 25.8284L22.6569 22.3431C24.1571 20.8429 26.192 20 28.3137 20H32.6863C34.6307 20 36.5021 20.7078 37.956 21.9808C37.861 22.0639 37.7678 22.1495 37.6765 22.2374L30.8703 28.7916C28.4701 31.1029 28.4339 34.9339 30.7901 37.2901C33.1152 39.6152 36.8848 39.6152 39.2099 37.2901L41.5 35L57.4643 47.4167C58.5978 48.2983 58.8241 49.9217 57.9749 51.0796L56.3655 53.2744C54.8785 55.3021 52.5145 56.5 50 56.5L48.8866 57.6134C47.6786 58.8214 46.0403 59.5 44.332 59.5C42.8252 59.5 41.3661 58.9717 40.2085 58.0071L39 57L38.2981 57.7019C36.8267 59.1733 34.8309 60 32.75 60C30.6691 60 28.6733 59.1733 27.2019 57.7019L19.6716 50.1716C18.9214 49.4214 17.904 49 16.8431 49H4V27Z" fill="currentColor" fill-opacity="0.25" />
  <path d="M4 27V25C2.89543 25 2 25.8954 2 27H4ZM19.1716 25.8284L17.7574 24.4142L17.7574 24.4142L19.1716 25.8284ZM22.6569 22.3431L24.0711 23.7574V23.7574L22.6569 22.3431ZM37.956 21.9808L39.2735 23.4855C39.7072 23.1058 39.956 22.5573 39.956 21.9808C39.956 21.4043 39.7072 20.8558 39.2735 20.4761L37.956 21.9808ZM37.6765 22.2374L39.0638 23.6781L39.0638 23.6781L37.6765 22.2374ZM30.8703 28.7916L32.2575 30.2322V30.2322L30.8703 28.7916ZM30.7901 37.2901L32.2043 35.8759L32.2043 35.8759L30.7901 37.2901ZM41.5 35L42.7279 33.4213C41.9317 32.802 40.799 32.8726 40.0858 33.5858L41.5 35ZM57.4643 47.4167L56.2365 48.9954H56.2365L57.4643 47.4167ZM57.9749 51.0796L59.5877 52.2624L59.5878 52.2624L57.9749 51.0796ZM56.3655 53.2744L54.7526 52.0917H54.7526L56.3655 53.2744ZM50 56.5V54.5C49.4696 54.5 48.9609 54.7107 48.5858 55.0858L50 56.5ZM40.2085 58.0071L41.4889 56.4706L41.4889 56.4706L40.2085 58.0071ZM39 57L40.2804 55.4636C39.4857 54.8013 38.3172 54.8544 37.5858 55.5858L39 57ZM27.2019 57.7019L28.6161 56.2877L27.2019 57.7019ZM19.6716 50.1716L18.2574 51.5858L18.2574 51.5858L19.6716 50.1716ZM4 49H2C2 50.1046 2.89543 51 4 51V49ZM16.3431 25H4V29H16.3431V25ZM17.7574 24.4142C17.3823 24.7893 16.8736 25 16.3431 25V29C17.9344 29 19.4606 28.3679 20.5858 27.2426L17.7574 24.4142ZM21.2426 20.9289L17.7574 24.4142L20.5858 27.2426L24.0711 23.7574L21.2426 20.9289ZM28.3137 18C25.6615 18 23.118 19.0536 21.2426 20.9289L24.0711 23.7574C25.1963 22.6321 26.7224 22 28.3137 22V18ZM32.6863 18H28.3137V22H32.6863V18ZM39.2735 20.4761C37.456 18.8848 35.1168 18 32.6863 18V22C34.1445 22 35.5481 22.5309 36.6385 23.4855L39.2735 20.4761ZM39.0638 23.6781C39.1323 23.6121 39.2022 23.5479 39.2735 23.4855L36.6385 20.4761C36.5198 20.5799 36.4034 20.6869 36.2892 20.7968L39.0638 23.6781ZM32.2575 30.2322L39.0638 23.6781L36.2892 20.7968L29.483 27.351L32.2575 30.2322ZM32.2043 35.8759C30.6396 34.3112 30.6636 31.7671 32.2575 30.2322L29.483 27.351C26.2765 30.4387 26.2282 35.5567 29.3759 38.7043L32.2043 35.8759ZM37.7957 35.8759C36.2517 37.4199 33.7483 37.4199 32.2043 35.8759L29.3759 38.7043C32.482 41.8104 37.518 41.8104 40.6241 38.7043L37.7957 35.8759ZM40.0858 33.5858L37.7957 35.8759L40.6241 38.7043L42.9142 36.4142L40.0858 33.5858ZM58.6922 45.838L42.7279 33.4213L40.2721 36.5787L56.2365 48.9954L58.6922 45.838ZM59.5878 52.2624C61.0771 50.2315 60.6802 47.3842 58.6922 45.838L56.2365 48.9954C56.5154 49.2124 56.5711 49.6119 56.3621 49.8969L59.5878 52.2624ZM57.9783 54.4571L59.5877 52.2624L56.3621 49.8969L54.7526 52.0917L57.9783 54.4571ZM50 58.5C53.1515 58.5 56.1146 56.9985 57.9783 54.4571L54.7526 52.0917C53.6424 53.6056 51.8774 54.5 50 54.5V58.5ZM50.3008 59.0277L51.4142 57.9142L48.5858 55.0858L47.4723 56.1992L50.3008 59.0277ZM44.332 61.5C46.5707 61.5 48.7178 60.6107 50.3008 59.0277L47.4723 56.1992C46.6395 57.0321 45.5099 57.5 44.332 57.5V61.5ZM38.9281 59.5435C40.4451 60.8077 42.3573 61.5 44.332 61.5V57.5C43.2931 57.5 42.287 57.1358 41.4889 56.4706L38.9281 59.5435ZM37.7196 58.5364L38.9281 59.5435L41.4889 56.4706L40.2804 55.4636L37.7196 58.5364ZM39.7123 59.1161L40.4142 58.4142L37.5858 55.5858L36.8839 56.2877L39.7123 59.1161ZM32.75 62C35.3614 62 37.8658 60.9626 39.7123 59.1161L36.8839 56.2877C35.7875 57.3841 34.3005 58 32.75 58V62ZM25.7877 59.1161C27.6342 60.9626 30.1386 62 32.75 62V58C31.1995 58 29.7125 57.3841 28.6161 56.2877L25.7877 59.1161ZM18.2574 51.5858L25.7877 59.1161L28.6161 56.2877L21.0858 48.7574L18.2574 51.5858ZM16.8431 51C17.3736 51 17.8823 51.2107 18.2574 51.5858L21.0858 48.7574C19.9606 47.6321 18.4344 47 16.8431 47V51ZM4 51H16.8431V47H4V51ZM2 27V49H6V27H2Z" fill="currentColor" />
  <path d="M63.6569 27H76V49H60H59.5L41.5 35L39.2099 37.2901C36.8848 39.6152 33.1152 39.6152 30.7901 37.2901C28.4339 34.9339 28.4701 31.1029 30.8703 28.7916L37.6765 22.2374C39.1672 20.802 41.1562 20 43.2256 20H51.6863C53.808 20 55.8429 20.8429 57.3431 22.3431L60.8284 25.8284C61.5786 26.5786 62.596 27 63.6569 27Z" fill="currentColor" fill-opacity="0.25" />
  <path d="M46 30.5L41.5 35M41.5 35L39.2099 37.2901C36.8848 39.6152 33.1152 39.6152 30.7901 37.2901V37.2901C28.4339 34.9339 28.4701 31.1029 30.8703 28.7916L37.6765 22.2374C39.1672 20.802 41.1562 20 43.2256 20H51.6863C53.808 20 55.8429 20.8429 57.3431 22.3431L60.8284 25.8284C61.5786 26.5786 62.596 27 63.6569 27H76V49H60H59.5L41.5 35Z" stroke="currentColor" stroke-width="4" stroke-linecap="round" stroke-linejoin="round" />
  <rect x="4" y="27.0586" width="8" height="22" fill="currentColor" fill-opacity="0.25" stroke="currentColor" stroke-width="4" stroke-linecap="round" stroke-linejoin="round" />
  <rect x="68" y="27.0586" width="8" height="22" fill="currentColor" fill-opacity="0.25" stroke="currentColor" stroke-width="4" stroke-linecap="round" stroke-linejoin="round" />
</svg>