<svg viewBox="0 0 80 80" fill="none">
  <path fill-rule="evenodd" clip-rule="evenodd" d="M21.5201 21C20.3101 21 19.2186 21.7268 18.7521 22.8432L12.0782 38.8128C12.041 38.9018 12.1064 39 12.2029 39H12V59H68V39H67.81C67.9003 39 67.9616 38.908 67.9267 38.8247L61.2479 22.8432C60.7814 21.7268 59.6898 21 58.4799 21H21.5201Z" fill="currentColor" fill-opacity="0.15" />
  <path d="M18.7521 22.8432L20.5974 23.6144V23.6144L18.7521 22.8432ZM12.0782 38.8128L10.2329 38.0416L10.2329 38.0416L12.0782 38.8128ZM12.2029 41C13.3075 41 14.2029 40.1046 14.2029 39C14.2029 37.8954 13.3075 37 12.2029 37V41ZM12 39V37C10.8954 37 10 37.8954 10 39H12ZM12 59H10C10 60.1046 10.8954 61 12 61V59ZM68 59V61C69.1046 61 70 60.1046 70 59H68ZM68 39H70C70 37.8954 69.1046 37 68 37V39ZM67.81 37C66.7054 37 65.81 37.8954 65.81 39C65.81 40.1046 66.7054 41 67.81 41V37ZM67.9267 38.8247L69.7721 38.0535V38.0535L67.9267 38.8247ZM61.2479 22.8432L59.4026 23.6144L59.4026 23.6144L61.2479 22.8432ZM20.5974 23.6144C20.7529 23.2423 21.1168 23 21.5201 23V19C19.5035 19 17.6843 20.2114 16.9067 22.072L20.5974 23.6144ZM13.9236 39.584L20.5974 23.6144L16.9067 22.072L10.2329 38.0416L13.9236 39.584ZM12.2029 37C13.5345 37 14.437 38.3554 13.9236 39.584L10.2329 38.0416C9.64505 39.4482 10.6784 41 12.2029 41V37ZM12 41H12.2029V37H12V41ZM14 59V39H10V59H14ZM68 57H12V61H68V57ZM66 39V59H70V39H66ZM67.81 41H68V37H67.81V41ZM66.0814 39.5959C65.5656 38.3616 66.4723 37 67.81 37V41C69.3284 41 70.3576 39.4545 69.7721 38.0535L66.0814 39.5959ZM59.4026 23.6144L66.0814 39.5959L69.7721 38.0535L63.0933 22.072L59.4026 23.6144ZM58.4799 23C58.8832 23 59.2471 23.2423 59.4026 23.6144L63.0933 22.072C62.3157 20.2114 60.4965 19 58.4799 19V23ZM21.5201 23H58.4799V19H21.5201V23Z" fill="currentColor" />
  <path d="M13 39H67" stroke="currentColor" stroke-linecap="round" stroke-linejoin="round" />
  <path d="M60 45L60 53" stroke="currentColor" stroke-linecap="round" stroke-linejoin="round" />
  <path d="M52 45L52 53" stroke="currentColor" stroke-linecap="round" stroke-linejoin="round" />
  <rect x="20" y="47" width="4" height="4" rx="2" stroke="currentColor" stroke-linecap="round" stroke-linejoin="round" />
</svg>