<svg viewBox="0 0 80 80" fill="none">
  <path fill-rule="evenodd" clip-rule="evenodd" d="M63.9829 20.8966C58.5166 15.4303 49.654 15.4303 44.1877 20.8966L41.956 23.1284L39.9429 25.1415L45.9862 31.1849C47.336 32.5346 47.336 34.723 45.9862 36.0727C44.6365 37.4225 42.4481 37.4225 41.0984 36.0727L36.4758 31.4502C35.6947 30.6691 34.4284 30.6691 33.6474 31.4502L22.5927 42.5048L22.4116 42.6859C21.239 44.0438 21.2972 46.0973 22.586 47.3862C23.9358 48.7359 26.1242 48.7359 27.4739 47.3862L36.6129 38.2471C36.6355 38.2246 36.672 38.2246 36.6945 38.2471C36.717 38.2697 36.717 38.3062 36.6945 38.3287L27.5555 47.4677C26.2057 48.8175 26.2057 51.0058 27.5555 52.3556C28.9052 53.7053 31.0936 53.7053 32.4433 52.3556L41.5825 43.2164C41.605 43.194 41.6413 43.194 41.6637 43.2164C41.6862 43.2388 41.6862 43.2752 41.6637 43.2976L32.5246 52.4368C31.1748 53.7865 31.1748 55.9749 32.5246 57.3247C33.8743 58.6744 36.0627 58.6744 37.4124 57.3247L46.5516 48.1855C46.574 48.163 46.6104 48.163 46.6328 48.1855C46.6553 48.2079 46.6553 48.2443 46.6328 48.2667L37.4936 57.4059C36.1439 58.7556 36.1439 60.944 37.4936 62.2937C38.8434 63.6435 41.0318 63.6435 42.3815 62.2937L61.7514 42.9238C61.7635 42.9117 61.7755 42.8996 61.7874 42.8873L63.9829 40.6918C69.4492 35.2255 69.4492 26.3629 63.9829 20.8966Z" fill="currentColor" fill-opacity="0.25" />
  <path d="M44.1877 20.8966L42.7735 19.4824V19.4824L44.1877 20.8966ZM63.9829 20.8966L62.5687 22.3108L63.9829 20.8966ZM41.956 23.1284L43.3702 24.5426V24.5426L41.956 23.1284ZM39.9429 25.1415L38.5286 23.7273C37.7476 24.5083 37.7476 25.7746 38.5286 26.5557L39.9429 25.1415ZM45.9862 31.1849L44.572 32.5991L44.572 32.5991L45.9862 31.1849ZM45.9862 36.0727L44.572 34.6585L44.572 34.6585L45.9862 36.0727ZM41.0984 36.0727L42.5126 34.6585L41.0984 36.0727ZM36.4758 31.4502L35.0616 32.8644V32.8644L36.4758 31.4502ZM33.6474 31.4502L32.2332 30.0359L33.6474 31.4502ZM22.5927 42.5048L21.1785 41.0906L21.1785 41.0906L22.5927 42.5048ZM22.4116 42.6859L20.9974 41.2717C20.9629 41.3062 20.9298 41.3419 20.8979 41.3787L22.4116 42.6859ZM22.586 47.3862L24.0003 45.9719H24.0003L22.586 47.3862ZM27.4739 47.3862L26.0597 45.9719H26.0597L27.4739 47.3862ZM36.6945 38.2471L38.1087 36.8329L38.1087 36.8329L36.6945 38.2471ZM36.6945 38.3287L38.1087 39.7429L38.1087 39.7429L36.6945 38.3287ZM27.5555 47.4677L28.9697 48.8819H28.9697L27.5555 47.4677ZM27.5555 52.3556L28.9697 50.9414H28.9697L27.5555 52.3556ZM32.4433 52.3556L33.8576 53.7698L32.4433 52.3556ZM41.5825 43.2164L42.9968 44.6306L41.5825 43.2164ZM41.6637 43.2164L40.2495 44.6305L40.2495 44.6306L41.6637 43.2164ZM41.6637 43.2976L40.2495 41.8834L41.6637 43.2976ZM32.5246 52.4368L33.9388 53.851H33.9388L32.5246 52.4368ZM37.4124 57.3247L38.8266 58.7389H38.8266L37.4124 57.3247ZM46.6328 48.1855L45.2186 49.5997L45.2187 49.5997L46.6328 48.1855ZM46.6328 48.2667L45.2187 46.8524L45.2186 46.8525L46.6328 48.2667ZM37.4936 62.2937L38.9078 60.8795L37.4936 62.2937ZM61.7514 42.9238L60.3373 41.5095L60.3372 41.5096L61.7514 42.9238ZM61.7874 42.8873L60.3732 41.4731C60.3663 41.48 60.3596 41.4868 60.3528 41.4938L61.7874 42.8873ZM63.9829 40.6918L62.5687 39.2776V39.2776L63.9829 40.6918ZM45.6019 22.3108C50.2872 17.6256 57.8835 17.6256 62.5687 22.3108L65.3971 19.4824C59.1498 13.235 49.0209 13.235 42.7735 19.4824L45.6019 22.3108ZM43.3702 24.5426L45.6019 22.3108L42.7735 19.4824L40.5417 21.7141L43.3702 24.5426ZM41.3571 26.5557L43.3702 24.5426L40.5417 21.7141L38.5286 23.7273L41.3571 26.5557ZM38.5286 26.5557L44.572 32.5991L47.4004 29.7706L41.3571 23.7273L38.5286 26.5557ZM44.572 32.5991C45.1407 33.1678 45.1407 34.0898 44.572 34.6585L47.4004 37.4869C49.5312 35.3561 49.5312 31.9014 47.4004 29.7706L44.572 32.5991ZM44.572 34.6585C44.0033 35.2272 43.0813 35.2272 42.5126 34.6585L39.6841 37.4869C41.8149 39.6177 45.2697 39.6177 47.4004 37.4869L44.572 34.6585ZM42.5126 34.6585L37.89 30.0359L35.0616 32.8644L39.6841 37.4869L42.5126 34.6585ZM37.89 30.0359C36.3279 28.4739 33.7952 28.4738 32.2332 30.0359L35.0616 32.8644L37.89 30.0359ZM32.2332 30.0359L21.1785 41.0906L24.007 43.919L35.0616 32.8644L32.2332 30.0359ZM21.1785 41.0906L20.9974 41.2717L23.8258 44.1001L24.007 43.919L21.1785 41.0906ZM24.0003 45.9719C23.4578 45.4295 23.4326 44.5637 23.9253 43.9931L20.8979 41.3787C19.0455 43.5239 19.1365 46.7651 21.1718 48.8004L24.0003 45.9719ZM26.0597 45.9719C25.491 46.5406 24.569 46.5406 24.0003 45.9719L21.1718 48.8004C23.3026 50.9312 26.7573 50.9312 28.8881 48.8004L26.0597 45.9719ZM35.1987 36.8329L26.0597 45.9719L28.8881 48.8004L38.0272 39.6613L35.1987 36.8329ZM38.1087 36.8329C37.3051 36.0293 36.0023 36.0293 35.1987 36.8329L38.0272 39.6613C37.2686 40.4199 36.0388 40.4199 35.2803 39.6613L38.1087 36.8329ZM38.1087 39.7429C38.9123 38.9393 38.9123 37.6365 38.1087 36.8329L35.2802 39.6613C34.5218 38.9028 34.5218 37.673 35.2802 36.9145L38.1087 39.7429ZM28.9697 48.8819L38.1087 39.7429L35.2803 36.9145L26.1413 46.0535L28.9697 48.8819ZM28.9697 50.9414C28.401 50.3727 28.401 49.4506 28.9697 48.8819L26.1413 46.0535C24.0105 48.1843 24.0105 51.639 26.1413 53.7698L28.9697 50.9414ZM31.0291 50.9414C30.4604 51.5101 29.5384 51.5101 28.9697 50.9414L26.1413 53.7698C28.2721 55.9006 31.7268 55.9006 33.8576 53.7698L31.0291 50.9414ZM40.1683 41.8022L31.0291 50.9414L33.8576 53.7698L42.9968 44.6306L40.1683 41.8022ZM43.078 41.8022C42.2745 40.9986 40.9718 40.9987 40.1683 41.8022L42.9968 44.6306C42.2382 45.3892 41.0081 45.3893 40.2495 44.6305L43.078 41.8022ZM43.078 44.7118C43.8814 43.9083 43.8814 42.6056 43.078 41.8022L40.2495 44.6306C39.4909 43.872 39.4909 42.642 40.2495 41.8834L43.078 44.7118ZM33.9388 53.851L43.078 44.7118L40.2495 41.8834L31.1103 51.0226L33.9388 53.851ZM33.9388 55.9104C33.3701 55.3417 33.3701 54.4197 33.9388 53.851L31.1103 51.0226C28.9795 53.1534 28.9795 56.6081 31.1103 58.7389L33.9388 55.9104ZM35.9982 55.9104C35.4295 56.4792 34.5075 56.4791 33.9388 55.9104L31.1103 58.7389C33.2411 60.8697 36.6958 60.8697 38.8266 58.7389L35.9982 55.9104ZM45.1374 46.7713L35.9982 55.9104L38.8266 58.7389L47.9658 49.5997L45.1374 46.7713ZM48.047 46.7713C47.2436 45.9678 45.9409 45.9678 45.1374 46.7713L47.9658 49.5997C47.2072 50.3583 45.9772 50.3583 45.2186 49.5997L48.047 46.7713ZM48.047 49.681C48.8505 48.8775 48.8505 47.5747 48.047 46.7712L45.2187 49.5997C44.46 48.8411 44.46 47.611 45.2187 46.8524L48.047 49.681ZM38.9079 58.8201L48.047 49.6809L45.2186 46.8525L36.0794 55.9917L38.9079 58.8201ZM38.9078 60.8795C38.3391 60.3108 38.3391 59.3888 38.9079 58.8201L36.0794 55.9917C33.9486 58.1225 33.9486 61.5772 36.0794 63.708L38.9078 60.8795ZM40.9673 60.8795C40.3986 61.4482 39.4765 61.4482 38.9078 60.8795L36.0794 63.708C38.2102 65.8388 41.6649 65.8387 43.7957 63.708L40.9673 60.8795ZM60.3372 41.5096L40.9673 60.8795L43.7957 63.708L63.1656 44.338L60.3372 41.5096ZM60.3528 41.4938C60.3476 41.4991 60.3424 41.5044 60.3373 41.5095L63.1655 44.3382C63.1846 44.3191 63.2034 44.3 63.2219 44.2809L60.3528 41.4938ZM62.5687 39.2776L60.3732 41.4731L63.2016 44.3016L65.3971 42.106L62.5687 39.2776ZM62.5687 22.3108C67.254 26.9961 67.254 34.5923 62.5687 39.2776L65.3971 42.106C71.6445 35.8587 71.6445 25.7297 65.3971 19.4824L62.5687 22.3108Z" fill="currentColor" />
  <path fill-rule="evenodd" clip-rule="evenodd" d="M15.8998 40.7005C10.4323 35.2331 10.4323 26.3685 15.8998 20.901C21.3673 15.4335 30.2318 15.4335 35.6993 20.901L37.5039 22.7056L37.7222 22.9239C37.7477 22.9479 37.7729 22.9724 37.7979 22.9974L45.9857 31.1852C47.3355 32.535 47.3355 34.7234 45.9857 36.0731C44.636 37.4229 42.4476 37.4229 41.0979 36.0731L36.4753 31.4505C35.6942 30.6695 34.4279 30.6695 33.6469 31.4505L22.5922 42.5052L21.5625 43.5349C20.7815 44.3159 19.5151 44.3159 18.7341 43.5349L17.7044 42.5052L15.8998 40.7005Z" fill="currentColor" fill-opacity="0.25" />
  <path d="M37.5039 22.7056L36.0897 24.1198L37.5039 22.7056ZM37.7222 22.9239L36.308 24.3381C36.3221 24.3523 36.3364 24.3662 36.351 24.3799L37.7222 22.9239ZM41.0979 36.0731L39.6837 37.4873L41.0979 36.0731ZM22.5922 42.5052L21.178 41.0909L22.5922 42.5052ZM17.7044 42.5052L19.1186 41.0909L17.7044 42.5052ZM21.5625 43.5349L20.1483 42.1207L21.5625 43.5349ZM33.6469 31.4505L35.0611 32.8647L33.6469 31.4505ZM14.4856 19.4868C8.23701 25.7353 8.23702 35.8662 14.4856 42.1148L17.314 39.2863C12.6275 34.5999 12.6275 27.0017 17.314 22.3152L14.4856 19.4868ZM37.1135 19.4868C30.865 13.2383 20.7341 13.2383 14.4856 19.4868L17.314 22.3152C22.0004 17.6288 29.5986 17.6288 34.2851 22.3152L37.1135 19.4868ZM38.9181 21.2914L37.1135 19.4868L34.2851 22.3152L36.0897 24.1198L38.9181 21.2914ZM39.1364 21.5097L38.9181 21.2914L36.0897 24.1198L36.308 24.3381L39.1364 21.5097ZM39.2121 21.5832C39.173 21.5441 39.1335 21.5057 39.0934 21.468L36.351 24.3799C36.362 24.3902 36.3728 24.4008 36.3837 24.4116L39.2121 21.5832ZM47.4 29.771L39.2121 21.5832L36.3837 24.4116L44.5715 32.5994L47.4 29.771ZM47.4 37.4873C49.5308 35.3565 49.5308 31.9018 47.4 29.771L44.5715 32.5994C45.1402 33.1681 45.1402 34.0902 44.5715 34.6589L47.4 37.4873ZM39.6837 37.4873C41.8145 39.6181 45.2692 39.6181 47.4 37.4873L44.5715 34.6589C44.0028 35.2276 43.0808 35.2276 42.5121 34.6589L39.6837 37.4873ZM35.0611 32.8647L39.6837 37.4873L42.5121 34.6589L37.8895 30.0363L35.0611 32.8647ZM24.0065 43.9194L35.0611 32.8647L32.2327 30.0363L21.178 41.0909L24.0065 43.9194ZM22.9767 44.9491L24.0065 43.9194L21.178 41.0909L20.1483 42.1207L22.9767 44.9491ZM16.2902 43.9194L17.3199 44.9491L20.1483 42.1207L19.1186 41.0909L16.2902 43.9194ZM14.4856 42.1148L16.2902 43.9194L19.1186 41.0909L17.314 39.2863L14.4856 42.1148ZM20.1483 42.1207L20.1483 42.1207L17.3199 44.9491C18.882 46.5112 21.4146 46.5112 22.9767 44.9491L20.1483 42.1207ZM37.8895 30.0363C36.3274 28.4742 33.7948 28.4742 32.2327 30.0363L35.0611 32.8647L37.8895 30.0363Z" fill="currentColor" />
</svg>