<svg viewBox="0 0 80 80" fill="none">
  <path fill-rule="evenodd" clip-rule="evenodd" d="M17.3735 20.8056C14.7479 23.4311 13.2729 26.992 13.2729 30.7051C13.2729 34.4181 14.7479 37.9791 17.3735 40.6046L31.5156 54.7467L38.5867 61.8178C39.3677 62.5988 40.634 62.5988 41.4151 61.8178L48.4862 54.7467L62.6283 40.6046C65.2538 37.9791 66.7288 34.4181 66.7288 30.7051C66.7288 26.992 65.2538 23.4311 62.6283 20.8056C60.0028 18.1801 56.4418 16.7051 52.7288 16.7051C49.0158 16.7051 45.4548 18.1801 42.8293 20.8056L40.6919 22.943C40.3102 23.3246 39.6915 23.3246 39.3098 22.943L37.1724 20.8056C34.5469 18.1801 30.986 16.7051 27.273 16.7051C23.5599 16.7051 19.999 18.1801 17.3735 20.8056Z" fill="currentColor" fill-opacity="0.15" />
  <path d="M13.2729 30.7051H11.2729H13.2729ZM48.4862 54.7467L47.0719 53.3325L48.4862 54.7467ZM37.1724 20.8056L35.7582 22.2198L37.1724 20.8056ZM27.273 16.7051L27.273 14.7051H27.273V16.7051ZM38.5867 61.8178L40.0009 60.4036L38.5867 61.8178ZM41.4151 61.8178L40.0009 60.4036L41.4151 61.8178ZM15.2729 30.7051C15.2729 27.5225 16.5372 24.4702 18.7877 22.2198L15.9592 19.3914C12.9587 22.392 11.2729 26.4616 11.2729 30.7051H15.2729ZM18.7877 39.1904C16.5372 36.9399 15.2729 33.8877 15.2729 30.7051H11.2729C11.2729 34.9485 12.9587 39.0182 15.9592 42.0188L18.7877 39.1904ZM32.9298 53.3325L18.7877 39.1904L15.9592 42.0188L30.1014 56.1609L32.9298 53.3325ZM30.1014 56.1609L37.1724 63.232L40.0009 60.4036L32.9298 53.3325L30.1014 56.1609ZM42.8293 63.232L49.9004 56.1609L47.0719 53.3325L40.0009 60.4036L42.8293 63.232ZM49.9004 56.1609L64.0425 42.0188L61.2141 39.1904L47.0719 53.3325L49.9004 56.1609ZM64.0425 42.0188C67.0431 39.0182 68.7288 34.9485 68.7288 30.7051H64.7288C64.7288 33.8877 63.4645 36.9399 61.2141 39.1904L64.0425 42.0188ZM68.7288 30.7051C68.7288 26.4616 67.0431 22.392 64.0425 19.3914L61.2141 22.2198C63.4645 24.4702 64.7288 27.5225 64.7288 30.7051H68.7288ZM64.0425 19.3914C61.0419 16.3908 56.9723 14.7051 52.7288 14.7051V18.7051C55.9114 18.7051 58.9636 19.9694 61.2141 22.2198L64.0425 19.3914ZM52.7288 14.7051C48.4853 14.7051 44.4157 16.3908 41.4151 19.3914L44.2435 22.2198C46.4939 19.9694 49.5462 18.7051 52.7288 18.7051V14.7051ZM41.4151 19.3914L39.2777 21.5288L42.1061 24.3572L44.2435 22.2198L41.4151 19.3914ZM35.7582 22.2198L37.8956 24.3572L40.7241 21.5288L38.5867 19.3914L35.7582 22.2198ZM27.273 18.7051C30.4555 18.7051 33.5078 19.9694 35.7582 22.2198L38.5867 19.3914C35.5861 16.3908 31.5164 14.7051 27.273 14.7051L27.273 18.7051ZM18.7877 22.2198C21.0381 19.9694 24.0904 18.7051 27.273 18.7051V14.7051C23.0295 14.7051 18.9598 16.3908 15.9592 19.3914L18.7877 22.2198ZM39.2777 21.5288C39.6771 21.1294 40.3247 21.1294 40.7241 21.5288L37.8956 24.3572C39.0583 25.5199 40.9434 25.5199 42.1061 24.3572L39.2777 21.5288ZM37.1724 63.232C38.7345 64.7941 41.2672 64.7941 42.8293 63.232L40.0009 60.4036L37.1724 63.232Z" fill="currentColor" />
  <path fill-rule="evenodd" clip-rule="evenodd" d="M47.3256 17.7896C47.3142 17.9163 47.2782 18.0436 47.2145 18.1649L42.7127 26.7481C42.6311 26.9037 42.7149 27.0948 42.8846 27.1403L44.0619 27.4558L45.5063 27.8428L48.7035 28.6995C49.4023 28.8867 49.6772 29.731 49.2226 30.2938L35.1066 47.7694C34.8634 48.0704 34.3913 47.7732 34.5576 47.4238L40.6052 34.7181C40.8738 34.1538 40.5647 33.4842 39.9611 33.3224L39.3504 33.1588L37.9971 32.7962L33.2865 31.534C32.7057 31.3783 32.3926 30.7489 32.6189 30.1918L36.6374 20.2976C36.8198 20.4617 36.9983 20.631 37.1726 20.8053L39.31 22.9427C39.6916 23.3243 40.3104 23.3243 40.692 22.9427L42.8294 20.8053C44.1303 19.5045 45.6607 18.4861 47.3256 17.7896Z" fill="currentColor" fill-opacity="0.15" />
  <path d="M47.3256 17.7896L49.3176 17.9676C49.38 17.2694 49.0724 16.5896 48.5068 16.1757C47.9412 15.7617 47.2002 15.674 46.5537 15.9445L47.3256 17.7896ZM47.2145 18.1649L48.9857 19.0939L48.9857 19.0939L47.2145 18.1649ZM42.7127 26.7481L44.4839 27.6771L44.4839 27.6771L42.7127 26.7481ZM42.8846 27.1403L42.3669 29.0721L42.3669 29.0721L42.8846 27.1403ZM44.0619 27.4558L44.5795 25.5239H44.5795L44.0619 27.4558ZM45.5063 27.8428L44.9887 29.7746L45.5063 27.8428ZM48.7035 28.6995L49.2212 26.7676L48.7035 28.6995ZM49.2226 30.2938L47.6668 29.037L47.6668 29.037L49.2226 30.2938ZM35.1066 47.7694L36.6624 49.0261L36.6624 49.0261L35.1066 47.7694ZM34.5576 47.4238L32.7518 46.5642L32.7518 46.5642L34.5576 47.4238ZM40.6052 34.7181L42.4111 35.5777L42.4111 35.5777L40.6052 34.7181ZM39.9611 33.3224L39.4434 35.2543L39.9611 33.3224ZM39.3504 33.1588L39.868 31.2269H39.868L39.3504 33.1588ZM37.9971 32.7962L37.4794 34.728L37.9971 32.7962ZM33.2865 31.534L33.8042 29.6021H33.8042L33.2865 31.534ZM32.6189 30.1918L30.7659 29.4391H30.7659L32.6189 30.1918ZM36.6374 20.2976L37.9753 18.8109C37.4908 18.3749 36.8242 18.2024 36.189 18.3485C35.5538 18.4946 35.0297 18.9411 34.7844 19.545L36.6374 20.2976ZM37.1726 20.8053L38.5868 19.3911L38.5868 19.3911L37.1726 20.8053ZM39.31 22.9427L37.8958 24.3569L37.8958 24.3569L39.31 22.9427ZM40.692 22.9427L39.2778 21.5285V21.5285L40.692 22.9427ZM42.8294 20.8053L44.2436 22.2195L44.2437 22.2195L42.8294 20.8053ZM45.3335 17.6116C45.3453 17.4795 45.3829 17.3512 45.4433 17.236L48.9857 19.0939C49.1734 18.7359 49.2832 18.353 49.3176 17.9676L45.3335 17.6116ZM45.4433 17.236L40.9416 25.8191L44.4839 27.6771L48.9857 19.0939L45.4433 17.236ZM40.9416 25.8191C40.2647 27.1097 40.9593 28.695 42.3669 29.0721L43.4022 25.2084C44.4704 25.4947 44.9976 26.6977 44.4839 27.6771L40.9416 25.8191ZM42.3669 29.0721L43.5443 29.3876L44.5795 25.5239L43.4022 25.2084L42.3669 29.0721ZM43.5443 29.3876L44.9887 29.7746L46.024 25.9109L44.5795 25.5239L43.5443 29.3876ZM44.9887 29.7746L48.1859 30.6313L49.2212 26.7676L46.024 25.9109L44.9887 29.7746ZM48.1859 30.6313C47.4871 30.4441 47.2122 29.5998 47.6668 29.037L50.7785 31.5505C52.1422 29.8623 51.3175 27.3293 49.2212 26.7676L48.1859 30.6313ZM47.6668 29.037L33.5508 46.5126L36.6624 49.0261L50.7785 31.5505L47.6668 29.037ZM33.5508 46.5126C34.7969 44.9699 37.2157 46.4928 36.3635 48.2833L32.7518 46.5642C31.5668 49.0537 34.9298 51.171 36.6624 49.0261L33.5508 46.5126ZM36.3635 48.2833L42.4111 35.5777L38.7993 33.8586L32.7518 46.5642L36.3635 48.2833ZM42.4111 35.5777C43.2168 33.8848 42.2897 31.8758 40.4787 31.3906L39.4434 35.2543C38.8398 35.0925 38.5307 34.4229 38.7993 33.8586L42.4111 35.5777ZM40.4787 31.3906L39.868 31.2269L38.8327 35.0906L39.4434 35.2543L40.4787 31.3906ZM39.868 31.2269L38.5147 30.8643L37.4794 34.728L38.8327 35.0906L39.868 31.2269ZM38.5147 30.8643L33.8042 29.6021L32.7689 33.4658L37.4794 34.728L38.5147 30.8643ZM33.8042 29.6021C34.385 29.7578 34.6981 30.3872 34.4718 30.9444L30.7659 29.4391C30.087 31.1106 31.0263 32.9989 32.7689 33.4658L33.8042 29.6021ZM34.4718 30.9444L38.4904 21.0502L34.7844 19.545L30.7659 29.4391L34.4718 30.9444ZM38.5868 19.3911C38.3876 19.1919 38.1837 18.9984 37.9753 18.8109L35.2996 21.7843C35.4559 21.9249 35.6089 22.07 35.7584 22.2195L38.5868 19.3911ZM40.7242 21.5285L38.5868 19.3911L35.7584 22.2195L37.8958 24.3569L40.7242 21.5285ZM39.2778 21.5285C39.6772 21.1291 40.3248 21.1291 40.7242 21.5285L37.8958 24.3569C39.0585 25.5196 40.9436 25.5196 42.1062 24.3569L39.2778 21.5285ZM41.4152 19.3911L39.2778 21.5285L42.1062 24.3569L44.2436 22.2195L41.4152 19.3911ZM46.5537 15.9445C44.6511 16.7405 42.9019 17.9044 41.4152 19.3911L44.2437 22.2195C45.3587 21.1045 46.6704 20.2316 48.0975 19.6346L46.5537 15.9445Z" fill="currentColor" />
</svg>