<svg viewBox="0 0 80 80" fill="none">
  <path d="M44.0001 12H36.0001V6.66667L44.0001 4V12Z" fill="currentColor" fill-opacity="0.25" />
  <path d="M46.0486 14.3967C45.4116 12.9408 43.9732 12 42.384 12H37.6161C36.0269 12 34.5885 12.9408 33.9515 14.3967L28.0001 28H52.0001L46.0486 14.3967Z" fill="currentColor" fill-opacity="0.25" />
  <path d="M50.2395 70.2498C50.1056 73.4635 47.4613 76 44.2447 76H35.7551C32.5386 76 29.8943 73.4635 29.7603 70.2498L28.0001 28H52.0001L50.2395 70.2498Z" fill="currentColor" fill-opacity="0.25" />
  <path d="M28.0001 28L33.9515 14.3967C34.5885 12.9408 36.0269 12 37.6161 12H42.384C43.9732 12 45.4117 12.9408 46.0486 14.3967L52.0001 28M28.0001 28H52.0001M28.0001 28L29.7603 70.2498C29.8943 73.4635 32.5386 76 35.7551 76H44.2447C47.4613 76 50.1056 73.4635 50.2395 70.2498L52.0001 28M34.0001 36H46.0001M44.0001 12H36.0001V6.66667L44.0001 4V12Z" stroke="currentColor" stroke-linecap="round" stroke-linejoin="round" />
</svg>