<svg viewBox="0 0 80 80" fill="none">
  <path d="M34.8038 40.0002C33.5289 39.4906 32.3125 38.7861 31.1995 37.8865L27.879 35.2026C24.5906 32.5446 22.6797 28.5428 22.6797 24.3146V17H57.3207V24.3146C57.3207 28.5428 55.4097 32.5446 52.1214 35.2026L48.8009 37.8865C47.6881 38.7859 46.472 39.4903 45.1973 39.9998C46.4723 40.5094 47.6887 41.2139 48.8016 42.1135L52.1221 44.7974C55.4105 47.4554 57.3215 51.4572 57.3215 55.6854V63H22.6805V55.6854C22.6805 51.4572 24.5914 47.4554 27.8798 44.7974L31.2003 42.1135C32.313 41.2141 33.5291 40.5097 34.8038 40.0002Z" fill="currentColor" fill-opacity="0.25" />
  <path d="M41.4996 37.2713C41.4996 36.7672 41.876 36.3464 42.3702 36.2471C44.2184 35.8756 45.9974 35.065 47.5434 33.8154L49.4218 32.2971C50.6139 31.3335 51.5949 30.1639 52.33 28.8606C52.6794 28.2411 52.2002 27.5196 51.489 27.5196H28.5111C27.7998 27.5196 27.3206 28.2411 27.67 28.8606C28.4052 30.1639 29.3861 31.3335 30.5783 32.2971L32.4566 33.8154C34.0025 35.0649 35.7812 35.8754 37.6291 36.2469C38.1233 36.3463 38.4996 36.7671 38.4996 37.2712V50C38.4996 50.5523 38.0519 51 37.4996 51H28.325C27.9689 51 27.6368 51.1879 27.4727 51.5038C26.5958 53.1921 26.1217 55.0857 26.1217 57.0354V58.6289C26.1217 59.1812 26.5694 59.6289 27.1217 59.6289H52.8783C53.4306 59.6289 53.8783 59.1812 53.8783 58.6289V57.0354C53.8783 55.0857 53.4043 53.1921 52.5274 51.5038C52.3632 51.1879 52.0311 51 51.675 51H42.4996C41.9473 51 41.4996 50.5523 41.4996 50V37.2713Z" fill="currentColor" fill-opacity="0.25" />
</svg>