<svg viewBox="0 0 80 80" fill="none">
  <path fill-rule="evenodd" clip-rule="evenodd" d="M60 34L40 18L20 34L20 62L60 62L60 34Z" fill="currentColor" fill-opacity="0.15" />
  <path d="M60 34H62C62 33.3924 61.7238 32.8178 61.2494 32.4383L60 34ZM40 18L41.2494 16.4383C40.519 15.8539 39.481 15.8539 38.7506 16.4383L40 18ZM20 34L18.7506 32.4383C18.2762 32.8178 18 33.3924 18 34H20ZM20 62H18C18 63.1046 18.8954 64 20 64V62ZM60 62V64C61.1046 64 62 63.1046 62 62H60ZM61.2494 32.4383L41.2494 16.4383L38.7506 19.5617L58.7506 35.5617L61.2494 32.4383ZM38.7506 16.4383L18.7506 32.4383L21.2494 35.5617L41.2494 19.5617L38.7506 16.4383ZM18 34L18 62H22L22 34H18ZM20 64H60V60L20 60V64ZM62 62L62 34H58L58 62H62Z" fill="currentColor" />
  <path d="M67.5 40L64.5 37.6L40 18L15.5 37.6L12.5 40" stroke="currentColor" stroke-width="4" stroke-linecap="round" stroke-linejoin="round" />
  <path fill-rule="evenodd" clip-rule="evenodd" d="M55 30V19H49V25.2L55 30Z" fill="currentColor" fill-opacity="0.15" />
  <path d="M55 19H57C57 17.8954 56.1046 17 55 17V19ZM55 30L53.7506 31.5617C54.3509 32.042 55.1734 32.1356 55.8664 31.8026C56.5593 31.4696 57 30.7688 57 30H55ZM49 19V17C47.8954 17 47 17.8954 47 19H49ZM49 25.2H47C47 25.8076 47.2762 26.3822 47.7506 26.7617L49 25.2ZM53 19V30H57V19H53ZM49 21H55V17H49V21ZM51 25.2V19H47V25.2H51ZM47.7506 26.7617L53.7506 31.5617L56.2494 28.4383L50.2494 23.6383L47.7506 26.7617Z" fill="currentColor" />
  <g opacity="0.9">
    <path fill-rule="evenodd" clip-rule="evenodd" d="M40 55.6075C45.5228 55.6075 50 51.1304 50 45.6075V45.0052C50 42.7954 49.3095 40.6409 48.0251 38.8427L40.0198 27.6352C40.0101 27.6216 39.9899 27.6216 39.9802 27.6352C38.8497 29.2179 38.8156 31.3348 39.8945 32.9532L42.0331 36.1611C42.6636 37.1068 43 38.2179 43 39.3545V40.1114C43 42.8729 40.7614 45.1114 38 45.1114C35.2386 45.1114 33 42.8729 33 40.1114V39.3545C33 38.2179 33.3364 37.1068 33.9669 36.1611L35.0393 34.5525L31.9749 38.8427C30.6905 40.6409 30 42.7954 30 45.0052V45.6075C30 51.1304 34.4772 55.6075 40 55.6075Z" fill="currentColor" fill-opacity="0.15" />
    <path d="M48.0251 38.8427L49.6526 37.6802L48.0251 38.8427ZM40.0198 27.6352L38.3922 28.7976L38.3923 28.7976L40.0198 27.6352ZM42.0331 36.1611L40.369 37.2705V37.2705L42.0331 36.1611ZM33.9669 36.1611L32.3028 35.0517H32.3028L33.9669 36.1611ZM35.0393 34.5525L36.7034 35.6619C37.3091 34.7533 37.0741 33.5268 36.1754 32.9065C35.2767 32.2862 34.0465 32.5014 33.4118 33.39L35.0393 34.5525ZM31.9749 38.8427L30.3474 37.6802H30.3474L31.9749 38.8427ZM39.8945 32.9532L38.2304 34.0626L39.8945 32.9532ZM48 45.6075C48 50.0258 44.4183 53.6075 40 53.6075L40 57.6075C46.6274 57.6075 52 52.2349 52 45.6075H48ZM48 45.0052V45.6075H52V45.0052H48ZM46.3977 40.0052C47.4398 41.4641 48 43.2123 48 45.0052H52C52 42.3786 51.1793 39.8176 49.6526 37.6802L46.3977 40.0052ZM38.3923 28.7976L46.3977 40.0052L49.6526 37.6802L41.6472 26.4727L38.3923 28.7976ZM41.6078 28.7976C40.8198 29.9008 39.1802 29.9008 38.3922 28.7976L41.6473 26.4728C40.84 25.3424 39.1601 25.3424 38.3527 26.4728L41.6078 28.7976ZM38.2304 34.0626L40.369 37.2705L43.6972 35.0517L41.5586 31.8438L38.2304 34.0626ZM40.369 37.2705C40.7805 37.8877 41 38.6128 41 39.3545H45C45 37.8231 44.5467 36.3259 43.6972 35.0517L40.369 37.2705ZM41 39.3545V40.1114H45V39.3545H41ZM41 40.1114C41 41.7683 39.6569 43.1114 38 43.1114V47.1114C41.866 47.1114 45 43.9774 45 40.1114H41ZM38 43.1114C36.3431 43.1114 35 41.7683 35 40.1114H31C31 43.9774 34.134 47.1114 38 47.1114V43.1114ZM35 40.1114V39.3545H31L31 40.1114H35ZM35 39.3545C35 38.6128 35.2195 37.8877 35.631 37.2705L32.3028 35.0517C31.4533 36.3259 31 37.8231 31 39.3545H35ZM35.631 37.2705L36.7034 35.6619L33.3752 33.4431L32.3028 35.0517L35.631 37.2705ZM33.6023 40.0052L36.6668 35.715L33.4118 33.39L30.3474 37.6802L33.6023 40.0052ZM32 45.0052C32 43.2123 32.5602 41.4641 33.6023 40.0052L30.3474 37.6802C28.8207 39.8176 28 42.3786 28 45.0052H32ZM32 45.6075V45.0052H28V45.6075H32ZM40 53.6075C35.5817 53.6075 32 50.0258 32 45.6075H28C28 52.2349 33.3726 57.6075 40 57.6075L40 53.6075ZM38.3528 26.4727C36.7393 28.7316 36.6906 31.7528 38.2304 34.0626L41.5586 31.8438C40.9406 30.9168 40.9602 29.7042 41.6077 28.7976L38.3528 26.4727Z" fill="currentColor" />
  </g>
</svg>