<svg viewBox="0 0 80 80" fill="none">
  <g opacity="0.9">
    <path fill-rule="evenodd" clip-rule="evenodd" d="M20.642 31.0114C20.3593 31.0114 20.1301 31.2405 20.1301 31.5232V34.5098C20.1301 35.0536 19.9858 35.5877 19.7117 36.0574L19.2225 36.8961C19.0234 37.2374 19.2696 37.6659 19.6646 37.6659H20.6413C20.6416 37.6659 20.6418 37.6659 20.642 37.6659H23.7134C23.7136 37.6659 23.7138 37.6659 23.7141 37.6659H25.0487C25.4438 37.6659 25.6899 37.2374 25.4908 36.8961L24.6437 35.4438C24.3696 34.9741 24.2253 34.44 24.2253 33.8962V31.5232C24.2253 31.2405 23.9961 31.0114 23.7134 31.0114H20.642Z" fill="currentColor" fill-opacity="0.25" />
    <path d="M19.2225 36.8961L20.95 37.9039H20.95L19.2225 36.8961ZM25.4908 36.8961L23.7633 37.9039V37.9039L25.4908 36.8961ZM24.6437 35.4438L22.9161 36.4515L24.6437 35.4438ZM22.1301 31.5232C22.1301 32.3451 21.4639 33.0114 20.642 33.0114V29.0114C19.2547 29.0114 18.1301 30.136 18.1301 31.5232H22.1301ZM22.1301 34.5098V31.5232H18.1301V34.5098H22.1301ZM20.95 37.9039L21.4393 37.0651L17.9842 35.0496L17.4949 35.8884L20.95 37.9039ZM19.6646 35.6659C20.8131 35.6659 21.5287 36.9118 20.95 37.9039L17.4949 35.8884C16.5181 37.563 17.726 39.6659 19.6646 39.6659V35.6659ZM20.6413 35.6659H19.6646V39.6659H20.6413V35.6659ZM20.642 35.6659L20.6413 35.6659V39.6659L20.642 39.6659V35.6659ZM23.7134 35.6659H20.642V39.6659H23.7134V35.6659ZM23.7141 35.6659L23.7134 35.6659V39.6659L23.7141 39.6659V35.6659ZM25.0487 35.6659H23.7141V39.6659H25.0487V35.6659ZM23.7633 37.9039C23.1846 36.9118 23.9002 35.6659 25.0487 35.6659V39.6659C26.9873 39.6659 28.1952 37.563 27.2184 35.8884L23.7633 37.9039ZM22.9161 36.4515L23.7633 37.9039L27.2184 35.8884L26.3712 34.4361L22.9161 36.4515ZM22.2253 31.5232V33.8962H26.2253V31.5232H22.2253ZM23.7134 33.0114C22.8915 33.0114 22.2253 32.3451 22.2253 31.5232H26.2253C26.2253 30.136 25.1007 29.0114 23.7134 29.0114V33.0114ZM20.642 33.0114H23.7134V29.0114H20.642V33.0114ZM26.3712 34.4361C26.2756 34.2722 26.2253 34.0859 26.2253 33.8962H22.2253C22.2253 34.7941 22.4637 35.6759 22.9161 36.4515L26.3712 34.4361ZM18.1301 34.5098C18.1301 34.6995 18.0798 34.8858 17.9842 35.0496L21.4393 37.0651C21.8917 36.2895 22.1301 35.4077 22.1301 34.5098H18.1301Z" fill="currentColor" />
    <path fill-rule="evenodd" clip-rule="evenodd" d="M34.5807 31.0114L34.5806 31.0114L34.762 30.9143C37.4809 29.4596 38.5239 26.0885 37.1017 23.3524C36.3071 21.8239 34.9084 20.8113 33.3485 20.4574L33.529 20.0527C34.7896 17.2261 33.5326 13.912 30.7147 12.6323C29.6537 12.1505 28.5212 12.0251 27.4521 12.2059C26.5458 10.3092 24.6095 9 22.3688 9C20.1281 9 18.1918 10.3092 17.2854 12.2059C16.2164 12.0251 15.0839 12.1505 14.0229 12.6323C11.2049 13.912 9.94798 17.2261 11.2086 20.0527L11.3891 20.4574C9.82921 20.8113 8.43044 21.8239 7.63591 23.3524C6.21364 26.0885 7.25669 29.4596 9.97563 30.9143L10.157 31.0114L10.1569 31.0114H34.5807Z" fill="currentColor" fill-opacity="0.25" />
    <path d="M34.5806 31.0114L33.6371 29.2479C32.9862 29.5961 32.5801 30.2745 32.5806 31.0127C32.5811 31.7508 32.9881 32.4287 33.6394 32.7761L34.5806 31.0114ZM34.5807 31.0114V33.0114C35.4984 33.0114 36.2984 32.3868 36.521 31.4965C36.7436 30.6061 36.3316 29.6786 35.5219 29.2467L34.5807 31.0114ZM34.762 30.9143L33.8184 29.1509L33.8184 29.1509L34.762 30.9143ZM37.1017 23.3524L35.3271 24.2749V24.2749L37.1017 23.3524ZM33.3485 20.4574L31.5219 19.6428C31.278 20.1898 31.292 20.8172 31.5601 21.3527C31.8281 21.8882 32.322 22.2754 32.906 22.4079L33.3485 20.4574ZM33.529 20.0527L31.7024 19.2381L33.529 20.0527ZM30.7147 12.6323L29.8877 14.4533L30.7147 12.6323ZM27.4521 12.2059L25.6476 13.0682C26.0326 13.874 26.9052 14.3268 27.7857 14.1779L27.4521 12.2059ZM17.2854 12.2059L16.9519 14.1779C17.8324 14.3268 18.705 13.874 19.09 13.0682L17.2854 12.2059ZM14.0229 12.6323L14.8499 14.4533L14.8499 14.4533L14.0229 12.6323ZM11.2086 20.0527L9.38197 20.8673L9.38198 20.8673L11.2086 20.0527ZM11.3891 20.4574L11.8315 22.4079C12.4156 22.2754 12.9095 21.8882 13.1775 21.3527C13.4456 20.8172 13.4596 20.1898 13.2157 19.6428L11.3891 20.4574ZM7.63591 23.3524L5.86134 22.43L5.86134 22.43L7.63591 23.3524ZM9.97563 30.9143L10.9192 29.1509L9.97563 30.9143ZM10.157 31.0114L11.1002 32.775C11.7507 32.4271 12.1569 31.7493 12.157 31.0115C12.157 30.2738 11.751 29.5959 11.1005 29.2479L10.157 31.0114ZM10.1569 31.0114L9.21368 29.2478C8.40479 29.6804 7.9939 30.6078 8.21689 31.4976C8.43989 32.3874 9.23959 33.0114 10.1569 33.0114V31.0114ZM33.6394 32.7761L33.6395 32.7761L35.5219 29.2467L35.5218 29.2467L33.6394 32.7761ZM33.8184 29.1509L33.6371 29.2479L35.5241 32.7748L35.7055 32.6778L33.8184 29.1509ZM35.3271 24.2749C36.2442 26.0391 35.5716 28.2128 33.8184 29.1509L35.7055 32.6778C39.3902 30.7063 40.8037 26.1378 38.8762 22.43L35.3271 24.2749ZM32.906 22.4079C33.9165 22.6371 34.8151 23.2898 35.3271 24.2749L38.8762 22.43C37.7992 20.358 35.9003 18.9855 33.791 18.507L32.906 22.4079ZM31.7024 19.2381L31.5219 19.6428L35.1751 21.272L35.3556 20.8673L31.7024 19.2381ZM29.8877 14.4533C31.7048 15.2785 32.5153 17.4154 31.7024 19.2381L35.3556 20.8673C37.0639 17.0367 35.3605 12.5455 31.5416 10.8113L29.8877 14.4533ZM27.7857 14.1779C28.4739 14.0615 29.2011 14.1415 29.8877 14.4533L31.5416 10.8113C30.1063 10.1595 28.5685 9.98866 27.1186 10.2339L27.7857 14.1779ZM22.3688 11C23.8107 11 25.061 11.8407 25.6476 13.0682L29.2567 11.3436C28.0306 8.77772 25.4083 7 22.3688 7V11ZM19.09 13.0682C19.6766 11.8407 20.9269 11 22.3688 11V7C19.3292 7 16.707 8.77772 15.4809 11.3436L19.09 13.0682ZM14.8499 14.4533C15.5365 14.1415 16.2637 14.0615 16.9519 14.1779L17.619 10.2339C16.169 9.98866 14.6313 10.1595 13.196 10.8113L14.8499 14.4533ZM13.0351 19.2381C12.2223 17.4154 13.0328 15.2785 14.8499 14.4533L13.196 10.8113C9.37707 12.5455 7.67365 17.0367 9.38197 20.8673L13.0351 19.2381ZM13.2157 19.6428L13.0351 19.2381L9.38198 20.8673L9.56249 21.272L13.2157 19.6428ZM9.41047 24.2749C9.92251 23.2898 10.8211 22.6371 11.8315 22.4079L10.9466 18.507C8.8373 18.9855 6.93837 20.358 5.86134 22.43L9.41047 24.2749ZM10.9192 29.1509C9.16595 28.2128 8.49338 26.0391 9.41047 24.2749L5.86134 22.43C3.93391 26.1378 5.34743 30.7063 9.03211 32.6778L10.9192 29.1509ZM11.1005 29.2479L10.9192 29.1509L9.03211 32.6778L9.21346 32.7748L11.1005 29.2479ZM11.1001 32.775L11.1002 32.775L9.21377 29.2477L9.21368 29.2478L11.1001 32.775ZM10.1569 33.0114H34.5807V29.0114H10.1569V33.0114Z" fill="currentColor" />
  </g>
  <path fill-rule="evenodd" clip-rule="evenodd" d="M59.7248 35.6184C67.0753 35.6184 73.034 29.6597 73.034 22.3092C73.034 14.9587 67.0753 9 59.7248 9C52.3744 9 46.4156 14.9587 46.4156 22.3092C46.4156 25.667 47.6591 28.7343 49.7107 31.0759L47.4394 35.6184L59.7248 35.6184Z" fill="currentColor" fill-opacity="0.25" />
  <path d="M59.7248 35.6184L59.7248 37.6184L59.7248 35.6184ZM49.7107 31.0759L51.4995 31.9704C51.8629 31.2436 51.7505 30.3691 51.215 29.7579L49.7107 31.0759ZM47.4394 35.6184L45.6506 34.724C45.3406 35.3439 45.3737 36.0802 45.7381 36.6698C46.1025 37.2595 46.7463 37.6184 47.4394 37.6184L47.4394 35.6184ZM71.034 22.3092C71.034 28.5551 65.9707 33.6184 59.7248 33.6184L59.7248 37.6184C68.1799 37.6184 75.034 30.7642 75.034 22.3092L71.034 22.3092ZM59.7248 11C65.9707 11 71.034 16.0633 71.034 22.3092L75.034 22.3092C75.034 13.8542 68.1799 7 59.7248 7V11ZM48.4156 22.3092C48.4156 16.0633 53.4789 11 59.7248 11V7C51.2698 7 44.4156 13.8542 44.4156 22.3092H48.4156ZM51.215 29.7579C49.4707 27.7671 48.4156 25.1638 48.4156 22.3092H44.4156C44.4156 26.1701 45.8475 29.7016 48.2064 32.3939L51.215 29.7579ZM49.2283 36.5128L51.4995 31.9704L47.9218 30.1815L45.6506 34.724L49.2283 36.5128ZM59.7248 33.6184L47.4394 33.6184L47.4394 37.6184L59.7248 37.6184L59.7248 33.6184Z" fill="currentColor" />
  <path fill-rule="evenodd" clip-rule="evenodd" d="M10.7741 48.3163C9.43009 49.6603 8.67505 51.4831 8.67505 53.3838C8.67505 55.2844 9.43009 57.1073 10.7741 58.4512L18.0075 65.6847C18.0094 65.6866 18.0113 65.6885 18.0133 65.6904L22.3568 70.034C22.3568 70.034 22.3569 70.034 22.3569 70.034L26.7004 65.6905C26.7087 65.6822 26.7169 65.674 26.7251 65.6657L33.9396 58.4512C35.2836 57.1072 36.0386 55.2844 36.0386 53.3837C36.0386 51.483 35.2836 49.6602 33.9396 48.3162C32.5956 46.9723 30.7728 46.2172 28.8721 46.2172C26.9715 46.2172 25.1486 46.9723 23.8047 48.3162L22.7105 49.4104C22.5152 49.6057 22.1985 49.6057 22.0031 49.4104L20.909 48.3163C19.565 46.9723 17.7422 46.2173 15.8415 46.2173C13.9409 46.2173 12.118 46.9723 10.7741 48.3163Z" fill="currentColor" fill-opacity="0.25" />
  <path d="M8.67505 53.3838L10.675 53.3838V53.3838H8.67505ZM10.7741 58.4512L12.1883 57.037L10.7741 58.4512ZM18.0075 65.6847L19.4231 64.2718L19.4217 64.2704L18.0075 65.6847ZM18.0133 65.6904L16.599 67.1046L18.0133 65.6904ZM26.7251 65.6657L25.3109 64.2515L25.3049 64.2575L26.7251 65.6657ZM33.9396 58.4512L32.5254 57.037L33.9396 58.4512ZM36.0386 53.3837H34.0386V53.3837L36.0386 53.3837ZM28.8721 46.2172V44.2172V46.2172ZM23.8047 48.3162L22.3904 46.902L22.3904 46.902L23.8047 48.3162ZM20.909 48.3163L22.3232 46.9021L20.909 48.3163ZM15.8415 46.2173L15.8415 48.2173H15.8415V46.2173ZM10.675 53.3838C10.675 52.0135 11.2194 50.6994 12.1883 49.7305L9.35985 46.9021C7.6408 48.6211 6.67505 50.9527 6.67505 53.3838H10.675ZM12.1883 57.037C11.2194 56.0681 10.675 54.754 10.675 53.3838L6.67505 53.3838C6.67505 55.8149 7.6408 58.1464 9.35985 59.8654L12.1883 57.037ZM19.4217 64.2704L12.1883 57.037L9.35985 59.8654L16.5933 67.0989L19.4217 64.2704ZM16.5919 67.0975C16.5943 67.0999 16.5967 67.1023 16.599 67.1046L19.4275 64.2762C19.426 64.2748 19.4245 64.2733 19.4231 64.2718L16.5919 67.0975ZM16.599 67.1046L20.9426 71.4482L23.771 68.6198L19.4275 64.2762L16.599 67.1046ZM25.2862 64.2763L20.9427 68.6198L23.7711 71.4482L28.1146 67.1047L25.2862 64.2763ZM25.3049 64.2575C25.2988 64.2636 25.2926 64.2699 25.2862 64.2763L28.1146 67.1047C28.1247 67.0946 28.135 67.0843 28.1453 67.0739L25.3049 64.2575ZM28.1393 67.0799L35.3538 59.8654L32.5254 57.037L25.3109 64.2515L28.1393 67.0799ZM35.3538 59.8654C37.0729 58.1463 38.0386 55.8148 38.0386 53.3837L34.0386 53.3837C34.0386 54.7539 33.4943 56.0681 32.5254 57.037L35.3538 59.8654ZM38.0386 53.3837C38.0386 50.9526 37.0729 48.6211 35.3538 46.902L32.5254 49.7305C33.4943 50.6994 34.0386 52.0135 34.0386 53.3837H38.0386ZM35.3538 46.902C33.6348 45.183 31.3032 44.2172 28.8721 44.2172L28.8721 48.2172C30.2424 48.2172 31.5565 48.7615 32.5254 49.7305L35.3538 46.902ZM28.8721 44.2172C26.441 44.2172 24.1095 45.183 22.3904 46.902L25.2189 49.7305C26.1878 48.7615 27.5019 48.2172 28.8721 48.2172L28.8721 44.2172ZM22.3904 46.902L21.2963 47.9961L24.1247 50.8246L25.2189 49.7305L22.3904 46.902ZM19.4948 49.7305L20.5889 50.8246L23.4173 47.9962L22.3232 46.9021L19.4948 49.7305ZM15.8415 48.2173C17.2118 48.2173 18.5259 48.7616 19.4948 49.7305L22.3232 46.9021C20.6042 45.183 18.2726 44.2173 15.8415 44.2173L15.8415 48.2173ZM12.1883 49.7305C13.1572 48.7616 14.4713 48.2173 15.8415 48.2173L15.8415 44.2173C13.4104 44.2173 11.0789 45.183 9.35985 46.9021L12.1883 49.7305ZM21.2963 47.9961C21.8818 47.4107 22.8314 47.4102 23.4173 47.9962L20.5889 50.8246C21.5655 51.8012 23.1486 51.8007 24.1247 50.8246L21.2963 47.9961ZM21.0116 71.514C21.7999 72.2305 23.0146 72.2047 23.7711 71.4482L20.9427 68.6198C21.6991 67.8633 22.9138 67.8375 23.702 68.554L21.0116 71.514Z" fill="currentColor" />
  <path fill-rule="evenodd" clip-rule="evenodd" d="M63.1 44.796C60.7824 43.8361 58.1784 43.8361 55.8608 44.796C53.5432 45.756 51.7018 47.5974 50.7418 49.915C49.7819 52.2326 49.7819 54.8366 50.7418 57.1542C51.3858 58.7088 52.4263 60.0491 53.7411 61.0529C54.6799 61.7696 55.3857 62.8121 55.3857 63.9932V66.8443C55.3857 68.5405 56.7608 69.9156 58.4571 69.9156H60.5047C62.2009 69.9156 63.576 68.5405 63.576 66.8443V63.9924C63.576 62.8115 64.2818 61.769 65.2203 61.0524C66.5348 60.0487 67.5751 58.7086 68.2189 57.1542C69.1789 54.8366 69.1789 52.2326 68.2189 49.915C67.2589 47.5974 65.4176 45.756 63.1 44.796Z" fill="currentColor" fill-opacity="0.25" />
  <path d="M55.8608 44.796L56.6261 46.6438L55.8608 44.796ZM63.1 44.796L63.8654 42.9483L63.1 44.796ZM50.7418 49.915L52.5896 50.6803L50.7418 49.915ZM50.7418 57.1542L52.5896 56.3888L50.7418 57.1542ZM68.2189 57.1542L66.3712 56.3888L66.3712 56.3888L68.2189 57.1542ZM68.2189 49.915L66.3712 50.6803L66.3712 50.6803L68.2189 49.915ZM65.2203 61.0524L64.0066 59.4628L65.2203 61.0524ZM53.7411 61.0529L54.9547 59.4632L53.7411 61.0529ZM56.6261 46.6438C58.4537 45.8868 60.5071 45.8868 62.3346 46.6438L63.8654 42.9483C61.0577 41.7853 57.9031 41.7853 55.0954 42.9483L56.6261 46.6438ZM52.5896 50.6803C53.3466 48.8528 54.7986 47.4008 56.6261 46.6438L55.0954 42.9483C52.2877 44.1113 50.0571 46.3419 48.8941 49.1496L52.5896 50.6803ZM52.5896 56.3888C51.8326 54.5613 51.8326 52.5079 52.5896 50.6803L48.8941 49.1496C47.7311 51.9573 47.7311 55.1119 48.8941 57.9196L52.5896 56.3888ZM54.9547 59.4632C53.9178 58.6716 53.0974 57.6147 52.5896 56.3888L48.8941 57.9196C49.6742 59.803 50.9348 61.4267 52.5275 62.6426L54.9547 59.4632ZM57.3857 66.8443V63.9932H53.3857V66.8443H57.3857ZM60.5047 67.9156H58.4571L58.4571 71.9156H60.5047L60.5047 67.9156ZM61.576 63.9924V66.8443H65.576V63.9924H61.576ZM66.3712 56.3888C65.8635 57.6145 65.0433 58.6712 64.0066 59.4628L66.4341 62.642C68.0264 61.4261 69.2867 59.8027 70.0667 57.9196L66.3712 56.3888ZM66.3712 50.6803C67.1282 52.5079 67.1282 54.5613 66.3712 56.3888L70.0667 57.9196C71.2297 55.1119 71.2297 51.9573 70.0667 49.1496L66.3712 50.6803ZM62.3346 46.6438C64.1622 47.4008 65.6142 48.8528 66.3712 50.6803L70.0667 49.1496C68.9037 46.3419 66.673 44.1113 63.8654 42.9483L62.3346 46.6438ZM65.576 63.9924C65.576 63.6379 65.8038 63.1233 66.4341 62.642L64.0066 59.4628C62.7597 60.4148 61.576 61.9852 61.576 63.9924H65.576ZM60.5047 71.9156C63.3055 71.9156 65.576 69.6451 65.576 66.8443H61.576C61.576 67.436 61.0964 67.9156 60.5047 67.9156L60.5047 71.9156ZM53.3857 66.8443C53.3857 69.6451 55.6563 71.9156 58.4571 71.9156L58.4571 67.9156C57.8654 67.9156 57.3857 67.436 57.3857 66.8443H53.3857ZM52.5275 62.6426C53.158 63.1239 53.3857 63.6386 53.3857 63.9932H57.3857C57.3857 61.9857 56.2018 60.4152 54.9547 59.4632L52.5275 62.6426Z" fill="currentColor" />
  <path d="M63.5761 67.0521C64.6806 67.0521 65.5761 66.1567 65.5761 65.0521C65.5761 63.9475 64.6806 63.0521 63.5761 63.0521V67.0521ZM55.3858 63.0521C54.2812 63.0521 53.3858 63.9475 53.3858 65.0521C53.3858 66.1567 54.2812 67.0521 55.3858 67.0521V63.0521ZM63.5761 63.0521H55.3858V67.0521H63.5761V63.0521Z" fill="currentColor" />
</svg>