<svg viewBox="0 0 80 80" fill="none">
  <g opacity="0.9">
    <rect x="18" y="18" width="44" height="44" rx="6" fill="currentColor" fill-opacity="0.15" stroke="currentColor" stroke-width="4" stroke-linecap="square" stroke-linejoin="round" />
    <path d="M24 62V60V62ZM43 62V64V62ZM56 62L56 60L56 62ZM18.2628 55.1678L16.7885 53.8164L18.2628 55.1678ZM34.7372 38.8042L36.2115 37.4527L34.7372 38.8042ZM50.5212 54.4789L49.1069 53.0647L50.5212 54.4789ZM49.0769 54.4475L47.6026 55.7989L49.0769 54.4475ZM55.7071 50.7071L57.1213 49.2929L55.7071 50.7071ZM54.2929 50.7071L55.7071 52.1213L54.2929 50.7071ZM61.8294 57.4264L59.8863 56.9526L61.8294 57.4264ZM61.5696 56.5696L62.9838 55.1554L61.5696 56.5696ZM24 64L43 64V60L24 60V64ZM43 64L56 64L56 60L43 60V64ZM59.8863 56.9526C59.4596 58.7028 57.8788 60 56 60L56 64C59.7656 64 62.919 61.4003 63.7725 57.9002L59.8863 56.9526ZM62.9838 55.1554L57.1213 49.2929L54.2929 52.1213L60.1554 57.9838L62.9838 55.1554ZM52.8787 49.2929L49.1069 53.0647L51.9354 55.8931L55.7071 52.1213L52.8787 49.2929ZM50.5512 53.096L36.2115 37.4527L33.2629 40.1556L47.6026 55.7989L50.5512 53.096ZM31.7886 37.4527L16.7885 53.8164L19.7372 56.5193L34.7372 40.1556L31.7886 37.4527ZM20 56V55.8436H16V56H20ZM24 60C21.7909 60 20 58.2091 20 56H16C16 60.4183 19.5817 64 24 64V60ZM16.7885 53.8164C16.2814 54.3697 16 55.093 16 55.8436H20C20 56.0938 19.9062 56.3349 19.7372 56.5193L16.7885 53.8164ZM36.2115 37.4527C35.0225 36.1556 32.9776 36.1556 31.7886 37.4527L34.7372 40.1556C34.3408 40.588 33.6592 40.588 33.2629 40.1556L36.2115 37.4527ZM49.1069 53.0647C49.5095 52.6621 50.1665 52.6764 50.5512 53.096L47.6026 55.7989C48.7567 57.058 50.7276 57.1008 51.9354 55.8931L49.1069 53.0647ZM57.1213 49.2929C55.9498 48.1213 54.0503 48.1213 52.8787 49.2929L55.7071 52.1213C55.3166 52.5118 54.6834 52.5118 54.2929 52.1213L57.1213 49.2929ZM63.7725 57.9002C64.0353 56.8225 63.6346 55.8062 62.9838 55.1554L60.1554 57.9838C59.9558 57.7842 59.7747 57.4104 59.8863 56.9526L63.7725 57.9002Z" fill="currentColor" />
    <path d="M45.4019 25.5C47.0096 24.5718 48.9904 24.5718 50.5981 25.5V25.5C52.2058 26.4282 53.1962 28.1436 53.1962 30V30C53.1962 31.8564 52.2058 33.5718 50.5981 34.5V34.5C48.9904 35.4282 47.0096 35.4282 45.4019 34.5V34.5C43.7942 33.5718 42.8038 31.8564 42.8038 30V30C42.8038 28.1436 43.7942 26.4282 45.4019 25.5V25.5Z" stroke="currentColor" stroke-width="4" stroke-linecap="square" stroke-linejoin="round" />
  </g>
</svg>