<svg viewBox="0 0 80 80" fill="none">
  <path fill-rule="evenodd" clip-rule="evenodd" d="M6 64H38L30.6311 16L13.3689 16L6 64Z" fill="currentColor" fill-opacity="0.15" />
  <path d="M38 64V66C38.5834 66 39.1378 65.7452 39.5177 65.3025C39.8977 64.8598 40.0654 64.2732 39.9768 63.6965L38 64ZM6 64L4.02316 63.6965C3.93463 64.2732 4.10232 64.8598 4.48228 65.3025C4.86223 65.7452 5.41657 66 6 66V64ZM30.6311 16L32.608 15.6965C32.4581 14.7206 31.6185 14 30.6311 14V16ZM13.3689 16V14C12.3815 14 11.5419 14.7206 11.392 15.6965L13.3689 16ZM38 62L6 62L6 66H38V62ZM28.6543 16.3035L36.0232 64.3035L39.9768 63.6965L32.608 15.6965L28.6543 16.3035ZM13.3689 18L30.6311 18V14L13.3689 14V18ZM7.97684 64.3035L15.3457 16.3035L11.392 15.6965L4.02316 63.6965L7.97684 64.3035Z" fill="currentColor" />
  <path fill-rule="evenodd" clip-rule="evenodd" d="M37.998 64H53.998L53.998 28L33.998 36V37.9445L37.998 64Z" fill="currentColor" fill-opacity="0.15" />
  <path d="M37.998 64L36.0212 64.3035C36.171 65.2794 37.0107 66 37.998 66V64ZM53.998 64V66C55.1026 66 55.998 65.1046 55.998 64H53.998ZM53.998 28H55.998C55.998 27.3364 55.6688 26.7159 55.1193 26.3439C54.5698 25.9718 53.8714 25.8966 53.2553 26.143L53.998 28ZM33.998 36L33.2553 34.143C32.4959 34.4468 31.998 35.1822 31.998 36H33.998ZM33.998 37.9445H31.998C31.998 38.0461 32.0058 38.1475 32.0212 38.2479L33.998 37.9445ZM37.998 66H53.998V62H37.998V66ZM55.998 64L55.998 28H51.998L51.998 64H55.998ZM53.2553 26.143L33.2553 34.143L34.7408 37.857L54.7408 29.857L53.2553 26.143ZM31.998 36V37.9445H35.998V36H31.998ZM39.9749 63.6965L35.9749 37.641L32.0212 38.2479L36.0212 64.3035L39.9749 63.6965Z" fill="currentColor" />
  <path fill-rule="evenodd" clip-rule="evenodd" d="M74 64V28L54 36L54 64H74Z" fill="currentColor" fill-opacity="0.15" />
  <path d="M74 28H76C76 27.3364 75.6708 26.7159 75.1213 26.3439C74.5717 25.9718 73.8734 25.8966 73.2572 26.143L74 28ZM74 64V66C75.1046 66 76 65.1046 76 64H74ZM54 36L53.2572 34.143C52.4979 34.4468 52 35.1822 52 36H54ZM54 64H52C52 65.1046 52.8954 66 54 66V64ZM72 28V64H76V28H72ZM73.2572 26.143L53.2572 34.143L54.7428 37.857L74.7428 29.857L73.2572 26.143ZM56 64L56 36H52L52 64H56ZM74 62H54V66H74V62Z" fill="currentColor" />
  <path d="M13 26L31 26" stroke="currentColor" stroke-linecap="round" stroke-linejoin="round" />
  <path d="M40 41H48" stroke="currentColor" stroke-linecap="round" stroke-linejoin="round" />
  <path d="M60 41H68" stroke="currentColor" stroke-linecap="round" stroke-linejoin="round" />
</svg>