<svg viewBox="0 0 80 80" fill="none">
  <path fill-rule="evenodd" clip-rule="evenodd" d="M52.066 50.3646C51.3555 53.9223 49.111 56.9852 45.9326 58.7345C42.2386 60.7676 37.7609 60.7676 34.0669 58.7345C30.8885 56.9852 28.6441 53.9223 27.9335 50.3646L27.517 48.279C27.0035 45.7079 27.2285 43.0691 28.1306 40.6559C31.7077 42.8044 35.8057 43.9428 39.9872 43.9428C44.1766 43.9428 48.2823 42.8 51.8643 40.6436C52.7703 43.0601 52.9969 45.7035 52.4825 48.279L52.066 50.3646Z" fill="currentColor" fill-opacity="0.25" />
  <path d="M45.9326 58.7345L44.9683 56.9824L45.9326 58.7345ZM52.066 50.3646L50.1047 49.9729L52.066 50.3646ZM34.0669 58.7345L35.0312 56.9824H35.0312L34.0669 58.7345ZM27.9335 50.3646L29.8948 49.9729L27.9335 50.3646ZM27.517 48.279L25.5557 48.6707L27.517 48.279ZM28.1306 40.6559L29.1604 38.9414C28.651 38.6355 28.032 38.5719 27.471 38.7678C26.9101 38.9638 26.4653 39.399 26.2573 39.9556L28.1306 40.6559ZM51.8643 40.6436L53.737 39.9415C53.5284 39.385 53.0831 38.9502 52.522 38.7548C51.9608 38.5594 51.3418 38.6236 50.8327 38.9301L51.8643 40.6436ZM52.4825 48.279L50.5213 47.8873V47.8873L52.4825 48.279ZM46.8969 60.4867C50.592 58.453 53.2012 54.8923 54.0273 50.7563L50.1047 49.9729C49.5097 52.9524 47.6301 55.5174 44.9683 56.9824L46.8969 60.4867ZM33.1026 60.4867C37.397 62.8502 42.6025 62.8502 46.8969 60.4867L44.9683 56.9824C41.8747 58.685 38.1248 58.685 35.0312 56.9824L33.1026 60.4867ZM25.9723 50.7563C26.7983 54.8923 29.4075 58.453 33.1026 60.4867L35.0312 56.9824C32.3694 55.5174 30.4898 52.9524 29.8948 49.9729L25.9723 50.7563ZM25.5557 48.6707L25.9723 50.7563L29.8948 49.9729L29.4783 47.8873L25.5557 48.6707ZM26.2573 39.9556C25.2259 42.7143 24.9687 45.7312 25.5557 48.6707L29.4783 47.8873C29.0384 45.6846 29.231 43.4239 30.004 41.3563L26.2573 39.9556ZM39.9872 41.9428C36.1689 41.9428 32.4268 40.9033 29.1604 38.9414L27.1009 42.3705C30.9886 44.7055 35.4425 45.9428 39.9872 45.9428V41.9428ZM50.8327 38.9301C47.5619 40.8993 43.8128 41.9428 39.9872 41.9428V45.9428C44.5405 45.9428 49.0028 44.7008 52.8958 42.357L50.8327 38.9301ZM54.4438 48.6707C55.0319 45.7261 54.7727 42.704 53.737 39.9415L49.9915 41.3457C50.7678 43.4162 50.9619 45.6809 50.5213 47.8873L54.4438 48.6707ZM54.0273 50.7563L54.4438 48.6707L50.5213 47.8873L50.1047 49.9729L54.0273 50.7563Z" fill="currentColor" />
  <path fill-rule="evenodd" clip-rule="evenodd" d="M55.5873 23.2313L52.9789 30.4664H27.0215L24.4131 23.2313C29.3509 21.2697 34.6381 20.2485 40.0001 20.2485C45.3622 20.2485 50.6494 21.2697 55.5873 23.2313Z" fill="currentColor" fill-opacity="0.25" />
  <path d="M55.5873 23.2313L57.4687 23.9097C57.8349 22.8941 57.3289 21.7712 56.3257 21.3727L55.5873 23.2313ZM52.9789 30.4664V32.4664C53.8219 32.4664 54.5744 31.9377 54.8604 31.1447L52.9789 30.4664ZM27.0215 30.4664L25.14 31.1447C25.4259 31.9377 26.1784 32.4664 27.0215 32.4664V30.4664ZM24.4131 23.2313L23.6747 21.3726C22.6714 21.7712 22.1655 22.894 22.5316 23.9096L24.4131 23.2313ZM53.7058 22.553L51.0974 29.788L54.8604 31.1447L57.4687 23.9097L53.7058 22.553ZM52.9789 28.4664H27.0215V32.4664H52.9789V28.4664ZM28.9029 29.788L26.2945 22.553L22.5316 23.9096L25.14 31.1447L28.9029 29.788ZM40.0001 18.2485C34.3841 18.2485 28.8464 19.318 23.6747 21.3726L25.1515 25.09C29.8555 23.2213 34.8921 22.2485 40.0001 22.2485V18.2485ZM56.3257 21.3727C51.1539 19.3181 45.6162 18.2485 40.0001 18.2485V22.2485C45.1081 22.2485 50.1449 23.2213 54.8489 25.09L56.3257 21.3727Z" fill="currentColor" />
  <path fill-rule="evenodd" clip-rule="evenodd" d="M54.1868 39.0442C53.6249 39.4844 53.0412 39.8994 52.4373 40.2875C48.7235 42.6741 44.402 43.9431 39.9875 43.9431C35.573 43.9431 31.2514 42.6741 27.5377 40.2875C26.9338 39.8994 26.3501 39.4843 25.7881 39.0442L27.0087 37.4663H52.9662L54.1868 39.0442Z" fill="currentColor" fill-opacity="0.25" />
  <path d="M54.1868 39.0442L55.4201 40.6187C56.286 39.9405 56.4417 38.6904 55.7687 37.8204L54.1868 39.0442ZM52.4373 40.2875L53.5186 41.97L52.4373 40.2875ZM27.5377 40.2875L28.619 38.605L28.619 38.605L27.5377 40.2875ZM25.7881 39.0442L24.2062 37.8204C23.5332 38.6903 23.6889 39.9405 24.5549 40.6187L25.7881 39.0442ZM27.0087 37.4663V35.4663C26.3897 35.4663 25.8056 35.7529 25.4268 36.2425L27.0087 37.4663ZM52.9662 37.4663L54.5481 36.2425C54.1693 35.7529 53.5852 35.4663 52.9662 35.4663V37.4663ZM52.9536 37.4697C52.4405 37.8716 51.9075 38.2506 51.356 38.605L53.5186 41.97C54.1749 41.5482 54.8093 41.0971 55.4201 40.6187L52.9536 37.4697ZM51.356 38.605C47.9648 40.7844 44.0186 41.9431 39.9875 41.9431V45.9431C44.7854 45.9431 49.4823 44.5639 53.5186 41.97L51.356 38.605ZM39.9875 41.9431C35.9564 41.9431 32.0102 40.7844 28.619 38.605L26.4564 41.97C30.4927 44.5639 35.1895 45.9431 39.9875 45.9431V41.9431ZM28.619 38.605C28.0675 38.2505 27.5345 37.8716 27.0213 37.4696L24.5549 40.6187C25.1657 41.0971 25.8001 41.5482 26.4564 41.97L28.619 38.605ZM25.4268 36.2425L24.2062 37.8204L27.37 40.2679L28.5906 38.6901L25.4268 36.2425ZM52.9662 35.4663H27.0087V39.4663H52.9662V35.4663ZM55.7687 37.8204L54.5481 36.2425L51.3843 38.6901L52.605 40.268L55.7687 37.8204Z" fill="currentColor" />
  <path d="M27 30.4663H53V37.4663H27V30.4663Z" fill="currentColor" fill-opacity="0.25" stroke="currentColor" stroke-width="4" stroke-linecap="round" stroke-linejoin="round" />
</svg>