<svg viewBox="0 0 80 80" fill="none">
  <path d="M25 29.5C25 30.6046 25.8954 31.5 27 31.5C28.1046 31.5 29 30.6046 29 29.5H25ZM56 14.5C56 13.3954 55.1046 12.5 54 12.5C52.8954 12.5 52 13.3954 52 14.5L56 14.5ZM29 29.5L29 26H25L25 29.5H29ZM31 24L50 24V20L31 20V24ZM56 18V14.5L52 14.5V18H56ZM50 24C53.3137 24 56 21.3137 56 18H52C52 19.1046 51.1046 20 50 20V24ZM29 26C29 24.8954 29.8954 24 31 24V20C27.6863 20 25 22.6863 25 26H29Z" fill="currentColor" />
  <rect x="12" y="29.5" width="56" height="36" rx="4" fill="currentColor" fill-opacity="0.15" stroke="currentColor" stroke-linecap="square" stroke-linejoin="round" />
  <path d="M19 36.5V34.5C17.8954 34.5 17 35.3954 17 36.5H19ZM21 36.5H23C23 35.3954 22.1046 34.5 21 34.5V36.5ZM19 38.5H17C17 39.6046 17.8954 40.5 19 40.5V38.5ZM21 38.5V40.5C22.1046 40.5 23 39.6046 23 38.5H21ZM29 36.5V34.5C27.8954 34.5 27 35.3954 27 36.5H29ZM31 36.5H33C33 35.3954 32.1046 34.5 31 34.5V36.5ZM29 38.5H27C27 39.6046 27.8954 40.5 29 40.5V38.5ZM31 38.5V40.5C32.1046 40.5 33 39.6046 33 38.5H31ZM26 46.5H28C28 45.3954 27.1046 44.5 26 44.5V46.5ZM24 46.5V44.5C22.8954 44.5 22 45.3954 22 46.5H24ZM26 48.5L26 50.5C27.1046 50.5 28 49.6046 28 48.5H26ZM24 48.5H22C22 49.6046 22.8954 50.5 24 50.5L24 48.5ZM19 56.5V54.5C17.8954 54.5 17 55.3954 17 56.5H19ZM21 56.5H23C23 55.3954 22.1046 54.5 21 54.5V56.5ZM19 58.5H17C17 59.6046 17.8954 60.5 19 60.5V58.5ZM21 58.5V60.5C22.1046 60.5 23 59.6046 23 58.5H21ZM41 36.5L43 36.5C43 35.3954 42.1046 34.5 41 34.5V36.5ZM39 36.5V34.5C37.8954 34.5 37 35.3954 37 36.5H39ZM41 38.5V40.5C42.1046 40.5 43 39.6046 43 38.5L41 38.5ZM39 38.5H37C37 39.6046 37.8954 40.5 39 40.5V38.5ZM34 46.5V44.5C32.8954 44.5 32 45.3954 32 46.5H34ZM36 46.5H38C38 45.3954 37.1046 44.5 36 44.5V46.5ZM34 48.5H32C32 49.6046 32.8954 50.5 34 50.5V48.5ZM36 48.5V50.5C37.1046 50.5 38 49.6046 38 48.5H36ZM51 56.5L53 56.5C53 55.3954 52.1046 54.5 51 54.5V56.5ZM29 56.5V54.5C27.8954 54.5 27 55.3954 27 56.5H29ZM51 58.5V60.5C52.1046 60.5 53 59.6046 53 58.5L51 58.5ZM29 58.5H27C27 59.6046 27.8954 60.5 29 60.5V58.5ZM49 36.5V34.5C47.8954 34.5 47 35.3954 47 36.5H49ZM51 36.5H53C53 35.3954 52.1046 34.5 51 34.5V36.5ZM49 38.5H47C47 39.6046 47.8954 40.5 49 40.5V38.5ZM51 38.5V40.5C52.1046 40.5 53 39.6046 53 38.5H51ZM46 46.5L48 46.5C48 45.3954 47.1046 44.5 46 44.5V46.5ZM44 46.5V44.5C42.8954 44.5 42 45.3954 42 46.5H44ZM46 48.5V50.5C47.1046 50.5 48 49.6046 48 48.5L46 48.5ZM44 48.5H42C42 49.6046 42.8954 50.5 44 50.5V48.5ZM59 56.5V54.5C57.8954 54.5 57 55.3954 57 56.5H59ZM61 56.5H63C63 55.3954 62.1046 54.5 61 54.5V56.5ZM59 58.5H57C57 59.6046 57.8954 60.5 59 60.5L59 58.5ZM61 58.5L61 60.5C62.1046 60.5 63 59.6046 63 58.5H61ZM61 36.5H63C63 35.3954 62.1046 34.5 61 34.5V36.5ZM59 36.5V34.5C57.8954 34.5 57 35.3954 57 36.5H59ZM61 38.5V40.5C62.1046 40.5 63 39.6046 63 38.5H61ZM59 38.5H57C57 39.6046 57.8954 40.5 59 40.5V38.5ZM54 46.5V44.5C52.8954 44.5 52 45.3954 52 46.5H54ZM56 46.5H58C58 45.3954 57.1046 44.5 56 44.5V46.5ZM54 48.5H52C52 49.6046 52.8954 50.5 54 50.5V48.5ZM56 48.5V50.5C57.1046 50.5 58 49.6046 58 48.5H56ZM19 38.5H21V34.5H19V38.5ZM21 38.5V36.5H17V38.5H21ZM21 36.5H19V40.5H21V36.5ZM19 36.5V38.5H23V36.5H19ZM29 38.5H31V34.5H29V38.5ZM31 38.5V36.5H27V38.5H31ZM31 36.5H29V40.5H31V36.5ZM29 36.5V38.5H33V36.5H29ZM26 44.5H24V48.5H26V44.5ZM28 48.5V46.5H24V48.5H28ZM24 50.5H26L26 46.5H24L24 50.5ZM22 46.5V48.5H26V46.5H22ZM19 58.5H21V54.5H19V58.5ZM21 58.5V56.5H17V58.5H21ZM21 56.5H19V60.5H21V56.5ZM19 56.5V58.5H23V56.5H19ZM41 34.5H39V38.5H41V34.5ZM43 38.5V36.5L39 36.5V38.5L43 38.5ZM39 40.5H41V36.5H39V40.5ZM37 36.5V38.5H41V36.5H37ZM34 48.5H36V44.5H34V48.5ZM36 48.5V46.5H32V48.5H36ZM36 46.5H34V50.5H36V46.5ZM34 46.5V48.5H38V46.5H34ZM51 54.5H29V58.5H51V54.5ZM53 58.5V56.5L49 56.5V58.5L53 58.5ZM29 60.5H51V56.5H29V60.5ZM27 56.5V58.5H31V56.5H27ZM49 38.5H51V34.5H49V38.5ZM51 38.5V36.5H47V38.5H51ZM51 36.5H49V40.5H51V36.5ZM49 36.5V38.5H53V36.5H49ZM46 44.5H44V48.5H46V44.5ZM48 48.5V46.5L44 46.5V48.5L48 48.5ZM44 50.5H46V46.5H44V50.5ZM42 46.5V48.5H46V46.5H42ZM59 58.5H61V54.5H59V58.5ZM61 58.5V56.5H57V58.5H61ZM61 56.5H59L59 60.5H61L61 56.5ZM59 56.5V58.5H63V56.5H59ZM61 34.5H59V38.5H61V34.5ZM63 38.5V36.5H59V38.5H63ZM59 40.5H61V36.5H59V40.5ZM57 36.5V38.5H61V36.5H57ZM54 48.5H56V44.5H54V48.5ZM56 48.5V46.5H52V48.5H56ZM56 46.5H54V50.5H56V46.5ZM54 46.5V48.5H58V46.5H54Z" fill="currentColor" />
</svg>