<svg viewBox="0 0 80 80" fill="none">
  <path fill-rule="evenodd" clip-rule="evenodd" d="M21.3964 12.9816L10.9091 21.3475L8 69.5001H72L69.0909 21.3475L58.6036 12.9816C46.2669 14.6447 33.7331 14.6447 21.3964 12.9816Z" fill="currentColor" fill-opacity="0.15" />
  <path d="M21.3964 12.9816L21.6636 10.9995C21.1228 10.9266 20.5757 11.0778 20.1491 11.4181L21.3964 12.9816ZM10.9091 21.3475L9.66187 19.784C9.21913 20.1372 8.94688 20.6616 8.91273 21.2269L10.9091 21.3475ZM8 69.5001L6.00364 69.3795C5.97039 69.9298 6.16583 70.4695 6.54377 70.871C6.92171 71.2724 7.44863 71.5001 8 71.5001V69.5001ZM72 69.5001V71.5001C72.5514 71.5001 73.0783 71.2724 73.4562 70.871C73.8342 70.4695 74.0296 69.9298 73.9964 69.3795L72 69.5001ZM69.0909 21.3475L71.0873 21.2269C71.0531 20.6616 70.7809 20.1372 70.3381 19.784L69.0909 21.3475ZM58.6036 12.9816L59.8508 11.4181C59.4242 11.0778 58.8772 10.9266 58.3364 10.9995L58.6036 12.9816ZM20.1491 11.4181L9.66187 19.784L12.1563 22.911L22.6436 14.5451L20.1491 11.4181ZM8.91273 21.2269L6.00364 69.3795L9.99636 69.6207L12.9055 21.4681L8.91273 21.2269ZM8 71.5001H72V67.5001H8V71.5001ZM73.9964 69.3795L71.0873 21.2269L67.0946 21.4681L70.0036 69.6207L73.9964 69.3795ZM70.3381 19.784L59.8508 11.4181L57.3564 14.545L67.8437 22.911L70.3381 19.784ZM58.3364 10.9995C46.177 12.6387 33.823 12.6388 21.6636 10.9995L21.1292 14.9637C33.6432 16.6507 46.3567 16.6507 58.8708 14.9636L58.3364 10.9995Z" fill="currentColor" />
  <path fill-rule="evenodd" clip-rule="evenodd" d="M23.8675 13.2922C22.7028 13.1564 21.6579 14.0296 21.6047 15.201L20.2767 44.415C20.2344 45.3462 20.8404 46.186 21.7436 46.4162C33.7209 49.4695 46.2794 49.4695 58.2567 46.4162C59.1599 46.186 59.7659 45.3462 59.7236 44.415L58.3957 15.201C58.3424 14.0295 57.2975 13.1563 56.1328 13.2921C45.4204 14.5412 34.5799 14.5412 23.8675 13.2922Z" fill="currentColor" fill-opacity="0.15" />
  <path d="M58.2567 46.4162L57.7627 44.4782L58.2567 46.4162ZM59.7236 44.415L57.7256 44.5058L59.7236 44.415ZM21.7436 46.4162L21.2496 48.3543L21.7436 46.4162ZM22.2747 44.5059L23.6026 15.2918L19.6067 15.1102L18.2788 44.3242L22.2747 44.5059ZM57.7627 44.4782C46.1095 47.4488 33.8908 47.4488 22.2376 44.4782L21.2496 48.3543C33.551 51.4902 46.4493 51.4902 58.7508 48.3542L57.7627 44.4782ZM56.3977 15.2918L57.7256 44.5058L61.7215 44.3242L60.3936 15.1101L56.3977 15.2918ZM55.9011 11.3056C45.3427 12.5367 34.6576 12.5367 24.0992 11.3056L23.6359 15.2787C34.5021 16.5457 45.4982 16.5457 56.3644 15.2787L55.9011 11.3056ZM60.3936 15.1101C60.2867 12.7588 58.1973 11.0379 55.9011 11.3056L56.3644 15.2787C56.3701 15.278 56.3735 15.2782 56.3751 15.2783C56.3769 15.2785 56.3786 15.2788 56.3802 15.2794C56.384 15.2805 56.389 15.283 56.3937 15.2869C56.3983 15.2908 56.3993 15.2933 56.3987 15.2921C56.3983 15.2913 56.3979 15.2902 56.3976 15.289C56.3972 15.2878 56.3976 15.2884 56.3977 15.2918L60.3936 15.1101ZM58.7508 48.3542C60.5979 47.8834 61.8057 46.1765 61.7215 44.3242L57.7256 44.5058C57.7257 44.5079 57.7255 44.5045 57.729 44.4997C57.7309 44.4971 57.7347 44.4928 57.7415 44.4882C57.7489 44.483 57.7569 44.4797 57.7627 44.4782L58.7508 48.3542ZM23.6026 15.2918C23.6027 15.2884 23.6031 15.2878 23.6028 15.2891C23.6025 15.2902 23.602 15.2913 23.6016 15.2921C23.601 15.2934 23.602 15.2909 23.6066 15.287C23.6113 15.283 23.6163 15.2806 23.6201 15.2794C23.6218 15.2789 23.6234 15.2786 23.6252 15.2784C23.6269 15.2782 23.6302 15.278 23.6359 15.2787L24.0992 11.3056C21.803 11.0379 19.7136 12.7589 19.6067 15.1102L23.6026 15.2918ZM18.2788 44.3242C18.1946 46.1766 19.4024 47.8834 21.2496 48.3543L22.2376 44.4782C22.2434 44.4797 22.2514 44.483 22.2588 44.4882C22.2656 44.4928 22.2694 44.4971 22.2713 44.4997C22.2748 44.5045 22.2746 44.5079 22.2747 44.5059L18.2788 44.3242Z" fill="currentColor" />
  <path d="M6.21115 68.6055C5.71717 69.5935 6.11762 70.7948 7.10557 71.2888C8.09353 71.7828 9.29488 71.3823 9.78885 70.3944L6.21115 68.6055ZM22.0986 45.7748C22.5926 44.7868 22.1922 43.5855 21.2042 43.0915C20.2163 42.5975 19.0149 42.998 18.5209 43.9859L22.0986 45.7748ZM70.2111 70.3944C70.7051 71.3823 71.9065 71.7828 72.8944 71.2888C73.8824 70.7948 74.2828 69.5935 73.7888 68.6055L70.2111 70.3944ZM61.4792 43.9863C60.9853 42.9983 59.7839 42.5979 58.7959 43.0919C57.808 43.5858 57.4075 44.7872 57.9015 45.7751L61.4792 43.9863ZM9.78885 70.3944L22.0986 45.7748L18.5209 43.9859L6.21115 68.6055L9.78885 70.3944ZM73.7888 68.6055L61.4792 43.9863L57.9015 45.7751L70.2111 70.3944L73.7888 68.6055Z" fill="currentColor" />
</svg>