<svg viewBox="0 0 80 80" fill="none">
  <path fill-rule="evenodd" clip-rule="evenodd" d="M16 16.2559C13.7909 16.2559 12 18.0467 12 20.2559L12 56.2559H32.126C32.5701 57.9811 34.1362 59.2559 36 59.2559H44C45.8638 59.2559 47.4299 57.9811 47.874 56.2559H68V20.2559C68 18.0467 66.2091 16.2559 64 16.2559L16 16.2559Z" fill="currentColor" fill-opacity="0.15" />
  <path d="M12 56.2559H10C10 57.3604 10.8954 58.2559 12 58.2559V56.2559ZM32.126 56.2559L34.0629 55.7573C33.8354 54.8736 33.0386 54.2559 32.126 54.2559V56.2559ZM47.874 56.2559V54.2559C46.9614 54.2559 46.1646 54.8736 45.9371 55.7573L47.874 56.2559ZM68 56.2559V58.2559C69.1046 58.2559 70 57.3604 70 56.2559H68ZM14 20.2559C14 19.1513 14.8954 18.2559 16 18.2559V14.2559C12.6863 14.2559 10 16.9422 10 20.2559H14ZM14 56.2559L14 20.2559H10L10 56.2559H14ZM32.126 54.2559H12L12 58.2559H32.126V54.2559ZM36 57.2559C35.0708 57.2559 34.285 56.6204 34.0629 55.7573L30.1891 56.7544C30.8551 59.3418 33.2015 61.2559 36 61.2559V57.2559ZM44 57.2559H36V61.2559H44V57.2559ZM45.9371 55.7573C45.715 56.6204 44.9292 57.2559 44 57.2559V61.2559C46.7985 61.2559 49.1449 59.3418 49.8109 56.7544L45.9371 55.7573ZM68 54.2559H47.874V58.2559H68V54.2559ZM66 20.2559V56.2559H70V20.2559L66 20.2559ZM64 18.2559C65.1046 18.2559 66 19.1513 66 20.2559L70 20.2559C70 16.9421 67.3137 14.2559 64 14.2559V18.2559ZM16 18.2559L64 18.2559V14.2559L16 14.2559V18.2559Z" fill="currentColor" />
  <path fill-rule="evenodd" clip-rule="evenodd" d="M32.126 56.2559L4.15215 56.2559C4.06812 56.2559 4 56.324 4 56.408C4 60.7423 7.51361 64.2559 11.8479 64.2559L68.1521 64.2559C72.4864 64.2559 76 60.7423 76 56.408C76 56.324 75.9319 56.2559 75.8479 56.2559L47.874 56.2559C47.4299 57.9811 45.8638 59.2559 44 59.2559H36C34.1362 59.2559 32.5701 57.9811 32.126 56.2559Z" fill="currentColor" fill-opacity="0.15" />
  <path d="M32.126 56.2559L34.0629 55.7573C33.8354 54.8736 33.0386 54.2559 32.126 54.2559V56.2559ZM47.874 56.2559V54.2559C46.9614 54.2559 46.1646 54.8736 45.9371 55.7573L47.874 56.2559ZM4.15215 58.2559L32.126 58.2559V54.2559L4.15215 54.2559V58.2559ZM6 56.408C6 57.4285 5.17269 58.2559 4.15215 58.2559V54.2559C2.96355 54.2559 2 55.2194 2 56.408H6ZM11.8479 62.2559C8.61817 62.2559 6 59.6377 6 56.408H2C2 61.8468 6.40904 66.2559 11.8479 66.2559L11.8479 62.2559ZM68.1521 62.2559L11.8479 62.2559L11.8479 66.2559L68.1521 66.2559V62.2559ZM74 56.408C74 59.6377 71.3818 62.2559 68.1521 62.2559V66.2559C73.591 66.2559 78 61.8468 78 56.408H74ZM75.8479 58.2559C74.8273 58.2559 74 57.4285 74 56.408H78C78 55.2195 77.0365 54.2559 75.8479 54.2559V58.2559ZM47.874 58.2559L75.8479 58.2559V54.2559L47.874 54.2559V58.2559ZM45.9371 55.7573C45.715 56.6204 44.9292 57.2559 44 57.2559V61.2559C46.7985 61.2559 49.1449 59.3418 49.8109 56.7544L45.9371 55.7573ZM44 57.2559H36V61.2559H44V57.2559ZM36 57.2559C35.0708 57.2559 34.285 56.6204 34.0629 55.7573L30.1891 56.7544C30.8551 59.3418 33.2015 61.2559 36 61.2559V57.2559Z" fill="currentColor" />
  <path d="M44.2975 28.3499L45.2704 26.6025L45.2704 26.6025L44.2975 28.3499ZM44.5483 28.4895L43.5754 30.237L43.5754 30.237L44.5483 28.4895ZM44.5483 43.7785L45.5211 45.5259H45.5211L44.5483 43.7785ZM44.2975 43.9181L43.3247 42.1707L43.3247 42.1707L44.2975 43.9181ZM35.3107 43.9181L34.3378 45.6655L34.3378 45.6655L35.3107 43.9181ZM35.0599 43.7785L36.0328 42.0311L36.0328 42.0311L35.0599 43.7785ZM35.0599 28.4895L34.0871 26.7421L34.0871 26.7421L35.0599 28.4895ZM35.3107 28.3499L36.2835 30.0974L36.2835 30.0974L35.3107 28.3499ZM37.557 32.2422L36.5842 30.4947V30.4947L37.557 32.2422ZM42.0505 32.2422L41.0776 33.9896L41.0776 33.9896L42.0505 32.2422ZM37.4317 32.312L38.4045 34.0594L38.4045 34.0594L37.4317 32.312ZM37.4317 39.9564L36.4588 41.7039L36.4588 41.7039L37.4317 39.9564ZM37.557 40.0263L38.5299 38.2788L38.5299 38.2788L37.557 40.0263ZM42.0505 40.0263L41.0776 38.2788H41.0776L42.0505 40.0263ZM42.1759 39.9564L41.203 38.209L41.203 38.209L42.1759 39.9564ZM42.1759 32.312L43.1487 30.5645L43.1487 30.5645L42.1759 32.312ZM42.6087 25.135L40.6155 25.2997L42.6087 25.135ZM30.2448 34.1951L29.1384 35.8612L30.2448 34.1951ZM30.2449 38.0735L31.3513 39.7396L30.2449 38.0735ZM28.2068 40.1696L26.3305 40.8619L28.2068 40.1696ZM31.3637 44.0421L30.5297 42.2243L31.3637 44.0421ZM30.4051 43.8519L31.9048 42.5287L30.4051 43.8519ZM33.3145 43.1471L32.4804 41.3293L33.3145 43.1471ZM36.8348 45.1359L34.8416 45.3006L36.8348 45.1359ZM36.2662 44.3804L37.0324 42.533L36.2662 44.3804ZM37.6657 47.8802L37.3188 49.8499L37.6657 47.8802ZM36.9996 47.1309L38.9928 46.9662L36.9996 47.1309ZM46.2939 43.147L45.4598 44.9648L46.2939 43.147ZM45.386 43.248L46.5501 44.8743L45.386 43.248ZM49.2018 43.8511L50.7017 45.1741L49.2018 43.8511ZM48.2431 44.0414L47.4091 45.8592L48.2431 44.0414ZM36.9998 25.1346L38.993 25.2992L36.9998 25.1346ZM51.0715 39.2077L49.9651 40.8737L51.0715 39.2077ZM51.3998 40.1683L49.5234 39.4762L51.3998 40.1683ZM36.2663 27.8876L37.0325 29.735L36.2663 27.8876ZM49.3633 38.0733L48.2569 39.7394L49.3633 38.0733ZM33.3139 29.1213L32.4799 30.9391L33.3139 29.1213ZM34.2218 29.0203L35.386 30.6466L34.2218 29.0203ZM41.943 47.8797L42.2903 49.8493L41.943 47.8797ZM30.4029 28.416L31.903 29.7388L30.4029 28.416ZM31.3617 28.2256L30.5277 30.0434L31.3617 28.2256ZM48.2451 28.2264L49.0791 30.0442L48.2451 28.2264ZM43.3423 44.3803L44.1086 46.2277L43.3423 44.3803ZM42.7738 45.1358L44.767 45.3004L42.7738 45.1358ZM28.5342 33.0591L27.4278 34.7252L28.5342 33.0591ZM45.3865 29.0204L44.2223 30.6467L45.3865 29.0204ZM49.3634 34.1953L48.257 32.5292L49.3634 34.1953ZM48.9771 35.0714L50.9623 34.8289L48.9771 35.0714ZM43.3422 27.8877L42.576 29.7351L43.3422 27.8877ZM45.2704 26.6025C44.8917 26.3917 44.5037 26.2043 44.1085 26.0403L42.576 29.7351C42.8304 29.8407 43.0804 29.9614 43.3247 30.0974L45.2704 26.6025ZM45.5211 26.7421L45.2704 26.6025L43.3246 30.0974L43.5754 30.237L45.5211 26.7421ZM46.5506 27.3942C46.2222 27.1591 45.8787 26.9412 45.5211 26.7421L43.5754 30.237C43.8004 30.3622 44.0162 30.4991 44.2223 30.6467L46.5506 27.3942ZM47.411 26.4086L45.4604 27.3036L47.1284 30.9392L49.0791 30.0442L47.411 26.4086ZM53.2775 31.4083C52.6938 29.8246 51.8211 28.3611 50.7042 27.0942L47.7037 29.7395C48.4938 30.6356 49.1113 31.6712 49.5242 32.7916L53.2775 31.4083ZM50.4698 35.8614L52.1788 34.7265L49.966 31.3943L48.257 32.5292L50.4698 35.8614ZM51.0417 36.134C51.0417 35.6947 51.0149 35.2589 50.9623 34.8289L46.9918 35.314C47.0248 35.5838 47.0417 35.8576 47.0417 36.134H51.0417ZM50.9622 37.4398C51.0148 37.0095 51.0417 36.5736 51.0417 36.134H47.0417C47.0417 36.4106 47.0248 36.6845 46.9918 36.9544L50.9622 37.4398ZM52.1779 37.5416L50.4697 36.4072L48.2569 39.7394L49.9651 40.8737L52.1779 37.5416ZM50.7017 45.1741C51.819 43.9074 52.6922 42.4441 53.2763 40.8604L49.5234 39.4762C49.1102 40.5966 48.4923 41.632 47.702 42.528L50.7017 45.1741ZM45.4598 44.9648L47.4091 45.8592L49.0771 42.2236L47.1279 41.3292L45.4598 44.9648ZM45.5211 45.5259C45.8785 45.327 46.2218 45.1092 46.5501 44.8743L44.2219 41.6216C44.016 41.7691 43.8003 41.9059 43.5754 42.0311L45.5211 45.5259ZM45.2704 45.6655L45.5211 45.5259L43.5754 42.0311L43.3247 42.1707L45.2704 45.6655ZM44.1086 46.2277C44.5038 46.0637 44.8917 45.8763 45.2704 45.6655L43.3247 42.1707C43.0804 42.3066 42.8304 42.4274 42.576 42.5329L44.1086 46.2277ZM44.6022 47.2951L44.767 45.3004L40.7806 44.9711L40.6158 46.9658L44.6022 47.2951ZM37.3188 49.8499C38.963 50.1394 40.6462 50.1392 42.2903 49.8493L41.5958 45.9101C40.4108 46.119 39.1975 46.1191 38.0125 45.9105L37.3188 49.8499ZM34.8416 45.3006L35.0064 47.2955L38.9928 46.9662L38.828 44.9713L34.8416 45.3006ZM34.3378 45.6655C34.7166 45.8764 35.1047 46.0639 35.5 46.2278L37.0324 42.533C36.7779 42.4275 36.5279 42.3067 36.2835 42.1707L34.3378 45.6655ZM34.087 45.5259L34.3378 45.6655L36.2835 42.1707L36.0328 42.0311L34.087 45.5259ZM33.0583 44.8744C33.3865 45.1093 33.7297 45.327 34.0871 45.5259L36.0328 42.0311C35.8079 41.9059 35.5923 41.7691 35.3863 41.6217L33.0583 44.8744ZM32.1978 45.8599L34.1485 44.9649L32.4804 41.3293L30.5297 42.2243L32.1978 45.8599ZM26.3305 40.8619C26.9147 42.4455 27.788 43.9086 28.9053 45.1751L31.9048 42.5287C31.1144 41.6329 30.4965 40.5975 30.0832 39.4773L26.3305 40.8619ZM29.1385 36.4074L27.4287 37.5428L29.6416 40.875L31.3513 39.7396L29.1385 36.4074ZM28.5665 36.134C28.5665 36.5737 28.5934 37.0097 28.646 37.44L32.6164 36.9546C32.5834 36.6846 32.5665 36.4106 32.5665 36.134H28.5665ZM28.6459 34.8286C28.5933 35.2588 28.5665 35.6946 28.5665 36.134H32.5665C32.5665 35.8575 32.5834 35.5837 32.6164 35.3139L28.6459 34.8286ZM27.4278 34.7252L29.1384 35.8612L31.3512 32.529L29.6406 31.393L27.4278 34.7252ZM28.9028 27.0933C27.7859 28.3599 26.9131 29.8232 26.3293 31.4067L30.0823 32.7905C30.4953 31.6702 31.113 30.6348 31.903 29.7388L28.9028 27.0933ZM34.148 27.3035L32.1958 26.4078L30.5277 30.0434L32.4799 30.9391L34.148 27.3035ZM34.0871 26.7421C33.7295 26.9411 33.3861 27.159 33.0577 27.3941L35.386 30.6466C35.592 30.4991 35.8078 30.3622 36.0328 30.237L34.0871 26.7421ZM34.3378 26.6025L34.0871 26.7421L36.0328 30.237L36.2835 30.0974L34.3378 26.6025ZM35.5001 26.0402C35.1047 26.2042 34.7166 26.3916 34.3378 26.6025L36.2835 30.0974C36.5279 29.9613 36.7779 29.8406 37.0325 29.735L35.5001 26.0402ZM35.0066 24.9699L34.8416 26.9674L38.828 27.2967L38.993 25.2992L35.0066 24.9699ZM42.29 22.4161C40.646 22.1263 38.9631 22.1261 37.3191 22.4156L38.0128 26.355C39.1976 26.1464 40.4107 26.1465 41.5955 26.3554L42.29 22.4161ZM44.7669 26.9676L44.6019 24.9703L40.6155 25.2997L40.7805 27.2969L44.7669 26.9676ZM38.5299 33.9896C39.3219 33.5487 40.2856 33.5487 41.0776 33.9896L43.0233 30.4947C41.0216 29.3803 38.5859 29.3803 36.5842 30.4947L38.5299 33.9896ZM38.4045 34.0594L38.5299 33.9896L36.5842 30.4947L36.4588 30.5645L38.4045 34.0594ZM37.185 36.1342C37.185 35.2726 37.6517 34.4785 38.4045 34.0594L36.4588 30.5645C34.4379 31.6896 33.185 33.8212 33.185 36.1342H37.185ZM38.4045 38.209C37.6517 37.7899 37.185 36.9958 37.185 36.1342H33.185C33.185 38.4472 34.4379 40.5788 36.4588 41.7039L38.4045 38.209ZM38.5299 38.2788L38.4045 38.209L36.4588 41.7039L36.5842 41.7737L38.5299 38.2788ZM41.0776 38.2788C40.2856 38.7197 39.3219 38.7197 38.5299 38.2788L36.5842 41.7737C38.5859 42.8881 41.0216 42.8881 43.0233 41.7737L41.0776 38.2788ZM41.203 38.209L41.0776 38.2788L43.0233 41.7737L43.1487 41.7039L41.203 38.209ZM42.4226 36.1342C42.4226 36.9958 41.9558 37.7899 41.203 38.209L43.1487 41.7039C45.1696 40.5788 46.4226 38.4472 46.4226 36.1342H42.4226ZM41.203 34.0594C41.9558 34.4785 42.4226 35.2726 42.4226 36.1342H46.4226C46.4226 33.8212 45.1696 31.6896 43.1487 30.5645L41.203 34.0594ZM41.0776 33.9896L41.203 34.0594L43.1487 30.5645L43.0233 30.4947L41.0776 33.9896ZM41.5955 26.3554C41.0088 26.2519 40.6545 25.7719 40.6155 25.2997L44.6019 24.9703C44.5015 23.754 43.612 22.6492 42.29 22.4161L41.5955 26.3554ZM32.6164 35.3139C32.7409 34.2946 32.3286 33.1781 31.3512 32.529L29.1384 35.8612C28.7351 35.5934 28.6049 35.1639 28.6459 34.8286L32.6164 35.3139ZM31.3513 39.7396C32.3287 39.0905 32.741 37.9739 32.6164 36.9546L28.646 37.44C28.605 37.1048 28.7351 36.6753 29.1385 36.4074L31.3513 39.7396ZM30.0832 39.4773C30.2952 40.052 30.0415 40.6094 29.6416 40.875L27.4287 37.5428C26.3961 38.2286 25.8555 39.5748 26.3305 40.8619L30.0832 39.4773ZM30.5297 42.2243C30.9464 42.0332 31.5204 42.0931 31.9048 42.5287L28.9053 45.1751C29.7684 46.1533 31.1235 46.3528 32.1978 45.8599L30.5297 42.2243ZM35.3863 41.6217C34.5937 41.0544 33.4895 40.8663 32.4804 41.3293L34.1485 44.9649C33.7325 45.1558 33.3203 45.0619 33.0583 44.8744L35.3863 41.6217ZM38.828 44.9713C38.7328 43.8197 37.9741 42.9236 37.0324 42.533L35.5 46.2278C35.186 46.0976 34.8807 45.775 34.8416 45.3006L38.828 44.9713ZM38.0125 45.9105C38.5993 46.0138 38.9538 46.4939 38.9928 46.9662L35.0064 47.2955C35.1069 48.5121 35.9966 49.617 37.3188 49.8499L38.0125 45.9105ZM47.1279 41.3292C46.1187 40.8662 45.0146 41.0543 44.2219 41.6216L46.5501 44.8743C46.2881 45.0618 45.8759 45.1557 45.4598 44.9648L47.1279 41.3292ZM47.702 42.528C48.0863 42.0923 48.6604 42.0324 49.0771 42.2236L47.4091 45.8592C48.4835 46.3521 49.8387 46.1525 50.7017 45.1741L47.702 42.528ZM38.993 25.2992C38.954 25.7716 38.5996 26.2517 38.0128 26.355L37.3191 22.4156C35.9969 22.6484 35.1071 23.7534 35.0066 24.9699L38.993 25.2992ZM49.9651 40.8737C49.5651 40.6082 49.3115 40.0508 49.5234 39.4762L53.2763 40.8604C53.751 39.5732 53.2104 38.2273 52.1779 37.5416L49.9651 40.8737ZM37.0325 29.735C37.9742 29.3445 38.7329 28.4483 38.828 27.2967L34.8416 26.9674C34.8808 26.493 35.186 26.1704 35.5001 26.0402L37.0325 29.735ZM46.9918 36.9544C46.8672 37.9737 47.2795 39.0903 48.2569 39.7394L50.4697 36.4072C50.8731 36.675 51.0032 37.1046 50.9622 37.4398L46.9918 36.9544ZM32.4799 30.9391C33.4891 31.4021 34.5933 31.214 35.386 30.6466L33.0577 27.3941C33.3197 27.2065 33.7319 27.1126 34.148 27.3035L32.4799 30.9391ZM49.5242 32.7916C49.3125 32.217 49.5662 31.6598 49.966 31.3943L52.1788 34.7265C53.2112 34.0409 53.7518 32.6953 53.2775 31.4083L49.5242 32.7916ZM40.6158 46.9658C40.6548 46.4935 41.0091 46.0135 41.5958 45.9101L42.2903 49.8493C43.6123 49.6162 44.5017 48.5114 44.6022 47.2951L40.6158 46.9658ZM31.903 29.7388C31.5187 30.1746 30.9445 30.2346 30.5277 30.0434L32.1958 26.4078C31.1212 25.9148 29.7658 26.1146 28.9028 27.0933L31.903 29.7388ZM49.0791 30.0442C48.6623 30.2354 48.0881 30.1754 47.7037 29.7395L50.7042 27.0942C49.8412 26.1154 48.4857 25.9155 47.411 26.4086L49.0791 30.0442ZM42.576 42.5329C41.6344 42.9235 40.8757 43.8196 40.7806 44.9711L44.767 45.3004C44.7278 45.7748 44.4226 46.0974 44.1086 46.2277L42.576 42.5329ZM29.6406 31.393C30.0405 31.6586 30.2942 32.2158 30.0823 32.7905L26.3293 31.4067C25.8548 32.6938 26.3954 34.0396 27.4278 34.7252L29.6406 31.393ZM44.2223 30.6467C45.0149 31.2141 46.1192 31.4022 47.1284 30.9392L45.4604 27.3036C45.8764 27.1127 46.2886 27.2066 46.5506 27.3942L44.2223 30.6467ZM48.257 32.5292C47.2797 33.1782 46.8673 34.2948 46.9918 35.314L50.9623 34.8289C51.0033 35.1641 50.8731 35.5936 50.4698 35.8614L48.257 32.5292ZM44.1085 26.0403C44.4225 26.1706 44.7277 26.4932 44.7669 26.9676L40.7805 27.2969C40.8756 28.4484 41.6343 29.3445 42.576 29.7351L44.1085 26.0403Z" fill="currentColor" />
</svg>