<svg viewBox="0 0 80 80" fill="none">
  <path d="M12 14C12 12.8954 12.8954 12 14 12L34 12C35.1046 12 36 12.8954 36 14V34C36 35.1046 35.1046 36 34 36H14C12.8954 36 12 35.1046 12 34L12 14Z" fill="currentColor" fill-opacity="0.25" />
  <path d="M14 14L34 14V10L14 10V14ZM34 14V34H38V14H34ZM34 34H14V38H34V34ZM14 34L14 14H10L10 34H14ZM14 34H14H10C10 36.2091 11.7909 38 14 38V34ZM34 34V38C36.2091 38 38 36.2091 38 34H34ZM34 14H38C38 11.7909 36.2091 10 34 10V14ZM14 10C11.7909 10 10 11.7909 10 14H14V14V10Z" fill="currentColor" />
  <path d="M16.5 17.5C16.5 16.9477 16.9477 16.5 17.5 16.5L30.5 16.5C31.0523 16.5 31.5 16.9477 31.5 17.5V30.5C31.5 31.0523 31.0523 31.5 30.5 31.5H17.5C16.9477 31.5 16.5 31.0523 16.5 30.5L16.5 17.5Z" fill="currentColor" fill-opacity="0.25" />
  <path d="M17.5 18.5L30.5 18.5V14.5L17.5 14.5V18.5ZM29.5 17.5V30.5L33.5 30.5V17.5H29.5ZM30.5 29.5H17.5V33.5H30.5L30.5 29.5ZM18.5 30.5L18.5 17.5H14.5L14.5 30.5H18.5ZM17.5 29.5C18.0523 29.5 18.5 29.9477 18.5 30.5H14.5C14.5 32.1569 15.8431 33.5 17.5 33.5V29.5ZM29.5 30.5C29.5 29.9477 29.9477 29.5 30.5 29.5L30.5 33.5C32.1569 33.5 33.5 32.1569 33.5 30.5L29.5 30.5ZM30.5 18.5C29.9477 18.5 29.5 18.0523 29.5 17.5H33.5C33.5 15.8431 32.1569 14.5 30.5 14.5V18.5ZM17.5 14.5C15.8431 14.5 14.5 15.8431 14.5 17.5H18.5C18.5 18.0523 18.0523 18.5 17.5 18.5V14.5Z" fill="currentColor" />
  <path d="M68 66C68 67.1046 67.1046 68 66 68L46 68C44.8954 68 44 67.1046 44 66V46C44 44.8954 44.8954 44 46 44H66C67.1046 44 68 44.8954 68 46V66Z" fill="currentColor" fill-opacity="0.25" />
  <path d="M66 44V42V44ZM46 44V46V44ZM46 68V70V68ZM66 68V66V68ZM66 66H46V70H66V66ZM46 66V46H42V66H46ZM46 46H66V42H46V46ZM66 46V66H70V46H66ZM66 46H66H70C70 43.7909 68.2091 42 66 42V46ZM46 46V42C43.7909 42 42 43.7909 42 46H46ZM46 66H42C42 68.2091 43.7909 70 46 70V66ZM66 70C68.2091 70 70 68.2091 70 66H66V66V70Z" fill="currentColor" />
  <path d="M63.5 62.5C63.5 63.0523 63.0523 63.5 62.5 63.5H49.5C48.9477 63.5 48.5 63.0523 48.5 62.5V49.5C48.5 48.9477 48.9477 48.5 49.5 48.5H62.5C63.0523 48.5 63.5 48.9477 63.5 49.5V62.5Z" fill="currentColor" fill-opacity="0.25" />
  <path d="M62.5 61.5H49.5V65.5H62.5V61.5ZM50.5 62.5V49.5H46.5V62.5H50.5ZM49.5 50.5H62.5V46.5H49.5V50.5ZM61.5 49.5V62.5H65.5V49.5H61.5ZM62.5 50.5C61.9477 50.5 61.5 50.0523 61.5 49.5H65.5C65.5 47.8431 64.1569 46.5 62.5 46.5V50.5ZM50.5 49.5C50.5 50.0523 50.0523 50.5 49.5 50.5V46.5C47.8431 46.5 46.5 47.8431 46.5 49.5H50.5ZM49.5 61.5C50.0523 61.5 50.5 61.9477 50.5 62.5H46.5C46.5 64.1569 47.8431 65.5 49.5 65.5V61.5ZM62.5 65.5C64.1569 65.5 65.5 64.1569 65.5 62.5H61.5C61.5 61.9477 61.9477 61.5 62.5 61.5V65.5Z" fill="currentColor" />
  <path fill-rule="evenodd" clip-rule="evenodd" d="M24 36V54C24 55.1046 24.8954 56 26 56H44V48C44 45.7909 45.7909 44 48 44H56V26C56 24.8954 55.1046 24 54 24H36V32C36 34.2091 34.2091 36 32 36H24Z" fill="currentColor" fill-opacity="0.25" />
  <path d="M24 36L24 34C22.8954 34 22 34.8954 22 36H24ZM44 56L44 58C45.1046 58 46 57.1046 46 56H44ZM56 44V46C57.1046 46 58 45.1046 58 44L56 44ZM36 24V22C34.8954 22 34 22.8954 34 24H36ZM22 36L22 54H26V36H22ZM22 54C22 56.2091 23.7909 58 26 58L26 54H22ZM26 58H44L44 54H26L26 58ZM46 56V48H42V56H46ZM46 48C46 46.8954 46.8954 46 48 46V42C44.6863 42 42 44.6863 42 48H46ZM48 46H56V42H48V46ZM58 44V26L54 26V44L58 44ZM58 26C58 23.7909 56.2091 22 54 22V26L58 26ZM54 22H36V26L54 26V22ZM34 24V32L38 32V24L34 24ZM34 32C34 33.1046 33.1046 34 32 34L32 38C35.3137 38 38 35.3137 38 32L34 32ZM32 34H24L24 38H32L32 34Z" fill="currentColor" />
</svg>