<svg viewBox="0 0 80 80" fill="none">
  <path fill-rule="evenodd" clip-rule="evenodd" d="M40.7878 16.3377C40.2847 16.1221 39.7152 16.1221 39.2121 16.3377L16.2893 26.1617C14.6731 26.8544 14.6731 29.1457 16.2893 29.8383L39.2121 39.6624C39.7152 39.878 40.2847 39.878 40.7878 39.6624L63.7106 29.8383C65.3269 29.1457 65.3269 26.8544 63.7106 26.1617L40.7878 16.3377ZM24.1987 33.772L16.2893 37.1617C14.6731 37.8543 14.6731 40.1456 16.2893 40.8383L39.2121 50.6623C39.7152 50.8779 40.2847 50.8779 40.7878 50.6623L63.7106 40.8383C65.3268 40.1456 65.3268 37.8543 63.7106 37.1617L55.8013 33.772L40.9848 40.1219C40.3559 40.3914 39.6441 40.3914 39.0152 40.1219L24.1987 33.772ZM24.1987 44.772L16.2893 48.1617C14.6731 48.8544 14.6731 51.1456 16.2893 51.8383L39.2121 61.6623C39.7152 61.8779 40.2847 61.8779 40.7878 61.6623L63.7106 51.8383C65.3269 51.1456 65.3269 48.8544 63.7106 48.1617L55.8013 44.772L40.9848 51.1219C40.3559 51.3914 39.6441 51.3914 39.0152 51.1219L24.1987 44.772Z" fill="currentColor" fill-opacity="0.25" />
  <path d="M39.2121 16.3377L40 18.176L39.2121 16.3377ZM40.7878 16.3377L40 18.176L40.7878 16.3377ZM16.2893 26.1617L15.5015 24.3234H15.5015L16.2893 26.1617ZM16.2893 29.8383L17.0772 28H17.0772L16.2893 29.8383ZM39.2121 39.6624L38.4243 41.5007L38.4243 41.5007L39.2121 39.6624ZM40.7878 39.6624L41.5757 41.5007L41.5757 41.5007L40.7878 39.6624ZM63.7106 29.8383L62.9228 28L63.7106 29.8383ZM63.7106 26.1617L62.9228 28V28L63.7106 26.1617ZM16.2893 37.1617L17.0771 39L17.0771 39L16.2893 37.1617ZM24.1987 33.772L24.9865 31.9337C24.4834 31.7181 23.9139 31.7181 23.4108 31.9337L24.1987 33.772ZM16.2893 40.8383L17.0771 39L17.0771 39L16.2893 40.8383ZM39.2121 50.6623L40 48.824L40 48.824L39.2121 50.6623ZM40.7878 50.6623L40 48.824L40 48.824L40.7878 50.6623ZM63.7106 40.8383L62.9228 39L63.7106 40.8383ZM63.7106 37.1617L64.4985 35.3234L64.4985 35.3234L63.7106 37.1617ZM55.8013 33.772L56.5891 31.9337C56.086 31.7181 55.5165 31.7181 55.0134 31.9337L55.8013 33.772ZM40.9848 40.1219L41.7726 41.9602V41.9602L40.9848 40.1219ZM39.0152 40.1219L38.2273 41.9602V41.9602L39.0152 40.1219ZM16.2893 48.1617L15.5015 46.3234H15.5015L16.2893 48.1617ZM24.1987 44.772L24.9865 42.9337C24.4834 42.7181 23.9139 42.7181 23.4108 42.9337L24.1987 44.772ZM16.2893 51.8383L15.5015 53.6766H15.5015L16.2893 51.8383ZM39.2121 61.6623L40 59.824L40 59.824L39.2121 61.6623ZM40.7878 61.6623L40 59.824L40 59.824L40.7878 61.6623ZM63.7106 51.8383L62.9228 50L63.7106 51.8383ZM63.7106 48.1617L64.4985 46.3234V46.3234L63.7106 48.1617ZM55.8013 44.772L56.5891 42.9337C56.086 42.7181 55.5166 42.7181 55.0135 42.9337L55.8013 44.772ZM40.9848 51.1219L41.7726 52.9602L40.9848 51.1219ZM39.0152 51.1219L38.2274 52.9602L39.0152 51.1219ZM40 18.176L40 18.176L41.5757 14.4994C40.5695 14.0682 39.4305 14.0682 38.4243 14.4994L40 18.176ZM17.0772 28L40 18.176L38.4243 14.4994L15.5015 24.3234L17.0772 28ZM17.0772 28L17.0772 28L15.5015 24.3234C12.2691 25.7088 12.2691 30.2913 15.5015 31.6766L17.0772 28ZM40 37.8241L17.0772 28L15.5015 31.6766L38.4243 41.5007L40 37.8241ZM40 37.8241H40L38.4243 41.5007C39.4305 41.9319 40.5695 41.9319 41.5757 41.5007L40 37.8241ZM62.9228 28L40 37.8241L41.5757 41.5007L64.4985 31.6766L62.9228 28ZM62.9228 28L62.9228 28L64.4985 31.6766C67.7309 30.2913 67.7309 25.7088 64.4985 24.3234L62.9228 28ZM40 18.176L62.9228 28L64.4985 24.3234L41.5757 14.4994L40 18.176ZM17.0771 39L24.9865 35.6103L23.4108 31.9337L15.5015 35.3234L17.0771 39ZM17.0771 39L17.0771 39L15.5015 35.3234C12.269 36.7087 12.269 41.2912 15.5015 42.6766L17.0771 39ZM40 48.824L17.0771 39L15.5015 42.6766L38.4243 52.5006L40 48.824ZM40 48.824H40L38.4243 52.5006C39.4305 52.9319 40.5695 52.9319 41.5756 52.5006L40 48.824ZM62.9228 39L40 48.824L41.5756 52.5006L64.4985 42.6766L62.9228 39ZM62.9228 39L62.9228 39L64.4985 42.6766C67.7309 41.2912 67.7309 36.7087 64.4985 35.3234L62.9228 39ZM55.0134 35.6103L62.9228 39L64.4985 35.3234L56.5891 31.9337L55.0134 35.6103ZM41.7726 41.9602L56.5891 35.6103L55.0134 31.9337L40.1969 38.2836L41.7726 41.9602ZM38.2273 41.9602C39.3593 42.4453 40.6407 42.4453 41.7726 41.9602L40.1969 38.2836C40.0712 38.3375 39.9288 38.3375 39.803 38.2836L38.2273 41.9602ZM23.4108 35.6103L38.2273 41.9602L39.803 38.2836L24.9865 31.9337L23.4108 35.6103ZM17.0772 50L24.9865 46.6103L23.4108 42.9337L15.5015 46.3234L17.0772 50ZM17.0772 50H17.0772L15.5015 46.3234C12.2691 47.7087 12.2691 52.2912 15.5015 53.6766L17.0772 50ZM40 59.824L17.0772 50L15.5015 53.6766L38.4243 63.5006L40 59.824ZM40 59.824H40L38.4243 63.5006C39.4305 63.9319 40.5695 63.9319 41.5757 63.5006L40 59.824ZM62.9228 50L40 59.824L41.5757 63.5006L64.4985 53.6766L62.9228 50ZM62.9228 50L64.4985 53.6766C67.7309 52.2912 67.7309 47.7087 64.4985 46.3234L62.9228 50ZM55.0135 46.6103L62.9228 50L64.4985 46.3234L56.5891 42.9337L55.0135 46.6103ZM41.7726 52.9602L56.5891 46.6103L55.0135 42.9337L40.197 49.2836L41.7726 52.9602ZM38.2274 52.9602C39.3593 53.4453 40.6407 53.4453 41.7726 52.9602L40.197 49.2836C40.0712 49.3375 39.9288 49.3375 39.803 49.2836L38.2274 52.9602ZM23.4108 46.6103L38.2274 52.9602L39.803 49.2836L24.9865 42.9337L23.4108 46.6103Z" fill="currentColor" />
</svg>