<svg viewBox="0 0 80 80" fill="none">
  <path d="M16 18C16 16.8954 16.8954 16 18 16H46C47.1046 16 48 16.8954 48 18V46C48 47.1046 47.1046 48 46 48H18C16.8954 48 16 47.1046 16 46V18Z" fill="currentColor" fill-opacity="0.25" />
  <path d="M22 23C22 22.4477 22.4477 22 23 22H41C41.5523 22 42 22.4477 42 23V41C42 41.5523 41.5523 42 41 42H23C22.4477 42 22 41.5523 22 41V23Z" fill="currentColor" fill-opacity="0.25" />
  <path d="M32 48V62C32 63.1046 32.8954 64 34 64H62C63.1046 64 64 63.1046 64 62V34C64 32.8954 63.1046 32 62 32H48V46C48 47.1046 47.1046 48 46 48H32Z" fill="currentColor" fill-opacity="0.25" />
  <path d="M48 46V18C48 16.8954 47.1046 16 46 16H18C16.8954 16 16 16.8954 16 18V46C16 47.1046 16.8954 48 18 48H46M48 46C48 47.1046 47.1046 48 46 48M48 46V32H62C63.1046 32 64 32.8954 64 34V62C64 63.1046 63.1046 64 62 64H34C32.8954 64 32 63.1046 32 62V48H46M23 42H41C41.5523 42 42 41.5523 42 41V23C42 22.4477 41.5523 22 41 22H23C22.4477 22 22 22.4477 22 23V41C22 41.5523 22.4477 42 23 42Z" stroke="currentColor" stroke-width="4" stroke-linecap="round" stroke-linejoin="round" />
</svg>