<svg viewBox="0 0 80 80" fill="none">
  <path fill-rule="evenodd" clip-rule="evenodd" d="M62 16C63.1046 16 64 16.8954 64 18V46C64 47.1046 63.1046 48 62 48H48L48 34C48 32.8954 47.1046 32 46 32H32V18C32 16.8954 32.8954 16 34 16L62 16Z" fill="currentColor" fill-opacity="0.25" />
  <path d="M48 48V50C46.8954 50 46 49.1046 46 48H48ZM32 32V34C30.8954 34 30 33.1046 30 32L32 32ZM62 18V14C64.2091 14 66 15.7909 66 18H62ZM62 46L62 18H66V46H62ZM62 46H66C66 48.2091 64.2091 50 62 50V46ZM48 46H62V50H48V46ZM46 48V34H50L50 48H46ZM46 34V30C48.2091 30 50 31.7909 50 34H46ZM46 34H32V30L46 30V34ZM34 18V32L30 32V18L34 18ZM34 18L30 18C30 15.7909 31.7909 14 34 14V18ZM62 18L34 18V14L62 14V18Z" fill="currentColor" />
  <path d="M48 42V44C46.8954 44 46 43.1046 46 42H48ZM38 32V34C36.8954 34 36 33.1046 36 32H38ZM56 23C56 23.5523 56.4477 24 57 24V20C58.6569 20 60 21.3431 60 23H56ZM56 41V23H60V41H56ZM57 40C56.4477 40 56 40.4477 56 41H60C60 42.6569 58.6569 44 57 44V40ZM48 40H57V44H48V40ZM46 42V34H50V42H46ZM46 34V30C48.2091 30 50 31.7909 50 34H46ZM46 34H38V30L46 30V34ZM40 23V32H36V23H40ZM39 24C39.5523 24 40 23.5523 40 23H36C36 21.3431 37.3431 20 39 20V24ZM57 24L39 24V20L57 20V24Z" fill="currentColor" />
  <path d="M48 34C48 32.8954 47.1046 32 46 32L18 32C16.8954 32 16 32.8954 16 34L16 62C16 63.1046 16.8954 64 18 64H46C47.1046 64 48 63.1046 48 62L48 34Z" fill="currentColor" fill-opacity="0.25" />
  <path d="M46 34L18 34V30L46 30V34ZM18 34L18 62L14 62L14 34H18ZM18 62H46V66H18L18 62ZM46 62L46 34H50L50 62H46ZM46 62H50C50 64.2091 48.2091 66 46 66V62ZM18 62L18 66C15.7909 66 14 64.2091 14 62L18 62ZM18 34H14C14 31.7909 15.7909 30 18 30V34ZM46 30C48.2091 30 50 31.7909 50 34H46V30Z" fill="currentColor" />
</svg>