<svg viewBox="0 0 80 80" fill="none">
  <path fill-rule="evenodd" clip-rule="evenodd" d="M66 12C67.1046 12 68 12.8954 68 14V34C68 35.1046 67.1046 36 66 36H56V26C56 24.8954 55.1046 24 54 24L44 24V14C44 12.8954 44.8954 12 46 12L66 12Z" fill="currentColor" fill-opacity="0.25" />
  <path d="M56 36V38C54.8954 38 54 37.1046 54 36H56ZM44 24V26C42.8954 26 42 25.1046 42 24H44ZM66 14V14V10C68.2091 10 70 11.7909 70 14H66ZM66 34V14H70V34H66ZM66 34H66H70C70 36.2091 68.2091 38 66 38V34ZM56 34H66V38H56V34ZM54 36V26H58V36H54ZM54 26V22C56.2091 22 58 23.7909 58 26H54ZM54 26L44 26V22L54 22V26ZM46 14V24H42V14H46ZM46 14H42C42 11.7909 43.7909 10 46 10V14ZM66 14L46 14V10L66 10V14Z" fill="currentColor" />
  <path fill-rule="evenodd" clip-rule="evenodd" d="M62.5 16.5C63.0523 16.5 63.5 16.9477 63.5 17.5V30.5C63.5 31.0523 63.0523 31.5 62.5 31.5H56V26C56 24.8954 55.1046 24 54 24L48.5 24V17.5C48.5 16.9477 48.9477 16.5 49.5 16.5L62.5 16.5Z" fill="currentColor" fill-opacity="0.25" />
  <path d="M56 31.5V33.5C54.8954 33.5 54 32.6046 54 31.5H56ZM48.5 24V26C47.3954 26 46.5 25.1046 46.5 24H48.5ZM61.5 17.5C61.5 18.0523 61.9477 18.5 62.5 18.5V14.5C64.1569 14.5 65.5 15.8431 65.5 17.5H61.5ZM61.5 30.5V17.5H65.5V30.5H61.5ZM62.5 29.5C61.9477 29.5 61.5 29.9477 61.5 30.5H65.5C65.5 32.1569 64.1569 33.5 62.5 33.5V29.5ZM56 29.5H62.5V33.5H56V29.5ZM54 31.5V26H58V31.5H54ZM54 26V22C56.2091 22 58 23.7909 58 26H54ZM54 26H48.5V22L54 22V26ZM50.5 17.5V24L46.5 24V17.5H50.5ZM49.5 18.5C50.0523 18.5 50.5 18.0523 50.5 17.5H46.5C46.5 15.8431 47.8431 14.5 49.5 14.5V18.5ZM62.5 18.5L49.5 18.5V14.5L62.5 14.5V18.5Z" fill="currentColor" />
  <path fill-rule="evenodd" clip-rule="evenodd" d="M14 68C12.8954 68 12 67.1046 12 66L12 46C12 44.8954 12.8954 44 14 44H24L24 54C24 55.1046 24.8954 56 26 56H36V66C36 67.1046 35.1046 68 34 68H14Z" fill="currentColor" fill-opacity="0.25" />
  <path d="M24 44V42C25.1046 42 26 42.8954 26 44H24ZM36 56V54C37.1046 54 38 54.8954 38 56H36ZM14 66V66V70C11.7909 70 10 68.2091 10 66H14ZM14 46L14 66H10L10 46H14ZM14 46H14H10C10 43.7909 11.7909 42 14 42V46ZM24 46H14V42H24V46ZM26 44L26 54H22L22 44H26ZM26 54V58C23.7909 58 22 56.2091 22 54H26ZM26 54H36V58H26V54ZM34 66V56H38V66H34ZM34 66H38C38 68.2091 36.2091 70 34 70V66ZM14 66H34V70H14V66Z" fill="currentColor" />
  <path fill-rule="evenodd" clip-rule="evenodd" d="M17.5 63.5C16.9477 63.5 16.5 63.0523 16.5 62.5L16.5 49.5C16.5 48.9477 16.9477 48.5 17.5 48.5H24L24 54C24 55.1046 24.8954 56 26 56H31.5V62.5C31.5 63.0523 31.0523 63.5 30.5 63.5H17.5Z" fill="currentColor" fill-opacity="0.25" />
  <path d="M24 48.5V46.5C25.1046 46.5 26 47.3954 26 48.5H24ZM31.5 56V54C32.6046 54 33.5 54.8954 33.5 56H31.5ZM18.5 62.5C18.5 61.9477 18.0523 61.5 17.5 61.5V65.5C15.8431 65.5 14.5 64.1569 14.5 62.5H18.5ZM18.5 49.5L18.5 62.5H14.5L14.5 49.5H18.5ZM17.5 50.5C18.0523 50.5 18.5 50.0523 18.5 49.5H14.5C14.5 47.8431 15.8431 46.5 17.5 46.5V50.5ZM24 50.5H17.5V46.5H24L24 50.5ZM26 48.5V54H22L22 48.5H26ZM26 54V58C23.7909 58 22 56.2091 22 54H26ZM26 54H31.5V58H26V54ZM29.5 62.5V56H33.5V62.5H29.5ZM30.5 61.5C29.9477 61.5 29.5 61.9477 29.5 62.5H33.5C33.5 64.1569 32.1569 65.5 30.5 65.5V61.5ZM17.5 61.5H30.5V65.5H17.5V61.5Z" fill="currentColor" />
  <path d="M56 26C56 24.8954 55.1046 24 54 24L26 24C24.8954 24 24 24.8954 24 26L24 54C24 55.1046 24.8954 56 26 56L54 56C55.1046 56 56 55.1046 56 54L56 26Z" fill="currentColor" fill-opacity="0.25" />
  <path d="M54 26L26 26V22L54 22V26ZM26 26L26 54L22 54L22 26L26 26ZM26 54H54V58L26 58L26 54ZM54 54L54 26H58L58 54H54ZM54 54H58C58 56.2091 56.2091 58 54 58V54ZM26 54L26 58C23.7909 58 22 56.2091 22 54L26 54ZM26 26L22 26C22 23.7909 23.7909 22 26 22V26ZM54 22C56.2091 22 58 23.7909 58 26H54V22Z" fill="currentColor" />
</svg>