<svg viewBox="0 0 80 80" fill="none">
  <path d="M66 12C67.1046 12 68 12.8954 68 14V34C68 35.1046 67.1046 36 66 36H56V26C56 24.8954 55.1046 24 54 24H44V14C44 12.8954 44.8954 12 46 12H66Z" fill="currentColor" fill-opacity="0.25" />
  <path d="M62.5 16.5C63.0523 16.5 63.5 16.9477 63.5 17.5V30.5C63.5 31.0523 63.0523 31.5 62.5 31.5H56V26C56 24.8954 55.1046 24 54 24H48.5V17.5C48.5 16.9477 48.9477 16.5 49.5 16.5H62.5Z" fill="currentColor" fill-opacity="0.25" />
  <path d="M14 68C12.8954 68 12 67.1046 12 66V46C12 44.8954 12.8954 44 14 44H24V54C24 55.1046 24.8954 56 26 56H36V66C36 67.1046 35.1046 68 34 68H14Z" fill="currentColor" fill-opacity="0.25" />
  <path d="M17.5 63.5C16.9477 63.5 16.5 63.0523 16.5 62.5V49.5C16.5 48.9477 16.9477 48.5 17.5 48.5H24V54C24 55.1046 24.8954 56 26 56H31.5V62.5C31.5 63.0523 31.0523 63.5 30.5 63.5H17.5Z" fill="currentColor" fill-opacity="0.25" />
  <path d="M56 26C56 24.8954 55.1046 24 54 24H26C24.8954 24 24 24.8954 24 26V54C24 55.1046 24.8954 56 26 56H54C55.1046 56 56 55.1046 56 54V26Z" fill="currentColor" fill-opacity="0.25" />
  <path d="M56 26V36H66C67.1046 36 68 35.1046 68 34V14C68 12.8954 67.1046 12 66 12H46C44.8954 12 44 12.8954 44 14V24H54M56 26C56 24.8954 55.1046 24 54 24M56 26V31.5H62.5C63.0523 31.5 63.5 31.0523 63.5 30.5V17.5C63.5 16.9477 63.0523 16.5 62.5 16.5H49.5C48.9477 16.5 48.5 16.9477 48.5 17.5V24H54M56 26V54C56 55.1046 55.1046 56 54 56H26M54 24H26C24.8954 24 24 24.8954 24 26V54M24 54V44H14C12.8954 44 12 44.8954 12 46V66C12 67.1046 12.8954 68 14 68H34C35.1046 68 36 67.1046 36 66V56H26M24 54C24 55.1046 24.8954 56 26 56M24 54V48.5H17.5C16.9477 48.5 16.5 48.9477 16.5 49.5V62.5C16.5 63.0523 16.9477 63.5 17.5 63.5H30.5C31.0523 63.5 31.5 63.0523 31.5 62.5V56H26" stroke="currentColor" stroke-width="4" stroke-linecap="round" stroke-linejoin="round" />
</svg>