<svg viewBox="0 0 80 80" fill="none">
  <path fill-rule="evenodd" clip-rule="evenodd" d="M51.3138 12.6862C44.0697 9.68565 35.9304 9.68565 28.6863 12.6862C21.4423 15.6868 15.6869 21.4422 12.6864 28.6862C9.68577 35.9303 9.68577 44.0696 12.6864 51.3136C15.6869 58.5577 21.4423 64.3131 28.6863 67.3136C35.9304 70.3142 44.0697 70.3142 51.3138 67.3136C58.5578 64.3131 64.3132 58.5577 67.3138 51.3136C70.3143 44.0696 70.3143 35.9303 67.3138 28.6862C64.3132 21.4422 58.5578 15.6868 51.3138 12.6862ZM46.364 24.6359C42.2892 22.9481 37.7109 22.9481 33.6361 24.6359C29.5613 26.3237 26.3239 29.5611 24.6361 33.6359C22.9483 37.7107 22.9483 42.289 24.6361 46.3638C26.3239 50.4386 29.5613 53.676 33.6361 55.3638C37.7109 57.0516 42.2892 57.0516 46.364 55.3638C50.4388 53.676 53.6762 50.4386 55.364 46.3638C57.0518 42.289 57.0518 37.7107 55.364 33.6359C53.6762 29.5611 50.4388 26.3237 46.364 24.6359Z" fill="currentColor" fill-opacity="0.15" />
  <path d="M28.6863 12.6862L27.921 10.8385L28.6863 12.6862ZM51.3138 12.6862L50.5484 14.534L51.3138 12.6862ZM12.6864 28.6862L10.8386 27.9209L12.6864 28.6862ZM12.6864 51.3136L14.5341 50.5483H14.5341L12.6864 51.3136ZM28.6863 67.3136L29.4517 65.4659H29.4517L28.6863 67.3136ZM51.3138 67.3136L50.5484 65.4659H50.5484L51.3138 67.3136ZM67.3138 51.3136L65.466 50.5483V50.5483L67.3138 51.3136ZM67.3138 28.6862L65.466 29.4516L67.3138 28.6862ZM46.364 24.6359L47.1294 22.7881L46.364 24.6359ZM24.6361 46.3638L22.7883 47.1292L24.6361 46.3638ZM46.364 55.3638L47.1294 57.2116L46.364 55.3638ZM55.364 46.3638L57.2118 47.1292L55.364 46.3638ZM29.4517 14.534C36.2057 11.7364 43.7944 11.7364 50.5484 14.534L52.0791 10.8385C44.345 7.6349 35.6551 7.6349 27.921 10.8385L29.4517 14.534ZM14.5341 29.4516C17.3317 22.6976 22.6977 17.3316 29.4517 14.534L27.921 10.8385C20.1869 14.042 14.0422 20.1868 10.8386 27.9209L14.5341 29.4516ZM14.5341 50.5483C11.7365 43.7943 11.7365 36.2056 14.5341 29.4516L10.8386 27.9209C7.63502 35.655 7.63502 44.3449 10.8386 52.079L14.5341 50.5483ZM29.4517 65.4659C22.6977 62.6683 17.3317 57.3023 14.5341 50.5483L10.8386 52.079C14.0422 59.8131 20.1869 65.9578 27.921 69.1614L29.4517 65.4659ZM50.5484 65.4659C43.7944 68.2635 36.2057 68.2635 29.4517 65.4659L27.921 69.1614C35.6551 72.365 44.345 72.365 52.0791 69.1614L50.5484 65.4659ZM65.466 50.5483C62.6684 57.3023 57.3024 62.6683 50.5484 65.4659L52.0791 69.1614C59.8132 65.9578 65.958 59.8131 69.1615 52.079L65.466 50.5483ZM65.466 29.4516C68.2636 36.2056 68.2636 43.7943 65.466 50.5483L69.1615 52.079C72.3651 44.3449 72.3651 35.655 69.1615 27.9209L65.466 29.4516ZM50.5484 14.534C57.3024 17.3316 62.6684 22.6976 65.466 29.4516L69.1615 27.9209C65.958 20.1868 59.8132 14.042 52.0791 10.8385L50.5484 14.534ZM34.4015 26.4836C37.9862 24.9988 42.0139 24.9988 45.5986 26.4836L47.1294 22.7881C42.5645 20.8973 37.4356 20.8973 32.8707 22.7881L34.4015 26.4836ZM26.4838 34.4013C27.9687 30.8165 30.8167 27.9685 34.4015 26.4836L32.8707 22.7881C28.3059 24.6789 24.6791 28.3057 22.7883 32.8705L26.4838 34.4013ZM26.4838 45.5984C24.999 42.0137 24.999 37.986 26.4838 34.4013L22.7883 32.8705C20.8975 37.4354 20.8975 42.5643 22.7883 47.1292L26.4838 45.5984ZM34.4015 53.5161C30.8167 52.0312 27.9687 49.1832 26.4838 45.5984L22.7883 47.1292C24.6791 51.694 28.3059 55.3208 32.8707 57.2116L34.4015 53.5161ZM45.5986 53.5161C42.0139 55.0009 37.9862 55.0009 34.4015 53.5161L32.8707 57.2116C37.4356 59.1024 42.5645 59.1024 47.1294 57.2116L45.5986 53.5161ZM53.5162 45.5984C52.0314 49.1832 49.1834 52.0312 45.5986 53.5161L47.1294 57.2116C51.6942 55.3208 55.3209 51.694 57.2118 47.1292L53.5162 45.5984ZM53.5162 34.4013C55.0011 37.986 55.0011 42.0137 53.5162 45.5984L57.2118 47.1292C59.1026 42.5643 59.1026 37.4354 57.2118 32.8705L53.5162 34.4013ZM45.5986 26.4836C49.1834 27.9685 52.0314 30.8165 53.5162 34.4013L57.2118 32.8705C55.3209 28.3057 51.6942 24.6789 47.1294 22.7881L45.5986 26.4836Z" fill="currentColor" />
  <path d="M11.0531 33.9902L11.0503 31.9902C10.1035 31.9915 9.28733 32.6566 9.09486 33.5837L11.0531 33.9902ZM11.0531 46.0102L9.09486 46.4167C9.28733 47.3437 10.1035 48.0088 11.0503 48.0102L11.0531 46.0102ZM24.5016 33.9711L26.3655 34.6963C26.605 34.0804 26.525 33.386 26.1515 32.8409C25.7781 32.2957 25.1595 31.9702 24.4987 31.9711L24.5016 33.9711ZM24.5016 46.0292L24.4988 48.0292C25.1596 48.0301 25.7782 47.7046 26.1516 47.1595C26.5251 46.6143 26.6051 45.9199 26.3655 45.3041L24.5016 46.0292ZM33.9901 68.9471L31.9901 68.95C31.9914 69.8968 32.6565 70.7129 33.5835 70.9054L33.9901 68.9471ZM46.01 68.9471L46.4166 70.9054C47.3436 70.7129 48.0087 69.8968 48.01 68.95L46.01 68.9471ZM33.971 55.4986L34.6962 53.6346C34.0803 53.3951 33.3859 53.4751 32.8408 53.8486C32.2956 54.222 31.9701 54.8406 31.971 55.5014L33.971 55.4986ZM46.0291 55.4986L48.0291 55.5014C48.03 54.8406 47.7045 54.222 47.1594 53.8486C46.6142 53.4751 45.9198 53.3951 45.304 53.6346L46.0291 55.4986ZM68.947 46.0102L68.9498 48.0102C69.8966 48.0088 70.7128 47.3437 70.9053 46.4167L68.947 46.0102ZM68.947 33.9902L70.9053 33.5837C70.7128 32.6566 69.8966 31.9915 68.9498 31.9902L68.947 33.9902ZM55.4985 46.0292L53.6346 45.3041C53.395 45.9199 53.475 46.6143 53.8485 47.1595C54.2219 47.7046 54.8405 48.0301 55.5013 48.0292L55.4985 46.0292ZM55.4985 33.9711L55.5014 31.9711C54.8406 31.9702 54.222 32.2957 53.8485 32.8409C53.4751 33.386 53.395 34.0804 53.6346 34.6963L55.4985 33.9711ZM46.01 11.0532L48.01 11.0504C48.0087 10.1036 47.3436 9.28745 46.4166 9.09498L46.01 11.0532ZM33.9901 11.0532L33.5835 9.09498C32.6565 9.28745 31.9914 10.1036 31.9901 11.0504L33.9901 11.0532ZM33.971 24.5016L31.971 24.4988C31.9701 25.1596 32.2956 25.7782 32.8408 26.1516C33.3859 26.5251 34.0803 26.6051 34.6962 26.3655L33.971 24.5016ZM46.0291 24.5016L45.304 26.3656C45.9198 26.6051 46.6142 26.5251 47.1594 26.1516C47.7045 25.7782 48.03 25.1596 48.0291 24.4988L46.0291 24.5016ZM9.09486 33.5837C8.21626 37.8156 8.21626 42.1847 9.09486 46.4167L13.0113 45.6036C12.2441 41.908 12.2441 38.0924 13.0113 34.3968L9.09486 33.5837ZM11.0559 35.9902L24.5044 35.9711L24.4987 31.9711L11.0503 31.9902L11.0559 35.9902ZM22.6376 33.246C20.9477 37.5899 20.9477 42.4104 22.6377 46.7543L26.3655 45.3041C25.0385 41.8929 25.0384 38.1074 26.3655 34.6963L22.6376 33.246ZM24.5045 44.0292L11.0559 44.0102L11.0503 48.0102L24.4988 48.0292L24.5045 44.0292ZM33.5835 70.9054C37.8155 71.784 42.1846 71.784 46.4166 70.9054L45.6035 66.9889C41.9079 67.7561 38.0922 67.7561 34.3966 66.9889L33.5835 70.9054ZM35.9901 68.9443L35.971 55.4957L31.971 55.5014L31.9901 68.95L35.9901 68.9443ZM33.2459 57.3625C37.5898 59.0524 42.4103 59.0524 46.7542 57.3625L45.304 53.6346C41.8928 54.9617 38.1073 54.9617 34.6962 53.6346L33.2459 57.3625ZM44.0291 55.4957L44.01 68.9443L48.01 68.95L48.0291 55.5014L44.0291 55.4957ZM70.9053 46.4167C71.7838 42.1847 71.7838 37.8156 70.9053 33.5837L66.9888 34.3968C67.756 38.0924 67.756 41.908 66.9888 45.6036L70.9053 46.4167ZM68.9442 44.0102L55.4956 44.0292L55.5013 48.0292L68.9498 48.0102L68.9442 44.0102ZM57.3624 46.7543C59.0523 42.4104 59.0524 37.5899 57.3625 33.246L53.6346 34.6963C54.9616 38.1074 54.9616 41.8929 53.6346 45.3041L57.3624 46.7543ZM55.4957 35.9711L68.9442 35.9902L68.9498 31.9902L55.5014 31.9711L55.4957 35.9711ZM46.4166 9.09498C42.1846 8.21639 37.8155 8.21639 33.5835 9.09498L34.3966 13.0115C38.0922 12.2442 41.9079 12.2442 45.6035 13.0115L46.4166 9.09498ZM35.971 24.5045L35.9901 11.0561L31.9901 11.0504L31.971 24.4988L35.971 24.5045ZM46.7542 22.6377C42.4103 20.9478 37.5898 20.9478 33.2459 22.6377L34.6962 26.3655C38.1073 25.0385 41.8928 25.0385 45.304 26.3656L46.7542 22.6377ZM44.01 11.0561L44.0291 24.5045L48.0291 24.4988L48.01 11.0504L44.01 11.0561Z" fill="currentColor" />
</svg>