<svg viewBox="0 0 80 80" fill="none">
  <path fill-rule="evenodd" clip-rule="evenodd" d="M46.5936 13.429C42.0661 11.5536 36.979 11.5536 32.4514 13.429C27.9239 15.3043 24.3268 18.9015 22.4514 23.429C20.5761 27.9565 20.5761 33.0436 22.4514 37.5711C23.4766 40.0461 25.0163 42.2431 26.9412 44.0327C28.4357 45.4222 29.5234 47.2718 29.5234 49.3124V56.501C29.5234 59.8147 32.2097 62.501 35.5234 62.501L43.5234 62.501C46.8371 62.501 49.5234 59.8147 49.5234 56.501V49.3107C49.5234 47.2704 50.6109 45.421 52.105 44.0315C54.0294 42.2421 55.5686 40.0456 56.5936 37.5711C58.4689 33.0436 58.4689 27.9565 56.5936 23.429C54.7182 18.9015 51.1211 15.3043 46.5936 13.429Z" fill="currentColor" fill-opacity="0.15" />
  <path d="M32.4514 13.429L31.6861 11.5812V11.5812L32.4514 13.429ZM46.5936 13.429L47.3589 11.5812L46.5936 13.429ZM22.4514 23.429L20.6037 22.6636H20.6037L22.4514 23.429ZM22.4514 37.5711L24.2992 36.8058L22.4514 37.5711ZM56.5936 37.5711L58.4413 38.3365V38.3365L56.5936 37.5711ZM56.5936 23.429L58.4413 22.6636V22.6636L56.5936 23.429ZM26.9412 44.0327L25.5794 45.4975L26.9412 44.0327ZM33.2168 15.2767C37.2543 13.6044 41.7907 13.6044 45.8282 15.2767L47.3589 11.5812C42.3414 9.50287 36.7037 9.50287 31.6861 11.5812L33.2168 15.2767ZM24.2992 24.1944C25.9716 20.1569 29.1793 16.9491 33.2168 15.2767L31.6861 11.5812C26.6685 13.6596 22.682 17.646 20.6037 22.6636L24.2992 24.1944ZM24.2992 36.8058C22.6268 32.7683 22.6268 28.2318 24.2992 24.1944L20.6037 22.6636C18.5253 27.6812 18.5253 33.3189 20.6037 38.3365L24.2992 36.8058ZM28.3031 42.568C26.5864 40.9719 25.2134 39.0128 24.2992 36.8058L20.6037 38.3365C21.7398 41.0794 23.4463 43.5142 25.5794 45.4975L28.3031 42.568ZM31.5234 56.501V49.3124H27.5234V56.501H31.5234ZM43.5234 60.501L35.5234 60.501V64.501H43.5234V60.501ZM47.5234 49.3107V56.501H51.5234V49.3107H47.5234ZM54.7458 36.8058C53.8318 39.0124 52.4593 40.9711 50.7431 42.5669L53.467 45.4962C55.5995 43.5131 57.3054 41.0788 58.4413 38.3365L54.7458 36.8058ZM54.7458 24.1944C56.4182 28.2318 56.4182 32.7683 54.7458 36.8058L58.4413 38.3365C60.5197 33.3189 60.5197 27.6812 58.4413 22.6636L54.7458 24.1944ZM45.8282 15.2767C49.8657 16.9491 53.0734 20.1569 54.7458 24.1944L58.4413 22.6636C56.363 17.646 52.3765 13.6596 47.3589 11.5812L45.8282 15.2767ZM51.5234 49.3107C51.5234 47.9996 52.2323 46.6443 53.467 45.4962L50.7431 42.5669C48.9895 44.1976 47.5234 46.5412 47.5234 49.3107H51.5234ZM43.5234 64.501C47.9417 64.501 51.5234 60.9193 51.5234 56.501H47.5234C47.5234 58.7101 45.7326 60.501 43.5234 60.501V64.501ZM27.5234 56.501C27.5234 60.9193 31.1052 64.501 35.5234 64.501V60.501C33.3143 60.501 31.5234 58.7101 31.5234 56.501H27.5234ZM25.5794 45.4975C26.8144 46.6456 27.5234 48.0011 27.5234 49.3124H31.5234C31.5234 46.5425 30.0571 44.1987 28.3031 42.568L25.5794 45.4975Z" fill="currentColor" />
  <path d="M47.5225 68.5H31.5225" stroke="currentColor" stroke-linecap="round" stroke-linejoin="round" />
</svg>