<svg viewBox="0 0 80 80" fill="none">
  <path fill-rule="evenodd" clip-rule="evenodd" d="M54.7784 64.7794C56.2922 66.2327 58.737 64.671 58.0548 62.6865L41.8913 15.6653C41.2726 13.8655 38.7272 13.8655 38.1085 15.6653L22.2288 61.8607C21.5467 63.8452 23.9915 65.4069 25.5053 63.9536L38.3267 51.6451C39.1006 50.9021 40.3229 50.9021 41.0968 51.6451L54.7784 64.7794Z" fill="currentColor" fill-opacity="0.15" />
  <path d="M38.3267 51.6451L36.9416 50.2023L38.3267 51.6451ZM41.0968 51.6451L42.4819 50.2023L41.0968 51.6451ZM22.2288 61.8607L20.3375 61.2105L22.2288 61.8607ZM25.5053 63.9536L26.8903 65.3964L25.5053 63.9536ZM58.0548 62.6865L59.9462 62.0363L58.0548 62.6865ZM41.8913 15.6653L39.9999 16.3154L41.8913 15.6653ZM38.1085 15.6653L36.2171 15.0151L38.1085 15.6653ZM39.9999 16.3154L56.1634 63.3366L59.9462 62.0363L43.7826 15.0151L39.9999 16.3154ZM24.1202 62.5109L39.9999 16.3154L36.2171 15.0151L20.3375 61.2105L24.1202 62.5109ZM26.8903 65.3964L39.7117 53.0879L36.9416 50.2023L24.1202 62.5109L26.8903 65.3964ZM39.7117 53.0879L53.3933 66.2222L56.1634 63.3366L42.4819 50.2023L39.7117 53.0879ZM39.7117 53.0879H39.7117L42.4819 50.2023C40.934 48.7164 38.4894 48.7164 36.9416 50.2023L39.7117 53.0879ZM20.3375 61.2105C18.9731 65.1796 23.8627 68.3029 26.8903 65.3964L24.1202 62.5109C24.1066 62.5239 24.0979 62.5302 24.0948 62.5322C24.0917 62.5343 24.0925 62.5334 24.0969 62.5315C24.1013 62.5296 24.1074 62.5274 24.1146 62.5257C24.1217 62.524 24.1284 62.523 24.1341 62.5227C24.1455 62.522 24.1493 62.5237 24.1451 62.5225C24.143 62.522 24.1395 62.5209 24.1349 62.5188C24.1303 62.5168 24.1253 62.5141 24.1202 62.5109C24.1151 62.5076 24.1106 62.5042 24.1068 62.5009C24.103 62.4975 24.1005 62.4949 24.0992 62.4932C24.0964 62.4899 24.0995 62.4926 24.1037 62.5033C24.1057 62.5086 24.1077 62.515 24.1091 62.5222C24.1106 62.5295 24.1112 62.5359 24.1113 62.5407C24.1114 62.5455 24.1109 62.5465 24.1115 62.5429C24.1121 62.5392 24.1141 62.5287 24.1202 62.5109L20.3375 61.2105ZM56.1634 63.3366C56.1696 63.3545 56.1715 63.365 56.1721 63.3687C56.1727 63.3723 56.1723 63.3713 56.1724 63.3664C56.1724 63.3616 56.173 63.3552 56.1745 63.348C56.1759 63.3408 56.1779 63.3343 56.18 63.329C56.1841 63.3183 56.1873 63.3156 56.1845 63.319C56.1831 63.3206 56.1806 63.3233 56.1768 63.3266C56.1731 63.3299 56.1685 63.3334 56.1634 63.3366C56.1583 63.3399 56.1533 63.3425 56.1487 63.3446C56.1441 63.3466 56.1406 63.3477 56.1386 63.3483C56.1343 63.3494 56.1381 63.3477 56.1496 63.3484C56.1553 63.3488 56.1619 63.3497 56.1691 63.3514C56.1763 63.3532 56.1823 63.3553 56.1867 63.3573C56.1912 63.3592 56.1919 63.36 56.1888 63.358C56.1858 63.3559 56.177 63.3497 56.1634 63.3366L53.3933 66.2222C56.4209 69.1287 61.3105 66.0054 59.9462 62.0363L56.1634 63.3366ZM43.7826 15.0151C42.5453 11.4156 37.4545 11.4155 36.2171 15.0151L39.9999 16.3154C40.0042 16.3029 40.0076 16.2962 40.0087 16.294C40.0099 16.2919 40.0097 16.2927 40.0075 16.2955C40.0054 16.2982 40.0024 16.3016 39.9987 16.3051C39.9949 16.3086 39.9912 16.3115 39.9879 16.3137C39.9813 16.3181 39.9784 16.3186 39.9812 16.3177C39.9844 16.3168 39.991 16.3154 39.9999 16.3154C40.0087 16.3154 40.0154 16.3168 40.0186 16.3177C40.0214 16.3186 40.0185 16.3181 40.0119 16.3137C40.0086 16.3115 40.0049 16.3086 40.0011 16.3051C39.9973 16.3016 39.9943 16.2982 39.9922 16.2955C39.9901 16.2927 39.9899 16.2919 39.991 16.2941C39.9922 16.2962 39.9956 16.3029 39.9999 16.3154L43.7826 15.0151Z" fill="currentColor" />
</svg>