<svg viewBox="0 0 80 80" fill="none">
  <path fill-rule="evenodd" clip-rule="evenodd" d="M19.8333 40.9941C18.8208 40.9941 18 41.815 18 42.8275L18 69.1608C18 70.1733 18.8208 70.9941 19.8333 70.9941H60.1667C61.1792 70.9941 62 70.1733 62 69.1608L62 42.8275C62 41.815 61.1792 40.9941 60.1667 40.9941L19.8333 40.9941ZM43 58.9941C41.3431 60.651 38.6569 60.651 37 58.9941C35.3431 57.3373 35.3431 54.651 37 52.9941C38.6569 51.3373 41.3431 51.3373 43 52.9941C44.6569 54.651 44.6569 57.3373 43 58.9941Z" fill="currentColor" fill-opacity="0.15" />
  <path d="M20 42.8275C20 42.9195 19.9254 42.9941 19.8333 42.9941V38.9941C17.7162 38.9941 16 40.7104 16 42.8275H20ZM20 69.1608L20 42.8275H16L16 69.1608H20ZM19.8333 68.9941C19.9254 68.9941 20 69.0688 20 69.1608H16C16 71.2779 17.7162 72.9941 19.8333 72.9941V68.9941ZM60.1667 68.9941H19.8333V72.9941H60.1667V68.9941ZM60 69.1608C60 69.0688 60.0746 68.9941 60.1667 68.9941V72.9941C62.2838 72.9941 64 71.2779 64 69.1608H60ZM60 42.8275L60 69.1608H64L64 42.8275H60ZM60.1667 42.9941C60.0746 42.9941 60 42.9195 60 42.8275H64C64 40.7104 62.2838 38.9941 60.1667 38.9941V42.9941ZM19.8333 42.9941L60.1667 42.9941V38.9941L19.8333 38.9941V42.9941ZM35.5858 60.4084C38.0237 62.8463 41.9763 62.8463 44.4142 60.4084L41.5858 57.5799C40.71 58.4557 39.29 58.4557 38.4142 57.5799L35.5858 60.4084ZM35.5858 51.5799C33.1479 54.0178 33.1479 57.9705 35.5858 60.4084L38.4142 57.5799C37.5384 56.7041 37.5384 55.2842 38.4142 54.4084L35.5858 51.5799ZM44.4142 51.5799C41.9763 49.142 38.0237 49.142 35.5858 51.5799L38.4142 54.4084C39.29 53.5325 40.71 53.5325 41.5858 54.4084L44.4142 51.5799ZM44.4142 60.4084C46.8521 57.9705 46.8521 54.0178 44.4142 51.5799L41.5858 54.4084C42.4616 55.2842 42.4616 56.7041 41.5858 57.5799L44.4142 60.4084Z" fill="currentColor" />
  <path d="M24.1139 41.5118C24.3997 42.5788 25.4964 43.2119 26.5634 42.926C27.6303 42.6402 28.2635 41.5435 27.9776 40.4766L24.1139 41.5118ZM23.3318 30.8656L21.3999 31.3832L23.3318 30.8656ZM49.4118 23.8775L47.4799 24.3951H47.4799L49.4118 23.8775ZM49.6799 32.6055C49.9658 33.6724 51.0624 34.3056 52.1294 34.0197C53.1963 33.7338 53.8295 32.6371 53.5436 31.5702L49.6799 32.6055ZM32.8777 14.3315L33.3953 16.2634L32.8777 14.3315ZM27.9776 40.4766L25.2636 30.3479L21.3999 31.3832L24.1139 41.5118L27.9776 40.4766ZM47.4799 24.3951L49.6799 32.6055L53.5436 31.5702L51.3436 23.3598L47.4799 24.3951ZM33.3953 16.2634C39.5302 14.6195 45.8361 18.2602 47.4799 24.3951L51.3436 23.3598C49.128 15.0911 40.6288 10.1841 32.3601 12.3997L33.3953 16.2634ZM32.3601 12.3997C24.0913 14.6153 19.1843 23.1145 21.3999 31.3832L25.2636 30.3479C23.6198 24.2131 27.2605 17.9072 33.3953 16.2634L32.3601 12.3997Z" fill="currentColor" />
</svg>