<svg viewBox="0 0 80 80" fill="none">
  <path fill-rule="evenodd" clip-rule="evenodd" d="M19.8333 38.25C18.8208 38.25 18 39.0708 18 40.0833L18 66.4167C18 67.4292 18.8208 68.25 19.8333 68.25H60.1667C61.1792 68.25 62 67.4292 62 66.4167L62 40.0833C62 39.0708 61.1792 38.25 60.1667 38.25L19.8333 38.25ZM43 56.25C41.3431 57.9069 38.6569 57.9069 37 56.25C35.3431 54.5931 35.3431 51.9069 37 50.25C38.6569 48.5931 41.3431 48.5931 43 50.25C44.6569 51.9069 44.6569 54.5931 43 56.25Z" fill="currentColor" fill-opacity="0.25" />
  <path d="M37 56.25L38.4142 54.8358L38.4142 54.8358L37 56.25ZM43 56.25L41.5858 54.8358H41.5858L43 56.25ZM37 50.25L38.4142 51.6642V51.6642L37 50.25ZM20 40.0833C20 40.1754 19.9254 40.25 19.8333 40.25V36.25C17.7162 36.25 16 37.9662 16 40.0833H20ZM20 66.4167L20 40.0833H16L16 66.4167H20ZM19.8333 66.25C19.9254 66.25 20 66.3246 20 66.4167H16C16 68.5338 17.7162 70.25 19.8333 70.25V66.25ZM60.1667 66.25H19.8333V70.25H60.1667V66.25ZM60 66.4167C60 66.3246 60.0746 66.25 60.1667 66.25V70.25C62.2838 70.25 64 68.5338 64 66.4167H60ZM60 40.0833L60 66.4167H64L64 40.0833H60ZM60.1667 40.25C60.0746 40.25 60 40.1754 60 40.0833H64C64 37.9662 62.2838 36.25 60.1667 36.25V40.25ZM19.8333 40.25L60.1667 40.25V36.25L19.8333 36.25V40.25ZM35.5858 57.6642C38.0237 60.1021 41.9763 60.1021 44.4142 57.6642L41.5858 54.8358C40.71 55.7116 39.29 55.7116 38.4142 54.8358L35.5858 57.6642ZM35.5858 48.8358C33.1479 51.2737 33.1479 55.2263 35.5858 57.6642L38.4142 54.8358C37.5384 53.96 37.5384 52.54 38.4142 51.6642L35.5858 48.8358ZM44.4142 48.8358C41.9763 46.3979 38.0237 46.3979 35.5858 48.8358L38.4142 51.6642C39.29 50.7884 40.71 50.7884 41.5858 51.6642L44.4142 48.8358ZM44.4142 57.6642C46.8521 55.2263 46.8521 51.2737 44.4142 48.8358L41.5858 51.6642C42.4616 52.54 42.4616 53.96 41.5858 54.8358L44.4142 57.6642Z" fill="currentColor" />
  <path d="M24.5 38.25V40.25H28.5V38.25H24.5ZM51.5 38.25V40.25H55.5V38.25H51.5ZM28.5 38.25V29.75H24.5V38.25H28.5ZM51.5 29.75V38.25H55.5V29.75L51.5 29.75ZM40 18.25C46.3513 18.25 51.5 23.3987 51.5 29.75L55.5 29.75C55.5 21.1896 48.5604 14.25 40 14.25V18.25ZM40 14.25C31.4396 14.25 24.5 21.1896 24.5 29.75H28.5C28.5 23.3987 33.6487 18.25 40 18.25V14.25Z" fill="currentColor" />
</svg>