<svg viewBox="0 0 80 80" fill="none">
  <path d="M26 44H54V57.2174V60H26V57.2174V44Z" fill="currentColor" fill-opacity="0.15" stroke="currentColor" stroke-linecap="round" stroke-linejoin="round" />
  <path fill-rule="evenodd" clip-rule="evenodd" d="M36 16C27.1634 16 20 23.1634 20 32V36.0709C23.3923 36.5561 26 39.4735 26 43V44H54V43C54 39.4735 56.6077 36.5561 60 36.0709V32C60 23.1634 52.8366 16 44 16H36Z" fill="currentColor" fill-opacity="0.15" />
  <path d="M20 36.0709H18C18 37.0661 18.7317 37.9098 19.7168 38.0507L20 36.0709ZM26 44H24C24 45.1046 24.8954 46 26 46V44ZM54 44V46C55.1046 46 56 45.1046 56 44H54ZM60 36.0709L60.2832 38.0507C61.2683 37.9098 62 37.0661 62 36.0709H60ZM22 32C22 24.268 28.268 18 36 18V14C26.0589 14 18 22.0589 18 32H22ZM22 36.0709V32H18V36.0709H22ZM28 43C28 38.4642 24.6466 34.7152 20.2832 34.091L19.7168 38.0507C22.138 38.3971 24 40.4828 24 43H28ZM28 44V43H24V44H28ZM26 46H54V42H26V46ZM52 43V44H56V43H52ZM59.7168 34.091C55.3534 34.7152 52 38.4642 52 43H56C56 40.4828 57.862 38.3971 60.2832 38.0507L59.7168 34.091ZM58 32V36.0709H62V32H58ZM44 18C51.732 18 58 24.268 58 32H62C62 22.0589 53.9411 14 44 14V18ZM36 18H44V14H36V18Z" fill="currentColor" />
  <path d="M12 41.0661C12 38.2682 14.2682 36 17.0661 36H19C22.866 36 26 39.134 26 43V59C26 61.7614 23.7614 64 21 64C18.2386 64 16 61.7614 16 59V52.309C16 50.1455 15.3996 48.0244 14.2657 46.1818L12.7515 43.7212C12.2602 42.9228 12 42.0036 12 41.0661Z" fill="currentColor" fill-opacity="0.15" stroke="currentColor" stroke-linecap="round" stroke-linejoin="round" />
  <path d="M68 41.0661C68 38.2682 65.7318 36 62.9339 36H61C57.134 36 54 39.134 54 43V59C54 61.7614 56.2386 64 59 64C61.7614 64 64 61.7614 64 59V52.309C64 50.1455 64.6004 48.0244 65.7343 46.1818L67.2485 43.7212C67.7398 42.9228 68 42.0036 68 41.0661Z" fill="currentColor" fill-opacity="0.15" stroke="currentColor" stroke-linecap="round" stroke-linejoin="round" />
</svg>