<svg viewBox="0 0 80 80" fill="none">
  <path d="M30.4297 16.5675C36.4829 13.6787 43.5171 13.6787 49.5703 16.5675C55.6838 19.4852 60.1349 25.0426 61.6552 31.6439C63.1394 38.088 61.6843 44.8684 57.6801 50.131L55.6676 52.7759C54.7221 54.0186 53.6743 55.18 52.5351 56.248L40.5 67.5314C40.2188 67.795 39.7812 67.795 39.5 67.5314L27.4649 56.248C26.3257 55.18 25.2779 54.0186 24.3324 52.7759L22.3199 50.131C18.3157 44.8684 16.8606 38.088 18.3448 31.6439C19.8651 25.0426 24.3162 19.4852 30.4297 16.5675Z" fill="currentColor" fill-opacity="0.25" />
  <path d="M35.769 25.7389C38.4461 24.4662 41.5539 24.4662 44.231 25.7389L44.3249 25.7835C46.981 27.0462 48.9152 29.4523 49.5777 32.3176C50.2455 35.2056 49.5326 38.2584 47.6699 40.5643C45.8218 42.8519 43.0241 44.1994 40.0833 44.1994H39.9168C36.9759 44.1994 34.1782 42.8519 32.3302 40.5643C30.4674 38.2584 29.7546 35.2056 30.4223 32.3176C31.0848 29.4523 33.0191 27.0462 35.6751 25.7835L35.769 25.7389Z" fill="currentColor" fill-opacity="0.25" />
  <path d="M16 68.0001H64M40.5 67.5314L52.5351 56.248C53.6743 55.18 54.7221 54.0186 55.6676 52.7759L57.6801 50.131C61.6843 44.8684 63.1394 38.088 61.6552 31.6439C60.1349 25.0426 55.6838 19.4852 49.5703 16.5675C43.5171 13.6787 36.4829 13.6787 30.4297 16.5675C24.3162 19.4852 19.8651 25.0426 18.3448 31.6439C16.8606 38.088 18.3157 44.8684 22.3199 50.131L24.3324 52.7759C25.2779 54.0186 26.3257 55.18 27.4649 56.248L39.5 67.5314C39.7812 67.795 40.2188 67.795 40.5 67.5314ZM30.4223 32.3176C31.0848 29.4523 33.0191 27.0462 35.6751 25.7835L35.769 25.7389C38.4461 24.4662 41.5539 24.4662 44.231 25.7389L44.3249 25.7835C46.981 27.0462 48.9152 29.4523 49.5777 32.3176C50.2455 35.2056 49.5326 38.2584 47.6699 40.5643C45.8218 42.8519 43.0241 44.1994 40.0833 44.1994H39.9168C36.9759 44.1994 34.1782 42.8519 32.3302 40.5643C30.4674 38.2584 29.7546 35.2056 30.4223 32.3176Z" stroke="currentColor" stroke-width="4" stroke-linecap="round" stroke-linejoin="round" />
</svg>