<svg viewBox="0 0 80 80" fill="none">
  <path d="M15.9999 13.5C15.9999 12.6716 16.6715 12 17.4999 12H63.1715C63.702 12 64.2107 12.2107 64.5857 12.5858L70.5857 18.5858C71.3668 19.3668 71.3668 20.6332 70.5857 21.4142L64.5857 27.4142C64.2107 27.7893 63.702 28 63.1715 28H17.4999C16.6715 28 15.9999 27.3284 15.9999 26.5V13.5Z" fill="currentColor" fill-opacity="0.25" />
  <path d="M63.9999 35.5615C63.9999 34.7331 63.3284 34.0615 62.4999 34.0615H16.8284C16.2979 34.0615 15.7892 34.2722 15.4142 34.6473L9.41415 40.6473C8.63311 41.4284 8.63311 42.6947 9.41416 43.4757L15.4142 49.4757C15.7892 49.8508 16.2979 50.0615 16.8284 50.0615H62.4999C63.3284 50.0615 63.9999 49.3899 63.9999 48.5615V35.5615Z" fill="currentColor" fill-opacity="0.25" />
  <path d="M39.9999 8V12M39.9999 28V34.0615M39.9999 50.0615V72M17.4999 12H63.1715C63.7019 12 64.2107 12.2107 64.5857 12.5858L70.5857 18.5858C71.3668 19.3668 71.3668 20.6332 70.5857 21.4142L64.5857 27.4142C64.2107 27.7893 63.7019 28 63.1715 28H17.4999C16.6715 28 15.9999 27.3284 15.9999 26.5V13.5C15.9999 12.6716 16.6715 12 17.4999 12ZM62.4999 34.0615H16.8284C16.2979 34.0615 15.7892 34.2722 15.4142 34.6473L9.41415 40.6473C8.63311 41.4284 8.63311 42.6947 9.41416 43.4757L15.4142 49.4757C15.7892 49.8508 16.2979 50.0615 16.8284 50.0615H62.4999C63.3284 50.0615 63.9999 49.39 63.9999 48.5615V35.5615C63.9999 34.7331 63.3284 34.0615 62.4999 34.0615Z" stroke="currentColor" stroke-width="4" stroke-linecap="round" stroke-linejoin="round" />
</svg>