<svg viewBox="0 0 80 80" fill="none">
  <path fill-rule="evenodd" clip-rule="evenodd" d="M32.7939 32.9276L34.4614 36.0678C34.6057 36.3396 34.6854 36.6411 34.6942 36.9487L35.5116 65.5575C35.5425 66.6394 36.4285 67.5004 37.5108 67.5004H41.6234C42.7058 67.5004 43.5917 66.6394 43.6226 65.5575L44.4403 36.9384C44.4491 36.6301 44.5291 36.3279 44.6741 36.0556L46.3392 32.9285C44.4374 34.4565 42.0534 35.312 39.5671 35.312C37.0804 35.312 34.6959 34.4562 32.7939 32.9276Z" fill="currentColor" fill-opacity="0.15" />
  <path d="M32.7939 32.9276L34.0468 31.3687C33.3069 30.774 32.2509 30.7814 31.5194 31.3864C30.7878 31.9913 30.5823 33.0272 31.0275 33.8656L32.7939 32.9276ZM34.4614 36.0678L32.695 37.0058H32.695L34.4614 36.0678ZM34.6942 36.9487L36.6934 36.8916H36.6934L34.6942 36.9487ZM35.5116 65.5575L37.5108 65.5004L35.5116 65.5575ZM43.6226 65.5575L41.6234 65.5004L43.6226 65.5575ZM44.4403 36.9384L42.4411 36.8813V36.8813L44.4403 36.9384ZM44.6741 36.0556L46.4395 36.9956L46.4395 36.9956L44.6741 36.0556ZM46.3392 32.9285L48.1045 33.8685C48.5508 33.0302 48.3462 31.9937 47.6147 31.388C46.8833 30.7824 45.8268 30.7746 45.0865 31.3694L46.3392 32.9285ZM31.0275 33.8656L32.695 37.0058L36.2278 35.1299L34.5604 31.9896L31.0275 33.8656ZM32.695 37.0058L32.695 37.0058L36.6934 36.8916C36.6758 36.2763 36.5165 35.6735 36.2278 35.1299L32.695 37.0058ZM32.695 37.0058L33.5124 65.6147L37.5108 65.5004L36.6934 36.8916L32.695 37.0058ZM33.5124 65.6147C33.5742 67.7784 35.3461 69.5004 37.5108 69.5004V65.5004V65.5004L33.5124 65.6147ZM37.5108 69.5004H41.6234V65.5004H37.5108V69.5004ZM41.6234 69.5004C43.7881 69.5004 45.56 67.7784 45.6218 65.6147L41.6234 65.5004V69.5004ZM45.6218 65.6147L46.4395 36.9956L42.4411 36.8813L41.6234 65.5004L45.6218 65.6147ZM46.4395 36.9956L46.4395 36.9956L42.9088 35.1156C42.6188 35.6602 42.4587 36.2646 42.4411 36.8813L46.4395 36.9956ZM46.4395 36.9956L48.1045 33.8685L44.5738 31.9885L42.9088 35.1156L46.4395 36.9956ZM45.0865 31.3694C43.5363 32.6149 41.5933 33.312 39.5671 33.312V37.312C42.5135 37.312 45.3385 36.2981 47.5919 34.4876L45.0865 31.3694ZM39.5671 33.312C37.5405 33.312 35.5971 32.6146 34.0468 31.3687L31.5411 34.4865C33.7947 36.2978 36.6202 37.312 39.5671 37.312V33.312Z" fill="currentColor" />
  <path d="M34.8757 14.7586C37.8401 13.3311 41.2932 13.3311 44.2576 14.7586C47.222 16.1862 49.3751 18.886 50.1072 22.0938C50.8394 25.3015 50.071 28.6681 48.0195 31.2405C45.9681 33.8129 42.8569 35.3112 39.5667 35.3112C36.2764 35.3112 33.1652 33.8129 31.1138 31.2405C29.0623 28.6681 28.2939 25.3015 29.0261 22.0938C29.7582 18.886 31.9113 16.1862 34.8757 14.7586Z" fill="currentColor" fill-opacity="0.15" stroke="currentColor" stroke-width="4" stroke-linecap="square" stroke-linejoin="round" />
  <path d="M27.1126 24.4996C26.0081 24.4996 25.1126 25.395 25.1126 26.4996C25.1126 27.6041 26.0081 28.4996 27.1126 28.4996V24.4996ZM52.0207 28.4996C53.1252 28.4996 54.0207 27.6041 54.0207 26.4996C54.0207 25.395 53.1252 24.4996 52.0207 24.4996V28.4996ZM27.1126 28.4996L52.0207 28.4996V24.4996L27.1126 24.4996V28.4996Z" fill="currentColor" />
</svg>