<svg viewBox="0 0 80 80" fill="none">
  <path d="M12 66C12 62.6863 14.6863 60 18 60H62C65.3137 60 68 62.6863 68 66C68 67.1046 67.1046 68 66 68H14C12.8954 68 12 67.1046 12 66Z" fill="currentColor" fill-opacity="0.15" stroke="currentColor" stroke-width="4" stroke-linecap="round" stroke-linejoin="round" />
  <path fill-rule="evenodd" clip-rule="evenodd" d="M45.6785 16.0573C47.5645 16.3796 49 18.0221 49 20V43C49 43.5523 48.5523 44 48 44H32C31.4477 44 31 43.5523 31 43V20C31 18.0221 32.4355 16.3796 34.3215 16.0573C35.1288 13.697 37.3662 12 40 12C42.6338 12 44.8712 13.697 45.6785 16.0573Z" fill="currentColor" fill-opacity="0.15" />
  <path d="M45.6785 16.0573L43.7861 16.7046C44.0231 17.3974 44.6198 17.9054 45.3417 18.0287L45.6785 16.0573ZM34.3215 16.0573L34.6583 18.0287C35.3802 17.9054 35.9769 17.3974 36.2139 16.7046L34.3215 16.0573ZM45.3417 18.0287C46.2832 18.1896 47 19.0131 47 20H51C51 17.0312 48.8458 14.5695 46.0154 14.0859L45.3417 18.0287ZM47 20V43H51V20H47ZM47 43C47 42.4477 47.4477 42 48 42V46C49.6569 46 51 44.6569 51 43H47ZM48 42H32V46H48V42ZM32 42C32.5523 42 33 42.4477 33 43H29C29 44.6569 30.3431 46 32 46V42ZM33 43V20H29V43H33ZM33 20C33 19.0131 33.7168 18.1896 34.6583 18.0287L33.9846 14.0859C31.1542 14.5695 29 17.0312 29 20H33ZM36.2139 16.7046C36.7529 15.1286 38.2472 14 40 14V10C36.4852 10 33.5046 12.2655 32.4291 15.4101L36.2139 16.7046ZM40 14C41.7528 14 43.2471 15.1286 43.7861 16.7046L47.5709 15.4101C46.4954 12.2655 43.5148 10 40 10V14Z" fill="currentColor" />
  <path d="M34 44H46V51C46 51.5523 45.5523 52 45 52H35C34.4477 52 34 51.5523 34 51V44Z" fill="currentColor" fill-opacity="0.15" stroke="currentColor" stroke-width="4" stroke-linecap="round" stroke-linejoin="round" />
  <path d="M36 52H44V53C44 53.5523 43.5523 54 43 54H37C36.4477 54 36 53.5523 36 53V52Z" fill="currentColor" fill-opacity="0.15" stroke="currentColor" stroke-width="4" stroke-linecap="round" stroke-linejoin="round" />
  <path d="M40 58.0005C38.8954 58.0005 38 58.8959 38 60.0005C38 61.1051 38.8954 62.0005 40 62.0005V58.0005ZM49.1231 26.035C48.0206 25.9671 47.0718 26.8057 47.0038 27.9082C46.9358 29.0106 47.7744 29.9595 48.8769 30.0275L49.1231 26.035ZM48 58.0005H40V62.0005H48V58.0005ZM62 44.0005C62 51.7325 55.732 58.0005 48 58.0005V62.0005C57.9411 62.0005 66 53.9416 66 44.0005H62ZM48.8769 30.0275C56.1994 30.479 62 36.5631 62 44.0005H66C66 34.4365 58.542 26.6159 49.1231 26.035L48.8769 30.0275Z" fill="currentColor" />
</svg>