<svg viewBox="0 0 80 80" fill="none">
  <rect x="22" y="12" width="36" height="56" rx="16" fill="currentColor" fill-opacity="0.25" stroke="currentColor" stroke-width="4" stroke-linecap="round" stroke-linejoin="round" />
  <path d="M45 23C45 20.2386 42.7614 18 40 18V22C40.5523 22 41 22.4477 41 23H45ZM45 28V23H41V28H45ZM40 33C42.7614 33 45 30.7614 45 28H41C41 28.5523 40.5523 29 40 29V33ZM35 28C35 30.7614 37.2386 33 40 33V29C39.4477 29 39 28.5523 39 28H35ZM35 23V28H39V23H35ZM40 18C37.2386 18 35 20.2386 35 23H39C39 22.4477 39.4477 22 40 22V18Z" fill="currentColor" />
</svg>