<svg viewBox="0 0 80 80" fill="none">
  <path fill-rule="evenodd" clip-rule="evenodd" d="M69.5127 45.3679C68.6951 48.5935 65.2204 50 61.8927 50H18.9846C15.6569 50 12.1822 48.5935 11.3646 45.3679C10.1707 40.6573 11.9088 35.3197 16.579 32.4349L20.3788 30.0878C21.5986 29.3344 22.6389 28.333 23.5986 27.2678C24.1256 26.6827 24.6828 26.1255 25.2679 25.5985C26.3331 24.6388 27.3344 23.5985 28.0879 22.3787L30.4349 18.579C35.0298 11.1403 45.8475 11.1403 50.4424 18.579L52.7894 22.3786C53.5429 23.5984 54.5442 24.6387 55.6094 25.5984C56.1945 26.1255 56.7518 26.6828 57.2789 27.2678C58.2385 28.3331 59.2789 29.3344 60.4987 30.0879L64.2983 32.4349C68.9685 35.3197 70.7066 40.6573 69.5127 45.3679ZM45.799 42.9452C47.4892 43.6454 49.3884 43.6454 51.0787 42.9452C52.769 42.2451 54.1119 40.9022 54.812 39.2119C55.5122 37.5216 55.5122 35.6224 54.812 33.9322C54.1119 32.2419 52.769 30.899 51.0787 30.1988C49.3884 29.4987 47.4892 29.4987 45.799 30.1988C44.1087 30.899 42.7658 32.2419 42.0656 33.9322C41.3655 35.6224 41.3655 37.5216 42.0656 39.2119C42.7658 40.9022 44.1087 42.2451 45.799 42.9452ZM31.2806 37.0138C30.3148 37.4139 29.2295 37.4139 28.2636 37.0138C27.2978 36.6138 26.5304 35.8464 26.1303 34.8805C25.7302 33.9146 25.7302 32.8294 26.1303 31.8635C26.5304 30.8977 27.2978 30.1303 28.2636 29.7302C29.2295 29.3301 30.3148 29.3301 31.2806 29.7302C32.2465 30.1303 33.0139 30.8977 33.414 31.8635C33.814 32.8294 33.814 33.9146 33.414 34.8805C33.0139 35.8464 32.2465 36.6138 31.2806 37.0138ZM40.2179 22.9265C40.7009 23.1265 41.2435 23.1265 41.7264 22.9265C42.2094 22.7265 42.593 22.3428 42.7931 21.8598C42.9931 21.3769 42.9931 20.8343 42.7931 20.3513C42.593 19.8684 42.2094 19.4847 41.7264 19.2847C41.2435 19.0846 40.7009 19.0846 40.2179 19.2847C39.735 19.4847 39.3513 19.8684 39.1513 20.3513C38.9512 20.8343 38.9512 21.3769 39.1513 21.8598C39.3513 22.3428 39.735 22.7265 40.2179 22.9265Z" fill="currentColor" fill-opacity="0.15" />
  <path d="M16.579 32.4349L15.528 30.7334L16.579 32.4349ZM30.4349 18.579L28.7334 17.528V17.528L30.4349 18.579ZM50.4424 18.579L52.144 17.528V17.528L50.4424 18.579ZM64.2983 32.4349L65.3493 30.7334L64.2983 32.4349ZM51.0787 42.9452L51.8441 44.793L51.0787 42.9452ZM45.799 42.9452L45.0336 44.793L45.799 42.9452ZM54.812 39.2119L52.9643 38.4465V38.4465L54.812 39.2119ZM54.812 33.9322L52.9643 34.6975V34.6975L54.812 33.9322ZM51.0787 30.1988L50.3133 32.0466L51.0787 30.1988ZM45.799 30.1988L46.5643 32.0466L45.799 30.1988ZM28.2636 37.0138L29.029 35.1661L28.2636 37.0138ZM31.2806 37.0138L32.046 38.8616L31.2806 37.0138ZM26.1303 34.8805L27.9781 34.1151H27.9781L26.1303 34.8805ZM26.1303 31.8635L24.2826 31.0982H24.2825L26.1303 31.8635ZM28.2636 29.7302L29.029 31.5779L28.2636 29.7302ZM31.2806 29.7302L32.046 27.8824V27.8824L31.2806 29.7302ZM33.414 31.8635L35.2617 31.0982L33.414 31.8635ZM33.414 34.8805L31.5662 34.1151L33.414 34.8805ZM41.7264 22.9265L42.4918 24.7743H42.4918L41.7264 22.9265ZM40.2179 22.9265L39.4526 24.7743L40.2179 22.9265ZM42.7931 21.8598L44.6408 22.6252L44.6408 22.6252L42.7931 21.8598ZM42.7931 20.3513L44.6408 19.586V19.586L42.7931 20.3513ZM41.7264 19.2847L42.4918 17.4369L42.4918 17.4369L41.7264 19.2847ZM40.2179 19.2847L39.4526 17.4369L39.4525 17.4369L40.2179 19.2847ZM39.1513 20.3513L37.3035 19.586V19.586L39.1513 20.3513ZM39.1513 21.8598L37.3035 22.6252V22.6252L39.1513 21.8598ZM52.7894 22.3786L51.0878 23.4297L52.7894 22.3786ZM25.2679 25.5985L23.9292 24.1125L25.2679 25.5985ZM20.3788 30.0878L19.3277 28.3863L20.3788 30.0878ZM69.5127 45.3679L71.4514 45.8593L69.5127 45.3679ZM61.8927 48H18.9846V52H61.8927V48ZM13.3033 44.8765C12.3066 40.944 13.761 36.5264 17.6301 34.1365L15.528 30.7334C10.0567 34.113 8.03477 40.3706 9.42594 45.8593L13.3033 44.8765ZM17.6301 34.1365L21.4298 31.7894L19.3277 28.3863L15.528 30.7334L17.6301 34.1365ZM25.0845 28.6065C25.5651 28.073 26.0731 27.565 26.6066 27.0844L23.9292 24.1125C23.2926 24.6861 22.6862 25.2925 22.1126 25.9291L25.0845 28.6065ZM29.7894 23.4298L32.1365 19.6301L28.7334 17.528L26.3863 21.3277L29.7894 23.4298ZM32.1365 19.6301C35.9498 13.4566 44.9275 13.4566 48.7408 19.6301L52.144 17.528C46.7675 8.82399 34.1098 8.82401 28.7334 17.528L32.1365 19.6301ZM48.7408 19.6301L51.0878 23.4297L54.491 21.3276L52.144 17.528L48.7408 19.6301ZM54.2707 27.0843C54.8042 27.5649 55.3123 28.073 55.7929 28.6065L58.7648 25.9292C58.1912 25.2925 57.5848 24.6861 56.9481 24.1125L54.2707 27.0843ZM59.4476 31.7895L63.2472 34.1365L65.3493 30.7334L61.5497 28.3863L59.4476 31.7895ZM63.2472 34.1365C67.1164 36.5264 68.5707 40.944 67.574 44.8765L71.4514 45.8593C72.8426 40.3706 70.8206 34.113 65.3493 30.7334L63.2472 34.1365ZM50.3133 41.0975C49.1131 41.5946 47.7645 41.5946 46.5643 41.0975L45.0336 44.793C47.2139 45.6961 49.6637 45.6961 51.8441 44.793L50.3133 41.0975ZM52.9643 38.4465C52.4671 39.6467 51.5135 40.6003 50.3133 41.0975L51.8441 44.793C54.0244 43.8899 55.7567 42.1576 56.6598 39.9773L52.9643 38.4465ZM52.9643 34.6975C53.4614 35.8977 53.4614 37.2463 52.9643 38.4465L56.6598 39.9773C57.5629 37.7969 57.5629 35.3471 56.6598 33.1668L52.9643 34.6975ZM50.3133 32.0466C51.5135 32.5437 52.4671 33.4973 52.9643 34.6975L56.6598 33.1668C55.7567 30.9865 54.0244 29.2542 51.8441 28.3511L50.3133 32.0466ZM46.5643 32.0466C47.7645 31.5494 49.1131 31.5494 50.3133 32.0466L51.8441 28.3511C49.6637 27.4479 47.2139 27.4479 45.0336 28.3511L46.5643 32.0466ZM43.9134 34.6975C44.4105 33.4973 45.3641 32.5437 46.5643 32.0466L45.0336 28.3511C42.8533 29.2542 41.121 30.9865 40.2179 33.1668L43.9134 34.6975ZM43.9134 38.4465C43.4162 37.2463 43.4162 35.8977 43.9134 34.6975L40.2179 33.1668C39.3147 35.3471 39.3147 37.7969 40.2179 39.9773L43.9134 38.4465ZM46.5643 41.0975C45.3641 40.6003 44.4105 39.6467 43.9134 38.4465L40.2179 39.9773C41.121 42.1576 42.8533 43.8899 45.0336 44.793L46.5643 41.0975ZM27.4983 38.8616C28.9542 39.4647 30.5901 39.4647 32.046 38.8616L30.5153 35.1661C30.0394 35.3632 29.5048 35.3632 29.029 35.1661L27.4983 38.8616ZM24.2825 35.6459C24.8856 37.1018 26.0423 38.2585 27.4983 38.8616L29.029 35.1661C28.5532 34.969 28.1752 34.591 27.9781 34.1151L24.2825 35.6459ZM24.2825 31.0982C23.6795 32.5541 23.6795 34.19 24.2826 35.6459L27.9781 34.1151C27.781 33.6393 27.781 33.1047 27.9781 32.6289L24.2825 31.0982ZM27.4983 27.8824C26.0423 28.4855 24.8856 29.6422 24.2826 31.0982L27.9781 32.6289C28.1752 32.1531 28.5532 31.775 29.029 31.5779L27.4983 27.8824ZM32.046 27.8824C30.5901 27.2794 28.9542 27.2794 27.4983 27.8824L29.029 31.5779C29.5048 31.3809 30.0394 31.3809 30.5153 31.5779L32.046 27.8824ZM35.2617 31.0982C34.6587 29.6422 33.5019 28.4855 32.046 27.8824L30.5153 31.5779C30.9911 31.775 31.3691 32.1531 31.5662 32.6289L35.2617 31.0982ZM35.2617 35.6459C35.8648 34.19 35.8648 32.5541 35.2617 31.0982L31.5662 32.6289C31.7633 33.1047 31.7633 33.6393 31.5662 34.1151L35.2617 35.6459ZM32.046 38.8616C33.5019 38.2585 34.6587 37.1018 35.2617 35.6459L31.5662 34.1151C31.3691 34.591 30.9911 34.969 30.5153 35.1661L32.046 38.8616ZM40.961 21.0787C40.9682 21.0758 40.9762 21.0758 40.9833 21.0787L39.4526 24.7743C40.4255 25.1773 41.5188 25.1773 42.4918 24.7743L40.961 21.0787ZM40.9453 21.0945C40.9483 21.0873 40.9539 21.0817 40.961 21.0787L42.4918 24.7743C43.4648 24.3712 44.2378 23.5982 44.6408 22.6252L40.9453 21.0945ZM40.9453 21.1167C40.9424 21.1096 40.9424 21.1016 40.9453 21.0945L44.6408 22.6252C45.0439 21.6522 45.0439 20.559 44.6408 19.586L40.9453 21.1167ZM40.961 21.1324C40.9539 21.1295 40.9483 21.1238 40.9453 21.1167L44.6408 19.586C44.2378 18.613 43.4648 17.8399 42.4918 17.4369L40.961 21.1324ZM40.9833 21.1324C40.9762 21.1354 40.9682 21.1354 40.9611 21.1324L42.4918 17.4369C41.5188 17.0339 40.4255 17.0339 39.4526 17.4369L40.9833 21.1324ZM40.999 21.1167C40.9961 21.1238 40.9904 21.1295 40.9833 21.1324L39.4525 17.4369C38.4796 17.8399 37.7065 18.613 37.3035 19.586L40.999 21.1167ZM40.999 21.0945C41.002 21.1016 41.002 21.1096 40.999 21.1167L37.3035 19.586C36.9005 20.559 36.9005 21.6522 37.3035 22.6252L40.999 21.0945ZM40.9833 21.0787C40.9904 21.0817 40.9961 21.0873 40.999 21.0945L37.3035 22.6252C37.7065 23.5982 38.4796 24.3712 39.4526 24.7743L40.9833 21.0787ZM55.7929 28.6065C56.8071 29.7322 57.9947 30.892 59.4476 31.7895L61.5497 28.3863C60.563 27.7769 59.67 26.9339 58.7648 25.9292L55.7929 28.6065ZM51.0878 23.4297C51.9853 24.8826 53.1451 26.0702 54.2707 27.0843L56.9481 24.1125C55.9434 23.2073 55.1004 22.3142 54.491 21.3276L51.0878 23.4297ZM26.6066 27.0844C27.7322 26.0702 28.892 24.8827 29.7894 23.4298L26.3863 21.3277C25.7768 22.3143 24.9339 23.2074 23.9292 24.1125L26.6066 27.0844ZM21.4298 31.7894C22.8828 30.8919 24.0703 29.7322 25.0845 28.6065L22.1126 25.9291C21.2075 26.9339 20.3144 27.7768 19.3277 28.3863L21.4298 31.7894ZM18.9846 48C15.967 48 13.7756 46.7396 13.3033 44.8765L9.42594 45.8593C10.5889 50.4475 15.3468 52 18.9846 52V48ZM61.8927 52C65.5305 52 70.2884 50.4475 71.4514 45.8593L67.574 44.8765C67.1018 46.7396 64.9103 48 61.8927 48V52Z" fill="currentColor" />
  <path d="M45.799 42.9451C47.4892 43.6452 49.3884 43.6452 51.0787 42.9451C52.769 42.245 54.1119 40.902 54.812 39.2118C55.5122 37.5215 55.5122 35.6223 54.812 33.932C54.1119 32.2418 52.769 30.8988 51.0787 30.1987C49.3884 29.4986 47.4892 29.4986 45.799 30.1987C44.1087 30.8988 42.7658 32.2418 42.0656 33.932C41.3655 35.6223 41.3655 37.5215 42.0656 39.2118C42.7658 40.902 44.1087 42.245 45.799 42.9451Z" fill="currentColor" fill-opacity="0.15" stroke="currentColor" stroke-width="4" stroke-linecap="round" stroke-linejoin="round" />
  <path d="M28.2638 37.0133C29.2297 37.4134 30.3149 37.4134 31.2808 37.0133C32.2466 36.6133 33.014 35.8459 33.4141 34.88C33.8142 33.9141 33.8142 32.8289 33.4141 31.863C33.014 30.8972 32.2466 30.1298 31.2808 29.7297C30.3149 29.3296 29.2297 29.3296 28.2638 29.7297C27.2979 30.1298 26.5305 30.8972 26.1305 31.863C25.7304 32.8289 25.7304 33.9141 26.1305 34.88C26.5305 35.8459 27.2979 36.6133 28.2638 37.0133Z" fill="currentColor" fill-opacity="0.15" stroke="currentColor" stroke-width="4" stroke-linecap="round" stroke-linejoin="round" />
  <path d="M40.2177 22.9259C40.7006 23.1259 41.2433 23.1259 41.7262 22.9259C42.2091 22.7258 42.5928 22.3421 42.7929 21.8592C42.9929 21.3763 42.9929 20.8336 42.7929 20.3507C42.5928 19.8678 42.2091 19.4841 41.7262 19.284C41.2433 19.084 40.7006 19.084 40.2177 19.284C39.7348 19.4841 39.3511 19.8678 39.151 20.3507C38.951 20.8336 38.951 21.3763 39.151 21.8592C39.3511 22.3421 39.7348 22.7258 40.2177 22.9259Z" fill="currentColor" fill-opacity="0.15" stroke="currentColor" stroke-width="4" stroke-linecap="round" stroke-linejoin="round" />
  <path fill-rule="evenodd" clip-rule="evenodd" d="M36.9109 50C36.3587 50 35.9109 50.4477 35.9109 51V60.8342C35.9109 61.8966 35.6289 62.9399 35.0936 63.8575L34.1377 65.4961C33.7488 66.1628 34.2297 67 35.0015 67H36.9109H42.9109H45.5194C46.2912 67 46.7721 66.1628 46.3832 65.4961L44.7283 62.6591C44.193 61.7415 43.9109 60.6982 43.9109 59.6358V51C43.9109 50.4477 43.4632 50 42.9109 50H36.9109Z" fill="currentColor" fill-opacity="0.15" />
  <path d="M34.1377 65.4961L35.8653 66.5039H35.8653L34.1377 65.4961ZM46.3832 65.4961L48.1108 64.4884V64.4884L46.3832 65.4961ZM35.0936 63.8575L33.3661 62.8497L35.0936 63.8575ZM37.9109 51C37.9109 51.5523 37.4632 52 36.9109 52V48C35.2541 48 33.9109 49.3431 33.9109 51H37.9109ZM37.9109 60.8342V51H33.9109V60.8342H37.9109ZM35.8653 66.5039L36.8212 64.8652L33.3661 62.8497L32.4102 64.4884L35.8653 66.5039ZM35.0015 65C35.7733 65 36.2542 65.8372 35.8653 66.5039L32.4102 64.4884C31.2435 66.4884 32.6861 69 35.0015 69V65ZM36.9109 65H35.0015V69H36.9109V65ZM42.9109 65H36.9109V69H42.9109V65ZM45.5194 65H42.9109V69H45.5194V65ZM44.6557 66.5039C44.2668 65.8372 44.7476 65 45.5194 65V69C47.8348 69 49.2774 66.4884 48.1108 64.4884L44.6557 66.5039ZM43.0007 63.6668L44.6557 66.5039L48.1108 64.4884L46.4558 61.6513L43.0007 63.6668ZM41.9109 51V59.6358H45.9109V51H41.9109ZM42.9109 52C42.3587 52 41.9109 51.5523 41.9109 51H45.9109C45.9109 49.3431 44.5678 48 42.9109 48V52ZM36.9109 52H42.9109V48H36.9109V52ZM46.4558 61.6513C46.099 61.0396 45.9109 60.3441 45.9109 59.6358H41.9109C41.9109 61.0523 42.287 62.4433 43.0007 63.6668L46.4558 61.6513ZM33.9109 60.8342C33.9109 61.5425 33.7229 62.238 33.3661 62.8497L36.8212 64.8652C37.5349 63.6417 37.9109 62.2507 37.9109 60.8342H33.9109Z" fill="currentColor" />
</svg>