<svg viewBox="0 0 80 80" fill="none">
  <path fill-rule="evenodd" clip-rule="evenodd" d="M22 13.5L30 13.5C30 15.7091 31.7909 17.5 34 17.5H46C48.2091 17.5 50 15.7091 50 13.5L58 13.5C60.2091 13.5 62 15.2909 62 17.5L62 65.5C62 67.7091 60.2091 69.5 58 69.5H22C19.7909 69.5 18 67.7091 18 65.5L18 17.5C18 15.2909 19.7909 13.5 22 13.5Z" fill="currentColor" fill-opacity="0.15" />
  <path d="M30 13.5H32V11.5H30V13.5ZM50 13.5V11.5H48V13.5H50ZM30 11.5L22 11.5V15.5L30 15.5V11.5ZM34 15.5C32.8954 15.5 32 14.6046 32 13.5H28C28 16.8137 30.6863 19.5 34 19.5V15.5ZM46 15.5H34V19.5H46V15.5ZM48 13.5C48 14.6046 47.1046 15.5 46 15.5V19.5C49.3137 19.5 52 16.8137 52 13.5H48ZM58 11.5L50 11.5V15.5L58 15.5V11.5ZM64 17.5C64 14.1863 61.3137 11.5 58 11.5V15.5C59.1046 15.5 60 16.3954 60 17.5H64ZM64 65.5L64 17.5H60L60 65.5H64ZM58 71.5C61.3137 71.5 64 68.8137 64 65.5H60C60 66.6046 59.1046 67.5 58 67.5V71.5ZM22 71.5H58V67.5H22L22 71.5ZM16 65.5C16 68.8137 18.6863 71.5 22 71.5L22 67.5C20.8954 67.5 20 66.6046 20 65.5H16ZM16 17.5L16 65.5H20L20 17.5H16ZM22 11.5C18.6863 11.5 16 14.1863 16 17.5H20C20 16.3954 20.8954 15.5 22 15.5V11.5Z" fill="currentColor" />
  <rect x="30" y="9.5" width="20" height="8" rx="4" fill="currentColor" fill-opacity="0.15" stroke="currentColor" stroke-width="4" />
  <rect x="37" y="7.5" width="6" height="2" rx="1" stroke="currentColor" stroke-width="4" />
  <path fill-rule="evenodd" clip-rule="evenodd" d="M35.9999 50.8078V52.8078C35.9999 53.9123 36.8954 54.8078 37.9999 54.8078H41.9999C43.1045 54.8078 43.9999 53.9123 43.9999 52.8078V50.8078V48.5001V48.2693V48.0385V47.8078V47.577V47.3462V47.1155V46.8847V46.6539V46.5385C43.9999 46.5174 44.0171 46.5002 44.0383 46.5002H44.1537H44.3844H44.6152H44.846H45.0768H48.3075H50.3075C51.4121 46.5002 52.3075 45.6048 52.3075 44.5002V40.5002C52.3075 39.3956 51.4121 38.5002 50.3075 38.5002H48.3075H45.0768H44.846H44.6152H44.3844H44.1537H44.0385C44.0172 38.5002 43.9999 38.4829 43.9999 38.4616V38.3462V38.2308V38.1155V38.0001V37.8847V37.7693V37.6539V37.5385V37.4232V37.1924V36.9616V36.7308V36.5001V36.2693V36.0385V36.0385L43.9999 35.8078V35.8077V35.577L43.9999 34.1924L44 32.1924C44 31.0878 43.1045 30.1924 42 30.1924L38 30.1924C36.8954 30.1924 36 31.0878 36 32.1924L35.9999 34.1924L35.9999 35.577V35.8078V35.8078L35.9999 36.0385V36.0386V36.2693V36.5001V36.7308V36.9616V37.1924V37.4232V37.5385V37.6539V37.7693V37.8847V38.0001V38.1155V38.2308V38.3462V38.4616C35.9999 38.4829 35.9827 38.5002 35.9614 38.5002H35.846H31.6921H29.6921C28.5876 38.5002 27.6921 39.3956 27.6921 40.5002L27.6921 44.5002C27.6921 45.6048 28.5876 46.5002 29.6921 46.5002H31.6921L35.846 46.5002H35.9616C35.9828 46.5002 35.9999 46.5174 35.9999 46.5385V46.6539V46.8847V47.1155V47.3462V47.577V47.8078V48.0385V48.2693V48.5001V50.8078Z" fill="currentColor" fill-opacity="0.15" />
  <path d="M43.9999 36.0385H45.9999V36.0385L43.9999 36.0385ZM43.9999 35.8078H41.9999V35.8078L43.9999 35.8078ZM43.9999 35.577L41.9999 35.577V35.577H43.9999ZM43.9999 34.1924L45.9999 34.1924V34.1924L43.9999 34.1924ZM35.9999 34.1924L37.9999 34.1924V34.1924L35.9999 34.1924ZM35.9999 35.577L33.9999 35.577V35.577H35.9999ZM35.9999 35.8078H33.9999V35.8078L35.9999 35.8078ZM35.9999 36.0385H37.9999V36.0385L35.9999 36.0385ZM31.6921 46.5002V48.5002H31.6921L31.6921 46.5002ZM35.846 46.5002V44.5002H35.846L35.846 46.5002ZM44 32.1924L46 32.1924L44 32.1924ZM36 32.1924L34 32.1924L36 32.1924ZM37.9999 52.8078V50.8078H33.9999V52.8078H37.9999ZM41.9999 52.8078H37.9999V56.8078H41.9999V52.8078ZM41.9999 50.8078V52.8078H45.9999V50.8078H41.9999ZM41.9999 48.5001V50.8078H45.9999V48.5001H41.9999ZM41.9999 48.2693V48.5001H45.9999V48.2693H41.9999ZM41.9999 48.0385V48.2693H45.9999V48.0385H41.9999ZM41.9999 47.8078V48.0385H45.9999V47.8078H41.9999ZM41.9999 47.577V47.8078H45.9999V47.577H41.9999ZM41.9999 47.3462V47.577H45.9999V47.3462H41.9999ZM41.9999 47.1155V47.3462H45.9999V47.1155H41.9999ZM41.9999 46.8847V47.1155H45.9999V46.8847H41.9999ZM41.9999 46.6539V46.8847H45.9999V46.6539H41.9999ZM41.9999 46.5385V46.6539H45.9999V46.5385H41.9999ZM44.1537 44.5002H44.0383V48.5002H44.1537V44.5002ZM44.3844 44.5002H44.1537V48.5002H44.3844V44.5002ZM44.6152 44.5002H44.3844V48.5002H44.6152V44.5002ZM44.846 44.5002H44.6152V48.5002H44.846V44.5002ZM45.0768 44.5002H44.846V48.5002H45.0768V44.5002ZM48.3075 44.5002H45.0768V48.5002H48.3075V44.5002ZM50.3075 44.5002H48.3075V48.5002H50.3075V44.5002ZM50.3075 40.5002V44.5002H54.3075V40.5002H50.3075ZM48.3075 40.5002H50.3075V36.5002H48.3075V40.5002ZM45.0768 40.5002H48.3075V36.5002H45.0768V40.5002ZM44.846 40.5002H45.0768V36.5002H44.846V40.5002ZM44.6152 40.5002H44.846V36.5002H44.6152V40.5002ZM44.3844 40.5002H44.6152V36.5002H44.3844V40.5002ZM44.1537 40.5002H44.3844V36.5002H44.1537V40.5002ZM44.0385 40.5002H44.1537V36.5002H44.0385V40.5002ZM41.9999 38.3462V38.4616H45.9999V38.3462H41.9999ZM41.9999 38.2308V38.3462H45.9999V38.2308H41.9999ZM41.9999 38.1155V38.2308H45.9999V38.1155H41.9999ZM41.9999 38.0001V38.1155H45.9999V38.0001H41.9999ZM41.9999 37.8847V38.0001H45.9999V37.8847H41.9999ZM41.9999 37.7693V37.8847H45.9999V37.7693H41.9999ZM41.9999 37.6539V37.7693H45.9999V37.6539H41.9999ZM41.9999 37.5385V37.6539H45.9999V37.5385H41.9999ZM41.9999 37.4232V37.5385H45.9999V37.4232H41.9999ZM41.9999 37.1924V37.4232H45.9999V37.1924H41.9999ZM41.9999 36.9616V37.1924H45.9999V36.9616H41.9999ZM41.9999 36.7308V36.9616H45.9999V36.7308H41.9999ZM41.9999 36.5001V36.7308H45.9999V36.5001H41.9999ZM41.9999 36.2693V36.5001H45.9999V36.2693H41.9999ZM41.9999 36.0385V36.2693H45.9999V36.0385H41.9999ZM41.9999 36.0385V36.0385H45.9999V36.0385H41.9999ZM41.9999 35.8078L41.9999 36.0385L45.9999 36.0385L45.9999 35.8078L41.9999 35.8078ZM41.9999 35.8077V35.8078H45.9999V35.8077H41.9999ZM41.9999 35.577V35.8077H45.9999V35.577H41.9999ZM41.9999 34.1924L41.9999 35.577L45.9999 35.577L45.9999 34.1924L41.9999 34.1924ZM42 32.1924L41.9999 34.1924L45.9999 34.1924L46 32.1924L42 32.1924ZM38 32.1924L42 32.1924L42 28.1924L38 28.1924L38 32.1924ZM37.9999 34.1924L38 32.1924L34 32.1924L33.9999 34.1924L37.9999 34.1924ZM37.9999 35.577L37.9999 34.1924L33.9999 34.1924L33.9999 35.577L37.9999 35.577ZM37.9999 35.8078V35.577H33.9999V35.8078H37.9999ZM37.9999 35.8078V35.8078H33.9999V35.8078H37.9999ZM37.9999 36.0385L37.9999 35.8078L33.9999 35.8078L33.9999 36.0385L37.9999 36.0385ZM37.9999 36.0386V36.0385H33.9999V36.0386H37.9999ZM37.9999 36.2693V36.0386H33.9999V36.2693H37.9999ZM37.9999 36.5001V36.2693H33.9999V36.5001H37.9999ZM37.9999 36.7308V36.5001H33.9999V36.7308H37.9999ZM37.9999 36.9616V36.7308H33.9999V36.9616H37.9999ZM37.9999 37.1924V36.9616H33.9999V37.1924H37.9999ZM37.9999 37.4232V37.1924H33.9999V37.4232H37.9999ZM37.9999 37.5385V37.4232H33.9999V37.5385H37.9999ZM37.9999 37.6539V37.5385H33.9999V37.6539H37.9999ZM37.9999 37.7693V37.6539H33.9999V37.7693H37.9999ZM37.9999 37.8847V37.7693H33.9999V37.8847H37.9999ZM37.9999 38.0001V37.8847H33.9999V38.0001H37.9999ZM37.9999 38.1155V38.0001H33.9999V38.1155H37.9999ZM37.9999 38.2308V38.1155H33.9999V38.2308H37.9999ZM37.9999 38.3462V38.2308H33.9999V38.3462H37.9999ZM37.9999 38.4616V38.3462H33.9999V38.4616H37.9999ZM35.846 40.5002H35.9614V36.5002H35.846V40.5002ZM31.6921 40.5002H35.846V36.5002H31.6921V40.5002ZM29.6921 40.5002H31.6921V36.5002H29.6921V40.5002ZM29.6921 44.5002L29.6921 40.5002H25.6921L25.6921 44.5002H29.6921ZM31.6921 44.5002H29.6921V48.5002H31.6921V44.5002ZM35.846 44.5002L31.6921 44.5002L31.6921 48.5002L35.846 48.5002L35.846 44.5002ZM35.9616 44.5002H35.846V48.5002H35.9616V44.5002ZM37.9999 46.6539V46.5385H33.9999V46.6539H37.9999ZM37.9999 46.8847V46.6539H33.9999V46.8847H37.9999ZM37.9999 47.1155V46.8847H33.9999V47.1155H37.9999ZM37.9999 47.3462V47.1155H33.9999V47.3462H37.9999ZM37.9999 47.577V47.3462H33.9999V47.577H37.9999ZM37.9999 47.8078V47.577H33.9999V47.8078H37.9999ZM37.9999 48.0385V47.8078H33.9999V48.0385H37.9999ZM37.9999 48.2693V48.0385H33.9999V48.2693H37.9999ZM37.9999 48.5001V48.2693H33.9999V48.5001H37.9999ZM37.9999 50.8078V48.5001H33.9999V50.8078H37.9999ZM35.9616 48.5002C34.8782 48.5002 33.9999 47.6219 33.9999 46.5385H37.9999C37.9999 45.4128 37.0874 44.5002 35.9616 44.5002V48.5002ZM25.6921 44.5002C25.6921 46.7093 27.483 48.5002 29.6921 48.5002V44.5002H25.6921ZM46 32.1924C46 29.9833 44.2091 28.1924 42 28.1924L42 32.1924V32.1924L46 32.1924ZM33.9999 38.4616C33.9999 37.3784 34.8781 36.5002 35.9614 36.5002V40.5002C37.0872 40.5002 37.9999 39.5875 37.9999 38.4616H33.9999ZM38 28.1924C35.7908 28.1924 34 29.9832 34 32.1924L38 32.1924V32.1924L38 28.1924ZM44.0385 36.5002C45.1218 36.5002 45.9999 37.3784 45.9999 38.4616H41.9999C41.9999 39.5875 42.9127 40.5002 44.0385 40.5002V36.5002ZM50.3075 48.5002C52.5167 48.5002 54.3075 46.7093 54.3075 44.5002H50.3075V48.5002ZM45.9999 46.5385C45.9999 47.6219 45.1217 48.5002 44.0383 48.5002V44.5002C42.9125 44.5002 41.9999 45.4128 41.9999 46.5385H45.9999ZM29.6921 36.5002C27.483 36.5002 25.6921 38.2911 25.6921 40.5002H29.6921V36.5002ZM33.9999 52.8078C33.9999 55.0169 35.7908 56.8078 37.9999 56.8078V52.8078H33.9999ZM54.3075 40.5002C54.3075 38.2911 52.5167 36.5002 50.3075 36.5002V40.5002H54.3075ZM41.9999 56.8078C44.2091 56.8078 45.9999 55.0169 45.9999 52.8078H41.9999V56.8078Z" fill="currentColor" />
</svg>