<svg viewBox="0 0 80 80" fill="none">
  <path d="M22 13.5H30C30 15.7091 31.7909 17.5 34 17.5H46C48.2091 17.5 50 15.7091 50 13.5H58C60.2091 13.5 62 15.2909 62 17.5V65.5C62 67.7091 60.2091 69.5 58 69.5H22C19.7909 69.5 18 67.7091 18 65.5V17.5C18 15.2909 19.7909 13.5 22 13.5Z" fill="currentColor" fill-opacity="0.25" />
  <path d="M30 13.5C30 11.2909 31.7909 9.5 34 9.5H46C48.2091 9.5 50 11.2909 50 13.5C50 15.7091 48.2091 17.5 46 17.5H34C31.7909 17.5 30 15.7091 30 13.5Z" fill="currentColor" fill-opacity="0.25" />
  <path d="M37 8.5C37 7.94772 37.4477 7.5 38 7.5H42C42.5523 7.5 43 7.94772 43 8.5C43 9.05228 42.5523 9.5 42 9.5H38C37.4477 9.5 37 9.05228 37 8.5Z" fill="currentColor" fill-opacity="0.25" />
  <path d="M36 52.8077C36 53.9122 36.8954 54.8077 38 54.8077H42C43.1045 54.8077 44 53.9122 44 52.8077V46.5384C44 46.5173 44.0171 46.5001 44.0383 46.5001H50.3076C51.4121 46.5001 52.3076 45.6047 52.3076 44.5001V40.5001C52.3076 39.3955 51.4121 38.5001 50.3076 38.5001H44.0386C44.0173 38.5001 44 38.4828 44 38.4615L44 32.1923C44 31.0877 43.1046 30.1923 42 30.1923L38 30.1923C36.8954 30.1923 36 31.0877 36 32.1923L36 38.4615C36 38.4828 35.9827 38.5001 35.9614 38.5001H29.6922C28.5876 38.5001 27.6922 39.3955 27.6922 40.5001V44.5001C27.6922 45.6047 28.5876 46.5001 29.6922 46.5001L35.9616 46.5001C35.9828 46.5001 36 46.5173 36 46.5384V52.8077Z" fill="currentColor" fill-opacity="0.25" />
  <path d="M30 13.5H22C19.7909 13.5 18 15.2909 18 17.5V65.5C18 67.7091 19.7909 69.5 22 69.5H58C60.2091 69.5 62 67.7091 62 65.5V17.5C62 15.2909 60.2091 13.5 58 13.5H50M30 13.5C30 15.7091 31.7909 17.5 34 17.5H46C48.2091 17.5 50 15.7091 50 13.5M30 13.5C30 11.2909 31.7909 9.5 34 9.5H46C48.2091 9.5 50 11.2909 50 13.5M38 9.5H42C42.5523 9.5 43 9.05228 43 8.5C43 7.94772 42.5523 7.5 42 7.5H38C37.4477 7.5 37 7.94772 37 8.5C37 9.05228 37.4477 9.5 38 9.5ZM44 46.5384C44 46.5172 44.0171 46.5001 44.0383 46.5001H50.3076C51.4121 46.5001 52.3076 45.6047 52.3076 44.5001V40.5001C52.3076 39.3955 51.4121 38.5001 50.3076 38.5001H44.0386C44.0173 38.5001 44 38.4828 44 38.4615L44 32.1923C44 31.0877 43.1046 30.1923 42 30.1923L38 30.1923C36.8954 30.1923 36 31.0877 36 32.1923L36 38.4615C36 38.4828 35.9827 38.5001 35.9614 38.5001H29.6922C28.5876 38.5001 27.6922 39.3955 27.6922 40.5001V44.5001C27.6922 45.6047 28.5876 46.5001 29.6922 46.5001L35.9616 46.5001C35.9828 46.5001 36 46.5172 36 46.5384V52.8077C36 53.9122 36.8954 54.8077 38 54.8077H42C43.1045 54.8077 44 53.9122 44 52.8077V46.5384Z" stroke="currentColor" stroke-linecap="round" stroke-linejoin="round" />
</svg>