<svg viewBox="0 0 80 80" fill="none">
  <path d="M45.1699 15.1763C44.4199 14.4264 43.4027 14.0051 42.3422 14.0049L24.0004 14.0029C21.7911 14.0027 20 15.7936 20 18.0029L20 62.0025C20 64.2116 21.7909 66.0025 24 66.0025H56C58.2091 66.0025 60 64.2116 60 62.0025V31.6607C60 30.5997 59.5785 29.5822 58.8282 28.832L58.6276 28.6315C59.0867 29.1579 58.7174 30.001 58 30.001H48C45.7909 30.001 44 28.2101 44 26.001V16.001C44 15.2909 44.8261 14.9218 45.3534 15.3598L45.1699 15.1763Z" fill="currentColor" fill-opacity="0.25" />
  <path d="M58.5858 28.5861L45.4142 15.4145C44.8923 14.8926 44 15.2629 44 16.001V26.001C44 28.2101 45.7909 30.001 48 30.001H58C58.738 30.001 59.1077 29.1079 58.5858 28.5861Z" fill="currentColor" fill-opacity="0.25" />
  <path d="M58 30.001C58.7174 30.001 59.0867 29.1579 58.6276 28.6315L58.8282 28.832C59.5785 29.5822 60 30.5997 60 31.6607V62.0025C60 64.2116 58.2091 66.0025 56 66.0025H24C21.7909 66.0025 20 64.2116 20 62.0025L20 18.0029C20 15.7936 21.7911 14.0027 24.0004 14.0029L42.3422 14.0049C43.4027 14.0051 44.4199 14.4264 45.1699 15.1763L45.3534 15.3598C44.8261 14.9218 44 15.2909 44 16.001M58 30.001H48C45.7909 30.001 44 28.2101 44 26.001V16.001M58 30.001C58.738 30.001 59.1077 29.1079 58.5858 28.5861L45.4142 15.4145C44.8923 14.8926 44 15.2629 44 16.001M12 44.0003H24M34 44.0003H46M56 44.0003H68" stroke="currentColor" stroke-linecap="round" stroke-linejoin="round" />
</svg>