<svg viewBox="0 0 80 80" fill="none">
  <path fill-rule="evenodd" clip-rule="evenodd" d="M45.1699 15.1763C44.4199 14.4264 43.4027 14.0051 42.3422 14.0049L24.0004 14.0029C21.7911 14.0027 20 15.7936 20 18.0029L20 62.0025C20 64.2116 21.7909 66.0025 24 66.0025H56C58.2091 66.0025 60 64.2116 60 62.0025L60 31.6607C60 30.5997 59.5785 29.5822 58.8282 28.832L58.6276 28.6315C59.0867 29.1579 58.7174 30.001 58 30.001H48C45.7909 30.001 44 28.2101 44 26.001V16.001C44 15.2909 44.8261 14.9218 45.3534 15.3598L45.1699 15.1763Z" fill="currentColor" fill-opacity="0.25" />
  <path d="M42.3422 14.0049L42.3419 16.0049L42.3422 14.0049ZM45.1699 15.1763L43.7558 16.5906L45.1699 15.1763ZM24.0004 14.0029L24.0007 12.0029L24.0004 14.0029ZM20 18.0029L22 18.0029L20 18.0029ZM20 62.0025H18H20ZM58.8282 28.832L57.4141 30.2464L57.4141 30.2464L58.8282 28.832ZM58.6276 28.6315L60.0416 27.2171C59.2793 26.4549 58.0501 26.4341 57.2623 27.1699C56.4746 27.9057 56.4117 29.1335 57.1202 29.946L58.6276 28.6315ZM45.3534 15.3598L44.0757 16.8984C44.8978 17.5812 46.1115 17.4969 46.8315 16.7071C47.5515 15.9173 47.5233 14.7011 46.7675 13.9454L45.3534 15.3598ZM42.3419 16.0049C42.8722 16.005 43.3808 16.2157 43.7558 16.5906L46.584 13.7619C45.4589 12.6371 43.9333 12.0051 42.3424 12.0049L42.3419 16.0049ZM24.0002 16.0029L42.3419 16.0049L42.3424 12.0049L24.0007 12.0029L24.0002 16.0029ZM22 18.0029C22 16.8983 22.8956 16.0028 24.0002 16.0029L24.0007 12.0029C20.6867 12.0026 18 14.689 18 18.0029L22 18.0029ZM22 62.0025L22 18.0029L18 18.0029L18 62.0025H22ZM24 64.0025C22.8954 64.0025 22 63.1071 22 62.0025H18C18 65.3162 20.6863 68.0025 24 68.0025V64.0025ZM56 64.0025H24V68.0025H56V64.0025ZM58 62.0025C58 63.1071 57.1046 64.0025 56 64.0025V68.0025C59.3137 68.0025 62 65.3162 62 62.0025H58ZM58 31.6607L58 62.0025H62L62 31.6607H58ZM57.4141 30.2464C57.7892 30.6215 58 31.1302 58 31.6607H62C62 30.0692 61.3677 28.543 60.2423 27.4177L57.4141 30.2464ZM57.2135 30.0458L57.4141 30.2464L60.2423 27.4177L60.0416 27.2171L57.2135 30.0458ZM58 32.001C60.4567 32.001 61.7075 29.1202 60.1349 27.317L57.1202 29.946C56.4659 29.1956 56.978 28.001 58 28.001V32.001ZM48 32.001L58 32.001V28.001H48V32.001ZM42 26.001C42 29.3147 44.6863 32.001 48 32.001V28.001C46.8954 28.001 46 27.1055 46 26.001H42ZM42 16.001V26.001H46V16.001H42ZM46.6312 13.8212C44.824 12.3203 42 13.5664 42 16.001H46C46 17.0153 44.8282 17.5233 44.0757 16.8984L46.6312 13.8212ZM43.7558 16.5906L43.9394 16.7741L46.7675 13.9454L46.584 13.7619L43.7558 16.5906Z" fill="currentColor" />
  <path d="M58.5858 28.586L45.4142 15.4145C44.8923 14.8926 44 15.2622 44 16.0002V26.0002C44 28.2094 45.7909 30.0002 48 30.0002L58 30.0002C58.738 30.0002 59.1077 29.1079 58.5858 28.586Z" fill="currentColor" fill-opacity="0.25" />
  <path d="M45.4142 15.4145L46.8284 14.0003L45.4142 15.4145ZM58.5858 28.586L57.1716 30.0002V30.0002L58.5858 28.586ZM44 16.8287L57.1716 30.0002L60 27.1718L46.8284 14.0003L44 16.8287ZM42 16.0002V26.0002H46V16.0002H42ZM48 32.0002H58V28.0002H48V32.0002ZM42 26.0002C42 29.3139 44.6863 32.0002 48 32.0002V28.0002C46.8954 28.0002 46 27.1048 46 26.0002H42ZM57.1716 30.0002C56.4335 29.2622 56.9562 28.0002 58 28.0002V32.0002C60.5199 32.0002 61.7818 28.9536 60 27.1718L57.1716 30.0002ZM46.8284 14.0003C45.0466 12.2185 42 13.4804 42 16.0002H46C46 17.044 44.738 17.5667 44 16.8287L46.8284 14.0003Z" fill="currentColor" />
  <path d="M12 44.0002H24" stroke="currentColor" stroke-width="4" stroke-linecap="round" stroke-linejoin="round" />
  <path d="M34 44.0002H46" stroke="currentColor" stroke-width="4" stroke-linecap="round" stroke-linejoin="round" />
  <path d="M56 44.0002H68" stroke="currentColor" stroke-width="4" stroke-linecap="round" stroke-linejoin="round" />
</svg>