<svg viewBox="0 0 80 80" fill="none">
  <path fill-rule="evenodd" clip-rule="evenodd" d="M35.9115 31.1598C36.5692 31.5107 37.2751 31.7847 38.0175 31.9703C40.2585 32.5306 42.5918 32.2239 44.5776 31.1721C48.6237 32.0244 51.471 35.9219 50.8245 40.1964L46.5341 68.5623C46.0612 71.6887 43.3741 74 40.2121 74C37.0497 74 34.3623 71.6881 33.8899 68.5612L29.6046 40.195C28.9557 35.8999 31.8342 31.986 35.9115 31.1598Z" fill="currentColor" fill-opacity="0.15" />
  <path d="M35.9115 31.1598L36.8529 29.3952C36.443 29.1765 35.9697 29.1074 35.5143 29.1996L35.9115 31.1598ZM38.0175 31.9703L37.5324 33.9106L38.0175 31.9703ZM44.5776 31.1721L44.9898 29.2151C44.532 29.1187 44.0549 29.1858 43.6415 29.4047L44.5776 31.1721ZM50.8245 40.1964L48.847 39.8973L50.8245 40.1964ZM46.5341 68.5623L48.5116 68.8614L46.5341 68.5623ZM33.8899 68.5612L31.9124 68.8599L33.8899 68.5612ZM29.6046 40.195L31.5822 39.8962L29.6046 40.195ZM34.9701 32.9244C35.7707 33.3515 36.6297 33.6849 37.5324 33.9106L38.5025 30.03C37.9205 29.8845 37.3677 29.6698 36.8529 29.3952L34.9701 32.9244ZM37.5324 33.9106C40.2593 34.5923 43.0982 34.2189 45.5137 32.9395L43.6415 29.4047C42.0855 30.2289 40.2577 30.4688 38.5025 30.03L37.5324 33.9106ZM52.802 40.4955C53.6107 35.1487 50.0489 30.2807 44.9898 29.2151L44.1654 33.1292C47.1985 33.7681 49.3313 36.6951 48.847 39.8973L52.802 40.4955ZM48.5116 68.8614L52.802 40.4955L48.847 39.8973L44.5565 68.2632L48.5116 68.8614ZM40.2121 76C44.3631 76 47.8908 72.9658 48.5116 68.8614L44.5565 68.2632C44.2316 70.4117 42.385 72 40.2121 72V76ZM31.9124 68.8599C32.5325 72.965 36.0605 76 40.2121 76V72C38.0389 72 36.1921 70.4113 35.8675 68.2624L31.9124 68.8599ZM27.627 40.4937L31.9124 68.8599L35.8675 68.2624L31.5822 39.8962L27.627 40.4937ZM35.5143 29.1996C30.4161 30.2327 26.8154 35.1213 27.627 40.4937L31.5822 39.8962C31.0961 36.6785 33.2524 33.7393 36.3087 33.12L35.5143 29.1996Z" fill="currentColor" />
  <path fill-rule="evenodd" clip-rule="evenodd" d="M47.2665 29.0588C47.2878 29.0378 47.3091 29.0168 47.3302 28.9956C50.5592 25.7666 51.7953 20.9996 50.5938 16.594C49.3898 12.1794 45.8704 8.66004 41.4558 7.45604C39.4566 6.9108 37.3829 6.86754 35.4123 7.28469C35.6803 7.77326 35.895 8.29597 36.0488 8.84523L36.0933 9.00415C36.7852 11.475 36.0905 14.127 34.2761 15.9414C34.2157 16.0018 34.1543 16.061 34.0921 16.1189L34.0951 16.1219L33.7291 16.4879C31.4364 18.7807 30.5147 22.1083 31.3011 25.2539C32.1279 28.5611 34.7102 31.1434 38.0175 31.9702C41.1631 32.7567 44.4907 31.835 46.7834 29.5422L47.2248 29.1009C47.2387 29.0869 47.2527 29.0729 47.2665 29.0588Z" fill="currentColor" fill-opacity="0.15" />
  <path d="M47.2665 29.0588L45.8625 27.6345C45.8561 27.6408 45.8497 27.6472 45.8434 27.6536L47.2665 29.0588ZM50.5938 16.594L48.6642 17.1203L48.6643 17.1203L50.5938 16.594ZM41.4558 7.45604L41.982 5.52652L41.982 5.52652L41.4558 7.45604ZM35.4123 7.28469L34.9981 5.32805C34.379 5.45911 33.8585 5.87541 33.5946 6.45055C33.3307 7.02568 33.3545 7.69179 33.6588 8.2466L35.4123 7.28469ZM36.0488 8.84523L34.1229 9.38449L34.1229 9.3845L36.0488 8.84523ZM36.0933 9.00415L38.0193 8.46489L38.0193 8.46488L36.0933 9.00415ZM34.2761 15.9414L32.8619 14.5272L34.2761 15.9414ZM34.0921 16.1189L32.7295 14.6549C32.3321 15.0247 32.1021 15.5402 32.0924 16.083C32.0827 16.6258 32.294 17.1493 32.6779 17.5331L34.0921 16.1189ZM34.0951 16.1219L35.5093 17.5362C36.2904 16.7551 36.2904 15.4888 35.5093 14.7077L34.0951 16.1219ZM31.3011 25.2539L33.2414 24.7688L31.3011 25.2539ZM38.0175 31.9702L37.5324 33.9105L37.5324 33.9105L38.0175 31.9702ZM48.6706 30.4831C48.6953 30.4588 48.7199 30.4343 48.7444 30.4098L45.916 27.5814C45.8982 27.5992 45.8804 27.6169 45.8625 27.6345L48.6706 30.4831ZM48.7444 30.4098C52.488 26.6663 53.911 21.1561 52.5233 16.0678L48.6643 17.1203C49.6796 20.8431 48.6304 24.867 45.916 27.5814L48.7444 30.4098ZM52.5233 16.0678C51.133 10.9699 47.0799 6.91684 41.982 5.52652L40.9296 9.38557C44.661 10.4032 47.6466 13.3888 48.6642 17.1203L52.5233 16.0678ZM41.982 5.52652C39.6697 4.89587 37.2734 4.84639 34.9981 5.32805L35.8265 9.24133C37.4924 8.88869 39.2435 8.92573 40.9296 9.38557L41.982 5.52652ZM33.6588 8.2466C33.8541 8.60256 34.0107 8.98358 34.1229 9.38449L37.9748 8.30598C37.7794 7.60837 37.5066 6.94396 37.1658 6.32278L33.6588 8.2466ZM34.1229 9.3845L34.1674 9.54341L38.0193 8.46488L37.9748 8.30597L34.1229 9.3845ZM34.1674 9.54341C34.6644 11.3185 34.1654 13.2237 32.8619 14.5272L35.6903 17.3556C38.0156 15.0303 38.9059 11.6316 38.0193 8.46489L34.1674 9.54341ZM32.8619 14.5272C32.8184 14.5706 32.7743 14.6132 32.7295 14.6549L35.4547 17.583C35.5344 17.5087 35.613 17.4329 35.6903 17.3556L32.8619 14.5272ZM32.6779 17.5331L32.6809 17.5362L35.5093 14.7077L35.5063 14.7047L32.6779 17.5331ZM35.1433 17.9022L35.5093 17.5362L32.6809 14.7077L32.3149 15.0737L35.1433 17.9022ZM33.2414 24.7688C32.6254 22.3047 33.3473 19.6981 35.1433 17.9022L32.3149 15.0737C29.5254 17.8632 28.404 21.9118 29.3608 25.7389L33.2414 24.7688ZM38.5025 30.03C35.9119 29.3823 33.889 27.3595 33.2414 24.7688L29.3608 25.7389C30.3668 29.7628 33.5086 32.9046 37.5324 33.9105L38.5025 30.03ZM45.3692 28.128C43.5732 29.924 40.9666 30.646 38.5025 30.03L37.5324 33.9105C41.3596 34.8673 45.4081 33.7459 48.1976 30.9564L45.3692 28.128ZM45.8105 27.6867L45.3692 28.128L48.1976 30.9564L48.639 30.5151L45.8105 27.6867ZM45.8434 27.6536C45.8325 27.6647 45.8215 27.6757 45.8105 27.6867L48.639 30.5151C48.656 30.4981 48.6729 30.4811 48.6897 30.464L45.8434 27.6536Z" fill="currentColor" />
</svg>