<svg viewBox="0 0 80 80" fill="none">
  <path d="M48.5599 20.4768C53.3138 18.5077 58.6552 18.5077 63.4091 20.4768C68.163 22.446 71.94 26.2229 73.9091 30.9768C74.3707 32.0911 74.724 33.2377 74.9692 34.4014H65.3706L60.9692 30L56.5678 34.4014H44.7747C44.1292 31.5477 43.2955 28.7411 42.2794 26H41.064C43.0592 23.5996 45.6231 21.6933 48.5599 20.4768Z" fill="currentColor" fill-opacity="0.25" />
  <path d="M35.6216 34.6592C36.1733 42.9692 35.1363 51.3164 32.558 59.2517C31.5815 62.2571 30.3914 65.1802 29 68H43.6185C44.467 65.1689 45.1263 62.28 45.59 59.352C46.6763 52.4934 46.6763 45.5065 45.59 38.6479C44.9875 34.8439 44.055 31.1057 42.8061 27.4748L35.6216 34.6592Z" fill="currentColor" fill-opacity="0.25" />
  <path d="M31.4093 13.4768C26.6554 11.5077 21.314 11.5077 16.5601 13.4768C11.8062 15.446 8.02922 19.2229 6.06009 23.9768C5.59855 25.0911 5.24518 26.2377 5 27.4014H14.5986L19 23L22.7376 26.7376C23.4379 26.3386 24.166 25.9816 24.9185 25.6699C29.6724 23.7007 35.0138 23.7007 39.7677 25.6699C40.882 26.1314 41.9426 26.6923 42.9388 27.3418L42.8793 27.4014H42.9694C42.7242 26.2377 42.3709 25.0911 41.9093 23.9768C39.9402 19.2229 36.1632 15.446 31.4093 13.4768Z" fill="currentColor" fill-opacity="0.25" />
  <path d="M14.4185 36.1699C16.3876 31.416 20.1646 27.639 24.9185 25.6699C29.6724 23.7007 35.0138 23.7007 39.7677 25.6699C40.882 26.1314 41.9426 26.6923 42.9388 27.3418L29.1021 41.1785L22.8777 41.1785V47.403L16.0904 54.1902C15.4409 53.194 14.8801 52.1334 14.4185 51.0191C12.4494 46.2652 12.4494 40.9238 14.4185 36.1699Z" fill="currentColor" fill-opacity="0.25" />
  <path d="M24.9185 25.6699C24.166 25.9816 23.4379 26.3386 22.7376 26.7376L19 23L14.5986 27.4014H5C5.24518 26.2377 5.59855 25.0911 6.06009 23.9768C8.02922 19.2229 11.8062 15.446 16.5601 13.4768C21.314 11.5077 26.6554 11.5077 31.4093 13.4768C36.1632 15.446 39.9402 19.2229 41.9093 23.9768C42.3709 25.0911 42.7242 26.2377 42.9694 27.4014H42.8793L42.9388 27.3418M24.9185 25.6699C29.6724 23.7007 35.0138 23.7007 39.7677 25.6699C40.882 26.1314 41.9426 26.6923 42.9388 27.3418M24.9185 25.6699C20.1646 27.639 16.3876 31.416 14.4185 36.1699C12.4494 40.9238 12.4494 46.2652 14.4185 51.0191C14.8801 52.1334 15.4409 53.194 16.0904 54.1902L22.8777 47.403V41.1785L29.1021 41.1785L42.9388 27.3418M63.4091 20.4768C58.6552 18.5077 53.3138 18.5077 48.5599 20.4768C45.6231 21.6933 43.0592 23.5996 41.064 26H42.2794C43.2955 28.7411 44.1292 31.5477 44.7747 34.4014H56.5678L60.9692 30L65.3706 34.4014H74.9692C74.724 33.2377 74.3707 32.0911 73.9091 30.9768C71.94 26.2229 68.163 22.446 63.4091 20.4768ZM35.6216 34.6592C36.1733 42.9692 35.1363 51.3164 32.558 59.2517C31.5815 62.2571 30.3914 65.1802 29 68H43.6185C44.467 65.1689 45.1263 62.28 45.59 59.352C46.6763 52.4934 46.6763 45.5065 45.59 38.6479C44.9875 34.8439 44.055 31.1057 42.8061 27.4748L35.6216 34.6592Z" stroke="currentColor" stroke-linecap="round" stroke-linejoin="round" />
</svg>