<svg viewBox="0 0 80 80" fill="none">
  <path d="M24 72L50.6917 60.059C55.4242 57.9418 55.7829 51.3607 51.3087 48.7417V48.7417C47.0132 46.2272 47.1291 39.9795 51.5149 37.6261L62 32" stroke="currentColor" stroke-width="4" stroke-linecap="round" stroke-linejoin="round" />
  <path d="M17.5504 37.133C21.6226 35.1549 26.3774 35.1549 30.4496 37.133C34.483 39.0923 37.4071 42.7789 38.3967 47.1525L38.448 47.3792C39.4328 51.7315 38.4612 56.2967 35.7896 59.8707L34.4326 61.686C33.8106 62.5181 33.1201 63.2969 32.3685 64.0142L24.3334 71.6819C24.1468 71.86 23.8533 71.86 23.6667 71.6819L15.6315 64.0142C14.8799 63.2969 14.1895 62.5181 13.5674 61.686L12.2105 59.8707C9.53879 56.2967 8.56722 51.7315 9.55201 47.3792L9.60331 47.1525C10.5929 42.7789 13.517 39.0924 17.5504 37.133Z" fill="currentColor" fill-opacity="0.25" />
  <path d="M34.4326 61.686L36.0345 62.8834L34.4326 61.686ZM32.3685 64.0142L33.7492 65.4611L32.3685 64.0142ZM13.5674 61.686L15.1693 60.4885L13.5674 61.686ZM15.6315 64.0142L14.2508 65.4611L15.6315 64.0142ZM9.60331 47.1525L11.554 47.5939L9.60331 47.1525ZM9.55201 47.3792L7.60132 46.9378L9.55201 47.3792ZM12.2105 59.8707L10.6086 61.0682L12.2105 59.8707ZM38.448 47.3792L36.4973 47.8206L38.448 47.3792ZM35.7896 59.8707L34.1877 58.6733L35.7896 59.8707ZM38.3967 47.1525L40.3474 46.7111L38.3967 47.1525ZM36.446 47.5939L36.4973 47.8206L40.3987 46.9378L40.3474 46.7111L36.446 47.5939ZM11.5027 47.8206L11.554 47.5939L7.65262 46.7111L7.60132 46.9378L11.5027 47.8206ZM15.1693 60.4885L13.8124 58.6733L10.6086 61.0682L11.9655 62.8834L15.1693 60.4885ZM34.1877 58.6733L32.8307 60.4885L36.0345 62.8834L37.3915 61.0682L34.1877 58.6733ZM30.9877 62.5673L22.9526 70.235L25.7141 73.1288L33.7492 65.4611L30.9877 62.5673ZM25.0474 70.235L17.0123 62.5673L14.2508 65.4611L22.2859 73.1288L25.0474 70.235ZM32.8307 60.4885C32.2753 61.2315 31.6589 61.9269 30.9877 62.5673L33.7492 65.4611C34.5814 64.667 35.3458 63.8048 36.0345 62.8834L32.8307 60.4885ZM11.9655 62.8834C12.6542 63.8048 13.4186 64.667 14.2508 65.4611L17.0123 62.5673C16.3412 61.9269 15.7247 61.2315 15.1693 60.4885L11.9655 62.8834ZM11.554 47.5939C12.4095 43.8129 14.9374 40.6258 18.4243 38.932L16.6765 35.3341C12.0966 37.5589 8.77633 41.7449 7.65262 46.7111L11.554 47.5939ZM7.60132 46.9378C6.48733 51.8611 7.58637 57.0252 10.6086 61.0682L13.8124 58.6733C11.4912 55.5681 10.6471 51.6019 11.5027 47.8206L7.60132 46.9378ZM22.9526 70.235C23.5388 69.6756 24.4612 69.6756 25.0474 70.235L22.2859 73.1288C23.2453 74.0443 24.7547 74.0443 25.7141 73.1288L22.9526 70.235ZM36.4973 47.8206C37.3529 51.6019 36.5088 55.5681 34.1877 58.6733L37.3915 61.0682C40.4137 57.0252 41.5127 51.8611 40.3987 46.9378L36.4973 47.8206ZM29.5757 38.932C33.0626 40.6258 35.5905 43.8129 36.446 47.5939L40.3474 46.7111C39.2237 41.7449 35.9034 37.5589 31.3235 35.3341L29.5757 38.932ZM31.3235 35.3341C26.6995 33.0879 21.3005 33.0879 16.6765 35.3341L18.4243 38.932C21.9448 37.2219 26.0553 37.2219 29.5757 38.932L31.3235 35.3341Z" fill="currentColor" />
  <path d="M57.9431 9.99134C60.5018 8.73531 63.4981 8.73531 66.0568 9.99134C68.5619 11.2211 70.3741 13.5208 70.9839 16.2441L71.0335 16.4658C71.6473 19.2069 71.0401 22.0795 69.3696 24.3378L68.5642 25.4265C68.1462 25.9915 67.6819 26.5207 67.1759 27.0086L62.2083 31.799C62.092 31.9111 61.9079 31.9111 61.7916 31.799L56.824 27.0086C56.318 26.5207 55.8537 25.9915 55.4357 25.4265L54.6303 24.3378C52.9598 22.0795 52.3526 19.2069 52.9664 16.4658L53.016 16.2441C53.6258 13.5208 55.438 11.2211 57.9431 9.99134Z" fill="currentColor" fill-opacity="0.25" />
  <path d="M68.5642 25.4265L66.9563 24.2371L68.5642 25.4265ZM67.1759 27.0086L68.5642 28.4483L67.1759 27.0086ZM55.4357 25.4265L53.8278 26.6159L55.4357 25.4265ZM56.824 27.0086L55.4357 28.4483L56.824 27.0086ZM53.016 16.2441L51.0644 15.807L53.016 16.2441ZM52.9664 16.4658L54.9181 16.9028L52.9664 16.4658ZM54.6303 24.3378L56.2382 23.1484L54.6303 24.3378ZM71.0335 16.4658L69.0818 16.9028L71.0335 16.4658ZM69.3696 24.3378L70.9774 25.5272L69.3696 24.3378ZM70.9839 16.2441L72.9355 15.807L70.9839 16.2441ZM69.0322 16.6811L69.0818 16.9028L72.9852 16.0287L72.9355 15.807L69.0322 16.6811ZM54.9181 16.9028L54.9677 16.6811L51.0644 15.807L51.0147 16.0287L54.9181 16.9028ZM57.0436 24.2371L56.2382 23.1484L53.0225 25.5272L53.8278 26.6159L57.0436 24.2371ZM67.7617 23.1484L66.9563 24.2371L70.1721 26.6159L70.9774 25.5272L67.7617 23.1484ZM65.7876 25.5689L60.82 30.3593L63.5966 33.2387L68.5642 28.4483L65.7876 25.5689ZM63.1799 30.3593L58.2123 25.5689L55.4357 28.4483L60.4033 33.2387L63.1799 30.3593ZM66.9563 24.2371C66.6044 24.7127 66.2135 25.1582 65.7876 25.5689L68.5642 28.4483C69.1502 27.8832 69.688 27.2703 70.1721 26.6159L66.9563 24.2371ZM53.8278 26.6159C54.3119 27.2703 54.8497 27.8832 55.4357 28.4483L58.2123 25.5689C57.7864 25.1582 57.3955 24.7127 57.0436 24.2371L53.8278 26.6159ZM54.9677 16.6811C55.445 14.5494 56.8635 12.7493 58.8244 11.7867L57.0618 8.19599C54.0124 9.69288 51.8066 12.4922 51.0644 15.807L54.9677 16.6811ZM51.0147 16.0287C50.2741 19.3362 51.0068 22.8023 53.0225 25.5272L56.2382 23.1484C54.9128 21.3567 54.4311 19.0776 54.9181 16.9028L51.0147 16.0287ZM60.82 30.3593C61.4785 29.7244 62.5214 29.7243 63.1799 30.3593L60.4033 33.2387C61.2943 34.0979 62.7056 34.0979 63.5966 33.2387L60.82 30.3593ZM69.0818 16.9028C69.5688 19.0776 69.0871 21.3567 67.7617 23.1484L70.9774 25.5272C72.9931 22.8023 73.7258 19.3362 72.9852 16.0287L69.0818 16.9028ZM65.1755 11.7867C67.1364 12.7493 68.5549 14.5494 69.0322 16.6811L72.9355 15.807C72.1933 12.4922 69.9875 9.69288 66.9381 8.19599L65.1755 11.7867ZM66.9381 8.19599C63.8235 6.66709 60.1764 6.66709 57.0618 8.19599L58.8244 11.7867C60.8273 10.8035 63.1726 10.8035 65.1755 11.7867L66.9381 8.19599Z" fill="currentColor" />
</svg>