<svg viewBox="0 0 80 80" fill="none">
  <path d="M24.5359 66C26.6795 67.2376 29.3205 67.2376 31.4641 66C33.6077 64.7624 34.9282 62.4752 34.9282 60C34.9282 57.5248 33.6077 55.2376 31.4641 54C29.3205 52.7624 26.6795 52.7624 24.5359 54C22.3923 55.2376 21.0718 57.5248 21.0718 60C21.0718 62.4752 22.3923 64.7624 24.5359 66Z" fill="currentColor" fill-opacity="0.25" />
  <path d="M52.5359 26C54.6795 27.2376 57.3205 27.2376 59.4641 26C61.6077 24.7624 62.9282 22.4752 62.9282 20C62.9282 17.5248 61.6077 15.2376 59.4641 14C57.3205 12.7624 54.6795 12.7624 52.5359 14C50.3923 15.2376 49.0718 17.5248 49.0718 20C49.0718 22.4752 50.3923 24.7624 52.5359 26Z" fill="currentColor" fill-opacity="0.25" />
  <path d="M34.9282 60H47.5C52.1944 60 56 56.1944 56 51.5C56 46.8056 52.1944 43 47.5 43H27.5C21.1487 43 16 37.8513 16 31.5C16 25.1487 21.1487 20 27.5 20H49.0718M34.9282 60C34.9282 57.5248 33.6077 55.2376 31.4641 54C29.3205 52.7624 26.6795 52.7624 24.5359 54C22.3923 55.2376 21.0718 57.5248 21.0718 60C21.0718 62.4752 22.3923 64.7624 24.5359 66C26.6795 67.2376 29.3205 67.2376 31.4641 66C33.6077 64.7624 34.9282 62.4752 34.9282 60ZM49.0718 20C49.0718 22.4752 50.3923 24.7624 52.5359 26C54.6795 27.2376 57.3205 27.2376 59.4641 26C61.6077 24.7624 62.9282 22.4752 62.9282 20C62.9282 17.5248 61.6077 15.2376 59.4641 14C57.3205 12.7624 54.6795 12.7624 52.5359 14C50.3923 15.2376 49.0718 17.5248 49.0718 20Z" stroke="currentColor" stroke-width="4" stroke-linecap="round" stroke-linejoin="round" />
</svg>