<svg viewBox="0 0 80 80" fill="none">
  <path d="M40.0803 40.0503L38.0803 40.052C38.0809 40.7653 38.4614 41.4243 39.0788 41.7815L40.0803 40.0503ZM40.0574 13.6895L42.0574 13.6877C42.0565 12.5842 41.1619 11.6899 40.0583 11.6895L40.0574 13.6895ZM62.8078 53.1983L64.5382 54.2012C64.8043 53.742 64.877 53.1959 64.7403 52.6831C64.6036 52.1703 64.2687 51.7329 63.8093 51.4672L62.8078 53.1983ZM62.7959 53.2189L61.7974 54.9518C62.752 55.5019 63.9718 55.1763 64.5252 54.2236L62.7959 53.2189ZM40.0456 40.1103L41.0441 38.3774C40.4261 38.0213 39.6652 38.0213 39.0471 38.3774L40.0456 40.1103ZM17.2954 53.2189L15.5661 54.2235C16.1196 55.1762 17.3393 55.5019 18.2939 54.9518L17.2954 53.2189ZM17.2835 53.1983L16.282 51.4671C15.8226 51.7329 15.4877 52.1704 15.351 52.6832C15.2143 53.1961 15.287 53.7422 15.5532 54.2014L17.2835 53.1983ZM40.011 40.0503L41.0125 41.7815C41.6299 41.4243 42.0104 40.7653 42.011 40.052L40.011 40.0503ZM40.0338 13.6895L40.0329 11.6895C38.9294 11.69 38.0348 12.5842 38.0338 13.6877L40.0338 13.6895ZM42.0457 40.1104C42.0457 39.0058 41.1503 38.1104 40.0457 38.1104C38.9412 38.1104 38.0457 39.0058 38.0457 40.1104H42.0457ZM38.0457 66.3122C38.0457 67.4168 38.9412 68.3122 40.0457 68.3122C41.1503 68.3122 42.0457 67.4168 42.0457 66.3122H38.0457ZM42.0803 40.0486L42.0574 13.6877L38.0574 13.6912L38.0803 40.052L42.0803 40.0486ZM63.8093 51.4672L41.0818 38.3191L39.0788 41.7815L61.8063 54.9295L63.8093 51.4672ZM61.0774 52.1955C61.0739 52.2016 61.0703 52.2078 61.0666 52.2142L64.5252 54.2236C64.5295 54.2163 64.5338 54.2088 64.5382 54.2012L61.0774 52.1955ZM39.0471 41.8432L61.7974 54.9518L63.7944 51.486L41.0441 38.3774L39.0471 41.8432ZM18.2939 54.9518L41.0441 41.8432L39.0471 38.3774L16.2969 51.486L18.2939 54.9518ZM19.0248 52.2142C19.021 52.2077 19.0174 52.2014 19.0138 52.1952L15.5532 54.2014C15.5576 54.2089 15.5619 54.2163 15.5661 54.2235L19.0248 52.2142ZM39.0095 38.3191L16.282 51.4671L18.285 54.9295L41.0125 41.7815L39.0095 38.3191ZM38.0338 13.6877L38.011 40.0486L42.011 40.052L42.0338 13.6912L38.0338 13.6877ZM40.0347 15.6895C40.042 15.6895 40.0493 15.6895 40.0565 15.6895L40.0583 11.6895C40.0499 11.6895 40.0414 11.6895 40.0329 11.6895L40.0347 15.6895ZM38.0457 40.1104V66.3122H42.0457V40.1104H38.0457Z" fill="currentColor" />
  <path d="M31.001 15.2754C36.8138 13.1597 43.1862 13.1597 48.999 15.2754C54.8119 17.3911 59.6934 21.4872 62.7863 26.8443C65.8793 32.2014 66.9858 38.477 65.9117 44.5689C64.8375 50.6608 61.6513 56.1795 56.9126 60.1557C52.174 64.1319 46.1859 66.3114 40 66.3114C33.8141 66.3114 27.826 64.1319 23.0874 60.1557C18.3487 56.1795 15.1625 50.6608 14.0883 44.5689C13.0142 38.477 14.1207 32.2014 17.2137 26.8443C20.3066 21.4872 25.1881 17.3911 31.001 15.2754Z" fill="currentColor" fill-opacity="0.15" stroke="currentColor" stroke-width="4" stroke-linecap="round" stroke-linejoin="round" />
</svg>