<svg viewBox="0 0 80 80" fill="none">
  <path fill-rule="evenodd" clip-rule="evenodd" d="M31.0001 58H49.0001C49.6249 58 50.2083 57.6878 50.5548 57.1679L56.0835 48.875C58.5008 45.2489 58.7623 40.5972 56.7665 36.7231L44.374 12.6669C43.5303 11.0292 41.8424 10 40.0001 10C38.1578 10 36.4699 11.0292 35.6262 12.6669L23.2337 36.7231C21.2379 40.5972 21.4994 45.2489 23.9168 48.875L29.4454 57.1679C29.792 57.6878 30.3754 58 31.0001 58ZM36.5361 38C38.0757 35.3333 41.9247 35.3333 43.4643 38C45.0039 40.6667 43.0794 44 40.0002 44C36.921 44 34.9965 40.6667 36.5361 38Z" fill="currentColor" fill-opacity="0.15" />
  <path d="M50.5548 57.1679L52.2189 58.2773V58.2774L50.5548 57.1679ZM56.0835 48.875L57.7476 49.9844V49.9844L56.0835 48.875ZM56.7665 36.7231L54.9886 37.639L56.7665 36.7231ZM44.374 12.6669L46.1519 11.751L44.374 12.6669ZM35.6262 12.6669L37.4042 13.5828L35.6262 12.6669ZM23.2337 36.7231L25.0116 37.639L23.2337 36.7231ZM23.9168 48.875L22.2527 49.9844H22.2527L23.9168 48.875ZM29.4454 57.1679L31.1095 56.0585L31.1095 56.0586L29.4454 57.1679ZM43.4643 38L41.7322 39H41.7322L43.4643 38ZM36.5361 38L34.804 37L36.5361 38ZM38.0001 10C38.0001 8.89543 38.8955 8 40.0001 8C41.1047 8 42.0001 8.89543 42.0001 10H38.0001ZM42.0001 36C42.0001 37.1046 41.1047 38 40.0001 38C38.8955 38 38.0001 37.1046 38.0001 36H42.0001ZM49.0001 60H31.0001V56H49.0001V60ZM52.2189 58.2774C51.5014 59.3536 50.2936 60 49.0001 60V56C48.9561 56 48.9151 56.022 48.8907 56.0585L52.2189 58.2774ZM57.7476 49.9844L52.2189 58.2773L48.8907 56.0585L54.4194 47.7656L57.7476 49.9844ZM58.5445 35.8072C60.8729 40.327 60.5678 45.7539 57.7476 49.9844L54.4194 47.7656C56.4338 44.7438 56.6517 40.8675 54.9886 37.639L58.5445 35.8072ZM46.1519 11.751L58.5445 35.8072L54.9886 37.639L42.596 13.5828L46.1519 11.751ZM40.0001 8C42.5912 8 44.9653 9.44755 46.1519 11.751L42.596 13.5828C42.0953 12.6108 41.0935 12 40.0001 12V8ZM33.8483 11.751C35.0349 9.44755 37.409 8 40.0001 8V12C38.9067 12 37.9049 12.6108 37.4042 13.5828L33.8483 11.751ZM21.4557 35.8072L33.8483 11.751L37.4042 13.5828L25.0116 37.639L21.4557 35.8072ZM22.2527 49.9844C19.4324 45.7539 19.1273 40.327 21.4557 35.8072L25.0116 37.639C23.3485 40.8675 23.5664 44.7438 25.5809 47.7656L22.2527 49.9844ZM27.7813 58.2774L22.2527 49.9844L25.5809 47.7656L31.1095 56.0585L27.7813 58.2774ZM31.0001 60C29.7067 60 28.4988 59.3536 27.7813 58.2773L31.1095 56.0586C31.0851 56.022 31.0441 56 31.0001 56V60ZM41.7322 39C40.9624 37.6667 39.0379 37.6667 38.2681 39L34.804 37C37.1134 33 42.8869 33 45.1963 37L41.7322 39ZM40.0002 42C41.5398 42 42.502 40.3333 41.7322 39L45.1963 37C47.5057 41 44.619 46 40.0002 46V42ZM38.2681 39C37.4983 40.3333 38.4606 42 40.0002 42V46C35.3814 46 32.4946 41 34.804 37L38.2681 39ZM42.0001 10L42.0001 36H38.0001L38.0001 10H42.0001Z" fill="currentColor" />
  <path d="M28.4784 65.6078C28.2309 66.8454 29.1775 68 30.4396 68H49.5602C50.8223 68 51.7688 66.8454 51.5213 65.6078L50.3213 59.6078C50.1344 58.6729 49.3135 58 48.3602 58H48.1536H31.8459H31.6394C30.686 58 29.8652 58.6729 29.6782 59.6078L28.4784 65.6078Z" fill="currentColor" fill-opacity="0.15" stroke="currentColor" stroke-linecap="round" stroke-linejoin="round" />
</svg>