<svg viewBox="0 0 80 80" fill="none">
  <path fill-rule="evenodd" clip-rule="evenodd" d="M47.8488 72.0044C47.8488 74.2111 46.0599 76 43.8532 76H35.8532C33.6416 76 31.8488 74.2072 31.8488 71.9956L31.8488 24.245C31.8488 17.6131 34.1058 11.1786 38.2488 6L39.0488 5C39.4589 4.48734 40.2386 4.48734 40.6488 5L41.4488 6C45.5917 11.1786 47.8488 17.6131 47.8488 24.245L47.8488 72.0044Z" fill="currentColor" fill-opacity="0.25" />
  <path d="M35.8532 78C34.7486 78 33.8532 77.1046 33.8532 76C33.8532 74.8954 34.7486 74 35.8532 74V78ZM35.8532 74H43.8532V78H35.8532V74ZM33.8488 24.245L33.8488 71.9956H29.8488L29.8488 24.245H33.8488ZM40.6105 6.24939L39.8105 7.24939L36.687 4.75061L37.487 3.75061L40.6105 6.24939ZM39.887 7.24939L39.087 6.24939L42.2105 3.75061L43.0105 4.75061L39.887 7.24939ZM45.8488 72.0044L45.8488 24.245H49.8488L49.8488 72.0044H45.8488ZM43.0105 4.75061C47.4371 10.2839 49.8488 17.1589 49.8488 24.245H45.8488C45.8488 18.0672 43.7462 12.0734 39.887 7.24939L43.0105 4.75061ZM37.487 3.75061C38.6978 2.23713 40.9997 2.23713 42.2105 3.75061L39.087 6.24939C39.4775 6.73753 40.22 6.73753 40.6105 6.24939L37.487 3.75061ZM29.8488 24.245C29.8488 17.1589 32.2604 10.2839 36.687 4.75061L39.8105 7.24939C35.9513 12.0734 33.8488 18.0672 33.8488 24.245H29.8488ZM35.8532 78C32.537 78 29.8488 75.3117 29.8488 71.9956H33.8488C33.8488 73.1026 34.7462 74 35.8532 74V78ZM43.8532 74C44.9553 74 45.8488 73.1065 45.8488 72.0044H49.8488C49.8488 75.3157 47.1644 78 43.8532 78V74Z" fill="currentColor" />
  <path d="M55.8566 36C55.8566 34.8954 54.9611 34 53.8566 34C52.752 34 51.8566 34.8954 51.8566 36H55.8566ZM51.8566 62C52.9611 62 53.8566 61.1046 53.8566 60C53.8566 58.8954 52.9611 58 51.8566 58V62ZM55.8566 58L55.8566 36H51.8566L51.8566 58H55.8566ZM47.8566 62H51.8566V58H47.8566V62ZM51.8566 58V62C54.0657 62 55.8566 60.2091 55.8566 58H51.8566Z" fill="currentColor" />
  <path d="M31.8566 60H47.8478" stroke="currentColor" stroke-width="4" stroke-linejoin="round" />
</svg>