<svg viewBox="0 0 80 80" fill="none">
  <path fill-rule="evenodd" clip-rule="evenodd" d="M47.8488 72.0044C47.8488 74.2111 46.0599 76 43.8532 76H35.8532C33.6416 76 31.8488 74.2072 31.8488 71.9956L31.8488 16.8062C31.8488 14.9897 32.467 13.2272 33.6018 11.8087L38.2488 6L39.0488 5C39.4589 4.48734 40.2386 4.48734 40.6488 5L41.4488 6L46.0957 11.8087C47.2305 13.2272 47.8488 14.9897 47.8488 16.8062L47.8488 72.0044Z" fill="currentColor" fill-opacity="0.15" />
  <path d="M35.8532 78C34.7486 78 33.8532 77.1046 33.8532 76C33.8532 74.8954 34.7486 74 35.8532 74V78ZM38.2488 6L39.8105 7.24939H39.8105L38.2488 6ZM41.4488 6L43.0105 4.75061H43.0105L41.4488 6ZM46.0957 11.8087L44.534 13.0581L46.0957 11.8087ZM33.6018 11.8087L35.1635 13.0581L33.6018 11.8087ZM35.8532 74H43.8532V78H35.8532V74ZM33.8488 16.8062L33.8488 71.9956H29.8488L29.8488 16.8062H33.8488ZM39.8105 7.24939L35.1635 13.0581L32.0401 10.5593L36.687 4.75061L39.8105 7.24939ZM40.6105 6.24939L39.8105 7.24939L36.687 4.75061L37.487 3.75061L40.6105 6.24939ZM39.887 7.24939L39.087 6.24939L42.2105 3.75061L43.0105 4.75061L39.887 7.24939ZM44.534 13.0581L39.887 7.24939L43.0105 4.75061L47.6574 10.5593L44.534 13.0581ZM45.8488 72.0044L45.8488 16.8062H49.8488L49.8488 72.0044H45.8488ZM47.6574 10.5593C49.0759 12.3324 49.8488 14.5355 49.8488 16.8062H45.8488C45.8488 15.4438 45.3851 14.122 44.534 13.0581L47.6574 10.5593ZM37.487 3.75061C38.6978 2.23713 40.9997 2.23713 42.2105 3.75061L39.087 6.24939C39.4775 6.73753 40.22 6.73753 40.6105 6.24939L37.487 3.75061ZM29.8488 16.8062C29.8488 14.5355 30.6216 12.3324 32.0401 10.5593L35.1635 13.0581C34.3124 14.122 33.8488 15.4438 33.8488 16.8062H29.8488ZM35.8532 78C32.537 78 29.8488 75.3117 29.8488 71.9956H33.8488C33.8488 73.1026 34.7462 74 35.8532 74V78ZM43.8532 74C44.9553 74 45.8488 73.1065 45.8488 72.0044H49.8488C49.8488 75.3157 47.1644 78 43.8532 78V74Z" fill="currentColor" />
  <path d="M31.8566 60H47.8478" stroke="currentColor" stroke-linejoin="round" />
</svg>