<svg viewBox="0 0 80 80" fill="none">
  <path fill-rule="evenodd" clip-rule="evenodd" d="M47.8488 68C47.8488 72.4183 44.267 76 39.8488 76C35.4305 76 31.8488 72.4183 31.8488 68L31.8488 19.6125C31.8488 15.9794 33.0852 12.4544 35.3549 9.61738L38.2488 6L39.0488 5C39.4589 4.48734 40.2386 4.48734 40.6488 5L41.4488 6L44.3427 9.61738C46.6123 12.4544 47.8488 15.9794 47.8488 19.6125L47.8488 68Z" fill="currentColor" fill-opacity="0.15" />
  <path d="M38.2488 6L39.8105 7.24939H39.8105L38.2488 6ZM41.4488 6L43.0105 4.75061H43.0105L41.4488 6ZM33.8488 19.6125L33.8488 68H29.8488L29.8488 19.6125H33.8488ZM39.8105 7.24939L36.9166 10.8668L33.7931 8.36798L36.687 4.75061L39.8105 7.24939ZM40.6105 6.24939L39.8105 7.24939L36.687 4.75061L37.487 3.75061L40.6105 6.24939ZM39.887 7.24939L39.087 6.24939L42.2105 3.75061L43.0105 4.75061L39.887 7.24939ZM42.7809 10.8668L39.887 7.24939L43.0105 4.75061L45.9044 8.36799L42.7809 10.8668ZM45.8488 68L45.8488 19.6125H49.8488L49.8488 68H45.8488ZM45.9044 8.36799C48.4577 11.5596 49.8488 15.5252 49.8488 19.6125H45.8488C45.8488 16.4335 44.7668 13.3491 42.7809 10.8668L45.9044 8.36799ZM29.8488 19.6125C29.8488 15.5252 31.2398 11.5596 33.7931 8.36798L36.9166 10.8668C34.9307 13.3491 33.8488 16.4335 33.8488 19.6125H29.8488ZM39.8488 74C43.1625 74 45.8488 71.3137 45.8488 68H49.8488C49.8488 73.5228 45.3716 78 39.8488 78V74ZM37.487 3.75061C38.6978 2.23713 40.9997 2.23713 42.2105 3.75061L39.087 6.24939C39.4775 6.73753 40.22 6.73753 40.6105 6.24939L37.487 3.75061ZM39.8488 78C34.3259 78 29.8488 73.5228 29.8488 68H33.8488C33.8488 71.3137 36.535 74 39.8488 74V78Z" fill="currentColor" />
  <path d="M46.36 16.6603C47.1408 15.879 48.4072 15.8787 49.1884 16.6595C49.9697 17.4404 49.97 18.7067 49.1892 19.488L46.36 16.6603ZM44.5582 21.2923L45.9728 22.7061V22.7061L44.5582 21.2923ZM43.1436 21.2923L41.729 22.7061V22.7061L43.1436 21.2923ZM40.5604 18.7077L39.1458 20.1215L40.5604 18.7077ZM39.1458 18.7077L40.5604 20.1215L39.1458 18.7077ZM36.5626 21.2923L37.9772 22.7061V22.7061L36.5626 21.2923ZM35.148 21.2923L33.7334 22.7061L33.7334 22.7061L35.148 21.2923ZM30.509 19.4799C29.7281 18.6987 29.7285 17.4323 30.5098 16.6515C31.291 15.8707 32.5574 15.871 33.3382 16.6523L30.509 19.4799ZM49.1892 19.488L45.9728 22.7061L43.1436 19.8785L46.36 16.6603L49.1892 19.488ZM41.729 22.7061L39.1458 20.1215L41.975 17.2939L44.5582 19.8785L41.729 22.7061ZM40.5604 20.1215L37.9772 22.7061L35.148 19.8785L37.7312 17.2939L40.5604 20.1215ZM33.7334 22.7061L30.509 19.4799L33.3382 16.6523L36.5626 19.8785L33.7334 22.7061ZM37.9772 22.7061C36.8055 23.8785 34.9051 23.8785 33.7334 22.7061L36.5626 19.8785C36.172 19.4877 35.5386 19.4877 35.148 19.8785L37.9772 22.7061ZM45.9728 22.7061C44.8011 23.8785 42.9007 23.8785 41.729 22.7061L44.5582 19.8785C44.1676 19.4877 43.5342 19.4877 43.1436 19.8785L45.9728 22.7061ZM39.1458 20.1215C39.5364 20.5123 40.1698 20.5123 40.5604 20.1215L37.7312 17.2939C38.9029 16.1215 40.8033 16.1215 41.975 17.2939L39.1458 20.1215Z" fill="currentColor" />
  <path fill-rule="evenodd" clip-rule="evenodd" d="M44.6465 9.99707L41.4488 6L40.6488 5L39.8488 4L39.0488 5L38.2488 6L35.0511 9.99707L44.6465 9.99707Z" fill="currentColor" />
  <path d="M31.8566 60H47.8478" stroke="currentColor" stroke-width="4" stroke-linejoin="round" />
</svg>