<svg viewBox="0 0 80 80" fill="none">
  <path d="M47.8488 68C47.8488 72.4183 44.267 76 39.8488 76C35.4305 76 31.8488 72.4183 31.8488 68V19.2617C31.8488 15.8556 33.008 12.551 35.1357 9.89129L38.2488 6L39.0488 5C39.4589 4.48733 40.2386 4.48733 40.6488 5L41.4488 6L44.5618 9.89129C46.6895 12.551 47.8488 15.8556 47.8488 19.2617V68Z" fill="currentColor" fill-opacity="0.25" />
  <path d="M44.6465 9.99707L41.4488 6L40.6488 5L39.8488 4L39.0488 5L38.2488 6L35.0511 9.99707H44.6465Z" fill="currentColor" fill-opacity="0.25" />
  <path d="M38.2488 6L35.1357 9.89129C33.008 12.551 31.8488 15.8556 31.8488 19.2617V68C31.8488 72.4183 35.4305 76 39.8488 76C44.267 76 47.8488 72.4183 47.8488 68M38.2488 6L39.0488 5M38.2488 6L35.0511 9.99707H44.6465L41.4488 6M39.0488 5C39.4589 4.48733 40.2386 4.48733 40.6488 5M39.0488 5L39.8488 4L40.6488 5M40.6488 5L41.4488 6M41.4488 6L44.5618 9.89129C46.6895 12.551 47.8488 15.8556 47.8488 19.2617V68M47.8488 68H31.8575M47.7747 18.0742L44.5583 21.2923C44.1677 21.6831 43.5342 21.6831 43.1437 21.2923L40.5605 18.7077C40.1699 18.3169 39.5364 18.3169 39.1459 18.7077L36.5626 21.2923C36.1721 21.6831 35.5386 21.6831 35.148 21.2923L31.9236 18.0661M39.8531 62V29" stroke="currentColor" stroke-width="4" stroke-linecap="round" stroke-linejoin="round" />
</svg>