<svg viewBox="0 0 80 80" fill="none">
  <g opacity="0.9">
    <path fill-rule="evenodd" clip-rule="evenodd" d="M42.1666 67.7908C40.6717 68.2765 39.0172 67.8523 38.0327 66.627C37.6096 66.1003 37.1985 65.5625 36.7999 65.014C31.6056 57.8646 28.808 49.2544 28.808 40.4173C28.808 31.5802 31.6056 22.9699 36.8 15.8205C37.1982 15.2724 37.609 14.735 38.0318 14.2086C39.0163 12.9832 40.6708 12.559 42.1658 13.0447L48.7082 15.1705C51.2402 15.9932 52.2729 19.0198 51.0751 21.3974C50.3485 22.8395 49.7041 24.329 49.147 25.8596C48.8678 26.6266 48.6121 27.3998 48.3798 28.1781C47.8299 30.0208 45.8595 31.1191 44.059 30.4439C41.444 29.4633 38.6545 31.3964 38.6545 34.1893V34.4173V46.4173V46.6453C38.6545 49.4381 41.444 51.3712 44.059 50.3906C45.9588 49.6781 48.041 50.8145 48.6664 52.7447C48.818 53.2127 48.9782 53.6786 49.147 54.1423C49.7864 55.8991 50.5409 57.6018 51.4025 59.2407C52.657 61.6269 51.6363 64.7139 49.0725 65.5469L42.1666 67.7908Z" fill="currentColor" fill-opacity="0.15" />
    <path d="M36.7999 65.014L38.418 63.8384L38.418 63.8384L36.7999 65.014ZM36.8 15.8205L35.1819 14.6449V14.6449L36.8 15.8205ZM49.147 25.8596L51.0264 26.5437L49.147 25.8596ZM49.147 54.1423L51.0264 53.4582L49.147 54.1423ZM48.3798 28.1781L50.2963 28.75L48.3798 28.1781ZM42.1658 13.0447L41.5477 14.9468L42.1658 13.0447ZM51.4025 59.2407L49.6323 60.1714L51.4025 59.2407ZM38.0327 66.627L36.4736 67.8796L38.0327 66.627ZM42.1666 67.7908L42.7846 69.6929L42.1666 67.7908ZM39.5918 65.3743C39.1889 64.8728 38.7975 64.3608 38.418 63.8384L35.1819 66.1896C35.5995 66.7643 36.0302 67.3278 36.4736 67.8796L39.5918 65.3743ZM38.418 63.8384C33.4719 57.0308 30.808 48.832 30.808 40.4173H26.808C26.808 49.6767 29.7393 58.6985 35.1819 66.1896L38.418 63.8384ZM30.808 40.4173C30.808 32.0025 33.4719 23.8038 38.418 16.9961L35.1819 14.6449C29.7393 22.136 26.808 31.1578 26.808 40.4173H30.808ZM38.418 16.9961C38.7972 16.4741 39.1884 15.9624 39.591 15.4612L36.4726 12.9561C36.0296 13.5075 35.5992 14.0706 35.1819 14.6449L38.418 16.9961ZM49.3262 13.2684L42.7838 11.1426L41.5477 14.9468L48.0902 17.0726L49.3262 13.2684ZM49.2889 20.4976C48.5272 22.0094 47.8516 23.571 47.2676 25.1756L51.0264 26.5437C51.5565 25.087 52.1698 23.6696 52.8612 22.2973L49.2889 20.4976ZM47.2676 25.1756C46.9749 25.9796 46.7069 26.7902 46.4633 27.6062L50.2963 28.75C50.5173 28.0093 50.7607 27.2736 51.0264 26.5437L47.2676 25.1756ZM44.7612 28.5713C40.8387 27.1003 36.6545 30 36.6545 34.1893H40.6545C40.6545 32.7928 42.0492 31.8263 43.3567 32.3166L44.7612 28.5713ZM36.6545 34.1893V34.4173H40.6545V34.1893H36.6545ZM36.6545 34.4173V46.4173H40.6545V34.4173H36.6545ZM36.6545 46.4173V46.6453H40.6545V46.4173H36.6545ZM36.6545 46.6453C36.6545 50.8345 40.8387 53.7342 44.7612 52.2632L43.3567 48.5179C42.0492 49.0082 40.6545 48.0417 40.6545 46.6453H36.6545ZM46.7638 53.3612C46.9227 53.8518 47.0907 54.3402 47.2676 54.8263L51.0264 53.4582C50.8657 53.017 50.7133 52.5736 50.569 52.1282L46.7638 53.3612ZM47.2676 54.8263C47.9379 56.668 48.729 58.4531 49.6323 60.1714L53.1728 58.3101C52.3529 56.7504 51.6349 55.1301 51.0264 53.4582L47.2676 54.8263ZM42.7846 69.6929L49.6905 67.449L48.4545 63.6448L41.5485 65.8887L42.7846 69.6929ZM46.4633 27.6062C46.2107 28.4527 45.3685 28.799 44.7612 28.5713L43.3567 32.3166C46.3505 33.4393 49.4491 31.5889 50.2963 28.75L46.4633 27.6062ZM44.7612 52.2632C45.4811 51.9933 46.4517 52.398 46.7638 53.3612L50.569 52.1282C49.6302 49.231 46.4365 47.363 43.3567 48.5179L44.7612 52.2632ZM39.591 15.4612C40.0109 14.9386 40.7736 14.6953 41.5477 14.9468L42.7838 11.1426C40.568 10.4227 38.0217 11.0278 36.4726 12.9561L39.591 15.4612ZM49.6323 60.1714C50.3954 61.623 49.6707 63.2497 48.4545 63.6448L49.6905 67.449C53.602 66.1781 54.9185 61.6307 53.1728 58.3101L49.6323 60.1714ZM48.0902 17.0726C49.2926 17.4633 50.0158 19.0548 49.2889 20.4976L52.8612 22.2973C54.5301 18.9848 53.1879 14.5231 49.3262 13.2684L48.0902 17.0726ZM36.4736 67.8796C38.0226 69.8077 40.5689 70.4128 42.7846 69.6929L41.5485 65.8887C40.7745 66.1402 40.0117 65.8969 39.5918 65.3743L36.4736 67.8796Z" fill="currentColor" />
  </g>
</svg>