<svg viewBox="0 0 80 80" fill="none">
  <g opacity="0.9">
    <path fill-rule="evenodd" clip-rule="evenodd" d="M48.9117 65.5993C51.0648 64.8997 52.2087 62.5543 51.4344 60.427L48.5309 52.4496C47.872 50.6393 45.8628 49.7143 44.059 50.3907C41.444 51.3713 38.6545 49.4382 38.6545 46.6454V46.4174V34.4174V34.1894C38.6545 31.3966 41.444 29.4634 44.059 30.4441C45.716 31.0654 47.5616 30.2157 48.1668 28.5528L51.163 20.3208C51.9373 18.1935 50.7934 15.8481 48.6403 15.1485L40.6287 12.5454C39.4109 12.1497 38.0774 12.361 37.0415 13.1136L36.1092 13.7909C35.4258 14.2874 34.9172 14.9875 34.6561 15.7909L27.0561 39.1813C26.7951 39.9847 26.7951 40.8501 27.0561 41.6535L34.6561 65.0439C34.9172 65.8472 35.4258 66.5474 36.1092 67.0439L37.0427 67.7221C38.0786 68.4747 39.4121 68.6859 40.6299 68.2902L48.9117 65.5993Z" fill="currentColor" fill-opacity="0.25" />
    <path d="M37.0427 67.7221L35.8671 69.3401L37.0427 67.7221ZM34.6561 65.0439L32.754 65.6619L34.6561 65.0439ZM36.1092 67.0439L37.2848 65.4258L36.1092 67.0439ZM48.1668 28.5528L46.2874 27.8687L48.1668 28.5528ZM51.4344 60.427L53.3138 59.743L51.4344 60.427ZM36.1092 13.7909L34.9336 12.1729L36.1092 13.7909ZM48.5309 52.4496L46.6515 53.1337L48.5309 52.4496ZM46.6515 53.1337L49.555 61.111L53.3138 59.743L50.4103 51.7656L46.6515 53.1337ZM36.6545 46.6454C36.6545 50.8346 40.8387 53.7343 44.7612 52.2634L43.3568 48.518C42.0492 49.0084 40.6545 48.0418 40.6545 46.6454H36.6545ZM36.6545 46.4174V46.6454H40.6545V46.4174H36.6545ZM36.6545 34.4174V46.4174H40.6545V34.4174H36.6545ZM36.6545 34.1894V34.4174H40.6545V34.1894H36.6545ZM44.7612 28.5714C40.8387 27.1005 36.6545 30.0001 36.6545 34.1894H40.6545C40.6545 32.793 42.0492 31.8264 43.3567 32.3167L44.7612 28.5714ZM49.2836 19.6368L46.2874 27.8687L50.0462 29.2368L53.0424 21.0049L49.2836 19.6368ZM49.2583 13.2464L41.2467 10.6433L40.0107 14.4475L48.0223 17.0507L49.2583 13.2464ZM37.2848 15.4089L38.2171 14.7316L35.8659 11.4955L34.9336 12.1729L37.2848 15.4089ZM28.9582 39.7994L36.5582 16.4089L32.754 15.1729L25.154 38.5633L28.9582 39.7994ZM36.5582 64.4258L28.9582 41.0354L25.154 42.2715L32.754 65.6619L36.5582 64.4258ZM38.2183 66.104L37.2848 65.4258L34.9336 68.6619L35.8671 69.3401L38.2183 66.104ZM41.2479 70.1923L49.5297 67.5014L48.2937 63.6972L40.0119 66.3881L41.2479 70.1923ZM35.8671 69.3401C37.4209 70.469 39.4213 70.7859 41.2479 70.1923L40.0119 66.3881C39.403 66.586 38.7362 66.4804 38.2183 66.104L35.8671 69.3401ZM32.754 65.6619C33.1456 66.867 33.9086 67.9171 34.9336 68.6619L37.2848 65.4258C36.9431 65.1776 36.6888 64.8275 36.5582 64.4258L32.754 65.6619ZM53.0424 21.0049C54.2038 17.8139 52.4879 14.2958 49.2583 13.2464L48.0223 17.0507C49.0988 17.4004 49.6708 18.5731 49.2836 19.6368L53.0424 21.0049ZM43.3568 32.3167C46.0551 33.3286 49.0606 31.9448 50.0462 29.2368L46.2874 27.8687C46.0626 28.4866 45.3769 28.8023 44.7612 28.5714L43.3568 32.3167ZM25.154 38.5633C24.7625 39.7683 24.7625 41.0664 25.154 42.2715L28.9582 41.0354C28.8277 40.6337 28.8277 40.201 28.9582 39.7994L25.154 38.5633ZM49.555 61.111C49.9422 62.1747 49.3702 63.3474 48.2937 63.6972L49.5297 67.5014C52.7593 66.4521 54.4752 62.934 53.3138 59.743L49.555 61.111ZM41.2467 10.6433C39.4201 10.0498 37.4197 10.3666 35.8659 11.4955L38.2171 14.7316C38.735 14.3553 39.4018 14.2497 40.0107 14.4475L41.2467 10.6433ZM34.9336 12.1729C33.9086 12.9176 33.1456 13.9678 32.754 15.1729L36.5582 16.4089C36.6888 16.0073 36.9431 15.6572 37.2848 15.4089L34.9336 12.1729ZM50.4103 51.7656C49.371 48.9102 46.2019 47.4511 43.3567 48.518L44.7612 52.2634C45.5237 51.9774 46.373 52.3685 46.6515 53.1337L50.4103 51.7656Z" fill="currentColor" />
  </g>
</svg>