<svg viewBox="0 0 80 80" fill="none">
  <path fill-rule="evenodd" clip-rule="evenodd" d="M27.201 45.0009C21.7337 50.4682 21.7337 59.3325 27.201 64.7999C32.6683 70.2672 41.5327 70.2672 47 64.7999L56.8995 54.9004L37.1005 35.1014L27.201 45.0009Z" fill="currentColor" fill-opacity="0.15" />
  <path d="M56.8995 54.9004L58.3137 56.3146C59.0948 55.5336 59.0948 54.2672 58.3137 53.4862L56.8995 54.9004ZM37.1005 35.1014L38.5147 33.6872C37.7337 32.9061 36.4673 32.9061 35.6863 33.6872L37.1005 35.1014ZM28.6152 63.3857C23.9289 58.6994 23.9289 51.1014 28.6152 46.4151L25.7868 43.5867C19.5384 49.8351 19.5384 59.9657 25.7868 66.2141L28.6152 63.3857ZM45.5858 63.3857C40.8995 68.072 33.3015 68.072 28.6152 63.3857L25.7868 66.2141C32.0352 72.4625 42.1658 72.4625 48.4142 66.2141L45.5858 63.3857ZM55.4853 53.4862L45.5858 63.3857L48.4142 66.2141L58.3137 56.3146L55.4853 53.4862ZM35.6863 36.5156L55.4853 56.3146L58.3137 53.4862L38.5147 33.6872L35.6863 36.5156ZM28.6152 46.4151L38.5147 36.5156L35.6863 33.6872L25.7868 43.5867L28.6152 46.4151Z" fill="currentColor" />
  <path fill-rule="evenodd" clip-rule="evenodd" d="M46.9999 25.2017C52.4673 19.7344 61.3316 19.7344 66.7989 25.2017C72.2662 30.6691 72.2662 39.5334 66.7989 45.0007L56.8994 54.9002L37.1004 35.1012L46.9999 25.2017Z" fill="currentColor" fill-opacity="0.15" />
  <path d="M56.8994 54.9002L58.3136 56.3144C57.5326 57.0955 56.2662 57.0955 55.4852 56.3144L56.8994 54.9002ZM37.1004 35.1012L35.6862 36.5154C34.9052 35.7344 34.9052 34.4681 35.6862 33.687L37.1004 35.1012ZM65.3847 26.616C60.6984 21.9297 53.1004 21.9297 48.4141 26.616L45.5857 23.7875C51.8341 17.5391 61.9647 17.5391 68.2131 23.7875L65.3847 26.616ZM65.3847 43.5865C70.071 38.9002 70.071 31.3022 65.3847 26.616L68.2131 23.7875C74.4615 30.0359 74.4615 40.1666 68.2131 46.4149L65.3847 43.5865ZM55.4852 53.486L65.3847 43.5865L68.2131 46.4149L58.3136 56.3144L55.4852 53.486ZM38.5146 33.687L58.3136 53.486L55.4852 56.3144L35.6862 36.5154L38.5146 33.687ZM48.4141 26.616L38.5146 36.5154L35.6862 33.687L45.5857 23.7875L48.4141 26.616Z" fill="currentColor" />
  <path fill-rule="evenodd" clip-rule="evenodd" d="M19.9998 11C23.1824 11 26.2348 12.2644 28.4853 14.5148C30.7356 16.7652 32 19.8175 32 23C32 26.1825 30.7356 29.2348 28.4853 31.4852C26.2348 33.7356 23.1824 35 19.9998 35C16.8173 35 13.765 33.7357 11.5146 31.4853C9.26426 29.235 8 26.1825 8 23C8 19.8175 9.26426 16.765 11.5146 14.5146C13.765 12.2643 16.8173 11 19.9998 11Z" fill="currentColor" fill-opacity="0.15" />
  <path d="M12.9289 15.9289C14.8042 14.0535 17.3477 13 19.9998 13L19.9998 9C16.2869 9 12.7259 10.475 10.1004 13.1004L12.9289 15.9289ZM10 23C10 20.3479 11.0536 17.8042 12.9289 15.9289L10.1004 13.1004C7.47494 15.7259 6 19.2871 6 23L10 23ZM12.9289 30.0711C11.0536 28.1958 10 25.6521 10 23L6 23C6 26.7129 7.47494 30.2741 10.1004 32.8996L12.9289 30.0711ZM19.9998 33C17.3477 33 14.8042 31.9465 12.9289 30.0711L10.1004 32.8996C12.7259 35.525 16.2869 37 19.9998 37L19.9998 33ZM27.071 30.0709C25.1957 31.9463 22.652 33 19.9998 33L19.9998 37C23.7129 37 27.274 35.5249 29.8995 32.8994L27.071 30.0709ZM30 23C30 25.652 28.9464 28.1956 27.071 30.0709L29.8995 32.8994C32.5249 30.274 34 26.713 34 23L30 23ZM27.071 15.9291C28.9464 17.8044 30 20.348 30 23L34 23C34 19.287 32.5249 15.726 29.8995 13.1006L27.071 15.9291ZM29.8995 13.1006C27.274 10.4751 23.7129 9 19.9998 9L19.9998 13C22.652 13 25.1957 14.0537 27.071 15.9291L29.8995 13.1006Z" fill="currentColor" />
  <path d="M32 25C33.1046 25 34 24.1046 34 23C34 21.8954 33.1046 21 32 21L32 25ZM8 21C6.89543 21 6 21.8954 6 23C6 24.1046 6.89543 25 8 25L8 21ZM32 21L8 21L8 25L32 25L32 21Z" fill="currentColor" />
</svg>