<svg viewBox="0 0 80 80" fill="none">
  <path d="M40.1311 34.8862C40.1311 33.7817 39.2357 32.8862 38.1311 32.8862C37.0265 32.8862 36.1311 33.7817 36.1311 34.8862L40.1311 34.8862ZM36.1311 59.0408C36.1311 60.1453 37.0265 61.0408 38.1311 61.0408C39.2357 61.0408 40.1311 60.1453 40.1311 59.0408H36.1311ZM36.1311 34.8862L36.1311 59.0408H40.1311L40.1311 34.8862L36.1311 34.8862Z" fill="currentColor" />
  <path d="M32.8782 15.2838C36.1287 13.4071 40.1336 13.4071 43.3841 15.2838C46.6346 17.1605 48.637 20.6287 48.637 24.3821C48.637 28.1355 46.6346 31.6038 43.3841 33.4805C40.1335 35.3572 36.1287 35.3572 32.8782 33.4805C29.6277 31.6038 27.6253 28.1355 27.6253 24.3821C27.6253 20.6287 29.6277 17.1605 32.8782 15.2838Z" fill="currentColor" fill-opacity="0.25" stroke="currentColor" stroke-width="4" stroke-linecap="round" stroke-linejoin="round" />
</svg>