<svg viewBox="0 0 80 80" fill="none">
  <path d="M39.9998 48.75V67.25" stroke="currentColor" stroke-width="4" stroke-linecap="round" stroke-linejoin="round" />
  <path fill-rule="evenodd" clip-rule="evenodd" d="M47.9998 12.75H51.9998C51.9998 15.2924 50.8138 17.5578 48.9649 19.0232L51.5842 36.0488C54.7639 38.2544 57.2743 41.3412 58.7781 44.9718C59.2868 46.1999 59.6701 47.4655 59.9279 48.75L20.072 48.75C20.3298 47.4655 20.7131 46.1999 21.2218 44.9718C22.7256 41.3413 25.2358 38.2547 28.4153 36.0492L31.0347 19.0232C29.1857 17.5578 27.9998 15.2924 27.9998 12.75H31.9998L47.9998 12.75Z" fill="currentColor" fill-opacity="0.15" />
  <path d="M51.9998 12.75H53.9998C53.9998 11.6454 53.1043 10.75 51.9998 10.75V12.75ZM48.9649 19.0232L47.7226 17.4558C47.1592 17.9023 46.8788 18.6168 46.9881 19.3273L48.9649 19.0232ZM51.5842 36.0488L49.6074 36.353C49.6909 36.8953 49.9934 37.3795 50.4443 37.6922L51.5842 36.0488ZM58.7781 44.9718L60.6259 44.2065V44.2065L58.7781 44.9718ZM59.9279 48.75V50.75C60.5273 50.75 61.0952 50.4811 61.475 50.0175C61.8549 49.5538 62.0068 48.9441 61.8888 48.3564L59.9279 48.75ZM20.072 48.75L18.1111 48.3564C17.9932 48.9441 18.145 49.5538 18.5249 50.0174C18.9048 50.4811 19.4726 50.75 20.072 50.75V48.75ZM21.2218 44.9718L19.374 44.2065L19.374 44.2065L21.2218 44.9718ZM28.4153 36.0492L29.5552 37.6925C30.006 37.3798 30.3086 36.8956 30.392 36.3533L28.4153 36.0492ZM31.0347 19.0232L33.0114 19.3273C33.1207 18.6168 32.8403 17.9023 32.2769 17.4558L31.0347 19.0232ZM27.9998 12.75V10.75C26.8952 10.75 25.9998 11.6454 25.9998 12.75H27.9998ZM51.9998 10.75L47.9998 10.75V14.75L51.9998 14.75V10.75ZM50.2071 20.5906C52.5141 18.7622 53.9998 15.929 53.9998 12.75H49.9998C49.9998 14.6558 49.1135 16.3535 47.7226 17.4558L50.2071 20.5906ZM46.9881 19.3273L49.6074 36.353L53.5609 35.7447L50.9416 18.7191L46.9881 19.3273ZM50.4443 37.6922C53.3112 39.6808 55.5745 42.4639 56.9304 45.7372L60.6259 44.2065C58.974 40.2185 56.2166 36.828 52.7241 34.4055L50.4443 37.6922ZM56.9304 45.7372C57.3891 46.8446 57.7346 47.9855 57.967 49.1436L61.8888 48.3564C61.6056 46.9454 61.1846 45.5553 60.6259 44.2065L56.9304 45.7372ZM59.9279 46.75L20.072 46.75V50.75L59.9279 50.75V46.75ZM22.0329 49.1436C22.2653 47.9855 22.6109 46.8446 23.0696 45.7372L19.374 44.2065C18.8153 45.5553 18.3943 46.9454 18.1111 48.3564L22.0329 49.1436ZM23.0696 45.7372C24.4253 42.464 26.6885 39.6811 29.5552 37.6925L27.2753 34.4059C23.7831 36.8284 21.0258 40.2187 19.374 44.2065L23.0696 45.7372ZM30.392 36.3533L33.0114 19.3273L29.0579 18.7191L26.4385 35.7451L30.392 36.3533ZM25.9998 12.75C25.9998 15.929 27.4854 18.7622 29.7924 20.5906L32.2769 17.4558C30.8861 16.3535 29.9998 14.6558 29.9998 12.75H25.9998ZM31.9998 10.75H27.9998V14.75H31.9998V10.75ZM31.9998 14.75L47.9998 14.75V10.75L31.9998 10.75V14.75Z" fill="currentColor" />
</svg>