<svg viewBox="0 0 80 80" fill="none">
  <path d="M49.4268 34L38.5549 15.0236C37.1294 12.5354 34.4811 11.0005 31.6134 11.0005H29.375C28.6565 11.0005 28.111 11.6475 28.2326 12.3557L31.9471 34H20.5233L16.0054 27.6751C15.2546 26.6239 14.0423 26 12.7505 26H9.80898C9.29425 26 8.91051 26.4746 9.01821 26.9779L11.7909 39.9367C11.7945 39.9493 11.8008 39.9607 11.8091 39.9701C11.809 39.9801 11.809 39.9901 11.809 40L11.8091 40.0295C11.8008 40.039 11.7945 40.0503 11.7909 40.063L9.01821 53.0217C8.91051 53.5251 9.29425 53.9996 9.80898 53.9996H12.7505C14.0423 53.9996 15.2546 53.3757 16.0054 52.3245L20.5229 46H31.9472L28.2326 67.6451C28.111 68.3533 28.6565 69.0003 29.375 69.0003H31.6134C34.4811 69.0003 37.1294 67.4654 38.5549 64.9772L49.4272 46H60.3858C62.8955 46 65.3762 45.4638 67.6618 44.4273L68.0768 44.2391C69.7405 43.4846 70.809 41.8268 70.809 40C70.809 38.1733 69.7405 36.5155 68.0768 35.761L67.6618 35.5728C65.3762 34.5363 62.8955 34 60.3858 34H49.4268Z" fill="currentColor" fill-opacity="0.25" stroke="currentColor" stroke-width="4" stroke-linecap="round" stroke-linejoin="round" />
</svg>