<svg viewBox="0 0 80 80" fill="none">
  <path fill-rule="evenodd" clip-rule="evenodd" d="M50.8224 33.2841L31.008 22.743C29.2561 21.8109 27.1909 21.6663 25.3262 22.345L19.7985 24.3569C19.3667 24.5141 19.2513 25.0706 19.5849 25.3865L34.2839 39.3037L18.5107 45.0447L13.6805 42.0448C12.6378 41.3972 11.3555 41.2642 10.202 41.684L5.45108 43.4133C4.99314 43.5799 4.83855 44.15 5.14954 44.5252L13.9345 55.124C13.9589 55.1535 13.9934 55.1711 14.0299 55.1746C14.0582 55.1928 14.0913 55.2035 14.1264 55.2046L22.9607 55.4824C27.707 55.6317 32.4381 54.874 36.9004 53.2498L63.8001 43.4591C66.6965 42.405 69.3245 40.7247 71.4968 38.5381L72.708 37.3189C73.9986 36.0199 74.4226 34.0923 73.7963 32.3716C73.1701 30.6509 71.6062 29.4468 69.7826 29.2812L68.071 29.1258C65.0014 28.8472 61.9082 29.2493 59.0119 30.3034L50.8224 33.2841Z" fill="currentColor" fill-opacity="0.25" />
  <path d="M31.008 22.743L31.9473 20.9773L31.9473 20.9773L31.008 22.743ZM50.8224 33.2841L49.8831 35.0498C50.3836 35.3161 50.9737 35.3574 51.5064 35.1635L50.8224 33.2841ZM19.5849 25.3865L20.96 23.9342L20.96 23.9342L19.5849 25.3865ZM34.2839 39.3037L34.968 41.183C35.6193 40.946 36.1015 40.3885 36.2423 39.7098C36.383 39.0311 36.1623 38.3279 35.659 37.8513L34.2839 39.3037ZM18.5107 45.0447L17.4555 46.7437C17.9768 47.0674 18.618 47.1339 19.1947 46.924L18.5107 45.0447ZM13.6805 42.0448L12.6253 43.7438L12.6253 43.7438L13.6805 42.0448ZM10.202 41.684L9.518 39.8047L9.51799 39.8047L10.202 41.684ZM5.45108 43.4133L6.13512 45.2926L6.13512 45.2926L5.45108 43.4133ZM5.14954 44.5252L6.68937 43.2489L5.14954 44.5252ZM13.9345 55.124L15.4743 53.8477L15.4743 53.8477L13.9345 55.124ZM14.0299 55.1746L15.1104 53.4916C14.843 53.3199 14.5385 53.2145 14.2222 53.1839L14.0299 55.1746ZM14.1264 55.2046L14.0635 57.2036L14.0635 57.2036L14.1264 55.2046ZM22.9607 55.4824L22.8979 57.4814L22.8979 57.4814L22.9607 55.4824ZM36.9004 53.2498L37.5844 55.1292L36.9004 53.2498ZM63.8001 43.4591L63.1161 41.5797L63.8001 43.4591ZM71.4968 38.5381L70.0779 37.1285L71.4968 38.5381ZM72.708 37.3189L74.1269 38.7285L74.1269 38.7285L72.708 37.3189ZM69.7826 29.2812L69.6017 31.273L69.7826 29.2812ZM68.071 29.1258L68.2518 27.134L68.071 29.1258ZM30.0686 24.5086L49.8831 35.0498L51.7617 31.5185L31.9473 20.9773L30.0686 24.5086ZM26.0102 24.2244C27.3421 23.7396 28.8173 23.8429 30.0686 24.5086L31.9473 20.9773C29.6949 19.779 27.0396 19.593 24.6421 20.4656L26.0102 24.2244ZM20.4825 26.2363L26.0102 24.2244L24.6421 20.4656L19.1144 22.4775L20.4825 26.2363ZM20.96 23.9342C21.706 24.6405 21.4479 25.8849 20.4825 26.2363L19.1144 22.4775C17.2856 23.1432 16.7966 25.5007 18.2099 26.8388L20.96 23.9342ZM35.659 37.8513L20.96 23.9342L18.2099 26.8388L32.9089 40.756L35.659 37.8513ZM33.5999 37.4243L17.8266 43.1653L19.1947 46.924L34.968 41.183L33.5999 37.4243ZM19.5658 43.3457L14.7357 40.3458L12.6253 43.7438L17.4555 46.7437L19.5658 43.3457ZM14.7357 40.3458C13.1716 39.3744 11.2481 39.1749 9.518 39.8047L10.8861 43.5634C11.4628 43.3535 12.1039 43.42 12.6253 43.7438L14.7357 40.3458ZM9.51799 39.8047L4.76704 41.5339L6.13512 45.2926L10.8861 43.5634L9.51799 39.8047ZM4.76704 41.5339C3.00944 42.1736 2.41612 44.3614 3.60971 45.8015L6.68937 43.2489C7.26097 43.9385 6.97683 44.9863 6.13512 45.2926L4.76704 41.5339ZM3.60971 45.8015L12.3946 56.4003L15.4743 53.8477L6.68937 43.2489L3.60971 45.8015ZM12.3946 56.4003C12.7642 56.8463 13.2879 57.1122 13.8375 57.1654L14.2222 53.1839C14.699 53.23 15.1535 53.4607 15.4743 53.8477L12.3946 56.4003ZM12.9494 56.8576C13.2754 57.067 13.6591 57.1909 14.0635 57.2036L14.1893 53.2056C14.5235 53.2161 14.8409 53.3186 15.1104 53.4916L12.9494 56.8576ZM14.0635 57.2036L22.8979 57.4814L23.0236 53.4834L14.1893 53.2056L14.0635 57.2036ZM22.8979 57.4814C27.8984 57.6387 32.8831 56.8404 37.5844 55.1292L36.2163 51.3705C31.9932 52.9076 27.5155 53.6247 23.0236 53.4834L22.8979 57.4814ZM37.5844 55.1292L64.4842 45.3385L63.1161 41.5797L36.2163 51.3705L37.5844 55.1292ZM64.4842 45.3385C67.657 44.1837 70.5359 42.343 72.9156 39.9477L70.0779 37.1285C68.113 39.1063 65.7359 40.6262 63.1161 41.5797L64.4842 45.3385ZM72.9156 39.9477L74.1269 38.7285L71.2892 35.9093L70.0779 37.1285L72.9156 39.9477ZM74.1269 38.7285C75.9635 36.8797 76.567 34.1364 75.6757 31.6875L71.9169 33.0556C72.2782 34.0481 72.0336 35.16 71.2892 35.9093L74.1269 38.7285ZM75.6757 31.6875C74.7844 29.2387 72.5587 27.5251 69.9634 27.2894L69.6017 31.273C70.6536 31.3685 71.5557 32.0631 71.9169 33.0556L75.6757 31.6875ZM69.9634 27.2894L68.2518 27.134L67.8902 31.1177L69.6017 31.273L69.9634 27.2894ZM68.2518 27.134C64.8892 26.8288 61.5006 27.2692 58.3278 28.424L59.6959 32.1828C62.3157 31.2293 65.1136 30.8656 67.8902 31.1177L68.2518 27.134ZM58.3278 28.424L50.1384 31.4048L51.5064 35.1635L59.6959 32.1828L58.3278 28.424Z" fill="currentColor" />
  <path d="M7 64H75" stroke="currentColor" stroke-width="4" stroke-linecap="round" stroke-linejoin="round" />
</svg>