<svg viewBox="0 0 80 80" fill="none">
  <circle cx="40" cy="40" r="28" fill="currentColor" fill-opacity="0.15" />
  <path d="M40 68C32.5739 68 25.452 65.05 20.201 59.799C14.95 54.548 12 47.4261 12 40C12 32.5739 14.95 25.452 20.201 20.201C25.452 14.95 32.5739 12 40 12" stroke="currentColor" stroke-width="4" stroke-linecap="round" stroke-linejoin="round" stroke-dasharray="1 8" />
  <path d="M40 12C47.4261 12 54.548 14.95 59.799 20.201C65.05 25.452 68 32.5739 68 40C68 47.4261 65.05 54.548 59.799 59.799C54.548 65.05 47.4261 68 40 68" stroke="currentColor" stroke-width="4" stroke-linecap="round" stroke-linejoin="round" />
  <path d="M49.9969 38.2442C51.3866 39.0022 51.3866 40.9978 49.9969 41.7558L34.1735 50.3867C32.8408 51.1137 31.2158 50.149 31.2158 48.6309L31.2158 31.3691C31.2158 29.851 32.8408 28.8863 34.1735 29.6133L49.9969 38.2442Z" fill="currentColor" fill-opacity="0.15" stroke="currentColor" stroke-width="4" stroke-linecap="square" stroke-linejoin="round" />
</svg>