<svg viewBox="0 0 80 80" fill="none">
  <path d="M40 68C36.323 68 32.682 67.2758 29.2849 65.8686C25.8877 64.4615 22.801 62.399 20.201 59.799C17.601 57.1989 15.5385 54.1123 14.1314 50.7151C12.7242 47.318 12 43.677 12 40C12 36.323 12.7242 32.682 14.1314 29.2849C15.5385 25.8877 17.601 22.801 20.201 20.201C22.8011 17.601 25.8877 15.5385 29.2849 14.1314C32.682 12.7242 36.323 12 40 12" stroke="currentColor" stroke-width="4" stroke-linecap="round" stroke-linejoin="round" stroke-dasharray="4 12" />
  <path d="M40 12C47.4261 12 54.548 14.95 59.799 20.201C65.05 25.452 68 32.5739 68 40C68 47.4261 65.05 54.548 59.799 59.799C54.548 65.05 47.4261 68 40 68" stroke="currentColor" stroke-width="4" stroke-linecap="round" stroke-linejoin="round" />
  <path d="M49.9969 38.2442C51.3866 39.0022 51.3866 40.9978 49.9969 41.7558L34.1735 50.3867C32.8408 51.1137 31.2158 50.149 31.2158 48.6309L31.2158 31.3691C31.2158 29.851 32.8408 28.8863 34.1735 29.6133L49.9969 38.2442Z" fill="currentColor" fill-opacity="0.15" stroke="currentColor" stroke-width="4" stroke-linecap="square" stroke-linejoin="round" />
</svg>