<svg viewBox="0 0 80 80" fill="none">
  <path d="M12 27C12 25.3432 13.3431 24 15 24H65C66.6569 24 68 25.3432 68 27V61C68 62.6569 66.6569 64 65 64H15C13.3431 64 12 62.6569 12 61V27Z" fill="currentColor" fill-opacity="0.25" />
  <path d="M66.7029 23.9999H39.4182L41.9885 17.285C42.2848 16.511 43.0277 15.9999 43.8564 15.9999H62.2647C63.0934 15.9999 63.8363 16.511 64.1326 17.285L66.7029 23.9999Z" fill="currentColor" fill-opacity="0.25" />
  <path d="M22.9151 24H15.1195L15.6504 21.5726C15.8513 20.6544 16.6643 20 17.6042 20H20.4304C21.3703 20 22.1833 20.6544 22.3842 21.5726L22.9151 24Z" fill="currentColor" fill-opacity="0.25" />
  <path d="M28.5543 40H12V48H28.5543C28.1113 46.733 27.8756 45.3833 27.8756 44C27.8756 42.6168 28.1113 41.2671 28.5543 40Z" fill="currentColor" fill-opacity="0.25" />
  <path d="M51.4457 48H68V40H51.4457C51.8887 41.2671 52.1244 42.6168 52.1244 44C52.1244 45.3833 51.8887 46.733 51.4457 48Z" fill="currentColor" fill-opacity="0.25" />
  <path d="M33.9378 33.5C37.6891 31.3342 42.3109 31.3342 46.0622 33.5C49.8135 35.6658 52.1244 39.6684 52.1244 44C52.1244 48.3316 49.8135 52.3342 46.0622 54.5C42.3109 56.6658 37.6891 56.6658 33.9378 54.5C30.1865 52.3342 27.8756 48.3316 27.8756 44C27.8756 39.6684 30.1865 35.6658 33.9378 33.5Z" fill="currentColor" fill-opacity="0.25" />
  <path d="M27.8756 44C27.8756 45.3833 28.1113 46.733 28.5543 48H12V40H28.5543C28.1113 41.2671 27.8756 42.6168 27.8756 44ZM27.8756 44C27.8756 39.6684 30.1865 35.6658 33.9378 33.5C37.6891 31.3342 42.3109 31.3342 46.0622 33.5C49.8135 35.6658 52.1244 39.6684 52.1244 44M27.8756 44C27.8756 48.3316 30.1865 52.3342 33.9378 54.5C37.6891 56.6658 42.3109 56.6658 46.0622 54.5C49.8135 52.3342 52.1244 48.3316 52.1244 44M52.1244 44C52.1244 42.6168 51.8887 41.2671 51.4457 40H68V48H51.4457C51.8887 46.733 52.1244 45.3833 52.1244 44ZM33.4108 46.1406C33.1893 45.459 33.072 44.738 33.072 44.0002C33.072 41.525 34.3925 39.2378 36.5361 38.0002C37.6076 37.3816 38.8035 37.0721 39.9993 37.072M15 64H65C66.6569 64 68 62.6569 68 61V27C68 25.3432 66.6569 24 65 24H15C13.3431 24 12 25.3432 12 27V61C12 62.6569 13.3431 64 15 64ZM66.7029 23.9999H39.4182L41.9885 17.285C42.2848 16.511 43.0277 15.9999 43.8564 15.9999H62.2647C63.0934 15.9999 63.8363 16.511 64.1326 17.285L66.7029 23.9999ZM22.9151 24H15.1195L15.6504 21.5726C15.8513 20.6544 16.6643 20 17.6042 20H20.4304C21.3703 20 22.1833 20.6544 22.3842 21.5726L22.9151 24Z" stroke="currentColor" stroke-width="4" stroke-linecap="round" stroke-linejoin="round" />
</svg>