<svg viewBox="0 0 80 80" fill="none">
  <path fill-rule="evenodd" clip-rule="evenodd" d="M41.3262 16.9148C41.3262 16.0864 40.6546 15.4148 39.8262 15.4148C38.9978 15.4148 38.3262 16.0864 38.3262 16.9148L38.3262 42.9148C38.3262 43.7432 38.9978 44.4148 39.8262 44.4148C40.6546 44.4148 41.3262 43.7432 41.3262 42.9148L41.3262 16.9148ZM17.9558 31.8145C19.3755 28.387 21.5653 25.3758 24.3161 22.9899C24.925 22.4618 25.8416 22.5704 26.3537 23.1929C26.8936 23.8491 26.7751 24.8191 26.1383 25.3818C23.8034 27.4451 21.9425 30.0293 20.7275 32.9625C18.6293 38.028 18.6293 43.7195 20.7275 48.785C22.8257 53.8505 26.8502 57.875 31.9157 59.9732C36.9811 62.0714 42.6727 62.0714 47.7382 59.9732C52.8037 57.875 56.8282 53.8505 58.9264 48.785C61.0246 43.7195 61.0246 38.028 58.9264 32.9625C57.5718 29.6923 55.4144 26.8559 52.6923 24.6916C52.0451 24.1771 51.8645 23.2506 52.3288 22.5665C52.795 21.8795 53.7338 21.6981 54.3883 22.2087C57.5861 24.7036 60.1186 28.0015 61.698 31.8145C64.1007 37.615 64.1007 44.1325 61.698 49.9331C59.2953 55.7337 54.6868 60.3422 48.8862 62.7449C43.0856 65.1475 36.5682 65.1475 30.7676 62.7449C24.967 60.3422 20.3585 55.7337 17.9558 49.9331C15.5531 44.1325 15.5531 37.615 17.9558 31.8145Z" fill="currentColor" />
</svg>