<svg viewBox="0 0 80 80" fill="none">
  <path fill-rule="evenodd" clip-rule="evenodd" d="M14.3252 40.0396H24.5019C24.4865 41.0139 24.1481 41.9498 23.8092 42.8871C23.5782 43.5261 23.347 44.1657 23.2177 44.8186C23.1675 45.072 23.1415 45.3323 23.1415 45.5962C23.1415 47.0258 23.9041 48.3468 25.1422 49.0615C26.3802 49.7763 27.9055 49.7763 29.1436 49.0615C30.3816 48.3468 31.1443 47.0258 31.1443 45.5962C31.1443 45.3322 31.1183 45.072 31.0681 44.8185C30.9387 44.1656 30.7075 43.5259 30.4764 42.8869L30.4764 42.8868C30.1375 41.9496 29.7992 41.0138 29.7835 40.0396H40.0395V50.325H40.277C41.2572 50.325 42.199 49.989 43.1422 49.6525C43.8011 49.4174 44.4607 49.1821 45.1346 49.0608C45.3602 49.0203 45.591 48.9993 45.8249 48.9993C47.2172 48.9993 48.5037 49.7421 49.1999 50.9479C49.896 52.1536 49.896 53.6392 49.1999 54.845C48.5037 56.0507 47.2172 56.7935 45.8249 56.7935C45.591 56.7935 45.3602 56.7726 45.1346 56.732C44.4607 56.6108 43.8011 56.3754 43.1422 56.1404C42.199 55.8038 41.2572 55.4678 40.277 55.4678H40.0395V65.7538H27.1823H14.3252V52.8967V40.0396Z" fill="currentColor" fill-opacity="0.25" />
  <path d="M24.5019 40.0396L26.5017 40.0713C26.5102 39.5355 26.3033 39.0186 25.9273 38.6366C25.5514 38.2547 25.0379 38.0396 24.5019 38.0396V40.0396ZM14.3252 40.0396V38.0396C13.2206 38.0396 12.3252 38.935 12.3252 40.0396H14.3252ZM23.8092 42.8871L21.9284 42.2071V42.2071L23.8092 42.8871ZM23.2177 44.8186L25.1795 45.2072L25.1795 45.2072L23.2177 44.8186ZM29.1436 49.0615L30.1436 50.7936L30.1436 50.7936L29.1436 49.0615ZM31.0681 44.8185L29.1062 45.2071L29.1062 45.2072L31.0681 44.8185ZM30.4764 42.8869L28.579 43.5193C28.5843 43.5352 28.5898 43.5511 28.5956 43.5669L30.4764 42.8869ZM30.4764 42.8868L32.3737 42.2544C32.3684 42.2384 32.3629 42.2226 32.3572 42.2068L30.4764 42.8868ZM29.7835 40.0396V38.0396C29.2476 38.0396 28.734 38.2547 28.3581 38.6367C27.9821 39.0187 27.7752 39.5357 27.7838 40.0716L29.7835 40.0396ZM40.0395 40.0396H42.0395C42.0395 38.935 41.1441 38.0396 40.0395 38.0396V40.0396ZM40.0395 50.325H38.0395C38.0395 51.4296 38.9349 52.325 40.0395 52.325V50.325ZM40.277 50.325L40.277 48.325H40.277V50.325ZM43.1422 49.6525L43.8143 51.5362V51.5362L43.1422 49.6525ZM45.1346 49.0608L45.4887 51.0292L45.4887 51.0292L45.1346 49.0608ZM49.1999 54.845L50.9319 55.845V55.845L49.1999 54.845ZM45.1346 56.732L45.4887 54.7636L45.4887 54.7636L45.1346 56.732ZM43.1422 56.1404L42.4702 58.0241L42.4702 58.0241L43.1422 56.1404ZM40.0395 55.4678V53.4678C38.9349 53.4678 38.0395 54.3633 38.0395 55.4678H40.0395ZM40.0395 65.7538V67.7538C41.1441 67.7538 42.0395 66.8584 42.0395 65.7538H40.0395ZM14.3252 65.7538H12.3252C12.3252 66.8584 13.2206 67.7538 14.3252 67.7538V65.7538ZM24.5019 38.0396H14.3252V42.0396H24.5019V38.0396ZM25.6901 43.5671C26.0067 42.6913 26.48 41.4375 26.5017 40.0713L22.5022 40.0078C22.4929 40.5903 22.2895 41.2084 21.9284 42.2071L25.6901 43.5671ZM25.1795 45.2072C25.2743 44.7287 25.4495 44.2325 25.6901 43.5671L21.9284 42.2071C21.7069 42.8197 21.4196 43.6028 21.2558 44.43L25.1795 45.2072ZM25.1415 45.5962C25.1415 45.4637 25.1545 45.3336 25.1795 45.2072L21.2558 44.43C21.1804 44.8104 21.1415 45.2008 21.1415 45.5962H25.1415ZM26.1422 47.3295C25.5229 46.972 25.1415 46.3113 25.1415 45.5962H21.1415C21.1415 47.7403 22.2853 49.7215 24.1422 50.7936L26.1422 47.3295ZM28.1436 47.3295C27.5243 47.687 26.7614 47.687 26.1422 47.3295L24.1422 50.7936C25.999 51.8656 28.2867 51.8656 30.1436 50.7936L28.1436 47.3295ZM29.1443 45.5962C29.1443 46.3113 28.7628 46.972 28.1436 47.3295L30.1436 50.7936C32.0004 49.7215 33.1443 47.7403 33.1443 45.5962H29.1443ZM29.1062 45.2072C29.1312 45.3336 29.1443 45.4637 29.1443 45.5962H33.1443C33.1443 45.2008 33.1053 44.8103 33.03 44.4299L29.1062 45.2072ZM28.5956 43.5669C28.8362 44.2324 29.0114 44.7286 29.1062 45.2071L33.03 44.4299C32.8661 43.6026 32.5787 42.8194 32.3572 42.2068L28.5956 43.5669ZM28.579 43.5193L28.579 43.5193L32.3738 42.2544L32.3737 42.2544L28.579 43.5193ZM27.7838 40.0716C27.8057 41.4375 28.2789 42.6912 28.5955 43.5669L32.3572 42.2068C31.9961 41.2081 31.7926 40.5901 31.7833 40.0075L27.7838 40.0716ZM40.0395 38.0396H29.7835V42.0396H40.0395V38.0396ZM42.0395 50.325V40.0396H38.0395V50.325H42.0395ZM40.277 48.325H40.0395V52.325H40.277V48.325ZM42.4702 47.7688C41.4631 48.1281 40.8514 48.325 40.277 48.325L40.277 52.325C41.663 52.325 42.9349 51.8499 43.8143 51.5362L42.4702 47.7688ZM44.7804 47.0924C43.9161 47.2479 43.1 47.544 42.4702 47.7688L43.8143 51.5362C44.5021 51.2908 45.0052 51.1162 45.4887 51.0292L44.7804 47.0924ZM45.8249 46.9993C45.4714 46.9993 45.1221 47.031 44.7804 47.0924L45.4887 51.0292C45.5982 51.0095 45.7106 50.9993 45.8249 50.9993V46.9993ZM50.9319 49.9479C49.8785 48.1233 47.9317 46.9993 45.8249 46.9993V50.9993C46.5027 50.9993 47.1289 51.3609 47.4678 51.9479L50.9319 49.9479ZM50.9319 55.845C51.9853 54.0204 51.9853 51.7724 50.9319 49.9479L47.4678 51.9479C47.8067 52.5348 47.8067 53.258 47.4678 53.845L50.9319 55.845ZM45.8249 58.7935C47.9317 58.7935 49.8785 57.6695 50.9319 55.845L47.4678 53.845C47.1289 54.4319 46.5027 54.7935 45.8249 54.7935V58.7935ZM44.7804 58.7004C45.1221 58.7619 45.4714 58.7935 45.8249 58.7935V54.7935C45.7106 54.7935 45.5982 54.7833 45.4887 54.7636L44.7804 58.7004ZM42.4702 58.0241C43.1001 58.2488 43.9161 58.5449 44.7804 58.7004L45.4887 54.7636C45.0052 54.6766 44.5021 54.5021 43.8143 54.2567L42.4702 58.0241ZM40.277 57.4678C40.8513 57.4678 41.4631 57.6648 42.4702 58.0241L43.8143 54.2567C42.9349 53.9429 41.663 53.4678 40.277 53.4678V57.4678ZM40.0395 57.4678H40.277V53.4678H40.0395V57.4678ZM42.0395 65.7538V55.4678H38.0395V65.7538H42.0395ZM27.1823 67.7538H40.0395V63.7538H27.1823V67.7538ZM14.3252 67.7538H27.1823V63.7538H14.3252V67.7538ZM12.3252 52.8967V65.7538H16.3252V52.8967H12.3252ZM12.3252 40.0396V52.8967H16.3252V40.0396H12.3252Z" fill="currentColor" />
  <path fill-rule="evenodd" clip-rule="evenodd" d="M56.1405 36.9364C55.8039 37.8797 55.4679 38.8215 55.4679 39.8018V40.0395H65.7538V52.8966V65.7538H52.8967H40.0396V55.4979C41.0137 55.5135 41.9495 55.8519 42.8867 56.1907L42.8867 56.1907C43.5258 56.4218 44.1655 56.6531 44.8184 56.7824C45.0718 56.8326 45.3321 56.8586 45.5961 56.8586C47.0256 56.8586 48.3466 56.096 49.0614 54.8579C49.7762 53.6199 49.7762 52.0945 49.0614 50.8565C48.3466 49.6185 47.0256 48.8558 45.5961 48.8558C45.3321 48.8558 45.0718 48.8818 44.8184 48.932C44.1656 49.0613 43.5259 49.2926 42.8869 49.5236C41.9497 49.8624 41.0138 50.2008 40.0396 50.2163V40.0395H50.325V39.8012C50.325 38.821 49.9891 37.8792 49.6526 36.9361C49.4176 36.2772 49.1823 35.6177 49.061 34.9439C49.0205 34.7183 48.9995 34.4874 48.9995 34.2536C48.9995 32.8613 49.7423 31.5747 50.9481 30.8786C52.1538 30.1824 53.6394 30.1824 54.8452 30.8786C56.051 31.5747 56.7937 32.8613 56.7937 34.2536C56.7937 34.4874 56.7728 34.7183 56.7322 34.9439C56.6109 35.6178 56.3756 36.2775 56.1405 36.9364Z" fill="currentColor" fill-opacity="0.25" />
  <path d="M56.1405 36.9364L58.0242 37.6085V37.6085L56.1405 36.9364ZM55.4679 40.0395H53.4679C53.4679 41.1441 54.3633 42.0395 55.4679 42.0395V40.0395ZM65.7538 40.0395H67.7538C67.7538 38.9349 66.8584 38.0395 65.7538 38.0395V40.0395ZM65.7538 65.7538V67.7538C66.8584 67.7538 67.7538 66.8583 67.7538 65.7538H65.7538ZM40.0396 65.7538H38.0396C38.0396 66.8583 38.935 67.7538 40.0396 67.7538V65.7538ZM40.0396 55.4979L40.0717 53.4981C39.5357 53.4895 39.0188 53.6964 38.6367 54.0724C38.2547 54.4483 38.0396 54.9619 38.0396 55.4979H40.0396ZM42.8867 56.1907L43.6628 54.3474C43.6311 54.3341 43.599 54.3216 43.5667 54.3099L42.8867 56.1907ZM42.8867 56.1907L42.1106 58.034C42.1423 58.0473 42.1743 58.0599 42.2066 58.0716L42.8867 56.1907ZM44.8184 56.7824L45.207 54.8205H45.207L44.8184 56.7824ZM49.0614 54.8579L50.7934 55.8579L50.7934 55.8579L49.0614 54.8579ZM49.0614 50.8565L47.3293 51.8565H47.3293L49.0614 50.8565ZM45.5961 48.8558V50.8558H45.5961L45.5961 48.8558ZM44.8184 48.932L44.4298 46.9701L44.4298 46.9701L44.8184 48.932ZM42.8869 49.5236L42.207 47.6427H42.207L42.8869 49.5236ZM40.0396 50.2163H38.0396C38.0396 50.7522 38.2547 51.2658 38.6366 51.6417C39.0186 52.0177 39.5355 52.2246 40.0714 52.216L40.0396 50.2163ZM40.0396 40.0395V38.0395C38.935 38.0395 38.0396 38.9349 38.0396 40.0395H40.0396ZM50.325 40.0395V42.0395C51.4296 42.0395 52.325 41.1441 52.325 40.0395H50.325ZM49.6526 36.9361L51.5363 36.264V36.264L49.6526 36.9361ZM49.061 34.9439L47.0926 35.298L47.0926 35.298L49.061 34.9439ZM50.9481 30.8786L49.9481 29.1465V29.1465L50.9481 30.8786ZM54.8452 30.8786L53.8452 32.6106V32.6106L54.8452 30.8786ZM56.7322 34.9439L54.7638 34.5898L54.7638 34.5898L56.7322 34.9439ZM57.4679 39.8018C57.4679 39.2274 57.6649 38.6156 58.0242 37.6085L54.2568 36.2643C53.943 37.1437 53.4679 38.4156 53.4679 39.8018H57.4679ZM57.4679 40.0395V39.8018H53.4679V40.0395H57.4679ZM65.7538 38.0395H55.4679V42.0395H65.7538V38.0395ZM67.7538 52.8966V40.0395H63.7538V52.8966H67.7538ZM67.7538 65.7538V52.8966H63.7538V65.7538H67.7538ZM52.8967 67.7538H65.7538V63.7538H52.8967V67.7538ZM40.0396 67.7538H52.8967V63.7538H40.0396V67.7538ZM38.0396 55.4979V65.7538H42.0396V55.4979H38.0396ZM43.5667 54.3099C42.691 53.9933 41.4375 53.5201 40.0717 53.4981L40.0074 57.4976C40.59 57.507 41.208 57.7105 42.2066 58.0715L43.5667 54.3099ZM43.6628 54.3474L43.6628 54.3474L42.1105 58.034L42.1106 58.034L43.6628 54.3474ZM45.207 54.8205C44.7285 54.7257 44.2322 54.5505 43.5667 54.3099L42.2066 58.0716C42.8193 58.2931 43.6024 58.5804 44.4298 58.7443L45.207 54.8205ZM45.5961 54.8586C45.4636 54.8586 45.3335 54.8456 45.207 54.8205L44.4298 58.7443C44.8102 58.8197 45.2006 58.8586 45.5961 58.8586V54.8586ZM47.3293 53.8579C46.9718 54.4772 46.3111 54.8586 45.5961 54.8586V58.8586C47.7402 58.8586 49.7214 57.7148 50.7934 55.8579L47.3293 53.8579ZM47.3293 51.8565C47.6869 52.4757 47.6869 53.2387 47.3293 53.8579L50.7934 55.8579C51.8655 54.0011 51.8655 51.7134 50.7934 49.8565L47.3293 51.8565ZM45.5961 50.8558C46.3111 50.8558 46.9718 51.2373 47.3293 51.8565L50.7934 49.8565C49.7214 47.9997 47.7402 46.8558 45.5961 46.8558L45.5961 50.8558ZM45.207 50.8939C45.3335 50.8688 45.4636 50.8558 45.5961 50.8558V46.8558C45.2006 46.8558 44.8102 46.8948 44.4298 46.9701L45.207 50.8939ZM43.5669 51.4044C44.2324 51.1639 44.7285 50.9887 45.207 50.8939L44.4298 46.9701C43.6026 47.134 42.8195 47.4213 42.207 47.6427L43.5669 51.4044ZM40.0714 52.216C41.4374 52.1943 42.6912 51.721 43.5669 51.4044L42.207 47.6427C41.2083 48.0038 40.5903 48.2073 40.0077 48.2165L40.0714 52.216ZM38.0396 40.0395V50.2163H42.0396V40.0395H38.0396ZM50.325 38.0395H40.0396V42.0395H50.325V38.0395ZM48.325 39.8012V40.0395H52.325V39.8012H48.325ZM47.7689 37.6081C48.1281 38.6151 48.325 39.2268 48.325 39.8012H52.325C52.325 38.4152 51.85 37.1434 51.5363 36.264L47.7689 37.6081ZM47.0926 35.298C47.2481 36.1623 47.5442 36.9782 47.7689 37.6081L51.5363 36.264C51.2909 35.5762 51.1164 35.0731 51.0294 34.5897L47.0926 35.298ZM46.9995 34.2536C46.9995 34.607 47.0312 34.9563 47.0926 35.298L51.0294 34.5898C51.0097 34.4802 50.9995 34.3678 50.9995 34.2536H46.9995ZM49.9481 29.1465C48.1235 30.1999 46.9995 32.1467 46.9995 34.2536H50.9995C50.9995 33.5758 51.3611 32.9495 51.9481 32.6106L49.9481 29.1465ZM55.8452 29.1465C54.0206 28.0931 51.7726 28.0931 49.9481 29.1465L51.9481 32.6106C52.535 32.2717 53.2582 32.2717 53.8452 32.6106L55.8452 29.1465ZM58.7937 34.2536C58.7937 32.1467 57.6698 30.1999 55.8452 29.1465L53.8452 32.6106C54.4321 32.9495 54.7937 33.5758 54.7937 34.2536H58.7937ZM58.7006 35.298C58.7621 34.9564 58.7937 34.607 58.7937 34.2536H54.7937C54.7937 34.3678 54.7835 34.4802 54.7638 34.5898L58.7006 35.298ZM58.0242 37.6085C58.2489 36.9785 58.5451 36.1624 58.7006 35.298L54.7638 34.5898C54.6768 35.0732 54.5022 35.5764 54.2568 36.2643L58.0242 37.6085Z" fill="currentColor" />
  <path fill-rule="evenodd" clip-rule="evenodd" d="M40.0398 14.3252H52.897H65.7541V27.1823V40.0395H55.4683V39.8026C55.4683 38.8223 55.8043 37.8805 56.1409 36.9372L56.1409 36.9371C56.376 36.2782 56.6113 35.6186 56.7326 34.9447C56.7732 34.7191 56.7941 34.4882 56.7941 34.2543C56.7941 32.862 56.0513 31.5755 54.8456 30.8793C53.6398 30.1832 52.1542 30.1832 50.9485 30.8793C49.7427 31.5755 48.9999 32.862 48.9999 34.2543C48.9999 34.4882 49.0209 34.719 49.0614 34.9446C49.1826 35.6185 49.4179 36.278 49.653 36.9368L49.653 36.9368C49.9895 37.88 50.3254 38.8217 50.3254 39.8019V40.0395H40.0398V29.6107H39.6594C38.6792 29.6107 37.7374 29.9467 36.7941 30.2832C36.1353 30.5183 35.4757 30.7536 34.8018 30.8748C34.5762 30.9154 34.3453 30.9363 34.1115 30.9363C32.7192 30.9363 31.4326 30.1936 30.7365 28.9878C30.0403 27.782 30.0403 26.2964 30.7365 25.0907C31.4326 23.8849 32.7192 23.1421 34.1115 23.1421C34.3453 23.1421 34.5762 23.1631 34.8018 23.2037C35.4757 23.3249 36.1353 23.5602 36.7941 23.7953C37.7374 24.1318 38.6792 24.4678 39.6594 24.4678H40.0398V14.3252Z" fill="currentColor" fill-opacity="0.25" />
  <path d="M40.0398 14.3252V12.3252C38.9353 12.3252 38.0398 13.2206 38.0398 14.3252H40.0398ZM65.7541 14.3252H67.7541C67.7541 13.2206 66.8587 12.3252 65.7541 12.3252V14.3252ZM65.7541 40.0395V42.0395C66.8587 42.0395 67.7541 41.1441 67.7541 40.0395H65.7541ZM55.4683 40.0395H53.4683C53.4683 41.1441 54.3637 42.0395 55.4683 42.0395V40.0395ZM56.1409 36.9372L54.352 36.0427C54.316 36.1149 54.2843 36.1891 54.2572 36.2651L56.1409 36.9372ZM56.1409 36.9371L57.9297 37.8316C57.9658 37.7594 57.9975 37.6852 58.0246 37.6092L56.1409 36.9371ZM56.7326 34.9447L54.7642 34.5905V34.5905L56.7326 34.9447ZM54.8456 30.8793L55.8456 29.1473L55.8456 29.1473L54.8456 30.8793ZM50.9485 30.8793L49.9485 29.1473L49.9485 29.1473L50.9485 30.8793ZM49.0614 34.9446L47.093 35.2987V35.2987L49.0614 34.9446ZM49.653 36.9368L47.7692 37.6088C47.7777 37.6326 47.7866 37.6562 47.796 37.6796L49.653 36.9368ZM49.653 36.9368L51.5367 36.2648C51.5282 36.241 51.5193 36.2175 51.5099 36.194L49.653 36.9368ZM50.3254 40.0395V42.0395C51.43 42.0395 52.3254 41.1441 52.3254 40.0395H50.3254ZM40.0398 40.0395H38.0398C38.0398 41.1441 38.9353 42.0395 40.0398 42.0395V40.0395ZM40.0398 29.6107H42.0398C42.0398 28.5061 41.1444 27.6107 40.0398 27.6107V29.6107ZM36.7941 30.2832L36.1221 28.3995H36.1221L36.7941 30.2832ZM34.8018 30.8748L34.4477 28.9064H34.4477L34.8018 30.8748ZM30.7365 28.9878L32.4685 27.9878L30.7365 28.9878ZM30.7365 25.0907L29.0044 24.0907L30.7365 25.0907ZM34.8018 23.2037L35.1559 21.2353L35.1559 21.2353L34.8018 23.2037ZM36.7941 23.7953L36.1221 25.679L36.1221 25.679L36.7941 23.7953ZM40.0398 24.4678V26.4678C41.1444 26.4678 42.0398 25.5724 42.0398 24.4678H40.0398ZM52.897 12.3252H40.0398V16.3252H52.897V12.3252ZM65.7541 12.3252H52.897V16.3252H65.7541V12.3252ZM67.7541 27.1823V14.3252H63.7541V27.1823H67.7541ZM67.7541 40.0395V27.1823H63.7541V40.0395H67.7541ZM55.4683 42.0395H65.7541V38.0395H55.4683V42.0395ZM53.4683 39.8026V40.0395H57.4683V39.8026H53.4683ZM54.2572 36.2651C53.9434 37.1445 53.4683 38.4164 53.4683 39.8026H57.4683C57.4683 39.2282 57.6652 38.6164 58.0246 37.6093L54.2572 36.2651ZM54.352 36.0427L54.352 36.0427L57.9297 37.8316L57.9297 37.8316L54.352 36.0427ZM54.7642 34.5905C54.6772 35.074 54.5026 35.5772 54.2572 36.2651L58.0246 37.6092C58.2493 36.9793 58.5455 36.1632 58.701 35.2988L54.7642 34.5905ZM54.7941 34.2543C54.7941 34.3686 54.7839 34.481 54.7642 34.5905L58.701 35.2988C58.7624 34.9572 58.7941 34.6078 58.7941 34.2543H54.7941ZM53.8456 32.6114C54.4325 32.9503 54.7941 33.5766 54.7941 34.2543H58.7941C58.7941 32.1475 57.6701 30.2007 55.8456 29.1473L53.8456 32.6114ZM51.9485 32.6114C52.5354 32.2725 53.2586 32.2725 53.8456 32.6114L55.8456 29.1473C54.021 28.0939 51.773 28.0939 49.9485 29.1473L51.9485 32.6114ZM50.9999 34.2543C50.9999 33.5766 51.3615 32.9503 51.9485 32.6114L49.9485 29.1473C48.1239 30.2007 46.9999 32.1475 46.9999 34.2543H50.9999ZM51.0298 34.5905C51.0101 34.481 50.9999 34.3686 50.9999 34.2543H46.9999C46.9999 34.6078 47.0316 34.9571 47.093 35.2987L51.0298 34.5905ZM51.5367 36.2648C51.2913 35.577 51.1168 35.0739 51.0298 34.5905L47.093 35.2987C47.2485 36.163 47.5446 36.979 47.7692 37.6088L51.5367 36.2648ZM51.5099 36.194L51.5099 36.194L47.796 37.6796L47.796 37.6796L51.5099 36.194ZM52.3254 39.8019C52.3254 38.4159 51.8504 37.1442 51.5367 36.2648L47.7693 37.6088C48.1285 38.6158 48.3254 39.2276 48.3254 39.8019H52.3254ZM52.3254 40.0395V39.8019H48.3254V40.0395H52.3254ZM40.0398 42.0395H50.3254V38.0395H40.0398V42.0395ZM38.0398 29.6107V40.0395H42.0398V29.6107H38.0398ZM40.0398 27.6107H39.6594V31.6107H40.0398V27.6107ZM39.6594 27.6107C38.2733 27.6107 37.0015 28.0857 36.1221 28.3995L37.4662 32.1669C38.4733 31.8076 39.085 31.6107 39.6594 31.6107V27.6107ZM36.1221 28.3995C35.4342 28.6449 34.9311 28.8194 34.4477 28.9064L35.1559 32.8432C36.0203 32.6877 36.8363 32.3916 37.4662 32.1669L36.1221 28.3995ZM34.4477 28.9064C34.3381 28.9261 34.2257 28.9363 34.1115 28.9363V32.9363C34.4649 32.9363 34.8143 32.9047 35.1559 32.8432L34.4477 28.9064ZM34.1115 28.9363C33.4337 28.9363 32.8074 28.5748 32.4685 27.9878L29.0044 29.9878C30.0578 31.8124 32.0046 32.9363 34.1115 32.9363V28.9363ZM32.4685 27.9878C32.1296 27.4008 32.1296 26.6776 32.4685 26.0907L29.0044 24.0907C27.951 25.9153 27.951 28.1632 29.0044 29.9878L32.4685 27.9878ZM32.4685 26.0907C32.8074 25.5037 33.4337 25.1421 34.1115 25.1421V21.1421C32.0046 21.1421 30.0578 22.2661 29.0044 24.0907L32.4685 26.0907ZM34.1115 25.1421C34.2257 25.1421 34.3381 25.1524 34.4477 25.1721L35.1559 21.2353C34.8143 21.1738 34.4649 21.1421 34.1115 21.1421V25.1421ZM34.4477 25.1721C34.9311 25.259 35.4342 25.4336 36.1221 25.679L37.4662 21.9116C36.8363 21.6869 36.0203 21.3908 35.1559 21.2353L34.4477 25.1721ZM36.1221 25.679C37.0015 25.9927 38.2733 26.4678 39.6594 26.4678V22.4678C39.085 22.4678 38.4733 22.2709 37.4662 21.9116L36.1221 25.679ZM39.6594 26.4678H40.0398V22.4678H39.6594V26.4678ZM38.0398 14.3252V24.4678H42.0398V14.3252H38.0398Z" fill="currentColor" />
  <path fill-rule="evenodd" clip-rule="evenodd" d="M14.3252 14.3252H27.1823H40.0395V24.5025H40.0297C39.0303 24.5025 38.0722 24.1562 37.1128 23.8093C36.4738 23.5783 35.8341 23.347 35.1813 23.2177C34.9279 23.1675 34.6676 23.1415 34.4036 23.1415C32.9741 23.1415 31.6531 23.9042 30.9383 25.1422C30.2235 26.3803 30.2235 27.9056 30.9383 29.1436C31.6531 30.3817 32.9741 31.1443 34.4036 31.1443C34.6676 31.1443 34.9279 31.1183 35.1813 31.0681C35.8343 30.9388 36.4739 30.7075 37.113 30.4764C38.0726 30.1295 39.0308 29.783 40.0302 29.783H40.0395V40.0395H29.6107V40.1334C29.6107 41.1137 29.9468 42.0555 30.2833 42.9988C30.5184 43.6577 30.7538 44.3173 30.875 44.9913C30.9156 45.2169 30.9366 45.4477 30.9366 45.6816C30.9366 47.0739 30.1938 48.3605 28.988 49.0566C27.7822 49.7528 26.2967 49.7528 25.0909 49.0566C23.8851 48.3605 23.1423 47.0739 23.1423 45.6816C23.1423 45.4478 23.1633 45.2169 23.2039 44.9913C23.3251 44.3175 23.5604 43.6579 23.7954 42.9991C24.1319 42.0559 24.4679 41.1142 24.4679 40.134V40.0395H14.3252V27.1823V14.3252Z" fill="currentColor" fill-opacity="0.25" />
  <path d="M14.3252 14.3252V12.3252C13.2206 12.3252 12.3252 13.2206 12.3252 14.3252H14.3252ZM40.0395 14.3252H42.0395C42.0395 13.2206 41.1441 12.3252 40.0395 12.3252V14.3252ZM40.0395 24.5025V26.5025C41.1441 26.5025 42.0395 25.6071 42.0395 24.5025H40.0395ZM37.1128 23.8093L37.7927 21.9284L37.1128 23.8093ZM35.1813 23.2177L34.7927 25.1796L35.1813 23.2177ZM30.9383 25.1422L32.6704 26.1422L32.6704 26.1422L30.9383 25.1422ZM35.1813 31.0681L35.5699 33.03H35.5699L35.1813 31.0681ZM37.113 30.4764L36.433 28.5956L36.433 28.5956L37.113 30.4764ZM40.0395 29.783H42.0395C42.0395 28.6785 41.1441 27.783 40.0395 27.783V29.783ZM40.0395 40.0395V42.0395C41.1441 42.0395 42.0395 41.1441 42.0395 40.0395H40.0395ZM29.6107 40.0395V38.0395C28.5061 38.0395 27.6107 38.9349 27.6107 40.0395H29.6107ZM30.2833 42.9988L32.167 42.3267L30.2833 42.9988ZM30.875 44.9913L28.9066 45.3454V45.3454L30.875 44.9913ZM28.988 49.0566L29.988 50.7887H29.988L28.988 49.0566ZM25.0909 49.0566L24.0909 50.7887H24.0909L25.0909 49.0566ZM23.2039 44.9913L21.2355 44.6372L21.2355 44.6372L23.2039 44.9913ZM23.7954 42.9991L25.6791 43.6711L23.7954 42.9991ZM24.4679 40.0395H26.4679C26.4679 38.9349 25.5724 38.0395 24.4679 38.0395V40.0395ZM14.3252 40.0395H12.3252C12.3252 41.1441 13.2206 42.0395 14.3252 42.0395V40.0395ZM27.1823 12.3252H14.3252V16.3252H27.1823V12.3252ZM40.0395 12.3252H27.1823V16.3252H40.0395V12.3252ZM42.0395 24.5025V14.3252H38.0395V24.5025H42.0395ZM40.0297 26.5025H40.0395V22.5025H40.0297V26.5025ZM36.4328 25.6901C37.3278 26.0137 38.6194 26.5025 40.0297 26.5025V22.5025C39.4412 22.5025 38.8167 22.2986 37.7927 21.9284L36.4328 25.6901ZM34.7927 25.1796C35.2712 25.2744 35.7673 25.4496 36.4328 25.6901L37.7927 21.9284C37.1802 21.707 36.3971 21.4197 35.5699 21.2558L34.7927 25.1796ZM34.4036 25.1415C34.5361 25.1415 34.6662 25.1546 34.7927 25.1796L35.5699 21.2558C35.1895 21.1805 34.7991 21.1415 34.4036 21.1415V25.1415ZM32.6704 26.1422C33.0279 25.523 33.6886 25.1415 34.4036 25.1415V21.1415C32.2595 21.1415 30.2783 22.2854 29.2063 24.1422L32.6704 26.1422ZM32.6704 28.1436C32.3128 27.5244 32.3128 26.7615 32.6704 26.1422L29.2063 24.1422C28.1342 25.9991 28.1342 28.2868 29.2063 30.1436L32.6704 28.1436ZM34.4036 29.1443C33.6886 29.1443 33.0279 28.7629 32.6704 28.1436L29.2063 30.1436C30.2783 32.0005 32.2595 33.1443 34.4036 33.1443V29.1443ZM34.7927 29.1062C34.6663 29.1313 34.5361 29.1443 34.4036 29.1443V33.1443C34.7991 33.1443 35.1895 33.1054 35.5699 33.03L34.7927 29.1062ZM36.433 28.5956C35.7675 28.8362 35.2712 29.0115 34.7927 29.1062L35.5699 33.03C36.3973 32.8661 37.1804 32.5788 37.7931 32.3573L36.433 28.5956ZM40.0302 27.783C38.6198 27.783 37.3281 28.272 36.433 28.5956L37.7931 32.3573C38.8172 31.987 39.4417 31.783 40.0302 31.783V27.783ZM40.0395 27.783H40.0302V31.783H40.0395V27.783ZM42.0395 40.0395V29.783H38.0395V40.0395H42.0395ZM29.6107 42.0395H40.0395V38.0395H29.6107V42.0395ZM27.6107 40.0395V40.1334H31.6107V40.0395H27.6107ZM27.6107 40.1334C27.6107 41.5195 28.0858 42.7914 28.3996 43.6709L32.167 42.3267C31.8077 41.3196 31.6107 40.7078 31.6107 40.1334H27.6107ZM28.3996 43.6709C28.6451 44.3588 28.8196 44.8619 28.9066 45.3454L32.8434 44.6371C32.6879 43.7727 32.3918 42.9566 32.167 42.3267L28.3996 43.6709ZM28.9066 45.3454C28.9263 45.455 28.9366 45.5673 28.9366 45.6816H32.9366C32.9366 45.3282 32.9049 44.9788 32.8434 44.6371L28.9066 45.3454ZM28.9366 45.6816C28.9366 46.3594 28.575 46.9857 27.988 47.3246L29.988 50.7887C31.8126 49.7352 32.9366 47.7884 32.9366 45.6816H28.9366ZM27.988 47.3246C27.401 47.6634 26.6779 47.6634 26.0909 47.3246L24.0909 50.7887C25.9155 51.8421 28.1634 51.8421 29.988 50.7887L27.988 47.3246ZM26.0909 47.3246C25.5039 46.9857 25.1423 46.3594 25.1423 45.6816H21.1423C21.1423 47.7884 22.2663 49.7352 24.0909 50.7887L26.0909 47.3246ZM25.1423 45.6816C25.1423 45.5673 25.1526 45.455 25.1723 45.3454L21.2355 44.6372C21.174 44.9788 21.1423 45.3282 21.1423 45.6816H25.1423ZM25.1723 45.3454C25.2592 44.862 25.4338 44.3589 25.6791 43.6711L21.9117 42.3271C21.687 42.9569 21.3909 43.7729 21.2355 44.6372L25.1723 45.3454ZM25.6791 43.6711C25.9928 42.7918 26.4679 41.52 26.4679 40.134H22.4679C22.4679 40.7084 22.2709 41.3201 21.9117 42.3271L25.6791 43.6711ZM26.4679 40.134V40.0395H22.4679V40.134H26.4679ZM14.3252 42.0395H24.4679V38.0395H14.3252V42.0395ZM12.3252 27.1823V40.0395H16.3252V27.1823H12.3252ZM12.3252 14.3252V27.1823H16.3252V14.3252H12.3252Z" fill="currentColor" />
</svg>