<svg viewBox="0 0 80 80" fill="none">
  <path d="M54.5858 65.4134C55.3668 66.1945 56.6332 66.1945 57.4142 65.4134C58.1953 64.6324 58.1953 63.366 57.4142 62.585L54.5858 65.4134ZM47.4142 52.585C46.6332 51.804 45.3668 51.804 44.5858 52.585C43.8047 53.3661 43.8047 54.6324 44.5858 55.4134L47.4142 52.585ZM26 50L26 30H22L22 50H26ZM38 62C31.3726 62 26 56.6274 26 50H22C22 58.8366 29.1634 66 38 66V62ZM42 62H38V66H42V62ZM54 50C54 56.6274 48.6274 62 42 62V66C50.8366 66 58 58.8366 58 50H54ZM54 30L54 50H58L58 30H54ZM42 18C48.6274 18 54 23.3726 54 30H58C58 21.1634 50.8366 14 42 14V18ZM38 18H42V14L38 14V18ZM26 30C26 23.3726 31.3726 18 38 18V14C29.1634 14 22 21.1634 22 30H26ZM57.4142 62.585L47.4142 52.585L44.5858 55.4134L54.5858 65.4134L57.4142 62.585Z" fill="currentColor" />
</svg>