<svg viewBox="0 0 80 80" fill="none">
  <path fill-rule="evenodd" clip-rule="evenodd" d="M29.6558 36.2246C29.6745 36.2433 29.6931 36.2621 29.7116 36.281L29.9092 37.0411C30.0411 37.0096 30.1731 36.9788 30.3052 36.9486C30.3052 36.9486 30.3052 36.9487 30.3052 36.9487C30.0179 37.0144 29.7311 37.083 29.4449 37.1546C28.6328 37.3576 28.0631 38.0872 28.0631 38.9243V41.3241C28.0631 42.2845 28.8474 43.0227 29.7565 43.0238L29.5394 43.3349C27.3625 46.4546 26.553 50.3275 27.298 54.0579L27.7145 56.1435C28.27 58.9249 29.763 61.4038 31.9068 63.1891C31.8404 63.1828 31.7741 63.1563 31.7163 63.1057L17.3542 50.5389C15.4011 48.8299 14.2808 46.361 14.2808 43.7657V42.5619C14.2808 40.185 15.225 37.9054 16.9058 36.2246C18.5865 34.5439 20.8661 33.5996 23.2431 33.5996H23.3185C25.6954 33.5996 27.975 34.5439 29.6558 36.2246ZM49.7309 42.9176L50.0221 43.3349C52.199 46.4546 53.0085 50.3275 52.2635 54.0579L51.847 56.1435C51.2915 58.9249 49.7985 61.4038 47.6547 63.1891C47.7211 63.1828 47.7874 63.1563 47.8452 63.1057L62.2073 50.5389C64.1604 48.8299 65.2808 46.361 65.2808 43.7657V42.5619C65.2808 40.185 64.3365 37.9054 62.6558 36.2246C60.975 34.5439 58.6954 33.5996 56.3185 33.5996H56.2431C54.1041 33.5996 52.0439 34.3643 50.4281 35.7422L50.0977 37.0129C50.2925 37.0588 50.4871 37.106 50.6814 37.1546C51.4934 37.3576 52.0631 38.0872 52.0631 38.9243V41.3241C52.0631 42.4293 51.0244 43.2403 49.9522 42.9723C49.8785 42.9538 49.8047 42.9356 49.7309 42.9176Z" fill="currentColor" fill-opacity="0.15" />
  <path d="M29.7116 36.281L31.6473 35.7778C31.5592 35.4389 31.3837 35.1291 31.1383 34.8793L29.7116 36.281ZM29.6558 36.2246L28.2415 37.6388L28.2416 37.6388L29.6558 36.2246ZM29.9092 37.0411L27.9735 37.5442C28.2475 38.598 29.314 39.2391 30.3731 38.9866L29.9092 37.0411ZM30.3052 36.9486L31.846 35.6735C31.3643 35.0915 30.5959 34.8306 29.8594 34.9989L30.3052 36.9486ZM30.3052 36.9487L30.751 38.8984C31.4277 38.7436 31.9758 38.2491 32.199 37.5917C32.4222 36.9344 32.2886 36.2083 31.846 35.6735L30.3052 36.9487ZM29.7565 43.0238L31.3966 44.1683C31.8228 43.5575 31.8743 42.7605 31.5303 42.1C31.1863 41.4394 30.5037 41.0247 29.7589 41.0238L29.7565 43.0238ZM29.5394 43.3349L31.1796 44.4794V44.4794L29.5394 43.3349ZM27.298 54.0579L25.3367 54.4496L27.298 54.0579ZM27.7145 56.1435L29.6758 55.7518L27.7145 56.1435ZM31.9068 63.1891L31.7171 65.1801C32.5903 65.2633 33.4157 64.7678 33.753 63.9581C34.0903 63.1485 33.8607 62.2135 33.1866 61.6522L31.9068 63.1891ZM31.7163 63.1057L30.3993 64.6109L30.3993 64.6109L31.7163 63.1057ZM17.3542 50.5389L18.6712 49.0337L17.3542 50.5389ZM16.9058 36.2246L15.4915 34.8104L15.4915 34.8104L16.9058 36.2246ZM49.7309 42.9176L50.2052 40.9746C49.3969 40.7774 48.5509 41.1011 48.0808 41.7875C47.6107 42.474 47.6147 43.3798 48.0908 44.0621L49.7309 42.9176ZM50.0221 43.3349L48.382 44.4794L48.382 44.4794L50.0221 43.3349ZM52.2635 54.0579L54.2248 54.4496V54.4496L52.2635 54.0579ZM51.847 56.1435L53.8083 56.5352L51.847 56.1435ZM47.6547 63.1891L46.3749 61.6522C45.7009 62.2135 45.4712 63.1485 45.8085 63.9581C46.1458 64.7678 46.9713 65.2633 47.8444 65.1801L47.6547 63.1891ZM47.8452 63.1057L49.1622 64.6109L49.1622 64.6109L47.8452 63.1057ZM62.2073 50.5389L63.5243 52.044L62.2073 50.5389ZM62.6558 36.2246L64.07 34.8104V34.8104L62.6558 36.2246ZM50.4281 35.7422L49.1303 34.2204C48.8183 34.4865 48.5956 34.8421 48.4924 35.239L50.4281 35.7422ZM50.0977 37.0129L48.1621 36.5098C48.0266 37.0309 48.107 37.5846 48.385 38.0457C48.6631 38.5067 49.1152 38.8362 49.6393 38.9597L50.0977 37.0129ZM50.6814 37.1546L51.1664 35.2143L51.1664 35.2143L50.6814 37.1546ZM31.1383 34.8793C31.1157 34.8563 31.0929 34.8333 31.07 34.8104L28.2416 37.6388C28.2561 37.6534 28.2706 37.668 28.285 37.6827L31.1383 34.8793ZM31.8449 36.5379L31.6473 35.7778L27.776 36.7841L27.9735 37.5442L31.8449 36.5379ZM29.8594 34.9989C29.7213 35.0305 29.5833 35.0627 29.4454 35.0956L30.3731 38.9866C30.4989 38.9565 30.6249 38.9271 30.7509 38.8983L29.8594 34.9989ZM31.846 35.6735C31.8563 35.6859 31.8645 35.6961 31.8696 35.7026C31.8722 35.7058 31.8743 35.7085 31.8755 35.7101C31.8767 35.7116 31.8777 35.7128 31.8775 35.7126C31.8775 35.7126 31.8775 35.7126 31.8775 35.7126C31.8775 35.7126 31.8775 35.7126 31.8775 35.7126C31.8775 35.7126 31.8775 35.7126 31.8775 35.7126C31.8775 35.7126 31.8775 35.7126 31.8775 35.7126C31.8775 35.7125 31.8774 35.7125 31.8774 35.7124C31.8773 35.7123 31.8772 35.7122 31.877 35.712C31.8767 35.7116 31.8762 35.7109 31.8755 35.7101C31.8743 35.7085 31.8722 35.7058 31.8696 35.7026C31.8644 35.6961 31.8562 35.6859 31.846 35.6735L28.7644 38.2238C28.7541 38.2114 28.746 38.2012 28.7408 38.1947C28.7382 38.1915 28.7361 38.1888 28.7349 38.1872C28.7337 38.1857 28.7327 38.1845 28.7329 38.1847C28.7329 38.1847 28.7329 38.1847 28.7329 38.1847C28.7329 38.1847 28.7329 38.1847 28.7329 38.1847C28.7329 38.1847 28.7329 38.1847 28.7329 38.1847C28.7329 38.1847 28.7329 38.1847 28.7329 38.1847C28.7329 38.1848 28.733 38.1848 28.733 38.1849C28.7331 38.185 28.7332 38.1851 28.7334 38.1853C28.7337 38.1857 28.7342 38.1864 28.7349 38.1872C28.7362 38.1889 28.7382 38.1915 28.7408 38.1948C28.746 38.2012 28.7542 38.2114 28.7644 38.2238L31.846 35.6735ZM29.9299 39.0948C30.2031 39.0266 30.4768 38.9611 30.751 38.8984L29.8595 34.999C29.559 35.0677 29.2591 35.1394 28.9598 35.2143L29.9299 39.0948ZM30.0631 38.9243C30.0631 39.005 30.0082 39.0753 29.9299 39.0948L28.9598 35.2143C27.2574 35.6399 26.0631 37.1695 26.0631 38.9243H30.0631ZM30.0631 41.3241V38.9243H26.0631V41.3241H30.0631ZM29.7589 41.0238C29.8498 41.0239 29.9234 41.0606 29.9716 41.1081C30.0255 41.1611 30.0631 41.2428 30.0631 41.3241H26.0631C26.0631 43.4207 27.7742 45.0214 29.754 45.0238L29.7589 41.0238ZM31.1796 44.4794L31.3966 44.1683L28.1163 41.8793L27.8992 42.1904L31.1796 44.4794ZM29.2593 53.6662C28.621 50.4702 29.3146 47.1521 31.1796 44.4794L27.8992 42.1904C25.4105 45.757 24.485 50.1847 25.3367 54.4496L29.2593 53.6662ZM29.6758 55.7518L29.2593 53.6662L25.3367 54.4496L25.7533 56.5352L29.6758 55.7518ZM33.1866 61.6522C31.3912 60.157 30.141 58.081 29.6758 55.7518L25.7533 56.5352C26.399 59.7688 28.1348 62.6506 30.6269 64.726L33.1866 61.6522ZM30.3993 64.6109C30.7781 64.9423 31.2405 65.1347 31.7171 65.1801L32.0965 61.1981C32.4403 61.2309 32.7701 61.3702 33.0333 61.6006L30.3993 64.6109ZM16.0372 52.044L30.3993 64.6109L33.0333 61.6006L18.6712 49.0337L16.0372 52.044ZM12.2808 43.7657C12.2808 46.9377 13.65 49.9553 16.0372 52.044L18.6712 49.0337C17.1521 47.7045 16.2808 45.7842 16.2808 43.7657H12.2808ZM12.2808 42.5619V43.7657H16.2808V42.5619H12.2808ZM15.4915 34.8104C13.4357 36.8662 12.2808 39.6545 12.2808 42.5619H16.2808C16.2808 40.7154 17.0143 38.9445 18.32 37.6388L15.4915 34.8104ZM23.2431 31.5996C20.3357 31.5996 17.5474 32.7546 15.4915 34.8104L18.32 37.6388C19.6257 36.3331 21.3966 35.5996 23.2431 35.5996V31.5996ZM23.3185 31.5996H23.2431V35.5996H23.3185V31.5996ZM31.07 34.8104C29.0141 32.7546 26.2258 31.5996 23.3185 31.5996V35.5996C25.165 35.5996 26.9359 36.3331 28.2415 37.6388L31.07 34.8104ZM48.0908 44.0621L48.382 44.4794L51.6623 42.1904L51.3711 41.7731L48.0908 44.0621ZM48.382 44.4794C50.247 47.1521 50.9405 50.4702 50.3023 53.6662L54.2248 54.4496C55.0765 50.1848 54.151 45.757 51.6623 42.1904L48.382 44.4794ZM50.3023 53.6662L49.8857 55.7518L53.8083 56.5352L54.2248 54.4496L50.3023 53.6662ZM49.8857 55.7518C49.4206 58.081 48.1703 60.157 46.3749 61.6522L48.9346 64.726C51.4268 62.6506 53.1625 59.7688 53.8083 56.5352L49.8857 55.7518ZM47.8444 65.1801C48.321 65.1347 48.7835 64.9423 49.1622 64.6109L46.5282 61.6005C46.7914 61.3702 47.1213 61.2309 47.465 61.1981L47.8444 65.1801ZM49.1622 64.6109L63.5243 52.044L60.8903 49.0337L46.5282 61.6006L49.1622 64.6109ZM63.5243 52.044C65.9115 49.9553 67.2808 46.9377 67.2808 43.7657H63.2808C63.2808 45.7842 62.4094 47.7045 60.8903 49.0337L63.5243 52.044ZM67.2808 43.7657V42.5619H63.2808V43.7657H67.2808ZM67.2808 42.5619C67.2808 39.6545 66.1258 36.8662 64.07 34.8104L61.2415 37.6388C62.5472 38.9445 63.2808 40.7154 63.2808 42.5619H67.2808ZM64.07 34.8104C62.0141 32.7546 59.2258 31.5996 56.3185 31.5996V35.5996C58.165 35.5996 59.9359 36.3331 61.2415 37.6388L64.07 34.8104ZM56.3185 31.5996H56.2431V35.5996H56.3185V31.5996ZM56.2431 31.5996C53.6267 31.5996 51.1069 32.5349 49.1303 34.2204L51.7258 37.264C52.981 36.1936 54.5815 35.5996 56.2431 35.5996V31.5996ZM48.4924 35.239L48.1621 36.5098L52.0334 37.5161L52.3637 36.2453L48.4924 35.239ZM49.6393 38.9597C49.8252 39.0034 50.0109 39.0485 50.1963 39.0948L51.1664 35.2143C50.9633 35.1635 50.7598 35.1141 50.5562 35.0661L49.6393 38.9597ZM50.1963 39.0948C50.118 39.0753 50.0631 39.005 50.0631 38.9243H54.0631C54.0631 37.1695 52.8688 35.6399 51.1664 35.2143L50.1963 39.0948ZM50.0631 38.9243V41.3241H54.0631V38.9243H50.0631ZM50.0631 41.3241C50.0631 41.1282 50.2472 40.9845 50.4372 41.032L49.4671 44.9125C51.8017 45.4962 54.0631 43.7305 54.0631 41.3241H50.0631ZM50.4372 41.032C50.3599 41.0126 50.2826 40.9935 50.2052 40.9746L49.2567 44.8606C49.3269 44.8777 49.397 44.895 49.4671 44.9125L50.4372 41.032Z" fill="currentColor" />
  <path fill-rule="evenodd" clip-rule="evenodd" d="M29.7747 43.0233L29.5572 43.335C27.3804 46.4547 26.5708 50.3275 27.3158 54.058L27.7323 56.1436C28.4429 59.7013 30.6873 62.7642 33.8657 64.5135C37.5597 66.5466 42.0375 66.5466 45.7314 64.5135C48.9099 62.7642 51.1543 59.7013 51.8648 56.1436L52.2813 54.058C53.0264 50.3276 52.2168 46.4547 50.04 43.335L49.752 42.9223C43.3198 41.3488 36.6002 41.3653 30.1741 42.9718C30.0398 43.0054 29.906 43.022 29.7747 43.0233Z" fill="currentColor" fill-opacity="0.15" />
  <path d="M29.5572 43.335L27.9171 42.1905L27.9171 42.1905L29.5572 43.335ZM29.7747 43.0233L29.7555 41.0234C29.1086 41.0296 28.5047 41.3483 28.1346 41.8788L29.7747 43.0233ZM27.3158 54.058L25.3546 54.4497L27.3158 54.058ZM27.7323 56.1436L29.6936 55.7519L27.7323 56.1436ZM33.8657 64.5135L34.8301 62.7614L33.8657 64.5135ZM45.7314 64.5135L44.7671 62.7614L45.7314 64.5135ZM51.8648 56.1436L49.9036 55.7519L51.8648 56.1436ZM52.2813 54.058L50.3201 53.6663V53.6663L52.2813 54.058ZM50.04 43.335L51.6801 42.1905V42.1905L50.04 43.335ZM49.752 42.9223L51.3921 41.7778C51.1138 41.3789 50.6997 41.0951 50.2272 40.9796L49.752 42.9223ZM30.1741 42.9718L30.6591 44.9121L30.1741 42.9718ZM31.1974 44.4795L31.4149 44.1678L28.1346 41.8788L27.9171 42.1905L31.1974 44.4795ZM29.2771 53.6663C28.6388 50.4703 29.3324 47.1522 31.1974 44.4795L27.9171 42.1905C25.4283 45.7571 24.5028 50.1848 25.3546 54.4497L29.2771 53.6663ZM29.6936 55.7519L29.2771 53.6663L25.3546 54.4497L25.7711 56.5353L29.6936 55.7519ZM34.8301 62.7614C32.1683 61.2964 30.2887 58.7314 29.6936 55.7519L25.7711 56.5353C26.5971 60.6713 29.2063 64.232 32.9014 66.2657L34.8301 62.7614ZM44.7671 62.7614C41.6736 64.464 37.9236 64.464 34.8301 62.7614L32.9014 66.2657C37.1958 68.6292 42.4014 68.6292 46.6958 66.2657L44.7671 62.7614ZM49.9036 55.7519C49.3085 58.7314 47.4289 61.2964 44.7671 62.7614L46.6958 66.2657C50.3908 64.232 53.0001 60.6713 53.8261 56.5353L49.9036 55.7519ZM50.3201 53.6663L49.9036 55.7519L53.8261 56.5353L54.2426 54.4497L50.3201 53.6663ZM48.3998 44.4795C50.2648 47.1522 50.9584 50.4703 50.3201 53.6663L54.2426 54.4497C55.0944 50.1848 54.1688 45.7571 51.6801 42.1905L48.3998 44.4795ZM48.1118 44.0668L48.3998 44.4795L51.6801 42.1905L51.3921 41.7778L48.1118 44.0668ZM50.2272 40.9796C43.4796 39.3289 36.4303 39.3462 29.689 41.0315L30.6591 44.9121C36.77 43.3844 43.1601 43.3687 49.2767 44.865L50.2272 40.9796ZM29.689 41.0315C29.7076 41.0269 29.7302 41.0236 29.7555 41.0234L29.794 45.0232C30.0818 45.0204 30.372 44.9839 30.6591 44.9121L29.689 41.0315Z" fill="currentColor" />
  <path fill-rule="evenodd" clip-rule="evenodd" d="M54.6892 19.3486L52.6737 27.1025L52.3104 28.5L50.0976 37.013C43.4584 35.4496 36.545 35.4589 29.9091 37.0411L27.689 28.5L27.3257 27.1025L25.3105 19.35L31.4999 25.2572L36.663 22.9748L39.9991 14.5L43.335 22.9742L48.4988 25.2569L54.6892 19.3486Z" fill="currentColor" fill-opacity="0.15" />
  <path d="M52.6737 27.1025L50.738 26.5993L50.738 26.5993L52.6737 27.1025ZM54.6892 19.3486L56.6249 19.8518C56.8497 18.9868 56.4733 18.0775 55.7029 17.6246C54.9324 17.1716 53.9549 17.2847 53.3083 17.9018L54.6892 19.3486ZM52.3104 28.5L54.2461 29.0032L54.2461 29.0031L52.3104 28.5ZM50.0976 37.013L49.6392 38.9597C50.6969 39.2088 51.7599 38.5678 52.0333 37.5161L50.0976 37.013ZM29.9091 37.0411L27.9734 37.5442C28.2473 38.598 29.3138 39.2391 30.3729 38.9866L29.9091 37.0411ZM27.689 28.5L29.6246 27.9968L29.6246 27.9968L27.689 28.5ZM27.3257 27.1025L25.39 27.6056L25.39 27.6056L27.3257 27.1025ZM25.3105 19.35L26.6914 17.9032C26.0448 17.2861 25.0673 17.1729 24.2969 17.6259C23.5264 18.0789 23.15 18.9881 23.3749 19.8532L25.3105 19.35ZM31.4999 25.2572L30.119 26.704C30.7043 27.2626 31.5685 27.4136 32.3085 27.0865L31.4999 25.2572ZM36.663 22.9748L37.4717 24.8041C37.9531 24.5912 38.3312 24.1972 38.524 23.7074L36.663 22.9748ZM39.9991 14.5L41.8601 13.7674C41.5591 13.0027 40.821 12.5 39.9991 12.5C39.1773 12.5 38.4392 13.0027 38.1381 13.7674L39.9991 14.5ZM43.335 22.9742L41.474 23.7068C41.6668 24.1966 42.0449 24.5906 42.5264 24.8035L43.335 22.9742ZM48.4988 25.2569L47.6901 27.0861C48.4301 27.4133 49.2943 27.2623 49.8796 26.7037L48.4988 25.2569ZM54.6094 27.6056L56.6249 19.8518L52.7535 18.8455L50.738 26.5993L54.6094 27.6056ZM54.2461 29.0031L54.6094 27.6056L50.738 26.5993L50.3747 27.9969L54.2461 29.0031ZM52.0333 37.5161L54.2461 29.0032L50.3747 27.9968L48.1619 36.5098L52.0333 37.5161ZM30.3729 38.9866C36.7057 37.4767 43.3033 37.4677 49.6392 38.9597L50.556 35.0662C43.6135 33.4314 36.3843 33.4412 29.4452 35.0956L30.3729 38.9866ZM25.7533 29.0032L27.9734 37.5442L31.8448 36.5379L29.6246 27.9968L25.7533 29.0032ZM25.39 27.6056L25.7533 29.0032L29.6246 27.9968L29.2613 26.5993L25.39 27.6056ZM23.3749 19.8532L25.39 27.6056L29.2613 26.5993L27.2462 18.8469L23.3749 19.8532ZM32.8807 23.8104L26.6914 17.9032L23.9297 20.7968L30.119 26.704L32.8807 23.8104ZM35.8544 21.1456L30.6912 23.428L32.3085 27.0865L37.4717 24.8041L35.8544 21.1456ZM38.1381 13.7674L34.802 22.2422L38.524 23.7074L41.8601 15.2326L38.1381 13.7674ZM45.196 22.2416L41.8601 13.7674L38.1381 15.2326L41.474 23.7068L45.196 22.2416ZM49.3074 23.4277L44.1436 21.145L42.5264 24.8035L47.6901 27.0861L49.3074 23.4277ZM53.3083 17.9018L47.1179 23.8101L49.8796 26.7037L56.07 20.7954L53.3083 17.9018Z" fill="currentColor" />
  <path d="M28.063 38.9243C28.063 38.0872 28.6327 37.3576 29.4447 37.1546C36.4163 35.4117 43.7097 35.4117 50.6812 37.1546C51.4933 37.3576 52.063 38.0872 52.063 38.9243V41.3241C52.063 42.4293 51.0243 43.2403 49.952 42.9723C43.4592 41.3491 36.6667 41.3491 30.1739 42.9723C29.1017 43.2403 28.063 42.4293 28.063 41.3241V38.9243Z" fill="currentColor" fill-opacity="0.15" stroke="currentColor" stroke-linecap="round" stroke-linejoin="round" />
</svg>