<svg viewBox="0 0 80 80" fill="none">
  <path d="M16 34C16 28.4772 20.4772 24 26 24C28.2091 24 30 22.2091 30 20C30 17.7909 28.2091 16 26 16C16.0589 16 8 24.0589 8 34V53C8 59.0751 12.9249 64 19 64H25C31.0751 64 36 59.0751 36 53V47C36 40.9249 31.0751 36 25 36H19C17.96 36 16.9537 36.1443 16 36.4141V34Z" fill="currentColor" fill-opacity="0.25" />
  <path d="M52 34C52 28.4772 56.4772 24 62 24C64.2091 24 66 22.2091 66 20C66 17.7909 64.2091 16 62 16C52.0589 16 44 24.0589 44 34V53C44 59.0751 48.9249 64 55 64H61C67.0751 64 72 59.0751 72 53V47C72 40.9249 67.0751 36 61 36H55C53.96 36 52.9537 36.1443 52 36.4141V34Z" fill="currentColor" fill-opacity="0.25" />
  <path d="M16 34C16 28.4772 20.4772 24 26 24C28.2091 24 30 22.2091 30 20C30 17.7909 28.2091 16 26 16C16.0589 16 8 24.0589 8 34V53C8 59.0751 12.9249 64 19 64H25C31.0751 64 36 59.0751 36 53V47C36 40.9249 31.0751 36 25 36H19C17.96 36 16.9537 36.1443 16 36.4141V34Z" stroke="currentColor" stroke-width="4" stroke-linecap="round" stroke-linejoin="round" />
  <path d="M52 34C52 28.4772 56.4772 24 62 24C64.2091 24 66 22.2091 66 20C66 17.7909 64.2091 16 62 16C52.0589 16 44 24.0589 44 34V53C44 59.0751 48.9249 64 55 64H61C67.0751 64 72 59.0751 72 53V47C72 40.9249 67.0751 36 61 36H55C53.96 36 52.9537 36.1443 52 36.4141V34Z" stroke="currentColor" stroke-width="4" stroke-linecap="round" stroke-linejoin="round" />
</svg>