<svg viewBox="0 0 80 80" fill="none">
  <path d="M18.6999 41.0708C21.4173 39.7622 24.5827 39.7622 27.3001 41.0708C30.0174 42.3794 31.991 44.8542 32.6622 47.7947C33.3333 50.7351 32.6289 53.8211 30.7485 56.1792C28.868 58.5372 26.0161 59.9107 23 59.9107C19.9839 59.9107 17.132 58.5372 15.2515 56.1792C13.3711 53.8211 12.6667 50.7351 13.3378 47.7947C14.009 44.8542 15.9826 42.3794 18.6999 41.0708Z" fill="currentColor" fill-opacity="0.15" stroke="currentColor" stroke-linecap="round" stroke-linejoin="round" />
  <path d="M52.6999 41.0708C55.4173 39.7622 58.5827 39.7622 61.3001 41.0708C64.0174 42.3794 65.991 44.8542 66.6622 47.7947C67.3333 50.7351 66.6289 53.8211 64.7485 56.1792C62.868 58.5372 60.0161 59.9107 57 59.9107C53.9839 59.9107 51.132 58.5372 49.2515 56.1792C47.3711 53.8211 46.6667 50.7351 47.3378 47.7947C48.009 44.8542 49.9826 42.3794 52.6999 41.0708Z" fill="currentColor" fill-opacity="0.15" stroke="currentColor" stroke-linecap="round" stroke-linejoin="round" />
  <path fill-rule="evenodd" clip-rule="evenodd" d="M8 31H60C66.6274 31 72 36.3726 72 43V45C72 48.5195 69.7273 51.5082 66.5694 52.5785C66.9854 51.0344 67.027 49.393 66.6622 47.7947C65.991 44.8542 64.0174 42.3794 61.3001 41.0708C58.5827 39.7622 55.4173 39.7622 52.6999 41.0708C49.9826 42.3794 48.009 44.8542 47.3378 47.7947C46.9396 49.5393 47.0257 51.3353 47.5543 53H32.4457C32.9743 51.3353 33.0604 49.5394 32.6622 47.7947C31.991 44.8542 30.0174 42.3794 27.3001 41.0708C24.5827 39.7622 21.4173 39.7622 18.6999 41.0708C15.9826 42.3794 14.009 44.8542 13.3378 47.7947C13.1076 48.8032 13.0393 49.8288 13.1247 50.8364C10.0261 48.6665 8 45.0699 8 41V31Z" fill="currentColor" fill-opacity="0.15" />
  <path d="M8 31V29C6.89543 29 6 29.8954 6 31H8ZM66.5694 52.5785L64.6382 52.0582C64.4462 52.771 64.6624 53.5317 65.2008 54.0369C65.7392 54.5421 66.5121 54.7096 67.2113 54.4726L66.5694 52.5785ZM66.6622 47.7947L68.612 47.3496V47.3496L66.6622 47.7947ZM61.3001 41.0708L60.4323 42.8727L61.3001 41.0708ZM52.6999 41.0708L51.8322 39.2689V39.2689L52.6999 41.0708ZM47.3378 47.7947L45.388 47.3496L47.3378 47.7947ZM47.5543 53V55C48.1921 55 48.7917 54.6957 49.1684 54.181C49.545 53.6662 49.6535 53.0026 49.4605 52.3947L47.5543 53ZM32.4457 53L30.5395 52.3947C30.3465 53.0026 30.455 53.6662 30.8316 54.181C31.2083 54.6957 31.8079 55 32.4457 55V53ZM32.6622 47.7947L34.612 47.3496L32.6622 47.7947ZM27.3001 41.0708L28.1678 39.2689V39.2689L27.3001 41.0708ZM18.6999 41.0708L17.8322 39.2689L18.6999 41.0708ZM13.3378 47.7947L15.2877 48.2397L13.3378 47.7947ZM13.1247 50.8364L11.9774 52.4746C12.6133 52.9199 13.4494 52.957 14.1223 52.5698C14.7951 52.1826 15.1831 51.441 15.1175 50.6675L13.1247 50.8364ZM60 29H8V33H60V29ZM74 43C74 35.268 67.732 29 60 29V33C65.5229 33 70 37.4772 70 43H74ZM74 45V43H70V45H74ZM67.2113 54.4726C71.1563 53.1356 74 49.4025 74 45H70C70 47.6365 68.2982 49.8808 65.9274 50.6843L67.2113 54.4726ZM64.7123 48.2397C65.0035 49.5155 64.9703 50.8254 64.6382 52.0582L68.5005 53.0988C69.0004 51.2433 69.0505 49.2705 68.612 47.3496L64.7123 48.2397ZM60.4323 42.8727C62.6013 43.9173 64.1766 45.8927 64.7123 48.2397L68.612 47.3496C67.8055 43.8158 65.4336 40.8416 62.1678 39.2689L60.4323 42.8727ZM53.5677 42.8727C55.7367 41.8282 58.2633 41.8282 60.4323 42.8727L62.1678 39.2689C58.9021 37.6962 55.0979 37.6962 51.8322 39.2689L53.5677 42.8727ZM49.2877 48.2397C49.8234 45.8927 51.3987 43.9173 53.5677 42.8727L51.8322 39.2689C48.5664 40.8416 46.1945 43.8158 45.388 47.3496L49.2877 48.2397ZM49.4605 52.3947C49.0384 51.0656 48.9698 49.6322 49.2877 48.2397L45.388 47.3496C44.9094 49.4465 45.0129 51.605 45.6481 53.6053L49.4605 52.3947ZM32.4457 55H47.5543V51H32.4457V55ZM30.7123 48.2397C31.0302 49.6322 30.9616 51.0656 30.5395 52.3947L34.3519 53.6053C34.9871 51.605 35.0906 49.4465 34.612 47.3496L30.7123 48.2397ZM26.4323 42.8727C28.6013 43.9173 30.1766 45.8927 30.7123 48.2397L34.612 47.3496C33.8055 43.8158 31.4336 40.8416 28.1678 39.2689L26.4323 42.8727ZM19.5677 42.8727C21.7367 41.8282 24.2633 41.8282 26.4323 42.8727L28.1678 39.2689C24.9021 37.6962 21.0979 37.6962 17.8322 39.2689L19.5677 42.8727ZM15.2877 48.2397C15.8234 45.8927 17.3987 43.9173 19.5677 42.8727L17.8322 39.2689C14.5664 40.8416 12.1945 43.8158 11.388 47.3496L15.2877 48.2397ZM15.1175 50.6675C15.0494 49.8634 15.1039 49.0449 15.2877 48.2397L11.388 47.3496C11.1114 48.5615 11.0292 49.7943 11.1318 51.0053L15.1175 50.6675ZM6 41C6 45.7499 8.36731 49.9466 11.9774 52.4746L14.2719 49.1981C11.6849 47.3865 10 44.3899 10 41H6ZM6 31V41H10V31H6Z" fill="currentColor" />
  <path d="M48.4237 19H34.167V31H58.0003L51.8368 20.9142C51.1102 19.7252 49.8171 19 48.4237 19Z" fill="currentColor" fill-opacity="0.15" stroke="currentColor" stroke-linecap="round" stroke-linejoin="round" />
  <path d="M34.1667 19L14 31H34.1667V19Z" fill="currentColor" fill-opacity="0.15" stroke="currentColor" stroke-linecap="round" stroke-linejoin="round" />
  <path d="M36 36H42" stroke="currentColor" stroke-linecap="round" stroke-linejoin="round" />
</svg>