<svg viewBox="0 0 80 80" fill="none">
  <path d="M48.3002 55.3285V65.6717C48.3002 66.7154 47.0382 67.2382 46.3002 66.5001L42.4215 62.6214C41.2499 61.4499 41.2499 59.5504 42.4215 58.3788L46.3002 54.5001C47.0382 53.7621 48.3002 54.2848 48.3002 55.3285Z" fill="currentColor" fill-opacity="0.25" />
  <path d="M47.402 29.1505L56.3594 23.9789C57.2633 23.4571 58.347 24.2886 58.0768 25.2968L56.6572 30.5951C56.2283 32.1955 54.5833 33.1453 52.9829 32.7165L47.6845 31.2968C46.6763 31.0266 46.4981 29.6724 47.402 29.1505Z" fill="currentColor" fill-opacity="0.25" />
  <path d="M25.1808 43.0154L16.2233 37.8438C15.3194 37.322 15.4977 35.9677 16.5059 35.6976L21.8043 34.2779C23.4047 33.8491 25.0497 34.7988 25.4785 36.3992L26.8982 41.6976C27.1683 42.7058 26.0847 43.5373 25.1808 43.0154Z" fill="currentColor" fill-opacity="0.25" />
  <path d="M58.7116 38.4001L66.2736 51.498C67.3455 53.3546 67.3455 55.642 66.2736 57.4986C65.2017 59.3552 63.2207 60.499 61.0769 60.499L48.2945 60.499M27.5359 28.5981L35.0979 15.5003C36.1698 13.6437 38.1508 12.5 40.2946 12.5C42.4385 12.5 44.4194 13.6437 45.4914 15.5003L51.8825 26.5702M34.6355 60.4962L19.5114 60.4962C17.3676 60.4962 15.3866 59.3524 14.3147 57.4958C13.2428 55.6392 13.2428 53.3518 14.3147 51.4951L20.7059 40.4253M48.3002 65.6717V55.3285C48.3002 54.2848 47.0382 53.7621 46.3002 54.5001L42.4215 58.3788C41.2499 59.5504 41.2499 61.4499 42.4215 62.6214L46.3002 66.5001C47.0382 67.2382 48.3002 66.7154 48.3002 65.6717ZM56.3594 23.9789L47.402 29.1505C46.4981 29.6724 46.6763 31.0266 47.6845 31.2968L52.9829 32.7165C54.5833 33.1453 56.2283 32.1955 56.6572 30.5951L58.0768 25.2968C58.347 24.2886 57.2633 23.4571 56.3594 23.9789ZM16.2233 37.8438L25.1808 43.0154C26.0847 43.5373 27.1683 42.7058 26.8982 41.6976L25.4785 36.3992C25.0497 34.7988 23.4047 33.8491 21.8043 34.2779L16.5059 35.6976C15.4977 35.9677 15.3194 37.322 16.2233 37.8438Z" stroke="currentColor" stroke-linecap="round" stroke-linejoin="round" />
</svg>