<svg viewBox="0 0 80 80" fill="none">
  <path d="M11.6667 32.0002C7.98477 32.0002 5 34.985 5 38.6669V48.6669C5 50.5078 6.49238 52.0002 8.33333 52.0002H11V66.0002C11 67.1048 11.8954 68.0002 13 68.0002H19C20.1046 68.0002 21 67.1048 21 66.0002V52.0002H23.6667C25.5076 52.0002 27 50.5078 27 48.6669V38.6669C27 34.985 24.0152 32.0002 20.3333 32.0002H11.6667Z" fill="currentColor" fill-opacity="0.25" />
  <path d="M12.8727 26.4942C14.8489 27.4459 17.1511 27.4459 19.1273 26.4942C21.1036 25.5425 22.5389 23.7426 23.027 21.6041C23.5151 19.4656 23.0029 17.2212 21.6352 15.5063C20.2676 13.7913 18.1935 12.7925 16 12.7925C13.8065 12.7925 11.7324 13.7913 10.3648 15.5063C8.99713 17.2212 8.48486 19.4656 8.97296 21.6041C9.46106 23.7426 10.8964 25.5425 12.8727 26.4942Z" fill="currentColor" fill-opacity="0.25" />
  <path d="M67.8188 34.2707C66.5737 32.829 64.763 32.0002 62.858 32.0002C60.953 32.0002 59.1423 32.829 57.8971 34.2707L57.7775 34.4093C57.1706 35.1119 56.7106 35.929 56.4246 36.8122L51.0187 53.5039C50.9394 53.749 51.1221 54.0002 51.3797 54.0002H58V66.0002C58 67.1048 58.8954 68.0002 60 68.0002H66C67.1046 68.0002 68 67.1048 68 66.0002V54.0002H74.3363C74.5939 54.0002 74.7766 53.749 74.6972 53.5039L69.2914 36.8122C69.0054 35.929 68.5453 35.1119 67.9385 34.4093L67.8188 34.2707Z" fill="currentColor" fill-opacity="0.25" />
  <path d="M59.8727 26.4942C61.8489 27.4459 64.1511 27.4459 66.1273 26.4942C68.1036 25.5425 69.5389 23.7426 70.027 21.6041C70.5151 19.4656 70.0029 17.2212 68.6352 15.5063C67.2676 13.7913 65.1935 12.7925 63 12.7925C60.8065 12.7925 58.7324 13.7913 57.3648 15.5063C55.9971 17.2212 55.4849 19.4656 55.973 21.6041C56.4611 23.7426 57.8964 25.5425 59.8727 26.4942Z" fill="currentColor" fill-opacity="0.25" />
  <path d="M39 68.135L39 13.135M5 38.6669C5 34.985 7.98477 32.0002 11.6667 32.0002H20.3333C24.0152 32.0002 27 34.985 27 38.6669V48.6669C27 50.5078 25.5076 52.0002 23.6667 52.0002H21V66.0002C21 67.1048 20.1046 68.0002 19 68.0002H13C11.8954 68.0002 11 67.1048 11 66.0002V52.0002H8.33333C6.49238 52.0002 5 50.5078 5 48.6669V38.6669ZM8.97296 21.6041C9.46106 23.7426 10.8964 25.5425 12.8727 26.4942C14.8489 27.4459 17.1511 27.4459 19.1273 26.4942C21.1036 25.5425 22.5389 23.7426 23.027 21.6041C23.5151 19.4656 23.0029 17.2212 21.6352 15.5063C20.2676 13.7913 18.1935 12.7925 16 12.7925C13.8065 12.7925 11.7324 13.7913 10.3648 15.5063C8.99713 17.2212 8.48486 19.4656 8.97296 21.6041ZM62.858 32.0002C64.763 32.0002 66.5737 32.829 67.8188 34.2707L67.9385 34.4093C68.5453 35.1119 69.0054 35.929 69.2914 36.8122L74.6972 53.5039C74.7766 53.749 74.5939 54.0002 74.3363 54.0002H68V66.0002C68 67.1048 67.1046 68.0002 66 68.0002H60C58.8954 68.0002 58 67.1048 58 66.0002V54.0002H51.3797C51.1221 54.0002 50.9394 53.749 51.0187 53.5039L56.4246 36.8122C56.7106 35.929 57.1706 35.1119 57.7775 34.4093L57.8971 34.2707C59.1423 32.829 60.953 32.0002 62.858 32.0002ZM55.973 21.6041C56.4611 23.7426 57.8964 25.5425 59.8727 26.4942C61.8489 27.4459 64.1511 27.4459 66.1273 26.4942C68.1036 25.5425 69.5389 23.7426 70.027 21.6041C70.5151 19.4656 70.0029 17.2212 68.6352 15.5063C67.2676 13.7913 65.1935 12.7925 63 12.7925C60.8065 12.7925 58.7324 13.7913 57.3648 15.5063C55.9971 17.2212 55.4849 19.4656 55.973 21.6041Z" stroke="currentColor" stroke-width="4" stroke-linecap="round" stroke-linejoin="round" />
</svg>