<svg viewBox="0 0 80 80" fill="none">
  <path fill-rule="evenodd" clip-rule="evenodd" d="M31.9996 39.9999H20.0002C17.6929 39.9999 15.864 41.9466 16.0079 44.2494L17.5079 68.2494C17.6397 70.3575 19.3879 71.9999 21.5002 71.9999H57.9846C60.0968 71.9999 61.845 70.3575 61.9768 68.2494L63.4768 44.2494C63.6207 41.9466 61.7918 39.9999 59.4845 39.9999H47.9996V46C47.9996 49.3137 45.3133 52 41.9996 52H37.9996C34.6859 52 31.9996 49.3137 31.9996 46V39.9999Z" fill="currentColor" fill-opacity="0.25" />
  <path d="M31.9996 39.9999H33.9996C33.9996 38.8953 33.1042 37.9999 31.9996 37.9999V39.9999ZM16.0079 44.2494L18.0041 44.1246L16.0079 44.2494ZM17.5079 68.2494L15.5118 68.3741L17.5079 68.2494ZM61.9768 68.2494L63.9729 68.3742V68.3741L61.9768 68.2494ZM63.4768 44.2494L61.4807 44.1246V44.1246L63.4768 44.2494ZM47.9996 39.9999V37.9999C46.895 37.9999 45.9996 38.8953 45.9996 39.9999H47.9996ZM20.0002 41.9999H31.9996V37.9999H20.0002V41.9999ZM18.0041 44.1246C17.9321 42.9732 18.8465 41.9999 20.0002 41.9999V37.9999C16.5392 37.9999 13.796 40.92 14.0118 44.3741L18.0041 44.1246ZM19.5041 68.1246L18.0041 44.1246L14.0118 44.3741L15.5118 68.3741L19.5041 68.1246ZM21.5002 69.9999C20.444 69.9999 19.5699 69.1787 19.5041 68.1246L15.5118 68.3741C15.7095 71.5364 18.3318 73.9999 21.5002 73.9999V69.9999ZM57.9846 69.9999H21.5002V73.9999H57.9846V69.9999ZM59.9807 68.1246C59.9148 69.1787 59.0407 69.9999 57.9846 69.9999V73.9999C61.1529 73.9999 63.7752 71.5364 63.9729 68.3742L59.9807 68.1246ZM61.4807 44.1246L59.9807 68.1246L63.9729 68.3741L65.4729 44.3741L61.4807 44.1246ZM59.4845 41.9999C60.6382 41.9999 61.5526 42.9732 61.4807 44.1246L65.4729 44.3741C65.6888 40.92 62.9455 37.9999 59.4845 37.9999V41.9999ZM47.9996 41.9999H59.4845V37.9999H47.9996V41.9999ZM45.9996 39.9999V46H49.9996V39.9999H45.9996ZM45.9996 46C45.9996 48.2091 44.2087 50 41.9996 50V54C46.4179 54 49.9996 50.4183 49.9996 46H45.9996ZM41.9996 50H37.9996V54H41.9996V50ZM37.9996 50C35.7905 50 33.9996 48.2091 33.9996 46H29.9996C29.9996 50.4183 33.5813 54 37.9996 54V50ZM33.9996 46V39.9999H29.9996V46H33.9996Z" fill="currentColor" />
  <path fill-rule="evenodd" clip-rule="evenodd" d="M16.0079 44.2494C16.0038 44.1827 16.0013 44.1162 16.0004 44.0501C11.6887 44.5323 8.47443 48.4275 8.94851 52.8522L10.2342 64.8522C10.6698 68.9174 14.1003 72 18.1887 72H61.8114C65.8998 72 69.3303 68.9174 69.7659 64.8523L71.0516 52.8522C71.5444 48.253 68.0521 44.2259 63.4847 44.0092C63.4844 44.0888 63.4818 44.1689 63.4768 44.2494L61.9768 68.2494C61.845 70.3576 60.0968 71.9999 57.9846 71.9999H21.5002C19.3879 71.9999 17.6397 70.3576 17.5079 68.2494L16.0079 44.2494Z" fill="currentColor" fill-opacity="0.25" />
  <path d="M16.0004 44.0501L18.0002 44.0231C17.9926 43.4587 17.7468 42.9238 17.3236 42.5504C16.9004 42.177 16.339 41.9998 15.7781 42.0625L16.0004 44.0501ZM16.0079 44.2494L14.0118 44.3742L14.0118 44.3742L16.0079 44.2494ZM8.94851 52.8522L6.95989 53.0653L8.94851 52.8522ZM10.2342 64.8522L12.2228 64.6392L10.2342 64.8522ZM69.7659 64.8523L67.7773 64.6392L69.7659 64.8523ZM71.0516 52.8522L73.0402 53.0653L71.0516 52.8522ZM63.4847 44.0092L63.5795 42.0114C63.0344 41.9855 62.5024 42.1835 62.1069 42.5595C61.7113 42.9354 61.4866 43.4567 61.4847 44.0024L63.4847 44.0092ZM63.4768 44.2494L61.4807 44.1247V44.1247L63.4768 44.2494ZM61.9768 68.2494L63.9729 68.3742V68.3742L61.9768 68.2494ZM17.5079 68.2494L15.5118 68.3742L17.5079 68.2494ZM14.0006 44.0771C14.0019 44.1758 14.0056 44.2749 14.0118 44.3742L18.0041 44.1247C18.0019 44.0905 18.0006 44.0566 18.0002 44.0231L14.0006 44.0771ZM10.9371 52.6392C10.5818 49.3225 12.9918 46.399 16.2226 46.0377L15.7781 42.0625C10.3857 42.6655 6.3671 47.5325 6.95989 53.0653L10.9371 52.6392ZM12.2228 64.6392L10.9371 52.6392L6.95989 53.0653L8.24561 65.0653L12.2228 64.6392ZM18.1887 70C15.1224 70 12.5495 67.688 12.2228 64.6392L8.24561 65.0653C8.79005 70.1467 13.0782 74 18.1887 74V70ZM61.8114 70H18.1887V74H61.8114V70ZM67.7773 64.6392C67.4506 67.688 64.8777 70 61.8114 70V74C66.9219 74 71.2101 70.1467 71.7545 65.0653L67.7773 64.6392ZM69.063 52.6392L67.7773 64.6392L71.7545 65.0653L73.0402 53.0653L69.063 52.6392ZM63.3899 46.0069C66.8134 46.1694 69.4325 49.1905 69.063 52.6392L73.0402 53.0653C73.6563 47.3155 69.2908 42.2824 63.5795 42.0114L63.3899 46.0069ZM65.4729 44.3742C65.4804 44.2544 65.4843 44.1349 65.4847 44.016L61.4847 44.0024C61.4846 44.0426 61.4832 44.0834 61.4807 44.1247L65.4729 44.3742ZM63.9729 68.3742L65.4729 44.3742L61.4807 44.1247L59.9807 68.1247L63.9729 68.3742ZM57.9846 73.9999C61.1529 73.9999 63.7752 71.5364 63.9729 68.3742L59.9807 68.1247C59.9148 69.1788 59.0407 69.9999 57.9846 69.9999V73.9999ZM21.5002 73.9999H57.9846V69.9999H21.5002V73.9999ZM15.5118 68.3742C15.7095 71.5364 18.3318 73.9999 21.5002 73.9999V69.9999C20.444 69.9999 19.5699 69.1788 19.5041 68.1247L15.5118 68.3742ZM14.0118 44.3742L15.5118 68.3742L19.5041 68.1247L18.0041 44.1247L14.0118 44.3742Z" fill="currentColor" />
  <rect x="15.9995" y="12" width="48" height="20" rx="4" fill="currentColor" fill-opacity="0.25" stroke="currentColor" stroke-width="4" stroke-linecap="round" stroke-linejoin="round" />
  <path fill-rule="evenodd" clip-rule="evenodd" d="M32.3409 12H47.6581C46.8344 9.66962 44.6119 8 41.9995 8H37.9995C35.3871 8 33.1646 9.66962 32.3409 12ZM47.9995 32H31.9995V46C31.9995 49.3137 34.6858 52 37.9995 52H41.9995C45.3132 52 47.9995 49.3137 47.9995 46V32Z" fill="currentColor" fill-opacity="0.25" />
  <path d="M32.3409 12L30.4552 11.3335C30.2389 11.9456 30.3331 12.6247 30.708 13.1548C31.0828 13.6849 31.6917 14 32.3409 14V12ZM47.6581 12V14C48.3073 14 48.9162 13.6849 49.291 13.1548C49.6659 12.6247 49.7601 11.9456 49.5438 11.3335L47.6581 12ZM47.9995 32H49.9995C49.9995 30.8954 49.1041 30 47.9995 30V32ZM31.9995 32V30C30.8949 30 29.9995 30.8954 29.9995 32H31.9995ZM32.3409 14H47.6581V10H32.3409V14ZM41.9995 10C43.738 10 45.2224 11.1102 45.7724 12.6665L49.5438 11.3335C48.4465 8.22903 45.4859 6 41.9995 6V10ZM37.9995 10H41.9995V6H37.9995V10ZM34.2266 12.6665C34.7767 11.1102 36.261 10 37.9995 10V6C34.5131 6 31.5525 8.22903 30.4552 11.3335L34.2266 12.6665ZM47.9995 30H31.9995V34H47.9995V30ZM33.9995 46V32H29.9995V46H33.9995ZM37.9995 50C35.7904 50 33.9995 48.2091 33.9995 46H29.9995C29.9995 50.4183 33.5812 54 37.9995 54V50ZM41.9995 50H37.9995V54H41.9995V50ZM45.9995 46C45.9995 48.2091 44.2087 50 41.9995 50V54C46.4178 54 49.9995 50.4183 49.9995 46H45.9995ZM45.9995 32V46H49.9995V32H45.9995Z" fill="currentColor" />
  <rect x="31.9995" y="14" width="16" height="16" rx="8" fill="currentColor" fill-opacity="0.25" stroke="currentColor" stroke-width="4" stroke-linecap="round" stroke-linejoin="round" />
  <path d="M39.9995 22V22.01" stroke="currentColor" stroke-width="4" stroke-linecap="round" stroke-linejoin="round" />
</svg>