<svg viewBox="0 0 80 80" fill="none">
  <path fill-rule="evenodd" clip-rule="evenodd" d="M27.2529 43.1797C26.7195 43.5379 26.2182 43.9491 25.7573 44.41L19.88 50.2869C17.7074 52.4593 16.9714 55.6843 17.9863 58.5842L21.5086 68.6478C21.8253 69.5526 22.9787 69.8156 23.6562 69.1375L23.6589 69.1348L32.6721 60.1223L27.7383 44.8512C27.5597 44.2985 27.3979 43.741 27.2529 43.1797ZM47.8214 60.6162L56.3425 69.1372C57.021 69.8158 58.1755 69.5523 58.4925 68.6466L62.0135 58.5865C63.0288 55.6858 62.2926 52.4599 60.1195 50.2868L54.243 44.4103C53.9433 44.1106 53.6265 43.8319 53.295 43.5751C53.1781 44.003 53.0513 44.4285 52.9147 44.8512L47.8214 60.6162Z" fill="currentColor" fill-opacity="0.25" />
  <path d="M25.7573 44.41L24.3431 42.9958L25.7573 44.41ZM27.2529 43.1797L29.1893 42.6795C29.0271 42.0513 28.5701 41.5408 27.9636 41.3102C27.3572 41.0797 26.6765 41.1576 26.1379 41.5193L27.2529 43.1797ZM19.88 50.2869L18.4658 48.8726L18.4658 48.8726L19.88 50.2869ZM17.9863 58.5842L16.0986 59.2449L17.9863 58.5842ZM21.5086 68.6478L19.6209 69.3085L21.5086 68.6478ZM23.6562 69.1375L25.0711 70.5511L25.0715 70.5506L23.6562 69.1375ZM23.6589 69.1348L22.2447 67.7205L22.2436 67.7216L23.6589 69.1348ZM32.6721 60.1223L34.0862 61.5366C34.6172 61.0057 34.806 60.222 34.5752 59.5075L32.6721 60.1223ZM27.7383 44.8512L25.8352 45.4661V45.4661L27.7383 44.8512ZM56.3425 69.1372L57.7567 67.723L56.3425 69.1372ZM47.8214 60.6162L45.9183 60.0013C45.6874 60.7158 45.8763 61.4994 46.4072 62.0304L47.8214 60.6162ZM58.4925 68.6466L56.6048 67.9859V67.9859L58.4925 68.6466ZM62.0135 58.5865L63.9013 59.2472L62.0135 58.5865ZM60.1195 50.2868L58.7053 51.7011H58.7053L60.1195 50.2868ZM54.243 44.4103L52.8288 45.8245V45.8245L54.243 44.4103ZM53.295 43.5751L54.5197 41.9939C53.9917 41.585 53.2945 41.4666 52.6612 41.6783C52.0278 41.8899 51.5419 42.4037 51.3658 43.0478L53.295 43.5751ZM52.9147 44.8512L54.8179 45.4661L54.8179 45.466L52.9147 44.8512ZM27.1715 45.8243C27.5403 45.4555 27.9413 45.1265 28.3679 44.84L26.1379 41.5193C25.4978 41.9492 24.8962 42.4428 24.3431 42.9958L27.1715 45.8243ZM21.2941 51.7012L27.1715 45.8243L24.3431 42.9958L18.4658 48.8726L21.2941 51.7012ZM19.874 57.9235C19.1129 55.7488 19.6649 53.3303 21.2941 51.7012L18.4658 48.8726C15.7499 51.5883 14.8298 55.6198 16.0986 59.2449L19.874 57.9235ZM23.3963 67.9871L19.874 57.9235L16.0986 59.2449L19.6209 69.3085L23.3963 67.9871ZM22.2414 67.7238C22.6058 67.3592 23.226 67.5006 23.3963 67.9871L19.6209 69.3085C20.4245 71.6047 23.3516 72.272 25.0711 70.5511L22.2414 67.7238ZM22.2436 67.7216L22.241 67.7243L25.0715 70.5506L25.0741 70.548L22.2436 67.7216ZM31.2579 58.7081L22.2447 67.7205L25.073 70.5491L34.0862 61.5366L31.2579 58.7081ZM34.5752 59.5075L29.6414 44.2363L25.8352 45.4661L30.7689 60.7372L34.5752 59.5075ZM29.6414 44.2363C29.4751 43.7215 29.3244 43.2023 29.1893 42.6795L25.3164 43.6799C25.4714 44.2797 25.6443 44.8754 25.8352 45.4661L29.6414 44.2363ZM57.7567 67.723L49.2356 59.2019L46.4072 62.0304L54.9283 70.5515L57.7567 67.723ZM56.6048 67.9859C56.7746 67.5006 57.3932 67.3595 57.7567 67.723L54.9283 70.5515C56.6489 72.2721 59.5764 71.604 60.3802 69.3073L56.6048 67.9859ZM60.1258 57.9258L56.6048 67.9859L60.3802 69.3073L63.9013 59.2472L60.1258 57.9258ZM58.7053 51.7011C60.3351 53.3309 60.8873 55.7503 60.1258 57.9258L63.9013 59.2472C65.1703 55.6213 64.2501 51.589 61.5337 48.8726L58.7053 51.7011ZM52.8288 45.8245L58.7053 51.7011L61.5337 48.8726L55.6572 42.9961L52.8288 45.8245ZM52.0704 45.1564C52.3356 45.3617 52.589 45.5847 52.8288 45.8245L55.6572 42.9961C55.2976 42.6365 54.9175 42.3021 54.5197 41.9939L52.0704 45.1564ZM51.3658 43.0478C51.2569 43.4463 51.1388 43.8426 51.0116 44.2363L54.8179 45.466C54.9638 45.0143 55.0993 44.5597 55.2243 44.1025L51.3658 43.0478ZM51.0116 44.2363L45.9183 60.0013L49.7246 61.231L54.8179 45.4661L51.0116 44.2363Z" fill="currentColor" />
  <path fill-rule="evenodd" clip-rule="evenodd" d="M40.0738 10.6969C40.219 10.5724 40.4333 10.5724 40.5785 10.6969L44.1462 13.7549C50.6075 19.2932 54.3262 27.3783 54.3262 35.8883C54.3262 38.9311 53.8498 41.955 52.9144 44.8504L46.1106 65.9096C46.0007 66.25 45.6838 66.4806 45.3262 66.4806H35.3262C34.9685 66.4806 34.6517 66.25 34.5417 65.9096L27.738 44.8504C26.8025 41.955 26.3262 38.9311 26.3262 35.8883C26.3262 27.3783 30.0448 19.2932 36.5061 13.7549L40.0738 10.6969Z" fill="currentColor" fill-opacity="0.25" />
  <path d="M35.3262 64.4806C34.2216 64.4806 33.3262 65.376 33.3262 66.4806C33.3262 67.5851 34.2216 68.4806 35.3262 68.4806V64.4806ZM27.738 44.8504L25.8348 45.4653L27.738 44.8504ZM46.1106 65.9096L44.2075 65.2948L46.1106 65.9096ZM34.5417 65.9096L32.6386 66.5245L34.5417 65.9096ZM44.1462 13.7549L42.8447 15.2734L44.1462 13.7549ZM45.4478 12.2364L41.8801 9.17835L39.2769 12.2154L42.8447 15.2734L45.4478 12.2364ZM48.0138 66.5245L54.8175 45.4653L51.0112 44.2355L44.2075 65.2948L48.0138 66.5245ZM35.3262 68.4806H45.3262V64.4806H35.3262V68.4806ZM25.8348 45.4653L32.6386 66.5245L36.4449 65.2948L29.6411 44.2355L25.8348 45.4653ZM38.7722 9.17835L35.2045 12.2364L37.8077 15.2734L41.3754 12.2154L38.7722 9.17835ZM28.3262 35.8883C28.3262 27.9622 31.7897 20.4317 37.8077 15.2734L35.2045 12.2364C28.2999 18.1546 24.3262 26.7945 24.3262 35.8883H28.3262ZM29.6411 44.2355C28.7699 41.5388 28.3262 38.7223 28.3262 35.8883H24.3262C24.3262 39.1398 24.8352 42.3713 25.8348 45.4653L29.6411 44.2355ZM44.2075 65.2948C44.3643 64.8094 44.8161 64.4806 45.3262 64.4806V68.4806C46.5515 68.4806 47.6371 67.6905 48.0138 66.5245L44.2075 65.2948ZM52.3262 35.8883C52.3262 38.7223 51.8825 41.5388 51.0112 44.2355L54.8175 45.4653C55.8171 42.3713 56.3262 39.1398 56.3262 35.8883H52.3262ZM35.3262 64.4806C35.8362 64.4806 36.2881 64.8094 36.4449 65.2948L32.6386 66.5245C33.0153 67.6905 34.1008 68.4806 35.3262 68.4806V64.4806ZM42.8447 15.2734C48.8627 20.4317 52.3262 27.9622 52.3262 35.8883H56.3262C56.3262 26.7945 52.3524 18.1546 45.4478 12.2364L42.8447 15.2734ZM41.8801 9.17835C40.9859 8.4119 39.6664 8.4119 38.7722 9.17835L41.3754 12.2154C40.7716 12.7329 39.8807 12.7329 39.2769 12.2154L41.8801 9.17835Z" fill="currentColor" />
  <path d="M37.7281 25.9805C39.3358 25.0523 41.3166 25.0523 42.9242 25.9805C44.5319 26.9087 45.5223 28.6241 45.5223 30.4805C45.5223 32.3369 44.5319 34.0523 42.9242 34.9805C41.3166 35.9087 39.3358 35.9087 37.7281 34.9805C36.1204 34.0523 35.13 32.3369 35.13 30.4805C35.13 28.6241 36.1204 26.9087 37.7281 25.9805Z" fill="currentColor" fill-opacity="0.25" stroke="currentColor" stroke-width="4" stroke-linecap="round" stroke-linejoin="round" />
</svg>