<svg viewBox="0 0 80 80" fill="none">
  <path fill-rule="evenodd" clip-rule="evenodd" d="M63 18C63.6403 18 64.2544 18.2544 64.7071 18.7071L73.6464 27.6464C73.8728 27.8728 74 28.1799 74 28.5V32C74 32.5523 73.5523 33 73 33H52C50.8954 33 50 33.8954 50 35V41C50 42.1046 50.8954 43 52 43H73.9C73.9552 43 74 43.0448 74 43.1V54.5C74 56.433 72.433 58 70.5 58H66.8252C65.932 58 65.2258 57.267 65.027 56.3961C64.5389 54.2576 63.1036 52.4578 61.1273 51.506C59.1511 50.5543 56.8489 50.5543 54.8727 51.506C52.8964 52.4578 51.4611 54.2576 50.973 56.3961C50.7742 57.267 50.068 58 49.1748 58H32.8252C31.932 58 31.2258 57.267 31.027 56.3961C30.5389 54.2576 29.1036 52.4578 27.1273 51.506C25.1511 50.5543 22.8489 50.5543 20.8727 51.506C18.8964 52.4578 17.4611 54.2576 16.973 56.3961C16.8939 56.7423 16.8411 57.0913 16.8139 57.4404C16.7899 57.7488 16.5414 58 16.232 58C16.0835 58 15.941 57.941 15.8359 57.8359L13 55C8.51797 50.518 6 44.439 6 38.1005V26.5C6 21.8056 9.80558 18 14.5 18H63Z" fill="currentColor" fill-opacity="0.15" />
  <path d="M61.1273 51.506L60.2596 53.308L61.1273 51.506ZM54.8727 51.506L55.7404 53.308L54.8727 51.506ZM27.1273 51.506L26.2596 53.308H26.2596L27.1273 51.506ZM20.8727 51.506L21.7404 53.308H21.7404L20.8727 51.506ZM16.973 56.3961L15.0231 55.9511L16.973 56.3961ZM73.6464 27.6464L72.2322 29.0607L73.6464 27.6464ZM64.7071 18.7071L66.1213 17.2929L64.7071 18.7071ZM75.0607 26.2322L66.1213 17.2929L63.2929 20.1213L72.2322 29.0607L75.0607 26.2322ZM76 32V28.5H72V32H76ZM52 35H73V31H52V35ZM52 35V31C49.7909 31 48 32.7909 48 35H52ZM52 41V35H48V41H52ZM52 41H48C48 43.2091 49.7909 45 52 45V41ZM73.9 41H52V45H73.9V41ZM76 54.5V43.1H72V54.5H76ZM66.8252 60H70.5V56H66.8252V60ZM60.2596 53.308C61.6875 53.9956 62.7245 55.2961 63.0772 56.8412L66.9769 55.9511C66.3534 53.2192 64.5197 50.9199 61.9951 49.7041L60.2596 53.308ZM55.7404 53.308C57.1683 52.6203 58.8317 52.6203 60.2596 53.308L61.9951 49.7041C59.4704 48.4883 56.5296 48.4883 54.0049 49.7041L55.7404 53.308ZM52.9228 56.8412C53.2755 55.2961 54.3125 53.9956 55.7404 53.308L54.0049 49.7041C51.4803 50.9199 49.6466 53.2192 49.0231 55.9511L52.9228 56.8412ZM32.8252 60H49.1748V56H32.8252V60ZM26.2596 53.308C27.6875 53.9956 28.7245 55.2961 29.0772 56.8412L32.9769 55.9511C32.3534 53.2192 30.5197 50.9199 27.9951 49.7041L26.2596 53.308ZM21.7404 53.308C23.1683 52.6203 24.8317 52.6203 26.2596 53.308L27.9951 49.7041C25.4704 48.4883 22.5296 48.4883 20.0049 49.7041L21.7404 53.308ZM18.9228 56.8412C19.2755 55.2961 20.3125 53.9956 21.7404 53.308L20.0049 49.7041C17.4803 50.9199 15.6466 53.2192 15.0231 55.9511L18.9228 56.8412ZM18.8079 57.5958C18.8275 57.3437 18.8657 57.0915 18.9228 56.8412L15.0231 55.9511C14.9222 56.3932 14.8547 56.839 14.82 57.285L18.8079 57.5958ZM11.5858 56.4142L14.4217 59.2501L17.2501 56.4217L14.4142 53.5858L11.5858 56.4142ZM4 26.5V38.1005H8V26.5H4ZM63 16H14.5V20H63V16ZM8 26.5C8 22.9101 10.9102 20 14.5 20V16C8.70101 16 4 20.701 4 26.5H8ZM72 32C72 31.4477 72.4477 31 73 31V35C74.6569 35 76 33.6569 76 32H72ZM14.4142 53.5858C10.3073 49.4788 8 43.9086 8 38.1005H4C4 44.9695 6.72869 51.5571 11.5858 56.4142L14.4142 53.5858ZM16.232 56C16.6139 56 16.9801 56.1517 17.2501 56.4217L14.4217 59.2501C14.9018 59.7303 15.553 60 16.232 60V56ZM32.8252 56C32.8801 56 32.9324 56.0121 32.9735 56.0294C33.012 56.0457 33.0292 56.0615 33.0302 56.0624C33.0306 56.0628 33.0203 56.053 33.0072 56.0297C32.9941 56.0066 32.9833 55.9791 32.9769 55.9511L29.0772 56.8412C29.4219 58.3514 30.7473 60 32.8252 60V56ZM49.0231 55.9511C49.0167 55.9791 49.0059 56.0066 48.9928 56.0297C48.9797 56.053 48.9694 56.0628 48.9698 56.0624C48.9708 56.0615 48.988 56.0457 49.0265 56.0294C49.0676 56.0121 49.1199 56 49.1748 56V60C51.2527 60 52.5781 58.3514 52.9228 56.8412L49.0231 55.9511ZM72.2322 29.0607C72.0835 28.912 72 28.7103 72 28.5H76C76 27.6494 75.6621 26.8337 75.0607 26.2322L72.2322 29.0607ZM14.82 57.285C14.8694 56.6511 15.4008 56 16.232 56V60C17.6819 60 18.7104 58.8466 18.8079 57.5958L14.82 57.285ZM66.8252 56C66.8801 56 66.9324 56.0121 66.9735 56.0294C67.012 56.0457 67.0292 56.0615 67.0302 56.0624C67.0306 56.0628 67.0203 56.053 67.0072 56.0297C66.9941 56.0066 66.9833 55.9791 66.9769 55.9511L63.0772 56.8412C63.4219 58.3514 64.7473 60 66.8252 60V56ZM72 54.5C72 55.3284 71.3284 56 70.5 56V60C73.5376 60 76 57.5376 76 54.5H72ZM73.9 45C72.8507 45 72 44.1493 72 43.1H76C76 41.9402 75.0598 41 73.9 41V45ZM63 20C63.1099 20 63.2152 20.0436 63.2929 20.1213L66.1213 17.2929C65.2935 16.4651 64.1707 16 63 16V20Z" fill="currentColor" />
  <rect x="32" y="14" width="16" height="4" rx="2" fill="currentColor" fill-opacity="0.15" stroke="currentColor" stroke-width="4" stroke-linecap="round" stroke-linejoin="round" />
  <path d="M50 35C50 33.8954 50.8954 33 52 33H66L74 43H52C50.8954 43 50 42.1046 50 41V35Z" fill="currentColor" fill-opacity="0.15" stroke="currentColor" stroke-width="4" stroke-linecap="round" stroke-linejoin="round" />
  <rect x="18" y="33" width="20" height="10" rx="2" fill="currentColor" fill-opacity="0.15" stroke="currentColor" stroke-width="4" stroke-linecap="round" stroke-linejoin="round" />
  <path d="M20.8727 51.506C22.8489 50.5543 25.1511 50.5543 27.1273 51.506C29.1036 52.4578 30.5389 54.2576 31.027 56.3961C31.5151 58.5346 31.0029 60.779 29.6352 62.494C28.2676 64.2089 26.1935 65.2078 24 65.2078C21.8065 65.2078 19.7324 64.2089 18.3648 62.494C16.9971 60.779 16.4849 58.5346 16.973 56.3961C17.4611 54.2576 18.8964 52.4578 20.8727 51.506Z" fill="currentColor" fill-opacity="0.15" stroke="currentColor" stroke-width="4" stroke-linecap="round" />
  <path d="M54.8727 51.506C56.8489 50.5543 59.1511 50.5543 61.1273 51.506C63.1036 52.4578 64.5389 54.2576 65.027 56.3961C65.5151 58.5346 65.0029 60.779 63.6352 62.494C62.2676 64.2089 60.1935 65.2078 58 65.2078C55.8065 65.2078 53.7324 64.2089 52.3648 62.494C50.9971 60.779 50.4849 58.5346 50.973 56.3961C51.4611 54.2576 52.8964 52.4578 54.8727 51.506Z" fill="currentColor" fill-opacity="0.15" stroke="currentColor" stroke-width="4" stroke-linecap="round" />
</svg>