<svg viewBox="0 0 80 80" fill="none">
  <path fill-rule="evenodd" clip-rule="evenodd" d="M31.2197 54.8994C31.427 54.8546 31.6276 54.7652 31.8067 54.63L43.0698 46.1216C43.2572 45.9801 43.4087 45.7965 43.5122 45.5857L57.6448 16.7948C57.9959 16.0797 57.7267 15.2149 57.0318 14.8254C56.337 14.4358 55.4588 14.6574 55.0319 15.33L37.9127 42.3007L29.9139 52.2684C30.5356 53.0493 30.9769 53.9488 31.2197 54.8994ZM40.5006 42.8087C40.9789 43.0849 41.1428 43.6964 40.8667 44.1747C40.5905 44.653 39.9789 44.8169 39.5006 44.5408C39.0223 44.2646 38.8585 43.653 39.1346 43.1747C39.4107 42.6964 40.0223 42.5326 40.5006 42.8087Z" fill="currentColor" fill-opacity="0.25" />
  <path fill-rule="evenodd" clip-rule="evenodd" d="M48.7799 54.8994C48.5725 54.8546 48.3719 54.7652 48.1929 54.63L36.9297 46.1216C36.7424 45.9801 36.5908 45.7965 36.4874 45.5857L22.3547 16.7948C22.0037 16.0797 22.2729 15.2149 22.9677 14.8254C23.6626 14.4358 24.5408 14.6574 24.9677 15.33L42.0869 42.3007L50.0857 52.2684C49.464 53.0493 49.0227 53.9488 48.7799 54.8994ZM39.4989 42.8087C39.0206 43.0849 38.8568 43.6965 39.1329 44.1747C39.4091 44.653 40.0206 44.8169 40.4989 44.5408C40.9772 44.2646 41.1411 43.653 40.865 43.1747C40.5888 42.6965 39.9772 42.5326 39.4989 42.8087Z" fill="currentColor" fill-opacity="0.25" />
  <path fill-rule="evenodd" clip-rule="evenodd" d="M31.2197 54.8994C30.9635 53.8962 30.4865 52.95 29.8094 52.14C29.8449 52.1823 29.8796 52.2253 29.9139 52.2684C30.5356 53.0493 30.9769 53.9488 31.2197 54.8994Z" fill="currentColor" fill-opacity="0.25" />
  <path fill-rule="evenodd" clip-rule="evenodd" d="M48.7799 54.8994C49.0227 53.9488 49.464 53.0493 50.0857 52.2684C50.12 52.2253 50.1547 52.1823 50.1901 52.14C49.5131 52.95 49.0361 53.8962 48.7799 54.8994Z" fill="currentColor" fill-opacity="0.25" />
  <path d="M31.2197 54.8994C31.427 54.8546 31.6276 54.7652 31.8067 54.63L43.0698 46.1216C43.2572 45.9801 43.4087 45.7965 43.5122 45.5857L57.6448 16.7948C57.9959 16.0797 57.7267 15.2149 57.0318 14.8254C56.337 14.4358 55.4588 14.6574 55.0319 15.33L37.9127 42.3007L29.9139 52.2684M31.2197 54.8994C30.9769 53.9488 30.5356 53.0493 29.9139 52.2684M31.2197 54.8994C30.9635 53.8962 30.4865 52.95 29.8094 52.14M29.9139 52.2684C29.8796 52.2253 29.8449 52.1823 29.8094 52.14M48.7799 54.8994C48.5725 54.8546 48.3719 54.7652 48.1929 54.63L36.9297 46.1216C36.7424 45.9801 36.5908 45.7965 36.4874 45.5857L22.3547 16.7948C22.0037 16.0797 22.2729 15.2149 22.9677 14.8254C23.6626 14.4358 24.5408 14.6574 24.9677 15.33L42.0869 42.3007L50.0857 52.2684M48.7799 54.8994C49.0227 53.9488 49.464 53.0493 50.0857 52.2684M48.7799 54.8994C49.0361 53.8962 49.5131 52.95 50.1901 52.14M50.0857 52.2684C50.12 52.2253 50.1547 52.1823 50.1901 52.14M29.8094 52.14C29.2969 51.5267 28.6698 50.9915 27.9374 50.5687C24.5894 48.6357 20.3083 49.7828 18.3753 53.1309L17.3753 54.8629C15.4423 58.211 16.5894 62.4921 19.9374 64.4251C23.2855 66.3581 27.5666 65.211 29.4996 61.8629L30.4996 60.1309C32.0098 57.5152 31.64 54.33 29.8094 52.14ZM50.1901 52.14C50.7027 51.5267 51.3297 50.9915 52.0621 50.5687C55.4102 48.6357 59.6913 49.7828 61.6243 53.1309L62.6243 54.8629C64.5573 58.211 63.4102 62.4921 60.0621 64.4251C56.7141 66.3581 52.4329 65.211 50.5 61.8629L49.5 60.1309C47.9898 57.5152 48.3596 54.33 50.1901 52.14ZM40.8667 44.1747C41.1428 43.6964 40.9789 43.0849 40.5006 42.8087C40.0223 42.5326 39.4107 42.6964 39.1346 43.1747C38.8585 43.653 39.0223 44.2646 39.5006 44.5408C39.9789 44.8169 40.5905 44.653 40.8667 44.1747ZM39.1329 44.1747C38.8568 43.6965 39.0206 43.0849 39.4989 42.8087C39.9772 42.5326 40.5888 42.6965 40.865 43.1747C41.1411 43.653 40.9772 44.2646 40.4989 44.5408C40.0206 44.8169 39.4091 44.653 39.1329 44.1747Z" stroke="currentColor" stroke-linecap="round" stroke-linejoin="round" />
</svg>