<svg viewBox="0 0 80 80" fill="none">
  <path d="M58.5 27C55.4624 27 53 24.5376 53 21.5C53 18.4624 55.4624 16 58.5 16H60.2C60.6418 16 61 16.3582 61 16.8V26.2C61 26.6418 60.6418 27 60.2 27H58.5Z" fill="currentColor" fill-opacity="0.25" />
  <path d="M14.3666 54H11.4621C10.1023 54 9 52.8977 9 51.5379V46.5336C9 43.1685 10.3531 39.9449 12.7548 37.5879L12.9758 37.3711C15.1775 35.2104 18.1392 34 21.224 34H30.5379C31.8977 34 33 35.1023 33 36.4621V51.5379C33 52.8977 31.8977 54 30.5379 54H27.6334C27.1314 52.3355 26.0125 50.8939 24.4641 50C22.3205 48.7624 19.6795 48.7624 17.5359 50C15.9875 50.8939 14.8686 52.3355 14.3666 54Z" fill="currentColor" fill-opacity="0.25" />
  <path d="M18 31.5C18 30.1193 19.1193 29 20.5 29H30.5C31.8807 29 33 30.1193 33 31.5C33 32.8807 31.8807 34 30.5 34H20.5C19.1193 34 18 32.8807 18 31.5Z" fill="currentColor" fill-opacity="0.25" />
  <path d="M17.5359 50C19.6795 48.7624 22.3205 48.7624 24.4641 50C26.6077 51.2376 27.9282 53.5248 27.9282 56C27.9282 58.4752 26.6077 60.7624 24.4641 62C22.3205 63.2376 19.6795 63.2376 17.5359 62C15.3923 60.7624 14.0718 58.4752 14.0718 56C14.0718 53.5248 15.3923 51.2376 17.5359 50Z" fill="currentColor" fill-opacity="0.25" />
  <path d="M56.5359 50C58.6795 48.7624 61.3205 48.7624 63.4641 50C65.6077 51.2376 66.9282 53.5248 66.9282 56C66.9282 58.4752 65.6077 60.7624 63.4641 62C61.3205 63.2376 58.6795 63.2376 56.5359 62C54.3923 60.7624 53.0718 58.4752 53.0718 56C53.0718 53.5248 54.3923 51.2376 56.5359 50Z" fill="currentColor" fill-opacity="0.25" />
  <path d="M27.6334 54H30.5379C31.8977 54 33 52.8977 33 51.5379V36.4621C33 35.1023 31.8977 34 30.5379 34H21.224C18.1392 34 15.1775 35.2104 12.9758 37.3711L12.7548 37.5879C10.3531 39.9449 9 43.1685 9 46.5336V51.5379C9 52.8977 10.1023 54 11.4621 54H14.3666C14.8686 52.3355 15.9875 50.8939 17.5359 50M27.6334 54C27.1314 52.3355 26.0125 50.8939 24.4641 50M27.6334 54L47.1642 54M24.4641 50C22.3205 48.7624 19.6795 48.7624 17.5359 50M24.4641 50C26.6077 51.2376 27.9282 53.5248 27.9282 56C27.9282 58.4752 26.6077 60.7624 24.4641 62C22.3205 63.2376 19.6795 63.2376 17.5359 62C15.3923 60.7624 14.0718 58.4752 14.0718 56C14.0718 53.5248 15.3923 51.2376 17.5359 50M55.7542 43.7228L53.4264 24.5187C53.183 22.5104 51.4784 21 49.4555 21H41.9999M70.2879 48.0603C69.2682 46.74 67.9885 45.6082 66.4964 44.7473C62.476 42.4279 57.5204 42.43 53.5 44.7494C50.0654 46.7309 47.7547 50.1514 47.1548 54M60.2 27H58.5C55.4624 27 53 24.5376 53 21.5C53 18.4624 55.4624 16 58.5 16H60.2C60.6418 16 61 16.3582 61 16.8V26.2C61 26.6418 60.6418 27 60.2 27ZM20.5 34H30.5C31.8807 34 33 32.8807 33 31.5C33 30.1193 31.8807 29 30.5 29H20.5C19.1193 29 18 30.1193 18 31.5C18 32.8807 19.1193 34 20.5 34ZM53.0718 56C53.0718 53.5248 54.3923 51.2376 56.5359 50C58.6795 48.7624 61.3205 48.7624 63.4641 50C65.6077 51.2376 66.9282 53.5248 66.9282 56C66.9282 58.4752 65.6077 60.7624 63.4641 62C61.3205 63.2376 58.6795 63.2376 56.5359 62C54.3923 60.7624 53.0718 58.4752 53.0718 56Z" stroke="currentColor" stroke-width="4" stroke-linecap="round" stroke-linejoin="round" />
</svg>