<svg viewBox="0 0 80 80" fill="none">
  <path fill-rule="evenodd" clip-rule="evenodd" d="M63.4534 67.7487L50.7249 55.0169C49.5542 53.8459 49.5543 51.9476 50.7252 50.7768C51.8962 49.6057 53.7949 49.6058 54.9658 50.7771L67.6943 63.5089C68.865 64.6799 68.8649 66.5782 67.694 67.749C66.523 68.9201 64.6243 68.92 63.4534 67.7487Z" fill="currentColor" fill-opacity="0.15" />
  <path d="M50.7249 55.0169L49.3105 56.4309L50.7249 55.0169ZM63.4534 67.7487L62.039 69.1628H62.039L63.4534 67.7487ZM50.7252 50.7768L49.311 49.3626H49.311L50.7252 50.7768ZM54.9658 50.7771L53.5514 52.1911L54.9658 50.7771ZM67.6943 63.5089L66.2799 64.923L67.6943 63.5089ZM67.694 67.749L66.2798 66.3348H66.2798L67.694 67.749ZM49.3104 52.1915C50.0914 52.9726 51.3578 52.9726 52.1388 52.1915C52.9199 51.4105 52.9199 50.1442 52.1388 49.3631L49.3104 52.1915ZM48.8595 46.0838C48.0785 45.3028 46.8121 45.3028 46.0311 46.0838C45.2501 46.8649 45.2501 48.1312 46.0311 48.9123L48.8595 46.0838ZM49.3105 56.4309L62.039 69.1628L64.8678 66.3347L52.1393 53.6028L49.3105 56.4309ZM49.311 49.3626C47.3591 51.3144 47.3589 54.4788 49.3105 56.4309L52.1393 53.6028C51.7495 53.2129 51.7495 52.5808 52.1394 52.191L49.311 49.3626ZM56.3802 49.363C54.4283 47.4106 51.2631 47.4104 49.311 49.3626L52.1394 52.191C52.5293 51.801 53.1615 51.8011 53.5514 52.1911L56.3802 49.363ZM69.1087 62.0949L56.3802 49.363L53.5514 52.1911L66.2799 64.923L69.1087 62.0949ZM69.1082 69.1632C71.0601 67.2114 71.0603 64.047 69.1087 62.0949L66.2799 64.923C66.6697 65.3129 66.6697 65.945 66.2798 66.3348L69.1082 69.1632ZM62.039 69.1628C63.9909 71.1152 67.1561 71.1154 69.1082 69.1632L66.2798 66.3348C65.8899 66.7248 65.2577 66.7247 64.8678 66.3347L62.039 69.1628ZM52.1388 49.3631L48.8595 46.0838L46.0311 48.9123L49.3104 52.1915L52.1388 49.3631Z" fill="currentColor" />
  <path d="M15.5965 29.0688C17.3583 22.4939 22.4939 17.3584 29.0687 15.5966C35.6436 13.8349 42.6589 15.7147 47.4721 20.5278C52.2852 25.341 54.165 32.3563 52.4033 38.9312C50.6415 45.5061 45.506 50.6416 38.9311 52.4034C32.3562 54.1651 25.3409 52.2853 20.5277 47.4722C15.7146 42.659 13.8348 35.6437 15.5965 29.0688Z" fill="currentColor" fill-opacity="0.15" stroke="currentColor" stroke-width="4" stroke-linecap="round" stroke-linejoin="round" />
  <path d="M20.7417 33.9973C20.7416 35.1019 21.637 35.9974 22.7416 35.9974C23.8462 35.9975 24.7416 35.1021 24.7417 33.9975L20.7417 33.9973ZM28.3698 24.2498L29.3698 25.9818L28.3698 24.2498ZM33.9968 24.7417C35.1014 24.7416 35.9967 23.846 35.9966 22.7415C35.9964 21.6369 35.1009 20.7416 33.9963 20.7417L33.9968 24.7417ZM24.7417 33.9975C24.7419 30.6908 26.5061 27.6352 29.3698 25.9818L27.3698 22.5177C23.2685 24.8856 20.7419 29.2616 20.7417 33.9973L24.7417 33.9975ZM33.9963 20.7417C31.7086 20.742 29.42 21.3341 27.3698 22.5177L29.3698 25.9818C30.8015 25.1553 32.3987 24.7419 33.9968 24.7417L33.9963 20.7417Z" fill="currentColor" />
</svg>