<svg viewBox="0 0 80 80" fill="none">
  <g opacity="0.9">
    <path d="M35.9995 45.5005V69.5005" stroke="currentColor" stroke-width="4" stroke-linecap="round" stroke-linejoin="round" />
    <path fill-rule="evenodd" clip-rule="evenodd" d="M27.9998 54.5001C16.9541 54.5001 7.99987 45.5457 7.99987 34.5V32.5015C7.99987 30.4107 8.32068 28.3949 8.91576 26.5005C12.9713 26.6699 16.9935 27.7053 20.6091 29.5475C25.8776 32.232 30.2676 36.6221 32.952 41.8906C34.7943 45.5063 35.8297 49.5286 35.999 53.5842C34.1047 54.1793 32.089 54.5001 29.9983 54.5001H27.9998Z" fill="currentColor" fill-opacity="0.25" />
    <path d="M8.91576 26.5005L7.00768 25.9011L7.46722 24.4382L8.99922 24.5022L8.91576 26.5005ZM20.6091 29.5475L19.7011 31.3295L20.6091 29.5475ZM32.952 41.8906L31.17 42.7986L32.952 41.8906ZM35.999 53.5842L37.9973 53.5008L38.0613 55.0328L36.5984 55.4923L35.999 53.5842ZM9.99987 34.5C9.99987 44.4412 18.0587 52.5001 27.9998 52.5001V56.5001C15.8495 56.5001 5.99987 46.6503 5.99987 34.5H9.99987ZM9.99987 32.5015V34.5H5.99987V32.5015H9.99987ZM10.8238 27.0999C10.289 28.8025 9.99987 30.6163 9.99987 32.5015H5.99987C5.99987 30.205 6.35238 27.9872 7.00768 25.9011L10.8238 27.0999ZM19.7011 31.3295C16.3473 29.6207 12.607 28.6564 8.83229 28.4987L8.99922 24.5022C13.3355 24.6833 17.6397 25.7899 21.517 27.7655L19.7011 31.3295ZM31.17 42.7986C28.6773 37.9064 24.5932 33.8222 19.7011 31.3295L21.517 27.7655C27.1619 30.6417 31.8579 35.3378 34.734 40.9827L31.17 42.7986ZM34.0008 53.6677C33.8431 49.8928 32.8789 46.1525 31.17 42.7986L34.734 40.9827C36.7097 44.8601 37.8162 49.1644 37.9973 53.5008L34.0008 53.6677ZM29.9983 52.5001C31.8833 52.5001 33.697 52.211 35.3996 51.6762L36.5984 55.4923C34.5124 56.1476 32.2946 56.5001 29.9983 56.5001V52.5001ZM27.9998 52.5001H29.9983V56.5001H27.9998V52.5001Z" fill="currentColor" />
    <path fill-rule="evenodd" clip-rule="evenodd" d="M46.2846 46.5C60.4865 46.5 71.9995 34.987 71.9995 20.7848V18.2152C71.9995 15.5272 71.5871 12.9355 70.822 10.5C65.6076 10.7178 60.436 12.049 55.7872 14.4177C49.0132 17.8693 43.3687 23.5138 39.9172 30.2879C37.5486 34.9366 36.2173 40.1081 35.9995 45.3225C38.4351 46.0876 41.0269 46.5 43.715 46.5H46.2846Z" fill="currentColor" fill-opacity="0.25" />
    <path d="M70.822 10.5L72.7301 9.90066L72.2706 8.43776L70.7386 8.50174L70.822 10.5ZM55.7872 14.4177L54.8792 12.6357L55.7872 14.4177ZM39.9172 30.2879L38.1351 29.38L39.9172 30.2879ZM35.9995 45.3225L34.0013 45.239L33.9373 46.771L35.4001 47.2305L35.9995 45.3225ZM69.9995 20.7848C69.9995 33.8824 59.3819 44.5 46.2846 44.5V48.5C61.5911 48.5 73.9995 36.0915 73.9995 20.7848H69.9995ZM69.9995 18.2152V20.7848H73.9995V18.2152H69.9995ZM68.914 11.0993C69.6188 13.3432 69.9995 15.7328 69.9995 18.2152H73.9995C73.9995 15.3216 73.5554 12.5279 72.7301 9.90066L68.914 11.0993ZM56.6952 16.1997C61.0822 13.9644 65.9718 12.7043 70.9055 12.4983L70.7386 8.50174C65.2434 8.73124 59.7897 10.1336 54.8792 12.6357L56.6952 16.1997ZM41.6992 31.1959C44.959 24.7981 50.2975 19.4595 56.6952 16.1997L54.8792 12.6357C47.7289 16.279 41.7784 22.2296 38.1351 29.38L41.6992 31.1959ZM37.9978 45.4059C38.2039 40.4724 39.464 35.5828 41.6992 31.1959L38.1351 29.38C35.6332 34.2904 34.2308 39.7439 34.0013 45.239L37.9978 45.4059ZM43.715 44.5C41.2325 44.5 38.8428 44.1193 36.5989 43.4144L35.4001 47.2305C38.0274 48.0559 40.8212 48.5 43.715 48.5V44.5ZM46.2846 44.5H43.715V48.5H46.2846V44.5Z" fill="currentColor" />
  </g>
</svg>