<svg viewBox="0 0 80 80" fill="none">
  <path fill-rule="evenodd" clip-rule="evenodd" d="M62.7891 18.1725C64.1843 24.0064 64.3862 30.1076 63.3291 36.1028C61.5273 46.3215 56.1827 55.5787 48.2339 62.2485C45.6853 64.387 42.9212 66.2157 39.9999 67.7134C37.0785 66.2157 34.3144 64.387 31.7658 62.2485C23.8171 55.5787 18.4724 46.3215 16.6706 36.1028C15.6134 30.1074 15.8155 24.0059 17.2109 18.1717C19.6358 16.7096 22.2103 15.4756 24.9041 14.4952C34.6547 10.9463 45.3439 10.9463 55.0945 14.4952C57.7887 15.4758 60.3637 16.7101 62.7891 18.1725Z" fill="currentColor" fill-opacity="0.15" />
  <path d="M62.7891 18.1725L64.7342 17.7073C64.6095 17.186 64.2808 16.7365 63.8218 16.4597L62.7891 18.1725ZM63.3291 36.1028L65.2987 36.4501L63.3291 36.1028ZM48.2339 62.2485L49.5195 63.7806L48.2339 62.2485ZM39.9999 67.7134L39.0874 69.4932C39.6603 69.7869 40.3395 69.7869 40.9123 69.4932L39.9999 67.7134ZM31.7658 62.2485L33.0514 60.7164L31.7658 62.2485ZM16.6706 36.1028L18.6402 35.7555L16.6706 36.1028ZM17.2109 18.1717L16.1782 16.4589C15.7192 16.7357 15.3904 17.1851 15.2657 17.7064L17.2109 18.1717ZM24.9041 14.4952L25.5881 16.3746L24.9041 14.4952ZM55.0945 14.4952L55.7786 12.6158L55.0945 14.4952ZM60.8439 18.6377C62.1759 24.2073 62.3687 30.032 61.3595 35.7555L65.2987 36.4501C66.4038 30.1833 66.1926 23.8055 64.7342 17.7073L60.8439 18.6377ZM61.3595 35.7555C59.6393 45.5112 54.5369 54.3489 46.9483 60.7164L49.5195 63.7806C57.8284 56.8086 63.4152 47.1319 65.2987 36.4501L61.3595 35.7555ZM46.9483 60.7164C44.5152 62.7581 41.8764 64.5039 39.0874 65.9337L40.9123 69.4932C43.9661 67.9276 46.8554 66.016 49.5195 63.7806L46.9483 60.7164ZM40.9123 65.9337C38.1233 64.5039 35.4846 62.7581 33.0514 60.7164L30.4803 63.7806C33.1443 66.016 36.0337 67.9276 39.0874 69.4932L40.9123 65.9337ZM33.0514 60.7164C25.4628 54.3489 20.3604 45.5112 18.6402 35.7555L14.701 36.4501C16.5845 47.1319 22.1713 56.8086 30.4803 63.7806L33.0514 60.7164ZM18.6402 35.7555C17.631 30.0318 17.8238 24.2068 19.156 18.6369L15.2657 17.7064C13.8071 23.8049 13.5959 30.183 14.701 36.4501L18.6402 35.7555ZM18.2435 19.8844C20.5586 18.4887 23.0164 17.3106 25.5881 16.3746L24.22 12.6158C21.4043 13.6407 18.7131 14.9306 16.1782 16.4589L18.2435 19.8844ZM25.5881 16.3746C34.8969 12.9865 45.1017 12.9865 54.4105 16.3746L55.7786 12.6158C45.5861 8.90606 34.4125 8.90606 24.22 12.6158L25.5881 16.3746ZM54.4105 16.3746C56.9827 17.3108 59.4409 18.4891 61.7563 19.8852L63.8218 16.4597C61.2865 14.931 58.5948 13.6408 55.7786 12.6158L54.4105 16.3746Z" fill="currentColor" />
  <path fill-rule="evenodd" clip-rule="evenodd" d="M38.1247 24.9961L39.2917 43.668C39.3151 44.042 39.6252 44.3333 39.9999 44.3333C40.3747 44.3333 40.6848 44.042 40.7082 43.668L41.8752 24.9961C41.9428 23.9144 41.0837 23 39.9999 23C38.9162 23 38.0571 23.9144 38.1247 24.9961ZM39.9999 52.3334C39.2636 52.3334 38.6666 52.9303 38.6666 53.6667C38.6666 54.4031 39.2636 55 39.9999 55C40.7363 55 41.3333 54.4031 41.3333 53.6667C41.3333 52.9303 40.7363 52.3334 39.9999 52.3334Z" fill="currentColor" />
  <path d="M39.2917 43.668L41.2878 43.5432L39.2917 43.668ZM38.1247 24.9961L40.1208 24.8713L38.1247 24.9961ZM40.7082 43.668L38.7121 43.5432L40.7082 43.668ZM41.8752 24.9961L39.8791 24.8713V24.8713L41.8752 24.9961ZM41.2878 43.5432L40.1208 24.8713L36.1286 25.1209L37.2956 43.7927L41.2878 43.5432ZM39.9999 42.3333C40.6813 42.3333 41.2453 42.8631 41.2878 43.5432L37.2956 43.7927C37.3848 45.2208 38.5691 46.3333 39.9999 46.3333V42.3333ZM38.7121 43.5432C38.7546 42.8631 39.3186 42.3333 39.9999 42.3333V46.3333C41.4308 46.3333 42.6151 45.2208 42.7043 43.7927L38.7121 43.5432ZM39.8791 24.8713L38.7121 43.5432L42.7043 43.7927L43.8713 25.1209L39.8791 24.8713ZM39.9999 25C39.9301 25 39.8747 24.9411 39.8791 24.8713L43.8713 25.1209C44.0109 22.8878 42.2374 21 39.9999 21V25ZM40.1208 24.8713C40.1252 24.9411 40.0698 25 39.9999 25V21C37.7625 21 35.989 22.8878 36.1286 25.1209L40.1208 24.8713ZM40.6666 53.6667C40.6666 54.0349 40.3681 54.3334 39.9999 54.3334V50.3334C38.159 50.3334 36.6666 51.8258 36.6666 53.6667H40.6666ZM39.9999 53C40.3681 53 40.6666 53.2985 40.6666 53.6667H36.6666C36.6666 55.5077 38.159 57 39.9999 57V53ZM39.3333 53.6667C39.3333 53.2985 39.6318 53 39.9999 53V57C41.8409 57 43.3333 55.5077 43.3333 53.6667H39.3333ZM39.9999 54.3334C39.6317 54.3334 39.3333 54.0349 39.3333 53.6667H43.3333C43.3333 51.8258 41.8409 50.3334 39.9999 50.3334V54.3334Z" fill="currentColor" />
</svg>