<svg viewBox="0 0 80 80" fill="none">
  <path fill-rule="evenodd" clip-rule="evenodd" d="M40.0004 70.2389C38.2027 69.3957 36.4564 68.4316 34.7737 67.3503C27.5059 62.6795 21.7338 56.0182 18.145 48.1596C14.5561 40.3011 13.3017 31.5766 14.5312 23.0253C14.7806 21.2904 15.1301 19.5775 15.5761 17.8946L39.9999 10L64.4247 17.8949C64.8706 19.5777 65.2201 21.2905 65.4696 23.0253C66.6991 31.5766 65.4447 40.3011 61.8558 48.1596C58.2669 56.0182 52.4948 62.6795 45.227 67.3503C43.5444 68.4316 41.798 69.3957 40.0004 70.2389Z" fill="currentColor" fill-opacity="0.15" />
  <path d="M40.0004 70.2389L39.151 72.0496C39.6891 72.302 40.3116 72.302 40.8497 72.0496L40.0004 70.2389ZM34.7737 67.3503L33.6925 69.0328H33.6925L34.7737 67.3503ZM18.145 48.1596L19.9642 47.3288L18.145 48.1596ZM14.5312 23.0253L16.5108 23.3099L14.5312 23.0253ZM15.5761 17.8946L14.961 15.9915C14.3137 16.2007 13.8171 16.7246 13.6429 17.3822L15.5761 17.8946ZM39.9999 10L40.6151 8.09695C40.2152 7.96768 39.7847 7.96768 39.3848 8.09695L39.9999 10ZM64.4247 17.8949L66.358 17.3826C66.1837 16.725 65.6871 16.201 65.0398 15.9918L64.4247 17.8949ZM65.4696 23.0253L67.4492 22.7406L67.4492 22.7406L65.4696 23.0253ZM61.8558 48.1596L63.6751 48.9905L61.8558 48.1596ZM45.227 67.3503L44.1457 65.6678L45.227 67.3503ZM40.8497 68.4282C39.1319 67.6225 37.463 66.7011 35.855 65.6678L33.6925 69.0328C35.4497 70.1621 37.2736 71.169 39.151 72.0496L40.8497 68.4282ZM35.855 65.6678C28.9098 61.2043 23.3938 54.8386 19.9642 47.3288L16.3257 48.9905C20.0738 57.1978 26.1021 64.1548 33.6925 69.0328L35.855 65.6678ZM19.9642 47.3288C16.5346 39.819 15.3359 31.4817 16.5108 23.3099L12.5515 22.7406C11.2675 31.6714 12.5775 40.7832 16.3257 48.9905L19.9642 47.3288ZM16.5108 23.3099C16.7492 21.652 17.0832 20.0151 17.5094 18.4069L13.6429 17.3822C13.1771 19.1399 12.812 20.9288 12.5515 22.7406L16.5108 23.3099ZM16.1913 19.7976L40.6151 11.9031L39.3848 8.09695L14.961 15.9915L16.1913 19.7976ZM39.3848 11.9031L63.8096 19.7979L65.0398 15.9918L40.6151 8.09695L39.3848 11.9031ZM62.4914 18.4072C62.9176 20.0153 63.2516 21.6521 63.4899 23.3099L67.4492 22.7406C67.1887 20.9289 66.8237 19.1401 66.358 17.3826L62.4914 18.4072ZM63.4899 23.3099C64.6649 31.4817 63.4661 39.819 60.0365 47.3288L63.6751 48.9905C67.4232 40.7832 68.7333 31.6714 67.4492 22.7406L63.4899 23.3099ZM60.0365 47.3288C56.6069 54.8386 51.091 61.2043 44.1457 65.6678L46.3083 69.0328C53.8986 64.1548 59.9269 57.1978 63.6751 48.9905L60.0365 47.3288ZM44.1457 65.6678C42.5378 66.7011 40.8689 67.6225 39.151 68.4282L40.8497 72.0496C42.7271 71.169 44.551 70.1621 46.3083 69.0328L44.1457 65.6678Z" fill="currentColor" />
</svg>