<svg viewBox="0 0 80 80" fill="none">
  <path fill-rule="evenodd" clip-rule="evenodd" d="M33.5 18C32.6716 18 32 18.6716 32 19.5V23.4V24H34H46H48V23.4V19.5C48 18.6716 47.3284 18 46.5 18H45.7143H43.4286H36.5714H34.2857H33.5Z" fill="currentColor" fill-opacity="0.25" />
  <path d="M32 24H30V26H32V24ZM48 24V26H50V24H48ZM34 19.5C34 19.7761 33.7761 20 33.5 20V16C31.567 16 30 17.567 30 19.5H34ZM34 23.4V19.5H30V23.4H34ZM34 24V23.4H30V24H34ZM32 26H34V22H32V26ZM34 26H46V22H34V26ZM46 26H48V22H46V26ZM46 23.4V24H50V23.4H46ZM46 19.5V23.4H50V19.5H46ZM46.5 20C46.2239 20 46 19.7761 46 19.5H50C50 17.567 48.433 16 46.5 16V20ZM45.7143 20H46.5V16H45.7143V20ZM43.4286 20H45.7143V16H43.4286V20ZM36.5714 20H43.4286V16H36.5714V20ZM34.2857 20H36.5714V16H34.2857V20ZM33.5 20H34.2857V16H33.5V20Z" fill="currentColor" />
  <path fill-rule="evenodd" clip-rule="evenodd" d="M26 26.5C26 25.1193 27.1193 24 28.5 24H30H34H46H50H51.5C52.8807 24 54 25.1193 54 26.5V33V34V35.6004L41.857 30.7431C40.6649 30.2663 39.3351 30.2663 38.143 30.7431L26 35.6004V34V33V26.5Z" fill="currentColor" fill-opacity="0.25" />
  <path d="M54 35.6004L53.2572 37.4573L56 38.5544V35.6004H54ZM41.857 30.7431L42.5997 28.8862L41.857 30.7431ZM38.143 30.7431L38.8858 32.6001L38.143 30.7431ZM26 35.6004H24V38.5544L26.7428 37.4573L26 35.6004ZM28.5 22C26.0147 22 24 24.0147 24 26.5H28C28 26.2239 28.2239 26 28.5 26V22ZM30 22H28.5V26H30V22ZM34 22H30V26H34V22ZM46 22H34V26H46V22ZM50 22H46V26H50V22ZM51.5 22H50V26H51.5V22ZM56 26.5C56 24.0147 53.9853 22 51.5 22V26C51.7761 26 52 26.2239 52 26.5H56ZM56 33V26.5H52V33H56ZM56 34V33H52V34H56ZM56 35.6004V34H52V35.6004H56ZM41.1142 32.6001L53.2572 37.4573L54.7428 33.7434L42.5997 28.8862L41.1142 32.6001ZM38.8858 32.6001C39.6011 32.314 40.3989 32.314 41.1142 32.6001L42.5997 28.8862C40.9309 28.2186 39.0691 28.2186 37.4003 28.8862L38.8858 32.6001ZM26.7428 37.4573L38.8858 32.6001L37.4003 28.8862L25.2572 33.7434L26.7428 37.4573ZM24 34V35.6004H28V34H24ZM24 33V34H28V33H24ZM24 26.5V33H28V26.5H24Z" fill="currentColor" />
  <path fill-rule="evenodd" clip-rule="evenodd" d="M58.8204 42.3057C59.4924 39.853 58.2163 37.2866 55.8551 36.3421L41.857 30.7429C40.6649 30.266 39.3351 30.266 38.1431 30.7429L24.145 36.3421C21.7838 37.2866 20.5077 39.853 21.1796 42.3057L25.5675 58.3213C26.1627 60.4938 28.1372 62.0001 30.3898 62.0001H49.6103C51.8629 62.0001 53.8374 60.4938 54.4326 58.3213L58.8204 42.3057Z" fill="currentColor" fill-opacity="0.25" />
  <path d="M54.4326 58.3213L52.5037 57.7928L54.4326 58.3213ZM25.5675 58.3213L23.6386 58.8497L25.5675 58.3213ZM38.1431 30.7429L37.4003 28.8859L38.1431 30.7429ZM41.1142 32.5998L55.1123 38.1991L56.5979 34.4852L42.5998 28.8859L41.1142 32.5998ZM24.8878 38.1991L38.8859 32.5998L37.4003 28.8859L23.4022 34.4852L24.8878 38.1991ZM27.4964 57.7928L23.1086 41.7772L19.2507 42.8341L23.6386 58.8497L27.4964 57.7928ZM49.6103 60.0001H30.3898V64.0001H49.6103V60.0001ZM56.8915 41.7772L52.5037 57.7928L56.3615 58.8497L60.7493 42.8341L56.8915 41.7772ZM49.6103 64.0001C52.7639 64.0001 55.5282 61.8913 56.3615 58.8497L52.5037 57.7928C52.1465 59.0963 50.9619 60.0001 49.6103 60.0001V64.0001ZM23.6386 58.8497C24.4719 61.8913 27.2361 64.0001 30.3898 64.0001V60.0001C29.0382 60.0001 27.8535 59.0963 27.4964 57.7928L23.6386 58.8497ZM23.4022 34.4852C20.0965 35.8074 18.31 39.4003 19.2507 42.8341L23.1086 41.7772C22.7054 40.3056 23.471 38.7658 24.8878 38.1991L23.4022 34.4852ZM55.1123 38.1991C56.529 38.7658 57.2947 40.3056 56.8915 41.7772L60.7493 42.8341C61.6901 39.4004 59.9035 35.8074 56.5979 34.4852L55.1123 38.1991ZM42.5998 28.8859C40.9309 28.2184 39.0692 28.2184 37.4003 28.8859L38.8859 32.5998C39.6011 32.3137 40.399 32.3137 41.1142 32.5998L42.5998 28.8859Z" fill="currentColor" />
  <path d="M40 30.3853L40 33.3491L40 62" stroke="currentColor" stroke-width="4" />
</svg>