<svg viewBox="0 0 80 80" fill="none">
  <path d="M33.4999 18C32.6715 18 31.9999 18.6716 31.9999 19.5V24H33.9999H45.9999H47.9999V19.5C47.9999 18.6716 47.3283 18 46.4999 18H33.4999Z" fill="currentColor" fill-opacity="0.25" />
  <path d="M25.9999 26.5C25.9999 25.1193 27.1192 24 28.4999 24H33.9999H45.9999H51.4999C52.8806 24 53.9999 25.1193 53.9999 26.5V35.6004L41.8569 30.7431C40.6648 30.2663 39.335 30.2663 38.143 30.7431L25.9999 35.6004V26.5Z" fill="currentColor" fill-opacity="0.25" />
  <path d="M58.8203 42.3056C59.4923 39.8529 58.2162 37.2865 55.855 36.342L41.8569 30.7431C40.6648 30.2663 39.335 30.2663 38.143 30.7431L24.1449 36.342C21.7837 37.2865 20.5075 39.8529 21.1795 42.3056L25.5674 58.3212C26.1626 60.4937 28.137 62 30.3897 62H49.6102C51.8628 62 53.8372 60.4937 54.4325 58.3212L58.8203 42.3056Z" fill="currentColor" fill-opacity="0.25" />
  <path d="M33.9999 24H31.9999V19.5C31.9999 18.6716 32.6715 18 33.4999 18H46.4999C47.3283 18 47.9999 18.6716 47.9999 19.5V24H45.9999M33.9999 24H45.9999M33.9999 24H28.4999C27.1192 24 25.9999 25.1193 25.9999 26.5V35.6004L38.143 30.7431M45.9999 24H51.4999C52.8806 24 53.9999 25.1193 53.9999 26.5V35.6004L41.8569 30.7431M41.8569 30.7431C40.6648 30.2663 39.335 30.2663 38.143 30.7431M41.8569 30.7431L55.855 36.342C58.2162 37.2865 59.4923 39.8529 58.8203 42.3056L54.4325 58.3212C53.8373 60.4937 51.8628 62 49.6102 62H30.3897C28.137 62 26.1626 60.4937 25.5674 58.3212L21.1795 42.3056C20.5075 39.8529 21.7837 37.2865 24.1449 36.342L38.143 30.7431M39.9999 30.3853L39.9999 62" stroke="currentColor" stroke-width="4" stroke-linecap="round" stroke-linejoin="round" />
</svg>