<svg viewBox="0 0 80 80" fill="none">
  <path fill-rule="evenodd" clip-rule="evenodd" d="M58.8199 40.3057C59.4919 37.853 58.2158 35.2866 55.8546 34.3421L41.8565 28.7429C40.6644 28.266 39.3346 28.266 38.1426 28.7429L24.1445 34.3421C21.7833 35.2866 20.5072 37.853 21.1792 40.3057L23.3555 48.2492C25.5816 47.7749 27.9394 48.1105 29.9794 49.2561C31.6484 50.1934 33.6851 50.1934 35.3541 49.2561C38.2395 47.6358 41.7606 47.6358 44.646 49.2561C46.315 50.1934 48.3518 50.1934 50.0208 49.2561C52.0604 48.1107 54.4178 47.775 56.6437 48.2489L58.8199 40.3057Z" fill="currentColor" fill-opacity="0.25" />
  <path d="M55.8546 34.3421L56.5974 32.4852L55.8546 34.3421ZM58.8199 40.3057L56.891 39.7772V39.7772L58.8199 40.3057ZM41.8565 28.7429L41.1137 30.5998L41.8565 28.7429ZM38.1426 28.7429L38.8854 30.5998L38.1426 28.7429ZM24.1445 34.3421L23.4017 32.4852L23.4017 32.4852L24.1445 34.3421ZM21.1792 40.3057L19.2502 40.8341L19.2502 40.8341L21.1792 40.3057ZM23.3555 48.2492L21.4265 48.7776L21.9255 50.5987L23.7722 50.2053L23.3555 48.2492ZM29.9794 49.2561L30.9587 47.5123H30.9587L29.9794 49.2561ZM35.3541 49.2561L34.3748 47.5123H34.3748L35.3541 49.2561ZM44.646 49.2561L45.6253 47.5123H45.6253L44.646 49.2561ZM50.0208 49.2561L49.0415 47.5123L49.0415 47.5123L50.0208 49.2561ZM56.6437 48.2489L56.2272 50.2051L58.0737 50.5983L58.5726 48.7774L56.6437 48.2489ZM55.1118 36.1991C56.5285 36.7658 57.2942 38.3056 56.891 39.7772L60.7489 40.8341C61.6896 37.4004 59.9031 33.8074 56.5974 32.4852L55.1118 36.1991ZM41.1137 30.5998L55.1118 36.1991L56.5974 32.4852L42.5993 26.8859L41.1137 30.5998ZM38.8854 30.5998C39.6006 30.3137 40.3985 30.3137 41.1137 30.5998L42.5993 26.8859C40.9304 26.2184 39.0687 26.2184 37.3998 26.8859L38.8854 30.5998ZM24.8873 36.1991L38.8854 30.5998L37.3998 26.8859L23.4017 32.4852L24.8873 36.1991ZM23.1081 39.7772C22.7049 38.3056 23.4706 36.7658 24.8873 36.1991L23.4017 32.4852C20.096 33.8074 18.3095 37.4003 19.2502 40.8341L23.1081 39.7772ZM25.2844 47.7207L23.1081 39.7772L19.2502 40.8341L21.4265 48.7776L25.2844 47.7207ZM30.9587 47.5123C28.4884 46.1251 25.6336 45.7189 22.9387 46.2931L23.7722 50.2053C25.5297 49.8308 27.3904 50.096 29.0001 51L30.9587 47.5123ZM34.3748 47.5123C33.314 48.108 32.0195 48.108 30.9587 47.5123L29.0001 51C31.2773 52.2788 34.0562 52.2788 36.3334 51L34.3748 47.5123ZM45.6253 47.5123C42.1317 45.5504 37.8684 45.5504 34.3748 47.5123L36.3334 51C38.6106 49.7212 41.3895 49.7212 43.6667 51L45.6253 47.5123ZM49.0415 47.5123C47.9807 48.108 46.6861 48.108 45.6253 47.5123L43.6667 51C45.9439 52.2788 48.7229 52.2788 51.0001 51L49.0415 47.5123ZM57.0602 46.2928C54.3657 45.7191 51.5113 46.1253 49.0415 47.5123L51.0001 51C52.6095 50.0961 54.4699 49.8309 56.2272 50.2051L57.0602 46.2928ZM56.891 39.7772L54.7148 47.7205L58.5726 48.7774L60.7489 40.8341L56.891 39.7772Z" fill="currentColor" />
  <path d="M39.9995 31.3491H37.9995V31.3491L39.9995 31.3491ZM37.9995 28.3853V31.3491H41.9995V28.3853H37.9995ZM37.9995 31.3491L37.9995 48.0409H41.9995L41.9995 31.3491L37.9995 31.3491Z" fill="currentColor" />
  <path fill-rule="evenodd" clip-rule="evenodd" d="M33.4995 16C32.6711 16 31.9995 16.6716 31.9995 17.5V21.4V22H33.9995H45.9995H47.9995V21.4V17.5C47.9995 16.6716 47.3279 16 46.4995 16H45.7138H43.4281H36.5709H34.2852H33.4995Z" fill="currentColor" fill-opacity="0.25" />
  <path d="M31.9995 22H29.9995V24H31.9995V22ZM47.9995 22V24H49.9995V22H47.9995ZM33.9995 17.5C33.9995 17.7761 33.7757 18 33.4995 18V14C31.5665 14 29.9995 15.567 29.9995 17.5H33.9995ZM33.9995 21.4V17.5H29.9995V21.4H33.9995ZM33.9995 22V21.4H29.9995V22H33.9995ZM31.9995 24H33.9995V20H31.9995V24ZM33.9995 24H45.9995V20H33.9995V24ZM45.9995 24H47.9995V20H45.9995V24ZM45.9995 21.4V22H49.9995V21.4H45.9995ZM45.9995 17.5V21.4H49.9995V17.5H45.9995ZM46.4995 18C46.2234 18 45.9995 17.7761 45.9995 17.5H49.9995C49.9995 15.567 48.4325 14 46.4995 14V18ZM45.7138 18H46.4995V14H45.7138V18ZM43.4281 18H45.7138V14H43.4281V18ZM36.5709 18H43.4281V14H36.5709V18ZM34.2852 18H36.5709V14H34.2852V18ZM33.4995 18H34.2852V14H33.4995V18Z" fill="currentColor" />
  <path fill-rule="evenodd" clip-rule="evenodd" d="M25.9995 24.5C25.9995 23.1193 27.1188 22 28.4995 22H29.9995H33.9995H45.9995H49.9995H51.4995C52.8802 22 53.9995 23.1193 53.9995 24.5V31V32V33.6004L41.8565 28.7431C40.6644 28.2663 39.3346 28.2663 38.1426 28.7431L25.9995 33.6004V32V31V24.5Z" fill="currentColor" fill-opacity="0.25" />
  <path d="M53.9995 33.6004L53.2567 35.4573L55.9995 36.5544V33.6004H53.9995ZM41.8565 28.7431L42.5992 26.8862L41.8565 28.7431ZM38.1426 28.7431L38.8853 30.6001L38.1426 28.7431ZM25.9995 33.6004H23.9995V36.5544L26.7423 35.4573L25.9995 33.6004ZM28.4995 20C26.0142 20 23.9995 22.0147 23.9995 24.5H27.9995C27.9995 24.2239 28.2234 24 28.4995 24V20ZM29.9995 20H28.4995V24H29.9995V20ZM33.9995 20H29.9995V24H33.9995V20ZM45.9995 20H33.9995V24H45.9995V20ZM49.9995 20H45.9995V24H49.9995V20ZM51.4995 20H49.9995V24H51.4995V20ZM55.9995 24.5C55.9995 22.0147 53.9848 20 51.4995 20V24C51.7757 24 51.9995 24.2239 51.9995 24.5H55.9995ZM55.9995 31V24.5H51.9995V31H55.9995ZM55.9995 32V31H51.9995V32H55.9995ZM55.9995 33.6004V32H51.9995V33.6004H55.9995ZM41.1137 30.6001L53.2567 35.4573L54.7423 31.7434L42.5992 26.8862L41.1137 30.6001ZM38.8853 30.6001C39.6006 30.314 40.3985 30.314 41.1137 30.6001L42.5992 26.8862C40.9304 26.2186 39.0687 26.2186 37.3998 26.8862L38.8853 30.6001ZM26.7423 35.4573L38.8853 30.6001L37.3998 26.8862L25.2567 31.7434L26.7423 35.4573ZM23.9995 32V33.6004H27.9995V32H23.9995ZM23.9995 31V32H27.9995V31H23.9995ZM23.9995 24.5V31H27.9995V24.5H23.9995Z" fill="currentColor" />
  <path d="M21.6667 56.0001L20.6874 54.2563H20.6874L21.6667 56.0001ZM29.0001 56.0001L29.9794 54.2563V54.2563L29.0001 56.0001ZM16.5341 54.76C15.4697 54.465 14.3676 55.0888 14.0726 56.1532C13.7777 57.2177 14.4014 58.3197 15.4659 58.6147L16.5341 54.76ZM36.3334 56.0001L35.3541 54.2563V54.2563L36.3334 56.0001ZM43.6667 56.0001L42.6874 57.744L42.6874 57.744L43.6667 56.0001ZM51.0001 56.0001L50.0208 54.2563L51.0001 56.0001ZM58.3334 56.0001L59.3127 54.2563V54.2563L58.3334 56.0001ZM64.5341 58.6148C65.5985 58.3198 66.2223 57.2178 65.9274 56.1533C65.6324 55.0889 64.5304 54.4651 63.4659 54.76L64.5341 58.6148ZM22.646 57.744C24.315 56.8067 26.3518 56.8067 28.0208 57.744L29.9794 54.2563C27.094 52.6359 23.5728 52.6359 20.6874 54.2563L22.646 57.744ZM20.6874 54.2563C19.4089 54.9743 17.9142 55.1424 16.5341 54.76L15.4659 58.6147C17.8509 59.2756 20.4349 58.9857 22.646 57.744L20.6874 54.2563ZM37.3127 57.744C38.9817 56.8067 41.0184 56.8067 42.6874 57.744L44.646 54.2563C41.7606 52.6359 38.2395 52.6359 35.3541 54.2563L37.3127 57.744ZM35.3541 54.2563C33.6851 55.1935 31.6484 55.1935 29.9794 54.2563L28.0208 57.744C30.9062 59.3643 34.4273 59.3643 37.3127 57.744L35.3541 54.2563ZM51.9794 57.744C53.6484 56.8067 55.6851 56.8067 57.3541 57.744L59.3127 54.2563C56.4273 52.6359 52.9062 52.6359 50.0208 54.2563L51.9794 57.744ZM50.0208 54.2563C48.3518 55.1935 46.315 55.1935 44.646 54.2563L42.6874 57.744C45.5728 59.3643 49.094 59.3643 51.9794 57.744L50.0208 54.2563ZM63.4659 54.76C62.0858 55.1424 60.5912 54.9742 59.3127 54.2563L57.3541 57.744C59.5651 58.9856 62.1491 59.2756 64.5341 58.6148L63.4659 54.76Z" fill="currentColor" />
  <path d="M23.6441 59.1925C22.5572 59.3891 21.8354 60.4296 22.0319 61.5165C22.2285 62.6034 23.269 63.3252 24.3559 63.1287L23.6441 59.1925ZM29.0001 62.0001L29.9794 60.2563L29.9794 60.2563L29.0001 62.0001ZM36.3334 62.0001L37.3127 63.744H37.3127L36.3334 62.0001ZM43.6667 62.0001L42.6874 63.744L42.6874 63.744L43.6667 62.0001ZM51.0001 62.0001L50.0208 60.2563V60.2563L51.0001 62.0001ZM55.6441 63.1286C56.7311 63.3252 57.7715 62.6034 57.9681 61.5164C58.1646 60.4295 57.4428 59.389 56.3559 59.1925L55.6441 63.1286ZM24.3559 63.1287C25.5946 62.9047 26.8919 63.11 28.0208 63.744L29.9794 60.2563C28.027 59.1599 25.7838 58.8056 23.6441 59.1925L24.3559 63.1287ZM37.3127 63.744C38.9817 62.8067 41.0184 62.8067 42.6874 63.744L44.646 60.2563C41.7606 58.6359 38.2395 58.6359 35.3541 60.2563L37.3127 63.744ZM35.3541 60.2563C33.6851 61.1935 31.6484 61.1935 29.9794 60.2563L28.0208 63.744C30.9062 65.3643 34.4273 65.3643 37.3127 63.744L35.3541 60.2563ZM51.9794 63.744C53.1082 63.11 54.4055 62.9047 55.6441 63.1286L56.3559 59.1925C54.2162 58.8056 51.973 59.1599 50.0208 60.2563L51.9794 63.744ZM50.0208 60.2563C48.3518 61.1935 46.315 61.1935 44.646 60.2563L42.6874 63.744C45.5728 65.3643 49.094 65.3643 51.9794 63.744L50.0208 60.2563Z" fill="currentColor" />
</svg>