<svg viewBox="0 0 80 80" fill="none">
  <path fill-rule="evenodd" clip-rule="evenodd" d="M9.71242 31.9162C9.87763 30.8148 10.8238 30 11.9375 30H13.9999H49.9998H52.0622C53.1759 30 54.1221 30.8148 54.2873 31.9162L56.0998 44H38.0974H35.9999C34.8953 44 33.9999 44.8954 33.9999 46V68C33.9999 69.1046 34.8953 70 35.9998 70H6.61252C5.23694 70 4.18336 68.7766 4.38742 67.4162L9.71242 31.9162Z" fill="currentColor" fill-opacity="0.25" />
  <path d="M9.71242 31.9162L7.73454 31.6196V31.6196L9.71242 31.9162ZM54.2873 31.9162L56.2652 31.6196V31.6196L54.2873 31.9162ZM56.0998 44V46C56.6821 46 57.2354 45.7463 57.6153 45.3051C57.9953 44.8639 58.1641 44.2791 58.0777 43.7033L56.0998 44ZM35.9998 72C37.1044 72 37.9998 71.1046 37.9998 70C37.9998 68.8954 37.1044 68 35.9998 68V72ZM4.38742 67.4162L6.36529 67.7129L4.38742 67.4162ZM11.9375 28C9.83379 28 8.04661 29.5391 7.73454 31.6196L11.6903 32.2129C11.7086 32.0905 11.8138 32 11.9375 32V28ZM13.9999 28H11.9375V32H13.9999V28ZM49.9998 28H13.9999V32H49.9998V28ZM52.0622 28H49.9998V32H52.0622V28ZM56.2652 31.6196C55.9531 29.5391 54.1659 28 52.0622 28V32C52.1859 32 52.2911 32.0905 52.3094 32.2129L56.2652 31.6196ZM58.0777 43.7033L56.2652 31.6196L52.3094 32.2129L54.122 44.2967L58.0777 43.7033ZM38.0974 46H56.0998V42H38.0974V46ZM35.9999 46H38.0974V42H35.9999V46ZM35.9999 46V42C33.7907 42 31.9999 43.7909 31.9999 46H35.9999ZM35.9999 68V46H31.9999V68H35.9999ZM35.9998 68H35.9999H31.9999C31.9999 70.2091 33.7907 72 35.9998 72V68ZM6.61252 72H35.9998V68H6.61252V72ZM2.40954 67.1196C2.02411 69.6891 4.0142 72 6.61252 72V68C6.45968 68 6.34261 67.8641 6.36529 67.7129L2.40954 67.1196ZM7.73454 31.6196L2.40954 67.1196L6.36529 67.7129L11.6903 32.2129L7.73454 31.6196Z" fill="currentColor" />
  <path d="M44 38V22C44 15.3726 38.6274 10 32 10V10C25.3726 10 20 15.3726 20 22V38" stroke="currentColor" stroke-width="4" stroke-linecap="round" stroke-linejoin="round" />
  <path d="M76 68V46C76 44.8954 75.1046 44 74 44H71.9024H38.0976H36C34.8954 44 34 44.8954 34 46V68C34 69.1046 34.8954 70 36 70H38.0976H71.9024H74C75.1046 70 76 69.1046 76 68Z" fill="currentColor" fill-opacity="0.25" stroke="currentColor" stroke-width="4" stroke-linecap="round" stroke-linejoin="round" />
  <path d="M45 52V62H65V52" stroke="currentColor" stroke-width="4" stroke-linecap="round" stroke-linejoin="round" />
</svg>