<svg viewBox="0 0 80 80" fill="none">
  <path d="M59.8021 27.4519C64.8387 23.5584 65.3123 16.1274 60.8108 11.6259C56.3099 7.12495 48.88 7.59786 44.986 12.6331L26.4188 36.6422C26.0691 37.0945 26.1099 37.7362 26.5142 38.1404L34.2923 45.9186C34.6966 46.3228 35.3383 46.3637 35.7906 46.0141L59.8021 27.4519Z" fill="currentColor" fill-opacity="0.25" />
  <path fill-rule="evenodd" clip-rule="evenodd" d="M26.5876 38.214L34.2244 45.8507C34.4894 46.1158 34.6045 46.4958 34.531 46.8634L33.6382 51.3271C32.9526 54.7554 30.4622 57.5425 27.1323 58.608L13.0285 63.1212C11.9757 63.4581 10.8229 63.1787 10.0413 62.397C9.25971 61.6154 8.98023 60.4627 9.31712 59.4099L13.8303 45.3061C14.8959 41.9762 17.683 39.4858 21.1112 38.8002L25.575 37.9074C25.9426 37.8339 26.3226 37.9489 26.5876 38.214ZM20.451 49.048C19.9729 50.8325 21.6059 52.4655 23.3904 51.9874C25.175 51.5092 25.7727 49.2785 24.4663 47.9721C23.1599 46.6657 20.9292 47.2634 20.451 49.048Z" fill="currentColor" fill-opacity="0.25" />
  <path d="M30.406 33.547L38.8913 42.0323M10.0413 62.397C10.8229 63.1787 11.9757 63.4581 13.0285 63.1212L27.1323 58.608C30.4621 57.5425 32.9526 54.7554 33.6382 51.3271L34.531 46.8634C34.6045 46.4958 34.4894 46.1158 34.2244 45.8507L26.5876 38.214C26.3226 37.9489 25.9426 37.8339 25.575 37.9074L21.1112 38.8002C17.683 39.4858 14.8959 41.9762 13.8303 45.3061L9.31712 59.4099C8.98023 60.4627 9.25971 61.6154 10.0413 62.397ZM10.0413 62.397L21.0722 51.3662M8.55566 72H21.5641C23.4206 72 25.2197 71.3562 26.6548 70.1783L30.4354 67.0753C31.197 66.4502 32.2941 66.4502 33.0557 67.0753L36.8408 70.1821C38.2729 71.3575 40.0683 72 41.921 72H42.6311C45.5851 72 48.221 70.1451 49.2184 67.3646L55.2676 50.5C55.4487 49.9952 56.1626 49.9952 56.3437 50.5L61.5234 64.9404C63.0424 69.1751 67.0568 72 71.5557 72H72.5557M26.5142 38.1404L34.2923 45.9186C34.6966 46.3228 35.3383 46.3637 35.7906 46.0141L59.8021 27.4519C64.8387 23.5584 65.3123 16.1274 60.8108 11.6259C56.3099 7.12495 48.88 7.59786 44.986 12.6331L26.4188 36.6422C26.0691 37.0945 26.1099 37.7362 26.5142 38.1404ZM23.3904 51.9874C21.6059 52.4655 19.9729 50.8325 20.451 49.048C20.9292 47.2634 23.1599 46.6657 24.4663 47.9721C25.7727 49.2785 25.175 51.5092 23.3904 51.9874Z" stroke="currentColor" stroke-width="4" stroke-linecap="round" stroke-linejoin="round" />
</svg>