<svg viewBox="0 0 80 80" fill="none">
  <path d="M64.5858 15.4142C65.8457 14.1543 68 15.0466 68 16.8284V66C68 67.1046 67.1046 68 66 68H16.8284C15.0466 68 14.1543 65.8457 15.4142 64.5858L64.5858 15.4142Z" fill="currentColor" fill-opacity="0.25" stroke="currentColor" stroke-width="4" stroke-linecap="round" stroke-linejoin="round" />
  <path fill-rule="evenodd" clip-rule="evenodd" d="M68 16.8143V66.0137C67.9926 67.112 67.1001 68 66 68H16.8285C15.0467 68 14.1543 65.8458 15.4143 64.5858L64.5858 15.4143C65.8424 14.1577 67.9886 15.0419 68 16.8143Z" fill="currentColor" fill-opacity="0.25" />
  <path d="M68 16.8143H70L70 16.8014L68 16.8143ZM68 66.0137L70 66.0271V66.0137H68ZM15.4143 64.5858L16.8285 66L15.4143 64.5858ZM64.5858 15.4143L66 16.8285V16.8285L64.5858 15.4143ZM66 16.8143V66.0137H70V16.8143H66ZM66 66.0003V66V70C68.2001 70 69.9852 68.224 70 66.0271L66 66.0003ZM66 66H16.8285V70H66V66ZM16.8285 66H16.8285L14 63.1716C11.4802 65.6915 13.2648 70 16.8285 70V66ZM16.8285 66L66 16.8285L63.1716 14L14 63.1716L16.8285 66ZM66 16.8285C66.0074 16.8212 66.012 16.8176 66.0135 16.8165C66.015 16.8154 66.0145 16.8159 66.0121 16.8172C66.0097 16.8184 66.0065 16.8198 66.0027 16.8211C65.9989 16.8224 65.9954 16.8232 65.9923 16.8238C65.9862 16.8248 65.9839 16.8243 65.9861 16.8245C65.9885 16.8248 65.9936 16.8258 65.9999 16.8284C66.0062 16.831 66.0105 16.8339 66.0126 16.8355C66.0144 16.8369 66.0126 16.8359 66.0091 16.8309C66.0073 16.8285 66.0054 16.8254 66.0036 16.8218C66.0018 16.8183 66.0005 16.8149 65.9996 16.8123C65.9987 16.8096 65.9987 16.8087 65.999 16.8103C65.9992 16.8118 66 16.8172 66 16.8271L70 16.8014C69.9771 13.2556 65.6853 11.4864 63.1716 14L66 16.8285Z" fill="currentColor" />
</svg>