<svg viewBox="0 0 80 80" fill="none">
  <path fill-rule="evenodd" clip-rule="evenodd" d="M68 64V66C68 67.1046 67.1046 68 66 68H62C60.8954 68 60 67.1046 60 66V64L60 16V14C60 12.8954 60.8954 12 62 12H66C67.1046 12 68 12.8954 68 14V16L68 64ZM50 68C51.1046 68 52 67.1046 52 66V64L52 28V26C52 24.8954 51.1046 24 50 24H46C44.8954 24 44 24.8954 44 26V28L44 64V66C44 67.1046 44.8954 68 46 68H50ZM36 64V66C36 67.1046 35.1046 68 34 68H30C28.8954 68 28 67.1046 28 66V64L28 40L28 38C28 36.8954 28.8954 36 30 36H34C35.1046 36 36 36.8954 36 38V40L36 64ZM20 64V66C20 67.1046 19.1046 68 18 68H14C12.8954 68 12 67.1046 12 66V64L12 52L12 50C12 48.8954 12.8954 48 14 48H18C19.1046 48 20 48.8954 20 50V52V64Z" fill="currentColor" fill-opacity="0.15" />
  <path d="M68 64H70H68ZM60 64H62H60ZM60 16H58H60ZM68 16H66V16L68 16ZM44 28H42H44ZM44 64H46H44ZM36 64H38H36ZM28 64H30H28ZM28 40H26H28ZM36 40H34H36ZM20 64H18H20ZM70 66V64H66V66H70ZM62 70H66V66H62V70ZM58 64V66H62V64H58ZM58 16L58 64H62L62 16L58 16ZM58 14V16H62V14H58ZM66 10L62 10V14L66 14V10ZM70 16V14H66V16H70ZM70 64L70 16L66 16L66 64H70ZM50 64V66H54V64H50ZM50 28L50 64H54L54 28H50ZM50 26V28H54V26H50ZM46 26H50V22H46V26ZM46 28V26H42V28H46ZM46 64L46 28H42L42 64H46ZM46 66V64H42V66H46ZM50 66H46V70H50V66ZM38 66V64H34V66H38ZM30 70H34L34 66H30L30 70ZM26 64V66H30V64H26ZM26 40L26 64H30L30 40H26ZM26 38L26 40H30V38H26ZM34 34H30V38H34V34ZM38 40V38H34V40H38ZM38 64L38 40H34L34 64H38ZM22 66V64H18L18 66H22ZM14 70H18L18 66H14V70ZM10 64V66H14V64H10ZM10 52L10 64H14L14 52H10ZM10 50V52H14V50H10ZM18 46H14L14 50H18V46ZM22 52V50H18V52H22ZM22 64V52H18V64H22ZM18 50H22C22 47.7909 20.2091 46 18 46V50ZM14 66H10C10 68.2091 11.7909 70 14 70V66ZM18 66H18L18 70C20.2091 70 22 68.2091 22 66H18ZM34 38H38C38 35.7909 36.2091 34 34 34V38ZM30 38H30V34C27.7909 34 26 35.7909 26 38H30ZM30 66H26C26 68.2091 27.7909 70 30 70L30 66ZM42 66C42 68.2091 43.7909 70 46 70V66H42ZM46 22C43.7909 22 42 23.7909 42 26H46V22ZM50 66V70C52.2091 70 54 68.2091 54 66H50ZM14 50L14 46C11.7909 46 10 47.7909 10 50H14ZM66 14H70C70 11.7909 68.2091 10 66 10V14ZM62 66H58C58 68.2091 59.7909 70 62 70V66ZM34 66L34 70C36.2091 70 38 68.2091 38 66H34ZM62 14V10C59.7909 10 58 11.7909 58 14H62ZM54 26C54 23.7909 52.2091 22 50 22V26H54ZM66 66V70C68.2091 70 70 68.2091 70 66H66Z" fill="currentColor" />
</svg>