<svg viewBox="0 0 80 80" fill="none">
  <path fill-rule="evenodd" clip-rule="evenodd" d="M52 64V66C52 67.1046 51.1046 68 50 68H46C44.8954 68 44 67.1046 44 66V64L44 28V26C44 24.8954 44.8954 24 46 24H50C51.1046 24 52 24.8954 52 26V28L52 64ZM34 68C35.1046 68 36 67.1046 36 66V64L36 40V38C36 36.8954 35.1046 36 34 36H30C28.8954 36 28 36.8954 28 38V40L28 64V66C28 67.1046 28.8954 68 30 68H34ZM18 68C19.1046 68 20 67.1046 20 66V64L20 52V50C20 48.8954 19.1046 48 18 48H14C12.8954 48 12 48.8954 12 50L12 52L12 64V66C12 67.1046 12.8954 68 14 68H18Z" fill="currentColor" fill-opacity="0.25" />
  <path d="M44 64H46H44ZM44 28L42 28L44 28ZM36 64H38H36ZM36 40H34H36ZM28 40H26H28ZM28 64H30H28ZM20 64H18H20ZM54 66V64H50V66H54ZM46 70H50V66H46V70ZM42 64V66H46V64H42ZM42 28L42 64H46L46 28L42 28ZM42 26V28L46 28V26L42 26ZM50 22H46V26H50V22ZM54 28V26H50V28H54ZM54 64L54 28H50L50 64H54ZM34 64V66H38V64H34ZM34 40L34 64H38L38 40H34ZM34 38V40H38V38H34ZM30 38H34V34H30L30 38ZM30 40V38H26V40H30ZM30 64L30 40H26L26 64H30ZM30 66V64H26V66H30ZM34 66H30V70H34V66ZM18 64L18 66H22V64H18ZM18 52L18 64H22V52H18ZM18 50V52H22L22 50H18ZM14 50H18V46H14V50ZM14 52V50H10V52H14ZM14 64L14 52H10L10 64H14ZM14 66V64H10V66H14ZM18 66H14V70H18V66ZM22 50C22 47.7909 20.2091 46 18 46V50H22ZM26 66C26 68.2091 27.7909 70 30 70V66H26ZM30 34C27.7909 34 26 35.7909 26 38H30H30L30 34ZM14 46C11.7909 46 10 47.7909 10 50H14V46ZM34 66V70C36.2091 70 38 68.2091 38 66H34ZM18 66V70C20.2091 70 22 68.2091 22 66H18ZM50 26H54C54 23.7909 52.2091 22 50 22V26ZM46 66H42C42 68.2091 43.7909 70 46 70V66ZM46 26H46V22C43.7909 22 42 23.7909 42 26L46 26ZM38 38C38 35.7909 36.2091 34 34 34V38H38ZM10 66C10 68.2091 11.7909 70 14 70V66H14H10ZM50 66V70C52.2091 70 54 68.2091 54 66H50Z" fill="currentColor" />
</svg>