<svg viewBox="0 0 80 80" fill="none">
  <path fill-rule="evenodd" clip-rule="evenodd" d="M48.7326 13.4358C43.0682 11.5214 36.9317 11.5214 31.2673 13.4358L30.231 13.786C24.9108 15.5841 20.3806 19.1749 17.4153 23.944L17.2119 24.2712C14.1338 29.2217 13.029 35.1484 14.1165 40.8755C15.117 46.1441 17.9069 50.8954 22 54.3333V62C22 65.3137 24.6862 68 28 68C31.3137 68 34 65.3137 34 62C34 65.3137 36.6862 68 40 68C43.3137 68 46 65.3137 46 62C46 65.3137 48.6862 68 52 68C55.3137 68 58 65.3137 58 62V54.3333C62.093 50.8954 64.883 46.1441 65.8834 40.8755C66.9709 35.1484 65.8661 29.2217 62.788 24.2712L62.5846 23.944C59.6193 19.1749 55.0891 15.5841 49.7689 13.786L48.7326 13.4358Z" fill="currentColor" fill-opacity="0.25" />
  <path d="M31.2673 13.4358L31.9076 15.3305L31.2673 13.4358ZM48.7326 13.4358L48.0923 15.3305L48.0923 15.3305L48.7326 13.4358ZM30.231 13.786L29.5907 11.8913L29.5907 11.8913L30.231 13.786ZM17.4153 23.944L15.7168 22.888L17.4153 23.944ZM17.2119 24.2712L18.9104 25.3272L17.2119 24.2712ZM14.1165 40.8755L16.0814 40.5024L14.1165 40.8755ZM22 54.3333H24C24 53.7425 23.7387 53.1819 23.2863 52.8018L22 54.3333ZM36 62C36 60.8955 35.1045 60 34 60C32.8954 60 32 60.8955 32 62H36ZM48 62C48 60.8955 47.1045 60 46 60C44.8954 60 44 60.8955 44 62H48ZM58 54.3333L56.7136 52.8018C56.2612 53.1819 56 53.7425 56 54.3333H58ZM65.8834 40.8755L63.9185 40.5024L65.8834 40.8755ZM62.788 24.2712L61.0895 25.3272L61.0895 25.3272L62.788 24.2712ZM62.5846 23.944L64.2831 22.888L64.2831 22.888L62.5846 23.944ZM49.7689 13.786L50.4092 11.8913L50.4092 11.8913L49.7689 13.786ZM31.9076 15.3305C37.1567 13.5565 42.8432 13.5565 48.0923 15.3305L49.373 11.5411C43.2932 9.4863 36.7067 9.4863 30.6269 11.5411L31.9076 15.3305ZM30.8714 15.6807L31.9076 15.3305L30.6269 11.5411L29.5907 11.8913L30.8714 15.6807ZM19.1138 25.0001C21.8342 20.6247 25.9904 17.3304 30.8714 15.6807L29.5907 11.8913C23.8312 13.8379 18.927 17.7251 15.7168 22.888L19.1138 25.0001ZM18.9104 25.3272L19.1138 25.0001L15.7168 22.888L15.5134 23.2151L18.9104 25.3272ZM16.0814 40.5024C15.0875 35.2682 16.0972 29.8517 18.9104 25.3272L15.5134 23.2151C12.1704 28.5918 10.9705 35.0286 12.1516 41.2486L16.0814 40.5024ZM23.2863 52.8018C19.5455 49.6599 16.9957 45.3175 16.0814 40.5024L12.1516 41.2486C13.2382 46.9707 16.2682 52.131 20.7136 55.8648L23.2863 52.8018ZM24 62V54.3333H20V62H24ZM28 66C25.7908 66 24 64.2092 24 62H20C20 66.4183 23.5817 70 28 70V66ZM32 62C32 64.2092 30.2091 66 28 66V70C32.4182 70 36 66.4183 36 62H32ZM40 66C37.7908 66 36 64.2092 36 62H32C32 66.4183 35.5817 70 40 70V66ZM44 62C44 64.2092 42.2091 66 40 66V70C44.4182 70 48 66.4183 48 62H44ZM52 66C49.7908 66 48 64.2092 48 62H44C44 66.4183 47.5817 70 52 70V66ZM56 62C56 64.2092 54.2091 66 52 66V70C56.4182 70 60 66.4183 60 62H56ZM56 54.3333V62H60V54.3333H56ZM63.9185 40.5024C63.0042 45.3175 60.4544 49.6599 56.7136 52.8018L59.2863 55.8648C63.7317 52.131 66.7617 46.9707 67.8483 41.2486L63.9185 40.5024ZM61.0895 25.3272C63.9027 29.8517 64.9124 35.2682 63.9185 40.5024L67.8483 41.2486C69.0294 35.0286 67.8295 28.5918 64.4865 23.2151L61.0895 25.3272ZM60.8862 25.0001L61.0895 25.3272L64.4865 23.2151L64.2831 22.888L60.8862 25.0001ZM49.1285 15.6807C54.0095 17.3304 58.1657 20.6247 60.8862 25.0001L64.2831 22.888C61.073 17.7251 56.1687 13.8379 50.4092 11.8913L49.1285 15.6807ZM48.0923 15.3305L49.1285 15.6807L50.4092 11.8913L49.373 11.5411L48.0923 15.3305Z" fill="currentColor" />
  <path d="M26.4019 30.5C28.0096 29.5718 29.9904 29.5718 31.5981 30.5C33.2058 31.4282 34.1962 33.1436 34.1962 35C34.1962 36.8564 33.2058 38.5718 31.5981 39.5C29.9904 40.4282 28.0096 40.4282 26.4019 39.5C24.7942 38.5718 23.8038 36.8564 23.8038 35C23.8038 33.1436 24.7942 31.4282 26.4019 30.5Z" fill="currentColor" fill-opacity="0.25" stroke="currentColor" stroke-width="4" stroke-linecap="round" stroke-linejoin="round" />
  <path d="M48.4019 30.5C50.0096 29.5718 51.9904 29.5718 53.5981 30.5C55.2058 31.4282 56.1962 33.1436 56.1962 35C56.1962 36.8564 55.2058 38.5718 53.5981 39.5C51.9904 40.4282 50.0096 40.4282 48.4019 39.5C46.7942 38.5718 45.8038 36.8564 45.8038 35C45.8038 33.1436 46.7942 31.4282 48.4019 30.5Z" fill="currentColor" fill-opacity="0.25" stroke="currentColor" stroke-width="4" stroke-linecap="round" stroke-linejoin="round" />
  <path d="M40 41L45.1962 50H34.8038L40 41Z" fill="currentColor" fill-opacity="0.25" stroke="currentColor" stroke-width="4" stroke-linecap="round" stroke-linejoin="round" />
</svg>