<svg viewBox="0 0 80 80" fill="none">
  <path fill-rule="evenodd" clip-rule="evenodd" d="M64.4342 19.5938C63.344 15.6001 60.6954 12.2051 57.0644 10.1474L56.9366 10.0749C53.3056 8.01715 48.986 7.46306 44.9174 8.53318C40.7991 9.61635 37.2774 12.2743 35.1356 15.9156L34.3501 17.2511C33.686 16.9204 32.9854 16.654 32.2576 16.459C29.4348 15.7025 26.4315 16.0804 23.9092 17.5099C21.3869 18.9393 19.5518 21.3034 18.8078 24.0813C18.7097 24.4475 18.6316 24.817 18.5734 25.1882C15.9959 25.5671 13.5867 26.7533 11.7056 28.5998L11.6235 28.6804C9.30573 30.9555 8 34.0669 8 37.3146C8 40.5624 9.30573 43.6737 11.6235 45.9488L11.7056 46.0295C14.0191 48.3004 17.1314 49.5726 20.3731 49.5726H23.2129L23.2203 49.5727H33.3886L40.0003 36L46.6117 49.5727H56.7813C56.7869 49.5727 56.7925 49.5725 56.798 49.5723C56.8024 49.5721 56.8067 49.5719 56.8111 49.5715H59.6269C62.8686 49.5715 65.9809 48.2993 68.2944 46.0284L68.3765 45.9478C70.6943 43.6727 72 40.5613 72 37.3136C72 34.0658 70.6943 30.9545 68.3765 28.6794L68.2944 28.5987C67.261 27.5844 66.0682 26.7693 64.7757 26.1778C65.132 24.0011 65.0248 21.7573 64.4342 19.5938Z" fill="currentColor" fill-opacity="0.15" />
  <path d="M57.0644 10.1474L56.0783 11.8873L56.0783 11.8874L57.0644 10.1474ZM64.4342 19.5938L66.3636 19.0671L64.4342 19.5938ZM56.9366 10.0749L57.9227 8.33493L57.9227 8.33492L56.9366 10.0749ZM44.9174 8.53318L45.4261 10.4674L44.9174 8.53318ZM35.1356 15.9156L33.4117 14.9016V14.9016L35.1356 15.9156ZM34.3501 17.2511L33.4584 19.0414C34.3988 19.5098 35.5413 19.1707 36.074 18.2651L34.3501 17.2511ZM32.2576 16.459L31.7399 18.3908L32.2576 16.459ZM23.9092 17.5099L22.9231 15.7699L23.9092 17.5099ZM18.8078 24.0813L16.8759 23.5639L16.8759 23.5639L18.8078 24.0813ZM18.5734 25.1882L18.8643 27.167C19.7307 27.0396 20.4134 26.3634 20.5492 25.4983L18.5734 25.1882ZM11.7056 28.5998L10.3046 27.1725L10.3046 27.1725L11.7056 28.5998ZM11.6235 28.6804L13.0245 30.1077L13.0245 30.1077L11.6235 28.6804ZM11.6235 45.9488L13.0245 44.5215L13.0245 44.5215L11.6235 45.9488ZM11.7056 46.0295L10.3046 47.4568L10.3046 47.4568L11.7056 46.0295ZM23.2129 49.5726L23.2315 47.5727C23.2253 47.5726 23.2191 47.5726 23.2129 47.5726V49.5726ZM23.2203 49.5727L23.2018 51.5726C23.2079 51.5726 23.2141 51.5727 23.2203 51.5727V49.5727ZM33.3886 49.5727V51.5727C34.1536 51.5727 34.8516 51.1363 35.1866 50.4485L33.3886 49.5727ZM40.0003 36L41.7983 35.1242C41.4633 34.4364 40.7653 34 40.0003 34C39.2353 34 38.5373 34.4364 38.2023 35.1241L40.0003 36ZM46.6117 49.5727L44.8136 50.4485C45.1487 51.1363 45.8467 51.5727 46.6117 51.5727V49.5727ZM56.798 49.5723L56.7141 47.5741L56.7129 47.5741L56.798 49.5723ZM56.8111 49.5715V47.5715C56.7611 47.5715 56.7112 47.5734 56.6614 47.5771L56.8111 49.5715ZM68.2944 46.0284L69.6954 47.4557L69.6954 47.4557L68.2944 46.0284ZM68.3765 45.9478L66.9755 44.5205L66.9755 44.5205L68.3765 45.9478ZM68.3765 28.6794L69.7776 27.2521L68.3765 28.6794ZM68.2944 28.5987L66.8933 30.026L68.2944 28.5987ZM64.7757 26.1778L62.802 25.8547C62.6564 26.7443 63.1238 27.6213 63.9435 27.9964L64.7757 26.1778ZM56.0783 11.8874C59.25 13.6849 61.5562 16.6454 62.5048 20.1205L66.3636 19.0671C65.1318 14.5548 62.1407 10.7254 58.0505 8.40735L56.0783 11.8874ZM55.9504 11.8149L56.0783 11.8873L58.0505 8.40736L57.9227 8.33493L55.9504 11.8149ZM45.4261 10.4674C48.9947 9.52879 52.7774 10.0167 55.9505 11.8149L57.9227 8.33492C53.8337 6.01763 48.9773 5.39734 44.4086 6.59896L45.4261 10.4674ZM36.8595 16.9296C38.7312 13.7474 41.8139 11.4175 45.4261 10.4674L44.4086 6.59896C39.7843 7.81524 35.8235 10.8011 33.4117 14.9016L36.8595 16.9296ZM36.074 18.2651L36.8595 16.9296L33.4117 14.9016L32.6262 16.2372L36.074 18.2651ZM31.7399 18.3908C32.3379 18.551 32.9132 18.7698 33.4584 19.0414L35.2417 15.4609C34.4587 15.0709 33.633 14.757 32.7753 14.5271L31.7399 18.3908ZM24.8953 19.2499C26.9567 18.0816 29.4195 17.7689 31.7399 18.3908L32.7753 14.5271C29.4501 13.636 25.9062 14.0793 22.9231 15.7699L24.8953 19.2499ZM20.7397 24.5987C21.3438 22.3433 22.8352 20.4174 24.8953 19.2499L22.9231 15.7699C19.9386 17.4612 17.7598 20.2635 16.8759 23.5639L20.7397 24.5987ZM20.5492 25.4983C20.5965 25.1966 20.66 24.8964 20.7397 24.5987L16.8759 23.5639C16.7594 23.9986 16.6667 24.4374 16.5976 24.8782L20.5492 25.4983ZM13.1067 30.0271C14.6836 28.4791 16.7034 27.4846 18.8643 27.167L18.2825 23.2095C15.2884 23.6496 12.4898 25.0275 10.3046 27.1725L13.1067 30.0271ZM13.0245 30.1077L13.1067 30.0271L10.3046 27.1725L10.2224 27.2532L13.0245 30.1077ZM10 37.3146C10 34.6038 11.0899 32.0067 13.0245 30.1077L10.2224 27.2532C7.52158 29.9043 6 33.53 6 37.3146H10ZM13.0245 44.5215C11.0899 42.6225 10 40.0255 10 37.3146H6C6 41.0993 7.52158 44.725 10.2224 47.3761L13.0245 44.5215ZM13.1067 44.6022L13.0245 44.5215L10.2224 47.3761L10.3046 47.4568L13.1067 44.6022ZM20.3731 47.5726C17.6554 47.5726 15.0462 46.506 13.1067 44.6022L10.3046 47.4568C12.992 50.0947 16.6074 51.5726 20.3731 51.5726V47.5726ZM23.2129 47.5726H20.3731V51.5726H23.2129V47.5726ZM23.2389 47.5728L23.2315 47.5727L23.1944 51.5725L23.2018 51.5726L23.2389 47.5728ZM33.3886 47.5727H23.2203V51.5727H33.3886V47.5727ZM35.1866 50.4485L41.7983 36.8759L38.2023 35.1241L31.5906 48.6968L35.1866 50.4485ZM38.2023 36.8758L44.8136 50.4485L48.4097 48.6968L41.7983 35.1242L38.2023 36.8758ZM56.7813 47.5727H46.6117V51.5727H56.7813V47.5727ZM56.7129 47.5741C56.736 47.5731 56.7588 47.5727 56.7813 47.5727V51.5727C56.815 51.5727 56.849 51.572 56.8832 51.5705L56.7129 47.5741ZM56.6614 47.5771C56.6785 47.5759 56.6961 47.5748 56.7141 47.5741L56.882 51.5705C56.9087 51.5694 56.9349 51.5679 56.9607 51.5659L56.6614 47.5771ZM59.6269 47.5715H56.8111V51.5715H59.6269V47.5715ZM66.8933 44.6011C64.9538 46.505 62.3446 47.5715 59.6269 47.5715V51.5715C63.3926 51.5715 67.008 50.0937 69.6954 47.4557L66.8933 44.6011ZM66.9755 44.5205L66.8933 44.6012L69.6954 47.4557L69.7776 47.375L66.9755 44.5205ZM70 37.3136C70 40.0245 68.9101 42.6215 66.9755 44.5205L69.7775 47.3751C72.4784 44.7239 74 41.0982 74 37.3136H70ZM66.9755 30.1067C68.9101 32.0057 70 34.6027 70 37.3136H74C74 33.529 72.4784 29.9033 69.7776 27.2521L66.9755 30.1067ZM66.8933 30.026L66.9755 30.1067L69.7776 27.2521L69.6954 27.1715L66.8933 30.026ZM63.9435 27.9964C65.0271 28.4923 66.027 29.1756 66.8933 30.026L69.6954 27.1715C68.495 25.9932 67.1093 25.0462 65.6079 24.3592L63.9435 27.9964ZM62.5048 20.1205C63.0188 22.0037 63.1125 23.9576 62.802 25.8547L66.7494 26.5009C67.1515 24.0447 67.0307 21.511 66.3636 19.0671L62.5048 20.1205Z" fill="currentColor" />
  <path d="M40.0003 36L52 60.6345L40.0003 72L28 60.6345L40.0003 36Z" fill="currentColor" fill-opacity="0.15" stroke="currentColor" stroke-width="4" stroke-linecap="square" stroke-linejoin="round" />
</svg>