<svg viewBox="0 0 80 80" fill="none">
  <path d="M28 25C28 23.8954 27.1046 23 26 23C24.8954 23 24 23.8954 24 25L28 25ZM24 64C24 65.1046 24.8954 66 26 66C27.1046 66 28 65.1046 28 64H24ZM24 25L24 64H28L28 25L24 25Z" fill="currentColor" />
  <path d="M31.818 25L20.182 25C19.0078 25 18.4197 23.5803 19.25 22.75L24.5858 17.4142C25.3668 16.6332 26.6332 16.6332 27.4142 17.4142L32.75 22.75C33.5803 23.5803 32.9923 25 31.818 25Z" fill="currentColor" fill-opacity="0.15" stroke="currentColor" stroke-width="4" stroke-linecap="round" stroke-linejoin="round" />
  <path d="M47.9999 27.4998C46.8954 27.4998 45.9999 28.3952 45.9999 29.4998C45.9999 30.6043 46.8954 31.4998 47.9999 31.4998V27.4998ZM59.9999 31.4998C61.1045 31.4998 61.9999 30.6043 61.9999 29.4998C61.9999 28.3952 61.1045 27.4998 59.9999 27.4998V31.4998ZM53.6592 16.2228L51.8271 15.4207L51.8271 15.4207L53.6592 16.2228ZM43.1679 35.1978C42.7249 36.2097 43.186 37.3891 44.1978 37.8321C45.2097 38.2751 46.3891 37.814 46.8321 36.8022L43.1679 35.1978ZM54.3408 16.2228L56.1729 15.4207V15.4207L54.3408 16.2228ZM61.1679 36.8022C61.6109 37.814 62.7903 38.2751 63.8022 37.8321C64.814 37.3891 65.2751 36.2097 64.8321 35.1978L61.1679 36.8022ZM47.9999 31.4998H59.9999V27.4998H47.9999V31.4998ZM51.8271 15.4207L43.1679 35.1978L46.8321 36.8022L55.4913 17.025L51.8271 15.4207ZM52.5087 17.025L61.1679 36.8022L64.8321 35.1978L56.1729 15.4207L52.5087 17.025ZM54 18C53.3534 18 52.7681 17.6173 52.5087 17.025L56.1729 15.4207C55.795 14.5576 54.9422 14 54 14V18ZM55.4913 17.025C55.2319 17.6173 54.6466 18 54 18V14C53.0578 14 52.205 14.5576 51.8271 15.4207L55.4913 17.025Z" fill="currentColor" />
  <path d="M46.5333 42C45.4288 42 44.5333 42.8954 44.5333 44C44.5333 45.1046 45.4288 46 46.5333 46V42ZM61.4667 44H63.4667C63.4667 42.8954 62.5712 42 61.4667 42V44ZM62 66C63.1046 66 64 65.1046 64 64C64 62.8954 63.1046 62 62 62V66ZM46 64H44C44 65.1046 44.8954 66 46 66V64ZM61.4667 44.4167L63.0231 45.6726C63.3101 45.317 63.4667 44.8737 63.4667 44.4167H61.4667ZM46 63.5833L44.4436 62.3274C44.1565 62.683 44 63.1263 44 63.5833H46ZM46.5333 46H61.4667V42H46.5333V46ZM62 62H46V66H62V62ZM59.4667 44V44.4167H63.4667V44H59.4667ZM59.9102 43.1607L44.4436 62.3274L47.5564 64.8393L63.0231 45.6726L59.9102 43.1607ZM44 63.5833V64H48V63.5833H44Z" fill="currentColor" />
</svg>