<svg viewBox="0 0 80 80" fill="none">
  <path d="M25.818 24.9999H14.182C13.0078 24.9999 12.4197 23.5802 13.25 22.7499L18.5858 17.4142C19.3668 16.6331 20.6332 16.6331 21.4142 17.4142L26.75 22.7499C27.5803 23.5802 26.9923 24.9999 25.818 24.9999Z" fill="currentColor" fill-opacity="0.25" />
  <path d="M20 24.9999L20 63.9999M37 21.9999H45M37 33.9999H53M37 45.9999H61M37 57.9999H69M14.182 24.9999H25.818C26.9923 24.9999 27.5803 23.5802 26.75 22.7499L21.4142 17.4142C20.6332 16.6331 19.3668 16.6331 18.5858 17.4142L13.25 22.7499C12.4197 23.5802 13.0078 24.9999 14.182 24.9999Z" stroke="currentColor" stroke-width="4" stroke-linecap="round" stroke-linejoin="round" />
</svg>