<svg viewBox="0 0 80 80" fill="none">
  <path d="M31.818 25H20.182C19.0078 25 18.4197 23.5803 19.25 22.75L24.5858 17.4142C25.3668 16.6332 26.6332 16.6332 27.4142 17.4142L32.75 22.75C33.5803 23.5803 32.9923 25 31.818 25Z" fill="currentColor" fill-opacity="0.25" />
  <path d="M26 25L26 64M47.9999 29.4998H59.9999M45 36L53.6592 16.2228C53.7185 16.0875 53.8522 16 54 16C54.1478 16 54.2815 16.0875 54.3408 16.2228L63 36M46.5333 44H61.4667V44.4167L46 63.5833V64H62M20.182 25H31.818C32.9923 25 33.5803 23.5803 32.75 22.75L27.4142 17.4142C26.6332 16.6332 25.3668 16.6332 24.5858 17.4142L19.25 22.75C18.4197 23.5803 19.0078 25 20.182 25Z" stroke="currentColor" stroke-width="4" stroke-linecap="round" stroke-linejoin="round" />
</svg>