<svg viewBox="0 0 80 80" fill="none">
  <rect x="19" y="10" width="42" height="60" rx="4" fill="currentColor" fill-opacity="0.15" stroke="currentColor" stroke-width="4" stroke-linecap="square" stroke-linejoin="round" />
  <path d="M33.0727 38L34.0727 39.732L33.0727 38ZM46.9291 38L47.9291 36.2679V36.2679L46.9291 38ZM33.0727 62L32.0727 63.732H32.0727L33.0727 62ZM46.9291 62L47.9291 63.732V63.732L46.9291 62ZM38.2689 53L37.2689 54.732L37.2689 54.732L38.2689 53ZM41.733 53L42.733 54.732L42.733 54.732L41.733 53ZM34.0727 39.732C37.7411 37.6141 42.2608 37.6141 45.9291 39.732L47.9291 36.2679C43.0232 33.4354 36.9787 33.4354 32.0727 36.2679L34.0727 39.732ZM28.1445 50C28.1445 45.7641 30.4043 41.85 34.0727 39.732L32.0727 36.2679C27.1667 39.1004 24.1445 44.335 24.1445 50H28.1445ZM34.0727 60.2679C30.4043 58.15 28.1445 54.2358 28.1445 50H24.1445C24.1445 55.6649 27.1667 60.8995 32.0727 63.732L34.0727 60.2679ZM45.9291 60.2679C42.2608 62.3859 37.7411 62.3859 34.0727 60.2679L32.0727 63.732C36.9787 66.5645 43.0232 66.5645 47.9291 63.732L45.9291 60.2679ZM51.8573 50C51.8573 54.2358 49.5975 58.15 45.9291 60.2679L47.9291 63.732C52.8351 60.8995 55.8573 55.6649 55.8573 50L51.8573 50ZM45.9291 39.732C49.5975 41.85 51.8573 45.7641 51.8573 50L55.8573 50C55.8573 44.335 52.8351 39.1004 47.9291 36.2679L45.9291 39.732ZM39.2689 48.732C39.7219 48.4705 40.28 48.4705 40.733 48.732L42.733 45.2679C41.0424 44.2918 38.9595 44.2918 37.2689 45.2679L39.2689 48.732ZM38.5368 50C38.5368 49.4769 38.8159 48.9935 39.2689 48.732L37.2689 45.2679C35.5783 46.244 34.5368 48.0478 34.5368 50H38.5368ZM39.2689 51.2679C38.8159 51.0064 38.5368 50.523 38.5368 50H34.5368C34.5368 51.9521 35.5783 53.7559 37.2689 54.732L39.2689 51.2679ZM40.733 51.2679C40.28 51.5294 39.7219 51.5294 39.2689 51.2679L37.2689 54.732C38.9595 55.7081 41.0424 55.7081 42.733 54.732L40.733 51.2679ZM41.465 50C41.465 50.523 41.186 51.0064 40.733 51.2679L42.733 54.732C44.4236 53.7559 45.465 51.9521 45.465 50H41.465ZM40.733 48.732C41.186 48.9935 41.465 49.4769 41.465 50H45.465C45.465 48.0478 44.4236 46.244 42.733 45.2679L40.733 48.732Z" fill="currentColor" />
  <path d="M36.5359 17C38.6795 15.7624 41.3205 15.7624 43.4641 17V17C45.6077 18.2376 46.9282 20.5248 46.9282 23V23C46.9282 25.4752 45.6077 27.7624 43.4641 29V29C41.3205 30.2376 38.6795 30.2376 36.5359 29V29C34.3923 27.7624 33.0718 25.4752 33.0718 23V23C33.0718 20.5248 34.3923 18.2376 36.5359 17V17Z" stroke="currentColor" stroke-width="4" stroke-linecap="square" stroke-linejoin="round" />
</svg>