<svg viewBox="0 0 80 80" fill="none">
  <path fill-rule="evenodd" clip-rule="evenodd" d="M55.519 18.9637C54.0527 20.4187 54.0481 22.7883 55.5088 24.249L55.5707 24.3109C57.0313 25.7715 59.4009 25.7669 60.8559 24.3006C62.303 22.8423 62.2985 20.4885 60.8458 19.0358L60.7839 18.9739C59.3312 17.5212 56.9773 17.5166 55.519 18.9637ZM69.4745 39.8352C69.4745 37.7976 67.8268 36.1435 65.7892 36.1356C63.7403 36.1277 62.0752 37.7864 62.0752 39.8352V39.9832C62.0752 42.032 63.7403 43.6907 65.7892 43.6828C67.8268 43.6749 69.4745 42.0209 69.4745 39.9832V39.8352ZM60.8915 60.7392C62.3195 59.3112 62.324 56.9972 60.9014 55.5637C59.4711 54.1222 57.1417 54.1177 55.7058 55.5536L55.5548 55.7046C54.1189 57.1405 54.1234 59.4699 55.5648 60.9002C56.9984 62.3228 59.3124 62.3183 60.7404 60.8903L60.8915 60.7392ZM40.0331 69.4745C42.0438 69.4745 43.676 67.8486 43.6838 65.8378C43.6916 63.8161 42.0548 62.1729 40.0331 62.1729H39.7878C37.766 62.1729 36.1292 63.8161 36.137 65.8378C36.1448 67.8486 37.777 69.4745 39.7878 69.4745L40.0331 69.4745ZM19.0844 60.8944C20.5102 62.3202 22.8205 62.3247 24.2518 60.9044C25.6909 59.4763 25.6954 57.1506 24.2618 55.717L24.1026 55.5578C22.669 54.1242 20.3433 54.1287 18.9152 55.5678C17.4949 56.9991 17.4994 59.3094 18.9252 60.7352L19.0844 60.8944ZM10.3462 39.9915C10.3462 42.0246 11.9902 43.675 14.0233 43.6829C16.0676 43.6908 17.729 42.0357 17.729 39.9915V39.827C17.729 37.7827 16.0676 36.1277 14.0233 36.1356C11.9902 36.1434 10.3462 37.7938 10.3462 39.827V39.9915ZM18.9709 19.0398C17.5205 20.4902 17.5159 22.8404 18.9607 24.2965C20.4135 25.7605 22.7794 25.765 24.2378 24.3066L24.3078 24.2366C25.7662 22.7782 25.7617 20.4123 24.2977 18.9595C22.8416 17.5147 20.4914 17.5193 19.041 18.9697L18.9709 19.0398ZM39.9104 10.3462C37.8504 10.3462 36.1445 12.012 36.1366 14.072C36.1286 16.1433 37.8391 17.8267 39.9104 17.8267C41.9817 17.8267 43.6922 16.1433 43.6842 14.072C43.6763 12.012 41.9705 10.3462 39.9104 10.3462Z" fill="url(#paint0_angular)" />
  <defs>
    <radialGradient id="paint0_angular" cx="0" cy="0" r="1" gradientUnits="userSpaceOnUse" gradientTransform="translate(43.0545 42.1525) rotate(-88.471) scale(30.3132 30.2248)">
      <stop stop-opacity="0.5" />
      <stop offset="1" stop-opacity="0" />
    </radialGradient>
  </defs>
</svg>