<svg viewBox="0 0 80 80" fill="none">
  <path fill-rule="evenodd" clip-rule="evenodd" d="M43.3032 15.2165C47.4613 15.7658 51.2971 17.337 54.55 19.6695L58.8576 15.395C54.449 12.0107 49.1048 9.78461 43.2799 9.17163L43.3032 15.2165ZM35.7472 15.3598L35.7706 9.28573C30.0807 10.0615 24.8819 12.3813 20.6104 15.809L24.9036 20.0691C28.0262 17.7007 31.7224 16.0492 35.7472 15.3598ZM19.6361 25.4913L15.3604 21.1824C12.0793 25.4717 9.89295 30.643 9.21875 36.2789L15.2763 36.2555C15.8726 32.2849 17.4028 28.6199 19.6361 25.4913ZM15.2871 43.8155L9.22735 43.7921C9.91352 49.4179 12.1068 54.5784 15.3911 58.8576L19.6657 54.5499C17.4297 51.431 15.8936 47.7763 15.2871 43.8155ZM24.9443 59.9615L20.6501 64.2227C24.9141 67.6329 30.0982 69.9407 35.7704 70.7141L35.747 64.64C31.7397 63.9536 28.0582 62.3135 24.9443 59.9615ZM43.3034 64.7833L43.2801 70.8282C49.0871 70.2171 54.4164 68.0027 58.8172 64.6358L54.5084 60.3602C51.2645 62.6762 47.4437 64.2364 43.3034 64.7833ZM59.9271 55.0959L64.1872 59.3891C67.7036 55.0077 70.0543 49.6506 70.7686 43.7883L64.709 43.8118C64.0671 48.0075 62.3821 51.8599 59.9271 55.0959ZM64.7197 36.2593L70.7771 36.2827C70.0754 30.4102 67.7319 25.042 64.2187 20.6501L59.9576 24.9443C62.4099 28.1903 64.0887 32.0534 64.7197 36.2593Z" fill="currentColor" fill-opacity="0.15" />
  <path fill-rule="evenodd" clip-rule="evenodd" d="M64.2185 20.6568C66.0305 22.9261 67.5182 25.4433 68.6339 28.1367C69.7153 30.7475 70.4324 33.4885 70.7699 36.2825L64.7262 36.2591C64.0952 32.0532 62.4164 28.1902 59.9641 24.9442L64.2185 20.6568ZM43.2864 9.17529C46.2273 9.48945 49.1139 10.2235 51.8568 11.3597C54.3624 12.3975 56.7155 13.7574 58.8583 15.4007L54.5565 19.6694C51.3036 17.3369 47.4678 15.7657 43.3097 15.2164L43.2864 9.17529Z" fill="currentColor" />
</svg>