<svg viewBox="0 0 80 80" fill="none">
  <path fill-rule="evenodd" clip-rule="evenodd" d="M55.519 18.9637C54.0527 20.4187 54.0481 22.7883 55.5088 24.249L55.5707 24.3109C57.0313 25.7715 59.4009 25.7669 60.8559 24.3006C62.303 22.8423 62.2985 20.4885 60.8458 19.0358L60.7839 18.9739C59.3312 17.5212 56.9773 17.5166 55.519 18.9637ZM69.4745 39.8352C69.4745 37.7976 67.8268 36.1435 65.7892 36.1356C63.7403 36.1277 62.0752 37.7864 62.0752 39.8352V39.9832C62.0752 42.032 63.7403 43.6907 65.7892 43.6828C67.8268 43.6749 69.4745 42.0209 69.4745 39.9832V39.8352ZM60.8915 60.7392C62.3195 59.3112 62.324 56.9972 60.9014 55.5637C59.4711 54.1222 57.1417 54.1177 55.7058 55.5536L55.5548 55.7046C54.1189 57.1405 54.1234 59.4699 55.5648 60.9002C56.9984 62.3228 59.3124 62.3183 60.7404 60.8903L60.8915 60.7392ZM40.0331 69.4745C42.0438 69.4745 43.676 67.8486 43.6838 65.8378C43.6916 63.8161 42.0548 62.1729 40.0331 62.1729H39.7878C37.766 62.1729 36.1292 63.8161 36.137 65.8378C36.1448 67.8486 37.777 69.4745 39.7878 69.4745L40.0331 69.4745ZM19.0844 60.8944C20.5102 62.3202 22.8205 62.3247 24.2518 60.9044C25.6909 59.4763 25.6954 57.1506 24.2618 55.717L24.1026 55.5578C22.669 54.1242 20.3433 54.1287 18.9152 55.5678C17.4949 56.9991 17.4994 59.3094 18.9252 60.7352L19.0844 60.8944ZM10.3462 39.9915C10.3462 42.0246 11.9902 43.675 14.0233 43.6829C16.0676 43.6908 17.729 42.0357 17.729 39.9915V39.827C17.729 37.7827 16.0676 36.1277 14.0233 36.1356C11.9902 36.1434 10.3462 37.7938 10.3462 39.827V39.9915ZM18.9709 19.0398C17.5205 20.4902 17.5159 22.8404 18.9607 24.2965C20.4135 25.7605 22.7794 25.765 24.2378 24.3066L24.3078 24.2366C25.7662 22.7782 25.7617 20.4123 24.2977 18.9595C22.8416 17.5147 20.4914 17.5193 19.041 18.9697L18.9709 19.0398ZM39.9104 10.3462C37.8504 10.3462 36.1445 12.012 36.1366 14.072C36.1286 16.1433 37.8391 17.8267 39.9104 17.8267C41.9817 17.8267 43.6922 16.1433 43.6842 14.072C43.6763 12.012 41.9705 10.3462 39.9104 10.3462Z" fill="currentColor" fill-opacity="0.15" />
  <path d="M18.9252 60.7352L17.511 62.1494L18.9252 60.7352ZM24.1026 55.5578L22.6884 56.972L24.1026 55.5578ZM19.0844 60.8944L20.4986 59.4802L19.0844 60.8944ZM40.0331 69.4745L40.0331 71.4745L40.0331 69.4745ZM60.8458 19.0358L62.26 17.6215L60.8458 19.0358ZM56.9849 22.8966L56.923 22.8348L54.0946 25.6632L54.1564 25.7251L56.9849 22.8966ZM62.26 17.6215L62.1981 17.5597L59.3697 20.3881L59.4315 20.45L62.26 17.6215ZM64.0752 39.9832V39.8352H60.0752V39.9832H64.0752ZM71.4745 39.9832V39.8352H67.4745V39.9832H71.4745ZM56.969 57.1188L57.12 56.9678L54.2916 54.1394L54.1406 54.2904L56.969 57.1188ZM62.1546 62.3045L62.3057 62.1534L59.4772 59.325L59.3262 59.476L62.1546 62.3045ZM39.7878 64.1729H40.0331V60.1729H39.7878V64.1729ZM39.7878 71.4745L40.0331 71.4745L40.0331 67.4745L39.7878 67.4745L39.7878 71.4745ZM22.6884 56.972L22.8476 57.1312L25.676 54.3028L25.5168 54.1436L22.6884 56.972ZM17.511 62.1494L17.6702 62.3086L20.4986 59.4802L20.3394 59.321L17.511 62.1494ZM15.729 39.827V39.9915H19.729V39.827H15.729ZM8.34619 39.827V39.9915H12.3462V39.827H8.34619ZM22.8936 22.8224L22.8236 22.8924L25.652 25.7209L25.7221 25.6508L22.8936 22.8224ZM17.6267 17.5555L17.5567 17.6255L20.3851 20.454L20.4552 20.3839L17.6267 17.5555ZM45.6842 14.0643C45.6719 10.8796 43.0487 8.34619 39.9104 8.34619V12.3462C40.8922 12.3462 41.6806 13.1444 41.6843 14.0797L45.6842 14.0643ZM39.9104 19.8267C43.066 19.8267 45.6966 17.2664 45.6842 14.0643L41.6843 14.0797C41.6879 15.0202 40.8975 15.8267 39.9104 15.8267V19.8267ZM38.1366 14.0797C38.1402 13.1444 38.9286 12.3462 39.9104 12.3462V8.34619C36.7721 8.34619 34.1489 10.8796 34.1366 14.0643L38.1366 14.0797ZM34.1366 14.0643C34.1242 17.2664 36.7549 19.8267 39.9104 19.8267V15.8267C38.9233 15.8267 38.1329 15.0202 38.1366 14.0797L34.1366 14.0643ZM25.7064 17.5399C23.4684 15.3191 19.8561 15.3261 17.6267 17.5555L20.4552 20.3839C21.1267 19.7124 22.2148 19.7103 22.8889 20.3792L25.7064 17.5399ZM25.7221 25.6508C27.9636 23.4092 27.9566 19.7728 25.7064 17.5399L22.8889 20.3792C23.5667 21.0518 23.5688 22.1472 22.8936 22.8224L25.7221 25.6508ZM20.3804 22.8877C19.7115 22.2136 19.7136 21.1255 20.3851 20.454L17.5567 17.6255C15.3273 19.8549 15.3203 23.4672 17.5411 25.7052L20.3804 22.8877ZM17.5411 25.7052C19.774 27.9554 23.4104 27.9624 25.652 25.7209L22.8236 22.8924C22.1484 23.5676 21.053 23.5655 20.3804 22.8877L17.5411 25.7052ZM14.0156 34.1356C10.8809 34.1477 8.34619 36.6923 8.34619 39.827H12.3462C12.3462 38.8954 13.0995 38.1392 14.0311 38.1356L14.0156 34.1356ZM19.729 39.827C19.729 36.6751 17.1675 34.1234 14.0156 34.1356L14.0311 38.1356C14.9678 38.1319 15.729 38.8903 15.729 39.827H19.729ZM14.0311 41.6829C13.0995 41.6793 12.3462 40.9231 12.3462 39.9915H8.34619C8.34619 43.1262 10.8809 45.6707 14.0156 45.6828L14.0311 41.6829ZM14.0156 45.6828C17.1675 45.695 19.729 43.1433 19.729 39.9915H15.729C15.729 40.9282 14.9678 41.6865 14.0311 41.6829L14.0156 45.6828ZM17.4956 54.1591C15.2994 56.3723 15.3063 59.9447 17.511 62.1494L20.3394 59.321C19.6925 58.6741 19.6905 57.6259 20.3349 56.9766L17.4956 54.1591ZM25.5168 54.1436C23.3 51.9268 19.7038 51.9338 17.4956 54.1591L20.3349 56.9766C20.9828 56.3236 22.038 56.3216 22.6884 56.972L25.5168 54.1436ZM22.8431 59.4847C22.1937 60.1291 21.1455 60.1271 20.4986 59.4802L17.6702 62.3086C19.8749 64.5134 23.4473 64.5202 25.6605 62.3241L22.8431 59.4847ZM25.6605 62.3241C27.8859 60.1159 27.8928 56.5196 25.676 54.3028L22.8476 57.1312C23.498 57.7817 23.496 58.8368 22.8431 59.4847L25.6605 62.3241ZM34.137 65.8456C34.1491 68.9578 36.6755 71.4745 39.7878 71.4745L39.7878 67.4745C38.8786 67.4745 38.1405 66.7393 38.137 65.8301L34.137 65.8456ZM39.7878 60.1729C36.6584 60.1729 34.1249 62.7162 34.137 65.8456L38.137 65.8301C38.1335 64.9159 38.8736 64.1729 39.7878 64.1729V60.1729ZM41.6838 65.8301C41.6803 66.7393 40.9423 67.4745 40.0331 67.4745L40.0331 71.4745C43.1454 71.4745 45.6718 68.9578 45.6838 65.8456L41.6838 65.8301ZM45.6838 65.8456C45.6959 62.7162 43.1624 60.1729 40.0331 60.1729V64.1729C40.9473 64.1729 41.6874 64.9159 41.6838 65.8301L45.6838 65.8456ZM54.1561 62.3199C56.3716 64.5183 59.9477 64.5114 62.1546 62.3045L59.3262 59.476C58.6771 60.1252 57.6252 60.1272 56.9736 59.4806L54.1561 62.3199ZM54.1406 54.2904C51.9215 56.5095 51.9285 60.1094 54.1561 62.3199L56.9736 59.4806C56.3184 58.8304 56.3163 57.7715 56.969 57.1188L54.1406 54.2904ZM59.4818 56.9724C60.1284 57.624 60.1264 58.6759 59.4772 59.325L62.3057 62.1534C64.5126 59.9465 64.5195 56.3704 62.3211 54.1549L59.4818 56.9724ZM62.3211 54.1549C60.1106 51.9273 56.5107 51.9203 54.2916 54.1394L57.12 56.9678C57.7727 56.3151 58.8316 56.3172 59.4818 56.9724L62.3211 54.1549ZM65.7969 45.6828C68.9361 45.6707 71.4745 43.1224 71.4745 39.9832H67.4745C67.4745 40.9193 66.7175 41.6792 65.7814 41.6828L65.7969 45.6828ZM60.0752 39.9832C60.0752 43.1396 62.6405 45.695 65.7969 45.6828L65.7814 41.6828C64.8402 41.6865 64.0752 40.9245 64.0752 39.9832H60.0752ZM65.7814 38.1356C66.7175 38.1392 67.4745 38.8991 67.4745 39.8352H71.4745C71.4745 36.696 68.9361 34.1478 65.7969 34.1356L65.7814 38.1356ZM65.7969 34.1356C62.6405 34.1234 60.0752 36.6788 60.0752 39.8352H64.0752C64.0752 38.894 64.8402 38.132 65.7814 38.1356L65.7969 34.1356ZM62.1981 17.5597C59.9665 15.328 56.3505 15.321 54.1102 17.544L56.9277 20.3834C57.6041 19.7122 58.6959 19.7143 59.3697 20.3881L62.1981 17.5597ZM62.2756 25.7094C64.4986 23.4692 64.4916 19.8532 62.26 17.6215L59.4315 20.45C60.1053 21.1238 60.1074 22.2155 59.4363 22.8919L62.2756 25.7094ZM56.923 22.8348C56.2455 22.1573 56.2476 21.0582 56.9277 20.3834L54.1102 17.544C51.8577 19.7792 51.8507 23.4193 54.0946 25.6632L56.923 22.8348ZM54.1564 25.7251C56.4003 27.9689 60.0404 27.9619 62.2756 25.7094L59.4363 22.8919C58.7614 23.572 57.6624 23.5741 56.9849 22.8966L54.1564 25.7251Z" fill="currentColor" />
</svg>