<svg viewBox="0 0 80 80" fill="none">
  <path d="M38.1441 12.6217C38.8159 10.9488 41.1841 10.9488 41.8559 12.6217L47.8081 27.4439C48.0942 28.1563 48.7628 28.642 49.5288 28.694L65.4648 29.7745C67.2635 29.8965 67.9953 32.1489 66.6118 33.3047L54.3544 43.5459C53.7653 44.0381 53.5099 44.8241 53.6972 45.5686L57.5941 61.0586C58.0339 62.8069 56.1179 64.199 54.5911 63.2404L41.0634 54.7476C40.4132 54.3394 39.5868 54.3394 38.9366 54.7476L25.4089 63.2404C23.8821 64.199 21.9661 62.8069 22.4059 61.0586L26.3028 45.5686C26.4901 44.8241 26.2347 44.0381 25.6456 43.5459L13.3882 33.3047C12.0047 32.1489 12.7365 29.8965 14.5352 29.7745L30.4712 28.694C31.2372 28.642 31.9058 28.1563 32.1919 27.4439L38.1441 12.6217Z" fill="currentColor" fill-opacity="0.15" stroke="currentColor" stroke-linecap="square" />
</svg>