<svg viewBox="0 0 80 80" fill="none">
  <path fill-rule="evenodd" clip-rule="evenodd" d="M14 30.0592C14 29.5287 14.2107 29.02 14.5858 28.645L28.645 14.5858C29.02 14.2107 29.5287 14 30.0592 14L49.9408 14C50.4713 14 50.98 14.2107 51.355 14.5858L65.4142 28.645C65.7893 29.02 66 29.5287 66 30.0592V49.9414C66 50.4719 65.7893 50.9806 65.4142 51.3556L51.3556 65.4142C50.9806 65.7893 50.4719 66 49.9414 66H30.0586C29.5281 66 29.0194 65.7893 28.6444 65.4142L14.5858 51.3556C14.2107 50.9806 14 50.4719 14 49.9414L14 30.0592Z" fill="currentColor" fill-opacity="0.15" />
  <path d="M14.5858 51.3556L16 49.9414L14.5858 51.3556ZM28.6444 65.4142L27.2302 66.8284L28.6444 65.4142ZM65.4142 28.645L66.8284 27.2308L65.4142 28.645ZM51.355 14.5858L49.9408 16L51.355 14.5858ZM28.645 14.5858L30.0592 16L28.645 14.5858ZM14.5858 28.645L13.1716 27.2307L14.5858 28.645ZM16 30.0592L30.0592 16L27.2307 13.1716L13.1716 27.2307L16 30.0592ZM30.0592 16L49.9408 16V12L30.0592 12V16ZM49.9408 16L64 30.0592L66.8284 27.2308L52.7692 13.1716L49.9408 16ZM64 30.0592L64 49.9414H68V30.0592H64ZM64 49.9414L49.9414 64L52.7698 66.8284L66.8284 52.7698L64 49.9414ZM49.9414 64H30.0586V68H49.9414V64ZM30.0586 64L16 49.9414L13.1716 52.7698L27.2302 66.8284L30.0586 64ZM16 49.9414L16 30.0592H12L12 49.9414H16ZM16 49.9414H16H12C12 51.0023 12.4214 52.0197 13.1716 52.7698L16 49.9414ZM30.0586 64L27.2302 66.8284C27.9803 67.5786 28.9977 68 30.0586 68V64ZM49.9414 64V68C51.0023 68 52.0197 67.5786 52.7698 66.8284L49.9414 64ZM64 49.9414L66.8284 52.7698C67.5786 52.0197 68 51.0023 68 49.9414H64ZM64 30.0592V30.0592H68C68 28.9983 67.5786 27.9809 66.8284 27.2308L64 30.0592ZM49.9408 16L52.7692 13.1716C52.0191 12.4214 51.0017 12 49.9408 12V16ZM30.0592 16V16V12C28.9983 12 27.9809 12.4214 27.2307 13.1716L30.0592 16ZM13.1716 27.2307C12.4214 27.9809 12 28.9983 12 30.0592H16V30.0592L13.1716 27.2307Z" fill="currentColor" />
  <path fill-rule="evenodd" clip-rule="evenodd" d="M46.0568 29.6383C46.0568 28.3253 44.9924 27.261 43.6794 27.261H42.3513C41.7718 27.261 41.3021 26.7912 41.3021 26.2118C41.3021 25.6323 40.8324 25.1626 40.2529 25.1626H37.3319C36.7525 25.1626 36.2827 25.6323 36.2827 26.2118C36.2827 26.7912 35.813 27.261 35.2336 27.261H33.9054C32.5924 27.261 31.528 28.3253 31.528 29.6383V29.7706L31.528 39.5411C31.528 40.4354 30.3695 40.7882 29.871 40.0458L29.7817 39.9127C29.0091 38.7619 27.4499 38.4554 26.2991 39.228C25.1484 40.0006 24.8418 41.5598 25.6144 42.7105L33.0106 53.7269C33.4768 54.4212 34.2581 54.8377 35.0943 54.8377H46.7169C47.9382 54.8377 48.9822 53.9585 49.19 52.755L50.7749 43.5747C50.7993 43.4336 50.8115 43.2908 50.8115 43.1477V33.9674V33.835C50.8115 32.5221 49.7471 31.4577 48.4342 31.4577H47.7438C46.8121 31.4577 46.0568 30.7024 46.0568 29.7706V29.6383Z" fill="currentColor" fill-opacity="0.15" />
  <path d="M42.3513 29.261H43.6794V25.261H42.3513V29.261ZM37.3319 27.1626L40.2529 27.1626V23.1626H37.3319V27.1626ZM33.9054 29.261H35.2336V25.261H33.9054V29.261ZM33.528 29.7706V29.6383H29.528V29.7706H33.528ZM33.528 39.5411V29.7706H29.528L29.528 39.5411H33.528ZM28.1212 41.0275L28.2105 41.1606L31.5315 38.931L31.4422 38.7979L28.1212 41.0275ZM34.6711 52.6121L27.2749 41.5957L23.9539 43.8254L31.3502 54.8417L34.6711 52.6121ZM46.7169 52.8377H35.0943V56.8377H46.7169V52.8377ZM48.8041 43.2344L47.2192 52.4147L51.1609 53.0952L52.7458 43.9149L48.8041 43.2344ZM48.8115 33.9674V43.1477H52.8115V33.9674L48.8115 33.9674ZM48.8115 33.835V33.9674L52.8115 33.9674V33.835L48.8115 33.835ZM47.7438 33.4577H48.4342V29.4577H47.7438V33.4577ZM44.0568 29.6383V29.7706H48.0568V29.6383H44.0568ZM52.7458 43.9149C52.7895 43.6615 52.8115 43.4048 52.8115 43.1477H48.8115C48.8115 43.1767 48.809 43.2058 48.8041 43.2344L52.7458 43.9149ZM46.7169 56.8377C48.9115 56.8377 50.7875 55.2578 51.1609 53.0952L47.2192 52.4147C47.177 52.6591 46.9649 52.8377 46.7169 52.8377V56.8377ZM31.4422 38.7979C30.0539 36.7301 27.2521 36.1792 25.1843 37.5675L27.4139 40.8885C27.6477 40.7316 27.9643 40.7938 28.1212 41.0275L31.4422 38.7979ZM29.528 39.5411C29.528 38.4599 30.9288 38.0333 31.5315 38.931L28.2105 41.1606C29.8101 43.5431 33.528 42.4108 33.528 39.5411H29.528ZM33.9054 25.261C31.4878 25.261 29.528 27.2208 29.528 29.6383H33.528C33.528 29.4299 33.697 29.261 33.9054 29.261V25.261ZM34.2827 26.2118C34.2827 25.6867 34.7084 25.261 35.2336 25.261V29.261C36.9176 29.261 38.2827 27.8958 38.2827 26.2118L34.2827 26.2118ZM31.3502 54.8417C32.1877 56.0893 33.5917 56.8377 35.0943 56.8377V52.8377C34.9245 52.8377 34.7658 52.7531 34.6711 52.6121L31.3502 54.8417ZM37.3319 23.1626C35.6479 23.1626 34.2827 24.5278 34.2827 26.2118L38.2827 26.2118C38.2827 26.7369 37.857 27.1626 37.3319 27.1626V23.1626ZM43.3021 26.2118C43.3021 24.5278 41.9369 23.1626 40.2529 23.1626V27.1626C39.7278 27.1626 39.3021 26.7369 39.3021 26.2118H43.3021ZM47.7438 29.4577C47.9167 29.4577 48.0568 29.5978 48.0568 29.7706H44.0568C44.0568 31.8069 45.7076 33.4577 47.7438 33.4577V29.4577ZM43.6794 29.261C43.8879 29.261 44.0568 29.4299 44.0568 29.6383H48.0568C48.0568 27.2208 46.097 25.261 43.6794 25.261V29.261ZM25.1843 37.5675C23.1165 38.9558 22.5656 41.7575 23.9539 43.8254L27.2749 41.5957C27.118 41.362 27.1802 41.0454 27.4139 40.8885L25.1843 37.5675ZM52.8115 33.835C52.8115 31.4175 50.8517 29.4577 48.4342 29.4577V33.4577C48.6426 33.4577 48.8115 33.6266 48.8115 33.835L52.8115 33.835ZM42.3513 25.261C42.8764 25.261 43.3021 25.6867 43.3021 26.2118H39.3021C39.3021 27.8958 40.6673 29.261 42.3513 29.261V25.261Z" fill="currentColor" />
</svg>