<svg viewBox="0 0 80 80" fill="none">
  <path fill-rule="evenodd" clip-rule="evenodd" d="M14 30.0592C14 29.5287 14.2107 29.02 14.5858 28.645L28.645 14.5858C29.02 14.2107 29.5287 14 30.0592 14L49.9408 14C50.4713 14 50.98 14.2107 51.355 14.5858L65.4142 28.645C65.7893 29.02 66 29.5287 66 30.0592V49.9414C66 50.4719 65.7893 50.9806 65.4142 51.3556L51.3556 65.4142C50.9806 65.7893 50.4719 66 49.9414 66H30.0586C29.5281 66 29.0194 65.7893 28.6444 65.4142L14.5858 51.3556C14.2107 50.9806 14 50.4719 14 49.9414L14 30.0592Z" fill="currentColor" fill-opacity="0.15" />
  <path d="M14.5858 51.3556L16 49.9414L14.5858 51.3556ZM28.6444 65.4142L27.2302 66.8284L28.6444 65.4142ZM65.4142 28.645L66.8284 27.2308L65.4142 28.645ZM51.355 14.5858L49.9408 16L51.355 14.5858ZM28.645 14.5858L30.0592 16L28.645 14.5858ZM14.5858 28.645L13.1716 27.2307L14.5858 28.645ZM16 30.0592L30.0592 16L27.2307 13.1716L13.1716 27.2307L16 30.0592ZM30.0592 16L49.9408 16V12L30.0592 12V16ZM49.9408 16L64 30.0592L66.8284 27.2308L52.7692 13.1716L49.9408 16ZM64 30.0592L64 49.9414H68V30.0592H64ZM64 49.9414L49.9414 64L52.7698 66.8284L66.8284 52.7698L64 49.9414ZM49.9414 64H30.0586V68H49.9414V64ZM30.0586 64L16 49.9414L13.1716 52.7698L27.2302 66.8284L30.0586 64ZM16 49.9414L16 30.0592H12L12 49.9414H16ZM16 49.9414H16H12C12 51.0023 12.4214 52.0197 13.1716 52.7698L16 49.9414ZM30.0586 64L27.2302 66.8284C27.9803 67.5786 28.9977 68 30.0586 68V64ZM49.9414 64V68C51.0023 68 52.0197 67.5786 52.7698 66.8284L49.9414 64ZM64 49.9414L66.8284 52.7698C67.5786 52.0197 68 51.0023 68 49.9414H64ZM64 30.0592V30.0592H68C68 28.9983 67.5786 27.9809 66.8284 27.2308L64 30.0592ZM49.9408 16L52.7692 13.1716C52.0191 12.4214 51.0017 12 49.9408 12V16ZM30.0592 16V16V12C28.9983 12 27.9809 12.4214 27.2307 13.1716L30.0592 16ZM13.1716 27.2307C12.4214 27.9809 12 28.9983 12 30.0592H16V30.0592L13.1716 27.2307Z" fill="currentColor" />
  <path fill-rule="evenodd" clip-rule="evenodd" d="M41.1424 27.6723C41.1424 26.3744 40.0903 25.3223 38.7924 25.3223C37.4945 25.3223 36.4424 26.3744 36.4424 27.6723V39.5411V39.7106C36.4424 39.7257 36.4302 39.738 36.4151 39.738C36.3999 39.738 36.3877 39.7257 36.3877 39.7106V39.5411V29.7706C36.3877 28.4728 35.3356 27.4206 34.0377 27.4206C32.7398 27.4206 31.6877 28.4728 31.6877 29.7706L31.6877 39.5411V42.6887C31.6877 42.7938 31.5515 42.8353 31.4929 42.748L29.6491 40.0017C28.9257 38.9242 27.4657 38.6371 26.3881 39.3606C25.3106 40.084 25.0235 41.544 25.747 42.6215L33.1432 53.6379C33.5797 54.288 34.3113 54.678 35.0943 54.678H46.7169C47.8605 54.678 48.8381 53.8548 49.0327 52.7278L50.6176 43.5475C50.6404 43.4154 50.6518 43.2817 50.6518 43.1477V33.9674C50.6518 32.6695 49.5997 31.6174 48.3018 31.6174C47.004 31.6174 45.9518 32.6695 45.9518 33.9674V39.7106C45.9518 39.7257 45.9396 39.738 45.9245 39.738C45.9094 39.738 45.8971 39.7257 45.8971 39.7106V39.5411V29.7706C45.8971 28.4728 44.845 27.4206 43.5471 27.4206C42.2493 27.4206 41.1971 28.4728 41.1971 29.7706V39.5411V39.7106C41.1971 39.7257 41.1849 39.738 41.1698 39.738C41.1547 39.738 41.1424 39.7257 41.1424 39.7106V39.5411V27.6723Z" fill="currentColor" fill-opacity="0.15" />
  <path d="M31.4929 42.748L29.8324 43.8628L31.4929 42.748ZM38.4424 39.5411V27.6723L34.4424 27.6723V39.5411H38.4424ZM38.4424 39.7106V39.5411H34.4424V39.7106H38.4424ZM34.3877 39.5411V39.7106H38.3877V39.5411H34.3877ZM34.3877 29.7706V39.5411H38.3877V29.7706H34.3877ZM33.6877 39.5411V29.7706H29.6877L29.6877 39.5411H33.6877ZM33.6877 42.6887V39.5411H29.6877V42.6887H33.6877ZM27.9886 41.1165L29.8324 43.8628L33.1534 41.6332L31.3096 38.8869L27.9886 41.1165ZM34.8037 52.5231L27.4075 41.5067L24.0865 43.7363L31.4827 54.7527L34.8037 52.5231ZM46.7169 52.678H35.0943L35.0943 56.678H46.7169V52.678ZM48.6467 43.2072L47.0618 52.3876L51.0035 53.0681L52.5884 43.8877L48.6467 43.2072ZM48.6518 33.9674V43.1477H52.6518V33.9674H48.6518ZM47.9518 39.7106V33.9674H43.9518V39.7106H47.9518ZM43.8971 39.5411V39.7106H47.8971V39.5411H43.8971ZM43.8971 29.7706V39.5411H47.8971V29.7706H43.8971ZM43.1971 39.5411V29.7706H39.1971V39.5411H43.1971ZM43.1971 39.7106V39.5411H39.1971V39.7106H43.1971ZM39.1424 39.5411V39.7106H43.1424V39.5411H39.1424ZM39.1424 27.6723V39.5411H43.1424V27.6723H39.1424ZM41.1698 37.738C42.2592 37.738 43.1424 38.6212 43.1424 39.7106H39.1424C39.1424 40.8303 40.0501 41.738 41.1698 41.738V37.738ZM47.8971 29.7706C47.8971 27.3682 45.9496 25.4206 43.5471 25.4206V29.4206C43.7404 29.4206 43.8971 29.5773 43.8971 29.7706H47.8971ZM48.3018 29.6174C45.8994 29.6174 43.9518 31.5649 43.9518 33.9674H47.9518C47.9518 33.7741 48.1085 33.6174 48.3018 33.6174V29.6174ZM52.5884 43.8877C52.6306 43.6433 52.6518 43.3957 52.6518 43.1477H48.6518C48.6518 43.1676 48.6501 43.1876 48.6467 43.2072L52.5884 43.8877ZM43.1424 27.6723C43.1424 25.2698 41.1948 23.3223 38.7924 23.3223V27.3223C38.9857 27.3223 39.1424 27.479 39.1424 27.6723H43.1424ZM46.7169 56.678C48.8338 56.678 50.6434 55.1541 51.0035 53.0681L47.0618 52.3876C47.0328 52.5554 46.8872 52.678 46.7169 52.678V56.678ZM43.5471 25.4206C41.1447 25.4206 39.1971 27.3682 39.1971 29.7706H43.1971C43.1971 29.5773 43.3538 29.4206 43.5471 29.4206V25.4206ZM29.6877 42.6887C29.6877 40.8183 32.1108 40.0803 33.1534 41.6332L29.8324 43.8628C30.9922 45.5902 33.6877 44.7692 33.6877 42.6887H29.6877ZM45.9245 37.738C47.0139 37.738 47.8971 38.6212 47.8971 39.7106H43.8971C43.8971 40.8303 44.8048 41.738 45.9245 41.738V37.738ZM34.0377 25.4206C31.6353 25.4206 29.6877 27.3682 29.6877 29.7706H33.6877C33.6877 29.5773 33.8444 29.4206 34.0377 29.4206V25.4206ZM31.4827 54.7527C32.2907 55.9561 33.6449 56.678 35.0943 56.678L35.0943 52.678C34.9777 52.678 34.8687 52.6199 34.8037 52.5231L31.4827 54.7527ZM43.9518 39.7106C43.9518 38.6212 44.835 37.738 45.9245 37.738V41.738C47.0442 41.738 47.9518 40.8303 47.9518 39.7106H43.9518ZM38.3877 29.7706C38.3877 27.3682 36.4401 25.4206 34.0377 25.4206V29.4206C34.231 29.4206 34.3877 29.5773 34.3877 29.7706H38.3877ZM39.1971 39.7106C39.1971 38.6212 40.0803 37.738 41.1698 37.738V41.738C42.2894 41.738 43.1971 40.8303 43.1971 39.7106H39.1971ZM25.2733 37.7001C23.2787 39.0392 22.7474 41.7418 24.0865 43.7363L27.4075 41.5067C27.2997 41.3462 27.3425 41.1288 27.503 41.021L25.2733 37.7001ZM52.6518 33.9674C52.6518 31.5649 50.7043 29.6174 48.3018 29.6174V33.6174C48.4951 33.6174 48.6518 33.7741 48.6518 33.9674H52.6518ZM36.4151 37.738C37.5045 37.738 38.3877 38.6212 38.3877 39.7106H34.3877C34.3877 40.8303 35.2954 41.738 36.4151 41.738V37.738ZM38.7924 23.3223C36.39 23.3223 34.4424 25.2698 34.4424 27.6723L38.4424 27.6723C38.4424 27.479 38.5991 27.3223 38.7924 27.3223V23.3223ZM31.3096 38.8869C29.9704 36.8923 27.2679 36.3609 25.2733 37.7001L27.503 41.021C27.6634 40.9133 27.8809 40.956 27.9886 41.1165L31.3096 38.8869ZM34.4424 39.7106C34.4424 38.6212 35.3256 37.738 36.4151 37.738V41.738C37.5347 41.738 38.4424 40.8303 38.4424 39.7106H34.4424Z" fill="currentColor" />
</svg>