<svg viewBox="0 0 80 80" fill="none">
  <path d="M70 67H10" stroke="currentColor" stroke-width="4" stroke-linecap="round" stroke-linejoin="round" />
  <path fill-rule="evenodd" clip-rule="evenodd" d="M13 40.3996C13.924 40.7865 14.9378 41 16 41C20.1848 41 23.6183 37.6869 23.7677 33.5048L23.7857 33H24.2142L24.2323 33.5048C24.3816 37.6869 27.8152 41 31.9999 41C36.1847 41 39.6183 37.6869 39.7676 33.5048L39.7857 33H40.2142L40.2323 33.5048C40.3816 37.6869 43.8152 41 47.9999 41C52.1847 41 55.6183 37.6869 55.7676 33.5048L55.7857 33H56.2142L56.2323 33.5048C56.3816 37.6869 59.8152 41 63.9999 41C65.0622 41 66.076 40.7865 67 40.3996V67H13V40.3996Z" fill="currentColor" fill-opacity="0.15" />
  <path d="M13 40.3996L13.7726 38.5548C13.1552 38.2963 12.4494 38.3637 11.8921 38.7345C11.3348 39.1053 11 39.7302 11 40.3996H13ZM23.7677 33.5048L25.7664 33.5762V33.5762L23.7677 33.5048ZM23.7857 33V31C22.7089 31 21.8254 31.8525 21.787 32.9286L23.7857 33ZM24.2142 33L26.213 32.9286C26.1745 31.8525 25.291 31 24.2142 31V33ZM24.2323 33.5048L26.231 33.4334V33.4334L24.2323 33.5048ZM39.7676 33.5048L37.7689 33.4334V33.4334L39.7676 33.5048ZM39.7857 33V31C38.7089 31 37.8254 31.8525 37.7869 32.9286L39.7857 33ZM40.2142 33L42.213 32.9286C42.1745 31.8525 41.291 31 40.2142 31V33ZM40.2323 33.5048L42.231 33.4334V33.4334L40.2323 33.5048ZM55.7676 33.5048L53.7689 33.4334V33.4334L55.7676 33.5048ZM55.7857 33V31C54.7089 31 53.8254 31.8525 53.7869 32.9286L55.7857 33ZM56.2142 33L58.213 32.9286C58.1745 31.8525 57.291 31 56.2142 31V33ZM56.2323 33.5048L58.231 33.4334V33.4334L56.2323 33.5048ZM67 40.3996H69C69 39.7302 68.6652 39.1052 68.1079 38.7345C67.5506 38.3637 66.8448 38.2962 66.2274 38.5548L67 40.3996ZM67 67V69C68.1046 69 69 68.1046 69 67H67ZM13 67H11C11 68.1046 11.8954 69 13 69V67ZM67 55C68.1046 55 69 54.1046 69 53C69 51.8954 68.1046 51 67 51V55ZM13 51C11.8954 51 11 51.8954 11 53C11 54.1046 11.8954 55 13 55V51ZM12.2274 42.2444C13.3917 42.7319 14.6678 43 16 43V39C15.2078 39 14.4563 38.8412 13.7726 38.5548L12.2274 42.2444ZM16 43C21.2615 43 25.5786 38.8343 25.7664 33.5762L21.769 33.4334C21.658 36.5394 19.108 39 16 39V43ZM25.7664 33.5762L25.7844 33.0714L21.787 32.9286L21.769 33.4334L25.7664 33.5762ZM23.7857 35H24.2142V31H23.7857V35ZM22.2155 33.0714L22.2335 33.5762L26.231 33.4334L26.213 32.9286L22.2155 33.0714ZM22.2335 33.5762C22.4213 38.8343 26.7384 43 31.9999 43V39C28.892 39 26.3419 36.5394 26.231 33.4334L22.2335 33.5762ZM31.9999 43C37.2615 43 41.5786 38.8343 41.7664 33.5762L37.7689 33.4334C37.658 36.5394 35.1079 39 31.9999 39V43ZM41.7664 33.5762L41.7844 33.0714L37.7869 32.9286L37.7689 33.4334L41.7664 33.5762ZM39.7857 35H40.2142V31H39.7857V35ZM38.2155 33.0714L38.2335 33.5762L42.231 33.4334L42.213 32.9286L38.2155 33.0714ZM38.2335 33.5762C38.4213 38.8343 42.7384 43 47.9999 43V39C44.892 39 42.3419 36.5394 42.231 33.4334L38.2335 33.5762ZM47.9999 43C53.2615 43 57.5786 38.8343 57.7664 33.5762L53.7689 33.4334C53.658 36.5394 51.1079 39 47.9999 39V43ZM57.7664 33.5762L57.7844 33.0714L53.7869 32.9286L53.7689 33.4334L57.7664 33.5762ZM55.7857 35H56.2142V31H55.7857V35ZM54.2155 33.0714L54.2335 33.5762L58.231 33.4334L58.213 32.9286L54.2155 33.0714ZM54.2335 33.5762C54.4213 38.8343 58.7384 43 63.9999 43V39C60.892 39 58.3419 36.5394 58.231 33.4334L54.2335 33.5762ZM63.9999 43C65.3322 43 66.6083 42.7319 67.7726 42.2443L66.2274 38.5548C65.5437 38.8412 64.7921 39 63.9999 39V43ZM69 67V40.3996H65V67H69ZM13 69H67V65H13V69ZM11 40.3996V67H15V40.3996H11ZM67 51H13V55H67V51Z" fill="currentColor" />
  <path fill-rule="evenodd" clip-rule="evenodd" d="M18 15H16L8 27L8.23232 33.5048C8.38168 37.6869 11.8153 41 16 41C20.1848 41 23.6183 37.6869 23.7677 33.5048L23.7857 33H24.2142L24.2323 33.5048C24.3816 37.6869 27.8152 41 31.9999 41C36.1847 41 39.6183 37.6869 39.7676 33.5048L39.7857 33H40.2142L40.2323 33.5048C40.3816 37.6869 43.8152 41 47.9999 41C52.1847 41 55.6183 37.6869 55.7676 33.5048L55.7857 33H56.2142L56.2323 33.5048C56.3816 37.6869 59.8152 41 63.9999 41C68.1847 41 71.6183 37.6869 71.7676 33.5048L72 27L64 15H62H18Z" fill="currentColor" fill-opacity="0.15" />
  <path d="M16 15V13C15.3313 13 14.7068 13.3342 14.3359 13.8906L16 15ZM8 27L6.3359 25.8906C6.10337 26.2394 5.98631 26.6524 6.00127 27.0714L8 27ZM8.23232 33.5048L10.231 33.4334L10.231 33.4334L8.23232 33.5048ZM23.7677 33.5048L25.7664 33.5762L23.7677 33.5048ZM23.7857 33V31C22.7089 31 21.8254 31.8525 21.787 32.9286L23.7857 33ZM24.2142 33L26.213 32.9286C26.1745 31.8525 25.291 31 24.2142 31V33ZM24.2323 33.5048L26.231 33.4334V33.4334L24.2323 33.5048ZM39.7676 33.5048L37.7689 33.4334V33.4334L39.7676 33.5048ZM39.7857 33V31C38.7089 31 37.8254 31.8525 37.7869 32.9286L39.7857 33ZM40.2142 33L42.213 32.9286C42.1745 31.8525 41.291 31 40.2142 31V33ZM40.2323 33.5048L42.231 33.4334V33.4334L40.2323 33.5048ZM55.7676 33.5048L53.7689 33.4334V33.4334L55.7676 33.5048ZM55.7857 33V31C54.7089 31 53.8254 31.8525 53.7869 32.9286L55.7857 33ZM56.2142 33L58.213 32.9286C58.1745 31.8525 57.291 31 56.2142 31V33ZM56.2323 33.5048L58.231 33.4334V33.4334L56.2323 33.5048ZM71.7676 33.5048L69.7689 33.4334V33.4334L71.7676 33.5048ZM72 27L73.9987 27.0714C74.0137 26.6525 73.8966 26.2394 73.6641 25.8906L72 27ZM64 15L65.6641 13.8906C65.2932 13.3342 64.6687 13 64 13V15ZM16 17H18V13H16V17ZM9.6641 28.1094L17.6641 16.1094L14.3359 13.8906L6.3359 25.8906L9.6641 28.1094ZM10.231 33.4334L9.99873 26.9286L6.00127 27.0714L6.23359 33.5762L10.231 33.4334ZM16 39C12.892 39 10.342 36.5394 10.231 33.4334L6.23359 33.5762C6.42139 38.8343 10.7385 43 16 43V39ZM21.769 33.4334C21.658 36.5394 19.108 39 16 39V43C21.2615 43 25.5786 38.8343 25.7664 33.5762L21.769 33.4334ZM21.787 32.9286L21.769 33.4334L25.7664 33.5762L25.7844 33.0714L21.787 32.9286ZM24.2142 31H23.7857V35H24.2142V31ZM26.231 33.4334L26.213 32.9286L22.2155 33.0714L22.2335 33.5762L26.231 33.4334ZM31.9999 39C28.892 39 26.3419 36.5394 26.231 33.4334L22.2335 33.5762C22.4213 38.8343 26.7384 43 31.9999 43V39ZM37.7689 33.4334C37.658 36.5394 35.1079 39 31.9999 39V43C37.2615 43 41.5786 38.8343 41.7664 33.5762L37.7689 33.4334ZM37.7869 32.9286L37.7689 33.4334L41.7664 33.5762L41.7844 33.0714L37.7869 32.9286ZM40.2142 31H39.7857V35H40.2142V31ZM42.231 33.4334L42.213 32.9286L38.2155 33.0714L38.2335 33.5762L42.231 33.4334ZM47.9999 39C44.892 39 42.3419 36.5394 42.231 33.4334L38.2335 33.5762C38.4213 38.8343 42.7384 43 47.9999 43V39ZM53.7689 33.4334C53.658 36.5394 51.1079 39 47.9999 39V43C53.2615 43 57.5786 38.8343 57.7664 33.5762L53.7689 33.4334ZM53.7869 32.9286L53.7689 33.4334L57.7664 33.5762L57.7844 33.0714L53.7869 32.9286ZM56.2142 31H55.7857V35H56.2142V31ZM58.231 33.4334L58.213 32.9286L54.2155 33.0714L54.2335 33.5762L58.231 33.4334ZM63.9999 39C60.892 39 58.3419 36.5394 58.231 33.4334L54.2335 33.5762C54.4213 38.8343 58.7384 43 63.9999 43V39ZM69.7689 33.4334C69.658 36.5394 67.1079 39 63.9999 39V43C69.2615 43 73.5786 38.8343 73.7664 33.5762L69.7689 33.4334ZM70.0013 26.9286L69.7689 33.4334L73.7664 33.5762L73.9987 27.0714L70.0013 26.9286ZM62.3359 16.1094L70.3359 28.1094L73.6641 25.8906L65.6641 13.8906L62.3359 16.1094ZM62 17H64V13H62V17ZM18 17H62V13H18V17Z" fill="currentColor" />
</svg>