<svg viewBox="0 0 80 80" fill="none">
  <path fill-rule="evenodd" clip-rule="evenodd" d="M12.299 39.7307C13.1857 40.1967 14.1771 40.4977 15.2353 40.5903C19.4041 40.955 23.1134 37.9537 23.6266 33.8006L23.6886 33.2993L24.1155 33.3367L24.0894 33.8411C23.8737 38.0203 27.0055 41.6201 31.1743 41.9848C35.3431 42.3495 39.0524 39.3482 39.5657 35.1951L39.6276 34.6938L40.0546 34.7312L40.0286 35.2356C39.8129 39.4148 42.9446 43.0146 47.1134 43.3793C51.2822 43.744 54.9915 40.7427 55.5048 36.5896L55.5668 36.0883L55.9937 36.1256L55.9677 36.6301C55.752 40.8093 58.8837 44.409 63.0525 44.7738C64.1107 44.8664 65.1393 44.7421 66.0935 44.4371L64.207 66H38.3914L41.2558 59.2633C41.4937 58.7039 41.1816 58.0634 40.5944 57.9061L36.4054 56.7836L35.1695 56.4525L34.7406 56.3376C34.1277 56.1733 33.8207 55.4871 34.1069 54.9207L39.1309 44.9761C39.2852 44.6705 38.8791 44.394 38.6514 44.6497L26.5359 58.2554C26.0409 58.8113 26.3049 59.6937 27.0239 59.8864L29.7337 60.6125L31.0529 60.9659L32.1281 61.254C32.2814 61.2951 32.3549 61.4696 32.2773 61.608L29.8133 66H10.0007L12.299 39.7307Z" fill="currentColor" fill-opacity="0.15" />
  <path d="M15.2353 40.5903L15.4096 38.5979L15.2353 40.5903ZM12.299 39.7307L13.2294 37.9603C12.6369 37.6489 11.9279 37.6546 11.3404 37.9754C10.753 38.2962 10.3649 38.8896 10.3066 39.5564L12.299 39.7307ZM23.6266 33.8006L25.6115 34.0459V34.0459L23.6266 33.8006ZM23.6886 33.2993L23.8629 31.3069C22.7902 31.2131 21.8358 31.9853 21.7037 33.054L23.6886 33.2993ZM24.1155 33.3367L26.1128 33.4398C26.1683 32.3644 25.3625 31.4381 24.2898 31.3443L24.1155 33.3367ZM24.0894 33.8411L22.0921 33.738V33.738L24.0894 33.8411ZM31.1743 41.9848L31 43.9772H31L31.1743 41.9848ZM39.5657 35.1951L37.5808 34.9498L37.5808 34.9498L39.5657 35.1951ZM39.6276 34.6938L39.802 32.7014C38.7293 32.6076 37.7748 33.3798 37.6427 34.4485L39.6276 34.6938ZM40.0546 34.7312L42.0519 34.8342C42.1074 33.7589 41.3016 32.8326 40.2289 32.7388L40.0546 34.7312ZM40.0286 35.2356L38.0312 35.1325V35.1325L40.0286 35.2356ZM47.1134 43.3793L47.2877 41.3869L47.1134 43.3793ZM55.5048 36.5896L57.4897 36.8349V36.8349L55.5048 36.5896ZM55.5668 36.0883L55.7411 34.0959C54.6684 34.0021 53.7139 34.7743 53.5819 35.843L55.5668 36.0883ZM55.9937 36.1256L57.991 36.2287C58.0466 35.1534 57.2407 34.2271 56.168 34.1333L55.9937 36.1256ZM55.9677 36.6301L53.9703 36.527L55.9677 36.6301ZM63.0525 44.7738L62.8782 46.7662L63.0525 44.7738ZM66.0935 44.4371L68.0859 44.6114C68.1442 43.9446 67.8651 43.2928 67.3423 42.8749C66.8195 42.4569 66.1222 42.3283 65.4847 42.532L66.0935 44.4371ZM64.207 66V68C65.244 68 66.109 67.2074 66.1994 66.1743L64.207 66ZM38.3914 66L36.5508 65.2174C36.2882 65.8352 36.3529 66.5435 36.7233 67.1034C37.0936 67.6632 37.7201 68 38.3914 68V66ZM41.2558 59.2633L39.4153 58.4807L39.4153 58.4807L41.2558 59.2633ZM40.5944 57.9061L41.112 55.9742L41.112 55.9742L40.5944 57.9061ZM36.4054 56.7836L35.8878 58.7155H35.8878L36.4054 56.7836ZM35.1695 56.4525L35.6871 54.5206H35.6871L35.1695 56.4525ZM34.7406 56.3376L34.223 58.2694L34.223 58.2694L34.7406 56.3376ZM34.1069 54.9207L32.3218 54.0189L34.1069 54.9207ZM39.1309 44.9761L40.916 45.8779V45.8779L39.1309 44.9761ZM38.6514 44.6497L40.1451 45.9797L40.1451 45.9797L38.6514 44.6497ZM26.5359 58.2554L25.0422 56.9254V56.9254L26.5359 58.2554ZM27.0239 59.8864L27.5415 57.9545H27.5415L27.0239 59.8864ZM29.7337 60.6125L29.2161 62.5443H29.2161L29.7337 60.6125ZM31.0529 60.9659L31.5705 59.0341L31.5705 59.0341L31.0529 60.9659ZM32.1281 61.254L31.6104 63.1859L31.6104 63.1859L32.1281 61.254ZM32.2773 61.608L30.533 60.6294L30.533 60.6295L32.2773 61.608ZM29.8133 66V68C30.5367 68 31.2037 67.6094 31.5576 66.9785L29.8133 66ZM10.0007 66L8.00834 65.8257C7.95947 66.3843 8.14735 66.9378 8.52618 67.3512C8.90501 67.7646 9.43999 68 10.0007 68V66ZM15.4096 38.5979C14.6204 38.5289 13.8856 38.3051 13.2294 37.9603L11.3686 41.5011C12.4859 42.0883 13.7338 42.4666 15.0609 42.5827L15.4096 38.5979ZM21.6417 33.5553C21.2605 36.6398 18.5057 38.8688 15.4096 38.5979L15.0609 42.5827C20.3025 43.0413 24.9662 39.2677 25.6115 34.0459L21.6417 33.5553ZM21.7037 33.054L21.6417 33.5553L25.6115 34.0459L25.6735 33.5446L21.7037 33.054ZM24.2898 31.3443L23.8629 31.3069L23.5143 35.2917L23.9412 35.3291L24.2898 31.3443ZM26.0868 33.9442L26.1128 33.4398L22.1181 33.2336L22.0921 33.738L26.0868 33.9442ZM31.3486 39.9924C28.2525 39.7215 25.9266 37.048 26.0868 33.9442L22.0921 33.738C21.8209 38.9925 25.7585 43.5186 31 43.9772L31.3486 39.9924ZM37.5808 34.9498C37.1996 38.0343 34.4448 40.2633 31.3486 39.9924L31 43.9772C36.2415 44.4358 40.9052 40.6622 41.5506 35.4404L37.5808 34.9498ZM37.6427 34.4485L37.5808 34.9498L41.5506 35.4404L41.6125 34.9391L37.6427 34.4485ZM40.2289 32.7388L39.802 32.7014L39.4533 36.6862L39.8803 36.7235L40.2289 32.7388ZM42.0259 35.3387L42.0519 34.8342L38.0572 34.6281L38.0312 35.1325L42.0259 35.3387ZM47.2877 41.3869C44.1916 41.116 41.8657 38.4425 42.0259 35.3387L38.0312 35.1325C37.76 40.387 41.6976 44.9131 46.9391 45.3717L47.2877 41.3869ZM53.5199 36.3443C53.1387 39.4288 50.3839 41.6578 47.2877 41.3869L46.9391 45.3717C52.1806 45.8302 56.8443 42.0567 57.4897 36.8349L53.5199 36.3443ZM53.5819 35.843L53.5199 36.3443L57.4897 36.8349L57.5517 36.3336L53.5819 35.843ZM56.168 34.1333L55.7411 34.0959L55.3925 38.0807L55.8194 38.118L56.168 34.1333ZM57.965 36.7332L57.991 36.2287L53.9964 36.0226L53.9703 36.527L57.965 36.7332ZM63.2269 42.7814C60.1307 42.5105 57.8048 39.837 57.965 36.7332L53.9703 36.527C53.6991 41.7815 57.6367 46.3076 62.8782 46.7662L63.2269 42.7814ZM65.4847 42.532C64.7786 42.7577 64.016 42.8504 63.2269 42.7814L62.8782 46.7662C64.2054 46.8823 65.5001 46.7264 66.7024 46.3422L65.4847 42.532ZM66.1994 66.1743L68.0859 44.6114L64.1011 44.2628L62.2146 65.8257L66.1994 66.1743ZM38.3914 68H64.207V64H38.3914V68ZM39.4153 58.4807L36.5508 65.2174L40.2319 66.7826L43.0964 60.0459L39.4153 58.4807ZM40.0768 59.8379C39.4896 59.6806 39.1774 59.0401 39.4153 58.4807L43.0964 60.0459C43.81 58.3677 42.8735 56.4462 41.112 55.9742L40.0768 59.8379ZM35.8878 58.7155L40.0768 59.8379L41.112 55.9742L36.9231 54.8518L35.8878 58.7155ZM34.6519 58.3843L35.8878 58.7155L36.9231 54.8518L35.6871 54.5206L34.6519 58.3843ZM34.223 58.2694L34.6519 58.3843L35.6871 54.5206L35.2583 54.4057L34.223 58.2694ZM32.3218 54.0189C31.4633 55.718 32.3842 57.7767 34.223 58.2694L35.2583 54.4057C35.8712 54.5699 36.1782 55.2562 35.892 55.8226L32.3218 54.0189ZM37.3458 44.0742L32.3218 54.0189L35.892 55.8226L40.916 45.8779L37.3458 44.0742ZM40.1451 45.9797C38.8159 47.4725 36.4445 45.8582 37.3458 44.0742L40.916 45.8779C42.126 43.4828 38.9423 41.3156 37.1578 43.3196L40.1451 45.9797ZM28.0295 59.5855L40.1451 45.9797L37.1578 43.3196L25.0422 56.9254L28.0295 59.5855ZM27.5415 57.9545C28.2604 58.1471 28.5245 59.0296 28.0295 59.5855L25.0422 56.9254C23.5573 58.5929 24.3494 61.2403 26.5062 61.8182L27.5415 57.9545ZM30.2514 58.6806L27.5415 57.9545L26.5062 61.8182L29.2161 62.5443L30.2514 58.6806ZM31.5705 59.0341L30.2514 58.6806L29.2161 62.5443L30.5352 62.8978L31.5705 59.0341ZM32.6457 59.3222L31.5705 59.0341L30.5352 62.8978L31.6104 63.1859L32.6457 59.3222ZM34.0215 62.5865C34.7376 61.3101 34.0594 59.701 32.6457 59.3222L31.6104 63.1859C30.5034 62.8892 29.9722 61.629 30.533 60.6294L34.0215 62.5865ZM31.5576 66.9785L34.0215 62.5865L30.533 60.6295L28.0691 65.0215L31.5576 66.9785ZM10.0007 68H29.8133V64H10.0007V68ZM10.3066 39.5564L8.00834 65.8257L11.9931 66.1743L14.2914 39.905L10.3066 39.5564Z" fill="currentColor" />
  <path d="M5 64C3.89543 64 3 64.8955 3 66C3 67.1046 3.89543 68 5 68V64ZM29.8133 68C30.9179 68 31.8133 67.1046 31.8133 66C31.8133 64.8955 30.9179 64 29.8133 64V68ZM38.3914 64C37.2868 64 36.3914 64.8955 36.3914 66C36.3914 67.1046 37.2868 68 38.3914 68V64ZM69 68C70.1046 68 71 67.1046 71 66C71 64.8955 70.1046 64 69 64V68ZM5 68H29.8133V64H5V68ZM38.3914 68H69V64H38.3914V68Z" fill="currentColor" />
  <path fill-rule="evenodd" clip-rule="evenodd" d="M19.4941 14.864L17.5017 14.6897L8.48624 25.9468L8.15074 32.447C7.93504 36.6262 11.0668 40.226 15.2356 40.5907C19.4044 40.9555 23.1137 37.9542 23.627 33.801L23.689 33.2998L24.1158 33.3371L24.0898 33.8415C23.8741 38.0207 27.0059 41.6205 31.1747 41.9852C35.3435 42.35 39.0528 39.3487 39.5661 35.1955L39.628 34.6942L40.0549 34.7316L40.0289 35.236C39.8132 39.4152 42.945 43.015 47.1138 43.3797C51.2826 43.7444 54.9919 40.7432 55.5052 36.59L55.5671 36.0887L55.9941 36.1261L55.968 36.6305C55.7523 40.8097 58.8841 44.4095 63.0529 44.7742C67.2217 45.1389 70.931 42.1377 71.4443 37.9845L72.2427 31.5247L65.319 18.8732L63.3266 18.6988L19.4941 14.864Z" fill="currentColor" fill-opacity="0.15" />
  <path d="M17.5017 14.6897L17.676 12.6973C17.0098 12.639 16.3586 12.9175 15.9406 13.4395L17.5017 14.6897ZM8.48624 25.9468L6.92516 24.6966C6.66311 25.0238 6.5105 25.425 6.48889 25.8437L8.48624 25.9468ZM8.15074 32.447L10.1481 32.5501L10.1481 32.5501L8.15074 32.447ZM23.627 33.801L25.6119 34.0463L23.627 33.801ZM23.689 33.2998L23.8633 31.3074C22.7906 31.2135 21.8361 31.9858 21.7041 33.0544L23.689 33.2998ZM24.1158 33.3371L26.1132 33.4402C26.1687 32.3648 25.3628 31.4386 24.2901 31.3447L24.1158 33.3371ZM24.0898 33.8415L26.0871 33.9446L26.0871 33.9446L24.0898 33.8415ZM39.5661 35.1955L37.5812 34.9502L37.5812 34.9502L39.5661 35.1955ZM39.628 34.6942L39.8023 32.7018C38.7296 32.608 37.7752 33.3803 37.6431 34.4489L39.628 34.6942ZM40.0549 34.7316L42.0523 34.8347C42.1078 33.7593 41.302 32.8331 40.2293 32.7392L40.0549 34.7316ZM40.0289 35.236L42.0263 35.3391L42.0263 35.3391L40.0289 35.236ZM55.5052 36.59L53.5203 36.3447L53.5203 36.3447L55.5052 36.59ZM55.5671 36.0887L55.7414 34.0963C54.6687 34.0025 53.7143 34.7748 53.5822 35.8434L55.5671 36.0887ZM55.9941 36.1261L57.9914 36.2292C58.0469 35.1538 57.2411 34.2275 56.1684 34.1337L55.9941 36.1261ZM55.968 36.6305L57.9654 36.7336L57.9654 36.7336L55.968 36.6305ZM71.4443 37.9845L69.4594 37.7392L69.4594 37.7392L71.4443 37.9845ZM72.2427 31.5247L74.2276 31.7701C74.279 31.354 74.1984 30.9323 73.9972 30.5646L72.2427 31.5247ZM65.319 18.8732L67.0735 17.913C66.7524 17.3264 66.1595 16.939 65.4933 16.8808L65.319 18.8732ZM17.3274 16.6821L19.3197 16.8564L19.6684 12.8716L17.676 12.6973L17.3274 16.6821ZM10.0473 27.197L19.0627 15.9399L15.9406 13.4395L6.92516 24.6966L10.0473 27.197ZM10.1481 32.5501L10.4836 26.0499L6.48889 25.8437L6.1534 32.344L10.1481 32.5501ZM15.4099 38.5984C12.3138 38.3275 9.98789 35.654 10.1481 32.5501L6.1534 32.344C5.8822 37.5985 9.8198 42.1246 15.0613 42.5831L15.4099 38.5984ZM21.6421 33.5557C21.2609 36.6402 18.5061 38.8692 15.4099 38.5984L15.0613 42.5831C20.3028 43.0417 24.9665 39.2681 25.6119 34.0463L21.6421 33.5557ZM21.7041 33.0544L21.6421 33.5557L25.6119 34.0463L25.6739 33.5451L21.7041 33.0544ZM24.2901 31.3447L23.8633 31.3074L23.5146 35.2921L23.9415 35.3295L24.2901 31.3447ZM26.0871 33.9446L26.1132 33.4402L22.1185 33.234L22.0925 33.7384L26.0871 33.9446ZM31.349 39.9928C28.2529 39.722 25.9269 37.0484 26.0871 33.9446L22.0925 33.7384C21.8213 38.993 25.7589 43.519 31.0004 43.9776L31.349 39.9928ZM37.5812 34.9502C37.1999 38.0347 34.4451 40.2637 31.349 39.9928L31.0004 43.9776C36.2419 44.4362 40.9056 40.6626 41.551 35.4408L37.5812 34.9502ZM37.6431 34.4489L37.5812 34.9502L41.551 35.4408L41.6129 34.9396L37.6431 34.4489ZM40.2293 32.7392L39.8023 32.7018L39.4537 36.6866L39.8806 36.724L40.2293 32.7392ZM42.0263 35.3391L42.0523 34.8347L38.0576 34.6285L38.0316 35.1329L42.0263 35.3391ZM47.2881 41.3873C44.192 41.1165 41.8661 38.4429 42.0263 35.3391L38.0316 35.1329C37.7604 40.3875 41.698 44.9135 46.9395 45.3721L47.2881 41.3873ZM53.5203 36.3447C53.1391 39.4292 50.3842 41.6582 47.2881 41.3873L46.9395 45.3721C52.181 45.8307 56.8447 42.0571 57.4901 36.8353L53.5203 36.3447ZM53.5822 35.8434L53.5203 36.3447L57.4901 36.8353L57.552 36.334L53.5822 35.8434ZM56.1684 34.1337L55.7414 34.0963L55.3928 38.0811L55.8198 38.1185L56.1684 34.1337ZM57.9654 36.7336L57.9914 36.2292L53.9967 36.023L53.9707 36.5274L57.9654 36.7336ZM63.2272 42.7818C60.1311 42.5109 57.8052 39.8374 57.9654 36.7336L53.9707 36.5274C53.6995 41.782 57.6371 46.308 62.8786 46.7666L63.2272 42.7818ZM69.4594 37.7392C69.0782 40.8237 66.3233 43.0527 63.2272 42.7818L62.8786 46.7666C68.1201 47.2252 72.7838 43.4516 73.4292 38.2298L69.4594 37.7392ZM70.2578 31.2794L69.4594 37.7392L73.4292 38.2298L74.2276 31.7701L70.2578 31.2794ZM63.5645 19.8333L70.4882 32.4849L73.9972 30.5646L67.0735 17.913L63.5645 19.8333ZM63.1523 20.6912L65.1447 20.8655L65.4933 16.8808L63.5009 16.7065L63.1523 20.6912ZM19.3197 16.8564L63.1523 20.6912L63.5009 16.7065L19.6684 12.8716L19.3197 16.8564Z" fill="currentColor" />
</svg>