<svg viewBox="0 0 80 80" fill="none">
  <path fill-rule="evenodd" clip-rule="evenodd" d="M33 52.252C20.9234 53.14 12 56.2722 12 59.9999C12 64.4182 24.536 67.9999 40 67.9999C55.464 67.9999 68 64.4182 68 59.9999C68 56.2722 59.0766 53.14 47 52.252V59.9999C47 61.1045 46.1046 61.9999 45 61.9999H44.4545H35.5455H35C33.8954 61.9999 33 61.1045 33 59.9999V52.252Z" fill="currentColor" fill-opacity="0.15" />
  <path d="M33 52.252H35C35 51.696 34.7686 51.1652 34.3614 50.7868C33.9541 50.4084 33.4077 50.2166 32.8533 50.2573L33 52.252ZM47 52.252L47.1467 50.2573C46.5923 50.2166 46.0459 50.4084 45.6386 50.7868C45.2314 51.1652 45 51.696 45 52.252H47ZM14 59.9999C14 59.9292 14.0393 59.5467 14.843 58.8948C15.6267 58.259 16.8897 57.5825 18.6547 56.9407C22.1645 55.6645 27.2181 54.6825 33.1467 54.2466L32.8533 50.2573C26.7053 50.7094 21.2589 51.7376 17.2879 53.1815C15.3125 53.8997 13.5898 54.7607 12.323 55.7884C11.0761 56.7999 10 58.2068 10 59.9999H14ZM40 65.9999C32.3996 65.9999 25.5932 65.1174 20.7505 63.7337C18.3155 63.038 16.4904 62.2472 15.3199 61.4566C14.0796 60.6188 14 60.0895 14 59.9999H10C10 62.1195 11.4874 63.6948 13.0809 64.7712C14.7442 65.8948 17.0195 66.8278 19.6516 67.5798C24.9429 69.0916 32.1365 69.9999 40 69.9999V65.9999ZM66 59.9999C66 60.0895 65.9204 60.6188 64.6801 61.4566C63.5096 62.2472 61.6845 63.038 59.2495 63.7337C54.4068 65.1174 47.6004 65.9999 40 65.9999V69.9999C47.8635 69.9999 55.0571 69.0916 60.3484 67.5798C62.9805 66.8278 65.2558 65.8948 66.9191 64.7712C68.5126 63.6948 70 62.1195 70 59.9999H66ZM46.8533 54.2466C52.7819 54.6825 57.8355 55.6645 61.3453 56.9407C63.1103 57.5825 64.3733 58.259 65.157 58.8948C65.9607 59.5467 66 59.9292 66 59.9999H70C70 58.2068 68.9239 56.7999 67.677 55.7884C66.4102 54.7607 64.6875 53.8997 62.7121 53.1815C58.7411 51.7376 53.2947 50.7094 47.1467 50.2573L46.8533 54.2466ZM45 52.252V59.9999H49V52.252H45ZM45 59.9999V59.9999V63.9999C47.2091 63.9999 49 62.2091 49 59.9999H45ZM45 59.9999H44.4545V63.9999H45V59.9999ZM44.4545 59.9999H35.5455V63.9999H44.4545V59.9999ZM35.5455 59.9999H35V63.9999H35.5455V59.9999ZM35 59.9999V59.9999H31C31 62.2091 32.7909 63.9999 35 63.9999V59.9999ZM35 59.9999V52.252H31V59.9999H35Z" fill="currentColor" />
  <path fill-rule="evenodd" clip-rule="evenodd" d="M33 48H29.1667C27.97 48 27 47.0299 27 45.8333V37.5403C27 35.5897 27.7559 33.7151 29.1089 32.31C30.5302 30.834 32.4911 30 34.5403 30H35.6667H44.3333H45.4597C47.5089 30 49.4698 30.834 50.8911 32.31C52.2441 33.7151 53 35.5897 53 37.5403V45.8333C53 47.0299 52.03 48 50.8333 48H47V60C47 61.1046 46.1046 62 45 62H44.4545H35.5455H35C33.8954 62 33 61.1046 33 60V48Z" fill="currentColor" fill-opacity="0.15" />
  <path d="M33 48H35C35 46.8954 34.1046 46 33 46V48ZM29.1089 32.31L27.6682 30.9227L27.6682 30.9227L29.1089 32.31ZM50.8911 32.31L52.3318 30.9227L52.3318 30.9227L50.8911 32.31ZM47 48V46C45.8954 46 45 46.8954 45 48H47ZM29.1667 50H33V46H29.1667V50ZM25 45.8333C25 48.1345 26.8655 50 29.1667 50V46C29.0746 46 29 45.9254 29 45.8333H25ZM25 37.5403V45.8333H29V37.5403H25ZM27.6682 30.9227C25.9564 32.7004 25 35.0723 25 37.5403H29C29 36.1071 29.5554 34.7297 30.5495 33.6973L27.6682 30.9227ZM34.5403 28C31.9476 28 29.4666 29.0552 27.6682 30.9227L30.5495 33.6973C31.5939 32.6128 33.0347 32 34.5403 32V28ZM35.6667 28H34.5403V32H35.6667V28ZM44.3333 28H35.6667V32H44.3333V28ZM45.4597 28H44.3333V32H45.4597V28ZM52.3318 30.9227C50.5334 29.0552 48.0524 28 45.4597 28V32C46.9653 32 48.4061 32.6128 49.4505 33.6973L52.3318 30.9227ZM55 37.5403C55 35.0723 54.0436 32.7004 52.3318 30.9227L49.4505 33.6973C50.4446 34.7297 51 36.1071 51 37.5403H55ZM55 45.8333V37.5403H51V45.8333H55ZM50.8333 50C53.1345 50 55 48.1345 55 45.8333H51C51 45.9254 50.9254 46 50.8333 46V50ZM47 50H50.8333V46H47V50ZM45 48V60H49V48H45ZM45 60V60V64C47.2091 64 49 62.2091 49 60H45ZM45 60H44.4545V64H45V60ZM44.4545 60H35.5455V64H44.4545V60ZM35.5455 60H35V64H35.5455V60ZM35 60L35 60H31C31 62.2091 32.7909 64 35 64V60ZM35 60V48H31V60H35Z" fill="currentColor" />
  <path d="M35 17C37.7614 14.2386 42.2386 14.2386 45 17C47.7614 19.7614 47.7614 24.2386 45 27C42.2386 29.7614 37.7614 29.7614 35 27C32.2386 24.2386 32.2386 19.7614 35 17Z" fill="currentColor" fill-opacity="0.15" stroke="currentColor" stroke-linecap="round" stroke-linejoin="round" />
</svg>