<svg viewBox="0 0 80 80" fill="none">
  <path d="M33.4675 37.8502L32.9824 39.7905L33.4675 37.8502ZM41.0667 39.75L41.5841 37.8181C41.5734 37.8152 41.5626 37.8124 41.5517 37.8097L41.0667 39.75ZM47.5069 41.4751L48.0244 39.5432L47.5069 41.4751ZM26 51.5C26 50.3954 25.1046 49.5 24 49.5C22.8954 49.5 22 50.3954 22 51.5H26ZM52.9333 28.5C52.9333 29.6046 53.8288 30.5 54.9333 30.5C56.0379 30.5 56.9333 29.6046 56.9333 28.5H52.9333ZM42.9333 14H36.1573V18H42.9333V14ZM36 66H44.5425V62H36V66ZM32.9824 39.7905L40.5816 41.6903L41.5517 37.8097L33.9525 35.9099L32.9824 39.7905ZM40.5492 41.6819L46.9895 43.407L48.0244 39.5432L41.5841 37.8181L40.5492 41.6819ZM26 52V51.5H22V52H26ZM52.9333 28V28.5H56.9333V28H52.9333ZM58 52.5425C58 46.4511 53.9084 41.1192 48.0244 39.5432L46.9895 43.407C51.1245 44.5146 54 48.2616 54 52.5425H58ZM23.0667 27.0907C23.0667 33.0976 27.1549 38.3336 32.9824 39.7905L33.9525 35.9099C29.9057 34.8982 27.0667 31.2621 27.0667 27.0907H23.0667ZM44.5425 66C51.9749 66 58 59.9749 58 52.5425H54C54 57.7657 49.7657 62 44.5425 62V66ZM36 62C30.4772 62 26 57.5229 26 52H22C22 59.732 28.268 66 36 66V62ZM42.9333 18C48.4562 18 52.9333 22.4772 52.9333 28H56.9333C56.9333 20.268 50.6653 14 42.9333 14V18ZM36.1573 14C28.9276 14 23.0667 19.8609 23.0667 27.0907H27.0667C27.0667 22.07 31.1367 18 36.1573 18V14Z" fill="currentColor" />
  <path d="M16 40H64" stroke="currentColor" stroke-width="4" stroke-linecap="round" stroke-linejoin="round" />
</svg>