<svg viewBox="0 0 80 80" fill="none">
  <path d="M19.5858 66.5858C18.8047 67.3668 18.8047 68.6332 19.5858 69.4142C20.3668 70.1953 21.6332 70.1953 22.4142 69.4142L19.5858 66.5858ZM30.4142 61.4142C31.1953 60.6332 31.1953 59.3668 30.4142 58.5858C29.6332 57.8047 28.3668 57.8047 27.5858 58.5858L30.4142 61.4142ZM57.5858 69.4142C58.3668 70.1953 59.6332 70.1953 60.4142 69.4142C61.1953 68.6332 61.1953 67.3668 60.4142 66.5858L57.5858 69.4142ZM52.4142 58.5858C51.6332 57.8047 50.3668 57.8047 49.5858 58.5858C48.8047 59.3668 48.8047 60.6332 49.5858 61.4142L52.4142 58.5858ZM22.4142 69.4142L30.4142 61.4142L27.5858 58.5858L19.5858 66.5858L22.4142 69.4142ZM60.4142 66.5858L52.4142 58.5858L49.5858 61.4142L57.5858 69.4142L60.4142 66.5858Z" fill="currentColor" />
  <path fill-rule="evenodd" clip-rule="evenodd" d="M20.2588 57.2059C17.5592 54.9406 16 51.597 16 48.0728V23.9225C16 20.3983 17.5592 17.0546 20.2588 14.7893C22.4061 12.9876 25.1194 12 27.9225 12H52.0775C54.8806 12 57.5939 12.9876 59.7412 14.7893C62.4408 17.0546 64 20.3983 64 23.9224V48.0728C64 51.597 62.4408 54.9406 59.7412 57.2059C57.5939 59.0077 54.8806 59.9952 52.0775 59.9952H27.9225C25.1195 59.9952 22.4061 59.0077 20.2588 57.2059Z" fill="currentColor" fill-opacity="0.15" />
  <path d="M18 48.0728V23.9225H14V48.0728H18ZM27.9225 14H52.0775V10H27.9225V14ZM62 23.9224V48.0728H66V23.9224H62ZM52.0775 57.9952H27.9225V61.9952H52.0775V57.9952ZM27.9225 57.9952C25.5897 57.9952 23.3314 57.1733 21.5444 55.6738L18.9733 58.738C21.4807 60.842 24.6492 61.9952 27.9225 61.9952V57.9952ZM58.4556 55.6738C56.6686 57.1733 54.4103 57.9952 52.0775 57.9952V61.9952C55.3508 61.9952 58.5193 60.842 61.0267 58.738L58.4556 55.6738ZM62 48.0728C62 51.0058 60.7024 53.7885 58.4556 55.6738L61.0267 58.738C64.1793 56.0927 66 52.1882 66 48.0728H62ZM58.4556 16.3214C60.7024 18.2067 62 20.9894 62 23.9224H66C66 19.8071 64.1793 15.9025 61.0267 13.2572L58.4556 16.3214ZM52.0775 14C54.4103 14 56.6686 14.8219 58.4556 16.3214L61.0267 13.2572C58.5193 11.1533 55.3508 10 52.0775 10V14ZM21.5444 16.3214C23.3314 14.8219 25.5897 14 27.9225 14V10C24.6492 10 21.4807 11.1533 18.9733 13.2572L21.5444 16.3214ZM18 23.9225C18 20.9894 19.2976 18.2067 21.5444 16.3214L18.9733 13.2572C15.8207 15.9025 14 19.8071 14 23.9225H18ZM14 48.0728C14 52.1882 15.8207 56.0927 18.9733 58.738L21.5444 55.6738C19.2976 53.7885 18 51.0058 18 48.0728H14Z" fill="currentColor" />
  <path d="M16 24H64V40H16V24Z" fill="currentColor" fill-opacity="0.15" stroke="currentColor" stroke-width="4" stroke-linecap="round" stroke-linejoin="round" />
  <path d="M40 40V24" stroke="currentColor" stroke-width="4" stroke-linecap="round" stroke-linejoin="round" />
  <rect x="24" y="47" width="6" height="6" rx="3" fill="currentColor" fill-opacity="0.15" stroke="currentColor" stroke-width="4" stroke-linecap="round" stroke-linejoin="round" />
  <rect x="50" y="47" width="6" height="6" rx="3" fill="currentColor" fill-opacity="0.15" stroke="currentColor" stroke-width="4" stroke-linecap="round" stroke-linejoin="round" />
</svg>