<svg viewBox="0 0 80 80" fill="none">
  <path d="M40.0001 14L40.025 22.0079L40.0006 22L39.9751 22.0083L40.0001 14Z" fill="currentColor" fill-opacity="0.25" />
  <path d="M29.445 25.4297L24.7176 18.9656L29.4047 25.4593L29.4204 25.4377L29.445 25.4297Z" fill="currentColor" fill-opacity="0.25" />
  <path d="M22.8969 34.4166L15.2726 31.9656L22.8815 34.4641V34.4377L22.8969 34.4166Z" fill="currentColor" fill-opacity="0.25" />
  <path d="M22.8815 45.5359L15.2726 48.0344L22.8969 45.5834L22.8816 45.5623L22.8815 45.5359Z" fill="currentColor" fill-opacity="0.25" />
  <path d="M29.4047 54.5407L24.7176 61.0344L29.445 54.5703L29.4205 54.5623L29.4047 54.5407Z" fill="currentColor" fill-opacity="0.25" />
  <path d="M39.9751 57.9917L40.0001 66L40.025 57.9921L40.0006 58L39.9751 57.9917Z" fill="currentColor" fill-opacity="0.25" />
  <path d="M50.5553 54.5706L55.2825 61.0344L50.5959 54.5414L50.5807 54.5623L50.5553 54.5706Z" fill="currentColor" fill-opacity="0.25" />
  <path d="M57.1041 45.5837L64.7275 48.0344L57.1196 45.5362V45.5623L57.1041 45.5837Z" fill="currentColor" fill-opacity="0.25" />
  <path d="M57.1196 34.4377L57.1196 34.4638L64.7275 31.9656L57.1041 34.4163L57.1196 34.4377Z" fill="currentColor" fill-opacity="0.25" />
  <path d="M50.5959 25.4586L55.2825 18.9656L50.5553 25.4294L50.5807 25.4377L50.5959 25.4586Z" fill="currentColor" fill-opacity="0.25" />
  <path d="M36.4733 29.1459C38.7655 28.4011 41.2346 28.4011 43.5268 29.1459C45.8189 29.8907 47.8165 31.342 49.2331 33.2918C50.6497 35.2416 51.4127 37.5899 51.4127 40C51.4127 42.4101 50.6497 44.7584 49.2331 46.7082C47.8165 48.658 45.8189 50.1093 43.5268 50.8541C41.2346 51.5989 38.7655 51.5989 36.4733 50.8541C34.1812 50.1093 32.1836 48.658 30.767 46.7082C29.3504 44.7584 28.5874 42.4101 28.5874 40C28.5874 37.5899 29.3504 35.2416 30.767 33.2918C32.1836 31.342 34.1812 29.8907 36.4733 29.1459Z" fill="currentColor" fill-opacity="0.25" />
  <path d="M40.0001 14L40.025 22.0079L40.0006 22L39.9751 22.0083L40.0001 14Z" stroke="currentColor" stroke-width="4" stroke-linecap="round" stroke-linejoin="round" />
  <path d="M29.445 25.4297L24.7176 18.9656L29.4047 25.4593L29.4204 25.4377L29.445 25.4297Z" stroke="currentColor" stroke-width="4" stroke-linecap="round" stroke-linejoin="round" />
  <path d="M22.8969 34.4166L15.2726 31.9656L22.8815 34.4641V34.4377L22.8969 34.4166Z" stroke="currentColor" stroke-width="4" stroke-linecap="round" stroke-linejoin="round" />
  <path d="M22.8815 45.5359L15.2726 48.0344L22.8969 45.5834L22.8816 45.5623L22.8815 45.5359Z" stroke="currentColor" stroke-width="4" stroke-linecap="round" stroke-linejoin="round" />
  <path d="M29.4047 54.5407L24.7176 61.0344L29.445 54.5703L29.4205 54.5623L29.4047 54.5407Z" stroke="currentColor" stroke-width="4" stroke-linecap="round" stroke-linejoin="round" />
  <path d="M39.9751 57.9917L40.0001 66L40.025 57.9921L40.0006 58L39.9751 57.9917Z" stroke="currentColor" stroke-width="4" stroke-linecap="round" stroke-linejoin="round" />
  <path d="M50.5553 54.5706L55.2825 61.0344L50.5959 54.5414L50.5807 54.5623L50.5553 54.5706Z" stroke="currentColor" stroke-width="4" stroke-linecap="round" stroke-linejoin="round" />
  <path d="M57.1041 45.5837L64.7275 48.0344L57.1196 45.5362V45.5623L57.1041 45.5837Z" stroke="currentColor" stroke-width="4" stroke-linecap="round" stroke-linejoin="round" />
  <path d="M57.1196 34.4377L57.1196 34.4638L64.7275 31.9656L57.1041 34.4163L57.1196 34.4377Z" stroke="currentColor" stroke-width="4" stroke-linecap="round" stroke-linejoin="round" />
  <path d="M50.5959 25.4586L55.2825 18.9656L50.5553 25.4294L50.5807 25.4377L50.5959 25.4586Z" stroke="currentColor" stroke-width="4" stroke-linecap="round" stroke-linejoin="round" />
  <path d="M36.4733 29.1459C38.7655 28.4011 41.2346 28.4011 43.5268 29.1459C45.8189 29.8907 47.8165 31.342 49.2331 33.2918C50.6497 35.2416 51.4127 37.5899 51.4127 40C51.4127 42.4101 50.6497 44.7584 49.2331 46.7082C47.8165 48.658 45.8189 50.1093 43.5268 50.8541C41.2346 51.5989 38.7655 51.5989 36.4733 50.8541C34.1812 50.1093 32.1836 48.658 30.767 46.7082C29.3504 44.7584 28.5874 42.4101 28.5874 40C28.5874 37.5899 29.3504 35.2416 30.767 33.2918C32.1836 31.342 34.1812 29.8907 36.4733 29.1459Z" stroke="currentColor" stroke-width="4" stroke-linecap="round" stroke-linejoin="round" />
</svg>