<svg viewBox="0 0 80 80" fill="none">
  <path d="M40 12L46.9648 23.1854L59.799 20.201L56.8146 33.0352L68 40L56.8146 46.9648L59.799 59.799L46.9648 56.8146L40 68L33.0352 56.8146L20.201 59.799L23.1854 46.9648L12 40L23.1854 33.0352L20.201 20.201L33.0352 23.1854L40 12Z" fill="currentColor" fill-opacity="0.15" stroke="currentColor" stroke-width="4" stroke-linecap="square" stroke-linejoin="round" />
  <path d="M35.7574 29.7574C38.4739 28.6321 41.5261 28.6321 44.2426 29.7574V29.7574C46.9592 30.8826 49.1174 33.0408 50.2426 35.7574V35.7574C51.3679 38.4739 51.3679 41.5261 50.2426 44.2426V44.2426C49.1174 46.9592 46.9592 49.1174 44.2426 50.2426V50.2426C41.5261 51.3679 38.4739 51.3679 35.7574 50.2426V50.2426C33.0408 49.1174 30.8826 46.9592 29.7574 44.2426V44.2426C28.6321 41.5261 28.6321 38.4739 29.7574 35.7574V35.7574C30.8826 33.0408 33.0408 30.8826 35.7574 29.7574V29.7574Z" stroke="currentColor" stroke-width="4" stroke-linecap="square" stroke-linejoin="round" />
</svg>