<svg viewBox="0 0 80 80" fill="none">
  <path fill-rule="evenodd" clip-rule="evenodd" d="M30.7574 10.2427C33.1005 7.89956 36.8995 7.89957 39.2426 10.2427L55.2426 26.2427C56.3679 27.3679 57 28.8941 57 30.4853L57 60.0001C57 63.3138 54.3137 66.0001 51 66.0001H19C15.6863 66.0001 13 63.3138 13 60.0001V30.4854C13 28.8941 13.6321 27.3679 14.7574 26.2427L30.7574 10.2427Z" fill="currentColor" fill-opacity="0.15" />
  <path d="M55.2426 26.2427L56.6569 24.8285L55.2426 26.2427ZM57 30.4853H55H57ZM56.6569 24.8285L40.6569 8.8285L37.8284 11.6569L53.8284 27.6569L56.6569 24.8285ZM55 30.4853L55 60.0001H59L59 30.4853H55ZM51 64.0001H19V68.0001H51V64.0001ZM15 60.0001V30.4854H11V60.0001H15ZM29.3431 8.82849L13.3431 24.8285L16.1716 27.6569L32.1716 11.6569L29.3431 8.82849ZM15 30.4854C15 29.4245 15.4214 28.4071 16.1716 27.6569L13.3431 24.8285C11.8429 26.3288 11 28.3636 11 30.4854H15ZM19 64.0001C16.7909 64.0001 15 62.2092 15 60.0001H11C11 64.4183 14.5817 68.0001 19 68.0001V64.0001ZM55 60.0001C55 62.2092 53.2091 64.0001 51 64.0001V68.0001C55.4183 68.0001 59 64.4183 59 60.0001H55ZM40.6569 8.8285C37.5327 5.70431 32.4673 5.7043 29.3431 8.82849L32.1716 11.6569C33.7337 10.0948 36.2663 10.0948 37.8284 11.6569L40.6569 8.8285ZM53.8284 27.6569C54.5786 28.4071 55 29.4245 55 30.4853H59C59 28.3636 58.1572 26.3288 56.6569 24.8285L53.8284 27.6569Z" fill="currentColor" />
  <path d="M31.5 24.5C33.433 22.567 36.567 22.567 38.5 24.5C40.433 26.433 40.433 29.567 38.5 31.5C36.567 33.433 33.433 33.433 31.5 31.5C29.567 29.567 29.567 26.433 31.5 24.5Z" fill="currentColor" fill-opacity="0.15" stroke="currentColor" stroke-width="4" stroke-linecap="round" stroke-linejoin="round" />
  <path fill-rule="evenodd" clip-rule="evenodd" d="M21 66V68C21 71.3138 23.6863 74 27 74H59C62.3137 74 65 71.3138 65 68L65 38.4853C65 36.894 64.3679 35.3679 63.2426 34.2427L55.2585 26.2585C56.3738 27.3822 57 28.9015 57 30.4853L57 60C57 63.3137 54.3137 66 51 66H21Z" fill="currentColor" fill-opacity="0.15" />
  <path d="M21 66V64C19.8954 64 19 64.8954 19 66H21ZM65 68H63H65ZM65 38.4853H67H65ZM63.2426 34.2427L64.6569 32.8285V32.8285L63.2426 34.2427ZM55.2585 26.2585L56.6727 24.8443C55.8927 24.0643 54.6284 24.0631 53.8469 24.8417C53.0655 25.6202 53.0619 26.8845 53.839 27.6675L55.2585 26.2585ZM57 30.4853L59 30.4853V30.4853H57ZM57 60H55H57ZM23 68V66H19V68H23ZM27 72C24.7909 72 23 70.2092 23 68H19C19 72.4183 22.5817 76 27 76V72ZM59 72H27V76H59V72ZM63 68C63 70.2092 61.2091 72 59 72V76C63.4183 76 67 72.4183 67 68H63ZM63 38.4853L63 68H67L67 38.4853L63 38.4853ZM61.8284 35.6569C62.5786 36.4071 63 37.4245 63 38.4853H67C67 36.3636 66.1572 34.3288 64.6569 32.8285L61.8284 35.6569ZM53.8443 27.6728L61.8284 35.6569L64.6569 32.8285L56.6727 24.8443L53.8443 27.6728ZM53.839 27.6675C54.5825 28.4166 55 29.4294 55 30.4853H59C59 28.3735 58.1651 26.3479 56.678 24.8496L53.839 27.6675ZM55 30.4853L55 60H59L59 30.4853L55 30.4853ZM55 60C55 62.2091 53.2091 64 51 64V68C55.4183 68 59 64.4183 59 60H55ZM51 64H21V68H51V64Z" fill="currentColor" />
</svg>