<svg viewBox="0 0 80 80" fill="none">
  <path d="M22.7787 11.8885C20.0684 13.2437 18.3564 16.0138 18.3564 19.0439V42.7503C18.3564 43.3997 18.0346 44.0012 17.5338 44.4146C14.3766 47.0211 12.5 50.9268 12.5 55.0997C12.5 60.0501 15.141 64.6245 19.4282 67.0997C23.7154 69.5749 28.9974 69.5749 33.2846 67.0997C37.5718 64.6245 40.2128 60.0501 40.2128 55.0997C40.2128 50.9268 38.3363 47.0211 35.179 44.4146C34.6782 44.0012 34.3564 43.3997 34.3564 42.7503V19.0439C34.3564 16.0138 32.6444 13.2437 29.9341 11.8885C27.6819 10.7624 25.0309 10.7624 22.7787 11.8885Z" fill="currentColor" fill-opacity="0.25" />
  <path d="M29.7668 49.0439H23.0329C22.9995 49.0625 22.9661 49.0814 22.9329 49.1006C20.7893 50.3382 19.4688 52.6254 19.4688 55.1006C19.4688 57.5758 20.7893 59.863 22.9329 61.1006C25.0765 62.3382 27.7175 62.3382 29.8611 61.1006C32.0047 59.863 33.3252 57.5758 33.3252 55.1006C33.3252 52.6254 32.0047 50.3382 29.8611 49.1006C29.8294 49.0823 29.7979 49.0634 29.7668 49.0439Z" fill="currentColor" fill-opacity="0.25" />
  <path d="M55.5 11.0439L55.5068 17.839C55.5091 20.1457 58.0054 21.5869 60.0042 20.4356L65.8923 17.0439L60.011 20.4474C58.0145 21.6027 58.0145 24.4852 60.011 25.6405L65.8923 29.0439L60.0042 25.6523C58.0054 24.5009 55.5091 25.9422 55.5068 28.2489L55.5 35.0439L55.4932 28.2489C55.4909 25.9422 52.9946 24.5009 50.9958 25.6523L45.1077 29.0439L50.989 25.6405C52.9855 24.4852 52.9855 21.6027 50.989 20.4474L45.1077 17.0439L50.9958 20.4356C52.9946 21.5869 55.4909 20.1457 55.4932 17.839L55.5 11.0439Z" fill="currentColor" fill-opacity="0.25" />
  <path d="M52.1764 12.9635L55.5016 16.0627L58.8258 12.9644M48.4964 15.0882L49.5178 19.5175L45.108 20.8669M62.5065 15.0895L61.4854 19.5175L65.8926 20.8661M65.8926 25.0783L61.4854 26.427L62.5359 30.9825M58.9215 33.0692L55.5016 29.8817L52.0807 33.0702M48.4669 30.9838L49.5178 26.427L45.108 25.0776M18.3564 19.0439C18.3564 16.0138 20.0684 13.2437 22.7787 11.8885C25.0309 10.7624 27.6819 10.7624 29.9341 11.8885C32.6444 13.2437 34.3564 16.0138 34.3564 19.0439V42.7503C34.3564 43.3997 34.6782 44.0012 35.179 44.4146C38.3363 47.0211 40.2128 50.9268 40.2128 55.0997C40.2128 60.0501 37.5718 64.6245 33.2846 67.0997C28.9974 69.5749 23.7154 69.5749 19.4282 67.0997C15.141 64.6245 12.5 60.0501 12.5 55.0997C12.5 50.9268 14.3766 47.0211 17.5338 44.4146C18.0346 44.0012 18.3564 43.3997 18.3564 42.7503V19.0439ZM23.0329 49.0439H29.7668C29.7979 49.0634 29.8294 49.0823 29.8611 49.1006C32.0047 50.3382 33.3252 52.6254 33.3252 55.1006C33.3252 57.5758 32.0047 59.863 29.8611 61.1006C27.7175 62.3382 25.0765 62.3382 22.9329 61.1006C20.7893 59.863 19.4688 57.5758 19.4688 55.1006C19.4688 52.6254 20.7893 50.3382 22.9329 49.1006C22.9661 49.0814 22.9995 49.0625 23.0329 49.0439ZM55.5 11.0439L55.5068 17.839C55.5091 20.1457 58.0054 21.5869 60.0042 20.4356L65.8923 17.0439L60.011 20.4474C58.0145 21.6027 58.0145 24.4852 60.011 25.6405L65.8923 29.0439L60.0042 25.6523C58.0054 24.5009 55.5091 25.9422 55.5068 28.2489L55.5 35.0439L55.4932 28.2489C55.4909 25.9422 52.9946 24.5009 50.9958 25.6523L45.1077 29.0439L50.989 25.6405C52.9855 24.4852 52.9855 21.6027 50.989 20.4474L45.1077 17.0439L50.9958 20.4356C52.9946 21.5869 55.4909 20.1457 55.4932 17.839L55.5 11.0439Z" stroke="currentColor" stroke-width="4" stroke-linecap="round" stroke-linejoin="round" />
</svg>