<svg viewBox="0 0 80 80" fill="none">
  <path fill-rule="evenodd" clip-rule="evenodd" d="M22.7787 11.8885C20.0684 13.2437 18.3564 16.0138 18.3564 19.0439L18.3564 42.7503C18.3564 43.3997 18.0346 44.0012 17.5338 44.4146C14.3766 47.0211 12.5 50.9268 12.5 55.0997C12.5 60.0501 15.141 64.6245 19.4282 67.0997C23.7154 69.5749 28.9974 69.5749 33.2846 67.0997C37.5718 64.6245 40.2128 60.0501 40.2128 55.0997C40.2128 50.9268 38.3363 47.0211 35.179 44.4146C34.6782 44.0012 34.3564 43.3997 34.3564 42.7503V19.0439C34.3564 16.0138 32.6444 13.2437 29.9341 11.8885C27.6819 10.7624 25.0309 10.7624 22.7787 11.8885Z" fill="currentColor" fill-opacity="0.25" />
  <path d="M22.7787 11.8885L23.6731 13.6774V13.6774L22.7787 11.8885ZM33.2846 67.0997L34.2846 68.8317L33.2846 67.0997ZM29.9341 11.8885L29.0397 13.6774V13.6774L29.9341 11.8885ZM35.179 44.4146L33.9057 45.957L35.179 44.4146ZM17.5338 44.4146L16.2605 42.8723L17.5338 44.4146ZM20.3564 19.0439C20.3564 16.7713 21.6404 14.6937 23.6731 13.6774L21.8843 10.0997C18.4964 11.7936 16.3564 15.2562 16.3564 19.0439H20.3564ZM20.3564 42.7503L20.3564 19.0439H16.3564L16.3564 42.7503H20.3564ZM14.5 55.0997C14.5 51.5294 16.1055 48.1872 18.8071 45.957L16.2605 42.8723C12.6476 45.855 10.5 50.3242 10.5 55.0997H14.5ZM20.4282 65.3676C16.7598 63.2497 14.5 59.3356 14.5 55.0997H10.5C10.5 60.7646 13.5222 65.9993 18.4282 68.8317L20.4282 65.3676ZM32.2846 65.3676C28.6162 67.4856 24.0966 67.4856 20.4282 65.3676L18.4282 68.8317C23.3342 71.6642 29.3786 71.6642 34.2846 68.8317L32.2846 65.3676ZM38.2128 55.0997C38.2128 59.3356 35.953 63.2497 32.2846 65.3676L34.2846 68.8317C39.1906 65.9993 42.2128 60.7646 42.2128 55.0997H38.2128ZM33.9057 45.957C36.6073 48.1872 38.2128 51.5294 38.2128 55.0997H42.2128C42.2128 50.3242 40.0652 45.855 36.4523 42.8723L33.9057 45.957ZM32.3564 19.0439V42.7503H36.3564V19.0439H32.3564ZM29.0397 13.6774C31.0724 14.6937 32.3564 16.7713 32.3564 19.0439H36.3564C36.3564 15.2562 34.2164 11.7936 30.8285 10.0997L29.0397 13.6774ZM23.6731 13.6774C25.3623 12.8328 27.3505 12.8328 29.0397 13.6774L30.8285 10.0997C28.0133 8.69204 24.6995 8.69204 21.8843 10.0997L23.6731 13.6774ZM36.4523 42.8723C36.405 42.8332 36.3779 42.7946 36.3651 42.7693C36.3535 42.7463 36.3564 42.7408 36.3564 42.7503H32.3564C32.3564 44.0747 33.0087 45.2164 33.9057 45.957L36.4523 42.8723ZM16.3564 42.7503C16.3564 42.7408 16.3593 42.7463 16.3477 42.7693C16.3349 42.7946 16.3079 42.8332 16.2605 42.8723L18.8071 45.957C19.7041 45.2164 20.3564 44.0747 20.3564 42.7503H16.3564Z" fill="currentColor" />
  <path fill-rule="evenodd" clip-rule="evenodd" d="M26.5395 16.8623C27.6441 16.8623 28.5395 17.7577 28.5395 18.8623L28.5395 47.0625C28.5395 47.9267 29.1126 48.6684 29.8611 49.1006C32.0046 50.3382 33.3252 52.6254 33.3252 55.1006C33.3252 57.5758 32.0046 59.863 29.8611 61.1006C27.7175 62.3382 25.0764 62.3382 22.9329 61.1006C20.7893 59.863 19.4687 57.5758 19.4687 55.1006C19.4687 52.6254 20.7893 50.3382 22.9329 49.1006C22.9987 49.0625 23.0651 49.0257 23.1319 48.99C23.924 48.5666 24.5395 47.8044 24.5395 46.9063L24.5395 18.8623C24.5395 17.7577 25.435 16.8623 26.5395 16.8623Z" fill="currentColor" />
  <path d="M55.5 11.0439L58.4849 15.8377L63.9853 14.5587L62.7063 20.059L67.5 23.0439L62.7063 26.0289L63.9853 31.5292L58.4849 30.2502L55.5 35.0439L52.5151 30.2502L47.0147 31.5292L48.2937 26.0289L43.5 23.0439L48.2937 20.059L47.0147 14.5587L52.5151 15.8377L55.5 11.0439Z" fill="currentColor" fill-opacity="0.25" stroke="currentColor" stroke-width="4" stroke-linecap="square" stroke-linejoin="round" />
</svg>