<svg viewBox="0 0 80 80" fill="none">
  <path d="M22.7787 11.8885C20.0684 13.2437 18.3564 16.0138 18.3564 19.0439V42.7503C18.3564 43.3997 18.0346 44.0012 17.5338 44.4146C14.3766 47.0211 12.5 50.9268 12.5 55.0997C12.5 60.0501 15.141 64.6245 19.4282 67.0997C23.7154 69.5749 28.9974 69.5749 33.2846 67.0997C37.5718 64.6245 40.2128 60.0501 40.2128 55.0997C40.2128 50.9268 38.3363 47.0211 35.179 44.4146C34.6782 44.0012 34.3564 43.3997 34.3564 42.7503V19.0439C34.3564 16.0138 32.6444 13.2437 29.9341 11.8885C27.6819 10.7624 25.0309 10.7624 22.7787 11.8885Z" fill="currentColor" fill-opacity="0.25" />
  <path d="M26.5396 16.8623C27.6442 16.8623 28.5396 17.7577 28.5396 18.8623V47.0625C28.5396 47.9267 29.1126 48.6684 29.8611 49.1006C32.0047 50.3382 33.3252 52.6254 33.3252 55.1006C33.3252 57.5758 32.0047 59.863 29.8611 61.1006C27.7175 62.3382 25.0765 62.3382 22.9329 61.1006C20.7893 59.863 19.4688 57.5758 19.4688 55.1006C19.4688 52.6254 20.7893 50.3382 22.9329 49.1006C22.9988 49.0625 23.0652 49.0257 23.132 48.99C23.924 48.5666 24.5396 47.8044 24.5396 46.9063V18.8623C24.5396 17.7577 25.435 16.8623 26.5396 16.8623Z" fill="currentColor" fill-opacity="0.25" />
  <path d="M55.5 11.0439L58.4849 15.8377L63.9853 14.5587L62.7063 20.059L67.5 23.0439L62.7063 26.0289L63.9853 31.5292L58.4849 30.2502L55.5 35.0439L52.5151 30.2502L47.0147 31.5292L48.2937 26.0289L43.5 23.0439L48.2937 20.059L47.0147 14.5587L52.5151 15.8377L55.5 11.0439Z" fill="currentColor" fill-opacity="0.25" />
  <path d="M22.7787 11.8885C20.0684 13.2437 18.3564 16.0138 18.3564 19.0439V42.7503C18.3564 43.3997 18.0346 44.0012 17.5338 44.4146C14.3766 47.0211 12.5 50.9268 12.5 55.0997C12.5 60.0501 15.141 64.6245 19.4282 67.0997C23.7154 69.5749 28.9974 69.5749 33.2846 67.0997C37.5718 64.6245 40.2128 60.0501 40.2128 55.0997C40.2128 50.9268 38.3363 47.0211 35.179 44.4146C34.6782 44.0012 34.3564 43.3997 34.3564 42.7503V19.0439C34.3564 16.0138 32.6444 13.2437 29.9341 11.8885C27.6819 10.7624 25.0309 10.7624 22.7787 11.8885Z" stroke="currentColor" stroke-linecap="round" stroke-linejoin="round" />
  <path d="M26.5396 16.8623C27.6442 16.8623 28.5396 17.7577 28.5396 18.8623V47.0625C28.5396 47.9267 29.1126 48.6684 29.8611 49.1006C32.0047 50.3382 33.3252 52.6254 33.3252 55.1006C33.3252 57.5758 32.0047 59.863 29.8611 61.1006C27.7175 62.3382 25.0765 62.3382 22.9329 61.1006C20.7893 59.863 19.4688 57.5758 19.4688 55.1006C19.4688 52.6254 20.7893 50.3382 22.9329 49.1006C22.9988 49.0625 23.0652 49.0257 23.132 48.99C23.924 48.5666 24.5396 47.8044 24.5396 46.9063V18.8623C24.5396 17.7577 25.435 16.8623 26.5396 16.8623Z" stroke="currentColor" stroke-linecap="round" stroke-linejoin="round" />
  <path d="M55.5 11.0439L58.4849 15.8377L63.9853 14.5587L62.7063 20.059L67.5 23.0439L62.7063 26.0289L63.9853 31.5292L58.4849 30.2502L55.5 35.0439L52.5151 30.2502L47.0147 31.5292L48.2937 26.0289L43.5 23.0439L48.2937 20.059L47.0147 14.5587L52.5151 15.8377L55.5 11.0439Z" stroke="currentColor" stroke-linecap="round" stroke-linejoin="round" />
</svg>