<svg viewBox="0 0 80 80" fill="none">
  <path fill-rule="evenodd" clip-rule="evenodd" d="M33.8562 54H56.7886C60.6022 54 64.2558 52.4673 66.9281 49.7465L67.0765 49.5953C69.5914 47.0347 71.0005 43.5891 71.0005 40C71.0005 36.4109 69.5914 32.9653 67.0765 30.4047L66.9281 30.2535C64.2558 27.5327 60.6022 26 56.7886 26L33.8562 26C34.1732 26.1553 34.4861 26.3219 34.7945 26.5C39.6176 29.2846 42.5888 34.4308 42.5888 40C42.5888 45.5692 39.6176 50.7154 34.7945 53.5C34.4861 53.6781 34.1732 53.8447 33.8562 54Z" fill="currentColor" fill-opacity="0.15" />
  <path d="M33.8562 54L32.9763 52.204C32.1406 52.6134 31.6977 53.5451 31.9079 54.4516C32.118 55.3582 32.9256 56 33.8562 56V54ZM66.9281 49.7465L65.5012 48.3451L65.5012 48.3451L66.9281 49.7465ZM67.0765 49.5953L68.5034 50.9967L68.5034 50.9967L67.0765 49.5953ZM67.0765 30.4047L68.5034 29.0033L68.5034 29.0033L67.0765 30.4047ZM66.9281 30.2535L65.5012 31.6549L65.5012 31.6549L66.9281 30.2535ZM56.7886 26V24V26ZM33.8562 26L33.8562 24C32.9256 24 32.118 24.6418 31.9079 25.5484C31.6977 26.4549 32.1406 27.3866 32.9763 27.796L33.8562 26ZM34.7945 26.5L35.7945 24.7679V24.7679L34.7945 26.5ZM34.7945 53.5L33.7945 51.768L33.7945 51.768L34.7945 53.5ZM33.8562 56H56.7886V52H33.8562V56ZM56.7886 56C61.1389 56 65.3067 54.2516 68.355 51.1479L65.5012 48.3451C63.205 50.683 60.0655 52 56.7886 52V56ZM68.355 51.1479L68.5034 50.9967L65.6497 48.1939L65.5012 48.3451L68.355 51.1479ZM68.5034 50.9967C71.3856 48.0621 73.0005 44.1133 73.0005 40H69.0005C69.0005 43.0649 67.7972 46.0073 65.6496 48.1939L68.5034 50.9967ZM73.0005 40C73.0005 35.8867 71.3856 31.9379 68.5034 29.0033L65.6496 31.8061C67.7972 33.9927 69.0005 36.9351 69.0005 40H73.0005ZM68.5034 29.0033L68.3549 28.8521L65.5012 31.6549L65.6497 31.8061L68.5034 29.0033ZM68.355 28.8521C65.3067 25.7484 61.1389 24 56.7886 24V28C60.0655 28 63.205 29.317 65.5012 31.6549L68.355 28.8521ZM56.7886 24L33.8562 24L33.8562 28L56.7886 28V24ZM32.9763 27.796C33.2526 27.9314 33.5255 28.0767 33.7945 28.2321L35.7945 24.7679C35.4467 24.5672 35.0937 24.3791 34.7361 24.204L32.9763 27.796ZM33.7945 28.2321C37.9988 30.6594 40.5888 35.1453 40.5888 40H44.5888C44.5888 33.7163 41.2364 27.9098 35.7945 24.7679L33.7945 28.2321ZM40.5888 40C40.5888 44.8547 37.9988 49.3406 33.7945 51.768L35.7945 55.2321C41.2364 52.0902 44.5888 46.2838 44.5888 40H40.5888ZM33.7945 51.768C33.5255 51.9233 33.2526 52.0686 32.9763 52.204L34.7361 55.796C35.0937 55.6209 35.4467 55.4328 35.7945 55.2321L33.7945 51.768Z" fill="currentColor" />
  <path d="M19.2055 26.5C24.0286 23.7154 29.9709 23.7154 34.794 26.5C39.6171 29.2846 42.5882 34.4308 42.5882 40C42.5882 45.5692 39.6171 50.7154 34.794 53.5C29.9709 56.2846 24.0286 56.2846 19.2055 53.5C14.3824 50.7154 11.4113 45.5692 11.4113 40C11.4113 34.4308 14.3824 29.2846 19.2055 26.5Z" fill="currentColor" fill-opacity="0.15" stroke="currentColor" stroke-width="4" stroke-linecap="round" stroke-linejoin="round" />
</svg>