<svg viewBox="0 0 80 80" fill="none">
  <path fill-rule="evenodd" clip-rule="evenodd" d="M12.1258 20.6104L14.1679 22.6525L14.5215 23.0061L19.4705 27.9551L19.4735 27.9521L22.6293 31.1079L29.3166 29.316L31.1084 22.6287L27.9527 19.473L27.9558 19.4698L23.0067 14.5208L22.6532 14.1672L20.6114 12.1254C21.2243 11.8734 21.8572 11.6588 22.5073 11.4846C27.8868 10.0432 33.6266 11.5812 37.5646 15.5192C41.5027 19.4573 43.0406 25.1971 41.5992 30.5765C41.4042 31.3043 41.1587 32.0106 40.8665 32.6914L64.5703 56.3952C66.9134 58.7383 66.9134 62.5373 64.5703 64.8804C62.2271 67.2236 58.4281 67.2236 56.085 64.8804L39.6279 48.4233C39.9825 46.2724 39.3304 43.9878 37.6713 42.3288C35.0316 39.689 30.808 39.5983 28.0594 42.0567C23.4625 42.5067 18.8474 40.8928 15.5192 37.5646C11.5812 33.6266 10.0432 27.8868 11.4846 22.5073C11.6589 21.8569 11.8736 21.2236 12.1258 20.6104Z" fill="currentColor" fill-opacity="0.15" />
  <path d="M14.1679 22.6525L12.7537 24.0667L12.7537 24.0667L14.1679 22.6525ZM12.1258 20.6104L13.54 19.1962C13.0671 18.7232 12.389 18.518 11.7332 18.6493C11.0773 18.7806 10.5305 19.2311 10.2761 19.8497L12.1258 20.6104ZM14.5215 23.0061L15.9357 21.5918L15.9357 21.5918L14.5215 23.0061ZM19.4705 27.9551L18.0563 29.3693C18.8373 30.1503 20.1034 30.1504 20.8845 29.3696L19.4705 27.9551ZM19.4735 27.9521L20.8877 26.5379C20.1068 25.7569 18.8406 25.7568 18.0595 26.5377L19.4735 27.9521ZM22.6293 31.1079L21.2151 32.5221C21.7203 33.0273 22.4567 33.2247 23.1469 33.0397L22.6293 31.1079ZM29.3166 29.316L29.8342 31.2479C30.5244 31.0629 31.0635 30.5238 31.2484 29.8337L29.3166 29.316ZM31.1084 22.6287L33.0403 23.1464C33.2252 22.4562 33.0279 21.7198 32.5226 21.2145L31.1084 22.6287ZM27.9527 19.473L26.5385 18.0588C26.1634 18.4338 25.9527 18.9425 25.9527 19.473C25.9527 20.0034 26.1634 20.5121 26.5385 20.8872L27.9527 19.473ZM27.9558 19.4698L29.37 20.884C30.1511 20.103 30.1511 18.8367 29.37 18.0556L27.9558 19.4698ZM23.0067 14.5208L24.421 13.1066L24.421 13.1066L23.0067 14.5208ZM22.6532 14.1672L21.239 15.5814L21.239 15.5814L22.6532 14.1672ZM20.6114 12.1254L19.8508 10.2757C19.2321 10.5301 18.7816 11.0768 18.6503 11.7327C18.519 12.3886 18.7242 13.0666 19.1972 13.5396L20.6114 12.1254ZM22.5073 11.4846L21.9897 9.55279L21.9897 9.55279L22.5073 11.4846ZM37.5646 15.5192L36.1504 16.9334V16.9334L37.5646 15.5192ZM41.5992 30.5765L43.5311 31.0942V31.0942L41.5992 30.5765ZM40.8665 32.6914L39.0286 31.9027C38.7059 32.6545 38.8738 33.5271 39.4523 34.1056L40.8665 32.6914ZM64.5703 56.3952L65.9845 54.9809L64.5703 56.3952ZM56.085 64.8804L54.6708 66.2947L56.085 64.8804ZM39.6279 48.4233L37.6545 48.0979C37.5496 48.734 37.7578 49.3817 38.2136 49.8375L39.6279 48.4233ZM37.6713 42.3288L39.0855 40.9145L37.6713 42.3288ZM28.0594 42.0567L28.2543 44.0472C28.6773 44.0058 29.076 43.8307 29.3928 43.5474L28.0594 42.0567ZM15.5192 37.5646L16.9334 36.1504L15.5192 37.5646ZM11.4846 22.5073L9.55279 21.9897L9.55279 21.9897L11.4846 22.5073ZM36.2571 40.9145L34.8429 42.3288L37.6713 45.1572L39.0855 43.743L36.2571 40.9145ZM45.5018 37.3267L46.916 35.9125L44.0876 33.0841L42.6734 34.4983L45.5018 37.3267ZM15.5821 21.2383L13.54 19.1962L10.7116 22.0246L12.7537 24.0667L15.5821 21.2383ZM15.9357 21.5918L15.5821 21.2383L12.7537 24.0667L13.1073 24.4203L15.9357 21.5918ZM20.8847 26.5409L15.9357 21.5918L13.1073 24.4203L18.0563 29.3693L20.8847 26.5409ZM18.0595 26.5377L18.0565 26.5407L20.8845 29.3696L20.8875 29.3666L18.0595 26.5377ZM24.0435 29.6937L20.8877 26.5379L18.0593 29.3663L21.2151 32.5221L24.0435 29.6937ZM28.7989 27.3842L22.1116 29.176L23.1469 33.0397L29.8342 31.2479L28.7989 27.3842ZM29.1766 22.1111L27.3847 28.7984L31.2484 29.8337L33.0403 23.1464L29.1766 22.1111ZM26.5385 20.8872L29.6942 24.0429L32.5226 21.2145L29.3669 18.0588L26.5385 20.8872ZM26.5416 18.0556L26.5385 18.0588L29.3669 20.8872L29.37 20.884L26.5416 18.0556ZM21.5925 15.935L26.5416 20.884L29.37 18.0556L24.421 13.1066L21.5925 15.935ZM21.239 15.5814L21.5925 15.935L24.421 13.1066L24.0674 12.753L21.239 15.5814ZM19.1972 13.5396L21.239 15.5814L24.0674 12.753L22.0256 10.7112L19.1972 13.5396ZM21.9897 9.55279C21.2565 9.74925 20.5424 9.99125 19.8508 10.2757L21.372 13.9751C21.9062 13.7555 22.4579 13.5684 23.025 13.4165L21.9897 9.55279ZM38.9789 14.105C34.5356 9.66174 28.0593 7.92644 21.9897 9.55279L23.025 13.4165C27.7143 12.16 32.7176 13.5007 36.1504 16.9334L38.9789 14.105ZM43.5311 31.0942C45.1574 25.0245 43.4221 18.5483 38.9789 14.105L36.1504 16.9334C39.5832 20.3662 40.9239 25.3696 39.6674 30.0589L43.5311 31.0942ZM42.7044 33.4801C43.0341 32.7118 43.3111 31.915 43.5311 31.0942L39.6674 30.0589C39.4973 30.6937 39.2832 31.3094 39.0286 31.9027L42.7044 33.4801ZM65.9845 54.9809L42.2807 31.2772L39.4523 34.1056L63.1561 57.8094L65.9845 54.9809ZM65.9845 66.2947C69.1087 63.1705 69.1087 58.1051 65.9845 54.9809L63.1561 57.8094C64.7181 59.3715 64.7182 61.9041 63.1561 63.4662L65.9845 66.2947ZM54.6708 66.2947C57.795 69.4188 62.8603 69.4188 65.9845 66.2947L63.1561 63.4662C61.594 65.0283 59.0613 65.0283 57.4992 63.4662L54.6708 66.2947ZM38.2136 49.8375L54.6708 66.2947L57.4992 63.4662L41.0421 47.0091L38.2136 49.8375ZM36.2571 43.743C37.441 44.9269 37.9088 46.5558 37.6545 48.0979L41.6012 48.7487C42.0563 45.9891 41.2197 43.0487 39.0855 40.9145L36.2571 43.743ZM29.3928 43.5474C31.3547 41.7926 34.372 41.8579 36.2571 43.743L39.0855 40.9145C35.6911 37.5201 30.2613 37.404 26.7261 40.566L29.3928 43.5474ZM14.105 38.9789C17.8604 42.7343 23.0676 44.555 28.2543 44.0472L27.8646 40.0662C23.8575 40.4585 19.8344 39.0514 16.9334 36.1504L14.105 38.9789ZM9.55279 21.9897C7.92644 28.0593 9.66174 34.5356 14.105 38.9789L16.9334 36.1504C13.5007 32.7176 12.16 27.7143 13.4165 23.025L9.55279 21.9897ZM10.2761 19.8497C9.99151 20.5417 9.74936 21.2561 9.55279 21.9897L13.4165 23.025C13.5685 22.4576 13.7557 21.9056 13.9755 21.3711L10.2761 19.8497ZM39.0855 43.743L45.5018 37.3267L42.6734 34.4983L36.2571 40.9145L39.0855 43.743Z" fill="currentColor" />
  <path d="M37.6714 42.3284L48.9851 31.0146" stroke="currentColor" stroke-width="4" stroke-linecap="square" stroke-linejoin="round" />
  <path d="M63.1271 11.216L68.784 16.8728L57.6547 30.8305L48.985 31.015L49.1694 22.3452L63.1271 11.216Z" fill="currentColor" fill-opacity="0.15" stroke="currentColor" stroke-width="4" stroke-linecap="square" stroke-linejoin="round" />
  <path d="M27.7719 42.3287C30.5056 39.595 34.9378 39.595 37.6714 42.3287C40.4051 45.0623 40.4051 49.4945 37.6714 52.2282L21.408 68.4916C20.6269 69.2727 19.3606 69.2727 18.5795 68.4916L11.5085 61.4205C10.7274 60.6395 10.7274 59.3732 11.5085 58.5921L27.7719 42.3287Z" fill="currentColor" fill-opacity="0.15" stroke="currentColor" stroke-width="4" stroke-linecap="square" stroke-linejoin="round" />
</svg>