<svg viewBox="0 0 80 80" fill="none">
  <path d="M12.1258 20.6104L19.4705 27.9551L19.4735 27.9521L22.6293 31.1079L29.3166 29.316L31.1084 22.6287L27.9527 19.473L27.9558 19.4698L20.6114 12.1254C21.2243 11.8734 21.8572 11.6588 22.5074 11.4846C27.8868 10.0432 33.6266 11.5812 37.5646 15.5192C41.5027 19.4573 43.0407 25.1971 41.5992 30.5765C41.4042 31.3043 41.1587 32.0106 40.8665 32.6914L64.5703 56.3952C66.9134 58.7383 66.9134 62.5373 64.5703 64.8804C62.2271 67.2236 58.4281 67.2236 56.085 64.8804L39.6279 48.4233C39.9825 46.2724 39.3304 43.9878 37.6713 42.3288C35.0316 39.689 30.808 39.5983 28.0595 42.0567C23.4626 42.5067 18.8474 40.8928 15.5192 37.5646C11.5812 33.6266 10.0432 27.8868 11.4847 22.5073C11.6589 21.8569 11.8736 21.2236 12.1258 20.6104Z" fill="currentColor" fill-opacity="0.25" />
  <path d="M63.1272 11.216L68.784 16.8729L57.6548 30.8306L48.9851 31.015L49.1695 22.3453L63.1272 11.216Z" fill="currentColor" fill-opacity="0.25" />
  <path d="M27.7719 42.3287C30.5055 39.5951 34.9377 39.5951 37.6713 42.3288C40.405 45.0624 40.405 49.4946 37.6713 52.2282L21.4079 68.4917C20.6268 69.2727 19.3605 69.2727 18.5795 68.4917L11.5084 61.4206C10.7273 60.6396 10.7273 59.3732 11.5084 58.5922L27.7719 42.3287Z" fill="currentColor" fill-opacity="0.25" />
  <path d="M37.6713 42.3288C39.3304 43.9878 39.9825 46.2724 39.6279 48.4233L56.085 64.8804C58.4281 67.2236 62.2271 67.2236 64.5703 64.8804C66.9134 62.5373 66.9134 58.7383 64.5703 56.3952L40.8665 32.6914C41.1587 32.0106 41.4042 31.3043 41.5992 30.5765C43.0407 25.1971 41.5027 19.4573 37.5646 15.5192C33.6266 11.5812 27.8868 10.0432 22.5074 11.4846C21.8572 11.6588 21.2243 11.8734 20.6114 12.1254L27.9558 19.4698L27.9527 19.473L31.1084 22.6287L29.3166 29.316L22.6293 31.1079L19.4735 27.9521L19.4705 27.9551L12.1258 20.6104C11.8736 21.2236 11.6589 21.8569 11.4847 22.5073C10.0432 27.8868 11.5812 33.6266 15.5192 37.5646C18.8474 40.8928 23.4626 42.5067 28.0595 42.0567C30.808 39.5983 35.0316 39.689 37.6713 42.3288ZM37.6713 42.3288L44.0876 35.9125M37.6713 42.3288L48.9851 31.015M37.6713 42.3288C40.405 45.0624 40.405 49.4946 37.6713 52.2282L21.4079 68.4917C20.6268 69.2727 19.3605 69.2727 18.5795 68.4917L11.5084 61.4206C10.7273 60.6396 10.7273 59.3732 11.5084 58.5922L27.7719 42.3287C30.5055 39.5951 34.9377 39.5951 37.6713 42.3288ZM48.9851 31.015L57.6548 30.8306L68.784 16.8729L63.1272 11.216L49.1695 22.3453L48.9851 31.015Z" stroke="currentColor" stroke-linecap="round" stroke-linejoin="round" />
</svg>