<svg viewBox="0 0 80 80" fill="none">
  <path d="M30 14C28.8954 14 28 14.8954 28 16C28 17.1046 28.8954 18 30 18V14ZM52 66C53.1046 66 54 65.1046 54 64C54 62.8954 53.1046 62 52 62V66ZM45.8505 37.0748L46.7449 38.8636L45.8505 37.0748ZM40 40L39.1056 38.2111L40 40ZM30 18L40.8754 18V14L30 14V18ZM29 66H52V62L29 62V66ZM44.956 35.2859L39.1056 38.2111L40.8944 41.7889L46.7449 38.8636L44.956 35.2859ZM26 59.4164V63H30V59.4164H26ZM29 62C29.5523 62 30 62.4477 30 63H26C26 64.6569 27.3431 66 29 66V62ZM39.1056 38.2111C31.0736 42.2271 26 50.4364 26 59.4164H30C30 51.9515 34.2176 45.1273 40.8944 41.7889L39.1056 38.2111ZM50 27.1246C50 30.5808 48.0473 33.7403 44.956 35.2859L46.7449 38.8636C51.1913 36.6404 54 32.0958 54 27.1246H50ZM40.8754 18C45.9148 18 50 22.0852 50 27.1246H54C54 19.8761 48.1239 14 40.8754 14V18Z" fill="currentColor" />
</svg>