<svg viewBox="0 0 80 80" fill="none">
  <path d="M39 11L42.135 11.1761L45.2306 11.702L48.2478 12.5713L51.1487 13.7729L53.8969 15.2917L56.4577 17.1087L58.799 19.201L60.8913 21.5423L62.7083 24.1031L64.2271 26.8513L65.4287 29.7522L66.298 32.7694L66.8239 35.865L67 39L66.8239 42.135L66.298 45.2306L65.4287 48.2478L64.2271 51.1487L62.7083 53.8969L60.8913 56.4577L58.799 58.799L56.4577 60.8913L53.8969 62.7083L51.1487 64.2271L48.2478 65.4287L45.2306 66.298L42.135 66.8239L39 67L35.865 66.8239L32.7694 66.298L29.7522 65.4287L26.8513 64.2271L24.1031 62.7083L21.5423 60.8913L19.201 58.799L17.1087 56.4577L15.2917 53.8969L13.7729 51.1487L12.5713 48.2478L11.702 45.2306L11.1761 42.135L11 39L11.1761 35.865L11.702 32.7694L12.5713 29.7522L13.7729 26.8513L15.2917 24.1031L17.1087 21.5423L19.201 19.201L21.5423 17.1087L24.1031 15.2917L26.8513 13.7729L29.7522 12.5713L32.7694 11.702L35.865 11.1761L39 11Z" fill="currentColor" fill-opacity="0.15" />
  <path d="M39 11L39.1121 9.00315C39.0374 8.99895 38.9626 8.99895 38.8879 9.00315L39 11ZM42.135 11.1761L42.47 9.20432C42.3963 9.19178 42.3218 9.1834 42.2471 9.1792L42.135 11.1761ZM45.2306 11.702L45.7843 9.78018C45.7124 9.75947 45.6394 9.74281 45.5656 9.73028L45.2306 11.702ZM48.2478 12.5713L49.0132 10.7235C48.9441 10.6949 48.8734 10.6701 48.8015 10.6494L48.2478 12.5713ZM51.1487 13.7729L52.1162 12.0224C52.0507 11.9862 51.9832 11.9537 51.9141 11.9251L51.1487 13.7729ZM53.8969 15.2917L55.0542 13.6606C54.9932 13.6173 54.9298 13.5775 54.8643 13.5413L53.8969 15.2917ZM56.4577 17.1087L57.7904 15.6174C57.7346 15.5676 57.6761 15.5209 57.6151 15.4776L56.4577 17.1087ZM58.799 19.201L60.2903 17.8683C60.2404 17.8125 60.1875 17.7596 60.1317 17.7097L58.799 19.201ZM60.8913 21.5423L62.5224 20.3849C62.4791 20.3239 62.4324 20.2654 62.3826 20.2096L60.8913 21.5423ZM62.7083 24.1031L64.4587 23.1357C64.4225 23.0702 64.3827 23.0068 64.3394 22.9458L62.7083 24.1031ZM64.2271 26.8513L66.0749 26.0859C66.0463 26.0168 66.0138 25.9493 65.9776 25.8838L64.2271 26.8513ZM65.4287 29.7522L67.3506 29.1985C67.3299 29.1266 67.3051 29.0559 67.2765 28.9868L65.4287 29.7522ZM66.298 32.7694L68.2697 32.4344C68.2572 32.3606 68.2405 32.2876 68.2198 32.2157L66.298 32.7694ZM66.8239 35.865L68.8208 35.7529C68.8166 35.6782 68.8082 35.6037 68.7957 35.53L66.8239 35.865ZM67 39L68.9969 39.1121C69.001 39.0374 69.001 38.9626 68.9969 38.8879L67 39ZM66.8239 42.135L68.7957 42.47C68.8082 42.3963 68.8166 42.3218 68.8208 42.2471L66.8239 42.135ZM66.298 45.2306L68.2198 45.7843C68.2405 45.7124 68.2572 45.6394 68.2697 45.5656L66.298 45.2306ZM65.4287 48.2478L67.2765 49.0132C67.3051 48.9441 67.3299 48.8734 67.3506 48.8015L65.4287 48.2478ZM64.2271 51.1487L65.9776 52.1162C66.0138 52.0507 66.0463 51.9832 66.0749 51.9141L64.2271 51.1487ZM62.7083 53.8969L64.3394 55.0542C64.3827 54.9932 64.4225 54.9298 64.4587 54.8643L62.7083 53.8969ZM60.8913 56.4577L62.3826 57.7904C62.4324 57.7346 62.4791 57.6761 62.5224 57.6151L60.8913 56.4577ZM58.799 58.799L60.1317 60.2903C60.1875 60.2404 60.2404 60.1875 60.2903 60.1317L58.799 58.799ZM56.4577 60.8913L57.6151 62.5224C57.6761 62.4791 57.7346 62.4324 57.7904 62.3826L56.4577 60.8913ZM53.8969 62.7083L54.8643 64.4587C54.9298 64.4225 54.9932 64.3827 55.0542 64.3394L53.8969 62.7083ZM51.1487 64.2271L51.9141 66.0749C51.9832 66.0463 52.0507 66.0138 52.1162 65.9776L51.1487 64.2271ZM48.2478 65.4287L48.8015 67.3506C48.8734 67.3299 48.9441 67.3051 49.0132 67.2765L48.2478 65.4287ZM45.2306 66.298L45.5656 68.2697C45.6394 68.2572 45.7124 68.2405 45.7843 68.2198L45.2306 66.298ZM42.135 66.8239L42.2471 68.8208C42.3218 68.8166 42.3963 68.8082 42.47 68.7957L42.135 66.8239ZM39 67L38.8879 68.9969C38.9626 69.001 39.0374 69.001 39.1121 68.9969L39 67ZM35.865 66.8239L35.53 68.7957C35.6037 68.8082 35.6782 68.8166 35.7529 68.8208L35.865 66.8239ZM32.7694 66.298L32.2157 68.2198C32.2876 68.2405 32.3606 68.2572 32.4344 68.2697L32.7694 66.298ZM29.7522 65.4287L28.9868 67.2765C29.0559 67.3051 29.1266 67.3299 29.1985 67.3506L29.7522 65.4287ZM26.8513 64.2271L25.8838 65.9776C25.9493 66.0138 26.0168 66.0463 26.0859 66.0749L26.8513 64.2271ZM24.1031 62.7083L22.9458 64.3394C23.0068 64.3827 23.0702 64.4225 23.1357 64.4587L24.1031 62.7083ZM21.5423 60.8913L20.2096 62.3826C20.2654 62.4324 20.3239 62.4791 20.3849 62.5224L21.5423 60.8913ZM19.201 58.799L17.7097 60.1317C17.7596 60.1875 17.8125 60.2404 17.8683 60.2903L19.201 58.799ZM17.1087 56.4577L15.4776 57.6151C15.5209 57.6761 15.5676 57.7346 15.6174 57.7904L17.1087 56.4577ZM15.2917 53.8969L13.5413 54.8643C13.5775 54.9298 13.6173 54.9932 13.6606 55.0542L15.2917 53.8969ZM13.7729 51.1487L11.9251 51.9141C11.9537 51.9832 11.9862 52.0507 12.0224 52.1162L13.7729 51.1487ZM12.5713 48.2478L10.6494 48.8015C10.6701 48.8734 10.6949 48.9441 10.7235 49.0132L12.5713 48.2478ZM11.702 45.2306L9.73028 45.5656C9.74281 45.6394 9.75947 45.7124 9.78018 45.7843L11.702 45.2306ZM11.1761 42.135L9.1792 42.2471C9.1834 42.3218 9.19178 42.3963 9.20432 42.47L11.1761 42.135ZM11 39L9.00315 38.8879C8.99895 38.9626 8.99895 39.0374 9.00315 39.1121L11 39ZM11.1761 35.865L9.20432 35.53C9.19178 35.6037 9.1834 35.6782 9.1792 35.7529L11.1761 35.865ZM11.702 32.7694L9.78018 32.2157C9.75947 32.2876 9.74281 32.3606 9.73028 32.4344L11.702 32.7694ZM12.5713 29.7522L10.7235 28.9868C10.6949 29.0559 10.6701 29.1266 10.6494 29.1985L12.5713 29.7522ZM13.7729 26.8513L12.0224 25.8838C11.9862 25.9493 11.9537 26.0168 11.9251 26.0859L13.7729 26.8513ZM15.2917 24.1031L13.6606 22.9458C13.6173 23.0068 13.5775 23.0702 13.5413 23.1357L15.2917 24.1031ZM17.1087 21.5423L15.6174 20.2096C15.5676 20.2654 15.5209 20.3239 15.4776 20.3849L17.1087 21.5423ZM19.201 19.201L17.8683 17.7097C17.8125 17.7596 17.7596 17.8125 17.7097 17.8683L19.201 19.201ZM21.5423 17.1087L20.3849 15.4776C20.3239 15.5209 20.2654 15.5676 20.2096 15.6174L21.5423 17.1087ZM24.1031 15.2917L23.1357 13.5413C23.0702 13.5775 23.0068 13.6173 22.9458 13.6606L24.1031 15.2917ZM26.8513 13.7729L26.0859 11.9251C26.0168 11.9537 25.9493 11.9862 25.8838 12.0224L26.8513 13.7729ZM29.7522 12.5713L29.1985 10.6494C29.1266 10.6701 29.0559 10.6949 28.9868 10.7235L29.7522 12.5713ZM32.7694 11.702L32.4344 9.73028C32.3606 9.74281 32.2876 9.75947 32.2157 9.78018L32.7694 11.702ZM35.865 11.1761L35.7529 9.1792C35.6782 9.1834 35.6037 9.19178 35.53 9.20432L35.865 11.1761ZM38.8879 12.9969L42.0229 13.1729L42.2471 9.1792L39.1121 9.00315L38.8879 12.9969ZM41.8 13.1478L44.8956 13.6738L45.5656 9.73028L42.47 9.20432L41.8 13.1478ZM44.6769 13.6239L47.6941 14.4931L48.8015 10.6494L45.7843 9.78018L44.6769 13.6239ZM47.4824 14.419L50.3834 15.6206L51.9141 11.9251L49.0132 10.7235L47.4824 14.419ZM50.1813 15.5233L52.9295 17.0422L54.8643 13.5413L52.1162 12.0224L50.1813 15.5233ZM52.7396 16.9228L55.3004 18.7398L57.6151 15.4776L55.0542 13.6606L52.7396 16.9228ZM55.125 18.6L57.4663 20.6923L60.1317 17.7097L57.7904 15.6174L55.125 18.6ZM57.3077 20.5337L59.4 22.875L62.3826 20.2096L60.2903 17.8683L57.3077 20.5337ZM59.2602 22.6996L61.0772 25.2604L64.3394 22.9458L62.5224 20.3849L59.2602 22.6996ZM60.9578 25.0705L62.4767 27.8187L65.9776 25.8838L64.4587 23.1357L60.9578 25.0705ZM62.3794 27.6166L63.581 30.5176L67.2765 28.9868L66.0749 26.0859L62.3794 27.6166ZM63.5069 30.3059L64.3761 33.3231L68.2198 32.2157L67.3506 29.1985L63.5069 30.3059ZM64.3262 33.1044L64.8522 36.2L68.7957 35.53L68.2697 32.4344L64.3262 33.1044ZM64.8271 35.9771L65.0031 39.1121L68.9969 38.8879L68.8208 35.7529L64.8271 35.9771ZM65.0031 38.8879L64.8271 42.0229L68.8208 42.2471L68.9969 39.1121L65.0031 38.8879ZM64.8522 41.8L64.3262 44.8956L68.2697 45.5656L68.7957 42.47L64.8522 41.8ZM64.3761 44.6769L63.5069 47.6941L67.3506 48.8015L68.2198 45.7843L64.3761 44.6769ZM63.581 47.4824L62.3794 50.3834L66.0749 51.9141L67.2765 49.0132L63.581 47.4824ZM62.4767 50.1813L60.9578 52.9295L64.4587 54.8643L65.9776 52.1162L62.4767 50.1813ZM61.0772 52.7396L59.2602 55.3004L62.5224 57.6151L64.3394 55.0542L61.0772 52.7396ZM59.4 55.125L57.3077 57.4663L60.2903 60.1317L62.3826 57.7904L59.4 55.125ZM57.4663 57.3077L55.125 59.4L57.7904 62.3826L60.1317 60.2903L57.4663 57.3077ZM55.3004 59.2602L52.7396 61.0772L55.0542 64.3394L57.6151 62.5224L55.3004 59.2602ZM52.9295 60.9578L50.1813 62.4767L52.1162 65.9776L54.8643 64.4587L52.9295 60.9578ZM50.3834 62.3794L47.4824 63.581L49.0132 67.2765L51.9141 66.0749L50.3834 62.3794ZM47.6941 63.5069L44.6769 64.3761L45.7843 68.2198L48.8015 67.3506L47.6941 63.5069ZM44.8956 64.3262L41.8 64.8522L42.47 68.7957L45.5656 68.2697L44.8956 64.3262ZM42.0229 64.8271L38.8879 65.0031L39.1121 68.9969L42.2471 68.8208L42.0229 64.8271ZM39.1121 65.0031L35.9771 64.8271L35.7529 68.8208L38.8879 68.9969L39.1121 65.0031ZM36.2 64.8522L33.1044 64.3262L32.4344 68.2697L35.53 68.7957L36.2 64.8522ZM33.3231 64.3761L30.3059 63.5069L29.1985 67.3506L32.2157 68.2198L33.3231 64.3761ZM30.5176 63.581L27.6166 62.3794L26.0859 66.0749L28.9868 67.2765L30.5176 63.581ZM27.8187 62.4767L25.0705 60.9578L23.1357 64.4587L25.8838 65.9776L27.8187 62.4767ZM25.2604 61.0772L22.6996 59.2602L20.3849 62.5224L22.9458 64.3394L25.2604 61.0772ZM22.875 59.4L20.5337 57.3077L17.8683 60.2903L20.2096 62.3826L22.875 59.4ZM20.6923 57.4663L18.6 55.125L15.6174 57.7904L17.7097 60.1317L20.6923 57.4663ZM18.7398 55.3004L16.9228 52.7396L13.6606 55.0542L15.4776 57.6151L18.7398 55.3004ZM17.0422 52.9295L15.5233 50.1813L12.0224 52.1162L13.5413 54.8643L17.0422 52.9295ZM15.6206 50.3834L14.419 47.4824L10.7235 49.0132L11.9251 51.9141L15.6206 50.3834ZM14.4931 47.6941L13.6239 44.6769L9.78018 45.7843L10.6494 48.8015L14.4931 47.6941ZM13.6738 44.8956L13.1478 41.8L9.20432 42.47L9.73028 45.5656L13.6738 44.8956ZM13.1729 42.0229L12.9969 38.8879L9.00315 39.1121L9.1792 42.2471L13.1729 42.0229ZM12.9969 39.1121L13.1729 35.9771L9.1792 35.7529L9.00315 38.8879L12.9969 39.1121ZM13.1478 36.2L13.6738 33.1044L9.73028 32.4344L9.20432 35.53L13.1478 36.2ZM13.6239 33.3231L14.4931 30.3059L10.6494 29.1985L9.78018 32.2157L13.6239 33.3231ZM14.419 30.5176L15.6206 27.6166L11.9251 26.0859L10.7235 28.9868L14.419 30.5176ZM15.5233 27.8187L17.0422 25.0705L13.5413 23.1357L12.0224 25.8838L15.5233 27.8187ZM16.9228 25.2604L18.7398 22.6996L15.4776 20.3849L13.6606 22.9458L16.9228 25.2604ZM18.6 22.875L20.6923 20.5337L17.7097 17.8683L15.6174 20.2096L18.6 22.875ZM20.5337 20.6923L22.875 18.6L20.2096 15.6174L17.8683 17.7097L20.5337 20.6923ZM22.6996 18.7398L25.2604 16.9228L22.9458 13.6606L20.3849 15.4776L22.6996 18.7398ZM25.0705 17.0422L27.8187 15.5233L25.8838 12.0224L23.1357 13.5413L25.0705 17.0422ZM27.6166 15.6206L30.5176 14.419L28.9868 10.7235L26.0859 11.9251L27.6166 15.6206ZM30.3059 14.4931L33.3231 13.6239L32.2157 9.78018L29.1985 10.6494L30.3059 14.4931ZM33.1044 13.6738L36.2 13.1478L35.53 9.20432L32.4344 9.73028L33.1044 13.6738ZM35.9771 13.1729L39.1121 12.9969L38.8879 9.00315L35.7529 9.1792L35.9771 13.1729Z" fill="currentColor" />
  <path fill-rule="evenodd" clip-rule="evenodd" d="M57.3478 60.095L56.4567 60.8913L53.8959 62.7083L51.1478 64.2271L48.2468 65.4287L45.2296 66.298L42.134 66.8239L38.999 67L35.864 66.8239L32.7684 66.298L29.7512 65.4287L26.8503 64.2271L24.1021 62.7083L21.9102 61.153C23.3661 58.83 25.5783 56.9928 28.2801 56.0207L29.8827 55.444C36.4222 53.0911 43.5773 53.0911 50.1168 55.444L51.7194 56.0207C53.9965 56.84 55.9258 58.2738 57.3478 60.095ZM44.9574 46.1552C48.002 44.6538 50.2022 41.8537 50.9407 38.5404L51.0106 38.2265C51.7552 34.8862 50.9686 31.388 48.8658 28.688L48.7557 28.5466C46.6529 25.8465 43.4221 24.2676 39.9998 24.2676C36.5775 24.2676 33.3466 25.8465 31.2438 28.5466L31.1337 28.688C29.031 31.388 28.2443 34.8862 28.9889 38.2265L29.0588 38.5404C29.7974 41.8537 31.9975 44.6538 35.0421 46.1552C38.1675 47.6964 41.832 47.6964 44.9574 46.1552Z" fill="currentColor" fill-opacity="0.15" />
  <path d="M57.3478 60.095L58.6804 61.5863C59.4656 60.8846 59.5722 59.6943 58.9242 58.8642L57.3478 60.095ZM56.4567 60.8913L57.6141 62.5224C57.6751 62.4791 57.7336 62.4324 57.7894 62.3826L56.4567 60.8913ZM53.8959 62.7083L54.8633 64.4587C54.9288 64.4225 54.9922 64.3827 55.0533 64.3394L53.8959 62.7083ZM51.1478 64.2271L51.9131 66.0749C51.9823 66.0463 52.0497 66.0138 52.1152 65.9776L51.1478 64.2271ZM48.2468 65.4287L48.8005 67.3506C48.8724 67.3299 48.9431 67.3051 49.0122 67.2765L48.2468 65.4287ZM45.2296 66.298L45.5646 68.2697C45.6384 68.2572 45.7114 68.2405 45.7833 68.2198L45.2296 66.298ZM42.134 66.8239L42.2462 68.8208C42.3209 68.8166 42.3953 68.8082 42.469 68.7957L42.134 66.8239ZM38.999 67L38.8869 68.9969C38.9616 69.001 39.0365 69.001 39.1112 68.9969L38.999 67ZM35.864 66.8239L35.529 68.7957C35.6028 68.8082 35.6772 68.8166 35.7519 68.8208L35.864 66.8239ZM32.7684 66.298L32.2148 68.2198C32.2867 68.2405 32.3597 68.2572 32.4334 68.2697L32.7684 66.298ZM29.7512 65.4287L28.9858 67.2765C29.055 67.3051 29.1256 67.3299 29.1975 67.3506L29.7512 65.4287ZM26.8503 64.2271L25.8828 65.9776C25.9483 66.0138 26.0158 66.0463 26.0849 66.0749L26.8503 64.2271ZM24.1021 62.7083L22.9448 64.3394C23.0058 64.3827 23.0692 64.4225 23.1347 64.4587L24.1021 62.7083ZM21.9102 61.153L20.2155 60.0909C19.6525 60.9891 19.8882 62.1707 20.7528 62.7841L21.9102 61.153ZM28.2801 56.0207L28.9572 57.9026H28.9572L28.2801 56.0207ZM29.8827 55.444L29.2056 53.5622H29.2056L29.8827 55.444ZM50.1168 55.444L49.4397 57.3259H49.4397L50.1168 55.444ZM51.7194 56.0207L52.3965 54.1388V54.1388L51.7194 56.0207ZM50.9407 38.5404L48.9886 38.1053L48.9886 38.1053L50.9407 38.5404ZM44.9574 46.1552L44.0729 44.3614H44.0729L44.9574 46.1552ZM51.0106 38.2265L52.9627 38.6616V38.6616L51.0106 38.2265ZM48.8658 28.688L47.2879 29.9168L48.8658 28.688ZM48.7557 28.5466L50.3337 27.3177V27.3177L48.7557 28.5466ZM31.2438 28.5466L32.8217 29.7755L32.8217 29.7755L31.2438 28.5466ZM31.1337 28.688L29.5558 27.4591L29.5558 27.4591L31.1337 28.688ZM28.9889 38.2265L27.0368 38.6616V38.6616L28.9889 38.2265ZM29.0588 38.5404L31.0109 38.1053V38.1053L29.0588 38.5404ZM35.0421 46.1552L35.9266 44.3614H35.9266L35.0421 46.1552ZM56.0151 58.6037L55.124 59.4L57.7894 62.3826L58.6804 61.5863L56.0151 58.6037ZM55.2994 59.2602L52.7386 61.0772L55.0533 64.3394L57.6141 62.5224L55.2994 59.2602ZM52.9285 60.9578L50.1803 62.4767L52.1152 65.9776L54.8633 64.4587L52.9285 60.9578ZM50.3824 62.3794L47.4815 63.581L49.0122 67.2765L51.9131 66.0749L50.3824 62.3794ZM47.6932 63.5069L44.6759 64.3761L45.7833 68.2198L48.8005 67.3506L47.6932 63.5069ZM44.8946 64.3262L41.799 64.8522L42.469 68.7957L45.5646 68.2697L44.8946 64.3262ZM42.0219 64.8271L38.8869 65.0031L39.1112 68.9969L42.2462 68.8208L42.0219 64.8271ZM39.1112 65.0031L35.9762 64.8271L35.7519 68.8208L38.8869 68.9969L39.1112 65.0031ZM36.199 64.8522L33.1034 64.3262L32.4334 68.2697L35.529 68.7957L36.199 64.8522ZM33.3221 64.3761L30.3049 63.5069L29.1975 67.3506L32.2148 68.2198L33.3221 64.3761ZM30.5166 63.581L27.6156 62.3794L26.0849 66.0749L28.9858 67.2765L30.5166 63.581ZM27.8177 62.4767L25.0696 60.9578L23.1347 64.4587L25.8828 65.9776L27.8177 62.4767ZM25.2595 61.0772L23.0675 59.5219L20.7528 62.7841L22.9448 64.3394L25.2595 61.0772ZM27.603 54.1388C24.4694 55.2662 21.9034 57.3978 20.2155 60.0909L23.6048 62.2151C24.8289 60.2621 26.6871 58.7193 28.9572 57.9026L27.603 54.1388ZM29.2056 53.5622L27.603 54.1388L28.9572 57.9026L30.5598 57.3259L29.2056 53.5622ZM50.7939 53.5622C43.8168 51.0517 36.1828 51.0517 29.2056 53.5622L30.5598 57.3259C36.6616 55.1305 43.3379 55.1305 49.4397 57.3259L50.7939 53.5622ZM52.3965 54.1388L50.7939 53.5622L49.4397 57.3259L51.0423 57.9026L52.3965 54.1388ZM58.9242 58.8642C57.2754 56.7524 55.0371 55.0889 52.3965 54.1388L51.0423 57.9026C52.956 58.5911 54.5763 59.7952 55.7713 61.3258L58.9242 58.8642ZM48.9886 38.1053C48.3818 40.8274 46.5742 43.1279 44.0729 44.3614L45.842 47.9489C49.4298 46.1797 52.0225 42.88 52.8928 38.9755L48.9886 38.1053ZM49.0585 37.7914L48.9886 38.1053L52.8928 38.9755L52.9627 38.6616L49.0585 37.7914ZM47.2879 29.9168C49.0238 32.1459 49.6732 35.0338 49.0585 37.7914L52.9627 38.6616C53.8371 34.7386 52.9133 30.6301 50.4438 27.4591L47.2879 29.9168ZM47.1778 29.7755L47.2879 29.9168L50.4438 27.4591L50.3337 27.3177L47.1778 29.7755ZM39.9998 26.2676C42.8053 26.2676 45.454 27.562 47.1778 29.7755L50.3337 27.3177C47.8519 24.131 44.0388 22.2676 39.9998 22.2676V26.2676ZM32.8217 29.7755C34.5456 27.562 37.1942 26.2676 39.9998 26.2676V22.2676C35.9607 22.2676 32.1476 24.131 29.6659 27.3177L32.8217 29.7755ZM32.7116 29.9168L32.8217 29.7755L29.6659 27.3177L29.5558 27.4591L32.7116 29.9168ZM30.941 37.7914C30.3263 35.0338 30.9757 32.1459 32.7116 29.9168L29.5558 27.4591C27.0862 30.6301 26.1624 34.7386 27.0368 38.6616L30.941 37.7914ZM31.0109 38.1053L30.941 37.7914L27.0368 38.6616L27.1067 38.9755L31.0109 38.1053ZM35.9266 44.3614C33.4253 43.1279 31.6177 40.8274 31.0109 38.1053L27.1067 38.9755C27.977 42.8799 30.5698 46.1797 34.1575 47.9489L35.9266 44.3614ZM44.0729 44.3614C41.5051 45.6277 38.4944 45.6277 35.9266 44.3614L34.1575 47.9489C37.8406 49.7652 42.1589 49.7652 45.842 47.9489L44.0729 44.3614Z" fill="currentColor" />
</svg>