<svg viewBox="0 0 80 80" fill="none">
  <path d="M64.0892 26.0925C68.9941 34.7155 68.9941 45.2846 64.0892 53.9075L63.9108 54.221C59.0205 62.8184 49.891 68.1285 40 68.1285C30.109 68.1285 20.9795 62.8184 16.0892 54.221L15.9108 53.9075C11.0059 45.2846 11.0059 34.7155 15.9108 26.0925L16.0892 25.779C20.9795 17.1816 30.109 11.8715 40 11.8715C49.891 11.8715 59.0205 17.1816 63.9108 25.779L64.0892 26.0925Z" fill="currentColor" fill-opacity="0.15" stroke="currentColor" stroke-width="4" stroke-linecap="square" />
  <path fill-rule="evenodd" clip-rule="evenodd" d="M58.1664 61.2769C53.2194 65.6266 46.7889 68.1285 39.9996 68.1285C33.2106 68.1285 26.7804 65.6268 21.8335 61.2776C23.2879 58.8957 25.5306 57.0101 28.2805 56.0207L29.8831 55.444C36.4226 53.0911 43.5778 53.0911 50.1173 55.444L51.7199 56.0207C54.4695 57.01 56.712 58.8953 58.1664 61.2769ZM44.9579 46.1552C48.0024 44.6538 50.2026 41.8537 50.9411 38.5404L51.0111 38.2265C51.7556 34.8862 50.969 31.388 48.8663 28.688L48.7561 28.5466C46.6534 25.8465 43.4225 24.2676 40.0002 24.2676C36.5779 24.2676 33.347 25.8465 31.2442 28.5466L31.1341 28.688C29.0314 31.388 28.2448 34.8862 28.9893 38.2265L29.0593 38.5404C29.7978 41.8537 31.998 44.6538 35.0425 46.1552C38.1679 47.6964 41.8324 47.6964 44.9579 46.1552Z" fill="currentColor" fill-opacity="0.15" />
  <path d="M58.1664 61.2769L59.4871 62.7789C60.2168 62.1372 60.3798 61.0639 59.8733 60.2345L58.1664 61.2769ZM21.8335 61.2776L20.1265 60.2353C19.6201 61.0647 19.7831 62.138 20.5129 62.7796L21.8335 61.2776ZM28.2805 56.0207L27.6034 54.1388H27.6034L28.2805 56.0207ZM29.8831 55.444L29.206 53.5622H29.206L29.8831 55.444ZM50.1173 55.444L49.4401 57.3259L50.1173 55.444ZM51.7199 56.0207L52.397 54.1388V54.1388L51.7199 56.0207ZM50.9411 38.5404L48.989 38.1053V38.1053L50.9411 38.5404ZM44.9579 46.1552L44.0733 44.3614L44.9579 46.1552ZM51.0111 38.2265L52.9632 38.6616L52.9632 38.6616L51.0111 38.2265ZM48.8663 28.688L47.2883 29.9168L48.8663 28.688ZM48.7561 28.5466L50.3341 27.3177V27.3177L48.7561 28.5466ZM31.2442 28.5466L32.8222 29.7755L32.8222 29.7755L31.2442 28.5466ZM31.1341 28.688L29.5562 27.4591L29.5562 27.4591L31.1341 28.688ZM28.9893 38.2265L27.0372 38.6616V38.6616L28.9893 38.2265ZM29.0593 38.5404L31.0114 38.1053L31.0114 38.1053L29.0593 38.5404ZM35.0425 46.1552L35.9271 44.3614L35.0425 46.1552ZM56.8458 59.7749C52.2579 63.8088 46.2949 66.1285 39.9996 66.1285V70.1285C47.2828 70.1285 54.1809 67.4443 59.4871 62.7789L56.8458 59.7749ZM39.9996 66.1285C33.7045 66.1285 27.7419 63.8091 23.1541 59.7756L20.5129 62.7796C25.819 67.4446 32.7167 70.1285 39.9996 70.1285V66.1285ZM27.6034 54.1388C24.414 55.2863 21.8126 57.474 20.1265 60.2353L23.5404 62.3199C24.7632 60.3173 26.6472 58.7339 28.9576 57.9026L27.6034 54.1388ZM29.206 53.5622L27.6034 54.1388L28.9576 57.9026L30.5602 57.3259L29.206 53.5622ZM50.7944 53.5622C43.8172 51.0517 36.1832 51.0517 29.206 53.5622L30.5602 57.3259C36.6621 55.1305 43.3383 55.1305 49.4401 57.3259L50.7944 53.5622ZM52.397 54.1388L50.7944 53.5622L49.4401 57.3259L51.0427 57.9026L52.397 54.1388ZM59.8733 60.2345C58.1873 57.4736 55.5861 55.2862 52.397 54.1388L51.0427 57.9026C53.353 58.7338 55.2368 60.317 56.4596 62.3193L59.8733 60.2345ZM48.989 38.1053C48.3823 40.8274 46.5746 43.1279 44.0733 44.3614L45.8424 47.9489C49.4302 46.1797 52.0229 42.88 52.8932 38.9755L48.989 38.1053ZM49.059 37.7914L48.989 38.1053L52.8932 38.9755L52.9632 38.6616L49.059 37.7914ZM47.2883 29.9168C49.0242 32.1459 49.6736 35.0338 49.059 37.7914L52.9632 38.6616C53.8376 34.7386 52.9137 30.6301 50.4442 27.4591L47.2883 29.9168ZM47.1782 29.7755L47.2883 29.9168L50.4442 27.4591L50.3341 27.3177L47.1782 29.7755ZM40.0002 26.2676C42.8057 26.2676 45.4544 27.562 47.1782 29.7755L50.3341 27.3177C47.8524 24.131 44.0392 22.2676 40.0002 22.2676V26.2676ZM32.8222 29.7755C34.546 27.562 37.1946 26.2676 40.0002 26.2676V22.2676C35.9611 22.2676 32.148 24.131 29.6663 27.3177L32.8222 29.7755ZM32.712 29.9168L32.8222 29.7755L29.6663 27.3177L29.5562 27.4591L32.712 29.9168ZM30.9414 37.7914C30.3268 35.0338 30.9761 32.1459 32.7121 29.9168L29.5562 27.4591C27.0866 30.6301 26.1628 34.7386 27.0372 38.6616L30.9414 37.7914ZM31.0114 38.1053L30.9414 37.7914L27.0372 38.6616L27.1072 38.9755L31.0114 38.1053ZM35.9271 44.3614C33.4257 43.1279 31.6181 40.8274 31.0114 38.1053L27.1072 38.9755C27.9775 42.8799 30.5702 46.1797 34.1579 47.9489L35.9271 44.3614ZM44.0733 44.3614C41.5055 45.6277 38.4949 45.6277 35.9271 44.3614L34.1579 47.9489C37.841 49.7652 42.1593 49.7652 45.8424 47.9489L44.0733 44.3614Z" fill="currentColor" />
</svg>