<svg viewBox="0 0 80 80" fill="none">
  <path d="M40.6076 40.3875C41.355 41.6193 42.1813 42.8039 43.0821 43.9334C45.1903 46.577 47.6828 48.8897 50.4765 50.7944C53.2703 52.6992 56.3337 54.1745 59.5647 55.1711C60.5543 55.4763 61.5561 55.7356 62.5671 55.9485C62.2519 56.3958 61.9232 56.834 61.5815 57.2625C59.8566 59.4255 57.8173 61.3177 55.5315 62.8761C53.2457 64.4345 50.7393 65.6415 48.0957 66.457C45.4521 67.2724 42.7012 67.6871 39.9347 67.6871C37.1682 67.6871 34.4173 67.2724 31.7737 66.457C29.1302 65.6416 26.6237 64.4345 24.3379 62.8761C22.0521 61.3177 20.0128 59.4255 18.2879 57.2625C16.9053 55.5288 15.7373 53.6368 14.8076 51.628C15.4977 50.8585 16.2235 50.1202 16.9829 49.4155C19.4616 47.1157 22.2709 45.2003 25.3173 43.7332C28.3638 42.2662 31.6129 41.2639 34.9564 40.76C36.829 40.4777 38.7194 40.3536 40.6076 40.3875Z" fill="currentColor" fill-opacity="0.25" />
  <path d="M24.5488 44.1152C24.8032 43.9846 25.0594 43.8574 25.3173 43.7332C28.3638 42.2662 31.6129 41.2639 34.9564 40.76C36.829 40.4777 38.7194 40.3536 40.6076 40.3875C41.355 41.6193 42.1813 42.8039 43.0821 43.9334C45.1903 46.577 47.6828 48.8897 50.4765 50.7944C53.2703 52.6992 56.3337 54.1745 59.5647 55.1711C60.5543 55.4763 61.5561 55.7356 62.5671 55.9485C62.2519 56.3958 61.9232 56.834 61.5815 57.2625C59.8566 59.4255 57.8173 61.3177 55.5315 62.8761C54.6755 63.4597 53.7886 63.9938 52.8751 64.4767C50.4304 64.2765 48.012 63.8108 45.6629 63.0862C42.4319 62.0896 39.3684 60.6143 36.5747 58.7096C33.781 56.8048 31.2885 54.4921 29.1803 51.8485C27.2975 49.4876 25.7402 46.8865 24.5488 44.1152Z" fill="currentColor" fill-opacity="0.25" />
  <path d="M39.3605 40.3325C37.92 40.3639 36.481 40.4872 35.0524 40.7025C31.7089 41.2065 28.4598 42.2087 25.4134 43.6758C22.367 45.1428 19.5576 47.0582 17.079 49.3581C16.3198 50.0624 15.5944 50.8004 14.9046 51.5695C14.6748 51.0729 14.4596 50.5691 14.2594 50.0589C13.2487 47.4836 12.6296 44.7714 12.4229 42.0127C12.2161 39.2539 12.424 36.4798 13.0396 33.7826C13.6552 31.0855 14.6716 28.4958 16.0548 26.1C17.4381 23.7041 19.1726 21.5291 21.2006 19.6474C23.2286 17.7657 25.5271 16.1986 28.0197 14.9982C30.5122 13.7979 33.1706 12.9779 35.9062 12.5656C38.0989 12.2351 40.3214 12.1695 42.526 12.3688C42.8473 13.3512 43.1238 14.3489 43.3543 15.3589C44.1067 18.6554 44.3608 22.0461 44.1082 25.4179C43.8555 28.7897 43.0989 32.1046 41.8635 35.2522C41.1717 37.015 40.334 38.7142 39.3605 40.3325Z" fill="currentColor" fill-opacity="0.25" />
  <path d="M44.1617 24.5613C44.1475 24.8469 44.1295 25.1324 44.1082 25.4179C43.8555 28.7897 43.0989 32.1046 41.8635 35.2522C41.1717 37.015 40.334 38.7142 39.3605 40.3325C37.92 40.3639 36.481 40.4872 35.0524 40.7025C31.7089 41.2065 28.4598 42.2087 25.4134 43.6758C22.367 45.1428 19.5576 47.0582 17.079 49.3581C16.3198 50.0624 15.5944 50.8004 14.9046 51.5695C14.6748 51.0729 14.4596 50.5691 14.2594 50.0589C13.2487 47.4836 12.6296 44.7714 12.4229 42.0127C12.3455 40.9796 12.3264 39.9444 12.3649 38.9118C13.7606 36.8948 15.3731 35.0332 17.1752 33.3612C19.6538 31.0613 22.4632 29.146 25.5096 27.6789C28.556 26.2118 31.8051 25.2096 35.1486 24.7056C38.1347 24.2555 41.1659 24.2074 44.1617 24.5613Z" fill="currentColor" fill-opacity="0.25" />
  <path d="M40.0317 39.2801C40.7248 38.0169 41.3375 36.7091 41.8653 35.3642C43.1006 32.2166 43.8572 28.9017 44.1099 25.5299C44.3626 22.1581 44.1085 18.7674 43.3561 15.4709C43.1257 14.4614 42.8493 13.4641 42.5282 12.4822C43.0731 12.5315 43.6169 12.597 44.1589 12.6787C46.8945 13.091 49.5529 13.911 52.0454 15.1113C54.5379 16.3117 56.8365 17.8788 58.8645 19.7605C60.8925 21.6422 62.627 23.8172 64.0102 26.2131C65.3935 28.6089 66.4098 31.1986 67.0255 33.8957C67.6411 36.5929 67.8489 39.367 67.6422 42.1258C67.4355 44.8845 66.8164 47.5967 65.8057 50.172C64.9956 52.2362 63.9411 54.1938 62.6662 56.0033C61.6548 55.7904 60.6525 55.531 59.6625 55.2257C56.4315 54.229 53.368 52.7537 50.5743 50.849C47.7806 48.9443 45.2881 46.6316 43.1799 43.988C41.9991 42.5074 40.9464 40.9323 40.0317 39.2801Z" fill="currentColor" fill-opacity="0.25" />
  <path d="M51.2894 51.3236C51.0491 51.1686 50.8108 51.0103 50.5743 50.849C47.7806 48.9443 45.2881 46.6316 43.1799 43.988C41.9991 42.5074 40.9464 40.9323 40.0317 39.2801C40.7248 38.0169 41.3375 36.7091 41.8653 35.3642C43.1006 32.2166 43.8572 28.9017 44.1099 25.5299C44.3626 22.1581 44.1085 18.7674 43.3561 15.4709C43.1257 14.4614 42.8493 13.4641 42.5282 12.4822C43.0731 12.5315 43.6169 12.597 44.1589 12.6787C46.8945 13.091 49.5529 13.911 52.0454 15.1113C52.9788 15.5609 53.8848 16.0619 54.7598 16.6116C55.8088 18.8288 56.6147 21.156 57.1617 23.5527C57.9141 26.8492 58.1682 30.2399 57.9155 33.6117C57.6628 36.9835 56.9062 40.2984 55.6709 43.446C54.5676 46.257 53.0937 48.9062 51.2894 51.3236Z" fill="currentColor" fill-opacity="0.25" />
  <path d="M55.5315 62.8761C57.8173 61.3177 59.8566 59.4255 61.5815 57.2625C61.9232 56.834 62.2519 56.3958 62.5671 55.9485C61.5561 55.7356 60.5543 55.4763 59.5647 55.1711C56.3337 54.1745 53.2703 52.6992 50.4765 50.7944C47.6828 48.8897 45.1903 46.577 43.0821 43.9334C42.1813 42.8039 41.355 41.6193 40.6076 40.3875C38.7194 40.3536 36.829 40.4777 34.9564 40.76C31.6129 41.2639 28.3638 42.2662 25.3173 43.7332M55.5315 62.8761C53.2457 64.4345 50.7393 65.6416 48.0957 66.457C45.4521 67.2724 42.7012 67.6871 39.9347 67.6871C37.1682 67.6871 34.4173 67.2724 31.7737 66.457C29.1302 65.6416 26.6237 64.4345 24.3379 62.8761C22.0521 61.3177 20.0128 59.4255 18.2879 57.2625C16.9053 55.5288 15.7373 53.6368 14.8076 51.628C15.4977 50.8585 16.2235 50.1202 16.9829 49.4155C19.4616 47.1157 22.2709 45.2003 25.3173 43.7332M55.5315 62.8761C54.6755 63.4597 53.7886 63.9938 52.8751 64.4767C50.4304 64.2765 48.012 63.8108 45.6629 63.0862C42.4319 62.0896 39.3684 60.6143 36.5747 58.7096C33.781 56.8048 31.2885 54.4921 29.1803 51.8485C27.2975 49.4876 25.7402 46.8865 24.5488 44.1152C24.8032 43.9846 25.0594 43.8574 25.3173 43.7332M12.4229 42.0127C12.6296 44.7714 13.2487 47.4836 14.2594 50.0589C14.4596 50.5692 14.6748 51.0729 14.9046 51.5695C15.5944 50.8004 16.3198 50.0624 17.079 49.3581C19.5576 47.0582 22.367 45.1428 25.4134 43.6758C28.4598 42.2087 31.7089 41.2065 35.0524 40.7025C36.481 40.4872 37.92 40.3639 39.3605 40.3325C40.334 38.7142 41.1717 37.015 41.8635 35.2522C43.0989 32.1046 43.8555 28.7897 44.1082 25.4179M12.4229 42.0127C12.2161 39.2539 12.424 36.4798 13.0396 33.7826C13.6552 31.0855 14.6716 28.4958 16.0548 26.1C17.4381 23.7041 19.1726 21.5291 21.2006 19.6474C23.2286 17.7657 25.5271 16.1986 28.0197 14.9982C30.5122 13.7979 33.1706 12.9779 35.9062 12.5656C38.0989 12.2351 40.3214 12.1695 42.526 12.3688C42.8473 13.3512 43.1238 14.3489 43.3543 15.3589C44.1067 18.6554 44.3608 22.0461 44.1082 25.4179M12.4229 42.0127C12.3455 40.9796 12.3264 39.9444 12.3649 38.9118C13.7606 36.8948 15.3731 35.0332 17.1752 33.3612C19.6538 31.0613 22.4632 29.1459 25.5096 27.6789C28.556 26.2118 31.8051 25.2096 35.1486 24.7056C38.1347 24.2555 41.1659 24.2074 44.1617 24.5613C44.1475 24.8469 44.1295 25.1324 44.1082 25.4179M52.0454 15.1113C49.5529 13.911 46.8945 13.091 44.1589 12.6787C43.6169 12.597 43.0731 12.5315 42.5282 12.4822C42.8493 13.4641 43.1257 14.4614 43.3561 15.4709C44.1085 18.7674 44.3626 22.1581 44.1099 25.5299C43.8572 28.9017 43.1006 32.2166 41.8653 35.3642C41.3375 36.7091 40.7248 38.0169 40.0317 39.2801C40.9464 40.9323 41.9991 42.5074 43.1799 43.988C45.2881 46.6316 47.7806 48.9443 50.5743 50.849M52.0454 15.1113C54.5379 16.3117 56.8365 17.8788 58.8645 19.7605C60.8925 21.6422 62.627 23.8172 64.0102 26.2131C65.3935 28.6089 66.4098 31.1986 67.0255 33.8957C67.6411 36.5929 67.8489 39.367 67.6422 42.1258C67.4355 44.8845 66.8164 47.5967 65.8057 50.172C64.9956 52.2362 63.9411 54.1938 62.6662 56.0033C61.6548 55.7904 60.6525 55.531 59.6625 55.2257C56.4315 54.229 53.368 52.7537 50.5743 50.849M52.0454 15.1113C52.9788 15.5609 53.8848 16.0619 54.7598 16.6116C55.8087 18.8288 56.6147 21.156 57.1617 23.5527C57.9141 26.8492 58.1682 30.2399 57.9155 33.6117C57.6628 36.9835 56.9062 40.2984 55.6709 43.446C54.5676 46.257 53.0937 48.9062 51.2894 51.3236C51.0491 51.1686 50.8108 51.0103 50.5743 50.849" stroke="currentColor" stroke-linecap="round" stroke-linejoin="round" />
</svg>