<svg viewBox="0 0 80 80" fill="none">
  <path fill-rule="evenodd" clip-rule="evenodd" d="M17.732 49.7466C17.357 49.3716 16.8484 49.161 16.3181 49.161H6.14648C5.04191 49.161 4.14648 48.2656 4.14648 47.161V33.1678C4.14648 32.0632 5.04191 31.1678 6.14648 31.1678H16.3185C16.8488 31.1678 17.3574 30.9572 17.7324 30.5823L28.7325 19.5863C29.9926 18.3267 32.1465 19.2191 32.1465 21.0008V21.1698V58.1559V59.3284C32.1465 61.1101 29.9926 62.0025 28.7325 60.7429L17.732 49.7466Z" fill="currentColor" fill-opacity="0.25" />
  <path d="M32.1465 21.1698H34.1465V21.1698L32.1465 21.1698ZM28.7325 60.7429L27.3186 62.1574L28.7325 60.7429ZM17.7324 30.5823L19.1464 31.9968L17.7324 30.5823ZM17.732 49.7466L16.3181 51.161L17.732 49.7466ZM16.3181 47.161H6.14648V51.161H16.3181V47.161ZM6.14648 47.161V33.1678H2.14648V47.161H6.14648ZM6.14648 33.1678H16.3185V29.1678H6.14648V33.1678ZM19.1464 31.9968L30.1465 21.0008L27.3186 18.1718L16.3185 29.1678L19.1464 31.9968ZM30.1465 21.0008V21.1698L34.1465 21.1698V21.0008L30.1465 21.0008ZM30.1465 21.1698V58.1559H34.1465V21.1698H30.1465ZM30.1465 58.1559V59.3284H34.1465V58.1559H30.1465ZM30.1465 59.3284L19.146 48.3321L16.3181 51.161L27.3186 62.1574L30.1465 59.3284ZM30.1465 59.3284L27.3186 62.1574C29.8387 64.6765 34.1465 62.8917 34.1465 59.3284H30.1465ZM30.1465 21.0008L30.1465 21.0008L34.1465 21.0008C34.1465 17.4375 29.8387 15.6527 27.3186 18.1718L30.1465 21.0008ZM16.3185 33.1678C17.3791 33.1678 18.3963 32.7466 19.1464 31.9968L16.3185 29.1678H16.3185V33.1678ZM6.14648 33.1678V33.1678V29.1678C3.93734 29.1678 2.14648 30.9587 2.14648 33.1678H6.14648ZM6.14648 47.161H6.14648H2.14648C2.14648 49.3702 3.93734 51.161 6.14648 51.161V47.161ZM16.3181 51.161L19.146 48.3321C18.3959 47.5823 17.3787 47.161 16.3181 47.161V51.161Z" fill="currentColor" />
  <path d="M41.3949 30.909L42.8753 29.5643L41.3949 30.909ZM38.3417 25.9742C37.3788 25.433 36.1595 25.7748 35.6182 26.7377C35.077 27.7006 35.4189 28.9199 36.3818 29.4611L38.3417 25.9742ZM41.3949 49.1056L42.8753 50.4503L41.3949 49.1056ZM36.3841 50.5522C35.4214 51.0936 35.0797 52.3129 35.6211 53.2757C36.1625 54.2385 37.3819 54.5801 38.3447 54.0387L36.3841 50.5522ZM53.2721 24.0853L54.7525 22.7406L54.7525 22.7406L53.2721 24.0853ZM58.8886 34.3248L56.9529 34.828L58.8886 34.3248ZM49.2287 18.0038C48.3096 17.3912 47.0679 17.6396 46.4552 18.5587C45.8426 19.4779 46.091 20.7196 47.0102 21.3322L49.2287 18.0038ZM53.2721 55.9292L51.7916 54.5844L51.7916 54.5844L53.2721 55.9292ZM47.0124 58.6808C46.0933 59.2935 45.845 60.5352 46.4577 61.4543C47.0705 62.3733 48.3122 62.6216 49.2313 62.0089L47.0124 58.6808ZM58.8886 45.6897L56.9529 45.1865L58.8886 45.6897ZM65.1441 17.256L63.6636 18.6008L63.6636 18.6008L65.1441 17.256ZM73.1677 31.8838L75.1033 31.3806L75.1033 31.3806L73.1677 31.8838ZM59.9805 10.0309C59.0805 9.39051 57.8318 9.60092 57.1914 10.5009C56.551 11.4009 56.7614 12.6496 57.6614 13.29L59.9805 10.0309ZM65.1441 62.7473L66.6245 64.092L66.6245 64.092L65.1441 62.7473ZM57.6563 66.7169C56.7563 67.3572 56.5456 68.6059 57.1859 69.5059C57.8262 70.406 59.0749 70.6166 59.9749 69.9764L57.6563 66.7169ZM73.1677 48.1195L75.1033 48.6227H75.1033L73.1677 48.1195ZM39.9144 32.2538C41.2646 33.7402 42.1984 35.4546 42.6686 37.2634L46.54 36.257C45.8989 33.7912 44.6388 31.5058 42.8753 29.5643L39.9144 32.2538ZM36.3818 29.4611C37.7337 30.221 38.9262 31.1658 39.9144 32.2538L42.8753 29.5643C41.5858 28.1446 40.0512 26.935 38.3417 25.9742L36.3818 29.4611ZM39.9144 47.7608C38.9268 48.8481 37.7351 49.7925 36.3841 50.5522L38.3447 54.0387C40.053 53.0782 41.5865 51.8691 42.8753 50.4503L39.9144 47.7608ZM42.6686 42.7512C42.1984 44.56 41.2646 46.2744 39.9144 47.7608L42.8753 50.4503C44.6388 48.5088 45.8989 46.2234 46.54 43.7577L42.6686 42.7512ZM46.54 43.7577C47.1814 41.2904 47.1814 38.7242 46.54 36.257L42.6686 37.2634C43.1385 39.0707 43.1385 40.9439 42.6686 42.7512L46.54 43.7577ZM51.7916 25.43C54.3094 28.2019 56.066 31.4163 56.9529 34.828L60.8242 33.8215C59.7665 29.7528 57.6837 25.9675 54.7525 22.7406L51.7916 25.43ZM47.0102 21.3322C48.792 22.5199 50.3984 23.8962 51.7916 25.43L54.7525 22.7406C53.1313 20.9557 51.2736 19.3669 49.2287 18.0038L47.0102 21.3322ZM51.7916 54.5844C50.399 56.1176 48.7934 57.4934 47.0124 58.6808L49.2313 62.0089C51.2751 60.6463 53.132 59.058 54.7525 57.2739L51.7916 54.5844ZM56.9529 45.1865C56.066 48.5982 54.3094 51.8126 51.7916 54.5844L54.7525 57.2739C57.6837 54.0469 59.7665 50.2617 60.8242 46.1929L56.9529 45.1865ZM60.8242 46.1929C61.8824 42.1227 61.8824 37.8918 60.8242 33.8215L56.9529 34.828C57.8395 38.2382 57.8395 41.7763 56.9529 45.1865L60.8242 46.1929ZM63.6636 18.6008C67.349 22.6581 69.9283 27.3724 71.232 32.3871L75.1033 31.3806C73.6288 25.7089 70.7233 20.4237 66.6245 15.9113L63.6636 18.6008ZM57.6614 13.29C59.8726 14.8635 61.8858 16.6435 63.6636 18.6008L66.6245 15.9113C64.6478 13.7351 62.4181 11.7655 59.9805 10.0309L57.6614 13.29ZM63.6636 61.4026C61.8844 63.3613 59.8696 65.1425 57.6563 66.7169L59.9749 69.9764C62.4147 68.2408 64.6463 66.2699 66.6245 64.092L63.6636 61.4026ZM71.232 47.6163C69.9283 52.6309 67.349 57.3452 63.6636 61.4026L66.6245 64.092C70.7233 59.5796 73.6288 54.2944 75.1033 48.6227L71.232 47.6163ZM75.1033 48.6227C76.5782 42.9495 76.5782 37.0538 75.1033 31.3806L71.232 32.3871C72.5353 37.4002 72.5353 42.6031 71.232 47.6163L75.1033 48.6227Z" fill="currentColor" />
</svg>