<svg viewBox="0 0 84 80" fill="none">
  <path fill-rule="evenodd" clip-rule="evenodd" d="M25.732 49.7466C25.357 49.3716 24.8484 49.161 24.3181 49.161H14.1465C13.0419 49.161 12.1465 48.2656 12.1465 47.161V33.1678C12.1465 32.0632 13.0419 31.1678 14.1465 31.1678H24.3185C24.8488 31.1678 25.3574 30.9572 25.7324 30.5823L36.7325 19.5863C37.9926 18.3267 40.1465 19.2191 40.1465 21.0008V21.1698V58.1559V59.3284C40.1465 61.1101 37.9926 62.0025 36.7325 60.7429L25.732 49.7466Z" fill="currentColor" fill-opacity="0.15" />
  <path d="M40.1465 21.1698H42.1465V21.1698L40.1465 21.1698ZM36.7325 60.7429L35.3186 62.1574L36.7325 60.7429ZM40.1465 21.0008L38.1465 21.0008L40.1465 21.0008ZM25.7324 30.5823L27.1464 31.9968L25.7324 30.5823ZM25.732 49.7466L24.3181 51.161L25.732 49.7466ZM24.3181 47.161H14.1465V51.161H24.3181V47.161ZM14.1465 47.161V33.1678H10.1465V47.161H14.1465ZM14.1465 33.1678H24.3185V29.1678H14.1465V33.1678ZM27.1464 31.9968L38.1465 21.0008L35.3186 18.1718L24.3185 29.1678L27.1464 31.9968ZM38.1465 21.0008V21.1698L42.1465 21.1698V21.0008L38.1465 21.0008ZM38.1465 21.1698V58.1559H42.1465V21.1698H38.1465ZM38.1465 58.1559V59.3284H42.1465V58.1559H38.1465ZM38.1465 59.3284L27.146 48.3321L24.3181 51.161L35.3186 62.1574L38.1465 59.3284ZM38.1465 59.3284L35.3186 62.1574C37.8387 64.6765 42.1465 62.8917 42.1465 59.3284H38.1465ZM38.1465 21.0008L38.1465 21.0008L42.1465 21.0008C42.1465 17.4375 37.8387 15.6527 35.3186 18.1718L38.1465 21.0008ZM24.3185 33.1678C25.3791 33.1678 26.3963 32.7466 27.1464 31.9968L24.3185 29.1678H24.3185V33.1678ZM14.1465 33.1678V33.1678V29.1678C11.9373 29.1678 10.1465 30.9587 10.1465 33.1678H14.1465ZM14.1465 47.161H14.1465H10.1465C10.1465 49.3702 11.9373 51.161 14.1465 51.161V47.161ZM24.3181 51.161L27.146 48.3321C26.3959 47.5823 25.3787 47.161 24.3181 47.161V51.161Z" fill="currentColor" />
  <path d="M49.3947 30.9091L47.9142 32.2538L49.3947 30.9091ZM52.6041 36.7602L50.6685 37.2634L52.6041 36.7602ZM46.3415 25.9742C45.3786 25.433 44.1593 25.7748 43.6181 26.7377C43.0769 27.7006 43.4187 28.9199 44.3816 29.4611L46.3415 25.9742ZM49.3947 49.1056L50.8751 50.4503L50.8751 50.4503L49.3947 49.1056ZM44.384 50.5522C43.4212 51.0936 43.0796 52.3129 43.621 53.2757C44.1624 54.2385 45.3817 54.5801 46.3445 54.0388L44.384 50.5522ZM52.6041 43.2544L54.5398 43.7577L52.6041 43.2544ZM61.2719 24.0853L59.7914 25.43L59.7914 25.43L61.2719 24.0853ZM66.8884 34.3248L64.9528 34.828L66.8884 34.3248ZM57.2285 18.0038C56.3094 17.3912 55.0677 17.6397 54.4551 18.5588C53.8424 19.4779 54.0909 20.7196 55.01 21.3322L57.2285 18.0038ZM61.2719 55.9292L59.7914 54.5845L59.7914 54.5845L61.2719 55.9292ZM55.0122 58.6808C54.0932 59.2935 53.8448 60.5352 54.4576 61.4543C55.0703 62.3733 56.312 62.6216 57.2311 62.0089L55.0122 58.6808ZM66.8884 45.6897L64.9528 45.1865L66.8884 45.6897ZM47.9142 32.2538C49.2644 33.7402 50.1982 35.4547 50.6685 37.2634L54.5398 36.257C53.8987 33.7912 52.6386 31.5058 50.8751 29.5643L47.9142 32.2538ZM44.3816 29.4611C45.7336 30.221 46.926 31.1659 47.9142 32.2538L50.8751 29.5643C49.5856 28.1447 48.051 26.935 46.3415 25.9742L44.3816 29.4611ZM47.9142 47.7608C46.9266 48.8481 45.735 49.7925 44.384 50.5522L46.3445 54.0388C48.0528 53.0782 49.5864 51.8691 50.8751 50.4503L47.9142 47.7608ZM50.6685 42.7512C50.1982 44.56 49.2644 46.2744 47.9142 47.7608L50.8751 50.4503C52.6386 48.5088 53.8987 46.2235 54.5398 43.7577L50.6685 42.7512ZM54.5398 43.7577C55.1812 41.2904 55.1812 38.7242 54.5398 36.257L50.6685 37.2634C51.1383 39.0707 51.1383 40.944 50.6685 42.7512L54.5398 43.7577ZM59.7914 25.43C62.3092 28.2019 64.0658 31.4163 64.9528 34.828L68.8241 33.8215C67.7663 29.7528 65.6835 25.9675 62.7523 22.7406L59.7914 25.43ZM55.01 21.3322C56.7919 22.5199 58.3983 23.8962 59.7914 25.43L62.7523 22.7406C61.1311 20.9557 59.2734 19.3669 57.2285 18.0038L55.01 21.3322ZM59.7914 54.5845C58.3989 56.1176 56.7932 57.4934 55.0122 58.6808L57.2311 62.0089C59.275 60.6463 61.1318 59.058 62.7523 57.2739L59.7914 54.5845ZM64.9528 45.1865C64.0658 48.5982 62.3092 51.8126 59.7914 54.5845L62.7523 57.2739C65.6835 54.0469 67.7663 50.2617 68.8241 46.1929L64.9528 45.1865ZM68.8241 46.1929C69.8822 42.1227 69.8822 37.8918 68.8241 33.8215L64.9528 34.828C65.8393 38.2382 65.8393 41.7763 64.9528 45.1865L68.8241 46.1929Z" fill="currentColor" />
</svg>