<svg viewBox="0 0 80 80" fill="none">
  <path fill-rule="evenodd" clip-rule="evenodd" d="M26.7321 49.5856C26.357 49.2105 25.8483 48.9998 25.3179 48.9998H15.1465C14.0419 48.9998 13.1465 48.1044 13.1465 46.9998V32.9998C13.1465 31.8952 14.0419 30.9998 15.1465 30.9998H25.3183C25.8487 30.9998 26.3574 30.7891 26.7325 30.414L37.7323 19.4142C38.9922 18.1543 41.1465 19.0466 41.1465 20.8284V20.998V57.998V59.1716C41.1465 60.9534 38.9922 61.8457 37.7323 60.5858L26.7321 49.5856Z" fill="currentColor" fill-opacity="0.15" />
  <path d="M41.1465 20.998H43.1465V20.998L41.1465 20.998ZM37.7323 60.5858L39.1465 59.1716L37.7323 60.5858ZM26.7325 30.414L28.1467 31.8282L26.7325 30.414ZM26.7321 49.5856L28.1463 48.1714L26.7321 49.5856ZM25.3179 46.9998H15.1465V50.9998H25.3179V46.9998ZM15.1465 46.9998V32.9998H11.1465V46.9998H15.1465ZM15.1465 32.9998H25.3183V28.9998H15.1465V32.9998ZM28.1467 31.8282L39.1465 20.8284L36.3181 18L25.3183 28.9998L28.1467 31.8282ZM39.1465 20.8284V20.998L43.1465 20.998V20.8284L39.1465 20.8284ZM39.1465 20.998V57.998H43.1465V20.998H39.1465ZM39.1465 57.998V59.1716H43.1465V57.998H39.1465ZM39.1465 59.1716L28.1463 48.1714L25.3179 50.9998L36.3181 62L39.1465 59.1716ZM39.1465 59.1716L36.3181 62C38.8379 64.5198 43.1465 62.7352 43.1465 59.1716H39.1465ZM39.1465 20.8284L39.1465 20.8284L43.1465 20.8284C43.1465 17.2648 38.8379 15.4801 36.3181 18L39.1465 20.8284ZM25.3183 32.9998C26.3791 32.9998 27.3965 32.5784 28.1467 31.8282L25.3183 28.9998H25.3183V32.9998ZM15.1465 32.9998V28.9998C12.9373 28.9998 11.1465 30.7907 11.1465 32.9998H15.1465ZM15.1465 46.9998H15.1465H11.1465C11.1465 49.2089 12.9373 50.9998 15.1465 50.9998V46.9998ZM25.3179 50.9998L25.3179 50.9998L28.1463 48.1714C27.3961 47.4212 26.3787 46.9998 25.3179 46.9998V50.9998Z" fill="currentColor" />
  <path d="M51.6362 46.1425L57.4216 40.357L58.5787 39.2L64.3642 33.4145" stroke="currentColor" stroke-linecap="round" stroke-linejoin="round" />
  <path d="M64.3638 46.1425L58.5784 40.357L57.4213 39.2L51.6358 33.4145" stroke="currentColor" stroke-linecap="round" stroke-linejoin="round" />
</svg>