<svg viewBox="0 0 80 80" fill="none">
  <path fill-rule="evenodd" clip-rule="evenodd" d="M32 12C29.7909 12 28 13.7909 28 16V22H52V16C52 13.7909 50.2091 12 48 12H44.6154H35.3846H32ZM52 58H28V64C28 66.2091 29.7909 68 32 68H35.3846H44.6154H48C50.2091 68 52 66.2091 52 64V58Z" fill="currentColor" fill-opacity="0.25" />
  <path d="M28 22H26C26 23.1046 26.8954 24 28 24V22ZM52 22V24C53.1046 24 54 23.1046 54 22H52ZM52 58H54C54 56.8954 53.1046 56 52 56V58ZM28 58V56C26.8954 56 26 56.8954 26 58H28ZM30 16C30 14.8954 30.8954 14 32 14V10C28.6863 10 26 12.6863 26 16H30ZM30 22V16H26V22H30ZM28 24H52V20H28V24ZM50 16V22H54V16H50ZM48 14C49.1046 14 50 14.8954 50 16H54C54 12.6863 51.3137 10 48 10V14ZM44.6154 14H48V10H44.6154V14ZM35.3846 14H44.6154V10H35.3846V14ZM32 14H35.3846V10H32V14ZM52 56H28V60H52V56ZM30 64V58H26V64H30ZM32 66C30.8954 66 30 65.1046 30 64H26C26 67.3137 28.6863 70 32 70V66ZM35.3846 66H32V70H35.3846V66ZM44.6154 66H35.3846V70H44.6154V66ZM48 66H44.6154V70H48V66ZM50 64C50 65.1046 49.1046 66 48 66V70C51.3137 70 54 67.3137 54 64H50ZM50 58V64H54V58H50Z" fill="currentColor" />
  <rect x="20" y="22" width="40" height="36" rx="7" fill="currentColor" fill-opacity="0.25" stroke="currentColor" stroke-width="4" stroke-linecap="round" stroke-linejoin="round" />
  <path fill-rule="evenodd" clip-rule="evenodd" d="M30.3025 32.1026C29.1773 33.2512 28.5452 34.8091 28.5452 36.4336C28.5452 38.058 29.1773 39.616 30.3025 40.7646L40 50.6641C40 50.6641 40 50.6641 40 50.6641C40 50.6641 40 50.6641 40 50.6641C40 50.6641 40.0001 50.6641 40.0001 50.6641L49.6975 40.7646C50.8227 39.616 51.4549 38.058 51.4549 36.4336C51.4549 34.8091 50.8227 33.2512 49.6975 32.1026C48.5723 30.9539 47.0462 30.3086 45.4549 30.3086C43.8636 30.3086 42.3375 30.9539 41.2122 32.1026L40.2962 33.0377L40 33.34C40 33.34 40 33.34 40 33.34C40 33.34 40 33.34 40 33.34L39.7038 33.0377L38.7878 32.1026C37.6626 30.9539 36.1365 30.3086 34.5452 30.3086C32.9539 30.3086 31.4277 30.9539 30.3025 32.1026Z" fill="currentColor" fill-opacity="0.25" />
  <path d="M30.3025 32.1026L31.7312 33.5021L30.3025 32.1026ZM28.5452 36.4336H26.5452V36.4336L28.5452 36.4336ZM30.3025 40.7646L31.7312 39.3651L30.3025 40.7646ZM49.6975 40.7646L51.1262 42.1642V42.1642L49.6975 40.7646ZM51.4549 36.4336L49.4549 36.4336V36.4336H51.4549ZM49.6975 32.1026L51.1262 30.703L51.1262 30.703L49.6975 32.1026ZM41.2122 32.1026L42.641 33.5021L41.2122 32.1026ZM40.2962 33.0377L41.7249 34.4372L41.7249 34.4372L40.2962 33.0377ZM40 33.34L41.4143 34.7542C41.4191 34.7494 41.424 34.7445 41.4288 34.7396L40 33.34ZM39.7038 33.0377L41.1326 31.6381L41.1326 31.6381L39.7038 33.0377ZM38.7878 32.1026L37.3591 33.5021L37.3591 33.5021L38.7878 32.1026ZM34.5452 30.3086L34.5452 32.3086H34.5452L34.5452 30.3086ZM40.0001 50.6641L41.4288 52.0637L40.0001 50.6641ZM40 50.6641L41.4142 52.0783L40 50.6641ZM40 33.34L38.5771 31.9345L40 33.34ZM40 50.6641L41.4287 49.2645L40 50.6641ZM40 50.6641L38.5858 49.2499L40 50.6641ZM28.8738 30.703C27.3782 32.2298 26.5452 34.2919 26.5452 36.4336H30.5452C30.5452 35.3264 30.9764 34.2727 31.7312 33.5021L28.8738 30.703ZM26.5452 36.4336C26.5452 38.5753 27.3782 40.6374 28.8738 42.1642L31.7312 39.3651C30.9764 38.5945 30.5452 37.5408 30.5452 36.4336L26.5452 36.4336ZM28.8738 42.1642L38.5713 52.0637L41.4287 49.2645L31.7312 39.3651L28.8738 42.1642ZM41.4142 52.0783C41.4142 52.0783 41.4142 52.0783 41.4142 52.0783L38.5858 49.2499V49.2499C38.5858 49.2499 38.5858 49.2499 38.5858 49.2499L41.4142 52.0783ZM41.4288 52.0637L51.1262 42.1642L48.2688 39.3651L38.5713 49.2645L41.4288 52.0637ZM51.1262 42.1642C52.6218 40.6374 53.4549 38.5753 53.4549 36.4336H49.4549C49.4549 37.5408 49.0236 38.5945 48.2688 39.3651L51.1262 42.1642ZM53.4549 36.4336C53.4549 34.2919 52.6218 32.2298 51.1262 30.703L48.2688 33.5021C49.0236 34.2727 49.4549 35.3264 49.4549 36.4336L53.4549 36.4336ZM51.1262 30.703C49.6293 29.1749 47.5901 28.3086 45.4549 28.3086V32.3086C46.5023 32.3086 47.5153 32.733 48.2688 33.5021L51.1262 30.703ZM45.4549 28.3086C43.3197 28.3086 41.2805 29.1749 39.7835 30.703L42.641 33.5021C43.3944 32.733 44.4075 32.3086 45.4549 32.3086V28.3086ZM39.7835 30.703L38.8675 31.6381L41.7249 34.4372L42.641 33.5021L39.7835 30.703ZM38.8675 31.6381L38.5713 31.9404L41.4288 34.7396L41.7249 34.4372L38.8675 31.6381ZM38.5858 31.9258C38.5826 31.929 38.5797 31.9319 38.5771 31.9345L41.4229 34.7455C41.4204 34.7481 41.4175 34.751 41.4143 34.7542L38.5858 31.9258ZM41.4287 31.9404L41.1326 31.6381L38.2751 34.4372L38.5713 34.7396L41.4287 31.9404ZM41.1326 31.6381L40.2165 30.703L37.3591 33.5021L38.2751 34.4372L41.1326 31.6381ZM40.2165 30.703C38.7196 29.1749 36.6804 28.3086 34.5452 28.3086L34.5452 32.3086C35.5926 32.3086 36.6056 32.733 37.3591 33.5021L40.2165 30.703ZM34.5452 28.3086C32.41 28.3086 30.3708 29.1749 28.8738 30.703L31.7312 33.5021C32.4847 32.733 33.4978 32.3086 34.5452 32.3086L34.5452 28.3086ZM38.5699 52.0622C39.3539 52.8642 40.644 52.8648 41.4288 52.0637L38.5713 49.2645C39.3561 48.4634 40.6462 48.464 41.4302 49.266L38.5699 52.0622ZM41.4142 52.0783C40.6274 52.8652 39.3486 52.8589 38.5699 52.0622L41.4302 49.266C40.6514 48.4693 39.3727 48.463 38.5858 49.2499L41.4142 52.0783ZM38.5771 31.9345C39.3445 31.1577 40.6175 31.1291 41.4142 31.9258L38.5858 34.7542C39.3825 35.551 40.6556 35.5224 41.4229 34.7455L38.5771 31.9345ZM38.5713 52.0637C39.3241 52.8322 40.6017 52.8908 41.4142 52.0783L38.5858 49.2499C39.3983 48.4374 40.6758 48.496 41.4287 49.2645L38.5713 52.0637Z" fill="currentColor" />
</svg>