<svg viewBox="0 0 80 80" fill="none">
  <path d="M28 16C28 13.7909 29.7908 12 32 12H48C50.2091 12 52 13.7909 52 16V23.595C50.7029 22.6462 49.2875 21.847 47.7781 21.2218C42.7979 19.1589 37.2021 19.1589 32.2218 21.2218C30.7124 21.847 29.2971 22.6462 28 23.595V16Z" fill="currentColor" fill-opacity="0.25" />
  <path d="M28 56.405V64C28 66.2091 29.7908 68 32 68H48C50.2091 68 52 66.2091 52 64V56.405C50.7029 57.3538 49.2875 58.153 47.7781 58.7782C42.7979 60.8411 37.2021 60.8411 32.2218 58.7782C30.7124 58.153 29.2971 57.3538 28 56.405Z" fill="currentColor" fill-opacity="0.25" />
  <path d="M32.2218 21.2218C37.2021 19.1589 42.7979 19.1589 47.7781 21.2218C52.7584 23.2847 56.7152 27.2415 58.7781 32.2218C60.841 37.2021 60.841 42.7979 58.7781 47.7782C56.7152 52.7585 52.7584 56.7153 47.7781 58.7782C42.7979 60.8411 37.2021 60.8411 32.2218 58.7782C27.2415 56.7153 23.2847 52.7585 21.2218 47.7782C19.1589 42.7979 19.1589 37.2021 21.2218 32.2218C23.2847 27.2415 27.2415 23.2847 32.2218 21.2218Z" fill="currentColor" fill-opacity="0.25" />
  <path d="M40.0007 37.5005C38.6199 37.5005 37.5007 38.6198 37.5007 40.0005C37.5007 41.3812 38.6199 42.5005 40.0007 42.5005C41.3814 42.5005 42.5007 41.3812 42.5007 40.0005C42.5007 38.6198 41.3814 37.5005 40.0007 37.5005Z" fill="currentColor" fill-opacity="0.25" />
  <path d="M47.7781 21.2218C49.2875 21.847 50.7029 22.6462 52 23.595V16C52 13.7909 50.2091 12 48 12H32C29.7908 12 28 13.7909 28 16V23.595C29.2971 22.6462 30.7124 21.847 32.2218 21.2218M47.7781 21.2218C42.7979 19.1589 37.2021 19.1589 32.2218 21.2218M47.7781 21.2218C52.7584 23.2847 56.7152 27.2415 58.7781 32.2218C60.841 37.2021 60.841 42.7979 58.7781 47.7782C56.7152 52.7585 52.7584 56.7153 47.7781 58.7782M32.2218 21.2218C27.2415 23.2847 23.2847 27.2415 21.2218 32.2218C19.1589 37.2021 19.1589 42.7979 21.2218 47.7782C23.2847 52.7585 27.2415 56.7153 32.2218 58.7782M47.7781 58.7782C49.2875 58.153 50.7029 57.3538 52 56.405V64C52 66.2091 50.2091 68 48 68H32C29.7908 68 28 66.2091 28 64V56.405C29.2971 57.3538 30.7124 58.153 32.2218 58.7782M47.7781 58.7782C42.7979 60.8411 37.2021 60.8411 32.2218 58.7782M45.5712 32.7209L41.5204 38.0153M51.5898 46.5913L42.1749 41.2354M37.5007 40.0005C37.5007 38.6198 38.6199 37.5005 40.0007 37.5005C41.3814 37.5005 42.5007 38.6198 42.5007 40.0005C42.5007 41.3812 41.3814 42.5005 40.0007 42.5005C38.6199 42.5005 37.5007 41.3812 37.5007 40.0005Z" stroke="currentColor" stroke-width="4" stroke-linecap="round" stroke-linejoin="round" />
</svg>