<svg viewBox="0 0 80 80" fill="none">
  <path fill-rule="evenodd" clip-rule="evenodd" d="M32 12C29.7909 12 28 13.7909 28 16V22H52V16C52 13.7909 50.2091 12 48 12H44.6154H35.3846H32ZM52 58H28V64C28 66.2091 29.7909 68 32 68H35.3846H44.6154H48C50.2091 68 52 66.2091 52 64V58Z" fill="currentColor" fill-opacity="0.25" />
  <path d="M28 22H26C26 23.1046 26.8954 24 28 24V22ZM52 22V24C53.1046 24 54 23.1046 54 22H52ZM52 58H54C54 56.8954 53.1046 56 52 56V58ZM28 58V56C26.8954 56 26 56.8954 26 58H28ZM30 16C30 14.8954 30.8954 14 32 14V10C28.6863 10 26 12.6863 26 16H30ZM30 22V16H26V22H30ZM28 24H52V20H28V24ZM50 16V22H54V16H50ZM48 14C49.1046 14 50 14.8954 50 16H54C54 12.6863 51.3137 10 48 10V14ZM44.6154 14H48V10H44.6154V14ZM35.3846 14H44.6154V10H35.3846V14ZM32 14H35.3846V10H32V14ZM52 56H28V60H52V56ZM30 64V58H26V64H30ZM32 66C30.8954 66 30 65.1046 30 64H26C26 67.3137 28.6863 70 32 70V66ZM35.3846 66H32V70H35.3846V66ZM44.6154 66H35.3846V70H44.6154V66ZM48 66H44.6154V70H48V66ZM50 64C50 65.1046 49.1046 66 48 66V70C51.3137 70 54 67.3137 54 64H50ZM50 58V64H54V58H50Z" fill="currentColor" />
  <rect x="20" y="22" width="40" height="36" rx="7" fill="currentColor" fill-opacity="0.25" stroke="currentColor" stroke-width="4" stroke-linecap="round" stroke-linejoin="round" />
</svg>