<svg viewBox="0 0 80 80" fill="none">
  <path fill-rule="evenodd" clip-rule="evenodd" d="M70.2136 34.0872L41.4141 62.8867C40.6331 63.6678 39.3667 63.6678 38.5857 62.8867L9.78613 34.0872C11.317 31.4002 13.206 28.9179 15.4114 26.7125C19.7276 22.3963 25.1039 19.2923 30.9999 17.7125C36.8959 16.1326 43.1039 16.1326 48.9999 17.7125C54.8959 19.2923 60.2722 22.3963 64.5883 26.7125C66.7938 28.9179 68.6828 31.4002 70.2136 34.0872Z" fill="currentColor" fill-opacity="0.15" />
  <path d="M70.2136 34.0872L71.6279 35.5014C72.2649 34.8643 72.3974 33.8799 71.9514 33.0971L70.2136 34.0872ZM41.4141 62.8867L42.8283 64.3009L41.4141 62.8867ZM38.5857 62.8867L39.9999 61.4725L38.5857 62.8867ZM9.78613 34.0872L8.04838 33.0971C7.60238 33.8799 7.73485 34.8643 8.37192 35.5014L9.78613 34.0872ZM15.4114 26.7125L16.8256 28.1267L15.4114 26.7125ZM30.9999 17.7125L30.4823 15.7806V15.7806L30.9999 17.7125ZM48.9999 17.7125L48.4823 19.6443L48.9999 17.7125ZM64.5883 26.7125L66.0026 25.2982L64.5883 26.7125ZM68.7994 32.673L39.9999 61.4725L42.8283 64.3009L71.6279 35.5014L68.7994 32.673ZM39.9999 61.4725H39.9999L37.1715 64.3009C38.7336 65.863 41.2662 65.863 42.8283 64.3009L39.9999 61.4725ZM39.9999 61.4725L11.2003 32.673L8.37192 35.5014L37.1715 64.3009L39.9999 61.4725ZM11.5239 35.0772C12.9667 32.5448 14.747 30.2053 16.8256 28.1267L13.9972 25.2982C11.6649 27.6306 9.66727 30.2556 8.04838 33.0971L11.5239 35.0772ZM16.8256 28.1267C20.8936 24.0587 25.9606 21.1333 31.5175 19.6443L30.4823 15.7806C24.2471 17.4513 18.5616 20.7338 13.9972 25.2982L16.8256 28.1267ZM31.5175 19.6443C37.0744 18.1553 42.9254 18.1553 48.4823 19.6443L49.5175 15.7806C43.2824 14.1099 36.7174 14.1099 30.4823 15.7806L31.5175 19.6443ZM48.4823 19.6443C54.0391 21.1333 59.1062 24.0587 63.1741 28.1267L66.0026 25.2982C61.4381 20.7338 55.7526 17.4513 49.5175 15.7806L48.4823 19.6443ZM63.1741 28.1267C65.2528 30.2053 67.0331 32.5448 68.4759 35.0772L71.9514 33.0971C70.3325 30.2556 68.3349 27.6306 66.0026 25.2982L63.1741 28.1267Z" fill="currentColor" />
  <path fill-rule="evenodd" clip-rule="evenodd" d="M55.7103 48.5903L41.414 62.8866C40.633 63.6677 39.3666 63.6677 38.5856 62.8866L24.0376 48.3386C24.661 47.4611 25.359 46.6341 26.1258 45.8672C28.5237 43.4694 31.5105 41.7449 34.7861 40.8672C38.0616 39.9896 41.5105 39.9896 44.7861 40.8672C48.0616 41.7449 51.0484 43.4694 53.4463 45.8672C54.2861 46.707 55.0432 47.619 55.7103 48.5903Z" fill="currentColor" fill-opacity="0.15" />
  <path d="M55.7103 48.5903L57.1246 50.0045C57.806 49.323 57.9046 48.2524 57.359 47.458L55.7103 48.5903ZM41.414 62.8866L42.8282 64.3008L42.8282 64.3008L41.414 62.8866ZM38.5856 62.8866L39.9998 61.4724L38.5856 62.8866ZM24.0376 48.3386L22.4072 47.1803C21.8421 47.9757 21.9334 49.0629 22.6234 49.7528L24.0376 48.3386ZM26.1258 45.8672L27.54 47.2815L27.54 47.2815L26.1258 45.8672ZM34.7861 40.8672L35.3037 42.7991L34.7861 40.8672ZM44.7861 40.8672L44.2684 42.7991L44.7861 40.8672ZM53.4463 45.8672L52.0321 47.2815L53.4463 45.8672ZM54.2961 47.1761L39.9998 61.4724L42.8282 64.3008L57.1246 50.0045L54.2961 47.1761ZM39.9998 61.4724L39.9998 61.4724L37.1714 64.3008C38.7335 65.8629 41.2661 65.8629 42.8282 64.3008L39.9998 61.4724ZM39.9998 61.4724L25.4518 46.9244L22.6234 49.7528L37.1714 64.3008L39.9998 61.4724ZM24.7116 44.453C23.8654 45.2992 23.0952 46.2119 22.4072 47.1803L25.668 49.497C26.2269 48.7103 26.8526 47.9689 27.54 47.2815L24.7116 44.453ZM34.2684 38.9354C30.6538 39.9039 27.3577 41.8069 24.7116 44.453L27.54 47.2815C29.6896 45.1318 32.3672 43.5859 35.3037 42.7991L34.2684 38.9354ZM45.3037 38.9354C41.689 37.9668 37.8831 37.9668 34.2684 38.9354L35.3037 42.7991C38.2401 42.0123 41.332 42.0123 44.2684 42.7991L45.3037 38.9354ZM54.8605 44.453C52.2144 41.8069 48.9184 39.9039 45.3037 38.9354L44.2684 42.7991C47.2049 43.5859 49.8825 45.1318 52.0321 47.2815L54.8605 44.453ZM57.359 47.458C56.6228 46.3861 55.7872 45.3797 54.8605 44.453L52.0321 47.2815C52.7849 48.0343 53.4637 48.8518 54.0617 49.7226L57.359 47.458Z" fill="currentColor" />
</svg>