<svg viewBox="0 0 80 80" fill="none">
  <path fill-rule="evenodd" clip-rule="evenodd" d="M70.2136 34.0872L41.4141 62.8867C40.6331 63.6678 39.3667 63.6678 38.5857 62.8867L9.78613 34.0872C11.317 31.4002 13.206 28.9179 15.4114 26.7125C19.7276 22.3963 25.1039 19.2923 30.9999 17.7125C36.8959 16.1326 43.1039 16.1326 48.9999 17.7125C54.8959 19.2923 60.2722 22.3963 64.5883 26.7125C66.7938 28.9179 68.6828 31.4002 70.2136 34.0872Z" fill="currentColor" fill-opacity="0.25" />
  <path d="M70.2136 34.0872L71.6279 35.5014C72.2649 34.8643 72.3974 33.8799 71.9514 33.0971L70.2136 34.0872ZM41.4141 62.8867L42.8283 64.3009L41.4141 62.8867ZM38.5857 62.8867L39.9999 61.4725L38.5857 62.8867ZM9.78613 34.0872L8.04838 33.0971C7.60238 33.8799 7.73485 34.8643 8.37192 35.5014L9.78613 34.0872ZM15.4114 26.7125L16.8256 28.1267L15.4114 26.7125ZM30.9999 17.7125L30.4823 15.7806V15.7806L30.9999 17.7125ZM48.9999 17.7125L48.4823 19.6443L48.9999 17.7125ZM64.5883 26.7125L66.0026 25.2982L64.5883 26.7125ZM68.7994 32.673L39.9999 61.4725L42.8283 64.3009L71.6279 35.5014L68.7994 32.673ZM39.9999 61.4725H39.9999L37.1715 64.3009C38.7336 65.863 41.2662 65.863 42.8283 64.3009L39.9999 61.4725ZM39.9999 61.4725L11.2003 32.673L8.37192 35.5014L37.1715 64.3009L39.9999 61.4725ZM11.5239 35.0772C12.9667 32.5448 14.747 30.2053 16.8256 28.1267L13.9972 25.2982C11.6649 27.6306 9.66727 30.2556 8.04838 33.0971L11.5239 35.0772ZM16.8256 28.1267C20.8936 24.0587 25.9606 21.1333 31.5175 19.6443L30.4823 15.7806C24.2471 17.4513 18.5616 20.7338 13.9972 25.2982L16.8256 28.1267ZM31.5175 19.6443C37.0744 18.1553 42.9254 18.1553 48.4823 19.6443L49.5175 15.7806C43.2824 14.1099 36.7174 14.1099 30.4823 15.7806L31.5175 19.6443ZM48.4823 19.6443C54.0391 21.1333 59.1062 24.0587 63.1741 28.1267L66.0026 25.2982C61.4381 20.7338 55.7526 17.4513 49.5175 15.7806L48.4823 19.6443ZM63.1741 28.1267C65.2528 30.2053 67.0331 32.5448 68.4759 35.0772L71.9514 33.0971C70.3325 30.2556 68.3349 27.6306 66.0026 25.2982L63.1741 28.1267Z" fill="currentColor" />
  <path fill-rule="evenodd" clip-rule="evenodd" d="M61.4604 42.8405L41.4141 62.8867C40.6331 63.6678 39.3667 63.6678 38.5857 62.8867L18.5396 42.8406C19.2569 41.9053 20.0368 41.015 20.8757 40.1762C24.2327 36.8192 28.4142 34.405 33 33.1762C37.5858 31.9474 42.4142 31.9474 47 33.1762C51.5858 34.405 55.7673 36.8192 59.1244 40.1762C59.9632 41.015 60.7431 41.9053 61.4604 42.8405Z" fill="currentColor" fill-opacity="0.25" />
  <path d="M61.4604 42.8405L62.8746 44.2547C63.5842 43.5451 63.6581 42.4195 63.0474 41.6233L61.4604 42.8405ZM41.4141 62.8867L42.8283 64.3009H42.8283L41.4141 62.8867ZM38.5857 62.8867L39.9999 61.4725L38.5857 62.8867ZM18.5396 42.8406L16.9526 41.6234C16.3419 42.4197 16.4158 43.5452 17.1253 44.2548L18.5396 42.8406ZM20.8757 40.1762L22.2899 41.5904L20.8757 40.1762ZM33 33.1762L32.4824 31.2444L33 33.1762ZM47 33.1762L47.5177 31.2444V31.2444L47 33.1762ZM59.1244 40.1762L60.5386 38.762V38.762L59.1244 40.1762ZM60.0462 41.4263L39.9999 61.4725L42.8283 64.3009L62.8746 44.2547L60.0462 41.4263ZM39.9999 61.4725L39.9999 61.4725L37.1715 64.3009C38.7336 65.863 41.2662 65.863 42.8283 64.3009L39.9999 61.4725ZM39.9999 61.4725L19.9538 41.4264L17.1253 44.2548L37.1715 64.3009L39.9999 61.4725ZM20.1265 44.0578C20.7908 43.1917 21.5131 42.3672 22.2899 41.5904L19.4614 38.762C18.5606 39.6628 17.723 40.619 16.9526 41.6234L20.1265 44.0578ZM22.2899 41.5904C25.3987 38.4816 29.271 36.246 33.5177 35.1081L32.4824 31.2444C27.5575 32.564 23.0667 35.1567 19.4614 38.762L22.2899 41.5904ZM33.5177 35.1081C37.7643 33.9702 42.2357 33.9702 46.4824 35.1081L47.5177 31.2444C42.5928 29.9247 37.4073 29.9247 32.4824 31.2444L33.5177 35.1081ZM46.4824 35.1081C50.729 36.246 54.6014 38.4816 57.7102 41.5904L60.5386 38.762C56.9333 35.1567 52.4426 32.564 47.5177 31.2444L46.4824 35.1081ZM57.7102 41.5904C58.4869 42.3672 59.2092 43.1916 59.8734 44.0577L63.0474 41.6233C62.277 40.6189 61.4394 39.6628 60.5386 38.762L57.7102 41.5904Z" fill="currentColor" />
</svg>