<svg viewBox="0 0 80 80" fill="none">
  <circle cx="40" cy="60" r="4" fill="currentColor" fill-opacity="0.15" stroke="currentColor" stroke-width="4" stroke-linecap="round" stroke-linejoin="round" />
  <path d="M30.2822 47.9364L31.5291 49.5H31.5291L30.2822 47.9364ZM36.5368 44.9243L36.9818 46.8742H36.9818L36.5368 44.9243ZM25.1862 50.6432C24.5907 51.5734 24.862 52.8104 25.7923 53.4059C26.7225 54.0015 27.9595 53.7301 28.555 52.7999L25.1862 50.6432ZM49.7336 47.9364L48.4866 49.5L49.7336 47.9364ZM51.4593 52.7976C52.055 53.7278 53.292 53.9989 54.2221 53.4031C55.1523 52.8074 55.4234 51.5704 54.8276 50.6403L51.4593 52.7976ZM43.4789 44.9243L43.0339 46.8742L43.4789 44.9243ZM22.9878 36.7895L21.7408 35.2259L22.9878 36.7895ZM33.9334 31.5184L33.4884 29.5685L33.9334 31.5184ZM16.6729 40.416C16.005 41.2957 16.1767 42.5504 17.0565 43.2183C17.9363 43.8862 19.1909 43.7145 19.8588 42.8347L16.6729 40.416ZM57.0278 36.7895L58.2748 35.2259L57.0278 36.7895ZM60.1552 42.8326C60.8232 43.7123 62.0778 43.8839 62.9575 43.2159C63.8372 42.5479 64.0088 41.2932 63.3408 40.4135L60.1552 42.8326ZM46.0822 31.5184L46.5272 29.5685L46.0822 31.5184ZM31.5291 49.5C33.1264 48.2263 34.9901 47.3288 36.9818 46.8742L36.0918 42.9744C33.5142 43.5628 31.1022 44.7243 29.0352 46.3727L31.5291 49.5ZM28.555 52.7999C29.3568 51.5475 30.3607 50.4318 31.5291 49.5L29.0352 46.3727C27.523 47.5786 26.2239 49.0224 25.1862 50.6432L28.555 52.7999ZM48.4866 49.5C49.6544 50.4313 50.6577 51.5461 51.4593 52.7976L54.8276 50.6403C53.7903 49.0206 52.4918 47.5779 50.9806 46.3727L48.4866 49.5ZM43.0339 46.8742C45.0256 47.3288 46.8894 48.2263 48.4866 49.5L50.9806 46.3727C48.9135 44.7243 46.5016 43.5628 43.924 42.9744L43.0339 46.8742ZM43.924 42.9744C41.3464 42.3861 38.6694 42.3861 36.0918 42.9744L36.9818 46.8742C38.9736 46.4196 41.0422 46.4196 43.0339 46.8742L43.924 42.9744ZM24.2348 38.3532C27.2061 35.9836 30.6732 34.314 34.3785 33.4683L33.4884 29.5685C29.1973 30.548 25.182 32.4816 21.7408 35.2259L24.2348 38.3532ZM19.8588 42.8347C21.1223 41.1705 22.591 39.6641 24.2348 38.3532L21.7408 35.2259C19.8371 36.744 18.1362 38.4887 16.6729 40.416L19.8588 42.8347ZM55.7808 38.3532C57.4239 39.6635 58.8921 41.1693 60.1552 42.8326L63.3408 40.4135C61.878 38.4872 60.1777 36.7434 58.2748 35.2259L55.7808 38.3532ZM45.6371 33.4683C49.3424 34.314 52.8094 35.9836 55.7808 38.3532L58.2748 35.2259C54.8336 32.4816 50.8183 30.548 46.5272 29.5685L45.6371 33.4683ZM46.5272 29.5685C42.2361 28.5891 37.7795 28.5891 33.4884 29.5685L34.3785 33.4683C38.0837 32.6226 41.9319 32.6226 45.6371 33.4683L46.5272 29.5685Z" fill="currentColor" />
</svg>