<svg viewBox="0 0 80 80" fill="none">
  <path fill-rule="evenodd" clip-rule="evenodd" d="M34.0008 8.50028L34.0008 5.6123C33.3888 5.86758 32.7893 6.16358 32.2061 6.50028C27.383 9.28489 24.4119 14.4311 24.4119 20.0003C24.4119 25.417 27.2226 30.4336 31.8142 33.2663C31.7922 33.5079 31.781 33.7525 31.781 33.9998L31.781 65.9998C31.781 70.4181 35.3627 73.9998 39.781 73.9998C44.1993 73.9998 47.781 70.4181 47.781 65.9998L47.781 33.9998C47.781 33.8375 47.7762 33.6763 47.7666 33.5164C47.7759 33.511 47.7852 33.5057 47.7946 33.5003C52.6176 30.7157 55.5888 25.5695 55.5888 20.0003C55.5888 14.4311 52.6176 9.28489 47.7945 6.50028C47.2117 6.16376 46.6124 5.8679 46.0008 5.61271L46.0008 8.50028L46.0008 9.00028L46.0008 15.9993L45.9964 15.9993L45.9964 20.4622L40.0007 23.9238L34.005 20.4622L34.005 15.9993L34.0008 15.9993L34.0008 9.00028L34.0008 8.50028Z" fill="currentColor" fill-opacity="0.25" />
  <path d="M34.0008 5.6123L36.0008 5.6123C36.0008 4.94345 35.6665 4.31887 35.1099 3.94798C34.5533 3.57708 33.8481 3.50896 33.2308 3.76647L34.0008 5.6123ZM34.0008 8.50028L36.0008 8.50028L34.0008 8.50028ZM32.2061 6.50028L31.2061 4.76823L31.2061 4.76823L32.2061 6.50028ZM31.8142 33.2663L33.806 33.4474C33.8746 32.6918 33.5099 31.9625 32.8643 31.5642L31.8142 33.2663ZM31.781 33.9998L33.781 33.9998L31.781 33.9998ZM31.781 65.9998L29.781 65.9998L31.781 65.9998ZM47.781 65.9998L49.781 65.9998L47.781 65.9998ZM47.781 33.9998L49.781 33.9998L47.781 33.9998ZM47.7666 33.5164L46.7703 31.7822C46.1124 32.1602 45.725 32.878 45.7702 33.6354L47.7666 33.5164ZM47.7946 33.5003L46.7946 31.7682L46.7945 31.7683L47.7946 33.5003ZM47.7945 6.50028L48.7945 4.76823V4.76823L47.7945 6.50028ZM46.0008 5.61271L46.7709 3.76693C46.1536 3.50937 45.4484 3.57745 44.8918 3.94835C44.3352 4.31924 44.0008 4.94384 44.0008 5.61271L46.0008 5.61271ZM46.0008 8.50028L48.0008 8.50028L46.0008 8.50028ZM46.0008 9.00028L44.0008 9.00028L46.0008 9.00028ZM46.0008 15.9993L46.0008 17.9993C47.1054 17.9993 48.0008 17.1039 48.0008 15.9993L46.0008 15.9993ZM45.9964 15.9993L45.9964 13.9993C44.8918 13.9993 43.9964 14.8947 43.9964 15.9993L45.9964 15.9993ZM45.9964 20.4622L46.9964 22.1943C47.6152 21.837 47.9964 21.1768 47.9964 20.4622L45.9964 20.4622ZM40.0007 23.9238L39.0007 25.6559C39.6195 26.0131 40.3819 26.0131 41.0007 25.6559L40.0007 23.9238ZM34.005 20.4622L32.005 20.4622C32.005 21.1768 32.3862 21.837 33.005 22.1943L34.005 20.4622ZM34.005 15.9993L36.005 15.9993C36.005 14.8947 35.1096 13.9993 34.005 13.9993L34.005 15.9993ZM34.0008 15.9993L32.0008 15.9993C32.0008 17.1039 32.8962 17.9993 34.0008 17.9993L34.0008 15.9993ZM34.0008 9.00028L32.0008 9.00028L34.0008 9.00028ZM32.0008 5.6123L32.0008 8.50028L36.0008 8.50028L36.0008 5.6123L32.0008 5.6123ZM33.2061 8.23234C33.7148 7.93866 34.2375 7.68062 34.7708 7.45814L33.2308 3.76647C32.5402 4.05455 31.8638 4.3885 31.2061 4.76823L33.2061 8.23234ZM26.4119 20.0003C26.4119 15.1456 29.0018 10.6597 33.2061 8.23234L31.2061 4.76823C25.7642 7.91011 22.4119 13.7165 22.4119 20.0003L26.4119 20.0003ZM32.8643 31.5642C28.862 29.095 26.4119 24.722 26.4119 20.0003L22.4119 20.0003C22.4119 26.1121 25.5832 31.7722 30.7641 34.9685L32.8643 31.5642ZM33.781 33.9998C33.781 33.8131 33.7895 33.6288 33.806 33.4474L29.8224 33.0853C29.795 33.3869 29.781 33.692 29.781 33.9998L33.781 33.9998ZM33.781 65.9998L33.781 33.9998L29.781 33.9998L29.781 65.9998L33.781 65.9998ZM39.781 71.9998C36.4673 71.9998 33.781 69.3135 33.781 65.9998L29.781 65.9998C29.781 71.5226 34.2581 75.9998 39.781 75.9998L39.781 71.9998ZM45.781 65.9998C45.781 69.3135 43.0947 71.9998 39.781 71.9998L39.781 75.9998C45.3038 75.9998 49.781 71.5226 49.781 65.9998L45.781 65.9998ZM45.781 33.9998L45.781 65.9998L49.781 65.9998L49.781 33.9998L45.781 33.9998ZM45.7702 33.6354C45.7773 33.7557 45.781 33.8772 45.781 33.9998L49.781 33.9998C49.781 33.7977 49.775 33.5969 49.7631 33.3974L45.7702 33.6354ZM46.7945 31.7683C46.7864 31.7729 46.7784 31.7776 46.7703 31.7822L48.763 35.2505C48.7735 35.2445 48.784 35.2384 48.7946 35.2323L46.7945 31.7683ZM53.5888 20.0003C53.5888 24.855 50.9988 29.3409 46.7946 31.7682L48.7946 35.2323C54.2364 32.0905 57.5888 26.284 57.5888 20.0003L53.5888 20.0003ZM46.7945 8.23234C50.9988 10.6597 53.5888 15.1456 53.5888 20.0003L57.5888 20.0003C57.5888 13.7165 54.2364 7.91011 48.7945 4.76823L46.7945 8.23234ZM45.2307 7.4585C45.7637 7.6809 46.2862 7.93881 46.7945 8.23234L48.7945 4.76823C48.1372 4.3887 47.4611 4.0549 46.7709 3.76693L45.2307 7.4585ZM48.0008 8.50028L48.0008 5.61271L44.0008 5.61271L44.0008 8.50028L48.0008 8.50028ZM48.0008 9.00028L48.0008 8.50028L44.0008 8.50028L44.0008 9.00028L48.0008 9.00028ZM48.0008 15.9993L48.0008 9.00028L44.0008 9.00028L44.0008 15.9993L48.0008 15.9993ZM45.9964 17.9993L46.0008 17.9993L46.0008 13.9993L45.9964 13.9993L45.9964 17.9993ZM47.9964 20.4622L47.9964 15.9993L43.9964 15.9993L43.9964 20.4622L47.9964 20.4622ZM41.0007 25.6559L46.9964 22.1943L44.9964 18.7302L39.0007 22.1918L41.0007 25.6559ZM33.005 22.1943L39.0007 25.6559L41.0007 22.1918L35.005 18.7302L33.005 22.1943ZM32.005 15.9993L32.005 20.4622L36.005 20.4622L36.005 15.9993L32.005 15.9993ZM34.0008 17.9993L34.005 17.9993L34.005 13.9993L34.0008 13.9993L34.0008 17.9993ZM32.0008 9.00028L32.0008 15.9993L36.0008 15.9993L36.0008 9.00028L32.0008 9.00028ZM32.0008 8.50028L32.0008 9.00028L36.0008 9.00028L36.0008 8.50028L32.0008 8.50028Z" fill="currentColor" />
</svg>