<svg viewBox="0 0 80 80" fill="none">
  <path fill-rule="evenodd" clip-rule="evenodd" d="M40 12C32.5744 12 25.4523 14.9504 20.2016 20.2011C14.9505 25.4521 12 32.5748 12 40.0009C12 47.4266 14.9499 54.5485 20.2007 59.7993C25.4502 65.0488 32.5708 67.9986 39.9946 68C36.2837 67.9986 32.7243 66.5238 30.1003 63.8997C27.4749 61.2744 26 57.7135 26 54.0007C26 50.2876 27.4754 46.7261 30.1009 44.1006C32.725 41.4765 36.284 40.0014 39.9948 40L40 40C43.7128 40 47.2744 38.5251 49.8997 35.8997C52.5251 33.2744 54 29.7135 54 26.0007C54 22.2876 52.5246 18.7261 49.8991 16.1006C47.2738 13.4753 43.7127 12 40 12ZM39.8696 22C37.6605 22 35.8696 23.7909 35.8696 26C35.8696 28.2091 37.6605 30 39.8696 30C42.0788 30 43.8696 28.2091 43.8696 26C43.8696 23.7909 42.0788 22 39.8696 22Z" fill="currentColor" fill-opacity="0.15" />
  <path d="M20.2016 20.2011L21.6158 21.6153L20.2016 20.2011ZM20.2007 59.7993L21.6149 58.3851H21.6149L20.2007 59.7993ZM39.9946 68L39.9942 70C41.0987 70.0002 41.9942 69.1051 41.9946 68.0006C41.9949 66.8961 41.0998 66.0004 39.9953 66L39.9946 68ZM30.1003 63.8997L31.5145 62.4855V62.4855L30.1003 63.8997ZM30.1009 44.1006L31.5151 45.5148V45.5148L30.1009 44.1006ZM39.9948 40L39.9941 38L39.9948 40ZM40 40L40 38H39.9993L40 40ZM49.8997 35.8997L48.4855 34.4855L49.8997 35.8997ZM49.8991 16.1006L51.3133 14.6864L49.8991 16.1006ZM21.6158 21.6153C26.4915 16.7396 33.1048 14 40 14V10C32.0439 10 24.4131 13.1611 18.7874 18.7869L21.6158 21.6153ZM14 40.0009C14 33.1053 16.7398 26.4913 21.6158 21.6153L18.7874 18.7869C13.1613 24.413 10 32.0443 10 40.0009H14ZM21.6149 58.3851C16.7392 53.5094 14 46.8962 14 40.0009H10C10 47.9571 13.1606 55.5876 18.7865 61.2135L21.6149 58.3851ZM39.9949 66C33.1013 65.9987 26.4894 63.2596 21.6149 58.3851L18.7865 61.2135C24.411 66.8381 32.0402 69.9985 39.9942 70L39.9949 66ZM28.686 65.3139C31.6851 68.313 35.7529 69.9984 39.9938 70L39.9953 66C36.8145 65.9988 33.7636 64.7346 31.5145 62.4855L28.686 65.3139ZM24 54.0007C24 58.2439 25.6856 62.3135 28.686 65.3139L31.5145 62.4855C29.2642 60.2353 28 57.1831 28 54.0007H24ZM28.6867 42.6864C25.6862 45.6869 24 49.7571 24 54.0007H28C28 50.8181 29.2647 47.7653 31.5151 45.5148L28.6867 42.6864ZM39.9941 38C35.753 38.0016 31.6856 39.6875 28.6867 42.6864L31.5151 45.5148C33.7644 43.2656 36.815 42.0012 39.9956 42L39.9941 38ZM39.9993 38L39.9941 38L39.9956 42L40.0007 42L39.9993 38ZM48.4855 34.4855C46.2353 36.7357 43.1825 38 40 38L40 42C44.2431 42 48.3134 40.3145 51.3139 37.3139L48.4855 34.4855ZM52 26.0007C52 29.1831 50.7358 32.2353 48.4855 34.4855L51.3139 37.3139C54.3144 34.3135 56 30.2439 56 26.0007H52ZM48.4849 17.5148C50.7353 19.7653 52 22.8181 52 26.0007H56C56 21.7571 54.3138 17.6869 51.3133 14.6864L48.4849 17.5148ZM40 14C43.1822 14 46.2346 15.2645 48.4849 17.5148L51.3133 14.6864C48.313 11.6861 44.2432 10 40 10V14ZM37.8696 26C37.8696 24.8954 38.7651 24 39.8696 24V20C36.5559 20 33.8696 22.6863 33.8696 26H37.8696ZM39.8696 28C38.7651 28 37.8696 27.1046 37.8696 26H33.8696C33.8696 29.3137 36.5559 32 39.8696 32V28ZM41.8696 26C41.8696 27.1046 40.9742 28 39.8696 28V32C43.1833 32 45.8696 29.3137 45.8696 26H41.8696ZM39.8696 24C40.9742 24 41.8696 24.8954 41.8696 26H45.8696C45.8696 22.6863 43.1833 20 39.8696 20V24Z" fill="currentColor" />
  <path fill-rule="evenodd" clip-rule="evenodd" d="M40 68C47.4256 68 54.5477 65.0496 59.7984 59.7989C65.0495 54.5479 68 47.4252 68 39.9991C68 32.5734 65.0501 25.4515 59.7993 20.2007C54.5498 14.9512 47.4292 12.0014 40.0054 12C43.7163 12.0014 47.2757 13.4762 49.8997 16.1003C52.5251 18.7256 54 22.2865 54 25.9993C54 29.7124 52.5246 33.2739 49.8991 35.8994C47.275 38.5235 43.716 39.9986 40.0052 40L40 40C36.2872 40 32.7256 41.4749 30.1003 44.1003C27.4749 46.7256 26 50.2865 26 53.9993C26 57.7124 27.4754 61.2739 30.1009 63.8994C32.7262 66.5247 36.2873 68 40 68ZM40.1304 58C42.3395 58 44.1304 56.2091 44.1304 54C44.1304 51.7909 42.3395 50 40.1304 50C37.9212 50 36.1304 51.7909 36.1304 54C36.1304 56.2091 37.9212 58 40.1304 58Z" fill="currentColor" fill-opacity="0.15" />
  <path d="M59.7984 59.7989L58.3842 58.3847L59.7984 59.7989ZM59.7993 20.2007L58.3851 21.6149H58.3851L59.7993 20.2007ZM40.0054 12L40.0058 10C38.9013 9.99979 38.0058 10.8949 38.0054 11.9994C38.0051 13.1039 38.9002 13.9996 40.0047 14L40.0054 12ZM49.8997 16.1003L48.4855 17.5145V17.5145L49.8997 16.1003ZM49.8991 35.8994L48.4849 34.4852V34.4852L49.8991 35.8994ZM40.0052 40L40.0059 42L40.0052 40ZM40 40L40 42H40.0007L40 40ZM30.1003 44.1003L31.5145 45.5145L30.1003 44.1003ZM30.1009 63.8994L28.6867 65.3136L30.1009 63.8994ZM58.3842 58.3847C53.5085 63.2604 46.8952 66 40 66V70C47.9561 70 55.5869 66.8389 61.2126 61.2131L58.3842 58.3847ZM66 39.9991C66 46.8947 63.2602 53.5087 58.3842 58.3847L61.2126 61.2131C66.8387 55.587 70 47.9557 70 39.9991H66ZM58.3851 21.6149C63.2608 26.4906 66 33.1038 66 39.9991H70C70 32.0429 66.8394 24.4124 61.2135 18.7865L58.3851 21.6149ZM40.0051 14C46.8987 14.0013 53.5106 16.7404 58.3851 21.6149L61.2135 18.7865C55.589 13.1619 47.9598 10.0015 40.0058 10L40.0051 14ZM51.314 14.6861C48.3149 11.687 44.2471 10.0016 40.0062 10L40.0047 14C43.1855 14.0012 46.2364 15.2654 48.4855 17.5145L51.314 14.6861ZM56 25.9993C56 21.7561 54.3144 17.6865 51.314 14.6861L48.4855 17.5145C50.7358 19.7647 52 22.8169 52 25.9993H56ZM51.3133 37.3136C54.3138 34.3131 56 30.2429 56 25.9993H52C52 29.1819 50.7353 32.2347 48.4849 34.4852L51.3133 37.3136ZM40.0059 42C44.247 41.9984 48.3144 40.3125 51.3133 37.3136L48.4849 34.4852C46.2356 36.7344 43.185 37.9988 40.0044 38L40.0059 42ZM40.0007 42L40.0059 42L40.0044 38L39.9993 38L40.0007 42ZM31.5145 45.5145C33.7647 43.2643 36.8175 42 40 42L40 38C35.7569 38 31.6866 39.6855 28.6861 42.6861L31.5145 45.5145ZM28 53.9993C28 50.8169 29.2642 47.7647 31.5145 45.5145L28.6861 42.6861C25.6856 45.6865 24 49.7561 24 53.9993H28ZM31.5151 62.4852C29.2647 60.2347 28 57.1819 28 53.9993H24C24 58.2429 25.6862 62.3131 28.6867 65.3136L31.5151 62.4852ZM40 66C36.8178 66 33.7654 64.7355 31.5151 62.4852L28.6867 65.3136C31.687 68.3139 35.7568 70 40 70V66ZM42.1304 54C42.1304 55.1046 41.2349 56 40.1304 56V60C43.4441 60 46.1304 57.3137 46.1304 54H42.1304ZM40.1304 52C41.2349 52 42.1304 52.8954 42.1304 54H46.1304C46.1304 50.6863 43.4441 48 40.1304 48V52ZM38.1304 54C38.1304 52.8954 39.0258 52 40.1304 52V48C36.8167 48 34.1304 50.6863 34.1304 54H38.1304ZM40.1304 56C39.0258 56 38.1304 55.1046 38.1304 54H34.1304C34.1304 57.3137 36.8167 60 40.1304 60V56Z" fill="currentColor" />
  <rect x="36" y="22" width="8" height="8" rx="4" fill="currentColor" fill-opacity="0.15" stroke="currentColor" />
  <rect x="36" y="50" width="8" height="8" rx="4" fill="currentColor" fill-opacity="0.15" stroke="currentColor" />
</svg>