<svg viewBox="0 0 80 80" fill="none">
  <path d="M47.2541 47.9583L51.5505 47.9583L51.5505 57.9895C51.5505 60.1986 53.3414 61.9895 55.5505 61.9895C57.7597 61.9895 59.5505 60.1986 59.5505 57.9895L59.5505 45.9583C59.5505 42.6446 56.8642 39.9583 53.5505 39.9583H49.6634L53.8111 33.5507C55.755 30.5477 54.656 26.5216 51.4558 24.9228L40.7932 19.596C38.6268 18.5137 36.0223 18.8399 34.1896 20.4228L27.1367 26.515C25.4649 27.959 25.2803 30.485 26.7244 32.1568C28.1685 33.8286 30.6944 34.0132 32.3662 32.5691L38.4103 27.3483L42.391 29.337L36.5452 38.3791" stroke="currentColor" stroke-linecap="round" stroke-linejoin="round" />
  <path d="M27.0718 40C31.359 37.5248 36.641 37.5248 40.9282 40C45.2154 42.4752 47.8564 47.0495 47.8564 52C47.8564 56.9504 45.2154 61.5248 40.9282 64C36.641 66.4752 31.359 66.4752 27.0718 64C22.7846 61.5248 20.1436 56.9504 20.1436 52C20.1436 47.0495 22.7846 42.4752 27.0718 40Z" stroke="currentColor" stroke-linecap="round" stroke-linejoin="round" />
  <path d="M52.2636 24.6824C53.9928 25.5151 56.0072 25.5151 57.7364 24.6824C59.4657 23.8496 60.7216 22.2747 61.1487 20.4035C61.5758 18.5323 61.1275 16.5685 59.9309 15.0679C58.7342 13.5674 56.9193 12.6934 55 12.6934C53.0807 12.6934 51.2658 13.5674 50.0692 15.0679C48.8725 16.5685 48.4243 18.5323 48.8514 20.4035C49.2784 22.2747 50.5344 23.8496 52.2636 24.6824Z" stroke="currentColor" stroke-linecap="round" stroke-linejoin="round" />
</svg>