<svg viewBox="0 0 80 80" fill="none">
  <path d="M31.2638 23.6087C36.6968 21.3583 42.8013 21.3583 48.2343 23.6087C53.6674 25.8592 57.9839 30.1757 60.2343 35.6087C62.4848 41.0418 62.4848 47.1463 60.2343 52.5793C57.9839 58.0123 53.6674 62.3288 48.2343 64.5793C42.8013 66.8297 36.6968 66.8297 31.2638 64.5793C25.8307 62.3289 21.5142 58.0123 19.2638 52.5793C17.0133 47.1463 17.0133 41.0418 19.2638 35.6087C21.5142 30.1757 25.8307 25.8592 31.2638 23.6087Z" stroke="currentColor" stroke-linecap="round" stroke-linejoin="round" />
  <path d="M15.749 67.916L23.9816 59.6831" stroke="currentColor" stroke-linecap="round" stroke-linejoin="round" />
  <path d="M63.749 67.9153L55.5168 59.6831" stroke="currentColor" stroke-linecap="round" stroke-linejoin="round" />
  <path d="M62.6963 13.2126C59.527 11.8998 55.9661 11.8998 52.7968 13.2126C51.5274 13.7384 50.3626 14.4575 49.3378 15.3343C48.2754 16.2434 48.8051 17.8605 50.1021 18.3829C50.1862 18.4167 50.2702 18.451 50.354 18.4858C57.1453 21.2988 62.541 26.6945 65.354 33.4858C65.681 34.2752 66.6816 34.5533 67.2605 33.9248C68.2806 32.8173 69.109 31.5299 69.6963 30.1121C71.009 26.9428 71.009 23.3819 69.6963 20.2126C68.3835 17.0433 65.8656 14.5253 62.6963 13.2126Z" stroke="currentColor" stroke-linecap="round" stroke-linejoin="round" />
  <path d="M30.3995 15.2247C31.4868 16.1305 30.9494 17.7713 29.6318 18.2878C29.4677 18.3522 29.304 18.4182 29.1408 18.4858C22.3495 21.2988 16.9539 26.6945 14.1408 33.4858C13.8643 34.1534 13.0113 34.3731 12.5266 33.8371C11.5433 32.7495 10.7429 31.4927 10.1711 30.1122C8.85833 26.943 8.85833 23.382 10.1711 20.2128C11.4838 17.0435 14.0018 14.5255 17.1711 13.2128C20.3404 11.9 23.9013 11.9 27.0706 13.2128C28.2865 13.7164 29.4066 14.3975 30.3995 15.2247Z" stroke="currentColor" stroke-linecap="round" stroke-linejoin="round" />
  <path d="M50 44.5H30" stroke="currentColor" stroke-linecap="round" stroke-linejoin="round" />
</svg>