<svg viewBox="0 0 80 80" fill="none">
  <path d="M10.0951 26.0908C10.0433 24.9518 10.9528 24 12.0931 24H67.9071C69.0473 24 69.9568 24.9518 69.905 26.0908L68.0869 66.0908C68.0383 67.159 67.1582 68 66.0889 68H13.9112C12.842 68 11.9619 67.159 11.9133 66.0908L10.0951 26.0908Z" stroke="currentColor" stroke-linecap="round" stroke-linejoin="round" />
  <path d="M40.0001 29L42.6872 29.1069L45.3406 29.4262L47.9268 29.954L50.4133 30.6835L52.7688 31.6057L54.9638 32.7089L56.9706 33.9792L58.764 35.4007L60.3214 36.9555L61.6233 38.624L62.1678 39.555C62.491 40.1078 62.7744 40.683 63.0156 41.2761L63.0407 41.3379C63.2788 41.9232 63.4724 42.5257 63.6197 43.1402L63.6279 43.174C63.7752 43.7881 63.8742 44.4128 63.9241 45.0424C63.9747 45.6798 63.9747 46.3202 63.9241 46.9576C63.8742 47.5872 63.7752 48.2119 63.6279 48.826L63.6197 48.8598C63.4723 49.4743 63.2788 50.0768 63.0407 50.6621L63.0156 50.7239C62.7744 51.317 62.491 51.8922 62.1678 52.445L61.6233 53.376L60.3214 55.0445L58.764 56.5993L56.9706 58.0208L54.9638 59.2911L52.7688 60.3943L50.4133 61.3165L47.9268 62.046L45.3406 62.5738L42.6872 62.8931L40.0001 63L37.3129 62.8931L34.6596 62.5738L32.0734 62.046L29.5869 61.3165L27.2313 60.3943L25.0363 59.2911L23.0295 58.0208L21.2361 56.5993L19.6787 55.0445L18.3768 53.376L17.8324 52.445C17.5091 51.8922 17.2258 51.317 16.9845 50.7239L16.9594 50.6621C16.7213 50.0768 16.5278 49.4743 16.3804 48.8598L16.3723 48.826C16.225 48.2119 16.1259 47.5872 16.076 46.9576C16.0255 46.3202 16.0255 45.6798 16.076 45.0424C16.1259 44.4128 16.225 43.7881 16.3723 43.174L16.3804 43.1402C16.5278 42.5257 16.7213 41.9232 16.9594 41.3379L16.9845 41.2761C17.2258 40.683 17.5091 40.1078 17.8324 39.555L18.3768 38.624L19.6787 36.9555L21.2361 35.4007L23.0295 33.9792L25.0363 32.7089L27.2313 31.6057L29.5869 30.6835L32.0734 29.954L34.6596 29.4262L37.3129 29.1069L40.0001 29Z" stroke="currentColor" stroke-linecap="round" stroke-linejoin="round" />
  <path d="M40.0001 42.9643L40.48 42.9834L40.9538 43.0404L41.4156 43.1346L41.8596 43.2649L42.2803 43.4296L42.6722 43.6266L43.0306 43.8534L43.3508 44.1073L43.6289 44.3849L43.8614 44.6829L43.9586 44.8491C44.0164 44.9478 44.067 45.0505 44.11 45.1565L44.1145 45.1675C44.157 45.272 44.1916 45.3796 44.2179 45.4893L44.2194 45.4954C44.2457 45.605 44.2634 45.7166 44.2723 45.829C44.2813 45.9428 44.2813 46.0572 44.2723 46.171C44.2634 46.2834 44.2457 46.395 44.2194 46.5047L44.2179 46.5107C44.1916 46.6204 44.157 46.728 44.1145 46.8325L44.11 46.8435C44.067 46.9495 44.0164 47.0522 43.9586 47.1509L43.8614 47.3172L43.6289 47.6151L43.3508 47.8927L43.0306 48.1466L42.6722 48.3734L42.2803 48.5704L41.8596 48.7351L41.4156 48.8654L40.9538 48.9596L40.48 49.0166L40.0001 49.0357L39.5203 49.0166L39.0465 48.9596L38.5846 48.8654L38.1406 48.7351L37.72 48.5704L37.328 48.3734L36.9697 48.1466L36.6494 47.8927L36.3713 47.6151L36.1388 47.3172L36.0416 47.1509C35.9839 47.0522 35.9333 46.9495 35.8902 46.8436L35.8857 46.8325C35.8432 46.728 35.8086 46.6204 35.7823 46.5107L35.7809 46.5047C35.7546 46.395 35.7369 46.2834 35.728 46.171C35.7189 46.0572 35.7189 45.9428 35.728 45.829C35.7369 45.7166 35.7546 45.605 35.7809 45.4954L35.7823 45.4893C35.8086 45.3796 35.8432 45.272 35.8857 45.1675L35.8902 45.1565C35.9333 45.0505 35.9839 44.9478 36.0416 44.8491L36.1388 44.6829L36.3713 44.3849L36.6494 44.1073L36.9697 43.8534L37.328 43.6266L37.72 43.4296L38.1406 43.2649L38.5846 43.1346L39.0465 43.0404L39.5203 42.9834L40.0001 42.9643Z" stroke="currentColor" stroke-linecap="round" stroke-linejoin="round" />
  <path d="M66 18H14" stroke="currentColor" stroke-linecap="round" stroke-linejoin="round" />
  <path d="M62 12H18" stroke="currentColor" stroke-linecap="round" stroke-linejoin="round" />
</svg>