<svg viewBox="0 0 80 80" fill="none">
  <path d="M63.6421 29.5005L33.938 29.5005L42.7278 14.276C45.172 14.5351 47.588 15.1434 49.8997 16.101C56.0368 18.643 60.9527 23.4447 63.6421 29.5005Z" stroke="currentColor" stroke-linecap="round" stroke-linejoin="round" />
  <path d="M60.9145 55.2248L46.0625 29.5004H63.6422C64.6399 31.7466 65.3211 34.1431 65.6477 36.6239C66.5147 43.2097 64.8143 49.8679 60.9145 55.2248Z" stroke="currentColor" stroke-linecap="round" stroke-linejoin="round" />
  <path d="M37.2729 65.7246L52.125 40.0001L60.9148 55.2246C59.4684 57.2117 57.7336 58.9999 55.7484 60.5231C50.4784 64.5669 43.8621 66.4234 37.2729 65.7246Z" stroke="currentColor" stroke-linecap="round" stroke-linejoin="round" />
  <path d="M16.3589 50.5001H46.063L37.2731 65.7246C34.8289 65.4655 32.413 64.8572 30.1012 63.8996C23.9642 61.3576 19.0482 56.5559 16.3589 50.5001Z" stroke="currentColor" stroke-linecap="round" stroke-linejoin="round" />
  <path d="M19.0864 24.7763L33.9384 50.5008H16.3587C15.361 48.2545 14.6799 45.8581 14.3532 43.3773C13.4862 36.7914 15.1866 30.1332 19.0864 24.7763Z" stroke="currentColor" stroke-linecap="round" stroke-linejoin="round" />
  <path d="M42.7273 14.2762L27.8753 40.0007L19.0854 24.7762C20.5319 22.789 22.2667 21.0009 24.2519 19.4777C29.5219 15.4338 36.1382 13.5773 42.7273 14.2762Z" stroke="currentColor" stroke-linecap="round" stroke-linejoin="round" />
</svg>