<svg viewBox="0 0 80 80" fill="none">
  <path d="M66 30H14C12.8954 30 12 30.8954 12 32V48C12 49.1046 12.8954 50 14 50H66C67.1046 50 68 49.1046 68 48V32C68 30.8954 67.1046 30 66 30Z" stroke="currentColor" stroke-linecap="round" stroke-linejoin="round" />
  <path d="M30 14C30 12.8954 30.8954 12 32 12H48C49.1046 12 50 12.8954 50 14L50 13.9961V66C50 67.1046 49.1046 68 48 68H32C30.8954 68 30 67.1046 30 66L30 14ZM30 14L30 13.9961" stroke="currentColor" stroke-linecap="round" stroke-linejoin="round" />
  <path d="M37.5 36C37.5 35.4477 37.0523 35 36.5 35H36C35.4477 35 35 35.4477 35 36V36.5C35 37.0523 35.4477 37.5 36 37.5H36.5C37.0523 37.5 37.5 37.0523 37.5 36.5V36Z" stroke="currentColor" stroke-linecap="round" stroke-linejoin="round" />
  <path d="M45 36C45 35.4477 44.5523 35 44 35H43.5C42.9477 35 42.5 35.4477 42.5 36V36.5C42.5 37.0523 42.9477 37.5 43.5 37.5H44C44.5523 37.5 45 37.0523 45 36.5V36Z" stroke="currentColor" stroke-linecap="round" stroke-linejoin="round" />
  <path d="M42.5 43.5C42.5 42.9477 42.9477 42.5 43.5 42.5H44C44.5523 42.5 45 42.9477 45 43.5V44C45 44.5523 44.5523 45 44 45H43.5C42.9477 45 42.5 44.5523 42.5 44V43.5Z" stroke="currentColor" stroke-linecap="round" stroke-linejoin="round" />
  <path d="M37.5 43.5C37.5 42.9477 37.0523 42.5 36.5 42.5H36C35.4477 42.5 35 42.9477 35 43.5V44C35 44.5523 35.4477 45 36 45H36.5C37.0523 45 37.5 44.5523 37.5 44V43.5Z" stroke="currentColor" stroke-linecap="round" stroke-linejoin="round" />
</svg>