<svg viewBox="0 0 80 80" fill="none">
  <path d="M10 26C10 23.7909 11.7909 22 14 22H62C64.2091 22 66 23.7909 66 26V54C66 56.2091 64.2091 58 62 58H14C11.7909 58 10 56.2091 10 54V26Z" stroke="currentColor" stroke-linecap="round" stroke-linejoin="round" />
  <path d="M50 30.3379C50 29.2333 49.1046 28.3379 48 28.3379H18C16.8954 28.3379 16 29.2333 16 30.3379V50.3379C16 51.4425 16.8954 52.3379 18 52.3379H48C49.1046 52.3379 50 51.4425 50 50.3379V30.3379Z" stroke="currentColor" stroke-linecap="round" stroke-linejoin="round" />
  <path d="M66 47.5C66 47.7761 66.2239 48 66.5 48C68.433 48 70 46.433 70 44.5V35.5C70 33.567 68.433 32 66.5 32C66.2239 32 66 32.2239 66 32.5" stroke="currentColor" stroke-linecap="round" stroke-linejoin="round" />
</svg>