<svg viewBox="0 0 80 80" fill="none">
  <path d="M65.6036 25.2178C67.5265 28.5484 68.7998 32.254 69.3115 36.1409C70.3349 43.9148 68.2283 51.7768 63.4551 57.9974C58.6818 64.218 51.633 68.2876 43.8592 69.3111C36.0853 70.3345 28.2234 68.2279 22.0028 63.4547C18.8925 61.068 16.3199 58.1125 14.397 54.7819L65.6036 25.2178Z" stroke="currentColor" stroke-linecap="round" stroke-linejoin="round" />
  <path d="M41.162 10.4586L40.0004 40L14.397 54.7821C12.4741 51.4515 11.2008 47.7459 10.6891 43.8589C9.66563 36.0851 11.7722 28.2231 16.5455 22.0025C21.3187 15.7819 28.3676 11.7123 36.1414 10.6888C37.8166 10.4683 39.4959 10.3931 41.162 10.4586Z" stroke="currentColor" stroke-linecap="round" stroke-linejoin="round" />
  <path d="M41.1488 10.458C47.2187 10.6941 53.1139 12.7979 57.9974 16.5451C61.0989 18.925 63.6657 21.8705 65.5869 25.1896L40 39.9999L41.1488 10.458Z" stroke="currentColor" stroke-linecap="round" stroke-linejoin="round" />
</svg>