<svg viewBox="0 0 80 80" fill="none">
  <path d="M33.3124 15.6843C36.0475 13.4763 39.9527 13.4763 42.6878 15.6843C45.0323 17.577 46.0087 20.6938 45.163 23.5858L44.7749 24.9128C43.8949 27.9221 41.1354 29.9902 38.0001 29.9902C34.8648 29.9902 32.1052 27.9221 31.2252 24.9128L30.8372 23.5858C29.9915 20.6938 30.9679 17.577 33.3124 15.6843Z" stroke="currentColor" stroke-linecap="round" stroke-linejoin="round" />
  <path d="M19.8181 21.3179C21.5756 19.5606 24.4248 19.5607 26.1821 21.3181L32.6467 27.7833C34.0665 29.2031 35.9921 30.0008 38 30.0008C40.0079 30.0008 41.9335 29.2031 43.3533 27.7833L49.8179 21.3181C51.5752 19.5607 54.4244 19.5606 56.1819 21.3179C57.9393 23.0752 57.9394 25.9244 56.1821 27.6819L48.4919 35.3727C47.8568 36.0078 47.5 36.8692 47.5 37.7674V63.5C47.5 65.9853 45.4853 68 43 68C40.5147 68 38.5 65.9853 38.5 63.5V51.5C38.5 51.2239 38.2761 51 38 51C37.7239 51 37.5 51.2239 37.5 51.5V63.5C37.5 65.9853 35.4853 68 33 68C30.5147 68 28.5 65.9853 28.5 63.5V37.7674C28.5 36.8692 28.1432 36.0078 27.5081 35.3727L19.8179 27.6819C18.0606 25.9244 18.0607 23.0752 19.8181 21.3179Z" stroke="currentColor" stroke-linecap="round" stroke-linejoin="round" />
</svg>