<svg viewBox="0 0 80 80" fill="none">
  <path d="M31.5147 19.515C36.9478 17.2645 43.0523 17.2645 48.4853 19.515C53.9183 21.7654 58.2349 26.0819 60.4853 31.515C62.7357 36.948 62.7357 43.0525 60.4853 48.4855C58.2349 53.9186 53.9183 58.2351 48.4853 60.4855C43.0523 62.736 36.9478 62.736 31.5147 60.4855C26.0817 58.2351 21.7652 53.9186 19.5147 48.4855C17.2643 43.0525 17.2643 36.948 19.5147 31.515C21.7652 26.0819 26.0817 21.7654 31.5147 19.515Z" stroke="currentColor" stroke-linecap="round" stroke-linejoin="round" />
  <path d="M40.0007 37.0005C38.3439 37.0005 37.0007 38.3436 37.0007 40.0005C37.0007 41.6573 38.3439 43.0005 40.0007 43.0005C41.6576 43.0005 43.0007 41.6573 43.0007 40.0005C43.0007 38.3436 41.6576 37.0005 40.0007 37.0005Z" stroke="currentColor" stroke-linecap="round" stroke-linejoin="round" />
  <path d="M46.6853 31.2651L41.8245 37.6184" stroke="currentColor" stroke-linecap="round" stroke-linejoin="round" />
  <path d="M53.9077 47.9096L42.6099 41.4824" stroke="currentColor" stroke-linecap="round" stroke-linejoin="round" />
  <path d="M48.0665 25.9006L48.0625 25.8983L47.0621 27.6301L47.0669 27.6329L48.0665 25.9006Z" stroke="currentColor" stroke-linecap="round" stroke-linejoin="round" />
  <path d="M53.9775 31.7239L53.9752 31.72L52.2427 32.7196L52.2456 32.7244L53.9775 31.7239Z" stroke="currentColor" stroke-linecap="round" stroke-linejoin="round" />
  <path d="M56.2423 39.7552L56.2422 39.7508L54.2419 39.7502L54.242 39.7557L56.2423 39.7552Z" stroke="currentColor" stroke-linecap="round" stroke-linejoin="round" />
  <path d="M54.1888 47.9092L54.1909 47.9054L52.4588 46.9048L52.4562 46.9095L54.1888 47.9092Z" stroke="currentColor" stroke-linecap="round" stroke-linejoin="round" />
  <path d="M48.2764 53.9778L48.2801 53.9756L47.2805 52.2432L47.2759 52.2459L48.2764 53.9778Z" stroke="currentColor" stroke-linecap="round" stroke-linejoin="round" />
  <path d="M40.064 56.2443L40.0683 56.2442L40.0688 54.2442L40.0635 54.2442L40.064 56.2443Z" stroke="currentColor" stroke-linecap="round" stroke-linejoin="round" />
  <path d="M31.8187 54.0337L31.8224 54.0358L32.8229 52.304L32.8183 52.3013L31.8187 54.0337Z" stroke="currentColor" stroke-linecap="round" stroke-linejoin="round" />
  <path d="M25.8416 47.9631L25.8437 47.9668L27.5761 46.9672L27.5735 46.9625L25.8416 47.9631Z" stroke="currentColor" stroke-linecap="round" stroke-linejoin="round" />
  <path d="M23.7579 39.7508L23.7578 39.7552L25.7581 39.7557L25.7582 39.7503L23.7579 39.7508Z" stroke="currentColor" stroke-linecap="round" stroke-linejoin="round" />
  <path d="M26.0587 31.6632L26.0564 31.667L27.7884 32.6676L27.7912 32.6629L26.0587 31.6632Z" stroke="currentColor" stroke-linecap="round" stroke-linejoin="round" />
  <path d="M32.0333 25.8441L32.0372 25.8419L33.0377 27.5738L33.0329 27.5765L32.0333 25.8441Z" stroke="currentColor" stroke-linecap="round" stroke-linejoin="round" />
  <path d="M40.0634 25.7564L40.0639 23.7563L40.0684 23.7564L40.0689 25.7564L40.0634 25.7564Z" stroke="currentColor" stroke-linecap="round" stroke-linejoin="round" />
</svg>