<svg viewBox="0 0 80 80" fill="none">
  <path d="M31.054 30.0913L24.5567 30.1928L21.3941 25.6293C18.1027 26.6327 15.0812 28.3768 12.5661 30.725L14.9371 35.7461L11.6002 41.3227L5.88774 41.8581C5.02433 45.1939 4.98002 48.6922 5.7572 52.0471L11.4098 52.4013L14.5148 57.7793L11.996 62.8503C14.5134 65.2004 17.5657 66.9106 20.8867 67.83L24.2051 63.1528L30.7016 63.0512L33.8621 67.6117C37.1536 66.6076 40.1751 64.8628 42.6899 62.5138L40.3209 57.4969L43.6567 51.9221L49.3638 51.3872C50.2278 48.0511 50.2726 44.5525 49.4956 41.1972L43.8478 40.8432L40.7434 35.4662L43.2615 30.3967C40.7448 28.0457 37.693 26.3346 34.3724 25.4141L31.054 30.0913Z" stroke="currentColor" stroke-linecap="round" stroke-linejoin="round" />
  <path d="M20.4941 42.5028C21.999 39.9878 24.6975 38.4298 27.6281 38.384L27.8915 38.3799C30.8011 38.3344 33.507 39.8686 34.962 42.3887C36.4169 44.9088 36.3926 48.0193 34.8985 50.5163L34.7632 50.7424C33.2583 53.2575 30.5598 54.8154 27.6292 54.8612L27.3658 54.8653C24.4562 54.9108 21.7503 53.3766 20.2953 50.8565C18.8403 48.3364 18.8646 45.2259 20.3588 42.7289L20.4941 42.5028Z" stroke="currentColor" stroke-linecap="round" stroke-linejoin="round" />
  <path d="M72.4541 28.5119L72.3858 24.1342L75.5035 21.9736C74.8182 19.7138 73.6211 17.6399 72.0071 15.9163L68.5767 17.5362L64.8194 15.288L64.4537 11.3853C62.1654 10.7893 59.7642 10.7589 57.4626 11.2958L57.2205 15.1577L53.5981 17.2491L50.1335 15.5283C48.5181 17.2535 47.3442 19.3486 46.7167 21.6286L49.9122 23.8956L49.9805 28.2727L46.8648 30.4319C47.5505 32.6917 48.7481 34.7656 50.3626 36.489L53.7901 34.8705L57.5463 37.118L57.9117 41.0171C60.2002 41.6136 62.6016 41.6443 64.9034 41.1076L65.1454 37.2489L68.7673 35.1578L72.2309 36.8781C73.8469 35.1535 75.0214 33.0588 75.6496 30.7789L72.4541 28.5119Z" stroke="currentColor" stroke-linecap="round" stroke-linejoin="round" />
  <path d="M63.9918 21.3382C65.7067 22.3643 66.769 24.2042 66.8002 26.2024L66.803 26.3818C66.834 28.3657 65.7878 30.2108 64.0695 31.2028C62.3512 32.1949 60.2303 32.1784 58.5276 31.1596L58.3737 31.0675C56.6588 30.0414 55.5965 28.2014 55.5653 26.2032L55.5625 26.0239C55.5315 24.04 56.5777 22.1949 58.296 21.2028C60.0143 20.2108 62.1352 20.2273 63.8379 21.2461L63.9918 21.3382Z" stroke="currentColor" stroke-linecap="round" stroke-linejoin="round" />
</svg>