<svg viewBox="0 0 80 80" fill="none">
  <path d="M31.054 30.0913L24.5566 30.1928L21.3941 25.6293C18.1027 26.6327 15.0811 28.3768 12.566 30.725L14.937 35.7461L11.6001 41.3227L5.88768 41.8581C5.02427 45.1939 4.97996 48.6922 5.75714 52.0471L11.4097 52.4013L14.5147 57.7793L11.9959 62.8503C14.5134 65.2004 17.5657 66.9106 20.8867 67.83L24.2051 63.1528L30.7016 63.0512L33.8621 67.6117C37.1535 66.6076 40.175 64.8628 42.6899 62.5138L40.3208 57.4969L43.6567 51.9221L49.3638 51.3872C50.2278 48.0511 50.2725 44.5525 49.4956 41.1972L43.8478 40.8432L40.7434 35.4662L43.2615 30.3967C40.7447 28.0457 37.693 26.3346 34.3723 25.4141L31.054 30.0913Z" stroke="currentColor" stroke-linecap="round" stroke-linejoin="round" />
  <path d="M20.494 42.5028C21.999 39.9878 24.6975 38.4298 27.628 38.384L27.8914 38.3799C30.801 38.3344 33.5069 39.8686 34.9619 42.3887C36.4169 44.9088 36.3926 48.0193 34.8984 50.5163L34.7631 50.7424C33.2582 53.2575 30.5597 54.8154 27.6292 54.8612L27.3657 54.8653C24.4561 54.9108 21.7502 53.3766 20.2952 50.8565C18.8403 48.3364 18.8646 45.2259 20.3587 42.7289L20.494 42.5028Z" stroke="currentColor" stroke-linecap="round" stroke-linejoin="round" />
  <path d="M72.4542 28.5119L72.3858 24.1342L75.5036 21.9736C74.8183 19.7138 73.6212 17.6399 72.0072 15.9163L68.5768 17.5362L64.8195 15.288L64.4538 11.3853C62.1655 10.7893 59.7642 10.7589 57.4627 11.2958L57.2206 15.1577L53.5982 17.2491L50.1336 15.5283C48.5182 17.2535 47.3443 19.3486 46.7168 21.6286L49.9123 23.8956L49.9806 28.2727L46.8649 30.4319C47.5506 32.6917 48.7482 34.7656 50.3627 36.489L53.7901 34.8705L57.5463 37.118L57.9117 41.0171C60.2002 41.6136 62.6017 41.6443 64.9035 41.1076L65.1454 37.2489L68.7673 35.1578L72.2309 36.8781C73.847 35.1535 75.0215 33.0588 75.6497 30.7789L72.4542 28.5119Z" stroke="currentColor" stroke-linecap="round" stroke-linejoin="round" />
  <path d="M63.9919 21.3382C65.7068 22.3643 66.7691 24.2042 66.8003 26.2024L66.8031 26.3818C66.834 28.3657 65.7879 30.2108 64.0696 31.2028C62.3512 32.1949 60.2303 32.1784 58.5277 31.1596L58.3737 31.0675C56.6588 30.0414 55.5965 28.2014 55.5654 26.2032L55.5626 26.0239C55.5316 24.04 56.5777 22.1949 58.2961 21.2028C60.0144 20.2108 62.1353 20.2273 63.838 21.2461L63.9919 21.3382Z" stroke="currentColor" stroke-linecap="round" stroke-linejoin="round" />
</svg>