<svg viewBox="0 0 80 80" fill="none">
  <path d="M40 66C54.3594 66 66 54.3594 66 40C66 25.6406 54.3594 14 40 14C25.6406 14 14 25.6406 14 40C14 46.5596 16.4291 52.5518 20.4369 57.1261L16 66L40 66Z" stroke="currentColor" stroke-linecap="round" stroke-linejoin="round" />
  <path d="M40 47.2V46.8197C40 43.9901 41.4911 41.3699 43.9237 39.9246L44.9751 39.3C47.4705 37.8175 49 35.1297 49 32.2271C49 27.6834 45.3166 24 40.7729 24H40C35.0294 24 31 28.0294 31 33V33.5082" stroke="currentColor" stroke-linecap="round" stroke-linejoin="round" />
  <path d="M40 53.6001V55.2001" stroke="currentColor" stroke-linecap="round" stroke-linejoin="round" />
</svg>