<svg viewBox="0 0 80 80" fill="none">
  <path d="M34 66.9999C31.7909 66.9999 30 65.2091 30 62.9999V37.0019V29.0003C30 26.7909 31.7913 24.9999 34.0007 25.0003L42.1905 25.0018L57.9996 25C60.2089 24.9998 62 26.7907 62 29L62 62.9999C62 65.2091 60.2091 66.9999 58 66.9999H34Z" stroke="currentColor" stroke-linecap="round" stroke-linejoin="round" />
  <path d="M30 54.9999H22C19.7909 54.9999 18 53.2091 18 50.9999L18 17C18 14.7907 19.7911 12.9998 22.0004 13L45.9993 13.0003C48.2087 12.9999 50 14.7909 50 17.0003V25.0009" stroke="currentColor" stroke-linecap="round" stroke-linejoin="round" />
</svg>