<svg viewBox="0 0 80 80" fill="none">
  <path d="M18.6665 62.9201C18.6665 61.4268 19.6835 60.1253 21.1326 59.7643C33.5215 56.6782 46.4782 56.6782 58.8671 59.7643C60.3161 60.1253 61.3332 61.4268 61.3332 62.9201V67.1311C61.3332 69.1006 59.4831 70.5464 57.572 70.0703C46.0335 67.196 33.9661 67.196 22.4277 70.0703C20.5166 70.5464 18.6665 69.1006 18.6665 67.1311V62.9201Z" stroke="currentColor" stroke-linecap="round" stroke-linejoin="round" />
  <path d="M21.1328 59.7642C21.1013 59.772 21.0701 59.7803 21.039 59.789L13.4853 53.2031C10.0002 50.1645 8 45.7669 8 41.1432V39.0823C8 34.8543 9.68347 30.8003 12.6785 27.816C15.6595 24.8456 19.6963 23.1777 23.9046 23.1777H24.0954C28.3037 23.1777 32.3405 24.8456 35.3215 27.816C38.3165 30.8003 40 34.8543 40 39.0823M40.0173 39.0823V57.4496" stroke="currentColor" stroke-linecap="round" stroke-linejoin="round" />
  <path d="M40.0176 39.0823C40.0176 34.8543 41.7011 30.8003 44.6961 27.816C47.6771 24.8456 51.7138 23.1777 55.9221 23.1777H56.113C60.3213 23.1777 64.3581 24.8456 67.3391 27.816C70.3341 30.8003 72.0176 34.8543 72.0176 39.0823V41.1432C72.0176 45.7669 70.0174 50.1645 66.5323 53.2031L58.9743 59.7927C58.9389 59.7826 58.9033 59.7731 58.8674 59.7642" stroke="currentColor" stroke-linecap="round" stroke-linejoin="round" />
  <path d="M28.7573 23.8774C28.9973 21.3483 30.0878 18.8846 32.0286 16.9507C36.4357 12.5594 43.5643 12.5594 47.9714 16.9507C49.9135 18.886 51.0041 21.3516 51.2431 23.8826" stroke="currentColor" stroke-linecap="round" stroke-linejoin="round" />
</svg>