<svg viewBox="0 0 80 80" fill="none">
  <path d="M48.582 19.2811C51.9722 17.5211 56.2473 18.0636 59.0919 20.9081C61.9364 23.7527 62.4789 28.0278 60.7189 31.418C64.3606 32.5706 67 35.9772 67 40C67 44.0228 64.3606 47.4294 60.7189 48.582C62.4789 51.9722 61.9364 56.2473 59.0919 59.0919C56.2473 61.9364 51.9722 62.4789 48.582 60.7189C47.4294 64.3606 44.0228 67 40 67C35.9772 67 32.5706 64.3606 31.418 60.7189C28.0278 62.4789 23.7527 61.9364 20.9081 59.0919C18.0636 56.2473 17.5211 51.9722 19.2811 48.582C15.6394 47.4294 13 44.0228 13 40C13 35.9772 15.6394 32.5706 19.2811 31.418C17.5211 28.0278 18.0636 23.7527 20.9081 20.9081C23.7527 18.0636 28.0278 17.5211 31.418 19.2811C32.5706 15.6394 35.9772 13 40 13C44.0228 13 47.4294 15.6394 48.582 19.2811Z" stroke="currentColor" stroke-linejoin="round" />
  <path d="M50.6947 29.7742L28.7744 51.6945" stroke="currentColor" stroke-linecap="round" stroke-linejoin="round" />
  <path d="M30.5181 36.5C29.1424 35.1243 29.1424 32.8938 30.5181 31.5181C31.8938 30.1424 34.1243 30.1424 35.5 31.5181C36.8757 32.8938 36.8757 35.1243 35.5 36.5C34.1243 37.8757 31.8938 37.8757 30.5181 36.5Z" stroke="currentColor" stroke-linecap="round" stroke-linejoin="round" />
  <path d="M44.4673 50.4492C43.0916 49.0735 43.0916 46.843 44.4673 45.4673C45.843 44.0916 48.0735 44.0916 49.4492 45.4673C50.8249 46.843 50.8249 49.0735 49.4492 50.4492C48.0735 51.8249 45.843 51.8249 44.4673 50.4492Z" stroke="currentColor" stroke-linecap="round" stroke-linejoin="round" />
</svg>