<svg viewBox="0 0 80 80" fill="none">
  <path d="M8 28C8 26.8954 8.89543 26 10 26H14.5165C21.4758 26 28.4053 25.0919 35.1295 23.2988L44.8705 20.7012C51.5947 18.9081 58.5242 18 65.4835 18H70C71.1046 18 72 18.8954 72 20V52C72 53.1046 71.1046 54 70 54H65.4835C58.5242 54 51.5948 54.9081 44.8705 56.7012L35.1295 59.2988C28.4053 61.0919 21.4758 62 14.5165 62H10C8.89543 62 8 61.1046 8 60V28Z" stroke="currentColor" stroke-linecap="round" stroke-linejoin="round" />
  <path d="M17.9529 61.9262C16.8088 61.9753 15.663 62 14.5165 62H10C8.89543 62 8 61.1046 8 60V52.0549C8.32833 52.0186 8.66199 52 9 52C13.9706 52 18 56.0294 18 61C18 61.3127 17.9841 61.6217 17.9529 61.9262Z" stroke="currentColor" stroke-linecap="round" stroke-linejoin="round" />
  <path d="M8 35.945V27.9999C8 26.8953 8.89543 25.9999 10 25.9999H14.5165C15.6576 25.9999 16.7979 25.9755 17.9367 25.9268C17.9785 26.2786 18 26.6368 18 26.9999C18 31.9705 13.9706 35.9999 9 35.9999C8.66199 35.9999 8.32833 35.9813 8 35.945Z" stroke="currentColor" stroke-linecap="round" stroke-linejoin="round" />
  <path d="M72 27.9451C71.6717 27.9814 71.338 28 71 28C66.0294 28 62 23.9706 62 19C62 18.6873 62.0159 18.3783 62.0471 18.0738C63.1912 18.0246 64.337 18 65.4835 18H70C71.1046 18 72 18.8954 72 20V27.9451Z" stroke="currentColor" stroke-linecap="round" stroke-linejoin="round" />
  <path d="M72 44.0549V52C72 53.1046 71.1046 54 70 54H65.4835C64.3424 54 63.2021 54.0244 62.0633 54.0731C62.0215 53.7213 62 53.3631 62 53C62 48.0294 66.0294 44 71 44C71.338 44 71.6717 44.0186 72 44.0549Z" stroke="currentColor" stroke-linecap="round" stroke-linejoin="round" />
  <path d="M19.4151 41.22C20.3493 40.5009 21.6506 40.5009 22.5847 41.22C23.2237 41.7118 23.598 42.4724 23.598 43.2787V44.7213C23.598 45.5276 23.2237 46.2882 22.5847 46.78C21.6506 47.4992 20.3493 47.4992 19.4151 46.78C18.7762 46.2882 18.4019 45.5276 18.4019 44.7213V43.2787C18.4019 42.4724 18.7762 41.7118 19.4151 41.22Z" stroke="currentColor" stroke-linecap="round" stroke-linejoin="round" />
  <path d="M35.4751 31.66C38.2776 29.5026 42.1814 29.5026 44.984 31.66C46.9007 33.1355 48.0238 35.4173 48.0238 37.8362V42.1639C48.0238 44.5828 46.9007 46.8646 44.984 48.3401C42.1814 50.4975 38.2776 50.4975 35.4751 48.3401C33.5584 46.8646 32.4353 44.5828 32.4353 42.1639V37.8362C32.4353 35.4173 33.5584 33.1355 35.4751 31.66Z" stroke="currentColor" stroke-linecap="round" stroke-linejoin="round" />
  <path d="M57.4151 33.22C58.3493 32.5009 59.6506 32.5009 60.5847 33.22C61.2237 33.7118 61.598 34.4724 61.598 35.2787V36.7213C61.598 37.5276 61.2237 38.2882 60.5847 38.78C59.6506 39.4992 58.3493 39.4992 57.4151 38.78C56.7762 38.2882 56.4019 37.5276 56.4019 36.7213V35.2787C56.4019 34.4724 56.7762 33.7118 57.4151 33.22Z" stroke="currentColor" stroke-linecap="round" stroke-linejoin="round" />
</svg>