<svg viewBox="0 0 80 80" fill="none">
  <path d="M34.8749 64H14C12.3431 64 11 62.6569 11 61V25C11 23.3432 12.3431 22 14 22H29.8009L31.9885 16.2848C32.2848 15.5108 33.0277 14.9998 33.8564 14.9998H52.2647C53.0934 14.9998 53.8363 15.5108 54.1326 16.2848L56.3202 22H64C65.6569 22 67 23.3432 67 25V61C67 62.6569 65.6569 64 64 64H51.1251" stroke="currentColor" stroke-linecap="round" stroke-linejoin="round" />
  <path d="M50.8302 15H35.239L36.4646 12.1984C36.783 11.4704 37.5023 11 38.2969 11H47.7723C48.567 11 49.2862 11.4704 49.6047 12.1984L50.8302 15Z" stroke="currentColor" stroke-linecap="round" stroke-linejoin="round" />
  <path d="M31.7417 23.5C38.7083 19.4778 47.2917 19.4778 54.2583 23.5C61.225 27.5222 65.5167 34.9556 65.5167 43C65.5167 51.0444 61.225 58.4778 54.2583 62.5C47.2917 66.5222 38.7083 66.5222 31.7417 62.5C24.775 58.4778 20.4833 51.0444 20.4833 43C20.4833 34.9556 24.775 27.5222 31.7417 23.5Z" stroke="currentColor" stroke-linecap="round" stroke-linejoin="round" />
  <path d="M36.0718 31C40.359 28.5248 45.641 28.5248 49.9282 31C54.2154 33.4752 56.8564 38.0496 56.8564 43C56.8564 47.9504 54.2154 52.5248 49.9282 55C45.641 57.4752 40.359 57.4752 36.0718 55C31.7846 52.5248 29.1436 47.9504 29.1436 43C29.1436 38.0496 31.7846 33.4752 36.0718 31Z" stroke="currentColor" stroke-linecap="round" stroke-linejoin="round" />
  <path d="M36.4106 45.1387C36.1891 44.4573 36.0718 43.7364 36.0718 42.9987C36.0718 40.524 37.3921 38.2372 39.5353 36.9998C40.6067 36.3813 41.8023 36.0719 42.9979 36.0718" stroke="currentColor" stroke-linecap="round" stroke-linejoin="round" />
  <path d="M23.9151 22H16.1195L16.6504 19.5726C16.8513 18.6545 17.6644 18 18.6042 18H21.4304C22.3703 18 23.1834 18.6545 23.3842 19.5726L23.9151 22Z" stroke="currentColor" stroke-linecap="round" stroke-linejoin="round" />
</svg>