<svg viewBox="0 0 80 80" fill="none">
  <path d="M38.4 20.7417H14C12.8954 20.7417 12 21.6371 12 22.7417V66.7417C12 67.8463 12.8954 68.7417 14 68.7417H58C59.1046 68.7417 60 67.8463 60 66.7417V42.342" stroke="currentColor" stroke-linecap="round" stroke-linejoin="round" />
  <path d="M68.0145 21.8972C68.7943 21.1174 68.7943 19.8532 68.0145 19.0734L62.3577 13.4166C61.5753 12.6342 60.3069 12.6342 59.5246 13.4166L30.6996 42.2416C28.1991 44.7421 26.5974 48.0005 26.1449 51.5077L25.7115 54.8664C25.6479 55.359 26.0674 55.7785 26.56 55.715L29.9187 55.2816C33.4259 54.829 36.6844 53.2273 39.1849 50.7268L68.0145 21.8972Z" stroke="currentColor" stroke-linecap="round" stroke-linejoin="round" />
  <path d="M52.146 20.8037L60.6266 29.2843" stroke="currentColor" stroke-linecap="round" stroke-linejoin="round" />
</svg>