<svg viewBox="0 0 80 80" fill="none">
  <path d="M66.8285 13.1716L13.1716 66.8285C12.4477 66.1046 12 65.1046 12 64V16C12 13.7909 13.7909 12 16 12H64C65.1046 12 66.1046 12.4477 66.8285 13.1716Z" stroke="currentColor" stroke-linecap="round" stroke-linejoin="round" />
  <path d="M66.8285 13.1716C67.5523 13.8955 68 14.8955 68 16V64C68 66.2091 66.2091 68 64 68H16C14.8955 68 13.8955 67.5523 13.1716 66.8285L66.8285 13.1716Z" stroke="currentColor" stroke-linecap="round" stroke-linejoin="round" />
  <path d="M43.9141 52L51.1868 52L52.6413 52L59.9141 52" stroke="currentColor" stroke-linecap="round" stroke-linejoin="round" />
  <path d="M51.9141 44L51.9141 51.2727L51.9141 52.7273L51.9141 60" stroke="currentColor" stroke-linecap="round" stroke-linejoin="round" />
  <path d="M36 28H20" stroke="currentColor" stroke-linecap="round" stroke-linejoin="round" />
</svg>