<svg viewBox="0 0 80 80" fill="none">
  <path d="M44.9609 34.2705C43.7158 32.8287 41.9051 32 40.0001 32C38.0951 32 36.2843 32.8287 35.0392 34.2705L34.9196 34.409C34.3127 35.1117 33.8527 35.9287 33.5666 36.812L28.1608 53.5036C28.0815 53.7487 28.2642 54 28.5218 54H35.1421V66C35.1421 67.1046 36.0375 68 37.1421 68H43.1421C44.2467 68 45.1421 67.1046 45.1421 66V54H51.4783C51.736 54 51.9187 53.7487 51.8393 53.5036L46.4335 36.812C46.1474 35.9287 45.6874 35.1117 45.0806 34.409L44.9609 34.2705Z" stroke="currentColor" stroke-linecap="round" stroke-linejoin="round" />
  <path d="M37.0148 26.4942C38.9911 27.4459 41.2932 27.4459 43.2695 26.4942C45.2457 25.5425 46.6811 23.7426 47.1692 21.6041C47.6573 19.4656 47.145 17.2212 45.7774 15.5063C44.4098 13.7913 42.3356 12.7925 40.1421 12.7925C37.9486 12.7925 35.8745 13.7913 34.5069 15.5063C33.1393 17.2212 32.627 19.4656 33.1151 21.6041C33.6032 23.7426 35.0385 25.5425 37.0148 26.4942Z" stroke="currentColor" stroke-linecap="round" stroke-linejoin="round" />
</svg>