<svg viewBox="0 0 80 80" fill="none">
  <path d="M53 71.4373L37 71.4373L21 71.4373" stroke="currentColor" stroke-linecap="round" stroke-linejoin="round" />
  <path d="M37 71.4373V65" stroke="currentColor" stroke-linecap="round" stroke-linejoin="round" />
  <path d="M23.9904 52.9337L20.261 58.1217C19.9386 58.5702 20.0399 59.1966 20.4991 59.5036C24.237 62.0031 28.5319 63.6411 33.0742 64.2392C40.848 65.2626 48.71 63.156 54.9306 58.3827C61.1512 53.6095 65.2209 46.5606 66.2443 38.7868C67.2678 31.013 65.1612 23.151 60.3879 16.9304C57.5988 13.2956 54.0327 10.3951 49.9989 8.40767C49.5035 8.16357 48.9104 8.38904 48.6832 8.89245L46.0535 14.7194" stroke="currentColor" stroke-linecap="round" stroke-linejoin="round" />
  <path d="M39.894 13.0167C45.7244 13.7843 51.011 16.8365 54.591 21.502C58.1709 26.1674 59.7509 32.0639 58.9833 37.8943C58.2157 43.7246 55.1634 49.0113 50.498 52.5912C45.8325 56.1711 39.936 57.7511 34.1057 56.9835C28.2753 56.2159 22.9887 53.1637 19.4087 48.4982C15.8288 43.8328 14.2489 37.9363 15.0164 32.1059C15.784 26.2756 18.8363 20.9889 23.5017 17.409C28.1672 13.8291 34.0637 12.2491 39.894 13.0167Z" stroke="currentColor" stroke-linecap="round" stroke-linejoin="round" />
  <path d="M39.9016 13.0125C40.9413 13.1493 41.9638 13.3589 42.9623 13.6373C43.0024 13.716 43.0405 13.7959 43.0765 13.8769L43.3311 14.4508C43.6151 15.091 44.095 15.6247 44.7015 15.9749L45.0571 16.1801C45.524 16.4497 45.8768 16.8799 46.0498 17.3905C46.2227 17.9012 46.5756 18.3314 47.0424 18.6009L53.8794 22.5483C54.1142 22.6838 54.2868 22.9057 54.3603 23.1667L54.5838 23.9599C54.7552 24.5682 54.1008 25.077 53.5535 24.7611C53.325 24.6291 53.0418 24.636 52.8199 24.7788L52.391 25.055C51.8814 25.3832 51.2267 25.382 50.7183 25.0521L50.0558 24.6221C49.4116 24.2041 48.6225 24.073 47.8778 24.2605L47.225 24.4248C46.6482 24.57 46.0379 24.4949 45.5135 24.214L45.3322 24.1169C44.3032 23.5658 43.0227 23.925 42.4305 24.9309C42.1497 25.4079 41.6976 25.7599 41.1663 25.9152L37.1366 27.093C36.559 27.2618 35.9373 27.1842 35.419 26.8787C34.4819 26.3263 33.281 26.5497 32.6052 27.4021L32.5728 27.443C32.1785 27.9403 31.5918 28.2469 30.9584 28.2866L30.346 28.3249C29.6684 28.3674 29.0679 28.7761 28.7798 29.3908L28.6541 29.659C28.3455 30.3176 27.6097 30.6609 26.9067 30.4741C26.2721 30.3055 25.8203 29.7446 25.7908 29.0886L25.7621 28.4517C25.6875 26.7932 23.9761 25.7223 22.4519 26.3803L21.8719 26.6307C21.6226 26.7383 21.3944 26.8893 21.1979 27.0766L20.0497 28.1713C19.8712 28.3415 19.5941 28.3527 19.4024 28.1974C19.2918 28.1078 19.2256 27.9746 19.2209 27.8324L19.1059 24.3516C19.0858 23.7426 18.899 23.1619 18.5789 22.6656" stroke="currentColor" stroke-linecap="round" stroke-linejoin="round" />
  <path d="M42.8062 26.707C43.4646 27.3723 43.1887 28.4983 42.2974 28.7839L40.3763 29.3994C39.975 29.528 39.5355 29.4176 39.2425 29.1147C38.7198 28.5744 38.8761 27.6814 39.5512 27.3506L41.3627 26.463C41.8464 26.226 42.4273 26.3242 42.8062 26.707Z" stroke="currentColor" stroke-linecap="round" stroke-linejoin="round" />
  <path d="M31.0172 33.674C30.1241 33.9262 29.6898 34.9368 30.1214 35.7584C30.4792 36.4395 31.304 36.7261 32.0071 36.4137L32.2314 36.3141C32.6246 36.1394 32.9382 35.8237 33.1105 35.4294L33.36 34.858C33.4334 34.6897 33.5621 34.5516 33.7248 34.4664L33.7918 34.4314C34.2353 34.1991 34.3309 33.6057 33.9826 33.246C33.7908 33.0479 33.5058 32.9711 33.2404 33.0461L31.0172 33.674Z" stroke="currentColor" stroke-linecap="round" stroke-linejoin="round" />
  <path d="M24.5272 33.6444C24.483 32.7368 25.3685 32.071 26.228 32.3655C26.6097 32.4963 26.9078 32.7986 27.0333 33.182L28.4518 37.5178C28.6772 38.2067 28.2784 38.9436 27.5784 39.1317C27.1501 39.2468 26.6929 39.129 26.3735 38.8214L25.536 38.0147C24.9998 37.4982 24.681 36.7966 24.6447 36.053L24.5272 33.6444Z" stroke="currentColor" stroke-linecap="round" stroke-linejoin="round" />
  <path d="M31.9119 41.2237C31.37 40.881 31.2715 40.1307 31.7067 39.6598C32.0322 39.3074 32.5583 39.2275 32.9738 39.4674L35.821 41.1112C36.3053 41.3908 36.4413 42.0279 36.1136 42.481C35.955 42.7002 35.7099 42.8407 35.4407 42.8669L35.1654 42.8937C34.8209 42.9272 34.4752 42.8449 34.1827 42.66L31.9119 41.2237Z" stroke="currentColor" stroke-linecap="round" stroke-linejoin="round" />
  <path d="M28.5606 43.0186C29.6455 42.7157 30.8047 42.8338 31.8062 43.3492L31.9572 43.4269C33.2688 44.1019 34.2065 45.3318 34.5102 46.7752L34.737 47.8534C34.9209 48.7273 34.7756 49.6382 34.3291 50.4115L33.5903 51.6913C32.9976 52.7178 31.685 53.0695 30.6584 52.4769C30.19 52.2064 29.841 51.7691 29.6811 51.2523L29.5391 50.7932C29.288 49.9813 28.7396 49.2942 28.0036 48.8692L27.1943 48.402C25.9095 47.6602 25.414 46.0532 26.0581 44.7167C26.4119 43.9826 27.0645 43.4363 27.8494 43.2171L28.5606 43.0186Z" stroke="currentColor" stroke-linecap="round" stroke-linejoin="round" />
  <path d="M37.3376 55.254L36.187 55.794C35.542 56.0967 34.7891 55.684 34.6973 54.9776C34.6385 54.5251 34.8782 54.0862 35.2908 53.8912L36.4399 53.348C37.0156 53.076 37.6991 53.3728 37.8933 53.9792C38.0547 54.4834 37.8169 55.0291 37.3376 55.254Z" stroke="currentColor" stroke-linecap="round" stroke-linejoin="round" />
</svg>