<svg viewBox="0 0 80 80" fill="none">
  <path d="M53 71.4373L37 71.4373L21 71.4373" stroke="currentColor" stroke-linecap="round" stroke-linejoin="round" />
  <path d="M37 71.4373V65" stroke="currentColor" stroke-linecap="round" stroke-linejoin="round" />
  <path d="M23.9904 52.9337L20.261 58.1217C19.9386 58.5702 20.0399 59.1966 20.4991 59.5036C24.237 62.0031 28.5319 63.6411 33.0742 64.2392C40.848 65.2626 48.71 63.156 54.9306 58.3827C61.1512 53.6095 65.2209 46.5606 66.2443 38.7868C67.2678 31.013 65.1612 23.151 60.3879 16.9304C57.5988 13.2956 54.0327 10.3951 49.9989 8.40767C49.5035 8.16357 48.9104 8.38904 48.6832 8.89245L46.0535 14.7194" stroke="currentColor" stroke-linecap="round" stroke-linejoin="round" />
  <path d="M39.894 13.0167C45.7244 13.7843 51.011 16.8365 54.591 21.502C58.1709 26.1674 59.7509 32.0639 58.9833 37.8943C58.2157 43.7246 55.1634 49.0113 50.498 52.5912C45.8325 56.1711 39.936 57.7511 34.1057 56.9835C28.2753 56.2159 22.9887 53.1637 19.4087 48.4982C15.8288 43.8328 14.2489 37.9363 15.0164 32.1059C15.784 26.2756 18.8363 20.9889 23.5017 17.409C28.1672 13.8291 34.0637 12.2491 39.894 13.0167Z" stroke="currentColor" stroke-linecap="round" stroke-linejoin="round" />
  <path d="M29.175 14.382C29.5026 14.6864 29.7635 15.0641 29.9317 15.4934L30.165 16.0889C30.5602 17.0977 30.55 18.2203 30.1366 19.2218L29.5818 20.5657C28.9776 22.0293 28.8324 23.6419 29.1655 25.1898L30.041 29.2597C30.2716 30.3312 30.8599 31.2924 31.7092 31.9852L32.5482 32.6696C32.9228 32.9751 33.1725 33.4074 33.2498 33.8846C33.4059 34.847 32.8368 35.7794 31.9095 36.0805L31.8025 36.1152C31.2845 36.2834 30.8517 36.6456 30.595 37.1259L29.7063 38.7881C29.0923 39.9365 28.8618 41.2511 29.0484 42.5399C29.2448 43.8961 28.979 45.2789 28.2938 46.4657L26.5568 49.4742C26.1997 50.0927 25.9574 50.7707 25.8414 51.4754L25.5986 52.951C25.5669 53.1434 25.5929 53.3409 25.6733 53.5186C26.0049 54.2514 27.0265 54.3019 27.4287 53.6053L28.8187 51.1977C29.1325 50.6542 29.6456 50.2542 30.2492 50.0825L39.126 47.5567C39.8825 47.3415 40.5255 46.8402 40.9187 46.1591L41.0933 45.8567C41.6535 44.8864 41.5157 43.6643 40.7536 42.8431C40.4406 42.5058 40.2245 42.0901 40.1283 41.6401L39.9974 41.0281C39.7271 39.7641 38.9611 38.6613 37.871 37.9668L37.4817 37.7188C36.382 37.0182 35.613 35.9019 35.3501 34.6246L35.2362 34.0708C35.1274 33.542 34.8712 33.0547 34.4973 32.6652L33.7934 31.9322C33.328 31.4475 33.239 30.7136 33.575 30.1316C33.9919 29.4095 34.9153 29.1621 35.6374 29.579L36.8078 30.2547C37.0187 30.3765 37.1646 30.5857 37.2059 30.8257C37.3416 31.6135 38.4091 31.7615 38.754 31.0404L38.7727 31.0014C38.8757 30.7858 39.0663 30.6249 39.296 30.5593L47.3361 28.264C47.8871 28.1066 48.3082 27.6608 48.4336 27.1016C48.5687 26.4999 48.3378 25.8749 47.8439 25.5055L47.0415 24.9053C46.876 24.7815 46.7569 24.6056 46.7035 24.406C46.5075 23.6734 45.5595 23.4786 45.0904 24.0744L44.7092 24.5587C44.3606 25.0016 43.7554 25.1506 43.2409 24.9203L42.5952 24.6313C41.9915 24.3611 41.547 23.8265 41.3915 23.1836L41.1501 22.1858C40.9796 21.4811 41.3756 20.7628 42.0625 20.5307C42.6535 20.3311 43.041 19.7645 43.0128 19.1414L42.9948 18.7445C42.9705 18.2066 42.7222 17.7034 42.3101 17.3568L37.2116 13.0675C37.1654 13.0287 37.1189 12.9904 37.0719 12.9526" stroke="currentColor" stroke-linecap="round" stroke-linejoin="round" />
  <path d="M46.1459 15.7871C46.2432 16.2266 44.7158 15.2707 44.3424 15.613C43.8388 16.0747 43.0672 16.0794 42.558 15.6239L40.2656 13.5731C40.1376 13.4585 41.4547 14.7551 41.4118 14.5985" stroke="currentColor" stroke-linecap="round" stroke-linejoin="round" />
  <path d="M46.5736 18.8547C46.2565 18.0432 46.7646 17.1452 47.6236 16.9992C48.4016 16.8669 49.131 17.4154 49.2199 18.1996L49.6749 22.213C49.7521 22.8938 49.0312 23.38 48.4288 23.0532C48.253 22.9578 48.1165 22.8032 48.0437 22.6168L46.5736 18.8547Z" stroke="currentColor" stroke-linecap="round" stroke-linejoin="round" />
  <path d="M54.5986 21.6277C54.5276 21.5352 54.456 21.4433 54.3836 21.3521C54.2419 21.4594 54.1107 21.5844 53.9934 21.7263C53.5285 22.2886 53.3531 23.0358 53.519 23.7462L53.7649 24.7987C53.9205 25.4647 53.8036 26.1652 53.4401 26.7446C53.1027 27.2824 52.9783 27.9346 53.0883 28.5599C53.3562 30.082 54.8685 31.0773 56.3649 30.6913L58.6065 30.113" stroke="currentColor" stroke-linecap="round" stroke-linejoin="round" />
</svg>