<svg viewBox="0 0 80 80" fill="none">
  <path d="M52.7871 71.4373L36.7871 71.4373L20.7871 71.4373" stroke="currentColor" stroke-linecap="round" stroke-linejoin="round" />
  <path d="M36.7871 71.4373V65" stroke="currentColor" stroke-linecap="round" stroke-linejoin="round" />
  <path d="M23.7775 52.9337L20.0481 58.1217C19.7257 58.5702 19.8271 59.1966 20.2862 59.5036C24.0241 62.0031 28.319 63.6411 32.8613 64.2392C40.6352 65.2626 48.4971 63.156 54.7177 58.3827C60.9383 53.6095 65.008 46.5606 66.0314 38.7868C67.0549 31.013 64.9483 23.151 60.175 16.9304C57.3859 13.2956 53.8198 10.3951 49.7861 8.40767C49.2906 8.16357 48.6975 8.38904 48.4703 8.89245L45.8407 14.7194" stroke="currentColor" stroke-linecap="square" />
  <path d="M39.6811 13.1463C45.5115 13.9139 50.7981 16.9662 54.3781 21.6316C57.958 26.2971 59.538 32.1935 58.7704 38.0239C58.0028 43.8543 54.9505 49.1409 50.2851 52.7208C45.6196 56.3008 39.7232 57.8807 33.8928 57.1132C28.0624 56.3456 22.7758 53.2933 19.1959 48.6279C15.6159 43.9624 14.036 38.0659 14.8036 32.2356C15.5711 26.4052 18.6234 21.1186 23.2888 17.5386C27.9543 13.9587 33.8508 12.3787 39.6811 13.1463Z" stroke="currentColor" stroke-linecap="round" stroke-linejoin="round" />
  <path d="M32.1509 22.4775L32.1254 22.4621C31.3413 21.9908 30.4024 21.8496 29.5144 22.0694L28.8005 22.2462C28.2641 22.379 27.6964 22.2683 27.2492 21.9437L26.6546 21.5121C26.3174 21.2674 26.187 20.8264 26.337 20.4376C26.5001 20.0149 26.947 19.7741 27.3897 19.8704L28.1275 20.0309C28.6164 20.1373 29.1275 20.0353 29.5382 19.7496L31.377 18.4703L33.6414 17.9854C34.3037 17.8435 34.995 17.9448 35.5888 18.2708L36.9171 19C37.4189 19.2754 38.0475 19.13 38.3773 18.6622C38.5217 18.4573 38.7304 18.3065 38.9703 18.2339L40.4341 17.7905C40.7336 17.6997 40.9198 17.4014 40.8697 17.0925C40.8131 16.7437 40.4788 16.5113 40.1322 16.5796L38.5677 16.888C37.8932 17.0209 37.3061 16.4139 37.4615 15.7442C37.5415 15.3997 37.8067 15.1284 38.1493 15.0406L39.8337 14.6091C40.8277 14.3545 41.883 14.5326 42.7384 15.0993C43.4442 15.5669 43.9642 16.2666 44.2086 17.0771L44.247 17.2046C44.5422 18.1839 45.2015 19.0128 46.0893 19.5207L48.7456 21.0403C49.7642 21.6231 50.9933 21.7082 52.0825 21.2713L52.4793 21.1121C53.0223 20.8943 53.61 20.8443 54.1699 20.9567C54.3154 21.1345 54.4583 21.315 54.5987 21.4978M32.1509 22.4775L32.6502 25.0251M32.1509 22.4775C32.1509 22.4775 32.445 24.2743 32.6502 25.0251M32.6502 25.0251L34.4708 25.8675C34.8358 26.0364 35.2484 26.0727 35.6373 25.97C36.0441 25.8626 36.4761 25.9073 36.8523 26.0957L37.8221 26.5816M37.8221 26.5816L38.171 28.2576C38.3762 29.2428 37.7706 30.2153 36.7959 30.4658C36.2973 30.5939 35.7681 30.5124 35.3312 30.2403L33.9462 29.3776C33.7639 29.264 33.5333 29.262 33.349 29.3725C33.1096 29.5159 32.8017 29.466 32.6199 29.2542L30.7921 27.124C30.6132 26.9154 30.5679 26.6235 30.6754 26.3706C30.8219 26.0259 30.6808 25.6264 30.3504 25.4501L28.105 24.252C27.9664 24.1781 27.8706 24.0435 27.846 23.8883C27.7959 23.5711 27.4643 23.3824 27.1659 23.5013L25.021 24.3559C24.6108 24.5193 24.2551 24.7951 23.9947 25.1517L22.8271 26.7504C21.795 28.1635 21.4614 29.9692 21.9205 31.6578L22.206 32.7081C22.4153 33.478 22.9159 34.1362 23.602 34.5435C25.0294 35.391 25.5252 37.2193 24.7214 38.6718L24.1253 39.749C23.7748 40.3825 23.7287 41.1403 24.0001 41.8116C24.267 42.4721 24.2269 43.2171 23.8906 43.8452L22.5621 46.3258C22.32 46.7779 22.2205 47.2928 22.2767 47.8026C22.3632 48.5865 22.8156 49.2896 23.49 49.6985C24.1025 50.0699 24.8479 50.172 25.5363 49.9741L26.7795 49.6166C28.1479 49.2231 29.3114 48.3164 30.0272 47.0857L31.9191 43.8335C32.4816 42.8664 33.4012 42.1586 34.4802 41.8624L35.5369 41.5722C36.34 41.3517 36.9667 40.7231 37.1847 39.9194C37.2912 39.5265 37.294 39.1127 37.1928 38.7184L35.9164 33.7478C35.8242 33.3887 36.0817 33.0345 36.4518 33.0114C36.7365 32.9936 36.9932 33.1818 37.0619 33.4587L37.7085 36.0651C37.8948 36.8166 38.364 37.4671 39.0181 37.8812L39.5115 38.1936C39.9025 38.4412 40.3789 38.5149 40.8264 38.3971C41.7219 38.1615 42.2533 37.2408 42.0094 36.3476L41.2975 33.7398C41.2421 33.5368 41.3309 33.3219 41.5135 33.2172C41.7746 33.0676 42.1067 33.2034 42.1881 33.4931L42.5193 34.6717C42.6185 35.0248 42.8508 35.3257 43.1674 35.511L43.8277 35.8975C44.8091 36.4719 45.4272 37.5097 45.4647 38.6462L45.5797 42.127C45.5844 42.2692 45.6506 42.4024 45.7612 42.492C45.9528 42.6473 46.23 42.6361 46.4085 42.4659L47.5567 41.3712C47.7532 41.1839 47.9814 41.0329 48.2307 40.9253L48.8107 40.6749C50.3349 40.0169 52.0462 41.0878 52.1209 42.7463L52.1495 43.3832C52.1791 44.0392 52.6309 44.6002 53.2655 44.7687C53.9685 44.9555 54.7043 44.6122 55.0129 43.9536L55.1386 43.6854C55.4267 43.0707 56.0272 42.662 56.7048 42.6195L57.3172 42.5812C57.5115 42.569 57.7013 42.5317 57.8826 42.4715C58.4098 40.9993 58.7837 39.4645 58.991 37.8901M37.8221 26.5816L38.638 26.0125C39.4506 25.4456 40.5059 25.3611 41.3984 25.7914L41.9147 26.0404C42.4619 26.3042 42.8306 26.8358 42.8861 27.4408L42.9358 27.9833C42.9868 28.5394 42.6169 29.0468 42.0719 29.1685C41.6033 29.2731 41.1206 29.0647 40.8753 28.652L40.6047 28.1968C40.411 27.8708 40.1213 27.6126 39.7752 27.4574L37.8221 26.5816Z" stroke="currentColor" stroke-linecap="round" stroke-linejoin="round" />
  <path d="M31.255 13.582C31.9315 14.1617 32.2859 15.1016 32.025 16.0687L31.3769 18.4703L28.3667 16.6082C27.7818 16.2464 27.4592 15.625 27.4514 14.9877" stroke="currentColor" stroke-linecap="round" stroke-linejoin="round" />
  <path d="M53.9779 49.267L53.3921 47.4766C53.2667 47.0932 52.9686 46.7909 52.5869 46.6602C51.7274 46.3657 50.8418 47.0315 50.8861 47.9391L51.0036 50.3477C51.029 50.8688 51.1932 51.3694 51.4738 51.8001" stroke="currentColor" stroke-linecap="round" stroke-linejoin="round" />
  <path d="M32.3856 48.8156C31.9254 48.5498 31.7831 47.9519 32.0742 47.5073L32.4863 46.8781C32.6669 46.6024 32.9264 46.3877 33.231 46.262L33.6764 46.0782C33.8948 45.9881 34.1419 45.9993 34.3513 46.1088C34.7628 46.324 34.9046 46.8436 34.6595 47.2381L34.0737 48.1811C33.9467 48.3856 33.7704 48.555 33.561 48.6738L33.3048 48.8191C33.0194 48.9809 32.6697 48.9796 32.3856 48.8156Z" stroke="currentColor" stroke-linecap="round" stroke-linejoin="round" />
</svg>