<svg viewBox="0 0 80 80" fill="none">
  <path d="M29.3935 14.3935C36.1848 11.5804 43.8154 11.5804 50.6067 14.3935C57.398 17.2065 62.7936 22.6022 65.6067 29.3935C68.4197 36.1848 68.4197 43.8154 65.6067 50.6067C62.7936 57.398 57.398 62.7936 50.6067 65.6067C43.8154 68.4197 36.1848 68.4197 29.3935 65.6067C22.6022 62.7936 17.2065 57.398 14.3935 50.6067C11.5804 43.8154 11.5804 36.1848 14.3935 29.3935C17.2065 22.6022 22.6022 17.2065 29.3935 14.3935Z" stroke="currentColor" stroke-linecap="round" stroke-linejoin="round" />
  <path d="M47.0796 13.1924L43.2452 17.1856C42.9819 17.4598 42.8481 17.8333 42.8773 18.2123L42.8841 18.3007C42.9821 19.5724 41.3864 20.2163 40.5743 19.2328C40.3261 18.9323 39.9567 18.7582 39.567 18.7582H37.4366C36.0952 18.7582 35.0078 19.8456 35.0078 21.187C35.0078 22.2661 35.7197 23.2157 36.7554 23.5184L38.2957 23.9684C39.1258 24.2109 39.87 24.684 40.4418 25.3327L41.0391 26.0101C42.4205 27.577 44.3801 28.5143 46.467 28.6062L47.1691 28.6371C49.2376 28.7281 51.1821 29.6489 52.5633 31.1914L53.2301 31.9361C53.7218 32.4853 54.3533 32.8909 55.0572 33.1097C56.7623 33.6397 57.9241 35.2175 57.9241 37.0031V37.5952C57.9241 38.857 57.4355 40.0698 56.5608 40.9792L46.3147 51.6308C45.6213 52.3517 45.2339 53.3132 45.2339 54.3135V58.8084C45.2339 60.0923 43.779 60.8356 42.7387 60.0832C42.4875 59.9016 42.2956 59.6498 42.187 59.3595L41.2437 56.837C40.9085 55.9407 40.7369 54.9916 40.7369 54.0348V47.5187C40.7369 45.7329 40.1394 43.9985 39.0395 42.5916L38.2797 41.6196C37.2344 40.2825 36.6415 38.6476 36.5865 36.9513L36.4687 33.3111C36.4404 32.4379 36.7494 31.5873 37.3315 30.9358L37.4563 30.7962C38.4952 29.6336 38.5378 27.8892 37.5569 26.6773C37.0657 26.0704 36.3684 25.6655 35.5979 25.5397L33.9097 25.2639C32.1849 24.9822 30.608 24.1196 29.4405 22.819L24.334 17.1304" stroke="currentColor" stroke-linecap="round" stroke-linejoin="round" />
</svg>