<svg viewBox="0 0 80 80" fill="none">
  <path d="M52.5742 71.4373L36.5742 71.4373L20.5742 71.4373" stroke="currentColor" stroke-linecap="round" stroke-linejoin="round" />
  <path d="M36.5742 71.4373V65" stroke="currentColor" stroke-linecap="round" stroke-linejoin="round" />
  <path d="M23.5647 52.9337L19.8352 58.1217C19.5129 58.5702 19.6142 59.1966 20.0733 59.5036C23.8112 62.0031 28.1061 63.6411 32.6484 64.2392C40.4223 65.2626 48.2842 63.156 54.5049 58.3827C60.7255 53.6095 64.7951 46.5606 65.8186 38.7868C66.842 31.013 64.7354 23.151 59.9622 16.9304C57.173 13.2956 53.6069 10.3951 49.5732 8.40767C49.0777 8.16357 48.4846 8.38904 48.2574 8.89245L45.6278 14.7194" stroke="currentColor" stroke-linecap="square" />
  <path d="M39.4682 13.1463C45.2986 13.9139 50.5853 16.9662 54.1652 21.6316C57.7451 26.2971 59.3251 32.1935 58.5575 38.0239C57.7899 43.8543 54.7377 49.1409 50.0722 52.7208C45.4068 56.3008 39.5103 57.8807 33.6799 57.1132C27.8495 56.3456 22.5629 53.2933 18.983 48.6279C15.403 43.9624 13.8231 38.0659 14.5907 32.2356C15.3582 26.4052 18.4105 21.1186 23.0759 17.5386C27.7414 13.9587 33.6379 12.3787 39.4682 13.1463Z" stroke="currentColor" stroke-linecap="round" stroke-linejoin="round" />
  <path d="M42.9621 13.637C43.0023 13.7158 43.0404 13.7958 43.0765 13.877L43.3311 14.4509C43.6151 15.0911 44.095 15.6247 44.7015 15.9749L45.0571 16.1802C45.524 16.4498 45.8768 16.88 46.0498 17.3906C46.2227 17.9012 46.5755 18.3315 47.0424 18.601L53.8794 22.5483C54.1142 22.6839 54.2867 22.9058 54.3603 23.1667L54.5838 23.96C54.7552 24.5683 54.1008 25.0771 53.5535 24.7611C53.3249 24.6292 53.0418 24.636 52.8199 24.7789L52.391 25.0551C51.8814 25.3833 51.2267 25.3821 50.7183 25.0521L50.0558 24.6222C49.4116 24.2041 48.6225 24.0731 47.8778 24.2606L47.225 24.4249C46.6482 24.5701 46.0379 24.4949 45.5135 24.2141L45.3322 24.117C44.3032 23.5659 43.0227 23.9251 42.4305 24.9309C42.1497 25.4079 41.6976 25.7599 41.1663 25.9152L37.1366 27.0931C36.559 27.2619 35.9373 27.1843 35.4189 26.8787C34.4819 26.3264 33.2809 26.5498 32.6052 27.4021L32.5728 27.4431C32.1785 27.9403 31.5918 28.2469 30.9584 28.2866L30.346 28.325C29.6684 28.3674 29.0679 28.7761 28.7798 29.3909L28.6541 29.6591C28.3455 30.3177 27.6097 30.6609 26.9067 30.4742C26.2721 30.3056 25.8203 29.7447 25.7907 29.0887L25.7621 28.4517C25.6874 26.7932 23.9761 25.7223 22.4519 26.3803L21.8719 26.6307C21.6226 26.7383 21.3944 26.8893 21.1979 27.0767L20.0497 28.1713C19.8712 28.3415 19.594 28.3527 19.4024 28.1974C19.2918 28.1079 19.2256 27.9747 19.2209 27.8324L19.1059 24.3517C19.0858 23.7426 18.899 23.1619 18.5789 22.6657C19.912 20.6731 21.5716 18.8916 23.5095 17.4046C28.1749 13.8247 34.0714 12.2447 39.9018 13.0123C40.9414 13.1492 41.9637 13.3587 42.9621 13.637Z" stroke="currentColor" stroke-linecap="round" stroke-linejoin="round" />
  <path d="M42.2974 28.7839C43.1887 28.4983 43.4646 27.3723 42.8062 26.707C42.4273 26.3242 41.8464 26.226 41.3627 26.463L39.5512 27.3506C38.8761 27.6814 38.7198 28.5744 39.2425 29.1147C39.5355 29.4176 39.975 29.528 40.3763 29.3994L42.2974 28.7839Z" stroke="currentColor" stroke-linecap="round" stroke-linejoin="round" />
  <path d="M26.228 32.3655C25.3685 32.071 24.483 32.7368 24.5272 33.6444L24.6447 36.053C24.681 36.7966 24.9998 37.4982 25.536 38.0147L26.3735 38.8213C26.6929 39.129 27.1501 39.2468 27.5784 39.1317C28.2784 38.9436 28.6772 38.2067 28.4518 37.5178L27.0333 33.182C26.9078 32.7986 26.6097 32.4962 26.228 32.3655Z" stroke="currentColor" stroke-linecap="round" stroke-linejoin="round" />
  <path d="M30.1214 35.7582C29.6898 34.9366 30.1241 33.926 31.0172 33.6737L33.2404 33.0458C33.5057 32.9709 33.7908 33.0477 33.9826 33.2458C34.3309 33.6054 34.2353 34.1989 33.7918 34.4311L33.7248 34.4662C33.5621 34.5514 33.4334 34.6895 33.36 34.8577L33.1105 35.4291C32.9382 35.8235 32.6246 36.1391 32.2314 36.3138L32.0071 36.4135C31.304 36.7259 30.4792 36.4392 30.1214 35.7582Z" stroke="currentColor" stroke-linecap="round" stroke-linejoin="round" />
  <path d="M31.7067 39.6598C31.2715 40.1307 31.37 40.881 31.9119 41.2237L34.1827 42.66C34.4752 42.8449 34.8209 42.9272 35.1654 42.8937L35.4407 42.8669C35.7099 42.8407 35.955 42.7002 36.1136 42.481C36.4413 42.0279 36.3053 41.3908 35.821 41.1112L32.9738 39.4674C32.5584 39.2275 32.0322 39.3074 31.7067 39.6598Z" stroke="currentColor" stroke-linecap="round" stroke-linejoin="round" />
  <path d="M31.8062 43.3492C30.8047 42.8338 29.6455 42.7157 28.5606 43.0186L27.8494 43.2171C27.0645 43.4363 26.4119 43.9826 26.0581 44.7167C25.414 46.0532 25.9095 47.6602 27.1943 48.402L28.0036 48.8692C28.7396 49.2942 29.288 49.9813 29.5391 50.7932L29.6811 51.2523C29.841 51.7691 30.19 52.2064 30.6584 52.4769C31.685 53.0695 32.9976 52.7178 33.5903 51.6913L34.3291 50.4115C34.7756 49.6382 34.9209 48.7273 34.737 47.8534L34.5102 46.7752C34.2065 45.3318 33.2688 44.1019 31.9572 43.4269L31.8062 43.3492Z" stroke="currentColor" stroke-linecap="round" stroke-linejoin="round" />
  <path d="M34.6973 54.9773C34.6385 54.5248 34.8782 54.086 35.2908 53.891L36.4399 53.3478C37.0156 53.0757 37.6991 53.3726 37.8933 53.979C38.0547 54.4832 37.8168 55.0288 37.3376 55.2538L36.187 55.7938C35.542 56.0965 34.7891 55.6838 34.6973 54.9773Z" stroke="currentColor" stroke-linecap="round" stroke-linejoin="round" />
</svg>