<svg viewBox="0 0 80 80" fill="none">
  <path d="M63.729 60.7941L64.0414 61.1845L63.729 60.7941ZM34.806 55.3768L34.8128 55.8768L34.806 55.3768ZM46.3938 66.375H9.3125V67.375H46.3938V66.375ZM63.4167 60.4037C58.5849 64.2691 52.5815 66.375 46.3938 66.375V67.375C52.8085 67.375 59.0323 65.1918 64.0414 61.1845L63.4167 60.4037ZM69.3428 55.6628L63.4167 60.4037L64.0414 61.1845L69.9675 56.4437L69.3428 55.6628ZM59.3562 55.328L65.2822 50.5872L64.6575 49.8063L58.7315 54.5472L59.3562 55.328ZM55.3125 56.375H56.1945V55.375H55.3125V56.375ZM34.8124 56.375L55.3125 56.375V55.375H34.8124V56.375ZM35.0791 54.875C34.9858 54.875 34.8925 54.8756 34.7993 54.8769L34.8128 55.8768C34.9015 55.8756 34.9903 55.875 35.0791 55.875V54.875ZM44.8125 54.875H35.0791V55.875L44.8125 55.875V54.875ZM35.0791 48.375H44.8125V47.375H35.0791V48.375ZM22.2101 51.6052C26.1562 49.491 30.5755 48.375 35.0791 48.375V47.375C30.4102 47.375 25.8288 48.5319 21.7379 50.7237L22.2101 51.6052ZM9.3125 52.875H17.5535V51.875H9.3125V52.875ZM8.3125 52.875L8.3125 66.375H9.3125L9.3125 52.875H8.3125ZM9.3125 51.875C8.76022 51.875 8.3125 52.3227 8.3125 52.875H9.3125V51.875ZM21.7379 50.7237C20.4231 51.4281 19.0014 51.875 17.5535 51.875V52.875C19.2071 52.875 20.7911 52.3654 22.2101 51.6052L21.7379 50.7237ZM44.8125 55.875C47.1597 55.875 49.0625 53.9722 49.0625 51.625H48.0625C48.0625 53.4199 46.6074 54.875 44.8125 54.875V55.875ZM58.7315 54.5472C58.032 55.1068 57.1312 55.375 56.1945 55.375V56.375C57.3158 56.375 58.4488 56.0539 59.3562 55.328L58.7315 54.5472ZM49.0625 51.625C49.0625 49.2778 47.1597 47.375 44.8125 47.375V48.375C46.6074 48.375 48.0625 49.8301 48.0625 51.625H49.0625ZM69.9675 56.4437C71.8003 54.9774 72.0975 52.3029 70.6312 50.47L69.8503 51.0947C70.9716 52.4963 70.7444 54.5415 69.3428 55.6628L69.9675 56.4437ZM34.8124 55.375C34.9505 55.375 35.0625 55.487 35.0625 55.6251H34.0625C34.0625 56.0393 34.3982 56.375 34.8124 56.375V55.375ZM70.6312 50.47C69.1649 48.6372 66.4904 48.34 64.6575 49.8063L65.2822 50.5872C66.6838 49.4659 68.729 49.6931 69.8503 51.0947L70.6312 50.47ZM35.0625 55.6251C35.0625 55.7592 34.9546 55.8749 34.8128 55.8768L34.7993 54.8769C34.3864 54.8825 34.0625 55.22 34.0625 55.6251H35.0625ZM9.3125 66.375H8.3125C8.3125 66.9273 8.76021 67.375 9.3125 67.375V66.375Z" fill="currentColor" />
  <path d="M37.2739 26.0437L37.1401 26.5254L37.2739 26.0437ZM40.2792 26.8785L40.4218 26.3992L40.413 26.3967L40.2792 26.8785ZM42.7822 27.6234L42.9248 27.1442L42.7822 27.6234ZM33.3125 32.5903C33.3125 32.3141 33.0886 32.0903 32.8125 32.0903C32.5364 32.0903 32.3125 32.3141 32.3125 32.5903H33.3125ZM45.8458 21.4097C45.8458 21.6859 46.0697 21.9097 46.3458 21.9097C46.622 21.9097 46.8458 21.6859 46.8458 21.4097L45.8458 21.4097ZM39.3125 15.3333C39.3125 15.6095 39.5364 15.8333 39.8125 15.8333C40.0886 15.8333 40.3125 15.6095 40.3125 15.3333H39.3125ZM40.3125 13C40.3125 12.7239 40.0886 12.5 39.8125 12.5C39.5364 12.5 39.3125 12.7239 39.3125 13H40.3125ZM39.3125 41C39.3125 41.2761 39.5364 41.5 39.8125 41.5C40.0886 41.5 40.3125 41.2761 40.3125 41H39.3125ZM40.3125 38.6667C40.3125 38.3905 40.0886 38.1667 39.8125 38.1667C39.5364 38.1667 39.3125 38.3905 39.3125 38.6667H40.3125ZM40.5125 14.8333H38.7338V15.8333L40.5125 15.8333V14.8333ZM38.6458 39.1667H41.1737V38.1667H38.6458V39.1667ZM37.1401 26.5254L40.1453 27.3602L40.413 26.3967L37.4078 25.5619L37.1401 26.5254ZM40.1365 27.3577L42.6396 28.1027L42.9248 27.1442L40.4218 26.3992L40.1365 27.3577ZM33.3125 32.8333V32.5903H32.3125V32.8333H33.3125ZM45.8458 21.1667V21.4097L46.8458 21.4097V21.1667L45.8458 21.1667ZM47.3125 33.0279C47.3125 30.312 45.5279 27.9189 42.9248 27.1442L42.6396 28.1027C44.8186 28.7512 46.3125 30.7544 46.3125 33.0279H47.3125ZM32.7792 20.788C32.7792 23.4629 34.5628 25.8095 37.1401 26.5254L37.4078 25.5619C35.2633 24.9662 33.7792 23.0137 33.7792 20.788H32.7792ZM41.1737 39.1667C44.5641 39.1667 47.3125 36.4183 47.3125 33.0279H46.3125C46.3125 35.866 44.0118 38.1667 41.1737 38.1667V39.1667ZM38.6458 38.1667C35.7003 38.1667 33.3125 35.7789 33.3125 32.8333H32.3125C32.3125 36.3311 35.148 39.1667 38.6458 39.1667V38.1667ZM40.5125 15.8333C43.458 15.8333 45.8458 18.2211 45.8458 21.1667L46.8458 21.1667C46.8458 17.6689 44.0103 14.8333 40.5125 14.8333V15.8333ZM38.7338 14.8333C35.4452 14.8333 32.7792 17.4993 32.7792 20.788H33.7792C33.7792 18.0516 35.9974 15.8333 38.7338 15.8333V14.8333ZM40.3125 15.3333V13H39.3125V15.3333H40.3125ZM40.3125 41V38.6667H39.3125V41H40.3125Z" fill="currentColor" />
</svg>