<svg viewBox="0 0 80 80" fill="none">
  <path d="M63.729 60.7941L64.0414 61.1845L63.729 60.7941ZM34.806 55.3768L34.8128 55.8768L34.806 55.3768ZM46.3938 66.375H9.3125V67.375H46.3938V66.375ZM63.4167 60.4037C58.5849 64.2691 52.5815 66.375 46.3938 66.375V67.375C52.8085 67.375 59.0323 65.1918 64.0414 61.1845L63.4167 60.4037ZM69.3428 55.6628L63.4167 60.4037L64.0414 61.1845L69.9675 56.4437L69.3428 55.6628ZM59.3562 55.328L65.2822 50.5872L64.6575 49.8063L58.7315 54.5472L59.3562 55.328ZM55.3125 56.375H56.1945V55.375H55.3125V56.375ZM34.8124 56.375L55.3125 56.375V55.375H34.8124V56.375ZM35.0791 54.875C34.9858 54.875 34.8925 54.8756 34.7993 54.8769L34.8128 55.8768C34.9015 55.8756 34.9903 55.875 35.0791 55.875V54.875ZM44.8125 54.875H35.0791V55.875L44.8125 55.875V54.875ZM35.0791 48.375H44.8125V47.375H35.0791V48.375ZM22.2101 51.6052C26.1562 49.491 30.5755 48.375 35.0791 48.375V47.375C30.4102 47.375 25.8288 48.5319 21.7379 50.7237L22.2101 51.6052ZM9.3125 52.875H17.5535V51.875H9.3125V52.875ZM8.3125 52.875L8.3125 66.375H9.3125L9.3125 52.875H8.3125ZM9.3125 51.875C8.76022 51.875 8.3125 52.3227 8.3125 52.875H9.3125V51.875ZM21.7379 50.7237C20.4231 51.4281 19.0014 51.875 17.5535 51.875V52.875C19.2071 52.875 20.7911 52.3654 22.2101 51.6052L21.7379 50.7237ZM44.8125 55.875C47.1597 55.875 49.0625 53.9722 49.0625 51.625H48.0625C48.0625 53.4199 46.6074 54.875 44.8125 54.875V55.875ZM58.7315 54.5472C58.032 55.1068 57.1312 55.375 56.1945 55.375V56.375C57.3158 56.375 58.4488 56.0539 59.3562 55.328L58.7315 54.5472ZM49.0625 51.625C49.0625 49.2778 47.1597 47.375 44.8125 47.375V48.375C46.6074 48.375 48.0625 49.8301 48.0625 51.625H49.0625ZM69.9675 56.4437C71.8003 54.9774 72.0975 52.3029 70.6312 50.47L69.8503 51.0947C70.9716 52.4963 70.7444 54.5415 69.3428 55.6628L69.9675 56.4437ZM34.8124 55.375C34.9505 55.375 35.0625 55.487 35.0625 55.6251H34.0625C34.0625 56.0393 34.3982 56.375 34.8124 56.375V55.375ZM70.6312 50.47C69.1649 48.6372 66.4904 48.34 64.6575 49.8063L65.2822 50.5872C66.6838 49.4659 68.729 49.6931 69.8503 51.0947L70.6312 50.47ZM35.0625 55.6251C35.0625 55.7592 34.9546 55.8749 34.8128 55.8768L34.7993 54.8769C34.3864 54.8825 34.0625 55.22 34.0625 55.6251H35.0625ZM9.3125 66.375H8.3125C8.3125 66.9273 8.76021 67.375 9.3125 67.375V66.375Z" fill="currentColor" />
  <path d="M38.3275 16.2846C38.9052 15.0068 40.7198 15.0068 41.2975 16.2846L42.249 18.3889C42.9807 20.0074 43.829 21.5706 44.7872 23.0662L47.4962 27.2946C48.9481 29.5607 49.204 32.3923 48.1819 34.8819V34.8819C47.3506 36.907 45.7489 38.5189 43.7291 39.3631L43.3639 39.5157C41.0916 40.4654 38.5334 40.4654 36.2611 39.5157L35.8959 39.3631C33.8761 38.5189 32.2744 36.907 31.4431 34.8819V34.8819C30.421 32.3923 30.6769 29.5607 32.1288 27.2946L34.8378 23.0662C35.796 21.5706 36.6443 20.0074 37.376 18.3889L38.3275 16.2846Z" stroke="currentColor" stroke-linecap="square" stroke-linejoin="round" />
</svg>