<svg viewBox="0 0 80 80" fill="none">
  <path d="M15.6519 25.6471L15.6519 8M15.6519 25.6471C15.6519 27.5422 13.7147 29.0784 11.325 29.0784C8.93528 29.0784 6.99805 27.5422 6.99805 25.6471C6.99805 23.752 8.93528 22.2157 11.325 22.2157C13.7147 22.2157 15.6519 23.752 15.6519 25.6471Z" stroke="currentColor" stroke-linecap="round" stroke-linejoin="round" />
  <path d="M31.9981 29.5686L31.9981 11.9216M31.9981 29.5686C31.9981 31.4637 30.0609 33 27.6712 33C25.2815 33 23.3442 31.4637 23.3442 29.5686C23.3442 27.6735 25.2815 26.1373 27.6712 26.1373C30.0609 26.1373 31.9981 27.6735 31.9981 29.5686Z" stroke="currentColor" stroke-linecap="round" stroke-linejoin="round" />
  <path d="M15.6519 12.902L31.998 16.8235M15.6519 8L31.998 11.9216" stroke="currentColor" stroke-linecap="round" stroke-linejoin="round" />
  <path d="M50.4919 16.5842L71.1322 28.5009M55.2707 15.6386C54.3848 17.1731 52.4226 17.6988 50.8881 16.8129L50.0942 16.3546C48.5597 15.4686 48.0339 13.5064 48.9199 11.9719C49.8058 10.4374 51.768 9.9116 53.3025 10.7976L54.0964 11.2559C55.6309 12.1418 56.1567 14.104 55.2707 15.6386Z" stroke="currentColor" stroke-linecap="round" stroke-linejoin="round" />
  <path d="M50.4919 25.7499L71.1322 13.8332M55.2707 26.6955C54.3848 25.161 52.4226 24.6352 50.8881 25.5212L50.0942 25.9795C48.5597 26.8655 48.0339 28.8276 48.9199 30.3622C49.8058 31.8967 51.768 32.4225 53.3025 31.5365L54.0964 31.0782C55.6309 30.1922 56.1567 28.23 55.2707 26.6955Z" stroke="currentColor" stroke-linecap="round" stroke-linejoin="round" />
  <path d="M23.1157 67.7143C23.1157 68.8977 22.1676 69.8571 20.998 69.8571C19.8285 69.8571 18.8804 68.8977 18.8804 67.7143C18.8804 66.5308 19.8285 65.5714 20.998 65.5714C22.1676 65.5714 23.1157 66.5308 23.1157 67.7143Z" stroke="currentColor" stroke-linecap="round" stroke-linejoin="round" />
  <path d="M14.0471 63.2793C14.534 62.5097 15.1436 61.8242 15.8532 61.2516C16.8231 60.4689 17.9549 59.9173 19.1645 59.638C20.374 59.3586 21.6302 59.3586 22.8397 59.638C24.0492 59.9173 25.181 60.4689 26.151 61.2516C26.8601 61.8239 27.4695 62.509 27.9563 63.278" stroke="currentColor" stroke-linecap="round" stroke-linejoin="round" />
  <path d="M9.4917 57.8707C10.2135 56.9087 11.0525 56.0379 11.9915 55.2801C13.6889 53.9104 15.6695 52.9452 17.7862 52.4563C19.9029 51.9674 22.1012 51.9674 24.2179 52.4563C26.3346 52.9452 28.3152 53.9104 30.0127 55.2801C30.9513 56.0376 31.7901 56.908 32.5116 57.8696" stroke="currentColor" stroke-linecap="round" stroke-linejoin="round" />
  <path d="M4.96008 52.4903C5.89613 51.3216 6.95711 50.2551 8.12669 49.3112C10.5516 47.3544 13.3811 45.9756 16.4049 45.2772C19.4287 44.5788 22.5692 44.5788 25.593 45.2772C28.6169 45.9756 31.4463 47.3544 33.8712 49.3112C35.0418 50.2558 36.1035 51.3233 37.0401 52.4931" stroke="currentColor" stroke-linecap="round" stroke-linejoin="round" />
  <path d="M57.2953 53.1818C58.7058 52.5975 60.2906 52.5975 61.7011 53.1818C63.1116 53.766 64.2322 54.8867 64.8165 56.2972C65.4007 57.7077 65.4007 59.2925 64.8165 60.703C64.2322 62.1135 63.1116 63.2341 61.7011 63.8184C60.2906 64.4026 58.7058 64.4026 57.2953 63.8184C55.8848 63.2341 54.7641 62.1135 54.1799 60.703C53.5956 59.2925 53.5956 57.7077 54.1799 56.2972C54.7641 54.8867 55.8848 53.766 57.2953 53.1818Z" stroke="currentColor" stroke-linecap="round" stroke-linejoin="round" />
  <path d="M59.5141 49.1604L59.498 45L59.482 49.1606L59.4984 49.1538L59.5141 49.1604Z" stroke="currentColor" stroke-linecap="round" stroke-linejoin="round" />
  <path d="M66.0908 51.8845L66.1071 51.8913L66.1137 51.9071L69.044 48.9541L66.0908 51.8845Z" stroke="currentColor" stroke-linecap="round" stroke-linejoin="round" />
  <path d="M68.8379 58.4839L68.8445 58.5L68.8379 58.5161L72.998 58.5L68.8379 58.4839Z" stroke="currentColor" stroke-linecap="round" stroke-linejoin="round" />
  <path d="M66.1137 65.0929L66.1071 65.1087L66.0908 65.1155L69.044 68.0459L66.1137 65.0929Z" stroke="currentColor" stroke-linecap="round" stroke-linejoin="round" />
  <path d="M59.5141 67.8396L59.4984 67.8462L59.482 67.8394L59.498 72L59.5141 67.8396Z" stroke="currentColor" stroke-linecap="round" stroke-linejoin="round" />
  <path d="M52.9055 65.1153L52.8896 65.1087L52.8829 65.0924L49.9521 68.0459L52.9055 65.1153Z" stroke="currentColor" stroke-linecap="round" stroke-linejoin="round" />
  <path d="M50.1589 58.5161L50.1522 58.5L50.1589 58.4839L45.998 58.5L50.1589 58.5161Z" stroke="currentColor" stroke-linecap="round" stroke-linejoin="round" />
  <path d="M52.8829 51.9076L52.8896 51.8913L52.9055 51.8847L49.9521 48.9541L52.8829 51.9076Z" stroke="currentColor" stroke-linecap="round" stroke-linejoin="round" />
</svg>