<svg viewBox="0 0 80 80" fill="none">
  <path d="M21 21C21 17.6863 23.6863 15 27 15H59C62.3137 15 65 17.6863 65 21V53C65 56.3137 62.3137 59 59 59H27C23.6863 59 21 56.3137 21 53V21Z" stroke="currentColor" stroke-linecap="round" stroke-linejoin="round" />
  <path d="M21 21C17.6863 21 15 23.6863 15 27V59C15 62.3137 17.6863 65 21 65H53C56.3137 65 59 62.3137 59 59" stroke="currentColor" stroke-linecap="round" stroke-linejoin="round" />
  <path d="M27 59.0001H59C61.8222 59.0001 64.1893 57.0516 64.8294 54.4265C64.905 54.1165 64.7952 53.7953 64.5696 53.5697L58.7071 47.7072C58.3166 47.3167 57.6834 47.3167 57.2929 47.7072L53.5212 51.479C53.1186 51.8815 52.4616 51.8673 52.0769 51.4476L37.7372 35.8043C37.3408 35.3719 36.6592 35.3719 36.2629 35.8043L21.2628 52.1679C21.0938 52.3524 21 52.5935 21 52.8436V53.0001C21 56.3138 23.6863 59.0001 27 59.0001Z" stroke="currentColor" stroke-linecap="round" stroke-linejoin="round" />
  <path d="M48.4018 22.4999C50.0095 21.5717 51.9902 21.5717 53.5979 22.4999C55.2056 23.4281 56.196 25.1435 56.196 26.9999C56.196 28.8563 55.2056 30.5717 53.5979 31.4999C51.9902 32.4281 50.0095 32.4281 48.4018 31.4999C46.7941 30.5717 45.8037 28.8563 45.8037 26.9999C45.8037 25.1435 46.7941 23.4281 48.4018 22.4999Z" stroke="currentColor" stroke-linecap="round" stroke-linejoin="round" />
</svg>