<svg viewBox="0 0 80 80" fill="none">
  <path d="M11.7822 68.7986L12.0873 67.8051C14.7149 59.2485 19.3889 51.4041 25.721 44.9237L26.8397 43.7787C32.7362 37.744 40.067 33.2261 48.166 30.6352L49.4999 30.2085" stroke="currentColor" stroke-linecap="round" stroke-linejoin="round" />
  <path d="M37.3102 62.0499C37.3734 62.0503 37.4366 62.0505 37.4999 62.0505C47.3939 62.0505 56.5911 56.6409 61.4999 48.0505C66.4188 39.4424 66.4188 28.6586 61.4999 20.0505C59.2723 16.1523 56.1616 12.909 52.5035 10.5291C52.1656 11.6882 51.6937 12.8179 51.0878 13.895L50.9125 14.2067C48.1869 19.0522 43.0597 22.0508 37.5002 22.0508C37.315 22.0508 37.1303 22.0475 36.9461 22.0409V22.0503H35.8247C28.7994 22.0503 22.2893 25.7363 18.6748 31.7604C14.8747 38.094 14.8747 46.0066 18.6748 52.3402C22.2893 58.3643 28.7994 62.0503 35.8247 62.0503H37.1771C37.2215 62.0503 37.2659 62.0502 37.3102 62.0499Z" stroke="currentColor" stroke-linecap="round" stroke-linejoin="round" />
</svg>