<svg viewBox="0 0 80 80" fill="none">
  <path d="M27.6488 48.6343C27.6093 48.6489 27.5698 48.6636 27.5304 48.6784L26.3003 49.1395C20.1048 51.4615 16 57.3836 16 64C16 66.2091 17.7909 68 20 68H60C62.2091 68 64 66.2091 64 64C64 57.3836 59.8952 51.4615 53.6997 49.1395L52.4696 48.6784C52.4302 48.6636 52.3907 48.6489 52.3512 48.6343L45.908 54.0897C42.4983 56.9767 37.5017 56.9767 34.092 54.0897L27.6488 48.6343Z" stroke="currentColor" stroke-linecap="round" stroke-linejoin="round" />
  <path d="M27.0336 18.8434C33.4206 10.0086 46.5797 10.0086 52.9666 18.8434L59.5812 27.993C63.2552 33.0751 62.3965 40.1292 57.6105 44.1816L45.9081 54.0899C42.4985 56.9769 37.5018 56.9769 34.0922 54.0899L22.3898 44.1816C17.6038 40.1293 16.7451 33.0751 20.4191 27.9929L27.0336 18.8434Z" stroke="currentColor" stroke-linecap="round" stroke-linejoin="round" />
  <path d="M18.2012 36.1945C24.0233 31.0925 31.6505 28 40.0001 28C48.3496 28 55.9769 31.0925 61.7989 36.1945" stroke="currentColor" stroke-linecap="round" stroke-linejoin="round" />
  <path d="M26.4546 30.8893C26.5035 31.5085 26.5933 32.1275 26.7248 32.7424L26.9485 33.7877C27.7865 37.7041 30.339 41.0372 33.9015 42.8672C37.7295 44.8335 42.2707 44.8335 46.0986 42.8672C49.6612 41.0372 52.2136 37.7041 53.0516 33.7877L53.2753 32.7424C53.4069 32.1275 53.4967 31.5084 53.5456 30.8892" stroke="currentColor" stroke-linecap="round" stroke-linejoin="round" />
  <path d="M40 56.2549V68.0001" stroke="currentColor" stroke-linecap="round" stroke-linejoin="round" />
</svg>