<svg viewBox="0 0 80 80" fill="none">
  <path d="M39.6481 66.8404L39.6481 75.0615" stroke="currentColor" stroke-linecap="round" stroke-linejoin="round" />
  <path d="M27.1663 54.3658C27.1563 54.3658 27.1482 54.3577 27.1482 54.3477L27.1482 50.0136C27.1482 49.1516 27.847 48.4528 28.709 48.4528L50.5874 48.4528C51.4494 48.4528 52.1482 49.1516 52.1482 50.0136V54.3477C52.1482 54.3577 52.1401 54.3658 52.1301 54.3658C52.1201 54.3658 52.112 54.3739 52.1119 54.3839C52.1096 55.9894 51.7911 57.5946 51.1567 59.1041C49.9001 62.0938 47.5074 64.462 44.5048 65.6876L44.3865 65.7359C41.3493 66.9758 37.9471 66.9758 34.9099 65.7359L34.7915 65.6876C31.789 64.462 29.3963 62.0938 28.1397 59.1041C27.5053 57.5946 27.1868 55.9894 27.1844 54.3839C27.1844 54.3739 27.1763 54.3658 27.1663 54.3658Z" stroke="currentColor" stroke-linecap="round" stroke-linejoin="round" />
  <path d="M29.148 48.4527L29.148 41.0614C29.148 39.4046 30.4912 38.0614 32.148 38.0614C33.8049 38.0614 35.148 39.4046 35.148 41.0614L35.148 48.4527" stroke="currentColor" stroke-linecap="round" stroke-linejoin="round" />
  <path d="M44.148 48.453L44.148 41.0617C44.148 39.4048 45.4912 38.0617 47.148 38.0617C48.8049 38.0617 50.148 39.4048 50.148 41.0617L50.148 48.453" stroke="currentColor" stroke-linecap="round" stroke-linejoin="round" />
  <path d="M27.1661 24.9287C27.1561 24.9287 27.1479 24.9369 27.1479 24.9469L27.1479 29.281C27.1479 30.143 27.8467 30.8418 28.7088 30.8418L50.5871 30.8418C51.4491 30.8418 52.1479 30.143 52.1479 29.281V24.9469C52.1479 24.9369 52.1398 24.9288 52.1298 24.9288C52.1198 24.9288 52.1117 24.9206 52.1117 24.9106C52.1093 23.3051 51.7909 21.7 51.1564 20.1904C49.8998 17.2007 47.5071 14.8326 44.5046 13.6069L44.3863 13.5586C41.349 12.3188 37.9469 12.3188 34.9096 13.5586L34.7913 13.6069C31.7888 14.8326 29.3961 17.2007 28.1395 20.1904C27.505 21.7 27.1866 23.3051 27.1842 24.9106C27.1842 24.9206 27.1761 24.9287 27.1661 24.9287Z" stroke="currentColor" stroke-linecap="round" stroke-linejoin="round" />
  <path d="M39.648 12.5364L39.648 4.23314" stroke="currentColor" stroke-linecap="round" stroke-linejoin="round" />
</svg>