<svg viewBox="0 0 80 80" fill="none">
  <path d="M58.3409 35C59.2572 35 60 34.2572 60 33.3409V29C60 27.8954 59.1046 27 58 27H22C20.8954 27 20 27.8954 20 29V33.3409C20 34.2572 20.7428 35 21.6591 35C22.5754 35 23.3094 35.7448 23.4042 36.6562C23.5626 38.1784 23.9399 39.6833 24.5362 41.1229L24.7359 41.605C26.3598 45.5254 29.4746 48.6402 33.395 50.2641L33.8771 50.4638C37.7975 52.0877 42.2025 52.0877 46.1229 50.4638L46.605 50.2641C50.5254 48.6402 53.6402 45.5254 55.2641 41.605L55.4638 41.1229C56.0601 39.6833 56.4374 38.1784 56.5958 36.6562C56.6906 35.7448 57.4245 35 58.3409 35Z" stroke="currentColor" stroke-linecap="round" stroke-linejoin="round" />
  <path d="M33 27V17C33 15.3431 31.6569 14 30 14C28.3431 14 27 15.3431 27 17V27" stroke="currentColor" stroke-linecap="round" stroke-linejoin="round" />
  <path d="M53 27V17C53 15.3431 51.6569 14 50 14C48.3431 14 47 15.3431 47 17V27" stroke="currentColor" stroke-linecap="round" stroke-linejoin="round" />
  <path d="M40 51.6818L40 63" stroke="currentColor" stroke-linecap="round" stroke-linejoin="round" />
</svg>