<svg viewBox="0 0 80 80" fill="none">
  <path d="M21.4139 58.2558C23.5359 60.4091 26.0851 62.1399 28.9323 63.3193L30.1018 63.8037C36.4404 66.4292 43.5623 66.4292 49.9008 63.8037C56.2393 61.1782 61.2753 56.1423 63.9008 49.8037C66.5263 43.4652 66.5263 36.3433 63.9008 30.0047C61.2753 23.6662 56.2393 18.6302 49.9008 16.0047C43.5623 13.3792 36.4404 13.3792 30.1018 16.0047C23.7633 18.6302 18.7273 23.6662 16.1018 30.0047C15.1722 32.2491 14.5717 34.5916 14.3004 36.9628M14.2984 36.9801C14.295 37.0101 14.2916 37.0402 14.2883 37.0702" stroke="currentColor" stroke-linecap="round" stroke-linejoin="round" />
  <path d="M23.4037 37.0703L6.5961 37.0703C4.89999 37.0703 4.05057 39.121 5.24991 40.3203L12.8786 47.949C14.0502 49.1206 15.9497 49.1206 17.1212 47.949L24.7499 40.3203C25.9492 39.121 25.0998 37.0703 23.4037 37.0703Z" stroke="currentColor" stroke-linecap="round" stroke-linejoin="round" />
  <path d="M49.9969 38.2442C51.3866 39.0023 51.3866 40.9978 49.9969 41.7558L34.1735 50.3867C32.8408 51.1137 31.2158 50.149 31.2158 48.6309L31.2158 31.3691C31.2158 29.851 32.8408 28.8864 34.1735 29.6133L49.9969 38.2442Z" stroke="currentColor" stroke-linecap="round" stroke-linejoin="round" />
</svg>