<svg viewBox="0 0 80 80" fill="none">
  <path d="M31.9996 39.9999H20.0002C17.6929 39.9999 15.864 41.9466 16.0079 44.2494L17.5079 68.2494C17.6397 70.3575 19.3879 71.9999 21.5002 71.9999H57.9846C60.0968 71.9999 61.845 70.3575 61.9768 68.2494L63.4768 44.2494C63.6207 41.9466 61.7918 39.9999 59.4846 39.9999H47.9996V46C47.9996 49.3137 45.3133 52 41.9996 52H37.9996C34.6859 52 31.9996 49.3137 31.9996 46V39.9999Z" stroke="currentColor" stroke-linecap="round" stroke-linejoin="round" />
  <path d="M16.0079 44.2495C16.0038 44.1828 16.0013 44.1163 16.0004 44.0502C11.6887 44.5324 8.47443 48.4276 8.94851 52.8523L10.2342 64.8523C10.6698 68.9174 14.1003 72.0001 18.1887 72.0001H22" stroke="currentColor" stroke-linecap="round" stroke-linejoin="round" />
  <path d="M63.4768 44.2494C63.4818 44.1689 63.4844 44.0888 63.4847 44.0092C68.0521 44.2259 71.5444 48.253 71.0516 52.8522L69.7659 64.8523C69.3303 68.9174 65.8998 72 61.8114 72L58 72" stroke="currentColor" stroke-linecap="round" stroke-linejoin="round" />
  <path d="M47.9995 32V46C47.9995 49.3137 45.3132 52 41.9995 52H37.9995C34.6858 52 31.9995 49.3137 31.9995 46V32" stroke="currentColor" stroke-linecap="round" stroke-linejoin="round" />
  <path d="M15.9995 16C15.9995 13.7909 17.7904 12 19.9995 12H59.9995C62.2087 12 63.9995 13.7909 63.9995 16V28C63.9995 30.2091 62.2087 32 59.9995 32H19.9995C17.7904 32 15.9995 30.2091 15.9995 28V16Z" stroke="currentColor" stroke-linecap="round" stroke-linejoin="round" />
  <path d="M32.3409 12C33.1646 9.66962 35.3871 8 37.9995 8H41.9995C44.612 8 46.8344 9.66962 47.6581 12" stroke="currentColor" stroke-linecap="round" stroke-linejoin="round" />
  <path d="M31.9995 22C31.9995 17.5817 35.5812 14 39.9995 14C44.4178 14 47.9995 17.5817 47.9995 22C47.9995 26.4183 44.4178 30 39.9995 30C35.5812 30 31.9995 26.4183 31.9995 22Z" stroke="currentColor" stroke-linecap="round" stroke-linejoin="round" />
  <path d="M39.9995 22V22.01" stroke="currentColor" stroke-linecap="round" stroke-linejoin="round" />
</svg>