<svg viewBox="0 0 80 80" fill="none">
  <path d="M32.4966 23C32.4966 29.3513 27.3479 34.5 20.9966 34.5V35.5C27.9001 35.5 33.4966 29.9036 33.4966 23H32.4966ZM20.9966 34.5C14.6453 34.5 9.49658 29.3513 9.49658 23H8.49658C8.49658 29.9036 14.093 35.5 20.9966 35.5V34.5ZM9.49658 23C9.49658 16.6487 14.6453 11.5 20.9966 11.5V10.5C14.093 10.5 8.49658 16.0964 8.49658 23H9.49658ZM20.9966 11.5C27.3479 11.5 32.4966 16.6487 32.4966 23H33.4966C33.4966 16.0964 27.9001 10.5 20.9966 10.5V11.5Z" fill="currentColor" />
  <path d="M47.0969 13.1722L56.0965 22.1717L57.8964 23.9716L66.8959 32.9712" stroke="currentColor" stroke-linecap="round" stroke-linejoin="round" />
  <path d="M66.8962 13.1722L57.8967 22.1717L56.0968 23.9716L47.0972 32.9712" stroke="currentColor" stroke-linecap="round" stroke-linejoin="round" />
  <path d="M32.5178 56.1374C33.1784 56.5227 33.1784 57.4773 32.5178 57.8626L11.4984 70.1239C10.8327 70.5123 9.99658 70.0321 9.99658 69.2613L9.99658 44.7387C9.99658 43.9679 10.8327 43.4877 11.4984 43.8761L32.5178 56.1374Z" stroke="currentColor" stroke-linecap="round" stroke-linejoin="round" />
  <rect x="44.9966" y="45" width="24" height="24" rx="1" stroke="currentColor" stroke-linecap="round" stroke-linejoin="round" />
</svg>