<svg viewBox="0 0 80 80" fill="none">
  <path d="M26 48.9998H64L71 20.9998H19" stroke="currentColor" stroke-linecap="round" stroke-linejoin="round" />
  <path d="M28.9507 60.8029L17 13H9" stroke="currentColor" stroke-linecap="round" stroke-linejoin="round" />
  <path d="M26.402 61.4989C28.0097 60.5707 29.9905 60.5707 31.5982 61.4989C33.2059 62.4271 34.1963 64.1425 34.1963 65.9989C34.1963 67.8553 33.2059 69.5707 31.5982 70.4989C29.9905 71.4271 28.0097 71.4271 26.402 70.4989C24.7943 69.5707 23.804 67.8553 23.804 65.9989C23.804 64.1425 24.7943 62.4271 26.402 61.4989Z" stroke="currentColor" stroke-linecap="round" stroke-linejoin="round" />
  <path d="M30.4189 61H60.581" stroke="currentColor" stroke-linecap="round" stroke-linejoin="round" />
  <path d="M59.402 61.4989C61.0097 60.5707 62.9905 60.5707 64.5982 61.4989C66.2059 62.4271 67.1963 64.1425 67.1963 65.9989C67.1963 67.8553 66.2059 69.5707 64.5982 70.4989C62.9905 71.4271 61.0097 71.4271 59.402 70.4989C57.7943 69.5707 56.804 67.8553 56.804 65.9989C56.804 64.1425 57.7943 62.4271 59.402 61.4989Z" stroke="currentColor" stroke-linecap="round" stroke-linejoin="round" />
</svg>