<svg viewBox="0 0 80 80" fill="none">
  <path d="M49.0242 13.4358C43.3597 11.5214 37.2232 11.5214 31.5588 13.4358L30.5226 13.786C25.2023 15.5841 20.6721 19.1749 17.7068 23.944L17.5034 24.2712C14.4253 29.2217 13.3205 35.1484 14.408 40.8755C15.4085 46.1441 18.1984 50.8954 22.2915 54.3333V62C22.2915 65.3137 24.9778 68 28.2915 68C31.6052 68 34.2915 65.3137 34.2915 62C34.2915 65.3137 36.9778 68 40.2915 68C43.6052 68 46.2915 65.3137 46.2915 62C46.2915 65.3137 48.9778 68 52.2915 68C55.6052 68 58.2915 65.3137 58.2915 62V54.3333C62.3846 50.8954 65.1745 46.1441 66.1749 40.8755C67.2624 35.1484 66.1576 29.2217 63.0795 24.2712L62.8761 23.944C59.9108 19.1749 55.3806 15.5841 50.0604 13.786L49.0242 13.4358Z" stroke="currentColor" stroke-linecap="round" stroke-linejoin="round" />
  <path d="M26.6933 30.4999C28.301 29.5717 30.2817 29.5717 31.8894 30.4999C33.4971 31.4281 34.4875 33.1435 34.4875 34.9999C34.4875 36.8563 33.4971 38.5717 31.8894 39.4999C30.2817 40.4281 28.301 40.4281 26.6933 39.4999C25.0856 38.5717 24.0952 36.8563 24.0952 34.9999C24.0952 33.1435 25.0856 31.4281 26.6933 30.4999Z" stroke="currentColor" stroke-linecap="round" stroke-linejoin="round" />
  <path d="M48.6933 30.4999C50.301 29.5717 52.2817 29.5717 53.8894 30.4999C55.4971 31.4281 56.4875 33.1435 56.4875 34.9999C56.4875 36.8563 55.4971 38.5717 53.8894 39.4999C52.2817 40.4281 50.301 40.4281 48.6933 39.4999C47.0856 38.5717 46.0952 36.8563 46.0952 34.9999C46.0952 33.1435 47.0856 31.4281 48.6933 30.4999Z" stroke="currentColor" stroke-linecap="round" stroke-linejoin="round" />
  <path d="M40.2914 41L45.4875 50H35.0952L40.2914 41Z" stroke="currentColor" stroke-linecap="round" stroke-linejoin="round" />
</svg>