<svg viewBox="0 0 80 80" fill="none">
  <path d="M10.6862 40.6862C7.68568 43.6868 6 47.7564 6 51.9998C6 56.2433 7.68582 60.3131 10.6864 63.3137C13.6869 66.3142 17.7566 68 22 68H58C61.1825 68 64.2348 66.7357 66.4852 64.4853C68.7356 62.2348 70 59.1825 70 55.9999C70 52.8173 68.7357 49.7651 66.4853 47.5147M10.6862 40.6862C13.6868 37.6857 17.7566 36 22 36C26.2434 36 30.3132 37.6857 33.3138 40.6862C33.7691 41.1416 34.1942 41.6216 34.5877 42.1231C36.7934 40.7467 39.3583 40 42 40C45.713 40 49.2741 41.475 51.8996 44.1004C52.2374 44.4383 52.5562 44.7916 52.8552 45.1588C54.4481 44.4029 56.2033 44 58 44C61.1826 44 64.2349 45.2643 66.4853 47.5147M10.6862 40.6862C10.5829 40.7895 10.4812 40.8941 10.381 40.9999M66.4853 47.5147C66.4956 47.5249 66.5058 47.5351 66.5159 47.5454" stroke="currentColor" />
  <path d="M66.4853 47.5147C66.4956 47.5249 66.5058 47.5351 66.5159 47.5454C67.5212 46.9134 68.4606 46.1667 69.3136 45.3137C72.3142 42.3131 74 38.2433 74 33.9998C74 29.7564 72.3143 25.6868 69.3138 22.6862C66.3132 19.6857 62.2434 18 58 18C53.7566 18 49.6868 19.6857 46.6862 22.6862C46.2309 23.1416 45.8058 23.6216 45.4123 24.1231C43.2066 22.7467 40.6417 22 38 22C34.287 22 30.7259 23.475 28.1004 26.1004C27.7626 26.4383 27.4438 26.7916 27.1448 27.1588C25.5519 26.4029 23.7967 26 22 26C18.8174 26 15.7651 27.2643 13.5147 29.5147C11.2643 31.7651 10 34.8173 10 37.9999C10 39.0207 10.1301 40.028 10.381 40.9999" stroke="currentColor" />
  <path d="M10 37.9999C10 38.2004 10.005 38.4005 10.015 38.5999C7.43552 35.6835 6 31.9156 6 27.9998C6 23.7564 7.68568 19.6868 10.6862 16.6862C13.6868 13.6857 17.7566 12 22 12C26.2434 12 30.3132 13.6857 33.3138 16.6862C33.7691 17.1416 34.1942 17.6216 34.5877 18.1231C36.7934 16.7466 39.3583 16 42 16C45.416 16 48.7034 17.2484 51.2519 19.4926" stroke="currentColor" />
</svg>