<svg viewBox="0 0 80 80" fill="none">
  <path d="M57.8653 21.3099L57.5131 20.955L57.5131 20.955L57.8653 21.3099ZM57.8551 26.5952L57.5015 26.9487L57.5015 26.9487L57.8551 26.5952ZM57.917 26.6571L58.2705 26.3035L58.2705 26.3035L57.917 26.6571ZM63.2022 26.6468L62.8473 26.2947L62.8473 26.2947L63.2022 26.6468ZM63.1302 21.3201L62.7766 21.6736L62.7766 21.6736L63.1302 21.3201ZM68.1354 38.4818L68.1335 38.9818L68.1335 38.9818L68.1354 38.4818ZM68.1354 46.029L68.1374 46.529L68.1374 46.529L68.1354 46.029ZM63.2477 57.9099L62.8928 58.262L62.8928 58.262L63.2477 57.9099ZM57.9111 63.2464L58.2633 62.8915L58.2633 62.8915L57.9111 63.2464ZM42.3793 71.8207L42.3793 72.3207H42.3793V71.8207ZM46.0301 68.184L46.5301 68.186L46.5301 68.186L46.0301 68.184ZM38.4833 68.184L38.9833 68.1821L38.9833 68.1821L38.4833 68.184ZM42.134 71.8207L42.1341 71.3207H42.134V71.8207ZM21.4307 63.2406L21.7843 62.8871L21.7843 62.8871L21.4307 63.2406ZM26.5981 63.2506L26.2459 62.8957L26.2459 62.8957L26.5981 63.2506ZM26.6081 58.0632L26.9616 57.7097L26.9616 57.7097L26.6081 58.0632ZM26.4489 57.904L26.0953 58.2576L26.0953 58.2576L26.4489 57.904ZM21.2615 57.914L21.6164 58.2662L21.6164 58.2662L21.2615 57.914ZM21.2715 63.0814L20.9179 63.435L20.9179 63.435L21.2715 63.0814ZM16.3696 46.0291L16.3716 45.5291L16.3716 45.5291L16.3696 46.0291ZM16.3696 38.4818L16.3677 37.9818L16.3677 37.9818L16.3696 38.4818ZM21.3172 21.386L21.6707 21.7395L21.6707 21.7395L21.3172 21.386ZM21.307 26.6427L21.6619 26.2905L21.6619 26.2905L21.307 26.6427ZM26.5841 26.6529L26.2305 26.2993L26.2305 26.2993L26.5841 26.6529ZM26.6541 26.5828L27.0077 26.9363L27.0077 26.9363L26.6541 26.5828ZM26.6439 21.3057L26.2918 21.6607L26.2918 21.6607L26.6439 21.3057ZM21.3872 21.3159L21.0337 20.9623L21.0337 20.9623L21.3872 21.3159ZM38.4829 16.4182L38.9829 16.4201L38.9829 16.4201L38.4829 16.4182ZM46.0305 16.4182L45.5305 16.4201L45.5305 16.4201L46.0305 16.4182ZM57.5131 20.955C55.8502 22.605 55.8451 25.2923 57.5015 26.9487L58.2086 26.2416C56.9438 24.9768 56.9477 22.9248 58.2175 21.6648L57.5131 20.955ZM57.5015 26.9487L57.5634 27.0106L58.2705 26.3035L58.2086 26.2416L57.5015 26.9487ZM57.5634 27.0106C59.2199 28.6671 61.9071 28.6619 63.5571 26.999L62.8473 26.2947C61.5873 27.5644 59.5354 27.5684 58.2705 26.3035L57.5634 27.0106ZM63.5571 26.999C65.1982 25.3453 65.193 22.6758 63.5456 21.0284L62.8385 21.7355C64.0965 22.9935 64.1004 25.0318 62.8473 26.2947L63.5571 26.999ZM63.5456 21.0284L63.4837 20.9665L62.7766 21.6736L62.8385 21.7355L63.5456 21.0284ZM63.4837 20.9665C61.8363 19.3191 59.1669 19.3139 57.5131 20.955L58.2175 21.6648C59.4803 20.4117 61.5186 20.4156 62.7766 21.6736L63.4837 20.9665ZM72.3208 42.1814C72.3208 39.8684 70.4504 37.9908 68.1374 37.9818L68.1335 38.9818C69.8958 38.9886 71.3208 40.4192 71.3208 42.1814H72.3208ZM68.1374 37.9818C65.8117 37.9728 63.9215 39.8557 63.9215 42.1814H64.9215C64.9215 40.4095 66.3616 38.975 68.1335 38.9818L68.1374 37.9818ZM63.9215 42.1814V42.3294H64.9215V42.1814H63.9215ZM63.9215 42.3294C63.9215 44.6551 65.8117 46.538 68.1374 46.529L68.1335 45.529C66.3616 45.5359 64.9215 44.1013 64.9215 42.3294H63.9215ZM68.1374 46.529C70.4504 46.5201 72.3208 44.6425 72.3208 42.3294H71.3208C71.3208 44.0917 69.8958 45.5222 68.1335 45.529L68.1374 46.529ZM72.3208 42.3294V42.1814H71.3208V42.3294H72.3208ZM63.5913 63.439C65.2141 61.8162 65.2192 59.1867 63.6026 57.5577L62.8928 58.262C64.1214 59.5001 64.1175 61.4986 62.8842 62.7319L63.5913 63.439ZM63.6026 57.5577C61.9773 55.9197 59.3302 55.9146 57.6986 57.5463L58.4057 58.2534C59.6458 57.0133 61.6575 57.0172 62.8928 58.262L63.6026 57.5577ZM57.6986 57.5463L57.5475 57.6973L58.2547 58.4044L58.4057 58.2534L57.6986 57.5463ZM57.5475 57.6973C55.9159 59.329 55.921 61.976 57.559 63.6014L58.2633 62.8915C57.0185 61.6562 57.0146 59.6445 58.2547 58.4044L57.5475 57.6973ZM57.559 63.6014C59.188 65.2179 61.8175 65.2128 63.4403 63.59L62.7332 62.8829C61.4998 64.1162 59.5014 64.1201 58.2633 62.8915L57.559 63.6014ZM63.4403 63.59L63.5913 63.439L62.8842 62.7319L62.7332 62.8829L63.4403 63.59ZM42.3793 72.3207C44.6655 72.3207 46.5213 70.4721 46.5301 68.186L45.5301 68.1821C45.5234 69.9174 44.1147 71.3207 42.3793 71.3207V72.3207ZM46.5301 68.186C46.539 65.8873 44.678 64.0191 42.3793 64.0191V65.0191C44.1242 65.0191 45.5368 66.4372 45.5301 68.1821L46.5301 68.186ZM42.3793 64.0191H42.1341V65.0191H42.3793V64.0191ZM42.1341 64.0191C39.8354 64.0191 37.9744 65.8873 37.9833 68.186L38.9833 68.1821C38.9766 66.4372 40.3892 65.0191 42.1341 65.0191V64.0191ZM37.9833 68.186C37.9921 70.4721 39.8479 72.3207 42.134 72.3207V71.3207C40.3987 71.3207 38.99 69.9174 38.9833 68.1821L37.9833 68.186ZM42.134 72.3207L42.3793 72.3207L42.3794 71.3207L42.1341 71.3207L42.134 72.3207ZM21.0771 63.5942C22.6977 65.2147 25.3235 65.2198 26.9503 63.6055L26.2459 62.8957C25.0101 64.122 23.0153 64.1181 21.7843 62.8871L21.0771 63.5942ZM26.9503 63.6055C28.5859 61.9824 28.591 59.3391 26.9616 57.7097L26.2545 58.4168C27.4924 59.6546 27.4885 61.6627 26.2459 62.8957L26.9503 63.6055ZM26.9616 57.7097L26.8024 57.5505L26.0953 58.2576L26.2545 58.4168L26.9616 57.7097ZM26.8024 57.5505C25.173 55.9211 22.5297 55.9262 20.9066 57.5619L21.6164 58.2662C22.8495 57.0236 24.8575 57.0198 26.0953 58.2576L26.8024 57.5505ZM20.9066 57.5619C19.2923 59.1886 19.2974 61.8144 20.9179 63.435L21.625 62.7279C20.394 61.4968 20.3901 59.502 21.6164 58.2662L20.9066 57.5619ZM20.9179 63.435L21.0771 63.5942L21.7843 62.8871L21.625 62.7279L20.9179 63.435ZM12.1925 42.3377C12.1925 44.6462 14.0592 46.5201 16.3677 46.5291L16.3716 45.5291C14.6138 45.5223 13.1925 44.0954 13.1925 42.3377H12.1925ZM16.3677 46.5291C18.6889 46.538 20.5753 44.6588 20.5753 42.3377H19.5753C19.5753 44.1051 18.1389 45.5359 16.3716 45.5291L16.3677 46.5291ZM20.5753 42.3377V42.1732H19.5753V42.3377H20.5753ZM20.5753 42.1732C20.5753 39.852 18.6889 37.9728 16.3677 37.9818L16.3716 38.9818C18.1389 38.9749 19.5753 40.4058 19.5753 42.1732H20.5753ZM16.3677 37.9818C14.0592 37.9907 12.1925 39.8646 12.1925 42.1732H13.1925C13.1925 40.4154 14.6138 38.9886 16.3716 38.9818L16.3677 37.9818ZM12.1925 42.1732V42.3377H13.1925V42.1732H12.1925ZM20.9636 21.0324C19.3185 22.6776 19.3133 25.3433 20.9521 26.9948L21.6619 26.2905C20.4111 25.0299 20.415 22.9952 21.6707 21.7395L20.9636 21.0324ZM20.9521 26.9948C22.5999 28.6554 25.2834 28.6606 26.9376 27.0064L26.2305 26.2993C24.9679 27.5619 22.9196 27.5579 21.6619 26.2905L20.9521 26.9948ZM26.9376 27.0064L27.0077 26.9363L26.3006 26.2292L26.2305 26.2993L26.9376 27.0064ZM27.0077 26.9363C28.6619 25.2822 28.6567 22.5986 26.9961 20.9508L26.2918 21.6607C27.5592 22.9184 27.5632 24.9666 26.3006 26.2292L27.0077 26.9363ZM26.9961 20.9508C25.3446 19.312 22.6789 19.3172 21.0337 20.9623L21.7408 21.6695C22.9965 20.4137 25.0312 20.4098 26.2918 21.6607L26.9961 20.9508ZM21.0337 20.9623L20.9636 21.0324L21.6707 21.7395L21.7408 21.6695L21.0337 20.9623ZM42.2567 12.1924C39.9271 12.1924 37.9919 14.0751 37.9829 16.4163L38.9829 16.4201C38.9897 14.6413 40.4662 13.1924 42.2567 13.1924V12.1924ZM37.9829 16.4163C37.9738 18.7703 39.9143 20.6729 42.2567 20.6729V19.6729C40.4564 19.6729 38.976 18.2088 38.9829 16.4201L37.9829 16.4163ZM42.2567 20.6729C44.5991 20.6729 46.5396 18.7703 46.5305 16.4163L45.5305 16.4201C45.5374 18.2088 44.057 19.6729 42.2567 19.6729V20.6729ZM46.5305 16.4163C46.5215 14.0751 44.5863 12.1924 42.2567 12.1924V13.1924C44.0472 13.1924 45.5237 14.6413 45.5305 16.4201L46.5305 16.4163Z" fill="currentColor" />
</svg>