<svg viewBox="0 0 80 80" fill="none">
  <path d="M54.5166 19.6339L54.2252 20.0402L54.5687 20.2865L54.8688 19.9888L54.5166 19.6339ZM43.2698 15.1809L42.7698 15.1828L42.7715 15.6194L43.2043 15.6766L43.2698 15.1809ZM58.8242 15.3594L59.1764 15.7143L59.5826 15.3112L59.1287 14.9628L58.8242 15.3594ZM43.2464 9.13599L43.2988 8.63873L42.7443 8.58038L42.7464 9.13792L43.2464 9.13599ZM35.7137 15.3242L35.7981 15.817L36.2121 15.7461L36.2137 15.3261L35.7137 15.3242ZM35.7372 9.25009L36.2372 9.25202L36.2394 8.67699L35.6696 8.75467L35.7372 9.25009ZM20.577 15.7733L20.2641 15.3834L19.8273 15.7338L20.2248 16.1282L20.577 15.7733ZM24.8702 20.0335L24.518 20.3884L24.8263 20.6943L25.1724 20.4318L24.8702 20.0335ZM19.6026 25.4556L20.0096 25.7461L20.2546 25.4028L19.9576 25.1034L19.6026 25.4556ZM15.3269 21.1467L15.6818 20.7945L15.2781 20.3876L14.9298 20.8429L15.3269 21.1467ZM9.1853 36.2433L8.68884 36.1839L8.62166 36.7455L9.18723 36.7433L9.1853 36.2433ZM15.2428 36.2199L15.2447 36.7199L15.6736 36.7182L15.7373 36.2942L15.2428 36.2199ZM15.2536 43.7799L15.7478 43.7042L15.6831 43.2815L15.2555 43.2799L15.2536 43.7799ZM9.1939 43.7565L9.19583 43.2565L8.62894 43.2543L8.69758 43.817L9.1939 43.7565ZM15.3577 58.822L14.961 59.1264L15.3095 59.5804L15.7126 59.1742L15.3577 58.822ZM19.6322 54.5143L19.9871 54.8665L20.2848 54.5665L20.0386 54.223L19.6322 54.5143ZM24.9109 59.9259L25.2122 59.5269L24.8663 59.2657L24.5587 59.571L24.9109 59.9259ZM20.6167 64.187L20.2645 63.8321L19.8663 64.2272L20.3044 64.5775L20.6167 64.187ZM35.737 70.6785L35.6694 71.1739L36.2392 71.2516L36.237 70.6765L35.737 70.6785ZM35.7135 64.6044L36.2135 64.6024L36.2119 64.1825L35.7979 64.1115L35.7135 64.6044ZM43.27 64.7477L43.2045 64.252L42.7717 64.3092L42.77 64.7457L43.27 64.7477ZM43.2466 70.7926L42.7466 70.7906L42.7445 71.3482L43.2989 71.2898L43.2466 70.7926ZM58.7837 64.6002L59.0876 64.9973L59.5428 64.649L59.1359 64.2453L58.7837 64.6002ZM54.4749 60.3245L54.8271 59.9696L54.5277 59.6725L54.1844 59.9176L54.4749 60.3245ZM59.8936 55.0603L59.4953 54.7581L59.2328 55.1042L59.5387 55.4125L59.8936 55.0603ZM64.1537 59.3534L63.7988 59.7056L64.1932 60.1031L64.5437 59.6664L64.1537 59.3534ZM70.7351 43.7527L71.2314 43.8132L71.3 43.2505L70.7332 43.2527L70.7351 43.7527ZM64.6755 43.7761L64.6736 43.2761L64.2459 43.2778L64.1813 43.7005L64.6755 43.7761ZM64.6863 36.2236L64.1918 36.2978L64.2555 36.722L64.6844 36.7236L64.6863 36.2236ZM70.7437 36.247L70.7418 36.747L71.3073 36.7492L71.2402 36.1877L70.7437 36.247ZM64.1853 20.6145L64.5757 20.3022L64.2254 19.8642L63.8303 20.2623L64.1853 20.6145ZM59.9242 24.9086L59.5693 24.5564L59.2639 24.8642L59.5252 25.21L59.9242 24.9086ZM54.8079 19.2275C51.4901 16.8484 47.5771 15.2455 43.3353 14.6852L43.2043 15.6766C47.2787 16.2148 51.0373 17.7543 54.2252 20.0402L54.8079 19.2275ZM54.8688 19.9888L59.1764 15.7143L58.472 15.0045L54.1644 19.279L54.8688 19.9888ZM43.1941 9.63324C48.9245 10.2363 54.182 12.4261 58.5197 15.756L59.1287 14.9628C54.6491 11.524 49.2182 9.26165 43.2988 8.63873L43.1941 9.63324ZM42.7464 9.13792L42.7698 15.1828L43.7698 15.179L43.7464 9.13405L42.7464 9.13792ZM36.2137 15.3261L36.2372 9.25202L35.2372 9.24816L35.2137 15.3222L36.2137 15.3261ZM20.8899 16.1633C25.0928 12.7906 30.2073 10.5087 35.8047 9.74551L35.6696 8.75467C29.8872 9.54308 24.6042 11.9006 20.2641 15.3834L20.8899 16.1633ZM20.2248 16.1282L24.518 20.3884L25.2224 19.6786L20.9292 15.4184L20.2248 16.1282ZM35.6293 14.8314C31.5233 15.5346 27.7528 17.2195 24.568 19.6351L25.1724 20.4318C28.2326 18.1106 31.8546 16.4925 35.7981 15.817L35.6293 14.8314ZM19.9576 25.1034L15.6818 20.7945L14.972 21.4989L19.2477 25.8078L19.9576 25.1034ZM9.68176 36.3027C10.345 30.7583 12.4957 25.6709 15.7241 21.4505L14.9298 20.8429C11.5959 25.2013 9.37398 30.4565 8.68884 36.1839L9.68176 36.3027ZM9.18723 36.7433L15.2447 36.7199L15.2409 35.7199L9.18337 35.7433L9.18723 36.7433ZM19.1957 25.1651C16.9178 28.3562 15.3567 32.0949 14.7484 36.1456L15.7373 36.2942C16.3216 32.4035 17.8209 28.8122 20.0096 25.7461L19.1957 25.1651ZM15.2555 43.2799L9.19583 43.2565L9.19197 44.2565L15.2517 44.2799L15.2555 43.2799ZM15.7543 58.5176C12.5228 54.3072 10.3653 49.2304 9.69022 43.6959L8.69758 43.817C9.39489 49.5342 11.6239 54.7784 14.961 59.1264L15.7543 58.5176ZM15.7126 59.1742L19.9871 54.8665L19.2773 54.1621L15.0028 58.4698L15.7126 59.1742ZM14.7594 43.8555C15.3782 47.8962 16.9453 51.6244 19.2258 54.8056L20.0386 54.223C17.8473 51.1663 16.3422 47.5851 15.7478 43.7042L14.7594 43.8555ZM24.5587 59.571L20.2645 63.8321L20.9688 64.5419L25.263 60.2808L24.5587 59.571ZM35.8045 70.1831C30.2245 69.4222 25.1244 67.152 20.929 63.7966L20.3044 64.5775C24.6368 68.0425 29.905 70.3879 35.6694 71.1739L35.8045 70.1831ZM36.237 70.6765L36.2135 64.6024L35.2135 64.6063L35.237 70.6804L36.237 70.6765ZM24.6095 60.3249C27.7855 62.7237 31.541 64.3969 35.6291 65.0972L35.7979 64.1115C31.8715 63.439 28.264 61.832 25.2122 59.5269L24.6095 60.3249ZM42.77 64.7457L42.7466 70.7906L43.7466 70.7945L43.77 64.7496L42.77 64.7457ZM58.4799 64.2031C54.1499 67.5158 48.9071 69.6941 43.1943 70.2953L43.2989 71.2898C49.2002 70.6688 54.616 68.4183 59.0876 64.9973L58.4799 64.2031ZM59.1359 64.2453L54.8271 59.9696L54.1227 60.6794L58.4316 64.9551L59.1359 64.2453ZM43.3355 65.2434C47.5591 64.6854 51.4568 63.0938 54.7655 60.7314L54.1844 59.9176C51.0053 62.1874 47.2614 63.716 43.2045 64.252L43.3355 65.2434ZM59.5387 55.4125L63.7988 59.7056L64.5087 59.0013L60.2485 54.7081L59.5387 55.4125ZM70.2388 43.6922C69.5361 49.4593 67.2237 54.7295 63.7638 59.0405L64.5437 59.6664C68.1166 55.2146 70.5056 49.7707 71.2314 43.8132L70.2388 43.6922ZM70.7332 43.2527L64.6736 43.2761L64.6774 44.2761L70.737 44.2527L70.7332 43.2527ZM60.292 55.3625C62.796 52.0619 64.5149 48.1321 65.1698 43.8517L64.1813 43.7005C63.5523 47.8117 61.9014 51.5866 59.4953 54.7581L60.292 55.3625ZM64.6844 36.7236L70.7418 36.747L70.7456 35.747L64.6882 35.7236L64.6844 36.7236ZM63.7948 20.9268C67.2515 25.2481 69.5569 30.5292 70.2472 36.3064L71.2402 36.1877C70.527 30.2198 68.1453 24.7646 64.5757 20.3022L63.7948 20.9268ZM63.8303 20.2623L59.5693 24.5564L60.2791 25.2608L64.5402 20.9667L63.8303 20.2623ZM65.1808 36.1494C64.537 31.8587 62.8243 27.918 60.3231 24.6072L59.5252 25.21C61.9286 28.3913 63.5735 32.1767 64.1918 36.2978L65.1808 36.1494Z" fill="currentColor" />
</svg>