<svg viewBox="0 0 80 80" fill="none">
  <path d="M53.3712 25.7673L53.7234 26.1222L53.7234 26.1222L53.3712 25.7673ZM53.3608 31.1492L53.7144 30.7957L53.7144 30.7957L53.3608 31.1492ZM58.7428 31.1388L59.0977 31.491L59.0977 31.491L58.7428 31.1388ZM63.1703 26.677L62.8154 26.3248L62.8154 26.3248L63.1703 26.677ZM63.16 21.3501L62.8064 21.7036L62.8064 21.7036L63.16 21.3501ZM57.8331 21.3398L58.1853 21.6947L57.8331 21.3398ZM68.0603 38.4806L68.0623 37.9806L68.0623 37.9806L68.0603 38.4806ZM61.7744 38.4563L61.7763 37.9563L61.7763 37.9563L61.7744 38.4563ZM61.7744 46.0527L61.7763 46.5527L61.7763 46.5527L61.7744 46.0527ZM68.0603 46.0284L68.0584 45.5284L68.0584 45.5284L68.0603 46.0284ZM63.1714 57.8331L62.8165 58.1853L62.8165 58.1853L63.1714 57.8331ZM58.7438 53.3712L59.0987 53.019L59.0987 53.019L58.7438 53.3712ZM53.3619 53.3608L53.7154 53.7143L53.7154 53.7143L53.3619 53.3608ZM53.3723 58.7427L53.0201 59.0976L53.3723 58.7427ZM57.8342 63.1703L58.1864 62.8154L58.1864 62.8154L57.8342 63.1703ZM42.2556 71.8197L42.2556 71.3197H42.2556V71.8197ZM46.0294 68.0604L45.5295 68.0585L45.5295 68.0585L46.0294 68.0604ZM46.0538 61.7744L46.5538 61.7763L46.5538 61.7763L46.0538 61.7744ZM38.4574 61.7744L38.9574 61.7724L38.9574 61.7724L38.4574 61.7744ZM38.4817 68.0604L37.9817 68.0624L37.9817 68.0624L38.4817 68.0604ZM21.35 63.1601L21.7035 62.8065L21.7035 62.8065L21.35 63.1601ZM26.6769 63.1704L26.3247 62.8155L26.3247 62.8155L26.6769 63.1704ZM31.1389 58.7427L30.7867 58.3878L30.7867 58.3878L31.1389 58.7427ZM25.7674 53.3712L26.1223 53.7234L26.1223 53.7234L25.7674 53.3712ZM21.3397 57.8332L20.9848 57.481L20.9848 57.481L21.3397 57.8332ZM16.4508 46.0284L16.4488 46.5284L16.4488 46.5284L16.4508 46.0284ZM22.7367 46.0527L22.7386 45.5527L22.7386 45.5527L22.7367 46.0527ZM22.7367 38.4563L22.7347 37.9563L22.7347 37.9563L22.7367 38.4563ZM16.4508 38.4805L16.4527 38.9805L16.4527 38.9805L16.4508 38.4805ZM21.3408 26.6769L20.9859 27.0291L20.9859 27.0291L21.3408 26.6769ZM25.7684 31.1388L26.1233 30.7866L26.1233 30.7866L25.7684 31.1388ZM31.1399 25.7673L30.7877 26.1222L30.7877 26.1222L31.1399 25.7673ZM26.678 21.3397L27.0302 20.9848L27.0302 20.9848L26.678 21.3397ZM38.4816 16.4509L38.9816 16.4528L38.9816 16.4528L38.4816 16.4509ZM38.4573 22.7366L38.9573 22.7386L38.9573 22.7386L38.4573 22.7366ZM42.2556 26.5496L42.2556 26.0496L42.2556 26.0496L42.2556 26.5496ZM46.0538 22.7366L45.5538 22.7386L45.5538 22.7386L46.0538 22.7366ZM46.0295 16.4509L46.5295 16.4489L46.5295 16.4489L46.0295 16.4509ZM53.019 25.4124C51.3294 27.0891 51.3241 29.8196 53.0073 31.5028L53.7144 30.7957C52.4228 29.5041 52.4269 27.4088 53.7234 26.1222L53.019 25.4124ZM53.0073 31.5028C54.6904 33.186 57.421 33.1807 59.0977 31.491L58.3878 30.7867C57.1013 32.0832 55.006 32.0873 53.7144 30.7957L53.0073 31.5028ZM59.0977 31.491L63.5252 27.0292L62.8154 26.3248L58.3878 30.7867L59.0977 31.491ZM63.5252 27.0292C65.1833 25.3582 65.1781 22.6611 63.5135 20.9965L62.8064 21.7036C64.0815 22.9787 64.0855 25.0448 62.8154 26.3248L63.5252 27.0292ZM63.5135 20.9965C61.849 19.332 59.1519 19.3268 57.4809 20.9849L58.1853 21.6947C59.4653 20.4246 61.5314 20.4286 62.8064 21.7036L63.5135 20.9965ZM57.4809 20.9849L53.019 25.4124L53.7234 26.1222L58.1853 21.6947L57.4809 20.9849ZM72.3196 42.2545C72.3196 39.9005 70.4162 37.9897 68.0623 37.9806L68.0584 38.9806C69.8616 38.9876 71.3196 40.4513 71.3196 42.2545H72.3196ZM68.0623 37.9806L61.7763 37.9563L61.7725 38.9563L68.0584 38.9806L68.0623 37.9806ZM61.7763 37.9563C59.396 37.9471 57.4615 39.8742 57.4615 42.2545H58.4615C58.4615 40.428 59.9459 38.9492 61.7725 38.9563L61.7763 37.9563ZM57.4615 42.2545C57.4615 44.6348 59.396 46.5619 61.7763 46.5527L61.7725 45.5527C59.9459 45.5597 58.4615 44.081 58.4615 42.2545H57.4615ZM61.7763 46.5527L68.0623 46.5284L68.0584 45.5284L61.7725 45.5527L61.7763 46.5527ZM68.0623 46.5284C70.4162 46.5193 72.3196 44.6085 72.3196 42.2545H71.3196C71.3196 44.0577 69.8616 45.5214 68.0584 45.5284L68.0623 46.5284ZM63.5147 63.5136C65.1792 61.849 65.1844 59.1519 63.5263 57.4809L62.8165 58.1853C64.0866 59.4653 64.0826 61.5314 62.8075 62.8065L63.5147 63.5136ZM63.5263 57.4809L59.0987 53.019L58.3889 53.7234L62.8165 58.1853L63.5263 57.4809ZM59.0987 53.019C57.422 51.3293 54.6915 51.3241 53.0083 53.0072L53.7154 53.7143C55.007 52.4228 57.1023 52.4268 58.3889 53.7234L59.0987 53.019ZM53.0083 53.0072C51.3251 54.6904 51.3304 57.421 53.0201 59.0976L53.7244 58.3878C52.4279 57.1012 52.4238 55.0059 53.7154 53.7143L53.0083 53.0072ZM53.0201 59.0976L57.482 63.5252L58.1864 62.8154L53.7244 58.3878L53.0201 59.0976ZM57.482 63.5252C59.153 65.1833 61.8501 65.1781 63.5147 63.5136L62.8075 62.8065C61.5325 64.0815 59.4664 64.0855 58.1864 62.8154L57.482 63.5252ZM42.2556 72.3197C44.6095 72.3198 46.5203 70.4163 46.5294 68.0624L45.5295 68.0585C45.5225 69.8617 44.0588 71.3197 42.2556 71.3197L42.2556 72.3197ZM46.5294 68.0624L46.5538 61.7763L45.5538 61.7724L45.5295 68.0585L46.5294 68.0624ZM46.5538 61.7763C46.563 59.396 44.6359 57.4615 42.2556 57.4615V58.4615C44.0821 58.4615 45.5608 59.9459 45.5538 61.7724L46.5538 61.7763ZM42.2556 57.4615C39.8752 57.4615 37.9482 59.396 37.9574 61.7763L38.9574 61.7724C38.9503 59.9459 40.429 58.4615 42.2556 58.4615V57.4615ZM37.9574 61.7763L37.9817 68.0624L38.9817 68.0585L38.9574 61.7724L37.9574 61.7763ZM37.9817 68.0624C37.9908 70.4163 39.9016 72.3197 42.2556 72.3197V71.3197C40.4524 71.3197 38.9887 69.8617 38.9817 68.0585L37.9817 68.0624ZM20.9964 63.5136C22.661 65.1782 25.3581 65.1834 27.029 63.5253L26.3247 62.8155C25.0447 64.0856 22.9786 64.0816 21.7035 62.8065L20.9964 63.5136ZM27.029 63.5253L31.4911 59.0976L30.7867 58.3878L26.3247 62.8155L27.029 63.5253ZM31.4911 59.0976C33.1807 57.421 33.186 54.6904 31.5028 53.0073L30.7957 53.7144C32.0873 55.0059 32.0832 57.1012 30.7867 58.3878L31.4911 59.0976ZM31.5028 53.0073C29.8197 51.3241 27.0891 51.3294 25.4124 53.019L26.1223 53.7234C27.4088 52.4268 29.5041 52.4228 30.7957 53.7144L31.5028 53.0073ZM25.4124 53.019L20.9848 57.481L21.6946 58.1854L26.1223 53.7234L25.4124 53.019ZM20.9848 57.481C19.3267 59.152 19.3319 61.8491 20.9964 63.5136L21.7035 62.8065C20.4284 61.5315 20.4245 59.4654 21.6946 58.1854L20.9848 57.481ZM12.1914 42.2545C12.1914 44.6085 14.0948 46.5194 16.4488 46.5284L16.4527 45.5285C14.6495 45.5215 13.1914 44.0577 13.1914 42.2545H12.1914ZM16.4488 46.5284L22.7347 46.5527L22.7386 45.5527L16.4527 45.5285L16.4488 46.5284ZM22.7347 46.5527C25.1151 46.5619 27.0496 44.6348 27.0496 42.2545H26.0496C26.0496 44.081 24.5651 45.5598 22.7386 45.5527L22.7347 46.5527ZM27.0496 42.2545C27.0496 39.8741 25.1151 37.9471 22.7347 37.9563L22.7386 38.9562C24.5651 38.9492 26.0496 40.4279 26.0496 42.2545H27.0496ZM22.7347 37.9563L16.4488 37.9805L16.4527 38.9805L22.7386 38.9562L22.7347 37.9563ZM16.4488 37.9805C14.0948 37.9896 12.1914 39.9005 12.1914 42.2545H13.1914C13.1914 40.4513 14.6495 38.9875 16.4527 38.9805L16.4488 37.9805ZM20.9975 20.9965C19.333 22.661 19.3278 25.3581 20.9859 27.0291L21.6957 26.3247C20.4256 25.0447 20.4296 22.9786 21.7046 21.7036L20.9975 20.9965ZM20.9859 27.0291L25.4135 31.491L26.1233 30.7866L21.6957 26.3247L20.9859 27.0291ZM25.4135 31.491C27.0901 33.1807 29.8207 33.1859 31.5038 31.5028L30.7967 30.7957C29.5052 32.0872 27.4099 32.0832 26.1233 30.7866L25.4135 31.491ZM31.5038 31.5028C33.187 29.8196 33.1817 27.089 31.4921 25.4124L30.7877 26.1222C32.0843 27.4088 32.0883 29.5041 30.7967 30.7957L31.5038 31.5028ZM31.4921 25.4124L27.0302 20.9848L26.3258 21.6946L30.7877 26.1222L31.4921 25.4124ZM27.0302 20.9848C25.3592 19.3267 22.6621 19.3319 20.9975 20.9965L21.7046 21.7036C22.9797 20.4285 25.0458 20.4245 26.3258 21.6946L27.0302 20.9848ZM42.2556 12.1915C39.9016 12.1915 37.9907 14.0949 37.9816 16.4489L38.9816 16.4528C38.9886 14.6496 40.4523 13.1915 42.2556 13.1915V12.1915ZM37.9816 16.4489L37.9573 22.7347L38.9573 22.7386L38.9816 16.4528L37.9816 16.4489ZM37.9573 22.7347C37.9481 25.115 39.8752 27.0496 42.2556 27.0496L42.2556 26.0496C40.429 26.0496 38.9503 24.5651 38.9573 22.7386L37.9573 22.7347ZM42.2556 27.0496C44.6359 27.0496 46.563 25.115 46.5538 22.7347L45.5538 22.7386C45.5609 24.5651 44.0821 26.0496 42.2556 26.0496V27.0496ZM46.5538 22.7347L46.5295 16.4489L45.5295 16.4528L45.5538 22.7386L46.5538 22.7347ZM46.5295 16.4489C46.5204 14.0949 44.6096 12.1915 42.2556 12.1915V13.1915C44.0588 13.1915 45.5226 14.6496 45.5295 16.4528L46.5295 16.4489Z" fill="currentColor" />
</svg>