<svg viewBox="0 0 80 80" fill="none">
  <path d="M14 30.0592C14 29.5287 14.2107 29.02 14.5858 28.645L28.645 14.5858C29.02 14.2107 29.5287 14 30.0592 14H49.9408C50.4713 14 50.98 14.2107 51.355 14.5858L65.4142 28.645C65.7893 29.02 66 29.5287 66 30.0592V49.9414C66 50.4719 65.7893 50.9806 65.4142 51.3556L51.3556 65.4142C50.9806 65.7893 50.4719 66 49.9414 66H30.0586C29.5281 66 29.0194 65.7893 28.6444 65.4142L14.5858 51.3556C14.2107 50.9806 14 50.4719 14 49.9414V30.0592Z" stroke="currentColor" stroke-linecap="round" stroke-linejoin="round" />
  <path d="M38.7872 24.0474C40.1732 24.0474 41.2969 25.171 41.2969 26.557V39.4856C41.2969 39.5538 41.3521 39.609 41.4203 39.609C41.5152 39.609 41.5921 39.5321 41.5921 39.4372V28.8949C41.5921 27.5089 42.7157 26.3853 44.1018 26.3853C45.4879 26.3853 46.6115 27.5089 46.6115 28.8949V39.4856C46.6115 39.5538 46.6667 39.609 46.7349 39.609C46.8298 39.609 46.9067 39.5321 46.9067 39.4372V33.5707C46.9067 32.1847 48.0303 31.0611 49.4164 31.0611C50.8025 31.0611 51.9261 32.1847 51.9261 33.5707V43.799C51.9261 43.9262 51.9164 44.0531 51.8972 44.1788L50.4209 53.8226C50.2334 55.0478 49.1795 55.9526 47.9401 55.9526H34.6536C33.8301 55.9526 33.059 55.5486 32.5902 54.8715L24.5203 43.2163C23.7313 42.0767 24.0154 40.5133 25.155 39.7243C26.2946 38.9353 27.858 39.2194 28.647 40.359L30.726 43.3616C30.7985 43.4664 30.9629 43.4151 30.9629 43.2876V28.8949C30.9629 27.5089 32.0865 26.3853 33.4726 26.3853C34.8586 26.3853 35.9822 27.5089 35.9822 28.8949V39.4856C35.9822 39.5538 36.0375 39.609 36.1057 39.609C36.2006 39.609 36.2775 39.5321 36.2775 39.4372V26.557C36.2775 25.171 37.4011 24.0474 38.7872 24.0474Z" stroke="currentColor" stroke-linecap="round" stroke-linejoin="round" />
</svg>