<svg viewBox="0 0 80 80" fill="none">
  <path d="M33 52.252C20.9234 53.14 12 56.2722 12 59.9999C12 64.4182 24.536 67.9999 40 67.9999C55.464 67.9999 68 64.4182 68 59.9999C68 56.2722 59.0766 53.14 47 52.252" stroke="currentColor" stroke-linecap="round" stroke-linejoin="round" />
  <path d="M33 48H29.1667C27.97 48 27 47.0299 27 45.8333V37.5403C27 35.5897 27.7559 33.7151 29.1089 32.31C30.5302 30.834 32.4911 30 34.5403 30H45.4597C47.5089 30 49.4698 30.834 50.8911 32.31C52.2441 33.7151 53 35.5897 53 37.5403V45.8333C53 47.0299 52.03 48 50.8333 48H47V60C47 61.1046 46.1046 62 45 62H35C33.8954 62 33 61.1046 33 60V48Z" stroke="currentColor" stroke-linecap="round" stroke-linejoin="round" />
  <path d="M35 16.9998C37.7614 14.2384 42.2386 14.2384 45 16.9998C47.7614 19.7612 47.7614 24.2384 45 26.9998C42.2386 29.7612 37.7614 29.7612 35 26.9998C32.2386 24.2384 32.2386 19.7612 35 16.9998Z" stroke="currentColor" stroke-linecap="round" stroke-linejoin="round" />
</svg>