<svg viewBox="0 0 80 80" fill="none">
  <path d="M39.1665 15.9258C38.7138 16.1133 38.3541 16.4731 38.1665 16.9258C37.979 17.3786 37.979 17.8873 38.1665 18.34C38.3541 18.7928 38.7138 19.1525 39.1665 19.34C39.6193 19.5276 40.128 19.5276 40.5807 19.34C41.0335 19.1525 41.3932 18.7928 41.5807 18.34C41.7683 17.8873 41.7683 17.3786 41.5807 16.9258C41.3932 16.4731 41.0335 16.1133 40.5807 15.9258C40.128 15.7383 39.6193 15.7383 39.1665 15.9258Z" stroke="currentColor" stroke-linecap="round" stroke-linejoin="round" />
  <path d="M44.9447 18.1519C45.8753 18.3953 46.7929 18.7053 47.6903 19.0819L48.3307 19.3507C53.7532 21.6264 58.0496 25.9629 60.2747 31.4064C62.4998 36.8498 62.4714 42.9543 60.1957 48.3768C57.92 53.7993 53.5834 58.0957 48.14 60.3208C42.6965 62.5459 36.5921 62.5175 31.1696 60.2418C25.7471 57.9661 21.4507 53.6295 19.2256 48.186C17.0005 42.7426 17.0289 36.6382 19.3046 31.2157C19.7033 30.2656 20.1652 29.3502 20.6853 28.4744" stroke="currentColor" stroke-linecap="round" stroke-linejoin="round" />
  <path d="M40.7301 37.746L23.0294 22.7686L38.0069 40.4692C38.374 40.9031 38.9136 41.1533 39.4819 41.1533C40.5491 41.1533 41.4142 40.2882 41.4142 39.2211C41.4142 38.6527 41.164 38.1132 40.7301 37.746Z" stroke="currentColor" stroke-linecap="round" stroke-linejoin="round" />
</svg>