<svg viewBox="0 0 80 80" fill="none">
  <path d="M19.2054 26.5001C24.0284 23.7155 29.9707 23.7155 34.7938 26.5001C39.6169 29.2847 42.5881 34.4309 42.5881 40.0001C42.5881 45.5693 39.6169 50.7155 34.7938 53.5001C29.9707 56.2847 24.0284 56.2847 19.2054 53.5001C14.3823 50.7155 11.4111 45.5693 11.4111 40.0001C11.4111 34.4309 14.3823 29.2847 19.2054 26.5001Z" stroke="currentColor" stroke-linecap="round" stroke-linejoin="round" />
  <path d="M33.856 54H56.7884C60.602 54 64.2556 52.4673 66.9278 49.7465L67.0763 49.5953C69.5912 47.0347 71.0003 43.5891 71.0003 40C71.0003 36.4109 69.5912 32.9653 67.0763 30.4047L66.9278 30.2535C64.2556 27.5327 60.602 26 56.7884 26L33.856 26" stroke="currentColor" stroke-linecap="round" stroke-linejoin="round" />
</svg>