<svg viewBox="0 0 80 80" fill="none">
  <path d="M17.732 49.7466C17.357 49.3716 16.8484 49.161 16.3181 49.161H6.14648C5.04191 49.161 4.14648 48.2656 4.14648 47.161V33.1678C4.14648 32.0632 5.04191 31.1678 6.14648 31.1678H16.3185C16.8488 31.1678 17.3574 30.9572 17.7324 30.5823L28.7325 19.5863C29.9926 18.3267 32.1465 19.2191 32.1465 21.0008V59.3284C32.1465 61.1101 29.9926 62.0025 28.7325 60.7429L17.732 49.7466Z" stroke="currentColor" stroke-linecap="round" stroke-linejoin="round" />
  <path d="M37.3618 27.7177C38.8926 28.578 40.2561 29.6553 41.395 30.9091C42.9518 32.623 44.0488 34.6229 44.6044 36.7602C45.16 38.8975 45.16 41.1172 44.6044 43.2545C44.0488 45.3917 42.9518 47.3916 41.395 49.1056C40.2568 50.3586 38.8942 51.4353 37.3645 52.2955" stroke="currentColor" stroke-linecap="round" stroke-linejoin="round" />
</svg>