<svg viewBox="0 0 80 80" fill="none">
  <path d="M80 0H0V80H80V0Z" fill="white" class="fill-white" />
  <path d="M26 0H0V80H26V0Z" fill="#006847" class="fill-grey" />
  <path d="M80 0H54V80H80V0Z" fill="#CE1126" class="fill-red" />
  <path fill-rule="evenodd" clip-rule="evenodd" d="M28.378 42.2466C27.8867 42.0737 27.5689 41.3887 27.6496 40.6112C27.7392 39.7482 28.286 39.0981 28.8708 39.1593C29.4556 39.2204 29.8571 39.9696 29.7674 40.8326C29.6867 41.6099 29.2352 42.2144 28.719 42.2822C28.7409 42.7023 28.7966 43.1156 28.884 43.5201C29.45 43.4008 30.1013 43.8679 30.3882 44.6266C30.6518 45.3236 30.5226 46.0412 30.1102 46.3761C30.3582 46.7472 30.6359 47.1031 30.9408 47.4417C31.3792 47.0611 32.2288 47.1836 32.9187 47.7503C33.5873 48.2994 33.8779 49.0784 33.6357 49.5869C33.9117 49.7437 34.1965 49.8908 34.4896 50.0275C34.8766 49.6613 35.7195 49.5481 36.6137 49.7868C37.5538 50.0377 38.2521 50.5977 38.3575 51.1331C38.9297 51.2057 39.5163 51.2433 40.1141 51.2433C40.7527 51.2433 41.3785 51.2003 41.9876 51.1178C42.1032 50.5871 42.7972 50.0353 43.7283 49.7868C44.5933 49.5559 45.4103 49.6543 45.8131 49.9925C46.1122 49.8504 46.4026 49.6976 46.6836 49.5346C46.4841 49.0261 46.7773 48.2809 47.4233 47.7503C48.0795 47.2112 48.8802 47.0741 49.3341 47.3896C49.6381 47.047 49.9145 46.687 50.1606 46.3118C49.8053 45.9552 49.706 45.2818 49.9538 44.6266C50.2222 43.9168 50.8096 43.4623 51.3476 43.5043C51.4347 43.0973 51.4897 42.6814 51.5104 42.2587C51.0425 42.1247 50.6493 41.5528 50.5746 40.8326C50.4849 39.9696 50.8864 39.2204 51.4712 39.1593C52.0561 39.0981 52.6028 39.7482 52.6924 40.6112C52.7793 41.4479 52.4046 42.1776 51.8488 42.277C51.8268 42.7262 51.7681 43.1672 51.675 43.598C52.1993 43.8716 52.3901 44.6699 52.0978 45.4429C51.7892 46.2589 51.0591 46.7376 50.467 46.5121C50.4629 46.5106 50.4588 46.509 50.4547 46.5074C50.4509 46.5058 50.4471 46.5043 50.4433 46.5027C50.1822 46.9 49.8885 47.2804 49.5653 47.6414C49.8551 48.1475 49.568 48.9622 48.8759 49.5307C48.1719 50.1089 47.3018 50.2247 46.8718 49.8155C46.597 49.9754 46.3135 50.1258 46.0222 50.2661C46.0344 50.2945 46.0445 50.3237 46.0525 50.3539C46.2148 50.9663 45.4375 51.7054 44.3163 52.0047C43.2074 52.3006 42.1774 52.0556 41.9978 51.4577C41.384 51.5396 40.7548 51.5821 40.1141 51.5821C39.5114 51.5821 38.9189 51.5445 38.3398 51.4718C38.1483 52.0594 37.1259 52.2983 36.0257 52.0047C34.9045 51.7054 34.1272 50.9663 34.2895 50.3539C34.2933 50.3397 34.2975 50.3257 34.3022 50.3119C34.0014 50.1701 33.7087 50.0177 33.4251 49.8551C32.9816 50.2164 32.1463 50.0894 31.4661 49.5307C30.8099 48.9917 30.5178 48.2312 30.7363 47.7225C30.3929 47.3472 30.0818 46.9504 29.8063 46.535C29.2275 46.7004 28.541 46.2276 28.2442 45.4429C27.9713 44.7214 28.1194 43.9778 28.5667 43.6595C28.4636 43.1994 28.3997 42.7277 28.378 42.2466Z" fill="#7AC70C" class="fill-green" />
  <path d="M27.9242 42.4087C27.87 42.6038 27.6684 42.7179 27.474 42.6635C27.2795 42.6091 27.1658 42.4069 27.22 42.2117C27.2742 42.0166 27.4758 41.9025 27.6702 41.9569C27.8647 42.0113 27.9784 42.2136 27.9242 42.4087Z" fill="#FFCE00" class="fill-yellow" />
  <path d="M29.9955 42.5309C29.9413 42.7261 29.7397 42.8401 29.5453 42.7858C29.3508 42.7314 29.2371 42.5291 29.2913 42.334C29.3455 42.1389 29.5471 42.0248 29.7416 42.0792C29.936 42.1336 30.0497 42.3358 29.9955 42.5309Z" fill="#FFCE00" class="fill-yellow" />
  <path d="M31.3358 46.0763C31.2816 46.2714 31.08 46.3855 30.8855 46.3311C30.6911 46.2767 30.5774 46.0745 30.6316 45.8794C30.6858 45.6842 30.8874 45.5701 31.0818 45.6245C31.2763 45.6789 31.39 45.8812 31.3358 46.0763Z" fill="#FFCE00" class="fill-yellow" />
  <path d="M29.7518 47.1766C29.6976 47.3717 29.4961 47.4858 29.3016 47.4314C29.1071 47.377 28.9934 47.1748 29.0476 46.9796C29.1018 46.7845 29.3034 46.6704 29.4979 46.7248C29.6923 46.7792 29.806 46.9815 29.7518 47.1766Z" fill="#FFCE00" class="fill-yellow" />
  <path d="M33.6508 50.5997C33.5966 50.7948 33.395 50.9089 33.2006 50.8545C33.0061 50.8001 32.8924 50.5979 32.9466 50.4027C33.0008 50.2076 33.2024 50.0935 33.3968 50.1479C33.5913 50.2023 33.705 50.4046 33.6508 50.5997Z" fill="#FFCE00" class="fill-yellow" />
  <path d="M34.5037 48.8881C34.4495 49.0832 34.2479 49.1973 34.0534 49.1429C33.859 49.0886 33.7453 48.8863 33.7995 48.6912C33.8537 48.4961 34.0553 48.382 34.2497 48.4364C34.4442 48.4907 34.5579 48.693 34.5037 48.8881Z" fill="#FFCE00" class="fill-yellow" />
  <path d="M46.4442 49.0104C46.39 49.2055 46.1885 49.3196 45.994 49.2652C45.7995 49.2108 45.6858 49.0086 45.74 48.8134C45.7942 48.6183 45.9958 48.5042 46.1903 48.5586C46.3847 48.613 46.4984 48.8153 46.4442 49.0104Z" fill="#FFCE00" class="fill-yellow" />
  <path d="M47.5408 50.5997C47.4866 50.7948 47.285 50.9089 47.0906 50.8545C46.8961 50.8001 46.7824 50.5979 46.8366 50.4027C46.8908 50.2076 47.0924 50.0935 47.2868 50.1479C47.4813 50.2023 47.595 50.4046 47.5408 50.5997Z" fill="#FFCE00" class="fill-yellow" />
  <path d="M51.0742 47.5433C51.02 47.7385 50.8185 47.8525 50.624 47.7982C50.4295 47.7438 50.3158 47.5415 50.37 47.3464C50.4242 47.1513 50.6258 47.0372 50.8203 47.0916C51.0147 47.146 51.1284 47.3482 51.0742 47.5433Z" fill="#FFCE00" class="fill-yellow" />
  <path d="M49.4903 46.1985C49.4361 46.3937 49.2345 46.5078 49.04 46.4534C48.8456 46.399 48.7319 46.1967 48.7861 46.0016C48.8403 45.8065 49.0419 45.6924 49.2363 45.7468C49.4308 45.8012 49.5445 46.0034 49.4903 46.1985Z" fill="#FFCE00" class="fill-yellow" />
  <path d="M53.0237 42.8977C52.9695 43.0928 52.7679 43.2069 52.5735 43.1525C52.379 43.0981 52.2653 42.8959 52.3195 42.7008C52.3737 42.5056 52.5753 42.3915 52.7697 42.4459C52.9642 42.5003 53.0779 42.7026 53.0237 42.8977Z" fill="#FFCE00" class="fill-yellow" />
  <path d="M51.1961 42.5309C51.1419 42.7261 50.9403 42.8401 50.7458 42.7858C50.5514 42.7314 50.4377 42.5291 50.4919 42.334C50.5461 42.1389 50.7477 42.0248 50.9421 42.0792C51.1366 42.1336 51.2503 42.3358 51.1961 42.5309Z" fill="#FFCE00" class="fill-yellow" />
  <path d="M39.3498 52.7435C39.3498 52.7435 39.2464 52.6319 39.1087 52.5591C38.9708 52.4865 38.9245 52.508 38.9245 52.508L38.8607 52.4852L38.9815 52.1695L39.8893 51.2999L40.0298 50.4259L40.0633 50.425L40.5892 50.4194L40.5836 51.6125L40.7505 51.6882L41.7637 52.2975L41.7604 52.5628C41.7604 52.5628 41.7102 52.5807 41.6124 52.6194C41.5141 52.6587 41.4906 52.6875 41.4906 52.6875L41.1083 52.7235L40.4404 52.2379L40.1646 51.9471L39.6612 52.5938L39.3498 52.7434L39.3498 52.7435Z" fill="white" class="fill-white" />
  <path d="M40.0633 50.4247C40.0633 50.4247 40.0484 50.4708 40.0419 50.6052C40.035 50.7395 40.0507 51.4443 40.0164 51.5407C39.9822 51.637 39.4935 51.8392 39.2142 52.0832C38.9351 52.3281 38.9245 52.5077 38.9245 52.5077C38.9245 52.5077 38.8325 52.5148 38.6592 52.5795C38.4862 52.6439 38.4084 52.7411 38.4084 52.7411C38.4084 52.7411 38.511 52.3065 38.9631 51.9039C39.416 51.5006 39.6346 51.4667 39.685 51.399C39.7356 51.3319 39.685 50.5606 39.6959 50.4983C39.7062 50.4366 39.7605 50.431 39.7979 50.4255C39.8351 50.4201 40.0633 50.4247 40.0633 50.4247L40.0633 50.4247Z" fill="#7AC70C" class="fill-green" />
  <path d="M41.2177 53.0001C41.2177 53.0001 41.2889 52.8602 41.3347 52.8132C41.3802 52.7665 41.4904 52.6873 41.4904 52.6873C41.4904 52.6873 41.5076 52.6696 41.2602 52.5616C41.0128 52.4538 40.8856 52.4897 40.709 52.3641C40.5325 52.2384 40.3555 52.0225 40.3555 52.0225L40.1187 52.2344C40.1187 52.2344 40.2605 52.4359 40.3945 52.5653C40.5285 52.6945 40.8325 52.7378 40.9669 52.8132C41.1012 52.8889 41.2177 53.0001 41.2177 53.0001Z" fill="#7AC70C" class="fill-green" />
  <path d="M40.5069 50.4195C40.5069 50.4195 40.7747 50.4035 40.8119 50.4451C40.8489 50.4866 40.8435 50.5327 40.8451 50.5465C40.8461 50.5594 40.859 51.198 40.8119 51.4079C40.7621 51.6272 40.6491 51.8461 40.5854 51.9111C40.5216 51.9758 40.119 52.3285 39.928 52.5151C39.7372 52.702 39.5431 52.9684 39.5431 52.9684C39.5431 52.9684 39.4723 52.8892 39.4122 52.8134C39.3524 52.738 39.2917 52.7129 39.306 52.6627C39.3201 52.6125 39.5218 52.3102 39.8435 52.0981C40.1648 51.8859 40.4337 51.6451 40.4936 51.3001C40.5542 50.9547 40.5069 50.4195 40.5069 50.4195L40.5069 50.4195Z" fill="#D33131" class="fill-red" />
  <path d="M46.9374 45.71C44.0672 47.6114 41.9673 45.6682 37.0682 45.71C34.3071 45.7336 32.5146 43.9731 31.5317 42.4092" stroke="#1CB0F6" stroke-width="0.677588" stroke-linecap="round" class="stroke-blue" />
  <ellipse rx="1.77956" ry="1.14727" transform="matrix(0.966181 0.257866 -0.256248 0.966611 35.1826 45.1382)" fill="#1CB0F6" class="fill-blue" />
  <ellipse rx="1.77929" ry="1.37189" transform="matrix(0.989085 0.147349 -0.14638 0.989228 38.4723 45.8712)" fill="#1CB0F6" class="fill-blue" />
  <ellipse rx="1.98036" ry="1.52691" transform="matrix(0.989085 0.147349 -0.14638 0.989228 41.931 45.8618)" fill="#1CB0F6" class="fill-blue" />
  <ellipse rx="1.60498" ry="1.1489" transform="matrix(0.772734 0.63473 -0.632173 0.774827 32.5771 43.6453)" fill="#1CB0F6" class="fill-blue" />
  <ellipse rx="1.60416" ry="1.14949" transform="matrix(-0.865961 0.500111 -0.497586 -0.867415 45.6142 46.335)" fill="#1CB0F6" class="fill-blue" />
  <ellipse rx="0.736236" ry="0.52716" transform="matrix(-0.797368 0.603494 -0.600908 -0.799318 47.2319 45.5361)" fill="#D33131" class="fill-red" />
  <ellipse rx="0.304368" ry="0.327899" transform="matrix(-0.797367 0.603495 -0.600907 -0.799319 47.9862 44.9939)" fill="#FFCE00" class="fill-yellow" />
  <ellipse rx="0.737317" ry="0.526384" transform="matrix(0.447364 0.894352 -0.89314 0.449779 31.4348 42.2648)" fill="#D33131" class="fill-red" />
  <ellipse rx="0.304816" ry="0.327417" transform="matrix(0.447364 0.894352 -0.89314 0.449779 31.0392 41.4228)" fill="#FFCE00" class="fill-yellow" />
  <path d="M37.9622 42.4178C37.689 42.844 36.9253 42.8396 36.2564 42.408C35.5875 41.9764 35.2668 41.2809 35.54 40.8547C35.8132 40.4284 36.5769 40.4328 37.2458 40.8644C37.9147 41.2961 38.2354 41.9915 37.9622 42.4178Z" fill="#FFCE00" class="fill-yellow" />
  <path d="M35.0856 40.8644C35.2591 40.7476 35.4583 40.7059 35.6508 40.7265C35.8231 40.5761 36.0843 40.5157 36.3782 40.545C35.9715 40.5044 35.5777 40.5331 35.0856 40.8644Z" fill="#FFCE00" class="fill-yellow" />
  <path d="M34.4207 32.5526C34.7206 32.8721 34.6414 33.4356 34.2439 33.8113C34.098 33.9491 33.9295 34.0425 33.7598 34.0897C33.691 34.1088 33.6221 34.1204 33.5544 34.1242C33.4755 34.1287 33.3983 34.1227 33.325 34.1061C33.1934 34.0763 33.0744 34.0123 32.9811 33.9129C32.6813 33.5934 32.7604 33.0298 33.158 32.6542C33.5555 32.2786 34.1209 32.2331 34.4207 32.5526Z" fill="#7AC70C" class="fill-green" />
  <path d="M32.9737 34.3248C32.9762 34.3213 32.9786 34.3178 32.9811 34.3144C33.065 34.1988 33.1919 34.1265 33.325 34.1061C33.4017 34.0944 33.4805 34.0999 33.5544 34.1242C33.6205 34.1459 33.6826 34.1828 33.7359 34.2358C33.9032 34.4025 33.9287 34.6772 33.7844 34.8867C33.6232 35.1209 33.311 35.1849 33.0872 35.0297C32.8633 34.8746 32.8125 34.559 32.9737 34.3248Z" fill="#7AC70C" class="fill-green" />
  <path d="M33.9001 39.5541C34.0345 39.2839 34.3827 39.1846 34.6777 39.3324C34.9727 39.4802 35.1028 39.819 34.9684 40.0893C34.8339 40.3595 34.4858 40.4587 34.1908 40.311C33.8958 40.1632 33.7656 39.8243 33.9001 39.5541Z" fill="#7AC70C" class="fill-green" />
  <path d="M33.7376 38.476C33.4666 38.3447 33.3717 37.9787 33.5258 37.6586C33.5531 37.6017 33.5865 37.5501 33.6244 37.5045C33.7999 37.293 34.0726 37.2087 34.2955 37.3167C34.5666 37.448 34.6614 37.814 34.5074 38.1342C34.5036 38.142 34.4998 38.1497 34.4958 38.1573C34.3366 38.4616 34.0021 38.6042 33.7376 38.476Z" fill="#7AC70C" class="fill-green" />
  <path d="M33.2262 40.4346C33.4439 40.343 33.7075 40.4772 33.815 40.7343C33.9225 40.9914 33.8332 41.274 33.6155 41.3657C33.3978 41.4573 33.1342 41.3232 33.0267 41.0661C32.9192 40.809 33.0085 40.5263 33.2262 40.4346Z" fill="#7AC70C" class="fill-green" />
  <path d="M32.2521 39.1253C32.4858 39.0919 32.707 39.2886 32.7462 39.5646C32.7854 39.8406 32.6277 40.0914 32.394 40.1248C32.1603 40.1582 31.9391 39.9616 31.8999 39.6856C31.8941 39.6445 31.8926 39.6039 31.8951 39.5646C31.9093 39.3397 32.0532 39.1537 32.2521 39.1253Z" fill="#7AC70C" class="fill-green" />
  <path d="M32.5738 37.652C32.7536 37.6263 32.9251 37.7525 32.9923 37.9453C33.0034 37.9771 33.0117 38.0107 33.0166 38.0457C33.0267 38.1168 33.0222 38.1861 33.0057 38.2494C32.9649 38.4063 32.8502 38.5265 32.701 38.5478C32.4915 38.5778 32.2932 38.4015 32.2581 38.1541C32.223 37.9067 32.3643 37.6819 32.5738 37.652Z" fill="#7AC70C" class="fill-green" />
  <path d="M30.9528 37.2673C30.996 37.0594 31.2287 36.9324 31.4725 36.9834C31.7162 37.0345 31.8788 37.2443 31.8356 37.4521C31.8051 37.5986 31.6806 37.705 31.5243 37.7371C31.4589 37.7506 31.3879 37.7511 31.3159 37.736C31.0721 37.6849 30.9095 37.4751 30.9528 37.2673Z" fill="#7AC70C" class="fill-green" />
  <path d="M33.7598 34.0897C33.691 34.1088 33.6221 34.1204 33.5544 34.1242C33.6205 34.1459 33.6826 34.1828 33.7359 34.2358C33.6745 34.1747 33.674 34.1136 33.7598 34.0897Z" fill="#7AC70C" class="fill-green" />
  <path d="M33.325 34.1061C33.1934 34.0763 33.0744 34.0123 32.9811 33.9129C32.9729 34.0146 32.9696 34.2337 32.9811 34.3144C33.065 34.1988 33.1919 34.1265 33.325 34.1061Z" fill="#7AC70C" class="fill-green" />
  <path d="M35.1299 35.0793C35.0692 34.7816 35.2605 34.4911 35.5571 34.4304C35.7453 34.3919 35.9307 34.4551 36.0566 34.5826C36.1291 34.656 36.1819 34.7506 36.204 34.8594C36.2647 35.157 36.0735 35.4475 35.7769 35.5083C35.5693 35.5507 35.3652 35.4695 35.2405 35.3149C35.187 35.2485 35.1482 35.1687 35.1299 35.0793Z" fill="#7AC70C" class="fill-green" />
  <path d="M35.4942 36.1062C35.477 36.0219 35.4826 35.9381 35.5067 35.8615C35.5109 35.8482 35.5156 35.8351 35.5209 35.8223C35.5806 35.677 35.7089 35.5632 35.8739 35.5294C36.1375 35.4755 36.395 35.6462 36.449 35.9107C36.4768 36.0473 36.445 36.1822 36.3714 36.2882C36.3025 36.3875 36.1968 36.4614 36.0693 36.4875C35.8056 36.5415 35.5482 36.3708 35.4942 36.1062Z" fill="#7AC70C" class="fill-green" />
  <path d="M33.7844 34.8867C33.6232 35.1209 33.311 35.1849 33.0872 35.0297C33.5957 35.3822 34.9942 35.0094 35.2405 35.3149C35.187 35.2485 35.1482 35.1687 35.1299 35.0793C35.0692 34.7816 35.2605 34.4911 35.5571 34.4304C35.7453 34.3919 35.9307 34.4551 36.0566 34.5826C35.7141 34.2358 35.2405 34.1242 34.875 34.2358C34.502 34.3497 33.9128 34.412 33.7359 34.2358C33.9032 34.4025 33.9287 34.6772 33.7844 34.8867Z" fill="#7AC70C" class="fill-green" />
  <path d="M36.204 34.8594C36.2647 35.157 36.0735 35.4475 35.7769 35.5083C35.5693 35.5507 35.3652 35.4695 35.2405 35.3149C35.4104 35.5255 35.543 35.703 35.5209 35.8223C35.5806 35.677 35.7089 35.5632 35.8739 35.5294C36.1375 35.4755 36.395 35.6462 36.449 35.9107C36.4768 36.0473 36.445 36.1822 36.3714 36.2882C36.7354 35.764 36.575 35.1074 36.0566 34.5826C36.1291 34.656 36.1819 34.7506 36.204 34.8594Z" fill="#7AC70C" class="fill-green" />
  <path d="M33.6244 37.5045C33.7999 37.293 34.0726 37.2087 34.2955 37.3167C34.5666 37.448 34.6614 37.814 34.5074 38.1342C34.6614 37.814 35.8739 37.0048 36.3714 36.2882C36.3025 36.3875 36.1968 36.4614 36.0693 36.4875C35.8056 36.5415 35.5482 36.3708 35.4942 36.1062C35.477 36.0219 35.4826 35.9381 35.5067 35.8615C35.391 36.2292 34.0647 36.9405 33.6244 37.5045Z" fill="#7AC70C" class="fill-green" />
  <path d="M33.9001 39.5541C34.0345 39.2839 34.3827 39.1846 34.6777 39.3324C34.2422 39.1143 34.2934 38.5685 34.4958 38.1573C34.3366 38.4616 34.0021 38.6042 33.7376 38.476C33.4666 38.3447 33.3717 37.9787 33.5258 37.6586C33.1848 38.367 33.352 39.8908 34.1908 40.311C33.8958 40.1632 33.7656 39.8243 33.9001 39.5541Z" fill="#7AC70C" class="fill-green" />
  <path d="M35.7297 39.9995C35.7055 39.6959 35.9306 39.4417 36.2324 39.4319C36.3154 39.4292 36.3956 39.4452 36.4687 39.4762C36.6614 39.558 36.8052 39.7437 36.8227 39.9639C36.8469 40.2676 36.6218 40.5217 36.3199 40.5316C36.2233 40.5347 36.1305 40.5124 36.0482 40.4707C35.8735 40.3822 35.7461 40.206 35.7297 39.9995Z" fill="#7AC70C" class="fill-green" />
  <path d="M35.8517 41.2852C35.8402 41.1405 35.8796 41.006 35.9548 40.8986C35.9631 40.8867 35.9719 40.8752 35.981 40.864C36.0824 40.7404 36.2347 40.6602 36.4103 40.6544C36.5026 40.6514 36.5916 40.6693 36.6728 40.7037C36.887 40.7946 37.0467 41.001 37.0662 41.2456C37.0827 41.4525 36.9949 41.6388 36.8473 41.7544C36.7542 41.8273 36.6372 41.8721 36.5076 41.8763C36.1722 41.8873 35.8786 41.6226 35.8517 41.2852Z" fill="#7AC70C" class="fill-green" />
  <path d="M33.7141 41.5693C33.8879 41.5407 34.0683 41.5841 34.2183 41.677C34.3633 41.7667 34.4799 41.9028 34.5347 42.0649C34.6462 42.3948 34.4597 42.7078 34.1181 42.764C34.0183 42.7804 33.9163 42.7731 33.8191 42.7463C33.7477 42.7266 33.6789 42.6964 33.6155 42.6573C33.4698 42.5676 33.3525 42.4312 33.2975 42.2684C33.186 41.9386 33.3725 41.6256 33.7141 41.5693Z" fill="#7AC70C" class="fill-green" />
  <path d="M36.5076 41.8763C36.1722 41.8873 35.8786 41.6226 35.8517 41.2852C35.8402 41.1405 35.8796 41.006 35.9548 40.8986C35.6277 41.3657 34.5493 41.8819 34.2183 41.677C34.3633 41.7667 34.4799 41.9028 34.5347 42.0649C34.6462 42.3948 34.4597 42.7078 34.1181 42.764C34.0183 42.7804 33.9163 42.7731 33.8191 42.7463C34.7537 43.0193 36.5191 42.0113 36.8473 41.7544C36.7542 41.8273 36.6372 41.8721 36.5076 41.8763Z" fill="#7AC70C" class="fill-green" />
  <path d="M36.8227 39.9639C36.8469 40.2676 36.6218 40.5217 36.3199 40.5316C36.2233 40.5347 36.1305 40.5124 36.0482 40.4707C36.1561 40.5254 36.0612 40.7484 35.981 40.864C36.0824 40.7404 36.2347 40.6602 36.4103 40.6544C36.5026 40.6514 36.5916 40.6693 36.6728 40.7037C36.887 40.7946 37.0467 41.001 37.0662 41.2456C37.0231 40.7037 37.1479 39.7643 36.4687 39.4762C36.6614 39.558 36.8052 39.7437 36.8227 39.9639Z" fill="#7AC70C" class="fill-green" />
  <path d="M34.6777 39.3324C34.9727 39.4802 35.1028 39.819 34.9684 40.0893C34.8339 40.3595 34.4858 40.4587 34.1908 40.311C34.8437 40.6381 35.8517 40.3711 36.0482 40.4707C35.8735 40.3822 35.7461 40.206 35.7297 39.9995C35.7055 39.6959 35.9306 39.4417 36.2324 39.4319C35.7297 39.4483 35.3624 39.6754 34.6777 39.3324Z" fill="#7AC70C" class="fill-green" />
  <path d="M32.2581 38.1541C32.223 37.9067 32.3643 37.6819 32.5738 37.652C32.7536 37.6263 32.9251 37.7525 32.9923 37.9453C32.7859 37.3533 31.7317 37.0377 31.4725 36.9834C31.7162 37.0345 31.8788 37.2443 31.8356 37.4521C31.8051 37.5986 31.6806 37.705 31.5243 37.7371C31.7421 37.6923 32.2073 37.7962 32.2581 38.1541Z" fill="#7AC70C" class="fill-green" />
  <path d="M32.2521 39.1253C32.4858 39.0919 32.707 39.2886 32.7462 39.5646C32.6932 39.1909 32.9419 38.6175 33.0057 38.2494C32.9649 38.4063 32.8502 38.5265 32.701 38.5478C32.4915 38.5778 32.2932 38.4015 32.2581 38.1541C32.3093 38.5147 31.9423 38.8203 31.8951 39.5646C31.9093 39.3397 32.0532 39.1537 32.2521 39.1253Z" fill="#7AC70C" class="fill-green" />
  <path d="M33.2262 40.4346C33.4439 40.343 33.7075 40.4772 33.815 40.7343C33.6155 40.257 32.7881 39.8595 32.7462 39.5646C32.7854 39.8406 32.6277 40.0914 32.394 40.1248C32.1603 40.1582 31.9391 39.9616 31.8999 39.6856C31.9853 40.2874 32.8545 40.6541 33.0267 41.0661C32.9192 40.809 33.0085 40.5263 33.2262 40.4346Z" fill="#7AC70C" class="fill-green" />
  <path d="M33.815 40.7343C33.9225 40.9914 33.8332 41.274 33.6155 41.3657C33.3978 41.4573 33.1342 41.3232 33.0267 41.0661C33.1342 41.3232 33.1917 41.9555 33.2975 42.2684C33.186 41.9386 33.3725 41.6256 33.7141 41.5693C33.8879 41.5407 34.0683 41.5841 34.2183 41.677C33.9216 41.4933 33.9225 40.9914 33.815 40.7343Z" fill="#7AC70C" class="fill-green" />
  <ellipse rx="0.706957" ry="0.535517" transform="matrix(0.963049 0.269326 -0.267647 0.963517 31.44 37.347)" fill="#FFCE00" class="fill-yellow" />
  <ellipse rx="0.884664" ry="0.916995" transform="matrix(0.891011 -0.453982 0.451556 0.892243 35.59 41.6295)" fill="#FFCE00" class="fill-yellow" />
  <ellipse rx="1.3705" ry="0.886354" transform="matrix(0.999971 0.00760781 -0.00755669 0.999972 42.2893 45.0896)" fill="#FFCE00" class="fill-yellow" />
  <path d="M46.8417 32.876C47.7751 33.8516 48.4618 34.9112 48.8496 35.8866C49.0023 36.2706 49.1087 36.6416 49.1655 36.9892C49.2977 37.7981 49.1619 38.481 48.7179 38.9086C46.7324 40.821 43.2409 37.5167 41.8815 35.7054C41.8171 35.6196 41.7575 35.5371 41.703 35.4587C41.6382 35.3654 41.5757 35.272 41.5155 35.1787C40.9897 34.3635 40.64 33.5519 40.4934 32.8302C40.3147 31.9505 40.4377 31.2043 40.9111 30.7483C41.5194 30.1625 42.581 30.1761 43.7696 30.6722C44.7686 31.0891 45.8572 31.8469 46.8417 32.876Z" fill="#8F4620" class="fill-brown" />
  <path d="M39.3488 30.3159C39.8483 30.254 40.2931 30.5287 40.3424 30.9294C40.416 31.527 39.7021 31.8472 39.2005 31.7597C38.8468 31.698 38.5719 31.4635 38.5338 31.1535C38.4991 30.8717 38.6692 30.6027 38.9469 30.4463C39.0641 30.3802 39.2005 30.3342 39.3488 30.3159Z" fill="#8F4620" class="fill-brown" />
  <path d="M39.3488 30.3159C39.8483 30.254 40.2931 30.5287 40.3424 30.9294C40.416 31.527 39.7021 31.8472 39.2005 31.7597C39.7031 31.8474 40.314 31.9471 40.4934 32.8302C40.3147 31.9505 40.4377 31.2043 40.9111 30.7483C41.5194 30.1625 42.581 30.1761 43.7696 30.6722C42.5809 30.176 40.4497 29.5661 38.9469 30.4463C39.0641 30.3802 39.2005 30.3342 39.3488 30.3159Z" fill="#8F4620" class="fill-brown" />
  <path d="M49.1655 36.9892C49.2977 37.7981 49.1619 38.481 48.7179 38.9086C46.7324 40.821 43.2409 37.5167 41.8815 35.7054C42.2351 36.179 42.7986 36.8659 43.456 37.6419C43.459 37.6454 43.462 37.6489 43.465 37.6525C45.6456 40.2262 48.8496 43.7719 48.8496 43.7719C49.6259 41.1359 49.5008 38.5893 49.1655 36.9892Z" fill="#8F4620" class="fill-brown" />
  <path d="M42.3198 36.9429C42.5709 37.5029 42.6769 38.0861 42.6534 38.6395C42.6061 39.7564 42.0319 40.7522 41.0599 41.191C40.4274 41.4765 39.7308 41.4792 39.0832 41.2519C38.4953 41.0456 37.9478 40.6499 37.5253 40.1043C37.3434 39.8694 37.1846 39.6067 37.0558 39.3194C36.6456 38.4047 36.6227 37.4279 36.9186 36.6201C36.9282 36.5939 36.9381 36.5678 36.9484 36.5419C37.2063 35.8928 37.6745 35.3608 38.3157 35.0713C39.2657 34.6425 40.3604 34.8517 41.2165 35.5198C41.235 35.5343 41.2535 35.549 41.2718 35.5639C41.7018 35.9138 42.068 36.3813 42.3198 36.9429Z" fill="#8F4620" class="fill-brown" />
  <path d="M36.6888 32.111C37.0728 31.9596 37.4574 31.8921 37.7993 31.9008C38.2511 31.8844 38.7886 32.1262 38.9363 32.5035C39.1759 33.1152 38.2527 33.9023 37.251 34.2973C36.2493 34.6922 35.5484 34.5454 35.3088 33.9337C35.0693 33.322 35.6871 32.5059 36.6888 32.111Z" fill="#8F4620" class="fill-brown" />
  <path d="M38.9363 32.5035C39.1759 33.1152 38.2527 33.9023 37.251 34.2973C38.2173 33.9163 37.2453 35.7893 36.9484 36.5419C37.2063 35.8928 37.6745 35.3608 38.3157 35.0713C39.2657 34.6425 40.3604 34.8517 41.2165 35.5198C40.358 34.8474 40.8454 33.4415 39.9925 32.6469C39.3101 32.0111 38.246 31.8846 37.7993 31.9008C38.2511 31.8844 38.7886 32.1262 38.9363 32.5035Z" fill="#8F4620" class="fill-brown" />
  <path d="M43.3073 40.0075C43.3325 40.1427 43.3482 40.2771 43.3549 40.41C43.4808 42.915 40.4079 43.9582 39.2412 41.6325C39.2163 41.5829 39.1927 41.5323 39.1705 41.4806C39.1385 41.4064 39.1093 41.3301 39.0832 41.2519C39.0396 41.1217 39.0043 40.9863 38.9782 40.8464C38.8372 40.0892 38.9946 39.3547 39.3582 38.8034C39.37 38.7855 39.382 38.7678 39.3943 38.7502C39.7015 38.3108 40.1437 37.9964 40.671 37.8942C41.4083 37.7514 42.1399 38.0565 42.6534 38.6395C42.684 38.6743 42.7138 38.71 42.7428 38.7466C42.8286 38.8551 42.9073 38.9719 42.9776 39.0961C43.1314 39.3678 43.2454 39.6748 43.3073 40.0075Z" fill="#8F4620" class="fill-brown" />
  <path d="M47.7904 43.7719L43.3549 40.41C43.4808 42.915 40.4079 43.9582 39.2412 41.6325C40.4065 43.9553 42.2344 44.7011 42.673 44.5055C43.1116 44.3098 43.0994 43.6497 43.0385 43.344L43.9523 44.4443C46.2917 44.9333 47.4858 44.1998 47.7904 43.7719Z" fill="#8F4620" class="fill-brown" />
  <path d="M39.8706 42.366C39.8706 42.9062 39.3251 43.344 38.6522 43.344C37.9793 43.344 37.4338 42.9062 37.4338 42.366C37.4338 42.0246 37.6517 41.724 37.9821 41.5491C38.1743 41.4473 38.4046 41.388 38.6522 41.388C38.8375 41.388 39.0132 41.4212 39.1705 41.4806C39.5842 41.637 39.8706 41.9746 39.8706 42.366Z" fill="#8F4620" class="fill-brown" />
  <path d="M39.1705 41.4806C39.1385 41.4064 39.1093 41.3301 39.0832 41.2519C38.4953 41.0456 37.9478 40.6499 37.5253 40.1043C38.2827 41.0824 38.3476 41.3555 37.9821 41.5491C38.1743 41.4473 38.4046 41.388 38.6522 41.388C38.8375 41.388 39.0132 41.4212 39.1705 41.4806Z" fill="#8F4620" class="fill-brown" />
  <path d="M41.8815 35.7054C41.8171 35.6196 41.7575 35.5371 41.703 35.4587C41.6382 35.3654 41.5757 35.272 41.5155 35.1787C41.8144 35.6421 41.8187 36.0088 41.2718 35.5639C41.7018 35.9138 42.068 36.3813 42.3198 36.9429C42.5709 37.5029 42.6769 38.0861 42.6534 38.6395C42.684 38.6743 42.7138 38.71 42.7428 38.7466C42.8286 38.8551 42.9073 38.9719 42.9776 39.0961C42.5531 38.3464 42.8149 36.8933 43.456 37.6419C42.7986 36.8659 42.2351 36.179 41.8815 35.7054Z" fill="#8F4620" class="fill-brown" />
  <path d="M36.0838 32.9526C36.269 33.0798 36.3177 33.3438 36.1812 33.5297C36.0545 33.7155 35.7913 33.7644 35.6061 33.6275" fill="#FFCE00" class="fill-yellow" />
  <path fill-rule="evenodd" clip-rule="evenodd" d="M34.62 34.294C34.3119 34.5768 34.3003 35.0672 34.5941 35.3895C34.8301 35.6485 35.1915 35.7201 35.4843 35.5916C35.3015 35.5242 34.9604 35.2995 35.0578 34.9391C35.1553 34.5788 35.6383 34.5063 35.8502 34.5135C35.821 34.4627 35.751 34.411 35.7098 34.3657C35.416 34.0434 34.9281 34.0113 34.62 34.294Z" fill="#FFCE00" class="fill-yellow" />
  <path d="M35.8577 34.585C35.7997 34.3397 36.0819 34.0623 36.4882 33.9656C36.8944 33.8688 37.2707 33.9893 37.3288 34.2347C37.3583 34.3595 37.2997 34.4927 37.1814 34.6062C37.0673 34.7155 36.8978 34.8066 36.6983 34.8541C36.6458 34.8666 36.5939 34.8754 36.543 34.8809C36.2002 34.9176 35.9083 34.7986 35.8577 34.585Z" fill="#FFCE00" class="fill-yellow" />
  <path d="M34.62 34.294C34.9281 34.0113 35.416 34.0434 35.7098 34.3657C35.751 34.411 35.821 34.4627 35.8502 34.5135C35.8551 34.288 36.121 34.053 36.4882 33.9656C36.0819 34.0623 35.7952 33.9062 35.5452 33.8084C35.2952 33.7106 34.9281 34.0113 34.62 34.294Z" fill="#FFCE00" class="fill-yellow" />
</svg>