<svg viewBox="0 0 80 80" fill="none">
  <path fill-rule="evenodd" clip-rule="evenodd" d="M46.7939 19.1662L57.8099 11.1626L71.1247 20.8364L66.9169 33.7864L46.7939 19.1662ZM33.0138 19.0309L13.0059 33.5675L8.86938 20.8365L22.1842 11.1628L33.0138 19.0309Z" fill="currentColor" />
  <path fill-rule="evenodd" clip-rule="evenodd" d="M23.6664 57.2331L14.3983 66.5015C13.6172 67.2826 13.6172 68.5489 14.3983 69.33C15.1794 70.111 16.4457 70.111 17.2267 69.3299L25.0537 61.5027L23.6664 57.2331ZM54.5717 61.5025L62.3983 69.3291C63.1793 70.1101 64.4457 70.1101 65.2267 69.3291C66.0078 68.548 66.0078 67.2817 65.2267 66.5006L55.959 57.2329L54.5717 61.5025Z" fill="currentColor" />
  <path opacity="0.25" d="M39.8125 20.0942L62.6379 36.6778L53.9193 63.5106H25.7057L16.9871 36.6778L39.8125 20.0942Z" fill="currentColor" />
  <path d="M26.1886 36.1413L25.0131 34.5231L22.5218 36.3328L25.1881 37.8731L26.1886 36.1413ZM26.1928 36.1382L27.1923 34.4059L26.0678 33.757L25.0174 34.52L26.1928 36.1382ZM28.0892 37.2325L29.2648 38.8505L31.7571 37.0398L29.0888 35.5002L28.0892 37.2325ZM28.084 37.2363L27.0836 38.9681L28.2085 39.6179L29.2596 38.8543L28.084 37.2363ZM24.5089 43.9153L22.6069 44.5335L23.0558 45.915L24.5084 45.9153L24.5089 43.9153ZM24.5073 43.9104L24.5068 41.9104L21.7546 41.9111L22.6053 44.5285L24.5073 43.9104ZM26.6101 43.9098L28.5122 43.2918L28.0631 41.9094L26.6096 41.9098L26.6101 43.9098ZM26.612 43.9159L26.6115 45.9159L29.3649 45.9166L28.5142 43.2979L26.612 43.9159ZM26.9014 51.2786L24.9993 51.8966L25.7622 54.245L27.901 53.0109L26.9014 51.2786ZM26.8998 51.2736L25.8993 49.5418L24.4974 50.3517L24.9976 51.8915L26.8998 51.2736ZM28.6704 50.2507L30.5725 49.6327L29.8091 47.2831L27.6699 48.5189L28.6704 50.2507ZM28.6723 50.2568L29.6719 51.9891L31.075 51.1795L30.5745 49.6388L28.6723 50.2568ZM31.2676 58.4428V60.4428H32.422L32.9994 59.4432L31.2676 58.4428ZM31.2629 58.4428L29.5306 57.4432L27.7998 60.4428H31.2629V58.4428ZM32.4169 56.4428V54.4428H31.2618L30.6846 55.4432L32.4169 56.4428ZM32.423 56.4428L34.1548 57.4432L35.8882 54.4428H32.423V56.4428ZM39.6567 58.4428V60.4428H41.6562L41.6567 58.4433L39.6567 58.4428ZM39.6515 58.4428L37.6515 58.4433L37.652 60.4428H39.6515V58.4428ZM39.6509 56.4428V54.4428H37.6504L37.6509 56.4433L39.6509 56.4428ZM39.6573 56.4428L41.6573 56.4433L41.6578 54.4428H39.6573V56.4428ZM48.0453 58.4428L48.0453 60.4428H51.5084L49.7776 57.4432L48.0453 58.4428ZM48.0406 58.4428L46.3088 59.4432L46.8862 60.4428H48.0406L48.0406 58.4428ZM46.8852 56.4428V54.4428H43.42L45.1534 57.4432L46.8852 56.4428ZM46.8913 56.4428L48.6236 55.4432L48.0464 54.4428H46.8913V56.4428ZM52.4086 51.2736L54.3108 51.8914L54.8108 50.3517L53.409 49.5419L52.4086 51.2736ZM52.4069 51.2787L51.4074 53.011L53.5463 54.2452L54.3091 51.8965L52.4069 51.2787ZM50.636 50.2569L48.7339 49.6388L48.2332 51.1795L49.6365 51.9892L50.636 50.2569ZM50.638 50.2508L51.6384 48.519L49.4994 47.2833L48.7359 49.6327L50.638 50.2508ZM54.8011 43.9104L56.703 44.5288L57.5542 41.9111L54.8016 41.9104L54.8011 43.9104ZM54.7994 43.9153L54.8 45.9153L56.2523 45.915L56.7014 44.5338L54.7994 43.9153ZM52.6963 43.9159L50.7942 43.298L49.9435 45.9166L52.6968 45.9159L52.6963 43.9159ZM52.6983 43.9098L52.6988 41.9098L51.2452 41.9094L50.7961 43.2919L52.6983 43.9098ZM53.1155 36.1381L54.2909 34.52L53.2405 33.757L52.116 34.4058L53.1155 36.1381ZM53.1197 36.1412L54.1202 37.873L56.7864 36.3327L54.2952 34.5231L53.1197 36.1412ZM51.2243 37.2362L50.0487 38.8542L51.0998 39.6179L52.2247 38.968L51.2243 37.2362ZM51.219 37.2324L50.2195 35.5001L47.5512 37.0397L50.0435 38.8504L51.219 37.2324ZM46.7922 31.5439L47.9676 29.9258L46.1711 28.6208L45.0604 30.5435L46.7922 31.5439ZM46.7966 31.5472L48.5289 32.5467L49.4287 30.9872L47.972 29.929L46.7966 31.5472ZM45.7915 33.2891L44.6162 34.9073L46.4136 36.2127L47.5238 34.2886L45.7915 33.2891ZM45.7862 33.2852L44.0544 32.2848L43.1532 33.8448L44.611 34.9035L45.7862 33.2852ZM39.6542 26.3579L40.8296 24.7398L39.6542 23.8859L38.4787 24.7398L39.6542 26.3579ZM39.656 26.3592L41.656 26.3587L41.6557 25.3398L40.8314 24.7411L39.656 26.3592ZM39.6522 26.3593L38.4768 24.7412L37.6525 25.34L37.6522 26.3588L39.6522 26.3593ZM39.6516 28.8319L37.6516 28.8314L37.6506 32.7582L40.8273 30.4499L39.6516 28.8319ZM39.6542 28.83L40.8298 27.2121L39.6542 26.3578L38.4785 27.2121L39.6542 28.83ZM39.6566 28.8318L38.481 30.4498L41.6576 32.758L41.6566 28.8313L39.6566 28.8318ZM32.5161 31.544L34.2479 30.5436L33.137 28.6207L31.3405 29.9261L32.5161 31.544ZM33.522 33.2853L34.6975 34.9034L36.1549 33.8447L35.2538 32.2849L33.522 33.2853ZM32.5117 31.5472L31.336 29.9293L29.8796 30.9875L30.7794 32.5468L32.5117 31.5472ZM33.5168 33.2891L31.7845 34.2887L32.8948 36.213L34.6923 34.9072L33.5168 33.2891ZM27.364 37.7594L27.3682 37.7563L25.0174 34.52L25.0131 34.5231L27.364 37.7594ZM25.1932 37.8705L27.0897 38.9648L29.0888 35.5002L27.1923 34.4059L25.1932 37.8705ZM26.9137 35.6144L26.9085 35.6182L29.2596 38.8543L29.2648 38.8505L26.9137 35.6144ZM29.0845 35.5045L27.189 34.4095L25.1881 37.8731L27.0836 38.9681L29.0845 35.5045ZM26.411 43.2972L26.4094 43.2922L22.6053 44.5285L22.6069 44.5335L26.411 43.2972ZM24.5078 45.9104L26.6106 45.9098L26.6096 41.9098L24.5068 41.9104L24.5078 45.9104ZM24.7079 44.5278L24.7099 44.5338L28.5142 43.2979L28.5122 43.2918L24.7079 44.5278ZM26.6126 41.9159L24.5095 41.9153L24.5084 45.9153L26.6115 45.9159L26.6126 41.9159ZM28.8036 50.6607L28.8019 50.6556L24.9976 51.8915L24.9993 51.8966L28.8036 50.6607ZM27.9002 53.0054L29.6708 51.9825L27.6699 48.5189L25.8993 49.5418L27.9002 53.0054ZM26.7682 50.8687L26.7702 50.8748L30.5745 49.6388L30.5725 49.6327L26.7682 50.8687ZM27.6728 48.5245L25.9019 49.5463L27.901 53.0109L29.6719 51.9891L27.6728 48.5245ZM31.2676 56.4428H31.2629L31.2629 60.4428H31.2676L31.2676 56.4428ZM32.9952 59.4423L34.1492 57.4423L30.6846 55.4432L29.5306 57.4432L32.9952 59.4423ZM32.4169 58.4428H32.423V54.4428H32.4169V58.4428ZM30.6912 55.4423L29.5358 57.4423L32.9994 59.4432L34.1548 57.4432L30.6912 55.4423ZM39.6567 56.4428H39.6515V60.4428H39.6567V56.4428ZM41.6515 58.4422L41.6509 56.4422L37.6509 56.4433L37.6515 58.4433L41.6515 58.4422ZM39.6509 58.4428H39.6573V54.4428H39.6509V58.4428ZM37.6573 56.4422L37.6567 58.4422L41.6567 58.4433L41.6573 56.4433L37.6573 56.4422ZM48.0453 56.4428H48.0406L48.0406 60.4428H48.0453L48.0453 56.4428ZM49.7724 57.4423L48.617 55.4423L45.1534 57.4432L46.3088 59.4432L49.7724 57.4423ZM46.8852 58.4428H46.8913V54.4428H46.8852V58.4428ZM45.159 57.4423L46.313 59.4423L49.7776 57.4432L48.6236 55.4432L45.159 57.4423ZM50.5064 50.6559L50.5047 50.6609L54.3091 51.8965L54.3108 51.8914L50.5064 50.6559ZM53.4065 49.5464L51.6356 48.5246L49.6365 51.9892L51.4074 53.011L53.4065 49.5464ZM52.5381 50.875L52.5401 50.8689L48.7359 49.6327L48.7339 49.6388L52.5381 50.875ZM49.6375 51.9826L51.4081 53.0054L53.409 49.5419L51.6384 48.519L49.6375 51.9826ZM52.8991 43.2919L52.8975 43.2969L56.7014 44.5338L56.703 44.5288L52.8991 43.2919ZM54.7989 41.9153L52.6958 41.9159L52.6968 45.9159L54.8 45.9153L54.7989 41.9153ZM54.5985 44.5338L54.6005 44.5277L50.7961 43.2919L50.7942 43.298L54.5985 44.5338ZM52.6978 45.9098L54.8005 45.9104L54.8016 41.9104L52.6988 41.9098L52.6978 45.9098ZM51.9401 37.7563L51.9443 37.7593L54.2952 34.5231L54.2909 34.52L51.9401 37.7563ZM52.1193 34.4094L50.2238 35.5044L52.2247 38.968L54.1202 37.873L52.1193 34.4094ZM52.3999 35.6182L52.3946 35.6144L50.0435 38.8504L50.0487 38.8542L52.3999 35.6182ZM52.2186 38.9647L54.1151 37.8704L52.116 34.4058L50.2195 35.5001L52.2186 38.9647ZM45.6167 33.1621L45.6211 33.1653L47.972 29.929L47.9676 29.9258L45.6167 33.1621ZM45.0643 30.5476L44.0592 32.2895L47.5238 34.2886L48.5289 32.5467L45.0643 30.5476ZM46.9668 31.6708L46.9615 31.667L44.611 34.9035L44.6162 34.9073L46.9668 31.6708ZM47.518 34.2857L48.5239 32.5444L45.0604 30.5435L44.0544 32.2848L47.518 34.2857ZM38.4788 27.9761L38.4805 27.9773L40.8314 24.7411L40.8296 24.7398L38.4788 27.9761ZM40.8277 27.9775L40.8296 27.976L38.4787 24.7398L38.4768 24.7412L40.8277 27.9775ZM41.6516 28.8324L41.6522 26.3598L37.6522 26.3588L37.6516 28.8314L41.6516 28.8324ZM38.4785 27.2121L38.4759 27.214L40.8273 30.4499L40.8299 30.448L38.4785 27.2121ZM40.8323 27.2138L40.8298 27.2121L38.4785 30.448L38.481 30.4498L40.8323 27.2138ZM37.656 26.3597L37.6566 28.8323L41.6566 28.8313L41.656 26.3587L37.656 26.3597ZM30.7843 32.5445L31.7902 34.2858L35.2538 32.2849L34.2479 30.5436L30.7843 32.5445ZM33.6873 33.1652L33.6917 33.162L31.3405 29.9261L31.336 29.9293L33.6873 33.1652ZM35.2491 32.2896L34.244 30.5477L30.7794 32.5468L31.7845 34.2887L35.2491 32.2896ZM32.3465 31.6672L32.3413 31.6711L34.6923 34.9072L34.6975 34.9034L32.3465 31.6672Z" fill="currentColor" />
  <path d="M36.8132 41.0944V39.0944H34.8132V41.0944H36.8132ZM42.8132 41.0944H44.8132V39.0944H42.8132V41.0944ZM36.8132 47.0944H34.8132V49.0944H36.8132V47.0944ZM42.8132 47.0944V49.0944H44.8132V47.0944H42.8132ZM48.0862 36.5742L49.3015 34.9858L46.1247 32.5552L44.9094 34.1436L48.0862 36.5742ZM40.5212 39.8791L39.3059 41.4675L42.4827 43.8981L43.698 42.3097L40.5212 39.8791ZM52.7312 53.7418L54.4696 54.7307L56.4475 51.254L54.7091 50.265L52.7312 53.7418ZM43.8022 44.0602L42.0638 43.0713L40.0859 46.5481L41.8243 47.537L43.8022 44.0602ZM36.8132 43.0944H42.8132V39.0944H36.8132V43.0944ZM38.8132 47.0944V41.0944H34.8132V47.0944H38.8132ZM42.8132 45.0944H36.8132V49.0944H42.8132V45.0944ZM40.8132 41.0944V47.0944H44.8132V41.0944H40.8132ZM44.9094 34.1436L40.5212 39.8791L43.698 42.3097L48.0862 36.5742L44.9094 34.1436ZM54.7091 50.265L43.8022 44.0602L41.8243 47.537L52.7312 53.7418L54.7091 50.265Z" fill="currentColor" />
</svg>