<svg viewBox="0 0 80 80" fill="none">
  <path opacity="0.25" d="M16 50H14L14 54H16V50ZM18.1005 54H20.1005V50H18.1005V54ZM37.8995 50H35.8995V54H37.8995V50ZM64 54H66V50H64V54ZM16 26H14V30H16V26ZM42.1005 30L44.1005 30V26L42.1005 26V30ZM61.8995 26H59.8995V30H61.8995V26ZM64 30H66V26H64V30ZM16 37.9648H14V41.9648H16V37.9648ZM30.1357 41.9648H32.1357V37.9648H30.1357V41.9648ZM49.9347 37.9648L47.9347 37.9648V41.9648L49.9347 41.9648L49.9347 37.9648ZM64 41.9648H66V37.9648H64L64 41.9648ZM25.9347 61.9648H23.9347V65.9648H25.9347V61.9648ZM64 65.9648H66V61.9648H64V65.9648ZM16 13.9648H14V17.9648H16V13.9648ZM54.1357 17.9648H56.1357V13.9648H54.1357V17.9648ZM16 54H18.1005V50H16V54ZM37.8995 54L64 54V50L37.8995 50V54ZM16 30L42.1005 30V26L16 26V30ZM61.8995 30H64V26H61.8995V30ZM16 41.9648H30.1357V37.9648H16V41.9648ZM49.9347 41.9648H64L64 37.9648H49.9347L49.9347 41.9648ZM25.9347 65.9648H64V61.9648L25.9347 61.9648V65.9648ZM16 17.9648L54.1357 17.9648V13.9648L16 13.9648V17.9648Z" fill="currentColor" />
  <path d="M12 68L68 12" stroke="currentColor" stroke-width="4" stroke-linecap="square" />
</svg>