<svg viewBox="0 0 80 80" fill="none">
  <path d="M55.2689 59.5824L27.6614 31.9748L27.6934 20.6201L38.9751 20.6611L41.9517 23.6378L42.2758 23.9619" stroke="currentColor" stroke-width="4" stroke-linecap="square" />
  <path d="M40.3488 62.3281L41.3488 64.0602L40.3488 64.6375L39.3488 64.0602L40.3488 62.3281ZM55.9373 53.3281H57.9373V54.4828L56.9373 55.0602L55.9373 53.3281ZM53.9373 35.7368V33.7368H57.9373V35.7368H53.9373ZM24.7604 35.3281H22.7604V34.1734L23.7604 33.5961L24.7604 35.3281ZM24.7604 53.3281L23.7604 55.0602L22.7604 54.4828V53.3281H24.7604ZM27.8359 31.2431L29.5679 30.2431L31.5679 33.7072L29.8359 34.7072L27.8359 31.2431ZM39.3488 60.5961L54.9373 51.5961L56.9373 55.0602L41.3488 64.0602L39.3488 60.5961ZM53.9373 53.3281V35.7368H57.9373V53.3281H53.9373ZM26.7604 35.3281V53.3281H22.7604V35.3281H26.7604ZM25.7604 51.5961L41.3488 60.5961L39.3488 64.0602L23.7604 55.0602L25.7604 51.5961ZM29.8359 34.7072L25.7604 37.0602L23.7604 33.5961L27.8359 31.2431L29.8359 34.7072Z" fill="currentColor" />
</svg>