<svg viewBox="0 0 80 80" fill="none">
  <path opacity="0.25" d="M20 64.334H60C62.2091 64.334 64 62.5431 64 60.334L64 20.334C64 18.1248 62.2091 16.334 60 16.334L20 16.334C17.7909 16.334 16 18.1248 16 20.334L16 60.334C16 62.5431 17.7909 64.334 20 64.334Z" fill="currentColor" />
  <path opacity="0.5" d="M62.8991 20.2628L64.3133 18.8486L61.4849 16.0202L60.0706 17.4344L62.8991 20.2628ZM34.6146 42.8905L33.2004 44.3047L36.0288 47.1331L37.443 45.7189L34.6146 42.8905ZM60.0706 17.4344L34.6146 42.8905L37.443 45.7189L62.8991 20.2628L60.0706 17.4344Z" fill="currentColor" />
  <path d="M69.9716 27.3348L53.001 10.3642L57.2437 10.3642L69.9716 10.3642V23.0921L69.9716 27.3348Z" fill="currentColor" stroke="currentColor" stroke-width="4" stroke-linecap="square" />
</svg>