<svg viewBox="0 0 80 80" fill="none">
  <rect opacity="0.25" x="4" y="24" width="72" height="32" fill="currentColor" />
  <rect opacity="0.25" x="24" y="24" width="32" height="32" fill="currentColor" />
  <path fill-rule="evenodd" clip-rule="evenodd" d="M36 32H32V36H36V32ZM48 32H44V36H48V32ZM44 44H48V48H44V44ZM36 44H32V48H36V44Z" fill="currentColor" />
  <path d="M32 32V30H30V32H32ZM36 32H38V30H36V32ZM32 36H30V38H32V36ZM36 36V38H38V36H36ZM44 32V30H42V32H44ZM48 32H50V30H48V32ZM44 36H42V38H44V36ZM48 36V38H50V36H48ZM48 44H50V42H48V44ZM44 44V42H42V44H44ZM48 48V50H50V48H48ZM44 48H42V50H44V48ZM32 44V42H30V44H32ZM36 44H38V42H36V44ZM32 48H30V50H32V48ZM36 48V50H38V48H36ZM32 34H36V30H32V34ZM34 36V32H30V36H34ZM36 34H32V38H36V34ZM34 32V36H38V32H34ZM44 34H48V30H44V34ZM46 36V32H42V36H46ZM48 34H44V38H48V34ZM46 32V36H50V32H46ZM48 42H44V46H48V42ZM50 48V44H46V48H50ZM44 50H48V46H44V50ZM42 44V48H46V44H42ZM32 46H36V42H32V46ZM34 48V44H30V48H34ZM36 46H32V50H36V46ZM34 44V48H38V44H34Z" fill="currentColor" />
</svg>