<svg viewBox="0 0 80 80" fill="none">
  <path opacity="0.25" d="M58 16H60V14H58V16ZM22 16V14H20V16H22ZM58 22H56V24H58V22ZM64 22H66V20H64V22ZM64 58V60H66V58H64ZM58 58V56H56V58H58ZM58 64V66H60V64H58ZM22 64H20V66H22V64ZM22 58H24V56H22V58ZM16 58H14V60H16V58ZM16 22L16 20H14V22H16ZM22 22V24H24V22H22ZM58 14L22 14V18L58 18V14ZM60 22V16H56V22H60ZM64 20H58V24H64V20ZM66 58V22H62L62 58H66ZM58 60H64V56H58V60ZM60 64V58H56V64H60ZM22 66H58V62L22 62V66ZM20 58V64H24V58H20ZM16 60H22V56H16V60ZM14 22L14 58H18L18 22H14ZM22 20H16L16 24H22V20ZM20 16V22H24V16H20Z" fill="currentColor" />
  <rect x="10" y="10" width="12" height="12" fill="currentColor" stroke="currentColor" stroke-width="4" stroke-linecap="square" />
  <rect x="10" y="58" width="12" height="12" fill="currentColor" stroke="currentColor" stroke-width="4" stroke-linecap="square" />
  <rect x="58" y="10" width="12" height="12" fill="currentColor" stroke="currentColor" stroke-width="4" stroke-linecap="square" />
  <rect x="58" y="58" width="12" height="12" fill="currentColor" stroke="currentColor" stroke-width="4" stroke-linecap="square" />
</svg>