<svg viewBox="0 0 80 80" fill="none">
  <g opacity="0.25">
    <path fill-rule="evenodd" clip-rule="evenodd" d="M61 12L26 12V19L54 19L54 55.5487L61 61.1487L61 12Z" fill="currentColor" />
    <path d="M26 12V10H24V12H26ZM61 12H63V10H61V12ZM26 19H24V21H26V19ZM54 19H56V17H54V19ZM54 55.5487H52V56.5099L52.7506 57.1104L54 55.5487ZM61 61.1487L59.7506 62.7104L63 65.3099V61.1487H61ZM26 14L61 14V10L26 10V14ZM28 19V12H24V19H28ZM26 21L54 21V17L26 17V21ZM52 19L52 55.5487H56L56 19H52ZM62.2494 59.5869L55.2494 53.9869L52.7506 57.1104L59.7506 62.7104L62.2494 59.5869ZM59 12L59 61.1487H63L63 12H59Z" fill="currentColor" />
  </g>
  <path fill-rule="evenodd" clip-rule="evenodd" d="M19 19L54 19L54 68.1487L36.5 54.1487L19 68.1487L19 19Z" fill="currentColor" />
  <path d="M54 19H56V17H54V19ZM19 19V17H17V19H19ZM54 68.1487L52.7506 69.7104L56 72.3099V68.1487H54ZM36.5 54.1487L37.7494 52.5869L36.5 51.5874L35.2506 52.5869L36.5 54.1487ZM19 68.1487H17L17 72.3099L20.2494 69.7104L19 68.1487ZM54 17L19 17V21L54 21V17ZM56 68.1487L56 19L52 19L52 68.1487L56 68.1487ZM35.2506 55.7104L52.7506 69.7104L55.2494 66.5869L37.7494 52.5869L35.2506 55.7104ZM20.2494 69.7104L37.7494 55.7104L35.2506 52.5869L17.7506 66.5869L20.2494 69.7104ZM17 19L17 68.1487H21L21 19H17Z" fill="currentColor" />
</svg>