<svg viewBox="0 0 80 80" fill="none">
  <path opacity="0.25" fill-rule="evenodd" clip-rule="evenodd" d="M16 11L63.0204 11H64L64 56.75V57L22 57H16L16 11Z" fill="currentColor" />
  <path fill-rule="evenodd" clip-rule="evenodd" d="M16 69L16 57L62 57V68.9H64V69H63.75H63.5H16Z" fill="currentColor" />
  <path d="M39.5437 19.6699L51.6681 26.6699V40.6699L39.5437 47.6699L27.4193 40.6699L27.4193 26.6699L39.5437 19.6699Z" stroke="currentColor" stroke-width="4" stroke-linecap="square" />
  <path d="M39.8963 47.4664L40.8963 49.1985L41.4842 48.859L41.744 48.2318L39.8963 47.4664ZM45.6104 33.6713L47.4581 34.4367L47.7752 33.6713L47.4581 32.9059L45.6104 33.6713ZM39.5438 47.6699L38.5438 49.402L39.5438 49.9793L40.5438 49.402L39.5438 47.6699ZM39.1919 47.4668L37.3441 48.2321L37.6039 48.8594L38.1919 49.1988L39.1919 47.4668ZM33.4771 33.6699L31.6293 32.9046L31.3123 33.6699L31.6293 34.4353L33.4771 33.6699ZM39.1919 19.8731L38.1919 18.141L37.6039 18.4805L37.3441 19.1077L39.1919 19.8731ZM39.5438 19.6699L40.5438 17.9379L39.5438 17.3605L38.5438 17.9379L39.5438 19.6699ZM39.8948 19.8726L41.7425 19.1072L41.4827 18.48L40.8948 18.1405L39.8948 19.8726ZM41.744 48.2318L47.4581 34.4367L43.7626 32.9059L38.0485 46.701L41.744 48.2318ZM40.5438 49.402L40.8963 49.1985L38.8963 45.7344L38.5438 45.9379L40.5438 49.402ZM38.1919 49.1988L38.5438 49.402L40.5438 45.9379L40.1919 45.7347L38.1919 49.1988ZM31.6293 34.4353L37.3441 48.2321L41.0396 46.7014L35.3248 32.9046L31.6293 34.4353ZM37.3441 19.1077L31.6293 32.9046L35.3248 34.4353L41.0396 20.6384L37.3441 19.1077ZM38.5438 17.9379L38.1919 18.141L40.1919 21.6051L40.5438 21.402L38.5438 17.9379ZM40.8948 18.1405L40.5438 17.9379L38.5438 21.402L38.8948 21.6046L40.8948 18.1405ZM47.4581 32.9059L41.7425 19.1072L38.047 20.6379L43.7626 34.4367L47.4581 32.9059Z" fill="currentColor" />
  <path d="M27.4193 35.8698H25.4193V39.8698H27.4193V35.8698ZM51.668 39.8698H53.668V35.8698L51.668 35.8698V39.8698ZM27.4193 27.0032H25.4193V31.0032H27.4193V27.0032ZM51.668 31.0032H53.668V27.0032H51.668V31.0032ZM27.4193 39.8698H51.668V35.8698H27.4193V39.8698ZM27.4193 31.0032L51.668 31.0032V27.0032L27.4193 27.0032V31.0032Z" fill="currentColor" />
</svg>