<svg viewBox="0 0 80 80" fill="none">
  <path opacity="0.25" d="M42 16V14L38 14V16L42 16ZM38 64V66H42V64H38ZM16 38H14V42H16V38ZM64 42H66V38H64L64 42ZM42 63.995V61.995L38 61.995V63.995L42 63.995ZM38 56.005V58.005L42 58.005V56.005L38 56.005ZM42 55.995V53.995L38 53.995V55.995L42 55.995ZM38 48.005L38 50.005L42 50.005L42 48.005L38 48.005ZM42 47.995V45.995H38V47.995H42ZM38 40.005V42.005H42V40.005H38ZM42 39.995V37.995L38 37.995V39.995L42 39.995ZM38 32.005L38 34.005L42 34.005L42 32.005L38 32.005ZM42 31.995V29.995H38V31.995H42ZM38 24.005V26.005H42V24.005H38ZM42 23.995V21.995H38V23.995H42ZM38 16.005V18.005H42V16.005L38 16.005ZM16.005 42H18.005V38H16.005V42ZM23.995 38H21.995V42H23.995V38ZM24.005 42H26.005V38H24.005V42ZM31.995 38H29.995V42H31.995V38ZM32.005 42H34.005V38H32.005V42ZM39.995 38H37.995V42H39.995V38ZM40.005 42H42.005V38H40.005V42ZM47.995 38H45.995V42H47.995V38ZM48.005 42L50.005 42L50.005 38L48.005 38L48.005 42ZM55.995 38H53.995L53.995 42H55.995L55.995 38ZM56.005 42H58.005L58.005 38H56.005L56.005 42ZM63.995 38H61.995L61.995 42H63.995L63.995 38ZM42 64V63.995L38 63.995V64H42ZM42 56.005V55.995L38 55.995V56.005L42 56.005ZM42 48.005V47.995H38V48.005L42 48.005ZM42 40.005V39.995L38 39.995V40.005H42ZM42 32.005V31.995H38V32.005L42 32.005ZM42 24.005V23.995H38V24.005H42ZM42 16.005V16L38 16V16.005L42 16.005ZM16 42H16.005V38H16V42ZM23.995 42H24.005V38H23.995V42ZM31.995 42H32.005V38H31.995V42ZM39.995 42H40.005V38H39.995V42ZM47.995 42H48.005L48.005 38H47.995V42ZM55.995 42H56.005L56.005 38H55.995L55.995 42ZM63.995 42H64L64 38H63.995L63.995 42Z" fill="currentColor" />
  <path d="M16 62H14V66H16V62ZM64 66H66V62H64V66ZM66 16V14L62 14V16L66 16ZM62 64V66H66V64H62ZM16 14H14V18H16V14ZM64 18H66V14H64V18ZM18 16V14L14 14V16L18 16ZM14 64V66H18L18 64H14ZM16 66H64V62L16 62V66ZM62 16L62 64H66L66 16L62 16ZM16 18L64 18V14L16 14V18ZM14 16L14 64H18L18 16L14 16Z" fill="currentColor" />
</svg>