<svg viewBox="0 0 80 80" fill="none">
  <path opacity="0.25" d="M42 16V14L38 14V16L42 16ZM38 64V66H42V64H38ZM16 38H14V42H16V38ZM64 42H66V38H64V42ZM16 62H14V66H16V62ZM64 66H66V62H64V66ZM66 16V14L62 14V16L66 16ZM62 64V66H66V64H62ZM18 16V14L14 14V16L18 16ZM14 64V66H18L18 64H14ZM42 63.995V61.995L38 61.995V63.995L42 63.995ZM38 56.005V58.005L42 58.005V56.005L38 56.005ZM42 55.995V53.995L38 53.995V55.995L42 55.995ZM38 48.005L38 50.005L42 50.005L42 48.005L38 48.005ZM42 47.995V45.995H38V47.995H42ZM38 40.005V42.005H42V40.005H38ZM42 39.995V37.995L38 37.995V39.995L42 39.995ZM38 32.005V34.005L42 34.005V32.005L38 32.005ZM42 31.995V29.995H38V31.995H42ZM38 24.005V26.005H42V24.005H38ZM42 23.995V21.995H38V23.995H42ZM38 16.005V18.005H42V16.005L38 16.005ZM16.005 42H18.005V38H16.005V42ZM23.995 38H21.995V42H23.995V38ZM24.005 42H26.005V38H24.005V42ZM31.995 38H29.995V42H31.995V38ZM32.005 42H34.005V38H32.005V42ZM39.995 38H37.995V42H39.995V38ZM40.005 42H42.005V38H40.005V42ZM47.995 38H45.995V42H47.995V38ZM48.005 42L50.005 42L50.005 38L48.005 38L48.005 42ZM55.995 38H53.995L53.995 42H55.995L55.995 38ZM56.005 42H58.005L58.005 38H56.005L56.005 42ZM63.995 38H61.995L61.995 42H63.995L63.995 38ZM16.005 66H18.005V62H16.005V66ZM23.995 62H21.995V66H23.995V62ZM24.005 66H26.005V62H24.005V66ZM31.995 62H29.995V66H31.995V62ZM32.005 66H34.005V62H32.005V66ZM39.995 62L37.995 62V66H39.995V62ZM40.005 66H42.005V62H40.005V66ZM47.995 62H45.995V66H47.995V62ZM48.005 66H50.005V62H48.005V66ZM55.995 62H53.995V66H55.995V62ZM56.005 66H58.005V62H56.005V66ZM63.995 62H61.995V66H63.995V62ZM66 63.995V61.995H62V63.995H66ZM62 56.005V58.005H66V56.005H62ZM66 55.995V53.995H62V55.995H66ZM62 48.005V50.005H66V48.005H62ZM66 47.995V45.995H62V47.995H66ZM62 40.005V42.005H66V40.005H62ZM66 39.995V37.995L62 37.995L62 39.995L66 39.995ZM62 32.005V34.005L66 34.005V32.005L62 32.005ZM66 31.995V29.995H62V31.995H66ZM62 24.005V26.005H66V24.005H62ZM66 23.995V21.995H62V23.995H66ZM62 16.005V18.005H66V16.005L62 16.005ZM18 63.995V61.995H14L14 63.995H18ZM14 56.005L14 58.005H18V56.005H14ZM18 55.995L18 53.995H14L14 55.995H18ZM14 48.005L14 50.005H18V48.005H14ZM18 47.995L18 45.995H14L14 47.995H18ZM14 40.005L14 42.005H18V40.005H14ZM18 39.995L18 37.995L14 37.995L14 39.995L18 39.995ZM14 32.005L14 34.005L18 34.005L18 32.005L14 32.005ZM18 31.995V29.995H14L14 31.995H18ZM14 24.005L14 26.005H18V24.005H14ZM18 23.995L18 21.995H14L14 23.995H18ZM14 16.005L14 18.005H18L18 16.005L14 16.005ZM42 64V63.995L38 63.995V64H42ZM42 56.005V55.995L38 55.995V56.005L42 56.005ZM42 48.005V47.995H38V48.005L42 48.005ZM42 40.005V39.995L38 39.995V40.005H42ZM42 32.005V31.995H38V32.005L42 32.005ZM42 24.005V23.995H38V24.005H42ZM42 16.005V16L38 16V16.005L42 16.005ZM16 42H16.005V38H16V42ZM23.995 42H24.005V38H23.995V42ZM31.995 42H32.005V38H31.995V42ZM39.995 42H40.005V38H39.995V42ZM47.995 42H48.005L48.005 38H47.995V42ZM55.995 42H56.005L56.005 38H55.995L55.995 42ZM63.995 42H64V38H63.995L63.995 42ZM16 66H16.005V62H16V66ZM23.995 66H24.005V62H23.995V66ZM31.995 66H32.005V62H31.995V66ZM39.995 66H40.005V62H39.995V66ZM47.995 66H48.005V62H47.995V66ZM55.995 66H56.005V62H55.995V66ZM63.995 66H64V62H63.995V66ZM66 64V63.995H62V64H66ZM66 56.005V55.995H62V56.005H66ZM66 48.005V47.995H62V48.005H66ZM66 40.005V39.995L62 39.995V40.005H66ZM66 32.005V31.995H62V32.005L66 32.005ZM66 24.005V23.995H62V24.005H66ZM66 16.005V16L62 16V16.005L66 16.005ZM18 64V63.995H14V64H18ZM18 56.005V55.995H14V56.005H18ZM18 48.005V47.995H14V48.005H18ZM18 40.005V39.995L14 39.995V40.005H18ZM18 32.005V31.995H14V32.005L18 32.005ZM18 24.005V23.995H14V24.005H18ZM18 16.005V16L14 16V16.005L18 16.005Z" fill="currentColor" />
  <path d="M16 14H14V18H16V14ZM64 18H66V14H64V18ZM16 18L64 18V14L16 14V18Z" fill="currentColor" />
</svg>