<svg viewBox="0 0 80 80" fill="none">
  <path d="M24 17L56 17V23L24 23V17Z" fill="currentColor" stroke="currentColor" stroke-width="4" stroke-linecap="square" />
  <path d="M40 17L40 13" stroke="currentColor" stroke-width="4" stroke-linecap="square" />
  <g opacity="0.25">
    <path fill-rule="evenodd" clip-rule="evenodd" d="M20 23L60 23L60 67H20L20 23Z" fill="currentColor" />
    <path d="M60 23H62V21H60V23ZM20 23V21H18V23H20ZM60 67V69H62V67H60ZM20 67H18V69H20V67ZM18 21H16V25H18V21ZM62 25H64V21H62V25ZM18 65H16V69H18V65ZM20 69H22V65H20V69ZM60 65H58V69H60V65ZM62 69H64V65H62V69ZM60 21L20 21V25L60 25V21ZM62 67L62 23H58L58 67H62ZM20 69H60V65H20V69ZM18 23L18 67H22L22 23H18ZM18 25L62 25V21L18 21V25ZM18 69H20V65H18V69ZM60 69H62V65H60V69Z" fill="currentColor" />
  </g>
  <path d="M45 53H35V67H45V53Z" fill="currentColor" stroke="currentColor" stroke-width="4" stroke-linecap="square" />
  <path d="M28 29V35" stroke="currentColor" stroke-width="4" stroke-linecap="square" />
  <path d="M28 41V47" stroke="currentColor" stroke-width="4" stroke-linecap="square" />
  <path d="M28 53V59" stroke="currentColor" stroke-width="4" stroke-linecap="square" />
  <path d="M36 29V35" stroke="currentColor" stroke-width="4" stroke-linecap="square" />
  <path d="M36 41V47" stroke="currentColor" stroke-width="4" stroke-linecap="square" />
  <path d="M44 29V35" stroke="currentColor" stroke-width="4" stroke-linecap="square" />
  <path d="M44 41V47" stroke="currentColor" stroke-width="4" stroke-linecap="square" />
  <path d="M52 29V35" stroke="currentColor" stroke-width="4" stroke-linecap="square" />
  <path d="M52 41V47" stroke="currentColor" stroke-width="4" stroke-linecap="square" />
  <path d="M52 53V59" stroke="currentColor" stroke-width="4" stroke-linecap="square" />
  <path d="M18 23L62 23" stroke="currentColor" stroke-width="4" stroke-linecap="round" stroke-linejoin="round" />
  <path d="M18 67H62" stroke="currentColor" stroke-width="4" stroke-linecap="round" stroke-linejoin="round" />
</svg>