<svg viewBox="0 0 80 80" fill="none">
  <g opacity="0.25">
    <path fill-rule="evenodd" clip-rule="evenodd" d="M61 68H19L19 40L39.9585 12.0553L40 12L40.0415 12.0553L61 40L61 68Z" fill="currentColor" />
    <path d="M19 68V70H17V68H19ZM61 68H63V70H61V68ZM19 40H17V39.3333L17.4 38.8L19 40ZM40 12L38.4 10.8L40 8.66662L41.6 10.8L40 12ZM40.0415 12.0553L38.4415 13.2553L38.4415 13.2553L40.0415 12.0553ZM61 40L62.6 38.8L63 39.3333V40H61ZM19 66H61V70H19V66ZM21 40L21 68H17L17 40H21ZM41.5585 13.2553L20.6 41.2L17.4 38.8L38.3585 10.8553L41.5585 13.2553ZM41.6 13.2L41.5585 13.2553L38.3585 10.8553L38.4 10.8L41.6 13.2ZM38.4415 13.2553L38.4 13.2L41.6 10.8L41.6415 10.8553L38.4415 13.2553ZM59.4 41.2L38.4415 13.2553L41.6415 10.8553L62.6 38.8L59.4 41.2ZM59 68L59 40H63L63 68H59Z" fill="currentColor" />
  </g>
  <path fill-rule="evenodd" clip-rule="evenodd" d="M50 68H30L30 54L39.9802 40.0277L40 40L40.0198 40.0277L50 54V68Z" fill="currentColor" />
  <path d="M30 68V70H28V68H30ZM50 68H52V70H50V68ZM30 54H28V53.3591L28.3725 52.8375L30 54ZM39.9802 40.0277L41.6077 41.1901L41.6077 41.1901L39.9802 40.0277ZM40 40L38.3725 38.8375L40 36.559L41.6275 38.8375L40 40ZM40.0198 40.0277L38.3923 41.1901L38.3923 41.1901L40.0198 40.0277ZM50 54L51.6275 52.8375L52 53.3591V54H50ZM30 66H50V70H30V66ZM32 54V68H28L28 54H32ZM41.6077 41.1901L31.6275 55.1625L28.3725 52.8375L38.3528 38.8652L41.6077 41.1901ZM41.6275 41.1625L41.6077 41.1901L38.3528 38.8652L38.3725 38.8375L41.6275 41.1625ZM38.3923 41.1901L38.3725 41.1625L41.6275 38.8375L41.6472 38.8652L38.3923 41.1901ZM48.3725 55.1625L38.3923 41.1901L41.6472 38.8652L51.6275 52.8375L48.3725 55.1625ZM48 68V54H52V68H48Z" fill="currentColor" />
</svg>