<svg viewBox="0 0 80 80" fill="none">
  <g opacity="0.25">
    <path fill-rule="evenodd" clip-rule="evenodd" d="M16 20L64 20L64 68H16L16 20Z" fill="currentColor" />
    <path d="M64 20H66V18H64V20ZM16 20V18H14L14 20H16ZM64 68V70H66V68H64ZM16 68H14V70H16V68ZM51 20V22H55V20H51ZM55 12V10L51 10V12L55 12ZM25 20V22H29V20H25ZM29 12V10H25V12H29ZM64 18L16 18V22L64 22V18ZM66 68V20H62L62 68H66ZM16 70H64V66H16V70ZM14 20L14 68H18L18 20H14ZM55 20V19.5H51V20H55ZM55 19.5V12L51 12V19.5H55ZM29 20V19.5H25V20H29ZM29 19.5V12H25V19.5H29Z" fill="currentColor" />
  </g>
  <path d="M16 32L64 32" stroke="currentColor" stroke-width="4" stroke-linecap="square" />
</svg>