<svg viewBox="0 0 80 80" fill="none">
  <path d="M12.5 12.5V10.5H10.5V12.5H12.5ZM30.4957 14.5H32.4957V10.5H30.4957V14.5ZM48.5042 10.5H46.5042V14.5H48.5042V10.5ZM66.5 12.5H68.5V10.5H66.5V12.5ZM64.5 30.4958V32.4958H68.5V30.4958H64.5ZM68.5 48.5042V46.5042H64.5V48.5042H68.5ZM66.5 66.5V68.5H68.5V66.5H66.5ZM12.5 66.5H10.5V68.5H12.5V66.5ZM14.5 48.5042V46.5042H10.5V48.5042H14.5ZM10.5 30.4957V32.4957H14.5V30.4957H10.5ZM48.5042 64.5H46.5042V68.5H48.5042V64.5ZM30.4958 68.5H32.4958V64.5H30.4958V68.5ZM12.5 14.5H30.4957V10.5H12.5V14.5ZM48.5042 14.5H66.5V10.5H48.5042V14.5ZM64.5 12.5V30.4958H68.5V12.5H64.5ZM64.5 48.5042V66.5H68.5V48.5042H64.5ZM14.5 66.5V48.5042H10.5V66.5H14.5ZM14.5 30.4957V12.5H10.5V30.4957H14.5ZM66.5 64.5H48.5042V68.5H66.5V64.5ZM30.4958 64.5H12.5V68.5H30.4958V64.5Z" fill="currentColor" />
  <rect x="29.5" y="30" width="20" height="20" stroke="currentColor" stroke-width="4" stroke-linecap="square" />
  <path d="M34.8592 31.4142L36.2734 30L33.445 27.1716L32.0308 28.5858L34.8592 31.4142ZM28.0858 32.5308L26.6716 33.945L29.5 36.7734L30.9142 35.3592L28.0858 32.5308ZM45.5056 31.4142L46.9198 30L44.0914 27.1716L42.6771 28.5858L45.5056 31.4142ZM28.0858 43.1771L26.6716 44.5914L29.5 47.4198L30.9142 46.0056L28.0858 43.1771ZM50.9142 36.6397L52.3284 35.2255L49.5 32.3971L48.0858 33.8113L50.9142 36.6397ZM33.3113 48.5858L31.8971 50L34.7255 52.8284L36.1397 51.4142L33.3113 48.5858ZM50.9142 47.2739L52.3284 45.8597L49.5 43.0312L48.0858 44.4455L50.9142 47.2739ZM43.9455 48.5858L42.5312 50L45.3597 52.8284L46.7739 51.4142L43.9455 48.5858ZM32.0308 28.5858L28.0858 32.5308L30.9142 35.3592L34.8592 31.4142L32.0308 28.5858ZM42.6771 28.5858L28.0858 43.1771L30.9142 46.0056L45.5056 31.4142L42.6771 28.5858ZM48.0858 33.8113L33.3113 48.5858L36.1397 51.4142L50.9142 36.6397L48.0858 33.8113ZM48.0858 44.4455L43.9455 48.5858L46.7739 51.4142L50.9142 47.2739L48.0858 44.4455Z" fill="currentColor" />
</svg>