<svg viewBox="0 0 80 80" fill="none">
  <g opacity="0.25">
    <path fill-rule="evenodd" clip-rule="evenodd" d="M33.127 20H46.0345L55.307 29.0414L55.4098 35.4347L55.4106 35.4824L58.6848 35.4824L66 42.663V52.8178L58.6848 59.9983H53.5122H50V60H49.7614H38.9756V60.0003L31.6604 60.0003H26.4878H21.3152L14 52.8197L14 42.6649L21.3152 35.4844L24.2491 35.4844L24.2483 35.4347L24.1455 29.0414L33.127 20Z" fill="currentColor" />
  </g>
  <path fill-rule="evenodd" clip-rule="evenodd" d="M46.0347 20L33.1272 20L24.1457 29.0414L24.3514 41.828L33.6239 50.8694H41.0246V42.663L48.3398 35.4824L55.4108 35.4824L55.3072 29.0414L46.0347 20Z" fill="currentColor" />
</svg>