<svg viewBox="0 0 80 80" fill="none">
  <path fill-rule="evenodd" clip-rule="evenodd" d="M24.5569 30.192L31.0542 30.0905L34.692 24.963L43.5295 29.8567L40.7436 35.4654L43.8481 40.8424L50.0754 41.2327L49.9346 51.3329L43.657 51.9213L40.3211 57.4963L42.8907 62.9378L34.1401 68.0119L30.7018 63.0505L24.2053 63.152L20.5667 68.2806L11.7292 63.387L14.515 57.7785L11.4101 52.4006L5.17705 52.0099L5.3178 41.9108L11.6004 41.3219L14.9373 35.7454L12.3659 30.3L21.1157 25.2265L24.5569 30.192ZM32.6051 38.3052L22.9148 38.4566L17.9385 46.773L22.6525 54.938L32.3429 54.7865L37.3192 46.4702L32.6051 38.3052Z" fill="currentColor" />
  <g opacity="0.5">
    <path fill-rule="evenodd" clip-rule="evenodd" d="M72.2669 24.1999L72.2739 28.7225L75.788 31.1498L72.3405 37.1696L68.4774 35.3236L64.5779 37.5749L64.2462 41.828L57.309 41.8308L56.9629 37.5618L53.0502 35.2947L49.2108 37.1202L45.7299 31.118L49.2417 28.698L49.2347 24.1761L45.7201 21.7484L49.1676 15.7286L53.031 17.5748L56.9302 15.3236L57.2622 11.0662L64.1988 11.0635L64.5451 15.3361L68.4582 17.6034L72.301 15.7763L75.7815 21.778L72.2669 24.1999ZM66.5172 29.7881L66.5069 23.1274L60.7437 19.7881L54.9908 23.1095L55.0011 29.7702L60.7643 33.1095L66.5172 29.7881Z" fill="currentColor" />
  </g>
</svg>