<svg viewBox="0 0 80 80" fill="none">
  <g opacity="0.25">
    <path fill-rule="evenodd" clip-rule="evenodd" d="M64 12H16V60H34L40 68L46 60H64V12Z" fill="currentColor" />
    <path d="M16 12V10H14V12H16ZM64 12H66V10H64V12ZM16 60H14V62H16V60ZM34 60L35.6 58.8L35 58H34V60ZM40 68L38.4 69.2L40 71.3333L41.6 69.2L40 68ZM46 60V58H45L44.4 58.8L46 60ZM64 60V62H66V60H64ZM16 14H64V10H16V14ZM18 60V12H14V60H18ZM34 58H16V62H34V58ZM32.4 61.2L38.4 69.2L41.6 66.8L35.6 58.8L32.4 61.2ZM41.6 69.2L47.6 61.2L44.4 58.8L38.4 66.8L41.6 69.2ZM64 58H46V62H64V58ZM62 12V60H66V12H62Z" fill="currentColor" />
  </g>
  <path d="M40 24L40.0208 35.988L50.3923 42L40 36.024L29.6077 42L39.9792 35.988L40 24Z" stroke="currentColor" stroke-width="4" stroke-linecap="square" />
  <path d="M40 48L40.0208 36.012L50.3923 30L40 35.976L29.6077 30L39.9792 36.012L40 48Z" stroke="currentColor" stroke-width="4" stroke-linecap="square" />
</svg>