<svg viewBox="0 0 80 80" fill="none">
  <path opacity="0.25" d="M40 15L61.6506 27.5V52.5L40 65L18.3494 52.5V27.5L40 15Z" fill="currentColor" stroke="currentColor" stroke-width="4" stroke-linecap="square" />
  <path d="M40 12L42 11.9986H38L40 12ZM40.0071 22.0041L39.0071 23.7361L42.0095 25.4696L42.0071 22.0027L40.0071 22.0041ZM39.9929 22.0041L37.9929 22.0027L37.9905 25.4696L40.9929 23.7361L39.9929 22.0041ZM40 22L41 20.2679L40 19.6906L39 20.2679L40 22ZM55.5885 39.9912L55.5899 37.9912L53.5885 37.9898V39.9912H55.5885ZM55.5885 40.0088H53.5885V42.0102L55.5899 42.0088L55.5885 40.0088ZM68 40L68.0014 42V38L68 40ZM40.0071 57.9959L42.0071 57.9973L42.0095 54.5308L39.0073 56.2638L40.0071 57.9959ZM40 58L39.0002 59.7322L40 60.3093L40.9998 59.7322L40 58ZM39.9929 57.9959L40.9927 56.2638L37.9905 54.5308L37.9929 57.9973L39.9929 57.9959ZM40 68L38 68.0014H42L40 68ZM24.4115 40.0088L24.4101 42.0088L26.4115 42.0102V40.0088H24.4115ZM24.4115 39.9912H26.4115V37.9898L24.4101 37.9912L24.4115 39.9912ZM12 40L11.9986 38V42L12 40ZM38 12.0014L38.0071 22.0055L42.0071 22.0027L42 11.9986L38 12.0014ZM41.9929 22.0055L42 12.0014L38 11.9986L37.9929 22.0027L41.9929 22.0055ZM40.9929 23.7361L41 23.7321L39 20.2679L38.9929 20.272L40.9929 23.7361ZM39 23.7321L39.0071 23.7361L41.0071 20.272L41 20.2679L39 23.7321ZM53.5885 39.9912V40.0088H57.5885V39.9912H53.5885ZM67.9986 38L55.587 38.0088L55.5899 42.0088L68.0014 42L67.9986 38ZM55.587 41.9912L67.9986 42L68.0014 38L55.5899 37.9912L55.587 41.9912ZM39.0073 56.2638L39.0002 56.2678L40.9998 59.7322L41.0069 59.7281L39.0073 56.2638ZM40.9998 56.2678L40.9927 56.2638L38.9931 59.7281L39.0002 59.7322L40.9998 56.2678ZM42 67.9986L41.9929 57.9945L37.9929 57.9973L38 68.0014L42 67.9986ZM38.0071 57.9945L38 67.9986L42 68.0014L42.0071 57.9973L38.0071 57.9945ZM26.4115 40.0088V39.9912H22.4115V40.0088H26.4115ZM12.0014 42L24.413 41.9912L24.4101 37.9912L11.9986 38L12.0014 42ZM24.413 38.0088L12.0014 38L11.9986 42L24.4101 42.0088L24.413 38.0088Z" fill="currentColor" />
  <path d="M40 30L48.6603 35V45L40 50L31.3397 45V35L40 30Z" stroke="currentColor" stroke-width="4" stroke-linecap="square" />
</svg>