<svg viewBox="0 0 80 80" fill="none">
  <path opacity="0.25" fill-rule="evenodd" clip-rule="evenodd" d="M34.0317 61.3139L37.4955 48.3869L52.255 33.6274L51.4909 32.8633L73.2236 38.6865L64.9414 69.5961L34.0317 61.3139Z" fill="currentColor" />
  <rect x="61.0684" y="40.2603" width="5.33333" height="5.33333" transform="rotate(15 61.0684 40.2603)" fill="currentColor" />
  <rect x="42.415" y="53.207" width="5.33333" height="5.33333" transform="rotate(15 42.415 53.207)" fill="currentColor" />
  <rect opacity="0.25" x="7" y="33.6274" width="32" height="32" transform="rotate(-45 7 33.6274)" fill="currentColor" />
  <rect x="14.5425" y="32.6846" width="5.33333" height="5.33333" transform="rotate(-45 14.5425 32.6846)" fill="currentColor" />
  <rect x="24.9136" y="22.3135" width="5.33333" height="5.33333" transform="rotate(-45 24.9136 22.3135)" fill="currentColor" />
  <rect x="26.7988" y="44.9409" width="5.33333" height="5.33333" transform="rotate(-45 26.7988 44.9409)" fill="currentColor" />
  <rect x="37.1699" y="34.5703" width="5.33333" height="5.33333" transform="rotate(-45 37.1699 34.5703)" fill="currentColor" />
</svg>