<svg viewBox="0 0 80 80" fill="none">
  <path opacity="0.5" fill-rule="evenodd" clip-rule="evenodd" d="M32.4804 14.9998L29.8009 22H11V64H34.3398L20.4833 56V30L43 17L65.5167 30V56L51.6602 64H67V22H56.3202L53.6407 14.9998H32.4804Z" fill="currentColor" />
  <path fill-rule="evenodd" clip-rule="evenodd" d="M23.9151 21.9999H16.1195L16.9944 17.9999H23.0402L23.9151 21.9999Z" fill="currentColor" />
  <path fill-rule="evenodd" clip-rule="evenodd" d="M50.8302 14.9999L35.239 14.9999L36.9888 10.9999L49.0804 10.9999L50.8302 14.9999Z" fill="currentColor" />
  <path opacity="0.25" d="M43 17L65.5167 30V56L43 69L20.4833 56L20.4833 30L43 17Z" fill="currentColor" />
  <path opacity="0.25" d="M43 27L56.8564 35V51L43 59L29.1436 51L29.1436 35L43 27Z" fill="currentColor" />
  <path d="M34.0718 45.2488V47.2488H38.0718V45.2488H34.0718ZM36.0718 38.9994L35.0718 37.2674L34.0718 37.8447V38.9994H36.0718ZM43.9979 36.7327L45.73 35.7327L43.73 32.2686L41.9979 33.2686L43.9979 36.7327ZM38.0718 45.2488V38.9994H34.0718V45.2488H38.0718ZM37.0718 40.7315L43.9979 36.7327L41.9979 33.2686L35.0718 37.2674L37.0718 40.7315Z" fill="currentColor" />
</svg>