<svg viewBox="0 0 80 80" fill="none">
  <path d="M28 64H26V66H28V64ZM28 36.0625L27.9896 34.0625L26 34.0729V36.0625H28ZM52 64V66H54V64H52ZM52 36.0391H54V34.0456L52.0065 34.0391L52 36.0391ZM30 16V14H28V16H30ZM50 16H52V14H50V16ZM50 35.9375L50.0125 37.9375L52 37.925V35.9375H50ZM30 35.9375H28V37.925L29.9875 37.9375L30 35.9375ZM30 64V36.0625H26V64H30ZM54 64V36.0391H50V64H54ZM52 62H28V66H52V62ZM30 18H50V14H30V18ZM48 16V35.9375H52V16H48ZM52.0065 34.0391L40.0065 34L39.9935 38L51.9935 38.0391L52.0065 34.0391ZM39.9896 34L27.9896 34.0625L28.0104 38.0625L40.0104 38L39.9896 34ZM49.9875 33.9375L39.9875 34L40.0125 38L50.0125 37.9375L49.9875 33.9375ZM32 35.9375V16H28V35.9375H32ZM29.9875 37.9375L39.9875 38L40.0125 34L30.0125 33.9375L29.9875 37.9375Z" fill="currentColor" />
</svg>