<svg viewBox="0 0 80 80" fill="none">
  <rect x="12" y="20" width="10" height="8" stroke="currentColor" stroke-width="4" stroke-linecap="square" />
  <rect x="12" y="44" width="10" height="8" stroke="currentColor" stroke-width="4" stroke-linecap="square" />
  <rect x="12" y="28" width="10" height="8" stroke="currentColor" stroke-width="4" stroke-linecap="square" />
  <rect x="12" y="52" width="10" height="8" stroke="currentColor" stroke-width="4" stroke-linecap="square" />
  <path d="M22 68V60H12L12 68" stroke="currentColor" stroke-width="4" stroke-linecap="square" />
  <path d="M12 12L12 20H22V12" stroke="currentColor" stroke-width="4" stroke-linecap="square" />
  <rect x="12" y="36" width="10" height="8" stroke="currentColor" stroke-width="4" stroke-linecap="square" />
  <rect x="58" y="20" width="10" height="8" stroke="currentColor" stroke-width="4" stroke-linecap="square" />
  <rect x="58" y="44" width="10" height="8" stroke="currentColor" stroke-width="4" stroke-linecap="square" />
  <rect x="58" y="28" width="10" height="8" stroke="currentColor" stroke-width="4" stroke-linecap="square" />
  <rect x="58" y="52" width="10" height="8" stroke="currentColor" stroke-width="4" stroke-linecap="square" />
  <path d="M68 68V60H58V68" stroke="currentColor" stroke-width="4" stroke-linecap="square" />
  <path d="M58 12V20H68V12" stroke="currentColor" stroke-width="4" stroke-linecap="square" />
  <rect x="58" y="36" width="10" height="8" stroke="currentColor" stroke-width="4" stroke-linecap="square" />
  <g opacity="0.25">
    <path fill-rule="evenodd" clip-rule="evenodd" d="M58 12L22 12L22 36L58 36L58 12ZM58 44L22 44L22 68H58V44Z" fill="currentColor" />
    <path d="M22 12V10H20V12H22ZM58 12H60V10L58 10V12ZM22 36H20V38H22V36ZM58 36V38H60V36H58ZM58 44H60V42H58V44ZM22 44V42H20L20 44H22ZM22 68H20L20 70H22V68ZM58 68V70H60V68H58ZM22 14L58 14V10L22 10V14ZM24 36L24 12H20L20 36H24ZM22 38L58 38L58 34L22 34V38ZM56 12L56 36H60L60 12H56ZM58 42L22 42L22 46L58 46V42ZM24 68L24 44H20V68H24ZM58 66H22L22 70H58V66ZM56 44V68H60V44H56Z" fill="currentColor" />
  </g>
</svg>