<svg viewBox="0 0 80 80" fill="none">
  <path d="M16.0002 14.8853L17.1096 13.2212L16.0002 12.4816L14.8908 13.2212L16.0002 14.8853ZM4.00016 22.8853L2.88961 24.5486L3.99933 25.2895L5.10956 24.5494L4.00016 22.8853ZM5.11055 21.2218L3.44722 20.1113L1.22612 23.4379L2.88945 24.5485L5.11055 21.2218ZM22.0002 18.8853L23.1096 17.2212V17.2212L22.0002 18.8853ZM40.0002 14.8853L41.1096 13.2212L40.0002 12.4816L38.8908 13.2212L40.0002 14.8853ZM28.0002 22.8853L26.8908 24.5494L28.0002 25.289L29.1096 24.5494L28.0002 22.8853ZM64.0002 14.8853L65.1096 13.2212L64.0002 12.4816L62.8908 13.2212L64.0002 14.8853ZM52.0002 22.8853L50.8908 24.5494L52.0002 25.289L53.1096 24.5494L52.0002 22.8853ZM70.0002 18.8853L71.1096 17.2212L70.0002 18.8853ZM74.8906 24.5492L76.5547 25.6587L78.7735 22.3304L77.1094 21.221L74.8906 24.5492ZM14.8908 13.2212L2.89076 21.2212L5.10956 24.5494L17.1096 16.5494L14.8908 13.2212ZM5.11071 21.2219L5.11055 21.2218L2.88945 24.5485L2.88961 24.5486L5.11071 21.2219ZM23.1096 17.2212L17.1096 13.2212L14.8908 16.5494L20.8908 20.5494L23.1096 17.2212ZM38.8908 13.2212L26.8908 21.2212L29.1096 24.5494L41.1096 16.5494L38.8908 13.2212ZM29.1096 21.2212L23.1096 17.2212L20.8908 20.5494L26.8908 24.5494L29.1096 21.2212ZM47.1096 17.2212L41.1096 13.2212L38.8908 16.5494L44.8908 20.5494L47.1096 17.2212ZM62.8908 13.2212L50.8908 21.2212L53.1096 24.5494L65.1096 16.5494L62.8908 13.2212ZM53.1096 21.2212L47.1096 17.2212L44.8908 20.5494L50.8908 24.5494L53.1096 21.2212ZM71.1096 17.2212L65.1096 13.2212L62.8908 16.5494L68.8908 20.5494L71.1096 17.2212ZM77.1094 21.221L71.1096 17.2212L68.8908 20.5494L74.8906 24.5492L77.1094 21.221Z" fill="currentColor" />
  <path opacity="0.25" d="M16.0002 28.6548L17.1096 26.9907L16.0002 26.2511L14.8908 26.9907L16.0002 28.6548ZM4.00016 36.6548L2.88961 38.3181L3.99933 39.059L5.10956 38.3189L4.00016 36.6548ZM5.11055 34.9913L3.44722 33.8808L1.22612 37.2075L2.88945 38.318L5.11055 34.9913ZM22.0002 32.6548L23.1096 30.9907V30.9907L22.0002 32.6548ZM40.0002 28.6548L41.1096 26.9907L40.0002 26.2511L38.8908 26.9907L40.0002 28.6548ZM28.0002 36.6548L26.8908 38.3189L28.0002 39.0585L29.1096 38.3189L28.0002 36.6548ZM64.0002 28.6548L65.1096 26.9907L64.0002 26.2511L62.8908 26.9907L64.0002 28.6548ZM52.0002 36.6548L50.8908 38.3189L52.0002 39.0585L53.1096 38.3189L52.0002 36.6548ZM70.0002 32.6548L71.1096 30.9907L70.0002 32.6548ZM74.8906 38.3188L76.5547 39.4282L78.7735 36.1L77.1094 34.9906L74.8906 38.3188ZM14.8908 26.9907L2.89076 34.9907L5.10956 38.3189L17.1096 30.3189L14.8908 26.9907ZM5.11071 34.9915L5.11055 34.9913L2.88945 38.318L2.88961 38.3181L5.11071 34.9915ZM23.1096 30.9907L17.1096 26.9907L14.8908 30.3189L20.8908 34.3189L23.1096 30.9907ZM38.8908 26.9907L26.8908 34.9907L29.1096 38.3189L41.1096 30.3189L38.8908 26.9907ZM29.1096 34.9907L23.1096 30.9907L20.8908 34.3189L26.8908 38.3189L29.1096 34.9907ZM47.1096 30.9907L41.1096 26.9907L38.8908 30.3189L44.8908 34.3189L47.1096 30.9907ZM62.8908 26.9907L50.8908 34.9907L53.1096 38.3189L65.1096 30.3189L62.8908 26.9907ZM53.1096 34.9907L47.1096 30.9907L44.8908 34.3189L50.8908 38.3189L53.1096 34.9907ZM71.1096 30.9907L65.1096 26.9907L62.8908 30.3189L68.8908 34.3189L71.1096 30.9907ZM77.1094 34.9906L71.1096 30.9907L68.8908 34.3189L74.8906 38.3188L77.1094 34.9906Z" fill="currentColor" />
  <path d="M16.0002 42.4243L17.1096 40.7602L16.0002 40.0206L14.8908 40.7602L16.0002 42.4243ZM4.00016 50.4243L2.88961 52.0877L3.99933 52.8286L5.10956 52.0884L4.00016 50.4243ZM5.11055 48.7609L3.44722 47.6503L1.22612 50.977L2.88945 52.0875L5.11055 48.7609ZM22.0002 46.4243L23.1096 44.7602V44.7602L22.0002 46.4243ZM40.0002 42.4243L41.1096 40.7602L40.0002 40.0206L38.8908 40.7602L40.0002 42.4243ZM28.0002 50.4243L26.8908 52.0884L28.0002 52.828L29.1096 52.0884L28.0002 50.4243ZM64.0002 42.4243L65.1096 40.7602L64.0002 40.0206L62.8908 40.7602L64.0002 42.4243ZM52.0002 50.4243L50.8908 52.0884L52.0002 52.828L53.1096 52.0884L52.0002 50.4243ZM70.0002 46.4243L71.1096 44.7602L70.0002 46.4243ZM74.8906 52.0883L76.5547 53.1977L78.7735 49.8695L77.1094 48.7601L74.8906 52.0883ZM14.8908 40.7602L2.89076 48.7602L5.10956 52.0884L17.1096 44.0884L14.8908 40.7602ZM5.11071 48.761L5.11055 48.7609L2.88945 52.0875L2.88961 52.0877L5.11071 48.761ZM23.1096 44.7602L17.1096 40.7602L14.8908 44.0884L20.8908 48.0884L23.1096 44.7602ZM38.8908 40.7602L26.8908 48.7602L29.1096 52.0884L41.1096 44.0884L38.8908 40.7602ZM29.1096 48.7602L23.1096 44.7602L20.8908 48.0884L26.8908 52.0884L29.1096 48.7602ZM47.1096 44.7602L41.1096 40.7602L38.8908 44.0884L44.8908 48.0884L47.1096 44.7602ZM62.8908 40.7602L50.8908 48.7602L53.1096 52.0884L65.1096 44.0884L62.8908 40.7602ZM53.1096 48.7602L47.1096 44.7602L44.8908 48.0884L50.8908 52.0884L53.1096 48.7602ZM71.1096 44.7602L65.1096 40.7602L62.8908 44.0884L68.8908 48.0884L71.1096 44.7602ZM77.1094 48.7601L71.1096 44.7602L68.8908 48.0884L74.8906 52.0883L77.1094 48.7601Z" fill="currentColor" />
  <path opacity="0.25" d="M16.0002 56.1938L17.1096 54.5297L16.0002 53.7901L14.8908 54.5297L16.0002 56.1938ZM4.00016 64.1938L2.88961 65.8572L3.99933 66.5981L5.10956 65.858L4.00016 64.1938ZM5.11055 62.5304L3.44722 61.4199L1.22612 64.7465L2.88945 65.8571L5.11055 62.5304ZM22.0002 60.1938L23.1096 58.5297V58.5297L22.0002 60.1938ZM40.0002 56.1938L41.1096 54.5297L40.0002 53.7901L38.8908 54.5297L40.0002 56.1938ZM28.0002 64.1938L26.8908 65.858L28.0002 66.5976L29.1096 65.858L28.0002 64.1938ZM64.0002 56.1938L65.1096 54.5297L64.0002 53.7901L62.8908 54.5297L64.0002 56.1938ZM52.0002 64.1938L50.8908 65.858L52.0002 66.5976L53.1096 65.858L52.0002 64.1938ZM70.0002 60.1938L71.1096 58.5297L70.0002 60.1938ZM74.8906 65.8578L76.5547 66.9672L78.7735 63.639L77.1094 62.5296L74.8906 65.8578ZM14.8908 54.5297L2.89076 62.5297L5.10956 65.858L17.1096 57.8579L14.8908 54.5297ZM5.11071 62.5305L5.11055 62.5304L2.88945 65.8571L2.88961 65.8572L5.11071 62.5305ZM23.1096 58.5297L17.1096 54.5297L14.8908 57.8579L20.8908 61.8579L23.1096 58.5297ZM38.8908 54.5297L26.8908 62.5297L29.1096 65.858L41.1096 57.8579L38.8908 54.5297ZM29.1096 62.5297L23.1096 58.5297L20.8908 61.8579L26.8908 65.858L29.1096 62.5297ZM47.1096 58.5297L41.1096 54.5297L38.8908 57.8579L44.8908 61.8579L47.1096 58.5297ZM62.8908 54.5297L50.8908 62.5297L53.1096 65.858L65.1096 57.8579L62.8908 54.5297ZM53.1096 62.5297L47.1096 58.5297L44.8908 61.8579L50.8908 65.858L53.1096 62.5297ZM71.1096 58.5297L65.1096 54.5297L62.8908 57.8579L68.8908 61.8579L71.1096 58.5297ZM77.1094 62.5296L71.1096 58.5297L68.8908 61.8579L74.8906 65.8578L77.1094 62.5296Z" fill="currentColor" />
</svg>