<svg viewBox="0 0 80 80" fill="none">
  <path d="M38.5 65.2549V63.7549H35.5V65.2549H38.5ZM53 72.9372H54.5V69.9372H53V72.9372ZM21 69.9372L19.5 69.9372L19.5 72.9372L21 72.9372L21 69.9372ZM38.5 71.4372V65.2549H35.5V71.4372H38.5ZM37 72.9372L53 72.9372V69.9372L37 69.9372V72.9372ZM37 69.9372L21 69.9372L21 72.9372L37 72.9372V69.9372Z" fill="currentColor" />
  <path d="M18.909 60.0027L17.691 59.1272L17.0406 60.0319L17.7189 60.9158L18.909 60.0027ZM20.9332 62.6408L19.7432 63.5539L20.1214 64.0468L20.7374 64.1279L20.9332 62.6408ZM23.4144 53.7352L24.6044 52.8221L23.3751 51.22L22.1964 52.8597L23.4144 53.7352ZM24.9331 55.7145L23.7431 56.6276L24.1213 57.1206L24.7373 57.2016L24.9331 55.7145ZM43.1448 58.1121L42.949 59.5993L43.565 59.6804L44.0579 59.3021L43.1448 58.1121ZM57.7177 46.9299L58.6309 48.1199L59.1238 47.7417L59.2049 47.1257L57.7177 46.9299ZM60.1153 28.7182L61.6025 28.914L61.6836 28.298L61.3054 27.8051L60.1153 28.7182ZM48.9331 14.1453L50.1232 13.2321L49.7449 12.7392L49.1289 12.6581L48.9331 14.1453ZM46.4597 13.8196L45.0925 13.2026L44.2618 15.0432L46.2639 15.3068L46.4597 13.8196ZM49.6362 6.78108L49.8319 5.29391L48.7273 5.14847L48.2689 6.16406L49.6362 6.78108ZM52.9332 7.21514L54.1232 6.302L53.745 5.80907L53.129 5.72798L52.9332 7.21514ZM67.8428 26.6457L69.33 26.8415L69.4111 26.2255L69.0329 25.7326L67.8428 26.6457ZM64.646 50.928L65.5592 52.118L66.0521 51.7397L66.1332 51.1237L64.646 50.928ZM45.2154 65.8376L45.0196 67.3247L45.6356 67.4059L46.1286 67.0276L45.2154 65.8376ZM17.7189 60.9158L19.7432 63.5539L22.1232 61.7276L20.099 59.0896L17.7189 60.9158ZM22.1964 52.8597L17.691 59.1272L20.1269 60.8782L24.6323 54.6107L22.1964 52.8597ZM26.1231 54.8013L24.6044 52.8221L22.2243 54.6483L23.7431 56.6276L26.1231 54.8013ZM43.3406 56.6249L25.1289 54.2273L24.7373 57.2016L42.949 59.5993L43.3406 56.6249ZM56.8046 45.7398L42.2316 56.9221L44.0579 59.3021L58.6309 48.1199L56.8046 45.7398ZM58.6282 28.5224L56.2306 46.7341L59.2049 47.1257L61.6025 28.914L58.6282 28.5224ZM47.7431 15.0584L58.9253 29.6314L61.3054 27.8051L50.1232 13.2321L47.7431 15.0584ZM46.2639 15.3068L48.7373 15.6324L49.1289 12.6581L46.6555 12.3325L46.2639 15.3068ZM48.2689 6.16406L45.0925 13.2026L47.8269 14.4366L51.0034 7.39809L48.2689 6.16406ZM53.129 5.72798L49.8319 5.29391L49.4404 8.26824L52.7374 8.70231L53.129 5.72798ZM69.0329 25.7326L54.1232 6.302L51.7432 8.12828L66.6528 27.5589L69.0329 25.7326ZM66.1332 51.1237L69.33 26.8415L66.3557 26.45L63.1589 50.7322L66.1332 51.1237ZM46.1286 67.0276L65.5592 52.118L63.7329 49.7379L44.3023 64.6476L46.1286 67.0276ZM20.7374 64.1279L45.0196 67.3247L45.4112 64.3504L21.129 61.1536L20.7374 64.1279Z" fill="currentColor" />
  <g clip-path="url(#clip0)">
    <path opacity="0.25" d="M48.9999 14.2153L60.9999 34.9999L48.9999 55.7845L24.9999 55.7846L12.9999 34.9999L24.9999 14.2153L48.9999 14.2153Z" fill="currentColor" stroke="currentColor" stroke-width="4" stroke-linecap="square" />
    <path fill-rule="evenodd" clip-rule="evenodd" d="M26.5871 28.9881L27.08 28.6099L45.8394 14.2153L49.0001 14.2153L50.5795 16.9508L47.4927 40.3974L47.4116 41.0134L46.9186 41.3916L28.1615 55.7845L25.0001 55.7845L23.4197 53.0471L26.506 29.6041L26.5871 28.9881ZM29.3992 30.6117L47.593 16.6511L44.5994 39.3898L26.4056 53.3504L29.3992 30.6117Z" fill="currentColor" />
    <path fill-rule="evenodd" clip-rule="evenodd" d="M22.25 18.9784L23.75 16.3804L59.75 37.165L58.25 39.7631L22.25 18.9784ZM14.65 32.142L16.15 29.544L52.15 50.3286L50.65 52.9266L14.65 32.142Z" fill="currentColor" />
  </g>
  <defs>
    <clipPath id="clip0">
      <rect width="48" height="48" fill="currentColor" transform="translate(28.2153 2.21533) rotate(30)" />
    </clipPath>
  </defs>
</svg>