<svg viewBox="0 0 80 80" fill="none">
  <g clip-path="url(#clip0)">
    <path d="M38.5 65.3845V63.8845H35.5V65.3845H38.5ZM53 73.0669H54.5V70.0669H53V73.0669ZM21 70.0669L19.5 70.0669L19.5 73.0669L21 73.0669L21 70.0669ZM38.5 71.5669V65.3845H35.5V71.5669H38.5ZM37 73.0669L53 73.0669V70.0669L37 70.0669V73.0669ZM37 70.0669L21 70.0669L21 73.0669L37 73.0669V70.0669Z" fill="currentColor" />
    <path d="M18.909 60.1323L17.691 59.2568L17.0406 60.1615L17.7189 61.0455L18.909 60.1323ZM20.9332 62.7704L19.7432 63.6835L20.1214 64.1765L20.7374 64.2576L20.9332 62.7704ZM23.4144 53.8648L24.6044 52.9517L23.3751 51.3496L22.1964 52.9893L23.4144 53.8648ZM24.9331 55.8441L23.7431 56.7573L24.1213 57.2502L24.7373 57.3313L24.9331 55.8441ZM43.1448 58.2417L42.949 59.7289L43.565 59.81L44.0579 59.4318L43.1448 58.2417ZM57.7177 47.0595L58.6309 48.2495L59.1238 47.8713L59.2049 47.2553L57.7177 47.0595ZM60.1153 28.8479L61.6025 29.0436L61.6836 28.4276L61.3054 27.9347L60.1153 28.8479ZM48.9331 14.2749L50.1232 13.3618L49.7449 12.8688L49.1289 12.7877L48.9331 14.2749ZM46.4597 13.9493L45.0925 13.3323L44.2618 15.1729L46.2639 15.4364L46.4597 13.9493ZM49.6362 6.91071L49.8319 5.42355L48.7273 5.27811L48.2689 6.2937L49.6362 6.91071ZM52.9332 7.34478L54.1232 6.43164L53.745 5.93871L53.129 5.85761L52.9332 7.34478ZM67.8428 26.7754L69.33 26.9712L69.4111 26.3552L69.0329 25.8622L67.8428 26.7754ZM64.646 51.0576L65.5592 52.2476L66.0521 51.8694L66.1332 51.2534L64.646 51.0576ZM45.2154 65.9672L45.0196 67.4544L45.6356 67.5355L46.1286 67.1573L45.2154 65.9672ZM17.7189 61.0455L19.7432 63.6835L22.1232 61.8573L20.099 59.2192L17.7189 61.0455ZM22.1964 52.9893L17.691 59.2568L20.1269 61.0079L24.6323 54.7404L22.1964 52.9893ZM26.1231 54.931L24.6044 52.9517L22.2243 54.778L23.7431 56.7573L26.1231 54.931ZM43.3406 56.7546L25.1289 54.357L24.7373 57.3313L42.949 59.7289L43.3406 56.7546ZM56.8046 45.8695L42.2316 57.0517L44.0579 59.4318L58.6309 48.2495L56.8046 45.8695ZM58.6282 28.6521L56.2306 46.8637L59.2049 47.2553L61.6025 29.0436L58.6282 28.6521ZM47.7431 15.188L58.9253 29.761L61.3054 27.9347L50.1232 13.3618L47.7431 15.188ZM46.2639 15.4364L48.7373 15.7621L49.1289 12.7877L46.6555 12.4621L46.2639 15.4364ZM48.2689 6.2937L45.0925 13.3323L47.8269 14.5663L51.0034 7.52773L48.2689 6.2937ZM53.129 5.85761L49.8319 5.42355L49.4404 8.39788L52.7374 8.83195L53.129 5.85761ZM69.0329 25.8622L54.1232 6.43164L51.7432 8.25792L66.6528 27.6885L69.0329 25.8622ZM66.1332 51.2534L69.33 26.9712L66.3557 26.5796L63.1589 50.8618L66.1332 51.2534ZM46.1286 67.1573L65.5592 52.2476L63.7329 49.8676L44.3023 64.7772L46.1286 67.1573ZM20.7374 64.2576L45.0196 67.4544L45.4112 64.4801L21.129 61.2832L20.7374 64.2576Z" fill="currentColor" />
    <path opacity="0.25" d="M48.9999 14.345L60.9999 35.1296L48.9999 55.9142L24.9999 55.9142L12.9999 35.1296L24.9999 14.345L48.9999 14.345Z" fill="currentColor" stroke="currentColor" stroke-width="4" stroke-linecap="square" />
    <path fill-rule="evenodd" clip-rule="evenodd" d="M41.1235 14.3407L45.7297 14.3407L43.4549 16.4265L41.1235 14.3407ZM29.4801 14.3407L38.7252 14.3407L42.9564 17.9004L43.0603 20.1934L40.8488 20.9405L41.6379 24.2026L44.1159 25.3119L46.2279 22.6291L46.7858 24.714L48.6554 26.1124L48.2299 28.0085L38.9346 30.6622L37.6429 33.3632L37.1405 30.4467L34.3297 28.8239L33.0076 31.1138L35.0695 33.2611L35.7611 36.6225L39.5748 39.0522L40.2752 42.3275L42.0355 44.2243L40.3054 47.2209L29.3078 50.3501L26.4664 55.2717L25.5498 53.2459L26.0166 50.4094L29.3514 44.6334L28.761 40.5557L30.995 36.3772L33.5209 35.557L33.1296 33.1437L30.397 30.9148L28.6539 22.8128L30.7807 17.6608L29.4801 14.3407ZM53.5681 22.2402L58.1772 30.2234L53.5891 31.407L52.9157 27.5798L54.0078 25.8391L53.2554 22.6184L53.5681 22.2402ZM45.9589 17.282L48.1563 22.9053L49.8579 23.8284L49.056 16.7555L45.9589 17.282Z" fill="currentColor" />
  </g>
  <defs>
    <clipPath id="clip0">
      <rect width="80" height="80" fill="currentColor" />
    </clipPath>
  </defs>
</svg>