<svg viewBox="0 0 80 80" fill="none">
  <path opacity="0.5" d="M36 60.1083V62.1083H40V60.1083H36ZM40 20.1083V18.1083H36V20.1083H40ZM8 60.1083V62.1083H12V60.1083H8ZM12 20.1083V18.1083H8V20.1083H12ZM10 38.1083H8V42.1083H10V38.1083ZM38 42.1083H40V38.1083H38V42.1083ZM40 60.1083V20.1083H36V60.1083H40ZM12 60.1083V20.1083H8V60.1083H12ZM10 42.1083H38V38.1083H10V42.1083Z" fill="currentColor" />
  <path d="M56 18H54V22H56V18ZM63.9962 20H65.9962V18H63.9962V20ZM61.9962 60V62H65.9962V60H61.9962ZM56 22H63.9962V18H56V22ZM61.9962 20V20.3072H65.9962V20H61.9962ZM61.9962 20.3072V60H65.9962V20.3072H61.9962Z" fill="currentColor" />
</svg>