<svg viewBox="0 0 80 80" fill="none">
  <path opacity="0.25" fill-rule="evenodd" clip-rule="evenodd" d="M22.0429 17.6716L14.2143 25.4794L14.2143 36.5213L20.8286 43.118L39.7283 61.9676L58.6281 43.118L65.2424 36.5213V25.4794L57.4138 17.6716L46.3426 17.6716L40.388 23.6104L39.7283 24.2683L39.0687 23.6104L33.1141 17.6716L22.0429 17.6716Z" fill="currentColor" />
  <path fill-rule="evenodd" clip-rule="evenodd" d="M61.0381 40.7134H60.7287H56.2059L48.5456 24.0365L46.5839 19.7656L44.8665 24.1404L43.1985 28.3894L35.5979 47.7507L30.8561 34.3975L29.2683 29.9262L27.1763 34.185L25.2981 38.0083L23.9693 40.7134H18.727H18.4185L20.8285 43.117L22.4291 44.7134H25.2151H26.4609L27.0102 43.5952L28.6744 40.2073L32.1807 50.0812L33.6193 54.1323L34.5769 56.829L35.8376 58.0864L37.3657 54.1939L46.8725 29.9769L53.1062 43.5482L53.6414 44.7134H54.9236H57.0274L58.6281 43.117L61.0381 40.7134Z" fill="currentColor" />
</svg>