<svg viewBox="0 0 80 80" fill="none">
  <g opacity="0.25">
    <path fill-rule="evenodd" clip-rule="evenodd" d="M60 34L40 18L20 34L20 62L60 62L60 34Z" fill="currentColor" />
    <path d="M60 34H62V33.0388L61.2494 32.4383L60 34ZM40 18L41.2494 16.4383L40 15.4388L38.7506 16.4383L40 18ZM20 34L18.7506 32.4383L18 33.0388V34H20ZM20 62H18V64H20V62ZM60 62V64H62V62H60ZM61.2494 32.4383L41.2494 16.4383L38.7506 19.5617L58.7506 35.5617L61.2494 32.4383ZM38.7506 16.4383L18.7506 32.4383L21.2494 35.5617L41.2494 19.5617L38.7506 16.4383ZM18 34L18 62H22L22 34H18ZM20 64H60V60L20 60V64ZM62 62L62 34H58L58 62H62Z" fill="currentColor" />
  </g>
  <path d="M67.5 40L64.5 37.6L40 18L15.5 37.6L12.5 40" stroke="currentColor" stroke-width="4" stroke-linecap="square" />
  <path fill-rule="evenodd" clip-rule="evenodd" d="M55 30V19H49V25.2L55 30Z" fill="currentColor" />
  <path d="M55 19H57V17H55V19ZM55 30L53.7506 31.5617L57 34.1613V30H55ZM49 19V17H47V19H49ZM49 25.2H47V26.1612L47.7506 26.7617L49 25.2ZM53 19V30H57V19H53ZM49 21H55V17H49V21ZM51 25.2V19H47V25.2H51ZM47.7506 26.7617L53.7506 31.5617L56.2494 28.4383L50.2494 23.6383L47.7506 26.7617Z" fill="currentColor" />
  <path opacity="0.5" d="M40 29.625L43.182 36.3277L49 44.9764L46.364 51.0919L40 53.625L33.636 51.0919L31 44.9764L36.818 36.3277L40 29.625Z" fill="currentColor" />
</svg>