<svg viewBox="0 0 80 80" fill="none">
  <circle opacity="0.25" cx="40" cy="40" r="28" fill="currentColor" />
  <path d="M38.1494 53.5253V55.5253H42.1494V53.5253H38.1494ZM42.1494 31.1253V29.1253H38.1494V31.1253H42.1494ZM42 23.9253V21.9253H38V23.9253H42ZM38 25.5253V27.5253H42V25.5253H38ZM31.1494 29.1253H29.1494V33.1253H31.1494V29.1253ZM40.1494 33.1253H42.1494V29.1253H40.1494V33.1253ZM31 51.5253H29V55.5253H31V51.5253ZM49 55.5253H51V51.5253H49V55.5253ZM42.1494 53.5253V31.1253H38.1494V53.5253H42.1494ZM38 23.9253V25.5253H42V23.9253H38ZM31.1494 33.1253H40.1494V29.1253H31.1494V33.1253ZM31 55.5253H49V51.5253H31V55.5253Z" fill="currentColor" />
</svg>