<svg viewBox="0 0 80 80" fill="none">
  <path opacity="0.25" fill-rule="evenodd" clip-rule="evenodd" d="M26.3511 48.4397L29.4487 44.0005H50.5514L53.6491 48.4397L50.9457 61.9758L40.0001 68L29.0544 61.9758L26.3511 48.4397Z" fill="currentColor" />
  <path opacity="0.5" fill-rule="evenodd" clip-rule="evenodd" d="M33.8989 31.2178L38.105 22.1045L40.0002 23.9997L41.8942 22.1057L46.1 31.2183L55.0007 28.0001L57.5004 30.4997L55.0002 32.9999L55.0005 33.0003L52.0002 36.0001V39.0001V44.0001H51.9993L51.9993 44.0001H27.9993L28.0001 43.9984V36.0001L24.9998 33.0003L25.0002 32.9999L22.5 30.4997L24.9996 28.0001L33.8989 31.2178Z" fill="currentColor" />
  <path d="M20 28L25 33L20 38L15 33L20 28Z" fill="currentColor" stroke="currentColor" stroke-width="4" stroke-linecap="square" />
  <path d="M40 14L45 19L40 24L35 19L40 14Z" fill="currentColor" stroke="currentColor" stroke-width="4" stroke-linecap="square" />
  <path d="M60 28L65 33L60 38L55 33L60 28Z" fill="currentColor" stroke="currentColor" stroke-width="4" stroke-linecap="square" />
  <path d="M39.9995 49L43.9995 53L39.9995 57L35.9995 53L39.9995 49Z" fill="currentColor" stroke="currentColor" stroke-width="4" stroke-linecap="square" />
</svg>