<svg viewBox="0 0 80 80" fill="none">
  <g opacity="0.25">
    <path fill-rule="evenodd" clip-rule="evenodd" d="M53 61.5508H36.4462V61.5507V61.5506L24.001 61.5506L12.001 41.5506L24.001 21.5506L46.0005 21.5506L54.0081 7.31494L69 33.5508L53 61.5508Z" fill="currentColor" />
    <path d="M36.4462 61.5508H34.4462V63.5508H36.4462V61.5508ZM53 61.5508V63.5508H54.1606L54.7365 62.5431L53 61.5508ZM36.4462 61.5506H38.4462V59.5506H36.4462V61.5506ZM24.001 61.5506L22.286 62.5795L22.8686 63.5506H24.001L24.001 61.5506ZM12.001 41.5506L10.286 40.5216L9.6686 41.5506L10.286 42.5795L12.001 41.5506ZM24.001 21.5506V19.5506H22.8686L22.286 20.5216L24.001 21.5506ZM46.0005 21.5506V23.5506H47.1702L47.7437 22.5311L46.0005 21.5506ZM54.0081 7.31494L55.7445 6.32266L53.9944 3.25984L52.2649 6.33442L54.0081 7.31494ZM69 33.5508L70.7365 34.5431L71.3035 33.5508L70.7365 32.5585L69 33.5508ZM36.4462 63.5508H53V59.5508H36.4462V63.5508ZM34.4462 61.5507V61.5508H38.4462V61.5507H34.4462ZM34.4462 61.5506V61.5507H38.4462V61.5506H34.4462ZM36.4462 59.5506L24.001 59.5506L24.001 63.5506L36.4462 63.5506V59.5506ZM25.716 60.5216L13.716 40.5216L10.286 42.5795L22.286 62.5795L25.716 60.5216ZM13.716 42.5795L25.716 22.5795L22.286 20.5216L10.286 40.5216L13.716 42.5795ZM24.001 23.5506L46.0005 23.5506V19.5506L24.001 19.5506V23.5506ZM52.2649 6.33442L44.2574 20.57L47.7437 22.5311L55.7512 8.29546L52.2649 6.33442ZM70.7365 32.5585L55.7445 6.32266L52.2716 8.30722L67.2635 34.5431L70.7365 32.5585ZM54.7365 62.5431L70.7365 34.5431L67.2635 32.5585L51.2635 60.5585L54.7365 62.5431Z" fill="currentColor" />
  </g>
  <path d="M9.18699 68.0126L8.63561 69.8082L12.8261 70.3808L13.3775 68.5853L9.18699 68.0126ZM15.5856 54.2852L13.9656 53.2184L13.6221 53.57L13.4904 53.9988L15.5856 54.2852ZM35.3247 34.0835L34.7337 32.3919L34.1249 32.5867L33.7048 33.0167L35.3247 34.0835ZM49.5909 31.4004L51.6753 30.7336L50.4933 27.3505L48.4089 28.0173L49.5909 31.4004ZM13.3775 68.5853L17.6808 54.5715L13.4904 53.9988L9.18699 68.0126L13.3775 68.5853ZM17.2056 55.352L36.9447 35.1503L33.7048 33.0167L13.9656 53.2184L17.2056 55.352ZM35.9158 35.7751L49.5909 31.4004L48.4089 28.0173L34.7337 32.3919L35.9158 35.7751Z" fill="currentColor" />
</svg>