<svg viewBox="0 0 80 80" fill="none">
  <path opacity="0.25" fill-rule="evenodd" clip-rule="evenodd" d="M67.7129 24L40 8L12.2872 24L12.2872 56L40 72L67.7129 56V24ZM55.5885 30.9999L40 21.9999L24.4116 30.9999L24.4116 48.9999L40 57.9999L55.5885 48.9999V30.9999Z" fill="currentColor" />
  <path fill-rule="evenodd" clip-rule="evenodd" d="M12.2872 46.0117L12.2872 33.9883L24.4116 33.9711L24.4116 46.0289L12.2872 46.0117ZM46.0106 68.5298L40 72L33.9895 68.5298L33.9696 54.5183L40 57.9999L46.0305 54.5182L46.0106 68.5298ZM67.7129 33.9883V46.0117L55.5885 46.0289V33.9711L67.7129 33.9883ZM46.0106 11.4702L40 8L33.9895 11.4702L33.9696 25.4816L40 21.9999L46.0305 25.4816L46.0106 11.4702Z" fill="currentColor" />
</svg>