<svg viewBox="0 0 80 80" fill="none">
  <path opacity="0.25" fill-rule="evenodd" clip-rule="evenodd" d="M39.9999 7L20.2819 58.267L34.9999 49.8567L34.9999 69.1724L44.9999 69.1724L44.9999 49.8576L59.7185 58.2683L39.9999 7Z" fill="currentColor" />
  <path fill-rule="evenodd" clip-rule="evenodd" d="M20.2819 58.267L39.9999 7L59.7185 58.2683L39.999 47L20.2819 58.267Z" fill="currentColor" />
  <path d="M39.9999 7L38.1332 6.28204L39.9999 1.42864L41.8666 6.28204L39.9999 7ZM20.2819 58.267L21.2741 60.0035L16.3999 62.7887L18.4152 57.549L20.2819 58.267ZM59.7185 58.2683L61.5852 57.5503L63.6005 62.79L58.7262 60.0048L59.7185 58.2683ZM39.999 47L39.0068 45.2635L39.999 44.6965L40.9913 45.2635L39.999 47ZM41.8666 7.71796L22.1486 58.9849L18.4152 57.549L38.1332 6.28204L41.8666 7.71796ZM57.8518 58.9862L38.1332 7.71796L41.8666 6.28204L61.5852 57.5503L57.8518 58.9862ZM58.7262 60.0048L39.0068 48.7365L40.9913 45.2635L60.7108 56.5318L58.7262 60.0048ZM40.9913 48.7365L21.2741 60.0035L19.2896 56.5305L39.0068 45.2635L40.9913 48.7365Z" fill="currentColor" />
</svg>