<svg viewBox="0 0 80 80" fill="none">
  <path opacity="0.25" d="M34.9282 62H32.9282V58H34.9282V62ZM56 60H58V62H56V60ZM16 20H14V18H16V20ZM49.0718 18H51.0718V22H49.0718V18ZM56 43V41H58V43H56ZM16 43V45H14V43H16ZM34.9282 58H56V62H34.9282V58ZM16 18H49.0718V22H16V18ZM54 60V43H58V60H54ZM56 45H16V41H56V45ZM14 43V20H18V43H14Z" fill="currentColor" />
  <path d="M28 68L34.9282 64V56L28 52L21.0718 56V64L28 68Z" fill="currentColor" stroke="currentColor" stroke-width="4" stroke-linecap="square" />
  <path d="M56 28L62.9282 24V16L56 12L49.0718 16V24L56 28Z" fill="currentColor" stroke="currentColor" stroke-width="4" stroke-linecap="square" />
</svg>