<svg viewBox="0 0 80 80" fill="none">
  <path opacity="0.25" fill-rule="evenodd" clip-rule="evenodd" d="M32.1127 76.1127H48.1127L48.1127 14.1127L41.7127 6.11267L40.9127 5.11267L40.1127 4.11267L39.3127 5.11267L38.5127 6.11267L32.1127 14.1127L32.1127 76.1127Z" fill="currentColor" />
  <path opacity="0.5" fill-rule="evenodd" clip-rule="evenodd" d="M32.1127 69.6127H48.1039C48.1068 69.6127 48.1097 69.6127 48.1127 69.6126V66.6127C48.1097 66.6127 48.1068 66.6127 48.1039 66.6127H32.1127V69.6127ZM32.1127 20.2346L35.0495 23.173C35.3308 23.4545 35.7125 23.6127 36.1105 23.6127C36.5084 23.6127 36.8901 23.4545 37.1714 23.173L40.1083 20.2346L43.0451 23.173C43.3265 23.4545 43.7081 23.6127 44.1061 23.6127C44.504 23.6127 44.8857 23.4545 45.167 23.173L48.1127 20.2258V16.6127C47.7257 16.6104 47.3381 16.757 47.0429 17.0523L44.1061 19.9908L41.1692 17.0523C40.8879 16.7708 40.5062 16.6127 40.1083 16.6127C39.7103 16.6127 39.3287 16.7708 39.0473 17.0523L36.1105 19.9908L33.1736 17.0523C32.8807 16.7592 32.4967 16.6127 32.1127 16.6127V20.2346Z" fill="currentColor" />
  <path fill-rule="evenodd" clip-rule="evenodd" d="M35.315 10.1097L38.5126 6.11267L39.3126 5.11267L40.1126 4.11267L40.9126 5.11267L41.7126 6.11267L44.9103 10.1097L35.315 10.1097Z" fill="currentColor" />
  <path d="M40.1083 62.1127L40.1083 29.1127" stroke="currentColor" stroke-width="4" stroke-linecap="square" />
</svg>