<svg viewBox="0 0 80 80" fill="none">
  <path d="M32 16H48.5714L64 34H32V16Z" fill="currentColor" />
  <path opacity="0.5" fill-rule="evenodd" clip-rule="evenodd" d="M72 34H64V49.6569L65.6569 50.3431L67.1716 54H72V34Z" fill="currentColor" />
  <path opacity="0.5" fill-rule="evenodd" clip-rule="evenodd" d="M32 34H8V54H13.8284L15.3431 50.3431L21 48L26.6569 50.3431L28.1716 54H32V34Z" fill="currentColor" />
  <path opacity="0.5" fill-rule="evenodd" clip-rule="evenodd" d="M32 34H64V49.6569L60 48L54.3431 50.3431L52.8284 54H32V34ZM34.5 37H36H40H41.5V40H40H36H34.5V37Z" fill="currentColor" />
  <path d="M21 48L26.6569 50.3431L29 56L26.6569 61.6569L21 64L15.3431 61.6569L13 56L15.3431 50.3431L21 48Z" fill="currentColor" />
  <path d="M60 48L65.6569 50.3431L68 56L65.6569 61.6569L60 64L54.3431 61.6569L52 56L54.3431 50.3431L60 48Z" fill="currentColor" />
</svg>