<svg viewBox="0 0 80 80" fill="none">
  <g opacity="0.25">
    <path fill-rule="evenodd" clip-rule="evenodd" d="M43.4995 16.501V12.501L35.4995 12.501V16.501L35.4995 42.501L35.4995 46.501L43.4995 46.501L43.4995 42.501L43.4995 16.501ZM57.5999 22.2911L54.1358 20.2911L50.1358 27.2193L53.5999 29.2193L56.2848 30.7694L56.2848 50.1506L39.5002 59.8412L22.7156 50.1506L22.7156 30.7694L24.4515 29.7672L27.9156 27.7672L23.9156 20.839L20.4515 22.839L16.7156 24.9959L14.7156 26.1506V28.46L14.7156 52.46V54.7694L16.7156 55.9241L37.5002 67.9241L39.5002 69.0788L41.5002 67.9241L62.2848 55.9241L64.2848 54.7694V52.46V28.46V26.1506L62.2848 24.9959L57.5999 22.2911Z" fill="currentColor" />
    <path d="M43.4995 12.501H45.4995V10.501H43.4995V12.501ZM43.4995 16.501H41.4995V16.501L43.4995 16.501ZM35.4995 12.501V10.501H33.4995V12.501H35.4995ZM35.4995 16.501H33.4995H35.4995ZM35.4995 42.501H37.4995H35.4995ZM35.4995 46.501H33.4995V48.501H35.4995V46.501ZM43.4995 46.501V48.501H45.4995V46.501H43.4995ZM43.4995 42.501H45.4995H43.4995ZM54.1358 20.2911L55.1358 18.559L53.4038 17.559L52.4038 19.2911L54.1358 20.2911ZM57.5999 22.2911L56.5999 24.0231L57.5999 22.2911ZM50.1358 27.2193L48.4038 26.2193L47.4038 27.9513L49.1358 28.9513L50.1358 27.2193ZM53.5999 29.2193L52.5999 30.9513V30.9513L53.5999 29.2193ZM56.2848 30.7694H58.2848V29.6147L57.2848 29.0374L56.2848 30.7694ZM56.2848 50.1506L57.2848 51.8827L58.2848 51.3053V50.1506H56.2848ZM39.5002 59.8412L38.5002 61.5733L39.5002 62.1506L40.5002 61.5733L39.5002 59.8412ZM22.7156 50.1506H20.7156V51.3053L21.7156 51.8827L22.7156 50.1506ZM22.7156 30.7694L21.7156 29.0374L20.7156 29.6147V30.7694H22.7156ZM24.4515 29.7672L23.4515 28.0351H23.4515L24.4515 29.7672ZM27.9156 27.7672L28.9156 29.4992L30.6477 28.4992L29.6477 26.7672L27.9156 27.7672ZM23.9156 20.839L25.6477 19.839L24.6477 18.1069L22.9156 19.1069L23.9156 20.839ZM20.4515 22.839L19.4515 21.1069L20.4515 22.839ZM16.7156 24.9959L17.7156 26.728H17.7156L16.7156 24.9959ZM14.7156 26.1506L13.7156 24.4186L12.7156 24.9959V26.1506H14.7156ZM14.7156 54.7694H12.7156V55.9241L13.7156 56.5015L14.7156 54.7694ZM16.7156 55.9241L17.7156 54.1921H17.7156L16.7156 55.9241ZM37.5002 67.9241L38.5002 66.1921L37.5002 67.9241ZM39.5002 69.0788L38.5002 70.8109L39.5002 71.3882L40.5002 70.8109L39.5002 69.0788ZM41.5002 67.9241L40.5002 66.1921L41.5002 67.9241ZM62.2848 55.9241L61.2848 54.1921H61.2848L62.2848 55.9241ZM64.2848 54.7694L65.2848 56.5015L66.2848 55.9241V54.7694H64.2848ZM64.2848 26.1506H66.2848V24.9959L65.2848 24.4186L64.2848 26.1506ZM62.2848 24.9959L61.2848 26.728L62.2848 24.9959ZM41.4995 12.501V16.501H45.4995V12.501L41.4995 12.501ZM35.4995 14.501H43.4995V10.501L35.4995 10.501V14.501ZM37.4995 16.501V12.501H33.4995V16.501H37.4995ZM37.4995 42.501L37.4995 16.501L33.4995 16.501L33.4995 42.501H37.4995ZM37.4995 46.501L37.4995 42.501H33.4995L33.4995 46.501L37.4995 46.501ZM43.4995 44.501L35.4995 44.501L35.4995 48.501L43.4995 48.501L43.4995 44.501ZM41.4995 42.501L41.4995 46.501H45.4995L45.4995 42.501H41.4995ZM41.4995 16.501L41.4995 42.501H45.4995L45.4995 16.501L41.4995 16.501ZM53.1358 22.0231L56.5999 24.0231L58.5999 20.559L55.1358 18.559L53.1358 22.0231ZM51.8679 28.2193L55.8679 21.2911L52.4038 19.2911L48.4038 26.2193L51.8679 28.2193ZM54.5999 27.4872L51.1358 25.4872L49.1358 28.9513L52.5999 30.9513L54.5999 27.4872ZM57.2848 29.0374L54.5999 27.4872L52.5999 30.9513L55.2848 32.5015L57.2848 29.0374ZM58.2848 50.1506L58.2848 30.7694H54.2848L54.2848 50.1506H58.2848ZM40.5002 61.5733L57.2848 51.8827L55.2848 48.4186L38.5002 58.1092L40.5002 61.5733ZM21.7156 51.8827L38.5002 61.5733L40.5002 58.1092L23.7156 48.4186L21.7156 51.8827ZM20.7156 30.7694L20.7156 50.1506H24.7156L24.7156 30.7694H20.7156ZM23.4515 28.0351L21.7156 29.0374L23.7156 32.5015L25.4515 31.4992L23.4515 28.0351ZM26.9156 26.0351L23.4515 28.0351L25.4515 31.4992L28.9156 29.4992L26.9156 26.0351ZM22.1836 21.839L26.1836 28.7672L29.6477 26.7672L25.6477 19.839L22.1836 21.839ZM21.4515 24.571L24.9156 22.571L22.9156 19.1069L19.4515 21.1069L21.4515 24.571ZM17.7156 26.728L21.4515 24.571L19.4515 21.1069L15.7156 23.2639L17.7156 26.728ZM15.7156 27.8827L17.7156 26.728L15.7156 23.2639L13.7156 24.4186L15.7156 27.8827ZM16.7156 28.46V26.1506H12.7156L12.7156 28.46H16.7156ZM16.7156 52.46L16.7156 28.46H12.7156L12.7156 52.46H16.7156ZM16.7156 54.7694V52.46H12.7156V54.7694H16.7156ZM17.7156 54.1921L15.7156 53.0374L13.7156 56.5015L15.7156 57.6562L17.7156 54.1921ZM38.5002 66.1921L17.7156 54.1921L15.7156 57.6562L36.5002 69.6562L38.5002 66.1921ZM40.5002 67.3468L38.5002 66.1921L36.5002 69.6562L38.5002 70.8109L40.5002 67.3468ZM40.5002 66.1921L38.5002 67.3468L40.5002 70.8109L42.5002 69.6562L40.5002 66.1921ZM61.2848 54.1921L40.5002 66.1921L42.5002 69.6562L63.2848 57.6562L61.2848 54.1921ZM63.2848 53.0374L61.2848 54.1921L63.2848 57.6562L65.2848 56.5015L63.2848 53.0374ZM62.2848 52.46V54.7694H66.2848V52.46H62.2848ZM62.2848 28.46L62.2848 52.46H66.2848V28.46H62.2848ZM62.2848 26.1506V28.46H66.2848V26.1506H62.2848ZM61.2848 26.728L63.2848 27.8827L65.2848 24.4186L63.2848 23.2639L61.2848 26.728ZM56.5999 24.0231L61.2848 26.728L63.2848 23.2639L58.5999 20.559L56.5999 24.0231Z" fill="currentColor" />
  </g>
  <path fill-rule="evenodd" clip-rule="evenodd" d="M41.4995 16.501V14.501L37.4995 14.501V16.501L37.4995 42.501V44.501H41.4995V42.501L41.4995 16.501ZM56.5999 24.0231L54.8679 23.0231L52.8679 26.4872L54.5999 27.4872L58.2848 29.6147L58.2848 51.3053L39.5002 62.1506L20.7156 51.3053L20.7156 29.6147L23.4515 28.0351L25.1836 27.0351L23.1836 23.571L21.4515 24.571L17.7156 26.728L16.7156 27.3053V28.46L16.7156 52.46V53.6147L17.7156 54.1921L38.5002 66.1921L39.5002 66.7694L40.5002 66.1921L61.2848 54.1921L62.2848 53.6147V52.46L62.2848 28.46V27.3053L61.2848 26.728L56.5999 24.0231Z" fill="currentColor" />
</svg>