<svg viewBox="0 0 80 80" fill="none">
  <path fill-rule="evenodd" clip-rule="evenodd" d="M27.0308 33.5996L29.7115 36.2803L29.9086 37.0386L30.3575 36.9263L30.3575 36.9264L28.0631 37.5V43.5L29.7118 43.0878L26.1318 48.2184L28.552 60.337L14.2808 47.8496V38.8496L19.5308 33.5996H27.0308ZM49.7304 42.9168L53.4298 48.2184L51.0095 60.337L65.2808 47.8496V38.8496L60.0308 33.5996H52.5308L50.4421 35.6883L50.0988 37.0089L52.0631 37.5V43.5L49.7304 42.9168Z" fill="currentColor" />
  <path opacity="0.25" fill-rule="evenodd" clip-rule="evenodd" d="M29.7337 43.0818L26.1494 48.2184L28.8528 61.7546L39.7984 67.7788L50.744 61.7546L53.4474 48.2184L49.7513 42.9216L40.0629 40.4995L29.7337 43.0818Z" fill="currentColor" />
  <path opacity="0.25" fill-rule="evenodd" clip-rule="evenodd" d="M54.6892 19.3486L52.6737 27.1025L52.3104 28.5L50.0986 37.009L40.0627 34.5L29.9084 37.0386L27.689 28.5L27.3257 27.1025L25.3105 19.35L31.4999 25.2572L36.663 22.9748L39.9991 14.5L43.335 22.9742L48.4988 25.2569L54.6892 19.3486Z" fill="currentColor" />
  <path opacity="0.5" d="M28.063 37.5L40.063 34.5L52.063 37.5V43.5L40.063 40.5L28.063 43.5V37.5Z" fill="currentColor" />
</svg>