<svg viewBox="0 0 80 80" fill="none">
  <path opacity="0.25" d="M60 33.5H36.5V50.5H60V67.5H20" stroke="currentColor" stroke-width="4" stroke-linecap="square" />
  <path fill-rule="evenodd" clip-rule="evenodd" d="M12 45.4019H28V56.4019L20.0158 67.3801L20 67.4019L19.9842 67.3801L12 56.4019V45.4019ZM24 53.3128L20 49.3842L16 53.3128L20 57.2414L24 53.3128Z" fill="currentColor" />
  <path d="M28 45.4019H30V43.4019H28V45.4019ZM12 45.4019V43.4019H10V45.4019H12ZM28 56.4019L29.6175 57.5782L30 57.0522V56.4019H28ZM20.0158 67.3801L18.3983 66.2038L18.3983 66.2038L20.0158 67.3801ZM20 67.4019L18.3825 68.5782L20 70.8023L21.6175 68.5782L20 67.4019ZM19.9842 67.3801L21.6017 66.2038L21.6017 66.2038L19.9842 67.3801ZM12 56.4019H10V57.0522L10.3825 57.5782L12 56.4019ZM20 49.3842L21.4014 47.9573L20 46.5809L18.5986 47.9573L20 49.3842ZM24 53.3128L25.4014 54.7397L26.8543 53.3128L25.4014 51.8859L24 53.3128ZM16 53.3128L14.5986 51.8859L13.1457 53.3128L14.5986 54.7397L16 53.3128ZM20 57.2414L18.5986 58.6683L20 60.0447L21.4014 58.6683L20 57.2414ZM28 43.4019H12V47.4019H28V43.4019ZM30 56.4019V45.4019H26V56.4019H30ZM21.6333 68.5565L29.6175 57.5782L26.3825 55.2255L18.3983 66.2038L21.6333 68.5565ZM21.6175 68.5782L21.6333 68.5564L18.3983 66.2038L18.3825 66.2255L21.6175 68.5782ZM18.3667 68.5564L18.3825 68.5782L21.6175 66.2255L21.6017 66.2038L18.3667 68.5564ZM10.3825 57.5782L18.3667 68.5565L21.6017 66.2038L13.6175 55.2255L10.3825 57.5782ZM10 45.4019V56.4019H14V45.4019H10ZM18.5986 50.8111L22.5986 54.7397L25.4014 51.8859L21.4014 47.9573L18.5986 50.8111ZM17.4014 54.7397L21.4014 50.8111L18.5986 47.9573L14.5986 51.8859L17.4014 54.7397ZM21.4014 55.8145L17.4014 51.8859L14.5986 54.7397L18.5986 58.6683L21.4014 55.8145ZM22.5986 51.8859L18.5986 55.8145L21.4014 58.6683L25.4014 54.7397L22.5986 51.8859Z" fill="currentColor" />
  <path fill-rule="evenodd" clip-rule="evenodd" d="M52 11.9038H68V22.6538L60.0158 33.3826L60 33.4038L59.9842 33.3826L52 22.6538V11.9038ZM64 19.635L60 15.7957L56 19.635L60 23.4742L64 19.635Z" fill="currentColor" />
  <path d="M68 11.9038H70V9.90381H68V11.9038ZM52 11.9038V9.90381H50V11.9038H52ZM68 22.6538L69.6045 23.8478L70 23.3163V22.6538H68ZM60.0158 33.3826L58.4113 32.1886L58.4113 32.1886L60.0158 33.3826ZM60 33.4038L58.3955 34.5978L60 36.7539L61.6045 34.5978L60 33.4038ZM59.9842 33.3826L61.5887 32.1886L61.5887 32.1886L59.9842 33.3826ZM52 22.6538H50V23.3163L50.3955 23.8478L52 22.6538ZM60 15.7957L61.3849 14.3528L60 13.0235L58.6151 14.3528L60 15.7957ZM64 19.635L65.3849 21.0779L66.8882 19.635L65.3849 18.1921L64 19.635ZM56 19.635L54.6151 18.1921L53.1118 19.635L54.6151 21.0779L56 19.635ZM60 23.4742L58.6151 24.9171L60 26.2464L61.3849 24.9171L60 23.4742ZM68 9.90381H52V13.9038H68V9.90381ZM70 22.6538V11.9038H66V22.6538H70ZM61.6203 34.5766L69.6045 23.8478L66.3955 21.4598L58.4113 32.1886L61.6203 34.5766ZM61.6045 34.5978L61.6203 34.5766L58.4113 32.1886L58.3955 32.2098L61.6045 34.5978ZM58.3797 34.5766L58.3955 34.5978L61.6045 32.2098L61.5887 32.1886L58.3797 34.5766ZM50.3955 23.8478L58.3797 34.5766L61.5887 32.1886L53.6045 21.4598L50.3955 23.8478ZM50 11.9038V22.6538H54V11.9038H50ZM58.6151 17.2386L62.6151 21.0779L65.3849 18.1921L61.3849 14.3528L58.6151 17.2386ZM57.3849 21.0779L61.3849 17.2386L58.6151 14.3528L54.6151 18.1921L57.3849 21.0779ZM61.3849 22.0313L57.3849 18.1921L54.6151 21.0779L58.6151 24.9171L61.3849 22.0313ZM62.6151 18.1921L58.6151 22.0313L61.3849 24.9171L65.3849 21.0779L62.6151 18.1921Z" fill="currentColor" />
</svg>