<svg viewBox="0 0 80 80" fill="none">
  <path fill-rule="evenodd" clip-rule="evenodd" d="M21 60.9512V68.9512H29V60.9512H21ZM51 60.9512V68.9512H59V60.9512H51Z" fill="currentColor" />
  <path opacity="0.5" fill-rule="evenodd" clip-rule="evenodd" d="M20 23.9512H14V35.9512H20V23.9512ZM60 35.9512H66V23.9512H60V35.9512Z" fill="currentColor" />
  <g opacity="0.25">
    <path fill-rule="evenodd" clip-rule="evenodd" d="M60 15.4613V38.9512H20V15.4613L30.0202 11H49.9798L60 15.4613Z" fill="currentColor" />
  </g>
  <rect x="20" y="22.9512" width="40" height="16" fill="currentColor" />
  <g opacity="0.25">
    <path d="M16 38.9512H64V60.9512H16V38.9512Z" fill="currentColor" />
  </g>
  <g opacity="0.5">
    <path fill-rule="evenodd" clip-rule="evenodd" d="M29 46.9512H23V52.9512H29V46.9512ZM57 46.9512H51V52.9512H57V46.9512Z" fill="currentColor" />
    <path d="M23 46.9512V44.9512H21V46.9512H23ZM29 46.9512H31V44.9512H29V46.9512ZM23 52.9512H21V54.9512H23V52.9512ZM29 52.9512V54.9512H31V52.9512H29ZM51 46.9512V44.9512H49V46.9512H51ZM57 46.9512H59V44.9512H57V46.9512ZM51 52.9512H49V54.9512H51V52.9512ZM57 52.9512V54.9512H59V52.9512H57ZM23 48.9512H29V44.9512H23V48.9512ZM25 52.9512V46.9512H21V52.9512H25ZM29 50.9512H23V54.9512H29V50.9512ZM27 46.9512V52.9512H31V46.9512H27ZM51 48.9512H57V44.9512H51V48.9512ZM53 52.9512V46.9512H49V52.9512H53ZM57 50.9512H51V54.9512H57V50.9512ZM55 46.9512V52.9512H59V46.9512H55Z" fill="currentColor" />
  </g>
</svg>