<svg viewBox="0 0 80 80" fill="none">
  <g opacity="0.25">
    <path fill-rule="evenodd" clip-rule="evenodd" d="M32.7414 53.9588L42.6337 46.4861C42.8211 46.3445 42.9726 46.161 43.0761 45.9502L57.2087 17.1592C57.5597 16.4441 57.2905 15.5794 56.5957 15.1898C55.9008 14.8003 55.0227 15.0219 54.5958 15.6944L37.4766 42.6652L29.7839 52.2513L32.7414 53.9588ZM40.0645 43.1732C40.5428 43.4493 40.7067 44.0609 40.4305 44.5392C40.1544 45.0175 39.5428 45.1814 39.0645 44.9052C38.5862 44.6291 38.4223 44.0175 38.6985 43.5392C38.9746 43.0609 39.5862 42.897 40.0645 43.1732Z" fill="currentColor" />
    <path d="M25.5636 68.2895L13.4392 61.2896L21.4392 47.4331L33.5636 54.4331L25.5636 68.2895Z" stroke="currentColor" stroke-width="4" stroke-linecap="square" />
  </g>
  <path fill-rule="evenodd" clip-rule="evenodd" d="M46.386 53.9588L36.4937 46.4861C36.3064 46.3445 36.1548 46.161 36.0514 45.9502L21.9187 17.1592C21.5677 16.4441 21.8369 15.5794 22.5318 15.1898C23.2266 14.8003 24.1048 15.0219 24.5317 15.6944L41.6509 42.6652L49.3435 52.2513L46.386 53.9588ZM39.063 43.1732C38.5847 43.4493 38.4208 44.0609 38.6969 44.5392C38.9731 45.0175 39.5847 45.1814 40.063 44.9052C40.5412 44.6291 40.7051 44.0175 40.429 43.5392C40.1528 43.0609 39.5412 42.897 39.063 43.1732Z" fill="currentColor" />
  <path d="M53.5639 68.2896L65.6882 61.2896L57.6882 47.4331L45.5639 54.4331L53.5639 68.2896Z" stroke="currentColor" stroke-width="4" stroke-linecap="square" />
</svg>