<svg viewBox="0 0 80 80" fill="none">
  <path opacity="0.5" fill-rule="evenodd" clip-rule="evenodd" d="M54.8432 57.3232L65.3679 67.8478C66.1489 68.6289 67.4152 68.6289 68.1963 67.8478C68.9773 67.0668 68.9773 65.8005 68.1963 65.0194L57.4705 54.2936L56.7992 56.7991L54.8432 57.3232Z" fill="currentColor" />
  <path opacity="0.25" d="M17.2011 17.201L44.247 9.95408L64.046 29.7531L56.7991 56.799L29.7531 64.0459L9.95416 44.2469L17.2011 17.201Z" fill="currentColor" />
  <path d="M20.8485 32.6686L20.3308 34.6004L24.1945 35.6357L24.7122 33.7039L20.8485 32.6686ZM24.9797 24.9781L24.462 23.0462L23.3467 23.3451L23.0478 24.4605L24.9797 24.9781ZM41.913 22.5114L43.8448 21.9937L42.8096 18.13L40.8777 18.6477L41.913 22.5114ZM24.7122 33.7039L26.9115 25.4957L23.0478 24.4605L20.8485 32.6686L24.7122 33.7039ZM25.4973 26.9099L41.913 22.5114L40.8777 18.6477L24.462 23.0462L25.4973 26.9099Z" fill="currentColor" />
  <path d="M17.2011 17.201L44.247 9.95408L64.046 29.7531L56.7991 56.799L29.7531 64.0459L9.95416 44.2469L17.2011 17.201Z" stroke="currentColor" stroke-width="4" stroke-linecap="square" />
</svg>