<svg viewBox="0 0 80 80" fill="none">
  <g opacity="0.25">
    <path fill-rule="evenodd" clip-rule="evenodd" d="M63.4534 67.7488L50.7249 55.0169C49.5542 53.846 49.5544 51.9477 50.7252 50.7769C51.8963 49.6058 53.795 49.6059 54.9659 50.7771L67.6944 63.509C68.865 64.68 68.8649 66.5783 67.6941 67.7491C66.523 68.9202 64.6243 68.92 63.4534 67.7488Z" fill="currentColor" />
    <path d="M50.7249 55.0169L52.1393 53.6029H52.1393L50.7249 55.0169ZM63.4534 67.7488L64.8678 66.3348L63.4534 67.7488ZM50.7252 50.7769L49.311 49.3626L49.311 49.3626L50.7252 50.7769ZM54.9659 50.7771L53.5515 52.1912V52.1912L54.9659 50.7771ZM67.6944 63.509L69.1088 62.095L67.6944 63.509ZM67.6941 67.7491L69.1083 69.1633V69.1633L67.6941 67.7491ZM50.9281 48.153L49.5139 46.7388L46.6855 49.5673L48.0997 50.9815L50.9281 48.153ZM49.3101 52.1919L50.7244 53.6061L53.5528 50.7777L52.1386 49.3635L49.3101 52.1919ZM49.3104 52.1916L50.7246 53.6058L53.5531 50.7774L52.1389 49.3632L49.3104 52.1916ZM50.9286 48.1529L49.5144 46.7387L46.6859 49.5671L48.1001 50.9814L50.9286 48.1529ZM49.3105 56.431L62.039 69.1629L64.8678 66.3348L52.1393 53.6029L49.3105 56.431ZM49.311 49.3626C47.3592 51.3144 47.359 54.4789 49.3105 56.431L52.1393 53.6029C51.7495 53.213 51.7496 52.5809 52.1394 52.1911L49.311 49.3626ZM56.3803 49.3631C54.4283 47.4107 51.2632 47.4105 49.311 49.3626L52.1394 52.1911C52.5294 51.8011 53.1616 51.8012 53.5515 52.1912L56.3803 49.3631ZM69.1088 62.095L56.3803 49.3631L53.5515 52.1912L66.28 64.923L69.1088 62.095ZM69.1083 69.1633C71.0601 67.2115 71.0603 64.0471 69.1088 62.095L66.28 64.923C66.6698 65.313 66.6697 65.945 66.2799 66.3349L69.1083 69.1633ZM62.039 69.1629C63.9909 71.1153 67.1561 71.1155 69.1083 69.1633L66.2799 66.3349C65.8899 66.7248 65.2577 66.7248 64.8678 66.3348L62.039 69.1629ZM48.0997 50.9815L49.3101 52.1919L52.1386 49.3635L50.9281 48.153L48.0997 50.9815ZM52.1389 49.3632L50.9286 48.1529L48.1001 50.9814L49.3104 52.1916L52.1389 49.3632Z" fill="currentColor" />
  </g>
  <path d="M18.4436 18.4437L39.6939 12.7496L55.2503 28.306L49.5563 49.5563L28.3059 55.2504L12.7495 39.694L18.4436 18.4437Z" fill="currentColor" />
</svg>