<svg viewBox="0 0 80 80" fill="none">
  <g opacity="0.5">
    <path fill-rule="evenodd" clip-rule="evenodd" d="M71 20.9998L64 48.9998H26L19 20.9998H71Z" fill="currentColor" />
    <path d="M64 48.9998V50.9998H65.5616L65.9403 49.4848L64 48.9998ZM71 20.9998L72.9403 21.4848L73.5616 18.9998H71V20.9998ZM26 48.9998L24.0597 49.4848L24.4384 50.9998H26V48.9998ZM19 20.9998V18.9998H16.4384L17.0597 21.4848L19 20.9998ZM65.9403 49.4848L72.9403 21.4848L69.0597 20.5147L62.0597 48.5147L65.9403 49.4848ZM26 50.9998H64V46.9998H26V50.9998ZM17.0597 21.4848L24.0597 49.4848L27.9403 48.5147L20.9403 20.5147L17.0597 21.4848ZM71 18.9998H19V22.9998H71V18.9998Z" fill="currentColor" />
  </g>
  <path fill-rule="evenodd" clip-rule="evenodd" d="M7 11H9H17H18.5616L18.9403 12.5149L30.2734 57.8472L30.25 57.8337L29 57.112L27.75 57.8337L26.3491 58.6425L15.4384 15H9H7V11ZM35.4462 60.8337L32.2701 59H58.7299L55.5538 60.8337L54.3038 61.5554V62.9988V63H36.6962V62.9988V61.5554L35.4462 60.8337ZM62.1983 63H62H61.8017L62 62.8855L62.1983 63ZM29 62.8855L29.1983 63H29H28.8017L29 62.8855Z" fill="currentColor" />
  <path opacity="0.25" d="M29 59.9988L34.1962 62.9988V68.9988L29 71.9988L23.8038 68.9988V62.9988L29 59.9988Z" fill="currentColor" stroke="currentColor" stroke-width="4" stroke-linecap="square" />
  <path opacity="0.25" d="M62 59.9988L67.1962 62.9988V68.9988L62 71.9988L56.8038 68.9988V62.9988L62 59.9988Z" fill="currentColor" stroke="currentColor" stroke-width="4" stroke-linecap="square" />
</svg>