<svg viewBox="0 0 80 80" fill="none">
  <path opacity="0.5" d="M52.4678 3L69.4383 19.9706L35.1464 46.4898L34.4393 45.7827L26.6611 38.0045L25.954 37.2974L52.4678 3Z" fill="currentColor" />
  <path opacity="0.5" d="M39.0328 41.8909L30.5475 33.4056" stroke="currentColor" stroke-width="4" stroke-linecap="round" stroke-linejoin="round" />
  <path opacity="0.25" fill-rule="evenodd" clip-rule="evenodd" d="M34.3659 45.7092L34.7901 46.1335L32.6688 56.7401L11.4556 63.5283L10.8899 62.9626L21.4484 52.4041L27.5472 50.77L21.6684 44.8912L20.0343 50.9898L9.47569 61.5484L8.91001 60.9827L15.6982 39.7695L26.3048 37.6482L26.7291 38.0725L34.3659 45.7092Z" fill="currentColor" />
  <path d="M8.55566 72H24.4354L31.7455 66L33.0557 67.0753L39.0557 72H47.5557L55.8057 49L56.3437 50.5L64.0557 72H71.5557H72.5557" stroke="currentColor" stroke-width="4" stroke-linecap="square" />
</svg>