<svg viewBox="0 0 80 80" fill="none">
  <g opacity="0.25">
    <path fill-rule="evenodd" clip-rule="evenodd" d="M19.5 67.5L19.5 63.5L19.5 51.5V47.5L11.5 47.5L11.5 51.5L11.5 63.5L11.5 67.5H19.5Z" fill="currentColor" />
    <path d="M19.5 63.5H17.5H19.5ZM19.5 67.5V69.5H21.5V67.5H19.5ZM19.5 51.5H21.5H19.5ZM19.5 47.5L21.5 47.5V45.5H19.5V47.5ZM11.5 47.5L11.5 45.5L9.5 45.5V47.5L11.5 47.5ZM11.5 51.5H13.5H11.5ZM11.5 63.5H9.5H11.5ZM11.5 67.5H9.5L9.5 69.5H11.5L11.5 67.5ZM17.5 63.5L17.5 67.5H21.5L21.5 63.5H17.5ZM17.5 51.5L17.5 63.5H21.5L21.5 51.5H17.5ZM17.5 47.5V51.5H21.5V47.5L17.5 47.5ZM11.5 49.5L19.5 49.5V45.5L11.5 45.5L11.5 49.5ZM13.5 51.5L13.5 47.5L9.5 47.5L9.5 51.5H13.5ZM13.5 63.5L13.5 51.5H9.5L9.5 63.5H13.5ZM13.5 67.5L13.5 63.5H9.5L9.5 67.5H13.5ZM19.5 65.5H11.5L11.5 69.5H19.5V65.5Z" fill="currentColor" />
  </g>
</svg>