<svg viewBox="0 0 80 80" fill="none">
  <g opacity="0.25">
    <path fill-rule="evenodd" clip-rule="evenodd" d="M58.2895 16.5672L40.2914 10.4844L22.2934 16.5672L12.7168 31.9695L16.0427 49.4844L25.7914 57.0802V62V64.5H30.7914V62V60.9164H38.2914V62V64.5H43.2914V62V60.9164H49.868L50.7914 60.1969V62V64.5H55.7914V62V56.3011L64.5401 49.4844L67.866 31.9695L58.2895 16.5672Z" fill="currentColor" />
    <path d="M40.2914 10.4844L40.9318 8.58966L40.2914 8.37324L39.6511 8.58966L40.2914 10.4844ZM58.2895 16.5672L59.9879 15.5112L59.6092 14.9021L58.9298 14.6725L58.2895 16.5672ZM22.2934 16.5672L21.653 14.6725L20.9736 14.9021L20.5949 15.5112L22.2934 16.5672ZM12.7168 31.9695L11.0183 30.9135L10.6063 31.5761L10.7519 32.3426L12.7168 31.9695ZM16.0427 49.4844L14.0778 49.8575L14.2185 50.5985L14.8135 51.062L16.0427 49.4844ZM25.7914 57.0802H27.7914V56.1031L27.0207 55.5026L25.7914 57.0802ZM25.7914 64.5H23.7914V66.5H25.7914V64.5ZM30.7914 64.5V66.5H32.7914V64.5H30.7914ZM30.7914 60.9164V58.9164H28.7914V60.9164H30.7914ZM38.2914 60.9164H40.2914V58.9164H38.2914V60.9164ZM38.2914 64.5H36.2914V66.5H38.2914V64.5ZM43.2914 64.5V66.5H45.2914V64.5H43.2914ZM43.2914 60.9164V58.9164H41.2914V60.9164H43.2914ZM49.868 60.9164V62.9164H50.5552L51.0972 62.494L49.868 60.9164ZM50.7914 60.1969H52.7914V56.1031L49.5622 58.6192L50.7914 60.1969ZM50.7914 64.5H48.7914V66.5H50.7914V64.5ZM55.7914 64.5V66.5H57.7914V64.5H55.7914ZM55.7914 56.3011L54.5622 54.7234L53.7914 55.324V56.3011H55.7914ZM64.5401 49.4844L65.7694 51.062L66.3643 50.5985L66.505 49.8575L64.5401 49.4844ZM67.866 31.9695L69.8309 32.3426L69.9765 31.5761L69.5645 30.9135L67.866 31.9695ZM39.6511 12.3791L57.6491 18.4619L58.9298 14.6725L40.9318 8.58966L39.6511 12.3791ZM22.9337 18.4619L40.9318 12.3791L39.6511 8.58966L21.653 14.6725L22.9337 18.4619ZM14.4153 33.0256L23.9918 17.6233L20.5949 15.5112L11.0183 30.9135L14.4153 33.0256ZM18.0076 49.1113L14.6817 31.5964L10.7519 32.3426L14.0778 49.8575L18.0076 49.1113ZM27.0207 55.5026L17.2719 47.9067L14.8135 51.062L24.5622 58.6579L27.0207 55.5026ZM27.7914 62V57.0802H23.7914V62H27.7914ZM27.7914 64.5V62H23.7914V64.5H27.7914ZM30.7914 62.5H25.7914V66.5H30.7914V62.5ZM28.7914 62V64.5H32.7914V62H28.7914ZM28.7914 60.9164V62H32.7914V60.9164H28.7914ZM38.2914 58.9164H30.7914V62.9164H38.2914V58.9164ZM40.2914 62V60.9164H36.2914V62H40.2914ZM40.2914 64.5V62H36.2914V64.5H40.2914ZM43.2914 62.5H38.2914V66.5H43.2914V62.5ZM41.2914 62V64.5H45.2914V62H41.2914ZM41.2914 60.9164V62H45.2914V60.9164H41.2914ZM49.868 58.9164H43.2914V62.9164H49.868V58.9164ZM49.5622 58.6192L48.6387 59.3387L51.0972 62.494L52.0207 61.7745L49.5622 58.6192ZM48.7914 60.1969V62H52.7914V60.1969H48.7914ZM48.7914 62V64.5H52.7914V62H48.7914ZM50.7914 66.5H55.7914V62.5H50.7914V66.5ZM57.7914 64.5V62H53.7914V64.5H57.7914ZM57.7914 62V56.3011H53.7914V62H57.7914ZM63.3109 47.9067L54.5622 54.7234L57.0207 57.8787L65.7694 51.062L63.3109 47.9067ZM65.9011 31.5964L62.5752 49.1113L66.505 49.8575L69.8309 32.3426L65.9011 31.5964ZM56.591 17.6233L66.1676 33.0256L69.5645 30.9135L59.9879 15.5112L56.591 17.6233Z" fill="currentColor" />
  </g>
  <path d="M29.2915 29L34.4877 32V38L29.2915 41L24.0954 38V32L29.2915 29Z" fill="currentColor" stroke="currentColor" stroke-width="4" stroke-linecap="square" />
  <path d="M51.2915 29L56.4877 32V38L51.2915 41L46.0954 38V32L51.2915 29Z" fill="currentColor" stroke="currentColor" stroke-width="4" stroke-linecap="square" />
  <path d="M40.2915 41L45.4877 50H35.0954L40.2915 41Z" fill="currentColor" stroke="currentColor" stroke-width="4" stroke-linecap="square" />
</svg>