<svg viewBox="0 0 80 80" fill="none">
  <g opacity="0.25">
    <path fill-rule="evenodd" clip-rule="evenodd" d="M14 29.2307L29.2307 14L50.7692 14L66 29.2308V50.7698L50.7698 66H29.2302L14 50.7698L14 29.2307Z" fill="currentColor" />
    <path d="M14 29.2307L12.5858 27.8165L12 28.4023L12 29.2307H14ZM29.2307 14V12H28.4023L27.8165 12.5858L29.2307 14ZM50.7692 14L52.1835 12.5858L51.5977 12H50.7692V14ZM66 29.2308H68V28.4023L67.4142 27.8165L66 29.2308ZM66 50.7698L67.4142 52.1841L68 51.5983V50.7698H66ZM50.7698 66V68H51.5983L52.1841 67.4142L50.7698 66ZM29.2302 66L27.8159 67.4142L28.4017 68H29.2302V66ZM14 50.7698H12L12 51.5983L12.5858 52.1841L14 50.7698ZM15.4142 30.645L30.645 15.4142L27.8165 12.5858L12.5858 27.8165L15.4142 30.645ZM29.2307 16L50.7692 16V12L29.2307 12V16ZM49.355 15.4142L64.5858 30.645L67.4142 27.8165L52.1835 12.5858L49.355 15.4142ZM64 29.2308L64 50.7698H68V29.2308H64ZM64.5858 49.3556L49.3556 64.5858L52.1841 67.4142L67.4142 52.1841L64.5858 49.3556ZM50.7698 64H29.2302V68H50.7698V64ZM30.6444 64.5858L15.4142 49.3556L12.5858 52.1841L27.8159 67.4142L30.6444 64.5858ZM16 50.7698L16 29.2307H12L12 50.7698H16Z" fill="currentColor" />
  </g>
  <path fill-rule="evenodd" clip-rule="evenodd" d="M40.7872 24.5571V26.5571V40.1188H41.4202H42.1018V28.895V26.895H46.1018V28.895V40.1188H46.7349H47.4164V33.5708V31.5708H51.4164V33.5708V43.7991V43.9513L51.3934 44.1018L49.9171 53.7456L49.6572 55.443H47.9401H34.6536H33.6057L33.0092 54.5815L24.9393 42.9262L23.8008 41.2819L27.0894 39.0049L28.2279 40.6492L31.4725 45.3353V43.2877L31.4725 28.895V26.895H35.4725V28.895V40.1188H36.1056H36.7872V26.5571V24.5571H40.7872Z" fill="currentColor" />
</svg>