<svg viewBox="0 0 80 80" fill="none">
  <path d="M28.2597 23.809L29.4205 25.4377L31.0692 24.2626L29.8741 22.6283L28.2597 23.809ZM24.7176 18.9656L26.332 17.7849L23.0959 20.1361L24.7176 18.9656ZM28.2294 23.831L26.6077 25.0015L27.7932 26.6439L29.4204 25.4377L28.2294 23.831ZM20.9852 33.802L22.8815 34.4377L23.5251 32.5177L21.5973 31.898L20.9852 33.802ZM15.2726 31.9656L15.8847 30.0615L14.6486 33.8657L15.2726 31.9656ZM20.9737 33.8376L20.3497 35.7378L22.2739 36.3697L22.8815 34.4377L20.9737 33.8376ZM20.9737 46.1624L22.8815 45.5623L22.2739 43.6303L20.3497 44.2622L20.9737 46.1624ZM15.2726 48.0344L14.6486 46.1343L15.8847 49.9385L15.2726 48.0344ZM20.9852 46.198L21.5973 48.102L23.5251 47.4823L22.8815 45.5623L20.9852 46.198ZM28.2294 56.169L29.4203 54.5623L27.7931 53.3562L26.6077 54.9985L28.2294 56.169ZM24.7176 61.0344L23.0959 59.8639L26.332 62.2151L24.7176 61.0344ZM28.2597 56.191L29.8741 57.3717L31.0692 55.7375L29.4205 54.5624L28.2597 56.191ZM39.9813 59.9999L40.0003 58L37.975 57.9808L37.9813 60.0061L39.9813 59.9999ZM40.0001 66L38.0001 66.0062H42L40.0001 66ZM40.0188 59.9999L42.0188 60.0062L42.0251 57.9814L40.0004 58L40.0188 59.9999ZM51.7407 56.1915L50.5805 54.5624L48.9308 55.7373L50.1264 57.3721L51.7407 56.1915ZM55.2825 61.0344L53.6681 62.2151L56.9042 59.8639L55.2825 61.0344ZM51.771 56.1695L53.3927 54.999L52.2078 53.3573L50.5807 54.5623L51.771 56.1695ZM59.0158 46.1983L57.1196 45.5623L56.4756 47.4825L58.4037 48.1023L59.0158 46.1983ZM64.7275 48.0344L64.1154 49.9385L65.3515 46.1343L64.7275 48.0344ZM59.0273 46.1627L59.6513 44.2625L57.7275 43.6308L57.1196 45.5622L59.0273 46.1627ZM59.0273 33.8373L57.1196 34.4377L57.7274 36.3693L59.6513 35.7375L59.0273 33.8373ZM64.7275 31.9656L65.3515 33.8657L64.1154 30.0615L64.7275 31.9656ZM59.0158 33.8017L58.4037 31.8977L56.4757 32.5175L57.1195 34.4376L59.0158 33.8017ZM51.771 23.8305L50.5807 25.4377L52.2078 26.6427L53.3927 25.001L51.771 23.8305ZM55.2825 18.9656L56.9042 20.1361L53.6681 17.7849L55.2825 18.9656ZM51.7407 23.8085L50.1264 22.6279L48.9307 24.2629L50.5807 25.4377L51.7407 23.8085ZM40.0188 20.0001L40.0005 22L42.0251 22.0185L42.0188 19.9938L40.0188 20.0001ZM40.0001 14L42 13.9938L38.0001 13.9938L40.0001 14ZM39.9813 20.0001L37.9813 19.9939L37.975 22.0194L40.0005 22L39.9813 20.0001ZM29.8741 22.6283L26.332 17.7849L23.1033 20.1462L26.6454 24.9896L29.8741 22.6283ZM23.0959 20.1361L26.6077 25.0015L29.8511 22.6605L26.3393 17.795L23.0959 20.1361ZM29.4204 25.4377L29.4205 25.4377L27.099 22.1803C27.0787 22.1947 27.0585 22.2094 27.0384 22.2243L29.4204 25.4377ZM21.5973 31.898L15.8847 30.0615L14.6605 33.8696L20.3731 35.7061L21.5973 31.898ZM14.6486 33.8657L20.3497 35.7378L21.5976 31.9375L15.8965 30.0654L14.6486 33.8657ZM22.8815 34.4377L22.8815 34.4377L19.0889 33.1663C19.081 33.1901 19.0733 33.2138 19.0658 33.2376L22.8815 34.4377ZM20.3497 44.2622L14.6486 46.1343L15.8965 49.9346L21.5976 48.0625L20.3497 44.2622ZM15.8847 49.9385L21.5973 48.102L20.3731 44.2939L14.6605 46.1304L15.8847 49.9385ZM22.8815 45.5623L22.8815 45.5623L19.0658 46.7624C19.0733 46.7862 19.081 46.81 19.0889 46.8337L22.8815 45.5623ZM26.6077 54.9985L23.0959 59.8639L26.3393 62.205L29.8511 57.3395L26.6077 54.9985ZM26.332 62.2151L29.8741 57.3717L26.6453 55.0104L23.1033 59.8538L26.332 62.2151ZM29.4205 54.5624C29.4205 54.5624 29.4204 54.5623 29.4203 54.5623L27.0385 57.7758C27.0585 57.7906 27.0786 57.8052 27.0989 57.8197L29.4205 54.5624ZM37.9813 60.0061L38.0001 66.0062L42 65.9938L41.9813 59.9937L37.9813 60.0061ZM42 66.0062L42.0188 60.0062L38.0188 59.9937L38.0001 65.9938L42 66.0062ZM40.0004 58H40.0003L39.9624 61.9998C39.9871 62.0001 40.012 62.0001 40.0371 61.9998L40.0004 58ZM50.1264 57.3721L53.6681 62.2151L56.8968 59.8538L53.3551 55.0109L50.1264 57.3721ZM56.9042 59.8639L53.3927 54.999L50.1493 57.34L53.6608 62.205L56.9042 59.8639ZM50.5807 54.5623L50.5805 54.5624L52.901 57.8206C52.9213 57.8061 52.9415 57.7914 52.9613 57.7767L50.5807 54.5623ZM58.4037 48.1023L64.1154 49.9385L65.3396 46.1304L59.6279 44.2942L58.4037 48.1023ZM65.3515 46.1343L59.6513 44.2625L58.4034 48.0628L64.1036 49.9346L65.3515 46.1343ZM57.1196 45.5622L57.1196 45.5623L60.912 46.8342C60.9198 46.8108 60.9275 46.7871 60.9351 46.7631L57.1196 45.5622ZM59.6513 35.7375L65.3515 33.8657L64.1036 30.0654L58.4034 31.9372L59.6513 35.7375ZM64.1154 30.0615L58.4037 31.8977L59.6278 35.7058L65.3396 33.8696L64.1154 30.0615ZM57.1195 34.4376L57.1196 34.4377L60.9351 33.237C60.9275 33.2128 60.9198 33.1891 60.912 33.1659L57.1195 34.4376ZM53.3927 25.001L56.9042 20.1361L53.6608 17.795L50.1493 22.66L53.3927 25.001ZM53.6681 17.7849L50.1264 22.6279L53.3551 24.9891L56.8968 20.1462L53.6681 17.7849ZM50.5807 25.4377C50.5807 25.4377 50.5807 25.4377 50.5807 25.4377L52.9613 22.2233C52.9413 22.2084 52.9211 22.1938 52.9007 22.1793L50.5807 25.4377ZM42.0188 19.9938L42 13.9938L38.0001 14.0062L38.0188 20.0063L42.0188 19.9938ZM38.0001 13.9938L37.9813 19.9939L41.9813 20.0063L42 14.0062L38.0001 13.9938ZM40.0005 22L40.0005 22L40.037 18.0002C40.012 17.9999 39.9871 17.9999 39.9622 18.0002L40.0005 22Z" fill="currentColor" />
  <path opacity="0.25" d="M40 28L47.0534 30.2918L51.4127 36.2918V43.7082L47.0534 49.7082L40 52L32.9466 49.7082L28.5873 43.7082L28.5873 36.2918L32.9466 30.2918L40 28Z" fill="currentColor" stroke="currentColor" stroke-width="4" stroke-linecap="square" />
</svg>