<svg viewBox="0 0 80 80" fill="none">
  <path d="M25.8746 25.8418L27.2726 27.272L28.7248 25.8525L27.2833 24.4221L25.8746 25.8418ZM21.6152 21.6152L23.024 20.1956L20.1956 23.024L21.6152 21.6152ZM25.8418 25.8746L24.4222 27.2833L25.853 28.7253L27.2725 27.2721L25.8418 25.8746ZM20.0006 39.9768L22.0005 40L22.024 37.969L19.9929 37.9768L20.0006 39.9768ZM14 40L13.9923 38L13.9923 42L14 40ZM20.0006 40.0232L19.9929 42.0232L22.024 42.031L22.0005 40L20.0006 40.0232ZM25.8418 54.1254L27.2726 52.728L25.8531 51.2746L24.4222 52.7167L25.8418 54.1254ZM21.6152 58.3848L20.1956 56.976L23.024 59.8044L21.6152 58.3848ZM25.8746 54.1582L27.2833 55.5779L28.7249 54.1473L27.2725 52.7278L25.8746 54.1582ZM39.9768 59.9999L40.0005 58L37.969 57.9759L37.9768 60.0076L39.9768 59.9999ZM40 66L38 66.0077H42L40 66ZM40.0232 59.9999L42.0232 60.0076L42.031 57.9769L40.0005 58L40.0232 59.9999ZM54.1259 54.1587L52.7283 52.728L51.2752 54.1475L52.7172 55.5783L54.1259 54.1587ZM58.3848 58.3848L56.976 59.8044L59.8044 56.976L58.3848 58.3848ZM54.1587 54.1259L55.5783 52.7172L54.148 51.2757L52.7285 52.7278L54.1587 54.1259ZM60.0004 40.0232L58.0005 40L57.9769 42.031L60.0081 42.0232L60.0004 40.0232ZM66 40L66.0077 42V38L66 40ZM60.0004 39.9768L60.0081 37.9768L57.9769 37.969L58.0005 40L60.0004 39.9768ZM54.1587 25.8741L52.7284 27.2721L54.1479 28.7243L55.5783 27.2828L54.1587 25.8741ZM58.3848 21.6152L59.8044 23.024L56.976 20.1956L58.3848 21.6152ZM54.1259 25.8413L52.7172 24.4217L51.2752 25.8525L52.7283 27.272L54.1259 25.8413ZM40.0232 20.0001L40.0005 22L42.031 22.023L42.0232 19.9924L40.0232 20.0001ZM40 14L42 13.9923L38 13.9923L40 14ZM39.9768 20.0001L37.9768 19.9924L37.969 22.024L40.0005 22L39.9768 20.0001ZM27.2833 24.4221L23.024 20.1956L20.2065 23.0349L24.4658 27.2615L27.2833 24.4221ZM20.1956 23.024L24.4222 27.2833L27.2615 24.4659L23.0349 20.2065L20.1956 23.024ZM27.2725 27.2721C27.2726 27.2721 27.2726 27.2721 27.2726 27.272L24.4766 24.4116C24.4545 24.4332 24.4327 24.455 24.4111 24.4771L27.2725 27.2721ZM19.9929 37.9768L13.9923 38L14.0077 42L20.0083 41.9768L19.9929 37.9768ZM13.9923 42L19.9929 42.0232L20.0083 38.0232L14.0077 38L13.9923 42ZM22.0005 40C22.0005 40 22.0005 40 22.0005 40L18.0008 39.9537C18.0004 39.9846 18.0004 40.0154 18.0008 40.0463L22.0005 40ZM24.4222 52.7167L20.1956 56.976L23.0349 59.7935L27.2615 55.5341L24.4222 52.7167ZM23.024 59.8044L27.2833 55.5779L24.4658 52.7385L20.2065 56.9651L23.024 59.8044ZM27.2725 52.7278L27.2726 52.728L24.411 55.5229C24.4326 55.5449 24.4545 55.5668 24.4767 55.5885L27.2725 52.7278ZM37.9768 60.0076L38 66.0077L42 65.9923L41.9768 59.9921L37.9768 60.0076ZM42 66.0077L42.0232 60.0076L38.0232 59.9921L38 65.9923L42 66.0077ZM40.0005 58H40.0005L39.9531 61.9997C39.984 62.0001 40.015 62.0001 40.0459 61.9997L40.0005 58ZM52.7172 55.5783L56.976 59.8044L59.7935 56.9651L55.5346 52.739L52.7172 55.5783ZM59.8044 56.976L55.5783 52.7172L52.739 55.5346L56.9651 59.7935L59.8044 56.976ZM52.7285 52.7278C52.7284 52.7279 52.7284 52.728 52.7283 52.728L55.5235 55.5893C55.5455 55.5678 55.5673 55.546 55.5888 55.524L52.7285 52.7278ZM60.0081 42.0232L66.0077 42L65.9923 38L59.9926 38.0232L60.0081 42.0232ZM66.0077 38L60.0081 37.9768L59.9926 41.9768L65.9923 42L66.0077 38ZM58.0005 40V40L62.0002 40.0464C62.0006 40.0155 62.0006 39.9845 62.0002 39.9536L58.0005 40ZM55.5783 27.2828L59.8044 23.024L56.9651 20.2065L52.739 24.4654L55.5783 27.2828ZM56.976 20.1956L52.7172 24.4217L55.5346 27.261L59.7935 23.0349L56.976 20.1956ZM52.7283 27.272L52.7284 27.2721L55.5889 24.4761C55.5673 24.454 55.5455 24.4322 55.5235 24.4107L52.7283 27.272ZM42.0232 19.9924L42 13.9923L38 14.0077L38.0232 20.0079L42.0232 19.9924ZM38 13.9923L37.9768 19.9924L41.9768 20.0079L42 14.0077L38 13.9923ZM40.0005 22H40.0005L40.0458 18.0003C40.015 17.9999 39.9841 17.9999 39.9532 18.0003L40.0005 22Z" fill="currentColor" />
  <path opacity="0.25" d="M40 28L52 40L40 52L28 40L40 28Z" fill="currentColor" stroke="currentColor" stroke-width="4" stroke-linecap="square" />
</svg>