<svg viewBox="0 0 80 80" fill="none">
  <g opacity="0.25">
    <path fill-rule="evenodd" clip-rule="evenodd" d="M29.9816 40.1313L40.6967 47.8L51.4119 40.1313L53.5661 53.1306L66.5654 55.2848L58.8967 66L58.8968 66H51.7833V61.4078L45.289 54.9134H36.1045L29.6102 61.4078L29.6102 66H22.4967L22.4968 66L14.8281 55.2848L27.8274 53.1306L29.9816 40.1313Z" fill="currentColor" />
    <path d="M40.6967 47.8L39.5328 49.4264L40.6967 50.2594L41.8607 49.4264L40.6967 47.8ZM29.9816 40.1313L31.1456 38.505L28.5336 36.6356L28.0085 39.8044L29.9816 40.1313ZM51.4119 40.1313L53.385 39.8044L52.8599 36.6356L50.2479 38.505L51.4119 40.1313ZM53.5661 53.1306L51.593 53.4576L51.827 54.8697L53.2391 55.1037L53.5661 53.1306ZM66.5654 55.2848L68.1918 56.4488L70.0611 53.8369L66.8924 53.3117L66.5654 55.2848ZM58.8967 66L57.2704 64.836L56.4465 65.9872L57.2583 67.1469L58.8967 66ZM58.8968 66V68H62.7381L60.5353 64.8531L58.8968 66ZM51.7833 66H49.7833V68H51.7833V66ZM51.7833 61.4078H53.7833V60.5793L53.1975 59.9936L51.7833 61.4078ZM45.289 54.9134L46.7032 53.4992L46.1174 52.9134H45.289V54.9134ZM36.1045 54.9134V52.9134H35.2761L34.6903 53.4992L36.1045 54.9134ZM29.6102 61.4078L28.196 59.9936L27.6102 60.5793V61.4078H29.6102ZM29.6102 66V68H31.6102V66H29.6102ZM22.4967 66L20.8721 64.8336L18.5987 68H22.4967V66ZM22.4968 66L24.1214 67.1664L24.9575 66.0018L24.1231 64.836L22.4968 66ZM14.8281 55.2848L14.5011 53.3117L11.3324 53.8369L13.2017 56.4488L14.8281 55.2848ZM27.8274 53.1306L28.1544 55.1037L29.5665 54.8697L29.8005 53.4576L27.8274 53.1306ZM41.8607 46.1736L31.1456 38.505L28.8176 41.7577L39.5328 49.4264L41.8607 46.1736ZM50.2479 38.505L39.5328 46.1736L41.8607 49.4264L52.5759 41.7577L50.2479 38.505ZM55.5392 52.8037L53.385 39.8044L49.4388 40.4583L51.593 53.4576L55.5392 52.8037ZM66.8924 53.3117L53.8931 51.1575L53.2391 55.1037L66.2384 57.2579L66.8924 53.3117ZM60.5231 67.164L68.1918 56.4488L64.939 54.1209L57.2704 64.836L60.5231 67.164ZM60.5353 64.8531L60.5352 64.853L57.2583 67.1469L57.2583 67.147L60.5353 64.8531ZM51.7833 68H58.8968V64H51.7833V68ZM53.7833 66V61.4078H49.7833V66H53.7833ZM53.1975 59.9936L46.7032 53.4992L43.8747 56.3276L50.3691 62.822L53.1975 59.9936ZM45.289 52.9134H36.1045V56.9134H45.289V52.9134ZM34.6903 53.4992L28.196 59.9936L31.0244 62.822L37.5188 56.3276L34.6903 53.4992ZM27.6102 61.4078L27.6102 66H31.6102V61.4078H27.6102ZM22.4967 68H29.6102V64H22.4967V68ZM20.8721 64.8336L20.8721 64.8336L24.1213 67.1665L24.1214 67.1664L20.8721 64.8336ZM13.2017 56.4488L20.8704 67.164L24.1231 64.836L16.4545 54.1209L13.2017 56.4488ZM27.5004 51.1575L14.5011 53.3117L15.1551 57.2579L28.1544 55.1037L27.5004 51.1575ZM28.0085 39.8044L25.8543 52.8037L29.8005 53.4576L31.9547 40.4583L28.0085 39.8044Z" fill="currentColor" />
  </g>
  <g opacity="0.5">
    <path fill-rule="evenodd" clip-rule="evenodd" d="M45.289 54.9136H36.1046L29.6102 61.4079V66.0002H51.7833L51.7833 61.4079L45.289 54.9136Z" fill="currentColor" />
    <path d="M36.1046 54.9136V52.9136H35.2762L34.6904 53.4994L36.1046 54.9136ZM45.289 54.9136L46.7032 53.4994L46.1174 52.9136H45.289V54.9136ZM29.6102 61.4079L28.196 59.9937L27.6102 60.5795V61.4079H29.6102ZM29.6102 66.0002H27.6102V68.0002H29.6102V66.0002ZM51.7833 66.0002V68.0002H53.7833V66.0002L51.7833 66.0002ZM51.7833 61.4079L53.7833 61.4079V60.5795L53.1976 59.9937L51.7833 61.4079ZM36.1046 56.9136H45.289V52.9136H36.1046V56.9136ZM31.0244 62.8221L37.5188 56.3278L34.6904 53.4994L28.196 59.9937L31.0244 62.8221ZM31.6102 66.0002V61.4079H27.6102V66.0002H31.6102ZM29.6102 68.0002H51.7833V64.0002H29.6102V68.0002ZM49.7833 61.4079L49.7833 66.0002L53.7833 66.0002L53.7833 61.4079L49.7833 61.4079ZM43.8748 56.3278L50.3691 62.8221L53.1976 59.9937L46.7032 53.4994L43.8748 56.3278Z" fill="currentColor" />
  </g>
  <path d="M8.5 66.1313H72.5" stroke="currentColor" stroke-width="4" stroke-linecap="square" />
  <path d="M42.4987 24.0001V22.0001H38.4987V24.0001H42.4987ZM38.4987 38.0002L38.4987 40.0002H42.4987V38.0002H38.4987ZM38.4987 24.0001V38.0002H42.4987V24.0001H38.4987Z" fill="currentColor" />
  <path d="M50.5 24L30.5 24L33 21.5L40.5 14L48 21.5L50.5 24Z" fill="currentColor" stroke="currentColor" stroke-width="4" stroke-linecap="square" />
</svg>