<svg viewBox="0 0 80 80" fill="none">
  <g opacity="0.25">
    <path fill-rule="evenodd" clip-rule="evenodd" d="M25.8564 10.0557L17.8564 14.0557L17.8564 43.6745L12 47.0557L12 63.0557L25.8564 71.0557L39.7128 63.0557V47.0557L33.8564 43.6745L33.8564 14.0557L25.8564 10.0557Z" fill="currentColor" />
    <path d="M17.8564 14.0557L16.962 12.2668L15.8564 12.8196V14.0557H17.8564ZM25.8564 10.0557L26.7508 8.26681L25.8564 7.8196L24.962 8.26681L25.8564 10.0557ZM17.8564 43.6745L18.8564 45.4065L19.8564 44.8292V43.6745H17.8564ZM12 47.0557L11 45.3236L10 45.901V47.0557H12ZM12 63.0557H10V64.2104L11 64.7877L12 63.0557ZM25.8564 71.0557L24.8564 72.7877L25.8564 73.3651L26.8564 72.7877L25.8564 71.0557ZM39.7128 63.0557L40.7128 64.7877L41.7128 64.2104V63.0557H39.7128ZM39.7128 47.0557H41.7128V45.901L40.7128 45.3236L39.7128 47.0557ZM33.8564 43.6745H31.8564V44.8292L32.8564 45.4065L33.8564 43.6745ZM33.8564 14.0557H35.8564V12.8196L34.7508 12.2668L33.8564 14.0557ZM18.7508 15.8445L26.7508 11.8445L24.962 8.26681L16.962 12.2668L18.7508 15.8445ZM19.8564 43.6745L19.8564 14.0557H15.8564L15.8564 43.6745H19.8564ZM13 48.7877L18.8564 45.4065L16.8564 41.9424L11 45.3236L13 48.7877ZM14 63.0557L14 47.0557H10L10 63.0557H14ZM26.8564 69.3236L13 61.3236L11 64.7877L24.8564 72.7877L26.8564 69.3236ZM38.7128 61.3236L24.8564 69.3236L26.8564 72.7877L40.7128 64.7877L38.7128 61.3236ZM37.7128 47.0557V63.0557H41.7128V47.0557H37.7128ZM32.8564 45.4065L38.7128 48.7877L40.7128 45.3236L34.8564 41.9424L32.8564 45.4065ZM31.8564 14.0557L31.8564 43.6745L35.8564 43.6745L35.8564 14.0557H31.8564ZM24.962 11.8445L32.962 15.8445L34.7508 12.2668L26.7508 8.26681L24.962 11.8445Z" fill="currentColor" />
  </g>
  <path fill-rule="evenodd" clip-rule="evenodd" d="M29.2629 49H22.531L18.9688 51.0566V59.0566L25.897 63.0566L32.8252 59.0566V51.0566L29.2629 49Z" fill="currentColor" />
  <path d="M53.04 11.4566L51.5769 10.093L48.8497 13.0191L50.3127 14.3827L53.04 11.4566ZM55.0015 16.0189L53.6379 17.4819L55.0015 18.7529L56.3651 17.4819L55.0015 16.0189ZM49.0177 19.4736L49.6029 21.3861L51.3854 20.8407L50.9666 19.0242L49.0177 19.4736ZM49.9451 14.5949L49.4957 12.6461L45.598 13.5449L46.0474 15.4938L49.9451 14.5949ZM59.6893 14.3836L61.1524 13.02L58.4251 10.0939L56.962 11.4575L59.6893 14.3836ZM63.9553 15.4951L64.4047 13.5462L60.507 12.6474L60.0576 14.5963L63.9553 15.4951ZM60.9853 19.4736L59.0364 19.0242L58.6176 20.8407L60.4001 21.3861L60.9853 19.4736ZM64.8073 22.7347L66.7198 23.3199L67.8902 19.495L65.9777 18.9098L64.8073 22.7347ZM65.9777 26.947L67.8902 26.3618L66.7198 22.5368L64.8073 23.1221L65.9777 26.947ZM60.9853 26.3831L60.4001 24.4707L58.6176 25.0161L59.0364 26.8326L60.9853 26.3831ZM60.087 31.388L60.5364 33.3369L64.4341 32.4381L63.9847 30.4892L60.087 31.388ZM57.0578 34.4885L58.5208 35.8521L61.2481 32.926L59.785 31.5624L57.0578 34.4885ZM55.0015 29.8379L56.3651 28.3748L55.0015 27.1039L53.6379 28.3748L55.0015 29.8379ZM50.217 31.5633L48.7539 32.9269L51.4812 35.853L52.9442 34.4894L50.217 31.5633ZM46.018 30.4905L45.5686 32.4394L49.4663 33.3382L49.9157 31.3894L46.018 30.4905ZM49.0177 26.3831L50.9666 26.8326L51.3854 25.0161L49.6029 24.4707L49.0177 26.3831ZM45.1931 23.1213L43.2807 22.536L42.1102 26.361L44.0227 26.9462L45.1931 23.1213ZM44.0227 18.9106L42.1102 19.4958L43.2807 23.3207L45.1931 22.7355L44.0227 18.9106ZM50.3127 14.3827L53.6379 17.4819L56.3651 14.5559L53.04 11.4566L50.3127 14.3827ZM50.9666 19.0242L49.9451 14.5949L46.0474 15.4938L47.0689 19.9231L50.9666 19.0242ZM56.3651 17.4819L59.6893 14.3836L56.962 11.4575L53.6379 14.5559L56.3651 17.4819ZM60.0576 14.5963L59.0364 19.0242L62.9342 19.9231L63.9553 15.4951L60.0576 14.5963ZM60.4001 21.3861L64.8073 22.7347L65.9777 18.9098L61.5705 17.5612L60.4001 21.3861ZM64.8073 23.1221L60.4001 24.4707L61.5705 28.2956L65.9777 26.947L64.8073 23.1221ZM59.0364 26.8326L60.087 31.388L63.9847 30.4892L62.9342 25.9337L59.0364 26.8326ZM59.785 31.5624L56.3651 28.3748L53.6379 31.3009L57.0578 34.4885L59.785 31.5624ZM53.6379 28.3748L50.217 31.5633L52.9442 34.4894L56.3651 31.3009L53.6379 28.3748ZM49.9157 31.3894L50.9666 26.8326L47.0689 25.9337L46.018 30.4905L49.9157 31.3894ZM49.6029 24.4707L45.1931 23.1213L44.0227 26.9462L48.4325 28.2956L49.6029 24.4707ZM45.1931 22.7355L49.6029 21.3861L48.4325 17.5612L44.0227 18.9106L45.1931 22.7355Z" fill="currentColor" />
  <path d="M55.0002 11L57.0002 10.998H53.0002L55.0002 11ZM55.0122 22.9792L53.0122 22.9812L53.0157 26.4373L56.0105 24.7123L55.0122 22.9792ZM65.3925 17L66.3943 18.731L64.3943 15.2669L65.3925 17ZM55.0242 23L54.0225 21.269L51.0311 23L54.0225 24.731L55.0242 23ZM65.3925 29L64.3943 30.7331L66.3943 27.269L65.3925 29ZM55.0122 23.0208L56.0105 21.2877L53.0157 19.5627L53.0122 23.0188L55.0122 23.0208ZM55.0002 35L53.0002 35.002H57.0002L55.0002 35ZM54.9882 23.0208L56.9882 23.0188L56.9848 19.5627L53.99 21.2877L54.9882 23.0208ZM44.6079 29L43.6062 27.269L45.6062 30.7331L44.6079 29ZM54.9762 23L55.9779 24.731L58.9693 23L55.9779 21.269L54.9762 23ZM44.6079 17L45.6062 15.2669L43.6062 18.731L44.6079 17ZM54.9882 22.9792L53.99 24.7123L56.9848 26.4373L56.9882 22.9812L54.9882 22.9792ZM53.0002 11.002L53.0122 22.9812L57.0122 22.9772L57.0002 10.998L53.0002 11.002ZM56.0105 24.7123L66.3908 18.7331L64.3943 15.2669L54.014 21.2462L56.0105 24.7123ZM64.3908 15.269L54.0225 21.269L56.0259 24.731L66.3943 18.731L64.3908 15.269ZM54.0225 24.731L64.3908 30.731L66.3943 27.269L56.0259 21.269L54.0225 24.731ZM66.3908 27.2669L56.0105 21.2877L54.014 24.7538L64.3943 30.7331L66.3908 27.2669ZM53.0122 23.0188L53.0002 34.998L57.0002 35.002L57.0122 23.0228L53.0122 23.0188ZM57.0002 34.998L56.9882 23.0188L52.9882 23.0228L53.0002 35.002L57.0002 34.998ZM53.99 21.2877L43.6096 27.2669L45.6062 30.7331L55.9865 24.7538L53.99 21.2877ZM45.6096 30.731L55.9779 24.731L53.9745 21.269L43.6062 27.269L45.6096 30.731ZM55.9779 21.269L45.6096 15.269L43.6062 18.731L53.9745 24.731L55.9779 21.269ZM43.6096 18.7331L53.99 24.7123L55.9865 21.2462L45.6062 15.2669L43.6096 18.7331ZM56.9882 22.9812L57.0002 11.002L53.0002 10.998L52.9882 22.9772L56.9882 22.9812Z" fill="currentColor" />
</svg>