<svg viewBox="0 0 80 80" fill="none">
  <path opacity="0.25" d="M40 15.6924L60.7846 27.6924L60.7846 51.6924L40 63.6924L19.2154 51.6924L19.2154 27.6924L40 15.6924Z" fill="currentColor" stroke="currentColor" stroke-width="3" stroke-linecap="square" />
  <path d="M46.4225 17.0922L44.6904 16.0922L42.6904 19.5563L44.4225 20.5563L46.4225 17.0922ZM60.7845 27.6935H62.7845V26.5388L61.7845 25.9615L60.7845 27.6935ZM60.7845 51.6935L61.7845 53.4256L62.7845 52.8482V51.6935H60.7845ZM39.9999 63.6935L38.9999 65.4256L39.9999 66.0029L40.9999 65.4256L39.9999 63.6935ZM19.2153 51.6935H17.2153V52.8482L18.2153 53.4256L19.2153 51.6935ZM21.2153 34.3485V32.3485H17.2153V34.3485H21.2153ZM44.4225 20.5563L59.7845 29.4256L61.7845 25.9615L46.4225 17.0922L44.4225 20.5563ZM58.7845 27.6935L58.7845 51.6935H62.7845L62.7845 27.6935H58.7845ZM59.7845 49.9615L38.9999 61.9615L40.9999 65.4256L61.7845 53.4256L59.7845 49.9615ZM40.9999 61.9615L20.2153 49.9615L18.2153 53.4256L38.9999 65.4256L40.9999 61.9615ZM21.2153 51.6935L21.2153 34.3485H17.2153L17.2153 51.6935H21.2153Z" fill="currentColor" />
  <path d="M41.288 14.2184V17.0468H38.4596V14.2184H41.288Z" fill="currentColor" stroke="currentColor" stroke-width="4" stroke-linecap="square" />
  <path d="M23.0297 22.7684L41.4145 38.3248V41.1532H38.586L23.0297 22.7684Z" fill="currentColor" stroke="currentColor" stroke-width="4" stroke-linecap="square" />
</svg>