<svg viewBox="0 0 80 80" fill="none">
  <path fill-rule="evenodd" clip-rule="evenodd" d="M35 12.8218C33.923 12.8218 33.05 13.6948 33.05 14.7718C33.05 15.8487 33.923 16.7218 35 16.7218H38.05V20.1451L40.0001 18.7283L41.95 20.145V16.7218H45C46.0769 16.7218 46.95 15.8487 46.95 14.7718C46.95 13.6948 46.0769 12.8218 45 12.8218L40 12.8218H35ZM52.3287 27.6855L55.5232 30.0065L59.7986 25.731L61.2486 27.1809C62.0101 27.9424 63.2448 27.9424 64.0063 27.1809C64.7678 26.4194 64.7678 25.1847 64.0063 24.4232L61.2081 21.6251C61.1982 21.6147 61.1881 21.6043 61.1778 21.5941C61.1713 21.5875 61.1647 21.581 61.1581 21.5746C61.1543 21.571 61.1506 21.5674 61.1469 21.5638L58.3494 18.7663C57.5879 18.0048 56.3532 18.0048 55.5917 18.7663C54.8302 19.5279 54.8302 20.7625 55.5917 21.5241L57.0409 22.9733L52.3287 27.6855ZM24.477 30.0064L27.6715 27.6855L22.959 22.973L24.4086 21.5234C25.1701 20.7619 25.1701 19.5273 24.4086 18.7657C23.647 18.0042 22.4124 18.0042 21.6508 18.7657L18.8317 21.5849L18.8224 21.5941L18.8132 21.6034L15.994 24.4226C15.2325 25.1841 15.2325 26.4188 15.994 27.1803C16.7555 27.9418 17.9902 27.9418 18.7517 27.1803L20.2013 25.7307L24.477 30.0064Z" fill="currentColor" />
  <path opacity="0.25" d="M40 18.7285L62.8254 35.3121L54.1068 62.1449H25.8932L17.1746 35.3121L40 18.7285Z" fill="currentColor" />
  <path d="M30.7049 31.6641L29.4319 30.1215L27.8772 31.4045L29.1724 32.9491L30.7049 31.6641ZM30.7105 31.6595L32.2421 30.3734L30.9676 28.8555L29.4382 30.1163L30.7105 31.6595ZM31.9967 33.1912L33.2666 34.7363L34.828 33.453L33.5283 31.9051L31.9967 33.1912ZM31.99 33.1967L30.4575 34.4817L31.731 36.0005L33.2612 34.7408L31.99 33.1967ZM25.7419 40.0645L23.7768 39.6927L23.4004 41.6818L25.394 42.034L25.7419 40.0645ZM25.7433 40.0575L26.0899 38.0878L24.1462 37.7457L23.7783 39.6847L25.7433 40.0575ZM27.7132 40.4042L29.6774 40.7811L30.0602 38.7864L28.0599 38.4344L27.7132 40.4042ZM27.7116 40.4125L27.3637 42.382L29.3058 42.7252L29.6761 40.7881L27.7116 40.4125ZM27.3384 49.7698L25.5956 50.7509L26.5871 52.5121L28.3378 51.5022L27.3384 49.7698ZM27.335 49.7636L26.3344 48.0319L24.6232 49.0206L25.5914 50.7435L27.335 49.7636ZM29.0669 48.7629L30.8122 47.7862L29.822 46.0167L28.0663 47.0312L29.0669 48.7629ZM29.071 48.7702L30.0704 50.5026L31.7816 49.5155L30.8156 47.7922L29.071 48.7702ZM34.8788 56.1923L34.1861 58.0685L36.0703 58.7641L36.7579 56.877L34.8788 56.1923ZM34.8722 56.1899L32.9926 55.5065L32.3125 57.3769L34.1795 58.0661L34.8722 56.1899ZM35.5556 54.3101L36.2499 52.4345L34.3634 51.7362L33.676 53.6267L35.5556 54.3101ZM35.5635 54.313L37.4426 54.9977L38.1244 53.1267L36.2563 52.4369L35.5635 54.313ZM44.8108 56.1899L45.5038 58.0661L47.3704 57.3767L46.6905 55.5065L44.8108 56.1899ZM44.8043 56.1924L42.9251 56.8771L43.6126 58.7639L45.4967 58.0687L44.8043 56.1924ZM44.1195 54.3131L43.4267 52.4369L41.5587 53.1267L42.2404 54.9978L44.1195 54.3131ZM44.1274 54.3102L46.007 53.6268L45.3196 51.7361L43.4329 52.4346L44.1274 54.3102ZM52.3482 49.7637L54.0911 50.7446L55.061 49.0213L53.3488 48.032L52.3482 49.7637ZM52.3447 49.7699L51.3453 51.5022L53.0963 52.5123L54.0877 50.7508L52.3447 49.7699ZM50.6121 48.7703L48.8673 47.7927L47.9019 49.5157L49.6127 50.5027L50.6121 48.7703ZM50.6162 48.763L51.6168 47.0313L49.8615 46.017L48.8711 47.7859L50.6162 48.763ZM53.9399 40.0575L55.9048 39.6842L55.5365 37.7458L53.5933 38.0878L53.9399 40.0575ZM53.9412 40.0645L54.2892 42.034L56.2826 41.6818L55.9064 39.6928L53.9412 40.0645ZM51.9715 40.4125L50.007 40.7875L50.3769 42.7252L52.3195 42.382L51.9715 40.4125ZM51.9699 40.4041L51.6233 38.4344L49.6235 38.7863L50.0057 40.7806L51.9699 40.4041ZM48.9726 31.6594L50.245 30.1164L48.7157 28.8552L47.441 30.3733L48.9726 31.6594ZM48.9782 31.664L50.5107 32.9491L51.806 31.4043L50.251 30.1213L48.9782 31.664ZM47.6931 33.1966L46.4222 34.7409L47.9523 36.0001L49.2256 34.4817L47.6931 33.1966ZM47.6864 33.1912L46.1548 31.9051L44.8554 33.4526L46.4162 34.736L47.6864 33.1912ZM39.8379 28.3794L39.8374 26.3794L37.8386 26.3799L37.8379 28.3787L39.8379 28.3794ZM39.8451 28.3794L41.8451 28.3787L41.8444 26.3799L39.8456 26.3794L39.8451 28.3794ZM39.8372 30.3794L37.8372 30.3787L37.8365 32.3801L39.8379 32.3794L39.8372 30.3794ZM39.8458 30.3794L39.8452 32.3794L41.8465 32.3801L41.8458 30.3787L39.8458 30.3794ZM31.9779 33.2067C31.9794 33.2054 31.981 33.2041 31.9827 33.2027L29.4382 30.1163C29.4362 30.118 29.4341 30.1197 29.4319 30.1215L31.9779 33.2067ZM29.1788 32.9456L30.465 34.4773L33.5283 31.9051L32.2421 30.3734L29.1788 32.9456ZM30.7267 31.6461C30.7242 31.6483 30.7215 31.6504 30.7189 31.6526L33.2612 34.7408C33.2629 34.7393 33.2647 34.7379 33.2666 34.7363L30.7267 31.6461ZM33.5226 31.9116L32.2374 30.379L29.1724 32.9491L30.4575 34.4817L33.5226 31.9116ZM27.7071 40.4364C27.7075 40.4343 27.7079 40.4323 27.7082 40.4303L23.7783 39.6847C23.7778 39.6875 23.7773 39.6901 23.7768 39.6927L27.7071 40.4364ZM25.3967 42.0272L27.3666 42.3739L28.0599 38.4344L26.0899 38.0878L25.3967 42.0272ZM25.7491 40.0272C25.7485 40.0305 25.7478 40.0338 25.7472 40.037L29.6761 40.7881C29.6765 40.7858 29.677 40.7834 29.6774 40.7811L25.7491 40.0272ZM28.0596 38.443L26.0899 38.095L25.394 42.034L27.3637 42.382L28.0596 38.443ZM29.0812 48.7886C29.0802 48.7868 29.0793 48.7852 29.0785 48.7838L25.5914 50.7435C25.5929 50.7461 25.5944 50.7487 25.5956 50.7509L29.0812 48.7886ZM28.3356 51.4953L30.0675 50.4946L28.0663 47.0312L26.3344 48.0319L28.3356 51.4953ZM27.3216 49.7395C27.3234 49.7428 27.3253 49.7461 27.3265 49.7482L30.8156 47.7922C30.8141 47.7895 30.8131 47.7878 30.8122 47.7862L27.3216 49.7395ZM28.0716 47.0378L26.339 48.0374L28.3378 51.5022L30.0704 50.5026L28.0716 47.0378ZM35.5714 54.3161C35.5714 54.3161 35.5714 54.3161 35.5714 54.3161C35.5714 54.3161 35.5714 54.3161 35.5714 54.3161C35.5714 54.3161 35.5714 54.3161 35.5714 54.3161C35.5714 54.3161 35.5714 54.3161 35.5714 54.3161C35.5714 54.3161 35.5714 54.3161 35.5714 54.3161C35.5714 54.3161 35.5714 54.3161 35.5713 54.3161C35.5713 54.3161 35.5713 54.3161 35.5713 54.3161C35.5713 54.316 35.5713 54.316 35.5713 54.316C35.5713 54.316 35.5713 54.316 35.5713 54.316C35.5713 54.316 35.5713 54.316 35.5713 54.316C35.5713 54.316 35.5713 54.316 35.5713 54.316C35.5713 54.316 35.5713 54.316 35.5713 54.316C35.5713 54.316 35.5713 54.316 35.5713 54.316C35.5713 54.316 35.5712 54.316 35.5712 54.316C35.5712 54.316 35.5712 54.316 35.5712 54.316C35.5712 54.316 35.5712 54.316 35.5712 54.316C35.5712 54.316 35.5712 54.316 35.5712 54.316C35.5712 54.316 35.5712 54.316 35.5712 54.316C35.5712 54.316 35.5712 54.316 35.5712 54.316C35.5712 54.316 35.5712 54.316 35.5712 54.316C35.5712 54.316 35.5712 54.316 35.5712 54.316C35.5711 54.316 35.5711 54.316 35.5711 54.316C35.5711 54.316 35.5711 54.316 35.5711 54.316C35.5711 54.316 35.5711 54.316 35.5711 54.316C35.5711 54.316 35.5711 54.316 35.5711 54.316C35.5711 54.316 35.5711 54.316 35.5711 54.316C35.5711 54.316 35.5711 54.316 35.5711 54.316C35.5711 54.316 35.5711 54.316 35.5711 54.316C35.5711 54.316 35.5711 54.3159 35.5711 54.3159C35.571 54.3159 35.571 54.3159 35.571 54.3159C35.571 54.3159 35.571 54.3159 35.571 54.3159C35.571 54.3159 35.571 54.3159 35.571 54.3159C35.571 54.3159 35.571 54.3159 35.571 54.3159C35.571 54.3159 35.571 54.3159 35.571 54.3159C35.571 54.3159 35.571 54.3159 35.571 54.3159C35.571 54.3159 35.571 54.3159 35.571 54.3159C35.571 54.3159 35.571 54.3159 35.5709 54.3159C35.5709 54.3159 35.5709 54.3159 35.5709 54.3159C35.5709 54.3159 35.5709 54.3159 35.5709 54.3159C35.5709 54.3159 35.5709 54.3159 35.5709 54.3159C35.5709 54.3159 35.5709 54.3159 35.5709 54.3159C35.5709 54.3159 35.5709 54.3159 35.5709 54.3159C35.5709 54.3159 35.5709 54.3159 35.5709 54.3159C35.5709 54.3159 35.5709 54.3159 35.5709 54.3159C35.5709 54.3159 35.5708 54.3159 35.5708 54.3159C35.5708 54.3159 35.5708 54.3159 35.5708 54.3159C35.5708 54.3159 35.5708 54.3159 35.5708 54.3159C35.5708 54.3159 35.5708 54.3159 35.5708 54.3159C35.5708 54.3159 35.5708 54.3159 35.5708 54.3159C35.5708 54.3159 35.5708 54.3158 35.5708 54.3158C35.5708 54.3158 35.5708 54.3158 35.5708 54.3158C35.5708 54.3158 35.5708 54.3158 35.5708 54.3158C35.5708 54.3158 35.5707 54.3158 35.5707 54.3158C35.5707 54.3158 35.5707 54.3158 35.5707 54.3158C35.5707 54.3158 35.5707 54.3158 35.5707 54.3158C35.5707 54.3158 35.5707 54.3158 35.5707 54.3158C35.5707 54.3158 35.5707 54.3158 35.5707 54.3158C35.5707 54.3158 35.5707 54.3158 35.5707 54.3158C35.5707 54.3158 35.5707 54.3158 35.5707 54.3158C35.5707 54.3158 35.5707 54.3158 35.5707 54.3158C35.5706 54.3158 35.5706 54.3158 35.5706 54.3158C35.5706 54.3158 35.5706 54.3158 35.5706 54.3158C35.5706 54.3158 35.5706 54.3158 35.5706 54.3158C35.5706 54.3158 35.5706 54.3158 35.5706 54.3158C35.5706 54.3158 35.5706 54.3158 35.5706 54.3158C35.5706 54.3158 35.5706 54.3158 35.5706 54.3158C35.5706 54.3158 35.5706 54.3158 35.5706 54.3158C35.5706 54.3158 35.5706 54.3158 35.5705 54.3158C35.5705 54.3158 35.5705 54.3158 35.5705 54.3158C35.5705 54.3158 35.5705 54.3158 35.5705 54.3158C35.5705 54.3158 35.5705 54.3158 35.5705 54.3157C35.5705 54.3157 35.5705 54.3157 35.5705 54.3157C35.5705 54.3157 35.5705 54.3157 35.5705 54.3157C35.5705 54.3157 35.5705 54.3157 35.5705 54.3157C35.5705 54.3157 35.5705 54.3157 35.5705 54.3157C35.5705 54.3157 35.5705 54.3157 35.5704 54.3157C35.5704 54.3157 35.5704 54.3157 35.5704 54.3157C35.5704 54.3157 35.5704 54.3157 35.5704 54.3157C35.5704 54.3157 35.5704 54.3157 35.5704 54.3157C35.5704 54.3157 35.5704 54.3157 35.5704 54.3157C35.5704 54.3157 35.5704 54.3157 35.5704 54.3157C35.5704 54.3157 35.5704 54.3157 35.5704 54.3157C35.5704 54.3157 35.5704 54.3157 35.5704 54.3157C35.5704 54.3157 35.5703 54.3157 35.5703 54.3157C35.5703 54.3157 35.5703 54.3157 35.5703 54.3157C35.5703 54.3157 35.5703 54.3157 35.5703 54.3157C35.5703 54.3157 35.5703 54.3157 35.5703 54.3157C35.5703 54.3157 35.5703 54.3157 35.5703 54.3157C35.5703 54.3157 35.5703 54.3157 35.5703 54.3157C35.5703 54.3157 35.5703 54.3157 35.5703 54.3157C35.5703 54.3157 35.5703 54.3157 35.5703 54.3157C35.5703 54.3157 35.5702 54.3157 35.5702 54.3156C35.5702 54.3156 35.5702 54.3156 35.5702 54.3156C35.5702 54.3156 35.5702 54.3156 35.5702 54.3156C35.5702 54.3156 35.5702 54.3156 35.5702 54.3156C35.5702 54.3156 35.5702 54.3156 35.5702 54.3156C35.5702 54.3156 35.5702 54.3156 35.5702 54.3156C35.5702 54.3156 35.5702 54.3156 35.5702 54.3156C35.5702 54.3156 35.5702 54.3156 35.5702 54.3156C35.5701 54.3156 35.5701 54.3156 35.5701 54.3156C35.5701 54.3156 35.5701 54.3156 35.5701 54.3156C35.5701 54.3156 35.5701 54.3156 35.5701 54.3156C35.5701 54.3156 35.5701 54.3156 35.5701 54.3156C35.5701 54.3156 35.5701 54.3156 35.5701 54.3156C35.5701 54.3156 35.5701 54.3156 35.5701 54.3156C35.5701 54.3156 35.5701 54.3156 35.5701 54.3156C35.5701 54.3156 35.5701 54.3156 35.57 54.3156C35.57 54.3156 35.57 54.3156 35.57 54.3156C35.57 54.3156 35.57 54.3156 35.57 54.3156C35.57 54.3156 35.57 54.3156 35.57 54.3156C35.57 54.3156 35.57 54.3156 35.57 54.3156C35.57 54.3156 35.57 54.3156 35.57 54.3156C35.57 54.3156 35.57 54.3155 35.57 54.3155C35.57 54.3155 35.57 54.3155 35.57 54.3155C35.57 54.3155 35.57 54.3155 35.5699 54.3155C35.5699 54.3155 35.5699 54.3155 35.5699 54.3155C35.5699 54.3155 35.5699 54.3155 35.5699 54.3155C35.5699 54.3155 35.5699 54.3155 35.5699 54.3155C35.5699 54.3155 35.5699 54.3155 35.5699 54.3155C35.5699 54.3155 35.5699 54.3155 35.5699 54.3155C35.5699 54.3155 35.5699 54.3155 35.5699 54.3155C35.5699 54.3155 35.5699 54.3155 35.5699 54.3155C35.5699 54.3155 35.5698 54.3155 35.5698 54.3155C35.5698 54.3155 35.5698 54.3155 35.5698 54.3155C35.5698 54.3155 35.5698 54.3155 35.5698 54.3155C35.5698 54.3155 35.5698 54.3155 35.5698 54.3155C35.5698 54.3155 35.5698 54.3155 35.5698 54.3155C35.5698 54.3155 35.5698 54.3155 35.5698 54.3155C35.5698 54.3155 35.5698 54.3155 35.5698 54.3155C35.5698 54.3155 35.5698 54.3155 35.5698 54.3155C35.5697 54.3155 35.5697 54.3155 35.5697 54.3155C35.5697 54.3155 35.5697 54.3155 35.5697 54.3155C35.5697 54.3155 35.5697 54.3155 35.5697 54.3155C35.5697 54.3155 35.5697 54.3155 35.5697 54.3154C35.5697 54.3154 35.5697 54.3154 35.5697 54.3154C35.5697 54.3154 35.5697 54.3154 35.5697 54.3154C35.5697 54.3154 35.5697 54.3154 35.5697 54.3154C35.5697 54.3154 35.5697 54.3154 35.5697 54.3154C35.5696 54.3154 35.5696 54.3154 35.5696 54.3154C35.5696 54.3154 35.5696 54.3154 35.5696 54.3154C35.5696 54.3154 35.5696 54.3154 35.5696 54.3154C35.5696 54.3154 35.5696 54.3154 35.5696 54.3154C35.5696 54.3154 35.5696 54.3154 35.5696 54.3154C35.5696 54.3154 35.5696 54.3154 35.5696 54.3154C35.5696 54.3154 35.5696 54.3154 35.5696 54.3154C35.5696 54.3154 35.5696 54.3154 35.5695 54.3154C35.5695 54.3154 35.5695 54.3154 35.5695 54.3154C35.5695 54.3154 35.5695 54.3154 35.5695 54.3154C35.5695 54.3154 35.5695 54.3154 35.5695 54.3154C35.5695 54.3154 35.5695 54.3154 35.5695 54.3154C35.5695 54.3154 35.5695 54.3154 35.5695 54.3154C35.5695 54.3154 35.5695 54.3154 35.5695 54.3154C35.5695 54.3154 35.5695 54.3154 35.5695 54.3154C35.5695 54.3154 35.5695 54.3154 35.5694 54.3154C35.5694 54.3154 35.5694 54.3154 35.5694 54.3153C35.5694 54.3153 35.5694 54.3153 35.5694 54.3153C35.5694 54.3153 35.5694 54.3153 35.5694 54.3153C35.5694 54.3153 35.5694 54.3153 35.5694 54.3153C35.5694 54.3153 35.5694 54.3153 35.5694 54.3153C35.5694 54.3153 35.5694 54.3153 35.5694 54.3153C35.5694 54.3153 35.5694 54.3153 35.5694 54.3153C35.5694 54.3153 35.5693 54.3153 35.5693 54.3153C35.5693 54.3153 35.5693 54.3153 35.5693 54.3153C35.5693 54.3153 35.5693 54.3153 35.5693 54.3153C35.5693 54.3153 35.5693 54.3153 35.5693 54.3153C35.5693 54.3153 35.5693 54.3153 35.5693 54.3153C35.5693 54.3153 35.5693 54.3153 35.5693 54.3153C35.5693 54.3153 35.5693 54.3153 35.5693 54.3153C35.5693 54.3153 35.5693 54.3153 35.5693 54.3153C35.5692 54.3153 35.5692 54.3153 35.5692 54.3153C35.5692 54.3153 35.5692 54.3153 35.5692 54.3153C35.5692 54.3153 35.5692 54.3153 35.5692 54.3153C35.5692 54.3153 35.5692 54.3153 35.5692 54.3153C35.5692 54.3153 35.5692 54.3153 35.5692 54.3153C35.5692 54.3153 35.5692 54.3153 35.5692 54.3153C35.5692 54.3153 35.5692 54.3153 35.5692 54.3153C35.5692 54.3152 35.5692 54.3152 35.5692 54.3152C35.5691 54.3152 35.5691 54.3152 35.5691 54.3152C35.5691 54.3152 35.5691 54.3152 35.5691 54.3152C35.5691 54.3152 35.5691 54.3152 35.5691 54.3152C35.5691 54.3152 35.5691 54.3152 35.5691 54.3152C35.5691 54.3152 35.5691 54.3152 35.5691 54.3152C35.5691 54.3152 35.5691 54.3152 35.5691 54.3152C35.5691 54.3152 35.5691 54.3152 35.5691 54.3152C35.5691 54.3152 35.5691 54.3152 35.569 54.3152C35.569 54.3152 35.569 54.3152 35.569 54.3152C35.569 54.3152 35.569 54.3152 35.569 54.3152C35.569 54.3152 35.569 54.3152 35.569 54.3152C35.569 54.3152 35.569 54.3152 35.569 54.3152C35.569 54.3152 35.569 54.3152 35.569 54.3152C35.569 54.3152 35.569 54.3152 35.569 54.3152C35.569 54.3152 35.569 54.3152 35.569 54.3152C35.569 54.3152 35.5689 54.3152 35.5689 54.3152C35.5689 54.3152 35.5689 54.3152 35.5689 54.3152C35.5689 54.3152 35.5689 54.3152 35.5689 54.3152C35.5689 54.3152 35.5689 54.3152 35.5689 54.3152C35.5689 54.3152 35.5689 54.3152 35.5689 54.3152C35.5689 54.3151 35.5689 54.3151 35.5689 54.3151C35.5689 54.3151 35.5689 54.3151 35.5689 54.3151C35.5689 54.3151 35.5689 54.3151 35.5689 54.3151C35.5689 54.3151 35.5688 54.3151 35.5688 54.3151C35.5688 54.3151 35.5688 54.3151 35.5688 54.3151C35.5688 54.3151 35.5688 54.3151 35.5688 54.3151C35.5688 54.3151 35.5688 54.3151 35.5688 54.3151C35.5688 54.3151 35.5688 54.3151 35.5688 54.3151C35.5688 54.3151 35.5688 54.3151 35.5688 54.3151C35.5688 54.3151 35.5688 54.3151 35.5688 54.3151C35.5688 54.3151 35.5688 54.3151 35.5688 54.3151C35.5687 54.3151 35.5687 54.3151 35.5687 54.3151C35.5687 54.3151 35.5687 54.3151 35.5687 54.3151C35.5687 54.3151 35.5687 54.3151 35.5687 54.3151C35.5687 54.3151 35.5687 54.3151 35.5687 54.3151C35.5687 54.3151 35.5687 54.3151 35.5687 54.3151C35.5687 54.3151 35.5687 54.3151 35.5687 54.3151C35.5687 54.3151 35.5687 54.3151 35.5687 54.3151C35.5687 54.3151 35.5687 54.3151 35.5687 54.3151C35.5686 54.3151 35.5686 54.3151 35.5686 54.3151C35.5686 54.3151 35.5686 54.3151 35.5686 54.3151C35.5686 54.3151 35.5686 54.315 35.5686 54.315C35.5686 54.315 35.5686 54.315 35.5686 54.315C35.5686 54.315 35.5686 54.315 35.5686 54.315C35.5686 54.315 35.5686 54.315 35.5686 54.315C35.5686 54.315 35.5686 54.315 35.5686 54.315C35.5686 54.315 35.5686 54.315 35.5685 54.315C35.5685 54.315 35.5685 54.315 35.5685 54.315C35.5685 54.315 35.5685 54.315 35.5685 54.315C35.5685 54.315 35.5685 54.315 35.5685 54.315C35.5685 54.315 35.5685 54.315 35.5685 54.315C35.5685 54.315 35.5685 54.315 35.5685 54.315C35.5685 54.315 35.5685 54.315 35.5685 54.315C35.5685 54.315 35.5685 54.315 35.5685 54.315C35.5685 54.315 35.5684 54.315 35.5684 54.315C35.5684 54.315 35.5684 54.315 35.5684 54.315C35.5684 54.315 35.5684 54.315 35.5684 54.315C35.5684 54.315 35.5684 54.315 35.5684 54.315C35.5684 54.315 35.5684 54.315 35.5684 54.315C35.5684 54.315 35.5684 54.315 35.5684 54.315C35.5684 54.315 35.5684 54.315 35.5684 54.315C35.5684 54.315 35.5684 54.315 35.5684 54.315C35.5684 54.315 35.5683 54.3149 35.5683 54.3149C35.5683 54.3149 35.5683 54.3149 35.5683 54.3149C35.5683 54.3149 35.5683 54.3149 35.5683 54.3149C35.5683 54.3149 35.5683 54.3149 35.5683 54.3149C35.5683 54.3149 35.5683 54.3149 35.5683 54.3149C35.5683 54.3149 35.5683 54.3149 35.5683 54.3149C35.5683 54.3149 35.5683 54.3149 35.5683 54.3149C35.5683 54.3149 35.5683 54.3149 35.5683 54.3149C35.5682 54.3149 35.5682 54.3149 35.5682 54.3149C35.5682 54.3149 35.5682 54.3149 35.5682 54.3149C35.5682 54.3149 35.5682 54.3149 35.5682 54.3149C35.5682 54.3149 35.5682 54.3149 35.5682 54.3149C35.5682 54.3149 35.5682 54.3149 35.5682 54.3149C35.5682 54.3149 35.5682 54.3149 35.5682 54.3149C35.5682 54.3149 35.5682 54.3149 35.5682 54.3149C35.5682 54.3149 35.5682 54.3149 35.5681 54.3149C35.5681 54.3149 35.5681 54.3149 35.5681 54.3149C35.5681 54.3149 35.5681 54.3149 35.5681 54.3149C35.5681 54.3149 35.5681 54.3149 35.5681 54.3149C35.5681 54.3149 35.5681 54.3149 35.5681 54.3149C35.5681 54.3149 35.5681 54.3149 35.5681 54.3149C35.5681 54.3149 35.5681 54.3148 35.5681 54.3148C35.5681 54.3148 35.5681 54.3148 35.5681 54.3148C35.5681 54.3148 35.5681 54.3148 35.568 54.3148C35.568 54.3148 35.568 54.3148 35.568 54.3148C35.568 54.3148 35.568 54.3148 35.568 54.3148C35.568 54.3148 35.568 54.3148 35.568 54.3148C35.568 54.3148 35.568 54.3148 35.568 54.3148C35.568 54.3148 35.568 54.3148 35.568 54.3148C35.568 54.3148 35.568 54.3148 35.568 54.3148C35.568 54.3148 35.568 54.3148 35.568 54.3148C35.568 54.3148 35.5679 54.3148 35.5679 54.3148C35.5679 54.3148 35.5679 54.3148 35.5679 54.3148C35.5679 54.3148 35.5679 54.3148 35.5679 54.3148C35.5679 54.3148 35.5679 54.3148 35.5679 54.3148C35.5679 54.3148 35.5679 54.3148 35.5679 54.3148C35.5679 54.3148 35.5679 54.3148 35.5679 54.3148C35.5679 54.3148 35.5679 54.3148 35.5679 54.3148C35.5679 54.3148 35.5679 54.3148 35.5679 54.3148C35.5679 54.3148 35.5678 54.3148 35.5678 54.3148C35.5678 54.3148 35.5678 54.3148 35.5678 54.3148C35.5678 54.3148 35.5678 54.3148 35.5678 54.3148C35.5678 54.3148 35.5678 54.3148 35.5678 54.3147C35.5678 54.3147 35.5678 54.3147 35.5678 54.3147C35.5678 54.3147 35.5678 54.3147 35.5678 54.3147C35.5678 54.3147 35.5678 54.3147 35.5678 54.3147C35.5678 54.3147 35.5678 54.3147 35.5678 54.3147C35.5677 54.3147 35.5677 54.3147 35.5677 54.3147C35.5677 54.3147 35.5677 54.3147 35.5677 54.3147C35.5677 54.3147 35.5677 54.3147 35.5677 54.3147C35.5677 54.3147 35.5677 54.3147 35.5677 54.3147C35.5677 54.3147 35.5677 54.3147 35.5677 54.3147C35.5677 54.3147 35.5677 54.3147 35.5677 54.3147C35.5677 54.3147 35.5677 54.3147 35.5677 54.3147C35.5677 54.3147 35.5677 54.3147 35.5676 54.3147C35.5676 54.3147 35.5676 54.3147 35.5676 54.3147C35.5676 54.3147 35.5676 54.3147 35.5676 54.3147C35.5676 54.3147 35.5676 54.3147 35.5676 54.3147C35.5676 54.3147 35.5676 54.3147 35.5676 54.3147C35.5676 54.3147 35.5676 54.3147 35.5676 54.3147C35.5676 54.3147 35.5676 54.3147 35.5676 54.3147C35.5676 54.3147 35.5676 54.3147 35.5676 54.3147C35.5676 54.3147 35.5676 54.3147 35.5675 54.3147C35.5675 54.3147 35.5675 54.3146 35.5675 54.3146C35.5675 54.3146 35.5675 54.3146 35.5675 54.3146C35.5675 54.3146 35.5675 54.3146 35.5675 54.3146C35.5675 54.3146 35.5675 54.3146 35.5675 54.3146C35.5675 54.3146 35.5675 54.3146 35.5675 54.3146C35.5675 54.3146 35.5675 54.3146 35.5675 54.3146C35.5675 54.3146 35.5675 54.3146 35.5675 54.3146C35.5675 54.3146 35.5674 54.3146 35.5674 54.3146C35.5674 54.3146 35.5674 54.3146 35.5674 54.3146C35.5674 54.3146 35.5674 54.3146 35.5674 54.3146C35.5674 54.3146 35.5674 54.3146 35.5674 54.3146C35.5674 54.3146 35.5674 54.3146 35.5674 54.3146C35.5674 54.3146 35.5674 54.3146 35.5674 54.3146C35.5674 54.3146 35.5674 54.3146 35.5674 54.3146C35.5674 54.3146 35.5674 54.3146 35.5674 54.3146C35.5673 54.3146 35.5673 54.3146 35.5673 54.3146C35.5673 54.3146 35.5673 54.3146 35.5673 54.3146C35.5673 54.3146 35.5673 54.3146 35.5673 54.3146C35.5673 54.3146 35.5673 54.3146 35.5673 54.3146C35.5673 54.3146 35.5673 54.3146 35.5673 54.3146C35.5673 54.3146 35.5673 54.3146 35.5673 54.3146C35.5673 54.3146 35.5673 54.3146 35.5673 54.3145C35.5673 54.3145 35.5673 54.3145 35.5673 54.3145C35.5672 54.3145 35.5672 54.3145 35.5672 54.3145C35.5672 54.3145 35.5672 54.3145 35.5672 54.3145C35.5672 54.3145 35.5672 54.3145 35.5672 54.3145C35.5672 54.3145 35.5672 54.3145 35.5672 54.3145C35.5672 54.3145 35.5672 54.3145 35.5672 54.3145C35.5672 54.3145 35.5672 54.3145 35.5672 54.3145C35.5672 54.3145 35.5672 54.3145 35.5672 54.3145C35.5672 54.3145 35.5672 54.3145 35.5671 54.3145C35.5671 54.3145 35.5671 54.3145 35.5671 54.3145C35.5671 54.3145 35.5671 54.3145 35.5671 54.3145C35.5671 54.3145 35.5671 54.3145 35.5671 54.3145C35.5671 54.3145 35.5671 54.3145 35.5671 54.3145C35.5671 54.3145 35.5671 54.3145 35.5671 54.3145C35.5671 54.3145 35.5671 54.3145 35.5671 54.3145C35.5671 54.3145 35.5671 54.3145 35.5671 54.3145C35.5671 54.3145 35.567 54.3145 35.567 54.3145C35.567 54.3145 35.567 54.3145 35.567 54.3145C35.567 54.3145 35.567 54.3145 35.567 54.3145C35.567 54.3145 35.567 54.3145 35.567 54.3145C35.567 54.3145 35.567 54.3145 35.567 54.3144C35.567 54.3144 35.567 54.3144 35.567 54.3144C35.567 54.3144 35.567 54.3144 35.567 54.3144C35.567 54.3144 35.567 54.3144 35.567 54.3144C35.567 54.3144 35.5669 54.3144 35.5669 54.3144C35.5669 54.3144 35.5669 54.3144 35.5669 54.3144C35.5669 54.3144 35.5669 54.3144 35.5669 54.3144C35.5669 54.3144 35.5669 54.3144 35.5669 54.3144C35.5669 54.3144 35.5669 54.3144 35.5669 54.3144C35.5669 54.3144 35.5669 54.3144 35.5669 54.3144C35.5669 54.3144 35.5669 54.3144 35.5669 54.3144C35.5669 54.3144 35.5669 54.3144 35.5669 54.3144C35.5668 54.3144 35.5668 54.3144 35.5668 54.3144C35.5668 54.3144 35.5668 54.3144 35.5668 54.3144C35.5668 54.3144 35.5668 54.3144 35.5668 54.3144C35.5668 54.3144 35.5668 54.3144 35.5668 54.3144C35.5668 54.3144 35.5668 54.3144 35.5668 54.3144C35.5668 54.3144 35.5668 54.3144 35.5668 54.3144C35.5668 54.3144 35.5668 54.3144 35.5668 54.3144C35.5668 54.3144 35.5668 54.3144 35.5668 54.3144C35.5667 54.3144 35.5667 54.3144 35.5667 54.3144C35.5667 54.3144 35.5667 54.3144 35.5667 54.3144C35.5667 54.3143 35.5667 54.3143 35.5667 54.3143C35.5667 54.3143 35.5667 54.3143 35.5667 54.3143C35.5667 54.3143 35.5667 54.3143 35.5667 54.3143C35.5667 54.3143 35.5667 54.3143 35.5667 54.3143C35.5667 54.3143 35.5667 54.3143 35.5667 54.3143C35.5667 54.3143 35.5667 54.3143 35.5666 54.3143C35.5666 54.3143 35.5666 54.3143 35.5666 54.3143C35.5666 54.3143 35.5666 54.3143 35.5666 54.3143C35.5666 54.3143 35.5666 54.3143 35.5666 54.3143C35.5666 54.3143 35.5666 54.3143 35.5666 54.3143C35.5666 54.3143 35.5666 54.3143 35.5666 54.3143C35.5666 54.3143 35.5666 54.3143 35.5666 54.3143C35.5666 54.3143 35.5666 54.3143 35.5666 54.3143C35.5666 54.3143 35.5665 54.3143 35.5665 54.3143C35.5665 54.3143 35.5665 54.3143 35.5665 54.3143C35.5665 54.3143 35.5665 54.3143 35.5665 54.3143C35.5665 54.3143 35.5665 54.3143 35.5665 54.3143C35.5665 54.3143 35.5665 54.3143 35.5665 54.3143C35.5665 54.3143 35.5665 54.3143 35.5665 54.3143C35.5665 54.3143 35.5665 54.3143 35.5665 54.3143C35.5665 54.3143 35.5665 54.3143 35.5665 54.3143C35.5665 54.3142 35.5664 54.3142 35.5664 54.3142C35.5664 54.3142 35.5664 54.3142 35.5664 54.3142C35.5664 54.3142 35.5664 54.3142 35.5664 54.3142C35.5664 54.3142 35.5664 54.3142 35.5664 54.3142C35.5664 54.3142 35.5664 54.3142 35.5664 54.3142C35.5664 54.3142 35.5664 54.3142 35.5664 54.3142C35.5664 54.3142 35.5664 54.3142 35.5664 54.3142C35.5664 54.3142 35.5664 54.3142 35.5664 54.3142C35.5663 54.3142 35.5663 54.3142 35.5663 54.3142C35.5663 54.3142 35.5663 54.3142 35.5663 54.3142C35.5663 54.3142 35.5663 54.3142 35.5663 54.3142C35.5663 54.3142 35.5663 54.3142 35.5663 54.3142C35.5663 54.3142 35.5663 54.3142 35.5663 54.3142C35.5663 54.3142 35.5663 54.3142 35.5663 54.3142C35.5663 54.3142 35.5663 54.3142 35.5663 54.3142C35.5663 54.3142 35.5663 54.3142 35.5662 54.3142C35.5662 54.3142 35.5662 54.3142 35.5662 54.3142C35.5662 54.3142 35.5662 54.3142 35.5662 54.3142C35.5662 54.3142 35.5662 54.3142 35.5662 54.3142C35.5662 54.3142 35.5662 54.3142 35.5662 54.3142C35.5662 54.3142 35.5662 54.3142 35.5662 54.3142C35.5662 54.3141 35.5662 54.3141 35.5662 54.3141C35.5662 54.3141 35.5662 54.3141 35.5662 54.3141C35.5662 54.3141 35.5662 54.3141 35.5661 54.3141C35.5661 54.3141 35.5661 54.3141 35.5661 54.3141C35.5661 54.3141 35.5661 54.3141 35.5661 54.3141C35.5661 54.3141 35.5661 54.3141 35.5661 54.3141C35.5661 54.3141 35.5661 54.3141 35.5661 54.3141C35.5661 54.3141 35.5661 54.3141 35.5661 54.3141C35.5661 54.3141 35.5661 54.3141 35.5661 54.3141C35.5661 54.3141 35.5661 54.3141 35.5661 54.3141C35.5661 54.3141 35.566 54.3141 35.566 54.3141C35.566 54.3141 35.566 54.3141 35.566 54.3141C35.566 54.3141 35.566 54.3141 35.566 54.3141C35.566 54.3141 35.566 54.3141 35.566 54.3141C35.566 54.3141 35.566 54.3141 35.566 54.3141C35.566 54.3141 35.566 54.3141 35.566 54.3141C35.566 54.3141 35.566 54.3141 35.566 54.3141C35.566 54.3141 35.566 54.3141 35.566 54.3141C35.566 54.3141 35.5659 54.3141 35.5659 54.3141C35.5659 54.3141 35.5659 54.3141 35.5659 54.3141C35.5659 54.3141 35.5659 54.3141 35.5659 54.3141C35.5659 54.3141 35.5659 54.314 35.5659 54.314C35.5659 54.314 35.5659 54.314 35.5659 54.314C35.5659 54.314 35.5659 54.314 35.5659 54.314C35.5659 54.314 35.5659 54.314 35.5659 54.314C35.5659 54.314 35.5659 54.314 35.5659 54.314C35.5658 54.314 35.5658 54.314 35.5658 54.314C35.5658 54.314 35.5658 54.314 35.5658 54.314C35.5658 54.314 35.5658 54.314 35.5658 54.314C35.5658 54.314 35.5658 54.314 35.5658 54.314C35.5658 54.314 35.5658 54.314 35.5658 54.314C35.5658 54.314 35.5658 54.314 35.5658 54.314C35.5658 54.314 35.5658 54.314 35.5658 54.314C35.5658 54.314 35.5658 54.314 35.5657 54.314C35.5657 54.314 35.5657 54.314 35.5657 54.314C35.5657 54.314 35.5657 54.314 35.5657 54.314C35.5657 54.314 35.5657 54.314 35.5657 54.314C35.5657 54.314 35.5657 54.314 35.5657 54.314C35.5657 54.314 35.5657 54.314 35.5657 54.314C35.5657 54.314 35.5657 54.314 35.5657 54.314C35.5657 54.314 35.5657 54.314 35.5657 54.314C35.5657 54.314 35.5657 54.314 35.5656 54.314C35.5656 54.314 35.5656 54.3139 35.5656 54.3139C35.5656 54.3139 35.5656 54.3139 35.5656 54.3139C35.5656 54.3139 35.5656 54.3139 35.5656 54.3139C35.5656 54.3139 35.5656 54.3139 35.5656 54.3139C35.5656 54.3139 35.5656 54.3139 35.5656 54.3139C35.5656 54.3139 35.5656 54.3139 35.5656 54.3139C35.5656 54.3139 35.5656 54.3139 35.5656 54.3139C35.5656 54.3139 35.5655 54.3139 35.5655 54.3139C35.5655 54.3139 35.5655 54.3139 35.5655 54.3139C35.5655 54.3139 35.5655 54.3139 35.5655 54.3139C35.5655 54.3139 35.5655 54.3139 35.5655 54.3139C35.5655 54.3139 35.5655 54.3139 35.5655 54.3139C35.5655 54.3139 35.5655 54.3139 35.5655 54.3139C35.5655 54.3139 35.5655 54.3139 35.5655 54.3139C35.5655 54.3139 35.5655 54.3139 35.5655 54.3139C35.5654 54.3139 35.5654 54.3139 35.5654 54.3139C35.5654 54.3139 35.5654 54.3139 35.5654 54.3139C35.5654 54.3139 35.5654 54.3139 35.5654 54.3139C35.5654 54.3139 35.5654 54.3139 35.5654 54.3139C35.5654 54.3139 35.5654 54.3139 35.5654 54.3139C35.5654 54.3139 35.5654 54.3139 35.5654 54.3139C35.5654 54.3139 35.5654 54.3139 35.5654 54.3138C35.5654 54.3138 35.5654 54.3138 35.5654 54.3138C35.5653 54.3138 35.5653 54.3138 35.5653 54.3138C35.5653 54.3138 35.5653 54.3138 35.5653 54.3138C35.5653 54.3138 35.5653 54.3138 35.5653 54.3138C35.5653 54.3138 35.5653 54.3138 35.5653 54.3138C35.5653 54.3138 35.5653 54.3138 35.5653 54.3138C35.5653 54.3138 35.5653 54.3138 35.5653 54.3138C35.5653 54.3138 35.5653 54.3138 35.5653 54.3138C35.5653 54.3138 35.5653 54.3138 35.5652 54.3138C35.5652 54.3138 35.5652 54.3138 35.5652 54.3138C35.5652 54.3138 35.5652 54.3138 35.5652 54.3138C35.5652 54.3138 35.5652 54.3138 35.5652 54.3138C35.5652 54.3138 35.5652 54.3138 35.5652 54.3138C35.5652 54.3138 35.5652 54.3138 35.5652 54.3138C35.5652 54.3138 35.5652 54.3138 35.5652 54.3138C35.5652 54.3138 35.5652 54.3138 35.5652 54.3138C35.5652 54.3138 35.5652 54.3138 35.5651 54.3138C35.5651 54.3138 35.5651 54.3138 35.5651 54.3138C35.5651 54.3138 35.5651 54.3138 35.5651 54.3138C35.5651 54.3138 35.5651 54.3138 35.5651 54.3138C35.5651 54.3138 35.5651 54.3137 35.5651 54.3137C35.5651 54.3137 35.5651 54.3137 35.5651 54.3137C35.5651 54.3137 35.5651 54.3137 35.5651 54.3137C35.5651 54.3137 35.5651 54.3137 35.5651 54.3137C35.5651 54.3137 35.565 54.3137 35.565 54.3137C35.565 54.3137 35.565 54.3137 35.565 54.3137C35.565 54.3137 35.565 54.3137 35.565 54.3137C35.565 54.3137 35.565 54.3137 35.565 54.3137C35.565 54.3137 35.565 54.3137 35.565 54.3137C35.565 54.3137 35.565 54.3137 35.565 54.3137C35.565 54.3137 35.565 54.3137 35.565 54.3137C35.565 54.3137 35.565 54.3137 35.565 54.3137C35.5649 54.3137 35.5649 54.3137 35.5649 54.3137C35.5649 54.3137 35.5649 54.3137 35.5649 54.3137C35.5649 54.3137 35.5649 54.3137 35.5649 54.3137C35.5649 54.3137 35.5649 54.3137 35.5649 54.3137C35.5649 54.3137 35.5649 54.3137 35.5649 54.3137C35.5649 54.3137 35.5649 54.3137 35.5649 54.3137C35.5649 54.3137 35.5649 54.3137 35.5649 54.3137C35.5649 54.3137 35.5649 54.3137 35.5649 54.3137L34.1795 58.0661C34.1795 58.0661 34.1795 58.0661 34.1795 58.0661C34.1795 58.0661 34.1796 58.0661 34.1796 58.0661C34.1796 58.0661 34.1796 58.0661 34.1796 58.0661C34.1796 58.0661 34.1796 58.0661 34.1796 58.0661C34.1796 58.0661 34.1796 58.0661 34.1796 58.0661C34.1796 58.0661 34.1796 58.0661 34.1796 58.0661C34.1796 58.0661 34.1796 58.0661 34.1796 58.0661C34.1796 58.0661 34.1796 58.0661 34.1796 58.0661C34.1796 58.0661 34.1796 58.0662 34.1796 58.0662C34.1797 58.0662 34.1797 58.0662 34.1797 58.0662C34.1797 58.0662 34.1797 58.0662 34.1797 58.0662C34.1797 58.0662 34.1797 58.0662 34.1797 58.0662C34.1797 58.0662 34.1797 58.0662 34.1797 58.0662C34.1797 58.0662 34.1797 58.0662 34.1797 58.0662C34.1797 58.0662 34.1797 58.0662 34.1797 58.0662C34.1797 58.0662 34.1797 58.0662 34.1797 58.0662C34.1797 58.0662 34.1797 58.0662 34.1797 58.0662C34.1798 58.0662 34.1798 58.0662 34.1798 58.0662C34.1798 58.0662 34.1798 58.0662 34.1798 58.0662C34.1798 58.0662 34.1798 58.0662 34.1798 58.0662C34.1798 58.0662 34.1798 58.0662 34.1798 58.0662C34.1798 58.0662 34.1798 58.0662 34.1798 58.0662C34.1798 58.0662 34.1798 58.0662 34.1798 58.0662C34.1798 58.0662 34.1798 58.0662 34.1798 58.0662C34.1798 58.0662 34.1798 58.0662 34.1799 58.0662C34.1799 58.0662 34.1799 58.0662 34.1799 58.0662C34.1799 58.0662 34.1799 58.0662 34.1799 58.0662C34.1799 58.0662 34.1799 58.0662 34.1799 58.0662C34.1799 58.0662 34.1799 58.0662 34.1799 58.0662C34.1799 58.0662 34.1799 58.0662 34.1799 58.0663C34.1799 58.0663 34.1799 58.0663 34.1799 58.0663C34.1799 58.0663 34.1799 58.0663 34.1799 58.0663C34.1799 58.0663 34.18 58.0663 34.18 58.0663C34.18 58.0663 34.18 58.0663 34.18 58.0663C34.18 58.0663 34.18 58.0663 34.18 58.0663C34.18 58.0663 34.18 58.0663 34.18 58.0663C34.18 58.0663 34.18 58.0663 34.18 58.0663C34.18 58.0663 34.18 58.0663 34.18 58.0663C34.18 58.0663 34.18 58.0663 34.18 58.0663C34.18 58.0663 34.18 58.0663 34.18 58.0663C34.18 58.0663 34.1801 58.0663 34.1801 58.0663C34.1801 58.0663 34.1801 58.0663 34.1801 58.0663C34.1801 58.0663 34.1801 58.0663 34.1801 58.0663C34.1801 58.0663 34.1801 58.0663 34.1801 58.0663C34.1801 58.0663 34.1801 58.0663 34.1801 58.0663C34.1801 58.0663 34.1801 58.0663 34.1801 58.0663C34.1801 58.0663 34.1801 58.0663 34.1801 58.0663C34.1801 58.0663 34.1801 58.0663 34.1801 58.0663C34.1802 58.0663 34.1802 58.0663 34.1802 58.0663C34.1802 58.0663 34.1802 58.0663 34.1802 58.0663C34.1802 58.0663 34.1802 58.0663 34.1802 58.0664C34.1802 58.0664 34.1802 58.0664 34.1802 58.0664C34.1802 58.0664 34.1802 58.0664 34.1802 58.0664C34.1802 58.0664 34.1802 58.0664 34.1802 58.0664C34.1802 58.0664 34.1802 58.0664 34.1802 58.0664C34.1802 58.0664 34.1802 58.0664 34.1803 58.0664C34.1803 58.0664 34.1803 58.0664 34.1803 58.0664C34.1803 58.0664 34.1803 58.0664 34.1803 58.0664C34.1803 58.0664 34.1803 58.0664 34.1803 58.0664C34.1803 58.0664 34.1803 58.0664 34.1803 58.0664C34.1803 58.0664 34.1803 58.0664 34.1803 58.0664C34.1803 58.0664 34.1803 58.0664 34.1803 58.0664C34.1803 58.0664 34.1803 58.0664 34.1803 58.0664C34.1803 58.0664 34.1803 58.0664 34.1804 58.0664C34.1804 58.0664 34.1804 58.0664 34.1804 58.0664C34.1804 58.0664 34.1804 58.0664 34.1804 58.0664C34.1804 58.0664 34.1804 58.0664 34.1804 58.0664C34.1804 58.0664 34.1804 58.0664 34.1804 58.0664C34.1804 58.0664 34.1804 58.0664 34.1804 58.0664C34.1804 58.0664 34.1804 58.0664 34.1804 58.0664C34.1804 58.0664 34.1804 58.0664 34.1804 58.0664C34.1804 58.0664 34.1805 58.0665 34.1805 58.0665C34.1805 58.0665 34.1805 58.0665 34.1805 58.0665C34.1805 58.0665 34.1805 58.0665 34.1805 58.0665C34.1805 58.0665 34.1805 58.0665 34.1805 58.0665C34.1805 58.0665 34.1805 58.0665 34.1805 58.0665C34.1805 58.0665 34.1805 58.0665 34.1805 58.0665C34.1805 58.0665 34.1805 58.0665 34.1805 58.0665C34.1805 58.0665 34.1805 58.0665 34.1805 58.0665C34.1805 58.0665 34.1806 58.0665 34.1806 58.0665C34.1806 58.0665 34.1806 58.0665 34.1806 58.0665C34.1806 58.0665 34.1806 58.0665 34.1806 58.0665C34.1806 58.0665 34.1806 58.0665 34.1806 58.0665C34.1806 58.0665 34.1806 58.0665 34.1806 58.0665C34.1806 58.0665 34.1806 58.0665 34.1806 58.0665C34.1806 58.0665 34.1806 58.0665 34.1806 58.0665C34.1806 58.0665 34.1806 58.0665 34.1806 58.0665C34.1807 58.0665 34.1807 58.0665 34.1807 58.0665C34.1807 58.0665 34.1807 58.0665 34.1807 58.0665C34.1807 58.0665 34.1807 58.0665 34.1807 58.0665C34.1807 58.0665 34.1807 58.0665 34.1807 58.0665C34.1807 58.0665 34.1807 58.0665 34.1807 58.0665C34.1807 58.0665 34.1807 58.0665 34.1807 58.0666C34.1807 58.0666 34.1807 58.0666 34.1807 58.0666C34.1807 58.0666 34.1807 58.0666 34.1808 58.0666C34.1808 58.0666 34.1808 58.0666 34.1808 58.0666C34.1808 58.0666 34.1808 58.0666 34.1808 58.0666C34.1808 58.0666 34.1808 58.0666 34.1808 58.0666C34.1808 58.0666 34.1808 58.0666 34.1808 58.0666C34.1808 58.0666 34.1808 58.0666 34.1808 58.0666C34.1808 58.0666 34.1808 58.0666 34.1808 58.0666C34.1808 58.0666 34.1808 58.0666 34.1808 58.0666C34.1808 58.0666 34.1808 58.0666 34.1809 58.0666C34.1809 58.0666 34.1809 58.0666 34.1809 58.0666C34.1809 58.0666 34.1809 58.0666 34.1809 58.0666C34.1809 58.0666 34.1809 58.0666 34.1809 58.0666C34.1809 58.0666 34.1809 58.0666 34.1809 58.0666C34.1809 58.0666 34.1809 58.0666 34.1809 58.0666C34.1809 58.0666 34.1809 58.0666 34.1809 58.0666C34.1809 58.0666 34.1809 58.0666 34.1809 58.0666C34.1809 58.0666 34.181 58.0666 34.181 58.0666C34.181 58.0666 34.181 58.0666 34.181 58.0666C34.181 58.0666 34.181 58.0666 34.181 58.0666C34.181 58.0666 34.181 58.0666 34.181 58.0667C34.181 58.0667 34.181 58.0667 34.181 58.0667C34.181 58.0667 34.181 58.0667 34.181 58.0667C34.181 58.0667 34.181 58.0667 34.181 58.0667C34.181 58.0667 34.181 58.0667 34.181 58.0667C34.1811 58.0667 34.1811 58.0667 34.1811 58.0667C34.1811 58.0667 34.1811 58.0667 34.1811 58.0667C34.1811 58.0667 34.1811 58.0667 34.1811 58.0667C34.1811 58.0667 34.1811 58.0667 34.1811 58.0667C34.1811 58.0667 34.1811 58.0667 34.1811 58.0667C34.1811 58.0667 34.1811 58.0667 34.1811 58.0667C34.1811 58.0667 34.1811 58.0667 34.1811 58.0667C34.1811 58.0667 34.1811 58.0667 34.1811 58.0667C34.1812 58.0667 34.1812 58.0667 34.1812 58.0667C34.1812 58.0667 34.1812 58.0667 34.1812 58.0667C34.1812 58.0667 34.1812 58.0667 34.1812 58.0667C34.1812 58.0667 34.1812 58.0667 34.1812 58.0667C34.1812 58.0667 34.1812 58.0667 34.1812 58.0667C34.1812 58.0667 34.1812 58.0667 34.1812 58.0667C34.1812 58.0667 34.1812 58.0667 34.1812 58.0667C34.1812 58.0667 34.1812 58.0667 34.1813 58.0667C34.1813 58.0667 34.1813 58.0667 34.1813 58.0667C34.1813 58.0668 34.1813 58.0668 34.1813 58.0668C34.1813 58.0668 34.1813 58.0668 34.1813 58.0668C34.1813 58.0668 34.1813 58.0668 34.1813 58.0668C34.1813 58.0668 34.1813 58.0668 34.1813 58.0668C34.1813 58.0668 34.1813 58.0668 34.1813 58.0668C34.1813 58.0668 34.1813 58.0668 34.1813 58.0668C34.1813 58.0668 34.1813 58.0668 34.1814 58.0668C34.1814 58.0668 34.1814 58.0668 34.1814 58.0668C34.1814 58.0668 34.1814 58.0668 34.1814 58.0668C34.1814 58.0668 34.1814 58.0668 34.1814 58.0668C34.1814 58.0668 34.1814 58.0668 34.1814 58.0668C34.1814 58.0668 34.1814 58.0668 34.1814 58.0668C34.1814 58.0668 34.1814 58.0668 34.1814 58.0668C34.1814 58.0668 34.1814 58.0668 34.1814 58.0668C34.1814 58.0668 34.1815 58.0668 34.1815 58.0668C34.1815 58.0668 34.1815 58.0668 34.1815 58.0668C34.1815 58.0668 34.1815 58.0668 34.1815 58.0668C34.1815 58.0668 34.1815 58.0668 34.1815 58.0668C34.1815 58.0668 34.1815 58.0668 34.1815 58.0668C34.1815 58.0668 34.1815 58.0668 34.1815 58.0668C34.1815 58.0668 34.1815 58.0668 34.1815 58.0668C34.1815 58.0669 34.1815 58.0669 34.1815 58.0669C34.1816 58.0669 34.1816 58.0669 34.1816 58.0669C34.1816 58.0669 34.1816 58.0669 34.1816 58.0669C34.1816 58.0669 34.1816 58.0669 34.1816 58.0669C34.1816 58.0669 34.1816 58.0669 34.1816 58.0669C34.1816 58.0669 34.1816 58.0669 34.1816 58.0669C34.1816 58.0669 34.1816 58.0669 34.1816 58.0669C34.1816 58.0669 34.1816 58.0669 34.1816 58.0669C34.1816 58.0669 34.1816 58.0669 34.1816 58.0669C34.1817 58.0669 34.1817 58.0669 34.1817 58.0669C34.1817 58.0669 34.1817 58.0669 34.1817 58.0669C34.1817 58.0669 34.1817 58.0669 34.1817 58.0669C34.1817 58.0669 34.1817 58.0669 34.1817 58.0669C34.1817 58.0669 34.1817 58.0669 34.1817 58.0669C34.1817 58.0669 34.1817 58.0669 34.1817 58.0669C34.1817 58.0669 34.1817 58.0669 34.1817 58.0669C34.1817 58.0669 34.1817 58.0669 34.1818 58.0669C34.1818 58.0669 34.1818 58.0669 34.1818 58.0669C34.1818 58.0669 34.1818 58.0669 34.1818 58.0669C34.1818 58.0669 34.1818 58.0669 34.1818 58.0669C34.1818 58.0669 34.1818 58.0669 34.1818 58.0669C34.1818 58.0669 34.1818 58.067 34.1818 58.067C34.1818 58.067 34.1818 58.067 34.1818 58.067C34.1818 58.067 34.1818 58.067 34.1818 58.067C34.1818 58.067 34.1819 58.067 34.1819 58.067C34.1819 58.067 34.1819 58.067 34.1819 58.067C34.1819 58.067 34.1819 58.067 34.1819 58.067C34.1819 58.067 34.1819 58.067 34.1819 58.067C34.1819 58.067 34.1819 58.067 34.1819 58.067C34.1819 58.067 34.1819 58.067 34.1819 58.067C34.1819 58.067 34.1819 58.067 34.1819 58.067C34.1819 58.067 34.1819 58.067 34.1819 58.067C34.1819 58.067 34.182 58.067 34.182 58.067C34.182 58.067 34.182 58.067 34.182 58.067C34.182 58.067 34.182 58.067 34.182 58.067C34.182 58.067 34.182 58.067 34.182 58.067C34.182 58.067 34.182 58.067 34.182 58.067C34.182 58.067 34.182 58.067 34.182 58.067C34.182 58.067 34.182 58.067 34.182 58.067C34.182 58.067 34.182 58.067 34.182 58.067C34.1821 58.067 34.1821 58.067 34.1821 58.067C34.1821 58.067 34.1821 58.067 34.1821 58.067C34.1821 58.067 34.1821 58.0671 34.1821 58.0671C34.1821 58.0671 34.1821 58.0671 34.1821 58.0671C34.1821 58.0671 34.1821 58.0671 34.1821 58.0671C34.1821 58.0671 34.1821 58.0671 34.1821 58.0671C34.1821 58.0671 34.1821 58.0671 34.1821 58.0671C34.1821 58.0671 34.1821 58.0671 34.1821 58.0671C34.1822 58.0671 34.1822 58.0671 34.1822 58.0671C34.1822 58.0671 34.1822 58.0671 34.1822 58.0671C34.1822 58.0671 34.1822 58.0671 34.1822 58.0671C34.1822 58.0671 34.1822 58.0671 34.1822 58.0671C34.1822 58.0671 34.1822 58.0671 34.1822 58.0671C34.1822 58.0671 34.1822 58.0671 34.1822 58.0671C34.1822 58.0671 34.1822 58.0671 34.1822 58.0671C34.1822 58.0671 34.1822 58.0671 34.1823 58.0671C34.1823 58.0671 34.1823 58.0671 34.1823 58.0671C34.1823 58.0671 34.1823 58.0671 34.1823 58.0671C34.1823 58.0671 34.1823 58.0671 34.1823 58.0671C34.1823 58.0671 34.1823 58.0671 34.1823 58.0671C34.1823 58.0671 34.1823 58.0671 34.1823 58.0671C34.1823 58.0671 34.1823 58.0671 34.1823 58.0671C34.1823 58.0671 34.1823 58.0671 34.1823 58.0671C34.1823 58.0671 34.1824 58.0672 34.1824 58.0672C34.1824 58.0672 34.1824 58.0672 34.1824 58.0672C34.1824 58.0672 34.1824 58.0672 34.1824 58.0672C34.1824 58.0672 34.1824 58.0672 34.1824 58.0672C34.1824 58.0672 34.1824 58.0672 34.1824 58.0672C34.1824 58.0672 34.1824 58.0672 34.1824 58.0672C34.1824 58.0672 34.1824 58.0672 34.1824 58.0672C34.1824 58.0672 34.1824 58.0672 34.1824 58.0672C34.1824 58.0672 34.1825 58.0672 34.1825 58.0672C34.1825 58.0672 34.1825 58.0672 34.1825 58.0672C34.1825 58.0672 34.1825 58.0672 34.1825 58.0672C34.1825 58.0672 34.1825 58.0672 34.1825 58.0672C34.1825 58.0672 34.1825 58.0672 34.1825 58.0672C34.1825 58.0672 34.1825 58.0672 34.1825 58.0672C34.1825 58.0672 34.1825 58.0672 34.1825 58.0672C34.1825 58.0672 34.1825 58.0672 34.1825 58.0672C34.1826 58.0672 34.1826 58.0672 34.1826 58.0672C34.1826 58.0672 34.1826 58.0672 34.1826 58.0672C34.1826 58.0672 34.1826 58.0672 34.1826 58.0672C34.1826 58.0672 34.1826 58.0672 34.1826 58.0672C34.1826 58.0672 34.1826 58.0672 34.1826 58.0672C34.1826 58.0672 34.1826 58.0672 34.1826 58.0673C34.1826 58.0673 34.1826 58.0673 34.1826 58.0673C34.1826 58.0673 34.1826 58.0673 34.1827 58.0673C34.1827 58.0673 34.1827 58.0673 34.1827 58.0673C34.1827 58.0673 34.1827 58.0673 34.1827 58.0673C34.1827 58.0673 34.1827 58.0673 34.1827 58.0673C34.1827 58.0673 34.1827 58.0673 34.1827 58.0673C34.1827 58.0673 34.1827 58.0673 34.1827 58.0673C34.1827 58.0673 34.1827 58.0673 34.1827 58.0673C34.1827 58.0673 34.1827 58.0673 34.1827 58.0673C34.1827 58.0673 34.1827 58.0673 34.1828 58.0673C34.1828 58.0673 34.1828 58.0673 34.1828 58.0673C34.1828 58.0673 34.1828 58.0673 34.1828 58.0673C34.1828 58.0673 34.1828 58.0673 34.1828 58.0673C34.1828 58.0673 34.1828 58.0673 34.1828 58.0673C34.1828 58.0673 34.1828 58.0673 34.1828 58.0673C34.1828 58.0673 34.1828 58.0673 34.1828 58.0673C34.1828 58.0673 34.1828 58.0673 34.1828 58.0673C34.1828 58.0673 34.1829 58.0673 34.1829 58.0673C34.1829 58.0673 34.1829 58.0673 34.1829 58.0673C34.1829 58.0673 34.1829 58.0673 34.1829 58.0673C34.1829 58.0673 34.1829 58.0674 34.1829 58.0674C34.1829 58.0674 34.1829 58.0674 34.1829 58.0674C34.1829 58.0674 34.1829 58.0674 34.1829 58.0674C34.1829 58.0674 34.1829 58.0674 34.1829 58.0674C34.1829 58.0674 34.1829 58.0674 34.1829 58.0674C34.183 58.0674 34.183 58.0674 34.183 58.0674C34.183 58.0674 34.183 58.0674 34.183 58.0674C34.183 58.0674 34.183 58.0674 34.183 58.0674C34.183 58.0674 34.183 58.0674 34.183 58.0674C34.183 58.0674 34.183 58.0674 34.183 58.0674C34.183 58.0674 34.183 58.0674 34.183 58.0674C34.183 58.0674 34.183 58.0674 34.183 58.0674C34.183 58.0674 34.183 58.0674 34.183 58.0674C34.1831 58.0674 34.1831 58.0674 34.1831 58.0674C34.1831 58.0674 34.1831 58.0674 34.1831 58.0674C34.1831 58.0674 34.1831 58.0674 34.1831 58.0674C34.1831 58.0674 34.1831 58.0674 34.1831 58.0674C34.1831 58.0674 34.1831 58.0674 34.1831 58.0674C34.1831 58.0674 34.1831 58.0674 34.1831 58.0674C34.1831 58.0674 34.1831 58.0674 34.1831 58.0674C34.1831 58.0674 34.1831 58.0674 34.1832 58.0674C34.1832 58.0674 34.1832 58.0674 34.1832 58.0675C34.1832 58.0675 34.1832 58.0675 34.1832 58.0675C34.1832 58.0675 34.1832 58.0675 34.1832 58.0675C34.1832 58.0675 34.1832 58.0675 34.1832 58.0675C34.1832 58.0675 34.1832 58.0675 34.1832 58.0675C34.1832 58.0675 34.1832 58.0675 34.1832 58.0675C34.1832 58.0675 34.1832 58.0675 34.1832 58.0675C34.1832 58.0675 34.1832 58.0675 34.1833 58.0675C34.1833 58.0675 34.1833 58.0675 34.1833 58.0675C34.1833 58.0675 34.1833 58.0675 34.1833 58.0675C34.1833 58.0675 34.1833 58.0675 34.1833 58.0675C34.1833 58.0675 34.1833 58.0675 34.1833 58.0675C34.1833 58.0675 34.1833 58.0675 34.1833 58.0675C34.1833 58.0675 34.1833 58.0675 34.1833 58.0675C34.1833 58.0675 34.1833 58.0675 34.1833 58.0675C34.1833 58.0675 34.1834 58.0675 34.1834 58.0675C34.1834 58.0675 34.1834 58.0675 34.1834 58.0675C34.1834 58.0675 34.1834 58.0675 34.1834 58.0675C34.1834 58.0675 34.1834 58.0675 34.1834 58.0675C34.1834 58.0675 34.1834 58.0675 34.1834 58.0675C34.1834 58.0675 34.1834 58.0675 34.1834 58.0675C34.1834 58.0675 34.1834 58.0675 34.1834 58.0676C34.1834 58.0676 34.1834 58.0676 34.1834 58.0676C34.1835 58.0676 34.1835 58.0676 34.1835 58.0676C34.1835 58.0676 34.1835 58.0676 34.1835 58.0676C34.1835 58.0676 34.1835 58.0676 34.1835 58.0676C34.1835 58.0676 34.1835 58.0676 34.1835 58.0676C34.1835 58.0676 34.1835 58.0676 34.1835 58.0676C34.1835 58.0676 34.1835 58.0676 34.1835 58.0676C34.1835 58.0676 34.1835 58.0676 34.1835 58.0676C34.1835 58.0676 34.1835 58.0676 34.1835 58.0676C34.1836 58.0676 34.1836 58.0676 34.1836 58.0676C34.1836 58.0676 34.1836 58.0676 34.1836 58.0676C34.1836 58.0676 34.1836 58.0676 34.1836 58.0676C34.1836 58.0676 34.1836 58.0676 34.1836 58.0676C34.1836 58.0676 34.1836 58.0676 34.1836 58.0676C34.1836 58.0676 34.1836 58.0676 34.1836 58.0676C34.1836 58.0676 34.1836 58.0676 34.1836 58.0676C34.1836 58.0676 34.1836 58.0676 34.1837 58.0676C34.1837 58.0676 34.1837 58.0676 34.1837 58.0676C34.1837 58.0676 34.1837 58.0676 34.1837 58.0676C34.1837 58.0676 34.1837 58.0676 34.1837 58.0676C34.1837 58.0676 34.1837 58.0676 34.1837 58.0676C34.1837 58.0677 34.1837 58.0677 34.1837 58.0677C34.1837 58.0677 34.1837 58.0677 34.1837 58.0677C34.1837 58.0677 34.1837 58.0677 34.1837 58.0677C34.1837 58.0677 34.1838 58.0677 34.1838 58.0677C34.1838 58.0677 34.1838 58.0677 34.1838 58.0677C34.1838 58.0677 34.1838 58.0677 34.1838 58.0677C34.1838 58.0677 34.1838 58.0677 34.1838 58.0677C34.1838 58.0677 34.1838 58.0677 34.1838 58.0677C34.1838 58.0677 34.1838 58.0677 34.1838 58.0677C34.1838 58.0677 34.1838 58.0677 34.1838 58.0677C34.1838 58.0677 34.1838 58.0677 34.1838 58.0677C34.1838 58.0677 34.1839 58.0677 34.1839 58.0677C34.1839 58.0677 34.1839 58.0677 34.1839 58.0677C34.1839 58.0677 34.1839 58.0677 34.1839 58.0677C34.1839 58.0677 34.1839 58.0677 34.1839 58.0677C34.1839 58.0677 34.1839 58.0677 34.1839 58.0677C34.1839 58.0677 34.1839 58.0677 34.1839 58.0677C34.1839 58.0677 34.1839 58.0677 34.1839 58.0677C34.1839 58.0677 34.1839 58.0677 34.1839 58.0677C34.184 58.0677 34.184 58.0677 34.184 58.0677C34.184 58.0677 34.184 58.0677 34.184 58.0677C34.184 58.0678 34.184 58.0678 34.184 58.0678C34.184 58.0678 34.184 58.0678 34.184 58.0678C34.184 58.0678 34.184 58.0678 34.184 58.0678C34.184 58.0678 34.184 58.0678 34.184 58.0678C34.184 58.0678 34.184 58.0678 34.184 58.0678C34.184 58.0678 34.184 58.0678 34.184 58.0678C34.1841 58.0678 34.1841 58.0678 34.1841 58.0678C34.1841 58.0678 34.1841 58.0678 34.1841 58.0678C34.1841 58.0678 34.1841 58.0678 34.1841 58.0678C34.1841 58.0678 34.1841 58.0678 34.1841 58.0678C34.1841 58.0678 34.1841 58.0678 34.1841 58.0678C34.1841 58.0678 34.1841 58.0678 34.1841 58.0678C34.1841 58.0678 34.1841 58.0678 34.1841 58.0678C34.1841 58.0678 34.1841 58.0678 34.1842 58.0678C34.1842 58.0678 34.1842 58.0678 34.1842 58.0678C34.1842 58.0678 34.1842 58.0678 34.1842 58.0678C34.1842 58.0678 34.1842 58.0678 34.1842 58.0678C34.1842 58.0678 34.1842 58.0678 34.1842 58.0678C34.1842 58.0678 34.1842 58.0678 34.1842 58.0678C34.1842 58.0678 34.1842 58.0678 34.1842 58.0678C34.1842 58.0678 34.1842 58.0678 34.1842 58.0678C34.1842 58.0679 34.1843 58.0679 34.1843 58.0679C34.1843 58.0679 34.1843 58.0679 34.1843 58.0679C34.1843 58.0679 34.1843 58.0679 34.1843 58.0679C34.1843 58.0679 34.1843 58.0679 34.1843 58.0679C34.1843 58.0679 34.1843 58.0679 34.1843 58.0679C34.1843 58.0679 34.1843 58.0679 34.1843 58.0679C34.1843 58.0679 34.1843 58.0679 34.1843 58.0679C34.1843 58.0679 34.1843 58.0679 34.1843 58.0679C34.1843 58.0679 34.1844 58.0679 34.1844 58.0679C34.1844 58.0679 34.1844 58.0679 34.1844 58.0679C34.1844 58.0679 34.1844 58.0679 34.1844 58.0679C34.1844 58.0679 34.1844 58.0679 34.1844 58.0679C34.1844 58.0679 34.1844 58.0679 34.1844 58.0679C34.1844 58.0679 34.1844 58.0679 34.1844 58.0679C34.1844 58.0679 34.1844 58.0679 34.1844 58.0679C34.1844 58.0679 34.1844 58.0679 34.1844 58.0679C34.1845 58.0679 34.1845 58.0679 34.1845 58.0679C34.1845 58.0679 34.1845 58.0679 34.1845 58.0679C34.1845 58.0679 34.1845 58.0679 34.1845 58.0679C34.1845 58.0679 34.1845 58.0679 34.1845 58.0679C34.1845 58.0679 34.1845 58.0679 34.1845 58.0679C34.1845 58.0679 34.1845 58.068 34.1845 58.068C34.1845 58.068 34.1845 58.068 34.1845 58.068C34.1845 58.068 34.1845 58.068 34.1846 58.068C34.1846 58.068 34.1846 58.068 34.1846 58.068C34.1846 58.068 34.1846 58.068 34.1846 58.068C34.1846 58.068 34.1846 58.068 34.1846 58.068C34.1846 58.068 34.1846 58.068 34.1846 58.068C34.1846 58.068 34.1846 58.068 34.1846 58.068C34.1846 58.068 34.1846 58.068 34.1846 58.068C34.1846 58.068 34.1846 58.068 34.1846 58.068C34.1846 58.068 34.1846 58.068 34.1847 58.068C34.1847 58.068 34.1847 58.068 34.1847 58.068C34.1847 58.068 34.1847 58.068 34.1847 58.068C34.1847 58.068 34.1847 58.068 34.1847 58.068C34.1847 58.068 34.1847 58.068 34.1847 58.068C34.1847 58.068 34.1847 58.068 34.1847 58.068C34.1847 58.068 34.1847 58.068 34.1847 58.068C34.1847 58.068 34.1847 58.068 34.1847 58.068C34.1847 58.068 34.1848 58.068 34.1848 58.068C34.1848 58.068 34.1848 58.068 34.1848 58.068C34.1848 58.068 34.1848 58.068 34.1848 58.068C34.1848 58.068 34.1848 58.0681 34.1848 58.0681C34.1848 58.0681 34.1848 58.0681 34.1848 58.0681C34.1848 58.0681 34.1848 58.0681 34.1848 58.0681C34.1848 58.0681 34.1848 58.0681 34.1848 58.0681C34.1848 58.0681 34.1848 58.0681 34.1848 58.0681C34.1848 58.0681 34.1849 58.0681 34.1849 58.0681C34.1849 58.0681 34.1849 58.0681 34.1849 58.0681C34.1849 58.0681 34.1849 58.0681 34.1849 58.0681C34.1849 58.0681 34.1849 58.0681 34.1849 58.0681C34.1849 58.0681 34.1849 58.0681 34.1849 58.0681C34.1849 58.0681 34.1849 58.0681 34.1849 58.0681C34.1849 58.0681 34.1849 58.0681 34.1849 58.0681C34.1849 58.0681 34.1849 58.0681 34.1849 58.0681C34.185 58.0681 34.185 58.0681 34.185 58.0681C34.185 58.0681 34.185 58.0681 34.185 58.0681C34.185 58.0681 34.185 58.0681 34.185 58.0681C34.185 58.0681 34.185 58.0681 34.185 58.0681C34.185 58.0681 34.185 58.0681 34.185 58.0681C34.185 58.0681 34.185 58.0681 34.185 58.0681C34.185 58.0681 34.185 58.0681 34.185 58.0681C34.185 58.0681 34.185 58.0681 34.1851 58.0681C34.1851 58.0681 34.1851 58.0681 34.1851 58.0682C34.1851 58.0682 34.1851 58.0682 34.1851 58.0682C34.1851 58.0682 34.1851 58.0682 34.1851 58.0682C34.1851 58.0682 34.1851 58.0682 34.1851 58.0682C34.1851 58.0682 34.1851 58.0682 34.1851 58.0682C34.1851 58.0682 34.1851 58.0682 34.1851 58.0682C34.1851 58.0682 34.1851 58.0682 34.1851 58.0682C34.1851 58.0682 34.1851 58.0682 34.1852 58.0682C34.1852 58.0682 34.1852 58.0682 34.1852 58.0682C34.1852 58.0682 34.1852 58.0682 34.1852 58.0682C34.1852 58.0682 34.1852 58.0682 34.1852 58.0682C34.1852 58.0682 34.1852 58.0682 34.1852 58.0682C34.1852 58.0682 34.1852 58.0682 34.1852 58.0682C34.1852 58.0682 34.1852 58.0682 34.1852 58.0682C34.1852 58.0682 34.1852 58.0682 34.1852 58.0682C34.1852 58.0682 34.1853 58.0682 34.1853 58.0682C34.1853 58.0682 34.1853 58.0682 34.1853 58.0682C34.1853 58.0682 34.1853 58.0682 34.1853 58.0682C34.1853 58.0682 34.1853 58.0682 34.1853 58.0682C34.1853 58.0682 34.1853 58.0682 34.1853 58.0682C34.1853 58.0682 34.1853 58.0682 34.1853 58.0682C34.1853 58.0682 34.1853 58.0683 34.1853 58.0683C34.1853 58.0683 34.1853 58.0683 34.1853 58.0683C34.1854 58.0683 34.1854 58.0683 34.1854 58.0683C34.1854 58.0683 34.1854 58.0683 34.1854 58.0683C34.1854 58.0683 34.1854 58.0683 34.1854 58.0683C34.1854 58.0683 34.1854 58.0683 34.1854 58.0683C34.1854 58.0683 34.1854 58.0683 34.1854 58.0683C34.1854 58.0683 34.1854 58.0683 34.1854 58.0683C34.1854 58.0683 34.1854 58.0683 34.1854 58.0683C34.1854 58.0683 34.1854 58.0683 34.1854 58.0683C34.1855 58.0683 34.1855 58.0683 34.1855 58.0683C34.1855 58.0683 34.1855 58.0683 34.1855 58.0683C34.1855 58.0683 34.1855 58.0683 34.1855 58.0683C34.1855 58.0683 34.1855 58.0683 34.1855 58.0683C34.1855 58.0683 34.1855 58.0683 34.1855 58.0683C34.1855 58.0683 34.1855 58.0683 34.1855 58.0683C34.1855 58.0683 34.1855 58.0683 34.1855 58.0683C34.1855 58.0683 34.1855 58.0683 34.1856 58.0683C34.1856 58.0683 34.1856 58.0683 34.1856 58.0683C34.1856 58.0683 34.1856 58.0683 34.1856 58.0683C34.1856 58.0683 34.1856 58.0683 34.1856 58.0683C34.1856 58.0683 34.1856 58.0683 34.1856 58.0684C34.1856 58.0684 34.1856 58.0684 34.1856 58.0684C34.1856 58.0684 34.1856 58.0684 34.1856 58.0684C34.1856 58.0684 34.1856 58.0684 34.1856 58.0684C34.1856 58.0684 34.1856 58.0684 34.1857 58.0684C34.1857 58.0684 34.1857 58.0684 34.1857 58.0684C34.1857 58.0684 34.1857 58.0684 34.1857 58.0684C34.1857 58.0684 34.1857 58.0684 34.1857 58.0684C34.1857 58.0684 34.1857 58.0684 34.1857 58.0684C34.1857 58.0684 34.1857 58.0684 34.1857 58.0684C34.1857 58.0684 34.1857 58.0684 34.1857 58.0684C34.1857 58.0684 34.1857 58.0684 34.1857 58.0684C34.1857 58.0684 34.1858 58.0684 34.1858 58.0684C34.1858 58.0684 34.1858 58.0684 34.1858 58.0684C34.1858 58.0684 34.1858 58.0684 34.1858 58.0684C34.1858 58.0684 34.1858 58.0684 34.1858 58.0684C34.1858 58.0684 34.1858 58.0684 34.1858 58.0684C34.1858 58.0684 34.1858 58.0684 34.1858 58.0684C34.1858 58.0684 34.1858 58.0684 34.1858 58.0684C34.1858 58.0684 34.1858 58.0684 34.1858 58.0684C34.1859 58.0684 34.1859 58.0684 34.1859 58.0684C34.1859 58.0684 34.1859 58.0684 34.1859 58.0685C34.1859 58.0685 34.1859 58.0685 34.1859 58.0685C34.1859 58.0685 34.1859 58.0685 34.1859 58.0685C34.1859 58.0685 34.1859 58.0685 34.1859 58.0685C34.1859 58.0685 34.1859 58.0685 34.1859 58.0685C34.1859 58.0685 34.1859 58.0685 34.1859 58.0685C34.1859 58.0685 34.1859 58.0685 34.1859 58.0685C34.186 58.0685 34.186 58.0685 34.186 58.0685C34.186 58.0685 34.186 58.0685 34.186 58.0685C34.186 58.0685 34.186 58.0685 34.186 58.0685C34.186 58.0685 34.186 58.0685 34.186 58.0685C34.186 58.0685 34.186 58.0685 34.186 58.0685C34.186 58.0685 34.186 58.0685 34.186 58.0685C34.186 58.0685 34.186 58.0685 34.186 58.0685C34.186 58.0685 34.186 58.0685 34.1861 58.0685C34.1861 58.0685 34.1861 58.0685 34.1861 58.0685C34.1861 58.0685 34.1861 58.0685 34.1861 58.0685C34.1861 58.0685 34.1861 58.0685 34.1861 58.0685C34.1861 58.0685 34.1861 58.0685 34.1861 58.0685L35.5714 54.3161ZM36.7518 56.8733L37.4353 54.9935L33.676 53.6267L32.9926 55.5065L36.7518 56.8733ZM34.8614 56.1858C34.8639 56.1867 34.8672 56.1879 34.8707 56.1892L36.2563 52.4369C36.2545 52.4362 36.2526 52.4355 36.2499 52.4345L34.8614 56.1858ZM33.6843 53.6283L32.9996 55.5076L36.7579 56.877L37.4426 54.9977L33.6843 53.6283ZM44.1179 54.3138C44.1152 54.3148 44.1168 54.3142 44.1119 54.316L45.4967 58.0687C45.4974 58.0684 45.4981 58.0682 45.4994 58.0677C45.5005 58.0673 45.5021 58.0667 45.5038 58.0661L44.1179 54.3138ZM46.6834 55.5077L45.9987 53.6284L42.2404 54.9978L42.9251 56.8771L46.6834 55.5077ZM44.8123 56.1893C44.8157 56.188 44.819 56.1868 44.8218 56.1857L43.4329 52.4346C43.4306 52.4355 43.4286 52.4362 43.4267 52.4369L44.8123 56.1893ZM42.2478 54.9936L42.9312 56.8733L46.6905 55.5065L46.007 53.6268L42.2478 54.9936ZM50.6053 48.7828C50.6046 48.784 50.6039 48.7852 50.6033 48.7862C50.6027 48.7873 50.6023 48.7881 50.6018 48.7889L54.0877 50.7508C54.0884 50.7495 54.089 50.7483 54.0896 50.7473C54.0902 50.7463 54.0907 50.7454 54.0911 50.7446L50.6053 48.7828ZM53.3441 48.0375L51.6115 47.0379L49.6127 50.5027L51.3453 51.5022L53.3441 48.0375ZM52.3569 49.7479C52.3582 49.7455 52.3598 49.7428 52.3613 49.74L48.8711 47.7859C48.8699 47.788 48.8687 47.7902 48.8673 47.7927L52.3569 49.7479ZM49.6156 50.4947L51.3476 51.4954L53.3488 48.032L51.6168 47.0313L49.6156 50.4947ZM51.9751 40.4308C51.9755 40.4331 51.9758 40.4347 51.9761 40.4362L55.9064 39.6928C55.9058 39.6896 55.9052 39.6866 55.9048 39.6842L51.9751 40.4308ZM53.5933 38.095L51.6236 38.443L52.3195 42.382L54.2892 42.034L53.5933 38.095ZM53.9361 40.0375C53.9354 40.0338 53.9344 40.0287 53.9342 40.0277L50.0057 40.7806C50.0066 40.7852 50.0067 40.7856 50.007 40.7875L53.9361 40.0375ZM52.3166 42.3739L54.2865 42.0272L53.5933 38.0878L51.6233 38.4344L52.3166 42.3739ZM47.7002 33.2024C47.7029 33.2047 47.7036 33.2053 47.7054 33.2067L50.251 30.1213C50.249 30.1197 50.246 30.1172 50.245 30.1164L47.7002 33.2024ZM47.4456 30.379L46.1605 31.9116L49.2256 34.4817L50.5107 32.9491L47.4456 30.379ZM48.9639 31.6523C48.9614 31.6502 48.959 31.6483 48.9567 31.6463L46.4162 34.736C46.4183 34.7377 46.4203 34.7393 46.4222 34.7409L48.9639 31.6523ZM49.2181 34.4773L50.5043 32.9455L47.441 30.3733L46.1548 31.9051L49.2181 34.4773ZM39.8384 30.3794C39.8405 30.3794 39.8426 30.3794 39.8446 30.3794L39.8456 26.3794C39.8429 26.3794 39.8401 26.3794 39.8374 26.3794L39.8384 30.3794ZM41.8372 30.3801L41.8379 28.3801L37.8379 28.3787L37.8372 30.3787L41.8372 30.3801ZM39.8465 28.3794C39.8432 28.3794 39.8399 28.3794 39.8365 28.3794L39.8379 32.3794C39.8403 32.3794 39.8427 32.3794 39.8452 32.3794L39.8465 28.3794ZM37.8451 28.3801L37.8458 30.3801L41.8458 30.3787L41.8451 28.3787L37.8451 28.3801Z" fill="currentColor" />
  <path d="M37.0007 39.7287V37.7287H35.0007V39.7287H37.0007ZM43.0007 39.7287H45.0007V37.7287H43.0007V39.7287ZM37.0007 45.7287H35.0007V47.7287H37.0007V45.7287ZM43.0007 45.7287V47.7287H45.0007V45.7287H43.0007ZM48.2737 35.2085L49.489 33.62L46.3122 31.1895L45.0969 32.7779L48.2737 35.2085ZM40.7087 38.5134L39.4934 40.1018L42.6702 42.5324L43.8855 40.944L40.7087 38.5134ZM52.9187 52.3761L54.6571 53.365L56.635 49.8882L54.8966 48.8993L52.9187 52.3761ZM43.9897 42.6945L42.2513 41.7056L40.2734 45.1824L42.0118 46.1713L43.9897 42.6945ZM37.0007 41.7287H43.0007V37.7287H37.0007V41.7287ZM39.0007 45.7287V39.7287H35.0007V45.7287H39.0007ZM43.0007 43.7287H37.0007V47.7287H43.0007V43.7287ZM41.0007 39.7287V45.7287H45.0007V39.7287H41.0007ZM45.0969 32.7779L40.7087 38.5134L43.8855 40.944L48.2737 35.2085L45.0969 32.7779ZM54.8966 48.8993L43.9897 42.6945L42.0118 46.1713L52.9187 52.3761L54.8966 48.8993Z" fill="currentColor" />
</svg>