<svg viewBox="0 0 80 80" fill="none">
  <g opacity="0.25">
    <path fill-rule="evenodd" clip-rule="evenodd" d="M33.9287 54H62.7507L71.0007 45.6V34.4L62.7507 26L33.9287 26L42.589 31V49L33.9287 54Z" fill="currentColor" />
    <path d="M33.9287 54L32.9287 52.2679L26.4646 56H33.9287V54ZM62.7507 54V56H63.5897L64.1776 55.4014L62.7507 54ZM71.0007 45.6L72.4276 47.0014L73.0007 46.4179V45.6H71.0007ZM71.0007 34.4H73.0007V33.5821L72.4276 32.9986L71.0007 34.4ZM62.7507 26L64.1776 24.5986L63.5897 24H62.7507V26ZM33.9287 26V24H26.4646L32.9287 27.7321L33.9287 26ZM42.589 31H44.589V29.8453L43.589 29.2679L42.589 31ZM42.589 49L43.589 50.7321L44.589 50.1547V49H42.589ZM33.9287 56H62.7507V52H33.9287V56ZM64.1776 55.4014L72.4276 47.0014L69.5738 44.1986L61.3238 52.5986L64.1776 55.4014ZM73.0007 45.6V34.4H69.0007V45.6H73.0007ZM72.4276 32.9986L64.1776 24.5986L61.3238 27.4014L69.5738 35.8014L72.4276 32.9986ZM62.7507 24L33.9287 24V28L62.7507 28V24ZM32.9287 27.7321L41.589 32.7321L43.589 29.2679L34.9287 24.2679L32.9287 27.7321ZM40.589 31V49H44.589V31H40.589ZM41.589 47.268L32.9287 52.2679L34.9287 55.7321L43.589 50.7321L41.589 47.268Z" fill="currentColor" />
  </g>
  <path d="M27 22L42.5885 31L42.5885 49L27 58L11.4115 49L11.4115 31L27 22Z" fill="currentColor" stroke="currentColor" stroke-width="4" stroke-linecap="square" />
</svg>