<svg viewBox="0 0 80 80" fill="none">
  <path opacity="0.25" d="M56 68L61 20H60.5L19.5 20H19L24 68H56Z" fill="currentColor" />
  <path d="M65 20H61L19 20H15" stroke="currentColor" stroke-width="4" stroke-linecap="square" />
  <path d="M27.855 19.9986L26.2913 18.7517L23.7019 21.9986H27.855V19.9986ZM52.1447 19.9986V21.9986L56.2978 21.9986L53.7084 18.7517L52.1447 19.9986ZM33.9255 12.3865V10.3865H32.9623L32.3618 11.1395L33.9255 12.3865ZM46.0742 12.3865L47.6379 11.1395L47.0374 10.3865H46.0742V12.3865ZM27.855 21.9986L52.1447 21.9986V17.9986L27.855 17.9986V21.9986ZM29.4186 21.2456L35.4891 13.6335L32.3618 11.1395L26.2913 18.7517L29.4186 21.2456ZM33.9255 14.3865L46.0742 14.3865V10.3865L33.9255 10.3865V14.3865ZM44.5106 13.6335L50.5811 21.2456L53.7084 18.7517L47.6379 11.1395L44.5106 13.6335Z" fill="currentColor" />
</svg>