<svg viewBox="0 0 80 80" fill="none">
  <path d="M72 41L56 69.1285L24 69.1285L8 41L24 12.8715L56 12.8715L72 41Z" fill="currentColor" fill-opacity="0.15" stroke="currentColor" stroke-width="4" stroke-linecap="square" />
  <path fill-rule="evenodd" clip-rule="evenodd" d="M60 62.0951L55.9994 69.1283H23.9994L20 62.0972V59.9997L40 52.8036L60 59.9997V62.0951ZM40 49.5998L51.8882 40.7552L47.3473 26.4443H32.6527L28.1118 40.7552L40 49.5998Z" fill="currentColor" />
  <path d="M60 62.0951L61.7384 63.0839L62 62.6241V62.0951H60ZM55.9994 69.1283V71.1283H57.1627L57.7378 70.1171L55.9994 69.1283ZM23.9994 69.1283L22.2609 70.1171L22.8361 71.1283H23.9994V69.1283ZM20 62.0972H18V62.6263L18.2616 63.0861L20 62.0972ZM20 59.9997L19.3229 58.1178L18 58.5938V59.9997H20ZM40 52.8036L40.6771 50.9218L40 50.6781L39.3229 50.9218L40 52.8036ZM60 59.9997H62V58.5938L60.6771 58.1178L60 59.9997ZM51.8882 40.7552L53.082 42.3598L54.2257 41.509L53.7945 40.1503L51.8882 40.7552ZM40 49.5998L38.8062 51.2044L40 52.0925L41.1938 51.2044L40 49.5998ZM47.3473 26.4443L49.2537 25.8394L48.811 24.4443H47.3473V26.4443ZM32.6527 26.4443V24.4443H31.189L30.7464 25.8394L32.6527 26.4443ZM28.1118 40.7552L26.2055 40.1503L25.7743 41.509L26.918 42.3598L28.1118 40.7552ZM58.2616 61.1062L54.2609 68.1394L57.7378 70.1171L61.7384 63.0839L58.2616 61.1062ZM55.9994 67.1283H23.9994V71.1283H55.9994V67.1283ZM25.7378 68.1394L21.7384 61.1084L18.2616 63.0861L22.2609 70.1171L25.7378 68.1394ZM18 59.9997V62.0972H22V59.9997H18ZM39.3229 50.9218L19.3229 58.1178L20.6771 61.8816L40.6771 54.6855L39.3229 50.9218ZM60.6771 58.1178L40.6771 50.9218L39.3229 54.6855L59.3229 61.8816L60.6771 58.1178ZM62 62.0951V59.9997H58V62.0951H62ZM50.6944 39.1505L38.8062 47.9951L41.1938 51.2044L53.082 42.3598L50.6944 39.1505ZM45.441 27.0492L49.9819 41.3601L53.7945 40.1503L49.2537 25.8394L45.441 27.0492ZM32.6527 28.4443H47.3473V24.4443H32.6527V28.4443ZM30.0181 41.3601L34.559 27.0492L30.7464 25.8394L26.2055 40.1503L30.0181 41.3601ZM41.1938 47.9951L29.3056 39.1505L26.918 42.3598L38.8062 51.2044L41.1938 47.9951Z" fill="currentColor" />
</svg>