<svg viewBox="0 0 80 80" fill="none">
  <g opacity="0.5">
    <path fill-rule="evenodd" clip-rule="evenodd" d="M8 36H72V54H67L68 53L59 44L50 53L51 54H29L30 53L21 44L12 53L13 54H8V36Z" fill="currentColor" />
    <path d="M72 36H74V34H72V36ZM8 36V34H6V36H8ZM72 54V56H74V54H72ZM67 54L65.5858 52.5858L62.1716 56H67V54ZM68 53L69.4142 54.4142L70.8284 53L69.4142 51.5858L68 53ZM59 44L60.4142 42.5858L59 41.1716L57.5858 42.5858L59 44ZM50 53L48.5858 51.5858L47.1716 53L48.5858 54.4142L50 53ZM51 54V56H55.8284L52.4142 52.5858L51 54ZM29 54L27.5858 52.5858L24.1716 56H29V54ZM30 53L31.4142 54.4142L32.8284 53L31.4142 51.5858L30 53ZM21 44L22.4142 42.5858L21 41.1716L19.5858 42.5858L21 44ZM12 53L10.5858 51.5858L9.17157 53L10.5858 54.4142L12 53ZM13 54V56H17.8284L14.4142 52.5858L13 54ZM8 54H6V56H8V54ZM72 34H8V38H72V34ZM74 54V36H70V54H74ZM67 56H72V52H67V56ZM66.5858 51.5858L65.5858 52.5858L68.4142 55.4142L69.4142 54.4142L66.5858 51.5858ZM57.5858 45.4142L66.5858 54.4142L69.4142 51.5858L60.4142 42.5858L57.5858 45.4142ZM51.4142 54.4142L60.4142 45.4142L57.5858 42.5858L48.5858 51.5858L51.4142 54.4142ZM52.4142 52.5858L51.4142 51.5858L48.5858 54.4142L49.5858 55.4142L52.4142 52.5858ZM29 56H51V52H29V56ZM28.5858 51.5858L27.5858 52.5858L30.4142 55.4142L31.4142 54.4142L28.5858 51.5858ZM19.5858 45.4142L28.5858 54.4142L31.4142 51.5858L22.4142 42.5858L19.5858 45.4142ZM13.4142 54.4142L22.4142 45.4142L19.5858 42.5858L10.5858 51.5858L13.4142 54.4142ZM14.4142 52.5858L13.4142 51.5858L10.5858 54.4142L11.5858 55.4142L14.4142 52.5858ZM8 56H13V52H8V56ZM6 36V54H10V36H6Z" fill="currentColor" />
  </g>
  <g opacity="0.25">
    <path fill-rule="evenodd" clip-rule="evenodd" d="M52 18H8V36H72L52 18Z" fill="currentColor" />
    <path d="M8 18V16H6V18H8ZM52 18L53.3379 16.5134L52.7675 16H52V18ZM8 36H6V38H8V36ZM72 36V38H77.2119L73.3379 34.5134L72 36ZM8 20H52V16H8V20ZM10 36V18H6V36H10ZM72 34H8V38H72V34ZM73.3379 34.5134L53.3379 16.5134L50.6621 19.4866L70.6621 37.4866L73.3379 34.5134Z" fill="currentColor" />
  </g>
  <path d="M8 34H6V38H8V34ZM71.832 38H73.832V34H71.832V38ZM37.832 36V38H41.832V36H37.832ZM41.832 18V16H37.832V18H41.832ZM21.832 36V38H25.832V36H21.832ZM25.832 18L25.832 16L21.832 16V18L25.832 18ZM8 38H71.832V34H8V38ZM41.832 36V18H37.832V36H41.832ZM25.832 36V18L21.832 18L21.832 36H25.832Z" fill="currentColor" />
  <path d="M21 44L30 53L21 62L12 53L21 44Z" fill="currentColor" />
  <path d="M59 44L68 53L59 62L50 53L59 44Z" fill="currentColor" />
</svg>