<svg viewBox="0 0 80 80" fill="none">
  <g opacity="0.5">
    <path fill-rule="evenodd" clip-rule="evenodd" d="M8 36H72V54H67.5455L66.0365 47.3886L59 44L51.9635 47.3886L50.4545 54H29.5455L28.0365 47.3886L21 44L13.9635 47.3886L12.4545 54H8V36Z" fill="currentColor" />
    <path d="M72 36H74V34H72V36ZM8 36V34H6V36H8ZM72 54V56H74V54H72ZM67.5455 54L65.5956 54.445L65.9505 56H67.5455V54ZM66.0365 47.3886L67.9863 46.9436L67.772 46.0045L66.9043 45.5867L66.0365 47.3886ZM59 44L59.8678 42.1981L59 41.7802L58.1322 42.1981L59 44ZM51.9635 47.3886L51.0957 45.5867L50.228 46.0045L50.0137 46.9436L51.9635 47.3886ZM50.4545 54V56H52.0495L52.4044 54.445L50.4545 54ZM29.5455 54L27.5956 54.445L27.9505 56H29.5455V54ZM28.0365 47.3886L29.9863 46.9436L29.772 46.0045L28.9043 45.5867L28.0365 47.3886ZM21 44L21.8678 42.1981L21 41.7802L20.1322 42.1981L21 44ZM13.9635 47.3886L13.0957 45.5867L12.228 46.0045L12.0137 46.9436L13.9635 47.3886ZM12.4545 54V56H14.0495L14.4044 54.445L12.4545 54ZM8 54H6V56H8V54ZM72 34H8V38H72V34ZM74 54V36H70V54H74ZM67.5455 56H72V52H67.5455V56ZM64.0866 47.8336L65.5956 54.445L69.4953 53.555L67.9863 46.9436L64.0866 47.8336ZM58.1322 45.8019L65.1687 49.1905L66.9043 45.5867L59.8678 42.1981L58.1322 45.8019ZM52.8313 49.1905L59.8678 45.8019L58.1322 42.1981L51.0957 45.5867L52.8313 49.1905ZM52.4044 54.445L53.9134 47.8336L50.0137 46.9436L48.5047 53.555L52.4044 54.445ZM29.5455 56H50.4545V52H29.5455V56ZM26.0866 47.8336L27.5956 54.445L31.4953 53.555L29.9863 46.9436L26.0866 47.8336ZM20.1322 45.8019L27.1687 49.1905L28.9043 45.5867L21.8678 42.1981L20.1322 45.8019ZM14.8313 49.1905L21.8678 45.8019L20.1322 42.1981L13.0957 45.5867L14.8313 49.1905ZM14.4044 54.445L15.9134 47.8336L12.0137 46.9436L10.5047 53.555L14.4044 54.445ZM8 56H12.4545V52H8V56ZM6 36V54H10V36H6Z" fill="currentColor" />
  </g>
  <g opacity="0.25">
    <path fill-rule="evenodd" clip-rule="evenodd" d="M52 18H8V36H72L52 18Z" fill="currentColor" />
    <path d="M8 18V16H6V18H8ZM52 18L53.3379 16.5134L52.7675 16H52V18ZM8 36H6V38H8V36ZM72 36V38H77.2119L73.3379 34.5134L72 36ZM8 20H52V16H8V20ZM10 36V18H6V36H10ZM72 34H8V38H72V34ZM73.3379 34.5134L53.3379 16.5134L50.6621 19.4866L70.6621 37.4866L73.3379 34.5134Z" fill="currentColor" />
  </g>
  <path d="M8 34H6V38H8V34ZM71.832 38H73.832V34H71.832V38ZM37.832 36V38H41.832V36H37.832ZM41.832 18V16H37.832V18H41.832ZM21.832 36V38H25.832V36H21.832ZM25.832 18L25.832 16L21.832 16V18L25.832 18ZM8 38H71.832V34H8V38ZM41.832 36V18H37.832V36H41.832ZM25.832 36V18L21.832 18L21.832 36H25.832Z" fill="currentColor" />
  <path d="M21 44L28.0365 47.3886L29.7744 55.0027L24.905 61.1087H17.095L12.2256 55.0027L13.9635 47.3886L21 44Z" fill="currentColor" />
  <path d="M59 44L66.0365 47.3886L67.7744 55.0027L62.905 61.1087H55.095L50.2256 55.0027L51.9635 47.3886L59 44Z" fill="currentColor" />
</svg>