<svg viewBox="0 0 80 80" fill="none">
  <g opacity="0.25">
    <path fill-rule="evenodd" clip-rule="evenodd" d="M17.1463 49.161H4.14648V31.1678H17.1467L32.1465 16.1736L32.1465 21.1698V58.1559V64.1556L17.1463 49.161Z" fill="currentColor" />
    <path d="M17.1463 49.161L18.5602 47.7466L17.9745 47.161H17.1463V49.161ZM4.14648 49.161H2.14648V51.161H4.14648V49.161ZM4.14648 31.1678V29.1678H2.14648V31.1678H4.14648ZM17.1467 31.1678V33.1678H17.9749L18.5606 32.5823L17.1467 31.1678ZM32.1465 16.1736L34.1465 16.1736L34.1465 11.3465L30.7325 14.7592L32.1465 16.1736ZM32.1465 21.1698H34.1465V21.1698L32.1465 21.1698ZM32.1465 64.1556L30.7325 65.5701L34.1465 68.9828V64.1556H32.1465ZM17.1463 47.161H4.14648V51.161H17.1463V47.161ZM6.14648 49.161V31.1678H2.14648V49.161H6.14648ZM4.14648 33.1678H17.1467V29.1678H4.14648V33.1678ZM18.5606 32.5823L33.5604 17.5881L30.7325 14.7592L15.7327 29.7533L18.5606 32.5823ZM30.1465 16.1736L30.1465 21.1698L34.1465 21.1698L34.1465 16.1736L30.1465 16.1736ZM30.1465 21.1698V58.1559H34.1465V21.1698H30.1465ZM30.1465 58.1559V64.1556H34.1465V58.1559H30.1465ZM33.5604 62.7411L18.5602 47.7466L15.7323 50.5755L30.7325 65.5701L33.5604 62.7411Z" fill="currentColor" />
  </g>
  <path d="M75.2778 40.0007L76.9489 41.0996L77.6715 40.0007L76.9489 38.9018L75.2778 40.0007ZM55.6847 66.1553L54.5858 67.8264L57.9279 70.0242L59.0268 68.3531L55.6847 66.1553ZM59.0311 11.6548L57.9322 9.98371L54.59 12.1815L55.6889 13.8526L59.0311 11.6548ZM60.3657 40.0062L62.0368 41.1051L62.7594 40.0062L62.0368 38.9073L60.3657 40.0062ZM45.6929 58.6788L44.594 60.3499L47.9361 62.5476L49.035 60.8766L45.6929 58.6788ZM49.0344 19.1349L47.9355 17.4639L44.5934 19.6617L45.6923 21.3327L49.0344 19.1349ZM45.4484 40.0062L47.1195 41.1051L47.8421 40.0062L47.1195 38.9073L45.4484 40.0062ZM35.6951 51.1978L34.5962 52.8689L37.9383 55.0667L39.0372 53.3956L35.6951 51.1978ZM39.0366 26.6159L37.9377 24.9449L34.5956 27.1427L35.6945 28.8137L39.0366 26.6159ZM73.6068 38.9018L55.6847 66.1553L59.0268 68.3531L76.9489 41.0996L73.6068 38.9018ZM55.6889 13.8526L73.6068 41.0996L76.9489 38.9018L59.0311 11.6548L55.6889 13.8526ZM58.6947 38.9073L45.6929 58.6788L49.035 60.8766L62.0368 41.1051L58.6947 38.9073ZM45.6923 21.3327L58.6947 41.1051L62.0368 38.9073L49.0344 19.1349L45.6923 21.3327ZM43.7774 38.9073L35.6951 51.1978L39.0372 53.3956L47.1195 41.1051L43.7774 38.9073ZM35.6945 28.8137L43.7774 41.1051L47.1195 38.9073L39.0366 26.6159L35.6945 28.8137Z" fill="currentColor" />
</svg>