<svg viewBox="0 0 80 80" fill="none">
  <g opacity="0.25">
    <path fill-rule="evenodd" clip-rule="evenodd" d="M17.1463 49.161H4.14648V31.1678H17.1467L32.1465 16.1736L32.1465 21.1698V58.1559V64.1556L17.1463 49.161Z" fill="currentColor" />
    <path d="M17.1463 49.161L18.5602 47.7466L17.9745 47.161H17.1463V49.161ZM4.14648 49.161H2.14648V51.161H4.14648V49.161ZM4.14648 31.1678V29.1678H2.14648V31.1678H4.14648ZM17.1467 31.1678V33.1678H17.9749L18.5606 32.5823L17.1467 31.1678ZM32.1465 16.1736L34.1465 16.1736L34.1465 11.3465L30.7325 14.7592L32.1465 16.1736ZM32.1465 21.1698H34.1465V21.1698L32.1465 21.1698ZM32.1465 64.1556L30.7325 65.5701L34.1465 68.9828V64.1556H32.1465ZM17.1463 47.161H4.14648V51.161H17.1463V47.161ZM6.14648 49.161V31.1678H2.14648V49.161H6.14648ZM4.14648 33.1678H17.1467V29.1678H4.14648V33.1678ZM18.5606 32.5823L33.5604 17.5881L30.7325 14.7592L15.7327 29.7533L18.5606 32.5823ZM30.1465 16.1736L30.1465 21.1698L34.1465 21.1698L34.1465 16.1736L30.1465 16.1736ZM30.1465 21.1698V58.1559H34.1465V21.1698H30.1465ZM30.1465 58.1559V64.1556H34.1465V58.1559H30.1465ZM33.5604 62.7411L18.5602 47.7466L15.7323 50.5755L30.7325 65.5701L33.5604 62.7411Z" fill="currentColor" />
  </g>
  <path d="M45.4482 40.0062L47.1193 41.1051L47.8419 40.0062L47.1193 38.9073L45.4482 40.0062ZM35.6949 51.1978L34.596 52.8688L37.9381 55.0666L39.037 53.3956L35.6949 51.1978ZM39.0364 26.6159L37.9375 24.9448L34.5954 27.1426L35.6943 28.8137L39.0364 26.6159ZM43.7772 38.9073L35.6949 51.1978L39.037 53.3956L47.1193 41.1051L43.7772 38.9073ZM35.6943 28.8137L43.7772 41.1051L47.1193 38.9073L39.0364 26.6159L35.6943 28.8137Z" fill="currentColor" />
</svg>