<svg viewBox="0 0 80 80" fill="none">
  <path opacity="0.5" fill-rule="evenodd" clip-rule="evenodd" d="M34.47 47.251L32.0262 55.6257L26.5614 59.8295L23.3909 62.2683L28.2686 68.6093L31.4391 66.1704L37.9391 61.1704L38.9742 60.3742L39.3401 59.1204L40.9069 53.751L38.1328 49.8673L35.1753 47.7548L34.47 47.251Z" fill="currentColor" />
  <path opacity="0.5" fill-rule="evenodd" clip-rule="evenodd" d="M38.686 25.2148H40H44H46.6787L47.6987 27.6918L50.6592 34.8817L54.9154 37.2033L58.427 39.1187L54.5961 46.1418L51.0846 44.2264L45.7004 41.2896L45.1536 45.9327L49.2551 51.6749L49.6966 52.293L49.8808 53.0298L52.3806 63.0298L53.3506 66.9104L45.5894 68.8505L44.6194 64.9699L42.3038 55.7068L38.1328 49.8673L35.1753 47.7548L33.1589 46.3145L33.5505 43.8677L34.2365 39.5817L31.9354 42.3588L29.3833 45.4389L23.2231 40.3348L25.7752 37.2547L30.8431 31.1382L31.1561 30.7604L31.5512 30.4695L37.6279 25.9941L38.686 25.2148Z" fill="currentColor" />
  <path d="M43 25L48.7063 20.8541L46.5267 14.1459L39.4733 14.1459L37.2937 20.8541L43 25Z" fill="currentColor" stroke="currentColor" stroke-width="3" stroke-linecap="square" />
</svg>