<svg viewBox="0 0 80 80" fill="none">
  <path fill-rule="evenodd" clip-rule="evenodd" d="M62.7598 13.2126C59.5905 11.8998 56.0295 11.8998 52.8603 13.2126C51.2225 13.891 49.7587 14.8912 48.5452 16.1368C48.0008 16.6956 48.2745 17.5981 48.9953 17.8967L51.8397 19.0749C57.7204 21.5107 62.3925 26.1829 64.8284 32.0636L66.0066 34.908C66.0463 35.0039 66.1677 35.0344 66.2464 34.9666C67.7673 33.6579 68.9775 32.0006 69.7598 30.1121C71.0725 26.9428 71.0725 23.3819 69.7598 20.2126C68.447 17.0433 65.929 14.5253 62.7598 13.2126ZM31.1389 15.8291C31.8061 16.4692 31.4807 17.5429 30.6265 17.8967L27.7821 19.0749C21.9014 21.5107 17.2292 26.1829 14.7934 32.0636L14.7033 32.281C14.1783 33.5484 12.5593 33.9111 11.7488 32.8043C11.1432 31.9774 10.6333 31.0749 10.2346 30.1122C8.92181 26.943 8.92181 23.382 10.2346 20.2128C11.5473 17.0435 14.0653 14.5255 17.2346 13.2128C20.4038 11.9 23.9648 11.9 27.1341 13.2128C28.6346 13.8343 29.9891 14.726 31.1389 15.8291Z" fill="currentColor" />
  <path d="M62.7518 68.9759C63.3376 69.5617 64.2874 69.5617 64.8732 68.9759C65.4589 68.3901 65.4589 67.4404 64.8732 66.8546L62.7518 68.9759ZM56.641 58.6224C56.0552 58.0367 55.1055 58.0367 54.5197 58.6224C53.9339 59.2082 53.9339 60.158 54.5197 60.7438L56.641 58.6224ZM14.7518 66.8555C14.166 67.4413 14.1661 68.3911 14.7519 68.9768C15.3377 69.5626 16.2874 69.5626 16.8732 68.9768L14.7518 66.8555ZM25.1058 60.7439C25.6916 60.1581 25.6916 59.2083 25.1058 58.6225C24.52 58.0368 23.5702 58.0368 22.9844 58.6226L25.1058 60.7439ZM64.8732 66.8546L56.641 58.6224L54.5197 60.7438L62.7518 68.9759L64.8732 66.8546ZM16.8732 68.9768L25.1058 60.7439L22.9844 58.6226L14.7518 66.8555L16.8732 68.9768Z" fill="currentColor" />
  <path opacity="0.25" d="M31.3272 23.609C36.7603 21.3585 42.8647 21.3585 48.2978 23.609C53.7308 25.8594 58.0473 30.1759 60.2978 35.609C62.5482 41.042 62.5482 47.1465 60.2978 52.5795C58.0473 58.0126 53.7308 62.3291 48.2978 64.5795C42.8647 66.83 36.7603 66.83 31.3272 64.5795C25.8942 62.3291 21.5777 58.0126 19.3272 52.5795C17.0768 47.1465 17.0768 41.042 19.3272 35.609C21.5777 30.1759 25.8942 25.8594 31.3272 23.609Z" fill="currentColor" stroke="currentColor" stroke-width="3" stroke-linecap="round" stroke-linejoin="round" />
  <path d="M24.5797 35.2186L23.2836 34.4636C23.0829 34.8082 23.0276 35.2185 23.13 35.6039C23.2325 35.9893 23.4841 36.318 23.8294 36.5175L24.5797 35.2186ZM24.5822 35.2143L25.3319 33.9151C24.6167 33.5024 23.7024 33.7454 23.2864 34.4588L24.5822 35.2143ZM26.3146 36.2139L27.61 36.9701C27.8112 36.6254 27.8668 36.2147 27.7643 35.8289C27.6619 35.4432 27.41 35.1141 27.0642 34.9147L26.3146 36.2139ZM26.3115 36.2191L25.5612 37.518C26.2765 37.9311 27.1912 37.6883 27.6073 36.9748L26.3115 36.2191ZM22.1838 43.899L20.6839 43.8824C20.6795 44.283 20.8355 44.6688 21.1172 44.9536C21.3989 45.2385 21.7828 45.3989 22.1835 45.399L22.1838 43.899ZM22.1839 43.894L22.1835 42.394C21.3619 42.3943 20.6933 43.0554 20.684 43.877L22.1839 43.894ZM24.184 43.8935L25.6839 43.9128C25.6891 43.5116 25.5333 43.1251 25.2514 42.8396C24.9695 42.5541 24.5849 42.3934 24.1837 42.3935L24.184 43.8935ZM24.184 43.8995L24.1836 45.3995C25.0049 45.3997 25.6737 44.7394 25.6839 43.9181L24.184 43.8995ZM24.4127 52.6765L23.1025 53.4068C23.2981 53.7577 23.6262 54.0154 24.0134 54.1224C24.4006 54.2293 24.8145 54.1765 25.1624 53.9757L24.4127 52.6765ZM24.4104 52.6722L23.66 51.3734C22.9506 51.7832 22.7013 52.6865 23.1 53.4022L24.4104 52.6722ZM26.1424 51.6716L27.4545 50.9447C27.2594 50.5926 26.9311 50.3337 26.5432 50.2262C26.1554 50.1186 25.7406 50.1715 25.3921 50.3728L26.1424 51.6716ZM26.1453 51.6768L26.8949 52.9761C27.6041 52.5669 27.8541 51.6647 27.4568 50.9489L26.1453 51.6768ZM30.7672 59.2266L29.9978 60.5143C30.3426 60.7203 30.7556 60.7794 31.1443 60.6784C31.5331 60.5774 31.8651 60.3248 32.066 59.977L30.7672 59.2266ZM30.763 59.2242L29.4638 58.4745C29.0543 59.1842 29.29 60.0911 29.9933 60.5116L30.763 59.2242ZM31.7627 57.4916L32.5353 56.2059C32.1904 55.9986 31.7766 55.9386 31.387 56.0394C30.9974 56.1402 30.6646 56.3934 30.4635 56.7419L31.7627 57.4916ZM31.7678 57.4946L33.0666 58.245C33.476 57.5362 33.2417 56.6301 32.54 56.2087L31.7678 57.4946ZM39.6176 61.7228L39.5996 63.2227C40.0004 63.2276 40.3865 63.0717 40.6717 62.79C40.9569 62.5083 41.1175 62.1241 41.1176 61.7232L39.6176 61.7228ZM39.6129 61.7228L38.1129 61.7232C38.1131 62.5444 38.7736 63.2128 39.5948 63.2227L39.6129 61.7228ZM39.6123 59.7226L39.6301 58.2227C39.2292 58.218 38.843 58.374 38.5579 58.6558C38.2727 58.9377 38.1122 59.3221 38.1123 59.723L39.6123 59.7226ZM39.6181 59.7227L41.1181 59.7231C41.1183 58.9015 40.4575 58.2326 39.6359 58.2228L39.6181 59.7227ZM48.567 59.3968L49.3132 60.698C49.6589 60.4998 49.9116 60.1721 50.0153 59.7873C50.1191 59.4026 50.0655 58.9923 49.8663 58.6471L48.567 59.3968ZM48.563 59.3991L47.2641 60.1495C47.677 60.8641 48.5896 61.111 49.3064 60.702L48.563 59.3991ZM47.5625 57.6673L46.8192 56.3644C46.4725 56.5622 46.2188 56.8901 46.1146 57.2755C46.0103 57.6609 46.0639 58.072 46.2636 58.4177L47.5625 57.6673ZM47.5675 57.6645L48.8667 56.9148C48.4539 56.1993 47.5403 55.9523 46.8231 56.3622L47.5675 57.6645ZM55.1178 52.8442L56.4206 53.5876C56.8296 52.8708 56.5828 51.9582 55.8681 51.5454L55.1178 52.8442ZM55.1154 52.8483L54.3658 54.1475C54.711 54.3467 55.1212 54.4003 55.506 54.2966C55.8908 54.1928 56.2184 53.9402 56.4167 53.5945L55.1154 52.8483ZM53.3831 51.8487L52.0808 51.1044C51.6709 51.8215 51.918 52.7351 52.6335 53.148L53.3831 51.8487ZM53.386 51.8437L54.1363 50.5449C53.7906 50.3452 53.3795 50.2915 52.9942 50.3958C52.6088 50.5001 52.2809 50.7537 52.0831 51.1005L53.386 51.8437ZM57.4413 43.8941L58.9412 43.8761C58.9313 43.0549 58.2629 42.3944 57.4417 42.3941L57.4413 43.8941ZM57.4413 43.8989L57.4417 45.3989C57.8426 45.3988 58.2268 45.2382 58.5085 44.953C58.7902 44.6678 58.9461 44.2817 58.9412 43.8808L57.4413 43.8989ZM55.4412 43.8994L53.9413 43.9172C53.9511 44.7388 54.62 45.3996 55.4416 45.3994L55.4412 43.8994ZM55.4411 43.8936L55.4415 42.3936C55.0406 42.3935 54.6562 42.554 54.3743 42.8391C54.0925 43.1243 53.9365 43.5105 53.9412 43.9114L55.4411 43.8936ZM54.9426 35.0445L56.23 34.2747C55.8096 33.5715 54.9026 33.3358 54.193 33.7452L54.9426 35.0445ZM54.9451 35.0486L55.6954 36.3474C56.0432 36.1465 56.2959 35.8145 56.3969 35.4258C56.4979 35.037 56.4388 34.624 56.2327 34.2792L54.9451 35.0486ZM53.2131 36.0492L51.9272 36.8215C52.3486 37.5231 53.2547 37.7575 53.9634 37.348L53.2131 36.0492ZM53.2101 36.0442L52.4604 34.7449C52.1118 34.9461 51.8587 35.2788 51.7579 35.6684C51.6571 36.058 51.7171 36.4718 51.9243 36.8168L53.2101 36.0442ZM48.3908 28.6919L49.1208 27.3815C48.405 26.9828 47.5018 27.2321 47.092 27.9416L48.3908 28.6919ZM48.3951 28.6943L49.6943 29.4439C49.8951 29.096 49.9479 28.6821 49.8409 28.2949C49.734 27.9078 49.4762 27.5796 49.1254 27.3841L48.3951 28.6943ZM47.3954 30.4268L46.6674 31.7383C47.3833 32.1357 48.2855 31.8856 48.6946 31.1765L47.3954 30.4268ZM47.3902 30.4239L46.0914 29.6736C45.89 30.0221 45.8372 30.4369 45.9448 30.8248C46.0523 31.2126 46.3112 31.541 46.6633 31.736L47.3902 30.4239ZM39.6128 26.4654L39.5958 24.9655C38.7742 24.9748 38.113 25.6433 38.1128 26.465L39.6128 26.4654ZM39.6177 26.4653L41.1177 26.4649C41.1176 26.0643 40.9573 25.6804 40.6724 25.3987C40.3875 25.117 40.0018 24.961 39.6012 24.9654L39.6177 26.4653ZM39.6122 28.4655L38.1122 28.4652C38.1121 28.8664 38.2728 29.2509 38.5582 29.5328C38.8437 29.8147 39.2302 29.9705 39.6314 29.9654L39.6122 28.4655ZM39.6182 28.4655L39.6368 29.9653C40.4581 29.9552 41.1184 29.2864 41.1182 28.4651L39.6182 28.4655ZM30.9374 28.8611L32.2362 28.1107C32.0368 27.7655 31.708 27.5138 31.3227 27.4114C30.9373 27.309 30.527 27.3642 30.1824 27.5649L30.9374 28.8611ZM31.9379 30.5929L32.6935 31.8886C33.4071 31.4725 33.6499 30.5578 33.2367 29.8426L31.9379 30.5929ZM30.9331 28.8636L30.1776 27.5678C29.4642 27.9837 29.2212 28.898 29.6339 29.6133L30.9331 28.8636ZM31.9327 30.5959L30.6334 31.3456C30.8329 31.6913 31.1619 31.9433 31.5477 32.0457C31.9335 32.1481 32.3442 32.0926 32.6889 31.8914L31.9327 30.5959ZM25.8759 35.9737C25.8767 35.9722 25.8774 35.971 25.8781 35.9699L23.2864 34.4588C23.2854 34.4605 23.2844 34.4622 23.2836 34.4636L25.8759 35.9737ZM23.8326 36.5136L25.5649 37.5131L27.0642 34.9147L25.3319 33.9151L23.8326 36.5136ZM25.0191 35.4577C25.0182 35.4593 25.017 35.4614 25.0158 35.4634L27.6073 36.9748C27.6081 36.9734 27.609 36.9719 27.61 36.9701L25.0191 35.4577ZM27.0619 34.9203L25.3301 33.9198L23.8294 36.5175L25.5612 37.518L27.0619 34.9203ZM23.6837 43.9156C23.6838 43.9141 23.6838 43.9126 23.6838 43.911L20.684 43.877C20.684 43.8788 20.6839 43.8806 20.6839 43.8824L23.6837 43.9156ZM22.1843 45.394L24.1844 45.3935L24.1837 42.3935L22.1835 42.394L22.1843 45.394ZM22.6842 43.8742C22.6841 43.8765 22.6841 43.8788 22.6841 43.8809L25.6839 43.9181C25.6839 43.9163 25.6839 43.9145 25.6839 43.9128L22.6842 43.8742ZM24.1844 42.3995L22.1842 42.399L22.1835 45.399L24.1836 45.3995L24.1844 42.3995ZM25.723 51.9462C25.7222 51.9448 25.7221 51.9446 25.7208 51.9423L23.1 53.4022C23.1002 53.4027 23.1017 53.4053 23.1025 53.4068L25.723 51.9462ZM25.1607 53.9711L26.8927 52.9705L25.3921 50.3728L23.66 51.3734L25.1607 53.9711ZM24.8303 52.3986C24.8315 52.4008 24.8327 52.4029 24.8338 52.4048L27.4568 50.9489C27.4559 50.9473 27.4552 50.946 27.4545 50.9447L24.8303 52.3986ZM25.3956 50.3776L23.6631 51.3773L25.1624 53.9757L26.8949 52.9761L25.3956 50.3776ZM31.5366 57.939C31.5354 57.9383 31.5342 57.9376 31.5328 57.9367L29.9933 60.5116C29.9946 60.5124 29.9962 60.5133 29.9978 60.5143L31.5366 57.939ZM32.0623 59.9738L33.062 58.2413L30.4635 56.7419L29.4638 58.4745L32.0623 59.9738ZM30.9901 58.7773C30.992 58.7784 30.9938 58.7795 30.9955 58.7805L32.54 56.2087C32.5383 56.2077 32.5368 56.2068 32.5353 56.2059L30.9901 58.7773ZM30.4689 56.7443L29.4683 58.4763L32.066 59.977L33.0666 58.245L30.4689 56.7443ZM39.6357 60.2229C39.6328 60.2229 39.6302 60.2229 39.6297 60.2229C39.6286 60.2229 39.6296 60.2229 39.6309 60.2229L39.5948 63.2227C39.5977 63.2227 39.6003 63.2227 39.6008 63.2227C39.6019 63.2228 39.6009 63.2228 39.5996 63.2227L39.6357 60.2229ZM41.1129 61.7224L41.1123 59.7223L38.1123 59.723L38.1129 61.7232L41.1129 61.7224ZM39.5946 61.2225C39.5946 61.2225 39.5946 61.2225 39.5949 61.2225C39.5952 61.2225 39.5955 61.2225 39.596 61.2226C39.5968 61.2226 39.5985 61.2226 39.6003 61.2226L39.6359 58.2228C39.6359 58.2228 39.6358 58.2228 39.6356 58.2228C39.6353 58.2228 39.635 58.2228 39.6345 58.2228C39.6337 58.2228 39.632 58.2228 39.6301 58.2227L39.5946 61.2225ZM38.1181 59.7223L38.1176 61.7225L41.1176 61.7232L41.1181 59.7231L38.1181 59.7223ZM47.8209 58.0956C47.8211 58.0954 47.8211 58.0954 47.8195 58.0963L49.3064 60.702C49.3075 60.7013 49.3103 60.6997 49.3132 60.698L47.8209 58.0956ZM49.8618 58.6488L48.8613 56.917L46.2636 58.4177L47.2641 60.1495L49.8618 58.6488ZM48.3057 58.9702C48.3073 58.9693 48.3095 58.9681 48.3119 58.9667L46.8231 56.3622C46.8221 56.3628 46.821 56.3634 46.8192 56.3644L48.3057 58.9702ZM46.2683 58.4141L47.2678 60.1465L49.8663 58.6471L48.8667 56.9148L46.2683 58.4141ZM53.815 52.1008C53.8149 52.1009 53.8147 52.1012 53.8142 52.1021L56.4167 53.5945C56.4177 53.5926 56.4191 53.5903 56.4206 53.5876L53.815 52.1008ZM55.8651 51.5491L54.1328 50.5495L52.6335 53.148L54.3658 54.1475L55.8651 51.5491ZM54.6854 52.5931C54.6865 52.5911 54.6877 52.5891 54.6889 52.587L52.0831 51.1005C52.0823 51.1017 52.0816 51.103 52.0808 51.1044L54.6854 52.5931ZM52.6356 53.1426L54.3675 54.143L55.8681 51.5454L54.1363 50.5449L52.6356 53.1426ZM55.9414 43.9122C55.9414 43.9119 55.9414 43.9118 55.9414 43.9128C55.9414 43.9134 55.9414 43.9151 55.9415 43.9169L58.9412 43.8808C58.9412 43.8811 58.9412 43.8812 58.9412 43.8803C58.9412 43.8796 58.9412 43.8779 58.9412 43.8761L55.9414 43.9122ZM57.441 42.3989L55.4408 42.3994L55.4416 45.3994L57.4417 45.3989L57.441 42.3989ZM56.9411 43.8816C56.9411 43.8798 56.9411 43.8781 56.9411 43.8773C56.941 43.8767 56.941 43.8764 56.941 43.8762C56.941 43.8759 56.941 43.8758 56.941 43.8758L53.9412 43.9114C53.9413 43.9132 53.9413 43.9149 53.9413 43.9158C53.9413 43.9163 53.9413 43.9166 53.9413 43.9169C53.9413 43.9171 53.9413 43.9172 53.9413 43.9172L56.9411 43.8816ZM55.4408 45.3936L57.4409 45.3941L57.4417 42.3941L55.4415 42.3936L55.4408 45.3936ZM53.6552 35.8142C53.656 35.8156 53.6568 35.8168 53.6571 35.8173C53.6575 35.818 53.6575 35.8181 53.6574 35.818L56.2327 34.2792C56.2319 34.2777 56.2311 34.2764 56.2307 34.2757C56.2304 34.2753 56.2303 34.2751 56.2302 34.2749C56.2301 34.2747 56.23 34.2747 56.23 34.2747L53.6552 35.8142ZM54.1948 33.7498L52.4627 34.7503L53.9634 37.348L55.6954 36.3474L54.1948 33.7498ZM54.499 35.2769C54.4988 35.2766 54.4967 35.2731 54.4958 35.2716L51.9243 36.8168C51.9254 36.8186 51.9253 36.8184 51.9272 36.8215L54.499 35.2769ZM53.9597 37.3434L55.6923 36.3437L54.193 33.7452L52.4604 34.7449L53.9597 37.3434ZM47.6608 30.0023C47.6632 30.0036 47.6634 30.0037 47.6648 30.0045L49.1254 27.3841C49.1239 27.3832 49.1213 27.3818 49.1208 27.3815L47.6608 30.0023ZM47.0958 27.9446L46.0962 29.6771L48.6946 31.1765L49.6943 29.4439L47.0958 27.9446ZM48.1234 29.1153C48.1215 29.1142 48.1194 29.1131 48.1171 29.1118L46.6633 31.736C46.6645 31.7367 46.6659 31.7375 46.6674 31.7383L48.1234 29.1153ZM48.6891 31.1743L49.6896 29.4422L47.092 27.9416L46.0914 29.6736L48.6891 31.1743ZM39.6297 27.9653C39.6313 27.9653 39.6328 27.9653 39.6343 27.9652L39.6012 24.9654C39.5993 24.9654 39.5976 24.9655 39.5958 24.9655L39.6297 27.9653ZM41.1122 28.4659L41.1128 26.4658L38.1128 26.465L38.1122 28.4652L41.1122 28.4659ZM39.5996 26.9656C39.5973 26.9656 39.595 26.9656 39.5931 26.9657L39.6314 29.9654C39.6335 29.9654 39.6352 29.9654 39.6368 29.9653L39.5996 26.9656ZM38.1177 26.4657L38.1182 28.4659L41.1182 28.4651L41.1177 26.4649L38.1177 26.4657ZM29.6386 29.6114L30.639 31.3432L33.2367 29.8426L32.2362 28.1107L29.6386 29.6114ZM31.6886 30.1594C31.69 30.1586 31.6912 30.1579 31.6924 30.1572L30.1824 27.5649C30.1807 27.5659 30.1791 27.5669 30.1776 27.5678L31.6886 30.1594ZM33.2319 29.8463L32.2323 28.1139L29.6339 29.6133L30.6334 31.3456L33.2319 29.8463ZM31.1822 29.2971C31.1803 29.2983 31.1783 29.2994 31.1765 29.3005L32.6889 31.8914C32.6905 31.8904 32.692 31.8895 32.6935 31.8886L31.1822 29.2971Z" fill="currentColor" />
  <path d="M40.4496 40.8017C39.9455 41.4591 40.0699 42.4007 40.7274 42.9048C41.3848 43.4088 42.3264 43.2844 42.8304 42.627L40.4496 40.8017ZM47.8874 36.0308C48.3914 35.3733 48.267 34.4318 47.6096 33.9277C46.9521 33.4237 46.0105 33.5481 45.5065 34.2055L47.8874 36.0308ZM43.1602 44.2855C42.441 43.8743 41.5246 44.124 41.1135 44.8432C40.7023 45.5624 40.9519 46.4787 41.6711 46.8899L43.1602 44.2855ZM52.9566 53.3423C53.6758 53.7534 54.5921 53.5038 55.0033 52.7846C55.4145 52.0654 55.1648 51.1491 54.4456 50.7379L52.9566 53.3423ZM38.3132 44.0942C38.3132 43.2658 38.9848 42.5942 39.8132 42.5942V39.5942C37.328 39.5942 35.3132 41.6089 35.3132 44.0942H38.3132ZM39.8132 45.5942C38.9848 45.5942 38.3132 44.9226 38.3132 44.0942H35.3132C35.3132 46.5795 37.328 48.5942 39.8132 48.5942V45.5942ZM41.3132 44.0942C41.3132 44.9226 40.6417 45.5942 39.8132 45.5942V48.5942C42.2985 48.5942 44.3132 46.5795 44.3132 44.0942H41.3132ZM39.8132 42.5942C40.6417 42.5942 41.3132 43.2658 41.3132 44.0942H44.3132C44.3132 41.6089 42.2985 39.5942 39.8132 39.5942V42.5942ZM42.8304 42.627L47.8874 36.0308L45.5065 34.2055L40.4496 40.8017L42.8304 42.627ZM41.6711 46.8899L52.9566 53.3423L54.4456 50.7379L43.1602 44.2855L41.6711 46.8899Z" fill="currentColor" />
</svg>