<svg viewBox="0 0 80 80" fill="none">
  <path d="M38 67.4167C38 68.5213 38.8954 69.4167 40 69.4167C41.1046 69.4167 42 68.5213 42 67.4167H38ZM42 59.7494C42 58.6449 41.1046 57.7494 40 57.7494C38.8954 57.7494 38 58.6449 38 59.7494H42ZM38 45.7494C38 46.854 38.8954 47.7494 40 47.7494C41.1046 47.7494 42 46.854 42 45.7494H38ZM42 33.0834C42 31.9788 41.1046 31.0834 40 31.0834C38.8954 31.0834 38 31.9788 38 33.0834H42ZM38 19.0834C38 20.188 38.8954 21.0834 40 21.0834C41.1046 21.0834 42 20.188 42 19.0834H38ZM42 11.4168C42 10.3122 41.1046 9.41675 40 9.41675C38.8954 9.41675 38 10.3122 38 11.4168H42ZM42 67.4167L42 59.7494H38L38 67.4167H42ZM42 45.7494L42 33.0834H38L38 45.7494H42ZM42 19.0834V11.4168H38V19.0834H42Z" fill="currentColor" />
  <path opacity="0.25" d="M21.334 23.0828C21.334 20.8736 23.1248 19.0828 25.334 19.0828L54.6673 19.0828C56.8765 19.0828 58.6673 20.8736 58.6673 23.0828V29.0828C58.6673 31.2919 56.8765 33.0828 54.6673 33.0828L25.334 33.0828C23.1248 33.0828 21.334 31.2919 21.334 29.0828V23.0828Z" fill="currentColor" />
  <path opacity="0.25" d="M26 49.7507C26 47.5416 27.7909 45.7507 30 45.7507L50 45.7507C52.2091 45.7507 54 47.5416 54 49.7507V55.7507C54 57.9599 52.2091 59.7507 50 59.7507H30C27.7909 59.7507 26 57.9599 26 55.7507V49.7507Z" fill="currentColor" />
</svg>