<svg viewBox="0 0 80 80" fill="none">
  <path d="M54.5776 41.0771C53.7492 41.0771 53.0776 40.4056 53.0776 39.5771C53.0776 38.7487 53.7492 38.0771 54.5776 38.0771L54.5776 41.0771ZM69.5776 38.0771C70.4061 38.0771 71.0776 38.7487 71.0776 39.5771C71.0776 40.4056 70.4061 41.0771 69.5776 41.0771L69.5776 38.0771ZM54.5776 38.0771L69.5776 38.0771L69.5776 41.0771L54.5776 41.0771L54.5776 38.0771Z" fill="currentColor" />
  <path d="M54.5776 45.3952L54.5776 33.7591C54.5776 32.5849 53.1579 31.9968 52.3276 32.8271L46.9919 38.1629C46.2108 38.944 46.2108 40.2103 46.9919 40.9914L52.3276 46.3272C53.1579 47.1575 54.5776 46.5694 54.5776 45.3952Z" fill="currentColor" stroke="currentColor" stroke-width="3" stroke-linecap="round" stroke-linejoin="round" />
  <path opacity="0.25" d="M24.5776 41.5771C25.6822 41.5771 26.5776 40.6817 26.5776 39.5771C26.5776 38.4726 25.6822 37.5771 24.5776 37.5771L24.5776 41.5771ZM9.57764 37.5771C8.47307 37.5771 7.57764 38.4726 7.57764 39.5771C7.57764 40.6817 8.47307 41.5771 9.57764 41.5771L9.57764 37.5771ZM24.5776 37.5771L9.57764 37.5771L9.57764 41.5771L24.5776 41.5771L24.5776 37.5771Z" fill="currentColor" />
  <path d="M24.5776 45.3952L24.5776 33.7591C24.5776 32.5849 25.9973 31.9968 26.8276 32.8271L32.1634 38.1629C32.9445 38.944 32.9445 40.2103 32.1634 40.9914L26.8276 46.3272C25.9973 47.1575 24.5776 46.5694 24.5776 45.3952Z" fill="currentColor" stroke="currentColor" stroke-width="3" stroke-linecap="round" stroke-linejoin="round" />
  <path opacity="0.25" d="M37.5767 54.5781C37.5767 53.4736 38.4721 52.5781 39.5767 52.5781C40.6812 52.5781 41.5767 53.4736 41.5767 54.5781L37.5767 54.5781ZM41.5767 69.5781C41.5767 70.6827 40.6812 71.5781 39.5767 71.5781C38.4721 71.5781 37.5767 70.6827 37.5767 69.5781L41.5767 69.5781ZM41.5767 54.5781L41.5767 69.5781L37.5767 69.5781L37.5767 54.5781L41.5767 54.5781Z" fill="currentColor" />
  <path d="M33.7586 54.5781L45.3947 54.5781C46.5689 54.5781 47.157 53.1584 46.3267 52.3281L40.9909 46.9923C40.2098 46.2113 38.9435 46.2113 38.1624 46.9923L32.8267 52.3281C31.9964 53.1584 32.5844 54.5781 33.7586 54.5781Z" fill="currentColor" stroke="currentColor" stroke-width="3" stroke-linecap="round" stroke-linejoin="round" />
  <path opacity="0.25" d="M37.5767 24.5781C37.5767 25.6827 38.4721 26.5781 39.5767 26.5781C40.6812 26.5781 41.5767 25.6827 41.5767 24.5781L37.5767 24.5781ZM41.5767 9.57813C41.5767 8.47355 40.6812 7.57813 39.5767 7.57812C38.4721 7.57812 37.5767 8.47356 37.5767 9.57812L41.5767 9.57813ZM41.5767 24.5781L41.5767 9.57813L37.5767 9.57812L37.5767 24.5781L41.5767 24.5781Z" fill="currentColor" />
  <path d="M33.7586 24.5781L45.3947 24.5781C46.5689 24.5781 47.157 25.9978 46.3267 26.8281L40.9909 32.1639C40.2098 32.945 38.9435 32.945 38.1624 32.1639L32.8267 26.8281C31.9964 25.9978 32.5844 24.5781 33.7586 24.5781Z" fill="currentColor" stroke="currentColor" stroke-width="3" stroke-linecap="round" stroke-linejoin="round" />
</svg>