<svg viewBox="0 0 80 80" fill="none">
  <g opacity="0.25">
    <path fill-rule="evenodd" clip-rule="evenodd" d="M25 42.9999C25.0312 46.468 25.5893 49.9325 26.6743 53.2718C28.9086 60.1483 33.2626 66.1409 39.112 70.3908C44.9615 74.6407 52.0063 76.9297 59.2366 76.9297C61.5573 76.9297 63.8588 76.6939 66.1078 76.2332C67.9194 75.862 68.0097 73.4116 66.3995 72.5021C65.2693 71.8636 64.1723 71.1591 63.1143 70.3905C57.2648 66.1406 52.9109 60.1479 50.6766 53.2715C49.5916 49.9323 49.0335 46.4679 49.0023 42.9999L25 42.9999Z" fill="currentColor" />
    <path d="M25 42.9999L25 41.4999L23.4864 41.4999L23.5001 43.0134L25 42.9999ZM26.6743 53.2718L25.2478 53.7353H25.2478L26.6743 53.2718ZM39.112 70.3908L38.2304 71.6043L38.2304 71.6043L39.112 70.3908ZM66.1078 76.2332L65.8067 74.7637L66.1078 76.2332ZM66.3995 72.5021L67.1373 71.196L67.1373 71.196L66.3995 72.5021ZM63.1143 70.3905L63.996 69.177L63.996 69.177L63.1143 70.3905ZM50.6766 53.2715L52.1032 52.8079L50.6766 53.2715ZM49.0023 42.9999L50.5022 42.9864L50.4888 41.4999L49.0023 41.4999L49.0023 42.9999ZM23.5001 43.0134C23.5326 46.6334 24.1152 50.2497 25.2478 53.7353L28.1009 52.8083C27.0635 49.6152 26.5298 46.3026 26.4999 42.9864L23.5001 43.0134ZM25.2478 53.7353C27.5799 60.9131 32.1246 67.1682 38.2304 71.6043L39.9937 69.1773C34.4005 65.1136 30.2373 59.3835 28.1009 52.8083L25.2478 53.7353ZM38.2304 71.6043C44.3361 76.0404 51.6895 78.4297 59.2366 78.4297L59.2366 75.4297C52.3231 75.4297 45.5869 73.241 39.9937 69.1773L38.2304 71.6043ZM59.2366 78.4297C61.6589 78.4297 64.0613 78.1836 66.4088 77.7026L65.8067 74.7637C63.6563 75.2042 61.4556 75.4297 59.2366 75.4297L59.2366 78.4297ZM66.4088 77.7026C68.0703 77.3623 68.9505 76.0131 69.034 74.662C69.1147 73.3555 68.4756 71.952 67.1373 71.196L65.6618 73.8081C65.9335 73.9616 66.0544 74.2381 66.0397 74.477C66.0327 74.5893 65.9976 74.6536 65.975 74.6817C65.9619 74.698 65.9271 74.739 65.8067 74.7637L66.4088 77.7026ZM67.1373 71.196C66.0566 70.5856 65.0076 69.9119 63.996 69.177L62.2326 71.604C63.3369 72.4063 64.482 73.1417 65.6618 73.8081L67.1373 71.196ZM63.996 69.177C58.4028 65.1132 54.2396 59.3832 52.1032 52.8079L49.25 53.735C51.5822 60.9127 56.1269 67.1679 62.2326 71.604L63.996 69.177ZM52.1032 52.8079C51.0658 49.615 50.5321 46.3025 50.5022 42.9864L47.5023 43.0134C47.535 46.6333 48.1175 50.2495 49.25 53.735L52.1032 52.8079ZM49.0023 41.4999L25 41.4999L25 44.4999L49.0023 44.4999L49.0023 41.4999Z" fill="currentColor" />
  </g>
  <g opacity="0.25">
    <path fill-rule="evenodd" clip-rule="evenodd" d="M53.0001 31L55.1005 31C58.7537 31 60.5832 26.5832 58 24L40.7123 6.71231C38.6621 4.66206 35.3379 4.66206 33.2877 6.71231L16 24C13.4168 26.5832 15.2463 31 18.8995 31L21.0001 31L33.2878 18.7123C35.338 16.6621 38.6621 16.6621 40.7124 18.7123L53.0001 31Z" fill="currentColor" />
    <path d="M55.1005 31L55.1005 32.5L55.1005 31ZM53.0001 31L51.9394 32.0607C52.2207 32.342 52.6023 32.5 53.0001 32.5L53.0001 31ZM58 24L59.0607 22.9393L59.0607 22.9393L58 24ZM40.7123 6.71231L39.6517 7.77297L40.7123 6.71231ZM33.2877 6.71231L34.3484 7.77297L33.2877 6.71231ZM16 24L17.0607 25.0607L17.0607 25.0607L16 24ZM18.8995 31L18.8995 29.5L18.8995 31ZM21.0001 31L21.0001 32.5C21.3979 32.5 21.7794 32.342 22.0607 32.0607L21.0001 31ZM33.2878 18.7123L34.3484 19.773L33.2878 18.7123ZM40.7124 18.7123L41.773 17.6516L40.7124 18.7123ZM55.1005 29.5L53.0001 29.5L53.0001 32.5L55.1005 32.5L55.1005 29.5ZM56.9393 25.0607C58.5776 26.6989 57.4173 29.5 55.1005 29.5L55.1005 32.5C60.09 32.5 62.5888 26.4675 59.0607 22.9393L56.9393 25.0607ZM39.6517 7.77297L56.9393 25.0607L59.0607 22.9393L41.773 5.65165L39.6517 7.77297ZM34.3484 7.77297C35.8128 6.3085 38.1872 6.3085 39.6517 7.77297L41.773 5.65165C39.1369 3.01561 34.8631 3.01561 32.227 5.65165L34.3484 7.77297ZM17.0607 25.0607L34.3484 7.77297L32.227 5.65165L14.9393 22.9393L17.0607 25.0607ZM18.8995 29.5C16.5827 29.5 15.4224 26.6989 17.0607 25.0607L14.9393 22.9393C11.4112 26.4675 13.91 32.5 18.8995 32.5L18.8995 29.5ZM21.0001 29.5L18.8995 29.5L18.8995 32.5L21.0001 32.5L21.0001 29.5ZM22.0607 32.0607L34.3484 19.773L32.2271 17.6516L19.9394 29.9393L22.0607 32.0607ZM34.3484 19.773C35.8129 18.3085 38.1873 18.3085 39.6517 19.773L41.773 17.6516C39.137 15.0156 34.8631 15.0156 32.2271 17.6516L34.3484 19.773ZM39.6517 19.773L51.9394 32.0607L54.0607 29.9393L41.773 17.6516L39.6517 19.773Z" fill="currentColor" />
  </g>
  <path d="M55.1005 43.1719L18.8995 43.1719C15.2463 43.1719 13.4168 38.755 16 36.1719L33.2877 18.8842C35.3379 16.8339 38.6621 16.8339 40.7123 18.8842L58 36.1719C60.5832 38.755 58.7537 43.1719 55.1005 43.1719Z" fill="currentColor" />
  <path d="M55.1005 43.1719L55.1005 44.6719L55.1005 43.1719ZM18.8995 43.1719L18.8995 41.6719L18.8995 43.1719ZM16 36.1719L17.0607 37.2325L17.0607 37.2325L16 36.1719ZM33.2877 18.8842L32.227 17.8235L33.2877 18.8842ZM40.7123 18.8842L41.773 17.8235L40.7123 18.8842ZM58 36.1719L56.9393 37.2325L58 36.1719ZM55.1005 41.6719L18.8995 41.6719L18.8995 44.6719L55.1005 44.6719L55.1005 41.6719ZM18.8995 41.6719C16.5827 41.6719 15.4224 38.8708 17.0607 37.2325L14.9393 35.1112C11.4112 38.6393 13.91 44.6719 18.8995 44.6719L18.8995 41.6719ZM17.0607 37.2325L34.3484 19.9448L32.227 17.8235L14.9393 35.1112L17.0607 37.2325ZM34.3484 19.9448C35.8128 18.4804 38.1872 18.4804 39.6517 19.9448L41.773 17.8235C39.1369 15.1875 34.8631 15.1875 32.227 17.8235L34.3484 19.9448ZM39.6517 19.9448L56.9393 37.2325L59.0607 35.1112L41.773 17.8235L39.6517 19.9448ZM56.9393 37.2325C58.5776 38.8708 57.4173 41.6719 55.1005 41.6719L55.1005 44.6719C60.09 44.6719 62.5888 38.6393 59.0607 35.1112L56.9393 37.2325Z" fill="currentColor" />
</svg>