<svg viewBox="0 0 80 80" fill="none">
  <path opacity="0.25" d="M20 64.334H60C62.2091 64.334 64 62.5431 64 60.334L64 20.334C64 18.1248 62.2091 16.334 60 16.334L20 16.334C17.7909 16.334 16 18.1248 16 20.334L16 60.334C16 62.5431 17.7909 64.334 20 64.334Z" fill="currentColor" />
  <path opacity="0.5" d="M62.8991 20.2628C63.6801 19.4818 63.6801 18.2155 62.8991 17.4344C62.118 16.6534 60.8517 16.6534 60.0706 17.4344L62.8991 20.2628ZM34.6146 42.8905C33.8336 43.6715 33.8336 44.9378 34.6146 45.7189C35.3956 46.4999 36.662 46.4999 37.443 45.7189L34.6146 42.8905ZM60.0706 17.4344L34.6146 42.8905L37.443 45.7189L62.8991 20.2628L60.0706 17.4344Z" fill="currentColor" />
  <path d="M66.9716 24.3348L56.001 13.3642C54.894 12.2571 55.678 10.3642 57.2437 10.3642L67.9716 10.3642C69.0762 10.3642 69.9716 11.2596 69.9716 12.3642L69.9716 23.0921C69.9716 24.6578 68.0787 25.4418 66.9716 24.3348Z" fill="currentColor" stroke="currentColor" stroke-width="3" stroke-linecap="round" stroke-linejoin="round" />
</svg>