<svg viewBox="0 0 80 80" fill="none">
  <g opacity="0.25">
    <path fill-rule="evenodd" clip-rule="evenodd" d="M49.9999 14C49.9999 12.8954 49.1044 12 47.9999 12H31.9999C30.8953 12 29.9999 12.8954 29.9999 14V30H13.9999C12.8953 30 11.9999 30.8954 11.9999 32V48C11.9999 49.1046 12.8953 50 13.9999 50H29.9999V66C29.9999 67.1046 30.8953 68 31.9999 68H47.9999C49.1044 68 49.9999 67.1046 49.9999 66V50H65.9999C67.1044 50 67.9999 49.1046 67.9999 48V32C67.9999 30.8954 67.1045 30 65.9999 30H49.9999V14Z" fill="currentColor" />
    <path d="M29.9999 30V31.5H31.4999V30H29.9999ZM29.9999 50H31.4999V48.5H29.9999V50ZM49.9999 50V48.5H48.4999V50H49.9999ZM49.9999 30H48.4999V31.5H49.9999V30ZM47.9999 13.5C48.276 13.5 48.4999 13.7239 48.4999 14H51.4999C51.4999 12.067 49.9329 10.5 47.9999 10.5V13.5ZM31.9999 13.5H47.9999V10.5H31.9999V13.5ZM31.4999 14C31.4999 13.7239 31.7237 13.5 31.9999 13.5V10.5C30.0669 10.5 28.4999 12.067 28.4999 14L31.4999 14ZM31.4999 30V14L28.4999 14V30H31.4999ZM13.9999 31.5H29.9999V28.5H13.9999V31.5ZM13.4999 32C13.4999 31.7239 13.7237 31.5 13.9999 31.5V28.5C12.0669 28.5 10.4999 30.067 10.4999 32H13.4999ZM13.4999 48V32H10.4999V48H13.4999ZM13.9999 48.5C13.7237 48.5 13.4999 48.2761 13.4999 48H10.4999C10.4999 49.933 12.0669 51.5 13.9999 51.5V48.5ZM29.9999 48.5H13.9999V51.5H29.9999V48.5ZM31.4999 66V50H28.4999V66H31.4999ZM31.9999 66.5C31.7237 66.5 31.4999 66.2761 31.4999 66H28.4999C28.4999 67.933 30.0669 69.5 31.9999 69.5V66.5ZM47.9999 66.5H31.9999V69.5H47.9999V66.5ZM48.4999 66C48.4999 66.2761 48.276 66.5 47.9999 66.5V69.5C49.9329 69.5 51.4999 67.933 51.4999 66H48.4999ZM48.4999 50V66H51.4999V50H48.4999ZM65.9999 48.5H49.9999V51.5H65.9999V48.5ZM66.4999 48C66.4999 48.2761 66.276 48.5 65.9999 48.5V51.5C67.9329 51.5 69.4999 49.933 69.4999 48H66.4999ZM66.4999 32V48H69.4999V32H66.4999ZM65.9999 31.5C66.276 31.5 66.4999 31.7239 66.4999 32H69.4999C69.4999 30.067 67.9329 28.5 65.9999 28.5V31.5ZM49.9999 31.5H65.9999V28.5H49.9999V31.5ZM48.4999 14V30H51.4999V14H48.4999Z" fill="currentColor" />
  </g>
  <rect opacity="0.25" x="29.9999" y="30" width="20" height="20" fill="currentColor" stroke="currentColor" stroke-width="3" stroke-linecap="square" />
  <path d="M35.9999 36.5H36.4999V33.5H35.9999V36.5ZM36.4999 36.5V36H33.4999V36.5H36.4999ZM36.4999 36H35.9999V39H36.4999V36ZM35.9999 36V36.5H38.9999V36H35.9999ZM43.4999 36.5H43.9999V33.5H43.4999V36.5ZM43.9999 36.5V36H40.9999V36.5H43.9999ZM43.9999 36H43.4999V39H43.9999V36ZM43.4999 36V36.5H46.4999V36H43.4999ZM43.9999 41H43.4999V44H43.9999V41ZM46.4999 44V43.5H43.4999V44H46.4999ZM43.4999 46.5H43.9999V43.5H43.4999V46.5ZM40.9999 43.5V44H43.9999V43.5H40.9999ZM35.9999 44H36.4999V41H35.9999V44ZM36.4999 44V43.5H33.4999V44H36.4999ZM36.4999 43.5H35.9999V46.5H36.4999V43.5ZM35.9999 43.5V44H38.9999V43.5H35.9999ZM36.4999 46.5C37.8806 46.5 38.9999 45.3807 38.9999 44H35.9999C35.9999 43.7239 36.2237 43.5 36.4999 43.5V46.5ZM33.4999 44C33.4999 45.3807 34.6192 46.5 35.9999 46.5V43.5C36.276 43.5 36.4999 43.7239 36.4999 44H33.4999ZM36.4999 44C36.2237 44 35.9999 43.7761 35.9999 43.5H38.9999C38.9999 42.1193 37.8806 41 36.4999 41V44ZM35.9999 41C34.6192 41 33.4999 42.1193 33.4999 43.5H36.4999C36.4999 43.7761 36.276 44 35.9999 44V41ZM43.4999 43.5C43.776 43.5 43.9999 43.7239 43.9999 44H40.9999C40.9999 45.3807 42.1192 46.5 43.4999 46.5V43.5ZM43.4999 44C43.4999 43.7239 43.7237 43.5 43.9999 43.5V46.5C45.3806 46.5 46.4999 45.3807 46.4999 44H43.4999ZM43.4999 41C42.1192 41 40.9999 42.1193 40.9999 43.5H43.9999C43.9999 43.7761 43.776 44 43.4999 44V41ZM43.9999 44C43.7237 44 43.4999 43.7761 43.4999 43.5H46.4999C46.4999 42.1193 45.3806 41 43.9999 41V44ZM43.9999 39C45.3806 39 46.4999 37.8807 46.4999 36.5H43.4999C43.4999 36.2239 43.7237 36 43.9999 36V39ZM40.9999 36.5C40.9999 37.8807 42.1192 39 43.4999 39V36C43.776 36 43.9999 36.2239 43.9999 36.5H40.9999ZM43.9999 36.5C43.7237 36.5 43.4999 36.2761 43.4999 36H46.4999C46.4999 34.6193 45.3806 33.5 43.9999 33.5V36.5ZM43.4999 33.5C42.1192 33.5 40.9999 34.6193 40.9999 36H43.9999C43.9999 36.2761 43.776 36.5 43.4999 36.5V33.5ZM36.4999 39C37.8806 39 38.9999 37.8807 38.9999 36.5H35.9999C35.9999 36.2239 36.2237 36 36.4999 36V39ZM33.4999 36.5C33.4999 37.8807 34.6192 39 35.9999 39V36C36.276 36 36.4999 36.2239 36.4999 36.5H33.4999ZM36.4999 36.5C36.2237 36.5 35.9999 36.2761 35.9999 36H38.9999C38.9999 34.6193 37.8806 33.5 36.4999 33.5V36.5ZM35.9999 33.5C34.6192 33.5 33.4999 34.6193 33.4999 36H36.4999C36.4999 36.2761 36.276 36.5 35.9999 36.5V33.5Z" fill="currentColor" />
</svg>