<svg viewBox="0 0 80 80" fill="none">
  <rect opacity="0.25" x="4" y="24" width="72" height="32" rx="4" fill="currentColor" />
  <rect opacity="0.25" x="24" y="24" width="32" height="32" fill="currentColor" />
  <path fill-rule="evenodd" clip-rule="evenodd" d="M36 33C36 32.4477 35.5523 32 35 32H33C32.4477 32 32 32.4477 32 33V35C32 35.5523 32.4477 36 33 36H35C35.5523 36 36 35.5523 36 35V33ZM48 33C48 32.4477 47.5523 32 47 32H45C44.4477 32 44 32.4477 44 33V35C44 35.5523 44.4477 36 45 36H47C47.5523 36 48 35.5523 48 35V33ZM44 45C44 44.4477 44.4477 44 45 44H47C47.5523 44 48 44.4477 48 45V47C48 47.5523 47.5523 48 47 48H45C44.4477 48 44 47.5523 44 47V45ZM36 45C36 44.4477 35.5523 44 35 44H33C32.4477 44 32 44.4477 32 45V47C32 47.5523 32.4477 48 33 48H35C35.5523 48 36 47.5523 36 47V45Z" fill="currentColor" />
  <path d="M33 34H35V30H33V34ZM34 35V33H30V35H34ZM35 34H33V38H35V34ZM34 33V35H38V33H34ZM45 34H47V30H45V34ZM46 35V33H42V35H46ZM47 34H45V38H47V34ZM46 33V35H50V33H46ZM47 42H45V46H47V42ZM50 47V45H46V47H50ZM45 50H47V46H45V50ZM42 45V47H46V45H42ZM33 46H35V42H33V46ZM34 47V45H30V47H34ZM35 46H33V50H35V46ZM34 45V47H38V45H34ZM35 50C36.6569 50 38 48.6569 38 47H34C34 46.4477 34.4477 46 35 46V50ZM30 47C30 48.6569 31.3431 50 33 50V46C33.5523 46 34 46.4477 34 47H30ZM35 46C34.4477 46 34 45.5523 34 45H38C38 43.3431 36.6569 42 35 42V46ZM33 42C31.3431 42 30 43.3431 30 45H34C34 45.5523 33.5523 46 33 46V42ZM45 46C45.5523 46 46 46.4477 46 47H42C42 48.6569 43.3431 50 45 50V46ZM46 47C46 46.4477 46.4477 46 47 46V50C48.6569 50 50 48.6569 50 47H46ZM45 42C43.3431 42 42 43.3431 42 45H46C46 45.5523 45.5523 46 45 46V42ZM47 46C46.4477 46 46 45.5523 46 45H50C50 43.3431 48.6569 42 47 42V46ZM47 38C48.6569 38 50 36.6569 50 35H46C46 34.4477 46.4477 34 47 34V38ZM42 35C42 36.6569 43.3431 38 45 38V34C45.5523 34 46 34.4477 46 35H42ZM47 34C46.4477 34 46 33.5523 46 33H50C50 31.3431 48.6569 30 47 30V34ZM45 30C43.3431 30 42 31.3431 42 33H46C46 33.5523 45.5523 34 45 34V30ZM35 38C36.6569 38 38 36.6569 38 35H34C34 34.4477 34.4477 34 35 34V38ZM30 35C30 36.6569 31.3431 38 33 38V34C33.5523 34 34 34.4477 34 35H30ZM35 34C34.4477 34 34 33.5523 34 33H38C38 31.3431 36.6569 30 35 30V34ZM33 30C31.3431 30 30 31.3431 30 33H34C34 33.5523 33.5523 34 33 34V30Z" fill="currentColor" />
</svg>