<svg viewBox="0 0 80 80" fill="none">
  <rect opacity="0.25" x="10" y="22" width="56" height="36" rx="4" fill="currentColor" />
  <path d="M66 32.5C66 32.2239 66.2239 32 66.5 32C68.433 32 70 33.567 70 35.5V44.5C70 46.433 68.433 48 66.5 48C66.2239 48 66 47.7761 66 47.5V32.5Z" fill="currentColor" />
  <path fill-rule="evenodd" clip-rule="evenodd" d="M50 30.3379C50 29.2333 49.1046 28.3379 48 28.3379L18 28.3379C16.8954 28.3379 16 29.2333 16 30.3379L16 50.3379C16 51.4425 16.8954 52.3379 18 52.3379H48C49.1046 52.3379 50 51.4425 50 50.3379V49V31V30.3379Z" fill="currentColor" />
  <path d="M48 52.3379V50.3379V52.3379ZM18 52.3379V54.3379V52.3379ZM18 30.3379L48 30.3379V26.3379L18 26.3379V30.3379ZM18 50.3379L18 30.3379H14L14 50.3379H18ZM48 50.3379H18V54.3379H48V50.3379ZM52 50.3379V49L48 49V50.3379L52 50.3379ZM52 49V31H48V49L52 49ZM52 31V30.3379H48V31H52ZM48 54.3379C50.2091 54.3379 52 52.547 52 50.3379L48 50.3379V54.3379ZM14 50.3379C14 52.547 15.7909 54.3379 18 54.3379V50.3379H18H14ZM48 30.3379V30.3379H52C52 28.1288 50.2091 26.3379 48 26.3379V30.3379ZM18 26.3379C15.7909 26.3379 14 28.1288 14 30.3379H18V30.3379V26.3379Z" fill="currentColor" />
</svg>