<svg viewBox="0 0 80 80" fill="none">
  <rect opacity="0.25" x="10" y="22" width="56" height="36" rx="4" fill="currentColor" />
  <path d="M66 32.5C66 32.2239 66.2239 32 66.5 32C68.433 32 70 33.567 70 35.5V44.5C70 46.433 68.433 48 66.5 48C66.2239 48 66 47.7761 66 47.5V32.5Z" fill="currentColor" />
  <path fill-rule="evenodd" clip-rule="evenodd" d="M24 28.3379C25.1046 28.3379 26 29.2333 26 30.3379V31L26 49V50.3379C26 51.4425 25.1046 52.3379 24 52.3379H18C16.8954 52.3379 16 51.4425 16 50.3379L16 30.3379C16 29.2333 16.8954 28.3379 18 28.3379H24Z" fill="currentColor" />
  <path d="M26 49H27.5H26ZM24.5 30.3379V31H27.5V30.3379H24.5ZM24.5 31L24.5 49H27.5L27.5 31H24.5ZM24.5 49V50.3379H27.5V49H24.5ZM24 50.8379H18V53.8379H24V50.8379ZM17.5 50.3379L17.5 30.3379H14.5L14.5 50.3379H17.5ZM18 29.8379H24V26.8379H18V29.8379ZM18 50.8379C17.7239 50.8379 17.5 50.614 17.5 50.3379H14.5C14.5 52.2709 16.067 53.8379 18 53.8379V50.8379ZM24.5 50.3379C24.5 50.614 24.2761 50.8379 24 50.8379V53.8379C25.933 53.8379 27.5 52.2709 27.5 50.3379H24.5ZM17.5 30.3379C17.5 30.0617 17.7239 29.8379 18 29.8379V26.8379C16.067 26.8379 14.5 28.4049 14.5 30.3379H17.5ZM27.5 30.3379C27.5 28.4049 25.933 26.8379 24 26.8379V29.8379C24.2761 29.8379 24.5 30.0617 24.5 30.3379H27.5Z" fill="currentColor" />
</svg>