<svg viewBox="0 0 80 80" fill="none">
  <path opacity="0.5" d="M34.1588 65.9046H67.6191C67.8295 65.9046 68 65.7341 68 65.5237V60.2856C68 53.29 62.329 47.6189 55.3334 47.6189H35.3016C34.4601 47.6189 33.7778 48.3011 33.7778 49.1427V65.5237C33.7778 65.7341 33.9484 65.9046 34.1588 65.9046Z" fill="currentColor" />
  <path d="M12 40V66.0465V72" stroke="currentColor" stroke-width="4" stroke-linecap="round" stroke-linejoin="round" />
  <path d="M68 65.9048H12" stroke="currentColor" stroke-width="4" stroke-linecap="round" stroke-linejoin="round" />
  <path d="M68 65.9048V72" stroke="currentColor" stroke-width="4" stroke-linecap="round" stroke-linejoin="round" />
  <path d="M20.4306 52.1668C22.0766 51.2359 24.0901 51.2359 25.7361 52.1668L25.8192 52.2138C27.4584 53.1409 28.4719 54.8785 28.4719 56.7617C28.4719 58.645 27.4584 60.3826 25.8192 61.3097L25.7361 61.3567C24.0901 62.2876 22.0766 62.2876 20.4306 61.3567L20.3475 61.3097C18.7082 60.3826 17.6947 58.645 17.6947 56.7617C17.6947 54.8785 18.7082 53.1409 20.3475 52.2138L20.4306 52.1668Z" fill="currentColor" />
  <path opacity="0.5" d="M34.1588 33.9046H67.6191C67.8295 33.9046 68 33.7341 68 33.5237V28.2856C68 21.29 62.329 15.6189 55.3334 15.6189H35.3016C34.4601 15.6189 33.7778 16.3011 33.7778 17.1427V33.5237C33.7778 33.7341 33.9484 33.9046 34.1588 33.9046Z" fill="currentColor" />
  <path d="M12 8V34.0465V40" stroke="currentColor" stroke-width="4" stroke-linecap="round" stroke-linejoin="round" />
  <path d="M68 33.9048H12" stroke="currentColor" stroke-width="4" stroke-linecap="round" stroke-linejoin="round" />
  <path d="M68 33.9048V40" stroke="currentColor" stroke-width="4" stroke-linecap="round" stroke-linejoin="round" />
  <path d="M20.4306 20.1668C22.0766 19.2359 24.0901 19.2359 25.7361 20.1668L25.8192 20.2138C27.4584 21.1409 28.4719 22.8785 28.4719 24.7617C28.4719 26.645 27.4584 28.3826 25.8192 29.3097L25.7361 29.3567C24.0901 30.2876 22.0766 30.2876 20.4306 29.3567L20.3475 29.3097C18.7082 28.3826 17.6947 26.645 17.6947 24.7617C17.6947 22.8785 18.7082 21.1409 20.3475 20.2138L20.4306 20.1668Z" fill="currentColor" />
  <path d="M68 40V65.9048" stroke="currentColor" stroke-width="4" stroke-linecap="round" stroke-linejoin="round" />
</svg>