<svg viewBox="0 0 80 80" fill="none">
  <path opacity="0.25" fill-rule="evenodd" clip-rule="evenodd" d="M22 11L63.0204 11C63.5614 11 64 11.4386 64 11.9796L64 56.75C64 56.8881 63.8881 57 63.75 57H58L27.75 57H22C18.7702 57 16.1364 59.552 16.0051 62.7496C16.0049 62.7548 16 62.7552 16 62.75L16 17C16 13.6863 18.6863 11 22 11Z" fill="currentColor" />
  <path fill-rule="evenodd" clip-rule="evenodd" d="M63.3755 66.755C63.7412 67.1942 64 67.7268 64 68.2983V68.75C64 68.8881 63.8881 69 63.75 69H63.5H22C18.6863 69 16 66.3137 16 63C16 59.6863 18.6863 57 22 57L63.9375 57C63.972 57 64 57.028 64 57.0625V57.6017C64 58.1732 63.7412 58.7058 63.3755 59.145C62.5166 60.1764 62 61.5029 62 62.95C62 64.3971 62.5166 65.7236 63.3755 66.755Z" fill="currentColor" />
  <path d="M34.594 21.7202C37.7632 20.4074 41.3242 20.4074 44.4934 21.7202V21.7202C47.6627 23.0329 50.1807 25.5509 51.4934 28.7202V28.7202C52.8062 31.8894 52.8062 35.4504 51.4934 38.6197V38.6197C50.1807 41.7889 47.6627 44.3069 44.4934 45.6197V45.6197C41.3242 46.9324 37.7632 46.9324 34.594 45.6197V45.6197C31.4247 44.3069 28.9067 41.7889 27.594 38.6197V38.6197C26.2812 35.4504 26.2812 31.8894 27.594 28.7202V28.7202C28.9067 25.5509 31.4247 23.0329 34.594 21.7202V21.7202Z" stroke="currentColor" stroke-width="4" />
  <path d="M44.0033 40.9308L42.1555 40.1655L44.0033 40.9308ZM44.0033 26.4116L42.1555 27.1769L44.0033 26.4116ZM40.3791 46.5788L40.5082 48.5746C41.0185 48.5416 41.4968 48.3144 41.8447 47.9396L40.3791 46.5788ZM38.7094 46.5789L37.2439 47.9398C37.5919 48.3146 38.0701 48.5417 38.5804 48.5747L38.7094 46.5789ZM35.084 40.9297L36.9318 40.1643L35.084 40.9297ZM35.084 26.4104L33.2363 25.6451L35.084 26.4104ZM38.7066 20.7643L38.5772 18.7685C38.0669 18.8016 37.5887 19.0289 37.2408 19.4036L38.7066 20.7643ZM40.3796 20.7642L41.8454 19.4034C41.4974 19.0287 41.0192 18.8014 40.5089 18.7684L40.3796 20.7642ZM45.8511 41.6962C47.9794 36.5579 47.9794 30.7845 45.8511 25.6462L42.1555 27.1769C43.8779 31.3351 43.8779 36.0073 42.1555 40.1655L45.8511 41.6962ZM41.8447 47.9396C43.5247 46.1302 44.888 44.0212 45.8511 41.6962L42.1555 40.1655C41.3761 42.0471 40.273 43.7536 38.9134 45.218L41.8447 47.9396ZM38.5804 48.5747C39.2223 48.6162 39.8663 48.6162 40.5082 48.5746L40.2499 44.583C39.7799 44.6134 39.3084 44.6134 38.8384 44.583L38.5804 48.5747ZM33.2363 41.6951C34.1996 44.0207 35.5633 46.1301 37.2439 47.9398L40.1749 45.2179C38.8148 43.7533 37.7114 42.0464 36.9318 40.1643L33.2363 41.6951ZM33.2363 25.6451C31.1079 30.7834 31.1079 36.5567 33.2363 41.6951L36.9318 40.1643C35.2094 36.0061 35.2094 31.334 36.9318 27.1758L33.2363 25.6451ZM37.2408 19.4036C35.5616 21.2126 34.199 23.3209 33.2363 25.6451L36.9318 27.1758C37.7109 25.2949 38.8135 23.5889 40.1724 22.1249L37.2408 19.4036ZM40.5089 18.7684C39.8657 18.7268 39.2204 18.7268 38.5772 18.7685L38.836 22.7601C39.307 22.7296 39.7794 22.7295 40.2504 22.76L40.5089 18.7684ZM45.8511 25.6462C44.8881 23.3214 43.5251 21.2127 41.8454 19.4034L38.9139 22.125C40.2733 23.5892 41.3762 25.2955 42.1555 27.1769L45.8511 25.6462Z" fill="currentColor" />
  <path d="M27.3098 39.8699H51.7767V35.8699H27.3098V39.8699ZM27.4801 31.0032L51.6064 31.0032V27.0032L27.4801 27.0032V31.0032Z" fill="currentColor" />
</svg>