<svg viewBox="0 0 80 80" fill="none">
  <path d="M42 16C42 14.8954 41.1046 14 40 14C38.8954 14 38 14.8954 38 16L42 16ZM38 64C38 65.1046 38.8954 66 40 66C41.1046 66 42 65.1046 42 64H38ZM16 38C14.8954 38 14 38.8954 14 40C14 41.1046 14.8954 42 16 42V38ZM64 42C65.1046 42 66 41.1046 66 40C66 38.8954 65.1046 38 64 38V42ZM16 62C14.8954 62 14 62.8954 14 64C14 65.1046 14.8954 66 16 66V62ZM64 66C65.1046 66 66 65.1046 66 64C66 62.8954 65.1046 62 64 62V66ZM66 16C66 14.8954 65.1046 14 64 14C62.8954 14 62 14.8954 62 16L66 16ZM62 64C62 65.1046 62.8954 66 64 66C65.1046 66 66 65.1046 66 64H62ZM16 14C14.8954 14 14 14.8954 14 16C14 17.1046 14.8954 18 16 18V14ZM64 18C65.1046 18 66 17.1046 66 16C66 14.8954 65.1046 14 64 14V18ZM18 16C18 14.8954 17.1046 14 16 14C14.8954 14 14 14.8954 14 16L18 16ZM14 64C14 65.1046 14.8954 66 16 66C17.1046 66 18 65.1046 18 64H14ZM38 16L38 64H42L42 16L38 16ZM16 42L64 42V38L16 38V42ZM16 66H64V62L16 62V66ZM62 16L62 64H66L66 16L62 16ZM16 18L64 18V14L16 14V18ZM14 16L14 64H18L18 16L14 16Z" fill="currentColor" />
</svg>