<svg viewBox="0 0 80 80" fill="none">
  <path fill-rule="evenodd" clip-rule="evenodd" d="M18 59.7764V65.7764C18 66.8809 18.8954 67.7764 20 67.7764H25C26.1046 67.7764 27 66.8809 27 65.7764V59.7764H18ZM53 59.7764V65.7764C53 66.8809 53.8954 67.7764 55 67.7764H60C61.1046 67.7764 62 66.8809 62 65.7764V59.7764H53Z" fill="currentColor" />
  <path opacity="0.5" fill-rule="evenodd" clip-rule="evenodd" d="M16 26.7764H12C10.8954 26.7764 10 27.6718 10 28.7764V36.7764C10 37.8809 10.8954 38.7764 12 38.7764H16V26.7764ZM64 38.7764H68C69.1046 38.7764 70 37.8809 70 36.7764V28.7764C70 27.6718 69.1046 26.7764 68 26.7764H64V38.7764Z" fill="currentColor" />
  <g opacity="0.25">
    <path fill-rule="evenodd" clip-rule="evenodd" d="M62.8701 17.0028C63.5651 17.3221 64 18.0229 64 18.7878V57.7765C64 58.881 63.1046 59.7765 62 59.7765H18C16.8954 59.7765 16 58.881 16 57.7765V18.7878C16 18.0229 16.4349 17.3222 17.1299 17.0028C17.3261 16.9126 17.523 16.8236 17.7205 16.7357C24.7331 13.6134 32.3237 12 40 12C47.6763 12 55.2669 13.6134 62.2795 16.7357C62.477 16.8236 62.6739 16.9126 62.8701 17.0028Z" fill="currentColor" />
  </g>
  <rect x="16" y="23.7764" width="48" height="18" fill="currentColor" />
  <g opacity="0.5">
    <rect x="22" y="47.7764" width="6" height="6" rx="3" fill="currentColor" stroke="currentColor" stroke-width="4" stroke-linecap="square" />
    <rect x="52" y="47.7764" width="6" height="6" rx="3" fill="currentColor" stroke="currentColor" stroke-width="4" stroke-linecap="square" />
  </g>
</svg>