<svg viewBox="0 0 80 80" fill="none">
  <path opacity="0.25" fill-rule="evenodd" clip-rule="evenodd" d="M56.0502 21.567C58.8879 23.1752 60.9654 25.856 61.8174 28.9771C62.5067 31.5022 62.3488 34.1869 61.389 36.6094C63.9806 36.9823 66.4041 38.171 68.2944 40.0265L68.3765 40.1071C70.6943 42.3822 72 45.4936 72 48.7413C72 51.9891 70.6943 55.1004 68.3765 57.3755L68.2944 57.4562C65.9809 59.727 62.8686 60.9993 59.6269 60.9993H59.5122H56.8094C56.8001 60.9999 56.7907 61.0003 56.7813 61.0003L23.2203 61.0003C23.218 61.0003 23.2157 61.0003 23.2133 61.0002H20.4878H20.3731C17.1314 61.0002 14.0191 59.728 11.7056 57.4571L11.6235 57.3764C9.30573 55.1014 8 51.99 8 48.7423C8 45.4945 9.30573 42.3831 11.6235 40.1081L11.7056 40.0274C13.596 38.1718 16.0198 36.983 18.6118 36.6103C17.6518 34.1876 17.4939 31.5028 18.1832 28.9776C19.0352 25.8564 21.1127 23.1757 23.9504 21.5675L24.0502 21.5109C26.8879 19.9027 30.2918 19.477 33.4715 20.3134C36.0487 20.9912 38.342 22.4719 40.0001 24.5049C41.6583 22.4717 43.9517 20.9908 46.5291 20.3129C49.7088 19.4766 53.1127 19.9022 55.9504 21.5104L56.0502 21.567Z" fill="currentColor" />
  <path fill-rule="evenodd" clip-rule="evenodd" d="M46.5292 20.3129C49.7089 19.4766 53.1127 19.9022 55.9504 21.5104L56.0503 21.567C58.888 23.1752 60.9655 25.856 61.8175 28.9771C62.5067 31.5023 62.3489 34.1869 61.389 36.6095C60.8087 36.526 60.22 36.4834 59.6269 36.4834H59.3975C56.1557 36.4834 53.0435 37.7556 50.73 40.0265L50.6479 40.1072C48.991 41.7335 47.8514 43.7872 47.3361 46.0125C46.2644 48.2278 44.5329 50.0966 42.3526 51.3323L42.2527 51.3889C39.415 52.9971 36.0111 53.4227 32.8314 52.5864C29.6488 51.7493 26.8991 49.6879 25.244 46.8738C23.5888 44.0598 23.1449 40.6916 23.9977 37.5676C24.8497 34.4464 26.9272 31.7657 29.7649 30.1575L29.8647 30.1009C32.2659 28.7401 35.0724 28.226 37.8055 28.6067C38.08 27.7124 38.4594 26.8454 38.9417 26.0255C40.5968 23.2114 43.3465 21.15 46.5292 20.3129Z" fill="currentColor" />
</svg>