<svg viewBox="0 0 80 80" fill="none">
  <g opacity="0.25">
    <path fill-rule="evenodd" clip-rule="evenodd" d="M39.6527 20C43.7409 20 47.7158 21.6394 50.6663 24.5164C53.6195 27.396 55.344 31.3432 55.4098 35.4347L55.4127 35.6119C57.9954 35.9886 60.4099 37.1758 62.2944 39.0255L62.3765 39.1062C64.6943 41.3813 66 44.4926 66 47.7404C66 50.9881 64.6943 54.0995 62.3765 56.3746L62.2944 56.4552C59.9809 58.7261 56.8686 59.9983 53.6269 59.9983H53.5122H49.7896C49.7804 59.9994 49.7709 60 49.7614 60L31.8603 60C31.8386 60.0002 31.8168 60.0003 31.7951 60.0003H31.6604H26.4878H26.3731C23.1314 60.0003 20.0191 58.728 17.7056 56.4572L17.6235 56.3765C15.3057 54.1014 14 50.9901 14 47.7423C14 44.4946 15.3057 41.3832 17.6235 39.1081L17.7056 39.0275C19.5083 37.258 21.796 36.0948 24.2521 35.6675L24.2483 35.4347C24.1825 31.3432 25.78 27.396 28.6405 24.5164C31.4985 21.6394 35.4206 20 39.5088 20H39.6527Z" fill="currentColor" />
  </g>
  <path fill-rule="evenodd" clip-rule="evenodd" d="M39.5088 20C35.4205 20 31.4984 21.6394 28.6405 24.5164C25.7799 27.396 24.1825 31.3432 24.2483 35.4347C24.3141 39.5262 26.0386 43.4734 28.9918 46.3531C31.9423 49.23 35.9172 50.8694 40.0054 50.8694H40.1493C40.5757 50.8694 41.0002 50.8516 41.4219 50.8164C41.1602 49.8209 41.0244 48.7877 41.0244 47.7404C41.0244 44.4926 42.3301 41.3813 44.6478 39.1062L44.73 39.0255C47.0434 36.7547 50.1557 35.4824 53.3975 35.4824H53.6269C54.2276 35.4824 54.824 35.5261 55.4116 35.6118C55.4114 35.5528 55.4107 35.4938 55.4098 35.4347C55.344 31.3432 53.6195 27.396 50.6662 24.5164C47.7157 21.6394 43.7409 20 39.6527 20H39.5088Z" fill="currentColor" />
</svg>