<svg viewBox="0 0 80 80" fill="none">
  <path fill-rule="evenodd" clip-rule="evenodd" d="M24.0741 29.4968C24.3757 29.932 24.8744 30.1882 25.4038 30.18L30.2495 30.1042C30.7552 30.0963 31.2269 29.848 31.5195 29.4355L33.7277 26.3231C34.1147 25.7776 34.8041 25.5277 35.4384 25.7397C37.9724 26.5867 40.3264 27.9017 42.3755 29.6138C42.9141 30.0637 43.0477 30.8274 42.7356 31.4559L41.1222 34.704C40.8856 35.1804 40.9032 35.7435 41.1692 36.2041L43.422 40.1062C43.6879 40.5668 44.1668 40.8636 44.6976 40.8969L48.3151 41.1236C49.0157 41.1675 49.6103 41.6653 49.7305 42.3568C50.188 44.9878 50.1491 47.6841 49.6148 50.3021C49.4811 50.9573 48.9201 51.4292 48.2543 51.4916L44.4578 51.8474C43.9542 51.8946 43.5032 52.1789 43.2436 52.6129L40.7559 56.7703C40.484 57.2247 40.4565 57.7847 40.6826 58.2634L42.1951 61.4664C42.4898 62.0905 42.3511 62.8379 41.8232 63.2825C39.7876 64.9971 37.4633 66.3392 34.9609 67.2454C34.3118 67.4804 33.595 67.2268 33.2019 66.6595L31.1842 63.748C30.8826 63.3128 30.3839 63.0566 29.8545 63.0649L25.0096 63.1406C24.5039 63.1485 24.0322 63.3969 23.7395 63.8094L21.5317 66.9213C21.1447 67.4667 20.4557 67.7166 19.8214 67.5049C17.2871 66.6588 14.9326 65.3447 12.8828 63.6334C12.344 63.1835 12.2101 62.4196 12.5224 61.7909L14.1359 58.5424C14.3725 58.0661 14.3549 57.5029 14.089 57.0423L11.8355 53.1392C11.5696 52.6786 11.0907 52.3817 10.5599 52.3485L6.93769 52.1215C6.23725 52.0776 5.64268 51.5799 5.52234 50.8884C5.06451 48.2579 5.10296 45.562 5.63659 42.9443C5.77018 42.2889 6.33128 41.8169 6.99717 41.7545L10.7991 41.3982C11.3026 41.351 11.7536 41.0667 12.0133 40.6327L14.502 36.4735C14.7739 36.0191 14.8014 35.4591 14.5753 34.9804L13.0606 31.7728C12.7659 31.1486 12.9046 30.401 13.4327 29.9565C15.4684 28.2426 17.7926 26.9011 20.2949 25.9954C20.9439 25.7605 21.6605 26.0142 22.0536 26.5814L24.0741 29.4968ZM27.6281 38.3843C24.6975 38.4301 21.999 39.988 20.4941 42.5031L20.3588 42.7291C18.8647 45.2262 18.8404 48.3367 20.2953 50.8568C21.7503 53.3769 24.4562 54.9111 27.3658 54.8656L27.6292 54.8615C30.5598 54.8157 33.2583 53.2577 34.7632 50.7427L34.8985 50.5166C36.3927 48.0195 36.417 44.909 34.962 42.389C33.507 39.8689 30.8011 38.3347 27.8915 38.3801L27.6281 38.3843Z" fill="currentColor" />
  <g opacity="0.5">
    <path fill-rule="evenodd" clip-rule="evenodd" d="M72.7394 23.8753C72.4437 24.079 72.2674 24.4153 72.268 24.7743L72.2732 28.1526C72.2738 28.51 72.4495 28.8444 72.7436 29.0475L74.8051 30.4714C75.1943 30.7402 75.3693 31.2308 75.2097 31.676C74.5928 33.3971 73.6734 34.9964 72.4961 36.3944C72.1899 36.7579 71.6747 36.852 71.2459 36.6471L68.9949 35.5714C68.6708 35.4166 68.2913 35.4313 67.9802 35.6109L65.0752 37.2881C64.7642 37.4677 64.5616 37.789 64.5337 38.1471L64.3398 40.6331C64.3029 41.107 63.9636 41.5062 63.4957 41.5894C61.6962 41.9097 59.8513 41.9059 58.0523 41.5791C57.5871 41.4946 57.2499 41.0978 57.2117 40.6265L57.0094 38.1308C56.9805 37.7746 56.7788 37.4552 56.4696 37.276L53.5472 35.5828C53.2366 35.4028 52.8573 35.3874 52.533 35.5415L50.2917 36.6072C49.863 36.811 49.3486 36.7163 49.0429 36.3532C47.866 34.9559 46.9438 33.3588 46.3218 31.6411C46.1601 31.1947 46.3353 30.7018 46.7262 30.4324L48.7697 29.0242C49.0653 28.8205 49.2416 28.4843 49.2411 28.1253L49.2359 24.7473C49.2353 24.3899 49.0595 24.0555 48.7655 23.8524L46.7042 22.4286C46.3151 22.1599 46.1401 21.6695 46.2995 21.2243C46.9158 19.503 47.8347 17.9035 49.0116 16.5051C49.3177 16.1415 49.8331 16.0472 50.262 16.2522L52.5131 17.3279C52.8372 17.4827 53.2167 17.468 53.5277 17.2884L56.4337 15.6106C56.7447 15.4311 56.9473 15.1097 56.9752 14.7517L57.1693 12.263C57.2062 11.7892 57.5454 11.3901 58.0133 11.3067C59.8126 10.9863 61.6572 10.9898 63.456 11.3163C63.9213 11.4008 64.2586 11.7976 64.2969 12.2689L64.4994 14.7677C64.5283 15.1239 64.73 15.4433 65.0392 15.6224L67.9628 17.3164C68.2734 17.4964 68.6527 17.5118 68.9769 17.3577L71.2208 16.2908C71.6496 16.0869 72.1641 16.1817 72.4698 16.5449C73.6462 17.9423 74.5681 19.5393 75.1898 21.2569C75.3514 21.7033 75.1762 22.1961 74.7853 22.4655L72.7394 23.8753ZM66.5121 26.4586C66.509 24.4023 65.4046 22.4895 63.6254 21.4586C61.8475 20.4284 59.6469 20.4222 57.8674 21.4496C56.0878 22.477 54.9929 24.3859 54.9961 26.4407C54.9993 28.497 56.1036 30.4098 57.8828 31.4407C59.6607 32.4709 61.8613 32.477 63.6409 31.4496C65.4204 30.4222 66.5153 28.5134 66.5121 26.4586Z" fill="currentColor" />
  </g>
</svg>