<svg viewBox="0 0 80 80" fill="none">
  <g opacity="0.25">
    <path fill-rule="evenodd" clip-rule="evenodd" d="M17.1894 52.3071C16.7399 51.4874 16.3331 50.6401 15.9719 49.7681C13.3464 43.4296 13.3464 36.3077 15.9719 29.9691C18.5975 23.6306 23.6334 18.5946 29.9719 15.9691C36.3105 13.3436 43.4324 13.3436 49.7709 15.9691C56.1095 18.5946 61.1454 23.6306 63.7709 29.9691C66.3964 36.3077 66.3964 43.4296 63.7709 49.7681C61.1454 56.1067 56.1095 61.1426 49.7709 63.7681C43.4324 66.3936 36.3105 66.3936 29.9719 63.7681C29.0985 63.4063 28.2498 62.9988 27.4287 62.5483L13 66.7373L17.1894 52.3071Z" fill="currentColor" />
    <path d="M15.9719 49.7681L17.3578 49.1941L15.9719 49.7681ZM17.1894 52.3071L18.6299 52.7253C18.7407 52.3439 18.6956 51.9342 18.5047 51.5859L17.1894 52.3071ZM15.9719 29.9691L17.3578 30.5432L15.9719 29.9691ZM29.9719 15.9691L30.546 17.355L30.546 17.355L29.9719 15.9691ZM49.7709 15.9691L49.1969 17.355V17.355L49.7709 15.9691ZM63.7709 29.9691L62.3851 30.5432L63.7709 29.9691ZM63.7709 49.7681L62.3851 49.1941L63.7709 49.7681ZM49.7709 63.7681L50.345 65.1539L49.7709 63.7681ZM29.9719 63.7681L30.546 62.3823H30.546L29.9719 63.7681ZM27.4287 62.5483L28.1502 61.2332C27.8019 61.0421 27.392 60.997 27.0105 61.1078L27.4287 62.5483ZM13 66.7373L11.5595 66.3191C11.407 66.8444 11.5525 67.4111 11.9393 67.798C12.3262 68.1848 12.8929 68.3303 13.4182 68.1778L13 66.7373ZM14.5861 50.3421C14.9682 51.2646 15.3986 52.161 15.8742 53.0283L18.5047 51.5859C18.0812 50.8137 17.698 50.0155 17.3578 49.1941L14.5861 50.3421ZM14.5861 29.3951C11.8084 36.1012 11.8084 43.6361 14.5861 50.3421L17.3578 49.1941C14.8845 43.2231 14.8845 36.5142 17.3578 30.5432L14.5861 29.3951ZM29.3979 14.5833C22.6918 17.3611 17.3639 22.689 14.5861 29.3951L17.3578 30.5432C19.831 24.5722 24.575 19.8282 30.546 17.355L29.3979 14.5833ZM50.345 14.5833C43.6389 11.8056 36.104 11.8056 29.3979 14.5833L30.546 17.355C36.517 14.8817 43.2259 14.8817 49.1969 17.355L50.345 14.5833ZM65.1567 29.3951C62.379 22.689 57.051 17.3611 50.345 14.5833L49.1969 17.355C55.1679 19.8282 59.9118 24.5722 62.3851 30.5432L65.1567 29.3951ZM65.1567 50.3421C67.9345 43.6361 67.9345 36.1012 65.1567 29.3951L62.3851 30.5432C64.8584 36.5142 64.8584 43.2231 62.3851 49.1941L65.1567 50.3421ZM50.345 65.1539C57.051 62.3762 62.379 57.0482 65.1567 50.3421L62.3851 49.1941C59.9118 55.1651 55.1679 59.909 49.1969 62.3823L50.345 65.1539ZM29.3979 65.1539C36.104 67.9317 43.6389 67.9317 50.345 65.1539L49.1969 62.3823C43.2259 64.8556 36.517 64.8556 30.546 62.3823L29.3979 65.1539ZM26.7072 63.8634C27.576 64.34 28.4739 64.7712 29.3979 65.1539L30.546 62.3823C29.7231 62.0415 28.9236 61.6575 28.1502 61.2332L26.7072 63.8634ZM27.0105 61.1078L12.5818 65.2968L13.4182 68.1778L27.8469 63.9888L27.0105 61.1078ZM14.4405 67.1555L18.6299 52.7253L15.7489 51.8889L11.5595 66.3191L14.4405 67.1555Z" fill="currentColor" />
  </g>
  <path d="M25.5552 46.2128C27.2378 50.275 30.4651 53.5023 34.5272 55.1849C38.5893 56.8675 43.1535 56.8675 47.2156 55.1849C51.2777 53.5023 54.5051 50.275 56.1877 46.2128C57.8703 42.1507 57.8703 37.5866 56.1877 33.5245C54.5051 29.4623 51.2777 26.235 47.2156 24.5524C43.1535 22.8698 38.5893 22.8698 34.5272 24.5524C30.4651 26.235 27.2378 29.4623 25.5552 33.5245C23.8726 37.5866 23.8726 42.1507 25.5552 46.2128Z" fill="currentColor" />
</svg>