<svg viewBox="0 0 80 80" fill="none">
  <path opacity="0.25" fill-rule="evenodd" clip-rule="evenodd" d="M39.9442 22.0002C39.5918 22.0006 39.25 21.9554 38.9243 21.8703L33.6116 40.637L23.9967 25.3512C23.899 25.4107 23.798 25.4664 23.6937 25.5182L23.6034 25.5633C22.8227 25.9548 21.975 26.0667 21.1741 25.937L21.3521 44.2367L14.443 38.1313C13.9212 39.0111 13.0716 39.6742 12.0615 39.9514L18.2508 59H61.7493L67.9382 39.9525C66.9274 39.6763 66.0768 39.0137 65.5542 38.134L58.648 44.2367L58.826 25.9363C58.0238 26.0672 57.1743 25.9555 56.3922 25.5633L56.3019 25.5182C56.1988 25.467 56.0988 25.4119 56.0022 25.3532L46.3886 40.637L41.0755 21.8691C40.7486 21.955 40.4053 22.0006 40.0514 22.0002L39.9978 22.0001L39.9442 22.0002Z" fill="currentColor" />
  <rect x="16" y="59" width="48" height="8" rx="2" fill="currentColor" />
  <path fill-rule="evenodd" clip-rule="evenodd" d="M39.9978 14L39.9344 14C37.7252 14.0028 35.9366 15.7958 35.9393 18.0049C35.942 20.2141 37.7351 22.0027 39.9442 22L39.9978 22L40.0513 22C42.2605 22.0027 44.0535 20.2141 44.0563 18.0049C44.059 15.7958 42.2703 14.0028 40.0612 14L39.9978 14ZM23.6937 25.5181C25.6721 24.5352 26.4792 22.1346 25.4963 20.1562C24.5134 18.1777 22.1128 17.3706 20.1344 18.3535L20.0174 18.4119C18.0426 19.4021 17.2445 21.8057 18.2348 23.7805C19.225 25.7553 21.6286 26.5534 23.6034 25.5632L23.6937 25.5181ZM59.8612 18.3535C57.8827 17.3706 55.4821 18.1777 54.4992 20.1562C53.5164 22.1346 54.3234 24.5352 56.3019 25.5181L56.3922 25.5632C58.3669 26.5534 60.7705 25.7553 61.7608 23.7805C62.751 21.8057 61.9529 19.4021 59.9782 18.4119L59.8612 18.3535ZM15.0001 35.9971C15.0114 33.788 13.2297 31.9881 11.0205 31.9768C8.81144 31.9655 7.01147 33.7472 7.0002 35.9564L7 36.0352L7.0002 36.114C7.01147 38.3231 8.81144 40.1048 11.0205 40.0936C13.2297 40.0823 15.0114 38.2823 15.0001 36.0732L15 36.0352L15.0001 35.9971ZM72.9953 35.9564C72.9841 33.7472 71.1841 31.9655 68.975 31.9768C66.7659 31.9881 64.9842 33.788 64.9955 35.9971L64.9955 36.0352L64.9955 36.0732C64.9842 38.2823 66.7659 40.0823 68.975 40.0936C71.1841 40.1048 72.9841 38.3231 72.9953 36.114L72.9955 36.0352L72.9953 35.9564Z" fill="currentColor" />
  <path d="M39.9344 14L39.9335 12.5L39.9325 12.5L39.9344 14ZM39.9978 14L39.9987 12.5L39.9969 12.5L39.9978 14ZM35.9393 18.0049L34.4393 18.0068L35.9393 18.0049ZM39.9442 22L39.9433 20.5L39.9424 20.5L39.9442 22ZM39.9978 22L39.9987 20.5L39.9969 20.5L39.9978 22ZM40.0513 22L40.0532 20.5L40.0523 20.5L40.0513 22ZM44.0563 18.0049L45.5563 18.0068L44.0563 18.0049ZM40.0612 14L40.063 12.5L40.0621 12.5L40.0612 14ZM23.6937 25.5181L23.0263 24.1747L23.0238 24.176L23.6937 25.5181ZM20.1344 18.3535L19.467 17.0101L19.4645 17.0114L20.1344 18.3535ZM20.0174 18.4119L19.3475 17.0698L19.345 17.071L20.0174 18.4119ZM18.2348 23.7805L19.5756 23.1081V23.1081L18.2348 23.7805ZM23.6034 25.5632L22.9335 24.221L22.931 24.2223L23.6034 25.5632ZM59.8612 18.3535L60.5311 17.0114L60.5285 17.0101L59.8612 18.3535ZM56.3019 25.5181L56.9718 24.176L56.9693 24.1747L56.3019 25.5181ZM56.3922 25.5632L57.0645 24.2223L57.062 24.221L56.3922 25.5632ZM59.9782 18.4119L60.6505 17.071L60.648 17.0698L59.9782 18.4119ZM11.0205 31.9768L11.0282 30.4768H11.0282L11.0205 31.9768ZM15.0001 35.9971L13.5001 35.9895L13.5001 35.9933L15.0001 35.9971ZM7.0002 35.9564L5.50022 35.9487L5.50021 35.9525L7.0002 35.9564ZM7 36.0352L5.49999 36.0314L5.5 36.039L7 36.0352ZM7.0002 36.114L5.5002 36.1178L5.50022 36.1217L7.0002 36.114ZM11.0205 40.0936L11.0129 38.5936L11.0205 40.0936ZM15.0001 36.0732L13.5001 36.0771L13.5001 36.0809L15.0001 36.0732ZM15 36.0352L13.5 36.0313L13.5 36.039L15 36.0352ZM68.975 31.9768L68.9674 30.4768L68.975 31.9768ZM72.9953 35.9564L74.4953 35.9526L74.4953 35.9487L72.9953 35.9564ZM64.9955 35.9971L66.4955 35.9934L66.4954 35.9895L64.9955 35.9971ZM64.9955 36.0352L66.4956 36.0389L66.4955 36.0314L64.9955 36.0352ZM64.9955 36.0732L66.4954 36.0809L66.4954 36.077L64.9955 36.0732ZM72.9953 36.114L74.4953 36.1217L74.4953 36.1178L72.9953 36.114ZM72.9955 36.0352L74.4956 36.039L74.4955 36.0314L72.9955 36.0352ZM39.9353 15.5L39.9987 15.5L39.9969 12.5L39.9335 12.5L39.9353 15.5ZM37.4393 18.0031C37.4376 16.6224 38.5555 15.5017 39.9362 15.5L39.9325 12.5C36.895 12.5038 34.4356 14.9692 34.4393 18.0068L37.4393 18.0031ZM39.9424 20.5C38.5617 20.5017 37.441 19.3838 37.4393 18.0031L34.4393 18.0068C34.443 21.0444 36.9085 23.5038 39.946 23.5L39.9424 20.5ZM39.9969 20.5L39.9433 20.5L39.9451 23.5L39.9987 23.5L39.9969 20.5ZM40.0523 20.5L39.9987 20.5L39.9969 23.5L40.0504 23.5L40.0523 20.5ZM42.5563 18.0031C42.5546 19.3838 41.4339 20.5017 40.0532 20.5L40.0495 23.5C43.0871 23.5038 45.5525 21.0444 45.5563 18.0068L42.5563 18.0031ZM40.0593 15.5C41.44 15.5017 42.5579 16.6224 42.5563 18.0031L45.5563 18.0068C45.56 14.9692 43.1006 12.5038 40.063 12.5L40.0593 15.5ZM39.9969 15.5L40.0602 15.5L40.0621 12.5L39.9987 12.5L39.9969 15.5ZM24.153 20.8235C24.7672 22.0601 24.2628 23.5604 23.0263 24.1747L24.361 26.8615C27.0814 25.51 28.1911 22.2092 26.8397 19.4888L24.153 20.8235ZM20.8017 19.6969C22.0383 19.0826 23.5387 19.587 24.153 20.8235L26.8397 19.4888C25.4882 16.7684 22.1874 15.6587 19.467 17.0101L20.8017 19.6969ZM20.6873 19.754L20.8042 19.6956L19.4645 17.0114L19.3475 17.0698L20.6873 19.754ZM19.5756 23.1081C18.9567 21.8739 19.4555 20.3716 20.6898 19.7527L19.345 17.071C16.6297 18.4326 15.5323 21.7376 16.8939 24.4529L19.5756 23.1081ZM22.931 24.2223C21.6968 24.8412 20.1945 24.3424 19.5756 23.1081L16.8939 24.4529C18.2555 27.1682 21.5605 28.2656 24.2758 26.904L22.931 24.2223ZM23.0238 24.176L22.9335 24.221L24.2733 26.9053L24.3635 26.8602L23.0238 24.176ZM55.8426 20.8235C56.4569 19.587 57.9573 19.0826 59.1938 19.6969L60.5285 17.0101C57.8082 15.6587 54.5073 16.7684 53.1559 19.4888L55.8426 20.8235ZM56.9693 24.1747C55.7327 23.5604 55.2283 22.0601 55.8426 20.8235L53.1559 19.4888C51.8044 22.2092 52.9142 25.51 55.6345 26.8615L56.9693 24.1747ZM57.062 24.221L56.9718 24.176L55.632 26.8602L55.7223 26.9053L57.062 24.221ZM60.4199 23.1081C59.801 24.3424 58.2988 24.8412 57.0645 24.2223L55.7198 26.904C58.4351 28.2656 61.7401 27.1682 63.1017 24.4529L60.4199 23.1081ZM59.3058 19.7527C60.54 20.3717 61.0388 21.8739 60.4199 23.1081L63.1017 24.4529C64.4632 21.7376 63.3658 18.4326 60.6505 17.071L59.3058 19.7527ZM59.1913 19.6956L59.3083 19.754L60.648 17.0698L60.5311 17.0114L59.1913 19.6956ZM11.0129 33.4768C12.3936 33.4838 13.5072 34.6088 13.5001 35.9895L16.5001 36.0048C16.5156 32.9673 14.0657 30.4923 11.0282 30.4768L11.0129 33.4768ZM8.50018 35.964C8.50722 34.5833 9.6322 33.4697 11.0129 33.4768L11.0282 30.4768C7.99067 30.4613 5.51571 32.9112 5.50022 35.9487L8.50018 35.964ZM8.5 36.039L8.5002 35.9602L5.50021 35.9525L5.5 36.0314L8.5 36.039ZM8.5002 36.1102L8.5 36.0314L5.5 36.039L5.50021 36.1178L8.5002 36.1102ZM11.0129 38.5936C9.6322 38.6006 8.50722 37.4871 8.50018 36.1064L5.50022 36.1217C5.51571 39.1592 7.99067 41.609 11.0282 41.5935L11.0129 38.5936ZM13.5001 36.0809C13.5072 37.4616 12.3936 38.5865 11.0129 38.5936L11.0282 41.5935C14.0657 41.5781 16.5156 39.1031 16.5001 36.0656L13.5001 36.0809ZM13.5 36.039L13.5001 36.0771L16.5001 36.0694L16.5 36.0313L13.5 36.039ZM13.5001 35.9933L13.5 36.0313L16.5 36.039L16.5001 36.001L13.5001 35.9933ZM68.9827 33.4768C70.3633 33.4697 71.4883 34.5833 71.4954 35.964L74.4953 35.9487C74.4798 32.9112 72.0049 30.4613 68.9674 30.4768L68.9827 33.4768ZM66.4954 35.9895C66.4884 34.6088 67.602 33.4838 68.9827 33.4768L68.9674 30.4768C65.9298 30.4923 63.48 32.9673 63.4955 36.0048L66.4954 35.9895ZM66.4955 36.0314L66.4954 35.9934L63.4955 36.0009L63.4956 36.0389L66.4955 36.0314ZM66.4954 36.077L66.4955 36.0389L63.4956 36.0314L63.4955 36.0695L66.4954 36.077ZM68.9827 38.5936C67.602 38.5865 66.4884 37.4616 66.4954 36.0809L63.4955 36.0656C63.48 39.1031 65.9298 41.5781 68.9674 41.5935L68.9827 38.5936ZM71.4954 36.1064C71.4883 37.4871 70.3633 38.6006 68.9827 38.5936L68.9674 41.5935C72.0049 41.609 74.4798 39.1592 74.4953 36.1217L71.4954 36.1064ZM71.4956 36.0314L71.4954 36.1102L74.4953 36.1178L74.4955 36.039L71.4956 36.0314ZM71.4954 35.9601L71.4956 36.039L74.4955 36.0314L74.4953 35.9526L71.4954 35.9601Z" fill="currentColor" />
</svg>