<svg viewBox="0 0 80 80" fill="none">
  <path opacity="0.25" fill-rule="evenodd" clip-rule="evenodd" d="M31.0001 58V64C31.0001 65.6569 32.3433 67 34.0001 67H46.0001C47.657 67 49.0001 65.6569 49.0001 64L49.0001 58V49.4999C49.0001 49.2238 49.2239 49 49.5 49H50H50.5H51H58H64C65.6569 49 67 47.6569 67 46V34C67 32.3431 65.6569 31 64 31H58H51H50.5H50H49.5C49.2239 31 49.0001 30.7761 49.0001 30.5V30V29.5V29V22L49.0001 16C49.0001 14.3431 47.657 13 46.0001 13L34.0001 13C32.3433 13 31.0001 14.3431 31.0001 16V22L31.0001 29V29.5V30V30.5V30.9999C31.0001 31 31.0001 31 31 31L22 31H16C14.3431 31 13 32.3431 13 34L13 46C13 47.6569 14.3431 49 16 49H22L31 49C31.0001 49 31.0001 49 31.0001 49.0001V58Z" fill="currentColor" />
  <circle cx="40" cy="40" r="4" fill="currentColor" />
  <path d="M43.9893 22L35.9893 22L36.9893 21L39.9893 18L42.9893 21L43.9893 22Z" fill="currentColor" />
  <path d="M58 43.9893L58 35.9893L59 36.9893L62 39.9893L59 42.9893L58 43.9893Z" fill="currentColor" />
  <path d="M43.9893 58L35.9893 58L36.9893 59L39.9893 62L42.9893 59L43.9893 58Z" fill="currentColor" />
  <path d="M22 43.9893L22 35.9893L21 36.9893L18 39.9893L21 42.9893L22 43.9893Z" fill="currentColor" />
</svg>