<svg viewBox="0 0 80 80" fill="none">
  <path opacity="0.25" d="M8 24C8 22.8954 8.89543 22 10 22H70C71.1046 22 72 22.8954 72 24V56C72 57.1046 71.1046 58 70 58H10C8.89543 58 8 57.1046 8 56V24Z" fill="currentColor" stroke="currentColor" stroke-width="3" stroke-linecap="round" stroke-linejoin="round" />
  <path fill-rule="evenodd" clip-rule="evenodd" d="M17.9451 22H10C8.89543 22 8 22.8954 8 24V31.9451C8.32833 31.9814 8.66199 32 9 32C13.9706 32 18 27.9706 18 23C18 22.662 17.9814 22.3283 17.9451 22ZM17.9451 58H10C8.89543 58 8 57.1046 8 56V48.0549C8.32833 48.0186 8.66199 48 9 48C13.9706 48 18 52.0294 18 57C18 57.338 17.9814 57.6717 17.9451 58ZM72 48.0549V56C72 57.1046 71.1046 58 70 58H62.0549C62.0186 57.6717 62 57.338 62 57C62 52.0294 66.0294 48 71 48C71.338 48 71.6717 48.0186 72 48.0549ZM62.0549 22H70C71.1046 22 72 22.8954 72 24V31.9451C71.6717 31.9814 71.338 32 71 32C66.0294 32 62 27.9706 62 23C62 22.662 62.0186 22.3283 62.0549 22Z" fill="currentColor" />
  <path d="M17.9451 22L19.436 21.8352C19.352 21.0752 18.7097 20.5 17.9451 20.5V22ZM8 31.9451H6.5C6.5 32.7097 7.07517 33.352 7.83519 33.436L8 31.9451ZM17.9451 58V59.5C18.7097 59.5 19.352 58.9248 19.436 58.1648L17.9451 58ZM8 48.0549L7.83519 46.564C7.07517 46.648 6.5 47.2903 6.5 48.0549H8ZM72 48.0549H73.5C73.5 47.2903 72.9248 46.648 72.1648 46.564L72 48.0549ZM62.0549 58L60.564 58.1648C60.648 58.9248 61.2903 59.5 62.0549 59.5V58ZM62.0549 22V20.5C61.2903 20.5 60.648 21.0752 60.564 21.8352L62.0549 22ZM72 31.9451L72.1648 33.436C72.9248 33.352 73.5 32.7097 73.5 31.9451H72ZM10 23.5H17.9451V20.5H10V23.5ZM9.5 24C9.5 23.7239 9.72386 23.5 10 23.5V20.5C8.067 20.5 6.5 22.067 6.5 24H9.5ZM9.5 31.9451V24H6.5V31.9451H9.5ZM7.83519 33.436C8.21814 33.4783 8.60682 33.5 9 33.5V30.5C8.71716 30.5 8.43852 30.4844 8.16481 30.4542L7.83519 33.436ZM9 33.5C14.799 33.5 19.5 28.799 19.5 23H16.5C16.5 27.1421 13.1421 30.5 9 30.5V33.5ZM19.5 23C19.5 22.6068 19.4783 22.2181 19.436 21.8352L16.4542 22.1648C16.4844 22.4385 16.5 22.7172 16.5 23H19.5ZM17.9451 56.5H10V59.5H17.9451V56.5ZM10 56.5C9.72386 56.5 9.5 56.2761 9.5 56H6.5C6.5 57.933 8.067 59.5 10 59.5V56.5ZM9.5 56V48.0549H6.5V56H9.5ZM8.16481 49.5458C8.43853 49.5156 8.71717 49.5 9 49.5V46.5C8.60682 46.5 8.21814 46.5217 7.83519 46.564L8.16481 49.5458ZM9 49.5C13.1421 49.5 16.5 52.8579 16.5 57H19.5C19.5 51.201 14.799 46.5 9 46.5V49.5ZM16.5 57C16.5 57.2828 16.4844 57.5615 16.4542 57.8352L19.436 58.1648C19.4783 57.7819 19.5 57.3932 19.5 57H16.5ZM70.5 48.0549V56H73.5V48.0549H70.5ZM70.5 56C70.5 56.2761 70.2761 56.5 70 56.5V59.5C71.933 59.5 73.5 57.933 73.5 56H70.5ZM70 56.5H62.0549V59.5H70V56.5ZM63.5458 57.8352C63.5156 57.5615 63.5 57.2828 63.5 57H60.5C60.5 57.3932 60.5217 57.7818 60.564 58.1648L63.5458 57.8352ZM63.5 57C63.5 52.8579 66.8579 49.5 71 49.5V46.5C65.201 46.5 60.5 51.201 60.5 57H63.5ZM71 49.5C71.2828 49.5 71.5615 49.5156 71.8352 49.5458L72.1648 46.564C71.7819 46.5217 71.3932 46.5 71 46.5V49.5ZM62.0549 23.5H70V20.5H62.0549V23.5ZM70 23.5C70.2761 23.5 70.5 23.7239 70.5 24H73.5C73.5 22.067 71.933 20.5 70 20.5V23.5ZM70.5 24V31.9451H73.5V24H70.5ZM71.8352 30.4542C71.5615 30.4844 71.2828 30.5 71 30.5V33.5C71.3932 33.5 71.7819 33.4783 72.1648 33.436L71.8352 30.4542ZM71 30.5C66.8579 30.5 63.5 27.1421 63.5 23H60.5C60.5 28.799 65.201 33.5 71 33.5V30.5ZM63.5 23C63.5 22.7172 63.5156 22.4385 63.5458 22.1648L60.564 21.8352C60.5217 22.2181 60.5 22.6068 60.5 23H63.5Z" fill="currentColor" />
  <path d="M35.4751 31.66C38.2776 29.5026 42.1814 29.5026 44.9839 31.66C46.9007 33.1355 48.0237 35.4173 48.0237 37.8362V42.1638C48.0237 44.5827 46.9007 46.8645 44.9839 48.34C42.1814 50.4974 38.2776 50.4974 35.4751 48.34C33.5583 46.8645 32.4353 44.5827 32.4353 42.1638V37.8362C32.4353 35.4173 33.5583 33.1355 35.4751 31.66Z" fill="currentColor" />
  <path d="M19.4152 37.22C20.3494 36.5009 21.6506 36.5009 22.5848 37.22C23.2237 37.7118 23.5981 38.4724 23.5981 39.2787V40.7213C23.5981 41.5276 23.2237 42.2882 22.5848 42.78C21.6506 43.4991 20.3494 43.4991 19.4152 42.78C18.7763 42.2882 18.4019 41.5276 18.4019 40.7213V39.2787C18.4019 38.4724 18.7763 37.7118 19.4152 37.22Z" fill="currentColor" />
  <path d="M57.4152 37.22C58.3494 36.5009 59.6506 36.5009 60.5848 37.22C61.2237 37.7118 61.5981 38.4724 61.5981 39.2787V40.7213C61.5981 41.5276 61.2237 42.2882 60.5848 42.78C59.6506 43.4991 58.3494 43.4991 57.4152 42.78C56.7763 42.2882 56.4019 41.5276 56.4019 40.7213V39.2787C56.4019 38.4724 56.7763 37.7118 57.4152 37.22Z" fill="currentColor" />
</svg>