<svg viewBox="0 0 80 80" fill="none">
  <path opacity="0.25" d="M8 28C8 26.8954 8.89543 26 10 26H14.5165C21.4758 26 28.4053 25.0919 35.1295 23.2988L44.8705 20.7012C51.5947 18.9081 58.5242 18 65.4835 18H70C71.1046 18 72 18.8954 72 20V52C72 53.1046 71.1046 54 70 54H65.4835C58.5242 54 51.5947 54.9081 44.8705 56.7012L35.1295 59.2988C28.4053 61.0919 21.4758 62 14.5165 62H10C8.89543 62 8 61.1046 8 60V28Z" fill="currentColor" stroke="currentColor" stroke-width="3" stroke-linecap="round" stroke-linejoin="round" />
  <path fill-rule="evenodd" clip-rule="evenodd" d="M8 35.9451V28C8 26.8954 8.89543 26 10 26H14.5165C15.6576 26 16.7979 25.9756 17.9367 25.9269C17.9785 26.2787 18 26.6369 18 27C18 31.9706 13.9706 36 9 36C8.66199 36 8.32833 35.9814 8 35.9451ZM17.9529 61.9262C16.8088 61.9753 15.663 62 14.5165 62H10C8.89543 62 8 61.1046 8 60V52.0549C8.32833 52.0186 8.66199 52 9 52C13.9706 52 18 56.0294 18 61C18 61.3127 17.9841 61.6217 17.9529 61.9262ZM72 44.0549V52C72 53.1046 71.1046 54 70 54H65.4835C64.3424 54 63.2021 54.0244 62.0633 54.0731C62.0215 53.7213 62 53.3631 62 53C62 48.0294 66.0294 44 71 44C71.338 44 71.6717 44.0186 72 44.0549ZM72 27.9451C71.6717 27.9814 71.338 28 71 28C66.0294 28 62 23.9706 62 19C62 18.6873 62.0159 18.3783 62.0471 18.0738C63.1912 18.0246 64.337 18 65.4835 18H70C71.1046 18 72 18.8954 72 20V27.9451Z" fill="currentColor" />
  <path d="M8 35.9451H6.5C6.5 36.7097 7.07517 37.352 7.83519 37.436L8 35.9451ZM17.9367 25.9269L19.4262 25.7499C19.3336 24.9708 18.6564 24.3947 17.8726 24.4282L17.9367 25.9269ZM17.9529 61.9262L18.0174 63.4248C18.7615 63.3928 19.3694 62.8196 19.4451 62.0787L17.9529 61.9262ZM8 52.0549L7.83518 50.564C7.07517 50.648 6.5 51.2903 6.5 52.0549H8ZM72 44.0549H73.5C73.5 43.2903 72.9248 42.648 72.1648 42.564L72 44.0549ZM62.0633 54.0731L60.5738 54.2501C60.6664 55.0292 61.3436 55.6053 62.1274 55.5718L62.0633 54.0731ZM72 27.9451L72.1648 29.436C72.9248 29.352 73.5 28.7097 73.5 27.9451H72ZM62.0471 18.0738L61.9826 16.5752C61.2385 16.6072 60.6306 17.1804 60.5548 17.9213L62.0471 18.0738ZM9.5 35.9451V28H6.5V35.9451H9.5ZM9.5 28C9.5 27.7239 9.72386 27.5 10 27.5V24.5C8.067 24.5 6.5 26.067 6.5 28H9.5ZM10 27.5H14.5165V24.5H10V27.5ZM14.5165 27.5C15.679 27.5 16.8407 27.4751 18.0008 27.4255L17.8726 24.4282C16.7552 24.476 15.6362 24.5 14.5165 24.5V27.5ZM19.5 27C19.5 26.5776 19.475 26.1604 19.4262 25.7499L16.4472 26.1038C16.482 26.3971 16.5 26.6961 16.5 27H19.5ZM9 37.5C14.799 37.5 19.5 32.799 19.5 27H16.5C16.5 31.1421 13.1421 34.5 9 34.5V37.5ZM7.83519 37.436C8.21814 37.4783 8.60682 37.5 9 37.5V34.5C8.71717 34.5 8.43853 34.4844 8.16481 34.4542L7.83519 37.436ZM17.8885 60.4275C16.7658 60.4758 15.6415 60.5 14.5165 60.5V63.5C15.6845 63.5 16.8518 63.4749 18.0174 63.4248L17.8885 60.4275ZM14.5165 60.5H10V63.5H14.5165V60.5ZM10 60.5C9.72386 60.5 9.5 60.2761 9.5 60H6.5C6.5 61.933 8.067 63.5 10 63.5V60.5ZM9.5 60V52.0549H6.5V60H9.5ZM8.16482 53.5458C8.43852 53.5156 8.71715 53.5 9 53.5V50.5C8.60683 50.5 8.21815 50.5217 7.83518 50.564L8.16482 53.5458ZM9 53.5C13.1421 53.5 16.5 56.8579 16.5 61H19.5C19.5 55.201 14.799 50.5 9 50.5V53.5ZM16.5 61C16.5 61.2617 16.4867 61.5197 16.4607 61.7736L19.4451 62.0787C19.4814 61.7236 19.5 61.3637 19.5 61H16.5ZM70.5 44.0549V52H73.5V44.0549H70.5ZM70.5 52C70.5 52.2761 70.2761 52.5 70 52.5V55.5C71.933 55.5 73.5 53.933 73.5 52H70.5ZM70 52.5H65.4835V55.5H70V52.5ZM65.4835 52.5C64.321 52.5 63.1593 52.5249 61.9992 52.5745L62.1274 55.5718C63.2448 55.524 64.3638 55.5 65.4835 55.5V52.5ZM63.5528 53.8962C63.518 53.6029 63.5 53.3039 63.5 53H60.5C60.5 53.4224 60.525 53.8396 60.5738 54.2501L63.5528 53.8962ZM63.5 53C63.5 48.8579 66.8579 45.5 71 45.5V42.5C65.201 42.5 60.5 47.201 60.5 53H63.5ZM71 45.5C71.2828 45.5 71.5615 45.5156 71.8352 45.5458L72.1648 42.564C71.7819 42.5217 71.3932 42.5 71 42.5V45.5ZM71.8352 26.4542C71.5615 26.4844 71.2828 26.5 71 26.5V29.5C71.3932 29.5 71.7819 29.4783 72.1648 29.436L71.8352 26.4542ZM71 26.5C66.8579 26.5 63.5 23.1421 63.5 19H60.5C60.5 24.799 65.201 29.5 71 29.5V26.5ZM63.5 19C63.5 18.7383 63.5133 18.4803 63.5393 18.2264L60.5548 17.9213C60.5186 18.2764 60.5 18.6363 60.5 19H63.5ZM62.1115 19.5725C63.2342 19.5242 64.3585 19.5 65.4835 19.5V16.5C64.3155 16.5 63.1482 16.5251 61.9826 16.5752L62.1115 19.5725ZM65.4835 19.5H70V16.5H65.4835V19.5ZM70 19.5C70.2761 19.5 70.5 19.7239 70.5 20H73.5C73.5 18.067 71.933 16.5 70 16.5V19.5ZM70.5 20V27.9451H73.5V20H70.5Z" fill="currentColor" />
  <path d="M35.4751 31.66C38.2776 29.5026 42.1814 29.5026 44.9839 31.66C46.9007 33.1355 48.0237 35.4173 48.0237 37.8362V42.1638C48.0237 44.5827 46.9007 46.8645 44.9839 48.34C42.1814 50.4974 38.2776 50.4974 35.4751 48.34C33.5583 46.8645 32.4353 44.5827 32.4353 42.1638V37.8362C32.4353 35.4173 33.5583 33.1355 35.4751 31.66Z" fill="currentColor" />
  <path d="M19.4152 41.22C20.3494 40.5009 21.6506 40.5009 22.5848 41.22C23.2237 41.7118 23.5981 42.4724 23.5981 43.2787V44.7213C23.5981 45.5276 23.2237 46.2882 22.5848 46.78C21.6506 47.4991 20.3494 47.4991 19.4152 46.78C18.7763 46.2882 18.4019 45.5276 18.4019 44.7213V43.2787C18.4019 42.4724 18.7763 41.7118 19.4152 41.22Z" fill="currentColor" />
  <path d="M57.4152 33.22C58.3494 32.5009 59.6506 32.5009 60.5848 33.22C61.2237 33.7118 61.5981 34.4724 61.5981 35.2787V36.7213C61.5981 37.5276 61.2237 38.2882 60.5848 38.78C59.6506 39.4991 58.3494 39.4991 57.4152 38.78C56.7763 38.2882 56.4019 37.5276 56.4019 36.7213V35.2787C56.4019 34.4724 56.7763 33.7118 57.4152 33.22Z" fill="currentColor" />
</svg>