<svg viewBox="0 0 80 80" fill="none">
  <path d="M38 26.7417C39.1046 26.7417 40 25.8463 40 24.7417C40 23.6371 39.1046 22.7417 38 22.7417V26.7417ZM58 42.7417C58 41.6371 57.1046 40.7417 56 40.7417C54.8954 40.7417 54 41.6371 54 42.7417H58ZM14 26.7417L14 62.7417H18L18 26.7417H14ZM18 66.7417H54V62.7417L18 62.7417V66.7417ZM38 22.7417L18 22.7417V26.7417L38 26.7417V22.7417ZM58 62.7417L58 42.7417H54L54 62.7417H58ZM54 66.7417C56.2091 66.7417 58 64.9508 58 62.7417H54V66.7417ZM14 62.7417C14 64.9508 15.7909 66.7417 18 66.7417V62.7417H14ZM18 26.7417V22.7417C15.7909 22.7417 14 24.5326 14 26.7417H18Z" fill="currentColor" />
  <path opacity="0.25" fill-rule="evenodd" clip-rule="evenodd" d="M63.5429 24.4832C64.0625 23.9637 64.0625 23.1213 63.5429 22.6017L57.886 16.9449C57.3642 16.423 56.5181 16.423 55.9963 16.9449L31.6827 41.2584C29.1137 43.8275 27.4955 47.1943 27.0943 50.8052L26.9598 52.0153L26.8656 52.8638C26.8172 53.2988 27.1848 53.6664 27.6198 53.6181L28.4683 53.5238L29.6784 53.3893C33.2893 52.9881 36.6562 51.3699 39.2252 48.8009L63.5429 24.4832Z" fill="currentColor" />
  <path opacity="0.5" d="M49.4023 23.5461L56.9407 31.0845" stroke="currentColor" stroke-width="3" stroke-linejoin="round" />
</svg>