<svg viewBox="0 0 80 80" fill="none">
  <path fill-rule="evenodd" clip-rule="evenodd" d="M45.1699 15.176C44.4199 14.4261 43.4027 14.0048 42.3422 14.0047L24.0004 14.0027C21.7911 14.0024 20 15.7934 20 18.0027L20 62.0022C20 64.2114 21.7909 66.0022 24 66.0022H56C58.2091 66.0022 60 64.2114 60 62.0022L60 31.6605C60 30.5995 59.5785 29.582 58.8282 28.8318L58.6276 28.6312C59.0867 29.1577 58.7174 30.0007 58 30.0007H48C45.7909 30.0007 44 28.2099 44 26.0007V16.0007C44 15.2906 44.8261 14.9216 45.3534 15.3595L45.1699 15.176Z" fill="currentColor" />
  <path opacity="0.25" d="M58.5858 28.5858L45.4142 15.4142C44.8923 14.8924 44 15.262 44 16V26C44 28.2091 45.7909 30 48 30L58 30C58.738 30 59.1077 29.1077 58.5858 28.5858Z" fill="currentColor" />
</svg>