<svg viewBox="0 0 80 80" fill="none">
  <g clip-path="url(#clip0)">
    <path d="M38.5 65.1297C38.5 64.3013 37.8284 63.6297 37 63.6297C36.1716 63.6297 35.5 64.3013 35.5 65.1297H38.5ZM53 73.067C53.8284 73.067 54.5 72.3955 54.5 71.567C54.5 70.7386 53.8284 70.067 53 70.067V73.067ZM21 70.067C20.1716 70.067 19.5 70.7386 19.5 71.567C19.5 72.3955 20.1716 73.067 21 73.067L21 70.067ZM38.5 71.567V65.1297H35.5V71.567H38.5ZM37 73.067L53 73.067V70.067L37 70.067V73.067ZM37 70.067L21 70.067L21 73.067L37 73.067V70.067Z" fill="currentColor" />
    <path d="M20.2611 58.2514L19.0431 57.3759L20.2611 58.2514ZM20.4991 59.6333L21.3329 58.3864L21.3329 58.3864L20.4991 59.6333ZM23.9905 53.0634L24.866 51.8454L23.6481 50.9699L22.7725 52.1879L23.9905 53.0634ZM34.0389 57.043L34.2347 55.5558L34.2347 55.5558L34.0389 57.043ZM50.4312 52.6507L49.5181 51.4606L50.4312 52.6507ZM58.9165 37.9537L57.4293 37.7579L57.4293 37.7579L58.9165 37.9537ZM54.5242 21.5614L53.3342 22.4746L54.5242 21.5614ZM46.0536 14.8491L44.6864 14.232L44.0694 15.5992L45.4366 16.2163L46.0536 14.8491ZM48.6833 9.02216L50.0505 9.63918L48.6833 9.02216ZM49.999 8.53738L50.662 7.19184L49.999 8.53738ZM60.388 17.0601L61.578 16.147L61.578 16.147L60.388 17.0601ZM66.2444 38.9165L64.7572 38.7207L64.7572 38.7208L66.2444 38.9165ZM54.9307 58.5125L54.0176 57.3224L54.9307 58.5125ZM33.0743 64.3689L33.2701 62.8817L33.0743 64.3689ZM19.0431 57.3759C18.2453 58.4858 18.4733 60.0831 19.6653 60.8802L21.3329 58.3864C21.6067 58.5695 21.6321 58.914 21.479 59.1269L19.0431 57.3759ZM22.7725 52.1879L19.0431 57.3759L21.479 59.1269L25.2085 53.9389L22.7725 52.1879ZM34.2347 55.5558C30.8228 55.1066 27.6105 53.8183 24.866 51.8454L23.115 54.2814C26.2575 56.5403 29.936 58.0158 33.8431 58.5301L34.2347 55.5558ZM49.5181 51.4606C45.1682 54.7984 39.6707 56.2715 34.2347 55.5558L33.8431 58.5301C40.0679 59.3496 46.3633 57.6628 51.3444 53.8407L49.5181 51.4606ZM57.4293 37.7579C56.7137 43.1939 53.8679 48.1229 49.5181 51.4606L51.3444 53.8407C56.3254 50.0186 59.5842 44.3743 60.4037 38.1495L57.4293 37.7579ZM53.3342 22.4746C56.6719 26.8244 58.145 32.322 57.4293 37.7579L60.4037 38.1495C61.2232 31.9247 59.5363 25.6294 55.7142 20.6483L53.3342 22.4746ZM45.4366 16.2163C48.5174 17.6067 51.2392 19.7444 53.3342 22.4746L55.7142 20.6483C53.3152 17.5218 50.1982 15.0739 46.6706 13.4818L45.4366 16.2163ZM47.316 8.40514L44.6864 14.232L47.4208 15.4661L50.0505 9.63918L47.316 8.40514ZM50.662 7.19184C49.3756 6.55805 47.8783 7.15925 47.316 8.40514L50.0505 9.63918C49.9426 9.87824 49.6315 10.0285 49.3361 9.88293L50.662 7.19184ZM61.578 16.147C58.6474 12.3277 54.9002 9.28004 50.662 7.19184L49.3361 9.88293C53.1652 11.7696 56.5504 14.5228 59.198 17.9733L61.578 16.147ZM67.7316 39.1123C68.8069 30.9441 66.5934 22.6832 61.578 16.147L59.198 17.9733C63.729 23.8783 65.7288 31.3414 64.7572 38.7207L67.7316 39.1123ZM55.8438 59.7025C62.3801 54.6871 66.6562 47.2806 67.7316 39.1123L64.7572 38.7208C63.7857 46.1001 59.9225 52.7914 54.0176 57.3224L55.8438 59.7025ZM32.8785 65.856C41.0467 66.9314 49.3076 64.7179 55.8438 59.7025L54.0176 57.3224C48.1126 61.8535 40.6495 63.8532 33.2701 62.8817L32.8785 65.856ZM19.6653 60.8802C23.5929 63.5065 28.1057 65.2277 32.8785 65.856L33.2701 62.8817C28.9582 62.314 24.8813 60.7591 21.3329 58.3864L19.6653 60.8802Z" fill="currentColor" />
    <path opacity="0.25" d="M39.8941 13.1463C45.7245 13.9139 51.0111 16.9661 54.5911 21.6316C58.171 26.297 59.7509 32.1935 58.9834 38.0239C58.2158 43.8542 55.1635 49.1409 50.4981 52.7208C45.8326 56.3007 39.9361 57.8807 34.1058 57.1131C28.2754 56.3455 22.9888 53.2933 19.4088 48.6278C15.8289 43.9624 14.2489 38.0659 15.0165 32.2355C15.7841 26.4052 18.8364 21.1185 23.5018 17.5386C28.1673 13.9587 34.0637 12.3787 39.8941 13.1463Z" fill="currentColor" stroke="currentColor" stroke-width="3" />
    <path fill-rule="evenodd" clip-rule="evenodd" d="M44.9 14.4046C44.8612 14.4816 44.8361 14.5669 44.828 14.6573C44.8029 14.938 44.9483 15.2065 45.1971 15.3389L45.5403 15.5216C45.8589 15.6911 46.2538 15.5993 46.465 15.3067C46.5078 15.2474 46.5405 15.1834 46.5631 15.1171C46.0193 14.8574 45.4645 14.6196 44.9 14.4046ZM54.0948 20.995C53.8793 21.2016 53.7097 21.4538 53.5999 21.7355L53.5611 21.835C53.3634 22.342 53.3459 22.9014 53.5115 23.4198L54.0073 24.9711C54.0704 25.1688 54.0854 25.3786 54.051 25.5832C54.0226 25.7523 53.9611 25.914 53.87 26.0592L53.6218 26.4548C53.1695 27.1758 53.0193 28.0459 53.2039 28.8767L53.4628 30.0425C53.4945 30.185 53.5845 30.3077 53.7109 30.3807C53.8344 30.452 53.9817 30.4696 54.1185 30.4293L58.3683 29.1787C57.614 26.4692 56.344 23.902 54.5986 21.6274C54.4343 21.4132 54.2663 21.2024 54.0948 20.995ZM26.7489 54.7828L28.4886 51.7695C29.0141 50.8593 29.8733 50.1894 30.8842 49.9018L38.9248 47.614C39.8103 47.362 40.5629 46.7752 41.0233 45.9779L41.3326 45.4421C41.5976 44.9832 41.6722 44.4387 41.5405 43.9254C41.4417 43.5405 41.2319 43.1931 40.9372 42.9265L40.8082 42.8097C40.4594 42.4943 40.2026 42.0903 40.065 41.6406L39.6082 40.1485C39.4665 39.6858 39.2461 39.251 38.9567 38.8631C38.6146 38.4047 38.1828 38.0208 37.6874 37.7348L37.5967 37.6824C36.4293 37.0084 35.6058 35.8672 35.3341 34.5468L35.187 33.8318C35.1092 33.4537 34.9737 33.0899 34.7853 32.753L34.5037 32.2493C34.3569 31.9867 34.1418 31.7687 33.8813 31.6183L33.2602 31.2597C33.105 31.1701 33.0123 31.0018 33.0194 30.8228C33.0227 30.7402 33.0471 30.6599 33.0904 30.5896L33.9884 29.1274C34.016 29.0825 34.0514 29.0428 34.0929 29.0102C34.236 28.8978 34.4332 28.8837 34.5909 28.9748L36.4725 30.0611C36.9004 30.3082 37.213 30.7147 37.3417 31.1918L37.7216 32.5991C37.7636 32.7549 37.9192 32.8515 38.0775 32.8202C38.187 32.7985 38.2761 32.719 38.3102 32.6127L38.6113 31.6724C38.8134 31.0414 39.3174 30.5532 39.9545 30.3713L47.701 28.1598C48.0403 28.0629 48.3287 27.8379 48.5051 27.5323C48.6348 27.3078 48.6975 27.0509 48.6859 26.7919L48.6853 26.7779C48.6665 26.3567 48.4598 25.9662 48.1223 25.7137L47.3852 25.1624C46.997 24.8721 46.7178 24.4596 46.5925 23.9913L46.2786 22.8182C46.2479 22.7034 46.1522 22.6176 46.0347 22.5995C45.9166 22.5814 45.799 22.6351 45.7355 22.7362L44.2135 25.1572C44.1505 25.2574 44.055 25.3331 43.9431 25.3715C43.7983 25.4213 43.639 25.4045 43.5077 25.3257L42.6039 24.7829C41.9844 24.4109 41.5341 23.8123 41.3481 23.114L40.8448 21.2235C40.8368 21.1932 40.8338 21.1619 40.8359 21.1306C40.8438 21.0156 40.92 20.9167 41.0292 20.8798L42.6268 20.3401C42.9063 20.2457 43.1418 20.0527 43.2893 19.7973C43.4915 19.4469 43.5059 19.0187 43.3275 18.6556L43.1855 18.3667C43.0359 18.0621 42.8039 17.8055 42.5159 17.6259L40.2385 16.2065C39.6057 15.8121 39.0311 15.3312 38.5315 14.7777L37.3384 13.4559C37.1792 13.2796 37.0117 13.1118 36.8364 12.953C34.2098 12.9733 31.6161 13.4602 29.1749 14.3819C29.5026 14.6863 29.7635 15.0641 29.9317 15.4934L30.115 15.9612C30.5374 17.0395 30.4648 18.2489 29.9163 19.2689L29.3507 20.3209C29.0967 20.7934 28.9198 21.3035 28.8268 21.8319C28.7128 22.4796 28.7268 23.1435 28.8681 23.7859L30.241 30.0261C30.3232 30.4 30.4671 30.7575 30.6666 31.0842C30.9215 31.5015 31.2621 31.8598 31.6659 32.1355L32.7814 32.8972C33.0041 33.0549 33.154 33.2958 33.197 33.5654L33.4584 35.202C33.4943 35.4057 33.3747 35.6047 33.178 35.6685L31.7948 36.1177C31.2817 36.2843 30.8531 36.6431 30.5987 37.1188L29.7063 38.7881C29.0923 39.9365 28.8618 41.2511 29.0484 42.5399C29.2447 43.8961 28.9789 45.2789 28.2938 46.4657L26.4411 49.6746C26.1596 50.1621 25.9494 50.6873 25.8167 51.2344L25.6652 51.8594C25.5146 52.4803 25.534 53.1303 25.7215 53.7412L25.8974 54.3144C26.1777 54.4767 26.4616 54.6329 26.7489 54.7828ZM39.3699 13.0786L39.3642 13.1917C39.3445 13.5818 39.505 13.9594 39.7996 14.216L40.4631 14.7938C40.5847 14.8997 40.7185 14.9906 40.8617 15.0647L42.2904 15.8042C42.7175 16.0253 43.2392 15.7907 43.3573 15.3244C43.3985 15.1616 43.3836 14.9897 43.3151 14.8365L43.0775 14.305C42.9769 14.0799 42.8433 13.8732 42.6825 13.6909C41.7731 13.4501 40.8445 13.2663 39.9017 13.1421C39.7245 13.1188 39.5472 13.0976 39.3699 13.0786ZM46.16 17.7965C46.0435 17.4984 46.1561 17.1596 46.4278 16.9904C46.6938 16.8249 47.0392 16.8676 47.2568 17.0929L48.3507 18.225C48.6768 18.5625 48.9059 18.9815 49.0141 19.4381L49.948 23.3796C49.9582 23.4224 49.9574 23.4672 49.9457 23.5097C49.9009 23.6727 49.7159 23.7515 49.5673 23.6709L48.5393 23.1132C48.292 22.9791 48.1003 22.7618 47.9979 22.4998L46.16 17.7965Z" fill="currentColor" />
  </g>
  <defs>
    <clipPath id="clip0">
      <rect width="80" height="80" fill="currentColor" />
    </clipPath>
  </defs>
</svg>