<svg viewBox="0 0 80 80" fill="none">
  <g clip-path="url(#clip0)">
    <path d="M38.5 65C38.5 64.1716 37.8284 63.5 37 63.5C36.1716 63.5 35.5 64.1716 35.5 65H38.5ZM53 72.9373C53.8284 72.9373 54.5 72.2658 54.5 71.4373C54.5 70.6089 53.8284 69.9373 53 69.9373V72.9373ZM21 69.9373C20.1716 69.9373 19.5 70.6089 19.5 71.4373C19.5 72.2658 20.1716 72.9373 21 72.9373L21 69.9373ZM38.5 71.4373V65H35.5V71.4373H38.5ZM37 72.9373L53 72.9373V69.9373L37 69.9373V72.9373ZM37 69.9373L21 69.9373L21 72.9373L37 72.9373V69.9373Z" fill="currentColor" />
    <path d="M20.2611 58.1217L19.0431 57.2462L20.2611 58.1217ZM20.4991 59.5036L21.3329 58.2567L21.3329 58.2567L20.4991 59.5036ZM23.9905 52.9337L24.866 51.7157L23.6481 50.8402L22.7725 52.0582L23.9905 52.9337ZM34.0389 56.9133L34.2347 55.4261L34.2347 55.4261L34.0389 56.9133ZM50.4312 52.521L49.5181 51.3309L50.4312 52.521ZM58.9165 37.824L57.4293 37.6282L57.4293 37.6282L58.9165 37.824ZM54.5242 21.4317L53.3342 22.3449L54.5242 21.4317ZM46.0536 14.7194L44.6864 14.1023L44.0694 15.4695L45.4366 16.0866L46.0536 14.7194ZM48.6833 8.89246L50.0505 9.50948L48.6833 8.89246ZM49.999 8.40768L50.662 7.06214L49.999 8.40768ZM60.388 16.9304L61.578 16.0173L61.578 16.0173L60.388 16.9304ZM66.2444 38.7868L64.7572 38.591L64.7572 38.5911L66.2444 38.7868ZM54.9307 58.3828L54.0176 57.1927L54.9307 58.3828ZM33.0743 64.2392L33.2701 62.752L33.0743 64.2392ZM19.0431 57.2462C18.2453 58.3561 18.4733 59.9534 19.6653 60.7505L21.3329 58.2567C21.6067 58.4398 21.6321 58.7843 21.479 58.9972L19.0431 57.2462ZM22.7725 52.0582L19.0431 57.2462L21.479 58.9972L25.2085 53.8092L22.7725 52.0582ZM34.2347 55.4261C30.8228 54.9769 27.6105 53.6886 24.866 51.7157L23.115 54.1517C26.2575 56.4106 29.936 57.8861 33.8431 58.4004L34.2347 55.4261ZM49.5181 51.3309C45.1682 54.6687 39.6707 56.1418 34.2347 55.4261L33.8431 58.4004C40.0679 59.2199 46.3633 57.5331 51.3444 53.711L49.5181 51.3309ZM57.4293 37.6282C56.7137 43.0642 53.8679 47.9932 49.5181 51.3309L51.3444 53.711C56.3254 49.8889 59.5842 44.2446 60.4037 38.0198L57.4293 37.6282ZM53.3342 22.3449C56.6719 26.6947 58.145 32.1923 57.4293 37.6282L60.4037 38.0198C61.2232 31.795 59.5363 25.4997 55.7142 20.5186L53.3342 22.3449ZM45.4366 16.0866C48.5174 17.477 51.2392 19.6147 53.3342 22.3449L55.7142 20.5186C53.3152 17.3921 50.1982 14.9442 46.6706 13.3521L45.4366 16.0866ZM47.316 8.27544L44.6864 14.1023L47.4208 15.3364L50.0505 9.50948L47.316 8.27544ZM50.662 7.06214C49.3756 6.42835 47.8783 7.02955 47.316 8.27544L50.0505 9.50948C49.9426 9.74854 49.6315 9.89881 49.3361 9.75323L50.662 7.06214ZM61.578 16.0173C58.6474 12.198 54.9002 9.15034 50.662 7.06214L49.3361 9.75323C53.1652 11.6399 56.5504 14.3931 59.198 17.8436L61.578 16.0173ZM67.7316 38.9826C68.8069 30.8144 66.5934 22.5535 61.578 16.0173L59.198 17.8436C63.729 23.7486 65.7288 31.2117 64.7572 38.591L67.7316 38.9826ZM55.8438 59.5728C62.3801 54.5574 66.6562 47.1509 67.7316 38.9826L64.7572 38.5911C63.7857 45.9704 59.9225 52.6617 54.0176 57.1927L55.8438 59.5728ZM32.8785 65.7263C41.0467 66.8017 49.3076 64.5882 55.8438 59.5728L54.0176 57.1927C48.1126 61.7238 40.6495 63.7235 33.2701 62.752L32.8785 65.7263ZM19.6653 60.7505C23.5929 63.3768 28.1057 65.098 32.8785 65.7263L33.2701 62.752C28.9582 62.1843 24.8813 60.6294 21.3329 58.2567L19.6653 60.7505Z" fill="currentColor" />
    <path opacity="0.25" d="M39.8941 13.0166C45.7245 13.7842 51.0111 16.8364 54.5911 21.5019C58.171 26.1673 59.7509 32.0638 58.9834 37.8942C58.2158 43.7245 55.1635 49.0112 50.4981 52.5911C45.8326 56.171 39.9361 57.751 34.1058 56.9834C28.2754 56.2158 22.9888 53.1636 19.4088 48.4981C15.8289 43.8327 14.2489 37.9362 15.0165 32.1058C15.7841 26.2755 18.8364 20.9888 23.5018 17.4089C28.1673 13.829 34.0637 12.249 39.8941 13.0166Z" fill="currentColor" stroke="currentColor" stroke-width="3" />
    <path fill-rule="evenodd" clip-rule="evenodd" d="M42.9621 13.6371C41.9637 13.3588 40.9414 13.1492 39.9018 13.0124C34.0714 12.2448 28.1749 13.8248 23.5095 17.4047C21.5716 18.8917 19.912 20.6732 18.5789 22.6658C18.899 23.162 19.0858 23.7427 19.1059 24.3518L19.2209 27.8325C19.2256 27.9748 19.2918 28.1079 19.4024 28.1975C19.594 28.3528 19.8712 28.3416 20.0497 28.1714L21.3193 26.961C21.4362 26.8496 21.5636 26.7499 21.6998 26.6632L24.245 25.0431C24.4342 24.9227 24.6606 24.8748 24.8824 24.9084C25.3075 24.9727 25.6328 25.3205 25.6686 25.749L25.9414 29.0139C25.9709 29.3675 26.1363 29.6959 26.4027 29.9302C26.7556 30.2404 27.2426 30.3485 27.6936 30.2168L27.7767 30.1925C28.1756 30.0759 28.51 29.802 28.7027 29.4337L28.7949 29.2577C29.0802 28.7126 29.6009 28.3295 30.2061 28.2193L31.0498 28.0656C31.5084 27.9821 31.9454 27.8066 32.3344 27.5498L32.6492 27.342C32.7955 27.2454 32.9228 27.1226 33.0246 26.9798C33.4544 26.3774 34.2733 26.2035 34.9108 26.5793L35.4553 26.9002C35.9512 27.1926 36.5447 27.2703 37.0991 27.1155L39.7192 26.384C40.0235 26.2991 40.3199 26.1881 40.6051 26.0523L41.4037 25.6723C41.7793 25.4936 42.0994 25.2165 42.3302 24.8705C42.9883 23.8836 44.2883 23.558 45.3339 24.118L45.4805 24.1965C46.0261 24.4887 46.6611 24.5669 47.2614 24.4158L47.8778 24.2607C48.6225 24.0732 49.4116 24.2042 50.0558 24.6223L50.7183 25.0522C51.2267 25.3822 51.8814 25.3833 52.391 25.0552L52.4925 24.9898C52.9154 24.7175 53.4551 24.7044 53.8908 24.9559L54.7862 25.4729C54.9339 25.5582 55.1227 25.5076 55.2079 25.3599C55.2562 25.2763 55.2626 25.1748 55.2251 25.0858L54.6649 23.7556C54.3929 23.1095 53.917 22.5701 53.3099 22.2196L47.0424 18.6011C46.5755 18.3316 46.2227 17.9013 46.0498 17.3907C45.8768 16.8801 45.524 16.4499 45.0571 16.1803L44.7015 15.975C44.095 15.6248 43.6151 15.0912 43.3311 14.451L43.0765 13.8771C43.0404 13.7959 43.0023 13.7159 42.9621 13.6371ZM24.2086 32.0785C24.129 32.1937 24.1029 32.3376 24.1371 32.4735L24.9322 35.6308C24.9944 35.8779 25.1081 36.1091 25.2657 36.3092L25.5813 36.7101C25.7178 36.8834 25.925 36.9863 26.1456 36.9904C26.6503 36.9996 27.0141 36.5092 26.8588 36.0289L25.7883 32.7181C25.6966 32.4343 25.4868 32.204 25.2129 32.0861L24.8002 31.9085C24.5877 31.8171 24.3402 31.8882 24.2086 32.0785ZM43.83 28.5058C44.0559 28.3173 44.0794 27.9787 43.8816 27.7609L43.664 27.5212C43.4633 27.3002 43.1592 27.2043 42.8681 27.2703L38.5336 28.2531C38.427 28.2772 38.3399 28.3537 38.3022 28.4563C38.2486 28.6019 38.3063 28.7651 38.4396 28.8446L39.2161 29.3082C39.5392 29.5011 39.9259 29.5571 40.2905 29.4637L43.6269 28.6096C43.7015 28.5906 43.7709 28.5551 43.83 28.5058ZM33.2012 40.6389C32.7835 41.0562 32.8513 41.7512 33.3418 42.0799L34.1796 42.6412C34.4733 42.8379 34.8262 42.9268 35.1781 42.8926L35.4406 42.867C35.7099 42.8408 35.9549 42.7003 36.1135 42.4811C36.4413 42.0281 36.3052 41.3909 35.8209 41.1113L35.0892 40.6889C34.9334 40.5989 34.7643 40.5342 34.5883 40.4971L34.0565 40.385C33.7468 40.3197 33.4251 40.4152 33.2012 40.6389ZM31.879 43.3869C30.8307 42.8474 29.6172 42.7237 28.4817 43.0408L27.7391 43.2481C27.0191 43.4491 26.4086 43.9281 26.042 44.5795L25.9953 44.6624C25.6733 45.2346 25.5819 45.908 25.7396 46.5453C25.9006 47.1954 26.3083 47.7573 26.8764 48.112L28.2735 48.9842C28.8319 49.3328 29.2218 49.8963 29.3511 50.5418C29.4339 50.9551 29.6245 51.3391 29.9037 51.655L30.3936 52.2091C30.5311 52.3647 30.693 52.497 30.8728 52.6009C31.7843 53.1271 32.9495 52.8228 33.4873 51.9181L34.2163 50.6917C34.4284 50.3348 34.5728 49.9418 34.642 49.5325L34.7085 49.139C34.8336 48.3998 34.8056 47.6429 34.6263 46.915L34.5764 46.7121C34.2293 45.3029 33.2894 44.1128 31.999 43.4486L31.879 43.3869ZM28.0882 38.3684C27.7922 38.4402 27.6916 38.8101 27.9105 39.0218L28.5732 39.6629C28.7472 39.8312 28.9973 39.8946 29.2304 39.8295L29.3618 39.7928C29.7744 39.6776 29.9323 39.1762 29.6602 38.8453C29.5805 38.7485 29.4723 38.6795 29.3509 38.6481L28.276 38.3699C28.2145 38.354 28.1499 38.3535 28.0882 38.3684ZM29.1678 35.2561C29.1581 35.3478 29.1606 35.4405 29.1754 35.5315C29.2221 35.8191 29.3877 36.0738 29.6316 36.2332L29.9242 36.4245C30.4437 36.764 31.1 36.8168 31.6672 36.5648L31.9443 36.4417C32.5198 36.186 32.9709 35.7131 33.1992 35.1262L33.2965 34.8762C33.3508 34.7365 33.4324 34.6089 33.5363 34.5009L34.0585 33.9585C34.3285 33.6779 34.2498 33.2161 33.9021 33.0408C33.7552 32.9667 33.5838 32.9587 33.4306 33.0187L31.7607 33.6731C31.5967 33.7374 31.4267 33.7852 31.2533 33.8158L30.3181 33.981C29.7055 34.0892 29.2385 34.5897 29.1729 35.2082L29.1678 35.2561Z" fill="currentColor" />
  </g>
  <defs>
    <clipPath id="clip0">
      <rect width="80" height="80" fill="currentColor" />
    </clipPath>
  </defs>
</svg>