<svg viewBox="0 0 80 80" fill="none">
  <g clip-path="url(#clip0)">
    <path d="M38.5 65C38.5 64.1716 37.8284 63.5 37 63.5C36.1716 63.5 35.5 64.1716 35.5 65H38.5ZM53 72.9373C53.8284 72.9373 54.5 72.2658 54.5 71.4373C54.5 70.6089 53.8284 69.9373 53 69.9373V72.9373ZM21 69.9373C20.1716 69.9373 19.5 70.6089 19.5 71.4373C19.5 72.2658 20.1716 72.9373 21 72.9373L21 69.9373ZM38.5 71.4373V65H35.5V71.4373H38.5ZM37 72.9373L53 72.9373V69.9373L37 69.9373V72.9373ZM37 69.9373L21 69.9373L21 72.9373L37 72.9373V69.9373Z" fill="currentColor" />
    <path d="M20.2611 58.1217L19.0431 57.2462L20.2611 58.1217ZM20.4991 59.5036L21.3329 58.2567L21.3329 58.2567L20.4991 59.5036ZM23.9905 52.9337L24.866 51.7157L23.6481 50.8402L22.7725 52.0582L23.9905 52.9337ZM34.0389 56.9133L34.2347 55.4261L34.2347 55.4261L34.0389 56.9133ZM50.4312 52.521L49.5181 51.3309L50.4312 52.521ZM58.9165 37.824L57.4293 37.6282L57.4293 37.6282L58.9165 37.824ZM54.5242 21.4317L53.3342 22.3449L54.5242 21.4317ZM46.0536 14.7194L44.6864 14.1023L44.0694 15.4695L45.4366 16.0866L46.0536 14.7194ZM48.6833 8.89246L50.0505 9.50948L48.6833 8.89246ZM49.999 8.40768L50.662 7.06214L49.999 8.40768ZM60.388 16.9304L61.578 16.0173L61.578 16.0173L60.388 16.9304ZM66.2444 38.7868L64.7572 38.591L64.7572 38.5911L66.2444 38.7868ZM54.9307 58.3828L54.0176 57.1927L54.9307 58.3828ZM33.0743 64.2392L33.2701 62.752L33.0743 64.2392ZM19.0431 57.2462C18.2453 58.3561 18.4733 59.9534 19.6653 60.7505L21.3329 58.2567C21.6067 58.4398 21.6321 58.7843 21.479 58.9972L19.0431 57.2462ZM22.7725 52.0582L19.0431 57.2462L21.479 58.9972L25.2085 53.8092L22.7725 52.0582ZM34.2347 55.4261C30.8228 54.9769 27.6105 53.6886 24.866 51.7157L23.115 54.1517C26.2575 56.4106 29.936 57.8861 33.8431 58.4004L34.2347 55.4261ZM49.5181 51.3309C45.1682 54.6687 39.6707 56.1418 34.2347 55.4261L33.8431 58.4004C40.0679 59.2199 46.3633 57.5331 51.3444 53.711L49.5181 51.3309ZM57.4293 37.6282C56.7137 43.0642 53.8679 47.9932 49.5181 51.3309L51.3444 53.711C56.3254 49.8889 59.5842 44.2446 60.4037 38.0198L57.4293 37.6282ZM53.3342 22.3449C56.6719 26.6947 58.145 32.1923 57.4293 37.6282L60.4037 38.0198C61.2232 31.795 59.5363 25.4997 55.7142 20.5186L53.3342 22.3449ZM45.4366 16.0866C48.5174 17.477 51.2392 19.6147 53.3342 22.3449L55.7142 20.5186C53.3152 17.3921 50.1982 14.9442 46.6706 13.3521L45.4366 16.0866ZM47.316 8.27544L44.6864 14.1023L47.4208 15.3364L50.0505 9.50948L47.316 8.27544ZM50.662 7.06214C49.3756 6.42835 47.8783 7.02955 47.316 8.27544L50.0505 9.50948C49.9426 9.74854 49.6315 9.89881 49.3361 9.75323L50.662 7.06214ZM61.578 16.0173C58.6474 12.198 54.9002 9.15034 50.662 7.06214L49.3361 9.75323C53.1652 11.6399 56.5504 14.3931 59.198 17.8436L61.578 16.0173ZM67.7316 38.9826C68.8069 30.8144 66.5934 22.5535 61.578 16.0173L59.198 17.8436C63.729 23.7486 65.7288 31.2117 64.7572 38.591L67.7316 38.9826ZM55.8438 59.5728C62.3801 54.5574 66.6562 47.1509 67.7316 38.9826L64.7572 38.5911C63.7857 45.9704 59.9225 52.6617 54.0176 57.1927L55.8438 59.5728ZM32.8785 65.7263C41.0467 66.8017 49.3076 64.5882 55.8438 59.5728L54.0176 57.1927C48.1126 61.7238 40.6495 63.7235 33.2701 62.752L32.8785 65.7263ZM19.6653 60.7505C23.5929 63.3768 28.1057 65.098 32.8785 65.7263L33.2701 62.752C28.9582 62.1843 24.8813 60.6294 21.3329 58.2567L19.6653 60.7505Z" fill="currentColor" />
    <path opacity="0.25" d="M39.8941 13.0166C45.7245 13.7842 51.0111 16.8364 54.5911 21.5019C58.171 26.1673 59.7509 32.0638 58.9834 37.8942C58.2158 43.7245 55.1635 49.0112 50.4981 52.5911C45.8326 56.171 39.9361 57.751 34.1058 56.9834C28.2754 56.2158 22.9888 53.1636 19.4088 48.4981C15.8289 43.8327 14.2489 37.9362 15.0165 32.1058C15.7841 26.2755 18.8364 20.9888 23.5018 17.4089C28.1673 13.829 34.0637 12.249 39.8941 13.0166Z" fill="currentColor" stroke="currentColor" stroke-width="3" />
    <path fill-rule="evenodd" clip-rule="evenodd" d="M28.8004 22.2461C28.264 22.3788 27.6963 22.2681 27.2491 21.9436L26.6545 21.512C26.3173 21.2673 26.1869 20.8263 26.3369 20.4375C26.5 20.0148 26.9469 19.774 27.3897 19.8703L28.1274 20.0308C28.6163 20.1372 29.1274 20.0352 29.5382 19.7495L31.3769 18.4702L33.6413 17.9853C34.3036 17.8434 34.9949 17.9447 35.5887 18.2707L36.9171 18.9999C37.4188 19.2753 38.0474 19.1299 38.3772 18.662C38.5216 18.4572 38.7303 18.3064 38.9702 18.2338L40.434 17.7904C40.7335 17.6996 40.9197 17.4013 40.8696 17.0924C40.813 16.7436 40.4787 16.5111 40.1321 16.5795L38.5676 16.8879C37.8931 17.0208 37.306 16.4138 37.4614 15.7441C37.5414 15.3996 37.8066 15.1282 38.1492 15.0405L39.8336 14.609C40.8276 14.3544 41.8829 14.5325 42.7383 15.0992C43.4441 15.5668 43.9641 16.2664 44.2085 17.077L44.2469 17.2045C44.5421 18.1838 45.2014 19.0126 46.0892 19.5206L48.7455 21.0402C49.7641 21.623 50.9932 21.708 52.0824 21.2711L52.4793 21.112C53.0223 20.8941 53.61 20.8442 54.1699 20.9566C54.3154 21.1344 54.4583 21.3149 54.5986 21.4977C58.1786 26.1632 59.7585 32.0597 58.991 37.89C58.7837 39.4644 58.4098 40.9992 57.8826 42.4714C57.7013 42.5316 57.5114 42.5689 57.3172 42.581L56.7047 42.6194C56.0271 42.6619 55.4266 43.0706 55.1385 43.6853L55.0129 43.9535C54.7042 44.6121 53.9684 44.9554 53.2654 44.7686C52.6308 44.6 52.179 44.0391 52.1495 43.3831L52.1208 42.7462C52.0462 41.0876 50.3348 40.0168 48.8106 40.6748L48.2306 40.9251C47.9814 41.0328 47.7532 41.1837 47.5566 41.3711L46.4084 42.4658C46.2299 42.636 45.9528 42.6471 45.7611 42.4919C45.6505 42.4023 45.5843 42.2691 45.5796 42.1269L45.4646 38.6461C45.4271 37.5096 44.809 36.4718 43.8276 35.8973L43.1673 35.5108C42.8507 35.3256 42.6184 35.0247 42.5192 34.6716L42.188 33.493C42.1067 33.2033 41.7745 33.0675 41.5134 33.2171C41.3308 33.3218 41.242 33.5366 41.2975 33.7397L42.0094 36.3475C42.2532 37.2407 41.7218 38.1614 40.8264 38.397C40.3788 38.5148 39.9024 38.4411 39.5114 38.1935L39.018 37.8811C38.3639 37.467 37.8948 36.8164 37.7084 36.065L37.0618 33.4586C36.9931 33.1817 36.7364 32.9935 36.4517 33.0112C36.0817 33.0344 35.8242 33.3886 35.9164 33.7477L37.1927 38.7183C37.2939 39.1125 37.2911 39.5264 37.1846 39.9192C36.9666 40.723 36.3399 41.3516 35.5368 41.5721L34.4801 41.8623C33.4012 42.1585 32.4816 42.8662 31.919 43.8334L30.0272 47.0856C29.3113 48.3163 28.1478 49.223 26.7795 49.6165L25.5362 49.974C24.8479 50.1719 24.1024 50.0698 23.49 49.6984C22.8155 49.2895 22.3632 48.5864 22.2766 47.8025C22.2204 47.2927 22.3199 46.7778 22.562 46.3257L23.8905 43.8451C24.2268 43.217 24.267 42.472 24 41.8115C23.7287 41.1402 23.7747 40.3824 24.1253 39.7489L24.7214 38.6717C25.5251 37.2192 25.0293 35.3908 23.6019 34.5434C22.9159 34.1361 22.4152 33.4779 22.2059 32.708L21.9204 31.6577C21.4614 29.9691 21.795 28.1634 22.827 26.7503L23.9946 25.1516C24.255 24.795 24.6107 24.5192 25.0209 24.3558L27.1658 23.5012C27.4642 23.3823 27.7958 23.571 27.846 23.8882C27.8705 24.0433 27.9664 24.178 28.1049 24.2519L30.3503 25.45C30.6807 25.6263 30.8218 26.0257 30.6753 26.3704C30.5679 26.6234 30.6131 26.9153 30.792 27.1239L32.6199 29.2541C32.8016 29.4659 33.1095 29.5158 33.3489 29.3724C33.5332 29.2619 33.7638 29.2639 33.9462 29.3775L35.3311 30.2402C35.768 30.5123 36.2973 30.5938 36.7958 30.4657C37.7705 30.2152 38.3761 29.2427 38.171 28.2575L37.822 26.5815L39.7752 27.4573C40.1212 27.6124 40.4109 27.8707 40.6047 28.1967L40.8752 28.6519C41.1205 29.0646 41.6032 29.273 42.0718 29.1684C42.6168 29.0467 42.9867 28.5393 42.9357 27.9832L42.886 27.4407C42.8305 26.8357 42.4618 26.3041 41.9146 26.0403L41.3983 25.7913C40.5058 25.361 39.4506 25.4455 38.6379 26.0124L37.822 26.5815L36.8522 26.0956C36.476 25.9072 36.044 25.8624 35.6372 25.9699C35.2483 26.0726 34.8357 26.0363 34.4707 25.8674L33.8428 25.5769L32.6501 25.025L32.1509 22.4773L32.1253 22.462C31.3412 21.9907 30.4023 21.8495 29.5144 22.0693L28.8004 22.2461ZM53.9777 49.2669L53.392 47.4765C53.2665 47.0931 52.9684 46.7908 52.5868 46.66C51.7272 46.3655 50.8417 47.0314 50.8859 47.9389L51.0034 50.3475C51.0288 50.8687 51.1931 51.3693 51.4737 51.8C52.3796 51.0202 53.2162 50.1725 53.9777 49.2669ZM27.4514 14.9876C27.4592 15.6249 27.7818 16.2463 28.3667 16.6081L31.3769 18.4702L32.025 16.0685C32.2859 15.1015 31.9315 14.1616 31.2551 13.5819C29.9496 13.9326 28.6761 14.4027 27.4514 14.9876ZM32.0741 47.5073C31.7829 47.9519 31.9252 48.5498 32.3855 48.8155C32.6696 48.9795 33.0193 48.9809 33.3046 48.819L33.5608 48.6737C33.7702 48.5549 33.9465 48.3856 34.0735 48.1811L34.6594 47.238C34.9044 46.8436 34.7626 46.324 34.3511 46.1088C34.1417 45.9992 33.8946 45.988 33.6762 46.0782L33.2309 46.2619C32.9263 46.3876 32.6667 46.6024 32.4862 46.878L32.0741 47.5073Z" fill="currentColor" />
  </g>
  <defs>
    <clipPath id="clip0">
      <rect width="80" height="80" fill="currentColor" />
    </clipPath>
  </defs>
</svg>