<svg viewBox="0 0 80 80" fill="none">
  <path opacity="0.25" d="M36 60.1082C36 61.2127 36.8954 62.1082 38 62.1082C39.1046 62.1082 40 61.2127 40 60.1082H36ZM40 20.1082C40 19.0036 39.1046 18.1082 38 18.1082C36.8954 18.1082 36 19.0036 36 20.1082H40ZM8 60.1082C8 61.2127 8.89543 62.1082 10 62.1082C11.1046 62.1082 12 61.2127 12 60.1082H8ZM12 20.1082C12 19.0036 11.1046 18.1082 10 18.1082C8.89543 18.1082 8 19.0036 8 20.1082H12ZM10 38.1082C8.89543 38.1082 8 39.0036 8 40.1082C8 41.2127 8.89543 42.1082 10 42.1082V38.1082ZM38 42.1082C39.1046 42.1082 40 41.2127 40 40.1082C40 39.0036 39.1046 38.1082 38 38.1082V42.1082ZM40 60.1082V20.1082H36V60.1082H40ZM12 60.1082V20.1082H8V60.1082H12ZM10 42.1082H38V38.1082H10V42.1082Z" fill="currentColor" />
  <path d="M50.4958 46.3305L52.1029 47.5209L52.1029 47.5209L50.4958 46.3305ZM69.5038 20.6697L71.1109 21.8602L69.5038 20.6697ZM69.9998 47.0001V49.0001C71.1044 49.0001 71.9998 48.1047 71.9998 47.0001H69.9998ZM71.9998 47.0001C71.9998 45.8955 71.1044 45.0001 69.9998 45.0001C68.8952 45.0001 67.9998 45.8955 67.9998 47.0001H71.9998ZM67.9998 60.0001C67.9998 61.1047 68.8952 62.0001 69.9998 62.0001C71.1044 62.0001 71.9998 61.1047 71.9998 60.0001H67.9998ZM72.9998 49.0002C74.1043 49.0002 74.9998 48.1048 74.9998 47.0002C74.9998 45.8956 74.1043 45.0002 72.9998 45.0002V49.0002ZM69.9998 45.0002C68.8952 45.0002 67.9998 45.8956 67.9998 47.0002C67.9998 48.1048 68.8952 49.0002 69.9998 49.0002V45.0002ZM52.1029 47.5209L71.1109 21.8602L67.8967 19.4793L48.8887 45.14L52.1029 47.5209ZM50.8331 45.0001C52.131 45.0001 52.8755 46.478 52.1029 47.5209L48.8887 45.14C47.7058 46.737 48.8458 49.0001 50.8331 49.0001V45.0001ZM69.9998 45.0001H50.8331V49.0001H69.9998V45.0001ZM67.9998 20.8334V47.0001H71.9998V20.8334H67.9998ZM71.1109 21.8602C70.1211 23.1964 67.9998 22.4963 67.9998 20.8334H71.9998C71.9998 18.6402 69.2021 17.7169 67.8967 19.4793L71.1109 21.8602ZM67.9998 47.0001V60.0001H71.9998V47.0001H67.9998ZM72.9998 45.0002H69.9998V49.0002H72.9998V45.0002Z" fill="currentColor" />
</svg>