<svg viewBox="0 0 80 80" fill="none">
  <path opacity="0.25" d="M36 20H44L47.43 68.0203C47.738 72.3323 44.3229 76 40 76C35.6771 76 32.262 72.3323 32.57 68.0203L36 20Z" fill="currentColor" stroke="currentColor" stroke-width="3" stroke-linecap="round" stroke-linejoin="round" />
  <path fill-rule="evenodd" clip-rule="evenodd" d="M20 20C20 11.1634 27.1634 4 36 4H48L48 6H54V4H60V20H54V18H48L48 20H20Z" fill="currentColor" />
  <path d="M20 20H18.5C18.5 20.8284 19.1716 21.5 20 21.5V20ZM48 4L49.5 4C49.5 3.60218 49.342 3.22065 49.0607 2.93934C48.7794 2.65804 48.3978 2.5 48 2.5V4ZM48 6L46.5 6C46.5 6.39782 46.658 6.77935 46.9393 7.06066C47.2206 7.34196 47.6022 7.5 48 7.5V6ZM54 6V7.5C54.8284 7.5 55.5 6.82843 55.5 6H54ZM54 4V2.5C53.1716 2.5 52.5 3.17157 52.5 4H54ZM60 4H61.5C61.5 3.17157 60.8284 2.5 60 2.5V4ZM60 20V21.5C60.8284 21.5 61.5 20.8284 61.5 20H60ZM54 20H52.5C52.5 20.8284 53.1716 21.5 54 21.5V20ZM54 18H55.5C55.5 17.1716 54.8284 16.5 54 16.5V18ZM48 18V16.5C47.6022 16.5 47.2206 16.658 46.9393 16.9393C46.658 17.2206 46.5 17.6022 46.5 18L48 18ZM48 20V21.5C48.3978 21.5 48.7794 21.342 49.0607 21.0607C49.342 20.7794 49.5 20.3978 49.5 20L48 20ZM36 2.5C26.335 2.5 18.5 10.335 18.5 20H21.5C21.5 11.9919 27.9919 5.5 36 5.5V2.5ZM48 2.5H36V5.5H48V2.5ZM49.5 6L49.5 4L46.5 4L46.5 6L49.5 6ZM48 7.5H54V4.5H48V7.5ZM52.5 4V6H55.5V4H52.5ZM60 2.5H54V5.5H60V2.5ZM61.5 20V4H58.5V20H61.5ZM54 21.5H60V18.5H54V21.5ZM52.5 18V20H55.5V18H52.5ZM54 16.5H48V19.5H54V16.5ZM49.5 20L49.5 18L46.5 18L46.5 20L49.5 20ZM20 21.5H48V18.5H20V21.5Z" fill="currentColor" />
</svg>