<svg viewBox="0 0 80 80" fill="none">
  <path opacity="0.25" fill-rule="evenodd" clip-rule="evenodd" d="M20.5336 16.8266C25.0966 12.4461 31.1768 10 37.5021 10H38.4979C44.8232 10 50.9034 12.4461 55.4664 16.8266L55.8286 17.1743C58.7645 19.9928 60.8825 23.5003 62.0253 27.3276C62.0771 27.3684 62.1174 27.4259 62.137 27.4971L65.6148 40.1932C65.6359 40.2703 65.6546 40.3473 65.671 40.4242C65.3347 40.1601 64.9092 40 64.4384 40H45.5616C44.6438 40 43.8439 40.6246 43.6213 41.5149L39.6213 57.5149C39.3057 58.7772 40.2604 60 41.5616 60H47V68.25C47 69.3546 46.1046 70.25 45 70.25H23C21.8954 70.25 21 69.3546 21 68.25V51.6096C20.8428 51.4664 20.6874 51.321 20.5336 51.1734L20.1714 50.8257C15.5899 46.4274 13 40.351 13 34C13 27.649 15.5899 21.5726 20.1714 17.1743L20.5336 16.8266Z" fill="currentColor" />
  <path opacity="0.25" d="M38.4398 56.0563C38.3435 56.4414 37.8584 56.5662 37.5883 56.2753L23.3917 40.9867C21.6926 39.1569 23.4306 36.2409 25.8484 36.8649L41.7032 40.9564C41.9692 41.0251 42.13 41.2954 42.0634 41.5618L38.4398 56.0563Z" stroke="currentColor" stroke-width="3" stroke-linecap="round" stroke-linejoin="round" />
  <path opacity="0.5" d="M43.6213 41.5149C43.8439 40.6246 44.6438 40 45.5616 40H64.4384C65.7396 40 66.6943 41.2228 66.3787 42.4851L63.5149 53.9403C62.6246 57.5016 59.4247 60 55.7538 60H41.5616C40.2604 60 39.3057 58.7772 39.6213 57.5149L43.6213 41.5149Z" fill="currentColor" />
  <path fill-rule="evenodd" clip-rule="evenodd" d="M64.1166 51.5335L63.5149 53.9402C63.3783 54.4869 63.1871 55.0086 62.9483 55.5H52C50.8954 55.5 50 54.6046 50 53.5C50 52.3954 50.8954 51.5 52 51.5H63.75C63.8752 51.5 63.9978 51.5115 64.1166 51.5335ZM65.8666 44.5335L64.875 48.5H52C50.8954 48.5 50 47.6046 50 46.5C50 45.3954 50.8954 44.5 52 44.5H65.5C65.6252 44.5 65.7478 44.5115 65.8666 44.5335Z" fill="currentColor" />
  <path d="M55 30.25L53 30.75V30.75C52.3889 30.9028 52.3405 31.7527 52.9303 31.9739L55 32.75" stroke="currentColor" stroke-width="4" stroke-linecap="round" stroke-linejoin="round" />
</svg>