<svg viewBox="0 0 80 80" fill="none">
  <path opacity="0.25" fill-rule="evenodd" clip-rule="evenodd" d="M40 23.6564L39.7279 23.9285L36.8995 21.1C34.274 18.4745 30.713 16.9995 27 16.9995C23.287 16.9995 19.726 18.4745 17.1005 21.1C14.475 23.7255 13 27.2865 13 30.9995C13 34.7125 14.475 38.2735 17.1005 40.899L31.1813 54.9798L31.2425 55.0413L38.3136 62.1124C38.7735 62.5723 39.4017 62.7614 40 62.6797V23.6564Z" fill="currentColor" />
  <path fill-rule="evenodd" clip-rule="evenodd" d="M40 31.8281L39.8639 31.9642L38.4497 30.55C37.137 29.2373 35.3565 28.4998 33.5 28.4998C31.6435 28.4998 29.863 29.2373 28.5503 30.55C27.2375 31.8628 26.5 33.6432 26.5 35.4998C26.5 37.3563 27.2375 39.1368 28.5503 40.4495L38.7272 50.6264L38.7639 50.6633C39.1023 51.0017 39.5578 51.1516 40 51.113V31.8281Z" fill="currentColor" />
</svg>