<svg viewBox="0 0 80 80" fill="none">
  <path opacity="0.25" fill-rule="evenodd" clip-rule="evenodd" d="M46.1865 39.9997L54.3497 33.4015C56.2287 31.8826 57.3207 29.5959 57.3207 27.1798V17L22.6797 17V27.1798C22.6797 29.5959 23.7717 31.8826 25.6507 33.4015L33.8147 40.0003L25.6515 46.5985C23.7724 48.1174 22.6805 50.4041 22.6805 52.8202V63L57.3215 63V52.8202C57.3215 50.4041 56.2295 48.1174 54.3504 46.5985L46.1865 39.9997Z" fill="currentColor" />
  <path d="M61 19C62.1046 19 63 18.1046 63 17C63 15.8954 62.1046 15 61 15V19ZM19 15C17.8954 15 17 15.8954 17 17C17 18.1046 17.8954 19 19 19V15ZM61 65C62.1046 65 63 64.1046 63 63C63 61.8954 62.1046 61 61 61V65ZM19 61C17.8954 61 17 61.8954 17 63C17 64.1046 17.8954 65 19 65V61ZM61 15L19 15V19L61 19V15ZM61 61L19 61V65H61V61Z" fill="currentColor" />
</svg>