<svg viewBox="0 0 80 80" fill="none">
  <path opacity="0.25" fill-rule="evenodd" clip-rule="evenodd" d="M16 16.2559C13.7909 16.2559 12 18.0467 12 20.2559L12 56.2559H32.126C32.5701 57.9811 34.1362 59.2559 36 59.2559H44C45.8638 59.2559 47.4299 57.9811 47.874 56.2559H68V20.2559C68 18.0467 66.2091 16.2559 64 16.2559L16 16.2559Z" fill="currentColor" />
  <path fill-rule="evenodd" clip-rule="evenodd" d="M32.126 56.2559L4.15215 56.2559C4.06812 56.2559 4 56.324 4 56.408C4 60.7423 7.51361 64.2559 11.8479 64.2559L68.1521 64.2559C72.4864 64.2559 76 60.7423 76 56.408C76 56.324 75.9319 56.2559 75.8479 56.2559L47.874 56.2559C47.4299 57.9811 45.8638 59.2559 44 59.2559H36C34.1362 59.2559 32.5701 57.9811 32.126 56.2559Z" fill="currentColor" />
  <path d="M44.2977 28.35L43.3248 30.0974L43.3248 30.0974L44.2977 28.35ZM44.5484 28.4896L45.5213 26.7421L44.5484 28.4896ZM44.5484 43.7785L43.5756 42.0311L43.5756 42.0311L44.5484 43.7785ZM44.2977 43.9182L45.2705 45.6656L45.2705 45.6656L44.2977 43.9182ZM35.3108 43.9182L36.2837 42.1707L36.2837 42.1707L35.3108 43.9182ZM35.0601 43.7785L34.0872 45.526L34.0872 45.526L35.0601 43.7785ZM35.0601 28.4896L36.0329 30.237L36.0329 30.237L35.0601 28.4896ZM35.3108 28.35L34.338 26.6025L34.338 26.6025L35.3108 28.35ZM37.5572 32.2422L38.5301 33.9896L38.5301 33.9896L37.5572 32.2422ZM42.0506 32.2422L43.0235 30.4947L43.0235 30.4947L42.0506 32.2422ZM37.4318 32.312L36.459 30.5645L36.459 30.5645L37.4318 32.312ZM37.4318 39.9564L36.459 41.7039L36.459 41.7039L37.4318 39.9564ZM37.5572 40.0262L38.5301 38.2788L38.5301 38.2788L37.5572 40.0262ZM42.0506 40.0262L41.0778 38.2788L41.0778 38.2788L42.0506 40.0262ZM42.176 39.9564L43.1489 41.7039L43.1489 41.7039L42.176 39.9564ZM42.176 32.312L41.2032 34.0594L41.2032 34.0594L42.176 32.312ZM41.943 24.3858L41.5957 26.3554L41.943 24.3858ZM42.6089 25.1351L44.6021 24.9704L42.6089 25.1351ZM30.6313 35.0713L28.6461 34.8287L30.6313 35.0713ZM30.245 34.1951L31.3514 32.5291L30.245 34.1951ZM28.2068 40.1698L26.3305 40.8621L28.2068 40.1698ZM28.5351 39.2091L29.6416 40.8752L28.5351 39.2091ZM31.3638 44.0422L30.5297 42.2244L31.3638 44.0422ZM30.4051 43.852L28.9054 45.1752L30.4051 43.852ZM34.2225 43.2481L33.0584 44.8744L34.2225 43.2481ZM33.3146 43.1472L34.1487 44.965L33.3146 43.1472ZM36.8349 45.136L34.8417 45.3006L36.8349 45.136ZM36.2664 44.3805L37.0326 42.5331L36.2664 44.3805ZM37.6659 47.8802L37.319 49.8499L37.6659 47.8802ZM36.9997 47.1309L35.0065 47.2956L36.9997 47.1309ZM46.294 43.1471L45.46 44.9649L46.294 43.1471ZM45.3862 43.248L44.2221 41.6217L45.3862 43.248ZM49.2018 43.851L47.702 42.528L49.2018 43.851ZM48.2431 44.0413L47.4091 45.8591L48.2431 44.0413ZM37 25.1346L35.0068 24.9699L37 25.1346ZM51.3998 40.1682L53.2763 40.8603L51.3998 40.1682ZM36.835 27.1321L34.8418 26.9675L36.835 27.1321ZM48.9772 37.1972L50.9624 37.4398L48.9772 37.1972ZM49.3635 38.0733L48.2571 39.7394L49.3635 38.0733ZM33.3141 29.1213L32.4801 30.9391L33.3141 29.1213ZM34.222 29.0204L33.0579 27.3941L34.222 29.0204ZM51.4009 32.1001L49.5242 32.7917L51.4009 32.1001ZM51.0724 33.0605L52.1789 34.7266L51.0724 33.0605ZM42.6092 47.1304L40.616 46.9658L42.6092 47.1304ZM41.9432 47.8797L41.5959 45.9101L41.9432 47.8797ZM48.2451 28.2265L49.0791 30.0443L48.2451 28.2265ZM43.3425 44.3803L44.1087 46.2277L43.3425 44.3803ZM42.7739 45.1358L44.7671 45.3005L42.7739 45.1358ZM45.3866 29.0205L46.5508 27.3942L45.3866 29.0205ZM46.2945 29.1214L47.1286 30.9392L46.2945 29.1214ZM49.3636 34.1954L50.47 35.8614L49.3636 34.1954ZM43.3424 27.8878L44.1087 26.0404L43.3424 27.8878ZM42.7739 27.1323L40.7807 27.2969L42.7739 27.1323ZM45.2705 26.6025C44.8919 26.3917 44.5039 26.2043 44.1087 26.0404L42.5761 29.7352C42.8306 29.8407 43.0806 29.9614 43.3248 30.0974L45.2705 26.6025ZM45.5213 26.7421L45.2705 26.6025L43.3248 30.0974L43.5756 30.237L45.5213 26.7421ZM46.5508 27.3942C46.2224 27.1591 45.8789 26.9412 45.5213 26.7421L43.5756 30.237C43.8006 30.3623 44.0164 30.4992 44.2225 30.6467L46.5508 27.3942ZM47.4111 26.4087L45.4605 27.3036L47.1286 30.9392L49.0791 30.0443L47.4111 26.4087ZM53.2775 31.4085C52.6938 29.8247 51.8211 28.3612 50.7042 27.0944L47.7038 29.7396C48.4938 30.6357 49.1113 31.6713 49.5242 32.7917L53.2775 31.4085ZM50.47 35.8614L52.1789 34.7266L49.966 31.3944L48.2571 32.5293L50.47 35.8614ZM51.0419 36.1341C51.0419 35.6947 51.015 35.259 50.9625 34.8289L46.992 35.3141C47.025 35.5839 47.0419 35.8576 47.0419 36.1341H51.0419ZM50.9624 37.4398C51.015 37.0096 51.0419 36.5736 51.0419 36.1341H47.0419C47.0419 36.4106 47.025 36.6845 46.992 36.9545L50.9624 37.4398ZM52.1779 37.5415L50.4699 36.4073L48.2571 39.7394L49.9651 40.8737L52.1779 37.5415ZM50.7017 45.1741C51.819 43.9074 52.6922 42.444 53.2763 40.8603L49.5234 39.4761C49.1102 40.5965 48.4923 41.632 47.702 42.528L50.7017 45.1741ZM45.46 44.9649L47.4091 45.8591L49.0771 42.2235L47.1281 41.3293L45.46 44.9649ZM45.5213 45.526C45.8787 45.327 46.222 45.1093 46.5502 44.8743L44.2221 41.6217C44.0161 41.7691 43.8004 41.9059 43.5756 42.0311L45.5213 45.526ZM45.2705 45.6656L45.5213 45.526L43.5756 42.0311L43.3248 42.1707L45.2705 45.6656ZM44.1087 46.2277C44.5039 46.0638 44.8919 45.8764 45.2705 45.6656L43.3248 42.1707C43.0806 42.3067 42.8306 42.4274 42.5762 42.5329L44.1087 46.2277ZM44.6024 47.2951L44.7671 45.3005L40.7807 44.9712L40.616 46.9658L44.6024 47.2951ZM37.319 49.8499C38.9633 50.1394 40.6464 50.1392 42.2906 49.8493L41.5959 45.9101C40.411 46.119 39.1977 46.1192 38.0127 45.9105L37.319 49.8499ZM34.8417 45.3006L35.0065 47.2956L38.9929 46.9663L38.8281 44.9713L34.8417 45.3006ZM34.338 45.6656C34.7167 45.8765 35.1048 46.0639 35.5002 46.2279L37.0326 42.5331C36.7781 42.4275 36.528 42.3067 36.2837 42.1707L34.338 45.6656ZM34.0872 45.526L34.338 45.6656L36.2837 42.1707L36.0329 42.0311L34.0872 45.526ZM33.0584 44.8744C33.3866 45.1094 33.7299 45.3271 34.0872 45.526L36.0329 42.0311C35.8081 41.9059 35.5925 41.7691 35.3865 41.6217L33.0584 44.8744ZM32.1978 45.86L34.1487 44.965L32.4806 41.3294L30.5297 42.2244L32.1978 45.86ZM26.3305 40.8621C26.9148 42.4456 27.788 43.9088 28.9054 45.1752L31.9048 42.5288C31.1144 41.633 30.4965 40.5977 30.0832 39.4774L26.3305 40.8621ZM29.1386 36.4075L27.4287 37.543L29.6416 40.8752L31.3515 39.7396L29.1386 36.4075ZM28.5667 36.1341C28.5667 36.5737 28.5935 37.0098 28.6461 37.4401L32.6166 36.9546C32.5836 36.6846 32.5667 36.4107 32.5667 36.1341H28.5667ZM28.6461 34.8287C28.5935 35.2588 28.5667 35.6946 28.5667 36.1341H32.5667C32.5667 35.8576 32.5835 35.5838 32.6165 35.3139L28.6461 34.8287ZM27.4278 34.7251L29.1386 35.8612L31.3514 32.5291L29.6406 31.393L27.4278 34.7251ZM28.9028 27.0932C27.7859 28.3598 26.9131 29.8231 26.3293 31.4066L30.0823 32.7904C30.4954 31.6701 31.113 30.6347 31.903 29.7387L28.9028 27.0932ZM34.1481 27.3035L32.1958 26.4078L30.5277 30.0434L32.4801 30.9391L34.1481 27.3035ZM34.0872 26.7421C33.7297 26.9412 33.3862 27.159 33.0579 27.3941L35.3861 30.6467C35.5922 30.4992 35.808 30.3623 36.0329 30.237L34.0872 26.7421ZM34.338 26.6025L34.0872 26.7421L36.0329 30.237L36.2837 30.0974L34.338 26.6025ZM35.5002 26.0402C35.1049 26.2042 34.7168 26.3917 34.338 26.6025L36.2837 30.0974C36.528 29.9614 36.7781 29.8406 37.0326 29.7351L35.5002 26.0402ZM35.0068 24.9699L34.8418 26.9675L38.8282 27.2968L38.9932 25.2992L35.0068 24.9699ZM42.2902 22.4162C40.6463 22.1263 38.9634 22.1261 37.3194 22.4156L38.0129 26.355C39.1978 26.1464 40.4109 26.1465 41.5957 26.3554L42.2902 22.4162ZM44.7671 26.9676L44.6021 24.9704L40.6157 25.2997L40.7807 27.2969L44.7671 26.9676ZM38.5301 33.9896C39.3221 33.5487 40.2858 33.5487 41.0778 33.9896L43.0235 30.4947C41.0218 29.3803 38.5861 29.3803 36.5844 30.4947L38.5301 33.9896ZM38.4047 34.0594L38.5301 33.9896L36.5844 30.4947L36.459 30.5645L38.4047 34.0594ZM37.1851 36.1342C37.1851 35.2726 37.6519 34.4785 38.4047 34.0594L36.459 30.5645C34.4381 31.6896 33.1851 33.8212 33.1851 36.1342H37.1851ZM38.4047 38.209C37.6519 37.7899 37.1851 36.9958 37.1851 36.1342H33.1851C33.1851 38.4472 34.438 40.5788 36.459 41.7039L38.4047 38.209ZM38.5301 38.2788L38.4047 38.209L36.459 41.7039L36.5844 41.7737L38.5301 38.2788ZM41.0778 38.2788C40.2858 38.7197 39.3221 38.7197 38.5301 38.2788L36.5844 41.7737C38.5861 42.8881 41.0218 42.8881 43.0235 41.7737L41.0778 38.2788ZM41.2032 38.209L41.0778 38.2788L43.0235 41.7737L43.1489 41.7039L41.2032 38.209ZM42.4227 36.1342C42.4227 36.9958 41.956 37.7899 41.2032 38.209L43.1489 41.7039C45.1698 40.5788 46.4227 38.4472 46.4227 36.1342H42.4227ZM41.2032 34.0594C41.956 34.4785 42.4227 35.2726 42.4227 36.1342H46.4227C46.4227 33.8212 45.1698 31.6896 43.1489 30.5645L41.2032 34.0594ZM41.0778 33.9896L41.2032 34.0594L43.1489 30.5645L43.0235 30.4947L41.0778 33.9896ZM41.5957 26.3554C41.009 26.252 40.6547 25.772 40.6157 25.2997L44.6021 24.9704C44.5016 23.7541 43.6122 22.6493 42.2902 22.4162L41.5957 26.3554ZM32.6165 35.3139C32.7411 34.2947 32.3287 33.1781 31.3514 32.5291L29.1386 35.8612C28.7353 35.5934 28.6051 35.1639 28.6461 34.8287L32.6165 35.3139ZM31.3515 39.7396C32.3289 39.0906 32.7412 37.9739 32.6166 36.9546L28.6461 37.4401C28.6052 37.1048 28.7353 36.6753 29.1386 36.4075L31.3515 39.7396ZM30.0832 39.4774C30.2952 40.0521 30.0415 40.6096 29.6416 40.8752L27.4287 37.543C26.3961 38.2287 25.8555 39.5749 26.3305 40.8621L30.0832 39.4774ZM30.5297 42.2244C30.9464 42.0333 31.5205 42.0932 31.9048 42.5288L28.9054 45.1752C29.7684 46.1534 31.1235 46.353 32.1978 45.86L30.5297 42.2244ZM35.3865 41.6217C34.5939 41.0544 33.4897 40.8664 32.4806 41.3294L34.1487 44.965C33.7326 45.1558 33.3204 45.062 33.0584 44.8744L35.3865 41.6217ZM38.8281 44.9713C38.733 43.8197 37.9743 42.9236 37.0326 42.5331L35.5002 46.2279C35.1861 46.0976 34.8809 45.775 34.8417 45.3006L38.8281 44.9713ZM38.0127 45.9105C38.5995 46.0139 38.9539 46.4939 38.9929 46.9663L35.0065 47.2956C35.107 48.5121 35.9968 49.6171 37.319 49.8499L38.0127 45.9105ZM47.1281 41.3293C46.1189 40.8663 45.0147 41.0543 44.2221 41.6217L46.5502 44.8743C46.2882 45.0619 45.876 45.1557 45.46 44.9649L47.1281 41.3293ZM47.702 42.528C48.0863 42.0923 48.6604 42.0323 49.0771 42.2235L47.4091 45.8591C48.4835 46.3521 49.8387 46.1524 50.7017 45.1741L47.702 42.528ZM38.9932 25.2992C38.9542 25.7716 38.5998 26.2517 38.0129 26.355L37.3194 22.4156C35.9971 22.6484 35.1073 23.7533 35.0068 24.9699L38.9932 25.2992ZM49.9651 40.8737C49.5651 40.6081 49.3115 40.0508 49.5234 39.4761L53.2763 40.8603C53.751 39.5732 53.2104 38.2272 52.1779 37.5415L49.9651 40.8737ZM37.0326 29.7351C37.9743 29.3445 38.7331 28.4484 38.8282 27.2968L34.8418 26.9675C34.881 26.4931 35.1862 26.1705 35.5002 26.0402L37.0326 29.7351ZM46.992 36.9545C46.8674 37.9737 47.2797 39.0904 48.2571 39.7394L50.4699 36.4073C50.8732 36.6751 51.0034 37.1046 50.9624 37.4398L46.992 36.9545ZM32.4801 30.9391C33.4893 31.4022 34.5935 31.214 35.3861 30.6467L33.0579 27.3941C33.3199 27.2066 33.7321 27.1127 34.1481 27.3035L32.4801 30.9391ZM49.5242 32.7917C49.3125 32.2171 49.5662 31.66 49.966 31.3944L52.1789 34.7266C53.2111 34.0411 53.7518 32.6955 53.2775 31.4085L49.5242 32.7917ZM40.616 46.9658C40.655 46.4935 41.0093 46.0135 41.5959 45.9101L42.2906 49.8493C43.6125 49.6162 44.5019 48.5114 44.6024 47.2951L40.616 46.9658ZM31.903 29.7387C31.5187 30.1746 30.9445 30.2346 30.5277 30.0434L32.1958 26.4078C31.1212 25.9148 29.7658 26.1145 28.9028 27.0932L31.903 29.7387ZM49.0791 30.0443C48.6623 30.2355 48.0881 30.1755 47.7038 29.7396L50.7042 27.0944C49.8413 26.1155 48.4857 25.9156 47.4111 26.4087L49.0791 30.0443ZM42.5762 42.5329C41.6345 42.9235 40.8759 43.8196 40.7807 44.9712L44.7671 45.3005C44.728 45.7749 44.4228 46.0975 44.1087 46.2277L42.5762 42.5329ZM29.6406 31.393C30.0405 31.6585 30.2942 32.2158 30.0823 32.7904L26.3293 31.4066C25.8547 32.6937 26.3954 34.0395 27.4278 34.7251L29.6406 31.393ZM44.2225 30.6467C45.0151 31.2141 46.1194 31.4023 47.1286 30.9392L45.4605 27.3036C45.8766 27.1127 46.2888 27.2067 46.5508 27.3942L44.2225 30.6467ZM48.2571 32.5293C47.2798 33.1783 46.8675 34.2948 46.992 35.3141L50.9625 34.8289C51.0034 35.1641 50.8733 35.5936 50.47 35.8614L48.2571 32.5293ZM44.1087 26.0404C44.4227 26.1707 44.7279 26.4933 44.7671 26.9676L40.7807 27.2969C40.8758 28.4485 41.6345 29.3446 42.5761 29.7352L44.1087 26.0404Z" fill="currentColor" />
</svg>