<svg viewBox="0 0 80 80" fill="none">
  <path fill-rule="evenodd" clip-rule="evenodd" d="M61.4483 32.9032C61.4483 21.2303 51.9856 11.7676 40.3127 11.7676H39.6871C28.0143 11.7676 18.5515 21.2303 18.5515 32.9032C18.5515 37.5189 20.0625 42.0077 22.8536 45.6839L39.9576 68.2118C39.9788 68.2398 40.021 68.2398 40.0423 68.2118L57.1463 45.6839C59.9374 42.0077 61.4483 37.5189 61.4483 32.9032Z" fill="currentColor" />
  <path d="M39.6871 13.7676H40.3127V9.76758H39.6871V13.7676ZM41.5505 67.0024L24.4465 44.4745L21.2607 46.8933L38.3646 69.4212L41.5505 67.0024ZM55.5534 44.4745L38.4494 67.0024L41.6352 69.4212L58.7392 46.8933L55.5534 44.4745ZM38.3646 69.4211C39.1862 70.5034 40.8136 70.5034 41.6352 69.4211L38.4494 67.0024C39.2284 65.9763 40.7714 65.9763 41.5505 67.0024L38.3646 69.4211ZM16.5515 32.9032C16.5515 37.9557 18.2054 42.8692 21.2607 46.8933L24.4465 44.4745C21.9195 41.1462 20.5515 37.0821 20.5515 32.9032H16.5515ZM58.7392 46.8933C61.7944 42.8692 63.4483 37.9557 63.4483 32.9032H59.4483C59.4483 37.0821 58.0804 41.1461 55.5534 44.4745L58.7392 46.8933ZM40.3127 13.7676C50.881 13.7676 59.4483 22.3349 59.4483 32.9032H63.4483C63.4483 20.1257 53.0902 9.76758 40.3127 9.76758V13.7676ZM39.6871 9.76758C26.9097 9.76758 16.5515 20.1257 16.5515 32.9032H20.5515C20.5515 22.3349 29.1188 13.7676 39.6871 13.7676V9.76758Z" fill="currentColor" />
</svg>