<svg viewBox="0 0 80 80" fill="none">
  <path fill-rule="evenodd" clip-rule="evenodd" d="M33.2273 32.428L34.8948 35.5683C35.0391 35.8401 35.1188 36.1415 35.1275 36.4491L35.9449 65.058C35.9759 66.1399 36.8618 67.0008 37.9441 67.0008H42.0568C43.1391 67.0008 44.0251 66.1399 44.056 65.058L44.8737 36.4389C44.8825 36.1305 44.9625 35.8283 45.1075 35.556L46.7725 32.4289C44.8707 33.9569 42.4867 34.8125 40.0005 34.8125C37.5137 34.8125 35.1293 33.9566 33.2273 32.428Z" fill="currentColor" />
  <path opacity="0.25" d="M35.309 14.2591C38.2734 12.8315 41.7266 12.8315 44.691 14.2591C47.6554 15.6866 49.8084 18.3864 50.5406 21.5942C51.2727 24.8019 50.5043 28.1685 48.4529 30.7409C46.4014 33.3134 43.2902 34.8116 40 34.8116C36.7098 34.8116 33.5986 33.3134 31.5471 30.7409C29.4957 28.1685 28.7273 24.8019 29.4594 21.5942C30.1916 18.3864 32.3446 15.6866 35.309 14.2591Z" fill="currentColor" />
  <path fill-rule="evenodd" clip-rule="evenodd" d="M28.7575 28C28.3274 28 27.9416 27.7259 27.8287 27.3109C27.6232 26.5553 27.4882 25.7813 27.426 24.999C27.3822 24.4484 27.8341 24 28.3863 24L51.6137 24C52.1659 24 52.6178 24.4484 52.574 24.999C52.5118 25.7813 52.3768 26.5553 52.1713 27.3109C52.0584 27.7259 51.6726 28 51.2425 28L28.7575 28Z" fill="currentColor" />
</svg>