<svg viewBox="0 0 80 80" fill="none">
  <g opacity="0.25">
    <path fill-rule="evenodd" clip-rule="evenodd" d="M49.8986 16.1007C43.5601 13.4752 36.4382 13.4752 30.0996 16.1007C23.7611 18.7262 18.7251 23.7622 16.0996 30.1007C13.4741 36.4393 13.4741 43.5612 16.0996 49.8997C18.7251 56.2383 23.7611 61.2742 30.0996 63.8997C36.4382 66.5252 43.5601 66.5252 49.8986 63.8997C50.1665 63.7887 50.4321 63.6735 50.6953 63.5539C52.4693 62.7484 51.7083 60.1519 49.8242 59.6557C48.9427 59.4236 48.0731 59.1312 47.2215 58.7784C42.2412 56.7155 38.2844 52.7587 36.2215 47.7784C34.1586 42.7981 34.1586 37.2024 36.2215 32.2221C38.2844 27.2418 42.2412 23.285 47.2215 21.2221C48.0731 20.8693 48.9428 20.5769 49.8243 20.3447C51.7084 19.8486 52.4694 17.2521 50.6954 16.4465C50.4322 16.327 50.1666 16.2117 49.8986 16.1007Z" fill="currentColor" />
    <path d="M30.0996 16.1007L29.5256 14.7149L30.0996 16.1007ZM49.8986 16.1007L50.4726 14.7149V14.7149L49.8986 16.1007ZM16.0996 30.1007L17.4854 30.6747H17.4854L16.0996 30.1007ZM16.0996 49.8997L17.4854 49.3257L16.0996 49.8997ZM30.0996 63.8997L29.5256 65.2855H29.5256L30.0996 63.8997ZM49.8986 63.8997L50.4726 65.2855L49.8986 63.8997ZM47.2215 58.7784L46.6474 60.1642L47.2215 58.7784ZM36.2215 47.7784L37.6073 47.2044L36.2215 47.7784ZM36.2215 32.2221L37.6073 32.7961L36.2215 32.2221ZM47.2215 21.2221L46.6474 19.8362L47.2215 21.2221ZM50.6954 16.4465L50.0752 17.8123L50.6954 16.4465ZM50.6953 63.5539L50.0751 62.1882L50.6953 63.5539ZM49.8242 59.6557L49.4423 61.1063L49.8242 59.6557ZM30.6737 17.4865C36.6446 15.0133 43.3536 15.0133 49.3246 17.4865L50.4726 14.7149C43.7666 11.9372 36.2317 11.9372 29.5256 14.7149L30.6737 17.4865ZM17.4854 30.6747C19.9587 24.7037 24.7027 19.9598 30.6737 17.4865L29.5256 14.7149C22.8195 17.4927 17.4916 22.8206 14.7138 29.5267L17.4854 30.6747ZM17.4854 49.3257C15.0122 43.3547 15.0122 36.6457 17.4854 30.6747L14.7138 29.5267C11.9361 36.2328 11.9361 43.7677 14.7138 50.4737L17.4854 49.3257ZM30.6737 62.5139C24.7027 60.0406 19.9587 55.2967 17.4854 49.3257L14.7138 50.4737C17.4916 57.1798 22.8195 62.5078 29.5256 65.2855L30.6737 62.5139ZM49.3246 62.5139C43.3536 64.9872 36.6447 64.9872 30.6736 62.5139L29.5256 65.2855C36.2317 68.0633 43.7666 68.0633 50.4726 65.2855L49.3246 62.5139ZM50.0751 62.1882C49.8272 62.3007 49.577 62.4093 49.3246 62.5139L50.4726 65.2855C50.7561 65.1681 51.0371 65.0462 51.3155 64.9197L50.0751 62.1882ZM50.2062 58.2052C49.3898 57.9902 48.5844 57.7194 47.7955 57.3926L46.6474 60.1642C47.5619 60.543 48.4957 60.857 49.4423 61.1063L50.2062 58.2052ZM47.7955 57.3926C43.1827 55.4819 39.5179 51.8171 37.6073 47.2044L34.8356 48.3524C37.0508 53.7003 41.2996 57.9491 46.6474 60.1642L47.7955 57.3926ZM37.6073 47.2044C35.6966 42.5917 35.6966 37.4088 37.6073 32.7961L34.8356 31.648C32.6205 36.9959 32.6205 43.0046 34.8356 48.3524L37.6073 47.2044ZM37.6073 32.7961C39.5179 28.1834 43.1827 24.5185 47.7955 22.6079L46.6474 19.8362C41.2996 22.0514 37.0508 26.3002 34.8356 31.648L37.6073 32.7961ZM47.7955 22.6079C48.5844 22.2811 49.3899 22.0103 50.2063 21.7953L49.4423 18.8942C48.4957 19.1434 47.5619 19.4575 46.6474 19.8362L47.7955 22.6079ZM49.3246 17.4865C49.577 17.5911 49.8273 17.6997 50.0752 17.8123L51.3156 15.0807C51.0371 14.9543 50.7561 14.8323 50.4726 14.7149L49.3246 17.4865ZM50.2063 21.7953C51.7242 21.3956 52.7615 20.1699 53.0864 18.8772C53.2523 18.2169 53.2508 17.4681 52.9615 16.7591C52.6627 16.0267 52.0949 15.4346 51.3156 15.0807L50.0752 17.8123C50.1383 17.841 50.1636 17.865 50.1704 17.8719C50.1771 17.8788 50.1803 17.8839 50.1838 17.8923C50.1919 17.9121 50.2149 17.9946 50.1768 18.1461C50.0937 18.4771 49.8084 18.7978 49.4423 18.8942L50.2063 21.7953ZM51.3155 64.9197C52.0948 64.5659 52.6627 63.9737 52.9614 63.2414C53.2507 62.5323 53.2523 61.7836 53.0863 61.1232C52.7615 59.8306 51.7242 58.6049 50.2062 58.2052L49.4423 61.1063C49.8084 61.2027 50.0936 61.5234 50.1768 61.8544C50.2148 62.0059 50.1918 62.0883 50.1837 62.1082C50.1803 62.1166 50.177 62.1217 50.1703 62.1285C50.1635 62.1355 50.1382 62.1595 50.0751 62.1882L51.3155 64.9197Z" fill="currentColor" />
  </g>
  <path fill-rule="evenodd" clip-rule="evenodd" d="M31.2788 19.8131C32.2027 19.4305 33.2407 19.4305 34.1646 19.8131C35.0884 20.1958 35.8224 20.9298 36.2051 21.8536C36.5877 22.7775 36.5877 23.8155 36.2051 24.7393C35.8224 25.6632 35.0884 26.3972 34.1646 26.7798C33.2407 27.1625 32.2027 27.1625 31.2788 26.7798C30.355 26.3972 29.621 25.6632 29.2383 24.7393C28.8557 23.8155 28.8557 22.7775 29.2383 21.8536C29.621 20.9298 30.355 20.1958 31.2788 19.8131ZM21.5228 33.4948C23.1155 32.8351 24.9051 32.8351 26.4979 33.4948C28.0906 34.1546 29.356 35.42 30.0157 37.0127C30.6755 38.6055 30.6755 40.395 30.0157 41.9878C29.356 43.5805 28.0906 44.8459 26.4979 45.5056C24.9051 46.1654 23.1155 46.1654 21.5228 45.5056C19.9301 44.8459 18.6647 43.5805 18.0049 41.9878C17.3452 40.395 17.3452 38.6055 18.0049 37.0127C18.6647 35.42 19.9301 34.1546 21.5228 33.4948ZM37.5466 55.7981C37.1856 55.6486 36.78 55.6486 36.419 55.7981C36.058 55.9477 35.7712 56.2345 35.6216 56.5955C35.4721 56.9565 35.4721 57.3621 35.6216 57.7231C35.7712 58.0841 36.058 58.3709 36.419 58.5205C36.78 58.67 37.1856 58.67 37.5466 58.5205C37.9076 58.3709 38.1944 58.0841 38.344 57.7231C38.4935 57.3621 38.4935 56.9565 38.344 56.5955C38.1944 56.2345 37.9076 55.9477 37.5466 55.7981Z" fill="currentColor" />
</svg>