<svg viewBox="0 0 80 80" fill="none">
  <path fill-rule="evenodd" clip-rule="evenodd" d="M16.3461 51.43L38.0119 38.8962L38.0336 13.7665C39.3729 13.6638 40.7181 13.6638 42.0574 13.7665L42.0792 38.8962L63.745 51.43C63.1615 52.6399 62.4862 53.8034 61.7251 54.9102L42.0456 43.571V66.2361C41.3821 66.2867 40.715 66.3122 40.0455 66.3122C39.3761 66.3122 38.709 66.2867 38.0456 66.2362V43.5709L18.366 54.9102C17.6048 53.8034 16.9295 52.6398 16.3461 51.43Z" fill="currentColor" />
  <path opacity="0.25" d="M31.001 15.2754C36.8138 13.1597 43.1862 13.1597 48.999 15.2754C54.8119 17.3911 59.6934 21.4872 62.7863 26.8443C65.8793 32.2014 66.9858 38.477 65.9117 44.5689C64.8375 50.6608 61.6513 56.1795 56.9126 60.1557C52.174 64.1319 46.1859 66.3114 40 66.3114C33.8141 66.3114 27.826 64.1319 23.0874 60.1557C18.3487 56.1795 15.1625 50.6608 14.0883 44.5689C13.0142 38.477 14.1207 32.2014 17.2137 26.8443C20.3066 21.4872 25.1881 17.3911 31.001 15.2754Z" fill="currentColor" />
</svg>