<svg viewBox="0 0 80 80" fill="none">
  <path opacity="0.25" fill-rule="evenodd" clip-rule="evenodd" d="M47.7236 72.1172C47.7236 74.3239 45.9347 76.1128 43.728 76.1128H35.728C33.5165 76.1128 31.7236 74.32 31.7236 72.1084L31.7236 24.3578C31.7236 17.7259 33.9807 11.2914 38.1236 6.11279L38.9236 5.11279C39.3338 4.60013 40.1135 4.60013 40.5236 5.11279L41.3236 6.11279C45.4666 11.2914 47.7236 17.7259 47.7236 24.3578L47.7236 72.1172Z" fill="currentColor" />
  <path opacity="0.5" d="M55.2314 36.1128C55.2314 35.2844 54.5599 34.6128 53.7314 34.6128C52.903 34.6128 52.2314 35.2844 52.2314 36.1128H55.2314ZM51.7314 61.6128C52.5599 61.6128 53.2314 60.9412 53.2314 60.1128C53.2314 59.2844 52.5599 58.6128 51.7314 58.6128V61.6128ZM55.2314 58.1128L55.2314 36.1128H52.2314L52.2314 58.1128H55.2314ZM47.7314 61.6128H51.7314V58.6128H47.7314V61.6128ZM52.2314 58.1128C52.2314 58.3889 52.0076 58.6128 51.7314 58.6128V61.6128C53.6644 61.6128 55.2314 60.0458 55.2314 58.1128H52.2314Z" fill="currentColor" />
  <path d="M31.7314 60.1128L47.7227 60.1128" stroke="currentColor" stroke-width="3" stroke-linejoin="round" />
</svg>