<svg viewBox="0 0 80 80" fill="none">
  <path opacity="0.25" fill-rule="evenodd" clip-rule="evenodd" d="M32.1125 68.1128C32.1125 72.5311 35.6943 76.1128 40.1125 76.1128C44.5308 76.1128 48.1125 72.5311 48.1125 68.1128L48.1125 19.3745C48.1125 15.9684 46.9533 12.6638 44.8256 10.0041L41.7125 6.11279L40.9125 5.11279C40.5024 4.60013 39.7227 4.60013 39.3125 5.11279L38.5125 6.11279L35.3995 10.0041C33.2718 12.6638 32.1125 15.9684 32.1125 19.3745L32.1125 68.1128Z" fill="currentColor" />
  <path opacity="0.5" fill-rule="evenodd" clip-rule="evenodd" d="M32.2529 69.6128C32.1608 69.1269 32.1125 68.6255 32.1125 68.1128L32.1125 66.6128H48.1038C48.1067 66.6128 48.1096 66.6128 48.1125 66.6128V68.1128C48.1125 68.6255 48.0643 69.1269 47.9722 69.6128H32.2529ZM47.8125 16.6412C48.0109 17.6512 48.1125 18.6838 48.1125 19.7253V20.2259L45.8742 22.4655C44.8978 23.4424 43.3141 23.4424 42.3377 22.4655L40.1082 20.2347L37.8786 22.4655C36.9022 23.4424 35.3185 23.4424 34.3421 22.4655L32.1125 20.2347V19.7253C32.1125 18.6844 32.214 17.6524 32.4122 16.6429C32.6912 16.6995 32.9572 16.836 33.1735 17.0524L36.1103 19.9909L38.3399 17.7601C39.3163 16.7832 40.9 16.7832 41.8764 17.7601L44.106 19.9909L47.0428 17.0524C47.2613 16.8338 47.5305 16.6967 47.8125 16.6412Z" fill="currentColor" />
  <path fill-rule="evenodd" clip-rule="evenodd" d="M35.3148 10.1099L38.5125 6.11279L39.3125 5.11279L40.1125 4.11279L40.9125 5.11279L41.7125 6.11279L44.9102 10.1099L35.3148 10.1099Z" fill="currentColor" />
  <path d="M40.1082 62.1128L40.1082 29.1128" stroke="currentColor" stroke-width="4" stroke-linecap="round" stroke-linejoin="round" />
</svg>