<svg viewBox="0 0 80 80" fill="none">
  <path opacity="0.25" d="M60.4436 37.4004C59.8913 36.4438 58.6681 36.1161 57.7115 36.6683C56.7549 37.2206 56.4272 38.4438 56.9795 39.4004L60.4436 37.4004ZM48.2944 58.4992C47.1899 58.4992 46.2944 59.3946 46.2944 60.4992C46.2944 61.6038 47.1899 62.4992 48.2944 62.4992V58.4992ZM43.8091 62.4992C44.9137 62.4992 45.8091 61.6038 45.8091 60.4992C45.8091 59.3946 44.9137 58.4992 43.8091 58.4992L43.8091 62.4992ZM43.7729 58.4992C42.6684 58.4992 41.7729 59.3946 41.7729 60.4992C41.7729 61.6038 42.6684 62.4992 43.7729 62.4992L43.7729 58.4992ZM66.2735 51.4982L64.5415 52.4982L66.2735 51.4982ZM61.0768 60.4992V58.4992V60.4992ZM56.9795 39.4004L64.5415 52.4982L68.0056 50.4982L60.4436 37.4004L56.9795 39.4004ZM61.0768 58.4992L48.2944 58.4992V62.4992L61.0768 62.4992V58.4992ZM43.8091 58.4992H43.7729L43.7729 62.4992H43.8091L43.8091 58.4992ZM68.0056 58.4989C69.4348 56.0235 69.4348 52.9736 68.0056 50.4982L64.5415 52.4982C65.2561 53.736 65.2561 55.2611 64.5415 56.4989L68.0056 58.4989ZM64.5415 56.4989C63.8268 57.7367 62.5061 58.4992 61.0768 58.4992V62.4992C63.9352 62.4992 66.5764 60.9743 68.0056 58.4989L64.5415 56.4989Z" fill="currentColor" />
  <path d="M48.3003 55.3284L48.3003 65.6716C48.3003 66.7153 47.0383 67.238 46.3003 66.5L41.7145 61.9142C40.9335 61.1332 40.9335 59.8668 41.7145 59.0858L46.3003 54.5C47.0383 53.7619 48.3003 54.2847 48.3003 55.3284Z" fill="currentColor" stroke="currentColor" stroke-width="3" stroke-linecap="round" stroke-linejoin="round" />
  <path opacity="0.25" d="M25.804 27.599C25.2518 28.5555 25.5795 29.7787 26.5361 30.331C27.4927 30.8833 28.7159 30.5555 29.2681 29.599L25.804 27.599ZM50.1507 27.571C50.703 28.5276 51.9262 28.8553 52.8828 28.3031C53.8394 27.7508 54.1671 26.5276 53.6148 25.571L50.1507 27.571ZM55.8575 29.4554C55.3052 28.4988 54.082 28.171 53.1254 28.7233C52.1688 29.2756 51.8411 30.4988 52.3934 31.4554L55.8575 29.4554ZM52.4115 31.4867C52.9638 32.4433 54.1869 32.7711 55.1435 32.2188C56.1001 31.6665 56.4279 30.4433 55.8756 29.4867L52.4115 31.4867ZM29.2681 29.599L36.8302 16.5012L33.3661 14.5012L25.804 27.599L29.2681 29.599ZM43.7595 16.5012L50.1507 27.571L53.6148 25.571L47.2236 14.5012L43.7595 16.5012ZM52.3934 31.4554L52.4115 31.4867L55.8756 29.4867L55.8575 29.4554L52.3934 31.4554ZM40.2949 10.5008C37.4365 10.5008 34.7952 12.0257 33.3661 14.5012L36.8302 16.5012C37.5448 15.2633 38.8655 14.5008 40.2949 14.5008L40.2949 10.5008ZM40.2949 14.5008C41.7242 14.5008 43.0449 15.2633 43.7595 16.5012L47.2236 14.5012C45.7945 12.0257 43.1532 10.5008 40.2949 10.5008L40.2949 14.5008Z" fill="currentColor" />
  <path d="M47.4022 29.1507L56.3596 23.9792C57.2635 23.4573 58.3472 24.2888 58.077 25.297L56.3985 31.5613C56.1126 32.6282 55.016 33.2614 53.949 32.9755L47.6847 31.297C46.6765 31.0269 46.4982 29.6726 47.4022 29.1507Z" fill="currentColor" stroke="currentColor" stroke-width="3" stroke-linecap="round" stroke-linejoin="round" />
  <path opacity="0.25" d="M34.6357 62.4958C35.7403 62.4958 36.6357 61.6003 36.6357 60.4958C36.6357 59.3912 35.7403 58.4958 34.6357 58.4958L34.6357 62.4958ZM22.4381 41.4249C22.9904 40.4683 22.6627 39.2451 21.7061 38.6928C20.7495 38.1406 19.5263 38.4683 18.974 39.4249L22.4381 41.4249ZM21.2167 35.5405C20.6644 36.4971 20.9922 37.7203 21.9487 38.2726C22.9053 38.8249 24.1285 38.4971 24.6808 37.5405L21.2167 35.5405ZM24.6989 37.5092C25.2512 36.5526 24.9234 35.3294 23.9668 34.7771C23.0103 34.2248 21.7871 34.5526 21.2348 35.5092L24.6989 37.5092ZM34.6357 58.4958L19.5117 58.4958L19.5117 62.4958L34.6357 62.4958L34.6357 58.4958ZM16.047 52.4947L22.4381 41.4249L18.974 39.4249L12.5829 50.4947L16.047 52.4947ZM24.6808 37.5405L24.6989 37.5092L21.2348 35.5092L21.2167 35.5405L24.6808 37.5405ZM12.5829 58.4954C14.012 60.9708 16.6533 62.4958 19.5117 62.4958L19.5117 58.4958C18.0824 58.4958 16.7616 57.7332 16.047 56.4954L12.5829 58.4954ZM16.047 56.4954C15.3323 55.2576 15.3323 53.7326 16.047 52.4947L12.5829 50.4947C11.1537 52.9702 11.1537 56.02 12.5829 58.4954L16.047 56.4954Z" fill="currentColor" />
  <path d="M25.1808 43.015L16.2234 37.8434C15.3195 37.3215 15.4978 35.9673 16.506 35.6971L22.7703 34.0186C23.8372 33.7327 24.9339 34.3659 25.2198 35.4328L26.8983 41.6971C27.1684 42.7053 26.0848 43.5368 25.1808 43.015Z" fill="currentColor" stroke="currentColor" stroke-width="3" stroke-linecap="round" stroke-linejoin="round" />
</svg>