<svg viewBox="0 0 80 80" fill="none">
  <path fill-rule="evenodd" clip-rule="evenodd" d="M21 60.9512V66.9512C21 68.0557 21.8954 68.9512 23 68.9512H27C28.1046 68.9512 29 68.0557 29 66.9512V60.9512H21ZM51 60.9512V66.9512C51 68.0557 51.8954 68.9512 53 68.9512H57C58.1046 68.9512 59 68.0557 59 66.9512V60.9512H51Z" fill="currentColor" />
  <path opacity="0.25" fill-rule="evenodd" clip-rule="evenodd" d="M20 23.9512H16C14.8954 23.9512 14 24.8466 14 25.9512V33.9512C14 35.0557 14.8954 35.9512 16 35.9512H20V23.9512ZM60 35.9512H64C65.1046 35.9512 66 35.0557 66 33.9512V25.9512C66 24.8466 65.1046 23.9512 64 23.9512H60V35.9512Z" fill="currentColor" />
  <g opacity="0.25">
    <path fill-rule="evenodd" clip-rule="evenodd" d="M59.0967 15.0591C59.6507 15.3058 60 15.8599 60 16.4663V36.9512C60 38.0557 59.1046 38.9512 58 38.9512H22C20.8954 38.9512 20 38.0557 20 36.9512V16.4663C20 15.8599 20.3493 15.3058 20.9033 15.0591C26.9141 12.3829 33.4203 11 40 11C46.5797 11 53.0859 12.3829 59.0967 15.0591Z" fill="currentColor" />
  </g>
  <rect x="20" y="22.9512" width="40" height="16" fill="currentColor" />
  <g opacity="0.25">
    <path d="M16 44.9512C16 41.6375 18.6863 38.9512 22 38.9512H58C61.3137 38.9512 64 41.6375 64 44.9512V56.9512C64 59.1603 62.2091 60.9512 60 60.9512H20C17.7909 60.9512 16 59.1603 16 56.9512V44.9512Z" fill="currentColor" />
  </g>
  <g opacity="0.5">
    <path fill-rule="evenodd" clip-rule="evenodd" d="M26 46.9512C24.3431 46.9512 23 48.2943 23 49.9512C23 51.608 24.3431 52.9512 26 52.9512C27.6569 52.9512 29 51.608 29 49.9512C29 48.2943 27.6569 46.9512 26 46.9512ZM54 46.9512C52.3431 46.9512 51 48.2943 51 49.9512C51 51.608 52.3431 52.9512 54 52.9512C55.6569 52.9512 57 51.608 57 49.9512C57 48.2943 55.6569 46.9512 54 46.9512Z" fill="currentColor" />
    <path d="M24.5 49.9512C24.5 49.1227 25.1716 48.4512 26 48.4512V45.4512C23.5147 45.4512 21.5 47.4659 21.5 49.9512H24.5ZM26 51.4512C25.1716 51.4512 24.5 50.7796 24.5 49.9512H21.5C21.5 52.4365 23.5147 54.4512 26 54.4512V51.4512ZM27.5 49.9512C27.5 50.7796 26.8284 51.4512 26 51.4512V54.4512C28.4853 54.4512 30.5 52.4365 30.5 49.9512H27.5ZM26 48.4512C26.8284 48.4512 27.5 49.1227 27.5 49.9512H30.5C30.5 47.4659 28.4853 45.4512 26 45.4512V48.4512ZM52.5 49.9512C52.5 49.1227 53.1716 48.4512 54 48.4512V45.4512C51.5147 45.4512 49.5 47.4659 49.5 49.9512H52.5ZM54 51.4512C53.1716 51.4512 52.5 50.7796 52.5 49.9512H49.5C49.5 52.4365 51.5147 54.4512 54 54.4512V51.4512ZM55.5 49.9512C55.5 50.7796 54.8284 51.4512 54 51.4512V54.4512C56.4853 54.4512 58.5 52.4365 58.5 49.9512H55.5ZM54 48.4512C54.8284 48.4512 55.5 49.1227 55.5 49.9512H58.5C58.5 47.4659 56.4853 45.4512 54 45.4512V48.4512Z" fill="currentColor" />
  </g>
</svg>