<svg viewBox="0 0 80 80" fill="none">
  <path opacity="0.5" fill-rule="evenodd" clip-rule="evenodd" d="M45.9536 48.8355L48.1905 51.0724C47.4887 52.8655 47.862 54.9822 49.3104 56.431L62.0389 69.1629C63.9908 71.1153 67.156 71.1156 69.1082 69.1634C71.06 67.2116 71.0602 64.0471 69.1087 62.095L56.3802 49.3632C54.9307 47.9133 52.8122 47.54 51.0182 48.2432L48.7876 46.0127C47.9446 47.0502 46.9946 47.9966 45.9536 48.8355Z" fill="currentColor" />
  <path opacity="0.25" d="M15.5965 29.0688C17.3583 22.4939 22.4939 17.3584 29.0687 15.5966C35.6436 13.8349 42.6589 15.7147 47.4721 20.5278C52.2852 25.341 54.165 32.3563 52.4033 38.9312C50.6415 45.5061 45.506 50.6416 38.9311 52.4034C32.3562 54.1651 25.3409 52.2853 20.5277 47.4722C15.7146 42.659 13.8348 35.6437 15.5965 29.0688Z" fill="currentColor" />
  <path d="M20.7417 33.9973C20.7416 35.1019 21.637 35.9973 22.7416 35.9974C23.8462 35.9975 24.7416 35.1021 24.7417 33.9975L20.7417 33.9973ZM28.3698 24.2498L29.3698 25.9818L28.3698 24.2498ZM33.9968 24.7417C35.1014 24.7416 35.9967 23.846 35.9966 22.7415C35.9964 21.6369 35.1009 20.7416 33.9963 20.7417L33.9968 24.7417ZM24.7417 33.9975C24.7419 30.6907 26.5061 27.6352 29.3698 25.9818L27.3698 22.5177C23.2685 24.8856 20.742 29.2615 20.7417 33.9973L24.7417 33.9975ZM33.9963 20.7417C31.7086 20.742 29.42 21.334 27.3698 22.5177L29.3698 25.9818C30.8015 25.1552 32.3987 24.7419 33.9968 24.7417L33.9963 20.7417Z" fill="currentColor" />
</svg>