<svg viewBox="0 0 80 80" fill="none">
  <path fill-rule="evenodd" clip-rule="evenodd" d="M33.5 18C32.6716 18 32 18.6716 32 19.5V23.4V24H34H46H48V23.4V19.5C48 18.6716 47.3284 18 46.5 18H45.7143H43.4286H36.5714H34.2857H33.5Z" fill="currentColor" />
  <path opacity="0.5" fill-rule="evenodd" clip-rule="evenodd" d="M26 26.5C26 25.1193 27.1193 24 28.5 24H30H34H46H50H51.5C52.8807 24 54 25.1193 54 26.5V33V34V35.6004L41.857 30.7431C40.6649 30.2663 39.3351 30.2663 38.143 30.7431L26 35.6004V34V33V26.5Z" fill="currentColor" />
  <path opacity="0.25" fill-rule="evenodd" clip-rule="evenodd" d="M58.8204 42.3057C59.4924 39.853 58.2163 37.2866 55.8551 36.3421L41.857 30.7429C40.6649 30.266 39.3351 30.266 38.1431 30.7429L24.145 36.3421C21.7838 37.2866 20.5077 39.853 21.1796 42.3057L25.5675 58.3213C26.1627 60.4938 28.1372 62.0001 30.3898 62.0001H49.6103C51.8629 62.0001 53.8374 60.4938 54.4326 58.3213L58.8204 42.3057Z" fill="currentColor" />
  <path d="M40 30.3853L40 33.3491L40 62" stroke="currentColor" stroke-width="3" />
</svg>