<svg viewBox="0 0 80 80" fill="none">
  <g opacity="0.25">
    <path fill-rule="evenodd" clip-rule="evenodd" d="M17.5 67.5C18.6046 67.5 19.5 66.6046 19.5 65.5L19.5 63.5L19.5 51.5V49.5C19.5 48.3954 18.6046 47.5 17.5 47.5L13.5 47.5C12.3954 47.5 11.5 48.3954 11.5 49.5L11.5 51.5L11.5 63.5L11.5 65.5C11.5 66.6046 12.3954 67.5 13.5 67.5H17.5Z" fill="currentColor" />
    <path d="M19.5 63.5H17.5H19.5ZM19.5 51.5L21.5 51.5L19.5 51.5ZM11.5 51.5L13.5 51.5L11.5 51.5ZM11.5 63.5H9.5H11.5ZM13.5 67.5V65.5V67.5ZM13.5 47.5V45.5V47.5ZM17.5 47.5V49.5V47.5ZM17.5 67.5V69.5V67.5ZM17.5 63.5V65.5H21.5L21.5 63.5H17.5ZM17.5 51.5L17.5 63.5H21.5L21.5 51.5L17.5 51.5ZM17.5 49.5V51.5L21.5 51.5V49.5L17.5 49.5ZM13.5 49.5L17.5 49.5V45.5L13.5 45.5L13.5 49.5ZM13.5 51.5V49.5H9.5L9.5 51.5L13.5 51.5ZM13.5 63.5L13.5 51.5L9.5 51.5L9.5 63.5H13.5ZM13.5 65.5V63.5H9.5L9.5 65.5H13.5ZM17.5 65.5H13.5L13.5 69.5H17.5L17.5 65.5ZM9.5 65.5C9.5 67.7091 11.2909 69.5 13.5 69.5L13.5 65.5H9.5ZM13.5 45.5C11.2909 45.5 9.5 47.2909 9.5 49.5H13.5L13.5 45.5ZM21.5 49.5C21.5 47.2909 19.7091 45.5 17.5 45.5V49.5L21.5 49.5ZM17.5 65.5L17.5 69.5C19.7091 69.5 21.5 67.7091 21.5 65.5H17.5Z" fill="currentColor" />
  </g>
</svg>