<svg viewBox="0 0 80 80" fill="none">
  <path opacity="0.5" d="M45.1278 12.4948C49.0213 7.4582 56.4523 6.98456 60.9538 11.486C65.4548 15.987 64.9819 23.4169 59.9466 27.3109L35.9375 45.8781C35.4852 46.2278 34.8436 46.187 34.4393 45.7827L26.6611 38.0045C26.2569 37.6003 26.216 36.9586 26.5656 36.5063L45.1278 12.4948Z" fill="currentColor" />
  <path opacity="0.5" d="M39.0328 41.8908L30.5475 33.4055" stroke="currentColor" stroke-width="3" stroke-linecap="round" stroke-linejoin="round" />
  <path opacity="0.25" fill-rule="evenodd" clip-rule="evenodd" d="M26.7291 38.0723L34.3658 45.709C34.6309 45.9741 34.7459 46.3541 34.6724 46.7216L33.7797 51.1854C33.094 54.6137 30.6036 57.4008 27.2738 58.4663L13.1699 62.9795C12.1442 63.3078 11.8163 62.036 12.5778 61.2745L21.1614 52.691C21.7163 52.136 22.5694 52.0325 23.3409 51.889C23.4043 51.8772 23.468 51.8628 23.5319 51.8457C25.3165 51.3675 25.9142 49.1368 24.6078 47.8304C23.3014 46.524 21.0707 47.1217 20.5925 48.9063C20.5754 48.9701 20.561 49.0338 20.5492 49.0972C20.4056 49.8687 20.3022 50.7217 19.7472 51.2767L11.1636 59.8603C10.4021 60.6218 9.13035 60.2939 9.45859 59.2682L13.9718 45.1643C15.0374 41.8345 17.8244 39.3441 21.2527 38.6584L25.7165 37.7657C26.084 37.6922 26.464 37.8072 26.7291 38.0723Z" fill="currentColor" />
  <path d="M8.55566 72H21.5641C23.4206 72 25.2197 71.3562 26.6548 70.1783L30.4354 67.0753C31.197 66.4502 32.2941 66.4502 33.0557 67.0753V67.0753L36.8408 70.1821C38.2729 71.3575 40.0683 72 41.921 72H42.6311C45.5851 72 48.221 70.1451 49.2184 67.3646L55.2676 50.5C55.4487 49.9952 56.1626 49.9952 56.3437 50.5V50.5L61.5234 64.9404C63.0424 69.1751 67.0568 72 71.5557 72V72H72.5557" stroke="currentColor" stroke-width="4" stroke-linecap="round" stroke-linejoin="round" />
</svg>