<svg viewBox="0 0 80 80" fill="none">
  <path opacity="0.25" d="M49.1345 44L30.7913 44C29.0095 44 28.1172 46.1543 29.3771 47.4142L29.4629 47.5L38.5487 56.5858C39.3297 57.3668 40.5961 57.3668 41.3771 56.5858L50.4629 47.5L50.5487 47.4142C51.8086 46.1543 50.9163 44 49.1345 44Z" fill="currentColor" stroke="currentColor" stroke-width="3" stroke-linecap="round" stroke-linejoin="round" />
  <path opacity="0.25" d="M49.1345 36L30.7913 36C29.0095 36 28.1172 33.8457 29.3771 32.5858L29.4629 32.5L38.5487 23.4142C39.3297 22.6332 40.5961 22.6332 41.3771 23.4142L50.4629 32.5L50.5487 32.5858C51.8086 33.8457 50.9163 36 49.1345 36Z" fill="currentColor" stroke="currentColor" stroke-width="3" stroke-linecap="round" stroke-linejoin="round" />
</svg>