<svg viewBox="0 0 80 80" fill="none">
  <path opacity="0.25" fill-rule="evenodd" clip-rule="evenodd" d="M51.3136 16.6865C44.0696 13.6859 35.9303 13.6859 28.6862 16.6865C21.4422 19.6871 15.6868 25.4424 12.6862 32.6865C9.68565 39.9305 9.68565 48.0698 12.6862 55.3139C14.3935 59.4357 16.9927 63.0755 20.2505 66.0002H59.7494C63.0072 63.0755 65.6063 59.4357 67.3136 55.3139C70.3142 48.0698 70.3142 39.9305 67.3136 32.6865C64.3131 25.4424 58.5577 19.6871 51.3136 16.6865Z" fill="currentColor" />
  <path d="M19.9232 32.4054L20.9228 30.6731C20.4632 30.4079 19.917 30.3362 19.4046 30.4738C18.8921 30.6114 18.4553 30.947 18.1904 31.4068L19.9232 32.4054ZM19.9204 32.4103L18.1875 31.4118C17.6365 32.3681 17.9643 33.59 18.92 34.1421L19.9204 32.4103ZM21.6555 33.405L23.3883 34.4037C23.9397 33.447 23.6115 32.2245 22.6551 31.6727L21.6555 33.405ZM21.6522 33.4107L20.6518 35.1425C21.1115 35.4081 21.6579 35.48 22.1707 35.3424C22.6835 35.2047 23.1205 34.8689 23.3854 34.4088L21.6522 33.4107ZM16.8269 43.9972L16.8264 41.9972C16.2958 41.9973 15.7869 42.2083 15.4119 42.5838C15.0369 42.9592 14.8265 43.4682 14.8269 43.9989L16.8269 43.9972ZM16.8269 44.0028L14.8269 44.005C14.8281 45.1085 15.7229 46.0025 16.8264 46.0028L16.8269 44.0028ZM18.8269 43.9967L20.8269 43.9948C20.8259 42.8908 19.9304 41.9964 18.8264 41.9967L18.8269 43.9967ZM18.8269 44.0033L18.8264 46.0033C19.3573 46.0035 19.8665 45.7925 20.2418 45.4169C20.617 45.0413 20.8275 44.5319 20.8269 44.001L18.8269 44.0033ZM19.9396 55.5786L18.9392 53.8468C18.4798 54.1122 18.1447 54.5492 18.0076 55.0617C17.8705 55.5741 17.9426 56.1201 18.208 56.5794L19.9396 55.5786ZM19.9425 55.5835L18.2111 56.5846C18.7636 57.5402 19.9859 57.8675 20.942 57.3158L19.9425 55.5835ZM21.6714 54.5782L23.4026 53.5766C22.8497 52.621 21.627 52.2941 20.671 52.8464L21.6714 54.5782ZM21.6748 54.5839L22.6743 56.3162C23.1342 56.0509 23.4696 55.6136 23.6068 55.1008C23.744 54.5879 23.6717 54.0415 23.4057 53.5821L21.6748 54.5839ZM60.0576 55.5835L59.058 57.3158C60.0138 57.8673 61.2357 57.5404 61.7885 56.5854L60.0576 55.5835ZM58.3252 54.5839L56.5941 53.5824C56.3283 54.0419 56.256 54.5882 56.3932 55.101C56.5305 55.6137 56.8659 56.0509 57.3257 56.3162L58.3252 54.5839ZM58.3286 54.5782L59.329 52.8464C58.373 52.2941 57.1503 52.621 56.5974 53.5766L58.3286 54.5782ZM60.0604 55.5786L61.7913 56.5805C62.0572 56.1212 62.1296 55.575 61.9926 55.0623C61.8556 54.5496 61.5204 54.1123 61.0608 53.8468L60.0604 55.5786ZM63.1731 44.0028L63.1736 46.0028C64.278 46.0025 65.1731 45.1072 65.1731 44.0028H63.1731ZM63.1731 43.9972H65.1731C65.1731 42.8928 64.278 41.9975 63.1736 41.9972L63.1731 43.9972ZM61.1731 44.0033H59.1731C59.1731 44.5338 59.3839 45.0426 59.7591 45.4177C60.1343 45.7928 60.6431 46.0035 61.1736 46.0033L61.1731 44.0033ZM61.1731 43.9967L61.1736 41.9967C60.6431 41.9965 60.1343 42.2072 59.7591 42.5823C59.3839 42.9574 59.1731 43.4662 59.1731 43.9967H61.1731ZM60.0796 32.4103L61.08 34.1421C62.0352 33.5903 62.3632 32.3694 61.8133 31.4132L60.0796 32.4103ZM60.0768 32.4054L61.8087 31.4052C61.2565 30.449 60.0337 30.1212 59.0772 30.6731L60.0768 32.4054ZM58.3478 33.4107L56.6153 34.4101C56.8805 34.8697 57.3175 35.2052 57.83 35.3425C58.3426 35.4799 58.8887 35.408 59.3482 35.1425L58.3478 33.4107ZM58.3445 33.405L57.3449 31.6727C56.3883 32.2247 56.0602 33.4476 56.612 34.4043L58.3445 33.405ZM51.5986 23.9162L53.3309 24.9157C53.8828 23.9593 53.5551 22.7365 52.5989 22.1843L51.5986 23.9162ZM51.5938 23.9134L52.5938 22.1813C51.6374 21.6291 50.4144 21.9566 49.862 22.9129L51.5938 23.9134ZM50.5991 25.6485L49.598 27.3799C50.0575 27.6456 50.6037 27.7177 51.1164 27.5804C51.629 27.4432 52.0661 27.1077 52.3314 26.648L50.5991 25.6485ZM50.5933 25.6452L48.8615 24.6447C48.3091 25.601 48.6364 26.8241 49.5926 27.3768L50.5933 25.6452ZM40.0028 20.8047L42.0028 20.8042C42.0025 19.6999 41.1073 18.8048 40.003 18.8047L40.0028 20.8047ZM39.9972 20.8047L39.997 18.8047C38.8927 18.8048 37.9975 19.6999 37.9972 20.8042L39.9972 20.8047ZM39.9967 22.8047L37.9967 22.8042C37.9965 23.3347 38.2072 23.8436 38.5824 24.2188C38.9576 24.594 39.4664 24.8048 39.997 24.8047L39.9967 22.8047ZM40.0033 22.8047L40.003 24.8047C40.5336 24.8048 41.0424 24.594 41.4176 24.2188C41.7928 23.8436 42.0035 23.3347 42.0033 22.8042L40.0033 22.8047ZM28.4062 23.9134L30.138 22.9129C29.8727 22.4536 29.4357 22.1185 28.9233 21.9814C28.4109 21.8442 27.865 21.9163 27.4057 22.1816L28.4062 23.9134ZM29.4067 25.6452L30.4074 27.3768C31.3636 26.8241 31.6909 25.601 31.1385 24.6447L29.4067 25.6452ZM28.4014 23.9162L27.4002 22.1848C26.4446 22.7373 26.1174 23.9596 26.6691 24.9157L28.4014 23.9162ZM29.4009 25.6485L27.6686 26.648C27.9339 27.1077 28.371 27.4432 28.8836 27.5804C29.3963 27.7177 29.9425 27.6456 30.402 27.3799L29.4009 25.6485ZM18.1904 31.4068C18.1894 31.4085 18.1884 31.4102 18.1875 31.4118L21.6534 33.4087C21.6543 33.4071 21.6552 33.4056 21.656 33.4041L18.1904 31.4068ZM18.9237 34.1377L20.656 35.1373L22.6551 31.6727L20.9228 30.6731L18.9237 34.1377ZM23.3854 34.4088C23.3864 34.4071 23.3874 34.4054 23.3883 34.4037L19.9227 32.4063C19.9215 32.4084 19.9203 32.4106 19.919 32.4127L23.3854 34.4088ZM22.6527 31.6789L20.9209 30.6785L18.92 34.1421L20.6518 35.1425L22.6527 31.6789ZM14.8269 43.9989C14.8269 44.0009 14.8269 44.0029 14.8269 44.005L18.8269 44.0006C18.8269 43.9989 18.8269 43.9972 18.8269 43.9955L14.8269 43.9989ZM16.8274 45.9972L18.8274 45.9967L18.8264 41.9967L16.8264 41.9972L16.8274 45.9972ZM20.8269 44.001C20.8269 43.9989 20.8269 43.9968 20.8269 43.9948L16.8269 43.9985C16.8269 44.0009 16.8269 44.0033 16.8269 44.0057L20.8269 44.001ZM18.8274 42.0033L16.8274 42.0028L16.8264 46.0028L18.8264 46.0033L18.8274 42.0033ZM18.208 56.5794C18.2088 56.5808 18.2096 56.5821 18.2101 56.5829C18.2106 56.5839 18.2108 56.5842 18.2111 56.5846L21.6738 54.5823C21.6707 54.5769 21.673 54.5809 21.6712 54.5778L18.208 56.5794ZM20.9401 57.3104L22.6719 56.31L20.671 52.8464L18.9392 53.8468L20.9401 57.3104ZM23.4057 53.5821C23.4047 53.5803 23.4037 53.5786 23.4026 53.5766L19.9403 55.5797C19.9414 55.5816 19.9426 55.5837 19.9438 55.5858L23.4057 53.5821ZM20.6752 52.8516L18.9429 53.8512L20.942 57.3158L22.6743 56.3162L20.6752 52.8516ZM61.0571 53.8512L59.3248 52.8516L57.3257 56.3162L59.058 57.3158L61.0571 53.8512ZM56.5974 53.5766C56.5966 53.578 56.5958 53.5794 56.5953 53.5803C56.5947 53.5813 56.5944 53.5819 56.5941 53.5824L60.0564 55.5855C60.0572 55.5841 60.058 55.5827 60.0585 55.5818C60.0591 55.5808 60.0594 55.5802 60.0597 55.5797L56.5974 53.5766ZM57.3281 56.31L59.0599 57.3104L61.0608 53.8468L59.329 52.8464L57.3281 56.31ZM61.7885 56.5854C61.7892 56.5842 61.7898 56.5831 61.7903 56.5823C61.7908 56.5815 61.7911 56.581 61.7913 56.5805L58.3294 54.5767C58.3287 54.5779 58.3281 54.579 58.3276 54.5798C58.3271 54.5806 58.3269 54.5811 58.3266 54.5816L61.7885 56.5854ZM65.1731 44.0028C65.1731 44.0042 65.1731 44.0054 65.1731 44.0041C65.1731 44.0035 65.1731 44.0005 65.1731 43.9972H61.1731C61.1731 43.9958 61.1731 43.9946 61.1731 43.9959C61.1731 43.9965 61.1731 43.9995 61.1731 44.0028H65.1731ZM63.1726 42.0028L61.1726 42.0033L61.1736 46.0033L63.1736 46.0028L63.1726 42.0028ZM59.1731 43.9967C59.1731 43.9958 59.1731 43.9952 59.1731 43.9966C59.1731 43.9974 59.1731 44.0002 59.1731 44.0033H63.1731C63.1731 44.0042 63.1731 44.0048 63.1731 44.0034C63.1731 44.0026 63.1731 43.9998 63.1731 43.9967H59.1731ZM61.1726 45.9967L63.1726 45.9972L63.1736 41.9972L61.1736 41.9967L61.1726 45.9967ZM61.8133 31.4132C61.8125 31.4118 61.8107 31.4086 61.8087 31.4052L58.3448 33.4056C58.3447 33.4054 58.3448 33.4055 58.3459 33.4074L61.8133 31.4132ZM59.0791 30.6785L57.3473 31.6789L59.3482 35.1425L61.08 34.1421L59.0791 30.6785ZM56.612 34.4043C56.6122 34.4045 56.6123 34.4048 56.6129 34.4059C56.6134 34.4067 56.6144 34.4083 56.6153 34.4101L60.0802 32.4114C60.0801 32.4112 60.0799 32.4109 60.0793 32.4098C60.0788 32.409 60.0779 32.4074 60.0769 32.4057L56.612 34.4043ZM59.344 35.1373L61.0763 34.1377L59.0772 30.6731L57.3449 31.6727L59.344 35.1373ZM52.5989 22.1843C52.599 22.1843 52.5991 22.1844 52.5981 22.1838C52.5974 22.1834 52.5957 22.1824 52.5938 22.1813L50.5937 25.6454C50.5935 25.6453 50.5934 25.6452 50.5943 25.6457C50.595 25.6461 50.5966 25.6471 50.5984 25.6481L52.5989 22.1843ZM49.8663 22.9166L48.8668 24.6489L52.3314 26.648L53.3309 24.9157L49.8663 22.9166ZM49.5926 27.3768C49.5945 27.3779 49.5963 27.3789 49.598 27.3799L51.6002 23.9171C51.5981 23.9158 51.596 23.9146 51.5941 23.9136L49.5926 27.3768ZM52.3251 26.6456L53.3256 24.9138L49.862 22.9129L48.8615 24.6447L52.3251 26.6456ZM40.003 18.8047C40.001 18.8047 39.999 18.8047 39.997 18.8047L39.9974 22.8047C39.9991 22.8047 40.0009 22.8047 40.0026 22.8047L40.003 18.8047ZM41.9967 22.8052L41.9972 20.8052L37.9972 20.8042L37.9967 22.8042L41.9967 22.8052ZM39.997 24.8047C39.999 24.8047 40.001 24.8047 40.003 24.8047L40.0036 20.8047C40.0012 20.8047 39.9988 20.8047 39.9964 20.8047L39.997 24.8047ZM38.0028 20.8052L38.0033 22.8052L42.0033 22.8042L42.0028 20.8042L38.0028 20.8052ZM26.6744 24.9138L27.6749 26.6456L31.1385 24.6447L30.138 22.9129L26.6744 24.9138ZM27.4057 22.1816C27.4038 22.1827 27.402 22.1838 27.4002 22.1848L29.4025 25.6476C29.404 25.6467 29.4054 25.6459 29.4067 25.6451L27.4057 22.1816ZM31.1332 24.6489L30.1337 22.9166L26.6691 24.9157L27.6686 26.648L31.1332 24.6489ZM30.402 27.3799C30.4037 27.3789 30.4055 27.3779 30.4074 27.3768L28.4059 23.9136C28.404 23.9147 28.4019 23.9159 28.3998 23.9171L30.402 27.3799Z" fill="currentColor" />
  <path d="M37.402 45.5L38.402 47.2321H38.402L37.402 45.5ZM42.5982 45.5L41.5982 47.2321H41.5982L42.5982 45.5ZM38.0001 44.8038C38.0001 45.9084 38.8955 46.8038 40.0001 46.8038C41.1047 46.8038 42.0001 45.9084 42.0001 44.8038H38.0001ZM42.0001 32C42.0001 30.8954 41.1047 30 40.0001 30C38.8955 30 38.0001 30.8954 38.0001 32L42.0001 32ZM38.402 47.2321C39.3909 46.6611 40.6093 46.6611 41.5982 47.2321L43.5982 43.7679C41.3717 42.4825 38.6285 42.4825 36.402 43.7679L38.402 47.2321ZM36.804 50C36.804 48.8581 37.4131 47.803 38.402 47.2321L36.402 43.7679C34.1755 45.0534 32.804 47.4291 32.804 50H36.804ZM38.402 52.768C37.4131 52.197 36.804 51.1419 36.804 50H32.804C32.804 52.5709 34.1755 54.9466 36.402 56.232L38.402 52.768ZM41.5982 52.768C40.6093 53.3389 39.3909 53.3389 38.402 52.768L36.402 56.232C38.6285 57.5175 41.3717 57.5175 43.5982 56.232L41.5982 52.768ZM43.1963 50C43.1963 51.1419 42.5871 52.197 41.5982 52.768L43.5982 56.232C45.8247 54.9466 47.1963 52.5709 47.1963 50H43.1963ZM41.5982 47.2321C42.5871 47.803 43.1963 48.8581 43.1963 50H47.1963C47.1963 47.4291 45.8247 45.0534 43.5982 43.7679L41.5982 47.2321ZM42.0001 44.8038L42.0001 32L38.0001 32L38.0001 44.8038H42.0001Z" fill="currentColor" />
</svg>