<svg viewBox="0 0 80 80" fill="none">
  <path opacity="0.25" d="M28.6863 12.6863C35.9303 9.68571 44.0697 9.68571 51.3137 12.6863C58.5578 15.6869 64.3131 21.4422 67.3137 28.6863C70.3143 35.9303 70.3143 44.0697 67.3137 51.3137C64.3131 58.5578 58.5578 64.3131 51.3137 67.3137C44.0697 70.3143 35.9303 70.3143 28.6863 67.3137C21.4422 64.3131 15.6869 58.5578 12.6863 51.3137C9.68571 44.0697 9.68571 35.9303 12.6863 28.6863C15.6869 21.4422 21.4422 15.6869 28.6863 12.6863Z" fill="currentColor" />
  <path opacity="0.5" fill-rule="evenodd" clip-rule="evenodd" d="M23.2392 24.5165C27.115 28.9912 31.0001 34.0801 31.0001 39.9999C31.0001 45.9198 27.115 51.0087 23.2392 55.4834C21.7292 57.2267 20.4872 59.2102 19.5737 61.3732C22.1928 63.8763 25.2745 65.9006 28.6863 67.3139C35.9304 70.3145 44.0697 70.3145 51.3138 67.3139C54.7255 65.9007 57.807 63.8765 60.426 61.3735C59.5126 59.2106 58.2707 57.2272 56.7609 55.484C52.8852 51.009 49.0001 45.9199 49.0001 39.9999C49.0001 34.08 52.8852 28.9909 56.7609 24.5159C58.2706 22.7728 59.5125 20.7895 60.4259 18.6268C57.8069 16.1238 54.7254 14.0996 51.3138 12.6865C44.0697 9.68589 35.9304 9.68589 28.6863 12.6865C25.2745 14.0997 22.193 16.124 19.5739 18.6271C20.4874 20.7899 21.7293 22.7733 23.2392 24.5165Z" fill="currentColor" />
</svg>