<svg viewBox="0 0 80 80" fill="none">
  <path opacity="0.25" d="M31.5147 19.2071C36.9478 16.9567 43.0522 16.9567 48.4853 19.2071C53.9183 21.4575 58.2348 25.7741 60.4853 31.2071C62.7357 36.6401 62.7357 42.7446 60.4853 48.1777C58.2348 53.6107 53.9183 57.9272 48.4853 60.1777C43.0522 62.4281 36.9478 62.4281 31.5147 60.1777C26.0817 57.9272 21.7652 53.6107 19.5147 48.1777C17.2643 42.7446 17.2643 36.6401 19.5147 31.2071C21.7652 25.7741 26.0817 21.4575 31.5147 19.2071Z" fill="currentColor" stroke="currentColor" stroke-width="3" stroke-linecap="square" />
  <path d="M19.5155 31.208L18.1296 30.634H18.1296L19.5155 31.208ZM19.7813 30.5663L21.1671 31.1404L19.7813 30.5663ZM22.3681 28.7371C22.7899 28.0241 22.5539 27.1041 21.8409 26.6823C21.1279 26.2605 20.2079 26.4965 19.7861 27.2095L22.3681 28.7371ZM19.5155 48.1786L18.1296 48.7526H18.1296L19.5155 48.1786ZM31.5155 60.1786L32.0895 58.7928H32.0895L31.5155 60.1786ZM48.486 60.1786L47.912 58.7928H47.912L48.486 60.1786ZM60.486 48.1786L59.1002 47.6046V47.6046L60.486 48.1786ZM60.486 31.208L59.1002 31.782V31.782L60.486 31.208ZM48.486 19.208L49.0601 17.8222L49.0601 17.8222L48.486 19.208ZM45.953 16.7806C45.1512 16.5723 44.3323 17.0534 44.124 17.8553C43.9157 18.6571 44.3968 19.4759 45.1987 19.6842L45.953 16.7806ZM20.9013 31.782L21.1671 31.1404L18.3954 29.9923L18.1296 30.634L20.9013 31.782ZM21.1671 31.1404C21.5123 30.307 21.9142 29.5044 22.3681 28.7371L19.7861 27.2095C19.2604 28.0981 18.7951 29.0275 18.3954 29.9923L21.1671 31.1404ZM20.9013 47.6046C18.8031 42.5391 18.8031 36.8475 20.9013 31.782L18.1296 30.634C15.727 36.4346 15.727 42.952 18.1296 48.7526L20.9013 47.6046ZM32.0895 58.7928C27.024 56.6946 22.9995 52.67 20.9013 47.6046L18.1296 48.7526C20.5323 54.5532 25.1409 59.1617 30.9414 61.5644L32.0895 58.7928ZM47.912 58.7928C42.8465 60.891 37.155 60.891 32.0895 58.7928L30.9414 61.5644C36.742 63.9671 43.2595 63.9671 49.0601 61.5644L47.912 58.7928ZM59.1002 47.6046C57.002 52.67 52.9775 56.6946 47.912 58.7928L49.0601 61.5644C54.8606 59.1617 59.4692 54.5532 61.8718 48.7526L59.1002 47.6046ZM59.1002 31.782C61.1984 36.8475 61.1984 42.5391 59.1002 47.6046L61.8718 48.7526C64.2745 42.952 64.2745 36.4346 61.8718 30.634L59.1002 31.782ZM47.912 20.5938C52.9775 22.692 57.002 26.7165 59.1002 31.782L61.8718 30.634C59.4692 24.8334 54.8606 20.2249 49.0601 17.8222L47.912 20.5938ZM49.0601 17.8222C48.0439 17.4013 47.0056 17.0541 45.953 16.7806L45.1987 19.6842C46.1178 19.923 47.0245 20.2262 47.912 20.5938L49.0601 17.8222Z" fill="currentColor" />
  <path d="M39.1667 15.9257C39.6194 15.7382 40.1281 15.7382 40.5809 15.9257C41.0336 16.1132 41.3933 16.473 41.5809 16.9257C41.7684 17.3785 41.7684 17.8872 41.5809 18.3399C41.3933 18.7927 41.0336 19.1524 40.5809 19.3399C40.1281 19.5275 39.6194 19.5275 39.1667 19.3399C38.7139 19.1524 38.3542 18.7927 38.1667 18.3399C37.9791 17.8872 37.9791 17.3785 38.1667 16.9257C38.3542 16.473 38.7139 16.1132 39.1667 15.9257Z" fill="currentColor" stroke="currentColor" stroke-linecap="square" />
  <path d="M23.0297 22.7684L40.7303 37.7459C41.1642 38.113 41.4145 38.6526 41.4145 39.2209C41.4145 40.2881 40.5494 41.1532 39.4822 41.1532C38.9138 41.1532 38.3743 40.9029 38.0072 40.4691L23.0297 22.7684Z" fill="currentColor" stroke="currentColor" stroke-width="4" stroke-linecap="round" stroke-linejoin="round" />
</svg>