<svg viewBox="0 0 80 80" fill="none">
  <g opacity="0.25">
    <path fill-rule="evenodd" clip-rule="evenodd" d="M39.7321 49.7612C39.357 49.3861 38.8483 49.1754 38.3179 49.1754H28.1465C27.0419 49.1754 26.1465 48.28 26.1465 47.1754V33.1754C26.1465 32.0708 27.0419 31.1754 28.1465 31.1754H38.3183C38.8487 31.1754 39.3574 30.9647 39.7325 30.5896L50.7323 19.5898C51.9922 18.3299 54.1465 19.2222 54.1465 21.004V21.1736L54.1465 58.1736V59.3472C54.1465 61.129 51.9922 62.0213 50.7323 60.7614L39.7321 49.7612Z" fill="currentColor" />
    <path d="M54.1465 21.1736H55.6465V21.1736L54.1465 21.1736ZM50.7323 60.7614L51.7929 59.7007L50.7323 60.7614ZM39.7325 30.5896L40.7931 31.6503L39.7325 30.5896ZM39.7321 49.7612L40.7927 48.7005L39.7321 49.7612ZM38.3179 47.6754H28.1465V50.6754H38.3179V47.6754ZM27.6465 47.1754V33.1754H24.6465V47.1754H27.6465ZM28.1465 32.6754H38.3183V29.6754H28.1465L28.1465 32.6754ZM40.7931 31.6503L51.7929 20.6505L49.6716 18.5291L38.6718 29.5289L40.7931 31.6503ZM52.6465 21.004V21.1736L55.6465 21.1736V21.004L52.6465 21.004ZM52.6465 21.1736L52.6465 58.1736H55.6465L55.6465 21.1736H52.6465ZM52.6465 58.1736V59.3472H55.6465V58.1736H52.6465ZM51.7929 59.7007L40.7927 48.7005L38.6714 50.8218L49.6716 61.822L51.7929 59.7007ZM52.6465 59.3472C52.6465 59.7926 52.1079 60.0157 51.7929 59.7007L49.6716 61.822C51.8765 64.0269 55.6465 62.4653 55.6465 59.3472H52.6465ZM51.7929 20.6505C52.1079 20.3355 52.6465 20.5586 52.6465 21.004L55.6465 21.004C55.6465 17.8859 51.8765 16.3243 49.6716 18.5291L51.7929 20.6505ZM38.3183 32.6754C39.2465 32.6754 40.1367 32.3066 40.7931 31.6503L38.6718 29.5289C38.578 29.6227 38.4509 29.6754 38.3183 29.6754V32.6754ZM27.6465 33.1754C27.6465 32.8993 27.8703 32.6754 28.1465 32.6754L28.1465 29.6754C26.2135 29.6754 24.6465 31.2424 24.6465 33.1754H27.6465ZM28.1465 47.6754C27.8703 47.6754 27.6465 47.4515 27.6465 47.1754H24.6465C24.6465 49.1084 26.2135 50.6754 28.1465 50.6754V47.6754ZM38.3179 50.6754C38.4505 50.6754 38.5776 50.7281 38.6714 50.8218L40.7927 48.7005C40.1364 48.0441 39.2461 47.6754 38.3179 47.6754V50.6754Z" fill="currentColor" />
  </g>
</svg>