<svg viewBox="0 0 80 80" fill="none">
  <path fill-rule="evenodd" clip-rule="evenodd" d="M32 12C29.7909 12 28 13.7909 28 16V23.595C29.2971 22.6462 30.7125 21.847 32.2218 21.2218C37.2021 19.1589 42.7979 19.1589 47.7782 21.2218C49.2875 21.847 50.7029 22.6462 52 23.595V16C52 13.7909 50.2091 12 48 12H44.6154H35.3846H32ZM52 56.405C50.7029 57.3538 49.2875 58.153 47.7782 58.7782C42.7979 60.8411 37.2021 60.8411 32.2218 58.7782C30.7125 58.153 29.2971 57.3538 28 56.405V64C28 66.2091 29.7909 68 32 68H35.3846H44.6154H48C50.2091 68 52 66.2091 52 64V56.405Z" fill="currentColor" />
  <path opacity="0.25" d="M32.2218 21.2218C37.2021 19.1589 42.7979 19.1589 47.7782 21.2218C52.7585 23.2847 56.7153 27.2415 58.7782 32.2218C60.8411 37.2021 60.8411 42.7979 58.7782 47.7782C56.7153 52.7585 52.7585 56.7153 47.7782 58.7782C42.7979 60.8411 37.2021 60.8411 32.2218 58.7782C27.2415 56.7153 23.2847 52.7585 21.2218 47.7782C19.1589 42.7979 19.1589 37.2021 21.2218 32.2218C23.2847 27.2415 27.2415 23.2847 32.2218 21.2218Z" fill="currentColor" />
  <path d="M39.9358 36.8004C39.2638 37.677 39.4296 38.9325 40.3062 39.6045C41.1828 40.2766 42.4382 40.1107 43.1103 39.2341L39.9358 36.8004ZM47.3244 33.7374C47.9964 32.8607 47.8306 31.6053 46.954 30.9333C46.0774 30.2612 44.822 30.4271 44.1499 31.3037L47.3244 33.7374ZM43.1621 39.5088C42.2032 38.9606 40.9814 39.2935 40.4331 40.2524C39.8849 41.2113 40.2178 42.4331 41.1767 42.9813L43.1621 39.5088ZM50.5813 48.3583C51.5402 48.9066 52.7619 48.5737 53.3102 47.6147C53.8584 46.6558 53.5255 45.4341 52.5666 44.8858L50.5813 48.3583ZM39.5007 40.0005C39.5007 39.7244 39.7246 39.5005 40.0007 39.5005V35.5005C37.5155 35.5005 35.5007 37.5152 35.5007 40.0005H39.5007ZM40.0007 40.5005C39.7246 40.5005 39.5007 40.2766 39.5007 40.0005H35.5007C35.5007 42.4858 37.5155 44.5005 40.0007 44.5005V40.5005ZM40.5007 40.0005C40.5007 40.2766 40.2769 40.5005 40.0007 40.5005V44.5005C42.486 44.5005 44.5007 42.4858 44.5007 40.0005H40.5007ZM40.0007 39.5005C40.2769 39.5005 40.5007 39.7244 40.5007 40.0005H44.5007C44.5007 37.5152 42.486 35.5005 40.0007 35.5005V39.5005ZM43.1103 39.2341L47.3244 33.7374L44.1499 31.3037L39.9358 36.8004L43.1103 39.2341ZM41.1767 42.9813L50.5813 48.3583L52.5666 44.8858L43.1621 39.5088L41.1767 42.9813Z" fill="currentColor" />
</svg>