<svg viewBox="0 0 80 80" fill="none">
  <path d="M13 19.5002L14.4142 20.9144L14.4142 20.9144L13 19.5002ZM12.4853 20.0149L11.0711 18.6007L11.0711 18.6007L12.4853 20.0149ZM14.5 18.0002L15.9142 19.4144L15.9142 19.4144L14.5 18.0002ZM13.5 19.0002L12.0858 17.5859L12.0858 17.5859L13.5 19.0002ZM4 21.5296C2.89543 21.5296 2 22.425 2 23.5296C2 24.6342 2.89543 25.5296 4 25.5296L4 21.5296ZM19.5147 20.0149L20.9289 18.6007V18.6007L19.5147 20.0149ZM37 19.5002L38.4142 20.9144L38.4142 20.9144L37 19.5002ZM36.4853 20.0149L35.0711 18.6007L35.0711 18.6007L36.4853 20.0149ZM38.5 18.0002L39.9142 19.4144V19.4144L38.5 18.0002ZM37.5 19.0002L36.0858 17.5859V17.5859L37.5 19.0002ZM43.5147 20.0149L42.1005 21.4291V21.4291L43.5147 20.0149ZM61 19.5002L62.4142 20.9144L62.4142 20.9144L61 19.5002ZM60.4853 20.0149L59.0711 18.6007L59.0711 18.6007L60.4853 20.0149ZM62.5 18.0002L63.9142 19.4144V19.4144L62.5 18.0002ZM61.5 19.0002L60.0858 17.5859V17.5859L61.5 19.0002ZM67.5147 20.0149L68.9289 18.6007V18.6007L67.5147 20.0149ZM76 25.5296C77.1046 25.5296 78 24.6342 78 23.5296C78 22.425 77.1046 21.5296 76 21.5296V25.5296ZM65 17.5002L66.4142 16.0859L65 17.5002ZM41 17.5002L42.4142 16.0859L41 17.5002ZM11.5858 18.0859L11.0711 18.6007L13.8995 21.4291L14.4142 20.9144L11.5858 18.0859ZM13.5858 16.0859L13.0858 16.5859L15.9142 19.4144L16.4142 18.9144L13.5858 16.0859ZM13.0858 16.5859L12.5858 17.0859L15.4142 19.9144L15.9142 19.4144L13.0858 16.5859ZM12.5858 17.0859L12.0858 17.5859L14.9142 20.4144L15.4142 19.9144L12.5858 17.0859ZM12.0858 17.5859L11.5858 18.0859L14.4142 20.9144L14.9142 20.4144L12.0858 17.5859ZM4 25.5296C7.57981 25.5296 11.1662 24.1624 13.8995 21.4291L11.0711 18.6007C9.11805 20.5537 6.56232 21.5296 4 21.5296L4 25.5296ZM20.9289 18.6007L18.4142 16.0859L15.5858 18.9144L18.1005 21.4291L20.9289 18.6007ZM35.5858 18.0859L35.0711 18.6007L37.8995 21.4291L38.4142 20.9144L35.5858 18.0859ZM37.5858 16.0859L37.0858 16.5859L39.9142 19.4144L40.4142 18.9144L37.5858 16.0859ZM37.0858 16.5859L36.5858 17.0859L39.4142 19.9144L39.9142 19.4144L37.0858 16.5859ZM36.5858 17.0859L36.0858 17.5859L38.9142 20.4144L39.4142 19.9144L36.5858 17.0859ZM36.0858 17.5859L35.5858 18.0859L38.4142 20.9144L38.9142 20.4144L36.0858 17.5859ZM18.1005 21.4291C23.5678 26.8964 32.4321 26.8964 37.8995 21.4291L35.0711 18.6007C31.1658 22.5059 24.8342 22.5059 20.9289 18.6007L18.1005 21.4291ZM44.9289 18.6007L42.4142 16.0859L39.5858 18.9144L42.1005 21.4291L44.9289 18.6007ZM59.5858 18.0859L59.0711 18.6007L61.8995 21.4291L62.4142 20.9144L59.5858 18.0859ZM61.5858 16.0859L61.0858 16.5859L63.9142 19.4144L64.4142 18.9144L61.5858 16.0859ZM61.0858 16.5859L60.5858 17.0859L63.4142 19.9144L63.9142 19.4144L61.0858 16.5859ZM60.5858 17.0859L60.0858 17.5859L62.9142 20.4144L63.4142 19.9144L60.5858 17.0859ZM60.0858 17.5859L59.5858 18.0859L62.4142 20.9144L62.9142 20.4144L60.0858 17.5859ZM42.1005 21.4291C47.5678 26.8964 56.4322 26.8964 61.8995 21.4291L59.0711 18.6007C55.1658 22.5059 48.8342 22.5059 44.9289 18.6007L42.1005 21.4291ZM68.9289 18.6007L66.4142 16.0859L63.5858 18.9144L66.1005 21.4291L68.9289 18.6007ZM66.1005 21.4291C68.8338 24.1624 72.4202 25.5296 76 25.5296V21.5296C73.4377 21.5296 70.8819 20.5537 68.9289 18.6007L66.1005 21.4291ZM64.4142 18.9144C64.1854 19.1431 63.8145 19.1431 63.5858 18.9144L66.4142 16.0859C65.0809 14.7526 62.9191 14.7526 61.5858 16.0859L64.4142 18.9144ZM40.4142 18.9144C40.1854 19.1431 39.8145 19.1431 39.5858 18.9144L42.4142 16.0859C41.0809 14.7526 38.9191 14.7526 37.5858 16.0859L40.4142 18.9144ZM16.4142 18.9144C16.1854 19.1431 15.8145 19.1431 15.5858 18.9144L18.4142 16.0859C17.0809 14.7526 14.9191 14.7526 13.5858 16.0859L16.4142 18.9144Z" fill="currentColor" />
  <path opacity="0.25" d="M13 33.2287L14.4142 34.6429L14.4142 34.6429L13 33.2287ZM12.4853 33.7434L11.0711 32.3292L11.0711 32.3292L12.4853 33.7434ZM14.5 31.7287L15.9142 33.1429L15.9142 33.1429L14.5 31.7287ZM13.5 32.7287L12.0858 31.3145L12.0858 31.3145L13.5 32.7287ZM4 35.2581C2.89543 35.2581 2 36.1535 2 37.2581C2 38.3627 2.89543 39.2581 4 39.2581L4 35.2581ZM19.5147 33.7434L20.9289 32.3292V32.3292L19.5147 33.7434ZM37 33.2287L38.4142 34.6429L38.4142 34.6429L37 33.2287ZM36.4853 33.7434L35.0711 32.3292L35.0711 32.3292L36.4853 33.7434ZM38.5 31.7287L39.9142 33.1429V33.1429L38.5 31.7287ZM37.5 32.7287L36.0858 31.3145V31.3145L37.5 32.7287ZM43.5147 33.7434L42.1005 35.1576V35.1576L43.5147 33.7434ZM61 33.2287L62.4142 34.6429L62.4142 34.6429L61 33.2287ZM60.4853 33.7434L59.0711 32.3292L59.0711 32.3292L60.4853 33.7434ZM62.5 31.7287L63.9142 33.1429V33.1429L62.5 31.7287ZM61.5 32.7287L60.0858 31.3145V31.3145L61.5 32.7287ZM67.5147 33.7434L68.9289 32.3292V32.3292L67.5147 33.7434ZM76 39.2581C77.1046 39.2581 78 38.3627 78 37.2581C78 36.1535 77.1046 35.2581 76 35.2581V39.2581ZM65 31.2287L66.4142 29.8145L65 31.2287ZM41 31.2287L42.4142 29.8145L41 31.2287ZM11.5858 31.8145L11.0711 32.3292L13.8995 35.1576L14.4142 34.6429L11.5858 31.8145ZM13.5858 29.8145L13.0858 30.3145L15.9142 33.1429L16.4142 32.6429L13.5858 29.8145ZM13.0858 30.3145L12.5858 30.8145L15.4142 33.6429L15.9142 33.1429L13.0858 30.3145ZM12.5858 30.8145L12.0858 31.3145L14.9142 34.1429L15.4142 33.6429L12.5858 30.8145ZM12.0858 31.3145L11.5858 31.8145L14.4142 34.6429L14.9142 34.1429L12.0858 31.3145ZM4 39.2581C7.57981 39.2581 11.1662 37.8909 13.8995 35.1576L11.0711 32.3292C9.11805 34.2822 6.56232 35.2581 4 35.2581L4 39.2581ZM20.9289 32.3292L18.4142 29.8145L15.5858 32.6429L18.1005 35.1576L20.9289 32.3292ZM35.5858 31.8144L35.0711 32.3292L37.8995 35.1576L38.4142 34.6429L35.5858 31.8144ZM37.5858 29.8145L37.0858 30.3145L39.9142 33.1429L40.4142 32.6429L37.5858 29.8145ZM37.0858 30.3145L36.5858 30.8145L39.4142 33.6429L39.9142 33.1429L37.0858 30.3145ZM36.5858 30.8145L36.0858 31.3145L38.9142 34.1429L39.4142 33.6429L36.5858 30.8145ZM36.0858 31.3145L35.5858 31.8145L38.4142 34.6429L38.9142 34.1429L36.0858 31.3145ZM18.1005 35.1576C23.5678 40.6249 32.4321 40.6249 37.8995 35.1576L35.0711 32.3292C31.1658 36.2344 24.8342 36.2344 20.9289 32.3292L18.1005 35.1576ZM44.9289 32.3292L42.4142 29.8145L39.5858 32.6429L42.1005 35.1576L44.9289 32.3292ZM59.5858 31.8144L59.0711 32.3292L61.8995 35.1576L62.4142 34.6429L59.5858 31.8144ZM61.5858 29.8145L61.0858 30.3145L63.9142 33.1429L64.4142 32.6429L61.5858 29.8145ZM61.0858 30.3145L60.5858 30.8145L63.4142 33.6429L63.9142 33.1429L61.0858 30.3145ZM60.5858 30.8145L60.0858 31.3145L62.9142 34.1429L63.4142 33.6429L60.5858 30.8145ZM60.0858 31.3145L59.5858 31.8145L62.4142 34.6429L62.9142 34.1429L60.0858 31.3145ZM42.1005 35.1576C47.5678 40.6249 56.4322 40.6249 61.8995 35.1576L59.0711 32.3292C55.1658 36.2344 48.8342 36.2344 44.9289 32.3292L42.1005 35.1576ZM68.9289 32.3292L66.4142 29.8145L63.5858 32.6429L66.1005 35.1576L68.9289 32.3292ZM66.1005 35.1576C68.8338 37.8909 72.4202 39.2581 76 39.2581V35.2581C73.4377 35.2581 70.8819 34.2822 68.9289 32.3292L66.1005 35.1576ZM64.4142 32.6429C64.1854 32.8716 63.8145 32.8716 63.5858 32.6429L66.4142 29.8145C65.0809 28.4811 62.9191 28.4811 61.5858 29.8145L64.4142 32.6429ZM40.4142 32.6429C40.1854 32.8716 39.8145 32.8716 39.5858 32.6429L42.4142 29.8145C41.0809 28.4811 38.9191 28.4811 37.5858 29.8145L40.4142 32.6429ZM16.4142 32.6429C16.1854 32.8716 15.8145 32.8716 15.5858 32.6429L18.4142 29.8145C17.0809 28.4811 14.9191 28.4811 13.5858 29.8145L16.4142 32.6429Z" fill="currentColor" />
  <path d="M13 46.9572L14.4142 48.3714L14.4142 48.3714L13 46.9572ZM12.4853 47.4719L11.0711 46.0577L11.0711 46.0577L12.4853 47.4719ZM14.5 45.4572L15.9142 46.8714L15.9142 46.8714L14.5 45.4572ZM13.5 46.4572L12.0858 45.043L12.0858 45.043L13.5 46.4572ZM4 48.9866C2.89543 48.9866 2 49.8821 2 50.9866C2 52.0912 2.89543 52.9866 4 52.9866L4 48.9866ZM19.5147 47.4719L20.9289 46.0577V46.0577L19.5147 47.4719ZM37 46.9572L38.4142 48.3714L38.4142 48.3714L37 46.9572ZM36.4853 47.4719L35.0711 46.0577L35.0711 46.0577L36.4853 47.4719ZM38.5 45.4572L39.9142 46.8714V46.8714L38.5 45.4572ZM37.5 46.4572L36.0858 45.043V45.043L37.5 46.4572ZM43.5147 47.4719L42.1005 48.8861V48.8861L43.5147 47.4719ZM61 46.9572L62.4142 48.3714L62.4142 48.3714L61 46.9572ZM60.4853 47.4719L59.0711 46.0577L59.0711 46.0577L60.4853 47.4719ZM62.5 45.4572L63.9142 46.8714V46.8714L62.5 45.4572ZM61.5 46.4572L60.0858 45.043V45.043L61.5 46.4572ZM67.5147 47.4719L68.9289 46.0577V46.0577L67.5147 47.4719ZM76 52.9866C77.1046 52.9866 78 52.0912 78 50.9866C78 49.8821 77.1046 48.9866 76 48.9866V52.9866ZM65 44.9572L66.4142 43.543L65 44.9572ZM41 44.9572L42.4142 43.543L41 44.9572ZM11.5858 45.543L11.0711 46.0577L13.8995 48.8861L14.4142 48.3714L11.5858 45.543ZM13.5858 43.543L13.0858 44.043L15.9142 46.8714L16.4142 46.3714L13.5858 43.543ZM13.0858 44.043L12.5858 44.543L15.4142 47.3714L15.9142 46.8714L13.0858 44.043ZM12.5858 44.543L12.0858 45.043L14.9142 47.8714L15.4142 47.3714L12.5858 44.543ZM12.0858 45.043L11.5858 45.543L14.4142 48.3714L14.9142 47.8714L12.0858 45.043ZM4 52.9866C7.57981 52.9866 11.1662 51.6194 13.8995 48.8861L11.0711 46.0577C9.11805 48.0107 6.56232 48.9866 4 48.9866L4 52.9866ZM20.9289 46.0577L18.4142 43.543L15.5858 46.3714L18.1005 48.8861L20.9289 46.0577ZM35.5858 45.543L35.0711 46.0577L37.8995 48.8861L38.4142 48.3714L35.5858 45.543ZM37.5858 43.543L37.0858 44.043L39.9142 46.8714L40.4142 46.3714L37.5858 43.543ZM37.0858 44.043L36.5858 44.543L39.4142 47.3714L39.9142 46.8714L37.0858 44.043ZM36.5858 44.543L36.0858 45.043L38.9142 47.8714L39.4142 47.3714L36.5858 44.543ZM36.0858 45.043L35.5858 45.543L38.4142 48.3714L38.9142 47.8714L36.0858 45.043ZM18.1005 48.8861C23.5678 54.3535 32.4321 54.3535 37.8995 48.8861L35.0711 46.0577C31.1658 49.9629 24.8342 49.9629 20.9289 46.0577L18.1005 48.8861ZM44.9289 46.0577L42.4142 43.543L39.5858 46.3714L42.1005 48.8861L44.9289 46.0577ZM59.5858 45.543L59.0711 46.0577L61.8995 48.8861L62.4142 48.3714L59.5858 45.543ZM61.5858 43.543L61.0858 44.043L63.9142 46.8714L64.4142 46.3714L61.5858 43.543ZM61.0858 44.043L60.5858 44.543L63.4142 47.3714L63.9142 46.8714L61.0858 44.043ZM60.5858 44.543L60.0858 45.043L62.9142 47.8714L63.4142 47.3714L60.5858 44.543ZM60.0858 45.043L59.5858 45.543L62.4142 48.3714L62.9142 47.8714L60.0858 45.043ZM42.1005 48.8861C47.5678 54.3535 56.4322 54.3535 61.8995 48.8861L59.0711 46.0577C55.1658 49.9629 48.8342 49.9629 44.9289 46.0577L42.1005 48.8861ZM68.9289 46.0577L66.4142 43.543L63.5858 46.3714L66.1005 48.8861L68.9289 46.0577ZM66.1005 48.8861C68.8338 51.6194 72.4202 52.9866 76 52.9866V48.9866C73.4377 48.9866 70.8819 48.0107 68.9289 46.0577L66.1005 48.8861ZM64.4142 46.3714C64.1854 46.6002 63.8145 46.6002 63.5858 46.3714L66.4142 43.543C65.0809 42.2096 62.9191 42.2096 61.5858 43.543L64.4142 46.3714ZM40.4142 46.3714C40.1854 46.6002 39.8145 46.6002 39.5858 46.3714L42.4142 43.543C41.0809 42.2096 38.9191 42.2096 37.5858 43.543L40.4142 46.3714ZM16.4142 46.3714C16.1854 46.6002 15.8145 46.6002 15.5858 46.3714L18.4142 43.543C17.0809 42.2096 14.9191 42.2096 13.5858 43.543L16.4142 46.3714Z" fill="currentColor" />
  <path opacity="0.25" d="M13 60.6857L14.4142 62.0999L14.4142 62.0999L13 60.6857ZM12.4853 61.2004L11.0711 59.7862L11.0711 59.7862L12.4853 61.2004ZM14.5 59.1857L15.9142 60.5999L15.9142 60.5999L14.5 59.1857ZM13.5 60.1857L12.0858 58.7715L12.0858 58.7715L13.5 60.1857ZM4 62.7151C2.89543 62.7151 2 63.6106 2 64.7151C2 65.8197 2.89543 66.7151 4 66.7151L4 62.7151ZM19.5147 61.2004L20.9289 59.7862V59.7862L19.5147 61.2004ZM37 60.6857L38.4142 62.0999L38.4142 62.0999L37 60.6857ZM36.4853 61.2004L35.0711 59.7862L35.0711 59.7862L36.4853 61.2004ZM38.5 59.1857L39.9142 60.5999V60.5999L38.5 59.1857ZM37.5 60.1857L36.0858 58.7715V58.7715L37.5 60.1857ZM43.5147 61.2004L42.1005 62.6146V62.6146L43.5147 61.2004ZM61 60.6857L62.4142 62.0999L62.4142 62.0999L61 60.6857ZM60.4853 61.2004L59.0711 59.7862L59.0711 59.7862L60.4853 61.2004ZM62.5 59.1857L63.9142 60.5999V60.5999L62.5 59.1857ZM61.5 60.1857L60.0858 58.7715V58.7715L61.5 60.1857ZM67.5147 61.2004L68.9289 59.7862V59.7862L67.5147 61.2004ZM76 66.7151C77.1046 66.7151 78 65.8197 78 64.7151C78 63.6106 77.1046 62.7151 76 62.7151V66.7151ZM65 58.6857L66.4142 57.2715L65 58.6857ZM41 58.6857L42.4142 57.2715L41 58.6857ZM11.5858 59.2715L11.0711 59.7862L13.8995 62.6146L14.4142 62.0999L11.5858 59.2715ZM13.5858 57.2715L13.0858 57.7715L15.9142 60.5999L16.4142 60.0999L13.5858 57.2715ZM13.0858 57.7715L12.5858 58.2715L15.4142 61.0999L15.9142 60.5999L13.0858 57.7715ZM12.5858 58.2715L12.0858 58.7715L14.9142 61.5999L15.4142 61.0999L12.5858 58.2715ZM12.0858 58.7715L11.5858 59.2715L14.4142 62.0999L14.9142 61.5999L12.0858 58.7715ZM4 66.7151C7.57981 66.7151 11.1662 65.3479 13.8995 62.6146L11.0711 59.7862C9.11805 61.7392 6.56232 62.7151 4 62.7151L4 66.7151ZM20.9289 59.7862L18.4142 57.2715L15.5858 60.0999L18.1005 62.6146L20.9289 59.7862ZM35.5858 59.2715L35.0711 59.7862L37.8995 62.6146L38.4142 62.0999L35.5858 59.2715ZM37.5858 57.2715L37.0858 57.7715L39.9142 60.5999L40.4142 60.0999L37.5858 57.2715ZM37.0858 57.7715L36.5858 58.2715L39.4142 61.0999L39.9142 60.5999L37.0858 57.7715ZM36.5858 58.2715L36.0858 58.7715L38.9142 61.5999L39.4142 61.0999L36.5858 58.2715ZM36.0858 58.7715L35.5858 59.2715L38.4142 62.0999L38.9142 61.5999L36.0858 58.7715ZM18.1005 62.6146C23.5678 68.082 32.4321 68.082 37.8995 62.6146L35.0711 59.7862C31.1658 63.6914 24.8342 63.6914 20.9289 59.7862L18.1005 62.6146ZM44.9289 59.7862L42.4142 57.2715L39.5858 60.0999L42.1005 62.6146L44.9289 59.7862ZM59.5858 59.2715L59.0711 59.7862L61.8995 62.6146L62.4142 62.0999L59.5858 59.2715ZM61.5858 57.2715L61.0858 57.7715L63.9142 60.5999L64.4142 60.0999L61.5858 57.2715ZM61.0858 57.7715L60.5858 58.2715L63.4142 61.0999L63.9142 60.5999L61.0858 57.7715ZM60.5858 58.2715L60.0858 58.7715L62.9142 61.5999L63.4142 61.0999L60.5858 58.2715ZM60.0858 58.7715L59.5858 59.2715L62.4142 62.0999L62.9142 61.5999L60.0858 58.7715ZM42.1005 62.6146C47.5678 68.082 56.4322 68.082 61.8995 62.6146L59.0711 59.7862C55.1658 63.6914 48.8342 63.6914 44.9289 59.7862L42.1005 62.6146ZM68.9289 59.7862L66.4142 57.2715L63.5858 60.0999L66.1005 62.6146L68.9289 59.7862ZM66.1005 62.6146C68.8338 65.3479 72.4202 66.7151 76 66.7151V62.7151C73.4377 62.7151 70.8819 61.7392 68.9289 59.7862L66.1005 62.6146ZM64.4142 60.0999C64.1854 60.3287 63.8145 60.3287 63.5858 60.0999L66.4142 57.2715C65.0809 55.9382 62.9191 55.9381 61.5858 57.2715L64.4142 60.0999ZM40.4142 60.0999C40.1854 60.3287 39.8145 60.3287 39.5858 60.0999L42.4142 57.2715C41.0809 55.9382 38.9191 55.9381 37.5858 57.2715L40.4142 60.0999ZM16.4142 60.0999C16.1854 60.3287 15.8145 60.3287 15.5858 60.0999L18.4142 57.2715C17.0809 55.9381 14.9191 55.9382 13.5858 57.2715L16.4142 60.0999Z" fill="currentColor" />
</svg>