<svg viewBox="0 0 80 80" fill="none">
  <circle opacity="0.25" cx="40" cy="60" r="4" fill="currentColor" stroke="currentColor" stroke-width="4" stroke-linecap="round" stroke-linejoin="round" />
  <path d="M30.2821 47.9364L29.0351 46.3727L30.2821 47.9364ZM36.5367 44.9243L36.9818 46.8742L36.5367 44.9243ZM25.1862 50.6432C24.5906 51.5734 24.8619 52.8103 25.7922 53.4059C26.7225 54.0015 27.9594 53.7301 28.5549 52.7999L25.1862 50.6432ZM49.7335 47.9364L48.4865 49.5L49.7335 47.9364ZM51.4592 52.7976C52.055 53.7278 53.2919 53.9989 54.2221 53.4031C55.1522 52.8074 55.4233 51.5704 54.8276 50.6403L51.4592 52.7976ZM43.4789 44.9243L43.0338 46.8742L43.4789 44.9243ZM22.9877 36.7895L24.2347 38.3532L24.2347 38.3532L22.9877 36.7895ZM33.9333 31.5184L33.4883 29.5685L33.9333 31.5184ZM16.6729 40.416C16.005 41.2957 16.1767 42.5504 17.0564 43.2183C17.9362 43.8862 19.1908 43.7145 19.8587 42.8347L16.6729 40.416ZM57.0277 36.7895L55.7808 38.3532V38.3532L57.0277 36.7895ZM60.1551 42.8326C60.8231 43.7123 62.0778 43.8839 62.9574 43.2159C63.8371 42.5479 64.0087 41.2932 63.3407 40.4135L60.1551 42.8326ZM46.0821 31.5184L46.5271 29.5685L46.0821 31.5184ZM15.6875 25.6476L14.4405 24.0839H14.4405L15.6875 25.6476ZM31.3241 18.1174L31.7691 20.0672L31.3241 18.1174ZM8.15225 30.3226C7.45675 31.1807 7.58857 32.4402 8.44668 33.1357C9.30479 33.8312 10.5642 33.6993 11.2597 32.8412L8.15225 30.3226ZM64.3161 25.6476L65.5631 24.0839V24.0839L64.3161 25.6476ZM68.7476 32.8459C69.443 33.7041 70.7024 33.8362 71.5606 33.1408C72.4188 32.4454 72.5509 31.186 71.8555 30.3278L68.7476 32.8459ZM48.6795 18.1174L48.2344 20.0672L48.6795 18.1174ZM31.5291 49.5C33.1263 48.2263 34.99 47.3288 36.9818 46.8742L36.0917 42.9744C33.5141 43.5628 31.1022 44.7243 29.0351 46.3727L31.5291 49.5ZM28.5549 52.7999C29.3568 51.5475 30.3606 50.4318 31.5291 49.5L29.0351 46.3727C27.523 47.5786 26.2238 49.0224 25.1862 50.6432L28.5549 52.7999ZM48.4865 49.5C49.6543 50.4313 50.6577 51.5461 51.4592 52.7976L54.8276 50.6403C53.7902 49.0206 52.4917 47.5779 50.9805 46.3727L48.4865 49.5ZM43.0338 46.8742C45.0256 47.3288 46.8893 48.2263 48.4865 49.5L50.9805 46.3727C48.9134 44.7243 46.5015 43.5628 43.9239 42.9744L43.0338 46.8742ZM43.9239 42.9744C41.3463 42.3861 38.6693 42.3861 36.0917 42.9744L36.9818 46.8742C38.9735 46.4196 41.0421 46.4196 43.0338 46.8742L43.9239 42.9744ZM24.2347 38.3532C27.2061 35.9836 30.6731 34.314 34.3784 33.4683L33.4883 29.5685C29.1972 30.548 25.1819 32.4816 21.7407 35.2259L24.2347 38.3532ZM19.8587 42.8347C21.1222 41.1705 22.5909 39.6641 24.2347 38.3532L21.7407 35.2259C19.837 36.744 18.1361 38.4887 16.6729 40.416L19.8587 42.8347ZM55.7808 38.3532C57.4238 39.6635 58.892 41.1693 60.1551 42.8326L63.3407 40.4135C61.8779 38.4872 60.1776 36.7434 58.2747 35.2259L55.7808 38.3532ZM45.637 33.4683C49.3423 34.314 52.8094 35.9836 55.7808 38.3532L58.2747 35.2259C54.8335 32.4816 50.8182 30.548 46.5271 29.5685L45.637 33.4683ZM46.5271 29.5685C42.236 28.5891 37.7794 28.5891 33.4883 29.5685L34.3784 33.4683C38.0836 32.6226 41.9318 32.6226 45.637 33.4683L46.5271 29.5685ZM16.9345 27.2113C21.2799 23.7458 26.3504 21.304 31.7691 20.0672L30.8791 16.1675C24.8745 17.538 19.2558 20.2438 14.4405 24.0839L16.9345 27.2113ZM11.2597 32.8412C12.9372 30.7716 14.8385 28.8827 16.9345 27.2113L14.4405 24.0839C12.1179 25.9361 10.011 28.0292 8.15225 30.3226L11.2597 32.8412ZM63.0691 27.2113C65.1666 28.884 67.0692 30.7745 68.7476 32.8459L71.8555 30.3278C69.9957 28.0324 67.8874 25.9375 65.5631 24.0839L63.0691 27.2113ZM48.2344 20.0672C53.6532 21.304 58.7236 23.7458 63.0691 27.2113L65.5631 24.0839C60.7477 20.2438 55.1291 17.538 49.1245 16.1675L48.2344 20.0672ZM49.1245 16.1675C43.1199 14.797 36.8837 14.797 30.8791 16.1675L31.7691 20.0672C37.1879 18.8304 42.8157 18.8305 48.2344 20.0672L49.1245 16.1675Z" fill="currentColor" />
</svg>