<svg viewBox="0 0 80 80" fill="none">
  <circle opacity="0.25" cx="40.0039" cy="60" r="4" fill="currentColor" stroke="currentColor" stroke-width="4" stroke-linecap="round" stroke-linejoin="round" />
  <path d="M30.286 47.9364L31.533 49.5H31.533L30.286 47.9364ZM36.5406 44.9243L36.9857 46.8742H36.9857L36.5406 44.9243ZM25.1901 50.6432C24.5945 51.5734 24.8659 52.8104 25.7961 53.4059C26.7264 54.0015 27.9633 53.7301 28.5589 52.7999L25.1901 50.6432ZM49.7374 47.9364L48.4905 49.5L49.7374 47.9364ZM51.4631 52.7976C52.0589 53.7278 53.2959 53.9989 54.226 53.4031C55.1561 52.8074 55.4272 51.5704 54.8315 50.6403L51.4631 52.7976ZM43.4828 44.9243L43.0377 46.8742L43.4828 44.9243ZM22.9916 36.7895L21.7446 35.2259L22.9916 36.7895ZM33.9373 31.5184L33.4922 29.5685L33.9373 31.5184ZM16.6768 40.416C16.0089 41.2957 16.1806 42.5504 17.0603 43.2183C17.9401 43.8862 19.1947 43.7145 19.8626 42.8347L16.6768 40.416ZM57.0316 36.7895L58.2786 35.2259L57.0316 36.7895ZM60.159 42.8326C60.827 43.7123 62.0817 43.8839 62.9614 43.2159C63.841 42.5479 64.0126 41.2932 63.3446 40.4135L60.159 42.8326ZM46.086 31.5184L46.531 29.5685L46.086 31.5184ZM31.533 49.5C33.1302 48.2263 34.9939 47.3288 36.9857 46.8742L36.0956 42.9744C33.518 43.5628 31.1061 44.7243 29.039 46.3727L31.533 49.5ZM28.5589 52.7999C29.3607 51.5475 30.3645 50.4318 31.533 49.5L29.039 46.3727C27.5269 47.5786 26.2277 49.0224 25.1901 50.6432L28.5589 52.7999ZM48.4905 49.5C49.6582 50.4313 50.6616 51.5461 51.4631 52.7976L54.8315 50.6403C53.7942 49.0206 52.4956 47.5779 50.9844 46.3727L48.4905 49.5ZM43.0377 46.8742C45.0295 47.3288 46.8932 48.2263 48.4905 49.5L50.9844 46.3727C48.9173 44.7243 46.5054 43.5628 43.9278 42.9744L43.0377 46.8742ZM43.9278 42.9744C41.3502 42.3861 38.6732 42.3861 36.0956 42.9744L36.9857 46.8742C38.9774 46.4196 41.046 46.4196 43.0377 46.8742L43.9278 42.9744ZM24.2386 38.3532C27.21 35.9836 30.6771 34.314 34.3823 33.4683L33.4922 29.5685C29.2011 30.548 25.1858 32.4816 21.7446 35.2259L24.2386 38.3532ZM19.8626 42.8347C21.1261 41.1705 22.5948 39.6641 24.2386 38.3532L21.7446 35.2259C19.8409 36.744 18.14 38.4887 16.6768 40.416L19.8626 42.8347ZM55.7847 38.3532C57.4278 39.6635 58.8959 41.1693 60.159 42.8326L63.3446 40.4135C61.8818 38.4872 60.1815 36.7434 58.2786 35.2259L55.7847 38.3532ZM45.641 33.4683C49.3462 34.314 52.8133 35.9836 55.7847 38.3532L58.2786 35.2259C54.8374 32.4816 50.8222 30.548 46.531 29.5685L45.641 33.4683ZM46.531 29.5685C42.24 28.5891 37.7833 28.5891 33.4922 29.5685L34.3823 33.4683C38.0876 32.6226 41.9357 32.6226 45.641 33.4683L46.531 29.5685Z" fill="currentColor" />
</svg>