<svg viewBox="0 0 80 80" fill="none">
  <path fill-rule="evenodd" clip-rule="evenodd" d="M41.5942 12.0916C40.8092 11.0046 39.1905 11.0046 38.4055 12.0916C36.4637 14.7802 36.4052 18.3947 38.259 21.1448L41.0339 25.2614C41.6407 26.1616 41.9649 27.2225 41.9649 28.3082V29.1941C41.9649 31.7153 39.921 33.7591 37.3999 33.7591C34.8787 33.7591 32.8349 31.7153 32.8349 29.1941V28.3082C32.8349 27.2225 33.159 26.1616 33.7659 25.2614L35.1568 23.1979C35.7473 22.3219 35.526 21.1342 34.6597 20.5296C33.7933 19.925 32.6022 20.127 31.9836 20.9834L28.0063 26.4905C26.0941 29.1382 25.0649 32.3211 25.0649 35.5871V36.1889C25.0649 44.4373 31.7515 51.1239 39.9999 51.1239C48.2482 51.1239 54.9349 44.4373 54.9349 36.1889V35.5871C54.9349 32.3211 53.9056 29.1382 51.9934 26.4905L41.5942 12.0916ZM40.9122 17.757L48.8561 28.7563C50.292 30.7445 51.0649 33.1346 51.0649 35.5871V36.1889C51.0649 42.3 46.1109 47.2539 39.9999 47.2539C33.8888 47.2539 28.9349 42.3 28.9349 36.1889V35.5871C28.9349 34.3916 29.1185 33.211 29.4731 32.0844C30.6529 35.3194 33.7567 37.6291 37.3999 37.6291C42.0584 37.6291 45.8349 33.8526 45.8349 29.1941V28.3082C45.8349 26.4517 45.2805 24.6376 44.2429 23.0983L41.468 18.9817C41.2107 18.5999 41.0255 18.1856 40.9122 17.757Z" stroke="currentColor" stroke-linecap="round" stroke-linejoin="round" />
  <path d="M11.8703 67.4498C11.5048 66.4456 12.0225 65.3352 13.0268 64.9697L34.342 57.2116L13.0268 49.4535C12.0225 49.088 11.5048 47.9776 11.8703 46.9734C12.2358 45.9692 13.3462 45.4514 14.3504 45.8169L39.9996 55.1524L65.6496 45.8166C66.6538 45.4511 67.7642 45.9689 68.1297 46.9731C68.4952 47.9773 67.9774 49.0877 66.9732 49.4532L45.6571 57.2116L66.9732 64.97C67.9774 65.3355 68.4952 66.4459 68.1297 67.4501C67.7642 68.4544 66.6538 68.9721 65.6496 68.6066L39.9996 59.2708L14.3504 68.6063C13.3462 68.9718 12.2358 68.4541 11.8703 67.4498Z" stroke="currentColor" stroke-linecap="round" stroke-linejoin="round" />
</svg>