<svg viewBox="0 0 80 80" fill="none">
  <path fill-rule="evenodd" clip-rule="evenodd" d="M59 4.83325C56.7248 4.83325 54.7121 5.94461 53.4708 7.65126C51.3863 7.32218 49.1772 7.95954 47.5684 9.56836C46.0803 11.0565 45.4233 13.0583 45.5936 14.9999H13C12.9091 14.9999 12.8197 15.006 12.7321 15.0177C12.546 15.0059 12.3591 14.9999 12.1716 14.9999H11.8284C9.48698 14.9999 7.24144 15.9301 5.58579 17.5857C3.93014 19.2414 3 21.4869 3 23.8284V33.9999C3 35.6568 4.34315 36.9999 6 36.9999H17V62.7573C17 66.0042 18.2898 69.1182 20.5858 71.4142C22.8245 73.6528 25.8409 74.935 29 74.9975V74.9999H64.7574C68.0043 74.9999 71.1183 73.7101 73.4142 71.4142C75.7102 69.1182 77 66.0042 77 62.7573V58.9999C77 57.3431 75.6569 55.9999 74 55.9999H65V34.4063C66.9417 34.5766 68.9434 33.9196 70.4315 32.4315C72.0404 30.8227 72.6777 28.6136 72.3486 26.5291C74.0553 25.2879 75.1666 23.2751 75.1666 20.9999C75.1666 18.7247 74.0553 16.712 72.3486 15.4707C72.6777 13.3862 72.0404 11.1772 70.4315 9.56836C68.8227 7.95954 66.6137 7.32219 64.5292 7.65127C63.2879 5.94461 61.2752 4.83325 59 4.83325ZM59.4627 37.1512C59.9942 37.1156 60.5089 37.0194 61 36.8693V55.9999H40C38.3431 55.9999 37 57.3431 37 58.9999V62.7573C37 64.9434 36.1316 67.0399 34.5858 68.5857L34.4142 68.7573C34.2382 68.9333 34.0546 69.0998 33.864 69.2566C32.5301 70.3538 30.8582 70.972 29.119 70.999C26.9777 70.9669 24.9309 70.1024 23.4142 68.5857C21.8684 67.0399 21 64.9434 21 62.7573V23.8284C21 22.1005 20.4935 20.4248 19.5627 18.9999H43.1306C42.9768 19.5031 42.8795 20.0311 42.8462 20.5765C42.8377 20.7165 42.8333 20.8577 42.8333 20.9999C42.8333 23.2751 43.9447 25.2879 45.6513 26.5291C45.3223 28.6136 45.9596 30.8227 47.5684 32.4315C49.1772 34.0403 51.3863 34.6777 53.4708 34.3486C54.7121 36.0552 56.7248 37.1666 59 37.1666C59.1555 37.1666 59.3098 37.1614 59.4627 37.1512ZM61.3603 31.902C61.485 31.7149 61.5881 31.5119 61.6659 31.2967L62.4111 29.2352L64.3959 30.1659C65.4486 30.6596 66.738 30.4681 67.6031 29.6031C68.4682 28.738 68.6596 27.4485 68.166 26.3958L67.2353 24.4111L69.2968 23.6658C70.3902 23.2705 71.1666 22.2233 71.1666 20.9999C71.1666 19.7765 70.3902 18.7293 69.2968 18.334L67.2353 17.5888L68.166 15.604C68.6596 14.5513 68.4682 13.2618 67.6031 12.3968C66.7381 11.5317 65.4486 11.3403 64.3959 11.8339L62.4112 12.7646L61.6659 10.7031C61.2706 9.60967 60.2234 8.83325 59 8.83325C57.7766 8.83325 56.7294 9.60967 56.3341 10.7031L55.5888 12.7646L53.6041 11.8339C52.5514 11.3403 51.2619 11.5317 50.3968 12.3968C49.5318 13.2618 49.3403 14.5513 49.834 15.604L50.7647 17.5887L48.7032 18.334C48.488 18.4118 48.285 18.5149 48.0979 18.6396C48.091 18.6444 48.084 18.6492 48.0771 18.6539C47.8699 18.7947 47.6828 18.9616 47.5204 19.1498C47.0917 19.647 46.8333 20.2941 46.8333 20.9999C46.8333 22.2233 47.6097 23.2705 48.7032 23.6658L50.7647 24.4111L49.834 26.3958C49.3403 27.4485 49.5318 28.738 50.3968 29.6031C51.2619 30.4681 52.5514 30.6596 53.6041 30.1659L55.5888 29.2352L56.3341 31.2967C56.7294 32.3902 57.7766 33.1666 59 33.1666C59.7058 33.1666 60.353 32.9082 60.8501 32.4795C61.0383 32.317 61.2052 32.1299 61.346 31.9228C61.3507 31.9158 61.3555 31.9089 61.3603 31.902ZM11.8284 18.9999C10.5478 18.9999 9.31972 19.5086 8.41421 20.4142C7.50871 21.3197 7 22.5478 7 23.8284V32.9999H17V23.8284C17 22.7079 16.6105 21.6275 15.9065 20.7683C15.806 20.6456 15.699 20.5274 15.5859 20.4142L15.5851 20.4134C14.6796 19.5084 13.4518 18.9999 12.1716 18.9999H11.8284ZM37.8095 70.9999H64.7574C66.9434 70.9999 69.04 70.1315 70.5858 68.5857C72.1316 67.0399 73 64.9434 73 62.7573V59.9999H41V62.7573C41 65.5984 40.0125 68.3377 38.2275 70.5162C38.0927 70.6807 37.9533 70.842 37.8095 70.9999Z" stroke="currentColor" />
</svg>