<svg viewBox="0 0 80 80" fill="none">
  <path d="M28 29.0003C28 29.0003 28 29.0003 28 29.0003ZM28 29.0003C28 28.7673 28.0133 28.5373 28.0391 28.3112C28.3809 25.3216 30.9199 22.9997 34.0011 23.0002L48 23.001V17.0003C48 15.8956 47.1044 15.0001 45.9996 15.0003L22.0002 15C20.8956 14.9999 20 15.8953 20 17L20 50.9999C20 52.1045 20.8954 52.9999 22 52.9999H28V29.0003ZM16 17C16 13.686 18.6867 10.9996 22.0007 11L45.9989 11.0003C49.3131 10.9997 52 13.6861 52 17.0003V23.0006L57.9993 22.9999C61.3133 22.9996 64 25.686 64 28.9999L64 62.9999C64 66.3136 61.3137 68.9999 58 68.9999H34C30.6863 68.9999 28 66.3136 28 62.9999V56.9999H22C18.6863 56.9999 16 54.3136 16 50.9999L16 17ZM34.0004 27.0003C32.9608 27.0001 32.1063 27.7931 32.0092 28.8072L32.0002 28.9744C32.0001 28.983 32 28.9916 32 29.0003V54.9999C32 55.0006 32 55.0012 32 55.0019V62.9999C32 64.1044 32.8954 64.9999 34 64.9999H58C59.1046 64.9999 60 64.1044 60 62.9999L60 28.9999C60 27.8953 59.1044 26.9998 57.9998 26.9999L50.0166 27.0008C50.0111 27.0009 50.0057 27.0009 50.0002 27.0009L34.0004 27.0003Z" stroke="currentColor" stroke-linecap="round" stroke-linejoin="round" />
</svg>