<svg viewBox="0 0 80 80" fill="none">
  <path fill-rule="evenodd" clip-rule="evenodd" d="M64.1616 39.0185C61.6721 38.3514 59.1132 39.8288 58.4461 42.3183C57.779 44.8078 59.2564 47.3667 61.7459 48.0338C64.2354 48.7008 66.7943 47.2234 67.4614 44.7339C68.1285 42.2444 66.6511 39.6855 64.1616 39.0185ZM62.3098 43.3536C62.4051 42.9979 62.7707 42.7869 63.1263 42.8822C63.4819 42.9775 63.693 43.343 63.5977 43.6987C63.5024 44.0543 63.1368 44.2654 62.7812 44.1701C62.4256 44.0748 62.2145 43.7092 62.3098 43.3536Z" stroke="currentColor" stroke-linecap="round" stroke-linejoin="round" />
  <path fill-rule="evenodd" clip-rule="evenodd" d="M39.793 55.265C40.46 52.7755 43.019 51.2981 45.5085 51.9652C47.998 52.6322 49.4754 55.1911 48.8083 57.6806C48.1412 60.1702 45.5823 61.6475 43.0928 60.9805C40.6033 60.3134 39.1259 57.7545 39.793 55.265ZM44.4732 55.8289C44.1175 55.7336 43.752 55.9446 43.6567 56.3003C43.5614 56.6559 43.7725 57.0215 44.1281 57.1168C44.4837 57.2121 44.8493 57.001 44.9446 56.6454C45.0399 56.2897 44.8288 55.9242 44.4732 55.8289Z" stroke="currentColor" stroke-linecap="round" stroke-linejoin="round" />
  <path fill-rule="evenodd" clip-rule="evenodd" d="M15.0136 35.9842C13.1912 34.1618 13.1912 31.207 15.0136 29.3845C16.8361 27.5621 19.7909 27.5621 21.6133 29.3845C23.4358 31.207 23.4358 34.1618 21.6133 35.9842C19.7909 37.8067 16.8361 37.8067 15.0136 35.9842ZM17.8421 32.213C17.5817 32.4733 17.5817 32.8954 17.8421 33.1558C18.1024 33.4161 18.5245 33.4161 18.7849 33.1558C19.0452 32.8954 19.0452 32.4733 18.7849 32.213C18.5245 31.9526 18.1024 31.9526 17.8421 32.213Z" stroke="currentColor" stroke-linecap="round" stroke-linejoin="round" />
  <path fill-rule="evenodd" clip-rule="evenodd" d="M25.3845 19.0136C23.5621 20.8361 23.5621 23.7909 25.3845 25.6133C27.207 27.4358 30.1618 27.4358 31.9842 25.6133C33.8067 23.7909 33.8067 20.8361 31.9842 19.0136C30.1618 17.1912 27.207 17.1912 25.3845 19.0136ZM28.213 22.7849C27.9526 22.5245 27.9526 22.1024 28.213 21.8421C28.4733 21.5817 28.8954 21.5817 29.1558 21.8421C29.4161 22.1024 29.4161 22.5245 29.1558 22.7849C28.8954 23.0452 28.4733 23.0452 28.213 22.7849Z" stroke="currentColor" stroke-linecap="round" stroke-linejoin="round" />
  <path fill-rule="evenodd" clip-rule="evenodd" d="M27.2702 48.2407C25.4477 46.4183 25.4477 43.4635 27.2702 41.6411C29.0926 39.8186 32.0474 39.8186 33.8698 41.6411C35.6923 43.4635 35.6923 46.4183 33.8698 48.2407C32.0474 50.0632 29.0926 50.0632 27.2702 48.2407ZM30.0986 44.4695C29.8382 44.7298 29.8382 45.1519 30.0986 45.4123C30.3589 45.6726 30.781 45.6726 31.0414 45.4123C31.3017 45.1519 31.3017 44.7298 31.0414 44.4695C30.781 44.2091 30.3589 44.2091 30.0986 44.4695Z" stroke="currentColor" stroke-linecap="round" stroke-linejoin="round" />
  <path fill-rule="evenodd" clip-rule="evenodd" d="M37.6411 31.2702C35.8186 33.0926 35.8186 36.0474 37.6411 37.8698C39.4635 39.6923 42.4183 39.6923 44.2407 37.8698C46.0632 36.0474 46.0632 33.0926 44.2407 31.2702C42.4183 29.4477 39.4635 29.4477 37.6411 31.2702ZM40.4695 35.0414C40.2091 34.781 40.2091 34.3589 40.4695 34.0986C40.7298 33.8382 41.1519 33.8382 41.4123 34.0986C41.6726 34.3589 41.6726 34.781 41.4123 35.0414C41.1519 35.3017 40.7298 35.3017 40.4695 35.0414Z" stroke="currentColor" stroke-linecap="round" stroke-linejoin="round" />
  <path fill-rule="evenodd" clip-rule="evenodd" d="M11.2424 26.5561C7.33717 30.4614 7.33717 36.793 11.2424 40.6983L22.5561 52.012C25.6451 55.1009 30.2521 55.7466 33.9757 53.9489C33.0953 58.9939 36.1997 63.9653 41.2412 65.3161L56.696 69.4572C62.0307 70.8867 67.514 67.7208 68.9435 62.3862L73.0846 46.9314C74.514 41.5967 71.3482 36.1133 66.0135 34.6839L50.5587 30.5428C50.5211 30.5327 50.4836 30.5229 50.446 30.5133C49.9733 29.0665 49.1619 27.7061 48.012 26.5561L36.6982 15.2424C32.793 11.3372 26.4614 11.3372 22.5561 15.2424L11.2424 26.5561ZM49.0379 39.4981C50.0721 38.0755 50.6848 36.4417 50.8759 34.7689L64.9782 38.5476C68.179 39.4053 70.0785 42.6953 69.2209 45.8961L65.0798 61.3509C64.2221 64.5517 60.9321 66.4512 57.7313 65.5935L42.2765 61.4524C39.0757 60.5948 37.1762 57.3048 38.0338 54.104L39.2884 49.422L48.0121 40.6982C48.3908 40.3196 48.7327 39.918 49.0379 39.4981ZM14.0708 37.8698C11.7277 35.5267 11.7277 31.7277 14.0708 29.3845L25.3845 18.0708C27.7277 15.7277 31.5267 15.7277 33.8698 18.0708L45.1835 29.3845C47.5267 31.7277 47.5267 35.5267 45.1835 37.8698L33.8698 49.1835C31.5267 51.5267 27.7277 51.5267 25.3845 49.1835L14.0708 37.8698Z" stroke="currentColor" stroke-linecap="round" stroke-linejoin="round" />
</svg>