<svg viewBox="0 0 80 80" fill="none">
  <path d="M61.9612 16.0757C56.0156 16.3313 50.112 17.2336 44.3552 18.7687L34.6142 21.3663C29.1331 22.828 23.5121 23.6864 17.8512 23.9287C16.7409 23.9762 15.6291 24 14.5165 24H10C7.79086 24 6 25.7909 6 28V60C6 62.2091 7.79086 64 10 64H14.5165C15.6311 64 16.7449 63.9773 17.8573 63.9319C23.8642 63.687 29.8294 62.782 35.6448 61.2313L45.3858 58.6337C50.8657 57.1724 56.4893 56.3138 62.1488 56.0713C63.2591 56.0238 64.3709 56 65.4835 56H70C72.2091 56 74 54.2091 74 52V20C74 17.7909 72.2091 16 70 16H65.4835C64.3689 16 63.2551 16.0227 62.1427 16.0681M61.9612 16.0757C62.0217 16.0731 62.0822 16.0705 62.1427 16.0681M61.9612 16.0757L62.1427 16.0681M45.3858 22.6337C50.1933 21.3517 55.1083 20.5337 60.0635 20.1885C60.6209 25.3769 64.7859 29.4853 70 29.9552V42.0448C64.6625 42.5258 60.4244 46.8195 60.03 52.1815C54.7379 52.5343 49.4882 53.3999 44.3552 54.7687L34.6142 57.3663C29.8067 58.6483 24.8917 59.4663 19.9365 59.8115C19.3791 54.6231 15.2141 50.5147 10 50.0448V37.9552C15.3375 37.4742 19.5756 33.1805 19.97 27.8185C25.2621 27.4657 30.5118 26.6001 35.6448 25.2313L45.3858 22.6337ZM70 20V25.9291C66.9386 25.4912 64.5161 23.0724 64.0727 20.0128C64.5428 20.0043 65.0131 20 65.4835 20H70ZM70 52H65.4835C65.0119 52 64.5404 52.0041 64.0692 52.0122C64.503 48.9407 66.9302 46.51 70 46.0709V52ZM10 28L14.5165 28C14.9881 28 15.4596 27.9959 15.9308 27.9878C15.497 31.0593 13.0698 33.49 10 33.9291V28ZM15.9273 59.9872C15.4572 59.9957 14.9869 60 14.5165 60H10V54.0709C13.0614 54.5088 15.4839 56.9276 15.9273 59.9872ZM46.2039 30.0752C42.6823 27.3642 37.7767 27.3642 34.2551 30.0752C31.8465 31.9293 30.4353 34.7966 30.4353 37.8362V42.1638C30.4353 45.2034 31.8465 48.0707 34.2551 49.9248C37.7767 52.6358 42.6823 52.6358 46.2039 49.9248C48.6125 48.0707 50.0237 45.2034 50.0237 42.1638V37.8362C50.0237 34.7966 48.6125 31.9293 46.2039 30.0752ZM36.695 33.2448C38.7784 31.641 41.6805 31.641 43.7639 33.2448C45.1888 34.3417 46.0237 36.038 46.0237 37.8362V42.1638C46.0237 43.962 45.1888 45.6583 43.7639 46.7552C41.6805 48.359 38.7784 48.359 36.695 46.7552C35.2701 45.6583 34.4353 43.962 34.4353 42.1638V37.8362C34.4353 36.038 35.2701 34.3417 36.695 33.2448ZM61.8048 31.6352C60.1515 30.3625 57.8485 30.3625 56.1952 31.6352C55.0644 32.5056 54.4019 33.8517 54.4019 35.2787V36.7213C54.4019 38.1483 55.0644 39.4944 56.1952 40.3648C57.8485 41.6375 60.1515 41.6375 61.8048 40.3648C62.9356 39.4944 63.5981 38.1483 63.5981 36.7213V35.2787C63.5981 33.8517 62.9356 32.5056 61.8048 31.6352ZM58.6352 34.8048C58.8502 34.6393 59.1498 34.6393 59.3648 34.8048C59.5119 34.918 59.5981 35.0931 59.5981 35.2787V36.7213C59.5981 36.9069 59.5119 37.082 59.3648 37.1952C59.1498 37.3607 58.8502 37.3607 58.6352 37.1952C58.4881 37.082 58.4019 36.9069 58.4019 36.7213V35.2787C58.4019 35.0931 58.4881 34.918 58.6352 34.8048ZM23.8048 39.6352C22.1515 38.3625 19.8485 38.3625 18.1952 39.6352C17.0645 40.5056 16.4019 41.8517 16.4019 43.2787V44.7213C16.4019 46.1483 17.0645 47.4944 18.1952 48.3648C19.8485 49.6375 22.1515 49.6375 23.8048 48.3648C24.9355 47.4944 25.5981 46.1483 25.5981 44.7213V43.2787C25.5981 41.8517 24.9355 40.5056 23.8048 39.6352ZM20.6352 42.8048C20.8502 42.6393 21.1498 42.6393 21.3648 42.8048C21.5119 42.918 21.5981 43.0931 21.5981 43.2787V44.7213C21.5981 44.9069 21.5119 45.082 21.3648 45.1952C21.1498 45.3607 20.8502 45.3607 20.6352 45.1952C20.4881 45.082 20.4019 44.9069 20.4019 44.7213V43.2787C20.4019 43.0931 20.4881 42.918 20.6352 42.8048Z" stroke="currentColor" stroke-linecap="round" stroke-linejoin="round" />
</svg>