<svg viewBox="0 0 80 80" fill="none">
  <path d="M11.3161 28C11.3161 26.8954 10.4207 26 9.3161 26C8.21153 26 7.3161 26.8954 7.3161 28C7.3161 29.0883 7.48846 30.1549 7.81662 31.1891L2.69687 35.587C1.94885 36.2296 1.78081 37.3215 2.30102 38.1592L2.30222 38.1611C2.61026 38.6572 3.11969 38.9939 3.6968 39.0828C4.2739 39.1717 4.86104 39.0039 5.30408 38.6235L9.70786 34.8428C9.83902 35.0218 9.97511 35.1992 10.116 35.3747C11.5457 37.1562 13.4624 38.7501 15.748 40.1263L12.5435 45.0696C12.2392 45.5391 12.1454 46.1145 12.285 46.6563C12.4245 47.1981 12.7846 47.6567 13.2779 47.9208L13.2798 47.9218C14.1964 48.4124 15.3359 48.1191 15.9016 47.2469L19.3227 41.9728C21.6045 42.9831 24.1246 43.8178 26.809 44.4603L25.1401 50.0963C24.9814 50.6324 25.0543 51.2105 25.3412 51.6904C25.628 52.1703 26.1027 52.5082 26.6501 52.6222L26.6526 52.6227C27.6711 52.8348 28.6821 52.2306 28.9778 51.2331L30.7525 45.2464C33.2113 45.6429 35.7496 45.8848 38.3137 45.9677L38.3146 52.0006C38.3147 53.105 39.2101 54.0003 40.3146 54.0003H40.3173C41.4218 54.0003 42.3171 53.105 42.3173 52.0006L42.3182 45.9677C44.8823 45.8848 47.4206 45.6429 49.8794 45.2464L51.6541 51.2332C51.9497 52.2306 52.9606 52.8348 53.979 52.6228L53.9815 52.6223C54.529 52.5084 55.0037 52.1705 55.2907 51.6906C55.5776 51.2107 55.6506 50.6326 55.4918 50.0964L53.8229 44.4604C56.5073 43.8179 59.0274 42.9832 61.3093 41.9729L64.7304 47.2471C65.2961 48.1193 66.4357 48.4126 67.3522 47.922L67.3541 47.921C67.8474 47.6569 68.2075 47.1983 68.347 46.6565C68.4866 46.1147 68.3928 45.5393 68.0885 45.0698L64.884 40.1265C67.1697 38.7502 69.0864 37.1563 70.5162 35.3747C70.657 35.1992 70.7931 35.0219 70.9242 34.843L75.3281 38.6238C75.7709 39.004 76.3577 39.1718 76.9345 39.0832C77.5114 38.9946 78.0207 38.6584 78.329 38.1629L78.3302 38.161C78.8516 37.3231 78.6839 36.2303 77.9353 35.5873L72.8155 31.1893C73.1437 30.1551 73.3161 29.0883 73.3161 28C73.3161 26.8954 72.4207 26 71.3161 26C70.2115 26 69.3161 26.8954 69.3161 28C69.3161 29.5655 68.7243 31.2167 67.3966 32.8711C66.058 34.539 64.0209 36.142 61.3191 37.5365C58.6244 38.9273 55.3801 40.0526 51.7612 40.8263C48.1453 41.5993 44.2547 42 40.3161 42C36.3775 42 32.4869 41.5993 28.871 40.8263C25.2521 40.0526 22.0078 38.9273 19.3131 37.5365C16.6113 36.142 14.5742 34.539 13.2356 32.8711C12.7203 32.229 12.3158 31.5873 12.0137 30.9509C12.0112 30.9453 12.0085 30.9397 12.0059 30.9341L12.0039 30.9298C12.0012 30.9242 11.9986 30.9186 11.9959 30.913C11.5321 29.9229 11.3161 28.9458 11.3161 28Z" stroke="currentColor" stroke-linecap="round" stroke-linejoin="round" />
</svg>