<svg viewBox="0 0 80 80" fill="none">
  <path d="M16 55C14.8954 55 14 55.8954 14 57C14 58.1046 14.8954 59 16 59H23C24.1046 59 25 58.1046 25 57C25 55.8954 24.1046 55 23 55H16Z" stroke="currentColor" stroke-linecap="round" stroke-linejoin="round" />
  <path d="M28 57C28 55.8954 28.8954 55 30 55H37C38.1046 55 39 55.8954 39 57C39 58.1046 38.1046 59 37 59H30C28.8954 59 28 58.1046 28 57Z" stroke="currentColor" stroke-linecap="round" stroke-linejoin="round" />
  <path d="M44 55C42.8954 55 42 55.8954 42 57C42 58.1046 42.8954 59 44 59H51C52.1046 59 53 58.1046 53 57C53 55.8954 52.1046 55 51 55H44Z" stroke="currentColor" stroke-linecap="round" stroke-linejoin="round" />
  <path d="M56 57C56 55.8954 56.8954 55 58 55H65C66.1046 55 67 55.8954 67 57C67 58.1046 66.1046 59 65 59H58C56.8954 59 56 58.1046 56 57Z" stroke="currentColor" stroke-linecap="round" stroke-linejoin="round" />
  <path d="M16 63C14.8954 63 14 63.8954 14 65C14 66.1046 14.8954 67 16 67H32C33.1046 67 34 66.1046 34 65C34 63.8954 33.1046 63 32 63H16Z" stroke="currentColor" stroke-linecap="round" stroke-linejoin="round" />
  <path fill-rule="evenodd" clip-rule="evenodd" d="M36.8919 15.2871C33.888 9.8802 26.112 9.8802 23.1081 15.2871C21.6728 17.8708 21.8616 20.7453 23.1391 23H12C8.68629 23 6 25.6863 6 29V69C6 72.3137 8.68629 75 12 75H68C71.3137 75 74 72.3137 74 69V29C74 25.6863 71.3137 23 68 23H56.8609C58.1384 20.7453 58.3273 17.8708 56.8919 15.2871C53.888 9.8802 46.112 9.8802 43.1081 15.2871L40 20.8818L36.8919 15.2871ZM36.601 23H30C27.0385 23 25.1665 19.8185 26.6047 17.2297C28.0846 14.566 31.9154 14.566 33.3953 17.2297L36.601 23ZM50 23H43.399L46.6047 17.2297C48.0846 14.566 51.9154 14.566 53.3953 17.2297C54.8335 19.8185 52.9615 23 50 23ZM43.399 27H68C69.1046 27 70 27.8954 70 29V69C70 70.1046 69.1046 71 68 71H12C10.8954 71 10 70.1046 10 69V29C10 27.8954 10.8954 27 12 27H36.601L28.2517 42.0287C27.7153 42.9943 28.0631 44.2119 29.0287 44.7483C29.9943 45.2847 31.2119 44.9369 31.7483 43.9713L40 29.1183L48.2517 43.9713C48.7881 44.9369 50.0057 45.2847 50.9713 44.7483C51.9369 44.2119 52.2847 42.9943 51.7483 42.0287L43.399 27Z" stroke="currentColor" stroke-linecap="round" stroke-linejoin="round" />
</svg>