<svg viewBox="0 0 80 80" fill="none">
  <path fill-rule="evenodd" clip-rule="evenodd" d="M39.0514 18.2081C39.6672 18.0029 40.333 18.0029 40.9488 18.2081L73.7865 29.1541C76.5216 30.0658 76.5215 33.9345 73.7865 34.8462L62.2086 38.7055C62.2635 39.1298 62.2918 39.562 62.2918 40.0002V49.4418C62.2918 54.2086 58.9272 58.3127 54.253 59.2476L42.253 61.6476C40.9584 61.9065 39.6253 61.9065 38.3307 61.6476L26.3307 59.2476C21.6564 58.3127 18.2918 54.2086 18.2918 49.4418V40.0002C18.2918 39.6569 18.3092 39.3172 18.3432 38.9821L16.6265 39.4726C14.48 40.0859 13.0001 42.0478 13.0001 44.2802V50.4133L13.9926 61.8269C14.0882 62.9273 13.2738 63.8969 12.1733 63.9926C11.7485 64.0295 11.3432 63.9308 11.0001 63.7324C10.657 63.9308 10.2517 64.0295 9.82682 63.9926C8.7264 63.8969 7.91191 62.9273 8.0076 61.8269L9.00008 50.4133V44.2802C9.00008 41.3433 10.423 38.6665 12.6974 37.0074L6.21367 34.8462C3.47855 33.9345 3.47861 30.0657 6.21367 29.1541L39.0514 18.2081ZM25.3041 36.9933L39.5495 32.9232C40.6116 32.6197 41.2266 31.5127 40.9231 30.4507C40.6197 29.3886 39.5127 28.7736 38.4506 29.0771L18.584 34.7532L10.3246 32.0001L40.0001 22.1083L69.6755 32.0001L40.0001 41.8919L25.3041 36.9933ZM40.9488 45.7922L58.2918 40.0112V49.4418C58.2918 52.3019 56.2731 54.7644 53.4685 55.3253L41.4685 57.7253C40.6918 57.8806 39.8919 57.8806 39.1151 57.7253L27.1151 55.3253C24.3106 54.7644 22.2918 52.3019 22.2918 49.4418V40.2057L39.0514 45.7922C39.6672 45.9974 40.333 45.9974 40.9488 45.7922Z" stroke="currentColor" stroke-linecap="round" stroke-linejoin="round" />
</svg>