<svg viewBox="0 0 80 80" fill="none">
  <path fill-rule="evenodd" clip-rule="evenodd" d="M17 17C17 15.8954 17.8954 15 19 15H61C62.1046 15 63 15.8954 63 17C63 18.1046 62.1046 19 61 19H59.3207V24.3146C59.3207 29.1469 57.1368 33.7203 53.3786 36.758L50.0581 39.4419C49.8183 39.6358 49.5743 39.8217 49.3263 39.9997C49.5745 40.1779 49.8188 40.364 50.0589 40.5581L53.3794 43.242C57.1375 46.2797 59.3215 50.8531 59.3215 55.6854V61H61C62.1046 61 63 61.8954 63 63C63 64.1046 62.1046 65 61 65H19C17.8954 65 17 64.1046 17 63C17 61.8954 17.8954 61 19 61H20.6805V55.6854C20.6805 50.8531 22.8644 46.2797 26.6226 43.242L29.9431 40.5581C30.1829 40.3642 30.4269 40.1783 30.6749 40.0003C30.4266 39.8221 30.1823 39.636 29.9423 39.4419L26.6218 36.758C22.8636 33.7203 20.6797 29.1469 20.6797 24.3146V19H19C17.8954 19 17 18.1046 17 17ZM24.6797 19V24.3146C24.6797 27.9388 26.3177 31.3689 29.1363 33.6471L32.4568 36.3311C33.4121 37.1033 34.4544 37.7067 35.546 38.143C36.3056 38.4465 36.8038 39.1821 36.8038 40.0001C36.8039 40.8181 36.3057 41.5537 35.5461 41.8573C34.4548 42.2935 33.4127 42.8969 32.4576 43.6689L29.137 46.3529C26.3184 48.6311 24.6805 52.0612 24.6805 55.6854V61H55.3215V55.6854C55.3215 52.0612 53.6835 48.6311 50.8649 46.3528L47.5444 43.6689C46.5891 42.8967 45.5467 42.2933 44.4552 41.857C43.6955 41.5535 43.1974 40.8179 43.1973 39.9999C43.1973 39.1819 43.6954 38.4463 44.455 38.1427C45.5464 37.7065 46.5885 37.1031 47.5436 36.3311L50.8641 33.6472C53.6827 31.3689 55.3207 27.9388 55.3207 24.3146V19H24.6797Z" stroke="currentColor" stroke-linecap="round" stroke-linejoin="round" />
</svg>