<svg viewBox="0 0 80 80" fill="none">
  <path fill-rule="evenodd" clip-rule="evenodd" d="M43.0859 31.4617C41.8509 28.8604 38.1491 28.8604 36.9142 31.4617L35.9894 33.4097C35.3808 34.6916 34.6776 35.9263 33.8856 37.1037L31.4543 40.7179C29.7571 43.2408 29.4588 46.4534 30.6623 49.2456C31.6003 51.4216 33.3638 53.1361 35.5653 54.0124L36.1408 54.2415C38.6191 55.2279 41.381 55.2279 43.8592 54.2415L44.4347 54.0124C46.6362 53.1361 48.3997 51.4216 49.3377 49.2456C50.5412 46.4534 50.2429 43.2408 48.5458 40.7179L46.1145 37.1038C45.3224 35.9263 44.6192 34.6916 44.0106 33.4096L43.0859 31.4617ZM39.6029 35.1251L40 34.2885L40.3971 35.1251C41.0909 36.5865 41.8926 37.9942 42.7956 39.3364L45.2268 42.9506C46.1645 44.3445 46.3294 46.1195 45.6644 47.6623C45.1462 48.8645 44.1718 49.8118 42.9554 50.296L42.3799 50.5251C40.8516 51.1334 39.1484 51.1334 37.6201 50.5251L37.0446 50.296C35.8282 49.8118 34.8539 48.8645 34.3356 47.6623C33.6706 46.1195 33.8355 44.3445 34.7732 42.9506L37.2045 39.3364C38.1074 37.9941 38.9091 36.5865 39.6029 35.1251Z" stroke="currentColor" stroke-linecap="round" stroke-linejoin="round" />
  <path fill-rule="evenodd" clip-rule="evenodd" d="M40.9623 16.2465C40.2643 15.863 39.3898 15.927 38.7506 16.4383L11.2506 38.4383C10.3881 39.1283 10.2483 40.3869 10.9383 41.2494C11.6283 42.1119 12.8869 42.2518 13.7494 41.5617L18 38.1613V62C18 63.1046 18.8954 64 20 64H60C61.1046 64 62 63.1046 62 62V38.1613L66.2506 41.5617C67.1131 42.2518 68.3717 42.1119 69.0618 41.2494C69.7518 40.3869 69.6119 39.1283 68.7494 38.4383L57 29.0387V20C57 18.3431 55.6569 17 54 17H50C48.3432 17 47 18.3431 47 20V21.0387L41.2494 16.4383C41.1581 16.3652 41.062 16.3013 40.9623 16.2465ZM58 34.9612V60H22V34.9612L40 20.5613L58 34.9612ZM53 21V25.8387L51 24.2388V21H53Z" stroke="currentColor" stroke-linecap="round" stroke-linejoin="round" />
</svg>