<svg viewBox="0 0 80 80" fill="none">
  <path d="M30.9522 64.9496C31.5639 65.4321 32.2184 65.8671 32.9111 66.2483C37.1995 68.6085 42.3978 68.6085 46.6861 66.2483C47.402 65.8544 48.0769 65.403 48.7061 64.9012C48.8626 64.8182 49.0114 64.7163 49.1491 64.5959L63.5112 52.029C65.894 49.944 67.2608 46.9319 67.2608 43.7657V42.5619C67.2608 39.6599 66.1079 36.8766 64.0559 34.8246C62.0038 32.7725 59.2206 31.6196 56.3185 31.6196H56.2431C55.2926 31.6196 54.3548 31.7433 53.4514 31.9817L56.6057 19.8468C56.8283 18.9904 56.4556 18.0903 55.6929 17.6418C54.9301 17.1933 53.9624 17.3054 53.3223 17.9163L48.0891 22.9109L44.8796 21.4922L41.8417 13.7748C41.5437 13.0177 40.8129 12.52 39.9993 12.52C39.1857 12.52 38.4549 13.0177 38.1569 13.7748L35.1187 21.4927L31.9098 22.9113L26.6777 17.9177C26.0377 17.3068 25.0699 17.1947 24.3072 17.6432C23.5444 18.0917 23.1718 18.9918 23.3944 19.8482L26.5838 32.1182C25.5363 31.7906 24.4362 31.6196 23.3185 31.6196H23.2431C20.341 31.6196 17.5578 32.7725 15.5057 34.8246C13.4536 36.8766 12.3008 39.6599 12.3008 42.5619V43.7657C12.3008 46.9319 13.6676 49.944 16.0504 52.029L30.9522 64.9496ZM30.9522 64.9496L30.4516 64.5512M26.9746 43.7263C25.2083 46.9839 24.6233 50.7752 25.3564 54.4457L25.4687 55.0081L18.6581 49.0488C17.1346 47.7158 16.2608 45.79 16.2608 43.7657V42.5619C16.2608 40.7101 16.9964 38.9341 18.3059 37.6247C19.6153 36.3153 21.3913 35.5796 23.2431 35.5796H23.3185C24.5904 35.5796 25.8266 35.9267 26.9004 36.5684C26.3847 37.2223 26.0831 38.0449 26.0831 38.9243V41.3241C26.0831 41.3863 26.0847 41.4481 26.0876 41.5094C26.1295 42.3663 26.4598 43.1318 26.9746 43.7263ZM26.9746 43.7263L26.9857 43.739C26.982 43.7348 26.9783 43.7305 26.9746 43.7263ZM41.8235 37.8645C44.45 37.9752 47.0686 38.3338 49.6439 38.9403L49.6602 38.944C49.8012 38.9773 49.9424 39.0114 50.0831 39.0461V40.9653C43.4975 39.3776 36.6288 39.3776 30.0431 40.9653V39.0461C30.2773 38.9883 30.5117 38.9326 30.7466 38.8789C33.4708 38.256 36.2419 37.9099 39.0183 37.8405M41.8235 37.8645C40.8889 37.8251 39.9533 37.8171 39.0183 37.8405M41.8235 37.8645L39.0183 37.8405M42.1521 33.9151C41.4358 33.8824 40.7189 33.8665 40.002 33.8675C37.1038 33.8713 34.2059 34.1505 31.3478 34.705L28.9777 25.5869L30.133 26.6896C30.7124 27.2426 31.568 27.392 32.3006 27.0682L37.4637 24.7858C37.9404 24.5751 38.3147 24.185 38.5056 23.7001L39.9993 19.9056L41.4928 23.6995C41.6836 24.1844 42.058 24.5745 42.5346 24.7852L47.6984 27.0679C48.431 27.3917 49.2865 27.2423 49.8659 26.6893L51.0223 25.5856L48.6579 34.6818C46.5059 34.2703 44.3317 34.0147 42.1521 33.9151ZM53.0447 36.3552C53.6703 37.0388 54.0431 37.9464 54.0431 38.9243V41.3241C54.0431 42.4414 53.553 43.4198 52.7941 44.0865C54.4121 47.2617 54.9292 50.9098 54.223 54.4459L54.1145 54.9891L60.9035 49.0488C62.4269 47.7158 63.3008 45.79 63.3008 43.7657V42.5619C63.3008 40.7101 62.5651 38.9341 61.2557 37.6247C59.9463 36.3153 58.1703 35.5796 56.3185 35.5796H56.2431C55.12 35.5796 54.0248 35.8502 53.0447 36.3552ZM48.5375 44.6718C42.7416 43.3743 36.7219 43.4244 30.9433 44.8221C29.2548 47.4351 28.646 50.6086 29.2575 53.6704L29.674 55.756C30.2702 58.7412 32.1535 61.3112 34.8205 62.779C37.92 64.4849 41.6772 64.4849 44.7768 62.779C45.2972 62.4926 45.7877 62.1643 46.2447 61.799C46.2898 61.7533 46.3375 61.7094 46.3877 61.6676C48.1866 60.1695 49.4393 58.0894 49.9054 55.7557L50.3219 53.6701C50.9451 50.5496 50.3007 47.3128 48.5375 44.6718Z" stroke="currentColor" stroke-linecap="round" stroke-linejoin="round" />
</svg>