<svg viewBox="0 0 80 80" fill="none">
  <path fill-rule="evenodd" clip-rule="evenodd" d="M26 44.9512C23.2386 44.9512 21 47.1897 21 49.9512C21 52.7126 23.2386 54.9512 26 54.9512C28.7614 54.9512 31 52.7126 31 49.9512C31 47.1897 28.7614 44.9512 26 44.9512ZM25 49.9512C25 49.3989 25.4477 48.9512 26 48.9512C26.5523 48.9512 27 49.3989 27 49.9512C27 50.5035 26.5523 50.9512 26 50.9512C25.4477 50.9512 25 50.5035 25 49.9512Z" stroke="currentColor" stroke-linecap="round" stroke-linejoin="round" />
  <path fill-rule="evenodd" clip-rule="evenodd" d="M54 44.9512C51.2386 44.9512 49 47.1897 49 49.9512C49 52.7126 51.2386 54.9512 54 54.9512C56.7614 54.9512 59 52.7126 59 49.9512C59 47.1897 56.7614 44.9512 54 44.9512ZM53 49.9512C53 49.3989 53.4477 48.9512 54 48.9512C54.5523 48.9512 55 49.3989 55 49.9512C55 50.5035 54.5523 50.9512 54 50.9512C53.4477 50.9512 53 50.5035 53 49.9512Z" stroke="currentColor" stroke-linecap="round" stroke-linejoin="round" />
  <path fill-rule="evenodd" clip-rule="evenodd" d="M20.0898 13.232C26.3567 10.4418 33.1401 9 40 9C46.86 9 53.6433 10.4418 59.9102 13.232C61.2078 13.8098 62 15.0943 62 16.4663V21.9512H64C66.2091 21.9512 68 23.742 68 25.9512V33.9512C68 36.1603 66.2091 37.9512 64 37.9512H62V38.0214C64.3912 39.4047 66 41.99 66 44.9512V56.9512C66 59.9242 63.8377 62.3921 61 62.8682V66.9512C61 69.1603 59.2091 70.9512 57 70.9512H53C50.7909 70.9512 49 69.1603 49 66.9512V62.9512H31V66.9512C31 69.1603 29.2091 70.9512 27 70.9512H23C20.7909 70.9512 19 69.1603 19 66.9512V62.8682C16.1623 62.3921 14 59.9242 14 56.9512V44.9512C14 41.99 15.6088 39.4047 18 38.0214V37.9512H16C13.7909 37.9512 12 36.1603 12 33.9512V25.9512C12 23.742 13.7909 21.9512 16 21.9512H18V16.4663C18 15.0943 18.7922 13.8098 20.0898 13.232ZM58 36.9512L22 36.9512V24.9512H58V36.9512ZM53 66.9512V62.9512H57V66.9512H53ZM62 56.9512C62 58.0557 61.1046 58.9512 60 58.9512H20C18.8954 58.9512 18 58.0557 18 56.9512V44.9512C18 42.742 19.7909 40.9512 22 40.9512H58C60.2091 40.9512 62 42.742 62 44.9512V56.9512ZM23 62.9512H27V66.9512H23V62.9512ZM22 20.9512V16.7613C27.6757 14.281 33.8038 13 40 13C46.1962 13 52.3243 14.281 58 16.7613V20.9512H22ZM18 25.9512H16V33.9512H18V25.9512ZM62 33.9512H64V25.9512H62V33.9512Z" stroke="currentColor" stroke-linecap="round" stroke-linejoin="round" />
</svg>