<svg viewBox="0 0 80 80" fill="none">
  <path d="M68.3417 62.9753L43.5778 13.4475C42.1037 10.4993 37.8964 10.4993 36.4223 13.4475L11.6584 62.9753C10.3286 65.6349 12.2626 68.7642 15.2361 68.7642L33.9992 68.7642C34.9169 68.7642 35.7169 68.1396 35.9394 67.2493L39.9992 51.0104L44.0589 67.2493C44.2815 68.1396 45.0814 68.7642 45.9992 68.7642H64.764C67.7375 68.7642 69.6715 65.6349 68.3417 62.9753ZM68.3417 62.9753L66.5528 63.8698M15.2361 64.7642L40 15.2363L64.764 64.7642H47.5607L41.9394 42.2791C41.7169 41.3888 40.9169 40.7642 39.9992 40.7642C39.0814 40.7642 38.2815 41.3888 38.0589 42.2791L32.4376 64.7642L15.2361 64.7642Z" stroke="currentColor" stroke-linecap="round" stroke-linejoin="round" />
</svg>