<svg viewBox="0 0 80 80" fill="none">
  <path fill-rule="evenodd" clip-rule="evenodd" d="M24.8269 31.268C27.5893 29.6731 30.9927 29.6731 33.7551 31.268C36.5175 32.8628 38.2192 35.8103 38.2192 39C38.2192 42.1897 36.5175 45.1372 33.7551 46.7321C30.9927 48.3269 27.5893 48.3269 24.8269 46.7321C22.0645 45.1372 20.3628 42.1897 20.3628 39C20.3628 35.8103 22.0645 32.8628 24.8269 31.268ZM31.7551 34.7321C30.2303 33.8517 28.3517 33.8517 26.8269 34.7321C25.3021 35.6124 24.3628 37.2393 24.3628 39C24.3628 40.7607 25.3021 42.3876 26.8269 43.2679C28.3517 44.1483 30.2303 44.1483 31.7551 43.2679C33.2799 42.3876 34.2192 40.7607 34.2192 39C34.2192 37.2393 33.2799 35.6124 31.7551 34.7321Z" stroke="currentColor" stroke-linecap="round" stroke-linejoin="round" />
  <path fill-rule="evenodd" clip-rule="evenodd" d="M46.8269 31.268C49.5893 29.6731 52.9927 29.6731 55.7551 31.268C58.5175 32.8628 60.2192 35.8103 60.2192 39C60.2192 42.1897 58.5175 45.1372 55.7551 46.7321C52.9927 48.3269 49.5893 48.3269 46.8269 46.7321C44.0645 45.1372 42.3628 42.1897 42.3628 39C42.3628 35.8103 44.0645 32.8628 46.8269 31.268ZM53.7551 34.7321C52.2303 33.8517 50.3517 33.8517 48.8269 34.7321C47.3021 35.6124 46.3628 37.2393 46.3628 39C46.3628 40.7607 47.3021 42.3876 48.8269 43.2679C50.3517 44.1483 52.2303 44.1483 53.7551 43.2679C55.2799 42.3876 56.2192 40.7607 56.2192 39C56.2192 37.2393 55.2799 35.6124 53.7551 34.7321Z" stroke="currentColor" stroke-linecap="round" stroke-linejoin="round" />
  <path fill-rule="evenodd" clip-rule="evenodd" d="M29.201 68C26.2167 68 23.5874 66.0379 22.738 63.177C22.3988 62.0346 22.3685 60.8226 22.6502 59.6647L22.8407 58.8814C22.8991 58.6412 22.8144 58.296 22.4908 58.0439L21.7257 57.4478C16.8873 53.6778 13.5874 48.2747 12.4431 42.2486C11.262 36.0286 12.4619 29.5918 15.805 24.2151L16.0083 23.888C19.2185 18.7251 24.1227 14.8379 29.8822 12.8913L30.9184 12.5411C36.9982 10.4863 43.5847 10.4863 49.6645 12.5411L50.7007 12.8913C56.4602 14.8379 61.3645 18.7251 64.5746 23.888L64.778 24.2151C68.121 29.5918 69.3209 36.0286 68.1398 42.2486C66.9955 48.2747 63.6957 53.6778 58.8572 57.4478L58.0922 58.0439C57.7619 58.3012 57.6755 58.6545 57.7365 58.9007L57.9222 59.6493C58.211 60.8139 58.1832 62.0347 57.8417 63.185C56.9937 66.0412 54.3688 68 51.3894 68H29.201ZM48.3838 16.3305C43.1348 14.5565 37.4482 14.5565 32.1991 16.3305L31.1629 16.6807C26.2819 18.3304 22.1257 21.6247 19.4053 26.0001L19.2019 26.3272C16.3887 30.8517 15.379 36.2682 16.3729 41.5024C17.3358 46.5734 20.1126 51.1201 24.1842 54.2925L24.9492 54.8886C26.3828 56.0055 27.1954 57.9025 26.7274 59.8268L26.5368 60.6101C26.4223 61.081 26.4346 61.5739 26.5726 62.0385C26.918 63.202 27.9873 64 29.201 64H33.291V58C33.291 56.8954 34.1865 56 35.291 56C36.3956 56 37.291 56.8954 37.291 58V64H43.291V58C43.291 56.8954 44.1865 56 45.291 56C46.3956 56 47.291 56.8954 47.291 58V64H51.3894C52.5981 64 53.6631 63.2053 54.0071 62.0465C54.1457 61.5798 54.157 61.0846 54.0398 60.612L53.8541 59.8635C53.3739 57.9269 54.19 56.0135 55.6337 54.8886L56.3987 54.2925C60.4703 51.1201 63.2471 46.5734 64.21 41.5024C65.204 36.2682 64.1942 30.8517 61.3811 26.3272L61.1777 26.0001C58.4572 21.6247 54.301 18.3304 49.42 16.6807L48.3838 16.3305Z" stroke="currentColor" stroke-linecap="round" stroke-linejoin="round" />
</svg>