<svg viewBox="0 0 80 80" fill="none">
  <path fill-rule="evenodd" clip-rule="evenodd" d="M23 13C20.7909 13 19 14.7909 19 17V21H12C10.8954 21 10 21.8954 10 23C10 24.1046 10.8954 25 12 25H19V29C19 31.2091 20.7909 33 23 33H27C29.2091 33 31 31.2091 31 29V25H68C69.1046 25 70 24.1046 70 23C70 21.8954 69.1046 21 68 21H31V17C31 14.7909 29.2091 13 27 13H23ZM27 17H23V29H27V17Z" stroke="currentColor" stroke-linecap="round" stroke-linejoin="round" />
  <path fill-rule="evenodd" clip-rule="evenodd" d="M12 38C10.8954 38 10 38.8954 10 40C10 41.1046 10.8954 42 12 42H49V46C49 48.2091 50.7909 50 53 50H57C59.2091 50 61 48.2091 61 46V42H68C69.1046 42 70 41.1046 70 40C70 38.8954 69.1046 38 68 38H61V34C61 31.7909 59.2091 30 57 30H53C50.7909 30 49 31.7909 49 34V38H12ZM57 34V46H53V34H57Z" stroke="currentColor" stroke-linecap="round" stroke-linejoin="round" />
  <path fill-rule="evenodd" clip-rule="evenodd" d="M12 55C10.8954 55 10 55.8954 10 57C10 58.1046 10.8954 59 12 59H31V63C31 65.2091 32.7909 67 35 67H39C41.2091 67 43 65.2091 43 63V59H68C69.1046 59 70 58.1046 70 57C70 55.8954 69.1046 55 68 55H43V51C43 48.7909 41.2091 47 39 47H35C32.7909 47 31 48.7909 31 51V55H12ZM39 51H35V63H39V51Z" stroke="currentColor" stroke-linecap="round" stroke-linejoin="round" />
</svg>