<svg viewBox="0 0 80 80" fill="none">
  <path fill-rule="evenodd" clip-rule="evenodd" d="M60.6736 62H19.3264C18.2029 64.3649 15.7924 66 13 66C9.13401 66 6 62.866 6 59V52.309C6 50.5156 5.50235 48.7574 4.56243 47.23L3.04819 44.7694C2.36286 43.6557 2 42.3737 2 41.0661C2 37.1636 5.16359 34 9.06608 34H10V32C10 22.0589 18.0589 14 28 14H52C61.9411 14 70 22.0589 70 32V34H70.9339C74.8364 34 78 37.1636 78 41.0661C78 42.3737 77.6371 43.6557 76.9518 44.7694L75.4376 47.23C74.4977 48.7574 74 50.5156 74 52.309V59C74 62.866 70.866 66 67 66C64.2076 66 61.7971 64.3649 60.6736 62ZM14 32C14 24.268 20.268 18 28 18H52C59.732 18 66 24.268 66 32V34.5121C64.5027 35.0413 63.1872 35.9556 62.1726 37.1358C62.1049 37.2145 62.0386 37.2943 61.9737 37.3753C60.9348 38.6712 60.2471 40.2607 60.0549 42H19.9451C19.7521 40.2536 19.0597 38.6583 18.0137 37.3596C17.9853 37.3244 17.9567 37.2894 17.9279 37.2547C16.9003 36.0169 15.5472 35.059 14 34.5121V32ZM60 46H20V58H60V46ZM64 59C64 60.6569 65.3431 62 67 62C68.6569 62 70 60.6569 70 59V52.309C70 49.7754 70.7031 47.2914 72.0309 45.1336L73.5452 42.673C73.8426 42.1898 74 41.6335 74 41.0661C74 39.3727 72.6273 38 70.9339 38H69C67.4503 38 66.0653 38.705 65.1482 39.8118C64.5242 40.565 64.1168 41.5042 64.0215 42.5334C64.0073 42.687 64 42.8427 64 43V59ZM16 59C16 60.6569 14.6569 62 13 62C11.3431 62 10 60.6569 10 59V52.309C10 49.7754 9.29694 47.2914 7.96906 45.1336L6.45483 42.673C6.15745 42.1898 6 41.6335 6 41.0661C6 39.3727 7.37273 38 9.06608 38H11C12.5497 38 13.9347 38.705 14.8518 39.8118C15.5689 40.6775 16 41.7888 16 43V59Z" stroke="currentColor" stroke-linecap="round" stroke-linejoin="round" />
</svg>