<svg viewBox="0 0 80 80" fill="none">
  <path fill-rule="evenodd" clip-rule="evenodd" d="M16 13C15.3313 13 14.7068 13.3342 14.3359 13.8906L6.3359 25.8906C6.10337 26.2394 5.98631 26.6524 6.00127 27.0714L6.23359 33.5762C6.35627 37.011 8.241 39.9797 11 41.6255V65H10C8.89543 65 8 65.8954 8 67C8 68.1046 8.89543 69 10 69H70C71.1046 69 72 68.1046 72 67C72 65.8954 71.1046 65 70 65H69V41.6254C71.759 39.9796 73.6437 37.011 73.7664 33.5762L73.9987 27.0714C74.0137 26.6525 73.8966 26.2394 73.6641 25.8906L65.6641 13.8906C65.2932 13.3342 64.6687 13 64 13H16ZM64.4203 42.9911C64.6151 42.9829 64.8083 42.9689 65 42.9494V51H15V42.9494C15.2488 42.9747 15.5003 42.9907 15.7541 42.997C15.8358 42.999 15.9178 43 16 43C19.3002 43 22.2288 41.3612 24 38.8418C25.7711 41.3612 28.6998 43 31.9999 43C35.3001 43 38.2288 41.3611 39.9999 38.8418C41.7711 41.3611 44.6997 43 47.9999 43C51.3001 43 54.2288 41.3611 55.9999 38.8418C57.7711 41.3611 60.6997 43 63.9999 43C64.1408 43 64.2809 42.997 64.4203 42.9911ZM64.2175 38.996C67.2261 38.8843 69.6606 36.4666 69.7689 33.4334L69.9783 27.5729L62.9296 17H17.0704L10.0217 27.5729L10.231 33.4334C10.3399 36.4821 12.7988 38.909 15.8287 38.9975C15.8856 38.9992 15.9427 39 16 39C19.108 39 21.658 36.5394 21.769 33.4334L21.787 32.9286C21.8254 31.8525 22.7089 31 23.7857 31H24.2142C25.291 31 26.1745 31.8525 26.213 32.9286L26.231 33.4334C26.3419 36.5394 28.892 39 31.9999 39C35.1079 39 37.658 36.5394 37.7689 33.4334L37.7869 32.9286C37.8254 31.8525 38.7089 31 39.7857 31H40.2142C41.291 31 42.1745 31.8525 42.213 32.9286L42.231 33.4334C42.3419 36.5394 44.892 39 47.9999 39C51.1079 39 53.658 36.5394 53.7689 33.4334L53.7869 32.9286C53.8254 31.8525 54.7089 31 55.7857 31H56.2142C57.291 31 58.1745 31.8525 58.213 32.9286L58.231 33.4334C58.3419 36.5394 60.892 39 63.9999 39C64.0728 39 64.1453 38.9986 64.2175 38.996ZM65 55V65H15V55H65Z" stroke="currentColor" stroke-linecap="round" stroke-linejoin="round" />
</svg>