<svg viewBox="0 0 80 80" fill="none">
  <path d="M36.1573 14C28.9276 14 23.0667 19.8609 23.0667 27.0907C23.0667 31.5729 25.343 35.626 28.9197 38H16C14.8954 38 14 38.8954 14 40C14 41.1046 14.8954 42 16 42H41.7368L46.9895 43.407C51.1245 44.5146 54 48.2616 54 52.5425C54 57.7657 49.7657 62 44.5425 62H36C30.4772 62 26 57.5229 26 52V51.5C26 50.3954 25.1046 49.5 24 49.5C22.8954 49.5 22 50.3954 22 51.5V52C22 59.732 28.268 66 36 66H44.5425C51.9749 66 58 59.9749 58 52.5425C58 48.338 56.0507 44.4955 52.9082 42H64C65.1046 42 66 41.1046 66 40C66 38.8954 65.1046 38 64 38H42.2632L41.5841 37.8181L41.5517 37.8097L33.9525 35.9099C29.9057 34.8982 27.0667 31.2621 27.0667 27.0907C27.0667 22.07 31.1367 18 36.1573 18H42.9333C48.4562 18 52.9333 22.4772 52.9333 28V28.5C52.9333 29.6046 53.8288 30.5 54.9333 30.5C56.0379 30.5 56.9333 29.6046 56.9333 28.5V28C56.9333 20.268 50.6653 14 42.9333 14H36.1573Z" stroke="currentColor" stroke-linecap="round" stroke-linejoin="round" />
</svg>