<svg viewBox="0 0 80 80" fill="none">
  <path fill-rule="evenodd" clip-rule="evenodd" d="M33.6504 57H16.1674C15.8382 57 15.5142 56.9187 15.2239 56.7635L14.8696 56.5739C8.59234 53.2153 6.18423 45.4324 9.46786 39.1155C10.9148 36.332 13.2313 34.2894 15.9102 33.1502C13.8682 26.9271 16.8002 20.0415 22.8927 17.2748C24.8686 16.3775 26.9556 16.0154 28.9861 16.1292C31.2806 12.4506 35.3656 10 40.0237 10C44.6817 10 48.7667 12.4506 51.0612 16.1292C53.0917 16.0154 55.1787 16.3775 57.1546 17.2748C63.2471 20.0415 66.1791 26.9271 64.1371 33.1502C66.816 34.2894 69.1325 36.332 70.5795 39.1155C73.8631 45.4323 71.455 53.2153 65.1777 56.5739L64.8234 56.7634C64.5332 56.9187 64.2091 57 63.8799 57H45.6504V60.6358C45.6504 61.3441 45.8384 62.0396 46.1953 62.6513L47.8502 65.4884C49.0169 67.4884 47.5743 70 45.2589 70H34.741C32.4256 70 30.983 67.4884 32.1496 65.4884L33.1055 63.8497C33.4624 63.238 33.6504 62.5425 33.6504 61.8342V57ZM31.8977 19.1252C33.3485 16.089 36.4452 14 40.0237 14C43.6021 14 46.6988 16.089 48.1496 19.1252C48.5347 19.9309 49.4072 20.3838 50.2877 20.2348C51.9953 19.946 53.8024 20.1456 55.5007 20.9168C60.0048 22.9622 62.0138 28.2593 59.999 32.7772L59.6463 33.5679C59.4024 34.1148 59.4164 34.7423 59.6845 35.2778C59.9526 35.8133 60.4465 36.2005 61.0305 36.333C63.5283 36.8996 65.7607 38.5179 67.0303 40.9604C69.2884 45.3044 67.6585 50.6499 63.3773 53H16.67C12.3888 50.6499 10.7589 45.3044 13.017 40.9604C14.2866 38.5179 16.519 36.8996 19.0168 36.333C19.6008 36.2005 20.0948 35.8133 20.3628 35.2778C20.6309 34.7423 20.6449 34.1148 20.401 33.5679L20.0483 32.7772C18.0335 28.2593 20.0425 22.9622 24.5466 20.9168C26.2449 20.1456 28.052 19.946 29.7596 20.2348C30.6401 20.3838 31.5127 19.9309 31.8977 19.1252ZM37.6504 57V61.8342C37.6504 63.2507 37.2743 64.6417 36.5606 65.8652L36.482 66H43.5179L42.7402 64.6668C42.0265 63.4433 41.6504 62.0523 41.6504 60.6358V57H37.6504Z" stroke="currentColor" stroke-linecap="round" stroke-linejoin="round" />
</svg>