<svg viewBox="0 0 80 80" fill="none">
  <path d="M26 36C31.5228 36 36 31.5228 36 26V16C36 14.8954 35.1046 14 34 14C32.8954 14 32 14.8954 32 16V26C32 29.3137 29.3137 32 26 32H16C14.8954 32 14 32.8954 14 34C14 35.1046 14.8954 36 16 36H26Z" stroke="currentColor" stroke-linecap="round" stroke-linejoin="round" />
  <path d="M26 44C31.5228 44 36 48.4771 36 54V64C36 65.1046 35.1046 66 34 66C32.8954 66 32 65.1046 32 64V54C32 50.6863 29.3137 48 26 48H16C14.8954 48 14 47.1046 14 46C14 44.8954 14.8954 44 16 44H26Z" stroke="currentColor" stroke-linecap="round" stroke-linejoin="round" />
  <path d="M44 26C44 31.5228 48.4772 36 54 36H64C65.1046 36 66 35.1046 66 34C66 32.8954 65.1046 32 64 32H54C50.6863 32 48 29.3137 48 26V16C48 14.8954 47.1046 14 46 14C44.8954 14 44 14.8954 44 16V26Z" stroke="currentColor" stroke-linecap="round" stroke-linejoin="round" />
  <path d="M54 44C48.4772 44 44 48.4771 44 54V64C44 65.1046 44.8954 66 46 66C47.1046 66 48 65.1046 48 64V54C48 50.6863 50.6863 48 54 48H64C65.1046 48 66 47.1046 66 46C66 44.8954 65.1046 44 64 44H54Z" stroke="currentColor" stroke-linecap="round" stroke-linejoin="round" />
</svg>